0, 0, Header, 1, 5, 480
1, 0, Start_track
1, 0, Title_t, "tchaikovsky concerto1 mv3"
1, 0, Copyright_t, "Adaptation for Disklavier pianos, by: Robert C. Kuhmann (c) 2012."
1, 0, Text_t, "Seq. (c) by: Segundo G. Yogore,  2007\012"
1, 0, Time_signature, 3, 2, 24, 8
1, 0, Key_signature, -5, "major"
1, 0, Tempo, 400000
1, 63360, Tempo, 454545
1, 69120, Tempo, 400000
1, 79200, Tempo, 454545
1, 91920, Tempo, 465116
1, 92160, Tempo, 476190
1, 92400, Tempo, 487805
1, 92640, Tempo, 504202
1, 92880, Tempo, 517241
1, 93120, Tempo, 530973
1, 93360, Tempo, 545455
1, 93600, Tempo, 410959
1, 99360, Tempo, 400000
1, 144000, Tempo, 454545
1, 159360, Tempo, 400000
1, 174240, Tempo, 454545
1, 180000, Tempo, 400000
1, 190080, Tempo, 454545
1, 191520, Key_signature, -3, "major"
1, 197280, Tempo, 400000
1, 216000, Key_signature, -5, "major"
1, 262080, Tempo, 375000
1, 306960, Tempo, 454545
1, 348480, Tempo, 400000
1, 358800, Tempo, 416667
1, 359040, Tempo, 434783
1, 359280, Tempo, 454545
1, 359520, Tempo, 483871
1, 359760, Tempo, 508475
1, 360000, Time_signature, 7, 3, 12, 8
1, 360000, Tempo, 535714
1, 360240, Tempo, 618557
1, 360480, Tempo, 750000
1, 360720, Tempo, 845070
1, 360960, Tempo, 1016949
1, 361200, Tempo, 1200000
1, 361440, Tempo, 1463415
1, 361680, Time_signature, 3, 2, 24, 8
1, 361680, Key_signature, -2, "major"
1, 361680, Tempo, 487805
1, 361920, Tempo, 540541
1, 389520, Tempo, 375000
1, 395280, Tempo, 375000
1, 430800, Tempo, 454545
1, 432240, Time_signature, 8, 2, 24, 8
1, 432240, End_track
2, 0, Start_track
2, 0, Title_t, "Grand Piano"
2, 0, Program_c, 0, 0
2, 0, Control_c, 0, 7, 115
2, 0, Control_c, 0, 10, 86
2, 5760, Note_on_c, 0, 61, 65
2, 5760, Note_on_c, 0, 65, 65
2, 5807, Note_on_c, 0, 65, 0
2, 5807, Note_on_c, 0, 61, 0
2, 6000, Note_on_c, 0, 73, 65
2, 6000, Note_on_c, 0, 77, 65
2, 6047, Note_on_c, 0, 77, 0
2, 6047, Note_on_c, 0, 73, 0
2, 6240, Note_on_c, 0, 75, 91
2, 6240, Note_on_c, 0, 78, 91
2, 6600, Note_on_c, 0, 78, 0
2, 6600, Note_on_c, 0, 75, 0
2, 6600, Note_on_c, 0, 73, 65
2, 6600, Note_on_c, 0, 77, 65
2, 6660, Note_on_c, 0, 77, 0
2, 6660, Note_on_c, 0, 73, 0
2, 6660, Note_on_c, 0, 78, 65
2, 6720, Note_on_c, 0, 78, 0
2, 6720, Note_on_c, 0, 73, 65
2, 6720, Note_on_c, 0, 77, 65
2, 6767, Note_on_c, 0, 77, 0
2, 6767, Note_on_c, 0, 73, 0
2, 6960, Note_on_c, 0, 72, 65
2, 6960, Note_on_c, 0, 75, 65
2, 7007, Note_on_c, 0, 75, 0
2, 7007, Note_on_c, 0, 72, 0
2, 7200, Note_on_c, 0, 61, 65
2, 7200, Note_on_c, 0, 65, 65
2, 7247, Note_on_c, 0, 65, 0
2, 7247, Note_on_c, 0, 61, 0
2, 7440, Note_on_c, 0, 73, 65
2, 7440, Note_on_c, 0, 77, 65
2, 7487, Note_on_c, 0, 77, 0
2, 7487, Note_on_c, 0, 73, 0
2, 7680, Note_on_c, 0, 72, 91
2, 7680, Note_on_c, 0, 75, 91
2, 8040, Note_on_c, 0, 75, 0
2, 8040, Note_on_c, 0, 72, 0
2, 8040, Note_on_c, 0, 70, 65
2, 8040, Note_on_c, 0, 73, 65
2, 8100, Note_on_c, 0, 73, 0
2, 8100, Note_on_c, 0, 70, 0
2, 8100, Note_on_c, 0, 75, 65
2, 8160, Note_on_c, 0, 75, 0
2, 8160, Note_on_c, 0, 70, 65
2, 8160, Note_on_c, 0, 73, 65
2, 8207, Note_on_c, 0, 73, 0
2, 8207, Note_on_c, 0, 70, 0
2, 8400, Note_on_c, 0, 65, 65
2, 8400, Note_on_c, 0, 69, 65
2, 8400, Note_on_c, 0, 72, 65
2, 8447, Note_on_c, 0, 72, 0
2, 8447, Note_on_c, 0, 69, 0
2, 8447, Note_on_c, 0, 65, 0
2, 8640, Note_on_c, 0, 61, 65
2, 8640, Note_on_c, 0, 70, 65
2, 8687, Note_on_c, 0, 70, 0
2, 8687, Note_on_c, 0, 61, 0
2, 8880, Note_on_c, 0, 73, 65
2, 8880, Note_on_c, 0, 77, 65
2, 8927, Note_on_c, 0, 77, 0
2, 8927, Note_on_c, 0, 73, 0
2, 9120, Note_on_c, 0, 72, 91
2, 9120, Note_on_c, 0, 75, 91
2, 9480, Note_on_c, 0, 75, 0
2, 9480, Note_on_c, 0, 72, 0
2, 9480, Note_on_c, 0, 70, 65
2, 9480, Note_on_c, 0, 73, 65
2, 9540, Note_on_c, 0, 73, 0
2, 9540, Note_on_c, 0, 70, 0
2, 9540, Note_on_c, 0, 75, 65
2, 9600, Note_on_c, 0, 75, 0
2, 9600, Note_on_c, 0, 70, 65
2, 9600, Note_on_c, 0, 73, 65
2, 9647, Note_on_c, 0, 73, 0
2, 9647, Note_on_c, 0, 70, 0
2, 9840, Note_on_c, 0, 65, 65
2, 9840, Note_on_c, 0, 69, 65
2, 9840, Note_on_c, 0, 72, 65
2, 9887, Note_on_c, 0, 72, 0
2, 9887, Note_on_c, 0, 69, 0
2, 9887, Note_on_c, 0, 65, 0
2, 10080, Note_on_c, 0, 61, 65
2, 10080, Note_on_c, 0, 70, 65
2, 10127, Note_on_c, 0, 70, 0
2, 10127, Note_on_c, 0, 61, 0
2, 10320, Note_on_c, 0, 73, 65
2, 10320, Note_on_c, 0, 77, 65
2, 10367, Note_on_c, 0, 77, 0
2, 10367, Note_on_c, 0, 73, 0
2, 10560, Note_on_c, 0, 72, 91
2, 10560, Note_on_c, 0, 75, 91
2, 10920, Note_on_c, 0, 75, 0
2, 10920, Note_on_c, 0, 72, 0
2, 10920, Note_on_c, 0, 70, 65
2, 10920, Note_on_c, 0, 73, 65
2, 10980, Note_on_c, 0, 73, 0
2, 10980, Note_on_c, 0, 70, 0
2, 10980, Note_on_c, 0, 75, 65
2, 11040, Note_on_c, 0, 75, 0
2, 11040, Note_on_c, 0, 70, 65
2, 11040, Note_on_c, 0, 73, 65
2, 11087, Note_on_c, 0, 73, 0
2, 11087, Note_on_c, 0, 70, 0
2, 11280, Note_on_c, 0, 65, 65
2, 11280, Note_on_c, 0, 69, 65
2, 11280, Note_on_c, 0, 72, 65
2, 11327, Note_on_c, 0, 72, 0
2, 11327, Note_on_c, 0, 69, 0
2, 11327, Note_on_c, 0, 65, 0
2, 11520, Note_on_c, 0, 61, 65
2, 11520, Note_on_c, 0, 65, 65
2, 11567, Note_on_c, 0, 65, 0
2, 11567, Note_on_c, 0, 61, 0
2, 11760, Note_on_c, 0, 73, 65
2, 11760, Note_on_c, 0, 77, 65
2, 11807, Note_on_c, 0, 77, 0
2, 11807, Note_on_c, 0, 73, 0
2, 12000, Note_on_c, 0, 75, 91
2, 12000, Note_on_c, 0, 78, 91
2, 12360, Note_on_c, 0, 78, 0
2, 12360, Note_on_c, 0, 75, 0
2, 12360, Note_on_c, 0, 73, 65
2, 12360, Note_on_c, 0, 77, 65
2, 12420, Note_on_c, 0, 77, 0
2, 12420, Note_on_c, 0, 73, 0
2, 12420, Note_on_c, 0, 78, 65
2, 12480, Note_on_c, 0, 78, 0
2, 12480, Note_on_c, 0, 73, 65
2, 12480, Note_on_c, 0, 77, 65
2, 12527, Note_on_c, 0, 77, 0
2, 12527, Note_on_c, 0, 73, 0
2, 12720, Note_on_c, 0, 72, 65
2, 12720, Note_on_c, 0, 75, 65
2, 12767, Note_on_c, 0, 75, 0
2, 12767, Note_on_c, 0, 72, 0
2, 12960, Note_on_c, 0, 61, 65
2, 12960, Note_on_c, 0, 65, 65
2, 13007, Note_on_c, 0, 65, 0
2, 13007, Note_on_c, 0, 61, 0
2, 13200, Note_on_c, 0, 73, 65
2, 13200, Note_on_c, 0, 77, 65
2, 13247, Note_on_c, 0, 77, 0
2, 13247, Note_on_c, 0, 73, 0
2, 13440, Note_on_c, 0, 72, 91
2, 13440, Note_on_c, 0, 75, 91
2, 13800, Note_on_c, 0, 75, 0
2, 13800, Note_on_c, 0, 72, 0
2, 13800, Note_on_c, 0, 70, 65
2, 13800, Note_on_c, 0, 73, 65
2, 13860, Note_on_c, 0, 73, 0
2, 13860, Note_on_c, 0, 70, 0
2, 13860, Note_on_c, 0, 75, 65
2, 13920, Note_on_c, 0, 75, 0
2, 13920, Note_on_c, 0, 70, 65
2, 13920, Note_on_c, 0, 73, 65
2, 13967, Note_on_c, 0, 73, 0
2, 13967, Note_on_c, 0, 70, 0
2, 14160, Note_on_c, 0, 65, 65
2, 14160, Note_on_c, 0, 69, 65
2, 14160, Note_on_c, 0, 72, 65
2, 14207, Note_on_c, 0, 72, 0
2, 14207, Note_on_c, 0, 69, 0
2, 14207, Note_on_c, 0, 65, 0
2, 14400, Note_on_c, 0, 61, 65
2, 14400, Note_on_c, 0, 70, 65
2, 14447, Note_on_c, 0, 70, 0
2, 14447, Note_on_c, 0, 61, 0
2, 14640, Note_on_c, 0, 73, 65
2, 14640, Note_on_c, 0, 77, 65
2, 14687, Note_on_c, 0, 77, 0
2, 14687, Note_on_c, 0, 73, 0
2, 14880, Note_on_c, 0, 72, 91
2, 14880, Note_on_c, 0, 75, 91
2, 15240, Note_on_c, 0, 75, 0
2, 15240, Note_on_c, 0, 72, 0
2, 15240, Note_on_c, 0, 70, 65
2, 15240, Note_on_c, 0, 73, 65
2, 15300, Note_on_c, 0, 73, 0
2, 15300, Note_on_c, 0, 70, 0
2, 15300, Note_on_c, 0, 75, 65
2, 15360, Note_on_c, 0, 75, 0
2, 15360, Note_on_c, 0, 70, 65
2, 15360, Note_on_c, 0, 73, 65
2, 15407, Note_on_c, 0, 73, 0
2, 15407, Note_on_c, 0, 70, 0
2, 15600, Note_on_c, 0, 65, 65
2, 15600, Note_on_c, 0, 69, 65
2, 15600, Note_on_c, 0, 72, 65
2, 15647, Note_on_c, 0, 72, 0
2, 15647, Note_on_c, 0, 69, 0
2, 15647, Note_on_c, 0, 65, 0
2, 15840, Note_on_c, 0, 61, 65
2, 15840, Note_on_c, 0, 65, 65
2, 15840, Note_on_c, 0, 70, 65
2, 15887, Note_on_c, 0, 70, 0
2, 15887, Note_on_c, 0, 65, 0
2, 15887, Note_on_c, 0, 61, 0
2, 17280, Note_on_c, 0, 61, 65
2, 17280, Note_on_c, 0, 65, 65
2, 17327, Note_on_c, 0, 65, 0
2, 17327, Note_on_c, 0, 61, 0
2, 17520, Note_on_c, 0, 73, 65
2, 17520, Note_on_c, 0, 77, 65
2, 17567, Note_on_c, 0, 77, 0
2, 17567, Note_on_c, 0, 73, 0
2, 17760, Note_on_c, 0, 75, 91
2, 17760, Note_on_c, 0, 78, 91
2, 18120, Note_on_c, 0, 78, 0
2, 18120, Note_on_c, 0, 75, 0
2, 18120, Note_on_c, 0, 73, 65
2, 18120, Note_on_c, 0, 77, 65
2, 18180, Note_on_c, 0, 77, 0
2, 18180, Note_on_c, 0, 73, 0
2, 18180, Note_on_c, 0, 78, 65
2, 18240, Note_on_c, 0, 78, 0
2, 18240, Note_on_c, 0, 73, 65
2, 18240, Note_on_c, 0, 77, 65
2, 18287, Note_on_c, 0, 77, 0
2, 18287, Note_on_c, 0, 73, 0
2, 18480, Note_on_c, 0, 72, 65
2, 18480, Note_on_c, 0, 75, 65
2, 18527, Note_on_c, 0, 75, 0
2, 18527, Note_on_c, 0, 72, 0
2, 18720, Note_on_c, 0, 61, 65
2, 18720, Note_on_c, 0, 65, 65
2, 18767, Note_on_c, 0, 65, 0
2, 18767, Note_on_c, 0, 61, 0
2, 18960, Note_on_c, 0, 73, 65
2, 18960, Note_on_c, 0, 77, 65
2, 19007, Note_on_c, 0, 77, 0
2, 19007, Note_on_c, 0, 73, 0
2, 19200, Note_on_c, 0, 72, 91
2, 19200, Note_on_c, 0, 75, 91
2, 19560, Note_on_c, 0, 75, 0
2, 19560, Note_on_c, 0, 72, 0
2, 19560, Note_on_c, 0, 70, 65
2, 19560, Note_on_c, 0, 73, 65
2, 19620, Note_on_c, 0, 73, 0
2, 19620, Note_on_c, 0, 70, 0
2, 19620, Note_on_c, 0, 75, 65
2, 19680, Note_on_c, 0, 75, 0
2, 19680, Note_on_c, 0, 70, 65
2, 19680, Note_on_c, 0, 73, 65
2, 19727, Note_on_c, 0, 73, 0
2, 19727, Note_on_c, 0, 70, 0
2, 19920, Note_on_c, 0, 65, 65
2, 19920, Note_on_c, 0, 69, 65
2, 19920, Note_on_c, 0, 72, 65
2, 19967, Note_on_c, 0, 72, 0
2, 19967, Note_on_c, 0, 69, 0
2, 19967, Note_on_c, 0, 65, 0
2, 20160, Note_on_c, 0, 61, 65
2, 20160, Note_on_c, 0, 70, 65
2, 20207, Note_on_c, 0, 70, 0
2, 20207, Note_on_c, 0, 61, 0
2, 20400, Note_on_c, 0, 73, 65
2, 20400, Note_on_c, 0, 77, 65
2, 20447, Note_on_c, 0, 77, 0
2, 20447, Note_on_c, 0, 73, 0
2, 20640, Note_on_c, 0, 72, 91
2, 20640, Note_on_c, 0, 75, 91
2, 21000, Note_on_c, 0, 75, 0
2, 21000, Note_on_c, 0, 72, 0
2, 21000, Note_on_c, 0, 70, 65
2, 21000, Note_on_c, 0, 73, 65
2, 21060, Note_on_c, 0, 73, 0
2, 21060, Note_on_c, 0, 70, 0
2, 21060, Note_on_c, 0, 75, 65
2, 21120, Note_on_c, 0, 75, 0
2, 21120, Note_on_c, 0, 70, 65
2, 21120, Note_on_c, 0, 73, 65
2, 21167, Note_on_c, 0, 73, 0
2, 21167, Note_on_c, 0, 70, 0
2, 21360, Note_on_c, 0, 65, 65
2, 21360, Note_on_c, 0, 69, 65
2, 21360, Note_on_c, 0, 72, 65
2, 21407, Note_on_c, 0, 72, 0
2, 21407, Note_on_c, 0, 69, 0
2, 21407, Note_on_c, 0, 65, 0
2, 21600, Note_on_c, 0, 61, 65
2, 21600, Note_on_c, 0, 70, 65
2, 21647, Note_on_c, 0, 70, 0
2, 21647, Note_on_c, 0, 61, 0
2, 21840, Note_on_c, 0, 73, 65
2, 21840, Note_on_c, 0, 77, 65
2, 21887, Note_on_c, 0, 77, 0
2, 21887, Note_on_c, 0, 73, 0
2, 22080, Note_on_c, 0, 72, 91
2, 22080, Note_on_c, 0, 75, 91
2, 22440, Note_on_c, 0, 75, 0
2, 22440, Note_on_c, 0, 72, 0
2, 22440, Note_on_c, 0, 70, 65
2, 22440, Note_on_c, 0, 73, 65
2, 22500, Note_on_c, 0, 73, 0
2, 22500, Note_on_c, 0, 70, 0
2, 22500, Note_on_c, 0, 75, 65
2, 22560, Note_on_c, 0, 75, 0
2, 22560, Note_on_c, 0, 70, 65
2, 22560, Note_on_c, 0, 73, 65
2, 22607, Note_on_c, 0, 73, 0
2, 22607, Note_on_c, 0, 70, 0
2, 22800, Note_on_c, 0, 65, 65
2, 22800, Note_on_c, 0, 69, 65
2, 22800, Note_on_c, 0, 72, 65
2, 22847, Note_on_c, 0, 72, 0
2, 22847, Note_on_c, 0, 69, 0
2, 22847, Note_on_c, 0, 65, 0
2, 23040, Note_on_c, 0, 61, 65
2, 23040, Note_on_c, 0, 65, 65
2, 23087, Note_on_c, 0, 65, 0
2, 23087, Note_on_c, 0, 61, 0
2, 23280, Note_on_c, 0, 73, 65
2, 23280, Note_on_c, 0, 77, 65
2, 23327, Note_on_c, 0, 77, 0
2, 23327, Note_on_c, 0, 73, 0
2, 23520, Note_on_c, 0, 75, 91
2, 23520, Note_on_c, 0, 78, 91
2, 23880, Note_on_c, 0, 78, 0
2, 23880, Note_on_c, 0, 75, 0
2, 23880, Note_on_c, 0, 73, 65
2, 23880, Note_on_c, 0, 77, 65
2, 23940, Note_on_c, 0, 77, 0
2, 23940, Note_on_c, 0, 73, 0
2, 23940, Note_on_c, 0, 78, 65
2, 24000, Note_on_c, 0, 78, 0
2, 24000, Note_on_c, 0, 73, 65
2, 24000, Note_on_c, 0, 77, 65
2, 24047, Note_on_c, 0, 77, 0
2, 24047, Note_on_c, 0, 73, 0
2, 24240, Note_on_c, 0, 72, 65
2, 24240, Note_on_c, 0, 75, 65
2, 24287, Note_on_c, 0, 75, 0
2, 24287, Note_on_c, 0, 72, 0
2, 24480, Note_on_c, 0, 61, 65
2, 24480, Note_on_c, 0, 65, 65
2, 24527, Note_on_c, 0, 65, 0
2, 24527, Note_on_c, 0, 61, 0
2, 24720, Note_on_c, 0, 73, 65
2, 24720, Note_on_c, 0, 77, 65
2, 24767, Note_on_c, 0, 77, 0
2, 24767, Note_on_c, 0, 73, 0
2, 24960, Note_on_c, 0, 72, 91
2, 24960, Note_on_c, 0, 75, 91
2, 25320, Note_on_c, 0, 75, 0
2, 25320, Note_on_c, 0, 72, 0
2, 25320, Note_on_c, 0, 70, 65
2, 25320, Note_on_c, 0, 73, 65
2, 25380, Note_on_c, 0, 73, 0
2, 25380, Note_on_c, 0, 70, 0
2, 25380, Note_on_c, 0, 75, 65
2, 25440, Note_on_c, 0, 75, 0
2, 25440, Note_on_c, 0, 70, 65
2, 25440, Note_on_c, 0, 73, 65
2, 25487, Note_on_c, 0, 73, 0
2, 25487, Note_on_c, 0, 70, 0
2, 25680, Note_on_c, 0, 65, 65
2, 25680, Note_on_c, 0, 69, 65
2, 25680, Note_on_c, 0, 72, 65
2, 25727, Note_on_c, 0, 72, 0
2, 25727, Note_on_c, 0, 69, 0
2, 25727, Note_on_c, 0, 65, 0
2, 25920, Note_on_c, 0, 61, 65
2, 25920, Note_on_c, 0, 70, 65
2, 25967, Note_on_c, 0, 70, 0
2, 25967, Note_on_c, 0, 61, 0
2, 26160, Note_on_c, 0, 73, 65
2, 26160, Note_on_c, 0, 77, 65
2, 26207, Note_on_c, 0, 77, 0
2, 26207, Note_on_c, 0, 73, 0
2, 26400, Note_on_c, 0, 72, 91
2, 26400, Note_on_c, 0, 75, 91
2, 26760, Note_on_c, 0, 75, 0
2, 26760, Note_on_c, 0, 72, 0
2, 26760, Note_on_c, 0, 70, 65
2, 26760, Note_on_c, 0, 73, 65
2, 26820, Note_on_c, 0, 73, 0
2, 26820, Note_on_c, 0, 70, 0
2, 26820, Note_on_c, 0, 75, 65
2, 26880, Note_on_c, 0, 75, 0
2, 26880, Note_on_c, 0, 70, 65
2, 26880, Note_on_c, 0, 73, 65
2, 26927, Note_on_c, 0, 73, 0
2, 26927, Note_on_c, 0, 70, 0
2, 27120, Note_on_c, 0, 65, 65
2, 27120, Note_on_c, 0, 69, 65
2, 27120, Note_on_c, 0, 72, 65
2, 27167, Note_on_c, 0, 72, 0
2, 27167, Note_on_c, 0, 69, 0
2, 27167, Note_on_c, 0, 65, 0
2, 27360, Note_on_c, 0, 61, 65
2, 27360, Note_on_c, 0, 65, 65
2, 27360, Note_on_c, 0, 70, 65
2, 27407, Note_on_c, 0, 70, 0
2, 27407, Note_on_c, 0, 65, 0
2, 27407, Note_on_c, 0, 61, 0
2, 28800, Note_on_c, 0, 65, 78
2, 28800, Note_on_c, 0, 68, 78
2, 28847, Note_on_c, 0, 68, 0
2, 28847, Note_on_c, 0, 65, 0
2, 29040, Note_on_c, 0, 77, 78
2, 29040, Note_on_c, 0, 80, 78
2, 29087, Note_on_c, 0, 80, 0
2, 29087, Note_on_c, 0, 77, 0
2, 29280, Note_on_c, 0, 78, 104
2, 29280, Note_on_c, 0, 82, 104
2, 29640, Note_on_c, 0, 82, 0
2, 29640, Note_on_c, 0, 78, 0
2, 29640, Note_on_c, 0, 77, 78
2, 29640, Note_on_c, 0, 80, 78
2, 29700, Note_on_c, 0, 80, 0
2, 29700, Note_on_c, 0, 77, 0
2, 29700, Note_on_c, 0, 82, 78
2, 29760, Note_on_c, 0, 82, 0
2, 29760, Note_on_c, 0, 77, 78
2, 29760, Note_on_c, 0, 80, 78
2, 29807, Note_on_c, 0, 80, 0
2, 29807, Note_on_c, 0, 77, 0
2, 30000, Note_on_c, 0, 75, 78
2, 30000, Note_on_c, 0, 78, 78
2, 30047, Note_on_c, 0, 78, 0
2, 30047, Note_on_c, 0, 75, 0
2, 30240, Note_on_c, 0, 73, 78
2, 30240, Note_on_c, 0, 77, 78
2, 30287, Note_on_c, 0, 77, 0
2, 30287, Note_on_c, 0, 73, 0
2, 30480, Note_on_c, 0, 71, 78
2, 30480, Note_on_c, 0, 74, 78
2, 30527, Note_on_c, 0, 74, 0
2, 30527, Note_on_c, 0, 71, 0
2, 30720, Note_on_c, 0, 72, 78
2, 30720, Note_on_c, 0, 75, 78
2, 30767, Note_on_c, 0, 75, 0
2, 30767, Note_on_c, 0, 72, 0
2, 30960, Note_on_c, 0, 68, 78
2, 30960, Note_on_c, 0, 72, 78
2, 31007, Note_on_c, 0, 72, 0
2, 31007, Note_on_c, 0, 68, 0
2, 31200, Note_on_c, 0, 70, 78
2, 31200, Note_on_c, 0, 73, 78
2, 31247, Note_on_c, 0, 73, 0
2, 31247, Note_on_c, 0, 70, 0
2, 31440, Note_on_c, 0, 72, 78
2, 31440, Note_on_c, 0, 75, 78
2, 31487, Note_on_c, 0, 75, 0
2, 31487, Note_on_c, 0, 72, 0
2, 31680, Note_on_c, 0, 65, 78
2, 31680, Note_on_c, 0, 68, 78
2, 31727, Note_on_c, 0, 68, 0
2, 31727, Note_on_c, 0, 65, 0
2, 31920, Note_on_c, 0, 77, 78
2, 31920, Note_on_c, 0, 80, 78
2, 31967, Note_on_c, 0, 80, 0
2, 31967, Note_on_c, 0, 77, 0
2, 32160, Note_on_c, 0, 78, 104
2, 32160, Note_on_c, 0, 82, 104
2, 32520, Note_on_c, 0, 82, 0
2, 32520, Note_on_c, 0, 78, 0
2, 32520, Note_on_c, 0, 77, 78
2, 32520, Note_on_c, 0, 80, 78
2, 32580, Note_on_c, 0, 80, 0
2, 32580, Note_on_c, 0, 77, 0
2, 32580, Note_on_c, 0, 82, 78
2, 32640, Note_on_c, 0, 82, 0
2, 32640, Note_on_c, 0, 77, 78
2, 32640, Note_on_c, 0, 80, 78
2, 32687, Note_on_c, 0, 80, 0
2, 32687, Note_on_c, 0, 77, 0
2, 32880, Note_on_c, 0, 75, 78
2, 32880, Note_on_c, 0, 78, 78
2, 32927, Note_on_c, 0, 78, 0
2, 32927, Note_on_c, 0, 75, 0
2, 33120, Note_on_c, 0, 73, 78
2, 33120, Note_on_c, 0, 77, 78
2, 33167, Note_on_c, 0, 77, 0
2, 33167, Note_on_c, 0, 73, 0
2, 33360, Note_on_c, 0, 71, 78
2, 33360, Note_on_c, 0, 74, 78
2, 33407, Note_on_c, 0, 74, 0
2, 33407, Note_on_c, 0, 71, 0
2, 33600, Note_on_c, 0, 72, 78
2, 33600, Note_on_c, 0, 75, 78
2, 33647, Note_on_c, 0, 75, 0
2, 33647, Note_on_c, 0, 72, 0
2, 33840, Note_on_c, 0, 68, 78
2, 33840, Note_on_c, 0, 72, 78
2, 33887, Note_on_c, 0, 72, 0
2, 33887, Note_on_c, 0, 68, 0
2, 34080, Note_on_c, 0, 70, 78
2, 34080, Note_on_c, 0, 73, 78
2, 34127, Note_on_c, 0, 73, 0
2, 34127, Note_on_c, 0, 70, 0
2, 34320, Note_on_c, 0, 72, 78
2, 34320, Note_on_c, 0, 75, 78
2, 34367, Note_on_c, 0, 75, 0
2, 34367, Note_on_c, 0, 72, 0
2, 34560, Note_on_c, 0, 73, 78
2, 34560, Note_on_c, 0, 77, 78
2, 34607, Note_on_c, 0, 77, 0
2, 34607, Note_on_c, 0, 73, 0
2, 34800, Note_on_c, 0, 75, 78
2, 34800, Note_on_c, 0, 78, 78
2, 34847, Note_on_c, 0, 78, 0
2, 34847, Note_on_c, 0, 75, 0
2, 35040, Note_on_c, 0, 77, 78
2, 35040, Note_on_c, 0, 80, 78
2, 35087, Note_on_c, 0, 80, 0
2, 35087, Note_on_c, 0, 77, 0
2, 35280, Note_on_c, 0, 75, 78
2, 35280, Note_on_c, 0, 78, 78
2, 35327, Note_on_c, 0, 78, 0
2, 35327, Note_on_c, 0, 75, 0
2, 35520, Note_on_c, 0, 73, 78
2, 35520, Note_on_c, 0, 77, 78
2, 35567, Note_on_c, 0, 77, 0
2, 35567, Note_on_c, 0, 73, 0
2, 35760, Note_on_c, 0, 75, 78
2, 35760, Note_on_c, 0, 78, 78
2, 35807, Note_on_c, 0, 78, 0
2, 35807, Note_on_c, 0, 75, 0
2, 36000, Note_on_c, 0, 77, 78
2, 36000, Note_on_c, 0, 80, 78
2, 36047, Note_on_c, 0, 80, 0
2, 36047, Note_on_c, 0, 77, 0
2, 36240, Note_on_c, 0, 75, 78
2, 36240, Note_on_c, 0, 78, 78
2, 36287, Note_on_c, 0, 78, 0
2, 36287, Note_on_c, 0, 75, 0
2, 36480, Note_on_c, 0, 73, 78
2, 36480, Note_on_c, 0, 77, 78
2, 36527, Note_on_c, 0, 77, 0
2, 36527, Note_on_c, 0, 73, 0
2, 36720, Note_on_c, 0, 73, 78
2, 36720, Note_on_c, 0, 77, 78
2, 36767, Note_on_c, 0, 77, 0
2, 36767, Note_on_c, 0, 73, 0
2, 36960, Note_on_c, 0, 73, 78
2, 36960, Note_on_c, 0, 77, 78
2, 37007, Note_on_c, 0, 77, 0
2, 37007, Note_on_c, 0, 73, 0
2, 37200, Note_on_c, 0, 73, 78
2, 37200, Note_on_c, 0, 77, 78
2, 37247, Note_on_c, 0, 77, 0
2, 37247, Note_on_c, 0, 73, 0
2, 40560, Note_on_c, 0, 77, 78
2, 40560, Note_on_c, 0, 85, 78
2, 40560, Note_on_c, 0, 89, 78
2, 40607, Note_on_c, 0, 89, 0
2, 40607, Note_on_c, 0, 85, 0
2, 40607, Note_on_c, 0, 77, 0
2, 40800, Note_on_c, 0, 78, 104
2, 40800, Note_on_c, 0, 87, 104
2, 40800, Note_on_c, 0, 90, 104
2, 41160, Note_on_c, 0, 90, 0
2, 41160, Note_on_c, 0, 87, 0
2, 41160, Note_on_c, 0, 78, 0
2, 41160, Note_on_c, 0, 85, 78
2, 41160, Note_on_c, 0, 89, 78
2, 41220, Note_on_c, 0, 89, 0
2, 41220, Note_on_c, 0, 85, 0
2, 41220, Note_on_c, 0, 77, 78
2, 41280, Note_on_c, 0, 77, 0
2, 41280, Note_on_c, 0, 85, 78
2, 41280, Note_on_c, 0, 89, 78
2, 41327, Note_on_c, 0, 89, 0
2, 41327, Note_on_c, 0, 85, 0
2, 41520, Note_on_c, 0, 75, 78
2, 41520, Note_on_c, 0, 84, 78
2, 41520, Note_on_c, 0, 87, 78
2, 41567, Note_on_c, 0, 87, 0
2, 41567, Note_on_c, 0, 84, 0
2, 41567, Note_on_c, 0, 75, 0
2, 42000, Note_on_c, 0, 77, 78
2, 42000, Note_on_c, 0, 85, 78
2, 42000, Note_on_c, 0, 89, 78
2, 42047, Note_on_c, 0, 89, 0
2, 42047, Note_on_c, 0, 85, 0
2, 42047, Note_on_c, 0, 77, 0
2, 42240, Note_on_c, 0, 75, 104
2, 42240, Note_on_c, 0, 84, 104
2, 42240, Note_on_c, 0, 87, 104
2, 42600, Note_on_c, 0, 87, 0
2, 42600, Note_on_c, 0, 84, 0
2, 42600, Note_on_c, 0, 75, 0
2, 42600, Note_on_c, 0, 82, 78
2, 42600, Note_on_c, 0, 85, 78
2, 42660, Note_on_c, 0, 85, 0
2, 42660, Note_on_c, 0, 82, 0
2, 42660, Note_on_c, 0, 73, 78
2, 42720, Note_on_c, 0, 73, 0
2, 42720, Note_on_c, 0, 82, 78
2, 42720, Note_on_c, 0, 85, 78
2, 42767, Note_on_c, 0, 85, 0
2, 42767, Note_on_c, 0, 82, 0
2, 42960, Note_on_c, 0, 72, 78
2, 42960, Note_on_c, 0, 77, 78
2, 42960, Note_on_c, 0, 81, 78
2, 42960, Note_on_c, 0, 84, 78
2, 43007, Note_on_c, 0, 84, 0
2, 43007, Note_on_c, 0, 72, 0
2, 43007, Note_on_c, 0, 77, 0
2, 43007, Note_on_c, 0, 81, 0
2, 43440, Note_on_c, 0, 77, 78
2, 43440, Note_on_c, 0, 85, 78
2, 43440, Note_on_c, 0, 89, 78
2, 43487, Note_on_c, 0, 89, 0
2, 43487, Note_on_c, 0, 85, 0
2, 43487, Note_on_c, 0, 77, 0
2, 43680, Note_on_c, 0, 75, 104
2, 43680, Note_on_c, 0, 84, 104
2, 43680, Note_on_c, 0, 87, 104
2, 44040, Note_on_c, 0, 87, 0
2, 44040, Note_on_c, 0, 84, 0
2, 44040, Note_on_c, 0, 75, 0
2, 44040, Note_on_c, 0, 82, 78
2, 44040, Note_on_c, 0, 85, 78
2, 44100, Note_on_c, 0, 85, 0
2, 44100, Note_on_c, 0, 82, 0
2, 44100, Note_on_c, 0, 73, 78
2, 44160, Note_on_c, 0, 73, 0
2, 44160, Note_on_c, 0, 82, 78
2, 44160, Note_on_c, 0, 85, 78
2, 44207, Note_on_c, 0, 85, 0
2, 44207, Note_on_c, 0, 82, 0
2, 44400, Note_on_c, 0, 72, 78
2, 44400, Note_on_c, 0, 77, 78
2, 44400, Note_on_c, 0, 81, 78
2, 44400, Note_on_c, 0, 84, 78
2, 44447, Note_on_c, 0, 84, 0
2, 44447, Note_on_c, 0, 72, 0
2, 44447, Note_on_c, 0, 77, 0
2, 44447, Note_on_c, 0, 81, 0
2, 44880, Note_on_c, 0, 77, 78
2, 44880, Note_on_c, 0, 85, 78
2, 44880, Note_on_c, 0, 89, 78
2, 44927, Note_on_c, 0, 89, 0
2, 44927, Note_on_c, 0, 85, 0
2, 44927, Note_on_c, 0, 77, 0
2, 45120, Note_on_c, 0, 75, 104
2, 45120, Note_on_c, 0, 84, 104
2, 45120, Note_on_c, 0, 87, 104
2, 45480, Note_on_c, 0, 87, 0
2, 45480, Note_on_c, 0, 84, 0
2, 45480, Note_on_c, 0, 75, 0
2, 45480, Note_on_c, 0, 82, 78
2, 45480, Note_on_c, 0, 85, 78
2, 45540, Note_on_c, 0, 85, 0
2, 45540, Note_on_c, 0, 82, 0
2, 45540, Note_on_c, 0, 73, 78
2, 45600, Note_on_c, 0, 73, 0
2, 45600, Note_on_c, 0, 82, 78
2, 45600, Note_on_c, 0, 85, 78
2, 45647, Note_on_c, 0, 85, 0
2, 45647, Note_on_c, 0, 82, 0
2, 45840, Note_on_c, 0, 72, 78
2, 45840, Note_on_c, 0, 77, 78
2, 45840, Note_on_c, 0, 81, 78
2, 45840, Note_on_c, 0, 84, 78
2, 45887, Note_on_c, 0, 84, 0
2, 45887, Note_on_c, 0, 72, 0
2, 45887, Note_on_c, 0, 77, 0
2, 45887, Note_on_c, 0, 81, 0
2, 46320, Note_on_c, 0, 77, 78
2, 46320, Note_on_c, 0, 85, 78
2, 46320, Note_on_c, 0, 89, 78
2, 46367, Note_on_c, 0, 89, 0
2, 46367, Note_on_c, 0, 85, 0
2, 46367, Note_on_c, 0, 77, 0
2, 46560, Note_on_c, 0, 78, 104
2, 46560, Note_on_c, 0, 87, 104
2, 46560, Note_on_c, 0, 90, 104
2, 46920, Note_on_c, 0, 90, 0
2, 46920, Note_on_c, 0, 87, 0
2, 46920, Note_on_c, 0, 78, 0
2, 46920, Note_on_c, 0, 85, 78
2, 46920, Note_on_c, 0, 89, 78
2, 46980, Note_on_c, 0, 89, 0
2, 46980, Note_on_c, 0, 85, 0
2, 46980, Note_on_c, 0, 77, 78
2, 47040, Note_on_c, 0, 77, 0
2, 47040, Note_on_c, 0, 85, 78
2, 47040, Note_on_c, 0, 89, 78
2, 47087, Note_on_c, 0, 89, 0
2, 47087, Note_on_c, 0, 85, 0
2, 47280, Note_on_c, 0, 75, 78
2, 47280, Note_on_c, 0, 84, 78
2, 47280, Note_on_c, 0, 87, 78
2, 47327, Note_on_c, 0, 87, 0
2, 47327, Note_on_c, 0, 84, 0
2, 47327, Note_on_c, 0, 75, 0
2, 47760, Note_on_c, 0, 77, 78
2, 47760, Note_on_c, 0, 85, 78
2, 47760, Note_on_c, 0, 89, 78
2, 47807, Note_on_c, 0, 89, 0
2, 47807, Note_on_c, 0, 85, 0
2, 47807, Note_on_c, 0, 77, 0
2, 48000, Note_on_c, 0, 75, 104
2, 48000, Note_on_c, 0, 84, 104
2, 48000, Note_on_c, 0, 87, 104
2, 48360, Note_on_c, 0, 87, 0
2, 48360, Note_on_c, 0, 84, 0
2, 48360, Note_on_c, 0, 75, 0
2, 48360, Note_on_c, 0, 82, 78
2, 48360, Note_on_c, 0, 85, 78
2, 48420, Note_on_c, 0, 85, 0
2, 48420, Note_on_c, 0, 82, 0
2, 48420, Note_on_c, 0, 73, 78
2, 48480, Note_on_c, 0, 73, 0
2, 48480, Note_on_c, 0, 82, 78
2, 48480, Note_on_c, 0, 85, 78
2, 48527, Note_on_c, 0, 85, 0
2, 48527, Note_on_c, 0, 82, 0
2, 48720, Note_on_c, 0, 72, 78
2, 48720, Note_on_c, 0, 77, 78
2, 48720, Note_on_c, 0, 81, 78
2, 48720, Note_on_c, 0, 84, 78
2, 48767, Note_on_c, 0, 84, 0
2, 48767, Note_on_c, 0, 72, 0
2, 48767, Note_on_c, 0, 77, 0
2, 48767, Note_on_c, 0, 81, 0
2, 49200, Note_on_c, 0, 77, 78
2, 49200, Note_on_c, 0, 85, 78
2, 49200, Note_on_c, 0, 89, 78
2, 49247, Note_on_c, 0, 89, 0
2, 49247, Note_on_c, 0, 85, 0
2, 49247, Note_on_c, 0, 77, 0
2, 49440, Note_on_c, 0, 75, 104
2, 49440, Note_on_c, 0, 84, 104
2, 49440, Note_on_c, 0, 87, 104
2, 49800, Note_on_c, 0, 87, 0
2, 49800, Note_on_c, 0, 84, 0
2, 49800, Note_on_c, 0, 75, 0
2, 49800, Note_on_c, 0, 82, 78
2, 49800, Note_on_c, 0, 85, 78
2, 49860, Note_on_c, 0, 85, 0
2, 49860, Note_on_c, 0, 82, 0
2, 49860, Note_on_c, 0, 73, 78
2, 49920, Note_on_c, 0, 73, 0
2, 49920, Note_on_c, 0, 82, 78
2, 49920, Note_on_c, 0, 85, 78
2, 49967, Note_on_c, 0, 85, 0
2, 49967, Note_on_c, 0, 82, 0
2, 50160, Note_on_c, 0, 72, 78
2, 50160, Note_on_c, 0, 77, 78
2, 50160, Note_on_c, 0, 81, 78
2, 50160, Note_on_c, 0, 84, 78
2, 50207, Note_on_c, 0, 84, 0
2, 50207, Note_on_c, 0, 72, 0
2, 50207, Note_on_c, 0, 77, 0
2, 50207, Note_on_c, 0, 81, 0
2, 50640, Note_on_c, 0, 77, 78
2, 50640, Note_on_c, 0, 85, 78
2, 50640, Note_on_c, 0, 89, 78
2, 50687, Note_on_c, 0, 89, 0
2, 50687, Note_on_c, 0, 85, 0
2, 50687, Note_on_c, 0, 77, 0
2, 50880, Note_on_c, 0, 75, 104
2, 50880, Note_on_c, 0, 83, 104
2, 50880, Note_on_c, 0, 87, 104
2, 51240, Note_on_c, 0, 87, 0
2, 51240, Note_on_c, 0, 83, 0
2, 51240, Note_on_c, 0, 75, 0
2, 51240, Note_on_c, 0, 82, 78
2, 51240, Note_on_c, 0, 85, 78
2, 51300, Note_on_c, 0, 85, 0
2, 51300, Note_on_c, 0, 82, 0
2, 51300, Note_on_c, 0, 73, 78
2, 51360, Note_on_c, 0, 73, 0
2, 51360, Note_on_c, 0, 82, 78
2, 51360, Note_on_c, 0, 85, 78
2, 51407, Note_on_c, 0, 85, 0
2, 51407, Note_on_c, 0, 82, 0
2, 51600, Note_on_c, 0, 71, 78
2, 51600, Note_on_c, 0, 80, 78
2, 51600, Note_on_c, 0, 83, 78
2, 51647, Note_on_c, 0, 83, 0
2, 51647, Note_on_c, 0, 80, 0
2, 51647, Note_on_c, 0, 71, 0
2, 51840, Note_on_c, 0, 70, 78
2, 51840, Note_on_c, 0, 78, 78
2, 51840, Note_on_c, 0, 82, 78
2, 51887, Note_on_c, 0, 82, 0
2, 51887, Note_on_c, 0, 78, 0
2, 51887, Note_on_c, 0, 70, 0
2, 63360, Note_on_c, 0, 77, 65
2, 63407, Note_on_c, 0, 77, 0
2, 63600, Note_on_c, 0, 76, 65
2, 63647, Note_on_c, 0, 76, 0
2, 63840, Note_on_c, 0, 74, 65
2, 63960, Note_on_c, 0, 64, 65
2, 64080, Note_on_c, 0, 64, 0
2, 64080, Note_on_c, 0, 65, 65
2, 64200, Note_on_c, 0, 65, 0
2, 64200, Note_on_c, 0, 66, 65
2, 64320, Note_on_c, 0, 66, 0
2, 64320, Note_on_c, 0, 74, 0
2, 64320, Note_on_c, 0, 67, 65
2, 64320, Note_on_c, 0, 72, 65
2, 64440, Note_on_c, 0, 67, 0
2, 64440, Note_on_c, 0, 69, 65
2, 64560, Note_on_c, 0, 69, 0
2, 64560, Note_on_c, 0, 70, 65
2, 64680, Note_on_c, 0, 70, 0
2, 64680, Note_on_c, 0, 64, 65
2, 64800, Note_on_c, 0, 64, 0
2, 64800, Note_on_c, 0, 72, 0
2, 64800, Note_on_c, 0, 65, 65
2, 65040, Note_on_c, 0, 65, 0
2, 65040, Note_on_c, 0, 64, 65
2, 65280, Note_on_c, 0, 64, 0
2, 65400, Note_on_c, 0, 71, 65
2, 65520, Note_on_c, 0, 71, 0
2, 65520, Note_on_c, 0, 74, 65
2, 65640, Note_on_c, 0, 74, 0
2, 65640, Note_on_c, 0, 76, 65
2, 65760, Note_on_c, 0, 76, 0
2, 65760, Note_on_c, 0, 77, 65
2, 65880, Note_on_c, 0, 77, 0
2, 65880, Note_on_c, 0, 79, 65
2, 66000, Note_on_c, 0, 79, 0
2, 66000, Note_on_c, 0, 80, 65
2, 66120, Note_on_c, 0, 80, 0
2, 66120, Note_on_c, 0, 81, 65
2, 66240, Note_on_c, 0, 81, 0
2, 66240, Note_on_c, 0, 77, 65
2, 66287, Note_on_c, 0, 77, 0
2, 66480, Note_on_c, 0, 76, 65
2, 66527, Note_on_c, 0, 76, 0
2, 66720, Note_on_c, 0, 74, 65
2, 66840, Note_on_c, 0, 64, 65
2, 66960, Note_on_c, 0, 64, 0
2, 66960, Note_on_c, 0, 65, 65
2, 67080, Note_on_c, 0, 65, 0
2, 67080, Note_on_c, 0, 66, 65
2, 67200, Note_on_c, 0, 66, 0
2, 67200, Note_on_c, 0, 74, 0
2, 67200, Note_on_c, 0, 67, 65
2, 67200, Note_on_c, 0, 72, 65
2, 67320, Note_on_c, 0, 67, 0
2, 67320, Note_on_c, 0, 69, 65
2, 67440, Note_on_c, 0, 69, 0
2, 67440, Note_on_c, 0, 70, 65
2, 67560, Note_on_c, 0, 70, 0
2, 67560, Note_on_c, 0, 64, 65
2, 67680, Note_on_c, 0, 64, 0
2, 67680, Note_on_c, 0, 72, 0
2, 67680, Note_on_c, 0, 65, 65
2, 67727, Note_on_c, 0, 65, 0
2, 67920, Note_on_c, 0, 64, 65
2, 67967, Note_on_c, 0, 64, 0
2, 68280, Note_on_c, 0, 71, 65
2, 68400, Note_on_c, 0, 71, 0
2, 68400, Note_on_c, 0, 74, 65
2, 68520, Note_on_c, 0, 74, 0
2, 68520, Note_on_c, 0, 76, 65
2, 68640, Note_on_c, 0, 76, 0
2, 68640, Note_on_c, 0, 77, 65
2, 68760, Note_on_c, 0, 77, 0
2, 68760, Note_on_c, 0, 79, 65
2, 68880, Note_on_c, 0, 79, 0
2, 68880, Note_on_c, 0, 80, 65
2, 69000, Note_on_c, 0, 80, 0
2, 69000, Note_on_c, 0, 81, 65
2, 69120, Note_on_c, 0, 81, 0
2, 69240, Note_on_c, 0, 73, 65
2, 69360, Note_on_c, 0, 73, 0
2, 69360, Note_on_c, 0, 74, 65
2, 69480, Note_on_c, 0, 74, 0
2, 69480, Note_on_c, 0, 76, 65
2, 69600, Note_on_c, 0, 76, 0
2, 69600, Note_on_c, 0, 77, 65
2, 69720, Note_on_c, 0, 77, 0
2, 69720, Note_on_c, 0, 76, 65
2, 69840, Note_on_c, 0, 76, 0
2, 69840, Note_on_c, 0, 77, 65
2, 69960, Note_on_c, 0, 77, 0
2, 69960, Note_on_c, 0, 79, 65
2, 70080, Note_on_c, 0, 79, 0
2, 70080, Note_on_c, 0, 81, 65
2, 70200, Note_on_c, 0, 81, 0
2, 70200, Note_on_c, 0, 82, 65
2, 70320, Note_on_c, 0, 82, 0
2, 70320, Note_on_c, 0, 83, 65
2, 70440, Note_on_c, 0, 83, 0
2, 70440, Note_on_c, 0, 84, 65
2, 70560, Note_on_c, 0, 84, 0
2, 70680, Note_on_c, 0, 85, 65
2, 70800, Note_on_c, 0, 85, 0
2, 70800, Note_on_c, 0, 86, 65
2, 70920, Note_on_c, 0, 86, 0
2, 70920, Note_on_c, 0, 88, 65
2, 71040, Note_on_c, 0, 88, 0
2, 71040, Note_on_c, 0, 89, 65
2, 71160, Note_on_c, 0, 89, 0
2, 71160, Note_on_c, 0, 88, 65
2, 71280, Note_on_c, 0, 88, 0
2, 71280, Note_on_c, 0, 89, 65
2, 71400, Note_on_c, 0, 89, 0
2, 71400, Note_on_c, 0, 91, 65
2, 71520, Note_on_c, 0, 91, 0
2, 71520, Note_on_c, 0, 93, 65
2, 71640, Note_on_c, 0, 93, 0
2, 71640, Note_on_c, 0, 94, 65
2, 71760, Note_on_c, 0, 94, 0
2, 71760, Note_on_c, 0, 95, 65
2, 71880, Note_on_c, 0, 95, 0
2, 71880, Note_on_c, 0, 96, 65
2, 72000, Note_on_c, 0, 96, 0
2, 72120, Note_on_c, 0, 97, 65
2, 72240, Note_on_c, 0, 97, 0
2, 72240, Note_on_c, 0, 98, 65
2, 72360, Note_on_c, 0, 98, 0
2, 72360, Note_on_c, 0, 100, 65
2, 72480, Note_on_c, 0, 100, 0
2, 72480, Note_on_c, 0, 101, 65
2, 72600, Note_on_c, 0, 101, 0
2, 72600, Note_on_c, 0, 96, 65
2, 72720, Note_on_c, 0, 96, 0
2, 72720, Note_on_c, 0, 98, 65
2, 72840, Note_on_c, 0, 98, 0
2, 72840, Note_on_c, 0, 100, 65
2, 72960, Note_on_c, 0, 100, 0
2, 72960, Note_on_c, 0, 101, 65
2, 73080, Note_on_c, 0, 101, 0
2, 73080, Note_on_c, 0, 89, 65
2, 73200, Note_on_c, 0, 89, 0
2, 73200, Note_on_c, 0, 91, 65
2, 73320, Note_on_c, 0, 91, 0
2, 73320, Note_on_c, 0, 92, 65
2, 73440, Note_on_c, 0, 92, 0
2, 73440, Note_on_c, 0, 93, 65
2, 73560, Note_on_c, 0, 93, 0
2, 73560, Note_on_c, 0, 93, 65
2, 73680, Note_on_c, 0, 93, 0
2, 73680, Note_on_c, 0, 94, 65
2, 73800, Note_on_c, 0, 94, 0
2, 73800, Note_on_c, 0, 95, 65
2, 73920, Note_on_c, 0, 95, 0
2, 73920, Note_on_c, 0, 96, 65
2, 74040, Note_on_c, 0, 96, 0
2, 74040, Note_on_c, 0, 84, 65
2, 74160, Note_on_c, 0, 84, 0
2, 74160, Note_on_c, 0, 86, 65
2, 74280, Note_on_c, 0, 86, 0
2, 74280, Note_on_c, 0, 88, 65
2, 74400, Note_on_c, 0, 88, 0
2, 74400, Note_on_c, 0, 89, 65
2, 74520, Note_on_c, 0, 89, 0
2, 74520, Note_on_c, 0, 89, 65
2, 74640, Note_on_c, 0, 89, 0
2, 74640, Note_on_c, 0, 91, 65
2, 74760, Note_on_c, 0, 91, 0
2, 74760, Note_on_c, 0, 92, 65
2, 74880, Note_on_c, 0, 92, 0
2, 74880, Note_on_c, 0, 93, 65
2, 75000, Note_on_c, 0, 93, 0
2, 75000, Note_on_c, 0, 81, 65
2, 75120, Note_on_c, 0, 81, 0
2, 75120, Note_on_c, 0, 82, 65
2, 75240, Note_on_c, 0, 82, 0
2, 75240, Note_on_c, 0, 83, 65
2, 75360, Note_on_c, 0, 83, 0
2, 75360, Note_on_c, 0, 84, 65
2, 75480, Note_on_c, 0, 84, 0
2, 75480, Note_on_c, 0, 84, 65
2, 75600, Note_on_c, 0, 84, 0
2, 75600, Note_on_c, 0, 86, 65
2, 75720, Note_on_c, 0, 86, 0
2, 75720, Note_on_c, 0, 88, 65
2, 75840, Note_on_c, 0, 88, 0
2, 75840, Note_on_c, 0, 89, 65
2, 75960, Note_on_c, 0, 89, 0
2, 75960, Note_on_c, 0, 77, 65
2, 76080, Note_on_c, 0, 77, 0
2, 76080, Note_on_c, 0, 79, 65
2, 76200, Note_on_c, 0, 79, 0
2, 76200, Note_on_c, 0, 80, 65
2, 76320, Note_on_c, 0, 80, 0
2, 76320, Note_on_c, 0, 81, 78
2, 76440, Note_on_c, 0, 81, 0
2, 76440, Note_on_c, 0, 81, 78
2, 76560, Note_on_c, 0, 81, 0
2, 76560, Note_on_c, 0, 82, 78
2, 76680, Note_on_c, 0, 82, 0
2, 76680, Note_on_c, 0, 83, 78
2, 76800, Note_on_c, 0, 83, 0
2, 76800, Note_on_c, 0, 84, 78
2, 76920, Note_on_c, 0, 84, 0
2, 76920, Note_on_c, 0, 74, 78
2, 77040, Note_on_c, 0, 74, 0
2, 77040, Note_on_c, 0, 75, 78
2, 77160, Note_on_c, 0, 75, 0
2, 77160, Note_on_c, 0, 77, 78
2, 77280, Note_on_c, 0, 77, 0
2, 77280, Note_on_c, 0, 78, 78
2, 77400, Note_on_c, 0, 78, 0
2, 77400, Note_on_c, 0, 79, 78
2, 77520, Note_on_c, 0, 79, 0
2, 77520, Note_on_c, 0, 80, 78
2, 77640, Note_on_c, 0, 80, 0
2, 77640, Note_on_c, 0, 82, 78
2, 77760, Note_on_c, 0, 82, 0
2, 77760, Note_on_c, 0, 84, 65
2, 77880, Note_on_c, 0, 84, 0
2, 77880, Note_on_c, 0, 74, 65
2, 78000, Note_on_c, 0, 74, 0
2, 78000, Note_on_c, 0, 75, 65
2, 78120, Note_on_c, 0, 75, 0
2, 78120, Note_on_c, 0, 77, 65
2, 78240, Note_on_c, 0, 77, 0
2, 78240, Note_on_c, 0, 78, 65
2, 78360, Note_on_c, 0, 78, 0
2, 78360, Note_on_c, 0, 79, 65
2, 78480, Note_on_c, 0, 79, 0
2, 78480, Note_on_c, 0, 80, 65
2, 78600, Note_on_c, 0, 80, 0
2, 78600, Note_on_c, 0, 82, 65
2, 78720, Note_on_c, 0, 82, 0
2, 78720, Note_on_c, 0, 84, 65
2, 78840, Note_on_c, 0, 84, 0
2, 78840, Note_on_c, 0, 67, 65
2, 78960, Note_on_c, 0, 67, 0
2, 78960, Note_on_c, 0, 68, 65
2, 79080, Note_on_c, 0, 68, 0
2, 79080, Note_on_c, 0, 70, 65
2, 79200, Note_on_c, 0, 70, 0
2, 79200, Note_on_c, 0, 72, 65
2, 79320, Note_on_c, 0, 72, 0
2, 79320, Note_on_c, 0, 74, 65
2, 79440, Note_on_c, 0, 74, 0
2, 79440, Note_on_c, 0, 75, 65
2, 79560, Note_on_c, 0, 75, 0
2, 79560, Note_on_c, 0, 77, 65
2, 79680, Note_on_c, 0, 77, 0
2, 79680, Note_on_c, 0, 78, 52
2, 79800, Note_on_c, 0, 78, 0
2, 79800, Note_on_c, 0, 62, 52
2, 79920, Note_on_c, 0, 62, 0
2, 79920, Note_on_c, 0, 63, 52
2, 80040, Note_on_c, 0, 63, 0
2, 80040, Note_on_c, 0, 65, 52
2, 80160, Note_on_c, 0, 65, 0
2, 80160, Note_on_c, 0, 66, 52
2, 80280, Note_on_c, 0, 66, 0
2, 80280, Note_on_c, 0, 67, 52
2, 80400, Note_on_c, 0, 67, 0
2, 80400, Note_on_c, 0, 68, 52
2, 80520, Note_on_c, 0, 68, 0
2, 80520, Note_on_c, 0, 70, 52
2, 80640, Note_on_c, 0, 70, 0
2, 80640, Note_on_c, 0, 72, 52
2, 80760, Note_on_c, 0, 72, 0
2, 93600, Note_on_c, 0, 68, 65
2, 93600, Note_on_c, 0, 80, 65
2, 94080, Note_on_c, 0, 80, 0
2, 94080, Note_on_c, 0, 68, 0
2, 94080, Note_on_c, 0, 70, 65
2, 94080, Note_on_c, 0, 82, 65
2, 94560, Note_on_c, 0, 82, 0
2, 94560, Note_on_c, 0, 70, 0
2, 94560, Note_on_c, 0, 68, 65
2, 94560, Note_on_c, 0, 80, 65
2, 95040, Note_on_c, 0, 80, 0
2, 95040, Note_on_c, 0, 68, 0
2, 95040, Note_on_c, 0, 68, 65
2, 95040, Note_on_c, 0, 80, 65
2, 96000, Note_on_c, 0, 80, 0
2, 96000, Note_on_c, 0, 68, 0
2, 96000, Note_on_c, 0, 65, 65
2, 96000, Note_on_c, 0, 77, 65
2, 96240, Note_on_c, 0, 77, 0
2, 96240, Note_on_c, 0, 65, 0
2, 96240, Note_on_c, 0, 66, 65
2, 96240, Note_on_c, 0, 78, 65
2, 96480, Note_on_c, 0, 78, 0
2, 96480, Note_on_c, 0, 66, 0
2, 96480, Note_on_c, 0, 65, 65
2, 96480, Note_on_c, 0, 77, 65
2, 96720, Note_on_c, 0, 77, 0
2, 96720, Note_on_c, 0, 65, 0
2, 96720, Note_on_c, 0, 68, 65
2, 96720, Note_on_c, 0, 80, 65
2, 96960, Note_on_c, 0, 80, 0
2, 96960, Note_on_c, 0, 68, 0
2, 96960, Note_on_c, 0, 68, 65
2, 96960, Note_on_c, 0, 72, 65
2, 96960, Note_on_c, 0, 75, 65
2, 97440, Note_on_c, 0, 75, 0
2, 97440, Note_on_c, 0, 72, 0
2, 97440, Note_on_c, 0, 68, 0
2, 97440, Note_on_c, 0, 63, 65
2, 97440, Note_on_c, 0, 75, 65
2, 97680, Note_on_c, 0, 75, 0
2, 97680, Note_on_c, 0, 63, 0
2, 97680, Note_on_c, 0, 65, 65
2, 97680, Note_on_c, 0, 77, 65
2, 97920, Note_on_c, 0, 77, 0
2, 97920, Note_on_c, 0, 65, 0
2, 97920, Control_c, 0, 64, 127
2, 97920, Note_on_c, 0, 61, 65
2, 97920, Note_on_c, 0, 65, 65
2, 97920, Note_on_c, 0, 68, 65
2, 97920, Note_on_c, 0, 73, 65
2, 98160, Note_on_c, 0, 73, 0
2, 98160, Note_on_c, 0, 61, 0
2, 98160, Note_on_c, 0, 65, 0
2, 98160, Note_on_c, 0, 68, 0
2, 98160, Note_on_c, 0, 65, 65
2, 98280, Note_on_c, 0, 65, 0
2, 98280, Note_on_c, 0, 68, 65
2, 98400, Note_on_c, 0, 68, 0
2, 98400, Note_on_c, 0, 73, 65
2, 98520, Note_on_c, 0, 73, 0
2, 98520, Note_on_c, 0, 77, 65
2, 98640, Note_on_c, 0, 77, 0
2, 98640, Note_on_c, 0, 85, 65
2, 98760, Note_on_c, 0, 85, 0
2, 98760, Note_on_c, 0, 82, 65
2, 98880, Note_on_c, 0, 82, 0
2, 98880, Note_on_c, 0, 89, 65
2, 99000, Note_on_c, 0, 89, 0
2, 99000, Note_on_c, 0, 85, 65
2, 99120, Note_on_c, 0, 85, 0
2, 99120, Note_on_c, 0, 80, 65
2, 99240, Note_on_c, 0, 80, 0
2, 99240, Control_c, 0, 64, 0
2, 99240, Note_on_c, 0, 77, 65
2, 99360, Note_on_c, 0, 77, 0
2, 99360, Note_on_c, 0, 68, 65
2, 99360, Note_on_c, 0, 80, 65
2, 99840, Note_on_c, 0, 80, 0
2, 99840, Note_on_c, 0, 68, 0
2, 99840, Note_on_c, 0, 70, 65
2, 99840, Note_on_c, 0, 82, 65
2, 100320, Note_on_c, 0, 82, 0
2, 100320, Note_on_c, 0, 70, 0
2, 100320, Note_on_c, 0, 68, 65
2, 100320, Note_on_c, 0, 80, 65
2, 100800, Note_on_c, 0, 80, 0
2, 100800, Note_on_c, 0, 68, 0
2, 100800, Note_on_c, 0, 68, 65
2, 100800, Note_on_c, 0, 80, 65
2, 101760, Note_on_c, 0, 80, 0
2, 101760, Note_on_c, 0, 68, 0
2, 101760, Note_on_c, 0, 65, 65
2, 101760, Note_on_c, 0, 77, 65
2, 102000, Note_on_c, 0, 77, 0
2, 102000, Note_on_c, 0, 65, 0
2, 102000, Note_on_c, 0, 67, 65
2, 102000, Note_on_c, 0, 79, 65
2, 102240, Note_on_c, 0, 79, 0
2, 102240, Note_on_c, 0, 67, 0
2, 102240, Control_c, 0, 64, 127
2, 102240, Note_on_c, 0, 68, 65
2, 102240, Note_on_c, 0, 72, 65
2, 102240, Note_on_c, 0, 77, 65
2, 102240, Note_on_c, 0, 80, 65
2, 102480, Note_on_c, 0, 80, 0
2, 102480, Note_on_c, 0, 68, 0
2, 102480, Note_on_c, 0, 72, 0
2, 102480, Note_on_c, 0, 77, 0
2, 102480, Note_on_c, 0, 70, 65
2, 102480, Note_on_c, 0, 82, 65
2, 102720, Note_on_c, 0, 82, 0
2, 102720, Note_on_c, 0, 70, 0
2, 102720, Note_on_c, 0, 72, 65
2, 102720, Note_on_c, 0, 84, 65
2, 102840, Note_on_c, 0, 84, 0
2, 102840, Note_on_c, 0, 72, 0
2, 102840, Note_on_c, 0, 80, 65
2, 102960, Note_on_c, 0, 80, 0
2, 102960, Note_on_c, 0, 77, 65
2, 103080, Note_on_c, 0, 77, 0
2, 103080, Control_c, 0, 64, 0
2, 103080, Note_on_c, 0, 72, 65
2, 103200, Note_on_c, 0, 72, 0
2, 103200, Note_on_c, 0, 67, 65
2, 103200, Note_on_c, 0, 76, 65
2, 103200, Note_on_c, 0, 79, 65
2, 103440, Note_on_c, 0, 79, 0
2, 103440, Note_on_c, 0, 76, 0
2, 103440, Note_on_c, 0, 67, 0
2, 103440, Note_on_c, 0, 73, 65
2, 103440, Note_on_c, 0, 85, 65
2, 103680, Note_on_c, 0, 85, 0
2, 103680, Note_on_c, 0, 73, 0
2, 103680, Control_c, 0, 64, 127
2, 103680, Note_on_c, 0, 72, 65
2, 103680, Note_on_c, 0, 77, 65
2, 103680, Note_on_c, 0, 80, 65
2, 103680, Note_on_c, 0, 84, 65
2, 104160, Note_on_c, 0, 84, 0
2, 104160, Note_on_c, 0, 72, 0
2, 104160, Note_on_c, 0, 77, 0
2, 104160, Note_on_c, 0, 80, 0
2, 104160, Note_on_c, 0, 72, 78
2, 104160, Note_on_c, 0, 77, 78
2, 104280, Note_on_c, 0, 77, 0
2, 104280, Note_on_c, 0, 72, 0
2, 104280, Note_on_c, 0, 65, 78
2, 104400, Note_on_c, 0, 65, 0
2, 104400, Note_on_c, 0, 79, 78
2, 104520, Note_on_c, 0, 79, 0
2, 104520, Note_on_c, 0, 67, 78
2, 104640, Note_on_c, 0, 67, 0
2, 104640, Control_c, 0, 64, 0
2, 104640, Note_on_c, 0, 74, 78
2, 104640, Note_on_c, 0, 80, 78
2, 104760, Note_on_c, 0, 80, 0
2, 104760, Note_on_c, 0, 74, 0
2, 104760, Note_on_c, 0, 68, 78
2, 104880, Note_on_c, 0, 68, 0
2, 104880, Note_on_c, 0, 82, 78
2, 105000, Note_on_c, 0, 82, 0
2, 105000, Note_on_c, 0, 70, 78
2, 105120, Note_on_c, 0, 70, 0
2, 105120, Control_c, 0, 64, 127
2, 105120, Note_on_c, 0, 72, 78
2, 105120, Note_on_c, 0, 75, 78
2, 105120, Note_on_c, 0, 80, 78
2, 105120, Note_on_c, 0, 84, 78
2, 105360, Note_on_c, 0, 84, 0
2, 105360, Note_on_c, 0, 72, 0
2, 105360, Note_on_c, 0, 75, 0
2, 105360, Note_on_c, 0, 80, 0
2, 105360, Note_on_c, 0, 77, 78
2, 105360, Note_on_c, 0, 89, 78
2, 105600, Note_on_c, 0, 89, 0
2, 105600, Note_on_c, 0, 77, 0
2, 105600, Note_on_c, 0, 75, 78
2, 105600, Note_on_c, 0, 87, 78
2, 105720, Note_on_c, 0, 87, 0
2, 105720, Note_on_c, 0, 75, 0
2, 105720, Note_on_c, 0, 84, 78
2, 105840, Note_on_c, 0, 84, 0
2, 105840, Note_on_c, 0, 80, 78
2, 105960, Note_on_c, 0, 80, 0
2, 105960, Control_c, 0, 64, 0
2, 105960, Note_on_c, 0, 75, 78
2, 106080, Note_on_c, 0, 75, 0
2, 106080, Note_on_c, 0, 70, 78
2, 106080, Note_on_c, 0, 79, 78
2, 106080, Note_on_c, 0, 82, 78
2, 106320, Note_on_c, 0, 82, 0
2, 106320, Note_on_c, 0, 79, 0
2, 106320, Note_on_c, 0, 70, 0
2, 106320, Note_on_c, 0, 77, 78
2, 106320, Note_on_c, 0, 89, 78
2, 106560, Note_on_c, 0, 89, 0
2, 106560, Note_on_c, 0, 77, 0
2, 106560, Control_c, 0, 64, 127
2, 106560, Note_on_c, 0, 75, 78
2, 106560, Note_on_c, 0, 80, 78
2, 106560, Note_on_c, 0, 84, 78
2, 106560, Note_on_c, 0, 87, 78
2, 107040, Note_on_c, 0, 87, 0
2, 107040, Note_on_c, 0, 75, 0
2, 107040, Note_on_c, 0, 80, 0
2, 107040, Note_on_c, 0, 84, 0
2, 107040, Note_on_c, 0, 80, 78
2, 107160, Note_on_c, 0, 80, 0
2, 107160, Note_on_c, 0, 68, 78
2, 107280, Note_on_c, 0, 68, 0
2, 107280, Note_on_c, 0, 82, 78
2, 107400, Note_on_c, 0, 82, 0
2, 107400, Note_on_c, 0, 70, 78
2, 107520, Note_on_c, 0, 70, 0
2, 107520, Note_on_c, 0, 84, 78
2, 107640, Note_on_c, 0, 84, 0
2, 107640, Note_on_c, 0, 72, 78
2, 107760, Note_on_c, 0, 72, 0
2, 107760, Note_on_c, 0, 86, 78
2, 107880, Note_on_c, 0, 86, 0
2, 107880, Control_c, 0, 64, 0
2, 107880, Note_on_c, 0, 74, 78
2, 108000, Note_on_c, 0, 74, 0
2, 108000, Control_c, 0, 64, 127
2, 108000, Note_on_c, 0, 75, 104
2, 108000, Note_on_c, 0, 79, 104
2, 108000, Note_on_c, 0, 84, 104
2, 108000, Note_on_c, 0, 87, 104
2, 108240, Note_on_c, 0, 87, 0
2, 108240, Note_on_c, 0, 75, 0
2, 108240, Note_on_c, 0, 79, 0
2, 108240, Note_on_c, 0, 84, 0
2, 108240, Note_on_c, 0, 80, 104
2, 108240, Note_on_c, 0, 92, 104
2, 108480, Note_on_c, 0, 92, 0
2, 108480, Note_on_c, 0, 80, 0
2, 108480, Note_on_c, 0, 79, 78
2, 108480, Note_on_c, 0, 91, 78
2, 108600, Note_on_c, 0, 91, 0
2, 108600, Note_on_c, 0, 79, 0
2, 108600, Note_on_c, 0, 87, 78
2, 108720, Note_on_c, 0, 87, 0
2, 108720, Note_on_c, 0, 84, 78
2, 108840, Note_on_c, 0, 84, 0
2, 108840, Note_on_c, 0, 79, 78
2, 108960, Note_on_c, 0, 79, 0
2, 108960, Control_c, 0, 64, 0
2, 108960, Note_on_c, 0, 74, 78
2, 108960, Note_on_c, 0, 83, 78
2, 108960, Note_on_c, 0, 86, 78
2, 109200, Note_on_c, 0, 86, 0
2, 109200, Note_on_c, 0, 83, 0
2, 109200, Note_on_c, 0, 74, 0
2, 109200, Note_on_c, 0, 80, 78
2, 109200, Note_on_c, 0, 92, 78
2, 109440, Note_on_c, 0, 92, 0
2, 109440, Note_on_c, 0, 80, 0
2, 109440, Note_on_c, 0, 79, 78
2, 109440, Note_on_c, 0, 84, 78
2, 109440, Note_on_c, 0, 87, 78
2, 109440, Note_on_c, 0, 91, 78
2, 109920, Note_on_c, 0, 91, 0
2, 109920, Note_on_c, 0, 79, 0
2, 109920, Note_on_c, 0, 84, 0
2, 109920, Note_on_c, 0, 87, 0
2, 109920, Note_on_c, 0, 72, 65
2, 109920, Note_on_c, 0, 84, 65
2, 110160, Note_on_c, 0, 84, 0
2, 110160, Note_on_c, 0, 72, 0
2, 110160, Note_on_c, 0, 79, 65
2, 110160, Note_on_c, 0, 91, 65
2, 110400, Note_on_c, 0, 91, 0
2, 110400, Note_on_c, 0, 79, 0
2, 110400, Note_on_c, 0, 78, 65
2, 110400, Note_on_c, 0, 84, 65
2, 110400, Note_on_c, 0, 87, 65
2, 110400, Note_on_c, 0, 90, 65
2, 110880, Note_on_c, 0, 90, 0
2, 110880, Note_on_c, 0, 78, 0
2, 110880, Note_on_c, 0, 84, 0
2, 110880, Note_on_c, 0, 87, 0
2, 110880, Note_on_c, 0, 72, 65
2, 110880, Note_on_c, 0, 84, 65
2, 111120, Note_on_c, 0, 84, 0
2, 111120, Note_on_c, 0, 72, 0
2, 111120, Note_on_c, 0, 79, 65
2, 111120, Note_on_c, 0, 91, 65
2, 111360, Note_on_c, 0, 91, 0
2, 111360, Note_on_c, 0, 79, 0
2, 111360, Note_on_c, 0, 78, 65
2, 111360, Note_on_c, 0, 84, 65
2, 111360, Note_on_c, 0, 87, 65
2, 111360, Note_on_c, 0, 90, 65
2, 111840, Note_on_c, 0, 90, 0
2, 111840, Note_on_c, 0, 78, 0
2, 111840, Note_on_c, 0, 84, 0
2, 111840, Note_on_c, 0, 87, 0
2, 111840, Note_on_c, 0, 72, 65
2, 111840, Note_on_c, 0, 84, 65
2, 112080, Note_on_c, 0, 84, 0
2, 112080, Note_on_c, 0, 72, 0
2, 112080, Note_on_c, 0, 78, 65
2, 112080, Note_on_c, 0, 90, 65
2, 112320, Note_on_c, 0, 90, 0
2, 112320, Note_on_c, 0, 78, 0
2, 112320, Note_on_c, 0, 77, 65
2, 112320, Note_on_c, 0, 85, 65
2, 112320, Note_on_c, 0, 89, 65
2, 112800, Note_on_c, 0, 89, 0
2, 112800, Note_on_c, 0, 85, 0
2, 112800, Note_on_c, 0, 77, 0
2, 112800, Note_on_c, 0, 70, 65
2, 112800, Note_on_c, 0, 82, 65
2, 113040, Note_on_c, 0, 82, 0
2, 113040, Note_on_c, 0, 70, 0
2, 113040, Note_on_c, 0, 77, 65
2, 113040, Note_on_c, 0, 89, 65
2, 113280, Note_on_c, 0, 89, 0
2, 113280, Note_on_c, 0, 77, 0
2, 113280, Note_on_c, 0, 76, 65
2, 113280, Note_on_c, 0, 82, 65
2, 113280, Note_on_c, 0, 85, 65
2, 113280, Note_on_c, 0, 88, 65
2, 113760, Note_on_c, 0, 88, 0
2, 113760, Note_on_c, 0, 76, 0
2, 113760, Note_on_c, 0, 82, 0
2, 113760, Note_on_c, 0, 85, 0
2, 113880, Control_c, 0, 64, 127
2, 113880, Note_on_c, 0, 73, 52
2, 114000, Note_on_c, 0, 73, 0
2, 114000, Note_on_c, 0, 85, 52
2, 114120, Note_on_c, 0, 85, 0
2, 114120, Note_on_c, 0, 73, 52
2, 114240, Note_on_c, 0, 73, 0
2, 114240, Note_on_c, 0, 84, 52
2, 114360, Note_on_c, 0, 84, 0
2, 114360, Note_on_c, 0, 72, 52
2, 114480, Note_on_c, 0, 72, 0
2, 114480, Note_on_c, 0, 82, 52
2, 114600, Note_on_c, 0, 82, 0
2, 114600, Note_on_c, 0, 70, 52
2, 114720, Note_on_c, 0, 70, 0
2, 114720, Control_c, 0, 64, 0
2, 114720, Note_on_c, 0, 81, 52
2, 114840, Note_on_c, 0, 81, 0
2, 114840, Note_on_c, 0, 69, 52
2, 114960, Note_on_c, 0, 69, 0
2, 114960, Note_on_c, 0, 84, 52
2, 115080, Note_on_c, 0, 84, 0
2, 115080, Note_on_c, 0, 72, 52
2, 115200, Note_on_c, 0, 72, 0
2, 115200, Note_on_c, 0, 77, 52
2, 115320, Note_on_c, 0, 77, 0
2, 115320, Note_on_c, 0, 76, 52
2, 115440, Note_on_c, 0, 76, 0
2, 115440, Note_on_c, 0, 74, 52
2, 115560, Note_on_c, 0, 74, 0
2, 115560, Note_on_c, 0, 72, 52
2, 115680, Note_on_c, 0, 72, 0
2, 115680, Note_on_c, 0, 73, 52
2, 115800, Note_on_c, 0, 73, 0
2, 115800, Note_on_c, 0, 74, 52
2, 115920, Note_on_c, 0, 74, 0
2, 115920, Note_on_c, 0, 75, 52
2, 116040, Note_on_c, 0, 75, 0
2, 116040, Note_on_c, 0, 76, 52
2, 116160, Note_on_c, 0, 76, 0
2, 116160, Note_on_c, 0, 77, 52
2, 116280, Note_on_c, 0, 77, 0
2, 116280, Note_on_c, 0, 72, 52
2, 116400, Note_on_c, 0, 72, 0
2, 116400, Note_on_c, 0, 69, 52
2, 116520, Note_on_c, 0, 69, 0
2, 116520, Note_on_c, 0, 65, 52
2, 116640, Note_on_c, 0, 65, 0
2, 116640, Note_on_c, 0, 89, 65
2, 116760, Note_on_c, 0, 89, 0
2, 116760, Note_on_c, 0, 88, 65
2, 116880, Note_on_c, 0, 88, 0
2, 116880, Note_on_c, 0, 86, 65
2, 117000, Note_on_c, 0, 86, 0
2, 117000, Note_on_c, 0, 84, 65
2, 117120, Note_on_c, 0, 84, 0
2, 117120, Note_on_c, 0, 85, 65
2, 117240, Note_on_c, 0, 85, 0
2, 117240, Note_on_c, 0, 86, 65
2, 117360, Note_on_c, 0, 86, 0
2, 117360, Note_on_c, 0, 87, 65
2, 117480, Note_on_c, 0, 87, 0
2, 117480, Note_on_c, 0, 88, 65
2, 117600, Note_on_c, 0, 88, 0
2, 117600, Note_on_c, 0, 89, 65
2, 117720, Note_on_c, 0, 89, 0
2, 117720, Note_on_c, 0, 84, 65
2, 117840, Note_on_c, 0, 84, 0
2, 117840, Note_on_c, 0, 81, 65
2, 117960, Note_on_c, 0, 81, 0
2, 117960, Note_on_c, 0, 77, 65
2, 118080, Note_on_c, 0, 77, 0
2, 118080, Note_on_c, 0, 78, 65
2, 118200, Note_on_c, 0, 78, 0
2, 118200, Note_on_c, 0, 77, 65
2, 118320, Note_on_c, 0, 77, 0
2, 118320, Note_on_c, 0, 75, 65
2, 118440, Note_on_c, 0, 75, 0
2, 118440, Note_on_c, 0, 73, 65
2, 118560, Note_on_c, 0, 73, 0
2, 118560, Note_on_c, 0, 72, 65
2, 118680, Note_on_c, 0, 72, 0
2, 118680, Note_on_c, 0, 73, 65
2, 118800, Note_on_c, 0, 73, 0
2, 118800, Note_on_c, 0, 72, 65
2, 118920, Note_on_c, 0, 72, 0
2, 118920, Note_on_c, 0, 70, 65
2, 119040, Note_on_c, 0, 70, 0
2, 119040, Note_on_c, 0, 68, 65
2, 119160, Note_on_c, 0, 68, 0
2, 119160, Note_on_c, 0, 69, 65
2, 119280, Note_on_c, 0, 69, 0
2, 119280, Note_on_c, 0, 70, 65
2, 119400, Note_on_c, 0, 70, 0
2, 119400, Note_on_c, 0, 69, 65
2, 119520, Note_on_c, 0, 69, 0
2, 119520, Note_on_c, 0, 90, 52
2, 119640, Note_on_c, 0, 90, 0
2, 119640, Note_on_c, 0, 89, 52
2, 119760, Note_on_c, 0, 89, 0
2, 119760, Note_on_c, 0, 87, 52
2, 119880, Note_on_c, 0, 87, 0
2, 119880, Note_on_c, 0, 85, 52
2, 120000, Note_on_c, 0, 85, 0
2, 120000, Note_on_c, 0, 84, 65
2, 120120, Note_on_c, 0, 84, 0
2, 120120, Note_on_c, 0, 85, 65
2, 120240, Note_on_c, 0, 85, 0
2, 120240, Note_on_c, 0, 84, 65
2, 120360, Note_on_c, 0, 84, 0
2, 120360, Note_on_c, 0, 82, 65
2, 120480, Note_on_c, 0, 82, 0
2, 120480, Note_on_c, 0, 80, 78
2, 120600, Note_on_c, 0, 80, 0
2, 120600, Note_on_c, 0, 81, 78
2, 120720, Note_on_c, 0, 81, 0
2, 120720, Note_on_c, 0, 82, 78
2, 120840, Note_on_c, 0, 82, 0
2, 120840, Note_on_c, 0, 81, 78
2, 120960, Note_on_c, 0, 81, 0
2, 120960, Note_on_c, 0, 78, 78
2, 120983, Note_on_c, 0, 78, 0
2, 121080, Note_on_c, 0, 77, 78
2, 121103, Note_on_c, 0, 77, 0
2, 121200, Note_on_c, 0, 75, 78
2, 121223, Note_on_c, 0, 75, 0
2, 121320, Note_on_c, 0, 73, 78
2, 121343, Note_on_c, 0, 73, 0
2, 121440, Note_on_c, 0, 72, 78
2, 121463, Note_on_c, 0, 72, 0
2, 121560, Note_on_c, 0, 70, 78
2, 121583, Note_on_c, 0, 70, 0
2, 121680, Note_on_c, 0, 69, 78
2, 121703, Note_on_c, 0, 69, 0
2, 121800, Note_on_c, 0, 66, 78
2, 121823, Note_on_c, 0, 66, 0
2, 121920, Note_on_c, 0, 65, 78
2, 121943, Note_on_c, 0, 65, 0
2, 122040, Note_on_c, 0, 63, 78
2, 122063, Note_on_c, 0, 63, 0
2, 122160, Note_on_c, 0, 61, 78
2, 122183, Note_on_c, 0, 61, 0
2, 122280, Note_on_c, 0, 60, 78
2, 122303, Note_on_c, 0, 60, 0
2, 123840, Note_on_c, 0, 90, 78
2, 123863, Note_on_c, 0, 90, 0
2, 123960, Note_on_c, 0, 89, 78
2, 123983, Note_on_c, 0, 89, 0
2, 124080, Note_on_c, 0, 87, 78
2, 124103, Note_on_c, 0, 87, 0
2, 124200, Note_on_c, 0, 85, 78
2, 124223, Note_on_c, 0, 85, 0
2, 124320, Note_on_c, 0, 84, 78
2, 124343, Note_on_c, 0, 84, 0
2, 124440, Note_on_c, 0, 82, 78
2, 124463, Note_on_c, 0, 82, 0
2, 124560, Note_on_c, 0, 81, 78
2, 124583, Note_on_c, 0, 81, 0
2, 124680, Note_on_c, 0, 78, 78
2, 124703, Note_on_c, 0, 78, 0
2, 124800, Note_on_c, 0, 77, 78
2, 124823, Note_on_c, 0, 77, 0
2, 124920, Note_on_c, 0, 75, 78
2, 124943, Note_on_c, 0, 75, 0
2, 125040, Note_on_c, 0, 73, 78
2, 125063, Note_on_c, 0, 73, 0
2, 125160, Note_on_c, 0, 72, 78
2, 125183, Note_on_c, 0, 72, 0
2, 126720, Note_on_c, 0, 61, 65
2, 126720, Note_on_c, 0, 65, 65
2, 126767, Note_on_c, 0, 65, 0
2, 126767, Note_on_c, 0, 61, 0
2, 126960, Note_on_c, 0, 73, 65
2, 126960, Note_on_c, 0, 77, 65
2, 127007, Note_on_c, 0, 77, 0
2, 127007, Note_on_c, 0, 73, 0
2, 127200, Note_on_c, 0, 75, 91
2, 127200, Note_on_c, 0, 78, 91
2, 127560, Note_on_c, 0, 78, 0
2, 127560, Note_on_c, 0, 75, 0
2, 127560, Note_on_c, 0, 73, 65
2, 127560, Note_on_c, 0, 77, 65
2, 127620, Note_on_c, 0, 77, 0
2, 127620, Note_on_c, 0, 73, 0
2, 127620, Note_on_c, 0, 78, 65
2, 127680, Note_on_c, 0, 78, 0
2, 127680, Note_on_c, 0, 73, 65
2, 127680, Note_on_c, 0, 77, 65
2, 127727, Note_on_c, 0, 77, 0
2, 127727, Note_on_c, 0, 73, 0
2, 127920, Note_on_c, 0, 72, 65
2, 127920, Note_on_c, 0, 75, 65
2, 127967, Note_on_c, 0, 75, 0
2, 127967, Note_on_c, 0, 72, 0
2, 128160, Note_on_c, 0, 61, 65
2, 128160, Note_on_c, 0, 65, 65
2, 128207, Note_on_c, 0, 65, 0
2, 128207, Note_on_c, 0, 61, 0
2, 128400, Note_on_c, 0, 73, 65
2, 128400, Note_on_c, 0, 77, 65
2, 128447, Note_on_c, 0, 77, 0
2, 128447, Note_on_c, 0, 73, 0
2, 128640, Note_on_c, 0, 72, 91
2, 128640, Note_on_c, 0, 75, 91
2, 129000, Note_on_c, 0, 75, 0
2, 129000, Note_on_c, 0, 72, 0
2, 129000, Note_on_c, 0, 70, 65
2, 129000, Note_on_c, 0, 73, 65
2, 129060, Note_on_c, 0, 73, 0
2, 129060, Note_on_c, 0, 70, 0
2, 129060, Note_on_c, 0, 75, 65
2, 129120, Note_on_c, 0, 75, 0
2, 129120, Note_on_c, 0, 70, 65
2, 129120, Note_on_c, 0, 73, 65
2, 129167, Note_on_c, 0, 73, 0
2, 129167, Note_on_c, 0, 70, 0
2, 129360, Note_on_c, 0, 65, 65
2, 129360, Note_on_c, 0, 69, 65
2, 129360, Note_on_c, 0, 72, 65
2, 129407, Note_on_c, 0, 72, 0
2, 129407, Note_on_c, 0, 69, 0
2, 129407, Note_on_c, 0, 65, 0
2, 129600, Note_on_c, 0, 61, 65
2, 129600, Note_on_c, 0, 70, 65
2, 129647, Note_on_c, 0, 70, 0
2, 129647, Note_on_c, 0, 61, 0
2, 129840, Note_on_c, 0, 73, 65
2, 129840, Note_on_c, 0, 77, 65
2, 129887, Note_on_c, 0, 77, 0
2, 129887, Note_on_c, 0, 73, 0
2, 130080, Note_on_c, 0, 72, 91
2, 130080, Note_on_c, 0, 75, 91
2, 130440, Note_on_c, 0, 75, 0
2, 130440, Note_on_c, 0, 72, 0
2, 130440, Note_on_c, 0, 70, 65
2, 130440, Note_on_c, 0, 73, 65
2, 130500, Note_on_c, 0, 73, 0
2, 130500, Note_on_c, 0, 70, 0
2, 130500, Note_on_c, 0, 75, 65
2, 130560, Note_on_c, 0, 75, 0
2, 130560, Note_on_c, 0, 70, 65
2, 130560, Note_on_c, 0, 73, 65
2, 130607, Note_on_c, 0, 73, 0
2, 130607, Note_on_c, 0, 70, 0
2, 130800, Note_on_c, 0, 65, 65
2, 130800, Note_on_c, 0, 69, 65
2, 130800, Note_on_c, 0, 72, 65
2, 130847, Note_on_c, 0, 72, 0
2, 130847, Note_on_c, 0, 69, 0
2, 130847, Note_on_c, 0, 65, 0
2, 131040, Note_on_c, 0, 61, 65
2, 131040, Note_on_c, 0, 70, 65
2, 131087, Note_on_c, 0, 70, 0
2, 131087, Note_on_c, 0, 61, 0
2, 131280, Note_on_c, 0, 73, 65
2, 131280, Note_on_c, 0, 77, 65
2, 131327, Note_on_c, 0, 77, 0
2, 131327, Note_on_c, 0, 73, 0
2, 131520, Note_on_c, 0, 72, 91
2, 131520, Note_on_c, 0, 75, 91
2, 131880, Note_on_c, 0, 75, 0
2, 131880, Note_on_c, 0, 72, 0
2, 131880, Note_on_c, 0, 70, 65
2, 131880, Note_on_c, 0, 73, 65
2, 131940, Note_on_c, 0, 73, 0
2, 131940, Note_on_c, 0, 70, 0
2, 131940, Note_on_c, 0, 75, 65
2, 132000, Note_on_c, 0, 75, 0
2, 132000, Note_on_c, 0, 70, 65
2, 132000, Note_on_c, 0, 73, 65
2, 132047, Note_on_c, 0, 73, 0
2, 132047, Note_on_c, 0, 70, 0
2, 132240, Note_on_c, 0, 65, 65
2, 132240, Note_on_c, 0, 69, 65
2, 132240, Note_on_c, 0, 72, 65
2, 132287, Note_on_c, 0, 72, 0
2, 132287, Note_on_c, 0, 69, 0
2, 132287, Note_on_c, 0, 65, 0
2, 132480, Note_on_c, 0, 61, 65
2, 132480, Note_on_c, 0, 65, 65
2, 132527, Note_on_c, 0, 65, 0
2, 132527, Note_on_c, 0, 61, 0
2, 132720, Note_on_c, 0, 73, 65
2, 132720, Note_on_c, 0, 77, 65
2, 132767, Note_on_c, 0, 77, 0
2, 132767, Note_on_c, 0, 73, 0
2, 132960, Note_on_c, 0, 75, 91
2, 132960, Note_on_c, 0, 78, 91
2, 133320, Note_on_c, 0, 78, 0
2, 133320, Note_on_c, 0, 75, 0
2, 133320, Note_on_c, 0, 73, 65
2, 133320, Note_on_c, 0, 77, 65
2, 133380, Note_on_c, 0, 77, 0
2, 133380, Note_on_c, 0, 73, 0
2, 133380, Note_on_c, 0, 78, 65
2, 133440, Note_on_c, 0, 78, 0
2, 133440, Note_on_c, 0, 73, 65
2, 133440, Note_on_c, 0, 77, 65
2, 133487, Note_on_c, 0, 77, 0
2, 133487, Note_on_c, 0, 73, 0
2, 133680, Note_on_c, 0, 72, 65
2, 133680, Note_on_c, 0, 75, 65
2, 133727, Note_on_c, 0, 75, 0
2, 133727, Note_on_c, 0, 72, 0
2, 133920, Note_on_c, 0, 61, 65
2, 133920, Note_on_c, 0, 65, 65
2, 133967, Note_on_c, 0, 65, 0
2, 133967, Note_on_c, 0, 61, 0
2, 134160, Note_on_c, 0, 73, 65
2, 134160, Note_on_c, 0, 77, 65
2, 134207, Note_on_c, 0, 77, 0
2, 134207, Note_on_c, 0, 73, 0
2, 134400, Note_on_c, 0, 72, 91
2, 134400, Note_on_c, 0, 75, 91
2, 134760, Note_on_c, 0, 75, 0
2, 134760, Note_on_c, 0, 72, 0
2, 134760, Note_on_c, 0, 70, 65
2, 134760, Note_on_c, 0, 73, 65
2, 134820, Note_on_c, 0, 73, 0
2, 134820, Note_on_c, 0, 70, 0
2, 134820, Note_on_c, 0, 75, 65
2, 134880, Note_on_c, 0, 75, 0
2, 134880, Note_on_c, 0, 70, 65
2, 134880, Note_on_c, 0, 73, 65
2, 134927, Note_on_c, 0, 73, 0
2, 134927, Note_on_c, 0, 70, 0
2, 135120, Note_on_c, 0, 65, 65
2, 135120, Note_on_c, 0, 69, 65
2, 135120, Note_on_c, 0, 72, 65
2, 135167, Note_on_c, 0, 72, 0
2, 135167, Note_on_c, 0, 69, 0
2, 135167, Note_on_c, 0, 65, 0
2, 135360, Note_on_c, 0, 61, 65
2, 135360, Note_on_c, 0, 70, 65
2, 135407, Note_on_c, 0, 70, 0
2, 135407, Note_on_c, 0, 61, 0
2, 135600, Note_on_c, 0, 73, 65
2, 135600, Note_on_c, 0, 77, 65
2, 135647, Note_on_c, 0, 77, 0
2, 135647, Note_on_c, 0, 73, 0
2, 135840, Note_on_c, 0, 72, 91
2, 135840, Note_on_c, 0, 75, 91
2, 136200, Note_on_c, 0, 75, 0
2, 136200, Note_on_c, 0, 72, 0
2, 136200, Note_on_c, 0, 70, 65
2, 136200, Note_on_c, 0, 73, 65
2, 136260, Note_on_c, 0, 73, 0
2, 136260, Note_on_c, 0, 70, 0
2, 136260, Note_on_c, 0, 75, 65
2, 136320, Note_on_c, 0, 75, 0
2, 136320, Note_on_c, 0, 70, 65
2, 136320, Note_on_c, 0, 73, 65
2, 136367, Note_on_c, 0, 73, 0
2, 136367, Note_on_c, 0, 70, 0
2, 136560, Note_on_c, 0, 65, 65
2, 136560, Note_on_c, 0, 69, 65
2, 136560, Note_on_c, 0, 72, 65
2, 136607, Note_on_c, 0, 72, 0
2, 136607, Note_on_c, 0, 69, 0
2, 136607, Note_on_c, 0, 65, 0
2, 136800, Note_on_c, 0, 61, 65
2, 136800, Note_on_c, 0, 65, 65
2, 136800, Note_on_c, 0, 70, 65
2, 136847, Note_on_c, 0, 70, 0
2, 136847, Note_on_c, 0, 65, 0
2, 136847, Note_on_c, 0, 61, 0
2, 138480, Note_on_c, 0, 72, 78
2, 138480, Note_on_c, 0, 81, 78
2, 138480, Note_on_c, 0, 84, 78
2, 138527, Note_on_c, 0, 84, 0
2, 138527, Note_on_c, 0, 81, 0
2, 138527, Note_on_c, 0, 72, 0
2, 138720, Note_on_c, 0, 74, 104
2, 138720, Note_on_c, 0, 82, 104
2, 138720, Note_on_c, 0, 86, 104
2, 139080, Note_on_c, 0, 86, 0
2, 139080, Note_on_c, 0, 82, 0
2, 139080, Note_on_c, 0, 74, 0
2, 139080, Note_on_c, 0, 72, 78
2, 139080, Note_on_c, 0, 81, 78
2, 139080, Note_on_c, 0, 84, 78
2, 139140, Note_on_c, 0, 84, 0
2, 139140, Note_on_c, 0, 81, 0
2, 139140, Note_on_c, 0, 72, 0
2, 139140, Note_on_c, 0, 86, 78
2, 139200, Note_on_c, 0, 86, 0
2, 139200, Note_on_c, 0, 72, 78
2, 139200, Note_on_c, 0, 81, 78
2, 139200, Note_on_c, 0, 84, 78
2, 139247, Note_on_c, 0, 84, 0
2, 139247, Note_on_c, 0, 81, 0
2, 139247, Note_on_c, 0, 72, 0
2, 139440, Note_on_c, 0, 70, 78
2, 139440, Note_on_c, 0, 79, 78
2, 139440, Note_on_c, 0, 82, 78
2, 139487, Note_on_c, 0, 82, 0
2, 139487, Note_on_c, 0, 79, 0
2, 139487, Note_on_c, 0, 70, 0
2, 139680, Note_on_c, 0, 69, 78
2, 139680, Note_on_c, 0, 77, 78
2, 139680, Note_on_c, 0, 81, 78
2, 139727, Note_on_c, 0, 81, 0
2, 139727, Note_on_c, 0, 77, 0
2, 139727, Note_on_c, 0, 69, 0
2, 139920, Note_on_c, 0, 65, 78
2, 139920, Note_on_c, 0, 74, 78
2, 139920, Note_on_c, 0, 77, 78
2, 139967, Note_on_c, 0, 77, 0
2, 139967, Note_on_c, 0, 74, 0
2, 139967, Note_on_c, 0, 65, 0
2, 140160, Note_on_c, 0, 67, 78
2, 140160, Note_on_c, 0, 74, 78
2, 140160, Note_on_c, 0, 79, 78
2, 140207, Note_on_c, 0, 79, 0
2, 140207, Note_on_c, 0, 74, 0
2, 140207, Note_on_c, 0, 67, 0
2, 140400, Note_on_c, 0, 64, 78
2, 140400, Note_on_c, 0, 74, 78
2, 140400, Note_on_c, 0, 76, 78
2, 140447, Note_on_c, 0, 76, 0
2, 140447, Note_on_c, 0, 74, 0
2, 140447, Note_on_c, 0, 64, 0
2, 140640, Note_on_c, 0, 65, 78
2, 140640, Note_on_c, 0, 74, 78
2, 140640, Note_on_c, 0, 77, 78
2, 140687, Note_on_c, 0, 77, 0
2, 140687, Note_on_c, 0, 74, 0
2, 140687, Note_on_c, 0, 65, 0
2, 140880, Note_on_c, 0, 67, 78
2, 140880, Note_on_c, 0, 76, 78
2, 140880, Note_on_c, 0, 79, 78
2, 140927, Note_on_c, 0, 79, 0
2, 140927, Note_on_c, 0, 76, 0
2, 140927, Note_on_c, 0, 67, 0
2, 141120, Note_on_c, 0, 69, 78
2, 141120, Note_on_c, 0, 77, 78
2, 141120, Note_on_c, 0, 81, 78
2, 141167, Note_on_c, 0, 81, 0
2, 141167, Note_on_c, 0, 77, 0
2, 141167, Note_on_c, 0, 69, 0
2, 141360, Note_on_c, 0, 72, 78
2, 141360, Note_on_c, 0, 81, 78
2, 141360, Note_on_c, 0, 84, 78
2, 141407, Note_on_c, 0, 84, 0
2, 141407, Note_on_c, 0, 81, 0
2, 141407, Note_on_c, 0, 72, 0
2, 141600, Note_on_c, 0, 74, 104
2, 141600, Note_on_c, 0, 82, 104
2, 141600, Note_on_c, 0, 86, 104
2, 141960, Note_on_c, 0, 86, 0
2, 141960, Note_on_c, 0, 82, 0
2, 141960, Note_on_c, 0, 74, 0
2, 141960, Note_on_c, 0, 72, 78
2, 141960, Note_on_c, 0, 81, 78
2, 141960, Note_on_c, 0, 84, 78
2, 142020, Note_on_c, 0, 84, 0
2, 142020, Note_on_c, 0, 81, 0
2, 142020, Note_on_c, 0, 72, 0
2, 142020, Note_on_c, 0, 86, 78
2, 142080, Note_on_c, 0, 86, 0
2, 142080, Note_on_c, 0, 72, 78
2, 142080, Note_on_c, 0, 81, 78
2, 142080, Note_on_c, 0, 84, 78
2, 142127, Note_on_c, 0, 84, 0
2, 142127, Note_on_c, 0, 81, 0
2, 142127, Note_on_c, 0, 72, 0
2, 142320, Note_on_c, 0, 70, 78
2, 142320, Note_on_c, 0, 79, 78
2, 142320, Note_on_c, 0, 82, 78
2, 142367, Note_on_c, 0, 82, 0
2, 142367, Note_on_c, 0, 79, 0
2, 142367, Note_on_c, 0, 70, 0
2, 142560, Note_on_c, 0, 69, 78
2, 142560, Note_on_c, 0, 77, 78
2, 142560, Note_on_c, 0, 81, 78
2, 142607, Note_on_c, 0, 81, 0
2, 142607, Note_on_c, 0, 77, 0
2, 142607, Note_on_c, 0, 69, 0
2, 142800, Note_on_c, 0, 65, 78
2, 142800, Note_on_c, 0, 74, 78
2, 142800, Note_on_c, 0, 77, 78
2, 142847, Note_on_c, 0, 77, 0
2, 142847, Note_on_c, 0, 74, 0
2, 142847, Note_on_c, 0, 65, 0
2, 143040, Note_on_c, 0, 67, 78
2, 143040, Note_on_c, 0, 74, 78
2, 143040, Note_on_c, 0, 79, 78
2, 143087, Note_on_c, 0, 79, 0
2, 143087, Note_on_c, 0, 74, 0
2, 143087, Note_on_c, 0, 67, 0
2, 143280, Note_on_c, 0, 64, 78
2, 143280, Note_on_c, 0, 74, 78
2, 143280, Note_on_c, 0, 76, 78
2, 143327, Note_on_c, 0, 76, 0
2, 143327, Note_on_c, 0, 74, 0
2, 143327, Note_on_c, 0, 64, 0
2, 143520, Note_on_c, 0, 65, 78
2, 143520, Note_on_c, 0, 74, 78
2, 143520, Note_on_c, 0, 77, 78
2, 143567, Note_on_c, 0, 77, 0
2, 143567, Note_on_c, 0, 74, 0
2, 143567, Note_on_c, 0, 65, 0
2, 143760, Note_on_c, 0, 67, 78
2, 143760, Note_on_c, 0, 76, 78
2, 143760, Note_on_c, 0, 79, 78
2, 143807, Note_on_c, 0, 79, 0
2, 143807, Note_on_c, 0, 76, 0
2, 143807, Note_on_c, 0, 67, 0
2, 144000, Note_on_c, 0, 69, 78
2, 144000, Note_on_c, 0, 77, 78
2, 144000, Note_on_c, 0, 81, 78
2, 144047, Note_on_c, 0, 81, 0
2, 144047, Note_on_c, 0, 77, 0
2, 144047, Note_on_c, 0, 69, 0
2, 145620, Note_on_c, 0, 74, 52
2, 145680, Note_on_c, 0, 74, 0
2, 145680, Note_on_c, 0, 76, 52
2, 145800, Note_on_c, 0, 76, 0
2, 145860, Note_on_c, 0, 78, 52
2, 145920, Note_on_c, 0, 78, 0
2, 145920, Note_on_c, 0, 79, 52
2, 146040, Note_on_c, 0, 79, 0
2, 146100, Note_on_c, 0, 78, 52
2, 146160, Note_on_c, 0, 78, 0
2, 146160, Note_on_c, 0, 79, 52
2, 146280, Note_on_c, 0, 79, 0
2, 146340, Note_on_c, 0, 81, 52
2, 146400, Note_on_c, 0, 81, 0
2, 146400, Note_on_c, 0, 82, 52
2, 146520, Note_on_c, 0, 82, 0
2, 146580, Note_on_c, 0, 81, 52
2, 146640, Note_on_c, 0, 81, 0
2, 146640, Note_on_c, 0, 82, 52
2, 146760, Note_on_c, 0, 82, 0
2, 146820, Note_on_c, 0, 84, 52
2, 146880, Note_on_c, 0, 84, 0
2, 146880, Note_on_c, 0, 86, 52
2, 146927, Note_on_c, 0, 86, 0
2, 148500, Note_on_c, 0, 76, 52
2, 148560, Note_on_c, 0, 76, 0
2, 148560, Note_on_c, 0, 78, 52
2, 148680, Note_on_c, 0, 78, 0
2, 148740, Note_on_c, 0, 80, 52
2, 148800, Note_on_c, 0, 80, 0
2, 148800, Note_on_c, 0, 81, 52
2, 148920, Note_on_c, 0, 81, 0
2, 148980, Note_on_c, 0, 80, 52
2, 149040, Note_on_c, 0, 80, 0
2, 149040, Note_on_c, 0, 81, 52
2, 149160, Note_on_c, 0, 81, 0
2, 149220, Note_on_c, 0, 83, 52
2, 149280, Note_on_c, 0, 83, 0
2, 149280, Note_on_c, 0, 84, 52
2, 149400, Note_on_c, 0, 84, 0
2, 149460, Note_on_c, 0, 83, 52
2, 149520, Note_on_c, 0, 83, 0
2, 149520, Note_on_c, 0, 84, 52
2, 149640, Note_on_c, 0, 84, 0
2, 149700, Note_on_c, 0, 86, 52
2, 149760, Note_on_c, 0, 86, 0
2, 149760, Note_on_c, 0, 88, 52
2, 150000, Note_on_c, 0, 88, 0
2, 151380, Note_on_c, 0, 63, 52
2, 151440, Note_on_c, 0, 63, 0
2, 151440, Note_on_c, 0, 64, 52
2, 151560, Note_on_c, 0, 64, 0
2, 151620, Note_on_c, 0, 67, 52
2, 151680, Note_on_c, 0, 67, 0
2, 151680, Note_on_c, 0, 68, 52
2, 151800, Note_on_c, 0, 68, 0
2, 151860, Note_on_c, 0, 69, 52
2, 151920, Note_on_c, 0, 69, 0
2, 151920, Note_on_c, 0, 70, 52
2, 152040, Note_on_c, 0, 70, 0
2, 152100, Note_on_c, 0, 71, 52
2, 152160, Note_on_c, 0, 71, 0
2, 152160, Note_on_c, 0, 76, 52
2, 152280, Note_on_c, 0, 76, 0
2, 152340, Note_on_c, 0, 78, 52
2, 152400, Note_on_c, 0, 78, 0
2, 152400, Note_on_c, 0, 79, 52
2, 152520, Note_on_c, 0, 79, 0
2, 152580, Note_on_c, 0, 80, 52
2, 152640, Note_on_c, 0, 80, 0
2, 152640, Note_on_c, 0, 81, 52
2, 152880, Note_on_c, 0, 81, 0
2, 154260, Note_on_c, 0, 61, 52
2, 154320, Note_on_c, 0, 61, 0
2, 154320, Note_on_c, 0, 62, 52
2, 154440, Note_on_c, 0, 62, 0
2, 154500, Note_on_c, 0, 65, 52
2, 154560, Note_on_c, 0, 65, 0
2, 154560, Note_on_c, 0, 66, 52
2, 154680, Note_on_c, 0, 66, 0
2, 154740, Note_on_c, 0, 67, 52
2, 154800, Note_on_c, 0, 67, 0
2, 154800, Note_on_c, 0, 68, 52
2, 154920, Note_on_c, 0, 68, 0
2, 154980, Note_on_c, 0, 69, 52
2, 155040, Note_on_c, 0, 69, 0
2, 155040, Note_on_c, 0, 74, 52
2, 155160, Note_on_c, 0, 74, 0
2, 155220, Note_on_c, 0, 76, 52
2, 155280, Note_on_c, 0, 76, 0
2, 155280, Note_on_c, 0, 77, 52
2, 155400, Note_on_c, 0, 77, 0
2, 155460, Note_on_c, 0, 78, 52
2, 155520, Note_on_c, 0, 78, 0
2, 155520, Note_on_c, 0, 79, 52
2, 155640, Note_on_c, 0, 79, 0
2, 155700, Note_on_c, 0, 83, 52
2, 155760, Note_on_c, 0, 83, 0
2, 155760, Note_on_c, 0, 84, 52
2, 155880, Note_on_c, 0, 84, 0
2, 155940, Note_on_c, 0, 87, 52
2, 156000, Note_on_c, 0, 87, 0
2, 156000, Note_on_c, 0, 88, 52
2, 156120, Note_on_c, 0, 88, 0
2, 156180, Note_on_c, 0, 89, 52
2, 156240, Note_on_c, 0, 89, 0
2, 156240, Note_on_c, 0, 90, 52
2, 156360, Note_on_c, 0, 90, 0
2, 156420, Note_on_c, 0, 91, 52
2, 156480, Note_on_c, 0, 91, 0
2, 156480, Note_on_c, 0, 96, 52
2, 156600, Note_on_c, 0, 96, 0
2, 156660, Note_on_c, 0, 98, 52
2, 156720, Note_on_c, 0, 98, 0
2, 156720, Note_on_c, 0, 99, 52
2, 156840, Note_on_c, 0, 99, 0
2, 156900, Note_on_c, 0, 100, 52
2, 156960, Note_on_c, 0, 100, 0
2, 156960, Note_on_c, 0, 101, 65
2, 157080, Note_on_c, 0, 101, 0
2, 157140, Note_on_c, 0, 88, 65
2, 157200, Note_on_c, 0, 88, 0
2, 157200, Note_on_c, 0, 89, 65
2, 157320, Note_on_c, 0, 89, 0
2, 157380, Note_on_c, 0, 93, 65
2, 157440, Note_on_c, 0, 93, 0
2, 157440, Note_on_c, 0, 94, 65
2, 157560, Note_on_c, 0, 94, 0
2, 157620, Note_on_c, 0, 96, 65
2, 157680, Note_on_c, 0, 96, 0
2, 157680, Note_on_c, 0, 97, 65
2, 157800, Note_on_c, 0, 97, 0
2, 157860, Note_on_c, 0, 98, 65
2, 157920, Note_on_c, 0, 98, 0
2, 157920, Note_on_c, 0, 99, 65
2, 158040, Note_on_c, 0, 99, 0
2, 158100, Note_on_c, 0, 88, 65
2, 158160, Note_on_c, 0, 88, 0
2, 158160, Note_on_c, 0, 89, 65
2, 158280, Note_on_c, 0, 89, 0
2, 158340, Note_on_c, 0, 93, 65
2, 158400, Note_on_c, 0, 93, 0
2, 158400, Note_on_c, 0, 94, 78
2, 158520, Note_on_c, 0, 94, 0
2, 158580, Note_on_c, 0, 96, 78
2, 158640, Note_on_c, 0, 96, 0
2, 158640, Note_on_c, 0, 97, 78
2, 158760, Note_on_c, 0, 97, 0
2, 158820, Note_on_c, 0, 98, 78
2, 158880, Note_on_c, 0, 98, 0
2, 158880, Note_on_c, 0, 99, 78
2, 159000, Note_on_c, 0, 99, 0
2, 159060, Note_on_c, 0, 88, 78
2, 159120, Note_on_c, 0, 88, 0
2, 159120, Note_on_c, 0, 89, 78
2, 159240, Note_on_c, 0, 89, 0
2, 159300, Note_on_c, 0, 93, 78
2, 159360, Note_on_c, 0, 93, 0
2, 159360, Note_on_c, 0, 94, 78
2, 159480, Note_on_c, 0, 94, 0
2, 159540, Note_on_c, 0, 96, 78
2, 159600, Note_on_c, 0, 96, 0
2, 159600, Note_on_c, 0, 97, 78
2, 159720, Note_on_c, 0, 97, 0
2, 159780, Note_on_c, 0, 98, 78
2, 159840, Note_on_c, 0, 98, 0
2, 159840, Note_on_c, 0, 99, 78
2, 159960, Note_on_c, 0, 99, 0
2, 160020, Note_on_c, 0, 98, 78
2, 160080, Note_on_c, 0, 98, 0
2, 160080, Note_on_c, 0, 97, 78
2, 160200, Note_on_c, 0, 97, 0
2, 160260, Note_on_c, 0, 84, 78
2, 160320, Note_on_c, 0, 84, 0
2, 160320, Note_on_c, 0, 82, 78
2, 160440, Note_on_c, 0, 82, 0
2, 160500, Note_on_c, 0, 80, 78
2, 160560, Note_on_c, 0, 80, 0
2, 160560, Note_on_c, 0, 79, 78
2, 160680, Note_on_c, 0, 79, 0
2, 160740, Note_on_c, 0, 77, 78
2, 160800, Note_on_c, 0, 77, 0
2, 160800, Note_on_c, 0, 75, 78
2, 160920, Note_on_c, 0, 75, 0
2, 160980, Note_on_c, 0, 74, 78
2, 161040, Note_on_c, 0, 74, 0
2, 161040, Note_on_c, 0, 73, 78
2, 161160, Note_on_c, 0, 73, 0
2, 161220, Note_on_c, 0, 72, 78
2, 161280, Note_on_c, 0, 72, 0
2, 161280, Note_on_c, 0, 70, 78
2, 161400, Note_on_c, 0, 70, 0
2, 161400, Note_on_c, 0, 66, 52
2, 161400, Note_on_c, 0, 78, 52
2, 161423, Note_on_c, 0, 78, 0
2, 161423, Note_on_c, 0, 66, 0
2, 161520, Note_on_c, 0, 67, 52
2, 161520, Note_on_c, 0, 79, 52
2, 161543, Note_on_c, 0, 79, 0
2, 161543, Note_on_c, 0, 67, 0
2, 161640, Note_on_c, 0, 68, 52
2, 161640, Note_on_c, 0, 80, 52
2, 161663, Note_on_c, 0, 80, 0
2, 161663, Note_on_c, 0, 68, 0
2, 161760, Note_on_c, 0, 70, 65
2, 161760, Note_on_c, 0, 82, 65
2, 161783, Note_on_c, 0, 82, 0
2, 161783, Note_on_c, 0, 70, 0
2, 161880, Note_on_c, 0, 72, 65
2, 161880, Note_on_c, 0, 84, 65
2, 161903, Note_on_c, 0, 84, 0
2, 161903, Note_on_c, 0, 72, 0
2, 162000, Note_on_c, 0, 73, 65
2, 162000, Note_on_c, 0, 85, 65
2, 162023, Note_on_c, 0, 85, 0
2, 162023, Note_on_c, 0, 73, 0
2, 162120, Note_on_c, 0, 75, 65
2, 162120, Note_on_c, 0, 87, 65
2, 162143, Note_on_c, 0, 87, 0
2, 162143, Note_on_c, 0, 75, 0
2, 162240, Note_on_c, 0, 77, 78
2, 162240, Note_on_c, 0, 89, 78
2, 162263, Note_on_c, 0, 89, 0
2, 162263, Note_on_c, 0, 77, 0
2, 162360, Note_on_c, 0, 79, 78
2, 162360, Note_on_c, 0, 91, 78
2, 162383, Note_on_c, 0, 91, 0
2, 162383, Note_on_c, 0, 79, 0
2, 162480, Note_on_c, 0, 80, 78
2, 162480, Note_on_c, 0, 92, 78
2, 162503, Note_on_c, 0, 92, 0
2, 162503, Note_on_c, 0, 80, 0
2, 162600, Note_on_c, 0, 82, 91
2, 162600, Note_on_c, 0, 94, 91
2, 162623, Note_on_c, 0, 94, 0
2, 162623, Note_on_c, 0, 82, 0
2, 162720, Note_on_c, 0, 84, 91
2, 162720, Note_on_c, 0, 96, 91
2, 162960, Note_on_c, 0, 96, 0
2, 162960, Note_on_c, 0, 84, 0
2, 174240, Note_on_c, 0, 79, 65
2, 174287, Note_on_c, 0, 79, 0
2, 174480, Note_on_c, 0, 78, 65
2, 174527, Note_on_c, 0, 78, 0
2, 174720, Note_on_c, 0, 76, 91
2, 174840, Note_on_c, 0, 66, 65
2, 174960, Note_on_c, 0, 66, 0
2, 174960, Note_on_c, 0, 67, 65
2, 175080, Note_on_c, 0, 67, 0
2, 175080, Note_on_c, 0, 68, 65
2, 175200, Note_on_c, 0, 68, 0
2, 175200, Note_on_c, 0, 76, 0
2, 175200, Note_on_c, 0, 69, 65
2, 175200, Note_on_c, 0, 74, 65
2, 175320, Note_on_c, 0, 69, 0
2, 175320, Note_on_c, 0, 71, 65
2, 175440, Note_on_c, 0, 71, 0
2, 175440, Note_on_c, 0, 72, 65
2, 175560, Note_on_c, 0, 72, 0
2, 175560, Note_on_c, 0, 66, 65
2, 175680, Note_on_c, 0, 66, 0
2, 175680, Note_on_c, 0, 74, 0
2, 175680, Note_on_c, 0, 67, 65
2, 175920, Note_on_c, 0, 67, 0
2, 175920, Note_on_c, 0, 66, 65
2, 176160, Note_on_c, 0, 66, 0
2, 176280, Note_on_c, 0, 73, 65
2, 176400, Note_on_c, 0, 73, 0
2, 176400, Note_on_c, 0, 76, 65
2, 176520, Note_on_c, 0, 76, 0
2, 176520, Note_on_c, 0, 78, 65
2, 176640, Note_on_c, 0, 78, 0
2, 176640, Note_on_c, 0, 79, 65
2, 176760, Note_on_c, 0, 79, 0
2, 176760, Note_on_c, 0, 80, 65
2, 176880, Note_on_c, 0, 80, 0
2, 176880, Note_on_c, 0, 82, 65
2, 177000, Note_on_c, 0, 82, 0
2, 177000, Note_on_c, 0, 83, 65
2, 177120, Note_on_c, 0, 83, 0
2, 177120, Note_on_c, 0, 79, 65
2, 177167, Note_on_c, 0, 79, 0
2, 177360, Note_on_c, 0, 78, 65
2, 177407, Note_on_c, 0, 78, 0
2, 177600, Note_on_c, 0, 76, 91
2, 177720, Note_on_c, 0, 66, 65
2, 177840, Note_on_c, 0, 66, 0
2, 177840, Note_on_c, 0, 67, 65
2, 177960, Note_on_c, 0, 67, 0
2, 177960, Note_on_c, 0, 68, 65
2, 178080, Note_on_c, 0, 68, 0
2, 178080, Note_on_c, 0, 76, 0
2, 178080, Note_on_c, 0, 69, 65
2, 178080, Note_on_c, 0, 74, 65
2, 178200, Note_on_c, 0, 69, 0
2, 178200, Note_on_c, 0, 71, 65
2, 178320, Note_on_c, 0, 71, 0
2, 178320, Note_on_c, 0, 72, 65
2, 178440, Note_on_c, 0, 72, 0
2, 178440, Note_on_c, 0, 66, 65
2, 178560, Note_on_c, 0, 66, 0
2, 178560, Note_on_c, 0, 74, 0
2, 178560, Note_on_c, 0, 67, 65
2, 178607, Note_on_c, 0, 67, 0
2, 178800, Note_on_c, 0, 66, 65
2, 178847, Note_on_c, 0, 66, 0
2, 179160, Note_on_c, 0, 73, 65
2, 179280, Note_on_c, 0, 73, 0
2, 179280, Note_on_c, 0, 76, 65
2, 179400, Note_on_c, 0, 76, 0
2, 179400, Note_on_c, 0, 78, 65
2, 179520, Note_on_c, 0, 78, 0
2, 179520, Note_on_c, 0, 79, 65
2, 179640, Note_on_c, 0, 79, 0
2, 179640, Note_on_c, 0, 80, 65
2, 179760, Note_on_c, 0, 80, 0
2, 179760, Note_on_c, 0, 82, 65
2, 179880, Note_on_c, 0, 82, 0
2, 179880, Note_on_c, 0, 83, 65
2, 180000, Note_on_c, 0, 83, 0
2, 180120, Note_on_c, 0, 75, 65
2, 180240, Note_on_c, 0, 75, 0
2, 180240, Note_on_c, 0, 76, 65
2, 180360, Note_on_c, 0, 76, 0
2, 180360, Note_on_c, 0, 78, 65
2, 180480, Note_on_c, 0, 78, 0
2, 180480, Note_on_c, 0, 79, 65
2, 180600, Note_on_c, 0, 79, 0
2, 180600, Note_on_c, 0, 78, 65
2, 180720, Note_on_c, 0, 78, 0
2, 180720, Note_on_c, 0, 79, 65
2, 180840, Note_on_c, 0, 79, 0
2, 180840, Note_on_c, 0, 81, 65
2, 180960, Note_on_c, 0, 81, 0
2, 180960, Note_on_c, 0, 83, 65
2, 181080, Note_on_c, 0, 83, 0
2, 181080, Note_on_c, 0, 84, 65
2, 181200, Note_on_c, 0, 84, 0
2, 181200, Note_on_c, 0, 85, 65
2, 181320, Note_on_c, 0, 85, 0
2, 181320, Note_on_c, 0, 86, 65
2, 181440, Note_on_c, 0, 86, 0
2, 181560, Note_on_c, 0, 87, 65
2, 181680, Note_on_c, 0, 87, 0
2, 181680, Note_on_c, 0, 88, 65
2, 181800, Note_on_c, 0, 88, 0
2, 181800, Note_on_c, 0, 90, 65
2, 181920, Note_on_c, 0, 90, 0
2, 181920, Note_on_c, 0, 91, 65
2, 182040, Note_on_c, 0, 91, 0
2, 182040, Note_on_c, 0, 90, 65
2, 182160, Note_on_c, 0, 90, 0
2, 182160, Note_on_c, 0, 91, 65
2, 182280, Note_on_c, 0, 91, 0
2, 182280, Note_on_c, 0, 93, 65
2, 182400, Note_on_c, 0, 93, 0
2, 182400, Note_on_c, 0, 95, 65
2, 182520, Note_on_c, 0, 95, 0
2, 182520, Note_on_c, 0, 96, 65
2, 182640, Note_on_c, 0, 96, 0
2, 182640, Note_on_c, 0, 97, 65
2, 182760, Note_on_c, 0, 97, 0
2, 182760, Note_on_c, 0, 98, 65
2, 182880, Note_on_c, 0, 98, 0
2, 183000, Note_on_c, 0, 99, 65
2, 183120, Note_on_c, 0, 99, 0
2, 183120, Note_on_c, 0, 100, 65
2, 183240, Note_on_c, 0, 100, 0
2, 183240, Note_on_c, 0, 102, 65
2, 183360, Note_on_c, 0, 102, 0
2, 183360, Note_on_c, 0, 103, 65
2, 183480, Note_on_c, 0, 103, 0
2, 183480, Note_on_c, 0, 98, 65
2, 183600, Note_on_c, 0, 98, 0
2, 183600, Note_on_c, 0, 100, 65
2, 183720, Note_on_c, 0, 100, 0
2, 183720, Note_on_c, 0, 102, 65
2, 183840, Note_on_c, 0, 102, 0
2, 183840, Note_on_c, 0, 103, 65
2, 183960, Note_on_c, 0, 103, 0
2, 183960, Note_on_c, 0, 91, 65
2, 184080, Note_on_c, 0, 91, 0
2, 184080, Note_on_c, 0, 93, 65
2, 184200, Note_on_c, 0, 93, 0
2, 184200, Note_on_c, 0, 94, 65
2, 184320, Note_on_c, 0, 94, 0
2, 184320, Note_on_c, 0, 95, 65
2, 184440, Note_on_c, 0, 95, 0
2, 184440, Note_on_c, 0, 95, 65
2, 184560, Note_on_c, 0, 95, 0
2, 184560, Note_on_c, 0, 96, 65
2, 184680, Note_on_c, 0, 96, 0
2, 184680, Note_on_c, 0, 97, 65
2, 184800, Note_on_c, 0, 97, 0
2, 184800, Note_on_c, 0, 98, 65
2, 184920, Note_on_c, 0, 98, 0
2, 184920, Note_on_c, 0, 86, 65
2, 185040, Note_on_c, 0, 86, 0
2, 185040, Note_on_c, 0, 88, 65
2, 185160, Note_on_c, 0, 88, 0
2, 185160, Note_on_c, 0, 90, 65
2, 185280, Note_on_c, 0, 90, 0
2, 185280, Note_on_c, 0, 91, 65
2, 185400, Note_on_c, 0, 91, 0
2, 185400, Note_on_c, 0, 91, 65
2, 185520, Note_on_c, 0, 91, 0
2, 185520, Note_on_c, 0, 93, 65
2, 185640, Note_on_c, 0, 93, 0
2, 185640, Note_on_c, 0, 94, 65
2, 185760, Note_on_c, 0, 94, 0
2, 185760, Note_on_c, 0, 95, 65
2, 185880, Note_on_c, 0, 95, 0
2, 185880, Note_on_c, 0, 83, 65
2, 186000, Note_on_c, 0, 83, 0
2, 186000, Note_on_c, 0, 84, 65
2, 186120, Note_on_c, 0, 84, 0
2, 186120, Note_on_c, 0, 85, 65
2, 186240, Note_on_c, 0, 85, 0
2, 186240, Note_on_c, 0, 86, 65
2, 186360, Note_on_c, 0, 86, 0
2, 186360, Note_on_c, 0, 86, 65
2, 186480, Note_on_c, 0, 86, 0
2, 186480, Note_on_c, 0, 88, 65
2, 186600, Note_on_c, 0, 88, 0
2, 186600, Note_on_c, 0, 90, 65
2, 186720, Note_on_c, 0, 90, 0
2, 186720, Note_on_c, 0, 91, 65
2, 186840, Note_on_c, 0, 91, 0
2, 186840, Note_on_c, 0, 79, 65
2, 186960, Note_on_c, 0, 79, 0
2, 186960, Note_on_c, 0, 81, 65
2, 187080, Note_on_c, 0, 81, 0
2, 187080, Note_on_c, 0, 82, 65
2, 187200, Note_on_c, 0, 82, 0
2, 187200, Note_on_c, 0, 83, 65
2, 187320, Note_on_c, 0, 83, 0
2, 187320, Note_on_c, 0, 83, 65
2, 187440, Note_on_c, 0, 83, 0
2, 187440, Note_on_c, 0, 84, 65
2, 187560, Note_on_c, 0, 84, 0
2, 187560, Note_on_c, 0, 85, 65
2, 187680, Note_on_c, 0, 85, 0
2, 187680, Note_on_c, 0, 86, 65
2, 187800, Note_on_c, 0, 86, 0
2, 187800, Note_on_c, 0, 76, 65
2, 187920, Note_on_c, 0, 76, 0
2, 187920, Note_on_c, 0, 77, 65
2, 188040, Note_on_c, 0, 77, 0
2, 188040, Note_on_c, 0, 79, 65
2, 188160, Note_on_c, 0, 79, 0
2, 188160, Note_on_c, 0, 80, 65
2, 188280, Note_on_c, 0, 80, 0
2, 188280, Note_on_c, 0, 81, 65
2, 188400, Note_on_c, 0, 81, 0
2, 188400, Note_on_c, 0, 83, 65
2, 188520, Note_on_c, 0, 83, 0
2, 188520, Note_on_c, 0, 84, 65
2, 188640, Note_on_c, 0, 84, 0
2, 188640, Note_on_c, 0, 86, 65
2, 188760, Note_on_c, 0, 86, 0
2, 188760, Note_on_c, 0, 76, 65
2, 188880, Note_on_c, 0, 76, 0
2, 188880, Note_on_c, 0, 77, 65
2, 189000, Note_on_c, 0, 77, 0
2, 189000, Note_on_c, 0, 79, 65
2, 189120, Note_on_c, 0, 79, 0
2, 189120, Note_on_c, 0, 80, 65
2, 189240, Note_on_c, 0, 80, 0
2, 189240, Note_on_c, 0, 81, 65
2, 189360, Note_on_c, 0, 81, 0
2, 189360, Note_on_c, 0, 82, 65
2, 189480, Note_on_c, 0, 82, 0
2, 189480, Note_on_c, 0, 84, 65
2, 189600, Note_on_c, 0, 84, 0
2, 189600, Note_on_c, 0, 86, 65
2, 189720, Note_on_c, 0, 86, 0
2, 189720, Note_on_c, 0, 69, 65
2, 189840, Note_on_c, 0, 69, 0
2, 189840, Note_on_c, 0, 70, 65
2, 189960, Note_on_c, 0, 70, 0
2, 189960, Note_on_c, 0, 72, 65
2, 190080, Note_on_c, 0, 72, 0
2, 190080, Note_on_c, 0, 74, 65
2, 190200, Note_on_c, 0, 74, 0
2, 190200, Note_on_c, 0, 76, 65
2, 190320, Note_on_c, 0, 76, 0
2, 190320, Note_on_c, 0, 77, 65
2, 190440, Note_on_c, 0, 77, 0
2, 190440, Note_on_c, 0, 79, 65
2, 190560, Note_on_c, 0, 79, 0
2, 190560, Note_on_c, 0, 80, 65
2, 190680, Note_on_c, 0, 80, 0
2, 190680, Note_on_c, 0, 64, 52
2, 190800, Note_on_c, 0, 64, 0
2, 190800, Note_on_c, 0, 65, 52
2, 190920, Note_on_c, 0, 65, 0
2, 190920, Note_on_c, 0, 67, 52
2, 191040, Note_on_c, 0, 67, 0
2, 191040, Note_on_c, 0, 68, 52
2, 191160, Note_on_c, 0, 68, 0
2, 191160, Note_on_c, 0, 69, 52
2, 191280, Note_on_c, 0, 69, 0
2, 191280, Note_on_c, 0, 70, 52
2, 191400, Note_on_c, 0, 70, 0
2, 191400, Note_on_c, 0, 72, 52
2, 191520, Note_on_c, 0, 72, 0
2, 191520, Note_on_c, 0, 74, 52
2, 191640, Note_on_c, 0, 74, 0
2, 191640, Note_on_c, 0, 52, 52
2, 191760, Note_on_c, 0, 52, 0
2, 191760, Note_on_c, 0, 53, 52
2, 191880, Note_on_c, 0, 53, 0
2, 191880, Note_on_c, 0, 55, 52
2, 192000, Note_on_c, 0, 55, 0
2, 192000, Note_on_c, 0, 56, 52
2, 192120, Note_on_c, 0, 56, 0
2, 192120, Note_on_c, 0, 57, 52
2, 192240, Note_on_c, 0, 57, 0
2, 192240, Note_on_c, 0, 58, 52
2, 192360, Note_on_c, 0, 58, 0
2, 192360, Note_on_c, 0, 60, 52
2, 192480, Note_on_c, 0, 60, 0
2, 192480, Note_on_c, 0, 62, 52
2, 192600, Note_on_c, 0, 62, 0
2, 192600, Note_on_c, 0, 46, 52
2, 192720, Note_on_c, 0, 46, 0
2, 192720, Note_on_c, 0, 48, 52
2, 192840, Note_on_c, 0, 48, 0
2, 192840, Note_on_c, 0, 50, 52
2, 192960, Note_on_c, 0, 50, 0
2, 192960, Note_on_c, 0, 51, 52
2, 193080, Note_on_c, 0, 51, 0
2, 193080, Note_on_c, 0, 58, 52
2, 193200, Note_on_c, 0, 58, 0
2, 193200, Note_on_c, 0, 60, 52
2, 193320, Note_on_c, 0, 60, 0
2, 193320, Note_on_c, 0, 62, 52
2, 193440, Note_on_c, 0, 62, 0
2, 193440, Note_on_c, 0, 63, 52
2, 193560, Note_on_c, 0, 63, 0
2, 193560, Note_on_c, 0, 70, 52
2, 193680, Note_on_c, 0, 70, 0
2, 193680, Note_on_c, 0, 72, 52
2, 193800, Note_on_c, 0, 72, 0
2, 193800, Note_on_c, 0, 74, 52
2, 193920, Note_on_c, 0, 74, 0
2, 193920, Note_on_c, 0, 75, 52
2, 194160, Note_on_c, 0, 75, 0
2, 194520, Note_on_c, 0, 81, 52
2, 194640, Note_on_c, 0, 81, 0
2, 194640, Note_on_c, 0, 82, 52
2, 194760, Note_on_c, 0, 82, 0
2, 194760, Note_on_c, 0, 84, 52
2, 194880, Note_on_c, 0, 84, 0
2, 194880, Note_on_c, 0, 86, 52
2, 195000, Note_on_c, 0, 86, 0
2, 195000, Note_on_c, 0, 69, 52
2, 195120, Note_on_c, 0, 69, 0
2, 195120, Note_on_c, 0, 70, 52
2, 195240, Note_on_c, 0, 70, 0
2, 195240, Note_on_c, 0, 72, 52
2, 195360, Note_on_c, 0, 72, 0
2, 195360, Note_on_c, 0, 74, 52
2, 195600, Note_on_c, 0, 74, 0
2, 195960, Note_on_c, 0, 58, 52
2, 196080, Note_on_c, 0, 58, 0
2, 196080, Note_on_c, 0, 60, 52
2, 196200, Note_on_c, 0, 60, 0
2, 196200, Note_on_c, 0, 62, 52
2, 196320, Note_on_c, 0, 62, 0
2, 196320, Note_on_c, 0, 63, 52
2, 196440, Note_on_c, 0, 63, 0
2, 196440, Note_on_c, 0, 65, 52
2, 196560, Note_on_c, 0, 65, 0
2, 196560, Note_on_c, 0, 67, 65
2, 196680, Note_on_c, 0, 67, 0
2, 196680, Note_on_c, 0, 68, 65
2, 196800, Note_on_c, 0, 68, 0
2, 196800, Note_on_c, 0, 70, 65
2, 196868, Note_on_c, 0, 70, 0
2, 196868, Note_on_c, 0, 72, 65
2, 196937, Note_on_c, 0, 72, 0
2, 196937, Note_on_c, 0, 74, 65
2, 197005, Note_on_c, 0, 74, 0
2, 197005, Note_on_c, 0, 75, 65
2, 197074, Note_on_c, 0, 75, 0
2, 197074, Note_on_c, 0, 77, 65
2, 197142, Note_on_c, 0, 77, 0
2, 197142, Note_on_c, 0, 79, 65
2, 197211, Note_on_c, 0, 79, 0
2, 197211, Note_on_c, 0, 80, 65
2, 197280, Note_on_c, 0, 80, 0
2, 197280, Note_on_c, 0, 70, 65
2, 197280, Note_on_c, 0, 82, 65
2, 197760, Note_on_c, 0, 82, 0
2, 197760, Note_on_c, 0, 70, 0
2, 197760, Note_on_c, 0, 72, 65
2, 197760, Note_on_c, 0, 84, 65
2, 198240, Note_on_c, 0, 84, 0
2, 198240, Note_on_c, 0, 72, 0
2, 198240, Note_on_c, 0, 70, 65
2, 198240, Note_on_c, 0, 82, 65
2, 198720, Note_on_c, 0, 82, 0
2, 198720, Note_on_c, 0, 70, 0
2, 198720, Note_on_c, 0, 70, 65
2, 198720, Note_on_c, 0, 82, 65
2, 199680, Note_on_c, 0, 82, 0
2, 199680, Note_on_c, 0, 70, 0
2, 199680, Note_on_c, 0, 67, 65
2, 199680, Note_on_c, 0, 79, 65
2, 199920, Note_on_c, 0, 79, 0
2, 199920, Note_on_c, 0, 67, 0
2, 199920, Note_on_c, 0, 69, 65
2, 199920, Note_on_c, 0, 81, 65
2, 200160, Note_on_c, 0, 81, 0
2, 200160, Note_on_c, 0, 69, 0
2, 200160, Control_c, 0, 64, 127
2, 200160, Note_on_c, 0, 70, 65
2, 200160, Note_on_c, 0, 74, 65
2, 200160, Note_on_c, 0, 79, 65
2, 200160, Note_on_c, 0, 82, 65
2, 200400, Note_on_c, 0, 82, 0
2, 200400, Note_on_c, 0, 70, 0
2, 200400, Note_on_c, 0, 74, 0
2, 200400, Note_on_c, 0, 79, 0
2, 200400, Note_on_c, 0, 72, 65
2, 200400, Note_on_c, 0, 84, 65
2, 200640, Note_on_c, 0, 84, 0
2, 200640, Note_on_c, 0, 72, 0
2, 200640, Note_on_c, 0, 74, 65
2, 200640, Note_on_c, 0, 86, 65
2, 200760, Note_on_c, 0, 86, 0
2, 200760, Note_on_c, 0, 74, 0
2, 200760, Note_on_c, 0, 82, 65
2, 200880, Note_on_c, 0, 82, 0
2, 200880, Note_on_c, 0, 79, 65
2, 201000, Note_on_c, 0, 79, 0
2, 201000, Control_c, 0, 64, 0
2, 201000, Note_on_c, 0, 74, 65
2, 201120, Note_on_c, 0, 74, 0
2, 201120, Note_on_c, 0, 69, 65
2, 201120, Note_on_c, 0, 78, 65
2, 201120, Note_on_c, 0, 81, 65
2, 201360, Note_on_c, 0, 81, 0
2, 201360, Note_on_c, 0, 78, 0
2, 201360, Note_on_c, 0, 69, 0
2, 201360, Note_on_c, 0, 75, 65
2, 201360, Note_on_c, 0, 87, 65
2, 201600, Note_on_c, 0, 87, 0
2, 201600, Note_on_c, 0, 75, 0
2, 201600, Control_c, 0, 64, 127
2, 201600, Note_on_c, 0, 74, 65
2, 201600, Note_on_c, 0, 79, 65
2, 201600, Note_on_c, 0, 82, 65
2, 201600, Note_on_c, 0, 86, 65
2, 202080, Note_on_c, 0, 86, 0
2, 202080, Note_on_c, 0, 74, 0
2, 202080, Note_on_c, 0, 79, 0
2, 202080, Note_on_c, 0, 82, 0
2, 202080, Note_on_c, 0, 74, 78
2, 202080, Note_on_c, 0, 79, 78
2, 202200, Note_on_c, 0, 79, 0
2, 202200, Note_on_c, 0, 74, 0
2, 202200, Note_on_c, 0, 67, 78
2, 202320, Note_on_c, 0, 67, 0
2, 202320, Note_on_c, 0, 81, 78
2, 202440, Note_on_c, 0, 81, 0
2, 202440, Control_c, 0, 64, 0
2, 202440, Note_on_c, 0, 69, 78
2, 202560, Note_on_c, 0, 69, 0
2, 202560, Note_on_c, 0, 76, 78
2, 202560, Note_on_c, 0, 82, 78
2, 202680, Note_on_c, 0, 82, 0
2, 202680, Note_on_c, 0, 76, 0
2, 202680, Note_on_c, 0, 70, 78
2, 202800, Note_on_c, 0, 70, 0
2, 202800, Note_on_c, 0, 84, 78
2, 202920, Note_on_c, 0, 84, 0
2, 202920, Note_on_c, 0, 72, 78
2, 203040, Note_on_c, 0, 72, 0
2, 203040, Control_c, 0, 64, 127
2, 203040, Note_on_c, 0, 74, 78
2, 203040, Note_on_c, 0, 77, 78
2, 203040, Note_on_c, 0, 82, 78
2, 203040, Note_on_c, 0, 86, 78
2, 203280, Note_on_c, 0, 86, 0
2, 203280, Note_on_c, 0, 74, 0
2, 203280, Note_on_c, 0, 77, 0
2, 203280, Note_on_c, 0, 82, 0
2, 203280, Note_on_c, 0, 79, 78
2, 203280, Note_on_c, 0, 91, 78
2, 203520, Note_on_c, 0, 91, 0
2, 203520, Note_on_c, 0, 79, 0
2, 203520, Note_on_c, 0, 77, 78
2, 203520, Note_on_c, 0, 89, 78
2, 203640, Note_on_c, 0, 89, 0
2, 203640, Note_on_c, 0, 77, 0
2, 203640, Note_on_c, 0, 86, 78
2, 203760, Note_on_c, 0, 86, 0
2, 203760, Note_on_c, 0, 82, 78
2, 203880, Note_on_c, 0, 82, 0
2, 203880, Note_on_c, 0, 77, 78
2, 204000, Note_on_c, 0, 77, 0
2, 204000, Control_c, 0, 64, 0
2, 204000, Note_on_c, 0, 72, 78
2, 204000, Note_on_c, 0, 81, 78
2, 204000, Note_on_c, 0, 84, 78
2, 204240, Note_on_c, 0, 84, 0
2, 204240, Note_on_c, 0, 81, 0
2, 204240, Note_on_c, 0, 72, 0
2, 204240, Note_on_c, 0, 79, 78
2, 204240, Note_on_c, 0, 91, 78
2, 204480, Note_on_c, 0, 91, 0
2, 204480, Note_on_c, 0, 79, 0
2, 204480, Control_c, 0, 64, 127
2, 204480, Note_on_c, 0, 77, 78
2, 204480, Note_on_c, 0, 82, 78
2, 204480, Note_on_c, 0, 86, 78
2, 204480, Note_on_c, 0, 89, 78
2, 204960, Note_on_c, 0, 89, 0
2, 204960, Note_on_c, 0, 77, 0
2, 204960, Note_on_c, 0, 82, 0
2, 204960, Note_on_c, 0, 86, 0
2, 204960, Note_on_c, 0, 82, 78
2, 205080, Note_on_c, 0, 82, 0
2, 205080, Note_on_c, 0, 70, 78
2, 205200, Note_on_c, 0, 70, 0
2, 205200, Note_on_c, 0, 84, 78
2, 205320, Note_on_c, 0, 84, 0
2, 205320, Note_on_c, 0, 72, 78
2, 205440, Note_on_c, 0, 72, 0
2, 205440, Note_on_c, 0, 86, 78
2, 205560, Note_on_c, 0, 86, 0
2, 205560, Note_on_c, 0, 74, 78
2, 205680, Note_on_c, 0, 74, 0
2, 205680, Note_on_c, 0, 88, 78
2, 205800, Note_on_c, 0, 88, 0
2, 205800, Control_c, 0, 64, 0
2, 205800, Note_on_c, 0, 76, 78
2, 205920, Note_on_c, 0, 76, 0
2, 205920, Control_c, 0, 64, 127
2, 205920, Note_on_c, 0, 77, 78
2, 205920, Note_on_c, 0, 81, 78
2, 205920, Note_on_c, 0, 86, 78
2, 205920, Note_on_c, 0, 89, 78
2, 206160, Note_on_c, 0, 89, 0
2, 206160, Note_on_c, 0, 77, 0
2, 206160, Note_on_c, 0, 81, 0
2, 206160, Note_on_c, 0, 86, 0
2, 206160, Note_on_c, 0, 82, 78
2, 206160, Note_on_c, 0, 94, 78
2, 206400, Note_on_c, 0, 94, 0
2, 206400, Note_on_c, 0, 82, 0
2, 206400, Note_on_c, 0, 81, 78
2, 206400, Note_on_c, 0, 93, 78
2, 206520, Note_on_c, 0, 93, 0
2, 206520, Note_on_c, 0, 81, 0
2, 206520, Note_on_c, 0, 89, 78
2, 206640, Note_on_c, 0, 89, 0
2, 206640, Note_on_c, 0, 86, 78
2, 206760, Note_on_c, 0, 86, 0
2, 206760, Note_on_c, 0, 81, 78
2, 206880, Note_on_c, 0, 81, 0
2, 206880, Control_c, 0, 64, 0
2, 206880, Note_on_c, 0, 76, 78
2, 206880, Note_on_c, 0, 85, 78
2, 206880, Note_on_c, 0, 88, 78
2, 207120, Note_on_c, 0, 88, 0
2, 207120, Note_on_c, 0, 85, 0
2, 207120, Note_on_c, 0, 76, 0
2, 207120, Note_on_c, 0, 82, 78
2, 207120, Note_on_c, 0, 94, 78
2, 207360, Note_on_c, 0, 94, 0
2, 207360, Note_on_c, 0, 82, 0
2, 207360, Note_on_c, 0, 81, 78
2, 207360, Note_on_c, 0, 86, 78
2, 207360, Note_on_c, 0, 89, 78
2, 207360, Note_on_c, 0, 93, 78
2, 207840, Note_on_c, 0, 93, 0
2, 207840, Note_on_c, 0, 81, 0
2, 207840, Note_on_c, 0, 86, 0
2, 207840, Note_on_c, 0, 89, 0
2, 207840, Note_on_c, 0, 74, 65
2, 207840, Note_on_c, 0, 86, 65
2, 208080, Note_on_c, 0, 86, 0
2, 208080, Note_on_c, 0, 74, 0
2, 208080, Note_on_c, 0, 81, 65
2, 208080, Note_on_c, 0, 93, 65
2, 208320, Note_on_c, 0, 93, 0
2, 208320, Note_on_c, 0, 81, 0
2, 208320, Note_on_c, 0, 80, 65
2, 208320, Note_on_c, 0, 86, 65
2, 208320, Note_on_c, 0, 89, 65
2, 208320, Note_on_c, 0, 92, 65
2, 208800, Note_on_c, 0, 92, 0
2, 208800, Note_on_c, 0, 80, 0
2, 208800, Note_on_c, 0, 86, 0
2, 208800, Note_on_c, 0, 89, 0
2, 208800, Note_on_c, 0, 74, 65
2, 208800, Note_on_c, 0, 86, 65
2, 209040, Note_on_c, 0, 86, 0
2, 209040, Note_on_c, 0, 74, 0
2, 209040, Note_on_c, 0, 81, 65
2, 209040, Note_on_c, 0, 93, 65
2, 209280, Note_on_c, 0, 93, 0
2, 209280, Note_on_c, 0, 81, 0
2, 209280, Note_on_c, 0, 80, 65
2, 209280, Note_on_c, 0, 86, 65
2, 209280, Note_on_c, 0, 89, 65
2, 209280, Note_on_c, 0, 92, 65
2, 209760, Note_on_c, 0, 92, 0
2, 209760, Note_on_c, 0, 80, 0
2, 209760, Note_on_c, 0, 86, 0
2, 209760, Note_on_c, 0, 89, 0
2, 209760, Note_on_c, 0, 74, 65
2, 209760, Note_on_c, 0, 86, 65
2, 210000, Note_on_c, 0, 86, 0
2, 210000, Note_on_c, 0, 74, 0
2, 210000, Note_on_c, 0, 80, 65
2, 210000, Note_on_c, 0, 92, 65
2, 210240, Note_on_c, 0, 92, 0
2, 210240, Note_on_c, 0, 80, 0
2, 210240, Note_on_c, 0, 79, 65
2, 210240, Note_on_c, 0, 87, 65
2, 210240, Note_on_c, 0, 91, 65
2, 210720, Note_on_c, 0, 91, 0
2, 210720, Note_on_c, 0, 87, 0
2, 210720, Note_on_c, 0, 79, 0
2, 210720, Note_on_c, 0, 72, 65
2, 210720, Note_on_c, 0, 84, 65
2, 210960, Note_on_c, 0, 84, 0
2, 210960, Note_on_c, 0, 72, 0
2, 210960, Note_on_c, 0, 79, 65
2, 210960, Note_on_c, 0, 91, 65
2, 211200, Note_on_c, 0, 91, 0
2, 211200, Note_on_c, 0, 79, 0
2, 211200, Note_on_c, 0, 78, 65
2, 211200, Note_on_c, 0, 84, 65
2, 211200, Note_on_c, 0, 87, 65
2, 211200, Note_on_c, 0, 90, 65
2, 211680, Note_on_c, 0, 90, 0
2, 211680, Note_on_c, 0, 78, 0
2, 211680, Note_on_c, 0, 84, 0
2, 211680, Note_on_c, 0, 87, 0
2, 211680, Note_on_c, 0, 72, 65
2, 211680, Note_on_c, 0, 84, 65
2, 211920, Note_on_c, 0, 84, 0
2, 211920, Note_on_c, 0, 72, 0
2, 211920, Note_on_c, 0, 79, 65
2, 211920, Note_on_c, 0, 91, 65
2, 212160, Note_on_c, 0, 91, 0
2, 212160, Note_on_c, 0, 79, 0
2, 212160, Note_on_c, 0, 78, 65
2, 212160, Note_on_c, 0, 84, 65
2, 212160, Note_on_c, 0, 87, 65
2, 212160, Note_on_c, 0, 90, 65
2, 212640, Note_on_c, 0, 90, 0
2, 212640, Note_on_c, 0, 78, 0
2, 212640, Note_on_c, 0, 84, 0
2, 212640, Note_on_c, 0, 87, 0
2, 212640, Note_on_c, 0, 72, 65
2, 212640, Note_on_c, 0, 84, 65
2, 212880, Note_on_c, 0, 84, 0
2, 212880, Note_on_c, 0, 72, 0
2, 212880, Note_on_c, 0, 78, 65
2, 212880, Note_on_c, 0, 90, 65
2, 213120, Note_on_c, 0, 90, 0
2, 213120, Note_on_c, 0, 78, 0
2, 213120, Note_on_c, 0, 77, 65
2, 213120, Note_on_c, 0, 82, 65
2, 213120, Note_on_c, 0, 85, 65
2, 213120, Note_on_c, 0, 89, 65
2, 213600, Note_on_c, 0, 89, 0
2, 213600, Note_on_c, 0, 77, 0
2, 213600, Note_on_c, 0, 82, 0
2, 213600, Note_on_c, 0, 85, 0
2, 213600, Note_on_c, 0, 70, 65
2, 213600, Note_on_c, 0, 82, 65
2, 213840, Note_on_c, 0, 82, 0
2, 213840, Note_on_c, 0, 70, 0
2, 213840, Note_on_c, 0, 77, 65
2, 213840, Note_on_c, 0, 89, 65
2, 214080, Note_on_c, 0, 89, 0
2, 214080, Note_on_c, 0, 77, 0
2, 214080, Note_on_c, 0, 76, 65
2, 214080, Note_on_c, 0, 82, 65
2, 214080, Note_on_c, 0, 85, 65
2, 214080, Note_on_c, 0, 88, 65
2, 214560, Note_on_c, 0, 88, 0
2, 214560, Note_on_c, 0, 76, 0
2, 214560, Note_on_c, 0, 82, 0
2, 214560, Note_on_c, 0, 85, 0
2, 214560, Control_c, 0, 64, 127
2, 214680, Note_on_c, 0, 73, 52
2, 214800, Note_on_c, 0, 73, 0
2, 214800, Note_on_c, 0, 85, 52
2, 214920, Note_on_c, 0, 85, 0
2, 214920, Note_on_c, 0, 73, 52
2, 215040, Note_on_c, 0, 73, 0
2, 215040, Note_on_c, 0, 84, 52
2, 215160, Note_on_c, 0, 84, 0
2, 215160, Note_on_c, 0, 72, 52
2, 215280, Note_on_c, 0, 72, 0
2, 215280, Note_on_c, 0, 82, 52
2, 215400, Note_on_c, 0, 82, 0
2, 215400, Control_c, 0, 64, 0
2, 215400, Note_on_c, 0, 70, 52
2, 215520, Note_on_c, 0, 70, 0
2, 215520, Note_on_c, 0, 81, 52
2, 215640, Note_on_c, 0, 81, 0
2, 215640, Note_on_c, 0, 69, 52
2, 215760, Note_on_c, 0, 69, 0
2, 215760, Note_on_c, 0, 84, 52
2, 215880, Note_on_c, 0, 84, 0
2, 215880, Note_on_c, 0, 72, 52
2, 216000, Note_on_c, 0, 72, 0
2, 216000, Note_on_c, 0, 77, 52
2, 216120, Note_on_c, 0, 77, 0
2, 216120, Note_on_c, 0, 76, 52
2, 216240, Note_on_c, 0, 76, 0
2, 216240, Note_on_c, 0, 74, 52
2, 216360, Note_on_c, 0, 74, 0
2, 216360, Note_on_c, 0, 72, 52
2, 216480, Note_on_c, 0, 72, 0
2, 216480, Note_on_c, 0, 73, 52
2, 216600, Note_on_c, 0, 73, 0
2, 216600, Note_on_c, 0, 74, 52
2, 216720, Note_on_c, 0, 74, 0
2, 216720, Note_on_c, 0, 75, 52
2, 216840, Note_on_c, 0, 75, 0
2, 216840, Note_on_c, 0, 76, 52
2, 216960, Note_on_c, 0, 76, 0
2, 216960, Note_on_c, 0, 77, 52
2, 217080, Note_on_c, 0, 77, 0
2, 217080, Note_on_c, 0, 72, 52
2, 217200, Note_on_c, 0, 72, 0
2, 217200, Note_on_c, 0, 69, 52
2, 217320, Note_on_c, 0, 69, 0
2, 217320, Note_on_c, 0, 65, 52
2, 217440, Note_on_c, 0, 65, 0
2, 217440, Note_on_c, 0, 89, 65
2, 217560, Note_on_c, 0, 89, 0
2, 217560, Note_on_c, 0, 88, 65
2, 217680, Note_on_c, 0, 88, 0
2, 217680, Note_on_c, 0, 86, 65
2, 217800, Note_on_c, 0, 86, 0
2, 217800, Note_on_c, 0, 84, 65
2, 217920, Note_on_c, 0, 84, 0
2, 217920, Note_on_c, 0, 85, 65
2, 218040, Note_on_c, 0, 85, 0
2, 218040, Note_on_c, 0, 86, 65
2, 218160, Note_on_c, 0, 86, 0
2, 218160, Note_on_c, 0, 87, 65
2, 218280, Note_on_c, 0, 87, 0
2, 218280, Note_on_c, 0, 88, 65
2, 218400, Note_on_c, 0, 88, 0
2, 218400, Note_on_c, 0, 89, 65
2, 218520, Note_on_c, 0, 89, 0
2, 218520, Note_on_c, 0, 84, 65
2, 218640, Note_on_c, 0, 84, 0
2, 218640, Note_on_c, 0, 81, 65
2, 218760, Note_on_c, 0, 81, 0
2, 218760, Note_on_c, 0, 77, 65
2, 218880, Note_on_c, 0, 77, 0
2, 218880, Note_on_c, 0, 78, 65
2, 219000, Note_on_c, 0, 78, 0
2, 219000, Note_on_c, 0, 77, 65
2, 219120, Note_on_c, 0, 77, 0
2, 219120, Note_on_c, 0, 75, 65
2, 219240, Note_on_c, 0, 75, 0
2, 219240, Note_on_c, 0, 73, 65
2, 219360, Note_on_c, 0, 73, 0
2, 219360, Note_on_c, 0, 72, 65
2, 219480, Note_on_c, 0, 72, 0
2, 219480, Note_on_c, 0, 73, 65
2, 219600, Note_on_c, 0, 73, 0
2, 219600, Note_on_c, 0, 72, 65
2, 219720, Note_on_c, 0, 72, 0
2, 219720, Note_on_c, 0, 70, 65
2, 219840, Note_on_c, 0, 70, 0
2, 219840, Note_on_c, 0, 68, 65
2, 219960, Note_on_c, 0, 68, 0
2, 219960, Note_on_c, 0, 69, 65
2, 220080, Note_on_c, 0, 69, 0
2, 220080, Note_on_c, 0, 70, 65
2, 220200, Note_on_c, 0, 70, 0
2, 220200, Note_on_c, 0, 69, 65
2, 220320, Note_on_c, 0, 69, 0
2, 220320, Note_on_c, 0, 90, 52
2, 220440, Note_on_c, 0, 90, 0
2, 220440, Note_on_c, 0, 89, 52
2, 220560, Note_on_c, 0, 89, 0
2, 220560, Note_on_c, 0, 87, 52
2, 220680, Note_on_c, 0, 87, 0
2, 220680, Note_on_c, 0, 85, 52
2, 220800, Note_on_c, 0, 85, 0
2, 220800, Note_on_c, 0, 84, 65
2, 220920, Note_on_c, 0, 84, 0
2, 220920, Note_on_c, 0, 85, 65
2, 221040, Note_on_c, 0, 85, 0
2, 221040, Note_on_c, 0, 84, 65
2, 221160, Note_on_c, 0, 84, 0
2, 221160, Note_on_c, 0, 82, 65
2, 221280, Note_on_c, 0, 82, 0
2, 221280, Note_on_c, 0, 80, 78
2, 221400, Note_on_c, 0, 80, 0
2, 221400, Note_on_c, 0, 81, 78
2, 221520, Note_on_c, 0, 81, 0
2, 221520, Note_on_c, 0, 82, 78
2, 221640, Note_on_c, 0, 82, 0
2, 221640, Note_on_c, 0, 81, 78
2, 221760, Note_on_c, 0, 81, 0
2, 221760, Note_on_c, 0, 78, 78
2, 221783, Note_on_c, 0, 78, 0
2, 221880, Note_on_c, 0, 77, 78
2, 221903, Note_on_c, 0, 77, 0
2, 222000, Note_on_c, 0, 75, 78
2, 222023, Note_on_c, 0, 75, 0
2, 222120, Note_on_c, 0, 73, 78
2, 222143, Note_on_c, 0, 73, 0
2, 222240, Note_on_c, 0, 72, 78
2, 222263, Note_on_c, 0, 72, 0
2, 222360, Note_on_c, 0, 70, 78
2, 222383, Note_on_c, 0, 70, 0
2, 222480, Note_on_c, 0, 69, 78
2, 222503, Note_on_c, 0, 69, 0
2, 222600, Note_on_c, 0, 66, 78
2, 222623, Note_on_c, 0, 66, 0
2, 222720, Note_on_c, 0, 65, 78
2, 222743, Note_on_c, 0, 65, 0
2, 222840, Note_on_c, 0, 63, 78
2, 222863, Note_on_c, 0, 63, 0
2, 222960, Note_on_c, 0, 61, 78
2, 222983, Note_on_c, 0, 61, 0
2, 223080, Note_on_c, 0, 60, 78
2, 223103, Note_on_c, 0, 60, 0
2, 224640, Note_on_c, 0, 90, 78
2, 224663, Note_on_c, 0, 90, 0
2, 224760, Note_on_c, 0, 89, 78
2, 224783, Note_on_c, 0, 89, 0
2, 224880, Note_on_c, 0, 87, 78
2, 224903, Note_on_c, 0, 87, 0
2, 225000, Note_on_c, 0, 85, 78
2, 225023, Note_on_c, 0, 85, 0
2, 225120, Note_on_c, 0, 84, 78
2, 225143, Note_on_c, 0, 84, 0
2, 225240, Note_on_c, 0, 82, 78
2, 225263, Note_on_c, 0, 82, 0
2, 225360, Note_on_c, 0, 81, 78
2, 225383, Note_on_c, 0, 81, 0
2, 225480, Note_on_c, 0, 78, 78
2, 225503, Note_on_c, 0, 78, 0
2, 225600, Note_on_c, 0, 77, 78
2, 225623, Note_on_c, 0, 77, 0
2, 225720, Note_on_c, 0, 75, 78
2, 225743, Note_on_c, 0, 75, 0
2, 225840, Note_on_c, 0, 73, 78
2, 225863, Note_on_c, 0, 73, 0
2, 225960, Note_on_c, 0, 72, 78
2, 225983, Note_on_c, 0, 72, 0
2, 227520, Note_on_c, 0, 61, 65
2, 227520, Note_on_c, 0, 65, 65
2, 227567, Note_on_c, 0, 65, 0
2, 227567, Note_on_c, 0, 61, 0
2, 227760, Note_on_c, 0, 73, 65
2, 227760, Note_on_c, 0, 77, 65
2, 227807, Note_on_c, 0, 77, 0
2, 227807, Note_on_c, 0, 73, 0
2, 228000, Note_on_c, 0, 75, 91
2, 228000, Note_on_c, 0, 78, 91
2, 228360, Note_on_c, 0, 78, 0
2, 228360, Note_on_c, 0, 75, 0
2, 228360, Note_on_c, 0, 73, 65
2, 228360, Note_on_c, 0, 77, 65
2, 228420, Note_on_c, 0, 77, 0
2, 228420, Note_on_c, 0, 73, 0
2, 228420, Note_on_c, 0, 78, 65
2, 228480, Note_on_c, 0, 78, 0
2, 228480, Note_on_c, 0, 73, 65
2, 228480, Note_on_c, 0, 77, 65
2, 228527, Note_on_c, 0, 77, 0
2, 228527, Note_on_c, 0, 73, 0
2, 228720, Note_on_c, 0, 72, 65
2, 228720, Note_on_c, 0, 75, 65
2, 228767, Note_on_c, 0, 75, 0
2, 228767, Note_on_c, 0, 72, 0
2, 228960, Note_on_c, 0, 61, 65
2, 228960, Note_on_c, 0, 65, 65
2, 229007, Note_on_c, 0, 65, 0
2, 229007, Note_on_c, 0, 61, 0
2, 229200, Note_on_c, 0, 73, 65
2, 229200, Note_on_c, 0, 77, 65
2, 229247, Note_on_c, 0, 77, 0
2, 229247, Note_on_c, 0, 73, 0
2, 229440, Note_on_c, 0, 72, 91
2, 229440, Note_on_c, 0, 75, 91
2, 229800, Note_on_c, 0, 75, 0
2, 229800, Note_on_c, 0, 72, 0
2, 229800, Note_on_c, 0, 70, 65
2, 229800, Note_on_c, 0, 73, 65
2, 229860, Note_on_c, 0, 73, 0
2, 229860, Note_on_c, 0, 70, 0
2, 229860, Note_on_c, 0, 75, 65
2, 229920, Note_on_c, 0, 75, 0
2, 229920, Note_on_c, 0, 70, 65
2, 229920, Note_on_c, 0, 73, 65
2, 229967, Note_on_c, 0, 73, 0
2, 229967, Note_on_c, 0, 70, 0
2, 230160, Note_on_c, 0, 65, 65
2, 230160, Note_on_c, 0, 69, 65
2, 230160, Note_on_c, 0, 72, 65
2, 230207, Note_on_c, 0, 72, 0
2, 230207, Note_on_c, 0, 69, 0
2, 230207, Note_on_c, 0, 65, 0
2, 230400, Note_on_c, 0, 61, 65
2, 230400, Note_on_c, 0, 70, 65
2, 230447, Note_on_c, 0, 70, 0
2, 230447, Note_on_c, 0, 61, 0
2, 230640, Note_on_c, 0, 73, 65
2, 230640, Note_on_c, 0, 77, 65
2, 230687, Note_on_c, 0, 77, 0
2, 230687, Note_on_c, 0, 73, 0
2, 230880, Note_on_c, 0, 72, 91
2, 230880, Note_on_c, 0, 75, 91
2, 231240, Note_on_c, 0, 75, 0
2, 231240, Note_on_c, 0, 72, 0
2, 231240, Note_on_c, 0, 70, 65
2, 231240, Note_on_c, 0, 73, 65
2, 231300, Note_on_c, 0, 73, 0
2, 231300, Note_on_c, 0, 70, 0
2, 231300, Note_on_c, 0, 75, 65
2, 231360, Note_on_c, 0, 75, 0
2, 231360, Note_on_c, 0, 70, 65
2, 231360, Note_on_c, 0, 73, 65
2, 231407, Note_on_c, 0, 73, 0
2, 231407, Note_on_c, 0, 70, 0
2, 231600, Note_on_c, 0, 65, 65
2, 231600, Note_on_c, 0, 69, 65
2, 231600, Note_on_c, 0, 72, 65
2, 231647, Note_on_c, 0, 72, 0
2, 231647, Note_on_c, 0, 69, 0
2, 231647, Note_on_c, 0, 65, 0
2, 231840, Note_on_c, 0, 61, 65
2, 231840, Note_on_c, 0, 70, 65
2, 231887, Note_on_c, 0, 70, 0
2, 231887, Note_on_c, 0, 61, 0
2, 232080, Note_on_c, 0, 73, 65
2, 232080, Note_on_c, 0, 77, 65
2, 232127, Note_on_c, 0, 77, 0
2, 232127, Note_on_c, 0, 73, 0
2, 232320, Note_on_c, 0, 72, 91
2, 232320, Note_on_c, 0, 75, 91
2, 232680, Note_on_c, 0, 75, 0
2, 232680, Note_on_c, 0, 72, 0
2, 232680, Note_on_c, 0, 70, 65
2, 232680, Note_on_c, 0, 73, 65
2, 232740, Note_on_c, 0, 73, 0
2, 232740, Note_on_c, 0, 70, 0
2, 232740, Note_on_c, 0, 75, 65
2, 232800, Note_on_c, 0, 75, 0
2, 232800, Note_on_c, 0, 70, 65
2, 232800, Note_on_c, 0, 73, 65
2, 232847, Note_on_c, 0, 73, 0
2, 232847, Note_on_c, 0, 70, 0
2, 233040, Note_on_c, 0, 65, 65
2, 233040, Note_on_c, 0, 69, 65
2, 233040, Note_on_c, 0, 72, 65
2, 233087, Note_on_c, 0, 72, 0
2, 233087, Note_on_c, 0, 69, 0
2, 233087, Note_on_c, 0, 65, 0
2, 233280, Note_on_c, 0, 61, 65
2, 233280, Note_on_c, 0, 70, 65
2, 233327, Note_on_c, 0, 70, 0
2, 233327, Note_on_c, 0, 61, 0
2, 233520, Note_on_c, 0, 73, 65
2, 233520, Note_on_c, 0, 77, 65
2, 233567, Note_on_c, 0, 77, 0
2, 233567, Note_on_c, 0, 73, 0
2, 233760, Note_on_c, 0, 75, 91
2, 233760, Note_on_c, 0, 78, 91
2, 234120, Note_on_c, 0, 78, 0
2, 234120, Note_on_c, 0, 75, 0
2, 234120, Note_on_c, 0, 73, 65
2, 234120, Note_on_c, 0, 77, 65
2, 234180, Note_on_c, 0, 77, 0
2, 234180, Note_on_c, 0, 73, 0
2, 234180, Note_on_c, 0, 78, 65
2, 234240, Note_on_c, 0, 78, 0
2, 234240, Note_on_c, 0, 73, 65
2, 234240, Note_on_c, 0, 77, 65
2, 234287, Note_on_c, 0, 77, 0
2, 234287, Note_on_c, 0, 73, 0
2, 234480, Note_on_c, 0, 72, 65
2, 234480, Note_on_c, 0, 75, 65
2, 234527, Note_on_c, 0, 75, 0
2, 234527, Note_on_c, 0, 72, 0
2, 234720, Note_on_c, 0, 61, 65
2, 234720, Note_on_c, 0, 65, 65
2, 234767, Note_on_c, 0, 65, 0
2, 234767, Note_on_c, 0, 61, 0
2, 234960, Note_on_c, 0, 73, 65
2, 234960, Note_on_c, 0, 77, 65
2, 235007, Note_on_c, 0, 77, 0
2, 235007, Note_on_c, 0, 73, 0
2, 235200, Note_on_c, 0, 72, 91
2, 235200, Note_on_c, 0, 75, 91
2, 235560, Note_on_c, 0, 75, 0
2, 235560, Note_on_c, 0, 72, 0
2, 235560, Note_on_c, 0, 70, 65
2, 235560, Note_on_c, 0, 73, 65
2, 235620, Note_on_c, 0, 73, 0
2, 235620, Note_on_c, 0, 70, 0
2, 235620, Note_on_c, 0, 75, 65
2, 235680, Note_on_c, 0, 75, 0
2, 235680, Note_on_c, 0, 70, 65
2, 235680, Note_on_c, 0, 73, 65
2, 235727, Note_on_c, 0, 73, 0
2, 235727, Note_on_c, 0, 70, 0
2, 235920, Note_on_c, 0, 65, 65
2, 235920, Note_on_c, 0, 69, 65
2, 235920, Note_on_c, 0, 72, 65
2, 235967, Note_on_c, 0, 72, 0
2, 235967, Note_on_c, 0, 69, 0
2, 235967, Note_on_c, 0, 65, 0
2, 236160, Note_on_c, 0, 61, 65
2, 236160, Note_on_c, 0, 70, 65
2, 236207, Note_on_c, 0, 70, 0
2, 236207, Note_on_c, 0, 61, 0
2, 236400, Note_on_c, 0, 73, 65
2, 236400, Note_on_c, 0, 77, 65
2, 236447, Note_on_c, 0, 77, 0
2, 236447, Note_on_c, 0, 73, 0
2, 236640, Note_on_c, 0, 72, 91
2, 236640, Note_on_c, 0, 75, 91
2, 237000, Note_on_c, 0, 75, 0
2, 237000, Note_on_c, 0, 72, 0
2, 237000, Note_on_c, 0, 70, 65
2, 237000, Note_on_c, 0, 73, 65
2, 237060, Note_on_c, 0, 73, 0
2, 237060, Note_on_c, 0, 70, 0
2, 237060, Note_on_c, 0, 75, 65
2, 237120, Note_on_c, 0, 75, 0
2, 237120, Note_on_c, 0, 70, 65
2, 237120, Note_on_c, 0, 73, 65
2, 237167, Note_on_c, 0, 73, 0
2, 237167, Note_on_c, 0, 70, 0
2, 237360, Note_on_c, 0, 65, 65
2, 237360, Note_on_c, 0, 69, 65
2, 237360, Note_on_c, 0, 72, 65
2, 237407, Note_on_c, 0, 72, 0
2, 237407, Note_on_c, 0, 69, 0
2, 237407, Note_on_c, 0, 65, 0
2, 237600, Note_on_c, 0, 61, 65
2, 237600, Note_on_c, 0, 70, 65
2, 237647, Note_on_c, 0, 70, 0
2, 237647, Note_on_c, 0, 61, 0
2, 239040, Note_on_c, 0, 61, 78
2, 239040, Note_on_c, 0, 65, 78
2, 239040, Note_on_c, 0, 68, 78
2, 239087, Note_on_c, 0, 68, 0
2, 239087, Note_on_c, 0, 65, 0
2, 239087, Note_on_c, 0, 61, 0
2, 239280, Note_on_c, 0, 77, 78
2, 239280, Note_on_c, 0, 80, 78
2, 239327, Note_on_c, 0, 80, 0
2, 239327, Note_on_c, 0, 77, 0
2, 239520, Note_on_c, 0, 78, 104
2, 239520, Note_on_c, 0, 82, 104
2, 239880, Note_on_c, 0, 82, 0
2, 239880, Note_on_c, 0, 78, 0
2, 239880, Note_on_c, 0, 77, 78
2, 239880, Note_on_c, 0, 80, 78
2, 239940, Note_on_c, 0, 80, 0
2, 239940, Note_on_c, 0, 77, 0
2, 239940, Note_on_c, 0, 82, 78
2, 240000, Note_on_c, 0, 82, 0
2, 240000, Note_on_c, 0, 77, 78
2, 240000, Note_on_c, 0, 80, 78
2, 240047, Note_on_c, 0, 80, 0
2, 240047, Note_on_c, 0, 77, 0
2, 240240, Note_on_c, 0, 75, 78
2, 240240, Note_on_c, 0, 78, 78
2, 240287, Note_on_c, 0, 78, 0
2, 240287, Note_on_c, 0, 75, 0
2, 240480, Note_on_c, 0, 73, 78
2, 240480, Note_on_c, 0, 77, 78
2, 240527, Note_on_c, 0, 77, 0
2, 240527, Note_on_c, 0, 73, 0
2, 240720, Note_on_c, 0, 71, 78
2, 240720, Note_on_c, 0, 74, 78
2, 240767, Note_on_c, 0, 74, 0
2, 240767, Note_on_c, 0, 71, 0
2, 240960, Note_on_c, 0, 72, 78
2, 240960, Note_on_c, 0, 75, 78
2, 241007, Note_on_c, 0, 75, 0
2, 241007, Note_on_c, 0, 72, 0
2, 241200, Note_on_c, 0, 68, 78
2, 241200, Note_on_c, 0, 72, 78
2, 241247, Note_on_c, 0, 72, 0
2, 241247, Note_on_c, 0, 68, 0
2, 241440, Note_on_c, 0, 70, 78
2, 241440, Note_on_c, 0, 73, 78
2, 241487, Note_on_c, 0, 73, 0
2, 241487, Note_on_c, 0, 70, 0
2, 241680, Note_on_c, 0, 72, 78
2, 241680, Note_on_c, 0, 75, 78
2, 241727, Note_on_c, 0, 75, 0
2, 241727, Note_on_c, 0, 72, 0
2, 241920, Note_on_c, 0, 65, 78
2, 241920, Note_on_c, 0, 68, 78
2, 241967, Note_on_c, 0, 68, 0
2, 241967, Note_on_c, 0, 65, 0
2, 242160, Note_on_c, 0, 77, 78
2, 242160, Note_on_c, 0, 80, 78
2, 242207, Note_on_c, 0, 80, 0
2, 242207, Note_on_c, 0, 77, 0
2, 242400, Note_on_c, 0, 78, 104
2, 242400, Note_on_c, 0, 82, 104
2, 242760, Note_on_c, 0, 82, 0
2, 242760, Note_on_c, 0, 78, 0
2, 242760, Note_on_c, 0, 77, 78
2, 242760, Note_on_c, 0, 80, 78
2, 242820, Note_on_c, 0, 80, 0
2, 242820, Note_on_c, 0, 77, 0
2, 242820, Note_on_c, 0, 82, 78
2, 242880, Note_on_c, 0, 82, 0
2, 242880, Note_on_c, 0, 77, 78
2, 242880, Note_on_c, 0, 80, 78
2, 242927, Note_on_c, 0, 80, 0
2, 242927, Note_on_c, 0, 77, 0
2, 243120, Note_on_c, 0, 75, 78
2, 243120, Note_on_c, 0, 78, 78
2, 243167, Note_on_c, 0, 78, 0
2, 243167, Note_on_c, 0, 75, 0
2, 243360, Note_on_c, 0, 73, 78
2, 243360, Note_on_c, 0, 77, 78
2, 243407, Note_on_c, 0, 77, 0
2, 243407, Note_on_c, 0, 73, 0
2, 243600, Note_on_c, 0, 71, 78
2, 243600, Note_on_c, 0, 74, 78
2, 243647, Note_on_c, 0, 74, 0
2, 243647, Note_on_c, 0, 71, 0
2, 243840, Note_on_c, 0, 72, 78
2, 243840, Note_on_c, 0, 75, 78
2, 243887, Note_on_c, 0, 75, 0
2, 243887, Note_on_c, 0, 72, 0
2, 244080, Note_on_c, 0, 68, 78
2, 244080, Note_on_c, 0, 72, 78
2, 244127, Note_on_c, 0, 72, 0
2, 244127, Note_on_c, 0, 68, 0
2, 244320, Note_on_c, 0, 70, 78
2, 244320, Note_on_c, 0, 73, 78
2, 244367, Note_on_c, 0, 73, 0
2, 244367, Note_on_c, 0, 70, 0
2, 244560, Note_on_c, 0, 72, 78
2, 244560, Note_on_c, 0, 75, 78
2, 244607, Note_on_c, 0, 75, 0
2, 244607, Note_on_c, 0, 72, 0
2, 244800, Note_on_c, 0, 73, 78
2, 244800, Note_on_c, 0, 77, 78
2, 244847, Note_on_c, 0, 77, 0
2, 244847, Note_on_c, 0, 73, 0
2, 245040, Note_on_c, 0, 75, 78
2, 245040, Note_on_c, 0, 78, 78
2, 245087, Note_on_c, 0, 78, 0
2, 245087, Note_on_c, 0, 75, 0
2, 245280, Note_on_c, 0, 77, 78
2, 245280, Note_on_c, 0, 80, 78
2, 245327, Note_on_c, 0, 80, 0
2, 245327, Note_on_c, 0, 77, 0
2, 245520, Note_on_c, 0, 75, 78
2, 245520, Note_on_c, 0, 78, 78
2, 245567, Note_on_c, 0, 78, 0
2, 245567, Note_on_c, 0, 75, 0
2, 245760, Note_on_c, 0, 73, 78
2, 245760, Note_on_c, 0, 77, 78
2, 245807, Note_on_c, 0, 77, 0
2, 245807, Note_on_c, 0, 73, 0
2, 246000, Note_on_c, 0, 75, 78
2, 246000, Note_on_c, 0, 78, 78
2, 246047, Note_on_c, 0, 78, 0
2, 246047, Note_on_c, 0, 75, 0
2, 246240, Note_on_c, 0, 77, 78
2, 246240, Note_on_c, 0, 80, 78
2, 246287, Note_on_c, 0, 80, 0
2, 246287, Note_on_c, 0, 77, 0
2, 246480, Note_on_c, 0, 75, 78
2, 246480, Note_on_c, 0, 78, 78
2, 246527, Note_on_c, 0, 78, 0
2, 246527, Note_on_c, 0, 75, 0
2, 246720, Note_on_c, 0, 73, 78
2, 246720, Note_on_c, 0, 77, 78
2, 246767, Note_on_c, 0, 77, 0
2, 246767, Note_on_c, 0, 73, 0
2, 246960, Note_on_c, 0, 73, 78
2, 246960, Note_on_c, 0, 77, 78
2, 247007, Note_on_c, 0, 77, 0
2, 247007, Note_on_c, 0, 73, 0
2, 247200, Note_on_c, 0, 73, 78
2, 247200, Note_on_c, 0, 77, 78
2, 247247, Note_on_c, 0, 77, 0
2, 247247, Note_on_c, 0, 73, 0
2, 247440, Note_on_c, 0, 73, 78
2, 247440, Note_on_c, 0, 77, 78
2, 247487, Note_on_c, 0, 77, 0
2, 247487, Note_on_c, 0, 73, 0
2, 250800, Note_on_c, 0, 77, 78
2, 250800, Note_on_c, 0, 85, 78
2, 250800, Note_on_c, 0, 89, 78
2, 250847, Note_on_c, 0, 89, 0
2, 250847, Note_on_c, 0, 85, 0
2, 250847, Note_on_c, 0, 77, 0
2, 251040, Note_on_c, 0, 78, 104
2, 251040, Note_on_c, 0, 87, 104
2, 251040, Note_on_c, 0, 90, 104
2, 251400, Note_on_c, 0, 90, 0
2, 251400, Note_on_c, 0, 87, 0
2, 251400, Note_on_c, 0, 78, 0
2, 251400, Note_on_c, 0, 85, 78
2, 251400, Note_on_c, 0, 89, 78
2, 251460, Note_on_c, 0, 89, 0
2, 251460, Note_on_c, 0, 85, 0
2, 251460, Note_on_c, 0, 77, 78
2, 251520, Note_on_c, 0, 77, 0
2, 251520, Note_on_c, 0, 85, 78
2, 251520, Note_on_c, 0, 89, 78
2, 251567, Note_on_c, 0, 89, 0
2, 251567, Note_on_c, 0, 85, 0
2, 251760, Note_on_c, 0, 75, 78
2, 251760, Note_on_c, 0, 84, 78
2, 251760, Note_on_c, 0, 87, 78
2, 251807, Note_on_c, 0, 87, 0
2, 251807, Note_on_c, 0, 84, 0
2, 251807, Note_on_c, 0, 75, 0
2, 252240, Note_on_c, 0, 77, 78
2, 252240, Note_on_c, 0, 85, 78
2, 252240, Note_on_c, 0, 89, 78
2, 252287, Note_on_c, 0, 89, 0
2, 252287, Note_on_c, 0, 85, 0
2, 252287, Note_on_c, 0, 77, 0
2, 252480, Note_on_c, 0, 75, 104
2, 252480, Note_on_c, 0, 84, 104
2, 252480, Note_on_c, 0, 87, 104
2, 252840, Note_on_c, 0, 87, 0
2, 252840, Note_on_c, 0, 84, 0
2, 252840, Note_on_c, 0, 75, 0
2, 252840, Note_on_c, 0, 82, 78
2, 252840, Note_on_c, 0, 85, 78
2, 252900, Note_on_c, 0, 85, 0
2, 252900, Note_on_c, 0, 82, 0
2, 252900, Note_on_c, 0, 73, 78
2, 252960, Note_on_c, 0, 73, 0
2, 252960, Note_on_c, 0, 82, 78
2, 252960, Note_on_c, 0, 85, 78
2, 253007, Note_on_c, 0, 85, 0
2, 253007, Note_on_c, 0, 82, 0
2, 253200, Note_on_c, 0, 72, 78
2, 253200, Note_on_c, 0, 77, 78
2, 253200, Note_on_c, 0, 81, 78
2, 253200, Note_on_c, 0, 84, 78
2, 253247, Note_on_c, 0, 84, 0
2, 253247, Note_on_c, 0, 72, 0
2, 253247, Note_on_c, 0, 77, 0
2, 253247, Note_on_c, 0, 81, 0
2, 253680, Note_on_c, 0, 77, 78
2, 253680, Note_on_c, 0, 85, 78
2, 253680, Note_on_c, 0, 89, 78
2, 253727, Note_on_c, 0, 89, 0
2, 253727, Note_on_c, 0, 85, 0
2, 253727, Note_on_c, 0, 77, 0
2, 253920, Note_on_c, 0, 75, 104
2, 253920, Note_on_c, 0, 84, 104
2, 253920, Note_on_c, 0, 87, 104
2, 254280, Note_on_c, 0, 87, 0
2, 254280, Note_on_c, 0, 84, 0
2, 254280, Note_on_c, 0, 75, 0
2, 254280, Note_on_c, 0, 82, 78
2, 254280, Note_on_c, 0, 85, 78
2, 254340, Note_on_c, 0, 85, 0
2, 254340, Note_on_c, 0, 82, 0
2, 254340, Note_on_c, 0, 73, 78
2, 254400, Note_on_c, 0, 73, 0
2, 254400, Note_on_c, 0, 82, 78
2, 254400, Note_on_c, 0, 85, 78
2, 254447, Note_on_c, 0, 85, 0
2, 254447, Note_on_c, 0, 82, 0
2, 254640, Note_on_c, 0, 72, 78
2, 254640, Note_on_c, 0, 77, 78
2, 254640, Note_on_c, 0, 81, 78
2, 254640, Note_on_c, 0, 84, 78
2, 254687, Note_on_c, 0, 84, 0
2, 254687, Note_on_c, 0, 72, 0
2, 254687, Note_on_c, 0, 77, 0
2, 254687, Note_on_c, 0, 81, 0
2, 255120, Note_on_c, 0, 77, 78
2, 255120, Note_on_c, 0, 85, 78
2, 255120, Note_on_c, 0, 89, 78
2, 255167, Note_on_c, 0, 89, 0
2, 255167, Note_on_c, 0, 85, 0
2, 255167, Note_on_c, 0, 77, 0
2, 255360, Note_on_c, 0, 75, 104
2, 255360, Note_on_c, 0, 84, 104
2, 255360, Note_on_c, 0, 87, 104
2, 255720, Note_on_c, 0, 87, 0
2, 255720, Note_on_c, 0, 84, 0
2, 255720, Note_on_c, 0, 75, 0
2, 255720, Note_on_c, 0, 82, 78
2, 255720, Note_on_c, 0, 85, 78
2, 255780, Note_on_c, 0, 85, 0
2, 255780, Note_on_c, 0, 82, 0
2, 255780, Note_on_c, 0, 73, 78
2, 255840, Note_on_c, 0, 73, 0
2, 255840, Note_on_c, 0, 82, 78
2, 255840, Note_on_c, 0, 85, 78
2, 255887, Note_on_c, 0, 85, 0
2, 255887, Note_on_c, 0, 82, 0
2, 256080, Note_on_c, 0, 72, 78
2, 256080, Note_on_c, 0, 77, 78
2, 256080, Note_on_c, 0, 81, 78
2, 256080, Note_on_c, 0, 84, 78
2, 256127, Note_on_c, 0, 84, 0
2, 256127, Note_on_c, 0, 72, 0
2, 256127, Note_on_c, 0, 77, 0
2, 256127, Note_on_c, 0, 81, 0
2, 256560, Note_on_c, 0, 77, 78
2, 256560, Note_on_c, 0, 85, 78
2, 256560, Note_on_c, 0, 89, 78
2, 256607, Note_on_c, 0, 89, 0
2, 256607, Note_on_c, 0, 85, 0
2, 256607, Note_on_c, 0, 77, 0
2, 256800, Note_on_c, 0, 78, 104
2, 256800, Note_on_c, 0, 87, 104
2, 256800, Note_on_c, 0, 90, 104
2, 257160, Note_on_c, 0, 90, 0
2, 257160, Note_on_c, 0, 87, 0
2, 257160, Note_on_c, 0, 78, 0
2, 257160, Note_on_c, 0, 85, 78
2, 257160, Note_on_c, 0, 89, 78
2, 257220, Note_on_c, 0, 89, 0
2, 257220, Note_on_c, 0, 85, 0
2, 257220, Note_on_c, 0, 77, 78
2, 257280, Note_on_c, 0, 77, 0
2, 257280, Note_on_c, 0, 85, 78
2, 257280, Note_on_c, 0, 89, 78
2, 257327, Note_on_c, 0, 89, 0
2, 257327, Note_on_c, 0, 85, 0
2, 257520, Note_on_c, 0, 75, 78
2, 257520, Note_on_c, 0, 84, 78
2, 257520, Note_on_c, 0, 87, 78
2, 257567, Note_on_c, 0, 87, 0
2, 257567, Note_on_c, 0, 84, 0
2, 257567, Note_on_c, 0, 75, 0
2, 258000, Note_on_c, 0, 77, 78
2, 258000, Note_on_c, 0, 85, 78
2, 258000, Note_on_c, 0, 89, 78
2, 258047, Note_on_c, 0, 89, 0
2, 258047, Note_on_c, 0, 85, 0
2, 258047, Note_on_c, 0, 77, 0
2, 258240, Note_on_c, 0, 75, 104
2, 258240, Note_on_c, 0, 84, 104
2, 258240, Note_on_c, 0, 87, 104
2, 258600, Note_on_c, 0, 87, 0
2, 258600, Note_on_c, 0, 84, 0
2, 258600, Note_on_c, 0, 75, 0
2, 258600, Note_on_c, 0, 82, 78
2, 258600, Note_on_c, 0, 85, 78
2, 258660, Note_on_c, 0, 85, 0
2, 258660, Note_on_c, 0, 82, 0
2, 258660, Note_on_c, 0, 73, 78
2, 258720, Note_on_c, 0, 73, 0
2, 258720, Note_on_c, 0, 82, 78
2, 258720, Note_on_c, 0, 85, 78
2, 258767, Note_on_c, 0, 85, 0
2, 258767, Note_on_c, 0, 82, 0
2, 258960, Note_on_c, 0, 72, 78
2, 258960, Note_on_c, 0, 77, 78
2, 258960, Note_on_c, 0, 81, 78
2, 258960, Note_on_c, 0, 84, 78
2, 259007, Note_on_c, 0, 84, 0
2, 259007, Note_on_c, 0, 72, 0
2, 259007, Note_on_c, 0, 77, 0
2, 259007, Note_on_c, 0, 81, 0
2, 259440, Note_on_c, 0, 77, 78
2, 259440, Note_on_c, 0, 85, 78
2, 259440, Note_on_c, 0, 89, 78
2, 259487, Note_on_c, 0, 89, 0
2, 259487, Note_on_c, 0, 85, 0
2, 259487, Note_on_c, 0, 77, 0
2, 259680, Note_on_c, 0, 75, 104
2, 259680, Note_on_c, 0, 84, 104
2, 259680, Note_on_c, 0, 87, 104
2, 260040, Note_on_c, 0, 87, 0
2, 260040, Note_on_c, 0, 84, 0
2, 260040, Note_on_c, 0, 75, 0
2, 260040, Note_on_c, 0, 82, 78
2, 260040, Note_on_c, 0, 85, 78
2, 260100, Note_on_c, 0, 85, 0
2, 260100, Note_on_c, 0, 82, 0
2, 260100, Note_on_c, 0, 73, 78
2, 260160, Note_on_c, 0, 73, 0
2, 260160, Note_on_c, 0, 82, 78
2, 260160, Note_on_c, 0, 85, 78
2, 260207, Note_on_c, 0, 85, 0
2, 260207, Note_on_c, 0, 82, 0
2, 260400, Note_on_c, 0, 72, 78
2, 260400, Note_on_c, 0, 77, 78
2, 260400, Note_on_c, 0, 81, 78
2, 260400, Note_on_c, 0, 84, 78
2, 260447, Note_on_c, 0, 84, 0
2, 260447, Note_on_c, 0, 72, 0
2, 260447, Note_on_c, 0, 77, 0
2, 260447, Note_on_c, 0, 81, 0
2, 260880, Note_on_c, 0, 73, 78
2, 260880, Note_on_c, 0, 77, 78
2, 260880, Note_on_c, 0, 82, 78
2, 260880, Note_on_c, 0, 85, 78
2, 260927, Note_on_c, 0, 85, 0
2, 260927, Note_on_c, 0, 73, 0
2, 260927, Note_on_c, 0, 77, 0
2, 260927, Note_on_c, 0, 82, 0
2, 261120, Note_on_c, 0, 72, 104
2, 261120, Note_on_c, 0, 77, 104
2, 261120, Note_on_c, 0, 84, 104
2, 261480, Note_on_c, 0, 84, 0
2, 261480, Note_on_c, 0, 77, 0
2, 261480, Note_on_c, 0, 72, 0
2, 261480, Note_on_c, 0, 77, 78
2, 261480, Note_on_c, 0, 82, 78
2, 261540, Note_on_c, 0, 82, 0
2, 261540, Note_on_c, 0, 77, 0
2, 261540, Note_on_c, 0, 70, 78
2, 261600, Note_on_c, 0, 70, 0
2, 261600, Note_on_c, 0, 77, 78
2, 261600, Note_on_c, 0, 82, 78
2, 261647, Note_on_c, 0, 82, 0
2, 261647, Note_on_c, 0, 77, 0
2, 261840, Note_on_c, 0, 69, 78
2, 261840, Note_on_c, 0, 77, 78
2, 261840, Note_on_c, 0, 81, 78
2, 261887, Note_on_c, 0, 81, 0
2, 261887, Note_on_c, 0, 77, 0
2, 261887, Note_on_c, 0, 69, 0
2, 262080, Note_on_c, 0, 70, 78
2, 262080, Note_on_c, 0, 77, 78
2, 262080, Note_on_c, 0, 82, 78
2, 262200, Note_on_c, 0, 82, 0
2, 262200, Note_on_c, 0, 77, 0
2, 262200, Note_on_c, 0, 70, 0
2, 262200, Note_on_c, 0, 73, 65
2, 262320, Note_on_c, 0, 73, 0
2, 262320, Note_on_c, 0, 74, 65
2, 262440, Note_on_c, 0, 74, 0
2, 262440, Note_on_c, 0, 75, 65
2, 262560, Note_on_c, 0, 75, 0
2, 262560, Note_on_c, 0, 77, 65
2, 262680, Note_on_c, 0, 77, 0
2, 262680, Note_on_c, 0, 75, 65
2, 262800, Note_on_c, 0, 75, 0
2, 262800, Note_on_c, 0, 77, 65
2, 262920, Note_on_c, 0, 77, 0
2, 262920, Note_on_c, 0, 78, 65
2, 263040, Note_on_c, 0, 78, 0
2, 263040, Note_on_c, 0, 80, 65
2, 263160, Note_on_c, 0, 80, 0
2, 263160, Note_on_c, 0, 82, 65
2, 263280, Note_on_c, 0, 82, 0
2, 263280, Note_on_c, 0, 84, 65
2, 263400, Note_on_c, 0, 84, 0
2, 263400, Note_on_c, 0, 86, 65
2, 263520, Note_on_c, 0, 86, 0
2, 263520, Note_on_c, 0, 87, 65
2, 263640, Note_on_c, 0, 87, 0
2, 263640, Note_on_c, 0, 82, 65
2, 263760, Note_on_c, 0, 82, 0
2, 263760, Note_on_c, 0, 84, 65
2, 263880, Note_on_c, 0, 84, 0
2, 263880, Note_on_c, 0, 86, 65
2, 264000, Note_on_c, 0, 86, 0
2, 264000, Note_on_c, 0, 87, 65
2, 264120, Note_on_c, 0, 87, 0
2, 264120, Note_on_c, 0, 86, 65
2, 264240, Note_on_c, 0, 86, 0
2, 264240, Note_on_c, 0, 87, 65
2, 264360, Note_on_c, 0, 87, 0
2, 264360, Note_on_c, 0, 89, 65
2, 264480, Note_on_c, 0, 89, 0
2, 264480, Note_on_c, 0, 90, 65
2, 264600, Note_on_c, 0, 90, 0
2, 264600, Note_on_c, 0, 89, 65
2, 264720, Note_on_c, 0, 89, 0
2, 264720, Note_on_c, 0, 87, 65
2, 264840, Note_on_c, 0, 87, 0
2, 264840, Note_on_c, 0, 89, 65
2, 264960, Note_on_c, 0, 89, 0
2, 264960, Note_on_c, 0, 90, 65
2, 265080, Note_on_c, 0, 90, 0
2, 265080, Note_on_c, 0, 92, 65
2, 265200, Note_on_c, 0, 92, 0
2, 265200, Note_on_c, 0, 90, 65
2, 265320, Note_on_c, 0, 90, 0
2, 265320, Note_on_c, 0, 92, 65
2, 265440, Note_on_c, 0, 92, 0
2, 265440, Note_on_c, 0, 94, 65
2, 265560, Note_on_c, 0, 94, 0
2, 265560, Note_on_c, 0, 92, 65
2, 265680, Note_on_c, 0, 92, 0
2, 265680, Note_on_c, 0, 94, 65
2, 265800, Note_on_c, 0, 94, 0
2, 265800, Note_on_c, 0, 95, 65
2, 265920, Note_on_c, 0, 95, 0
2, 265920, Note_on_c, 0, 92, 65
2, 266040, Note_on_c, 0, 92, 0
2, 266040, Note_on_c, 0, 97, 65
2, 266160, Note_on_c, 0, 97, 0
2, 266160, Note_on_c, 0, 99, 65
2, 266280, Note_on_c, 0, 99, 0
2, 266280, Note_on_c, 0, 101, 65
2, 266400, Note_on_c, 0, 101, 0
2, 266400, Note_on_c, 0, 102, 65
2, 266520, Note_on_c, 0, 102, 0
2, 266520, Note_on_c, 0, 97, 65
2, 266640, Note_on_c, 0, 97, 0
2, 266640, Note_on_c, 0, 99, 65
2, 266760, Note_on_c, 0, 99, 0
2, 266760, Note_on_c, 0, 101, 65
2, 266880, Note_on_c, 0, 101, 0
2, 266880, Note_on_c, 0, 102, 65
2, 267000, Note_on_c, 0, 102, 0
2, 267000, Note_on_c, 0, 94, 65
2, 267120, Note_on_c, 0, 94, 0
2, 267120, Note_on_c, 0, 95, 65
2, 267240, Note_on_c, 0, 95, 0
2, 267240, Note_on_c, 0, 96, 65
2, 267360, Note_on_c, 0, 96, 0
2, 267360, Note_on_c, 0, 97, 65
2, 267480, Note_on_c, 0, 97, 0
2, 267480, Note_on_c, 0, 90, 65
2, 267600, Note_on_c, 0, 90, 0
2, 267600, Note_on_c, 0, 92, 65
2, 267720, Note_on_c, 0, 92, 0
2, 267720, Note_on_c, 0, 93, 65
2, 267840, Note_on_c, 0, 93, 0
2, 267840, Note_on_c, 0, 94, 65
2, 267960, Note_on_c, 0, 94, 0
2, 267960, Note_on_c, 0, 85, 65
2, 268080, Note_on_c, 0, 85, 0
2, 268080, Note_on_c, 0, 87, 65
2, 268200, Note_on_c, 0, 87, 0
2, 268200, Note_on_c, 0, 89, 65
2, 268320, Note_on_c, 0, 89, 0
2, 268320, Note_on_c, 0, 90, 65
2, 268440, Note_on_c, 0, 90, 0
2, 268440, Note_on_c, 0, 82, 65
2, 268560, Note_on_c, 0, 82, 0
2, 268560, Note_on_c, 0, 83, 65
2, 268680, Note_on_c, 0, 83, 0
2, 268680, Note_on_c, 0, 84, 65
2, 268800, Note_on_c, 0, 84, 0
2, 268800, Note_on_c, 0, 85, 65
2, 268920, Note_on_c, 0, 85, 0
2, 268920, Note_on_c, 0, 87, 65
2, 269040, Note_on_c, 0, 87, 0
2, 269040, Note_on_c, 0, 89, 65
2, 269160, Note_on_c, 0, 89, 0
2, 269160, Note_on_c, 0, 90, 65
2, 269280, Note_on_c, 0, 90, 0
2, 269280, Note_on_c, 0, 91, 65
2, 269400, Note_on_c, 0, 91, 0
2, 269400, Note_on_c, 0, 90, 65
2, 269520, Note_on_c, 0, 90, 0
2, 269520, Note_on_c, 0, 88, 65
2, 269640, Note_on_c, 0, 88, 0
2, 269640, Note_on_c, 0, 83, 65
2, 269760, Note_on_c, 0, 83, 0
2, 269760, Note_on_c, 0, 88, 65
2, 269880, Note_on_c, 0, 88, 0
2, 269880, Note_on_c, 0, 85, 65
2, 270000, Note_on_c, 0, 85, 0
2, 270000, Note_on_c, 0, 83, 65
2, 270120, Note_on_c, 0, 83, 0
2, 270120, Note_on_c, 0, 79, 65
2, 270240, Note_on_c, 0, 79, 0
2, 270240, Note_on_c, 0, 86, 65
2, 270360, Note_on_c, 0, 86, 0
2, 270360, Note_on_c, 0, 83, 65
2, 270480, Note_on_c, 0, 83, 0
2, 270480, Note_on_c, 0, 80, 65
2, 270600, Note_on_c, 0, 80, 0
2, 270600, Note_on_c, 0, 85, 65
2, 270720, Note_on_c, 0, 85, 0
2, 270720, Note_on_c, 0, 78, 65
2, 270840, Note_on_c, 0, 78, 0
2, 270840, Note_on_c, 0, 75, 65
2, 270960, Note_on_c, 0, 75, 0
2, 270960, Note_on_c, 0, 73, 65
2, 271080, Note_on_c, 0, 73, 0
2, 271080, Note_on_c, 0, 71, 65
2, 271200, Note_on_c, 0, 71, 0
2, 271200, Note_on_c, 0, 70, 65
2, 271320, Note_on_c, 0, 70, 0
2, 271320, Note_on_c, 0, 68, 65
2, 271440, Note_on_c, 0, 68, 0
2, 271440, Note_on_c, 0, 70, 65
2, 271560, Note_on_c, 0, 70, 0
2, 271560, Note_on_c, 0, 71, 65
2, 271680, Note_on_c, 0, 71, 0
2, 271680, Note_on_c, 0, 73, 65
2, 271800, Note_on_c, 0, 73, 0
2, 271800, Note_on_c, 0, 75, 65
2, 271920, Note_on_c, 0, 75, 0
2, 271920, Note_on_c, 0, 77, 65
2, 272040, Note_on_c, 0, 77, 0
2, 272040, Note_on_c, 0, 78, 65
2, 272160, Note_on_c, 0, 78, 0
2, 272160, Note_on_c, 0, 79, 65
2, 272280, Note_on_c, 0, 79, 0
2, 272280, Note_on_c, 0, 78, 65
2, 272400, Note_on_c, 0, 78, 0
2, 272400, Note_on_c, 0, 76, 65
2, 272520, Note_on_c, 0, 76, 0
2, 272520, Note_on_c, 0, 71, 65
2, 272640, Note_on_c, 0, 71, 0
2, 272640, Note_on_c, 0, 76, 65
2, 272760, Note_on_c, 0, 76, 0
2, 272760, Note_on_c, 0, 73, 65
2, 272880, Note_on_c, 0, 73, 0
2, 272880, Note_on_c, 0, 71, 65
2, 273000, Note_on_c, 0, 71, 0
2, 273000, Note_on_c, 0, 67, 65
2, 273120, Note_on_c, 0, 67, 0
2, 273120, Note_on_c, 0, 74, 65
2, 273240, Note_on_c, 0, 74, 0
2, 273240, Note_on_c, 0, 71, 65
2, 273360, Note_on_c, 0, 71, 0
2, 273360, Note_on_c, 0, 68, 65
2, 273480, Note_on_c, 0, 68, 0
2, 273480, Note_on_c, 0, 73, 65
2, 273600, Note_on_c, 0, 73, 0
2, 273600, Note_on_c, 0, 66, 65
2, 273720, Note_on_c, 0, 66, 0
2, 273720, Note_on_c, 0, 68, 65
2, 273840, Note_on_c, 0, 68, 0
2, 273840, Note_on_c, 0, 70, 65
2, 273960, Note_on_c, 0, 70, 0
2, 273960, Note_on_c, 0, 71, 65
2, 274080, Note_on_c, 0, 71, 0
2, 274080, Note_on_c, 0, 73, 65
2, 274200, Note_on_c, 0, 73, 0
2, 274200, Note_on_c, 0, 71, 65
2, 274320, Note_on_c, 0, 71, 0
2, 274320, Note_on_c, 0, 70, 65
2, 274440, Note_on_c, 0, 70, 0
2, 274440, Note_on_c, 0, 68, 65
2, 274560, Note_on_c, 0, 68, 0
2, 274560, Note_on_c, 0, 66, 65
2, 274680, Note_on_c, 0, 66, 0
2, 274680, Note_on_c, 0, 65, 65
2, 274800, Note_on_c, 0, 65, 0
2, 274800, Note_on_c, 0, 63, 65
2, 274920, Note_on_c, 0, 63, 0
2, 274920, Note_on_c, 0, 61, 65
2, 275040, Note_on_c, 0, 61, 0
2, 275040, Note_on_c, 0, 62, 65
2, 275160, Note_on_c, 0, 62, 0
2, 275160, Note_on_c, 0, 67, 65
2, 275280, Note_on_c, 0, 67, 0
2, 275280, Note_on_c, 0, 69, 65
2, 275400, Note_on_c, 0, 69, 0
2, 275400, Note_on_c, 0, 71, 65
2, 275520, Note_on_c, 0, 71, 0
2, 275520, Note_on_c, 0, 72, 65
2, 275640, Note_on_c, 0, 72, 0
2, 275640, Note_on_c, 0, 69, 65
2, 275760, Note_on_c, 0, 69, 0
2, 275760, Note_on_c, 0, 71, 65
2, 275880, Note_on_c, 0, 71, 0
2, 275880, Note_on_c, 0, 74, 65
2, 276000, Note_on_c, 0, 74, 0
2, 276000, Note_on_c, 0, 72, 78
2, 276120, Note_on_c, 0, 72, 0
2, 276120, Note_on_c, 0, 74, 78
2, 276240, Note_on_c, 0, 74, 0
2, 276240, Note_on_c, 0, 76, 78
2, 276360, Note_on_c, 0, 76, 0
2, 276360, Note_on_c, 0, 79, 78
2, 276480, Note_on_c, 0, 79, 0
2, 276480, Note_on_c, 0, 81, 78
2, 276600, Note_on_c, 0, 81, 0
2, 276600, Note_on_c, 0, 76, 78
2, 276720, Note_on_c, 0, 76, 0
2, 276720, Note_on_c, 0, 73, 78
2, 276840, Note_on_c, 0, 73, 0
2, 276840, Note_on_c, 0, 69, 78
2, 276960, Note_on_c, 0, 69, 0
2, 276960, Note_on_c, 0, 71, 78
2, 277080, Note_on_c, 0, 71, 0
2, 277080, Note_on_c, 0, 74, 78
2, 277200, Note_on_c, 0, 74, 0
2, 277200, Note_on_c, 0, 73, 78
2, 277320, Note_on_c, 0, 73, 0
2, 277320, Note_on_c, 0, 76, 78
2, 277440, Note_on_c, 0, 76, 0
2, 277440, Note_on_c, 0, 74, 78
2, 277560, Note_on_c, 0, 74, 0
2, 277560, Note_on_c, 0, 76, 78
2, 277680, Note_on_c, 0, 76, 0
2, 277680, Note_on_c, 0, 78, 78
2, 277800, Note_on_c, 0, 78, 0
2, 277800, Note_on_c, 0, 81, 78
2, 277920, Note_on_c, 0, 81, 0
2, 277920, Note_on_c, 0, 83, 78
2, 278040, Note_on_c, 0, 83, 0
2, 278040, Note_on_c, 0, 78, 78
2, 278160, Note_on_c, 0, 78, 0
2, 278160, Note_on_c, 0, 75, 78
2, 278280, Note_on_c, 0, 75, 0
2, 278280, Note_on_c, 0, 71, 78
2, 278400, Note_on_c, 0, 71, 0
2, 278400, Note_on_c, 0, 73, 78
2, 278520, Note_on_c, 0, 73, 0
2, 278520, Note_on_c, 0, 76, 78
2, 278640, Note_on_c, 0, 76, 0
2, 278640, Note_on_c, 0, 75, 78
2, 278760, Note_on_c, 0, 75, 0
2, 278760, Note_on_c, 0, 78, 78
2, 278880, Note_on_c, 0, 78, 0
2, 278880, Note_on_c, 0, 76, 78
2, 279000, Note_on_c, 0, 76, 0
2, 279000, Note_on_c, 0, 78, 78
2, 279120, Note_on_c, 0, 78, 0
2, 279120, Note_on_c, 0, 79, 78
2, 279240, Note_on_c, 0, 79, 0
2, 279240, Note_on_c, 0, 83, 78
2, 279360, Note_on_c, 0, 83, 0
2, 279360, Note_on_c, 0, 84, 65
2, 279480, Note_on_c, 0, 84, 0
2, 279480, Note_on_c, 0, 75, 65
2, 279600, Note_on_c, 0, 75, 0
2, 279600, Note_on_c, 0, 76, 65
2, 279720, Note_on_c, 0, 76, 0
2, 279720, Note_on_c, 0, 77, 65
2, 279840, Note_on_c, 0, 77, 0
2, 279840, Note_on_c, 0, 79, 65
2, 279960, Note_on_c, 0, 79, 0
2, 279960, Note_on_c, 0, 77, 65
2, 280080, Note_on_c, 0, 77, 0
2, 280080, Note_on_c, 0, 79, 65
2, 280200, Note_on_c, 0, 79, 0
2, 280200, Note_on_c, 0, 80, 65
2, 280320, Note_on_c, 0, 80, 0
2, 280320, Note_on_c, 0, 82, 65
2, 280440, Note_on_c, 0, 82, 0
2, 280440, Note_on_c, 0, 84, 65
2, 280560, Note_on_c, 0, 84, 0
2, 280560, Note_on_c, 0, 86, 65
2, 280680, Note_on_c, 0, 86, 0
2, 280680, Note_on_c, 0, 88, 65
2, 280800, Note_on_c, 0, 88, 0
2, 280800, Note_on_c, 0, 89, 65
2, 280920, Note_on_c, 0, 89, 0
2, 280920, Note_on_c, 0, 84, 65
2, 281040, Note_on_c, 0, 84, 0
2, 281040, Note_on_c, 0, 86, 65
2, 281160, Note_on_c, 0, 86, 0
2, 281160, Note_on_c, 0, 88, 65
2, 281280, Note_on_c, 0, 88, 0
2, 281280, Note_on_c, 0, 89, 65
2, 281400, Note_on_c, 0, 89, 0
2, 281400, Note_on_c, 0, 88, 65
2, 281520, Note_on_c, 0, 88, 0
2, 281520, Note_on_c, 0, 89, 65
2, 281640, Note_on_c, 0, 89, 0
2, 281640, Note_on_c, 0, 91, 65
2, 281760, Note_on_c, 0, 91, 0
2, 281760, Note_on_c, 0, 92, 65
2, 281880, Note_on_c, 0, 92, 0
2, 281880, Note_on_c, 0, 91, 65
2, 282000, Note_on_c, 0, 91, 0
2, 282000, Note_on_c, 0, 89, 65
2, 282120, Note_on_c, 0, 89, 0
2, 282120, Note_on_c, 0, 91, 65
2, 282240, Note_on_c, 0, 91, 0
2, 282240, Note_on_c, 0, 92, 65
2, 282360, Note_on_c, 0, 92, 0
2, 282360, Note_on_c, 0, 94, 65
2, 282480, Note_on_c, 0, 94, 0
2, 282480, Note_on_c, 0, 92, 65
2, 282600, Note_on_c, 0, 92, 0
2, 282600, Note_on_c, 0, 94, 65
2, 282720, Note_on_c, 0, 94, 0
2, 282720, Note_on_c, 0, 96, 65
2, 282840, Note_on_c, 0, 96, 0
2, 282840, Note_on_c, 0, 94, 65
2, 282960, Note_on_c, 0, 94, 0
2, 282960, Note_on_c, 0, 96, 65
2, 283080, Note_on_c, 0, 96, 0
2, 283080, Note_on_c, 0, 97, 65
2, 283200, Note_on_c, 0, 97, 0
2, 283200, Note_on_c, 0, 94, 65
2, 283320, Note_on_c, 0, 94, 0
2, 283320, Note_on_c, 0, 99, 65
2, 283440, Note_on_c, 0, 99, 0
2, 283440, Note_on_c, 0, 101, 65
2, 283560, Note_on_c, 0, 101, 0
2, 283560, Note_on_c, 0, 103, 65
2, 283680, Note_on_c, 0, 103, 0
2, 283680, Note_on_c, 0, 104, 65
2, 283800, Note_on_c, 0, 104, 0
2, 283800, Note_on_c, 0, 99, 65
2, 283920, Note_on_c, 0, 99, 0
2, 283920, Note_on_c, 0, 101, 65
2, 284040, Note_on_c, 0, 101, 0
2, 284040, Note_on_c, 0, 103, 65
2, 284160, Note_on_c, 0, 103, 0
2, 284160, Note_on_c, 0, 104, 65
2, 284280, Note_on_c, 0, 104, 0
2, 284280, Note_on_c, 0, 96, 65
2, 284400, Note_on_c, 0, 96, 0
2, 284400, Note_on_c, 0, 97, 65
2, 284520, Note_on_c, 0, 97, 0
2, 284520, Note_on_c, 0, 98, 65
2, 284640, Note_on_c, 0, 98, 0
2, 284640, Note_on_c, 0, 99, 65
2, 284760, Note_on_c, 0, 99, 0
2, 284760, Note_on_c, 0, 92, 65
2, 284880, Note_on_c, 0, 92, 0
2, 284880, Note_on_c, 0, 94, 65
2, 285000, Note_on_c, 0, 94, 0
2, 285000, Note_on_c, 0, 95, 65
2, 285120, Note_on_c, 0, 95, 0
2, 285120, Note_on_c, 0, 96, 65
2, 285240, Note_on_c, 0, 96, 0
2, 285240, Note_on_c, 0, 87, 65
2, 285360, Note_on_c, 0, 87, 0
2, 285360, Note_on_c, 0, 89, 65
2, 285480, Note_on_c, 0, 89, 0
2, 285480, Note_on_c, 0, 91, 65
2, 285600, Note_on_c, 0, 91, 0
2, 285600, Note_on_c, 0, 92, 65
2, 285720, Note_on_c, 0, 92, 0
2, 285720, Note_on_c, 0, 84, 65
2, 285840, Note_on_c, 0, 84, 0
2, 285840, Note_on_c, 0, 85, 65
2, 285960, Note_on_c, 0, 85, 0
2, 285960, Note_on_c, 0, 86, 65
2, 286080, Note_on_c, 0, 86, 0
2, 286080, Note_on_c, 0, 87, 65
2, 286200, Note_on_c, 0, 87, 0
2, 286200, Note_on_c, 0, 89, 65
2, 286320, Note_on_c, 0, 89, 0
2, 286320, Note_on_c, 0, 91, 65
2, 286440, Note_on_c, 0, 91, 0
2, 286440, Note_on_c, 0, 92, 65
2, 286560, Note_on_c, 0, 92, 0
2, 286560, Note_on_c, 0, 93, 65
2, 286680, Note_on_c, 0, 93, 0
2, 286680, Note_on_c, 0, 92, 65
2, 286800, Note_on_c, 0, 92, 0
2, 286800, Note_on_c, 0, 90, 65
2, 286920, Note_on_c, 0, 90, 0
2, 286920, Note_on_c, 0, 85, 65
2, 287040, Note_on_c, 0, 85, 0
2, 287040, Note_on_c, 0, 90, 65
2, 287160, Note_on_c, 0, 90, 0
2, 287160, Note_on_c, 0, 87, 65
2, 287280, Note_on_c, 0, 87, 0
2, 287280, Note_on_c, 0, 85, 65
2, 287400, Note_on_c, 0, 85, 0
2, 287400, Note_on_c, 0, 81, 65
2, 287520, Note_on_c, 0, 81, 0
2, 287520, Note_on_c, 0, 88, 65
2, 287640, Note_on_c, 0, 88, 0
2, 287640, Note_on_c, 0, 85, 65
2, 287760, Note_on_c, 0, 85, 0
2, 287760, Note_on_c, 0, 82, 65
2, 287880, Note_on_c, 0, 82, 0
2, 287880, Note_on_c, 0, 87, 65
2, 288000, Note_on_c, 0, 87, 0
2, 288000, Note_on_c, 0, 80, 65
2, 288120, Note_on_c, 0, 80, 0
2, 288120, Note_on_c, 0, 77, 65
2, 288240, Note_on_c, 0, 77, 0
2, 288240, Note_on_c, 0, 75, 65
2, 288360, Note_on_c, 0, 75, 0
2, 288360, Note_on_c, 0, 73, 65
2, 288480, Note_on_c, 0, 73, 0
2, 288480, Note_on_c, 0, 72, 65
2, 288600, Note_on_c, 0, 72, 0
2, 288600, Note_on_c, 0, 70, 65
2, 288720, Note_on_c, 0, 70, 0
2, 288720, Note_on_c, 0, 72, 65
2, 288840, Note_on_c, 0, 72, 0
2, 288840, Note_on_c, 0, 73, 65
2, 288960, Note_on_c, 0, 73, 0
2, 288960, Note_on_c, 0, 75, 65
2, 289080, Note_on_c, 0, 75, 0
2, 289080, Note_on_c, 0, 77, 65
2, 289200, Note_on_c, 0, 77, 0
2, 289200, Note_on_c, 0, 79, 65
2, 289320, Note_on_c, 0, 79, 0
2, 289320, Note_on_c, 0, 80, 65
2, 289440, Note_on_c, 0, 80, 0
2, 289440, Note_on_c, 0, 81, 65
2, 289560, Note_on_c, 0, 81, 0
2, 289560, Note_on_c, 0, 80, 65
2, 289680, Note_on_c, 0, 80, 0
2, 289680, Note_on_c, 0, 78, 65
2, 289800, Note_on_c, 0, 78, 0
2, 289800, Note_on_c, 0, 73, 65
2, 289920, Note_on_c, 0, 73, 0
2, 289920, Note_on_c, 0, 78, 65
2, 290040, Note_on_c, 0, 78, 0
2, 290040, Note_on_c, 0, 75, 65
2, 290160, Note_on_c, 0, 75, 0
2, 290160, Note_on_c, 0, 73, 65
2, 290280, Note_on_c, 0, 73, 0
2, 290280, Note_on_c, 0, 69, 65
2, 290400, Note_on_c, 0, 69, 0
2, 290400, Note_on_c, 0, 76, 65
2, 290520, Note_on_c, 0, 76, 0
2, 290520, Note_on_c, 0, 73, 65
2, 290640, Note_on_c, 0, 73, 0
2, 290640, Note_on_c, 0, 70, 65
2, 290760, Note_on_c, 0, 70, 0
2, 290760, Note_on_c, 0, 75, 65
2, 290880, Note_on_c, 0, 75, 0
2, 290880, Note_on_c, 0, 68, 65
2, 291000, Note_on_c, 0, 68, 0
2, 291000, Note_on_c, 0, 70, 65
2, 291120, Note_on_c, 0, 70, 0
2, 291120, Note_on_c, 0, 72, 65
2, 291240, Note_on_c, 0, 72, 0
2, 291240, Note_on_c, 0, 73, 65
2, 291360, Note_on_c, 0, 73, 0
2, 291360, Note_on_c, 0, 75, 65
2, 291480, Note_on_c, 0, 75, 0
2, 291480, Note_on_c, 0, 73, 65
2, 291600, Note_on_c, 0, 73, 0
2, 291600, Note_on_c, 0, 72, 65
2, 291720, Note_on_c, 0, 72, 0
2, 291720, Note_on_c, 0, 70, 65
2, 291840, Note_on_c, 0, 70, 0
2, 291840, Note_on_c, 0, 68, 65
2, 291960, Note_on_c, 0, 68, 0
2, 291960, Note_on_c, 0, 67, 65
2, 292080, Note_on_c, 0, 67, 0
2, 292080, Note_on_c, 0, 65, 65
2, 292200, Note_on_c, 0, 65, 0
2, 292200, Note_on_c, 0, 63, 65
2, 292320, Note_on_c, 0, 63, 0
2, 292320, Note_on_c, 0, 64, 78
2, 292440, Note_on_c, 0, 64, 0
2, 292440, Note_on_c, 0, 69, 78
2, 292560, Note_on_c, 0, 69, 0
2, 292560, Note_on_c, 0, 71, 78
2, 292680, Note_on_c, 0, 71, 0
2, 292680, Note_on_c, 0, 73, 78
2, 292800, Note_on_c, 0, 73, 0
2, 292800, Note_on_c, 0, 74, 78
2, 292920, Note_on_c, 0, 74, 0
2, 292920, Note_on_c, 0, 71, 78
2, 293040, Note_on_c, 0, 71, 0
2, 293040, Note_on_c, 0, 73, 78
2, 293160, Note_on_c, 0, 73, 0
2, 293160, Note_on_c, 0, 76, 78
2, 293280, Note_on_c, 0, 76, 0
2, 293280, Note_on_c, 0, 74, 78
2, 293400, Note_on_c, 0, 74, 0
2, 293400, Note_on_c, 0, 76, 78
2, 293520, Note_on_c, 0, 76, 0
2, 293520, Note_on_c, 0, 78, 78
2, 293640, Note_on_c, 0, 78, 0
2, 293640, Note_on_c, 0, 81, 78
2, 293760, Note_on_c, 0, 81, 0
2, 293760, Note_on_c, 0, 83, 78
2, 293880, Note_on_c, 0, 83, 0
2, 293880, Note_on_c, 0, 78, 78
2, 294000, Note_on_c, 0, 78, 0
2, 294000, Note_on_c, 0, 75, 78
2, 294120, Note_on_c, 0, 75, 0
2, 294120, Note_on_c, 0, 71, 78
2, 294240, Note_on_c, 0, 71, 0
2, 294240, Note_on_c, 0, 73, 78
2, 294360, Note_on_c, 0, 73, 0
2, 294360, Note_on_c, 0, 76, 78
2, 294480, Note_on_c, 0, 76, 0
2, 294480, Note_on_c, 0, 75, 78
2, 294600, Note_on_c, 0, 75, 0
2, 294600, Note_on_c, 0, 78, 78
2, 294720, Note_on_c, 0, 78, 0
2, 294720, Note_on_c, 0, 76, 78
2, 294840, Note_on_c, 0, 76, 0
2, 294840, Note_on_c, 0, 78, 78
2, 294960, Note_on_c, 0, 78, 0
2, 294960, Note_on_c, 0, 79, 78
2, 295080, Note_on_c, 0, 79, 0
2, 295080, Note_on_c, 0, 83, 78
2, 295200, Note_on_c, 0, 83, 0
2, 295200, Note_on_c, 0, 84, 78
2, 295320, Note_on_c, 0, 84, 0
2, 295320, Note_on_c, 0, 79, 78
2, 295440, Note_on_c, 0, 79, 0
2, 295440, Note_on_c, 0, 76, 78
2, 295560, Note_on_c, 0, 76, 0
2, 295560, Note_on_c, 0, 72, 78
2, 295680, Note_on_c, 0, 72, 0
2, 295680, Note_on_c, 0, 74, 78
2, 295800, Note_on_c, 0, 74, 0
2, 295800, Note_on_c, 0, 77, 78
2, 295920, Note_on_c, 0, 77, 0
2, 295920, Note_on_c, 0, 76, 78
2, 296040, Note_on_c, 0, 76, 0
2, 296040, Note_on_c, 0, 79, 78
2, 296160, Note_on_c, 0, 79, 0
2, 296160, Note_on_c, 0, 77, 78
2, 296280, Note_on_c, 0, 77, 0
2, 296280, Note_on_c, 0, 79, 78
2, 296400, Note_on_c, 0, 79, 0
2, 296400, Note_on_c, 0, 81, 78
2, 296520, Note_on_c, 0, 81, 0
2, 296520, Note_on_c, 0, 84, 78
2, 296640, Note_on_c, 0, 84, 0
2, 296640, Note_on_c, 0, 85, 78
2, 296760, Note_on_c, 0, 85, 0
2, 296760, Note_on_c, 0, 80, 78
2, 296880, Note_on_c, 0, 80, 0
2, 296880, Note_on_c, 0, 77, 78
2, 297000, Note_on_c, 0, 77, 0
2, 297000, Note_on_c, 0, 73, 78
2, 297120, Note_on_c, 0, 73, 0
2, 297120, Note_on_c, 0, 75, 78
2, 297240, Note_on_c, 0, 75, 0
2, 297240, Note_on_c, 0, 78, 78
2, 297360, Note_on_c, 0, 78, 0
2, 297360, Note_on_c, 0, 77, 78
2, 297480, Note_on_c, 0, 77, 0
2, 297480, Note_on_c, 0, 80, 78
2, 297600, Note_on_c, 0, 80, 0
2, 297600, Note_on_c, 0, 78, 78
2, 297720, Note_on_c, 0, 78, 0
2, 297720, Note_on_c, 0, 80, 78
2, 297840, Note_on_c, 0, 80, 0
2, 297840, Note_on_c, 0, 82, 78
2, 297960, Note_on_c, 0, 82, 0
2, 297960, Note_on_c, 0, 85, 78
2, 298080, Note_on_c, 0, 85, 0
2, 298080, Note_on_c, 0, 87, 78
2, 298200, Note_on_c, 0, 87, 0
2, 298200, Note_on_c, 0, 82, 78
2, 298320, Note_on_c, 0, 82, 0
2, 298320, Note_on_c, 0, 79, 78
2, 298440, Note_on_c, 0, 79, 0
2, 298440, Note_on_c, 0, 75, 78
2, 298560, Note_on_c, 0, 75, 0
2, 298560, Note_on_c, 0, 80, 78
2, 298680, Note_on_c, 0, 80, 0
2, 298680, Note_on_c, 0, 82, 78
2, 298800, Note_on_c, 0, 82, 0
2, 298800, Note_on_c, 0, 84, 78
2, 298920, Note_on_c, 0, 84, 0
2, 298920, Note_on_c, 0, 87, 78
2, 299040, Note_on_c, 0, 87, 0
2, 299040, Note_on_c, 0, 89, 78
2, 299160, Note_on_c, 0, 89, 0
2, 299160, Note_on_c, 0, 84, 78
2, 299280, Note_on_c, 0, 84, 0
2, 299280, Note_on_c, 0, 81, 78
2, 299400, Note_on_c, 0, 81, 0
2, 299400, Note_on_c, 0, 77, 78
2, 299520, Note_on_c, 0, 77, 0
2, 299520, Note_on_c, 0, 82, 78
2, 299640, Note_on_c, 0, 82, 0
2, 299640, Note_on_c, 0, 84, 78
2, 299760, Note_on_c, 0, 84, 0
2, 299760, Note_on_c, 0, 85, 78
2, 299880, Note_on_c, 0, 85, 0
2, 299880, Note_on_c, 0, 89, 78
2, 300000, Note_on_c, 0, 89, 0
2, 300000, Note_on_c, 0, 90, 78
2, 300120, Note_on_c, 0, 90, 0
2, 300120, Note_on_c, 0, 85, 78
2, 300240, Note_on_c, 0, 85, 0
2, 300240, Note_on_c, 0, 82, 78
2, 300360, Note_on_c, 0, 82, 0
2, 300360, Note_on_c, 0, 78, 78
2, 300480, Note_on_c, 0, 78, 0
2, 300480, Note_on_c, 0, 83, 78
2, 300600, Note_on_c, 0, 83, 0
2, 300600, Note_on_c, 0, 85, 78
2, 300720, Note_on_c, 0, 85, 0
2, 300720, Note_on_c, 0, 87, 78
2, 300840, Note_on_c, 0, 87, 0
2, 300840, Note_on_c, 0, 90, 78
2, 300960, Note_on_c, 0, 90, 0
2, 300960, Note_on_c, 0, 92, 78
2, 301080, Note_on_c, 0, 92, 0
2, 301080, Note_on_c, 0, 87, 78
2, 301200, Note_on_c, 0, 87, 0
2, 301200, Note_on_c, 0, 84, 78
2, 301320, Note_on_c, 0, 84, 0
2, 301320, Note_on_c, 0, 80, 78
2, 301440, Note_on_c, 0, 80, 0
2, 301440, Note_on_c, 0, 85, 78
2, 301560, Note_on_c, 0, 85, 0
2, 301560, Note_on_c, 0, 87, 78
2, 301680, Note_on_c, 0, 87, 0
2, 301680, Note_on_c, 0, 89, 78
2, 301800, Note_on_c, 0, 89, 0
2, 301800, Note_on_c, 0, 92, 78
2, 301920, Note_on_c, 0, 92, 0
2, 301920, Note_on_c, 0, 94, 78
2, 302040, Note_on_c, 0, 94, 0
2, 302040, Note_on_c, 0, 89, 78
2, 302160, Note_on_c, 0, 89, 0
2, 302160, Note_on_c, 0, 86, 78
2, 302280, Note_on_c, 0, 86, 0
2, 302280, Note_on_c, 0, 82, 78
2, 302400, Note_on_c, 0, 82, 0
2, 302400, Note_on_c, 0, 87, 78
2, 302520, Note_on_c, 0, 87, 0
2, 302520, Note_on_c, 0, 89, 78
2, 302640, Note_on_c, 0, 89, 0
2, 302640, Note_on_c, 0, 90, 78
2, 302760, Note_on_c, 0, 90, 0
2, 302760, Note_on_c, 0, 94, 78
2, 302880, Note_on_c, 0, 94, 0
2, 302880, Control_c, 0, 64, 127
2, 302880, Note_on_c, 0, 97, 78
2, 303000, Note_on_c, 0, 97, 0
2, 303000, Note_on_c, 0, 94, 78
2, 303120, Note_on_c, 0, 94, 0
2, 303120, Note_on_c, 0, 88, 78
2, 303240, Note_on_c, 0, 88, 0
2, 303240, Note_on_c, 0, 85, 78
2, 303360, Note_on_c, 0, 85, 0
2, 303360, Note_on_c, 0, 94, 78
2, 303480, Note_on_c, 0, 94, 0
2, 303480, Note_on_c, 0, 88, 78
2, 303600, Note_on_c, 0, 88, 0
2, 303600, Note_on_c, 0, 85, 78
2, 303720, Note_on_c, 0, 85, 0
2, 303720, Note_on_c, 0, 82, 78
2, 303840, Note_on_c, 0, 82, 0
2, 303840, Note_on_c, 0, 88, 91
2, 303960, Note_on_c, 0, 88, 0
2, 303960, Note_on_c, 0, 85, 91
2, 304080, Note_on_c, 0, 85, 0
2, 304080, Note_on_c, 0, 82, 91
2, 304200, Note_on_c, 0, 82, 0
2, 304200, Note_on_c, 0, 76, 91
2, 304320, Note_on_c, 0, 76, 0
2, 304320, Note_on_c, 0, 85, 91
2, 304440, Note_on_c, 0, 85, 0
2, 304440, Note_on_c, 0, 82, 91
2, 304560, Note_on_c, 0, 82, 0
2, 304560, Note_on_c, 0, 76, 91
2, 304680, Note_on_c, 0, 76, 0
2, 304680, Note_on_c, 0, 73, 91
2, 304800, Note_on_c, 0, 73, 0
2, 304800, Note_on_c, 0, 82, 91
2, 304920, Note_on_c, 0, 82, 0
2, 304920, Note_on_c, 0, 76, 91
2, 305040, Note_on_c, 0, 76, 0
2, 305040, Note_on_c, 0, 73, 91
2, 305160, Note_on_c, 0, 73, 0
2, 305160, Note_on_c, 0, 70, 91
2, 305280, Note_on_c, 0, 70, 0
2, 305280, Note_on_c, 0, 76, 91
2, 305400, Note_on_c, 0, 76, 0
2, 305400, Note_on_c, 0, 73, 91
2, 305520, Note_on_c, 0, 73, 0
2, 305520, Note_on_c, 0, 70, 91
2, 305640, Note_on_c, 0, 70, 0
2, 305640, Note_on_c, 0, 66, 91
2, 305760, Note_on_c, 0, 66, 0
2, 305760, Note_on_c, 0, 64, 91
2, 305880, Note_on_c, 0, 64, 0
2, 305880, Note_on_c, 0, 61, 91
2, 306000, Note_on_c, 0, 61, 0
2, 306000, Note_on_c, 0, 58, 91
2, 306120, Note_on_c, 0, 58, 0
2, 306120, Note_on_c, 0, 54, 91
2, 306240, Note_on_c, 0, 54, 0
2, 306240, Note_on_c, 0, 52, 91
2, 306360, Note_on_c, 0, 52, 0
2, 306360, Note_on_c, 0, 49, 91
2, 306480, Note_on_c, 0, 49, 0
2, 306480, Note_on_c, 0, 46, 91
2, 306600, Note_on_c, 0, 46, 0
2, 306600, Control_c, 0, 64, 0
2, 306600, Note_on_c, 0, 42, 91
2, 306720, Note_on_c, 0, 42, 0
2, 306960, Note_on_c, 0, 62, 52
2, 306960, Note_on_c, 0, 70, 52
2, 307007, Note_on_c, 0, 70, 0
2, 307007, Note_on_c, 0, 62, 0
2, 307200, Note_on_c, 0, 63, 78
2, 307200, Note_on_c, 0, 67, 78
2, 307560, Note_on_c, 0, 67, 0
2, 307560, Note_on_c, 0, 63, 0
2, 307560, Note_on_c, 0, 69, 52
2, 307620, Note_on_c, 0, 69, 0
2, 307620, Note_on_c, 0, 70, 52
2, 307680, Note_on_c, 0, 70, 0
2, 307680, Note_on_c, 0, 60, 52
2, 307680, Note_on_c, 0, 69, 52
2, 307727, Note_on_c, 0, 69, 0
2, 307727, Note_on_c, 0, 60, 0
2, 307920, Note_on_c, 0, 61, 52
2, 307920, Note_on_c, 0, 67, 52
2, 307967, Note_on_c, 0, 67, 0
2, 307967, Note_on_c, 0, 61, 0
2, 308340, Note_on_c, 0, 65, 52
2, 308400, Note_on_c, 0, 65, 0
2, 308400, Note_on_c, 0, 67, 52
2, 308580, Note_on_c, 0, 67, 0
2, 308580, Note_on_c, 0, 69, 52
2, 308640, Note_on_c, 0, 69, 0
2, 308640, Note_on_c, 0, 70, 52
2, 308820, Note_on_c, 0, 70, 0
2, 308820, Note_on_c, 0, 73, 52
2, 308880, Note_on_c, 0, 73, 0
2, 308880, Note_on_c, 0, 74, 52
2, 309060, Note_on_c, 0, 74, 0
2, 309060, Note_on_c, 0, 78, 52
2, 309120, Note_on_c, 0, 78, 0
2, 309120, Note_on_c, 0, 79, 52
2, 309300, Note_on_c, 0, 79, 0
2, 309300, Note_on_c, 0, 80, 52
2, 309360, Note_on_c, 0, 80, 0
2, 309360, Note_on_c, 0, 81, 52
2, 309540, Note_on_c, 0, 81, 0
2, 309540, Note_on_c, 0, 83, 52
2, 309600, Note_on_c, 0, 83, 0
2, 309600, Note_on_c, 0, 84, 52
2, 309840, Note_on_c, 0, 84, 0
2, 309840, Note_on_c, 0, 75, 52
2, 309840, Note_on_c, 0, 79, 52
2, 309887, Note_on_c, 0, 79, 0
2, 309887, Note_on_c, 0, 75, 0
2, 310080, Note_on_c, 0, 77, 78
2, 310080, Note_on_c, 0, 80, 78
2, 310440, Note_on_c, 0, 80, 0
2, 310440, Note_on_c, 0, 77, 0
2, 310440, Note_on_c, 0, 75, 52
2, 310440, Note_on_c, 0, 79, 52
2, 310500, Note_on_c, 0, 79, 0
2, 310500, Note_on_c, 0, 75, 0
2, 310500, Note_on_c, 0, 77, 52
2, 310500, Note_on_c, 0, 80, 52
2, 310560, Note_on_c, 0, 80, 0
2, 310560, Note_on_c, 0, 77, 0
2, 310560, Note_on_c, 0, 75, 52
2, 310560, Note_on_c, 0, 79, 52
2, 310607, Note_on_c, 0, 79, 0
2, 310607, Note_on_c, 0, 75, 0
2, 310800, Note_on_c, 0, 74, 52
2, 310800, Note_on_c, 0, 77, 52
2, 310847, Note_on_c, 0, 77, 0
2, 310847, Note_on_c, 0, 74, 0
2, 311040, Note_on_c, 0, 72, 52
2, 311087, Note_on_c, 0, 72, 0
2, 311700, Note_on_c, 0, 71, 52
2, 311760, Note_on_c, 0, 71, 0
2, 311760, Note_on_c, 0, 72, 52
2, 311940, Note_on_c, 0, 72, 0
2, 311940, Note_on_c, 0, 74, 52
2, 312000, Note_on_c, 0, 74, 0
2, 312000, Note_on_c, 0, 75, 52
2, 312180, Note_on_c, 0, 75, 0
2, 312180, Note_on_c, 0, 79, 52
2, 312240, Note_on_c, 0, 79, 0
2, 312240, Note_on_c, 0, 81, 52
2, 312420, Note_on_c, 0, 81, 0
2, 312420, Note_on_c, 0, 83, 52
2, 312480, Note_on_c, 0, 83, 0
2, 312480, Note_on_c, 0, 84, 52
2, 312720, Note_on_c, 0, 84, 0
2, 312720, Note_on_c, 0, 72, 52
2, 312767, Note_on_c, 0, 72, 0
2, 312960, Note_on_c, 0, 69, 78
2, 313320, Note_on_c, 0, 69, 0
2, 313320, Note_on_c, 0, 70, 52
2, 313380, Note_on_c, 0, 70, 0
2, 313380, Note_on_c, 0, 72, 52
2, 313440, Note_on_c, 0, 72, 0
2, 313440, Note_on_c, 0, 70, 52
2, 313487, Note_on_c, 0, 70, 0
2, 313680, Note_on_c, 0, 68, 52
2, 313727, Note_on_c, 0, 68, 0
2, 314100, Note_on_c, 0, 67, 52
2, 314160, Note_on_c, 0, 67, 0
2, 314160, Note_on_c, 0, 69, 52
2, 314340, Note_on_c, 0, 69, 0
2, 314340, Note_on_c, 0, 71, 52
2, 314400, Note_on_c, 0, 71, 0
2, 314400, Note_on_c, 0, 72, 52
2, 314580, Note_on_c, 0, 72, 0
2, 314580, Note_on_c, 0, 78, 52
2, 314640, Note_on_c, 0, 78, 0
2, 314640, Note_on_c, 0, 79, 52
2, 314820, Note_on_c, 0, 79, 0
2, 314820, Note_on_c, 0, 80, 52
2, 314880, Note_on_c, 0, 80, 0
2, 314880, Note_on_c, 0, 81, 52
2, 315060, Note_on_c, 0, 81, 0
2, 315060, Note_on_c, 0, 82, 52
2, 315120, Note_on_c, 0, 82, 0
2, 315120, Note_on_c, 0, 83, 52
2, 315300, Note_on_c, 0, 83, 0
2, 315300, Note_on_c, 0, 85, 52
2, 315360, Note_on_c, 0, 85, 0
2, 315360, Note_on_c, 0, 86, 52
2, 315600, Note_on_c, 0, 86, 0
2, 315600, Note_on_c, 0, 77, 52
2, 315600, Note_on_c, 0, 81, 52
2, 315647, Note_on_c, 0, 81, 0
2, 315647, Note_on_c, 0, 77, 0
2, 315840, Note_on_c, 0, 79, 78
2, 315840, Note_on_c, 0, 82, 78
2, 316200, Note_on_c, 0, 82, 0
2, 316200, Note_on_c, 0, 79, 0
2, 316200, Note_on_c, 0, 77, 52
2, 316200, Note_on_c, 0, 81, 52
2, 316260, Note_on_c, 0, 81, 0
2, 316260, Note_on_c, 0, 77, 0
2, 316260, Note_on_c, 0, 79, 52
2, 316260, Note_on_c, 0, 82, 52
2, 316320, Note_on_c, 0, 82, 0
2, 316320, Note_on_c, 0, 79, 0
2, 316320, Note_on_c, 0, 77, 52
2, 316320, Note_on_c, 0, 81, 52
2, 316367, Note_on_c, 0, 81, 0
2, 316367, Note_on_c, 0, 77, 0
2, 316560, Note_on_c, 0, 76, 52
2, 316560, Note_on_c, 0, 79, 52
2, 316607, Note_on_c, 0, 79, 0
2, 316607, Note_on_c, 0, 76, 0
2, 316800, Note_on_c, 0, 74, 52
2, 316800, Note_on_c, 0, 77, 52
2, 316847, Note_on_c, 0, 77, 0
2, 316847, Note_on_c, 0, 74, 0
2, 317460, Note_on_c, 0, 73, 52
2, 317520, Note_on_c, 0, 73, 0
2, 317520, Note_on_c, 0, 74, 52
2, 317700, Note_on_c, 0, 74, 0
2, 317700, Note_on_c, 0, 76, 52
2, 317760, Note_on_c, 0, 76, 0
2, 317760, Note_on_c, 0, 77, 52
2, 317940, Note_on_c, 0, 77, 0
2, 317940, Note_on_c, 0, 81, 52
2, 318000, Note_on_c, 0, 81, 0
2, 318000, Note_on_c, 0, 83, 52
2, 318180, Note_on_c, 0, 83, 0
2, 318180, Note_on_c, 0, 85, 52
2, 318240, Note_on_c, 0, 85, 0
2, 318240, Note_on_c, 0, 86, 65
2, 318480, Note_on_c, 0, 86, 0
2, 319860, Note_on_c, 0, 79, 65
2, 319920, Note_on_c, 0, 79, 0
2, 319920, Note_on_c, 0, 77, 65
2, 320100, Note_on_c, 0, 77, 0
2, 320100, Note_on_c, 0, 76, 65
2, 320160, Note_on_c, 0, 76, 0
2, 320160, Note_on_c, 0, 74, 65
2, 320340, Note_on_c, 0, 74, 0
2, 320340, Note_on_c, 0, 73, 65
2, 320400, Note_on_c, 0, 73, 0
2, 320400, Note_on_c, 0, 74, 65
2, 320580, Note_on_c, 0, 74, 0
2, 320580, Note_on_c, 0, 70, 65
2, 320640, Note_on_c, 0, 70, 0
2, 320640, Note_on_c, 0, 69, 65
2, 320820, Note_on_c, 0, 69, 0
2, 320820, Note_on_c, 0, 67, 65
2, 320880, Note_on_c, 0, 67, 0
2, 320880, Note_on_c, 0, 65, 65
2, 321060, Note_on_c, 0, 65, 0
2, 321060, Note_on_c, 0, 64, 65
2, 321120, Note_on_c, 0, 64, 0
2, 321120, Note_on_c, 0, 70, 65
2, 321120, Note_on_c, 0, 82, 65
2, 321600, Note_on_c, 0, 82, 0
2, 321600, Note_on_c, 0, 70, 0
2, 321600, Note_on_c, 0, 72, 65
2, 321600, Note_on_c, 0, 84, 65
2, 322080, Note_on_c, 0, 84, 0
2, 322080, Note_on_c, 0, 72, 0
2, 322080, Note_on_c, 0, 70, 65
2, 322080, Note_on_c, 0, 82, 65
2, 322560, Note_on_c, 0, 82, 0
2, 322560, Note_on_c, 0, 70, 0
2, 322560, Note_on_c, 0, 70, 65
2, 322560, Note_on_c, 0, 82, 65
2, 324000, Note_on_c, 0, 82, 0
2, 324000, Note_on_c, 0, 70, 0
2, 324000, Note_on_c, 0, 72, 65
2, 324000, Note_on_c, 0, 84, 65
2, 324480, Note_on_c, 0, 84, 0
2, 324480, Note_on_c, 0, 72, 0
2, 324480, Note_on_c, 0, 73, 65
2, 324480, Note_on_c, 0, 85, 65
2, 324960, Note_on_c, 0, 85, 0
2, 324960, Note_on_c, 0, 73, 0
2, 324960, Note_on_c, 0, 72, 65
2, 324960, Note_on_c, 0, 84, 65
2, 325440, Note_on_c, 0, 84, 0
2, 325440, Note_on_c, 0, 72, 0
2, 325440, Note_on_c, 0, 72, 65
2, 325440, Note_on_c, 0, 84, 65
2, 326880, Note_on_c, 0, 84, 0
2, 326880, Note_on_c, 0, 72, 0
2, 326880, Note_on_c, 0, 72, 65
2, 326880, Note_on_c, 0, 84, 65
2, 327360, Note_on_c, 0, 84, 0
2, 327360, Note_on_c, 0, 72, 0
2, 327360, Note_on_c, 0, 74, 65
2, 327360, Note_on_c, 0, 86, 65
2, 327840, Note_on_c, 0, 86, 0
2, 327840, Note_on_c, 0, 74, 0
2, 327840, Note_on_c, 0, 72, 65
2, 327840, Note_on_c, 0, 84, 65
2, 328320, Note_on_c, 0, 84, 0
2, 328320, Note_on_c, 0, 72, 0
2, 328320, Note_on_c, 0, 74, 65
2, 328320, Note_on_c, 0, 86, 65
2, 329760, Note_on_c, 0, 86, 0
2, 329760, Note_on_c, 0, 74, 0
2, 329760, Note_on_c, 0, 74, 65
2, 329760, Note_on_c, 0, 86, 65
2, 330240, Note_on_c, 0, 86, 0
2, 330240, Note_on_c, 0, 74, 0
2, 330240, Note_on_c, 0, 75, 65
2, 330240, Note_on_c, 0, 87, 65
2, 330720, Note_on_c, 0, 87, 0
2, 330720, Note_on_c, 0, 75, 0
2, 330720, Note_on_c, 0, 74, 65
2, 330720, Note_on_c, 0, 86, 65
2, 331200, Note_on_c, 0, 86, 0
2, 331200, Note_on_c, 0, 74, 0
2, 331200, Note_on_c, 0, 75, 65
2, 331200, Note_on_c, 0, 87, 65
2, 332640, Note_on_c, 0, 87, 0
2, 332640, Note_on_c, 0, 75, 0
2, 332640, Note_on_c, 0, 76, 65
2, 332640, Note_on_c, 0, 88, 65
2, 333120, Note_on_c, 0, 88, 0
2, 333120, Note_on_c, 0, 76, 0
2, 333120, Note_on_c, 0, 77, 65
2, 333120, Note_on_c, 0, 89, 65
2, 333600, Note_on_c, 0, 89, 0
2, 333600, Note_on_c, 0, 77, 0
2, 333600, Note_on_c, 0, 76, 65
2, 333600, Note_on_c, 0, 88, 65
2, 334080, Note_on_c, 0, 88, 0
2, 334080, Note_on_c, 0, 76, 0
2, 334080, Note_on_c, 0, 77, 65
2, 334080, Note_on_c, 0, 89, 65
2, 335520, Note_on_c, 0, 89, 0
2, 335520, Note_on_c, 0, 77, 0
2, 335520, Note_on_c, 0, 77, 78
2, 335520, Note_on_c, 0, 89, 78
2, 336000, Note_on_c, 0, 89, 0
2, 336000, Note_on_c, 0, 77, 0
2, 336000, Note_on_c, 0, 79, 78
2, 336000, Note_on_c, 0, 91, 78
2, 336480, Note_on_c, 0, 91, 0
2, 336480, Note_on_c, 0, 79, 0
2, 336480, Note_on_c, 0, 77, 78
2, 336480, Note_on_c, 0, 89, 78
2, 336960, Note_on_c, 0, 89, 0
2, 336960, Note_on_c, 0, 77, 0
2, 336960, Note_on_c, 0, 77, 78
2, 336960, Note_on_c, 0, 89, 78
2, 338400, Note_on_c, 0, 89, 0
2, 338400, Note_on_c, 0, 77, 0
2, 338400, Note_on_c, 0, 77, 78
2, 338400, Note_on_c, 0, 89, 78
2, 338880, Note_on_c, 0, 89, 0
2, 338880, Note_on_c, 0, 77, 0
2, 338880, Note_on_c, 0, 79, 78
2, 338880, Note_on_c, 0, 91, 78
2, 339360, Note_on_c, 0, 91, 0
2, 339360, Note_on_c, 0, 79, 0
2, 339360, Note_on_c, 0, 77, 78
2, 339360, Note_on_c, 0, 89, 78
2, 339840, Note_on_c, 0, 89, 0
2, 339840, Note_on_c, 0, 77, 0
2, 339840, Note_on_c, 0, 77, 78
2, 339840, Note_on_c, 0, 89, 78
2, 341280, Note_on_c, 0, 89, 0
2, 341280, Note_on_c, 0, 77, 0
2, 341280, Note_on_c, 0, 77, 78
2, 341280, Note_on_c, 0, 89, 78
2, 341760, Note_on_c, 0, 89, 0
2, 341760, Note_on_c, 0, 77, 0
2, 341760, Note_on_c, 0, 79, 78
2, 341760, Note_on_c, 0, 91, 78
2, 342240, Note_on_c, 0, 91, 0
2, 342240, Note_on_c, 0, 79, 0
2, 342240, Note_on_c, 0, 77, 78
2, 342240, Note_on_c, 0, 89, 78
2, 342720, Note_on_c, 0, 89, 0
2, 342720, Note_on_c, 0, 77, 0
2, 342720, Note_on_c, 0, 77, 78
2, 342720, Note_on_c, 0, 89, 78
2, 344160, Note_on_c, 0, 89, 0
2, 344160, Note_on_c, 0, 77, 0
2, 348480, Control_c, 0, 64, 127
2, 348480, Note_on_c, 0, 53, 91
2, 348480, Note_on_c, 0, 65, 91
2, 348600, Note_on_c, 0, 65, 0
2, 348600, Note_on_c, 0, 53, 0
2, 348600, Note_on_c, 0, 52, 91
2, 348600, Note_on_c, 0, 64, 91
2, 348720, Note_on_c, 0, 64, 0
2, 348720, Note_on_c, 0, 52, 0
2, 348720, Note_on_c, 0, 53, 91
2, 348720, Note_on_c, 0, 65, 91
2, 348840, Note_on_c, 0, 65, 0
2, 348840, Note_on_c, 0, 53, 0
2, 348840, Note_on_c, 0, 55, 91
2, 348840, Note_on_c, 0, 67, 91
2, 348960, Note_on_c, 0, 67, 0
2, 348960, Note_on_c, 0, 55, 0
2, 348960, Note_on_c, 0, 57, 91
2, 348960, Note_on_c, 0, 69, 91
2, 349080, Note_on_c, 0, 69, 0
2, 349080, Note_on_c, 0, 57, 0
2, 349080, Note_on_c, 0, 56, 91
2, 349080, Note_on_c, 0, 68, 91
2, 349200, Note_on_c, 0, 68, 0
2, 349200, Note_on_c, 0, 56, 0
2, 349200, Note_on_c, 0, 57, 91
2, 349200, Note_on_c, 0, 69, 91
2, 349320, Note_on_c, 0, 69, 0
2, 349320, Note_on_c, 0, 57, 0
2, 349320, Note_on_c, 0, 58, 91
2, 349320, Note_on_c, 0, 70, 91
2, 349440, Note_on_c, 0, 70, 0
2, 349440, Note_on_c, 0, 58, 0
2, 349440, Note_on_c, 0, 60, 91
2, 349440, Note_on_c, 0, 72, 91
2, 349560, Note_on_c, 0, 72, 0
2, 349560, Note_on_c, 0, 60, 0
2, 349560, Note_on_c, 0, 59, 91
2, 349560, Note_on_c, 0, 71, 91
2, 349680, Note_on_c, 0, 71, 0
2, 349680, Note_on_c, 0, 59, 0
2, 349680, Note_on_c, 0, 60, 91
2, 349680, Note_on_c, 0, 72, 91
2, 349800, Note_on_c, 0, 72, 0
2, 349800, Note_on_c, 0, 60, 0
2, 349800, Control_c, 0, 64, 0
2, 349800, Note_on_c, 0, 62, 91
2, 349800, Note_on_c, 0, 74, 91
2, 349920, Note_on_c, 0, 74, 0
2, 349920, Note_on_c, 0, 62, 0
2, 349920, Control_c, 0, 64, 127
2, 349920, Note_on_c, 0, 63, 91
2, 349920, Note_on_c, 0, 75, 91
2, 350040, Note_on_c, 0, 75, 0
2, 350040, Note_on_c, 0, 63, 0
2, 350040, Note_on_c, 0, 62, 91
2, 350040, Note_on_c, 0, 74, 91
2, 350160, Note_on_c, 0, 74, 0
2, 350160, Note_on_c, 0, 62, 0
2, 350160, Note_on_c, 0, 63, 91
2, 350160, Note_on_c, 0, 75, 91
2, 350280, Note_on_c, 0, 75, 0
2, 350280, Note_on_c, 0, 63, 0
2, 350280, Note_on_c, 0, 64, 91
2, 350280, Note_on_c, 0, 76, 91
2, 350400, Note_on_c, 0, 76, 0
2, 350400, Note_on_c, 0, 64, 0
2, 350400, Note_on_c, 0, 65, 91
2, 350400, Note_on_c, 0, 77, 91
2, 350520, Note_on_c, 0, 77, 0
2, 350520, Note_on_c, 0, 65, 0
2, 350520, Note_on_c, 0, 64, 91
2, 350520, Note_on_c, 0, 76, 91
2, 350640, Note_on_c, 0, 76, 0
2, 350640, Note_on_c, 0, 64, 0
2, 350640, Note_on_c, 0, 65, 91
2, 350640, Note_on_c, 0, 77, 91
2, 350760, Note_on_c, 0, 77, 0
2, 350760, Note_on_c, 0, 65, 0
2, 350760, Note_on_c, 0, 67, 91
2, 350760, Note_on_c, 0, 79, 91
2, 350880, Note_on_c, 0, 79, 0
2, 350880, Note_on_c, 0, 67, 0
2, 350880, Note_on_c, 0, 69, 91
2, 350880, Note_on_c, 0, 81, 91
2, 351000, Note_on_c, 0, 81, 0
2, 351000, Note_on_c, 0, 69, 0
2, 351000, Note_on_c, 0, 68, 91
2, 351000, Note_on_c, 0, 80, 91
2, 351120, Note_on_c, 0, 80, 0
2, 351120, Note_on_c, 0, 68, 0
2, 351120, Note_on_c, 0, 69, 91
2, 351120, Note_on_c, 0, 81, 91
2, 351240, Note_on_c, 0, 81, 0
2, 351240, Note_on_c, 0, 69, 0
2, 351240, Control_c, 0, 64, 0
2, 351240, Note_on_c, 0, 70, 91
2, 351240, Note_on_c, 0, 82, 91
2, 351360, Note_on_c, 0, 82, 0
2, 351360, Note_on_c, 0, 70, 0
2, 351360, Control_c, 0, 64, 127
2, 351360, Note_on_c, 0, 72, 91
2, 351360, Note_on_c, 0, 84, 91
2, 351480, Note_on_c, 0, 84, 0
2, 351480, Note_on_c, 0, 72, 0
2, 351480, Note_on_c, 0, 71, 91
2, 351480, Note_on_c, 0, 83, 91
2, 351600, Note_on_c, 0, 83, 0
2, 351600, Note_on_c, 0, 71, 0
2, 351600, Note_on_c, 0, 72, 91
2, 351600, Note_on_c, 0, 84, 91
2, 351720, Note_on_c, 0, 84, 0
2, 351720, Note_on_c, 0, 72, 0
2, 351720, Note_on_c, 0, 74, 91
2, 351720, Note_on_c, 0, 86, 91
2, 351840, Note_on_c, 0, 86, 0
2, 351840, Note_on_c, 0, 74, 0
2, 351840, Note_on_c, 0, 75, 91
2, 351840, Note_on_c, 0, 87, 91
2, 351960, Note_on_c, 0, 87, 0
2, 351960, Note_on_c, 0, 75, 0
2, 351960, Note_on_c, 0, 74, 91
2, 351960, Note_on_c, 0, 86, 91
2, 352080, Note_on_c, 0, 86, 0
2, 352080, Note_on_c, 0, 74, 0
2, 352080, Note_on_c, 0, 75, 91
2, 352080, Note_on_c, 0, 87, 91
2, 352200, Note_on_c, 0, 87, 0
2, 352200, Note_on_c, 0, 75, 0
2, 352200, Note_on_c, 0, 76, 91
2, 352200, Note_on_c, 0, 88, 91
2, 352320, Note_on_c, 0, 88, 0
2, 352320, Note_on_c, 0, 76, 0
2, 352320, Note_on_c, 0, 77, 91
2, 352320, Note_on_c, 0, 89, 91
2, 352440, Note_on_c, 0, 89, 0
2, 352440, Note_on_c, 0, 77, 0
2, 352440, Note_on_c, 0, 76, 91
2, 352440, Note_on_c, 0, 88, 91
2, 352560, Note_on_c, 0, 88, 0
2, 352560, Note_on_c, 0, 76, 0
2, 352560, Note_on_c, 0, 77, 91
2, 352560, Note_on_c, 0, 89, 91
2, 352680, Note_on_c, 0, 89, 0
2, 352680, Note_on_c, 0, 77, 0
2, 352680, Control_c, 0, 64, 0
2, 352680, Note_on_c, 0, 78, 91
2, 352680, Note_on_c, 0, 90, 91
2, 352800, Note_on_c, 0, 90, 0
2, 352800, Note_on_c, 0, 78, 0
2, 352800, Control_c, 0, 64, 127
2, 352800, Note_on_c, 0, 79, 91
2, 352800, Note_on_c, 0, 91, 91
2, 352920, Note_on_c, 0, 91, 0
2, 352920, Note_on_c, 0, 79, 0
2, 352920, Note_on_c, 0, 77, 91
2, 352920, Note_on_c, 0, 89, 91
2, 353040, Note_on_c, 0, 89, 0
2, 353040, Note_on_c, 0, 77, 0
2, 353040, Note_on_c, 0, 75, 91
2, 353040, Note_on_c, 0, 87, 91
2, 353160, Note_on_c, 0, 87, 0
2, 353160, Note_on_c, 0, 75, 0
2, 353160, Note_on_c, 0, 74, 91
2, 353160, Note_on_c, 0, 86, 91
2, 353280, Note_on_c, 0, 86, 0
2, 353280, Note_on_c, 0, 74, 0
2, 353280, Note_on_c, 0, 72, 91
2, 353280, Note_on_c, 0, 84, 91
2, 353400, Note_on_c, 0, 84, 0
2, 353400, Note_on_c, 0, 72, 0
2, 353400, Note_on_c, 0, 70, 91
2, 353400, Note_on_c, 0, 82, 91
2, 353520, Note_on_c, 0, 82, 0
2, 353520, Note_on_c, 0, 70, 0
2, 353520, Note_on_c, 0, 69, 91
2, 353520, Note_on_c, 0, 81, 91
2, 353640, Note_on_c, 0, 81, 0
2, 353640, Note_on_c, 0, 69, 0
2, 353640, Note_on_c, 0, 67, 91
2, 353640, Note_on_c, 0, 79, 91
2, 353760, Note_on_c, 0, 79, 0
2, 353760, Note_on_c, 0, 67, 0
2, 353760, Note_on_c, 0, 65, 91
2, 353760, Note_on_c, 0, 77, 91
2, 353880, Note_on_c, 0, 77, 0
2, 353880, Note_on_c, 0, 65, 0
2, 353880, Note_on_c, 0, 63, 91
2, 353880, Note_on_c, 0, 75, 91
2, 354000, Note_on_c, 0, 75, 0
2, 354000, Note_on_c, 0, 63, 0
2, 354000, Note_on_c, 0, 62, 91
2, 354000, Note_on_c, 0, 74, 91
2, 354120, Note_on_c, 0, 74, 0
2, 354120, Note_on_c, 0, 62, 0
2, 354120, Control_c, 0, 64, 0
2, 354120, Note_on_c, 0, 60, 91
2, 354120, Note_on_c, 0, 72, 91
2, 354240, Note_on_c, 0, 72, 0
2, 354240, Note_on_c, 0, 60, 0
2, 354240, Control_c, 0, 64, 127
2, 354240, Note_on_c, 0, 72, 91
2, 354240, Note_on_c, 0, 84, 91
2, 354360, Note_on_c, 0, 84, 0
2, 354360, Note_on_c, 0, 72, 0
2, 354360, Note_on_c, 0, 70, 91
2, 354360, Note_on_c, 0, 82, 91
2, 354480, Note_on_c, 0, 82, 0
2, 354480, Note_on_c, 0, 70, 0
2, 354480, Note_on_c, 0, 69, 91
2, 354480, Note_on_c, 0, 81, 91
2, 354600, Note_on_c, 0, 81, 0
2, 354600, Note_on_c, 0, 69, 0
2, 354600, Note_on_c, 0, 67, 91
2, 354600, Note_on_c, 0, 79, 91
2, 354720, Note_on_c, 0, 79, 0
2, 354720, Note_on_c, 0, 67, 0
2, 354720, Note_on_c, 0, 65, 91
2, 354720, Note_on_c, 0, 77, 91
2, 354840, Note_on_c, 0, 77, 0
2, 354840, Note_on_c, 0, 65, 0
2, 354840, Note_on_c, 0, 63, 91
2, 354840, Note_on_c, 0, 75, 91
2, 354960, Note_on_c, 0, 75, 0
2, 354960, Note_on_c, 0, 63, 0
2, 354960, Note_on_c, 0, 62, 91
2, 354960, Note_on_c, 0, 74, 91
2, 355080, Note_on_c, 0, 74, 0
2, 355080, Note_on_c, 0, 62, 0
2, 355080, Note_on_c, 0, 60, 91
2, 355080, Note_on_c, 0, 72, 91
2, 355200, Note_on_c, 0, 72, 0
2, 355200, Note_on_c, 0, 60, 0
2, 355200, Note_on_c, 0, 58, 91
2, 355200, Note_on_c, 0, 70, 91
2, 355320, Note_on_c, 0, 70, 0
2, 355320, Note_on_c, 0, 58, 0
2, 355320, Note_on_c, 0, 57, 91
2, 355320, Note_on_c, 0, 69, 91
2, 355440, Note_on_c, 0, 69, 0
2, 355440, Note_on_c, 0, 57, 0
2, 355440, Note_on_c, 0, 55, 91
2, 355440, Note_on_c, 0, 67, 91
2, 355560, Note_on_c, 0, 67, 0
2, 355560, Note_on_c, 0, 55, 0
2, 355560, Control_c, 0, 64, 0
2, 355560, Note_on_c, 0, 53, 91
2, 355560, Note_on_c, 0, 65, 91
2, 355680, Note_on_c, 0, 65, 0
2, 355680, Note_on_c, 0, 53, 0
2, 355680, Control_c, 0, 64, 127
2, 355680, Note_on_c, 0, 51, 91
2, 355680, Note_on_c, 0, 63, 91
2, 355839, Note_on_c, 0, 63, 0
2, 355839, Note_on_c, 0, 51, 0
2, 355839, Note_on_c, 0, 50, 91
2, 355839, Note_on_c, 0, 62, 91
2, 356000, Note_on_c, 0, 62, 0
2, 356000, Note_on_c, 0, 50, 0
2, 356000, Note_on_c, 0, 51, 91
2, 356000, Note_on_c, 0, 63, 91
2, 356160, Note_on_c, 0, 63, 0
2, 356160, Note_on_c, 0, 51, 0
2, 356160, Note_on_c, 0, 53, 91
2, 356160, Note_on_c, 0, 65, 91
2, 356319, Note_on_c, 0, 65, 0
2, 356319, Note_on_c, 0, 53, 0
2, 356319, Note_on_c, 0, 55, 91
2, 356319, Note_on_c, 0, 67, 91
2, 356480, Note_on_c, 0, 67, 0
2, 356480, Note_on_c, 0, 55, 0
2, 356480, Note_on_c, 0, 57, 91
2, 356480, Note_on_c, 0, 69, 91
2, 356640, Note_on_c, 0, 69, 0
2, 356640, Note_on_c, 0, 57, 0
2, 356640, Note_on_c, 0, 58, 91
2, 356640, Note_on_c, 0, 70, 91
2, 356799, Note_on_c, 0, 70, 0
2, 356799, Note_on_c, 0, 58, 0
2, 356799, Note_on_c, 0, 60, 91
2, 356799, Note_on_c, 0, 72, 91
2, 356960, Note_on_c, 0, 72, 0
2, 356960, Note_on_c, 0, 60, 0
2, 356960, Control_c, 0, 64, 0
2, 356960, Note_on_c, 0, 62, 91
2, 356960, Note_on_c, 0, 74, 91
2, 357120, Note_on_c, 0, 74, 0
2, 357120, Note_on_c, 0, 62, 0
2, 357120, Note_on_c, 0, 63, 91
2, 357120, Note_on_c, 0, 75, 91
2, 357279, Note_on_c, 0, 75, 0
2, 357279, Note_on_c, 0, 63, 0
2, 357279, Note_on_c, 0, 65, 91
2, 357279, Note_on_c, 0, 77, 91
2, 357440, Note_on_c, 0, 77, 0
2, 357440, Note_on_c, 0, 65, 0
2, 357440, Note_on_c, 0, 67, 91
2, 357440, Note_on_c, 0, 79, 91
2, 357600, Note_on_c, 0, 79, 0
2, 357600, Note_on_c, 0, 67, 0
2, 357600, Note_on_c, 0, 69, 91
2, 357600, Note_on_c, 0, 81, 91
2, 357759, Note_on_c, 0, 81, 0
2, 357759, Note_on_c, 0, 69, 0
2, 357759, Note_on_c, 0, 70, 91
2, 357759, Note_on_c, 0, 82, 91
2, 357920, Note_on_c, 0, 82, 0
2, 357920, Note_on_c, 0, 70, 0
2, 357920, Note_on_c, 0, 72, 91
2, 357920, Note_on_c, 0, 84, 91
2, 358080, Note_on_c, 0, 84, 0
2, 358080, Note_on_c, 0, 72, 0
2, 358080, Note_on_c, 0, 74, 91
2, 358080, Note_on_c, 0, 86, 91
2, 358239, Note_on_c, 0, 86, 0
2, 358239, Note_on_c, 0, 74, 0
2, 358239, Note_on_c, 0, 75, 91
2, 358239, Note_on_c, 0, 87, 91
2, 358400, Note_on_c, 0, 87, 0
2, 358400, Note_on_c, 0, 75, 0
2, 358400, Note_on_c, 0, 77, 91
2, 358400, Note_on_c, 0, 89, 91
2, 358560, Note_on_c, 0, 89, 0
2, 358560, Note_on_c, 0, 77, 0
2, 358560, Note_on_c, 0, 79, 117
2, 358560, Note_on_c, 0, 91, 117
2, 358719, Note_on_c, 0, 91, 0
2, 358719, Note_on_c, 0, 79, 0
2, 358719, Note_on_c, 0, 77, 117
2, 358719, Note_on_c, 0, 89, 117
2, 358880, Note_on_c, 0, 89, 0
2, 358880, Note_on_c, 0, 77, 0
2, 358880, Note_on_c, 0, 91, 117
2, 358880, Note_on_c, 0, 103, 117
2, 359040, Note_on_c, 0, 103, 0
2, 359040, Note_on_c, 0, 91, 0
2, 359040, Note_on_c, 0, 89, 117
2, 359040, Note_on_c, 0, 101, 117
2, 359199, Note_on_c, 0, 101, 0
2, 359199, Note_on_c, 0, 89, 0
2, 359199, Note_on_c, 0, 79, 117
2, 359199, Note_on_c, 0, 91, 117
2, 359360, Note_on_c, 0, 91, 0
2, 359360, Note_on_c, 0, 79, 0
2, 359360, Note_on_c, 0, 77, 117
2, 359360, Note_on_c, 0, 89, 117
2, 359520, Note_on_c, 0, 89, 0
2, 359520, Note_on_c, 0, 77, 0
2, 359520, Note_on_c, 0, 67, 117
2, 359520, Note_on_c, 0, 79, 117
2, 359679, Note_on_c, 0, 79, 0
2, 359679, Note_on_c, 0, 67, 0
2, 359679, Note_on_c, 0, 65, 117
2, 359679, Note_on_c, 0, 77, 117
2, 359840, Note_on_c, 0, 77, 0
2, 359840, Note_on_c, 0, 65, 0
2, 359840, Note_on_c, 0, 55, 117
2, 359840, Note_on_c, 0, 67, 117
2, 360000, Note_on_c, 0, 67, 0
2, 360000, Note_on_c, 0, 55, 0
2, 360000, Note_on_c, 0, 53, 117
2, 360000, Note_on_c, 0, 65, 117
2, 360159, Note_on_c, 0, 65, 0
2, 360159, Note_on_c, 0, 53, 0
2, 360159, Note_on_c, 0, 67, 117
2, 360159, Note_on_c, 0, 79, 117
2, 360320, Note_on_c, 0, 79, 0
2, 360320, Note_on_c, 0, 67, 0
2, 360320, Note_on_c, 0, 65, 117
2, 360320, Note_on_c, 0, 77, 117
2, 360480, Note_on_c, 0, 77, 0
2, 360480, Note_on_c, 0, 65, 0
2, 360480, Note_on_c, 0, 79, 117
2, 360480, Note_on_c, 0, 91, 117
2, 360639, Note_on_c, 0, 91, 0
2, 360639, Note_on_c, 0, 79, 0
2, 360639, Note_on_c, 0, 77, 117
2, 360639, Note_on_c, 0, 89, 117
2, 360800, Note_on_c, 0, 89, 0
2, 360800, Note_on_c, 0, 77, 0
2, 360800, Note_on_c, 0, 91, 117
2, 360800, Note_on_c, 0, 103, 117
2, 360960, Note_on_c, 0, 103, 0
2, 360960, Note_on_c, 0, 91, 0
2, 360960, Note_on_c, 0, 89, 117
2, 360960, Note_on_c, 0, 101, 117
2, 361119, Note_on_c, 0, 101, 0
2, 361119, Note_on_c, 0, 89, 0
2, 361119, Note_on_c, 0, 91, 117
2, 361119, Note_on_c, 0, 103, 117
2, 361280, Note_on_c, 0, 103, 0
2, 361280, Note_on_c, 0, 91, 0
2, 361280, Note_on_c, 0, 93, 117
2, 361280, Note_on_c, 0, 105, 117
2, 361680, Note_on_c, 0, 65, 117
2, 361680, Note_on_c, 0, 89, 117
2, 361680, Note_on_c, 0, 101, 117
2, 361920, Note_on_c, 0, 105, 0
2, 361920, Note_on_c, 0, 93, 0
2, 362160, Note_on_c, 0, 89, 0
2, 362160, Note_on_c, 0, 65, 0
2, 362160, Note_on_c, 0, 101, 0
2, 362160, Note_on_c, 0, 67, 91
2, 362160, Note_on_c, 0, 91, 91
2, 362160, Note_on_c, 0, 103, 91
2, 362640, Note_on_c, 0, 103, 0
2, 362640, Note_on_c, 0, 91, 0
2, 362640, Note_on_c, 0, 67, 0
2, 362640, Note_on_c, 0, 65, 91
2, 362640, Note_on_c, 0, 89, 91
2, 362640, Note_on_c, 0, 101, 91
2, 363120, Note_on_c, 0, 101, 0
2, 363120, Note_on_c, 0, 89, 0
2, 363120, Note_on_c, 0, 65, 0
2, 363120, Note_on_c, 0, 89, 91
2, 363120, Note_on_c, 0, 94, 91
2, 363120, Note_on_c, 0, 98, 91
2, 363120, Note_on_c, 0, 101, 91
2, 364080, Note_on_c, 0, 101, 0
2, 364080, Note_on_c, 0, 89, 0
2, 364080, Note_on_c, 0, 94, 0
2, 364080, Note_on_c, 0, 98, 0
2, 364080, Note_on_c, 0, 62, 91
2, 364080, Note_on_c, 0, 86, 91
2, 364080, Note_on_c, 0, 89, 91
2, 364080, Note_on_c, 0, 94, 91
2, 364080, Note_on_c, 0, 98, 91
2, 364320, Note_on_c, 0, 98, 0
2, 364320, Note_on_c, 0, 89, 0
2, 364320, Note_on_c, 0, 62, 0
2, 364320, Note_on_c, 0, 86, 0
2, 364320, Note_on_c, 0, 94, 0
2, 364320, Note_on_c, 0, 63, 91
2, 364320, Note_on_c, 0, 87, 91
2, 364320, Note_on_c, 0, 99, 91
2, 364560, Note_on_c, 0, 99, 0
2, 364560, Note_on_c, 0, 87, 0
2, 364560, Note_on_c, 0, 63, 0
2, 364560, Note_on_c, 0, 62, 91
2, 364560, Note_on_c, 0, 86, 91
2, 364560, Note_on_c, 0, 89, 91
2, 364560, Note_on_c, 0, 93, 91
2, 364560, Note_on_c, 0, 98, 91
2, 364800, Note_on_c, 0, 98, 0
2, 364800, Note_on_c, 0, 89, 0
2, 364800, Note_on_c, 0, 62, 0
2, 364800, Note_on_c, 0, 86, 0
2, 364800, Note_on_c, 0, 93, 0
2, 364800, Note_on_c, 0, 65, 91
2, 364800, Note_on_c, 0, 89, 91
2, 364800, Note_on_c, 0, 101, 91
2, 365040, Note_on_c, 0, 101, 0
2, 365040, Note_on_c, 0, 89, 0
2, 365040, Note_on_c, 0, 65, 0
2, 365040, Note_on_c, 0, 60, 91
2, 365040, Note_on_c, 0, 84, 91
2, 365040, Note_on_c, 0, 96, 91
2, 365520, Note_on_c, 0, 96, 0
2, 365520, Note_on_c, 0, 84, 0
2, 365520, Note_on_c, 0, 60, 0
2, 365520, Note_on_c, 0, 60, 91
2, 365520, Note_on_c, 0, 84, 91
2, 365520, Note_on_c, 0, 89, 91
2, 365520, Note_on_c, 0, 93, 91
2, 365520, Note_on_c, 0, 96, 91
2, 365760, Note_on_c, 0, 96, 0
2, 365760, Note_on_c, 0, 89, 0
2, 365760, Note_on_c, 0, 60, 0
2, 365760, Note_on_c, 0, 84, 0
2, 365760, Note_on_c, 0, 93, 0
2, 365760, Note_on_c, 0, 62, 91
2, 365760, Note_on_c, 0, 86, 91
2, 365760, Note_on_c, 0, 98, 91
2, 366000, Note_on_c, 0, 98, 0
2, 366000, Note_on_c, 0, 86, 0
2, 366000, Note_on_c, 0, 62, 0
2, 366000, Note_on_c, 0, 82, 91
2, 366000, Note_on_c, 0, 86, 91
2, 366000, Note_on_c, 0, 89, 91
2, 366000, Note_on_c, 0, 94, 91
2, 366480, Note_on_c, 0, 94, 0
2, 366480, Note_on_c, 0, 82, 0
2, 366480, Note_on_c, 0, 86, 0
2, 366480, Note_on_c, 0, 89, 0
2, 366480, Note_on_c, 0, 79, 91
2, 366480, Note_on_c, 0, 82, 91
2, 366480, Note_on_c, 0, 86, 91
2, 366480, Note_on_c, 0, 91, 91
2, 366720, Note_on_c, 0, 91, 0
2, 366720, Note_on_c, 0, 79, 0
2, 366720, Note_on_c, 0, 82, 0
2, 366720, Note_on_c, 0, 86, 0
2, 366720, Note_on_c, 0, 82, 91
2, 366720, Note_on_c, 0, 94, 91
2, 366960, Note_on_c, 0, 94, 0
2, 366960, Note_on_c, 0, 82, 0
2, 366960, Note_on_c, 0, 77, 91
2, 366960, Note_on_c, 0, 82, 91
2, 366960, Note_on_c, 0, 86, 91
2, 366960, Note_on_c, 0, 89, 91
2, 367440, Note_on_c, 0, 89, 0
2, 367440, Note_on_c, 0, 77, 0
2, 367440, Note_on_c, 0, 82, 0
2, 367440, Note_on_c, 0, 86, 0
2, 367440, Note_on_c, 0, 65, 91
2, 367440, Note_on_c, 0, 89, 91
2, 367440, Note_on_c, 0, 93, 91
2, 367440, Note_on_c, 0, 96, 91
2, 367440, Note_on_c, 0, 101, 91
2, 367920, Note_on_c, 0, 101, 0
2, 367920, Note_on_c, 0, 93, 0
2, 367920, Note_on_c, 0, 65, 0
2, 367920, Note_on_c, 0, 89, 0
2, 367920, Note_on_c, 0, 96, 0
2, 367920, Note_on_c, 0, 67, 91
2, 367920, Note_on_c, 0, 91, 91
2, 367920, Note_on_c, 0, 103, 91
2, 368400, Note_on_c, 0, 103, 0
2, 368400, Note_on_c, 0, 91, 0
2, 368400, Note_on_c, 0, 67, 0
2, 368400, Note_on_c, 0, 65, 91
2, 368400, Note_on_c, 0, 89, 91
2, 368400, Note_on_c, 0, 101, 91
2, 368880, Note_on_c, 0, 101, 0
2, 368880, Note_on_c, 0, 89, 0
2, 368880, Note_on_c, 0, 65, 0
2, 368880, Note_on_c, 0, 94, 91
2, 368880, Note_on_c, 0, 98, 91
2, 368880, Note_on_c, 0, 101, 91
2, 368880, Note_on_c, 0, 106, 91
2, 369840, Note_on_c, 0, 106, 0
2, 369840, Note_on_c, 0, 94, 0
2, 369840, Note_on_c, 0, 98, 0
2, 369840, Note_on_c, 0, 101, 0
2, 369840, Note_on_c, 0, 58, 91
2, 369840, Note_on_c, 0, 82, 91
2, 369840, Note_on_c, 0, 86, 91
2, 369840, Note_on_c, 0, 91, 91
2, 369840, Note_on_c, 0, 94, 91
2, 370080, Note_on_c, 0, 94, 0
2, 370080, Note_on_c, 0, 86, 0
2, 370080, Note_on_c, 0, 58, 0
2, 370080, Note_on_c, 0, 82, 0
2, 370080, Note_on_c, 0, 91, 0
2, 370080, Note_on_c, 0, 60, 91
2, 370080, Note_on_c, 0, 84, 91
2, 370080, Note_on_c, 0, 96, 91
2, 370320, Note_on_c, 0, 96, 0
2, 370320, Note_on_c, 0, 84, 0
2, 370320, Note_on_c, 0, 60, 0
2, 370320, Note_on_c, 0, 62, 91
2, 370320, Note_on_c, 0, 86, 91
2, 370320, Note_on_c, 0, 93, 91
2, 370320, Note_on_c, 0, 96, 91
2, 370320, Note_on_c, 0, 98, 91
2, 370560, Note_on_c, 0, 98, 0
2, 370560, Note_on_c, 0, 93, 0
2, 370560, Note_on_c, 0, 62, 0
2, 370560, Note_on_c, 0, 86, 0
2, 370560, Note_on_c, 0, 96, 0
2, 370560, Note_on_c, 0, 63, 91
2, 370560, Note_on_c, 0, 87, 91
2, 370560, Note_on_c, 0, 99, 91
2, 370800, Note_on_c, 0, 99, 0
2, 370800, Note_on_c, 0, 87, 0
2, 370800, Note_on_c, 0, 63, 0
2, 370800, Note_on_c, 0, 62, 91
2, 370800, Note_on_c, 0, 86, 91
2, 370800, Note_on_c, 0, 93, 91
2, 370800, Note_on_c, 0, 96, 91
2, 370800, Note_on_c, 0, 98, 91
2, 371280, Note_on_c, 0, 98, 0
2, 371280, Note_on_c, 0, 93, 0
2, 371280, Note_on_c, 0, 62, 0
2, 371280, Note_on_c, 0, 86, 0
2, 371280, Note_on_c, 0, 96, 0
2, 371280, Note_on_c, 0, 58, 91
2, 371280, Note_on_c, 0, 82, 91
2, 371280, Note_on_c, 0, 86, 91
2, 371280, Note_on_c, 0, 91, 91
2, 371280, Note_on_c, 0, 94, 91
2, 371520, Note_on_c, 0, 94, 0
2, 371520, Note_on_c, 0, 86, 0
2, 371520, Note_on_c, 0, 58, 0
2, 371520, Note_on_c, 0, 82, 0
2, 371520, Note_on_c, 0, 91, 0
2, 371520, Note_on_c, 0, 60, 91
2, 371520, Note_on_c, 0, 84, 91
2, 371520, Note_on_c, 0, 96, 91
2, 371760, Note_on_c, 0, 96, 0
2, 371760, Note_on_c, 0, 84, 0
2, 371760, Note_on_c, 0, 60, 0
2, 371760, Note_on_c, 0, 62, 91
2, 371760, Note_on_c, 0, 86, 91
2, 371760, Note_on_c, 0, 93, 91
2, 371760, Note_on_c, 0, 96, 91
2, 371760, Note_on_c, 0, 98, 91
2, 372000, Note_on_c, 0, 98, 0
2, 372000, Note_on_c, 0, 93, 0
2, 372000, Note_on_c, 0, 62, 0
2, 372000, Note_on_c, 0, 86, 0
2, 372000, Note_on_c, 0, 96, 0
2, 372000, Note_on_c, 0, 63, 91
2, 372000, Note_on_c, 0, 87, 91
2, 372000, Note_on_c, 0, 99, 91
2, 372240, Note_on_c, 0, 99, 0
2, 372240, Note_on_c, 0, 87, 0
2, 372240, Note_on_c, 0, 63, 0
2, 372240, Note_on_c, 0, 62, 91
2, 372240, Note_on_c, 0, 86, 91
2, 372240, Note_on_c, 0, 93, 91
2, 372240, Note_on_c, 0, 96, 91
2, 372240, Note_on_c, 0, 98, 91
2, 372720, Note_on_c, 0, 98, 0
2, 372720, Note_on_c, 0, 93, 0
2, 372720, Note_on_c, 0, 62, 0
2, 372720, Note_on_c, 0, 86, 0
2, 372720, Note_on_c, 0, 96, 0
2, 372720, Note_on_c, 0, 62, 91
2, 372720, Note_on_c, 0, 86, 91
2, 372720, Note_on_c, 0, 91, 91
2, 372720, Note_on_c, 0, 94, 91
2, 372720, Note_on_c, 0, 98, 91
2, 372960, Note_on_c, 0, 98, 0
2, 372960, Note_on_c, 0, 91, 0
2, 372960, Note_on_c, 0, 62, 0
2, 372960, Note_on_c, 0, 86, 0
2, 372960, Note_on_c, 0, 94, 0
2, 372960, Note_on_c, 0, 63, 91
2, 372960, Note_on_c, 0, 87, 91
2, 372960, Note_on_c, 0, 99, 91
2, 373200, Note_on_c, 0, 99, 0
2, 373200, Note_on_c, 0, 87, 0
2, 373200, Note_on_c, 0, 63, 0
2, 373200, Note_on_c, 0, 65, 91
2, 373200, Note_on_c, 0, 89, 91
2, 373200, Note_on_c, 0, 96, 91
2, 373200, Note_on_c, 0, 99, 91
2, 373200, Note_on_c, 0, 101, 91
2, 373440, Note_on_c, 0, 101, 0
2, 373440, Note_on_c, 0, 96, 0
2, 373440, Note_on_c, 0, 65, 0
2, 373440, Note_on_c, 0, 89, 0
2, 373440, Note_on_c, 0, 99, 0
2, 373440, Note_on_c, 0, 67, 91
2, 373440, Note_on_c, 0, 91, 91
2, 373440, Note_on_c, 0, 103, 91
2, 373680, Note_on_c, 0, 103, 0
2, 373680, Note_on_c, 0, 91, 0
2, 373680, Note_on_c, 0, 67, 0
2, 373680, Note_on_c, 0, 65, 91
2, 373680, Note_on_c, 0, 89, 91
2, 373680, Note_on_c, 0, 96, 91
2, 373680, Note_on_c, 0, 99, 91
2, 373680, Note_on_c, 0, 101, 91
2, 374160, Note_on_c, 0, 101, 0
2, 374160, Note_on_c, 0, 96, 0
2, 374160, Note_on_c, 0, 65, 0
2, 374160, Note_on_c, 0, 89, 0
2, 374160, Note_on_c, 0, 99, 0
2, 374160, Note_on_c, 0, 62, 91
2, 374160, Note_on_c, 0, 86, 91
2, 374160, Note_on_c, 0, 89, 91
2, 374160, Note_on_c, 0, 94, 91
2, 374160, Note_on_c, 0, 98, 91
2, 374400, Note_on_c, 0, 98, 0
2, 374400, Note_on_c, 0, 89, 0
2, 374400, Note_on_c, 0, 62, 0
2, 374400, Note_on_c, 0, 86, 0
2, 374400, Note_on_c, 0, 94, 0
2, 374400, Note_on_c, 0, 63, 91
2, 374400, Note_on_c, 0, 87, 91
2, 374400, Note_on_c, 0, 99, 91
2, 374640, Note_on_c, 0, 99, 0
2, 374640, Note_on_c, 0, 87, 0
2, 374640, Note_on_c, 0, 63, 0
2, 374640, Note_on_c, 0, 65, 91
2, 374640, Note_on_c, 0, 89, 91
2, 374640, Note_on_c, 0, 96, 91
2, 374640, Note_on_c, 0, 99, 91
2, 374640, Note_on_c, 0, 101, 91
2, 374880, Note_on_c, 0, 101, 0
2, 374880, Note_on_c, 0, 96, 0
2, 374880, Note_on_c, 0, 65, 0
2, 374880, Note_on_c, 0, 89, 0
2, 374880, Note_on_c, 0, 99, 0
2, 374880, Note_on_c, 0, 67, 91
2, 374880, Note_on_c, 0, 91, 91
2, 374880, Note_on_c, 0, 103, 91
2, 375120, Note_on_c, 0, 103, 0
2, 375120, Note_on_c, 0, 91, 0
2, 375120, Note_on_c, 0, 67, 0
2, 375120, Note_on_c, 0, 65, 91
2, 375120, Note_on_c, 0, 89, 91
2, 375120, Note_on_c, 0, 96, 91
2, 375120, Note_on_c, 0, 99, 91
2, 375120, Note_on_c, 0, 101, 91
2, 375600, Note_on_c, 0, 101, 0
2, 375600, Note_on_c, 0, 96, 0
2, 375600, Note_on_c, 0, 65, 0
2, 375600, Note_on_c, 0, 89, 0
2, 375600, Note_on_c, 0, 99, 0
2, 375600, Note_on_c, 0, 65, 91
2, 375600, Note_on_c, 0, 89, 91
2, 375600, Note_on_c, 0, 98, 91
2, 375600, Note_on_c, 0, 101, 91
2, 375840, Note_on_c, 0, 101, 0
2, 375840, Note_on_c, 0, 65, 0
2, 375840, Note_on_c, 0, 89, 0
2, 375840, Note_on_c, 0, 98, 0
2, 375840, Note_on_c, 0, 67, 91
2, 375840, Note_on_c, 0, 91, 91
2, 375840, Note_on_c, 0, 103, 91
2, 376080, Note_on_c, 0, 103, 0
2, 376080, Note_on_c, 0, 91, 0
2, 376080, Note_on_c, 0, 67, 0
2, 376080, Note_on_c, 0, 69, 91
2, 376080, Note_on_c, 0, 93, 91
2, 376080, Note_on_c, 0, 100, 91
2, 376080, Note_on_c, 0, 103, 91
2, 376080, Note_on_c, 0, 105, 91
2, 376320, Note_on_c, 0, 105, 0
2, 376320, Note_on_c, 0, 100, 0
2, 376320, Note_on_c, 0, 69, 0
2, 376320, Note_on_c, 0, 93, 0
2, 376320, Note_on_c, 0, 103, 0
2, 376320, Note_on_c, 0, 70, 91
2, 376320, Note_on_c, 0, 94, 91
2, 376320, Note_on_c, 0, 106, 91
2, 376560, Note_on_c, 0, 106, 0
2, 376560, Note_on_c, 0, 94, 0
2, 376560, Note_on_c, 0, 70, 0
2, 376560, Note_on_c, 0, 69, 91
2, 376560, Note_on_c, 0, 93, 91
2, 376560, Note_on_c, 0, 100, 91
2, 376560, Note_on_c, 0, 103, 91
2, 376560, Note_on_c, 0, 105, 91
2, 377040, Note_on_c, 0, 105, 0
2, 377040, Note_on_c, 0, 100, 0
2, 377040, Note_on_c, 0, 69, 0
2, 377040, Note_on_c, 0, 93, 0
2, 377040, Note_on_c, 0, 103, 0
2, 377040, Note_on_c, 0, 65, 91
2, 377040, Note_on_c, 0, 89, 91
2, 377040, Note_on_c, 0, 101, 91
2, 377280, Note_on_c, 0, 101, 0
2, 377280, Note_on_c, 0, 89, 0
2, 377280, Note_on_c, 0, 65, 0
2, 377280, Note_on_c, 0, 67, 91
2, 377280, Note_on_c, 0, 91, 91
2, 377280, Note_on_c, 0, 103, 91
2, 377520, Note_on_c, 0, 103, 0
2, 377520, Note_on_c, 0, 91, 0
2, 377520, Note_on_c, 0, 67, 0
2, 377520, Note_on_c, 0, 93, 91
2, 377520, Note_on_c, 0, 100, 91
2, 377520, Note_on_c, 0, 103, 91
2, 377520, Note_on_c, 0, 105, 91
2, 378000, Note_on_c, 0, 105, 0
2, 378000, Note_on_c, 0, 93, 0
2, 378000, Note_on_c, 0, 100, 0
2, 378000, Note_on_c, 0, 103, 0
2, 378000, Note_on_c, 0, 86, 91
2, 378000, Note_on_c, 0, 98, 91
2, 378240, Note_on_c, 0, 98, 0
2, 378240, Note_on_c, 0, 86, 0
2, 378240, Note_on_c, 0, 93, 91
2, 378240, Note_on_c, 0, 105, 91
2, 378480, Note_on_c, 0, 105, 0
2, 378480, Note_on_c, 0, 93, 0
2, 378480, Note_on_c, 0, 91, 91
2, 378480, Note_on_c, 0, 103, 91
2, 378960, Note_on_c, 0, 103, 0
2, 378960, Note_on_c, 0, 91, 0
2, 378960, Note_on_c, 0, 84, 91
2, 378960, Note_on_c, 0, 96, 91
2, 379200, Note_on_c, 0, 96, 0
2, 379200, Note_on_c, 0, 84, 0
2, 379200, Note_on_c, 0, 91, 91
2, 379200, Note_on_c, 0, 103, 91
2, 379440, Note_on_c, 0, 103, 0
2, 379440, Note_on_c, 0, 91, 0
2, 379440, Note_on_c, 0, 89, 91
2, 379440, Note_on_c, 0, 101, 91
2, 379920, Note_on_c, 0, 101, 0
2, 379920, Note_on_c, 0, 89, 0
2, 379920, Note_on_c, 0, 82, 91
2, 379920, Note_on_c, 0, 94, 91
2, 380160, Note_on_c, 0, 94, 0
2, 380160, Note_on_c, 0, 82, 0
2, 380160, Note_on_c, 0, 89, 91
2, 380160, Note_on_c, 0, 101, 91
2, 380400, Note_on_c, 0, 101, 0
2, 380400, Note_on_c, 0, 89, 0
2, 380400, Note_on_c, 0, 87, 91
2, 380400, Note_on_c, 0, 99, 91
2, 380880, Note_on_c, 0, 99, 0
2, 380880, Note_on_c, 0, 87, 0
2, 380880, Note_on_c, 0, 81, 91
2, 380880, Note_on_c, 0, 93, 91
2, 381120, Note_on_c, 0, 93, 0
2, 381120, Note_on_c, 0, 81, 0
2, 381120, Note_on_c, 0, 87, 91
2, 381120, Note_on_c, 0, 99, 91
2, 381360, Note_on_c, 0, 99, 0
2, 381360, Note_on_c, 0, 87, 0
2, 381360, Note_on_c, 0, 86, 91
2, 381360, Note_on_c, 0, 98, 91
2, 381840, Note_on_c, 0, 98, 0
2, 381840, Note_on_c, 0, 86, 0
2, 381840, Note_on_c, 0, 79, 91
2, 381840, Note_on_c, 0, 91, 91
2, 382080, Note_on_c, 0, 91, 0
2, 382080, Note_on_c, 0, 79, 0
2, 382080, Note_on_c, 0, 86, 91
2, 382080, Note_on_c, 0, 98, 91
2, 382320, Note_on_c, 0, 98, 0
2, 382320, Note_on_c, 0, 86, 0
2, 382320, Note_on_c, 0, 84, 91
2, 382320, Note_on_c, 0, 91, 91
2, 382320, Note_on_c, 0, 94, 91
2, 382320, Note_on_c, 0, 96, 91
2, 382800, Note_on_c, 0, 96, 0
2, 382800, Note_on_c, 0, 84, 0
2, 382800, Note_on_c, 0, 91, 0
2, 382800, Note_on_c, 0, 94, 0
2, 382800, Note_on_c, 0, 91, 91
2, 382800, Note_on_c, 0, 94, 91
2, 382800, Note_on_c, 0, 97, 91
2, 382800, Note_on_c, 0, 103, 91
2, 383280, Note_on_c, 0, 103, 0
2, 383280, Note_on_c, 0, 91, 0
2, 383280, Note_on_c, 0, 94, 0
2, 383280, Note_on_c, 0, 97, 0
2, 383280, Note_on_c, 0, 89, 91
2, 383280, Note_on_c, 0, 94, 91
2, 383280, Note_on_c, 0, 98, 91
2, 383280, Note_on_c, 0, 101, 91
2, 383760, Note_on_c, 0, 101, 0
2, 383760, Note_on_c, 0, 89, 0
2, 383760, Note_on_c, 0, 94, 0
2, 383760, Note_on_c, 0, 98, 0
2, 389520, Note_on_c, 0, 69, 91
2, 389520, Note_on_c, 0, 72, 91
2, 389520, Note_on_c, 0, 74, 91
2, 389543, Note_on_c, 0, 74, 0
2, 389543, Note_on_c, 0, 72, 0
2, 389543, Note_on_c, 0, 69, 0
2, 389640, Note_on_c, 0, 62, 91
2, 389760, Note_on_c, 0, 62, 0
2, 389760, Note_on_c, 0, 61, 91
2, 389880, Note_on_c, 0, 61, 0
2, 389880, Note_on_c, 0, 62, 91
2, 390000, Note_on_c, 0, 62, 0
2, 390000, Note_on_c, 0, 67, 91
2, 390000, Note_on_c, 0, 70, 91
2, 390000, Note_on_c, 0, 74, 91
2, 390023, Note_on_c, 0, 74, 0
2, 390023, Note_on_c, 0, 70, 0
2, 390023, Note_on_c, 0, 67, 0
2, 390120, Note_on_c, 0, 62, 91
2, 390240, Note_on_c, 0, 62, 0
2, 390240, Note_on_c, 0, 61, 91
2, 390360, Note_on_c, 0, 61, 0
2, 390360, Note_on_c, 0, 62, 91
2, 390480, Note_on_c, 0, 62, 0
2, 390480, Note_on_c, 0, 72, 91
2, 390480, Note_on_c, 0, 75, 91
2, 390480, Note_on_c, 0, 77, 91
2, 390503, Note_on_c, 0, 77, 0
2, 390503, Note_on_c, 0, 75, 0
2, 390503, Note_on_c, 0, 72, 0
2, 390600, Note_on_c, 0, 65, 91
2, 390720, Note_on_c, 0, 65, 0
2, 390720, Note_on_c, 0, 64, 91
2, 390840, Note_on_c, 0, 64, 0
2, 390840, Note_on_c, 0, 65, 91
2, 390960, Note_on_c, 0, 65, 0
2, 390960, Note_on_c, 0, 70, 91
2, 390960, Note_on_c, 0, 74, 91
2, 390960, Note_on_c, 0, 77, 91
2, 390983, Note_on_c, 0, 77, 0
2, 390983, Note_on_c, 0, 74, 0
2, 390983, Note_on_c, 0, 70, 0
2, 391080, Note_on_c, 0, 65, 91
2, 391200, Note_on_c, 0, 65, 0
2, 391200, Note_on_c, 0, 64, 91
2, 391320, Note_on_c, 0, 64, 0
2, 391320, Note_on_c, 0, 65, 91
2, 391440, Note_on_c, 0, 65, 0
2, 391440, Note_on_c, 0, 76, 91
2, 391440, Note_on_c, 0, 79, 91
2, 391440, Note_on_c, 0, 81, 91
2, 391463, Note_on_c, 0, 81, 0
2, 391463, Note_on_c, 0, 79, 0
2, 391463, Note_on_c, 0, 76, 0
2, 391560, Note_on_c, 0, 69, 91
2, 391680, Note_on_c, 0, 69, 0
2, 391680, Note_on_c, 0, 68, 91
2, 391800, Note_on_c, 0, 68, 0
2, 391800, Note_on_c, 0, 69, 91
2, 391920, Note_on_c, 0, 69, 0
2, 391920, Note_on_c, 0, 74, 91
2, 391920, Note_on_c, 0, 77, 91
2, 391920, Note_on_c, 0, 81, 91
2, 391943, Note_on_c, 0, 81, 0
2, 391943, Note_on_c, 0, 77, 0
2, 391943, Note_on_c, 0, 74, 0
2, 392040, Note_on_c, 0, 69, 91
2, 392160, Note_on_c, 0, 69, 0
2, 392160, Note_on_c, 0, 68, 91
2, 392280, Note_on_c, 0, 68, 0
2, 392280, Note_on_c, 0, 69, 91
2, 392400, Note_on_c, 0, 69, 0
2, 393360, Control_c, 0, 64, 127
2, 393360, Note_on_c, 0, 82, 91
2, 393360, Note_on_c, 0, 86, 91
2, 393360, Note_on_c, 0, 89, 91
2, 393480, Note_on_c, 0, 89, 0
2, 393480, Note_on_c, 0, 86, 0
2, 393480, Note_on_c, 0, 82, 0
2, 393480, Note_on_c, 0, 77, 91
2, 393600, Note_on_c, 0, 77, 0
2, 393600, Note_on_c, 0, 70, 91
2, 393600, Note_on_c, 0, 74, 91
2, 393600, Note_on_c, 0, 77, 91
2, 393720, Note_on_c, 0, 77, 0
2, 393720, Note_on_c, 0, 74, 0
2, 393720, Note_on_c, 0, 70, 0
2, 393720, Note_on_c, 0, 65, 91
2, 393840, Note_on_c, 0, 65, 0
2, 393840, Note_on_c, 0, 70, 91
2, 393840, Note_on_c, 0, 74, 91
2, 393840, Note_on_c, 0, 77, 91
2, 393960, Note_on_c, 0, 77, 0
2, 393960, Note_on_c, 0, 74, 0
2, 393960, Note_on_c, 0, 70, 0
2, 393960, Note_on_c, 0, 65, 91
2, 394080, Note_on_c, 0, 65, 0
2, 394080, Note_on_c, 0, 58, 91
2, 394080, Note_on_c, 0, 62, 91
2, 394080, Note_on_c, 0, 65, 91
2, 394200, Note_on_c, 0, 65, 0
2, 394200, Note_on_c, 0, 62, 0
2, 394200, Note_on_c, 0, 58, 0
2, 394200, Note_on_c, 0, 53, 91
2, 394320, Note_on_c, 0, 53, 0
2, 394320, Note_on_c, 0, 60, 91
2, 394320, Note_on_c, 0, 63, 91
2, 394320, Note_on_c, 0, 65, 91
2, 394440, Note_on_c, 0, 65, 0
2, 394440, Note_on_c, 0, 63, 0
2, 394440, Note_on_c, 0, 60, 0
2, 394440, Note_on_c, 0, 53, 91
2, 394560, Note_on_c, 0, 53, 0
2, 394560, Note_on_c, 0, 48, 91
2, 394560, Note_on_c, 0, 51, 91
2, 394560, Note_on_c, 0, 53, 91
2, 394680, Note_on_c, 0, 53, 0
2, 394680, Note_on_c, 0, 51, 0
2, 394680, Note_on_c, 0, 48, 0
2, 394680, Control_c, 0, 64, 0
2, 394680, Note_on_c, 0, 41, 91
2, 394800, Note_on_c, 0, 41, 0
2, 394800, Note_on_c, 0, 58, 91
2, 394800, Note_on_c, 0, 62, 91
2, 394800, Note_on_c, 0, 65, 91
2, 394920, Note_on_c, 0, 65, 0
2, 394920, Note_on_c, 0, 62, 0
2, 394920, Note_on_c, 0, 58, 0
2, 394920, Note_on_c, 0, 53, 91
2, 395040, Note_on_c, 0, 53, 0
2, 395160, Note_on_c, 0, 62, 91
2, 395280, Note_on_c, 0, 62, 0
2, 395280, Note_on_c, 0, 69, 91
2, 395280, Note_on_c, 0, 72, 91
2, 395280, Note_on_c, 0, 74, 91
2, 395303, Note_on_c, 0, 74, 0
2, 395303, Note_on_c, 0, 72, 0
2, 395303, Note_on_c, 0, 69, 0
2, 395400, Note_on_c, 0, 62, 91
2, 395520, Note_on_c, 0, 62, 0
2, 395520, Note_on_c, 0, 61, 91
2, 395640, Note_on_c, 0, 61, 0
2, 395640, Note_on_c, 0, 62, 91
2, 395760, Note_on_c, 0, 62, 0
2, 395760, Note_on_c, 0, 67, 91
2, 395760, Note_on_c, 0, 70, 91
2, 395760, Note_on_c, 0, 74, 91
2, 395783, Note_on_c, 0, 74, 0
2, 395783, Note_on_c, 0, 70, 0
2, 395783, Note_on_c, 0, 67, 0
2, 395880, Note_on_c, 0, 62, 91
2, 396000, Note_on_c, 0, 62, 0
2, 396000, Note_on_c, 0, 61, 91
2, 396120, Note_on_c, 0, 61, 0
2, 396120, Note_on_c, 0, 62, 91
2, 396240, Note_on_c, 0, 62, 0
2, 396240, Note_on_c, 0, 72, 91
2, 396240, Note_on_c, 0, 75, 91
2, 396240, Note_on_c, 0, 77, 91
2, 396263, Note_on_c, 0, 77, 0
2, 396263, Note_on_c, 0, 75, 0
2, 396263, Note_on_c, 0, 72, 0
2, 396360, Note_on_c, 0, 65, 91
2, 396480, Note_on_c, 0, 65, 0
2, 396480, Note_on_c, 0, 64, 91
2, 396600, Note_on_c, 0, 64, 0
2, 396600, Note_on_c, 0, 65, 91
2, 396720, Note_on_c, 0, 65, 0
2, 396720, Note_on_c, 0, 70, 91
2, 396720, Note_on_c, 0, 74, 91
2, 396720, Note_on_c, 0, 77, 91
2, 396743, Note_on_c, 0, 77, 0
2, 396743, Note_on_c, 0, 74, 0
2, 396743, Note_on_c, 0, 70, 0
2, 396840, Note_on_c, 0, 65, 91
2, 396960, Note_on_c, 0, 65, 0
2, 396960, Note_on_c, 0, 64, 91
2, 397080, Note_on_c, 0, 64, 0
2, 397080, Note_on_c, 0, 65, 91
2, 397200, Note_on_c, 0, 65, 0
2, 397200, Note_on_c, 0, 76, 91
2, 397200, Note_on_c, 0, 79, 91
2, 397200, Note_on_c, 0, 81, 91
2, 397223, Note_on_c, 0, 81, 0
2, 397223, Note_on_c, 0, 79, 0
2, 397223, Note_on_c, 0, 76, 0
2, 397320, Note_on_c, 0, 69, 91
2, 397440, Note_on_c, 0, 69, 0
2, 397440, Note_on_c, 0, 68, 91
2, 397560, Note_on_c, 0, 68, 0
2, 397560, Note_on_c, 0, 69, 91
2, 397680, Note_on_c, 0, 69, 0
2, 397680, Note_on_c, 0, 74, 91
2, 397680, Note_on_c, 0, 77, 91
2, 397680, Note_on_c, 0, 81, 91
2, 397703, Note_on_c, 0, 81, 0
2, 397703, Note_on_c, 0, 77, 0
2, 397703, Note_on_c, 0, 74, 0
2, 397800, Note_on_c, 0, 69, 91
2, 397920, Note_on_c, 0, 69, 0
2, 397920, Note_on_c, 0, 68, 91
2, 398040, Note_on_c, 0, 68, 0
2, 398040, Note_on_c, 0, 69, 91
2, 398160, Note_on_c, 0, 69, 0
2, 399120, Control_c, 0, 64, 127
2, 399120, Note_on_c, 0, 82, 91
2, 399120, Note_on_c, 0, 86, 91
2, 399120, Note_on_c, 0, 89, 91
2, 399240, Note_on_c, 0, 89, 0
2, 399240, Note_on_c, 0, 86, 0
2, 399240, Note_on_c, 0, 82, 0
2, 399240, Note_on_c, 0, 77, 91
2, 399360, Note_on_c, 0, 77, 0
2, 399360, Note_on_c, 0, 70, 91
2, 399360, Note_on_c, 0, 74, 91
2, 399360, Note_on_c, 0, 77, 91
2, 399480, Note_on_c, 0, 77, 0
2, 399480, Note_on_c, 0, 74, 0
2, 399480, Note_on_c, 0, 70, 0
2, 399480, Note_on_c, 0, 65, 91
2, 399600, Note_on_c, 0, 65, 0
2, 399600, Note_on_c, 0, 70, 91
2, 399600, Note_on_c, 0, 74, 91
2, 399600, Note_on_c, 0, 77, 91
2, 399720, Note_on_c, 0, 77, 0
2, 399720, Note_on_c, 0, 74, 0
2, 399720, Note_on_c, 0, 70, 0
2, 399720, Note_on_c, 0, 65, 91
2, 399840, Note_on_c, 0, 65, 0
2, 399840, Note_on_c, 0, 58, 91
2, 399840, Note_on_c, 0, 62, 91
2, 399840, Note_on_c, 0, 65, 91
2, 399960, Note_on_c, 0, 65, 0
2, 399960, Note_on_c, 0, 62, 0
2, 399960, Note_on_c, 0, 58, 0
2, 399960, Note_on_c, 0, 53, 91
2, 400080, Note_on_c, 0, 53, 0
2, 400080, Note_on_c, 0, 60, 91
2, 400080, Note_on_c, 0, 63, 91
2, 400080, Note_on_c, 0, 65, 91
2, 400200, Note_on_c, 0, 65, 0
2, 400200, Note_on_c, 0, 63, 0
2, 400200, Note_on_c, 0, 60, 0
2, 400200, Note_on_c, 0, 53, 91
2, 400320, Note_on_c, 0, 53, 0
2, 400320, Note_on_c, 0, 48, 91
2, 400320, Note_on_c, 0, 51, 91
2, 400320, Note_on_c, 0, 53, 91
2, 400440, Note_on_c, 0, 53, 0
2, 400440, Note_on_c, 0, 51, 0
2, 400440, Note_on_c, 0, 48, 0
2, 400440, Control_c, 0, 64, 0
2, 400440, Note_on_c, 0, 41, 91
2, 400560, Note_on_c, 0, 41, 0
2, 400560, Control_c, 0, 64, 127
2, 400560, Note_on_c, 0, 83, 91
2, 400560, Note_on_c, 0, 86, 91
2, 400560, Note_on_c, 0, 91, 91
2, 400680, Note_on_c, 0, 91, 0
2, 400680, Note_on_c, 0, 86, 0
2, 400680, Note_on_c, 0, 83, 0
2, 400680, Note_on_c, 0, 79, 91
2, 400800, Note_on_c, 0, 79, 0
2, 400800, Note_on_c, 0, 71, 91
2, 400800, Note_on_c, 0, 74, 91
2, 400800, Note_on_c, 0, 79, 91
2, 400920, Note_on_c, 0, 79, 0
2, 400920, Note_on_c, 0, 74, 0
2, 400920, Note_on_c, 0, 71, 0
2, 400920, Note_on_c, 0, 67, 91
2, 401040, Note_on_c, 0, 67, 0
2, 401040, Note_on_c, 0, 71, 91
2, 401040, Note_on_c, 0, 74, 91
2, 401040, Note_on_c, 0, 79, 91
2, 401160, Note_on_c, 0, 79, 0
2, 401160, Note_on_c, 0, 74, 0
2, 401160, Note_on_c, 0, 71, 0
2, 401160, Note_on_c, 0, 67, 91
2, 401280, Note_on_c, 0, 67, 0
2, 401280, Note_on_c, 0, 59, 91
2, 401280, Note_on_c, 0, 62, 91
2, 401280, Note_on_c, 0, 67, 91
2, 401400, Note_on_c, 0, 67, 0
2, 401400, Note_on_c, 0, 62, 0
2, 401400, Note_on_c, 0, 59, 0
2, 401400, Note_on_c, 0, 55, 91
2, 401520, Note_on_c, 0, 55, 0
2, 401520, Note_on_c, 0, 59, 91
2, 401520, Note_on_c, 0, 62, 91
2, 401520, Note_on_c, 0, 67, 91
2, 401640, Note_on_c, 0, 67, 0
2, 401640, Note_on_c, 0, 62, 0
2, 401640, Note_on_c, 0, 59, 0
2, 401640, Note_on_c, 0, 55, 91
2, 401760, Note_on_c, 0, 55, 0
2, 401760, Note_on_c, 0, 47, 91
2, 401760, Note_on_c, 0, 50, 91
2, 401760, Note_on_c, 0, 55, 91
2, 401880, Note_on_c, 0, 55, 0
2, 401880, Note_on_c, 0, 50, 0
2, 401880, Note_on_c, 0, 47, 0
2, 401880, Control_c, 0, 64, 0
2, 401880, Note_on_c, 0, 39, 91
2, 402000, Note_on_c, 0, 39, 0
2, 402000, Control_c, 0, 64, 127
2, 402000, Note_on_c, 0, 84, 91
2, 402000, Note_on_c, 0, 87, 91
2, 402000, Note_on_c, 0, 91, 91
2, 402120, Note_on_c, 0, 91, 0
2, 402120, Note_on_c, 0, 87, 0
2, 402120, Note_on_c, 0, 84, 0
2, 402120, Note_on_c, 0, 79, 91
2, 402240, Note_on_c, 0, 79, 0
2, 402240, Note_on_c, 0, 72, 91
2, 402240, Note_on_c, 0, 75, 91
2, 402240, Note_on_c, 0, 79, 91
2, 402360, Note_on_c, 0, 79, 0
2, 402360, Note_on_c, 0, 75, 0
2, 402360, Note_on_c, 0, 72, 0
2, 402360, Note_on_c, 0, 67, 91
2, 402480, Note_on_c, 0, 67, 0
2, 402480, Note_on_c, 0, 72, 91
2, 402480, Note_on_c, 0, 75, 91
2, 402480, Note_on_c, 0, 79, 91
2, 402600, Note_on_c, 0, 79, 0
2, 402600, Note_on_c, 0, 75, 0
2, 402600, Note_on_c, 0, 72, 0
2, 402600, Note_on_c, 0, 67, 91
2, 402720, Note_on_c, 0, 67, 0
2, 402720, Note_on_c, 0, 60, 91
2, 402720, Note_on_c, 0, 63, 91
2, 402720, Note_on_c, 0, 67, 91
2, 402840, Note_on_c, 0, 67, 0
2, 402840, Note_on_c, 0, 63, 0
2, 402840, Note_on_c, 0, 60, 0
2, 402840, Note_on_c, 0, 55, 91
2, 402960, Note_on_c, 0, 55, 0
2, 402960, Note_on_c, 0, 60, 91
2, 402960, Note_on_c, 0, 63, 91
2, 402960, Note_on_c, 0, 67, 91
2, 403080, Note_on_c, 0, 67, 0
2, 403080, Note_on_c, 0, 63, 0
2, 403080, Note_on_c, 0, 60, 0
2, 403080, Note_on_c, 0, 55, 91
2, 403200, Note_on_c, 0, 55, 0
2, 403200, Note_on_c, 0, 48, 91
2, 403200, Note_on_c, 0, 51, 91
2, 403200, Note_on_c, 0, 55, 91
2, 403320, Note_on_c, 0, 55, 0
2, 403320, Note_on_c, 0, 51, 0
2, 403320, Note_on_c, 0, 48, 0
2, 403320, Control_c, 0, 64, 0
2, 403320, Note_on_c, 0, 41, 91
2, 403440, Note_on_c, 0, 41, 0
2, 403440, Control_c, 0, 64, 127
2, 403440, Note_on_c, 0, 84, 91
2, 403440, Note_on_c, 0, 87, 91
2, 403440, Note_on_c, 0, 93, 91
2, 403560, Note_on_c, 0, 93, 0
2, 403560, Note_on_c, 0, 87, 0
2, 403560, Note_on_c, 0, 84, 0
2, 403560, Note_on_c, 0, 81, 91
2, 403680, Note_on_c, 0, 81, 0
2, 403680, Note_on_c, 0, 72, 91
2, 403680, Note_on_c, 0, 75, 91
2, 403680, Note_on_c, 0, 81, 91
2, 403800, Note_on_c, 0, 81, 0
2, 403800, Note_on_c, 0, 75, 0
2, 403800, Note_on_c, 0, 72, 0
2, 403800, Note_on_c, 0, 69, 91
2, 403920, Note_on_c, 0, 69, 0
2, 403920, Note_on_c, 0, 72, 91
2, 403920, Note_on_c, 0, 75, 91
2, 403920, Note_on_c, 0, 81, 91
2, 404040, Note_on_c, 0, 81, 0
2, 404040, Note_on_c, 0, 75, 0
2, 404040, Note_on_c, 0, 72, 0
2, 404040, Note_on_c, 0, 69, 91
2, 404160, Note_on_c, 0, 69, 0
2, 404160, Note_on_c, 0, 60, 91
2, 404160, Note_on_c, 0, 63, 91
2, 404160, Note_on_c, 0, 69, 91
2, 404280, Note_on_c, 0, 69, 0
2, 404280, Note_on_c, 0, 63, 0
2, 404280, Note_on_c, 0, 60, 0
2, 404280, Note_on_c, 0, 57, 91
2, 404400, Note_on_c, 0, 57, 0
2, 404400, Note_on_c, 0, 60, 91
2, 404400, Note_on_c, 0, 63, 91
2, 404400, Note_on_c, 0, 69, 91
2, 404520, Note_on_c, 0, 69, 0
2, 404520, Note_on_c, 0, 63, 0
2, 404520, Note_on_c, 0, 60, 0
2, 404520, Note_on_c, 0, 57, 91
2, 404640, Note_on_c, 0, 57, 0
2, 404640, Note_on_c, 0, 48, 91
2, 404640, Note_on_c, 0, 51, 91
2, 404640, Note_on_c, 0, 57, 91
2, 404760, Note_on_c, 0, 57, 0
2, 404760, Note_on_c, 0, 51, 0
2, 404760, Note_on_c, 0, 48, 0
2, 404760, Note_on_c, 0, 41, 91
2, 404880, Note_on_c, 0, 41, 0
2, 404880, Control_c, 0, 64, 0
2, 404880, Note_on_c, 0, 62, 91
2, 404880, Note_on_c, 0, 65, 91
2, 404880, Note_on_c, 0, 70, 91
2, 405120, Note_on_c, 0, 70, 0
2, 405120, Note_on_c, 0, 65, 0
2, 405120, Note_on_c, 0, 62, 0
2, 408000, Note_on_c, 0, 69, 91
2, 408000, Note_on_c, 0, 72, 91
2, 408000, Note_on_c, 0, 74, 91
2, 408120, Note_on_c, 0, 74, 0
2, 408120, Note_on_c, 0, 72, 0
2, 408120, Note_on_c, 0, 69, 0
2, 408120, Note_on_c, 0, 62, 91
2, 408240, Note_on_c, 0, 62, 0
2, 408240, Note_on_c, 0, 61, 117
2, 408360, Note_on_c, 0, 61, 0
2, 408360, Note_on_c, 0, 62, 91
2, 408480, Note_on_c, 0, 62, 0
2, 408480, Note_on_c, 0, 67, 91
2, 408480, Note_on_c, 0, 70, 91
2, 408480, Note_on_c, 0, 74, 91
2, 408600, Note_on_c, 0, 74, 0
2, 408600, Note_on_c, 0, 70, 0
2, 408600, Note_on_c, 0, 67, 0
2, 408600, Note_on_c, 0, 62, 91
2, 408720, Note_on_c, 0, 62, 0
2, 408720, Note_on_c, 0, 61, 117
2, 408840, Note_on_c, 0, 61, 0
2, 408840, Note_on_c, 0, 62, 91
2, 408960, Note_on_c, 0, 62, 0
2, 408960, Note_on_c, 0, 72, 91
2, 408960, Note_on_c, 0, 75, 91
2, 408960, Note_on_c, 0, 77, 91
2, 409080, Note_on_c, 0, 77, 0
2, 409080, Note_on_c, 0, 75, 0
2, 409080, Note_on_c, 0, 72, 0
2, 409080, Note_on_c, 0, 65, 91
2, 409200, Note_on_c, 0, 65, 0
2, 409200, Note_on_c, 0, 64, 117
2, 409320, Note_on_c, 0, 64, 0
2, 409320, Note_on_c, 0, 65, 91
2, 409440, Note_on_c, 0, 65, 0
2, 409440, Note_on_c, 0, 70, 91
2, 409440, Note_on_c, 0, 74, 91
2, 409440, Note_on_c, 0, 77, 91
2, 409560, Note_on_c, 0, 77, 0
2, 409560, Note_on_c, 0, 74, 0
2, 409560, Note_on_c, 0, 70, 0
2, 409560, Note_on_c, 0, 65, 91
2, 409680, Note_on_c, 0, 65, 0
2, 409680, Note_on_c, 0, 66, 117
2, 409800, Note_on_c, 0, 66, 0
2, 409800, Note_on_c, 0, 67, 91
2, 409920, Note_on_c, 0, 67, 0
2, 409920, Note_on_c, 0, 70, 91
2, 409920, Note_on_c, 0, 75, 91
2, 409920, Note_on_c, 0, 79, 91
2, 410040, Note_on_c, 0, 79, 0
2, 410040, Note_on_c, 0, 75, 0
2, 410040, Note_on_c, 0, 70, 0
2, 410040, Note_on_c, 0, 67, 91
2, 410160, Note_on_c, 0, 67, 0
2, 410160, Note_on_c, 0, 75, 91
2, 410160, Note_on_c, 0, 80, 91
2, 410280, Note_on_c, 0, 80, 0
2, 410280, Note_on_c, 0, 75, 0
2, 410280, Note_on_c, 0, 68, 91
2, 410400, Note_on_c, 0, 68, 0
2, 410400, Note_on_c, 0, 75, 91
2, 410400, Note_on_c, 0, 81, 91
2, 410520, Note_on_c, 0, 81, 0
2, 410520, Note_on_c, 0, 75, 0
2, 410520, Note_on_c, 0, 69, 91
2, 410640, Note_on_c, 0, 69, 0
2, 410640, Note_on_c, 0, 74, 91
2, 410640, Note_on_c, 0, 82, 91
2, 410880, Note_on_c, 0, 82, 0
2, 410880, Note_on_c, 0, 74, 0
2, 413760, Note_on_c, 0, 69, 91
2, 413760, Note_on_c, 0, 72, 91
2, 413760, Note_on_c, 0, 74, 91
2, 413880, Note_on_c, 0, 74, 0
2, 413880, Note_on_c, 0, 72, 0
2, 413880, Note_on_c, 0, 69, 0
2, 413880, Note_on_c, 0, 62, 91
2, 414000, Note_on_c, 0, 62, 0
2, 414000, Note_on_c, 0, 61, 117
2, 414120, Note_on_c, 0, 61, 0
2, 414120, Note_on_c, 0, 62, 91
2, 414240, Note_on_c, 0, 62, 0
2, 414240, Note_on_c, 0, 67, 91
2, 414240, Note_on_c, 0, 70, 91
2, 414240, Note_on_c, 0, 74, 91
2, 414360, Note_on_c, 0, 74, 0
2, 414360, Note_on_c, 0, 70, 0
2, 414360, Note_on_c, 0, 67, 0
2, 414360, Note_on_c, 0, 62, 91
2, 414480, Note_on_c, 0, 62, 0
2, 414480, Note_on_c, 0, 61, 117
2, 414600, Note_on_c, 0, 61, 0
2, 414600, Note_on_c, 0, 62, 91
2, 414720, Note_on_c, 0, 62, 0
2, 414720, Note_on_c, 0, 72, 91
2, 414720, Note_on_c, 0, 75, 91
2, 414720, Note_on_c, 0, 77, 91
2, 414840, Note_on_c, 0, 77, 0
2, 414840, Note_on_c, 0, 75, 0
2, 414840, Note_on_c, 0, 72, 0
2, 414840, Note_on_c, 0, 65, 91
2, 414960, Note_on_c, 0, 65, 0
2, 414960, Note_on_c, 0, 64, 117
2, 415080, Note_on_c, 0, 64, 0
2, 415080, Note_on_c, 0, 65, 91
2, 415200, Note_on_c, 0, 65, 0
2, 415200, Note_on_c, 0, 70, 91
2, 415200, Note_on_c, 0, 74, 91
2, 415200, Note_on_c, 0, 77, 91
2, 415320, Note_on_c, 0, 77, 0
2, 415320, Note_on_c, 0, 74, 0
2, 415320, Note_on_c, 0, 70, 0
2, 415320, Note_on_c, 0, 65, 91
2, 415440, Note_on_c, 0, 65, 0
2, 415440, Note_on_c, 0, 66, 117
2, 415560, Note_on_c, 0, 66, 0
2, 415560, Note_on_c, 0, 67, 91
2, 415680, Note_on_c, 0, 67, 0
2, 415680, Note_on_c, 0, 70, 91
2, 415680, Note_on_c, 0, 75, 91
2, 415680, Note_on_c, 0, 79, 91
2, 415800, Note_on_c, 0, 79, 0
2, 415800, Note_on_c, 0, 75, 0
2, 415800, Note_on_c, 0, 70, 0
2, 415800, Note_on_c, 0, 67, 91
2, 415920, Note_on_c, 0, 67, 0
2, 415920, Note_on_c, 0, 75, 91
2, 415920, Note_on_c, 0, 80, 91
2, 416040, Note_on_c, 0, 80, 0
2, 416040, Note_on_c, 0, 75, 0
2, 416040, Note_on_c, 0, 68, 91
2, 416160, Note_on_c, 0, 68, 0
2, 416160, Note_on_c, 0, 75, 91
2, 416160, Note_on_c, 0, 81, 91
2, 416280, Note_on_c, 0, 81, 0
2, 416280, Note_on_c, 0, 75, 0
2, 416280, Note_on_c, 0, 69, 91
2, 416400, Note_on_c, 0, 69, 0
2, 416400, Note_on_c, 0, 74, 91
2, 416400, Note_on_c, 0, 82, 91
2, 416640, Note_on_c, 0, 82, 0
2, 416640, Note_on_c, 0, 74, 0
2, 416640, Control_c, 0, 64, 127
2, 416640, Note_on_c, 0, 82, 91
2, 416640, Note_on_c, 0, 86, 91
2, 416640, Note_on_c, 0, 88, 91
2, 416760, Note_on_c, 0, 88, 0
2, 416760, Note_on_c, 0, 86, 0
2, 416760, Note_on_c, 0, 82, 0
2, 416760, Note_on_c, 0, 89, 91
2, 416760, Note_on_c, 0, 94, 91
2, 416760, Note_on_c, 0, 98, 91
2, 416880, Note_on_c, 0, 98, 0
2, 416880, Note_on_c, 0, 94, 0
2, 416880, Note_on_c, 0, 89, 0
2, 416880, Note_on_c, 0, 82, 91
2, 416880, Note_on_c, 0, 86, 91
2, 416880, Note_on_c, 0, 88, 91
2, 417000, Note_on_c, 0, 88, 0
2, 417000, Note_on_c, 0, 86, 0
2, 417000, Note_on_c, 0, 82, 0
2, 417000, Note_on_c, 0, 89, 91
2, 417000, Note_on_c, 0, 94, 91
2, 417000, Note_on_c, 0, 98, 91
2, 417120, Note_on_c, 0, 98, 0
2, 417120, Note_on_c, 0, 94, 0
2, 417120, Note_on_c, 0, 89, 0
2, 417120, Note_on_c, 0, 77, 91
2, 417120, Note_on_c, 0, 82, 91
2, 417120, Note_on_c, 0, 85, 91
2, 417240, Note_on_c, 0, 85, 0
2, 417240, Note_on_c, 0, 82, 0
2, 417240, Note_on_c, 0, 77, 0
2, 417240, Note_on_c, 0, 86, 91
2, 417240, Note_on_c, 0, 89, 91
2, 417240, Note_on_c, 0, 94, 91
2, 417360, Note_on_c, 0, 94, 0
2, 417360, Note_on_c, 0, 89, 0
2, 417360, Note_on_c, 0, 86, 0
2, 417360, Note_on_c, 0, 77, 91
2, 417360, Note_on_c, 0, 82, 91
2, 417360, Note_on_c, 0, 85, 91
2, 417480, Note_on_c, 0, 85, 0
2, 417480, Note_on_c, 0, 82, 0
2, 417480, Note_on_c, 0, 77, 0
2, 417480, Note_on_c, 0, 86, 91
2, 417480, Note_on_c, 0, 89, 91
2, 417480, Note_on_c, 0, 94, 91
2, 417600, Note_on_c, 0, 94, 0
2, 417600, Note_on_c, 0, 89, 0
2, 417600, Note_on_c, 0, 86, 0
2, 417600, Note_on_c, 0, 74, 91
2, 417600, Note_on_c, 0, 77, 91
2, 417600, Note_on_c, 0, 81, 91
2, 417720, Note_on_c, 0, 81, 0
2, 417720, Note_on_c, 0, 77, 0
2, 417720, Note_on_c, 0, 74, 0
2, 417720, Note_on_c, 0, 82, 91
2, 417720, Note_on_c, 0, 86, 91
2, 417720, Note_on_c, 0, 89, 91
2, 417840, Note_on_c, 0, 89, 0
2, 417840, Note_on_c, 0, 86, 0
2, 417840, Note_on_c, 0, 82, 0
2, 417840, Note_on_c, 0, 74, 91
2, 417840, Note_on_c, 0, 77, 91
2, 417840, Note_on_c, 0, 81, 91
2, 417960, Note_on_c, 0, 81, 0
2, 417960, Note_on_c, 0, 77, 0
2, 417960, Note_on_c, 0, 74, 0
2, 417960, Note_on_c, 0, 82, 91
2, 417960, Note_on_c, 0, 86, 91
2, 417960, Note_on_c, 0, 89, 91
2, 418080, Note_on_c, 0, 89, 0
2, 418080, Note_on_c, 0, 86, 0
2, 418080, Note_on_c, 0, 82, 0
2, 418080, Note_on_c, 0, 70, 91
2, 418080, Note_on_c, 0, 74, 91
2, 418080, Note_on_c, 0, 76, 91
2, 418200, Note_on_c, 0, 76, 0
2, 418200, Note_on_c, 0, 74, 0
2, 418200, Note_on_c, 0, 70, 0
2, 418200, Note_on_c, 0, 77, 91
2, 418200, Note_on_c, 0, 82, 91
2, 418200, Note_on_c, 0, 86, 91
2, 418320, Note_on_c, 0, 86, 0
2, 418320, Note_on_c, 0, 82, 0
2, 418320, Note_on_c, 0, 77, 0
2, 418320, Note_on_c, 0, 70, 91
2, 418320, Note_on_c, 0, 74, 91
2, 418320, Note_on_c, 0, 76, 91
2, 418440, Note_on_c, 0, 76, 0
2, 418440, Note_on_c, 0, 74, 0
2, 418440, Note_on_c, 0, 70, 0
2, 418440, Note_on_c, 0, 77, 91
2, 418440, Note_on_c, 0, 82, 91
2, 418440, Note_on_c, 0, 86, 91
2, 418560, Note_on_c, 0, 86, 0
2, 418560, Note_on_c, 0, 82, 0
2, 418560, Note_on_c, 0, 77, 0
2, 418560, Note_on_c, 0, 65, 91
2, 418560, Note_on_c, 0, 70, 91
2, 418560, Note_on_c, 0, 73, 91
2, 418680, Note_on_c, 0, 73, 0
2, 418680, Note_on_c, 0, 70, 0
2, 418680, Note_on_c, 0, 65, 0
2, 418680, Note_on_c, 0, 74, 91
2, 418680, Note_on_c, 0, 77, 91
2, 418680, Note_on_c, 0, 82, 91
2, 418800, Note_on_c, 0, 82, 0
2, 418800, Note_on_c, 0, 77, 0
2, 418800, Note_on_c, 0, 74, 0
2, 418800, Note_on_c, 0, 65, 91
2, 418800, Note_on_c, 0, 70, 91
2, 418800, Note_on_c, 0, 73, 91
2, 418920, Note_on_c, 0, 73, 0
2, 418920, Note_on_c, 0, 70, 0
2, 418920, Note_on_c, 0, 65, 0
2, 418920, Note_on_c, 0, 74, 91
2, 418920, Note_on_c, 0, 77, 91
2, 418920, Note_on_c, 0, 82, 91
2, 419040, Note_on_c, 0, 82, 0
2, 419040, Note_on_c, 0, 77, 0
2, 419040, Note_on_c, 0, 74, 0
2, 419040, Note_on_c, 0, 62, 91
2, 419040, Note_on_c, 0, 65, 91
2, 419040, Note_on_c, 0, 69, 91
2, 419160, Note_on_c, 0, 69, 0
2, 419160, Note_on_c, 0, 65, 0
2, 419160, Note_on_c, 0, 62, 0
2, 419160, Note_on_c, 0, 70, 91
2, 419160, Note_on_c, 0, 74, 91
2, 419160, Note_on_c, 0, 77, 91
2, 419280, Note_on_c, 0, 77, 0
2, 419280, Note_on_c, 0, 74, 0
2, 419280, Note_on_c, 0, 70, 0
2, 419280, Note_on_c, 0, 62, 91
2, 419280, Note_on_c, 0, 65, 91
2, 419280, Note_on_c, 0, 69, 91
2, 419400, Note_on_c, 0, 69, 0
2, 419400, Note_on_c, 0, 65, 0
2, 419400, Note_on_c, 0, 62, 0
2, 419400, Note_on_c, 0, 70, 91
2, 419400, Note_on_c, 0, 74, 91
2, 419400, Note_on_c, 0, 77, 91
2, 419520, Note_on_c, 0, 77, 0
2, 419520, Note_on_c, 0, 74, 0
2, 419520, Note_on_c, 0, 70, 0
2, 419520, Note_on_c, 0, 58, 91
2, 419520, Note_on_c, 0, 62, 91
2, 419520, Note_on_c, 0, 64, 91
2, 419640, Note_on_c, 0, 64, 0
2, 419640, Note_on_c, 0, 62, 0
2, 419640, Note_on_c, 0, 58, 0
2, 419640, Note_on_c, 0, 65, 91
2, 419640, Note_on_c, 0, 70, 91
2, 419640, Note_on_c, 0, 74, 91
2, 419760, Note_on_c, 0, 74, 0
2, 419760, Note_on_c, 0, 70, 0
2, 419760, Note_on_c, 0, 65, 0
2, 419760, Note_on_c, 0, 58, 91
2, 419760, Note_on_c, 0, 62, 91
2, 419760, Note_on_c, 0, 64, 91
2, 419880, Note_on_c, 0, 64, 0
2, 419880, Note_on_c, 0, 62, 0
2, 419880, Note_on_c, 0, 58, 0
2, 419880, Note_on_c, 0, 65, 91
2, 419880, Note_on_c, 0, 70, 91
2, 419880, Note_on_c, 0, 74, 91
2, 420000, Note_on_c, 0, 74, 0
2, 420000, Note_on_c, 0, 70, 0
2, 420000, Note_on_c, 0, 65, 0
2, 420000, Note_on_c, 0, 53, 91
2, 420000, Note_on_c, 0, 58, 91
2, 420000, Note_on_c, 0, 61, 91
2, 420120, Note_on_c, 0, 61, 0
2, 420120, Note_on_c, 0, 58, 0
2, 420120, Note_on_c, 0, 53, 0
2, 420120, Note_on_c, 0, 62, 91
2, 420120, Note_on_c, 0, 65, 91
2, 420120, Note_on_c, 0, 70, 91
2, 420240, Note_on_c, 0, 70, 0
2, 420240, Note_on_c, 0, 65, 0
2, 420240, Note_on_c, 0, 62, 0
2, 420240, Note_on_c, 0, 53, 91
2, 420240, Note_on_c, 0, 58, 91
2, 420240, Note_on_c, 0, 61, 91
2, 420360, Note_on_c, 0, 61, 0
2, 420360, Note_on_c, 0, 58, 0
2, 420360, Note_on_c, 0, 53, 0
2, 420360, Note_on_c, 0, 62, 91
2, 420360, Note_on_c, 0, 65, 91
2, 420360, Note_on_c, 0, 70, 91
2, 420480, Note_on_c, 0, 70, 0
2, 420480, Note_on_c, 0, 65, 0
2, 420480, Note_on_c, 0, 62, 0
2, 420480, Note_on_c, 0, 50, 91
2, 420480, Note_on_c, 0, 53, 91
2, 420480, Note_on_c, 0, 57, 91
2, 420600, Note_on_c, 0, 57, 0
2, 420600, Note_on_c, 0, 53, 0
2, 420600, Note_on_c, 0, 50, 0
2, 420600, Note_on_c, 0, 58, 91
2, 420600, Note_on_c, 0, 62, 91
2, 420600, Note_on_c, 0, 65, 91
2, 420720, Note_on_c, 0, 65, 0
2, 420720, Note_on_c, 0, 62, 0
2, 420720, Note_on_c, 0, 58, 0
2, 420720, Note_on_c, 0, 50, 91
2, 420720, Note_on_c, 0, 53, 91
2, 420720, Note_on_c, 0, 57, 91
2, 420840, Note_on_c, 0, 57, 0
2, 420840, Note_on_c, 0, 53, 0
2, 420840, Note_on_c, 0, 50, 0
2, 420840, Note_on_c, 0, 58, 91
2, 420840, Note_on_c, 0, 62, 91
2, 420840, Note_on_c, 0, 65, 91
2, 420960, Note_on_c, 0, 65, 0
2, 420960, Note_on_c, 0, 62, 0
2, 420960, Note_on_c, 0, 58, 0
2, 420960, Note_on_c, 0, 46, 91
2, 420960, Note_on_c, 0, 50, 91
2, 420960, Note_on_c, 0, 52, 91
2, 421080, Note_on_c, 0, 52, 0
2, 421080, Note_on_c, 0, 50, 0
2, 421080, Note_on_c, 0, 46, 0
2, 421080, Note_on_c, 0, 53, 91
2, 421080, Note_on_c, 0, 58, 91
2, 421080, Note_on_c, 0, 62, 91
2, 421200, Note_on_c, 0, 62, 0
2, 421200, Note_on_c, 0, 58, 0
2, 421200, Note_on_c, 0, 53, 0
2, 421200, Note_on_c, 0, 46, 91
2, 421200, Note_on_c, 0, 50, 91
2, 421200, Note_on_c, 0, 52, 91
2, 421320, Note_on_c, 0, 52, 0
2, 421320, Note_on_c, 0, 50, 0
2, 421320, Note_on_c, 0, 46, 0
2, 421320, Note_on_c, 0, 53, 91
2, 421320, Note_on_c, 0, 58, 91
2, 421320, Note_on_c, 0, 62, 91
2, 421440, Note_on_c, 0, 62, 0
2, 421440, Note_on_c, 0, 58, 0
2, 421440, Note_on_c, 0, 53, 0
2, 421440, Note_on_c, 0, 41, 91
2, 421440, Note_on_c, 0, 46, 91
2, 421440, Note_on_c, 0, 49, 91
2, 421560, Note_on_c, 0, 49, 0
2, 421560, Note_on_c, 0, 46, 0
2, 421560, Note_on_c, 0, 41, 0
2, 421560, Note_on_c, 0, 50, 91
2, 421560, Note_on_c, 0, 53, 91
2, 421560, Note_on_c, 0, 58, 91
2, 421680, Note_on_c, 0, 58, 0
2, 421680, Note_on_c, 0, 53, 0
2, 421680, Note_on_c, 0, 50, 0
2, 421680, Note_on_c, 0, 41, 91
2, 421680, Note_on_c, 0, 46, 91
2, 421680, Note_on_c, 0, 49, 91
2, 421800, Note_on_c, 0, 49, 0
2, 421800, Note_on_c, 0, 46, 0
2, 421800, Note_on_c, 0, 41, 0
2, 421800, Note_on_c, 0, 50, 91
2, 421800, Note_on_c, 0, 53, 91
2, 421800, Note_on_c, 0, 58, 91
2, 421920, Note_on_c, 0, 58, 0
2, 421920, Note_on_c, 0, 53, 0
2, 421920, Note_on_c, 0, 50, 0
2, 421920, Note_on_c, 0, 38, 91
2, 421920, Note_on_c, 0, 41, 91
2, 421920, Note_on_c, 0, 45, 91
2, 422040, Note_on_c, 0, 45, 0
2, 422040, Note_on_c, 0, 41, 0
2, 422040, Note_on_c, 0, 38, 0
2, 422040, Control_c, 0, 64, 0
2, 422040, Note_on_c, 0, 46, 91
2, 422040, Note_on_c, 0, 50, 91
2, 422040, Note_on_c, 0, 53, 91
2, 422160, Note_on_c, 0, 53, 0
2, 422160, Note_on_c, 0, 50, 0
2, 422160, Note_on_c, 0, 46, 0
2, 422400, Note_on_c, 0, 53, 91
2, 422400, Note_on_c, 0, 57, 91
2, 422400, Note_on_c, 0, 60, 91
2, 422640, Note_on_c, 0, 60, 0
2, 422640, Note_on_c, 0, 57, 0
2, 422640, Note_on_c, 0, 53, 0
2, 422640, Note_on_c, 0, 53, 91
2, 422640, Note_on_c, 0, 58, 91
2, 422640, Note_on_c, 0, 62, 91
2, 422880, Note_on_c, 0, 62, 0
2, 422880, Note_on_c, 0, 58, 0
2, 422880, Note_on_c, 0, 53, 0
2, 422880, Note_on_c, 0, 57, 91
2, 422880, Note_on_c, 0, 60, 91
2, 422880, Note_on_c, 0, 65, 91
2, 423120, Note_on_c, 0, 65, 0
2, 423120, Note_on_c, 0, 60, 0
2, 423120, Note_on_c, 0, 57, 0
2, 423120, Note_on_c, 0, 58, 91
2, 423120, Note_on_c, 0, 62, 91
2, 423120, Note_on_c, 0, 65, 91
2, 423360, Note_on_c, 0, 65, 0
2, 423360, Note_on_c, 0, 62, 0
2, 423360, Note_on_c, 0, 58, 0
2, 423360, Note_on_c, 0, 60, 91
2, 423360, Note_on_c, 0, 65, 91
2, 423360, Note_on_c, 0, 69, 91
2, 423600, Note_on_c, 0, 69, 0
2, 423600, Note_on_c, 0, 65, 0
2, 423600, Note_on_c, 0, 60, 0
2, 423600, Note_on_c, 0, 62, 91
2, 423600, Note_on_c, 0, 65, 91
2, 423600, Note_on_c, 0, 70, 91
2, 423840, Note_on_c, 0, 70, 0
2, 423840, Note_on_c, 0, 65, 0
2, 423840, Note_on_c, 0, 62, 0
2, 423840, Note_on_c, 0, 65, 91
2, 423840, Note_on_c, 0, 69, 91
2, 423840, Note_on_c, 0, 72, 91
2, 424080, Note_on_c, 0, 72, 0
2, 424080, Note_on_c, 0, 69, 0
2, 424080, Note_on_c, 0, 65, 0
2, 424080, Note_on_c, 0, 65, 91
2, 424080, Note_on_c, 0, 70, 91
2, 424080, Note_on_c, 0, 74, 91
2, 424320, Note_on_c, 0, 74, 0
2, 424320, Note_on_c, 0, 70, 0
2, 424320, Note_on_c, 0, 65, 0
2, 424320, Note_on_c, 0, 69, 91
2, 424320, Note_on_c, 0, 72, 91
2, 424320, Note_on_c, 0, 77, 91
2, 424560, Note_on_c, 0, 77, 0
2, 424560, Note_on_c, 0, 72, 0
2, 424560, Note_on_c, 0, 69, 0
2, 424560, Note_on_c, 0, 70, 91
2, 424560, Note_on_c, 0, 74, 91
2, 424560, Note_on_c, 0, 77, 91
2, 424800, Note_on_c, 0, 77, 0
2, 424800, Note_on_c, 0, 74, 0
2, 424800, Note_on_c, 0, 70, 0
2, 424800, Note_on_c, 0, 72, 91
2, 424800, Note_on_c, 0, 77, 91
2, 424800, Note_on_c, 0, 81, 91
2, 425040, Note_on_c, 0, 81, 0
2, 425040, Note_on_c, 0, 77, 0
2, 425040, Note_on_c, 0, 72, 0
2, 425040, Control_c, 0, 64, 127
2, 425040, Note_on_c, 0, 74, 91
2, 425040, Note_on_c, 0, 77, 91
2, 425040, Note_on_c, 0, 82, 91
2, 425280, Note_on_c, 0, 82, 0
2, 425280, Note_on_c, 0, 77, 0
2, 425280, Note_on_c, 0, 74, 0
2, 425280, Note_on_c, 0, 77, 91
2, 425280, Note_on_c, 0, 81, 91
2, 425280, Note_on_c, 0, 84, 91
2, 425520, Note_on_c, 0, 84, 0
2, 425520, Note_on_c, 0, 81, 0
2, 425520, Note_on_c, 0, 77, 0
2, 425520, Note_on_c, 0, 77, 91
2, 425520, Note_on_c, 0, 82, 91
2, 425520, Note_on_c, 0, 86, 91
2, 425760, Note_on_c, 0, 86, 0
2, 425760, Note_on_c, 0, 82, 0
2, 425760, Note_on_c, 0, 77, 0
2, 425760, Note_on_c, 0, 81, 91
2, 425760, Note_on_c, 0, 84, 91
2, 425760, Note_on_c, 0, 89, 91
2, 426000, Note_on_c, 0, 89, 0
2, 426000, Note_on_c, 0, 84, 0
2, 426000, Note_on_c, 0, 81, 0
2, 426000, Note_on_c, 0, 82, 91
2, 426000, Note_on_c, 0, 86, 91
2, 426000, Note_on_c, 0, 89, 91
2, 426240, Note_on_c, 0, 89, 0
2, 426240, Note_on_c, 0, 86, 0
2, 426240, Note_on_c, 0, 82, 0
2, 426240, Control_c, 0, 64, 0
2, 426480, Control_c, 0, 64, 127
2, 426480, Note_on_c, 0, 34, 91
2, 426480, Note_on_c, 0, 46, 91
2, 426600, Note_on_c, 0, 46, 0
2, 426600, Note_on_c, 0, 34, 0
2, 426600, Note_on_c, 0, 47, 91
2, 426600, Note_on_c, 0, 59, 91
2, 426720, Note_on_c, 0, 59, 0
2, 426720, Note_on_c, 0, 47, 0
2, 426720, Note_on_c, 0, 36, 91
2, 426720, Note_on_c, 0, 48, 91
2, 426840, Note_on_c, 0, 48, 0
2, 426840, Note_on_c, 0, 36, 0
2, 426840, Note_on_c, 0, 49, 91
2, 426840, Note_on_c, 0, 61, 91
2, 426960, Note_on_c, 0, 61, 0
2, 426960, Note_on_c, 0, 49, 0
2, 426960, Note_on_c, 0, 38, 91
2, 426960, Note_on_c, 0, 50, 91
2, 427080, Note_on_c, 0, 50, 0
2, 427080, Note_on_c, 0, 38, 0
2, 427080, Note_on_c, 0, 51, 91
2, 427080, Note_on_c, 0, 63, 91
2, 427200, Note_on_c, 0, 63, 0
2, 427200, Note_on_c, 0, 51, 0
2, 427200, Note_on_c, 0, 40, 91
2, 427200, Note_on_c, 0, 52, 91
2, 427320, Note_on_c, 0, 52, 0
2, 427320, Note_on_c, 0, 40, 0
2, 427320, Note_on_c, 0, 53, 91
2, 427320, Note_on_c, 0, 65, 91
2, 427440, Note_on_c, 0, 65, 0
2, 427440, Note_on_c, 0, 53, 0
2, 427440, Note_on_c, 0, 42, 91
2, 427440, Note_on_c, 0, 54, 91
2, 427560, Note_on_c, 0, 54, 0
2, 427560, Note_on_c, 0, 42, 0
2, 427560, Note_on_c, 0, 55, 91
2, 427560, Note_on_c, 0, 67, 91
2, 427680, Note_on_c, 0, 67, 0
2, 427680, Note_on_c, 0, 55, 0
2, 427680, Note_on_c, 0, 44, 91
2, 427680, Note_on_c, 0, 56, 91
2, 427800, Note_on_c, 0, 56, 0
2, 427800, Note_on_c, 0, 44, 0
2, 427800, Note_on_c, 0, 57, 91
2, 427800, Note_on_c, 0, 69, 91
2, 427920, Note_on_c, 0, 69, 0
2, 427920, Note_on_c, 0, 57, 0
2, 427920, Note_on_c, 0, 46, 91
2, 427920, Note_on_c, 0, 58, 91
2, 428040, Note_on_c, 0, 58, 0
2, 428040, Note_on_c, 0, 46, 0
2, 428040, Note_on_c, 0, 59, 91
2, 428040, Note_on_c, 0, 71, 91
2, 428160, Note_on_c, 0, 71, 0
2, 428160, Note_on_c, 0, 59, 0
2, 428160, Note_on_c, 0, 48, 91
2, 428160, Note_on_c, 0, 60, 91
2, 428280, Note_on_c, 0, 60, 0
2, 428280, Note_on_c, 0, 48, 0
2, 428280, Note_on_c, 0, 61, 91
2, 428280, Note_on_c, 0, 73, 91
2, 428400, Note_on_c, 0, 73, 0
2, 428400, Note_on_c, 0, 61, 0
2, 428400, Note_on_c, 0, 50, 91
2, 428400, Note_on_c, 0, 62, 91
2, 428520, Note_on_c, 0, 62, 0
2, 428520, Note_on_c, 0, 50, 0
2, 428520, Note_on_c, 0, 63, 91
2, 428520, Note_on_c, 0, 75, 91
2, 428640, Note_on_c, 0, 75, 0
2, 428640, Note_on_c, 0, 63, 0
2, 428640, Note_on_c, 0, 52, 91
2, 428640, Note_on_c, 0, 64, 91
2, 428760, Note_on_c, 0, 64, 0
2, 428760, Note_on_c, 0, 52, 0
2, 428760, Note_on_c, 0, 65, 91
2, 428760, Note_on_c, 0, 77, 91
2, 428880, Note_on_c, 0, 77, 0
2, 428880, Note_on_c, 0, 65, 0
2, 428880, Note_on_c, 0, 54, 91
2, 428880, Note_on_c, 0, 66, 91
2, 429000, Note_on_c, 0, 66, 0
2, 429000, Note_on_c, 0, 54, 0
2, 429000, Note_on_c, 0, 67, 91
2, 429000, Note_on_c, 0, 79, 91
2, 429120, Note_on_c, 0, 79, 0
2, 429120, Note_on_c, 0, 67, 0
2, 429120, Note_on_c, 0, 56, 91
2, 429120, Note_on_c, 0, 68, 91
2, 429240, Note_on_c, 0, 68, 0
2, 429240, Note_on_c, 0, 56, 0
2, 429240, Note_on_c, 0, 69, 91
2, 429240, Note_on_c, 0, 81, 91
2, 429360, Note_on_c, 0, 81, 0
2, 429360, Note_on_c, 0, 69, 0
2, 429360, Note_on_c, 0, 58, 91
2, 429360, Note_on_c, 0, 70, 91
2, 429480, Note_on_c, 0, 70, 0
2, 429480, Note_on_c, 0, 58, 0
2, 429480, Note_on_c, 0, 71, 91
2, 429480, Note_on_c, 0, 83, 91
2, 429600, Note_on_c, 0, 83, 0
2, 429600, Note_on_c, 0, 71, 0
2, 429600, Note_on_c, 0, 60, 91
2, 429600, Note_on_c, 0, 72, 91
2, 429720, Note_on_c, 0, 72, 0
2, 429720, Note_on_c, 0, 60, 0
2, 429720, Note_on_c, 0, 73, 91
2, 429720, Note_on_c, 0, 85, 91
2, 429840, Note_on_c, 0, 85, 0
2, 429840, Note_on_c, 0, 73, 0
2, 429840, Note_on_c, 0, 62, 91
2, 429840, Note_on_c, 0, 74, 91
2, 429960, Note_on_c, 0, 74, 0
2, 429960, Note_on_c, 0, 62, 0
2, 429960, Note_on_c, 0, 75, 91
2, 429960, Note_on_c, 0, 87, 91
2, 430080, Note_on_c, 0, 87, 0
2, 430080, Note_on_c, 0, 75, 0
2, 430080, Note_on_c, 0, 64, 91
2, 430080, Note_on_c, 0, 76, 91
2, 430200, Note_on_c, 0, 76, 0
2, 430200, Note_on_c, 0, 64, 0
2, 430200, Note_on_c, 0, 77, 91
2, 430200, Note_on_c, 0, 89, 91
2, 430320, Note_on_c, 0, 89, 0
2, 430320, Note_on_c, 0, 77, 0
2, 430320, Note_on_c, 0, 66, 91
2, 430320, Note_on_c, 0, 78, 91
2, 430440, Note_on_c, 0, 78, 0
2, 430440, Note_on_c, 0, 66, 0
2, 430440, Note_on_c, 0, 79, 91
2, 430440, Note_on_c, 0, 91, 91
2, 430560, Note_on_c, 0, 91, 0
2, 430560, Note_on_c, 0, 79, 0
2, 430560, Note_on_c, 0, 68, 91
2, 430560, Note_on_c, 0, 80, 91
2, 430680, Note_on_c, 0, 80, 0
2, 430680, Note_on_c, 0, 68, 0
2, 430680, Note_on_c, 0, 81, 91
2, 430680, Note_on_c, 0, 93, 91
2, 430800, Note_on_c, 0, 93, 0
2, 430800, Note_on_c, 0, 81, 0
2, 430800, Note_on_c, 0, 70, 117
2, 430800, Note_on_c, 0, 82, 117
2, 430800, Note_on_c, 0, 94, 117
2, 431040, Note_on_c, 0, 94, 0
2, 431040, Note_on_c, 0, 82, 0
2, 431040, Note_on_c, 0, 70, 0
2, 431040, Control_c, 0, 64, 0
2, 431280, Control_c, 0, 64, 127
2, 431280, Note_on_c, 0, 70, 91
2, 431280, Note_on_c, 0, 74, 91
2, 431280, Note_on_c, 0, 77, 91
2, 431280, Note_on_c, 0, 82, 91
2, 431760, Note_on_c, 0, 82, 0
2, 431760, Note_on_c, 0, 70, 0
2, 431760, Note_on_c, 0, 74, 0
2, 431760, Note_on_c, 0, 77, 0
2, 431760, Note_on_c, 0, 70, 91
2, 431760, Note_on_c, 0, 74, 91
2, 431760, Note_on_c, 0, 77, 91
2, 431760, Note_on_c, 0, 82, 91
2, 432240, Note_on_c, 0, 82, 0
2, 432240, Note_on_c, 0, 70, 0
2, 432240, Note_on_c, 0, 74, 0
2, 432240, Note_on_c, 0, 77, 0
2, 432240, Note_on_c, 0, 58, 117
2, 434160, Control_c, 0, 64, 0
2, 436080, Note_on_c, 0, 58, 0
2, 436080, End_track
3, 0, Start_track
3, 0, Title_t, "Grand Piano"
3, 0, Program_c, 0, 0
3, 0, Control_c, 0, 7, 115
3, 0, Control_c, 0, 10, 79
3, 5760, Note_on_c, 0, 46, 67
3, 5760, Note_on_c, 0, 53, 67
3, 5807, Note_on_c, 0, 53, 0
3, 5807, Note_on_c, 0, 46, 0
3, 6000, Note_on_c, 0, 61, 67
3, 6000, Note_on_c, 0, 65, 67
3, 6047, Note_on_c, 0, 65, 0
3, 6047, Note_on_c, 0, 61, 0
3, 6480, Note_on_c, 0, 63, 67
3, 6480, Note_on_c, 0, 66, 67
3, 6527, Note_on_c, 0, 66, 0
3, 6527, Note_on_c, 0, 63, 0
3, 6720, Note_on_c, 0, 61, 67
3, 6720, Note_on_c, 0, 65, 67
3, 6767, Note_on_c, 0, 65, 0
3, 6767, Note_on_c, 0, 61, 0
3, 6960, Note_on_c, 0, 60, 67
3, 6960, Note_on_c, 0, 63, 67
3, 7007, Note_on_c, 0, 63, 0
3, 7007, Note_on_c, 0, 60, 0
3, 7200, Note_on_c, 0, 46, 67
3, 7200, Note_on_c, 0, 53, 67
3, 7247, Note_on_c, 0, 53, 0
3, 7247, Note_on_c, 0, 46, 0
3, 7440, Note_on_c, 0, 61, 67
3, 7440, Note_on_c, 0, 65, 67
3, 7487, Note_on_c, 0, 65, 0
3, 7487, Note_on_c, 0, 61, 0
3, 7920, Note_on_c, 0, 60, 67
3, 7920, Note_on_c, 0, 63, 67
3, 7967, Note_on_c, 0, 63, 0
3, 7967, Note_on_c, 0, 60, 0
3, 8160, Note_on_c, 0, 58, 67
3, 8160, Note_on_c, 0, 61, 67
3, 8207, Note_on_c, 0, 61, 0
3, 8207, Note_on_c, 0, 58, 0
3, 8400, Note_on_c, 0, 53, 67
3, 8400, Note_on_c, 0, 57, 67
3, 8400, Note_on_c, 0, 60, 67
3, 8447, Note_on_c, 0, 60, 0
3, 8447, Note_on_c, 0, 57, 0
3, 8447, Note_on_c, 0, 53, 0
3, 8640, Note_on_c, 0, 46, 67
3, 8640, Note_on_c, 0, 53, 67
3, 8687, Note_on_c, 0, 53, 0
3, 8687, Note_on_c, 0, 46, 0
3, 8880, Note_on_c, 0, 61, 67
3, 8880, Note_on_c, 0, 65, 67
3, 8927, Note_on_c, 0, 65, 0
3, 8927, Note_on_c, 0, 61, 0
3, 9360, Note_on_c, 0, 60, 67
3, 9360, Note_on_c, 0, 63, 67
3, 9407, Note_on_c, 0, 63, 0
3, 9407, Note_on_c, 0, 60, 0
3, 9600, Note_on_c, 0, 58, 67
3, 9600, Note_on_c, 0, 61, 67
3, 9647, Note_on_c, 0, 61, 0
3, 9647, Note_on_c, 0, 58, 0
3, 9840, Note_on_c, 0, 53, 67
3, 9840, Note_on_c, 0, 57, 67
3, 9840, Note_on_c, 0, 60, 67
3, 9887, Note_on_c, 0, 60, 0
3, 9887, Note_on_c, 0, 57, 0
3, 9887, Note_on_c, 0, 53, 0
3, 10080, Note_on_c, 0, 46, 67
3, 10080, Note_on_c, 0, 53, 67
3, 10127, Note_on_c, 0, 53, 0
3, 10127, Note_on_c, 0, 46, 0
3, 10320, Note_on_c, 0, 61, 67
3, 10320, Note_on_c, 0, 65, 67
3, 10367, Note_on_c, 0, 65, 0
3, 10367, Note_on_c, 0, 61, 0
3, 10800, Note_on_c, 0, 60, 67
3, 10800, Note_on_c, 0, 63, 67
3, 10847, Note_on_c, 0, 63, 0
3, 10847, Note_on_c, 0, 60, 0
3, 11040, Note_on_c, 0, 58, 67
3, 11040, Note_on_c, 0, 61, 67
3, 11087, Note_on_c, 0, 61, 0
3, 11087, Note_on_c, 0, 58, 0
3, 11280, Note_on_c, 0, 53, 67
3, 11280, Note_on_c, 0, 57, 67
3, 11280, Note_on_c, 0, 60, 67
3, 11327, Note_on_c, 0, 60, 0
3, 11327, Note_on_c, 0, 57, 0
3, 11327, Note_on_c, 0, 53, 0
3, 11520, Note_on_c, 0, 46, 67
3, 11520, Note_on_c, 0, 53, 67
3, 11567, Note_on_c, 0, 53, 0
3, 11567, Note_on_c, 0, 46, 0
3, 11760, Note_on_c, 0, 61, 67
3, 11760, Note_on_c, 0, 65, 67
3, 11807, Note_on_c, 0, 65, 0
3, 11807, Note_on_c, 0, 61, 0
3, 12240, Note_on_c, 0, 63, 67
3, 12240, Note_on_c, 0, 66, 67
3, 12287, Note_on_c, 0, 66, 0
3, 12287, Note_on_c, 0, 63, 0
3, 12480, Note_on_c, 0, 61, 67
3, 12480, Note_on_c, 0, 65, 67
3, 12527, Note_on_c, 0, 65, 0
3, 12527, Note_on_c, 0, 61, 0
3, 12720, Note_on_c, 0, 60, 67
3, 12720, Note_on_c, 0, 63, 67
3, 12767, Note_on_c, 0, 63, 0
3, 12767, Note_on_c, 0, 60, 0
3, 12960, Note_on_c, 0, 46, 67
3, 12960, Note_on_c, 0, 53, 67
3, 13007, Note_on_c, 0, 53, 0
3, 13007, Note_on_c, 0, 46, 0
3, 13200, Note_on_c, 0, 61, 67
3, 13200, Note_on_c, 0, 65, 67
3, 13247, Note_on_c, 0, 65, 0
3, 13247, Note_on_c, 0, 61, 0
3, 13680, Note_on_c, 0, 60, 67
3, 13680, Note_on_c, 0, 63, 67
3, 13727, Note_on_c, 0, 63, 0
3, 13727, Note_on_c, 0, 60, 0
3, 13920, Note_on_c, 0, 58, 67
3, 13920, Note_on_c, 0, 61, 67
3, 13967, Note_on_c, 0, 61, 0
3, 13967, Note_on_c, 0, 58, 0
3, 14160, Note_on_c, 0, 53, 67
3, 14160, Note_on_c, 0, 57, 67
3, 14160, Note_on_c, 0, 60, 67
3, 14207, Note_on_c, 0, 60, 0
3, 14207, Note_on_c, 0, 57, 0
3, 14207, Note_on_c, 0, 53, 0
3, 14400, Note_on_c, 0, 46, 67
3, 14400, Note_on_c, 0, 53, 67
3, 14447, Note_on_c, 0, 53, 0
3, 14447, Note_on_c, 0, 46, 0
3, 14640, Note_on_c, 0, 61, 67
3, 14640, Note_on_c, 0, 65, 67
3, 14687, Note_on_c, 0, 65, 0
3, 14687, Note_on_c, 0, 61, 0
3, 15120, Note_on_c, 0, 60, 67
3, 15120, Note_on_c, 0, 63, 67
3, 15167, Note_on_c, 0, 63, 0
3, 15167, Note_on_c, 0, 60, 0
3, 15360, Note_on_c, 0, 58, 67
3, 15360, Note_on_c, 0, 61, 67
3, 15407, Note_on_c, 0, 61, 0
3, 15407, Note_on_c, 0, 58, 0
3, 15600, Note_on_c, 0, 53, 67
3, 15600, Note_on_c, 0, 57, 67
3, 15600, Note_on_c, 0, 60, 67
3, 15647, Note_on_c, 0, 60, 0
3, 15647, Note_on_c, 0, 57, 0
3, 15647, Note_on_c, 0, 53, 0
3, 15840, Note_on_c, 0, 46, 67
3, 15840, Note_on_c, 0, 53, 67
3, 15887, Note_on_c, 0, 53, 0
3, 15887, Note_on_c, 0, 46, 0
3, 17280, Note_on_c, 0, 46, 67
3, 17280, Note_on_c, 0, 53, 67
3, 17327, Note_on_c, 0, 53, 0
3, 17327, Note_on_c, 0, 46, 0
3, 17520, Note_on_c, 0, 61, 67
3, 17520, Note_on_c, 0, 65, 67
3, 17567, Note_on_c, 0, 65, 0
3, 17567, Note_on_c, 0, 61, 0
3, 18000, Note_on_c, 0, 63, 67
3, 18000, Note_on_c, 0, 66, 67
3, 18047, Note_on_c, 0, 66, 0
3, 18047, Note_on_c, 0, 63, 0
3, 18240, Note_on_c, 0, 61, 67
3, 18240, Note_on_c, 0, 65, 67
3, 18287, Note_on_c, 0, 65, 0
3, 18287, Note_on_c, 0, 61, 0
3, 18480, Note_on_c, 0, 60, 67
3, 18480, Note_on_c, 0, 63, 67
3, 18527, Note_on_c, 0, 63, 0
3, 18527, Note_on_c, 0, 60, 0
3, 18720, Note_on_c, 0, 46, 67
3, 18720, Note_on_c, 0, 53, 67
3, 18767, Note_on_c, 0, 53, 0
3, 18767, Note_on_c, 0, 46, 0
3, 18960, Note_on_c, 0, 61, 67
3, 18960, Note_on_c, 0, 65, 67
3, 19007, Note_on_c, 0, 65, 0
3, 19007, Note_on_c, 0, 61, 0
3, 19440, Note_on_c, 0, 60, 67
3, 19440, Note_on_c, 0, 63, 67
3, 19487, Note_on_c, 0, 63, 0
3, 19487, Note_on_c, 0, 60, 0
3, 19680, Note_on_c, 0, 58, 67
3, 19680, Note_on_c, 0, 61, 67
3, 19727, Note_on_c, 0, 61, 0
3, 19727, Note_on_c, 0, 58, 0
3, 19920, Note_on_c, 0, 53, 67
3, 19920, Note_on_c, 0, 57, 67
3, 19920, Note_on_c, 0, 60, 67
3, 19967, Note_on_c, 0, 60, 0
3, 19967, Note_on_c, 0, 57, 0
3, 19967, Note_on_c, 0, 53, 0
3, 20160, Note_on_c, 0, 46, 67
3, 20160, Note_on_c, 0, 53, 67
3, 20207, Note_on_c, 0, 53, 0
3, 20207, Note_on_c, 0, 46, 0
3, 20400, Note_on_c, 0, 61, 67
3, 20400, Note_on_c, 0, 65, 67
3, 20447, Note_on_c, 0, 65, 0
3, 20447, Note_on_c, 0, 61, 0
3, 20880, Note_on_c, 0, 60, 67
3, 20880, Note_on_c, 0, 63, 67
3, 20927, Note_on_c, 0, 63, 0
3, 20927, Note_on_c, 0, 60, 0
3, 21120, Note_on_c, 0, 58, 67
3, 21120, Note_on_c, 0, 61, 67
3, 21167, Note_on_c, 0, 61, 0
3, 21167, Note_on_c, 0, 58, 0
3, 21360, Note_on_c, 0, 53, 67
3, 21360, Note_on_c, 0, 57, 67
3, 21360, Note_on_c, 0, 60, 67
3, 21407, Note_on_c, 0, 60, 0
3, 21407, Note_on_c, 0, 57, 0
3, 21407, Note_on_c, 0, 53, 0
3, 21600, Note_on_c, 0, 46, 67
3, 21600, Note_on_c, 0, 53, 67
3, 21647, Note_on_c, 0, 53, 0
3, 21647, Note_on_c, 0, 46, 0
3, 21840, Note_on_c, 0, 61, 67
3, 21840, Note_on_c, 0, 65, 67
3, 21887, Note_on_c, 0, 65, 0
3, 21887, Note_on_c, 0, 61, 0
3, 22320, Note_on_c, 0, 60, 67
3, 22320, Note_on_c, 0, 63, 67
3, 22367, Note_on_c, 0, 63, 0
3, 22367, Note_on_c, 0, 60, 0
3, 22560, Note_on_c, 0, 58, 67
3, 22560, Note_on_c, 0, 61, 67
3, 22607, Note_on_c, 0, 61, 0
3, 22607, Note_on_c, 0, 58, 0
3, 22800, Note_on_c, 0, 53, 67
3, 22800, Note_on_c, 0, 57, 67
3, 22800, Note_on_c, 0, 60, 67
3, 22847, Note_on_c, 0, 60, 0
3, 22847, Note_on_c, 0, 57, 0
3, 22847, Note_on_c, 0, 53, 0
3, 23040, Note_on_c, 0, 46, 67
3, 23040, Note_on_c, 0, 53, 67
3, 23087, Note_on_c, 0, 53, 0
3, 23087, Note_on_c, 0, 46, 0
3, 23280, Note_on_c, 0, 61, 67
3, 23280, Note_on_c, 0, 65, 67
3, 23327, Note_on_c, 0, 65, 0
3, 23327, Note_on_c, 0, 61, 0
3, 23760, Note_on_c, 0, 63, 67
3, 23760, Note_on_c, 0, 66, 67
3, 23807, Note_on_c, 0, 66, 0
3, 23807, Note_on_c, 0, 63, 0
3, 24000, Note_on_c, 0, 61, 67
3, 24000, Note_on_c, 0, 65, 67
3, 24047, Note_on_c, 0, 65, 0
3, 24047, Note_on_c, 0, 61, 0
3, 24240, Note_on_c, 0, 60, 67
3, 24240, Note_on_c, 0, 63, 67
3, 24287, Note_on_c, 0, 63, 0
3, 24287, Note_on_c, 0, 60, 0
3, 24480, Note_on_c, 0, 46, 67
3, 24480, Note_on_c, 0, 53, 67
3, 24527, Note_on_c, 0, 53, 0
3, 24527, Note_on_c, 0, 46, 0
3, 24720, Note_on_c, 0, 61, 67
3, 24720, Note_on_c, 0, 65, 67
3, 24767, Note_on_c, 0, 65, 0
3, 24767, Note_on_c, 0, 61, 0
3, 25200, Note_on_c, 0, 60, 67
3, 25200, Note_on_c, 0, 63, 67
3, 25247, Note_on_c, 0, 63, 0
3, 25247, Note_on_c, 0, 60, 0
3, 25440, Note_on_c, 0, 58, 67
3, 25440, Note_on_c, 0, 61, 67
3, 25487, Note_on_c, 0, 61, 0
3, 25487, Note_on_c, 0, 58, 0
3, 25680, Note_on_c, 0, 53, 67
3, 25680, Note_on_c, 0, 57, 67
3, 25680, Note_on_c, 0, 60, 67
3, 25727, Note_on_c, 0, 60, 0
3, 25727, Note_on_c, 0, 57, 0
3, 25727, Note_on_c, 0, 53, 0
3, 25920, Note_on_c, 0, 46, 67
3, 25920, Note_on_c, 0, 53, 67
3, 25967, Note_on_c, 0, 53, 0
3, 25967, Note_on_c, 0, 46, 0
3, 26160, Note_on_c, 0, 61, 67
3, 26160, Note_on_c, 0, 65, 67
3, 26207, Note_on_c, 0, 65, 0
3, 26207, Note_on_c, 0, 61, 0
3, 26640, Note_on_c, 0, 60, 67
3, 26640, Note_on_c, 0, 63, 67
3, 26687, Note_on_c, 0, 63, 0
3, 26687, Note_on_c, 0, 60, 0
3, 26880, Note_on_c, 0, 58, 67
3, 26880, Note_on_c, 0, 61, 67
3, 26927, Note_on_c, 0, 61, 0
3, 26927, Note_on_c, 0, 58, 0
3, 27120, Note_on_c, 0, 53, 67
3, 27120, Note_on_c, 0, 57, 67
3, 27120, Note_on_c, 0, 60, 67
3, 27167, Note_on_c, 0, 60, 0
3, 27167, Note_on_c, 0, 57, 0
3, 27167, Note_on_c, 0, 53, 0
3, 27360, Note_on_c, 0, 46, 67
3, 27360, Note_on_c, 0, 53, 67
3, 27360, Note_on_c, 0, 58, 67
3, 27407, Note_on_c, 0, 58, 0
3, 27407, Note_on_c, 0, 53, 0
3, 27407, Note_on_c, 0, 46, 0
3, 28800, Note_on_c, 0, 49, 80
3, 28800, Note_on_c, 0, 56, 80
3, 28847, Note_on_c, 0, 56, 0
3, 28847, Note_on_c, 0, 49, 0
3, 29040, Note_on_c, 0, 65, 80
3, 29040, Note_on_c, 0, 68, 80
3, 29087, Note_on_c, 0, 68, 0
3, 29087, Note_on_c, 0, 65, 0
3, 29520, Note_on_c, 0, 66, 80
3, 29520, Note_on_c, 0, 70, 80
3, 29567, Note_on_c, 0, 70, 0
3, 29567, Note_on_c, 0, 66, 0
3, 29760, Note_on_c, 0, 65, 80
3, 29760, Note_on_c, 0, 68, 80
3, 29807, Note_on_c, 0, 68, 0
3, 29807, Note_on_c, 0, 65, 0
3, 30000, Note_on_c, 0, 63, 80
3, 30000, Note_on_c, 0, 66, 80
3, 30047, Note_on_c, 0, 66, 0
3, 30047, Note_on_c, 0, 63, 0
3, 30240, Note_on_c, 0, 61, 80
3, 30240, Note_on_c, 0, 65, 80
3, 30287, Note_on_c, 0, 65, 0
3, 30287, Note_on_c, 0, 61, 0
3, 30480, Note_on_c, 0, 59, 80
3, 30480, Note_on_c, 0, 62, 80
3, 30527, Note_on_c, 0, 62, 0
3, 30527, Note_on_c, 0, 59, 0
3, 30720, Note_on_c, 0, 60, 80
3, 30720, Note_on_c, 0, 63, 80
3, 30767, Note_on_c, 0, 63, 0
3, 30767, Note_on_c, 0, 60, 0
3, 30960, Note_on_c, 0, 56, 80
3, 30960, Note_on_c, 0, 60, 80
3, 31007, Note_on_c, 0, 60, 0
3, 31007, Note_on_c, 0, 56, 0
3, 31200, Note_on_c, 0, 58, 80
3, 31200, Note_on_c, 0, 61, 80
3, 31247, Note_on_c, 0, 61, 0
3, 31247, Note_on_c, 0, 58, 0
3, 31440, Note_on_c, 0, 60, 80
3, 31440, Note_on_c, 0, 63, 80
3, 31487, Note_on_c, 0, 63, 0
3, 31487, Note_on_c, 0, 60, 0
3, 31680, Note_on_c, 0, 49, 80
3, 31680, Note_on_c, 0, 56, 80
3, 31727, Note_on_c, 0, 56, 0
3, 31727, Note_on_c, 0, 49, 0
3, 31920, Note_on_c, 0, 65, 80
3, 31920, Note_on_c, 0, 68, 80
3, 31967, Note_on_c, 0, 68, 0
3, 31967, Note_on_c, 0, 65, 0
3, 32400, Note_on_c, 0, 66, 80
3, 32400, Note_on_c, 0, 70, 80
3, 32447, Note_on_c, 0, 70, 0
3, 32447, Note_on_c, 0, 66, 0
3, 32640, Note_on_c, 0, 65, 80
3, 32640, Note_on_c, 0, 68, 80
3, 32687, Note_on_c, 0, 68, 0
3, 32687, Note_on_c, 0, 65, 0
3, 32880, Note_on_c, 0, 63, 80
3, 32880, Note_on_c, 0, 66, 80
3, 32927, Note_on_c, 0, 66, 0
3, 32927, Note_on_c, 0, 63, 0
3, 33120, Note_on_c, 0, 61, 80
3, 33120, Note_on_c, 0, 65, 80
3, 33167, Note_on_c, 0, 65, 0
3, 33167, Note_on_c, 0, 61, 0
3, 33360, Note_on_c, 0, 59, 80
3, 33360, Note_on_c, 0, 62, 80
3, 33407, Note_on_c, 0, 62, 0
3, 33407, Note_on_c, 0, 59, 0
3, 33600, Note_on_c, 0, 60, 80
3, 33600, Note_on_c, 0, 63, 80
3, 33647, Note_on_c, 0, 63, 0
3, 33647, Note_on_c, 0, 60, 0
3, 33840, Note_on_c, 0, 56, 80
3, 33840, Note_on_c, 0, 60, 80
3, 33887, Note_on_c, 0, 60, 0
3, 33887, Note_on_c, 0, 56, 0
3, 34080, Note_on_c, 0, 58, 80
3, 34080, Note_on_c, 0, 61, 80
3, 34127, Note_on_c, 0, 61, 0
3, 34127, Note_on_c, 0, 58, 0
3, 34320, Note_on_c, 0, 60, 80
3, 34320, Note_on_c, 0, 63, 80
3, 34367, Note_on_c, 0, 63, 0
3, 34367, Note_on_c, 0, 60, 0
3, 34560, Note_on_c, 0, 61, 80
3, 34560, Note_on_c, 0, 65, 80
3, 34607, Note_on_c, 0, 65, 0
3, 34607, Note_on_c, 0, 61, 0
3, 34800, Note_on_c, 0, 63, 80
3, 34800, Note_on_c, 0, 66, 80
3, 34847, Note_on_c, 0, 66, 0
3, 34847, Note_on_c, 0, 63, 0
3, 35040, Note_on_c, 0, 65, 80
3, 35040, Note_on_c, 0, 68, 80
3, 35087, Note_on_c, 0, 68, 0
3, 35087, Note_on_c, 0, 65, 0
3, 35280, Note_on_c, 0, 63, 80
3, 35280, Note_on_c, 0, 66, 80
3, 35327, Note_on_c, 0, 66, 0
3, 35327, Note_on_c, 0, 63, 0
3, 35520, Note_on_c, 0, 61, 80
3, 35520, Note_on_c, 0, 65, 80
3, 35567, Note_on_c, 0, 65, 0
3, 35567, Note_on_c, 0, 61, 0
3, 35760, Note_on_c, 0, 63, 80
3, 35760, Note_on_c, 0, 66, 80
3, 35807, Note_on_c, 0, 66, 0
3, 35807, Note_on_c, 0, 63, 0
3, 36000, Note_on_c, 0, 65, 80
3, 36000, Note_on_c, 0, 68, 80
3, 36047, Note_on_c, 0, 68, 0
3, 36047, Note_on_c, 0, 65, 0
3, 36240, Note_on_c, 0, 63, 80
3, 36240, Note_on_c, 0, 66, 80
3, 36287, Note_on_c, 0, 66, 0
3, 36287, Note_on_c, 0, 63, 0
3, 36480, Note_on_c, 0, 61, 80
3, 36480, Note_on_c, 0, 65, 80
3, 36527, Note_on_c, 0, 65, 0
3, 36527, Note_on_c, 0, 61, 0
3, 36720, Note_on_c, 0, 61, 80
3, 36720, Note_on_c, 0, 65, 80
3, 36767, Note_on_c, 0, 65, 0
3, 36767, Note_on_c, 0, 61, 0
3, 36960, Note_on_c, 0, 61, 80
3, 36960, Note_on_c, 0, 65, 80
3, 37007, Note_on_c, 0, 65, 0
3, 37007, Note_on_c, 0, 61, 0
3, 37200, Note_on_c, 0, 61, 80
3, 37200, Note_on_c, 0, 65, 80
3, 37247, Note_on_c, 0, 65, 0
3, 37247, Note_on_c, 0, 61, 0
3, 40560, Note_on_c, 0, 61, 80
3, 40560, Note_on_c, 0, 65, 80
3, 40560, Note_on_c, 0, 73, 80
3, 40607, Note_on_c, 0, 73, 0
3, 40607, Note_on_c, 0, 65, 0
3, 40607, Note_on_c, 0, 61, 0
3, 40800, Note_on_c, 0, 63, 106
3, 40800, Note_on_c, 0, 66, 106
3, 40800, Note_on_c, 0, 75, 106
3, 41160, Note_on_c, 0, 75, 0
3, 41160, Note_on_c, 0, 66, 0
3, 41160, Note_on_c, 0, 63, 0
3, 41160, Note_on_c, 0, 61, 80
3, 41160, Note_on_c, 0, 65, 80
3, 41220, Note_on_c, 0, 65, 0
3, 41220, Note_on_c, 0, 61, 0
3, 41220, Note_on_c, 0, 73, 80
3, 41280, Note_on_c, 0, 73, 0
3, 41280, Note_on_c, 0, 61, 80
3, 41280, Note_on_c, 0, 65, 80
3, 41327, Note_on_c, 0, 65, 0
3, 41327, Note_on_c, 0, 61, 0
3, 41520, Note_on_c, 0, 60, 80
3, 41520, Note_on_c, 0, 63, 80
3, 41520, Note_on_c, 0, 72, 80
3, 41567, Note_on_c, 0, 72, 0
3, 41567, Note_on_c, 0, 63, 0
3, 41567, Note_on_c, 0, 60, 0
3, 42000, Note_on_c, 0, 61, 80
3, 42000, Note_on_c, 0, 65, 80
3, 42000, Note_on_c, 0, 73, 80
3, 42047, Note_on_c, 0, 73, 0
3, 42047, Note_on_c, 0, 65, 0
3, 42047, Note_on_c, 0, 61, 0
3, 42240, Note_on_c, 0, 60, 106
3, 42240, Note_on_c, 0, 63, 106
3, 42240, Note_on_c, 0, 72, 106
3, 42600, Note_on_c, 0, 72, 0
3, 42600, Note_on_c, 0, 63, 0
3, 42600, Note_on_c, 0, 60, 0
3, 42600, Note_on_c, 0, 58, 80
3, 42600, Note_on_c, 0, 61, 80
3, 42660, Note_on_c, 0, 61, 0
3, 42660, Note_on_c, 0, 58, 0
3, 42660, Note_on_c, 0, 70, 80
3, 42720, Note_on_c, 0, 70, 0
3, 42720, Note_on_c, 0, 58, 80
3, 42720, Note_on_c, 0, 61, 80
3, 42767, Note_on_c, 0, 61, 0
3, 42767, Note_on_c, 0, 58, 0
3, 42960, Note_on_c, 0, 53, 80
3, 42960, Note_on_c, 0, 57, 80
3, 42960, Note_on_c, 0, 60, 80
3, 42960, Note_on_c, 0, 65, 80
3, 43007, Note_on_c, 0, 65, 0
3, 43007, Note_on_c, 0, 53, 0
3, 43007, Note_on_c, 0, 57, 0
3, 43007, Note_on_c, 0, 60, 0
3, 43440, Note_on_c, 0, 61, 80
3, 43440, Note_on_c, 0, 65, 80
3, 43440, Note_on_c, 0, 73, 80
3, 43487, Note_on_c, 0, 73, 0
3, 43487, Note_on_c, 0, 65, 0
3, 43487, Note_on_c, 0, 61, 0
3, 43680, Note_on_c, 0, 60, 106
3, 43680, Note_on_c, 0, 63, 106
3, 43680, Note_on_c, 0, 72, 106
3, 44040, Note_on_c, 0, 72, 0
3, 44040, Note_on_c, 0, 63, 0
3, 44040, Note_on_c, 0, 60, 0
3, 44040, Note_on_c, 0, 58, 80
3, 44040, Note_on_c, 0, 61, 80
3, 44100, Note_on_c, 0, 61, 0
3, 44100, Note_on_c, 0, 58, 0
3, 44100, Note_on_c, 0, 70, 80
3, 44160, Note_on_c, 0, 70, 0
3, 44160, Note_on_c, 0, 58, 80
3, 44160, Note_on_c, 0, 61, 80
3, 44207, Note_on_c, 0, 61, 0
3, 44207, Note_on_c, 0, 58, 0
3, 44400, Note_on_c, 0, 53, 80
3, 44400, Note_on_c, 0, 57, 80
3, 44400, Note_on_c, 0, 60, 80
3, 44400, Note_on_c, 0, 65, 80
3, 44447, Note_on_c, 0, 65, 0
3, 44447, Note_on_c, 0, 53, 0
3, 44447, Note_on_c, 0, 57, 0
3, 44447, Note_on_c, 0, 60, 0
3, 44880, Note_on_c, 0, 61, 80
3, 44880, Note_on_c, 0, 65, 80
3, 44880, Note_on_c, 0, 73, 80
3, 44927, Note_on_c, 0, 73, 0
3, 44927, Note_on_c, 0, 65, 0
3, 44927, Note_on_c, 0, 61, 0
3, 45120, Note_on_c, 0, 60, 106
3, 45120, Note_on_c, 0, 63, 106
3, 45120, Note_on_c, 0, 72, 106
3, 45480, Note_on_c, 0, 72, 0
3, 45480, Note_on_c, 0, 63, 0
3, 45480, Note_on_c, 0, 60, 0
3, 45480, Note_on_c, 0, 58, 80
3, 45480, Note_on_c, 0, 61, 80
3, 45540, Note_on_c, 0, 61, 0
3, 45540, Note_on_c, 0, 58, 0
3, 45540, Note_on_c, 0, 70, 80
3, 45600, Note_on_c, 0, 70, 0
3, 45600, Note_on_c, 0, 58, 80
3, 45600, Note_on_c, 0, 61, 80
3, 45647, Note_on_c, 0, 61, 0
3, 45647, Note_on_c, 0, 58, 0
3, 45840, Note_on_c, 0, 53, 80
3, 45840, Note_on_c, 0, 57, 80
3, 45840, Note_on_c, 0, 60, 80
3, 45840, Note_on_c, 0, 65, 80
3, 45887, Note_on_c, 0, 65, 0
3, 45887, Note_on_c, 0, 53, 0
3, 45887, Note_on_c, 0, 57, 0
3, 45887, Note_on_c, 0, 60, 0
3, 46320, Note_on_c, 0, 61, 80
3, 46320, Note_on_c, 0, 65, 80
3, 46320, Note_on_c, 0, 73, 80
3, 46367, Note_on_c, 0, 73, 0
3, 46367, Note_on_c, 0, 65, 0
3, 46367, Note_on_c, 0, 61, 0
3, 46560, Note_on_c, 0, 63, 106
3, 46560, Note_on_c, 0, 66, 106
3, 46560, Note_on_c, 0, 75, 106
3, 46920, Note_on_c, 0, 75, 0
3, 46920, Note_on_c, 0, 66, 0
3, 46920, Note_on_c, 0, 63, 0
3, 46920, Note_on_c, 0, 61, 80
3, 46920, Note_on_c, 0, 65, 80
3, 46980, Note_on_c, 0, 65, 0
3, 46980, Note_on_c, 0, 61, 0
3, 46980, Note_on_c, 0, 73, 80
3, 47040, Note_on_c, 0, 73, 0
3, 47040, Note_on_c, 0, 61, 80
3, 47040, Note_on_c, 0, 65, 80
3, 47087, Note_on_c, 0, 65, 0
3, 47087, Note_on_c, 0, 61, 0
3, 47280, Note_on_c, 0, 60, 80
3, 47280, Note_on_c, 0, 63, 80
3, 47280, Note_on_c, 0, 72, 80
3, 47327, Note_on_c, 0, 72, 0
3, 47327, Note_on_c, 0, 63, 0
3, 47327, Note_on_c, 0, 60, 0
3, 47760, Note_on_c, 0, 61, 80
3, 47760, Note_on_c, 0, 65, 80
3, 47760, Note_on_c, 0, 73, 80
3, 47807, Note_on_c, 0, 73, 0
3, 47807, Note_on_c, 0, 65, 0
3, 47807, Note_on_c, 0, 61, 0
3, 48000, Note_on_c, 0, 60, 106
3, 48000, Note_on_c, 0, 63, 106
3, 48000, Note_on_c, 0, 72, 106
3, 48360, Note_on_c, 0, 72, 0
3, 48360, Note_on_c, 0, 63, 0
3, 48360, Note_on_c, 0, 60, 0
3, 48360, Note_on_c, 0, 58, 80
3, 48360, Note_on_c, 0, 61, 80
3, 48420, Note_on_c, 0, 61, 0
3, 48420, Note_on_c, 0, 58, 0
3, 48420, Note_on_c, 0, 70, 80
3, 48480, Note_on_c, 0, 70, 0
3, 48480, Note_on_c, 0, 58, 80
3, 48480, Note_on_c, 0, 61, 80
3, 48527, Note_on_c, 0, 61, 0
3, 48527, Note_on_c, 0, 58, 0
3, 48720, Note_on_c, 0, 53, 80
3, 48720, Note_on_c, 0, 57, 80
3, 48720, Note_on_c, 0, 60, 80
3, 48720, Note_on_c, 0, 65, 80
3, 48767, Note_on_c, 0, 65, 0
3, 48767, Note_on_c, 0, 53, 0
3, 48767, Note_on_c, 0, 57, 0
3, 48767, Note_on_c, 0, 60, 0
3, 49200, Note_on_c, 0, 61, 80
3, 49200, Note_on_c, 0, 65, 80
3, 49200, Note_on_c, 0, 73, 80
3, 49247, Note_on_c, 0, 73, 0
3, 49247, Note_on_c, 0, 65, 0
3, 49247, Note_on_c, 0, 61, 0
3, 49440, Note_on_c, 0, 60, 106
3, 49440, Note_on_c, 0, 63, 106
3, 49440, Note_on_c, 0, 72, 106
3, 49800, Note_on_c, 0, 72, 0
3, 49800, Note_on_c, 0, 63, 0
3, 49800, Note_on_c, 0, 60, 0
3, 49800, Note_on_c, 0, 58, 80
3, 49800, Note_on_c, 0, 61, 80
3, 49860, Note_on_c, 0, 61, 0
3, 49860, Note_on_c, 0, 58, 0
3, 49860, Note_on_c, 0, 70, 80
3, 49920, Note_on_c, 0, 70, 0
3, 49920, Note_on_c, 0, 58, 80
3, 49920, Note_on_c, 0, 61, 80
3, 49967, Note_on_c, 0, 61, 0
3, 49967, Note_on_c, 0, 58, 0
3, 50160, Note_on_c, 0, 53, 80
3, 50160, Note_on_c, 0, 57, 80
3, 50160, Note_on_c, 0, 60, 80
3, 50160, Note_on_c, 0, 65, 80
3, 50207, Note_on_c, 0, 65, 0
3, 50207, Note_on_c, 0, 53, 0
3, 50207, Note_on_c, 0, 57, 0
3, 50207, Note_on_c, 0, 60, 0
3, 50640, Note_on_c, 0, 61, 80
3, 50640, Note_on_c, 0, 65, 80
3, 50640, Note_on_c, 0, 73, 80
3, 50687, Note_on_c, 0, 73, 0
3, 50687, Note_on_c, 0, 65, 0
3, 50687, Note_on_c, 0, 61, 0
3, 50880, Note_on_c, 0, 59, 106
3, 50880, Note_on_c, 0, 63, 106
3, 50880, Note_on_c, 0, 71, 106
3, 51240, Note_on_c, 0, 71, 0
3, 51240, Note_on_c, 0, 63, 0
3, 51240, Note_on_c, 0, 59, 0
3, 51240, Note_on_c, 0, 58, 80
3, 51240, Note_on_c, 0, 61, 80
3, 51300, Note_on_c, 0, 61, 0
3, 51300, Note_on_c, 0, 58, 0
3, 51300, Note_on_c, 0, 70, 80
3, 51360, Note_on_c, 0, 70, 0
3, 51360, Note_on_c, 0, 58, 80
3, 51360, Note_on_c, 0, 61, 80
3, 51407, Note_on_c, 0, 61, 0
3, 51407, Note_on_c, 0, 58, 0
3, 51600, Note_on_c, 0, 56, 80
3, 51600, Note_on_c, 0, 59, 80
3, 51600, Note_on_c, 0, 68, 80
3, 51647, Note_on_c, 0, 68, 0
3, 51647, Note_on_c, 0, 59, 0
3, 51647, Note_on_c, 0, 56, 0
3, 51840, Note_on_c, 0, 54, 80
3, 51840, Note_on_c, 0, 58, 80
3, 51840, Note_on_c, 0, 66, 80
3, 51887, Note_on_c, 0, 66, 0
3, 51887, Note_on_c, 0, 58, 0
3, 51887, Note_on_c, 0, 54, 0
3, 63360, Note_on_c, 0, 41, 67
3, 63360, Note_on_c, 0, 48, 67
3, 63600, Note_on_c, 0, 48, 0
3, 63600, Note_on_c, 0, 41, 0
3, 63600, Note_on_c, 0, 53, 67
3, 63600, Note_on_c, 0, 58, 67
3, 63600, Note_on_c, 0, 60, 67
3, 64080, Note_on_c, 0, 60, 0
3, 64080, Note_on_c, 0, 58, 0
3, 64080, Note_on_c, 0, 53, 0
3, 64080, Note_on_c, 0, 53, 67
3, 64080, Note_on_c, 0, 58, 67
3, 64080, Note_on_c, 0, 60, 67
3, 64320, Note_on_c, 0, 60, 0
3, 64320, Note_on_c, 0, 58, 0
3, 64320, Note_on_c, 0, 53, 0
3, 64320, Note_on_c, 0, 41, 67
3, 64320, Note_on_c, 0, 48, 67
3, 64560, Note_on_c, 0, 48, 0
3, 64560, Note_on_c, 0, 41, 0
3, 64560, Note_on_c, 0, 53, 67
3, 64560, Note_on_c, 0, 58, 67
3, 64560, Note_on_c, 0, 60, 67
3, 64800, Note_on_c, 0, 60, 0
3, 64800, Note_on_c, 0, 58, 0
3, 64800, Note_on_c, 0, 53, 0
3, 64800, Note_on_c, 0, 53, 67
3, 64800, Note_on_c, 0, 57, 67
3, 64847, Note_on_c, 0, 57, 0
3, 64847, Note_on_c, 0, 53, 0
3, 65040, Note_on_c, 0, 48, 67
3, 65040, Note_on_c, 0, 60, 67
3, 65087, Note_on_c, 0, 60, 0
3, 65087, Note_on_c, 0, 48, 0
3, 65280, Note_on_c, 0, 53, 80
3, 65280, Note_on_c, 0, 57, 80
3, 65280, Note_on_c, 0, 62, 80
3, 65760, Note_on_c, 0, 62, 0
3, 65760, Note_on_c, 0, 57, 0
3, 65760, Note_on_c, 0, 53, 0
3, 65760, Note_on_c, 0, 61, 80
3, 66000, Note_on_c, 0, 61, 0
3, 66000, Note_on_c, 0, 60, 80
3, 66240, Note_on_c, 0, 60, 0
3, 66240, Note_on_c, 0, 41, 67
3, 66240, Note_on_c, 0, 48, 67
3, 66480, Note_on_c, 0, 48, 0
3, 66480, Note_on_c, 0, 41, 0
3, 66480, Note_on_c, 0, 53, 67
3, 66480, Note_on_c, 0, 58, 67
3, 66480, Note_on_c, 0, 60, 67
3, 66960, Note_on_c, 0, 60, 0
3, 66960, Note_on_c, 0, 58, 0
3, 66960, Note_on_c, 0, 53, 0
3, 66960, Note_on_c, 0, 53, 67
3, 66960, Note_on_c, 0, 58, 67
3, 66960, Note_on_c, 0, 60, 67
3, 67200, Note_on_c, 0, 60, 0
3, 67200, Note_on_c, 0, 58, 0
3, 67200, Note_on_c, 0, 53, 0
3, 67200, Note_on_c, 0, 41, 67
3, 67200, Note_on_c, 0, 48, 67
3, 67440, Note_on_c, 0, 48, 0
3, 67440, Note_on_c, 0, 41, 0
3, 67440, Note_on_c, 0, 53, 67
3, 67440, Note_on_c, 0, 58, 67
3, 67440, Note_on_c, 0, 60, 67
3, 67680, Note_on_c, 0, 60, 0
3, 67680, Note_on_c, 0, 58, 0
3, 67680, Note_on_c, 0, 53, 0
3, 67680, Note_on_c, 0, 53, 67
3, 67680, Note_on_c, 0, 57, 67
3, 67727, Note_on_c, 0, 57, 0
3, 67727, Note_on_c, 0, 53, 0
3, 67920, Note_on_c, 0, 48, 67
3, 67920, Note_on_c, 0, 60, 67
3, 67967, Note_on_c, 0, 60, 0
3, 67967, Note_on_c, 0, 48, 0
3, 68160, Note_on_c, 0, 53, 80
3, 68160, Note_on_c, 0, 57, 80
3, 68160, Note_on_c, 0, 62, 80
3, 68640, Note_on_c, 0, 62, 0
3, 68640, Note_on_c, 0, 57, 0
3, 68640, Note_on_c, 0, 53, 0
3, 68640, Note_on_c, 0, 61, 67
3, 68880, Note_on_c, 0, 61, 0
3, 68880, Note_on_c, 0, 60, 67
3, 69120, Note_on_c, 0, 60, 0
3, 69120, Note_on_c, 0, 65, 67
3, 69120, Note_on_c, 0, 67, 67
3, 69120, Note_on_c, 0, 70, 67
3, 69120, Note_on_c, 0, 72, 67
3, 69600, Note_on_c, 0, 70, 0
3, 69600, Note_on_c, 0, 67, 0
3, 69600, Note_on_c, 0, 69, 67
3, 69840, Note_on_c, 0, 69, 0
3, 69840, Note_on_c, 0, 65, 0
3, 69840, Note_on_c, 0, 72, 0
3, 70560, Note_on_c, 0, 77, 67
3, 70560, Note_on_c, 0, 79, 67
3, 70560, Note_on_c, 0, 82, 67
3, 70560, Note_on_c, 0, 84, 67
3, 71040, Note_on_c, 0, 82, 0
3, 71040, Note_on_c, 0, 79, 0
3, 71040, Note_on_c, 0, 81, 67
3, 71280, Note_on_c, 0, 81, 0
3, 71280, Note_on_c, 0, 77, 0
3, 71280, Note_on_c, 0, 84, 0
3, 72000, Note_on_c, 0, 89, 67
3, 72000, Note_on_c, 0, 91, 67
3, 72000, Note_on_c, 0, 94, 67
3, 72000, Note_on_c, 0, 96, 67
3, 72480, Note_on_c, 0, 94, 0
3, 72480, Note_on_c, 0, 91, 0
3, 72480, Note_on_c, 0, 93, 67
3, 72720, Note_on_c, 0, 93, 0
3, 72720, Note_on_c, 0, 89, 0
3, 72720, Note_on_c, 0, 96, 0
3, 80760, Note_on_c, 0, 50, 67
3, 80880, Note_on_c, 0, 50, 0
3, 80880, Note_on_c, 0, 51, 67
3, 81000, Note_on_c, 0, 51, 0
3, 81000, Note_on_c, 0, 53, 67
3, 81120, Note_on_c, 0, 53, 0
3, 81120, Note_on_c, 0, 54, 67
3, 81240, Note_on_c, 0, 54, 0
3, 81240, Note_on_c, 0, 55, 67
3, 81360, Note_on_c, 0, 55, 0
3, 81360, Note_on_c, 0, 56, 67
3, 81480, Note_on_c, 0, 56, 0
3, 81480, Note_on_c, 0, 58, 67
3, 81600, Note_on_c, 0, 58, 0
3, 81600, Note_on_c, 0, 60, 67
3, 81720, Note_on_c, 0, 60, 0
3, 81720, Note_on_c, 0, 44, 67
3, 81840, Note_on_c, 0, 44, 0
3, 81840, Note_on_c, 0, 46, 67
3, 81960, Note_on_c, 0, 46, 0
3, 81960, Note_on_c, 0, 48, 67
3, 82080, Note_on_c, 0, 48, 0
3, 82080, Note_on_c, 0, 49, 67
3, 82320, Note_on_c, 0, 49, 0
3, 93600, Control_c, 0, 64, 127
3, 93600, Note_on_c, 0, 49, 67
3, 93720, Note_on_c, 0, 49, 0
3, 93720, Note_on_c, 0, 78, 67
3, 93840, Note_on_c, 0, 78, 0
3, 93840, Note_on_c, 0, 75, 67
3, 93960, Note_on_c, 0, 75, 0
3, 93960, Note_on_c, 0, 72, 67
3, 94080, Note_on_c, 0, 72, 0
3, 94200, Note_on_c, 0, 68, 67
3, 94320, Note_on_c, 0, 68, 0
3, 94320, Note_on_c, 0, 66, 67
3, 94440, Note_on_c, 0, 66, 0
3, 94440, Note_on_c, 0, 63, 67
3, 94560, Note_on_c, 0, 63, 0
3, 94560, Note_on_c, 0, 60, 67
3, 94680, Note_on_c, 0, 60, 0
3, 94680, Note_on_c, 0, 56, 67
3, 94800, Note_on_c, 0, 56, 0
3, 94800, Note_on_c, 0, 54, 67
3, 94920, Note_on_c, 0, 54, 0
3, 94920, Control_c, 0, 64, 0
3, 94920, Note_on_c, 0, 51, 67
3, 95040, Note_on_c, 0, 51, 0
3, 95040, Control_c, 0, 64, 127
3, 95040, Note_on_c, 0, 49, 67
3, 95160, Note_on_c, 0, 49, 0
3, 95160, Note_on_c, 0, 77, 67
3, 95280, Note_on_c, 0, 77, 0
3, 95280, Note_on_c, 0, 73, 67
3, 95400, Note_on_c, 0, 73, 0
3, 95400, Note_on_c, 0, 70, 67
3, 95520, Note_on_c, 0, 70, 0
3, 95640, Note_on_c, 0, 65, 67
3, 95760, Note_on_c, 0, 65, 0
3, 95760, Note_on_c, 0, 61, 67
3, 95880, Note_on_c, 0, 61, 0
3, 95880, Note_on_c, 0, 58, 67
3, 96000, Note_on_c, 0, 58, 0
3, 96000, Note_on_c, 0, 56, 67
3, 96120, Note_on_c, 0, 56, 0
3, 96120, Note_on_c, 0, 53, 67
3, 96240, Note_on_c, 0, 53, 0
3, 96240, Note_on_c, 0, 49, 67
3, 96360, Note_on_c, 0, 49, 0
3, 96360, Control_c, 0, 64, 0
3, 96360, Note_on_c, 0, 44, 67
3, 96480, Note_on_c, 0, 44, 0
3, 96480, Control_c, 0, 64, 127
3, 96480, Note_on_c, 0, 37, 67
3, 96600, Note_on_c, 0, 37, 0
3, 96600, Note_on_c, 0, 73, 67
3, 96720, Note_on_c, 0, 73, 0
3, 96720, Note_on_c, 0, 68, 67
3, 96840, Note_on_c, 0, 68, 0
3, 96840, Note_on_c, 0, 66, 67
3, 96960, Note_on_c, 0, 66, 0
3, 96960, Note_on_c, 0, 63, 67
3, 97080, Note_on_c, 0, 63, 0
3, 97080, Note_on_c, 0, 60, 67
3, 97200, Note_on_c, 0, 60, 0
3, 97200, Note_on_c, 0, 56, 67
3, 97320, Note_on_c, 0, 56, 0
3, 97320, Note_on_c, 0, 54, 67
3, 97440, Note_on_c, 0, 54, 0
3, 97440, Note_on_c, 0, 51, 67
3, 97560, Note_on_c, 0, 51, 0
3, 97560, Note_on_c, 0, 48, 67
3, 97680, Note_on_c, 0, 48, 0
3, 97680, Note_on_c, 0, 44, 67
3, 97800, Note_on_c, 0, 44, 0
3, 97800, Control_c, 0, 64, 0
3, 97800, Note_on_c, 0, 42, 67
3, 97920, Note_on_c, 0, 42, 0
3, 97920, Control_c, 0, 64, 127
3, 97920, Note_on_c, 0, 37, 67
3, 98160, Note_on_c, 0, 37, 0
3, 98400, Note_on_c, 0, 58, 93
3, 98400, Note_on_c, 0, 70, 93
3, 98640, Note_on_c, 0, 70, 0
3, 98640, Note_on_c, 0, 58, 0
3, 98640, Note_on_c, 0, 61, 93
3, 98640, Note_on_c, 0, 73, 93
3, 98880, Note_on_c, 0, 73, 0
3, 98880, Note_on_c, 0, 61, 0
3, 98880, Control_c, 0, 64, 0
3, 98880, Note_on_c, 0, 56, 67
3, 98880, Note_on_c, 0, 61, 67
3, 98880, Note_on_c, 0, 65, 67
3, 98880, Note_on_c, 0, 68, 67
3, 99360, Note_on_c, 0, 68, 0
3, 99360, Note_on_c, 0, 56, 0
3, 99360, Note_on_c, 0, 61, 0
3, 99360, Note_on_c, 0, 65, 0
3, 99360, Control_c, 0, 64, 127
3, 99360, Note_on_c, 0, 49, 67
3, 99480, Note_on_c, 0, 49, 0
3, 99480, Note_on_c, 0, 78, 67
3, 99600, Note_on_c, 0, 78, 0
3, 99600, Note_on_c, 0, 75, 67
3, 99720, Note_on_c, 0, 75, 0
3, 99720, Note_on_c, 0, 72, 67
3, 99840, Note_on_c, 0, 72, 0
3, 99960, Note_on_c, 0, 68, 67
3, 100080, Note_on_c, 0, 68, 0
3, 100080, Note_on_c, 0, 66, 67
3, 100200, Note_on_c, 0, 66, 0
3, 100200, Note_on_c, 0, 63, 67
3, 100320, Note_on_c, 0, 63, 0
3, 100320, Note_on_c, 0, 60, 67
3, 100440, Note_on_c, 0, 60, 0
3, 100440, Note_on_c, 0, 56, 67
3, 100560, Note_on_c, 0, 56, 0
3, 100560, Note_on_c, 0, 54, 67
3, 100680, Note_on_c, 0, 54, 0
3, 100680, Control_c, 0, 64, 0
3, 100680, Note_on_c, 0, 51, 67
3, 100800, Note_on_c, 0, 51, 0
3, 100800, Control_c, 0, 64, 127
3, 100800, Note_on_c, 0, 49, 67
3, 100920, Note_on_c, 0, 49, 0
3, 100920, Note_on_c, 0, 77, 67
3, 101040, Note_on_c, 0, 77, 0
3, 101040, Note_on_c, 0, 73, 67
3, 101160, Note_on_c, 0, 73, 0
3, 101160, Note_on_c, 0, 70, 67
3, 101280, Note_on_c, 0, 70, 0
3, 101400, Note_on_c, 0, 65, 67
3, 101520, Note_on_c, 0, 65, 0
3, 101520, Note_on_c, 0, 61, 67
3, 101640, Note_on_c, 0, 61, 0
3, 101640, Note_on_c, 0, 58, 67
3, 101760, Note_on_c, 0, 58, 0
3, 101760, Note_on_c, 0, 56, 67
3, 101880, Note_on_c, 0, 56, 0
3, 101880, Note_on_c, 0, 53, 67
3, 102000, Note_on_c, 0, 53, 0
3, 102000, Note_on_c, 0, 49, 67
3, 102120, Note_on_c, 0, 49, 0
3, 102120, Control_c, 0, 64, 0
3, 102120, Note_on_c, 0, 47, 67
3, 102240, Note_on_c, 0, 47, 0
3, 102240, Control_c, 0, 64, 127
3, 102240, Note_on_c, 0, 48, 67
3, 102360, Note_on_c, 0, 48, 0
3, 102360, Note_on_c, 0, 53, 67
3, 102480, Note_on_c, 0, 53, 0
3, 102480, Note_on_c, 0, 56, 67
3, 102600, Note_on_c, 0, 56, 0
3, 102600, Note_on_c, 0, 60, 67
3, 102720, Note_on_c, 0, 60, 0
3, 102720, Control_c, 0, 64, 0
3, 102720, Note_on_c, 0, 65, 67
3, 102720, Note_on_c, 0, 68, 67
3, 103200, Note_on_c, 0, 68, 0
3, 103200, Note_on_c, 0, 65, 0
3, 103320, Note_on_c, 0, 48, 67
3, 103440, Note_on_c, 0, 48, 0
3, 103440, Note_on_c, 0, 55, 67
3, 103440, Note_on_c, 0, 58, 67
3, 103560, Note_on_c, 0, 58, 0
3, 103560, Note_on_c, 0, 55, 0
3, 103560, Note_on_c, 0, 64, 67
3, 103680, Note_on_c, 0, 64, 0
3, 103680, Control_c, 0, 64, 127
3, 103680, Note_on_c, 0, 53, 67
3, 103800, Note_on_c, 0, 53, 0
3, 103800, Note_on_c, 0, 56, 67
3, 103920, Note_on_c, 0, 56, 0
3, 103920, Note_on_c, 0, 60, 67
3, 104040, Note_on_c, 0, 60, 0
3, 104040, Note_on_c, 0, 65, 67
3, 104160, Note_on_c, 0, 65, 0
3, 104160, Note_on_c, 0, 68, 80
3, 104640, Note_on_c, 0, 68, 0
3, 104640, Control_c, 0, 64, 0
3, 104640, Note_on_c, 0, 52, 80
3, 104640, Note_on_c, 0, 56, 80
3, 104640, Note_on_c, 0, 62, 80
3, 105120, Note_on_c, 0, 62, 0
3, 105120, Note_on_c, 0, 56, 0
3, 105120, Note_on_c, 0, 52, 0
3, 105120, Control_c, 0, 64, 127
3, 105120, Note_on_c, 0, 51, 80
3, 105240, Note_on_c, 0, 51, 0
3, 105240, Note_on_c, 0, 56, 80
3, 105360, Note_on_c, 0, 56, 0
3, 105360, Note_on_c, 0, 60, 80
3, 105480, Note_on_c, 0, 60, 0
3, 105480, Note_on_c, 0, 63, 80
3, 105600, Note_on_c, 0, 63, 0
3, 105600, Note_on_c, 0, 68, 80
3, 105600, Note_on_c, 0, 72, 80
3, 105840, Note_on_c, 0, 72, 0
3, 105840, Note_on_c, 0, 68, 0
3, 106200, Control_c, 0, 64, 0
3, 106200, Note_on_c, 0, 51, 80
3, 106320, Note_on_c, 0, 51, 0
3, 106320, Note_on_c, 0, 58, 80
3, 106320, Note_on_c, 0, 61, 80
3, 106440, Note_on_c, 0, 61, 0
3, 106440, Note_on_c, 0, 58, 0
3, 106440, Note_on_c, 0, 67, 80
3, 106560, Note_on_c, 0, 67, 0
3, 106680, Control_c, 0, 64, 127
3, 106680, Note_on_c, 0, 44, 80
3, 106800, Note_on_c, 0, 44, 0
3, 106800, Note_on_c, 0, 51, 80
3, 106920, Note_on_c, 0, 51, 0
3, 106920, Note_on_c, 0, 56, 80
3, 107040, Note_on_c, 0, 56, 0
3, 107040, Note_on_c, 0, 60, 80
3, 107520, Note_on_c, 0, 60, 0
3, 107520, Control_c, 0, 64, 0
3, 107520, Note_on_c, 0, 54, 80
3, 107520, Note_on_c, 0, 60, 80
3, 107520, Note_on_c, 0, 63, 80
3, 108000, Note_on_c, 0, 63, 0
3, 108000, Note_on_c, 0, 60, 0
3, 108000, Note_on_c, 0, 54, 0
3, 108000, Control_c, 0, 64, 127
3, 108000, Note_on_c, 0, 55, 80
3, 108120, Note_on_c, 0, 55, 0
3, 108120, Note_on_c, 0, 60, 80
3, 108240, Note_on_c, 0, 60, 0
3, 108240, Note_on_c, 0, 63, 80
3, 108360, Note_on_c, 0, 63, 0
3, 108360, Note_on_c, 0, 67, 80
3, 108480, Note_on_c, 0, 67, 0
3, 108480, Note_on_c, 0, 72, 80
3, 108480, Note_on_c, 0, 75, 80
3, 108960, Note_on_c, 0, 75, 0
3, 108960, Note_on_c, 0, 72, 0
3, 109080, Note_on_c, 0, 55, 80
3, 109200, Note_on_c, 0, 55, 0
3, 109200, Note_on_c, 0, 62, 80
3, 109200, Note_on_c, 0, 65, 80
3, 109320, Note_on_c, 0, 65, 0
3, 109320, Note_on_c, 0, 62, 0
3, 109320, Note_on_c, 0, 71, 80
3, 109440, Note_on_c, 0, 71, 0
3, 109440, Control_c, 0, 64, 127
3, 109440, Note_on_c, 0, 60, 80
3, 109560, Note_on_c, 0, 60, 0
3, 109560, Note_on_c, 0, 63, 80
3, 109680, Note_on_c, 0, 63, 0
3, 109680, Note_on_c, 0, 67, 80
3, 109800, Note_on_c, 0, 67, 0
3, 109800, Control_c, 0, 64, 0
3, 109800, Note_on_c, 0, 72, 80
3, 109920, Note_on_c, 0, 72, 0
3, 109920, Control_c, 0, 64, 127
3, 109920, Note_on_c, 0, 58, 67
3, 110040, Note_on_c, 0, 58, 0
3, 110040, Note_on_c, 0, 60, 67
3, 110160, Note_on_c, 0, 60, 0
3, 110160, Note_on_c, 0, 63, 67
3, 110280, Note_on_c, 0, 63, 0
3, 110280, Control_c, 0, 64, 0
3, 110280, Note_on_c, 0, 67, 67
3, 110400, Note_on_c, 0, 67, 0
3, 110400, Control_c, 0, 64, 127
3, 110400, Note_on_c, 0, 57, 67
3, 110520, Note_on_c, 0, 57, 0
3, 110520, Note_on_c, 0, 60, 67
3, 110640, Note_on_c, 0, 60, 0
3, 110640, Note_on_c, 0, 63, 67
3, 110760, Note_on_c, 0, 63, 0
3, 110760, Control_c, 0, 64, 0
3, 110760, Note_on_c, 0, 66, 67
3, 110880, Note_on_c, 0, 66, 0
3, 110880, Control_c, 0, 64, 127
3, 110880, Note_on_c, 0, 58, 67
3, 111000, Note_on_c, 0, 58, 0
3, 111000, Note_on_c, 0, 60, 67
3, 111120, Note_on_c, 0, 60, 0
3, 111120, Note_on_c, 0, 63, 67
3, 111240, Note_on_c, 0, 63, 0
3, 111240, Control_c, 0, 64, 0
3, 111240, Note_on_c, 0, 67, 67
3, 111360, Note_on_c, 0, 67, 0
3, 111360, Control_c, 0, 64, 127
3, 111360, Note_on_c, 0, 57, 67
3, 111480, Note_on_c, 0, 57, 0
3, 111480, Note_on_c, 0, 60, 67
3, 111600, Note_on_c, 0, 60, 0
3, 111600, Note_on_c, 0, 63, 67
3, 111720, Note_on_c, 0, 63, 0
3, 111720, Control_c, 0, 64, 0
3, 111720, Note_on_c, 0, 66, 67
3, 111840, Note_on_c, 0, 66, 0
3, 111840, Control_c, 0, 64, 127
3, 111840, Note_on_c, 0, 53, 67
3, 111960, Note_on_c, 0, 53, 0
3, 111960, Note_on_c, 0, 60, 67
3, 112080, Note_on_c, 0, 60, 0
3, 112080, Note_on_c, 0, 63, 67
3, 112200, Note_on_c, 0, 63, 0
3, 112200, Control_c, 0, 64, 0
3, 112200, Note_on_c, 0, 69, 67
3, 112320, Note_on_c, 0, 69, 0
3, 112320, Control_c, 0, 64, 127
3, 112320, Note_on_c, 0, 58, 67
3, 112440, Note_on_c, 0, 58, 0
3, 112440, Note_on_c, 0, 61, 67
3, 112560, Note_on_c, 0, 61, 0
3, 112560, Note_on_c, 0, 65, 67
3, 112680, Note_on_c, 0, 65, 0
3, 112680, Control_c, 0, 64, 0
3, 112680, Note_on_c, 0, 70, 67
3, 112800, Note_on_c, 0, 70, 0
3, 112800, Control_c, 0, 64, 127
3, 112800, Note_on_c, 0, 56, 67
3, 112920, Note_on_c, 0, 56, 0
3, 112920, Note_on_c, 0, 58, 67
3, 113040, Note_on_c, 0, 58, 0
3, 113040, Note_on_c, 0, 61, 67
3, 113160, Note_on_c, 0, 61, 0
3, 113160, Control_c, 0, 64, 0
3, 113160, Note_on_c, 0, 65, 67
3, 113280, Note_on_c, 0, 65, 0
3, 113280, Control_c, 0, 64, 127
3, 113280, Note_on_c, 0, 55, 67
3, 113400, Note_on_c, 0, 55, 0
3, 113400, Note_on_c, 0, 58, 67
3, 113520, Note_on_c, 0, 58, 0
3, 113520, Note_on_c, 0, 61, 67
3, 113640, Note_on_c, 0, 61, 0
3, 113640, Control_c, 0, 64, 0
3, 113640, Note_on_c, 0, 64, 67
3, 113760, Note_on_c, 0, 64, 0
3, 113760, Control_c, 0, 64, 127
3, 113760, Note_on_c, 0, 54, 54
3, 113760, Note_on_c, 0, 58, 54
3, 114000, Note_on_c, 0, 58, 0
3, 114000, Note_on_c, 0, 54, 0
3, 114000, Note_on_c, 0, 61, 54
3, 114240, Note_on_c, 0, 61, 0
3, 114240, Note_on_c, 0, 63, 54
3, 114480, Note_on_c, 0, 63, 0
3, 114480, Note_on_c, 0, 64, 54
3, 114720, Note_on_c, 0, 64, 0
3, 114720, Control_c, 0, 64, 0
3, 114720, Note_on_c, 0, 53, 54
3, 114720, Note_on_c, 0, 60, 54
3, 114720, Note_on_c, 0, 65, 54
3, 114960, Note_on_c, 0, 65, 0
3, 114960, Note_on_c, 0, 60, 0
3, 114960, Note_on_c, 0, 53, 0
3, 114960, Note_on_c, 0, 57, 54
3, 115200, Note_on_c, 0, 57, 0
3, 115680, Note_on_c, 0, 53, 54
3, 115680, Note_on_c, 0, 58, 54
3, 115680, Note_on_c, 0, 60, 54
3, 116160, Note_on_c, 0, 60, 0
3, 116160, Note_on_c, 0, 58, 0
3, 116160, Note_on_c, 0, 53, 0
3, 116160, Note_on_c, 0, 57, 54
3, 116640, Note_on_c, 0, 57, 0
3, 117120, Note_on_c, 0, 65, 67
3, 117120, Note_on_c, 0, 70, 67
3, 117120, Note_on_c, 0, 72, 67
3, 117600, Note_on_c, 0, 72, 0
3, 117600, Note_on_c, 0, 70, 0
3, 117600, Note_on_c, 0, 65, 0
3, 117600, Note_on_c, 0, 69, 67
3, 118080, Note_on_c, 0, 69, 0
3, 118080, Note_on_c, 0, 51, 67
3, 118080, Note_on_c, 0, 58, 67
3, 118080, Note_on_c, 0, 60, 67
3, 118560, Note_on_c, 0, 60, 0
3, 118560, Note_on_c, 0, 58, 0
3, 118560, Note_on_c, 0, 51, 0
3, 118560, Note_on_c, 0, 54, 67
3, 118560, Note_on_c, 0, 58, 67
3, 118560, Note_on_c, 0, 63, 67
3, 118800, Note_on_c, 0, 63, 0
3, 118800, Note_on_c, 0, 58, 0
3, 118800, Note_on_c, 0, 54, 0
3, 118800, Note_on_c, 0, 64, 67
3, 119040, Note_on_c, 0, 64, 0
3, 119040, Note_on_c, 0, 53, 67
3, 119040, Note_on_c, 0, 60, 67
3, 119040, Note_on_c, 0, 65, 67
3, 119280, Note_on_c, 0, 65, 0
3, 119280, Note_on_c, 0, 60, 0
3, 119280, Note_on_c, 0, 53, 0
3, 119520, Note_on_c, 0, 63, 54
3, 119520, Note_on_c, 0, 70, 54
3, 119520, Note_on_c, 0, 72, 54
3, 120000, Note_on_c, 0, 72, 0
3, 120000, Note_on_c, 0, 70, 0
3, 120000, Note_on_c, 0, 63, 0
3, 120000, Note_on_c, 0, 66, 67
3, 120000, Note_on_c, 0, 70, 67
3, 120000, Note_on_c, 0, 75, 67
3, 120240, Note_on_c, 0, 75, 0
3, 120240, Note_on_c, 0, 70, 0
3, 120240, Note_on_c, 0, 66, 0
3, 120240, Note_on_c, 0, 76, 67
3, 120480, Note_on_c, 0, 76, 0
3, 120480, Note_on_c, 0, 65, 80
3, 120480, Note_on_c, 0, 72, 80
3, 120480, Note_on_c, 0, 77, 80
3, 120720, Note_on_c, 0, 77, 0
3, 120720, Note_on_c, 0, 72, 0
3, 120720, Note_on_c, 0, 65, 0
3, 120960, Note_on_c, 0, 54, 93
3, 120983, Note_on_c, 0, 54, 0
3, 121080, Note_on_c, 0, 53, 93
3, 121103, Note_on_c, 0, 53, 0
3, 121200, Note_on_c, 0, 51, 93
3, 121223, Note_on_c, 0, 51, 0
3, 121320, Note_on_c, 0, 49, 93
3, 121343, Note_on_c, 0, 49, 0
3, 121440, Note_on_c, 0, 48, 93
3, 121463, Note_on_c, 0, 48, 0
3, 121560, Note_on_c, 0, 46, 93
3, 121583, Note_on_c, 0, 46, 0
3, 121680, Note_on_c, 0, 45, 93
3, 121703, Note_on_c, 0, 45, 0
3, 121800, Note_on_c, 0, 42, 93
3, 121823, Note_on_c, 0, 42, 0
3, 121920, Note_on_c, 0, 41, 93
3, 121943, Note_on_c, 0, 41, 0
3, 122040, Note_on_c, 0, 39, 93
3, 122063, Note_on_c, 0, 39, 0
3, 122160, Note_on_c, 0, 37, 93
3, 122183, Note_on_c, 0, 37, 0
3, 122280, Note_on_c, 0, 36, 93
3, 122303, Note_on_c, 0, 36, 0
3, 123840, Note_on_c, 0, 66, 93
3, 123863, Note_on_c, 0, 66, 0
3, 123960, Note_on_c, 0, 65, 93
3, 123983, Note_on_c, 0, 65, 0
3, 124080, Note_on_c, 0, 63, 93
3, 124103, Note_on_c, 0, 63, 0
3, 124200, Note_on_c, 0, 61, 93
3, 124223, Note_on_c, 0, 61, 0
3, 124320, Note_on_c, 0, 60, 93
3, 124343, Note_on_c, 0, 60, 0
3, 124440, Note_on_c, 0, 58, 93
3, 124463, Note_on_c, 0, 58, 0
3, 124560, Note_on_c, 0, 57, 93
3, 124583, Note_on_c, 0, 57, 0
3, 124680, Note_on_c, 0, 54, 93
3, 124703, Note_on_c, 0, 54, 0
3, 124800, Note_on_c, 0, 53, 93
3, 124823, Note_on_c, 0, 53, 0
3, 124920, Note_on_c, 0, 51, 93
3, 124943, Note_on_c, 0, 51, 0
3, 125040, Note_on_c, 0, 49, 93
3, 125063, Note_on_c, 0, 49, 0
3, 125160, Note_on_c, 0, 48, 93
3, 125183, Note_on_c, 0, 48, 0
3, 126720, Note_on_c, 0, 46, 67
3, 126720, Note_on_c, 0, 53, 67
3, 126767, Note_on_c, 0, 53, 0
3, 126767, Note_on_c, 0, 46, 0
3, 126960, Note_on_c, 0, 61, 67
3, 126960, Note_on_c, 0, 65, 67
3, 127007, Note_on_c, 0, 65, 0
3, 127007, Note_on_c, 0, 61, 0
3, 127440, Note_on_c, 0, 63, 67
3, 127440, Note_on_c, 0, 66, 67
3, 127487, Note_on_c, 0, 66, 0
3, 127487, Note_on_c, 0, 63, 0
3, 127680, Note_on_c, 0, 61, 67
3, 127680, Note_on_c, 0, 65, 67
3, 127727, Note_on_c, 0, 65, 0
3, 127727, Note_on_c, 0, 61, 0
3, 127920, Note_on_c, 0, 60, 67
3, 127920, Note_on_c, 0, 63, 67
3, 127967, Note_on_c, 0, 63, 0
3, 127967, Note_on_c, 0, 60, 0
3, 128160, Note_on_c, 0, 46, 67
3, 128160, Note_on_c, 0, 53, 67
3, 128207, Note_on_c, 0, 53, 0
3, 128207, Note_on_c, 0, 46, 0
3, 128400, Note_on_c, 0, 61, 67
3, 128400, Note_on_c, 0, 65, 67
3, 128447, Note_on_c, 0, 65, 0
3, 128447, Note_on_c, 0, 61, 0
3, 128880, Note_on_c, 0, 60, 67
3, 128880, Note_on_c, 0, 63, 67
3, 128927, Note_on_c, 0, 63, 0
3, 128927, Note_on_c, 0, 60, 0
3, 129120, Note_on_c, 0, 58, 67
3, 129120, Note_on_c, 0, 61, 67
3, 129167, Note_on_c, 0, 61, 0
3, 129167, Note_on_c, 0, 58, 0
3, 129360, Note_on_c, 0, 53, 67
3, 129360, Note_on_c, 0, 57, 67
3, 129360, Note_on_c, 0, 60, 67
3, 129407, Note_on_c, 0, 60, 0
3, 129407, Note_on_c, 0, 57, 0
3, 129407, Note_on_c, 0, 53, 0
3, 129600, Note_on_c, 0, 46, 67
3, 129600, Note_on_c, 0, 53, 67
3, 129647, Note_on_c, 0, 53, 0
3, 129647, Note_on_c, 0, 46, 0
3, 129840, Note_on_c, 0, 61, 67
3, 129840, Note_on_c, 0, 65, 67
3, 129887, Note_on_c, 0, 65, 0
3, 129887, Note_on_c, 0, 61, 0
3, 130320, Note_on_c, 0, 60, 67
3, 130320, Note_on_c, 0, 63, 67
3, 130367, Note_on_c, 0, 63, 0
3, 130367, Note_on_c, 0, 60, 0
3, 130560, Note_on_c, 0, 58, 67
3, 130560, Note_on_c, 0, 61, 67
3, 130607, Note_on_c, 0, 61, 0
3, 130607, Note_on_c, 0, 58, 0
3, 130800, Note_on_c, 0, 53, 67
3, 130800, Note_on_c, 0, 57, 67
3, 130800, Note_on_c, 0, 60, 67
3, 130847, Note_on_c, 0, 60, 0
3, 130847, Note_on_c, 0, 57, 0
3, 130847, Note_on_c, 0, 53, 0
3, 131040, Note_on_c, 0, 46, 67
3, 131040, Note_on_c, 0, 53, 67
3, 131087, Note_on_c, 0, 53, 0
3, 131087, Note_on_c, 0, 46, 0
3, 131280, Note_on_c, 0, 61, 67
3, 131280, Note_on_c, 0, 65, 67
3, 131327, Note_on_c, 0, 65, 0
3, 131327, Note_on_c, 0, 61, 0
3, 131760, Note_on_c, 0, 60, 67
3, 131760, Note_on_c, 0, 63, 67
3, 131807, Note_on_c, 0, 63, 0
3, 131807, Note_on_c, 0, 60, 0
3, 132000, Note_on_c, 0, 58, 67
3, 132000, Note_on_c, 0, 61, 67
3, 132047, Note_on_c, 0, 61, 0
3, 132047, Note_on_c, 0, 58, 0
3, 132240, Note_on_c, 0, 53, 67
3, 132240, Note_on_c, 0, 57, 67
3, 132240, Note_on_c, 0, 60, 67
3, 132287, Note_on_c, 0, 60, 0
3, 132287, Note_on_c, 0, 57, 0
3, 132287, Note_on_c, 0, 53, 0
3, 132480, Note_on_c, 0, 46, 67
3, 132480, Note_on_c, 0, 53, 67
3, 132527, Note_on_c, 0, 53, 0
3, 132527, Note_on_c, 0, 46, 0
3, 132720, Note_on_c, 0, 61, 67
3, 132720, Note_on_c, 0, 65, 67
3, 132767, Note_on_c, 0, 65, 0
3, 132767, Note_on_c, 0, 61, 0
3, 133200, Note_on_c, 0, 63, 67
3, 133200, Note_on_c, 0, 66, 67
3, 133247, Note_on_c, 0, 66, 0
3, 133247, Note_on_c, 0, 63, 0
3, 133440, Note_on_c, 0, 61, 67
3, 133440, Note_on_c, 0, 65, 67
3, 133487, Note_on_c, 0, 65, 0
3, 133487, Note_on_c, 0, 61, 0
3, 133680, Note_on_c, 0, 60, 67
3, 133680, Note_on_c, 0, 63, 67
3, 133727, Note_on_c, 0, 63, 0
3, 133727, Note_on_c, 0, 60, 0
3, 133920, Note_on_c, 0, 46, 67
3, 133920, Note_on_c, 0, 53, 67
3, 133967, Note_on_c, 0, 53, 0
3, 133967, Note_on_c, 0, 46, 0
3, 134160, Note_on_c, 0, 61, 67
3, 134160, Note_on_c, 0, 65, 67
3, 134207, Note_on_c, 0, 65, 0
3, 134207, Note_on_c, 0, 61, 0
3, 134640, Note_on_c, 0, 60, 67
3, 134640, Note_on_c, 0, 63, 67
3, 134687, Note_on_c, 0, 63, 0
3, 134687, Note_on_c, 0, 60, 0
3, 134880, Note_on_c, 0, 58, 67
3, 134880, Note_on_c, 0, 61, 67
3, 134927, Note_on_c, 0, 61, 0
3, 134927, Note_on_c, 0, 58, 0
3, 135120, Note_on_c, 0, 53, 67
3, 135120, Note_on_c, 0, 57, 67
3, 135120, Note_on_c, 0, 60, 67
3, 135167, Note_on_c, 0, 60, 0
3, 135167, Note_on_c, 0, 57, 0
3, 135167, Note_on_c, 0, 53, 0
3, 135360, Note_on_c, 0, 46, 67
3, 135360, Note_on_c, 0, 53, 67
3, 135407, Note_on_c, 0, 53, 0
3, 135407, Note_on_c, 0, 46, 0
3, 135600, Note_on_c, 0, 61, 67
3, 135600, Note_on_c, 0, 65, 67
3, 135647, Note_on_c, 0, 65, 0
3, 135647, Note_on_c, 0, 61, 0
3, 136080, Note_on_c, 0, 60, 67
3, 136080, Note_on_c, 0, 63, 67
3, 136127, Note_on_c, 0, 63, 0
3, 136127, Note_on_c, 0, 60, 0
3, 136320, Note_on_c, 0, 58, 67
3, 136320, Note_on_c, 0, 61, 67
3, 136367, Note_on_c, 0, 61, 0
3, 136367, Note_on_c, 0, 58, 0
3, 136560, Note_on_c, 0, 53, 67
3, 136560, Note_on_c, 0, 57, 67
3, 136560, Note_on_c, 0, 60, 67
3, 136607, Note_on_c, 0, 60, 0
3, 136607, Note_on_c, 0, 57, 0
3, 136607, Note_on_c, 0, 53, 0
3, 136800, Note_on_c, 0, 46, 67
3, 136800, Note_on_c, 0, 53, 67
3, 136847, Note_on_c, 0, 53, 0
3, 136847, Note_on_c, 0, 46, 0
3, 138480, Note_on_c, 0, 57, 80
3, 138480, Note_on_c, 0, 60, 80
3, 138480, Note_on_c, 0, 69, 80
3, 138527, Note_on_c, 0, 69, 0
3, 138527, Note_on_c, 0, 60, 0
3, 138527, Note_on_c, 0, 57, 0
3, 138720, Note_on_c, 0, 58, 106
3, 138720, Note_on_c, 0, 62, 106
3, 138720, Note_on_c, 0, 70, 106
3, 139200, Note_on_c, 0, 70, 0
3, 139200, Note_on_c, 0, 62, 0
3, 139200, Note_on_c, 0, 58, 0
3, 139200, Note_on_c, 0, 57, 80
3, 139200, Note_on_c, 0, 60, 80
3, 139200, Note_on_c, 0, 69, 80
3, 139247, Note_on_c, 0, 69, 0
3, 139247, Note_on_c, 0, 60, 0
3, 139247, Note_on_c, 0, 57, 0
3, 139440, Note_on_c, 0, 55, 80
3, 139440, Note_on_c, 0, 58, 80
3, 139440, Note_on_c, 0, 67, 80
3, 139487, Note_on_c, 0, 67, 0
3, 139487, Note_on_c, 0, 58, 0
3, 139487, Note_on_c, 0, 55, 0
3, 139680, Note_on_c, 0, 53, 80
3, 139680, Note_on_c, 0, 57, 80
3, 139680, Note_on_c, 0, 65, 80
3, 139727, Note_on_c, 0, 65, 0
3, 139727, Note_on_c, 0, 57, 0
3, 139727, Note_on_c, 0, 53, 0
3, 139920, Note_on_c, 0, 50, 80
3, 139920, Note_on_c, 0, 53, 80
3, 139920, Note_on_c, 0, 62, 80
3, 139967, Note_on_c, 0, 62, 0
3, 139967, Note_on_c, 0, 53, 0
3, 139967, Note_on_c, 0, 50, 0
3, 140160, Note_on_c, 0, 50, 80
3, 140160, Note_on_c, 0, 55, 80
3, 140160, Note_on_c, 0, 62, 80
3, 140207, Note_on_c, 0, 62, 0
3, 140207, Note_on_c, 0, 55, 0
3, 140207, Note_on_c, 0, 50, 0
3, 140400, Note_on_c, 0, 50, 80
3, 140400, Note_on_c, 0, 52, 80
3, 140400, Note_on_c, 0, 62, 80
3, 140447, Note_on_c, 0, 62, 0
3, 140447, Note_on_c, 0, 52, 0
3, 140447, Note_on_c, 0, 50, 0
3, 140640, Note_on_c, 0, 50, 80
3, 140640, Note_on_c, 0, 53, 80
3, 140640, Note_on_c, 0, 62, 80
3, 140687, Note_on_c, 0, 62, 0
3, 140687, Note_on_c, 0, 53, 0
3, 140687, Note_on_c, 0, 50, 0
3, 140880, Note_on_c, 0, 52, 80
3, 140880, Note_on_c, 0, 55, 80
3, 140880, Note_on_c, 0, 64, 80
3, 140927, Note_on_c, 0, 64, 0
3, 140927, Note_on_c, 0, 55, 0
3, 140927, Note_on_c, 0, 52, 0
3, 141120, Note_on_c, 0, 53, 80
3, 141120, Note_on_c, 0, 57, 80
3, 141120, Note_on_c, 0, 65, 80
3, 141360, Note_on_c, 0, 65, 0
3, 141360, Note_on_c, 0, 57, 0
3, 141360, Note_on_c, 0, 53, 0
3, 141360, Note_on_c, 0, 57, 93
3, 141360, Note_on_c, 0, 60, 93
3, 141360, Note_on_c, 0, 69, 93
3, 141407, Note_on_c, 0, 69, 0
3, 141407, Note_on_c, 0, 60, 0
3, 141407, Note_on_c, 0, 57, 0
3, 141600, Note_on_c, 0, 58, 119
3, 141600, Note_on_c, 0, 62, 119
3, 141600, Note_on_c, 0, 70, 119
3, 142080, Note_on_c, 0, 70, 0
3, 142080, Note_on_c, 0, 62, 0
3, 142080, Note_on_c, 0, 58, 0
3, 142080, Note_on_c, 0, 57, 93
3, 142080, Note_on_c, 0, 60, 93
3, 142080, Note_on_c, 0, 69, 93
3, 142127, Note_on_c, 0, 69, 0
3, 142127, Note_on_c, 0, 60, 0
3, 142127, Note_on_c, 0, 57, 0
3, 142320, Note_on_c, 0, 55, 93
3, 142320, Note_on_c, 0, 58, 93
3, 142320, Note_on_c, 0, 67, 93
3, 142367, Note_on_c, 0, 67, 0
3, 142367, Note_on_c, 0, 58, 0
3, 142367, Note_on_c, 0, 55, 0
3, 142560, Note_on_c, 0, 53, 93
3, 142560, Note_on_c, 0, 57, 93
3, 142560, Note_on_c, 0, 65, 93
3, 142607, Note_on_c, 0, 65, 0
3, 142607, Note_on_c, 0, 57, 0
3, 142607, Note_on_c, 0, 53, 0
3, 142800, Note_on_c, 0, 50, 93
3, 142800, Note_on_c, 0, 53, 93
3, 142800, Note_on_c, 0, 62, 93
3, 142847, Note_on_c, 0, 62, 0
3, 142847, Note_on_c, 0, 53, 0
3, 142847, Note_on_c, 0, 50, 0
3, 143040, Note_on_c, 0, 50, 93
3, 143040, Note_on_c, 0, 55, 93
3, 143040, Note_on_c, 0, 62, 93
3, 143087, Note_on_c, 0, 62, 0
3, 143087, Note_on_c, 0, 55, 0
3, 143087, Note_on_c, 0, 50, 0
3, 143280, Note_on_c, 0, 50, 93
3, 143280, Note_on_c, 0, 52, 93
3, 143280, Note_on_c, 0, 62, 93
3, 143327, Note_on_c, 0, 62, 0
3, 143327, Note_on_c, 0, 52, 0
3, 143327, Note_on_c, 0, 50, 0
3, 143520, Note_on_c, 0, 50, 93
3, 143520, Note_on_c, 0, 53, 93
3, 143520, Note_on_c, 0, 62, 93
3, 143567, Note_on_c, 0, 62, 0
3, 143567, Note_on_c, 0, 53, 0
3, 143567, Note_on_c, 0, 50, 0
3, 143760, Note_on_c, 0, 52, 93
3, 143760, Note_on_c, 0, 55, 93
3, 143760, Note_on_c, 0, 64, 93
3, 143807, Note_on_c, 0, 64, 0
3, 143807, Note_on_c, 0, 55, 0
3, 143807, Note_on_c, 0, 52, 0
3, 144000, Note_on_c, 0, 53, 93
3, 144000, Note_on_c, 0, 57, 93
3, 144000, Note_on_c, 0, 65, 93
3, 144047, Note_on_c, 0, 65, 0
3, 144047, Note_on_c, 0, 57, 0
3, 144047, Note_on_c, 0, 53, 0
3, 145620, Note_on_c, 0, 50, 67
3, 145680, Note_on_c, 0, 50, 0
3, 145680, Note_on_c, 0, 52, 67
3, 145800, Note_on_c, 0, 52, 0
3, 145860, Note_on_c, 0, 54, 67
3, 145920, Note_on_c, 0, 54, 0
3, 145920, Note_on_c, 0, 55, 67
3, 146040, Note_on_c, 0, 55, 0
3, 146100, Note_on_c, 0, 54, 67
3, 146160, Note_on_c, 0, 54, 0
3, 146160, Note_on_c, 0, 55, 67
3, 146280, Note_on_c, 0, 55, 0
3, 146340, Note_on_c, 0, 57, 67
3, 146400, Note_on_c, 0, 57, 0
3, 146400, Note_on_c, 0, 58, 67
3, 146520, Note_on_c, 0, 58, 0
3, 146580, Note_on_c, 0, 57, 67
3, 146640, Note_on_c, 0, 57, 0
3, 146640, Note_on_c, 0, 58, 67
3, 146760, Note_on_c, 0, 58, 0
3, 146820, Note_on_c, 0, 60, 67
3, 146880, Note_on_c, 0, 60, 0
3, 146880, Note_on_c, 0, 62, 67
3, 146927, Note_on_c, 0, 62, 0
3, 148500, Note_on_c, 0, 52, 67
3, 148560, Note_on_c, 0, 52, 0
3, 148560, Note_on_c, 0, 54, 67
3, 148680, Note_on_c, 0, 54, 0
3, 148740, Note_on_c, 0, 56, 67
3, 148800, Note_on_c, 0, 56, 0
3, 148800, Note_on_c, 0, 57, 67
3, 148920, Note_on_c, 0, 57, 0
3, 148980, Note_on_c, 0, 56, 67
3, 149040, Note_on_c, 0, 56, 0
3, 149040, Note_on_c, 0, 57, 67
3, 149160, Note_on_c, 0, 57, 0
3, 149220, Note_on_c, 0, 59, 67
3, 149280, Note_on_c, 0, 59, 0
3, 149280, Note_on_c, 0, 60, 67
3, 149400, Note_on_c, 0, 60, 0
3, 149460, Note_on_c, 0, 59, 67
3, 149520, Note_on_c, 0, 59, 0
3, 149520, Note_on_c, 0, 60, 67
3, 149640, Note_on_c, 0, 60, 0
3, 149700, Note_on_c, 0, 62, 67
3, 149760, Note_on_c, 0, 62, 0
3, 149760, Note_on_c, 0, 64, 67
3, 150000, Note_on_c, 0, 64, 0
3, 151380, Note_on_c, 0, 51, 67
3, 151440, Note_on_c, 0, 51, 0
3, 151440, Note_on_c, 0, 52, 67
3, 151560, Note_on_c, 0, 52, 0
3, 151620, Note_on_c, 0, 55, 67
3, 151680, Note_on_c, 0, 55, 0
3, 151680, Note_on_c, 0, 56, 67
3, 151800, Note_on_c, 0, 56, 0
3, 151860, Note_on_c, 0, 57, 67
3, 151920, Note_on_c, 0, 57, 0
3, 151920, Note_on_c, 0, 58, 67
3, 152040, Note_on_c, 0, 58, 0
3, 152100, Note_on_c, 0, 59, 67
3, 152160, Note_on_c, 0, 59, 0
3, 152160, Note_on_c, 0, 64, 67
3, 152280, Note_on_c, 0, 64, 0
3, 152340, Note_on_c, 0, 66, 67
3, 152400, Note_on_c, 0, 66, 0
3, 152400, Note_on_c, 0, 67, 67
3, 152520, Note_on_c, 0, 67, 0
3, 152580, Note_on_c, 0, 68, 67
3, 152640, Note_on_c, 0, 68, 0
3, 152640, Note_on_c, 0, 69, 67
3, 152880, Note_on_c, 0, 69, 0
3, 154260, Note_on_c, 0, 49, 67
3, 154320, Note_on_c, 0, 49, 0
3, 154320, Note_on_c, 0, 50, 67
3, 154440, Note_on_c, 0, 50, 0
3, 154500, Note_on_c, 0, 53, 67
3, 154560, Note_on_c, 0, 53, 0
3, 154560, Note_on_c, 0, 54, 67
3, 154680, Note_on_c, 0, 54, 0
3, 154740, Note_on_c, 0, 55, 67
3, 154800, Note_on_c, 0, 55, 0
3, 154800, Note_on_c, 0, 56, 67
3, 154920, Note_on_c, 0, 56, 0
3, 154980, Note_on_c, 0, 57, 67
3, 155040, Note_on_c, 0, 57, 0
3, 155040, Note_on_c, 0, 62, 67
3, 155160, Note_on_c, 0, 62, 0
3, 155220, Note_on_c, 0, 64, 67
3, 155280, Note_on_c, 0, 64, 0
3, 155280, Note_on_c, 0, 65, 67
3, 155400, Note_on_c, 0, 65, 0
3, 155460, Note_on_c, 0, 66, 67
3, 155520, Note_on_c, 0, 66, 0
3, 155520, Note_on_c, 0, 67, 67
3, 155640, Note_on_c, 0, 67, 0
3, 155700, Note_on_c, 0, 59, 67
3, 155760, Note_on_c, 0, 59, 0
3, 155760, Note_on_c, 0, 60, 67
3, 155880, Note_on_c, 0, 60, 0
3, 155940, Note_on_c, 0, 63, 67
3, 156000, Note_on_c, 0, 63, 0
3, 156000, Note_on_c, 0, 64, 67
3, 156120, Note_on_c, 0, 64, 0
3, 156180, Note_on_c, 0, 65, 67
3, 156240, Note_on_c, 0, 65, 0
3, 156240, Note_on_c, 0, 66, 67
3, 156360, Note_on_c, 0, 66, 0
3, 156420, Note_on_c, 0, 67, 67
3, 156480, Note_on_c, 0, 67, 0
3, 156480, Note_on_c, 0, 72, 67
3, 156600, Note_on_c, 0, 72, 0
3, 156660, Note_on_c, 0, 74, 67
3, 156720, Note_on_c, 0, 74, 0
3, 156720, Note_on_c, 0, 75, 67
3, 156840, Note_on_c, 0, 75, 0
3, 156900, Note_on_c, 0, 76, 67
3, 156960, Note_on_c, 0, 76, 0
3, 156960, Note_on_c, 0, 77, 67
3, 157080, Note_on_c, 0, 77, 0
3, 157140, Note_on_c, 0, 64, 67
3, 157200, Note_on_c, 0, 64, 0
3, 157200, Note_on_c, 0, 65, 67
3, 157320, Note_on_c, 0, 65, 0
3, 157380, Note_on_c, 0, 69, 67
3, 157440, Note_on_c, 0, 69, 0
3, 157440, Note_on_c, 0, 70, 67
3, 157560, Note_on_c, 0, 70, 0
3, 157620, Note_on_c, 0, 72, 67
3, 157680, Note_on_c, 0, 72, 0
3, 157680, Note_on_c, 0, 73, 67
3, 157800, Note_on_c, 0, 73, 0
3, 157860, Note_on_c, 0, 74, 67
3, 157920, Note_on_c, 0, 74, 0
3, 157920, Note_on_c, 0, 75, 67
3, 158040, Note_on_c, 0, 75, 0
3, 158100, Note_on_c, 0, 64, 67
3, 158160, Note_on_c, 0, 64, 0
3, 158160, Note_on_c, 0, 65, 67
3, 158280, Note_on_c, 0, 65, 0
3, 158340, Note_on_c, 0, 69, 67
3, 158400, Note_on_c, 0, 69, 0
3, 158400, Note_on_c, 0, 70, 80
3, 158520, Note_on_c, 0, 70, 0
3, 158580, Note_on_c, 0, 72, 80
3, 158640, Note_on_c, 0, 72, 0
3, 158640, Note_on_c, 0, 73, 80
3, 158760, Note_on_c, 0, 73, 0
3, 158820, Note_on_c, 0, 74, 80
3, 158880, Note_on_c, 0, 74, 0
3, 158880, Note_on_c, 0, 75, 80
3, 159000, Note_on_c, 0, 75, 0
3, 159060, Note_on_c, 0, 64, 80
3, 159120, Note_on_c, 0, 64, 0
3, 159120, Note_on_c, 0, 65, 80
3, 159240, Note_on_c, 0, 65, 0
3, 159300, Note_on_c, 0, 69, 80
3, 159360, Note_on_c, 0, 69, 0
3, 159360, Note_on_c, 0, 70, 80
3, 159480, Note_on_c, 0, 70, 0
3, 159540, Note_on_c, 0, 72, 80
3, 159600, Note_on_c, 0, 72, 0
3, 159600, Note_on_c, 0, 73, 80
3, 159720, Note_on_c, 0, 73, 0
3, 159780, Note_on_c, 0, 74, 80
3, 159840, Note_on_c, 0, 74, 0
3, 159840, Note_on_c, 0, 75, 93
3, 159960, Note_on_c, 0, 75, 0
3, 160020, Note_on_c, 0, 74, 93
3, 160080, Note_on_c, 0, 74, 0
3, 160080, Note_on_c, 0, 73, 93
3, 160200, Note_on_c, 0, 73, 0
3, 160260, Note_on_c, 0, 72, 93
3, 160320, Note_on_c, 0, 72, 0
3, 160320, Note_on_c, 0, 70, 93
3, 160440, Note_on_c, 0, 70, 0
3, 160500, Note_on_c, 0, 68, 93
3, 160560, Note_on_c, 0, 68, 0
3, 160560, Note_on_c, 0, 67, 93
3, 160680, Note_on_c, 0, 67, 0
3, 160740, Note_on_c, 0, 65, 93
3, 160800, Note_on_c, 0, 65, 0
3, 160800, Note_on_c, 0, 63, 93
3, 160920, Note_on_c, 0, 63, 0
3, 160980, Note_on_c, 0, 62, 93
3, 161040, Note_on_c, 0, 62, 0
3, 161040, Note_on_c, 0, 61, 93
3, 161160, Note_on_c, 0, 61, 0
3, 161220, Note_on_c, 0, 60, 93
3, 161280, Note_on_c, 0, 60, 0
3, 161280, Note_on_c, 0, 58, 93
3, 161400, Note_on_c, 0, 58, 0
3, 161400, Note_on_c, 0, 54, 67
3, 161423, Note_on_c, 0, 54, 0
3, 161520, Note_on_c, 0, 55, 67
3, 161543, Note_on_c, 0, 55, 0
3, 161640, Note_on_c, 0, 56, 67
3, 161663, Note_on_c, 0, 56, 0
3, 161760, Note_on_c, 0, 58, 80
3, 161783, Note_on_c, 0, 58, 0
3, 161880, Note_on_c, 0, 60, 80
3, 161903, Note_on_c, 0, 60, 0
3, 162000, Note_on_c, 0, 61, 80
3, 162023, Note_on_c, 0, 61, 0
3, 162120, Note_on_c, 0, 63, 80
3, 162143, Note_on_c, 0, 63, 0
3, 162240, Note_on_c, 0, 65, 93
3, 162263, Note_on_c, 0, 65, 0
3, 162360, Note_on_c, 0, 67, 93
3, 162383, Note_on_c, 0, 67, 0
3, 162480, Note_on_c, 0, 68, 93
3, 162503, Note_on_c, 0, 68, 0
3, 162600, Note_on_c, 0, 70, 106
3, 162623, Note_on_c, 0, 70, 0
3, 162720, Note_on_c, 0, 72, 106
3, 162960, Note_on_c, 0, 72, 0
3, 174240, Note_on_c, 0, 43, 67
3, 174240, Note_on_c, 0, 50, 67
3, 174480, Note_on_c, 0, 50, 0
3, 174480, Note_on_c, 0, 43, 0
3, 174480, Note_on_c, 0, 55, 67
3, 174480, Note_on_c, 0, 60, 67
3, 174480, Note_on_c, 0, 62, 67
3, 174960, Note_on_c, 0, 62, 0
3, 174960, Note_on_c, 0, 60, 0
3, 174960, Note_on_c, 0, 55, 0
3, 174960, Note_on_c, 0, 55, 67
3, 174960, Note_on_c, 0, 60, 67
3, 174960, Note_on_c, 0, 62, 67
3, 175200, Note_on_c, 0, 62, 0
3, 175200, Note_on_c, 0, 60, 0
3, 175200, Note_on_c, 0, 55, 0
3, 175200, Note_on_c, 0, 43, 67
3, 175200, Note_on_c, 0, 50, 67
3, 175440, Note_on_c, 0, 50, 0
3, 175440, Note_on_c, 0, 43, 0
3, 175440, Note_on_c, 0, 55, 67
3, 175440, Note_on_c, 0, 60, 67
3, 175440, Note_on_c, 0, 62, 67
3, 175680, Note_on_c, 0, 62, 0
3, 175680, Note_on_c, 0, 60, 0
3, 175680, Note_on_c, 0, 55, 0
3, 175680, Note_on_c, 0, 55, 67
3, 175680, Note_on_c, 0, 59, 67
3, 175727, Note_on_c, 0, 59, 0
3, 175727, Note_on_c, 0, 55, 0
3, 175920, Note_on_c, 0, 50, 67
3, 175920, Note_on_c, 0, 62, 67
3, 175967, Note_on_c, 0, 62, 0
3, 175967, Note_on_c, 0, 50, 0
3, 176160, Note_on_c, 0, 55, 93
3, 176160, Note_on_c, 0, 59, 93
3, 176160, Note_on_c, 0, 64, 93
3, 176640, Note_on_c, 0, 64, 0
3, 176640, Note_on_c, 0, 59, 0
3, 176640, Note_on_c, 0, 55, 0
3, 176640, Note_on_c, 0, 63, 67
3, 176880, Note_on_c, 0, 63, 0
3, 176880, Note_on_c, 0, 62, 67
3, 177120, Note_on_c, 0, 62, 0
3, 177120, Note_on_c, 0, 43, 67
3, 177120, Note_on_c, 0, 50, 67
3, 177360, Note_on_c, 0, 50, 0
3, 177360, Note_on_c, 0, 43, 0
3, 177360, Note_on_c, 0, 55, 67
3, 177360, Note_on_c, 0, 60, 67
3, 177360, Note_on_c, 0, 62, 67
3, 177840, Note_on_c, 0, 62, 0
3, 177840, Note_on_c, 0, 60, 0
3, 177840, Note_on_c, 0, 55, 0
3, 177840, Note_on_c, 0, 55, 67
3, 177840, Note_on_c, 0, 60, 67
3, 177840, Note_on_c, 0, 62, 67
3, 178080, Note_on_c, 0, 62, 0
3, 178080, Note_on_c, 0, 60, 0
3, 178080, Note_on_c, 0, 55, 0
3, 178080, Note_on_c, 0, 43, 67
3, 178080, Note_on_c, 0, 50, 67
3, 178320, Note_on_c, 0, 50, 0
3, 178320, Note_on_c, 0, 43, 0
3, 178320, Note_on_c, 0, 55, 67
3, 178320, Note_on_c, 0, 60, 67
3, 178320, Note_on_c, 0, 62, 67
3, 178560, Note_on_c, 0, 62, 0
3, 178560, Note_on_c, 0, 60, 0
3, 178560, Note_on_c, 0, 55, 0
3, 178560, Note_on_c, 0, 55, 67
3, 178560, Note_on_c, 0, 59, 67
3, 178607, Note_on_c, 0, 59, 0
3, 178607, Note_on_c, 0, 55, 0
3, 178800, Note_on_c, 0, 50, 67
3, 178800, Note_on_c, 0, 62, 67
3, 178847, Note_on_c, 0, 62, 0
3, 178847, Note_on_c, 0, 50, 0
3, 179040, Note_on_c, 0, 55, 93
3, 179040, Note_on_c, 0, 59, 93
3, 179040, Note_on_c, 0, 64, 93
3, 179520, Note_on_c, 0, 64, 0
3, 179520, Note_on_c, 0, 59, 0
3, 179520, Note_on_c, 0, 55, 0
3, 179520, Note_on_c, 0, 63, 67
3, 179760, Note_on_c, 0, 63, 0
3, 179760, Note_on_c, 0, 62, 67
3, 180000, Note_on_c, 0, 62, 0
3, 180000, Note_on_c, 0, 67, 67
3, 180000, Note_on_c, 0, 69, 67
3, 180000, Note_on_c, 0, 72, 67
3, 180000, Note_on_c, 0, 74, 67
3, 180480, Note_on_c, 0, 72, 0
3, 180480, Note_on_c, 0, 69, 0
3, 180480, Note_on_c, 0, 71, 67
3, 180720, Note_on_c, 0, 71, 0
3, 180720, Note_on_c, 0, 67, 0
3, 180720, Note_on_c, 0, 74, 0
3, 181440, Note_on_c, 0, 79, 67
3, 181440, Note_on_c, 0, 81, 67
3, 181440, Note_on_c, 0, 84, 67
3, 181440, Note_on_c, 0, 86, 67
3, 181920, Note_on_c, 0, 84, 0
3, 181920, Note_on_c, 0, 81, 0
3, 181920, Note_on_c, 0, 83, 67
3, 182160, Note_on_c, 0, 83, 0
3, 182160, Note_on_c, 0, 79, 0
3, 182160, Note_on_c, 0, 86, 0
3, 182880, Note_on_c, 0, 91, 67
3, 182880, Note_on_c, 0, 93, 67
3, 182880, Note_on_c, 0, 96, 67
3, 182880, Note_on_c, 0, 98, 67
3, 183360, Note_on_c, 0, 96, 0
3, 183360, Note_on_c, 0, 93, 0
3, 183360, Note_on_c, 0, 95, 67
3, 183600, Note_on_c, 0, 95, 0
3, 183600, Note_on_c, 0, 91, 0
3, 183600, Note_on_c, 0, 98, 0
3, 197280, Control_c, 0, 64, 127
3, 197280, Note_on_c, 0, 51, 67
3, 197400, Note_on_c, 0, 51, 0
3, 197400, Note_on_c, 0, 80, 67
3, 197520, Note_on_c, 0, 80, 0
3, 197520, Note_on_c, 0, 77, 67
3, 197640, Note_on_c, 0, 77, 0
3, 197640, Note_on_c, 0, 74, 67
3, 197760, Note_on_c, 0, 74, 0
3, 197880, Note_on_c, 0, 70, 67
3, 198000, Note_on_c, 0, 70, 0
3, 198000, Note_on_c, 0, 68, 67
3, 198120, Note_on_c, 0, 68, 0
3, 198120, Note_on_c, 0, 65, 67
3, 198240, Note_on_c, 0, 65, 0
3, 198240, Note_on_c, 0, 62, 67
3, 198360, Note_on_c, 0, 62, 0
3, 198360, Note_on_c, 0, 58, 67
3, 198480, Note_on_c, 0, 58, 0
3, 198480, Note_on_c, 0, 56, 67
3, 198600, Note_on_c, 0, 56, 0
3, 198600, Control_c, 0, 64, 0
3, 198600, Note_on_c, 0, 53, 67
3, 198720, Note_on_c, 0, 53, 0
3, 198720, Control_c, 0, 64, 127
3, 198720, Note_on_c, 0, 51, 67
3, 198840, Note_on_c, 0, 51, 0
3, 198840, Note_on_c, 0, 79, 67
3, 198960, Note_on_c, 0, 79, 0
3, 198960, Note_on_c, 0, 75, 67
3, 199080, Note_on_c, 0, 75, 0
3, 199080, Note_on_c, 0, 72, 67
3, 199200, Note_on_c, 0, 72, 0
3, 199200, Note_on_c, 0, 70, 67
3, 199320, Note_on_c, 0, 70, 0
3, 199320, Note_on_c, 0, 67, 67
3, 199440, Note_on_c, 0, 67, 0
3, 199440, Note_on_c, 0, 63, 67
3, 199560, Note_on_c, 0, 63, 0
3, 199560, Note_on_c, 0, 60, 67
3, 199680, Note_on_c, 0, 60, 0
3, 199680, Note_on_c, 0, 58, 67
3, 199800, Note_on_c, 0, 58, 0
3, 199800, Note_on_c, 0, 55, 67
3, 199920, Note_on_c, 0, 55, 0
3, 199920, Note_on_c, 0, 51, 67
3, 200040, Note_on_c, 0, 51, 0
3, 200040, Control_c, 0, 64, 0
3, 200040, Note_on_c, 0, 49, 67
3, 200160, Note_on_c, 0, 49, 0
3, 200160, Control_c, 0, 64, 127
3, 200160, Note_on_c, 0, 50, 67
3, 200280, Note_on_c, 0, 50, 0
3, 200280, Note_on_c, 0, 55, 67
3, 200400, Note_on_c, 0, 55, 0
3, 200400, Note_on_c, 0, 58, 67
3, 200520, Note_on_c, 0, 58, 0
3, 200520, Note_on_c, 0, 62, 67
3, 200640, Note_on_c, 0, 62, 0
3, 200640, Note_on_c, 0, 67, 67
3, 200640, Note_on_c, 0, 70, 67
3, 200880, Note_on_c, 0, 70, 0
3, 200880, Note_on_c, 0, 67, 0
3, 201240, Control_c, 0, 64, 0
3, 201240, Note_on_c, 0, 50, 67
3, 201360, Note_on_c, 0, 50, 0
3, 201360, Note_on_c, 0, 57, 67
3, 201360, Note_on_c, 0, 60, 67
3, 201480, Note_on_c, 0, 60, 0
3, 201480, Note_on_c, 0, 57, 0
3, 201480, Note_on_c, 0, 66, 67
3, 201600, Note_on_c, 0, 66, 0
3, 201600, Control_c, 0, 64, 127
3, 201600, Note_on_c, 0, 55, 67
3, 201720, Note_on_c, 0, 55, 0
3, 201720, Note_on_c, 0, 58, 67
3, 201840, Note_on_c, 0, 58, 0
3, 201840, Note_on_c, 0, 62, 67
3, 201960, Note_on_c, 0, 62, 0
3, 201960, Note_on_c, 0, 67, 67
3, 202080, Note_on_c, 0, 67, 0
3, 202080, Note_on_c, 0, 70, 80
3, 202560, Note_on_c, 0, 70, 0
3, 202560, Control_c, 0, 64, 0
3, 202560, Note_on_c, 0, 54, 80
3, 202560, Note_on_c, 0, 58, 80
3, 202560, Note_on_c, 0, 64, 80
3, 203040, Note_on_c, 0, 64, 0
3, 203040, Note_on_c, 0, 58, 0
3, 203040, Note_on_c, 0, 54, 0
3, 203040, Control_c, 0, 64, 127
3, 203040, Note_on_c, 0, 53, 80
3, 203160, Note_on_c, 0, 53, 0
3, 203160, Note_on_c, 0, 58, 80
3, 203280, Note_on_c, 0, 58, 0
3, 203280, Note_on_c, 0, 62, 80
3, 203400, Note_on_c, 0, 62, 0
3, 203400, Note_on_c, 0, 65, 80
3, 203520, Note_on_c, 0, 65, 0
3, 203520, Note_on_c, 0, 70, 80
3, 203520, Note_on_c, 0, 74, 80
3, 203760, Note_on_c, 0, 74, 0
3, 203760, Note_on_c, 0, 70, 0
3, 204120, Control_c, 0, 64, 0
3, 204120, Note_on_c, 0, 53, 80
3, 204240, Note_on_c, 0, 53, 0
3, 204240, Note_on_c, 0, 60, 80
3, 204240, Note_on_c, 0, 63, 80
3, 204360, Note_on_c, 0, 63, 0
3, 204360, Note_on_c, 0, 60, 0
3, 204360, Note_on_c, 0, 69, 80
3, 204480, Note_on_c, 0, 69, 0
3, 204600, Control_c, 0, 64, 127
3, 204600, Note_on_c, 0, 46, 80
3, 204720, Note_on_c, 0, 46, 0
3, 204720, Note_on_c, 0, 53, 80
3, 204840, Note_on_c, 0, 53, 0
3, 204840, Note_on_c, 0, 58, 80
3, 204960, Note_on_c, 0, 58, 0
3, 204960, Note_on_c, 0, 62, 80
3, 205200, Note_on_c, 0, 62, 0
3, 205440, Control_c, 0, 64, 0
3, 205440, Note_on_c, 0, 56, 80
3, 205440, Note_on_c, 0, 62, 80
3, 205440, Note_on_c, 0, 65, 80
3, 205920, Note_on_c, 0, 65, 0
3, 205920, Note_on_c, 0, 62, 0
3, 205920, Note_on_c, 0, 56, 0
3, 205920, Control_c, 0, 64, 127
3, 205920, Note_on_c, 0, 57, 80
3, 206040, Note_on_c, 0, 57, 0
3, 206040, Note_on_c, 0, 62, 80
3, 206160, Note_on_c, 0, 62, 0
3, 206160, Note_on_c, 0, 65, 80
3, 206280, Note_on_c, 0, 65, 0
3, 206280, Note_on_c, 0, 69, 80
3, 206400, Note_on_c, 0, 69, 0
3, 206400, Note_on_c, 0, 74, 80
3, 206400, Note_on_c, 0, 77, 80
3, 206640, Note_on_c, 0, 77, 0
3, 206640, Note_on_c, 0, 74, 0
3, 207000, Control_c, 0, 64, 0
3, 207000, Note_on_c, 0, 57, 80
3, 207120, Note_on_c, 0, 57, 0
3, 207120, Note_on_c, 0, 64, 80
3, 207120, Note_on_c, 0, 67, 80
3, 207240, Note_on_c, 0, 67, 0
3, 207240, Note_on_c, 0, 64, 0
3, 207240, Note_on_c, 0, 73, 80
3, 207360, Note_on_c, 0, 73, 0
3, 207360, Control_c, 0, 64, 127
3, 207360, Note_on_c, 0, 62, 80
3, 207480, Note_on_c, 0, 62, 0
3, 207480, Note_on_c, 0, 65, 80
3, 207600, Note_on_c, 0, 65, 0
3, 207600, Note_on_c, 0, 69, 80
3, 207720, Note_on_c, 0, 69, 0
3, 207720, Control_c, 0, 64, 0
3, 207720, Note_on_c, 0, 74, 80
3, 207840, Note_on_c, 0, 74, 0
3, 207840, Control_c, 0, 64, 127
3, 207840, Note_on_c, 0, 60, 67
3, 207960, Note_on_c, 0, 60, 0
3, 207960, Note_on_c, 0, 62, 67
3, 208080, Note_on_c, 0, 62, 0
3, 208080, Note_on_c, 0, 65, 67
3, 208200, Note_on_c, 0, 65, 0
3, 208200, Control_c, 0, 64, 0
3, 208200, Note_on_c, 0, 69, 67
3, 208320, Note_on_c, 0, 69, 0
3, 208320, Control_c, 0, 64, 127
3, 208320, Note_on_c, 0, 59, 67
3, 208440, Note_on_c, 0, 59, 0
3, 208440, Note_on_c, 0, 62, 67
3, 208560, Note_on_c, 0, 62, 0
3, 208560, Note_on_c, 0, 65, 67
3, 208680, Note_on_c, 0, 65, 0
3, 208680, Control_c, 0, 64, 0
3, 208680, Note_on_c, 0, 68, 67
3, 208800, Note_on_c, 0, 68, 0
3, 208800, Control_c, 0, 64, 127
3, 208800, Note_on_c, 0, 60, 67
3, 208920, Note_on_c, 0, 60, 0
3, 208920, Note_on_c, 0, 62, 67
3, 209040, Note_on_c, 0, 62, 0
3, 209040, Note_on_c, 0, 65, 67
3, 209160, Note_on_c, 0, 65, 0
3, 209160, Control_c, 0, 64, 0
3, 209160, Note_on_c, 0, 69, 67
3, 209280, Note_on_c, 0, 69, 0
3, 209280, Control_c, 0, 64, 127
3, 209280, Note_on_c, 0, 59, 67
3, 209400, Note_on_c, 0, 59, 0
3, 209400, Note_on_c, 0, 62, 67
3, 209520, Note_on_c, 0, 62, 0
3, 209520, Note_on_c, 0, 65, 67
3, 209640, Note_on_c, 0, 65, 0
3, 209640, Control_c, 0, 64, 0
3, 209640, Note_on_c, 0, 68, 67
3, 209760, Note_on_c, 0, 68, 0
3, 209760, Control_c, 0, 64, 127
3, 209760, Note_on_c, 0, 55, 67
3, 209880, Note_on_c, 0, 55, 0
3, 209880, Note_on_c, 0, 62, 67
3, 210000, Note_on_c, 0, 62, 0
3, 210000, Note_on_c, 0, 65, 67
3, 210120, Note_on_c, 0, 65, 0
3, 210120, Control_c, 0, 64, 0
3, 210120, Note_on_c, 0, 71, 67
3, 210240, Note_on_c, 0, 71, 0
3, 210240, Control_c, 0, 64, 127
3, 210240, Note_on_c, 0, 60, 67
3, 210360, Note_on_c, 0, 60, 0
3, 210360, Note_on_c, 0, 63, 67
3, 210480, Note_on_c, 0, 63, 0
3, 210480, Note_on_c, 0, 67, 67
3, 210600, Note_on_c, 0, 67, 0
3, 210600, Control_c, 0, 64, 0
3, 210600, Note_on_c, 0, 72, 67
3, 210720, Note_on_c, 0, 72, 0
3, 210720, Control_c, 0, 64, 127
3, 210720, Note_on_c, 0, 58, 67
3, 210840, Note_on_c, 0, 58, 0
3, 210840, Note_on_c, 0, 60, 67
3, 210960, Note_on_c, 0, 60, 0
3, 210960, Note_on_c, 0, 63, 67
3, 211080, Note_on_c, 0, 63, 0
3, 211080, Control_c, 0, 64, 0
3, 211080, Note_on_c, 0, 67, 67
3, 211200, Note_on_c, 0, 67, 0
3, 211200, Control_c, 0, 64, 127
3, 211200, Note_on_c, 0, 57, 67
3, 211320, Note_on_c, 0, 57, 0
3, 211320, Note_on_c, 0, 60, 67
3, 211440, Note_on_c, 0, 60, 0
3, 211440, Note_on_c, 0, 63, 67
3, 211560, Note_on_c, 0, 63, 0
3, 211560, Control_c, 0, 64, 0
3, 211560, Note_on_c, 0, 66, 67
3, 211680, Note_on_c, 0, 66, 0
3, 211680, Control_c, 0, 64, 127
3, 211680, Note_on_c, 0, 58, 67
3, 211800, Note_on_c, 0, 58, 0
3, 211800, Note_on_c, 0, 60, 67
3, 211920, Note_on_c, 0, 60, 0
3, 211920, Note_on_c, 0, 63, 67
3, 212040, Note_on_c, 0, 63, 0
3, 212040, Control_c, 0, 64, 0
3, 212040, Note_on_c, 0, 67, 67
3, 212160, Note_on_c, 0, 67, 0
3, 212160, Control_c, 0, 64, 127
3, 212160, Note_on_c, 0, 57, 67
3, 212280, Note_on_c, 0, 57, 0
3, 212280, Note_on_c, 0, 60, 67
3, 212400, Note_on_c, 0, 60, 0
3, 212400, Note_on_c, 0, 63, 67
3, 212520, Note_on_c, 0, 63, 0
3, 212520, Control_c, 0, 64, 0
3, 212520, Note_on_c, 0, 66, 67
3, 212640, Note_on_c, 0, 66, 0
3, 212640, Control_c, 0, 64, 127
3, 212640, Note_on_c, 0, 53, 67
3, 212760, Note_on_c, 0, 53, 0
3, 212760, Note_on_c, 0, 60, 67
3, 212880, Note_on_c, 0, 60, 0
3, 212880, Note_on_c, 0, 63, 67
3, 213000, Note_on_c, 0, 63, 0
3, 213000, Control_c, 0, 64, 0
3, 213000, Note_on_c, 0, 69, 67
3, 213120, Note_on_c, 0, 69, 0
3, 213120, Control_c, 0, 64, 127
3, 213120, Note_on_c, 0, 58, 67
3, 213240, Note_on_c, 0, 58, 0
3, 213240, Note_on_c, 0, 61, 67
3, 213360, Note_on_c, 0, 61, 0
3, 213360, Note_on_c, 0, 65, 67
3, 213480, Note_on_c, 0, 65, 0
3, 213480, Control_c, 0, 64, 0
3, 213480, Note_on_c, 0, 70, 67
3, 213600, Note_on_c, 0, 70, 0
3, 213600, Control_c, 0, 64, 127
3, 213600, Note_on_c, 0, 56, 67
3, 213720, Note_on_c, 0, 56, 0
3, 213720, Note_on_c, 0, 58, 67
3, 213840, Note_on_c, 0, 58, 0
3, 213840, Note_on_c, 0, 61, 67
3, 213960, Note_on_c, 0, 61, 0
3, 213960, Control_c, 0, 64, 0
3, 213960, Note_on_c, 0, 65, 67
3, 214080, Note_on_c, 0, 65, 0
3, 214080, Control_c, 0, 64, 127
3, 214080, Note_on_c, 0, 55, 67
3, 214200, Note_on_c, 0, 55, 0
3, 214200, Note_on_c, 0, 58, 67
3, 214320, Note_on_c, 0, 58, 0
3, 214320, Note_on_c, 0, 61, 67
3, 214440, Note_on_c, 0, 61, 0
3, 214440, Control_c, 0, 64, 0
3, 214440, Note_on_c, 0, 64, 67
3, 214560, Note_on_c, 0, 64, 0
3, 214560, Control_c, 0, 64, 127
3, 214560, Note_on_c, 0, 54, 54
3, 214560, Note_on_c, 0, 58, 54
3, 214800, Note_on_c, 0, 58, 0
3, 214800, Note_on_c, 0, 54, 0
3, 214800, Note_on_c, 0, 61, 54
3, 215040, Note_on_c, 0, 61, 0
3, 215040, Note_on_c, 0, 63, 54
3, 215280, Note_on_c, 0, 63, 0
3, 215280, Control_c, 0, 64, 0
3, 215280, Note_on_c, 0, 64, 54
3, 215520, Note_on_c, 0, 64, 0
3, 215520, Note_on_c, 0, 53, 54
3, 215520, Note_on_c, 0, 60, 54
3, 215520, Note_on_c, 0, 65, 54
3, 215760, Note_on_c, 0, 65, 0
3, 215760, Note_on_c, 0, 60, 0
3, 215760, Note_on_c, 0, 53, 0
3, 215760, Note_on_c, 0, 57, 54
3, 216000, Note_on_c, 0, 57, 0
3, 216480, Note_on_c, 0, 53, 54
3, 216480, Note_on_c, 0, 58, 54
3, 216480, Note_on_c, 0, 60, 54
3, 216960, Note_on_c, 0, 60, 0
3, 216960, Note_on_c, 0, 58, 0
3, 216960, Note_on_c, 0, 53, 0
3, 216960, Note_on_c, 0, 57, 54
3, 217440, Note_on_c, 0, 57, 0
3, 217920, Note_on_c, 0, 65, 67
3, 217920, Note_on_c, 0, 70, 67
3, 217920, Note_on_c, 0, 72, 67
3, 218400, Note_on_c, 0, 72, 0
3, 218400, Note_on_c, 0, 70, 0
3, 218400, Note_on_c, 0, 65, 0
3, 218400, Note_on_c, 0, 69, 67
3, 218880, Note_on_c, 0, 69, 0
3, 218880, Note_on_c, 0, 51, 67
3, 218880, Note_on_c, 0, 58, 67
3, 218880, Note_on_c, 0, 60, 67
3, 219360, Note_on_c, 0, 60, 0
3, 219360, Note_on_c, 0, 58, 0
3, 219360, Note_on_c, 0, 51, 0
3, 219360, Note_on_c, 0, 54, 67
3, 219360, Note_on_c, 0, 58, 67
3, 219360, Note_on_c, 0, 63, 67
3, 219600, Note_on_c, 0, 63, 0
3, 219600, Note_on_c, 0, 58, 0
3, 219600, Note_on_c, 0, 54, 0
3, 219600, Note_on_c, 0, 64, 67
3, 219840, Note_on_c, 0, 64, 0
3, 219840, Note_on_c, 0, 53, 67
3, 219840, Note_on_c, 0, 60, 67
3, 219840, Note_on_c, 0, 65, 67
3, 220080, Note_on_c, 0, 65, 0
3, 220080, Note_on_c, 0, 60, 0
3, 220080, Note_on_c, 0, 53, 0
3, 220320, Note_on_c, 0, 63, 54
3, 220320, Note_on_c, 0, 70, 54
3, 220320, Note_on_c, 0, 72, 54
3, 220800, Note_on_c, 0, 72, 0
3, 220800, Note_on_c, 0, 70, 0
3, 220800, Note_on_c, 0, 63, 0
3, 220800, Note_on_c, 0, 66, 67
3, 220800, Note_on_c, 0, 70, 67
3, 220800, Note_on_c, 0, 75, 67
3, 221040, Note_on_c, 0, 75, 0
3, 221040, Note_on_c, 0, 70, 0
3, 221040, Note_on_c, 0, 66, 0
3, 221040, Note_on_c, 0, 76, 67
3, 221280, Note_on_c, 0, 76, 0
3, 221280, Note_on_c, 0, 65, 80
3, 221280, Note_on_c, 0, 72, 80
3, 221280, Note_on_c, 0, 77, 80
3, 221520, Note_on_c, 0, 77, 0
3, 221520, Note_on_c, 0, 72, 0
3, 221520, Note_on_c, 0, 65, 0
3, 221760, Note_on_c, 0, 54, 93
3, 221783, Note_on_c, 0, 54, 0
3, 221880, Note_on_c, 0, 53, 93
3, 221903, Note_on_c, 0, 53, 0
3, 222000, Note_on_c, 0, 51, 93
3, 222023, Note_on_c, 0, 51, 0
3, 222120, Note_on_c, 0, 49, 93
3, 222143, Note_on_c, 0, 49, 0
3, 222240, Note_on_c, 0, 48, 93
3, 222263, Note_on_c, 0, 48, 0
3, 222360, Note_on_c, 0, 46, 93
3, 222383, Note_on_c, 0, 46, 0
3, 222480, Note_on_c, 0, 45, 93
3, 222503, Note_on_c, 0, 45, 0
3, 222600, Note_on_c, 0, 42, 93
3, 222623, Note_on_c, 0, 42, 0
3, 222720, Note_on_c, 0, 41, 93
3, 222743, Note_on_c, 0, 41, 0
3, 222840, Note_on_c, 0, 39, 93
3, 222863, Note_on_c, 0, 39, 0
3, 222960, Note_on_c, 0, 37, 93
3, 222983, Note_on_c, 0, 37, 0
3, 223080, Note_on_c, 0, 36, 93
3, 223103, Note_on_c, 0, 36, 0
3, 224640, Note_on_c, 0, 66, 93
3, 224663, Note_on_c, 0, 66, 0
3, 224760, Note_on_c, 0, 65, 93
3, 224783, Note_on_c, 0, 65, 0
3, 224880, Note_on_c, 0, 63, 93
3, 224903, Note_on_c, 0, 63, 0
3, 225000, Note_on_c, 0, 61, 93
3, 225023, Note_on_c, 0, 61, 0
3, 225120, Note_on_c, 0, 60, 93
3, 225143, Note_on_c, 0, 60, 0
3, 225240, Note_on_c, 0, 58, 93
3, 225263, Note_on_c, 0, 58, 0
3, 225360, Note_on_c, 0, 57, 93
3, 225383, Note_on_c, 0, 57, 0
3, 225480, Note_on_c, 0, 54, 93
3, 225503, Note_on_c, 0, 54, 0
3, 225600, Note_on_c, 0, 53, 93
3, 225623, Note_on_c, 0, 53, 0
3, 225720, Note_on_c, 0, 51, 93
3, 225743, Note_on_c, 0, 51, 0
3, 225840, Note_on_c, 0, 49, 93
3, 225863, Note_on_c, 0, 49, 0
3, 225960, Note_on_c, 0, 48, 93
3, 225983, Note_on_c, 0, 48, 0
3, 227520, Note_on_c, 0, 46, 67
3, 227520, Note_on_c, 0, 53, 67
3, 227567, Note_on_c, 0, 53, 0
3, 227567, Note_on_c, 0, 46, 0
3, 227760, Note_on_c, 0, 61, 67
3, 227760, Note_on_c, 0, 65, 67
3, 227807, Note_on_c, 0, 65, 0
3, 227807, Note_on_c, 0, 61, 0
3, 228240, Note_on_c, 0, 63, 67
3, 228240, Note_on_c, 0, 66, 67
3, 228287, Note_on_c, 0, 66, 0
3, 228287, Note_on_c, 0, 63, 0
3, 228480, Note_on_c, 0, 61, 67
3, 228480, Note_on_c, 0, 65, 67
3, 228527, Note_on_c, 0, 65, 0
3, 228527, Note_on_c, 0, 61, 0
3, 228720, Note_on_c, 0, 60, 67
3, 228720, Note_on_c, 0, 63, 67
3, 228767, Note_on_c, 0, 63, 0
3, 228767, Note_on_c, 0, 60, 0
3, 228960, Note_on_c, 0, 46, 67
3, 228960, Note_on_c, 0, 53, 67
3, 229007, Note_on_c, 0, 53, 0
3, 229007, Note_on_c, 0, 46, 0
3, 229200, Note_on_c, 0, 61, 67
3, 229200, Note_on_c, 0, 65, 67
3, 229247, Note_on_c, 0, 65, 0
3, 229247, Note_on_c, 0, 61, 0
3, 229680, Note_on_c, 0, 60, 67
3, 229680, Note_on_c, 0, 63, 67
3, 229727, Note_on_c, 0, 63, 0
3, 229727, Note_on_c, 0, 60, 0
3, 229920, Note_on_c, 0, 58, 67
3, 229920, Note_on_c, 0, 61, 67
3, 229967, Note_on_c, 0, 61, 0
3, 229967, Note_on_c, 0, 58, 0
3, 230160, Note_on_c, 0, 53, 67
3, 230160, Note_on_c, 0, 57, 67
3, 230160, Note_on_c, 0, 60, 67
3, 230207, Note_on_c, 0, 60, 0
3, 230207, Note_on_c, 0, 57, 0
3, 230207, Note_on_c, 0, 53, 0
3, 230400, Note_on_c, 0, 46, 67
3, 230400, Note_on_c, 0, 53, 67
3, 230447, Note_on_c, 0, 53, 0
3, 230447, Note_on_c, 0, 46, 0
3, 230640, Note_on_c, 0, 61, 67
3, 230640, Note_on_c, 0, 65, 67
3, 230687, Note_on_c, 0, 65, 0
3, 230687, Note_on_c, 0, 61, 0
3, 231120, Note_on_c, 0, 60, 67
3, 231120, Note_on_c, 0, 63, 67
3, 231167, Note_on_c, 0, 63, 0
3, 231167, Note_on_c, 0, 60, 0
3, 231360, Note_on_c, 0, 58, 67
3, 231360, Note_on_c, 0, 61, 67
3, 231407, Note_on_c, 0, 61, 0
3, 231407, Note_on_c, 0, 58, 0
3, 231600, Note_on_c, 0, 53, 67
3, 231600, Note_on_c, 0, 57, 67
3, 231600, Note_on_c, 0, 60, 67
3, 231647, Note_on_c, 0, 60, 0
3, 231647, Note_on_c, 0, 57, 0
3, 231647, Note_on_c, 0, 53, 0
3, 231840, Note_on_c, 0, 46, 67
3, 231840, Note_on_c, 0, 53, 67
3, 231887, Note_on_c, 0, 53, 0
3, 231887, Note_on_c, 0, 46, 0
3, 232080, Note_on_c, 0, 61, 67
3, 232080, Note_on_c, 0, 65, 67
3, 232127, Note_on_c, 0, 65, 0
3, 232127, Note_on_c, 0, 61, 0
3, 232560, Note_on_c, 0, 60, 67
3, 232560, Note_on_c, 0, 63, 67
3, 232607, Note_on_c, 0, 63, 0
3, 232607, Note_on_c, 0, 60, 0
3, 232800, Note_on_c, 0, 58, 67
3, 232800, Note_on_c, 0, 61, 67
3, 232847, Note_on_c, 0, 61, 0
3, 232847, Note_on_c, 0, 58, 0
3, 233040, Note_on_c, 0, 53, 67
3, 233040, Note_on_c, 0, 57, 67
3, 233040, Note_on_c, 0, 60, 67
3, 233087, Note_on_c, 0, 60, 0
3, 233087, Note_on_c, 0, 57, 0
3, 233087, Note_on_c, 0, 53, 0
3, 233280, Note_on_c, 0, 46, 67
3, 233280, Note_on_c, 0, 53, 67
3, 233327, Note_on_c, 0, 53, 0
3, 233327, Note_on_c, 0, 46, 0
3, 233520, Note_on_c, 0, 61, 67
3, 233520, Note_on_c, 0, 65, 67
3, 233567, Note_on_c, 0, 65, 0
3, 233567, Note_on_c, 0, 61, 0
3, 234000, Note_on_c, 0, 63, 67
3, 234000, Note_on_c, 0, 66, 67
3, 234047, Note_on_c, 0, 66, 0
3, 234047, Note_on_c, 0, 63, 0
3, 234240, Note_on_c, 0, 61, 67
3, 234240, Note_on_c, 0, 65, 67
3, 234287, Note_on_c, 0, 65, 0
3, 234287, Note_on_c, 0, 61, 0
3, 234480, Note_on_c, 0, 60, 67
3, 234480, Note_on_c, 0, 63, 67
3, 234527, Note_on_c, 0, 63, 0
3, 234527, Note_on_c, 0, 60, 0
3, 234720, Note_on_c, 0, 46, 67
3, 234720, Note_on_c, 0, 53, 67
3, 234767, Note_on_c, 0, 53, 0
3, 234767, Note_on_c, 0, 46, 0
3, 234960, Note_on_c, 0, 61, 67
3, 234960, Note_on_c, 0, 65, 67
3, 235007, Note_on_c, 0, 65, 0
3, 235007, Note_on_c, 0, 61, 0
3, 235440, Note_on_c, 0, 60, 67
3, 235440, Note_on_c, 0, 63, 67
3, 235487, Note_on_c, 0, 63, 0
3, 235487, Note_on_c, 0, 60, 0
3, 235680, Note_on_c, 0, 58, 67
3, 235680, Note_on_c, 0, 61, 67
3, 235727, Note_on_c, 0, 61, 0
3, 235727, Note_on_c, 0, 58, 0
3, 235920, Note_on_c, 0, 53, 67
3, 235920, Note_on_c, 0, 57, 67
3, 235920, Note_on_c, 0, 60, 67
3, 235967, Note_on_c, 0, 60, 0
3, 235967, Note_on_c, 0, 57, 0
3, 235967, Note_on_c, 0, 53, 0
3, 236160, Note_on_c, 0, 46, 67
3, 236160, Note_on_c, 0, 53, 67
3, 236207, Note_on_c, 0, 53, 0
3, 236207, Note_on_c, 0, 46, 0
3, 236400, Note_on_c, 0, 61, 67
3, 236400, Note_on_c, 0, 65, 67
3, 236447, Note_on_c, 0, 65, 0
3, 236447, Note_on_c, 0, 61, 0
3, 236880, Note_on_c, 0, 60, 67
3, 236880, Note_on_c, 0, 63, 67
3, 236927, Note_on_c, 0, 63, 0
3, 236927, Note_on_c, 0, 60, 0
3, 237120, Note_on_c, 0, 58, 67
3, 237120, Note_on_c, 0, 61, 67
3, 237167, Note_on_c, 0, 61, 0
3, 237167, Note_on_c, 0, 58, 0
3, 237360, Note_on_c, 0, 53, 67
3, 237360, Note_on_c, 0, 57, 67
3, 237360, Note_on_c, 0, 60, 67
3, 237407, Note_on_c, 0, 60, 0
3, 237407, Note_on_c, 0, 57, 0
3, 237407, Note_on_c, 0, 53, 0
3, 237600, Note_on_c, 0, 46, 67
3, 237600, Note_on_c, 0, 53, 67
3, 237600, Note_on_c, 0, 58, 67
3, 237647, Note_on_c, 0, 58, 0
3, 237647, Note_on_c, 0, 53, 0
3, 237647, Note_on_c, 0, 46, 0
3, 239040, Note_on_c, 0, 49, 80
3, 239040, Note_on_c, 0, 56, 80
3, 239087, Note_on_c, 0, 56, 0
3, 239087, Note_on_c, 0, 49, 0
3, 239280, Note_on_c, 0, 65, 80
3, 239280, Note_on_c, 0, 68, 80
3, 239327, Note_on_c, 0, 68, 0
3, 239327, Note_on_c, 0, 65, 0
3, 239760, Note_on_c, 0, 66, 80
3, 239760, Note_on_c, 0, 70, 80
3, 239807, Note_on_c, 0, 70, 0
3, 239807, Note_on_c, 0, 66, 0
3, 240000, Note_on_c, 0, 65, 80
3, 240000, Note_on_c, 0, 68, 80
3, 240047, Note_on_c, 0, 68, 0
3, 240047, Note_on_c, 0, 65, 0
3, 240240, Note_on_c, 0, 63, 80
3, 240240, Note_on_c, 0, 66, 80
3, 240287, Note_on_c, 0, 66, 0
3, 240287, Note_on_c, 0, 63, 0
3, 240480, Note_on_c, 0, 61, 80
3, 240480, Note_on_c, 0, 65, 80
3, 240527, Note_on_c, 0, 65, 0
3, 240527, Note_on_c, 0, 61, 0
3, 240720, Note_on_c, 0, 59, 80
3, 240720, Note_on_c, 0, 62, 80
3, 240767, Note_on_c, 0, 62, 0
3, 240767, Note_on_c, 0, 59, 0
3, 240960, Note_on_c, 0, 60, 80
3, 240960, Note_on_c, 0, 63, 80
3, 241007, Note_on_c, 0, 63, 0
3, 241007, Note_on_c, 0, 60, 0
3, 241200, Note_on_c, 0, 56, 80
3, 241200, Note_on_c, 0, 60, 80
3, 241247, Note_on_c, 0, 60, 0
3, 241247, Note_on_c, 0, 56, 0
3, 241440, Note_on_c, 0, 58, 80
3, 241440, Note_on_c, 0, 61, 80
3, 241487, Note_on_c, 0, 61, 0
3, 241487, Note_on_c, 0, 58, 0
3, 241680, Note_on_c, 0, 60, 80
3, 241680, Note_on_c, 0, 63, 80
3, 241727, Note_on_c, 0, 63, 0
3, 241727, Note_on_c, 0, 60, 0
3, 241920, Note_on_c, 0, 49, 80
3, 241920, Note_on_c, 0, 56, 80
3, 241967, Note_on_c, 0, 56, 0
3, 241967, Note_on_c, 0, 49, 0
3, 242160, Note_on_c, 0, 65, 80
3, 242160, Note_on_c, 0, 68, 80
3, 242207, Note_on_c, 0, 68, 0
3, 242207, Note_on_c, 0, 65, 0
3, 242640, Note_on_c, 0, 66, 80
3, 242640, Note_on_c, 0, 70, 80
3, 242687, Note_on_c, 0, 70, 0
3, 242687, Note_on_c, 0, 66, 0
3, 242880, Note_on_c, 0, 65, 80
3, 242880, Note_on_c, 0, 68, 80
3, 242927, Note_on_c, 0, 68, 0
3, 242927, Note_on_c, 0, 65, 0
3, 243120, Note_on_c, 0, 63, 80
3, 243120, Note_on_c, 0, 66, 80
3, 243167, Note_on_c, 0, 66, 0
3, 243167, Note_on_c, 0, 63, 0
3, 243360, Note_on_c, 0, 61, 80
3, 243360, Note_on_c, 0, 65, 80
3, 243407, Note_on_c, 0, 65, 0
3, 243407, Note_on_c, 0, 61, 0
3, 243600, Note_on_c, 0, 59, 80
3, 243600, Note_on_c, 0, 62, 80
3, 243647, Note_on_c, 0, 62, 0
3, 243647, Note_on_c, 0, 59, 0
3, 243840, Note_on_c, 0, 60, 80
3, 243840, Note_on_c, 0, 63, 80
3, 243887, Note_on_c, 0, 63, 0
3, 243887, Note_on_c, 0, 60, 0
3, 244080, Note_on_c, 0, 56, 80
3, 244080, Note_on_c, 0, 60, 80
3, 244127, Note_on_c, 0, 60, 0
3, 244127, Note_on_c, 0, 56, 0
3, 244320, Note_on_c, 0, 58, 80
3, 244320, Note_on_c, 0, 61, 80
3, 244367, Note_on_c, 0, 61, 0
3, 244367, Note_on_c, 0, 58, 0
3, 244560, Note_on_c, 0, 60, 80
3, 244560, Note_on_c, 0, 63, 80
3, 244607, Note_on_c, 0, 63, 0
3, 244607, Note_on_c, 0, 60, 0
3, 244800, Note_on_c, 0, 61, 80
3, 244800, Note_on_c, 0, 65, 80
3, 244847, Note_on_c, 0, 65, 0
3, 244847, Note_on_c, 0, 61, 0
3, 245040, Note_on_c, 0, 63, 80
3, 245040, Note_on_c, 0, 66, 80
3, 245087, Note_on_c, 0, 66, 0
3, 245087, Note_on_c, 0, 63, 0
3, 245280, Note_on_c, 0, 65, 80
3, 245280, Note_on_c, 0, 68, 80
3, 245327, Note_on_c, 0, 68, 0
3, 245327, Note_on_c, 0, 65, 0
3, 245520, Note_on_c, 0, 63, 80
3, 245520, Note_on_c, 0, 66, 80
3, 245567, Note_on_c, 0, 66, 0
3, 245567, Note_on_c, 0, 63, 0
3, 245760, Note_on_c, 0, 61, 80
3, 245760, Note_on_c, 0, 65, 80
3, 245807, Note_on_c, 0, 65, 0
3, 245807, Note_on_c, 0, 61, 0
3, 246000, Note_on_c, 0, 63, 80
3, 246000, Note_on_c, 0, 66, 80
3, 246047, Note_on_c, 0, 66, 0
3, 246047, Note_on_c, 0, 63, 0
3, 246240, Note_on_c, 0, 65, 80
3, 246240, Note_on_c, 0, 68, 80
3, 246287, Note_on_c, 0, 68, 0
3, 246287, Note_on_c, 0, 65, 0
3, 246480, Note_on_c, 0, 63, 80
3, 246480, Note_on_c, 0, 66, 80
3, 246527, Note_on_c, 0, 66, 0
3, 246527, Note_on_c, 0, 63, 0
3, 246720, Note_on_c, 0, 61, 80
3, 246720, Note_on_c, 0, 65, 80
3, 246767, Note_on_c, 0, 65, 0
3, 246767, Note_on_c, 0, 61, 0
3, 246960, Note_on_c, 0, 61, 80
3, 246960, Note_on_c, 0, 65, 80
3, 247007, Note_on_c, 0, 65, 0
3, 247007, Note_on_c, 0, 61, 0
3, 247200, Note_on_c, 0, 61, 80
3, 247200, Note_on_c, 0, 65, 80
3, 247247, Note_on_c, 0, 65, 0
3, 247247, Note_on_c, 0, 61, 0
3, 247440, Note_on_c, 0, 61, 80
3, 247440, Note_on_c, 0, 65, 80
3, 247487, Note_on_c, 0, 65, 0
3, 247487, Note_on_c, 0, 61, 0
3, 250800, Note_on_c, 0, 61, 80
3, 250800, Note_on_c, 0, 65, 80
3, 250800, Note_on_c, 0, 73, 80
3, 250847, Note_on_c, 0, 73, 0
3, 250847, Note_on_c, 0, 65, 0
3, 250847, Note_on_c, 0, 61, 0
3, 251040, Note_on_c, 0, 63, 106
3, 251040, Note_on_c, 0, 66, 106
3, 251040, Note_on_c, 0, 75, 106
3, 251400, Note_on_c, 0, 75, 0
3, 251400, Note_on_c, 0, 66, 0
3, 251400, Note_on_c, 0, 63, 0
3, 251400, Note_on_c, 0, 61, 80
3, 251400, Note_on_c, 0, 65, 80
3, 251460, Note_on_c, 0, 65, 0
3, 251460, Note_on_c, 0, 61, 0
3, 251460, Note_on_c, 0, 73, 80
3, 251520, Note_on_c, 0, 73, 0
3, 251520, Note_on_c, 0, 61, 80
3, 251520, Note_on_c, 0, 65, 80
3, 251567, Note_on_c, 0, 65, 0
3, 251567, Note_on_c, 0, 61, 0
3, 251760, Note_on_c, 0, 60, 80
3, 251760, Note_on_c, 0, 63, 80
3, 251760, Note_on_c, 0, 72, 80
3, 251807, Note_on_c, 0, 72, 0
3, 251807, Note_on_c, 0, 63, 0
3, 251807, Note_on_c, 0, 60, 0
3, 252240, Note_on_c, 0, 61, 80
3, 252240, Note_on_c, 0, 65, 80
3, 252240, Note_on_c, 0, 73, 80
3, 252287, Note_on_c, 0, 73, 0
3, 252287, Note_on_c, 0, 65, 0
3, 252287, Note_on_c, 0, 61, 0
3, 252480, Note_on_c, 0, 60, 106
3, 252480, Note_on_c, 0, 63, 106
3, 252480, Note_on_c, 0, 72, 106
3, 252840, Note_on_c, 0, 72, 0
3, 252840, Note_on_c, 0, 63, 0
3, 252840, Note_on_c, 0, 60, 0
3, 252840, Note_on_c, 0, 58, 80
3, 252840, Note_on_c, 0, 61, 80
3, 252900, Note_on_c, 0, 61, 0
3, 252900, Note_on_c, 0, 58, 0
3, 252900, Note_on_c, 0, 70, 80
3, 252960, Note_on_c, 0, 70, 0
3, 252960, Note_on_c, 0, 58, 80
3, 252960, Note_on_c, 0, 61, 80
3, 253007, Note_on_c, 0, 61, 0
3, 253007, Note_on_c, 0, 58, 0
3, 253200, Note_on_c, 0, 53, 80
3, 253200, Note_on_c, 0, 57, 80
3, 253200, Note_on_c, 0, 60, 80
3, 253200, Note_on_c, 0, 65, 80
3, 253247, Note_on_c, 0, 65, 0
3, 253247, Note_on_c, 0, 53, 0
3, 253247, Note_on_c, 0, 57, 0
3, 253247, Note_on_c, 0, 60, 0
3, 253680, Note_on_c, 0, 61, 80
3, 253680, Note_on_c, 0, 65, 80
3, 253680, Note_on_c, 0, 73, 80
3, 253727, Note_on_c, 0, 73, 0
3, 253727, Note_on_c, 0, 65, 0
3, 253727, Note_on_c, 0, 61, 0
3, 253920, Note_on_c, 0, 60, 106
3, 253920, Note_on_c, 0, 63, 106
3, 253920, Note_on_c, 0, 72, 106
3, 254280, Note_on_c, 0, 72, 0
3, 254280, Note_on_c, 0, 63, 0
3, 254280, Note_on_c, 0, 60, 0
3, 254280, Note_on_c, 0, 58, 80
3, 254280, Note_on_c, 0, 61, 80
3, 254340, Note_on_c, 0, 61, 0
3, 254340, Note_on_c, 0, 58, 0
3, 254340, Note_on_c, 0, 70, 80
3, 254400, Note_on_c, 0, 70, 0
3, 254400, Note_on_c, 0, 58, 80
3, 254400, Note_on_c, 0, 61, 80
3, 254447, Note_on_c, 0, 61, 0
3, 254447, Note_on_c, 0, 58, 0
3, 254640, Note_on_c, 0, 53, 80
3, 254640, Note_on_c, 0, 57, 80
3, 254640, Note_on_c, 0, 60, 80
3, 254640, Note_on_c, 0, 65, 80
3, 254687, Note_on_c, 0, 65, 0
3, 254687, Note_on_c, 0, 53, 0
3, 254687, Note_on_c, 0, 57, 0
3, 254687, Note_on_c, 0, 60, 0
3, 255120, Note_on_c, 0, 61, 80
3, 255120, Note_on_c, 0, 65, 80
3, 255120, Note_on_c, 0, 73, 80
3, 255167, Note_on_c, 0, 73, 0
3, 255167, Note_on_c, 0, 65, 0
3, 255167, Note_on_c, 0, 61, 0
3, 255360, Note_on_c, 0, 60, 106
3, 255360, Note_on_c, 0, 63, 106
3, 255360, Note_on_c, 0, 72, 106
3, 255720, Note_on_c, 0, 72, 0
3, 255720, Note_on_c, 0, 63, 0
3, 255720, Note_on_c, 0, 60, 0
3, 255720, Note_on_c, 0, 58, 80
3, 255720, Note_on_c, 0, 61, 80
3, 255780, Note_on_c, 0, 61, 0
3, 255780, Note_on_c, 0, 58, 0
3, 255780, Note_on_c, 0, 70, 80
3, 255840, Note_on_c, 0, 70, 0
3, 255840, Note_on_c, 0, 58, 80
3, 255840, Note_on_c, 0, 61, 80
3, 255887, Note_on_c, 0, 61, 0
3, 255887, Note_on_c, 0, 58, 0
3, 256080, Note_on_c, 0, 53, 80
3, 256080, Note_on_c, 0, 57, 80
3, 256080, Note_on_c, 0, 60, 80
3, 256080, Note_on_c, 0, 65, 80
3, 256127, Note_on_c, 0, 65, 0
3, 256127, Note_on_c, 0, 53, 0
3, 256127, Note_on_c, 0, 57, 0
3, 256127, Note_on_c, 0, 60, 0
3, 256560, Note_on_c, 0, 61, 80
3, 256560, Note_on_c, 0, 65, 80
3, 256560, Note_on_c, 0, 73, 80
3, 256607, Note_on_c, 0, 73, 0
3, 256607, Note_on_c, 0, 65, 0
3, 256607, Note_on_c, 0, 61, 0
3, 256800, Note_on_c, 0, 63, 106
3, 256800, Note_on_c, 0, 66, 106
3, 256800, Note_on_c, 0, 75, 106
3, 257160, Note_on_c, 0, 75, 0
3, 257160, Note_on_c, 0, 66, 0
3, 257160, Note_on_c, 0, 63, 0
3, 257160, Note_on_c, 0, 61, 80
3, 257160, Note_on_c, 0, 65, 80
3, 257220, Note_on_c, 0, 65, 0
3, 257220, Note_on_c, 0, 61, 0
3, 257220, Note_on_c, 0, 73, 80
3, 257280, Note_on_c, 0, 73, 0
3, 257280, Note_on_c, 0, 61, 80
3, 257280, Note_on_c, 0, 65, 80
3, 257327, Note_on_c, 0, 65, 0
3, 257327, Note_on_c, 0, 61, 0
3, 257520, Note_on_c, 0, 60, 80
3, 257520, Note_on_c, 0, 63, 80
3, 257520, Note_on_c, 0, 72, 80
3, 257567, Note_on_c, 0, 72, 0
3, 257567, Note_on_c, 0, 63, 0
3, 257567, Note_on_c, 0, 60, 0
3, 258000, Note_on_c, 0, 61, 80
3, 258000, Note_on_c, 0, 65, 80
3, 258000, Note_on_c, 0, 73, 80
3, 258047, Note_on_c, 0, 73, 0
3, 258047, Note_on_c, 0, 65, 0
3, 258047, Note_on_c, 0, 61, 0
3, 258240, Note_on_c, 0, 60, 106
3, 258240, Note_on_c, 0, 63, 106
3, 258240, Note_on_c, 0, 72, 106
3, 258600, Note_on_c, 0, 72, 0
3, 258600, Note_on_c, 0, 63, 0
3, 258600, Note_on_c, 0, 60, 0
3, 258600, Note_on_c, 0, 58, 80
3, 258600, Note_on_c, 0, 61, 80
3, 258660, Note_on_c, 0, 61, 0
3, 258660, Note_on_c, 0, 58, 0
3, 258660, Note_on_c, 0, 70, 80
3, 258720, Note_on_c, 0, 70, 0
3, 258720, Note_on_c, 0, 58, 80
3, 258720, Note_on_c, 0, 61, 80
3, 258767, Note_on_c, 0, 61, 0
3, 258767, Note_on_c, 0, 58, 0
3, 258960, Note_on_c, 0, 53, 80
3, 258960, Note_on_c, 0, 57, 80
3, 258960, Note_on_c, 0, 60, 80
3, 258960, Note_on_c, 0, 65, 80
3, 259007, Note_on_c, 0, 65, 0
3, 259007, Note_on_c, 0, 53, 0
3, 259007, Note_on_c, 0, 57, 0
3, 259007, Note_on_c, 0, 60, 0
3, 259440, Note_on_c, 0, 61, 80
3, 259440, Note_on_c, 0, 65, 80
3, 259440, Note_on_c, 0, 73, 80
3, 259487, Note_on_c, 0, 73, 0
3, 259487, Note_on_c, 0, 65, 0
3, 259487, Note_on_c, 0, 61, 0
3, 259680, Note_on_c, 0, 60, 106
3, 259680, Note_on_c, 0, 63, 106
3, 259680, Note_on_c, 0, 72, 106
3, 260040, Note_on_c, 0, 72, 0
3, 260040, Note_on_c, 0, 63, 0
3, 260040, Note_on_c, 0, 60, 0
3, 260040, Note_on_c, 0, 58, 80
3, 260040, Note_on_c, 0, 61, 80
3, 260100, Note_on_c, 0, 61, 0
3, 260100, Note_on_c, 0, 58, 0
3, 260100, Note_on_c, 0, 70, 80
3, 260160, Note_on_c, 0, 70, 0
3, 260160, Note_on_c, 0, 58, 80
3, 260160, Note_on_c, 0, 61, 80
3, 260207, Note_on_c, 0, 61, 0
3, 260207, Note_on_c, 0, 58, 0
3, 260400, Note_on_c, 0, 53, 80
3, 260400, Note_on_c, 0, 57, 80
3, 260400, Note_on_c, 0, 60, 80
3, 260400, Note_on_c, 0, 65, 80
3, 260447, Note_on_c, 0, 65, 0
3, 260447, Note_on_c, 0, 53, 0
3, 260447, Note_on_c, 0, 57, 0
3, 260447, Note_on_c, 0, 60, 0
3, 260880, Note_on_c, 0, 53, 80
3, 260880, Note_on_c, 0, 65, 80
3, 260927, Note_on_c, 0, 65, 0
3, 260927, Note_on_c, 0, 53, 0
3, 261120, Note_on_c, 0, 51, 106
3, 261120, Note_on_c, 0, 53, 106
3, 261120, Note_on_c, 0, 63, 106
3, 261480, Note_on_c, 0, 63, 0
3, 261480, Note_on_c, 0, 53, 0
3, 261480, Note_on_c, 0, 51, 0
3, 261480, Note_on_c, 0, 49, 80
3, 261480, Note_on_c, 0, 53, 80
3, 261540, Note_on_c, 0, 53, 0
3, 261540, Note_on_c, 0, 49, 0
3, 261540, Note_on_c, 0, 61, 80
3, 261600, Note_on_c, 0, 61, 0
3, 261600, Note_on_c, 0, 49, 80
3, 261600, Note_on_c, 0, 53, 80
3, 261647, Note_on_c, 0, 53, 0
3, 261647, Note_on_c, 0, 49, 0
3, 261840, Note_on_c, 0, 48, 80
3, 261840, Note_on_c, 0, 53, 80
3, 261840, Note_on_c, 0, 60, 80
3, 261887, Note_on_c, 0, 60, 0
3, 261887, Note_on_c, 0, 53, 0
3, 261887, Note_on_c, 0, 48, 0
3, 262080, Note_on_c, 0, 46, 80
3, 262080, Note_on_c, 0, 53, 80
3, 262080, Note_on_c, 0, 58, 80
3, 262200, Note_on_c, 0, 58, 0
3, 262200, Note_on_c, 0, 53, 0
3, 262200, Note_on_c, 0, 46, 0
3, 262200, Note_on_c, 0, 61, 80
3, 262320, Note_on_c, 0, 61, 0
3, 262320, Note_on_c, 0, 62, 80
3, 262440, Note_on_c, 0, 62, 0
3, 262440, Note_on_c, 0, 63, 80
3, 262560, Note_on_c, 0, 63, 0
3, 262560, Note_on_c, 0, 65, 80
3, 262680, Note_on_c, 0, 65, 0
3, 262680, Note_on_c, 0, 63, 80
3, 262800, Note_on_c, 0, 63, 0
3, 262800, Note_on_c, 0, 65, 80
3, 262920, Note_on_c, 0, 65, 0
3, 262920, Note_on_c, 0, 66, 80
3, 263040, Note_on_c, 0, 66, 0
3, 263040, Note_on_c, 0, 68, 80
3, 263160, Note_on_c, 0, 68, 0
3, 263160, Note_on_c, 0, 70, 80
3, 263280, Note_on_c, 0, 70, 0
3, 263280, Note_on_c, 0, 72, 80
3, 263400, Note_on_c, 0, 72, 0
3, 263400, Note_on_c, 0, 74, 80
3, 263520, Note_on_c, 0, 74, 0
3, 263520, Note_on_c, 0, 75, 80
3, 263640, Note_on_c, 0, 75, 0
3, 263640, Note_on_c, 0, 70, 80
3, 263760, Note_on_c, 0, 70, 0
3, 263760, Note_on_c, 0, 72, 80
3, 263880, Note_on_c, 0, 72, 0
3, 263880, Note_on_c, 0, 74, 80
3, 264000, Note_on_c, 0, 74, 0
3, 264000, Note_on_c, 0, 75, 80
3, 264120, Note_on_c, 0, 75, 0
3, 264120, Note_on_c, 0, 74, 80
3, 264240, Note_on_c, 0, 74, 0
3, 264240, Note_on_c, 0, 75, 80
3, 264360, Note_on_c, 0, 75, 0
3, 264360, Note_on_c, 0, 77, 80
3, 264480, Note_on_c, 0, 77, 0
3, 264480, Note_on_c, 0, 78, 80
3, 264600, Note_on_c, 0, 78, 0
3, 264600, Note_on_c, 0, 77, 80
3, 264720, Note_on_c, 0, 77, 0
3, 264720, Note_on_c, 0, 75, 80
3, 264840, Note_on_c, 0, 75, 0
3, 264840, Note_on_c, 0, 77, 80
3, 264960, Note_on_c, 0, 77, 0
3, 264960, Note_on_c, 0, 78, 80
3, 265080, Note_on_c, 0, 78, 0
3, 265080, Note_on_c, 0, 80, 80
3, 265200, Note_on_c, 0, 80, 0
3, 265200, Note_on_c, 0, 78, 80
3, 265320, Note_on_c, 0, 78, 0
3, 265320, Note_on_c, 0, 80, 80
3, 265440, Note_on_c, 0, 80, 0
3, 265440, Note_on_c, 0, 82, 80
3, 265560, Note_on_c, 0, 82, 0
3, 265560, Note_on_c, 0, 80, 80
3, 265680, Note_on_c, 0, 80, 0
3, 265680, Note_on_c, 0, 82, 80
3, 265800, Note_on_c, 0, 82, 0
3, 265800, Note_on_c, 0, 83, 80
3, 265920, Note_on_c, 0, 83, 0
3, 265920, Note_on_c, 0, 80, 80
3, 266040, Note_on_c, 0, 80, 0
3, 266040, Note_on_c, 0, 85, 80
3, 266160, Note_on_c, 0, 85, 0
3, 266160, Note_on_c, 0, 87, 80
3, 266280, Note_on_c, 0, 87, 0
3, 266280, Note_on_c, 0, 89, 80
3, 266400, Note_on_c, 0, 89, 0
3, 266400, Note_on_c, 0, 90, 80
3, 266520, Note_on_c, 0, 90, 0
3, 266520, Note_on_c, 0, 85, 80
3, 266640, Note_on_c, 0, 85, 0
3, 266640, Note_on_c, 0, 87, 80
3, 266760, Note_on_c, 0, 87, 0
3, 266760, Note_on_c, 0, 89, 80
3, 266880, Note_on_c, 0, 89, 0
3, 266880, Note_on_c, 0, 90, 80
3, 267000, Note_on_c, 0, 90, 0
3, 267000, Note_on_c, 0, 82, 80
3, 267120, Note_on_c, 0, 82, 0
3, 267120, Note_on_c, 0, 83, 80
3, 267240, Note_on_c, 0, 83, 0
3, 267240, Note_on_c, 0, 84, 80
3, 267360, Note_on_c, 0, 84, 0
3, 267360, Note_on_c, 0, 85, 80
3, 267480, Note_on_c, 0, 85, 0
3, 267480, Note_on_c, 0, 78, 80
3, 267600, Note_on_c, 0, 78, 0
3, 267600, Note_on_c, 0, 80, 80
3, 267720, Note_on_c, 0, 80, 0
3, 267720, Note_on_c, 0, 81, 80
3, 267840, Note_on_c, 0, 81, 0
3, 267840, Note_on_c, 0, 82, 80
3, 267960, Note_on_c, 0, 82, 0
3, 267960, Note_on_c, 0, 73, 80
3, 268080, Note_on_c, 0, 73, 0
3, 268080, Note_on_c, 0, 75, 80
3, 268200, Note_on_c, 0, 75, 0
3, 268200, Note_on_c, 0, 77, 80
3, 268320, Note_on_c, 0, 77, 0
3, 268320, Note_on_c, 0, 78, 80
3, 268440, Note_on_c, 0, 78, 0
3, 268440, Note_on_c, 0, 70, 80
3, 268560, Note_on_c, 0, 70, 0
3, 268560, Note_on_c, 0, 71, 80
3, 268680, Note_on_c, 0, 71, 0
3, 268680, Note_on_c, 0, 72, 80
3, 268800, Note_on_c, 0, 72, 0
3, 268800, Note_on_c, 0, 73, 80
3, 268920, Note_on_c, 0, 73, 0
3, 268920, Note_on_c, 0, 75, 80
3, 269040, Note_on_c, 0, 75, 0
3, 269040, Note_on_c, 0, 77, 80
3, 269160, Note_on_c, 0, 77, 0
3, 269160, Note_on_c, 0, 78, 80
3, 269280, Note_on_c, 0, 78, 0
3, 269280, Note_on_c, 0, 79, 80
3, 269400, Note_on_c, 0, 79, 0
3, 269400, Note_on_c, 0, 78, 80
3, 269520, Note_on_c, 0, 78, 0
3, 269520, Note_on_c, 0, 76, 80
3, 269640, Note_on_c, 0, 76, 0
3, 269640, Note_on_c, 0, 71, 80
3, 269760, Note_on_c, 0, 71, 0
3, 269760, Note_on_c, 0, 76, 80
3, 269880, Note_on_c, 0, 76, 0
3, 269880, Note_on_c, 0, 73, 80
3, 270000, Note_on_c, 0, 73, 0
3, 270000, Note_on_c, 0, 71, 80
3, 270120, Note_on_c, 0, 71, 0
3, 270120, Note_on_c, 0, 67, 80
3, 270240, Note_on_c, 0, 67, 0
3, 270240, Note_on_c, 0, 74, 80
3, 270360, Note_on_c, 0, 74, 0
3, 270360, Note_on_c, 0, 71, 80
3, 270480, Note_on_c, 0, 71, 0
3, 270480, Note_on_c, 0, 68, 80
3, 270600, Note_on_c, 0, 68, 0
3, 270600, Note_on_c, 0, 73, 80
3, 270720, Note_on_c, 0, 73, 0
3, 270720, Note_on_c, 0, 66, 80
3, 270840, Note_on_c, 0, 66, 0
3, 270840, Note_on_c, 0, 63, 80
3, 270960, Note_on_c, 0, 63, 0
3, 270960, Note_on_c, 0, 61, 80
3, 271080, Note_on_c, 0, 61, 0
3, 271080, Note_on_c, 0, 59, 80
3, 271200, Note_on_c, 0, 59, 0
3, 271200, Note_on_c, 0, 58, 80
3, 271320, Note_on_c, 0, 58, 0
3, 271320, Note_on_c, 0, 56, 80
3, 271440, Note_on_c, 0, 56, 0
3, 271440, Note_on_c, 0, 58, 80
3, 271560, Note_on_c, 0, 58, 0
3, 271560, Note_on_c, 0, 59, 80
3, 271680, Note_on_c, 0, 59, 0
3, 271680, Note_on_c, 0, 61, 80
3, 271800, Note_on_c, 0, 61, 0
3, 271800, Note_on_c, 0, 63, 80
3, 271920, Note_on_c, 0, 63, 0
3, 271920, Note_on_c, 0, 65, 80
3, 272040, Note_on_c, 0, 65, 0
3, 272040, Note_on_c, 0, 66, 80
3, 272160, Note_on_c, 0, 66, 0
3, 272160, Note_on_c, 0, 67, 80
3, 272280, Note_on_c, 0, 67, 0
3, 272280, Note_on_c, 0, 66, 80
3, 272400, Note_on_c, 0, 66, 0
3, 272400, Note_on_c, 0, 64, 80
3, 272520, Note_on_c, 0, 64, 0
3, 272520, Note_on_c, 0, 59, 80
3, 272640, Note_on_c, 0, 59, 0
3, 272640, Note_on_c, 0, 64, 80
3, 272760, Note_on_c, 0, 64, 0
3, 272760, Note_on_c, 0, 61, 80
3, 272880, Note_on_c, 0, 61, 0
3, 272880, Note_on_c, 0, 59, 80
3, 273000, Note_on_c, 0, 59, 0
3, 273000, Note_on_c, 0, 55, 80
3, 273120, Note_on_c, 0, 55, 0
3, 273120, Note_on_c, 0, 62, 80
3, 273240, Note_on_c, 0, 62, 0
3, 273240, Note_on_c, 0, 59, 80
3, 273360, Note_on_c, 0, 59, 0
3, 273360, Note_on_c, 0, 56, 80
3, 273480, Note_on_c, 0, 56, 0
3, 273480, Note_on_c, 0, 61, 80
3, 273600, Note_on_c, 0, 61, 0
3, 273600, Note_on_c, 0, 54, 80
3, 273720, Note_on_c, 0, 54, 0
3, 273720, Note_on_c, 0, 56, 80
3, 273840, Note_on_c, 0, 56, 0
3, 273840, Note_on_c, 0, 58, 80
3, 273960, Note_on_c, 0, 58, 0
3, 273960, Note_on_c, 0, 59, 80
3, 274080, Note_on_c, 0, 59, 0
3, 274080, Note_on_c, 0, 61, 80
3, 274200, Note_on_c, 0, 61, 0
3, 274200, Note_on_c, 0, 59, 80
3, 274320, Note_on_c, 0, 59, 0
3, 274320, Note_on_c, 0, 58, 80
3, 274440, Note_on_c, 0, 58, 0
3, 274440, Note_on_c, 0, 56, 80
3, 274560, Note_on_c, 0, 56, 0
3, 274560, Note_on_c, 0, 54, 80
3, 274680, Note_on_c, 0, 54, 0
3, 274680, Note_on_c, 0, 53, 80
3, 274800, Note_on_c, 0, 53, 0
3, 274800, Note_on_c, 0, 51, 80
3, 274920, Note_on_c, 0, 51, 0
3, 274920, Note_on_c, 0, 49, 80
3, 275040, Note_on_c, 0, 49, 0
3, 275040, Note_on_c, 0, 50, 80
3, 275160, Note_on_c, 0, 50, 0
3, 275160, Note_on_c, 0, 55, 80
3, 275280, Note_on_c, 0, 55, 0
3, 275280, Note_on_c, 0, 57, 80
3, 275400, Note_on_c, 0, 57, 0
3, 275400, Note_on_c, 0, 59, 80
3, 275520, Note_on_c, 0, 59, 0
3, 275520, Note_on_c, 0, 60, 80
3, 275640, Note_on_c, 0, 60, 0
3, 275640, Note_on_c, 0, 57, 80
3, 275760, Note_on_c, 0, 57, 0
3, 275760, Note_on_c, 0, 59, 80
3, 275880, Note_on_c, 0, 59, 0
3, 275880, Note_on_c, 0, 62, 80
3, 276000, Note_on_c, 0, 62, 0
3, 276000, Note_on_c, 0, 60, 93
3, 276120, Note_on_c, 0, 60, 0
3, 276120, Note_on_c, 0, 62, 93
3, 276240, Note_on_c, 0, 62, 0
3, 276240, Note_on_c, 0, 64, 93
3, 276360, Note_on_c, 0, 64, 0
3, 276360, Note_on_c, 0, 67, 93
3, 276480, Note_on_c, 0, 67, 0
3, 276480, Note_on_c, 0, 69, 93
3, 276600, Note_on_c, 0, 69, 0
3, 276600, Note_on_c, 0, 64, 93
3, 276720, Note_on_c, 0, 64, 0
3, 276720, Note_on_c, 0, 61, 93
3, 276840, Note_on_c, 0, 61, 0
3, 276840, Note_on_c, 0, 57, 93
3, 276960, Note_on_c, 0, 57, 0
3, 276960, Note_on_c, 0, 59, 93
3, 277080, Note_on_c, 0, 59, 0
3, 277080, Note_on_c, 0, 62, 93
3, 277200, Note_on_c, 0, 62, 0
3, 277200, Note_on_c, 0, 61, 93
3, 277320, Note_on_c, 0, 61, 0
3, 277320, Note_on_c, 0, 64, 93
3, 277440, Note_on_c, 0, 64, 0
3, 277440, Note_on_c, 0, 62, 93
3, 277560, Note_on_c, 0, 62, 0
3, 277560, Note_on_c, 0, 64, 93
3, 277680, Note_on_c, 0, 64, 0
3, 277680, Note_on_c, 0, 66, 93
3, 277800, Note_on_c, 0, 66, 0
3, 277800, Note_on_c, 0, 69, 93
3, 277920, Note_on_c, 0, 69, 0
3, 277920, Note_on_c, 0, 71, 93
3, 278040, Note_on_c, 0, 71, 0
3, 278040, Note_on_c, 0, 66, 93
3, 278160, Note_on_c, 0, 66, 0
3, 278160, Note_on_c, 0, 63, 93
3, 278280, Note_on_c, 0, 63, 0
3, 278280, Note_on_c, 0, 59, 93
3, 278400, Note_on_c, 0, 59, 0
3, 278400, Note_on_c, 0, 61, 93
3, 278520, Note_on_c, 0, 61, 0
3, 278520, Note_on_c, 0, 64, 93
3, 278640, Note_on_c, 0, 64, 0
3, 278640, Note_on_c, 0, 63, 93
3, 278760, Note_on_c, 0, 63, 0
3, 278760, Note_on_c, 0, 66, 93
3, 278880, Note_on_c, 0, 66, 0
3, 278880, Note_on_c, 0, 64, 93
3, 279000, Note_on_c, 0, 64, 0
3, 279000, Note_on_c, 0, 66, 93
3, 279120, Note_on_c, 0, 66, 0
3, 279120, Note_on_c, 0, 67, 93
3, 279240, Note_on_c, 0, 67, 0
3, 279240, Note_on_c, 0, 71, 93
3, 279360, Note_on_c, 0, 71, 0
3, 279360, Note_on_c, 0, 72, 80
3, 279480, Note_on_c, 0, 72, 0
3, 279480, Note_on_c, 0, 63, 80
3, 279600, Note_on_c, 0, 63, 0
3, 279600, Note_on_c, 0, 64, 80
3, 279720, Note_on_c, 0, 64, 0
3, 279720, Note_on_c, 0, 65, 80
3, 279840, Note_on_c, 0, 65, 0
3, 279840, Note_on_c, 0, 67, 80
3, 279960, Note_on_c, 0, 67, 0
3, 279960, Note_on_c, 0, 65, 80
3, 280080, Note_on_c, 0, 65, 0
3, 280080, Note_on_c, 0, 67, 80
3, 280200, Note_on_c, 0, 67, 0
3, 280200, Note_on_c, 0, 68, 80
3, 280320, Note_on_c, 0, 68, 0
3, 280320, Note_on_c, 0, 70, 80
3, 280440, Note_on_c, 0, 70, 0
3, 280440, Note_on_c, 0, 72, 80
3, 280560, Note_on_c, 0, 72, 0
3, 280560, Note_on_c, 0, 74, 80
3, 280680, Note_on_c, 0, 74, 0
3, 280680, Note_on_c, 0, 76, 80
3, 280800, Note_on_c, 0, 76, 0
3, 280800, Note_on_c, 0, 77, 80
3, 280920, Note_on_c, 0, 77, 0
3, 280920, Note_on_c, 0, 72, 80
3, 281040, Note_on_c, 0, 72, 0
3, 281040, Note_on_c, 0, 74, 80
3, 281160, Note_on_c, 0, 74, 0
3, 281160, Note_on_c, 0, 76, 80
3, 281280, Note_on_c, 0, 76, 0
3, 281280, Note_on_c, 0, 77, 80
3, 281400, Note_on_c, 0, 77, 0
3, 281400, Note_on_c, 0, 76, 80
3, 281520, Note_on_c, 0, 76, 0
3, 281520, Note_on_c, 0, 77, 80
3, 281640, Note_on_c, 0, 77, 0
3, 281640, Note_on_c, 0, 79, 80
3, 281760, Note_on_c, 0, 79, 0
3, 281760, Note_on_c, 0, 80, 80
3, 281880, Note_on_c, 0, 80, 0
3, 281880, Note_on_c, 0, 79, 80
3, 282000, Note_on_c, 0, 79, 0
3, 282000, Note_on_c, 0, 77, 80
3, 282120, Note_on_c, 0, 77, 0
3, 282120, Note_on_c, 0, 79, 80
3, 282240, Note_on_c, 0, 79, 0
3, 282240, Note_on_c, 0, 80, 80
3, 282360, Note_on_c, 0, 80, 0
3, 282360, Note_on_c, 0, 82, 80
3, 282480, Note_on_c, 0, 82, 0
3, 282480, Note_on_c, 0, 80, 80
3, 282600, Note_on_c, 0, 80, 0
3, 282600, Note_on_c, 0, 82, 80
3, 282720, Note_on_c, 0, 82, 0
3, 282720, Note_on_c, 0, 84, 80
3, 282840, Note_on_c, 0, 84, 0
3, 282840, Note_on_c, 0, 82, 80
3, 282960, Note_on_c, 0, 82, 0
3, 282960, Note_on_c, 0, 84, 80
3, 283080, Note_on_c, 0, 84, 0
3, 283080, Note_on_c, 0, 85, 80
3, 283200, Note_on_c, 0, 85, 0
3, 283200, Note_on_c, 0, 82, 80
3, 283320, Note_on_c, 0, 82, 0
3, 283320, Note_on_c, 0, 87, 80
3, 283440, Note_on_c, 0, 87, 0
3, 283440, Note_on_c, 0, 89, 80
3, 283560, Note_on_c, 0, 89, 0
3, 283560, Note_on_c, 0, 91, 80
3, 283680, Note_on_c, 0, 91, 0
3, 283680, Note_on_c, 0, 92, 80
3, 283800, Note_on_c, 0, 92, 0
3, 283800, Note_on_c, 0, 87, 80
3, 283920, Note_on_c, 0, 87, 0
3, 283920, Note_on_c, 0, 89, 80
3, 284040, Note_on_c, 0, 89, 0
3, 284040, Note_on_c, 0, 91, 80
3, 284160, Note_on_c, 0, 91, 0
3, 284160, Note_on_c, 0, 92, 80
3, 284280, Note_on_c, 0, 92, 0
3, 284280, Note_on_c, 0, 84, 80
3, 284400, Note_on_c, 0, 84, 0
3, 284400, Note_on_c, 0, 85, 80
3, 284520, Note_on_c, 0, 85, 0
3, 284520, Note_on_c, 0, 86, 80
3, 284640, Note_on_c, 0, 86, 0
3, 284640, Note_on_c, 0, 87, 80
3, 284760, Note_on_c, 0, 87, 0
3, 284760, Note_on_c, 0, 80, 80
3, 284880, Note_on_c, 0, 80, 0
3, 284880, Note_on_c, 0, 82, 80
3, 285000, Note_on_c, 0, 82, 0
3, 285000, Note_on_c, 0, 83, 80
3, 285120, Note_on_c, 0, 83, 0
3, 285120, Note_on_c, 0, 84, 80
3, 285240, Note_on_c, 0, 84, 0
3, 285240, Note_on_c, 0, 75, 80
3, 285360, Note_on_c, 0, 75, 0
3, 285360, Note_on_c, 0, 77, 80
3, 285480, Note_on_c, 0, 77, 0
3, 285480, Note_on_c, 0, 79, 80
3, 285600, Note_on_c, 0, 79, 0
3, 285600, Note_on_c, 0, 80, 80
3, 285720, Note_on_c, 0, 80, 0
3, 285720, Note_on_c, 0, 72, 80
3, 285840, Note_on_c, 0, 72, 0
3, 285840, Note_on_c, 0, 73, 80
3, 285960, Note_on_c, 0, 73, 0
3, 285960, Note_on_c, 0, 74, 80
3, 286080, Note_on_c, 0, 74, 0
3, 286080, Note_on_c, 0, 75, 80
3, 286200, Note_on_c, 0, 75, 0
3, 286200, Note_on_c, 0, 77, 80
3, 286320, Note_on_c, 0, 77, 0
3, 286320, Note_on_c, 0, 79, 80
3, 286440, Note_on_c, 0, 79, 0
3, 286440, Note_on_c, 0, 80, 80
3, 286560, Note_on_c, 0, 80, 0
3, 286560, Note_on_c, 0, 81, 80
3, 286680, Note_on_c, 0, 81, 0
3, 286680, Note_on_c, 0, 80, 80
3, 286800, Note_on_c, 0, 80, 0
3, 286800, Note_on_c, 0, 78, 80
3, 286920, Note_on_c, 0, 78, 0
3, 286920, Note_on_c, 0, 73, 80
3, 287040, Note_on_c, 0, 73, 0
3, 287040, Note_on_c, 0, 78, 80
3, 287160, Note_on_c, 0, 78, 0
3, 287160, Note_on_c, 0, 75, 80
3, 287280, Note_on_c, 0, 75, 0
3, 287280, Note_on_c, 0, 73, 80
3, 287400, Note_on_c, 0, 73, 0
3, 287400, Note_on_c, 0, 69, 80
3, 287520, Note_on_c, 0, 69, 0
3, 287520, Note_on_c, 0, 76, 80
3, 287640, Note_on_c, 0, 76, 0
3, 287640, Note_on_c, 0, 73, 80
3, 287760, Note_on_c, 0, 73, 0
3, 287760, Note_on_c, 0, 70, 80
3, 287880, Note_on_c, 0, 70, 0
3, 287880, Note_on_c, 0, 75, 80
3, 288000, Note_on_c, 0, 75, 0
3, 288000, Note_on_c, 0, 68, 80
3, 288120, Note_on_c, 0, 68, 0
3, 288120, Note_on_c, 0, 65, 80
3, 288240, Note_on_c, 0, 65, 0
3, 288240, Note_on_c, 0, 63, 80
3, 288360, Note_on_c, 0, 63, 0
3, 288360, Note_on_c, 0, 61, 80
3, 288480, Note_on_c, 0, 61, 0
3, 288480, Note_on_c, 0, 60, 80
3, 288600, Note_on_c, 0, 60, 0
3, 288600, Note_on_c, 0, 58, 80
3, 288720, Note_on_c, 0, 58, 0
3, 288720, Note_on_c, 0, 60, 80
3, 288840, Note_on_c, 0, 60, 0
3, 288840, Note_on_c, 0, 61, 80
3, 288960, Note_on_c, 0, 61, 0
3, 288960, Note_on_c, 0, 63, 80
3, 289080, Note_on_c, 0, 63, 0
3, 289080, Note_on_c, 0, 65, 80
3, 289200, Note_on_c, 0, 65, 0
3, 289200, Note_on_c, 0, 67, 80
3, 289320, Note_on_c, 0, 67, 0
3, 289320, Note_on_c, 0, 68, 80
3, 289440, Note_on_c, 0, 68, 0
3, 289440, Note_on_c, 0, 69, 80
3, 289560, Note_on_c, 0, 69, 0
3, 289560, Note_on_c, 0, 68, 80
3, 289680, Note_on_c, 0, 68, 0
3, 289680, Note_on_c, 0, 66, 80
3, 289800, Note_on_c, 0, 66, 0
3, 289800, Note_on_c, 0, 61, 80
3, 289920, Note_on_c, 0, 61, 0
3, 289920, Note_on_c, 0, 66, 80
3, 290040, Note_on_c, 0, 66, 0
3, 290040, Note_on_c, 0, 63, 80
3, 290160, Note_on_c, 0, 63, 0
3, 290160, Note_on_c, 0, 61, 80
3, 290280, Note_on_c, 0, 61, 0
3, 290280, Note_on_c, 0, 57, 80
3, 290400, Note_on_c, 0, 57, 0
3, 290400, Note_on_c, 0, 64, 80
3, 290520, Note_on_c, 0, 64, 0
3, 290520, Note_on_c, 0, 61, 80
3, 290640, Note_on_c, 0, 61, 0
3, 290640, Note_on_c, 0, 58, 80
3, 290760, Note_on_c, 0, 58, 0
3, 290760, Note_on_c, 0, 63, 80
3, 290880, Note_on_c, 0, 63, 0
3, 290880, Note_on_c, 0, 56, 80
3, 291000, Note_on_c, 0, 56, 0
3, 291000, Note_on_c, 0, 58, 80
3, 291120, Note_on_c, 0, 58, 0
3, 291120, Note_on_c, 0, 60, 80
3, 291240, Note_on_c, 0, 60, 0
3, 291240, Note_on_c, 0, 61, 80
3, 291360, Note_on_c, 0, 61, 0
3, 291360, Note_on_c, 0, 63, 80
3, 291480, Note_on_c, 0, 63, 0
3, 291480, Note_on_c, 0, 61, 80
3, 291600, Note_on_c, 0, 61, 0
3, 291600, Note_on_c, 0, 60, 80
3, 291720, Note_on_c, 0, 60, 0
3, 291720, Note_on_c, 0, 58, 80
3, 291840, Note_on_c, 0, 58, 0
3, 291840, Note_on_c, 0, 56, 80
3, 291960, Note_on_c, 0, 56, 0
3, 291960, Note_on_c, 0, 55, 80
3, 292080, Note_on_c, 0, 55, 0
3, 292080, Note_on_c, 0, 53, 80
3, 292200, Note_on_c, 0, 53, 0
3, 292200, Note_on_c, 0, 51, 80
3, 292320, Note_on_c, 0, 51, 0
3, 292320, Note_on_c, 0, 52, 93
3, 292440, Note_on_c, 0, 52, 0
3, 292440, Note_on_c, 0, 57, 93
3, 292560, Note_on_c, 0, 57, 0
3, 292560, Note_on_c, 0, 59, 93
3, 292680, Note_on_c, 0, 59, 0
3, 292680, Note_on_c, 0, 61, 93
3, 292800, Note_on_c, 0, 61, 0
3, 292800, Note_on_c, 0, 62, 93
3, 292920, Note_on_c, 0, 62, 0
3, 292920, Note_on_c, 0, 59, 93
3, 293040, Note_on_c, 0, 59, 0
3, 293040, Note_on_c, 0, 61, 93
3, 293160, Note_on_c, 0, 61, 0
3, 293160, Note_on_c, 0, 64, 93
3, 293280, Note_on_c, 0, 64, 0
3, 293280, Note_on_c, 0, 62, 93
3, 293400, Note_on_c, 0, 62, 0
3, 293400, Note_on_c, 0, 64, 93
3, 293520, Note_on_c, 0, 64, 0
3, 293520, Note_on_c, 0, 66, 93
3, 293640, Note_on_c, 0, 66, 0
3, 293640, Note_on_c, 0, 69, 93
3, 293760, Note_on_c, 0, 69, 0
3, 293760, Note_on_c, 0, 71, 93
3, 293880, Note_on_c, 0, 71, 0
3, 293880, Note_on_c, 0, 66, 93
3, 294000, Note_on_c, 0, 66, 0
3, 294000, Note_on_c, 0, 63, 93
3, 294120, Note_on_c, 0, 63, 0
3, 294120, Note_on_c, 0, 59, 93
3, 294240, Note_on_c, 0, 59, 0
3, 294240, Note_on_c, 0, 61, 93
3, 294360, Note_on_c, 0, 61, 0
3, 294360, Note_on_c, 0, 64, 93
3, 294480, Note_on_c, 0, 64, 0
3, 294480, Note_on_c, 0, 63, 93
3, 294600, Note_on_c, 0, 63, 0
3, 294600, Note_on_c, 0, 66, 93
3, 294720, Note_on_c, 0, 66, 0
3, 294720, Note_on_c, 0, 64, 93
3, 294840, Note_on_c, 0, 64, 0
3, 294840, Note_on_c, 0, 66, 93
3, 294960, Note_on_c, 0, 66, 0
3, 294960, Note_on_c, 0, 67, 93
3, 295080, Note_on_c, 0, 67, 0
3, 295080, Note_on_c, 0, 71, 93
3, 295200, Note_on_c, 0, 71, 0
3, 295200, Note_on_c, 0, 72, 93
3, 295320, Note_on_c, 0, 72, 0
3, 295320, Note_on_c, 0, 67, 93
3, 295440, Note_on_c, 0, 67, 0
3, 295440, Note_on_c, 0, 64, 93
3, 295560, Note_on_c, 0, 64, 0
3, 295560, Note_on_c, 0, 60, 93
3, 295680, Note_on_c, 0, 60, 0
3, 295680, Note_on_c, 0, 62, 93
3, 295800, Note_on_c, 0, 62, 0
3, 295800, Note_on_c, 0, 65, 93
3, 295920, Note_on_c, 0, 65, 0
3, 295920, Note_on_c, 0, 64, 93
3, 296040, Note_on_c, 0, 64, 0
3, 296040, Note_on_c, 0, 67, 93
3, 296160, Note_on_c, 0, 67, 0
3, 296160, Note_on_c, 0, 65, 93
3, 296280, Note_on_c, 0, 65, 0
3, 296280, Note_on_c, 0, 67, 93
3, 296400, Note_on_c, 0, 67, 0
3, 296400, Note_on_c, 0, 69, 93
3, 296520, Note_on_c, 0, 69, 0
3, 296520, Note_on_c, 0, 72, 93
3, 296640, Note_on_c, 0, 72, 0
3, 296640, Note_on_c, 0, 73, 93
3, 296760, Note_on_c, 0, 73, 0
3, 296760, Note_on_c, 0, 68, 93
3, 296880, Note_on_c, 0, 68, 0
3, 296880, Note_on_c, 0, 65, 93
3, 297000, Note_on_c, 0, 65, 0
3, 297000, Note_on_c, 0, 61, 93
3, 297120, Note_on_c, 0, 61, 0
3, 297120, Note_on_c, 0, 63, 93
3, 297240, Note_on_c, 0, 63, 0
3, 297240, Note_on_c, 0, 66, 93
3, 297360, Note_on_c, 0, 66, 0
3, 297360, Note_on_c, 0, 65, 93
3, 297480, Note_on_c, 0, 65, 0
3, 297480, Note_on_c, 0, 68, 93
3, 297600, Note_on_c, 0, 68, 0
3, 297600, Note_on_c, 0, 66, 93
3, 297720, Note_on_c, 0, 66, 0
3, 297720, Note_on_c, 0, 68, 93
3, 297840, Note_on_c, 0, 68, 0
3, 297840, Note_on_c, 0, 70, 93
3, 297960, Note_on_c, 0, 70, 0
3, 297960, Note_on_c, 0, 73, 93
3, 298080, Note_on_c, 0, 73, 0
3, 298080, Note_on_c, 0, 75, 93
3, 298200, Note_on_c, 0, 75, 0
3, 298200, Note_on_c, 0, 70, 93
3, 298320, Note_on_c, 0, 70, 0
3, 298320, Note_on_c, 0, 67, 93
3, 298440, Note_on_c, 0, 67, 0
3, 298440, Note_on_c, 0, 63, 93
3, 298560, Note_on_c, 0, 63, 0
3, 298560, Note_on_c, 0, 68, 93
3, 298680, Note_on_c, 0, 68, 0
3, 298680, Note_on_c, 0, 70, 93
3, 298800, Note_on_c, 0, 70, 0
3, 298800, Note_on_c, 0, 72, 93
3, 298920, Note_on_c, 0, 72, 0
3, 298920, Note_on_c, 0, 75, 93
3, 299040, Note_on_c, 0, 75, 0
3, 299040, Note_on_c, 0, 77, 93
3, 299160, Note_on_c, 0, 77, 0
3, 299160, Note_on_c, 0, 72, 93
3, 299280, Note_on_c, 0, 72, 0
3, 299280, Note_on_c, 0, 69, 93
3, 299400, Note_on_c, 0, 69, 0
3, 299400, Note_on_c, 0, 65, 93
3, 299520, Note_on_c, 0, 65, 0
3, 299520, Note_on_c, 0, 70, 93
3, 299640, Note_on_c, 0, 70, 0
3, 299640, Note_on_c, 0, 72, 93
3, 299760, Note_on_c, 0, 72, 0
3, 299760, Note_on_c, 0, 73, 93
3, 299880, Note_on_c, 0, 73, 0
3, 299880, Note_on_c, 0, 77, 93
3, 300000, Note_on_c, 0, 77, 0
3, 300000, Note_on_c, 0, 78, 93
3, 300120, Note_on_c, 0, 78, 0
3, 300120, Note_on_c, 0, 73, 93
3, 300240, Note_on_c, 0, 73, 0
3, 300240, Note_on_c, 0, 70, 93
3, 300360, Note_on_c, 0, 70, 0
3, 300360, Note_on_c, 0, 66, 93
3, 300480, Note_on_c, 0, 66, 0
3, 300480, Note_on_c, 0, 71, 93
3, 300600, Note_on_c, 0, 71, 0
3, 300600, Note_on_c, 0, 73, 93
3, 300720, Note_on_c, 0, 73, 0
3, 300720, Note_on_c, 0, 75, 93
3, 300840, Note_on_c, 0, 75, 0
3, 300840, Note_on_c, 0, 78, 93
3, 300960, Note_on_c, 0, 78, 0
3, 300960, Note_on_c, 0, 80, 93
3, 301080, Note_on_c, 0, 80, 0
3, 301080, Note_on_c, 0, 75, 93
3, 301200, Note_on_c, 0, 75, 0
3, 301200, Note_on_c, 0, 72, 93
3, 301320, Note_on_c, 0, 72, 0
3, 301320, Note_on_c, 0, 68, 93
3, 301440, Note_on_c, 0, 68, 0
3, 301440, Note_on_c, 0, 73, 93
3, 301560, Note_on_c, 0, 73, 0
3, 301560, Note_on_c, 0, 75, 93
3, 301680, Note_on_c, 0, 75, 0
3, 301680, Note_on_c, 0, 77, 93
3, 301800, Note_on_c, 0, 77, 0
3, 301800, Note_on_c, 0, 80, 93
3, 301920, Note_on_c, 0, 80, 0
3, 301920, Note_on_c, 0, 82, 93
3, 302040, Note_on_c, 0, 82, 0
3, 302040, Note_on_c, 0, 77, 93
3, 302160, Note_on_c, 0, 77, 0
3, 302160, Note_on_c, 0, 74, 93
3, 302280, Note_on_c, 0, 74, 0
3, 302280, Note_on_c, 0, 70, 93
3, 302400, Note_on_c, 0, 70, 0
3, 302400, Note_on_c, 0, 75, 93
3, 302520, Note_on_c, 0, 75, 0
3, 302520, Note_on_c, 0, 77, 93
3, 302640, Note_on_c, 0, 77, 0
3, 302640, Note_on_c, 0, 78, 93
3, 302760, Note_on_c, 0, 78, 0
3, 302760, Note_on_c, 0, 82, 93
3, 302880, Note_on_c, 0, 82, 0
3, 302880, Control_c, 0, 64, 127
3, 302880, Note_on_c, 0, 85, 93
3, 303000, Note_on_c, 0, 85, 0
3, 303000, Note_on_c, 0, 82, 93
3, 303120, Note_on_c, 0, 82, 0
3, 303120, Note_on_c, 0, 76, 93
3, 303240, Note_on_c, 0, 76, 0
3, 303240, Note_on_c, 0, 73, 93
3, 303360, Note_on_c, 0, 73, 0
3, 303360, Note_on_c, 0, 82, 93
3, 303480, Note_on_c, 0, 82, 0
3, 303480, Note_on_c, 0, 76, 93
3, 303600, Note_on_c, 0, 76, 0
3, 303600, Note_on_c, 0, 73, 93
3, 303720, Note_on_c, 0, 73, 0
3, 303720, Note_on_c, 0, 70, 93
3, 303840, Note_on_c, 0, 70, 0
3, 303840, Note_on_c, 0, 76, 106
3, 303960, Note_on_c, 0, 76, 0
3, 303960, Note_on_c, 0, 73, 106
3, 304080, Note_on_c, 0, 73, 0
3, 304080, Note_on_c, 0, 70, 106
3, 304200, Note_on_c, 0, 70, 0
3, 304200, Note_on_c, 0, 64, 106
3, 304320, Note_on_c, 0, 64, 0
3, 304320, Note_on_c, 0, 73, 106
3, 304440, Note_on_c, 0, 73, 0
3, 304440, Note_on_c, 0, 70, 106
3, 304560, Note_on_c, 0, 70, 0
3, 304560, Note_on_c, 0, 64, 106
3, 304680, Note_on_c, 0, 64, 0
3, 304680, Note_on_c, 0, 61, 106
3, 304800, Note_on_c, 0, 61, 0
3, 304800, Note_on_c, 0, 70, 106
3, 304920, Note_on_c, 0, 70, 0
3, 304920, Note_on_c, 0, 64, 106
3, 305040, Note_on_c, 0, 64, 0
3, 305040, Note_on_c, 0, 61, 106
3, 305160, Note_on_c, 0, 61, 0
3, 305160, Note_on_c, 0, 58, 106
3, 305280, Note_on_c, 0, 58, 0
3, 305280, Note_on_c, 0, 64, 106
3, 305400, Note_on_c, 0, 64, 0
3, 305400, Note_on_c, 0, 61, 106
3, 305520, Note_on_c, 0, 61, 0
3, 305520, Note_on_c, 0, 58, 106
3, 305640, Note_on_c, 0, 58, 0
3, 305640, Note_on_c, 0, 54, 106
3, 305760, Note_on_c, 0, 54, 0
3, 305760, Note_on_c, 0, 52, 106
3, 305880, Note_on_c, 0, 52, 0
3, 305880, Note_on_c, 0, 49, 106
3, 306000, Note_on_c, 0, 49, 0
3, 306000, Note_on_c, 0, 46, 106
3, 306120, Note_on_c, 0, 46, 0
3, 306120, Note_on_c, 0, 42, 106
3, 306240, Note_on_c, 0, 42, 0
3, 306240, Note_on_c, 0, 40, 106
3, 306360, Note_on_c, 0, 40, 0
3, 306360, Note_on_c, 0, 37, 106
3, 306480, Note_on_c, 0, 37, 0
3, 306480, Note_on_c, 0, 34, 106
3, 306600, Note_on_c, 0, 34, 0
3, 306600, Control_c, 0, 64, 0
3, 306600, Note_on_c, 0, 30, 106
3, 306720, Note_on_c, 0, 30, 0
3, 306720, Note_on_c, 0, 29, 106
3, 306720, Note_on_c, 0, 41, 106
3, 306960, Note_on_c, 0, 41, 0
3, 306960, Note_on_c, 0, 29, 0
3, 311280, Note_on_c, 0, 63, 67
3, 311280, Note_on_c, 0, 67, 67
3, 311327, Note_on_c, 0, 67, 0
3, 311327, Note_on_c, 0, 63, 0
3, 311520, Note_on_c, 0, 65, 93
3, 311520, Note_on_c, 0, 68, 93
3, 312000, Note_on_c, 0, 68, 0
3, 312000, Note_on_c, 0, 65, 0
3, 312000, Note_on_c, 0, 63, 67
3, 312000, Note_on_c, 0, 67, 67
3, 312047, Note_on_c, 0, 67, 0
3, 312047, Note_on_c, 0, 63, 0
3, 312240, Note_on_c, 0, 62, 67
3, 312240, Note_on_c, 0, 65, 67
3, 312287, Note_on_c, 0, 65, 0
3, 312287, Note_on_c, 0, 62, 0
3, 312480, Note_on_c, 0, 60, 67
3, 312480, Note_on_c, 0, 63, 67
3, 312527, Note_on_c, 0, 63, 0
3, 312527, Note_on_c, 0, 60, 0
3, 312720, Note_on_c, 0, 60, 67
3, 312720, Note_on_c, 0, 63, 67
3, 312767, Note_on_c, 0, 63, 0
3, 312767, Note_on_c, 0, 60, 0
3, 312960, Note_on_c, 0, 61, 67
3, 313200, Note_on_c, 0, 61, 0
3, 313200, Note_on_c, 0, 62, 67
3, 313440, Note_on_c, 0, 62, 0
3, 313440, Note_on_c, 0, 61, 67
3, 313487, Note_on_c, 0, 61, 0
3, 313680, Note_on_c, 0, 62, 67
3, 313727, Note_on_c, 0, 62, 0
3, 317040, Note_on_c, 0, 65, 67
3, 317040, Note_on_c, 0, 69, 67
3, 317087, Note_on_c, 0, 69, 0
3, 317087, Note_on_c, 0, 65, 0
3, 317280, Note_on_c, 0, 67, 93
3, 317280, Note_on_c, 0, 70, 93
3, 317760, Note_on_c, 0, 70, 0
3, 317760, Note_on_c, 0, 67, 0
3, 317760, Note_on_c, 0, 65, 67
3, 317760, Note_on_c, 0, 69, 67
3, 317807, Note_on_c, 0, 69, 0
3, 317807, Note_on_c, 0, 65, 0
3, 318000, Note_on_c, 0, 64, 67
3, 318000, Note_on_c, 0, 67, 67
3, 318047, Note_on_c, 0, 67, 0
3, 318047, Note_on_c, 0, 64, 0
3, 318240, Note_on_c, 0, 81, 80
3, 318720, Note_on_c, 0, 81, 0
3, 318720, Note_on_c, 0, 70, 80
3, 318720, Note_on_c, 0, 82, 80
3, 319200, Note_on_c, 0, 82, 0
3, 319200, Note_on_c, 0, 70, 0
3, 319200, Note_on_c, 0, 69, 80
3, 319200, Note_on_c, 0, 81, 80
3, 319680, Note_on_c, 0, 81, 0
3, 319680, Note_on_c, 0, 69, 0
3, 319680, Note_on_c, 0, 69, 80
3, 319680, Note_on_c, 0, 81, 80
3, 321120, Note_on_c, 0, 81, 0
3, 321120, Note_on_c, 0, 69, 0
3, 322740, Note_on_c, 0, 82, 80
3, 322800, Note_on_c, 0, 82, 0
3, 322800, Note_on_c, 0, 79, 80
3, 322980, Note_on_c, 0, 79, 0
3, 322980, Note_on_c, 0, 77, 80
3, 323040, Note_on_c, 0, 77, 0
3, 323040, Note_on_c, 0, 75, 80
3, 323220, Note_on_c, 0, 75, 0
3, 323220, Note_on_c, 0, 70, 80
3, 323280, Note_on_c, 0, 70, 0
3, 323280, Note_on_c, 0, 75, 80
3, 323460, Note_on_c, 0, 75, 0
3, 323460, Note_on_c, 0, 72, 80
3, 323520, Note_on_c, 0, 72, 0
3, 323520, Note_on_c, 0, 70, 80
3, 323700, Note_on_c, 0, 70, 0
3, 323700, Note_on_c, 0, 68, 80
3, 323760, Note_on_c, 0, 68, 0
3, 323760, Note_on_c, 0, 67, 80
3, 323940, Note_on_c, 0, 67, 0
3, 323940, Note_on_c, 0, 65, 80
3, 324000, Note_on_c, 0, 65, 0
3, 325620, Note_on_c, 0, 84, 80
3, 325680, Note_on_c, 0, 84, 0
3, 325680, Note_on_c, 0, 80, 80
3, 325860, Note_on_c, 0, 80, 0
3, 325860, Note_on_c, 0, 79, 80
3, 325920, Note_on_c, 0, 79, 0
3, 325920, Note_on_c, 0, 77, 80
3, 326100, Note_on_c, 0, 77, 0
3, 326100, Note_on_c, 0, 76, 80
3, 326160, Note_on_c, 0, 76, 0
3, 326160, Note_on_c, 0, 77, 80
3, 326340, Note_on_c, 0, 77, 0
3, 326340, Note_on_c, 0, 73, 80
3, 326400, Note_on_c, 0, 73, 0
3, 326400, Note_on_c, 0, 72, 80
3, 326580, Note_on_c, 0, 72, 0
3, 326580, Note_on_c, 0, 70, 80
3, 326640, Note_on_c, 0, 70, 0
3, 326640, Note_on_c, 0, 68, 80
3, 326820, Note_on_c, 0, 68, 0
3, 326820, Note_on_c, 0, 67, 80
3, 326880, Note_on_c, 0, 67, 0
3, 328500, Note_on_c, 0, 86, 80
3, 328560, Note_on_c, 0, 86, 0
3, 328560, Note_on_c, 0, 82, 80
3, 328740, Note_on_c, 0, 82, 0
3, 328740, Note_on_c, 0, 81, 80
3, 328800, Note_on_c, 0, 81, 0
3, 328800, Note_on_c, 0, 79, 80
3, 328980, Note_on_c, 0, 79, 0
3, 328980, Note_on_c, 0, 79, 80
3, 329040, Note_on_c, 0, 79, 0
3, 329040, Note_on_c, 0, 77, 80
3, 329220, Note_on_c, 0, 77, 0
3, 329220, Note_on_c, 0, 75, 80
3, 329280, Note_on_c, 0, 75, 0
3, 329280, Note_on_c, 0, 74, 80
3, 329460, Note_on_c, 0, 74, 0
3, 329460, Note_on_c, 0, 72, 80
3, 329520, Note_on_c, 0, 72, 0
3, 329520, Note_on_c, 0, 70, 80
3, 329700, Note_on_c, 0, 70, 0
3, 329700, Note_on_c, 0, 68, 80
3, 329760, Note_on_c, 0, 68, 0
3, 331380, Note_on_c, 0, 87, 80
3, 331440, Note_on_c, 0, 87, 0
3, 331440, Note_on_c, 0, 84, 80
3, 331620, Note_on_c, 0, 84, 0
3, 331620, Note_on_c, 0, 82, 80
3, 331680, Note_on_c, 0, 82, 0
3, 331680, Note_on_c, 0, 80, 80
3, 331860, Note_on_c, 0, 80, 0
3, 331860, Note_on_c, 0, 80, 80
3, 331920, Note_on_c, 0, 80, 0
3, 331920, Note_on_c, 0, 79, 80
3, 332100, Note_on_c, 0, 79, 0
3, 332100, Note_on_c, 0, 77, 80
3, 332160, Note_on_c, 0, 77, 0
3, 332160, Note_on_c, 0, 75, 80
3, 332340, Note_on_c, 0, 75, 0
3, 332340, Note_on_c, 0, 74, 80
3, 332400, Note_on_c, 0, 74, 0
3, 332400, Note_on_c, 0, 72, 80
3, 332580, Note_on_c, 0, 72, 0
3, 332580, Note_on_c, 0, 70, 80
3, 332640, Note_on_c, 0, 70, 0
3, 334260, Note_on_c, 0, 89, 80
3, 334320, Note_on_c, 0, 89, 0
3, 334320, Note_on_c, 0, 86, 80
3, 334500, Note_on_c, 0, 86, 0
3, 334500, Note_on_c, 0, 84, 80
3, 334560, Note_on_c, 0, 84, 0
3, 334560, Note_on_c, 0, 82, 80
3, 334740, Note_on_c, 0, 82, 0
3, 334740, Note_on_c, 0, 77, 80
3, 334800, Note_on_c, 0, 77, 0
3, 334800, Note_on_c, 0, 82, 80
3, 334980, Note_on_c, 0, 82, 0
3, 334980, Note_on_c, 0, 80, 80
3, 335040, Note_on_c, 0, 80, 0
3, 335040, Note_on_c, 0, 81, 80
3, 335220, Note_on_c, 0, 81, 0
3, 335220, Note_on_c, 0, 79, 80
3, 335280, Note_on_c, 0, 79, 0
3, 335280, Note_on_c, 0, 77, 80
3, 335460, Note_on_c, 0, 77, 0
3, 335460, Note_on_c, 0, 76, 80
3, 335520, Note_on_c, 0, 76, 0
3, 337140, Note_on_c, 0, 69, 93
3, 337200, Note_on_c, 0, 69, 0
3, 337200, Note_on_c, 0, 71, 93
3, 337380, Note_on_c, 0, 71, 0
3, 337380, Note_on_c, 0, 73, 93
3, 337440, Note_on_c, 0, 73, 0
3, 337440, Note_on_c, 0, 74, 93
3, 337620, Note_on_c, 0, 74, 0
3, 337620, Note_on_c, 0, 76, 93
3, 337680, Note_on_c, 0, 76, 0
3, 337680, Note_on_c, 0, 77, 93
3, 337860, Note_on_c, 0, 77, 0
3, 337860, Note_on_c, 0, 79, 93
3, 337920, Note_on_c, 0, 79, 0
3, 337920, Note_on_c, 0, 81, 93
3, 338100, Note_on_c, 0, 81, 0
3, 338100, Note_on_c, 0, 81, 93
3, 338160, Note_on_c, 0, 81, 0
3, 338160, Note_on_c, 0, 83, 93
3, 338340, Note_on_c, 0, 83, 0
3, 338340, Note_on_c, 0, 85, 93
3, 338400, Note_on_c, 0, 85, 0
3, 338400, Note_on_c, 0, 86, 93
3, 338640, Note_on_c, 0, 86, 0
3, 340020, Note_on_c, 0, 65, 93
3, 340080, Note_on_c, 0, 65, 0
3, 340080, Note_on_c, 0, 69, 93
3, 340260, Note_on_c, 0, 69, 0
3, 340260, Note_on_c, 0, 70, 93
3, 340320, Note_on_c, 0, 70, 0
3, 340320, Note_on_c, 0, 72, 93
3, 340500, Note_on_c, 0, 72, 0
3, 340500, Note_on_c, 0, 74, 93
3, 340560, Note_on_c, 0, 74, 0
3, 340560, Note_on_c, 0, 75, 93
3, 340740, Note_on_c, 0, 75, 0
3, 340740, Note_on_c, 0, 76, 93
3, 340800, Note_on_c, 0, 76, 0
3, 340800, Note_on_c, 0, 77, 93
3, 340980, Note_on_c, 0, 77, 0
3, 340980, Note_on_c, 0, 79, 93
3, 341040, Note_on_c, 0, 79, 0
3, 341040, Note_on_c, 0, 81, 93
3, 341220, Note_on_c, 0, 81, 0
3, 341220, Note_on_c, 0, 82, 93
3, 341280, Note_on_c, 0, 82, 0
3, 341280, Note_on_c, 0, 84, 93
3, 341520, Note_on_c, 0, 84, 0
3, 342900, Note_on_c, 0, 65, 93
3, 342960, Note_on_c, 0, 65, 0
3, 342960, Note_on_c, 0, 69, 93
3, 343140, Note_on_c, 0, 69, 0
3, 343140, Note_on_c, 0, 70, 93
3, 343200, Note_on_c, 0, 70, 0
3, 343200, Note_on_c, 0, 72, 93
3, 343380, Note_on_c, 0, 72, 0
3, 343380, Note_on_c, 0, 74, 93
3, 343440, Note_on_c, 0, 74, 0
3, 343440, Note_on_c, 0, 75, 93
3, 343620, Note_on_c, 0, 75, 0
3, 343620, Note_on_c, 0, 76, 93
3, 343680, Note_on_c, 0, 76, 0
3, 343680, Note_on_c, 0, 77, 93
3, 343860, Note_on_c, 0, 77, 0
3, 343860, Note_on_c, 0, 79, 93
3, 343920, Note_on_c, 0, 79, 0
3, 343920, Note_on_c, 0, 81, 93
3, 344100, Note_on_c, 0, 81, 0
3, 344100, Note_on_c, 0, 82, 93
3, 344160, Note_on_c, 0, 82, 0
3, 348480, Control_c, 0, 64, 127
3, 348480, Note_on_c, 0, 29, 106
3, 348480, Note_on_c, 0, 41, 106
3, 348600, Note_on_c, 0, 41, 0
3, 348600, Note_on_c, 0, 29, 0
3, 348600, Note_on_c, 0, 28, 106
3, 348600, Note_on_c, 0, 40, 106
3, 348720, Note_on_c, 0, 40, 0
3, 348720, Note_on_c, 0, 28, 0
3, 348720, Note_on_c, 0, 29, 106
3, 348720, Note_on_c, 0, 41, 106
3, 348840, Note_on_c, 0, 41, 0
3, 348840, Note_on_c, 0, 29, 0
3, 348840, Note_on_c, 0, 31, 106
3, 348840, Note_on_c, 0, 43, 106
3, 348960, Note_on_c, 0, 43, 0
3, 348960, Note_on_c, 0, 31, 0
3, 348960, Note_on_c, 0, 33, 106
3, 348960, Note_on_c, 0, 45, 106
3, 349080, Note_on_c, 0, 45, 0
3, 349080, Note_on_c, 0, 33, 0
3, 349080, Note_on_c, 0, 32, 106
3, 349080, Note_on_c, 0, 44, 106
3, 349200, Note_on_c, 0, 44, 0
3, 349200, Note_on_c, 0, 32, 0
3, 349200, Note_on_c, 0, 33, 106
3, 349200, Note_on_c, 0, 45, 106
3, 349320, Note_on_c, 0, 45, 0
3, 349320, Note_on_c, 0, 33, 0
3, 349320, Note_on_c, 0, 34, 106
3, 349320, Note_on_c, 0, 46, 106
3, 349440, Note_on_c, 0, 46, 0
3, 349440, Note_on_c, 0, 34, 0
3, 349440, Note_on_c, 0, 36, 106
3, 349440, Note_on_c, 0, 48, 106
3, 349560, Note_on_c, 0, 48, 0
3, 349560, Note_on_c, 0, 36, 0
3, 349560, Note_on_c, 0, 35, 106
3, 349560, Note_on_c, 0, 47, 106
3, 349680, Note_on_c, 0, 47, 0
3, 349680, Note_on_c, 0, 35, 0
3, 349680, Note_on_c, 0, 36, 106
3, 349680, Note_on_c, 0, 48, 106
3, 349800, Note_on_c, 0, 48, 0
3, 349800, Note_on_c, 0, 36, 0
3, 349800, Control_c, 0, 64, 0
3, 349800, Note_on_c, 0, 38, 106
3, 349800, Note_on_c, 0, 50, 106
3, 349920, Note_on_c, 0, 50, 0
3, 349920, Note_on_c, 0, 38, 0
3, 349920, Control_c, 0, 64, 127
3, 349920, Note_on_c, 0, 39, 106
3, 349920, Note_on_c, 0, 51, 106
3, 350040, Note_on_c, 0, 51, 0
3, 350040, Note_on_c, 0, 39, 0
3, 350040, Note_on_c, 0, 38, 106
3, 350040, Note_on_c, 0, 50, 106
3, 350160, Note_on_c, 0, 50, 0
3, 350160, Note_on_c, 0, 38, 0
3, 350160, Note_on_c, 0, 39, 106
3, 350160, Note_on_c, 0, 51, 106
3, 350280, Note_on_c, 0, 51, 0
3, 350280, Note_on_c, 0, 39, 0
3, 350280, Note_on_c, 0, 40, 106
3, 350280, Note_on_c, 0, 52, 106
3, 350400, Note_on_c, 0, 52, 0
3, 350400, Note_on_c, 0, 40, 0
3, 350400, Note_on_c, 0, 41, 106
3, 350400, Note_on_c, 0, 53, 106
3, 350520, Note_on_c, 0, 53, 0
3, 350520, Note_on_c, 0, 41, 0
3, 350520, Note_on_c, 0, 40, 106
3, 350520, Note_on_c, 0, 52, 106
3, 350640, Note_on_c, 0, 52, 0
3, 350640, Note_on_c, 0, 40, 0
3, 350640, Note_on_c, 0, 41, 106
3, 350640, Note_on_c, 0, 53, 106
3, 350760, Note_on_c, 0, 53, 0
3, 350760, Note_on_c, 0, 41, 0
3, 350760, Note_on_c, 0, 43, 106
3, 350760, Note_on_c, 0, 55, 106
3, 350880, Note_on_c, 0, 55, 0
3, 350880, Note_on_c, 0, 43, 0
3, 350880, Note_on_c, 0, 45, 106
3, 350880, Note_on_c, 0, 57, 106
3, 351000, Note_on_c, 0, 57, 0
3, 351000, Note_on_c, 0, 45, 0
3, 351000, Note_on_c, 0, 44, 106
3, 351000, Note_on_c, 0, 56, 106
3, 351120, Note_on_c, 0, 56, 0
3, 351120, Note_on_c, 0, 44, 0
3, 351120, Note_on_c, 0, 45, 106
3, 351120, Note_on_c, 0, 57, 106
3, 351240, Note_on_c, 0, 57, 0
3, 351240, Note_on_c, 0, 45, 0
3, 351240, Control_c, 0, 64, 0
3, 351240, Note_on_c, 0, 46, 106
3, 351240, Note_on_c, 0, 58, 106
3, 351360, Note_on_c, 0, 58, 0
3, 351360, Note_on_c, 0, 46, 0
3, 351360, Control_c, 0, 64, 127
3, 351360, Note_on_c, 0, 48, 106
3, 351360, Note_on_c, 0, 60, 106
3, 351480, Note_on_c, 0, 60, 0
3, 351480, Note_on_c, 0, 48, 0
3, 351480, Note_on_c, 0, 47, 106
3, 351480, Note_on_c, 0, 59, 106
3, 351600, Note_on_c, 0, 59, 0
3, 351600, Note_on_c, 0, 47, 0
3, 351600, Note_on_c, 0, 48, 106
3, 351600, Note_on_c, 0, 60, 106
3, 351720, Note_on_c, 0, 60, 0
3, 351720, Note_on_c, 0, 48, 0
3, 351720, Note_on_c, 0, 50, 106
3, 351720, Note_on_c, 0, 62, 106
3, 351840, Note_on_c, 0, 62, 0
3, 351840, Note_on_c, 0, 50, 0
3, 351840, Note_on_c, 0, 51, 106
3, 351840, Note_on_c, 0, 63, 106
3, 351960, Note_on_c, 0, 63, 0
3, 351960, Note_on_c, 0, 51, 0
3, 351960, Note_on_c, 0, 50, 106
3, 351960, Note_on_c, 0, 62, 106
3, 352080, Note_on_c, 0, 62, 0
3, 352080, Note_on_c, 0, 50, 0
3, 352080, Note_on_c, 0, 51, 106
3, 352080, Note_on_c, 0, 63, 106
3, 352200, Note_on_c, 0, 63, 0
3, 352200, Note_on_c, 0, 51, 0
3, 352200, Note_on_c, 0, 52, 106
3, 352200, Note_on_c, 0, 64, 106
3, 352320, Note_on_c, 0, 64, 0
3, 352320, Note_on_c, 0, 52, 0
3, 352320, Note_on_c, 0, 53, 106
3, 352320, Note_on_c, 0, 65, 106
3, 352440, Note_on_c, 0, 65, 0
3, 352440, Note_on_c, 0, 53, 0
3, 352440, Note_on_c, 0, 52, 106
3, 352440, Note_on_c, 0, 64, 106
3, 352560, Note_on_c, 0, 64, 0
3, 352560, Note_on_c, 0, 52, 0
3, 352560, Note_on_c, 0, 53, 106
3, 352560, Note_on_c, 0, 65, 106
3, 352680, Note_on_c, 0, 65, 0
3, 352680, Note_on_c, 0, 53, 0
3, 352680, Control_c, 0, 64, 0
3, 352680, Note_on_c, 0, 54, 106
3, 352680, Note_on_c, 0, 66, 106
3, 352800, Note_on_c, 0, 66, 0
3, 352800, Note_on_c, 0, 54, 0
3, 352800, Control_c, 0, 64, 127
3, 352800, Note_on_c, 0, 55, 106
3, 352800, Note_on_c, 0, 67, 106
3, 352920, Note_on_c, 0, 67, 0
3, 352920, Note_on_c, 0, 55, 0
3, 352920, Note_on_c, 0, 53, 106
3, 352920, Note_on_c, 0, 65, 106
3, 353040, Note_on_c, 0, 65, 0
3, 353040, Note_on_c, 0, 53, 0
3, 353040, Note_on_c, 0, 51, 106
3, 353040, Note_on_c, 0, 63, 106
3, 353160, Note_on_c, 0, 63, 0
3, 353160, Note_on_c, 0, 51, 0
3, 353160, Note_on_c, 0, 50, 106
3, 353160, Note_on_c, 0, 62, 106
3, 353280, Note_on_c, 0, 62, 0
3, 353280, Note_on_c, 0, 50, 0
3, 353280, Note_on_c, 0, 48, 106
3, 353280, Note_on_c, 0, 60, 106
3, 353400, Note_on_c, 0, 60, 0
3, 353400, Note_on_c, 0, 48, 0
3, 353400, Note_on_c, 0, 46, 106
3, 353400, Note_on_c, 0, 58, 106
3, 353520, Note_on_c, 0, 58, 0
3, 353520, Note_on_c, 0, 46, 0
3, 353520, Note_on_c, 0, 45, 106
3, 353520, Note_on_c, 0, 57, 106
3, 353640, Note_on_c, 0, 57, 0
3, 353640, Note_on_c, 0, 45, 0
3, 353640, Note_on_c, 0, 43, 106
3, 353640, Note_on_c, 0, 55, 106
3, 353760, Note_on_c, 0, 55, 0
3, 353760, Note_on_c, 0, 43, 0
3, 353760, Note_on_c, 0, 41, 106
3, 353760, Note_on_c, 0, 53, 106
3, 353880, Note_on_c, 0, 53, 0
3, 353880, Note_on_c, 0, 41, 0
3, 353880, Note_on_c, 0, 39, 106
3, 353880, Note_on_c, 0, 51, 106
3, 354000, Note_on_c, 0, 51, 0
3, 354000, Note_on_c, 0, 39, 0
3, 354000, Note_on_c, 0, 38, 106
3, 354000, Note_on_c, 0, 50, 106
3, 354120, Note_on_c, 0, 50, 0
3, 354120, Note_on_c, 0, 38, 0
3, 354120, Control_c, 0, 64, 0
3, 354120, Note_on_c, 0, 36, 106
3, 354120, Note_on_c, 0, 48, 106
3, 354240, Note_on_c, 0, 48, 0
3, 354240, Note_on_c, 0, 36, 0
3, 354240, Control_c, 0, 64, 127
3, 354240, Note_on_c, 0, 48, 106
3, 354240, Note_on_c, 0, 60, 106
3, 354360, Note_on_c, 0, 60, 0
3, 354360, Note_on_c, 0, 48, 0
3, 354360, Note_on_c, 0, 46, 106
3, 354360, Note_on_c, 0, 58, 106
3, 354480, Note_on_c, 0, 58, 0
3, 354480, Note_on_c, 0, 46, 0
3, 354480, Note_on_c, 0, 45, 106
3, 354480, Note_on_c, 0, 57, 106
3, 354600, Note_on_c, 0, 57, 0
3, 354600, Note_on_c, 0, 45, 0
3, 354600, Note_on_c, 0, 43, 106
3, 354600, Note_on_c, 0, 55, 106
3, 354720, Note_on_c, 0, 55, 0
3, 354720, Note_on_c, 0, 43, 0
3, 354720, Note_on_c, 0, 41, 106
3, 354720, Note_on_c, 0, 53, 106
3, 354840, Note_on_c, 0, 53, 0
3, 354840, Note_on_c, 0, 41, 0
3, 354840, Note_on_c, 0, 39, 106
3, 354840, Note_on_c, 0, 51, 106
3, 354960, Note_on_c, 0, 51, 0
3, 354960, Note_on_c, 0, 39, 0
3, 354960, Note_on_c, 0, 38, 106
3, 354960, Note_on_c, 0, 50, 106
3, 355080, Note_on_c, 0, 50, 0
3, 355080, Note_on_c, 0, 38, 0
3, 355080, Note_on_c, 0, 36, 106
3, 355080, Note_on_c, 0, 48, 106
3, 355200, Note_on_c, 0, 48, 0
3, 355200, Note_on_c, 0, 36, 0
3, 355200, Note_on_c, 0, 34, 106
3, 355200, Note_on_c, 0, 46, 106
3, 355320, Note_on_c, 0, 46, 0
3, 355320, Note_on_c, 0, 34, 0
3, 355320, Note_on_c, 0, 33, 106
3, 355320, Note_on_c, 0, 45, 106
3, 355440, Note_on_c, 0, 45, 0
3, 355440, Note_on_c, 0, 33, 0
3, 355440, Note_on_c, 0, 31, 106
3, 355440, Note_on_c, 0, 43, 106
3, 355560, Note_on_c, 0, 43, 0
3, 355560, Note_on_c, 0, 31, 0
3, 355560, Control_c, 0, 64, 0
3, 355560, Note_on_c, 0, 29, 106
3, 355560, Note_on_c, 0, 41, 106
3, 355680, Note_on_c, 0, 41, 0
3, 355680, Note_on_c, 0, 29, 0
3, 355680, Control_c, 0, 64, 127
3, 355680, Note_on_c, 0, 27, 106
3, 355680, Note_on_c, 0, 39, 106
3, 355839, Note_on_c, 0, 39, 0
3, 355839, Note_on_c, 0, 27, 0
3, 355839, Note_on_c, 0, 26, 106
3, 355839, Note_on_c, 0, 38, 106
3, 356000, Note_on_c, 0, 38, 0
3, 356000, Note_on_c, 0, 26, 0
3, 356000, Note_on_c, 0, 27, 106
3, 356000, Note_on_c, 0, 39, 106
3, 356160, Note_on_c, 0, 39, 0
3, 356160, Note_on_c, 0, 27, 0
3, 356160, Note_on_c, 0, 29, 106
3, 356160, Note_on_c, 0, 41, 106
3, 356319, Note_on_c, 0, 41, 0
3, 356319, Note_on_c, 0, 29, 0
3, 356319, Note_on_c, 0, 31, 106
3, 356319, Note_on_c, 0, 43, 106
3, 356480, Note_on_c, 0, 43, 0
3, 356480, Note_on_c, 0, 31, 0
3, 356480, Note_on_c, 0, 33, 106
3, 356480, Note_on_c, 0, 45, 106
3, 356640, Note_on_c, 0, 45, 0
3, 356640, Note_on_c, 0, 33, 0
3, 356640, Note_on_c, 0, 34, 106
3, 356640, Note_on_c, 0, 46, 106
3, 356799, Note_on_c, 0, 46, 0
3, 356799, Note_on_c, 0, 34, 0
3, 356799, Note_on_c, 0, 36, 106
3, 356799, Note_on_c, 0, 48, 106
3, 356960, Note_on_c, 0, 48, 0
3, 356960, Note_on_c, 0, 36, 0
3, 356960, Control_c, 0, 64, 0
3, 356960, Note_on_c, 0, 38, 106
3, 356960, Note_on_c, 0, 50, 106
3, 357120, Note_on_c, 0, 50, 0
3, 357120, Note_on_c, 0, 38, 0
3, 357120, Note_on_c, 0, 39, 106
3, 357120, Note_on_c, 0, 51, 106
3, 357279, Note_on_c, 0, 51, 0
3, 357279, Note_on_c, 0, 39, 0
3, 357279, Note_on_c, 0, 41, 106
3, 357279, Note_on_c, 0, 53, 106
3, 357440, Note_on_c, 0, 53, 0
3, 357440, Note_on_c, 0, 41, 0
3, 357440, Note_on_c, 0, 43, 106
3, 357440, Note_on_c, 0, 55, 106
3, 357600, Note_on_c, 0, 55, 0
3, 357600, Note_on_c, 0, 43, 0
3, 357600, Note_on_c, 0, 45, 106
3, 357600, Note_on_c, 0, 57, 106
3, 357759, Note_on_c, 0, 57, 0
3, 357759, Note_on_c, 0, 45, 0
3, 357759, Note_on_c, 0, 46, 106
3, 357759, Note_on_c, 0, 58, 106
3, 357920, Note_on_c, 0, 58, 0
3, 357920, Note_on_c, 0, 46, 0
3, 357920, Note_on_c, 0, 48, 106
3, 357920, Note_on_c, 0, 60, 106
3, 358080, Note_on_c, 0, 60, 0
3, 358080, Note_on_c, 0, 48, 0
3, 358080, Note_on_c, 0, 50, 106
3, 358080, Note_on_c, 0, 62, 106
3, 358239, Note_on_c, 0, 62, 0
3, 358239, Note_on_c, 0, 50, 0
3, 358239, Note_on_c, 0, 51, 106
3, 358239, Note_on_c, 0, 63, 106
3, 358400, Note_on_c, 0, 63, 0
3, 358400, Note_on_c, 0, 51, 0
3, 358400, Note_on_c, 0, 53, 106
3, 358400, Note_on_c, 0, 65, 106
3, 358560, Note_on_c, 0, 65, 0
3, 358560, Note_on_c, 0, 53, 0
3, 358560, Note_on_c, 0, 55, 127
3, 358560, Note_on_c, 0, 67, 127
3, 358719, Note_on_c, 0, 67, 0
3, 358719, Note_on_c, 0, 55, 0
3, 358719, Note_on_c, 0, 53, 127
3, 358719, Note_on_c, 0, 65, 127
3, 358880, Note_on_c, 0, 65, 0
3, 358880, Note_on_c, 0, 53, 0
3, 358880, Note_on_c, 0, 67, 127
3, 358880, Note_on_c, 0, 79, 127
3, 359040, Note_on_c, 0, 79, 0
3, 359040, Note_on_c, 0, 67, 0
3, 359040, Note_on_c, 0, 65, 127
3, 359040, Note_on_c, 0, 77, 127
3, 359199, Note_on_c, 0, 77, 0
3, 359199, Note_on_c, 0, 65, 0
3, 359199, Note_on_c, 0, 55, 127
3, 359199, Note_on_c, 0, 67, 127
3, 359360, Note_on_c, 0, 67, 0
3, 359360, Note_on_c, 0, 55, 0
3, 359360, Note_on_c, 0, 53, 127
3, 359360, Note_on_c, 0, 65, 127
3, 359520, Note_on_c, 0, 65, 0
3, 359520, Note_on_c, 0, 53, 0
3, 359520, Note_on_c, 0, 43, 127
3, 359520, Note_on_c, 0, 55, 127
3, 359679, Note_on_c, 0, 55, 0
3, 359679, Note_on_c, 0, 43, 0
3, 359679, Note_on_c, 0, 41, 127
3, 359679, Note_on_c, 0, 53, 127
3, 359840, Note_on_c, 0, 53, 0
3, 359840, Note_on_c, 0, 41, 0
3, 359840, Note_on_c, 0, 31, 127
3, 359840, Note_on_c, 0, 43, 127
3, 360000, Note_on_c, 0, 43, 0
3, 360000, Note_on_c, 0, 31, 0
3, 360000, Note_on_c, 0, 29, 127
3, 360000, Note_on_c, 0, 41, 127
3, 360159, Note_on_c, 0, 41, 0
3, 360159, Note_on_c, 0, 29, 0
3, 360159, Note_on_c, 0, 43, 127
3, 360159, Note_on_c, 0, 55, 127
3, 360320, Note_on_c, 0, 55, 0
3, 360320, Note_on_c, 0, 43, 0
3, 360320, Note_on_c, 0, 41, 127
3, 360320, Note_on_c, 0, 53, 127
3, 360480, Note_on_c, 0, 53, 0
3, 360480, Note_on_c, 0, 41, 0
3, 360480, Note_on_c, 0, 55, 127
3, 360480, Note_on_c, 0, 67, 127
3, 360639, Note_on_c, 0, 67, 0
3, 360639, Note_on_c, 0, 55, 0
3, 360639, Note_on_c, 0, 53, 127
3, 360639, Note_on_c, 0, 65, 127
3, 360800, Note_on_c, 0, 65, 0
3, 360800, Note_on_c, 0, 53, 0
3, 360800, Note_on_c, 0, 67, 127
3, 360800, Note_on_c, 0, 79, 127
3, 360960, Note_on_c, 0, 79, 0
3, 360960, Note_on_c, 0, 67, 0
3, 360960, Note_on_c, 0, 65, 127
3, 360960, Note_on_c, 0, 77, 127
3, 361119, Note_on_c, 0, 77, 0
3, 361119, Note_on_c, 0, 65, 0
3, 361119, Note_on_c, 0, 67, 127
3, 361119, Note_on_c, 0, 79, 127
3, 361280, Note_on_c, 0, 79, 0
3, 361280, Note_on_c, 0, 67, 0
3, 361280, Note_on_c, 0, 69, 127
3, 361280, Note_on_c, 0, 81, 127
3, 361680, Note_on_c, 0, 53, 106
3, 361680, Note_on_c, 0, 60, 106
3, 361680, Note_on_c, 0, 63, 106
3, 361920, Note_on_c, 0, 81, 0
3, 361920, Note_on_c, 0, 69, 0
3, 363120, Note_on_c, 0, 60, 0
3, 363120, Note_on_c, 0, 53, 0
3, 363120, Note_on_c, 0, 63, 0
3, 363120, Note_on_c, 0, 53, 106
3, 363120, Note_on_c, 0, 58, 106
3, 363120, Note_on_c, 0, 62, 106
3, 363120, Note_on_c, 0, 65, 106
3, 364080, Note_on_c, 0, 65, 0
3, 364080, Note_on_c, 0, 53, 0
3, 364080, Note_on_c, 0, 58, 0
3, 364080, Note_on_c, 0, 62, 0
3, 364080, Note_on_c, 0, 53, 106
3, 364080, Note_on_c, 0, 58, 106
3, 364560, Note_on_c, 0, 58, 0
3, 364560, Note_on_c, 0, 53, 0
3, 364560, Note_on_c, 0, 53, 106
3, 364560, Note_on_c, 0, 57, 106
3, 365520, Note_on_c, 0, 57, 0
3, 365520, Note_on_c, 0, 53, 0
3, 365520, Note_on_c, 0, 53, 106
3, 365520, Note_on_c, 0, 57, 106
3, 366000, Note_on_c, 0, 57, 0
3, 366000, Note_on_c, 0, 53, 0
3, 366000, Note_on_c, 0, 58, 106
3, 366480, Note_on_c, 0, 58, 0
3, 366480, Note_on_c, 0, 55, 106
3, 366720, Note_on_c, 0, 55, 0
3, 366720, Note_on_c, 0, 58, 106
3, 366960, Note_on_c, 0, 58, 0
3, 366960, Note_on_c, 0, 53, 106
3, 367440, Note_on_c, 0, 53, 0
3, 367440, Note_on_c, 0, 57, 106
3, 367440, Note_on_c, 0, 60, 106
3, 368880, Note_on_c, 0, 60, 0
3, 368880, Note_on_c, 0, 57, 0
3, 368880, Note_on_c, 0, 58, 106
3, 368880, Note_on_c, 0, 62, 106
3, 368880, Note_on_c, 0, 70, 106
3, 369840, Note_on_c, 0, 70, 0
3, 369840, Note_on_c, 0, 62, 0
3, 369840, Note_on_c, 0, 58, 0
3, 369840, Note_on_c, 0, 55, 106
3, 370320, Note_on_c, 0, 55, 0
3, 370320, Note_on_c, 0, 54, 106
3, 370320, Note_on_c, 0, 57, 106
3, 370320, Note_on_c, 0, 60, 106
3, 370800, Note_on_c, 0, 60, 0
3, 370800, Note_on_c, 0, 57, 0
3, 370800, Note_on_c, 0, 54, 0
3, 370800, Note_on_c, 0, 50, 106
3, 370800, Note_on_c, 0, 54, 106
3, 370800, Note_on_c, 0, 60, 106
3, 371280, Note_on_c, 0, 60, 0
3, 371280, Note_on_c, 0, 54, 0
3, 371280, Note_on_c, 0, 50, 0
3, 371280, Note_on_c, 0, 55, 106
3, 371760, Note_on_c, 0, 55, 0
3, 371760, Note_on_c, 0, 54, 106
3, 371760, Note_on_c, 0, 57, 106
3, 371760, Note_on_c, 0, 60, 106
3, 372240, Note_on_c, 0, 60, 0
3, 372240, Note_on_c, 0, 57, 0
3, 372240, Note_on_c, 0, 54, 0
3, 372240, Note_on_c, 0, 50, 106
3, 372240, Note_on_c, 0, 54, 106
3, 372240, Note_on_c, 0, 60, 106
3, 372720, Note_on_c, 0, 60, 0
3, 372720, Note_on_c, 0, 54, 0
3, 372720, Note_on_c, 0, 50, 0
3, 372720, Note_on_c, 0, 55, 106
3, 372720, Note_on_c, 0, 58, 106
3, 373200, Note_on_c, 0, 58, 0
3, 373200, Note_on_c, 0, 55, 0
3, 373200, Note_on_c, 0, 57, 106
3, 373200, Note_on_c, 0, 60, 106
3, 373200, Note_on_c, 0, 63, 106
3, 373680, Note_on_c, 0, 63, 0
3, 373680, Note_on_c, 0, 60, 0
3, 373680, Note_on_c, 0, 57, 0
3, 373680, Note_on_c, 0, 53, 106
3, 373680, Note_on_c, 0, 57, 106
3, 373680, Note_on_c, 0, 63, 106
3, 374160, Note_on_c, 0, 63, 0
3, 374160, Note_on_c, 0, 57, 0
3, 374160, Note_on_c, 0, 53, 0
3, 374160, Note_on_c, 0, 58, 106
3, 374640, Note_on_c, 0, 58, 0
3, 374640, Note_on_c, 0, 57, 106
3, 374640, Note_on_c, 0, 60, 106
3, 374640, Note_on_c, 0, 63, 106
3, 375120, Note_on_c, 0, 63, 0
3, 375120, Note_on_c, 0, 60, 0
3, 375120, Note_on_c, 0, 57, 0
3, 375120, Note_on_c, 0, 53, 106
3, 375120, Note_on_c, 0, 57, 106
3, 375120, Note_on_c, 0, 63, 106
3, 375600, Note_on_c, 0, 63, 0
3, 375600, Note_on_c, 0, 57, 0
3, 375600, Note_on_c, 0, 53, 0
3, 375600, Note_on_c, 0, 62, 106
3, 376080, Note_on_c, 0, 62, 0
3, 376080, Note_on_c, 0, 61, 106
3, 376080, Note_on_c, 0, 64, 106
3, 376560, Note_on_c, 0, 64, 0
3, 376560, Note_on_c, 0, 61, 0
3, 376560, Note_on_c, 0, 57, 106
3, 376560, Note_on_c, 0, 61, 106
3, 376560, Note_on_c, 0, 64, 106
3, 377040, Note_on_c, 0, 64, 0
3, 377040, Note_on_c, 0, 61, 0
3, 377040, Note_on_c, 0, 57, 0
3, 377040, Note_on_c, 0, 62, 106
3, 377520, Note_on_c, 0, 62, 0
3, 377520, Note_on_c, 0, 61, 106
3, 377520, Note_on_c, 0, 64, 106
3, 377520, Note_on_c, 0, 67, 106
3, 377520, Note_on_c, 0, 69, 106
3, 378000, Note_on_c, 0, 69, 0
3, 378000, Note_on_c, 0, 61, 0
3, 378000, Note_on_c, 0, 64, 0
3, 378000, Note_on_c, 0, 67, 0
3, 378000, Note_on_c, 0, 62, 106
3, 378240, Note_on_c, 0, 62, 0
3, 378240, Note_on_c, 0, 69, 106
3, 378480, Note_on_c, 0, 69, 0
3, 378480, Note_on_c, 0, 67, 106
3, 378960, Note_on_c, 0, 67, 0
3, 378960, Note_on_c, 0, 60, 106
3, 379200, Note_on_c, 0, 60, 0
3, 379200, Note_on_c, 0, 67, 106
3, 379440, Note_on_c, 0, 67, 0
3, 379440, Note_on_c, 0, 65, 106
3, 379920, Note_on_c, 0, 65, 0
3, 379920, Note_on_c, 0, 58, 106
3, 380160, Note_on_c, 0, 58, 0
3, 380160, Note_on_c, 0, 65, 106
3, 380400, Note_on_c, 0, 65, 0
3, 380400, Note_on_c, 0, 63, 106
3, 380880, Note_on_c, 0, 63, 0
3, 380880, Note_on_c, 0, 57, 106
3, 381120, Note_on_c, 0, 57, 0
3, 381120, Note_on_c, 0, 63, 106
3, 381360, Note_on_c, 0, 63, 0
3, 381360, Note_on_c, 0, 62, 106
3, 381840, Note_on_c, 0, 62, 0
3, 381840, Note_on_c, 0, 55, 106
3, 382080, Note_on_c, 0, 55, 0
3, 382080, Note_on_c, 0, 62, 106
3, 382320, Note_on_c, 0, 62, 0
3, 382320, Note_on_c, 0, 51, 106
3, 382320, Note_on_c, 0, 55, 106
3, 382320, Note_on_c, 0, 58, 106
3, 382320, Note_on_c, 0, 60, 106
3, 382800, Note_on_c, 0, 60, 0
3, 382800, Note_on_c, 0, 51, 0
3, 382800, Note_on_c, 0, 55, 0
3, 382800, Note_on_c, 0, 58, 0
3, 382800, Note_on_c, 0, 52, 106
3, 382800, Note_on_c, 0, 55, 106
3, 382800, Note_on_c, 0, 58, 106
3, 382800, Note_on_c, 0, 61, 106
3, 383280, Note_on_c, 0, 61, 0
3, 383280, Note_on_c, 0, 52, 0
3, 383280, Note_on_c, 0, 55, 0
3, 383280, Note_on_c, 0, 58, 0
3, 383280, Note_on_c, 0, 53, 106
3, 383280, Note_on_c, 0, 58, 106
3, 383280, Note_on_c, 0, 62, 106
3, 383760, Note_on_c, 0, 62, 0
3, 383760, Note_on_c, 0, 58, 0
3, 383760, Note_on_c, 0, 53, 0
3, 389520, Note_on_c, 0, 42, 93
3, 389520, Note_on_c, 0, 50, 93
3, 389760, Note_on_c, 0, 50, 0
3, 389760, Note_on_c, 0, 42, 0
3, 389760, Note_on_c, 0, 61, 93
3, 390000, Note_on_c, 0, 61, 0
3, 390000, Note_on_c, 0, 43, 93
3, 390000, Note_on_c, 0, 50, 93
3, 390240, Note_on_c, 0, 50, 0
3, 390240, Note_on_c, 0, 43, 0
3, 390240, Note_on_c, 0, 61, 93
3, 390480, Note_on_c, 0, 61, 0
3, 390480, Note_on_c, 0, 45, 93
3, 390480, Note_on_c, 0, 53, 93
3, 390720, Note_on_c, 0, 53, 0
3, 390720, Note_on_c, 0, 45, 0
3, 390720, Note_on_c, 0, 64, 93
3, 390960, Note_on_c, 0, 64, 0
3, 390960, Note_on_c, 0, 46, 93
3, 390960, Note_on_c, 0, 53, 93
3, 391200, Note_on_c, 0, 53, 0
3, 391200, Note_on_c, 0, 46, 0
3, 391200, Note_on_c, 0, 64, 93
3, 391440, Note_on_c, 0, 64, 0
3, 391440, Note_on_c, 0, 49, 93
3, 391440, Note_on_c, 0, 57, 93
3, 391680, Note_on_c, 0, 57, 0
3, 391680, Note_on_c, 0, 49, 0
3, 391680, Note_on_c, 0, 68, 93
3, 391920, Note_on_c, 0, 68, 0
3, 391920, Note_on_c, 0, 50, 93
3, 391920, Note_on_c, 0, 57, 93
3, 392160, Note_on_c, 0, 57, 0
3, 392160, Note_on_c, 0, 50, 0
3, 392160, Note_on_c, 0, 68, 93
3, 392400, Note_on_c, 0, 68, 0
3, 394800, Note_on_c, 0, 34, 93
3, 395040, Note_on_c, 0, 34, 0
3, 395040, Note_on_c, 0, 46, 93
3, 395280, Note_on_c, 0, 46, 0
3, 395280, Note_on_c, 0, 42, 93
3, 395280, Note_on_c, 0, 50, 93
3, 395327, Note_on_c, 0, 50, 0
3, 395327, Note_on_c, 0, 42, 0
3, 395520, Note_on_c, 0, 61, 93
3, 395760, Note_on_c, 0, 61, 0
3, 395760, Note_on_c, 0, 43, 93
3, 395760, Note_on_c, 0, 50, 93
3, 395807, Note_on_c, 0, 50, 0
3, 395807, Note_on_c, 0, 43, 0
3, 396000, Note_on_c, 0, 61, 93
3, 396240, Note_on_c, 0, 61, 0
3, 396240, Note_on_c, 0, 45, 93
3, 396240, Note_on_c, 0, 53, 93
3, 396287, Note_on_c, 0, 53, 0
3, 396287, Note_on_c, 0, 45, 0
3, 396480, Note_on_c, 0, 64, 93
3, 396720, Note_on_c, 0, 64, 0
3, 396720, Note_on_c, 0, 46, 93
3, 396720, Note_on_c, 0, 53, 93
3, 396767, Note_on_c, 0, 53, 0
3, 396767, Note_on_c, 0, 46, 0
3, 396960, Note_on_c, 0, 64, 93
3, 397200, Note_on_c, 0, 64, 0
3, 397200, Note_on_c, 0, 49, 93
3, 397200, Note_on_c, 0, 57, 93
3, 397247, Note_on_c, 0, 57, 0
3, 397247, Note_on_c, 0, 49, 0
3, 397440, Note_on_c, 0, 68, 93
3, 397680, Note_on_c, 0, 68, 0
3, 397680, Note_on_c, 0, 50, 93
3, 397680, Note_on_c, 0, 57, 93
3, 397727, Note_on_c, 0, 57, 0
3, 397727, Note_on_c, 0, 50, 0
3, 397920, Note_on_c, 0, 68, 93
3, 398160, Note_on_c, 0, 68, 0
3, 404880, Note_on_c, 0, 46, 93
3, 404880, Note_on_c, 0, 50, 93
3, 404880, Note_on_c, 0, 53, 93
3, 405120, Note_on_c, 0, 53, 0
3, 405120, Note_on_c, 0, 50, 0
3, 405120, Note_on_c, 0, 46, 0
3, 408000, Note_on_c, 0, 42, 93
3, 408000, Note_on_c, 0, 50, 93
3, 408240, Note_on_c, 0, 50, 0
3, 408240, Note_on_c, 0, 42, 0
3, 408480, Note_on_c, 0, 43, 93
3, 408480, Note_on_c, 0, 50, 93
3, 408720, Note_on_c, 0, 50, 0
3, 408720, Note_on_c, 0, 43, 0
3, 408960, Note_on_c, 0, 45, 93
3, 408960, Note_on_c, 0, 53, 93
3, 409200, Note_on_c, 0, 53, 0
3, 409200, Note_on_c, 0, 45, 0
3, 409440, Note_on_c, 0, 46, 93
3, 409440, Note_on_c, 0, 53, 93
3, 409680, Note_on_c, 0, 53, 0
3, 409680, Note_on_c, 0, 46, 0
3, 409920, Note_on_c, 0, 51, 93
3, 409920, Note_on_c, 0, 58, 93
3, 410160, Note_on_c, 0, 58, 0
3, 410160, Note_on_c, 0, 51, 0
3, 410160, Note_on_c, 0, 54, 93
3, 410160, Note_on_c, 0, 60, 93
3, 410400, Note_on_c, 0, 60, 0
3, 410400, Note_on_c, 0, 54, 0
3, 410400, Note_on_c, 0, 53, 93
3, 410640, Note_on_c, 0, 53, 0
3, 410640, Note_on_c, 0, 58, 93
3, 410640, Note_on_c, 0, 65, 93
3, 410880, Note_on_c, 0, 65, 0
3, 410880, Note_on_c, 0, 58, 0
3, 413760, Note_on_c, 0, 42, 93
3, 413760, Note_on_c, 0, 50, 93
3, 414000, Note_on_c, 0, 50, 0
3, 414000, Note_on_c, 0, 42, 0
3, 414240, Note_on_c, 0, 43, 93
3, 414240, Note_on_c, 0, 50, 93
3, 414480, Note_on_c, 0, 50, 0
3, 414480, Note_on_c, 0, 43, 0
3, 414720, Note_on_c, 0, 45, 93
3, 414720, Note_on_c, 0, 53, 93
3, 414960, Note_on_c, 0, 53, 0
3, 414960, Note_on_c, 0, 45, 0
3, 415200, Note_on_c, 0, 46, 93
3, 415200, Note_on_c, 0, 53, 93
3, 415440, Note_on_c, 0, 53, 0
3, 415440, Note_on_c, 0, 46, 0
3, 415680, Note_on_c, 0, 51, 93
3, 415680, Note_on_c, 0, 58, 93
3, 415920, Note_on_c, 0, 58, 0
3, 415920, Note_on_c, 0, 51, 0
3, 415920, Note_on_c, 0, 54, 93
3, 415920, Note_on_c, 0, 60, 93
3, 416160, Note_on_c, 0, 60, 0
3, 416160, Note_on_c, 0, 54, 0
3, 416160, Note_on_c, 0, 53, 93
3, 416400, Note_on_c, 0, 53, 0
3, 416400, Note_on_c, 0, 58, 93
3, 416400, Note_on_c, 0, 65, 93
3, 416640, Note_on_c, 0, 65, 0
3, 416640, Note_on_c, 0, 58, 0
3, 422160, Note_on_c, 0, 34, 93
3, 422160, Note_on_c, 0, 46, 93
3, 422400, Note_on_c, 0, 46, 0
3, 422400, Note_on_c, 0, 34, 0
3, 422400, Note_on_c, 0, 29, 93
3, 422400, Note_on_c, 0, 41, 93
3, 422640, Note_on_c, 0, 41, 0
3, 422640, Note_on_c, 0, 29, 0
3, 422640, Note_on_c, 0, 34, 93
3, 422640, Note_on_c, 0, 46, 93
3, 422880, Note_on_c, 0, 46, 0
3, 422880, Note_on_c, 0, 34, 0
3, 422880, Note_on_c, 0, 29, 93
3, 422880, Note_on_c, 0, 41, 93
3, 423120, Note_on_c, 0, 41, 0
3, 423120, Note_on_c, 0, 29, 0
3, 423120, Note_on_c, 0, 34, 93
3, 423120, Note_on_c, 0, 46, 93
3, 423360, Note_on_c, 0, 46, 0
3, 423360, Note_on_c, 0, 34, 0
3, 423360, Note_on_c, 0, 29, 93
3, 423360, Note_on_c, 0, 41, 93
3, 423600, Note_on_c, 0, 41, 0
3, 423600, Note_on_c, 0, 29, 0
3, 423600, Note_on_c, 0, 34, 93
3, 423600, Note_on_c, 0, 46, 93
3, 423840, Note_on_c, 0, 46, 0
3, 423840, Note_on_c, 0, 34, 0
3, 423840, Note_on_c, 0, 41, 93
3, 423840, Note_on_c, 0, 53, 93
3, 424080, Note_on_c, 0, 53, 0
3, 424080, Note_on_c, 0, 41, 0
3, 424080, Note_on_c, 0, 46, 93
3, 424080, Note_on_c, 0, 58, 93
3, 424320, Note_on_c, 0, 58, 0
3, 424320, Note_on_c, 0, 46, 0
3, 424320, Note_on_c, 0, 41, 93
3, 424320, Note_on_c, 0, 53, 93
3, 424560, Note_on_c, 0, 53, 0
3, 424560, Note_on_c, 0, 41, 0
3, 424560, Note_on_c, 0, 46, 93
3, 424560, Note_on_c, 0, 58, 93
3, 424800, Note_on_c, 0, 58, 0
3, 424800, Note_on_c, 0, 46, 0
3, 424800, Note_on_c, 0, 41, 93
3, 424800, Note_on_c, 0, 53, 93
3, 425040, Note_on_c, 0, 53, 0
3, 425040, Note_on_c, 0, 41, 0
3, 425040, Control_c, 0, 64, 127
3, 425040, Note_on_c, 0, 46, 93
3, 425040, Note_on_c, 0, 58, 93
3, 425280, Note_on_c, 0, 58, 0
3, 425280, Note_on_c, 0, 46, 0
3, 425280, Note_on_c, 0, 41, 93
3, 425280, Note_on_c, 0, 53, 93
3, 425520, Note_on_c, 0, 53, 0
3, 425520, Note_on_c, 0, 41, 0
3, 425520, Note_on_c, 0, 46, 93
3, 425520, Note_on_c, 0, 58, 93
3, 425760, Note_on_c, 0, 58, 0
3, 425760, Note_on_c, 0, 46, 0
3, 425760, Note_on_c, 0, 41, 93
3, 425760, Note_on_c, 0, 53, 93
3, 426000, Note_on_c, 0, 53, 0
3, 426000, Note_on_c, 0, 41, 0
3, 426000, Note_on_c, 0, 46, 93
3, 426000, Note_on_c, 0, 58, 93
3, 426240, Note_on_c, 0, 58, 0
3, 426240, Note_on_c, 0, 46, 0
3, 426240, Control_c, 0, 64, 0
3, 431280, Control_c, 0, 64, 127
3, 431280, Note_on_c, 0, 46, 93
3, 431280, Note_on_c, 0, 53, 93
3, 431280, Note_on_c, 0, 58, 93
3, 431280, Note_on_c, 0, 62, 93
3, 431760, Note_on_c, 0, 62, 0
3, 431760, Note_on_c, 0, 46, 0
3, 431760, Note_on_c, 0, 53, 0
3, 431760, Note_on_c, 0, 58, 0
3, 431760, Note_on_c, 0, 46, 93
3, 431760, Note_on_c, 0, 53, 93
3, 431760, Note_on_c, 0, 58, 93
3, 431760, Note_on_c, 0, 62, 93
3, 432240, Note_on_c, 0, 62, 0
3, 432240, Note_on_c, 0, 46, 0
3, 432240, Note_on_c, 0, 53, 0
3, 432240, Note_on_c, 0, 58, 0
3, 432240, Note_on_c, 0, 34, 119
3, 432240, Note_on_c, 0, 46, 119
3, 434160, Control_c, 0, 64, 0
3, 436080, Note_on_c, 0, 46, 0
3, 436080, Note_on_c, 0, 34, 0
3, 436080, End_track
4, 0, Start_track
4, 0, Title_t, "Grand Piano"
4, 0, Program_c, 0, 0
4, 0, Control_c, 0, 7, 115
4, 0, Control_c, 0, 10, 47
4, 240, Note_on_c, 0, 57, 83
4, 240, Note_on_c, 0, 60, 83
4, 240, Note_on_c, 0, 65, 83
4, 287, Note_on_c, 0, 65, 0
4, 287, Note_on_c, 0, 60, 0
4, 287, Note_on_c, 0, 57, 0
4, 480, Note_on_c, 0, 58, 109
4, 480, Note_on_c, 0, 60, 109
4, 480, Note_on_c, 0, 66, 109
4, 960, Note_on_c, 0, 66, 0
4, 960, Note_on_c, 0, 60, 0
4, 960, Note_on_c, 0, 58, 0
4, 960, Note_on_c, 0, 63, 83
4, 1200, Note_on_c, 0, 63, 0
4, 1200, Note_on_c, 0, 58, 83
4, 1200, Note_on_c, 0, 60, 83
4, 1440, Note_on_c, 0, 60, 0
4, 1440, Note_on_c, 0, 58, 0
4, 1440, Note_on_c, 0, 57, 83
4, 1440, Note_on_c, 0, 60, 83
4, 1440, Note_on_c, 0, 65, 83
4, 1487, Note_on_c, 0, 65, 0
4, 1487, Note_on_c, 0, 60, 0
4, 1487, Note_on_c, 0, 57, 0
4, 1680, Note_on_c, 0, 65, 83
4, 1680, Note_on_c, 0, 69, 83
4, 1680, Note_on_c, 0, 72, 83
4, 1680, Note_on_c, 0, 77, 83
4, 1727, Note_on_c, 0, 77, 0
4, 1727, Note_on_c, 0, 65, 0
4, 1727, Note_on_c, 0, 69, 0
4, 1727, Note_on_c, 0, 72, 0
4, 1920, Note_on_c, 0, 66, 109
4, 1920, Note_on_c, 0, 70, 109
4, 1920, Note_on_c, 0, 72, 109
4, 1920, Note_on_c, 0, 78, 109
4, 2400, Note_on_c, 0, 78, 0
4, 2400, Note_on_c, 0, 66, 0
4, 2400, Note_on_c, 0, 70, 0
4, 2400, Note_on_c, 0, 72, 0
4, 2400, Note_on_c, 0, 75, 83
4, 2640, Note_on_c, 0, 75, 0
4, 2640, Note_on_c, 0, 63, 83
4, 2640, Note_on_c, 0, 70, 83
4, 2640, Note_on_c, 0, 72, 83
4, 2880, Note_on_c, 0, 72, 0
4, 2880, Note_on_c, 0, 70, 0
4, 2880, Note_on_c, 0, 63, 0
4, 2880, Note_on_c, 0, 65, 83
4, 2880, Note_on_c, 0, 69, 83
4, 2880, Note_on_c, 0, 72, 83
4, 2880, Note_on_c, 0, 77, 83
4, 2927, Note_on_c, 0, 77, 0
4, 2927, Note_on_c, 0, 65, 0
4, 2927, Note_on_c, 0, 69, 0
4, 2927, Note_on_c, 0, 72, 0
4, 3120, Note_on_c, 0, 77, 83
4, 3120, Note_on_c, 0, 81, 83
4, 3120, Note_on_c, 0, 84, 83
4, 3120, Note_on_c, 0, 89, 83
4, 3167, Note_on_c, 0, 89, 0
4, 3167, Note_on_c, 0, 77, 0
4, 3167, Note_on_c, 0, 81, 0
4, 3167, Note_on_c, 0, 84, 0
4, 3360, Note_on_c, 0, 78, 109
4, 3360, Note_on_c, 0, 82, 109
4, 3360, Note_on_c, 0, 84, 109
4, 3360, Note_on_c, 0, 90, 109
4, 3840, Note_on_c, 0, 90, 0
4, 3840, Note_on_c, 0, 78, 0
4, 3840, Note_on_c, 0, 82, 0
4, 3840, Note_on_c, 0, 84, 0
4, 3840, Note_on_c, 0, 78, 83
4, 3840, Note_on_c, 0, 82, 83
4, 3840, Note_on_c, 0, 87, 83
4, 4080, Note_on_c, 0, 87, 0
4, 4080, Note_on_c, 0, 82, 0
4, 4080, Note_on_c, 0, 78, 0
4, 4080, Note_on_c, 0, 75, 83
4, 4080, Note_on_c, 0, 82, 83
4, 4080, Note_on_c, 0, 84, 83
4, 4320, Note_on_c, 0, 84, 0
4, 4320, Note_on_c, 0, 82, 0
4, 4320, Note_on_c, 0, 75, 0
4, 4320, Note_on_c, 0, 77, 83
4, 4320, Note_on_c, 0, 81, 83
4, 4320, Note_on_c, 0, 84, 83
4, 4320, Note_on_c, 0, 89, 83
4, 4367, Note_on_c, 0, 89, 0
4, 4367, Note_on_c, 0, 77, 0
4, 4367, Note_on_c, 0, 81, 0
4, 4367, Note_on_c, 0, 84, 0
4, 4560, Note_on_c, 0, 65, 83
4, 4607, Note_on_c, 0, 65, 0
4, 4800, Note_on_c, 0, 63, 83
4, 4847, Note_on_c, 0, 63, 0
4, 5040, Note_on_c, 0, 61, 83
4, 5087, Note_on_c, 0, 61, 0
4, 5280, Note_on_c, 0, 60, 83
4, 5327, Note_on_c, 0, 60, 0
4, 5520, Note_on_c, 0, 65, 83
4, 5567, Note_on_c, 0, 65, 0
4, 5760, Note_on_c, 0, 58, 83
4, 5807, Note_on_c, 0, 58, 0
4, 16080, Note_on_c, 0, 58, 70
4, 16080, Note_on_c, 0, 61, 70
4, 16080, Note_on_c, 0, 65, 70
4, 16320, Note_on_c, 0, 65, 0
4, 16320, Note_on_c, 0, 61, 0
4, 16320, Note_on_c, 0, 58, 0
4, 16320, Note_on_c, 0, 58, 70
4, 16320, Note_on_c, 0, 63, 70
4, 16680, Note_on_c, 0, 63, 0
4, 16680, Note_on_c, 0, 58, 0
4, 16680, Note_on_c, 0, 65, 70
4, 16740, Note_on_c, 0, 65, 0
4, 16740, Note_on_c, 0, 63, 70
4, 16800, Note_on_c, 0, 63, 0
4, 16800, Note_on_c, 0, 57, 70
4, 16800, Note_on_c, 0, 61, 70
4, 16847, Note_on_c, 0, 61, 0
4, 16847, Note_on_c, 0, 57, 0
4, 17040, Note_on_c, 0, 57, 70
4, 17040, Note_on_c, 0, 60, 70
4, 17087, Note_on_c, 0, 60, 0
4, 17087, Note_on_c, 0, 57, 0
4, 17280, Note_on_c, 0, 49, 70
4, 17280, Note_on_c, 0, 53, 70
4, 17280, Note_on_c, 0, 58, 70
4, 17520, Note_on_c, 0, 58, 0
4, 17520, Note_on_c, 0, 53, 0
4, 17520, Note_on_c, 0, 49, 0
4, 18000, Note_on_c, 0, 65, 70
4, 18047, Note_on_c, 0, 65, 0
4, 18240, Note_on_c, 0, 67, 70
4, 18287, Note_on_c, 0, 67, 0
4, 18480, Note_on_c, 0, 69, 70
4, 18527, Note_on_c, 0, 69, 0
4, 18720, Note_on_c, 0, 70, 70
4, 18767, Note_on_c, 0, 70, 0
4, 18960, Note_on_c, 0, 65, 70
4, 19007, Note_on_c, 0, 65, 0
4, 19200, Note_on_c, 0, 77, 70
4, 19247, Note_on_c, 0, 77, 0
4, 19440, Note_on_c, 0, 79, 70
4, 19487, Note_on_c, 0, 79, 0
4, 19680, Note_on_c, 0, 80, 70
4, 19727, Note_on_c, 0, 80, 0
4, 19920, Note_on_c, 0, 81, 70
4, 19967, Note_on_c, 0, 81, 0
4, 20160, Note_on_c, 0, 82, 70
4, 20207, Note_on_c, 0, 82, 0
4, 20400, Note_on_c, 0, 81, 70
4, 20447, Note_on_c, 0, 81, 0
4, 20640, Note_on_c, 0, 80, 70
4, 20687, Note_on_c, 0, 80, 0
4, 20880, Note_on_c, 0, 79, 70
4, 20927, Note_on_c, 0, 79, 0
4, 21120, Note_on_c, 0, 78, 70
4, 21167, Note_on_c, 0, 78, 0
4, 21360, Note_on_c, 0, 77, 70
4, 21407, Note_on_c, 0, 77, 0
4, 21600, Note_on_c, 0, 70, 70
4, 21647, Note_on_c, 0, 70, 0
4, 21840, Note_on_c, 0, 69, 70
4, 21887, Note_on_c, 0, 69, 0
4, 22080, Note_on_c, 0, 68, 70
4, 22127, Note_on_c, 0, 68, 0
4, 22320, Note_on_c, 0, 66, 70
4, 22367, Note_on_c, 0, 66, 0
4, 22560, Note_on_c, 0, 64, 70
4, 22607, Note_on_c, 0, 64, 0
4, 22800, Note_on_c, 0, 65, 70
4, 22847, Note_on_c, 0, 65, 0
4, 23040, Note_on_c, 0, 58, 70
4, 23087, Note_on_c, 0, 58, 0
4, 23760, Note_on_c, 0, 65, 70
4, 23807, Note_on_c, 0, 65, 0
4, 24000, Note_on_c, 0, 67, 70
4, 24047, Note_on_c, 0, 67, 0
4, 24240, Note_on_c, 0, 69, 70
4, 24287, Note_on_c, 0, 69, 0
4, 24480, Note_on_c, 0, 70, 70
4, 24527, Note_on_c, 0, 70, 0
4, 24720, Note_on_c, 0, 65, 70
4, 24767, Note_on_c, 0, 65, 0
4, 24960, Note_on_c, 0, 77, 70
4, 25007, Note_on_c, 0, 77, 0
4, 25200, Note_on_c, 0, 79, 70
4, 25247, Note_on_c, 0, 79, 0
4, 25440, Note_on_c, 0, 80, 70
4, 25487, Note_on_c, 0, 80, 0
4, 25680, Note_on_c, 0, 81, 70
4, 25727, Note_on_c, 0, 81, 0
4, 25920, Note_on_c, 0, 82, 70
4, 25967, Note_on_c, 0, 82, 0
4, 26160, Note_on_c, 0, 81, 70
4, 26207, Note_on_c, 0, 81, 0
4, 26400, Note_on_c, 0, 80, 70
4, 26447, Note_on_c, 0, 80, 0
4, 26640, Note_on_c, 0, 79, 70
4, 26687, Note_on_c, 0, 79, 0
4, 26880, Note_on_c, 0, 78, 70
4, 26927, Note_on_c, 0, 78, 0
4, 27120, Note_on_c, 0, 77, 70
4, 27167, Note_on_c, 0, 77, 0
4, 27360, Note_on_c, 0, 70, 70
4, 27407, Note_on_c, 0, 70, 0
4, 27600, Note_on_c, 0, 58, 70
4, 27600, Note_on_c, 0, 61, 70
4, 27600, Note_on_c, 0, 65, 70
4, 27647, Note_on_c, 0, 65, 0
4, 27647, Note_on_c, 0, 61, 0
4, 27647, Note_on_c, 0, 58, 0
4, 27840, Note_on_c, 0, 58, 83
4, 27840, Note_on_c, 0, 70, 83
4, 28200, Note_on_c, 0, 70, 0
4, 28200, Note_on_c, 0, 58, 0
4, 28200, Note_on_c, 0, 72, 83
4, 28260, Note_on_c, 0, 72, 0
4, 28260, Note_on_c, 0, 70, 83
4, 28320, Note_on_c, 0, 70, 0
4, 28320, Note_on_c, 0, 60, 83
4, 28320, Note_on_c, 0, 65, 83
4, 28320, Note_on_c, 0, 68, 83
4, 28367, Note_on_c, 0, 68, 0
4, 28367, Note_on_c, 0, 65, 0
4, 28367, Note_on_c, 0, 60, 0
4, 28560, Note_on_c, 0, 54, 83
4, 28560, Note_on_c, 0, 56, 83
4, 28560, Note_on_c, 0, 60, 83
4, 28607, Note_on_c, 0, 60, 0
4, 28607, Note_on_c, 0, 56, 0
4, 28607, Note_on_c, 0, 54, 0
4, 28800, Note_on_c, 0, 53, 83
4, 28800, Note_on_c, 0, 56, 83
4, 28800, Note_on_c, 0, 61, 83
4, 28847, Note_on_c, 0, 61, 0
4, 28847, Note_on_c, 0, 56, 0
4, 28847, Note_on_c, 0, 53, 0
4, 30240, Note_on_c, 0, 77, 83
4, 30240, Note_on_c, 0, 80, 83
4, 30287, Note_on_c, 0, 80, 0
4, 30287, Note_on_c, 0, 77, 0
4, 30480, Note_on_c, 0, 89, 83
4, 30480, Note_on_c, 0, 92, 83
4, 30527, Note_on_c, 0, 92, 0
4, 30527, Note_on_c, 0, 89, 0
4, 30720, Note_on_c, 0, 90, 109
4, 30720, Note_on_c, 0, 94, 109
4, 31080, Note_on_c, 0, 94, 0
4, 31080, Note_on_c, 0, 90, 0
4, 31080, Note_on_c, 0, 89, 83
4, 31080, Note_on_c, 0, 92, 83
4, 31140, Note_on_c, 0, 92, 0
4, 31140, Note_on_c, 0, 89, 0
4, 31140, Note_on_c, 0, 94, 83
4, 31200, Note_on_c, 0, 94, 0
4, 31200, Note_on_c, 0, 89, 83
4, 31200, Note_on_c, 0, 92, 83
4, 31247, Note_on_c, 0, 92, 0
4, 31247, Note_on_c, 0, 89, 0
4, 31440, Note_on_c, 0, 87, 83
4, 31440, Note_on_c, 0, 90, 83
4, 31487, Note_on_c, 0, 90, 0
4, 31487, Note_on_c, 0, 87, 0
4, 31680, Note_on_c, 0, 85, 83
4, 31680, Note_on_c, 0, 89, 83
4, 31727, Note_on_c, 0, 89, 0
4, 31727, Note_on_c, 0, 85, 0
4, 31920, Note_on_c, 0, 83, 83
4, 31920, Note_on_c, 0, 86, 83
4, 31967, Note_on_c, 0, 86, 0
4, 31967, Note_on_c, 0, 83, 0
4, 32160, Note_on_c, 0, 84, 83
4, 32160, Note_on_c, 0, 87, 83
4, 32207, Note_on_c, 0, 87, 0
4, 32207, Note_on_c, 0, 84, 0
4, 32400, Note_on_c, 0, 80, 83
4, 32400, Note_on_c, 0, 84, 83
4, 32447, Note_on_c, 0, 84, 0
4, 32447, Note_on_c, 0, 80, 0
4, 32640, Note_on_c, 0, 82, 83
4, 32640, Note_on_c, 0, 85, 83
4, 32687, Note_on_c, 0, 85, 0
4, 32687, Note_on_c, 0, 82, 0
4, 32880, Note_on_c, 0, 84, 83
4, 32880, Note_on_c, 0, 87, 83
4, 32927, Note_on_c, 0, 87, 0
4, 32927, Note_on_c, 0, 84, 0
4, 33120, Note_on_c, 0, 85, 83
4, 33120, Note_on_c, 0, 89, 83
4, 33167, Note_on_c, 0, 89, 0
4, 33167, Note_on_c, 0, 85, 0
4, 33360, Note_on_c, 0, 89, 83
4, 33360, Note_on_c, 0, 92, 83
4, 33407, Note_on_c, 0, 92, 0
4, 33407, Note_on_c, 0, 89, 0
4, 33600, Note_on_c, 0, 90, 109
4, 33600, Note_on_c, 0, 94, 109
4, 33960, Note_on_c, 0, 94, 0
4, 33960, Note_on_c, 0, 90, 0
4, 33960, Note_on_c, 0, 89, 83
4, 33960, Note_on_c, 0, 92, 83
4, 34020, Note_on_c, 0, 92, 0
4, 34020, Note_on_c, 0, 89, 0
4, 34020, Note_on_c, 0, 94, 83
4, 34080, Note_on_c, 0, 94, 0
4, 34080, Note_on_c, 0, 89, 83
4, 34080, Note_on_c, 0, 92, 83
4, 34127, Note_on_c, 0, 92, 0
4, 34127, Note_on_c, 0, 89, 0
4, 34320, Note_on_c, 0, 87, 83
4, 34320, Note_on_c, 0, 90, 83
4, 34367, Note_on_c, 0, 90, 0
4, 34367, Note_on_c, 0, 87, 0
4, 34560, Note_on_c, 0, 85, 83
4, 34560, Note_on_c, 0, 89, 83
4, 34607, Note_on_c, 0, 89, 0
4, 34607, Note_on_c, 0, 85, 0
4, 34800, Note_on_c, 0, 84, 83
4, 34800, Note_on_c, 0, 87, 83
4, 34847, Note_on_c, 0, 87, 0
4, 34847, Note_on_c, 0, 84, 0
4, 35040, Note_on_c, 0, 82, 83
4, 35040, Note_on_c, 0, 85, 83
4, 35087, Note_on_c, 0, 85, 0
4, 35087, Note_on_c, 0, 82, 0
4, 35280, Note_on_c, 0, 84, 83
4, 35280, Note_on_c, 0, 87, 83
4, 35327, Note_on_c, 0, 87, 0
4, 35327, Note_on_c, 0, 84, 0
4, 35520, Note_on_c, 0, 85, 83
4, 35520, Note_on_c, 0, 89, 83
4, 35567, Note_on_c, 0, 89, 0
4, 35567, Note_on_c, 0, 85, 0
4, 35760, Note_on_c, 0, 84, 83
4, 35760, Note_on_c, 0, 87, 83
4, 35807, Note_on_c, 0, 87, 0
4, 35807, Note_on_c, 0, 84, 0
4, 36000, Note_on_c, 0, 82, 83
4, 36000, Note_on_c, 0, 85, 83
4, 36047, Note_on_c, 0, 85, 0
4, 36047, Note_on_c, 0, 82, 0
4, 36240, Note_on_c, 0, 84, 83
4, 36240, Note_on_c, 0, 87, 83
4, 36287, Note_on_c, 0, 87, 0
4, 36287, Note_on_c, 0, 84, 0
4, 36480, Note_on_c, 0, 85, 83
4, 36480, Note_on_c, 0, 89, 83
4, 36527, Note_on_c, 0, 89, 0
4, 36527, Note_on_c, 0, 85, 0
4, 36720, Note_on_c, 0, 85, 83
4, 36720, Note_on_c, 0, 89, 83
4, 36767, Note_on_c, 0, 89, 0
4, 36767, Note_on_c, 0, 85, 0
4, 36960, Note_on_c, 0, 85, 83
4, 36960, Note_on_c, 0, 89, 83
4, 37007, Note_on_c, 0, 89, 0
4, 37007, Note_on_c, 0, 85, 0
4, 37200, Note_on_c, 0, 85, 83
4, 37200, Note_on_c, 0, 89, 83
4, 37247, Note_on_c, 0, 89, 0
4, 37247, Note_on_c, 0, 85, 0
4, 37440, Note_on_c, 0, 61, 83
4, 37440, Note_on_c, 0, 65, 83
4, 37487, Note_on_c, 0, 65, 0
4, 37487, Note_on_c, 0, 61, 0
4, 37680, Note_on_c, 0, 61, 83
4, 37680, Note_on_c, 0, 65, 83
4, 37727, Note_on_c, 0, 65, 0
4, 37727, Note_on_c, 0, 61, 0
4, 37920, Note_on_c, 0, 61, 83
4, 37920, Note_on_c, 0, 65, 83
4, 37967, Note_on_c, 0, 65, 0
4, 37967, Note_on_c, 0, 61, 0
4, 38160, Note_on_c, 0, 61, 83
4, 38160, Note_on_c, 0, 65, 83
4, 38207, Note_on_c, 0, 65, 0
4, 38207, Note_on_c, 0, 61, 0
4, 38400, Note_on_c, 0, 73, 83
4, 38400, Note_on_c, 0, 77, 83
4, 38447, Note_on_c, 0, 77, 0
4, 38447, Note_on_c, 0, 73, 0
4, 38640, Note_on_c, 0, 72, 83
4, 38640, Note_on_c, 0, 73, 83
4, 38640, Note_on_c, 0, 77, 83
4, 38687, Note_on_c, 0, 77, 0
4, 38687, Note_on_c, 0, 73, 0
4, 38687, Note_on_c, 0, 72, 0
4, 38880, Note_on_c, 0, 70, 83
4, 38880, Note_on_c, 0, 73, 83
4, 38880, Note_on_c, 0, 77, 83
4, 38927, Note_on_c, 0, 77, 0
4, 38927, Note_on_c, 0, 73, 0
4, 38927, Note_on_c, 0, 70, 0
4, 39120, Note_on_c, 0, 69, 83
4, 39120, Note_on_c, 0, 73, 83
4, 39120, Note_on_c, 0, 77, 83
4, 39167, Note_on_c, 0, 77, 0
4, 39167, Note_on_c, 0, 73, 0
4, 39167, Note_on_c, 0, 69, 0
4, 39360, Note_on_c, 0, 73, 83
4, 39360, Note_on_c, 0, 85, 83
4, 39360, Note_on_c, 0, 89, 83
4, 39407, Note_on_c, 0, 89, 0
4, 39407, Note_on_c, 0, 85, 0
4, 39407, Note_on_c, 0, 73, 0
4, 39600, Note_on_c, 0, 72, 83
4, 39600, Note_on_c, 0, 84, 83
4, 39600, Note_on_c, 0, 85, 83
4, 39600, Note_on_c, 0, 89, 83
4, 39647, Note_on_c, 0, 89, 0
4, 39647, Note_on_c, 0, 72, 0
4, 39647, Note_on_c, 0, 84, 0
4, 39647, Note_on_c, 0, 85, 0
4, 39840, Note_on_c, 0, 70, 83
4, 39840, Note_on_c, 0, 82, 83
4, 39840, Note_on_c, 0, 85, 83
4, 39840, Note_on_c, 0, 89, 83
4, 39887, Note_on_c, 0, 89, 0
4, 39887, Note_on_c, 0, 70, 0
4, 39887, Note_on_c, 0, 82, 0
4, 39887, Note_on_c, 0, 85, 0
4, 40080, Note_on_c, 0, 69, 83
4, 40080, Note_on_c, 0, 81, 83
4, 40080, Note_on_c, 0, 85, 83
4, 40080, Note_on_c, 0, 89, 83
4, 40127, Note_on_c, 0, 89, 0
4, 40127, Note_on_c, 0, 69, 0
4, 40127, Note_on_c, 0, 81, 0
4, 40127, Note_on_c, 0, 85, 0
4, 40320, Note_on_c, 0, 61, 70
4, 40320, Note_on_c, 0, 65, 70
4, 40560, Note_on_c, 0, 65, 0
4, 40560, Note_on_c, 0, 61, 0
4, 41040, Note_on_c, 0, 63, 70
4, 41040, Note_on_c, 0, 66, 70
4, 41280, Note_on_c, 0, 66, 0
4, 41280, Note_on_c, 0, 63, 0
4, 41760, Note_on_c, 0, 61, 70
4, 41760, Note_on_c, 0, 65, 70
4, 42000, Note_on_c, 0, 65, 0
4, 42000, Note_on_c, 0, 61, 0
4, 42480, Note_on_c, 0, 60, 70
4, 42480, Note_on_c, 0, 63, 70
4, 42720, Note_on_c, 0, 63, 0
4, 42720, Note_on_c, 0, 60, 0
4, 43200, Note_on_c, 0, 61, 70
4, 43200, Note_on_c, 0, 65, 70
4, 43440, Note_on_c, 0, 65, 0
4, 43440, Note_on_c, 0, 61, 0
4, 43920, Note_on_c, 0, 60, 70
4, 43920, Note_on_c, 0, 63, 70
4, 44160, Note_on_c, 0, 63, 0
4, 44160, Note_on_c, 0, 60, 0
4, 44640, Note_on_c, 0, 61, 70
4, 44640, Note_on_c, 0, 65, 70
4, 44880, Note_on_c, 0, 65, 0
4, 44880, Note_on_c, 0, 61, 0
4, 45360, Note_on_c, 0, 60, 70
4, 45360, Note_on_c, 0, 63, 70
4, 45600, Note_on_c, 0, 63, 0
4, 45600, Note_on_c, 0, 60, 0
4, 46080, Note_on_c, 0, 61, 70
4, 46080, Note_on_c, 0, 65, 70
4, 46320, Note_on_c, 0, 65, 0
4, 46320, Note_on_c, 0, 61, 0
4, 46800, Note_on_c, 0, 63, 70
4, 46800, Note_on_c, 0, 66, 70
4, 47040, Note_on_c, 0, 66, 0
4, 47040, Note_on_c, 0, 63, 0
4, 47520, Note_on_c, 0, 61, 70
4, 47520, Note_on_c, 0, 65, 70
4, 47760, Note_on_c, 0, 65, 0
4, 47760, Note_on_c, 0, 61, 0
4, 48240, Note_on_c, 0, 60, 70
4, 48240, Note_on_c, 0, 63, 70
4, 48480, Note_on_c, 0, 63, 0
4, 48480, Note_on_c, 0, 60, 0
4, 48960, Note_on_c, 0, 61, 70
4, 48960, Note_on_c, 0, 65, 70
4, 49200, Note_on_c, 0, 65, 0
4, 49200, Note_on_c, 0, 61, 0
4, 49680, Note_on_c, 0, 60, 70
4, 49680, Note_on_c, 0, 63, 70
4, 49920, Note_on_c, 0, 63, 0
4, 49920, Note_on_c, 0, 60, 0
4, 50400, Note_on_c, 0, 61, 70
4, 50400, Note_on_c, 0, 65, 70
4, 50640, Note_on_c, 0, 65, 0
4, 50640, Note_on_c, 0, 61, 0
4, 50880, Note_on_c, 0, 61, 57
4, 50927, Note_on_c, 0, 61, 0
4, 51120, Note_on_c, 0, 63, 57
4, 51167, Note_on_c, 0, 63, 0
4, 51360, Note_on_c, 0, 64, 70
4, 51407, Note_on_c, 0, 64, 0
4, 51600, Note_on_c, 0, 65, 70
4, 51647, Note_on_c, 0, 65, 0
4, 51840, Note_on_c, 0, 70, 83
4, 51840, Note_on_c, 0, 73, 83
4, 51840, Note_on_c, 0, 78, 83
4, 51840, Note_on_c, 0, 82, 83
4, 51887, Note_on_c, 0, 82, 0
4, 51887, Note_on_c, 0, 70, 0
4, 51887, Note_on_c, 0, 73, 0
4, 51887, Note_on_c, 0, 78, 0
4, 52080, Note_on_c, 0, 68, 83
4, 52080, Note_on_c, 0, 73, 83
4, 52080, Note_on_c, 0, 77, 83
4, 52080, Note_on_c, 0, 80, 83
4, 52127, Note_on_c, 0, 80, 0
4, 52127, Note_on_c, 0, 68, 0
4, 52127, Note_on_c, 0, 73, 0
4, 52127, Note_on_c, 0, 77, 0
4, 52320, Note_on_c, 0, 66, 109
4, 52320, Note_on_c, 0, 70, 109
4, 52320, Note_on_c, 0, 73, 109
4, 52320, Note_on_c, 0, 78, 109
4, 52680, Note_on_c, 0, 78, 0
4, 52680, Note_on_c, 0, 66, 0
4, 52680, Note_on_c, 0, 70, 0
4, 52680, Note_on_c, 0, 73, 0
4, 52680, Note_on_c, 0, 73, 83
4, 52680, Note_on_c, 0, 77, 83
4, 52680, Note_on_c, 0, 80, 83
4, 52740, Note_on_c, 0, 80, 0
4, 52740, Note_on_c, 0, 77, 0
4, 52740, Note_on_c, 0, 73, 0
4, 52740, Note_on_c, 0, 68, 83
4, 52800, Note_on_c, 0, 68, 0
4, 52800, Note_on_c, 0, 73, 83
4, 52800, Note_on_c, 0, 77, 83
4, 52800, Note_on_c, 0, 80, 83
4, 52847, Note_on_c, 0, 80, 0
4, 52847, Note_on_c, 0, 77, 0
4, 52847, Note_on_c, 0, 73, 0
4, 53040, Note_on_c, 0, 70, 83
4, 53040, Note_on_c, 0, 78, 83
4, 53040, Note_on_c, 0, 82, 83
4, 53087, Note_on_c, 0, 82, 0
4, 53087, Note_on_c, 0, 78, 0
4, 53087, Note_on_c, 0, 70, 0
4, 53280, Note_on_c, 0, 73, 83
4, 53280, Note_on_c, 0, 82, 83
4, 53280, Note_on_c, 0, 85, 83
4, 53327, Note_on_c, 0, 85, 0
4, 53327, Note_on_c, 0, 82, 0
4, 53327, Note_on_c, 0, 73, 0
4, 53520, Note_on_c, 0, 75, 83
4, 53520, Note_on_c, 0, 83, 83
4, 53520, Note_on_c, 0, 87, 83
4, 53567, Note_on_c, 0, 87, 0
4, 53567, Note_on_c, 0, 83, 0
4, 53567, Note_on_c, 0, 75, 0
4, 53760, Note_on_c, 0, 73, 109
4, 53760, Note_on_c, 0, 82, 109
4, 53760, Note_on_c, 0, 85, 109
4, 54120, Note_on_c, 0, 85, 0
4, 54120, Note_on_c, 0, 82, 0
4, 54120, Note_on_c, 0, 73, 0
4, 54120, Note_on_c, 0, 80, 83
4, 54120, Note_on_c, 0, 83, 83
4, 54180, Note_on_c, 0, 83, 0
4, 54180, Note_on_c, 0, 80, 0
4, 54180, Note_on_c, 0, 71, 83
4, 54240, Note_on_c, 0, 71, 0
4, 54240, Note_on_c, 0, 80, 83
4, 54240, Note_on_c, 0, 83, 83
4, 54287, Note_on_c, 0, 83, 0
4, 54287, Note_on_c, 0, 80, 0
4, 54480, Note_on_c, 0, 70, 83
4, 54480, Note_on_c, 0, 78, 83
4, 54480, Note_on_c, 0, 82, 83
4, 54527, Note_on_c, 0, 82, 0
4, 54527, Note_on_c, 0, 78, 0
4, 54527, Note_on_c, 0, 70, 0
4, 54720, Note_on_c, 0, 73, 83
4, 54720, Note_on_c, 0, 82, 83
4, 54720, Note_on_c, 0, 85, 83
4, 54767, Note_on_c, 0, 85, 0
4, 54767, Note_on_c, 0, 82, 0
4, 54767, Note_on_c, 0, 73, 0
4, 54960, Note_on_c, 0, 75, 83
4, 54960, Note_on_c, 0, 83, 83
4, 54960, Note_on_c, 0, 87, 83
4, 55007, Note_on_c, 0, 87, 0
4, 55007, Note_on_c, 0, 83, 0
4, 55007, Note_on_c, 0, 75, 0
4, 55200, Note_on_c, 0, 73, 109
4, 55200, Note_on_c, 0, 82, 109
4, 55200, Note_on_c, 0, 85, 109
4, 55560, Note_on_c, 0, 85, 0
4, 55560, Note_on_c, 0, 82, 0
4, 55560, Note_on_c, 0, 73, 0
4, 55560, Note_on_c, 0, 80, 83
4, 55560, Note_on_c, 0, 83, 83
4, 55620, Note_on_c, 0, 83, 0
4, 55620, Note_on_c, 0, 80, 0
4, 55620, Note_on_c, 0, 71, 83
4, 55680, Note_on_c, 0, 71, 0
4, 55680, Note_on_c, 0, 80, 83
4, 55680, Note_on_c, 0, 83, 83
4, 55727, Note_on_c, 0, 83, 0
4, 55727, Note_on_c, 0, 80, 0
4, 55920, Note_on_c, 0, 70, 83
4, 55920, Note_on_c, 0, 78, 83
4, 55920, Note_on_c, 0, 82, 83
4, 55967, Note_on_c, 0, 82, 0
4, 55967, Note_on_c, 0, 78, 0
4, 55967, Note_on_c, 0, 70, 0
4, 56160, Note_on_c, 0, 73, 83
4, 56160, Note_on_c, 0, 82, 83
4, 56160, Note_on_c, 0, 85, 83
4, 56207, Note_on_c, 0, 85, 0
4, 56207, Note_on_c, 0, 82, 0
4, 56207, Note_on_c, 0, 73, 0
4, 56400, Note_on_c, 0, 78, 83
4, 56400, Note_on_c, 0, 87, 83
4, 56400, Note_on_c, 0, 90, 83
4, 56447, Note_on_c, 0, 90, 0
4, 56447, Note_on_c, 0, 87, 0
4, 56447, Note_on_c, 0, 78, 0
4, 56640, Note_on_c, 0, 73, 109
4, 56640, Note_on_c, 0, 82, 109
4, 56640, Note_on_c, 0, 85, 109
4, 57000, Note_on_c, 0, 85, 0
4, 57000, Note_on_c, 0, 82, 0
4, 57000, Note_on_c, 0, 73, 0
4, 57000, Note_on_c, 0, 80, 83
4, 57000, Note_on_c, 0, 83, 83
4, 57060, Note_on_c, 0, 83, 0
4, 57060, Note_on_c, 0, 80, 0
4, 57060, Note_on_c, 0, 71, 83
4, 57120, Note_on_c, 0, 71, 0
4, 57120, Note_on_c, 0, 80, 83
4, 57120, Note_on_c, 0, 83, 83
4, 57167, Note_on_c, 0, 83, 0
4, 57167, Note_on_c, 0, 80, 0
4, 57360, Note_on_c, 0, 70, 83
4, 57360, Note_on_c, 0, 78, 83
4, 57360, Note_on_c, 0, 82, 83
4, 57407, Note_on_c, 0, 82, 0
4, 57407, Note_on_c, 0, 78, 0
4, 57407, Note_on_c, 0, 70, 0
4, 57600, Note_on_c, 0, 70, 83
4, 57600, Note_on_c, 0, 73, 83
4, 57600, Note_on_c, 0, 78, 83
4, 57600, Note_on_c, 0, 82, 83
4, 57647, Note_on_c, 0, 82, 0
4, 57647, Note_on_c, 0, 70, 0
4, 57647, Note_on_c, 0, 73, 0
4, 57647, Note_on_c, 0, 78, 0
4, 57840, Note_on_c, 0, 68, 83
4, 57840, Note_on_c, 0, 73, 83
4, 57840, Note_on_c, 0, 77, 83
4, 57840, Note_on_c, 0, 80, 83
4, 57887, Note_on_c, 0, 80, 0
4, 57887, Note_on_c, 0, 68, 0
4, 57887, Note_on_c, 0, 73, 0
4, 57887, Note_on_c, 0, 77, 0
4, 58080, Note_on_c, 0, 66, 109
4, 58080, Note_on_c, 0, 70, 109
4, 58080, Note_on_c, 0, 73, 109
4, 58080, Note_on_c, 0, 78, 109
4, 58440, Note_on_c, 0, 78, 0
4, 58440, Note_on_c, 0, 66, 0
4, 58440, Note_on_c, 0, 70, 0
4, 58440, Note_on_c, 0, 73, 0
4, 58440, Note_on_c, 0, 73, 83
4, 58440, Note_on_c, 0, 77, 83
4, 58440, Note_on_c, 0, 80, 83
4, 58500, Note_on_c, 0, 80, 0
4, 58500, Note_on_c, 0, 77, 0
4, 58500, Note_on_c, 0, 73, 0
4, 58500, Note_on_c, 0, 68, 83
4, 58560, Note_on_c, 0, 68, 0
4, 58560, Note_on_c, 0, 73, 83
4, 58560, Note_on_c, 0, 77, 83
4, 58560, Note_on_c, 0, 80, 83
4, 58607, Note_on_c, 0, 80, 0
4, 58607, Note_on_c, 0, 77, 0
4, 58607, Note_on_c, 0, 73, 0
4, 58800, Note_on_c, 0, 70, 83
4, 58800, Note_on_c, 0, 78, 83
4, 58800, Note_on_c, 0, 82, 83
4, 58847, Note_on_c, 0, 82, 0
4, 58847, Note_on_c, 0, 78, 0
4, 58847, Note_on_c, 0, 70, 0
4, 59040, Note_on_c, 0, 73, 83
4, 59040, Note_on_c, 0, 82, 83
4, 59040, Note_on_c, 0, 85, 83
4, 59087, Note_on_c, 0, 85, 0
4, 59087, Note_on_c, 0, 82, 0
4, 59087, Note_on_c, 0, 73, 0
4, 59280, Note_on_c, 0, 75, 83
4, 59280, Note_on_c, 0, 83, 83
4, 59280, Note_on_c, 0, 87, 83
4, 59327, Note_on_c, 0, 87, 0
4, 59327, Note_on_c, 0, 83, 0
4, 59327, Note_on_c, 0, 75, 0
4, 59520, Note_on_c, 0, 73, 109
4, 59520, Note_on_c, 0, 82, 109
4, 59520, Note_on_c, 0, 85, 109
4, 59880, Note_on_c, 0, 85, 0
4, 59880, Note_on_c, 0, 82, 0
4, 59880, Note_on_c, 0, 73, 0
4, 59880, Note_on_c, 0, 80, 83
4, 59880, Note_on_c, 0, 83, 83
4, 59940, Note_on_c, 0, 83, 0
4, 59940, Note_on_c, 0, 80, 0
4, 59940, Note_on_c, 0, 71, 83
4, 60000, Note_on_c, 0, 71, 0
4, 60000, Note_on_c, 0, 80, 83
4, 60000, Note_on_c, 0, 83, 83
4, 60047, Note_on_c, 0, 83, 0
4, 60047, Note_on_c, 0, 80, 0
4, 60240, Note_on_c, 0, 70, 83
4, 60240, Note_on_c, 0, 78, 83
4, 60240, Note_on_c, 0, 82, 83
4, 60287, Note_on_c, 0, 82, 0
4, 60287, Note_on_c, 0, 78, 0
4, 60287, Note_on_c, 0, 70, 0
4, 60480, Note_on_c, 0, 73, 83
4, 60480, Note_on_c, 0, 82, 83
4, 60480, Note_on_c, 0, 85, 83
4, 60527, Note_on_c, 0, 85, 0
4, 60527, Note_on_c, 0, 82, 0
4, 60527, Note_on_c, 0, 73, 0
4, 60720, Note_on_c, 0, 75, 83
4, 60720, Note_on_c, 0, 83, 83
4, 60720, Note_on_c, 0, 87, 83
4, 60767, Note_on_c, 0, 87, 0
4, 60767, Note_on_c, 0, 83, 0
4, 60767, Note_on_c, 0, 75, 0
4, 60960, Note_on_c, 0, 73, 109
4, 60960, Note_on_c, 0, 82, 109
4, 60960, Note_on_c, 0, 85, 109
4, 61320, Note_on_c, 0, 85, 0
4, 61320, Note_on_c, 0, 82, 0
4, 61320, Note_on_c, 0, 73, 0
4, 61320, Note_on_c, 0, 80, 83
4, 61320, Note_on_c, 0, 83, 83
4, 61380, Note_on_c, 0, 83, 0
4, 61380, Note_on_c, 0, 80, 0
4, 61380, Note_on_c, 0, 71, 83
4, 61440, Note_on_c, 0, 71, 0
4, 61440, Note_on_c, 0, 80, 83
4, 61440, Note_on_c, 0, 83, 83
4, 61487, Note_on_c, 0, 83, 0
4, 61487, Note_on_c, 0, 80, 0
4, 61680, Note_on_c, 0, 70, 83
4, 61680, Note_on_c, 0, 78, 83
4, 61680, Note_on_c, 0, 82, 83
4, 61727, Note_on_c, 0, 82, 0
4, 61727, Note_on_c, 0, 78, 0
4, 61727, Note_on_c, 0, 70, 0
4, 61920, Note_on_c, 0, 73, 83
4, 61920, Note_on_c, 0, 82, 83
4, 61920, Note_on_c, 0, 85, 83
4, 61967, Note_on_c, 0, 85, 0
4, 61967, Note_on_c, 0, 82, 0
4, 61967, Note_on_c, 0, 73, 0
4, 62160, Note_on_c, 0, 75, 83
4, 62160, Note_on_c, 0, 82, 83
4, 62160, Note_on_c, 0, 85, 83
4, 62160, Note_on_c, 0, 87, 83
4, 62207, Note_on_c, 0, 87, 0
4, 62207, Note_on_c, 0, 75, 0
4, 62207, Note_on_c, 0, 82, 0
4, 62207, Note_on_c, 0, 85, 0
4, 62400, Note_on_c, 0, 73, 83
4, 62400, Note_on_c, 0, 82, 83
4, 62400, Note_on_c, 0, 85, 83
4, 62447, Note_on_c, 0, 85, 0
4, 62447, Note_on_c, 0, 82, 0
4, 62447, Note_on_c, 0, 73, 0
4, 62640, Note_on_c, 0, 75, 83
4, 62640, Note_on_c, 0, 82, 83
4, 62640, Note_on_c, 0, 85, 83
4, 62640, Note_on_c, 0, 87, 83
4, 62687, Note_on_c, 0, 87, 0
4, 62687, Note_on_c, 0, 75, 0
4, 62687, Note_on_c, 0, 82, 0
4, 62687, Note_on_c, 0, 85, 0
4, 62880, Note_on_c, 0, 76, 83
4, 62880, Note_on_c, 0, 82, 83
4, 62880, Note_on_c, 0, 84, 83
4, 62880, Note_on_c, 0, 88, 83
4, 62927, Note_on_c, 0, 88, 0
4, 62927, Note_on_c, 0, 76, 0
4, 62927, Note_on_c, 0, 82, 0
4, 62927, Note_on_c, 0, 84, 0
4, 63120, Note_on_c, 0, 77, 83
4, 63120, Note_on_c, 0, 81, 83
4, 63120, Note_on_c, 0, 84, 83
4, 63120, Note_on_c, 0, 89, 83
4, 63167, Note_on_c, 0, 89, 0
4, 63167, Note_on_c, 0, 77, 0
4, 63167, Note_on_c, 0, 81, 0
4, 63167, Note_on_c, 0, 84, 0
4, 63480, Note_on_c, 0, 66, 70
4, 63600, Note_on_c, 0, 66, 0
4, 63600, Note_on_c, 0, 67, 70
4, 63720, Note_on_c, 0, 67, 0
4, 63720, Note_on_c, 0, 69, 70
4, 63840, Note_on_c, 0, 69, 0
4, 63840, Note_on_c, 0, 70, 70
4, 64080, Note_on_c, 0, 70, 0
4, 64920, Note_on_c, 0, 77, 70
4, 65040, Note_on_c, 0, 77, 0
4, 65040, Note_on_c, 0, 79, 70
4, 65160, Note_on_c, 0, 79, 0
4, 65160, Note_on_c, 0, 80, 70
4, 65280, Note_on_c, 0, 80, 0
4, 65280, Note_on_c, 0, 81, 70
4, 65520, Note_on_c, 0, 81, 0
4, 66360, Note_on_c, 0, 66, 70
4, 66480, Note_on_c, 0, 66, 0
4, 66480, Note_on_c, 0, 67, 70
4, 66600, Note_on_c, 0, 67, 0
4, 66600, Note_on_c, 0, 69, 70
4, 66720, Note_on_c, 0, 69, 0
4, 66720, Note_on_c, 0, 70, 70
4, 66960, Note_on_c, 0, 70, 0
4, 67800, Note_on_c, 0, 77, 70
4, 67920, Note_on_c, 0, 77, 0
4, 67920, Note_on_c, 0, 79, 70
4, 68040, Note_on_c, 0, 79, 0
4, 68040, Note_on_c, 0, 80, 70
4, 68160, Note_on_c, 0, 80, 0
4, 68160, Note_on_c, 0, 81, 70
4, 68400, Note_on_c, 0, 81, 0
4, 80160, Note_on_c, 0, 68, 57
4, 80160, Note_on_c, 0, 80, 57
4, 81120, Note_on_c, 0, 80, 0
4, 81120, Note_on_c, 0, 68, 0
4, 81120, Note_on_c, 0, 70, 57
4, 81120, Note_on_c, 0, 82, 57
4, 81600, Note_on_c, 0, 82, 0
4, 81600, Note_on_c, 0, 70, 0
4, 81600, Note_on_c, 0, 68, 57
4, 81600, Note_on_c, 0, 80, 57
4, 82080, Note_on_c, 0, 80, 0
4, 82080, Note_on_c, 0, 68, 0
4, 82080, Note_on_c, 0, 68, 57
4, 82080, Note_on_c, 0, 80, 57
4, 83040, Note_on_c, 0, 80, 0
4, 83040, Note_on_c, 0, 68, 0
4, 83040, Note_on_c, 0, 65, 57
4, 83040, Note_on_c, 0, 77, 57
4, 83280, Note_on_c, 0, 77, 0
4, 83280, Note_on_c, 0, 65, 0
4, 83280, Note_on_c, 0, 66, 57
4, 83280, Note_on_c, 0, 78, 57
4, 83520, Note_on_c, 0, 78, 0
4, 83520, Note_on_c, 0, 66, 0
4, 83520, Note_on_c, 0, 65, 57
4, 83520, Note_on_c, 0, 77, 57
4, 83760, Note_on_c, 0, 77, 0
4, 83760, Note_on_c, 0, 65, 0
4, 83760, Note_on_c, 0, 68, 57
4, 83760, Note_on_c, 0, 80, 57
4, 84000, Note_on_c, 0, 80, 0
4, 84000, Note_on_c, 0, 68, 0
4, 84000, Note_on_c, 0, 63, 57
4, 84000, Note_on_c, 0, 75, 57
4, 84480, Note_on_c, 0, 75, 0
4, 84480, Note_on_c, 0, 63, 0
4, 84480, Note_on_c, 0, 63, 57
4, 84480, Note_on_c, 0, 75, 57
4, 84720, Note_on_c, 0, 75, 0
4, 84720, Note_on_c, 0, 63, 0
4, 84720, Note_on_c, 0, 65, 57
4, 84720, Note_on_c, 0, 77, 57
4, 84960, Note_on_c, 0, 77, 0
4, 84960, Note_on_c, 0, 65, 0
4, 84960, Note_on_c, 0, 61, 57
4, 84960, Note_on_c, 0, 73, 57
4, 85440, Note_on_c, 0, 73, 0
4, 85440, Note_on_c, 0, 61, 0
4, 85440, Note_on_c, 0, 70, 57
4, 85680, Note_on_c, 0, 70, 0
4, 85680, Note_on_c, 0, 73, 57
4, 85920, Note_on_c, 0, 73, 0
4, 85920, Note_on_c, 0, 68, 57
4, 86400, Note_on_c, 0, 68, 0
4, 86400, Note_on_c, 0, 68, 57
4, 86400, Note_on_c, 0, 80, 57
4, 86880, Note_on_c, 0, 80, 0
4, 86880, Note_on_c, 0, 68, 0
4, 86880, Note_on_c, 0, 70, 57
4, 86880, Note_on_c, 0, 82, 57
4, 87360, Note_on_c, 0, 82, 0
4, 87360, Note_on_c, 0, 70, 0
4, 87360, Note_on_c, 0, 68, 57
4, 87360, Note_on_c, 0, 80, 57
4, 87840, Note_on_c, 0, 80, 0
4, 87840, Note_on_c, 0, 68, 0
4, 87840, Note_on_c, 0, 68, 57
4, 87840, Note_on_c, 0, 80, 57
4, 88800, Note_on_c, 0, 80, 0
4, 88800, Note_on_c, 0, 68, 0
4, 88800, Note_on_c, 0, 65, 70
4, 88800, Note_on_c, 0, 77, 70
4, 89040, Note_on_c, 0, 77, 0
4, 89040, Note_on_c, 0, 65, 0
4, 89040, Note_on_c, 0, 67, 70
4, 89040, Note_on_c, 0, 79, 70
4, 89280, Note_on_c, 0, 79, 0
4, 89280, Note_on_c, 0, 67, 0
4, 89280, Note_on_c, 0, 68, 70
4, 89280, Note_on_c, 0, 80, 70
4, 89520, Note_on_c, 0, 80, 0
4, 89520, Note_on_c, 0, 68, 0
4, 89520, Note_on_c, 0, 70, 70
4, 89520, Note_on_c, 0, 82, 70
4, 89760, Note_on_c, 0, 82, 0
4, 89760, Note_on_c, 0, 70, 0
4, 89760, Note_on_c, 0, 72, 83
4, 89760, Note_on_c, 0, 84, 83
4, 90240, Note_on_c, 0, 84, 0
4, 90240, Note_on_c, 0, 72, 0
4, 90240, Note_on_c, 0, 67, 83
4, 90240, Note_on_c, 0, 79, 83
4, 90480, Note_on_c, 0, 79, 0
4, 90480, Note_on_c, 0, 67, 0
4, 90480, Note_on_c, 0, 73, 83
4, 90480, Note_on_c, 0, 85, 83
4, 90720, Note_on_c, 0, 85, 0
4, 90720, Note_on_c, 0, 73, 0
4, 90720, Note_on_c, 0, 72, 83
4, 90720, Note_on_c, 0, 84, 83
4, 91200, Note_on_c, 0, 84, 0
4, 91200, Note_on_c, 0, 72, 0
4, 91200, Note_on_c, 0, 68, 83
4, 91200, Note_on_c, 0, 80, 83
4, 91440, Note_on_c, 0, 80, 0
4, 91440, Note_on_c, 0, 68, 0
4, 91440, Note_on_c, 0, 73, 83
4, 91440, Note_on_c, 0, 85, 83
4, 91680, Note_on_c, 0, 85, 0
4, 91680, Note_on_c, 0, 73, 0
4, 91680, Note_on_c, 0, 72, 83
4, 91680, Note_on_c, 0, 84, 83
4, 92400, Note_on_c, 0, 84, 0
4, 92400, Note_on_c, 0, 72, 0
4, 92400, Note_on_c, 0, 70, 70
4, 92400, Note_on_c, 0, 82, 70
4, 92880, Note_on_c, 0, 82, 0
4, 92880, Note_on_c, 0, 70, 0
4, 92880, Note_on_c, 0, 69, 70
4, 92880, Note_on_c, 0, 81, 70
4, 93360, Note_on_c, 0, 81, 0
4, 93360, Note_on_c, 0, 69, 0
4, 93360, Note_on_c, 0, 68, 57
4, 93360, Note_on_c, 0, 80, 57
4, 93600, Note_on_c, 0, 80, 0
4, 93600, Note_on_c, 0, 68, 0
4, 93600, Note_on_c, 0, 56, 44
4, 93600, Note_on_c, 0, 60, 44
4, 93600, Note_on_c, 0, 63, 44
4, 93600, Note_on_c, 0, 66, 44
4, 95040, Note_on_c, 0, 66, 0
4, 95040, Note_on_c, 0, 56, 0
4, 95040, Note_on_c, 0, 60, 0
4, 95040, Note_on_c, 0, 63, 0
4, 95040, Note_on_c, 0, 56, 44
4, 95040, Note_on_c, 0, 61, 44
4, 95040, Note_on_c, 0, 65, 44
4, 96480, Note_on_c, 0, 65, 0
4, 96480, Note_on_c, 0, 61, 0
4, 96480, Note_on_c, 0, 56, 0
4, 96480, Note_on_c, 0, 54, 44
4, 96480, Note_on_c, 0, 60, 44
4, 96480, Note_on_c, 0, 63, 44
4, 97920, Note_on_c, 0, 63, 0
4, 97920, Note_on_c, 0, 60, 0
4, 97920, Note_on_c, 0, 54, 0
4, 97920, Note_on_c, 0, 53, 44
4, 97920, Note_on_c, 0, 56, 44
4, 97920, Note_on_c, 0, 61, 44
4, 99360, Note_on_c, 0, 61, 0
4, 99360, Note_on_c, 0, 56, 0
4, 99360, Note_on_c, 0, 53, 0
4, 99360, Note_on_c, 0, 56, 44
4, 99360, Note_on_c, 0, 60, 44
4, 99360, Note_on_c, 0, 63, 44
4, 99360, Note_on_c, 0, 66, 44
4, 100800, Note_on_c, 0, 66, 0
4, 100800, Note_on_c, 0, 56, 0
4, 100800, Note_on_c, 0, 60, 0
4, 100800, Note_on_c, 0, 63, 0
4, 100800, Note_on_c, 0, 56, 44
4, 100800, Note_on_c, 0, 61, 44
4, 100800, Note_on_c, 0, 65, 44
4, 102240, Note_on_c, 0, 65, 0
4, 102240, Note_on_c, 0, 61, 0
4, 102240, Note_on_c, 0, 56, 0
4, 102240, Note_on_c, 0, 56, 44
4, 102240, Note_on_c, 0, 60, 44
4, 102240, Note_on_c, 0, 65, 44
4, 103200, Note_on_c, 0, 65, 0
4, 103200, Note_on_c, 0, 60, 0
4, 103200, Note_on_c, 0, 56, 0
4, 103200, Note_on_c, 0, 55, 44
4, 103200, Note_on_c, 0, 58, 44
4, 103200, Note_on_c, 0, 64, 44
4, 103680, Note_on_c, 0, 64, 0
4, 103680, Note_on_c, 0, 58, 0
4, 103680, Note_on_c, 0, 55, 0
4, 103680, Note_on_c, 0, 56, 44
4, 103680, Note_on_c, 0, 60, 44
4, 103680, Note_on_c, 0, 65, 44
4, 104160, Note_on_c, 0, 65, 0
4, 104160, Note_on_c, 0, 60, 0
4, 104160, Note_on_c, 0, 56, 0
4, 104160, Note_on_c, 0, 56, 57
4, 104160, Note_on_c, 0, 60, 57
4, 104640, Note_on_c, 0, 60, 0
4, 104640, Note_on_c, 0, 56, 0
4, 104640, Note_on_c, 0, 56, 57
4, 104640, Note_on_c, 0, 62, 57
4, 105120, Note_on_c, 0, 62, 0
4, 105120, Note_on_c, 0, 56, 0
4, 105120, Note_on_c, 0, 56, 57
4, 105120, Note_on_c, 0, 60, 57
4, 105120, Note_on_c, 0, 63, 57
4, 105600, Note_on_c, 0, 63, 0
4, 105600, Note_on_c, 0, 60, 0
4, 105600, Note_on_c, 0, 56, 0
4, 105600, Note_on_c, 0, 60, 57
4, 105600, Note_on_c, 0, 63, 57
4, 105600, Note_on_c, 0, 68, 57
4, 106080, Note_on_c, 0, 68, 0
4, 106080, Note_on_c, 0, 63, 0
4, 106080, Note_on_c, 0, 60, 0
4, 106080, Note_on_c, 0, 61, 57
4, 106080, Note_on_c, 0, 67, 57
4, 106080, Note_on_c, 0, 70, 57
4, 106560, Note_on_c, 0, 70, 0
4, 106560, Note_on_c, 0, 67, 0
4, 106560, Note_on_c, 0, 61, 0
4, 106560, Note_on_c, 0, 60, 57
4, 106560, Note_on_c, 0, 63, 57
4, 106560, Note_on_c, 0, 68, 57
4, 107040, Note_on_c, 0, 68, 0
4, 107040, Note_on_c, 0, 63, 0
4, 107040, Note_on_c, 0, 60, 0
4, 107040, Note_on_c, 0, 60, 57
4, 107040, Note_on_c, 0, 63, 57
4, 107040, Note_on_c, 0, 72, 57
4, 107520, Note_on_c, 0, 72, 0
4, 107520, Note_on_c, 0, 63, 0
4, 107520, Note_on_c, 0, 60, 0
4, 107520, Note_on_c, 0, 60, 57
4, 107520, Note_on_c, 0, 63, 57
4, 107520, Note_on_c, 0, 66, 57
4, 108000, Note_on_c, 0, 66, 0
4, 108000, Note_on_c, 0, 63, 0
4, 108000, Note_on_c, 0, 60, 0
4, 108000, Note_on_c, 0, 60, 70
4, 108000, Note_on_c, 0, 63, 70
4, 108000, Note_on_c, 0, 67, 70
4, 108480, Note_on_c, 0, 67, 0
4, 108480, Note_on_c, 0, 63, 0
4, 108480, Note_on_c, 0, 60, 0
4, 108480, Note_on_c, 0, 63, 70
4, 108480, Note_on_c, 0, 67, 70
4, 108480, Note_on_c, 0, 72, 70
4, 108960, Note_on_c, 0, 72, 0
4, 108960, Note_on_c, 0, 67, 0
4, 108960, Note_on_c, 0, 63, 0
4, 108960, Note_on_c, 0, 65, 70
4, 108960, Note_on_c, 0, 71, 70
4, 108960, Note_on_c, 0, 74, 70
4, 109440, Note_on_c, 0, 74, 0
4, 109440, Note_on_c, 0, 71, 0
4, 109440, Note_on_c, 0, 65, 0
4, 109440, Note_on_c, 0, 60, 70
4, 109440, Note_on_c, 0, 63, 70
4, 109440, Note_on_c, 0, 67, 70
4, 109440, Note_on_c, 0, 72, 70
4, 109680, Note_on_c, 0, 72, 0
4, 109680, Note_on_c, 0, 60, 0
4, 109680, Note_on_c, 0, 63, 0
4, 109680, Note_on_c, 0, 67, 0
4, 109680, Note_on_c, 0, 60, 70
4, 109680, Note_on_c, 0, 63, 70
4, 110160, Note_on_c, 0, 63, 0
4, 110160, Note_on_c, 0, 60, 0
4, 110160, Note_on_c, 0, 60, 70
4, 110160, Note_on_c, 0, 63, 70
4, 110640, Note_on_c, 0, 63, 0
4, 110640, Note_on_c, 0, 60, 0
4, 110640, Note_on_c, 0, 60, 70
4, 110640, Note_on_c, 0, 63, 70
4, 111120, Note_on_c, 0, 63, 0
4, 111120, Note_on_c, 0, 60, 0
4, 111120, Note_on_c, 0, 60, 70
4, 111120, Note_on_c, 0, 63, 70
4, 111600, Note_on_c, 0, 63, 0
4, 111600, Note_on_c, 0, 60, 0
4, 111600, Note_on_c, 0, 60, 70
4, 111600, Note_on_c, 0, 63, 70
4, 112080, Note_on_c, 0, 63, 0
4, 112080, Note_on_c, 0, 60, 0
4, 112080, Note_on_c, 0, 60, 70
4, 112080, Note_on_c, 0, 63, 70
4, 112320, Note_on_c, 0, 63, 0
4, 112320, Note_on_c, 0, 60, 0
4, 112320, Note_on_c, 0, 58, 70
4, 112320, Note_on_c, 0, 61, 70
4, 112560, Note_on_c, 0, 61, 0
4, 112560, Note_on_c, 0, 58, 0
4, 112560, Note_on_c, 0, 58, 70
4, 112560, Note_on_c, 0, 61, 70
4, 113040, Note_on_c, 0, 61, 0
4, 113040, Note_on_c, 0, 58, 0
4, 113040, Note_on_c, 0, 58, 70
4, 113040, Note_on_c, 0, 61, 70
4, 113520, Note_on_c, 0, 61, 0
4, 113520, Note_on_c, 0, 58, 0
4, 113520, Note_on_c, 0, 58, 70
4, 113520, Note_on_c, 0, 61, 70
4, 114000, Note_on_c, 0, 61, 0
4, 114000, Note_on_c, 0, 58, 0
4, 122400, Note_on_c, 0, 90, 83
4, 122423, Note_on_c, 0, 90, 0
4, 122520, Note_on_c, 0, 89, 83
4, 122543, Note_on_c, 0, 89, 0
4, 122640, Note_on_c, 0, 87, 83
4, 122663, Note_on_c, 0, 87, 0
4, 122760, Note_on_c, 0, 85, 83
4, 122783, Note_on_c, 0, 85, 0
4, 122880, Note_on_c, 0, 84, 83
4, 122903, Note_on_c, 0, 84, 0
4, 123000, Note_on_c, 0, 82, 83
4, 123023, Note_on_c, 0, 82, 0
4, 123120, Note_on_c, 0, 81, 83
4, 123143, Note_on_c, 0, 81, 0
4, 123240, Note_on_c, 0, 78, 83
4, 123263, Note_on_c, 0, 78, 0
4, 123360, Note_on_c, 0, 77, 83
4, 123383, Note_on_c, 0, 77, 0
4, 123480, Note_on_c, 0, 75, 83
4, 123503, Note_on_c, 0, 75, 0
4, 123600, Note_on_c, 0, 73, 83
4, 123623, Note_on_c, 0, 73, 0
4, 123720, Note_on_c, 0, 72, 83
4, 123743, Note_on_c, 0, 72, 0
4, 125280, Note_on_c, 0, 78, 83
4, 125303, Note_on_c, 0, 78, 0
4, 125400, Note_on_c, 0, 77, 83
4, 125423, Note_on_c, 0, 77, 0
4, 125520, Note_on_c, 0, 75, 83
4, 125543, Note_on_c, 0, 75, 0
4, 125640, Note_on_c, 0, 73, 83
4, 125663, Note_on_c, 0, 73, 0
4, 125760, Note_on_c, 0, 72, 83
4, 125783, Note_on_c, 0, 72, 0
4, 125880, Note_on_c, 0, 70, 83
4, 125903, Note_on_c, 0, 70, 0
4, 126000, Note_on_c, 0, 69, 83
4, 126023, Note_on_c, 0, 69, 0
4, 126120, Note_on_c, 0, 66, 83
4, 126143, Note_on_c, 0, 66, 0
4, 126240, Note_on_c, 0, 65, 83
4, 126263, Note_on_c, 0, 65, 0
4, 126360, Note_on_c, 0, 63, 83
4, 126383, Note_on_c, 0, 63, 0
4, 126480, Note_on_c, 0, 61, 83
4, 126503, Note_on_c, 0, 61, 0
4, 126600, Note_on_c, 0, 60, 83
4, 126623, Note_on_c, 0, 60, 0
4, 126720, Note_on_c, 0, 58, 70
4, 126900, Note_on_c, 0, 64, 70
4, 126960, Note_on_c, 0, 64, 0
4, 126960, Note_on_c, 0, 58, 0
4, 126960, Note_on_c, 0, 65, 70
4, 127007, Note_on_c, 0, 65, 0
4, 127380, Note_on_c, 0, 69, 70
4, 127440, Note_on_c, 0, 69, 0
4, 127440, Note_on_c, 0, 70, 70
4, 127487, Note_on_c, 0, 70, 0
4, 127860, Note_on_c, 0, 76, 70
4, 127920, Note_on_c, 0, 76, 0
4, 127920, Note_on_c, 0, 77, 70
4, 127967, Note_on_c, 0, 77, 0
4, 128340, Note_on_c, 0, 81, 70
4, 128400, Note_on_c, 0, 81, 0
4, 128400, Note_on_c, 0, 70, 70
4, 128400, Note_on_c, 0, 82, 70
4, 128447, Note_on_c, 0, 82, 0
4, 128447, Note_on_c, 0, 70, 0
4, 128820, Note_on_c, 0, 88, 70
4, 128880, Note_on_c, 0, 88, 0
4, 128880, Note_on_c, 0, 77, 70
4, 128880, Note_on_c, 0, 89, 70
4, 128927, Note_on_c, 0, 89, 0
4, 128927, Note_on_c, 0, 77, 0
4, 129300, Note_on_c, 0, 76, 70
4, 129360, Note_on_c, 0, 76, 0
4, 129360, Note_on_c, 0, 65, 70
4, 129360, Note_on_c, 0, 77, 70
4, 129407, Note_on_c, 0, 77, 0
4, 129407, Note_on_c, 0, 65, 0
4, 129720, Note_on_c, 0, 76, 70
4, 129840, Note_on_c, 0, 76, 0
4, 129840, Note_on_c, 0, 77, 70
4, 129960, Note_on_c, 0, 77, 0
4, 129960, Note_on_c, 0, 79, 70
4, 130080, Note_on_c, 0, 79, 0
4, 130080, Note_on_c, 0, 81, 70
4, 130200, Note_on_c, 0, 81, 0
4, 130200, Note_on_c, 0, 77, 70
4, 130320, Note_on_c, 0, 77, 0
4, 130320, Note_on_c, 0, 79, 70
4, 130440, Note_on_c, 0, 79, 0
4, 130440, Note_on_c, 0, 81, 70
4, 130560, Note_on_c, 0, 81, 0
4, 130560, Note_on_c, 0, 82, 70
4, 130680, Note_on_c, 0, 82, 0
4, 130680, Note_on_c, 0, 76, 70
4, 130800, Note_on_c, 0, 76, 0
4, 130800, Note_on_c, 0, 78, 70
4, 130920, Note_on_c, 0, 78, 0
4, 130920, Note_on_c, 0, 77, 70
4, 131040, Note_on_c, 0, 77, 0
4, 131160, Note_on_c, 0, 88, 70
4, 131280, Note_on_c, 0, 88, 0
4, 131280, Note_on_c, 0, 89, 70
4, 131400, Note_on_c, 0, 89, 0
4, 131400, Note_on_c, 0, 91, 70
4, 131520, Note_on_c, 0, 91, 0
4, 131520, Note_on_c, 0, 93, 70
4, 131640, Note_on_c, 0, 93, 0
4, 131640, Note_on_c, 0, 89, 70
4, 131760, Note_on_c, 0, 89, 0
4, 131760, Note_on_c, 0, 91, 70
4, 131880, Note_on_c, 0, 91, 0
4, 131880, Note_on_c, 0, 93, 70
4, 132000, Note_on_c, 0, 93, 0
4, 132000, Note_on_c, 0, 94, 70
4, 132120, Note_on_c, 0, 94, 0
4, 132120, Note_on_c, 0, 88, 70
4, 132240, Note_on_c, 0, 88, 0
4, 132240, Note_on_c, 0, 90, 70
4, 132360, Note_on_c, 0, 90, 0
4, 132360, Note_on_c, 0, 89, 70
4, 132480, Note_on_c, 0, 89, 0
4, 132660, Note_on_c, 0, 64, 70
4, 132720, Note_on_c, 0, 64, 0
4, 132720, Note_on_c, 0, 65, 70
4, 132767, Note_on_c, 0, 65, 0
4, 133140, Note_on_c, 0, 69, 70
4, 133200, Note_on_c, 0, 69, 0
4, 133200, Note_on_c, 0, 70, 70
4, 133247, Note_on_c, 0, 70, 0
4, 133620, Note_on_c, 0, 76, 70
4, 133680, Note_on_c, 0, 76, 0
4, 133680, Note_on_c, 0, 77, 70
4, 133727, Note_on_c, 0, 77, 0
4, 134100, Note_on_c, 0, 81, 70
4, 134160, Note_on_c, 0, 81, 0
4, 134160, Note_on_c, 0, 70, 70
4, 134160, Note_on_c, 0, 82, 70
4, 134207, Note_on_c, 0, 82, 0
4, 134207, Note_on_c, 0, 70, 0
4, 134580, Note_on_c, 0, 88, 70
4, 134640, Note_on_c, 0, 88, 0
4, 134640, Note_on_c, 0, 77, 70
4, 134640, Note_on_c, 0, 89, 70
4, 134687, Note_on_c, 0, 89, 0
4, 134687, Note_on_c, 0, 77, 0
4, 135060, Note_on_c, 0, 76, 70
4, 135120, Note_on_c, 0, 76, 0
4, 135120, Note_on_c, 0, 65, 70
4, 135120, Note_on_c, 0, 77, 70
4, 135167, Note_on_c, 0, 77, 0
4, 135167, Note_on_c, 0, 65, 0
4, 135480, Note_on_c, 0, 76, 70
4, 135600, Note_on_c, 0, 76, 0
4, 135600, Note_on_c, 0, 77, 70
4, 135720, Note_on_c, 0, 77, 0
4, 135720, Note_on_c, 0, 79, 70
4, 135840, Note_on_c, 0, 79, 0
4, 135840, Note_on_c, 0, 81, 70
4, 135960, Note_on_c, 0, 81, 0
4, 135960, Note_on_c, 0, 77, 70
4, 136080, Note_on_c, 0, 77, 0
4, 136080, Note_on_c, 0, 79, 70
4, 136200, Note_on_c, 0, 79, 0
4, 136200, Note_on_c, 0, 81, 70
4, 136320, Note_on_c, 0, 81, 0
4, 136320, Note_on_c, 0, 82, 70
4, 136440, Note_on_c, 0, 82, 0
4, 136440, Note_on_c, 0, 76, 70
4, 136560, Note_on_c, 0, 76, 0
4, 136560, Note_on_c, 0, 78, 70
4, 136680, Note_on_c, 0, 78, 0
4, 136680, Note_on_c, 0, 77, 70
4, 136800, Note_on_c, 0, 77, 0
4, 136800, Note_on_c, 0, 82, 70
4, 137040, Note_on_c, 0, 82, 0
4, 137040, Note_on_c, 0, 58, 57
4, 137040, Note_on_c, 0, 61, 57
4, 137040, Note_on_c, 0, 65, 57
4, 137087, Note_on_c, 0, 65, 0
4, 137087, Note_on_c, 0, 61, 0
4, 137087, Note_on_c, 0, 58, 0
4, 137280, Note_on_c, 0, 58, 83
4, 137280, Note_on_c, 0, 60, 83
4, 137280, Note_on_c, 0, 64, 83
4, 137640, Note_on_c, 0, 64, 0
4, 137640, Note_on_c, 0, 60, 0
4, 137640, Note_on_c, 0, 58, 0
4, 137640, Note_on_c, 0, 62, 70
4, 137700, Note_on_c, 0, 62, 0
4, 137700, Note_on_c, 0, 64, 70
4, 137760, Note_on_c, 0, 64, 0
4, 137760, Note_on_c, 0, 58, 70
4, 137760, Note_on_c, 0, 60, 70
4, 137760, Note_on_c, 0, 62, 70
4, 137807, Note_on_c, 0, 62, 0
4, 137807, Note_on_c, 0, 60, 0
4, 137807, Note_on_c, 0, 58, 0
4, 138000, Note_on_c, 0, 58, 70
4, 138000, Note_on_c, 0, 60, 70
4, 138000, Note_on_c, 0, 64, 70
4, 138047, Note_on_c, 0, 64, 0
4, 138047, Note_on_c, 0, 60, 0
4, 138047, Note_on_c, 0, 58, 0
4, 138240, Note_on_c, 0, 57, 83
4, 138240, Note_on_c, 0, 60, 83
4, 138240, Note_on_c, 0, 65, 83
4, 138480, Note_on_c, 0, 65, 0
4, 138480, Note_on_c, 0, 60, 0
4, 138480, Note_on_c, 0, 57, 0
4, 139680, Note_on_c, 0, 62, 83
4, 139860, Note_on_c, 0, 62, 0
4, 139860, Note_on_c, 0, 64, 83
4, 139920, Note_on_c, 0, 64, 0
4, 139920, Note_on_c, 0, 65, 83
4, 140100, Note_on_c, 0, 65, 0
4, 140100, Note_on_c, 0, 69, 83
4, 140160, Note_on_c, 0, 69, 0
4, 140160, Note_on_c, 0, 67, 83
4, 140340, Note_on_c, 0, 67, 0
4, 140340, Note_on_c, 0, 70, 83
4, 140400, Note_on_c, 0, 70, 0
4, 140400, Note_on_c, 0, 74, 83
4, 140580, Note_on_c, 0, 74, 0
4, 140580, Note_on_c, 0, 79, 83
4, 140640, Note_on_c, 0, 79, 0
4, 140640, Note_on_c, 0, 86, 83
4, 140820, Note_on_c, 0, 86, 0
4, 140820, Note_on_c, 0, 84, 83
4, 140880, Note_on_c, 0, 84, 0
4, 140880, Note_on_c, 0, 86, 83
4, 141060, Note_on_c, 0, 86, 0
4, 141060, Note_on_c, 0, 84, 83
4, 141120, Note_on_c, 0, 84, 0
4, 141120, Note_on_c, 0, 65, 83
4, 141120, Note_on_c, 0, 69, 83
4, 141120, Note_on_c, 0, 85, 83
4, 141360, Note_on_c, 0, 85, 0
4, 141360, Note_on_c, 0, 69, 0
4, 141360, Note_on_c, 0, 65, 0
4, 142560, Note_on_c, 0, 62, 83
4, 142740, Note_on_c, 0, 62, 0
4, 142740, Note_on_c, 0, 64, 83
4, 142800, Note_on_c, 0, 64, 0
4, 142800, Note_on_c, 0, 65, 83
4, 142980, Note_on_c, 0, 65, 0
4, 142980, Note_on_c, 0, 69, 83
4, 143040, Note_on_c, 0, 69, 0
4, 143040, Note_on_c, 0, 67, 83
4, 143220, Note_on_c, 0, 67, 0
4, 143220, Note_on_c, 0, 70, 83
4, 143280, Note_on_c, 0, 70, 0
4, 143280, Note_on_c, 0, 74, 83
4, 143460, Note_on_c, 0, 74, 0
4, 143460, Note_on_c, 0, 79, 83
4, 143520, Note_on_c, 0, 79, 0
4, 143520, Note_on_c, 0, 86, 83
4, 143700, Note_on_c, 0, 86, 0
4, 143700, Note_on_c, 0, 84, 83
4, 143760, Note_on_c, 0, 84, 0
4, 143760, Note_on_c, 0, 86, 83
4, 143940, Note_on_c, 0, 86, 0
4, 143940, Note_on_c, 0, 84, 83
4, 144000, Note_on_c, 0, 84, 0
4, 144000, Note_on_c, 0, 65, 83
4, 144000, Note_on_c, 0, 69, 83
4, 144000, Note_on_c, 0, 89, 83
4, 144180, Note_on_c, 0, 89, 0
4, 144180, Note_on_c, 0, 69, 0
4, 144180, Note_on_c, 0, 65, 0
4, 144180, Note_on_c, 0, 72, 57
4, 144240, Note_on_c, 0, 72, 0
4, 144240, Note_on_c, 0, 74, 57
4, 144360, Note_on_c, 0, 74, 0
4, 144420, Note_on_c, 0, 76, 57
4, 144480, Note_on_c, 0, 76, 0
4, 144480, Note_on_c, 0, 77, 57
4, 144600, Note_on_c, 0, 77, 0
4, 144660, Note_on_c, 0, 79, 57
4, 144720, Note_on_c, 0, 79, 0
4, 144720, Note_on_c, 0, 81, 57
4, 144840, Note_on_c, 0, 81, 0
4, 144900, Note_on_c, 0, 82, 57
4, 144960, Note_on_c, 0, 82, 0
4, 144960, Note_on_c, 0, 84, 57
4, 145080, Note_on_c, 0, 84, 0
4, 145140, Note_on_c, 0, 82, 57
4, 145200, Note_on_c, 0, 82, 0
4, 145200, Note_on_c, 0, 81, 57
4, 145320, Note_on_c, 0, 81, 0
4, 145380, Note_on_c, 0, 79, 57
4, 145440, Note_on_c, 0, 79, 0
4, 145440, Note_on_c, 0, 78, 57
4, 145680, Note_on_c, 0, 78, 0
4, 145680, Note_on_c, 0, 74, 57
4, 145680, Note_on_c, 0, 86, 57
4, 145920, Note_on_c, 0, 86, 0
4, 145920, Note_on_c, 0, 74, 0
4, 145920, Note_on_c, 0, 67, 57
4, 145920, Note_on_c, 0, 79, 57
4, 146160, Note_on_c, 0, 79, 0
4, 146160, Note_on_c, 0, 67, 0
4, 146160, Note_on_c, 0, 70, 57
4, 146160, Note_on_c, 0, 82, 57
4, 146400, Note_on_c, 0, 82, 0
4, 146400, Note_on_c, 0, 70, 0
4, 146400, Note_on_c, 0, 62, 57
4, 146400, Note_on_c, 0, 74, 57
4, 146640, Note_on_c, 0, 74, 0
4, 146640, Note_on_c, 0, 62, 0
4, 146640, Note_on_c, 0, 67, 57
4, 146640, Note_on_c, 0, 79, 57
4, 146880, Note_on_c, 0, 79, 0
4, 146880, Note_on_c, 0, 67, 0
4, 146880, Note_on_c, 0, 58, 57
4, 146880, Note_on_c, 0, 70, 57
4, 147060, Note_on_c, 0, 70, 0
4, 147060, Note_on_c, 0, 58, 0
4, 147060, Note_on_c, 0, 74, 57
4, 147120, Note_on_c, 0, 74, 0
4, 147120, Note_on_c, 0, 76, 57
4, 147240, Note_on_c, 0, 76, 0
4, 147300, Note_on_c, 0, 78, 57
4, 147360, Note_on_c, 0, 78, 0
4, 147360, Note_on_c, 0, 79, 57
4, 147480, Note_on_c, 0, 79, 0
4, 147540, Note_on_c, 0, 81, 57
4, 147600, Note_on_c, 0, 81, 0
4, 147600, Note_on_c, 0, 83, 57
4, 147720, Note_on_c, 0, 83, 0
4, 147780, Note_on_c, 0, 84, 57
4, 147840, Note_on_c, 0, 84, 0
4, 147840, Note_on_c, 0, 86, 57
4, 147960, Note_on_c, 0, 86, 0
4, 148020, Note_on_c, 0, 84, 57
4, 148080, Note_on_c, 0, 84, 0
4, 148080, Note_on_c, 0, 83, 57
4, 148200, Note_on_c, 0, 83, 0
4, 148260, Note_on_c, 0, 81, 57
4, 148320, Note_on_c, 0, 81, 0
4, 148320, Note_on_c, 0, 80, 57
4, 148560, Note_on_c, 0, 80, 0
4, 148560, Note_on_c, 0, 76, 57
4, 148560, Note_on_c, 0, 88, 57
4, 148800, Note_on_c, 0, 88, 0
4, 148800, Note_on_c, 0, 76, 0
4, 148800, Note_on_c, 0, 69, 57
4, 148800, Note_on_c, 0, 81, 57
4, 149040, Note_on_c, 0, 81, 0
4, 149040, Note_on_c, 0, 69, 0
4, 149040, Note_on_c, 0, 72, 57
4, 149040, Note_on_c, 0, 84, 57
4, 149280, Note_on_c, 0, 84, 0
4, 149280, Note_on_c, 0, 72, 0
4, 149280, Note_on_c, 0, 64, 57
4, 149280, Note_on_c, 0, 76, 57
4, 149520, Note_on_c, 0, 76, 0
4, 149520, Note_on_c, 0, 64, 0
4, 149520, Note_on_c, 0, 69, 57
4, 149520, Note_on_c, 0, 81, 57
4, 149760, Note_on_c, 0, 81, 0
4, 149760, Note_on_c, 0, 69, 0
4, 149760, Note_on_c, 0, 60, 57
4, 149760, Note_on_c, 0, 72, 57
4, 149940, Note_on_c, 0, 72, 0
4, 149940, Note_on_c, 0, 60, 0
4, 149940, Note_on_c, 0, 76, 57
4, 150000, Note_on_c, 0, 76, 0
4, 150000, Note_on_c, 0, 78, 57
4, 150120, Note_on_c, 0, 78, 0
4, 150180, Note_on_c, 0, 80, 57
4, 150240, Note_on_c, 0, 80, 0
4, 150240, Note_on_c, 0, 81, 57
4, 150360, Note_on_c, 0, 81, 0
4, 150420, Note_on_c, 0, 83, 57
4, 150480, Note_on_c, 0, 83, 0
4, 150480, Note_on_c, 0, 84, 57
4, 150600, Note_on_c, 0, 84, 0
4, 150660, Note_on_c, 0, 86, 57
4, 150720, Note_on_c, 0, 86, 0
4, 150720, Note_on_c, 0, 88, 57
4, 150840, Note_on_c, 0, 88, 0
4, 150900, Note_on_c, 0, 86, 57
4, 150960, Note_on_c, 0, 86, 0
4, 150960, Note_on_c, 0, 84, 57
4, 151080, Note_on_c, 0, 84, 0
4, 151140, Note_on_c, 0, 83, 57
4, 151200, Note_on_c, 0, 83, 0
4, 151200, Note_on_c, 0, 81, 57
4, 151440, Note_on_c, 0, 81, 0
4, 151440, Note_on_c, 0, 76, 57
4, 151440, Note_on_c, 0, 84, 57
4, 151440, Note_on_c, 0, 88, 57
4, 151487, Note_on_c, 0, 88, 0
4, 151487, Note_on_c, 0, 84, 0
4, 151487, Note_on_c, 0, 76, 0
4, 151680, Note_on_c, 0, 77, 83
4, 151680, Note_on_c, 0, 86, 83
4, 151680, Note_on_c, 0, 89, 83
4, 152160, Note_on_c, 0, 89, 0
4, 152160, Note_on_c, 0, 86, 0
4, 152160, Note_on_c, 0, 77, 0
4, 152160, Note_on_c, 0, 76, 57
4, 152160, Note_on_c, 0, 84, 57
4, 152160, Note_on_c, 0, 88, 57
4, 152400, Note_on_c, 0, 88, 0
4, 152400, Note_on_c, 0, 84, 0
4, 152400, Note_on_c, 0, 76, 0
4, 152400, Note_on_c, 0, 74, 57
4, 152400, Note_on_c, 0, 82, 57
4, 152400, Note_on_c, 0, 86, 57
4, 152640, Note_on_c, 0, 86, 0
4, 152640, Note_on_c, 0, 82, 0
4, 152640, Note_on_c, 0, 74, 0
4, 152640, Note_on_c, 0, 72, 57
4, 152640, Note_on_c, 0, 81, 57
4, 152640, Note_on_c, 0, 84, 57
4, 152820, Note_on_c, 0, 84, 0
4, 152820, Note_on_c, 0, 81, 0
4, 152820, Note_on_c, 0, 72, 0
4, 152820, Note_on_c, 0, 69, 57
4, 152880, Note_on_c, 0, 69, 0
4, 152880, Note_on_c, 0, 71, 57
4, 153000, Note_on_c, 0, 71, 0
4, 153060, Note_on_c, 0, 73, 57
4, 153120, Note_on_c, 0, 73, 0
4, 153120, Note_on_c, 0, 74, 57
4, 153240, Note_on_c, 0, 74, 0
4, 153300, Note_on_c, 0, 76, 57
4, 153360, Note_on_c, 0, 76, 0
4, 153360, Note_on_c, 0, 77, 57
4, 153480, Note_on_c, 0, 77, 0
4, 153540, Note_on_c, 0, 79, 57
4, 153600, Note_on_c, 0, 79, 0
4, 153600, Note_on_c, 0, 81, 57
4, 153720, Note_on_c, 0, 81, 0
4, 153780, Note_on_c, 0, 79, 57
4, 153840, Note_on_c, 0, 79, 0
4, 153840, Note_on_c, 0, 77, 57
4, 153960, Note_on_c, 0, 77, 0
4, 154020, Note_on_c, 0, 76, 57
4, 154080, Note_on_c, 0, 76, 0
4, 154080, Note_on_c, 0, 74, 57
4, 154320, Note_on_c, 0, 74, 0
4, 154320, Note_on_c, 0, 74, 57
4, 154320, Note_on_c, 0, 82, 57
4, 154320, Note_on_c, 0, 86, 57
4, 154367, Note_on_c, 0, 86, 0
4, 154367, Note_on_c, 0, 82, 0
4, 154367, Note_on_c, 0, 74, 0
4, 154560, Note_on_c, 0, 75, 83
4, 154560, Note_on_c, 0, 84, 83
4, 154560, Note_on_c, 0, 87, 83
4, 155040, Note_on_c, 0, 87, 0
4, 155040, Note_on_c, 0, 84, 0
4, 155040, Note_on_c, 0, 75, 0
4, 155040, Note_on_c, 0, 74, 57
4, 155040, Note_on_c, 0, 82, 57
4, 155040, Note_on_c, 0, 86, 57
4, 155280, Note_on_c, 0, 86, 0
4, 155280, Note_on_c, 0, 82, 0
4, 155280, Note_on_c, 0, 74, 0
4, 155280, Note_on_c, 0, 72, 57
4, 155280, Note_on_c, 0, 81, 57
4, 155280, Note_on_c, 0, 84, 57
4, 155520, Note_on_c, 0, 84, 0
4, 155520, Note_on_c, 0, 81, 0
4, 155520, Note_on_c, 0, 72, 0
4, 155520, Note_on_c, 0, 70, 57
4, 155520, Note_on_c, 0, 79, 57
4, 155520, Note_on_c, 0, 82, 57
4, 155760, Note_on_c, 0, 82, 0
4, 155760, Note_on_c, 0, 79, 0
4, 155760, Note_on_c, 0, 70, 0
4, 155760, Note_on_c, 0, 70, 57
4, 155760, Note_on_c, 0, 79, 57
4, 155760, Note_on_c, 0, 82, 57
4, 155807, Note_on_c, 0, 82, 0
4, 155807, Note_on_c, 0, 79, 0
4, 155807, Note_on_c, 0, 70, 0
4, 156000, Note_on_c, 0, 73, 83
4, 156000, Note_on_c, 0, 82, 83
4, 156000, Note_on_c, 0, 85, 83
4, 156480, Note_on_c, 0, 85, 0
4, 156480, Note_on_c, 0, 82, 0
4, 156480, Note_on_c, 0, 73, 0
4, 156480, Note_on_c, 0, 72, 57
4, 156480, Note_on_c, 0, 80, 57
4, 156480, Note_on_c, 0, 84, 57
4, 156720, Note_on_c, 0, 84, 0
4, 156720, Note_on_c, 0, 80, 0
4, 156720, Note_on_c, 0, 72, 0
4, 156720, Note_on_c, 0, 70, 57
4, 156720, Note_on_c, 0, 79, 57
4, 156720, Note_on_c, 0, 82, 57
4, 156960, Note_on_c, 0, 82, 0
4, 156960, Note_on_c, 0, 79, 0
4, 156960, Note_on_c, 0, 70, 0
4, 156960, Note_on_c, 0, 68, 57
4, 156960, Note_on_c, 0, 77, 57
4, 156960, Note_on_c, 0, 80, 57
4, 157200, Note_on_c, 0, 80, 0
4, 157200, Note_on_c, 0, 77, 0
4, 157200, Note_on_c, 0, 68, 0
4, 157200, Note_on_c, 0, 72, 57
4, 157200, Note_on_c, 0, 80, 57
4, 157200, Note_on_c, 0, 84, 57
4, 157440, Note_on_c, 0, 84, 0
4, 157440, Note_on_c, 0, 80, 0
4, 157440, Note_on_c, 0, 72, 0
4, 157440, Note_on_c, 0, 70, 57
4, 157440, Note_on_c, 0, 79, 57
4, 157440, Note_on_c, 0, 82, 57
4, 157680, Note_on_c, 0, 82, 0
4, 157680, Note_on_c, 0, 79, 0
4, 157680, Note_on_c, 0, 70, 0
4, 157680, Note_on_c, 0, 68, 57
4, 157680, Note_on_c, 0, 77, 57
4, 157680, Note_on_c, 0, 80, 57
4, 157920, Note_on_c, 0, 80, 0
4, 157920, Note_on_c, 0, 77, 0
4, 157920, Note_on_c, 0, 68, 0
4, 157920, Note_on_c, 0, 67, 57
4, 157920, Note_on_c, 0, 75, 57
4, 157920, Note_on_c, 0, 79, 57
4, 158160, Note_on_c, 0, 79, 0
4, 158160, Note_on_c, 0, 75, 0
4, 158160, Note_on_c, 0, 67, 0
4, 158160, Note_on_c, 0, 72, 57
4, 158160, Note_on_c, 0, 80, 57
4, 158160, Note_on_c, 0, 84, 57
4, 158400, Note_on_c, 0, 84, 0
4, 158400, Note_on_c, 0, 80, 0
4, 158400, Note_on_c, 0, 72, 0
4, 158400, Note_on_c, 0, 70, 70
4, 158400, Note_on_c, 0, 79, 70
4, 158400, Note_on_c, 0, 82, 70
4, 158640, Note_on_c, 0, 82, 0
4, 158640, Note_on_c, 0, 79, 0
4, 158640, Note_on_c, 0, 70, 0
4, 158640, Note_on_c, 0, 68, 70
4, 158640, Note_on_c, 0, 77, 70
4, 158640, Note_on_c, 0, 80, 70
4, 158880, Note_on_c, 0, 80, 0
4, 158880, Note_on_c, 0, 77, 0
4, 158880, Note_on_c, 0, 68, 0
4, 158880, Note_on_c, 0, 67, 70
4, 158880, Note_on_c, 0, 75, 70
4, 158880, Note_on_c, 0, 79, 70
4, 159120, Note_on_c, 0, 79, 0
4, 159120, Note_on_c, 0, 75, 0
4, 159120, Note_on_c, 0, 67, 0
4, 159120, Note_on_c, 0, 72, 83
4, 159120, Note_on_c, 0, 80, 83
4, 159120, Note_on_c, 0, 84, 83
4, 159360, Note_on_c, 0, 84, 0
4, 159360, Note_on_c, 0, 80, 0
4, 159360, Note_on_c, 0, 72, 0
4, 159360, Note_on_c, 0, 70, 83
4, 159360, Note_on_c, 0, 79, 83
4, 159360, Note_on_c, 0, 82, 83
4, 159600, Note_on_c, 0, 82, 0
4, 159600, Note_on_c, 0, 79, 0
4, 159600, Note_on_c, 0, 70, 0
4, 159600, Note_on_c, 0, 68, 83
4, 159600, Note_on_c, 0, 77, 83
4, 159600, Note_on_c, 0, 80, 83
4, 159840, Note_on_c, 0, 80, 0
4, 159840, Note_on_c, 0, 77, 0
4, 159840, Note_on_c, 0, 68, 0
4, 159840, Note_on_c, 0, 67, 83
4, 159840, Note_on_c, 0, 75, 83
4, 159840, Note_on_c, 0, 79, 83
4, 160080, Note_on_c, 0, 79, 0
4, 160080, Note_on_c, 0, 75, 0
4, 160080, Note_on_c, 0, 67, 0
4, 162720, Note_on_c, 0, 72, 96
4, 162720, Note_on_c, 0, 75, 96
4, 162720, Note_on_c, 0, 80, 96
4, 162720, Note_on_c, 0, 84, 96
4, 162767, Note_on_c, 0, 84, 0
4, 162767, Note_on_c, 0, 72, 0
4, 162767, Note_on_c, 0, 75, 0
4, 162767, Note_on_c, 0, 80, 0
4, 162960, Note_on_c, 0, 70, 96
4, 162960, Note_on_c, 0, 75, 96
4, 162960, Note_on_c, 0, 79, 96
4, 162960, Note_on_c, 0, 82, 96
4, 163007, Note_on_c, 0, 82, 0
4, 163007, Note_on_c, 0, 70, 0
4, 163007, Note_on_c, 0, 75, 0
4, 163007, Note_on_c, 0, 79, 0
4, 163200, Note_on_c, 0, 68, 117
4, 163200, Note_on_c, 0, 72, 117
4, 163200, Note_on_c, 0, 75, 117
4, 163200, Note_on_c, 0, 80, 117
4, 163560, Note_on_c, 0, 80, 0
4, 163560, Note_on_c, 0, 68, 0
4, 163560, Note_on_c, 0, 72, 0
4, 163560, Note_on_c, 0, 75, 0
4, 163560, Note_on_c, 0, 75, 96
4, 163560, Note_on_c, 0, 79, 96
4, 163560, Note_on_c, 0, 82, 96
4, 163620, Note_on_c, 0, 82, 0
4, 163620, Note_on_c, 0, 79, 0
4, 163620, Note_on_c, 0, 75, 0
4, 163620, Note_on_c, 0, 70, 96
4, 163680, Note_on_c, 0, 70, 0
4, 163680, Note_on_c, 0, 75, 96
4, 163680, Note_on_c, 0, 79, 96
4, 163680, Note_on_c, 0, 82, 96
4, 163727, Note_on_c, 0, 82, 0
4, 163727, Note_on_c, 0, 79, 0
4, 163727, Note_on_c, 0, 75, 0
4, 163920, Note_on_c, 0, 72, 96
4, 163920, Note_on_c, 0, 75, 96
4, 163920, Note_on_c, 0, 80, 96
4, 163920, Note_on_c, 0, 84, 96
4, 163967, Note_on_c, 0, 84, 0
4, 163967, Note_on_c, 0, 72, 0
4, 163967, Note_on_c, 0, 75, 0
4, 163967, Note_on_c, 0, 80, 0
4, 164160, Note_on_c, 0, 75, 96
4, 164160, Note_on_c, 0, 84, 96
4, 164160, Note_on_c, 0, 87, 96
4, 164207, Note_on_c, 0, 87, 0
4, 164207, Note_on_c, 0, 84, 0
4, 164207, Note_on_c, 0, 75, 0
4, 164400, Note_on_c, 0, 77, 96
4, 164400, Note_on_c, 0, 85, 96
4, 164400, Note_on_c, 0, 89, 96
4, 164447, Note_on_c, 0, 89, 0
4, 164447, Note_on_c, 0, 85, 0
4, 164447, Note_on_c, 0, 77, 0
4, 164640, Note_on_c, 0, 75, 117
4, 164640, Note_on_c, 0, 84, 117
4, 164640, Note_on_c, 0, 87, 117
4, 165000, Note_on_c, 0, 87, 0
4, 165000, Note_on_c, 0, 84, 0
4, 165000, Note_on_c, 0, 75, 0
4, 165000, Note_on_c, 0, 82, 96
4, 165000, Note_on_c, 0, 85, 96
4, 165060, Note_on_c, 0, 85, 0
4, 165060, Note_on_c, 0, 82, 0
4, 165060, Note_on_c, 0, 73, 96
4, 165120, Note_on_c, 0, 73, 0
4, 165120, Note_on_c, 0, 82, 96
4, 165120, Note_on_c, 0, 85, 96
4, 165167, Note_on_c, 0, 85, 0
4, 165167, Note_on_c, 0, 82, 0
4, 165360, Note_on_c, 0, 72, 96
4, 165360, Note_on_c, 0, 80, 96
4, 165360, Note_on_c, 0, 84, 96
4, 165407, Note_on_c, 0, 84, 0
4, 165407, Note_on_c, 0, 80, 0
4, 165407, Note_on_c, 0, 72, 0
4, 165600, Note_on_c, 0, 75, 96
4, 165600, Note_on_c, 0, 84, 96
4, 165600, Note_on_c, 0, 87, 96
4, 165647, Note_on_c, 0, 87, 0
4, 165647, Note_on_c, 0, 84, 0
4, 165647, Note_on_c, 0, 75, 0
4, 165840, Note_on_c, 0, 77, 96
4, 165840, Note_on_c, 0, 85, 96
4, 165840, Note_on_c, 0, 89, 96
4, 165887, Note_on_c, 0, 89, 0
4, 165887, Note_on_c, 0, 85, 0
4, 165887, Note_on_c, 0, 77, 0
4, 166080, Note_on_c, 0, 75, 117
4, 166080, Note_on_c, 0, 84, 117
4, 166080, Note_on_c, 0, 87, 117
4, 166440, Note_on_c, 0, 87, 0
4, 166440, Note_on_c, 0, 84, 0
4, 166440, Note_on_c, 0, 75, 0
4, 166440, Note_on_c, 0, 82, 96
4, 166440, Note_on_c, 0, 85, 96
4, 166500, Note_on_c, 0, 85, 0
4, 166500, Note_on_c, 0, 82, 0
4, 166500, Note_on_c, 0, 73, 96
4, 166560, Note_on_c, 0, 73, 0
4, 166560, Note_on_c, 0, 82, 96
4, 166560, Note_on_c, 0, 85, 96
4, 166607, Note_on_c, 0, 85, 0
4, 166607, Note_on_c, 0, 82, 0
4, 166800, Note_on_c, 0, 72, 96
4, 166800, Note_on_c, 0, 80, 96
4, 166800, Note_on_c, 0, 84, 96
4, 166847, Note_on_c, 0, 84, 0
4, 166847, Note_on_c, 0, 80, 0
4, 166847, Note_on_c, 0, 72, 0
4, 167040, Note_on_c, 0, 75, 96
4, 167040, Note_on_c, 0, 84, 96
4, 167040, Note_on_c, 0, 87, 96
4, 167087, Note_on_c, 0, 87, 0
4, 167087, Note_on_c, 0, 84, 0
4, 167087, Note_on_c, 0, 75, 0
4, 167280, Note_on_c, 0, 80, 96
4, 167280, Note_on_c, 0, 89, 96
4, 167280, Note_on_c, 0, 92, 96
4, 167327, Note_on_c, 0, 92, 0
4, 167327, Note_on_c, 0, 89, 0
4, 167327, Note_on_c, 0, 80, 0
4, 167520, Note_on_c, 0, 75, 117
4, 167520, Note_on_c, 0, 84, 117
4, 167520, Note_on_c, 0, 87, 117
4, 167880, Note_on_c, 0, 87, 0
4, 167880, Note_on_c, 0, 84, 0
4, 167880, Note_on_c, 0, 75, 0
4, 167880, Note_on_c, 0, 82, 96
4, 167880, Note_on_c, 0, 85, 96
4, 167940, Note_on_c, 0, 85, 0
4, 167940, Note_on_c, 0, 82, 0
4, 167940, Note_on_c, 0, 73, 96
4, 168000, Note_on_c, 0, 73, 0
4, 168000, Note_on_c, 0, 82, 96
4, 168000, Note_on_c, 0, 85, 96
4, 168047, Note_on_c, 0, 85, 0
4, 168047, Note_on_c, 0, 82, 0
4, 168240, Note_on_c, 0, 72, 96
4, 168240, Note_on_c, 0, 80, 96
4, 168240, Note_on_c, 0, 84, 96
4, 168287, Note_on_c, 0, 84, 0
4, 168287, Note_on_c, 0, 80, 0
4, 168287, Note_on_c, 0, 72, 0
4, 168480, Note_on_c, 0, 72, 96
4, 168480, Note_on_c, 0, 75, 96
4, 168480, Note_on_c, 0, 80, 96
4, 168480, Note_on_c, 0, 84, 96
4, 168527, Note_on_c, 0, 84, 0
4, 168527, Note_on_c, 0, 72, 0
4, 168527, Note_on_c, 0, 75, 0
4, 168527, Note_on_c, 0, 80, 0
4, 168720, Note_on_c, 0, 70, 96
4, 168720, Note_on_c, 0, 75, 96
4, 168720, Note_on_c, 0, 79, 96
4, 168720, Note_on_c, 0, 82, 96
4, 168767, Note_on_c, 0, 82, 0
4, 168767, Note_on_c, 0, 70, 0
4, 168767, Note_on_c, 0, 75, 0
4, 168767, Note_on_c, 0, 79, 0
4, 168960, Note_on_c, 0, 68, 117
4, 168960, Note_on_c, 0, 72, 117
4, 168960, Note_on_c, 0, 75, 117
4, 168960, Note_on_c, 0, 80, 117
4, 169320, Note_on_c, 0, 80, 0
4, 169320, Note_on_c, 0, 68, 0
4, 169320, Note_on_c, 0, 72, 0
4, 169320, Note_on_c, 0, 75, 0
4, 169320, Note_on_c, 0, 75, 96
4, 169320, Note_on_c, 0, 79, 96
4, 169320, Note_on_c, 0, 82, 96
4, 169380, Note_on_c, 0, 82, 0
4, 169380, Note_on_c, 0, 79, 0
4, 169380, Note_on_c, 0, 75, 0
4, 169380, Note_on_c, 0, 70, 96
4, 169440, Note_on_c, 0, 70, 0
4, 169440, Note_on_c, 0, 75, 96
4, 169440, Note_on_c, 0, 79, 96
4, 169440, Note_on_c, 0, 82, 96
4, 169487, Note_on_c, 0, 82, 0
4, 169487, Note_on_c, 0, 79, 0
4, 169487, Note_on_c, 0, 75, 0
4, 169680, Note_on_c, 0, 72, 96
4, 169680, Note_on_c, 0, 75, 96
4, 169680, Note_on_c, 0, 80, 96
4, 169680, Note_on_c, 0, 84, 96
4, 169727, Note_on_c, 0, 84, 0
4, 169727, Note_on_c, 0, 72, 0
4, 169727, Note_on_c, 0, 75, 0
4, 169727, Note_on_c, 0, 80, 0
4, 169920, Note_on_c, 0, 75, 96
4, 169920, Note_on_c, 0, 84, 96
4, 169920, Note_on_c, 0, 87, 96
4, 169967, Note_on_c, 0, 87, 0
4, 169967, Note_on_c, 0, 84, 0
4, 169967, Note_on_c, 0, 75, 0
4, 170160, Note_on_c, 0, 77, 96
4, 170160, Note_on_c, 0, 85, 96
4, 170160, Note_on_c, 0, 89, 96
4, 170207, Note_on_c, 0, 89, 0
4, 170207, Note_on_c, 0, 85, 0
4, 170207, Note_on_c, 0, 77, 0
4, 170400, Note_on_c, 0, 75, 117
4, 170400, Note_on_c, 0, 84, 117
4, 170400, Note_on_c, 0, 87, 117
4, 170760, Note_on_c, 0, 87, 0
4, 170760, Note_on_c, 0, 84, 0
4, 170760, Note_on_c, 0, 75, 0
4, 170760, Note_on_c, 0, 82, 96
4, 170760, Note_on_c, 0, 85, 96
4, 170820, Note_on_c, 0, 85, 0
4, 170820, Note_on_c, 0, 82, 0
4, 170820, Note_on_c, 0, 73, 96
4, 170880, Note_on_c, 0, 73, 0
4, 170880, Note_on_c, 0, 82, 96
4, 170880, Note_on_c, 0, 85, 96
4, 170927, Note_on_c, 0, 85, 0
4, 170927, Note_on_c, 0, 82, 0
4, 171120, Note_on_c, 0, 72, 96
4, 171120, Note_on_c, 0, 80, 96
4, 171120, Note_on_c, 0, 84, 96
4, 171167, Note_on_c, 0, 84, 0
4, 171167, Note_on_c, 0, 80, 0
4, 171167, Note_on_c, 0, 72, 0
4, 171360, Note_on_c, 0, 75, 96
4, 171360, Note_on_c, 0, 84, 96
4, 171360, Note_on_c, 0, 87, 96
4, 171407, Note_on_c, 0, 87, 0
4, 171407, Note_on_c, 0, 84, 0
4, 171407, Note_on_c, 0, 75, 0
4, 171600, Note_on_c, 0, 77, 96
4, 171600, Note_on_c, 0, 85, 96
4, 171600, Note_on_c, 0, 89, 96
4, 171647, Note_on_c, 0, 89, 0
4, 171647, Note_on_c, 0, 85, 0
4, 171647, Note_on_c, 0, 77, 0
4, 171840, Note_on_c, 0, 75, 117
4, 171840, Note_on_c, 0, 84, 117
4, 171840, Note_on_c, 0, 87, 117
4, 172200, Note_on_c, 0, 87, 0
4, 172200, Note_on_c, 0, 84, 0
4, 172200, Note_on_c, 0, 75, 0
4, 172200, Note_on_c, 0, 82, 96
4, 172200, Note_on_c, 0, 85, 96
4, 172260, Note_on_c, 0, 85, 0
4, 172260, Note_on_c, 0, 82, 0
4, 172260, Note_on_c, 0, 73, 96
4, 172320, Note_on_c, 0, 73, 0
4, 172320, Note_on_c, 0, 82, 96
4, 172320, Note_on_c, 0, 85, 96
4, 172367, Note_on_c, 0, 85, 0
4, 172367, Note_on_c, 0, 82, 0
4, 172560, Note_on_c, 0, 72, 96
4, 172560, Note_on_c, 0, 80, 96
4, 172560, Note_on_c, 0, 84, 96
4, 172607, Note_on_c, 0, 84, 0
4, 172607, Note_on_c, 0, 80, 0
4, 172607, Note_on_c, 0, 72, 0
4, 172800, Note_on_c, 0, 75, 96
4, 172800, Note_on_c, 0, 84, 96
4, 172800, Note_on_c, 0, 87, 96
4, 172847, Note_on_c, 0, 87, 0
4, 172847, Note_on_c, 0, 84, 0
4, 172847, Note_on_c, 0, 75, 0
4, 173040, Note_on_c, 0, 77, 96
4, 173040, Note_on_c, 0, 84, 96
4, 173040, Note_on_c, 0, 87, 96
4, 173040, Note_on_c, 0, 89, 96
4, 173087, Note_on_c, 0, 89, 0
4, 173087, Note_on_c, 0, 77, 0
4, 173087, Note_on_c, 0, 84, 0
4, 173087, Note_on_c, 0, 87, 0
4, 173280, Note_on_c, 0, 75, 96
4, 173280, Note_on_c, 0, 84, 96
4, 173280, Note_on_c, 0, 87, 96
4, 173327, Note_on_c, 0, 87, 0
4, 173327, Note_on_c, 0, 84, 0
4, 173327, Note_on_c, 0, 75, 0
4, 173520, Note_on_c, 0, 77, 96
4, 173520, Note_on_c, 0, 84, 96
4, 173520, Note_on_c, 0, 87, 96
4, 173520, Note_on_c, 0, 89, 96
4, 173567, Note_on_c, 0, 89, 0
4, 173567, Note_on_c, 0, 77, 0
4, 173567, Note_on_c, 0, 84, 0
4, 173567, Note_on_c, 0, 87, 0
4, 173760, Note_on_c, 0, 78, 96
4, 173760, Note_on_c, 0, 84, 96
4, 173760, Note_on_c, 0, 86, 96
4, 173760, Note_on_c, 0, 90, 96
4, 173807, Note_on_c, 0, 90, 0
4, 173807, Note_on_c, 0, 78, 0
4, 173807, Note_on_c, 0, 84, 0
4, 173807, Note_on_c, 0, 86, 0
4, 174000, Note_on_c, 0, 79, 96
4, 174000, Note_on_c, 0, 83, 96
4, 174000, Note_on_c, 0, 86, 96
4, 174000, Note_on_c, 0, 91, 96
4, 174047, Note_on_c, 0, 91, 0
4, 174047, Note_on_c, 0, 79, 0
4, 174047, Note_on_c, 0, 83, 0
4, 174047, Note_on_c, 0, 86, 0
4, 174360, Note_on_c, 0, 68, 57
4, 174480, Note_on_c, 0, 68, 0
4, 174480, Note_on_c, 0, 69, 57
4, 174600, Note_on_c, 0, 69, 0
4, 174600, Note_on_c, 0, 71, 57
4, 174720, Note_on_c, 0, 71, 0
4, 174720, Note_on_c, 0, 72, 57
4, 174960, Note_on_c, 0, 72, 0
4, 175800, Note_on_c, 0, 79, 57
4, 175920, Note_on_c, 0, 79, 0
4, 175920, Note_on_c, 0, 81, 57
4, 176040, Note_on_c, 0, 81, 0
4, 176040, Note_on_c, 0, 82, 57
4, 176160, Note_on_c, 0, 82, 0
4, 176160, Note_on_c, 0, 83, 57
4, 176400, Note_on_c, 0, 83, 0
4, 177240, Note_on_c, 0, 68, 57
4, 177360, Note_on_c, 0, 68, 0
4, 177360, Note_on_c, 0, 69, 57
4, 177480, Note_on_c, 0, 69, 0
4, 177480, Note_on_c, 0, 71, 57
4, 177600, Note_on_c, 0, 71, 0
4, 177600, Note_on_c, 0, 72, 57
4, 177840, Note_on_c, 0, 72, 0
4, 178680, Note_on_c, 0, 79, 57
4, 178800, Note_on_c, 0, 79, 0
4, 178800, Note_on_c, 0, 81, 57
4, 178920, Note_on_c, 0, 81, 0
4, 178920, Note_on_c, 0, 82, 57
4, 179040, Note_on_c, 0, 82, 0
4, 179040, Note_on_c, 0, 83, 57
4, 179280, Note_on_c, 0, 83, 0
4, 191040, Note_on_c, 0, 70, 70
4, 191040, Note_on_c, 0, 82, 70
4, 192000, Note_on_c, 0, 82, 0
4, 192000, Note_on_c, 0, 70, 0
4, 192000, Note_on_c, 0, 72, 70
4, 192000, Note_on_c, 0, 84, 70
4, 192480, Note_on_c, 0, 84, 0
4, 192480, Note_on_c, 0, 72, 0
4, 192480, Note_on_c, 0, 70, 70
4, 192480, Note_on_c, 0, 82, 70
4, 192960, Note_on_c, 0, 82, 0
4, 192960, Note_on_c, 0, 70, 0
4, 192960, Note_on_c, 0, 70, 70
4, 192960, Note_on_c, 0, 82, 70
4, 193920, Note_on_c, 0, 82, 0
4, 193920, Note_on_c, 0, 70, 0
4, 193920, Note_on_c, 0, 67, 70
4, 193920, Note_on_c, 0, 79, 70
4, 194160, Note_on_c, 0, 79, 0
4, 194160, Note_on_c, 0, 67, 0
4, 194160, Note_on_c, 0, 68, 70
4, 194160, Note_on_c, 0, 80, 70
4, 194400, Note_on_c, 0, 80, 0
4, 194400, Note_on_c, 0, 68, 0
4, 194400, Note_on_c, 0, 67, 70
4, 194400, Note_on_c, 0, 79, 70
4, 194640, Note_on_c, 0, 79, 0
4, 194640, Note_on_c, 0, 67, 0
4, 194640, Note_on_c, 0, 70, 70
4, 194640, Note_on_c, 0, 82, 70
4, 194880, Note_on_c, 0, 82, 0
4, 194880, Note_on_c, 0, 70, 0
4, 194880, Note_on_c, 0, 65, 70
4, 194880, Note_on_c, 0, 77, 70
4, 195360, Note_on_c, 0, 77, 0
4, 195360, Note_on_c, 0, 65, 0
4, 195360, Note_on_c, 0, 65, 70
4, 195360, Note_on_c, 0, 77, 70
4, 195600, Note_on_c, 0, 77, 0
4, 195600, Note_on_c, 0, 65, 0
4, 195600, Note_on_c, 0, 67, 70
4, 195600, Note_on_c, 0, 79, 70
4, 195840, Note_on_c, 0, 79, 0
4, 195840, Note_on_c, 0, 67, 0
4, 195840, Note_on_c, 0, 63, 70
4, 195840, Note_on_c, 0, 75, 70
4, 196320, Note_on_c, 0, 75, 0
4, 196320, Note_on_c, 0, 63, 0
4, 196320, Note_on_c, 0, 72, 70
4, 196560, Note_on_c, 0, 72, 0
4, 196560, Note_on_c, 0, 75, 70
4, 196800, Note_on_c, 0, 75, 0
4, 196800, Note_on_c, 0, 70, 70
4, 197280, Note_on_c, 0, 70, 0
4, 197280, Note_on_c, 0, 58, 57
4, 197280, Note_on_c, 0, 62, 57
4, 197280, Note_on_c, 0, 65, 57
4, 197280, Note_on_c, 0, 68, 57
4, 198720, Note_on_c, 0, 68, 0
4, 198720, Note_on_c, 0, 58, 0
4, 198720, Note_on_c, 0, 62, 0
4, 198720, Note_on_c, 0, 65, 0
4, 198720, Note_on_c, 0, 58, 57
4, 198720, Note_on_c, 0, 63, 57
4, 198720, Note_on_c, 0, 67, 57
4, 200160, Note_on_c, 0, 67, 0
4, 200160, Note_on_c, 0, 63, 0
4, 200160, Note_on_c, 0, 58, 0
4, 200160, Note_on_c, 0, 58, 57
4, 200160, Note_on_c, 0, 62, 57
4, 200160, Note_on_c, 0, 67, 57
4, 201120, Note_on_c, 0, 67, 0
4, 201120, Note_on_c, 0, 62, 0
4, 201120, Note_on_c, 0, 58, 0
4, 201120, Note_on_c, 0, 57, 57
4, 201120, Note_on_c, 0, 60, 57
4, 201120, Note_on_c, 0, 66, 57
4, 201600, Note_on_c, 0, 66, 0
4, 201600, Note_on_c, 0, 60, 0
4, 201600, Note_on_c, 0, 57, 0
4, 201600, Note_on_c, 0, 58, 57
4, 201600, Note_on_c, 0, 62, 57
4, 201600, Note_on_c, 0, 67, 57
4, 202080, Note_on_c, 0, 67, 0
4, 202080, Note_on_c, 0, 62, 0
4, 202080, Note_on_c, 0, 58, 0
4, 202080, Note_on_c, 0, 58, 57
4, 202080, Note_on_c, 0, 62, 57
4, 202560, Note_on_c, 0, 62, 0
4, 202560, Note_on_c, 0, 58, 0
4, 202560, Note_on_c, 0, 58, 57
4, 202560, Note_on_c, 0, 64, 57
4, 203040, Note_on_c, 0, 64, 0
4, 203040, Note_on_c, 0, 58, 0
4, 203040, Note_on_c, 0, 58, 57
4, 203040, Note_on_c, 0, 62, 57
4, 203040, Note_on_c, 0, 65, 57
4, 203520, Note_on_c, 0, 65, 0
4, 203520, Note_on_c, 0, 62, 0
4, 203520, Note_on_c, 0, 58, 0
4, 203520, Note_on_c, 0, 62, 57
4, 203520, Note_on_c, 0, 65, 57
4, 203520, Note_on_c, 0, 70, 57
4, 204000, Note_on_c, 0, 70, 0
4, 204000, Note_on_c, 0, 65, 0
4, 204000, Note_on_c, 0, 62, 0
4, 204000, Note_on_c, 0, 63, 57
4, 204000, Note_on_c, 0, 69, 57
4, 204000, Note_on_c, 0, 72, 57
4, 204480, Note_on_c, 0, 72, 0
4, 204480, Note_on_c, 0, 69, 0
4, 204480, Note_on_c, 0, 63, 0
4, 204480, Note_on_c, 0, 62, 57
4, 204480, Note_on_c, 0, 65, 57
4, 204480, Note_on_c, 0, 70, 57
4, 204960, Note_on_c, 0, 70, 0
4, 204960, Note_on_c, 0, 65, 0
4, 204960, Note_on_c, 0, 62, 0
4, 204960, Note_on_c, 0, 62, 57
4, 204960, Note_on_c, 0, 65, 57
4, 204960, Note_on_c, 0, 74, 57
4, 205440, Note_on_c, 0, 74, 0
4, 205440, Note_on_c, 0, 65, 0
4, 205440, Note_on_c, 0, 62, 0
4, 205440, Note_on_c, 0, 62, 57
4, 205440, Note_on_c, 0, 65, 57
4, 205440, Note_on_c, 0, 68, 57
4, 205920, Note_on_c, 0, 68, 0
4, 205920, Note_on_c, 0, 65, 0
4, 205920, Note_on_c, 0, 62, 0
4, 205920, Note_on_c, 0, 62, 70
4, 205920, Note_on_c, 0, 65, 70
4, 205920, Note_on_c, 0, 69, 70
4, 206400, Note_on_c, 0, 69, 0
4, 206400, Note_on_c, 0, 65, 0
4, 206400, Note_on_c, 0, 62, 0
4, 206400, Note_on_c, 0, 65, 70
4, 206400, Note_on_c, 0, 69, 70
4, 206400, Note_on_c, 0, 74, 70
4, 206880, Note_on_c, 0, 74, 0
4, 206880, Note_on_c, 0, 69, 0
4, 206880, Note_on_c, 0, 65, 0
4, 206880, Note_on_c, 0, 67, 70
4, 206880, Note_on_c, 0, 73, 70
4, 206880, Note_on_c, 0, 76, 70
4, 207360, Note_on_c, 0, 76, 0
4, 207360, Note_on_c, 0, 73, 0
4, 207360, Note_on_c, 0, 67, 0
4, 207360, Note_on_c, 0, 62, 70
4, 207360, Note_on_c, 0, 65, 70
4, 207360, Note_on_c, 0, 69, 70
4, 207360, Note_on_c, 0, 74, 70
4, 207600, Note_on_c, 0, 74, 0
4, 207600, Note_on_c, 0, 62, 0
4, 207600, Note_on_c, 0, 65, 0
4, 207600, Note_on_c, 0, 69, 0
4, 207600, Note_on_c, 0, 62, 57
4, 207600, Note_on_c, 0, 65, 57
4, 208080, Note_on_c, 0, 65, 0
4, 208080, Note_on_c, 0, 62, 0
4, 208080, Note_on_c, 0, 62, 57
4, 208080, Note_on_c, 0, 65, 57
4, 208560, Note_on_c, 0, 65, 0
4, 208560, Note_on_c, 0, 62, 0
4, 208560, Note_on_c, 0, 62, 57
4, 208560, Note_on_c, 0, 65, 57
4, 209040, Note_on_c, 0, 65, 0
4, 209040, Note_on_c, 0, 62, 0
4, 209040, Note_on_c, 0, 62, 57
4, 209040, Note_on_c, 0, 65, 57
4, 209520, Note_on_c, 0, 65, 0
4, 209520, Note_on_c, 0, 62, 0
4, 209520, Note_on_c, 0, 62, 57
4, 209520, Note_on_c, 0, 65, 57
4, 210000, Note_on_c, 0, 65, 0
4, 210000, Note_on_c, 0, 62, 0
4, 210000, Note_on_c, 0, 62, 57
4, 210000, Note_on_c, 0, 65, 57
4, 210240, Note_on_c, 0, 65, 0
4, 210240, Note_on_c, 0, 62, 0
4, 210240, Note_on_c, 0, 60, 57
4, 210240, Note_on_c, 0, 63, 57
4, 210480, Note_on_c, 0, 63, 0
4, 210480, Note_on_c, 0, 60, 0
4, 210480, Note_on_c, 0, 60, 57
4, 210480, Note_on_c, 0, 63, 57
4, 210960, Note_on_c, 0, 63, 0
4, 210960, Note_on_c, 0, 60, 0
4, 210960, Note_on_c, 0, 60, 57
4, 210960, Note_on_c, 0, 63, 57
4, 211440, Note_on_c, 0, 63, 0
4, 211440, Note_on_c, 0, 60, 0
4, 211440, Note_on_c, 0, 60, 57
4, 211440, Note_on_c, 0, 63, 57
4, 211920, Note_on_c, 0, 63, 0
4, 211920, Note_on_c, 0, 60, 0
4, 211920, Note_on_c, 0, 60, 57
4, 211920, Note_on_c, 0, 63, 57
4, 212400, Note_on_c, 0, 63, 0
4, 212400, Note_on_c, 0, 60, 0
4, 212400, Note_on_c, 0, 60, 57
4, 212400, Note_on_c, 0, 63, 57
4, 212880, Note_on_c, 0, 63, 0
4, 212880, Note_on_c, 0, 60, 0
4, 212880, Note_on_c, 0, 60, 57
4, 212880, Note_on_c, 0, 63, 57
4, 213120, Note_on_c, 0, 63, 0
4, 213120, Note_on_c, 0, 60, 0
4, 213120, Note_on_c, 0, 58, 57
4, 213120, Note_on_c, 0, 61, 57
4, 213360, Note_on_c, 0, 61, 0
4, 213360, Note_on_c, 0, 58, 0
4, 213360, Note_on_c, 0, 58, 57
4, 213360, Note_on_c, 0, 61, 57
4, 213840, Note_on_c, 0, 61, 0
4, 213840, Note_on_c, 0, 58, 0
4, 213840, Note_on_c, 0, 58, 57
4, 213840, Note_on_c, 0, 61, 57
4, 214320, Note_on_c, 0, 61, 0
4, 214320, Note_on_c, 0, 58, 0
4, 214320, Note_on_c, 0, 58, 57
4, 214320, Note_on_c, 0, 61, 57
4, 214800, Note_on_c, 0, 61, 0
4, 214800, Note_on_c, 0, 58, 0
4, 223200, Note_on_c, 0, 90, 83
4, 223223, Note_on_c, 0, 90, 0
4, 223320, Note_on_c, 0, 89, 83
4, 223343, Note_on_c, 0, 89, 0
4, 223440, Note_on_c, 0, 87, 83
4, 223463, Note_on_c, 0, 87, 0
4, 223560, Note_on_c, 0, 85, 83
4, 223583, Note_on_c, 0, 85, 0
4, 223680, Note_on_c, 0, 84, 83
4, 223703, Note_on_c, 0, 84, 0
4, 223800, Note_on_c, 0, 82, 83
4, 223823, Note_on_c, 0, 82, 0
4, 223920, Note_on_c, 0, 81, 83
4, 223943, Note_on_c, 0, 81, 0
4, 224040, Note_on_c, 0, 78, 83
4, 224063, Note_on_c, 0, 78, 0
4, 224160, Note_on_c, 0, 77, 83
4, 224183, Note_on_c, 0, 77, 0
4, 224280, Note_on_c, 0, 75, 83
4, 224303, Note_on_c, 0, 75, 0
4, 224400, Note_on_c, 0, 73, 83
4, 224423, Note_on_c, 0, 73, 0
4, 224520, Note_on_c, 0, 72, 83
4, 224543, Note_on_c, 0, 72, 0
4, 226080, Note_on_c, 0, 78, 83
4, 226103, Note_on_c, 0, 78, 0
4, 226200, Note_on_c, 0, 77, 83
4, 226223, Note_on_c, 0, 77, 0
4, 226320, Note_on_c, 0, 75, 83
4, 226343, Note_on_c, 0, 75, 0
4, 226440, Note_on_c, 0, 73, 83
4, 226463, Note_on_c, 0, 73, 0
4, 226560, Note_on_c, 0, 72, 83
4, 226583, Note_on_c, 0, 72, 0
4, 226680, Note_on_c, 0, 70, 83
4, 226703, Note_on_c, 0, 70, 0
4, 226800, Note_on_c, 0, 69, 83
4, 226823, Note_on_c, 0, 69, 0
4, 226920, Note_on_c, 0, 66, 83
4, 226943, Note_on_c, 0, 66, 0
4, 227040, Note_on_c, 0, 65, 83
4, 227063, Note_on_c, 0, 65, 0
4, 227160, Note_on_c, 0, 63, 83
4, 227183, Note_on_c, 0, 63, 0
4, 227280, Note_on_c, 0, 61, 83
4, 227303, Note_on_c, 0, 61, 0
4, 227400, Note_on_c, 0, 60, 83
4, 227423, Note_on_c, 0, 60, 0
4, 227520, Note_on_c, 0, 58, 70
4, 227760, Note_on_c, 0, 58, 0
4, 227760, Note_on_c, 0, 53, 70
4, 227760, Note_on_c, 0, 65, 70
4, 228000, Note_on_c, 0, 65, 0
4, 228000, Note_on_c, 0, 53, 0
4, 228000, Note_on_c, 0, 58, 70
4, 228000, Note_on_c, 0, 70, 70
4, 228240, Note_on_c, 0, 70, 0
4, 228240, Note_on_c, 0, 58, 0
4, 228240, Note_on_c, 0, 60, 70
4, 228240, Note_on_c, 0, 72, 70
4, 228480, Note_on_c, 0, 72, 0
4, 228480, Note_on_c, 0, 60, 0
4, 228480, Note_on_c, 0, 61, 70
4, 228480, Note_on_c, 0, 73, 70
4, 228720, Note_on_c, 0, 73, 0
4, 228720, Note_on_c, 0, 61, 0
4, 228720, Note_on_c, 0, 65, 70
4, 228720, Note_on_c, 0, 77, 70
4, 228960, Note_on_c, 0, 77, 0
4, 228960, Note_on_c, 0, 65, 0
4, 228960, Note_on_c, 0, 70, 70
4, 228960, Note_on_c, 0, 82, 70
4, 229200, Note_on_c, 0, 82, 0
4, 229200, Note_on_c, 0, 70, 0
4, 229200, Note_on_c, 0, 73, 70
4, 229200, Note_on_c, 0, 85, 70
4, 229440, Note_on_c, 0, 85, 0
4, 229440, Note_on_c, 0, 73, 0
4, 229440, Note_on_c, 0, 77, 70
4, 229440, Note_on_c, 0, 89, 70
4, 230520, Note_on_c, 0, 89, 0
4, 230520, Note_on_c, 0, 77, 0
4, 230520, Note_on_c, 0, 90, 70
4, 230640, Note_on_c, 0, 90, 0
4, 230640, Note_on_c, 0, 89, 70
4, 230760, Note_on_c, 0, 89, 0
4, 230760, Note_on_c, 0, 90, 70
4, 230880, Note_on_c, 0, 90, 0
4, 230880, Note_on_c, 0, 89, 70
4, 231000, Note_on_c, 0, 89, 0
4, 231000, Note_on_c, 0, 90, 70
4, 231120, Note_on_c, 0, 90, 0
4, 231120, Note_on_c, 0, 89, 70
4, 231240, Note_on_c, 0, 89, 0
4, 231240, Note_on_c, 0, 90, 70
4, 231360, Note_on_c, 0, 90, 0
4, 231360, Note_on_c, 0, 77, 70
4, 231360, Note_on_c, 0, 89, 70
4, 231960, Note_on_c, 0, 89, 0
4, 231960, Note_on_c, 0, 77, 0
4, 231960, Note_on_c, 0, 90, 70
4, 232080, Note_on_c, 0, 90, 0
4, 232080, Note_on_c, 0, 89, 70
4, 232200, Note_on_c, 0, 89, 0
4, 232200, Note_on_c, 0, 90, 70
4, 232320, Note_on_c, 0, 90, 0
4, 232320, Note_on_c, 0, 89, 70
4, 232440, Note_on_c, 0, 89, 0
4, 232440, Note_on_c, 0, 90, 70
4, 232560, Note_on_c, 0, 90, 0
4, 232560, Note_on_c, 0, 89, 70
4, 232680, Note_on_c, 0, 89, 0
4, 232680, Note_on_c, 0, 90, 70
4, 232800, Note_on_c, 0, 90, 0
4, 232800, Note_on_c, 0, 77, 70
4, 232800, Note_on_c, 0, 89, 70
4, 233520, Note_on_c, 0, 89, 0
4, 233520, Note_on_c, 0, 77, 0
4, 233520, Note_on_c, 0, 53, 70
4, 233520, Note_on_c, 0, 65, 70
4, 233760, Note_on_c, 0, 65, 0
4, 233760, Note_on_c, 0, 53, 0
4, 233760, Note_on_c, 0, 58, 70
4, 233760, Note_on_c, 0, 70, 70
4, 234000, Note_on_c, 0, 70, 0
4, 234000, Note_on_c, 0, 58, 0
4, 234000, Note_on_c, 0, 60, 70
4, 234000, Note_on_c, 0, 72, 70
4, 234240, Note_on_c, 0, 72, 0
4, 234240, Note_on_c, 0, 60, 0
4, 234240, Note_on_c, 0, 61, 70
4, 234240, Note_on_c, 0, 73, 70
4, 234480, Note_on_c, 0, 73, 0
4, 234480, Note_on_c, 0, 61, 0
4, 234480, Note_on_c, 0, 65, 70
4, 234480, Note_on_c, 0, 77, 70
4, 234720, Note_on_c, 0, 77, 0
4, 234720, Note_on_c, 0, 65, 0
4, 234720, Note_on_c, 0, 70, 70
4, 234720, Note_on_c, 0, 82, 70
4, 234960, Note_on_c, 0, 82, 0
4, 234960, Note_on_c, 0, 70, 0
4, 234960, Note_on_c, 0, 73, 70
4, 234960, Note_on_c, 0, 85, 70
4, 235200, Note_on_c, 0, 85, 0
4, 235200, Note_on_c, 0, 73, 0
4, 235200, Note_on_c, 0, 77, 70
4, 235200, Note_on_c, 0, 89, 70
4, 236280, Note_on_c, 0, 89, 0
4, 236280, Note_on_c, 0, 77, 0
4, 236280, Note_on_c, 0, 90, 70
4, 236400, Note_on_c, 0, 90, 0
4, 236400, Note_on_c, 0, 89, 70
4, 236520, Note_on_c, 0, 89, 0
4, 236520, Note_on_c, 0, 90, 70
4, 236640, Note_on_c, 0, 90, 0
4, 236640, Note_on_c, 0, 89, 70
4, 236760, Note_on_c, 0, 89, 0
4, 236760, Note_on_c, 0, 90, 70
4, 236880, Note_on_c, 0, 90, 0
4, 236880, Note_on_c, 0, 89, 70
4, 237000, Note_on_c, 0, 89, 0
4, 237000, Note_on_c, 0, 90, 70
4, 237120, Note_on_c, 0, 90, 0
4, 237120, Note_on_c, 0, 89, 70
4, 237240, Note_on_c, 0, 89, 0
4, 237240, Note_on_c, 0, 90, 70
4, 237360, Note_on_c, 0, 90, 0
4, 237360, Note_on_c, 0, 88, 70
4, 237480, Note_on_c, 0, 88, 0
4, 237480, Note_on_c, 0, 89, 70
4, 237600, Note_on_c, 0, 89, 0
4, 237600, Note_on_c, 0, 94, 70
4, 237840, Note_on_c, 0, 94, 0
4, 237840, Note_on_c, 0, 58, 57
4, 237840, Note_on_c, 0, 61, 57
4, 237840, Note_on_c, 0, 65, 57
4, 237887, Note_on_c, 0, 65, 0
4, 237887, Note_on_c, 0, 61, 0
4, 237887, Note_on_c, 0, 58, 0
4, 238080, Note_on_c, 0, 58, 83
4, 238080, Note_on_c, 0, 70, 83
4, 238440, Note_on_c, 0, 70, 0
4, 238440, Note_on_c, 0, 58, 0
4, 238440, Note_on_c, 0, 72, 70
4, 238500, Note_on_c, 0, 72, 0
4, 238500, Note_on_c, 0, 70, 70
4, 238560, Note_on_c, 0, 70, 0
4, 238560, Note_on_c, 0, 60, 70
4, 238560, Note_on_c, 0, 65, 70
4, 238560, Note_on_c, 0, 68, 70
4, 238607, Note_on_c, 0, 68, 0
4, 238607, Note_on_c, 0, 65, 0
4, 238607, Note_on_c, 0, 60, 0
4, 238800, Note_on_c, 0, 54, 70
4, 238800, Note_on_c, 0, 56, 70
4, 238800, Note_on_c, 0, 60, 70
4, 238847, Note_on_c, 0, 60, 0
4, 238847, Note_on_c, 0, 56, 0
4, 238847, Note_on_c, 0, 54, 0
4, 239040, Note_on_c, 0, 53, 70
4, 239040, Note_on_c, 0, 56, 70
4, 239040, Note_on_c, 0, 61, 70
4, 239087, Note_on_c, 0, 61, 0
4, 239087, Note_on_c, 0, 56, 0
4, 239087, Note_on_c, 0, 53, 0
4, 240480, Note_on_c, 0, 77, 83
4, 240480, Note_on_c, 0, 80, 83
4, 240527, Note_on_c, 0, 80, 0
4, 240527, Note_on_c, 0, 77, 0
4, 240720, Note_on_c, 0, 89, 83
4, 240720, Note_on_c, 0, 92, 83
4, 240767, Note_on_c, 0, 92, 0
4, 240767, Note_on_c, 0, 89, 0
4, 240960, Note_on_c, 0, 90, 109
4, 240960, Note_on_c, 0, 94, 109
4, 241320, Note_on_c, 0, 94, 0
4, 241320, Note_on_c, 0, 90, 0
4, 241320, Note_on_c, 0, 89, 83
4, 241320, Note_on_c, 0, 92, 83
4, 241380, Note_on_c, 0, 92, 0
4, 241380, Note_on_c, 0, 89, 0
4, 241380, Note_on_c, 0, 94, 83
4, 241440, Note_on_c, 0, 94, 0
4, 241440, Note_on_c, 0, 89, 83
4, 241440, Note_on_c, 0, 92, 83
4, 241487, Note_on_c, 0, 92, 0
4, 241487, Note_on_c, 0, 89, 0
4, 241680, Note_on_c, 0, 87, 83
4, 241680, Note_on_c, 0, 90, 83
4, 241727, Note_on_c, 0, 90, 0
4, 241727, Note_on_c, 0, 87, 0
4, 241920, Note_on_c, 0, 85, 83
4, 241920, Note_on_c, 0, 89, 83
4, 241967, Note_on_c, 0, 89, 0
4, 241967, Note_on_c, 0, 85, 0
4, 242160, Note_on_c, 0, 83, 83
4, 242160, Note_on_c, 0, 86, 83
4, 242207, Note_on_c, 0, 86, 0
4, 242207, Note_on_c, 0, 83, 0
4, 242400, Note_on_c, 0, 84, 83
4, 242400, Note_on_c, 0, 87, 83
4, 242447, Note_on_c, 0, 87, 0
4, 242447, Note_on_c, 0, 84, 0
4, 242640, Note_on_c, 0, 80, 83
4, 242640, Note_on_c, 0, 84, 83
4, 242687, Note_on_c, 0, 84, 0
4, 242687, Note_on_c, 0, 80, 0
4, 242880, Note_on_c, 0, 82, 83
4, 242880, Note_on_c, 0, 85, 83
4, 242927, Note_on_c, 0, 85, 0
4, 242927, Note_on_c, 0, 82, 0
4, 243120, Note_on_c, 0, 84, 83
4, 243120, Note_on_c, 0, 87, 83
4, 243167, Note_on_c, 0, 87, 0
4, 243167, Note_on_c, 0, 84, 0
4, 243360, Note_on_c, 0, 85, 83
4, 243360, Note_on_c, 0, 89, 83
4, 243407, Note_on_c, 0, 89, 0
4, 243407, Note_on_c, 0, 85, 0
4, 243600, Note_on_c, 0, 89, 83
4, 243600, Note_on_c, 0, 92, 83
4, 243647, Note_on_c, 0, 92, 0
4, 243647, Note_on_c, 0, 89, 0
4, 243840, Note_on_c, 0, 90, 109
4, 243840, Note_on_c, 0, 94, 109
4, 244200, Note_on_c, 0, 94, 0
4, 244200, Note_on_c, 0, 90, 0
4, 244200, Note_on_c, 0, 89, 83
4, 244200, Note_on_c, 0, 92, 83
4, 244260, Note_on_c, 0, 92, 0
4, 244260, Note_on_c, 0, 89, 0
4, 244260, Note_on_c, 0, 94, 83
4, 244320, Note_on_c, 0, 94, 0
4, 244320, Note_on_c, 0, 89, 83
4, 244320, Note_on_c, 0, 92, 83
4, 244367, Note_on_c, 0, 92, 0
4, 244367, Note_on_c, 0, 89, 0
4, 244560, Note_on_c, 0, 87, 83
4, 244560, Note_on_c, 0, 90, 83
4, 244607, Note_on_c, 0, 90, 0
4, 244607, Note_on_c, 0, 87, 0
4, 244800, Note_on_c, 0, 85, 83
4, 244800, Note_on_c, 0, 89, 83
4, 244847, Note_on_c, 0, 89, 0
4, 244847, Note_on_c, 0, 85, 0
4, 245040, Note_on_c, 0, 84, 83
4, 245040, Note_on_c, 0, 87, 83
4, 245087, Note_on_c, 0, 87, 0
4, 245087, Note_on_c, 0, 84, 0
4, 245280, Note_on_c, 0, 82, 83
4, 245280, Note_on_c, 0, 85, 83
4, 245327, Note_on_c, 0, 85, 0
4, 245327, Note_on_c, 0, 82, 0
4, 245520, Note_on_c, 0, 84, 83
4, 245520, Note_on_c, 0, 87, 83
4, 245567, Note_on_c, 0, 87, 0
4, 245567, Note_on_c, 0, 84, 0
4, 245760, Note_on_c, 0, 85, 83
4, 245760, Note_on_c, 0, 89, 83
4, 245807, Note_on_c, 0, 89, 0
4, 245807, Note_on_c, 0, 85, 0
4, 246000, Note_on_c, 0, 84, 83
4, 246000, Note_on_c, 0, 87, 83
4, 246047, Note_on_c, 0, 87, 0
4, 246047, Note_on_c, 0, 84, 0
4, 246240, Note_on_c, 0, 82, 83
4, 246240, Note_on_c, 0, 85, 83
4, 246287, Note_on_c, 0, 85, 0
4, 246287, Note_on_c, 0, 82, 0
4, 246480, Note_on_c, 0, 84, 83
4, 246480, Note_on_c, 0, 87, 83
4, 246527, Note_on_c, 0, 87, 0
4, 246527, Note_on_c, 0, 84, 0
4, 246720, Note_on_c, 0, 85, 83
4, 246720, Note_on_c, 0, 89, 83
4, 246767, Note_on_c, 0, 89, 0
4, 246767, Note_on_c, 0, 85, 0
4, 246960, Note_on_c, 0, 85, 83
4, 246960, Note_on_c, 0, 89, 83
4, 247007, Note_on_c, 0, 89, 0
4, 247007, Note_on_c, 0, 85, 0
4, 247200, Note_on_c, 0, 85, 83
4, 247200, Note_on_c, 0, 89, 83
4, 247247, Note_on_c, 0, 89, 0
4, 247247, Note_on_c, 0, 85, 0
4, 247440, Note_on_c, 0, 85, 83
4, 247440, Note_on_c, 0, 89, 83
4, 247487, Note_on_c, 0, 89, 0
4, 247487, Note_on_c, 0, 85, 0
4, 247680, Note_on_c, 0, 61, 83
4, 247680, Note_on_c, 0, 65, 83
4, 247727, Note_on_c, 0, 65, 0
4, 247727, Note_on_c, 0, 61, 0
4, 247920, Note_on_c, 0, 61, 83
4, 247920, Note_on_c, 0, 65, 83
4, 247967, Note_on_c, 0, 65, 0
4, 247967, Note_on_c, 0, 61, 0
4, 248160, Note_on_c, 0, 61, 83
4, 248160, Note_on_c, 0, 65, 83
4, 248207, Note_on_c, 0, 65, 0
4, 248207, Note_on_c, 0, 61, 0
4, 248400, Note_on_c, 0, 61, 83
4, 248400, Note_on_c, 0, 65, 83
4, 248447, Note_on_c, 0, 65, 0
4, 248447, Note_on_c, 0, 61, 0
4, 248640, Note_on_c, 0, 73, 83
4, 248640, Note_on_c, 0, 77, 83
4, 248687, Note_on_c, 0, 77, 0
4, 248687, Note_on_c, 0, 73, 0
4, 248880, Note_on_c, 0, 72, 83
4, 248880, Note_on_c, 0, 73, 83
4, 248880, Note_on_c, 0, 77, 83
4, 248927, Note_on_c, 0, 77, 0
4, 248927, Note_on_c, 0, 73, 0
4, 248927, Note_on_c, 0, 72, 0
4, 249120, Note_on_c, 0, 70, 83
4, 249120, Note_on_c, 0, 73, 83
4, 249120, Note_on_c, 0, 77, 83
4, 249167, Note_on_c, 0, 77, 0
4, 249167, Note_on_c, 0, 73, 0
4, 249167, Note_on_c, 0, 70, 0
4, 249360, Note_on_c, 0, 69, 83
4, 249360, Note_on_c, 0, 73, 83
4, 249360, Note_on_c, 0, 77, 83
4, 249407, Note_on_c, 0, 77, 0
4, 249407, Note_on_c, 0, 73, 0
4, 249407, Note_on_c, 0, 69, 0
4, 249600, Note_on_c, 0, 73, 83
4, 249600, Note_on_c, 0, 85, 83
4, 249600, Note_on_c, 0, 89, 83
4, 249647, Note_on_c, 0, 89, 0
4, 249647, Note_on_c, 0, 85, 0
4, 249647, Note_on_c, 0, 73, 0
4, 249840, Note_on_c, 0, 72, 83
4, 249840, Note_on_c, 0, 84, 83
4, 249840, Note_on_c, 0, 85, 83
4, 249840, Note_on_c, 0, 89, 83
4, 249887, Note_on_c, 0, 89, 0
4, 249887, Note_on_c, 0, 72, 0
4, 249887, Note_on_c, 0, 84, 0
4, 249887, Note_on_c, 0, 85, 0
4, 250080, Note_on_c, 0, 70, 83
4, 250080, Note_on_c, 0, 82, 83
4, 250080, Note_on_c, 0, 85, 83
4, 250080, Note_on_c, 0, 89, 83
4, 250127, Note_on_c, 0, 89, 0
4, 250127, Note_on_c, 0, 70, 0
4, 250127, Note_on_c, 0, 82, 0
4, 250127, Note_on_c, 0, 85, 0
4, 250320, Note_on_c, 0, 69, 83
4, 250320, Note_on_c, 0, 81, 83
4, 250320, Note_on_c, 0, 85, 83
4, 250320, Note_on_c, 0, 89, 83
4, 250367, Note_on_c, 0, 89, 0
4, 250367, Note_on_c, 0, 69, 0
4, 250367, Note_on_c, 0, 81, 0
4, 250367, Note_on_c, 0, 85, 0
4, 250560, Note_on_c, 0, 58, 70
4, 250560, Note_on_c, 0, 61, 70
4, 250560, Note_on_c, 0, 65, 70
4, 250800, Note_on_c, 0, 65, 0
4, 250800, Note_on_c, 0, 61, 0
4, 250800, Note_on_c, 0, 58, 0
4, 251280, Note_on_c, 0, 58, 70
4, 251280, Note_on_c, 0, 63, 70
4, 251280, Note_on_c, 0, 66, 70
4, 251520, Note_on_c, 0, 66, 0
4, 251520, Note_on_c, 0, 63, 0
4, 251520, Note_on_c, 0, 58, 0
4, 252000, Note_on_c, 0, 58, 70
4, 252000, Note_on_c, 0, 61, 70
4, 252000, Note_on_c, 0, 65, 70
4, 252240, Note_on_c, 0, 65, 0
4, 252240, Note_on_c, 0, 61, 0
4, 252240, Note_on_c, 0, 58, 0
4, 252720, Note_on_c, 0, 58, 70
4, 252720, Note_on_c, 0, 60, 70
4, 252720, Note_on_c, 0, 63, 70
4, 252960, Note_on_c, 0, 63, 0
4, 252960, Note_on_c, 0, 60, 0
4, 252960, Note_on_c, 0, 58, 0
4, 253440, Note_on_c, 0, 58, 70
4, 253440, Note_on_c, 0, 61, 70
4, 253440, Note_on_c, 0, 65, 70
4, 253680, Note_on_c, 0, 65, 0
4, 253680, Note_on_c, 0, 61, 0
4, 253680, Note_on_c, 0, 58, 0
4, 254160, Note_on_c, 0, 58, 70
4, 254160, Note_on_c, 0, 60, 70
4, 254160, Note_on_c, 0, 63, 70
4, 254400, Note_on_c, 0, 63, 0
4, 254400, Note_on_c, 0, 60, 0
4, 254400, Note_on_c, 0, 58, 0
4, 254880, Note_on_c, 0, 58, 70
4, 254880, Note_on_c, 0, 61, 70
4, 254880, Note_on_c, 0, 65, 70
4, 255120, Note_on_c, 0, 65, 0
4, 255120, Note_on_c, 0, 61, 0
4, 255120, Note_on_c, 0, 58, 0
4, 255600, Note_on_c, 0, 58, 70
4, 255600, Note_on_c, 0, 60, 70
4, 255600, Note_on_c, 0, 63, 70
4, 255840, Note_on_c, 0, 63, 0
4, 255840, Note_on_c, 0, 60, 0
4, 255840, Note_on_c, 0, 58, 0
4, 256320, Note_on_c, 0, 58, 70
4, 256320, Note_on_c, 0, 61, 70
4, 256320, Note_on_c, 0, 65, 70
4, 256560, Note_on_c, 0, 65, 0
4, 256560, Note_on_c, 0, 61, 0
4, 256560, Note_on_c, 0, 58, 0
4, 257040, Note_on_c, 0, 58, 70
4, 257040, Note_on_c, 0, 63, 70
4, 257040, Note_on_c, 0, 66, 70
4, 257280, Note_on_c, 0, 66, 0
4, 257280, Note_on_c, 0, 63, 0
4, 257280, Note_on_c, 0, 58, 0
4, 257760, Note_on_c, 0, 58, 70
4, 257760, Note_on_c, 0, 61, 70
4, 257760, Note_on_c, 0, 65, 70
4, 258000, Note_on_c, 0, 65, 0
4, 258000, Note_on_c, 0, 61, 0
4, 258000, Note_on_c, 0, 58, 0
4, 258480, Note_on_c, 0, 58, 70
4, 258480, Note_on_c, 0, 60, 70
4, 258480, Note_on_c, 0, 63, 70
4, 258720, Note_on_c, 0, 63, 0
4, 258720, Note_on_c, 0, 60, 0
4, 258720, Note_on_c, 0, 58, 0
4, 259200, Note_on_c, 0, 58, 70
4, 259200, Note_on_c, 0, 61, 70
4, 259200, Note_on_c, 0, 65, 70
4, 259440, Note_on_c, 0, 65, 0
4, 259440, Note_on_c, 0, 61, 0
4, 259440, Note_on_c, 0, 58, 0
4, 259920, Note_on_c, 0, 58, 70
4, 259920, Note_on_c, 0, 60, 70
4, 259920, Note_on_c, 0, 63, 70
4, 260160, Note_on_c, 0, 63, 0
4, 260160, Note_on_c, 0, 60, 0
4, 260160, Note_on_c, 0, 58, 0
4, 260640, Note_on_c, 0, 53, 70
4, 260640, Note_on_c, 0, 58, 70
4, 260640, Note_on_c, 0, 61, 70
4, 260880, Note_on_c, 0, 61, 0
4, 260880, Note_on_c, 0, 58, 0
4, 260880, Note_on_c, 0, 53, 0
4, 261360, Note_on_c, 0, 51, 70
4, 261360, Note_on_c, 0, 57, 70
4, 261360, Note_on_c, 0, 60, 70
4, 261600, Note_on_c, 0, 60, 0
4, 261600, Note_on_c, 0, 57, 0
4, 261600, Note_on_c, 0, 51, 0
4, 261600, Note_on_c, 0, 49, 70
4, 261600, Note_on_c, 0, 58, 70
4, 261840, Note_on_c, 0, 58, 0
4, 261840, Note_on_c, 0, 49, 0
4, 262080, Note_on_c, 0, 70, 70
4, 262560, Note_on_c, 0, 70, 0
4, 262560, Note_on_c, 0, 71, 70
4, 263040, Note_on_c, 0, 71, 0
4, 263040, Note_on_c, 0, 70, 70
4, 263520, Note_on_c, 0, 70, 0
4, 263520, Note_on_c, 0, 58, 70
4, 263520, Note_on_c, 0, 70, 70
4, 264480, Note_on_c, 0, 70, 0
4, 264480, Note_on_c, 0, 58, 0
4, 264480, Note_on_c, 0, 58, 70
4, 264480, Note_on_c, 0, 70, 70
4, 264720, Note_on_c, 0, 70, 0
4, 264720, Note_on_c, 0, 58, 0
4, 264720, Note_on_c, 0, 56, 70
4, 264720, Note_on_c, 0, 71, 70
4, 264960, Note_on_c, 0, 71, 0
4, 264960, Note_on_c, 0, 56, 0
4, 264960, Note_on_c, 0, 58, 70
4, 264960, Note_on_c, 0, 73, 70
4, 265200, Note_on_c, 0, 73, 0
4, 265200, Note_on_c, 0, 58, 0
4, 265200, Note_on_c, 0, 59, 70
4, 265200, Note_on_c, 0, 75, 70
4, 265440, Note_on_c, 0, 75, 0
4, 265440, Note_on_c, 0, 59, 0
4, 265440, Note_on_c, 0, 61, 70
4, 265440, Note_on_c, 0, 70, 70
4, 265920, Note_on_c, 0, 70, 0
4, 265920, Note_on_c, 0, 61, 0
4, 265920, Note_on_c, 0, 59, 70
4, 265920, Note_on_c, 0, 65, 70
4, 265920, Note_on_c, 0, 68, 70
4, 266400, Note_on_c, 0, 68, 0
4, 266400, Note_on_c, 0, 65, 0
4, 266400, Note_on_c, 0, 59, 0
4, 266400, Note_on_c, 0, 58, 70
4, 266400, Note_on_c, 0, 61, 70
4, 266400, Note_on_c, 0, 66, 70
4, 266640, Note_on_c, 0, 66, 0
4, 266640, Note_on_c, 0, 61, 0
4, 266640, Note_on_c, 0, 58, 0
4, 266640, Note_on_c, 0, 61, 70
4, 266640, Note_on_c, 0, 66, 70
4, 266640, Note_on_c, 0, 70, 70
4, 266687, Note_on_c, 0, 70, 0
4, 266687, Note_on_c, 0, 66, 0
4, 266687, Note_on_c, 0, 61, 0
4, 266880, Note_on_c, 0, 66, 70
4, 266880, Note_on_c, 0, 70, 70
4, 266880, Note_on_c, 0, 73, 70
4, 266927, Note_on_c, 0, 73, 0
4, 266927, Note_on_c, 0, 70, 0
4, 266927, Note_on_c, 0, 66, 0
4, 267120, Note_on_c, 0, 70, 70
4, 267120, Note_on_c, 0, 73, 70
4, 267120, Note_on_c, 0, 78, 70
4, 267167, Note_on_c, 0, 78, 0
4, 267167, Note_on_c, 0, 73, 0
4, 267167, Note_on_c, 0, 70, 0
4, 267360, Note_on_c, 0, 73, 70
4, 267360, Note_on_c, 0, 78, 70
4, 267360, Note_on_c, 0, 82, 70
4, 267407, Note_on_c, 0, 82, 0
4, 267407, Note_on_c, 0, 78, 0
4, 267407, Note_on_c, 0, 73, 0
4, 267600, Note_on_c, 0, 78, 70
4, 267600, Note_on_c, 0, 82, 70
4, 267600, Note_on_c, 0, 85, 70
4, 267647, Note_on_c, 0, 85, 0
4, 267647, Note_on_c, 0, 82, 0
4, 267647, Note_on_c, 0, 78, 0
4, 267840, Note_on_c, 0, 82, 70
4, 267840, Note_on_c, 0, 85, 70
4, 267840, Note_on_c, 0, 90, 70
4, 267887, Note_on_c, 0, 90, 0
4, 267887, Note_on_c, 0, 85, 0
4, 267887, Note_on_c, 0, 82, 0
4, 269280, Note_on_c, 0, 76, 70
4, 269280, Note_on_c, 0, 79, 70
4, 269327, Note_on_c, 0, 79, 0
4, 269327, Note_on_c, 0, 76, 0
4, 269520, Note_on_c, 0, 88, 70
4, 269520, Note_on_c, 0, 91, 70
4, 269567, Note_on_c, 0, 91, 0
4, 269567, Note_on_c, 0, 88, 0
4, 269760, Note_on_c, 0, 85, 96
4, 269760, Note_on_c, 0, 88, 96
4, 270240, Note_on_c, 0, 88, 0
4, 270240, Note_on_c, 0, 85, 0
4, 270240, Note_on_c, 0, 83, 70
4, 270240, Note_on_c, 0, 86, 70
4, 270600, Note_on_c, 0, 86, 0
4, 270600, Note_on_c, 0, 83, 0
4, 270600, Note_on_c, 0, 82, 70
4, 270600, Note_on_c, 0, 85, 70
4, 270720, Note_on_c, 0, 85, 0
4, 270720, Note_on_c, 0, 82, 0
4, 270720, Note_on_c, 0, 82, 70
4, 270720, Note_on_c, 0, 85, 70
4, 270960, Note_on_c, 0, 85, 0
4, 270960, Note_on_c, 0, 82, 0
4, 272160, Note_on_c, 0, 64, 70
4, 272160, Note_on_c, 0, 67, 70
4, 272207, Note_on_c, 0, 67, 0
4, 272207, Note_on_c, 0, 64, 0
4, 272400, Note_on_c, 0, 76, 70
4, 272400, Note_on_c, 0, 79, 70
4, 272447, Note_on_c, 0, 79, 0
4, 272447, Note_on_c, 0, 76, 0
4, 272640, Note_on_c, 0, 73, 96
4, 272640, Note_on_c, 0, 76, 96
4, 273120, Note_on_c, 0, 76, 0
4, 273120, Note_on_c, 0, 73, 0
4, 273120, Note_on_c, 0, 71, 70
4, 273120, Note_on_c, 0, 74, 70
4, 273480, Note_on_c, 0, 74, 0
4, 273480, Note_on_c, 0, 71, 0
4, 273480, Note_on_c, 0, 70, 70
4, 273480, Note_on_c, 0, 73, 70
4, 273600, Note_on_c, 0, 73, 0
4, 273600, Note_on_c, 0, 70, 0
4, 273600, Note_on_c, 0, 70, 70
4, 273600, Note_on_c, 0, 73, 70
4, 273840, Note_on_c, 0, 73, 0
4, 273840, Note_on_c, 0, 70, 0
4, 275040, Note_on_c, 0, 67, 70
4, 276480, Note_on_c, 0, 67, 0
4, 276480, Note_on_c, 0, 69, 70
4, 277920, Note_on_c, 0, 69, 0
4, 277920, Note_on_c, 0, 71, 70
4, 279360, Note_on_c, 0, 71, 0
4, 279360, Note_on_c, 0, 72, 70
4, 279840, Note_on_c, 0, 72, 0
4, 279840, Note_on_c, 0, 73, 70
4, 280320, Note_on_c, 0, 73, 0
4, 280320, Note_on_c, 0, 72, 70
4, 280800, Note_on_c, 0, 72, 0
4, 280800, Note_on_c, 0, 60, 70
4, 280800, Note_on_c, 0, 72, 70
4, 281760, Note_on_c, 0, 72, 0
4, 281760, Note_on_c, 0, 60, 0
4, 281760, Note_on_c, 0, 60, 70
4, 281760, Note_on_c, 0, 72, 70
4, 282000, Note_on_c, 0, 72, 0
4, 282000, Note_on_c, 0, 60, 0
4, 282000, Note_on_c, 0, 58, 70
4, 282000, Note_on_c, 0, 73, 70
4, 282240, Note_on_c, 0, 73, 0
4, 282240, Note_on_c, 0, 58, 0
4, 282240, Note_on_c, 0, 60, 70
4, 282240, Note_on_c, 0, 75, 70
4, 282480, Note_on_c, 0, 75, 0
4, 282480, Note_on_c, 0, 60, 0
4, 282480, Note_on_c, 0, 61, 70
4, 282480, Note_on_c, 0, 77, 70
4, 282720, Note_on_c, 0, 77, 0
4, 282720, Note_on_c, 0, 61, 0
4, 282720, Note_on_c, 0, 63, 70
4, 282720, Note_on_c, 0, 72, 70
4, 283200, Note_on_c, 0, 72, 0
4, 283200, Note_on_c, 0, 63, 0
4, 283200, Note_on_c, 0, 61, 70
4, 283200, Note_on_c, 0, 67, 70
4, 283200, Note_on_c, 0, 70, 70
4, 283680, Note_on_c, 0, 70, 0
4, 283680, Note_on_c, 0, 67, 0
4, 283680, Note_on_c, 0, 61, 0
4, 283680, Note_on_c, 0, 60, 70
4, 283680, Note_on_c, 0, 63, 70
4, 283680, Note_on_c, 0, 68, 70
4, 283920, Note_on_c, 0, 68, 0
4, 283920, Note_on_c, 0, 63, 0
4, 283920, Note_on_c, 0, 60, 0
4, 283920, Note_on_c, 0, 63, 70
4, 283920, Note_on_c, 0, 68, 70
4, 283920, Note_on_c, 0, 72, 70
4, 283967, Note_on_c, 0, 72, 0
4, 283967, Note_on_c, 0, 68, 0
4, 283967, Note_on_c, 0, 63, 0
4, 284160, Note_on_c, 0, 68, 70
4, 284160, Note_on_c, 0, 72, 70
4, 284160, Note_on_c, 0, 75, 70
4, 284207, Note_on_c, 0, 75, 0
4, 284207, Note_on_c, 0, 72, 0
4, 284207, Note_on_c, 0, 68, 0
4, 284400, Note_on_c, 0, 72, 70
4, 284400, Note_on_c, 0, 75, 70
4, 284400, Note_on_c, 0, 80, 70
4, 284447, Note_on_c, 0, 80, 0
4, 284447, Note_on_c, 0, 75, 0
4, 284447, Note_on_c, 0, 72, 0
4, 284640, Note_on_c, 0, 75, 70
4, 284640, Note_on_c, 0, 80, 70
4, 284640, Note_on_c, 0, 84, 70
4, 284687, Note_on_c, 0, 84, 0
4, 284687, Note_on_c, 0, 80, 0
4, 284687, Note_on_c, 0, 75, 0
4, 284880, Note_on_c, 0, 80, 70
4, 284880, Note_on_c, 0, 84, 70
4, 284880, Note_on_c, 0, 87, 70
4, 284927, Note_on_c, 0, 87, 0
4, 284927, Note_on_c, 0, 84, 0
4, 284927, Note_on_c, 0, 80, 0
4, 285120, Note_on_c, 0, 84, 70
4, 285120, Note_on_c, 0, 87, 70
4, 285120, Note_on_c, 0, 92, 70
4, 285167, Note_on_c, 0, 92, 0
4, 285167, Note_on_c, 0, 87, 0
4, 285167, Note_on_c, 0, 84, 0
4, 286560, Note_on_c, 0, 78, 70
4, 286560, Note_on_c, 0, 81, 70
4, 286607, Note_on_c, 0, 81, 0
4, 286607, Note_on_c, 0, 78, 0
4, 286800, Note_on_c, 0, 90, 70
4, 286800, Note_on_c, 0, 93, 70
4, 286847, Note_on_c, 0, 93, 0
4, 286847, Note_on_c, 0, 90, 0
4, 287040, Note_on_c, 0, 87, 96
4, 287040, Note_on_c, 0, 90, 96
4, 287520, Note_on_c, 0, 90, 0
4, 287520, Note_on_c, 0, 87, 0
4, 287520, Note_on_c, 0, 85, 70
4, 287520, Note_on_c, 0, 88, 70
4, 287880, Note_on_c, 0, 88, 0
4, 287880, Note_on_c, 0, 85, 0
4, 287880, Note_on_c, 0, 84, 70
4, 287880, Note_on_c, 0, 87, 70
4, 288000, Note_on_c, 0, 87, 0
4, 288000, Note_on_c, 0, 84, 0
4, 288000, Note_on_c, 0, 84, 70
4, 288000, Note_on_c, 0, 87, 70
4, 288047, Note_on_c, 0, 87, 0
4, 288047, Note_on_c, 0, 84, 0
4, 289440, Note_on_c, 0, 66, 70
4, 289440, Note_on_c, 0, 69, 70
4, 289487, Note_on_c, 0, 69, 0
4, 289487, Note_on_c, 0, 66, 0
4, 289680, Note_on_c, 0, 78, 70
4, 289680, Note_on_c, 0, 81, 70
4, 289727, Note_on_c, 0, 81, 0
4, 289727, Note_on_c, 0, 78, 0
4, 289920, Note_on_c, 0, 75, 96
4, 289920, Note_on_c, 0, 78, 96
4, 290400, Note_on_c, 0, 78, 0
4, 290400, Note_on_c, 0, 75, 0
4, 290400, Note_on_c, 0, 73, 70
4, 290400, Note_on_c, 0, 76, 70
4, 290760, Note_on_c, 0, 76, 0
4, 290760, Note_on_c, 0, 73, 0
4, 290760, Note_on_c, 0, 72, 70
4, 290760, Note_on_c, 0, 75, 70
4, 290880, Note_on_c, 0, 75, 0
4, 290880, Note_on_c, 0, 72, 0
4, 290880, Note_on_c, 0, 72, 70
4, 290880, Note_on_c, 0, 75, 70
4, 290927, Note_on_c, 0, 75, 0
4, 290927, Note_on_c, 0, 72, 0
4, 292320, Note_on_c, 0, 69, 70
4, 293760, Note_on_c, 0, 69, 0
4, 293760, Note_on_c, 0, 71, 70
4, 295200, Note_on_c, 0, 71, 0
4, 295200, Note_on_c, 0, 72, 70
4, 296640, Note_on_c, 0, 72, 0
4, 296640, Note_on_c, 0, 73, 70
4, 298080, Note_on_c, 0, 73, 0
4, 298080, Note_on_c, 0, 75, 70
4, 299040, Note_on_c, 0, 75, 0
4, 299040, Note_on_c, 0, 65, 70
4, 299040, Note_on_c, 0, 69, 70
4, 299040, Note_on_c, 0, 72, 70
4, 299040, Note_on_c, 0, 77, 70
4, 299520, Note_on_c, 0, 72, 0
4, 299520, Note_on_c, 0, 65, 0
4, 299520, Note_on_c, 0, 69, 0
4, 299520, Note_on_c, 0, 65, 70
4, 299520, Note_on_c, 0, 70, 70
4, 300000, Note_on_c, 0, 70, 0
4, 300000, Note_on_c, 0, 65, 0
4, 300000, Note_on_c, 0, 77, 0
4, 300000, Note_on_c, 0, 78, 70
4, 300960, Note_on_c, 0, 78, 0
4, 300960, Note_on_c, 0, 80, 70
4, 301920, Note_on_c, 0, 80, 0
4, 301920, Note_on_c, 0, 70, 70
4, 301920, Note_on_c, 0, 73, 70
4, 301920, Note_on_c, 0, 77, 70
4, 301920, Note_on_c, 0, 82, 70
4, 302400, Note_on_c, 0, 77, 0
4, 302400, Note_on_c, 0, 70, 0
4, 302400, Note_on_c, 0, 73, 0
4, 302400, Note_on_c, 0, 70, 70
4, 302400, Note_on_c, 0, 75, 70
4, 302880, Note_on_c, 0, 75, 0
4, 302880, Note_on_c, 0, 70, 0
4, 302880, Note_on_c, 0, 82, 0
4, 302880, Control_c, 0, 64, 127
4, 302880, Note_on_c, 0, 70, 83
4, 302880, Note_on_c, 0, 73, 83
4, 302880, Note_on_c, 0, 76, 83
4, 302880, Note_on_c, 0, 82, 83
4, 303840, Note_on_c, 0, 82, 0
4, 303840, Note_on_c, 0, 70, 0
4, 303840, Note_on_c, 0, 73, 0
4, 303840, Note_on_c, 0, 76, 0
4, 305280, Control_c, 0, 64, 0
4, 306960, Note_on_c, 0, 56, 57
4, 307200, Note_on_c, 0, 56, 0
4, 307200, Note_on_c, 0, 59, 57
4, 307440, Note_on_c, 0, 59, 0
4, 307440, Note_on_c, 0, 60, 57
4, 307680, Note_on_c, 0, 60, 0
4, 307680, Note_on_c, 0, 51, 57
4, 307727, Note_on_c, 0, 51, 0
4, 307920, Note_on_c, 0, 52, 57
4, 307967, Note_on_c, 0, 52, 0
4, 308160, Note_on_c, 0, 62, 57
4, 308160, Note_on_c, 0, 65, 57
4, 308207, Note_on_c, 0, 65, 0
4, 308207, Note_on_c, 0, 62, 0
4, 308400, Note_on_c, 0, 60, 57
4, 308400, Note_on_c, 0, 63, 57
4, 308447, Note_on_c, 0, 63, 0
4, 308447, Note_on_c, 0, 60, 0
4, 308640, Note_on_c, 0, 58, 57
4, 308640, Note_on_c, 0, 62, 57
4, 308687, Note_on_c, 0, 62, 0
4, 308687, Note_on_c, 0, 58, 0
4, 308880, Note_on_c, 0, 56, 57
4, 308880, Note_on_c, 0, 60, 57
4, 308927, Note_on_c, 0, 60, 0
4, 308927, Note_on_c, 0, 56, 0
4, 309120, Note_on_c, 0, 55, 57
4, 309120, Note_on_c, 0, 59, 57
4, 309167, Note_on_c, 0, 59, 0
4, 309167, Note_on_c, 0, 55, 0
4, 309360, Note_on_c, 0, 55, 57
4, 309360, Note_on_c, 0, 62, 57
4, 309407, Note_on_c, 0, 62, 0
4, 309407, Note_on_c, 0, 55, 0
4, 309600, Note_on_c, 0, 51, 57
4, 309600, Note_on_c, 0, 54, 57
4, 309600, Note_on_c, 0, 60, 57
4, 309647, Note_on_c, 0, 60, 0
4, 309647, Note_on_c, 0, 54, 0
4, 309647, Note_on_c, 0, 51, 0
4, 309840, Note_on_c, 0, 41, 57
4, 310080, Note_on_c, 0, 41, 0
4, 310320, Note_on_c, 0, 55, 57
4, 310320, Note_on_c, 0, 59, 57
4, 310380, Note_on_c, 0, 59, 0
4, 310380, Note_on_c, 0, 55, 0
4, 310380, Note_on_c, 0, 57, 57
4, 310380, Note_on_c, 0, 60, 57
4, 310500, Note_on_c, 0, 60, 0
4, 310500, Note_on_c, 0, 57, 0
4, 310500, Note_on_c, 0, 59, 57
4, 310500, Note_on_c, 0, 62, 57
4, 310560, Note_on_c, 0, 62, 0
4, 310560, Note_on_c, 0, 59, 0
4, 310560, Note_on_c, 0, 60, 57
4, 310560, Note_on_c, 0, 63, 57
4, 310740, Note_on_c, 0, 63, 0
4, 310740, Note_on_c, 0, 60, 0
4, 310740, Note_on_c, 0, 63, 57
4, 310740, Note_on_c, 0, 67, 57
4, 310800, Note_on_c, 0, 67, 0
4, 310800, Note_on_c, 0, 63, 0
4, 310800, Note_on_c, 0, 62, 57
4, 310800, Note_on_c, 0, 65, 57
4, 310980, Note_on_c, 0, 65, 0
4, 310980, Note_on_c, 0, 62, 0
4, 310980, Note_on_c, 0, 65, 57
4, 310980, Note_on_c, 0, 68, 57
4, 311040, Note_on_c, 0, 68, 0
4, 311040, Note_on_c, 0, 65, 0
4, 311040, Note_on_c, 0, 63, 57
4, 311040, Note_on_c, 0, 67, 57
4, 311087, Note_on_c, 0, 67, 0
4, 311087, Note_on_c, 0, 63, 0
4, 313440, Note_on_c, 0, 52, 57
4, 313487, Note_on_c, 0, 52, 0
4, 313680, Note_on_c, 0, 53, 57
4, 313727, Note_on_c, 0, 53, 0
4, 313920, Note_on_c, 0, 63, 57
4, 313920, Note_on_c, 0, 67, 57
4, 313967, Note_on_c, 0, 67, 0
4, 313967, Note_on_c, 0, 63, 0
4, 314160, Note_on_c, 0, 62, 57
4, 314160, Note_on_c, 0, 65, 57
4, 314207, Note_on_c, 0, 65, 0
4, 314207, Note_on_c, 0, 62, 0
4, 314400, Note_on_c, 0, 60, 57
4, 314400, Note_on_c, 0, 63, 57
4, 314447, Note_on_c, 0, 63, 0
4, 314447, Note_on_c, 0, 60, 0
4, 314640, Note_on_c, 0, 58, 57
4, 314640, Note_on_c, 0, 62, 57
4, 314687, Note_on_c, 0, 62, 0
4, 314687, Note_on_c, 0, 58, 0
4, 314880, Note_on_c, 0, 57, 57
4, 314880, Note_on_c, 0, 61, 57
4, 314927, Note_on_c, 0, 61, 0
4, 314927, Note_on_c, 0, 57, 0
4, 315120, Note_on_c, 0, 57, 57
4, 315120, Note_on_c, 0, 64, 57
4, 315167, Note_on_c, 0, 64, 0
4, 315167, Note_on_c, 0, 57, 0
4, 315360, Note_on_c, 0, 53, 57
4, 315360, Note_on_c, 0, 56, 57
4, 315360, Note_on_c, 0, 62, 57
4, 315407, Note_on_c, 0, 62, 0
4, 315407, Note_on_c, 0, 56, 0
4, 315407, Note_on_c, 0, 53, 0
4, 315600, Note_on_c, 0, 41, 57
4, 315840, Note_on_c, 0, 41, 0
4, 316020, Note_on_c, 0, 57, 57
4, 316020, Note_on_c, 0, 61, 57
4, 316080, Note_on_c, 0, 61, 0
4, 316080, Note_on_c, 0, 57, 0
4, 316080, Note_on_c, 0, 59, 57
4, 316080, Note_on_c, 0, 62, 57
4, 316260, Note_on_c, 0, 62, 0
4, 316260, Note_on_c, 0, 59, 0
4, 316260, Note_on_c, 0, 61, 57
4, 316260, Note_on_c, 0, 64, 57
4, 316320, Note_on_c, 0, 64, 0
4, 316320, Note_on_c, 0, 61, 0
4, 316320, Note_on_c, 0, 62, 57
4, 316320, Note_on_c, 0, 65, 57
4, 316500, Note_on_c, 0, 65, 0
4, 316500, Note_on_c, 0, 62, 0
4, 316500, Note_on_c, 0, 65, 57
4, 316500, Note_on_c, 0, 69, 57
4, 316560, Note_on_c, 0, 69, 0
4, 316560, Note_on_c, 0, 65, 0
4, 316560, Note_on_c, 0, 63, 57
4, 316560, Note_on_c, 0, 67, 57
4, 316740, Note_on_c, 0, 67, 0
4, 316740, Note_on_c, 0, 63, 0
4, 316740, Note_on_c, 0, 67, 57
4, 316740, Note_on_c, 0, 70, 57
4, 316800, Note_on_c, 0, 70, 0
4, 316800, Note_on_c, 0, 67, 0
4, 316800, Note_on_c, 0, 65, 57
4, 316800, Note_on_c, 0, 69, 57
4, 317040, Note_on_c, 0, 69, 0
4, 317040, Note_on_c, 0, 65, 0
4, 318240, Note_on_c, 0, 62, 70
4, 318240, Note_on_c, 0, 65, 70
4, 318420, Note_on_c, 0, 65, 0
4, 318420, Note_on_c, 0, 62, 0
4, 318420, Note_on_c, 0, 45, 70
4, 318480, Note_on_c, 0, 45, 0
4, 318480, Note_on_c, 0, 47, 70
4, 318660, Note_on_c, 0, 47, 0
4, 318660, Note_on_c, 0, 49, 70
4, 318720, Note_on_c, 0, 49, 0
4, 318720, Note_on_c, 0, 50, 70
4, 318900, Note_on_c, 0, 50, 0
4, 318900, Note_on_c, 0, 52, 70
4, 318960, Note_on_c, 0, 52, 0
4, 318960, Note_on_c, 0, 53, 70
4, 319140, Note_on_c, 0, 53, 0
4, 319140, Note_on_c, 0, 55, 70
4, 319200, Note_on_c, 0, 55, 0
4, 319200, Note_on_c, 0, 57, 70
4, 319380, Note_on_c, 0, 57, 0
4, 319380, Note_on_c, 0, 59, 70
4, 319440, Note_on_c, 0, 59, 0
4, 319440, Note_on_c, 0, 60, 70
4, 319620, Note_on_c, 0, 60, 0
4, 319620, Note_on_c, 0, 61, 70
4, 319680, Note_on_c, 0, 61, 0
4, 319680, Note_on_c, 0, 61, 70
4, 320160, Note_on_c, 0, 61, 0
4, 320160, Note_on_c, 0, 62, 70
4, 320640, Note_on_c, 0, 62, 0
4, 320640, Note_on_c, 0, 61, 70
4, 321120, Note_on_c, 0, 61, 0
4, 321120, Note_on_c, 0, 53, 70
4, 321120, Note_on_c, 0, 56, 70
4, 321120, Note_on_c, 0, 62, 70
4, 322560, Note_on_c, 0, 62, 0
4, 322560, Note_on_c, 0, 56, 0
4, 322560, Note_on_c, 0, 53, 0
4, 322560, Note_on_c, 0, 62, 70
4, 323040, Note_on_c, 0, 62, 0
4, 323040, Note_on_c, 0, 63, 70
4, 323520, Note_on_c, 0, 63, 0
4, 323520, Note_on_c, 0, 62, 70
4, 324000, Note_on_c, 0, 62, 0
4, 324000, Note_on_c, 0, 55, 70
4, 324000, Note_on_c, 0, 58, 70
4, 324000, Note_on_c, 0, 64, 70
4, 325440, Note_on_c, 0, 64, 0
4, 325440, Note_on_c, 0, 58, 0
4, 325440, Note_on_c, 0, 55, 0
4, 325440, Note_on_c, 0, 64, 70
4, 325920, Note_on_c, 0, 64, 0
4, 325920, Note_on_c, 0, 65, 70
4, 326400, Note_on_c, 0, 65, 0
4, 326400, Note_on_c, 0, 64, 70
4, 326880, Note_on_c, 0, 64, 0
4, 326880, Note_on_c, 0, 57, 70
4, 326880, Note_on_c, 0, 63, 70
4, 326880, Note_on_c, 0, 65, 70
4, 328320, Note_on_c, 0, 65, 0
4, 328320, Note_on_c, 0, 63, 0
4, 328320, Note_on_c, 0, 57, 0
4, 328320, Note_on_c, 0, 65, 70
4, 328800, Note_on_c, 0, 65, 0
4, 328800, Note_on_c, 0, 67, 70
4, 329280, Note_on_c, 0, 67, 0
4, 329280, Note_on_c, 0, 65, 70
4, 329760, Note_on_c, 0, 65, 0
4, 329760, Note_on_c, 0, 59, 70
4, 329760, Note_on_c, 0, 65, 70
4, 329760, Note_on_c, 0, 67, 70
4, 331200, Note_on_c, 0, 67, 0
4, 331200, Note_on_c, 0, 65, 0
4, 331200, Note_on_c, 0, 59, 0
4, 331200, Note_on_c, 0, 67, 70
4, 331680, Note_on_c, 0, 67, 0
4, 331680, Note_on_c, 0, 68, 70
4, 332160, Note_on_c, 0, 68, 0
4, 332160, Note_on_c, 0, 67, 70
4, 332640, Note_on_c, 0, 67, 0
4, 332640, Note_on_c, 0, 61, 70
4, 332640, Note_on_c, 0, 67, 70
4, 332640, Note_on_c, 0, 69, 70
4, 334080, Note_on_c, 0, 69, 0
4, 334080, Note_on_c, 0, 67, 0
4, 334080, Note_on_c, 0, 61, 0
4, 334080, Note_on_c, 0, 69, 70
4, 334560, Note_on_c, 0, 69, 0
4, 334560, Note_on_c, 0, 70, 70
4, 335040, Note_on_c, 0, 70, 0
4, 335040, Note_on_c, 0, 69, 70
4, 335520, Note_on_c, 0, 69, 0
4, 335520, Note_on_c, 0, 62, 83
4, 335520, Note_on_c, 0, 65, 83
4, 335520, Note_on_c, 0, 69, 83
4, 336960, Note_on_c, 0, 69, 0
4, 336960, Note_on_c, 0, 65, 0
4, 336960, Note_on_c, 0, 62, 0
4, 336960, Note_on_c, 0, 69, 83
4, 337440, Note_on_c, 0, 69, 0
4, 337440, Note_on_c, 0, 70, 83
4, 337920, Note_on_c, 0, 70, 0
4, 337920, Note_on_c, 0, 69, 83
4, 338400, Note_on_c, 0, 69, 0
4, 338400, Note_on_c, 0, 62, 83
4, 338400, Note_on_c, 0, 65, 83
4, 338400, Note_on_c, 0, 69, 83
4, 339840, Note_on_c, 0, 69, 0
4, 339840, Note_on_c, 0, 65, 0
4, 339840, Note_on_c, 0, 62, 0
4, 339840, Note_on_c, 0, 69, 83
4, 340320, Note_on_c, 0, 69, 0
4, 340320, Note_on_c, 0, 70, 83
4, 340800, Note_on_c, 0, 70, 0
4, 340800, Note_on_c, 0, 69, 83
4, 341280, Note_on_c, 0, 69, 0
4, 341280, Note_on_c, 0, 60, 83
4, 341280, Note_on_c, 0, 63, 83
4, 341280, Note_on_c, 0, 69, 83
4, 342720, Note_on_c, 0, 69, 0
4, 342720, Note_on_c, 0, 63, 0
4, 342720, Note_on_c, 0, 60, 0
4, 342720, Note_on_c, 0, 69, 83
4, 343200, Note_on_c, 0, 69, 0
4, 343200, Note_on_c, 0, 70, 83
4, 343680, Note_on_c, 0, 70, 0
4, 343680, Note_on_c, 0, 69, 83
4, 344160, Note_on_c, 0, 69, 0
4, 344160, Control_c, 0, 64, 127
4, 344160, Note_on_c, 0, 77, 96
4, 344160, Note_on_c, 0, 89, 96
4, 344640, Note_on_c, 0, 89, 0
4, 344640, Note_on_c, 0, 77, 0
4, 344640, Note_on_c, 0, 79, 96
4, 344640, Note_on_c, 0, 91, 96
4, 345120, Note_on_c, 0, 91, 0
4, 345120, Note_on_c, 0, 79, 0
4, 345120, Note_on_c, 0, 77, 96
4, 345120, Note_on_c, 0, 89, 96
4, 345600, Note_on_c, 0, 89, 0
4, 345600, Note_on_c, 0, 77, 0
4, 345600, Note_on_c, 0, 79, 96
4, 345600, Note_on_c, 0, 91, 96
4, 346080, Note_on_c, 0, 91, 0
4, 346080, Note_on_c, 0, 79, 0
4, 346080, Note_on_c, 0, 77, 96
4, 346080, Note_on_c, 0, 89, 96
4, 346560, Note_on_c, 0, 89, 0
4, 346560, Note_on_c, 0, 77, 0
4, 346560, Note_on_c, 0, 79, 96
4, 346560, Note_on_c, 0, 91, 96
4, 347040, Note_on_c, 0, 91, 0
4, 347040, Note_on_c, 0, 79, 0
4, 347040, Note_on_c, 0, 77, 96
4, 347040, Note_on_c, 0, 89, 96
4, 347520, Note_on_c, 0, 89, 0
4, 347520, Note_on_c, 0, 77, 0
4, 347520, Note_on_c, 0, 79, 96
4, 347520, Note_on_c, 0, 91, 96
4, 348000, Note_on_c, 0, 91, 0
4, 348000, Note_on_c, 0, 79, 0
4, 348000, Note_on_c, 0, 77, 96
4, 348000, Note_on_c, 0, 89, 96
4, 348480, Note_on_c, 0, 89, 0
4, 348480, Note_on_c, 0, 77, 0
4, 348480, Note_on_c, 0, 77, 96
4, 348480, Note_on_c, 0, 84, 96
4, 348480, Note_on_c, 0, 89, 96
4, 348960, Note_on_c, 0, 89, 0
4, 348960, Note_on_c, 0, 84, 0
4, 348960, Note_on_c, 0, 77, 0
4, 348960, Control_c, 0, 64, 0
4, 361680, Note_on_c, 0, 77, 96
4, 361680, Note_on_c, 0, 84, 96
4, 361680, Note_on_c, 0, 87, 96
4, 361680, Note_on_c, 0, 89, 96
4, 362160, Note_on_c, 0, 89, 0
4, 362160, Note_on_c, 0, 77, 0
4, 362160, Note_on_c, 0, 84, 0
4, 362160, Note_on_c, 0, 87, 0
4, 362160, Note_on_c, 0, 79, 96
4, 362160, Note_on_c, 0, 91, 96
4, 362640, Note_on_c, 0, 91, 0
4, 362640, Note_on_c, 0, 79, 0
4, 362640, Note_on_c, 0, 77, 96
4, 362640, Note_on_c, 0, 84, 96
4, 362640, Note_on_c, 0, 87, 96
4, 362640, Note_on_c, 0, 89, 96
4, 363120, Note_on_c, 0, 89, 0
4, 363120, Note_on_c, 0, 77, 0
4, 363120, Note_on_c, 0, 84, 0
4, 363120, Note_on_c, 0, 87, 0
4, 363120, Note_on_c, 0, 77, 96
4, 363120, Note_on_c, 0, 82, 96
4, 363120, Note_on_c, 0, 86, 96
4, 363120, Note_on_c, 0, 89, 96
4, 364080, Note_on_c, 0, 89, 0
4, 364080, Note_on_c, 0, 77, 0
4, 364080, Note_on_c, 0, 82, 0
4, 364080, Note_on_c, 0, 86, 0
4, 364080, Note_on_c, 0, 74, 96
4, 364080, Note_on_c, 0, 77, 96
4, 364080, Note_on_c, 0, 82, 96
4, 364080, Note_on_c, 0, 86, 96
4, 364320, Note_on_c, 0, 86, 0
4, 364320, Note_on_c, 0, 74, 0
4, 364320, Note_on_c, 0, 77, 0
4, 364320, Note_on_c, 0, 82, 0
4, 364320, Note_on_c, 0, 75, 96
4, 364320, Note_on_c, 0, 87, 96
4, 364560, Note_on_c, 0, 87, 0
4, 364560, Note_on_c, 0, 75, 0
4, 364560, Note_on_c, 0, 74, 96
4, 364560, Note_on_c, 0, 77, 96
4, 364560, Note_on_c, 0, 81, 96
4, 364560, Note_on_c, 0, 86, 96
4, 364800, Note_on_c, 0, 86, 0
4, 364800, Note_on_c, 0, 74, 0
4, 364800, Note_on_c, 0, 77, 0
4, 364800, Note_on_c, 0, 81, 0
4, 364800, Note_on_c, 0, 77, 96
4, 364800, Note_on_c, 0, 89, 96
4, 365040, Note_on_c, 0, 89, 0
4, 365040, Note_on_c, 0, 77, 0
4, 365040, Note_on_c, 0, 72, 96
4, 365040, Note_on_c, 0, 84, 96
4, 365520, Note_on_c, 0, 84, 0
4, 365520, Note_on_c, 0, 72, 0
4, 365520, Note_on_c, 0, 72, 96
4, 365520, Note_on_c, 0, 77, 96
4, 365520, Note_on_c, 0, 81, 96
4, 365520, Note_on_c, 0, 84, 96
4, 365760, Note_on_c, 0, 84, 0
4, 365760, Note_on_c, 0, 72, 0
4, 365760, Note_on_c, 0, 77, 0
4, 365760, Note_on_c, 0, 81, 0
4, 365760, Note_on_c, 0, 74, 96
4, 365760, Note_on_c, 0, 86, 96
4, 366000, Note_on_c, 0, 86, 0
4, 366000, Note_on_c, 0, 74, 0
4, 366000, Note_on_c, 0, 70, 96
4, 366000, Note_on_c, 0, 74, 96
4, 366000, Note_on_c, 0, 77, 96
4, 366000, Note_on_c, 0, 82, 96
4, 366480, Note_on_c, 0, 82, 0
4, 366480, Note_on_c, 0, 70, 0
4, 366480, Note_on_c, 0, 74, 0
4, 366480, Note_on_c, 0, 77, 0
4, 366480, Note_on_c, 0, 67, 96
4, 366480, Note_on_c, 0, 79, 96
4, 366720, Note_on_c, 0, 79, 0
4, 366720, Note_on_c, 0, 67, 0
4, 366720, Note_on_c, 0, 70, 96
4, 366720, Note_on_c, 0, 82, 96
4, 366960, Note_on_c, 0, 82, 0
4, 366960, Note_on_c, 0, 70, 0
4, 366960, Note_on_c, 0, 65, 96
4, 366960, Note_on_c, 0, 70, 96
4, 366960, Note_on_c, 0, 74, 96
4, 366960, Note_on_c, 0, 77, 96
4, 367440, Note_on_c, 0, 77, 0
4, 367440, Note_on_c, 0, 65, 0
4, 367440, Note_on_c, 0, 70, 0
4, 367440, Note_on_c, 0, 74, 0
4, 367440, Note_on_c, 0, 77, 96
4, 367440, Note_on_c, 0, 81, 96
4, 367440, Note_on_c, 0, 84, 96
4, 367440, Note_on_c, 0, 89, 96
4, 367920, Note_on_c, 0, 89, 0
4, 367920, Note_on_c, 0, 77, 0
4, 367920, Note_on_c, 0, 81, 0
4, 367920, Note_on_c, 0, 84, 0
4, 367920, Note_on_c, 0, 79, 96
4, 367920, Note_on_c, 0, 91, 96
4, 368400, Note_on_c, 0, 91, 0
4, 368400, Note_on_c, 0, 79, 0
4, 368400, Note_on_c, 0, 77, 96
4, 368400, Note_on_c, 0, 81, 96
4, 368400, Note_on_c, 0, 84, 96
4, 368400, Note_on_c, 0, 89, 96
4, 368880, Note_on_c, 0, 89, 0
4, 368880, Note_on_c, 0, 77, 0
4, 368880, Note_on_c, 0, 81, 0
4, 368880, Note_on_c, 0, 84, 0
4, 368880, Note_on_c, 0, 82, 96
4, 368880, Note_on_c, 0, 94, 96
4, 369840, Note_on_c, 0, 94, 0
4, 369840, Note_on_c, 0, 82, 0
4, 369840, Note_on_c, 0, 70, 96
4, 369840, Note_on_c, 0, 74, 96
4, 369840, Note_on_c, 0, 79, 96
4, 369840, Note_on_c, 0, 82, 96
4, 370080, Note_on_c, 0, 82, 0
4, 370080, Note_on_c, 0, 70, 0
4, 370080, Note_on_c, 0, 74, 0
4, 370080, Note_on_c, 0, 79, 0
4, 370080, Note_on_c, 0, 72, 96
4, 370080, Note_on_c, 0, 84, 96
4, 370320, Note_on_c, 0, 84, 0
4, 370320, Note_on_c, 0, 72, 0
4, 370320, Note_on_c, 0, 74, 96
4, 370320, Note_on_c, 0, 81, 96
4, 370320, Note_on_c, 0, 84, 96
4, 370320, Note_on_c, 0, 86, 96
4, 370560, Note_on_c, 0, 86, 0
4, 370560, Note_on_c, 0, 74, 0
4, 370560, Note_on_c, 0, 81, 0
4, 370560, Note_on_c, 0, 84, 0
4, 370560, Note_on_c, 0, 75, 96
4, 370560, Note_on_c, 0, 87, 96
4, 370800, Note_on_c, 0, 87, 0
4, 370800, Note_on_c, 0, 75, 0
4, 370800, Note_on_c, 0, 74, 96
4, 370800, Note_on_c, 0, 86, 96
4, 371280, Note_on_c, 0, 86, 0
4, 371280, Note_on_c, 0, 74, 0
4, 371280, Note_on_c, 0, 70, 96
4, 371280, Note_on_c, 0, 74, 96
4, 371280, Note_on_c, 0, 79, 96
4, 371280, Note_on_c, 0, 82, 96
4, 371520, Note_on_c, 0, 82, 0
4, 371520, Note_on_c, 0, 70, 0
4, 371520, Note_on_c, 0, 74, 0
4, 371520, Note_on_c, 0, 79, 0
4, 371520, Note_on_c, 0, 72, 96
4, 371520, Note_on_c, 0, 84, 96
4, 371760, Note_on_c, 0, 84, 0
4, 371760, Note_on_c, 0, 72, 0
4, 371760, Note_on_c, 0, 74, 96
4, 371760, Note_on_c, 0, 81, 96
4, 371760, Note_on_c, 0, 84, 96
4, 371760, Note_on_c, 0, 86, 96
4, 372000, Note_on_c, 0, 86, 0
4, 372000, Note_on_c, 0, 74, 0
4, 372000, Note_on_c, 0, 81, 0
4, 372000, Note_on_c, 0, 84, 0
4, 372000, Note_on_c, 0, 75, 96
4, 372000, Note_on_c, 0, 87, 96
4, 372240, Note_on_c, 0, 87, 0
4, 372240, Note_on_c, 0, 75, 0
4, 372240, Note_on_c, 0, 74, 96
4, 372240, Note_on_c, 0, 86, 96
4, 372720, Note_on_c, 0, 86, 0
4, 372720, Note_on_c, 0, 74, 0
4, 372720, Note_on_c, 0, 74, 96
4, 372720, Note_on_c, 0, 79, 96
4, 372720, Note_on_c, 0, 82, 96
4, 372720, Note_on_c, 0, 86, 96
4, 372960, Note_on_c, 0, 86, 0
4, 372960, Note_on_c, 0, 74, 0
4, 372960, Note_on_c, 0, 79, 0
4, 372960, Note_on_c, 0, 82, 0
4, 372960, Note_on_c, 0, 75, 96
4, 372960, Note_on_c, 0, 87, 96
4, 373200, Note_on_c, 0, 87, 0
4, 373200, Note_on_c, 0, 75, 0
4, 373200, Note_on_c, 0, 77, 96
4, 373200, Note_on_c, 0, 84, 96
4, 373200, Note_on_c, 0, 87, 96
4, 373200, Note_on_c, 0, 89, 96
4, 373440, Note_on_c, 0, 89, 0
4, 373440, Note_on_c, 0, 77, 0
4, 373440, Note_on_c, 0, 84, 0
4, 373440, Note_on_c, 0, 87, 0
4, 373440, Note_on_c, 0, 79, 96
4, 373440, Note_on_c, 0, 91, 96
4, 373680, Note_on_c, 0, 91, 0
4, 373680, Note_on_c, 0, 79, 0
4, 373680, Note_on_c, 0, 77, 96
4, 373680, Note_on_c, 0, 89, 96
4, 374160, Note_on_c, 0, 89, 0
4, 374160, Note_on_c, 0, 77, 0
4, 374160, Note_on_c, 0, 74, 96
4, 374160, Note_on_c, 0, 77, 96
4, 374160, Note_on_c, 0, 82, 96
4, 374160, Note_on_c, 0, 86, 96
4, 374400, Note_on_c, 0, 86, 0
4, 374400, Note_on_c, 0, 74, 0
4, 374400, Note_on_c, 0, 77, 0
4, 374400, Note_on_c, 0, 82, 0
4, 374400, Note_on_c, 0, 75, 96
4, 374400, Note_on_c, 0, 87, 96
4, 374640, Note_on_c, 0, 87, 0
4, 374640, Note_on_c, 0, 75, 0
4, 374640, Note_on_c, 0, 77, 96
4, 374640, Note_on_c, 0, 84, 96
4, 374640, Note_on_c, 0, 87, 96
4, 374640, Note_on_c, 0, 89, 96
4, 374880, Note_on_c, 0, 89, 0
4, 374880, Note_on_c, 0, 77, 0
4, 374880, Note_on_c, 0, 84, 0
4, 374880, Note_on_c, 0, 87, 0
4, 374880, Note_on_c, 0, 79, 96
4, 374880, Note_on_c, 0, 91, 96
4, 375120, Note_on_c, 0, 91, 0
4, 375120, Note_on_c, 0, 79, 0
4, 375120, Note_on_c, 0, 77, 96
4, 375120, Note_on_c, 0, 89, 96
4, 375600, Note_on_c, 0, 89, 0
4, 375600, Note_on_c, 0, 77, 0
4, 375600, Note_on_c, 0, 77, 96
4, 375600, Note_on_c, 0, 86, 96
4, 375600, Note_on_c, 0, 89, 96
4, 375840, Note_on_c, 0, 89, 0
4, 375840, Note_on_c, 0, 86, 0
4, 375840, Note_on_c, 0, 77, 0
4, 375840, Note_on_c, 0, 79, 96
4, 375840, Note_on_c, 0, 91, 96
4, 376080, Note_on_c, 0, 91, 0
4, 376080, Note_on_c, 0, 79, 0
4, 376080, Note_on_c, 0, 81, 96
4, 376080, Note_on_c, 0, 88, 96
4, 376080, Note_on_c, 0, 91, 96
4, 376080, Note_on_c, 0, 93, 96
4, 376320, Note_on_c, 0, 93, 0
4, 376320, Note_on_c, 0, 81, 0
4, 376320, Note_on_c, 0, 88, 0
4, 376320, Note_on_c, 0, 91, 0
4, 376320, Note_on_c, 0, 82, 96
4, 376320, Note_on_c, 0, 94, 96
4, 376560, Note_on_c, 0, 94, 0
4, 376560, Note_on_c, 0, 82, 0
4, 376560, Note_on_c, 0, 81, 96
4, 376560, Note_on_c, 0, 93, 96
4, 377040, Note_on_c, 0, 93, 0
4, 377040, Note_on_c, 0, 81, 0
4, 377040, Note_on_c, 0, 77, 96
4, 377040, Note_on_c, 0, 89, 96
4, 377280, Note_on_c, 0, 89, 0
4, 377280, Note_on_c, 0, 77, 0
4, 377280, Note_on_c, 0, 79, 96
4, 377280, Note_on_c, 0, 91, 96
4, 377520, Note_on_c, 0, 91, 0
4, 377520, Note_on_c, 0, 79, 0
4, 377520, Note_on_c, 0, 81, 96
4, 377520, Note_on_c, 0, 88, 96
4, 377520, Note_on_c, 0, 91, 96
4, 377520, Note_on_c, 0, 93, 96
4, 378000, Note_on_c, 0, 93, 0
4, 378000, Note_on_c, 0, 81, 0
4, 378000, Note_on_c, 0, 88, 0
4, 378000, Note_on_c, 0, 91, 0
4, 378000, Note_on_c, 0, 74, 96
4, 378000, Note_on_c, 0, 86, 96
4, 378240, Note_on_c, 0, 86, 0
4, 378240, Note_on_c, 0, 74, 0
4, 378240, Note_on_c, 0, 81, 96
4, 378240, Note_on_c, 0, 93, 96
4, 378480, Note_on_c, 0, 93, 0
4, 378480, Note_on_c, 0, 81, 0
4, 378480, Note_on_c, 0, 79, 96
4, 378480, Note_on_c, 0, 86, 96
4, 378480, Note_on_c, 0, 89, 96
4, 378480, Note_on_c, 0, 91, 96
4, 378960, Note_on_c, 0, 91, 0
4, 378960, Note_on_c, 0, 79, 0
4, 378960, Note_on_c, 0, 86, 0
4, 378960, Note_on_c, 0, 89, 0
4, 378960, Note_on_c, 0, 72, 96
4, 378960, Note_on_c, 0, 84, 96
4, 379200, Note_on_c, 0, 84, 0
4, 379200, Note_on_c, 0, 72, 0
4, 379200, Note_on_c, 0, 79, 96
4, 379200, Note_on_c, 0, 91, 96
4, 379440, Note_on_c, 0, 91, 0
4, 379440, Note_on_c, 0, 79, 0
4, 379440, Note_on_c, 0, 77, 96
4, 379440, Note_on_c, 0, 84, 96
4, 379440, Note_on_c, 0, 87, 96
4, 379440, Note_on_c, 0, 89, 96
4, 379920, Note_on_c, 0, 89, 0
4, 379920, Note_on_c, 0, 77, 0
4, 379920, Note_on_c, 0, 84, 0
4, 379920, Note_on_c, 0, 87, 0
4, 379920, Note_on_c, 0, 70, 96
4, 379920, Note_on_c, 0, 82, 96
4, 380160, Note_on_c, 0, 82, 0
4, 380160, Note_on_c, 0, 70, 0
4, 380160, Note_on_c, 0, 77, 96
4, 380160, Note_on_c, 0, 89, 96
4, 380400, Note_on_c, 0, 89, 0
4, 380400, Note_on_c, 0, 77, 0
4, 380400, Note_on_c, 0, 75, 96
4, 380400, Note_on_c, 0, 82, 96
4, 380400, Note_on_c, 0, 84, 96
4, 380400, Note_on_c, 0, 87, 96
4, 380880, Note_on_c, 0, 87, 0
4, 380880, Note_on_c, 0, 75, 0
4, 380880, Note_on_c, 0, 82, 0
4, 380880, Note_on_c, 0, 84, 0
4, 380880, Note_on_c, 0, 69, 96
4, 380880, Note_on_c, 0, 81, 96
4, 381120, Note_on_c, 0, 81, 0
4, 381120, Note_on_c, 0, 69, 0
4, 381120, Note_on_c, 0, 75, 96
4, 381120, Note_on_c, 0, 87, 96
4, 381360, Note_on_c, 0, 87, 0
4, 381360, Note_on_c, 0, 75, 0
4, 381360, Note_on_c, 0, 74, 96
4, 381360, Note_on_c, 0, 81, 96
4, 381360, Note_on_c, 0, 84, 96
4, 381360, Note_on_c, 0, 86, 96
4, 381840, Note_on_c, 0, 86, 0
4, 381840, Note_on_c, 0, 74, 0
4, 381840, Note_on_c, 0, 81, 0
4, 381840, Note_on_c, 0, 84, 0
4, 381840, Note_on_c, 0, 67, 96
4, 381840, Note_on_c, 0, 79, 96
4, 382080, Note_on_c, 0, 79, 0
4, 382080, Note_on_c, 0, 67, 0
4, 382080, Note_on_c, 0, 74, 96
4, 382080, Note_on_c, 0, 86, 96
4, 382320, Note_on_c, 0, 86, 0
4, 382320, Note_on_c, 0, 74, 0
4, 382320, Note_on_c, 0, 72, 96
4, 382320, Note_on_c, 0, 79, 96
4, 382320, Note_on_c, 0, 82, 96
4, 382320, Note_on_c, 0, 84, 96
4, 382800, Note_on_c, 0, 84, 0
4, 382800, Note_on_c, 0, 72, 0
4, 382800, Note_on_c, 0, 79, 0
4, 382800, Note_on_c, 0, 82, 0
4, 382800, Note_on_c, 0, 79, 96
4, 382800, Note_on_c, 0, 82, 96
4, 382800, Note_on_c, 0, 85, 96
4, 382800, Note_on_c, 0, 91, 96
4, 383280, Note_on_c, 0, 91, 0
4, 383280, Note_on_c, 0, 79, 0
4, 383280, Note_on_c, 0, 82, 0
4, 383280, Note_on_c, 0, 85, 0
4, 383280, Note_on_c, 0, 77, 96
4, 383280, Note_on_c, 0, 82, 96
4, 383280, Note_on_c, 0, 86, 96
4, 383280, Note_on_c, 0, 89, 96
4, 383520, Note_on_c, 0, 89, 0
4, 383520, Note_on_c, 0, 77, 0
4, 383520, Note_on_c, 0, 82, 0
4, 383520, Note_on_c, 0, 86, 0
4, 383520, Note_on_c, 0, 65, 96
4, 383520, Note_on_c, 0, 77, 96
4, 384000, Note_on_c, 0, 77, 0
4, 384000, Note_on_c, 0, 65, 0
4, 384000, Note_on_c, 0, 67, 96
4, 384000, Note_on_c, 0, 79, 96
4, 384480, Note_on_c, 0, 79, 0
4, 384480, Note_on_c, 0, 67, 0
4, 384480, Note_on_c, 0, 69, 96
4, 384480, Note_on_c, 0, 81, 96
4, 384960, Note_on_c, 0, 81, 0
4, 384960, Note_on_c, 0, 69, 0
4, 384960, Note_on_c, 0, 70, 96
4, 384960, Note_on_c, 0, 82, 96
4, 385440, Note_on_c, 0, 82, 0
4, 385440, Note_on_c, 0, 70, 0
4, 385440, Note_on_c, 0, 72, 96
4, 385440, Note_on_c, 0, 84, 96
4, 385920, Note_on_c, 0, 84, 0
4, 385920, Note_on_c, 0, 72, 0
4, 385920, Note_on_c, 0, 74, 96
4, 385920, Note_on_c, 0, 86, 96
4, 386400, Note_on_c, 0, 86, 0
4, 386400, Note_on_c, 0, 74, 0
4, 386400, Note_on_c, 0, 75, 96
4, 386400, Note_on_c, 0, 87, 96
4, 386880, Note_on_c, 0, 87, 0
4, 386880, Note_on_c, 0, 75, 0
4, 386880, Note_on_c, 0, 76, 96
4, 386880, Note_on_c, 0, 88, 96
4, 387360, Note_on_c, 0, 88, 0
4, 387360, Note_on_c, 0, 76, 0
4, 387360, Note_on_c, 0, 77, 96
4, 387360, Note_on_c, 0, 89, 96
4, 387840, Note_on_c, 0, 89, 0
4, 387840, Note_on_c, 0, 77, 0
4, 387840, Note_on_c, 0, 79, 96
4, 387840, Note_on_c, 0, 91, 96
4, 388320, Note_on_c, 0, 91, 0
4, 388320, Note_on_c, 0, 79, 0
4, 388320, Note_on_c, 0, 81, 96
4, 388320, Note_on_c, 0, 93, 96
4, 388800, Note_on_c, 0, 93, 0
4, 388800, Note_on_c, 0, 81, 0
4, 388800, Note_on_c, 0, 82, 96
4, 388800, Note_on_c, 0, 94, 96
4, 389520, Note_on_c, 0, 94, 0
4, 389520, Note_on_c, 0, 82, 0
4, 389520, Note_on_c, 0, 62, 57
4, 389520, Note_on_c, 0, 69, 57
4, 389520, Note_on_c, 0, 72, 57
4, 389520, Note_on_c, 0, 74, 57
4, 389760, Note_on_c, 0, 74, 0
4, 389760, Note_on_c, 0, 62, 0
4, 389760, Note_on_c, 0, 69, 0
4, 389760, Note_on_c, 0, 72, 0
4, 390000, Note_on_c, 0, 62, 57
4, 390000, Note_on_c, 0, 67, 57
4, 390000, Note_on_c, 0, 70, 57
4, 390000, Note_on_c, 0, 74, 57
4, 390240, Note_on_c, 0, 74, 0
4, 390240, Note_on_c, 0, 62, 0
4, 390240, Note_on_c, 0, 67, 0
4, 390240, Note_on_c, 0, 70, 0
4, 390480, Note_on_c, 0, 65, 57
4, 390480, Note_on_c, 0, 72, 57
4, 390480, Note_on_c, 0, 75, 57
4, 390480, Note_on_c, 0, 77, 57
4, 390720, Note_on_c, 0, 77, 0
4, 390720, Note_on_c, 0, 65, 0
4, 390720, Note_on_c, 0, 72, 0
4, 390720, Note_on_c, 0, 75, 0
4, 390960, Note_on_c, 0, 65, 57
4, 390960, Note_on_c, 0, 70, 57
4, 390960, Note_on_c, 0, 74, 57
4, 390960, Note_on_c, 0, 77, 57
4, 391200, Note_on_c, 0, 77, 0
4, 391200, Note_on_c, 0, 65, 0
4, 391200, Note_on_c, 0, 70, 0
4, 391200, Note_on_c, 0, 74, 0
4, 391440, Note_on_c, 0, 69, 57
4, 391440, Note_on_c, 0, 75, 57
4, 391440, Note_on_c, 0, 79, 57
4, 391440, Note_on_c, 0, 81, 57
4, 391680, Note_on_c, 0, 81, 0
4, 391680, Note_on_c, 0, 69, 0
4, 391680, Note_on_c, 0, 75, 0
4, 391680, Note_on_c, 0, 79, 0
4, 391920, Note_on_c, 0, 69, 57
4, 391920, Note_on_c, 0, 74, 57
4, 391920, Note_on_c, 0, 77, 57
4, 391920, Note_on_c, 0, 81, 57
4, 392160, Note_on_c, 0, 81, 0
4, 392160, Note_on_c, 0, 69, 0
4, 392160, Note_on_c, 0, 74, 0
4, 392160, Note_on_c, 0, 77, 0
4, 392400, Note_on_c, 0, 70, 83
4, 392400, Note_on_c, 0, 76, 83
4, 392400, Note_on_c, 0, 82, 83
4, 392447, Note_on_c, 0, 82, 0
4, 392447, Note_on_c, 0, 76, 0
4, 392447, Note_on_c, 0, 70, 0
4, 392640, Note_on_c, 0, 72, 83
4, 392640, Note_on_c, 0, 76, 83
4, 392640, Note_on_c, 0, 84, 83
4, 392687, Note_on_c, 0, 84, 0
4, 392687, Note_on_c, 0, 76, 0
4, 392687, Note_on_c, 0, 72, 0
4, 392880, Note_on_c, 0, 73, 83
4, 392880, Note_on_c, 0, 76, 83
4, 392880, Note_on_c, 0, 82, 83
4, 392880, Note_on_c, 0, 85, 83
4, 392927, Note_on_c, 0, 85, 0
4, 392927, Note_on_c, 0, 73, 0
4, 392927, Note_on_c, 0, 76, 0
4, 392927, Note_on_c, 0, 82, 0
4, 393120, Note_on_c, 0, 70, 83
4, 393120, Note_on_c, 0, 76, 83
4, 393120, Note_on_c, 0, 82, 83
4, 393167, Note_on_c, 0, 82, 0
4, 393167, Note_on_c, 0, 76, 0
4, 393167, Note_on_c, 0, 70, 0
4, 393360, Note_on_c, 0, 77, 109
4, 393360, Note_on_c, 0, 82, 109
4, 393360, Note_on_c, 0, 86, 109
4, 393360, Note_on_c, 0, 89, 109
4, 393600, Note_on_c, 0, 89, 0
4, 393600, Note_on_c, 0, 77, 0
4, 393600, Note_on_c, 0, 82, 0
4, 393600, Note_on_c, 0, 86, 0
4, 393840, Note_on_c, 0, 65, 70
4, 393840, Note_on_c, 0, 74, 70
4, 393840, Note_on_c, 0, 77, 70
4, 393887, Note_on_c, 0, 77, 0
4, 393887, Note_on_c, 0, 74, 0
4, 393887, Note_on_c, 0, 65, 0
4, 394080, Note_on_c, 0, 67, 70
4, 394080, Note_on_c, 0, 74, 70
4, 394080, Note_on_c, 0, 77, 70
4, 394080, Note_on_c, 0, 79, 70
4, 394127, Note_on_c, 0, 79, 0
4, 394127, Note_on_c, 0, 67, 0
4, 394127, Note_on_c, 0, 74, 0
4, 394127, Note_on_c, 0, 77, 0
4, 394320, Note_on_c, 0, 69, 70
4, 394320, Note_on_c, 0, 75, 70
4, 394320, Note_on_c, 0, 77, 70
4, 394320, Note_on_c, 0, 81, 70
4, 394367, Note_on_c, 0, 81, 0
4, 394367, Note_on_c, 0, 69, 0
4, 394367, Note_on_c, 0, 75, 0
4, 394367, Note_on_c, 0, 77, 0
4, 394560, Note_on_c, 0, 65, 70
4, 394560, Note_on_c, 0, 75, 70
4, 394560, Note_on_c, 0, 77, 70
4, 394607, Note_on_c, 0, 77, 0
4, 394607, Note_on_c, 0, 75, 0
4, 394607, Note_on_c, 0, 65, 0
4, 394800, Note_on_c, 0, 70, 70
4, 394800, Note_on_c, 0, 74, 70
4, 394800, Note_on_c, 0, 77, 70
4, 394800, Note_on_c, 0, 82, 70
4, 395280, Note_on_c, 0, 82, 0
4, 395280, Note_on_c, 0, 70, 0
4, 395280, Note_on_c, 0, 74, 0
4, 395280, Note_on_c, 0, 77, 0
4, 395280, Note_on_c, 0, 62, 57
4, 395280, Note_on_c, 0, 69, 57
4, 395280, Note_on_c, 0, 72, 57
4, 395280, Note_on_c, 0, 74, 57
4, 395520, Note_on_c, 0, 74, 0
4, 395520, Note_on_c, 0, 62, 0
4, 395520, Note_on_c, 0, 69, 0
4, 395520, Note_on_c, 0, 72, 0
4, 395760, Note_on_c, 0, 62, 57
4, 395760, Note_on_c, 0, 67, 57
4, 395760, Note_on_c, 0, 70, 57
4, 395760, Note_on_c, 0, 74, 57
4, 396000, Note_on_c, 0, 74, 0
4, 396000, Note_on_c, 0, 62, 0
4, 396000, Note_on_c, 0, 67, 0
4, 396000, Note_on_c, 0, 70, 0
4, 396240, Note_on_c, 0, 65, 57
4, 396240, Note_on_c, 0, 72, 57
4, 396240, Note_on_c, 0, 75, 57
4, 396240, Note_on_c, 0, 77, 57
4, 396480, Note_on_c, 0, 77, 0
4, 396480, Note_on_c, 0, 65, 0
4, 396480, Note_on_c, 0, 72, 0
4, 396480, Note_on_c, 0, 75, 0
4, 396720, Note_on_c, 0, 65, 57
4, 396720, Note_on_c, 0, 70, 57
4, 396720, Note_on_c, 0, 74, 57
4, 396720, Note_on_c, 0, 77, 57
4, 396960, Note_on_c, 0, 77, 0
4, 396960, Note_on_c, 0, 65, 0
4, 396960, Note_on_c, 0, 70, 0
4, 396960, Note_on_c, 0, 74, 0
4, 397200, Note_on_c, 0, 69, 57
4, 397200, Note_on_c, 0, 75, 57
4, 397200, Note_on_c, 0, 79, 57
4, 397200, Note_on_c, 0, 81, 57
4, 397440, Note_on_c, 0, 81, 0
4, 397440, Note_on_c, 0, 69, 0
4, 397440, Note_on_c, 0, 75, 0
4, 397440, Note_on_c, 0, 79, 0
4, 397680, Note_on_c, 0, 69, 57
4, 397680, Note_on_c, 0, 74, 57
4, 397680, Note_on_c, 0, 77, 57
4, 397680, Note_on_c, 0, 81, 57
4, 397920, Note_on_c, 0, 81, 0
4, 397920, Note_on_c, 0, 69, 0
4, 397920, Note_on_c, 0, 74, 0
4, 397920, Note_on_c, 0, 77, 0
4, 398160, Note_on_c, 0, 70, 83
4, 398160, Note_on_c, 0, 76, 83
4, 398160, Note_on_c, 0, 82, 83
4, 398207, Note_on_c, 0, 82, 0
4, 398207, Note_on_c, 0, 76, 0
4, 398207, Note_on_c, 0, 70, 0
4, 398400, Note_on_c, 0, 72, 83
4, 398400, Note_on_c, 0, 76, 83
4, 398400, Note_on_c, 0, 84, 83
4, 398447, Note_on_c, 0, 84, 0
4, 398447, Note_on_c, 0, 76, 0
4, 398447, Note_on_c, 0, 72, 0
4, 398640, Note_on_c, 0, 73, 83
4, 398640, Note_on_c, 0, 76, 83
4, 398640, Note_on_c, 0, 82, 83
4, 398640, Note_on_c, 0, 85, 83
4, 398687, Note_on_c, 0, 85, 0
4, 398687, Note_on_c, 0, 73, 0
4, 398687, Note_on_c, 0, 76, 0
4, 398687, Note_on_c, 0, 82, 0
4, 398880, Note_on_c, 0, 70, 83
4, 398880, Note_on_c, 0, 76, 83
4, 398880, Note_on_c, 0, 82, 83
4, 398927, Note_on_c, 0, 82, 0
4, 398927, Note_on_c, 0, 76, 0
4, 398927, Note_on_c, 0, 70, 0
4, 399120, Note_on_c, 0, 77, 109
4, 399120, Note_on_c, 0, 82, 109
4, 399120, Note_on_c, 0, 86, 109
4, 399120, Note_on_c, 0, 89, 109
4, 399360, Note_on_c, 0, 89, 0
4, 399360, Note_on_c, 0, 77, 0
4, 399360, Note_on_c, 0, 82, 0
4, 399360, Note_on_c, 0, 86, 0
4, 399600, Note_on_c, 0, 70, 70
4, 399600, Note_on_c, 0, 82, 70
4, 399647, Note_on_c, 0, 82, 0
4, 399647, Note_on_c, 0, 70, 0
4, 399840, Note_on_c, 0, 72, 70
4, 399840, Note_on_c, 0, 84, 70
4, 399887, Note_on_c, 0, 84, 0
4, 399887, Note_on_c, 0, 72, 0
4, 400080, Note_on_c, 0, 74, 70
4, 400080, Note_on_c, 0, 86, 70
4, 400127, Note_on_c, 0, 86, 0
4, 400127, Note_on_c, 0, 74, 0
4, 400320, Note_on_c, 0, 70, 70
4, 400320, Note_on_c, 0, 82, 70
4, 400367, Note_on_c, 0, 82, 0
4, 400367, Note_on_c, 0, 70, 0
4, 400560, Note_on_c, 0, 79, 83
4, 400560, Note_on_c, 0, 91, 83
4, 400800, Note_on_c, 0, 91, 0
4, 400800, Note_on_c, 0, 79, 0
4, 401040, Note_on_c, 0, 71, 83
4, 401040, Note_on_c, 0, 83, 83
4, 401087, Note_on_c, 0, 83, 0
4, 401087, Note_on_c, 0, 71, 0
4, 401280, Note_on_c, 0, 73, 83
4, 401280, Note_on_c, 0, 85, 83
4, 401327, Note_on_c, 0, 85, 0
4, 401327, Note_on_c, 0, 73, 0
4, 401520, Note_on_c, 0, 74, 83
4, 401520, Note_on_c, 0, 86, 83
4, 401567, Note_on_c, 0, 86, 0
4, 401567, Note_on_c, 0, 74, 0
4, 401760, Note_on_c, 0, 71, 83
4, 401760, Note_on_c, 0, 83, 83
4, 401807, Note_on_c, 0, 83, 0
4, 401807, Note_on_c, 0, 71, 0
4, 402000, Note_on_c, 0, 79, 83
4, 402000, Note_on_c, 0, 91, 83
4, 402240, Note_on_c, 0, 91, 0
4, 402240, Note_on_c, 0, 79, 0
4, 402480, Note_on_c, 0, 72, 83
4, 402480, Note_on_c, 0, 84, 83
4, 402527, Note_on_c, 0, 84, 0
4, 402527, Note_on_c, 0, 72, 0
4, 402720, Note_on_c, 0, 74, 83
4, 402720, Note_on_c, 0, 86, 83
4, 402767, Note_on_c, 0, 86, 0
4, 402767, Note_on_c, 0, 74, 0
4, 402960, Note_on_c, 0, 75, 83
4, 402960, Note_on_c, 0, 87, 83
4, 403007, Note_on_c, 0, 87, 0
4, 403007, Note_on_c, 0, 75, 0
4, 403200, Note_on_c, 0, 72, 83
4, 403200, Note_on_c, 0, 84, 83
4, 403247, Note_on_c, 0, 84, 0
4, 403247, Note_on_c, 0, 72, 0
4, 403440, Note_on_c, 0, 81, 83
4, 403440, Note_on_c, 0, 93, 83
4, 403680, Note_on_c, 0, 93, 0
4, 403680, Note_on_c, 0, 81, 0
4, 403920, Note_on_c, 0, 77, 83
4, 403920, Note_on_c, 0, 89, 83
4, 404160, Note_on_c, 0, 89, 0
4, 404160, Note_on_c, 0, 77, 0
4, 404400, Note_on_c, 0, 81, 83
4, 404400, Note_on_c, 0, 93, 83
4, 404640, Note_on_c, 0, 93, 0
4, 404640, Note_on_c, 0, 81, 0
4, 404880, Note_on_c, 0, 82, 83
4, 404880, Note_on_c, 0, 94, 83
4, 405120, Note_on_c, 0, 94, 0
4, 405120, Note_on_c, 0, 82, 0
4, 405120, Note_on_c, 0, 77, 96
4, 405120, Note_on_c, 0, 86, 96
4, 405120, Note_on_c, 0, 89, 96
4, 405143, Note_on_c, 0, 89, 0
4, 405143, Note_on_c, 0, 86, 0
4, 405143, Note_on_c, 0, 77, 0
4, 405240, Note_on_c, 0, 79, 96
4, 405240, Note_on_c, 0, 87, 96
4, 405240, Note_on_c, 0, 91, 96
4, 405300, Note_on_c, 0, 91, 0
4, 405300, Note_on_c, 0, 87, 0
4, 405300, Note_on_c, 0, 79, 0
4, 405300, Note_on_c, 0, 93, 96
4, 405360, Note_on_c, 0, 93, 0
4, 405360, Note_on_c, 0, 79, 117
4, 405360, Note_on_c, 0, 87, 117
4, 405360, Note_on_c, 0, 91, 117
4, 405840, Note_on_c, 0, 91, 0
4, 405840, Note_on_c, 0, 87, 0
4, 405840, Note_on_c, 0, 79, 0
4, 405840, Note_on_c, 0, 77, 96
4, 405840, Note_on_c, 0, 86, 96
4, 405840, Note_on_c, 0, 89, 96
4, 405887, Note_on_c, 0, 89, 0
4, 405887, Note_on_c, 0, 86, 0
4, 405887, Note_on_c, 0, 77, 0
4, 406080, Note_on_c, 0, 75, 96
4, 406080, Note_on_c, 0, 84, 96
4, 406080, Note_on_c, 0, 87, 96
4, 406127, Note_on_c, 0, 87, 0
4, 406127, Note_on_c, 0, 84, 0
4, 406127, Note_on_c, 0, 75, 0
4, 406320, Note_on_c, 0, 74, 96
4, 406320, Note_on_c, 0, 82, 96
4, 406320, Note_on_c, 0, 86, 96
4, 406367, Note_on_c, 0, 86, 0
4, 406367, Note_on_c, 0, 82, 0
4, 406367, Note_on_c, 0, 74, 0
4, 406560, Note_on_c, 0, 77, 96
4, 406560, Note_on_c, 0, 86, 96
4, 406560, Note_on_c, 0, 89, 96
4, 406583, Note_on_c, 0, 89, 0
4, 406583, Note_on_c, 0, 86, 0
4, 406583, Note_on_c, 0, 77, 0
4, 406680, Note_on_c, 0, 79, 96
4, 406680, Note_on_c, 0, 87, 96
4, 406680, Note_on_c, 0, 91, 96
4, 406740, Note_on_c, 0, 91, 0
4, 406740, Note_on_c, 0, 87, 0
4, 406740, Note_on_c, 0, 79, 0
4, 406740, Note_on_c, 0, 93, 96
4, 406800, Note_on_c, 0, 93, 0
4, 406800, Note_on_c, 0, 79, 117
4, 406800, Note_on_c, 0, 87, 117
4, 406800, Note_on_c, 0, 91, 117
4, 407280, Note_on_c, 0, 91, 0
4, 407280, Note_on_c, 0, 87, 0
4, 407280, Note_on_c, 0, 79, 0
4, 407280, Note_on_c, 0, 77, 96
4, 407280, Note_on_c, 0, 86, 96
4, 407280, Note_on_c, 0, 89, 96
4, 407327, Note_on_c, 0, 89, 0
4, 407327, Note_on_c, 0, 86, 0
4, 407327, Note_on_c, 0, 77, 0
4, 407520, Note_on_c, 0, 75, 96
4, 407520, Note_on_c, 0, 84, 96
4, 407520, Note_on_c, 0, 87, 96
4, 407567, Note_on_c, 0, 87, 0
4, 407567, Note_on_c, 0, 84, 0
4, 407567, Note_on_c, 0, 75, 0
4, 407760, Note_on_c, 0, 74, 96
4, 407760, Note_on_c, 0, 82, 96
4, 407760, Note_on_c, 0, 86, 96
4, 407807, Note_on_c, 0, 86, 0
4, 407807, Note_on_c, 0, 82, 0
4, 407807, Note_on_c, 0, 74, 0
4, 410640, Note_on_c, 0, 74, 96
4, 410640, Note_on_c, 0, 82, 96
4, 410640, Note_on_c, 0, 86, 96
4, 410687, Note_on_c, 0, 86, 0
4, 410687, Note_on_c, 0, 82, 0
4, 410687, Note_on_c, 0, 74, 0
4, 410880, Note_on_c, 0, 77, 96
4, 410880, Note_on_c, 0, 86, 96
4, 410880, Note_on_c, 0, 89, 96
4, 410903, Note_on_c, 0, 89, 0
4, 410903, Note_on_c, 0, 86, 0
4, 410903, Note_on_c, 0, 77, 0
4, 411000, Note_on_c, 0, 79, 96
4, 411000, Note_on_c, 0, 87, 96
4, 411000, Note_on_c, 0, 91, 96
4, 411060, Note_on_c, 0, 91, 0
4, 411060, Note_on_c, 0, 87, 0
4, 411060, Note_on_c, 0, 79, 0
4, 411060, Note_on_c, 0, 93, 96
4, 411120, Note_on_c, 0, 93, 0
4, 411120, Note_on_c, 0, 79, 117
4, 411120, Note_on_c, 0, 87, 117
4, 411120, Note_on_c, 0, 91, 117
4, 411600, Note_on_c, 0, 91, 0
4, 411600, Note_on_c, 0, 87, 0
4, 411600, Note_on_c, 0, 79, 0
4, 411600, Note_on_c, 0, 77, 96
4, 411600, Note_on_c, 0, 86, 96
4, 411600, Note_on_c, 0, 89, 96
4, 411647, Note_on_c, 0, 89, 0
4, 411647, Note_on_c, 0, 86, 0
4, 411647, Note_on_c, 0, 77, 0
4, 411840, Note_on_c, 0, 75, 96
4, 411840, Note_on_c, 0, 84, 96
4, 411840, Note_on_c, 0, 87, 96
4, 411887, Note_on_c, 0, 87, 0
4, 411887, Note_on_c, 0, 84, 0
4, 411887, Note_on_c, 0, 75, 0
4, 412080, Note_on_c, 0, 74, 96
4, 412080, Note_on_c, 0, 82, 96
4, 412080, Note_on_c, 0, 86, 96
4, 412127, Note_on_c, 0, 86, 0
4, 412127, Note_on_c, 0, 82, 0
4, 412127, Note_on_c, 0, 74, 0
4, 412320, Note_on_c, 0, 77, 96
4, 412320, Note_on_c, 0, 86, 96
4, 412320, Note_on_c, 0, 89, 96
4, 412343, Note_on_c, 0, 89, 0
4, 412343, Note_on_c, 0, 86, 0
4, 412343, Note_on_c, 0, 77, 0
4, 412440, Note_on_c, 0, 79, 96
4, 412440, Note_on_c, 0, 87, 96
4, 412440, Note_on_c, 0, 91, 96
4, 412500, Note_on_c, 0, 91, 0
4, 412500, Note_on_c, 0, 87, 0
4, 412500, Note_on_c, 0, 79, 0
4, 412500, Note_on_c, 0, 93, 96
4, 412560, Note_on_c, 0, 93, 0
4, 412560, Note_on_c, 0, 79, 117
4, 412560, Note_on_c, 0, 87, 117
4, 412560, Note_on_c, 0, 91, 117
4, 413040, Note_on_c, 0, 91, 0
4, 413040, Note_on_c, 0, 87, 0
4, 413040, Note_on_c, 0, 79, 0
4, 413040, Note_on_c, 0, 77, 96
4, 413040, Note_on_c, 0, 86, 96
4, 413040, Note_on_c, 0, 89, 96
4, 413087, Note_on_c, 0, 89, 0
4, 413087, Note_on_c, 0, 86, 0
4, 413087, Note_on_c, 0, 77, 0
4, 413280, Note_on_c, 0, 75, 96
4, 413280, Note_on_c, 0, 84, 96
4, 413280, Note_on_c, 0, 87, 96
4, 413327, Note_on_c, 0, 87, 0
4, 413327, Note_on_c, 0, 84, 0
4, 413327, Note_on_c, 0, 75, 0
4, 413520, Note_on_c, 0, 74, 96
4, 413520, Note_on_c, 0, 82, 96
4, 413520, Note_on_c, 0, 86, 96
4, 413567, Note_on_c, 0, 86, 0
4, 413567, Note_on_c, 0, 82, 0
4, 413567, Note_on_c, 0, 74, 0
4, 416400, Note_on_c, 0, 70, 96
4, 416400, Note_on_c, 0, 74, 96
4, 416400, Note_on_c, 0, 77, 96
4, 416400, Note_on_c, 0, 82, 96
4, 417120, Note_on_c, 0, 82, 0
4, 417120, Note_on_c, 0, 70, 0
4, 417120, Note_on_c, 0, 74, 0
4, 417120, Note_on_c, 0, 77, 0
4, 422880, Note_on_c, 0, 57, 96
4, 422880, Note_on_c, 0, 60, 96
4, 422880, Note_on_c, 0, 65, 96
4, 423120, Note_on_c, 0, 65, 0
4, 423120, Note_on_c, 0, 60, 0
4, 423120, Note_on_c, 0, 57, 0
4, 423120, Note_on_c, 0, 58, 96
4, 423120, Note_on_c, 0, 62, 96
4, 423120, Note_on_c, 0, 65, 96
4, 423360, Note_on_c, 0, 65, 0
4, 423360, Note_on_c, 0, 62, 0
4, 423360, Note_on_c, 0, 58, 0
4, 423360, Note_on_c, 0, 60, 96
4, 423360, Note_on_c, 0, 65, 96
4, 423360, Note_on_c, 0, 69, 96
4, 423600, Note_on_c, 0, 69, 0
4, 423600, Note_on_c, 0, 65, 0
4, 423600, Note_on_c, 0, 60, 0
4, 423600, Note_on_c, 0, 62, 96
4, 423600, Note_on_c, 0, 65, 96
4, 423600, Note_on_c, 0, 70, 96
4, 423840, Note_on_c, 0, 70, 0
4, 423840, Note_on_c, 0, 65, 0
4, 423840, Note_on_c, 0, 62, 0
4, 423840, Note_on_c, 0, 65, 96
4, 423840, Note_on_c, 0, 69, 96
4, 423840, Note_on_c, 0, 72, 96
4, 424080, Note_on_c, 0, 72, 0
4, 424080, Note_on_c, 0, 69, 0
4, 424080, Note_on_c, 0, 65, 0
4, 424080, Note_on_c, 0, 65, 96
4, 424080, Note_on_c, 0, 70, 96
4, 424080, Note_on_c, 0, 74, 96
4, 424320, Note_on_c, 0, 74, 0
4, 424320, Note_on_c, 0, 70, 0
4, 424320, Note_on_c, 0, 65, 0
4, 424320, Note_on_c, 0, 69, 96
4, 424320, Note_on_c, 0, 72, 96
4, 424320, Note_on_c, 0, 77, 96
4, 424560, Note_on_c, 0, 77, 0
4, 424560, Note_on_c, 0, 72, 0
4, 424560, Note_on_c, 0, 69, 0
4, 424560, Note_on_c, 0, 70, 96
4, 424560, Note_on_c, 0, 74, 96
4, 424560, Note_on_c, 0, 77, 96
4, 424800, Note_on_c, 0, 77, 0
4, 424800, Note_on_c, 0, 74, 0
4, 424800, Note_on_c, 0, 70, 0
4, 424800, Note_on_c, 0, 72, 96
4, 424800, Note_on_c, 0, 77, 96
4, 424800, Note_on_c, 0, 81, 96
4, 425040, Note_on_c, 0, 81, 0
4, 425040, Note_on_c, 0, 77, 0
4, 425040, Note_on_c, 0, 72, 0
4, 425040, Note_on_c, 0, 74, 96
4, 425040, Note_on_c, 0, 77, 96
4, 425040, Note_on_c, 0, 82, 96
4, 425280, Note_on_c, 0, 82, 0
4, 425280, Note_on_c, 0, 77, 0
4, 425280, Note_on_c, 0, 74, 0
4, 425280, Note_on_c, 0, 77, 96
4, 425280, Note_on_c, 0, 81, 96
4, 425280, Note_on_c, 0, 84, 96
4, 425520, Note_on_c, 0, 84, 0
4, 425520, Note_on_c, 0, 81, 0
4, 425520, Note_on_c, 0, 77, 0
4, 425520, Note_on_c, 0, 77, 96
4, 425520, Note_on_c, 0, 82, 96
4, 425520, Note_on_c, 0, 86, 96
4, 425760, Note_on_c, 0, 86, 0
4, 425760, Note_on_c, 0, 82, 0
4, 425760, Note_on_c, 0, 77, 0
4, 425760, Note_on_c, 0, 81, 96
4, 425760, Note_on_c, 0, 84, 96
4, 425760, Note_on_c, 0, 89, 96
4, 426000, Note_on_c, 0, 89, 0
4, 426000, Note_on_c, 0, 84, 0
4, 426000, Note_on_c, 0, 81, 0
4, 426000, Note_on_c, 0, 82, 96
4, 426000, Note_on_c, 0, 86, 96
4, 426000, Note_on_c, 0, 89, 96
4, 426240, Note_on_c, 0, 89, 0
4, 426240, Note_on_c, 0, 86, 0
4, 426240, Note_on_c, 0, 82, 0
4, 426240, Note_on_c, 0, 84, 96
4, 426240, Note_on_c, 0, 89, 96
4, 426240, Note_on_c, 0, 93, 96
4, 426480, Note_on_c, 0, 93, 0
4, 426480, Note_on_c, 0, 89, 0
4, 426480, Note_on_c, 0, 84, 0
4, 426480, Control_c, 0, 64, 127
4, 426480, Note_on_c, 0, 86, 96
4, 426480, Note_on_c, 0, 89, 96
4, 426480, Note_on_c, 0, 94, 96
4, 426720, Note_on_c, 0, 94, 0
4, 426720, Note_on_c, 0, 89, 0
4, 426720, Note_on_c, 0, 86, 0
4, 426960, Control_c, 0, 64, 0
4, 427920, Note_on_c, 0, 70, 96
4, 427920, Note_on_c, 0, 74, 96
4, 427920, Note_on_c, 0, 77, 96
4, 427920, Note_on_c, 0, 82, 96
4, 428640, Note_on_c, 0, 82, 0
4, 428640, Note_on_c, 0, 70, 0
4, 428640, Note_on_c, 0, 74, 0
4, 428640, Note_on_c, 0, 77, 0
4, 429360, Note_on_c, 0, 70, 96
4, 429360, Note_on_c, 0, 74, 96
4, 429360, Note_on_c, 0, 77, 96
4, 429360, Note_on_c, 0, 82, 96
4, 430080, Note_on_c, 0, 82, 0
4, 430080, Note_on_c, 0, 70, 0
4, 430080, Note_on_c, 0, 74, 0
4, 430080, Note_on_c, 0, 77, 0
4, 430800, Control_c, 0, 64, 127
4, 430800, Note_on_c, 0, 70, 96
4, 430800, Note_on_c, 0, 74, 96
4, 430800, Note_on_c, 0, 77, 96
4, 430800, Note_on_c, 0, 82, 96
4, 431280, Note_on_c, 0, 82, 0
4, 431280, Note_on_c, 0, 70, 0
4, 431280, Note_on_c, 0, 74, 0
4, 431280, Note_on_c, 0, 77, 0
4, 431280, Note_on_c, 0, 70, 96
4, 431280, Note_on_c, 0, 74, 96
4, 431280, Note_on_c, 0, 77, 96
4, 431280, Note_on_c, 0, 82, 96
4, 431760, Note_on_c, 0, 82, 0
4, 431760, Note_on_c, 0, 70, 0
4, 431760, Note_on_c, 0, 74, 0
4, 431760, Note_on_c, 0, 77, 0
4, 431760, Note_on_c, 0, 70, 96
4, 431760, Note_on_c, 0, 74, 96
4, 431760, Note_on_c, 0, 77, 96
4, 431760, Note_on_c, 0, 82, 96
4, 432240, Note_on_c, 0, 82, 0
4, 432240, Note_on_c, 0, 70, 0
4, 432240, Note_on_c, 0, 74, 0
4, 432240, Note_on_c, 0, 77, 0
4, 432240, Note_on_c, 0, 58, 117
4, 434160, Control_c, 0, 64, 0
4, 436080, Note_on_c, 0, 58, 0
4, 436080, End_track
5, 0, Start_track
5, 0, Title_t, "Grand Piano"
5, 0, Program_c, 0, 0
5, 0, Control_c, 0, 7, 115
5, 0, Control_c, 0, 10, 41
5, 0, Note_on_c, 0, 29, 93
5, 47, Note_on_c, 0, 29, 0
5, 240, Note_on_c, 0, 41, 80
5, 240, Note_on_c, 0, 53, 80
5, 287, Note_on_c, 0, 53, 0
5, 287, Note_on_c, 0, 41, 0
5, 480, Note_on_c, 0, 39, 106
5, 480, Note_on_c, 0, 51, 106
5, 1200, Note_on_c, 0, 51, 0
5, 1200, Note_on_c, 0, 39, 0
5, 1200, Note_on_c, 0, 42, 80
5, 1200, Note_on_c, 0, 54, 80
5, 1440, Note_on_c, 0, 54, 0
5, 1440, Note_on_c, 0, 42, 0
5, 1440, Note_on_c, 0, 41, 80
5, 1440, Note_on_c, 0, 53, 80
5, 1487, Note_on_c, 0, 53, 0
5, 1487, Note_on_c, 0, 41, 0
5, 1680, Note_on_c, 0, 53, 80
5, 1680, Note_on_c, 0, 57, 80
5, 1680, Note_on_c, 0, 60, 80
5, 1727, Note_on_c, 0, 60, 0
5, 1727, Note_on_c, 0, 57, 0
5, 1727, Note_on_c, 0, 53, 0
5, 1920, Note_on_c, 0, 51, 106
5, 1920, Note_on_c, 0, 58, 106
5, 1920, Note_on_c, 0, 60, 106
5, 2640, Note_on_c, 0, 60, 0
5, 2640, Note_on_c, 0, 58, 0
5, 2640, Note_on_c, 0, 51, 0
5, 2640, Note_on_c, 0, 54, 80
5, 2640, Note_on_c, 0, 58, 80
5, 2640, Note_on_c, 0, 60, 80
5, 2880, Note_on_c, 0, 60, 0
5, 2880, Note_on_c, 0, 58, 0
5, 2880, Note_on_c, 0, 54, 0
5, 2880, Note_on_c, 0, 53, 80
5, 2880, Note_on_c, 0, 57, 80
5, 2880, Note_on_c, 0, 60, 80
5, 2927, Note_on_c, 0, 60, 0
5, 2927, Note_on_c, 0, 57, 0
5, 2927, Note_on_c, 0, 53, 0
5, 3120, Note_on_c, 0, 65, 80
5, 3120, Note_on_c, 0, 69, 80
5, 3120, Note_on_c, 0, 72, 80
5, 3167, Note_on_c, 0, 72, 0
5, 3167, Note_on_c, 0, 69, 0
5, 3167, Note_on_c, 0, 65, 0
5, 3360, Note_on_c, 0, 63, 106
5, 3360, Note_on_c, 0, 70, 106
5, 3360, Note_on_c, 0, 72, 106
5, 3840, Note_on_c, 0, 72, 0
5, 3840, Note_on_c, 0, 70, 0
5, 3840, Note_on_c, 0, 63, 0
5, 3840, Note_on_c, 0, 63, 80
5, 3840, Note_on_c, 0, 70, 80
5, 3840, Note_on_c, 0, 72, 80
5, 4080, Note_on_c, 0, 72, 0
5, 4080, Note_on_c, 0, 70, 0
5, 4080, Note_on_c, 0, 63, 0
5, 4080, Note_on_c, 0, 66, 80
5, 4080, Note_on_c, 0, 70, 80
5, 4080, Note_on_c, 0, 72, 80
5, 4320, Note_on_c, 0, 72, 0
5, 4320, Note_on_c, 0, 70, 0
5, 4320, Note_on_c, 0, 66, 0
5, 4320, Note_on_c, 0, 65, 80
5, 4320, Note_on_c, 0, 69, 80
5, 4320, Note_on_c, 0, 72, 80
5, 4367, Note_on_c, 0, 72, 0
5, 4367, Note_on_c, 0, 69, 0
5, 4367, Note_on_c, 0, 65, 0
5, 4560, Note_on_c, 0, 41, 80
5, 4560, Note_on_c, 0, 53, 80
5, 4607, Note_on_c, 0, 53, 0
5, 4607, Note_on_c, 0, 41, 0
5, 4800, Note_on_c, 0, 39, 80
5, 4800, Note_on_c, 0, 51, 80
5, 4847, Note_on_c, 0, 51, 0
5, 4847, Note_on_c, 0, 39, 0
5, 5040, Note_on_c, 0, 37, 80
5, 5040, Note_on_c, 0, 49, 80
5, 5087, Note_on_c, 0, 49, 0
5, 5087, Note_on_c, 0, 37, 0
5, 5280, Note_on_c, 0, 36, 80
5, 5280, Note_on_c, 0, 48, 80
5, 5327, Note_on_c, 0, 48, 0
5, 5327, Note_on_c, 0, 36, 0
5, 5520, Note_on_c, 0, 41, 80
5, 5520, Note_on_c, 0, 53, 80
5, 5567, Note_on_c, 0, 53, 0
5, 5567, Note_on_c, 0, 41, 0
5, 5760, Note_on_c, 0, 34, 80
5, 5760, Note_on_c, 0, 46, 80
5, 5807, Note_on_c, 0, 46, 0
5, 5807, Note_on_c, 0, 34, 0
5, 16080, Note_on_c, 0, 44, 67
5, 16080, Note_on_c, 0, 56, 67
5, 16320, Note_on_c, 0, 56, 0
5, 16320, Note_on_c, 0, 44, 0
5, 16320, Note_on_c, 0, 43, 67
5, 16320, Note_on_c, 0, 55, 67
5, 16560, Note_on_c, 0, 55, 0
5, 16560, Note_on_c, 0, 43, 0
5, 16560, Note_on_c, 0, 42, 67
5, 16560, Note_on_c, 0, 54, 67
5, 16800, Note_on_c, 0, 54, 0
5, 16800, Note_on_c, 0, 42, 0
5, 16800, Note_on_c, 0, 41, 67
5, 16800, Note_on_c, 0, 53, 67
5, 17040, Note_on_c, 0, 53, 0
5, 17040, Note_on_c, 0, 41, 0
5, 17040, Note_on_c, 0, 51, 67
5, 17280, Note_on_c, 0, 51, 0
5, 17280, Note_on_c, 0, 34, 67
5, 17280, Note_on_c, 0, 46, 67
5, 17520, Note_on_c, 0, 46, 0
5, 17520, Note_on_c, 0, 34, 0
5, 18000, Note_on_c, 0, 53, 67
5, 18047, Note_on_c, 0, 53, 0
5, 18240, Note_on_c, 0, 55, 67
5, 18287, Note_on_c, 0, 55, 0
5, 18480, Note_on_c, 0, 57, 67
5, 18527, Note_on_c, 0, 57, 0
5, 18720, Note_on_c, 0, 58, 67
5, 18767, Note_on_c, 0, 58, 0
5, 18960, Note_on_c, 0, 53, 67
5, 19007, Note_on_c, 0, 53, 0
5, 19200, Note_on_c, 0, 65, 67
5, 19247, Note_on_c, 0, 65, 0
5, 19440, Note_on_c, 0, 67, 67
5, 19487, Note_on_c, 0, 67, 0
5, 19680, Note_on_c, 0, 68, 67
5, 19727, Note_on_c, 0, 68, 0
5, 19920, Note_on_c, 0, 69, 67
5, 19967, Note_on_c, 0, 69, 0
5, 20160, Note_on_c, 0, 70, 67
5, 20207, Note_on_c, 0, 70, 0
5, 20400, Note_on_c, 0, 69, 67
5, 20447, Note_on_c, 0, 69, 0
5, 20640, Note_on_c, 0, 68, 67
5, 20687, Note_on_c, 0, 68, 0
5, 20880, Note_on_c, 0, 67, 67
5, 20927, Note_on_c, 0, 67, 0
5, 21120, Note_on_c, 0, 66, 67
5, 21167, Note_on_c, 0, 66, 0
5, 21360, Note_on_c, 0, 65, 67
5, 21407, Note_on_c, 0, 65, 0
5, 21600, Note_on_c, 0, 58, 67
5, 21647, Note_on_c, 0, 58, 0
5, 21840, Note_on_c, 0, 57, 67
5, 21887, Note_on_c, 0, 57, 0
5, 22080, Note_on_c, 0, 56, 67
5, 22127, Note_on_c, 0, 56, 0
5, 22320, Note_on_c, 0, 54, 67
5, 22367, Note_on_c, 0, 54, 0
5, 22560, Note_on_c, 0, 52, 67
5, 22607, Note_on_c, 0, 52, 0
5, 22800, Note_on_c, 0, 53, 67
5, 22847, Note_on_c, 0, 53, 0
5, 23040, Note_on_c, 0, 34, 67
5, 23040, Note_on_c, 0, 46, 67
5, 23087, Note_on_c, 0, 46, 0
5, 23087, Note_on_c, 0, 34, 0
5, 23760, Note_on_c, 0, 53, 67
5, 23807, Note_on_c, 0, 53, 0
5, 24000, Note_on_c, 0, 55, 67
5, 24047, Note_on_c, 0, 55, 0
5, 24240, Note_on_c, 0, 57, 67
5, 24287, Note_on_c, 0, 57, 0
5, 24480, Note_on_c, 0, 58, 67
5, 24527, Note_on_c, 0, 58, 0
5, 24720, Note_on_c, 0, 53, 67
5, 24767, Note_on_c, 0, 53, 0
5, 24960, Note_on_c, 0, 65, 67
5, 25007, Note_on_c, 0, 65, 0
5, 25200, Note_on_c, 0, 67, 67
5, 25247, Note_on_c, 0, 67, 0
5, 25440, Note_on_c, 0, 68, 67
5, 25487, Note_on_c, 0, 68, 0
5, 25680, Note_on_c, 0, 69, 67
5, 25727, Note_on_c, 0, 69, 0
5, 25920, Note_on_c, 0, 70, 67
5, 25967, Note_on_c, 0, 70, 0
5, 26160, Note_on_c, 0, 69, 67
5, 26207, Note_on_c, 0, 69, 0
5, 26400, Note_on_c, 0, 68, 67
5, 26447, Note_on_c, 0, 68, 0
5, 26640, Note_on_c, 0, 67, 67
5, 26687, Note_on_c, 0, 67, 0
5, 26880, Note_on_c, 0, 66, 67
5, 26927, Note_on_c, 0, 66, 0
5, 27120, Note_on_c, 0, 65, 67
5, 27167, Note_on_c, 0, 65, 0
5, 27360, Note_on_c, 0, 58, 67
5, 27407, Note_on_c, 0, 58, 0
5, 27600, Note_on_c, 0, 56, 67
5, 27647, Note_on_c, 0, 56, 0
5, 27840, Note_on_c, 0, 43, 80
5, 27840, Note_on_c, 0, 55, 80
5, 27840, Note_on_c, 0, 63, 80
5, 27887, Note_on_c, 0, 63, 0
5, 27887, Note_on_c, 0, 55, 0
5, 27887, Note_on_c, 0, 43, 0
5, 28080, Note_on_c, 0, 42, 80
5, 28080, Note_on_c, 0, 54, 80
5, 28080, Note_on_c, 0, 64, 80
5, 28127, Note_on_c, 0, 64, 0
5, 28127, Note_on_c, 0, 54, 0
5, 28127, Note_on_c, 0, 42, 0
5, 28320, Note_on_c, 0, 41, 80
5, 28320, Note_on_c, 0, 53, 80
5, 28367, Note_on_c, 0, 53, 0
5, 28367, Note_on_c, 0, 41, 0
5, 28560, Note_on_c, 0, 39, 80
5, 28560, Note_on_c, 0, 51, 80
5, 28607, Note_on_c, 0, 51, 0
5, 28607, Note_on_c, 0, 39, 0
5, 28800, Note_on_c, 0, 37, 80
5, 28800, Note_on_c, 0, 44, 80
5, 31680, Note_on_c, 0, 44, 0
5, 31680, Note_on_c, 0, 37, 0
5, 31680, Note_on_c, 0, 37, 80
5, 31680, Note_on_c, 0, 44, 80
5, 34560, Note_on_c, 0, 44, 0
5, 34560, Note_on_c, 0, 37, 0
5, 34560, Note_on_c, 0, 49, 80
5, 34560, Note_on_c, 0, 61, 80
5, 36720, Note_on_c, 0, 61, 0
5, 36720, Note_on_c, 0, 49, 0
5, 36720, Note_on_c, 0, 48, 80
5, 36720, Note_on_c, 0, 60, 80
5, 36767, Note_on_c, 0, 60, 0
5, 36767, Note_on_c, 0, 48, 0
5, 36960, Note_on_c, 0, 46, 80
5, 36960, Note_on_c, 0, 58, 80
5, 37007, Note_on_c, 0, 58, 0
5, 37007, Note_on_c, 0, 46, 0
5, 37200, Note_on_c, 0, 45, 80
5, 37200, Note_on_c, 0, 57, 80
5, 37247, Note_on_c, 0, 57, 0
5, 37247, Note_on_c, 0, 45, 0
5, 37440, Note_on_c, 0, 49, 80
5, 37440, Note_on_c, 0, 61, 80
5, 37487, Note_on_c, 0, 61, 0
5, 37487, Note_on_c, 0, 49, 0
5, 37680, Note_on_c, 0, 48, 80
5, 37680, Note_on_c, 0, 60, 80
5, 37727, Note_on_c, 0, 60, 0
5, 37727, Note_on_c, 0, 48, 0
5, 37920, Note_on_c, 0, 46, 80
5, 37920, Note_on_c, 0, 58, 80
5, 37967, Note_on_c, 0, 58, 0
5, 37967, Note_on_c, 0, 46, 0
5, 38160, Note_on_c, 0, 45, 80
5, 38160, Note_on_c, 0, 57, 80
5, 38207, Note_on_c, 0, 57, 0
5, 38207, Note_on_c, 0, 45, 0
5, 38400, Note_on_c, 0, 61, 80
5, 38447, Note_on_c, 0, 61, 0
5, 38640, Note_on_c, 0, 60, 80
5, 38687, Note_on_c, 0, 60, 0
5, 38880, Note_on_c, 0, 58, 80
5, 38927, Note_on_c, 0, 58, 0
5, 39120, Note_on_c, 0, 57, 80
5, 39167, Note_on_c, 0, 57, 0
5, 40320, Note_on_c, 0, 46, 80
5, 40320, Note_on_c, 0, 58, 80
5, 40560, Note_on_c, 0, 58, 0
5, 40560, Note_on_c, 0, 46, 0
5, 41040, Note_on_c, 0, 46, 80
5, 41040, Note_on_c, 0, 58, 80
5, 41280, Note_on_c, 0, 58, 0
5, 41280, Note_on_c, 0, 46, 0
5, 41760, Note_on_c, 0, 46, 80
5, 41760, Note_on_c, 0, 58, 80
5, 42000, Note_on_c, 0, 58, 0
5, 42000, Note_on_c, 0, 46, 0
5, 42480, Note_on_c, 0, 46, 80
5, 42480, Note_on_c, 0, 58, 80
5, 42720, Note_on_c, 0, 58, 0
5, 42720, Note_on_c, 0, 46, 0
5, 43200, Note_on_c, 0, 46, 80
5, 43200, Note_on_c, 0, 58, 80
5, 43440, Note_on_c, 0, 58, 0
5, 43440, Note_on_c, 0, 46, 0
5, 43920, Note_on_c, 0, 46, 80
5, 43920, Note_on_c, 0, 58, 80
5, 44160, Note_on_c, 0, 58, 0
5, 44160, Note_on_c, 0, 46, 0
5, 44640, Note_on_c, 0, 46, 80
5, 44640, Note_on_c, 0, 58, 80
5, 44880, Note_on_c, 0, 58, 0
5, 44880, Note_on_c, 0, 46, 0
5, 45360, Note_on_c, 0, 46, 80
5, 45360, Note_on_c, 0, 58, 80
5, 45600, Note_on_c, 0, 58, 0
5, 45600, Note_on_c, 0, 46, 0
5, 46080, Note_on_c, 0, 46, 80
5, 46080, Note_on_c, 0, 58, 80
5, 46320, Note_on_c, 0, 58, 0
5, 46320, Note_on_c, 0, 46, 0
5, 46800, Note_on_c, 0, 46, 80
5, 46800, Note_on_c, 0, 58, 80
5, 47040, Note_on_c, 0, 58, 0
5, 47040, Note_on_c, 0, 46, 0
5, 47520, Note_on_c, 0, 46, 80
5, 47520, Note_on_c, 0, 58, 80
5, 47760, Note_on_c, 0, 58, 0
5, 47760, Note_on_c, 0, 46, 0
5, 48240, Note_on_c, 0, 46, 80
5, 48240, Note_on_c, 0, 58, 80
5, 48480, Note_on_c, 0, 58, 0
5, 48480, Note_on_c, 0, 46, 0
5, 48960, Note_on_c, 0, 46, 80
5, 48960, Note_on_c, 0, 58, 80
5, 49200, Note_on_c, 0, 58, 0
5, 49200, Note_on_c, 0, 46, 0
5, 49680, Note_on_c, 0, 46, 80
5, 49680, Note_on_c, 0, 58, 80
5, 49920, Note_on_c, 0, 58, 0
5, 49920, Note_on_c, 0, 46, 0
5, 50400, Note_on_c, 0, 46, 80
5, 50400, Note_on_c, 0, 58, 80
5, 50640, Note_on_c, 0, 58, 0
5, 50640, Note_on_c, 0, 46, 0
5, 50880, Note_on_c, 0, 37, 67
5, 50880, Note_on_c, 0, 49, 67
5, 50927, Note_on_c, 0, 49, 0
5, 50927, Note_on_c, 0, 37, 0
5, 51120, Note_on_c, 0, 39, 67
5, 51120, Note_on_c, 0, 51, 67
5, 51167, Note_on_c, 0, 51, 0
5, 51167, Note_on_c, 0, 39, 0
5, 51360, Note_on_c, 0, 40, 80
5, 51360, Note_on_c, 0, 52, 80
5, 51407, Note_on_c, 0, 52, 0
5, 51407, Note_on_c, 0, 40, 0
5, 51600, Note_on_c, 0, 41, 80
5, 51600, Note_on_c, 0, 53, 80
5, 51647, Note_on_c, 0, 53, 0
5, 51647, Note_on_c, 0, 41, 0
5, 51840, Note_on_c, 0, 42, 80
5, 51840, Note_on_c, 0, 54, 80
5, 52080, Note_on_c, 0, 54, 0
5, 52080, Note_on_c, 0, 42, 0
5, 52080, Note_on_c, 0, 37, 80
5, 52080, Note_on_c, 0, 49, 80
5, 52320, Note_on_c, 0, 49, 0
5, 52320, Note_on_c, 0, 37, 0
5, 52320, Note_on_c, 0, 42, 80
5, 52320, Note_on_c, 0, 54, 80
5, 52560, Note_on_c, 0, 54, 0
5, 52560, Note_on_c, 0, 42, 0
5, 52560, Note_on_c, 0, 37, 80
5, 52560, Note_on_c, 0, 49, 80
5, 52800, Note_on_c, 0, 49, 0
5, 52800, Note_on_c, 0, 37, 0
5, 52800, Note_on_c, 0, 42, 80
5, 52800, Note_on_c, 0, 54, 80
5, 53040, Note_on_c, 0, 54, 0
5, 53040, Note_on_c, 0, 42, 0
5, 53040, Note_on_c, 0, 37, 80
5, 53040, Note_on_c, 0, 49, 80
5, 53280, Note_on_c, 0, 49, 0
5, 53280, Note_on_c, 0, 37, 0
5, 53280, Note_on_c, 0, 42, 80
5, 53280, Note_on_c, 0, 54, 80
5, 53520, Note_on_c, 0, 54, 0
5, 53520, Note_on_c, 0, 42, 0
5, 53520, Note_on_c, 0, 37, 80
5, 53520, Note_on_c, 0, 49, 80
5, 53760, Note_on_c, 0, 49, 0
5, 53760, Note_on_c, 0, 37, 0
5, 53760, Note_on_c, 0, 42, 80
5, 53760, Note_on_c, 0, 54, 80
5, 54000, Note_on_c, 0, 54, 0
5, 54000, Note_on_c, 0, 42, 0
5, 54000, Note_on_c, 0, 37, 80
5, 54000, Note_on_c, 0, 49, 80
5, 54240, Note_on_c, 0, 49, 0
5, 54240, Note_on_c, 0, 37, 0
5, 54240, Note_on_c, 0, 42, 80
5, 54240, Note_on_c, 0, 54, 80
5, 54480, Note_on_c, 0, 54, 0
5, 54480, Note_on_c, 0, 42, 0
5, 54480, Note_on_c, 0, 37, 80
5, 54480, Note_on_c, 0, 49, 80
5, 54720, Note_on_c, 0, 49, 0
5, 54720, Note_on_c, 0, 37, 0
5, 54720, Note_on_c, 0, 42, 80
5, 54720, Note_on_c, 0, 54, 80
5, 54960, Note_on_c, 0, 54, 0
5, 54960, Note_on_c, 0, 42, 0
5, 54960, Note_on_c, 0, 37, 80
5, 54960, Note_on_c, 0, 49, 80
5, 55200, Note_on_c, 0, 49, 0
5, 55200, Note_on_c, 0, 37, 0
5, 55200, Note_on_c, 0, 42, 80
5, 55200, Note_on_c, 0, 54, 80
5, 55440, Note_on_c, 0, 54, 0
5, 55440, Note_on_c, 0, 42, 0
5, 55440, Note_on_c, 0, 37, 80
5, 55440, Note_on_c, 0, 49, 80
5, 55680, Note_on_c, 0, 49, 0
5, 55680, Note_on_c, 0, 37, 0
5, 55680, Note_on_c, 0, 42, 80
5, 55680, Note_on_c, 0, 54, 80
5, 55920, Note_on_c, 0, 54, 0
5, 55920, Note_on_c, 0, 42, 0
5, 55920, Note_on_c, 0, 37, 80
5, 55920, Note_on_c, 0, 49, 80
5, 56160, Note_on_c, 0, 49, 0
5, 56160, Note_on_c, 0, 37, 0
5, 56160, Note_on_c, 0, 42, 80
5, 56160, Note_on_c, 0, 54, 80
5, 56400, Note_on_c, 0, 54, 0
5, 56400, Note_on_c, 0, 42, 0
5, 56400, Note_on_c, 0, 37, 80
5, 56400, Note_on_c, 0, 49, 80
5, 56640, Note_on_c, 0, 49, 0
5, 56640, Note_on_c, 0, 37, 0
5, 56640, Note_on_c, 0, 42, 80
5, 56640, Note_on_c, 0, 54, 80
5, 56880, Note_on_c, 0, 54, 0
5, 56880, Note_on_c, 0, 42, 0
5, 56880, Note_on_c, 0, 37, 80
5, 56880, Note_on_c, 0, 49, 80
5, 57120, Note_on_c, 0, 49, 0
5, 57120, Note_on_c, 0, 37, 0
5, 57120, Note_on_c, 0, 42, 80
5, 57120, Note_on_c, 0, 54, 80
5, 57360, Note_on_c, 0, 54, 0
5, 57360, Note_on_c, 0, 42, 0
5, 57360, Note_on_c, 0, 37, 80
5, 57360, Note_on_c, 0, 49, 80
5, 57600, Note_on_c, 0, 49, 0
5, 57600, Note_on_c, 0, 37, 0
5, 57600, Note_on_c, 0, 42, 80
5, 57600, Note_on_c, 0, 54, 80
5, 57840, Note_on_c, 0, 54, 0
5, 57840, Note_on_c, 0, 42, 0
5, 57840, Note_on_c, 0, 37, 80
5, 57840, Note_on_c, 0, 49, 80
5, 58080, Note_on_c, 0, 49, 0
5, 58080, Note_on_c, 0, 37, 0
5, 58080, Note_on_c, 0, 42, 80
5, 58080, Note_on_c, 0, 54, 80
5, 58320, Note_on_c, 0, 54, 0
5, 58320, Note_on_c, 0, 42, 0
5, 58320, Note_on_c, 0, 37, 80
5, 58320, Note_on_c, 0, 49, 80
5, 58560, Note_on_c, 0, 49, 0
5, 58560, Note_on_c, 0, 37, 0
5, 58560, Note_on_c, 0, 42, 80
5, 58560, Note_on_c, 0, 54, 80
5, 58800, Note_on_c, 0, 54, 0
5, 58800, Note_on_c, 0, 42, 0
5, 58800, Note_on_c, 0, 37, 80
5, 58800, Note_on_c, 0, 49, 80
5, 59040, Note_on_c, 0, 49, 0
5, 59040, Note_on_c, 0, 37, 0
5, 59040, Note_on_c, 0, 42, 80
5, 59040, Note_on_c, 0, 54, 80
5, 59280, Note_on_c, 0, 54, 0
5, 59280, Note_on_c, 0, 42, 0
5, 59280, Note_on_c, 0, 37, 80
5, 59280, Note_on_c, 0, 49, 80
5, 59520, Note_on_c, 0, 49, 0
5, 59520, Note_on_c, 0, 37, 0
5, 59520, Note_on_c, 0, 42, 80
5, 59520, Note_on_c, 0, 54, 80
5, 59760, Note_on_c, 0, 54, 0
5, 59760, Note_on_c, 0, 42, 0
5, 59760, Note_on_c, 0, 37, 80
5, 59760, Note_on_c, 0, 49, 80
5, 60000, Note_on_c, 0, 49, 0
5, 60000, Note_on_c, 0, 37, 0
5, 60000, Note_on_c, 0, 42, 80
5, 60000, Note_on_c, 0, 54, 80
5, 60240, Note_on_c, 0, 54, 0
5, 60240, Note_on_c, 0, 42, 0
5, 60240, Note_on_c, 0, 37, 80
5, 60240, Note_on_c, 0, 49, 80
5, 60480, Note_on_c, 0, 49, 0
5, 60480, Note_on_c, 0, 37, 0
5, 60480, Note_on_c, 0, 42, 80
5, 60480, Note_on_c, 0, 54, 80
5, 60720, Note_on_c, 0, 54, 0
5, 60720, Note_on_c, 0, 42, 0
5, 60720, Note_on_c, 0, 37, 80
5, 60720, Note_on_c, 0, 49, 80
5, 60960, Note_on_c, 0, 49, 0
5, 60960, Note_on_c, 0, 37, 0
5, 60960, Note_on_c, 0, 42, 80
5, 60960, Note_on_c, 0, 54, 80
5, 61200, Note_on_c, 0, 54, 0
5, 61200, Note_on_c, 0, 42, 0
5, 61200, Note_on_c, 0, 37, 80
5, 61200, Note_on_c, 0, 49, 80
5, 61440, Note_on_c, 0, 49, 0
5, 61440, Note_on_c, 0, 37, 0
5, 61440, Note_on_c, 0, 42, 80
5, 61440, Note_on_c, 0, 54, 80
5, 61680, Note_on_c, 0, 54, 0
5, 61680, Note_on_c, 0, 42, 0
5, 61680, Note_on_c, 0, 37, 80
5, 61680, Note_on_c, 0, 49, 80
5, 61920, Note_on_c, 0, 49, 0
5, 61920, Note_on_c, 0, 37, 0
5, 61920, Note_on_c, 0, 42, 80
5, 61920, Note_on_c, 0, 54, 80
5, 62160, Note_on_c, 0, 54, 0
5, 62160, Note_on_c, 0, 42, 0
5, 62160, Note_on_c, 0, 37, 80
5, 62160, Note_on_c, 0, 49, 80
5, 62400, Note_on_c, 0, 49, 0
5, 62400, Note_on_c, 0, 37, 0
5, 62400, Note_on_c, 0, 42, 80
5, 62400, Note_on_c, 0, 54, 80
5, 62640, Note_on_c, 0, 54, 0
5, 62640, Note_on_c, 0, 42, 0
5, 62640, Note_on_c, 0, 37, 80
5, 62640, Note_on_c, 0, 49, 80
5, 62880, Note_on_c, 0, 49, 0
5, 62880, Note_on_c, 0, 37, 0
5, 62880, Note_on_c, 0, 42, 80
5, 62880, Note_on_c, 0, 54, 80
5, 63120, Note_on_c, 0, 54, 0
5, 63120, Note_on_c, 0, 42, 0
5, 63120, Note_on_c, 0, 41, 80
5, 63120, Note_on_c, 0, 53, 80
5, 63360, Note_on_c, 0, 53, 0
5, 63360, Note_on_c, 0, 41, 0
5, 82080, Control_c, 0, 64, 127
5, 82080, Note_on_c, 0, 49, 54
5, 82320, Note_on_c, 0, 49, 0
5, 82320, Note_on_c, 0, 53, 54
5, 82320, Note_on_c, 0, 56, 54
5, 82320, Note_on_c, 0, 61, 54
5, 82800, Note_on_c, 0, 61, 0
5, 82800, Note_on_c, 0, 56, 0
5, 82800, Note_on_c, 0, 53, 0
5, 82800, Note_on_c, 0, 53, 54
5, 82800, Note_on_c, 0, 56, 54
5, 82800, Note_on_c, 0, 61, 54
5, 83280, Note_on_c, 0, 61, 0
5, 83280, Note_on_c, 0, 56, 0
5, 83280, Note_on_c, 0, 53, 0
5, 83280, Control_c, 0, 64, 0
5, 83280, Note_on_c, 0, 53, 54
5, 83280, Note_on_c, 0, 56, 54
5, 83280, Note_on_c, 0, 61, 54
5, 83520, Note_on_c, 0, 61, 0
5, 83520, Note_on_c, 0, 56, 0
5, 83520, Note_on_c, 0, 53, 0
5, 83520, Control_c, 0, 64, 127
5, 83520, Note_on_c, 0, 49, 54
5, 83760, Note_on_c, 0, 49, 0
5, 83760, Note_on_c, 0, 54, 54
5, 83760, Note_on_c, 0, 56, 54
5, 83760, Note_on_c, 0, 60, 54
5, 84240, Note_on_c, 0, 60, 0
5, 84240, Note_on_c, 0, 56, 0
5, 84240, Note_on_c, 0, 54, 0
5, 84240, Note_on_c, 0, 54, 54
5, 84240, Note_on_c, 0, 56, 54
5, 84240, Note_on_c, 0, 60, 54
5, 84720, Note_on_c, 0, 60, 0
5, 84720, Note_on_c, 0, 56, 0
5, 84720, Note_on_c, 0, 54, 0
5, 84720, Control_c, 0, 64, 0
5, 84720, Note_on_c, 0, 54, 54
5, 84720, Note_on_c, 0, 56, 54
5, 84720, Note_on_c, 0, 60, 54
5, 84960, Note_on_c, 0, 60, 0
5, 84960, Note_on_c, 0, 56, 0
5, 84960, Note_on_c, 0, 54, 0
5, 84960, Control_c, 0, 64, 127
5, 84960, Note_on_c, 0, 49, 54
5, 85200, Note_on_c, 0, 49, 0
5, 85200, Note_on_c, 0, 53, 54
5, 85200, Note_on_c, 0, 56, 54
5, 85200, Note_on_c, 0, 61, 54
5, 85680, Note_on_c, 0, 61, 0
5, 85680, Note_on_c, 0, 56, 0
5, 85680, Note_on_c, 0, 53, 0
5, 85680, Note_on_c, 0, 53, 54
5, 85680, Note_on_c, 0, 56, 54
5, 85680, Note_on_c, 0, 61, 54
5, 86160, Note_on_c, 0, 61, 0
5, 86160, Note_on_c, 0, 56, 0
5, 86160, Note_on_c, 0, 53, 0
5, 86160, Control_c, 0, 64, 0
5, 86160, Note_on_c, 0, 56, 54
5, 86160, Note_on_c, 0, 61, 54
5, 86160, Note_on_c, 0, 65, 54
5, 86400, Note_on_c, 0, 65, 0
5, 86400, Note_on_c, 0, 61, 0
5, 86400, Note_on_c, 0, 56, 0
5, 86400, Control_c, 0, 64, 127
5, 86400, Note_on_c, 0, 49, 54
5, 86640, Note_on_c, 0, 49, 0
5, 86640, Note_on_c, 0, 56, 54
5, 86640, Note_on_c, 0, 60, 54
5, 86640, Note_on_c, 0, 66, 54
5, 87120, Note_on_c, 0, 66, 0
5, 87120, Note_on_c, 0, 60, 0
5, 87120, Note_on_c, 0, 56, 0
5, 87120, Note_on_c, 0, 56, 54
5, 87120, Note_on_c, 0, 60, 54
5, 87120, Note_on_c, 0, 66, 54
5, 87600, Note_on_c, 0, 66, 0
5, 87600, Note_on_c, 0, 60, 0
5, 87600, Note_on_c, 0, 56, 0
5, 87600, Control_c, 0, 64, 0
5, 87600, Note_on_c, 0, 56, 54
5, 87600, Note_on_c, 0, 60, 54
5, 87600, Note_on_c, 0, 66, 54
5, 87840, Note_on_c, 0, 66, 0
5, 87840, Note_on_c, 0, 60, 0
5, 87840, Note_on_c, 0, 56, 0
5, 87840, Control_c, 0, 64, 127
5, 87840, Note_on_c, 0, 49, 54
5, 88080, Note_on_c, 0, 49, 0
5, 88080, Note_on_c, 0, 56, 54
5, 88080, Note_on_c, 0, 61, 54
5, 88080, Note_on_c, 0, 65, 54
5, 88560, Note_on_c, 0, 65, 0
5, 88560, Note_on_c, 0, 61, 0
5, 88560, Note_on_c, 0, 56, 0
5, 88560, Note_on_c, 0, 56, 54
5, 88560, Note_on_c, 0, 61, 54
5, 88560, Note_on_c, 0, 65, 54
5, 89040, Note_on_c, 0, 65, 0
5, 89040, Note_on_c, 0, 61, 0
5, 89040, Note_on_c, 0, 56, 0
5, 89040, Control_c, 0, 64, 0
5, 89040, Note_on_c, 0, 56, 54
5, 89040, Note_on_c, 0, 59, 54
5, 89040, Note_on_c, 0, 65, 54
5, 89280, Note_on_c, 0, 65, 0
5, 89280, Note_on_c, 0, 59, 0
5, 89280, Note_on_c, 0, 56, 0
5, 89280, Control_c, 0, 64, 127
5, 89280, Note_on_c, 0, 48, 54
5, 89520, Note_on_c, 0, 48, 0
5, 89520, Note_on_c, 0, 56, 54
5, 89520, Note_on_c, 0, 60, 54
5, 89520, Note_on_c, 0, 65, 54
5, 90000, Note_on_c, 0, 65, 0
5, 90000, Note_on_c, 0, 60, 0
5, 90000, Note_on_c, 0, 56, 0
5, 90000, Control_c, 0, 64, 0
5, 90000, Note_on_c, 0, 56, 54
5, 90000, Note_on_c, 0, 60, 54
5, 90000, Note_on_c, 0, 65, 54
5, 90240, Note_on_c, 0, 65, 0
5, 90240, Note_on_c, 0, 60, 0
5, 90240, Note_on_c, 0, 56, 0
5, 90240, Note_on_c, 0, 48, 54
5, 90480, Note_on_c, 0, 48, 0
5, 90480, Note_on_c, 0, 55, 54
5, 90480, Note_on_c, 0, 58, 54
5, 90480, Note_on_c, 0, 64, 54
5, 90720, Note_on_c, 0, 64, 0
5, 90720, Note_on_c, 0, 58, 0
5, 90720, Note_on_c, 0, 55, 0
5, 90720, Control_c, 0, 64, 127
5, 90720, Note_on_c, 0, 41, 54
5, 90960, Note_on_c, 0, 41, 0
5, 90960, Note_on_c, 0, 56, 54
5, 90960, Note_on_c, 0, 60, 54
5, 90960, Note_on_c, 0, 65, 54
5, 91440, Note_on_c, 0, 65, 0
5, 91440, Note_on_c, 0, 60, 0
5, 91440, Note_on_c, 0, 56, 0
5, 91440, Note_on_c, 0, 56, 54
5, 91440, Note_on_c, 0, 60, 54
5, 91440, Note_on_c, 0, 65, 54
5, 91920, Note_on_c, 0, 65, 0
5, 91920, Note_on_c, 0, 60, 0
5, 91920, Note_on_c, 0, 56, 0
5, 91920, Control_c, 0, 64, 0
5, 91920, Note_on_c, 0, 56, 54
5, 91920, Note_on_c, 0, 60, 54
5, 91920, Note_on_c, 0, 65, 54
5, 92100, Note_on_c, 0, 44, 54
5, 92160, Note_on_c, 0, 44, 0
5, 92160, Note_on_c, 0, 56, 0
5, 92160, Note_on_c, 0, 60, 0
5, 92160, Note_on_c, 0, 65, 0
5, 92160, Note_on_c, 0, 54, 54
5, 92160, Note_on_c, 0, 60, 54
5, 92160, Note_on_c, 0, 65, 54
5, 93600, Note_on_c, 0, 65, 0
5, 93600, Note_on_c, 0, 60, 0
5, 93600, Note_on_c, 0, 54, 0
5, 94080, Note_on_c, 0, 37, 54
5, 94080, Note_on_c, 0, 49, 54
5, 94560, Note_on_c, 0, 49, 0
5, 94560, Note_on_c, 0, 37, 0
5, 94560, Note_on_c, 0, 37, 54
5, 94560, Note_on_c, 0, 49, 54
5, 95040, Note_on_c, 0, 49, 0
5, 95040, Note_on_c, 0, 37, 0
5, 95520, Note_on_c, 0, 37, 54
5, 95520, Note_on_c, 0, 49, 54
5, 96000, Note_on_c, 0, 49, 0
5, 96000, Note_on_c, 0, 37, 0
5, 96000, Note_on_c, 0, 37, 54
5, 96000, Note_on_c, 0, 49, 54
5, 96480, Note_on_c, 0, 49, 0
5, 96480, Note_on_c, 0, 37, 0
5, 96960, Note_on_c, 0, 37, 54
5, 96960, Note_on_c, 0, 49, 54
5, 97440, Note_on_c, 0, 49, 0
5, 97440, Note_on_c, 0, 37, 0
5, 97440, Note_on_c, 0, 37, 54
5, 97440, Note_on_c, 0, 49, 54
5, 97920, Note_on_c, 0, 49, 0
5, 97920, Note_on_c, 0, 37, 0
5, 98400, Note_on_c, 0, 37, 54
5, 98400, Note_on_c, 0, 49, 54
5, 98880, Note_on_c, 0, 49, 0
5, 98880, Note_on_c, 0, 37, 0
5, 98880, Note_on_c, 0, 37, 54
5, 98880, Note_on_c, 0, 49, 54
5, 99360, Note_on_c, 0, 49, 0
5, 99360, Note_on_c, 0, 37, 0
5, 99840, Note_on_c, 0, 37, 54
5, 99840, Note_on_c, 0, 49, 54
5, 100320, Note_on_c, 0, 49, 0
5, 100320, Note_on_c, 0, 37, 0
5, 100320, Note_on_c, 0, 37, 54
5, 100320, Note_on_c, 0, 49, 54
5, 100800, Note_on_c, 0, 49, 0
5, 100800, Note_on_c, 0, 37, 0
5, 101280, Note_on_c, 0, 37, 54
5, 101280, Note_on_c, 0, 49, 54
5, 101760, Note_on_c, 0, 49, 0
5, 101760, Note_on_c, 0, 37, 0
5, 101760, Note_on_c, 0, 35, 54
5, 101760, Note_on_c, 0, 47, 54
5, 102240, Note_on_c, 0, 47, 0
5, 102240, Note_on_c, 0, 35, 0
5, 102240, Note_on_c, 0, 36, 54
5, 102240, Note_on_c, 0, 48, 54
5, 103200, Note_on_c, 0, 48, 0
5, 103200, Note_on_c, 0, 36, 0
5, 103200, Note_on_c, 0, 48, 54
5, 103680, Note_on_c, 0, 48, 0
5, 103680, Note_on_c, 0, 41, 54
5, 103680, Note_on_c, 0, 53, 54
5, 104640, Note_on_c, 0, 53, 0
5, 104640, Note_on_c, 0, 41, 0
5, 104640, Note_on_c, 0, 40, 67
5, 104640, Note_on_c, 0, 52, 67
5, 105120, Note_on_c, 0, 52, 0
5, 105120, Note_on_c, 0, 40, 0
5, 105120, Note_on_c, 0, 39, 67
5, 105120, Note_on_c, 0, 51, 67
5, 106560, Note_on_c, 0, 51, 0
5, 106560, Note_on_c, 0, 39, 0
5, 106560, Note_on_c, 0, 44, 67
5, 106560, Note_on_c, 0, 56, 67
5, 108000, Note_on_c, 0, 56, 0
5, 108000, Note_on_c, 0, 44, 0
5, 108000, Note_on_c, 0, 43, 80
5, 108000, Note_on_c, 0, 55, 80
5, 109440, Note_on_c, 0, 55, 0
5, 109440, Note_on_c, 0, 43, 0
5, 109440, Note_on_c, 0, 48, 80
5, 109440, Note_on_c, 0, 60, 80
5, 109920, Note_on_c, 0, 60, 0
5, 109920, Note_on_c, 0, 48, 0
5, 109920, Note_on_c, 0, 46, 80
5, 109920, Note_on_c, 0, 58, 80
5, 110400, Note_on_c, 0, 58, 0
5, 110400, Note_on_c, 0, 46, 0
5, 110400, Note_on_c, 0, 45, 80
5, 110400, Note_on_c, 0, 57, 80
5, 110880, Note_on_c, 0, 57, 0
5, 110880, Note_on_c, 0, 45, 0
5, 110880, Note_on_c, 0, 46, 80
5, 110880, Note_on_c, 0, 58, 80
5, 111360, Note_on_c, 0, 58, 0
5, 111360, Note_on_c, 0, 46, 0
5, 111360, Note_on_c, 0, 45, 80
5, 111360, Note_on_c, 0, 57, 80
5, 111840, Note_on_c, 0, 57, 0
5, 111840, Note_on_c, 0, 45, 0
5, 111840, Note_on_c, 0, 41, 80
5, 111840, Note_on_c, 0, 53, 80
5, 112320, Note_on_c, 0, 53, 0
5, 112320, Note_on_c, 0, 41, 0
5, 112320, Note_on_c, 0, 46, 80
5, 112320, Note_on_c, 0, 58, 80
5, 112800, Note_on_c, 0, 58, 0
5, 112800, Note_on_c, 0, 46, 0
5, 112800, Note_on_c, 0, 44, 80
5, 112800, Note_on_c, 0, 56, 80
5, 113280, Note_on_c, 0, 56, 0
5, 113280, Note_on_c, 0, 44, 0
5, 113280, Note_on_c, 0, 43, 80
5, 113280, Note_on_c, 0, 55, 80
5, 113760, Note_on_c, 0, 55, 0
5, 113760, Note_on_c, 0, 43, 0
5, 113760, Note_on_c, 0, 42, 80
5, 113760, Note_on_c, 0, 54, 80
5, 114000, Note_on_c, 0, 54, 0
5, 114000, Note_on_c, 0, 42, 0
5, 122400, Note_on_c, 0, 66, 93
5, 122423, Note_on_c, 0, 66, 0
5, 122520, Note_on_c, 0, 65, 93
5, 122543, Note_on_c, 0, 65, 0
5, 122640, Note_on_c, 0, 63, 93
5, 122663, Note_on_c, 0, 63, 0
5, 122760, Note_on_c, 0, 61, 93
5, 122783, Note_on_c, 0, 61, 0
5, 122880, Note_on_c, 0, 60, 93
5, 122903, Note_on_c, 0, 60, 0
5, 123000, Note_on_c, 0, 58, 93
5, 123023, Note_on_c, 0, 58, 0
5, 123120, Note_on_c, 0, 57, 93
5, 123143, Note_on_c, 0, 57, 0
5, 123240, Note_on_c, 0, 54, 93
5, 123263, Note_on_c, 0, 54, 0
5, 123360, Note_on_c, 0, 53, 93
5, 123383, Note_on_c, 0, 53, 0
5, 123480, Note_on_c, 0, 51, 93
5, 123503, Note_on_c, 0, 51, 0
5, 123600, Note_on_c, 0, 49, 93
5, 123623, Note_on_c, 0, 49, 0
5, 123720, Note_on_c, 0, 48, 93
5, 123743, Note_on_c, 0, 48, 0
5, 125280, Note_on_c, 0, 54, 93
5, 125303, Note_on_c, 0, 54, 0
5, 125400, Note_on_c, 0, 53, 93
5, 125423, Note_on_c, 0, 53, 0
5, 125520, Note_on_c, 0, 51, 93
5, 125543, Note_on_c, 0, 51, 0
5, 125640, Note_on_c, 0, 49, 93
5, 125663, Note_on_c, 0, 49, 0
5, 125760, Note_on_c, 0, 48, 93
5, 125783, Note_on_c, 0, 48, 0
5, 125880, Note_on_c, 0, 46, 93
5, 125903, Note_on_c, 0, 46, 0
5, 126000, Note_on_c, 0, 45, 93
5, 126023, Note_on_c, 0, 45, 0
5, 126120, Note_on_c, 0, 42, 93
5, 126143, Note_on_c, 0, 42, 0
5, 126240, Note_on_c, 0, 41, 93
5, 126263, Note_on_c, 0, 41, 0
5, 126360, Note_on_c, 0, 39, 93
5, 126383, Note_on_c, 0, 39, 0
5, 126480, Note_on_c, 0, 37, 93
5, 126503, Note_on_c, 0, 37, 0
5, 126600, Note_on_c, 0, 36, 93
5, 126623, Note_on_c, 0, 36, 0
5, 126720, Note_on_c, 0, 34, 67
5, 126960, Note_on_c, 0, 34, 0
5, 127440, Note_on_c, 0, 46, 67
5, 127440, Note_on_c, 0, 53, 67
5, 128160, Note_on_c, 0, 53, 0
5, 128160, Note_on_c, 0, 46, 0
5, 128160, Note_on_c, 0, 46, 67
5, 128160, Note_on_c, 0, 53, 67
5, 128880, Note_on_c, 0, 53, 0
5, 128880, Note_on_c, 0, 46, 0
5, 128880, Note_on_c, 0, 46, 67
5, 128880, Note_on_c, 0, 53, 67
5, 129600, Note_on_c, 0, 53, 0
5, 129600, Note_on_c, 0, 46, 0
5, 129600, Note_on_c, 0, 46, 67
5, 129600, Note_on_c, 0, 53, 67
5, 130320, Note_on_c, 0, 53, 0
5, 130320, Note_on_c, 0, 46, 0
5, 130320, Note_on_c, 0, 46, 67
5, 130320, Note_on_c, 0, 53, 67
5, 131040, Note_on_c, 0, 53, 0
5, 131040, Note_on_c, 0, 46, 0
5, 131040, Note_on_c, 0, 46, 67
5, 131040, Note_on_c, 0, 53, 67
5, 131760, Note_on_c, 0, 53, 0
5, 131760, Note_on_c, 0, 46, 0
5, 131760, Note_on_c, 0, 46, 67
5, 131760, Note_on_c, 0, 53, 67
5, 132480, Note_on_c, 0, 53, 0
5, 132480, Note_on_c, 0, 46, 0
5, 132480, Note_on_c, 0, 46, 67
5, 132480, Note_on_c, 0, 53, 67
5, 133200, Note_on_c, 0, 53, 0
5, 133200, Note_on_c, 0, 46, 0
5, 133200, Note_on_c, 0, 46, 67
5, 133200, Note_on_c, 0, 53, 67
5, 133920, Note_on_c, 0, 53, 0
5, 133920, Note_on_c, 0, 46, 0
5, 133920, Note_on_c, 0, 46, 67
5, 133920, Note_on_c, 0, 53, 67
5, 134640, Note_on_c, 0, 53, 0
5, 134640, Note_on_c, 0, 46, 0
5, 134640, Note_on_c, 0, 46, 67
5, 134640, Note_on_c, 0, 53, 67
5, 135360, Note_on_c, 0, 53, 0
5, 135360, Note_on_c, 0, 46, 0
5, 135360, Note_on_c, 0, 46, 67
5, 135360, Note_on_c, 0, 53, 67
5, 136080, Note_on_c, 0, 53, 0
5, 136080, Note_on_c, 0, 46, 0
5, 136080, Note_on_c, 0, 46, 67
5, 136080, Note_on_c, 0, 53, 67
5, 136800, Note_on_c, 0, 53, 0
5, 136800, Note_on_c, 0, 46, 0
5, 136800, Note_on_c, 0, 46, 67
5, 136800, Note_on_c, 0, 53, 67
5, 137040, Note_on_c, 0, 53, 0
5, 137040, Note_on_c, 0, 46, 0
5, 137040, Note_on_c, 0, 44, 67
5, 137040, Note_on_c, 0, 56, 67
5, 137087, Note_on_c, 0, 56, 0
5, 137087, Note_on_c, 0, 44, 0
5, 137280, Note_on_c, 0, 43, 67
5, 137280, Note_on_c, 0, 55, 67
5, 137327, Note_on_c, 0, 55, 0
5, 137327, Note_on_c, 0, 43, 0
5, 137520, Note_on_c, 0, 42, 67
5, 137520, Note_on_c, 0, 54, 67
5, 137567, Note_on_c, 0, 54, 0
5, 137567, Note_on_c, 0, 42, 0
5, 137760, Note_on_c, 0, 43, 67
5, 137760, Note_on_c, 0, 55, 67
5, 137807, Note_on_c, 0, 55, 0
5, 137807, Note_on_c, 0, 43, 0
5, 138000, Note_on_c, 0, 36, 67
5, 138000, Note_on_c, 0, 48, 67
5, 138047, Note_on_c, 0, 48, 0
5, 138047, Note_on_c, 0, 36, 0
5, 138240, Note_on_c, 0, 41, 80
5, 138240, Note_on_c, 0, 53, 80
5, 138480, Note_on_c, 0, 53, 0
5, 138480, Note_on_c, 0, 41, 0
5, 138960, Note_on_c, 0, 41, 80
5, 139680, Note_on_c, 0, 41, 0
5, 139680, Note_on_c, 0, 45, 80
5, 139680, Note_on_c, 0, 48, 80
5, 139680, Note_on_c, 0, 57, 80
5, 139680, Note_on_c, 0, 60, 80
5, 139727, Note_on_c, 0, 60, 0
5, 139727, Note_on_c, 0, 45, 0
5, 139727, Note_on_c, 0, 48, 0
5, 139727, Note_on_c, 0, 57, 0
5, 139920, Note_on_c, 0, 57, 80
5, 139920, Note_on_c, 0, 60, 80
5, 139920, Note_on_c, 0, 69, 80
5, 139920, Note_on_c, 0, 72, 80
5, 139967, Note_on_c, 0, 72, 0
5, 139967, Note_on_c, 0, 57, 0
5, 139967, Note_on_c, 0, 60, 0
5, 139967, Note_on_c, 0, 69, 0
5, 140160, Note_on_c, 0, 58, 106
5, 140160, Note_on_c, 0, 62, 106
5, 140160, Note_on_c, 0, 70, 106
5, 140160, Note_on_c, 0, 74, 106
5, 140520, Note_on_c, 0, 74, 0
5, 140520, Note_on_c, 0, 58, 0
5, 140520, Note_on_c, 0, 62, 0
5, 140520, Note_on_c, 0, 70, 0
5, 140520, Note_on_c, 0, 60, 80
5, 140520, Note_on_c, 0, 72, 80
5, 140580, Note_on_c, 0, 72, 0
5, 140580, Note_on_c, 0, 60, 0
5, 140580, Note_on_c, 0, 62, 80
5, 140580, Note_on_c, 0, 74, 80
5, 140640, Note_on_c, 0, 74, 0
5, 140640, Note_on_c, 0, 62, 0
5, 140640, Note_on_c, 0, 57, 80
5, 140640, Note_on_c, 0, 60, 80
5, 140640, Note_on_c, 0, 69, 80
5, 140640, Note_on_c, 0, 72, 80
5, 140687, Note_on_c, 0, 72, 0
5, 140687, Note_on_c, 0, 57, 0
5, 140687, Note_on_c, 0, 60, 0
5, 140687, Note_on_c, 0, 69, 0
5, 140880, Note_on_c, 0, 55, 80
5, 140880, Note_on_c, 0, 58, 80
5, 140880, Note_on_c, 0, 67, 80
5, 140880, Note_on_c, 0, 70, 80
5, 140927, Note_on_c, 0, 70, 0
5, 140927, Note_on_c, 0, 55, 0
5, 140927, Note_on_c, 0, 58, 0
5, 140927, Note_on_c, 0, 67, 0
5, 141120, Note_on_c, 0, 53, 80
5, 141120, Note_on_c, 0, 57, 80
5, 141360, Note_on_c, 0, 57, 0
5, 141360, Note_on_c, 0, 53, 0
5, 141840, Note_on_c, 0, 41, 80
5, 142560, Note_on_c, 0, 41, 0
5, 142560, Note_on_c, 0, 45, 80
5, 142560, Note_on_c, 0, 48, 80
5, 142560, Note_on_c, 0, 57, 80
5, 142560, Note_on_c, 0, 60, 80
5, 142607, Note_on_c, 0, 60, 0
5, 142607, Note_on_c, 0, 45, 0
5, 142607, Note_on_c, 0, 48, 0
5, 142607, Note_on_c, 0, 57, 0
5, 142800, Note_on_c, 0, 57, 80
5, 142800, Note_on_c, 0, 60, 80
5, 142800, Note_on_c, 0, 69, 80
5, 142800, Note_on_c, 0, 72, 80
5, 142847, Note_on_c, 0, 72, 0
5, 142847, Note_on_c, 0, 57, 0
5, 142847, Note_on_c, 0, 60, 0
5, 142847, Note_on_c, 0, 69, 0
5, 143040, Note_on_c, 0, 58, 106
5, 143040, Note_on_c, 0, 62, 106
5, 143040, Note_on_c, 0, 70, 106
5, 143040, Note_on_c, 0, 74, 106
5, 143400, Note_on_c, 0, 74, 0
5, 143400, Note_on_c, 0, 58, 0
5, 143400, Note_on_c, 0, 62, 0
5, 143400, Note_on_c, 0, 70, 0
5, 143400, Note_on_c, 0, 60, 80
5, 143400, Note_on_c, 0, 72, 80
5, 143460, Note_on_c, 0, 72, 0
5, 143460, Note_on_c, 0, 60, 0
5, 143460, Note_on_c, 0, 62, 80
5, 143460, Note_on_c, 0, 74, 80
5, 143520, Note_on_c, 0, 74, 0
5, 143520, Note_on_c, 0, 62, 0
5, 143520, Note_on_c, 0, 57, 80
5, 143520, Note_on_c, 0, 60, 80
5, 143520, Note_on_c, 0, 69, 80
5, 143520, Note_on_c, 0, 72, 80
5, 143567, Note_on_c, 0, 72, 0
5, 143567, Note_on_c, 0, 57, 0
5, 143567, Note_on_c, 0, 60, 0
5, 143567, Note_on_c, 0, 69, 0
5, 143760, Note_on_c, 0, 55, 80
5, 143760, Note_on_c, 0, 58, 80
5, 143760, Note_on_c, 0, 67, 80
5, 143760, Note_on_c, 0, 70, 80
5, 143807, Note_on_c, 0, 70, 0
5, 143807, Note_on_c, 0, 55, 0
5, 143807, Note_on_c, 0, 58, 0
5, 143807, Note_on_c, 0, 67, 0
5, 144000, Note_on_c, 0, 53, 80
5, 144000, Note_on_c, 0, 57, 80
5, 144240, Note_on_c, 0, 57, 0
5, 144240, Note_on_c, 0, 53, 0
5, 144240, Note_on_c, 0, 58, 54
5, 144240, Note_on_c, 0, 60, 54
5, 144240, Note_on_c, 0, 67, 54
5, 144287, Note_on_c, 0, 67, 0
5, 144287, Note_on_c, 0, 60, 0
5, 144287, Note_on_c, 0, 58, 0
5, 144480, Note_on_c, 0, 57, 54
5, 144480, Note_on_c, 0, 60, 54
5, 144480, Note_on_c, 0, 65, 54
5, 144527, Note_on_c, 0, 65, 0
5, 144527, Note_on_c, 0, 60, 0
5, 144527, Note_on_c, 0, 57, 0
5, 144720, Note_on_c, 0, 55, 54
5, 144720, Note_on_c, 0, 60, 54
5, 144720, Note_on_c, 0, 63, 54
5, 144767, Note_on_c, 0, 63, 0
5, 144767, Note_on_c, 0, 60, 0
5, 144767, Note_on_c, 0, 55, 0
5, 144960, Note_on_c, 0, 54, 54
5, 144960, Note_on_c, 0, 60, 54
5, 144960, Note_on_c, 0, 62, 54
5, 145007, Note_on_c, 0, 62, 0
5, 145007, Note_on_c, 0, 60, 0
5, 145007, Note_on_c, 0, 54, 0
5, 145200, Note_on_c, 0, 55, 54
5, 145200, Note_on_c, 0, 60, 54
5, 145200, Note_on_c, 0, 63, 54
5, 145247, Note_on_c, 0, 63, 0
5, 145247, Note_on_c, 0, 60, 0
5, 145247, Note_on_c, 0, 55, 0
5, 145440, Note_on_c, 0, 57, 54
5, 145440, Note_on_c, 0, 60, 54
5, 145440, Note_on_c, 0, 62, 54
5, 145487, Note_on_c, 0, 62, 0
5, 145487, Note_on_c, 0, 60, 0
5, 145487, Note_on_c, 0, 57, 0
5, 145680, Note_on_c, 0, 38, 54
5, 145680, Note_on_c, 0, 50, 54
5, 145920, Note_on_c, 0, 50, 0
5, 145920, Note_on_c, 0, 38, 0
5, 145920, Note_on_c, 0, 34, 54
5, 145920, Note_on_c, 0, 46, 54
5, 146160, Note_on_c, 0, 46, 0
5, 146160, Note_on_c, 0, 34, 0
5, 146160, Note_on_c, 0, 31, 54
5, 146160, Note_on_c, 0, 43, 54
5, 146400, Note_on_c, 0, 43, 0
5, 146400, Note_on_c, 0, 31, 0
5, 146400, Note_on_c, 0, 43, 54
5, 146400, Note_on_c, 0, 55, 54
5, 147120, Note_on_c, 0, 55, 0
5, 147120, Note_on_c, 0, 43, 0
5, 147120, Note_on_c, 0, 60, 54
5, 147120, Note_on_c, 0, 62, 54
5, 147120, Note_on_c, 0, 69, 54
5, 147167, Note_on_c, 0, 69, 0
5, 147167, Note_on_c, 0, 62, 0
5, 147167, Note_on_c, 0, 60, 0
5, 147360, Note_on_c, 0, 59, 54
5, 147360, Note_on_c, 0, 62, 54
5, 147360, Note_on_c, 0, 67, 54
5, 147407, Note_on_c, 0, 67, 0
5, 147407, Note_on_c, 0, 62, 0
5, 147407, Note_on_c, 0, 59, 0
5, 147600, Note_on_c, 0, 57, 54
5, 147600, Note_on_c, 0, 62, 54
5, 147600, Note_on_c, 0, 65, 54
5, 147647, Note_on_c, 0, 65, 0
5, 147647, Note_on_c, 0, 62, 0
5, 147647, Note_on_c, 0, 57, 0
5, 147840, Note_on_c, 0, 56, 54
5, 147840, Note_on_c, 0, 62, 54
5, 147840, Note_on_c, 0, 64, 54
5, 147887, Note_on_c, 0, 64, 0
5, 147887, Note_on_c, 0, 62, 0
5, 147887, Note_on_c, 0, 56, 0
5, 148080, Note_on_c, 0, 57, 54
5, 148080, Note_on_c, 0, 62, 54
5, 148080, Note_on_c, 0, 65, 54
5, 148127, Note_on_c, 0, 65, 0
5, 148127, Note_on_c, 0, 62, 0
5, 148127, Note_on_c, 0, 57, 0
5, 148320, Note_on_c, 0, 59, 54
5, 148320, Note_on_c, 0, 62, 54
5, 148320, Note_on_c, 0, 64, 54
5, 148560, Note_on_c, 0, 64, 0
5, 148560, Note_on_c, 0, 62, 0
5, 148560, Note_on_c, 0, 59, 0
5, 148560, Note_on_c, 0, 40, 54
5, 148560, Note_on_c, 0, 52, 54
5, 148800, Note_on_c, 0, 52, 0
5, 148800, Note_on_c, 0, 40, 0
5, 148800, Note_on_c, 0, 36, 54
5, 148800, Note_on_c, 0, 48, 54
5, 149040, Note_on_c, 0, 48, 0
5, 149040, Note_on_c, 0, 36, 0
5, 149040, Note_on_c, 0, 33, 54
5, 149040, Note_on_c, 0, 45, 54
5, 149280, Note_on_c, 0, 45, 0
5, 149280, Note_on_c, 0, 33, 0
5, 149280, Note_on_c, 0, 45, 54
5, 149280, Note_on_c, 0, 57, 54
5, 150000, Note_on_c, 0, 57, 0
5, 150000, Note_on_c, 0, 45, 0
5, 150000, Note_on_c, 0, 62, 54
5, 150000, Note_on_c, 0, 64, 54
5, 150000, Note_on_c, 0, 71, 54
5, 150047, Note_on_c, 0, 71, 0
5, 150047, Note_on_c, 0, 64, 0
5, 150047, Note_on_c, 0, 62, 0
5, 150240, Note_on_c, 0, 60, 54
5, 150240, Note_on_c, 0, 64, 54
5, 150240, Note_on_c, 0, 69, 54
5, 150287, Note_on_c, 0, 69, 0
5, 150287, Note_on_c, 0, 64, 0
5, 150287, Note_on_c, 0, 60, 0
5, 150480, Note_on_c, 0, 59, 54
5, 150480, Note_on_c, 0, 64, 54
5, 150480, Note_on_c, 0, 68, 54
5, 150527, Note_on_c, 0, 68, 0
5, 150527, Note_on_c, 0, 64, 0
5, 150527, Note_on_c, 0, 59, 0
5, 150720, Note_on_c, 0, 57, 54
5, 150720, Note_on_c, 0, 64, 54
5, 150720, Note_on_c, 0, 66, 54
5, 150767, Note_on_c, 0, 66, 0
5, 150767, Note_on_c, 0, 64, 0
5, 150767, Note_on_c, 0, 57, 0
5, 150960, Note_on_c, 0, 59, 54
5, 150960, Note_on_c, 0, 64, 54
5, 150960, Note_on_c, 0, 68, 54
5, 151007, Note_on_c, 0, 68, 0
5, 151007, Note_on_c, 0, 64, 0
5, 151007, Note_on_c, 0, 59, 0
5, 151200, Note_on_c, 0, 60, 54
5, 151200, Note_on_c, 0, 64, 54
5, 151200, Note_on_c, 0, 69, 54
5, 151247, Note_on_c, 0, 69, 0
5, 151247, Note_on_c, 0, 64, 0
5, 151247, Note_on_c, 0, 60, 0
5, 151440, Note_on_c, 0, 60, 54
5, 151440, Note_on_c, 0, 64, 54
5, 151487, Note_on_c, 0, 64, 0
5, 151487, Note_on_c, 0, 60, 0
5, 151680, Note_on_c, 0, 62, 80
5, 151680, Note_on_c, 0, 65, 80
5, 151920, Note_on_c, 0, 65, 0
5, 151920, Note_on_c, 0, 62, 0
5, 151920, Note_on_c, 0, 52, 54
5, 151920, Note_on_c, 0, 56, 54
5, 152160, Note_on_c, 0, 56, 0
5, 152160, Note_on_c, 0, 52, 0
5, 152160, Note_on_c, 0, 57, 54
5, 152400, Note_on_c, 0, 57, 0
5, 152400, Note_on_c, 0, 59, 54
5, 152640, Note_on_c, 0, 59, 0
5, 152640, Note_on_c, 0, 57, 54
5, 152640, Note_on_c, 0, 60, 54
5, 152880, Note_on_c, 0, 60, 0
5, 152880, Note_on_c, 0, 57, 0
5, 152880, Note_on_c, 0, 55, 54
5, 152880, Note_on_c, 0, 57, 54
5, 152880, Note_on_c, 0, 64, 54
5, 152895, Note_on_c, 0, 64, 0
5, 152895, Note_on_c, 0, 57, 0
5, 152895, Note_on_c, 0, 55, 0
5, 153120, Note_on_c, 0, 53, 54
5, 153120, Note_on_c, 0, 57, 54
5, 153120, Note_on_c, 0, 62, 54
5, 153135, Note_on_c, 0, 62, 0
5, 153135, Note_on_c, 0, 57, 0
5, 153135, Note_on_c, 0, 53, 0
5, 153360, Note_on_c, 0, 52, 54
5, 153360, Note_on_c, 0, 57, 54
5, 153360, Note_on_c, 0, 61, 54
5, 153375, Note_on_c, 0, 61, 0
5, 153375, Note_on_c, 0, 57, 0
5, 153375, Note_on_c, 0, 52, 0
5, 153600, Note_on_c, 0, 50, 54
5, 153600, Note_on_c, 0, 57, 54
5, 153600, Note_on_c, 0, 58, 54
5, 153615, Note_on_c, 0, 58, 0
5, 153615, Note_on_c, 0, 57, 0
5, 153615, Note_on_c, 0, 50, 0
5, 153840, Note_on_c, 0, 52, 54
5, 153840, Note_on_c, 0, 57, 54
5, 153840, Note_on_c, 0, 61, 54
5, 153855, Note_on_c, 0, 61, 0
5, 153855, Note_on_c, 0, 57, 0
5, 153855, Note_on_c, 0, 52, 0
5, 154080, Note_on_c, 0, 53, 54
5, 154080, Note_on_c, 0, 57, 54
5, 154080, Note_on_c, 0, 62, 54
5, 154127, Note_on_c, 0, 62, 0
5, 154127, Note_on_c, 0, 57, 0
5, 154127, Note_on_c, 0, 53, 0
5, 154320, Note_on_c, 0, 58, 54
5, 154320, Note_on_c, 0, 62, 54
5, 154367, Note_on_c, 0, 62, 0
5, 154367, Note_on_c, 0, 58, 0
5, 154560, Note_on_c, 0, 60, 80
5, 154560, Note_on_c, 0, 63, 80
5, 154800, Note_on_c, 0, 63, 0
5, 154800, Note_on_c, 0, 60, 0
5, 154800, Note_on_c, 0, 50, 54
5, 154800, Note_on_c, 0, 54, 54
5, 155040, Note_on_c, 0, 54, 0
5, 155040, Note_on_c, 0, 50, 0
5, 155040, Note_on_c, 0, 55, 54
5, 155280, Note_on_c, 0, 55, 0
5, 155280, Note_on_c, 0, 57, 54
5, 155520, Note_on_c, 0, 57, 0
5, 155520, Note_on_c, 0, 55, 54
5, 155520, Note_on_c, 0, 62, 54
5, 155567, Note_on_c, 0, 62, 0
5, 155567, Note_on_c, 0, 55, 0
5, 156240, Note_on_c, 0, 48, 54
5, 156240, Note_on_c, 0, 52, 54
5, 156240, Note_on_c, 0, 60, 54
5, 156480, Note_on_c, 0, 60, 0
5, 156480, Note_on_c, 0, 52, 0
5, 156480, Note_on_c, 0, 48, 0
5, 156480, Note_on_c, 0, 53, 54
5, 156720, Note_on_c, 0, 53, 0
5, 156720, Note_on_c, 0, 55, 54
5, 156960, Note_on_c, 0, 55, 0
5, 156960, Note_on_c, 0, 53, 54
5, 156960, Note_on_c, 0, 60, 54
5, 157200, Note_on_c, 0, 60, 0
5, 157200, Note_on_c, 0, 53, 0
5, 157200, Note_on_c, 0, 46, 54
5, 157200, Note_on_c, 0, 50, 54
5, 157200, Note_on_c, 0, 58, 54
5, 157440, Note_on_c, 0, 58, 0
5, 157440, Note_on_c, 0, 50, 0
5, 157440, Note_on_c, 0, 46, 0
5, 157440, Note_on_c, 0, 51, 54
5, 157680, Note_on_c, 0, 51, 0
5, 157680, Note_on_c, 0, 53, 54
5, 157920, Note_on_c, 0, 53, 0
5, 157920, Note_on_c, 0, 51, 54
5, 157920, Note_on_c, 0, 58, 54
5, 158160, Note_on_c, 0, 58, 0
5, 158160, Note_on_c, 0, 51, 0
5, 158160, Note_on_c, 0, 46, 54
5, 158160, Note_on_c, 0, 50, 54
5, 158160, Note_on_c, 0, 58, 54
5, 158400, Note_on_c, 0, 58, 0
5, 158400, Note_on_c, 0, 50, 0
5, 158400, Note_on_c, 0, 46, 0
5, 158400, Note_on_c, 0, 51, 67
5, 158640, Note_on_c, 0, 51, 0
5, 158640, Note_on_c, 0, 53, 67
5, 158880, Note_on_c, 0, 53, 0
5, 158880, Note_on_c, 0, 51, 67
5, 158880, Note_on_c, 0, 58, 67
5, 159120, Note_on_c, 0, 58, 0
5, 159120, Note_on_c, 0, 51, 0
5, 159120, Note_on_c, 0, 46, 80
5, 159120, Note_on_c, 0, 50, 80
5, 159120, Note_on_c, 0, 58, 80
5, 159360, Note_on_c, 0, 58, 0
5, 159360, Note_on_c, 0, 50, 0
5, 159360, Note_on_c, 0, 46, 0
5, 159360, Note_on_c, 0, 51, 80
5, 159600, Note_on_c, 0, 51, 0
5, 159600, Note_on_c, 0, 53, 80
5, 159840, Note_on_c, 0, 53, 0
5, 159840, Note_on_c, 0, 51, 80
5, 159840, Note_on_c, 0, 58, 80
5, 160080, Note_on_c, 0, 58, 0
5, 160080, Note_on_c, 0, 51, 0
5, 162720, Note_on_c, 0, 44, 93
5, 162720, Note_on_c, 0, 56, 93
5, 162960, Note_on_c, 0, 56, 0
5, 162960, Note_on_c, 0, 44, 0
5, 162960, Note_on_c, 0, 39, 93
5, 162960, Note_on_c, 0, 51, 93
5, 163200, Note_on_c, 0, 51, 0
5, 163200, Note_on_c, 0, 39, 0
5, 163200, Note_on_c, 0, 44, 93
5, 163200, Note_on_c, 0, 56, 93
5, 163440, Note_on_c, 0, 56, 0
5, 163440, Note_on_c, 0, 44, 0
5, 163440, Note_on_c, 0, 39, 93
5, 163440, Note_on_c, 0, 51, 93
5, 163680, Note_on_c, 0, 51, 0
5, 163680, Note_on_c, 0, 39, 0
5, 163680, Note_on_c, 0, 44, 93
5, 163680, Note_on_c, 0, 56, 93
5, 163920, Note_on_c, 0, 56, 0
5, 163920, Note_on_c, 0, 44, 0
5, 163920, Note_on_c, 0, 39, 93
5, 163920, Note_on_c, 0, 51, 93
5, 164160, Note_on_c, 0, 51, 0
5, 164160, Note_on_c, 0, 39, 0
5, 164160, Note_on_c, 0, 44, 93
5, 164160, Note_on_c, 0, 56, 93
5, 164400, Note_on_c, 0, 56, 0
5, 164400, Note_on_c, 0, 44, 0
5, 164400, Note_on_c, 0, 39, 93
5, 164400, Note_on_c, 0, 51, 93
5, 164640, Note_on_c, 0, 51, 0
5, 164640, Note_on_c, 0, 39, 0
5, 164640, Note_on_c, 0, 44, 93
5, 164640, Note_on_c, 0, 56, 93
5, 164880, Note_on_c, 0, 56, 0
5, 164880, Note_on_c, 0, 44, 0
5, 164880, Note_on_c, 0, 39, 93
5, 164880, Note_on_c, 0, 51, 93
5, 165120, Note_on_c, 0, 51, 0
5, 165120, Note_on_c, 0, 39, 0
5, 165120, Note_on_c, 0, 44, 93
5, 165120, Note_on_c, 0, 56, 93
5, 165360, Note_on_c, 0, 56, 0
5, 165360, Note_on_c, 0, 44, 0
5, 165360, Note_on_c, 0, 39, 93
5, 165360, Note_on_c, 0, 51, 93
5, 165600, Note_on_c, 0, 51, 0
5, 165600, Note_on_c, 0, 39, 0
5, 165600, Note_on_c, 0, 44, 93
5, 165600, Note_on_c, 0, 56, 93
5, 165840, Note_on_c, 0, 56, 0
5, 165840, Note_on_c, 0, 44, 0
5, 165840, Note_on_c, 0, 39, 93
5, 165840, Note_on_c, 0, 51, 93
5, 166080, Note_on_c, 0, 51, 0
5, 166080, Note_on_c, 0, 39, 0
5, 166080, Note_on_c, 0, 44, 93
5, 166080, Note_on_c, 0, 56, 93
5, 166320, Note_on_c, 0, 56, 0
5, 166320, Note_on_c, 0, 44, 0
5, 166320, Note_on_c, 0, 39, 93
5, 166320, Note_on_c, 0, 51, 93
5, 166560, Note_on_c, 0, 51, 0
5, 166560, Note_on_c, 0, 39, 0
5, 166560, Note_on_c, 0, 44, 93
5, 166560, Note_on_c, 0, 56, 93
5, 166800, Note_on_c, 0, 56, 0
5, 166800, Note_on_c, 0, 44, 0
5, 166800, Note_on_c, 0, 39, 93
5, 166800, Note_on_c, 0, 51, 93
5, 167040, Note_on_c, 0, 51, 0
5, 167040, Note_on_c, 0, 39, 0
5, 167040, Note_on_c, 0, 44, 93
5, 167040, Note_on_c, 0, 56, 93
5, 167280, Note_on_c, 0, 56, 0
5, 167280, Note_on_c, 0, 44, 0
5, 167280, Note_on_c, 0, 39, 93
5, 167280, Note_on_c, 0, 51, 93
5, 167520, Note_on_c, 0, 51, 0
5, 167520, Note_on_c, 0, 39, 0
5, 167520, Note_on_c, 0, 44, 93
5, 167520, Note_on_c, 0, 56, 93
5, 167760, Note_on_c, 0, 56, 0
5, 167760, Note_on_c, 0, 44, 0
5, 167760, Note_on_c, 0, 39, 93
5, 167760, Note_on_c, 0, 51, 93
5, 168000, Note_on_c, 0, 51, 0
5, 168000, Note_on_c, 0, 39, 0
5, 168000, Note_on_c, 0, 44, 93
5, 168000, Note_on_c, 0, 56, 93
5, 168240, Note_on_c, 0, 56, 0
5, 168240, Note_on_c, 0, 44, 0
5, 168240, Note_on_c, 0, 39, 93
5, 168240, Note_on_c, 0, 51, 93
5, 168480, Note_on_c, 0, 51, 0
5, 168480, Note_on_c, 0, 39, 0
5, 168480, Note_on_c, 0, 44, 93
5, 168480, Note_on_c, 0, 56, 93
5, 168720, Note_on_c, 0, 56, 0
5, 168720, Note_on_c, 0, 44, 0
5, 168720, Note_on_c, 0, 39, 93
5, 168720, Note_on_c, 0, 51, 93
5, 168960, Note_on_c, 0, 51, 0
5, 168960, Note_on_c, 0, 39, 0
5, 168960, Note_on_c, 0, 44, 93
5, 168960, Note_on_c, 0, 56, 93
5, 169200, Note_on_c, 0, 56, 0
5, 169200, Note_on_c, 0, 44, 0
5, 169200, Note_on_c, 0, 39, 93
5, 169200, Note_on_c, 0, 51, 93
5, 169440, Note_on_c, 0, 51, 0
5, 169440, Note_on_c, 0, 39, 0
5, 169440, Note_on_c, 0, 44, 93
5, 169440, Note_on_c, 0, 56, 93
5, 169680, Note_on_c, 0, 56, 0
5, 169680, Note_on_c, 0, 44, 0
5, 169680, Note_on_c, 0, 39, 93
5, 169680, Note_on_c, 0, 51, 93
5, 169920, Note_on_c, 0, 51, 0
5, 169920, Note_on_c, 0, 39, 0
5, 169920, Note_on_c, 0, 44, 93
5, 169920, Note_on_c, 0, 56, 93
5, 170160, Note_on_c, 0, 56, 0
5, 170160, Note_on_c, 0, 44, 0
5, 170160, Note_on_c, 0, 39, 93
5, 170160, Note_on_c, 0, 51, 93
5, 170400, Note_on_c, 0, 51, 0
5, 170400, Note_on_c, 0, 39, 0
5, 170400, Note_on_c, 0, 44, 93
5, 170400, Note_on_c, 0, 56, 93
5, 170640, Note_on_c, 0, 56, 0
5, 170640, Note_on_c, 0, 44, 0
5, 170640, Note_on_c, 0, 39, 93
5, 170640, Note_on_c, 0, 51, 93
5, 170880, Note_on_c, 0, 51, 0
5, 170880, Note_on_c, 0, 39, 0
5, 170880, Note_on_c, 0, 44, 93
5, 170880, Note_on_c, 0, 56, 93
5, 171120, Note_on_c, 0, 56, 0
5, 171120, Note_on_c, 0, 44, 0
5, 171120, Note_on_c, 0, 39, 93
5, 171120, Note_on_c, 0, 51, 93
5, 171360, Note_on_c, 0, 51, 0
5, 171360, Note_on_c, 0, 39, 0
5, 171360, Note_on_c, 0, 44, 93
5, 171360, Note_on_c, 0, 56, 93
5, 171600, Note_on_c, 0, 56, 0
5, 171600, Note_on_c, 0, 44, 0
5, 171600, Note_on_c, 0, 39, 93
5, 171600, Note_on_c, 0, 51, 93
5, 171840, Note_on_c, 0, 51, 0
5, 171840, Note_on_c, 0, 39, 0
5, 171840, Note_on_c, 0, 44, 93
5, 171840, Note_on_c, 0, 56, 93
5, 172080, Note_on_c, 0, 56, 0
5, 172080, Note_on_c, 0, 44, 0
5, 172080, Note_on_c, 0, 39, 93
5, 172080, Note_on_c, 0, 51, 93
5, 172320, Note_on_c, 0, 51, 0
5, 172320, Note_on_c, 0, 39, 0
5, 172320, Note_on_c, 0, 44, 93
5, 172320, Note_on_c, 0, 56, 93
5, 172560, Note_on_c, 0, 56, 0
5, 172560, Note_on_c, 0, 44, 0
5, 172560, Note_on_c, 0, 39, 93
5, 172560, Note_on_c, 0, 51, 93
5, 172800, Note_on_c, 0, 51, 0
5, 172800, Note_on_c, 0, 39, 0
5, 172800, Note_on_c, 0, 44, 93
5, 172800, Note_on_c, 0, 56, 93
5, 173040, Note_on_c, 0, 56, 0
5, 173040, Note_on_c, 0, 44, 0
5, 173040, Note_on_c, 0, 39, 93
5, 173040, Note_on_c, 0, 51, 93
5, 173280, Note_on_c, 0, 51, 0
5, 173280, Note_on_c, 0, 39, 0
5, 173280, Note_on_c, 0, 44, 93
5, 173280, Note_on_c, 0, 56, 93
5, 173520, Note_on_c, 0, 56, 0
5, 173520, Note_on_c, 0, 44, 0
5, 173520, Note_on_c, 0, 39, 93
5, 173520, Note_on_c, 0, 51, 93
5, 173760, Note_on_c, 0, 51, 0
5, 173760, Note_on_c, 0, 39, 0
5, 173760, Note_on_c, 0, 44, 93
5, 173760, Note_on_c, 0, 56, 93
5, 174000, Note_on_c, 0, 56, 0
5, 174000, Note_on_c, 0, 44, 0
5, 174000, Note_on_c, 0, 43, 93
5, 174000, Note_on_c, 0, 55, 93
5, 174240, Note_on_c, 0, 55, 0
5, 174240, Note_on_c, 0, 43, 0
5, 192960, Control_c, 0, 64, 127
5, 192960, Note_on_c, 0, 51, 54
5, 193200, Note_on_c, 0, 51, 0
5, 193200, Note_on_c, 0, 55, 54
5, 193200, Note_on_c, 0, 58, 54
5, 193200, Note_on_c, 0, 63, 54
5, 193680, Note_on_c, 0, 63, 0
5, 193680, Note_on_c, 0, 58, 0
5, 193680, Note_on_c, 0, 55, 0
5, 193680, Note_on_c, 0, 55, 54
5, 193680, Note_on_c, 0, 58, 54
5, 193680, Note_on_c, 0, 63, 54
5, 194160, Note_on_c, 0, 63, 0
5, 194160, Note_on_c, 0, 58, 0
5, 194160, Note_on_c, 0, 55, 0
5, 194160, Control_c, 0, 64, 0
5, 194160, Note_on_c, 0, 55, 54
5, 194160, Note_on_c, 0, 58, 54
5, 194160, Note_on_c, 0, 63, 54
5, 194400, Note_on_c, 0, 63, 0
5, 194400, Note_on_c, 0, 58, 0
5, 194400, Note_on_c, 0, 55, 0
5, 194400, Control_c, 0, 64, 127
5, 194400, Note_on_c, 0, 51, 54
5, 194640, Note_on_c, 0, 51, 0
5, 194640, Note_on_c, 0, 56, 54
5, 194640, Note_on_c, 0, 58, 54
5, 194640, Note_on_c, 0, 62, 54
5, 195120, Note_on_c, 0, 62, 0
5, 195120, Note_on_c, 0, 58, 0
5, 195120, Note_on_c, 0, 56, 0
5, 195120, Note_on_c, 0, 56, 54
5, 195120, Note_on_c, 0, 58, 54
5, 195120, Note_on_c, 0, 62, 54
5, 195600, Note_on_c, 0, 62, 0
5, 195600, Note_on_c, 0, 58, 0
5, 195600, Note_on_c, 0, 56, 0
5, 195600, Control_c, 0, 64, 0
5, 195600, Note_on_c, 0, 56, 54
5, 195600, Note_on_c, 0, 58, 54
5, 195600, Note_on_c, 0, 62, 54
5, 195840, Note_on_c, 0, 62, 0
5, 195840, Note_on_c, 0, 58, 0
5, 195840, Note_on_c, 0, 56, 0
5, 195840, Control_c, 0, 64, 127
5, 195840, Note_on_c, 0, 51, 54
5, 196080, Note_on_c, 0, 51, 0
5, 196080, Note_on_c, 0, 55, 54
5, 196080, Note_on_c, 0, 58, 54
5, 196080, Note_on_c, 0, 63, 54
5, 196560, Note_on_c, 0, 63, 0
5, 196560, Note_on_c, 0, 58, 0
5, 196560, Note_on_c, 0, 55, 0
5, 196560, Note_on_c, 0, 55, 54
5, 196560, Note_on_c, 0, 58, 54
5, 196560, Note_on_c, 0, 63, 54
5, 197040, Note_on_c, 0, 63, 0
5, 197040, Note_on_c, 0, 58, 0
5, 197040, Note_on_c, 0, 55, 0
5, 197040, Control_c, 0, 64, 0
5, 197040, Note_on_c, 0, 58, 54
5, 197040, Note_on_c, 0, 63, 54
5, 197040, Note_on_c, 0, 67, 54
5, 197280, Note_on_c, 0, 67, 0
5, 197280, Note_on_c, 0, 63, 0
5, 197280, Note_on_c, 0, 58, 0
5, 197760, Note_on_c, 0, 39, 54
5, 197760, Note_on_c, 0, 51, 54
5, 198240, Note_on_c, 0, 51, 0
5, 198240, Note_on_c, 0, 39, 0
5, 198240, Note_on_c, 0, 39, 54
5, 198240, Note_on_c, 0, 51, 54
5, 198720, Note_on_c, 0, 51, 0
5, 198720, Note_on_c, 0, 39, 0
5, 199200, Note_on_c, 0, 39, 54
5, 199200, Note_on_c, 0, 51, 54
5, 199680, Note_on_c, 0, 51, 0
5, 199680, Note_on_c, 0, 39, 0
5, 199680, Note_on_c, 0, 37, 54
5, 199680, Note_on_c, 0, 49, 54
5, 200160, Note_on_c, 0, 49, 0
5, 200160, Note_on_c, 0, 37, 0
5, 200160, Note_on_c, 0, 38, 54
5, 200160, Note_on_c, 0, 50, 54
5, 201120, Note_on_c, 0, 50, 0
5, 201120, Note_on_c, 0, 38, 0
5, 201120, Note_on_c, 0, 50, 54
5, 201600, Note_on_c, 0, 50, 0
5, 201600, Note_on_c, 0, 43, 54
5, 201600, Note_on_c, 0, 55, 54
5, 202560, Note_on_c, 0, 55, 0
5, 202560, Note_on_c, 0, 43, 0
5, 202560, Note_on_c, 0, 42, 54
5, 202560, Note_on_c, 0, 54, 54
5, 203040, Note_on_c, 0, 54, 0
5, 203040, Note_on_c, 0, 42, 0
5, 203040, Note_on_c, 0, 41, 54
5, 203040, Note_on_c, 0, 53, 54
5, 204480, Note_on_c, 0, 53, 0
5, 204480, Note_on_c, 0, 41, 0
5, 204480, Note_on_c, 0, 46, 54
5, 204480, Note_on_c, 0, 58, 54
5, 205920, Note_on_c, 0, 58, 0
5, 205920, Note_on_c, 0, 46, 0
5, 205920, Note_on_c, 0, 45, 67
5, 205920, Note_on_c, 0, 57, 67
5, 207360, Note_on_c, 0, 57, 0
5, 207360, Note_on_c, 0, 45, 0
5, 207360, Note_on_c, 0, 50, 67
5, 207360, Note_on_c, 0, 62, 67
5, 207840, Note_on_c, 0, 62, 0
5, 207840, Note_on_c, 0, 50, 0
5, 207840, Note_on_c, 0, 48, 54
5, 207840, Note_on_c, 0, 60, 54
5, 208320, Note_on_c, 0, 60, 0
5, 208320, Note_on_c, 0, 48, 0
5, 208320, Note_on_c, 0, 47, 54
5, 208320, Note_on_c, 0, 59, 54
5, 208800, Note_on_c, 0, 59, 0
5, 208800, Note_on_c, 0, 47, 0
5, 208800, Note_on_c, 0, 48, 67
5, 208800, Note_on_c, 0, 60, 67
5, 209280, Note_on_c, 0, 60, 0
5, 209280, Note_on_c, 0, 48, 0
5, 209280, Note_on_c, 0, 47, 67
5, 209280, Note_on_c, 0, 59, 67
5, 209760, Note_on_c, 0, 59, 0
5, 209760, Note_on_c, 0, 47, 0
5, 209760, Note_on_c, 0, 43, 67
5, 209760, Note_on_c, 0, 55, 67
5, 210240, Note_on_c, 0, 55, 0
5, 210240, Note_on_c, 0, 43, 0
5, 210240, Note_on_c, 0, 48, 67
5, 210240, Note_on_c, 0, 60, 67
5, 210720, Note_on_c, 0, 60, 0
5, 210720, Note_on_c, 0, 48, 0
5, 210720, Note_on_c, 0, 46, 67
5, 210720, Note_on_c, 0, 58, 67
5, 211200, Note_on_c, 0, 58, 0
5, 211200, Note_on_c, 0, 46, 0
5, 211200, Note_on_c, 0, 45, 67
5, 211200, Note_on_c, 0, 57, 67
5, 211680, Note_on_c, 0, 57, 0
5, 211680, Note_on_c, 0, 45, 0
5, 211680, Note_on_c, 0, 46, 67
5, 211680, Note_on_c, 0, 58, 67
5, 212160, Note_on_c, 0, 58, 0
5, 212160, Note_on_c, 0, 46, 0
5, 212160, Note_on_c, 0, 45, 67
5, 212160, Note_on_c, 0, 57, 67
5, 212640, Note_on_c, 0, 57, 0
5, 212640, Note_on_c, 0, 45, 0
5, 212640, Note_on_c, 0, 41, 67
5, 212640, Note_on_c, 0, 53, 67
5, 213120, Note_on_c, 0, 53, 0
5, 213120, Note_on_c, 0, 41, 0
5, 213120, Note_on_c, 0, 46, 67
5, 213120, Note_on_c, 0, 58, 67
5, 213600, Note_on_c, 0, 58, 0
5, 213600, Note_on_c, 0, 46, 0
5, 213600, Note_on_c, 0, 44, 67
5, 213600, Note_on_c, 0, 56, 67
5, 214080, Note_on_c, 0, 56, 0
5, 214080, Note_on_c, 0, 44, 0
5, 214080, Note_on_c, 0, 43, 67
5, 214080, Note_on_c, 0, 55, 67
5, 214560, Note_on_c, 0, 55, 0
5, 214560, Note_on_c, 0, 43, 0
5, 214560, Note_on_c, 0, 42, 67
5, 214560, Note_on_c, 0, 54, 67
5, 214800, Note_on_c, 0, 54, 0
5, 214800, Note_on_c, 0, 42, 0
5, 223200, Note_on_c, 0, 66, 93
5, 223223, Note_on_c, 0, 66, 0
5, 223320, Note_on_c, 0, 65, 93
5, 223343, Note_on_c, 0, 65, 0
5, 223440, Note_on_c, 0, 63, 93
5, 223463, Note_on_c, 0, 63, 0
5, 223560, Note_on_c, 0, 61, 93
5, 223583, Note_on_c, 0, 61, 0
5, 223680, Note_on_c, 0, 60, 93
5, 223703, Note_on_c, 0, 60, 0
5, 223800, Note_on_c, 0, 58, 93
5, 223823, Note_on_c, 0, 58, 0
5, 223920, Note_on_c, 0, 57, 93
5, 223943, Note_on_c, 0, 57, 0
5, 224040, Note_on_c, 0, 54, 93
5, 224063, Note_on_c, 0, 54, 0
5, 224160, Note_on_c, 0, 53, 93
5, 224183, Note_on_c, 0, 53, 0
5, 224280, Note_on_c, 0, 51, 93
5, 224303, Note_on_c, 0, 51, 0
5, 224400, Note_on_c, 0, 49, 93
5, 224423, Note_on_c, 0, 49, 0
5, 224520, Note_on_c, 0, 48, 93
5, 224543, Note_on_c, 0, 48, 0
5, 226080, Note_on_c, 0, 54, 93
5, 226103, Note_on_c, 0, 54, 0
5, 226200, Note_on_c, 0, 53, 93
5, 226223, Note_on_c, 0, 53, 0
5, 226320, Note_on_c, 0, 51, 93
5, 226343, Note_on_c, 0, 51, 0
5, 226440, Note_on_c, 0, 49, 93
5, 226463, Note_on_c, 0, 49, 0
5, 226560, Note_on_c, 0, 48, 93
5, 226583, Note_on_c, 0, 48, 0
5, 226680, Note_on_c, 0, 46, 93
5, 226703, Note_on_c, 0, 46, 0
5, 226800, Note_on_c, 0, 45, 93
5, 226823, Note_on_c, 0, 45, 0
5, 226920, Note_on_c, 0, 42, 93
5, 226943, Note_on_c, 0, 42, 0
5, 227040, Note_on_c, 0, 41, 93
5, 227063, Note_on_c, 0, 41, 0
5, 227160, Note_on_c, 0, 39, 93
5, 227183, Note_on_c, 0, 39, 0
5, 227280, Note_on_c, 0, 37, 93
5, 227303, Note_on_c, 0, 37, 0
5, 227400, Note_on_c, 0, 36, 93
5, 227423, Note_on_c, 0, 36, 0
5, 227520, Note_on_c, 0, 34, 80
5, 227520, Note_on_c, 0, 41, 80
5, 228960, Note_on_c, 0, 41, 0
5, 228960, Note_on_c, 0, 34, 0
5, 228960, Note_on_c, 0, 34, 80
5, 228960, Note_on_c, 0, 41, 80
5, 230400, Note_on_c, 0, 41, 0
5, 230400, Note_on_c, 0, 34, 0
5, 230400, Note_on_c, 0, 34, 80
5, 230400, Note_on_c, 0, 41, 80
5, 231840, Note_on_c, 0, 41, 0
5, 231840, Note_on_c, 0, 34, 0
5, 231840, Note_on_c, 0, 34, 80
5, 231840, Note_on_c, 0, 41, 80
5, 233280, Note_on_c, 0, 41, 0
5, 233280, Note_on_c, 0, 34, 0
5, 233280, Note_on_c, 0, 34, 80
5, 233280, Note_on_c, 0, 41, 80
5, 234720, Note_on_c, 0, 41, 0
5, 234720, Note_on_c, 0, 34, 0
5, 234720, Note_on_c, 0, 34, 80
5, 234720, Note_on_c, 0, 41, 80
5, 236160, Note_on_c, 0, 41, 0
5, 236160, Note_on_c, 0, 34, 0
5, 236160, Note_on_c, 0, 34, 80
5, 236160, Note_on_c, 0, 41, 80
5, 237600, Note_on_c, 0, 41, 0
5, 237600, Note_on_c, 0, 34, 0
5, 237840, Note_on_c, 0, 44, 80
5, 237840, Note_on_c, 0, 56, 80
5, 237887, Note_on_c, 0, 56, 0
5, 237887, Note_on_c, 0, 44, 0
5, 238080, Note_on_c, 0, 43, 80
5, 238080, Note_on_c, 0, 55, 80
5, 238080, Note_on_c, 0, 63, 80
5, 238127, Note_on_c, 0, 63, 0
5, 238127, Note_on_c, 0, 55, 0
5, 238127, Note_on_c, 0, 43, 0
5, 238320, Note_on_c, 0, 42, 80
5, 238320, Note_on_c, 0, 54, 80
5, 238320, Note_on_c, 0, 64, 80
5, 238367, Note_on_c, 0, 64, 0
5, 238367, Note_on_c, 0, 54, 0
5, 238367, Note_on_c, 0, 42, 0
5, 238560, Note_on_c, 0, 41, 80
5, 238560, Note_on_c, 0, 53, 80
5, 238607, Note_on_c, 0, 53, 0
5, 238607, Note_on_c, 0, 41, 0
5, 238800, Note_on_c, 0, 39, 80
5, 238800, Note_on_c, 0, 51, 80
5, 238847, Note_on_c, 0, 51, 0
5, 238847, Note_on_c, 0, 39, 0
5, 239040, Note_on_c, 0, 37, 80
5, 239040, Note_on_c, 0, 44, 80
5, 241920, Note_on_c, 0, 44, 0
5, 241920, Note_on_c, 0, 37, 0
5, 241920, Note_on_c, 0, 37, 80
5, 241920, Note_on_c, 0, 44, 80
5, 244800, Note_on_c, 0, 44, 0
5, 244800, Note_on_c, 0, 37, 0
5, 244800, Note_on_c, 0, 49, 80
5, 244800, Note_on_c, 0, 61, 80
5, 246960, Note_on_c, 0, 61, 0
5, 246960, Note_on_c, 0, 49, 0
5, 246960, Note_on_c, 0, 48, 80
5, 246960, Note_on_c, 0, 60, 80
5, 247007, Note_on_c, 0, 60, 0
5, 247007, Note_on_c, 0, 48, 0
5, 247200, Note_on_c, 0, 46, 80
5, 247200, Note_on_c, 0, 58, 80
5, 247247, Note_on_c, 0, 58, 0
5, 247247, Note_on_c, 0, 46, 0
5, 247440, Note_on_c, 0, 45, 80
5, 247440, Note_on_c, 0, 57, 80
5, 247487, Note_on_c, 0, 57, 0
5, 247487, Note_on_c, 0, 45, 0
5, 247680, Note_on_c, 0, 49, 80
5, 247680, Note_on_c, 0, 61, 80
5, 247727, Note_on_c, 0, 61, 0
5, 247727, Note_on_c, 0, 49, 0
5, 247920, Note_on_c, 0, 48, 80
5, 247920, Note_on_c, 0, 60, 80
5, 247967, Note_on_c, 0, 60, 0
5, 247967, Note_on_c, 0, 48, 0
5, 248160, Note_on_c, 0, 46, 80
5, 248160, Note_on_c, 0, 58, 80
5, 248207, Note_on_c, 0, 58, 0
5, 248207, Note_on_c, 0, 46, 0
5, 248400, Note_on_c, 0, 45, 80
5, 248400, Note_on_c, 0, 57, 80
5, 248447, Note_on_c, 0, 57, 0
5, 248447, Note_on_c, 0, 45, 0
5, 248640, Note_on_c, 0, 61, 80
5, 248687, Note_on_c, 0, 61, 0
5, 248880, Note_on_c, 0, 60, 80
5, 248927, Note_on_c, 0, 60, 0
5, 249120, Note_on_c, 0, 58, 80
5, 249167, Note_on_c, 0, 58, 0
5, 249360, Note_on_c, 0, 57, 80
5, 249407, Note_on_c, 0, 57, 0
5, 250560, Note_on_c, 0, 34, 80
5, 250560, Note_on_c, 0, 46, 80
5, 250800, Note_on_c, 0, 46, 0
5, 250800, Note_on_c, 0, 34, 0
5, 251280, Note_on_c, 0, 34, 80
5, 251280, Note_on_c, 0, 46, 80
5, 251520, Note_on_c, 0, 46, 0
5, 251520, Note_on_c, 0, 34, 0
5, 252000, Note_on_c, 0, 34, 80
5, 252000, Note_on_c, 0, 46, 80
5, 252240, Note_on_c, 0, 46, 0
5, 252240, Note_on_c, 0, 34, 0
5, 252720, Note_on_c, 0, 34, 80
5, 252720, Note_on_c, 0, 46, 80
5, 252960, Note_on_c, 0, 46, 0
5, 252960, Note_on_c, 0, 34, 0
5, 253440, Note_on_c, 0, 34, 80
5, 253440, Note_on_c, 0, 46, 80
5, 253680, Note_on_c, 0, 46, 0
5, 253680, Note_on_c, 0, 34, 0
5, 254160, Note_on_c, 0, 34, 80
5, 254160, Note_on_c, 0, 46, 80
5, 254400, Note_on_c, 0, 46, 0
5, 254400, Note_on_c, 0, 34, 0
5, 254880, Note_on_c, 0, 34, 80
5, 254880, Note_on_c, 0, 46, 80
5, 255120, Note_on_c, 0, 46, 0
5, 255120, Note_on_c, 0, 34, 0
5, 255600, Note_on_c, 0, 34, 80
5, 255600, Note_on_c, 0, 46, 80
5, 255840, Note_on_c, 0, 46, 0
5, 255840, Note_on_c, 0, 34, 0
5, 256320, Note_on_c, 0, 34, 80
5, 256320, Note_on_c, 0, 46, 80
5, 256560, Note_on_c, 0, 46, 0
5, 256560, Note_on_c, 0, 34, 0
5, 257040, Note_on_c, 0, 34, 80
5, 257040, Note_on_c, 0, 46, 80
5, 257280, Note_on_c, 0, 46, 0
5, 257280, Note_on_c, 0, 34, 0
5, 257760, Note_on_c, 0, 34, 80
5, 257760, Note_on_c, 0, 46, 80
5, 258000, Note_on_c, 0, 46, 0
5, 258000, Note_on_c, 0, 34, 0
5, 258480, Note_on_c, 0, 34, 80
5, 258480, Note_on_c, 0, 46, 80
5, 258720, Note_on_c, 0, 46, 0
5, 258720, Note_on_c, 0, 34, 0
5, 259200, Note_on_c, 0, 34, 80
5, 259200, Note_on_c, 0, 46, 80
5, 259440, Note_on_c, 0, 46, 0
5, 259440, Note_on_c, 0, 34, 0
5, 259920, Note_on_c, 0, 34, 80
5, 259920, Note_on_c, 0, 46, 80
5, 260160, Note_on_c, 0, 46, 0
5, 260160, Note_on_c, 0, 34, 0
5, 260640, Note_on_c, 0, 34, 80
5, 260640, Note_on_c, 0, 46, 80
5, 260880, Note_on_c, 0, 46, 0
5, 260880, Note_on_c, 0, 34, 0
5, 261360, Note_on_c, 0, 34, 80
5, 261360, Note_on_c, 0, 46, 80
5, 261600, Note_on_c, 0, 46, 0
5, 261600, Note_on_c, 0, 34, 0
5, 261600, Note_on_c, 0, 34, 80
5, 261600, Note_on_c, 0, 46, 80
5, 261840, Note_on_c, 0, 46, 0
5, 261840, Note_on_c, 0, 34, 0
5, 262080, Note_on_c, 0, 44, 67
5, 262080, Note_on_c, 0, 56, 67
5, 262080, Note_on_c, 0, 62, 67
5, 262080, Note_on_c, 0, 65, 67
5, 263520, Note_on_c, 0, 65, 0
5, 263520, Note_on_c, 0, 44, 0
5, 263520, Note_on_c, 0, 56, 0
5, 263520, Note_on_c, 0, 62, 0
5, 263520, Note_on_c, 0, 54, 67
5, 263520, Note_on_c, 0, 63, 67
5, 264000, Note_on_c, 0, 63, 0
5, 264000, Note_on_c, 0, 54, 0
5, 264000, Note_on_c, 0, 53, 67
5, 264000, Note_on_c, 0, 68, 67
5, 264480, Note_on_c, 0, 68, 0
5, 264480, Note_on_c, 0, 53, 0
5, 264480, Note_on_c, 0, 51, 67
5, 264480, Note_on_c, 0, 66, 67
5, 264960, Note_on_c, 0, 66, 0
5, 264960, Note_on_c, 0, 51, 0
5, 264960, Note_on_c, 0, 49, 67
5, 264960, Note_on_c, 0, 66, 67
5, 265920, Note_on_c, 0, 66, 0
5, 265920, Note_on_c, 0, 49, 0
5, 265920, Note_on_c, 0, 39, 67
5, 265920, Note_on_c, 0, 51, 67
5, 266160, Note_on_c, 0, 51, 0
5, 266160, Note_on_c, 0, 39, 0
5, 266160, Note_on_c, 0, 37, 67
5, 266160, Note_on_c, 0, 49, 67
5, 266400, Note_on_c, 0, 49, 0
5, 266400, Note_on_c, 0, 37, 0
5, 266400, Note_on_c, 0, 42, 67
5, 266400, Note_on_c, 0, 54, 67
5, 266640, Note_on_c, 0, 54, 0
5, 266640, Note_on_c, 0, 42, 0
5, 266880, Note_on_c, 0, 54, 67
5, 266880, Note_on_c, 0, 58, 67
5, 266880, Note_on_c, 0, 61, 67
5, 267840, Note_on_c, 0, 61, 0
5, 267840, Note_on_c, 0, 58, 0
5, 267840, Note_on_c, 0, 54, 0
5, 269280, Note_on_c, 0, 64, 67
5, 269280, Note_on_c, 0, 67, 67
5, 270240, Note_on_c, 0, 67, 0
5, 270240, Note_on_c, 0, 64, 0
5, 270240, Note_on_c, 0, 65, 67
5, 270240, Note_on_c, 0, 68, 67
5, 270600, Note_on_c, 0, 68, 0
5, 270600, Note_on_c, 0, 65, 0
5, 270600, Note_on_c, 0, 66, 67
5, 270600, Note_on_c, 0, 70, 67
5, 270720, Note_on_c, 0, 70, 0
5, 270720, Note_on_c, 0, 66, 0
5, 270720, Note_on_c, 0, 66, 67
5, 270720, Note_on_c, 0, 70, 67
5, 270960, Note_on_c, 0, 70, 0
5, 270960, Note_on_c, 0, 66, 0
5, 272160, Note_on_c, 0, 52, 67
5, 272160, Note_on_c, 0, 55, 67
5, 273120, Note_on_c, 0, 55, 0
5, 273120, Note_on_c, 0, 52, 0
5, 273120, Note_on_c, 0, 53, 67
5, 273120, Note_on_c, 0, 56, 67
5, 273480, Note_on_c, 0, 56, 0
5, 273480, Note_on_c, 0, 53, 0
5, 273480, Note_on_c, 0, 54, 67
5, 273480, Note_on_c, 0, 58, 67
5, 273600, Note_on_c, 0, 58, 0
5, 273600, Note_on_c, 0, 54, 0
5, 273600, Note_on_c, 0, 54, 67
5, 273600, Note_on_c, 0, 58, 67
5, 273840, Note_on_c, 0, 58, 0
5, 273840, Note_on_c, 0, 54, 0
5, 275040, Note_on_c, 0, 41, 80
5, 275040, Note_on_c, 0, 53, 80
5, 275040, Note_on_c, 0, 59, 80
5, 275040, Note_on_c, 0, 62, 80
5, 275520, Note_on_c, 0, 62, 0
5, 275520, Note_on_c, 0, 41, 0
5, 275520, Note_on_c, 0, 53, 0
5, 275520, Note_on_c, 0, 59, 0
5, 275520, Note_on_c, 0, 40, 80
5, 275520, Note_on_c, 0, 52, 80
5, 275520, Note_on_c, 0, 57, 80
5, 275520, Note_on_c, 0, 60, 80
5, 275760, Note_on_c, 0, 60, 0
5, 275760, Note_on_c, 0, 40, 0
5, 275760, Note_on_c, 0, 52, 0
5, 275760, Note_on_c, 0, 57, 0
5, 275760, Note_on_c, 0, 38, 80
5, 275760, Note_on_c, 0, 50, 80
5, 275760, Note_on_c, 0, 59, 80
5, 275760, Note_on_c, 0, 62, 80
5, 276000, Note_on_c, 0, 62, 0
5, 276000, Note_on_c, 0, 38, 0
5, 276000, Note_on_c, 0, 50, 0
5, 276000, Note_on_c, 0, 59, 0
5, 276000, Note_on_c, 0, 36, 80
5, 276000, Note_on_c, 0, 48, 80
5, 276000, Note_on_c, 0, 60, 80
5, 276000, Note_on_c, 0, 64, 80
5, 276480, Note_on_c, 0, 64, 0
5, 276480, Note_on_c, 0, 36, 0
5, 276480, Note_on_c, 0, 48, 0
5, 276480, Note_on_c, 0, 60, 0
5, 276480, Note_on_c, 0, 43, 80
5, 276480, Note_on_c, 0, 55, 80
5, 276480, Note_on_c, 0, 61, 80
5, 276480, Note_on_c, 0, 64, 80
5, 276960, Note_on_c, 0, 64, 0
5, 276960, Note_on_c, 0, 43, 0
5, 276960, Note_on_c, 0, 55, 0
5, 276960, Note_on_c, 0, 61, 0
5, 276960, Note_on_c, 0, 42, 80
5, 276960, Note_on_c, 0, 54, 80
5, 276960, Note_on_c, 0, 59, 80
5, 276960, Note_on_c, 0, 62, 80
5, 277200, Note_on_c, 0, 62, 0
5, 277200, Note_on_c, 0, 42, 0
5, 277200, Note_on_c, 0, 54, 0
5, 277200, Note_on_c, 0, 59, 0
5, 277200, Note_on_c, 0, 40, 80
5, 277200, Note_on_c, 0, 52, 80
5, 277200, Note_on_c, 0, 61, 80
5, 277200, Note_on_c, 0, 64, 80
5, 277440, Note_on_c, 0, 64, 0
5, 277440, Note_on_c, 0, 40, 0
5, 277440, Note_on_c, 0, 52, 0
5, 277440, Note_on_c, 0, 61, 0
5, 277440, Note_on_c, 0, 38, 80
5, 277440, Note_on_c, 0, 50, 80
5, 277440, Note_on_c, 0, 62, 80
5, 277440, Note_on_c, 0, 66, 80
5, 277920, Note_on_c, 0, 66, 0
5, 277920, Note_on_c, 0, 38, 0
5, 277920, Note_on_c, 0, 50, 0
5, 277920, Note_on_c, 0, 62, 0
5, 277920, Note_on_c, 0, 45, 80
5, 277920, Note_on_c, 0, 57, 80
5, 277920, Note_on_c, 0, 63, 80
5, 277920, Note_on_c, 0, 66, 80
5, 278400, Note_on_c, 0, 66, 0
5, 278400, Note_on_c, 0, 45, 0
5, 278400, Note_on_c, 0, 57, 0
5, 278400, Note_on_c, 0, 63, 0
5, 278400, Note_on_c, 0, 43, 80
5, 278400, Note_on_c, 0, 55, 80
5, 278400, Note_on_c, 0, 61, 80
5, 278400, Note_on_c, 0, 64, 80
5, 278640, Note_on_c, 0, 64, 0
5, 278640, Note_on_c, 0, 43, 0
5, 278640, Note_on_c, 0, 55, 0
5, 278640, Note_on_c, 0, 61, 0
5, 278640, Note_on_c, 0, 42, 80
5, 278640, Note_on_c, 0, 54, 80
5, 278640, Note_on_c, 0, 63, 80
5, 278640, Note_on_c, 0, 66, 80
5, 278880, Note_on_c, 0, 66, 0
5, 278880, Note_on_c, 0, 42, 0
5, 278880, Note_on_c, 0, 54, 0
5, 278880, Note_on_c, 0, 63, 0
5, 278880, Note_on_c, 0, 40, 80
5, 278880, Note_on_c, 0, 52, 80
5, 278880, Note_on_c, 0, 64, 80
5, 278880, Note_on_c, 0, 67, 80
5, 279360, Note_on_c, 0, 67, 0
5, 279360, Note_on_c, 0, 40, 0
5, 279360, Note_on_c, 0, 52, 0
5, 279360, Note_on_c, 0, 64, 0
5, 279360, Note_on_c, 0, 46, 67
5, 279360, Note_on_c, 0, 58, 67
5, 279360, Note_on_c, 0, 64, 67
5, 279360, Note_on_c, 0, 67, 67
5, 280800, Note_on_c, 0, 67, 0
5, 280800, Note_on_c, 0, 46, 0
5, 280800, Note_on_c, 0, 58, 0
5, 280800, Note_on_c, 0, 64, 0
5, 280800, Note_on_c, 0, 56, 67
5, 280800, Note_on_c, 0, 65, 67
5, 281280, Note_on_c, 0, 65, 0
5, 281280, Note_on_c, 0, 56, 0
5, 281280, Note_on_c, 0, 55, 67
5, 281280, Note_on_c, 0, 70, 67
5, 281760, Note_on_c, 0, 70, 0
5, 281760, Note_on_c, 0, 55, 0
5, 281760, Note_on_c, 0, 53, 67
5, 281760, Note_on_c, 0, 69, 67
5, 282240, Note_on_c, 0, 69, 0
5, 282240, Note_on_c, 0, 53, 0
5, 282240, Note_on_c, 0, 51, 67
5, 282240, Note_on_c, 0, 68, 67
5, 283200, Note_on_c, 0, 68, 0
5, 283200, Note_on_c, 0, 51, 0
5, 283200, Note_on_c, 0, 41, 67
5, 283200, Note_on_c, 0, 53, 67
5, 283440, Note_on_c, 0, 53, 0
5, 283440, Note_on_c, 0, 41, 0
5, 283440, Note_on_c, 0, 39, 67
5, 283440, Note_on_c, 0, 51, 67
5, 283680, Note_on_c, 0, 51, 0
5, 283680, Note_on_c, 0, 39, 0
5, 283680, Note_on_c, 0, 44, 67
5, 283680, Note_on_c, 0, 56, 67
5, 284160, Note_on_c, 0, 56, 0
5, 284160, Note_on_c, 0, 44, 0
5, 284160, Note_on_c, 0, 56, 67
5, 284160, Note_on_c, 0, 60, 67
5, 284160, Note_on_c, 0, 63, 67
5, 285120, Note_on_c, 0, 63, 0
5, 285120, Note_on_c, 0, 60, 0
5, 285120, Note_on_c, 0, 56, 0
5, 286560, Note_on_c, 0, 66, 67
5, 286560, Note_on_c, 0, 69, 67
5, 287520, Note_on_c, 0, 69, 0
5, 287520, Note_on_c, 0, 66, 0
5, 287520, Note_on_c, 0, 67, 67
5, 287520, Note_on_c, 0, 70, 67
5, 287880, Note_on_c, 0, 70, 0
5, 287880, Note_on_c, 0, 67, 0
5, 287880, Note_on_c, 0, 68, 67
5, 287880, Note_on_c, 0, 72, 67
5, 288000, Note_on_c, 0, 72, 0
5, 288000, Note_on_c, 0, 68, 0
5, 288000, Note_on_c, 0, 68, 67
5, 288000, Note_on_c, 0, 72, 67
5, 288047, Note_on_c, 0, 72, 0
5, 288047, Note_on_c, 0, 68, 0
5, 289440, Note_on_c, 0, 54, 67
5, 289440, Note_on_c, 0, 57, 67
5, 290400, Note_on_c, 0, 57, 0
5, 290400, Note_on_c, 0, 54, 0
5, 290400, Note_on_c, 0, 55, 67
5, 290400, Note_on_c, 0, 58, 67
5, 290760, Note_on_c, 0, 58, 0
5, 290760, Note_on_c, 0, 55, 0
5, 290760, Note_on_c, 0, 56, 67
5, 290760, Note_on_c, 0, 60, 67
5, 290880, Note_on_c, 0, 60, 0
5, 290880, Note_on_c, 0, 56, 0
5, 290880, Note_on_c, 0, 56, 67
5, 290880, Note_on_c, 0, 59, 67
5, 290927, Note_on_c, 0, 59, 0
5, 290927, Note_on_c, 0, 56, 0
5, 292320, Note_on_c, 0, 43, 67
5, 292320, Note_on_c, 0, 55, 67
5, 292320, Note_on_c, 0, 61, 67
5, 292320, Note_on_c, 0, 64, 67
5, 292800, Note_on_c, 0, 64, 0
5, 292800, Note_on_c, 0, 43, 0
5, 292800, Note_on_c, 0, 55, 0
5, 292800, Note_on_c, 0, 61, 0
5, 292800, Note_on_c, 0, 42, 67
5, 292800, Note_on_c, 0, 54, 67
5, 292800, Note_on_c, 0, 59, 67
5, 292800, Note_on_c, 0, 62, 67
5, 293040, Note_on_c, 0, 62, 0
5, 293040, Note_on_c, 0, 42, 0
5, 293040, Note_on_c, 0, 54, 0
5, 293040, Note_on_c, 0, 59, 0
5, 293040, Note_on_c, 0, 40, 67
5, 293040, Note_on_c, 0, 52, 67
5, 293040, Note_on_c, 0, 61, 67
5, 293040, Note_on_c, 0, 64, 67
5, 293280, Note_on_c, 0, 64, 0
5, 293280, Note_on_c, 0, 40, 0
5, 293280, Note_on_c, 0, 52, 0
5, 293280, Note_on_c, 0, 61, 0
5, 293280, Note_on_c, 0, 38, 67
5, 293280, Note_on_c, 0, 50, 67
5, 293280, Note_on_c, 0, 62, 67
5, 293280, Note_on_c, 0, 66, 67
5, 293760, Note_on_c, 0, 66, 0
5, 293760, Note_on_c, 0, 38, 0
5, 293760, Note_on_c, 0, 50, 0
5, 293760, Note_on_c, 0, 62, 0
5, 293760, Note_on_c, 0, 45, 67
5, 293760, Note_on_c, 0, 57, 67
5, 293760, Note_on_c, 0, 63, 67
5, 293760, Note_on_c, 0, 66, 67
5, 294240, Note_on_c, 0, 66, 0
5, 294240, Note_on_c, 0, 45, 0
5, 294240, Note_on_c, 0, 57, 0
5, 294240, Note_on_c, 0, 63, 0
5, 294240, Note_on_c, 0, 43, 67
5, 294240, Note_on_c, 0, 55, 67
5, 294240, Note_on_c, 0, 61, 67
5, 294240, Note_on_c, 0, 64, 67
5, 294480, Note_on_c, 0, 64, 0
5, 294480, Note_on_c, 0, 43, 0
5, 294480, Note_on_c, 0, 55, 0
5, 294480, Note_on_c, 0, 61, 0
5, 294480, Note_on_c, 0, 42, 67
5, 294480, Note_on_c, 0, 54, 67
5, 294480, Note_on_c, 0, 63, 67
5, 294480, Note_on_c, 0, 66, 67
5, 294720, Note_on_c, 0, 66, 0
5, 294720, Note_on_c, 0, 42, 0
5, 294720, Note_on_c, 0, 54, 0
5, 294720, Note_on_c, 0, 63, 0
5, 294720, Note_on_c, 0, 40, 67
5, 294720, Note_on_c, 0, 52, 67
5, 294720, Note_on_c, 0, 64, 67
5, 294720, Note_on_c, 0, 67, 67
5, 295200, Note_on_c, 0, 67, 0
5, 295200, Note_on_c, 0, 40, 0
5, 295200, Note_on_c, 0, 52, 0
5, 295200, Note_on_c, 0, 64, 0
5, 295200, Note_on_c, 0, 46, 67
5, 295200, Note_on_c, 0, 58, 67
5, 295200, Note_on_c, 0, 64, 67
5, 295200, Note_on_c, 0, 67, 67
5, 295680, Note_on_c, 0, 67, 0
5, 295680, Note_on_c, 0, 46, 0
5, 295680, Note_on_c, 0, 58, 0
5, 295680, Note_on_c, 0, 64, 0
5, 295680, Note_on_c, 0, 45, 67
5, 295680, Note_on_c, 0, 57, 67
5, 295680, Note_on_c, 0, 62, 67
5, 295680, Note_on_c, 0, 65, 67
5, 295920, Note_on_c, 0, 65, 0
5, 295920, Note_on_c, 0, 45, 0
5, 295920, Note_on_c, 0, 57, 0
5, 295920, Note_on_c, 0, 62, 0
5, 295920, Note_on_c, 0, 43, 67
5, 295920, Note_on_c, 0, 55, 67
5, 295920, Note_on_c, 0, 64, 67
5, 295920, Note_on_c, 0, 67, 67
5, 296160, Note_on_c, 0, 67, 0
5, 296160, Note_on_c, 0, 43, 0
5, 296160, Note_on_c, 0, 55, 0
5, 296160, Note_on_c, 0, 64, 0
5, 296160, Note_on_c, 0, 41, 67
5, 296160, Note_on_c, 0, 53, 67
5, 296160, Note_on_c, 0, 65, 67
5, 296160, Note_on_c, 0, 69, 67
5, 296640, Note_on_c, 0, 69, 0
5, 296640, Note_on_c, 0, 41, 0
5, 296640, Note_on_c, 0, 53, 0
5, 296640, Note_on_c, 0, 65, 0
5, 296640, Note_on_c, 0, 47, 67
5, 296640, Note_on_c, 0, 59, 67
5, 296640, Note_on_c, 0, 65, 67
5, 296640, Note_on_c, 0, 68, 67
5, 297120, Note_on_c, 0, 68, 0
5, 297120, Note_on_c, 0, 47, 0
5, 297120, Note_on_c, 0, 59, 0
5, 297120, Note_on_c, 0, 65, 0
5, 297120, Note_on_c, 0, 46, 67
5, 297120, Note_on_c, 0, 58, 67
5, 297120, Note_on_c, 0, 63, 67
5, 297120, Note_on_c, 0, 66, 67
5, 297360, Note_on_c, 0, 66, 0
5, 297360, Note_on_c, 0, 46, 0
5, 297360, Note_on_c, 0, 58, 0
5, 297360, Note_on_c, 0, 63, 0
5, 297360, Note_on_c, 0, 44, 67
5, 297360, Note_on_c, 0, 56, 67
5, 297360, Note_on_c, 0, 65, 67
5, 297360, Note_on_c, 0, 68, 67
5, 297600, Note_on_c, 0, 68, 0
5, 297600, Note_on_c, 0, 44, 0
5, 297600, Note_on_c, 0, 56, 0
5, 297600, Note_on_c, 0, 65, 0
5, 297600, Note_on_c, 0, 42, 67
5, 297600, Note_on_c, 0, 54, 67
5, 297600, Note_on_c, 0, 66, 67
5, 297600, Note_on_c, 0, 70, 67
5, 298080, Note_on_c, 0, 70, 0
5, 298080, Note_on_c, 0, 42, 0
5, 298080, Note_on_c, 0, 54, 0
5, 298080, Note_on_c, 0, 66, 0
5, 298080, Note_on_c, 0, 49, 67
5, 298080, Note_on_c, 0, 61, 67
5, 298080, Note_on_c, 0, 63, 67
5, 298080, Note_on_c, 0, 67, 67
5, 298080, Note_on_c, 0, 70, 67
5, 298560, Note_on_c, 0, 70, 0
5, 298560, Note_on_c, 0, 63, 0
5, 298560, Note_on_c, 0, 49, 0
5, 298560, Note_on_c, 0, 61, 0
5, 298560, Note_on_c, 0, 67, 0
5, 298560, Note_on_c, 0, 48, 67
5, 298560, Note_on_c, 0, 60, 67
5, 298560, Note_on_c, 0, 63, 67
5, 298560, Note_on_c, 0, 68, 67
5, 299040, Note_on_c, 0, 68, 0
5, 299040, Note_on_c, 0, 48, 0
5, 299040, Note_on_c, 0, 60, 0
5, 299040, Note_on_c, 0, 63, 0
5, 299040, Note_on_c, 0, 51, 67
5, 299040, Note_on_c, 0, 63, 67
5, 299520, Note_on_c, 0, 63, 0
5, 299520, Note_on_c, 0, 51, 0
5, 299520, Note_on_c, 0, 49, 67
5, 299520, Note_on_c, 0, 61, 67
5, 299520, Note_on_c, 0, 65, 67
5, 299520, Note_on_c, 0, 70, 67
5, 300000, Note_on_c, 0, 70, 0
5, 300000, Note_on_c, 0, 49, 0
5, 300000, Note_on_c, 0, 61, 0
5, 300000, Note_on_c, 0, 65, 0
5, 300000, Note_on_c, 0, 52, 67
5, 300000, Note_on_c, 0, 64, 67
5, 300000, Note_on_c, 0, 66, 67
5, 300000, Note_on_c, 0, 70, 67
5, 300000, Note_on_c, 0, 73, 67
5, 300480, Note_on_c, 0, 73, 0
5, 300480, Note_on_c, 0, 66, 0
5, 300480, Note_on_c, 0, 52, 0
5, 300480, Note_on_c, 0, 64, 0
5, 300480, Note_on_c, 0, 70, 0
5, 300480, Note_on_c, 0, 51, 67
5, 300480, Note_on_c, 0, 63, 67
5, 300480, Note_on_c, 0, 66, 67
5, 300480, Note_on_c, 0, 71, 67
5, 300960, Note_on_c, 0, 71, 0
5, 300960, Note_on_c, 0, 51, 0
5, 300960, Note_on_c, 0, 63, 0
5, 300960, Note_on_c, 0, 66, 0
5, 300960, Note_on_c, 0, 54, 67
5, 300960, Note_on_c, 0, 66, 67
5, 300960, Note_on_c, 0, 68, 67
5, 300960, Note_on_c, 0, 72, 67
5, 300960, Note_on_c, 0, 75, 67
5, 301440, Note_on_c, 0, 75, 0
5, 301440, Note_on_c, 0, 68, 0
5, 301440, Note_on_c, 0, 54, 0
5, 301440, Note_on_c, 0, 66, 0
5, 301440, Note_on_c, 0, 72, 0
5, 301440, Note_on_c, 0, 53, 67
5, 301440, Note_on_c, 0, 65, 67
5, 301440, Note_on_c, 0, 68, 67
5, 301440, Note_on_c, 0, 73, 67
5, 301920, Note_on_c, 0, 73, 0
5, 301920, Note_on_c, 0, 53, 0
5, 301920, Note_on_c, 0, 65, 0
5, 301920, Note_on_c, 0, 68, 0
5, 301920, Note_on_c, 0, 56, 67
5, 301920, Note_on_c, 0, 68, 67
5, 302400, Note_on_c, 0, 68, 0
5, 302400, Note_on_c, 0, 56, 0
5, 302400, Note_on_c, 0, 54, 67
5, 302400, Note_on_c, 0, 66, 67
5, 302880, Note_on_c, 0, 66, 0
5, 302880, Note_on_c, 0, 54, 0
5, 302880, Control_c, 0, 64, 127
5, 302880, Note_on_c, 0, 42, 93
5, 302880, Note_on_c, 0, 54, 93
5, 303840, Note_on_c, 0, 54, 0
5, 303840, Note_on_c, 0, 42, 0
5, 305280, Control_c, 0, 64, 0
5, 306720, Note_on_c, 0, 41, 80
5, 308160, Note_on_c, 0, 41, 0
5, 308160, Note_on_c, 0, 53, 80
5, 309120, Note_on_c, 0, 53, 0
5, 312720, Note_on_c, 0, 41, 80
5, 313920, Note_on_c, 0, 41, 0
5, 313920, Note_on_c, 0, 55, 80
5, 315120, Note_on_c, 0, 55, 0
5, 315120, Note_on_c, 0, 55, 80
5, 315360, Note_on_c, 0, 55, 0
5, 319200, Note_on_c, 0, 52, 80
5, 319200, Note_on_c, 0, 55, 80
5, 319680, Note_on_c, 0, 55, 0
5, 319680, Note_on_c, 0, 52, 0
5, 319680, Note_on_c, 0, 53, 80
5, 319680, Note_on_c, 0, 57, 80
5, 321120, Note_on_c, 0, 57, 0
5, 321120, Note_on_c, 0, 53, 0
5, 321300, Note_on_c, 0, 46, 80
5, 321360, Note_on_c, 0, 46, 0
5, 321360, Note_on_c, 0, 50, 80
5, 321540, Note_on_c, 0, 50, 0
5, 321540, Note_on_c, 0, 51, 80
5, 321600, Note_on_c, 0, 51, 0
5, 321600, Note_on_c, 0, 53, 80
5, 321780, Note_on_c, 0, 53, 0
5, 321780, Note_on_c, 0, 52, 80
5, 321840, Note_on_c, 0, 52, 0
5, 321840, Note_on_c, 0, 53, 80
5, 322020, Note_on_c, 0, 53, 0
5, 322020, Note_on_c, 0, 55, 80
5, 322080, Note_on_c, 0, 55, 0
5, 322080, Note_on_c, 0, 56, 80
5, 322260, Note_on_c, 0, 56, 0
5, 322260, Note_on_c, 0, 58, 80
5, 322320, Note_on_c, 0, 58, 0
5, 322320, Note_on_c, 0, 60, 80
5, 322500, Note_on_c, 0, 60, 0
5, 322500, Note_on_c, 0, 62, 80
5, 322560, Note_on_c, 0, 62, 0
5, 322560, Note_on_c, 0, 55, 80
5, 322560, Note_on_c, 0, 58, 80
5, 324000, Note_on_c, 0, 58, 0
5, 324000, Note_on_c, 0, 55, 0
5, 324180, Note_on_c, 0, 50, 80
5, 324240, Note_on_c, 0, 50, 0
5, 324240, Note_on_c, 0, 52, 80
5, 324420, Note_on_c, 0, 52, 0
5, 324420, Note_on_c, 0, 53, 80
5, 324480, Note_on_c, 0, 53, 0
5, 324480, Note_on_c, 0, 55, 80
5, 324660, Note_on_c, 0, 55, 0
5, 324660, Note_on_c, 0, 54, 80
5, 324720, Note_on_c, 0, 54, 0
5, 324720, Note_on_c, 0, 55, 80
5, 324900, Note_on_c, 0, 55, 0
5, 324900, Note_on_c, 0, 56, 80
5, 324960, Note_on_c, 0, 56, 0
5, 324960, Note_on_c, 0, 58, 80
5, 325140, Note_on_c, 0, 58, 0
5, 325140, Note_on_c, 0, 60, 80
5, 325200, Note_on_c, 0, 60, 0
5, 325200, Note_on_c, 0, 62, 80
5, 325380, Note_on_c, 0, 62, 0
5, 325380, Note_on_c, 0, 64, 80
5, 325440, Note_on_c, 0, 64, 0
5, 325440, Note_on_c, 0, 56, 80
5, 325440, Note_on_c, 0, 60, 80
5, 326880, Note_on_c, 0, 60, 0
5, 326880, Note_on_c, 0, 56, 0
5, 327060, Note_on_c, 0, 48, 80
5, 327120, Note_on_c, 0, 48, 0
5, 327120, Note_on_c, 0, 53, 80
5, 327300, Note_on_c, 0, 53, 0
5, 327300, Note_on_c, 0, 55, 80
5, 327360, Note_on_c, 0, 55, 0
5, 327360, Note_on_c, 0, 57, 80
5, 327540, Note_on_c, 0, 57, 0
5, 327540, Note_on_c, 0, 56, 80
5, 327600, Note_on_c, 0, 56, 0
5, 327600, Note_on_c, 0, 57, 80
5, 327780, Note_on_c, 0, 57, 0
5, 327780, Note_on_c, 0, 60, 80
5, 327840, Note_on_c, 0, 60, 0
5, 327840, Note_on_c, 0, 65, 80
5, 328020, Note_on_c, 0, 65, 0
5, 328020, Note_on_c, 0, 63, 80
5, 328080, Note_on_c, 0, 63, 0
5, 328080, Note_on_c, 0, 62, 80
5, 328260, Note_on_c, 0, 62, 0
5, 328260, Note_on_c, 0, 60, 80
5, 328320, Note_on_c, 0, 60, 0
5, 328320, Note_on_c, 0, 58, 80
5, 328320, Note_on_c, 0, 62, 80
5, 329760, Note_on_c, 0, 62, 0
5, 329760, Note_on_c, 0, 58, 0
5, 329940, Note_on_c, 0, 50, 80
5, 330000, Note_on_c, 0, 50, 0
5, 330000, Note_on_c, 0, 55, 80
5, 330180, Note_on_c, 0, 55, 0
5, 330180, Note_on_c, 0, 57, 80
5, 330240, Note_on_c, 0, 57, 0
5, 330240, Note_on_c, 0, 59, 80
5, 330420, Note_on_c, 0, 59, 0
5, 330420, Note_on_c, 0, 58, 80
5, 330480, Note_on_c, 0, 58, 0
5, 330480, Note_on_c, 0, 59, 80
5, 330660, Note_on_c, 0, 59, 0
5, 330660, Note_on_c, 0, 62, 80
5, 330720, Note_on_c, 0, 62, 0
5, 330720, Note_on_c, 0, 66, 80
5, 330900, Note_on_c, 0, 66, 0
5, 330900, Note_on_c, 0, 65, 80
5, 330960, Note_on_c, 0, 65, 0
5, 330960, Note_on_c, 0, 63, 80
5, 331140, Note_on_c, 0, 63, 0
5, 331140, Note_on_c, 0, 62, 80
5, 331200, Note_on_c, 0, 62, 0
5, 331200, Note_on_c, 0, 60, 80
5, 331200, Note_on_c, 0, 63, 80
5, 332640, Note_on_c, 0, 63, 0
5, 332640, Note_on_c, 0, 60, 0
5, 332820, Note_on_c, 0, 52, 80
5, 332880, Note_on_c, 0, 52, 0
5, 332880, Note_on_c, 0, 57, 80
5, 333060, Note_on_c, 0, 57, 0
5, 333060, Note_on_c, 0, 59, 80
5, 333120, Note_on_c, 0, 59, 0
5, 333120, Note_on_c, 0, 61, 80
5, 333300, Note_on_c, 0, 61, 0
5, 333300, Note_on_c, 0, 60, 80
5, 333360, Note_on_c, 0, 60, 0
5, 333360, Note_on_c, 0, 61, 80
5, 333540, Note_on_c, 0, 61, 0
5, 333540, Note_on_c, 0, 64, 80
5, 333600, Note_on_c, 0, 64, 0
5, 333600, Note_on_c, 0, 68, 80
5, 333780, Note_on_c, 0, 68, 0
5, 333780, Note_on_c, 0, 67, 80
5, 333840, Note_on_c, 0, 67, 0
5, 333840, Note_on_c, 0, 65, 80
5, 334020, Note_on_c, 0, 65, 0
5, 334020, Note_on_c, 0, 64, 80
5, 334080, Note_on_c, 0, 64, 0
5, 334080, Note_on_c, 0, 62, 80
5, 334080, Note_on_c, 0, 65, 80
5, 335520, Note_on_c, 0, 65, 0
5, 335520, Note_on_c, 0, 62, 0
5, 335700, Note_on_c, 0, 45, 93
5, 335760, Note_on_c, 0, 45, 0
5, 335760, Note_on_c, 0, 47, 93
5, 335940, Note_on_c, 0, 47, 0
5, 335940, Note_on_c, 0, 49, 93
5, 336000, Note_on_c, 0, 49, 0
5, 336000, Note_on_c, 0, 50, 93
5, 336180, Note_on_c, 0, 50, 0
5, 336180, Note_on_c, 0, 52, 93
5, 336240, Note_on_c, 0, 52, 0
5, 336240, Note_on_c, 0, 53, 93
5, 336420, Note_on_c, 0, 53, 0
5, 336420, Note_on_c, 0, 55, 93
5, 336480, Note_on_c, 0, 55, 0
5, 336480, Note_on_c, 0, 57, 93
5, 336660, Note_on_c, 0, 57, 0
5, 336660, Note_on_c, 0, 57, 93
5, 336720, Note_on_c, 0, 57, 0
5, 336720, Note_on_c, 0, 59, 93
5, 336900, Note_on_c, 0, 59, 0
5, 336900, Note_on_c, 0, 61, 93
5, 336960, Note_on_c, 0, 61, 0
5, 336960, Note_on_c, 0, 62, 93
5, 336960, Note_on_c, 0, 65, 93
5, 338400, Note_on_c, 0, 65, 0
5, 338400, Note_on_c, 0, 62, 0
5, 338580, Note_on_c, 0, 45, 93
5, 338640, Note_on_c, 0, 45, 0
5, 338640, Note_on_c, 0, 47, 93
5, 338820, Note_on_c, 0, 47, 0
5, 338820, Note_on_c, 0, 49, 93
5, 338880, Note_on_c, 0, 49, 0
5, 338880, Note_on_c, 0, 50, 93
5, 339060, Note_on_c, 0, 50, 0
5, 339060, Note_on_c, 0, 52, 93
5, 339120, Note_on_c, 0, 52, 0
5, 339120, Note_on_c, 0, 53, 93
5, 339300, Note_on_c, 0, 53, 0
5, 339300, Note_on_c, 0, 55, 93
5, 339360, Note_on_c, 0, 55, 0
5, 339360, Note_on_c, 0, 57, 93
5, 339540, Note_on_c, 0, 57, 0
5, 339540, Note_on_c, 0, 59, 93
5, 339600, Note_on_c, 0, 59, 0
5, 339600, Note_on_c, 0, 61, 93
5, 339780, Note_on_c, 0, 61, 0
5, 339780, Note_on_c, 0, 62, 93
5, 339840, Note_on_c, 0, 62, 0
5, 339840, Note_on_c, 0, 60, 93
5, 339840, Note_on_c, 0, 63, 93
5, 340080, Note_on_c, 0, 63, 0
5, 340080, Note_on_c, 0, 60, 0
5, 340320, Note_on_c, 0, 60, 93
5, 340320, Note_on_c, 0, 63, 93
5, 341280, Note_on_c, 0, 63, 0
5, 341280, Note_on_c, 0, 60, 0
5, 341460, Note_on_c, 0, 47, 93
5, 341520, Note_on_c, 0, 47, 0
5, 341520, Note_on_c, 0, 48, 93
5, 341700, Note_on_c, 0, 48, 0
5, 341700, Note_on_c, 0, 55, 93
5, 341760, Note_on_c, 0, 55, 0
5, 341760, Note_on_c, 0, 53, 93
5, 341940, Note_on_c, 0, 53, 0
5, 341940, Note_on_c, 0, 55, 93
5, 342000, Note_on_c, 0, 55, 0
5, 342000, Note_on_c, 0, 57, 93
5, 342180, Note_on_c, 0, 57, 0
5, 342180, Note_on_c, 0, 58, 93
5, 342240, Note_on_c, 0, 58, 0
5, 342240, Note_on_c, 0, 60, 93
5, 342420, Note_on_c, 0, 60, 0
5, 342420, Note_on_c, 0, 59, 93
5, 342480, Note_on_c, 0, 59, 0
5, 342480, Note_on_c, 0, 60, 93
5, 342660, Note_on_c, 0, 60, 0
5, 342660, Note_on_c, 0, 62, 93
5, 342720, Note_on_c, 0, 62, 0
5, 342720, Note_on_c, 0, 60, 93
5, 342720, Note_on_c, 0, 63, 93
5, 342960, Note_on_c, 0, 63, 0
5, 342960, Note_on_c, 0, 60, 0
5, 343200, Note_on_c, 0, 60, 93
5, 343200, Note_on_c, 0, 63, 93
5, 344160, Note_on_c, 0, 63, 0
5, 344160, Note_on_c, 0, 60, 0
5, 344160, Control_c, 0, 64, 127
5, 344160, Note_on_c, 0, 53, 93
5, 344160, Note_on_c, 0, 60, 93
5, 344160, Note_on_c, 0, 63, 93
5, 344160, Note_on_c, 0, 69, 93
5, 344400, Note_on_c, 0, 69, 0
5, 344400, Note_on_c, 0, 53, 0
5, 344400, Note_on_c, 0, 60, 0
5, 344400, Note_on_c, 0, 63, 0
5, 344400, Note_on_c, 0, 53, 93
5, 344400, Note_on_c, 0, 60, 93
5, 344400, Note_on_c, 0, 63, 93
5, 344400, Note_on_c, 0, 69, 93
5, 344880, Note_on_c, 0, 69, 0
5, 344880, Note_on_c, 0, 53, 0
5, 344880, Note_on_c, 0, 60, 0
5, 344880, Note_on_c, 0, 63, 0
5, 344880, Note_on_c, 0, 53, 93
5, 344880, Note_on_c, 0, 60, 93
5, 344880, Note_on_c, 0, 63, 93
5, 344880, Note_on_c, 0, 69, 93
5, 345360, Note_on_c, 0, 69, 0
5, 345360, Note_on_c, 0, 53, 0
5, 345360, Note_on_c, 0, 60, 0
5, 345360, Note_on_c, 0, 63, 0
5, 345360, Note_on_c, 0, 53, 93
5, 345360, Note_on_c, 0, 60, 93
5, 345360, Note_on_c, 0, 63, 93
5, 345360, Note_on_c, 0, 69, 93
5, 345840, Note_on_c, 0, 69, 0
5, 345840, Note_on_c, 0, 53, 0
5, 345840, Note_on_c, 0, 60, 0
5, 345840, Note_on_c, 0, 63, 0
5, 345840, Note_on_c, 0, 53, 93
5, 345840, Note_on_c, 0, 60, 93
5, 345840, Note_on_c, 0, 63, 93
5, 345840, Note_on_c, 0, 69, 93
5, 346320, Note_on_c, 0, 69, 0
5, 346320, Note_on_c, 0, 53, 0
5, 346320, Note_on_c, 0, 60, 0
5, 346320, Note_on_c, 0, 63, 0
5, 346320, Note_on_c, 0, 53, 93
5, 346320, Note_on_c, 0, 60, 93
5, 346320, Note_on_c, 0, 63, 93
5, 346320, Note_on_c, 0, 69, 93
5, 346800, Note_on_c, 0, 69, 0
5, 346800, Note_on_c, 0, 53, 0
5, 346800, Note_on_c, 0, 60, 0
5, 346800, Note_on_c, 0, 63, 0
5, 346800, Note_on_c, 0, 53, 93
5, 346800, Note_on_c, 0, 60, 93
5, 346800, Note_on_c, 0, 63, 93
5, 346800, Note_on_c, 0, 69, 93
5, 347280, Note_on_c, 0, 69, 0
5, 347280, Note_on_c, 0, 53, 0
5, 347280, Note_on_c, 0, 60, 0
5, 347280, Note_on_c, 0, 63, 0
5, 347280, Note_on_c, 0, 53, 93
5, 347280, Note_on_c, 0, 60, 93
5, 347280, Note_on_c, 0, 63, 93
5, 347280, Note_on_c, 0, 69, 93
5, 347760, Note_on_c, 0, 69, 0
5, 347760, Note_on_c, 0, 53, 0
5, 347760, Note_on_c, 0, 60, 0
5, 347760, Note_on_c, 0, 63, 0
5, 347760, Note_on_c, 0, 53, 93
5, 347760, Note_on_c, 0, 60, 93
5, 347760, Note_on_c, 0, 63, 93
5, 347760, Note_on_c, 0, 69, 93
5, 348240, Note_on_c, 0, 69, 0
5, 348240, Note_on_c, 0, 53, 0
5, 348240, Note_on_c, 0, 60, 0
5, 348240, Note_on_c, 0, 63, 0
5, 348240, Note_on_c, 0, 53, 93
5, 348240, Note_on_c, 0, 60, 93
5, 348240, Note_on_c, 0, 63, 93
5, 348240, Note_on_c, 0, 69, 93
5, 348390, Note_on_c, 0, 53, 93
5, 348420, Note_on_c, 0, 60, 93
5, 348450, Note_on_c, 0, 63, 93
5, 348480, Note_on_c, 0, 69, 0
5, 348480, Note_on_c, 0, 63, 0
5, 348480, Note_on_c, 0, 53, 0
5, 348480, Note_on_c, 0, 60, 0
5, 348480, Note_on_c, 0, 69, 93
5, 348720, Note_on_c, 0, 69, 0
5, 348720, Note_on_c, 0, 60, 0
5, 348720, Note_on_c, 0, 53, 0
5, 348720, Note_on_c, 0, 63, 0
5, 348960, Control_c, 0, 64, 0
5, 361680, Control_c, 0, 64, 127
5, 361680, Note_on_c, 0, 34, 93
5, 361680, Note_on_c, 0, 46, 93
5, 361920, Note_on_c, 0, 46, 0
5, 361920, Note_on_c, 0, 34, 0
5, 361920, Note_on_c, 0, 53, 93
5, 361920, Note_on_c, 0, 57, 93
5, 361920, Note_on_c, 0, 63, 93
5, 361920, Note_on_c, 0, 65, 93
5, 362400, Note_on_c, 0, 65, 0
5, 362400, Note_on_c, 0, 53, 0
5, 362400, Note_on_c, 0, 57, 0
5, 362400, Note_on_c, 0, 63, 0
5, 362400, Note_on_c, 0, 53, 93
5, 362400, Note_on_c, 0, 57, 93
5, 362400, Note_on_c, 0, 63, 93
5, 362400, Note_on_c, 0, 65, 93
5, 362880, Note_on_c, 0, 65, 0
5, 362880, Note_on_c, 0, 53, 0
5, 362880, Note_on_c, 0, 57, 0
5, 362880, Note_on_c, 0, 63, 0
5, 362880, Control_c, 0, 64, 0
5, 362880, Note_on_c, 0, 53, 93
5, 362880, Note_on_c, 0, 57, 93
5, 362880, Note_on_c, 0, 63, 93
5, 362880, Note_on_c, 0, 65, 93
5, 363120, Note_on_c, 0, 65, 0
5, 363120, Note_on_c, 0, 53, 0
5, 363120, Note_on_c, 0, 57, 0
5, 363120, Note_on_c, 0, 63, 0
5, 363120, Control_c, 0, 64, 127
5, 363120, Note_on_c, 0, 46, 93
5, 363360, Note_on_c, 0, 46, 0
5, 363360, Note_on_c, 0, 53, 93
5, 363360, Note_on_c, 0, 58, 93
5, 363360, Note_on_c, 0, 62, 93
5, 363360, Note_on_c, 0, 65, 93
5, 363840, Note_on_c, 0, 65, 0
5, 363840, Note_on_c, 0, 53, 0
5, 363840, Note_on_c, 0, 58, 0
5, 363840, Note_on_c, 0, 62, 0
5, 363840, Note_on_c, 0, 53, 93
5, 363840, Note_on_c, 0, 58, 93
5, 363840, Note_on_c, 0, 62, 93
5, 363840, Note_on_c, 0, 65, 93
5, 364320, Note_on_c, 0, 65, 0
5, 364320, Note_on_c, 0, 53, 0
5, 364320, Note_on_c, 0, 58, 0
5, 364320, Note_on_c, 0, 62, 0
5, 364320, Control_c, 0, 64, 0
5, 364320, Note_on_c, 0, 53, 93
5, 364320, Note_on_c, 0, 58, 93
5, 364320, Note_on_c, 0, 62, 93
5, 364320, Note_on_c, 0, 65, 93
5, 364560, Note_on_c, 0, 65, 0
5, 364560, Note_on_c, 0, 53, 0
5, 364560, Note_on_c, 0, 58, 0
5, 364560, Note_on_c, 0, 62, 0
5, 364560, Control_c, 0, 64, 127
5, 364560, Note_on_c, 0, 46, 93
5, 364800, Note_on_c, 0, 46, 0
5, 364800, Note_on_c, 0, 53, 93
5, 364800, Note_on_c, 0, 57, 93
5, 364800, Note_on_c, 0, 63, 93
5, 364800, Note_on_c, 0, 65, 93
5, 365280, Note_on_c, 0, 65, 0
5, 365280, Note_on_c, 0, 53, 0
5, 365280, Note_on_c, 0, 57, 0
5, 365280, Note_on_c, 0, 63, 0
5, 365280, Note_on_c, 0, 53, 93
5, 365280, Note_on_c, 0, 57, 93
5, 365280, Note_on_c, 0, 63, 93
5, 365280, Note_on_c, 0, 65, 93
5, 365760, Note_on_c, 0, 65, 0
5, 365760, Note_on_c, 0, 53, 0
5, 365760, Note_on_c, 0, 57, 0
5, 365760, Note_on_c, 0, 63, 0
5, 365760, Control_c, 0, 64, 0
5, 365760, Note_on_c, 0, 53, 93
5, 365760, Note_on_c, 0, 57, 93
5, 365760, Note_on_c, 0, 63, 93
5, 365760, Note_on_c, 0, 65, 93
5, 366000, Note_on_c, 0, 65, 0
5, 366000, Note_on_c, 0, 53, 0
5, 366000, Note_on_c, 0, 57, 0
5, 366000, Note_on_c, 0, 63, 0
5, 366000, Control_c, 0, 64, 127
5, 366000, Note_on_c, 0, 46, 93
5, 366240, Note_on_c, 0, 46, 0
5, 366240, Note_on_c, 0, 53, 93
5, 366240, Note_on_c, 0, 58, 93
5, 366240, Note_on_c, 0, 62, 93
5, 366240, Note_on_c, 0, 65, 93
5, 366720, Note_on_c, 0, 65, 0
5, 366720, Note_on_c, 0, 53, 0
5, 366720, Note_on_c, 0, 58, 0
5, 366720, Note_on_c, 0, 62, 0
5, 366720, Note_on_c, 0, 53, 93
5, 366720, Note_on_c, 0, 58, 93
5, 366720, Note_on_c, 0, 62, 93
5, 366720, Note_on_c, 0, 65, 93
5, 367200, Note_on_c, 0, 65, 0
5, 367200, Note_on_c, 0, 53, 0
5, 367200, Note_on_c, 0, 58, 0
5, 367200, Note_on_c, 0, 62, 0
5, 367200, Control_c, 0, 64, 0
5, 367200, Note_on_c, 0, 53, 93
5, 367200, Note_on_c, 0, 58, 93
5, 367200, Note_on_c, 0, 62, 93
5, 367440, Note_on_c, 0, 62, 0
5, 367440, Note_on_c, 0, 58, 0
5, 367440, Note_on_c, 0, 53, 0
5, 367440, Control_c, 0, 64, 127
5, 367440, Note_on_c, 0, 51, 93
5, 367680, Note_on_c, 0, 51, 0
5, 367680, Note_on_c, 0, 57, 93
5, 367680, Note_on_c, 0, 60, 93
5, 367680, Note_on_c, 0, 65, 93
5, 368160, Note_on_c, 0, 65, 0
5, 368160, Note_on_c, 0, 60, 0
5, 368160, Note_on_c, 0, 57, 0
5, 368160, Note_on_c, 0, 57, 93
5, 368160, Note_on_c, 0, 60, 93
5, 368160, Note_on_c, 0, 65, 93
5, 368640, Note_on_c, 0, 65, 0
5, 368640, Note_on_c, 0, 60, 0
5, 368640, Note_on_c, 0, 57, 0
5, 368640, Control_c, 0, 64, 0
5, 368640, Note_on_c, 0, 57, 93
5, 368640, Note_on_c, 0, 60, 93
5, 368640, Note_on_c, 0, 65, 93
5, 368880, Note_on_c, 0, 65, 0
5, 368880, Note_on_c, 0, 60, 0
5, 368880, Note_on_c, 0, 57, 0
5, 368880, Control_c, 0, 64, 127
5, 368880, Note_on_c, 0, 50, 93
5, 369120, Note_on_c, 0, 50, 0
5, 369120, Note_on_c, 0, 58, 93
5, 369120, Note_on_c, 0, 62, 93
5, 369120, Note_on_c, 0, 65, 93
5, 369360, Note_on_c, 0, 65, 0
5, 369360, Note_on_c, 0, 62, 0
5, 369360, Note_on_c, 0, 58, 0
5, 369360, Note_on_c, 0, 46, 93
5, 369600, Note_on_c, 0, 46, 0
5, 369600, Note_on_c, 0, 58, 93
5, 369600, Note_on_c, 0, 62, 93
5, 369600, Note_on_c, 0, 65, 93
5, 369840, Note_on_c, 0, 65, 0
5, 369840, Note_on_c, 0, 62, 0
5, 369840, Note_on_c, 0, 58, 0
5, 369840, Control_c, 0, 64, 0
5, 369840, Note_on_c, 0, 55, 93
5, 370080, Note_on_c, 0, 55, 0
5, 370080, Note_on_c, 0, 58, 93
5, 370080, Note_on_c, 0, 62, 93
5, 370080, Note_on_c, 0, 67, 93
5, 370320, Note_on_c, 0, 67, 0
5, 370320, Note_on_c, 0, 62, 0
5, 370320, Note_on_c, 0, 58, 0
5, 370320, Note_on_c, 0, 54, 93
5, 370320, Note_on_c, 0, 57, 93
5, 370320, Note_on_c, 0, 60, 93
5, 370320, Note_on_c, 0, 62, 93
5, 370800, Note_on_c, 0, 62, 0
5, 370800, Note_on_c, 0, 54, 0
5, 370800, Note_on_c, 0, 57, 0
5, 370800, Note_on_c, 0, 60, 0
5, 370800, Note_on_c, 0, 50, 93
5, 370800, Note_on_c, 0, 54, 93
5, 370800, Note_on_c, 0, 60, 93
5, 370800, Note_on_c, 0, 62, 93
5, 371280, Note_on_c, 0, 62, 0
5, 371280, Note_on_c, 0, 50, 0
5, 371280, Note_on_c, 0, 54, 0
5, 371280, Note_on_c, 0, 60, 0
5, 371280, Note_on_c, 0, 55, 93
5, 371280, Note_on_c, 0, 58, 93
5, 371280, Note_on_c, 0, 62, 93
5, 371760, Note_on_c, 0, 62, 0
5, 371760, Note_on_c, 0, 58, 0
5, 371760, Note_on_c, 0, 55, 0
5, 371760, Note_on_c, 0, 54, 93
5, 371760, Note_on_c, 0, 57, 93
5, 371760, Note_on_c, 0, 60, 93
5, 371760, Note_on_c, 0, 62, 93
5, 372240, Note_on_c, 0, 62, 0
5, 372240, Note_on_c, 0, 54, 0
5, 372240, Note_on_c, 0, 57, 0
5, 372240, Note_on_c, 0, 60, 0
5, 372240, Note_on_c, 0, 50, 93
5, 372240, Note_on_c, 0, 54, 93
5, 372240, Note_on_c, 0, 60, 93
5, 372240, Note_on_c, 0, 62, 93
5, 372720, Note_on_c, 0, 62, 0
5, 372720, Note_on_c, 0, 50, 0
5, 372720, Note_on_c, 0, 54, 0
5, 372720, Note_on_c, 0, 60, 0
5, 372720, Note_on_c, 0, 55, 93
5, 372720, Note_on_c, 0, 58, 93
5, 372720, Note_on_c, 0, 62, 93
5, 373200, Note_on_c, 0, 62, 0
5, 373200, Note_on_c, 0, 58, 0
5, 373200, Note_on_c, 0, 55, 0
5, 373200, Note_on_c, 0, 57, 93
5, 373200, Note_on_c, 0, 60, 93
5, 373200, Note_on_c, 0, 63, 93
5, 373200, Note_on_c, 0, 65, 93
5, 373680, Note_on_c, 0, 65, 0
5, 373680, Note_on_c, 0, 57, 0
5, 373680, Note_on_c, 0, 60, 0
5, 373680, Note_on_c, 0, 63, 0
5, 373680, Note_on_c, 0, 53, 93
5, 373680, Note_on_c, 0, 57, 93
5, 373680, Note_on_c, 0, 63, 93
5, 373680, Note_on_c, 0, 65, 93
5, 374160, Note_on_c, 0, 65, 0
5, 374160, Note_on_c, 0, 53, 0
5, 374160, Note_on_c, 0, 57, 0
5, 374160, Note_on_c, 0, 63, 0
5, 374160, Note_on_c, 0, 58, 93
5, 374160, Note_on_c, 0, 62, 93
5, 374160, Note_on_c, 0, 65, 93
5, 374640, Note_on_c, 0, 65, 0
5, 374640, Note_on_c, 0, 62, 0
5, 374640, Note_on_c, 0, 58, 0
5, 374640, Note_on_c, 0, 57, 93
5, 374640, Note_on_c, 0, 60, 93
5, 374640, Note_on_c, 0, 63, 93
5, 374640, Note_on_c, 0, 65, 93
5, 375120, Note_on_c, 0, 65, 0
5, 375120, Note_on_c, 0, 57, 0
5, 375120, Note_on_c, 0, 60, 0
5, 375120, Note_on_c, 0, 63, 0
5, 375120, Note_on_c, 0, 53, 93
5, 375120, Note_on_c, 0, 57, 93
5, 375120, Note_on_c, 0, 63, 93
5, 375120, Note_on_c, 0, 65, 93
5, 375600, Note_on_c, 0, 65, 0
5, 375600, Note_on_c, 0, 53, 0
5, 375600, Note_on_c, 0, 57, 0
5, 375600, Note_on_c, 0, 63, 0
5, 375600, Note_on_c, 0, 50, 93
5, 375600, Note_on_c, 0, 57, 93
5, 375600, Note_on_c, 0, 62, 93
5, 375600, Note_on_c, 0, 65, 93
5, 376080, Note_on_c, 0, 65, 0
5, 376080, Note_on_c, 0, 50, 0
5, 376080, Note_on_c, 0, 57, 0
5, 376080, Note_on_c, 0, 62, 0
5, 376080, Note_on_c, 0, 49, 93
5, 376080, Note_on_c, 0, 57, 93
5, 376080, Note_on_c, 0, 64, 93
5, 376560, Note_on_c, 0, 64, 0
5, 376560, Note_on_c, 0, 57, 0
5, 376560, Note_on_c, 0, 49, 0
5, 376560, Note_on_c, 0, 45, 93
5, 376560, Note_on_c, 0, 52, 93
5, 376560, Note_on_c, 0, 57, 93
5, 376560, Note_on_c, 0, 61, 93
5, 377040, Note_on_c, 0, 61, 0
5, 377040, Note_on_c, 0, 45, 0
5, 377040, Note_on_c, 0, 52, 0
5, 377040, Note_on_c, 0, 57, 0
5, 377040, Note_on_c, 0, 50, 93
5, 377040, Note_on_c, 0, 53, 93
5, 377040, Note_on_c, 0, 57, 93
5, 377040, Note_on_c, 0, 62, 93
5, 377520, Note_on_c, 0, 62, 0
5, 377520, Note_on_c, 0, 50, 0
5, 377520, Note_on_c, 0, 53, 0
5, 377520, Note_on_c, 0, 57, 0
5, 377520, Note_on_c, 0, 49, 93
5, 377520, Note_on_c, 0, 55, 93
5, 377520, Note_on_c, 0, 57, 93
5, 377520, Note_on_c, 0, 64, 93
5, 378000, Note_on_c, 0, 64, 0
5, 378000, Note_on_c, 0, 49, 0
5, 378000, Note_on_c, 0, 55, 0
5, 378000, Note_on_c, 0, 57, 0
5, 378000, Note_on_c, 0, 50, 93
5, 378000, Note_on_c, 0, 53, 93
5, 378000, Note_on_c, 0, 57, 93
5, 378000, Note_on_c, 0, 62, 93
5, 378480, Note_on_c, 0, 62, 0
5, 378480, Note_on_c, 0, 50, 0
5, 378480, Note_on_c, 0, 53, 0
5, 378480, Note_on_c, 0, 57, 0
5, 378480, Note_on_c, 0, 47, 93
5, 378480, Note_on_c, 0, 53, 93
5, 378480, Note_on_c, 0, 55, 93
5, 378480, Note_on_c, 0, 62, 93
5, 378960, Note_on_c, 0, 62, 0
5, 378960, Note_on_c, 0, 47, 0
5, 378960, Note_on_c, 0, 53, 0
5, 378960, Note_on_c, 0, 55, 0
5, 378960, Note_on_c, 0, 48, 93
5, 378960, Note_on_c, 0, 51, 93
5, 378960, Note_on_c, 0, 55, 93
5, 378960, Note_on_c, 0, 60, 93
5, 379440, Note_on_c, 0, 60, 0
5, 379440, Note_on_c, 0, 48, 0
5, 379440, Note_on_c, 0, 51, 0
5, 379440, Note_on_c, 0, 55, 0
5, 379440, Note_on_c, 0, 45, 93
5, 379440, Note_on_c, 0, 51, 93
5, 379440, Note_on_c, 0, 53, 93
5, 379440, Note_on_c, 0, 60, 93
5, 379920, Note_on_c, 0, 60, 0
5, 379920, Note_on_c, 0, 45, 0
5, 379920, Note_on_c, 0, 51, 0
5, 379920, Note_on_c, 0, 53, 0
5, 379920, Note_on_c, 0, 45, 93
5, 379920, Note_on_c, 0, 50, 93
5, 379920, Note_on_c, 0, 53, 93
5, 379920, Note_on_c, 0, 58, 93
5, 380400, Note_on_c, 0, 58, 0
5, 380400, Note_on_c, 0, 45, 0
5, 380400, Note_on_c, 0, 50, 0
5, 380400, Note_on_c, 0, 53, 0
5, 380400, Note_on_c, 0, 43, 93
5, 380400, Note_on_c, 0, 48, 93
5, 380400, Note_on_c, 0, 51, 93
5, 380400, Note_on_c, 0, 58, 93
5, 380880, Note_on_c, 0, 58, 0
5, 380880, Note_on_c, 0, 43, 0
5, 380880, Note_on_c, 0, 48, 0
5, 380880, Note_on_c, 0, 51, 0
5, 380880, Note_on_c, 0, 43, 93
5, 380880, Note_on_c, 0, 48, 93
5, 380880, Note_on_c, 0, 51, 93
5, 380880, Note_on_c, 0, 57, 93
5, 381360, Note_on_c, 0, 57, 0
5, 381360, Note_on_c, 0, 43, 0
5, 381360, Note_on_c, 0, 48, 0
5, 381360, Note_on_c, 0, 51, 0
5, 381360, Note_on_c, 0, 42, 93
5, 381360, Note_on_c, 0, 48, 93
5, 381360, Note_on_c, 0, 50, 93
5, 381360, Note_on_c, 0, 57, 93
5, 381840, Note_on_c, 0, 57, 0
5, 381840, Note_on_c, 0, 42, 0
5, 381840, Note_on_c, 0, 48, 0
5, 381840, Note_on_c, 0, 50, 0
5, 381840, Note_on_c, 0, 41, 93
5, 381840, Note_on_c, 0, 47, 93
5, 381840, Note_on_c, 0, 50, 93
5, 381840, Note_on_c, 0, 55, 93
5, 382320, Note_on_c, 0, 55, 0
5, 382320, Note_on_c, 0, 41, 0
5, 382320, Note_on_c, 0, 47, 0
5, 382320, Note_on_c, 0, 50, 0
5, 382320, Note_on_c, 0, 39, 93
5, 382320, Note_on_c, 0, 46, 93
5, 382320, Note_on_c, 0, 48, 93
5, 382320, Note_on_c, 0, 55, 93
5, 382800, Note_on_c, 0, 55, 0
5, 382800, Note_on_c, 0, 39, 0
5, 382800, Note_on_c, 0, 46, 0
5, 382800, Note_on_c, 0, 48, 0
5, 382800, Note_on_c, 0, 40, 93
5, 382800, Note_on_c, 0, 46, 93
5, 382800, Note_on_c, 0, 49, 93
5, 382800, Note_on_c, 0, 55, 93
5, 383280, Note_on_c, 0, 55, 0
5, 383280, Note_on_c, 0, 40, 0
5, 383280, Note_on_c, 0, 46, 0
5, 383280, Note_on_c, 0, 49, 0
5, 383280, Note_on_c, 0, 41, 93
5, 383280, Note_on_c, 0, 46, 93
5, 383280, Note_on_c, 0, 50, 93
5, 383280, Note_on_c, 0, 53, 93
5, 383760, Note_on_c, 0, 53, 0
5, 383760, Note_on_c, 0, 41, 0
5, 383760, Note_on_c, 0, 46, 0
5, 383760, Note_on_c, 0, 50, 0
5, 383760, Note_on_c, 0, 53, 93
5, 383760, Note_on_c, 0, 62, 93
5, 383760, Note_on_c, 0, 65, 93
5, 384240, Note_on_c, 0, 65, 0
5, 384240, Note_on_c, 0, 62, 0
5, 384240, Note_on_c, 0, 53, 0
5, 384240, Note_on_c, 0, 53, 93
5, 384240, Note_on_c, 0, 61, 93
5, 384240, Note_on_c, 0, 64, 93
5, 384720, Note_on_c, 0, 64, 0
5, 384720, Note_on_c, 0, 61, 0
5, 384720, Note_on_c, 0, 53, 0
5, 384720, Note_on_c, 0, 53, 93
5, 384720, Note_on_c, 0, 60, 93
5, 384720, Note_on_c, 0, 63, 93
5, 385200, Note_on_c, 0, 63, 0
5, 385200, Note_on_c, 0, 60, 0
5, 385200, Note_on_c, 0, 53, 0
5, 385200, Note_on_c, 0, 53, 93
5, 385200, Note_on_c, 0, 58, 93
5, 385200, Note_on_c, 0, 62, 93
5, 385680, Note_on_c, 0, 62, 0
5, 385680, Note_on_c, 0, 58, 0
5, 385680, Note_on_c, 0, 53, 0
5, 385680, Note_on_c, 0, 53, 93
5, 385680, Note_on_c, 0, 57, 93
5, 385680, Note_on_c, 0, 60, 93
5, 386160, Note_on_c, 0, 60, 0
5, 386160, Note_on_c, 0, 57, 0
5, 386160, Note_on_c, 0, 53, 0
5, 386160, Note_on_c, 0, 53, 93
5, 386160, Note_on_c, 0, 56, 93
5, 386160, Note_on_c, 0, 58, 93
5, 386160, Note_on_c, 0, 65, 93
5, 386640, Note_on_c, 0, 65, 0
5, 386640, Note_on_c, 0, 53, 0
5, 386640, Note_on_c, 0, 56, 0
5, 386640, Note_on_c, 0, 58, 0
5, 386640, Note_on_c, 0, 53, 93
5, 386640, Note_on_c, 0, 55, 93
5, 386640, Note_on_c, 0, 58, 93
5, 386640, Note_on_c, 0, 63, 93
5, 387120, Note_on_c, 0, 63, 0
5, 387120, Note_on_c, 0, 53, 0
5, 387120, Note_on_c, 0, 55, 0
5, 387120, Note_on_c, 0, 58, 0
5, 387120, Note_on_c, 0, 53, 93
5, 387120, Note_on_c, 0, 54, 93
5, 387120, Note_on_c, 0, 58, 93
5, 387120, Note_on_c, 0, 61, 93
5, 387600, Note_on_c, 0, 61, 0
5, 387600, Note_on_c, 0, 53, 0
5, 387600, Note_on_c, 0, 54, 0
5, 387600, Note_on_c, 0, 58, 0
5, 387600, Note_on_c, 0, 53, 93
5, 387600, Note_on_c, 0, 58, 93
5, 387600, Note_on_c, 0, 62, 93
5, 388080, Note_on_c, 0, 62, 0
5, 388080, Note_on_c, 0, 58, 0
5, 388080, Note_on_c, 0, 53, 0
5, 388080, Note_on_c, 0, 53, 93
5, 388080, Note_on_c, 0, 59, 93
5, 388080, Note_on_c, 0, 62, 93
5, 388560, Note_on_c, 0, 62, 0
5, 388560, Note_on_c, 0, 59, 0
5, 388560, Note_on_c, 0, 53, 0
5, 388560, Note_on_c, 0, 53, 93
5, 388560, Note_on_c, 0, 60, 93
5, 388560, Note_on_c, 0, 63, 93
5, 388950, Note_on_c, 0, 46, 93
5, 388980, Note_on_c, 0, 53, 93
5, 389010, Note_on_c, 0, 58, 93
5, 389040, Note_on_c, 0, 63, 0
5, 389040, Note_on_c, 0, 53, 0
5, 389040, Note_on_c, 0, 60, 0
5, 389040, Note_on_c, 0, 62, 93
5, 389520, Note_on_c, 0, 62, 0
5, 389520, Note_on_c, 0, 58, 0
5, 389520, Note_on_c, 0, 53, 0
5, 389520, Note_on_c, 0, 46, 0
5, 389520, Note_on_c, 0, 30, 67
5, 389520, Note_on_c, 0, 42, 67
5, 389760, Note_on_c, 0, 42, 0
5, 389760, Note_on_c, 0, 30, 0
5, 390000, Note_on_c, 0, 31, 67
5, 390000, Note_on_c, 0, 43, 67
5, 390240, Note_on_c, 0, 43, 0
5, 390240, Note_on_c, 0, 31, 0
5, 390480, Note_on_c, 0, 33, 67
5, 390480, Note_on_c, 0, 45, 67
5, 390720, Note_on_c, 0, 45, 0
5, 390720, Note_on_c, 0, 33, 0
5, 390960, Note_on_c, 0, 34, 67
5, 390960, Note_on_c, 0, 46, 67
5, 391200, Note_on_c, 0, 46, 0
5, 391200, Note_on_c, 0, 34, 0
5, 391440, Note_on_c, 0, 37, 67
5, 391440, Note_on_c, 0, 49, 67
5, 391680, Note_on_c, 0, 49, 0
5, 391680, Note_on_c, 0, 37, 0
5, 391920, Note_on_c, 0, 38, 67
5, 391920, Note_on_c, 0, 50, 67
5, 392160, Note_on_c, 0, 50, 0
5, 392160, Note_on_c, 0, 38, 0
5, 392400, Note_on_c, 0, 42, 80
5, 392400, Note_on_c, 0, 46, 80
5, 392400, Note_on_c, 0, 54, 80
5, 392447, Note_on_c, 0, 54, 0
5, 392447, Note_on_c, 0, 46, 0
5, 392447, Note_on_c, 0, 42, 0
5, 392640, Note_on_c, 0, 42, 80
5, 392640, Note_on_c, 0, 46, 80
5, 392640, Note_on_c, 0, 54, 80
5, 392687, Note_on_c, 0, 54, 0
5, 392687, Note_on_c, 0, 46, 0
5, 392687, Note_on_c, 0, 42, 0
5, 392880, Note_on_c, 0, 42, 80
5, 392880, Note_on_c, 0, 46, 80
5, 392880, Note_on_c, 0, 54, 80
5, 392927, Note_on_c, 0, 54, 0
5, 392927, Note_on_c, 0, 46, 0
5, 392927, Note_on_c, 0, 42, 0
5, 393120, Note_on_c, 0, 42, 80
5, 393120, Note_on_c, 0, 46, 80
5, 393120, Note_on_c, 0, 54, 80
5, 393167, Note_on_c, 0, 54, 0
5, 393167, Note_on_c, 0, 46, 0
5, 393167, Note_on_c, 0, 42, 0
5, 393360, Note_on_c, 0, 41, 80
5, 393360, Note_on_c, 0, 46, 80
5, 393360, Note_on_c, 0, 53, 80
5, 393600, Note_on_c, 0, 53, 0
5, 393600, Note_on_c, 0, 46, 0
5, 393600, Note_on_c, 0, 41, 0
5, 393840, Note_on_c, 0, 53, 67
5, 393840, Note_on_c, 0, 58, 67
5, 393840, Note_on_c, 0, 62, 67
5, 393887, Note_on_c, 0, 62, 0
5, 393887, Note_on_c, 0, 58, 0
5, 393887, Note_on_c, 0, 53, 0
5, 394080, Note_on_c, 0, 53, 67
5, 394080, Note_on_c, 0, 58, 67
5, 394080, Note_on_c, 0, 62, 67
5, 394127, Note_on_c, 0, 62, 0
5, 394127, Note_on_c, 0, 58, 0
5, 394127, Note_on_c, 0, 53, 0
5, 394320, Note_on_c, 0, 53, 67
5, 394320, Note_on_c, 0, 57, 67
5, 394320, Note_on_c, 0, 60, 67
5, 394367, Note_on_c, 0, 60, 0
5, 394367, Note_on_c, 0, 57, 0
5, 394367, Note_on_c, 0, 53, 0
5, 394560, Note_on_c, 0, 53, 67
5, 394560, Note_on_c, 0, 57, 67
5, 394560, Note_on_c, 0, 60, 67
5, 394607, Note_on_c, 0, 60, 0
5, 394607, Note_on_c, 0, 57, 0
5, 394607, Note_on_c, 0, 53, 0
5, 394800, Note_on_c, 0, 58, 67
5, 394800, Note_on_c, 0, 62, 67
5, 395280, Note_on_c, 0, 62, 0
5, 395280, Note_on_c, 0, 58, 0
5, 395280, Note_on_c, 0, 30, 67
5, 395280, Note_on_c, 0, 42, 67
5, 395520, Note_on_c, 0, 42, 0
5, 395520, Note_on_c, 0, 30, 0
5, 395760, Note_on_c, 0, 31, 67
5, 395760, Note_on_c, 0, 43, 67
5, 396000, Note_on_c, 0, 43, 0
5, 396000, Note_on_c, 0, 31, 0
5, 396240, Note_on_c, 0, 33, 67
5, 396240, Note_on_c, 0, 45, 67
5, 396480, Note_on_c, 0, 45, 0
5, 396480, Note_on_c, 0, 33, 0
5, 396720, Note_on_c, 0, 34, 67
5, 396720, Note_on_c, 0, 46, 67
5, 396960, Note_on_c, 0, 46, 0
5, 396960, Note_on_c, 0, 34, 0
5, 397200, Note_on_c, 0, 37, 67
5, 397200, Note_on_c, 0, 49, 67
5, 397440, Note_on_c, 0, 49, 0
5, 397440, Note_on_c, 0, 37, 0
5, 397680, Note_on_c, 0, 38, 67
5, 397680, Note_on_c, 0, 50, 67
5, 397920, Note_on_c, 0, 50, 0
5, 397920, Note_on_c, 0, 38, 0
5, 398160, Note_on_c, 0, 42, 80
5, 398160, Note_on_c, 0, 46, 80
5, 398160, Note_on_c, 0, 54, 80
5, 398207, Note_on_c, 0, 54, 0
5, 398207, Note_on_c, 0, 46, 0
5, 398207, Note_on_c, 0, 42, 0
5, 398400, Note_on_c, 0, 42, 80
5, 398400, Note_on_c, 0, 46, 80
5, 398400, Note_on_c, 0, 54, 80
5, 398447, Note_on_c, 0, 54, 0
5, 398447, Note_on_c, 0, 46, 0
5, 398447, Note_on_c, 0, 42, 0
5, 398640, Note_on_c, 0, 42, 80
5, 398640, Note_on_c, 0, 46, 80
5, 398640, Note_on_c, 0, 54, 80
5, 398687, Note_on_c, 0, 54, 0
5, 398687, Note_on_c, 0, 46, 0
5, 398687, Note_on_c, 0, 42, 0
5, 398880, Note_on_c, 0, 42, 80
5, 398880, Note_on_c, 0, 46, 80
5, 398880, Note_on_c, 0, 54, 80
5, 398927, Note_on_c, 0, 54, 0
5, 398927, Note_on_c, 0, 46, 0
5, 398927, Note_on_c, 0, 42, 0
5, 399120, Note_on_c, 0, 41, 80
5, 399120, Note_on_c, 0, 46, 80
5, 399120, Note_on_c, 0, 53, 80
5, 399360, Note_on_c, 0, 53, 0
5, 399360, Note_on_c, 0, 46, 0
5, 399360, Note_on_c, 0, 41, 0
5, 399600, Note_on_c, 0, 53, 67
5, 399600, Note_on_c, 0, 58, 67
5, 399600, Note_on_c, 0, 62, 67
5, 399600, Note_on_c, 0, 65, 67
5, 400560, Note_on_c, 0, 65, 0
5, 400560, Note_on_c, 0, 53, 0
5, 400560, Note_on_c, 0, 58, 0
5, 400560, Note_on_c, 0, 62, 0
5, 400560, Note_on_c, 0, 53, 80
5, 400560, Note_on_c, 0, 59, 80
5, 400560, Note_on_c, 0, 62, 80
5, 400560, Note_on_c, 0, 67, 80
5, 401910, Note_on_c, 0, 53, 80
5, 401940, Note_on_c, 0, 60, 80
5, 401970, Note_on_c, 0, 63, 80
5, 402000, Note_on_c, 0, 67, 0
5, 402000, Note_on_c, 0, 62, 0
5, 402000, Note_on_c, 0, 53, 0
5, 402000, Note_on_c, 0, 59, 0
5, 402000, Note_on_c, 0, 67, 80
5, 403440, Note_on_c, 0, 67, 0
5, 403440, Note_on_c, 0, 60, 0
5, 403440, Note_on_c, 0, 53, 0
5, 403440, Note_on_c, 0, 63, 0
5, 403440, Note_on_c, 0, 53, 80
5, 403440, Note_on_c, 0, 60, 80
5, 403440, Note_on_c, 0, 63, 80
5, 403440, Note_on_c, 0, 69, 80
5, 403680, Note_on_c, 0, 69, 0
5, 403680, Note_on_c, 0, 53, 0
5, 403680, Note_on_c, 0, 60, 0
5, 403680, Note_on_c, 0, 63, 0
5, 403920, Note_on_c, 0, 53, 80
5, 403920, Note_on_c, 0, 60, 80
5, 403920, Note_on_c, 0, 63, 80
5, 403920, Note_on_c, 0, 69, 80
5, 404160, Note_on_c, 0, 69, 0
5, 404160, Note_on_c, 0, 53, 0
5, 404160, Note_on_c, 0, 60, 0
5, 404160, Note_on_c, 0, 63, 0
5, 404400, Note_on_c, 0, 53, 80
5, 404400, Note_on_c, 0, 60, 80
5, 404400, Note_on_c, 0, 63, 80
5, 404400, Note_on_c, 0, 69, 80
5, 404640, Note_on_c, 0, 69, 0
5, 404640, Note_on_c, 0, 53, 0
5, 404640, Note_on_c, 0, 60, 0
5, 404640, Note_on_c, 0, 63, 0
5, 404880, Note_on_c, 0, 58, 80
5, 404880, Note_on_c, 0, 62, 80
5, 404880, Note_on_c, 0, 65, 80
5, 404880, Note_on_c, 0, 70, 80
5, 405120, Note_on_c, 0, 70, 0
5, 405120, Note_on_c, 0, 58, 0
5, 405120, Note_on_c, 0, 62, 0
5, 405120, Note_on_c, 0, 65, 0
5, 405120, Note_on_c, 0, 62, 93
5, 405120, Note_on_c, 0, 65, 93
5, 405360, Note_on_c, 0, 65, 0
5, 405360, Note_on_c, 0, 62, 0
5, 405360, Note_on_c, 0, 63, 93
5, 405360, Note_on_c, 0, 67, 93
5, 405600, Note_on_c, 0, 67, 0
5, 405600, Note_on_c, 0, 63, 0
5, 405600, Note_on_c, 0, 53, 93
5, 405720, Note_on_c, 0, 53, 0
5, 405720, Note_on_c, 0, 55, 93
5, 405840, Note_on_c, 0, 55, 0
5, 405840, Note_on_c, 0, 56, 93
5, 405840, Note_on_c, 0, 65, 93
5, 405960, Note_on_c, 0, 65, 0
5, 405960, Note_on_c, 0, 56, 0
5, 405960, Note_on_c, 0, 55, 93
5, 406080, Note_on_c, 0, 55, 0
5, 406080, Note_on_c, 0, 56, 93
5, 406200, Note_on_c, 0, 56, 0
5, 406200, Note_on_c, 0, 57, 93
5, 406320, Note_on_c, 0, 57, 0
5, 406320, Note_on_c, 0, 58, 93
5, 406320, Note_on_c, 0, 65, 93
5, 406560, Note_on_c, 0, 65, 0
5, 406560, Note_on_c, 0, 58, 0
5, 406560, Note_on_c, 0, 62, 93
5, 406560, Note_on_c, 0, 65, 93
5, 406607, Note_on_c, 0, 65, 0
5, 406607, Note_on_c, 0, 62, 0
5, 406800, Note_on_c, 0, 63, 119
5, 406800, Note_on_c, 0, 67, 119
5, 407040, Note_on_c, 0, 67, 0
5, 407040, Note_on_c, 0, 63, 0
5, 407040, Note_on_c, 0, 53, 93
5, 407160, Note_on_c, 0, 53, 0
5, 407160, Note_on_c, 0, 55, 93
5, 407280, Note_on_c, 0, 55, 0
5, 407280, Note_on_c, 0, 56, 93
5, 407280, Note_on_c, 0, 65, 93
5, 407400, Note_on_c, 0, 65, 0
5, 407400, Note_on_c, 0, 56, 0
5, 407400, Note_on_c, 0, 55, 93
5, 407520, Note_on_c, 0, 55, 0
5, 407520, Note_on_c, 0, 56, 93
5, 407640, Note_on_c, 0, 56, 0
5, 407640, Note_on_c, 0, 57, 93
5, 407760, Note_on_c, 0, 57, 0
5, 407760, Note_on_c, 0, 58, 93
5, 408000, Note_on_c, 0, 58, 0
5, 410640, Note_on_c, 0, 46, 93
5, 410640, Note_on_c, 0, 58, 93
5, 410687, Note_on_c, 0, 58, 0
5, 410687, Note_on_c, 0, 46, 0
5, 410880, Note_on_c, 0, 62, 93
5, 410880, Note_on_c, 0, 65, 93
5, 410927, Note_on_c, 0, 65, 0
5, 410927, Note_on_c, 0, 62, 0
5, 411120, Note_on_c, 0, 63, 119
5, 411120, Note_on_c, 0, 67, 119
5, 411360, Note_on_c, 0, 67, 0
5, 411360, Note_on_c, 0, 63, 0
5, 411360, Note_on_c, 0, 53, 93
5, 411480, Note_on_c, 0, 53, 0
5, 411480, Note_on_c, 0, 55, 93
5, 411600, Note_on_c, 0, 55, 0
5, 411600, Note_on_c, 0, 56, 93
5, 411600, Note_on_c, 0, 65, 93
5, 411720, Note_on_c, 0, 65, 0
5, 411720, Note_on_c, 0, 56, 0
5, 411720, Note_on_c, 0, 55, 93
5, 411840, Note_on_c, 0, 55, 0
5, 411840, Note_on_c, 0, 56, 93
5, 411960, Note_on_c, 0, 56, 0
5, 411960, Note_on_c, 0, 57, 93
5, 412080, Note_on_c, 0, 57, 0
5, 412080, Note_on_c, 0, 58, 93
5, 412080, Note_on_c, 0, 65, 93
5, 412320, Note_on_c, 0, 65, 0
5, 412320, Note_on_c, 0, 58, 0
5, 412320, Note_on_c, 0, 62, 93
5, 412320, Note_on_c, 0, 65, 93
5, 412367, Note_on_c, 0, 65, 0
5, 412367, Note_on_c, 0, 62, 0
5, 412560, Note_on_c, 0, 63, 119
5, 412560, Note_on_c, 0, 67, 119
5, 412800, Note_on_c, 0, 67, 0
5, 412800, Note_on_c, 0, 63, 0
5, 412800, Note_on_c, 0, 53, 93
5, 412920, Note_on_c, 0, 53, 0
5, 412920, Note_on_c, 0, 55, 93
5, 413040, Note_on_c, 0, 55, 0
5, 413040, Note_on_c, 0, 56, 93
5, 413040, Note_on_c, 0, 65, 93
5, 413160, Note_on_c, 0, 65, 0
5, 413160, Note_on_c, 0, 56, 0
5, 413160, Note_on_c, 0, 55, 93
5, 413280, Note_on_c, 0, 55, 0
5, 413280, Note_on_c, 0, 56, 93
5, 413400, Note_on_c, 0, 56, 0
5, 413400, Note_on_c, 0, 57, 93
5, 413520, Note_on_c, 0, 57, 0
5, 413520, Note_on_c, 0, 58, 93
5, 413520, Note_on_c, 0, 65, 93
5, 413760, Note_on_c, 0, 65, 0
5, 413760, Note_on_c, 0, 58, 0
5, 416400, Note_on_c, 0, 46, 93
5, 416400, Note_on_c, 0, 53, 93
5, 416400, Note_on_c, 0, 58, 93
5, 416400, Note_on_c, 0, 62, 93
5, 417120, Note_on_c, 0, 62, 0
5, 417120, Note_on_c, 0, 46, 0
5, 417120, Note_on_c, 0, 53, 0
5, 417120, Note_on_c, 0, 58, 0
5, 422160, Note_on_c, 0, 34, 93
5, 422160, Note_on_c, 0, 46, 93
5, 422160, Note_on_c, 0, 50, 93
5, 422160, Note_on_c, 0, 53, 93
5, 422160, Note_on_c, 0, 58, 93
5, 422400, Note_on_c, 0, 58, 0
5, 422400, Note_on_c, 0, 50, 0
5, 422400, Note_on_c, 0, 34, 0
5, 422400, Note_on_c, 0, 46, 0
5, 422400, Note_on_c, 0, 53, 0
5, 422400, Note_on_c, 0, 29, 93
5, 422400, Note_on_c, 0, 41, 93
5, 422400, Note_on_c, 0, 53, 93
5, 422400, Note_on_c, 0, 57, 93
5, 422400, Note_on_c, 0, 60, 93
5, 422640, Note_on_c, 0, 60, 0
5, 422640, Note_on_c, 0, 53, 0
5, 422640, Note_on_c, 0, 29, 0
5, 422640, Note_on_c, 0, 41, 0
5, 422640, Note_on_c, 0, 57, 0
5, 422640, Note_on_c, 0, 34, 93
5, 422640, Note_on_c, 0, 46, 93
5, 422640, Note_on_c, 0, 53, 93
5, 422640, Note_on_c, 0, 58, 93
5, 422640, Note_on_c, 0, 62, 93
5, 422880, Note_on_c, 0, 62, 0
5, 422880, Note_on_c, 0, 53, 0
5, 422880, Note_on_c, 0, 34, 0
5, 422880, Note_on_c, 0, 46, 0
5, 422880, Note_on_c, 0, 58, 0
5, 422880, Note_on_c, 0, 29, 93
5, 422880, Note_on_c, 0, 41, 93
5, 423120, Note_on_c, 0, 41, 0
5, 423120, Note_on_c, 0, 29, 0
5, 423120, Note_on_c, 0, 34, 93
5, 423120, Note_on_c, 0, 46, 93
5, 423360, Note_on_c, 0, 46, 0
5, 423360, Note_on_c, 0, 34, 0
5, 423360, Note_on_c, 0, 29, 93
5, 423360, Note_on_c, 0, 41, 93
5, 423600, Note_on_c, 0, 41, 0
5, 423600, Note_on_c, 0, 29, 0
5, 423600, Note_on_c, 0, 34, 93
5, 423600, Note_on_c, 0, 46, 93
5, 423840, Note_on_c, 0, 46, 0
5, 423840, Note_on_c, 0, 34, 0
5, 423840, Note_on_c, 0, 41, 93
5, 423840, Note_on_c, 0, 53, 93
5, 424080, Note_on_c, 0, 53, 0
5, 424080, Note_on_c, 0, 41, 0
5, 424080, Note_on_c, 0, 46, 93
5, 424080, Note_on_c, 0, 58, 93
5, 424320, Note_on_c, 0, 58, 0
5, 424320, Note_on_c, 0, 46, 0
5, 424320, Note_on_c, 0, 41, 93
5, 424320, Note_on_c, 0, 53, 93
5, 424560, Note_on_c, 0, 53, 0
5, 424560, Note_on_c, 0, 41, 0
5, 424560, Note_on_c, 0, 46, 93
5, 424560, Note_on_c, 0, 58, 93
5, 424800, Note_on_c, 0, 58, 0
5, 424800, Note_on_c, 0, 46, 0
5, 424800, Note_on_c, 0, 41, 93
5, 424800, Note_on_c, 0, 53, 93
5, 425040, Note_on_c, 0, 53, 0
5, 425040, Note_on_c, 0, 41, 0
5, 425040, Note_on_c, 0, 46, 93
5, 425040, Note_on_c, 0, 58, 93
5, 425280, Note_on_c, 0, 58, 0
5, 425280, Note_on_c, 0, 46, 0
5, 425280, Note_on_c, 0, 41, 93
5, 425280, Note_on_c, 0, 53, 93
5, 425520, Note_on_c, 0, 53, 0
5, 425520, Note_on_c, 0, 41, 0
5, 425520, Note_on_c, 0, 46, 93
5, 425520, Note_on_c, 0, 58, 93
5, 425760, Note_on_c, 0, 58, 0
5, 425760, Note_on_c, 0, 46, 0
5, 425760, Note_on_c, 0, 41, 93
5, 425760, Note_on_c, 0, 53, 93
5, 426000, Note_on_c, 0, 53, 0
5, 426000, Note_on_c, 0, 41, 0
5, 426000, Note_on_c, 0, 46, 93
5, 426000, Note_on_c, 0, 58, 93
5, 426240, Note_on_c, 0, 58, 0
5, 426240, Note_on_c, 0, 46, 0
5, 426240, Note_on_c, 0, 41, 93
5, 426240, Note_on_c, 0, 53, 93
5, 426480, Note_on_c, 0, 53, 0
5, 426480, Note_on_c, 0, 41, 0
5, 426480, Control_c, 0, 64, 127
5, 426480, Note_on_c, 0, 46, 93
5, 426480, Note_on_c, 0, 58, 93
5, 426720, Note_on_c, 0, 58, 0
5, 426720, Note_on_c, 0, 46, 0
5, 426960, Control_c, 0, 64, 0
5, 427920, Note_on_c, 0, 46, 93
5, 427920, Note_on_c, 0, 53, 93
5, 427920, Note_on_c, 0, 58, 93
5, 427920, Note_on_c, 0, 62, 93
5, 428640, Note_on_c, 0, 62, 0
5, 428640, Note_on_c, 0, 46, 0
5, 428640, Note_on_c, 0, 53, 0
5, 428640, Note_on_c, 0, 58, 0
5, 429360, Note_on_c, 0, 46, 93
5, 429360, Note_on_c, 0, 53, 93
5, 429360, Note_on_c, 0, 58, 93
5, 429360, Note_on_c, 0, 62, 93
5, 430080, Note_on_c, 0, 62, 0
5, 430080, Note_on_c, 0, 46, 0
5, 430080, Note_on_c, 0, 53, 0
5, 430080, Note_on_c, 0, 58, 0
5, 430800, Control_c, 0, 64, 127
5, 430800, Note_on_c, 0, 46, 93
5, 430800, Note_on_c, 0, 53, 93
5, 430800, Note_on_c, 0, 58, 93
5, 430800, Note_on_c, 0, 62, 93
5, 431280, Note_on_c, 0, 62, 0
5, 431280, Note_on_c, 0, 46, 0
5, 431280, Note_on_c, 0, 53, 0
5, 431280, Note_on_c, 0, 58, 0
5, 431280, Note_on_c, 0, 46, 93
5, 431280, Note_on_c, 0, 53, 93
5, 431280, Note_on_c, 0, 58, 93
5, 431280, Note_on_c, 0, 62, 93
5, 431760, Note_on_c, 0, 62, 0
5, 431760, Note_on_c, 0, 46, 0
5, 431760, Note_on_c, 0, 53, 0
5, 431760, Note_on_c, 0, 58, 0
5, 431760, Note_on_c, 0, 46, 93
5, 431760, Note_on_c, 0, 53, 93
5, 431760, Note_on_c, 0, 58, 93
5, 431760, Note_on_c, 0, 62, 93
5, 432240, Note_on_c, 0, 62, 0
5, 432240, Note_on_c, 0, 46, 0
5, 432240, Note_on_c, 0, 53, 0
5, 432240, Note_on_c, 0, 58, 0
5, 432240, Note_on_c, 0, 34, 119
5, 432240, Note_on_c, 0, 46, 119
5, 434160, Control_c, 0, 64, 0
5, 436080, Note_on_c, 0, 46, 0
5, 436080, Note_on_c, 0, 34, 0
5, 436080, End_track
0, 0, End_of_file
