0, 0, Header, 1, 5, 480
1, 0, Start_track
1, 0, Title_t, "tchaikovsky concerto no2 mv2"
1, 0, Copyright_t, "Adaptation for Disklavier pianos, by: Robert C. Kuhmann (c) 2012."
1, 0, Text_t, "Seq. (c) by: Segundo G. Yogore,  2007,  dody@pldtdsl.net\012"
1, 0, Time_signature, 3, 2, 24, 8
1, 0, Key_signature, 2, "major"
1, 0, Tempo, 750000
1, 24720, Tempo, 779221
1, 24960, Tempo, 810811
1, 25200, Tempo, 845070
1, 25440, Tempo, 895522
1, 25680, Tempo, 937500
1, 25920, Tempo, 983607
1, 26160, Tempo, 1034483
1, 26400, Tempo, 1111111
1, 27360, Tempo, 750000
1, 63360, Time_signature, 4, 2, 24, 8
1, 63600, Tempo, 779221
1, 63840, Tempo, 810811
1, 64080, Tempo, 845070
1, 64320, Tempo, 895522
1, 64560, Tempo, 937500
1, 64800, Tempo, 983607
1, 65040, Tempo, 1034483
1, 65280, Time_signature, 9, 3, 12, 8
1, 65280, Tempo, 517241
1, 71760, Tempo, 500000
1, 112800, Time_signature, 3, 2, 24, 8
1, 112800, Tempo, 750000
1, 117120, Time_signature, 4, 2, 24, 8
1, 119040, Time_signature, 3, 2, 24, 8
1, 168000, Time_signature, 4, 2, 24, 8
1, 169920, Time_signature, 3, 2, 24, 8
1, 172800, Time_signature, 5, 3, 12, 8
1, 174000, Time_signature, 3, 2, 24, 8
1, 176880, Time_signature, 7, 5, 3, 8
1, 177300, Time_signature, 3, 2, 24, 8
1, 180180, Time_signature, 2, 2, 24, 8
1, 181140, Time_signature, 4, 2, 24, 8
1, 183060, Time_signature, 3, 2, 24, 8
1, 226260, Time_signature, 7, 2, 24, 8
1, 226260, End_track
2, 0, Start_track
2, 0, Title_t, "Grand Piano"
2, 0, Program_c, 0, 0
2, 0, Control_c, 0, 7, 115
2, 0, Control_c, 0, 10, 86
2, 12000, Control_c, 0, 64, 127
2, 12000, Note_on_c, 0, 59, 67
2, 12480, Note_on_c, 0, 59, 0
2, 12480, Note_on_c, 0, 61, 67
2, 12720, Note_on_c, 0, 61, 0
2, 12720, Note_on_c, 0, 63, 67
2, 12960, Note_on_c, 0, 63, 0
2, 12960, Note_on_c, 0, 64, 67
2, 13200, Note_on_c, 0, 64, 0
2, 13200, Note_on_c, 0, 66, 67
2, 13440, Note_on_c, 0, 66, 0
2, 13440, Note_on_c, 0, 67, 67
2, 13680, Note_on_c, 0, 67, 0
2, 13680, Note_on_c, 0, 63, 67
2, 13920, Note_on_c, 0, 63, 0
2, 13920, Note_on_c, 0, 64, 67
2, 14160, Note_on_c, 0, 64, 0
2, 14160, Control_c, 0, 64, 0
2, 14160, Note_on_c, 0, 66, 67
2, 14400, Note_on_c, 0, 66, 0
2, 14400, Note_on_c, 0, 67, 80
2, 14640, Note_on_c, 0, 67, 0
2, 14640, Note_on_c, 0, 69, 80
2, 14880, Note_on_c, 0, 69, 0
2, 14880, Note_on_c, 0, 71, 106
2, 16080, Note_on_c, 0, 71, 0
2, 16080, Note_on_c, 0, 71, 80
2, 16320, Note_on_c, 0, 71, 0
2, 16320, Note_on_c, 0, 73, 80
2, 16560, Note_on_c, 0, 73, 0
2, 16560, Note_on_c, 0, 74, 80
2, 16800, Note_on_c, 0, 74, 0
2, 16800, Note_on_c, 0, 62, 80
2, 17040, Note_on_c, 0, 62, 0
2, 17040, Note_on_c, 0, 64, 80
2, 17280, Note_on_c, 0, 64, 0
2, 17280, Note_on_c, 0, 66, 80
2, 18000, Note_on_c, 0, 66, 0
2, 18000, Control_c, 0, 64, 127
2, 18000, Note_on_c, 0, 66, 80
2, 18240, Note_on_c, 0, 66, 0
2, 18240, Note_on_c, 0, 73, 80
2, 18480, Note_on_c, 0, 73, 0
2, 18480, Note_on_c, 0, 71, 80
2, 18720, Note_on_c, 0, 71, 0
2, 18720, Note_on_c, 0, 69, 80
2, 18960, Note_on_c, 0, 69, 0
2, 18960, Note_on_c, 0, 67, 80
2, 19200, Note_on_c, 0, 67, 0
2, 19200, Note_on_c, 0, 66, 80
2, 19440, Note_on_c, 0, 66, 0
2, 19440, Note_on_c, 0, 67, 80
2, 19680, Note_on_c, 0, 67, 0
2, 19680, Note_on_c, 0, 59, 80
2, 19920, Note_on_c, 0, 59, 0
2, 19920, Control_c, 0, 64, 0
2, 19920, Note_on_c, 0, 62, 80
2, 20160, Note_on_c, 0, 62, 0
2, 20160, Note_on_c, 0, 66, 93
2, 21600, Note_on_c, 0, 66, 0
2, 21600, Note_on_c, 0, 64, 67
2, 23280, Note_on_c, 0, 64, 0
2, 23280, Control_c, 0, 64, 127
2, 23280, Note_on_c, 0, 56, 67
2, 23327, Note_on_c, 0, 56, 0
2, 23520, Note_on_c, 0, 57, 67
2, 23567, Note_on_c, 0, 57, 0
2, 23760, Note_on_c, 0, 59, 67
2, 23807, Note_on_c, 0, 59, 0
2, 24000, Note_on_c, 0, 60, 67
2, 24047, Note_on_c, 0, 60, 0
2, 24240, Control_c, 0, 64, 0
2, 24240, Note_on_c, 0, 61, 67
2, 24287, Note_on_c, 0, 61, 0
2, 24480, Control_c, 0, 64, 127
2, 24480, Note_on_c, 0, 62, 80
2, 24960, Note_on_c, 0, 62, 0
2, 24960, Note_on_c, 0, 63, 80
2, 25920, Note_on_c, 0, 63, 0
2, 25920, Note_on_c, 0, 64, 67
2, 26880, Note_on_c, 0, 64, 0
2, 26880, Control_c, 0, 64, 0
2, 26880, Note_on_c, 0, 65, 67
2, 27360, Note_on_c, 0, 65, 0
2, 27360, Note_on_c, 0, 66, 67
2, 28800, Note_on_c, 0, 66, 0
2, 28800, Note_on_c, 0, 67, 67
2, 30240, Note_on_c, 0, 67, 0
2, 30240, Control_c, 0, 64, 127
2, 30240, Note_on_c, 0, 69, 67
2, 30600, Note_on_c, 0, 69, 0
2, 30600, Note_on_c, 0, 71, 67
2, 30720, Note_on_c, 0, 71, 0
2, 30720, Note_on_c, 0, 69, 67
2, 31200, Note_on_c, 0, 69, 0
2, 31200, Note_on_c, 0, 64, 67
2, 31680, Note_on_c, 0, 64, 0
2, 31680, Control_c, 0, 64, 0
2, 31680, Note_on_c, 0, 66, 67
2, 32640, Note_on_c, 0, 66, 0
2, 33120, Note_on_c, 0, 69, 67
2, 34560, Note_on_c, 0, 69, 0
2, 34560, Note_on_c, 0, 71, 80
2, 36000, Note_on_c, 0, 71, 0
2, 36000, Control_c, 0, 64, 127
2, 36000, Note_on_c, 0, 73, 80
2, 36360, Note_on_c, 0, 73, 0
2, 36360, Note_on_c, 0, 74, 80
2, 36480, Note_on_c, 0, 74, 0
2, 36480, Note_on_c, 0, 73, 80
2, 36960, Note_on_c, 0, 73, 0
2, 36960, Note_on_c, 0, 68, 80
2, 37440, Note_on_c, 0, 68, 0
2, 37440, Control_c, 0, 64, 0
2, 37440, Note_on_c, 0, 69, 80
2, 37920, Note_on_c, 0, 69, 0
2, 37920, Note_on_c, 0, 71, 93
2, 38640, Note_on_c, 0, 71, 0
2, 38640, Note_on_c, 0, 66, 67
2, 38880, Note_on_c, 0, 66, 0
2, 38880, Note_on_c, 0, 69, 67
2, 39600, Note_on_c, 0, 69, 0
2, 39600, Note_on_c, 0, 67, 67
2, 39720, Note_on_c, 0, 67, 0
2, 39720, Note_on_c, 0, 67, 67
2, 39780, Note_on_c, 0, 67, 0
2, 39780, Note_on_c, 0, 69, 67
2, 39840, Note_on_c, 0, 69, 0
2, 39840, Note_on_c, 0, 67, 67
2, 40200, Note_on_c, 0, 67, 0
2, 40200, Note_on_c, 0, 66, 67
2, 40320, Note_on_c, 0, 66, 0
2, 40320, Note_on_c, 0, 64, 67
2, 41760, Note_on_c, 0, 64, 0
2, 41760, Note_on_c, 0, 62, 67
2, 41760, Note_on_c, 0, 66, 67
2, 42240, Note_on_c, 0, 66, 0
2, 42240, Note_on_c, 0, 62, 0
2, 42240, Note_on_c, 0, 61, 67
2, 42240, Note_on_c, 0, 69, 67
2, 42720, Note_on_c, 0, 69, 0
2, 42720, Note_on_c, 0, 61, 0
2, 42720, Note_on_c, 0, 59, 80
2, 42720, Note_on_c, 0, 74, 80
2, 43200, Note_on_c, 0, 74, 0
2, 43200, Note_on_c, 0, 59, 0
2, 43200, Note_on_c, 0, 57, 80
2, 43200, Note_on_c, 0, 78, 80
2, 43520, Note_on_c, 0, 78, 0
2, 43520, Note_on_c, 0, 57, 0
2, 43520, Note_on_c, 0, 76, 80
2, 43680, Note_on_c, 0, 76, 0
2, 43680, Note_on_c, 0, 59, 80
2, 43680, Note_on_c, 0, 67, 80
2, 44160, Note_on_c, 0, 59, 0
2, 44160, Note_on_c, 0, 61, 67
2, 44640, Note_on_c, 0, 61, 0
2, 44640, Note_on_c, 0, 67, 0
2, 44640, Note_on_c, 0, 62, 67
2, 44640, Note_on_c, 0, 66, 67
2, 45120, Note_on_c, 0, 66, 0
2, 45120, Note_on_c, 0, 62, 0
2, 45120, Note_on_c, 0, 61, 67
2, 45120, Note_on_c, 0, 69, 67
2, 45600, Note_on_c, 0, 69, 0
2, 45600, Note_on_c, 0, 61, 0
2, 45600, Note_on_c, 0, 59, 80
2, 45600, Note_on_c, 0, 74, 80
2, 46080, Note_on_c, 0, 74, 0
2, 46080, Note_on_c, 0, 59, 0
2, 46080, Note_on_c, 0, 57, 80
2, 46080, Note_on_c, 0, 78, 80
2, 46400, Note_on_c, 0, 78, 0
2, 46400, Note_on_c, 0, 57, 0
2, 46400, Note_on_c, 0, 76, 80
2, 46560, Note_on_c, 0, 76, 0
2, 46560, Note_on_c, 0, 59, 80
2, 46560, Note_on_c, 0, 67, 80
2, 47040, Note_on_c, 0, 59, 0
2, 47040, Note_on_c, 0, 61, 67
2, 47520, Note_on_c, 0, 61, 0
2, 47520, Note_on_c, 0, 67, 0
2, 47520, Note_on_c, 0, 66, 67
2, 48000, Note_on_c, 0, 66, 0
2, 48000, Note_on_c, 0, 74, 93
2, 48720, Note_on_c, 0, 74, 0
2, 48720, Note_on_c, 0, 70, 67
2, 48960, Note_on_c, 0, 70, 0
2, 48960, Note_on_c, 0, 62, 67
2, 48960, Note_on_c, 0, 71, 67
2, 49440, Note_on_c, 0, 71, 0
2, 49440, Note_on_c, 0, 62, 0
2, 50400, Control_c, 0, 64, 127
2, 50400, Note_on_c, 0, 52, 93
2, 50400, Note_on_c, 0, 64, 93
2, 50880, Note_on_c, 0, 64, 0
2, 50880, Note_on_c, 0, 52, 0
2, 50880, Note_on_c, 0, 54, 93
2, 50880, Note_on_c, 0, 66, 93
2, 51120, Note_on_c, 0, 66, 0
2, 51120, Note_on_c, 0, 54, 0
2, 51120, Note_on_c, 0, 55, 93
2, 51120, Note_on_c, 0, 67, 93
2, 51360, Note_on_c, 0, 67, 0
2, 51360, Note_on_c, 0, 55, 0
2, 51360, Note_on_c, 0, 57, 93
2, 51360, Note_on_c, 0, 69, 93
2, 51600, Note_on_c, 0, 69, 0
2, 51600, Note_on_c, 0, 57, 0
2, 51600, Note_on_c, 0, 59, 93
2, 51600, Note_on_c, 0, 71, 93
2, 51840, Note_on_c, 0, 71, 0
2, 51840, Note_on_c, 0, 59, 0
2, 51840, Note_on_c, 0, 61, 106
2, 51840, Note_on_c, 0, 73, 106
2, 52080, Note_on_c, 0, 73, 0
2, 52080, Note_on_c, 0, 61, 0
2, 52080, Note_on_c, 0, 62, 106
2, 52080, Note_on_c, 0, 74, 106
2, 52320, Note_on_c, 0, 74, 0
2, 52320, Note_on_c, 0, 62, 0
2, 52320, Note_on_c, 0, 64, 106
2, 52320, Note_on_c, 0, 76, 106
2, 52560, Note_on_c, 0, 76, 0
2, 52560, Note_on_c, 0, 64, 0
2, 52560, Note_on_c, 0, 66, 106
2, 52560, Note_on_c, 0, 78, 106
2, 52800, Note_on_c, 0, 78, 0
2, 52800, Note_on_c, 0, 66, 0
2, 52800, Note_on_c, 0, 67, 106
2, 52800, Note_on_c, 0, 76, 106
2, 52800, Note_on_c, 0, 79, 106
2, 53160, Note_on_c, 0, 79, 0
2, 53160, Note_on_c, 0, 76, 0
2, 53160, Note_on_c, 0, 67, 0
2, 53160, Control_c, 0, 64, 0
2, 53160, Note_on_c, 0, 67, 80
2, 53160, Note_on_c, 0, 79, 80
2, 53280, Note_on_c, 0, 79, 0
2, 53280, Note_on_c, 0, 67, 0
2, 53280, Note_on_c, 0, 67, 106
2, 53280, Note_on_c, 0, 76, 106
2, 53280, Note_on_c, 0, 79, 106
2, 54240, Note_on_c, 0, 79, 0
2, 54240, Note_on_c, 0, 76, 0
2, 54240, Note_on_c, 0, 67, 0
2, 54480, Note_on_c, 0, 52, 93
2, 54480, Note_on_c, 0, 64, 93
2, 54720, Note_on_c, 0, 64, 0
2, 54720, Note_on_c, 0, 52, 0
2, 54720, Control_c, 0, 64, 127
2, 54720, Note_on_c, 0, 52, 93
2, 54720, Note_on_c, 0, 64, 93
2, 55200, Note_on_c, 0, 64, 0
2, 55200, Note_on_c, 0, 52, 0
2, 55200, Note_on_c, 0, 54, 93
2, 55200, Note_on_c, 0, 66, 93
2, 55440, Note_on_c, 0, 66, 0
2, 55440, Note_on_c, 0, 54, 0
2, 55440, Note_on_c, 0, 55, 93
2, 55440, Note_on_c, 0, 67, 93
2, 55680, Note_on_c, 0, 67, 0
2, 55680, Note_on_c, 0, 55, 0
2, 55680, Note_on_c, 0, 57, 93
2, 55680, Note_on_c, 0, 69, 93
2, 55920, Note_on_c, 0, 69, 0
2, 55920, Note_on_c, 0, 57, 0
2, 55920, Note_on_c, 0, 59, 93
2, 55920, Note_on_c, 0, 71, 93
2, 56160, Note_on_c, 0, 71, 0
2, 56160, Note_on_c, 0, 59, 0
2, 56160, Note_on_c, 0, 61, 106
2, 56160, Note_on_c, 0, 73, 106
2, 56400, Note_on_c, 0, 73, 0
2, 56400, Note_on_c, 0, 61, 0
2, 56400, Note_on_c, 0, 62, 106
2, 56400, Note_on_c, 0, 74, 106
2, 56640, Note_on_c, 0, 74, 0
2, 56640, Note_on_c, 0, 62, 0
2, 56640, Note_on_c, 0, 64, 106
2, 56640, Note_on_c, 0, 76, 106
2, 56880, Note_on_c, 0, 76, 0
2, 56880, Note_on_c, 0, 64, 0
2, 56880, Note_on_c, 0, 66, 106
2, 56880, Note_on_c, 0, 78, 106
2, 57120, Note_on_c, 0, 78, 0
2, 57120, Note_on_c, 0, 66, 0
2, 57120, Note_on_c, 0, 67, 106
2, 57120, Note_on_c, 0, 73, 106
2, 57120, Note_on_c, 0, 76, 106
2, 57120, Note_on_c, 0, 79, 106
2, 57480, Note_on_c, 0, 79, 0
2, 57480, Note_on_c, 0, 67, 0
2, 57480, Note_on_c, 0, 73, 0
2, 57480, Note_on_c, 0, 76, 0
2, 57480, Control_c, 0, 64, 0
2, 57480, Note_on_c, 0, 67, 80
2, 57480, Note_on_c, 0, 79, 80
2, 57600, Note_on_c, 0, 79, 0
2, 57600, Note_on_c, 0, 67, 0
2, 57600, Control_c, 0, 64, 127
2, 57600, Note_on_c, 0, 67, 106
2, 57600, Note_on_c, 0, 71, 106
2, 57600, Note_on_c, 0, 74, 106
2, 57600, Note_on_c, 0, 79, 106
2, 58239, Note_on_c, 0, 79, 0
2, 58239, Note_on_c, 0, 67, 0
2, 58239, Note_on_c, 0, 71, 0
2, 58239, Note_on_c, 0, 74, 0
2, 58239, Note_on_c, 0, 66, 80
2, 58239, Note_on_c, 0, 78, 80
2, 58400, Note_on_c, 0, 78, 0
2, 58400, Note_on_c, 0, 66, 0
2, 58400, Note_on_c, 0, 64, 80
2, 58400, Note_on_c, 0, 76, 80
2, 58560, Note_on_c, 0, 76, 0
2, 58560, Note_on_c, 0, 64, 0
2, 58560, Note_on_c, 0, 62, 80
2, 58560, Note_on_c, 0, 74, 80
2, 58719, Note_on_c, 0, 74, 0
2, 58719, Note_on_c, 0, 62, 0
2, 58719, Note_on_c, 0, 71, 80
2, 58880, Note_on_c, 0, 71, 0
2, 58880, Control_c, 0, 64, 0
2, 58880, Note_on_c, 0, 66, 80
2, 59040, Note_on_c, 0, 66, 0
2, 59040, Note_on_c, 0, 62, 67
2, 59520, Note_on_c, 0, 62, 0
2, 59520, Control_c, 0, 64, 127
2, 59520, Note_on_c, 0, 74, 67
2, 60159, Note_on_c, 0, 74, 0
2, 60159, Note_on_c, 0, 62, 67
2, 60320, Note_on_c, 0, 62, 0
2, 60320, Note_on_c, 0, 60, 67
2, 60480, Note_on_c, 0, 60, 0
2, 60480, Note_on_c, 0, 59, 67
2, 60960, Note_on_c, 0, 59, 0
2, 60960, Control_c, 0, 64, 0
2, 60960, Note_on_c, 0, 71, 67
2, 61440, Note_on_c, 0, 71, 0
2, 61920, Control_c, 0, 64, 127
2, 61920, Note_on_c, 0, 59, 67
2, 62160, Note_on_c, 0, 59, 0
2, 62160, Note_on_c, 0, 61, 67
2, 62400, Note_on_c, 0, 61, 0
2, 62400, Note_on_c, 0, 62, 67
2, 62640, Note_on_c, 0, 62, 0
2, 62640, Note_on_c, 0, 64, 80
2, 62880, Note_on_c, 0, 64, 0
2, 62880, Note_on_c, 0, 66, 80
2, 63120, Note_on_c, 0, 66, 0
2, 63120, Note_on_c, 0, 67, 80
2, 63360, Note_on_c, 0, 67, 0
2, 63360, Control_c, 0, 64, 0
2, 63360, Note_on_c, 0, 58, 80
2, 63360, Note_on_c, 0, 66, 80
2, 63600, Note_on_c, 0, 66, 0
2, 63600, Note_on_c, 0, 58, 0
2, 63600, Note_on_c, 0, 59, 80
2, 63600, Note_on_c, 0, 62, 80
2, 63840, Note_on_c, 0, 62, 0
2, 63840, Note_on_c, 0, 59, 0
2, 63840, Note_on_c, 0, 56, 80
2, 63840, Note_on_c, 0, 62, 80
2, 63840, Note_on_c, 0, 66, 80
2, 65040, Note_on_c, 0, 66, 0
2, 65040, Note_on_c, 0, 62, 0
2, 65040, Note_on_c, 0, 56, 0
2, 65040, Note_on_c, 0, 64, 67
2, 65280, Note_on_c, 0, 64, 0
2, 65400, Control_c, 0, 64, 127
2, 65400, Note_on_c, 0, 57, 54
2, 65520, Note_on_c, 0, 57, 0
2, 65520, Note_on_c, 0, 62, 54
2, 65520, Note_on_c, 0, 66, 54
2, 65520, Note_on_c, 0, 69, 54
2, 65640, Note_on_c, 0, 69, 0
2, 65640, Note_on_c, 0, 66, 0
2, 65640, Note_on_c, 0, 62, 0
2, 65640, Note_on_c, 0, 57, 54
2, 65760, Note_on_c, 0, 57, 0
2, 65880, Note_on_c, 0, 62, 54
2, 65880, Note_on_c, 0, 66, 54
2, 65880, Note_on_c, 0, 71, 54
2, 66000, Note_on_c, 0, 71, 0
2, 66000, Note_on_c, 0, 66, 0
2, 66000, Note_on_c, 0, 62, 0
2, 66120, Note_on_c, 0, 66, 54
2, 66120, Note_on_c, 0, 69, 54
2, 66120, Note_on_c, 0, 73, 54
2, 66240, Note_on_c, 0, 73, 0
2, 66240, Note_on_c, 0, 69, 0
2, 66240, Note_on_c, 0, 66, 0
2, 66360, Note_on_c, 0, 66, 54
2, 66360, Note_on_c, 0, 69, 54
2, 66360, Note_on_c, 0, 74, 54
2, 66480, Note_on_c, 0, 74, 0
2, 66480, Note_on_c, 0, 69, 0
2, 66480, Note_on_c, 0, 66, 0
2, 66600, Note_on_c, 0, 69, 54
2, 66600, Note_on_c, 0, 76, 54
2, 66720, Note_on_c, 0, 76, 0
2, 66720, Note_on_c, 0, 69, 0
2, 66840, Note_on_c, 0, 69, 54
2, 66840, Note_on_c, 0, 74, 54
2, 66840, Note_on_c, 0, 78, 54
2, 66960, Note_on_c, 0, 78, 0
2, 66960, Note_on_c, 0, 74, 0
2, 66960, Note_on_c, 0, 69, 0
2, 67080, Note_on_c, 0, 74, 54
2, 67080, Note_on_c, 0, 79, 54
2, 67200, Note_on_c, 0, 79, 0
2, 67200, Note_on_c, 0, 74, 0
2, 67320, Control_c, 0, 64, 0
2, 67320, Note_on_c, 0, 74, 54
2, 67320, Note_on_c, 0, 81, 54
2, 67440, Note_on_c, 0, 81, 0
2, 67440, Note_on_c, 0, 74, 0
2, 67560, Control_c, 0, 64, 127
2, 67560, Note_on_c, 0, 59, 54
2, 67680, Note_on_c, 0, 59, 0
2, 67680, Note_on_c, 0, 64, 54
2, 67680, Note_on_c, 0, 67, 54
2, 67680, Note_on_c, 0, 71, 54
2, 67800, Note_on_c, 0, 71, 0
2, 67800, Note_on_c, 0, 67, 0
2, 67800, Note_on_c, 0, 64, 0
2, 67800, Note_on_c, 0, 59, 54
2, 67920, Note_on_c, 0, 59, 0
2, 68040, Note_on_c, 0, 64, 54
2, 68040, Note_on_c, 0, 67, 54
2, 68040, Note_on_c, 0, 73, 54
2, 68160, Note_on_c, 0, 73, 0
2, 68160, Note_on_c, 0, 67, 0
2, 68160, Note_on_c, 0, 64, 0
2, 68280, Note_on_c, 0, 67, 54
2, 68280, Note_on_c, 0, 71, 54
2, 68280, Note_on_c, 0, 75, 54
2, 68400, Note_on_c, 0, 75, 0
2, 68400, Note_on_c, 0, 71, 0
2, 68400, Note_on_c, 0, 67, 0
2, 68520, Note_on_c, 0, 67, 54
2, 68520, Note_on_c, 0, 71, 54
2, 68520, Note_on_c, 0, 76, 54
2, 68640, Note_on_c, 0, 76, 0
2, 68640, Note_on_c, 0, 71, 0
2, 68640, Note_on_c, 0, 67, 0
2, 68760, Note_on_c, 0, 71, 54
2, 68760, Note_on_c, 0, 78, 54
2, 68880, Note_on_c, 0, 78, 0
2, 68880, Note_on_c, 0, 71, 0
2, 69000, Note_on_c, 0, 71, 54
2, 69000, Note_on_c, 0, 76, 54
2, 69000, Note_on_c, 0, 79, 54
2, 69120, Note_on_c, 0, 79, 0
2, 69120, Note_on_c, 0, 76, 0
2, 69120, Note_on_c, 0, 71, 0
2, 69240, Note_on_c, 0, 76, 54
2, 69240, Note_on_c, 0, 81, 54
2, 69360, Note_on_c, 0, 81, 0
2, 69360, Note_on_c, 0, 76, 0
2, 69431, Control_c, 0, 64, 0
2, 69480, Control_c, 0, 64, 0
2, 69480, Note_on_c, 0, 76, 54
2, 69480, Note_on_c, 0, 83, 54
2, 69600, Note_on_c, 0, 83, 0
2, 69600, Note_on_c, 0, 76, 0
2, 69600, Control_c, 0, 64, 127
2, 69720, Note_on_c, 0, 57, 54
2, 69840, Note_on_c, 0, 57, 0
2, 69840, Note_on_c, 0, 64, 54
2, 69840, Note_on_c, 0, 67, 54
2, 69840, Note_on_c, 0, 69, 54
2, 69960, Note_on_c, 0, 69, 0
2, 69960, Note_on_c, 0, 67, 0
2, 69960, Note_on_c, 0, 64, 0
2, 69960, Note_on_c, 0, 57, 54
2, 70080, Note_on_c, 0, 57, 0
2, 70200, Note_on_c, 0, 64, 54
2, 70200, Note_on_c, 0, 67, 54
2, 70200, Note_on_c, 0, 71, 54
2, 70320, Note_on_c, 0, 71, 0
2, 70320, Note_on_c, 0, 67, 0
2, 70320, Note_on_c, 0, 64, 0
2, 70440, Note_on_c, 0, 67, 54
2, 70440, Note_on_c, 0, 69, 54
2, 70440, Note_on_c, 0, 73, 54
2, 70560, Note_on_c, 0, 73, 0
2, 70560, Note_on_c, 0, 69, 0
2, 70560, Note_on_c, 0, 67, 0
2, 70680, Note_on_c, 0, 67, 54
2, 70680, Note_on_c, 0, 69, 54
2, 70680, Note_on_c, 0, 74, 54
2, 70800, Note_on_c, 0, 74, 0
2, 70800, Note_on_c, 0, 69, 0
2, 70800, Note_on_c, 0, 67, 0
2, 70920, Note_on_c, 0, 67, 54
2, 70920, Note_on_c, 0, 69, 54
2, 70920, Note_on_c, 0, 75, 54
2, 71040, Note_on_c, 0, 75, 0
2, 71040, Note_on_c, 0, 69, 0
2, 71040, Note_on_c, 0, 67, 0
2, 71160, Note_on_c, 0, 67, 54
2, 71160, Note_on_c, 0, 73, 54
2, 71160, Note_on_c, 0, 76, 54
2, 71280, Note_on_c, 0, 76, 0
2, 71280, Note_on_c, 0, 73, 0
2, 71280, Note_on_c, 0, 67, 0
2, 71400, Note_on_c, 0, 73, 54
2, 71400, Note_on_c, 0, 78, 54
2, 71520, Note_on_c, 0, 78, 0
2, 71520, Note_on_c, 0, 73, 0
2, 71640, Control_c, 0, 64, 0
2, 71640, Note_on_c, 0, 73, 54
2, 71640, Note_on_c, 0, 79, 54
2, 71760, Note_on_c, 0, 79, 0
2, 71760, Note_on_c, 0, 73, 0
2, 71880, Control_c, 0, 64, 127
2, 71880, Note_on_c, 0, 57, 54
2, 72000, Note_on_c, 0, 57, 0
2, 72000, Note_on_c, 0, 62, 54
2, 72000, Note_on_c, 0, 66, 54
2, 72000, Note_on_c, 0, 69, 54
2, 72120, Note_on_c, 0, 69, 0
2, 72120, Note_on_c, 0, 66, 0
2, 72120, Note_on_c, 0, 62, 0
2, 72120, Note_on_c, 0, 57, 54
2, 72240, Note_on_c, 0, 57, 0
2, 72360, Note_on_c, 0, 62, 54
2, 72360, Note_on_c, 0, 66, 54
2, 72360, Note_on_c, 0, 71, 54
2, 72480, Note_on_c, 0, 71, 0
2, 72480, Note_on_c, 0, 66, 0
2, 72480, Note_on_c, 0, 62, 0
2, 72600, Note_on_c, 0, 66, 54
2, 72600, Note_on_c, 0, 69, 54
2, 72600, Note_on_c, 0, 73, 54
2, 72720, Note_on_c, 0, 73, 0
2, 72720, Note_on_c, 0, 69, 0
2, 72720, Note_on_c, 0, 66, 0
2, 72840, Note_on_c, 0, 66, 54
2, 72840, Note_on_c, 0, 69, 54
2, 72840, Note_on_c, 0, 74, 54
2, 72960, Note_on_c, 0, 74, 0
2, 72960, Note_on_c, 0, 69, 0
2, 72960, Note_on_c, 0, 66, 0
2, 73080, Note_on_c, 0, 69, 54
2, 73080, Note_on_c, 0, 76, 54
2, 73200, Note_on_c, 0, 76, 0
2, 73200, Note_on_c, 0, 69, 0
2, 73320, Note_on_c, 0, 69, 54
2, 73320, Note_on_c, 0, 74, 54
2, 73320, Note_on_c, 0, 78, 54
2, 73440, Note_on_c, 0, 78, 0
2, 73440, Note_on_c, 0, 74, 0
2, 73440, Note_on_c, 0, 69, 0
2, 73560, Note_on_c, 0, 74, 54
2, 73560, Note_on_c, 0, 79, 54
2, 73680, Note_on_c, 0, 79, 0
2, 73680, Note_on_c, 0, 74, 0
2, 73800, Control_c, 0, 64, 0
2, 73800, Note_on_c, 0, 74, 54
2, 73800, Note_on_c, 0, 81, 54
2, 73920, Note_on_c, 0, 81, 0
2, 73920, Note_on_c, 0, 74, 0
2, 74040, Control_c, 0, 64, 127
2, 74040, Note_on_c, 0, 57, 67
2, 74160, Note_on_c, 0, 57, 0
2, 74160, Note_on_c, 0, 62, 67
2, 74160, Note_on_c, 0, 66, 67
2, 74160, Note_on_c, 0, 69, 67
2, 74280, Note_on_c, 0, 69, 0
2, 74280, Note_on_c, 0, 66, 0
2, 74280, Note_on_c, 0, 62, 0
2, 74280, Note_on_c, 0, 57, 67
2, 74400, Note_on_c, 0, 57, 0
2, 74520, Note_on_c, 0, 62, 67
2, 74520, Note_on_c, 0, 66, 67
2, 74520, Note_on_c, 0, 71, 67
2, 74640, Note_on_c, 0, 71, 0
2, 74640, Note_on_c, 0, 66, 0
2, 74640, Note_on_c, 0, 62, 0
2, 74760, Note_on_c, 0, 66, 67
2, 74760, Note_on_c, 0, 69, 67
2, 74760, Note_on_c, 0, 73, 67
2, 74880, Note_on_c, 0, 73, 0
2, 74880, Note_on_c, 0, 69, 0
2, 74880, Note_on_c, 0, 66, 0
2, 75000, Note_on_c, 0, 66, 67
2, 75000, Note_on_c, 0, 69, 67
2, 75000, Note_on_c, 0, 74, 67
2, 75120, Note_on_c, 0, 74, 0
2, 75120, Note_on_c, 0, 69, 0
2, 75120, Note_on_c, 0, 66, 0
2, 75240, Note_on_c, 0, 69, 67
2, 75240, Note_on_c, 0, 76, 67
2, 75360, Note_on_c, 0, 76, 0
2, 75360, Note_on_c, 0, 69, 0
2, 75480, Note_on_c, 0, 69, 67
2, 75480, Note_on_c, 0, 74, 67
2, 75480, Note_on_c, 0, 78, 67
2, 75600, Note_on_c, 0, 78, 0
2, 75600, Note_on_c, 0, 74, 0
2, 75600, Note_on_c, 0, 69, 0
2, 75720, Note_on_c, 0, 74, 67
2, 75720, Note_on_c, 0, 79, 67
2, 75840, Note_on_c, 0, 79, 0
2, 75840, Note_on_c, 0, 74, 0
2, 75960, Control_c, 0, 64, 0
2, 75960, Note_on_c, 0, 74, 67
2, 75960, Note_on_c, 0, 81, 67
2, 76080, Note_on_c, 0, 81, 0
2, 76080, Note_on_c, 0, 74, 0
2, 76080, Control_c, 0, 64, 127
2, 76200, Note_on_c, 0, 59, 67
2, 76320, Note_on_c, 0, 59, 0
2, 76320, Note_on_c, 0, 62, 67
2, 76320, Note_on_c, 0, 66, 67
2, 76320, Note_on_c, 0, 71, 67
2, 76440, Note_on_c, 0, 71, 0
2, 76440, Note_on_c, 0, 66, 0
2, 76440, Note_on_c, 0, 62, 0
2, 76440, Note_on_c, 0, 59, 67
2, 76560, Note_on_c, 0, 59, 0
2, 76680, Note_on_c, 0, 66, 67
2, 76680, Note_on_c, 0, 71, 67
2, 76680, Note_on_c, 0, 73, 67
2, 76800, Note_on_c, 0, 73, 0
2, 76800, Note_on_c, 0, 71, 0
2, 76800, Note_on_c, 0, 66, 0
2, 76920, Note_on_c, 0, 66, 67
2, 76920, Note_on_c, 0, 71, 67
2, 76920, Note_on_c, 0, 74, 67
2, 77040, Note_on_c, 0, 74, 0
2, 77040, Note_on_c, 0, 71, 0
2, 77040, Note_on_c, 0, 66, 0
2, 77160, Note_on_c, 0, 71, 67
2, 77160, Note_on_c, 0, 74, 67
2, 77160, Note_on_c, 0, 76, 67
2, 77280, Note_on_c, 0, 76, 0
2, 77280, Note_on_c, 0, 74, 0
2, 77280, Note_on_c, 0, 71, 0
2, 77400, Note_on_c, 0, 71, 67
2, 77400, Note_on_c, 0, 74, 67
2, 77400, Note_on_c, 0, 78, 67
2, 77520, Note_on_c, 0, 78, 0
2, 77520, Note_on_c, 0, 74, 0
2, 77520, Note_on_c, 0, 71, 0
2, 77640, Note_on_c, 0, 74, 67
2, 77640, Note_on_c, 0, 78, 67
2, 77640, Note_on_c, 0, 80, 67
2, 77760, Note_on_c, 0, 80, 0
2, 77760, Note_on_c, 0, 78, 0
2, 77760, Note_on_c, 0, 74, 0
2, 77880, Note_on_c, 0, 74, 67
2, 77880, Note_on_c, 0, 78, 67
2, 77880, Note_on_c, 0, 82, 67
2, 78000, Note_on_c, 0, 82, 0
2, 78000, Note_on_c, 0, 78, 0
2, 78000, Note_on_c, 0, 74, 0
2, 78120, Control_c, 0, 64, 0
2, 78120, Note_on_c, 0, 74, 67
2, 78120, Note_on_c, 0, 78, 67
2, 78120, Note_on_c, 0, 83, 67
2, 78240, Note_on_c, 0, 83, 0
2, 78240, Note_on_c, 0, 78, 0
2, 78240, Note_on_c, 0, 74, 0
2, 78240, Control_c, 0, 64, 127
2, 78360, Note_on_c, 0, 61, 80
2, 78480, Note_on_c, 0, 61, 0
2, 78480, Note_on_c, 0, 65, 80
2, 78480, Note_on_c, 0, 67, 80
2, 78480, Note_on_c, 0, 71, 80
2, 78480, Note_on_c, 0, 73, 80
2, 78600, Note_on_c, 0, 73, 0
2, 78600, Note_on_c, 0, 65, 0
2, 78600, Note_on_c, 0, 67, 0
2, 78600, Note_on_c, 0, 71, 0
2, 78600, Note_on_c, 0, 61, 80
2, 78720, Note_on_c, 0, 61, 0
2, 78840, Note_on_c, 0, 65, 80
2, 78840, Note_on_c, 0, 67, 80
2, 78840, Note_on_c, 0, 71, 80
2, 78840, Note_on_c, 0, 74, 80
2, 78960, Note_on_c, 0, 74, 0
2, 78960, Note_on_c, 0, 65, 0
2, 78960, Note_on_c, 0, 67, 0
2, 78960, Note_on_c, 0, 71, 0
2, 79080, Note_on_c, 0, 65, 80
2, 79080, Note_on_c, 0, 67, 80
2, 79080, Note_on_c, 0, 71, 80
2, 79080, Note_on_c, 0, 75, 80
2, 79200, Note_on_c, 0, 75, 0
2, 79200, Note_on_c, 0, 65, 0
2, 79200, Note_on_c, 0, 67, 0
2, 79200, Note_on_c, 0, 71, 0
2, 79320, Note_on_c, 0, 71, 80
2, 79320, Note_on_c, 0, 73, 80
2, 79320, Note_on_c, 0, 77, 80
2, 79440, Note_on_c, 0, 77, 0
2, 79440, Note_on_c, 0, 73, 0
2, 79440, Note_on_c, 0, 71, 0
2, 79560, Note_on_c, 0, 71, 80
2, 79560, Note_on_c, 0, 73, 80
2, 79560, Note_on_c, 0, 78, 80
2, 79680, Note_on_c, 0, 78, 0
2, 79680, Note_on_c, 0, 73, 0
2, 79680, Note_on_c, 0, 71, 0
2, 79800, Note_on_c, 0, 71, 80
2, 79800, Note_on_c, 0, 73, 80
2, 79800, Note_on_c, 0, 77, 80
2, 79800, Note_on_c, 0, 80, 80
2, 79920, Note_on_c, 0, 80, 0
2, 79920, Note_on_c, 0, 71, 0
2, 79920, Note_on_c, 0, 73, 0
2, 79920, Note_on_c, 0, 77, 0
2, 80040, Note_on_c, 0, 73, 80
2, 80040, Note_on_c, 0, 77, 80
2, 80040, Note_on_c, 0, 81, 80
2, 80160, Note_on_c, 0, 81, 0
2, 80160, Note_on_c, 0, 77, 0
2, 80160, Note_on_c, 0, 73, 0
2, 80280, Control_c, 0, 64, 0
2, 80280, Note_on_c, 0, 73, 80
2, 80280, Note_on_c, 0, 77, 80
2, 80280, Note_on_c, 0, 83, 80
2, 80400, Note_on_c, 0, 83, 0
2, 80400, Note_on_c, 0, 77, 0
2, 80400, Note_on_c, 0, 73, 0
2, 80520, Note_on_c, 0, 66, 80
2, 80520, Note_on_c, 0, 69, 80
2, 80520, Note_on_c, 0, 73, 80
2, 80640, Note_on_c, 0, 73, 0
2, 80640, Note_on_c, 0, 69, 0
2, 80640, Note_on_c, 0, 66, 0
2, 80760, Note_on_c, 0, 69, 80
2, 80760, Note_on_c, 0, 73, 80
2, 80760, Note_on_c, 0, 78, 80
2, 80880, Note_on_c, 0, 78, 0
2, 80880, Note_on_c, 0, 73, 0
2, 80880, Note_on_c, 0, 69, 0
2, 81000, Note_on_c, 0, 73, 80
2, 81000, Note_on_c, 0, 78, 80
2, 81000, Note_on_c, 0, 81, 80
2, 81120, Note_on_c, 0, 81, 0
2, 81120, Note_on_c, 0, 78, 0
2, 81120, Note_on_c, 0, 73, 0
2, 81120, Control_c, 0, 64, 127
2, 81240, Note_on_c, 0, 59, 80
2, 81360, Note_on_c, 0, 59, 0
2, 81360, Note_on_c, 0, 66, 80
2, 81360, Note_on_c, 0, 69, 80
2, 81360, Note_on_c, 0, 71, 80
2, 81480, Note_on_c, 0, 71, 0
2, 81480, Note_on_c, 0, 69, 0
2, 81480, Note_on_c, 0, 66, 0
2, 81480, Note_on_c, 0, 59, 80
2, 81600, Note_on_c, 0, 59, 0
2, 81720, Note_on_c, 0, 66, 80
2, 81720, Note_on_c, 0, 69, 80
2, 81720, Note_on_c, 0, 73, 80
2, 81840, Note_on_c, 0, 73, 0
2, 81840, Note_on_c, 0, 69, 0
2, 81840, Note_on_c, 0, 66, 0
2, 81960, Note_on_c, 0, 66, 80
2, 81960, Note_on_c, 0, 69, 80
2, 81960, Note_on_c, 0, 75, 80
2, 82080, Note_on_c, 0, 75, 0
2, 82080, Note_on_c, 0, 69, 0
2, 82080, Note_on_c, 0, 66, 0
2, 82200, Note_on_c, 0, 69, 80
2, 82200, Note_on_c, 0, 71, 80
2, 82200, Note_on_c, 0, 76, 80
2, 82320, Note_on_c, 0, 76, 0
2, 82320, Note_on_c, 0, 71, 0
2, 82320, Note_on_c, 0, 69, 0
2, 82440, Control_c, 0, 64, 0
2, 82440, Note_on_c, 0, 69, 80
2, 82440, Note_on_c, 0, 71, 80
2, 82440, Note_on_c, 0, 78, 80
2, 82560, Note_on_c, 0, 78, 0
2, 82560, Note_on_c, 0, 71, 0
2, 82560, Note_on_c, 0, 69, 0
2, 82560, Control_c, 0, 64, 127
2, 82680, Note_on_c, 0, 55, 80
2, 82800, Note_on_c, 0, 55, 0
2, 82800, Note_on_c, 0, 59, 80
2, 82800, Note_on_c, 0, 64, 80
2, 82800, Note_on_c, 0, 67, 80
2, 82920, Note_on_c, 0, 67, 0
2, 82920, Note_on_c, 0, 64, 0
2, 82920, Note_on_c, 0, 59, 0
2, 82920, Note_on_c, 0, 55, 80
2, 83040, Note_on_c, 0, 55, 0
2, 83160, Note_on_c, 0, 64, 80
2, 83160, Note_on_c, 0, 67, 80
2, 83160, Note_on_c, 0, 69, 80
2, 83280, Note_on_c, 0, 69, 0
2, 83280, Note_on_c, 0, 67, 0
2, 83280, Note_on_c, 0, 64, 0
2, 83400, Note_on_c, 0, 64, 80
2, 83400, Note_on_c, 0, 67, 80
2, 83400, Note_on_c, 0, 71, 80
2, 83520, Note_on_c, 0, 71, 0
2, 83520, Note_on_c, 0, 67, 0
2, 83520, Note_on_c, 0, 64, 0
2, 83640, Note_on_c, 0, 64, 67
2, 83640, Note_on_c, 0, 67, 67
2, 83640, Note_on_c, 0, 73, 67
2, 83760, Note_on_c, 0, 73, 0
2, 83760, Note_on_c, 0, 67, 0
2, 83760, Note_on_c, 0, 64, 0
2, 83880, Note_on_c, 0, 67, 67
2, 83880, Note_on_c, 0, 71, 67
2, 83880, Note_on_c, 0, 75, 67
2, 84000, Note_on_c, 0, 75, 0
2, 84000, Note_on_c, 0, 71, 0
2, 84000, Note_on_c, 0, 67, 0
2, 84120, Note_on_c, 0, 67, 67
2, 84120, Note_on_c, 0, 71, 67
2, 84120, Note_on_c, 0, 76, 67
2, 84240, Note_on_c, 0, 76, 0
2, 84240, Note_on_c, 0, 71, 0
2, 84240, Note_on_c, 0, 67, 0
2, 84360, Note_on_c, 0, 67, 67
2, 84360, Note_on_c, 0, 71, 67
2, 84360, Note_on_c, 0, 75, 67
2, 84480, Note_on_c, 0, 75, 0
2, 84480, Note_on_c, 0, 71, 0
2, 84480, Note_on_c, 0, 67, 0
2, 84600, Control_c, 0, 64, 0
2, 84600, Note_on_c, 0, 67, 67
2, 84600, Note_on_c, 0, 71, 67
2, 84600, Note_on_c, 0, 76, 67
2, 84720, Note_on_c, 0, 76, 0
2, 84720, Note_on_c, 0, 71, 0
2, 84720, Note_on_c, 0, 67, 0
2, 84720, Control_c, 0, 64, 127
2, 84840, Note_on_c, 0, 57, 54
2, 84960, Note_on_c, 0, 57, 0
2, 84960, Note_on_c, 0, 64, 54
2, 84960, Note_on_c, 0, 67, 54
2, 84960, Note_on_c, 0, 69, 54
2, 85080, Note_on_c, 0, 69, 0
2, 85080, Note_on_c, 0, 67, 0
2, 85080, Note_on_c, 0, 64, 0
2, 85080, Note_on_c, 0, 57, 54
2, 85200, Note_on_c, 0, 57, 0
2, 85320, Note_on_c, 0, 64, 54
2, 85320, Note_on_c, 0, 67, 54
2, 85320, Note_on_c, 0, 71, 54
2, 85440, Note_on_c, 0, 71, 0
2, 85440, Note_on_c, 0, 67, 0
2, 85440, Note_on_c, 0, 64, 0
2, 85560, Note_on_c, 0, 64, 54
2, 85560, Note_on_c, 0, 67, 54
2, 85560, Note_on_c, 0, 73, 54
2, 85680, Note_on_c, 0, 73, 0
2, 85680, Note_on_c, 0, 67, 0
2, 85680, Note_on_c, 0, 64, 0
2, 85800, Note_on_c, 0, 67, 54
2, 85800, Note_on_c, 0, 73, 54
2, 85800, Note_on_c, 0, 76, 54
2, 85920, Note_on_c, 0, 76, 0
2, 85920, Note_on_c, 0, 73, 0
2, 85920, Note_on_c, 0, 67, 0
2, 86040, Note_on_c, 0, 73, 54
2, 86040, Note_on_c, 0, 78, 54
2, 86160, Note_on_c, 0, 78, 0
2, 86160, Note_on_c, 0, 73, 0
2, 86280, Note_on_c, 0, 73, 54
2, 86280, Note_on_c, 0, 76, 54
2, 86280, Note_on_c, 0, 79, 54
2, 86400, Note_on_c, 0, 79, 0
2, 86400, Note_on_c, 0, 76, 0
2, 86400, Note_on_c, 0, 73, 0
2, 86520, Note_on_c, 0, 73, 54
2, 86520, Note_on_c, 0, 76, 54
2, 86520, Note_on_c, 0, 80, 54
2, 86640, Note_on_c, 0, 80, 0
2, 86640, Note_on_c, 0, 76, 0
2, 86640, Note_on_c, 0, 73, 0
2, 86760, Control_c, 0, 64, 0
2, 86760, Note_on_c, 0, 73, 54
2, 86760, Note_on_c, 0, 76, 54
2, 86760, Note_on_c, 0, 81, 54
2, 86880, Note_on_c, 0, 81, 0
2, 86880, Note_on_c, 0, 76, 0
2, 86880, Note_on_c, 0, 73, 0
2, 87000, Control_c, 0, 64, 127
2, 87000, Note_on_c, 0, 57, 54
2, 87000, Note_on_c, 0, 62, 54
2, 87000, Note_on_c, 0, 66, 54
2, 87120, Note_on_c, 0, 66, 0
2, 87120, Note_on_c, 0, 62, 0
2, 87120, Note_on_c, 0, 57, 0
2, 87240, Note_on_c, 0, 66, 54
2, 87360, Note_on_c, 0, 66, 0
2, 87360, Note_on_c, 0, 69, 54
2, 87360, Note_on_c, 0, 74, 54
2, 87360, Note_on_c, 0, 78, 54
2, 87480, Note_on_c, 0, 78, 0
2, 87480, Note_on_c, 0, 74, 0
2, 87480, Note_on_c, 0, 69, 0
2, 87480, Note_on_c, 0, 66, 54
2, 87600, Note_on_c, 0, 66, 0
2, 87600, Control_c, 0, 64, 0
2, 87720, Control_c, 0, 64, 127
2, 87720, Note_on_c, 0, 57, 67
2, 87720, Note_on_c, 0, 64, 67
2, 87840, Note_on_c, 0, 64, 0
2, 87840, Note_on_c, 0, 57, 0
2, 87960, Note_on_c, 0, 64, 67
2, 88080, Note_on_c, 0, 64, 0
2, 88080, Note_on_c, 0, 69, 67
2, 88080, Note_on_c, 0, 76, 67
2, 88200, Note_on_c, 0, 76, 0
2, 88200, Note_on_c, 0, 69, 0
2, 88200, Note_on_c, 0, 64, 67
2, 88320, Note_on_c, 0, 64, 0
2, 88320, Control_c, 0, 64, 0
2, 88440, Control_c, 0, 64, 127
2, 88440, Note_on_c, 0, 54, 80
2, 88440, Note_on_c, 0, 59, 80
2, 88440, Note_on_c, 0, 62, 80
2, 88560, Note_on_c, 0, 62, 0
2, 88560, Note_on_c, 0, 59, 0
2, 88560, Note_on_c, 0, 54, 0
2, 88680, Note_on_c, 0, 62, 80
2, 88800, Note_on_c, 0, 62, 0
2, 88800, Note_on_c, 0, 66, 80
2, 88800, Note_on_c, 0, 71, 80
2, 88800, Note_on_c, 0, 74, 80
2, 88920, Note_on_c, 0, 74, 0
2, 88920, Note_on_c, 0, 71, 0
2, 88920, Note_on_c, 0, 66, 0
2, 88920, Control_c, 0, 64, 0
2, 88920, Note_on_c, 0, 62, 80
2, 89040, Note_on_c, 0, 62, 0
2, 89160, Control_c, 0, 64, 127
2, 89160, Note_on_c, 0, 55, 80
2, 89160, Note_on_c, 0, 61, 80
2, 89280, Note_on_c, 0, 61, 0
2, 89280, Note_on_c, 0, 55, 0
2, 89400, Note_on_c, 0, 61, 80
2, 89520, Note_on_c, 0, 61, 0
2, 89520, Note_on_c, 0, 67, 80
2, 89520, Note_on_c, 0, 73, 80
2, 89640, Note_on_c, 0, 73, 0
2, 89640, Note_on_c, 0, 67, 0
2, 89640, Note_on_c, 0, 61, 80
2, 89760, Note_on_c, 0, 61, 0
2, 89760, Control_c, 0, 64, 0
2, 89880, Control_c, 0, 64, 127
2, 89880, Note_on_c, 0, 55, 67
2, 89880, Note_on_c, 0, 62, 67
2, 90000, Note_on_c, 0, 62, 0
2, 90000, Note_on_c, 0, 55, 0
2, 90120, Note_on_c, 0, 62, 67
2, 90240, Note_on_c, 0, 62, 0
2, 90240, Note_on_c, 0, 67, 67
2, 90240, Note_on_c, 0, 74, 67
2, 90360, Note_on_c, 0, 74, 0
2, 90360, Note_on_c, 0, 67, 0
2, 90360, Note_on_c, 0, 62, 67
2, 90480, Note_on_c, 0, 62, 0
2, 90480, Control_c, 0, 64, 0
2, 90600, Control_c, 0, 64, 127
2, 90600, Note_on_c, 0, 55, 54
2, 90600, Note_on_c, 0, 57, 54
2, 90600, Note_on_c, 0, 64, 54
2, 90720, Note_on_c, 0, 64, 0
2, 90720, Note_on_c, 0, 57, 0
2, 90720, Note_on_c, 0, 55, 0
2, 90840, Note_on_c, 0, 64, 54
2, 90960, Note_on_c, 0, 64, 0
2, 90960, Note_on_c, 0, 67, 54
2, 90960, Note_on_c, 0, 69, 54
2, 90960, Note_on_c, 0, 76, 54
2, 91080, Note_on_c, 0, 76, 0
2, 91080, Note_on_c, 0, 69, 0
2, 91080, Note_on_c, 0, 67, 0
2, 91080, Control_c, 0, 64, 0
2, 91080, Note_on_c, 0, 64, 54
2, 91200, Note_on_c, 0, 64, 0
2, 91320, Control_c, 0, 64, 127
2, 91320, Note_on_c, 0, 57, 54
2, 91320, Note_on_c, 0, 62, 54
2, 91320, Note_on_c, 0, 66, 54
2, 91440, Note_on_c, 0, 66, 0
2, 91440, Note_on_c, 0, 62, 0
2, 91440, Note_on_c, 0, 57, 0
2, 91560, Note_on_c, 0, 66, 54
2, 91680, Note_on_c, 0, 66, 0
2, 91680, Note_on_c, 0, 69, 54
2, 91680, Note_on_c, 0, 74, 54
2, 91680, Note_on_c, 0, 78, 54
2, 91800, Note_on_c, 0, 78, 0
2, 91800, Note_on_c, 0, 74, 0
2, 91800, Note_on_c, 0, 69, 0
2, 91800, Note_on_c, 0, 66, 54
2, 91920, Note_on_c, 0, 66, 0
2, 91920, Control_c, 0, 64, 0
2, 92040, Control_c, 0, 64, 127
2, 92040, Note_on_c, 0, 57, 67
2, 92040, Note_on_c, 0, 64, 67
2, 92160, Note_on_c, 0, 64, 0
2, 92160, Note_on_c, 0, 57, 0
2, 92280, Note_on_c, 0, 64, 67
2, 92400, Note_on_c, 0, 64, 0
2, 92400, Note_on_c, 0, 69, 67
2, 92400, Note_on_c, 0, 76, 67
2, 92520, Note_on_c, 0, 76, 0
2, 92520, Note_on_c, 0, 69, 0
2, 92520, Note_on_c, 0, 64, 67
2, 92640, Note_on_c, 0, 64, 0
2, 92640, Control_c, 0, 64, 0
2, 92760, Control_c, 0, 64, 127
2, 92760, Note_on_c, 0, 54, 80
2, 92760, Note_on_c, 0, 59, 80
2, 92760, Note_on_c, 0, 62, 80
2, 92880, Note_on_c, 0, 62, 0
2, 92880, Note_on_c, 0, 59, 0
2, 92880, Note_on_c, 0, 54, 0
2, 93000, Note_on_c, 0, 62, 80
2, 93120, Note_on_c, 0, 62, 0
2, 93120, Note_on_c, 0, 66, 80
2, 93120, Note_on_c, 0, 71, 80
2, 93120, Note_on_c, 0, 74, 80
2, 93240, Note_on_c, 0, 74, 0
2, 93240, Note_on_c, 0, 71, 0
2, 93240, Note_on_c, 0, 66, 0
2, 93240, Control_c, 0, 64, 0
2, 93240, Note_on_c, 0, 62, 80
2, 93360, Note_on_c, 0, 62, 0
2, 93480, Control_c, 0, 64, 127
2, 93480, Note_on_c, 0, 55, 80
2, 93480, Note_on_c, 0, 61, 80
2, 93600, Note_on_c, 0, 61, 0
2, 93600, Note_on_c, 0, 55, 0
2, 93720, Note_on_c, 0, 61, 80
2, 93840, Note_on_c, 0, 61, 0
2, 93840, Note_on_c, 0, 67, 80
2, 93840, Note_on_c, 0, 73, 80
2, 93960, Note_on_c, 0, 73, 0
2, 93960, Note_on_c, 0, 67, 0
2, 93960, Note_on_c, 0, 61, 80
2, 94080, Note_on_c, 0, 61, 0
2, 94080, Control_c, 0, 64, 0
2, 94200, Control_c, 0, 64, 127
2, 94200, Note_on_c, 0, 55, 67
2, 94200, Note_on_c, 0, 62, 67
2, 94320, Note_on_c, 0, 62, 0
2, 94320, Note_on_c, 0, 55, 0
2, 94440, Note_on_c, 0, 62, 67
2, 94560, Note_on_c, 0, 62, 0
2, 94560, Note_on_c, 0, 67, 67
2, 94560, Note_on_c, 0, 74, 67
2, 94680, Note_on_c, 0, 74, 0
2, 94680, Note_on_c, 0, 67, 0
2, 94680, Note_on_c, 0, 62, 67
2, 94800, Note_on_c, 0, 62, 0
2, 94800, Control_c, 0, 64, 0
2, 94920, Control_c, 0, 64, 127
2, 94920, Note_on_c, 0, 55, 54
2, 94920, Note_on_c, 0, 57, 54
2, 94920, Note_on_c, 0, 64, 54
2, 95040, Note_on_c, 0, 64, 0
2, 95040, Note_on_c, 0, 57, 0
2, 95040, Note_on_c, 0, 55, 0
2, 95160, Note_on_c, 0, 64, 54
2, 95280, Note_on_c, 0, 64, 0
2, 95280, Note_on_c, 0, 67, 54
2, 95280, Note_on_c, 0, 69, 54
2, 95280, Note_on_c, 0, 76, 54
2, 95400, Note_on_c, 0, 76, 0
2, 95400, Note_on_c, 0, 69, 0
2, 95400, Note_on_c, 0, 67, 0
2, 95400, Control_c, 0, 64, 0
2, 95400, Note_on_c, 0, 64, 54
2, 95520, Note_on_c, 0, 64, 0
2, 95640, Control_c, 0, 64, 127
2, 95640, Note_on_c, 0, 57, 54
2, 95640, Note_on_c, 0, 62, 54
2, 95640, Note_on_c, 0, 66, 54
2, 95760, Note_on_c, 0, 66, 0
2, 95760, Note_on_c, 0, 62, 0
2, 95760, Note_on_c, 0, 57, 0
2, 95880, Note_on_c, 0, 66, 54
2, 96000, Note_on_c, 0, 66, 0
2, 96000, Note_on_c, 0, 69, 54
2, 96000, Note_on_c, 0, 74, 54
2, 96000, Note_on_c, 0, 78, 54
2, 96120, Note_on_c, 0, 78, 0
2, 96120, Note_on_c, 0, 74, 0
2, 96120, Note_on_c, 0, 69, 0
2, 96120, Note_on_c, 0, 66, 54
2, 96240, Note_on_c, 0, 66, 0
2, 96240, Control_c, 0, 64, 0
2, 96360, Control_c, 0, 64, 127
2, 96360, Note_on_c, 0, 60, 67
2, 96360, Note_on_c, 0, 62, 67
2, 96360, Note_on_c, 0, 69, 67
2, 96480, Note_on_c, 0, 69, 0
2, 96480, Note_on_c, 0, 62, 0
2, 96480, Note_on_c, 0, 60, 0
2, 96600, Note_on_c, 0, 69, 67
2, 96720, Note_on_c, 0, 69, 0
2, 96720, Note_on_c, 0, 72, 67
2, 96720, Note_on_c, 0, 74, 67
2, 96720, Note_on_c, 0, 81, 67
2, 96840, Note_on_c, 0, 81, 0
2, 96840, Note_on_c, 0, 74, 0
2, 96840, Note_on_c, 0, 72, 0
2, 96840, Note_on_c, 0, 69, 67
2, 96960, Note_on_c, 0, 69, 0
2, 96960, Control_c, 0, 64, 0
2, 97080, Control_c, 0, 64, 127
2, 97080, Note_on_c, 0, 60, 80
2, 97080, Note_on_c, 0, 62, 80
2, 97080, Note_on_c, 0, 66, 80
2, 97200, Note_on_c, 0, 66, 0
2, 97200, Note_on_c, 0, 62, 0
2, 97200, Note_on_c, 0, 60, 0
2, 97320, Note_on_c, 0, 66, 80
2, 97440, Note_on_c, 0, 66, 0
2, 97440, Note_on_c, 0, 72, 80
2, 97440, Note_on_c, 0, 74, 80
2, 97440, Note_on_c, 0, 78, 80
2, 97560, Note_on_c, 0, 78, 0
2, 97560, Note_on_c, 0, 74, 0
2, 97560, Note_on_c, 0, 72, 0
2, 97560, Control_c, 0, 64, 0
2, 97560, Note_on_c, 0, 66, 80
2, 97680, Note_on_c, 0, 66, 0
2, 97680, Control_c, 0, 64, 127
2, 97800, Note_on_c, 0, 67, 80
2, 97800, Note_on_c, 0, 71, 80
2, 97800, Note_on_c, 0, 74, 80
2, 97800, Note_on_c, 0, 79, 80
2, 97920, Note_on_c, 0, 79, 0
2, 97920, Note_on_c, 0, 67, 0
2, 97920, Note_on_c, 0, 71, 0
2, 97920, Note_on_c, 0, 74, 0
2, 98040, Note_on_c, 0, 79, 80
2, 98040, Note_on_c, 0, 83, 80
2, 98040, Note_on_c, 0, 86, 80
2, 98160, Note_on_c, 0, 86, 0
2, 98160, Note_on_c, 0, 83, 0
2, 98160, Note_on_c, 0, 79, 0
2, 98280, Note_on_c, 0, 74, 80
2, 98280, Note_on_c, 0, 79, 80
2, 98280, Note_on_c, 0, 83, 80
2, 98400, Note_on_c, 0, 83, 0
2, 98400, Note_on_c, 0, 79, 0
2, 98400, Note_on_c, 0, 74, 0
2, 98520, Note_on_c, 0, 71, 67
2, 98520, Note_on_c, 0, 74, 67
2, 98520, Note_on_c, 0, 79, 67
2, 98640, Note_on_c, 0, 79, 0
2, 98640, Note_on_c, 0, 74, 0
2, 98640, Note_on_c, 0, 71, 0
2, 98760, Note_on_c, 0, 74, 67
2, 98760, Note_on_c, 0, 79, 67
2, 98760, Note_on_c, 0, 83, 67
2, 98880, Note_on_c, 0, 83, 0
2, 98880, Note_on_c, 0, 79, 0
2, 98880, Note_on_c, 0, 74, 0
2, 99000, Control_c, 0, 64, 0
2, 99000, Note_on_c, 0, 71, 67
2, 99000, Note_on_c, 0, 74, 67
2, 99000, Note_on_c, 0, 79, 67
2, 99120, Note_on_c, 0, 79, 0
2, 99120, Note_on_c, 0, 74, 0
2, 99120, Note_on_c, 0, 71, 0
2, 99120, Control_c, 0, 64, 127
2, 99240, Note_on_c, 0, 71, 54
2, 99240, Note_on_c, 0, 75, 54
2, 99240, Note_on_c, 0, 81, 54
2, 99360, Note_on_c, 0, 81, 0
2, 99360, Note_on_c, 0, 75, 0
2, 99360, Note_on_c, 0, 71, 0
2, 99480, Note_on_c, 0, 69, 54
2, 99480, Note_on_c, 0, 71, 54
2, 99480, Note_on_c, 0, 75, 54
2, 99600, Note_on_c, 0, 75, 0
2, 99600, Note_on_c, 0, 71, 0
2, 99600, Note_on_c, 0, 69, 0
2, 99720, Control_c, 0, 64, 0
2, 99720, Note_on_c, 0, 63, 54
2, 99720, Note_on_c, 0, 69, 54
2, 99720, Note_on_c, 0, 71, 54
2, 99840, Note_on_c, 0, 71, 0
2, 99840, Note_on_c, 0, 69, 0
2, 99840, Note_on_c, 0, 63, 0
2, 99840, Control_c, 0, 64, 127
2, 99960, Note_on_c, 0, 64, 67
2, 100080, Note_on_c, 0, 64, 0
2, 100080, Note_on_c, 0, 67, 67
2, 100080, Note_on_c, 0, 71, 67
2, 100080, Note_on_c, 0, 76, 67
2, 100200, Note_on_c, 0, 76, 0
2, 100200, Note_on_c, 0, 71, 0
2, 100200, Note_on_c, 0, 67, 0
2, 100200, Note_on_c, 0, 64, 67
2, 100320, Note_on_c, 0, 64, 0
2, 100440, Note_on_c, 0, 55, 67
2, 100560, Note_on_c, 0, 55, 0
2, 100560, Note_on_c, 0, 59, 67
2, 100560, Note_on_c, 0, 64, 67
2, 100560, Note_on_c, 0, 67, 67
2, 100680, Note_on_c, 0, 67, 0
2, 100680, Note_on_c, 0, 64, 0
2, 100680, Note_on_c, 0, 59, 0
2, 100680, Note_on_c, 0, 55, 67
2, 100800, Note_on_c, 0, 55, 0
2, 100920, Note_on_c, 0, 64, 67
2, 100920, Note_on_c, 0, 67, 67
2, 100920, Note_on_c, 0, 71, 67
2, 101040, Note_on_c, 0, 71, 0
2, 101040, Note_on_c, 0, 67, 0
2, 101040, Note_on_c, 0, 64, 0
2, 101160, Note_on_c, 0, 67, 67
2, 101160, Note_on_c, 0, 71, 67
2, 101160, Note_on_c, 0, 76, 67
2, 101280, Note_on_c, 0, 76, 0
2, 101280, Note_on_c, 0, 71, 0
2, 101280, Note_on_c, 0, 67, 0
2, 101400, Note_on_c, 0, 71, 67
2, 101400, Note_on_c, 0, 76, 67
2, 101400, Note_on_c, 0, 79, 67
2, 101520, Note_on_c, 0, 79, 0
2, 101520, Note_on_c, 0, 76, 0
2, 101520, Note_on_c, 0, 71, 0
2, 101640, Note_on_c, 0, 76, 67
2, 101640, Note_on_c, 0, 79, 67
2, 101640, Note_on_c, 0, 83, 67
2, 101760, Note_on_c, 0, 83, 0
2, 101760, Note_on_c, 0, 79, 0
2, 101760, Note_on_c, 0, 76, 0
2, 101880, Control_c, 0, 64, 0
2, 101880, Note_on_c, 0, 79, 67
2, 101880, Note_on_c, 0, 83, 67
2, 101880, Note_on_c, 0, 88, 67
2, 102000, Note_on_c, 0, 88, 0
2, 102000, Note_on_c, 0, 83, 0
2, 102000, Note_on_c, 0, 79, 0
2, 102000, Control_c, 0, 64, 127
2, 102120, Note_on_c, 0, 64, 67
2, 102240, Note_on_c, 0, 64, 0
2, 102240, Note_on_c, 0, 67, 67
2, 102240, Note_on_c, 0, 71, 67
2, 102240, Note_on_c, 0, 76, 67
2, 102360, Note_on_c, 0, 76, 0
2, 102360, Note_on_c, 0, 71, 0
2, 102360, Note_on_c, 0, 67, 0
2, 102360, Note_on_c, 0, 64, 67
2, 102480, Note_on_c, 0, 64, 0
2, 102600, Note_on_c, 0, 55, 67
2, 102720, Note_on_c, 0, 55, 0
2, 102720, Note_on_c, 0, 59, 67
2, 102720, Note_on_c, 0, 64, 67
2, 102720, Note_on_c, 0, 67, 67
2, 102840, Note_on_c, 0, 67, 0
2, 102840, Note_on_c, 0, 64, 0
2, 102840, Note_on_c, 0, 59, 0
2, 102840, Note_on_c, 0, 55, 67
2, 102960, Note_on_c, 0, 55, 0
2, 103080, Note_on_c, 0, 64, 67
2, 103080, Note_on_c, 0, 67, 67
2, 103080, Note_on_c, 0, 71, 67
2, 103200, Note_on_c, 0, 71, 0
2, 103200, Note_on_c, 0, 67, 0
2, 103200, Note_on_c, 0, 64, 0
2, 103320, Note_on_c, 0, 67, 67
2, 103320, Note_on_c, 0, 71, 67
2, 103320, Note_on_c, 0, 76, 67
2, 103440, Note_on_c, 0, 76, 0
2, 103440, Note_on_c, 0, 71, 0
2, 103440, Note_on_c, 0, 67, 0
2, 103560, Note_on_c, 0, 71, 67
2, 103560, Note_on_c, 0, 76, 67
2, 103560, Note_on_c, 0, 79, 67
2, 103680, Note_on_c, 0, 79, 0
2, 103680, Note_on_c, 0, 76, 0
2, 103680, Note_on_c, 0, 71, 0
2, 103800, Note_on_c, 0, 76, 67
2, 103800, Note_on_c, 0, 79, 67
2, 103800, Note_on_c, 0, 83, 67
2, 103920, Note_on_c, 0, 83, 0
2, 103920, Note_on_c, 0, 79, 0
2, 103920, Note_on_c, 0, 76, 0
2, 104040, Control_c, 0, 64, 0
2, 104040, Note_on_c, 0, 79, 67
2, 104040, Note_on_c, 0, 83, 67
2, 104040, Note_on_c, 0, 88, 67
2, 104160, Note_on_c, 0, 88, 0
2, 104160, Note_on_c, 0, 83, 0
2, 104160, Note_on_c, 0, 79, 0
2, 104280, Control_c, 0, 64, 127
2, 104280, Note_on_c, 0, 64, 80
2, 104400, Note_on_c, 0, 64, 0
2, 104400, Note_on_c, 0, 67, 80
2, 104400, Note_on_c, 0, 70, 80
2, 104400, Note_on_c, 0, 76, 80
2, 104520, Note_on_c, 0, 76, 0
2, 104520, Note_on_c, 0, 70, 0
2, 104520, Note_on_c, 0, 67, 0
2, 104520, Note_on_c, 0, 64, 80
2, 104640, Note_on_c, 0, 64, 0
2, 104760, Note_on_c, 0, 55, 80
2, 104880, Note_on_c, 0, 55, 0
2, 104880, Note_on_c, 0, 58, 80
2, 104880, Note_on_c, 0, 64, 80
2, 104880, Note_on_c, 0, 67, 80
2, 105000, Note_on_c, 0, 67, 0
2, 105000, Note_on_c, 0, 64, 0
2, 105000, Note_on_c, 0, 58, 0
2, 105000, Note_on_c, 0, 55, 80
2, 105120, Note_on_c, 0, 55, 0
2, 105240, Note_on_c, 0, 64, 80
2, 105240, Note_on_c, 0, 67, 80
2, 105240, Note_on_c, 0, 70, 80
2, 105360, Note_on_c, 0, 70, 0
2, 105360, Note_on_c, 0, 67, 0
2, 105360, Note_on_c, 0, 64, 0
2, 105480, Note_on_c, 0, 67, 80
2, 105480, Note_on_c, 0, 70, 80
2, 105480, Note_on_c, 0, 76, 80
2, 105600, Note_on_c, 0, 76, 0
2, 105600, Note_on_c, 0, 70, 0
2, 105600, Note_on_c, 0, 67, 0
2, 105720, Note_on_c, 0, 70, 80
2, 105720, Note_on_c, 0, 76, 80
2, 105720, Note_on_c, 0, 79, 80
2, 105840, Note_on_c, 0, 79, 0
2, 105840, Note_on_c, 0, 76, 0
2, 105840, Note_on_c, 0, 70, 0
2, 105960, Note_on_c, 0, 76, 80
2, 105960, Note_on_c, 0, 79, 80
2, 105960, Note_on_c, 0, 82, 80
2, 106080, Note_on_c, 0, 82, 0
2, 106080, Note_on_c, 0, 79, 0
2, 106080, Note_on_c, 0, 76, 0
2, 106200, Control_c, 0, 64, 0
2, 106200, Note_on_c, 0, 79, 80
2, 106200, Note_on_c, 0, 82, 80
2, 106200, Note_on_c, 0, 88, 80
2, 106320, Note_on_c, 0, 88, 0
2, 106320, Note_on_c, 0, 82, 0
2, 106320, Note_on_c, 0, 79, 0
2, 106320, Control_c, 0, 64, 127
2, 106440, Note_on_c, 0, 64, 80
2, 106560, Note_on_c, 0, 64, 0
2, 106560, Note_on_c, 0, 67, 80
2, 106560, Note_on_c, 0, 71, 80
2, 106560, Note_on_c, 0, 76, 80
2, 106680, Note_on_c, 0, 76, 0
2, 106680, Note_on_c, 0, 71, 0
2, 106680, Note_on_c, 0, 67, 0
2, 106680, Note_on_c, 0, 64, 80
2, 106800, Note_on_c, 0, 64, 0
2, 106920, Note_on_c, 0, 55, 80
2, 107040, Note_on_c, 0, 55, 0
2, 107040, Note_on_c, 0, 59, 80
2, 107040, Note_on_c, 0, 64, 80
2, 107040, Note_on_c, 0, 67, 80
2, 107160, Note_on_c, 0, 67, 0
2, 107160, Note_on_c, 0, 64, 0
2, 107160, Note_on_c, 0, 59, 0
2, 107160, Note_on_c, 0, 55, 80
2, 107280, Note_on_c, 0, 55, 0
2, 107400, Note_on_c, 0, 64, 80
2, 107400, Note_on_c, 0, 67, 80
2, 107400, Note_on_c, 0, 71, 80
2, 107520, Note_on_c, 0, 71, 0
2, 107520, Note_on_c, 0, 67, 0
2, 107520, Note_on_c, 0, 64, 0
2, 107640, Note_on_c, 0, 67, 80
2, 107640, Note_on_c, 0, 71, 80
2, 107640, Note_on_c, 0, 76, 80
2, 107760, Note_on_c, 0, 76, 0
2, 107760, Note_on_c, 0, 71, 0
2, 107760, Note_on_c, 0, 67, 0
2, 107880, Note_on_c, 0, 71, 80
2, 107880, Note_on_c, 0, 76, 80
2, 107880, Note_on_c, 0, 79, 80
2, 108000, Note_on_c, 0, 79, 0
2, 108000, Note_on_c, 0, 76, 0
2, 108000, Note_on_c, 0, 71, 0
2, 108120, Note_on_c, 0, 76, 80
2, 108120, Note_on_c, 0, 79, 80
2, 108120, Note_on_c, 0, 83, 80
2, 108240, Note_on_c, 0, 83, 0
2, 108240, Note_on_c, 0, 79, 0
2, 108240, Note_on_c, 0, 76, 0
2, 108360, Control_c, 0, 64, 0
2, 108360, Note_on_c, 0, 79, 80
2, 108360, Note_on_c, 0, 83, 80
2, 108360, Note_on_c, 0, 88, 80
2, 108480, Note_on_c, 0, 88, 0
2, 108480, Note_on_c, 0, 83, 0
2, 108480, Note_on_c, 0, 79, 0
2, 108480, Control_c, 0, 64, 127
2, 108600, Note_on_c, 0, 64, 80
2, 108720, Note_on_c, 0, 64, 0
2, 108720, Note_on_c, 0, 67, 80
2, 108720, Note_on_c, 0, 73, 80
2, 108720, Note_on_c, 0, 76, 80
2, 108840, Note_on_c, 0, 76, 0
2, 108840, Note_on_c, 0, 73, 0
2, 108840, Note_on_c, 0, 67, 0
2, 108840, Note_on_c, 0, 64, 80
2, 108960, Note_on_c, 0, 64, 0
2, 109080, Note_on_c, 0, 55, 80
2, 109200, Note_on_c, 0, 55, 0
2, 109200, Note_on_c, 0, 61, 80
2, 109200, Note_on_c, 0, 64, 80
2, 109200, Note_on_c, 0, 67, 80
2, 109320, Note_on_c, 0, 67, 0
2, 109320, Note_on_c, 0, 64, 0
2, 109320, Note_on_c, 0, 61, 0
2, 109320, Note_on_c, 0, 55, 80
2, 109440, Note_on_c, 0, 55, 0
2, 109560, Note_on_c, 0, 64, 80
2, 109560, Note_on_c, 0, 67, 80
2, 109560, Note_on_c, 0, 73, 80
2, 109680, Note_on_c, 0, 73, 0
2, 109680, Note_on_c, 0, 67, 0
2, 109680, Note_on_c, 0, 64, 0
2, 109800, Note_on_c, 0, 67, 80
2, 109800, Note_on_c, 0, 73, 80
2, 109800, Note_on_c, 0, 76, 80
2, 109920, Note_on_c, 0, 76, 0
2, 109920, Note_on_c, 0, 73, 0
2, 109920, Note_on_c, 0, 67, 0
2, 110040, Note_on_c, 0, 73, 80
2, 110040, Note_on_c, 0, 76, 80
2, 110040, Note_on_c, 0, 79, 80
2, 110160, Note_on_c, 0, 79, 0
2, 110160, Note_on_c, 0, 76, 0
2, 110160, Note_on_c, 0, 73, 0
2, 110280, Note_on_c, 0, 76, 80
2, 110280, Note_on_c, 0, 79, 80
2, 110280, Note_on_c, 0, 85, 80
2, 110400, Note_on_c, 0, 85, 0
2, 110400, Note_on_c, 0, 79, 0
2, 110400, Note_on_c, 0, 76, 0
2, 110520, Control_c, 0, 64, 0
2, 110520, Note_on_c, 0, 79, 80
2, 110520, Note_on_c, 0, 85, 80
2, 110520, Note_on_c, 0, 88, 80
2, 110640, Note_on_c, 0, 88, 0
2, 110640, Note_on_c, 0, 85, 0
2, 110640, Note_on_c, 0, 79, 0
2, 110640, Control_c, 0, 64, 127
2, 110760, Note_on_c, 0, 62, 93
2, 110880, Note_on_c, 0, 62, 0
2, 110880, Note_on_c, 0, 66, 93
2, 110880, Note_on_c, 0, 71, 93
2, 110880, Note_on_c, 0, 74, 93
2, 111000, Note_on_c, 0, 74, 0
2, 111000, Note_on_c, 0, 71, 0
2, 111000, Note_on_c, 0, 66, 0
2, 111000, Note_on_c, 0, 62, 93
2, 111120, Note_on_c, 0, 62, 0
2, 111240, Note_on_c, 0, 54, 93
2, 111360, Note_on_c, 0, 54, 0
2, 111360, Note_on_c, 0, 59, 93
2, 111360, Note_on_c, 0, 62, 93
2, 111360, Note_on_c, 0, 66, 93
2, 111480, Note_on_c, 0, 66, 0
2, 111480, Note_on_c, 0, 62, 0
2, 111480, Note_on_c, 0, 59, 0
2, 111480, Note_on_c, 0, 54, 93
2, 111600, Note_on_c, 0, 54, 0
2, 111720, Note_on_c, 0, 62, 93
2, 111720, Note_on_c, 0, 66, 93
2, 111720, Note_on_c, 0, 71, 93
2, 111840, Note_on_c, 0, 71, 0
2, 111840, Note_on_c, 0, 66, 0
2, 111840, Note_on_c, 0, 62, 0
2, 111960, Note_on_c, 0, 66, 93
2, 111960, Note_on_c, 0, 71, 93
2, 111960, Note_on_c, 0, 74, 93
2, 112080, Note_on_c, 0, 74, 0
2, 112080, Note_on_c, 0, 71, 0
2, 112080, Note_on_c, 0, 66, 0
2, 112200, Note_on_c, 0, 71, 93
2, 112200, Note_on_c, 0, 74, 93
2, 112200, Note_on_c, 0, 78, 93
2, 112320, Note_on_c, 0, 78, 0
2, 112320, Note_on_c, 0, 74, 0
2, 112320, Note_on_c, 0, 71, 0
2, 112440, Note_on_c, 0, 74, 93
2, 112440, Note_on_c, 0, 78, 93
2, 112440, Note_on_c, 0, 83, 93
2, 112560, Note_on_c, 0, 83, 0
2, 112560, Note_on_c, 0, 78, 0
2, 112560, Note_on_c, 0, 74, 0
2, 112680, Control_c, 0, 64, 0
2, 112680, Note_on_c, 0, 78, 93
2, 112680, Note_on_c, 0, 83, 93
2, 112680, Note_on_c, 0, 86, 93
2, 112710, Note_on_c, 0, 62, 93
2, 112740, Note_on_c, 0, 66, 93
2, 112770, Note_on_c, 0, 71, 93
2, 112800, Note_on_c, 0, 86, 0
2, 112800, Note_on_c, 0, 78, 0
2, 112800, Note_on_c, 0, 83, 0
2, 112800, Note_on_c, 0, 74, 80
2, 113280, Note_on_c, 0, 74, 0
2, 113280, Note_on_c, 0, 71, 0
2, 113280, Note_on_c, 0, 66, 0
2, 113280, Note_on_c, 0, 62, 0
2, 113670, Note_on_c, 0, 62, 80
2, 113700, Note_on_c, 0, 66, 80
2, 113730, Note_on_c, 0, 72, 80
2, 113760, Note_on_c, 0, 74, 80
2, 114000, Note_on_c, 0, 74, 0
2, 114000, Note_on_c, 0, 62, 0
2, 114000, Note_on_c, 0, 66, 0
2, 114000, Note_on_c, 0, 72, 0
2, 114150, Note_on_c, 0, 59, 80
2, 114180, Note_on_c, 0, 62, 80
2, 114210, Note_on_c, 0, 67, 80
2, 114240, Note_on_c, 0, 71, 80
2, 114720, Note_on_c, 0, 71, 0
2, 114720, Note_on_c, 0, 59, 0
2, 114720, Note_on_c, 0, 62, 0
2, 114720, Note_on_c, 0, 67, 0
2, 115110, Note_on_c, 0, 59, 80
2, 115140, Note_on_c, 0, 63, 80
2, 115170, Note_on_c, 0, 66, 80
2, 115200, Note_on_c, 0, 71, 80
2, 115440, Note_on_c, 0, 71, 0
2, 115440, Note_on_c, 0, 59, 0
2, 115440, Note_on_c, 0, 63, 0
2, 115440, Note_on_c, 0, 66, 0
2, 115590, Note_on_c, 0, 59, 80
2, 115620, Note_on_c, 0, 64, 80
2, 115650, Note_on_c, 0, 67, 80
2, 115680, Note_on_c, 0, 71, 80
2, 116160, Note_on_c, 0, 71, 0
2, 116160, Note_on_c, 0, 59, 0
2, 116160, Note_on_c, 0, 64, 0
2, 116160, Note_on_c, 0, 67, 0
2, 117030, Note_on_c, 0, 61, 80
2, 117060, Note_on_c, 0, 66, 80
2, 117090, Note_on_c, 0, 70, 80
2, 117120, Note_on_c, 0, 73, 80
2, 117270, Note_on_c, 0, 62, 80
2, 117300, Note_on_c, 0, 66, 80
2, 117330, Note_on_c, 0, 71, 80
2, 117360, Note_on_c, 0, 73, 0
2, 117360, Note_on_c, 0, 70, 0
2, 117360, Note_on_c, 0, 61, 0
2, 117360, Note_on_c, 0, 66, 0
2, 117360, Note_on_c, 0, 74, 80
2, 117510, Note_on_c, 0, 62, 80
2, 117540, Note_on_c, 0, 68, 80
2, 117570, Note_on_c, 0, 71, 80
2, 117600, Note_on_c, 0, 74, 0
2, 117600, Note_on_c, 0, 71, 0
2, 117600, Note_on_c, 0, 66, 0
2, 117600, Note_on_c, 0, 62, 0
2, 117600, Note_on_c, 0, 74, 67
2, 117840, Note_on_c, 0, 74, 0
2, 117840, Note_on_c, 0, 68, 0
2, 117840, Note_on_c, 0, 62, 0
2, 117840, Note_on_c, 0, 71, 0
2, 117990, Note_on_c, 0, 61, 67
2, 118020, Note_on_c, 0, 67, 67
2, 118050, Note_on_c, 0, 69, 67
2, 118080, Note_on_c, 0, 73, 67
2, 118320, Note_on_c, 0, 73, 0
2, 118320, Note_on_c, 0, 61, 0
2, 118320, Note_on_c, 0, 67, 0
2, 118320, Note_on_c, 0, 69, 0
2, 118944, Note_on_c, 0, 57, 67
2, 118968, Note_on_c, 0, 62, 67
2, 118992, Note_on_c, 0, 66, 67
2, 119016, Note_on_c, 0, 69, 67
2, 119040, Note_on_c, 0, 74, 67
2, 119520, Note_on_c, 0, 74, 0
2, 119520, Note_on_c, 0, 66, 0
2, 119520, Note_on_c, 0, 57, 0
2, 119520, Note_on_c, 0, 62, 0
2, 119520, Note_on_c, 0, 69, 0
2, 120639, Note_on_c, 0, 69, 80
2, 120671, Note_on_c, 0, 69, 0
2, 120800, Note_on_c, 0, 69, 80
2, 120832, Note_on_c, 0, 69, 0
2, 120960, Control_c, 0, 64, 127
2, 120960, Note_on_c, 0, 78, 80
2, 121119, Note_on_c, 0, 78, 0
2, 121119, Note_on_c, 0, 76, 80
2, 121280, Note_on_c, 0, 76, 0
2, 121280, Note_on_c, 0, 69, 80
2, 121599, Note_on_c, 0, 69, 0
2, 121599, Note_on_c, 0, 71, 80
2, 121760, Note_on_c, 0, 71, 0
2, 121760, Control_c, 0, 64, 0
2, 121760, Note_on_c, 0, 69, 80
2, 121920, Note_on_c, 0, 69, 0
2, 123519, Note_on_c, 0, 69, 80
2, 123551, Note_on_c, 0, 69, 0
2, 123680, Note_on_c, 0, 69, 80
2, 123840, Note_on_c, 0, 69, 0
2, 123840, Control_c, 0, 64, 127
2, 123840, Note_on_c, 0, 78, 80
2, 123999, Note_on_c, 0, 78, 0
2, 123999, Note_on_c, 0, 76, 80
2, 124160, Note_on_c, 0, 76, 0
2, 124160, Note_on_c, 0, 69, 80
2, 124479, Note_on_c, 0, 69, 0
2, 124479, Note_on_c, 0, 71, 80
2, 124640, Note_on_c, 0, 71, 0
2, 124640, Note_on_c, 0, 69, 80
2, 124800, Control_c, 0, 64, 0
2, 124920, Note_on_c, 0, 69, 0
2, 124920, Control_c, 0, 64, 127
2, 124920, Note_on_c, 0, 57, 80
2, 125040, Note_on_c, 0, 57, 0
2, 125040, Note_on_c, 0, 59, 80
2, 125160, Note_on_c, 0, 59, 0
2, 125160, Note_on_c, 0, 61, 80
2, 125280, Note_on_c, 0, 61, 0
2, 125280, Note_on_c, 0, 62, 80
2, 125400, Note_on_c, 0, 62, 0
2, 125400, Note_on_c, 0, 64, 80
2, 125520, Note_on_c, 0, 64, 0
2, 125520, Note_on_c, 0, 66, 80
2, 125640, Note_on_c, 0, 66, 0
2, 125640, Note_on_c, 0, 69, 80
2, 125760, Note_on_c, 0, 69, 0
2, 125760, Control_c, 0, 64, 0
2, 125760, Note_on_c, 0, 74, 80
2, 126360, Note_on_c, 0, 74, 0
2, 126360, Note_on_c, 0, 71, 80
2, 126480, Note_on_c, 0, 71, 0
2, 126480, Note_on_c, 0, 73, 80
2, 126600, Note_on_c, 0, 73, 0
2, 126600, Note_on_c, 0, 75, 80
2, 126720, Note_on_c, 0, 75, 0
2, 126720, Note_on_c, 0, 76, 80
2, 126840, Note_on_c, 0, 76, 0
2, 126840, Note_on_c, 0, 78, 80
2, 126960, Note_on_c, 0, 78, 0
2, 126960, Note_on_c, 0, 79, 80
2, 127080, Note_on_c, 0, 79, 0
2, 127080, Note_on_c, 0, 81, 80
2, 127200, Note_on_c, 0, 81, 0
2, 127200, Control_c, 0, 64, 127
2, 127200, Note_on_c, 0, 83, 106
2, 127839, Note_on_c, 0, 83, 0
2, 127839, Note_on_c, 0, 79, 80
2, 128000, Note_on_c, 0, 79, 0
2, 128000, Note_on_c, 0, 76, 80
2, 128160, Note_on_c, 0, 76, 0
2, 128160, Note_on_c, 0, 71, 80
2, 128319, Note_on_c, 0, 71, 0
2, 128319, Note_on_c, 0, 67, 80
2, 128480, Note_on_c, 0, 67, 0
2, 128480, Note_on_c, 0, 64, 80
2, 128640, Note_on_c, 0, 64, 0
2, 128640, Control_c, 0, 64, 0
2, 128640, Note_on_c, 0, 59, 80
2, 129120, Note_on_c, 0, 59, 0
2, 160710, Note_on_c, 0, 78, 80
2, 160740, Note_on_c, 0, 81, 80
2, 160770, Note_on_c, 0, 86, 80
2, 160800, Note_on_c, 0, 90, 67
2, 161760, Note_on_c, 0, 90, 0
2, 161760, Note_on_c, 0, 78, 0
2, 161760, Note_on_c, 0, 81, 0
2, 161760, Note_on_c, 0, 86, 0
2, 161760, Note_on_c, 0, 69, 67
2, 161760, Note_on_c, 0, 74, 67
2, 161760, Note_on_c, 0, 78, 67
2, 161760, Note_on_c, 0, 81, 67
2, 162240, Note_on_c, 0, 81, 0
2, 162240, Note_on_c, 0, 69, 0
2, 162240, Note_on_c, 0, 74, 0
2, 162240, Note_on_c, 0, 78, 0
2, 162240, Note_on_c, 0, 71, 93
2, 162240, Note_on_c, 0, 74, 93
2, 162240, Note_on_c, 0, 78, 93
2, 162240, Note_on_c, 0, 83, 93
2, 162600, Note_on_c, 0, 83, 0
2, 162600, Note_on_c, 0, 71, 0
2, 162600, Note_on_c, 0, 74, 0
2, 162600, Note_on_c, 0, 78, 0
2, 162600, Note_on_c, 0, 69, 67
2, 162600, Note_on_c, 0, 74, 67
2, 162600, Note_on_c, 0, 78, 67
2, 162600, Note_on_c, 0, 81, 67
2, 162720, Note_on_c, 0, 81, 0
2, 162720, Note_on_c, 0, 69, 0
2, 162720, Note_on_c, 0, 74, 0
2, 162720, Note_on_c, 0, 78, 0
2, 162720, Note_on_c, 0, 69, 67
2, 162720, Note_on_c, 0, 74, 67
2, 162720, Note_on_c, 0, 78, 67
2, 162720, Note_on_c, 0, 81, 67
2, 163200, Note_on_c, 0, 81, 0
2, 163200, Note_on_c, 0, 69, 0
2, 163200, Note_on_c, 0, 74, 0
2, 163200, Note_on_c, 0, 78, 0
2, 163200, Note_on_c, 0, 78, 80
2, 163200, Note_on_c, 0, 81, 80
2, 163200, Note_on_c, 0, 86, 80
2, 163200, Note_on_c, 0, 90, 80
2, 163590, Note_on_c, 0, 79, 80
2, 163620, Note_on_c, 0, 83, 80
2, 163650, Note_on_c, 0, 88, 80
2, 163680, Note_on_c, 0, 90, 0
2, 163680, Note_on_c, 0, 86, 0
2, 163680, Note_on_c, 0, 78, 0
2, 163680, Note_on_c, 0, 81, 0
2, 163680, Note_on_c, 0, 91, 80
2, 164640, Note_on_c, 0, 91, 0
2, 164640, Note_on_c, 0, 83, 0
2, 164640, Note_on_c, 0, 79, 0
2, 164640, Note_on_c, 0, 88, 0
2, 164640, Note_on_c, 0, 71, 80
2, 164640, Note_on_c, 0, 76, 80
2, 164640, Note_on_c, 0, 79, 80
2, 164640, Note_on_c, 0, 83, 80
2, 165120, Note_on_c, 0, 83, 0
2, 165120, Note_on_c, 0, 71, 0
2, 165120, Note_on_c, 0, 76, 0
2, 165120, Note_on_c, 0, 79, 0
2, 165120, Control_c, 0, 64, 127
2, 165120, Note_on_c, 0, 73, 106
2, 165120, Note_on_c, 0, 76, 106
2, 165120, Note_on_c, 0, 79, 106
2, 165120, Note_on_c, 0, 85, 106
2, 165480, Note_on_c, 0, 85, 0
2, 165480, Note_on_c, 0, 73, 0
2, 165480, Note_on_c, 0, 76, 0
2, 165480, Note_on_c, 0, 79, 0
2, 165480, Note_on_c, 0, 71, 80
2, 165480, Note_on_c, 0, 76, 80
2, 165480, Note_on_c, 0, 79, 80
2, 165480, Note_on_c, 0, 83, 80
2, 165600, Note_on_c, 0, 83, 0
2, 165600, Note_on_c, 0, 71, 0
2, 165600, Note_on_c, 0, 76, 0
2, 165600, Note_on_c, 0, 79, 0
2, 165600, Note_on_c, 0, 71, 80
2, 165600, Note_on_c, 0, 76, 80
2, 165600, Note_on_c, 0, 79, 80
2, 165600, Note_on_c, 0, 83, 80
2, 165990, Note_on_c, 0, 59, 80
2, 166020, Note_on_c, 0, 64, 80
2, 166050, Note_on_c, 0, 67, 80
2, 166080, Note_on_c, 0, 83, 0
2, 166080, Note_on_c, 0, 79, 0
2, 166080, Note_on_c, 0, 71, 0
2, 166080, Note_on_c, 0, 76, 0
2, 166080, Note_on_c, 0, 71, 67
2, 166230, Note_on_c, 0, 64, 67
2, 166260, Note_on_c, 0, 67, 67
2, 166290, Note_on_c, 0, 71, 67
2, 166320, Note_on_c, 0, 71, 0
2, 166320, Note_on_c, 0, 67, 0
2, 166320, Note_on_c, 0, 64, 0
2, 166320, Note_on_c, 0, 59, 0
2, 166320, Note_on_c, 0, 76, 67
2, 166470, Note_on_c, 0, 67, 67
2, 166500, Note_on_c, 0, 71, 67
2, 166530, Note_on_c, 0, 76, 67
2, 166560, Note_on_c, 0, 76, 0
2, 166560, Note_on_c, 0, 71, 0
2, 166560, Note_on_c, 0, 67, 0
2, 166560, Note_on_c, 0, 64, 0
2, 166560, Note_on_c, 0, 79, 67
2, 166710, Note_on_c, 0, 71, 67
2, 166740, Note_on_c, 0, 76, 67
2, 166770, Note_on_c, 0, 79, 67
2, 166800, Note_on_c, 0, 79, 0
2, 166800, Note_on_c, 0, 76, 0
2, 166800, Note_on_c, 0, 71, 0
2, 166800, Note_on_c, 0, 67, 0
2, 166800, Note_on_c, 0, 83, 67
2, 166950, Note_on_c, 0, 76, 67
2, 166980, Note_on_c, 0, 79, 67
2, 167010, Note_on_c, 0, 83, 67
2, 167040, Note_on_c, 0, 83, 0
2, 167040, Note_on_c, 0, 79, 0
2, 167040, Note_on_c, 0, 76, 0
2, 167040, Note_on_c, 0, 71, 0
2, 167040, Note_on_c, 0, 88, 67
2, 167190, Note_on_c, 0, 79, 67
2, 167220, Note_on_c, 0, 83, 67
2, 167250, Note_on_c, 0, 88, 67
2, 167280, Note_on_c, 0, 88, 0
2, 167280, Note_on_c, 0, 83, 0
2, 167280, Note_on_c, 0, 79, 0
2, 167280, Note_on_c, 0, 76, 0
2, 167280, Note_on_c, 0, 91, 67
2, 167430, Note_on_c, 0, 71, 67
2, 167460, Note_on_c, 0, 76, 67
2, 167490, Note_on_c, 0, 79, 67
2, 167520, Note_on_c, 0, 91, 0
2, 167520, Note_on_c, 0, 88, 0
2, 167520, Note_on_c, 0, 83, 0
2, 167520, Note_on_c, 0, 79, 0
2, 167520, Note_on_c, 0, 95, 67
2, 167670, Note_on_c, 0, 88, 67
2, 167700, Note_on_c, 0, 91, 67
2, 167730, Note_on_c, 0, 95, 67
2, 167760, Note_on_c, 0, 91, 0
2, 167760, Note_on_c, 0, 76, 0
2, 167760, Note_on_c, 0, 71, 0
2, 167760, Note_on_c, 0, 95, 0
2, 167760, Note_on_c, 0, 100, 67
2, 167910, Note_on_c, 0, 91, 67
2, 167940, Note_on_c, 0, 95, 67
2, 167970, Note_on_c, 0, 100, 67
2, 168000, Note_on_c, 0, 91, 0
2, 168000, Note_on_c, 0, 100, 0
2, 168000, Note_on_c, 0, 95, 0
2, 168000, Note_on_c, 0, 88, 0
2, 168000, Note_on_c, 0, 103, 67
2, 168960, Note_on_c, 0, 103, 0
2, 168960, Note_on_c, 0, 95, 0
2, 168960, Note_on_c, 0, 100, 0
2, 168960, Note_on_c, 0, 79, 0
2, 168960, Control_c, 0, 64, 0
2, 169920, Control_c, 0, 64, 127
2, 169920, Note_on_c, 0, 59, 67
2, 170400, Note_on_c, 0, 59, 0
2, 170400, Note_on_c, 0, 61, 67
2, 170640, Note_on_c, 0, 61, 0
2, 170640, Note_on_c, 0, 62, 67
2, 170880, Note_on_c, 0, 62, 0
2, 170880, Note_on_c, 0, 64, 80
2, 171120, Note_on_c, 0, 64, 0
2, 171120, Control_c, 0, 64, 0
2, 171120, Note_on_c, 0, 65, 80
2, 171360, Note_on_c, 0, 65, 0
2, 171360, Note_on_c, 0, 58, 80
2, 171360, Note_on_c, 0, 66, 80
2, 171600, Note_on_c, 0, 66, 0
2, 171600, Note_on_c, 0, 58, 0
2, 171600, Note_on_c, 0, 59, 80
2, 171600, Note_on_c, 0, 62, 80
2, 171840, Note_on_c, 0, 62, 0
2, 171840, Note_on_c, 0, 59, 0
2, 171840, Note_on_c, 0, 56, 93
2, 171840, Note_on_c, 0, 62, 93
2, 171840, Note_on_c, 0, 66, 93
2, 172320, Note_on_c, 0, 62, 0
2, 172320, Note_on_c, 0, 56, 0
2, 172320, Control_c, 0, 64, 127
2, 172320, Note_on_c, 0, 55, 67
2, 172320, Note_on_c, 0, 61, 67
2, 172800, Note_on_c, 0, 61, 0
2, 172800, Note_on_c, 0, 55, 0
2, 173280, Control_c, 0, 64, 0
2, 173340, Note_on_c, 0, 66, 0
2, 173340, Control_c, 0, 64, 127
2, 173340, Note_on_c, 0, 63, 54
2, 173400, Note_on_c, 0, 63, 0
2, 173400, Note_on_c, 0, 64, 54
2, 173460, Note_on_c, 0, 64, 0
2, 173460, Note_on_c, 0, 66, 54
2, 173520, Note_on_c, 0, 66, 0
2, 173520, Note_on_c, 0, 69, 54
2, 173580, Note_on_c, 0, 69, 0
2, 173580, Note_on_c, 0, 66, 54
2, 173640, Note_on_c, 0, 66, 0
2, 173640, Note_on_c, 0, 67, 54
2, 173700, Note_on_c, 0, 67, 0
2, 173700, Note_on_c, 0, 68, 54
2, 173760, Note_on_c, 0, 68, 0
2, 173760, Note_on_c, 0, 71, 54
2, 173820, Note_on_c, 0, 71, 0
2, 173820, Note_on_c, 0, 68, 54
2, 173880, Note_on_c, 0, 68, 0
2, 173880, Note_on_c, 0, 69, 54
2, 173940, Note_on_c, 0, 69, 0
2, 173940, Control_c, 0, 64, 0
2, 173940, Note_on_c, 0, 71, 54
2, 174000, Note_on_c, 0, 71, 0
2, 174000, Note_on_c, 0, 74, 54
2, 174060, Note_on_c, 0, 74, 0
2, 174060, Control_c, 0, 64, 127
2, 174060, Note_on_c, 0, 72, 54
2, 174120, Note_on_c, 0, 72, 0
2, 174120, Note_on_c, 0, 73, 54
2, 174180, Note_on_c, 0, 73, 0
2, 174180, Note_on_c, 0, 74, 54
2, 174240, Note_on_c, 0, 74, 0
2, 174240, Note_on_c, 0, 76, 54
2, 174300, Note_on_c, 0, 76, 0
2, 174300, Note_on_c, 0, 75, 54
2, 174360, Note_on_c, 0, 75, 0
2, 174360, Note_on_c, 0, 76, 54
2, 174420, Note_on_c, 0, 76, 0
2, 174420, Note_on_c, 0, 83, 54
2, 174480, Note_on_c, 0, 83, 0
2, 174480, Note_on_c, 0, 80, 67
2, 174540, Note_on_c, 0, 80, 0
2, 174540, Note_on_c, 0, 81, 67
2, 174600, Note_on_c, 0, 81, 0
2, 174600, Note_on_c, 0, 86, 67
2, 174660, Note_on_c, 0, 86, 0
2, 174660, Note_on_c, 0, 84, 67
2, 174720, Note_on_c, 0, 84, 0
2, 174720, Note_on_c, 0, 85, 67
2, 174780, Note_on_c, 0, 85, 0
2, 174780, Note_on_c, 0, 90, 67
2, 174840, Note_on_c, 0, 90, 0
2, 174840, Note_on_c, 0, 87, 67
2, 174900, Note_on_c, 0, 87, 0
2, 174900, Note_on_c, 0, 88, 67
2, 174960, Note_on_c, 0, 88, 0
2, 174960, Note_on_c, 0, 96, 67
2, 175020, Note_on_c, 0, 96, 0
2, 175020, Note_on_c, 0, 92, 67
2, 175080, Note_on_c, 0, 92, 0
2, 175080, Note_on_c, 0, 93, 67
2, 175140, Note_on_c, 0, 93, 0
2, 175140, Note_on_c, 0, 98, 67
2, 175200, Note_on_c, 0, 98, 0
2, 175200, Note_on_c, 0, 96, 67
2, 175260, Note_on_c, 0, 96, 0
2, 175260, Control_c, 0, 64, 0
2, 175260, Note_on_c, 0, 97, 67
2, 175320, Note_on_c, 0, 97, 0
2, 175320, Control_c, 0, 64, 127
2, 175320, Note_on_c, 0, 102, 106
2, 175920, Note_on_c, 0, 102, 0
2, 175920, Note_on_c, 0, 100, 80
2, 175980, Note_on_c, 0, 100, 0
2, 175980, Note_on_c, 0, 97, 80
2, 176040, Note_on_c, 0, 97, 0
2, 176040, Note_on_c, 0, 93, 80
2, 176100, Note_on_c, 0, 93, 0
2, 176100, Note_on_c, 0, 92, 80
2, 176160, Note_on_c, 0, 92, 0
2, 176160, Note_on_c, 0, 93, 80
2, 176220, Note_on_c, 0, 93, 0
2, 176220, Note_on_c, 0, 95, 80
2, 176280, Note_on_c, 0, 95, 0
2, 176280, Note_on_c, 0, 93, 80
2, 176340, Note_on_c, 0, 93, 0
2, 176340, Note_on_c, 0, 90, 80
2, 176400, Note_on_c, 0, 90, 0
2, 176400, Note_on_c, 0, 87, 80
2, 176460, Note_on_c, 0, 87, 0
2, 176460, Note_on_c, 0, 86, 80
2, 176520, Note_on_c, 0, 86, 0
2, 176520, Note_on_c, 0, 87, 80
2, 176580, Note_on_c, 0, 87, 0
2, 176580, Note_on_c, 0, 90, 67
2, 176640, Note_on_c, 0, 90, 0
2, 176640, Note_on_c, 0, 88, 67
2, 176700, Note_on_c, 0, 88, 0
2, 176700, Note_on_c, 0, 85, 67
2, 176760, Note_on_c, 0, 85, 0
2, 176760, Note_on_c, 0, 81, 67
2, 176820, Note_on_c, 0, 81, 0
2, 176820, Note_on_c, 0, 80, 67
2, 176880, Note_on_c, 0, 80, 0
2, 176880, Note_on_c, 0, 81, 67
2, 176940, Note_on_c, 0, 81, 0
2, 176940, Note_on_c, 0, 83, 67
2, 177000, Note_on_c, 0, 83, 0
2, 177000, Note_on_c, 0, 81, 67
2, 177060, Note_on_c, 0, 81, 0
2, 177060, Note_on_c, 0, 78, 67
2, 177120, Note_on_c, 0, 78, 0
2, 177120, Note_on_c, 0, 75, 67
2, 177180, Note_on_c, 0, 75, 0
2, 177180, Note_on_c, 0, 74, 67
2, 177240, Note_on_c, 0, 74, 0
2, 177240, Control_c, 0, 64, 0
2, 177240, Note_on_c, 0, 75, 67
2, 177270, Note_on_c, 0, 75, 0
2, 177300, Control_c, 0, 64, 127
2, 177300, Note_on_c, 0, 78, 67
2, 177360, Note_on_c, 0, 78, 0
2, 177360, Note_on_c, 0, 76, 67
2, 177420, Note_on_c, 0, 76, 0
2, 177420, Note_on_c, 0, 73, 67
2, 177480, Note_on_c, 0, 73, 0
2, 177480, Note_on_c, 0, 69, 67
2, 177540, Note_on_c, 0, 69, 0
2, 177540, Note_on_c, 0, 68, 67
2, 177600, Note_on_c, 0, 68, 0
2, 177600, Note_on_c, 0, 69, 67
2, 177660, Note_on_c, 0, 69, 0
2, 177660, Note_on_c, 0, 71, 67
2, 177720, Note_on_c, 0, 71, 0
2, 177720, Note_on_c, 0, 69, 67
2, 177780, Note_on_c, 0, 69, 0
2, 177780, Note_on_c, 0, 66, 54
2, 177840, Note_on_c, 0, 66, 0
2, 177840, Note_on_c, 0, 63, 54
2, 177900, Note_on_c, 0, 63, 0
2, 177900, Note_on_c, 0, 62, 54
2, 177960, Note_on_c, 0, 62, 0
2, 177960, Note_on_c, 0, 63, 54
2, 178020, Note_on_c, 0, 63, 0
2, 178020, Note_on_c, 0, 66, 54
2, 178080, Note_on_c, 0, 66, 0
2, 178080, Note_on_c, 0, 64, 54
2, 178140, Note_on_c, 0, 64, 0
2, 178140, Note_on_c, 0, 61, 54
2, 178200, Note_on_c, 0, 61, 0
2, 178200, Note_on_c, 0, 57, 54
2, 178260, Note_on_c, 0, 57, 0
2, 178260, Note_on_c, 0, 56, 54
2, 178320, Note_on_c, 0, 56, 0
2, 178320, Note_on_c, 0, 57, 54
2, 178380, Note_on_c, 0, 57, 0
2, 178380, Note_on_c, 0, 59, 54
2, 178440, Note_on_c, 0, 59, 0
2, 178440, Note_on_c, 0, 57, 54
2, 178500, Note_on_c, 0, 57, 0
2, 178500, Note_on_c, 0, 55, 54
2, 178560, Note_on_c, 0, 55, 0
2, 178560, Note_on_c, 0, 52, 54
2, 178620, Note_on_c, 0, 52, 0
2, 178620, Note_on_c, 0, 49, 54
2, 178680, Note_on_c, 0, 49, 0
2, 178680, Control_c, 0, 64, 0
2, 178680, Note_on_c, 0, 45, 54
2, 178740, Note_on_c, 0, 45, 0
2, 178740, Control_c, 0, 64, 127
2, 178740, Note_on_c, 0, 46, 54
2, 178800, Note_on_c, 0, 46, 0
2, 178800, Note_on_c, 0, 47, 54
2, 178860, Note_on_c, 0, 47, 0
2, 178860, Note_on_c, 0, 48, 54
2, 178920, Note_on_c, 0, 48, 0
2, 178920, Note_on_c, 0, 49, 54
2, 178980, Note_on_c, 0, 49, 0
2, 178980, Note_on_c, 0, 51, 54
2, 179040, Note_on_c, 0, 51, 0
2, 179040, Note_on_c, 0, 52, 54
2, 179100, Note_on_c, 0, 52, 0
2, 179100, Note_on_c, 0, 54, 54
2, 179160, Note_on_c, 0, 54, 0
2, 179160, Note_on_c, 0, 55, 54
2, 179220, Note_on_c, 0, 55, 0
2, 179220, Note_on_c, 0, 56, 67
2, 179280, Note_on_c, 0, 56, 0
2, 179280, Note_on_c, 0, 57, 67
2, 179340, Note_on_c, 0, 57, 0
2, 179340, Note_on_c, 0, 60, 67
2, 179400, Note_on_c, 0, 60, 0
2, 179400, Note_on_c, 0, 61, 67
2, 179460, Note_on_c, 0, 61, 0
2, 179460, Note_on_c, 0, 63, 80
2, 179520, Note_on_c, 0, 63, 0
2, 179520, Note_on_c, 0, 64, 80
2, 179580, Note_on_c, 0, 64, 0
2, 179580, Note_on_c, 0, 66, 80
2, 179640, Note_on_c, 0, 66, 0
2, 179640, Note_on_c, 0, 67, 80
2, 179700, Note_on_c, 0, 67, 0
2, 179700, Note_on_c, 0, 69, 80
2, 179760, Note_on_c, 0, 69, 0
2, 179760, Note_on_c, 0, 70, 80
2, 179820, Note_on_c, 0, 70, 0
2, 179820, Control_c, 0, 64, 0
2, 179820, Note_on_c, 0, 56, 80
2, 179940, Note_on_c, 0, 56, 0
2, 179940, Note_on_c, 0, 57, 106
2, 180060, Note_on_c, 0, 57, 0
2, 180060, Note_on_c, 0, 58, 106
2, 180180, Note_on_c, 0, 58, 0
2, 180180, Note_on_c, 0, 59, 106
2, 180300, Note_on_c, 0, 59, 0
2, 180300, Note_on_c, 0, 60, 119
2, 180420, Note_on_c, 0, 60, 0
2, 180420, Note_on_c, 0, 61, 119
2, 180660, Note_on_c, 0, 61, 0
2, 180660, Note_on_c, 0, 66, 119
2, 182820, Note_on_c, 0, 66, 0
2, 182820, Note_on_c, 0, 64, 67
2, 183060, Note_on_c, 0, 64, 0
2, 183060, Note_on_c, 0, 62, 67
2, 183540, Note_on_c, 0, 62, 0
2, 186810, Note_on_c, 0, 74, 54
2, 186840, Note_on_c, 0, 77, 54
2, 186870, Note_on_c, 0, 80, 54
2, 186900, Note_on_c, 0, 86, 54
2, 187380, Note_on_c, 0, 86, 0
2, 187380, Note_on_c, 0, 74, 0
2, 187380, Note_on_c, 0, 77, 0
2, 187380, Note_on_c, 0, 80, 0
2, 189690, Note_on_c, 0, 74, 67
2, 189720, Note_on_c, 0, 77, 67
2, 189750, Note_on_c, 0, 81, 67
2, 189780, Note_on_c, 0, 86, 67
2, 190260, Note_on_c, 0, 86, 0
2, 190260, Note_on_c, 0, 74, 0
2, 190260, Note_on_c, 0, 77, 0
2, 190260, Note_on_c, 0, 81, 0
2, 192570, Note_on_c, 0, 74, 67
2, 192600, Note_on_c, 0, 76, 67
2, 192630, Note_on_c, 0, 82, 67
2, 192660, Note_on_c, 0, 86, 67
2, 193140, Note_on_c, 0, 86, 0
2, 193140, Note_on_c, 0, 74, 0
2, 193140, Note_on_c, 0, 76, 0
2, 193140, Note_on_c, 0, 82, 0
2, 195450, Note_on_c, 0, 78, 67
2, 195480, Note_on_c, 0, 81, 67
2, 195510, Note_on_c, 0, 86, 67
2, 195540, Note_on_c, 0, 90, 67
2, 196020, Note_on_c, 0, 90, 0
2, 196020, Note_on_c, 0, 78, 0
2, 196020, Note_on_c, 0, 81, 0
2, 196020, Note_on_c, 0, 86, 0
2, 197820, Control_c, 0, 64, 127
2, 197820, Note_on_c, 0, 62, 80
2, 197850, Note_on_c, 0, 62, 0
2, 197850, Note_on_c, 0, 65, 80
2, 197880, Note_on_c, 0, 65, 0
2, 197880, Note_on_c, 0, 68, 80
2, 197910, Note_on_c, 0, 68, 0
2, 197910, Note_on_c, 0, 71, 80
2, 197940, Note_on_c, 0, 71, 0
2, 197940, Note_on_c, 0, 74, 80
2, 197979, Note_on_c, 0, 74, 0
2, 197979, Note_on_c, 0, 71, 80
2, 198020, Note_on_c, 0, 71, 0
2, 198020, Note_on_c, 0, 68, 80
2, 198060, Note_on_c, 0, 68, 0
2, 198060, Note_on_c, 0, 65, 80
2, 198099, Note_on_c, 0, 65, 0
2, 198099, Note_on_c, 0, 62, 80
2, 198140, Note_on_c, 0, 62, 0
2, 198140, Note_on_c, 0, 59, 80
2, 198180, Note_on_c, 0, 59, 0
2, 198420, Control_c, 0, 64, 0
2, 200580, Control_c, 0, 64, 127
2, 200580, Note_on_c, 0, 50, 80
2, 200614, Note_on_c, 0, 50, 0
2, 200614, Note_on_c, 0, 53, 80
2, 200648, Note_on_c, 0, 53, 0
2, 200648, Note_on_c, 0, 57, 80
2, 200682, Note_on_c, 0, 57, 0
2, 200682, Note_on_c, 0, 62, 80
2, 200717, Note_on_c, 0, 62, 0
2, 200717, Note_on_c, 0, 65, 80
2, 200751, Note_on_c, 0, 65, 0
2, 200751, Note_on_c, 0, 69, 80
2, 200785, Note_on_c, 0, 69, 0
2, 200785, Note_on_c, 0, 74, 80
2, 200820, Note_on_c, 0, 74, 0
2, 200820, Note_on_c, 0, 77, 80
2, 200867, Note_on_c, 0, 77, 0
2, 200867, Note_on_c, 0, 74, 80
2, 200916, Note_on_c, 0, 74, 0
2, 200916, Note_on_c, 0, 69, 80
2, 200963, Note_on_c, 0, 69, 0
2, 200963, Note_on_c, 0, 65, 80
2, 201012, Note_on_c, 0, 65, 0
2, 201012, Note_on_c, 0, 62, 80
2, 201060, Note_on_c, 0, 62, 0
2, 201330, Control_c, 0, 64, 0
2, 203460, Control_c, 0, 64, 127
2, 203460, Note_on_c, 0, 50, 80
2, 203494, Note_on_c, 0, 50, 0
2, 203494, Note_on_c, 0, 55, 80
2, 203528, Note_on_c, 0, 55, 0
2, 203528, Note_on_c, 0, 58, 80
2, 203562, Note_on_c, 0, 58, 0
2, 203562, Note_on_c, 0, 63, 80
2, 203597, Note_on_c, 0, 63, 0
2, 203597, Note_on_c, 0, 67, 80
2, 203631, Note_on_c, 0, 67, 0
2, 203631, Note_on_c, 0, 70, 80
2, 203665, Note_on_c, 0, 70, 0
2, 203665, Note_on_c, 0, 75, 80
2, 203700, Note_on_c, 0, 75, 0
2, 203700, Note_on_c, 0, 79, 80
2, 203747, Note_on_c, 0, 79, 0
2, 203747, Note_on_c, 0, 75, 80
2, 203796, Note_on_c, 0, 75, 0
2, 203796, Note_on_c, 0, 70, 80
2, 203843, Note_on_c, 0, 70, 0
2, 203843, Note_on_c, 0, 67, 80
2, 203892, Note_on_c, 0, 67, 0
2, 203892, Note_on_c, 0, 63, 80
2, 203940, Note_on_c, 0, 63, 0
2, 204180, Control_c, 0, 64, 0
2, 206340, Control_c, 0, 64, 127
2, 206340, Note_on_c, 0, 50, 67
2, 206374, Note_on_c, 0, 50, 0
2, 206374, Note_on_c, 0, 54, 67
2, 206408, Note_on_c, 0, 54, 0
2, 206408, Note_on_c, 0, 57, 67
2, 206442, Note_on_c, 0, 57, 0
2, 206442, Note_on_c, 0, 62, 67
2, 206477, Note_on_c, 0, 62, 0
2, 206477, Note_on_c, 0, 66, 67
2, 206511, Note_on_c, 0, 66, 0
2, 206511, Note_on_c, 0, 69, 67
2, 206545, Note_on_c, 0, 69, 0
2, 206545, Note_on_c, 0, 74, 67
2, 206580, Note_on_c, 0, 74, 0
2, 206580, Note_on_c, 0, 78, 67
2, 206627, Note_on_c, 0, 78, 0
2, 206627, Note_on_c, 0, 74, 67
2, 206676, Note_on_c, 0, 74, 0
2, 206676, Note_on_c, 0, 69, 67
2, 206723, Note_on_c, 0, 69, 0
2, 206723, Note_on_c, 0, 66, 67
2, 206772, Note_on_c, 0, 66, 0
2, 206772, Note_on_c, 0, 62, 67
2, 206820, Note_on_c, 0, 62, 0
2, 207090, Control_c, 0, 64, 0
2, 209220, Control_c, 0, 64, 127
2, 209220, Note_on_c, 0, 50, 67
2, 209254, Note_on_c, 0, 50, 0
2, 209254, Note_on_c, 0, 54, 67
2, 209288, Note_on_c, 0, 54, 0
2, 209288, Note_on_c, 0, 57, 67
2, 209322, Note_on_c, 0, 57, 0
2, 209322, Note_on_c, 0, 62, 67
2, 209357, Note_on_c, 0, 62, 0
2, 209357, Note_on_c, 0, 66, 67
2, 209391, Note_on_c, 0, 66, 0
2, 209391, Note_on_c, 0, 69, 67
2, 209425, Note_on_c, 0, 69, 0
2, 209425, Note_on_c, 0, 74, 67
2, 209460, Note_on_c, 0, 74, 0
2, 209460, Note_on_c, 0, 78, 67
2, 209507, Note_on_c, 0, 78, 0
2, 209507, Note_on_c, 0, 74, 67
2, 209556, Note_on_c, 0, 74, 0
2, 209556, Note_on_c, 0, 69, 67
2, 209603, Note_on_c, 0, 69, 0
2, 209603, Note_on_c, 0, 66, 67
2, 209652, Note_on_c, 0, 66, 0
2, 209652, Note_on_c, 0, 62, 67
2, 209700, Note_on_c, 0, 62, 0
2, 209970, Control_c, 0, 64, 0
2, 212100, Control_c, 0, 64, 127
2, 212100, Note_on_c, 0, 50, 67
2, 212134, Note_on_c, 0, 50, 0
2, 212134, Note_on_c, 0, 54, 67
2, 212168, Note_on_c, 0, 54, 0
2, 212168, Note_on_c, 0, 57, 67
2, 212202, Note_on_c, 0, 57, 0
2, 212202, Note_on_c, 0, 62, 67
2, 212237, Note_on_c, 0, 62, 0
2, 212237, Note_on_c, 0, 66, 67
2, 212271, Note_on_c, 0, 66, 0
2, 212271, Note_on_c, 0, 69, 67
2, 212305, Note_on_c, 0, 69, 0
2, 212305, Note_on_c, 0, 74, 67
2, 212340, Note_on_c, 0, 74, 0
2, 212340, Note_on_c, 0, 78, 67
2, 212387, Note_on_c, 0, 78, 0
2, 212387, Note_on_c, 0, 74, 67
2, 212436, Note_on_c, 0, 74, 0
2, 212436, Note_on_c, 0, 69, 67
2, 212483, Note_on_c, 0, 69, 0
2, 212483, Note_on_c, 0, 66, 67
2, 212532, Note_on_c, 0, 66, 0
2, 212532, Note_on_c, 0, 62, 67
2, 212580, Note_on_c, 0, 62, 0
2, 212850, Control_c, 0, 64, 0
2, 214980, Control_c, 0, 64, 127
2, 214980, Note_on_c, 0, 50, 67
2, 215014, Note_on_c, 0, 50, 0
2, 215014, Note_on_c, 0, 54, 67
2, 215048, Note_on_c, 0, 54, 0
2, 215048, Note_on_c, 0, 57, 67
2, 215082, Note_on_c, 0, 57, 0
2, 215082, Note_on_c, 0, 62, 67
2, 215117, Note_on_c, 0, 62, 0
2, 215117, Note_on_c, 0, 66, 67
2, 215151, Note_on_c, 0, 66, 0
2, 215151, Note_on_c, 0, 69, 67
2, 215185, Note_on_c, 0, 69, 0
2, 215185, Note_on_c, 0, 74, 67
2, 215220, Note_on_c, 0, 74, 0
2, 215220, Note_on_c, 0, 78, 67
2, 215267, Note_on_c, 0, 78, 0
2, 215267, Note_on_c, 0, 74, 67
2, 215316, Note_on_c, 0, 74, 0
2, 215316, Note_on_c, 0, 69, 67
2, 215363, Note_on_c, 0, 69, 0
2, 215363, Note_on_c, 0, 66, 67
2, 215412, Note_on_c, 0, 66, 0
2, 215412, Note_on_c, 0, 62, 67
2, 215460, Note_on_c, 0, 62, 0
2, 215940, Control_c, 0, 64, 127
2, 215940, Note_on_c, 0, 57, 67
2, 215987, Note_on_c, 0, 57, 0
2, 215987, Note_on_c, 0, 62, 67
2, 216036, Note_on_c, 0, 62, 0
2, 216036, Note_on_c, 0, 66, 67
2, 216083, Note_on_c, 0, 66, 0
2, 216083, Note_on_c, 0, 69, 67
2, 216132, Note_on_c, 0, 69, 0
2, 216132, Note_on_c, 0, 74, 67
2, 216180, Note_on_c, 0, 74, 0
2, 216180, Note_on_c, 0, 78, 67
2, 216227, Note_on_c, 0, 78, 0
2, 216227, Note_on_c, 0, 74, 67
2, 216276, Note_on_c, 0, 74, 0
2, 216276, Note_on_c, 0, 69, 67
2, 216323, Note_on_c, 0, 69, 0
2, 216323, Note_on_c, 0, 66, 67
2, 216372, Note_on_c, 0, 66, 0
2, 216372, Note_on_c, 0, 62, 67
2, 216420, Note_on_c, 0, 62, 0
2, 216420, Control_c, 0, 64, 0
2, 216900, Control_c, 0, 64, 127
2, 216900, Note_on_c, 0, 57, 67
2, 216947, Note_on_c, 0, 57, 0
2, 216947, Note_on_c, 0, 62, 67
2, 216996, Note_on_c, 0, 62, 0
2, 216996, Note_on_c, 0, 66, 67
2, 217043, Note_on_c, 0, 66, 0
2, 217043, Note_on_c, 0, 69, 67
2, 217092, Note_on_c, 0, 69, 0
2, 217092, Note_on_c, 0, 74, 67
2, 217140, Note_on_c, 0, 74, 0
2, 217140, Note_on_c, 0, 78, 67
2, 217187, Note_on_c, 0, 78, 0
2, 217187, Note_on_c, 0, 74, 67
2, 217236, Note_on_c, 0, 74, 0
2, 217236, Note_on_c, 0, 69, 67
2, 217283, Note_on_c, 0, 69, 0
2, 217283, Note_on_c, 0, 66, 67
2, 217332, Note_on_c, 0, 66, 0
2, 217332, Note_on_c, 0, 62, 67
2, 217380, Note_on_c, 0, 62, 0
2, 217380, Control_c, 0, 64, 0
2, 218580, Control_c, 0, 64, 127
2, 218970, Note_on_c, 0, 54, 54
2, 219000, Note_on_c, 0, 57, 54
2, 219030, Note_on_c, 0, 62, 54
2, 219060, Note_on_c, 0, 66, 54
2, 219930, Note_on_c, 0, 54, 54
2, 219960, Note_on_c, 0, 57, 54
2, 219990, Note_on_c, 0, 62, 54
2, 220020, Note_on_c, 0, 66, 0
2, 220020, Note_on_c, 0, 62, 0
2, 220020, Note_on_c, 0, 54, 0
2, 220020, Note_on_c, 0, 57, 0
2, 220020, Note_on_c, 0, 66, 54
2, 220410, Note_on_c, 0, 54, 54
2, 220440, Note_on_c, 0, 57, 54
2, 220470, Note_on_c, 0, 62, 54
2, 220500, Note_on_c, 0, 66, 0
2, 220500, Note_on_c, 0, 62, 0
2, 220500, Note_on_c, 0, 57, 0
2, 220500, Note_on_c, 0, 54, 0
2, 220500, Note_on_c, 0, 66, 54
2, 221460, Note_on_c, 0, 66, 0
2, 221460, Note_on_c, 0, 57, 0
2, 221460, Note_on_c, 0, 54, 0
2, 221460, Note_on_c, 0, 62, 0
2, 221850, Note_on_c, 0, 54, 54
2, 221880, Note_on_c, 0, 57, 54
2, 221910, Note_on_c, 0, 62, 54
2, 221940, Note_on_c, 0, 66, 54
2, 222900, Note_on_c, 0, 66, 0
2, 222900, Note_on_c, 0, 54, 0
2, 222900, Note_on_c, 0, 57, 0
2, 222900, Note_on_c, 0, 62, 0
2, 223290, Note_on_c, 0, 54, 54
2, 223320, Note_on_c, 0, 57, 54
2, 223350, Note_on_c, 0, 62, 54
2, 223380, Note_on_c, 0, 66, 54
2, 224340, Note_on_c, 0, 66, 0
2, 224340, Note_on_c, 0, 54, 0
2, 224340, Note_on_c, 0, 57, 0
2, 224340, Note_on_c, 0, 62, 0
2, 224340, Control_c, 0, 64, 0
2, 224340, End_track
3, 0, Start_track
3, 0, Title_t, "Grand Piano"
3, 0, Program_c, 0, 0
3, 0, Control_c, 0, 7, 115
3, 0, Control_c, 0, 10, 42
3, 15360, Note_on_c, 0, 43, 67
3, 15360, Note_on_c, 0, 52, 67
3, 15360, Note_on_c, 0, 59, 67
3, 15360, Note_on_c, 0, 64, 67
3, 15840, Note_on_c, 0, 64, 0
3, 15840, Note_on_c, 0, 43, 0
3, 15840, Note_on_c, 0, 52, 0
3, 15840, Note_on_c, 0, 59, 0
3, 15840, Note_on_c, 0, 44, 67
3, 15840, Note_on_c, 0, 53, 67
3, 15840, Note_on_c, 0, 56, 67
3, 15840, Note_on_c, 0, 59, 67
3, 15840, Note_on_c, 0, 62, 67
3, 16800, Note_on_c, 0, 62, 0
3, 16800, Note_on_c, 0, 56, 0
3, 16800, Note_on_c, 0, 44, 0
3, 16800, Note_on_c, 0, 53, 0
3, 16800, Note_on_c, 0, 59, 0
3, 17760, Note_on_c, 0, 45, 67
3, 17760, Note_on_c, 0, 54, 67
3, 17760, Note_on_c, 0, 62, 67
3, 18240, Note_on_c, 0, 62, 0
3, 18240, Note_on_c, 0, 57, 67
3, 18240, Note_on_c, 0, 63, 67
3, 18720, Note_on_c, 0, 63, 0
3, 18720, Note_on_c, 0, 45, 0
3, 18720, Note_on_c, 0, 54, 0
3, 18720, Note_on_c, 0, 57, 0
3, 18720, Note_on_c, 0, 45, 67
3, 18720, Note_on_c, 0, 52, 67
3, 18720, Note_on_c, 0, 59, 67
3, 18720, Note_on_c, 0, 64, 67
3, 19680, Note_on_c, 0, 64, 0
3, 19680, Note_on_c, 0, 45, 0
3, 19680, Note_on_c, 0, 52, 0
3, 19680, Note_on_c, 0, 59, 0
3, 20640, Note_on_c, 0, 45, 54
3, 20640, Note_on_c, 0, 52, 54
3, 20640, Note_on_c, 0, 56, 54
3, 20640, Note_on_c, 0, 59, 54
3, 20640, Note_on_c, 0, 62, 54
3, 21120, Note_on_c, 0, 62, 0
3, 21120, Note_on_c, 0, 56, 0
3, 21120, Note_on_c, 0, 45, 0
3, 21120, Note_on_c, 0, 52, 0
3, 21120, Note_on_c, 0, 59, 0
3, 21120, Note_on_c, 0, 45, 54
3, 21120, Note_on_c, 0, 52, 54
3, 21120, Note_on_c, 0, 56, 54
3, 21120, Note_on_c, 0, 59, 54
3, 21120, Note_on_c, 0, 62, 54
3, 21600, Note_on_c, 0, 62, 0
3, 21600, Note_on_c, 0, 56, 0
3, 21600, Note_on_c, 0, 45, 0
3, 21600, Note_on_c, 0, 52, 0
3, 21600, Note_on_c, 0, 59, 0
3, 22080, Note_on_c, 0, 33, 54
3, 22080, Note_on_c, 0, 45, 54
3, 22080, Note_on_c, 0, 55, 54
3, 22080, Note_on_c, 0, 57, 54
3, 22080, Note_on_c, 0, 61, 54
3, 22560, Note_on_c, 0, 61, 0
3, 22560, Note_on_c, 0, 55, 0
3, 22560, Note_on_c, 0, 33, 0
3, 22560, Note_on_c, 0, 45, 0
3, 22560, Note_on_c, 0, 57, 0
3, 22560, Note_on_c, 0, 33, 54
3, 22560, Note_on_c, 0, 45, 54
3, 22560, Note_on_c, 0, 55, 54
3, 22560, Note_on_c, 0, 57, 54
3, 22560, Note_on_c, 0, 61, 54
3, 23040, Note_on_c, 0, 61, 0
3, 23040, Note_on_c, 0, 55, 0
3, 23040, Note_on_c, 0, 33, 0
3, 23040, Note_on_c, 0, 45, 0
3, 23040, Note_on_c, 0, 57, 0
3, 27360, Control_c, 0, 64, 127
3, 27360, Note_on_c, 0, 38, 54
3, 27600, Note_on_c, 0, 38, 0
3, 27600, Note_on_c, 0, 50, 54
3, 27600, Note_on_c, 0, 54, 54
3, 27600, Note_on_c, 0, 57, 54
3, 27840, Note_on_c, 0, 57, 0
3, 27840, Note_on_c, 0, 54, 0
3, 27840, Note_on_c, 0, 50, 0
3, 27840, Note_on_c, 0, 50, 54
3, 27840, Note_on_c, 0, 54, 54
3, 27840, Note_on_c, 0, 62, 54
3, 28080, Note_on_c, 0, 62, 0
3, 28080, Note_on_c, 0, 54, 0
3, 28080, Note_on_c, 0, 50, 0
3, 28080, Note_on_c, 0, 50, 54
3, 28080, Note_on_c, 0, 54, 54
3, 28080, Note_on_c, 0, 61, 54
3, 28320, Note_on_c, 0, 61, 0
3, 28320, Note_on_c, 0, 54, 0
3, 28320, Note_on_c, 0, 50, 0
3, 28320, Note_on_c, 0, 50, 54
3, 28320, Note_on_c, 0, 54, 54
3, 28320, Note_on_c, 0, 59, 54
3, 28560, Note_on_c, 0, 59, 0
3, 28560, Note_on_c, 0, 54, 0
3, 28560, Note_on_c, 0, 50, 0
3, 28560, Control_c, 0, 64, 0
3, 28560, Note_on_c, 0, 50, 54
3, 28560, Note_on_c, 0, 54, 54
3, 28560, Note_on_c, 0, 57, 54
3, 28607, Note_on_c, 0, 57, 0
3, 28607, Note_on_c, 0, 54, 0
3, 28607, Note_on_c, 0, 50, 0
3, 28800, Control_c, 0, 64, 127
3, 28800, Note_on_c, 0, 38, 54
3, 29040, Note_on_c, 0, 38, 0
3, 29040, Note_on_c, 0, 50, 54
3, 29040, Note_on_c, 0, 55, 54
3, 29040, Note_on_c, 0, 59, 54
3, 29280, Note_on_c, 0, 59, 0
3, 29280, Note_on_c, 0, 55, 0
3, 29280, Note_on_c, 0, 50, 0
3, 29280, Note_on_c, 0, 50, 54
3, 29280, Note_on_c, 0, 55, 54
3, 29280, Note_on_c, 0, 64, 54
3, 29520, Note_on_c, 0, 64, 0
3, 29520, Note_on_c, 0, 55, 0
3, 29520, Note_on_c, 0, 50, 0
3, 29520, Note_on_c, 0, 50, 54
3, 29520, Note_on_c, 0, 55, 54
3, 29520, Note_on_c, 0, 62, 54
3, 29760, Note_on_c, 0, 62, 0
3, 29760, Note_on_c, 0, 55, 0
3, 29760, Note_on_c, 0, 50, 0
3, 29760, Note_on_c, 0, 50, 54
3, 29760, Note_on_c, 0, 55, 54
3, 29760, Note_on_c, 0, 61, 54
3, 30000, Note_on_c, 0, 61, 0
3, 30000, Note_on_c, 0, 55, 0
3, 30000, Note_on_c, 0, 50, 0
3, 30000, Control_c, 0, 64, 0
3, 30000, Note_on_c, 0, 50, 54
3, 30000, Note_on_c, 0, 55, 54
3, 30000, Note_on_c, 0, 59, 54
3, 30047, Note_on_c, 0, 59, 0
3, 30047, Note_on_c, 0, 55, 0
3, 30047, Note_on_c, 0, 50, 0
3, 30240, Control_c, 0, 64, 127
3, 30240, Note_on_c, 0, 38, 54
3, 30480, Note_on_c, 0, 38, 0
3, 30480, Note_on_c, 0, 55, 54
3, 30480, Note_on_c, 0, 57, 54
3, 30480, Note_on_c, 0, 61, 54
3, 30720, Note_on_c, 0, 61, 0
3, 30720, Note_on_c, 0, 57, 0
3, 30720, Note_on_c, 0, 55, 0
3, 30720, Note_on_c, 0, 55, 54
3, 30720, Note_on_c, 0, 61, 54
3, 30720, Note_on_c, 0, 66, 54
3, 30960, Note_on_c, 0, 66, 0
3, 30960, Note_on_c, 0, 61, 0
3, 30960, Note_on_c, 0, 55, 0
3, 30960, Note_on_c, 0, 55, 54
3, 30960, Note_on_c, 0, 61, 54
3, 30960, Note_on_c, 0, 64, 54
3, 31200, Note_on_c, 0, 64, 0
3, 31200, Note_on_c, 0, 61, 0
3, 31200, Note_on_c, 0, 55, 0
3, 31200, Note_on_c, 0, 55, 54
3, 31200, Note_on_c, 0, 57, 54
3, 31200, Note_on_c, 0, 62, 54
3, 31440, Note_on_c, 0, 62, 0
3, 31440, Note_on_c, 0, 57, 0
3, 31440, Note_on_c, 0, 55, 0
3, 31440, Control_c, 0, 64, 0
3, 31440, Note_on_c, 0, 55, 54
3, 31440, Note_on_c, 0, 57, 54
3, 31440, Note_on_c, 0, 61, 54
3, 31487, Note_on_c, 0, 61, 0
3, 31487, Note_on_c, 0, 57, 0
3, 31487, Note_on_c, 0, 55, 0
3, 31680, Control_c, 0, 64, 127
3, 31680, Note_on_c, 0, 38, 54
3, 31920, Note_on_c, 0, 38, 0
3, 31920, Note_on_c, 0, 57, 54
3, 31920, Note_on_c, 0, 62, 54
3, 31920, Note_on_c, 0, 69, 54
3, 32160, Note_on_c, 0, 69, 0
3, 32160, Note_on_c, 0, 62, 0
3, 32160, Note_on_c, 0, 57, 0
3, 32160, Note_on_c, 0, 57, 54
3, 32160, Note_on_c, 0, 62, 54
3, 32160, Note_on_c, 0, 71, 54
3, 32400, Note_on_c, 0, 71, 0
3, 32400, Note_on_c, 0, 62, 0
3, 32400, Note_on_c, 0, 57, 0
3, 32400, Note_on_c, 0, 57, 54
3, 32400, Note_on_c, 0, 62, 54
3, 32400, Note_on_c, 0, 69, 54
3, 32640, Note_on_c, 0, 69, 0
3, 32640, Note_on_c, 0, 62, 0
3, 32640, Note_on_c, 0, 57, 0
3, 32640, Note_on_c, 0, 57, 54
3, 32640, Note_on_c, 0, 62, 54
3, 32640, Note_on_c, 0, 67, 54
3, 32880, Note_on_c, 0, 67, 0
3, 32880, Note_on_c, 0, 62, 0
3, 32880, Note_on_c, 0, 57, 0
3, 32880, Control_c, 0, 64, 0
3, 32880, Note_on_c, 0, 57, 54
3, 32880, Note_on_c, 0, 62, 54
3, 32880, Note_on_c, 0, 66, 54
3, 32927, Note_on_c, 0, 66, 0
3, 32927, Note_on_c, 0, 62, 0
3, 32927, Note_on_c, 0, 57, 0
3, 33120, Control_c, 0, 64, 127
3, 33120, Note_on_c, 0, 38, 54
3, 33360, Note_on_c, 0, 38, 0
3, 33360, Note_on_c, 0, 57, 54
3, 33360, Note_on_c, 0, 62, 54
3, 33360, Note_on_c, 0, 66, 54
3, 33600, Note_on_c, 0, 66, 0
3, 33600, Note_on_c, 0, 62, 0
3, 33600, Note_on_c, 0, 57, 0
3, 33600, Note_on_c, 0, 57, 54
3, 33600, Note_on_c, 0, 62, 54
3, 33600, Note_on_c, 0, 67, 54
3, 33840, Note_on_c, 0, 67, 0
3, 33840, Note_on_c, 0, 62, 0
3, 33840, Note_on_c, 0, 57, 0
3, 33840, Note_on_c, 0, 57, 54
3, 33840, Note_on_c, 0, 62, 54
3, 33840, Note_on_c, 0, 66, 54
3, 34080, Note_on_c, 0, 66, 0
3, 34080, Note_on_c, 0, 62, 0
3, 34080, Note_on_c, 0, 57, 0
3, 34080, Note_on_c, 0, 54, 54
3, 34080, Note_on_c, 0, 57, 54
3, 34080, Note_on_c, 0, 64, 54
3, 34320, Note_on_c, 0, 64, 0
3, 34320, Note_on_c, 0, 57, 0
3, 34320, Note_on_c, 0, 54, 0
3, 34320, Control_c, 0, 64, 0
3, 34320, Note_on_c, 0, 54, 54
3, 34320, Note_on_c, 0, 57, 54
3, 34320, Note_on_c, 0, 62, 54
3, 34367, Note_on_c, 0, 62, 0
3, 34367, Note_on_c, 0, 57, 0
3, 34367, Note_on_c, 0, 54, 0
3, 34560, Control_c, 0, 64, 127
3, 34560, Note_on_c, 0, 38, 67
3, 34800, Note_on_c, 0, 38, 0
3, 34800, Note_on_c, 0, 56, 67
3, 34800, Note_on_c, 0, 62, 67
3, 34800, Note_on_c, 0, 66, 67
3, 35040, Note_on_c, 0, 66, 0
3, 35040, Note_on_c, 0, 62, 0
3, 35040, Note_on_c, 0, 56, 0
3, 35040, Note_on_c, 0, 56, 67
3, 35040, Note_on_c, 0, 62, 67
3, 35040, Note_on_c, 0, 68, 67
3, 35280, Note_on_c, 0, 68, 0
3, 35280, Note_on_c, 0, 62, 0
3, 35280, Note_on_c, 0, 56, 0
3, 35280, Note_on_c, 0, 56, 67
3, 35280, Note_on_c, 0, 62, 67
3, 35280, Note_on_c, 0, 66, 67
3, 35520, Note_on_c, 0, 66, 0
3, 35520, Note_on_c, 0, 62, 0
3, 35520, Note_on_c, 0, 56, 0
3, 35520, Note_on_c, 0, 54, 67
3, 35520, Note_on_c, 0, 56, 67
3, 35520, Note_on_c, 0, 64, 67
3, 35760, Note_on_c, 0, 64, 0
3, 35760, Note_on_c, 0, 56, 0
3, 35760, Note_on_c, 0, 54, 0
3, 35760, Control_c, 0, 64, 0
3, 35760, Note_on_c, 0, 54, 67
3, 35760, Note_on_c, 0, 56, 67
3, 35760, Note_on_c, 0, 62, 67
3, 35807, Note_on_c, 0, 62, 0
3, 35807, Note_on_c, 0, 56, 0
3, 35807, Note_on_c, 0, 54, 0
3, 36000, Control_c, 0, 64, 127
3, 36000, Note_on_c, 0, 37, 67
3, 36240, Note_on_c, 0, 37, 0
3, 36240, Note_on_c, 0, 59, 67
3, 36240, Note_on_c, 0, 65, 67
3, 36240, Note_on_c, 0, 68, 67
3, 36480, Note_on_c, 0, 68, 0
3, 36480, Note_on_c, 0, 65, 0
3, 36480, Note_on_c, 0, 59, 0
3, 36480, Note_on_c, 0, 59, 67
3, 36480, Note_on_c, 0, 65, 67
3, 36480, Note_on_c, 0, 69, 67
3, 36720, Note_on_c, 0, 69, 0
3, 36720, Note_on_c, 0, 65, 0
3, 36720, Note_on_c, 0, 59, 0
3, 36720, Note_on_c, 0, 59, 67
3, 36720, Note_on_c, 0, 65, 67
3, 36720, Note_on_c, 0, 68, 67
3, 36960, Note_on_c, 0, 68, 0
3, 36960, Note_on_c, 0, 65, 0
3, 36960, Note_on_c, 0, 59, 0
3, 36960, Note_on_c, 0, 59, 67
3, 36960, Note_on_c, 0, 61, 67
3, 36960, Note_on_c, 0, 66, 67
3, 37200, Note_on_c, 0, 66, 0
3, 37200, Note_on_c, 0, 61, 0
3, 37200, Note_on_c, 0, 59, 0
3, 37200, Control_c, 0, 64, 0
3, 37200, Note_on_c, 0, 59, 67
3, 37200, Note_on_c, 0, 61, 67
3, 37200, Note_on_c, 0, 65, 67
3, 37247, Note_on_c, 0, 65, 0
3, 37247, Note_on_c, 0, 61, 0
3, 37247, Note_on_c, 0, 59, 0
3, 37440, Control_c, 0, 64, 127
3, 37440, Note_on_c, 0, 42, 67
3, 37680, Note_on_c, 0, 42, 0
3, 37680, Note_on_c, 0, 54, 67
3, 37680, Note_on_c, 0, 57, 67
3, 37680, Note_on_c, 0, 61, 67
3, 37830, Note_on_c, 0, 47, 67
3, 37860, Note_on_c, 0, 54, 67
3, 37890, Note_on_c, 0, 57, 67
3, 37920, Note_on_c, 0, 61, 0
3, 37920, Note_on_c, 0, 54, 0
3, 37920, Note_on_c, 0, 57, 0
3, 37920, Note_on_c, 0, 64, 67
3, 38160, Note_on_c, 0, 64, 0
3, 38160, Note_on_c, 0, 57, 0
3, 38160, Note_on_c, 0, 54, 0
3, 38160, Note_on_c, 0, 47, 0
3, 38160, Note_on_c, 0, 54, 54
3, 38160, Note_on_c, 0, 57, 54
3, 38160, Note_on_c, 0, 63, 54
3, 38400, Note_on_c, 0, 63, 0
3, 38400, Note_on_c, 0, 57, 0
3, 38400, Note_on_c, 0, 54, 0
3, 38400, Note_on_c, 0, 54, 54
3, 38400, Note_on_c, 0, 57, 54
3, 38400, Note_on_c, 0, 61, 54
3, 38640, Note_on_c, 0, 61, 0
3, 38640, Note_on_c, 0, 57, 0
3, 38640, Note_on_c, 0, 54, 0
3, 38640, Control_c, 0, 64, 0
3, 38640, Note_on_c, 0, 54, 54
3, 38640, Note_on_c, 0, 57, 54
3, 38640, Note_on_c, 0, 63, 54
3, 38687, Note_on_c, 0, 63, 0
3, 38687, Note_on_c, 0, 57, 0
3, 38687, Note_on_c, 0, 54, 0
3, 38880, Control_c, 0, 64, 127
3, 38880, Note_on_c, 0, 40, 54
3, 39120, Note_on_c, 0, 40, 0
3, 39120, Note_on_c, 0, 52, 54
3, 39120, Note_on_c, 0, 59, 54
3, 39360, Note_on_c, 0, 59, 0
3, 39360, Note_on_c, 0, 52, 0
3, 39360, Note_on_c, 0, 52, 54
3, 39360, Note_on_c, 0, 59, 54
3, 39360, Note_on_c, 0, 61, 54
3, 39600, Note_on_c, 0, 61, 0
3, 39600, Note_on_c, 0, 59, 0
3, 39600, Note_on_c, 0, 52, 0
3, 39600, Note_on_c, 0, 52, 54
3, 39600, Note_on_c, 0, 59, 54
3, 39600, Note_on_c, 0, 63, 54
3, 39840, Note_on_c, 0, 63, 0
3, 39840, Note_on_c, 0, 59, 0
3, 39840, Note_on_c, 0, 52, 0
3, 39840, Note_on_c, 0, 52, 54
3, 39840, Note_on_c, 0, 59, 54
3, 39840, Note_on_c, 0, 64, 54
3, 40080, Note_on_c, 0, 64, 0
3, 40080, Note_on_c, 0, 59, 0
3, 40080, Note_on_c, 0, 52, 0
3, 40080, Control_c, 0, 64, 0
3, 40080, Note_on_c, 0, 52, 54
3, 40080, Note_on_c, 0, 59, 54
3, 40080, Note_on_c, 0, 62, 54
3, 40127, Note_on_c, 0, 62, 0
3, 40127, Note_on_c, 0, 59, 0
3, 40127, Note_on_c, 0, 52, 0
3, 40320, Note_on_c, 0, 45, 54
3, 40560, Note_on_c, 0, 45, 0
3, 40560, Control_c, 0, 64, 127
3, 40560, Note_on_c, 0, 52, 54
3, 40560, Note_on_c, 0, 57, 54
3, 40560, Note_on_c, 0, 61, 54
3, 40800, Note_on_c, 0, 61, 0
3, 40800, Note_on_c, 0, 57, 0
3, 40800, Note_on_c, 0, 52, 0
3, 40800, Note_on_c, 0, 52, 54
3, 40800, Note_on_c, 0, 57, 54
3, 40800, Note_on_c, 0, 62, 54
3, 41040, Note_on_c, 0, 62, 0
3, 41040, Note_on_c, 0, 57, 0
3, 41040, Note_on_c, 0, 52, 0
3, 41040, Note_on_c, 0, 52, 54
3, 41040, Note_on_c, 0, 57, 54
3, 41040, Note_on_c, 0, 61, 54
3, 41280, Note_on_c, 0, 61, 0
3, 41280, Note_on_c, 0, 57, 0
3, 41280, Note_on_c, 0, 52, 0
3, 41280, Note_on_c, 0, 49, 54
3, 41280, Note_on_c, 0, 52, 54
3, 41280, Note_on_c, 0, 59, 54
3, 41520, Note_on_c, 0, 59, 0
3, 41520, Note_on_c, 0, 52, 0
3, 41520, Note_on_c, 0, 49, 0
3, 41520, Control_c, 0, 64, 0
3, 41520, Note_on_c, 0, 49, 54
3, 41520, Note_on_c, 0, 52, 54
3, 41520, Note_on_c, 0, 57, 54
3, 41567, Note_on_c, 0, 57, 0
3, 41567, Note_on_c, 0, 52, 0
3, 41567, Note_on_c, 0, 49, 0
3, 41919, Note_on_c, 0, 50, 54
3, 41919, Note_on_c, 0, 54, 54
3, 41919, Note_on_c, 0, 57, 54
3, 42080, Note_on_c, 0, 62, 54
3, 42240, Note_on_c, 0, 62, 0
3, 42240, Note_on_c, 0, 50, 0
3, 42240, Note_on_c, 0, 54, 0
3, 42240, Note_on_c, 0, 57, 0
3, 42399, Note_on_c, 0, 49, 54
3, 42399, Note_on_c, 0, 52, 54
3, 42399, Note_on_c, 0, 57, 54
3, 42560, Note_on_c, 0, 61, 54
3, 42560, Note_on_c, 0, 64, 54
3, 42720, Note_on_c, 0, 64, 0
3, 42720, Note_on_c, 0, 57, 0
3, 42720, Note_on_c, 0, 49, 0
3, 42720, Note_on_c, 0, 52, 0
3, 42720, Note_on_c, 0, 61, 0
3, 42879, Note_on_c, 0, 47, 67
3, 42879, Note_on_c, 0, 50, 67
3, 42879, Note_on_c, 0, 54, 67
3, 43040, Note_on_c, 0, 62, 67
3, 43040, Note_on_c, 0, 66, 67
3, 43040, Note_on_c, 0, 71, 67
3, 43200, Note_on_c, 0, 71, 0
3, 43200, Note_on_c, 0, 50, 0
3, 43200, Note_on_c, 0, 54, 0
3, 43200, Note_on_c, 0, 47, 0
3, 43200, Note_on_c, 0, 66, 0
3, 43200, Note_on_c, 0, 62, 0
3, 43359, Note_on_c, 0, 45, 67
3, 43359, Note_on_c, 0, 49, 67
3, 43359, Note_on_c, 0, 55, 67
3, 43520, Note_on_c, 0, 67, 67
3, 43520, Note_on_c, 0, 73, 67
3, 43680, Note_on_c, 0, 73, 0
3, 43680, Note_on_c, 0, 55, 0
3, 43680, Note_on_c, 0, 45, 0
3, 43680, Note_on_c, 0, 49, 0
3, 43680, Note_on_c, 0, 67, 0
3, 43839, Note_on_c, 0, 47, 67
3, 43839, Note_on_c, 0, 50, 67
3, 43839, Note_on_c, 0, 57, 67
3, 44000, Note_on_c, 0, 62, 67
3, 44160, Note_on_c, 0, 62, 0
3, 44160, Note_on_c, 0, 47, 0
3, 44160, Note_on_c, 0, 50, 0
3, 44160, Note_on_c, 0, 57, 0
3, 44319, Note_on_c, 0, 49, 54
3, 44319, Note_on_c, 0, 52, 54
3, 44319, Note_on_c, 0, 57, 54
3, 44480, Note_on_c, 0, 61, 54
3, 44640, Note_on_c, 0, 61, 0
3, 44640, Note_on_c, 0, 49, 0
3, 44640, Note_on_c, 0, 52, 0
3, 44640, Note_on_c, 0, 57, 0
3, 44799, Note_on_c, 0, 50, 54
3, 44799, Note_on_c, 0, 54, 54
3, 44799, Note_on_c, 0, 57, 54
3, 44960, Note_on_c, 0, 62, 54
3, 45120, Note_on_c, 0, 62, 0
3, 45120, Note_on_c, 0, 50, 0
3, 45120, Note_on_c, 0, 54, 0
3, 45120, Note_on_c, 0, 57, 0
3, 45279, Note_on_c, 0, 49, 54
3, 45279, Note_on_c, 0, 52, 54
3, 45279, Note_on_c, 0, 57, 54
3, 45440, Note_on_c, 0, 61, 54
3, 45440, Note_on_c, 0, 64, 54
3, 45600, Note_on_c, 0, 64, 0
3, 45600, Note_on_c, 0, 57, 0
3, 45600, Note_on_c, 0, 49, 0
3, 45600, Note_on_c, 0, 52, 0
3, 45600, Note_on_c, 0, 61, 0
3, 45759, Note_on_c, 0, 47, 67
3, 45759, Note_on_c, 0, 50, 67
3, 45759, Note_on_c, 0, 54, 67
3, 45920, Note_on_c, 0, 62, 67
3, 45920, Note_on_c, 0, 66, 67
3, 45920, Note_on_c, 0, 71, 67
3, 46080, Note_on_c, 0, 71, 0
3, 46080, Note_on_c, 0, 50, 0
3, 46080, Note_on_c, 0, 54, 0
3, 46080, Note_on_c, 0, 47, 0
3, 46080, Note_on_c, 0, 66, 0
3, 46080, Note_on_c, 0, 62, 0
3, 46239, Note_on_c, 0, 45, 67
3, 46239, Note_on_c, 0, 49, 67
3, 46239, Note_on_c, 0, 55, 67
3, 46400, Note_on_c, 0, 67, 67
3, 46400, Note_on_c, 0, 73, 67
3, 46560, Note_on_c, 0, 73, 0
3, 46560, Note_on_c, 0, 55, 0
3, 46560, Note_on_c, 0, 45, 0
3, 46560, Note_on_c, 0, 49, 0
3, 46560, Note_on_c, 0, 67, 0
3, 46719, Note_on_c, 0, 47, 67
3, 46719, Note_on_c, 0, 50, 67
3, 46719, Note_on_c, 0, 57, 67
3, 46880, Note_on_c, 0, 62, 67
3, 47040, Note_on_c, 0, 62, 0
3, 47040, Note_on_c, 0, 47, 0
3, 47040, Note_on_c, 0, 50, 0
3, 47040, Note_on_c, 0, 57, 0
3, 47199, Note_on_c, 0, 49, 54
3, 47199, Note_on_c, 0, 52, 54
3, 47199, Note_on_c, 0, 57, 54
3, 47360, Note_on_c, 0, 61, 54
3, 47520, Note_on_c, 0, 61, 0
3, 47520, Note_on_c, 0, 49, 0
3, 47520, Note_on_c, 0, 52, 0
3, 47520, Note_on_c, 0, 57, 0
3, 47520, Note_on_c, 0, 50, 54
3, 47520, Note_on_c, 0, 57, 54
3, 47520, Note_on_c, 0, 62, 54
3, 48000, Note_on_c, 0, 62, 0
3, 48000, Note_on_c, 0, 57, 0
3, 48000, Note_on_c, 0, 50, 0
3, 48384, Note_on_c, 0, 42, 54
3, 48408, Note_on_c, 0, 50, 54
3, 48432, Note_on_c, 0, 57, 54
3, 48456, Note_on_c, 0, 60, 54
3, 48480, Note_on_c, 0, 62, 54
3, 48960, Note_on_c, 0, 62, 0
3, 48960, Note_on_c, 0, 57, 0
3, 48960, Note_on_c, 0, 42, 0
3, 48960, Note_on_c, 0, 50, 0
3, 48960, Note_on_c, 0, 60, 0
3, 48960, Note_on_c, 0, 43, 54
3, 48960, Note_on_c, 0, 50, 54
3, 48960, Note_on_c, 0, 55, 54
3, 49440, Note_on_c, 0, 55, 0
3, 49440, Note_on_c, 0, 50, 0
3, 49440, Note_on_c, 0, 43, 0
3, 50559, Control_c, 0, 64, 127
3, 50559, Note_on_c, 0, 40, 54
3, 50720, Note_on_c, 0, 40, 0
3, 50720, Note_on_c, 0, 43, 54
3, 50880, Note_on_c, 0, 43, 0
3, 50880, Note_on_c, 0, 47, 54
3, 51039, Note_on_c, 0, 47, 0
3, 51039, Note_on_c, 0, 40, 54
3, 51200, Note_on_c, 0, 40, 0
3, 51200, Note_on_c, 0, 47, 54
3, 51300, Note_on_c, 0, 52, 54
3, 51360, Note_on_c, 0, 47, 0
3, 51360, Control_c, 0, 64, 0
3, 51360, Note_on_c, 0, 55, 54
3, 51600, Note_on_c, 0, 55, 0
3, 51600, Note_on_c, 0, 52, 0
3, 51999, Control_c, 0, 64, 127
3, 51999, Note_on_c, 0, 38, 67
3, 52160, Note_on_c, 0, 38, 0
3, 52160, Note_on_c, 0, 43, 67
3, 52320, Note_on_c, 0, 43, 0
3, 52320, Note_on_c, 0, 47, 67
3, 52479, Note_on_c, 0, 47, 0
3, 52479, Note_on_c, 0, 52, 67
3, 52640, Note_on_c, 0, 52, 0
3, 52640, Note_on_c, 0, 55, 67
3, 52740, Note_on_c, 0, 59, 67
3, 52800, Note_on_c, 0, 55, 0
3, 52800, Control_c, 0, 64, 0
3, 52800, Note_on_c, 0, 64, 67
3, 53040, Note_on_c, 0, 64, 0
3, 53040, Note_on_c, 0, 59, 0
3, 53439, Control_c, 0, 64, 127
3, 53439, Note_on_c, 0, 36, 67
3, 53600, Note_on_c, 0, 36, 0
3, 53600, Note_on_c, 0, 43, 67
3, 53760, Note_on_c, 0, 43, 0
3, 53760, Note_on_c, 0, 46, 67
3, 53919, Note_on_c, 0, 46, 0
3, 53919, Note_on_c, 0, 48, 67
3, 54080, Note_on_c, 0, 48, 0
3, 54080, Note_on_c, 0, 52, 67
3, 54180, Note_on_c, 0, 55, 67
3, 54240, Note_on_c, 0, 52, 0
3, 54240, Note_on_c, 0, 58, 67
3, 54287, Note_on_c, 0, 58, 0
3, 54287, Note_on_c, 0, 55, 0
3, 54480, Control_c, 0, 64, 0
3, 54879, Control_c, 0, 64, 127
3, 54879, Note_on_c, 0, 35, 54
3, 55040, Note_on_c, 0, 35, 0
3, 55040, Note_on_c, 0, 40, 54
3, 55200, Note_on_c, 0, 40, 0
3, 55200, Note_on_c, 0, 43, 54
3, 55359, Note_on_c, 0, 43, 0
3, 55359, Note_on_c, 0, 47, 54
3, 55520, Note_on_c, 0, 47, 0
3, 55520, Note_on_c, 0, 52, 54
3, 55680, Note_on_c, 0, 52, 0
3, 55680, Note_on_c, 0, 55, 54
3, 55727, Note_on_c, 0, 55, 0
3, 55920, Control_c, 0, 64, 0
3, 56319, Control_c, 0, 64, 127
3, 56319, Note_on_c, 0, 34, 67
3, 56480, Note_on_c, 0, 34, 0
3, 56480, Note_on_c, 0, 46, 67
3, 56640, Note_on_c, 0, 46, 0
3, 56640, Note_on_c, 0, 49, 67
3, 56799, Note_on_c, 0, 49, 0
3, 56799, Note_on_c, 0, 52, 67
3, 56960, Note_on_c, 0, 52, 0
3, 56960, Note_on_c, 0, 55, 67
3, 57060, Note_on_c, 0, 58, 67
3, 57120, Note_on_c, 0, 55, 0
3, 57120, Note_on_c, 0, 64, 67
3, 57360, Note_on_c, 0, 64, 0
3, 57360, Note_on_c, 0, 58, 0
3, 57360, Control_c, 0, 64, 0
3, 57600, Control_c, 0, 64, 127
3, 57600, Note_on_c, 0, 35, 67
3, 57759, Note_on_c, 0, 35, 0
3, 57759, Note_on_c, 0, 47, 67
3, 57920, Note_on_c, 0, 47, 0
3, 57920, Note_on_c, 0, 50, 67
3, 58080, Note_on_c, 0, 50, 0
3, 58080, Note_on_c, 0, 54, 67
3, 58239, Note_on_c, 0, 54, 0
3, 58239, Note_on_c, 0, 59, 67
3, 58400, Note_on_c, 0, 59, 0
3, 58400, Note_on_c, 0, 62, 67
3, 58480, Note_on_c, 0, 54, 67
3, 58520, Note_on_c, 0, 59, 67
3, 58560, Note_on_c, 0, 62, 0
3, 58560, Note_on_c, 0, 66, 67
3, 58800, Note_on_c, 0, 66, 0
3, 58800, Note_on_c, 0, 59, 0
3, 58800, Note_on_c, 0, 54, 0
3, 58800, Control_c, 0, 64, 0
3, 59199, Control_c, 0, 64, 127
3, 59199, Note_on_c, 0, 42, 54
3, 59360, Note_on_c, 0, 42, 0
3, 59360, Note_on_c, 0, 48, 54
3, 59520, Note_on_c, 0, 48, 0
3, 59520, Note_on_c, 0, 50, 54
3, 59679, Note_on_c, 0, 50, 0
3, 59679, Note_on_c, 0, 54, 54
3, 59840, Note_on_c, 0, 54, 0
3, 59840, Note_on_c, 0, 57, 54
3, 59920, Note_on_c, 0, 60, 54
3, 59960, Note_on_c, 0, 62, 54
3, 60000, Note_on_c, 0, 57, 0
3, 60000, Note_on_c, 0, 66, 54
3, 60240, Note_on_c, 0, 66, 0
3, 60240, Note_on_c, 0, 62, 0
3, 60240, Note_on_c, 0, 60, 0
3, 60240, Control_c, 0, 64, 0
3, 60639, Control_c, 0, 64, 127
3, 60639, Note_on_c, 0, 43, 54
3, 60800, Note_on_c, 0, 43, 0
3, 60800, Note_on_c, 0, 47, 54
3, 60960, Note_on_c, 0, 47, 0
3, 60960, Note_on_c, 0, 50, 54
3, 61119, Note_on_c, 0, 50, 0
3, 61119, Note_on_c, 0, 55, 54
3, 61280, Note_on_c, 0, 55, 0
3, 61280, Note_on_c, 0, 59, 54
3, 61440, Note_on_c, 0, 59, 0
3, 61440, Note_on_c, 0, 62, 54
3, 61440, Note_on_c, 0, 67, 54
3, 61680, Note_on_c, 0, 67, 0
3, 61680, Note_on_c, 0, 62, 0
3, 61680, Control_c, 0, 64, 0
3, 62310, Note_on_c, 0, 43, 54
3, 62340, Note_on_c, 0, 49, 54
3, 62370, Note_on_c, 0, 52, 54
3, 62400, Note_on_c, 0, 59, 54
3, 63360, Note_on_c, 0, 59, 0
3, 63360, Note_on_c, 0, 43, 0
3, 63360, Note_on_c, 0, 49, 0
3, 63360, Note_on_c, 0, 52, 0
3, 63360, Note_on_c, 0, 42, 67
3, 63360, Note_on_c, 0, 49, 67
3, 63360, Note_on_c, 0, 54, 67
3, 63600, Note_on_c, 0, 49, 0
3, 63600, Note_on_c, 0, 42, 0
3, 63600, Note_on_c, 0, 47, 67
3, 63840, Note_on_c, 0, 54, 0
3, 63840, Note_on_c, 0, 40, 67
3, 63840, Note_on_c, 0, 52, 67
3, 64320, Note_on_c, 0, 52, 0
3, 64320, Note_on_c, 0, 40, 0
3, 64320, Note_on_c, 0, 47, 0
3, 64320, Note_on_c, 0, 33, 54
3, 64320, Note_on_c, 0, 45, 54
3, 64320, Note_on_c, 0, 55, 54
3, 64320, Note_on_c, 0, 57, 54
3, 64320, Note_on_c, 0, 61, 54
3, 65280, Note_on_c, 0, 61, 0
3, 65280, Note_on_c, 0, 55, 0
3, 65280, Note_on_c, 0, 33, 0
3, 65280, Note_on_c, 0, 45, 0
3, 65280, Note_on_c, 0, 57, 0
3, 65280, Control_c, 0, 64, 127
3, 65280, Note_on_c, 0, 38, 54
3, 65280, Note_on_c, 0, 50, 54
3, 65520, Note_on_c, 0, 50, 0
3, 65520, Note_on_c, 0, 38, 0
3, 65520, Note_on_c, 0, 50, 54
3, 65520, Note_on_c, 0, 54, 54
3, 65640, Note_on_c, 0, 54, 0
3, 65640, Note_on_c, 0, 50, 0
3, 65760, Note_on_c, 0, 50, 54
3, 65760, Note_on_c, 0, 54, 54
3, 65760, Note_on_c, 0, 59, 54
3, 65880, Note_on_c, 0, 59, 0
3, 65880, Note_on_c, 0, 54, 0
3, 65880, Note_on_c, 0, 50, 0
3, 66000, Note_on_c, 0, 54, 54
3, 66000, Note_on_c, 0, 57, 54
3, 66000, Note_on_c, 0, 61, 54
3, 66120, Note_on_c, 0, 61, 0
3, 66120, Note_on_c, 0, 57, 0
3, 66120, Note_on_c, 0, 54, 0
3, 66240, Note_on_c, 0, 54, 54
3, 66240, Note_on_c, 0, 57, 54
3, 66240, Note_on_c, 0, 62, 54
3, 66360, Note_on_c, 0, 62, 0
3, 66360, Note_on_c, 0, 57, 0
3, 66360, Note_on_c, 0, 54, 0
3, 66480, Note_on_c, 0, 54, 54
3, 66480, Note_on_c, 0, 57, 54
3, 66480, Note_on_c, 0, 64, 54
3, 66600, Note_on_c, 0, 64, 0
3, 66600, Note_on_c, 0, 57, 0
3, 66600, Note_on_c, 0, 54, 0
3, 66720, Note_on_c, 0, 57, 54
3, 66720, Note_on_c, 0, 62, 54
3, 66720, Note_on_c, 0, 66, 54
3, 66840, Note_on_c, 0, 66, 0
3, 66840, Note_on_c, 0, 62, 0
3, 66840, Note_on_c, 0, 57, 0
3, 66960, Note_on_c, 0, 57, 54
3, 66960, Note_on_c, 0, 62, 54
3, 66960, Note_on_c, 0, 67, 54
3, 67080, Note_on_c, 0, 67, 0
3, 67080, Note_on_c, 0, 62, 0
3, 67080, Note_on_c, 0, 57, 0
3, 67200, Note_on_c, 0, 57, 54
3, 67200, Note_on_c, 0, 62, 54
3, 67200, Note_on_c, 0, 69, 54
3, 67320, Note_on_c, 0, 69, 0
3, 67320, Note_on_c, 0, 62, 0
3, 67320, Note_on_c, 0, 57, 0
3, 67320, Control_c, 0, 64, 0
3, 67440, Control_c, 0, 64, 127
3, 67440, Note_on_c, 0, 38, 54
3, 67440, Note_on_c, 0, 50, 54
3, 67680, Note_on_c, 0, 50, 0
3, 67680, Note_on_c, 0, 38, 0
3, 67680, Note_on_c, 0, 52, 54
3, 67680, Note_on_c, 0, 55, 54
3, 67800, Note_on_c, 0, 55, 0
3, 67800, Note_on_c, 0, 52, 0
3, 67920, Note_on_c, 0, 52, 54
3, 67920, Note_on_c, 0, 55, 54
3, 67920, Note_on_c, 0, 61, 54
3, 68040, Note_on_c, 0, 61, 0
3, 68040, Note_on_c, 0, 55, 0
3, 68040, Note_on_c, 0, 52, 0
3, 68160, Note_on_c, 0, 55, 54
3, 68160, Note_on_c, 0, 59, 54
3, 68160, Note_on_c, 0, 63, 54
3, 68280, Note_on_c, 0, 63, 0
3, 68280, Note_on_c, 0, 59, 0
3, 68280, Note_on_c, 0, 55, 0
3, 68400, Note_on_c, 0, 55, 54
3, 68400, Note_on_c, 0, 59, 54
3, 68400, Note_on_c, 0, 64, 54
3, 68520, Note_on_c, 0, 64, 0
3, 68520, Note_on_c, 0, 59, 0
3, 68520, Note_on_c, 0, 55, 0
3, 68640, Note_on_c, 0, 55, 54
3, 68640, Note_on_c, 0, 59, 54
3, 68640, Note_on_c, 0, 66, 54
3, 68760, Note_on_c, 0, 66, 0
3, 68760, Note_on_c, 0, 59, 0
3, 68760, Note_on_c, 0, 55, 0
3, 68880, Note_on_c, 0, 59, 54
3, 68880, Note_on_c, 0, 64, 54
3, 68880, Note_on_c, 0, 67, 54
3, 69000, Note_on_c, 0, 67, 0
3, 69000, Note_on_c, 0, 64, 0
3, 69000, Note_on_c, 0, 59, 0
3, 69120, Note_on_c, 0, 59, 54
3, 69120, Note_on_c, 0, 64, 54
3, 69120, Note_on_c, 0, 69, 54
3, 69240, Note_on_c, 0, 69, 0
3, 69240, Note_on_c, 0, 64, 0
3, 69240, Note_on_c, 0, 59, 0
3, 69360, Note_on_c, 0, 59, 54
3, 69360, Note_on_c, 0, 64, 54
3, 69360, Note_on_c, 0, 71, 54
3, 69431, Control_c, 0, 64, 0
3, 69480, Note_on_c, 0, 71, 0
3, 69480, Note_on_c, 0, 64, 0
3, 69480, Note_on_c, 0, 59, 0
3, 69480, Control_c, 0, 64, 0
3, 69600, Control_c, 0, 64, 127
3, 69600, Note_on_c, 0, 38, 54
3, 69600, Note_on_c, 0, 50, 54
3, 69840, Note_on_c, 0, 50, 0
3, 69840, Note_on_c, 0, 38, 0
3, 69840, Note_on_c, 0, 52, 54
3, 69840, Note_on_c, 0, 55, 54
3, 69960, Note_on_c, 0, 55, 0
3, 69960, Note_on_c, 0, 52, 0
3, 70080, Note_on_c, 0, 52, 54
3, 70080, Note_on_c, 0, 55, 54
3, 70080, Note_on_c, 0, 59, 54
3, 70200, Note_on_c, 0, 59, 0
3, 70200, Note_on_c, 0, 55, 0
3, 70200, Note_on_c, 0, 52, 0
3, 70320, Note_on_c, 0, 55, 54
3, 70320, Note_on_c, 0, 57, 54
3, 70320, Note_on_c, 0, 61, 54
3, 70440, Note_on_c, 0, 61, 0
3, 70440, Note_on_c, 0, 57, 0
3, 70440, Note_on_c, 0, 55, 0
3, 70560, Note_on_c, 0, 55, 54
3, 70560, Note_on_c, 0, 57, 54
3, 70560, Note_on_c, 0, 62, 54
3, 70680, Note_on_c, 0, 62, 0
3, 70680, Note_on_c, 0, 57, 0
3, 70680, Note_on_c, 0, 55, 0
3, 70800, Note_on_c, 0, 55, 54
3, 70800, Note_on_c, 0, 57, 54
3, 70800, Note_on_c, 0, 63, 54
3, 70920, Note_on_c, 0, 63, 0
3, 70920, Note_on_c, 0, 57, 0
3, 70920, Note_on_c, 0, 55, 0
3, 71040, Note_on_c, 0, 55, 54
3, 71040, Note_on_c, 0, 61, 54
3, 71040, Note_on_c, 0, 64, 54
3, 71160, Note_on_c, 0, 64, 0
3, 71160, Note_on_c, 0, 61, 0
3, 71160, Note_on_c, 0, 55, 0
3, 71280, Note_on_c, 0, 55, 54
3, 71280, Note_on_c, 0, 61, 54
3, 71280, Note_on_c, 0, 66, 54
3, 71400, Note_on_c, 0, 66, 0
3, 71400, Note_on_c, 0, 61, 0
3, 71400, Note_on_c, 0, 55, 0
3, 71520, Note_on_c, 0, 55, 54
3, 71520, Note_on_c, 0, 61, 54
3, 71520, Note_on_c, 0, 67, 54
3, 71640, Note_on_c, 0, 67, 0
3, 71640, Note_on_c, 0, 61, 0
3, 71640, Note_on_c, 0, 55, 0
3, 71640, Control_c, 0, 64, 0
3, 71760, Control_c, 0, 64, 127
3, 71760, Note_on_c, 0, 38, 54
3, 71760, Note_on_c, 0, 50, 54
3, 72000, Note_on_c, 0, 50, 0
3, 72000, Note_on_c, 0, 38, 0
3, 72000, Note_on_c, 0, 50, 54
3, 72000, Note_on_c, 0, 54, 54
3, 72120, Note_on_c, 0, 54, 0
3, 72120, Note_on_c, 0, 50, 0
3, 72240, Note_on_c, 0, 50, 54
3, 72240, Note_on_c, 0, 54, 54
3, 72240, Note_on_c, 0, 59, 54
3, 72360, Note_on_c, 0, 59, 0
3, 72360, Note_on_c, 0, 54, 0
3, 72360, Note_on_c, 0, 50, 0
3, 72480, Note_on_c, 0, 54, 54
3, 72480, Note_on_c, 0, 57, 54
3, 72480, Note_on_c, 0, 61, 54
3, 72600, Note_on_c, 0, 61, 0
3, 72600, Note_on_c, 0, 57, 0
3, 72600, Note_on_c, 0, 54, 0
3, 72720, Note_on_c, 0, 54, 54
3, 72720, Note_on_c, 0, 57, 54
3, 72720, Note_on_c, 0, 62, 54
3, 72840, Note_on_c, 0, 62, 0
3, 72840, Note_on_c, 0, 57, 0
3, 72840, Note_on_c, 0, 54, 0
3, 72960, Note_on_c, 0, 54, 54
3, 72960, Note_on_c, 0, 57, 54
3, 72960, Note_on_c, 0, 64, 54
3, 73080, Note_on_c, 0, 64, 0
3, 73080, Note_on_c, 0, 57, 0
3, 73080, Note_on_c, 0, 54, 0
3, 73200, Note_on_c, 0, 57, 54
3, 73200, Note_on_c, 0, 62, 54
3, 73200, Note_on_c, 0, 66, 54
3, 73320, Note_on_c, 0, 66, 0
3, 73320, Note_on_c, 0, 62, 0
3, 73320, Note_on_c, 0, 57, 0
3, 73440, Note_on_c, 0, 57, 54
3, 73440, Note_on_c, 0, 62, 54
3, 73440, Note_on_c, 0, 67, 54
3, 73560, Note_on_c, 0, 67, 0
3, 73560, Note_on_c, 0, 62, 0
3, 73560, Note_on_c, 0, 57, 0
3, 73680, Note_on_c, 0, 57, 54
3, 73680, Note_on_c, 0, 62, 54
3, 73680, Note_on_c, 0, 69, 54
3, 73800, Note_on_c, 0, 69, 0
3, 73800, Note_on_c, 0, 62, 0
3, 73800, Note_on_c, 0, 57, 0
3, 73800, Control_c, 0, 64, 0
3, 73920, Control_c, 0, 64, 127
3, 73920, Note_on_c, 0, 38, 67
3, 73920, Note_on_c, 0, 50, 67
3, 74160, Note_on_c, 0, 50, 0
3, 74160, Note_on_c, 0, 38, 0
3, 74160, Note_on_c, 0, 50, 67
3, 74160, Note_on_c, 0, 54, 67
3, 74280, Note_on_c, 0, 54, 0
3, 74280, Note_on_c, 0, 50, 0
3, 74400, Note_on_c, 0, 50, 67
3, 74400, Note_on_c, 0, 54, 67
3, 74400, Note_on_c, 0, 59, 67
3, 74520, Note_on_c, 0, 59, 0
3, 74520, Note_on_c, 0, 54, 0
3, 74520, Note_on_c, 0, 50, 0
3, 74640, Note_on_c, 0, 54, 67
3, 74640, Note_on_c, 0, 57, 67
3, 74640, Note_on_c, 0, 61, 67
3, 74760, Note_on_c, 0, 61, 0
3, 74760, Note_on_c, 0, 57, 0
3, 74760, Note_on_c, 0, 54, 0
3, 74880, Note_on_c, 0, 54, 67
3, 74880, Note_on_c, 0, 57, 67
3, 74880, Note_on_c, 0, 62, 67
3, 75000, Note_on_c, 0, 62, 0
3, 75000, Note_on_c, 0, 57, 0
3, 75000, Note_on_c, 0, 54, 0
3, 75120, Note_on_c, 0, 54, 67
3, 75120, Note_on_c, 0, 57, 67
3, 75120, Note_on_c, 0, 64, 67
3, 75240, Note_on_c, 0, 64, 0
3, 75240, Note_on_c, 0, 57, 0
3, 75240, Note_on_c, 0, 54, 0
3, 75360, Note_on_c, 0, 57, 67
3, 75360, Note_on_c, 0, 62, 67
3, 75360, Note_on_c, 0, 66, 67
3, 75480, Note_on_c, 0, 66, 0
3, 75480, Note_on_c, 0, 62, 0
3, 75480, Note_on_c, 0, 57, 0
3, 75600, Note_on_c, 0, 57, 67
3, 75600, Note_on_c, 0, 62, 67
3, 75600, Note_on_c, 0, 67, 67
3, 75720, Note_on_c, 0, 67, 0
3, 75720, Note_on_c, 0, 62, 0
3, 75720, Note_on_c, 0, 57, 0
3, 75840, Note_on_c, 0, 57, 67
3, 75840, Note_on_c, 0, 62, 67
3, 75840, Note_on_c, 0, 69, 67
3, 75960, Note_on_c, 0, 69, 0
3, 75960, Note_on_c, 0, 62, 0
3, 75960, Note_on_c, 0, 57, 0
3, 75960, Control_c, 0, 64, 0
3, 76080, Control_c, 0, 64, 127
3, 76080, Note_on_c, 0, 38, 67
3, 76080, Note_on_c, 0, 50, 67
3, 76320, Note_on_c, 0, 50, 0
3, 76320, Note_on_c, 0, 38, 0
3, 76320, Note_on_c, 0, 50, 67
3, 76320, Note_on_c, 0, 54, 67
3, 76440, Note_on_c, 0, 54, 0
3, 76440, Note_on_c, 0, 50, 0
3, 76560, Note_on_c, 0, 54, 67
3, 76560, Note_on_c, 0, 59, 67
3, 76560, Note_on_c, 0, 61, 67
3, 76680, Note_on_c, 0, 61, 0
3, 76680, Note_on_c, 0, 59, 0
3, 76680, Note_on_c, 0, 54, 0
3, 76800, Note_on_c, 0, 54, 67
3, 76800, Note_on_c, 0, 59, 67
3, 76800, Note_on_c, 0, 62, 67
3, 76920, Note_on_c, 0, 62, 0
3, 76920, Note_on_c, 0, 59, 0
3, 76920, Note_on_c, 0, 54, 0
3, 77040, Note_on_c, 0, 59, 67
3, 77040, Note_on_c, 0, 62, 67
3, 77040, Note_on_c, 0, 64, 67
3, 77160, Note_on_c, 0, 64, 0
3, 77160, Note_on_c, 0, 62, 0
3, 77160, Note_on_c, 0, 59, 0
3, 77280, Note_on_c, 0, 59, 67
3, 77280, Note_on_c, 0, 62, 67
3, 77280, Note_on_c, 0, 66, 67
3, 77400, Note_on_c, 0, 66, 0
3, 77400, Note_on_c, 0, 62, 0
3, 77400, Note_on_c, 0, 59, 0
3, 77520, Note_on_c, 0, 62, 67
3, 77520, Note_on_c, 0, 66, 67
3, 77520, Note_on_c, 0, 68, 67
3, 77640, Note_on_c, 0, 68, 0
3, 77640, Note_on_c, 0, 66, 0
3, 77640, Note_on_c, 0, 62, 0
3, 77760, Note_on_c, 0, 62, 67
3, 77760, Note_on_c, 0, 66, 67
3, 77760, Note_on_c, 0, 70, 67
3, 77880, Note_on_c, 0, 70, 0
3, 77880, Note_on_c, 0, 66, 0
3, 77880, Note_on_c, 0, 62, 0
3, 78000, Note_on_c, 0, 62, 67
3, 78000, Note_on_c, 0, 66, 67
3, 78000, Note_on_c, 0, 71, 67
3, 78120, Note_on_c, 0, 71, 0
3, 78120, Note_on_c, 0, 66, 0
3, 78120, Note_on_c, 0, 62, 0
3, 78120, Control_c, 0, 64, 0
3, 78240, Control_c, 0, 64, 127
3, 78240, Note_on_c, 0, 37, 80
3, 78240, Note_on_c, 0, 49, 80
3, 78480, Note_on_c, 0, 49, 0
3, 78480, Note_on_c, 0, 37, 0
3, 78480, Note_on_c, 0, 53, 80
3, 78480, Note_on_c, 0, 56, 80
3, 78480, Note_on_c, 0, 59, 80
3, 78600, Note_on_c, 0, 59, 0
3, 78600, Note_on_c, 0, 56, 0
3, 78600, Note_on_c, 0, 53, 0
3, 78720, Note_on_c, 0, 53, 80
3, 78720, Note_on_c, 0, 56, 80
3, 78720, Note_on_c, 0, 59, 80
3, 78720, Note_on_c, 0, 62, 80
3, 78840, Note_on_c, 0, 62, 0
3, 78840, Note_on_c, 0, 53, 0
3, 78840, Note_on_c, 0, 56, 0
3, 78840, Note_on_c, 0, 59, 0
3, 78960, Note_on_c, 0, 53, 80
3, 78960, Note_on_c, 0, 56, 80
3, 78960, Note_on_c, 0, 59, 80
3, 78960, Note_on_c, 0, 63, 80
3, 79080, Note_on_c, 0, 63, 0
3, 79080, Note_on_c, 0, 53, 0
3, 79080, Note_on_c, 0, 56, 0
3, 79080, Note_on_c, 0, 59, 0
3, 79200, Note_on_c, 0, 56, 80
3, 79200, Note_on_c, 0, 59, 80
3, 79200, Note_on_c, 0, 61, 80
3, 79200, Note_on_c, 0, 65, 80
3, 79320, Note_on_c, 0, 65, 0
3, 79320, Note_on_c, 0, 56, 0
3, 79320, Note_on_c, 0, 59, 0
3, 79320, Note_on_c, 0, 61, 0
3, 79440, Note_on_c, 0, 56, 80
3, 79440, Note_on_c, 0, 59, 80
3, 79440, Note_on_c, 0, 61, 80
3, 79440, Note_on_c, 0, 66, 80
3, 79560, Note_on_c, 0, 66, 0
3, 79560, Note_on_c, 0, 56, 0
3, 79560, Note_on_c, 0, 59, 0
3, 79560, Note_on_c, 0, 61, 0
3, 79680, Note_on_c, 0, 59, 80
3, 79680, Note_on_c, 0, 61, 80
3, 79680, Note_on_c, 0, 65, 80
3, 79680, Note_on_c, 0, 68, 80
3, 79800, Note_on_c, 0, 68, 0
3, 79800, Note_on_c, 0, 59, 0
3, 79800, Note_on_c, 0, 61, 0
3, 79800, Note_on_c, 0, 65, 0
3, 79920, Note_on_c, 0, 59, 80
3, 79920, Note_on_c, 0, 61, 80
3, 79920, Note_on_c, 0, 65, 80
3, 79920, Note_on_c, 0, 69, 80
3, 80040, Note_on_c, 0, 69, 0
3, 80040, Note_on_c, 0, 59, 0
3, 80040, Note_on_c, 0, 61, 0
3, 80040, Note_on_c, 0, 65, 0
3, 80160, Note_on_c, 0, 59, 80
3, 80160, Note_on_c, 0, 61, 80
3, 80160, Note_on_c, 0, 65, 80
3, 80160, Note_on_c, 0, 71, 80
3, 80280, Note_on_c, 0, 71, 0
3, 80280, Note_on_c, 0, 59, 0
3, 80280, Note_on_c, 0, 61, 0
3, 80280, Note_on_c, 0, 65, 0
3, 80280, Control_c, 0, 64, 0
3, 80400, Control_c, 0, 64, 127
3, 80400, Note_on_c, 0, 42, 80
3, 80400, Note_on_c, 0, 54, 80
3, 80640, Note_on_c, 0, 54, 0
3, 80640, Note_on_c, 0, 42, 0
3, 80640, Note_on_c, 0, 57, 80
3, 80640, Note_on_c, 0, 61, 80
3, 80640, Note_on_c, 0, 66, 80
3, 80760, Note_on_c, 0, 66, 0
3, 80760, Note_on_c, 0, 61, 0
3, 80760, Note_on_c, 0, 57, 0
3, 80880, Note_on_c, 0, 61, 80
3, 80880, Note_on_c, 0, 66, 80
3, 80880, Note_on_c, 0, 69, 80
3, 81000, Note_on_c, 0, 69, 0
3, 81000, Note_on_c, 0, 66, 0
3, 81000, Note_on_c, 0, 61, 0
3, 81000, Control_c, 0, 64, 0
3, 81120, Control_c, 0, 64, 127
3, 81120, Note_on_c, 0, 39, 80
3, 81120, Note_on_c, 0, 51, 80
3, 81360, Note_on_c, 0, 51, 0
3, 81360, Note_on_c, 0, 39, 0
3, 81360, Note_on_c, 0, 54, 80
3, 81360, Note_on_c, 0, 57, 80
3, 81480, Note_on_c, 0, 57, 0
3, 81480, Note_on_c, 0, 54, 0
3, 81600, Note_on_c, 0, 54, 80
3, 81600, Note_on_c, 0, 57, 80
3, 81600, Note_on_c, 0, 61, 80
3, 81720, Note_on_c, 0, 61, 0
3, 81720, Note_on_c, 0, 57, 0
3, 81720, Note_on_c, 0, 54, 0
3, 81840, Note_on_c, 0, 54, 80
3, 81840, Note_on_c, 0, 57, 80
3, 81840, Note_on_c, 0, 63, 80
3, 81960, Note_on_c, 0, 63, 0
3, 81960, Note_on_c, 0, 57, 0
3, 81960, Note_on_c, 0, 54, 0
3, 82080, Note_on_c, 0, 57, 80
3, 82080, Note_on_c, 0, 59, 80
3, 82080, Note_on_c, 0, 64, 80
3, 82200, Note_on_c, 0, 64, 0
3, 82200, Note_on_c, 0, 59, 0
3, 82200, Note_on_c, 0, 57, 0
3, 82320, Note_on_c, 0, 57, 80
3, 82320, Note_on_c, 0, 59, 80
3, 82320, Note_on_c, 0, 66, 80
3, 82440, Note_on_c, 0, 66, 0
3, 82440, Note_on_c, 0, 59, 0
3, 82440, Note_on_c, 0, 57, 0
3, 82440, Control_c, 0, 64, 0
3, 82560, Control_c, 0, 64, 127
3, 82560, Note_on_c, 0, 40, 80
3, 82560, Note_on_c, 0, 52, 80
3, 82800, Note_on_c, 0, 52, 0
3, 82800, Note_on_c, 0, 40, 0
3, 82800, Note_on_c, 0, 52, 80
3, 82920, Note_on_c, 0, 52, 0
3, 83040, Note_on_c, 0, 52, 80
3, 83040, Note_on_c, 0, 55, 80
3, 83040, Note_on_c, 0, 57, 80
3, 83160, Note_on_c, 0, 57, 0
3, 83160, Note_on_c, 0, 55, 0
3, 83160, Note_on_c, 0, 52, 0
3, 83280, Note_on_c, 0, 52, 80
3, 83280, Note_on_c, 0, 55, 80
3, 83280, Note_on_c, 0, 59, 80
3, 83400, Note_on_c, 0, 59, 0
3, 83400, Note_on_c, 0, 55, 0
3, 83400, Note_on_c, 0, 52, 0
3, 83520, Note_on_c, 0, 52, 80
3, 83520, Note_on_c, 0, 55, 80
3, 83520, Note_on_c, 0, 61, 80
3, 83640, Note_on_c, 0, 61, 0
3, 83640, Note_on_c, 0, 55, 0
3, 83640, Note_on_c, 0, 52, 0
3, 83760, Note_on_c, 0, 55, 67
3, 83760, Note_on_c, 0, 59, 67
3, 83760, Note_on_c, 0, 63, 67
3, 83880, Note_on_c, 0, 63, 0
3, 83880, Note_on_c, 0, 59, 0
3, 83880, Note_on_c, 0, 55, 0
3, 84000, Note_on_c, 0, 55, 67
3, 84000, Note_on_c, 0, 59, 67
3, 84000, Note_on_c, 0, 64, 67
3, 84120, Note_on_c, 0, 64, 0
3, 84120, Note_on_c, 0, 59, 0
3, 84120, Note_on_c, 0, 55, 0
3, 84240, Note_on_c, 0, 55, 67
3, 84240, Note_on_c, 0, 59, 67
3, 84240, Note_on_c, 0, 63, 67
3, 84360, Note_on_c, 0, 63, 0
3, 84360, Note_on_c, 0, 59, 0
3, 84360, Note_on_c, 0, 55, 0
3, 84480, Note_on_c, 0, 55, 67
3, 84480, Note_on_c, 0, 59, 67
3, 84480, Note_on_c, 0, 64, 67
3, 84600, Note_on_c, 0, 64, 0
3, 84600, Note_on_c, 0, 59, 0
3, 84600, Note_on_c, 0, 55, 0
3, 84600, Control_c, 0, 64, 0
3, 84720, Control_c, 0, 64, 127
3, 84720, Note_on_c, 0, 33, 54
3, 84720, Note_on_c, 0, 45, 54
3, 84960, Note_on_c, 0, 45, 0
3, 84960, Note_on_c, 0, 33, 0
3, 84960, Note_on_c, 0, 52, 54
3, 84960, Note_on_c, 0, 55, 54
3, 85080, Note_on_c, 0, 55, 0
3, 85080, Note_on_c, 0, 52, 0
3, 85200, Note_on_c, 0, 52, 54
3, 85200, Note_on_c, 0, 55, 54
3, 85200, Note_on_c, 0, 59, 54
3, 85320, Note_on_c, 0, 59, 0
3, 85320, Note_on_c, 0, 55, 0
3, 85320, Note_on_c, 0, 52, 0
3, 85440, Note_on_c, 0, 52, 54
3, 85440, Note_on_c, 0, 55, 54
3, 85440, Note_on_c, 0, 61, 54
3, 85560, Note_on_c, 0, 61, 0
3, 85560, Note_on_c, 0, 55, 0
3, 85560, Note_on_c, 0, 52, 0
3, 85680, Note_on_c, 0, 55, 54
3, 85680, Note_on_c, 0, 61, 54
3, 85680, Note_on_c, 0, 64, 54
3, 85800, Note_on_c, 0, 64, 0
3, 85800, Note_on_c, 0, 61, 0
3, 85800, Note_on_c, 0, 55, 0
3, 85920, Note_on_c, 0, 55, 54
3, 85920, Note_on_c, 0, 61, 54
3, 85920, Note_on_c, 0, 66, 54
3, 86040, Note_on_c, 0, 66, 0
3, 86040, Note_on_c, 0, 61, 0
3, 86040, Note_on_c, 0, 55, 0
3, 86160, Note_on_c, 0, 61, 54
3, 86160, Note_on_c, 0, 64, 54
3, 86160, Note_on_c, 0, 67, 54
3, 86280, Note_on_c, 0, 67, 0
3, 86280, Note_on_c, 0, 64, 0
3, 86280, Note_on_c, 0, 61, 0
3, 86400, Note_on_c, 0, 61, 54
3, 86400, Note_on_c, 0, 64, 54
3, 86400, Note_on_c, 0, 68, 54
3, 86520, Note_on_c, 0, 68, 0
3, 86520, Note_on_c, 0, 64, 0
3, 86520, Note_on_c, 0, 61, 0
3, 86640, Note_on_c, 0, 61, 54
3, 86640, Note_on_c, 0, 64, 54
3, 86640, Note_on_c, 0, 69, 54
3, 86760, Note_on_c, 0, 69, 0
3, 86760, Note_on_c, 0, 64, 0
3, 86760, Note_on_c, 0, 61, 0
3, 86760, Control_c, 0, 64, 0
3, 86880, Note_on_c, 0, 38, 54
3, 86880, Note_on_c, 0, 50, 54
3, 87120, Note_on_c, 0, 50, 0
3, 87120, Note_on_c, 0, 38, 0
3, 87120, Note_on_c, 0, 54, 54
3, 87120, Note_on_c, 0, 57, 54
3, 87360, Note_on_c, 0, 57, 0
3, 87360, Note_on_c, 0, 54, 0
3, 87600, Note_on_c, 0, 37, 67
3, 87600, Note_on_c, 0, 49, 67
3, 87840, Note_on_c, 0, 49, 0
3, 87840, Note_on_c, 0, 37, 0
3, 87840, Note_on_c, 0, 52, 67
3, 87840, Note_on_c, 0, 57, 67
3, 88080, Note_on_c, 0, 57, 0
3, 88080, Note_on_c, 0, 52, 0
3, 88320, Note_on_c, 0, 35, 80
3, 88320, Note_on_c, 0, 47, 80
3, 88560, Note_on_c, 0, 47, 0
3, 88560, Note_on_c, 0, 35, 0
3, 88560, Note_on_c, 0, 54, 80
3, 88560, Note_on_c, 0, 59, 80
3, 88800, Note_on_c, 0, 59, 0
3, 88800, Note_on_c, 0, 54, 0
3, 89040, Note_on_c, 0, 33, 80
3, 89040, Note_on_c, 0, 45, 80
3, 89280, Note_on_c, 0, 45, 0
3, 89280, Note_on_c, 0, 33, 0
3, 89280, Note_on_c, 0, 55, 80
3, 89280, Note_on_c, 0, 57, 80
3, 89520, Note_on_c, 0, 57, 0
3, 89520, Note_on_c, 0, 55, 0
3, 89760, Note_on_c, 0, 35, 67
3, 89760, Note_on_c, 0, 47, 67
3, 90000, Note_on_c, 0, 47, 0
3, 90000, Note_on_c, 0, 35, 0
3, 90000, Note_on_c, 0, 55, 67
3, 90000, Note_on_c, 0, 57, 67
3, 90240, Note_on_c, 0, 57, 0
3, 90240, Note_on_c, 0, 55, 0
3, 90480, Note_on_c, 0, 37, 54
3, 90480, Note_on_c, 0, 49, 54
3, 90720, Note_on_c, 0, 49, 0
3, 90720, Note_on_c, 0, 37, 0
3, 90720, Note_on_c, 0, 55, 54
3, 90720, Note_on_c, 0, 57, 54
3, 90960, Note_on_c, 0, 57, 0
3, 90960, Note_on_c, 0, 55, 0
3, 91200, Note_on_c, 0, 38, 54
3, 91200, Note_on_c, 0, 50, 54
3, 91440, Note_on_c, 0, 50, 0
3, 91440, Note_on_c, 0, 38, 0
3, 91440, Note_on_c, 0, 54, 54
3, 91440, Note_on_c, 0, 57, 54
3, 91680, Note_on_c, 0, 57, 0
3, 91680, Note_on_c, 0, 54, 0
3, 91920, Note_on_c, 0, 37, 67
3, 91920, Note_on_c, 0, 49, 67
3, 92160, Note_on_c, 0, 49, 0
3, 92160, Note_on_c, 0, 37, 0
3, 92160, Note_on_c, 0, 52, 67
3, 92160, Note_on_c, 0, 57, 67
3, 92400, Note_on_c, 0, 57, 0
3, 92400, Note_on_c, 0, 52, 0
3, 92640, Note_on_c, 0, 35, 80
3, 92640, Note_on_c, 0, 47, 80
3, 92880, Note_on_c, 0, 47, 0
3, 92880, Note_on_c, 0, 35, 0
3, 92880, Note_on_c, 0, 54, 80
3, 92880, Note_on_c, 0, 59, 80
3, 93120, Note_on_c, 0, 59, 0
3, 93120, Note_on_c, 0, 54, 0
3, 93360, Note_on_c, 0, 33, 80
3, 93360, Note_on_c, 0, 45, 80
3, 93600, Note_on_c, 0, 45, 0
3, 93600, Note_on_c, 0, 33, 0
3, 93600, Note_on_c, 0, 55, 80
3, 93600, Note_on_c, 0, 57, 80
3, 93840, Note_on_c, 0, 57, 0
3, 93840, Note_on_c, 0, 55, 0
3, 94080, Note_on_c, 0, 35, 67
3, 94080, Note_on_c, 0, 47, 67
3, 94320, Note_on_c, 0, 47, 0
3, 94320, Note_on_c, 0, 35, 0
3, 94320, Note_on_c, 0, 55, 67
3, 94320, Note_on_c, 0, 57, 67
3, 94560, Note_on_c, 0, 57, 0
3, 94560, Note_on_c, 0, 55, 0
3, 94800, Note_on_c, 0, 37, 54
3, 94800, Note_on_c, 0, 49, 54
3, 95040, Note_on_c, 0, 49, 0
3, 95040, Note_on_c, 0, 37, 0
3, 95040, Note_on_c, 0, 55, 54
3, 95040, Note_on_c, 0, 57, 54
3, 95280, Note_on_c, 0, 57, 0
3, 95280, Note_on_c, 0, 55, 0
3, 95520, Note_on_c, 0, 38, 54
3, 95520, Note_on_c, 0, 50, 54
3, 95760, Note_on_c, 0, 50, 0
3, 95760, Note_on_c, 0, 38, 0
3, 95760, Note_on_c, 0, 57, 54
3, 95760, Note_on_c, 0, 62, 54
3, 96000, Note_on_c, 0, 62, 0
3, 96000, Note_on_c, 0, 57, 0
3, 96240, Note_on_c, 0, 42, 67
3, 96240, Note_on_c, 0, 54, 67
3, 96480, Note_on_c, 0, 54, 0
3, 96480, Note_on_c, 0, 42, 0
3, 96480, Note_on_c, 0, 60, 67
3, 96480, Note_on_c, 0, 62, 67
3, 96720, Note_on_c, 0, 62, 0
3, 96720, Note_on_c, 0, 60, 0
3, 96960, Note_on_c, 0, 38, 80
3, 96960, Note_on_c, 0, 50, 80
3, 97200, Note_on_c, 0, 50, 0
3, 97200, Note_on_c, 0, 38, 0
3, 97200, Note_on_c, 0, 60, 80
3, 97200, Note_on_c, 0, 62, 80
3, 97440, Note_on_c, 0, 62, 0
3, 97440, Note_on_c, 0, 60, 0
3, 97680, Control_c, 0, 64, 127
3, 97680, Note_on_c, 0, 43, 80
3, 97680, Note_on_c, 0, 47, 80
3, 97680, Note_on_c, 0, 50, 80
3, 97680, Note_on_c, 0, 55, 80
3, 97800, Note_on_c, 0, 55, 0
3, 97800, Note_on_c, 0, 43, 0
3, 97800, Note_on_c, 0, 47, 0
3, 97800, Note_on_c, 0, 50, 0
3, 97920, Note_on_c, 0, 67, 80
3, 97920, Note_on_c, 0, 71, 80
3, 97920, Note_on_c, 0, 74, 80
3, 98040, Note_on_c, 0, 74, 0
3, 98040, Note_on_c, 0, 71, 0
3, 98040, Note_on_c, 0, 67, 0
3, 98160, Note_on_c, 0, 62, 80
3, 98160, Note_on_c, 0, 67, 80
3, 98160, Note_on_c, 0, 71, 80
3, 98280, Note_on_c, 0, 71, 0
3, 98280, Note_on_c, 0, 67, 0
3, 98280, Note_on_c, 0, 62, 0
3, 98400, Note_on_c, 0, 59, 67
3, 98400, Note_on_c, 0, 62, 67
3, 98400, Note_on_c, 0, 67, 67
3, 98520, Note_on_c, 0, 67, 0
3, 98520, Note_on_c, 0, 62, 0
3, 98520, Note_on_c, 0, 59, 0
3, 98640, Note_on_c, 0, 62, 67
3, 98640, Note_on_c, 0, 67, 67
3, 98640, Note_on_c, 0, 71, 67
3, 98760, Note_on_c, 0, 71, 0
3, 98760, Note_on_c, 0, 67, 0
3, 98760, Note_on_c, 0, 62, 0
3, 98880, Note_on_c, 0, 59, 67
3, 98880, Note_on_c, 0, 62, 67
3, 98880, Note_on_c, 0, 67, 67
3, 99000, Note_on_c, 0, 67, 0
3, 99000, Note_on_c, 0, 62, 0
3, 99000, Note_on_c, 0, 59, 0
3, 99000, Control_c, 0, 64, 0
3, 99120, Control_c, 0, 64, 127
3, 99120, Note_on_c, 0, 59, 54
3, 99120, Note_on_c, 0, 63, 54
3, 99120, Note_on_c, 0, 69, 54
3, 99240, Note_on_c, 0, 69, 0
3, 99240, Note_on_c, 0, 63, 0
3, 99240, Note_on_c, 0, 59, 0
3, 99360, Note_on_c, 0, 57, 54
3, 99360, Note_on_c, 0, 59, 54
3, 99360, Note_on_c, 0, 63, 54
3, 99480, Note_on_c, 0, 63, 0
3, 99480, Note_on_c, 0, 59, 0
3, 99480, Note_on_c, 0, 57, 0
3, 99600, Note_on_c, 0, 51, 54
3, 99600, Note_on_c, 0, 57, 54
3, 99600, Note_on_c, 0, 59, 54
3, 99720, Note_on_c, 0, 59, 0
3, 99720, Note_on_c, 0, 57, 0
3, 99720, Note_on_c, 0, 51, 0
3, 99720, Control_c, 0, 64, 0
3, 99840, Note_on_c, 0, 52, 67
3, 99840, Note_on_c, 0, 55, 67
3, 99840, Note_on_c, 0, 59, 67
3, 100320, Note_on_c, 0, 59, 0
3, 100320, Note_on_c, 0, 55, 0
3, 100320, Note_on_c, 0, 52, 0
3, 100320, Note_on_c, 0, 40, 67
3, 100320, Note_on_c, 0, 52, 67
3, 100680, Note_on_c, 0, 52, 0
3, 100680, Note_on_c, 0, 40, 0
3, 100800, Note_on_c, 0, 52, 67
3, 100800, Note_on_c, 0, 55, 67
3, 100800, Note_on_c, 0, 59, 67
3, 100920, Note_on_c, 0, 59, 0
3, 100920, Note_on_c, 0, 55, 0
3, 100920, Note_on_c, 0, 52, 0
3, 101040, Note_on_c, 0, 55, 67
3, 101040, Note_on_c, 0, 59, 67
3, 101040, Note_on_c, 0, 64, 67
3, 101160, Note_on_c, 0, 64, 0
3, 101160, Note_on_c, 0, 59, 0
3, 101160, Note_on_c, 0, 55, 0
3, 101280, Note_on_c, 0, 59, 67
3, 101280, Note_on_c, 0, 64, 67
3, 101280, Note_on_c, 0, 67, 67
3, 101400, Note_on_c, 0, 67, 0
3, 101400, Note_on_c, 0, 64, 0
3, 101400, Note_on_c, 0, 59, 0
3, 101520, Note_on_c, 0, 64, 67
3, 101520, Note_on_c, 0, 67, 67
3, 101520, Note_on_c, 0, 71, 67
3, 101640, Note_on_c, 0, 71, 0
3, 101640, Note_on_c, 0, 67, 0
3, 101640, Note_on_c, 0, 64, 0
3, 101760, Note_on_c, 0, 67, 67
3, 101760, Note_on_c, 0, 71, 67
3, 101760, Note_on_c, 0, 76, 67
3, 101880, Note_on_c, 0, 76, 0
3, 101880, Note_on_c, 0, 71, 0
3, 101880, Note_on_c, 0, 67, 0
3, 102000, Note_on_c, 0, 50, 67
3, 102000, Note_on_c, 0, 52, 67
3, 102000, Note_on_c, 0, 55, 67
3, 102000, Note_on_c, 0, 59, 67
3, 102480, Note_on_c, 0, 59, 0
3, 102480, Note_on_c, 0, 50, 0
3, 102480, Note_on_c, 0, 52, 0
3, 102480, Note_on_c, 0, 55, 0
3, 102480, Note_on_c, 0, 38, 67
3, 102480, Note_on_c, 0, 50, 67
3, 102840, Note_on_c, 0, 50, 0
3, 102840, Note_on_c, 0, 38, 0
3, 102960, Note_on_c, 0, 52, 67
3, 102960, Note_on_c, 0, 55, 67
3, 102960, Note_on_c, 0, 59, 67
3, 103080, Note_on_c, 0, 59, 0
3, 103080, Note_on_c, 0, 55, 0
3, 103080, Note_on_c, 0, 52, 0
3, 103200, Note_on_c, 0, 55, 67
3, 103200, Note_on_c, 0, 59, 67
3, 103200, Note_on_c, 0, 64, 67
3, 103320, Note_on_c, 0, 64, 0
3, 103320, Note_on_c, 0, 59, 0
3, 103320, Note_on_c, 0, 55, 0
3, 103440, Note_on_c, 0, 59, 67
3, 103440, Note_on_c, 0, 64, 67
3, 103440, Note_on_c, 0, 67, 67
3, 103560, Note_on_c, 0, 67, 0
3, 103560, Note_on_c, 0, 64, 0
3, 103560, Note_on_c, 0, 59, 0
3, 103680, Note_on_c, 0, 64, 67
3, 103680, Note_on_c, 0, 67, 67
3, 103680, Note_on_c, 0, 71, 67
3, 103800, Note_on_c, 0, 71, 0
3, 103800, Note_on_c, 0, 67, 0
3, 103800, Note_on_c, 0, 64, 0
3, 103920, Note_on_c, 0, 67, 67
3, 103920, Note_on_c, 0, 71, 67
3, 103920, Note_on_c, 0, 76, 67
3, 104040, Note_on_c, 0, 76, 0
3, 104040, Note_on_c, 0, 71, 0
3, 104040, Note_on_c, 0, 67, 0
3, 104070, Note_on_c, 0, 48, 67
3, 104100, Note_on_c, 0, 52, 67
3, 104130, Note_on_c, 0, 55, 67
3, 104160, Note_on_c, 0, 58, 80
3, 104640, Note_on_c, 0, 58, 0
3, 104640, Note_on_c, 0, 48, 0
3, 104640, Note_on_c, 0, 52, 0
3, 104640, Note_on_c, 0, 55, 0
3, 104640, Note_on_c, 0, 36, 80
3, 104640, Note_on_c, 0, 48, 80
3, 105000, Note_on_c, 0, 48, 0
3, 105000, Note_on_c, 0, 36, 0
3, 105120, Note_on_c, 0, 52, 80
3, 105120, Note_on_c, 0, 55, 80
3, 105120, Note_on_c, 0, 58, 80
3, 105240, Note_on_c, 0, 58, 0
3, 105240, Note_on_c, 0, 55, 0
3, 105240, Note_on_c, 0, 52, 0
3, 105360, Note_on_c, 0, 55, 80
3, 105360, Note_on_c, 0, 58, 80
3, 105360, Note_on_c, 0, 62, 80
3, 105480, Note_on_c, 0, 62, 0
3, 105480, Note_on_c, 0, 58, 0
3, 105480, Note_on_c, 0, 55, 0
3, 105600, Note_on_c, 0, 58, 80
3, 105600, Note_on_c, 0, 64, 80
3, 105600, Note_on_c, 0, 67, 80
3, 105720, Note_on_c, 0, 67, 0
3, 105720, Note_on_c, 0, 64, 0
3, 105720, Note_on_c, 0, 58, 0
3, 105840, Note_on_c, 0, 64, 80
3, 105840, Note_on_c, 0, 67, 80
3, 105840, Note_on_c, 0, 70, 80
3, 105960, Note_on_c, 0, 70, 0
3, 105960, Note_on_c, 0, 67, 0
3, 105960, Note_on_c, 0, 64, 0
3, 106080, Note_on_c, 0, 67, 80
3, 106080, Note_on_c, 0, 70, 80
3, 106080, Note_on_c, 0, 76, 80
3, 106200, Note_on_c, 0, 76, 0
3, 106200, Note_on_c, 0, 70, 0
3, 106200, Note_on_c, 0, 67, 0
3, 106230, Note_on_c, 0, 47, 80
3, 106260, Note_on_c, 0, 52, 80
3, 106290, Note_on_c, 0, 55, 80
3, 106320, Note_on_c, 0, 59, 80
3, 106800, Note_on_c, 0, 59, 0
3, 106800, Note_on_c, 0, 47, 0
3, 106800, Note_on_c, 0, 52, 0
3, 106800, Note_on_c, 0, 55, 0
3, 106800, Note_on_c, 0, 35, 80
3, 106800, Note_on_c, 0, 47, 80
3, 107160, Note_on_c, 0, 47, 0
3, 107160, Note_on_c, 0, 35, 0
3, 107280, Note_on_c, 0, 52, 80
3, 107280, Note_on_c, 0, 55, 80
3, 107280, Note_on_c, 0, 59, 80
3, 107400, Note_on_c, 0, 59, 0
3, 107400, Note_on_c, 0, 55, 0
3, 107400, Note_on_c, 0, 52, 0
3, 107520, Note_on_c, 0, 55, 80
3, 107520, Note_on_c, 0, 59, 80
3, 107520, Note_on_c, 0, 64, 80
3, 107640, Note_on_c, 0, 64, 0
3, 107640, Note_on_c, 0, 59, 0
3, 107640, Note_on_c, 0, 55, 0
3, 107760, Note_on_c, 0, 59, 80
3, 107760, Note_on_c, 0, 64, 80
3, 107760, Note_on_c, 0, 67, 80
3, 107880, Note_on_c, 0, 67, 0
3, 107880, Note_on_c, 0, 64, 0
3, 107880, Note_on_c, 0, 59, 0
3, 108000, Note_on_c, 0, 64, 80
3, 108000, Note_on_c, 0, 67, 80
3, 108000, Note_on_c, 0, 71, 80
3, 108120, Note_on_c, 0, 71, 0
3, 108120, Note_on_c, 0, 67, 0
3, 108120, Note_on_c, 0, 64, 0
3, 108240, Note_on_c, 0, 67, 80
3, 108240, Note_on_c, 0, 71, 80
3, 108240, Note_on_c, 0, 76, 80
3, 108360, Note_on_c, 0, 76, 0
3, 108360, Note_on_c, 0, 71, 0
3, 108360, Note_on_c, 0, 67, 0
3, 108390, Note_on_c, 0, 46, 80
3, 108420, Note_on_c, 0, 52, 80
3, 108450, Note_on_c, 0, 55, 80
3, 108480, Note_on_c, 0, 61, 80
3, 108960, Note_on_c, 0, 61, 0
3, 108960, Note_on_c, 0, 46, 0
3, 108960, Note_on_c, 0, 52, 0
3, 108960, Note_on_c, 0, 55, 0
3, 108960, Note_on_c, 0, 34, 80
3, 108960, Note_on_c, 0, 46, 80
3, 109320, Note_on_c, 0, 46, 0
3, 109320, Note_on_c, 0, 34, 0
3, 109440, Note_on_c, 0, 52, 80
3, 109440, Note_on_c, 0, 55, 80
3, 109440, Note_on_c, 0, 61, 80
3, 109560, Note_on_c, 0, 61, 0
3, 109560, Note_on_c, 0, 55, 0
3, 109560, Note_on_c, 0, 52, 0
3, 109680, Note_on_c, 0, 55, 80
3, 109680, Note_on_c, 0, 61, 80
3, 109680, Note_on_c, 0, 64, 80
3, 109800, Note_on_c, 0, 64, 0
3, 109800, Note_on_c, 0, 61, 0
3, 109800, Note_on_c, 0, 55, 0
3, 109920, Note_on_c, 0, 61, 80
3, 109920, Note_on_c, 0, 64, 80
3, 109920, Note_on_c, 0, 67, 80
3, 110040, Note_on_c, 0, 67, 0
3, 110040, Note_on_c, 0, 64, 0
3, 110040, Note_on_c, 0, 61, 0
3, 110160, Note_on_c, 0, 64, 80
3, 110160, Note_on_c, 0, 67, 80
3, 110160, Note_on_c, 0, 73, 80
3, 110280, Note_on_c, 0, 73, 0
3, 110280, Note_on_c, 0, 67, 0
3, 110280, Note_on_c, 0, 64, 0
3, 110400, Control_c, 0, 64, 0
3, 110400, Note_on_c, 0, 67, 80
3, 110400, Note_on_c, 0, 73, 80
3, 110400, Note_on_c, 0, 76, 80
3, 110520, Note_on_c, 0, 76, 0
3, 110520, Note_on_c, 0, 73, 0
3, 110520, Note_on_c, 0, 67, 0
3, 110550, Note_on_c, 0, 47, 80
3, 110580, Note_on_c, 0, 50, 80
3, 110610, Note_on_c, 0, 54, 80
3, 110640, Note_on_c, 0, 59, 93
3, 111120, Note_on_c, 0, 59, 0
3, 111120, Note_on_c, 0, 47, 0
3, 111120, Note_on_c, 0, 50, 0
3, 111120, Note_on_c, 0, 54, 0
3, 111120, Note_on_c, 0, 35, 93
3, 111120, Note_on_c, 0, 47, 93
3, 111480, Note_on_c, 0, 47, 0
3, 111480, Note_on_c, 0, 35, 0
3, 111600, Note_on_c, 0, 50, 93
3, 111600, Note_on_c, 0, 54, 93
3, 111600, Note_on_c, 0, 59, 93
3, 111720, Note_on_c, 0, 59, 0
3, 111720, Note_on_c, 0, 54, 0
3, 111720, Note_on_c, 0, 50, 0
3, 111840, Note_on_c, 0, 54, 93
3, 111840, Note_on_c, 0, 59, 93
3, 111840, Note_on_c, 0, 62, 93
3, 111960, Note_on_c, 0, 62, 0
3, 111960, Note_on_c, 0, 59, 0
3, 111960, Note_on_c, 0, 54, 0
3, 112080, Note_on_c, 0, 59, 93
3, 112080, Note_on_c, 0, 62, 93
3, 112080, Note_on_c, 0, 66, 93
3, 112200, Note_on_c, 0, 66, 0
3, 112200, Note_on_c, 0, 62, 0
3, 112200, Note_on_c, 0, 59, 0
3, 112320, Note_on_c, 0, 62, 93
3, 112320, Note_on_c, 0, 66, 93
3, 112320, Note_on_c, 0, 71, 93
3, 112440, Note_on_c, 0, 71, 0
3, 112440, Note_on_c, 0, 66, 0
3, 112440, Note_on_c, 0, 62, 0
3, 112560, Note_on_c, 0, 66, 93
3, 112560, Note_on_c, 0, 71, 93
3, 112560, Note_on_c, 0, 74, 93
3, 112680, Note_on_c, 0, 74, 0
3, 112680, Note_on_c, 0, 71, 0
3, 112680, Note_on_c, 0, 66, 0
3, 112720, Note_on_c, 0, 47, 93
3, 112760, Note_on_c, 0, 54, 93
3, 112800, Note_on_c, 0, 59, 67
3, 113280, Note_on_c, 0, 59, 0
3, 113280, Note_on_c, 0, 54, 0
3, 113280, Note_on_c, 0, 47, 0
3, 113670, Note_on_c, 0, 45, 67
3, 113700, Note_on_c, 0, 50, 67
3, 113730, Note_on_c, 0, 54, 67
3, 113760, Note_on_c, 0, 60, 67
3, 114000, Note_on_c, 0, 60, 0
3, 114000, Note_on_c, 0, 45, 0
3, 114000, Note_on_c, 0, 50, 0
3, 114000, Note_on_c, 0, 54, 0
3, 114160, Note_on_c, 0, 43, 67
3, 114200, Note_on_c, 0, 50, 67
3, 114240, Note_on_c, 0, 55, 67
3, 114720, Note_on_c, 0, 55, 0
3, 114720, Note_on_c, 0, 50, 0
3, 114720, Note_on_c, 0, 43, 0
3, 115110, Note_on_c, 0, 42, 67
3, 115140, Note_on_c, 0, 47, 67
3, 115170, Note_on_c, 0, 54, 67
3, 115200, Note_on_c, 0, 57, 67
3, 115440, Note_on_c, 0, 57, 0
3, 115440, Note_on_c, 0, 42, 0
3, 115440, Note_on_c, 0, 47, 0
3, 115440, Note_on_c, 0, 54, 0
3, 115600, Note_on_c, 0, 40, 67
3, 115640, Note_on_c, 0, 47, 67
3, 115680, Note_on_c, 0, 55, 67
3, 116160, Note_on_c, 0, 55, 0
3, 116160, Note_on_c, 0, 47, 0
3, 116160, Note_on_c, 0, 40, 0
3, 117040, Note_on_c, 0, 42, 67
3, 117080, Note_on_c, 0, 49, 67
3, 117120, Note_on_c, 0, 58, 67
3, 117280, Note_on_c, 0, 47, 67
3, 117320, Note_on_c, 0, 54, 67
3, 117360, Note_on_c, 0, 58, 0
3, 117360, Note_on_c, 0, 42, 0
3, 117360, Note_on_c, 0, 49, 0
3, 117360, Note_on_c, 0, 59, 67
3, 117520, Note_on_c, 0, 40, 67
3, 117560, Note_on_c, 0, 47, 67
3, 117600, Note_on_c, 0, 59, 0
3, 117600, Note_on_c, 0, 54, 0
3, 117600, Note_on_c, 0, 47, 0
3, 117600, Note_on_c, 0, 56, 54
3, 117840, Note_on_c, 0, 56, 0
3, 117840, Note_on_c, 0, 40, 0
3, 117840, Note_on_c, 0, 47, 0
3, 117990, Note_on_c, 0, 33, 54
3, 118020, Note_on_c, 0, 45, 54
3, 118050, Note_on_c, 0, 55, 54
3, 118080, Note_on_c, 0, 57, 54
3, 118320, Note_on_c, 0, 57, 0
3, 118320, Note_on_c, 0, 33, 0
3, 118320, Note_on_c, 0, 45, 0
3, 118320, Note_on_c, 0, 55, 0
3, 118950, Note_on_c, 0, 38, 54
3, 118980, Note_on_c, 0, 45, 54
3, 119010, Note_on_c, 0, 50, 54
3, 119040, Note_on_c, 0, 54, 54
3, 119520, Note_on_c, 0, 54, 0
3, 119520, Note_on_c, 0, 38, 0
3, 119520, Note_on_c, 0, 45, 0
3, 119520, Note_on_c, 0, 50, 0
3, 160710, Note_on_c, 0, 45, 54
3, 160740, Note_on_c, 0, 50, 54
3, 160770, Note_on_c, 0, 54, 54
3, 160800, Control_c, 0, 64, 127
3, 160800, Note_on_c, 0, 57, 54
3, 161040, Note_on_c, 0, 57, 0
3, 161040, Note_on_c, 0, 45, 0
3, 161040, Note_on_c, 0, 50, 0
3, 161040, Note_on_c, 0, 54, 0
3, 161040, Note_on_c, 0, 33, 54
3, 161280, Note_on_c, 0, 45, 54
3, 161430, Note_on_c, 0, 42, 54
3, 161460, Note_on_c, 0, 45, 54
3, 161490, Note_on_c, 0, 50, 54
3, 161520, Note_on_c, 0, 45, 0
3, 161520, Note_on_c, 0, 33, 0
3, 161520, Note_on_c, 0, 54, 54
3, 161670, Note_on_c, 0, 45, 54
3, 161700, Note_on_c, 0, 50, 54
3, 161730, Note_on_c, 0, 54, 54
3, 161760, Note_on_c, 0, 54, 0
3, 161760, Note_on_c, 0, 45, 0
3, 161760, Note_on_c, 0, 50, 0
3, 161760, Note_on_c, 0, 42, 0
3, 161760, Note_on_c, 0, 57, 54
3, 161910, Note_on_c, 0, 50, 54
3, 161940, Note_on_c, 0, 54, 54
3, 161970, Note_on_c, 0, 57, 54
3, 162000, Note_on_c, 0, 57, 0
3, 162000, Note_on_c, 0, 54, 0
3, 162000, Note_on_c, 0, 50, 0
3, 162000, Note_on_c, 0, 45, 0
3, 162000, Note_on_c, 0, 62, 54
3, 162240, Note_on_c, 0, 62, 0
3, 162240, Note_on_c, 0, 54, 0
3, 162240, Note_on_c, 0, 50, 0
3, 162240, Note_on_c, 0, 57, 0
3, 162240, Control_c, 0, 64, 0
3, 162240, Note_on_c, 0, 54, 54
3, 162240, Note_on_c, 0, 57, 54
3, 162240, Note_on_c, 0, 62, 54
3, 162240, Note_on_c, 0, 66, 54
3, 163200, Note_on_c, 0, 66, 0
3, 163200, Note_on_c, 0, 54, 0
3, 163200, Note_on_c, 0, 57, 0
3, 163200, Note_on_c, 0, 62, 0
3, 163200, Note_on_c, 0, 45, 67
3, 163200, Note_on_c, 0, 50, 67
3, 163200, Note_on_c, 0, 54, 67
3, 163200, Note_on_c, 0, 57, 67
3, 163590, Note_on_c, 0, 43, 67
3, 163620, Note_on_c, 0, 47, 67
3, 163650, Note_on_c, 0, 52, 67
3, 163680, Note_on_c, 0, 57, 0
3, 163680, Note_on_c, 0, 54, 0
3, 163680, Note_on_c, 0, 45, 0
3, 163680, Note_on_c, 0, 50, 0
3, 163680, Control_c, 0, 64, 127
3, 163680, Note_on_c, 0, 55, 67
3, 163920, Note_on_c, 0, 55, 0
3, 163920, Note_on_c, 0, 47, 0
3, 163920, Note_on_c, 0, 43, 0
3, 163920, Note_on_c, 0, 52, 0
3, 163920, Note_on_c, 0, 31, 67
3, 164160, Note_on_c, 0, 43, 67
3, 164310, Note_on_c, 0, 40, 67
3, 164340, Note_on_c, 0, 43, 67
3, 164370, Note_on_c, 0, 47, 67
3, 164400, Note_on_c, 0, 43, 0
3, 164400, Note_on_c, 0, 31, 0
3, 164400, Note_on_c, 0, 52, 67
3, 164550, Note_on_c, 0, 43, 67
3, 164580, Note_on_c, 0, 47, 67
3, 164610, Note_on_c, 0, 52, 67
3, 164640, Note_on_c, 0, 52, 0
3, 164640, Note_on_c, 0, 43, 0
3, 164640, Note_on_c, 0, 47, 0
3, 164640, Note_on_c, 0, 40, 0
3, 164640, Note_on_c, 0, 55, 67
3, 164790, Note_on_c, 0, 47, 67
3, 164820, Note_on_c, 0, 52, 67
3, 164850, Note_on_c, 0, 55, 67
3, 164880, Note_on_c, 0, 55, 0
3, 164880, Note_on_c, 0, 52, 0
3, 164880, Note_on_c, 0, 47, 0
3, 164880, Note_on_c, 0, 43, 0
3, 164880, Note_on_c, 0, 59, 67
3, 165030, Note_on_c, 0, 52, 67
3, 165060, Note_on_c, 0, 55, 67
3, 165090, Note_on_c, 0, 59, 67
3, 165120, Note_on_c, 0, 59, 0
3, 165120, Note_on_c, 0, 55, 0
3, 165120, Note_on_c, 0, 52, 0
3, 165120, Note_on_c, 0, 47, 0
3, 165120, Note_on_c, 0, 64, 67
3, 165270, Note_on_c, 0, 47, 67
3, 165300, Note_on_c, 0, 52, 67
3, 165330, Note_on_c, 0, 55, 67
3, 165360, Note_on_c, 0, 64, 0
3, 165360, Note_on_c, 0, 59, 0
3, 165360, Note_on_c, 0, 55, 0
3, 165360, Note_on_c, 0, 52, 0
3, 165360, Note_on_c, 0, 59, 67
3, 165510, Note_on_c, 0, 52, 67
3, 165540, Note_on_c, 0, 55, 67
3, 165570, Note_on_c, 0, 59, 67
3, 165600, Note_on_c, 0, 59, 0
3, 165600, Note_on_c, 0, 55, 0
3, 165600, Note_on_c, 0, 52, 0
3, 165600, Note_on_c, 0, 47, 0
3, 165600, Note_on_c, 0, 64, 67
3, 165750, Note_on_c, 0, 55, 67
3, 165780, Note_on_c, 0, 59, 67
3, 165810, Note_on_c, 0, 64, 67
3, 165840, Note_on_c, 0, 64, 0
3, 165840, Note_on_c, 0, 59, 0
3, 165840, Note_on_c, 0, 55, 0
3, 165840, Note_on_c, 0, 52, 0
3, 165840, Note_on_c, 0, 67, 67
3, 166080, Note_on_c, 0, 67, 0
3, 166080, Note_on_c, 0, 59, 0
3, 166080, Note_on_c, 0, 55, 0
3, 166080, Note_on_c, 0, 64, 0
3, 166470, Note_on_c, 0, 52, 67
3, 166500, Note_on_c, 0, 55, 67
3, 166530, Note_on_c, 0, 59, 67
3, 166560, Note_on_c, 0, 64, 67
3, 166710, Note_on_c, 0, 47, 67
3, 166740, Note_on_c, 0, 52, 67
3, 166770, Note_on_c, 0, 55, 67
3, 166800, Note_on_c, 0, 64, 0
3, 166800, Note_on_c, 0, 59, 0
3, 166800, Note_on_c, 0, 52, 0
3, 166800, Note_on_c, 0, 55, 0
3, 166800, Note_on_c, 0, 59, 67
3, 166950, Note_on_c, 0, 43, 67
3, 166980, Note_on_c, 0, 47, 67
3, 167010, Note_on_c, 0, 52, 67
3, 167040, Note_on_c, 0, 59, 0
3, 167040, Note_on_c, 0, 55, 0
3, 167040, Note_on_c, 0, 52, 0
3, 167040, Note_on_c, 0, 47, 0
3, 167040, Note_on_c, 0, 55, 67
3, 167190, Note_on_c, 0, 40, 67
3, 167220, Note_on_c, 0, 43, 67
3, 167250, Note_on_c, 0, 47, 67
3, 167280, Note_on_c, 0, 55, 0
3, 167280, Note_on_c, 0, 52, 0
3, 167280, Note_on_c, 0, 47, 0
3, 167280, Note_on_c, 0, 43, 0
3, 167280, Note_on_c, 0, 52, 67
3, 167430, Note_on_c, 0, 35, 67
3, 167460, Note_on_c, 0, 40, 67
3, 167490, Note_on_c, 0, 43, 67
3, 167520, Note_on_c, 0, 52, 0
3, 167520, Note_on_c, 0, 47, 0
3, 167520, Note_on_c, 0, 43, 0
3, 167520, Note_on_c, 0, 40, 0
3, 167520, Note_on_c, 0, 47, 67
3, 167670, Note_on_c, 0, 31, 67
3, 167700, Note_on_c, 0, 35, 67
3, 167730, Note_on_c, 0, 40, 67
3, 167760, Note_on_c, 0, 47, 0
3, 167760, Note_on_c, 0, 43, 0
3, 167760, Note_on_c, 0, 40, 0
3, 167760, Note_on_c, 0, 35, 0
3, 167760, Note_on_c, 0, 43, 67
3, 167910, Note_on_c, 0, 28, 67
3, 167940, Note_on_c, 0, 31, 67
3, 167970, Note_on_c, 0, 35, 67
3, 168000, Note_on_c, 0, 43, 0
3, 168000, Note_on_c, 0, 40, 0
3, 168000, Note_on_c, 0, 35, 0
3, 168000, Note_on_c, 0, 31, 0
3, 168000, Note_on_c, 0, 40, 67
3, 168960, Note_on_c, 0, 40, 0
3, 168960, Note_on_c, 0, 31, 0
3, 168960, Note_on_c, 0, 28, 0
3, 168960, Note_on_c, 0, 35, 0
3, 168960, Control_c, 0, 64, 0
3, 169920, Note_on_c, 0, 43, 54
3, 169920, Note_on_c, 0, 50, 54
3, 170880, Note_on_c, 0, 50, 0
3, 170880, Note_on_c, 0, 43, 0
3, 170880, Note_on_c, 0, 49, 67
3, 171360, Note_on_c, 0, 49, 0
3, 171360, Note_on_c, 0, 42, 67
3, 171360, Note_on_c, 0, 49, 67
3, 171600, Note_on_c, 0, 49, 0
3, 171600, Note_on_c, 0, 42, 0
3, 171600, Note_on_c, 0, 47, 67
3, 171600, Note_on_c, 0, 54, 67
3, 171840, Note_on_c, 0, 54, 0
3, 171840, Note_on_c, 0, 40, 54
3, 171840, Note_on_c, 0, 52, 54
3, 172320, Note_on_c, 0, 52, 0
3, 172320, Note_on_c, 0, 40, 0
3, 172320, Note_on_c, 0, 47, 0
3, 172320, Note_on_c, 0, 45, 54
3, 172320, Note_on_c, 0, 52, 54
3, 172320, Note_on_c, 0, 57, 54
3, 172800, Note_on_c, 0, 57, 0
3, 172800, Note_on_c, 0, 52, 0
3, 172800, Note_on_c, 0, 45, 0
3, 181140, Note_on_c, 0, 33, 54
3, 181140, Note_on_c, 0, 45, 54
3, 181140, Note_on_c, 0, 55, 54
3, 181140, Note_on_c, 0, 57, 54
3, 181140, Note_on_c, 0, 61, 54
3, 182964, Note_on_c, 0, 38, 54
3, 182988, Note_on_c, 0, 45, 54
3, 183012, Note_on_c, 0, 50, 54
3, 183036, Note_on_c, 0, 54, 54
3, 183060, Note_on_c, 0, 61, 0
3, 183060, Note_on_c, 0, 57, 0
3, 183060, Note_on_c, 0, 33, 0
3, 183060, Note_on_c, 0, 55, 0
3, 183060, Note_on_c, 0, 45, 0
3, 183060, Note_on_c, 0, 57, 54
3, 183540, Note_on_c, 0, 57, 0
3, 183540, Note_on_c, 0, 45, 0
3, 183540, Note_on_c, 0, 54, 0
3, 183540, Note_on_c, 0, 38, 0
3, 183540, Note_on_c, 0, 50, 0
3, 186810, Note_on_c, 0, 56, 54
3, 186840, Note_on_c, 0, 62, 54
3, 186870, Note_on_c, 0, 65, 54
3, 186900, Note_on_c, 0, 68, 54
3, 187380, Note_on_c, 0, 68, 0
3, 187380, Note_on_c, 0, 56, 0
3, 187380, Note_on_c, 0, 62, 0
3, 187380, Note_on_c, 0, 65, 0
3, 189690, Note_on_c, 0, 57, 67
3, 189720, Note_on_c, 0, 62, 67
3, 189750, Note_on_c, 0, 65, 67
3, 189780, Note_on_c, 0, 69, 67
3, 190260, Note_on_c, 0, 69, 0
3, 190260, Note_on_c, 0, 57, 0
3, 190260, Note_on_c, 0, 62, 0
3, 190260, Note_on_c, 0, 65, 0
3, 192570, Note_on_c, 0, 58, 67
3, 192600, Note_on_c, 0, 62, 67
3, 192630, Note_on_c, 0, 64, 67
3, 192660, Note_on_c, 0, 70, 67
3, 193140, Note_on_c, 0, 70, 0
3, 193140, Note_on_c, 0, 58, 0
3, 193140, Note_on_c, 0, 62, 0
3, 193140, Note_on_c, 0, 64, 0
3, 195450, Note_on_c, 0, 62, 67
3, 195480, Note_on_c, 0, 66, 67
3, 195510, Note_on_c, 0, 69, 67
3, 195540, Note_on_c, 0, 74, 67
3, 196020, Note_on_c, 0, 74, 0
3, 196020, Note_on_c, 0, 62, 0
3, 196020, Note_on_c, 0, 66, 0
3, 196020, Note_on_c, 0, 69, 0
3, 197700, Control_c, 0, 64, 127
3, 197700, Note_on_c, 0, 50, 80
3, 197730, Note_on_c, 0, 50, 0
3, 197730, Note_on_c, 0, 53, 80
3, 197760, Note_on_c, 0, 53, 0
3, 197760, Note_on_c, 0, 56, 80
3, 197790, Note_on_c, 0, 56, 0
3, 197790, Note_on_c, 0, 59, 80
3, 197820, Note_on_c, 0, 59, 0
3, 198180, Note_on_c, 0, 56, 80
3, 198219, Note_on_c, 0, 56, 0
3, 198219, Note_on_c, 0, 53, 80
3, 198260, Note_on_c, 0, 53, 0
3, 198260, Note_on_c, 0, 50, 80
3, 198300, Note_on_c, 0, 50, 0
3, 198300, Note_on_c, 0, 47, 80
3, 198339, Note_on_c, 0, 47, 0
3, 198339, Note_on_c, 0, 44, 80
3, 198380, Note_on_c, 0, 44, 0
3, 198380, Note_on_c, 0, 41, 80
3, 198420, Note_on_c, 0, 41, 0
3, 198420, Control_c, 0, 64, 0
3, 198420, Note_on_c, 0, 38, 80
3, 198900, Note_on_c, 0, 38, 0
3, 201060, Control_c, 0, 64, 127
3, 201060, Note_on_c, 0, 57, 80
3, 201107, Note_on_c, 0, 57, 0
3, 201107, Note_on_c, 0, 53, 80
3, 201156, Note_on_c, 0, 53, 0
3, 201156, Note_on_c, 0, 50, 80
3, 201203, Note_on_c, 0, 50, 0
3, 201203, Note_on_c, 0, 45, 80
3, 201252, Note_on_c, 0, 45, 0
3, 201252, Note_on_c, 0, 41, 80
3, 201300, Note_on_c, 0, 41, 0
3, 201300, Control_c, 0, 64, 0
3, 201300, Note_on_c, 0, 38, 80
3, 201780, Note_on_c, 0, 38, 0
3, 203940, Control_c, 0, 64, 127
3, 203940, Note_on_c, 0, 58, 80
3, 203987, Note_on_c, 0, 58, 0
3, 203987, Note_on_c, 0, 55, 80
3, 204036, Note_on_c, 0, 55, 0
3, 204036, Note_on_c, 0, 51, 80
3, 204083, Note_on_c, 0, 51, 0
3, 204083, Note_on_c, 0, 46, 80
3, 204132, Note_on_c, 0, 46, 0
3, 204132, Note_on_c, 0, 43, 80
3, 204180, Note_on_c, 0, 43, 0
3, 204180, Control_c, 0, 64, 0
3, 204180, Note_on_c, 0, 38, 80
3, 204660, Note_on_c, 0, 38, 0
3, 206820, Control_c, 0, 64, 127
3, 206820, Note_on_c, 0, 57, 80
3, 206867, Note_on_c, 0, 57, 0
3, 206867, Note_on_c, 0, 54, 80
3, 206916, Note_on_c, 0, 54, 0
3, 206916, Note_on_c, 0, 50, 80
3, 206963, Note_on_c, 0, 50, 0
3, 206963, Note_on_c, 0, 45, 80
3, 207012, Note_on_c, 0, 45, 0
3, 207012, Note_on_c, 0, 42, 80
3, 207060, Note_on_c, 0, 42, 0
3, 207060, Control_c, 0, 64, 0
3, 207060, Note_on_c, 0, 38, 80
3, 207540, Note_on_c, 0, 38, 0
3, 209700, Control_c, 0, 64, 127
3, 209700, Note_on_c, 0, 57, 80
3, 209747, Note_on_c, 0, 57, 0
3, 209747, Note_on_c, 0, 54, 80
3, 209796, Note_on_c, 0, 54, 0
3, 209796, Note_on_c, 0, 50, 80
3, 209843, Note_on_c, 0, 50, 0
3, 209843, Note_on_c, 0, 45, 80
3, 209892, Note_on_c, 0, 45, 0
3, 209892, Note_on_c, 0, 42, 80
3, 209940, Note_on_c, 0, 42, 0
3, 209940, Control_c, 0, 64, 0
3, 209940, Note_on_c, 0, 38, 80
3, 210420, Note_on_c, 0, 38, 0
3, 212580, Control_c, 0, 64, 127
3, 212580, Note_on_c, 0, 57, 67
3, 212627, Note_on_c, 0, 57, 0
3, 212627, Note_on_c, 0, 54, 67
3, 212676, Note_on_c, 0, 54, 0
3, 212676, Note_on_c, 0, 50, 67
3, 212723, Note_on_c, 0, 50, 0
3, 212723, Note_on_c, 0, 45, 67
3, 212772, Note_on_c, 0, 45, 0
3, 212772, Note_on_c, 0, 42, 67
3, 212820, Note_on_c, 0, 42, 0
3, 212820, Control_c, 0, 64, 0
3, 212820, Note_on_c, 0, 38, 67
3, 213300, Note_on_c, 0, 38, 0
3, 215460, Control_c, 0, 64, 127
3, 215460, Note_on_c, 0, 57, 67
3, 215507, Note_on_c, 0, 57, 0
3, 215507, Note_on_c, 0, 54, 67
3, 215556, Note_on_c, 0, 54, 0
3, 215556, Note_on_c, 0, 50, 67
3, 215603, Note_on_c, 0, 50, 0
3, 215603, Note_on_c, 0, 45, 67
3, 215652, Note_on_c, 0, 45, 0
3, 215652, Control_c, 0, 64, 0
3, 215652, Note_on_c, 0, 42, 67
3, 215700, Note_on_c, 0, 42, 0
3, 215700, Control_c, 0, 64, 127
3, 215700, Note_on_c, 0, 38, 67
3, 215747, Note_on_c, 0, 38, 0
3, 215747, Note_on_c, 0, 42, 67
3, 215796, Note_on_c, 0, 42, 0
3, 215796, Note_on_c, 0, 45, 67
3, 215843, Note_on_c, 0, 45, 0
3, 215843, Note_on_c, 0, 50, 67
3, 215892, Note_on_c, 0, 50, 0
3, 215892, Note_on_c, 0, 54, 67
3, 215940, Note_on_c, 0, 54, 0
3, 216420, Control_c, 0, 64, 127
3, 216420, Note_on_c, 0, 57, 67
3, 216467, Note_on_c, 0, 57, 0
3, 216467, Note_on_c, 0, 54, 67
3, 216516, Note_on_c, 0, 54, 0
3, 216516, Note_on_c, 0, 50, 67
3, 216563, Note_on_c, 0, 50, 0
3, 216563, Note_on_c, 0, 45, 67
3, 216612, Note_on_c, 0, 45, 0
3, 216612, Control_c, 0, 64, 0
3, 216612, Note_on_c, 0, 42, 67
3, 216660, Note_on_c, 0, 42, 0
3, 216660, Control_c, 0, 64, 127
3, 216660, Note_on_c, 0, 38, 67
3, 216707, Note_on_c, 0, 38, 0
3, 216707, Note_on_c, 0, 42, 67
3, 216756, Note_on_c, 0, 42, 0
3, 216756, Note_on_c, 0, 45, 67
3, 216803, Note_on_c, 0, 45, 0
3, 216803, Note_on_c, 0, 50, 67
3, 216852, Note_on_c, 0, 50, 0
3, 216852, Note_on_c, 0, 54, 67
3, 216900, Note_on_c, 0, 54, 0
3, 217380, Control_c, 0, 64, 127
3, 217380, Note_on_c, 0, 57, 67
3, 217427, Note_on_c, 0, 57, 0
3, 217427, Note_on_c, 0, 54, 67
3, 217476, Note_on_c, 0, 54, 0
3, 217476, Note_on_c, 0, 50, 67
3, 217523, Note_on_c, 0, 50, 0
3, 217523, Note_on_c, 0, 45, 67
3, 217572, Note_on_c, 0, 45, 0
3, 217572, Control_c, 0, 64, 0
3, 217572, Note_on_c, 0, 42, 67
3, 217620, Note_on_c, 0, 42, 0
3, 217620, Note_on_c, 0, 38, 67
3, 218100, Note_on_c, 0, 38, 0
3, 218580, Control_c, 0, 64, 127
3, 218970, Note_on_c, 0, 38, 54
3, 219000, Note_on_c, 0, 42, 54
3, 219030, Note_on_c, 0, 45, 54
3, 219060, Note_on_c, 0, 50, 54
3, 219930, Note_on_c, 0, 38, 54
3, 219960, Note_on_c, 0, 42, 54
3, 219990, Note_on_c, 0, 45, 54
3, 220020, Note_on_c, 0, 50, 0
3, 220020, Note_on_c, 0, 45, 0
3, 220020, Note_on_c, 0, 38, 0
3, 220020, Note_on_c, 0, 42, 0
3, 220020, Note_on_c, 0, 50, 54
3, 220410, Note_on_c, 0, 38, 54
3, 220440, Note_on_c, 0, 42, 54
3, 220470, Note_on_c, 0, 45, 54
3, 220500, Note_on_c, 0, 50, 0
3, 220500, Note_on_c, 0, 45, 0
3, 220500, Note_on_c, 0, 42, 0
3, 220500, Note_on_c, 0, 38, 0
3, 220500, Note_on_c, 0, 50, 54
3, 221460, Note_on_c, 0, 50, 0
3, 221460, Note_on_c, 0, 42, 0
3, 221460, Note_on_c, 0, 38, 0
3, 221460, Note_on_c, 0, 45, 0
3, 221850, Note_on_c, 0, 38, 54
3, 221880, Note_on_c, 0, 42, 54
3, 221910, Note_on_c, 0, 45, 54
3, 221940, Note_on_c, 0, 50, 54
3, 222900, Note_on_c, 0, 50, 0
3, 222900, Note_on_c, 0, 38, 0
3, 222900, Note_on_c, 0, 42, 0
3, 222900, Note_on_c, 0, 45, 0
3, 223290, Note_on_c, 0, 38, 54
3, 223320, Note_on_c, 0, 42, 54
3, 223350, Note_on_c, 0, 45, 54
3, 223380, Note_on_c, 0, 50, 54
3, 224340, Note_on_c, 0, 50, 0
3, 224340, Note_on_c, 0, 38, 0
3, 224340, Note_on_c, 0, 42, 0
3, 224340, Note_on_c, 0, 45, 0
3, 224340, Control_c, 0, 64, 0
3, 224340, End_track
4, 0, Start_track
4, 0, Title_t, "Grand Piano"
4, 0, Program_c, 0, 0
4, 0, Control_c, 0, 7, 115
4, 0, Control_c, 0, 10, 79
4, 0, Note_on_c, 0, 61, 80
4, 0, Note_on_c, 0, 67, 80
4, 1440, Note_on_c, 0, 67, 0
4, 1440, Note_on_c, 0, 61, 0
4, 1440, Note_on_c, 0, 61, 67
4, 1440, Note_on_c, 0, 66, 67
4, 1920, Note_on_c, 0, 66, 0
4, 1920, Note_on_c, 0, 61, 0
4, 2880, Note_on_c, 0, 59, 93
4, 2880, Note_on_c, 0, 66, 93
4, 4320, Note_on_c, 0, 66, 0
4, 4320, Note_on_c, 0, 59, 0
4, 4320, Note_on_c, 0, 59, 67
4, 4320, Note_on_c, 0, 64, 67
4, 4800, Note_on_c, 0, 64, 0
4, 4800, Note_on_c, 0, 59, 0
4, 5760, Note_on_c, 0, 59, 67
4, 5760, Note_on_c, 0, 62, 67
4, 7200, Note_on_c, 0, 62, 0
4, 7200, Note_on_c, 0, 59, 0
4, 7200, Note_on_c, 0, 57, 67
4, 7200, Note_on_c, 0, 61, 67
4, 7680, Note_on_c, 0, 57, 0
4, 7680, Note_on_c, 0, 55, 80
4, 8160, Note_on_c, 0, 55, 0
4, 8160, Note_on_c, 0, 61, 0
4, 8160, Note_on_c, 0, 54, 80
4, 8160, Note_on_c, 0, 62, 80
4, 8640, Note_on_c, 0, 62, 0
4, 8640, Note_on_c, 0, 54, 0
4, 8640, Note_on_c, 0, 52, 106
4, 8640, Note_on_c, 0, 59, 106
4, 9600, Note_on_c, 0, 59, 0
4, 9600, Note_on_c, 0, 52, 0
4, 10080, Note_on_c, 0, 54, 67
4, 10080, Note_on_c, 0, 57, 67
4, 11040, Note_on_c, 0, 57, 0
4, 11040, Note_on_c, 0, 54, 0
4, 11520, Note_on_c, 0, 52, 67
4, 11520, Note_on_c, 0, 57, 67
4, 12960, Note_on_c, 0, 57, 0
4, 12960, Note_on_c, 0, 52, 0
4, 12960, Note_on_c, 0, 52, 80
4, 12960, Note_on_c, 0, 55, 80
4, 13920, Note_on_c, 0, 55, 0
4, 13920, Note_on_c, 0, 52, 0
4, 49440, Control_c, 0, 64, 127
4, 49440, Note_on_c, 0, 59, 67
4, 49440, Note_on_c, 0, 62, 67
4, 49920, Note_on_c, 0, 62, 0
4, 49920, Note_on_c, 0, 59, 0
4, 49920, Control_c, 0, 64, 0
4, 49920, Note_on_c, 0, 57, 67
4, 49920, Note_on_c, 0, 59, 67
4, 49920, Note_on_c, 0, 63, 67
4, 50016, Note_on_c, 0, 63, 0
4, 50016, Note_on_c, 0, 59, 0
4, 50016, Note_on_c, 0, 57, 0
4, 50400, Note_on_c, 0, 55, 54
4, 50400, Note_on_c, 0, 59, 54
4, 50400, Note_on_c, 0, 64, 54
4, 53280, Note_on_c, 0, 64, 0
4, 53280, Note_on_c, 0, 59, 0
4, 53280, Note_on_c, 0, 55, 0
4, 53280, Note_on_c, 0, 55, 67
4, 53280, Note_on_c, 0, 58, 67
4, 53280, Note_on_c, 0, 64, 67
4, 54720, Note_on_c, 0, 64, 0
4, 54720, Note_on_c, 0, 58, 0
4, 54720, Note_on_c, 0, 55, 0
4, 54720, Note_on_c, 0, 55, 67
4, 54720, Note_on_c, 0, 59, 67
4, 54720, Note_on_c, 0, 64, 67
4, 56160, Note_on_c, 0, 64, 0
4, 56160, Note_on_c, 0, 59, 0
4, 56160, Note_on_c, 0, 55, 0
4, 56160, Note_on_c, 0, 55, 67
4, 56160, Note_on_c, 0, 61, 67
4, 56160, Note_on_c, 0, 64, 67
4, 57600, Note_on_c, 0, 64, 0
4, 57600, Note_on_c, 0, 61, 0
4, 57600, Note_on_c, 0, 55, 0
4, 57600, Note_on_c, 0, 57, 67
4, 57600, Note_on_c, 0, 62, 67
4, 57600, Note_on_c, 0, 66, 67
4, 58560, Note_on_c, 0, 66, 0
4, 58560, Note_on_c, 0, 62, 0
4, 58560, Note_on_c, 0, 57, 0
4, 59040, Note_on_c, 0, 57, 67
4, 59040, Note_on_c, 0, 60, 67
4, 59040, Note_on_c, 0, 62, 67
4, 59520, Note_on_c, 0, 62, 0
4, 59520, Note_on_c, 0, 60, 0
4, 59520, Note_on_c, 0, 57, 0
4, 60480, Note_on_c, 0, 59, 67
4, 60480, Note_on_c, 0, 62, 67
4, 60960, Note_on_c, 0, 62, 0
4, 60960, Note_on_c, 0, 59, 0
4, 65280, Note_on_c, 0, 78, 93
4, 66000, Note_on_c, 0, 78, 0
4, 66000, Control_c, 0, 64, 127
4, 66000, Note_on_c, 0, 69, 93
4, 66720, Note_on_c, 0, 69, 0
4, 66720, Note_on_c, 0, 66, 67
4, 66960, Note_on_c, 0, 66, 0
4, 66960, Note_on_c, 0, 62, 67
4, 67200, Note_on_c, 0, 62, 0
4, 67200, Note_on_c, 0, 57, 67
4, 67440, Note_on_c, 0, 57, 0
4, 67440, Control_c, 0, 64, 0
4, 67440, Note_on_c, 0, 79, 93
4, 68160, Note_on_c, 0, 79, 0
4, 68160, Control_c, 0, 64, 127
4, 68160, Note_on_c, 0, 71, 93
4, 68880, Note_on_c, 0, 71, 0
4, 68880, Note_on_c, 0, 67, 67
4, 69120, Note_on_c, 0, 67, 0
4, 69120, Note_on_c, 0, 64, 67
4, 69360, Note_on_c, 0, 64, 0
4, 69360, Note_on_c, 0, 59, 67
4, 69431, Control_c, 0, 64, 0
4, 69600, Note_on_c, 0, 59, 0
4, 69600, Control_c, 0, 64, 127
4, 69600, Note_on_c, 0, 81, 93
4, 70140, Note_on_c, 0, 81, 0
4, 70140, Note_on_c, 0, 83, 93
4, 70320, Note_on_c, 0, 83, 0
4, 70320, Note_on_c, 0, 81, 93
4, 71040, Note_on_c, 0, 81, 0
4, 71040, Control_c, 0, 64, 0
4, 71040, Note_on_c, 0, 76, 93
4, 71760, Note_on_c, 0, 76, 0
4, 71760, Note_on_c, 0, 78, 93
4, 73920, Note_on_c, 0, 78, 0
4, 73920, Note_on_c, 0, 81, 106
4, 74640, Note_on_c, 0, 81, 0
4, 74640, Control_c, 0, 64, 127
4, 74640, Note_on_c, 0, 69, 106
4, 75360, Note_on_c, 0, 69, 0
4, 75360, Note_on_c, 0, 66, 80
4, 75600, Note_on_c, 0, 66, 0
4, 75600, Note_on_c, 0, 62, 80
4, 75840, Note_on_c, 0, 62, 0
4, 75840, Control_c, 0, 64, 0
4, 75840, Note_on_c, 0, 57, 80
4, 76080, Note_on_c, 0, 57, 0
4, 76080, Note_on_c, 0, 83, 106
4, 76800, Note_on_c, 0, 83, 0
4, 76800, Control_c, 0, 64, 127
4, 76800, Note_on_c, 0, 68, 80
4, 77520, Note_on_c, 0, 68, 0
4, 77520, Note_on_c, 0, 66, 80
4, 77760, Note_on_c, 0, 66, 0
4, 77760, Note_on_c, 0, 62, 80
4, 78000, Note_on_c, 0, 62, 0
4, 78000, Control_c, 0, 64, 0
4, 78000, Note_on_c, 0, 59, 80
4, 78240, Note_on_c, 0, 59, 0
4, 78240, Control_c, 0, 64, 127
4, 78240, Note_on_c, 0, 73, 93
4, 78240, Note_on_c, 0, 77, 93
4, 78240, Note_on_c, 0, 80, 93
4, 78240, Note_on_c, 0, 85, 93
4, 78780, Note_on_c, 0, 85, 0
4, 78780, Note_on_c, 0, 73, 0
4, 78780, Note_on_c, 0, 77, 0
4, 78780, Note_on_c, 0, 80, 0
4, 78780, Note_on_c, 0, 74, 93
4, 78780, Note_on_c, 0, 86, 93
4, 78960, Note_on_c, 0, 86, 0
4, 78960, Note_on_c, 0, 74, 0
4, 78960, Note_on_c, 0, 73, 93
4, 78960, Note_on_c, 0, 77, 93
4, 78960, Note_on_c, 0, 80, 93
4, 78960, Note_on_c, 0, 85, 93
4, 79680, Note_on_c, 0, 85, 0
4, 79680, Note_on_c, 0, 73, 0
4, 79680, Note_on_c, 0, 77, 0
4, 79680, Note_on_c, 0, 80, 0
4, 79680, Control_c, 0, 64, 0
4, 79680, Note_on_c, 0, 68, 93
4, 79680, Note_on_c, 0, 80, 93
4, 80400, Note_on_c, 0, 80, 0
4, 80400, Note_on_c, 0, 68, 0
4, 80400, Note_on_c, 0, 69, 93
4, 80400, Note_on_c, 0, 81, 93
4, 81120, Note_on_c, 0, 81, 0
4, 81120, Note_on_c, 0, 69, 0
4, 81120, Note_on_c, 0, 71, 119
4, 81120, Note_on_c, 0, 83, 119
4, 82200, Note_on_c, 0, 83, 0
4, 82200, Note_on_c, 0, 71, 0
4, 82200, Note_on_c, 0, 66, 93
4, 82200, Note_on_c, 0, 78, 93
4, 82560, Note_on_c, 0, 78, 0
4, 82560, Note_on_c, 0, 66, 0
4, 82560, Note_on_c, 0, 69, 106
4, 82560, Note_on_c, 0, 81, 106
4, 83640, Note_on_c, 0, 81, 0
4, 83640, Note_on_c, 0, 69, 0
4, 83640, Note_on_c, 0, 67, 80
4, 83640, Note_on_c, 0, 79, 80
4, 83880, Note_on_c, 0, 79, 80
4, 83940, Note_on_c, 0, 79, 0
4, 83940, Note_on_c, 0, 81, 80
4, 84000, Note_on_c, 0, 81, 0
4, 84000, Note_on_c, 0, 79, 0
4, 84000, Note_on_c, 0, 67, 0
4, 84000, Note_on_c, 0, 79, 80
4, 84540, Note_on_c, 0, 79, 0
4, 84540, Note_on_c, 0, 78, 80
4, 84720, Note_on_c, 0, 78, 0
4, 84720, Note_on_c, 0, 67, 67
4, 84720, Note_on_c, 0, 73, 67
4, 84720, Note_on_c, 0, 76, 67
4, 85440, Note_on_c, 0, 76, 0
4, 85440, Note_on_c, 0, 73, 0
4, 85440, Note_on_c, 0, 67, 0
4, 85440, Note_on_c, 0, 67, 67
4, 85440, Note_on_c, 0, 73, 67
4, 86160, Note_on_c, 0, 73, 0
4, 86160, Note_on_c, 0, 67, 0
4, 86880, Note_on_c, 0, 66, 67
4, 86880, Note_on_c, 0, 69, 67
4, 86880, Note_on_c, 0, 74, 67
4, 86880, Note_on_c, 0, 78, 67
4, 87600, Note_on_c, 0, 78, 0
4, 87600, Note_on_c, 0, 66, 0
4, 87600, Note_on_c, 0, 69, 0
4, 87600, Note_on_c, 0, 74, 0
4, 87600, Note_on_c, 0, 69, 80
4, 87600, Note_on_c, 0, 76, 80
4, 87600, Note_on_c, 0, 81, 80
4, 88320, Note_on_c, 0, 81, 0
4, 88320, Note_on_c, 0, 76, 0
4, 88320, Note_on_c, 0, 69, 0
4, 88320, Note_on_c, 0, 74, 93
4, 88320, Note_on_c, 0, 78, 93
4, 88320, Note_on_c, 0, 86, 93
4, 89040, Note_on_c, 0, 86, 0
4, 89040, Note_on_c, 0, 78, 0
4, 89040, Note_on_c, 0, 74, 0
4, 89040, Note_on_c, 0, 78, 119
4, 89040, Note_on_c, 0, 90, 119
4, 89400, Note_on_c, 0, 90, 0
4, 89400, Note_on_c, 0, 78, 0
4, 89400, Note_on_c, 0, 76, 93
4, 89400, Note_on_c, 0, 88, 93
4, 89760, Note_on_c, 0, 88, 0
4, 89760, Note_on_c, 0, 76, 0
4, 89760, Note_on_c, 0, 79, 80
4, 91200, Note_on_c, 0, 79, 0
4, 91200, Note_on_c, 0, 66, 67
4, 91200, Note_on_c, 0, 69, 67
4, 91200, Note_on_c, 0, 74, 67
4, 91200, Note_on_c, 0, 78, 67
4, 91920, Note_on_c, 0, 78, 0
4, 91920, Note_on_c, 0, 66, 0
4, 91920, Note_on_c, 0, 69, 0
4, 91920, Note_on_c, 0, 74, 0
4, 91920, Note_on_c, 0, 69, 80
4, 91920, Note_on_c, 0, 76, 80
4, 91920, Note_on_c, 0, 81, 80
4, 92640, Note_on_c, 0, 81, 0
4, 92640, Note_on_c, 0, 76, 0
4, 92640, Note_on_c, 0, 69, 0
4, 92640, Note_on_c, 0, 74, 93
4, 92640, Note_on_c, 0, 78, 93
4, 92640, Note_on_c, 0, 86, 93
4, 93360, Note_on_c, 0, 86, 0
4, 93360, Note_on_c, 0, 78, 0
4, 93360, Note_on_c, 0, 74, 0
4, 93360, Note_on_c, 0, 78, 119
4, 93360, Note_on_c, 0, 90, 119
4, 93720, Note_on_c, 0, 90, 0
4, 93720, Note_on_c, 0, 78, 0
4, 93720, Note_on_c, 0, 76, 93
4, 93720, Note_on_c, 0, 88, 93
4, 94080, Note_on_c, 0, 88, 0
4, 94080, Note_on_c, 0, 76, 0
4, 94080, Note_on_c, 0, 79, 80
4, 95520, Note_on_c, 0, 79, 0
4, 95520, Note_on_c, 0, 66, 67
4, 95520, Note_on_c, 0, 69, 67
4, 95520, Note_on_c, 0, 74, 67
4, 95520, Note_on_c, 0, 78, 67
4, 96240, Note_on_c, 0, 78, 0
4, 96240, Note_on_c, 0, 66, 0
4, 96240, Note_on_c, 0, 69, 0
4, 96240, Note_on_c, 0, 74, 0
4, 96240, Note_on_c, 0, 86, 106
4, 97320, Note_on_c, 0, 86, 0
4, 97320, Note_on_c, 0, 70, 93
4, 97320, Note_on_c, 0, 82, 93
4, 97680, Note_on_c, 0, 82, 0
4, 97680, Note_on_c, 0, 70, 0
4, 97680, Note_on_c, 0, 71, 80
4, 97680, Note_on_c, 0, 83, 80
4, 99120, Note_on_c, 0, 83, 0
4, 99120, Note_on_c, 0, 71, 0
4, 99120, Note_on_c, 0, 71, 106
4, 99840, Note_on_c, 0, 71, 0
4, 99840, Note_on_c, 0, 64, 106
4, 99840, Note_on_c, 0, 67, 106
4, 99840, Note_on_c, 0, 76, 106
4, 100560, Note_on_c, 0, 76, 0
4, 100560, Note_on_c, 0, 67, 0
4, 100560, Note_on_c, 0, 64, 0
4, 100560, Note_on_c, 0, 66, 106
4, 100560, Note_on_c, 0, 78, 106
4, 100920, Note_on_c, 0, 78, 0
4, 100920, Note_on_c, 0, 66, 0
4, 100920, Note_on_c, 0, 67, 106
4, 100920, Note_on_c, 0, 79, 106
4, 101280, Note_on_c, 0, 79, 0
4, 101280, Note_on_c, 0, 67, 0
4, 101280, Note_on_c, 0, 69, 106
4, 101280, Note_on_c, 0, 81, 106
4, 101640, Note_on_c, 0, 81, 0
4, 101640, Note_on_c, 0, 69, 0
4, 101640, Note_on_c, 0, 71, 106
4, 101640, Note_on_c, 0, 83, 106
4, 102000, Note_on_c, 0, 83, 0
4, 102000, Note_on_c, 0, 71, 0
4, 102000, Note_on_c, 0, 76, 106
4, 102000, Note_on_c, 0, 79, 106
4, 102000, Note_on_c, 0, 85, 106
4, 102360, Note_on_c, 0, 85, 0
4, 102360, Note_on_c, 0, 79, 0
4, 102360, Note_on_c, 0, 76, 0
4, 102360, Note_on_c, 0, 74, 106
4, 102360, Note_on_c, 0, 86, 106
4, 102720, Note_on_c, 0, 86, 0
4, 102720, Note_on_c, 0, 74, 0
4, 102720, Note_on_c, 0, 76, 106
4, 102720, Note_on_c, 0, 79, 106
4, 102720, Note_on_c, 0, 83, 106
4, 102720, Note_on_c, 0, 88, 106
4, 103080, Note_on_c, 0, 88, 0
4, 103080, Note_on_c, 0, 76, 0
4, 103080, Note_on_c, 0, 79, 0
4, 103080, Note_on_c, 0, 83, 0
4, 103080, Note_on_c, 0, 78, 106
4, 103080, Note_on_c, 0, 90, 106
4, 103440, Note_on_c, 0, 90, 0
4, 103440, Note_on_c, 0, 78, 0
4, 103440, Note_on_c, 0, 79, 93
4, 103440, Note_on_c, 0, 91, 93
4, 103980, Note_on_c, 0, 91, 0
4, 103980, Note_on_c, 0, 79, 0
4, 103980, Note_on_c, 0, 79, 93
4, 103980, Note_on_c, 0, 91, 93
4, 104160, Note_on_c, 0, 91, 0
4, 104160, Note_on_c, 0, 79, 0
4, 104160, Note_on_c, 0, 79, 93
4, 104160, Note_on_c, 0, 82, 93
4, 104160, Note_on_c, 0, 91, 93
4, 105600, Note_on_c, 0, 91, 0
4, 105600, Note_on_c, 0, 82, 0
4, 105600, Note_on_c, 0, 79, 0
4, 105600, Note_on_c, 0, 76, 93
4, 106320, Note_on_c, 0, 76, 0
4, 106320, Note_on_c, 0, 67, 119
4, 106320, Note_on_c, 0, 71, 119
4, 106320, Note_on_c, 0, 76, 119
4, 107040, Note_on_c, 0, 76, 0
4, 107040, Note_on_c, 0, 71, 0
4, 107040, Note_on_c, 0, 67, 0
4, 107040, Note_on_c, 0, 78, 119
4, 107400, Note_on_c, 0, 78, 0
4, 107400, Note_on_c, 0, 67, 119
4, 107400, Note_on_c, 0, 79, 119
4, 107760, Note_on_c, 0, 79, 0
4, 107760, Note_on_c, 0, 67, 0
4, 107760, Note_on_c, 0, 69, 119
4, 107760, Note_on_c, 0, 81, 119
4, 108120, Note_on_c, 0, 81, 0
4, 108120, Note_on_c, 0, 69, 0
4, 108120, Note_on_c, 0, 71, 119
4, 108120, Note_on_c, 0, 83, 119
4, 108480, Note_on_c, 0, 83, 0
4, 108480, Note_on_c, 0, 71, 0
4, 108480, Note_on_c, 0, 73, 119
4, 108480, Note_on_c, 0, 76, 119
4, 108480, Note_on_c, 0, 79, 119
4, 108480, Note_on_c, 0, 85, 119
4, 108840, Note_on_c, 0, 85, 0
4, 108840, Note_on_c, 0, 73, 0
4, 108840, Note_on_c, 0, 76, 0
4, 108840, Note_on_c, 0, 79, 0
4, 108840, Note_on_c, 0, 74, 119
4, 108840, Note_on_c, 0, 86, 119
4, 109200, Note_on_c, 0, 86, 0
4, 109200, Note_on_c, 0, 74, 0
4, 109200, Note_on_c, 0, 76, 119
4, 109200, Note_on_c, 0, 88, 119
4, 109560, Note_on_c, 0, 88, 0
4, 109560, Note_on_c, 0, 76, 0
4, 109560, Note_on_c, 0, 78, 119
4, 109560, Note_on_c, 0, 90, 119
4, 109920, Note_on_c, 0, 90, 0
4, 109920, Note_on_c, 0, 78, 0
4, 109920, Note_on_c, 0, 79, 119
4, 109920, Note_on_c, 0, 91, 119
4, 110460, Note_on_c, 0, 91, 0
4, 110460, Note_on_c, 0, 79, 0
4, 110460, Note_on_c, 0, 79, 119
4, 110460, Note_on_c, 0, 91, 119
4, 110640, Note_on_c, 0, 91, 0
4, 110640, Note_on_c, 0, 79, 0
4, 110640, Note_on_c, 0, 79, 119
4, 110640, Note_on_c, 0, 91, 119
4, 111360, Note_on_c, 0, 79, 0
4, 111600, Note_on_c, 0, 91, 0
4, 111600, Control_c, 0, 64, 127
4, 111600, Note_on_c, 0, 78, 93
4, 111600, Note_on_c, 0, 90, 93
4, 111647, Note_on_c, 0, 90, 0
4, 111647, Note_on_c, 0, 78, 0
4, 111840, Note_on_c, 0, 76, 93
4, 111840, Note_on_c, 0, 88, 93
4, 111887, Note_on_c, 0, 88, 0
4, 111887, Note_on_c, 0, 76, 0
4, 112080, Note_on_c, 0, 74, 93
4, 112080, Note_on_c, 0, 86, 93
4, 112127, Note_on_c, 0, 86, 0
4, 112127, Note_on_c, 0, 74, 0
4, 112320, Note_on_c, 0, 83, 93
4, 112367, Note_on_c, 0, 83, 0
4, 112560, Control_c, 0, 64, 0
4, 112560, Note_on_c, 0, 78, 93
4, 112607, Note_on_c, 0, 78, 0
4, 112800, Note_on_c, 0, 74, 80
4, 113280, Note_on_c, 0, 86, 80
4, 114240, Note_on_c, 0, 86, 0
4, 114240, Note_on_c, 0, 74, 0
4, 114240, Note_on_c, 0, 71, 80
4, 114720, Note_on_c, 0, 83, 80
4, 115680, Note_on_c, 0, 83, 0
4, 115680, Note_on_c, 0, 71, 0
4, 115680, Note_on_c, 0, 71, 106
4, 115920, Note_on_c, 0, 71, 0
4, 115920, Note_on_c, 0, 73, 106
4, 116160, Note_on_c, 0, 73, 0
4, 116160, Note_on_c, 0, 74, 106
4, 116400, Note_on_c, 0, 74, 0
4, 116400, Note_on_c, 0, 76, 106
4, 116640, Note_on_c, 0, 76, 0
4, 116640, Note_on_c, 0, 78, 106
4, 116880, Note_on_c, 0, 78, 0
4, 116880, Note_on_c, 0, 79, 106
4, 117120, Note_on_c, 0, 79, 0
4, 117120, Note_on_c, 0, 78, 106
4, 117360, Note_on_c, 0, 78, 0
4, 117360, Note_on_c, 0, 74, 80
4, 117600, Note_on_c, 0, 74, 0
4, 117600, Note_on_c, 0, 78, 106
4, 118920, Note_on_c, 0, 78, 0
4, 118920, Note_on_c, 0, 76, 67
4, 119040, Note_on_c, 0, 76, 0
4, 119040, Note_on_c, 0, 74, 67
4, 119520, Note_on_c, 0, 74, 0
4, 119520, Note_on_c, 0, 52, 67
4, 119520, Note_on_c, 0, 57, 67
4, 120000, Note_on_c, 0, 57, 0
4, 120000, Note_on_c, 0, 52, 0
4, 120000, Note_on_c, 0, 54, 80
4, 120000, Note_on_c, 0, 59, 80
4, 120000, Note_on_c, 0, 62, 80
4, 120480, Note_on_c, 0, 62, 0
4, 120480, Note_on_c, 0, 59, 0
4, 120480, Note_on_c, 0, 54, 0
4, 120480, Note_on_c, 0, 55, 80
4, 120480, Note_on_c, 0, 61, 80
4, 120480, Note_on_c, 0, 66, 80
4, 120720, Note_on_c, 0, 66, 0
4, 120720, Note_on_c, 0, 61, 0
4, 120720, Note_on_c, 0, 55, 0
4, 120720, Note_on_c, 0, 64, 80
4, 120880, Note_on_c, 0, 55, 80
4, 120920, Note_on_c, 0, 62, 80
4, 120960, Note_on_c, 0, 64, 0
4, 120960, Note_on_c, 0, 69, 80
4, 121440, Note_on_c, 0, 69, 0
4, 121440, Note_on_c, 0, 62, 0
4, 121440, Note_on_c, 0, 55, 0
4, 121440, Note_on_c, 0, 64, 67
4, 121920, Note_on_c, 0, 64, 0
4, 121920, Note_on_c, 0, 54, 67
4, 122400, Note_on_c, 0, 54, 0
4, 122400, Note_on_c, 0, 52, 67
4, 122400, Note_on_c, 0, 57, 67
4, 122880, Note_on_c, 0, 57, 0
4, 122880, Note_on_c, 0, 52, 0
4, 122880, Note_on_c, 0, 54, 80
4, 122880, Note_on_c, 0, 59, 80
4, 122880, Note_on_c, 0, 62, 80
4, 123360, Note_on_c, 0, 62, 0
4, 123360, Note_on_c, 0, 59, 0
4, 123360, Note_on_c, 0, 54, 0
4, 123360, Note_on_c, 0, 55, 80
4, 123360, Note_on_c, 0, 61, 80
4, 123360, Note_on_c, 0, 66, 80
4, 123600, Note_on_c, 0, 66, 0
4, 123600, Note_on_c, 0, 61, 0
4, 123600, Note_on_c, 0, 55, 0
4, 123600, Note_on_c, 0, 64, 80
4, 123760, Note_on_c, 0, 55, 80
4, 123800, Note_on_c, 0, 62, 80
4, 123840, Note_on_c, 0, 64, 0
4, 123840, Note_on_c, 0, 69, 80
4, 124320, Note_on_c, 0, 69, 0
4, 124320, Note_on_c, 0, 62, 0
4, 124320, Note_on_c, 0, 55, 0
4, 124320, Note_on_c, 0, 64, 67
4, 124800, Note_on_c, 0, 64, 0
4, 124800, Note_on_c, 0, 54, 67
4, 125280, Note_on_c, 0, 54, 0
4, 125280, Note_on_c, 0, 62, 67
4, 126000, Note_on_c, 0, 62, 0
4, 126000, Note_on_c, 0, 58, 67
4, 126240, Note_on_c, 0, 58, 0
4, 126240, Note_on_c, 0, 59, 67
4, 126720, Note_on_c, 0, 59, 0
4, 126720, Note_on_c, 0, 59, 80
4, 126720, Note_on_c, 0, 62, 80
4, 127200, Note_on_c, 0, 62, 0
4, 127200, Note_on_c, 0, 59, 0
4, 127200, Note_on_c, 0, 57, 80
4, 127200, Note_on_c, 0, 59, 80
4, 127200, Note_on_c, 0, 63, 80
4, 127680, Note_on_c, 0, 63, 0
4, 127680, Note_on_c, 0, 59, 0
4, 127680, Note_on_c, 0, 57, 0
4, 127680, Note_on_c, 0, 52, 106
4, 128160, Note_on_c, 0, 52, 0
4, 128160, Note_on_c, 0, 54, 80
4, 128400, Note_on_c, 0, 54, 0
4, 128400, Note_on_c, 0, 55, 106
4, 128640, Note_on_c, 0, 55, 0
4, 128640, Note_on_c, 0, 57, 80
4, 128880, Note_on_c, 0, 57, 0
4, 128880, Note_on_c, 0, 59, 106
4, 129120, Note_on_c, 0, 59, 0
4, 129120, Note_on_c, 0, 61, 106
4, 129360, Note_on_c, 0, 61, 0
4, 129360, Note_on_c, 0, 62, 106
4, 129600, Note_on_c, 0, 62, 0
4, 129600, Note_on_c, 0, 64, 106
4, 129840, Note_on_c, 0, 64, 0
4, 129840, Note_on_c, 0, 66, 106
4, 130080, Note_on_c, 0, 66, 0
4, 130080, Note_on_c, 0, 67, 106
4, 130440, Note_on_c, 0, 67, 0
4, 130440, Note_on_c, 0, 67, 106
4, 130560, Note_on_c, 0, 67, 0
4, 130560, Note_on_c, 0, 64, 106
4, 130560, Note_on_c, 0, 67, 106
4, 131040, Note_on_c, 0, 67, 0
4, 131040, Note_on_c, 0, 64, 0
4, 131040, Note_on_c, 0, 66, 106
4, 131280, Note_on_c, 0, 66, 0
4, 131280, Note_on_c, 0, 67, 106
4, 131520, Note_on_c, 0, 67, 0
4, 131520, Note_on_c, 0, 69, 106
4, 131760, Note_on_c, 0, 69, 0
4, 131760, Note_on_c, 0, 71, 106
4, 132000, Note_on_c, 0, 71, 0
4, 132000, Note_on_c, 0, 72, 106
4, 132240, Note_on_c, 0, 72, 0
4, 132240, Note_on_c, 0, 74, 106
4, 132480, Note_on_c, 0, 74, 0
4, 132480, Note_on_c, 0, 76, 106
4, 132720, Note_on_c, 0, 76, 0
4, 132720, Note_on_c, 0, 78, 106
4, 132960, Note_on_c, 0, 78, 0
4, 132960, Note_on_c, 0, 79, 106
4, 133320, Note_on_c, 0, 79, 0
4, 133320, Note_on_c, 0, 79, 80
4, 133440, Note_on_c, 0, 79, 0
4, 133440, Note_on_c, 0, 79, 106
4, 134400, Note_on_c, 0, 79, 0
4, 134400, Note_on_c, 0, 64, 80
4, 134880, Note_on_c, 0, 64, 0
4, 134880, Note_on_c, 0, 61, 106
4, 135120, Note_on_c, 0, 61, 0
4, 135120, Note_on_c, 0, 62, 106
4, 135360, Note_on_c, 0, 62, 0
4, 135360, Note_on_c, 0, 64, 106
4, 135600, Note_on_c, 0, 64, 0
4, 135600, Note_on_c, 0, 66, 106
4, 135840, Note_on_c, 0, 66, 0
4, 135840, Note_on_c, 0, 67, 106
4, 136200, Note_on_c, 0, 67, 0
4, 136200, Note_on_c, 0, 67, 80
4, 136320, Note_on_c, 0, 67, 0
4, 136320, Note_on_c, 0, 64, 119
4, 136320, Note_on_c, 0, 67, 119
4, 136800, Note_on_c, 0, 67, 0
4, 136800, Note_on_c, 0, 64, 0
4, 136800, Note_on_c, 0, 66, 119
4, 137040, Note_on_c, 0, 66, 0
4, 137040, Note_on_c, 0, 65, 119
4, 137040, Note_on_c, 0, 68, 119
4, 137280, Note_on_c, 0, 68, 0
4, 137280, Note_on_c, 0, 65, 0
4, 137280, Note_on_c, 0, 64, 119
4, 137280, Note_on_c, 0, 70, 119
4, 137520, Note_on_c, 0, 70, 0
4, 137520, Note_on_c, 0, 64, 0
4, 137520, Note_on_c, 0, 62, 119
4, 137520, Note_on_c, 0, 71, 119
4, 137760, Note_on_c, 0, 71, 0
4, 137760, Note_on_c, 0, 62, 0
4, 137760, Note_on_c, 0, 73, 119
4, 138000, Note_on_c, 0, 73, 0
4, 138000, Note_on_c, 0, 74, 119
4, 138240, Note_on_c, 0, 74, 0
4, 138240, Note_on_c, 0, 76, 119
4, 138480, Note_on_c, 0, 76, 0
4, 138480, Note_on_c, 0, 77, 119
4, 138720, Note_on_c, 0, 77, 0
4, 138720, Note_on_c, 0, 78, 119
4, 139440, Note_on_c, 0, 78, 0
4, 139440, Note_on_c, 0, 83, 93
4, 139680, Note_on_c, 0, 83, 0
4, 139680, Note_on_c, 0, 71, 93
4, 140400, Note_on_c, 0, 71, 0
4, 140400, Note_on_c, 0, 81, 93
4, 140640, Note_on_c, 0, 81, 0
4, 140640, Note_on_c, 0, 69, 80
4, 141360, Note_on_c, 0, 69, 0
4, 141360, Note_on_c, 0, 79, 80
4, 141600, Note_on_c, 0, 79, 0
4, 141600, Note_on_c, 0, 67, 80
4, 142080, Note_on_c, 0, 67, 0
4, 142320, Control_c, 0, 64, 127
4, 142320, Note_on_c, 0, 74, 67
4, 142560, Note_on_c, 0, 74, 0
4, 142560, Note_on_c, 0, 73, 67
4, 142800, Note_on_c, 0, 73, 0
4, 142800, Note_on_c, 0, 71, 80
4, 143040, Note_on_c, 0, 71, 0
4, 143040, Note_on_c, 0, 70, 80
4, 143280, Note_on_c, 0, 70, 0
4, 143280, Control_c, 0, 64, 0
4, 143280, Note_on_c, 0, 71, 80
4, 143520, Note_on_c, 0, 71, 0
4, 143520, Note_on_c, 0, 66, 106
4, 143880, Note_on_c, 0, 66, 0
4, 143880, Note_on_c, 0, 64, 80
4, 144000, Note_on_c, 0, 64, 0
4, 144000, Note_on_c, 0, 64, 80
4, 144960, Note_on_c, 0, 64, 0
4, 145200, Control_c, 0, 64, 127
4, 145200, Note_on_c, 0, 78, 80
4, 145440, Note_on_c, 0, 78, 0
4, 145440, Note_on_c, 0, 76, 80
4, 145680, Note_on_c, 0, 76, 0
4, 145680, Note_on_c, 0, 74, 80
4, 145920, Note_on_c, 0, 74, 0
4, 145920, Note_on_c, 0, 73, 93
4, 146160, Note_on_c, 0, 73, 0
4, 146160, Note_on_c, 0, 74, 93
4, 146400, Note_on_c, 0, 74, 0
4, 146400, Control_c, 0, 64, 0
4, 146400, Note_on_c, 0, 74, 119
4, 146760, Note_on_c, 0, 74, 0
4, 146760, Note_on_c, 0, 62, 93
4, 146880, Note_on_c, 0, 62, 0
4, 146880, Note_on_c, 0, 62, 119
4, 146880, Note_on_c, 0, 67, 119
4, 146880, Note_on_c, 0, 74, 119
4, 147360, Note_on_c, 0, 74, 0
4, 147360, Note_on_c, 0, 67, 0
4, 147360, Note_on_c, 0, 62, 0
4, 147360, Note_on_c, 0, 62, 119
4, 147360, Note_on_c, 0, 65, 119
4, 147360, Note_on_c, 0, 68, 119
4, 147360, Note_on_c, 0, 74, 119
4, 147840, Note_on_c, 0, 74, 0
4, 147840, Note_on_c, 0, 62, 0
4, 147840, Note_on_c, 0, 65, 0
4, 147840, Note_on_c, 0, 68, 0
4, 147840, Note_on_c, 0, 65, 119
4, 147840, Note_on_c, 0, 69, 119
4, 147840, Note_on_c, 0, 72, 119
4, 148080, Note_on_c, 0, 72, 0
4, 148080, Note_on_c, 0, 69, 0
4, 148080, Note_on_c, 0, 65, 0
4, 148080, Control_c, 0, 64, 127
4, 148080, Note_on_c, 0, 81, 93
4, 148320, Note_on_c, 0, 81, 0
4, 148320, Note_on_c, 0, 79, 93
4, 148560, Note_on_c, 0, 79, 0
4, 148560, Note_on_c, 0, 77, 93
4, 148800, Note_on_c, 0, 77, 0
4, 148800, Note_on_c, 0, 76, 93
4, 149040, Note_on_c, 0, 76, 0
4, 149040, Note_on_c, 0, 77, 93
4, 149280, Note_on_c, 0, 77, 0
4, 149280, Control_c, 0, 64, 0
4, 149280, Note_on_c, 0, 77, 119
4, 149640, Note_on_c, 0, 77, 0
4, 149640, Note_on_c, 0, 65, 93
4, 149760, Note_on_c, 0, 65, 0
4, 149760, Note_on_c, 0, 65, 119
4, 149760, Note_on_c, 0, 70, 119
4, 149760, Note_on_c, 0, 77, 119
4, 150240, Note_on_c, 0, 77, 0
4, 150240, Note_on_c, 0, 70, 0
4, 150240, Note_on_c, 0, 65, 0
4, 150240, Note_on_c, 0, 65, 119
4, 150240, Note_on_c, 0, 68, 119
4, 150240, Note_on_c, 0, 71, 119
4, 150240, Note_on_c, 0, 77, 119
4, 150720, Note_on_c, 0, 77, 0
4, 150720, Note_on_c, 0, 65, 0
4, 150720, Note_on_c, 0, 68, 0
4, 150720, Note_on_c, 0, 71, 0
4, 150720, Note_on_c, 0, 68, 119
4, 150720, Note_on_c, 0, 72, 119
4, 150720, Note_on_c, 0, 75, 119
4, 150960, Note_on_c, 0, 75, 0
4, 150960, Note_on_c, 0, 72, 0
4, 150960, Note_on_c, 0, 68, 0
4, 150960, Control_c, 0, 64, 127
4, 150960, Note_on_c, 0, 84, 93
4, 151200, Note_on_c, 0, 84, 0
4, 151200, Note_on_c, 0, 82, 93
4, 151440, Note_on_c, 0, 82, 0
4, 151440, Note_on_c, 0, 80, 93
4, 151680, Note_on_c, 0, 80, 0
4, 151680, Note_on_c, 0, 79, 93
4, 151920, Note_on_c, 0, 79, 0
4, 151920, Control_c, 0, 64, 0
4, 151920, Note_on_c, 0, 80, 93
4, 152160, Note_on_c, 0, 80, 0
4, 152160, Note_on_c, 0, 68, 119
4, 152160, Note_on_c, 0, 71, 119
4, 152160, Note_on_c, 0, 74, 119
4, 152400, Note_on_c, 0, 74, 0
4, 152400, Note_on_c, 0, 71, 0
4, 152400, Note_on_c, 0, 68, 0
4, 152400, Control_c, 0, 64, 127
4, 152400, Note_on_c, 0, 86, 93
4, 152640, Note_on_c, 0, 86, 0
4, 152640, Note_on_c, 0, 85, 93
4, 152880, Note_on_c, 0, 85, 0
4, 152880, Note_on_c, 0, 83, 93
4, 153120, Note_on_c, 0, 83, 0
4, 153120, Note_on_c, 0, 82, 93
4, 153360, Note_on_c, 0, 82, 0
4, 153360, Control_c, 0, 64, 0
4, 153360, Note_on_c, 0, 83, 93
4, 153600, Note_on_c, 0, 83, 0
4, 153600, Note_on_c, 0, 71, 119
4, 153600, Note_on_c, 0, 74, 119
4, 153600, Note_on_c, 0, 77, 119
4, 153840, Note_on_c, 0, 77, 0
4, 153840, Note_on_c, 0, 74, 0
4, 153840, Note_on_c, 0, 71, 0
4, 153840, Control_c, 0, 64, 127
4, 153840, Note_on_c, 0, 77, 93
4, 153840, Note_on_c, 0, 89, 93
4, 154080, Note_on_c, 0, 89, 0
4, 154080, Note_on_c, 0, 77, 0
4, 154080, Note_on_c, 0, 76, 93
4, 154080, Note_on_c, 0, 88, 93
4, 154320, Note_on_c, 0, 88, 0
4, 154320, Note_on_c, 0, 76, 0
4, 154320, Note_on_c, 0, 74, 93
4, 154320, Note_on_c, 0, 86, 93
4, 154560, Note_on_c, 0, 86, 0
4, 154560, Note_on_c, 0, 74, 0
4, 154560, Note_on_c, 0, 73, 93
4, 154560, Note_on_c, 0, 85, 93
4, 154800, Note_on_c, 0, 85, 0
4, 154800, Note_on_c, 0, 73, 0
4, 154800, Control_c, 0, 64, 0
4, 154800, Note_on_c, 0, 74, 93
4, 154800, Note_on_c, 0, 86, 93
4, 155040, Note_on_c, 0, 86, 0
4, 155040, Note_on_c, 0, 74, 0
4, 155040, Note_on_c, 0, 74, 127
4, 155040, Note_on_c, 0, 77, 127
4, 155040, Note_on_c, 0, 80, 127
4, 155280, Note_on_c, 0, 80, 0
4, 155280, Note_on_c, 0, 77, 0
4, 155280, Note_on_c, 0, 74, 0
4, 155280, Control_c, 0, 64, 127
4, 155280, Note_on_c, 0, 80, 106
4, 155280, Note_on_c, 0, 92, 106
4, 155520, Note_on_c, 0, 92, 0
4, 155520, Note_on_c, 0, 80, 0
4, 155520, Note_on_c, 0, 79, 106
4, 155520, Note_on_c, 0, 91, 106
4, 155760, Note_on_c, 0, 91, 0
4, 155760, Note_on_c, 0, 79, 0
4, 155760, Note_on_c, 0, 77, 106
4, 155760, Note_on_c, 0, 89, 106
4, 156000, Note_on_c, 0, 89, 0
4, 156000, Note_on_c, 0, 77, 0
4, 156000, Note_on_c, 0, 76, 106
4, 156000, Note_on_c, 0, 88, 106
4, 156240, Note_on_c, 0, 88, 0
4, 156240, Note_on_c, 0, 76, 0
4, 156240, Control_c, 0, 64, 0
4, 156240, Note_on_c, 0, 77, 106
4, 156240, Note_on_c, 0, 89, 106
4, 156480, Note_on_c, 0, 89, 0
4, 156480, Note_on_c, 0, 77, 0
4, 156480, Note_on_c, 0, 85, 106
4, 156720, Note_on_c, 0, 85, 0
4, 156720, Note_on_c, 0, 86, 106
4, 156960, Note_on_c, 0, 86, 0
4, 156960, Note_on_c, 0, 82, 106
4, 157200, Note_on_c, 0, 82, 0
4, 157200, Note_on_c, 0, 83, 106
4, 157440, Note_on_c, 0, 83, 0
4, 157440, Note_on_c, 0, 71, 106
4, 157680, Note_on_c, 0, 71, 0
4, 157680, Note_on_c, 0, 73, 106
4, 157920, Note_on_c, 0, 73, 0
4, 157920, Note_on_c, 0, 74, 93
4, 158160, Note_on_c, 0, 74, 0
4, 158160, Note_on_c, 0, 76, 93
4, 158400, Note_on_c, 0, 76, 0
4, 158400, Note_on_c, 0, 77, 93
4, 158640, Note_on_c, 0, 77, 0
4, 158640, Note_on_c, 0, 79, 93
4, 158687, Note_on_c, 0, 79, 0
4, 158880, Note_on_c, 0, 80, 93
4, 158927, Note_on_c, 0, 80, 0
4, 159120, Note_on_c, 0, 82, 93
4, 159167, Note_on_c, 0, 82, 0
4, 159360, Note_on_c, 0, 83, 80
4, 159600, Note_on_c, 0, 83, 0
4, 159600, Note_on_c, 0, 73, 80
4, 159600, Note_on_c, 0, 85, 80
4, 159840, Note_on_c, 0, 85, 0
4, 159840, Note_on_c, 0, 73, 0
4, 159840, Note_on_c, 0, 74, 80
4, 159840, Note_on_c, 0, 86, 80
4, 160080, Note_on_c, 0, 86, 0
4, 160080, Note_on_c, 0, 74, 0
4, 160080, Note_on_c, 0, 76, 67
4, 160080, Note_on_c, 0, 88, 67
4, 160560, Note_on_c, 0, 88, 0
4, 160560, Note_on_c, 0, 76, 0
4, 160560, Note_on_c, 0, 77, 67
4, 160560, Note_on_c, 0, 89, 67
4, 160800, Note_on_c, 0, 89, 0
4, 160800, Note_on_c, 0, 77, 0
4, 160800, Note_on_c, 0, 78, 67
4, 160800, Note_on_c, 0, 90, 67
4, 161040, Note_on_c, 0, 90, 0
4, 161040, Note_on_c, 0, 78, 0
4, 162400, Note_on_c, 0, 69, 54
4, 162440, Note_on_c, 0, 74, 54
4, 162480, Note_on_c, 0, 78, 54
4, 162527, Note_on_c, 0, 78, 0
4, 162527, Note_on_c, 0, 74, 0
4, 162527, Note_on_c, 0, 69, 0
4, 162640, Note_on_c, 0, 66, 54
4, 162680, Note_on_c, 0, 69, 54
4, 162720, Note_on_c, 0, 74, 54
4, 162767, Note_on_c, 0, 74, 0
4, 162767, Note_on_c, 0, 69, 0
4, 162767, Note_on_c, 0, 66, 0
4, 162880, Note_on_c, 0, 62, 54
4, 162920, Note_on_c, 0, 66, 54
4, 162960, Note_on_c, 0, 69, 67
4, 163007, Note_on_c, 0, 69, 0
4, 163007, Note_on_c, 0, 66, 0
4, 163007, Note_on_c, 0, 62, 0
4, 163120, Note_on_c, 0, 57, 67
4, 163160, Note_on_c, 0, 62, 67
4, 163200, Note_on_c, 0, 66, 67
4, 163247, Note_on_c, 0, 66, 0
4, 163247, Note_on_c, 0, 62, 0
4, 163247, Note_on_c, 0, 57, 0
4, 163360, Note_on_c, 0, 54, 67
4, 163400, Note_on_c, 0, 57, 67
4, 163440, Note_on_c, 0, 62, 67
4, 163487, Note_on_c, 0, 62, 0
4, 163487, Note_on_c, 0, 57, 0
4, 163487, Note_on_c, 0, 54, 0
4, 163620, Note_on_c, 0, 59, 67
4, 163680, Note_on_c, 0, 64, 67
4, 163776, Note_on_c, 0, 64, 0
4, 163776, Note_on_c, 0, 59, 0
4, 165280, Note_on_c, 0, 71, 67
4, 165320, Note_on_c, 0, 76, 67
4, 165344, Note_on_c, 0, 71, 0
4, 165360, Note_on_c, 0, 79, 67
4, 165375, Note_on_c, 0, 76, 0
4, 165407, Note_on_c, 0, 79, 0
4, 165520, Note_on_c, 0, 67, 67
4, 165560, Note_on_c, 0, 71, 67
4, 165584, Note_on_c, 0, 67, 0
4, 165600, Note_on_c, 0, 76, 67
4, 165615, Note_on_c, 0, 71, 0
4, 165647, Note_on_c, 0, 76, 0
4, 165760, Note_on_c, 0, 64, 67
4, 165800, Note_on_c, 0, 67, 67
4, 165824, Note_on_c, 0, 64, 0
4, 165840, Note_on_c, 0, 71, 67
4, 165855, Note_on_c, 0, 67, 0
4, 165887, Note_on_c, 0, 71, 0
4, 166000, Note_on_c, 0, 59, 67
4, 166040, Note_on_c, 0, 64, 67
4, 166064, Note_on_c, 0, 59, 0
4, 166080, Note_on_c, 0, 67, 67
4, 166095, Note_on_c, 0, 64, 0
4, 166127, Note_on_c, 0, 67, 0
4, 166240, Note_on_c, 0, 55, 67
4, 166280, Note_on_c, 0, 59, 67
4, 166304, Note_on_c, 0, 55, 0
4, 166320, Note_on_c, 0, 64, 67
4, 166335, Note_on_c, 0, 59, 0
4, 166367, Note_on_c, 0, 64, 0
4, 183060, Control_c, 0, 64, 127
4, 183060, Note_on_c, 0, 57, 54
4, 183060, Note_on_c, 0, 62, 54
4, 183120, Note_on_c, 0, 62, 0
4, 183120, Note_on_c, 0, 57, 0
4, 183120, Note_on_c, 0, 54, 54
4, 183180, Note_on_c, 0, 54, 0
4, 183180, Note_on_c, 0, 57, 54
4, 183180, Note_on_c, 0, 62, 54
4, 183240, Note_on_c, 0, 62, 0
4, 183240, Note_on_c, 0, 57, 0
4, 183240, Note_on_c, 0, 54, 54
4, 183300, Note_on_c, 0, 54, 0
4, 183300, Note_on_c, 0, 57, 54
4, 183300, Note_on_c, 0, 62, 54
4, 183360, Note_on_c, 0, 62, 0
4, 183360, Note_on_c, 0, 57, 0
4, 183360, Note_on_c, 0, 54, 54
4, 183420, Note_on_c, 0, 54, 0
4, 183420, Note_on_c, 0, 57, 54
4, 183420, Note_on_c, 0, 62, 54
4, 183480, Note_on_c, 0, 62, 0
4, 183480, Note_on_c, 0, 57, 0
4, 183480, Note_on_c, 0, 54, 54
4, 183540, Note_on_c, 0, 54, 0
4, 183540, Note_on_c, 0, 57, 54
4, 183540, Note_on_c, 0, 62, 54
4, 183600, Note_on_c, 0, 62, 0
4, 183600, Note_on_c, 0, 57, 0
4, 183600, Note_on_c, 0, 54, 54
4, 183660, Note_on_c, 0, 54, 0
4, 183660, Note_on_c, 0, 57, 54
4, 183660, Note_on_c, 0, 62, 54
4, 183720, Note_on_c, 0, 62, 0
4, 183720, Note_on_c, 0, 57, 0
4, 183720, Note_on_c, 0, 54, 54
4, 183780, Note_on_c, 0, 54, 0
4, 183780, Note_on_c, 0, 57, 54
4, 183780, Note_on_c, 0, 62, 54
4, 183840, Note_on_c, 0, 62, 0
4, 183840, Note_on_c, 0, 57, 0
4, 183840, Note_on_c, 0, 54, 54
4, 183900, Note_on_c, 0, 54, 0
4, 183900, Note_on_c, 0, 57, 54
4, 183900, Note_on_c, 0, 62, 54
4, 183960, Note_on_c, 0, 62, 0
4, 183960, Note_on_c, 0, 57, 0
4, 183960, Note_on_c, 0, 54, 54
4, 184020, Note_on_c, 0, 54, 0
4, 184020, Note_on_c, 0, 57, 54
4, 184020, Note_on_c, 0, 62, 54
4, 184080, Note_on_c, 0, 62, 0
4, 184080, Note_on_c, 0, 57, 0
4, 184080, Note_on_c, 0, 54, 54
4, 184140, Note_on_c, 0, 54, 0
4, 184140, Note_on_c, 0, 57, 54
4, 184140, Note_on_c, 0, 62, 54
4, 184200, Note_on_c, 0, 62, 0
4, 184200, Note_on_c, 0, 57, 0
4, 184200, Note_on_c, 0, 54, 54
4, 184260, Note_on_c, 0, 54, 0
4, 184260, Note_on_c, 0, 57, 54
4, 184260, Note_on_c, 0, 62, 54
4, 184320, Note_on_c, 0, 62, 0
4, 184320, Note_on_c, 0, 57, 0
4, 184320, Note_on_c, 0, 54, 54
4, 184380, Note_on_c, 0, 54, 0
4, 184380, Note_on_c, 0, 57, 54
4, 184380, Note_on_c, 0, 62, 54
4, 184440, Note_on_c, 0, 62, 0
4, 184440, Note_on_c, 0, 57, 0
4, 184440, Note_on_c, 0, 54, 54
4, 184500, Note_on_c, 0, 54, 0
4, 184500, Note_on_c, 0, 57, 54
4, 184500, Note_on_c, 0, 62, 54
4, 184560, Note_on_c, 0, 62, 0
4, 184560, Note_on_c, 0, 57, 0
4, 184560, Note_on_c, 0, 54, 54
4, 184620, Note_on_c, 0, 54, 0
4, 184620, Note_on_c, 0, 57, 54
4, 184620, Note_on_c, 0, 62, 54
4, 184680, Note_on_c, 0, 62, 0
4, 184680, Note_on_c, 0, 57, 0
4, 184680, Note_on_c, 0, 54, 54
4, 184740, Note_on_c, 0, 54, 0
4, 184740, Note_on_c, 0, 57, 54
4, 184740, Note_on_c, 0, 62, 54
4, 184800, Note_on_c, 0, 62, 0
4, 184800, Note_on_c, 0, 57, 0
4, 184800, Note_on_c, 0, 54, 54
4, 184860, Note_on_c, 0, 54, 0
4, 184860, Note_on_c, 0, 57, 54
4, 184860, Note_on_c, 0, 62, 54
4, 184920, Note_on_c, 0, 62, 0
4, 184920, Note_on_c, 0, 57, 0
4, 184920, Note_on_c, 0, 54, 54
4, 184980, Note_on_c, 0, 54, 0
4, 184980, Note_on_c, 0, 57, 54
4, 184980, Note_on_c, 0, 62, 54
4, 185040, Note_on_c, 0, 62, 0
4, 185040, Note_on_c, 0, 57, 0
4, 185040, Note_on_c, 0, 54, 54
4, 185100, Note_on_c, 0, 54, 0
4, 185100, Note_on_c, 0, 57, 54
4, 185100, Note_on_c, 0, 62, 54
4, 185160, Note_on_c, 0, 62, 0
4, 185160, Note_on_c, 0, 57, 0
4, 185160, Note_on_c, 0, 54, 54
4, 185220, Note_on_c, 0, 54, 0
4, 185220, Note_on_c, 0, 57, 54
4, 185220, Note_on_c, 0, 62, 54
4, 185280, Note_on_c, 0, 62, 0
4, 185280, Note_on_c, 0, 57, 0
4, 185280, Note_on_c, 0, 54, 54
4, 185340, Note_on_c, 0, 54, 0
4, 185340, Note_on_c, 0, 57, 54
4, 185340, Note_on_c, 0, 62, 54
4, 185400, Note_on_c, 0, 62, 0
4, 185400, Note_on_c, 0, 57, 0
4, 185400, Note_on_c, 0, 54, 54
4, 185460, Note_on_c, 0, 54, 0
4, 185460, Note_on_c, 0, 57, 54
4, 185460, Note_on_c, 0, 62, 54
4, 185520, Note_on_c, 0, 62, 0
4, 185520, Note_on_c, 0, 57, 0
4, 185520, Note_on_c, 0, 54, 54
4, 185580, Note_on_c, 0, 54, 0
4, 185580, Note_on_c, 0, 57, 54
4, 185580, Note_on_c, 0, 62, 54
4, 185640, Note_on_c, 0, 62, 0
4, 185640, Note_on_c, 0, 57, 0
4, 185640, Note_on_c, 0, 54, 54
4, 185700, Note_on_c, 0, 54, 0
4, 185700, Note_on_c, 0, 57, 54
4, 185700, Note_on_c, 0, 62, 54
4, 185760, Note_on_c, 0, 62, 0
4, 185760, Note_on_c, 0, 57, 0
4, 185760, Note_on_c, 0, 54, 54
4, 185820, Note_on_c, 0, 54, 0
4, 185820, Control_c, 0, 64, 0
4, 185820, Note_on_c, 0, 57, 54
4, 185820, Note_on_c, 0, 62, 54
4, 185880, Note_on_c, 0, 62, 0
4, 185880, Note_on_c, 0, 57, 0
4, 185880, Note_on_c, 0, 54, 54
4, 185940, Note_on_c, 0, 54, 0
4, 185940, Control_c, 0, 64, 127
4, 185940, Note_on_c, 0, 56, 54
4, 185940, Note_on_c, 0, 62, 54
4, 186000, Note_on_c, 0, 62, 0
4, 186000, Note_on_c, 0, 56, 0
4, 186000, Note_on_c, 0, 53, 54
4, 186060, Note_on_c, 0, 53, 0
4, 186060, Note_on_c, 0, 56, 54
4, 186060, Note_on_c, 0, 62, 54
4, 186120, Note_on_c, 0, 62, 0
4, 186120, Note_on_c, 0, 56, 0
4, 186120, Note_on_c, 0, 53, 54
4, 186180, Note_on_c, 0, 53, 0
4, 186180, Note_on_c, 0, 56, 54
4, 186180, Note_on_c, 0, 62, 54
4, 186240, Note_on_c, 0, 62, 0
4, 186240, Note_on_c, 0, 56, 0
4, 186240, Note_on_c, 0, 53, 54
4, 186300, Note_on_c, 0, 53, 0
4, 186300, Note_on_c, 0, 56, 54
4, 186300, Note_on_c, 0, 62, 54
4, 186360, Note_on_c, 0, 62, 0
4, 186360, Note_on_c, 0, 56, 0
4, 186360, Note_on_c, 0, 53, 54
4, 186420, Note_on_c, 0, 53, 0
4, 186420, Note_on_c, 0, 56, 54
4, 186420, Note_on_c, 0, 62, 54
4, 186480, Note_on_c, 0, 62, 0
4, 186480, Note_on_c, 0, 56, 0
4, 186480, Note_on_c, 0, 53, 54
4, 186540, Note_on_c, 0, 53, 0
4, 186540, Note_on_c, 0, 56, 54
4, 186540, Note_on_c, 0, 62, 54
4, 186600, Note_on_c, 0, 62, 0
4, 186600, Note_on_c, 0, 56, 0
4, 186600, Note_on_c, 0, 53, 54
4, 186660, Note_on_c, 0, 53, 0
4, 186660, Note_on_c, 0, 56, 54
4, 186660, Note_on_c, 0, 62, 54
4, 186720, Note_on_c, 0, 62, 0
4, 186720, Note_on_c, 0, 56, 0
4, 186720, Note_on_c, 0, 53, 54
4, 186780, Note_on_c, 0, 53, 0
4, 186780, Note_on_c, 0, 56, 54
4, 186780, Note_on_c, 0, 62, 54
4, 186840, Note_on_c, 0, 62, 0
4, 186840, Note_on_c, 0, 56, 0
4, 186840, Note_on_c, 0, 53, 54
4, 186900, Note_on_c, 0, 53, 0
4, 186900, Note_on_c, 0, 56, 54
4, 186900, Note_on_c, 0, 62, 54
4, 186960, Note_on_c, 0, 62, 0
4, 186960, Note_on_c, 0, 56, 0
4, 186960, Note_on_c, 0, 53, 54
4, 187020, Note_on_c, 0, 53, 0
4, 187020, Note_on_c, 0, 56, 54
4, 187020, Note_on_c, 0, 62, 54
4, 187080, Note_on_c, 0, 62, 0
4, 187080, Note_on_c, 0, 56, 0
4, 187080, Note_on_c, 0, 53, 54
4, 187140, Note_on_c, 0, 53, 0
4, 187140, Note_on_c, 0, 56, 54
4, 187140, Note_on_c, 0, 62, 54
4, 187200, Note_on_c, 0, 62, 0
4, 187200, Note_on_c, 0, 56, 0
4, 187200, Note_on_c, 0, 53, 54
4, 187260, Note_on_c, 0, 53, 0
4, 187260, Control_c, 0, 64, 0
4, 187260, Note_on_c, 0, 56, 54
4, 187260, Note_on_c, 0, 62, 54
4, 187320, Note_on_c, 0, 62, 0
4, 187320, Note_on_c, 0, 56, 0
4, 187320, Note_on_c, 0, 53, 54
4, 187380, Note_on_c, 0, 53, 0
4, 187380, Control_c, 0, 64, 127
4, 187380, Note_on_c, 0, 55, 54
4, 187380, Note_on_c, 0, 62, 54
4, 187440, Note_on_c, 0, 62, 0
4, 187440, Note_on_c, 0, 55, 0
4, 187440, Note_on_c, 0, 52, 54
4, 187500, Note_on_c, 0, 52, 0
4, 187500, Note_on_c, 0, 55, 54
4, 187500, Note_on_c, 0, 62, 54
4, 187560, Note_on_c, 0, 62, 0
4, 187560, Note_on_c, 0, 55, 0
4, 187560, Note_on_c, 0, 52, 54
4, 187620, Note_on_c, 0, 52, 0
4, 187620, Note_on_c, 0, 55, 54
4, 187620, Note_on_c, 0, 62, 54
4, 187680, Note_on_c, 0, 62, 0
4, 187680, Note_on_c, 0, 55, 0
4, 187680, Note_on_c, 0, 52, 54
4, 187740, Note_on_c, 0, 52, 0
4, 187740, Note_on_c, 0, 55, 54
4, 187740, Note_on_c, 0, 62, 54
4, 187800, Note_on_c, 0, 62, 0
4, 187800, Note_on_c, 0, 55, 0
4, 187800, Note_on_c, 0, 52, 54
4, 187860, Note_on_c, 0, 52, 0
4, 187860, Note_on_c, 0, 55, 54
4, 187860, Note_on_c, 0, 62, 54
4, 187920, Note_on_c, 0, 62, 0
4, 187920, Note_on_c, 0, 55, 0
4, 187920, Note_on_c, 0, 52, 54
4, 187980, Note_on_c, 0, 52, 0
4, 187980, Note_on_c, 0, 55, 54
4, 187980, Note_on_c, 0, 62, 54
4, 188040, Note_on_c, 0, 62, 0
4, 188040, Note_on_c, 0, 55, 0
4, 188040, Note_on_c, 0, 52, 54
4, 188100, Note_on_c, 0, 52, 0
4, 188100, Note_on_c, 0, 55, 54
4, 188100, Note_on_c, 0, 62, 54
4, 188160, Note_on_c, 0, 62, 0
4, 188160, Note_on_c, 0, 55, 0
4, 188160, Note_on_c, 0, 52, 54
4, 188220, Note_on_c, 0, 52, 0
4, 188220, Note_on_c, 0, 55, 54
4, 188220, Note_on_c, 0, 62, 54
4, 188280, Note_on_c, 0, 62, 0
4, 188280, Note_on_c, 0, 55, 0
4, 188280, Note_on_c, 0, 52, 54
4, 188340, Note_on_c, 0, 52, 0
4, 188340, Note_on_c, 0, 55, 54
4, 188340, Note_on_c, 0, 62, 54
4, 188400, Note_on_c, 0, 62, 0
4, 188400, Note_on_c, 0, 55, 0
4, 188400, Note_on_c, 0, 52, 54
4, 188460, Note_on_c, 0, 52, 0
4, 188460, Note_on_c, 0, 55, 54
4, 188460, Note_on_c, 0, 62, 54
4, 188520, Note_on_c, 0, 62, 0
4, 188520, Note_on_c, 0, 55, 0
4, 188520, Note_on_c, 0, 52, 54
4, 188580, Note_on_c, 0, 52, 0
4, 188580, Note_on_c, 0, 55, 54
4, 188580, Note_on_c, 0, 62, 54
4, 188640, Note_on_c, 0, 62, 0
4, 188640, Note_on_c, 0, 55, 0
4, 188640, Note_on_c, 0, 52, 54
4, 188700, Note_on_c, 0, 52, 0
4, 188700, Note_on_c, 0, 55, 54
4, 188700, Note_on_c, 0, 62, 54
4, 188760, Note_on_c, 0, 62, 0
4, 188760, Note_on_c, 0, 55, 0
4, 188760, Control_c, 0, 64, 0
4, 188760, Note_on_c, 0, 52, 54
4, 188820, Note_on_c, 0, 52, 0
4, 188820, Control_c, 0, 64, 127
4, 188820, Note_on_c, 0, 57, 54
4, 188820, Note_on_c, 0, 62, 54
4, 188880, Note_on_c, 0, 62, 0
4, 188880, Note_on_c, 0, 57, 0
4, 188880, Note_on_c, 0, 53, 54
4, 188940, Note_on_c, 0, 53, 0
4, 188940, Note_on_c, 0, 57, 54
4, 188940, Note_on_c, 0, 62, 54
4, 189000, Note_on_c, 0, 62, 0
4, 189000, Note_on_c, 0, 57, 0
4, 189000, Note_on_c, 0, 53, 54
4, 189060, Note_on_c, 0, 53, 0
4, 189060, Note_on_c, 0, 57, 54
4, 189060, Note_on_c, 0, 62, 54
4, 189120, Note_on_c, 0, 62, 0
4, 189120, Note_on_c, 0, 57, 0
4, 189120, Note_on_c, 0, 53, 54
4, 189180, Note_on_c, 0, 53, 0
4, 189180, Note_on_c, 0, 57, 54
4, 189180, Note_on_c, 0, 62, 54
4, 189240, Note_on_c, 0, 62, 0
4, 189240, Note_on_c, 0, 57, 0
4, 189240, Note_on_c, 0, 53, 54
4, 189300, Note_on_c, 0, 53, 0
4, 189300, Note_on_c, 0, 57, 54
4, 189300, Note_on_c, 0, 62, 54
4, 189360, Note_on_c, 0, 62, 0
4, 189360, Note_on_c, 0, 57, 0
4, 189360, Note_on_c, 0, 53, 54
4, 189420, Note_on_c, 0, 53, 0
4, 189420, Note_on_c, 0, 57, 54
4, 189420, Note_on_c, 0, 62, 54
4, 189480, Note_on_c, 0, 62, 0
4, 189480, Note_on_c, 0, 57, 0
4, 189480, Note_on_c, 0, 53, 54
4, 189540, Note_on_c, 0, 53, 0
4, 189540, Note_on_c, 0, 57, 54
4, 189540, Note_on_c, 0, 62, 54
4, 189600, Note_on_c, 0, 62, 0
4, 189600, Note_on_c, 0, 57, 0
4, 189600, Note_on_c, 0, 53, 54
4, 189660, Note_on_c, 0, 53, 0
4, 189660, Note_on_c, 0, 57, 54
4, 189660, Note_on_c, 0, 62, 54
4, 189720, Note_on_c, 0, 62, 0
4, 189720, Note_on_c, 0, 57, 0
4, 189720, Note_on_c, 0, 53, 54
4, 189780, Note_on_c, 0, 53, 0
4, 189780, Note_on_c, 0, 57, 54
4, 189780, Note_on_c, 0, 62, 54
4, 189840, Note_on_c, 0, 62, 0
4, 189840, Note_on_c, 0, 57, 0
4, 189840, Note_on_c, 0, 53, 54
4, 189900, Note_on_c, 0, 53, 0
4, 189900, Note_on_c, 0, 57, 54
4, 189900, Note_on_c, 0, 62, 54
4, 189960, Note_on_c, 0, 62, 0
4, 189960, Note_on_c, 0, 57, 0
4, 189960, Note_on_c, 0, 53, 54
4, 190020, Note_on_c, 0, 53, 0
4, 190020, Note_on_c, 0, 57, 54
4, 190020, Note_on_c, 0, 62, 54
4, 190080, Note_on_c, 0, 62, 0
4, 190080, Note_on_c, 0, 57, 0
4, 190080, Note_on_c, 0, 53, 54
4, 190140, Note_on_c, 0, 53, 0
4, 190140, Control_c, 0, 64, 0
4, 190140, Note_on_c, 0, 57, 54
4, 190140, Note_on_c, 0, 62, 54
4, 190200, Note_on_c, 0, 62, 0
4, 190200, Note_on_c, 0, 57, 0
4, 190200, Note_on_c, 0, 53, 54
4, 190260, Note_on_c, 0, 53, 0
4, 190260, Control_c, 0, 64, 127
4, 190260, Note_on_c, 0, 58, 54
4, 190260, Note_on_c, 0, 62, 54
4, 190320, Note_on_c, 0, 62, 0
4, 190320, Note_on_c, 0, 58, 0
4, 190320, Note_on_c, 0, 53, 54
4, 190380, Note_on_c, 0, 53, 0
4, 190380, Note_on_c, 0, 58, 54
4, 190380, Note_on_c, 0, 62, 54
4, 190440, Note_on_c, 0, 62, 0
4, 190440, Note_on_c, 0, 58, 0
4, 190440, Note_on_c, 0, 53, 54
4, 190500, Note_on_c, 0, 53, 0
4, 190500, Note_on_c, 0, 58, 54
4, 190500, Note_on_c, 0, 62, 54
4, 190560, Note_on_c, 0, 62, 0
4, 190560, Note_on_c, 0, 58, 0
4, 190560, Note_on_c, 0, 53, 54
4, 190620, Note_on_c, 0, 53, 0
4, 190620, Note_on_c, 0, 58, 54
4, 190620, Note_on_c, 0, 62, 54
4, 190680, Note_on_c, 0, 62, 0
4, 190680, Note_on_c, 0, 58, 0
4, 190680, Note_on_c, 0, 53, 54
4, 190740, Note_on_c, 0, 53, 0
4, 190740, Note_on_c, 0, 58, 54
4, 190740, Note_on_c, 0, 62, 54
4, 190800, Note_on_c, 0, 62, 0
4, 190800, Note_on_c, 0, 58, 0
4, 190800, Note_on_c, 0, 53, 54
4, 190860, Note_on_c, 0, 53, 0
4, 190860, Note_on_c, 0, 58, 54
4, 190860, Note_on_c, 0, 62, 54
4, 190920, Note_on_c, 0, 62, 0
4, 190920, Note_on_c, 0, 58, 0
4, 190920, Note_on_c, 0, 53, 54
4, 190980, Note_on_c, 0, 53, 0
4, 190980, Note_on_c, 0, 58, 54
4, 190980, Note_on_c, 0, 62, 54
4, 191040, Note_on_c, 0, 62, 0
4, 191040, Note_on_c, 0, 58, 0
4, 191040, Note_on_c, 0, 53, 54
4, 191100, Note_on_c, 0, 53, 0
4, 191100, Note_on_c, 0, 58, 54
4, 191100, Note_on_c, 0, 62, 54
4, 191160, Note_on_c, 0, 62, 0
4, 191160, Note_on_c, 0, 58, 0
4, 191160, Note_on_c, 0, 53, 54
4, 191220, Note_on_c, 0, 53, 0
4, 191220, Note_on_c, 0, 58, 54
4, 191220, Note_on_c, 0, 62, 54
4, 191280, Note_on_c, 0, 62, 0
4, 191280, Note_on_c, 0, 58, 0
4, 191280, Note_on_c, 0, 53, 54
4, 191340, Note_on_c, 0, 53, 0
4, 191340, Note_on_c, 0, 58, 54
4, 191340, Note_on_c, 0, 62, 54
4, 191400, Note_on_c, 0, 62, 0
4, 191400, Note_on_c, 0, 58, 0
4, 191400, Note_on_c, 0, 53, 54
4, 191460, Note_on_c, 0, 53, 0
4, 191460, Note_on_c, 0, 58, 54
4, 191460, Note_on_c, 0, 62, 54
4, 191520, Note_on_c, 0, 62, 0
4, 191520, Note_on_c, 0, 58, 0
4, 191520, Note_on_c, 0, 53, 54
4, 191580, Note_on_c, 0, 53, 0
4, 191580, Control_c, 0, 64, 0
4, 191580, Note_on_c, 0, 58, 54
4, 191580, Note_on_c, 0, 62, 54
4, 191640, Note_on_c, 0, 62, 0
4, 191640, Note_on_c, 0, 58, 0
4, 191640, Note_on_c, 0, 53, 54
4, 191700, Note_on_c, 0, 53, 0
4, 191700, Control_c, 0, 64, 127
4, 191700, Note_on_c, 0, 58, 54
4, 191700, Note_on_c, 0, 62, 54
4, 191760, Note_on_c, 0, 62, 0
4, 191760, Note_on_c, 0, 58, 0
4, 191760, Note_on_c, 0, 52, 54
4, 191820, Note_on_c, 0, 52, 0
4, 191820, Note_on_c, 0, 58, 54
4, 191820, Note_on_c, 0, 62, 54
4, 191880, Note_on_c, 0, 62, 0
4, 191880, Note_on_c, 0, 58, 0
4, 191880, Note_on_c, 0, 52, 54
4, 191940, Note_on_c, 0, 52, 0
4, 191940, Note_on_c, 0, 58, 54
4, 191940, Note_on_c, 0, 62, 54
4, 192000, Note_on_c, 0, 62, 0
4, 192000, Note_on_c, 0, 58, 0
4, 192000, Note_on_c, 0, 52, 54
4, 192060, Note_on_c, 0, 52, 0
4, 192060, Note_on_c, 0, 58, 54
4, 192060, Note_on_c, 0, 62, 54
4, 192120, Note_on_c, 0, 62, 0
4, 192120, Note_on_c, 0, 58, 0
4, 192120, Note_on_c, 0, 52, 54
4, 192180, Note_on_c, 0, 52, 0
4, 192180, Note_on_c, 0, 58, 54
4, 192180, Note_on_c, 0, 62, 54
4, 192240, Note_on_c, 0, 62, 0
4, 192240, Note_on_c, 0, 58, 0
4, 192240, Note_on_c, 0, 52, 54
4, 192300, Note_on_c, 0, 52, 0
4, 192300, Note_on_c, 0, 58, 54
4, 192300, Note_on_c, 0, 62, 54
4, 192360, Note_on_c, 0, 62, 0
4, 192360, Note_on_c, 0, 58, 0
4, 192360, Note_on_c, 0, 52, 54
4, 192420, Note_on_c, 0, 52, 0
4, 192420, Note_on_c, 0, 58, 54
4, 192420, Note_on_c, 0, 62, 54
4, 192480, Note_on_c, 0, 62, 0
4, 192480, Note_on_c, 0, 58, 0
4, 192480, Note_on_c, 0, 52, 54
4, 192540, Note_on_c, 0, 52, 0
4, 192540, Note_on_c, 0, 58, 54
4, 192540, Note_on_c, 0, 62, 54
4, 192600, Note_on_c, 0, 62, 0
4, 192600, Note_on_c, 0, 58, 0
4, 192600, Note_on_c, 0, 52, 54
4, 192660, Note_on_c, 0, 52, 0
4, 192660, Note_on_c, 0, 58, 54
4, 192660, Note_on_c, 0, 62, 54
4, 192720, Note_on_c, 0, 62, 0
4, 192720, Note_on_c, 0, 58, 0
4, 192720, Note_on_c, 0, 52, 54
4, 192780, Note_on_c, 0, 52, 0
4, 192780, Note_on_c, 0, 58, 54
4, 192780, Note_on_c, 0, 62, 54
4, 192840, Note_on_c, 0, 62, 0
4, 192840, Note_on_c, 0, 58, 0
4, 192840, Note_on_c, 0, 52, 54
4, 192900, Note_on_c, 0, 52, 0
4, 192900, Note_on_c, 0, 58, 54
4, 192900, Note_on_c, 0, 62, 54
4, 192960, Note_on_c, 0, 62, 0
4, 192960, Note_on_c, 0, 58, 0
4, 192960, Note_on_c, 0, 52, 54
4, 193020, Note_on_c, 0, 52, 0
4, 193020, Control_c, 0, 64, 0
4, 193020, Note_on_c, 0, 58, 54
4, 193020, Note_on_c, 0, 62, 54
4, 193080, Note_on_c, 0, 62, 0
4, 193080, Note_on_c, 0, 58, 0
4, 193080, Note_on_c, 0, 52, 54
4, 193140, Note_on_c, 0, 52, 0
4, 193140, Control_c, 0, 64, 127
4, 193140, Note_on_c, 0, 58, 54
4, 193140, Note_on_c, 0, 62, 54
4, 193200, Note_on_c, 0, 62, 0
4, 193200, Note_on_c, 0, 58, 0
4, 193200, Note_on_c, 0, 50, 54
4, 193260, Note_on_c, 0, 50, 0
4, 193260, Note_on_c, 0, 58, 54
4, 193260, Note_on_c, 0, 62, 54
4, 193320, Note_on_c, 0, 62, 0
4, 193320, Note_on_c, 0, 58, 0
4, 193320, Note_on_c, 0, 50, 54
4, 193380, Note_on_c, 0, 50, 0
4, 193380, Note_on_c, 0, 58, 54
4, 193380, Note_on_c, 0, 62, 54
4, 193440, Note_on_c, 0, 62, 0
4, 193440, Note_on_c, 0, 58, 0
4, 193440, Note_on_c, 0, 50, 54
4, 193500, Note_on_c, 0, 50, 0
4, 193500, Note_on_c, 0, 58, 54
4, 193500, Note_on_c, 0, 62, 54
4, 193560, Note_on_c, 0, 62, 0
4, 193560, Note_on_c, 0, 58, 0
4, 193560, Note_on_c, 0, 50, 54
4, 193620, Note_on_c, 0, 50, 0
4, 193620, Note_on_c, 0, 58, 54
4, 193620, Note_on_c, 0, 62, 54
4, 193680, Note_on_c, 0, 62, 0
4, 193680, Note_on_c, 0, 58, 0
4, 193680, Note_on_c, 0, 50, 54
4, 193740, Note_on_c, 0, 50, 0
4, 193740, Note_on_c, 0, 58, 54
4, 193740, Note_on_c, 0, 62, 54
4, 193800, Note_on_c, 0, 62, 0
4, 193800, Note_on_c, 0, 58, 0
4, 193800, Note_on_c, 0, 50, 54
4, 193860, Note_on_c, 0, 50, 0
4, 193860, Note_on_c, 0, 58, 54
4, 193860, Note_on_c, 0, 62, 54
4, 193920, Note_on_c, 0, 62, 0
4, 193920, Note_on_c, 0, 58, 0
4, 193920, Note_on_c, 0, 50, 54
4, 193980, Note_on_c, 0, 50, 0
4, 193980, Control_c, 0, 64, 0
4, 193980, Note_on_c, 0, 58, 54
4, 193980, Note_on_c, 0, 62, 54
4, 194040, Note_on_c, 0, 62, 0
4, 194040, Note_on_c, 0, 58, 0
4, 194040, Note_on_c, 0, 50, 54
4, 194100, Note_on_c, 0, 50, 0
4, 194100, Control_c, 0, 64, 127
4, 194100, Note_on_c, 0, 58, 54
4, 194100, Note_on_c, 0, 62, 54
4, 194100, Note_on_c, 0, 64, 54
4, 194160, Note_on_c, 0, 64, 0
4, 194160, Note_on_c, 0, 62, 0
4, 194160, Note_on_c, 0, 58, 0
4, 194160, Note_on_c, 0, 52, 54
4, 194220, Note_on_c, 0, 52, 0
4, 194220, Note_on_c, 0, 58, 54
4, 194220, Note_on_c, 0, 62, 54
4, 194220, Note_on_c, 0, 64, 54
4, 194280, Note_on_c, 0, 64, 0
4, 194280, Note_on_c, 0, 62, 0
4, 194280, Note_on_c, 0, 58, 0
4, 194280, Note_on_c, 0, 52, 54
4, 194340, Note_on_c, 0, 52, 0
4, 194340, Note_on_c, 0, 58, 54
4, 194340, Note_on_c, 0, 62, 54
4, 194340, Note_on_c, 0, 64, 54
4, 194400, Note_on_c, 0, 64, 0
4, 194400, Note_on_c, 0, 62, 0
4, 194400, Note_on_c, 0, 58, 0
4, 194400, Note_on_c, 0, 52, 54
4, 194460, Note_on_c, 0, 52, 0
4, 194460, Note_on_c, 0, 58, 54
4, 194460, Note_on_c, 0, 62, 54
4, 194460, Note_on_c, 0, 64, 54
4, 194520, Note_on_c, 0, 64, 0
4, 194520, Note_on_c, 0, 62, 0
4, 194520, Note_on_c, 0, 58, 0
4, 194520, Control_c, 0, 64, 0
4, 194520, Note_on_c, 0, 52, 54
4, 194580, Note_on_c, 0, 52, 0
4, 194580, Control_c, 0, 64, 127
4, 194580, Note_on_c, 0, 57, 54
4, 194580, Note_on_c, 0, 62, 54
4, 194580, Note_on_c, 0, 66, 54
4, 194640, Note_on_c, 0, 66, 0
4, 194640, Note_on_c, 0, 62, 0
4, 194640, Note_on_c, 0, 57, 0
4, 194640, Note_on_c, 0, 54, 54
4, 194700, Note_on_c, 0, 54, 0
4, 194700, Note_on_c, 0, 57, 54
4, 194700, Note_on_c, 0, 62, 54
4, 194700, Note_on_c, 0, 66, 54
4, 194760, Note_on_c, 0, 66, 0
4, 194760, Note_on_c, 0, 62, 0
4, 194760, Note_on_c, 0, 57, 0
4, 194760, Note_on_c, 0, 54, 54
4, 194820, Note_on_c, 0, 54, 0
4, 194820, Note_on_c, 0, 57, 54
4, 194820, Note_on_c, 0, 62, 54
4, 194820, Note_on_c, 0, 66, 54
4, 194880, Note_on_c, 0, 66, 0
4, 194880, Note_on_c, 0, 62, 0
4, 194880, Note_on_c, 0, 57, 0
4, 194880, Note_on_c, 0, 54, 54
4, 194940, Note_on_c, 0, 54, 0
4, 194940, Note_on_c, 0, 57, 54
4, 194940, Note_on_c, 0, 62, 54
4, 194940, Note_on_c, 0, 66, 54
4, 195000, Note_on_c, 0, 66, 0
4, 195000, Note_on_c, 0, 62, 0
4, 195000, Note_on_c, 0, 57, 0
4, 195000, Note_on_c, 0, 54, 54
4, 195060, Note_on_c, 0, 54, 0
4, 195060, Note_on_c, 0, 57, 54
4, 195060, Note_on_c, 0, 62, 54
4, 195060, Note_on_c, 0, 66, 54
4, 195120, Note_on_c, 0, 66, 0
4, 195120, Note_on_c, 0, 62, 0
4, 195120, Note_on_c, 0, 57, 0
4, 195120, Note_on_c, 0, 54, 54
4, 195180, Note_on_c, 0, 54, 0
4, 195180, Note_on_c, 0, 57, 54
4, 195180, Note_on_c, 0, 62, 54
4, 195180, Note_on_c, 0, 66, 54
4, 195240, Note_on_c, 0, 66, 0
4, 195240, Note_on_c, 0, 62, 0
4, 195240, Note_on_c, 0, 57, 0
4, 195240, Note_on_c, 0, 54, 54
4, 195300, Note_on_c, 0, 54, 0
4, 195300, Note_on_c, 0, 57, 54
4, 195300, Note_on_c, 0, 62, 54
4, 195300, Note_on_c, 0, 66, 54
4, 195360, Note_on_c, 0, 66, 0
4, 195360, Note_on_c, 0, 62, 0
4, 195360, Note_on_c, 0, 57, 0
4, 195360, Note_on_c, 0, 54, 54
4, 195420, Note_on_c, 0, 54, 0
4, 195420, Note_on_c, 0, 57, 54
4, 195420, Note_on_c, 0, 62, 54
4, 195420, Note_on_c, 0, 66, 54
4, 195480, Note_on_c, 0, 66, 0
4, 195480, Note_on_c, 0, 62, 0
4, 195480, Note_on_c, 0, 57, 0
4, 195480, Note_on_c, 0, 54, 54
4, 195540, Note_on_c, 0, 54, 0
4, 195540, Note_on_c, 0, 57, 54
4, 195540, Note_on_c, 0, 62, 54
4, 195540, Note_on_c, 0, 66, 54
4, 195600, Note_on_c, 0, 66, 0
4, 195600, Note_on_c, 0, 62, 0
4, 195600, Note_on_c, 0, 57, 0
4, 195600, Note_on_c, 0, 54, 54
4, 195660, Note_on_c, 0, 54, 0
4, 195660, Note_on_c, 0, 57, 54
4, 195660, Note_on_c, 0, 62, 54
4, 195660, Note_on_c, 0, 66, 54
4, 195720, Note_on_c, 0, 66, 0
4, 195720, Note_on_c, 0, 62, 0
4, 195720, Note_on_c, 0, 57, 0
4, 195720, Note_on_c, 0, 54, 54
4, 195780, Note_on_c, 0, 54, 0
4, 195780, Note_on_c, 0, 57, 54
4, 195780, Note_on_c, 0, 62, 54
4, 195780, Note_on_c, 0, 66, 54
4, 195840, Note_on_c, 0, 66, 0
4, 195840, Note_on_c, 0, 62, 0
4, 195840, Note_on_c, 0, 57, 0
4, 195840, Note_on_c, 0, 54, 54
4, 195900, Note_on_c, 0, 54, 0
4, 195900, Control_c, 0, 64, 0
4, 195900, Note_on_c, 0, 57, 54
4, 195900, Note_on_c, 0, 62, 54
4, 195900, Note_on_c, 0, 66, 54
4, 195960, Note_on_c, 0, 66, 0
4, 195960, Note_on_c, 0, 62, 0
4, 195960, Note_on_c, 0, 57, 0
4, 195960, Note_on_c, 0, 54, 54
4, 196020, Note_on_c, 0, 54, 0
4, 196020, Note_on_c, 0, 72, 80
4, 196020, Note_on_c, 0, 84, 80
4, 196920, Note_on_c, 0, 84, 0
4, 196920, Note_on_c, 0, 72, 0
4, 196920, Note_on_c, 0, 74, 80
4, 196920, Note_on_c, 0, 86, 80
4, 196980, Note_on_c, 0, 86, 0
4, 196980, Note_on_c, 0, 74, 0
4, 196980, Note_on_c, 0, 72, 67
4, 196980, Note_on_c, 0, 84, 67
4, 197400, Note_on_c, 0, 84, 0
4, 197400, Note_on_c, 0, 72, 0
4, 197400, Note_on_c, 0, 74, 67
4, 197400, Note_on_c, 0, 86, 67
4, 197460, Note_on_c, 0, 86, 0
4, 197460, Note_on_c, 0, 74, 0
4, 197460, Note_on_c, 0, 71, 67
4, 197460, Note_on_c, 0, 83, 67
4, 198420, Note_on_c, 0, 83, 0
4, 198420, Note_on_c, 0, 71, 0
4, 198420, Note_on_c, 0, 62, 67
4, 198420, Note_on_c, 0, 74, 67
4, 198579, Note_on_c, 0, 74, 0
4, 198579, Note_on_c, 0, 62, 0
4, 198579, Note_on_c, 0, 62, 67
4, 198579, Note_on_c, 0, 74, 67
4, 198740, Note_on_c, 0, 74, 0
4, 198740, Note_on_c, 0, 62, 0
4, 198740, Note_on_c, 0, 62, 67
4, 198740, Note_on_c, 0, 74, 67
4, 198900, Note_on_c, 0, 74, 0
4, 198900, Note_on_c, 0, 62, 0
4, 198900, Note_on_c, 0, 70, 67
4, 198900, Note_on_c, 0, 74, 67
4, 198900, Note_on_c, 0, 82, 67
4, 199380, Note_on_c, 0, 74, 0
4, 199800, Note_on_c, 0, 82, 0
4, 199800, Note_on_c, 0, 70, 0
4, 199800, Note_on_c, 0, 72, 67
4, 199800, Note_on_c, 0, 84, 67
4, 199860, Note_on_c, 0, 84, 0
4, 199860, Note_on_c, 0, 72, 0
4, 199860, Note_on_c, 0, 70, 67
4, 199860, Note_on_c, 0, 82, 67
4, 200280, Note_on_c, 0, 82, 0
4, 200280, Note_on_c, 0, 70, 0
4, 200280, Note_on_c, 0, 72, 67
4, 200280, Note_on_c, 0, 84, 67
4, 200340, Note_on_c, 0, 84, 0
4, 200340, Note_on_c, 0, 72, 0
4, 200340, Note_on_c, 0, 69, 67
4, 200340, Note_on_c, 0, 81, 67
4, 201300, Note_on_c, 0, 81, 0
4, 201300, Note_on_c, 0, 69, 0
4, 201300, Note_on_c, 0, 62, 67
4, 201300, Note_on_c, 0, 74, 67
4, 201459, Note_on_c, 0, 74, 0
4, 201459, Note_on_c, 0, 62, 0
4, 201459, Note_on_c, 0, 62, 67
4, 201459, Note_on_c, 0, 74, 67
4, 201620, Note_on_c, 0, 74, 0
4, 201620, Note_on_c, 0, 62, 0
4, 201620, Note_on_c, 0, 62, 67
4, 201620, Note_on_c, 0, 74, 67
4, 201780, Note_on_c, 0, 74, 0
4, 201780, Note_on_c, 0, 62, 0
4, 201780, Note_on_c, 0, 68, 67
4, 201780, Note_on_c, 0, 80, 67
4, 202680, Note_on_c, 0, 80, 0
4, 202680, Note_on_c, 0, 68, 0
4, 202680, Note_on_c, 0, 70, 67
4, 202680, Note_on_c, 0, 82, 67
4, 202740, Note_on_c, 0, 82, 0
4, 202740, Note_on_c, 0, 70, 0
4, 202740, Note_on_c, 0, 68, 67
4, 202740, Note_on_c, 0, 80, 67
4, 203160, Note_on_c, 0, 80, 0
4, 203160, Note_on_c, 0, 68, 0
4, 203160, Note_on_c, 0, 70, 67
4, 203160, Note_on_c, 0, 82, 67
4, 203220, Note_on_c, 0, 82, 0
4, 203220, Note_on_c, 0, 70, 0
4, 203220, Note_on_c, 0, 67, 67
4, 203220, Note_on_c, 0, 79, 67
4, 204180, Note_on_c, 0, 79, 0
4, 204180, Note_on_c, 0, 67, 0
4, 204180, Note_on_c, 0, 62, 67
4, 204180, Note_on_c, 0, 74, 67
4, 204339, Note_on_c, 0, 74, 0
4, 204339, Note_on_c, 0, 62, 0
4, 204339, Note_on_c, 0, 62, 67
4, 204339, Note_on_c, 0, 74, 67
4, 204500, Note_on_c, 0, 74, 0
4, 204500, Note_on_c, 0, 62, 0
4, 204500, Note_on_c, 0, 62, 67
4, 204500, Note_on_c, 0, 74, 67
4, 204660, Note_on_c, 0, 74, 0
4, 204660, Note_on_c, 0, 62, 0
4, 204660, Note_on_c, 0, 61, 54
4, 204660, Note_on_c, 0, 69, 54
4, 204660, Note_on_c, 0, 73, 54
4, 205140, Note_on_c, 0, 69, 0
4, 205560, Note_on_c, 0, 73, 0
4, 205560, Note_on_c, 0, 61, 0
4, 205560, Note_on_c, 0, 62, 54
4, 205560, Note_on_c, 0, 74, 54
4, 205620, Note_on_c, 0, 74, 0
4, 205620, Note_on_c, 0, 62, 0
4, 205620, Note_on_c, 0, 61, 54
4, 205620, Note_on_c, 0, 73, 54
4, 206040, Note_on_c, 0, 73, 0
4, 206040, Note_on_c, 0, 61, 0
4, 206040, Note_on_c, 0, 62, 54
4, 206040, Note_on_c, 0, 74, 54
4, 206100, Note_on_c, 0, 74, 0
4, 206100, Note_on_c, 0, 62, 0
4, 206100, Note_on_c, 0, 62, 54
4, 206100, Note_on_c, 0, 74, 54
4, 206580, Note_on_c, 0, 74, 0
4, 206580, Note_on_c, 0, 62, 0
4, 206580, Note_on_c, 0, 62, 80
4, 207219, Note_on_c, 0, 62, 0
4, 207219, Note_on_c, 0, 62, 67
4, 207380, Note_on_c, 0, 62, 0
4, 207380, Note_on_c, 0, 62, 80
4, 207540, Note_on_c, 0, 62, 0
4, 207540, Control_c, 0, 64, 127
4, 207540, Note_on_c, 0, 56, 80
4, 207540, Note_on_c, 0, 62, 80
4, 207540, Note_on_c, 0, 65, 80
4, 207600, Note_on_c, 0, 65, 0
4, 207600, Note_on_c, 0, 62, 0
4, 207600, Note_on_c, 0, 56, 0
4, 207600, Note_on_c, 0, 53, 54
4, 207660, Note_on_c, 0, 53, 0
4, 207660, Note_on_c, 0, 56, 54
4, 207660, Note_on_c, 0, 62, 54
4, 207660, Note_on_c, 0, 65, 54
4, 207720, Note_on_c, 0, 65, 0
4, 207720, Note_on_c, 0, 62, 0
4, 207720, Note_on_c, 0, 56, 0
4, 207720, Note_on_c, 0, 53, 54
4, 207780, Note_on_c, 0, 53, 0
4, 207780, Note_on_c, 0, 56, 54
4, 207780, Note_on_c, 0, 62, 54
4, 207780, Note_on_c, 0, 65, 54
4, 207840, Note_on_c, 0, 65, 0
4, 207840, Note_on_c, 0, 62, 0
4, 207840, Note_on_c, 0, 56, 0
4, 207840, Note_on_c, 0, 53, 54
4, 207900, Note_on_c, 0, 53, 0
4, 207900, Note_on_c, 0, 56, 54
4, 207900, Note_on_c, 0, 62, 54
4, 207900, Note_on_c, 0, 65, 54
4, 207960, Note_on_c, 0, 65, 0
4, 207960, Note_on_c, 0, 62, 0
4, 207960, Note_on_c, 0, 56, 0
4, 207960, Note_on_c, 0, 53, 54
4, 208020, Note_on_c, 0, 53, 0
4, 208020, Note_on_c, 0, 56, 54
4, 208020, Note_on_c, 0, 62, 54
4, 208020, Note_on_c, 0, 65, 54
4, 208080, Note_on_c, 0, 65, 0
4, 208080, Note_on_c, 0, 62, 0
4, 208080, Note_on_c, 0, 56, 0
4, 208080, Note_on_c, 0, 53, 54
4, 208140, Note_on_c, 0, 53, 0
4, 208140, Note_on_c, 0, 56, 54
4, 208140, Note_on_c, 0, 62, 54
4, 208140, Note_on_c, 0, 65, 54
4, 208200, Note_on_c, 0, 65, 0
4, 208200, Note_on_c, 0, 62, 0
4, 208200, Note_on_c, 0, 56, 0
4, 208200, Note_on_c, 0, 53, 54
4, 208260, Note_on_c, 0, 53, 0
4, 208260, Note_on_c, 0, 56, 54
4, 208260, Note_on_c, 0, 62, 54
4, 208260, Note_on_c, 0, 65, 54
4, 208320, Note_on_c, 0, 65, 0
4, 208320, Note_on_c, 0, 62, 0
4, 208320, Note_on_c, 0, 56, 0
4, 208320, Note_on_c, 0, 53, 54
4, 208380, Note_on_c, 0, 53, 0
4, 208380, Note_on_c, 0, 56, 54
4, 208380, Note_on_c, 0, 62, 54
4, 208380, Note_on_c, 0, 65, 54
4, 208440, Note_on_c, 0, 65, 0
4, 208440, Note_on_c, 0, 62, 0
4, 208440, Note_on_c, 0, 56, 0
4, 208440, Note_on_c, 0, 53, 54
4, 208500, Note_on_c, 0, 53, 0
4, 208500, Note_on_c, 0, 56, 54
4, 208500, Note_on_c, 0, 62, 54
4, 208500, Note_on_c, 0, 65, 54
4, 208560, Note_on_c, 0, 65, 0
4, 208560, Note_on_c, 0, 62, 0
4, 208560, Note_on_c, 0, 56, 0
4, 208560, Note_on_c, 0, 53, 54
4, 208620, Note_on_c, 0, 53, 0
4, 208620, Note_on_c, 0, 56, 54
4, 208620, Note_on_c, 0, 62, 54
4, 208620, Note_on_c, 0, 65, 54
4, 208680, Note_on_c, 0, 65, 0
4, 208680, Note_on_c, 0, 62, 0
4, 208680, Note_on_c, 0, 56, 0
4, 208680, Note_on_c, 0, 53, 54
4, 208740, Note_on_c, 0, 53, 0
4, 208740, Note_on_c, 0, 56, 54
4, 208740, Note_on_c, 0, 62, 54
4, 208740, Note_on_c, 0, 65, 54
4, 208800, Note_on_c, 0, 65, 0
4, 208800, Note_on_c, 0, 62, 0
4, 208800, Note_on_c, 0, 56, 0
4, 208800, Note_on_c, 0, 53, 54
4, 208860, Note_on_c, 0, 53, 0
4, 208860, Note_on_c, 0, 56, 54
4, 208860, Note_on_c, 0, 62, 54
4, 208860, Note_on_c, 0, 65, 54
4, 208920, Note_on_c, 0, 65, 0
4, 208920, Note_on_c, 0, 62, 0
4, 208920, Note_on_c, 0, 56, 0
4, 208920, Control_c, 0, 64, 0
4, 208920, Note_on_c, 0, 53, 54
4, 208980, Note_on_c, 0, 53, 0
4, 208980, Note_on_c, 0, 54, 67
4, 208980, Note_on_c, 0, 57, 67
4, 208980, Note_on_c, 0, 62, 67
4, 208980, Note_on_c, 0, 66, 67
4, 209460, Note_on_c, 0, 66, 0
4, 209460, Note_on_c, 0, 54, 0
4, 209460, Note_on_c, 0, 57, 0
4, 209460, Note_on_c, 0, 62, 0
4, 209460, Note_on_c, 0, 62, 80
4, 210099, Note_on_c, 0, 62, 0
4, 210099, Note_on_c, 0, 62, 67
4, 210260, Note_on_c, 0, 62, 0
4, 210260, Note_on_c, 0, 62, 80
4, 210420, Note_on_c, 0, 62, 0
4, 210420, Control_c, 0, 64, 127
4, 210420, Note_on_c, 0, 56, 80
4, 210420, Note_on_c, 0, 62, 80
4, 210420, Note_on_c, 0, 65, 80
4, 210480, Note_on_c, 0, 65, 0
4, 210480, Note_on_c, 0, 62, 0
4, 210480, Note_on_c, 0, 56, 0
4, 210480, Note_on_c, 0, 53, 54
4, 210540, Note_on_c, 0, 53, 0
4, 210540, Note_on_c, 0, 56, 54
4, 210540, Note_on_c, 0, 62, 54
4, 210540, Note_on_c, 0, 65, 54
4, 210600, Note_on_c, 0, 65, 0
4, 210600, Note_on_c, 0, 62, 0
4, 210600, Note_on_c, 0, 56, 0
4, 210600, Note_on_c, 0, 53, 54
4, 210660, Note_on_c, 0, 53, 0
4, 210660, Note_on_c, 0, 56, 54
4, 210660, Note_on_c, 0, 62, 54
4, 210660, Note_on_c, 0, 65, 54
4, 210720, Note_on_c, 0, 65, 0
4, 210720, Note_on_c, 0, 62, 0
4, 210720, Note_on_c, 0, 56, 0
4, 210720, Note_on_c, 0, 53, 54
4, 210780, Note_on_c, 0, 53, 0
4, 210780, Note_on_c, 0, 56, 54
4, 210780, Note_on_c, 0, 62, 54
4, 210780, Note_on_c, 0, 65, 54
4, 210840, Note_on_c, 0, 65, 0
4, 210840, Note_on_c, 0, 62, 0
4, 210840, Note_on_c, 0, 56, 0
4, 210840, Note_on_c, 0, 53, 54
4, 210900, Note_on_c, 0, 53, 0
4, 210900, Note_on_c, 0, 56, 54
4, 210900, Note_on_c, 0, 62, 54
4, 210900, Note_on_c, 0, 65, 54
4, 210960, Note_on_c, 0, 65, 0
4, 210960, Note_on_c, 0, 62, 0
4, 210960, Note_on_c, 0, 56, 0
4, 210960, Note_on_c, 0, 53, 54
4, 211020, Note_on_c, 0, 53, 0
4, 211020, Note_on_c, 0, 56, 54
4, 211020, Note_on_c, 0, 62, 54
4, 211020, Note_on_c, 0, 65, 54
4, 211080, Note_on_c, 0, 65, 0
4, 211080, Note_on_c, 0, 62, 0
4, 211080, Note_on_c, 0, 56, 0
4, 211080, Note_on_c, 0, 53, 54
4, 211140, Note_on_c, 0, 53, 0
4, 211140, Note_on_c, 0, 56, 54
4, 211140, Note_on_c, 0, 62, 54
4, 211140, Note_on_c, 0, 65, 54
4, 211200, Note_on_c, 0, 65, 0
4, 211200, Note_on_c, 0, 62, 0
4, 211200, Note_on_c, 0, 56, 0
4, 211200, Note_on_c, 0, 53, 54
4, 211260, Note_on_c, 0, 53, 0
4, 211260, Note_on_c, 0, 56, 54
4, 211260, Note_on_c, 0, 62, 54
4, 211260, Note_on_c, 0, 65, 54
4, 211320, Note_on_c, 0, 65, 0
4, 211320, Note_on_c, 0, 62, 0
4, 211320, Note_on_c, 0, 56, 0
4, 211320, Note_on_c, 0, 53, 54
4, 211380, Note_on_c, 0, 53, 0
4, 211380, Note_on_c, 0, 56, 54
4, 211380, Note_on_c, 0, 62, 54
4, 211380, Note_on_c, 0, 65, 54
4, 211440, Note_on_c, 0, 65, 0
4, 211440, Note_on_c, 0, 62, 0
4, 211440, Note_on_c, 0, 56, 0
4, 211440, Note_on_c, 0, 53, 54
4, 211500, Note_on_c, 0, 53, 0
4, 211500, Note_on_c, 0, 56, 54
4, 211500, Note_on_c, 0, 62, 54
4, 211500, Note_on_c, 0, 65, 54
4, 211560, Note_on_c, 0, 65, 0
4, 211560, Note_on_c, 0, 62, 0
4, 211560, Note_on_c, 0, 56, 0
4, 211560, Note_on_c, 0, 53, 54
4, 211620, Note_on_c, 0, 53, 0
4, 211620, Note_on_c, 0, 56, 54
4, 211620, Note_on_c, 0, 62, 54
4, 211620, Note_on_c, 0, 65, 54
4, 211680, Note_on_c, 0, 65, 0
4, 211680, Note_on_c, 0, 62, 0
4, 211680, Note_on_c, 0, 56, 0
4, 211680, Note_on_c, 0, 53, 54
4, 211740, Note_on_c, 0, 53, 0
4, 211740, Note_on_c, 0, 56, 54
4, 211740, Note_on_c, 0, 62, 54
4, 211740, Note_on_c, 0, 65, 54
4, 211800, Note_on_c, 0, 65, 0
4, 211800, Note_on_c, 0, 62, 0
4, 211800, Note_on_c, 0, 56, 0
4, 211800, Control_c, 0, 64, 0
4, 211800, Note_on_c, 0, 53, 54
4, 211860, Note_on_c, 0, 53, 0
4, 211860, Note_on_c, 0, 54, 67
4, 211860, Note_on_c, 0, 57, 67
4, 211860, Note_on_c, 0, 62, 67
4, 211860, Note_on_c, 0, 66, 67
4, 212340, Note_on_c, 0, 66, 0
4, 212340, Note_on_c, 0, 54, 0
4, 212340, Note_on_c, 0, 57, 0
4, 212340, Note_on_c, 0, 62, 0
4, 212340, Note_on_c, 0, 62, 80
4, 212979, Note_on_c, 0, 62, 0
4, 212979, Note_on_c, 0, 62, 67
4, 213140, Note_on_c, 0, 62, 0
4, 213140, Note_on_c, 0, 62, 80
4, 213300, Note_on_c, 0, 62, 0
4, 213300, Control_c, 0, 64, 127
4, 213300, Note_on_c, 0, 56, 80
4, 213300, Note_on_c, 0, 62, 80
4, 213300, Note_on_c, 0, 65, 80
4, 213360, Note_on_c, 0, 65, 0
4, 213360, Note_on_c, 0, 62, 0
4, 213360, Note_on_c, 0, 56, 0
4, 213360, Note_on_c, 0, 53, 54
4, 213420, Note_on_c, 0, 53, 0
4, 213420, Note_on_c, 0, 56, 54
4, 213420, Note_on_c, 0, 62, 54
4, 213420, Note_on_c, 0, 65, 54
4, 213480, Note_on_c, 0, 65, 0
4, 213480, Note_on_c, 0, 62, 0
4, 213480, Note_on_c, 0, 56, 0
4, 213480, Note_on_c, 0, 53, 54
4, 213540, Note_on_c, 0, 53, 0
4, 213540, Note_on_c, 0, 56, 54
4, 213540, Note_on_c, 0, 62, 54
4, 213540, Note_on_c, 0, 65, 54
4, 213600, Note_on_c, 0, 65, 0
4, 213600, Note_on_c, 0, 62, 0
4, 213600, Note_on_c, 0, 56, 0
4, 213600, Note_on_c, 0, 53, 54
4, 213660, Note_on_c, 0, 53, 0
4, 213660, Note_on_c, 0, 56, 54
4, 213660, Note_on_c, 0, 62, 54
4, 213660, Note_on_c, 0, 65, 54
4, 213720, Note_on_c, 0, 65, 0
4, 213720, Note_on_c, 0, 62, 0
4, 213720, Note_on_c, 0, 56, 0
4, 213720, Note_on_c, 0, 53, 54
4, 213780, Note_on_c, 0, 53, 0
4, 213780, Note_on_c, 0, 56, 54
4, 213780, Note_on_c, 0, 62, 54
4, 213780, Note_on_c, 0, 65, 54
4, 213840, Note_on_c, 0, 65, 0
4, 213840, Note_on_c, 0, 62, 0
4, 213840, Note_on_c, 0, 56, 0
4, 213840, Note_on_c, 0, 53, 54
4, 213900, Note_on_c, 0, 53, 0
4, 213900, Note_on_c, 0, 56, 54
4, 213900, Note_on_c, 0, 62, 54
4, 213900, Note_on_c, 0, 65, 54
4, 213960, Note_on_c, 0, 65, 0
4, 213960, Note_on_c, 0, 62, 0
4, 213960, Note_on_c, 0, 56, 0
4, 213960, Note_on_c, 0, 53, 54
4, 214020, Note_on_c, 0, 53, 0
4, 214020, Note_on_c, 0, 56, 54
4, 214020, Note_on_c, 0, 62, 54
4, 214020, Note_on_c, 0, 65, 54
4, 214080, Note_on_c, 0, 65, 0
4, 214080, Note_on_c, 0, 62, 0
4, 214080, Note_on_c, 0, 56, 0
4, 214080, Note_on_c, 0, 53, 54
4, 214140, Note_on_c, 0, 53, 0
4, 214140, Note_on_c, 0, 56, 54
4, 214140, Note_on_c, 0, 62, 54
4, 214140, Note_on_c, 0, 65, 54
4, 214200, Note_on_c, 0, 65, 0
4, 214200, Note_on_c, 0, 62, 0
4, 214200, Note_on_c, 0, 56, 0
4, 214200, Note_on_c, 0, 53, 54
4, 214260, Note_on_c, 0, 53, 0
4, 214260, Note_on_c, 0, 56, 54
4, 214260, Note_on_c, 0, 62, 54
4, 214260, Note_on_c, 0, 65, 54
4, 214320, Note_on_c, 0, 65, 0
4, 214320, Note_on_c, 0, 62, 0
4, 214320, Note_on_c, 0, 56, 0
4, 214320, Note_on_c, 0, 53, 54
4, 214380, Note_on_c, 0, 53, 0
4, 214380, Note_on_c, 0, 56, 54
4, 214380, Note_on_c, 0, 62, 54
4, 214380, Note_on_c, 0, 65, 54
4, 214440, Note_on_c, 0, 65, 0
4, 214440, Note_on_c, 0, 62, 0
4, 214440, Note_on_c, 0, 56, 0
4, 214440, Note_on_c, 0, 53, 54
4, 214500, Note_on_c, 0, 53, 0
4, 214500, Note_on_c, 0, 56, 54
4, 214500, Note_on_c, 0, 62, 54
4, 214500, Note_on_c, 0, 65, 54
4, 214560, Note_on_c, 0, 65, 0
4, 214560, Note_on_c, 0, 62, 0
4, 214560, Note_on_c, 0, 56, 0
4, 214560, Note_on_c, 0, 53, 54
4, 214620, Note_on_c, 0, 53, 0
4, 214620, Note_on_c, 0, 56, 54
4, 214620, Note_on_c, 0, 62, 54
4, 214620, Note_on_c, 0, 65, 54
4, 214680, Note_on_c, 0, 65, 0
4, 214680, Note_on_c, 0, 62, 0
4, 214680, Note_on_c, 0, 56, 0
4, 214680, Control_c, 0, 64, 0
4, 214680, Note_on_c, 0, 53, 54
4, 214740, Note_on_c, 0, 53, 0
4, 214740, Note_on_c, 0, 54, 67
4, 214740, Note_on_c, 0, 57, 67
4, 214740, Note_on_c, 0, 62, 67
4, 214740, Note_on_c, 0, 66, 67
4, 215220, Note_on_c, 0, 66, 0
4, 215220, Note_on_c, 0, 54, 0
4, 215220, Note_on_c, 0, 57, 0
4, 215220, Note_on_c, 0, 62, 0
4, 215220, Note_on_c, 0, 62, 54
4, 215859, Note_on_c, 0, 62, 0
4, 215859, Note_on_c, 0, 62, 54
4, 216020, Note_on_c, 0, 62, 0
4, 216020, Note_on_c, 0, 62, 54
4, 216180, Note_on_c, 0, 62, 0
4, 216180, Note_on_c, 0, 54, 54
4, 216180, Note_on_c, 0, 57, 54
4, 216180, Note_on_c, 0, 62, 54
4, 216180, Note_on_c, 0, 66, 54
4, 216660, Note_on_c, 0, 66, 0
4, 216660, Note_on_c, 0, 54, 0
4, 216660, Note_on_c, 0, 57, 0
4, 216660, Note_on_c, 0, 62, 0
4, 216660, Note_on_c, 0, 62, 54
4, 217299, Note_on_c, 0, 62, 0
4, 217299, Note_on_c, 0, 62, 54
4, 217460, Note_on_c, 0, 62, 0
4, 217460, Note_on_c, 0, 62, 54
4, 217620, Note_on_c, 0, 62, 0
4, 217620, Note_on_c, 0, 54, 54
4, 217620, Note_on_c, 0, 57, 54
4, 217620, Note_on_c, 0, 62, 54
4, 217620, Note_on_c, 0, 66, 54
4, 220500, Note_on_c, 0, 66, 0
4, 220500, Note_on_c, 0, 54, 0
4, 220500, Note_on_c, 0, 57, 0
4, 220500, Note_on_c, 0, 62, 0
4, 220500, Note_on_c, 0, 54, 54
4, 220500, Note_on_c, 0, 57, 54
4, 220500, Note_on_c, 0, 62, 54
4, 220500, Note_on_c, 0, 66, 54
4, 223380, Note_on_c, 0, 66, 0
4, 223380, Note_on_c, 0, 54, 0
4, 223380, Note_on_c, 0, 57, 0
4, 223380, Note_on_c, 0, 62, 0
4, 223380, Note_on_c, 0, 54, 54
4, 223380, Note_on_c, 0, 57, 54
4, 223380, Note_on_c, 0, 62, 54
4, 223380, Note_on_c, 0, 66, 54
4, 226740, Note_on_c, 0, 66, 0
4, 226740, Note_on_c, 0, 54, 0
4, 226740, Note_on_c, 0, 57, 0
4, 226740, Note_on_c, 0, 62, 0
4, 226740, Control_c, 0, 64, 127
4, 229140, Control_c, 0, 64, 0
4, 229140, End_track
5, 0, Start_track
5, 0, Title_t, "Grand Piano"
5, 0, Program_c, 0, 0
5, 0, Control_c, 0, 7, 115
5, 0, Control_c, 0, 10, 47
5, 0, Note_on_c, 0, 52, 68
5, 0, Note_on_c, 0, 59, 68
5, 960, Note_on_c, 0, 52, 0
5, 960, Note_on_c, 0, 53, 68
5, 1440, Note_on_c, 0, 53, 0
5, 1440, Note_on_c, 0, 59, 0
5, 1440, Note_on_c, 0, 54, 55
5, 1440, Note_on_c, 0, 58, 55
5, 1920, Note_on_c, 0, 58, 0
5, 1920, Note_on_c, 0, 54, 0
5, 2880, Note_on_c, 0, 50, 81
5, 2880, Note_on_c, 0, 57, 81
5, 3840, Note_on_c, 0, 50, 0
5, 3840, Note_on_c, 0, 51, 68
5, 4320, Note_on_c, 0, 51, 0
5, 4320, Note_on_c, 0, 57, 0
5, 4320, Note_on_c, 0, 52, 55
5, 4320, Note_on_c, 0, 55, 55
5, 4800, Note_on_c, 0, 55, 0
5, 4800, Note_on_c, 0, 52, 0
5, 5760, Note_on_c, 0, 43, 55
5, 5760, Note_on_c, 0, 55, 55
5, 6720, Note_on_c, 0, 55, 0
5, 6720, Note_on_c, 0, 43, 0
5, 6720, Note_on_c, 0, 44, 55
5, 6720, Note_on_c, 0, 53, 55
5, 7200, Note_on_c, 0, 53, 0
5, 7200, Note_on_c, 0, 44, 0
5, 7200, Note_on_c, 0, 45, 55
5, 7200, Note_on_c, 0, 52, 55
5, 7680, Note_on_c, 0, 45, 0
5, 7680, Note_on_c, 0, 46, 68
5, 8160, Note_on_c, 0, 46, 0
5, 8160, Note_on_c, 0, 52, 0
5, 8160, Note_on_c, 0, 47, 68
5, 8160, Note_on_c, 0, 50, 68
5, 8640, Note_on_c, 0, 50, 0
5, 8640, Note_on_c, 0, 47, 0
5, 8640, Note_on_c, 0, 43, 94
5, 8640, Note_on_c, 0, 49, 94
5, 9600, Note_on_c, 0, 49, 0
5, 9600, Note_on_c, 0, 43, 0
5, 10080, Note_on_c, 0, 39, 55
5, 10080, Note_on_c, 0, 48, 55
5, 11040, Note_on_c, 0, 48, 0
5, 11040, Note_on_c, 0, 39, 0
5, 11520, Note_on_c, 0, 40, 55
5, 11520, Note_on_c, 0, 47, 55
5, 13920, Note_on_c, 0, 47, 0
5, 13920, Note_on_c, 0, 40, 0
5, 49440, Control_c, 0, 64, 127
5, 49440, Note_on_c, 0, 43, 68
5, 49440, Note_on_c, 0, 55, 68
5, 49920, Note_on_c, 0, 55, 0
5, 49920, Note_on_c, 0, 43, 0
5, 49920, Control_c, 0, 64, 0
5, 49920, Note_on_c, 0, 42, 68
5, 49920, Note_on_c, 0, 54, 68
5, 50016, Note_on_c, 0, 54, 0
5, 50016, Note_on_c, 0, 42, 0
5, 50400, Note_on_c, 0, 40, 55
5, 50400, Note_on_c, 0, 52, 55
5, 51840, Note_on_c, 0, 52, 0
5, 51840, Note_on_c, 0, 40, 0
5, 51840, Note_on_c, 0, 38, 55
5, 51840, Note_on_c, 0, 50, 55
5, 53280, Note_on_c, 0, 50, 0
5, 53280, Note_on_c, 0, 38, 0
5, 53280, Note_on_c, 0, 36, 68
5, 53280, Note_on_c, 0, 48, 68
5, 54720, Note_on_c, 0, 48, 0
5, 54720, Note_on_c, 0, 36, 0
5, 54720, Note_on_c, 0, 35, 68
5, 54720, Note_on_c, 0, 47, 68
5, 56160, Note_on_c, 0, 47, 0
5, 56160, Note_on_c, 0, 35, 0
5, 56160, Note_on_c, 0, 34, 68
5, 56160, Note_on_c, 0, 46, 68
5, 57600, Note_on_c, 0, 46, 0
5, 57600, Note_on_c, 0, 34, 0
5, 57600, Note_on_c, 0, 35, 68
5, 57600, Note_on_c, 0, 47, 68
5, 58560, Note_on_c, 0, 47, 0
5, 58560, Note_on_c, 0, 35, 0
5, 59040, Note_on_c, 0, 42, 68
5, 59040, Note_on_c, 0, 54, 68
5, 59520, Note_on_c, 0, 54, 0
5, 59520, Note_on_c, 0, 42, 0
5, 60480, Note_on_c, 0, 43, 68
5, 60480, Note_on_c, 0, 55, 68
5, 60960, Note_on_c, 0, 55, 0
5, 60960, Note_on_c, 0, 43, 0
5, 65200, Note_on_c, 0, 50, 68
5, 65240, Note_on_c, 0, 54, 68
5, 65280, Note_on_c, 0, 57, 68
5, 65288, Note_on_c, 0, 50, 0
5, 65320, Note_on_c, 0, 54, 0
5, 65352, Note_on_c, 0, 57, 0
5, 65920, Note_on_c, 0, 50, 68
5, 65960, Note_on_c, 0, 54, 68
5, 66000, Note_on_c, 0, 57, 68
5, 66008, Note_on_c, 0, 50, 0
5, 66040, Note_on_c, 0, 54, 0
5, 66072, Note_on_c, 0, 57, 0
5, 67350, Note_on_c, 0, 50, 68
5, 67380, Note_on_c, 0, 52, 68
5, 67410, Note_on_c, 0, 55, 68
5, 67440, Note_on_c, 0, 50, 0
5, 67440, Note_on_c, 0, 59, 68
5, 67463, Note_on_c, 0, 52, 0
5, 67487, Note_on_c, 0, 55, 0
5, 67512, Note_on_c, 0, 59, 0
5, 68070, Note_on_c, 0, 50, 68
5, 68100, Note_on_c, 0, 52, 68
5, 68130, Note_on_c, 0, 55, 68
5, 68160, Note_on_c, 0, 50, 0
5, 68160, Note_on_c, 0, 59, 68
5, 68183, Note_on_c, 0, 52, 0
5, 68207, Note_on_c, 0, 55, 0
5, 68232, Note_on_c, 0, 59, 0
5, 69431, Control_c, 0, 64, 0
5, 69600, Note_on_c, 0, 50, 68
5, 69600, Note_on_c, 0, 55, 68
5, 69600, Note_on_c, 0, 57, 68
5, 69600, Note_on_c, 0, 61, 68
5, 70320, Note_on_c, 0, 61, 0
5, 70320, Note_on_c, 0, 50, 0
5, 70320, Note_on_c, 0, 55, 0
5, 70320, Note_on_c, 0, 57, 0
5, 70320, Note_on_c, 0, 64, 68
5, 70680, Note_on_c, 0, 64, 0
5, 70680, Note_on_c, 0, 61, 68
5, 71040, Note_on_c, 0, 61, 0
5, 71040, Note_on_c, 0, 57, 68
5, 71400, Note_on_c, 0, 57, 0
5, 71400, Note_on_c, 0, 55, 68
5, 71760, Note_on_c, 0, 55, 0
5, 71760, Control_c, 0, 64, 127
5, 71760, Note_on_c, 0, 54, 68
5, 72120, Note_on_c, 0, 54, 0
5, 72120, Note_on_c, 0, 50, 68
5, 72480, Note_on_c, 0, 50, 0
5, 72480, Note_on_c, 0, 45, 68
5, 72840, Note_on_c, 0, 45, 0
5, 72840, Note_on_c, 0, 42, 68
5, 73200, Note_on_c, 0, 42, 0
5, 73200, Control_c, 0, 64, 0
5, 73200, Note_on_c, 0, 38, 68
5, 73840, Note_on_c, 0, 50, 68
5, 73880, Note_on_c, 0, 54, 68
5, 73920, Note_on_c, 0, 38, 0
5, 73920, Note_on_c, 0, 57, 68
5, 73928, Note_on_c, 0, 50, 0
5, 73960, Note_on_c, 0, 54, 0
5, 73992, Note_on_c, 0, 57, 0
5, 74560, Note_on_c, 0, 50, 68
5, 74600, Note_on_c, 0, 54, 68
5, 74640, Note_on_c, 0, 57, 68
5, 74648, Note_on_c, 0, 50, 0
5, 74680, Note_on_c, 0, 54, 0
5, 74712, Note_on_c, 0, 57, 0
5, 76000, Note_on_c, 0, 50, 68
5, 76040, Note_on_c, 0, 54, 68
5, 76080, Note_on_c, 0, 56, 68
5, 76088, Note_on_c, 0, 50, 0
5, 76120, Note_on_c, 0, 54, 0
5, 76152, Note_on_c, 0, 56, 0
5, 76740, Note_on_c, 0, 62, 68
5, 76800, Note_on_c, 0, 66, 68
5, 76823, Note_on_c, 0, 62, 0
5, 76872, Note_on_c, 0, 66, 0
5, 78240, Control_c, 0, 64, 127
5, 78240, Note_on_c, 0, 56, 81
5, 78600, Note_on_c, 0, 56, 0
5, 78600, Note_on_c, 0, 53, 81
5, 78960, Note_on_c, 0, 53, 0
5, 78960, Note_on_c, 0, 49, 81
5, 79320, Note_on_c, 0, 49, 0
5, 79320, Note_on_c, 0, 44, 81
5, 79680, Note_on_c, 0, 44, 0
5, 79680, Note_on_c, 0, 41, 81
5, 80040, Note_on_c, 0, 41, 0
5, 80040, Note_on_c, 0, 37, 81
5, 80400, Note_on_c, 0, 37, 0
5, 80400, Control_c, 0, 64, 0
5, 80400, Note_on_c, 0, 42, 81
5, 81030, Note_on_c, 0, 51, 81
5, 81060, Note_on_c, 0, 54, 81
5, 81090, Note_on_c, 0, 57, 81
5, 81120, Note_on_c, 0, 42, 0
5, 81120, Note_on_c, 0, 59, 81
5, 81480, Note_on_c, 0, 59, 0
5, 81480, Note_on_c, 0, 57, 0
5, 81480, Note_on_c, 0, 54, 0
5, 81480, Note_on_c, 0, 51, 0
5, 81750, Note_on_c, 0, 47, 81
5, 81780, Note_on_c, 0, 54, 81
5, 81810, Note_on_c, 0, 57, 81
5, 81840, Note_on_c, 0, 59, 81
5, 82200, Note_on_c, 0, 59, 0
5, 82200, Note_on_c, 0, 47, 0
5, 82200, Note_on_c, 0, 54, 0
5, 82200, Note_on_c, 0, 57, 0
5, 82560, Note_on_c, 0, 40, 81
5, 82560, Note_on_c, 0, 52, 81
5, 82920, Note_on_c, 0, 52, 0
5, 82920, Note_on_c, 0, 40, 0
5, 82920, Control_c, 0, 64, 127
5, 82920, Note_on_c, 0, 59, 81
5, 83280, Note_on_c, 0, 59, 0
5, 83280, Note_on_c, 0, 64, 81
5, 83820, Note_on_c, 0, 64, 0
5, 83820, Note_on_c, 0, 59, 81
5, 84000, Note_on_c, 0, 59, 0
5, 84000, Control_c, 0, 64, 0
5, 84000, Note_on_c, 0, 59, 81
5, 84720, Note_on_c, 0, 59, 0
5, 84720, Note_on_c, 0, 33, 68
5, 84720, Note_on_c, 0, 45, 68
5, 85080, Note_on_c, 0, 45, 0
5, 85080, Note_on_c, 0, 33, 0
5, 85080, Control_c, 0, 64, 127
5, 85080, Note_on_c, 0, 52, 68
5, 85440, Note_on_c, 0, 52, 0
5, 85440, Note_on_c, 0, 57, 68
5, 85980, Note_on_c, 0, 57, 0
5, 85980, Note_on_c, 0, 52, 68
5, 86160, Note_on_c, 0, 52, 0
5, 86160, Control_c, 0, 64, 0
5, 86160, Note_on_c, 0, 52, 68
5, 86880, Note_on_c, 0, 52, 0
5, 86880, Note_on_c, 0, 38, 68
5, 86880, Note_on_c, 0, 50, 68
5, 87240, Note_on_c, 0, 50, 0
5, 87240, Note_on_c, 0, 38, 0
5, 87600, Note_on_c, 0, 37, 81
5, 87600, Note_on_c, 0, 49, 81
5, 87960, Note_on_c, 0, 49, 0
5, 87960, Note_on_c, 0, 37, 0
5, 88320, Note_on_c, 0, 35, 94
5, 88320, Note_on_c, 0, 47, 94
5, 88680, Note_on_c, 0, 47, 0
5, 88680, Note_on_c, 0, 35, 0
5, 89040, Note_on_c, 0, 33, 94
5, 89040, Note_on_c, 0, 45, 94
5, 89220, Note_on_c, 0, 45, 0
5, 89220, Note_on_c, 0, 33, 0
5, 89220, Note_on_c, 0, 57, 94
5, 89400, Note_on_c, 0, 57, 0
5, 89400, Note_on_c, 0, 61, 94
5, 89580, Note_on_c, 0, 61, 0
5, 89580, Note_on_c, 0, 64, 94
5, 89760, Note_on_c, 0, 64, 0
5, 89760, Note_on_c, 0, 69, 120
5, 90300, Note_on_c, 0, 69, 0
5, 90300, Note_on_c, 0, 57, 81
5, 90480, Note_on_c, 0, 57, 0
5, 90480, Note_on_c, 0, 57, 81
5, 91200, Note_on_c, 0, 57, 0
5, 91200, Note_on_c, 0, 38, 68
5, 91200, Note_on_c, 0, 50, 68
5, 91560, Note_on_c, 0, 50, 0
5, 91560, Note_on_c, 0, 38, 0
5, 91920, Note_on_c, 0, 37, 81
5, 91920, Note_on_c, 0, 49, 81
5, 92280, Note_on_c, 0, 49, 0
5, 92280, Note_on_c, 0, 37, 0
5, 92640, Note_on_c, 0, 35, 94
5, 92640, Note_on_c, 0, 47, 94
5, 93000, Note_on_c, 0, 47, 0
5, 93000, Note_on_c, 0, 35, 0
5, 93360, Note_on_c, 0, 33, 94
5, 93360, Note_on_c, 0, 45, 94
5, 93540, Note_on_c, 0, 45, 0
5, 93540, Note_on_c, 0, 33, 0
5, 93540, Note_on_c, 0, 57, 94
5, 93720, Note_on_c, 0, 57, 0
5, 93720, Note_on_c, 0, 61, 94
5, 93900, Note_on_c, 0, 61, 0
5, 93900, Note_on_c, 0, 64, 94
5, 94080, Note_on_c, 0, 64, 0
5, 94080, Note_on_c, 0, 69, 120
5, 94620, Note_on_c, 0, 69, 0
5, 94620, Note_on_c, 0, 57, 81
5, 94800, Note_on_c, 0, 57, 0
5, 94800, Note_on_c, 0, 57, 81
5, 95520, Note_on_c, 0, 57, 0
5, 95520, Note_on_c, 0, 38, 68
5, 95520, Note_on_c, 0, 50, 68
5, 95880, Note_on_c, 0, 50, 0
5, 95880, Note_on_c, 0, 38, 0
5, 96240, Note_on_c, 0, 42, 81
5, 96240, Note_on_c, 0, 54, 81
5, 96600, Note_on_c, 0, 54, 0
5, 96600, Note_on_c, 0, 42, 0
5, 96600, Note_on_c, 0, 57, 81
5, 96900, Note_on_c, 0, 50, 81
5, 96960, Note_on_c, 0, 57, 0
5, 96960, Note_on_c, 0, 62, 94
5, 97320, Note_on_c, 0, 62, 0
5, 97320, Note_on_c, 0, 50, 0
5, 97320, Note_on_c, 0, 60, 94
5, 97680, Note_on_c, 0, 60, 0
5, 97680, Note_on_c, 0, 43, 81
5, 97680, Note_on_c, 0, 59, 81
5, 97860, Note_on_c, 0, 59, 0
5, 97860, Note_on_c, 0, 43, 0
5, 97860, Control_c, 0, 64, 127
5, 97860, Note_on_c, 0, 43, 81
5, 97896, Note_on_c, 0, 43, 0
5, 98040, Note_on_c, 0, 47, 81
5, 98076, Note_on_c, 0, 47, 0
5, 98220, Control_c, 0, 64, 0
5, 98220, Note_on_c, 0, 50, 81
5, 98256, Note_on_c, 0, 50, 0
5, 98400, Note_on_c, 0, 55, 81
5, 98580, Note_on_c, 0, 55, 0
5, 98580, Note_on_c, 0, 59, 81
5, 98760, Note_on_c, 0, 59, 0
5, 98760, Note_on_c, 0, 62, 81
5, 98940, Note_on_c, 0, 62, 0
5, 98940, Note_on_c, 0, 67, 81
5, 99120, Note_on_c, 0, 67, 0
5, 99120, Note_on_c, 0, 42, 81
5, 99120, Note_on_c, 0, 54, 81
5, 99120, Note_on_c, 0, 63, 81
5, 99120, Note_on_c, 0, 69, 81
5, 99480, Note_on_c, 0, 69, 0
5, 99480, Note_on_c, 0, 42, 0
5, 99480, Note_on_c, 0, 54, 0
5, 99480, Note_on_c, 0, 63, 0
5, 99840, Note_on_c, 0, 40, 81
5, 99840, Note_on_c, 0, 52, 81
5, 100200, Note_on_c, 0, 52, 0
5, 100200, Note_on_c, 0, 40, 0
5, 100470, Note_on_c, 0, 52, 81
5, 100500, Note_on_c, 0, 55, 81
5, 100530, Note_on_c, 0, 59, 81
5, 100560, Note_on_c, 0, 64, 81
5, 100920, Note_on_c, 0, 64, 0
5, 100920, Note_on_c, 0, 52, 0
5, 100920, Note_on_c, 0, 55, 0
5, 100920, Note_on_c, 0, 59, 0
5, 102000, Note_on_c, 0, 38, 81
5, 102000, Note_on_c, 0, 50, 81
5, 102240, Note_on_c, 0, 50, 0
5, 102240, Note_on_c, 0, 38, 0
5, 102240, Note_on_c, 0, 67, 81
5, 102480, Note_on_c, 0, 67, 0
5, 102480, Note_on_c, 0, 64, 81
5, 102720, Note_on_c, 0, 64, 0
5, 102720, Note_on_c, 0, 59, 81
5, 102960, Note_on_c, 0, 59, 0
5, 102960, Note_on_c, 0, 55, 81
5, 103200, Note_on_c, 0, 55, 0
5, 103200, Note_on_c, 0, 52, 81
5, 103440, Note_on_c, 0, 52, 0
5, 103440, Note_on_c, 0, 47, 68
5, 103680, Note_on_c, 0, 47, 0
5, 103680, Note_on_c, 0, 43, 68
5, 103920, Note_on_c, 0, 43, 0
5, 103920, Note_on_c, 0, 38, 68
5, 104160, Note_on_c, 0, 38, 0
5, 104160, Note_on_c, 0, 36, 94
5, 104160, Note_on_c, 0, 48, 94
5, 104880, Note_on_c, 0, 48, 0
5, 104880, Note_on_c, 0, 36, 0
5, 104880, Note_on_c, 0, 48, 94
5, 104880, Note_on_c, 0, 55, 94
5, 104880, Note_on_c, 0, 58, 94
5, 104880, Note_on_c, 0, 64, 94
5, 105120, Note_on_c, 0, 64, 0
5, 105120, Note_on_c, 0, 48, 0
5, 105120, Note_on_c, 0, 55, 0
5, 105120, Note_on_c, 0, 58, 0
5, 105120, Note_on_c, 0, 48, 94
5, 105360, Note_on_c, 0, 48, 0
5, 105360, Note_on_c, 0, 52, 94
5, 105600, Note_on_c, 0, 52, 0
5, 105600, Note_on_c, 0, 55, 94
5, 105840, Note_on_c, 0, 55, 0
5, 105840, Note_on_c, 0, 58, 94
5, 106080, Note_on_c, 0, 58, 0
5, 106080, Note_on_c, 0, 64, 94
5, 106320, Note_on_c, 0, 64, 0
5, 106320, Note_on_c, 0, 35, 94
5, 106320, Note_on_c, 0, 47, 94
5, 106680, Note_on_c, 0, 47, 0
5, 106680, Note_on_c, 0, 35, 0
5, 106950, Note_on_c, 0, 47, 94
5, 106980, Note_on_c, 0, 52, 94
5, 107010, Note_on_c, 0, 55, 94
5, 107040, Note_on_c, 0, 59, 94
5, 107400, Note_on_c, 0, 59, 0
5, 107400, Note_on_c, 0, 47, 0
5, 107400, Note_on_c, 0, 52, 0
5, 107400, Note_on_c, 0, 55, 0
5, 108480, Note_on_c, 0, 34, 94
5, 108480, Note_on_c, 0, 46, 94
5, 109104, Note_on_c, 0, 46, 94
5, 109128, Note_on_c, 0, 52, 94
5, 109152, Note_on_c, 0, 55, 94
5, 109176, Note_on_c, 0, 61, 94
5, 109200, Note_on_c, 0, 46, 0
5, 109200, Note_on_c, 0, 34, 0
5, 109200, Note_on_c, 0, 64, 94
5, 109560, Note_on_c, 0, 55, 0
5, 109560, Note_on_c, 0, 46, 0
5, 109560, Note_on_c, 0, 52, 0
5, 109560, Note_on_c, 0, 61, 0
5, 109740, Note_on_c, 0, 64, 0
5, 109740, Note_on_c, 0, 61, 94
5, 109920, Note_on_c, 0, 61, 0
5, 109920, Note_on_c, 0, 55, 94
5, 110160, Note_on_c, 0, 55, 0
5, 110160, Note_on_c, 0, 52, 94
5, 110400, Note_on_c, 0, 52, 0
5, 110400, Note_on_c, 0, 49, 94
5, 110640, Note_on_c, 0, 49, 0
5, 110640, Note_on_c, 0, 35, 94
5, 110640, Note_on_c, 0, 50, 94
5, 110880, Note_on_c, 0, 50, 0
5, 110880, Note_on_c, 0, 35, 0
5, 110880, Note_on_c, 0, 54, 94
5, 111120, Note_on_c, 0, 54, 0
5, 111120, Note_on_c, 0, 59, 94
5, 111280, Note_on_c, 0, 47, 94
5, 111320, Note_on_c, 0, 54, 94
5, 111360, Note_on_c, 0, 59, 0
5, 111360, Note_on_c, 0, 62, 94
5, 112800, Note_on_c, 0, 62, 0
5, 112800, Note_on_c, 0, 54, 0
5, 112800, Note_on_c, 0, 47, 0
5, 112800, Note_on_c, 0, 62, 68
5, 112920, Note_on_c, 0, 62, 0
5, 112920, Note_on_c, 0, 59, 68
5, 113040, Note_on_c, 0, 59, 0
5, 113040, Note_on_c, 0, 54, 68
5, 113063, Note_on_c, 0, 54, 0
5, 113160, Note_on_c, 0, 50, 68
5, 113183, Note_on_c, 0, 50, 0
5, 113280, Note_on_c, 0, 47, 68
5, 113400, Note_on_c, 0, 47, 0
5, 113400, Note_on_c, 0, 49, 68
5, 113520, Note_on_c, 0, 49, 0
5, 113520, Note_on_c, 0, 50, 68
5, 113543, Note_on_c, 0, 50, 0
5, 113640, Note_on_c, 0, 52, 68
5, 113663, Note_on_c, 0, 52, 0
5, 113760, Note_on_c, 0, 54, 68
5, 113783, Note_on_c, 0, 54, 0
5, 113880, Note_on_c, 0, 55, 68
5, 113903, Note_on_c, 0, 55, 0
5, 114000, Note_on_c, 0, 57, 68
5, 114023, Note_on_c, 0, 57, 0
5, 114120, Note_on_c, 0, 58, 68
5, 114143, Note_on_c, 0, 58, 0
5, 114240, Note_on_c, 0, 59, 68
5, 114360, Note_on_c, 0, 59, 0
5, 114360, Note_on_c, 0, 55, 68
5, 114480, Note_on_c, 0, 55, 0
5, 114480, Note_on_c, 0, 50, 68
5, 114503, Note_on_c, 0, 50, 0
5, 114600, Note_on_c, 0, 47, 68
5, 114623, Note_on_c, 0, 47, 0
5, 114720, Note_on_c, 0, 43, 68
5, 114840, Note_on_c, 0, 43, 0
5, 114840, Note_on_c, 0, 47, 68
5, 114960, Note_on_c, 0, 47, 0
5, 114960, Note_on_c, 0, 50, 68
5, 114983, Note_on_c, 0, 50, 0
5, 115080, Note_on_c, 0, 55, 68
5, 115103, Note_on_c, 0, 55, 0
5, 115200, Note_on_c, 0, 59, 68
5, 115223, Note_on_c, 0, 59, 0
5, 115320, Note_on_c, 0, 61, 68
5, 115343, Note_on_c, 0, 61, 0
5, 115440, Note_on_c, 0, 62, 68
5, 115463, Note_on_c, 0, 62, 0
5, 115560, Note_on_c, 0, 63, 68
5, 115583, Note_on_c, 0, 63, 0
5, 115680, Note_on_c, 0, 64, 94
5, 115839, Note_on_c, 0, 64, 0
5, 115839, Note_on_c, 0, 67, 94
5, 116000, Note_on_c, 0, 67, 0
5, 116000, Note_on_c, 0, 64, 94
5, 116160, Note_on_c, 0, 64, 0
5, 116160, Note_on_c, 0, 59, 94
5, 116319, Note_on_c, 0, 59, 0
5, 116319, Note_on_c, 0, 55, 94
5, 116480, Note_on_c, 0, 55, 0
5, 116480, Note_on_c, 0, 52, 94
5, 116640, Note_on_c, 0, 52, 0
5, 116640, Note_on_c, 0, 47, 94
5, 116799, Note_on_c, 0, 47, 0
5, 116799, Note_on_c, 0, 43, 94
5, 116960, Note_on_c, 0, 43, 0
5, 116960, Note_on_c, 0, 40, 94
5, 117120, Note_on_c, 0, 40, 0
5, 117120, Note_on_c, 0, 42, 94
5, 117360, Note_on_c, 0, 42, 0
5, 117360, Note_on_c, 0, 47, 68
5, 117720, Note_on_c, 0, 47, 0
5, 117720, Note_on_c, 0, 50, 68
5, 117840, Note_on_c, 0, 50, 0
5, 117840, Note_on_c, 0, 56, 68
5, 117960, Note_on_c, 0, 56, 0
5, 117960, Note_on_c, 0, 59, 68
5, 118080, Note_on_c, 0, 59, 0
5, 118080, Note_on_c, 0, 57, 68
5, 118920, Note_on_c, 0, 57, 0
5, 118920, Note_on_c, 0, 55, 55
5, 118980, Note_on_c, 0, 38, 55
5, 119040, Note_on_c, 0, 55, 0
5, 119040, Note_on_c, 0, 54, 55
5, 119520, Note_on_c, 0, 54, 0
5, 119520, Note_on_c, 0, 38, 0
5, 119520, Note_on_c, 0, 37, 55
5, 119520, Note_on_c, 0, 49, 55
5, 120000, Note_on_c, 0, 49, 0
5, 120000, Note_on_c, 0, 37, 0
5, 120000, Note_on_c, 0, 35, 68
5, 120000, Note_on_c, 0, 47, 68
5, 120480, Note_on_c, 0, 47, 0
5, 120480, Note_on_c, 0, 35, 0
5, 120480, Note_on_c, 0, 33, 68
5, 120480, Note_on_c, 0, 45, 68
5, 120960, Note_on_c, 0, 45, 0
5, 120960, Note_on_c, 0, 33, 0
5, 120960, Note_on_c, 0, 35, 68
5, 120960, Note_on_c, 0, 47, 68
5, 121440, Note_on_c, 0, 47, 0
5, 121440, Note_on_c, 0, 35, 0
5, 121440, Note_on_c, 0, 37, 55
5, 121440, Note_on_c, 0, 49, 55
5, 121920, Note_on_c, 0, 49, 0
5, 121920, Note_on_c, 0, 37, 0
5, 121920, Note_on_c, 0, 38, 55
5, 121920, Note_on_c, 0, 50, 55
5, 122400, Note_on_c, 0, 50, 0
5, 122400, Note_on_c, 0, 38, 0
5, 122400, Note_on_c, 0, 37, 55
5, 122400, Note_on_c, 0, 49, 55
5, 122880, Note_on_c, 0, 49, 0
5, 122880, Note_on_c, 0, 37, 0
5, 122880, Note_on_c, 0, 35, 68
5, 122880, Note_on_c, 0, 47, 68
5, 123360, Note_on_c, 0, 47, 0
5, 123360, Note_on_c, 0, 35, 0
5, 123360, Note_on_c, 0, 33, 68
5, 123360, Note_on_c, 0, 45, 68
5, 123840, Note_on_c, 0, 45, 0
5, 123840, Note_on_c, 0, 33, 0
5, 123840, Note_on_c, 0, 35, 68
5, 123840, Note_on_c, 0, 47, 68
5, 124320, Note_on_c, 0, 47, 0
5, 124320, Note_on_c, 0, 35, 0
5, 124320, Note_on_c, 0, 37, 55
5, 124320, Note_on_c, 0, 49, 55
5, 124800, Note_on_c, 0, 49, 0
5, 124800, Note_on_c, 0, 37, 0
5, 124800, Control_c, 0, 64, 127
5, 124800, Note_on_c, 0, 38, 55
5, 124800, Note_on_c, 0, 50, 55
5, 125200, Note_on_c, 0, 42, 55
5, 125240, Note_on_c, 0, 50, 55
5, 125280, Note_on_c, 0, 50, 0
5, 125280, Note_on_c, 0, 38, 0
5, 125280, Note_on_c, 0, 60, 55
5, 125680, Note_on_c, 0, 42, 55
5, 125720, Note_on_c, 0, 50, 55
5, 125760, Note_on_c, 0, 60, 0
5, 125760, Note_on_c, 0, 50, 0
5, 125760, Note_on_c, 0, 42, 0
5, 125760, Note_on_c, 0, 60, 55
5, 126240, Note_on_c, 0, 60, 0
5, 126240, Note_on_c, 0, 42, 0
5, 126240, Note_on_c, 0, 50, 0
5, 126240, Control_c, 0, 64, 0
5, 126720, Note_on_c, 0, 43, 68
5, 126720, Note_on_c, 0, 55, 68
5, 127200, Note_on_c, 0, 55, 0
5, 127200, Note_on_c, 0, 43, 0
5, 127200, Note_on_c, 0, 42, 68
5, 127200, Note_on_c, 0, 54, 68
5, 127680, Note_on_c, 0, 54, 0
5, 127680, Note_on_c, 0, 42, 0
5, 128160, Note_on_c, 0, 40, 68
5, 128160, Note_on_c, 0, 47, 68
5, 128160, Note_on_c, 0, 52, 68
5, 128160, Note_on_c, 0, 59, 68
5, 128160, Note_on_c, 0, 64, 68
5, 128640, Note_on_c, 0, 64, 0
5, 128640, Note_on_c, 0, 52, 0
5, 128640, Note_on_c, 0, 40, 0
5, 128640, Note_on_c, 0, 47, 0
5, 128640, Note_on_c, 0, 59, 0
5, 128640, Note_on_c, 0, 40, 68
5, 128640, Note_on_c, 0, 47, 68
5, 128640, Note_on_c, 0, 52, 68
5, 128640, Note_on_c, 0, 59, 68
5, 128640, Note_on_c, 0, 64, 68
5, 129120, Note_on_c, 0, 64, 0
5, 129120, Note_on_c, 0, 52, 0
5, 129120, Note_on_c, 0, 40, 0
5, 129120, Note_on_c, 0, 47, 0
5, 129120, Note_on_c, 0, 59, 0
5, 129600, Note_on_c, 0, 38, 68
5, 129600, Note_on_c, 0, 45, 68
5, 129600, Note_on_c, 0, 50, 68
5, 129600, Note_on_c, 0, 55, 68
5, 129600, Note_on_c, 0, 59, 68
5, 130080, Note_on_c, 0, 59, 0
5, 130080, Note_on_c, 0, 50, 0
5, 130080, Note_on_c, 0, 38, 0
5, 130080, Note_on_c, 0, 45, 0
5, 130080, Note_on_c, 0, 55, 0
5, 130080, Note_on_c, 0, 38, 68
5, 130080, Note_on_c, 0, 45, 68
5, 130080, Note_on_c, 0, 50, 68
5, 130080, Note_on_c, 0, 55, 68
5, 130080, Note_on_c, 0, 59, 68
5, 130080, Note_on_c, 0, 64, 68
5, 130560, Note_on_c, 0, 64, 0
5, 130560, Note_on_c, 0, 45, 0
5, 130560, Note_on_c, 0, 50, 0
5, 130560, Note_on_c, 0, 38, 0
5, 130560, Note_on_c, 0, 59, 0
5, 130560, Note_on_c, 0, 55, 0
5, 130560, Control_c, 0, 64, 127
5, 130944, Note_on_c, 0, 36, 68
5, 130968, Note_on_c, 0, 48, 68
5, 130992, Note_on_c, 0, 52, 68
5, 131016, Note_on_c, 0, 55, 68
5, 131040, Note_on_c, 0, 64, 68
5, 131430, Note_on_c, 0, 48, 68
5, 131460, Note_on_c, 0, 52, 68
5, 131490, Note_on_c, 0, 55, 68
5, 131520, Note_on_c, 0, 64, 0
5, 131520, Note_on_c, 0, 55, 0
5, 131520, Note_on_c, 0, 36, 0
5, 131520, Note_on_c, 0, 52, 0
5, 131520, Note_on_c, 0, 48, 0
5, 131520, Note_on_c, 0, 64, 68
5, 132000, Note_on_c, 0, 64, 0
5, 132000, Note_on_c, 0, 48, 0
5, 132000, Note_on_c, 0, 52, 0
5, 132000, Note_on_c, 0, 55, 0
5, 132000, Control_c, 0, 64, 0
5, 132390, Note_on_c, 0, 46, 68
5, 132420, Note_on_c, 0, 52, 68
5, 132450, Note_on_c, 0, 55, 68
5, 132480, Control_c, 0, 64, 127
5, 132480, Note_on_c, 0, 62, 68
5, 132870, Note_on_c, 0, 46, 68
5, 132900, Note_on_c, 0, 52, 68
5, 132930, Note_on_c, 0, 55, 68
5, 132960, Note_on_c, 0, 62, 0
5, 132960, Note_on_c, 0, 55, 0
5, 132960, Note_on_c, 0, 46, 0
5, 132960, Note_on_c, 0, 52, 0
5, 132960, Note_on_c, 0, 62, 68
5, 133440, Note_on_c, 0, 62, 0
5, 133440, Note_on_c, 0, 52, 0
5, 133440, Note_on_c, 0, 46, 0
5, 133440, Note_on_c, 0, 55, 0
5, 133440, Control_c, 0, 64, 0
5, 133440, Note_on_c, 0, 52, 94
5, 133920, Note_on_c, 0, 52, 0
5, 133920, Note_on_c, 0, 45, 68
5, 133920, Note_on_c, 0, 49, 68
5, 133920, Note_on_c, 0, 54, 68
5, 134160, Note_on_c, 0, 54, 0
5, 134160, Note_on_c, 0, 49, 0
5, 134160, Note_on_c, 0, 45, 0
5, 134160, Note_on_c, 0, 55, 94
5, 134400, Note_on_c, 0, 55, 0
5, 134400, Note_on_c, 0, 45, 68
5, 134400, Note_on_c, 0, 49, 68
5, 134400, Note_on_c, 0, 57, 68
5, 134640, Note_on_c, 0, 57, 0
5, 134640, Note_on_c, 0, 49, 0
5, 134640, Note_on_c, 0, 45, 0
5, 134640, Note_on_c, 0, 59, 94
5, 134880, Note_on_c, 0, 59, 0
5, 134880, Control_c, 0, 64, 127
5, 135270, Note_on_c, 0, 43, 68
5, 135300, Note_on_c, 0, 49, 68
5, 135330, Note_on_c, 0, 52, 68
5, 135360, Note_on_c, 0, 59, 68
5, 135750, Note_on_c, 0, 43, 68
5, 135780, Note_on_c, 0, 49, 68
5, 135810, Note_on_c, 0, 52, 68
5, 135840, Note_on_c, 0, 59, 0
5, 135840, Note_on_c, 0, 52, 0
5, 135840, Note_on_c, 0, 43, 0
5, 135840, Note_on_c, 0, 49, 0
5, 135840, Note_on_c, 0, 59, 68
5, 136320, Note_on_c, 0, 59, 0
5, 136320, Note_on_c, 0, 49, 0
5, 136320, Note_on_c, 0, 43, 0
5, 136320, Note_on_c, 0, 52, 0
5, 136320, Control_c, 0, 64, 0
5, 136710, Note_on_c, 0, 42, 81
5, 136740, Note_on_c, 0, 49, 81
5, 136770, Note_on_c, 0, 54, 81
5, 136800, Control_c, 0, 64, 127
5, 136800, Note_on_c, 0, 58, 81
5, 137190, Note_on_c, 0, 42, 81
5, 137220, Note_on_c, 0, 49, 81
5, 137250, Note_on_c, 0, 54, 81
5, 137280, Note_on_c, 0, 58, 0
5, 137280, Note_on_c, 0, 54, 0
5, 137280, Note_on_c, 0, 42, 0
5, 137280, Note_on_c, 0, 49, 0
5, 137280, Note_on_c, 0, 58, 81
5, 137760, Note_on_c, 0, 58, 0
5, 137760, Note_on_c, 0, 49, 0
5, 137760, Note_on_c, 0, 42, 0
5, 137760, Note_on_c, 0, 54, 0
5, 137760, Control_c, 0, 64, 0
5, 137760, Note_on_c, 0, 61, 107
5, 138000, Note_on_c, 0, 61, 0
5, 138000, Note_on_c, 0, 59, 107
5, 138240, Note_on_c, 0, 59, 0
5, 138240, Note_on_c, 0, 49, 81
5, 138240, Note_on_c, 0, 54, 81
5, 138240, Note_on_c, 0, 58, 81
5, 138480, Note_on_c, 0, 58, 0
5, 138480, Note_on_c, 0, 54, 0
5, 138480, Note_on_c, 0, 49, 0
5, 138480, Note_on_c, 0, 56, 107
5, 138720, Note_on_c, 0, 56, 0
5, 138720, Note_on_c, 0, 49, 81
5, 138720, Note_on_c, 0, 54, 81
5, 138720, Note_on_c, 0, 58, 81
5, 138960, Note_on_c, 0, 58, 0
5, 138960, Note_on_c, 0, 54, 0
5, 138960, Note_on_c, 0, 49, 0
5, 138960, Note_on_c, 0, 52, 107
5, 139110, Note_on_c, 0, 47, 81
5, 139140, Note_on_c, 0, 50, 81
5, 139170, Note_on_c, 0, 54, 81
5, 139200, Note_on_c, 0, 52, 0
5, 139200, Note_on_c, 0, 59, 81
5, 139680, Note_on_c, 0, 47, 0
5, 139680, Note_on_c, 0, 54, 0
5, 139680, Note_on_c, 0, 50, 0
5, 139680, Note_on_c, 0, 50, 81
5, 139680, Note_on_c, 0, 54, 81
5, 139920, Note_on_c, 0, 54, 0
5, 139920, Note_on_c, 0, 50, 0
5, 139920, Note_on_c, 0, 59, 0
5, 139920, Note_on_c, 0, 62, 81
5, 140160, Note_on_c, 0, 62, 0
5, 140160, Note_on_c, 0, 51, 81
5, 140160, Note_on_c, 0, 54, 81
5, 140160, Note_on_c, 0, 60, 81
5, 140640, Note_on_c, 0, 54, 0
5, 140640, Note_on_c, 0, 51, 0
5, 140880, Note_on_c, 0, 60, 0
5, 140880, Note_on_c, 0, 60, 68
5, 141120, Note_on_c, 0, 60, 0
5, 141120, Note_on_c, 0, 52, 68
5, 141120, Note_on_c, 0, 55, 68
5, 141120, Note_on_c, 0, 59, 68
5, 141600, Note_on_c, 0, 59, 0
5, 141600, Note_on_c, 0, 55, 0
5, 141600, Note_on_c, 0, 52, 0
5, 141600, Note_on_c, 0, 53, 68
5, 141600, Note_on_c, 0, 55, 68
5, 141600, Note_on_c, 0, 62, 68
5, 141840, Note_on_c, 0, 62, 0
5, 141840, Note_on_c, 0, 55, 0
5, 141840, Note_on_c, 0, 53, 0
5, 141840, Note_on_c, 0, 59, 68
5, 142080, Note_on_c, 0, 59, 0
5, 142080, Note_on_c, 0, 42, 55
5, 142080, Note_on_c, 0, 47, 55
5, 142080, Note_on_c, 0, 50, 55
5, 142080, Note_on_c, 0, 54, 55
5, 142560, Note_on_c, 0, 54, 0
5, 142560, Note_on_c, 0, 42, 0
5, 142560, Note_on_c, 0, 47, 0
5, 142560, Note_on_c, 0, 50, 0
5, 142560, Control_c, 0, 64, 127
5, 142560, Note_on_c, 0, 58, 55
5, 142800, Note_on_c, 0, 58, 0
5, 142800, Note_on_c, 0, 59, 68
5, 143040, Note_on_c, 0, 59, 0
5, 143040, Note_on_c, 0, 61, 68
5, 143280, Note_on_c, 0, 61, 0
5, 143280, Control_c, 0, 64, 0
5, 143280, Note_on_c, 0, 62, 68
5, 143520, Note_on_c, 0, 62, 0
5, 143520, Note_on_c, 0, 62, 94
5, 144000, Note_on_c, 0, 62, 0
5, 144000, Note_on_c, 0, 43, 68
5, 144000, Note_on_c, 0, 47, 68
5, 144000, Note_on_c, 0, 50, 68
5, 144240, Note_on_c, 0, 50, 0
5, 144240, Note_on_c, 0, 47, 0
5, 144240, Note_on_c, 0, 43, 0
5, 144240, Note_on_c, 0, 52, 68
5, 144480, Note_on_c, 0, 52, 0
5, 144480, Note_on_c, 0, 44, 68
5, 144480, Note_on_c, 0, 47, 68
5, 144480, Note_on_c, 0, 50, 68
5, 144480, Note_on_c, 0, 52, 68
5, 144720, Note_on_c, 0, 52, 0
5, 144720, Note_on_c, 0, 44, 0
5, 144720, Note_on_c, 0, 47, 0
5, 144720, Note_on_c, 0, 50, 0
5, 144720, Note_on_c, 0, 59, 68
5, 144960, Note_on_c, 0, 59, 0
5, 144960, Control_c, 0, 64, 127
5, 144960, Note_on_c, 0, 45, 68
5, 144960, Note_on_c, 0, 50, 68
5, 144960, Note_on_c, 0, 54, 68
5, 144960, Note_on_c, 0, 57, 68
5, 145200, Note_on_c, 0, 57, 0
5, 145200, Note_on_c, 0, 45, 0
5, 145200, Note_on_c, 0, 50, 0
5, 145200, Note_on_c, 0, 54, 0
5, 145200, Note_on_c, 0, 47, 68
5, 145440, Note_on_c, 0, 47, 0
5, 145440, Note_on_c, 0, 49, 68
5, 145680, Note_on_c, 0, 49, 0
5, 145680, Note_on_c, 0, 50, 68
5, 145920, Note_on_c, 0, 50, 0
5, 145920, Note_on_c, 0, 52, 81
5, 146160, Note_on_c, 0, 52, 0
5, 146160, Note_on_c, 0, 53, 81
5, 146400, Note_on_c, 0, 53, 0
5, 146400, Control_c, 0, 64, 0
5, 146400, Note_on_c, 0, 54, 81
5, 146880, Note_on_c, 0, 54, 0
5, 146880, Note_on_c, 0, 46, 107
5, 146880, Note_on_c, 0, 50, 107
5, 146880, Note_on_c, 0, 55, 107
5, 146880, Note_on_c, 0, 58, 107
5, 147360, Note_on_c, 0, 58, 0
5, 147360, Note_on_c, 0, 46, 0
5, 147360, Note_on_c, 0, 50, 0
5, 147360, Note_on_c, 0, 55, 0
5, 147360, Note_on_c, 0, 47, 107
5, 147360, Note_on_c, 0, 50, 107
5, 147360, Note_on_c, 0, 56, 107
5, 147360, Note_on_c, 0, 59, 107
5, 147840, Note_on_c, 0, 59, 0
5, 147840, Note_on_c, 0, 47, 0
5, 147840, Note_on_c, 0, 50, 0
5, 147840, Note_on_c, 0, 56, 0
5, 147840, Control_c, 0, 64, 127
5, 147840, Note_on_c, 0, 48, 107
5, 147840, Note_on_c, 0, 53, 107
5, 147840, Note_on_c, 0, 57, 107
5, 147840, Note_on_c, 0, 60, 107
5, 148080, Note_on_c, 0, 60, 0
5, 148080, Note_on_c, 0, 48, 0
5, 148080, Note_on_c, 0, 53, 0
5, 148080, Note_on_c, 0, 57, 0
5, 148080, Note_on_c, 0, 50, 81
5, 148320, Note_on_c, 0, 50, 0
5, 148320, Note_on_c, 0, 52, 81
5, 148560, Note_on_c, 0, 52, 0
5, 148560, Note_on_c, 0, 53, 81
5, 148800, Note_on_c, 0, 53, 0
5, 148800, Note_on_c, 0, 55, 81
5, 149040, Note_on_c, 0, 55, 0
5, 149040, Note_on_c, 0, 56, 81
5, 149280, Note_on_c, 0, 56, 0
5, 149280, Control_c, 0, 64, 0
5, 149280, Note_on_c, 0, 57, 81
5, 149760, Note_on_c, 0, 57, 0
5, 149760, Note_on_c, 0, 49, 107
5, 149760, Note_on_c, 0, 53, 107
5, 149760, Note_on_c, 0, 58, 107
5, 149760, Note_on_c, 0, 61, 107
5, 150240, Note_on_c, 0, 61, 0
5, 150240, Note_on_c, 0, 49, 0
5, 150240, Note_on_c, 0, 53, 0
5, 150240, Note_on_c, 0, 58, 0
5, 150240, Note_on_c, 0, 50, 107
5, 150240, Note_on_c, 0, 53, 107
5, 150240, Note_on_c, 0, 59, 107
5, 150240, Note_on_c, 0, 62, 107
5, 150720, Note_on_c, 0, 62, 0
5, 150720, Note_on_c, 0, 50, 0
5, 150720, Note_on_c, 0, 53, 0
5, 150720, Note_on_c, 0, 59, 0
5, 150720, Control_c, 0, 64, 127
5, 150720, Note_on_c, 0, 51, 81
5, 150720, Note_on_c, 0, 56, 81
5, 150720, Note_on_c, 0, 60, 81
5, 150720, Note_on_c, 0, 63, 81
5, 150960, Note_on_c, 0, 63, 0
5, 150960, Note_on_c, 0, 51, 0
5, 150960, Note_on_c, 0, 56, 0
5, 150960, Note_on_c, 0, 60, 0
5, 150960, Note_on_c, 0, 53, 81
5, 151200, Note_on_c, 0, 53, 0
5, 151200, Note_on_c, 0, 55, 81
5, 151440, Note_on_c, 0, 55, 0
5, 151440, Note_on_c, 0, 56, 81
5, 151680, Note_on_c, 0, 56, 0
5, 151680, Note_on_c, 0, 58, 81
5, 151920, Note_on_c, 0, 58, 0
5, 151920, Control_c, 0, 64, 0
5, 151920, Note_on_c, 0, 59, 81
5, 152160, Note_on_c, 0, 59, 0
5, 152160, Note_on_c, 0, 53, 107
5, 152160, Note_on_c, 0, 59, 107
5, 152160, Note_on_c, 0, 62, 107
5, 152160, Note_on_c, 0, 65, 107
5, 152400, Note_on_c, 0, 65, 0
5, 152400, Note_on_c, 0, 53, 0
5, 152400, Note_on_c, 0, 59, 0
5, 152400, Note_on_c, 0, 62, 0
5, 152400, Control_c, 0, 64, 127
5, 152400, Note_on_c, 0, 56, 81
5, 152640, Note_on_c, 0, 56, 0
5, 152640, Note_on_c, 0, 58, 81
5, 152880, Note_on_c, 0, 58, 0
5, 152880, Note_on_c, 0, 59, 81
5, 153120, Note_on_c, 0, 59, 0
5, 153120, Note_on_c, 0, 61, 81
5, 153360, Note_on_c, 0, 61, 0
5, 153360, Control_c, 0, 64, 0
5, 153360, Note_on_c, 0, 62, 81
5, 153600, Note_on_c, 0, 62, 0
5, 153600, Note_on_c, 0, 56, 107
5, 153600, Note_on_c, 0, 62, 107
5, 153600, Note_on_c, 0, 65, 107
5, 153600, Note_on_c, 0, 68, 107
5, 153840, Note_on_c, 0, 68, 0
5, 153840, Note_on_c, 0, 56, 0
5, 153840, Note_on_c, 0, 62, 0
5, 153840, Note_on_c, 0, 65, 0
5, 153840, Control_c, 0, 64, 127
5, 153840, Note_on_c, 0, 59, 81
5, 154080, Note_on_c, 0, 59, 0
5, 154080, Note_on_c, 0, 61, 81
5, 154320, Note_on_c, 0, 61, 0
5, 154320, Note_on_c, 0, 62, 81
5, 154560, Note_on_c, 0, 62, 0
5, 154560, Note_on_c, 0, 64, 81
5, 154800, Note_on_c, 0, 64, 0
5, 154800, Control_c, 0, 64, 0
5, 154800, Note_on_c, 0, 65, 81
5, 155040, Note_on_c, 0, 65, 0
5, 155040, Note_on_c, 0, 59, 120
5, 155040, Note_on_c, 0, 62, 120
5, 155040, Note_on_c, 0, 65, 120
5, 155040, Note_on_c, 0, 71, 120
5, 155280, Note_on_c, 0, 71, 0
5, 155280, Note_on_c, 0, 59, 0
5, 155280, Note_on_c, 0, 62, 0
5, 155280, Note_on_c, 0, 65, 0
5, 155280, Control_c, 0, 64, 127
5, 155280, Note_on_c, 0, 62, 94
5, 155520, Note_on_c, 0, 62, 0
5, 155520, Note_on_c, 0, 64, 94
5, 155760, Note_on_c, 0, 64, 0
5, 155760, Note_on_c, 0, 65, 94
5, 156000, Note_on_c, 0, 65, 0
5, 156000, Note_on_c, 0, 67, 94
5, 156240, Note_on_c, 0, 67, 0
5, 156240, Control_c, 0, 64, 0
5, 156240, Note_on_c, 0, 68, 94
5, 156480, Note_on_c, 0, 68, 0
5, 156480, Control_c, 0, 64, 127
5, 156480, Note_on_c, 0, 70, 94
5, 156720, Note_on_c, 0, 70, 0
5, 156720, Note_on_c, 0, 71, 94
5, 156960, Note_on_c, 0, 71, 0
5, 156960, Note_on_c, 0, 73, 94
5, 157200, Note_on_c, 0, 73, 0
5, 157200, Control_c, 0, 64, 0
5, 157200, Note_on_c, 0, 74, 94
5, 157440, Note_on_c, 0, 74, 0
5, 157440, Note_on_c, 0, 71, 94
5, 157680, Note_on_c, 0, 71, 0
5, 157680, Note_on_c, 0, 69, 94
5, 157920, Note_on_c, 0, 69, 0
5, 157920, Note_on_c, 0, 68, 94
5, 158160, Note_on_c, 0, 68, 0
5, 158160, Note_on_c, 0, 67, 94
5, 158400, Note_on_c, 0, 67, 0
5, 158400, Note_on_c, 0, 65, 94
5, 158640, Note_on_c, 0, 65, 0
5, 158640, Note_on_c, 0, 64, 94
5, 158687, Note_on_c, 0, 64, 0
5, 158880, Note_on_c, 0, 62, 94
5, 158927, Note_on_c, 0, 62, 0
5, 159120, Note_on_c, 0, 61, 94
5, 159167, Note_on_c, 0, 61, 0
5, 159360, Note_on_c, 0, 59, 81
5, 159600, Note_on_c, 0, 59, 0
5, 159600, Note_on_c, 0, 56, 81
5, 159840, Note_on_c, 0, 56, 0
5, 159840, Note_on_c, 0, 53, 81
5, 160080, Note_on_c, 0, 53, 0
5, 160080, Note_on_c, 0, 50, 68
5, 160320, Note_on_c, 0, 50, 0
5, 160320, Note_on_c, 0, 47, 68
5, 160560, Note_on_c, 0, 47, 0
5, 160560, Note_on_c, 0, 44, 68
5, 160800, Note_on_c, 0, 44, 0
5, 160800, Note_on_c, 0, 45, 55
5, 160800, Note_on_c, 0, 50, 55
5, 160800, Note_on_c, 0, 54, 55
5, 160800, Note_on_c, 0, 57, 55
5, 163200, Note_on_c, 0, 57, 0
5, 163200, Note_on_c, 0, 45, 0
5, 163200, Note_on_c, 0, 50, 0
5, 163200, Note_on_c, 0, 54, 0
5, 163590, Note_on_c, 0, 43, 55
5, 163620, Note_on_c, 0, 47, 55
5, 163650, Note_on_c, 0, 52, 55
5, 163680, Note_on_c, 0, 55, 55
5, 166080, Note_on_c, 0, 55, 0
5, 166080, Note_on_c, 0, 43, 0
5, 166080, Note_on_c, 0, 47, 0
5, 166080, Note_on_c, 0, 52, 0
5, 166480, Note_on_c, 0, 52, 55
5, 166520, Note_on_c, 0, 55, 55
5, 166560, Note_on_c, 0, 59, 55
5, 166592, Note_on_c, 0, 52, 0
5, 166624, Note_on_c, 0, 55, 0
5, 166656, Note_on_c, 0, 59, 0
5, 182980, Note_on_c, 0, 38, 55
5, 183020, Note_on_c, 0, 45, 55
5, 183060, Note_on_c, 0, 50, 55
5, 183540, Note_on_c, 0, 50, 0
5, 183540, Note_on_c, 0, 45, 0
5, 183540, Note_on_c, 0, 38, 0
5, 184500, Note_on_c, 0, 36, 94
5, 184500, Note_on_c, 0, 48, 94
5, 185400, Note_on_c, 0, 48, 0
5, 185400, Note_on_c, 0, 36, 0
5, 185400, Note_on_c, 0, 38, 68
5, 185400, Note_on_c, 0, 50, 68
5, 185460, Note_on_c, 0, 50, 0
5, 185460, Note_on_c, 0, 38, 0
5, 185460, Note_on_c, 0, 36, 68
5, 185460, Note_on_c, 0, 48, 68
5, 185880, Note_on_c, 0, 48, 0
5, 185880, Note_on_c, 0, 36, 0
5, 185880, Note_on_c, 0, 38, 68
5, 185880, Note_on_c, 0, 50, 68
5, 185940, Note_on_c, 0, 50, 0
5, 185940, Note_on_c, 0, 38, 0
5, 185940, Note_on_c, 0, 35, 68
5, 185940, Note_on_c, 0, 47, 68
5, 186420, Note_on_c, 0, 47, 0
5, 186420, Note_on_c, 0, 35, 0
5, 186420, Note_on_c, 0, 74, 94
5, 187380, Note_on_c, 0, 74, 0
5, 187380, Note_on_c, 0, 34, 68
5, 187380, Note_on_c, 0, 46, 68
5, 188280, Note_on_c, 0, 46, 0
5, 188280, Note_on_c, 0, 34, 0
5, 188280, Note_on_c, 0, 36, 68
5, 188280, Note_on_c, 0, 48, 68
5, 188340, Note_on_c, 0, 48, 0
5, 188340, Note_on_c, 0, 36, 0
5, 188340, Note_on_c, 0, 34, 68
5, 188340, Note_on_c, 0, 46, 68
5, 188760, Note_on_c, 0, 46, 0
5, 188760, Note_on_c, 0, 34, 0
5, 188760, Note_on_c, 0, 36, 68
5, 188760, Note_on_c, 0, 48, 68
5, 188820, Note_on_c, 0, 48, 0
5, 188820, Note_on_c, 0, 36, 0
5, 188820, Note_on_c, 0, 33, 68
5, 188820, Note_on_c, 0, 45, 68
5, 189300, Note_on_c, 0, 45, 0
5, 189300, Note_on_c, 0, 33, 0
5, 189300, Note_on_c, 0, 74, 94
5, 190260, Note_on_c, 0, 74, 0
5, 190260, Note_on_c, 0, 32, 94
5, 190260, Note_on_c, 0, 44, 94
5, 191160, Note_on_c, 0, 44, 0
5, 191160, Note_on_c, 0, 32, 0
5, 191160, Note_on_c, 0, 34, 68
5, 191160, Note_on_c, 0, 46, 68
5, 191220, Note_on_c, 0, 46, 0
5, 191220, Note_on_c, 0, 34, 0
5, 191220, Note_on_c, 0, 32, 68
5, 191220, Note_on_c, 0, 44, 68
5, 191640, Note_on_c, 0, 44, 0
5, 191640, Note_on_c, 0, 32, 0
5, 191640, Note_on_c, 0, 34, 68
5, 191640, Note_on_c, 0, 46, 68
5, 191700, Note_on_c, 0, 46, 0
5, 191700, Note_on_c, 0, 34, 0
5, 191700, Note_on_c, 0, 31, 68
5, 191700, Note_on_c, 0, 43, 68
5, 192180, Note_on_c, 0, 43, 0
5, 192180, Note_on_c, 0, 31, 0
5, 192180, Note_on_c, 0, 74, 94
5, 193140, Note_on_c, 0, 74, 0
5, 193140, Note_on_c, 0, 30, 107
5, 193140, Note_on_c, 0, 42, 107
5, 194040, Note_on_c, 0, 42, 0
5, 194040, Note_on_c, 0, 30, 0
5, 194040, Note_on_c, 0, 31, 81
5, 194040, Note_on_c, 0, 43, 81
5, 194100, Note_on_c, 0, 43, 0
5, 194100, Note_on_c, 0, 31, 0
5, 194100, Note_on_c, 0, 30, 81
5, 194100, Note_on_c, 0, 42, 81
5, 194520, Note_on_c, 0, 42, 0
5, 194520, Note_on_c, 0, 30, 0
5, 194520, Note_on_c, 0, 31, 81
5, 194520, Note_on_c, 0, 43, 81
5, 194580, Note_on_c, 0, 43, 0
5, 194580, Note_on_c, 0, 31, 0
5, 194580, Note_on_c, 0, 26, 81
5, 194580, Note_on_c, 0, 38, 81
5, 195060, Note_on_c, 0, 38, 0
5, 195060, Note_on_c, 0, 26, 0
5, 195060, Note_on_c, 0, 74, 107
5, 196020, Note_on_c, 0, 74, 0
5, 196020, Control_c, 0, 64, 127
5, 196020, Note_on_c, 0, 50, 55
5, 196020, Note_on_c, 0, 54, 55
5, 196080, Note_on_c, 0, 54, 0
5, 196080, Note_on_c, 0, 50, 0
5, 196080, Note_on_c, 0, 57, 55
5, 196140, Note_on_c, 0, 57, 0
5, 196140, Note_on_c, 0, 50, 55
5, 196140, Note_on_c, 0, 54, 55
5, 196200, Note_on_c, 0, 54, 0
5, 196200, Note_on_c, 0, 50, 0
5, 196200, Note_on_c, 0, 57, 55
5, 196260, Note_on_c, 0, 57, 0
5, 196260, Note_on_c, 0, 50, 55
5, 196260, Note_on_c, 0, 54, 55
5, 196320, Note_on_c, 0, 54, 0
5, 196320, Note_on_c, 0, 50, 0
5, 196320, Note_on_c, 0, 57, 55
5, 196380, Note_on_c, 0, 57, 0
5, 196380, Note_on_c, 0, 50, 55
5, 196380, Note_on_c, 0, 54, 55
5, 196440, Note_on_c, 0, 54, 0
5, 196440, Note_on_c, 0, 50, 0
5, 196440, Note_on_c, 0, 57, 55
5, 196500, Note_on_c, 0, 57, 0
5, 196500, Note_on_c, 0, 38, 81
5, 196500, Note_on_c, 0, 50, 81
5, 196500, Note_on_c, 0, 54, 81
5, 196560, Note_on_c, 0, 54, 0
5, 196560, Note_on_c, 0, 50, 0
5, 196560, Note_on_c, 0, 38, 0
5, 196560, Note_on_c, 0, 57, 55
5, 196620, Note_on_c, 0, 57, 0
5, 196620, Note_on_c, 0, 50, 55
5, 196620, Note_on_c, 0, 54, 55
5, 196680, Note_on_c, 0, 54, 0
5, 196680, Note_on_c, 0, 50, 0
5, 196680, Note_on_c, 0, 57, 55
5, 196740, Note_on_c, 0, 57, 0
5, 196740, Note_on_c, 0, 50, 55
5, 196740, Note_on_c, 0, 54, 55
5, 196800, Note_on_c, 0, 54, 0
5, 196800, Note_on_c, 0, 50, 0
5, 196800, Note_on_c, 0, 57, 55
5, 196860, Note_on_c, 0, 57, 0
5, 196860, Note_on_c, 0, 50, 55
5, 196860, Note_on_c, 0, 54, 55
5, 196920, Note_on_c, 0, 54, 0
5, 196920, Note_on_c, 0, 50, 0
5, 196920, Note_on_c, 0, 57, 55
5, 196980, Note_on_c, 0, 57, 0
5, 196980, Note_on_c, 0, 50, 55
5, 196980, Note_on_c, 0, 54, 55
5, 197040, Note_on_c, 0, 54, 0
5, 197040, Note_on_c, 0, 50, 0
5, 197040, Note_on_c, 0, 57, 55
5, 197100, Note_on_c, 0, 57, 0
5, 197100, Note_on_c, 0, 50, 55
5, 197100, Note_on_c, 0, 54, 55
5, 197160, Note_on_c, 0, 54, 0
5, 197160, Note_on_c, 0, 50, 0
5, 197160, Note_on_c, 0, 57, 55
5, 197220, Note_on_c, 0, 57, 0
5, 197220, Note_on_c, 0, 50, 55
5, 197220, Note_on_c, 0, 54, 55
5, 197280, Note_on_c, 0, 54, 0
5, 197280, Note_on_c, 0, 50, 0
5, 197280, Note_on_c, 0, 57, 55
5, 197340, Note_on_c, 0, 57, 0
5, 197340, Note_on_c, 0, 50, 55
5, 197340, Note_on_c, 0, 54, 55
5, 197400, Note_on_c, 0, 54, 0
5, 197400, Note_on_c, 0, 50, 0
5, 197400, Control_c, 0, 64, 0
5, 197400, Note_on_c, 0, 57, 55
5, 197460, Note_on_c, 0, 57, 0
5, 197460, Control_c, 0, 64, 127
5, 197460, Note_on_c, 0, 50, 55
5, 197460, Note_on_c, 0, 53, 55
5, 197520, Note_on_c, 0, 53, 0
5, 197520, Note_on_c, 0, 50, 0
5, 197520, Note_on_c, 0, 56, 55
5, 197580, Note_on_c, 0, 56, 0
5, 197580, Note_on_c, 0, 50, 55
5, 197580, Note_on_c, 0, 53, 55
5, 197640, Note_on_c, 0, 53, 0
5, 197640, Note_on_c, 0, 50, 0
5, 197640, Note_on_c, 0, 56, 55
5, 197700, Note_on_c, 0, 56, 0
5, 197700, Note_on_c, 0, 50, 55
5, 197700, Note_on_c, 0, 53, 55
5, 197760, Note_on_c, 0, 53, 0
5, 197760, Note_on_c, 0, 50, 0
5, 197760, Note_on_c, 0, 56, 55
5, 197820, Note_on_c, 0, 56, 0
5, 197820, Note_on_c, 0, 50, 55
5, 197820, Note_on_c, 0, 53, 55
5, 197880, Note_on_c, 0, 53, 0
5, 197880, Note_on_c, 0, 50, 0
5, 197880, Note_on_c, 0, 56, 55
5, 197940, Note_on_c, 0, 56, 0
5, 197940, Note_on_c, 0, 38, 81
5, 197940, Note_on_c, 0, 50, 81
5, 197940, Note_on_c, 0, 53, 81
5, 198000, Note_on_c, 0, 53, 0
5, 198000, Note_on_c, 0, 50, 0
5, 198000, Note_on_c, 0, 38, 0
5, 198000, Note_on_c, 0, 56, 55
5, 198060, Note_on_c, 0, 56, 0
5, 198060, Note_on_c, 0, 50, 55
5, 198060, Note_on_c, 0, 53, 55
5, 198120, Note_on_c, 0, 53, 0
5, 198120, Note_on_c, 0, 50, 0
5, 198120, Note_on_c, 0, 56, 55
5, 198180, Note_on_c, 0, 56, 0
5, 198180, Note_on_c, 0, 50, 55
5, 198180, Note_on_c, 0, 53, 55
5, 198240, Note_on_c, 0, 53, 0
5, 198240, Note_on_c, 0, 50, 0
5, 198240, Note_on_c, 0, 56, 55
5, 198300, Note_on_c, 0, 56, 0
5, 198300, Note_on_c, 0, 50, 55
5, 198300, Note_on_c, 0, 53, 55
5, 198360, Note_on_c, 0, 53, 0
5, 198360, Note_on_c, 0, 50, 0
5, 198360, Note_on_c, 0, 56, 55
5, 198420, Note_on_c, 0, 56, 0
5, 198420, Note_on_c, 0, 50, 55
5, 198420, Note_on_c, 0, 53, 55
5, 198480, Note_on_c, 0, 53, 0
5, 198480, Note_on_c, 0, 50, 0
5, 198480, Note_on_c, 0, 56, 55
5, 198540, Note_on_c, 0, 56, 0
5, 198540, Note_on_c, 0, 50, 55
5, 198540, Note_on_c, 0, 53, 55
5, 198600, Note_on_c, 0, 53, 0
5, 198600, Note_on_c, 0, 50, 0
5, 198600, Note_on_c, 0, 56, 55
5, 198660, Note_on_c, 0, 56, 0
5, 198660, Note_on_c, 0, 50, 55
5, 198660, Note_on_c, 0, 53, 55
5, 198720, Note_on_c, 0, 53, 0
5, 198720, Note_on_c, 0, 50, 0
5, 198720, Note_on_c, 0, 56, 55
5, 198780, Note_on_c, 0, 56, 0
5, 198780, Note_on_c, 0, 50, 55
5, 198780, Note_on_c, 0, 53, 55
5, 198840, Note_on_c, 0, 53, 0
5, 198840, Note_on_c, 0, 50, 0
5, 198840, Control_c, 0, 64, 0
5, 198840, Note_on_c, 0, 56, 55
5, 198900, Note_on_c, 0, 56, 0
5, 198900, Control_c, 0, 64, 127
5, 198900, Note_on_c, 0, 50, 55
5, 198900, Note_on_c, 0, 52, 55
5, 198960, Note_on_c, 0, 52, 0
5, 198960, Note_on_c, 0, 50, 0
5, 198960, Note_on_c, 0, 55, 55
5, 199020, Note_on_c, 0, 55, 0
5, 199020, Note_on_c, 0, 50, 55
5, 199020, Note_on_c, 0, 52, 55
5, 199080, Note_on_c, 0, 52, 0
5, 199080, Note_on_c, 0, 50, 0
5, 199080, Note_on_c, 0, 55, 55
5, 199140, Note_on_c, 0, 55, 0
5, 199140, Note_on_c, 0, 50, 55
5, 199140, Note_on_c, 0, 52, 55
5, 199200, Note_on_c, 0, 52, 0
5, 199200, Note_on_c, 0, 50, 0
5, 199200, Note_on_c, 0, 55, 55
5, 199260, Note_on_c, 0, 55, 0
5, 199260, Note_on_c, 0, 50, 55
5, 199260, Note_on_c, 0, 52, 55
5, 199320, Note_on_c, 0, 52, 0
5, 199320, Note_on_c, 0, 50, 0
5, 199320, Note_on_c, 0, 55, 55
5, 199380, Note_on_c, 0, 55, 0
5, 199380, Note_on_c, 0, 38, 81
5, 199380, Note_on_c, 0, 50, 81
5, 199380, Note_on_c, 0, 52, 81
5, 199440, Note_on_c, 0, 52, 0
5, 199440, Note_on_c, 0, 50, 0
5, 199440, Note_on_c, 0, 38, 0
5, 199440, Note_on_c, 0, 55, 55
5, 199500, Note_on_c, 0, 55, 0
5, 199500, Note_on_c, 0, 50, 55
5, 199500, Note_on_c, 0, 52, 55
5, 199560, Note_on_c, 0, 52, 0
5, 199560, Note_on_c, 0, 50, 0
5, 199560, Note_on_c, 0, 55, 55
5, 199620, Note_on_c, 0, 55, 0
5, 199620, Note_on_c, 0, 50, 55
5, 199620, Note_on_c, 0, 52, 55
5, 199680, Note_on_c, 0, 52, 0
5, 199680, Note_on_c, 0, 50, 0
5, 199680, Note_on_c, 0, 55, 55
5, 199740, Note_on_c, 0, 55, 0
5, 199740, Note_on_c, 0, 50, 55
5, 199740, Note_on_c, 0, 52, 55
5, 199800, Note_on_c, 0, 52, 0
5, 199800, Note_on_c, 0, 50, 0
5, 199800, Note_on_c, 0, 55, 55
5, 199860, Note_on_c, 0, 55, 0
5, 199860, Note_on_c, 0, 50, 55
5, 199860, Note_on_c, 0, 52, 55
5, 199920, Note_on_c, 0, 52, 0
5, 199920, Note_on_c, 0, 50, 0
5, 199920, Note_on_c, 0, 55, 55
5, 199980, Note_on_c, 0, 55, 0
5, 199980, Note_on_c, 0, 50, 55
5, 199980, Note_on_c, 0, 52, 55
5, 200040, Note_on_c, 0, 52, 0
5, 200040, Note_on_c, 0, 50, 0
5, 200040, Note_on_c, 0, 55, 55
5, 200100, Note_on_c, 0, 55, 0
5, 200100, Note_on_c, 0, 50, 55
5, 200100, Note_on_c, 0, 52, 55
5, 200160, Note_on_c, 0, 52, 0
5, 200160, Note_on_c, 0, 50, 0
5, 200160, Note_on_c, 0, 55, 55
5, 200220, Note_on_c, 0, 55, 0
5, 200220, Note_on_c, 0, 50, 55
5, 200220, Note_on_c, 0, 52, 55
5, 200280, Note_on_c, 0, 52, 0
5, 200280, Note_on_c, 0, 50, 0
5, 200280, Control_c, 0, 64, 0
5, 200280, Note_on_c, 0, 55, 55
5, 200340, Note_on_c, 0, 55, 0
5, 200340, Control_c, 0, 64, 127
5, 200340, Note_on_c, 0, 50, 55
5, 200340, Note_on_c, 0, 53, 55
5, 200400, Note_on_c, 0, 53, 0
5, 200400, Note_on_c, 0, 50, 0
5, 200400, Note_on_c, 0, 57, 55
5, 200460, Note_on_c, 0, 57, 0
5, 200460, Note_on_c, 0, 50, 55
5, 200460, Note_on_c, 0, 53, 55
5, 200520, Note_on_c, 0, 53, 0
5, 200520, Note_on_c, 0, 50, 0
5, 200520, Note_on_c, 0, 57, 55
5, 200580, Note_on_c, 0, 57, 0
5, 200580, Note_on_c, 0, 50, 55
5, 200580, Note_on_c, 0, 53, 55
5, 200640, Note_on_c, 0, 53, 0
5, 200640, Note_on_c, 0, 50, 0
5, 200640, Note_on_c, 0, 57, 55
5, 200700, Note_on_c, 0, 57, 0
5, 200700, Note_on_c, 0, 50, 55
5, 200700, Note_on_c, 0, 53, 55
5, 200760, Note_on_c, 0, 53, 0
5, 200760, Note_on_c, 0, 50, 0
5, 200760, Note_on_c, 0, 57, 55
5, 200820, Note_on_c, 0, 57, 0
5, 200820, Note_on_c, 0, 38, 81
5, 200820, Note_on_c, 0, 50, 81
5, 200820, Note_on_c, 0, 53, 81
5, 200880, Note_on_c, 0, 53, 0
5, 200880, Note_on_c, 0, 50, 0
5, 200880, Note_on_c, 0, 38, 0
5, 200880, Note_on_c, 0, 57, 55
5, 200940, Note_on_c, 0, 57, 0
5, 200940, Note_on_c, 0, 50, 55
5, 200940, Note_on_c, 0, 53, 55
5, 201000, Note_on_c, 0, 53, 0
5, 201000, Note_on_c, 0, 50, 0
5, 201000, Note_on_c, 0, 57, 55
5, 201060, Note_on_c, 0, 57, 0
5, 201060, Note_on_c, 0, 50, 55
5, 201060, Note_on_c, 0, 53, 55
5, 201120, Note_on_c, 0, 53, 0
5, 201120, Note_on_c, 0, 50, 0
5, 201120, Note_on_c, 0, 57, 55
5, 201180, Note_on_c, 0, 57, 0
5, 201180, Note_on_c, 0, 50, 55
5, 201180, Note_on_c, 0, 53, 55
5, 201240, Note_on_c, 0, 53, 0
5, 201240, Note_on_c, 0, 50, 0
5, 201240, Note_on_c, 0, 57, 55
5, 201300, Note_on_c, 0, 57, 0
5, 201300, Note_on_c, 0, 50, 55
5, 201300, Note_on_c, 0, 53, 55
5, 201360, Note_on_c, 0, 53, 0
5, 201360, Note_on_c, 0, 50, 0
5, 201360, Note_on_c, 0, 57, 55
5, 201420, Note_on_c, 0, 57, 0
5, 201420, Note_on_c, 0, 50, 55
5, 201420, Note_on_c, 0, 53, 55
5, 201480, Note_on_c, 0, 53, 0
5, 201480, Note_on_c, 0, 50, 0
5, 201480, Note_on_c, 0, 57, 55
5, 201540, Note_on_c, 0, 57, 0
5, 201540, Note_on_c, 0, 50, 55
5, 201540, Note_on_c, 0, 53, 55
5, 201600, Note_on_c, 0, 53, 0
5, 201600, Note_on_c, 0, 50, 0
5, 201600, Note_on_c, 0, 57, 55
5, 201660, Note_on_c, 0, 57, 0
5, 201660, Note_on_c, 0, 50, 55
5, 201660, Note_on_c, 0, 53, 55
5, 201720, Note_on_c, 0, 53, 0
5, 201720, Note_on_c, 0, 50, 0
5, 201720, Control_c, 0, 64, 0
5, 201720, Note_on_c, 0, 57, 55
5, 201780, Note_on_c, 0, 57, 0
5, 201780, Control_c, 0, 64, 127
5, 201780, Note_on_c, 0, 50, 55
5, 201780, Note_on_c, 0, 53, 55
5, 201840, Note_on_c, 0, 53, 0
5, 201840, Note_on_c, 0, 50, 0
5, 201840, Note_on_c, 0, 58, 55
5, 201900, Note_on_c, 0, 58, 0
5, 201900, Note_on_c, 0, 50, 55
5, 201900, Note_on_c, 0, 53, 55
5, 201960, Note_on_c, 0, 53, 0
5, 201960, Note_on_c, 0, 50, 0
5, 201960, Note_on_c, 0, 58, 55
5, 202020, Note_on_c, 0, 58, 0
5, 202020, Note_on_c, 0, 50, 55
5, 202020, Note_on_c, 0, 53, 55
5, 202080, Note_on_c, 0, 53, 0
5, 202080, Note_on_c, 0, 50, 0
5, 202080, Note_on_c, 0, 58, 55
5, 202140, Note_on_c, 0, 58, 0
5, 202140, Note_on_c, 0, 50, 55
5, 202140, Note_on_c, 0, 53, 55
5, 202200, Note_on_c, 0, 53, 0
5, 202200, Note_on_c, 0, 50, 0
5, 202200, Note_on_c, 0, 58, 55
5, 202260, Note_on_c, 0, 58, 0
5, 202260, Note_on_c, 0, 38, 81
5, 202260, Note_on_c, 0, 50, 81
5, 202260, Note_on_c, 0, 53, 81
5, 202320, Note_on_c, 0, 53, 0
5, 202320, Note_on_c, 0, 50, 0
5, 202320, Note_on_c, 0, 38, 0
5, 202320, Note_on_c, 0, 58, 55
5, 202380, Note_on_c, 0, 58, 0
5, 202380, Note_on_c, 0, 50, 55
5, 202380, Note_on_c, 0, 53, 55
5, 202440, Note_on_c, 0, 53, 0
5, 202440, Note_on_c, 0, 50, 0
5, 202440, Note_on_c, 0, 58, 55
5, 202500, Note_on_c, 0, 58, 0
5, 202500, Note_on_c, 0, 50, 55
5, 202500, Note_on_c, 0, 53, 55
5, 202560, Note_on_c, 0, 53, 0
5, 202560, Note_on_c, 0, 50, 0
5, 202560, Note_on_c, 0, 58, 55
5, 202620, Note_on_c, 0, 58, 0
5, 202620, Note_on_c, 0, 50, 55
5, 202620, Note_on_c, 0, 53, 55
5, 202680, Note_on_c, 0, 53, 0
5, 202680, Note_on_c, 0, 50, 0
5, 202680, Note_on_c, 0, 58, 55
5, 202740, Note_on_c, 0, 58, 0
5, 202740, Note_on_c, 0, 50, 55
5, 202740, Note_on_c, 0, 53, 55
5, 202800, Note_on_c, 0, 53, 0
5, 202800, Note_on_c, 0, 50, 0
5, 202800, Note_on_c, 0, 58, 55
5, 202860, Note_on_c, 0, 58, 0
5, 202860, Note_on_c, 0, 50, 55
5, 202860, Note_on_c, 0, 53, 55
5, 202920, Note_on_c, 0, 53, 0
5, 202920, Note_on_c, 0, 50, 0
5, 202920, Note_on_c, 0, 58, 55
5, 202980, Note_on_c, 0, 58, 0
5, 202980, Note_on_c, 0, 50, 55
5, 202980, Note_on_c, 0, 53, 55
5, 203040, Note_on_c, 0, 53, 0
5, 203040, Note_on_c, 0, 50, 0
5, 203040, Note_on_c, 0, 58, 55
5, 203100, Note_on_c, 0, 58, 0
5, 203100, Note_on_c, 0, 50, 55
5, 203100, Note_on_c, 0, 53, 55
5, 203160, Note_on_c, 0, 53, 0
5, 203160, Note_on_c, 0, 50, 0
5, 203160, Control_c, 0, 64, 0
5, 203160, Note_on_c, 0, 58, 55
5, 203220, Note_on_c, 0, 58, 0
5, 203220, Control_c, 0, 64, 127
5, 203220, Note_on_c, 0, 50, 55
5, 203220, Note_on_c, 0, 51, 55
5, 203220, Note_on_c, 0, 55, 55
5, 203280, Note_on_c, 0, 55, 0
5, 203280, Note_on_c, 0, 51, 0
5, 203280, Note_on_c, 0, 50, 0
5, 203280, Note_on_c, 0, 58, 55
5, 203340, Note_on_c, 0, 58, 0
5, 203340, Note_on_c, 0, 50, 55
5, 203340, Note_on_c, 0, 51, 55
5, 203340, Note_on_c, 0, 55, 55
5, 203400, Note_on_c, 0, 55, 0
5, 203400, Note_on_c, 0, 51, 0
5, 203400, Note_on_c, 0, 50, 0
5, 203400, Note_on_c, 0, 58, 55
5, 203460, Note_on_c, 0, 58, 0
5, 203460, Note_on_c, 0, 50, 55
5, 203460, Note_on_c, 0, 51, 55
5, 203460, Note_on_c, 0, 55, 55
5, 203520, Note_on_c, 0, 55, 0
5, 203520, Note_on_c, 0, 51, 0
5, 203520, Note_on_c, 0, 50, 0
5, 203520, Note_on_c, 0, 58, 55
5, 203580, Note_on_c, 0, 58, 0
5, 203580, Note_on_c, 0, 50, 55
5, 203580, Note_on_c, 0, 51, 55
5, 203580, Note_on_c, 0, 55, 55
5, 203640, Note_on_c, 0, 55, 0
5, 203640, Note_on_c, 0, 51, 0
5, 203640, Note_on_c, 0, 50, 0
5, 203640, Note_on_c, 0, 58, 55
5, 203700, Note_on_c, 0, 58, 0
5, 203700, Note_on_c, 0, 38, 81
5, 203700, Note_on_c, 0, 50, 81
5, 203700, Note_on_c, 0, 51, 81
5, 203700, Note_on_c, 0, 55, 81
5, 203760, Note_on_c, 0, 55, 0
5, 203760, Note_on_c, 0, 38, 0
5, 203760, Note_on_c, 0, 50, 0
5, 203760, Note_on_c, 0, 51, 0
5, 203760, Note_on_c, 0, 58, 55
5, 203820, Note_on_c, 0, 58, 0
5, 203820, Note_on_c, 0, 50, 55
5, 203820, Note_on_c, 0, 51, 55
5, 203820, Note_on_c, 0, 55, 55
5, 203880, Note_on_c, 0, 55, 0
5, 203880, Note_on_c, 0, 51, 0
5, 203880, Note_on_c, 0, 50, 0
5, 203880, Note_on_c, 0, 58, 55
5, 203940, Note_on_c, 0, 58, 0
5, 203940, Note_on_c, 0, 50, 55
5, 203940, Note_on_c, 0, 51, 55
5, 203940, Note_on_c, 0, 55, 55
5, 204000, Note_on_c, 0, 55, 0
5, 204000, Note_on_c, 0, 51, 0
5, 204000, Note_on_c, 0, 50, 0
5, 204000, Note_on_c, 0, 58, 55
5, 204060, Note_on_c, 0, 58, 0
5, 204060, Note_on_c, 0, 50, 55
5, 204060, Note_on_c, 0, 51, 55
5, 204060, Note_on_c, 0, 55, 55
5, 204120, Note_on_c, 0, 55, 0
5, 204120, Note_on_c, 0, 51, 0
5, 204120, Note_on_c, 0, 50, 0
5, 204120, Note_on_c, 0, 58, 55
5, 204180, Note_on_c, 0, 58, 0
5, 204180, Note_on_c, 0, 50, 55
5, 204180, Note_on_c, 0, 51, 55
5, 204180, Note_on_c, 0, 55, 55
5, 204240, Note_on_c, 0, 55, 0
5, 204240, Note_on_c, 0, 51, 0
5, 204240, Note_on_c, 0, 50, 0
5, 204240, Note_on_c, 0, 58, 55
5, 204300, Note_on_c, 0, 58, 0
5, 204300, Note_on_c, 0, 50, 55
5, 204300, Note_on_c, 0, 51, 55
5, 204300, Note_on_c, 0, 55, 55
5, 204360, Note_on_c, 0, 55, 0
5, 204360, Note_on_c, 0, 51, 0
5, 204360, Note_on_c, 0, 50, 0
5, 204360, Note_on_c, 0, 58, 55
5, 204420, Note_on_c, 0, 58, 0
5, 204420, Note_on_c, 0, 50, 55
5, 204420, Note_on_c, 0, 51, 55
5, 204420, Note_on_c, 0, 55, 55
5, 204480, Note_on_c, 0, 55, 0
5, 204480, Note_on_c, 0, 51, 0
5, 204480, Note_on_c, 0, 50, 0
5, 204480, Note_on_c, 0, 58, 55
5, 204540, Note_on_c, 0, 58, 0
5, 204540, Note_on_c, 0, 50, 55
5, 204540, Note_on_c, 0, 51, 55
5, 204540, Note_on_c, 0, 55, 55
5, 204600, Note_on_c, 0, 55, 0
5, 204600, Note_on_c, 0, 51, 0
5, 204600, Note_on_c, 0, 50, 0
5, 204600, Control_c, 0, 64, 0
5, 204600, Note_on_c, 0, 58, 55
5, 204660, Note_on_c, 0, 58, 0
5, 204660, Control_c, 0, 64, 127
5, 204660, Note_on_c, 0, 50, 55
5, 204660, Note_on_c, 0, 52, 55
5, 204660, Note_on_c, 0, 55, 55
5, 204720, Note_on_c, 0, 55, 0
5, 204720, Note_on_c, 0, 52, 0
5, 204720, Note_on_c, 0, 50, 0
5, 204720, Note_on_c, 0, 57, 55
5, 204780, Note_on_c, 0, 57, 0
5, 204780, Note_on_c, 0, 50, 55
5, 204780, Note_on_c, 0, 52, 55
5, 204780, Note_on_c, 0, 55, 55
5, 204840, Note_on_c, 0, 55, 0
5, 204840, Note_on_c, 0, 52, 0
5, 204840, Note_on_c, 0, 50, 0
5, 204840, Note_on_c, 0, 57, 55
5, 204900, Note_on_c, 0, 57, 0
5, 204900, Note_on_c, 0, 50, 55
5, 204900, Note_on_c, 0, 52, 55
5, 204900, Note_on_c, 0, 55, 55
5, 204960, Note_on_c, 0, 55, 0
5, 204960, Note_on_c, 0, 52, 0
5, 204960, Note_on_c, 0, 50, 0
5, 204960, Note_on_c, 0, 57, 55
5, 205020, Note_on_c, 0, 57, 0
5, 205020, Note_on_c, 0, 50, 55
5, 205020, Note_on_c, 0, 52, 55
5, 205020, Note_on_c, 0, 55, 55
5, 205080, Note_on_c, 0, 55, 0
5, 205080, Note_on_c, 0, 52, 0
5, 205080, Note_on_c, 0, 50, 0
5, 205080, Note_on_c, 0, 57, 55
5, 205140, Note_on_c, 0, 57, 0
5, 205140, Note_on_c, 0, 42, 81
5, 205140, Note_on_c, 0, 50, 81
5, 205140, Note_on_c, 0, 52, 81
5, 205140, Note_on_c, 0, 55, 81
5, 205200, Note_on_c, 0, 55, 0
5, 205200, Note_on_c, 0, 42, 0
5, 205200, Note_on_c, 0, 50, 0
5, 205200, Note_on_c, 0, 52, 0
5, 205200, Note_on_c, 0, 57, 55
5, 205260, Note_on_c, 0, 57, 0
5, 205260, Note_on_c, 0, 50, 55
5, 205260, Note_on_c, 0, 52, 55
5, 205260, Note_on_c, 0, 55, 55
5, 205320, Note_on_c, 0, 55, 0
5, 205320, Note_on_c, 0, 52, 0
5, 205320, Note_on_c, 0, 50, 0
5, 205320, Note_on_c, 0, 57, 55
5, 205380, Note_on_c, 0, 57, 0
5, 205380, Note_on_c, 0, 50, 55
5, 205380, Note_on_c, 0, 52, 55
5, 205380, Note_on_c, 0, 55, 55
5, 205440, Note_on_c, 0, 55, 0
5, 205440, Note_on_c, 0, 52, 0
5, 205440, Note_on_c, 0, 50, 0
5, 205440, Note_on_c, 0, 57, 55
5, 205500, Note_on_c, 0, 57, 0
5, 205500, Note_on_c, 0, 50, 55
5, 205500, Note_on_c, 0, 52, 55
5, 205500, Note_on_c, 0, 55, 55
5, 205560, Note_on_c, 0, 55, 0
5, 205560, Note_on_c, 0, 52, 0
5, 205560, Note_on_c, 0, 50, 0
5, 205560, Note_on_c, 0, 57, 55
5, 205620, Note_on_c, 0, 57, 0
5, 205620, Note_on_c, 0, 50, 55
5, 205620, Note_on_c, 0, 52, 55
5, 205620, Note_on_c, 0, 55, 55
5, 205680, Note_on_c, 0, 55, 0
5, 205680, Note_on_c, 0, 52, 0
5, 205680, Note_on_c, 0, 50, 0
5, 205680, Note_on_c, 0, 57, 55
5, 205740, Note_on_c, 0, 57, 0
5, 205740, Note_on_c, 0, 50, 55
5, 205740, Note_on_c, 0, 52, 55
5, 205740, Note_on_c, 0, 55, 55
5, 205800, Note_on_c, 0, 55, 0
5, 205800, Note_on_c, 0, 52, 0
5, 205800, Note_on_c, 0, 50, 0
5, 205800, Note_on_c, 0, 57, 55
5, 205860, Note_on_c, 0, 57, 0
5, 205860, Note_on_c, 0, 50, 55
5, 205860, Note_on_c, 0, 52, 55
5, 205860, Note_on_c, 0, 55, 55
5, 205920, Note_on_c, 0, 55, 0
5, 205920, Note_on_c, 0, 52, 0
5, 205920, Note_on_c, 0, 50, 0
5, 205920, Note_on_c, 0, 57, 55
5, 205980, Note_on_c, 0, 57, 0
5, 205980, Note_on_c, 0, 50, 55
5, 205980, Note_on_c, 0, 52, 55
5, 205980, Note_on_c, 0, 55, 55
5, 206040, Note_on_c, 0, 55, 0
5, 206040, Note_on_c, 0, 52, 0
5, 206040, Note_on_c, 0, 50, 0
5, 206040, Control_c, 0, 64, 0
5, 206040, Note_on_c, 0, 57, 55
5, 206100, Note_on_c, 0, 57, 0
5, 206100, Control_c, 0, 64, 127
5, 206100, Note_on_c, 0, 38, 81
5, 206100, Note_on_c, 0, 50, 81
5, 206100, Note_on_c, 0, 54, 81
5, 206160, Note_on_c, 0, 54, 0
5, 206160, Note_on_c, 0, 50, 0
5, 206160, Note_on_c, 0, 38, 0
5, 206160, Note_on_c, 0, 57, 55
5, 206220, Note_on_c, 0, 57, 0
5, 206220, Note_on_c, 0, 50, 55
5, 206220, Note_on_c, 0, 54, 55
5, 206280, Note_on_c, 0, 54, 0
5, 206280, Note_on_c, 0, 50, 0
5, 206280, Note_on_c, 0, 57, 55
5, 206340, Note_on_c, 0, 57, 0
5, 206340, Note_on_c, 0, 50, 55
5, 206340, Note_on_c, 0, 54, 55
5, 206400, Note_on_c, 0, 54, 0
5, 206400, Note_on_c, 0, 50, 0
5, 206400, Note_on_c, 0, 57, 55
5, 206460, Note_on_c, 0, 57, 0
5, 206460, Note_on_c, 0, 50, 55
5, 206460, Note_on_c, 0, 54, 55
5, 206520, Note_on_c, 0, 54, 0
5, 206520, Note_on_c, 0, 50, 0
5, 206520, Note_on_c, 0, 57, 55
5, 206580, Note_on_c, 0, 57, 0
5, 206580, Note_on_c, 0, 50, 55
5, 206580, Note_on_c, 0, 54, 55
5, 206640, Note_on_c, 0, 54, 0
5, 206640, Note_on_c, 0, 50, 0
5, 206640, Note_on_c, 0, 57, 55
5, 206700, Note_on_c, 0, 57, 0
5, 206700, Note_on_c, 0, 50, 55
5, 206700, Note_on_c, 0, 54, 55
5, 206760, Note_on_c, 0, 54, 0
5, 206760, Note_on_c, 0, 50, 0
5, 206760, Note_on_c, 0, 57, 55
5, 206820, Note_on_c, 0, 57, 0
5, 206820, Note_on_c, 0, 50, 55
5, 206820, Note_on_c, 0, 54, 55
5, 206880, Note_on_c, 0, 54, 0
5, 206880, Note_on_c, 0, 50, 0
5, 206880, Note_on_c, 0, 57, 55
5, 206940, Note_on_c, 0, 57, 0
5, 206940, Note_on_c, 0, 50, 55
5, 206940, Note_on_c, 0, 54, 55
5, 207000, Note_on_c, 0, 54, 0
5, 207000, Note_on_c, 0, 50, 0
5, 207000, Note_on_c, 0, 57, 55
5, 207060, Note_on_c, 0, 57, 0
5, 207060, Note_on_c, 0, 50, 55
5, 207060, Note_on_c, 0, 54, 55
5, 207120, Note_on_c, 0, 54, 0
5, 207120, Note_on_c, 0, 50, 0
5, 207120, Note_on_c, 0, 57, 55
5, 207180, Note_on_c, 0, 57, 0
5, 207180, Note_on_c, 0, 50, 55
5, 207180, Note_on_c, 0, 54, 55
5, 207240, Note_on_c, 0, 54, 0
5, 207240, Note_on_c, 0, 50, 0
5, 207240, Note_on_c, 0, 57, 55
5, 207300, Note_on_c, 0, 57, 0
5, 207300, Note_on_c, 0, 50, 55
5, 207300, Note_on_c, 0, 54, 55
5, 207360, Note_on_c, 0, 54, 0
5, 207360, Note_on_c, 0, 50, 0
5, 207360, Note_on_c, 0, 57, 55
5, 207420, Note_on_c, 0, 57, 0
5, 207420, Note_on_c, 0, 50, 55
5, 207420, Note_on_c, 0, 54, 55
5, 207480, Note_on_c, 0, 54, 0
5, 207480, Note_on_c, 0, 50, 0
5, 207480, Control_c, 0, 64, 0
5, 207480, Note_on_c, 0, 57, 55
5, 207540, Note_on_c, 0, 57, 0
5, 207540, Note_on_c, 0, 38, 81
5, 207540, Note_on_c, 0, 50, 81
5, 208440, Note_on_c, 0, 50, 0
5, 208440, Note_on_c, 0, 38, 0
5, 208440, Note_on_c, 0, 36, 68
5, 208440, Note_on_c, 0, 48, 68
5, 208500, Note_on_c, 0, 48, 0
5, 208500, Note_on_c, 0, 36, 0
5, 208500, Note_on_c, 0, 34, 68
5, 208500, Note_on_c, 0, 46, 68
5, 208920, Note_on_c, 0, 46, 0
5, 208920, Note_on_c, 0, 34, 0
5, 208920, Note_on_c, 0, 36, 68
5, 208920, Note_on_c, 0, 48, 68
5, 208980, Note_on_c, 0, 48, 0
5, 208980, Note_on_c, 0, 36, 0
5, 208980, Control_c, 0, 64, 127
5, 208980, Note_on_c, 0, 38, 55
5, 208980, Note_on_c, 0, 50, 55
5, 209100, Note_on_c, 0, 50, 0
5, 209100, Note_on_c, 0, 38, 0
5, 209100, Note_on_c, 0, 54, 55
5, 209100, Note_on_c, 0, 57, 55
5, 209160, Note_on_c, 0, 57, 0
5, 209160, Note_on_c, 0, 54, 0
5, 209160, Note_on_c, 0, 66, 55
5, 209220, Note_on_c, 0, 66, 0
5, 209220, Note_on_c, 0, 54, 55
5, 209220, Note_on_c, 0, 57, 55
5, 209280, Note_on_c, 0, 57, 0
5, 209280, Note_on_c, 0, 54, 0
5, 209280, Note_on_c, 0, 66, 55
5, 209340, Note_on_c, 0, 66, 0
5, 209340, Note_on_c, 0, 54, 55
5, 209340, Note_on_c, 0, 57, 55
5, 209400, Note_on_c, 0, 57, 0
5, 209400, Note_on_c, 0, 54, 0
5, 209400, Note_on_c, 0, 66, 55
5, 209460, Note_on_c, 0, 66, 0
5, 209460, Note_on_c, 0, 54, 55
5, 209460, Note_on_c, 0, 57, 55
5, 209520, Note_on_c, 0, 57, 0
5, 209520, Note_on_c, 0, 54, 0
5, 209520, Note_on_c, 0, 66, 55
5, 209580, Note_on_c, 0, 66, 0
5, 209580, Note_on_c, 0, 54, 55
5, 209580, Note_on_c, 0, 57, 55
5, 209640, Note_on_c, 0, 57, 0
5, 209640, Note_on_c, 0, 54, 0
5, 209640, Note_on_c, 0, 66, 55
5, 209700, Note_on_c, 0, 66, 0
5, 209700, Note_on_c, 0, 54, 55
5, 209700, Note_on_c, 0, 57, 55
5, 209760, Note_on_c, 0, 57, 0
5, 209760, Note_on_c, 0, 54, 0
5, 209760, Note_on_c, 0, 66, 55
5, 209820, Note_on_c, 0, 66, 0
5, 209820, Note_on_c, 0, 54, 55
5, 209820, Note_on_c, 0, 57, 55
5, 209880, Note_on_c, 0, 57, 0
5, 209880, Note_on_c, 0, 54, 0
5, 209880, Note_on_c, 0, 66, 55
5, 209940, Note_on_c, 0, 66, 0
5, 209940, Note_on_c, 0, 54, 55
5, 209940, Note_on_c, 0, 57, 55
5, 210000, Note_on_c, 0, 57, 0
5, 210000, Note_on_c, 0, 54, 0
5, 210000, Note_on_c, 0, 66, 55
5, 210060, Note_on_c, 0, 66, 0
5, 210060, Note_on_c, 0, 54, 55
5, 210060, Note_on_c, 0, 57, 55
5, 210120, Note_on_c, 0, 57, 0
5, 210120, Note_on_c, 0, 54, 0
5, 210120, Note_on_c, 0, 66, 55
5, 210180, Note_on_c, 0, 66, 0
5, 210180, Note_on_c, 0, 54, 55
5, 210180, Note_on_c, 0, 57, 55
5, 210240, Note_on_c, 0, 57, 0
5, 210240, Note_on_c, 0, 54, 0
5, 210240, Note_on_c, 0, 66, 55
5, 210300, Note_on_c, 0, 66, 0
5, 210300, Note_on_c, 0, 54, 55
5, 210300, Note_on_c, 0, 57, 55
5, 210360, Note_on_c, 0, 57, 0
5, 210360, Note_on_c, 0, 54, 0
5, 210360, Control_c, 0, 64, 0
5, 210360, Note_on_c, 0, 66, 55
5, 210420, Note_on_c, 0, 66, 0
5, 210420, Note_on_c, 0, 38, 81
5, 210420, Note_on_c, 0, 50, 81
5, 211320, Note_on_c, 0, 50, 0
5, 211320, Note_on_c, 0, 38, 0
5, 211320, Note_on_c, 0, 36, 68
5, 211320, Note_on_c, 0, 48, 68
5, 211380, Note_on_c, 0, 48, 0
5, 211380, Note_on_c, 0, 36, 0
5, 211380, Note_on_c, 0, 34, 68
5, 211380, Note_on_c, 0, 46, 68
5, 211800, Note_on_c, 0, 46, 0
5, 211800, Note_on_c, 0, 34, 0
5, 211800, Note_on_c, 0, 36, 68
5, 211800, Note_on_c, 0, 48, 68
5, 211860, Note_on_c, 0, 48, 0
5, 211860, Note_on_c, 0, 36, 0
5, 211860, Control_c, 0, 64, 127
5, 211860, Note_on_c, 0, 38, 55
5, 211860, Note_on_c, 0, 50, 55
5, 211980, Note_on_c, 0, 50, 0
5, 211980, Note_on_c, 0, 38, 0
5, 211980, Note_on_c, 0, 54, 55
5, 211980, Note_on_c, 0, 57, 55
5, 212040, Note_on_c, 0, 57, 0
5, 212040, Note_on_c, 0, 54, 0
5, 212040, Note_on_c, 0, 66, 55
5, 212100, Note_on_c, 0, 66, 0
5, 212100, Note_on_c, 0, 54, 55
5, 212100, Note_on_c, 0, 57, 55
5, 212160, Note_on_c, 0, 57, 0
5, 212160, Note_on_c, 0, 54, 0
5, 212160, Note_on_c, 0, 66, 55
5, 212220, Note_on_c, 0, 66, 0
5, 212220, Note_on_c, 0, 54, 55
5, 212220, Note_on_c, 0, 57, 55
5, 212280, Note_on_c, 0, 57, 0
5, 212280, Note_on_c, 0, 54, 0
5, 212280, Note_on_c, 0, 66, 55
5, 212340, Note_on_c, 0, 66, 0
5, 212340, Note_on_c, 0, 54, 55
5, 212340, Note_on_c, 0, 57, 55
5, 212400, Note_on_c, 0, 57, 0
5, 212400, Note_on_c, 0, 54, 0
5, 212400, Note_on_c, 0, 66, 55
5, 212460, Note_on_c, 0, 66, 0
5, 212460, Note_on_c, 0, 54, 55
5, 212460, Note_on_c, 0, 57, 55
5, 212520, Note_on_c, 0, 57, 0
5, 212520, Note_on_c, 0, 54, 0
5, 212520, Note_on_c, 0, 66, 55
5, 212580, Note_on_c, 0, 66, 0
5, 212580, Note_on_c, 0, 54, 55
5, 212580, Note_on_c, 0, 57, 55
5, 212640, Note_on_c, 0, 57, 0
5, 212640, Note_on_c, 0, 54, 0
5, 212640, Note_on_c, 0, 66, 55
5, 212700, Note_on_c, 0, 66, 0
5, 212700, Note_on_c, 0, 54, 55
5, 212700, Note_on_c, 0, 57, 55
5, 212760, Note_on_c, 0, 57, 0
5, 212760, Note_on_c, 0, 54, 0
5, 212760, Note_on_c, 0, 66, 55
5, 212820, Note_on_c, 0, 66, 0
5, 212820, Note_on_c, 0, 54, 55
5, 212820, Note_on_c, 0, 57, 55
5, 212880, Note_on_c, 0, 57, 0
5, 212880, Note_on_c, 0, 54, 0
5, 212880, Note_on_c, 0, 66, 55
5, 212940, Note_on_c, 0, 66, 0
5, 212940, Note_on_c, 0, 54, 55
5, 212940, Note_on_c, 0, 57, 55
5, 213000, Note_on_c, 0, 57, 0
5, 213000, Note_on_c, 0, 54, 0
5, 213000, Note_on_c, 0, 66, 55
5, 213060, Note_on_c, 0, 66, 0
5, 213060, Note_on_c, 0, 54, 55
5, 213060, Note_on_c, 0, 57, 55
5, 213120, Note_on_c, 0, 57, 0
5, 213120, Note_on_c, 0, 54, 0
5, 213120, Note_on_c, 0, 66, 55
5, 213180, Note_on_c, 0, 66, 0
5, 213180, Note_on_c, 0, 54, 55
5, 213180, Note_on_c, 0, 57, 55
5, 213240, Note_on_c, 0, 57, 0
5, 213240, Note_on_c, 0, 54, 0
5, 213240, Control_c, 0, 64, 0
5, 213240, Note_on_c, 0, 66, 55
5, 213300, Note_on_c, 0, 66, 0
5, 213300, Note_on_c, 0, 38, 81
5, 213300, Note_on_c, 0, 50, 81
5, 214200, Note_on_c, 0, 50, 0
5, 214200, Note_on_c, 0, 38, 0
5, 214200, Note_on_c, 0, 36, 68
5, 214200, Note_on_c, 0, 48, 68
5, 214260, Note_on_c, 0, 48, 0
5, 214260, Note_on_c, 0, 36, 0
5, 214260, Note_on_c, 0, 34, 68
5, 214260, Note_on_c, 0, 46, 68
5, 214680, Note_on_c, 0, 46, 0
5, 214680, Note_on_c, 0, 34, 0
5, 214680, Note_on_c, 0, 36, 68
5, 214680, Note_on_c, 0, 48, 68
5, 214740, Note_on_c, 0, 48, 0
5, 214740, Note_on_c, 0, 36, 0
5, 214740, Control_c, 0, 64, 127
5, 214740, Note_on_c, 0, 38, 55
5, 214740, Note_on_c, 0, 50, 55
5, 214860, Note_on_c, 0, 50, 0
5, 214860, Note_on_c, 0, 38, 0
5, 214860, Note_on_c, 0, 54, 55
5, 214860, Note_on_c, 0, 57, 55
5, 214920, Note_on_c, 0, 57, 0
5, 214920, Note_on_c, 0, 54, 0
5, 214920, Note_on_c, 0, 66, 55
5, 214980, Note_on_c, 0, 66, 0
5, 214980, Note_on_c, 0, 54, 55
5, 214980, Note_on_c, 0, 57, 55
5, 215040, Note_on_c, 0, 57, 0
5, 215040, Note_on_c, 0, 54, 0
5, 215040, Note_on_c, 0, 66, 55
5, 215100, Note_on_c, 0, 66, 0
5, 215100, Note_on_c, 0, 54, 55
5, 215100, Note_on_c, 0, 57, 55
5, 215160, Note_on_c, 0, 57, 0
5, 215160, Note_on_c, 0, 54, 0
5, 215160, Note_on_c, 0, 66, 55
5, 215220, Note_on_c, 0, 66, 0
5, 215220, Note_on_c, 0, 54, 55
5, 215220, Note_on_c, 0, 57, 55
5, 215280, Note_on_c, 0, 57, 0
5, 215280, Note_on_c, 0, 54, 0
5, 215280, Note_on_c, 0, 66, 55
5, 215340, Note_on_c, 0, 66, 0
5, 215340, Note_on_c, 0, 54, 55
5, 215340, Note_on_c, 0, 57, 55
5, 215400, Note_on_c, 0, 57, 0
5, 215400, Note_on_c, 0, 54, 0
5, 215400, Note_on_c, 0, 66, 55
5, 215460, Note_on_c, 0, 66, 0
5, 215460, Note_on_c, 0, 54, 55
5, 215460, Note_on_c, 0, 57, 55
5, 215520, Note_on_c, 0, 57, 0
5, 215520, Note_on_c, 0, 54, 0
5, 215520, Note_on_c, 0, 66, 55
5, 215580, Note_on_c, 0, 66, 0
5, 215580, Note_on_c, 0, 54, 55
5, 215580, Note_on_c, 0, 57, 55
5, 215640, Note_on_c, 0, 57, 0
5, 215640, Note_on_c, 0, 54, 0
5, 215640, Note_on_c, 0, 66, 55
5, 215700, Note_on_c, 0, 66, 0
5, 215700, Note_on_c, 0, 54, 55
5, 215700, Note_on_c, 0, 57, 55
5, 215760, Note_on_c, 0, 57, 0
5, 215760, Note_on_c, 0, 54, 0
5, 215760, Note_on_c, 0, 66, 55
5, 215820, Note_on_c, 0, 66, 0
5, 215820, Note_on_c, 0, 54, 55
5, 215820, Note_on_c, 0, 57, 55
5, 215880, Note_on_c, 0, 57, 0
5, 215880, Note_on_c, 0, 54, 0
5, 215880, Note_on_c, 0, 66, 55
5, 215940, Note_on_c, 0, 66, 0
5, 215940, Note_on_c, 0, 54, 55
5, 215940, Note_on_c, 0, 57, 55
5, 216000, Note_on_c, 0, 57, 0
5, 216000, Note_on_c, 0, 54, 0
5, 216000, Note_on_c, 0, 66, 55
5, 216060, Note_on_c, 0, 66, 0
5, 216060, Note_on_c, 0, 54, 55
5, 216060, Note_on_c, 0, 57, 55
5, 216120, Note_on_c, 0, 57, 0
5, 216120, Note_on_c, 0, 54, 0
5, 216120, Control_c, 0, 64, 0
5, 216120, Note_on_c, 0, 66, 55
5, 216180, Note_on_c, 0, 66, 0
5, 216180, Control_c, 0, 64, 127
5, 216180, Note_on_c, 0, 38, 55
5, 216180, Note_on_c, 0, 50, 55
5, 216300, Note_on_c, 0, 50, 0
5, 216300, Note_on_c, 0, 38, 0
5, 216300, Note_on_c, 0, 54, 55
5, 216300, Note_on_c, 0, 57, 55
5, 216360, Note_on_c, 0, 57, 0
5, 216360, Note_on_c, 0, 54, 0
5, 216360, Note_on_c, 0, 66, 55
5, 216420, Note_on_c, 0, 66, 0
5, 216420, Note_on_c, 0, 54, 55
5, 216420, Note_on_c, 0, 57, 55
5, 216480, Note_on_c, 0, 57, 0
5, 216480, Note_on_c, 0, 54, 0
5, 216480, Note_on_c, 0, 66, 55
5, 216540, Note_on_c, 0, 66, 0
5, 216540, Note_on_c, 0, 54, 55
5, 216540, Note_on_c, 0, 57, 55
5, 216600, Note_on_c, 0, 57, 0
5, 216600, Note_on_c, 0, 54, 0
5, 216600, Note_on_c, 0, 66, 55
5, 216660, Note_on_c, 0, 66, 0
5, 216660, Note_on_c, 0, 54, 55
5, 216660, Note_on_c, 0, 57, 55
5, 216720, Note_on_c, 0, 57, 0
5, 216720, Note_on_c, 0, 54, 0
5, 216720, Note_on_c, 0, 66, 55
5, 216780, Note_on_c, 0, 66, 0
5, 216780, Note_on_c, 0, 54, 55
5, 216780, Note_on_c, 0, 57, 55
5, 216840, Note_on_c, 0, 57, 0
5, 216840, Note_on_c, 0, 54, 0
5, 216840, Note_on_c, 0, 66, 55
5, 216900, Note_on_c, 0, 66, 0
5, 216900, Note_on_c, 0, 54, 55
5, 216900, Note_on_c, 0, 57, 55
5, 216960, Note_on_c, 0, 57, 0
5, 216960, Note_on_c, 0, 54, 0
5, 216960, Note_on_c, 0, 66, 55
5, 217020, Note_on_c, 0, 66, 0
5, 217020, Note_on_c, 0, 54, 55
5, 217020, Note_on_c, 0, 57, 55
5, 217080, Note_on_c, 0, 57, 0
5, 217080, Note_on_c, 0, 54, 0
5, 217080, Note_on_c, 0, 66, 55
5, 217140, Note_on_c, 0, 66, 0
5, 217140, Note_on_c, 0, 54, 55
5, 217140, Note_on_c, 0, 57, 55
5, 217200, Note_on_c, 0, 57, 0
5, 217200, Note_on_c, 0, 54, 0
5, 217200, Note_on_c, 0, 66, 55
5, 217260, Note_on_c, 0, 66, 0
5, 217260, Note_on_c, 0, 54, 55
5, 217260, Note_on_c, 0, 57, 55
5, 217320, Note_on_c, 0, 57, 0
5, 217320, Note_on_c, 0, 54, 0
5, 217320, Note_on_c, 0, 66, 55
5, 217380, Note_on_c, 0, 66, 0
5, 217380, Note_on_c, 0, 54, 55
5, 217380, Note_on_c, 0, 57, 55
5, 217440, Note_on_c, 0, 57, 0
5, 217440, Note_on_c, 0, 54, 0
5, 217440, Note_on_c, 0, 66, 55
5, 217500, Note_on_c, 0, 66, 0
5, 217500, Note_on_c, 0, 54, 55
5, 217500, Note_on_c, 0, 57, 55
5, 217560, Note_on_c, 0, 57, 0
5, 217560, Note_on_c, 0, 54, 0
5, 217560, Control_c, 0, 64, 0
5, 217560, Note_on_c, 0, 66, 55
5, 217620, Note_on_c, 0, 66, 0
5, 217620, Note_on_c, 0, 38, 55
5, 217620, Note_on_c, 0, 45, 55
5, 217620, Note_on_c, 0, 50, 55
5, 220500, Note_on_c, 0, 50, 0
5, 220500, Note_on_c, 0, 45, 0
5, 220500, Note_on_c, 0, 38, 0
5, 220500, Note_on_c, 0, 38, 55
5, 220500, Note_on_c, 0, 45, 55
5, 220500, Note_on_c, 0, 50, 55
5, 223380, Note_on_c, 0, 50, 0
5, 223380, Note_on_c, 0, 45, 0
5, 223380, Note_on_c, 0, 38, 0
5, 223380, Note_on_c, 0, 38, 55
5, 223380, Note_on_c, 0, 45, 55
5, 223380, Note_on_c, 0, 50, 55
5, 226740, Note_on_c, 0, 50, 0
5, 226740, Note_on_c, 0, 45, 0
5, 226740, Note_on_c, 0, 38, 0
5, 226740, End_track
0, 0, End_of_file
