0, 0, Header, 0, 1, 384
1, 0, Start_track
1, 0, Copyright_t, "Adaptation for Disklavier pianos, by: Robert C. Kuhmann (c) 2012."
1, 0, Time_signature, 4, 2, 24, 8
1, 0, Key_signature, 0, "major"
1, 0, Tempo, 512821
1, 0, Program_c, 0, 0
1, 0, Control_c, 0, 7, 114
1, 0, Note_on_c, 0, 43, 35
1, 284, Control_c, 0, 64, 127
1, 376, Note_on_c, 0, 43, 0
1, 387, Note_on_c, 0, 50, 51
1, 512, Note_on_c, 0, 50, 0
1, 804, Note_on_c, 0, 62, 34
1, 819, Note_on_c, 0, 58, 16
1, 819, Note_on_c, 0, 55, 25
1, 994, Note_on_c, 0, 55, 0
1, 1010, Note_on_c, 0, 62, 0
1, 1167, Note_on_c, 0, 58, 0
1, 1743, Note_on_c, 0, 43, 29
1, 1760, Control_c, 0, 64, 0
1, 1914, Control_c, 0, 64, 127
1, 1925, Note_on_c, 0, 43, 0
1, 2133, Note_on_c, 0, 50, 38
1, 2367, Note_on_c, 0, 50, 0
1, 2599, Note_on_c, 0, 62, 32
1, 2609, Note_on_c, 0, 58, 16
1, 2615, Note_on_c, 0, 55, 37
1, 2777, Note_on_c, 0, 62, 0
1, 2966, Note_on_c, 0, 62, 64
1, 3094, Note_on_c, 0, 58, 0
1, 3123, Note_on_c, 0, 55, 0
1, 3219, Note_on_c, 0, 62, 0
1, 3219, Note_on_c, 0, 64, 67
1, 3420, Note_on_c, 0, 66, 68
1, 3449, Note_on_c, 0, 64, 0
1, 3605, Note_on_c, 0, 67, 78
1, 3616, Control_c, 0, 64, 0
1, 3632, Note_on_c, 0, 43, 32
1, 3635, Note_on_c, 0, 66, 0
1, 3768, Note_on_c, 0, 43, 0
1, 3772, Control_c, 0, 64, 127
1, 3786, Note_on_c, 0, 69, 71
1, 3850, Note_on_c, 0, 67, 0
1, 3967, Note_on_c, 0, 70, 80
1, 3978, Note_on_c, 0, 50, 41
1, 4016, Note_on_c, 0, 69, 0
1, 4150, Note_on_c, 0, 72, 90
1, 4181, Note_on_c, 0, 70, 0
1, 4325, Control_c, 0, 64, 0
1, 4339, Note_on_c, 0, 74, 92
1, 4353, Note_on_c, 0, 58, 33
1, 4356, Note_on_c, 0, 62, 41
1, 4371, Note_on_c, 0, 55, 32
1, 4378, Note_on_c, 0, 72, 0
1, 4471, Note_on_c, 0, 62, 0
1, 4492, Note_on_c, 0, 55, 0
1, 4492, Control_c, 0, 64, 127
1, 4512, Note_on_c, 0, 58, 0
1, 4520, Note_on_c, 0, 50, 0
1, 4537, Note_on_c, 0, 79, 93
1, 4555, Note_on_c, 0, 74, 0
1, 4729, Note_on_c, 0, 78, 73
1, 4738, Note_on_c, 0, 45, 40
1, 4768, Control_c, 0, 64, 0
1, 4782, Note_on_c, 0, 79, 0
1, 4921, Note_on_c, 0, 79, 62
1, 4964, Note_on_c, 0, 78, 0
1, 4970, Control_c, 0, 64, 127
1, 5128, Note_on_c, 0, 45, 0
1, 5139, Control_c, 0, 64, 0
1, 5162, Note_on_c, 0, 74, 54
1, 5187, Note_on_c, 0, 46, 28
1, 5197, Note_on_c, 0, 79, 0
1, 5362, Note_on_c, 0, 46, 0
1, 5390, Control_c, 0, 64, 127
1, 5587, Note_on_c, 0, 55, 32
1, 5875, Note_on_c, 0, 55, 0
1, 5902, Note_on_c, 0, 74, 0
1, 6019, Note_on_c, 0, 67, 19
1, 6028, Note_on_c, 0, 62, 29
1, 6140, Note_on_c, 0, 62, 0
1, 6147, Note_on_c, 0, 67, 0
1, 6300, Note_on_c, 0, 74, 64
1, 6401, Note_on_c, 0, 74, 0
1, 6437, Note_on_c, 0, 63, 45
1, 6530, Note_on_c, 0, 67, 30
1, 6543, Note_on_c, 0, 48, 35
1, 6552, Control_c, 0, 64, 0
1, 6555, Note_on_c, 0, 69, 64
1, 6602, Note_on_c, 0, 67, 0
1, 6708, Control_c, 0, 64, 127
1, 6766, Note_on_c, 0, 72, 72
1, 6783, Note_on_c, 0, 48, 0
1, 6817, Note_on_c, 0, 63, 0
1, 6827, Note_on_c, 0, 69, 0
1, 6947, Control_c, 0, 64, 0
1, 6978, Note_on_c, 0, 50, 34
1, 6978, Note_on_c, 0, 70, 55
1, 6989, Note_on_c, 0, 72, 0
1, 7000, Note_on_c, 0, 62, 41
1, 7008, Note_on_c, 0, 67, 39
1, 7101, Note_on_c, 0, 50, 0
1, 7115, Control_c, 0, 64, 127
1, 7187, Note_on_c, 0, 63, 66
1, 7209, Note_on_c, 0, 62, 0
1, 7367, Note_on_c, 0, 63, 0
1, 7402, Note_on_c, 0, 61, 58
1, 7442, Note_on_c, 0, 58, 20
1, 7460, Note_on_c, 0, 55, 22
1, 7487, Control_c, 0, 64, 0
1, 7618, Note_on_c, 0, 63, 51
1, 7630, Control_c, 0, 64, 127
1, 7651, Note_on_c, 0, 61, 0
1, 7668, Note_on_c, 0, 58, 0
1, 7668, Note_on_c, 0, 67, 0
1, 7719, Note_on_c, 0, 55, 0
1, 7853, Note_on_c, 0, 63, 0
1, 7920, Note_on_c, 0, 62, 35
1, 7939, Note_on_c, 0, 58, 16
1, 7939, Control_c, 0, 64, 0
1, 7973, Note_on_c, 0, 55, 23
1, 8075, Note_on_c, 0, 70, 0
1, 8086, Control_c, 0, 64, 127
1, 8123, Note_on_c, 0, 62, 0
1, 8165, Note_on_c, 0, 58, 0
1, 8179, Note_on_c, 0, 55, 0
1, 8214, Note_on_c, 0, 70, 56
1, 8426, Note_on_c, 0, 70, 0
1, 8441, Note_on_c, 0, 60, 35
1, 8479, Note_on_c, 0, 66, 39
1, 8501, Note_on_c, 0, 50, 26
1, 8518, Control_c, 0, 64, 0
1, 8693, Note_on_c, 0, 69, 36
1, 8697, Control_c, 0, 64, 127
1, 8743, Note_on_c, 0, 60, 0
1, 8780, Note_on_c, 0, 66, 0
1, 8920, Note_on_c, 0, 58, 26
1, 8925, Note_on_c, 0, 50, 0
1, 8944, Note_on_c, 0, 67, 41
1, 8959, Note_on_c, 0, 43, 30
1, 8973, Control_c, 0, 64, 0
1, 9034, Note_on_c, 0, 69, 0
1, 9156, Note_on_c, 0, 51, 45
1, 9390, Note_on_c, 0, 49, 38
1, 9407, Note_on_c, 0, 51, 0
1, 9669, Note_on_c, 0, 51, 27
1, 9675, Note_on_c, 0, 49, 0
1, 9980, Control_c, 0, 64, 127
1, 10028, Note_on_c, 0, 67, 0
1, 10028, Note_on_c, 0, 50, 27
1, 10042, Note_on_c, 0, 51, 0
1, 10123, Control_c, 0, 64, 0
1, 10223, Note_on_c, 0, 58, 0
1, 10282, Note_on_c, 0, 62, 51
1, 10376, Control_c, 0, 64, 127
1, 10487, Note_on_c, 0, 43, 0
1, 10560, Note_on_c, 0, 64, 61
1, 10568, Note_on_c, 0, 60, 24
1, 10611, Note_on_c, 0, 62, 0
1, 10627, Control_c, 0, 64, 0
1, 10724, Control_c, 0, 64, 127
1, 10781, Note_on_c, 0, 66, 63
1, 10820, Note_on_c, 0, 64, 0
1, 10939, Note_on_c, 0, 50, 0
1, 10972, Note_on_c, 0, 60, 0
1, 10995, Note_on_c, 0, 58, 25
1, 10998, Control_c, 0, 64, 0
1, 10998, Note_on_c, 0, 67, 73
1, 10998, Note_on_c, 0, 43, 25
1, 11002, Note_on_c, 0, 66, 0
1, 11075, Note_on_c, 0, 58, 0
1, 11100, Note_on_c, 0, 43, 0
1, 11106, Control_c, 0, 64, 127
1, 11125, Note_on_c, 0, 67, 0
1, 11214, Note_on_c, 0, 69, 67
1, 11407, Note_on_c, 0, 70, 80
1, 11430, Note_on_c, 0, 69, 0
1, 11465, Note_on_c, 0, 50, 26
1, 11594, Note_on_c, 0, 72, 85
1, 11611, Note_on_c, 0, 70, 0
1, 11772, Note_on_c, 0, 50, 0
1, 11806, Note_on_c, 0, 74, 85
1, 11814, Note_on_c, 0, 58, 25
1, 11819, Note_on_c, 0, 55, 26
1, 11819, Note_on_c, 0, 62, 33
1, 11827, Control_c, 0, 64, 0
1, 11841, Note_on_c, 0, 72, 0
1, 11945, Note_on_c, 0, 55, 0
1, 11975, Note_on_c, 0, 62, 0
1, 11981, Control_c, 0, 64, 127
1, 11992, Note_on_c, 0, 58, 0
1, 12019, Note_on_c, 0, 74, 0
1, 12031, Note_on_c, 0, 79, 88
1, 12122, Note_on_c, 0, 79, 0
1, 12179, Note_on_c, 0, 65, 29
1, 12243, Note_on_c, 0, 72, 34
1, 12277, Note_on_c, 0, 75, 44
1, 12316, Note_on_c, 0, 45, 22
1, 12343, Note_on_c, 0, 77, 67
1, 12365, Control_c, 0, 64, 0
1, 12471, Note_on_c, 0, 65, 0
1, 12508, Control_c, 0, 64, 127
1, 12521, Note_on_c, 0, 77, 0
1, 12557, Note_on_c, 0, 45, 0
1, 12604, Note_on_c, 0, 79, 74
1, 12628, Note_on_c, 0, 72, 0
1, 12650, Note_on_c, 0, 79, 0
1, 12650, Note_on_c, 0, 75, 0
1, 12795, Note_on_c, 0, 65, 40
1, 12836, Note_on_c, 0, 46, 21
1, 12842, Note_on_c, 0, 70, 34
1, 12901, Note_on_c, 0, 74, 62
1, 12916, Control_c, 0, 64, 0
1, 13160, Note_on_c, 0, 46, 0
1, 13179, Note_on_c, 0, 65, 0
1, 13192, Control_c, 0, 64, 127
1, 13371, Note_on_c, 0, 53, 62
1, 13603, Note_on_c, 0, 70, 0
1, 13607, Note_on_c, 0, 53, 0
1, 13794, Note_on_c, 0, 65, 49
1, 13808, Note_on_c, 0, 58, 29
1, 13825, Note_on_c, 0, 62, 35
1, 13839, Control_c, 0, 64, 0
1, 13953, Note_on_c, 0, 65, 0
1, 13959, Control_c, 0, 64, 127
1, 13962, Note_on_c, 0, 62, 0
1, 14023, Note_on_c, 0, 58, 0
1, 14037, Note_on_c, 0, 74, 0
1, 14043, Note_on_c, 0, 77, 86
1, 14123, Note_on_c, 0, 77, 0
1, 14196, Note_on_c, 0, 63, 51
1, 14270, Note_on_c, 0, 70, 25
1, 14299, Note_on_c, 0, 74, 62
1, 14327, Note_on_c, 0, 43, 36
1, 14338, Note_on_c, 0, 75, 78
1, 14341, Note_on_c, 0, 74, 0
1, 14366, Note_on_c, 0, 70, 0
1, 14427, Control_c, 0, 64, 0
1, 14494, Note_on_c, 0, 63, 0
1, 14522, Note_on_c, 0, 75, 0
1, 14522, Control_c, 0, 64, 127
1, 14566, Note_on_c, 0, 77, 79
1, 14597, Note_on_c, 0, 77, 0
1, 14671, Note_on_c, 0, 43, 0
1, 14694, Note_on_c, 0, 63, 56
1, 14769, Note_on_c, 0, 69, 33
1, 14797, Note_on_c, 0, 45, 37
1, 14809, Note_on_c, 0, 72, 69
1, 14822, Control_c, 0, 64, 0
1, 14958, Note_on_c, 0, 63, 0
1, 14987, Note_on_c, 0, 45, 0
1, 15001, Control_c, 0, 64, 127
1, 15089, Note_on_c, 0, 69, 0
1, 15202, Note_on_c, 0, 57, 31
1, 15490, Note_on_c, 0, 57, 0
1, 15599, Note_on_c, 0, 72, 0
1, 15625, Note_on_c, 0, 67, 39
1, 15641, Note_on_c, 0, 63, 35
1, 15653, Note_on_c, 0, 60, 27
1, 15749, Note_on_c, 0, 67, 0
1, 15789, Note_on_c, 0, 63, 0
1, 15800, Note_on_c, 0, 60, 0
1, 15890, Note_on_c, 0, 75, 60
1, 15954, Note_on_c, 0, 75, 0
1, 16071, Note_on_c, 0, 62, 31
1, 16132, Note_on_c, 0, 62, 0
1, 16138, Note_on_c, 0, 69, 16
1, 16184, Note_on_c, 0, 72, 45
1, 16199, Control_c, 0, 64, 0
1, 16227, Note_on_c, 0, 42, 28
1, 16246, Note_on_c, 0, 62, 7
1, 16246, Note_on_c, 0, 74, 54
1, 16355, Note_on_c, 0, 62, 0
1, 16355, Control_c, 0, 64, 127
1, 16372, Note_on_c, 0, 74, 0
1, 16429, Note_on_c, 0, 69, 0
1, 16455, Note_on_c, 0, 42, 0
1, 16474, Note_on_c, 0, 75, 59
1, 16530, Note_on_c, 0, 72, 0
1, 16547, Note_on_c, 0, 75, 0
1, 16613, Note_on_c, 0, 62, 41
1, 16667, Note_on_c, 0, 67, 35
1, 16703, Control_c, 0, 64, 0
1, 16706, Note_on_c, 0, 70, 43
1, 16709, Note_on_c, 0, 43, 27
1, 16908, Control_c, 0, 64, 127
1, 16922, Note_on_c, 0, 43, 0
1, 16936, Note_on_c, 0, 62, 0
1, 17082, Note_on_c, 0, 67, 0
1, 17134, Note_on_c, 0, 50, 33
1, 17202, Note_on_c, 0, 50, 0
1, 17596, Note_on_c, 0, 58, 18
1, 17602, Note_on_c, 0, 62, 23
1, 17605, Note_on_c, 0, 55, 22
1, 17675, Control_c, 0, 64, 0
1, 17781, Control_c, 0, 64, 127
1, 17785, Note_on_c, 0, 70, 0
1, 17908, Note_on_c, 0, 55, 0
1, 17908, Note_on_c, 0, 74, 55
1, 17926, Note_on_c, 0, 62, 0
1, 17941, Note_on_c, 0, 58, 0
1, 18085, Note_on_c, 0, 63, 34
1, 18157, Note_on_c, 0, 69, 22
1, 18190, Note_on_c, 0, 74, 0
1, 18199, Note_on_c, 0, 72, 65
1, 18209, Note_on_c, 0, 48, 32
1, 18213, Control_c, 0, 64, 0
1, 18343, Note_on_c, 0, 69, 0
1, 18346, Control_c, 0, 64, 127
1, 18441, Note_on_c, 0, 74, 83
1, 18471, Note_on_c, 0, 63, 0
1, 18489, Note_on_c, 0, 72, 0
1, 18499, Note_on_c, 0, 74, 0
1, 18574, Note_on_c, 0, 62, 42
1, 18600, Note_on_c, 0, 48, 0
1, 18619, Note_on_c, 0, 67, 45
1, 18645, Note_on_c, 0, 72, 73
1, 18656, Control_c, 0, 64, 0
1, 18672, Note_on_c, 0, 50, 34
1, 18801, Control_c, 0, 64, 127
1, 18828, Note_on_c, 0, 62, 0
1, 18837, Note_on_c, 0, 72, 0
1, 18848, Note_on_c, 0, 70, 70
1, 18854, Note_on_c, 0, 67, 0
1, 18887, Note_on_c, 0, 70, 0
1, 19060, Note_on_c, 0, 69, 57
1, 19065, Note_on_c, 0, 58, 36
1, 19079, Note_on_c, 0, 62, 59
1, 19101, Control_c, 0, 64, 0
1, 19244, Control_c, 0, 64, 127
1, 19257, Note_on_c, 0, 58, 0
1, 19280, Note_on_c, 0, 69, 0
1, 19280, Note_on_c, 0, 67, 60
1, 19293, Note_on_c, 0, 62, 0
1, 19563, Note_on_c, 0, 70, 49
1, 19567, Note_on_c, 0, 61, 33
1, 19567, Control_c, 0, 64, 0
1, 19591, Note_on_c, 0, 64, 31
1, 19610, Note_on_c, 0, 67, 0
1, 19879, Control_c, 0, 64, 127
1, 20038, Note_on_c, 0, 61, 0
1, 20135, Note_on_c, 0, 64, 0
1, 20143, Control_c, 0, 64, 0
1, 20151, Note_on_c, 0, 63, 23
1, 20160, Note_on_c, 0, 66, 20
1, 20166, Note_on_c, 0, 60, 24
1, 20322, Control_c, 0, 64, 127
1, 20396, Note_on_c, 0, 70, 0
1, 20458, Note_on_c, 0, 69, 31
1, 20602, Note_on_c, 0, 50, 0
1, 20605, Note_on_c, 0, 66, 0
1, 20731, Note_on_c, 0, 62, 26
1, 20731, Note_on_c, 0, 67, 27
1, 20742, Control_c, 0, 64, 0
1, 20742, Note_on_c, 0, 55, 27
1, 20751, Note_on_c, 0, 63, 0
1, 20769, Note_on_c, 0, 69, 0
1, 20953, Note_on_c, 0, 55, 0
1, 20957, Note_on_c, 0, 60, 0
1, 20971, Note_on_c, 0, 58, 27
1, 20982, Control_c, 0, 64, 127
1, 21205, Note_on_c, 0, 58, 0
1, 21223, Note_on_c, 0, 55, 25
1, 21442, Note_on_c, 0, 55, 0
1, 21528, Note_on_c, 0, 50, 30
1, 21751, Note_on_c, 0, 62, 0
1, 21759, Note_on_c, 0, 50, 0
1, 21873, Note_on_c, 0, 43, 27
1, 21945, Note_on_c, 0, 67, 0
1, 21987, Note_on_c, 0, 43, 0
1, 22386, Note_on_c, 0, 67, 43
1, 22673, Note_on_c, 0, 69, 53
1, 22731, Note_on_c, 0, 67, 0
1, 22769, Control_c, 0, 64, 0
1, 22886, Note_on_c, 0, 70, 61
1, 22935, Note_on_c, 0, 69, 0
1, 23007, Control_c, 0, 64, 127
1, 23096, Note_on_c, 0, 72, 73
1, 23121, Note_on_c, 0, 70, 0
1, 23143, Note_on_c, 0, 51, 30
1, 23151, Control_c, 0, 64, 0
1, 23302, Note_on_c, 0, 74, 85
1, 23307, Control_c, 0, 64, 127
1, 23357, Note_on_c, 0, 72, 0
1, 23374, Note_on_c, 0, 51, 0
1, 23492, Note_on_c, 0, 75, 82
1, 23520, Note_on_c, 0, 65, 37
1, 23530, Note_on_c, 0, 74, 0
1, 23683, Note_on_c, 0, 77, 90
1, 23726, Note_on_c, 0, 75, 0
1, 23863, Note_on_c, 0, 79, 83
1, 23895, Note_on_c, 0, 60, 27
1, 23906, Note_on_c, 0, 57, 32
1, 23917, Note_on_c, 0, 53, 24
1, 23924, Note_on_c, 0, 77, 0
1, 23943, Control_c, 0, 64, 0
1, 24054, Note_on_c, 0, 81, 68
1, 24109, Note_on_c, 0, 79, 0
1, 24109, Control_c, 0, 64, 127
1, 24266, Control_c, 0, 64, 0
1, 24283, Note_on_c, 0, 82, 60
1, 24302, Note_on_c, 0, 81, 0
1, 24433, Control_c, 0, 64, 127
1, 24441, Note_on_c, 0, 57, 0
1, 24449, Note_on_c, 0, 65, 0
1, 24456, Note_on_c, 0, 60, 0
1, 24488, Note_on_c, 0, 53, 0
1, 24527, Note_on_c, 0, 84, 69
1, 24541, Note_on_c, 0, 82, 0
1, 24817, Control_c, 0, 64, 0
1, 24817, Note_on_c, 0, 77, 50
1, 24846, Note_on_c, 0, 50, 32
1, 24865, Note_on_c, 0, 84, 0
1, 25069, Control_c, 0, 64, 127
1, 25077, Note_on_c, 0, 50, 0
1, 25240, Note_on_c, 0, 65, 25
1, 25311, Note_on_c, 0, 65, 0
1, 25639, Note_on_c, 0, 62, 32
1, 25645, Note_on_c, 0, 58, 19
1, 25651, Note_on_c, 0, 77, 0
1, 25654, Note_on_c, 0, 53, 39
1, 25856, Note_on_c, 0, 77, 78
1, 25874, Note_on_c, 0, 53, 0
1, 25874, Note_on_c, 0, 62, 0
1, 25996, Note_on_c, 0, 58, 0
1, 26062, Note_on_c, 0, 79, 88
1, 26138, Note_on_c, 0, 77, 0
1, 26257, Note_on_c, 0, 82, 72
1, 26296, Note_on_c, 0, 79, 0
1, 26519, Control_c, 0, 64, 0
1, 26531, Note_on_c, 0, 75, 53
1, 26531, Note_on_c, 0, 48, 25
1, 26569, Note_on_c, 0, 82, 0
1, 26734, Control_c, 0, 64, 127
1, 26739, Note_on_c, 0, 48, 0
1, 26899, Note_on_c, 0, 65, 32
1, 27082, Note_on_c, 0, 65, 0
1, 27253, Note_on_c, 0, 75, 0
1, 27263, Note_on_c, 0, 63, 33
1, 27280, Note_on_c, 0, 57, 21
1, 27297, Note_on_c, 0, 53, 43
1, 27506, Note_on_c, 0, 75, 54
1, 27536, Note_on_c, 0, 63, 0
1, 27576, Note_on_c, 0, 53, 0
1, 27615, Note_on_c, 0, 57, 0
1, 27745, Note_on_c, 0, 77, 51
1, 27760, Note_on_c, 0, 75, 0
1, 27977, Note_on_c, 0, 81, 53
1, 28023, Note_on_c, 0, 77, 0
1, 28197, Control_c, 0, 64, 0
1, 28249, Note_on_c, 0, 46, 29
1, 28249, Note_on_c, 0, 74, 53
1, 28258, Note_on_c, 0, 81, 0
1, 28438, Note_on_c, 0, 46, 0
1, 28438, Control_c, 0, 64, 127
1, 28612, Note_on_c, 0, 65, 30
1, 28681, Note_on_c, 0, 74, 0
1, 28753, Note_on_c, 0, 65, 0
1, 29044, Note_on_c, 0, 58, 18
1, 29051, Note_on_c, 0, 62, 30
1, 29058, Note_on_c, 0, 53, 32
1, 29239, Note_on_c, 0, 62, 0
1, 29281, Note_on_c, 0, 53, 0
1, 29308, Note_on_c, 0, 67, 44
1, 29512, Note_on_c, 0, 58, 0
1, 29522, Note_on_c, 0, 69, 56
1, 29539, Note_on_c, 0, 67, 0
1, 29703, Note_on_c, 0, 70, 64
1, 29720, Note_on_c, 0, 69, 0
1, 29890, Note_on_c, 0, 70, 0
1, 29896, Note_on_c, 0, 72, 64
1, 29899, Control_c, 0, 64, 0
1, 29899, Note_on_c, 0, 51, 39
1, 30079, Control_c, 0, 64, 127
1, 30093, Note_on_c, 0, 51, 0
1, 30093, Note_on_c, 0, 74, 88
1, 30141, Note_on_c, 0, 72, 0
1, 30271, Note_on_c, 0, 75, 88
1, 30286, Note_on_c, 0, 65, 52
1, 30310, Note_on_c, 0, 74, 0
1, 30451, Note_on_c, 0, 77, 92
1, 30491, Note_on_c, 0, 75, 0
1, 30639, Note_on_c, 0, 79, 96
1, 30657, Note_on_c, 0, 57, 31
1, 30657, Note_on_c, 0, 53, 60
1, 30665, Note_on_c, 0, 60, 37
1, 30684, Note_on_c, 0, 77, 0
1, 30821, Control_c, 0, 64, 0
1, 30849, Note_on_c, 0, 81, 96
1, 30916, Note_on_c, 0, 79, 0
1, 30941, Control_c, 0, 64, 127
1, 31065, Note_on_c, 0, 82, 82
1, 31085, Control_c, 0, 64, 0
1, 31138, Note_on_c, 0, 81, 0
1, 31205, Control_c, 0, 64, 127
1, 31217, Note_on_c, 0, 65, 0
1, 31256, Note_on_c, 0, 60, 0
1, 31269, Note_on_c, 0, 57, 0
1, 31272, Note_on_c, 0, 53, 0
1, 31313, Note_on_c, 0, 84, 92
1, 31356, Note_on_c, 0, 82, 0
1, 31606, Note_on_c, 0, 74, 83
1, 31620, Note_on_c, 0, 50, 44
1, 31636, Note_on_c, 0, 84, 0
1, 31636, Control_c, 0, 64, 0
1, 31793, Note_on_c, 0, 50, 0
1, 31816, Control_c, 0, 64, 127
1, 32015, Note_on_c, 0, 66, 52
1, 32316, Note_on_c, 0, 74, 0
1, 32394, Note_on_c, 0, 66, 0
1, 32394, Note_on_c, 0, 62, 56
1, 32401, Note_on_c, 0, 54, 47
1, 32405, Note_on_c, 0, 57, 41
1, 32592, Note_on_c, 0, 54, 0
1, 32592, Note_on_c, 0, 74, 94
1, 32604, Note_on_c, 0, 62, 0
1, 32626, Note_on_c, 0, 57, 0
1, 32801, Note_on_c, 0, 76, 91
1, 32868, Note_on_c, 0, 74, 0
1, 32983, Note_on_c, 0, 78, 91
1, 33063, Note_on_c, 0, 76, 0
1, 33239, Note_on_c, 0, 79, 94
1, 33249, Note_on_c, 0, 50, 51
1, 33255, Control_c, 0, 64, 0
1, 33283, Note_on_c, 0, 78, 0
1, 33506, Control_c, 0, 64, 127
1, 33547, Note_on_c, 0, 50, 0
1, 33625, Note_on_c, 0, 62, 56
1, 33860, Note_on_c, 0, 79, 0
1, 33960, Note_on_c, 0, 58, 46
1, 33966, Note_on_c, 0, 55, 55
1, 34068, Note_on_c, 0, 62, 0
1, 34156, Note_on_c, 0, 74, 87
1, 34278, Note_on_c, 0, 55, 0
1, 34281, Note_on_c, 0, 58, 0
1, 34409, Note_on_c, 0, 72, 83
1, 34456, Note_on_c, 0, 74, 0
1, 34610, Note_on_c, 0, 70, 72
1, 34651, Note_on_c, 0, 72, 0
1, 34813, Control_c, 0, 64, 0
1, 34838, Note_on_c, 0, 78, 73
1, 34849, Note_on_c, 0, 50, 44
1, 34854, Note_on_c, 0, 70, 0
1, 35088, Control_c, 0, 64, 127
1, 35130, Note_on_c, 0, 50, 0
1, 35208, Note_on_c, 0, 62, 42
1, 35548, Note_on_c, 0, 78, 0
1, 35584, Note_on_c, 0, 62, 0
1, 35610, Note_on_c, 0, 60, 32
1, 35632, Note_on_c, 0, 57, 20
1, 35851, Note_on_c, 0, 72, 52
1, 36088, Note_on_c, 0, 70, 55
1, 36124, Note_on_c, 0, 72, 0
1, 36169, Note_on_c, 0, 57, 0
1, 36253, Note_on_c, 0, 60, 0
1, 36294, Note_on_c, 0, 69, 62
1, 36303, Note_on_c, 0, 70, 0
1, 36450, Note_on_c, 0, 69, 0
1, 36493, Note_on_c, 0, 79, 72
1, 36503, Control_c, 0, 64, 0
1, 36503, Note_on_c, 0, 50, 40
1, 36695, Control_c, 0, 64, 127
1, 36754, Note_on_c, 0, 74, 67
1, 36760, Note_on_c, 0, 79, 0
1, 36824, Note_on_c, 0, 74, 0
1, 36858, Note_on_c, 0, 75, 57
1, 36911, Note_on_c, 0, 74, 65
1, 36946, Note_on_c, 0, 75, 0
1, 36974, Note_on_c, 0, 62, 47
1, 36985, Note_on_c, 0, 73, 69
1, 36988, Note_on_c, 0, 50, 0
1, 36999, Note_on_c, 0, 74, 0
1, 37183, Note_on_c, 0, 74, 79
1, 37214, Note_on_c, 0, 73, 0
1, 37378, Control_c, 0, 64, 0
1, 37381, Note_on_c, 0, 58, 25
1, 37394, Note_on_c, 0, 55, 35
1, 37400, Note_on_c, 0, 75, 63
1, 37412, Note_on_c, 0, 74, 0
1, 37617, Control_c, 0, 64, 127
1, 37631, Note_on_c, 0, 74, 63
1, 37663, Note_on_c, 0, 75, 0
1, 37863, Note_on_c, 0, 70, 54
1, 37874, Note_on_c, 0, 74, 0
1, 37991, Note_on_c, 0, 55, 0
1, 38022, Note_on_c, 0, 58, 0
1, 38110, Note_on_c, 0, 67, 49
1, 38139, Note_on_c, 0, 70, 0
1, 38242, Note_on_c, 0, 50, 19
1, 38325, Control_c, 0, 64, 0
1, 38407, Note_on_c, 0, 57, 25
1, 38422, Note_on_c, 0, 74, 57
1, 38431, Note_on_c, 0, 62, 0
1, 38512, Note_on_c, 0, 67, 0
1, 38556, Note_on_c, 0, 50, 0
1, 38588, Control_c, 0, 64, 127
1, 38606, Note_on_c, 0, 57, 0
1, 38798, Note_on_c, 0, 67, 51
1, 38894, Note_on_c, 0, 74, 0
1, 39134, Note_on_c, 0, 67, 0
1, 39145, Note_on_c, 0, 74, 55
1, 39150, Note_on_c, 0, 66, 33
1, 39247, Control_c, 0, 64, 0
1, 39426, Control_c, 0, 64, 127
1, 39443, Note_on_c, 0, 63, 49
1, 39448, Note_on_c, 0, 66, 0
1, 39510, Control_c, 0, 64, 0
1, 39643, Control_c, 0, 64, 127
1, 39693, Note_on_c, 0, 63, 0
1, 39721, Note_on_c, 0, 62, 51
1, 39821, Note_on_c, 0, 62, 0
1, 39958, Note_on_c, 0, 62, 52
1, 39964, Note_on_c, 0, 74, 0
1, 39975, Note_on_c, 0, 60, 40
1, 40002, Control_c, 0, 64, 0
1, 40122, Control_c, 0, 64, 127
1, 40202, Note_on_c, 0, 60, 0
1, 40206, Control_c, 0, 64, 0
1, 40214, Note_on_c, 0, 64, 59
1, 40222, Note_on_c, 0, 58, 24
1, 40231, Note_on_c, 0, 62, 0
1, 40386, Control_c, 0, 64, 127
1, 40470, Note_on_c, 0, 58, 0
1, 40503, Note_on_c, 0, 66, 45
1, 40528, Note_on_c, 0, 64, 0
1, 40528, Note_on_c, 0, 57, 29
1, 40542, Control_c, 0, 64, 0
1, 40673, Control_c, 0, 64, 127
1, 40716, Note_on_c, 0, 57, 0
1, 40776, Note_on_c, 0, 67, 46
1, 40788, Note_on_c, 0, 43, 38
1, 40793, Control_c, 0, 64, 0
1, 40833, Note_on_c, 0, 66, 0
1, 40949, Control_c, 0, 64, 127
1, 40964, Note_on_c, 0, 43, 0
1, 41005, Note_on_c, 0, 69, 53
1, 41066, Note_on_c, 0, 67, 0
1, 41215, Note_on_c, 0, 70, 64
1, 41239, Note_on_c, 0, 50, 47
1, 41255, Note_on_c, 0, 69, 0
1, 41434, Note_on_c, 0, 72, 77
1, 41467, Note_on_c, 0, 70, 0
1, 41627, Note_on_c, 0, 50, 0
1, 41634, Note_on_c, 0, 74, 79
1, 41651, Note_on_c, 0, 58, 28
1, 41655, Control_c, 0, 64, 0
1, 41663, Note_on_c, 0, 62, 32
1, 41667, Note_on_c, 0, 72, 0
1, 41667, Note_on_c, 0, 55, 31
1, 41776, Control_c, 0, 64, 127
1, 41782, Note_on_c, 0, 62, 0
1, 41794, Note_on_c, 0, 55, 0
1, 41819, Note_on_c, 0, 58, 0
1, 41833, Note_on_c, 0, 79, 84
1, 41850, Note_on_c, 0, 74, 0
1, 42036, Note_on_c, 0, 78, 71
1, 42042, Note_on_c, 0, 45, 33
1, 42064, Control_c, 0, 64, 0
1, 42080, Note_on_c, 0, 79, 0
1, 42254, Control_c, 0, 64, 127
1, 42267, Note_on_c, 0, 79, 71
1, 42298, Note_on_c, 0, 78, 0
1, 42340, Note_on_c, 0, 45, 0
1, 42531, Control_c, 0, 64, 0
1, 42538, Note_on_c, 0, 46, 22
1, 42543, Note_on_c, 0, 74, 54
1, 42576, Note_on_c, 0, 79, 0
1, 42758, Note_on_c, 0, 46, 0
1, 42758, Control_c, 0, 64, 127
1, 42978, Note_on_c, 0, 55, 38
1, 43050, Note_on_c, 0, 55, 0
1, 43309, Note_on_c, 0, 74, 0
1, 43384, Note_on_c, 0, 67, 36
1, 43399, Note_on_c, 0, 62, 26
1, 43478, Note_on_c, 0, 67, 0
1, 43523, Note_on_c, 0, 62, 0
1, 43616, Note_on_c, 0, 74, 74
1, 43729, Note_on_c, 0, 74, 0
1, 43785, Note_on_c, 0, 63, 38
1, 43853, Note_on_c, 0, 67, 38
1, 43896, Note_on_c, 0, 69, 54
1, 43903, Note_on_c, 0, 48, 32
1, 43946, Control_c, 0, 64, 0
1, 44011, Note_on_c, 0, 67, 0
1, 44101, Control_c, 0, 64, 127
1, 44144, Note_on_c, 0, 72, 58
1, 44181, Note_on_c, 0, 69, 0
1, 44203, Note_on_c, 0, 48, 0
1, 44230, Note_on_c, 0, 63, 0
1, 44321, Note_on_c, 0, 62, 33
1, 44353, Control_c, 0, 64, 0
1, 44365, Note_on_c, 0, 50, 39
1, 44365, Note_on_c, 0, 67, 31
1, 44378, Note_on_c, 0, 72, 0
1, 44398, Note_on_c, 0, 70, 46
1, 44479, Note_on_c, 0, 50, 0
1, 44496, Control_c, 0, 64, 127
1, 44520, Note_on_c, 0, 62, 0
1, 44588, Note_on_c, 0, 63, 63
1, 44710, Note_on_c, 0, 67, 0
1, 44738, Note_on_c, 0, 63, 0
1, 44827, Note_on_c, 0, 58, 30
1, 44827, Note_on_c, 0, 61, 51
1, 44832, Note_on_c, 0, 55, 42
1, 44905, Control_c, 0, 64, 0
1, 45020, Note_on_c, 0, 58, 0
1, 45056, Note_on_c, 0, 55, 0
1, 45059, Control_c, 0, 64, 127
1, 45072, Note_on_c, 0, 61, 0
1, 45072, Note_on_c, 0, 63, 54
1, 45312, Note_on_c, 0, 63, 0
1, 45331, Note_on_c, 0, 70, 0
1, 45395, Control_c, 0, 64, 0
1, 45407, Note_on_c, 0, 62, 41
1, 45418, Note_on_c, 0, 58, 10
1, 45429, Note_on_c, 0, 55, 27
1, 45576, Control_c, 0, 64, 127
1, 45605, Note_on_c, 0, 55, 0
1, 45613, Note_on_c, 0, 62, 0
1, 45622, Note_on_c, 0, 58, 0
1, 45708, Note_on_c, 0, 70, 41
1, 45952, Note_on_c, 0, 70, 0
1, 45967, Note_on_c, 0, 66, 35
1, 45980, Note_on_c, 0, 50, 29
1, 45983, Control_c, 0, 64, 0
1, 45983, Note_on_c, 0, 60, 27
1, 46187, Control_c, 0, 64, 127
1, 46206, Note_on_c, 0, 69, 39
1, 46236, Note_on_c, 0, 66, 0
1, 46253, Note_on_c, 0, 60, 0
1, 46275, Note_on_c, 0, 50, 0
1, 46440, Note_on_c, 0, 58, 25
1, 46465, Note_on_c, 0, 43, 32
1, 46470, Note_on_c, 0, 67, 36
1, 46527, Note_on_c, 0, 69, 0
1, 46672, Note_on_c, 0, 51, 46
1, 46702, Control_c, 0, 64, 0
1, 46881, Control_c, 0, 64, 127
1, 46933, Note_on_c, 0, 51, 0
1, 46933, Note_on_c, 0, 49, 40
1, 46966, Control_c, 0, 64, 0
1, 47158, Control_c, 0, 64, 127
1, 47187, Note_on_c, 0, 49, 0
1, 47214, Note_on_c, 0, 51, 29
1, 47217, Control_c, 0, 64, 0
1, 47457, Control_c, 0, 64, 127
1, 47548, Note_on_c, 0, 51, 0
1, 47560, Note_on_c, 0, 50, 29
1, 47636, Control_c, 0, 64, 0
1, 47705, Note_on_c, 0, 67, 0
1, 47735, Note_on_c, 0, 58, 0
1, 47841, Control_c, 0, 64, 127
1, 47867, Note_on_c, 0, 62, 43
1, 48045, Note_on_c, 0, 43, 0
1, 48129, Note_on_c, 0, 64, 58
1, 48137, Note_on_c, 0, 60, 34
1, 48140, Control_c, 0, 64, 0
1, 48154, Note_on_c, 0, 62, 0
1, 48271, Control_c, 0, 64, 127
1, 48357, Note_on_c, 0, 66, 61
1, 48393, Note_on_c, 0, 64, 0
1, 48560, Note_on_c, 0, 60, 0
1, 48571, Note_on_c, 0, 66, 0
1, 48571, Control_c, 0, 64, 0
1, 48576, Note_on_c, 0, 58, 37
1, 48582, Note_on_c, 0, 67, 65
1, 48596, Note_on_c, 0, 43, 30
1, 48632, Note_on_c, 0, 50, 0
1, 48655, Note_on_c, 0, 58, 0
1, 48691, Control_c, 0, 64, 127
1, 48707, Note_on_c, 0, 67, 0
1, 48707, Note_on_c, 0, 43, 0
1, 48797, Note_on_c, 0, 69, 68
1, 49008, Note_on_c, 0, 70, 79
1, 49031, Note_on_c, 0, 50, 38
1, 49040, Note_on_c, 0, 69, 0
1, 49220, Note_on_c, 0, 72, 86
1, 49239, Note_on_c, 0, 70, 0
1, 49416, Note_on_c, 0, 74, 91
1, 49435, Note_on_c, 0, 55, 43
1, 49435, Note_on_c, 0, 58, 29
1, 49435, Note_on_c, 0, 62, 45
1, 49446, Control_c, 0, 64, 0
1, 49457, Note_on_c, 0, 72, 0
1, 49471, Note_on_c, 0, 50, 0
1, 49572, Note_on_c, 0, 55, 0
1, 49591, Note_on_c, 0, 62, 0
1, 49602, Control_c, 0, 64, 127
1, 49608, Note_on_c, 0, 74, 0
1, 49627, Note_on_c, 0, 58, 0
1, 49649, Note_on_c, 0, 79, 92
1, 49725, Note_on_c, 0, 79, 0
1, 49791, Note_on_c, 0, 65, 40
1, 49844, Note_on_c, 0, 72, 40
1, 49867, Note_on_c, 0, 75, 56
1, 49911, Note_on_c, 0, 45, 38
1, 49917, Note_on_c, 0, 77, 82
1, 49937, Control_c, 0, 64, 0
1, 50079, Note_on_c, 0, 65, 0
1, 50104, Note_on_c, 0, 75, 0
1, 50104, Control_c, 0, 64, 127
1, 50117, Note_on_c, 0, 77, 0
1, 50184, Note_on_c, 0, 79, 88
1, 50249, Note_on_c, 0, 45, 0
1, 50257, Note_on_c, 0, 72, 0
1, 50260, Note_on_c, 0, 79, 0
1, 50371, Note_on_c, 0, 65, 37
1, 50402, Note_on_c, 0, 70, 47
1, 50429, Note_on_c, 0, 46, 33
1, 50441, Control_c, 0, 64, 0
1, 50454, Note_on_c, 0, 74, 79
1, 50633, Control_c, 0, 64, 127
1, 50661, Note_on_c, 0, 46, 0
1, 50705, Note_on_c, 0, 65, 0
1, 50892, Note_on_c, 0, 53, 78
1, 51187, Note_on_c, 0, 70, 0
1, 51214, Note_on_c, 0, 53, 0
1, 51293, Note_on_c, 0, 65, 60
1, 51298, Note_on_c, 0, 58, 51
1, 51298, Note_on_c, 0, 62, 58
1, 51327, Control_c, 0, 64, 0
1, 51432, Note_on_c, 0, 65, 0
1, 51460, Note_on_c, 0, 62, 0
1, 51460, Control_c, 0, 64, 127
1, 51510, Note_on_c, 0, 58, 0
1, 51526, Note_on_c, 0, 77, 87
1, 51540, Note_on_c, 0, 74, 0
1, 51596, Note_on_c, 0, 77, 0
1, 51661, Note_on_c, 0, 63, 63
1, 51733, Note_on_c, 0, 70, 30
1, 51783, Note_on_c, 0, 74, 42
1, 51816, Note_on_c, 0, 75, 80
1, 51816, Control_c, 0, 64, 0
1, 51834, Note_on_c, 0, 43, 41
1, 51855, Note_on_c, 0, 74, 0
1, 51939, Control_c, 0, 64, 127
1, 51944, Note_on_c, 0, 63, 0
1, 51998, Note_on_c, 0, 75, 0
1, 52059, Note_on_c, 0, 77, 83
1, 52065, Note_on_c, 0, 43, 0
1, 52065, Note_on_c, 0, 70, 0
1, 52093, Note_on_c, 0, 77, 0
1, 52195, Note_on_c, 0, 63, 45
1, 52253, Note_on_c, 0, 69, 40
1, 52273, Note_on_c, 0, 45, 27
1, 52287, Control_c, 0, 64, 0
1, 52291, Note_on_c, 0, 72, 67
1, 52458, Note_on_c, 0, 45, 0
1, 52466, Control_c, 0, 64, 127
1, 52493, Note_on_c, 0, 63, 0
1, 52619, Note_on_c, 0, 69, 0
1, 52697, Note_on_c, 0, 57, 43
1, 53036, Note_on_c, 0, 57, 0
1, 53089, Note_on_c, 0, 72, 0
1, 53156, Note_on_c, 0, 60, 32
1, 53156, Note_on_c, 0, 67, 42
1, 53159, Note_on_c, 0, 63, 39
1, 53299, Note_on_c, 0, 67, 0
1, 53330, Note_on_c, 0, 60, 0
1, 53363, Note_on_c, 0, 63, 0
1, 53440, Note_on_c, 0, 75, 57
1, 53544, Note_on_c, 0, 75, 0
1, 53583, Note_on_c, 0, 62, 29
1, 53657, Note_on_c, 0, 69, 16
1, 53713, Note_on_c, 0, 72, 38
1, 53736, Control_c, 0, 64, 0
1, 53769, Note_on_c, 0, 42, 32
1, 53775, Note_on_c, 0, 74, 54
1, 53892, Control_c, 0, 64, 127
1, 53898, Note_on_c, 0, 74, 0
1, 53898, Note_on_c, 0, 62, 0
1, 53979, Note_on_c, 0, 69, 0
1, 54017, Note_on_c, 0, 75, 51
1, 54023, Note_on_c, 0, 42, 0
1, 54079, Note_on_c, 0, 75, 0
1, 54079, Note_on_c, 0, 72, 0
1, 54148, Note_on_c, 0, 62, 37
1, 54206, Note_on_c, 0, 67, 38
1, 54240, Note_on_c, 0, 70, 41
1, 54252, Control_c, 0, 64, 0
1, 54255, Note_on_c, 0, 43, 34
1, 54444, Control_c, 0, 64, 127
1, 54461, Note_on_c, 0, 43, 0
1, 54511, Note_on_c, 0, 62, 0
1, 54691, Note_on_c, 0, 50, 40
1, 54922, Note_on_c, 0, 67, 0
1, 54947, Note_on_c, 0, 50, 0
1, 55153, Note_on_c, 0, 62, 37
1, 55160, Note_on_c, 0, 58, 19
1, 55168, Note_on_c, 0, 55, 22
1, 55285, Note_on_c, 0, 70, 0
1, 55435, Note_on_c, 0, 74, 64
1, 55480, Note_on_c, 0, 55, 0
1, 55491, Note_on_c, 0, 58, 0
1, 55499, Note_on_c, 0, 62, 0
1, 55633, Note_on_c, 0, 63, 40
1, 55683, Note_on_c, 0, 69, 36
1, 55709, Note_on_c, 0, 74, 0
1, 55709, Note_on_c, 0, 48, 33
1, 55727, Control_c, 0, 64, 0
1, 55734, Note_on_c, 0, 72, 63
1, 55881, Control_c, 0, 64, 127
1, 55925, Note_on_c, 0, 69, 0
1, 55975, Note_on_c, 0, 74, 81
1, 56023, Note_on_c, 0, 74, 0
1, 56023, Note_on_c, 0, 63, 0
1, 56031, Note_on_c, 0, 72, 0
1, 56090, Note_on_c, 0, 62, 44
1, 56138, Note_on_c, 0, 67, 52
1, 56206, Control_c, 0, 64, 0
1, 56209, Note_on_c, 0, 50, 39
1, 56212, Note_on_c, 0, 72, 76
1, 56220, Note_on_c, 0, 48, 0
1, 56374, Control_c, 0, 64, 127
1, 56411, Note_on_c, 0, 62, 0
1, 56435, Note_on_c, 0, 72, 0
1, 56435, Note_on_c, 0, 67, 0
1, 56435, Note_on_c, 0, 70, 67
1, 56489, Note_on_c, 0, 70, 0
1, 56667, Note_on_c, 0, 69, 53
1, 56673, Note_on_c, 0, 62, 50
1, 56673, Note_on_c, 0, 58, 34
1, 56684, Control_c, 0, 64, 0
1, 56853, Control_c, 0, 64, 127
1, 56875, Note_on_c, 0, 62, 0
1, 56879, Note_on_c, 0, 58, 0
1, 56931, Note_on_c, 0, 67, 55
1, 56959, Note_on_c, 0, 69, 0
1, 57259, Note_on_c, 0, 70, 44
1, 57259, Control_c, 0, 64, 0
1, 57273, Note_on_c, 0, 61, 41
1, 57273, Note_on_c, 0, 64, 29
1, 57302, Note_on_c, 0, 67, 0
1, 57644, Control_c, 0, 64, 127
1, 57766, Note_on_c, 0, 61, 0
1, 57950, Note_on_c, 0, 66, 17
1, 57954, Note_on_c, 0, 64, 0
1, 57954, Note_on_c, 0, 63, 30
1, 57954, Control_c, 0, 64, 0
1, 57967, Note_on_c, 0, 60, 20
1, 58195, Control_c, 0, 64, 127
1, 58258, Note_on_c, 0, 70, 0
1, 58293, Note_on_c, 0, 50, 0
1, 58299, Note_on_c, 0, 60, 0
1, 58317, Note_on_c, 0, 69, 25
1, 58397, Note_on_c, 0, 66, 0
1, 58450, Note_on_c, 0, 63, 0
1, 58648, Note_on_c, 0, 50, 25
1, 58648, Control_c, 0, 64, 0
1, 58670, Note_on_c, 0, 59, 25
1, 58683, Note_on_c, 0, 67, 29
1, 58689, Note_on_c, 0, 62, 24
1, 58705, Note_on_c, 0, 69, 0
1, 58822, Note_on_c, 0, 59, 0
1, 58826, Note_on_c, 0, 50, 0
1, 58854, Control_c, 0, 64, 127
1, 58898, Note_on_c, 0, 62, 0
1, 58954, Note_on_c, 0, 67, 0
1, 59067, Note_on_c, 0, 43, 20
1, 59067, Note_on_c, 0, 50, 22
1, 59123, Note_on_c, 0, 50, 0
1, 59123, Note_on_c, 0, 43, 0
1, 59307, Note_on_c, 0, 74, 53
1, 59318, Note_on_c, 0, 71, 32
1, 59413, Note_on_c, 0, 71, 0
1, 59516, Note_on_c, 0, 50, 31
1, 59524, Note_on_c, 0, 55, 36
1, 59574, Note_on_c, 0, 55, 0
1, 59581, Note_on_c, 0, 50, 0
1, 59711, Note_on_c, 0, 67, 43
1, 59711, Note_on_c, 0, 71, 63
1, 59742, Note_on_c, 0, 74, 0
1, 59812, Control_c, 0, 64, 0
1, 59873, Note_on_c, 0, 43, 50
1, 59876, Note_on_c, 0, 50, 44
1, 59914, Note_on_c, 0, 43, 0
1, 59914, Note_on_c, 0, 71, 0
1, 59920, Note_on_c, 0, 50, 0
1, 59932, Control_c, 0, 64, 127
1, 60074, Note_on_c, 0, 74, 81
1, 60074, Note_on_c, 0, 71, 71
1, 60107, Note_on_c, 0, 67, 0
1, 60232, Control_c, 0, 64, 0
1, 60232, Note_on_c, 0, 54, 48
1, 60238, Note_on_c, 0, 50, 47
1, 60243, Note_on_c, 0, 62, 39
1, 60344, Note_on_c, 0, 62, 0
1, 60344, Note_on_c, 0, 71, 0
1, 60364, Note_on_c, 0, 54, 0
1, 60364, Control_c, 0, 64, 127
1, 60375, Note_on_c, 0, 50, 0
1, 60425, Note_on_c, 0, 74, 0
1, 60428, Note_on_c, 0, 76, 69
1, 60428, Note_on_c, 0, 72, 70
1, 60567, Control_c, 0, 64, 0
1, 60603, Note_on_c, 0, 43, 55
1, 60611, Note_on_c, 0, 50, 60
1, 60648, Note_on_c, 0, 76, 0
1, 60664, Note_on_c, 0, 50, 0
1, 60675, Control_c, 0, 64, 127
1, 60681, Note_on_c, 0, 43, 0
1, 60681, Note_on_c, 0, 72, 0
1, 60751, Note_on_c, 0, 66, 50
1, 60759, Note_on_c, 0, 69, 65
1, 60864, Note_on_c, 0, 66, 0
1, 60903, Note_on_c, 0, 69, 0
1, 60926, Note_on_c, 0, 67, 68
1, 60926, Note_on_c, 0, 71, 80
1, 60931, Note_on_c, 0, 62, 55
1, 60937, Note_on_c, 0, 54, 51
1, 60949, Note_on_c, 0, 50, 51
1, 60964, Control_c, 0, 64, 0
1, 61049, Note_on_c, 0, 62, 0
1, 61074, Note_on_c, 0, 54, 0
1, 61088, Note_on_c, 0, 50, 0
1, 61088, Note_on_c, 0, 71, 0
1, 61095, Control_c, 0, 64, 127
1, 61104, Note_on_c, 0, 72, 83
1, 61109, Note_on_c, 0, 69, 67
1, 61126, Note_on_c, 0, 67, 0
1, 61240, Control_c, 0, 64, 0
1, 61283, Note_on_c, 0, 43, 61
1, 61283, Note_on_c, 0, 50, 55
1, 61368, Note_on_c, 0, 43, 0
1, 61368, Control_c, 0, 64, 127
1, 61379, Note_on_c, 0, 72, 0
1, 61386, Note_on_c, 0, 50, 0
1, 61441, Note_on_c, 0, 72, 60
1, 61447, Note_on_c, 0, 76, 80
1, 61502, Note_on_c, 0, 69, 0
1, 61622, Note_on_c, 0, 62, 56
1, 61622, Control_c, 0, 64, 0
1, 61631, Note_on_c, 0, 50, 40
1, 61650, Note_on_c, 0, 55, 46
1, 61728, Note_on_c, 0, 62, 0
1, 61754, Control_c, 0, 64, 127
1, 61761, Note_on_c, 0, 55, 0
1, 61772, Note_on_c, 0, 72, 0
1, 61775, Note_on_c, 0, 50, 0
1, 61784, Note_on_c, 0, 74, 86
1, 61789, Note_on_c, 0, 71, 75
1, 61801, Note_on_c, 0, 76, 0
1, 61942, Note_on_c, 0, 71, 0
1, 61942, Note_on_c, 0, 74, 0
1, 61956, Note_on_c, 0, 50, 67
1, 61970, Note_on_c, 0, 43, 56
1, 62041, Control_c, 0, 64, 0
1, 62102, Note_on_c, 0, 50, 0
1, 62107, Note_on_c, 0, 43, 0
1, 62116, Note_on_c, 0, 79, 99
1, 62124, Note_on_c, 0, 76, 68
1, 62174, Control_c, 0, 64, 127
1, 62291, Note_on_c, 0, 50, 49
1, 62299, Note_on_c, 0, 62, 41
1, 62299, Note_on_c, 0, 55, 54
1, 62383, Note_on_c, 0, 62, 0
1, 62402, Note_on_c, 0, 76, 0
1, 62414, Note_on_c, 0, 55, 0
1, 62436, Note_on_c, 0, 50, 0
1, 62488, Note_on_c, 0, 78, 88
1, 62488, Note_on_c, 0, 74, 78
1, 62566, Note_on_c, 0, 79, 0
1, 62673, Note_on_c, 0, 43, 47
1, 62676, Control_c, 0, 64, 0
1, 62676, Note_on_c, 0, 50, 57
1, 62793, Note_on_c, 0, 43, 0
1, 62800, Note_on_c, 0, 50, 0
1, 62809, Control_c, 0, 64, 127
1, 62850, Note_on_c, 0, 74, 0
1, 62850, Note_on_c, 0, 76, 73
1, 62857, Note_on_c, 0, 72, 60
1, 62865, Note_on_c, 0, 78, 0
1, 62987, Note_on_c, 0, 76, 0
1, 63023, Note_on_c, 0, 62, 48
1, 63023, Note_on_c, 0, 54, 47
1, 63032, Note_on_c, 0, 50, 39
1, 63085, Note_on_c, 0, 62, 0
1, 63093, Note_on_c, 0, 54, 0
1, 63123, Note_on_c, 0, 50, 0
1, 63185, Note_on_c, 0, 72, 0
1, 63185, Note_on_c, 0, 74, 87
1, 63185, Note_on_c, 0, 71, 74
1, 63361, Control_c, 0, 64, 0
1, 63364, Note_on_c, 0, 43, 52
1, 63367, Note_on_c, 0, 50, 60
1, 63450, Note_on_c, 0, 71, 0
1, 63489, Note_on_c, 0, 43, 0
1, 63492, Note_on_c, 0, 50, 0
1, 63503, Note_on_c, 0, 74, 0
1, 63503, Control_c, 0, 64, 127
1, 63523, Note_on_c, 0, 66, 60
1, 63527, Note_on_c, 0, 69, 72
1, 63631, Note_on_c, 0, 66, 0
1, 63683, Note_on_c, 0, 69, 0
1, 63683, Note_on_c, 0, 71, 89
1, 63687, Note_on_c, 0, 67, 68
1, 63694, Note_on_c, 0, 62, 52
1, 63697, Note_on_c, 0, 50, 43
1, 63697, Note_on_c, 0, 54, 52
1, 63756, Control_c, 0, 64, 0
1, 63792, Note_on_c, 0, 62, 0
1, 63820, Note_on_c, 0, 54, 0
1, 63828, Note_on_c, 0, 50, 0
1, 63837, Note_on_c, 0, 71, 0
1, 63843, Note_on_c, 0, 69, 71
1, 63848, Note_on_c, 0, 72, 84
1, 63864, Control_c, 0, 64, 127
1, 63996, Note_on_c, 0, 67, 0
1, 64013, Note_on_c, 0, 50, 73
1, 64020, Control_c, 0, 64, 0
1, 64029, Note_on_c, 0, 43, 55
1, 64121, Note_on_c, 0, 69, 0
1, 64140, Note_on_c, 0, 43, 0
1, 64149, Note_on_c, 0, 72, 0
1, 64149, Control_c, 0, 64, 127
1, 64154, Note_on_c, 0, 50, 0
1, 64158, Note_on_c, 0, 73, 75
1, 64163, Note_on_c, 0, 70, 63
1, 64350, Note_on_c, 0, 62, 47
1, 64360, Note_on_c, 0, 50, 45
1, 64360, Note_on_c, 0, 55, 46
1, 64416, Control_c, 0, 64, 0
1, 64456, Note_on_c, 0, 73, 0
1, 64472, Note_on_c, 0, 62, 0
1, 64495, Note_on_c, 0, 55, 0
1, 64508, Note_on_c, 0, 50, 0
1, 64528, Note_on_c, 0, 74, 72
1, 64528, Note_on_c, 0, 71, 59
1, 64559, Note_on_c, 0, 70, 0
1, 64559, Control_c, 0, 64, 127
1, 64690, Note_on_c, 0, 71, 0
1, 64695, Note_on_c, 0, 74, 0
1, 64726, Note_on_c, 0, 50, 52
1, 64729, Note_on_c, 0, 43, 45
1, 64775, Note_on_c, 0, 43, 0
1, 64781, Note_on_c, 0, 50, 0
1, 64895, Control_c, 0, 64, 0
1, 64920, Note_on_c, 0, 62, 75
1, 64927, Note_on_c, 0, 71, 68
1, 64927, Note_on_c, 0, 74, 78
1, 65038, Control_c, 0, 64, 127
1, 65052, Note_on_c, 0, 74, 0
1, 65073, Note_on_c, 0, 71, 0
1, 65110, Note_on_c, 0, 55, 75
1, 65138, Note_on_c, 0, 62, 0
1, 65321, Note_on_c, 0, 71, 89
1, 65327, Note_on_c, 0, 59, 62
1, 65332, Note_on_c, 0, 67, 57
1, 65363, Note_on_c, 0, 55, 0
1, 65422, Note_on_c, 0, 59, 0
1, 65449, Note_on_c, 0, 67, 0
1, 65469, Note_on_c, 0, 71, 0
1, 65505, Note_on_c, 0, 50, 76
1, 65525, Note_on_c, 0, 43, 38
1, 65544, Note_on_c, 0, 50, 0
1, 65573, Note_on_c, 0, 43, 0
1, 65708, Note_on_c, 0, 74, 87
1, 65718, Note_on_c, 0, 62, 61
1, 65723, Note_on_c, 0, 71, 64
1, 65887, Note_on_c, 0, 55, 89
1, 65949, Note_on_c, 0, 62, 0
1, 65985, Note_on_c, 0, 74, 0
1, 65985, Note_on_c, 0, 71, 0
1, 66068, Note_on_c, 0, 76, 71
1, 66068, Note_on_c, 0, 72, 64
1, 66076, Note_on_c, 0, 64, 66
1, 66080, Control_c, 0, 64, 0
1, 66172, Note_on_c, 0, 55, 0
1, 66213, Control_c, 0, 64, 127
1, 66221, Note_on_c, 0, 76, 0
1, 66241, Note_on_c, 0, 43, 72
1, 66247, Note_on_c, 0, 72, 0
1, 66264, Note_on_c, 0, 52, 45
1, 66275, Note_on_c, 0, 43, 0
1, 66310, Note_on_c, 0, 52, 0
1, 66386, Note_on_c, 0, 64, 0
1, 66405, Note_on_c, 0, 69, 73
1, 66405, Note_on_c, 0, 66, 63
1, 66534, Note_on_c, 0, 66, 0
1, 66583, Note_on_c, 0, 71, 93
1, 66583, Note_on_c, 0, 67, 68
1, 66583, Note_on_c, 0, 63, 91
1, 66629, Note_on_c, 0, 69, 0
1, 66718, Note_on_c, 0, 67, 0
1, 66756, Note_on_c, 0, 72, 84
1, 66756, Note_on_c, 0, 69, 50
1, 66764, Control_c, 0, 64, 0
1, 66773, Note_on_c, 0, 62, 35
1, 66810, Note_on_c, 0, 71, 0
1, 66852, Note_on_c, 0, 63, 0
1, 66896, Control_c, 0, 64, 127
1, 66923, Note_on_c, 0, 69, 0
1, 66927, Note_on_c, 0, 72, 0
1, 66927, Note_on_c, 0, 62, 0
1, 66927, Note_on_c, 0, 57, 66
1, 66935, Note_on_c, 0, 55, 37
1, 66963, Note_on_c, 0, 57, 0
1, 66990, Note_on_c, 0, 55, 0
1, 67088, Note_on_c, 0, 76, 83
1, 67088, Control_c, 0, 64, 0
1, 67093, Note_on_c, 0, 72, 63
1, 67096, Note_on_c, 0, 64, 75
1, 67196, Control_c, 0, 64, 127
1, 67244, Note_on_c, 0, 66, 58
1, 67272, Note_on_c, 0, 76, 0
1, 67299, Note_on_c, 0, 72, 0
1, 67303, Note_on_c, 0, 64, 0
1, 67420, Note_on_c, 0, 74, 84
1, 67425, Note_on_c, 0, 71, 77
1, 67428, Note_on_c, 0, 62, 63
1, 67467, Note_on_c, 0, 66, 0
1, 67531, Control_c, 0, 64, 0
1, 67604, Note_on_c, 0, 62, 0
1, 67604, Note_on_c, 0, 67, 75
1, 67622, Note_on_c, 0, 74, 0
1, 67626, Note_on_c, 0, 71, 0
1, 67639, Note_on_c, 0, 67, 0
1, 67639, Control_c, 0, 64, 127
1, 67789, Note_on_c, 0, 79, 84
1, 67799, Note_on_c, 0, 67, 49
1, 67803, Note_on_c, 0, 76, 34
1, 67927, Note_on_c, 0, 79, 0
1, 67932, Note_on_c, 0, 67, 0
1, 67951, Note_on_c, 0, 76, 0
1, 67985, Note_on_c, 0, 58, 67
1, 68124, Note_on_c, 0, 78, 78
1, 68124, Note_on_c, 0, 66, 60
1, 68124, Note_on_c, 0, 74, 66
1, 68130, Control_c, 0, 64, 0
1, 68246, Note_on_c, 0, 74, 0
1, 68258, Note_on_c, 0, 58, 0
1, 68274, Control_c, 0, 64, 127
1, 68306, Note_on_c, 0, 78, 0
1, 68306, Note_on_c, 0, 59, 70
1, 68331, Note_on_c, 0, 66, 0
1, 68359, Note_on_c, 0, 59, 0
1, 68480, Note_on_c, 0, 76, 77
1, 68489, Note_on_c, 0, 72, 62
1, 68489, Note_on_c, 0, 64, 61
1, 68550, Control_c, 0, 64, 0
1, 68664, Note_on_c, 0, 56, 77
1, 68731, Control_c, 0, 64, 127
1, 68745, Note_on_c, 0, 76, 0
1, 68756, Note_on_c, 0, 64, 0
1, 68837, Note_on_c, 0, 71, 77
1, 68840, Note_on_c, 0, 62, 70
1, 68840, Note_on_c, 0, 74, 88
1, 68849, Note_on_c, 0, 72, 0
1, 68862, Control_c, 0, 64, 0
1, 68966, Note_on_c, 0, 56, 0
1, 68985, Note_on_c, 0, 71, 0
1, 68993, Control_c, 0, 64, 127
1, 69007, Note_on_c, 0, 74, 0
1, 69022, Note_on_c, 0, 57, 78
1, 69044, Note_on_c, 0, 62, 0
1, 69080, Note_on_c, 0, 57, 0
1, 69200, Note_on_c, 0, 69, 76
1, 69208, Note_on_c, 0, 57, 68
1, 69208, Note_on_c, 0, 66, 64
1, 69283, Note_on_c, 0, 57, 0
1, 69319, Note_on_c, 0, 69, 0
1, 69375, Note_on_c, 0, 71, 94
1, 69375, Note_on_c, 0, 59, 84
1, 69381, Note_on_c, 0, 67, 72
1, 69386, Note_on_c, 0, 51, 68
1, 69408, Note_on_c, 0, 66, 0
1, 69461, Note_on_c, 0, 59, 0
1, 69467, Note_on_c, 0, 67, 0
1, 69483, Note_on_c, 0, 71, 0
1, 69545, Control_c, 0, 64, 0
1, 69545, Note_on_c, 0, 69, 68
1, 69545, Note_on_c, 0, 72, 90
1, 69558, Note_on_c, 0, 60, 64
1, 69670, Note_on_c, 0, 60, 0
1, 69676, Control_c, 0, 64, 127
1, 69681, Note_on_c, 0, 69, 0
1, 69701, Note_on_c, 0, 72, 0
1, 69701, Note_on_c, 0, 51, 0
1, 69715, Note_on_c, 0, 50, 82
1, 69823, Note_on_c, 0, 50, 0
1, 69885, Note_on_c, 0, 76, 88
1, 69888, Note_on_c, 0, 72, 76
1, 69891, Note_on_c, 0, 64, 79
1, 69988, Control_c, 0, 64, 0
1, 70055, Note_on_c, 0, 42, 90
1, 70119, Note_on_c, 0, 76, 0
1, 70119, Control_c, 0, 64, 127
1, 70130, Note_on_c, 0, 64, 0
1, 70233, Note_on_c, 0, 62, 83
1, 70233, Note_on_c, 0, 71, 81
1, 70233, Note_on_c, 0, 74, 93
1, 70267, Note_on_c, 0, 62, 0
1, 70267, Note_on_c, 0, 72, 0
1, 70302, Note_on_c, 0, 71, 0
1, 70309, Note_on_c, 0, 42, 0
1, 70341, Note_on_c, 0, 74, 0
1, 70372, Control_c, 0, 64, 0
1, 70426, Note_on_c, 0, 74, 87
1, 70426, Note_on_c, 0, 71, 91
1, 70431, Note_on_c, 0, 67, 84
1, 70436, Note_on_c, 0, 43, 92
1, 70462, Note_on_c, 0, 43, 0
1, 70478, Note_on_c, 0, 71, 0
1, 70483, Note_on_c, 0, 67, 0
1, 70503, Control_c, 0, 64, 127
1, 70517, Note_on_c, 0, 74, 0
1, 70681, Note_on_c, 0, 79, 108
1, 70689, Note_on_c, 0, 67, 90
1, 70689, Note_on_c, 0, 71, 96
1, 70693, Note_on_c, 0, 64, 89
1, 70696, Note_on_c, 0, 52, 89
1, 70790, Control_c, 0, 64, 0
1, 71090, Note_on_c, 0, 55, 94
1, 71110, Note_on_c, 0, 52, 0
1, 71281, Note_on_c, 0, 76, 90
1, 71289, Note_on_c, 0, 71, 0
1, 71289, Note_on_c, 0, 67, 0
1, 71294, Control_c, 0, 64, 127
1, 71306, Note_on_c, 0, 64, 0
1, 71314, Note_on_c, 0, 79, 0
1, 71425, Note_on_c, 0, 76, 0
1, 71425, Note_on_c, 0, 55, 0
1, 71455, Note_on_c, 0, 66, 83
1, 71459, Note_on_c, 0, 78, 90
1, 71464, Note_on_c, 0, 62, 81
1, 71469, Note_on_c, 0, 59, 79
1, 71473, Control_c, 0, 64, 0
1, 71479, Note_on_c, 0, 71, 56
1, 71497, Note_on_c, 0, 59, 0
1, 71497, Note_on_c, 0, 62, 0
1, 71512, Note_on_c, 0, 66, 0
1, 71523, Note_on_c, 0, 71, 0
1, 71533, Note_on_c, 0, 78, 0
1, 71625, Note_on_c, 0, 66, 75
1, 71625, Note_on_c, 0, 59, 86
1, 71629, Note_on_c, 0, 71, 83
1, 71629, Note_on_c, 0, 54, 93
1, 71637, Note_on_c, 0, 50, 71
1, 71656, Note_on_c, 0, 54, 0
1, 71656, Note_on_c, 0, 59, 0
1, 71673, Note_on_c, 0, 50, 0
1, 71712, Note_on_c, 0, 66, 0
1, 71723, Note_on_c, 0, 71, 0
1, 71849, Note_on_c, 0, 76, 99
1, 71852, Note_on_c, 0, 67, 88
1, 71852, Note_on_c, 0, 60, 96
1, 71855, Note_on_c, 0, 64, 98
1, 71855, Note_on_c, 0, 55, 84
1, 71859, Note_on_c, 0, 48, 84
1, 72203, Note_on_c, 0, 52, 96
1, 72230, Note_on_c, 0, 48, 0
1, 72327, Note_on_c, 0, 55, 0
1, 72378, Note_on_c, 0, 72, 90
1, 72384, Control_c, 0, 64, 127
1, 72403, Note_on_c, 0, 60, 0
1, 72414, Note_on_c, 0, 67, 0
1, 72422, Note_on_c, 0, 76, 0
1, 72436, Note_on_c, 0, 64, 0
1, 72481, Note_on_c, 0, 52, 0
1, 72534, Note_on_c, 0, 72, 0
1, 72550, Note_on_c, 0, 74, 100
1, 72556, Note_on_c, 0, 59, 79
1, 72556, Note_on_c, 0, 62, 80
1, 72556, Note_on_c, 0, 67, 73
1, 72564, Note_on_c, 0, 55, 81
1, 72598, Note_on_c, 0, 62, 0
1, 72606, Note_on_c, 0, 67, 0
1, 72606, Note_on_c, 0, 55, 0
1, 72635, Note_on_c, 0, 59, 0
1, 72635, Note_on_c, 0, 74, 0
1, 72660, Control_c, 0, 64, 0
1, 72723, Note_on_c, 0, 67, 88
1, 72832, Note_on_c, 0, 67, 0
1, 72952, Note_on_c, 0, 74, 86
1, 72952, Note_on_c, 0, 59, 53
1, 72962, Note_on_c, 0, 47, 42
1, 72962, Note_on_c, 0, 62, 51
1, 72962, Note_on_c, 0, 67, 52
1, 72983, Control_c, 0, 64, 127
1, 73133, Note_on_c, 0, 59, 0
1, 73180, Note_on_c, 0, 47, 0
1, 73205, Note_on_c, 0, 62, 0
1, 73283, Note_on_c, 0, 74, 0
1, 73383, Note_on_c, 0, 46, 53
1, 73387, Note_on_c, 0, 58, 60
1, 73465, Note_on_c, 0, 67, 0
1, 73564, Note_on_c, 0, 73, 83
1, 73575, Note_on_c, 0, 61, 82
1, 73579, Note_on_c, 0, 58, 0
1, 73620, Note_on_c, 0, 46, 0
1, 73635, Note_on_c, 0, 61, 0
1, 73693, Note_on_c, 0, 73, 0
1, 73785, Note_on_c, 0, 72, 94
1, 73791, Note_on_c, 0, 50, 33
1, 73795, Note_on_c, 0, 57, 58
1, 73795, Note_on_c, 0, 60, 69
1, 73798, Note_on_c, 0, 45, 38
1, 73798, Control_c, 0, 64, 0
1, 73974, Note_on_c, 0, 50, 0
1, 73990, Note_on_c, 0, 45, 0
1, 73990, Control_c, 0, 64, 127
1, 74005, Note_on_c, 0, 57, 0
1, 74030, Note_on_c, 0, 72, 0
1, 74044, Note_on_c, 0, 60, 0
1, 74153, Note_on_c, 0, 56, 80
1, 74156, Note_on_c, 0, 71, 94
1, 74160, Note_on_c, 0, 59, 68
1, 74160, Note_on_c, 0, 44, 70
1, 74167, Note_on_c, 0, 65, 53
1, 74194, Note_on_c, 0, 44, 0
1, 74194, Note_on_c, 0, 59, 0
1, 74203, Note_on_c, 0, 65, 0
1, 74206, Note_on_c, 0, 71, 0
1, 74214, Note_on_c, 0, 56, 0
1, 74300, Note_on_c, 0, 73, 37
1, 74347, Note_on_c, 0, 73, 0
1, 74367, Note_on_c, 0, 77, 103
1, 74373, Note_on_c, 0, 65, 80
1, 74378, Note_on_c, 0, 68, 57
1, 74378, Note_on_c, 0, 59, 74
1, 74386, Note_on_c, 0, 56, 52
1, 74400, Note_on_c, 0, 47, 43
1, 74450, Note_on_c, 0, 47, 0
1, 74459, Note_on_c, 0, 59, 0
1, 74479, Note_on_c, 0, 65, 0
1, 74487, Note_on_c, 0, 77, 0
1, 74492, Note_on_c, 0, 56, 0
1, 74521, Note_on_c, 0, 68, 0
1, 74554, Control_c, 0, 64, 0
1, 74578, Note_on_c, 0, 76, 88
1, 74582, Note_on_c, 0, 60, 64
1, 74587, Note_on_c, 0, 64, 85
1, 74600, Note_on_c, 0, 48, 43
1, 74600, Note_on_c, 0, 57, 46
1, 74607, Note_on_c, 0, 69, 50
1, 74684, Note_on_c, 0, 69, 0
1, 74688, Note_on_c, 0, 76, 0
1, 74709, Note_on_c, 0, 48, 0
1, 74709, Note_on_c, 0, 64, 0
1, 74734, Control_c, 0, 64, 127
1, 74751, Note_on_c, 0, 60, 0
1, 74751, Note_on_c, 0, 69, 75
1, 74819, Note_on_c, 0, 50, 49
1, 74824, Note_on_c, 0, 57, 0
1, 74860, Note_on_c, 0, 55, 44
1, 74913, Control_c, 0, 64, 0
1, 74933, Note_on_c, 0, 59, 57
1, 74944, Note_on_c, 0, 74, 84
1, 74966, Note_on_c, 0, 69, 0
1, 74966, Note_on_c, 0, 62, 29
1, 74972, Note_on_c, 0, 67, 46
1, 75039, Note_on_c, 0, 55, 0
1, 75088, Note_on_c, 0, 62, 0
1, 75141, Control_c, 0, 64, 127
1, 75152, Note_on_c, 0, 55, 97
1, 75158, Note_on_c, 0, 67, 0
1, 75186, Note_on_c, 0, 59, 0
1, 75239, Note_on_c, 0, 74, 0
1, 75369, Note_on_c, 0, 50, 0
1, 75454, Note_on_c, 0, 62, 75
1, 75478, Note_on_c, 0, 55, 0
1, 75656, Note_on_c, 0, 71, 83
1, 75860, Control_c, 0, 64, 0
1, 75883, Note_on_c, 0, 71, 0
1, 75890, Note_on_c, 0, 69, 64
1, 75890, Note_on_c, 0, 60, 55
1, 75897, Note_on_c, 0, 66, 36
1, 75915, Note_on_c, 0, 50, 45
1, 76080, Note_on_c, 0, 66, 0
1, 76088, Control_c, 0, 64, 127
1, 76092, Note_on_c, 0, 69, 0
1, 76103, Note_on_c, 0, 71, 69
1, 76111, Note_on_c, 0, 50, 0
1, 76122, Note_on_c, 0, 60, 0
1, 76175, Note_on_c, 0, 71, 0
1, 76303, Note_on_c, 0, 59, 38
1, 76303, Note_on_c, 0, 67, 68
1, 76312, Note_on_c, 0, 55, 60
1, 76339, Note_on_c, 0, 67, 0
1, 76339, Note_on_c, 0, 62, 0
1, 76351, Note_on_c, 0, 59, 0
1, 76351, Note_on_c, 0, 55, 0
1, 76521, Note_on_c, 0, 71, 79
1, 76521, Note_on_c, 0, 59, 65
1, 76521, Note_on_c, 0, 74, 106
1, 76521, Note_on_c, 0, 62, 87
1, 76524, Note_on_c, 0, 55, 64
1, 76528, Note_on_c, 0, 67, 78
1, 76557, Note_on_c, 0, 59, 0
1, 76560, Note_on_c, 0, 71, 0
1, 76573, Note_on_c, 0, 67, 0
1, 76621, Note_on_c, 0, 62, 0
1, 76629, Note_on_c, 0, 74, 0
1, 76687, Note_on_c, 0, 55, 0
1, 76710, Note_on_c, 0, 52, 62
1, 76755, Note_on_c, 0, 71, 88
1, 76755, Note_on_c, 0, 79, 109
1, 76755, Note_on_c, 0, 64, 77
1, 76760, Note_on_c, 0, 67, 70
1, 76760, Note_on_c, 0, 59, 39
1, 76807, Control_c, 0, 64, 0
1, 77099, Note_on_c, 0, 52, 0
1, 77171, Note_on_c, 0, 55, 80
1, 77227, Control_c, 0, 64, 127
1, 77248, Note_on_c, 0, 71, 0
1, 77262, Note_on_c, 0, 79, 0
1, 77292, Note_on_c, 0, 59, 0
1, 77329, Note_on_c, 0, 64, 0
1, 77368, Note_on_c, 0, 67, 0
1, 77368, Note_on_c, 0, 76, 91
1, 77479, Note_on_c, 0, 55, 0
1, 77535, Note_on_c, 0, 76, 0
1, 77538, Control_c, 0, 64, 0
1, 77554, Note_on_c, 0, 78, 89
1, 77554, Note_on_c, 0, 71, 64
1, 77559, Note_on_c, 0, 66, 71
1, 77563, Note_on_c, 0, 62, 79
1, 77563, Note_on_c, 0, 59, 75
1, 77594, Note_on_c, 0, 59, 0
1, 77594, Note_on_c, 0, 71, 0
1, 77599, Note_on_c, 0, 62, 0
1, 77607, Note_on_c, 0, 66, 0
1, 77637, Note_on_c, 0, 78, 0
1, 77743, Note_on_c, 0, 71, 90
1, 77743, Note_on_c, 0, 66, 75
1, 77743, Note_on_c, 0, 54, 81
1, 77743, Note_on_c, 0, 59, 79
1, 77759, Note_on_c, 0, 50, 51
1, 77782, Note_on_c, 0, 59, 0
1, 77790, Note_on_c, 0, 54, 0
1, 77802, Note_on_c, 0, 50, 0
1, 77833, Note_on_c, 0, 71, 0
1, 77836, Note_on_c, 0, 66, 0
1, 77836, Control_c, 0, 64, 127
1, 77861, Control_c, 0, 64, 0
1, 77964, Note_on_c, 0, 76, 91
1, 77964, Note_on_c, 0, 64, 67
1, 77969, Note_on_c, 0, 60, 67
1, 77969, Note_on_c, 0, 67, 71
1, 77969, Note_on_c, 0, 55, 59
1, 77978, Note_on_c, 0, 48, 47
1, 78113, Control_c, 0, 64, 127
1, 78304, Control_c, 0, 64, 0
1, 78339, Note_on_c, 0, 48, 0
1, 78339, Note_on_c, 0, 52, 72
1, 78485, Control_c, 0, 64, 127
1, 78493, Note_on_c, 0, 55, 0
1, 78520, Note_on_c, 0, 76, 0
1, 78540, Note_on_c, 0, 67, 0
1, 78546, Note_on_c, 0, 60, 0
1, 78549, Note_on_c, 0, 72, 82
1, 78563, Note_on_c, 0, 64, 0
1, 78676, Note_on_c, 0, 52, 0
1, 78712, Control_c, 0, 64, 0
1, 78718, Note_on_c, 0, 72, 0
1, 78729, Note_on_c, 0, 74, 89
1, 78732, Note_on_c, 0, 67, 53
1, 78735, Note_on_c, 0, 59, 49
1, 78735, Note_on_c, 0, 55, 47
1, 78738, Note_on_c, 0, 62, 67
1, 78790, Note_on_c, 0, 62, 0
1, 78790, Note_on_c, 0, 67, 0
1, 78844, Note_on_c, 0, 74, 0
1, 78844, Note_on_c, 0, 55, 0
1, 78858, Note_on_c, 0, 59, 0
1, 78869, Control_c, 0, 64, 127
1, 78929, Note_on_c, 0, 67, 95
1, 79039, Note_on_c, 0, 67, 0
1, 79166, Note_on_c, 0, 59, 73
1, 79166, Note_on_c, 0, 74, 92
1, 79166, Note_on_c, 0, 67, 72
1, 79170, Note_on_c, 0, 62, 77
1, 79178, Note_on_c, 0, 47, 55
1, 79276, Control_c, 0, 64, 0
1, 79420, Control_c, 0, 64, 127
1, 79467, Note_on_c, 0, 59, 0
1, 79485, Note_on_c, 0, 47, 0
1, 79574, Note_on_c, 0, 58, 74
1, 79584, Note_on_c, 0, 74, 0
1, 79584, Note_on_c, 0, 46, 68
1, 79607, Note_on_c, 0, 62, 0
1, 79748, Note_on_c, 0, 67, 0
1, 79796, Note_on_c, 0, 46, 0
1, 79796, Note_on_c, 0, 73, 86
1, 79796, Note_on_c, 0, 61, 88
1, 79844, Note_on_c, 0, 58, 0
1, 79852, Note_on_c, 0, 61, 0
1, 79905, Note_on_c, 0, 73, 0
1, 80035, Note_on_c, 0, 61, 82
1, 80035, Note_on_c, 0, 64, 92
1, 80035, Note_on_c, 0, 76, 89
1, 80035, Note_on_c, 0, 70, 72
1, 80039, Note_on_c, 0, 49, 41
1, 80039, Note_on_c, 0, 55, 69
1, 80106, Control_c, 0, 64, 0
1, 80223, Note_on_c, 0, 55, 0
1, 80270, Control_c, 0, 64, 127
1, 80322, Note_on_c, 0, 49, 0
1, 80325, Note_on_c, 0, 61, 0
1, 80365, Note_on_c, 0, 70, 0
1, 80386, Note_on_c, 0, 69, 77
1, 80386, Note_on_c, 0, 60, 84
1, 80390, Control_c, 0, 64, 0
1, 80395, Note_on_c, 0, 48, 66
1, 80400, Note_on_c, 0, 54, 73
1, 80439, Note_on_c, 0, 76, 0
1, 80450, Note_on_c, 0, 64, 0
1, 80498, Control_c, 0, 64, 127
1, 80518, Note_on_c, 0, 48, 0
1, 80542, Note_on_c, 0, 60, 0
1, 80542, Note_on_c, 0, 54, 0
1, 80557, Note_on_c, 0, 69, 0
1, 80557, Note_on_c, 0, 63, 93
1, 80560, Note_on_c, 0, 75, 90
1, 80605, Note_on_c, 0, 63, 0
1, 80668, Note_on_c, 0, 75, 0
1, 80732, Note_on_c, 0, 78, 100
1, 80732, Note_on_c, 0, 63, 93
1, 80737, Note_on_c, 0, 66, 82
1, 80737, Note_on_c, 0, 57, 68
1, 80737, Note_on_c, 0, 51, 57
1, 80740, Note_on_c, 0, 72, 77
1, 80797, Control_c, 0, 64, 0
1, 80899, Note_on_c, 0, 72, 0
1, 80907, Note_on_c, 0, 57, 0
1, 80941, Control_c, 0, 64, 127
1, 80969, Note_on_c, 0, 51, 0
1, 80986, Note_on_c, 0, 63, 0
1, 81036, Note_on_c, 0, 62, 96
1, 81041, Note_on_c, 0, 71, 92
1, 81044, Note_on_c, 0, 56, 70
1, 81044, Note_on_c, 0, 50, 81
1, 81061, Control_c, 0, 64, 0
1, 81109, Note_on_c, 0, 66, 0
1, 81136, Note_on_c, 0, 78, 0
1, 81141, Note_on_c, 0, 50, 0
1, 81161, Note_on_c, 0, 56, 0
1, 81169, Control_c, 0, 64, 127
1, 81187, Note_on_c, 0, 71, 0
1, 81190, Note_on_c, 0, 62, 0
1, 81194, Note_on_c, 0, 77, 99
1, 81194, Note_on_c, 0, 65, 90
1, 81233, Note_on_c, 0, 65, 0
1, 81256, Note_on_c, 0, 77, 0
1, 81304, Note_on_c, 0, 53, 96
1, 81331, Note_on_c, 0, 59, 74
1, 81345, Note_on_c, 0, 65, 84
1, 81351, Note_on_c, 0, 80, 102
1, 81351, Note_on_c, 0, 68, 95
1, 81359, Note_on_c, 0, 74, 93
1, 81398, Control_c, 0, 64, 0
1, 81552, Control_c, 0, 64, 127
1, 81557, Note_on_c, 0, 74, 0
1, 81574, Note_on_c, 0, 65, 0
1, 81587, Note_on_c, 0, 59, 0
1, 81598, Note_on_c, 0, 53, 0
1, 81643, Note_on_c, 0, 73, 76
1, 81655, Note_on_c, 0, 64, 94
1, 81663, Note_on_c, 0, 52, 85
1, 81663, Note_on_c, 0, 58, 66
1, 81688, Note_on_c, 0, 68, 0
1, 81737, Note_on_c, 0, 80, 0
1, 81754, Note_on_c, 0, 52, 0
1, 81766, Note_on_c, 0, 58, 0
1, 81800, Note_on_c, 0, 79, 108
1, 81805, Note_on_c, 0, 67, 89
1, 81813, Note_on_c, 0, 64, 0
1, 81832, Note_on_c, 0, 73, 0
1, 81835, Note_on_c, 0, 67, 0
1, 81882, Note_on_c, 0, 79, 0
1, 81894, Note_on_c, 0, 55, 85
1, 81931, Note_on_c, 0, 70, 65
1, 81961, Note_on_c, 0, 61, 79
1, 81994, Note_on_c, 0, 73, 71
1, 82020, Control_c, 0, 64, 0
1, 82020, Note_on_c, 0, 64, 81
1, 82069, Note_on_c, 0, 76, 70
1, 82081, Note_on_c, 0, 55, 0
1, 82084, Note_on_c, 0, 67, 51
1, 82100, Note_on_c, 0, 82, 91
1, 82130, Note_on_c, 0, 73, 0
1, 82134, Note_on_c, 0, 70, 0
1, 82134, Note_on_c, 0, 61, 0
1, 82141, Control_c, 0, 64, 127
1, 82145, Note_on_c, 0, 64, 0
1, 82165, Note_on_c, 0, 76, 0
1, 82197, Note_on_c, 0, 67, 0
1, 82240, Note_on_c, 0, 82, 0
1, 82278, Note_on_c, 0, 58, 60
1, 82312, Note_on_c, 0, 73, 58
1, 82318, Note_on_c, 0, 64, 64
1, 82340, Note_on_c, 0, 67, 58
1, 82351, Note_on_c, 0, 76, 56
1, 82359, Note_on_c, 0, 64, 0
1, 82367, Note_on_c, 0, 58, 0
1, 82373, Note_on_c, 0, 73, 0
1, 82381, Note_on_c, 0, 67, 0
1, 82381, Note_on_c, 0, 70, 74
1, 82385, Note_on_c, 0, 79, 77
1, 82403, Note_on_c, 0, 85, 95
1, 82421, Note_on_c, 0, 79, 0
1, 82421, Note_on_c, 0, 76, 0
1, 82460, Note_on_c, 0, 70, 0
1, 82518, Note_on_c, 0, 85, 0
1, 82541, Note_on_c, 0, 61, 53
1, 82560, Note_on_c, 0, 76, 63
1, 82574, Note_on_c, 0, 67, 61
1, 82590, Note_on_c, 0, 61, 0
1, 82598, Note_on_c, 0, 79, 56
1, 82604, Note_on_c, 0, 76, 0
1, 82610, Note_on_c, 0, 70, 47
1, 82613, Note_on_c, 0, 67, 0
1, 82626, Note_on_c, 0, 73, 77
1, 82626, Note_on_c, 0, 82, 85
1, 82640, Note_on_c, 0, 79, 0
1, 82640, Note_on_c, 0, 88, 96
1, 82651, Note_on_c, 0, 70, 0
1, 82671, Note_on_c, 0, 82, 0
1, 82671, Note_on_c, 0, 88, 0
1, 82691, Note_on_c, 0, 73, 0
1, 82760, Note_on_c, 0, 79, 85
1, 82779, Note_on_c, 0, 70, 50
1, 82790, Note_on_c, 0, 64, 37
1, 82807, Note_on_c, 0, 79, 0
1, 82807, Note_on_c, 0, 82, 49
1, 82819, Note_on_c, 0, 85, 78
1, 82828, Note_on_c, 0, 73, 34
1, 82831, Note_on_c, 0, 64, 0
1, 82831, Note_on_c, 0, 76, 74
1, 82835, Note_on_c, 0, 91, 85
1, 82841, Note_on_c, 0, 70, 0
1, 82847, Note_on_c, 0, 85, 0
1, 82847, Note_on_c, 0, 82, 0
1, 82864, Note_on_c, 0, 91, 0
1, 82878, Note_on_c, 0, 76, 0
1, 82886, Note_on_c, 0, 73, 0
1, 82955, Note_on_c, 0, 82, 81
1, 82986, Note_on_c, 0, 73, 46
1, 82989, Note_on_c, 0, 82, 0
1, 82989, Note_on_c, 0, 85, 53
1, 83019, Note_on_c, 0, 88, 72
1, 83025, Note_on_c, 0, 85, 0
1, 83025, Note_on_c, 0, 73, 0
1, 83030, Note_on_c, 0, 94, 88
1, 83041, Note_on_c, 0, 79, 80
1, 83050, Note_on_c, 0, 88, 0
1, 83073, Note_on_c, 0, 79, 0
1, 83076, Note_on_c, 0, 94, 0
1, 83150, Note_on_c, 0, 85, 69
1, 83158, Note_on_c, 0, 70, 58
1, 83203, Note_on_c, 0, 70, 0
1, 83203, Note_on_c, 0, 88, 44
1, 83212, Note_on_c, 0, 76, 37
1, 83215, Note_on_c, 0, 85, 0
1, 83223, Note_on_c, 0, 79, 41
1, 83234, Note_on_c, 0, 91, 64
1, 83247, Note_on_c, 0, 82, 70
1, 83251, Note_on_c, 0, 97, 86
1, 83254, Note_on_c, 0, 88, 0
1, 83258, Note_on_c, 0, 76, 0
1, 83268, Note_on_c, 0, 91, 0
1, 83268, Note_on_c, 0, 79, 0
1, 83295, Note_on_c, 0, 82, 0
1, 83326, Note_on_c, 0, 97, 0
1, 83378, Note_on_c, 0, 73, 52
1, 83426, Note_on_c, 0, 79, 55
1, 83440, Note_on_c, 0, 88, 59
1, 83463, Note_on_c, 0, 91, 62
1, 83463, Note_on_c, 0, 82, 59
1, 83474, Note_on_c, 0, 79, 0
1, 83477, Note_on_c, 0, 73, 0
1, 83484, Note_on_c, 0, 88, 0
1, 83510, Note_on_c, 0, 94, 70
1, 83526, Note_on_c, 0, 82, 0
1, 83537, Note_on_c, 0, 91, 0
1, 83537, Note_on_c, 0, 85, 57
1, 83552, Note_on_c, 0, 100, 100
1, 83591, Note_on_c, 0, 100, 0
1, 83591, Note_on_c, 0, 94, 0
1, 83747, Note_on_c, 0, 85, 0
1, 83818, Note_on_c, 0, 76, 50
1, 83835, Note_on_c, 0, 79, 64
1, 83867, Note_on_c, 0, 82, 57
1, 83900, Note_on_c, 0, 85, 60
1, 83963, Note_on_c, 0, 88, 77
1, 84013, Note_on_c, 0, 91, 71
1, 84061, Note_on_c, 0, 94, 62
1, 84112, Note_on_c, 0, 97, 57
1, 84200, Note_on_c, 0, 103, 83
1, 84256, Note_on_c, 0, 94, 0
1, 84259, Note_on_c, 0, 91, 0
1, 84268, Note_on_c, 0, 97, 0
1, 84318, Note_on_c, 0, 103, 0
1, 84328, Note_on_c, 0, 88, 0
1, 84502, Note_on_c, 0, 79, 0
1, 84548, Note_on_c, 0, 85, 0
1, 84601, Note_on_c, 0, 82, 0
1, 85080, Note_on_c, 0, 76, 0
1, 85627, Control_c, 0, 64, 0
1, 86401, Note_on_c, 0, 52, 85
1, 86863, Control_c, 0, 64, 127
1, 86869, Note_on_c, 0, 49, 80
1, 86952, Note_on_c, 0, 52, 0
1, 86994, Control_c, 0, 64, 0
1, 87165, Note_on_c, 0, 46, 82
1, 87221, Note_on_c, 0, 49, 0
1, 87221, Control_c, 0, 64, 127
1, 87257, Control_c, 0, 64, 0
1, 87426, Control_c, 0, 64, 127
1, 87493, Note_on_c, 0, 45, 72
1, 87523, Note_on_c, 0, 46, 0
1, 87557, Control_c, 0, 64, 0
1, 88120, Control_c, 0, 64, 127
1, 88226, Note_on_c, 0, 43, 81
1, 88376, Note_on_c, 0, 45, 0
1, 88625, Control_c, 0, 64, 0
1, 88959, Control_c, 0, 64, 127
1, 89217, Note_on_c, 0, 42, 81
1, 89396, Note_on_c, 0, 43, 0
1, 89415, Control_c, 0, 64, 0
1, 89895, Control_c, 0, 64, 127
1, 90078, Note_on_c, 0, 50, 40
1, 90137, Note_on_c, 0, 57, 42
1, 90231, Note_on_c, 0, 62, 22
1, 90262, Note_on_c, 0, 69, 40
1, 90307, Note_on_c, 0, 62, 0
1, 90315, Note_on_c, 0, 72, 44
1, 90379, Note_on_c, 0, 74, 72
1, 90554, Note_on_c, 0, 69, 0
1, 90724, Note_on_c, 0, 72, 0
1, 91195, Note_on_c, 0, 74, 0
1, 92054, Note_on_c, 0, 57, 0
1, 92282, Note_on_c, 0, 50, 0
1, 92864, Note_on_c, 0, 62, 31
1, 92898, Note_on_c, 0, 42, 0
1, 92950, Control_c, 0, 64, 0
1, 93249, Control_c, 0, 64, 127
1, 93324, Note_on_c, 0, 64, 36
1, 93346, Note_on_c, 0, 62, 0
1, 93454, Control_c, 0, 64, 0
1, 93597, Control_c, 0, 64, 127
1, 93646, Note_on_c, 0, 66, 36
1, 93706, Note_on_c, 0, 64, 0
1, 93753, Control_c, 0, 64, 0
1, 93861, Control_c, 0, 64, 127
1, 93923, Note_on_c, 0, 67, 40
1, 93958, Note_on_c, 0, 43, 23
1, 93968, Control_c, 0, 64, 0
1, 93986, Note_on_c, 0, 66, 0
1, 94114, Control_c, 0, 64, 127
1, 94146, Note_on_c, 0, 43, 0
1, 94159, Note_on_c, 0, 69, 43
1, 94223, Note_on_c, 0, 67, 0
1, 94380, Note_on_c, 0, 70, 57
1, 94424, Note_on_c, 0, 50, 31
1, 94429, Note_on_c, 0, 69, 0
1, 94605, Note_on_c, 0, 72, 72
1, 94663, Note_on_c, 0, 70, 0
1, 94692, Note_on_c, 0, 50, 0
1, 94816, Note_on_c, 0, 58, 25
1, 94828, Note_on_c, 0, 62, 28
1, 94836, Note_on_c, 0, 55, 24
1, 94850, Note_on_c, 0, 74, 76
1, 94879, Note_on_c, 0, 72, 0
1, 94928, Control_c, 0, 64, 0
1, 94959, Note_on_c, 0, 58, 0
1, 95035, Note_on_c, 0, 62, 0
1, 95035, Control_c, 0, 64, 127
1, 95112, Note_on_c, 0, 79, 60
1, 95124, Note_on_c, 0, 58, 67
1, 95129, Note_on_c, 0, 74, 0
1, 95177, Note_on_c, 0, 55, 0
1, 95215, Control_c, 0, 64, 0
1, 95335, Control_c, 0, 64, 127
1, 95413, Note_on_c, 0, 78, 55
1, 95424, Note_on_c, 0, 57, 75
1, 95430, Note_on_c, 0, 79, 0
1, 95436, Note_on_c, 0, 58, 0
1, 95527, Control_c, 0, 64, 0
1, 95611, Control_c, 0, 64, 127
1, 95664, Note_on_c, 0, 55, 92
1, 95675, Note_on_c, 0, 79, 78
1, 95711, Note_on_c, 0, 78, 0
1, 95716, Note_on_c, 0, 57, 0
1, 95808, Note_on_c, 0, 55, 0
1, 95833, Note_on_c, 0, 46, 47
1, 95856, Note_on_c, 0, 50, 58
1, 95918, Note_on_c, 0, 54, 90
1, 95948, Note_on_c, 0, 74, 67
1, 95971, Control_c, 0, 64, 0
1, 96009, Note_on_c, 0, 79, 0
1, 96160, Note_on_c, 0, 55, 90
1, 96177, Note_on_c, 0, 50, 0
1, 96196, Note_on_c, 0, 46, 0
1, 96204, Note_on_c, 0, 54, 0
1, 96330, Control_c, 0, 64, 127
1, 96388, Note_on_c, 0, 58, 74
1, 96415, Note_on_c, 0, 55, 0
1, 96415, Control_c, 0, 64, 0
1, 96594, Control_c, 0, 64, 127
1, 96619, Note_on_c, 0, 60, 72
1, 96669, Note_on_c, 0, 58, 0
1, 96702, Control_c, 0, 64, 0
1, 96833, Control_c, 0, 64, 127
1, 96911, Note_on_c, 0, 60, 0
1, 96932, Note_on_c, 0, 62, 57
1, 96990, Control_c, 0, 64, 0
1, 97141, Note_on_c, 0, 74, 0
1, 97145, Control_c, 0, 64, 127
1, 97238, Note_on_c, 0, 74, 73
1, 97352, Note_on_c, 0, 62, 0
1, 97433, Note_on_c, 0, 63, 46
1, 97507, Note_on_c, 0, 67, 39
1, 97546, Note_on_c, 0, 69, 66
1, 97561, Note_on_c, 0, 74, 0
1, 97561, Note_on_c, 0, 48, 31
1, 97613, Control_c, 0, 64, 0
1, 97769, Control_c, 0, 64, 127
1, 97776, Note_on_c, 0, 72, 69
1, 97804, Note_on_c, 0, 67, 0
1, 97854, Note_on_c, 0, 69, 0
1, 97854, Note_on_c, 0, 63, 0
1, 97881, Note_on_c, 0, 48, 0
1, 97950, Note_on_c, 0, 62, 24
1, 97979, Note_on_c, 0, 67, 48
1, 97984, Control_c, 0, 64, 0
1, 97996, Note_on_c, 0, 50, 35
1, 98014, Note_on_c, 0, 70, 60
1, 98070, Note_on_c, 0, 72, 0
1, 98135, Note_on_c, 0, 50, 0
1, 98151, Control_c, 0, 64, 127
1, 98215, Note_on_c, 0, 63, 70
1, 98380, Note_on_c, 0, 62, 0
1, 98474, Note_on_c, 0, 63, 0
1, 98474, Note_on_c, 0, 61, 63
1, 98491, Note_on_c, 0, 58, 30
1, 98491, Note_on_c, 0, 55, 26
1, 98734, Note_on_c, 0, 63, 63
1, 98762, Note_on_c, 0, 58, 0
1, 98762, Control_c, 0, 64, 0
1, 98801, Note_on_c, 0, 55, 0
1, 98806, Note_on_c, 0, 61, 0
1, 98895, Control_c, 0, 64, 127
1, 98914, Note_on_c, 0, 67, 0
1, 98999, Note_on_c, 0, 63, 0
1, 99101, Note_on_c, 0, 62, 44
1, 99107, Note_on_c, 0, 58, 21
1, 99107, Note_on_c, 0, 55, 31
1, 99123, Control_c, 0, 64, 0
1, 99291, Control_c, 0, 64, 127
1, 99330, Note_on_c, 0, 70, 0
1, 99372, Note_on_c, 0, 62, 0
1, 99402, Note_on_c, 0, 58, 0
1, 99418, Note_on_c, 0, 70, 48
1, 99453, Note_on_c, 0, 55, 0
1, 99655, Note_on_c, 0, 60, 27
1, 99678, Note_on_c, 0, 70, 0
1, 99691, Note_on_c, 0, 66, 42
1, 99703, Note_on_c, 0, 50, 39
1, 99709, Control_c, 0, 64, 0
1, 99915, Note_on_c, 0, 69, 40
1, 99926, Control_c, 0, 64, 127
1, 99979, Note_on_c, 0, 60, 0
1, 100001, Note_on_c, 0, 66, 0
1, 100042, Note_on_c, 0, 50, 0
1, 100168, Note_on_c, 0, 58, 23
1, 100183, Note_on_c, 0, 67, 38
1, 100198, Note_on_c, 0, 43, 38
1, 100249, Control_c, 0, 64, 0
1, 100302, Note_on_c, 0, 69, 0
1, 100416, Note_on_c, 0, 51, 46
1, 100662, Note_on_c, 0, 49, 41
1, 100698, Note_on_c, 0, 51, 0
1, 100940, Note_on_c, 0, 51, 31
1, 100963, Note_on_c, 0, 49, 0
1, 101196, Control_c, 0, 64, 127
1, 101263, Note_on_c, 0, 67, 0
1, 101282, Note_on_c, 0, 50, 35
1, 101297, Note_on_c, 0, 51, 0
1, 101316, Control_c, 0, 64, 0
1, 101444, Note_on_c, 0, 58, 0
1, 101508, Control_c, 0, 64, 127
1, 101508, Note_on_c, 0, 62, 44
1, 101591, Control_c, 0, 64, 0
1, 101700, Control_c, 0, 64, 127
1, 101807, Note_on_c, 0, 64, 53
1, 101812, Note_on_c, 0, 60, 31
1, 101845, Note_on_c, 0, 62, 0
1, 101867, Control_c, 0, 64, 0
1, 102012, Control_c, 0, 64, 127
1, 102035, Note_on_c, 0, 66, 55
1, 102041, Note_on_c, 0, 43, 0
1, 102079, Note_on_c, 0, 50, 0
1, 102090, Note_on_c, 0, 64, 0
1, 102240, Note_on_c, 0, 60, 0
1, 102269, Note_on_c, 0, 58, 30
1, 102272, Note_on_c, 0, 67, 62
1, 102283, Note_on_c, 0, 66, 0
1, 102286, Control_c, 0, 64, 0
1, 102302, Note_on_c, 0, 43, 41
1, 102364, Note_on_c, 0, 58, 0
1, 102382, Note_on_c, 0, 43, 0
1, 102394, Control_c, 0, 64, 127
1, 102436, Note_on_c, 0, 67, 0
1, 102509, Note_on_c, 0, 69, 73
1, 102740, Note_on_c, 0, 70, 73
1, 102773, Note_on_c, 0, 50, 31
1, 102787, Note_on_c, 0, 69, 0
1, 102949, Note_on_c, 0, 72, 84
1, 102985, Note_on_c, 0, 70, 0
1, 103186, Note_on_c, 0, 55, 15
1, 103193, Note_on_c, 0, 58, 23
1, 103210, Note_on_c, 0, 74, 71
1, 103221, Control_c, 0, 64, 0
1, 103243, Note_on_c, 0, 72, 0
1, 103257, Note_on_c, 0, 62, 37
1, 103293, Note_on_c, 0, 50, 0
1, 103328, Note_on_c, 0, 62, 0
1, 103353, Control_c, 0, 64, 127
1, 103363, Note_on_c, 0, 55, 0
1, 103371, Note_on_c, 0, 58, 0
1, 103481, Note_on_c, 0, 74, 0
1, 103481, Note_on_c, 0, 79, 71
1, 103491, Note_on_c, 0, 58, 52
1, 103528, Note_on_c, 0, 79, 0
1, 103656, Note_on_c, 0, 65, 32
1, 103676, Note_on_c, 0, 58, 0
1, 103717, Note_on_c, 0, 72, 40
1, 103731, Note_on_c, 0, 45, 40
1, 103739, Note_on_c, 0, 75, 44
1, 103787, Note_on_c, 0, 57, 74
1, 103809, Control_c, 0, 64, 0
1, 103809, Note_on_c, 0, 77, 59
1, 103896, Note_on_c, 0, 45, 0
1, 103929, Control_c, 0, 64, 127
1, 103932, Note_on_c, 0, 65, 0
1, 103956, Note_on_c, 0, 77, 0
1, 103962, Note_on_c, 0, 72, 0
1, 104040, Note_on_c, 0, 55, 81
1, 104040, Note_on_c, 0, 79, 67
1, 104044, Note_on_c, 0, 57, 0
1, 104082, Note_on_c, 0, 79, 0
1, 104088, Note_on_c, 0, 75, 0
1, 104183, Note_on_c, 0, 55, 0
1, 104207, Note_on_c, 0, 65, 41
1, 104239, Note_on_c, 0, 53, 74
1, 104255, Note_on_c, 0, 70, 38
1, 104268, Note_on_c, 0, 46, 38
1, 104288, Control_c, 0, 64, 0
1, 104291, Note_on_c, 0, 74, 61
1, 104480, Control_c, 0, 64, 127
1, 104486, Note_on_c, 0, 46, 0
1, 104486, Note_on_c, 0, 53, 0
1, 104486, Note_on_c, 0, 55, 76
1, 104697, Note_on_c, 0, 58, 61
1, 104722, Note_on_c, 0, 55, 0
1, 104722, Note_on_c, 0, 65, 0
1, 104920, Note_on_c, 0, 62, 75
1, 105221, Note_on_c, 0, 65, 77
1, 105236, Note_on_c, 0, 62, 0
1, 105268, Note_on_c, 0, 74, 0
1, 105303, Note_on_c, 0, 70, 0
1, 105361, Note_on_c, 0, 65, 0
1, 105441, Note_on_c, 0, 58, 0
1, 105450, Note_on_c, 0, 77, 92
1, 105517, Note_on_c, 0, 77, 0
1, 105595, Note_on_c, 0, 63, 51
1, 105653, Note_on_c, 0, 70, 40
1, 105687, Note_on_c, 0, 74, 65
1, 105729, Note_on_c, 0, 43, 45
1, 105739, Control_c, 0, 64, 0
1, 105739, Note_on_c, 0, 75, 78
1, 105859, Note_on_c, 0, 74, 0
1, 105859, Control_c, 0, 64, 127
1, 105868, Note_on_c, 0, 63, 0
1, 105927, Note_on_c, 0, 75, 0
1, 105998, Note_on_c, 0, 77, 73
1, 106026, Note_on_c, 0, 70, 0
1, 106032, Note_on_c, 0, 77, 0
1, 106124, Note_on_c, 0, 43, 0
1, 106138, Note_on_c, 0, 63, 35
1, 106174, Note_on_c, 0, 45, 35
1, 106196, Note_on_c, 0, 69, 37
1, 106230, Control_c, 0, 64, 0
1, 106264, Note_on_c, 0, 72, 59
1, 106355, Note_on_c, 0, 45, 0
1, 106374, Control_c, 0, 64, 127
1, 106452, Note_on_c, 0, 63, 0
1, 106542, Note_on_c, 0, 55, 32
1, 106725, Note_on_c, 0, 55, 0
1, 106748, Note_on_c, 0, 69, 0
1, 106767, Note_on_c, 0, 57, 39
1, 106988, Note_on_c, 0, 57, 0
1, 106991, Note_on_c, 0, 60, 47
1, 107147, Note_on_c, 0, 72, 0
1, 107222, Note_on_c, 0, 60, 0
1, 107239, Note_on_c, 0, 63, 46
1, 107453, Note_on_c, 0, 63, 0
1, 107467, Note_on_c, 0, 75, 55
1, 107581, Note_on_c, 0, 75, 0
1, 107620, Note_on_c, 0, 62, 29
1, 107687, Note_on_c, 0, 69, 27
1, 107740, Control_c, 0, 64, 0
1, 107749, Note_on_c, 0, 72, 44
1, 107781, Note_on_c, 0, 42, 31
1, 107820, Note_on_c, 0, 74, 49
1, 107926, Note_on_c, 0, 62, 0
1, 107932, Control_c, 0, 64, 127
1, 107976, Note_on_c, 0, 74, 0
1, 108086, Note_on_c, 0, 69, 0
1, 108108, Note_on_c, 0, 75, 48
1, 108118, Note_on_c, 0, 42, 0
1, 108152, Note_on_c, 0, 72, 0
1, 108171, Note_on_c, 0, 75, 0
1, 108274, Note_on_c, 0, 62, 34
1, 108328, Note_on_c, 0, 67, 34
1, 108370, Note_on_c, 0, 43, 29
1, 108373, Note_on_c, 0, 70, 43
1, 108398, Control_c, 0, 64, 0
1, 108603, Note_on_c, 0, 50, 46
1, 108642, Note_on_c, 0, 62, 0
1, 108650, Control_c, 0, 64, 127
1, 108687, Note_on_c, 0, 50, 0
1, 108742, Note_on_c, 0, 43, 0
1, 108838, Note_on_c, 0, 55, 49
1, 108929, Note_on_c, 0, 67, 0
1, 108996, Note_on_c, 0, 55, 0
1, 109057, Note_on_c, 0, 58, 43
1, 109258, Note_on_c, 0, 70, 0
1, 109277, Note_on_c, 0, 58, 0
1, 109291, Note_on_c, 0, 62, 53
1, 109498, Note_on_c, 0, 74, 77
1, 109509, Note_on_c, 0, 62, 0
1, 109636, Note_on_c, 0, 74, 0
1, 109639, Note_on_c, 0, 63, 48
1, 109693, Note_on_c, 0, 69, 39
1, 109717, Note_on_c, 0, 72, 78
1, 109728, Note_on_c, 0, 48, 37
1, 109728, Control_c, 0, 64, 0
1, 109885, Control_c, 0, 64, 127
1, 109934, Note_on_c, 0, 69, 0
1, 109955, Note_on_c, 0, 74, 84
1, 110005, Note_on_c, 0, 72, 0
1, 110035, Note_on_c, 0, 74, 0
1, 110074, Note_on_c, 0, 63, 0
1, 110107, Note_on_c, 0, 62, 43
1, 110164, Note_on_c, 0, 67, 43
1, 110208, Control_c, 0, 64, 0
1, 110213, Note_on_c, 0, 72, 68
1, 110213, Note_on_c, 0, 50, 45
1, 110225, Note_on_c, 0, 48, 0
1, 110389, Control_c, 0, 64, 127
1, 110412, Note_on_c, 0, 62, 0
1, 110423, Note_on_c, 0, 72, 0
1, 110445, Note_on_c, 0, 67, 0
1, 110455, Note_on_c, 0, 70, 60
1, 110492, Note_on_c, 0, 70, 0
1, 110698, Note_on_c, 0, 69, 47
1, 110724, Control_c, 0, 64, 0
1, 110727, Note_on_c, 0, 58, 27
1, 110754, Note_on_c, 0, 62, 50
1, 110891, Control_c, 0, 64, 127
1, 110924, Note_on_c, 0, 58, 0
1, 110957, Note_on_c, 0, 62, 0
1, 110965, Note_on_c, 0, 67, 49
1, 110976, Note_on_c, 0, 69, 0
1, 111255, Note_on_c, 0, 70, 43
1, 111294, Note_on_c, 0, 64, 24
1, 111300, Note_on_c, 0, 67, 0
1, 111311, Control_c, 0, 64, 0
1, 111331, Note_on_c, 0, 61, 37
1, 111646, Control_c, 0, 64, 127
1, 111782, Note_on_c, 0, 61, 0
1, 111907, Note_on_c, 0, 64, 0
1, 111915, Note_on_c, 0, 63, 20
1, 111923, Control_c, 0, 64, 0
1, 111926, Note_on_c, 0, 66, 19
1, 111943, Note_on_c, 0, 60, 25
1, 112125, Control_c, 0, 64, 127
1, 112234, Note_on_c, 0, 70, 0
1, 112263, Note_on_c, 0, 50, 0
1, 112283, Note_on_c, 0, 69, 25
1, 112381, Note_on_c, 0, 66, 0
1, 112409, Note_on_c, 0, 63, 0
1, 112629, Note_on_c, 0, 67, 28
1, 112634, Note_on_c, 0, 62, 15
1, 112654, Control_c, 0, 64, 0
1, 112654, Note_on_c, 0, 55, 24
1, 112682, Note_on_c, 0, 69, 0
1, 112871, Note_on_c, 0, 60, 0
1, 112871, Note_on_c, 0, 55, 0
1, 112912, Note_on_c, 0, 58, 20
1, 112918, Control_c, 0, 64, 127
1, 113152, Note_on_c, 0, 58, 0
1, 113170, Note_on_c, 0, 55, 26
1, 113389, Note_on_c, 0, 55, 0
1, 113404, Note_on_c, 0, 50, 31
1, 113609, Note_on_c, 0, 62, 0
1, 113670, Note_on_c, 0, 50, 0
1, 113759, Note_on_c, 0, 43, 26
1, 113833, Note_on_c, 0, 67, 0
1, 114266, Note_on_c, 0, 67, 28
1, 114373, Note_on_c, 0, 43, 0
1, 114523, Control_c, 0, 64, 0
1, 114557, Note_on_c, 0, 69, 43
1, 114620, Note_on_c, 0, 67, 0
1, 114787, Control_c, 0, 64, 127
1, 114793, Note_on_c, 0, 70, 60
1, 114848, Note_on_c, 0, 69, 0
1, 115025, Note_on_c, 0, 72, 68
1, 115050, Control_c, 0, 64, 0
1, 115061, Note_on_c, 0, 70, 0
1, 115074, Note_on_c, 0, 51, 28
1, 115206, Control_c, 0, 64, 127
1, 115256, Note_on_c, 0, 74, 85
1, 115319, Note_on_c, 0, 72, 0
1, 115353, Note_on_c, 0, 51, 0
1, 115468, Note_on_c, 0, 75, 86
1, 115492, Note_on_c, 0, 65, 34
1, 115520, Note_on_c, 0, 74, 0
1, 115688, Note_on_c, 0, 77, 92
1, 115746, Note_on_c, 0, 75, 0
1, 115896, Note_on_c, 0, 53, 44
1, 115902, Note_on_c, 0, 60, 29
1, 115902, Note_on_c, 0, 79, 84
1, 115902, Note_on_c, 0, 57, 25
1, 115913, Control_c, 0, 64, 0
1, 115954, Note_on_c, 0, 77, 0
1, 116081, Control_c, 0, 64, 127
1, 116149, Note_on_c, 0, 81, 76
1, 116153, Control_c, 0, 64, 0
1, 116191, Note_on_c, 0, 79, 0
1, 116345, Control_c, 0, 64, 127
1, 116404, Control_c, 0, 64, 0
1, 116411, Note_on_c, 0, 82, 57
1, 116431, Note_on_c, 0, 81, 0
1, 116548, Control_c, 0, 64, 127
1, 116620, Control_c, 0, 64, 0
1, 116705, Note_on_c, 0, 84, 64
1, 116723, Note_on_c, 0, 82, 0
1, 116799, Note_on_c, 0, 65, 0
1, 116799, Note_on_c, 0, 57, 0
1, 116808, Note_on_c, 0, 60, 0
1, 116812, Control_c, 0, 64, 127
1, 116816, Note_on_c, 0, 53, 0
1, 117064, Control_c, 0, 64, 0
1, 117072, Note_on_c, 0, 77, 49
1, 117072, Note_on_c, 0, 50, 40
1, 117156, Note_on_c, 0, 84, 0
1, 117343, Note_on_c, 0, 53, 75
1, 117351, Control_c, 0, 64, 127
1, 117577, Note_on_c, 0, 58, 51
1, 117615, Note_on_c, 0, 53, 0
1, 117640, Control_c, 0, 64, 0
1, 117794, Control_c, 0, 64, 127
1, 117801, Note_on_c, 0, 62, 63
1, 117804, Note_on_c, 0, 50, 0
1, 117877, Note_on_c, 0, 58, 0
1, 118084, Note_on_c, 0, 77, 0
1, 118099, Note_on_c, 0, 62, 0
1, 118099, Note_on_c, 0, 65, 66
1, 118404, Note_on_c, 0, 77, 73
1, 118668, Note_on_c, 0, 79, 89
1, 118668, Note_on_c, 0, 58, 36
1, 118668, Control_c, 0, 64, 0
1, 118701, Note_on_c, 0, 62, 36
1, 118705, Note_on_c, 0, 53, 49
1, 118733, Note_on_c, 0, 77, 0
1, 118813, Control_c, 0, 64, 127
1, 118850, Note_on_c, 0, 62, 0
1, 118850, Note_on_c, 0, 65, 0
1, 118897, Note_on_c, 0, 58, 0
1, 118902, Note_on_c, 0, 82, 74
1, 118905, Note_on_c, 0, 53, 0
1, 118967, Note_on_c, 0, 79, 0
1, 119184, Note_on_c, 0, 48, 27
1, 119187, Note_on_c, 0, 75, 55
1, 119264, Note_on_c, 0, 82, 0
1, 119365, Control_c, 0, 64, 0
1, 119425, Note_on_c, 0, 53, 76
1, 119566, Note_on_c, 0, 48, 0
1, 119570, Control_c, 0, 64, 127
1, 119676, Note_on_c, 0, 57, 62
1, 119690, Note_on_c, 0, 53, 0
1, 119885, Note_on_c, 0, 57, 0
1, 119889, Note_on_c, 0, 63, 77
1, 120113, Note_on_c, 0, 63, 0
1, 120180, Note_on_c, 0, 65, 60
1, 120217, Note_on_c, 0, 75, 0
1, 120467, Note_on_c, 0, 75, 60
1, 120524, Note_on_c, 0, 65, 0
1, 120755, Note_on_c, 0, 63, 32
1, 120755, Note_on_c, 0, 77, 60
1, 120805, Note_on_c, 0, 57, 10
1, 120894, Note_on_c, 0, 63, 0
1, 120894, Note_on_c, 0, 75, 0
1, 120921, Note_on_c, 0, 57, 0
1, 121009, Note_on_c, 0, 81, 51
1, 121122, Note_on_c, 0, 77, 0
1, 121309, Note_on_c, 0, 46, 25
1, 121336, Note_on_c, 0, 74, 51
1, 121367, Control_c, 0, 64, 0
1, 121417, Note_on_c, 0, 81, 0
1, 121630, Control_c, 0, 64, 127
1, 121646, Note_on_c, 0, 53, 11
1, 121699, Note_on_c, 0, 46, 0
1, 121726, Note_on_c, 0, 53, 0
1, 121869, Note_on_c, 0, 58, 16
1, 122006, Note_on_c, 0, 58, 0
1, 122131, Note_on_c, 0, 62, 21
1, 122223, Note_on_c, 0, 62, 0
1, 122340, Note_on_c, 0, 74, 0
1, 122453, Note_on_c, 0, 65, 24
1, 122704, Note_on_c, 0, 65, 0
1, 122830, Note_on_c, 0, 67, 32
1, 123117, Note_on_c, 0, 69, 39
1, 123126, Note_on_c, 0, 62, 21
1, 123134, Note_on_c, 0, 58, 13
1, 123148, Note_on_c, 0, 53, 34
1, 123193, Note_on_c, 0, 67, 0
1, 123268, Note_on_c, 0, 53, 0
1, 123284, Note_on_c, 0, 62, 0
1, 123346, Note_on_c, 0, 70, 54
1, 123365, Note_on_c, 0, 58, 0
1, 123382, Note_on_c, 0, 69, 0
1, 123580, Note_on_c, 0, 72, 60
1, 123612, Note_on_c, 0, 70, 0
1, 123612, Note_on_c, 0, 51, 28
1, 123633, Control_c, 0, 64, 0
1, 123810, Note_on_c, 0, 74, 84
1, 123835, Control_c, 0, 64, 127
1, 123866, Note_on_c, 0, 72, 0
1, 123916, Note_on_c, 0, 51, 0
1, 124030, Note_on_c, 0, 75, 85
1, 124066, Note_on_c, 0, 65, 37
1, 124070, Note_on_c, 0, 74, 0
1, 124237, Note_on_c, 0, 77, 94
1, 124287, Note_on_c, 0, 75, 0
1, 124459, Note_on_c, 0, 79, 96
1, 124459, Note_on_c, 0, 60, 33
1, 124468, Note_on_c, 0, 57, 24
1, 124474, Note_on_c, 0, 53, 39
1, 124495, Control_c, 0, 64, 0
1, 124507, Note_on_c, 0, 77, 0
1, 124651, Control_c, 0, 64, 127
1, 124671, Note_on_c, 0, 81, 93
1, 124724, Note_on_c, 0, 79, 0
1, 124771, Control_c, 0, 64, 0
1, 124866, Control_c, 0, 64, 127
1, 124892, Note_on_c, 0, 82, 78
1, 124939, Note_on_c, 0, 81, 0
1, 125012, Note_on_c, 0, 65, 0
1, 125037, Note_on_c, 0, 57, 0
1, 125044, Note_on_c, 0, 60, 0
1, 125076, Note_on_c, 0, 53, 0
1, 125162, Note_on_c, 0, 84, 81
1, 125215, Note_on_c, 0, 82, 0
1, 125390, Note_on_c, 0, 50, 33
1, 125434, Note_on_c, 0, 74, 71
1, 125504, Note_on_c, 0, 84, 0
1, 125550, Control_c, 0, 64, 0
1, 125650, Note_on_c, 0, 54, 54
1, 125741, Control_c, 0, 64, 127
1, 125869, Note_on_c, 0, 57, 53
1, 125883, Note_on_c, 0, 54, 0
1, 125894, Note_on_c, 0, 50, 0
1, 126062, Note_on_c, 0, 57, 0
1, 126080, Note_on_c, 0, 62, 58
1, 126279, Note_on_c, 0, 62, 0
1, 126290, Note_on_c, 0, 74, 0
1, 126293, Note_on_c, 0, 66, 46
1, 126508, Note_on_c, 0, 74, 83
1, 126523, Note_on_c, 0, 66, 0
1, 126725, Note_on_c, 0, 76, 78
1, 126761, Note_on_c, 0, 57, 25
1, 126766, Note_on_c, 0, 62, 27
1, 126796, Note_on_c, 0, 74, 0
1, 126836, Note_on_c, 0, 62, 0
1, 126836, Note_on_c, 0, 57, 0
1, 126928, Note_on_c, 0, 78, 81
1, 127028, Note_on_c, 0, 76, 0
1, 127118, Control_c, 0, 64, 0
1, 127148, Note_on_c, 0, 50, 39
1, 127153, Note_on_c, 0, 79, 89
1, 127218, Note_on_c, 0, 78, 0
1, 127365, Note_on_c, 0, 55, 51
1, 127515, Control_c, 0, 64, 127
1, 127535, Note_on_c, 0, 50, 0
1, 127540, Note_on_c, 0, 58, 47
1, 127594, Note_on_c, 0, 55, 0
1, 127733, Note_on_c, 0, 58, 0
1, 127746, Note_on_c, 0, 62, 52
1, 127978, Note_on_c, 0, 62, 0
1, 127994, Note_on_c, 0, 67, 63
1, 128229, Note_on_c, 0, 79, 0
1, 128232, Note_on_c, 0, 74, 75
1, 128454, Note_on_c, 0, 67, 0
1, 128460, Note_on_c, 0, 72, 73
1, 128469, Note_on_c, 0, 62, 36
1, 128494, Note_on_c, 0, 55, 24
1, 128522, Note_on_c, 0, 74, 0
1, 128560, Note_on_c, 0, 55, 0
1, 128661, Note_on_c, 0, 70, 69
1, 128691, Note_on_c, 0, 62, 0
1, 128750, Note_on_c, 0, 72, 0
1, 128845, Control_c, 0, 64, 0
1, 128869, Note_on_c, 0, 50, 36
1, 128880, Note_on_c, 0, 78, 59
1, 128919, Note_on_c, 0, 70, 0
1, 129082, Note_on_c, 0, 54, 50
1, 129288, Control_c, 0, 64, 127
1, 129318, Note_on_c, 0, 57, 49
1, 129471, Note_on_c, 0, 54, 0
1, 129501, Note_on_c, 0, 50, 0
1, 129536, Note_on_c, 0, 57, 0
1, 129536, Note_on_c, 0, 62, 45
1, 129780, Note_on_c, 0, 66, 34
1, 129797, Note_on_c, 0, 62, 0
1, 129997, Note_on_c, 0, 72, 59
1, 130048, Note_on_c, 0, 66, 0
1, 130160, Note_on_c, 0, 78, 0
1, 130203, Note_on_c, 0, 62, 23
1, 130212, Note_on_c, 0, 60, 15
1, 130215, Note_on_c, 0, 57, 15
1, 130232, Note_on_c, 0, 70, 54
1, 130304, Note_on_c, 0, 60, 0
1, 130304, Note_on_c, 0, 72, 0
1, 130320, Note_on_c, 0, 57, 0
1, 130421, Note_on_c, 0, 62, 0
1, 130438, Note_on_c, 0, 69, 62
1, 130471, Note_on_c, 0, 70, 0
1, 130600, Note_on_c, 0, 50, 35
1, 130642, Control_c, 0, 64, 0
1, 130650, Note_on_c, 0, 69, 0
1, 130650, Note_on_c, 0, 79, 68
1, 130786, Control_c, 0, 64, 127
1, 130852, Note_on_c, 0, 55, 36
1, 130852, Note_on_c, 0, 74, 55
1, 130856, Note_on_c, 0, 79, 0
1, 130920, Note_on_c, 0, 74, 0
1, 130937, Note_on_c, 0, 75, 55
1, 131001, Note_on_c, 0, 74, 68
1, 131047, Note_on_c, 0, 75, 0
1, 131098, Note_on_c, 0, 58, 32
1, 131101, Note_on_c, 0, 73, 63
1, 131106, Note_on_c, 0, 74, 0
1, 131157, Control_c, 0, 64, 0
1, 131302, Control_c, 0, 64, 127
1, 131318, Note_on_c, 0, 74, 71
1, 131345, Note_on_c, 0, 73, 0
1, 131359, Note_on_c, 0, 62, 28
1, 131589, Note_on_c, 0, 75, 49
1, 131594, Note_on_c, 0, 74, 0
1, 131602, Control_c, 0, 64, 0
1, 131614, Note_on_c, 0, 67, 21
1, 131788, Note_on_c, 0, 62, 0
1, 131794, Control_c, 0, 64, 127
1, 131805, Note_on_c, 0, 55, 0
1, 131834, Note_on_c, 0, 58, 0
1, 131872, Note_on_c, 0, 74, 51
1, 131920, Note_on_c, 0, 75, 0
1, 132087, Note_on_c, 0, 67, 0
1, 132109, Note_on_c, 0, 70, 41
1, 132142, Note_on_c, 0, 74, 0
1, 132170, Note_on_c, 0, 58, 15
1, 132170, Note_on_c, 0, 55, 15
1, 132170, Note_on_c, 0, 62, 11
1, 132176, Control_c, 0, 64, 0
1, 132285, Note_on_c, 0, 50, 0
1, 132285, Control_c, 0, 64, 127
1, 132298, Note_on_c, 0, 62, 0
1, 132334, Note_on_c, 0, 67, 41
1, 132394, Note_on_c, 0, 55, 0
1, 132402, Note_on_c, 0, 70, 0
1, 132405, Note_on_c, 0, 58, 0
1, 132485, Note_on_c, 0, 50, 26
1, 132632, Note_on_c, 0, 57, 20
1, 132647, Note_on_c, 0, 74, 54
1, 132680, Control_c, 0, 64, 0
1, 132727, Note_on_c, 0, 67, 0
1, 132811, Note_on_c, 0, 50, 0
1, 132811, Control_c, 0, 64, 127
1, 132853, Note_on_c, 0, 57, 0
1, 132973, Note_on_c, 0, 67, 38
1, 133170, Note_on_c, 0, 74, 0
1, 133324, Note_on_c, 0, 66, 44
1, 133335, Note_on_c, 0, 74, 38
1, 133346, Note_on_c, 0, 67, 0
1, 133447, Control_c, 0, 64, 0
1, 133578, Control_c, 0, 64, 127
1, 133658, Note_on_c, 0, 63, 54
1, 133674, Note_on_c, 0, 66, 0
1, 133711, Control_c, 0, 64, 0
1, 133855, Control_c, 0, 64, 127
1, 133940, Note_on_c, 0, 63, 0
1, 133953, Note_on_c, 0, 62, 56
1, 133987, Control_c, 0, 64, 0
1, 134095, Control_c, 0, 64, 127
1, 134103, Note_on_c, 0, 62, 0
1, 134220, Note_on_c, 0, 62, 60
1, 134224, Note_on_c, 0, 60, 34
1, 134227, Note_on_c, 0, 74, 0
1, 134510, Note_on_c, 0, 60, 0
1, 134510, Note_on_c, 0, 64, 69
1, 134521, Note_on_c, 0, 58, 30
1, 134527, Note_on_c, 0, 62, 0
1, 134681, Note_on_c, 0, 58, 0
1, 134759, Note_on_c, 0, 66, 67
1, 134789, Note_on_c, 0, 57, 40
1, 134797, Note_on_c, 0, 64, 0
1, 134925, Note_on_c, 0, 57, 0
1, 135004, Note_on_c, 0, 67, 76
1, 135039, Note_on_c, 0, 43, 35
1, 135039, Control_c, 0, 64, 0
1, 135092, Note_on_c, 0, 66, 0
1, 135184, Control_c, 0, 64, 127
1, 135216, Note_on_c, 0, 43, 0
1, 135230, Note_on_c, 0, 69, 68
1, 135305, Note_on_c, 0, 67, 0
1, 135446, Note_on_c, 0, 70, 77
1, 135458, Note_on_c, 0, 50, 42
1, 135499, Note_on_c, 0, 69, 0
1, 135672, Note_on_c, 0, 72, 86
1, 135708, Note_on_c, 0, 70, 0
1, 135904, Note_on_c, 0, 74, 80
1, 135910, Note_on_c, 0, 55, 34
1, 135910, Note_on_c, 0, 62, 40
1, 135915, Note_on_c, 0, 58, 25
1, 135915, Control_c, 0, 64, 0
1, 135951, Note_on_c, 0, 72, 0
1, 136007, Note_on_c, 0, 58, 0
1, 136084, Control_c, 0, 64, 127
1, 136131, Note_on_c, 0, 62, 0
1, 136170, Note_on_c, 0, 79, 62
1, 136177, Note_on_c, 0, 58, 60
1, 136184, Note_on_c, 0, 74, 0
1, 136202, Note_on_c, 0, 50, 0
1, 136236, Note_on_c, 0, 55, 0
1, 136276, Control_c, 0, 64, 0
1, 136371, Control_c, 0, 64, 127
1, 136458, Note_on_c, 0, 78, 61
1, 136461, Note_on_c, 0, 58, 0
1, 136464, Note_on_c, 0, 57, 70
1, 136496, Note_on_c, 0, 79, 0
1, 136702, Note_on_c, 0, 55, 80
1, 136720, Note_on_c, 0, 79, 60
1, 136753, Note_on_c, 0, 57, 0
1, 136780, Note_on_c, 0, 78, 0
1, 136811, Note_on_c, 0, 55, 0
1, 136868, Note_on_c, 0, 46, 40
1, 136898, Note_on_c, 0, 50, 39
1, 136950, Note_on_c, 0, 54, 72
1, 136959, Control_c, 0, 64, 0
1, 136978, Note_on_c, 0, 74, 60
1, 137017, Note_on_c, 0, 79, 0
1, 137210, Note_on_c, 0, 54, 0
1, 137210, Control_c, 0, 64, 127
1, 137223, Note_on_c, 0, 55, 74
1, 137241, Note_on_c, 0, 46, 0
1, 137246, Note_on_c, 0, 50, 0
1, 137460, Note_on_c, 0, 58, 49
1, 137497, Note_on_c, 0, 55, 0
1, 137558, Control_c, 0, 64, 0
1, 137711, Note_on_c, 0, 60, 47
1, 137725, Control_c, 0, 64, 127
1, 137776, Note_on_c, 0, 58, 0
1, 138051, Note_on_c, 0, 60, 0
1, 138054, Note_on_c, 0, 62, 41
1, 138073, Control_c, 0, 64, 0
1, 138188, Note_on_c, 0, 74, 0
1, 138205, Control_c, 0, 64, 127
1, 138361, Note_on_c, 0, 74, 55
1, 138418, Note_on_c, 0, 62, 0
1, 138535, Note_on_c, 0, 63, 34
1, 138566, Note_on_c, 0, 74, 0
1, 138623, Note_on_c, 0, 67, 30
1, 138645, Note_on_c, 0, 48, 19
1, 138667, Note_on_c, 0, 69, 48
1, 138756, Control_c, 0, 64, 0
1, 138870, Note_on_c, 0, 67, 0
1, 138893, Note_on_c, 0, 72, 47
1, 138900, Control_c, 0, 64, 127
1, 138937, Note_on_c, 0, 69, 0
1, 138995, Note_on_c, 0, 63, 0
1, 139013, Note_on_c, 0, 48, 0
1, 139082, Note_on_c, 0, 62, 16
1, 139104, Control_c, 0, 64, 0
1, 139109, Note_on_c, 0, 67, 31
1, 139109, Note_on_c, 0, 50, 36
1, 139143, Note_on_c, 0, 70, 42
1, 139159, Note_on_c, 0, 72, 0
1, 139266, Note_on_c, 0, 50, 0
1, 139283, Control_c, 0, 64, 127
1, 139313, Note_on_c, 0, 62, 0
1, 139350, Note_on_c, 0, 63, 69
1, 139591, Note_on_c, 0, 63, 0
1, 139609, Note_on_c, 0, 61, 57
1, 139614, Note_on_c, 0, 58, 27
1, 139626, Note_on_c, 0, 55, 16
1, 139667, Control_c, 0, 64, 0
1, 139798, Control_c, 0, 64, 127
1, 139857, Note_on_c, 0, 63, 45
1, 139870, Control_c, 0, 64, 0
1, 139873, Note_on_c, 0, 58, 0
1, 139893, Note_on_c, 0, 55, 0
1, 139904, Note_on_c, 0, 61, 0
1, 140026, Control_c, 0, 64, 127
1, 140096, Note_on_c, 0, 67, 0
1, 140129, Note_on_c, 0, 63, 0
1, 140219, Note_on_c, 0, 62, 40
1, 140227, Note_on_c, 0, 58, 10
1, 140233, Note_on_c, 0, 55, 16
1, 140243, Control_c, 0, 64, 0
1, 140399, Control_c, 0, 64, 127
1, 140414, Note_on_c, 0, 70, 0
1, 140436, Note_on_c, 0, 55, 0
1, 140474, Note_on_c, 0, 62, 0
1, 140485, Note_on_c, 0, 58, 0
1, 140539, Note_on_c, 0, 70, 41
1, 140798, Note_on_c, 0, 66, 36
1, 140801, Note_on_c, 0, 70, 0
1, 140815, Note_on_c, 0, 60, 38
1, 140823, Note_on_c, 0, 50, 33
1, 140842, Control_c, 0, 64, 0
1, 141062, Note_on_c, 0, 69, 41
1, 141070, Control_c, 0, 64, 127
1, 141080, Note_on_c, 0, 66, 0
1, 141160, Note_on_c, 0, 60, 0
1, 141247, Note_on_c, 0, 50, 0
1, 141324, Note_on_c, 0, 58, 27
1, 141343, Note_on_c, 0, 67, 32
1, 141343, Note_on_c, 0, 43, 27
1, 141369, Control_c, 0, 64, 0
1, 141470, Note_on_c, 0, 69, 0
1, 141561, Note_on_c, 0, 51, 38
1, 141789, Control_c, 0, 64, 127
1, 141828, Note_on_c, 0, 49, 28
1, 141840, Note_on_c, 0, 51, 0
1, 141848, Control_c, 0, 64, 0
1, 142077, Note_on_c, 0, 49, 0
1, 142080, Note_on_c, 0, 51, 33
1, 142420, Note_on_c, 0, 51, 0
1, 142433, Note_on_c, 0, 50, 35
1, 142637, Note_on_c, 0, 67, 0
1, 142795, Control_c, 0, 64, 127
1, 142795, Note_on_c, 0, 62, 52
1, 142918, Note_on_c, 0, 58, 0
1, 143077, Note_on_c, 0, 64, 63
1, 143080, Note_on_c, 0, 60, 35
1, 143118, Note_on_c, 0, 62, 0
1, 143118, Control_c, 0, 64, 0
1, 143263, Control_c, 0, 64, 127
1, 143308, Note_on_c, 0, 66, 61
1, 143328, Note_on_c, 0, 43, 0
1, 143353, Note_on_c, 0, 64, 0
1, 143361, Note_on_c, 0, 60, 0
1, 143527, Control_c, 0, 64, 0
1, 143547, Note_on_c, 0, 67, 61
1, 143551, Note_on_c, 0, 66, 0
1, 143551, Note_on_c, 0, 58, 41
1, 143570, Note_on_c, 0, 43, 41
1, 143576, Note_on_c, 0, 50, 0
1, 143620, Note_on_c, 0, 58, 0
1, 143647, Control_c, 0, 64, 127
1, 143665, Note_on_c, 0, 67, 0
1, 143690, Note_on_c, 0, 43, 0
1, 143771, Note_on_c, 0, 69, 63
1, 143991, Note_on_c, 0, 70, 72
1, 144012, Note_on_c, 0, 50, 38
1, 144021, Note_on_c, 0, 69, 0
1, 144208, Note_on_c, 0, 72, 74
1, 144211, Note_on_c, 0, 70, 0
1, 144417, Note_on_c, 0, 58, 24
1, 144422, Note_on_c, 0, 55, 27
1, 144428, Note_on_c, 0, 62, 41
1, 144449, Control_c, 0, 64, 0
1, 144456, Note_on_c, 0, 74, 70
1, 144486, Note_on_c, 0, 72, 0
1, 144522, Note_on_c, 0, 50, 0
1, 144551, Note_on_c, 0, 62, 0
1, 144581, Note_on_c, 0, 55, 0
1, 144581, Control_c, 0, 64, 127
1, 144594, Note_on_c, 0, 58, 0
1, 144650, Note_on_c, 0, 74, 0
1, 144725, Note_on_c, 0, 79, 60
1, 144725, Note_on_c, 0, 58, 67
1, 144768, Note_on_c, 0, 79, 0
1, 144877, Note_on_c, 0, 65, 20
1, 144890, Note_on_c, 0, 58, 0
1, 144934, Note_on_c, 0, 72, 29
1, 144934, Note_on_c, 0, 45, 49
1, 144946, Note_on_c, 0, 75, 38
1, 145021, Note_on_c, 0, 57, 68
1, 145021, Control_c, 0, 64, 0
1, 145026, Note_on_c, 0, 77, 64
1, 145079, Note_on_c, 0, 45, 0
1, 145132, Control_c, 0, 64, 127
1, 145154, Note_on_c, 0, 65, 0
1, 145171, Note_on_c, 0, 77, 0
1, 145238, Note_on_c, 0, 72, 0
1, 145255, Note_on_c, 0, 79, 78
1, 145264, Note_on_c, 0, 57, 0
1, 145275, Note_on_c, 0, 55, 67
1, 145294, Note_on_c, 0, 75, 0
1, 145300, Note_on_c, 0, 79, 0
1, 145383, Note_on_c, 0, 55, 0
1, 145399, Note_on_c, 0, 65, 36
1, 145448, Note_on_c, 0, 70, 52
1, 145487, Note_on_c, 0, 46, 38
1, 145534, Note_on_c, 0, 74, 78
1, 145564, Control_c, 0, 64, 0
1, 145564, Note_on_c, 0, 53, 91
1, 145609, Note_on_c, 0, 70, 0
1, 145700, Note_on_c, 0, 65, 0
1, 145743, Control_c, 0, 64, 127
1, 145765, Note_on_c, 0, 74, 0
1, 145784, Note_on_c, 0, 46, 0
1, 145837, Note_on_c, 0, 55, 77
1, 145851, Note_on_c, 0, 53, 0
1, 146019, Note_on_c, 0, 55, 0
1, 146055, Note_on_c, 0, 58, 60
1, 146232, Note_on_c, 0, 58, 0
1, 146280, Note_on_c, 0, 62, 80
1, 146531, Note_on_c, 0, 62, 0
1, 146555, Note_on_c, 0, 65, 74
1, 146679, Note_on_c, 0, 65, 0
1, 146759, Note_on_c, 0, 77, 80
1, 146798, Note_on_c, 0, 77, 0
1, 146873, Note_on_c, 0, 63, 57
1, 146924, Note_on_c, 0, 70, 51
1, 146977, Note_on_c, 0, 74, 62
1, 147025, Note_on_c, 0, 43, 47
1, 147051, Control_c, 0, 64, 0
1, 147051, Note_on_c, 0, 75, 84
1, 147169, Control_c, 0, 64, 127
1, 147193, Note_on_c, 0, 63, 0
1, 147211, Note_on_c, 0, 74, 0
1, 147228, Note_on_c, 0, 75, 0
1, 147291, Note_on_c, 0, 70, 0
1, 147302, Note_on_c, 0, 77, 68
1, 147333, Note_on_c, 0, 77, 0
1, 147405, Note_on_c, 0, 63, 66
1, 147433, Note_on_c, 0, 43, 0
1, 147476, Note_on_c, 0, 69, 46
1, 147498, Note_on_c, 0, 45, 44
1, 147534, Note_on_c, 0, 72, 78
1, 147587, Control_c, 0, 64, 0
1, 147745, Control_c, 0, 64, 127
1, 147762, Note_on_c, 0, 55, 68
1, 147774, Note_on_c, 0, 45, 0
1, 147890, Note_on_c, 0, 63, 0
1, 147990, Note_on_c, 0, 55, 0
1, 147996, Note_on_c, 0, 57, 72
1, 148125, Note_on_c, 0, 69, 0
1, 148213, Note_on_c, 0, 60, 80
1, 148255, Note_on_c, 0, 57, 0
1, 148467, Note_on_c, 0, 72, 0
1, 148528, Note_on_c, 0, 63, 74
1, 148542, Note_on_c, 0, 60, 0
1, 148767, Note_on_c, 0, 75, 71
1, 148798, Note_on_c, 0, 63, 0
1, 148871, Note_on_c, 0, 75, 0
1, 148888, Note_on_c, 0, 62, 46
1, 148943, Note_on_c, 0, 69, 36
1, 149004, Note_on_c, 0, 72, 54
1, 149027, Control_c, 0, 64, 0
1, 149038, Note_on_c, 0, 42, 39
1, 149049, Note_on_c, 0, 74, 69
1, 149219, Control_c, 0, 64, 127
1, 149236, Note_on_c, 0, 74, 0
1, 149236, Note_on_c, 0, 62, 0
1, 149305, Note_on_c, 0, 42, 0
1, 149344, Note_on_c, 0, 69, 0
1, 149344, Note_on_c, 0, 75, 60
1, 149428, Note_on_c, 0, 72, 0
1, 149440, Note_on_c, 0, 75, 0
1, 149480, Note_on_c, 0, 62, 40
1, 149548, Note_on_c, 0, 67, 33
1, 149554, Note_on_c, 0, 43, 35
1, 149565, Control_c, 0, 64, 0
1, 149582, Note_on_c, 0, 70, 53
1, 149790, Note_on_c, 0, 50, 53
1, 149962, Control_c, 0, 64, 127
1, 149974, Note_on_c, 0, 43, 0
1, 149974, Note_on_c, 0, 62, 0
1, 149996, Note_on_c, 0, 50, 0
1, 150022, Note_on_c, 0, 55, 65
1, 150230, Note_on_c, 0, 55, 0
1, 150235, Note_on_c, 0, 67, 0
1, 150238, Note_on_c, 0, 58, 61
1, 150520, Note_on_c, 0, 62, 72
1, 150545, Note_on_c, 0, 58, 0
1, 150612, Note_on_c, 0, 70, 0
1, 150732, Note_on_c, 0, 74, 66
1, 150813, Note_on_c, 0, 62, 0
1, 150827, Note_on_c, 0, 63, 54
1, 150913, Note_on_c, 0, 69, 47
1, 150949, Note_on_c, 0, 74, 0
1, 150961, Note_on_c, 0, 72, 73
1, 150971, Note_on_c, 0, 48, 30
1, 151005, Control_c, 0, 64, 0
1, 151160, Control_c, 0, 64, 127
1, 151192, Note_on_c, 0, 74, 85
1, 151199, Note_on_c, 0, 69, 0
1, 151255, Note_on_c, 0, 72, 0
1, 151278, Note_on_c, 0, 74, 0
1, 151303, Note_on_c, 0, 63, 0
1, 151334, Note_on_c, 0, 62, 44
1, 151406, Note_on_c, 0, 67, 41
1, 151447, Note_on_c, 0, 72, 71
1, 151459, Note_on_c, 0, 50, 46
1, 151479, Note_on_c, 0, 48, 0
1, 151543, Control_c, 0, 64, 0
1, 151681, Note_on_c, 0, 70, 79
1, 151699, Control_c, 0, 64, 127
1, 151704, Note_on_c, 0, 62, 0
1, 151704, Note_on_c, 0, 67, 0
1, 151713, Note_on_c, 0, 72, 0
1, 151745, Note_on_c, 0, 70, 0
1, 151952, Note_on_c, 0, 58, 38
1, 151955, Note_on_c, 0, 69, 51
1, 151977, Note_on_c, 0, 62, 64
1, 152022, Control_c, 0, 64, 0
1, 152167, Control_c, 0, 64, 127
1, 152191, Note_on_c, 0, 62, 0
1, 152213, Note_on_c, 0, 67, 60
1, 152222, Note_on_c, 0, 58, 0
1, 152253, Note_on_c, 0, 69, 0
1, 152506, Note_on_c, 0, 70, 52
1, 152515, Control_c, 0, 64, 0
1, 152537, Note_on_c, 0, 64, 34
1, 152562, Note_on_c, 0, 61, 43
1, 152582, Note_on_c, 0, 67, 0
1, 152922, Control_c, 0, 64, 127
1, 153013, Note_on_c, 0, 61, 0
1, 153122, Note_on_c, 0, 63, 29
1, 153122, Note_on_c, 0, 66, 24
1, 153131, Note_on_c, 0, 60, 31
1, 153150, Control_c, 0, 64, 0
1, 153189, Note_on_c, 0, 64, 0
1, 153330, Control_c, 0, 64, 127
1, 153415, Note_on_c, 0, 70, 0
1, 153459, Note_on_c, 0, 69, 32
1, 153534, Control_c, 0, 64, 0
1, 153543, Note_on_c, 0, 66, 0
1, 153634, Note_on_c, 0, 50, 0
1, 153642, Control_c, 0, 64, 127
1, 153720, Note_on_c, 0, 63, 0
1, 153738, Note_on_c, 0, 55, 16
1, 153743, Note_on_c, 0, 67, 31
1, 153749, Note_on_c, 0, 62, 22
1, 153798, Note_on_c, 0, 69, 0
1, 153798, Control_c, 0, 64, 0
1, 153936, Note_on_c, 0, 60, 0
1, 153946, Note_on_c, 0, 55, 0
1, 153988, Note_on_c, 0, 58, 18
1, 153988, Control_c, 0, 64, 127
1, 154200, Note_on_c, 0, 58, 0
1, 154245, Note_on_c, 0, 55, 27
1, 154426, Note_on_c, 0, 55, 0
1, 154484, Note_on_c, 0, 62, 0
1, 154512, Note_on_c, 0, 50, 22
1, 154576, Note_on_c, 0, 67, 0
1, 154581, Note_on_c, 0, 50, 0
1, 154858, Note_on_c, 0, 43, 30
1, 155233, Note_on_c, 0, 82, 42
1, 155521, Note_on_c, 0, 50, 28
1, 155521, Note_on_c, 0, 91, 25
1, 155539, Note_on_c, 0, 86, 36
1, 155551, Note_on_c, 0, 43, 0
1, 155596, Note_on_c, 0, 91, 0
1, 155610, Note_on_c, 0, 86, 0
1, 155723, Note_on_c, 0, 82, 0
1, 155774, Note_on_c, 0, 81, 54
1, 156014, Control_c, 0, 64, 0
1, 156014, Note_on_c, 0, 87, 39
1, 156019, Note_on_c, 0, 90, 42
1, 156028, Note_on_c, 0, 84, 43
1, 156033, Note_on_c, 0, 43, 36
1, 156131, Note_on_c, 0, 81, 0
1, 156158, Note_on_c, 0, 50, 0
1, 156158, Control_c, 0, 64, 127
1, 156173, Note_on_c, 0, 84, 0
1, 156205, Note_on_c, 0, 87, 0
1, 156226, Note_on_c, 0, 90, 0
1, 156247, Note_on_c, 0, 79, 64
1, 156429, Note_on_c, 0, 79, 0
1, 156468, Note_on_c, 0, 87, 52
1, 156478, Note_on_c, 0, 81, 47
1, 156487, Note_on_c, 0, 50, 39
1, 156492, Note_on_c, 0, 84, 48
1, 156654, Note_on_c, 0, 84, 0
1, 156654, Note_on_c, 0, 81, 0
1, 156673, Note_on_c, 0, 78, 68
1, 156682, Note_on_c, 0, 87, 0
1, 156841, Note_on_c, 0, 78, 0
1, 156891, Note_on_c, 0, 86, 63
1, 156910, Note_on_c, 0, 81, 35
1, 156910, Note_on_c, 0, 84, 54
1, 156953, Note_on_c, 0, 84, 0
1, 156953, Note_on_c, 0, 86, 0
1, 156961, Note_on_c, 0, 81, 0
1, 157094, Note_on_c, 0, 75, 61
1, 157237, Note_on_c, 0, 75, 0
1, 157317, Note_on_c, 0, 78, 58
1, 157326, Note_on_c, 0, 84, 74
1, 157334, Note_on_c, 0, 81, 53
1, 157445, Note_on_c, 0, 84, 0
1, 157451, Note_on_c, 0, 43, 0
1, 157451, Note_on_c, 0, 81, 0
1, 157501, Note_on_c, 0, 78, 0
1, 157529, Note_on_c, 0, 74, 81
1, 157716, Control_c, 0, 64, 0
1, 157735, Note_on_c, 0, 82, 59
1, 157751, Note_on_c, 0, 75, 43
1, 157751, Note_on_c, 0, 43, 40
1, 157755, Note_on_c, 0, 79, 58
1, 157825, Note_on_c, 0, 74, 0
1, 157857, Note_on_c, 0, 50, 0
1, 157885, Control_c, 0, 64, 127
1, 157907, Note_on_c, 0, 79, 0
1, 157927, Note_on_c, 0, 75, 0
1, 157950, Note_on_c, 0, 72, 56
1, 157964, Note_on_c, 0, 82, 0
1, 158159, Control_c, 0, 64, 0
1, 158167, Note_on_c, 0, 81, 45
1, 158167, Note_on_c, 0, 78, 48
1, 158172, Note_on_c, 0, 50, 42
1, 158251, Note_on_c, 0, 72, 0
1, 158279, Note_on_c, 0, 81, 0
1, 158292, Control_c, 0, 64, 127
1, 158370, Note_on_c, 0, 70, 45
1, 158382, Note_on_c, 0, 78, 0
1, 158474, Note_on_c, 0, 43, 0
1, 158493, Note_on_c, 0, 70, 0
1, 158515, Note_on_c, 0, 50, 0
1, 158591, Note_on_c, 0, 79, 54
1, 158596, Note_on_c, 0, 74, 48
1, 158649, Note_on_c, 0, 74, 0
1, 158687, Note_on_c, 0, 79, 0
1, 158790, Note_on_c, 0, 70, 58
1, 158972, Note_on_c, 0, 70, 0
1, 159008, Note_on_c, 0, 69, 51
1, 159008, Note_on_c, 0, 74, 61
1, 159020, Note_on_c, 0, 72, 41
1, 159033, Note_on_c, 0, 62, 32
1, 159061, Note_on_c, 0, 55, 20
1, 159081, Control_c, 0, 64, 0
1, 159215, Note_on_c, 0, 67, 70
1, 159220, Note_on_c, 0, 69, 0
1, 159275, Control_c, 0, 64, 127
1, 159428, Note_on_c, 0, 72, 0
1, 159428, Note_on_c, 0, 67, 0
1, 159428, Note_on_c, 0, 66, 65
1, 159453, Note_on_c, 0, 62, 0
1, 159467, Note_on_c, 0, 74, 0
1, 159470, Note_on_c, 0, 55, 0
1, 159640, Note_on_c, 0, 67, 70
1, 159716, Note_on_c, 0, 66, 0
1, 159765, Note_on_c, 0, 38, 36
1, 159813, Control_c, 0, 64, 0
1, 159858, Note_on_c, 0, 68, 52
1, 159872, Note_on_c, 0, 50, 32
1, 159872, Note_on_c, 0, 60, 39
1, 159875, Note_on_c, 0, 62, 34
1, 159899, Note_on_c, 0, 67, 0
1, 159939, Note_on_c, 0, 38, 0
1, 159992, Control_c, 0, 64, 127
1, 160016, Note_on_c, 0, 50, 0
1, 160091, Note_on_c, 0, 69, 48
1, 160123, Note_on_c, 0, 68, 0
1, 160211, Note_on_c, 0, 60, 0
1, 160214, Note_on_c, 0, 62, 0
1, 160287, Note_on_c, 0, 54, 60
1, 160290, Note_on_c, 0, 69, 0
1, 160481, Note_on_c, 0, 58, 66
1, 160694, Note_on_c, 0, 58, 0
1, 160694, Note_on_c, 0, 57, 62
1, 160701, Note_on_c, 0, 62, 52
1, 160710, Note_on_c, 0, 60, 39
1, 160724, Control_c, 0, 64, 0
1, 160747, Note_on_c, 0, 54, 0
1, 160906, Note_on_c, 0, 55, 61
1, 160916, Note_on_c, 0, 57, 0
1, 160916, Control_c, 0, 64, 127
1, 160939, Control_c, 0, 64, 0
1, 161111, Note_on_c, 0, 55, 0
1, 161122, Note_on_c, 0, 54, 63
1, 161186, Note_on_c, 0, 62, 0
1, 161359, Note_on_c, 0, 54, 0
1, 161359, Note_on_c, 0, 52, 57
1, 161384, Control_c, 0, 64, 127
1, 161538, Control_c, 0, 64, 0
1, 161569, Note_on_c, 0, 62, 51
1, 161569, Note_on_c, 0, 58, 31
1, 161576, Note_on_c, 0, 52, 0
1, 161579, Note_on_c, 0, 60, 0
1, 161579, Note_on_c, 0, 54, 47
1, 161768, Note_on_c, 0, 54, 0
1, 161793, Note_on_c, 0, 55, 51
1, 161803, Note_on_c, 0, 58, 0
1, 161803, Control_c, 0, 64, 127
1, 161818, Note_on_c, 0, 62, 0
1, 162086, Note_on_c, 0, 50, 46
1, 162094, Note_on_c, 0, 43, 30
1, 162105, Note_on_c, 0, 55, 0
1, 162321, Note_on_c, 0, 70, 47
1, 162354, Control_c, 0, 64, 0
1, 162591, Note_on_c, 0, 79, 64
1, 162607, Note_on_c, 0, 74, 32
1, 162618, Control_c, 0, 64, 127
1, 162657, Note_on_c, 0, 50, 0
1, 162669, Note_on_c, 0, 74, 0
1, 162677, Note_on_c, 0, 43, 0
1, 162725, Note_on_c, 0, 70, 0
1, 162741, Note_on_c, 0, 79, 0
1, 162821, Note_on_c, 0, 69, 47
1, 163028, Note_on_c, 0, 78, 59
1, 163028, Note_on_c, 0, 72, 25
1, 163032, Note_on_c, 0, 74, 31
1, 163073, Note_on_c, 0, 31, 38
1, 163080, Note_on_c, 0, 74, 0
1, 163090, Note_on_c, 0, 72, 0
1, 163094, Note_on_c, 0, 69, 0
1, 163203, Note_on_c, 0, 78, 0
1, 163256, Note_on_c, 0, 67, 50
1, 163456, Note_on_c, 0, 75, 53
1, 163465, Note_on_c, 0, 67, 0
1, 163465, Note_on_c, 0, 69, 33
1, 163470, Note_on_c, 0, 72, 33
1, 163490, Note_on_c, 0, 38, 33
1, 163549, Note_on_c, 0, 72, 0
1, 163643, Note_on_c, 0, 69, 0
1, 163658, Note_on_c, 0, 66, 52
1, 163677, Note_on_c, 0, 75, 0
1, 163839, Control_c, 0, 64, 0
1, 163864, Note_on_c, 0, 69, 32
1, 163871, Note_on_c, 0, 74, 65
1, 163874, Note_on_c, 0, 72, 33
1, 163936, Note_on_c, 0, 66, 0
1, 163939, Note_on_c, 0, 72, 0
1, 163945, Note_on_c, 0, 69, 0
1, 163972, Control_c, 0, 64, 127
1, 163975, Note_on_c, 0, 74, 0
1, 164056, Note_on_c, 0, 63, 57
1, 164264, Note_on_c, 0, 63, 0
1, 164276, Note_on_c, 0, 66, 35
1, 164285, Note_on_c, 0, 72, 51
1, 164285, Note_on_c, 0, 69, 28
1, 164307, Control_c, 0, 64, 0
1, 164377, Note_on_c, 0, 69, 0
1, 164415, Control_c, 0, 64, 127
1, 164446, Note_on_c, 0, 72, 0
1, 164463, Note_on_c, 0, 31, 0
1, 164499, Note_on_c, 0, 66, 0
1, 164504, Note_on_c, 0, 62, 54
1, 164691, Control_c, 0, 64, 0
1, 164735, Note_on_c, 0, 67, 35
1, 164738, Note_on_c, 0, 70, 37
1, 164738, Note_on_c, 0, 64, 39
1, 164741, Note_on_c, 0, 31, 41
1, 164766, Note_on_c, 0, 62, 0
1, 164883, Control_c, 0, 64, 127
1, 164908, Note_on_c, 0, 38, 0
1, 164920, Note_on_c, 0, 67, 0
1, 164956, Note_on_c, 0, 64, 0
1, 164994, Note_on_c, 0, 60, 46
1, 165001, Note_on_c, 0, 70, 0
1, 165182, Control_c, 0, 64, 0
1, 165198, Note_on_c, 0, 69, 40
1, 165198, Note_on_c, 0, 66, 30
1, 165206, Note_on_c, 0, 63, 41
1, 165221, Note_on_c, 0, 38, 38
1, 165278, Note_on_c, 0, 60, 0
1, 165289, Note_on_c, 0, 69, 0
1, 165303, Control_c, 0, 64, 127
1, 165324, Note_on_c, 0, 66, 0
1, 165346, Note_on_c, 0, 63, 0
1, 165399, Note_on_c, 0, 58, 37
1, 165477, Note_on_c, 0, 31, 0
1, 165596, Note_on_c, 0, 58, 0
1, 165601, Note_on_c, 0, 62, 43
1, 165601, Note_on_c, 0, 67, 43
1, 165627, Note_on_c, 0, 38, 0
1, 165658, Note_on_c, 0, 67, 0
1, 165658, Note_on_c, 0, 62, 0
1, 165781, Note_on_c, 0, 58, 48
1, 165913, Note_on_c, 0, 58, 0
1, 165923, Note_on_c, 0, 43, 10
1, 166020, Note_on_c, 0, 62, 44
1, 166026, Note_on_c, 0, 60, 35
1, 166026, Note_on_c, 0, 57, 36
1, 166053, Note_on_c, 0, 50, 29
1, 166081, Control_c, 0, 64, 0
1, 166229, Note_on_c, 0, 57, 0
1, 166248, Note_on_c, 0, 55, 59
1, 166248, Control_c, 0, 64, 127
1, 166332, Control_c, 0, 64, 0
1, 166441, Control_c, 0, 64, 127
1, 166465, Note_on_c, 0, 55, 0
1, 166469, Note_on_c, 0, 50, 0
1, 166473, Note_on_c, 0, 43, 0
1, 166473, Note_on_c, 0, 54, 77
1, 166514, Note_on_c, 0, 60, 0
1, 166555, Note_on_c, 0, 62, 0
1, 166664, Note_on_c, 0, 54, 0
1, 166689, Note_on_c, 0, 55, 70
1, 166738, Note_on_c, 0, 55, 0
1, 166767, Note_on_c, 0, 31, 31
1, 166897, Control_c, 0, 64, 0
1, 166905, Note_on_c, 0, 56, 53
1, 166911, Note_on_c, 0, 38, 41
1, 166916, Note_on_c, 0, 50, 14
1, 166923, Note_on_c, 0, 48, 23
1, 167145, Note_on_c, 0, 48, 0
1, 167148, Note_on_c, 0, 57, 43
1, 167151, Note_on_c, 0, 50, 0
1, 167168, Note_on_c, 0, 56, 0
1, 167196, Control_c, 0, 64, 127
1, 167387, Control_c, 0, 64, 0
1, 167390, Note_on_c, 0, 42, 47
1, 167471, Note_on_c, 0, 38, 0
1, 167483, Note_on_c, 0, 31, 0
1, 167519, Control_c, 0, 64, 127
1, 167557, Note_on_c, 0, 57, 0
1, 167677, Note_on_c, 0, 46, 43
1, 167696, Note_on_c, 0, 42, 0
1, 167937, Note_on_c, 0, 45, 48
1, 167945, Note_on_c, 0, 50, 46
1, 167948, Note_on_c, 0, 46, 0
1, 167958, Note_on_c, 0, 48, 20
1, 168145, Note_on_c, 0, 45, 0
1, 168145, Note_on_c, 0, 43, 59
1, 168357, Note_on_c, 0, 43, 0
1, 168357, Note_on_c, 0, 42, 51
1, 168357, Control_c, 0, 64, 0
1, 168585, Note_on_c, 0, 40, 61
1, 168589, Note_on_c, 0, 42, 0
1, 168848, Note_on_c, 0, 42, 38
1, 168859, Note_on_c, 0, 40, 0
1, 169125, Note_on_c, 0, 42, 0
1, 169125, Note_on_c, 0, 43, 39
1, 169143, Note_on_c, 0, 48, 0
1, 169242, Note_on_c, 0, 50, 0
1, 169329, Control_c, 0, 64, 127
1, 169437, Control_c, 0, 64, 0
1, 169516, Note_on_c, 0, 43, 0
1, 169516, Note_on_c, 0, 31, 32
1, 170009, Note_on_c, 0, 38, 28
1, 170220, Note_on_c, 0, 31, 0
1, 170242, Note_on_c, 0, 42, 26
1, 170274, Note_on_c, 0, 48, 22
1, 170277, Note_on_c, 0, 50, 34
1, 170396, Control_c, 0, 64, 127
1, 170465, Note_on_c, 0, 50, 0
1, 170516, Note_on_c, 0, 42, 0
1, 170527, Note_on_c, 0, 31, 35
1, 170554, Note_on_c, 0, 38, 0
1, 170694, Note_on_c, 0, 48, 0
1, 170708, Control_c, 0, 64, 0
1, 170733, Note_on_c, 0, 43, 37
1, 170733, Note_on_c, 0, 46, 35
1, 170736, Note_on_c, 0, 50, 42
1, 170898, Note_on_c, 0, 50, 0
1, 170898, Note_on_c, 0, 43, 0
1, 170923, Control_c, 0, 64, 127
1, 170940, Note_on_c, 0, 31, 0
1, 170943, Note_on_c, 0, 38, 32
1, 171012, Note_on_c, 0, 46, 0
1, 171115, Control_c, 0, 64, 0
1, 171137, Note_on_c, 0, 54, 48
1, 171137, Note_on_c, 0, 45, 33
1, 171156, Note_on_c, 0, 50, 23
1, 171273, Note_on_c, 0, 45, 0
1, 171282, Note_on_c, 0, 50, 0
1, 171282, Control_c, 0, 64, 127
1, 171316, Note_on_c, 0, 38, 0
1, 171335, Note_on_c, 0, 31, 35
1, 171344, Note_on_c, 0, 54, 0
1, 171510, Control_c, 0, 64, 0
1, 171535, Note_on_c, 0, 46, 41
1, 171539, Note_on_c, 0, 55, 51
1, 171552, Note_on_c, 0, 50, 42
1, 171672, Note_on_c, 0, 55, 0
1, 171678, Note_on_c, 0, 50, 0
1, 171678, Note_on_c, 0, 46, 0
1, 171678, Control_c, 0, 64, 127
1, 171697, Note_on_c, 0, 31, 0
1, 171722, Note_on_c, 0, 38, 48
1, 171858, Control_c, 0, 64, 0
1, 171900, Note_on_c, 0, 57, 48
1, 171906, Note_on_c, 0, 50, 60
1, 171920, Note_on_c, 0, 54, 57
1, 172031, Note_on_c, 0, 54, 0
1, 172037, Control_c, 0, 64, 127
1, 172043, Note_on_c, 0, 57, 0
1, 172047, Note_on_c, 0, 50, 0
1, 172062, Note_on_c, 0, 38, 0
1, 172073, Note_on_c, 0, 31, 53
1, 172241, Control_c, 0, 64, 0
1, 172259, Note_on_c, 0, 58, 48
1, 172268, Note_on_c, 0, 50, 49
1, 172274, Note_on_c, 0, 55, 49
1, 172355, Note_on_c, 0, 50, 0
1, 172369, Note_on_c, 0, 31, 0
1, 172396, Note_on_c, 0, 55, 0
1, 172421, Control_c, 0, 64, 127
1, 172424, Note_on_c, 0, 58, 0
1, 172446, Note_on_c, 0, 38, 48
1, 172577, Control_c, 0, 64, 0
1, 172614, Note_on_c, 0, 54, 52
1, 172614, Note_on_c, 0, 62, 52
1, 172627, Note_on_c, 0, 60, 33
1, 172691, Note_on_c, 0, 60, 0
1, 172694, Note_on_c, 0, 62, 0
1, 172700, Note_on_c, 0, 38, 0
1, 172719, Note_on_c, 0, 54, 0
1, 172719, Control_c, 0, 64, 127
1, 172769, Note_on_c, 0, 31, 46
1, 172820, Note_on_c, 0, 31, 0
1, 172965, Note_on_c, 0, 58, 33
1, 172965, Note_on_c, 0, 67, 48
1, 172973, Note_on_c, 0, 62, 30
1, 173029, Note_on_c, 0, 62, 0
1, 173045, Note_on_c, 0, 67, 0
1, 173114, Note_on_c, 0, 58, 0
1, 173182, Note_on_c, 0, 50, 44
1, 173355, Control_c, 0, 64, 0
1, 173369, Note_on_c, 0, 54, 53
1, 173382, Note_on_c, 0, 62, 45
1, 173391, Note_on_c, 0, 60, 44
1, 173532, Note_on_c, 0, 62, 0
1, 173536, Control_c, 0, 64, 127
1, 173571, Note_on_c, 0, 54, 0
1, 173574, Note_on_c, 0, 43, 54
1, 173605, Note_on_c, 0, 60, 0
1, 173664, Note_on_c, 0, 50, 0
1, 173680, Control_c, 0, 64, 0
1, 173747, Note_on_c, 0, 55, 65
1, 173747, Note_on_c, 0, 62, 65
1, 173752, Note_on_c, 0, 58, 39
1, 173859, Control_c, 0, 64, 127
1, 173869, Note_on_c, 0, 62, 0
1, 173869, Note_on_c, 0, 55, 0
1, 173898, Note_on_c, 0, 58, 0
1, 173942, Note_on_c, 0, 43, 0
1, 173942, Note_on_c, 0, 50, 70
1, 174096, Note_on_c, 0, 66, 58
1, 174096, Note_on_c, 0, 57, 59
1, 174099, Note_on_c, 0, 62, 60
1, 174156, Note_on_c, 0, 62, 0
1, 174181, Note_on_c, 0, 57, 0
1, 174252, Note_on_c, 0, 66, 0
1, 174266, Note_on_c, 0, 50, 0
1, 174266, Note_on_c, 0, 43, 59
1, 174351, Control_c, 0, 64, 0
1, 174429, Note_on_c, 0, 58, 54
1, 174429, Note_on_c, 0, 67, 74
1, 174443, Note_on_c, 0, 62, 56
1, 174499, Note_on_c, 0, 62, 0
1, 174507, Control_c, 0, 64, 127
1, 174536, Note_on_c, 0, 43, 0
1, 174536, Note_on_c, 0, 58, 0
1, 174546, Note_on_c, 0, 67, 0
1, 174594, Note_on_c, 0, 50, 55
1, 174725, Control_c, 0, 64, 0
1, 174753, Note_on_c, 0, 69, 62
1, 174761, Note_on_c, 0, 66, 48
1, 174761, Note_on_c, 0, 62, 57
1, 174854, Control_c, 0, 64, 127
1, 174857, Note_on_c, 0, 62, 0
1, 174867, Note_on_c, 0, 66, 0
1, 174867, Note_on_c, 0, 69, 0
1, 174932, Note_on_c, 0, 50, 0
1, 174940, Note_on_c, 0, 43, 50
1, 175067, Note_on_c, 0, 70, 66
1, 175078, Note_on_c, 0, 67, 55
1, 175081, Note_on_c, 0, 62, 40
1, 175123, Note_on_c, 0, 67, 0
1, 175134, Note_on_c, 0, 62, 0
1, 175163, Note_on_c, 0, 70, 0
1, 175234, Note_on_c, 0, 50, 61
1, 175321, Control_c, 0, 64, 0
1, 175368, Note_on_c, 0, 43, 0
1, 175380, Note_on_c, 0, 74, 78
1, 175385, Note_on_c, 0, 66, 46
1, 175394, Note_on_c, 0, 72, 51
1, 175449, Note_on_c, 0, 72, 0
1, 175454, Control_c, 0, 64, 127
1, 175477, Note_on_c, 0, 66, 0
1, 175483, Note_on_c, 0, 74, 0
1, 175552, Note_on_c, 0, 50, 0
1, 175552, Note_on_c, 0, 43, 65
1, 175709, Note_on_c, 0, 70, 55
1, 175716, Note_on_c, 0, 79, 83
1, 175733, Note_on_c, 0, 74, 58
1, 175775, Note_on_c, 0, 74, 0
1, 175811, Note_on_c, 0, 79, 0
1, 175828, Note_on_c, 0, 70, 0
1, 175882, Note_on_c, 0, 43, 0
1, 175882, Note_on_c, 0, 50, 72
1, 176017, Control_c, 0, 64, 0
1, 176031, Note_on_c, 0, 66, 64
1, 176040, Note_on_c, 0, 74, 81
1, 176048, Note_on_c, 0, 72, 61
1, 176095, Note_on_c, 0, 72, 0
1, 176132, Note_on_c, 0, 74, 0
1, 176137, Control_c, 0, 64, 127
1, 176145, Note_on_c, 0, 66, 0
1, 176180, Note_on_c, 0, 50, 0
1, 176209, Note_on_c, 0, 43, 53
1, 176293, Control_c, 0, 64, 0
1, 176321, Note_on_c, 0, 67, 43
1, 176343, Note_on_c, 0, 70, 46
1, 176365, Note_on_c, 0, 74, 68
1, 176365, Note_on_c, 0, 79, 84
1, 176449, Control_c, 0, 64, 127
1, 176458, Note_on_c, 0, 79, 0
1, 176458, Note_on_c, 0, 67, 0
1, 176466, Note_on_c, 0, 43, 0
1, 176478, Note_on_c, 0, 74, 0
1, 176514, Note_on_c, 0, 70, 0
1, 176531, Note_on_c, 0, 50, 64
1, 176675, Note_on_c, 0, 66, 46
1, 176675, Control_c, 0, 64, 0
1, 176691, Note_on_c, 0, 74, 63
1, 176691, Note_on_c, 0, 72, 49
1, 176764, Note_on_c, 0, 72, 0
1, 176808, Control_c, 0, 64, 127
1, 176820, Note_on_c, 0, 74, 0
1, 176839, Note_on_c, 0, 66, 0
1, 176839, Note_on_c, 0, 50, 0
1, 176870, Note_on_c, 0, 43, 46
1, 176939, Control_c, 0, 64, 0
1, 176975, Note_on_c, 0, 67, 37
1, 177012, Note_on_c, 0, 43, 0
1, 177012, Note_on_c, 0, 70, 39
1, 177034, Note_on_c, 0, 67, 0
1, 177045, Note_on_c, 0, 74, 39
1, 177060, Control_c, 0, 64, 127
1, 177063, Note_on_c, 0, 70, 0
1, 177063, Note_on_c, 0, 79, 61
1, 177090, Note_on_c, 0, 74, 0
1, 177106, Note_on_c, 0, 79, 0
1, 177246, Note_on_c, 0, 62, 54
1, 177368, Note_on_c, 0, 78, 55
1, 177368, Note_on_c, 0, 86, 60
1, 177375, Note_on_c, 0, 84, 53
1, 177414, Note_on_c, 0, 62, 0
1, 177424, Note_on_c, 0, 78, 0
1, 177427, Note_on_c, 0, 84, 0
1, 177475, Note_on_c, 0, 86, 0
1, 177533, Note_on_c, 0, 55, 48
1, 177611, Note_on_c, 0, 79, 28
1, 177648, Note_on_c, 0, 82, 48
1, 177659, Control_c, 0, 64, 0
1, 177691, Note_on_c, 0, 86, 46
1, 177703, Note_on_c, 0, 91, 61
1, 177745, Note_on_c, 0, 55, 0
1, 177750, Note_on_c, 0, 91, 0
1, 177790, Control_c, 0, 64, 127
1, 177797, Note_on_c, 0, 86, 0
1, 177809, Note_on_c, 0, 79, 0
1, 177856, Note_on_c, 0, 82, 0
1, 177856, Note_on_c, 0, 62, 53
1, 177998, Note_on_c, 0, 78, 47
1, 178010, Note_on_c, 0, 84, 52
1, 178010, Note_on_c, 0, 86, 48
1, 178056, Note_on_c, 0, 84, 0
1, 178071, Note_on_c, 0, 86, 0
1, 178084, Note_on_c, 0, 78, 0
1, 178215, Note_on_c, 0, 55, 32
1, 178279, Note_on_c, 0, 79, 35
1, 178330, Control_c, 0, 64, 0
1, 178335, Note_on_c, 0, 82, 31
1, 178393, Note_on_c, 0, 86, 40
1, 178432, Note_on_c, 0, 55, 0
1, 178449, Note_on_c, 0, 62, 0
1, 178449, Control_c, 0, 64, 127
1, 178478, Note_on_c, 0, 91, 42
1, 178584, Note_on_c, 0, 79, 0
1, 178598, Note_on_c, 0, 91, 0
1, 178603, Note_on_c, 0, 82, 0
1, 178609, Note_on_c, 0, 86, 0
1, 178695, Note_on_c, 0, 74, 49
1, 178714, Note_on_c, 0, 67, 32
1, 178803, Note_on_c, 0, 67, 0
1, 178895, Note_on_c, 0, 74, 0
1, 178909, Note_on_c, 0, 79, 51
1, 178937, Note_on_c, 0, 82, 41
1, 178970, Note_on_c, 0, 86, 42
1, 178981, Note_on_c, 0, 91, 54
1, 179068, Note_on_c, 0, 79, 0
1, 179107, Note_on_c, 0, 82, 0
1, 179107, Note_on_c, 0, 91, 0
1, 179115, Note_on_c, 0, 86, 0
1, 179158, Note_on_c, 0, 74, 55
1, 179168, Note_on_c, 0, 67, 43
1, 179291, Note_on_c, 0, 79, 50
1, 179327, Note_on_c, 0, 82, 48
1, 179346, Note_on_c, 0, 67, 0
1, 179346, Note_on_c, 0, 74, 0
1, 179355, Note_on_c, 0, 86, 50
1, 179372, Note_on_c, 0, 91, 52
1, 179416, Note_on_c, 0, 79, 0
1, 179466, Note_on_c, 0, 82, 0
1, 179492, Note_on_c, 0, 86, 0
1, 179492, Note_on_c, 0, 91, 0
1, 179531, Note_on_c, 0, 74, 63
1, 179541, Note_on_c, 0, 67, 52
1, 179630, Note_on_c, 0, 79, 53
1, 179653, Note_on_c, 0, 74, 0
1, 179653, Note_on_c, 0, 82, 51
1, 179680, Note_on_c, 0, 67, 0
1, 179680, Note_on_c, 0, 86, 52
1, 179695, Note_on_c, 0, 91, 54
1, 179731, Note_on_c, 0, 79, 0
1, 179776, Note_on_c, 0, 82, 0
1, 179798, Note_on_c, 0, 91, 0
1, 179807, Note_on_c, 0, 86, 0
1, 179845, Note_on_c, 0, 74, 60
1, 179853, Note_on_c, 0, 67, 43
1, 179918, Note_on_c, 0, 74, 0
1, 179943, Note_on_c, 0, 67, 0
1, 179953, Note_on_c, 0, 79, 43
1, 179981, Note_on_c, 0, 82, 33
1, 180013, Note_on_c, 0, 86, 48
1, 180034, Note_on_c, 0, 91, 55
1, 180041, Note_on_c, 0, 79, 0
1, 180110, Note_on_c, 0, 82, 0
1, 180138, Note_on_c, 0, 86, 0
1, 180146, Note_on_c, 0, 91, 0
1, 180179, Note_on_c, 0, 74, 53
1, 180194, Note_on_c, 0, 67, 32
1, 180235, Note_on_c, 0, 74, 0
1, 180274, Note_on_c, 0, 67, 0
1, 180283, Note_on_c, 0, 79, 46
1, 180318, Note_on_c, 0, 82, 38
1, 180343, Note_on_c, 0, 79, 0
1, 180349, Note_on_c, 0, 86, 38
1, 180374, Note_on_c, 0, 91, 48
1, 180421, Note_on_c, 0, 82, 0
1, 180450, Note_on_c, 0, 86, 0
1, 180463, Note_on_c, 0, 91, 0
1, 180536, Note_on_c, 0, 74, 32
1, 180566, Note_on_c, 0, 67, 22
1, 180640, Note_on_c, 0, 79, 31
1, 180656, Note_on_c, 0, 74, 0
1, 180667, Note_on_c, 0, 67, 0
1, 180692, Note_on_c, 0, 82, 27
1, 180706, Note_on_c, 0, 79, 0
1, 180726, Note_on_c, 0, 86, 35
1, 180782, Note_on_c, 0, 82, 0
1, 180795, Note_on_c, 0, 91, 37
1, 180868, Note_on_c, 0, 86, 0
1, 180907, Note_on_c, 0, 91, 0
1, 180967, Note_on_c, 0, 74, 25
1, 180967, Note_on_c, 0, 67, 23
1, 181073, Note_on_c, 0, 79, 33
1, 181082, Note_on_c, 0, 74, 0
1, 181130, Note_on_c, 0, 67, 0
1, 181133, Note_on_c, 0, 82, 25
1, 181146, Note_on_c, 0, 79, 0
1, 181233, Note_on_c, 0, 82, 0
1, 181238, Note_on_c, 0, 86, 10
1, 181286, Note_on_c, 0, 91, 27
1, 181381, Note_on_c, 0, 86, 0
1, 181419, Note_on_c, 0, 91, 0
1, 181505, Note_on_c, 0, 74, 22
1, 181542, Note_on_c, 0, 67, 11
1, 181786, Note_on_c, 0, 79, 21
1, 181893, Note_on_c, 0, 82, 24
1, 182037, Note_on_c, 0, 86, 30
1, 182341, Note_on_c, 0, 91, 32
1, 183059, Note_on_c, 0, 91, 0
1, 183099, Note_on_c, 0, 79, 0
1, 183115, Note_on_c, 0, 86, 0
1, 183141, Note_on_c, 0, 82, 0
1, 184004, Note_on_c, 0, 74, 0
1, 184402, Note_on_c, 0, 67, 0
1, 186072, Control_c, 0, 64, 0
1, 187200, Control_c, 0, 64, 0
1, 187200, End_track
0, 0, End_of_file
