0, 0, Header, 0, 1, 384
1, 0, Start_track
1, 0, Copyright_t, "Adaptation for Disklavier pianos, by: Robert C. Kuhmann (c) 2012."
1, 0, Time_signature, 4, 2, 24, 8
1, 0, Key_signature, 0, "major"
1, 0, Tempo, 512821
1, 0, Program_c, 0, 0
1, 0, Control_c, 0, 7, 115
1, 0, Note_on_c, 0, 74, 68
1, 11, Note_on_c, 0, 50, 47
1, 69, Note_on_c, 0, 74, 0
1, 214, Note_on_c, 0, 50, 0
1, 255, Note_on_c, 0, 76, 78
1, 298, Note_on_c, 0, 76, 0
1, 336, Note_on_c, 0, 77, 86
1, 663, Note_on_c, 0, 57, 36
1, 663, Note_on_c, 0, 62, 40
1, 667, Note_on_c, 0, 65, 42
1, 704, Control_c, 0, 64, 127
1, 735, Note_on_c, 0, 62, 0
1, 741, Note_on_c, 0, 65, 0
1, 744, Note_on_c, 0, 57, 0
1, 983, Note_on_c, 0, 76, 63
1, 1005, Note_on_c, 0, 50, 43
1, 1017, Note_on_c, 0, 77, 0
1, 1039, Control_c, 0, 64, 0
1, 1055, Note_on_c, 0, 76, 0
1, 1222, Note_on_c, 0, 73, 55
1, 1264, Note_on_c, 0, 73, 0
1, 1287, Note_on_c, 0, 50, 0
1, 1318, Note_on_c, 0, 69, 53
1, 1634, Note_on_c, 0, 61, 36
1, 1640, Note_on_c, 0, 64, 46
1, 1643, Note_on_c, 0, 57, 38
1, 1662, Control_c, 0, 64, 127
1, 1733, Note_on_c, 0, 57, 0
1, 1763, Note_on_c, 0, 64, 0
1, 1763, Note_on_c, 0, 61, 0
1, 1927, Note_on_c, 0, 67, 80
1, 1938, Note_on_c, 0, 69, 0
1, 1961, Note_on_c, 0, 50, 53
1, 2016, Note_on_c, 0, 67, 0
1, 2105, Control_c, 0, 64, 0
1, 2167, Note_on_c, 0, 69, 80
1, 2215, Note_on_c, 0, 69, 0
1, 2256, Note_on_c, 0, 70, 86
1, 2275, Note_on_c, 0, 50, 0
1, 2556, Note_on_c, 0, 55, 46
1, 2560, Note_on_c, 0, 64, 54
1, 2560, Note_on_c, 0, 61, 40
1, 2657, Control_c, 0, 64, 127
1, 2690, Note_on_c, 0, 55, 0
1, 2702, Note_on_c, 0, 61, 0
1, 2716, Note_on_c, 0, 64, 0
1, 2860, Note_on_c, 0, 70, 0
1, 2875, Note_on_c, 0, 69, 65
1, 2899, Note_on_c, 0, 50, 47
1, 2944, Control_c, 0, 64, 0
1, 2999, Note_on_c, 0, 69, 0
1, 3120, Note_on_c, 0, 65, 66
1, 3228, Note_on_c, 0, 62, 66
1, 3233, Note_on_c, 0, 65, 0
1, 3254, Note_on_c, 0, 50, 0
1, 3529, Note_on_c, 0, 57, 42
1, 3535, Note_on_c, 0, 53, 61
1, 3652, Control_c, 0, 64, 127
1, 3732, Note_on_c, 0, 53, 0
1, 3761, Note_on_c, 0, 57, 0
1, 3872, Note_on_c, 0, 62, 0
1, 3916, Control_c, 0, 64, 0
1, 3919, Note_on_c, 0, 74, 89
1, 3925, Note_on_c, 0, 58, 36
1, 4081, Note_on_c, 0, 74, 0
1, 4095, Control_c, 0, 64, 127
1, 4167, Control_c, 0, 64, 0
1, 4206, Note_on_c, 0, 74, 96
1, 4346, Control_c, 0, 64, 127
1, 4370, Note_on_c, 0, 76, 93
1, 4375, Note_on_c, 0, 74, 0
1, 4414, Note_on_c, 0, 58, 0
1, 4438, Note_on_c, 0, 76, 0
1, 4454, Control_c, 0, 64, 0
1, 4506, Note_on_c, 0, 74, 100
1, 4526, Note_on_c, 0, 68, 41
1, 4529, Note_on_c, 0, 62, 41
1, 4552, Note_on_c, 0, 74, 0
1, 4654, Note_on_c, 0, 76, 92
1, 4688, Note_on_c, 0, 76, 0
1, 4738, Note_on_c, 0, 62, 0
1, 4765, Note_on_c, 0, 68, 0
1, 4804, Note_on_c, 0, 73, 71
1, 4844, Note_on_c, 0, 57, 43
1, 4896, Note_on_c, 0, 73, 0
1, 5030, Note_on_c, 0, 70, 62
1, 5077, Note_on_c, 0, 70, 0
1, 5117, Note_on_c, 0, 69, 60
1, 5389, Note_on_c, 0, 57, 0
1, 5437, Note_on_c, 0, 61, 43
1, 5442, Note_on_c, 0, 64, 54
1, 5641, Control_c, 0, 64, 127
1, 5713, Note_on_c, 0, 64, 0
1, 5740, Note_on_c, 0, 61, 0
1, 5772, Control_c, 0, 64, 0
1, 5779, Note_on_c, 0, 69, 0
1, 5779, Note_on_c, 0, 77, 73
1, 5800, Note_on_c, 0, 58, 27
1, 5964, Control_c, 0, 64, 127
1, 6022, Note_on_c, 0, 77, 0
1, 6162, Note_on_c, 0, 76, 58
1, 6239, Note_on_c, 0, 76, 0
1, 6321, Note_on_c, 0, 74, 68
1, 6371, Note_on_c, 0, 74, 0
1, 6456, Control_c, 0, 64, 0
1, 6477, Note_on_c, 0, 68, 33
1, 6481, Note_on_c, 0, 73, 53
1, 6485, Note_on_c, 0, 62, 28
1, 6599, Control_c, 0, 64, 127
1, 6619, Note_on_c, 0, 73, 0
1, 6654, Note_on_c, 0, 74, 53
1, 6658, Note_on_c, 0, 62, 0
1, 6661, Note_on_c, 0, 68, 0
1, 6691, Note_on_c, 0, 58, 0
1, 6852, Note_on_c, 0, 74, 0
1, 6852, Control_c, 0, 64, 0
1, 6877, Note_on_c, 0, 76, 38
1, 6883, Note_on_c, 0, 57, 31
1, 7067, Control_c, 0, 64, 127
1, 7101, Note_on_c, 0, 76, 0
1, 7256, Note_on_c, 0, 73, 35
1, 7357, Note_on_c, 0, 73, 0
1, 7413, Note_on_c, 0, 69, 38
1, 7813, Note_on_c, 0, 57, 0
1, 7870, Note_on_c, 0, 64, 28
1, 7875, Note_on_c, 0, 61, 23
1, 8006, Note_on_c, 0, 61, 0
1, 8009, Note_on_c, 0, 64, 0
1, 8398, Note_on_c, 0, 50, 52
1, 8398, Note_on_c, 0, 74, 69
1, 8409, Control_c, 0, 64, 0
1, 8427, Note_on_c, 0, 69, 0
1, 8538, Note_on_c, 0, 74, 0
1, 8577, Control_c, 0, 64, 127
1, 8672, Note_on_c, 0, 76, 78
1, 8719, Note_on_c, 0, 50, 0
1, 8732, Note_on_c, 0, 76, 0
1, 8763, Note_on_c, 0, 77, 98
1, 9056, Control_c, 0, 64, 0
1, 9073, Note_on_c, 0, 65, 55
1, 9081, Note_on_c, 0, 62, 51
1, 9081, Note_on_c, 0, 57, 42
1, 9201, Control_c, 0, 64, 127
1, 9209, Note_on_c, 0, 62, 0
1, 9217, Note_on_c, 0, 65, 0
1, 9228, Note_on_c, 0, 57, 0
1, 9431, Note_on_c, 0, 76, 74
1, 9459, Note_on_c, 0, 50, 36
1, 9463, Control_c, 0, 64, 0
1, 9482, Note_on_c, 0, 77, 0
1, 9555, Note_on_c, 0, 76, 0
1, 9583, Control_c, 0, 64, 127
1, 9680, Note_on_c, 0, 73, 68
1, 9703, Control_c, 0, 64, 0
1, 9727, Note_on_c, 0, 73, 0
1, 9782, Note_on_c, 0, 69, 66
1, 9822, Note_on_c, 0, 50, 0
1, 9847, Control_c, 0, 64, 127
1, 10070, Note_on_c, 0, 61, 51
1, 10070, Note_on_c, 0, 64, 61
1, 10070, Note_on_c, 0, 57, 35
1, 10136, Note_on_c, 0, 57, 0
1, 10157, Note_on_c, 0, 61, 0
1, 10176, Note_on_c, 0, 64, 0
1, 10402, Note_on_c, 0, 67, 73
1, 10410, Note_on_c, 0, 50, 52
1, 10420, Note_on_c, 0, 69, 0
1, 10484, Control_c, 0, 64, 0
1, 10522, Note_on_c, 0, 67, 0
1, 10627, Control_c, 0, 64, 127
1, 10649, Note_on_c, 0, 69, 74
1, 10688, Note_on_c, 0, 69, 0
1, 10727, Note_on_c, 0, 70, 88
1, 10746, Control_c, 0, 64, 0
1, 10867, Note_on_c, 0, 50, 0
1, 10891, Control_c, 0, 64, 127
1, 11026, Note_on_c, 0, 64, 57
1, 11029, Note_on_c, 0, 55, 52
1, 11029, Note_on_c, 0, 61, 41
1, 11145, Note_on_c, 0, 61, 0
1, 11148, Note_on_c, 0, 64, 0
1, 11157, Note_on_c, 0, 55, 0
1, 11309, Note_on_c, 0, 70, 0
1, 11348, Note_on_c, 0, 69, 62
1, 11357, Control_c, 0, 64, 0
1, 11363, Note_on_c, 0, 50, 52
1, 11451, Note_on_c, 0, 69, 0
1, 11513, Control_c, 0, 64, 127
1, 11630, Note_on_c, 0, 65, 50
1, 11663, Note_on_c, 0, 50, 0
1, 11689, Note_on_c, 0, 65, 0
1, 11744, Note_on_c, 0, 62, 63
1, 11981, Control_c, 0, 64, 0
1, 12061, Note_on_c, 0, 57, 40
1, 12061, Note_on_c, 0, 53, 69
1, 12148, Control_c, 0, 64, 127
1, 12154, Note_on_c, 0, 53, 0
1, 12215, Note_on_c, 0, 57, 0
1, 12399, Note_on_c, 0, 74, 87
1, 12403, Note_on_c, 0, 62, 0
1, 12403, Note_on_c, 0, 46, 48
1, 12449, Control_c, 0, 64, 0
1, 12591, Control_c, 0, 64, 127
1, 12596, Note_on_c, 0, 74, 0
1, 12618, Note_on_c, 0, 46, 0
1, 12717, Note_on_c, 0, 74, 97
1, 12836, Note_on_c, 0, 74, 0
1, 12873, Note_on_c, 0, 76, 90
1, 12988, Note_on_c, 0, 76, 0
1, 12988, Control_c, 0, 64, 0
1, 13015, Note_on_c, 0, 55, 49
1, 13015, Note_on_c, 0, 60, 59
1, 13020, Note_on_c, 0, 52, 52
1, 13028, Note_on_c, 0, 74, 96
1, 13095, Note_on_c, 0, 55, 0
1, 13112, Note_on_c, 0, 74, 0
1, 13112, Note_on_c, 0, 52, 0
1, 13129, Note_on_c, 0, 60, 0
1, 13143, Control_c, 0, 64, 127
1, 13168, Note_on_c, 0, 76, 96
1, 13252, Note_on_c, 0, 76, 0
1, 13287, Control_c, 0, 64, 0
1, 13318, Note_on_c, 0, 72, 90
1, 13327, Note_on_c, 0, 45, 38
1, 13454, Note_on_c, 0, 72, 0
1, 13466, Control_c, 0, 64, 127
1, 13632, Note_on_c, 0, 77, 81
1, 13678, Note_on_c, 0, 45, 0
1, 13689, Note_on_c, 0, 77, 0
1, 13738, Note_on_c, 0, 65, 73
1, 14031, Control_c, 0, 64, 0
1, 14075, Note_on_c, 0, 60, 50
1, 14079, Note_on_c, 0, 57, 42
1, 14087, Note_on_c, 0, 53, 65
1, 14176, Note_on_c, 0, 53, 0
1, 14185, Control_c, 0, 64, 127
1, 14190, Note_on_c, 0, 57, 0
1, 14190, Note_on_c, 0, 60, 0
1, 14396, Note_on_c, 0, 67, 91
1, 14402, Control_c, 0, 64, 0
1, 14412, Note_on_c, 0, 65, 0
1, 14415, Note_on_c, 0, 46, 50
1, 14422, Note_on_c, 0, 55, 59
1, 14426, Note_on_c, 0, 53, 78
1, 14566, Note_on_c, 0, 55, 0
1, 14566, Control_c, 0, 64, 127
1, 14583, Note_on_c, 0, 53, 0
1, 14600, Note_on_c, 0, 67, 0
1, 14616, Note_on_c, 0, 46, 0
1, 14688, Note_on_c, 0, 67, 92
1, 14713, Control_c, 0, 64, 0
1, 14831, Note_on_c, 0, 67, 0
1, 14831, Note_on_c, 0, 69, 87
1, 14972, Note_on_c, 0, 48, 57
1, 14976, Note_on_c, 0, 52, 72
1, 14976, Note_on_c, 0, 60, 68
1, 14981, Note_on_c, 0, 55, 69
1, 14985, Note_on_c, 0, 67, 94
1, 15014, Note_on_c, 0, 69, 0
1, 15017, Note_on_c, 0, 52, 0
1, 15051, Note_on_c, 0, 55, 0
1, 15061, Note_on_c, 0, 48, 0
1, 15061, Control_c, 0, 64, 127
1, 15101, Note_on_c, 0, 60, 0
1, 15109, Control_c, 0, 64, 0
1, 15135, Note_on_c, 0, 69, 84
1, 15160, Note_on_c, 0, 67, 0
1, 15259, Note_on_c, 0, 69, 0
1, 15282, Note_on_c, 0, 60, 88
1, 15285, Note_on_c, 0, 65, 90
1, 15285, Note_on_c, 0, 53, 84
1, 15288, Note_on_c, 0, 57, 54
1, 15341, Note_on_c, 0, 57, 0
1, 15341, Note_on_c, 0, 53, 0
1, 15349, Note_on_c, 0, 60, 0
1, 15360, Control_c, 0, 64, 127
1, 15363, Note_on_c, 0, 65, 0
1, 15504, Control_c, 0, 64, 0
1, 15519, Note_on_c, 0, 71, 109
1, 15605, Note_on_c, 0, 72, 106
1, 15650, Note_on_c, 0, 71, 0
1, 15800, Note_on_c, 0, 63, 78
1, 15837, Note_on_c, 0, 63, 0
1, 15878, Note_on_c, 0, 64, 95
1, 15894, Note_on_c, 0, 60, 87
1, 16034, Note_on_c, 0, 60, 0
1, 16043, Control_c, 0, 64, 127
1, 16117, Note_on_c, 0, 67, 75
1, 16135, Note_on_c, 0, 64, 0
1, 16135, Note_on_c, 0, 72, 0
1, 16185, Note_on_c, 0, 69, 75
1, 16188, Note_on_c, 0, 67, 0
1, 16193, Note_on_c, 0, 65, 71
1, 16193, Note_on_c, 0, 53, 86
1, 16198, Note_on_c, 0, 60, 67
1, 16211, Control_c, 0, 64, 0
1, 16260, Note_on_c, 0, 65, 0
1, 16298, Note_on_c, 0, 69, 0
1, 16302, Note_on_c, 0, 53, 0
1, 16313, Note_on_c, 0, 60, 0
1, 16394, Note_on_c, 0, 71, 88
1, 16488, Note_on_c, 0, 72, 88
1, 16491, Note_on_c, 0, 71, 0
1, 16689, Note_on_c, 0, 63, 60
1, 16747, Note_on_c, 0, 63, 0
1, 16806, Note_on_c, 0, 64, 65
1, 16820, Note_on_c, 0, 60, 60
1, 16879, Note_on_c, 0, 60, 0
1, 16919, Control_c, 0, 64, 127
1, 16984, Note_on_c, 0, 72, 0
1, 17015, Note_on_c, 0, 64, 0
1, 17034, Note_on_c, 0, 67, 66
1, 17110, Control_c, 0, 64, 0
1, 17115, Note_on_c, 0, 67, 0
1, 17120, Note_on_c, 0, 69, 73
1, 17134, Note_on_c, 0, 53, 79
1, 17137, Note_on_c, 0, 60, 65
1, 17174, Note_on_c, 0, 53, 0
1, 17179, Note_on_c, 0, 60, 0
1, 17221, Note_on_c, 0, 69, 0
1, 17363, Note_on_c, 0, 71, 76
1, 17461, Note_on_c, 0, 71, 0
1, 17472, Note_on_c, 0, 72, 65
1, 17479, Note_on_c, 0, 64, 62
1, 17479, Note_on_c, 0, 67, 59
1, 17519, Note_on_c, 0, 64, 0
1, 17525, Note_on_c, 0, 67, 0
1, 17563, Note_on_c, 0, 72, 0
1, 17759, Note_on_c, 0, 76, 47
1, 17943, Note_on_c, 0, 76, 0
1, 17943, Note_on_c, 0, 77, 44
1, 17970, Note_on_c, 0, 69, 37
1, 17973, Note_on_c, 0, 65, 21
1, 18037, Note_on_c, 0, 65, 0
1, 18188, Control_c, 0, 64, 127
1, 18241, Note_on_c, 0, 69, 0
1, 18260, Control_c, 0, 64, 0
1, 18277, Note_on_c, 0, 77, 0
1, 18730, Note_on_c, 0, 77, 76
1, 18750, Note_on_c, 0, 69, 33
1, 18759, Note_on_c, 0, 65, 23
1, 18762, Note_on_c, 0, 62, 35
1, 18943, Control_c, 0, 64, 127
1, 18967, Note_on_c, 0, 65, 0
1, 18975, Note_on_c, 0, 77, 0
1, 18975, Note_on_c, 0, 69, 0
1, 18990, Note_on_c, 0, 62, 0
1, 19076, Note_on_c, 0, 76, 69
1, 19252, Note_on_c, 0, 74, 87
1, 19283, Note_on_c, 0, 76, 0
1, 19379, Note_on_c, 0, 74, 0
1, 19388, Control_c, 0, 64, 0
1, 19399, Note_on_c, 0, 72, 76
1, 19405, Note_on_c, 0, 65, 45
1, 19405, Note_on_c, 0, 62, 39
1, 19414, Note_on_c, 0, 55, 41
1, 19480, Note_on_c, 0, 72, 0
1, 19538, Note_on_c, 0, 71, 89
1, 19567, Note_on_c, 0, 65, 0
1, 19599, Note_on_c, 0, 71, 0
1, 19639, Note_on_c, 0, 62, 0
1, 19691, Note_on_c, 0, 72, 79
1, 19703, Note_on_c, 0, 64, 58
1, 19717, Note_on_c, 0, 55, 0
1, 19717, Note_on_c, 0, 60, 39
1, 19809, Note_on_c, 0, 72, 0
1, 19881, Note_on_c, 0, 64, 0
1, 19915, Note_on_c, 0, 69, 64
1, 19925, Note_on_c, 0, 60, 0
1, 19993, Note_on_c, 0, 69, 0
1, 19993, Note_on_c, 0, 67, 84
1, 20049, Note_on_c, 0, 67, 0
1, 20272, Note_on_c, 0, 74, 75
1, 20276, Note_on_c, 0, 65, 50
1, 20290, Note_on_c, 0, 59, 41
1, 20290, Note_on_c, 0, 55, 44
1, 20443, Note_on_c, 0, 65, 0
1, 20443, Control_c, 0, 64, 127
1, 20521, Note_on_c, 0, 59, 0
1, 20574, Control_c, 0, 64, 0
1, 20595, Note_on_c, 0, 72, 56
1, 20605, Note_on_c, 0, 64, 41
1, 20613, Note_on_c, 0, 55, 0
1, 20620, Note_on_c, 0, 74, 0
1, 20636, Note_on_c, 0, 60, 36
1, 20747, Note_on_c, 0, 72, 0
1, 20776, Note_on_c, 0, 64, 0
1, 20776, Control_c, 0, 64, 127
1, 20834, Note_on_c, 0, 69, 48
1, 20856, Note_on_c, 0, 60, 0
1, 20897, Control_c, 0, 64, 0
1, 20915, Note_on_c, 0, 69, 0
1, 20915, Note_on_c, 0, 67, 51
1, 21060, Note_on_c, 0, 67, 0
1, 21199, Note_on_c, 0, 74, 79
1, 21204, Note_on_c, 0, 65, 52
1, 21215, Note_on_c, 0, 59, 45
1, 21224, Note_on_c, 0, 55, 43
1, 21354, Note_on_c, 0, 74, 0
1, 21354, Note_on_c, 0, 76, 73
1, 21375, Note_on_c, 0, 65, 0
1, 21375, Control_c, 0, 64, 127
1, 21433, Note_on_c, 0, 74, 64
1, 21444, Note_on_c, 0, 59, 0
1, 21460, Note_on_c, 0, 76, 0
1, 21460, Control_c, 0, 64, 0
1, 21502, Note_on_c, 0, 74, 0
1, 21513, Note_on_c, 0, 72, 74
1, 21513, Note_on_c, 0, 64, 45
1, 21533, Note_on_c, 0, 55, 0
1, 21547, Note_on_c, 0, 60, 45
1, 21577, Note_on_c, 0, 72, 0
1, 21730, Note_on_c, 0, 64, 0
1, 21750, Note_on_c, 0, 60, 0
1, 21754, Note_on_c, 0, 69, 52
1, 21820, Note_on_c, 0, 67, 67
1, 21824, Note_on_c, 0, 69, 0
1, 21896, Note_on_c, 0, 67, 0
1, 22035, Control_c, 0, 64, 127
1, 22112, Note_on_c, 0, 79, 115
1, 22126, Note_on_c, 0, 67, 73
1, 22129, Note_on_c, 0, 64, 76
1, 22400, Note_on_c, 0, 67, 0
1, 22416, Note_on_c, 0, 77, 99
1, 22428, Note_on_c, 0, 69, 56
1, 22433, Note_on_c, 0, 64, 0
1, 22439, Note_on_c, 0, 62, 55
1, 22477, Note_on_c, 0, 79, 0
1, 22480, Control_c, 0, 64, 0
1, 22617, Note_on_c, 0, 77, 0
1, 22636, Control_c, 0, 64, 127
1, 22653, Note_on_c, 0, 69, 0
1, 22686, Note_on_c, 0, 62, 0
1, 22695, Note_on_c, 0, 76, 87
1, 22754, Control_c, 0, 64, 0
1, 22837, Note_on_c, 0, 74, 86
1, 22851, Note_on_c, 0, 76, 0
1, 22896, Note_on_c, 0, 74, 0
1, 22976, Note_on_c, 0, 72, 76
1, 22976, Note_on_c, 0, 65, 54
1, 22985, Note_on_c, 0, 62, 46
1, 22993, Note_on_c, 0, 55, 49
1, 23024, Note_on_c, 0, 72, 0
1, 23113, Note_on_c, 0, 71, 85
1, 23151, Note_on_c, 0, 65, 0
1, 23162, Note_on_c, 0, 71, 0
1, 23243, Note_on_c, 0, 62, 0
1, 23265, Note_on_c, 0, 72, 66
1, 23280, Note_on_c, 0, 60, 43
1, 23280, Note_on_c, 0, 64, 58
1, 23308, Note_on_c, 0, 55, 0
1, 23371, Note_on_c, 0, 72, 0
1, 23478, Note_on_c, 0, 69, 61
1, 23561, Note_on_c, 0, 69, 0
1, 23561, Note_on_c, 0, 67, 58
1, 23564, Note_on_c, 0, 64, 0
1, 23581, Note_on_c, 0, 60, 0
1, 23650, Note_on_c, 0, 67, 0
1, 23829, Note_on_c, 0, 74, 87
1, 23836, Note_on_c, 0, 65, 47
1, 23848, Note_on_c, 0, 59, 36
1, 23853, Note_on_c, 0, 55, 44
1, 23918, Control_c, 0, 64, 127
1, 23977, Note_on_c, 0, 65, 0
1, 24007, Note_on_c, 0, 59, 0
1, 24123, Note_on_c, 0, 72, 71
1, 24129, Note_on_c, 0, 55, 0
1, 24135, Note_on_c, 0, 64, 52
1, 24157, Note_on_c, 0, 60, 42
1, 24165, Note_on_c, 0, 74, 0
1, 24249, Note_on_c, 0, 72, 0
1, 24347, Note_on_c, 0, 69, 65
1, 24369, Note_on_c, 0, 64, 0
1, 24396, Control_c, 0, 64, 0
1, 24403, Note_on_c, 0, 60, 0
1, 24421, Note_on_c, 0, 69, 0
1, 24425, Note_on_c, 0, 67, 79
1, 24542, Note_on_c, 0, 67, 0
1, 24625, Control_c, 0, 64, 127
1, 24678, Note_on_c, 0, 74, 103
1, 24678, Note_on_c, 0, 65, 67
1, 24689, Note_on_c, 0, 59, 57
1, 24692, Note_on_c, 0, 55, 65
1, 24795, Note_on_c, 0, 76, 94
1, 24814, Note_on_c, 0, 74, 0
1, 24823, Note_on_c, 0, 65, 0
1, 24851, Note_on_c, 0, 59, 0
1, 24875, Note_on_c, 0, 74, 91
1, 24913, Note_on_c, 0, 55, 0
1, 24929, Note_on_c, 0, 76, 0
1, 24948, Control_c, 0, 64, 0
1, 24956, Note_on_c, 0, 64, 80
1, 24956, Note_on_c, 0, 72, 103
1, 24967, Note_on_c, 0, 60, 78
1, 24979, Note_on_c, 0, 74, 0
1, 25027, Note_on_c, 0, 60, 0
1, 25046, Note_on_c, 0, 64, 0
1, 25066, Note_on_c, 0, 72, 0
1, 25160, Note_on_c, 0, 76, 96
1, 25227, Note_on_c, 0, 55, 66
1, 25230, Note_on_c, 0, 65, 65
1, 25230, Note_on_c, 0, 62, 47
1, 25246, Note_on_c, 0, 79, 107
1, 25268, Note_on_c, 0, 76, 0
1, 25308, Control_c, 0, 64, 127
1, 25313, Note_on_c, 0, 55, 0
1, 25313, Note_on_c, 0, 65, 0
1, 25330, Note_on_c, 0, 62, 0
1, 25330, Control_c, 0, 64, 0
1, 25338, Note_on_c, 0, 79, 0
1, 25439, Note_on_c, 0, 71, 98
1, 25514, Note_on_c, 0, 71, 0
1, 25534, Note_on_c, 0, 64, 66
1, 25537, Note_on_c, 0, 72, 92
1, 25552, Note_on_c, 0, 60, 59
1, 25597, Note_on_c, 0, 64, 0
1, 25619, Control_c, 0, 64, 127
1, 25628, Note_on_c, 0, 60, 0
1, 25644, Note_on_c, 0, 72, 0
1, 25667, Control_c, 0, 64, 0
1, 25966, Note_on_c, 0, 77, 61
1, 25977, Note_on_c, 0, 69, 34
1, 25988, Note_on_c, 0, 65, 29
1, 25988, Note_on_c, 0, 62, 33
1, 26122, Note_on_c, 0, 69, 0
1, 26135, Control_c, 0, 64, 127
1, 26154, Note_on_c, 0, 77, 0
1, 26208, Note_on_c, 0, 65, 0
1, 26213, Note_on_c, 0, 62, 0
1, 26300, Note_on_c, 0, 76, 51
1, 26463, Note_on_c, 0, 74, 58
1, 26475, Note_on_c, 0, 76, 0
1, 26520, Note_on_c, 0, 74, 0
1, 26566, Control_c, 0, 64, 0
1, 26612, Note_on_c, 0, 72, 43
1, 26615, Note_on_c, 0, 62, 37
1, 26615, Note_on_c, 0, 65, 41
1, 26628, Note_on_c, 0, 55, 29
1, 26718, Note_on_c, 0, 72, 0
1, 26743, Note_on_c, 0, 71, 65
1, 26743, Control_c, 0, 64, 127
1, 26776, Note_on_c, 0, 65, 0
1, 26779, Note_on_c, 0, 62, 0
1, 26862, Note_on_c, 0, 55, 0
1, 26878, Control_c, 0, 64, 0
1, 26887, Note_on_c, 0, 72, 58
1, 26893, Note_on_c, 0, 71, 0
1, 26909, Note_on_c, 0, 64, 43
1, 26909, Note_on_c, 0, 60, 38
1, 26982, Note_on_c, 0, 72, 0
1, 27115, Note_on_c, 0, 64, 0
1, 27115, Note_on_c, 0, 69, 60
1, 27140, Note_on_c, 0, 60, 0
1, 27202, Note_on_c, 0, 67, 52
1, 27218, Note_on_c, 0, 69, 0
1, 27269, Note_on_c, 0, 67, 0
1, 27486, Note_on_c, 0, 74, 72
1, 27492, Note_on_c, 0, 65, 41
1, 27495, Note_on_c, 0, 59, 37
1, 27500, Note_on_c, 0, 55, 40
1, 27584, Control_c, 0, 64, 127
1, 27629, Note_on_c, 0, 59, 0
1, 27629, Note_on_c, 0, 65, 0
1, 27717, Note_on_c, 0, 55, 0
1, 27775, Note_on_c, 0, 72, 61
1, 27792, Note_on_c, 0, 64, 42
1, 27809, Note_on_c, 0, 60, 40
1, 27809, Control_c, 0, 64, 0
1, 27821, Note_on_c, 0, 74, 0
1, 27918, Note_on_c, 0, 72, 0
1, 27949, Note_on_c, 0, 64, 0
1, 27976, Note_on_c, 0, 60, 0
1, 27980, Control_c, 0, 64, 127
1, 28009, Note_on_c, 0, 69, 59
1, 28057, Note_on_c, 0, 69, 0
1, 28079, Note_on_c, 0, 67, 74
1, 28143, Note_on_c, 0, 67, 0
1, 28172, Control_c, 0, 64, 0
1, 28331, Note_on_c, 0, 74, 89
1, 28361, Note_on_c, 0, 65, 47
1, 28364, Note_on_c, 0, 59, 39
1, 28364, Note_on_c, 0, 55, 36
1, 28520, Note_on_c, 0, 76, 78
1, 28540, Note_on_c, 0, 74, 0
1, 28556, Control_c, 0, 64, 127
1, 28587, Note_on_c, 0, 65, 0
1, 28643, Note_on_c, 0, 74, 71
1, 28665, Note_on_c, 0, 76, 0
1, 28665, Note_on_c, 0, 59, 0
1, 28718, Note_on_c, 0, 74, 0
1, 28736, Note_on_c, 0, 55, 0
1, 28736, Control_c, 0, 64, 0
1, 28739, Note_on_c, 0, 64, 47
1, 28739, Note_on_c, 0, 72, 79
1, 28759, Note_on_c, 0, 60, 34
1, 28868, Note_on_c, 0, 72, 0
1, 28951, Control_c, 0, 64, 127
1, 28980, Note_on_c, 0, 64, 0
1, 28980, Note_on_c, 0, 69, 69
1, 28987, Note_on_c, 0, 60, 0
1, 29029, Note_on_c, 0, 69, 0
1, 29062, Note_on_c, 0, 67, 85
1, 29155, Control_c, 0, 64, 0
1, 29260, Note_on_c, 0, 67, 0
1, 29299, Control_c, 0, 64, 127
1, 29416, Note_on_c, 0, 79, 115
1, 29420, Note_on_c, 0, 64, 60
1, 29423, Note_on_c, 0, 67, 69
1, 29770, Note_on_c, 0, 64, 0
1, 29804, Note_on_c, 0, 62, 21
1, 29817, Note_on_c, 0, 77, 92
1, 29821, Note_on_c, 0, 69, 42
1, 29840, Note_on_c, 0, 67, 0
1, 29849, Control_c, 0, 64, 0
1, 29870, Note_on_c, 0, 79, 0
1, 30030, Control_c, 0, 64, 127
1, 30094, Note_on_c, 0, 77, 0
1, 30132, Note_on_c, 0, 62, 0
1, 30132, Note_on_c, 0, 69, 0
1, 30182, Note_on_c, 0, 76, 76
1, 30364, Note_on_c, 0, 74, 80
1, 30388, Note_on_c, 0, 76, 0
1, 30422, Note_on_c, 0, 74, 0
1, 30448, Control_c, 0, 64, 0
1, 30459, Note_on_c, 0, 65, 39
1, 30483, Note_on_c, 0, 62, 41
1, 30492, Note_on_c, 0, 55, 30
1, 30519, Note_on_c, 0, 72, 77
1, 30617, Control_c, 0, 64, 127
1, 30631, Note_on_c, 0, 65, 0
1, 30636, Note_on_c, 0, 72, 0
1, 30675, Note_on_c, 0, 71, 83
1, 30682, Note_on_c, 0, 62, 0
1, 30785, Control_c, 0, 64, 0
1, 30792, Note_on_c, 0, 71, 0
1, 30801, Note_on_c, 0, 55, 0
1, 30818, Note_on_c, 0, 72, 70
1, 30823, Note_on_c, 0, 60, 35
1, 30826, Note_on_c, 0, 64, 48
1, 30941, Control_c, 0, 64, 127
1, 30944, Note_on_c, 0, 72, 0
1, 31044, Note_on_c, 0, 64, 0
1, 31066, Note_on_c, 0, 69, 61
1, 31079, Note_on_c, 0, 60, 0
1, 31121, Note_on_c, 0, 69, 0
1, 31144, Control_c, 0, 64, 0
1, 31153, Note_on_c, 0, 67, 78
1, 31269, Note_on_c, 0, 67, 0
1, 31444, Note_on_c, 0, 74, 105
1, 31444, Note_on_c, 0, 68, 75
1, 31447, Note_on_c, 0, 62, 58
1, 31447, Note_on_c, 0, 58, 53
1, 31528, Control_c, 0, 64, 127
1, 31827, Note_on_c, 0, 62, 0
1, 31827, Note_on_c, 0, 73, 75
1, 31834, Note_on_c, 0, 69, 48
1, 31845, Note_on_c, 0, 64, 52
1, 31849, Note_on_c, 0, 58, 0
1, 31855, Note_on_c, 0, 68, 0
1, 31855, Note_on_c, 0, 57, 47
1, 31887, Note_on_c, 0, 74, 0
1, 31887, Control_c, 0, 64, 0
1, 32063, Note_on_c, 0, 69, 0
1, 32091, Control_c, 0, 64, 127
1, 32116, Note_on_c, 0, 64, 0
1, 32135, Note_on_c, 0, 73, 0
1, 32141, Note_on_c, 0, 57, 0
1, 32163, Note_on_c, 0, 70, 71
1, 32267, Note_on_c, 0, 70, 0
1, 32267, Note_on_c, 0, 69, 71
1, 32484, Note_on_c, 0, 69, 0
1, 32523, Control_c, 0, 64, 0
1, 32575, Note_on_c, 0, 74, 103
1, 32575, Note_on_c, 0, 68, 84
1, 32578, Note_on_c, 0, 58, 54
1, 32582, Note_on_c, 0, 62, 63
1, 32762, Control_c, 0, 64, 127
1, 32777, Note_on_c, 0, 76, 92
1, 32795, Note_on_c, 0, 74, 0
1, 32894, Note_on_c, 0, 74, 88
1, 32902, Note_on_c, 0, 62, 0
1, 32965, Note_on_c, 0, 58, 0
1, 32996, Note_on_c, 0, 68, 0
1, 33001, Note_on_c, 0, 76, 0
1, 33001, Control_c, 0, 64, 0
1, 33007, Note_on_c, 0, 73, 91
1, 33007, Note_on_c, 0, 69, 66
1, 33029, Note_on_c, 0, 64, 49
1, 33033, Note_on_c, 0, 74, 0
1, 33036, Note_on_c, 0, 57, 46
1, 33205, Note_on_c, 0, 69, 0
1, 33217, Control_c, 0, 64, 127
1, 33228, Note_on_c, 0, 73, 0
1, 33288, Note_on_c, 0, 64, 0
1, 33302, Note_on_c, 0, 76, 96
1, 33314, Note_on_c, 0, 57, 0
1, 33412, Note_on_c, 0, 69, 84
1, 33434, Note_on_c, 0, 76, 0
1, 33470, Control_c, 0, 64, 0
1, 33604, Note_on_c, 0, 69, 0
1, 33625, Control_c, 0, 64, 127
1, 33724, Note_on_c, 0, 70, 70
1, 33868, Note_on_c, 0, 71, 71
1, 33884, Note_on_c, 0, 70, 0
1, 33888, Control_c, 0, 64, 0
1, 34055, Note_on_c, 0, 71, 0
1, 34093, Control_c, 0, 64, 127
1, 34272, Note_on_c, 0, 73, 57
1, 34417, Control_c, 0, 64, 0
1, 34462, Note_on_c, 0, 74, 54
1, 34472, Note_on_c, 0, 73, 0
1, 34472, Note_on_c, 0, 50, 43
1, 34612, Note_on_c, 0, 74, 0
1, 34632, Control_c, 0, 64, 127
1, 34656, Note_on_c, 0, 50, 0
1, 34846, Note_on_c, 0, 76, 55
1, 34910, Note_on_c, 0, 76, 0
1, 34974, Note_on_c, 0, 77, 68
1, 35328, Control_c, 0, 64, 0
1, 35361, Note_on_c, 0, 65, 36
1, 35361, Note_on_c, 0, 57, 36
1, 35370, Note_on_c, 0, 62, 37
1, 35482, Control_c, 0, 64, 127
1, 35493, Note_on_c, 0, 62, 0
1, 35493, Note_on_c, 0, 57, 0
1, 35497, Note_on_c, 0, 65, 0
1, 35687, Control_c, 0, 64, 0
1, 35710, Note_on_c, 0, 76, 52
1, 35731, Note_on_c, 0, 50, 41
1, 35762, Note_on_c, 0, 77, 0
1, 35830, Note_on_c, 0, 76, 0
1, 35879, Control_c, 0, 64, 127
1, 35966, Note_on_c, 0, 73, 51
1, 36018, Note_on_c, 0, 73, 0
1, 36028, Note_on_c, 0, 50, 0
1, 36055, Note_on_c, 0, 69, 54
1, 36322, Control_c, 0, 64, 0
1, 36370, Note_on_c, 0, 64, 42
1, 36378, Note_on_c, 0, 61, 33
1, 36378, Note_on_c, 0, 57, 36
1, 36465, Control_c, 0, 64, 127
1, 36490, Note_on_c, 0, 57, 0
1, 36500, Note_on_c, 0, 61, 0
1, 36559, Note_on_c, 0, 64, 0
1, 36690, Note_on_c, 0, 69, 0
1, 36729, Control_c, 0, 64, 0
1, 36734, Note_on_c, 0, 67, 43
1, 36748, Note_on_c, 0, 50, 53
1, 36872, Note_on_c, 0, 67, 0
1, 36885, Control_c, 0, 64, 127
1, 36980, Note_on_c, 0, 50, 0
1, 37021, Note_on_c, 0, 69, 63
1, 37092, Note_on_c, 0, 69, 0
1, 37103, Note_on_c, 0, 70, 78
1, 37220, Control_c, 0, 64, 0
1, 37429, Note_on_c, 0, 64, 45
1, 37432, Note_on_c, 0, 61, 42
1, 37442, Note_on_c, 0, 55, 42
1, 37509, Control_c, 0, 64, 127
1, 37578, Note_on_c, 0, 55, 0
1, 37578, Note_on_c, 0, 61, 0
1, 37617, Note_on_c, 0, 64, 0
1, 37760, Control_c, 0, 64, 0
1, 37769, Note_on_c, 0, 50, 52
1, 37769, Note_on_c, 0, 69, 56
1, 37804, Note_on_c, 0, 70, 0
1, 37886, Note_on_c, 0, 69, 0
1, 37916, Control_c, 0, 64, 127
1, 38039, Note_on_c, 0, 50, 0
1, 38039, Note_on_c, 0, 65, 46
1, 38092, Note_on_c, 0, 65, 0
1, 38119, Note_on_c, 0, 62, 69
1, 38192, Control_c, 0, 64, 0
1, 38443, Note_on_c, 0, 57, 44
1, 38456, Note_on_c, 0, 53, 66
1, 38551, Control_c, 0, 64, 127
1, 38681, Note_on_c, 0, 53, 0
1, 38755, Note_on_c, 0, 57, 0
1, 38763, Note_on_c, 0, 62, 0
1, 38777, Note_on_c, 0, 74, 85
1, 38788, Note_on_c, 0, 58, 42
1, 38804, Control_c, 0, 64, 0
1, 38983, Control_c, 0, 64, 127
1, 39000, Note_on_c, 0, 74, 0
1, 39086, Note_on_c, 0, 74, 78
1, 39091, Control_c, 0, 64, 0
1, 39222, Note_on_c, 0, 74, 0
1, 39245, Note_on_c, 0, 76, 88
1, 39258, Control_c, 0, 64, 127
1, 39269, Note_on_c, 0, 58, 0
1, 39345, Note_on_c, 0, 76, 0
1, 39354, Control_c, 0, 64, 0
1, 39384, Note_on_c, 0, 74, 100
1, 39384, Note_on_c, 0, 68, 46
1, 39404, Note_on_c, 0, 62, 45
1, 39437, Note_on_c, 0, 74, 0
1, 39526, Note_on_c, 0, 76, 95
1, 39615, Note_on_c, 0, 76, 0
1, 39615, Note_on_c, 0, 68, 0
1, 39618, Control_c, 0, 64, 127
1, 39640, Note_on_c, 0, 62, 0
1, 39698, Note_on_c, 0, 73, 75
1, 39698, Control_c, 0, 64, 0
1, 39723, Note_on_c, 0, 57, 43
1, 39826, Note_on_c, 0, 73, 0
1, 39869, Control_c, 0, 64, 127
1, 39952, Note_on_c, 0, 70, 54
1, 39977, Control_c, 0, 64, 0
1, 40013, Note_on_c, 0, 70, 0
1, 40022, Note_on_c, 0, 69, 71
1, 40085, Note_on_c, 0, 57, 0
1, 40265, Control_c, 0, 64, 127
1, 40337, Control_c, 0, 64, 0
1, 40347, Note_on_c, 0, 64, 54
1, 40347, Note_on_c, 0, 61, 35
1, 40493, Control_c, 0, 64, 127
1, 40591, Note_on_c, 0, 64, 0
1, 40663, Note_on_c, 0, 69, 0
1, 40673, Control_c, 0, 64, 0
1, 40679, Note_on_c, 0, 61, 0
1, 40682, Note_on_c, 0, 77, 67
1, 40685, Note_on_c, 0, 58, 37
1, 40900, Control_c, 0, 64, 127
1, 41013, Note_on_c, 0, 77, 0
1, 41039, Note_on_c, 0, 76, 51
1, 41044, Control_c, 0, 64, 0
1, 41162, Note_on_c, 0, 76, 0
1, 41175, Control_c, 0, 64, 127
1, 41197, Note_on_c, 0, 58, 0
1, 41201, Note_on_c, 0, 74, 70
1, 41258, Note_on_c, 0, 74, 0
1, 41368, Control_c, 0, 64, 0
1, 41376, Note_on_c, 0, 73, 56
1, 41379, Note_on_c, 0, 68, 38
1, 41386, Note_on_c, 0, 62, 37
1, 41471, Note_on_c, 0, 73, 0
1, 41512, Control_c, 0, 64, 127
1, 41534, Note_on_c, 0, 68, 0
1, 41537, Note_on_c, 0, 74, 58
1, 41554, Note_on_c, 0, 62, 0
1, 41602, Note_on_c, 0, 74, 0
1, 41704, Control_c, 0, 64, 0
1, 41733, Note_on_c, 0, 76, 53
1, 41741, Note_on_c, 0, 57, 35
1, 41930, Control_c, 0, 64, 127
1, 41953, Note_on_c, 0, 76, 0
1, 42086, Note_on_c, 0, 73, 39
1, 42183, Control_c, 0, 64, 0
1, 42211, Note_on_c, 0, 69, 46
1, 42217, Note_on_c, 0, 73, 0
1, 42507, Note_on_c, 0, 57, 0
1, 42573, Note_on_c, 0, 64, 35
1, 42577, Control_c, 0, 64, 127
1, 42587, Note_on_c, 0, 61, 33
1, 42648, Note_on_c, 0, 61, 0
1, 42707, Note_on_c, 0, 64, 0
1, 42707, Note_on_c, 0, 69, 0
1, 42961, Control_c, 0, 64, 0
1, 42991, Note_on_c, 0, 74, 92
1, 43006, Note_on_c, 0, 50, 54
1, 43128, Note_on_c, 0, 74, 0
1, 43128, Control_c, 0, 64, 127
1, 43209, Note_on_c, 0, 50, 0
1, 43279, Note_on_c, 0, 76, 98
1, 43373, Note_on_c, 0, 77, 107
1, 43428, Note_on_c, 0, 76, 0
1, 43501, Control_c, 0, 64, 0
1, 43694, Note_on_c, 0, 65, 62
1, 43705, Note_on_c, 0, 62, 63
1, 43708, Note_on_c, 0, 57, 56
1, 43765, Control_c, 0, 64, 127
1, 43789, Note_on_c, 0, 57, 0
1, 43804, Note_on_c, 0, 65, 0
1, 43816, Note_on_c, 0, 62, 0
1, 44038, Note_on_c, 0, 76, 87
1, 44052, Control_c, 0, 64, 0
1, 44067, Note_on_c, 0, 50, 70
1, 44111, Note_on_c, 0, 77, 0
1, 44197, Control_c, 0, 64, 127
1, 44217, Note_on_c, 0, 76, 0
1, 44231, Note_on_c, 0, 50, 0
1, 44307, Note_on_c, 0, 73, 75
1, 44396, Note_on_c, 0, 69, 89
1, 44415, Note_on_c, 0, 73, 0
1, 44484, Control_c, 0, 64, 0
1, 44719, Note_on_c, 0, 64, 61
1, 44722, Note_on_c, 0, 61, 58
1, 44730, Note_on_c, 0, 57, 51
1, 44794, Control_c, 0, 64, 127
1, 44858, Note_on_c, 0, 57, 0
1, 44883, Note_on_c, 0, 61, 0
1, 44939, Note_on_c, 0, 64, 0
1, 44964, Note_on_c, 0, 69, 0
1, 45058, Note_on_c, 0, 67, 93
1, 45070, Control_c, 0, 64, 0
1, 45076, Note_on_c, 0, 50, 69
1, 45226, Control_c, 0, 64, 127
1, 45229, Note_on_c, 0, 67, 0
1, 45265, Note_on_c, 0, 50, 0
1, 45321, Note_on_c, 0, 69, 89
1, 45401, Note_on_c, 0, 70, 98
1, 45435, Note_on_c, 0, 69, 0
1, 45467, Control_c, 0, 64, 0
1, 45719, Note_on_c, 0, 61, 51
1, 45719, Note_on_c, 0, 64, 60
1, 45736, Note_on_c, 0, 55, 46
1, 45802, Control_c, 0, 64, 127
1, 45861, Note_on_c, 0, 55, 0
1, 45869, Note_on_c, 0, 61, 0
1, 45892, Note_on_c, 0, 64, 0
1, 46101, Control_c, 0, 64, 0
1, 46105, Note_on_c, 0, 69, 67
1, 46120, Note_on_c, 0, 50, 52
1, 46134, Note_on_c, 0, 70, 0
1, 46281, Control_c, 0, 64, 127
1, 46287, Note_on_c, 0, 69, 0
1, 46306, Note_on_c, 0, 50, 0
1, 46410, Note_on_c, 0, 65, 48
1, 46507, Note_on_c, 0, 65, 0
1, 46507, Note_on_c, 0, 62, 72
1, 46605, Control_c, 0, 64, 0
1, 46844, Note_on_c, 0, 57, 43
1, 46860, Note_on_c, 0, 53, 67
1, 46941, Control_c, 0, 64, 127
1, 46995, Note_on_c, 0, 53, 0
1, 47089, Note_on_c, 0, 57, 0
1, 47278, Note_on_c, 0, 62, 0
1, 47295, Note_on_c, 0, 70, 84
1, 47314, Note_on_c, 0, 43, 55
1, 47348, Control_c, 0, 64, 0
1, 47516, Control_c, 0, 64, 127
1, 47537, Note_on_c, 0, 70, 0
1, 47544, Note_on_c, 0, 43, 0
1, 47641, Note_on_c, 0, 69, 83
1, 47807, Note_on_c, 0, 67, 99
1, 47858, Note_on_c, 0, 69, 0
1, 47948, Note_on_c, 0, 67, 0
1, 47959, Control_c, 0, 64, 0
1, 47966, Note_on_c, 0, 65, 96
1, 47966, Note_on_c, 0, 62, 59
1, 47972, Note_on_c, 0, 58, 43
1, 47977, Note_on_c, 0, 55, 57
1, 48051, Note_on_c, 0, 62, 0
1, 48056, Note_on_c, 0, 65, 0
1, 48056, Note_on_c, 0, 55, 0
1, 48079, Note_on_c, 0, 58, 0
1, 48090, Control_c, 0, 64, 127
1, 48126, Note_on_c, 0, 64, 104
1, 48211, Note_on_c, 0, 64, 0
1, 48234, Control_c, 0, 64, 0
1, 48292, Note_on_c, 0, 65, 80
1, 48296, Note_on_c, 0, 45, 41
1, 48396, Note_on_c, 0, 65, 0
1, 48402, Control_c, 0, 64, 127
1, 48547, Note_on_c, 0, 69, 58
1, 48621, Note_on_c, 0, 69, 0
1, 48629, Note_on_c, 0, 45, 0
1, 48629, Note_on_c, 0, 62, 81
1, 48906, Control_c, 0, 64, 0
1, 48952, Note_on_c, 0, 57, 49
1, 48973, Note_on_c, 0, 53, 61
1, 49097, Note_on_c, 0, 53, 0
1, 49097, Note_on_c, 0, 57, 0
1, 49097, Control_c, 0, 64, 127
1, 49266, Control_c, 0, 64, 0
1, 49278, Note_on_c, 0, 64, 67
1, 49282, Note_on_c, 0, 45, 55
1, 49288, Note_on_c, 0, 62, 0
1, 49437, Note_on_c, 0, 64, 0
1, 49469, Control_c, 0, 64, 127
1, 49538, Note_on_c, 0, 45, 0
1, 49586, Note_on_c, 0, 64, 58
1, 49705, Note_on_c, 0, 64, 0
1, 49756, Note_on_c, 0, 65, 54
1, 49845, Note_on_c, 0, 65, 0
1, 49864, Control_c, 0, 64, 0
1, 49906, Note_on_c, 0, 64, 68
1, 49906, Note_on_c, 0, 61, 48
1, 49916, Note_on_c, 0, 57, 26
1, 49916, Note_on_c, 0, 55, 27
1, 49984, Note_on_c, 0, 57, 0
1, 49987, Note_on_c, 0, 55, 0
1, 50006, Note_on_c, 0, 64, 0
1, 50015, Note_on_c, 0, 61, 0
1, 50056, Control_c, 0, 64, 127
1, 50062, Note_on_c, 0, 65, 62
1, 50122, Note_on_c, 0, 65, 0
1, 50140, Control_c, 0, 64, 0
1, 50207, Note_on_c, 0, 62, 67
1, 50207, Note_on_c, 0, 50, 51
1, 50207, Note_on_c, 0, 57, 47
1, 50217, Note_on_c, 0, 53, 73
1, 50278, Note_on_c, 0, 53, 0
1, 50318, Note_on_c, 0, 57, 0
1, 50318, Note_on_c, 0, 62, 0
1, 50341, Note_on_c, 0, 50, 0
1, 50345, Control_c, 0, 64, 127
1, 50455, Note_on_c, 0, 68, 68
1, 50512, Control_c, 0, 64, 0
1, 50541, Note_on_c, 0, 69, 80
1, 50561, Note_on_c, 0, 68, 0
1, 50758, Note_on_c, 0, 60, 66
1, 50808, Note_on_c, 0, 60, 0
1, 50842, Note_on_c, 0, 61, 71
1, 50858, Note_on_c, 0, 57, 53
1, 50908, Control_c, 0, 64, 127
1, 50917, Note_on_c, 0, 57, 0
1, 51037, Note_on_c, 0, 61, 0
1, 51089, Note_on_c, 0, 64, 71
1, 51123, Control_c, 0, 64, 0
1, 51136, Note_on_c, 0, 64, 0
1, 51140, Note_on_c, 0, 69, 0
1, 51167, Note_on_c, 0, 50, 40
1, 51175, Note_on_c, 0, 62, 60
1, 51175, Note_on_c, 0, 57, 40
1, 51185, Note_on_c, 0, 65, 51
1, 51260, Note_on_c, 0, 62, 0
1, 51302, Note_on_c, 0, 65, 0
1, 51302, Control_c, 0, 64, 127
1, 51312, Note_on_c, 0, 57, 0
1, 51315, Note_on_c, 0, 50, 0
1, 51404, Note_on_c, 0, 68, 52
1, 51410, Control_c, 0, 64, 0
1, 51483, Note_on_c, 0, 68, 0
1, 51511, Note_on_c, 0, 69, 47
1, 51735, Note_on_c, 0, 60, 47
1, 51811, Note_on_c, 0, 60, 0
1, 51836, Note_on_c, 0, 61, 60
1, 51842, Note_on_c, 0, 57, 33
1, 51962, Control_c, 0, 64, 127
1, 51987, Note_on_c, 0, 57, 0
1, 52006, Note_on_c, 0, 61, 0
1, 52076, Note_on_c, 0, 69, 0
1, 52098, Note_on_c, 0, 64, 58
1, 52106, Control_c, 0, 64, 0
1, 52139, Note_on_c, 0, 64, 0
1, 52179, Note_on_c, 0, 65, 44
1, 52182, Note_on_c, 0, 62, 60
1, 52195, Note_on_c, 0, 50, 62
1, 52203, Note_on_c, 0, 57, 38
1, 52224, Note_on_c, 0, 62, 0
1, 52237, Note_on_c, 0, 50, 0
1, 52248, Note_on_c, 0, 65, 0
1, 52256, Note_on_c, 0, 57, 0
1, 52416, Note_on_c, 0, 68, 51
1, 52487, Note_on_c, 0, 68, 0
1, 52521, Note_on_c, 0, 69, 49
1, 52527, Note_on_c, 0, 57, 35
1, 52540, Note_on_c, 0, 61, 38
1, 52540, Note_on_c, 0, 64, 46
1, 52585, Control_c, 0, 64, 127
1, 52597, Note_on_c, 0, 64, 0
1, 52610, Note_on_c, 0, 61, 0
1, 52610, Control_c, 0, 64, 0
1, 52625, Note_on_c, 0, 57, 0
1, 52633, Note_on_c, 0, 69, 0
1, 52830, Note_on_c, 0, 73, 51
1, 52895, Note_on_c, 0, 73, 0
1, 52965, Note_on_c, 0, 74, 52
1, 52983, Note_on_c, 0, 65, 38
1, 52989, Note_on_c, 0, 62, 33
1, 53125, Note_on_c, 0, 65, 0
1, 53132, Note_on_c, 0, 62, 0
1, 53137, Control_c, 0, 64, 127
1, 53151, Note_on_c, 0, 74, 0
1, 53257, Control_c, 0, 64, 0
1, 55412, Control_c, 0, 64, 0
1, 55412, End_track
0, 0, End_of_file
