0, 0, Header, 1, 5, 480
1, 0, Start_track
1, 0, Title_t, "tchaikovsky six pieces op19 no1 reveries du soir"
1, 0, Copyright_t, "Adaptation for Disklavier pianos, by: Robert C. Kuhmann (c) 2012."
1, 0, Text_t, "Seq. (c) by: Segundo G. Yogore,  2007,  dody@pldtdsl.net\012"
1, 0, Time_signature, 2, 2, 24, 8
1, 0, Key_signature, -2, "major"
1, 0, Tempo, 800000
1, 960, Time_signature, 3, 2, 24, 8
1, 25440, Tempo, 800000
1, 35520, Key_signature, 1, "major"
1, 59760, Tempo, 833333
1, 60000, Tempo, 869565
1, 60240, Tempo, 909091
1, 60480, Tempo, 967742
1, 60720, Tempo, 1016949
1, 60960, Tempo, 1071429
1, 61200, Tempo, 1132075
1, 61440, Tempo, 845070
1, 77280, Time_signature, 1, 4, 6, 8
1, 77280, Key_signature, -2, "major"
1, 77400, Time_signature, 3, 2, 24, 8
1, 117720, Time_signature, 6, 2, 24, 8
1, 117720, End_track
2, 0, Start_track
2, 0, Title_t, "Grand Piano"
2, 0, Program_c, 0, 0
2, 0, Control_c, 0, 7, 115
2, 0, Control_c, 0, 10, 86
2, 480, Note_on_c, 0, 82, 88
2, 840, Note_on_c, 0, 81, 62
2, 900, Note_on_c, 0, 81, 0
2, 900, Note_on_c, 0, 82, 62
2, 960, Note_on_c, 0, 82, 0
2, 960, Note_on_c, 0, 82, 0
2, 960, Note_on_c, 0, 81, 62
2, 1200, Note_on_c, 0, 81, 0
2, 1200, Note_on_c, 0, 79, 62
2, 1440, Note_on_c, 0, 79, 0
2, 1440, Note_on_c, 0, 72, 62
2, 1920, Note_on_c, 0, 72, 0
2, 2400, Note_on_c, 0, 67, 62
2, 2400, Note_on_c, 0, 74, 62
2, 2880, Note_on_c, 0, 74, 0
2, 2880, Note_on_c, 0, 67, 0
2, 2880, Note_on_c, 0, 58, 62
2, 3360, Note_on_c, 0, 58, 0
2, 3360, Note_on_c, 0, 82, 88
2, 3720, Note_on_c, 0, 81, 62
2, 3780, Note_on_c, 0, 81, 0
2, 3780, Note_on_c, 0, 82, 62
2, 3840, Note_on_c, 0, 82, 0
2, 3840, Note_on_c, 0, 82, 0
2, 3840, Note_on_c, 0, 81, 62
2, 4080, Note_on_c, 0, 81, 0
2, 4080, Note_on_c, 0, 79, 62
2, 4320, Note_on_c, 0, 79, 0
2, 4320, Note_on_c, 0, 72, 62
2, 4800, Note_on_c, 0, 72, 0
2, 5280, Note_on_c, 0, 67, 62
2, 5280, Note_on_c, 0, 74, 62
2, 5760, Note_on_c, 0, 74, 0
2, 5760, Note_on_c, 0, 67, 0
2, 5760, Note_on_c, 0, 58, 62
2, 6240, Note_on_c, 0, 58, 0
2, 6240, Control_c, 0, 64, 127
2, 6240, Note_on_c, 0, 74, 62
2, 6360, Note_on_c, 0, 74, 0
2, 6360, Note_on_c, 0, 75, 62
2, 6480, Note_on_c, 0, 75, 0
2, 6480, Note_on_c, 0, 77, 62
2, 6600, Note_on_c, 0, 77, 0
2, 6600, Control_c, 0, 64, 0
2, 6600, Note_on_c, 0, 79, 62
2, 6720, Note_on_c, 0, 79, 0
2, 6720, Note_on_c, 0, 69, 88
2, 7080, Note_on_c, 0, 69, 0
2, 7080, Note_on_c, 0, 67, 62
2, 7200, Note_on_c, 0, 67, 0
2, 7200, Note_on_c, 0, 67, 62
2, 7680, Note_on_c, 0, 67, 0
2, 7680, Note_on_c, 0, 72, 62
2, 8160, Note_on_c, 0, 72, 0
2, 8160, Note_on_c, 0, 67, 62
2, 8640, Note_on_c, 0, 67, 0
2, 8640, Note_on_c, 0, 65, 62
2, 9120, Note_on_c, 0, 65, 0
2, 9120, Control_c, 0, 64, 127
2, 9120, Note_on_c, 0, 74, 62
2, 9240, Note_on_c, 0, 74, 0
2, 9240, Note_on_c, 0, 75, 62
2, 9360, Note_on_c, 0, 75, 0
2, 9360, Note_on_c, 0, 77, 62
2, 9480, Note_on_c, 0, 77, 0
2, 9480, Note_on_c, 0, 79, 62
2, 9600, Note_on_c, 0, 79, 0
2, 9600, Control_c, 0, 64, 0
2, 9600, Note_on_c, 0, 69, 88
2, 9960, Note_on_c, 0, 69, 0
2, 9960, Note_on_c, 0, 67, 62
2, 10080, Note_on_c, 0, 67, 0
2, 10080, Note_on_c, 0, 67, 62
2, 10560, Note_on_c, 0, 67, 0
2, 10560, Note_on_c, 0, 72, 62
2, 11040, Note_on_c, 0, 72, 0
2, 11040, Note_on_c, 0, 67, 62
2, 11520, Note_on_c, 0, 67, 0
2, 11520, Note_on_c, 0, 65, 62
2, 12000, Note_on_c, 0, 65, 0
2, 12000, Control_c, 0, 64, 127
2, 12000, Note_on_c, 0, 65, 75
2, 12120, Note_on_c, 0, 65, 0
2, 12120, Note_on_c, 0, 76, 75
2, 12240, Note_on_c, 0, 76, 0
2, 12240, Note_on_c, 0, 74, 75
2, 12360, Note_on_c, 0, 74, 0
2, 12360, Note_on_c, 0, 76, 75
2, 12480, Note_on_c, 0, 76, 0
2, 12480, Note_on_c, 0, 65, 75
2, 12600, Note_on_c, 0, 65, 0
2, 12600, Note_on_c, 0, 76, 75
2, 12720, Note_on_c, 0, 76, 0
2, 12720, Note_on_c, 0, 74, 75
2, 12840, Note_on_c, 0, 74, 0
2, 12840, Note_on_c, 0, 76, 75
2, 12960, Note_on_c, 0, 76, 0
2, 12960, Note_on_c, 0, 79, 75
2, 13080, Note_on_c, 0, 79, 0
2, 13080, Note_on_c, 0, 77, 75
2, 13200, Note_on_c, 0, 77, 0
2, 13200, Note_on_c, 0, 76, 75
2, 13320, Note_on_c, 0, 76, 0
2, 13320, Control_c, 0, 64, 0
2, 13320, Note_on_c, 0, 74, 75
2, 13440, Note_on_c, 0, 74, 0
2, 13440, Note_on_c, 0, 70, 75
2, 13680, Note_on_c, 0, 70, 0
2, 13680, Note_on_c, 0, 76, 75
2, 13920, Note_on_c, 0, 76, 0
2, 13920, Note_on_c, 0, 69, 75
2, 14160, Note_on_c, 0, 69, 0
2, 14160, Note_on_c, 0, 74, 75
2, 14400, Note_on_c, 0, 74, 0
2, 14400, Note_on_c, 0, 69, 75
2, 14880, Note_on_c, 0, 69, 0
2, 14880, Control_c, 0, 64, 127
2, 14880, Note_on_c, 0, 65, 75
2, 15000, Note_on_c, 0, 65, 0
2, 15000, Note_on_c, 0, 76, 75
2, 15120, Note_on_c, 0, 76, 0
2, 15120, Note_on_c, 0, 74, 75
2, 15240, Note_on_c, 0, 74, 0
2, 15240, Control_c, 0, 64, 0
2, 15240, Note_on_c, 0, 76, 75
2, 15360, Note_on_c, 0, 76, 0
2, 15360, Control_c, 0, 64, 127
2, 15360, Note_on_c, 0, 65, 75
2, 15480, Note_on_c, 0, 65, 0
2, 15480, Note_on_c, 0, 76, 75
2, 15600, Note_on_c, 0, 76, 0
2, 15600, Note_on_c, 0, 74, 75
2, 15720, Note_on_c, 0, 74, 0
2, 15720, Note_on_c, 0, 76, 75
2, 15840, Note_on_c, 0, 76, 0
2, 15840, Note_on_c, 0, 79, 75
2, 15960, Note_on_c, 0, 79, 0
2, 15960, Note_on_c, 0, 77, 75
2, 16080, Note_on_c, 0, 77, 0
2, 16080, Note_on_c, 0, 76, 75
2, 16200, Note_on_c, 0, 76, 0
2, 16200, Control_c, 0, 64, 0
2, 16200, Note_on_c, 0, 74, 75
2, 16320, Note_on_c, 0, 74, 0
2, 16320, Note_on_c, 0, 70, 75
2, 16560, Note_on_c, 0, 70, 0
2, 16560, Note_on_c, 0, 76, 75
2, 16800, Note_on_c, 0, 76, 0
2, 16800, Note_on_c, 0, 69, 75
2, 17040, Note_on_c, 0, 69, 0
2, 17040, Note_on_c, 0, 74, 75
2, 17280, Note_on_c, 0, 74, 0
2, 17280, Note_on_c, 0, 69, 75
2, 17760, Note_on_c, 0, 69, 0
2, 17760, Note_on_c, 0, 70, 75
2, 18000, Note_on_c, 0, 70, 0
2, 18000, Note_on_c, 0, 76, 75
2, 18240, Note_on_c, 0, 76, 0
2, 18240, Note_on_c, 0, 69, 75
2, 18480, Note_on_c, 0, 69, 0
2, 18480, Note_on_c, 0, 74, 75
2, 18720, Note_on_c, 0, 74, 0
2, 18720, Note_on_c, 0, 73, 75
2, 18960, Note_on_c, 0, 73, 0
2, 18960, Note_on_c, 0, 79, 75
2, 19200, Note_on_c, 0, 79, 0
2, 19200, Note_on_c, 0, 74, 62
2, 19440, Note_on_c, 0, 74, 0
2, 19440, Note_on_c, 0, 78, 62
2, 19680, Note_on_c, 0, 78, 0
2, 19680, Note_on_c, 0, 76, 62
2, 19920, Note_on_c, 0, 76, 0
2, 19920, Note_on_c, 0, 82, 62
2, 20160, Note_on_c, 0, 82, 0
2, 20160, Note_on_c, 0, 78, 62
2, 20400, Note_on_c, 0, 78, 0
2, 20400, Note_on_c, 0, 81, 62
2, 20640, Note_on_c, 0, 81, 0
2, 20640, Note_on_c, 0, 76, 62
2, 20880, Note_on_c, 0, 76, 0
2, 20880, Note_on_c, 0, 82, 62
2, 21120, Note_on_c, 0, 82, 0
2, 21120, Note_on_c, 0, 78, 62
2, 21360, Note_on_c, 0, 78, 0
2, 21360, Note_on_c, 0, 81, 62
2, 21600, Note_on_c, 0, 81, 0
2, 21600, Note_on_c, 0, 78, 62
2, 21840, Note_on_c, 0, 78, 0
2, 21840, Note_on_c, 0, 81, 62
2, 22080, Note_on_c, 0, 81, 0
2, 22080, Note_on_c, 0, 78, 49
2, 22320, Note_on_c, 0, 78, 0
2, 22320, Note_on_c, 0, 81, 49
2, 22560, Note_on_c, 0, 81, 0
2, 22560, Control_c, 0, 64, 127
2, 22560, Note_on_c, 0, 73, 49
2, 22680, Note_on_c, 0, 73, 0
2, 22680, Note_on_c, 0, 74, 49
2, 22800, Note_on_c, 0, 74, 0
2, 22800, Note_on_c, 0, 73, 49
2, 22920, Note_on_c, 0, 73, 0
2, 22920, Note_on_c, 0, 74, 49
2, 23040, Note_on_c, 0, 74, 0
2, 23040, Note_on_c, 0, 73, 49
2, 23160, Note_on_c, 0, 73, 0
2, 23160, Note_on_c, 0, 74, 49
2, 23280, Note_on_c, 0, 74, 0
2, 23280, Note_on_c, 0, 73, 49
2, 23400, Note_on_c, 0, 73, 0
2, 23400, Note_on_c, 0, 74, 49
2, 23520, Note_on_c, 0, 74, 0
2, 23520, Note_on_c, 0, 73, 49
2, 23640, Note_on_c, 0, 73, 0
2, 23640, Note_on_c, 0, 74, 49
2, 23760, Note_on_c, 0, 74, 0
2, 23760, Note_on_c, 0, 73, 49
2, 23880, Note_on_c, 0, 73, 0
2, 23880, Note_on_c, 0, 74, 49
2, 24000, Note_on_c, 0, 74, 0
2, 24000, Note_on_c, 0, 73, 49
2, 24120, Note_on_c, 0, 73, 0
2, 24120, Note_on_c, 0, 74, 49
2, 24240, Note_on_c, 0, 74, 0
2, 24240, Note_on_c, 0, 73, 49
2, 24360, Note_on_c, 0, 73, 0
2, 24360, Note_on_c, 0, 74, 49
2, 24480, Note_on_c, 0, 74, 0
2, 24480, Note_on_c, 0, 75, 49
2, 24600, Note_on_c, 0, 75, 0
2, 24600, Note_on_c, 0, 76, 49
2, 24720, Note_on_c, 0, 76, 0
2, 24720, Note_on_c, 0, 75, 49
2, 24840, Note_on_c, 0, 75, 0
2, 24840, Note_on_c, 0, 76, 49
2, 24960, Note_on_c, 0, 76, 0
2, 24960, Note_on_c, 0, 78, 49
2, 25080, Note_on_c, 0, 78, 0
2, 25080, Note_on_c, 0, 79, 49
2, 25200, Note_on_c, 0, 79, 0
2, 25200, Note_on_c, 0, 81, 49
2, 25320, Note_on_c, 0, 81, 0
2, 25320, Control_c, 0, 64, 0
2, 25320, Note_on_c, 0, 82, 49
2, 25380, Note_on_c, 0, 82, 0
2, 25380, Note_on_c, 0, 81, 62
2, 25410, Note_on_c, 0, 81, 0
2, 25410, Note_on_c, 0, 82, 62
2, 25440, Note_on_c, 0, 82, 0
2, 25440, Note_on_c, 0, 81, 62
2, 25680, Note_on_c, 0, 81, 0
2, 25680, Note_on_c, 0, 79, 62
2, 25920, Note_on_c, 0, 79, 0
2, 25920, Note_on_c, 0, 72, 62
2, 26400, Note_on_c, 0, 72, 0
2, 26880, Note_on_c, 0, 67, 62
2, 26880, Note_on_c, 0, 74, 62
2, 27360, Note_on_c, 0, 74, 0
2, 27360, Note_on_c, 0, 67, 0
2, 27360, Note_on_c, 0, 58, 62
2, 27840, Note_on_c, 0, 58, 0
2, 27840, Control_c, 0, 64, 127
2, 27840, Note_on_c, 0, 78, 62
2, 27960, Note_on_c, 0, 78, 0
2, 27960, Note_on_c, 0, 79, 62
2, 28080, Note_on_c, 0, 79, 0
2, 28080, Note_on_c, 0, 81, 62
2, 28200, Note_on_c, 0, 81, 0
2, 28200, Control_c, 0, 64, 0
2, 28200, Note_on_c, 0, 82, 62
2, 28260, Note_on_c, 0, 82, 0
2, 28260, Control_c, 0, 64, 127
2, 28260, Note_on_c, 0, 81, 62
2, 28290, Note_on_c, 0, 81, 0
2, 28290, Note_on_c, 0, 82, 62
2, 28320, Note_on_c, 0, 82, 0
2, 28320, Note_on_c, 0, 81, 62
2, 28440, Note_on_c, 0, 81, 0
2, 28440, Note_on_c, 0, 82, 62
2, 28560, Note_on_c, 0, 82, 0
2, 28560, Note_on_c, 0, 81, 62
2, 28680, Note_on_c, 0, 81, 0
2, 28680, Note_on_c, 0, 79, 62
2, 28800, Note_on_c, 0, 79, 0
2, 28800, Control_c, 0, 64, 0
2, 28800, Note_on_c, 0, 72, 62
2, 29280, Note_on_c, 0, 72, 0
2, 29760, Note_on_c, 0, 67, 62
2, 29760, Note_on_c, 0, 74, 62
2, 30240, Note_on_c, 0, 74, 0
2, 30240, Note_on_c, 0, 67, 0
2, 30240, Note_on_c, 0, 58, 62
2, 30720, Note_on_c, 0, 58, 0
2, 30720, Control_c, 0, 64, 127
2, 30720, Note_on_c, 0, 67, 49
2, 30840, Note_on_c, 0, 67, 0
2, 30840, Note_on_c, 0, 69, 49
2, 30960, Note_on_c, 0, 69, 0
2, 30960, Note_on_c, 0, 67, 49
2, 31080, Note_on_c, 0, 67, 0
2, 31080, Note_on_c, 0, 69, 49
2, 31200, Note_on_c, 0, 69, 0
2, 31200, Control_c, 0, 64, 0
2, 31200, Note_on_c, 0, 62, 49
2, 31680, Note_on_c, 0, 62, 0
2, 31680, Control_c, 0, 64, 127
2, 31680, Note_on_c, 0, 67, 49
2, 31800, Note_on_c, 0, 67, 0
2, 31800, Note_on_c, 0, 69, 49
2, 31920, Note_on_c, 0, 69, 0
2, 31920, Note_on_c, 0, 67, 49
2, 32040, Note_on_c, 0, 67, 0
2, 32040, Note_on_c, 0, 69, 49
2, 32160, Note_on_c, 0, 69, 0
2, 32160, Control_c, 0, 64, 0
2, 32160, Note_on_c, 0, 62, 49
2, 32640, Note_on_c, 0, 62, 0
2, 32640, Control_c, 0, 64, 127
2, 32640, Note_on_c, 0, 57, 49
2, 32640, Note_on_c, 0, 67, 49
2, 33120, Note_on_c, 0, 67, 0
2, 33120, Note_on_c, 0, 57, 0
2, 33120, Note_on_c, 0, 58, 49
2, 33120, Note_on_c, 0, 62, 49
2, 33600, Note_on_c, 0, 62, 0
2, 33600, Note_on_c, 0, 58, 0
2, 33600, Note_on_c, 0, 57, 49
2, 33600, Note_on_c, 0, 67, 49
2, 34080, Note_on_c, 0, 67, 0
2, 34080, Note_on_c, 0, 57, 0
2, 34080, Note_on_c, 0, 59, 49
2, 34080, Note_on_c, 0, 62, 49
2, 34560, Note_on_c, 0, 62, 0
2, 34560, Note_on_c, 0, 59, 0
2, 34560, Note_on_c, 0, 57, 49
2, 34560, Note_on_c, 0, 67, 49
2, 35040, Note_on_c, 0, 67, 0
2, 35040, Note_on_c, 0, 57, 0
2, 35040, Control_c, 0, 64, 0
2, 35040, Note_on_c, 0, 59, 49
2, 35040, Note_on_c, 0, 62, 49
2, 35520, Note_on_c, 0, 62, 0
2, 35520, Note_on_c, 0, 59, 0
2, 35520, Note_on_c, 0, 71, 62
2, 35760, Note_on_c, 0, 71, 0
2, 35760, Note_on_c, 0, 71, 62
2, 36000, Note_on_c, 0, 71, 0
2, 36000, Note_on_c, 0, 71, 62
2, 36240, Note_on_c, 0, 71, 0
2, 36240, Note_on_c, 0, 71, 62
2, 36480, Note_on_c, 0, 71, 0
2, 36480, Note_on_c, 0, 70, 62
2, 36720, Note_on_c, 0, 70, 0
2, 36720, Note_on_c, 0, 71, 62
2, 36960, Note_on_c, 0, 71, 0
2, 36960, Note_on_c, 0, 74, 62
2, 37200, Note_on_c, 0, 74, 0
2, 37200, Note_on_c, 0, 71, 62
2, 37440, Note_on_c, 0, 71, 0
2, 37440, Note_on_c, 0, 71, 62
2, 37680, Note_on_c, 0, 71, 0
2, 37680, Note_on_c, 0, 71, 62
2, 37920, Note_on_c, 0, 71, 0
2, 37920, Note_on_c, 0, 71, 62
2, 38160, Note_on_c, 0, 71, 0
2, 38160, Note_on_c, 0, 74, 62
2, 38400, Note_on_c, 0, 74, 0
2, 38400, Note_on_c, 0, 60, 62
2, 38400, Note_on_c, 0, 66, 62
2, 38400, Note_on_c, 0, 69, 62
2, 38640, Note_on_c, 0, 69, 0
2, 38640, Note_on_c, 0, 66, 0
2, 38640, Note_on_c, 0, 60, 0
2, 38640, Note_on_c, 0, 60, 62
2, 38640, Note_on_c, 0, 66, 62
2, 38640, Note_on_c, 0, 69, 62
2, 38880, Note_on_c, 0, 69, 0
2, 38880, Note_on_c, 0, 66, 0
2, 38880, Note_on_c, 0, 60, 0
2, 38880, Note_on_c, 0, 60, 62
2, 38880, Note_on_c, 0, 69, 62
2, 39120, Note_on_c, 0, 69, 0
2, 39120, Note_on_c, 0, 60, 0
2, 39120, Note_on_c, 0, 59, 62
2, 39120, Note_on_c, 0, 71, 62
2, 39360, Note_on_c, 0, 71, 0
2, 39360, Note_on_c, 0, 59, 0
2, 39360, Note_on_c, 0, 60, 62
2, 39360, Note_on_c, 0, 66, 62
2, 39360, Note_on_c, 0, 69, 62
2, 39600, Note_on_c, 0, 69, 0
2, 39600, Note_on_c, 0, 66, 0
2, 39600, Note_on_c, 0, 60, 0
2, 39600, Note_on_c, 0, 60, 62
2, 39600, Note_on_c, 0, 66, 62
2, 39600, Note_on_c, 0, 69, 62
2, 39840, Note_on_c, 0, 69, 0
2, 39840, Note_on_c, 0, 66, 0
2, 39840, Note_on_c, 0, 60, 0
2, 39840, Note_on_c, 0, 60, 62
2, 39840, Note_on_c, 0, 69, 62
2, 40080, Note_on_c, 0, 69, 0
2, 40080, Note_on_c, 0, 60, 0
2, 40080, Note_on_c, 0, 59, 62
2, 40080, Note_on_c, 0, 71, 62
2, 40320, Note_on_c, 0, 71, 0
2, 40320, Note_on_c, 0, 59, 0
2, 40320, Note_on_c, 0, 60, 62
2, 40320, Note_on_c, 0, 69, 62
2, 40560, Note_on_c, 0, 69, 0
2, 40560, Note_on_c, 0, 60, 0
2, 40560, Note_on_c, 0, 59, 62
2, 40560, Note_on_c, 0, 71, 62
2, 40800, Note_on_c, 0, 71, 0
2, 40800, Note_on_c, 0, 59, 0
2, 40800, Note_on_c, 0, 64, 62
2, 41040, Note_on_c, 0, 64, 0
2, 41040, Note_on_c, 0, 62, 62
2, 41280, Note_on_c, 0, 62, 0
2, 41280, Note_on_c, 0, 71, 62
2, 41520, Note_on_c, 0, 71, 0
2, 41520, Note_on_c, 0, 71, 62
2, 41760, Note_on_c, 0, 71, 0
2, 41760, Note_on_c, 0, 71, 62
2, 42000, Note_on_c, 0, 71, 0
2, 42000, Note_on_c, 0, 71, 62
2, 42240, Note_on_c, 0, 71, 0
2, 42240, Note_on_c, 0, 70, 62
2, 42480, Note_on_c, 0, 70, 0
2, 42480, Note_on_c, 0, 71, 62
2, 42720, Note_on_c, 0, 71, 0
2, 42720, Note_on_c, 0, 74, 62
2, 42960, Note_on_c, 0, 74, 0
2, 42960, Note_on_c, 0, 71, 62
2, 43200, Note_on_c, 0, 71, 0
2, 43200, Note_on_c, 0, 71, 62
2, 43440, Note_on_c, 0, 71, 0
2, 43440, Note_on_c, 0, 71, 62
2, 43680, Note_on_c, 0, 71, 0
2, 43680, Note_on_c, 0, 71, 62
2, 43920, Note_on_c, 0, 71, 0
2, 43920, Note_on_c, 0, 74, 62
2, 44160, Note_on_c, 0, 74, 0
2, 44160, Note_on_c, 0, 60, 62
2, 44160, Note_on_c, 0, 66, 62
2, 44160, Note_on_c, 0, 69, 62
2, 44400, Note_on_c, 0, 69, 0
2, 44400, Note_on_c, 0, 66, 0
2, 44400, Note_on_c, 0, 60, 0
2, 44400, Note_on_c, 0, 60, 62
2, 44400, Note_on_c, 0, 66, 62
2, 44400, Note_on_c, 0, 69, 62
2, 44640, Note_on_c, 0, 69, 0
2, 44640, Note_on_c, 0, 66, 0
2, 44640, Note_on_c, 0, 60, 0
2, 44640, Note_on_c, 0, 60, 62
2, 44640, Note_on_c, 0, 69, 62
2, 44880, Note_on_c, 0, 69, 0
2, 44880, Note_on_c, 0, 60, 0
2, 44880, Note_on_c, 0, 59, 62
2, 44880, Note_on_c, 0, 71, 62
2, 45120, Note_on_c, 0, 71, 0
2, 45120, Note_on_c, 0, 59, 0
2, 45120, Note_on_c, 0, 60, 62
2, 45120, Note_on_c, 0, 66, 62
2, 45120, Note_on_c, 0, 69, 62
2, 45360, Note_on_c, 0, 69, 0
2, 45360, Note_on_c, 0, 66, 0
2, 45360, Note_on_c, 0, 60, 0
2, 45360, Note_on_c, 0, 60, 62
2, 45360, Note_on_c, 0, 66, 62
2, 45360, Note_on_c, 0, 69, 62
2, 45600, Note_on_c, 0, 69, 0
2, 45600, Note_on_c, 0, 66, 0
2, 45600, Note_on_c, 0, 60, 0
2, 45600, Note_on_c, 0, 60, 62
2, 45600, Note_on_c, 0, 69, 62
2, 45840, Note_on_c, 0, 69, 0
2, 45840, Note_on_c, 0, 60, 0
2, 45840, Note_on_c, 0, 59, 62
2, 45840, Note_on_c, 0, 71, 62
2, 46080, Note_on_c, 0, 71, 0
2, 46080, Note_on_c, 0, 59, 0
2, 46080, Note_on_c, 0, 64, 62
2, 46320, Note_on_c, 0, 64, 0
2, 46320, Note_on_c, 0, 66, 62
2, 46560, Note_on_c, 0, 66, 0
2, 46560, Note_on_c, 0, 66, 62
2, 46800, Note_on_c, 0, 66, 0
2, 46800, Note_on_c, 0, 67, 62
2, 47040, Note_on_c, 0, 67, 0
2, 47280, Note_on_c, 0, 58, 62
2, 47280, Note_on_c, 0, 61, 62
2, 47280, Note_on_c, 0, 66, 62
2, 47760, Note_on_c, 0, 66, 0
2, 47760, Note_on_c, 0, 61, 0
2, 47760, Note_on_c, 0, 58, 0
2, 47760, Note_on_c, 0, 61, 62
2, 47760, Note_on_c, 0, 66, 62
2, 47760, Note_on_c, 0, 70, 62
2, 48240, Note_on_c, 0, 70, 0
2, 48240, Note_on_c, 0, 66, 0
2, 48240, Note_on_c, 0, 61, 0
2, 48240, Note_on_c, 0, 62, 62
2, 48240, Note_on_c, 0, 66, 62
2, 48240, Note_on_c, 0, 71, 62
2, 48480, Note_on_c, 0, 71, 0
2, 48480, Note_on_c, 0, 66, 0
2, 48480, Note_on_c, 0, 62, 0
2, 48720, Note_on_c, 0, 58, 62
2, 48720, Note_on_c, 0, 61, 62
2, 48720, Note_on_c, 0, 66, 62
2, 49200, Note_on_c, 0, 66, 0
2, 49200, Note_on_c, 0, 61, 0
2, 49200, Note_on_c, 0, 58, 0
2, 49200, Note_on_c, 0, 61, 62
2, 49200, Note_on_c, 0, 66, 62
2, 49200, Note_on_c, 0, 70, 62
2, 49680, Note_on_c, 0, 70, 0
2, 49680, Note_on_c, 0, 66, 0
2, 49680, Note_on_c, 0, 61, 0
2, 49680, Note_on_c, 0, 62, 62
2, 49680, Note_on_c, 0, 66, 62
2, 49680, Note_on_c, 0, 71, 62
2, 49920, Note_on_c, 0, 71, 0
2, 49920, Note_on_c, 0, 66, 0
2, 49920, Note_on_c, 0, 62, 0
2, 49920, Note_on_c, 0, 78, 88
2, 50160, Note_on_c, 0, 78, 0
2, 50160, Note_on_c, 0, 78, 88
2, 50400, Note_on_c, 0, 78, 0
2, 50400, Note_on_c, 0, 78, 88
2, 50640, Note_on_c, 0, 78, 0
2, 50640, Note_on_c, 0, 78, 88
2, 50880, Note_on_c, 0, 78, 0
2, 50880, Note_on_c, 0, 78, 88
2, 51120, Note_on_c, 0, 78, 0
2, 51120, Note_on_c, 0, 78, 88
2, 51360, Note_on_c, 0, 78, 0
2, 51360, Note_on_c, 0, 69, 75
2, 51360, Note_on_c, 0, 74, 75
2, 51360, Note_on_c, 0, 81, 75
2, 51600, Note_on_c, 0, 81, 0
2, 51600, Note_on_c, 0, 74, 0
2, 51600, Note_on_c, 0, 69, 0
2, 51600, Note_on_c, 0, 66, 75
2, 51600, Note_on_c, 0, 74, 75
2, 51600, Note_on_c, 0, 78, 75
2, 51840, Note_on_c, 0, 78, 0
2, 51840, Note_on_c, 0, 74, 0
2, 51840, Note_on_c, 0, 66, 0
2, 51840, Note_on_c, 0, 66, 75
2, 51840, Note_on_c, 0, 74, 75
2, 51840, Note_on_c, 0, 78, 75
2, 52080, Note_on_c, 0, 78, 0
2, 52080, Note_on_c, 0, 74, 0
2, 52080, Note_on_c, 0, 66, 0
2, 52080, Note_on_c, 0, 66, 75
2, 52080, Note_on_c, 0, 74, 75
2, 52080, Note_on_c, 0, 78, 75
2, 52320, Note_on_c, 0, 78, 0
2, 52320, Note_on_c, 0, 74, 0
2, 52320, Note_on_c, 0, 66, 0
2, 52320, Note_on_c, 0, 70, 75
2, 52320, Note_on_c, 0, 82, 75
2, 52560, Note_on_c, 0, 82, 0
2, 52560, Note_on_c, 0, 70, 0
2, 52560, Note_on_c, 0, 71, 75
2, 52560, Note_on_c, 0, 83, 75
2, 52800, Note_on_c, 0, 83, 0
2, 52800, Note_on_c, 0, 71, 0
2, 52800, Note_on_c, 0, 61, 62
2, 52800, Note_on_c, 0, 67, 62
2, 52800, Note_on_c, 0, 71, 62
2, 53040, Note_on_c, 0, 71, 0
2, 53040, Note_on_c, 0, 67, 0
2, 53040, Note_on_c, 0, 61, 0
2, 53040, Note_on_c, 0, 61, 62
2, 53040, Note_on_c, 0, 67, 62
2, 53040, Note_on_c, 0, 71, 62
2, 53280, Note_on_c, 0, 71, 0
2, 53280, Note_on_c, 0, 67, 0
2, 53280, Note_on_c, 0, 61, 0
2, 53280, Note_on_c, 0, 61, 62
2, 53280, Note_on_c, 0, 67, 62
2, 53280, Note_on_c, 0, 71, 62
2, 53520, Note_on_c, 0, 71, 0
2, 53520, Note_on_c, 0, 67, 0
2, 53520, Note_on_c, 0, 61, 0
2, 53520, Note_on_c, 0, 62, 62
2, 53520, Note_on_c, 0, 66, 62
2, 53760, Note_on_c, 0, 66, 0
2, 53760, Note_on_c, 0, 62, 0
2, 53760, Note_on_c, 0, 61, 62
2, 53760, Note_on_c, 0, 67, 62
2, 53760, Note_on_c, 0, 71, 62
2, 54000, Note_on_c, 0, 71, 0
2, 54000, Note_on_c, 0, 67, 0
2, 54000, Note_on_c, 0, 61, 0
2, 54000, Note_on_c, 0, 61, 62
2, 54000, Note_on_c, 0, 67, 62
2, 54000, Note_on_c, 0, 71, 62
2, 54240, Note_on_c, 0, 71, 0
2, 54240, Note_on_c, 0, 67, 0
2, 54240, Note_on_c, 0, 61, 0
2, 54240, Note_on_c, 0, 61, 62
2, 54240, Note_on_c, 0, 67, 62
2, 54240, Note_on_c, 0, 71, 62
2, 54480, Note_on_c, 0, 71, 0
2, 54480, Note_on_c, 0, 67, 0
2, 54480, Note_on_c, 0, 61, 0
2, 54480, Note_on_c, 0, 62, 62
2, 54480, Note_on_c, 0, 66, 62
2, 54720, Note_on_c, 0, 66, 0
2, 54720, Note_on_c, 0, 62, 0
2, 54720, Note_on_c, 0, 61, 62
2, 54720, Note_on_c, 0, 67, 62
2, 54720, Note_on_c, 0, 71, 62
2, 54960, Note_on_c, 0, 71, 0
2, 54960, Note_on_c, 0, 67, 0
2, 54960, Note_on_c, 0, 61, 0
2, 54960, Note_on_c, 0, 62, 62
2, 54960, Note_on_c, 0, 66, 62
2, 54960, Note_on_c, 0, 74, 62
2, 55200, Note_on_c, 0, 74, 0
2, 55200, Note_on_c, 0, 66, 0
2, 55200, Note_on_c, 0, 62, 0
2, 55200, Note_on_c, 0, 61, 62
2, 55200, Note_on_c, 0, 67, 62
2, 55200, Note_on_c, 0, 71, 62
2, 55440, Note_on_c, 0, 71, 0
2, 55440, Note_on_c, 0, 67, 0
2, 55440, Note_on_c, 0, 61, 0
2, 55440, Note_on_c, 0, 62, 62
2, 55440, Note_on_c, 0, 66, 62
2, 55680, Note_on_c, 0, 66, 0
2, 55680, Note_on_c, 0, 62, 0
2, 55680, Note_on_c, 0, 78, 88
2, 55920, Note_on_c, 0, 78, 0
2, 55920, Note_on_c, 0, 78, 88
2, 56160, Note_on_c, 0, 78, 0
2, 56160, Note_on_c, 0, 78, 88
2, 56400, Note_on_c, 0, 78, 0
2, 56400, Note_on_c, 0, 78, 88
2, 56640, Note_on_c, 0, 78, 0
2, 56640, Note_on_c, 0, 78, 88
2, 56880, Note_on_c, 0, 78, 0
2, 56880, Note_on_c, 0, 78, 88
2, 57120, Note_on_c, 0, 78, 0
2, 57120, Note_on_c, 0, 69, 75
2, 57120, Note_on_c, 0, 74, 75
2, 57120, Note_on_c, 0, 81, 75
2, 57360, Note_on_c, 0, 81, 0
2, 57360, Note_on_c, 0, 74, 0
2, 57360, Note_on_c, 0, 69, 0
2, 57360, Note_on_c, 0, 66, 75
2, 57360, Note_on_c, 0, 74, 75
2, 57360, Note_on_c, 0, 78, 75
2, 57600, Note_on_c, 0, 78, 0
2, 57600, Note_on_c, 0, 74, 0
2, 57600, Note_on_c, 0, 66, 0
2, 57600, Note_on_c, 0, 66, 75
2, 57600, Note_on_c, 0, 74, 75
2, 57600, Note_on_c, 0, 78, 75
2, 57840, Note_on_c, 0, 78, 0
2, 57840, Note_on_c, 0, 74, 0
2, 57840, Note_on_c, 0, 66, 0
2, 57840, Note_on_c, 0, 66, 75
2, 57840, Note_on_c, 0, 74, 75
2, 57840, Note_on_c, 0, 78, 75
2, 58080, Note_on_c, 0, 78, 0
2, 58080, Note_on_c, 0, 74, 0
2, 58080, Note_on_c, 0, 66, 0
2, 58080, Note_on_c, 0, 70, 75
2, 58080, Note_on_c, 0, 82, 75
2, 58320, Note_on_c, 0, 82, 0
2, 58320, Note_on_c, 0, 70, 0
2, 58320, Note_on_c, 0, 71, 75
2, 58320, Note_on_c, 0, 83, 75
2, 58560, Note_on_c, 0, 83, 0
2, 58560, Note_on_c, 0, 71, 0
2, 58560, Note_on_c, 0, 61, 62
2, 58560, Note_on_c, 0, 67, 62
2, 58560, Note_on_c, 0, 71, 62
2, 58800, Note_on_c, 0, 71, 0
2, 58800, Note_on_c, 0, 67, 0
2, 58800, Note_on_c, 0, 61, 0
2, 58800, Note_on_c, 0, 61, 62
2, 58800, Note_on_c, 0, 67, 62
2, 58800, Note_on_c, 0, 71, 62
2, 59040, Note_on_c, 0, 71, 0
2, 59040, Note_on_c, 0, 67, 0
2, 59040, Note_on_c, 0, 61, 0
2, 59040, Note_on_c, 0, 61, 62
2, 59040, Note_on_c, 0, 67, 62
2, 59040, Note_on_c, 0, 71, 62
2, 59280, Note_on_c, 0, 71, 0
2, 59280, Note_on_c, 0, 67, 0
2, 59280, Note_on_c, 0, 61, 0
2, 59280, Note_on_c, 0, 62, 62
2, 59280, Note_on_c, 0, 66, 62
2, 59520, Note_on_c, 0, 66, 0
2, 59520, Note_on_c, 0, 62, 0
2, 59520, Note_on_c, 0, 61, 62
2, 59520, Note_on_c, 0, 67, 62
2, 59520, Note_on_c, 0, 71, 62
2, 59760, Note_on_c, 0, 71, 0
2, 59760, Note_on_c, 0, 67, 0
2, 59760, Note_on_c, 0, 61, 0
2, 59760, Note_on_c, 0, 61, 62
2, 59760, Note_on_c, 0, 67, 62
2, 59760, Note_on_c, 0, 71, 62
2, 60000, Note_on_c, 0, 71, 0
2, 60000, Note_on_c, 0, 67, 0
2, 60000, Note_on_c, 0, 61, 0
2, 60000, Note_on_c, 0, 61, 62
2, 60000, Note_on_c, 0, 67, 62
2, 60000, Note_on_c, 0, 71, 62
2, 60240, Note_on_c, 0, 71, 0
2, 60240, Note_on_c, 0, 67, 0
2, 60240, Note_on_c, 0, 61, 0
2, 60240, Note_on_c, 0, 62, 62
2, 60240, Note_on_c, 0, 66, 62
2, 60480, Note_on_c, 0, 66, 0
2, 60480, Note_on_c, 0, 62, 0
2, 60480, Note_on_c, 0, 61, 62
2, 60480, Note_on_c, 0, 67, 62
2, 60480, Note_on_c, 0, 71, 62
2, 60720, Note_on_c, 0, 71, 0
2, 60720, Note_on_c, 0, 67, 0
2, 60720, Note_on_c, 0, 61, 0
2, 60720, Note_on_c, 0, 62, 62
2, 60720, Note_on_c, 0, 66, 62
2, 60720, Note_on_c, 0, 74, 62
2, 60960, Note_on_c, 0, 74, 0
2, 60960, Note_on_c, 0, 66, 0
2, 60960, Note_on_c, 0, 62, 0
2, 60960, Note_on_c, 0, 61, 62
2, 60960, Note_on_c, 0, 67, 62
2, 60960, Note_on_c, 0, 71, 62
2, 61200, Note_on_c, 0, 71, 0
2, 61200, Note_on_c, 0, 67, 0
2, 61200, Note_on_c, 0, 61, 0
2, 61200, Note_on_c, 0, 62, 62
2, 61200, Note_on_c, 0, 66, 62
2, 61440, Note_on_c, 0, 66, 0
2, 61440, Note_on_c, 0, 62, 0
2, 61440, Note_on_c, 0, 71, 62
2, 61487, Note_on_c, 0, 71, 0
2, 61680, Note_on_c, 0, 71, 62
2, 61727, Note_on_c, 0, 71, 0
2, 61920, Note_on_c, 0, 71, 62
2, 61967, Note_on_c, 0, 71, 0
2, 62160, Note_on_c, 0, 71, 62
2, 62207, Note_on_c, 0, 71, 0
2, 62400, Note_on_c, 0, 70, 62
2, 62640, Note_on_c, 0, 70, 0
2, 62640, Note_on_c, 0, 71, 62
2, 62880, Note_on_c, 0, 71, 0
2, 62880, Note_on_c, 0, 74, 62
2, 63120, Note_on_c, 0, 74, 0
2, 63120, Note_on_c, 0, 71, 62
2, 63360, Note_on_c, 0, 71, 0
2, 63360, Note_on_c, 0, 71, 62
2, 63600, Note_on_c, 0, 71, 0
2, 63600, Note_on_c, 0, 71, 62
2, 63840, Note_on_c, 0, 71, 0
2, 63840, Note_on_c, 0, 71, 62
2, 64080, Note_on_c, 0, 71, 0
2, 64080, Note_on_c, 0, 71, 62
2, 64320, Note_on_c, 0, 71, 0
2, 64320, Note_on_c, 0, 69, 62
2, 64560, Note_on_c, 0, 69, 0
2, 64560, Note_on_c, 0, 69, 62
2, 64800, Note_on_c, 0, 69, 0
2, 64800, Note_on_c, 0, 69, 62
2, 65040, Note_on_c, 0, 69, 0
2, 65040, Note_on_c, 0, 71, 62
2, 65280, Note_on_c, 0, 71, 0
2, 65280, Note_on_c, 0, 69, 62
2, 65520, Note_on_c, 0, 69, 0
2, 65520, Note_on_c, 0, 69, 62
2, 65760, Note_on_c, 0, 69, 0
2, 65760, Note_on_c, 0, 69, 62
2, 66000, Note_on_c, 0, 69, 0
2, 66000, Note_on_c, 0, 71, 62
2, 66240, Note_on_c, 0, 71, 0
2, 66240, Note_on_c, 0, 69, 62
2, 66480, Note_on_c, 0, 69, 0
2, 66480, Note_on_c, 0, 71, 62
2, 66720, Note_on_c, 0, 71, 0
2, 66720, Note_on_c, 0, 64, 62
2, 66960, Note_on_c, 0, 64, 0
2, 66960, Note_on_c, 0, 62, 62
2, 67200, Note_on_c, 0, 62, 0
2, 67200, Note_on_c, 0, 71, 62
2, 67247, Note_on_c, 0, 71, 0
2, 67440, Note_on_c, 0, 71, 62
2, 67487, Note_on_c, 0, 71, 0
2, 67680, Note_on_c, 0, 71, 62
2, 67727, Note_on_c, 0, 71, 0
2, 67920, Note_on_c, 0, 71, 62
2, 67967, Note_on_c, 0, 71, 0
2, 68160, Note_on_c, 0, 70, 62
2, 68400, Note_on_c, 0, 70, 0
2, 68400, Note_on_c, 0, 71, 62
2, 68640, Note_on_c, 0, 71, 0
2, 68640, Note_on_c, 0, 74, 62
2, 68880, Note_on_c, 0, 74, 0
2, 68880, Note_on_c, 0, 71, 62
2, 69120, Note_on_c, 0, 71, 0
2, 69120, Note_on_c, 0, 71, 62
2, 69360, Note_on_c, 0, 71, 0
2, 69360, Note_on_c, 0, 71, 62
2, 69600, Note_on_c, 0, 71, 0
2, 69600, Note_on_c, 0, 71, 62
2, 69840, Note_on_c, 0, 71, 0
2, 69840, Note_on_c, 0, 71, 62
2, 69840, Note_on_c, 0, 74, 62
2, 70080, Note_on_c, 0, 74, 0
2, 70080, Note_on_c, 0, 71, 0
2, 70080, Note_on_c, 0, 74, 88
2, 70127, Note_on_c, 0, 74, 0
2, 70320, Note_on_c, 0, 74, 88
2, 70367, Note_on_c, 0, 74, 0
2, 70560, Note_on_c, 0, 74, 88
2, 70607, Note_on_c, 0, 74, 0
2, 70800, Note_on_c, 0, 74, 88
2, 70847, Note_on_c, 0, 74, 0
2, 71040, Note_on_c, 0, 73, 88
2, 71280, Note_on_c, 0, 73, 0
2, 71280, Note_on_c, 0, 74, 88
2, 71520, Note_on_c, 0, 74, 0
2, 71520, Note_on_c, 0, 77, 88
2, 71760, Note_on_c, 0, 77, 0
2, 71760, Note_on_c, 0, 74, 88
2, 72000, Note_on_c, 0, 74, 0
2, 72000, Note_on_c, 0, 74, 88
2, 72240, Note_on_c, 0, 74, 0
2, 72240, Note_on_c, 0, 74, 88
2, 72480, Note_on_c, 0, 74, 0
2, 72480, Note_on_c, 0, 74, 88
2, 72720, Note_on_c, 0, 74, 0
2, 72720, Note_on_c, 0, 74, 88
2, 72720, Note_on_c, 0, 77, 88
2, 72960, Note_on_c, 0, 77, 0
2, 72960, Note_on_c, 0, 74, 0
2, 72960, Note_on_c, 0, 79, 101
2, 73200, Note_on_c, 0, 79, 0
2, 73200, Note_on_c, 0, 79, 101
2, 73440, Note_on_c, 0, 79, 0
2, 73440, Note_on_c, 0, 79, 101
2, 73680, Note_on_c, 0, 79, 0
2, 73680, Note_on_c, 0, 79, 101
2, 73920, Note_on_c, 0, 79, 0
2, 73920, Control_c, 0, 64, 127
2, 73920, Note_on_c, 0, 78, 75
2, 74040, Note_on_c, 0, 78, 0
2, 74040, Note_on_c, 0, 79, 75
2, 74160, Note_on_c, 0, 79, 0
2, 74160, Note_on_c, 0, 81, 75
2, 74280, Note_on_c, 0, 81, 0
2, 74280, Note_on_c, 0, 82, 75
2, 74400, Note_on_c, 0, 82, 0
2, 74400, Control_c, 0, 64, 0
2, 74400, Note_on_c, 0, 79, 101
2, 74640, Note_on_c, 0, 79, 0
2, 74640, Note_on_c, 0, 79, 101
2, 74880, Note_on_c, 0, 79, 0
2, 74880, Note_on_c, 0, 79, 101
2, 75120, Note_on_c, 0, 79, 0
2, 75120, Note_on_c, 0, 79, 101
2, 75360, Note_on_c, 0, 79, 0
2, 75360, Control_c, 0, 64, 127
2, 75360, Note_on_c, 0, 78, 75
2, 75480, Note_on_c, 0, 78, 0
2, 75480, Note_on_c, 0, 79, 75
2, 75600, Note_on_c, 0, 79, 0
2, 75600, Note_on_c, 0, 81, 75
2, 75720, Note_on_c, 0, 81, 0
2, 75720, Note_on_c, 0, 82, 75
2, 75840, Note_on_c, 0, 82, 0
2, 75840, Note_on_c, 0, 78, 75
2, 75960, Note_on_c, 0, 78, 0
2, 75960, Note_on_c, 0, 79, 75
2, 76080, Note_on_c, 0, 79, 0
2, 76080, Note_on_c, 0, 81, 75
2, 76200, Note_on_c, 0, 81, 0
2, 76200, Note_on_c, 0, 82, 75
2, 76320, Note_on_c, 0, 82, 0
2, 76320, Note_on_c, 0, 78, 62
2, 76440, Note_on_c, 0, 78, 0
2, 76440, Note_on_c, 0, 79, 62
2, 76560, Note_on_c, 0, 79, 0
2, 76560, Note_on_c, 0, 81, 62
2, 76680, Note_on_c, 0, 81, 0
2, 76680, Note_on_c, 0, 82, 62
2, 76800, Note_on_c, 0, 82, 0
2, 76800, Note_on_c, 0, 78, 49
2, 76920, Note_on_c, 0, 78, 0
2, 76920, Note_on_c, 0, 79, 49
2, 77040, Note_on_c, 0, 79, 0
2, 77040, Note_on_c, 0, 81, 49
2, 77160, Note_on_c, 0, 81, 0
2, 77160, Control_c, 0, 64, 0
2, 77160, Note_on_c, 0, 82, 49
2, 77280, Note_on_c, 0, 82, 0
2, 77280, Note_on_c, 0, 81, 62
2, 77340, Note_on_c, 0, 81, 0
2, 77340, Note_on_c, 0, 82, 62
2, 77400, Note_on_c, 0, 82, 0
2, 77400, Note_on_c, 0, 81, 62
2, 77640, Note_on_c, 0, 81, 0
2, 77640, Note_on_c, 0, 79, 62
2, 77880, Note_on_c, 0, 79, 0
2, 77880, Note_on_c, 0, 72, 62
2, 78360, Note_on_c, 0, 72, 0
2, 78840, Note_on_c, 0, 67, 62
2, 78840, Note_on_c, 0, 74, 62
2, 79560, Note_on_c, 0, 74, 0
2, 79560, Note_on_c, 0, 67, 0
2, 79560, Note_on_c, 0, 58, 62
2, 79800, Note_on_c, 0, 58, 0
2, 79800, Control_c, 0, 64, 127
2, 79800, Note_on_c, 0, 78, 62
2, 79920, Note_on_c, 0, 78, 0
2, 79920, Note_on_c, 0, 79, 62
2, 80040, Note_on_c, 0, 79, 0
2, 80040, Note_on_c, 0, 81, 62
2, 80160, Note_on_c, 0, 81, 0
2, 80160, Control_c, 0, 64, 0
2, 80160, Note_on_c, 0, 82, 62
2, 80220, Note_on_c, 0, 82, 0
2, 80220, Control_c, 0, 64, 127
2, 80220, Note_on_c, 0, 81, 62
2, 80250, Note_on_c, 0, 81, 0
2, 80250, Note_on_c, 0, 82, 62
2, 80280, Note_on_c, 0, 82, 0
2, 80280, Note_on_c, 0, 81, 62
2, 80400, Note_on_c, 0, 81, 0
2, 80400, Note_on_c, 0, 82, 62
2, 80520, Note_on_c, 0, 82, 0
2, 80520, Note_on_c, 0, 81, 62
2, 80640, Note_on_c, 0, 81, 0
2, 80640, Note_on_c, 0, 79, 62
2, 80760, Note_on_c, 0, 79, 0
2, 80760, Control_c, 0, 64, 0
2, 80760, Note_on_c, 0, 72, 62
2, 81240, Note_on_c, 0, 72, 0
2, 81720, Note_on_c, 0, 67, 62
2, 81720, Note_on_c, 0, 74, 62
2, 82440, Note_on_c, 0, 74, 0
2, 82440, Note_on_c, 0, 67, 0
2, 82440, Note_on_c, 0, 58, 62
2, 82680, Note_on_c, 0, 58, 0
2, 82680, Control_c, 0, 64, 127
2, 82680, Note_on_c, 0, 74, 62
2, 82800, Note_on_c, 0, 74, 0
2, 82800, Note_on_c, 0, 75, 62
2, 82920, Note_on_c, 0, 75, 0
2, 82920, Note_on_c, 0, 77, 62
2, 83040, Note_on_c, 0, 77, 0
2, 83040, Control_c, 0, 64, 0
2, 83040, Note_on_c, 0, 79, 62
2, 83160, Note_on_c, 0, 79, 0
2, 83160, Note_on_c, 0, 69, 88
2, 83520, Note_on_c, 0, 69, 0
2, 83520, Note_on_c, 0, 67, 62
2, 83640, Note_on_c, 0, 67, 0
2, 83640, Note_on_c, 0, 67, 62
2, 84120, Note_on_c, 0, 67, 0
2, 84120, Note_on_c, 0, 72, 62
2, 84600, Note_on_c, 0, 72, 0
2, 84600, Note_on_c, 0, 67, 62
2, 85080, Note_on_c, 0, 67, 0
2, 85080, Note_on_c, 0, 65, 62
2, 85560, Note_on_c, 0, 65, 0
2, 85560, Control_c, 0, 64, 127
2, 85560, Note_on_c, 0, 74, 62
2, 85680, Note_on_c, 0, 74, 0
2, 85680, Note_on_c, 0, 75, 62
2, 85800, Note_on_c, 0, 75, 0
2, 85800, Note_on_c, 0, 77, 62
2, 85920, Note_on_c, 0, 77, 0
2, 85920, Note_on_c, 0, 79, 62
2, 86040, Note_on_c, 0, 79, 0
2, 86040, Control_c, 0, 64, 0
2, 86040, Note_on_c, 0, 69, 88
2, 86400, Note_on_c, 0, 69, 0
2, 86400, Note_on_c, 0, 67, 62
2, 86520, Note_on_c, 0, 67, 0
2, 86520, Note_on_c, 0, 67, 62
2, 87000, Note_on_c, 0, 67, 0
2, 87000, Note_on_c, 0, 72, 62
2, 87480, Note_on_c, 0, 72, 0
2, 87480, Note_on_c, 0, 67, 62
2, 87960, Note_on_c, 0, 67, 0
2, 87960, Note_on_c, 0, 65, 62
2, 88440, Note_on_c, 0, 65, 0
2, 88440, Control_c, 0, 64, 127
2, 88440, Note_on_c, 0, 65, 75
2, 88560, Note_on_c, 0, 65, 0
2, 88560, Note_on_c, 0, 76, 75
2, 88680, Note_on_c, 0, 76, 0
2, 88680, Note_on_c, 0, 74, 75
2, 88800, Note_on_c, 0, 74, 0
2, 88800, Control_c, 0, 64, 0
2, 88800, Note_on_c, 0, 76, 75
2, 88920, Note_on_c, 0, 76, 0
2, 88920, Control_c, 0, 64, 127
2, 88920, Note_on_c, 0, 65, 75
2, 89040, Note_on_c, 0, 65, 0
2, 89040, Note_on_c, 0, 76, 75
2, 89160, Note_on_c, 0, 76, 0
2, 89160, Note_on_c, 0, 74, 75
2, 89280, Note_on_c, 0, 74, 0
2, 89280, Note_on_c, 0, 76, 75
2, 89400, Note_on_c, 0, 76, 0
2, 89400, Note_on_c, 0, 79, 75
2, 89520, Note_on_c, 0, 79, 0
2, 89520, Note_on_c, 0, 77, 75
2, 89640, Note_on_c, 0, 77, 0
2, 89640, Note_on_c, 0, 76, 75
2, 89760, Note_on_c, 0, 76, 0
2, 89760, Control_c, 0, 64, 0
2, 89760, Note_on_c, 0, 74, 75
2, 89880, Note_on_c, 0, 74, 0
2, 89880, Note_on_c, 0, 70, 75
2, 90120, Note_on_c, 0, 70, 0
2, 90120, Note_on_c, 0, 76, 75
2, 90360, Note_on_c, 0, 76, 0
2, 90360, Note_on_c, 0, 69, 75
2, 90600, Note_on_c, 0, 69, 0
2, 90600, Note_on_c, 0, 74, 75
2, 90840, Note_on_c, 0, 74, 0
2, 90840, Note_on_c, 0, 69, 75
2, 91320, Note_on_c, 0, 69, 0
2, 91320, Control_c, 0, 64, 127
2, 91320, Note_on_c, 0, 65, 75
2, 91440, Note_on_c, 0, 65, 0
2, 91440, Note_on_c, 0, 76, 75
2, 91560, Note_on_c, 0, 76, 0
2, 91560, Note_on_c, 0, 74, 75
2, 91680, Note_on_c, 0, 74, 0
2, 91680, Note_on_c, 0, 76, 75
2, 91800, Note_on_c, 0, 76, 0
2, 91800, Note_on_c, 0, 65, 75
2, 91920, Note_on_c, 0, 65, 0
2, 91920, Note_on_c, 0, 76, 75
2, 92040, Note_on_c, 0, 76, 0
2, 92040, Note_on_c, 0, 74, 75
2, 92160, Note_on_c, 0, 74, 0
2, 92160, Note_on_c, 0, 76, 75
2, 92280, Note_on_c, 0, 76, 0
2, 92280, Note_on_c, 0, 79, 75
2, 92400, Note_on_c, 0, 79, 0
2, 92400, Note_on_c, 0, 77, 75
2, 92520, Note_on_c, 0, 77, 0
2, 92520, Note_on_c, 0, 76, 75
2, 92640, Note_on_c, 0, 76, 0
2, 92640, Control_c, 0, 64, 0
2, 92640, Note_on_c, 0, 74, 75
2, 92760, Note_on_c, 0, 74, 0
2, 92760, Note_on_c, 0, 70, 75
2, 93000, Note_on_c, 0, 70, 0
2, 93000, Note_on_c, 0, 76, 75
2, 93240, Note_on_c, 0, 76, 0
2, 93240, Note_on_c, 0, 69, 75
2, 93480, Note_on_c, 0, 69, 0
2, 93480, Note_on_c, 0, 74, 75
2, 93720, Note_on_c, 0, 74, 0
2, 93720, Note_on_c, 0, 69, 75
2, 94200, Note_on_c, 0, 69, 0
2, 94200, Note_on_c, 0, 70, 75
2, 94440, Note_on_c, 0, 70, 0
2, 94440, Note_on_c, 0, 76, 75
2, 94680, Note_on_c, 0, 76, 0
2, 94680, Note_on_c, 0, 69, 75
2, 94920, Note_on_c, 0, 69, 0
2, 94920, Note_on_c, 0, 74, 75
2, 95160, Note_on_c, 0, 74, 0
2, 95160, Note_on_c, 0, 73, 75
2, 95400, Note_on_c, 0, 73, 0
2, 95400, Note_on_c, 0, 79, 75
2, 95640, Note_on_c, 0, 79, 0
2, 95640, Note_on_c, 0, 74, 62
2, 95880, Note_on_c, 0, 74, 0
2, 95880, Note_on_c, 0, 78, 62
2, 96120, Note_on_c, 0, 78, 0
2, 96120, Note_on_c, 0, 76, 62
2, 96360, Note_on_c, 0, 76, 0
2, 96360, Note_on_c, 0, 82, 62
2, 96600, Note_on_c, 0, 82, 0
2, 96600, Note_on_c, 0, 78, 49
2, 96840, Note_on_c, 0, 78, 0
2, 96840, Note_on_c, 0, 81, 49
2, 97080, Note_on_c, 0, 81, 0
2, 97080, Note_on_c, 0, 76, 49
2, 97320, Note_on_c, 0, 76, 0
2, 97320, Note_on_c, 0, 82, 49
2, 97560, Note_on_c, 0, 82, 0
2, 97560, Note_on_c, 0, 78, 62
2, 97800, Note_on_c, 0, 78, 0
2, 97800, Note_on_c, 0, 81, 62
2, 98040, Note_on_c, 0, 81, 0
2, 98040, Note_on_c, 0, 78, 62
2, 98280, Note_on_c, 0, 78, 0
2, 98280, Note_on_c, 0, 81, 62
2, 98520, Note_on_c, 0, 81, 0
2, 98520, Note_on_c, 0, 78, 49
2, 98760, Note_on_c, 0, 78, 0
2, 98760, Note_on_c, 0, 81, 49
2, 99000, Note_on_c, 0, 81, 0
2, 99000, Control_c, 0, 64, 127
2, 99000, Note_on_c, 0, 73, 49
2, 99120, Note_on_c, 0, 73, 0
2, 99120, Note_on_c, 0, 74, 49
2, 99240, Note_on_c, 0, 74, 0
2, 99240, Note_on_c, 0, 73, 49
2, 99360, Note_on_c, 0, 73, 0
2, 99360, Note_on_c, 0, 74, 49
2, 99480, Note_on_c, 0, 74, 0
2, 99480, Note_on_c, 0, 73, 49
2, 99600, Note_on_c, 0, 73, 0
2, 99600, Note_on_c, 0, 74, 49
2, 99720, Note_on_c, 0, 74, 0
2, 99720, Note_on_c, 0, 73, 49
2, 99840, Note_on_c, 0, 73, 0
2, 99840, Note_on_c, 0, 74, 49
2, 99960, Note_on_c, 0, 74, 0
2, 99960, Note_on_c, 0, 73, 49
2, 100080, Note_on_c, 0, 73, 0
2, 100080, Note_on_c, 0, 74, 49
2, 100200, Note_on_c, 0, 74, 0
2, 100200, Note_on_c, 0, 73, 49
2, 100320, Note_on_c, 0, 73, 0
2, 100320, Note_on_c, 0, 74, 49
2, 100440, Note_on_c, 0, 74, 0
2, 100440, Note_on_c, 0, 73, 49
2, 100560, Note_on_c, 0, 73, 0
2, 100560, Note_on_c, 0, 74, 49
2, 100680, Note_on_c, 0, 74, 0
2, 100680, Note_on_c, 0, 73, 49
2, 100800, Note_on_c, 0, 73, 0
2, 100800, Note_on_c, 0, 74, 49
2, 100920, Note_on_c, 0, 74, 0
2, 100920, Note_on_c, 0, 73, 49
2, 101040, Note_on_c, 0, 73, 0
2, 101040, Note_on_c, 0, 74, 49
2, 101160, Note_on_c, 0, 74, 0
2, 101160, Note_on_c, 0, 73, 49
2, 101280, Note_on_c, 0, 73, 0
2, 101280, Note_on_c, 0, 74, 49
2, 101400, Note_on_c, 0, 74, 0
2, 101400, Note_on_c, 0, 73, 49
2, 101520, Note_on_c, 0, 73, 0
2, 101520, Note_on_c, 0, 74, 49
2, 101640, Note_on_c, 0, 74, 0
2, 101640, Note_on_c, 0, 73, 49
2, 101760, Note_on_c, 0, 73, 0
2, 101760, Control_c, 0, 64, 0
2, 101760, Note_on_c, 0, 74, 49
2, 101880, Note_on_c, 0, 74, 0
2, 101880, Control_c, 0, 64, 127
2, 101880, Note_on_c, 0, 74, 49
2, 102000, Note_on_c, 0, 74, 0
2, 102000, Note_on_c, 0, 75, 49
2, 102120, Note_on_c, 0, 75, 0
2, 102120, Note_on_c, 0, 74, 49
2, 102240, Note_on_c, 0, 74, 0
2, 102240, Note_on_c, 0, 75, 49
2, 102360, Note_on_c, 0, 75, 0
2, 102360, Note_on_c, 0, 74, 49
2, 102480, Note_on_c, 0, 74, 0
2, 102480, Note_on_c, 0, 75, 49
2, 102600, Note_on_c, 0, 75, 0
2, 102600, Note_on_c, 0, 74, 49
2, 102720, Note_on_c, 0, 74, 0
2, 102720, Note_on_c, 0, 75, 49
2, 102840, Note_on_c, 0, 75, 0
2, 102840, Note_on_c, 0, 78, 49
2, 102960, Note_on_c, 0, 78, 0
2, 102960, Note_on_c, 0, 79, 49
2, 103080, Note_on_c, 0, 79, 0
2, 103080, Note_on_c, 0, 83, 49
2, 103200, Note_on_c, 0, 83, 0
2, 103200, Control_c, 0, 64, 0
2, 103200, Note_on_c, 0, 84, 49
2, 103320, Note_on_c, 0, 84, 0
2, 103320, Control_c, 0, 64, 127
2, 103320, Note_on_c, 0, 85, 49
2, 103440, Note_on_c, 0, 85, 0
2, 103440, Note_on_c, 0, 86, 49
2, 103560, Note_on_c, 0, 86, 0
2, 103560, Note_on_c, 0, 81, 49
2, 103680, Note_on_c, 0, 81, 0
2, 103680, Note_on_c, 0, 82, 49
2, 103800, Note_on_c, 0, 82, 0
2, 103800, Note_on_c, 0, 78, 49
2, 103920, Note_on_c, 0, 78, 0
2, 103920, Note_on_c, 0, 79, 49
2, 104040, Note_on_c, 0, 79, 0
2, 104040, Note_on_c, 0, 73, 49
2, 104160, Note_on_c, 0, 73, 0
2, 104160, Note_on_c, 0, 74, 49
2, 104280, Note_on_c, 0, 74, 0
2, 104280, Note_on_c, 0, 73, 49
2, 104400, Note_on_c, 0, 73, 0
2, 104400, Note_on_c, 0, 74, 49
2, 104520, Note_on_c, 0, 74, 0
2, 104520, Note_on_c, 0, 73, 49
2, 104640, Note_on_c, 0, 73, 0
2, 104640, Control_c, 0, 64, 0
2, 104640, Note_on_c, 0, 74, 49
2, 104760, Note_on_c, 0, 74, 0
2, 104760, Control_c, 0, 64, 127
2, 104760, Note_on_c, 0, 74, 49
2, 104880, Note_on_c, 0, 74, 0
2, 104880, Note_on_c, 0, 75, 49
2, 105000, Note_on_c, 0, 75, 0
2, 105000, Note_on_c, 0, 74, 49
2, 105120, Note_on_c, 0, 74, 0
2, 105120, Note_on_c, 0, 75, 49
2, 105240, Note_on_c, 0, 75, 0
2, 105240, Note_on_c, 0, 74, 49
2, 105360, Note_on_c, 0, 74, 0
2, 105360, Note_on_c, 0, 75, 49
2, 105480, Note_on_c, 0, 75, 0
2, 105480, Note_on_c, 0, 74, 49
2, 105600, Note_on_c, 0, 74, 0
2, 105600, Note_on_c, 0, 75, 49
2, 105720, Note_on_c, 0, 75, 0
2, 105720, Note_on_c, 0, 78, 49
2, 105840, Note_on_c, 0, 78, 0
2, 105840, Note_on_c, 0, 79, 49
2, 105960, Note_on_c, 0, 79, 0
2, 105960, Note_on_c, 0, 83, 49
2, 106080, Note_on_c, 0, 83, 0
2, 106080, Control_c, 0, 64, 0
2, 106080, Note_on_c, 0, 84, 49
2, 106200, Note_on_c, 0, 84, 0
2, 106200, Control_c, 0, 64, 127
2, 106200, Note_on_c, 0, 85, 49
2, 106320, Note_on_c, 0, 85, 0
2, 106320, Note_on_c, 0, 86, 49
2, 106440, Note_on_c, 0, 86, 0
2, 106440, Note_on_c, 0, 81, 49
2, 106560, Note_on_c, 0, 81, 0
2, 106560, Note_on_c, 0, 82, 49
2, 106680, Note_on_c, 0, 82, 0
2, 106680, Note_on_c, 0, 78, 49
2, 106800, Note_on_c, 0, 78, 0
2, 106800, Note_on_c, 0, 79, 49
2, 106920, Note_on_c, 0, 79, 0
2, 106920, Note_on_c, 0, 73, 49
2, 107040, Note_on_c, 0, 73, 0
2, 107040, Note_on_c, 0, 74, 49
2, 107160, Note_on_c, 0, 74, 0
2, 107160, Note_on_c, 0, 78, 49
2, 107280, Note_on_c, 0, 78, 0
2, 107280, Note_on_c, 0, 79, 49
2, 107400, Note_on_c, 0, 79, 0
2, 107400, Note_on_c, 0, 71, 49
2, 107520, Note_on_c, 0, 71, 0
2, 107520, Control_c, 0, 64, 0
2, 107520, Note_on_c, 0, 72, 49
2, 107640, Note_on_c, 0, 72, 0
2, 107640, Control_c, 0, 64, 127
2, 107640, Note_on_c, 0, 78, 49
2, 107760, Note_on_c, 0, 78, 0
2, 107760, Note_on_c, 0, 79, 49
2, 107880, Note_on_c, 0, 79, 0
2, 107880, Note_on_c, 0, 73, 49
2, 108000, Note_on_c, 0, 73, 0
2, 108000, Note_on_c, 0, 74, 49
2, 108120, Note_on_c, 0, 74, 0
2, 108120, Note_on_c, 0, 78, 49
2, 108240, Note_on_c, 0, 78, 0
2, 108240, Note_on_c, 0, 79, 49
2, 108360, Note_on_c, 0, 79, 0
2, 108360, Note_on_c, 0, 71, 49
2, 108480, Note_on_c, 0, 71, 0
2, 108480, Note_on_c, 0, 72, 49
2, 108600, Note_on_c, 0, 72, 0
2, 108600, Note_on_c, 0, 78, 49
2, 108720, Note_on_c, 0, 78, 0
2, 108720, Note_on_c, 0, 79, 49
2, 108840, Note_on_c, 0, 79, 0
2, 108840, Note_on_c, 0, 73, 49
2, 108960, Note_on_c, 0, 73, 0
2, 108960, Control_c, 0, 64, 0
2, 108960, Note_on_c, 0, 74, 49
2, 109080, Note_on_c, 0, 74, 0
2, 109080, Control_c, 0, 64, 127
2, 109080, Note_on_c, 0, 79, 49
2, 109200, Note_on_c, 0, 79, 0
2, 109200, Note_on_c, 0, 81, 49
2, 109320, Note_on_c, 0, 81, 0
2, 109320, Note_on_c, 0, 79, 49
2, 109440, Note_on_c, 0, 79, 0
2, 109440, Note_on_c, 0, 81, 49
2, 109560, Note_on_c, 0, 81, 0
2, 109560, Note_on_c, 0, 79, 49
2, 109640, Note_on_c, 0, 79, 0
2, 109640, Note_on_c, 0, 81, 49
2, 109719, Note_on_c, 0, 81, 0
2, 109719, Note_on_c, 0, 79, 49
2, 109800, Note_on_c, 0, 79, 0
2, 109800, Note_on_c, 0, 81, 49
2, 109880, Note_on_c, 0, 81, 0
2, 109880, Note_on_c, 0, 79, 49
2, 109959, Note_on_c, 0, 79, 0
2, 109959, Note_on_c, 0, 81, 49
2, 110040, Note_on_c, 0, 81, 0
2, 110040, Note_on_c, 0, 79, 49
2, 110100, Note_on_c, 0, 79, 0
2, 110100, Note_on_c, 0, 81, 49
2, 110160, Note_on_c, 0, 81, 0
2, 110160, Note_on_c, 0, 79, 49
2, 110220, Note_on_c, 0, 79, 0
2, 110220, Note_on_c, 0, 81, 49
2, 110280, Note_on_c, 0, 81, 0
2, 110280, Note_on_c, 0, 79, 49
2, 110340, Note_on_c, 0, 79, 0
2, 110340, Note_on_c, 0, 81, 49
2, 110400, Note_on_c, 0, 81, 0
2, 110400, Note_on_c, 0, 79, 49
2, 110460, Note_on_c, 0, 79, 0
2, 110460, Control_c, 0, 64, 0
2, 110460, Note_on_c, 0, 81, 49
2, 110520, Note_on_c, 0, 81, 0
2, 110520, Control_c, 0, 64, 127
2, 110520, Note_on_c, 0, 79, 49
2, 110580, Note_on_c, 0, 79, 0
2, 110580, Note_on_c, 0, 81, 49
2, 110640, Note_on_c, 0, 81, 0
2, 110640, Note_on_c, 0, 79, 49
2, 110700, Note_on_c, 0, 79, 0
2, 110700, Note_on_c, 0, 81, 49
2, 110760, Note_on_c, 0, 81, 0
2, 110760, Note_on_c, 0, 79, 49
2, 110820, Note_on_c, 0, 79, 0
2, 110820, Note_on_c, 0, 81, 49
2, 110880, Note_on_c, 0, 81, 0
2, 110880, Note_on_c, 0, 79, 49
2, 110940, Note_on_c, 0, 79, 0
2, 110940, Note_on_c, 0, 81, 49
2, 111000, Note_on_c, 0, 81, 0
2, 111000, Note_on_c, 0, 79, 49
2, 111060, Note_on_c, 0, 79, 0
2, 111060, Note_on_c, 0, 81, 49
2, 111120, Note_on_c, 0, 81, 0
2, 111120, Note_on_c, 0, 79, 49
2, 111180, Note_on_c, 0, 79, 0
2, 111180, Note_on_c, 0, 81, 49
2, 111240, Note_on_c, 0, 81, 0
2, 111240, Note_on_c, 0, 79, 49
2, 111300, Note_on_c, 0, 79, 0
2, 111300, Note_on_c, 0, 81, 49
2, 111360, Note_on_c, 0, 81, 0
2, 111360, Note_on_c, 0, 79, 49
2, 111420, Note_on_c, 0, 79, 0
2, 111420, Note_on_c, 0, 81, 62
2, 111480, Note_on_c, 0, 81, 0
2, 111480, Note_on_c, 0, 79, 62
2, 111540, Note_on_c, 0, 79, 0
2, 111540, Note_on_c, 0, 81, 62
2, 111600, Note_on_c, 0, 81, 0
2, 111600, Note_on_c, 0, 79, 62
2, 111660, Note_on_c, 0, 79, 0
2, 111660, Note_on_c, 0, 81, 62
2, 111720, Note_on_c, 0, 81, 0
2, 111720, Note_on_c, 0, 79, 62
2, 111780, Note_on_c, 0, 79, 0
2, 111780, Note_on_c, 0, 81, 62
2, 111840, Note_on_c, 0, 81, 0
2, 111840, Note_on_c, 0, 79, 62
2, 111900, Note_on_c, 0, 79, 0
2, 111900, Note_on_c, 0, 81, 62
2, 111960, Note_on_c, 0, 81, 0
2, 111960, Note_on_c, 0, 79, 62
2, 112020, Note_on_c, 0, 79, 0
2, 112020, Note_on_c, 0, 81, 62
2, 112080, Note_on_c, 0, 81, 0
2, 112080, Note_on_c, 0, 79, 62
2, 112140, Note_on_c, 0, 79, 0
2, 112140, Note_on_c, 0, 81, 62
2, 112200, Note_on_c, 0, 81, 0
2, 112200, Note_on_c, 0, 79, 62
2, 112260, Note_on_c, 0, 79, 0
2, 112260, Note_on_c, 0, 81, 62
2, 112320, Note_on_c, 0, 81, 0
2, 112320, Note_on_c, 0, 79, 62
2, 112380, Note_on_c, 0, 79, 0
2, 112380, Note_on_c, 0, 81, 62
2, 112440, Note_on_c, 0, 81, 0
2, 112440, Note_on_c, 0, 79, 62
2, 112500, Note_on_c, 0, 79, 0
2, 112500, Note_on_c, 0, 81, 62
2, 112560, Note_on_c, 0, 81, 0
2, 112560, Note_on_c, 0, 79, 62
2, 112620, Note_on_c, 0, 79, 0
2, 112620, Note_on_c, 0, 81, 62
2, 112680, Note_on_c, 0, 81, 0
2, 112680, Note_on_c, 0, 79, 62
2, 112740, Note_on_c, 0, 79, 0
2, 112740, Note_on_c, 0, 81, 62
2, 112800, Note_on_c, 0, 81, 0
2, 112800, Note_on_c, 0, 79, 62
2, 112860, Note_on_c, 0, 79, 0
2, 112860, Note_on_c, 0, 81, 49
2, 112920, Note_on_c, 0, 81, 0
2, 112920, Note_on_c, 0, 79, 49
2, 112980, Note_on_c, 0, 79, 0
2, 112980, Note_on_c, 0, 81, 49
2, 113040, Note_on_c, 0, 81, 0
2, 113040, Note_on_c, 0, 79, 49
2, 113100, Note_on_c, 0, 79, 0
2, 113100, Note_on_c, 0, 81, 49
2, 113160, Note_on_c, 0, 81, 0
2, 113160, Note_on_c, 0, 79, 49
2, 113220, Note_on_c, 0, 79, 0
2, 113220, Note_on_c, 0, 81, 49
2, 113280, Note_on_c, 0, 81, 0
2, 113280, Control_c, 0, 64, 0
2, 113280, Note_on_c, 0, 79, 49
2, 113340, Note_on_c, 0, 79, 0
2, 113340, Note_on_c, 0, 81, 49
2, 113400, Note_on_c, 0, 81, 0
2, 113400, Control_c, 0, 64, 127
2, 113400, Note_on_c, 0, 79, 49
2, 113460, Note_on_c, 0, 79, 0
2, 113460, Note_on_c, 0, 81, 49
2, 113520, Note_on_c, 0, 81, 0
2, 113520, Note_on_c, 0, 79, 49
2, 113580, Note_on_c, 0, 79, 0
2, 113580, Note_on_c, 0, 81, 49
2, 113640, Note_on_c, 0, 81, 0
2, 113640, Note_on_c, 0, 79, 49
2, 113700, Note_on_c, 0, 79, 0
2, 113700, Note_on_c, 0, 81, 49
2, 113760, Note_on_c, 0, 81, 0
2, 113760, Note_on_c, 0, 79, 49
2, 113820, Note_on_c, 0, 79, 0
2, 113820, Note_on_c, 0, 81, 49
2, 113880, Note_on_c, 0, 81, 0
2, 113880, Note_on_c, 0, 79, 49
2, 113940, Note_on_c, 0, 79, 0
2, 113940, Note_on_c, 0, 81, 49
2, 114000, Note_on_c, 0, 81, 0
2, 114000, Note_on_c, 0, 79, 49
2, 114060, Note_on_c, 0, 79, 0
2, 114060, Note_on_c, 0, 81, 49
2, 114120, Note_on_c, 0, 81, 0
2, 114120, Note_on_c, 0, 79, 49
2, 114180, Note_on_c, 0, 79, 0
2, 114180, Note_on_c, 0, 81, 49
2, 114240, Note_on_c, 0, 81, 0
2, 114240, Note_on_c, 0, 79, 49
2, 114300, Note_on_c, 0, 79, 0
2, 114300, Note_on_c, 0, 81, 49
2, 114360, Note_on_c, 0, 81, 0
2, 114360, Note_on_c, 0, 79, 49
2, 114420, Note_on_c, 0, 79, 0
2, 114420, Note_on_c, 0, 81, 49
2, 114480, Note_on_c, 0, 81, 0
2, 114480, Note_on_c, 0, 79, 49
2, 114540, Note_on_c, 0, 79, 0
2, 114540, Note_on_c, 0, 81, 49
2, 114600, Note_on_c, 0, 81, 0
2, 114600, Note_on_c, 0, 79, 49
2, 114660, Note_on_c, 0, 79, 0
2, 114660, Control_c, 0, 64, 0
2, 114660, Note_on_c, 0, 81, 49
2, 114720, Note_on_c, 0, 81, 0
2, 114720, Note_on_c, 0, 79, 49
2, 114780, Note_on_c, 0, 79, 0
2, 114780, Note_on_c, 0, 81, 49
2, 114840, Note_on_c, 0, 81, 0
2, 114840, Control_c, 0, 64, 127
2, 114840, Note_on_c, 0, 79, 49
2, 114900, Note_on_c, 0, 79, 0
2, 114900, Note_on_c, 0, 81, 49
2, 114960, Note_on_c, 0, 81, 0
2, 114960, Note_on_c, 0, 79, 49
2, 115020, Note_on_c, 0, 79, 0
2, 115020, Note_on_c, 0, 81, 49
2, 115080, Note_on_c, 0, 81, 0
2, 115080, Note_on_c, 0, 79, 49
2, 115140, Note_on_c, 0, 79, 0
2, 115140, Note_on_c, 0, 81, 49
2, 115200, Note_on_c, 0, 81, 0
2, 115200, Note_on_c, 0, 79, 49
2, 115260, Note_on_c, 0, 79, 0
2, 115260, Note_on_c, 0, 81, 49
2, 115320, Note_on_c, 0, 81, 0
2, 115320, Note_on_c, 0, 79, 49
2, 115380, Note_on_c, 0, 79, 0
2, 115380, Note_on_c, 0, 81, 49
2, 115440, Note_on_c, 0, 81, 0
2, 115440, Note_on_c, 0, 79, 49
2, 115500, Note_on_c, 0, 79, 0
2, 115500, Note_on_c, 0, 81, 49
2, 115560, Note_on_c, 0, 81, 0
2, 115560, Note_on_c, 0, 79, 49
2, 115620, Note_on_c, 0, 79, 0
2, 115620, Note_on_c, 0, 81, 49
2, 115680, Note_on_c, 0, 81, 0
2, 115680, Note_on_c, 0, 79, 49
2, 115740, Note_on_c, 0, 79, 0
2, 115740, Note_on_c, 0, 81, 49
2, 115800, Note_on_c, 0, 81, 0
2, 115800, Note_on_c, 0, 79, 49
2, 115860, Note_on_c, 0, 79, 0
2, 115860, Note_on_c, 0, 81, 49
2, 115920, Note_on_c, 0, 81, 0
2, 115920, Note_on_c, 0, 79, 49
2, 115980, Note_on_c, 0, 79, 0
2, 115980, Note_on_c, 0, 81, 49
2, 116040, Note_on_c, 0, 81, 0
2, 116040, Note_on_c, 0, 79, 49
2, 116100, Note_on_c, 0, 79, 0
2, 116100, Note_on_c, 0, 81, 49
2, 116160, Note_on_c, 0, 81, 0
2, 116160, Control_c, 0, 64, 0
2, 116160, Note_on_c, 0, 79, 49
2, 116220, Note_on_c, 0, 79, 0
2, 116220, Note_on_c, 0, 81, 49
2, 116280, Note_on_c, 0, 81, 0
2, 116280, Control_c, 0, 64, 127
2, 116280, Note_on_c, 0, 79, 49
2, 116340, Note_on_c, 0, 79, 0
2, 116340, Note_on_c, 0, 81, 49
2, 116400, Note_on_c, 0, 81, 0
2, 116400, Note_on_c, 0, 79, 49
2, 116460, Note_on_c, 0, 79, 0
2, 116460, Note_on_c, 0, 81, 49
2, 116520, Note_on_c, 0, 81, 0
2, 116520, Note_on_c, 0, 79, 49
2, 116580, Note_on_c, 0, 79, 0
2, 116580, Note_on_c, 0, 81, 49
2, 116640, Note_on_c, 0, 81, 0
2, 116640, Note_on_c, 0, 79, 49
2, 116700, Note_on_c, 0, 79, 0
2, 116700, Note_on_c, 0, 81, 49
2, 116760, Note_on_c, 0, 81, 0
2, 116760, Note_on_c, 0, 79, 49
2, 116820, Note_on_c, 0, 79, 0
2, 116820, Note_on_c, 0, 81, 49
2, 116880, Note_on_c, 0, 81, 0
2, 116880, Note_on_c, 0, 79, 49
2, 116940, Note_on_c, 0, 79, 0
2, 116940, Note_on_c, 0, 81, 49
2, 117000, Note_on_c, 0, 81, 0
2, 117000, Note_on_c, 0, 79, 49
2, 117060, Note_on_c, 0, 79, 0
2, 117060, Note_on_c, 0, 81, 49
2, 117120, Note_on_c, 0, 81, 0
2, 117120, Note_on_c, 0, 79, 49
2, 117180, Note_on_c, 0, 79, 0
2, 117180, Note_on_c, 0, 81, 49
2, 117240, Note_on_c, 0, 81, 0
2, 117240, Note_on_c, 0, 79, 49
2, 117300, Note_on_c, 0, 79, 0
2, 117300, Note_on_c, 0, 81, 49
2, 117360, Note_on_c, 0, 81, 0
2, 117360, Note_on_c, 0, 79, 49
2, 117420, Note_on_c, 0, 79, 0
2, 117420, Note_on_c, 0, 81, 49
2, 117480, Note_on_c, 0, 81, 0
2, 117480, Note_on_c, 0, 79, 49
2, 117540, Note_on_c, 0, 79, 0
2, 117540, Note_on_c, 0, 81, 49
2, 117600, Note_on_c, 0, 81, 0
2, 117600, Note_on_c, 0, 78, 49
2, 117660, Note_on_c, 0, 78, 0
2, 117660, Note_on_c, 0, 79, 49
2, 117720, Note_on_c, 0, 79, 0
2, 117720, Control_c, 0, 64, 0
2, 117720, Note_on_c, 0, 91, 75
2, 118200, Note_on_c, 0, 91, 0
2, 118200, Control_c, 0, 64, 127
2, 120120, Control_c, 0, 64, 0
2, 120120, End_track
3, 0, Start_track
3, 0, Title_t, "Grand Piano"
3, 0, Program_c, 0, 0
3, 0, Control_c, 0, 7, 115
3, 0, Control_c, 0, 10, 79
3, 960, Note_on_c, 0, 75, 49
3, 1440, Note_on_c, 0, 75, 0
3, 1440, Note_on_c, 0, 72, 49
3, 1920, Note_on_c, 0, 72, 0
3, 3840, Note_on_c, 0, 75, 49
3, 4320, Note_on_c, 0, 75, 0
3, 4320, Note_on_c, 0, 72, 49
3, 4800, Note_on_c, 0, 72, 0
3, 6240, Note_on_c, 0, 70, 49
3, 6720, Note_on_c, 0, 70, 0
3, 6720, Note_on_c, 0, 63, 49
3, 7680, Note_on_c, 0, 63, 0
3, 7680, Note_on_c, 0, 63, 49
3, 8160, Note_on_c, 0, 63, 0
3, 8160, Note_on_c, 0, 61, 49
3, 8640, Note_on_c, 0, 61, 0
3, 8640, Note_on_c, 0, 62, 49
3, 9120, Note_on_c, 0, 62, 0
3, 9120, Note_on_c, 0, 70, 49
3, 9600, Note_on_c, 0, 70, 0
3, 9600, Note_on_c, 0, 63, 49
3, 10560, Note_on_c, 0, 63, 0
3, 10560, Note_on_c, 0, 63, 49
3, 11040, Note_on_c, 0, 63, 0
3, 11040, Note_on_c, 0, 61, 49
3, 11520, Note_on_c, 0, 61, 0
3, 11520, Note_on_c, 0, 62, 49
3, 12000, Note_on_c, 0, 62, 0
3, 12000, Note_on_c, 0, 65, 62
3, 12480, Note_on_c, 0, 65, 0
3, 12480, Note_on_c, 0, 65, 62
3, 13440, Note_on_c, 0, 65, 0
3, 13440, Note_on_c, 0, 70, 62
3, 13920, Note_on_c, 0, 70, 0
3, 13920, Note_on_c, 0, 69, 62
3, 14400, Note_on_c, 0, 69, 0
3, 14400, Control_c, 0, 64, 127
3, 14400, Note_on_c, 0, 67, 62
3, 14520, Note_on_c, 0, 67, 0
3, 14520, Note_on_c, 0, 65, 62
3, 14640, Note_on_c, 0, 65, 0
3, 14640, Note_on_c, 0, 64, 62
3, 14760, Note_on_c, 0, 64, 0
3, 14760, Note_on_c, 0, 62, 62
3, 14880, Note_on_c, 0, 62, 0
3, 14880, Control_c, 0, 64, 0
3, 14880, Note_on_c, 0, 65, 62
3, 15360, Note_on_c, 0, 65, 0
3, 15360, Note_on_c, 0, 65, 62
3, 16320, Note_on_c, 0, 65, 0
3, 16320, Note_on_c, 0, 70, 62
3, 16800, Note_on_c, 0, 70, 0
3, 16800, Note_on_c, 0, 69, 62
3, 17280, Note_on_c, 0, 69, 0
3, 17280, Control_c, 0, 64, 127
3, 17280, Note_on_c, 0, 67, 62
3, 17400, Note_on_c, 0, 67, 0
3, 17400, Note_on_c, 0, 65, 62
3, 17520, Note_on_c, 0, 65, 0
3, 17520, Note_on_c, 0, 64, 62
3, 17640, Note_on_c, 0, 64, 0
3, 17640, Note_on_c, 0, 62, 62
3, 17760, Note_on_c, 0, 62, 0
3, 17760, Control_c, 0, 64, 0
3, 17760, Note_on_c, 0, 70, 62
3, 18240, Note_on_c, 0, 70, 0
3, 18240, Note_on_c, 0, 69, 62
3, 18720, Note_on_c, 0, 69, 0
3, 18720, Note_on_c, 0, 73, 62
3, 19200, Note_on_c, 0, 73, 0
3, 19200, Note_on_c, 0, 74, 49
3, 19680, Note_on_c, 0, 74, 0
3, 19680, Note_on_c, 0, 76, 49
3, 20160, Note_on_c, 0, 76, 0
3, 20160, Note_on_c, 0, 78, 49
3, 20640, Note_on_c, 0, 78, 0
3, 20640, Note_on_c, 0, 76, 49
3, 21120, Note_on_c, 0, 76, 0
3, 21120, Note_on_c, 0, 78, 49
3, 21600, Note_on_c, 0, 78, 0
3, 21600, Note_on_c, 0, 78, 49
3, 22080, Note_on_c, 0, 78, 0
3, 22080, Note_on_c, 0, 78, 49
3, 22560, Note_on_c, 0, 78, 0
3, 25440, Note_on_c, 0, 75, 49
3, 25920, Note_on_c, 0, 75, 0
3, 25920, Note_on_c, 0, 72, 49
3, 26400, Note_on_c, 0, 72, 0
3, 28320, Note_on_c, 0, 75, 49
3, 28800, Note_on_c, 0, 75, 0
3, 28800, Note_on_c, 0, 72, 49
3, 29280, Note_on_c, 0, 72, 0
3, 30720, Note_on_c, 0, 57, 49
3, 31200, Note_on_c, 0, 57, 0
3, 31200, Note_on_c, 0, 58, 49
3, 31680, Note_on_c, 0, 58, 0
3, 31680, Note_on_c, 0, 57, 49
3, 32160, Note_on_c, 0, 57, 0
3, 32160, Note_on_c, 0, 58, 49
3, 32640, Note_on_c, 0, 58, 0
3, 35760, Note_on_c, 0, 59, 49
3, 35760, Note_on_c, 0, 67, 49
3, 36000, Note_on_c, 0, 67, 0
3, 36000, Note_on_c, 0, 59, 0
3, 36240, Note_on_c, 0, 59, 49
3, 36240, Note_on_c, 0, 67, 49
3, 36480, Note_on_c, 0, 67, 0
3, 36480, Note_on_c, 0, 59, 0
3, 36480, Note_on_c, 0, 61, 49
3, 36720, Note_on_c, 0, 61, 0
3, 36720, Note_on_c, 0, 67, 49
3, 36960, Note_on_c, 0, 67, 0
3, 36960, Note_on_c, 0, 62, 49
3, 37200, Note_on_c, 0, 62, 0
3, 37200, Note_on_c, 0, 67, 49
3, 37440, Note_on_c, 0, 67, 0
3, 37680, Note_on_c, 0, 59, 49
3, 37680, Note_on_c, 0, 67, 49
3, 37920, Note_on_c, 0, 67, 0
3, 37920, Note_on_c, 0, 59, 0
3, 38160, Note_on_c, 0, 59, 49
3, 38160, Note_on_c, 0, 67, 49
3, 38400, Note_on_c, 0, 67, 0
3, 38400, Note_on_c, 0, 59, 0
3, 38880, Note_on_c, 0, 66, 49
3, 39360, Note_on_c, 0, 66, 0
3, 39840, Note_on_c, 0, 66, 49
3, 40320, Note_on_c, 0, 66, 0
3, 40320, Note_on_c, 0, 66, 49
3, 40800, Note_on_c, 0, 66, 0
3, 40800, Note_on_c, 0, 57, 49
3, 40800, Note_on_c, 0, 60, 49
3, 41280, Note_on_c, 0, 60, 0
3, 41280, Note_on_c, 0, 57, 0
3, 41520, Note_on_c, 0, 59, 49
3, 41520, Note_on_c, 0, 67, 49
3, 41760, Note_on_c, 0, 67, 0
3, 41760, Note_on_c, 0, 59, 0
3, 42000, Note_on_c, 0, 59, 49
3, 42000, Note_on_c, 0, 67, 49
3, 42240, Note_on_c, 0, 67, 0
3, 42240, Note_on_c, 0, 59, 0
3, 42240, Note_on_c, 0, 61, 49
3, 42480, Note_on_c, 0, 61, 0
3, 42480, Note_on_c, 0, 67, 49
3, 42720, Note_on_c, 0, 67, 0
3, 42720, Note_on_c, 0, 62, 49
3, 42960, Note_on_c, 0, 62, 0
3, 42960, Note_on_c, 0, 67, 49
3, 43200, Note_on_c, 0, 67, 0
3, 43440, Note_on_c, 0, 59, 49
3, 43440, Note_on_c, 0, 67, 49
3, 43680, Note_on_c, 0, 67, 0
3, 43680, Note_on_c, 0, 59, 0
3, 43920, Note_on_c, 0, 59, 49
3, 43920, Note_on_c, 0, 67, 49
3, 44160, Note_on_c, 0, 67, 0
3, 44160, Note_on_c, 0, 59, 0
3, 44640, Note_on_c, 0, 66, 49
3, 45120, Note_on_c, 0, 66, 0
3, 45600, Note_on_c, 0, 66, 49
3, 46080, Note_on_c, 0, 66, 0
3, 46080, Note_on_c, 0, 60, 49
3, 46560, Note_on_c, 0, 60, 0
3, 46560, Note_on_c, 0, 59, 49
3, 47040, Note_on_c, 0, 59, 0
3, 50040, Note_on_c, 0, 65, 75
3, 50160, Note_on_c, 0, 65, 0
3, 50160, Note_on_c, 0, 66, 75
3, 50280, Note_on_c, 0, 66, 0
3, 50280, Note_on_c, 0, 70, 75
3, 50520, Note_on_c, 0, 70, 0
3, 50520, Note_on_c, 0, 69, 75
3, 50640, Note_on_c, 0, 69, 0
3, 50640, Note_on_c, 0, 70, 75
3, 50760, Note_on_c, 0, 70, 0
3, 50760, Note_on_c, 0, 73, 75
3, 51000, Note_on_c, 0, 73, 0
3, 51000, Note_on_c, 0, 72, 75
3, 51120, Note_on_c, 0, 72, 0
3, 51120, Note_on_c, 0, 73, 75
3, 51240, Note_on_c, 0, 73, 0
3, 51240, Note_on_c, 0, 76, 75
3, 51360, Note_on_c, 0, 76, 0
3, 52320, Note_on_c, 0, 78, 62
3, 52800, Note_on_c, 0, 78, 0
3, 55800, Note_on_c, 0, 65, 75
3, 55920, Note_on_c, 0, 65, 0
3, 55920, Note_on_c, 0, 66, 75
3, 56040, Note_on_c, 0, 66, 0
3, 56040, Note_on_c, 0, 70, 75
3, 56280, Note_on_c, 0, 70, 0
3, 56280, Note_on_c, 0, 69, 75
3, 56400, Note_on_c, 0, 69, 0
3, 56400, Note_on_c, 0, 70, 75
3, 56520, Note_on_c, 0, 70, 0
3, 56520, Note_on_c, 0, 73, 75
3, 56760, Note_on_c, 0, 73, 0
3, 56760, Note_on_c, 0, 72, 75
3, 56880, Note_on_c, 0, 72, 0
3, 56880, Note_on_c, 0, 73, 75
3, 57000, Note_on_c, 0, 73, 0
3, 57000, Note_on_c, 0, 76, 75
3, 57120, Note_on_c, 0, 76, 0
3, 58080, Note_on_c, 0, 78, 62
3, 58560, Note_on_c, 0, 78, 0
3, 61560, Note_on_c, 0, 59, 49
3, 61680, Note_on_c, 0, 59, 0
3, 61680, Note_on_c, 0, 64, 49
3, 61680, Note_on_c, 0, 67, 49
3, 61800, Note_on_c, 0, 67, 0
3, 61800, Note_on_c, 0, 64, 0
3, 61800, Note_on_c, 0, 62, 49
3, 61920, Note_on_c, 0, 62, 0
3, 62040, Note_on_c, 0, 59, 49
3, 62160, Note_on_c, 0, 59, 0
3, 62160, Note_on_c, 0, 64, 49
3, 62160, Note_on_c, 0, 67, 49
3, 62280, Note_on_c, 0, 67, 0
3, 62280, Note_on_c, 0, 64, 0
3, 62280, Note_on_c, 0, 62, 49
3, 62400, Note_on_c, 0, 62, 0
3, 62520, Note_on_c, 0, 61, 49
3, 62640, Note_on_c, 0, 61, 0
3, 62640, Note_on_c, 0, 67, 49
3, 62880, Note_on_c, 0, 67, 0
3, 63000, Note_on_c, 0, 62, 49
3, 63120, Note_on_c, 0, 62, 0
3, 63120, Note_on_c, 0, 64, 49
3, 63120, Note_on_c, 0, 67, 49
3, 63240, Note_on_c, 0, 67, 0
3, 63240, Note_on_c, 0, 64, 0
3, 63240, Note_on_c, 0, 62, 49
3, 63360, Note_on_c, 0, 62, 0
3, 63480, Note_on_c, 0, 59, 49
3, 63600, Note_on_c, 0, 59, 0
3, 63600, Note_on_c, 0, 64, 49
3, 63600, Note_on_c, 0, 67, 49
3, 63720, Note_on_c, 0, 67, 0
3, 63720, Note_on_c, 0, 64, 0
3, 63720, Note_on_c, 0, 62, 49
3, 63840, Note_on_c, 0, 62, 0
3, 64080, Note_on_c, 0, 66, 49
3, 64200, Note_on_c, 0, 66, 0
3, 64200, Note_on_c, 0, 67, 49
3, 64320, Note_on_c, 0, 67, 0
3, 64440, Note_on_c, 0, 57, 49
3, 64560, Note_on_c, 0, 57, 0
3, 64560, Note_on_c, 0, 63, 49
3, 64560, Note_on_c, 0, 66, 49
3, 64680, Note_on_c, 0, 66, 0
3, 64680, Note_on_c, 0, 63, 0
3, 64680, Note_on_c, 0, 62, 49
3, 64800, Note_on_c, 0, 62, 0
3, 64920, Note_on_c, 0, 57, 49
3, 65040, Note_on_c, 0, 57, 0
3, 65040, Note_on_c, 0, 63, 49
3, 65040, Note_on_c, 0, 66, 49
3, 65160, Note_on_c, 0, 66, 0
3, 65160, Note_on_c, 0, 63, 0
3, 65160, Note_on_c, 0, 62, 49
3, 65280, Note_on_c, 0, 62, 0
3, 65400, Note_on_c, 0, 57, 49
3, 65520, Note_on_c, 0, 57, 0
3, 65520, Note_on_c, 0, 63, 49
3, 65520, Note_on_c, 0, 66, 49
3, 65640, Note_on_c, 0, 66, 0
3, 65640, Note_on_c, 0, 63, 0
3, 65640, Note_on_c, 0, 62, 49
3, 65760, Note_on_c, 0, 62, 0
3, 65880, Note_on_c, 0, 57, 49
3, 66000, Note_on_c, 0, 57, 0
3, 66000, Note_on_c, 0, 63, 49
3, 66000, Note_on_c, 0, 66, 49
3, 66120, Note_on_c, 0, 66, 0
3, 66120, Note_on_c, 0, 63, 0
3, 66120, Note_on_c, 0, 62, 49
3, 66240, Note_on_c, 0, 62, 0
3, 66360, Note_on_c, 0, 57, 49
3, 66480, Note_on_c, 0, 57, 0
3, 66480, Note_on_c, 0, 63, 49
3, 66480, Note_on_c, 0, 66, 49
3, 66600, Note_on_c, 0, 66, 0
3, 66600, Note_on_c, 0, 63, 0
3, 66600, Note_on_c, 0, 62, 49
3, 66720, Note_on_c, 0, 62, 0
3, 66720, Note_on_c, 0, 64, 49
3, 66840, Note_on_c, 0, 64, 0
3, 66840, Note_on_c, 0, 57, 49
3, 66960, Note_on_c, 0, 57, 0
3, 66960, Note_on_c, 0, 60, 49
3, 67080, Note_on_c, 0, 60, 0
3, 67080, Note_on_c, 0, 54, 49
3, 67200, Note_on_c, 0, 54, 0
3, 67320, Note_on_c, 0, 59, 49
3, 67440, Note_on_c, 0, 59, 0
3, 67440, Note_on_c, 0, 64, 49
3, 67440, Note_on_c, 0, 67, 49
3, 67560, Note_on_c, 0, 67, 0
3, 67560, Note_on_c, 0, 64, 0
3, 67560, Note_on_c, 0, 62, 49
3, 67680, Note_on_c, 0, 62, 0
3, 67800, Note_on_c, 0, 59, 49
3, 67920, Note_on_c, 0, 59, 0
3, 67920, Note_on_c, 0, 64, 49
3, 67920, Note_on_c, 0, 67, 49
3, 68040, Note_on_c, 0, 67, 0
3, 68040, Note_on_c, 0, 64, 0
3, 68040, Note_on_c, 0, 62, 49
3, 68160, Note_on_c, 0, 62, 0
3, 68280, Note_on_c, 0, 61, 49
3, 68400, Note_on_c, 0, 61, 0
3, 68400, Note_on_c, 0, 67, 49
3, 68640, Note_on_c, 0, 67, 0
3, 68760, Note_on_c, 0, 62, 49
3, 68880, Note_on_c, 0, 62, 0
3, 68880, Note_on_c, 0, 64, 49
3, 68880, Note_on_c, 0, 67, 49
3, 69000, Note_on_c, 0, 67, 0
3, 69000, Note_on_c, 0, 64, 0
3, 69000, Note_on_c, 0, 62, 49
3, 69120, Note_on_c, 0, 62, 0
3, 69240, Note_on_c, 0, 59, 49
3, 69360, Note_on_c, 0, 59, 0
3, 69360, Note_on_c, 0, 64, 49
3, 69360, Note_on_c, 0, 67, 49
3, 69480, Note_on_c, 0, 67, 0
3, 69480, Note_on_c, 0, 64, 0
3, 69480, Note_on_c, 0, 62, 49
3, 69600, Note_on_c, 0, 62, 0
3, 69840, Note_on_c, 0, 66, 49
3, 69960, Note_on_c, 0, 66, 0
3, 69960, Note_on_c, 0, 67, 49
3, 70080, Note_on_c, 0, 67, 0
3, 70200, Note_on_c, 0, 62, 75
3, 70320, Note_on_c, 0, 62, 0
3, 70320, Note_on_c, 0, 67, 75
3, 70320, Note_on_c, 0, 70, 75
3, 70440, Note_on_c, 0, 70, 0
3, 70440, Note_on_c, 0, 67, 0
3, 70440, Note_on_c, 0, 65, 75
3, 70560, Note_on_c, 0, 65, 0
3, 70680, Note_on_c, 0, 62, 75
3, 70800, Note_on_c, 0, 62, 0
3, 70800, Note_on_c, 0, 67, 75
3, 70800, Note_on_c, 0, 70, 75
3, 70920, Note_on_c, 0, 70, 0
3, 70920, Note_on_c, 0, 67, 0
3, 70920, Note_on_c, 0, 65, 75
3, 71040, Note_on_c, 0, 65, 0
3, 71160, Note_on_c, 0, 64, 75
3, 71280, Note_on_c, 0, 64, 0
3, 71280, Note_on_c, 0, 70, 75
3, 71520, Note_on_c, 0, 70, 0
3, 71640, Note_on_c, 0, 65, 75
3, 71760, Note_on_c, 0, 65, 0
3, 71760, Note_on_c, 0, 67, 75
3, 71760, Note_on_c, 0, 70, 75
3, 71880, Note_on_c, 0, 70, 0
3, 71880, Note_on_c, 0, 67, 0
3, 71880, Note_on_c, 0, 65, 75
3, 72000, Note_on_c, 0, 65, 0
3, 72120, Note_on_c, 0, 62, 75
3, 72240, Note_on_c, 0, 62, 0
3, 72240, Note_on_c, 0, 67, 75
3, 72240, Note_on_c, 0, 70, 75
3, 72360, Note_on_c, 0, 70, 0
3, 72360, Note_on_c, 0, 67, 0
3, 72360, Note_on_c, 0, 65, 75
3, 72480, Note_on_c, 0, 65, 0
3, 72720, Note_on_c, 0, 69, 75
3, 72840, Note_on_c, 0, 69, 0
3, 72840, Note_on_c, 0, 70, 75
3, 72960, Note_on_c, 0, 70, 0
3, 73080, Note_on_c, 0, 67, 62
3, 73200, Note_on_c, 0, 67, 0
3, 73200, Note_on_c, 0, 75, 62
3, 73320, Note_on_c, 0, 75, 0
3, 73320, Note_on_c, 0, 74, 62
3, 73440, Note_on_c, 0, 74, 0
3, 73560, Note_on_c, 0, 67, 62
3, 73680, Note_on_c, 0, 67, 0
3, 73680, Note_on_c, 0, 75, 62
3, 73800, Note_on_c, 0, 75, 0
3, 73800, Note_on_c, 0, 74, 62
3, 73920, Note_on_c, 0, 74, 0
3, 73920, Note_on_c, 0, 75, 88
3, 74400, Note_on_c, 0, 75, 0
3, 74520, Note_on_c, 0, 67, 62
3, 74640, Note_on_c, 0, 67, 0
3, 74640, Note_on_c, 0, 75, 62
3, 74760, Note_on_c, 0, 75, 0
3, 74760, Note_on_c, 0, 74, 62
3, 74880, Note_on_c, 0, 74, 0
3, 75000, Note_on_c, 0, 67, 62
3, 75120, Note_on_c, 0, 67, 0
3, 75120, Note_on_c, 0, 75, 62
3, 75240, Note_on_c, 0, 75, 0
3, 75240, Note_on_c, 0, 74, 62
3, 75360, Note_on_c, 0, 74, 0
3, 75360, Note_on_c, 0, 75, 88
3, 76560, Note_on_c, 0, 75, 0
3, 77400, Note_on_c, 0, 75, 49
3, 77880, Note_on_c, 0, 75, 0
3, 77880, Note_on_c, 0, 72, 49
3, 78360, Note_on_c, 0, 72, 0
3, 80280, Note_on_c, 0, 75, 49
3, 80760, Note_on_c, 0, 75, 0
3, 80760, Note_on_c, 0, 72, 49
3, 81240, Note_on_c, 0, 72, 0
3, 82680, Note_on_c, 0, 70, 49
3, 83160, Note_on_c, 0, 70, 0
3, 83160, Note_on_c, 0, 63, 49
3, 84120, Note_on_c, 0, 63, 0
3, 84120, Note_on_c, 0, 63, 49
3, 84600, Note_on_c, 0, 63, 0
3, 84600, Note_on_c, 0, 61, 49
3, 85080, Note_on_c, 0, 61, 0
3, 85080, Note_on_c, 0, 62, 49
3, 85560, Note_on_c, 0, 62, 0
3, 85560, Note_on_c, 0, 70, 49
3, 86040, Note_on_c, 0, 70, 0
3, 86040, Note_on_c, 0, 63, 49
3, 87000, Note_on_c, 0, 63, 0
3, 87000, Note_on_c, 0, 63, 49
3, 87480, Note_on_c, 0, 63, 0
3, 87480, Note_on_c, 0, 61, 49
3, 87960, Note_on_c, 0, 61, 0
3, 87960, Note_on_c, 0, 62, 49
3, 88440, Note_on_c, 0, 62, 0
3, 88440, Note_on_c, 0, 65, 62
3, 88920, Note_on_c, 0, 65, 0
3, 88920, Note_on_c, 0, 65, 62
3, 89880, Note_on_c, 0, 65, 0
3, 89880, Note_on_c, 0, 70, 62
3, 90360, Note_on_c, 0, 70, 0
3, 90360, Note_on_c, 0, 69, 62
3, 90840, Note_on_c, 0, 69, 0
3, 90840, Control_c, 0, 64, 127
3, 90840, Note_on_c, 0, 67, 62
3, 90960, Note_on_c, 0, 67, 0
3, 90960, Note_on_c, 0, 65, 62
3, 91080, Note_on_c, 0, 65, 0
3, 91080, Note_on_c, 0, 64, 62
3, 91200, Note_on_c, 0, 64, 0
3, 91200, Control_c, 0, 64, 0
3, 91200, Note_on_c, 0, 62, 62
3, 91320, Note_on_c, 0, 62, 0
3, 91320, Note_on_c, 0, 65, 62
3, 91800, Note_on_c, 0, 65, 0
3, 91800, Note_on_c, 0, 65, 62
3, 92760, Note_on_c, 0, 65, 0
3, 92760, Note_on_c, 0, 70, 62
3, 93240, Note_on_c, 0, 70, 0
3, 93240, Note_on_c, 0, 69, 62
3, 93720, Note_on_c, 0, 69, 0
3, 93720, Control_c, 0, 64, 127
3, 93720, Note_on_c, 0, 67, 62
3, 93840, Note_on_c, 0, 67, 0
3, 93840, Note_on_c, 0, 65, 62
3, 93960, Note_on_c, 0, 65, 0
3, 93960, Note_on_c, 0, 64, 62
3, 94080, Note_on_c, 0, 64, 0
3, 94080, Note_on_c, 0, 62, 62
3, 94200, Note_on_c, 0, 62, 0
3, 94200, Control_c, 0, 64, 0
3, 94200, Note_on_c, 0, 70, 62
3, 94680, Note_on_c, 0, 70, 0
3, 94680, Note_on_c, 0, 69, 62
3, 95160, Note_on_c, 0, 69, 0
3, 95160, Note_on_c, 0, 73, 62
3, 95640, Note_on_c, 0, 73, 0
3, 95640, Note_on_c, 0, 74, 49
3, 96120, Note_on_c, 0, 74, 0
3, 96120, Note_on_c, 0, 76, 49
3, 96600, Note_on_c, 0, 76, 0
3, 96600, Note_on_c, 0, 78, 49
3, 97080, Note_on_c, 0, 78, 0
3, 97080, Note_on_c, 0, 76, 49
3, 97560, Note_on_c, 0, 76, 0
3, 97560, Note_on_c, 0, 78, 49
3, 98040, Note_on_c, 0, 78, 0
3, 98040, Note_on_c, 0, 78, 49
3, 98520, Note_on_c, 0, 78, 0
3, 98520, Note_on_c, 0, 78, 49
3, 99000, Note_on_c, 0, 78, 0
3, 99000, End_track
4, 0, Start_track
4, 0, Title_t, "Grand Piano"
4, 0, Program_c, 0, 0
4, 0, Control_c, 0, 7, 115
4, 0, Control_c, 0, 10, 41
4, 960, Note_on_c, 0, 67, 49
4, 1920, Note_on_c, 0, 67, 0
4, 1920, Note_on_c, 0, 58, 75
4, 2280, Note_on_c, 0, 57, 49
4, 2340, Note_on_c, 0, 57, 0
4, 2340, Note_on_c, 0, 58, 49
4, 2400, Note_on_c, 0, 58, 0
4, 2400, Note_on_c, 0, 58, 0
4, 2400, Note_on_c, 0, 57, 49
4, 2640, Note_on_c, 0, 57, 0
4, 2640, Note_on_c, 0, 55, 49
4, 2880, Note_on_c, 0, 55, 0
4, 2880, Note_on_c, 0, 50, 49
4, 3360, Note_on_c, 0, 50, 0
4, 3840, Note_on_c, 0, 67, 49
4, 4800, Note_on_c, 0, 67, 0
4, 4800, Note_on_c, 0, 58, 75
4, 5160, Note_on_c, 0, 57, 49
4, 5220, Note_on_c, 0, 57, 0
4, 5220, Note_on_c, 0, 58, 49
4, 5280, Note_on_c, 0, 58, 0
4, 5280, Note_on_c, 0, 58, 0
4, 5280, Note_on_c, 0, 57, 49
4, 5520, Note_on_c, 0, 57, 0
4, 5520, Note_on_c, 0, 55, 49
4, 5760, Note_on_c, 0, 55, 0
4, 5760, Note_on_c, 0, 50, 49
4, 6240, Note_on_c, 0, 50, 0
4, 6240, Note_on_c, 0, 65, 49
4, 6720, Note_on_c, 0, 65, 0
4, 6720, Note_on_c, 0, 60, 49
4, 7680, Note_on_c, 0, 60, 0
4, 7680, Control_c, 0, 64, 127
4, 7680, Note_on_c, 0, 53, 49
4, 7800, Note_on_c, 0, 53, 0
4, 7800, Note_on_c, 0, 55, 49
4, 7920, Note_on_c, 0, 55, 0
4, 7920, Note_on_c, 0, 57, 49
4, 8040, Note_on_c, 0, 57, 0
4, 8040, Control_c, 0, 64, 0
4, 8040, Note_on_c, 0, 58, 49
4, 8160, Note_on_c, 0, 58, 0
4, 8160, Note_on_c, 0, 52, 49
4, 8520, Note_on_c, 0, 52, 0
4, 8520, Note_on_c, 0, 53, 49
4, 8640, Note_on_c, 0, 53, 0
4, 8640, Note_on_c, 0, 53, 49
4, 9120, Note_on_c, 0, 53, 0
4, 9120, Note_on_c, 0, 65, 49
4, 9600, Note_on_c, 0, 65, 0
4, 9600, Note_on_c, 0, 60, 49
4, 10560, Note_on_c, 0, 60, 0
4, 10560, Control_c, 0, 64, 127
4, 10560, Note_on_c, 0, 53, 49
4, 10680, Note_on_c, 0, 53, 0
4, 10680, Note_on_c, 0, 55, 49
4, 10800, Note_on_c, 0, 55, 0
4, 10800, Note_on_c, 0, 57, 49
4, 10920, Note_on_c, 0, 57, 0
4, 10920, Note_on_c, 0, 58, 49
4, 11040, Note_on_c, 0, 58, 0
4, 11040, Control_c, 0, 64, 0
4, 11040, Note_on_c, 0, 52, 49
4, 11400, Note_on_c, 0, 52, 0
4, 11400, Note_on_c, 0, 53, 49
4, 11520, Note_on_c, 0, 53, 0
4, 11520, Note_on_c, 0, 53, 49
4, 12000, Note_on_c, 0, 53, 0
4, 12240, Note_on_c, 0, 68, 62
4, 12480, Note_on_c, 0, 68, 0
4, 12720, Note_on_c, 0, 69, 62
4, 13200, Note_on_c, 0, 69, 0
4, 13200, Note_on_c, 0, 69, 62
4, 13440, Note_on_c, 0, 69, 0
4, 13440, Control_c, 0, 64, 127
4, 13440, Note_on_c, 0, 55, 62
4, 13560, Note_on_c, 0, 55, 0
4, 13560, Note_on_c, 0, 62, 62
4, 13680, Note_on_c, 0, 62, 0
4, 13680, Note_on_c, 0, 61, 62
4, 13800, Note_on_c, 0, 61, 0
4, 13800, Control_c, 0, 64, 0
4, 13800, Note_on_c, 0, 62, 62
4, 13920, Note_on_c, 0, 62, 0
4, 13920, Control_c, 0, 64, 127
4, 13920, Note_on_c, 0, 53, 62
4, 14040, Note_on_c, 0, 53, 0
4, 14040, Note_on_c, 0, 62, 62
4, 14160, Note_on_c, 0, 62, 0
4, 14160, Note_on_c, 0, 61, 62
4, 14280, Note_on_c, 0, 61, 0
4, 14280, Note_on_c, 0, 62, 62
4, 14400, Note_on_c, 0, 62, 0
4, 14400, Control_c, 0, 64, 0
4, 14400, Note_on_c, 0, 57, 62
4, 14880, Note_on_c, 0, 57, 0
4, 15120, Note_on_c, 0, 68, 62
4, 15360, Note_on_c, 0, 68, 0
4, 15600, Note_on_c, 0, 69, 62
4, 16080, Note_on_c, 0, 69, 0
4, 16080, Note_on_c, 0, 69, 62
4, 16320, Note_on_c, 0, 69, 0
4, 16320, Control_c, 0, 64, 127
4, 16320, Note_on_c, 0, 55, 62
4, 16440, Note_on_c, 0, 55, 0
4, 16440, Note_on_c, 0, 62, 62
4, 16560, Note_on_c, 0, 62, 0
4, 16560, Note_on_c, 0, 61, 62
4, 16680, Note_on_c, 0, 61, 0
4, 16680, Control_c, 0, 64, 0
4, 16680, Note_on_c, 0, 62, 62
4, 16800, Note_on_c, 0, 62, 0
4, 16800, Control_c, 0, 64, 127
4, 16800, Note_on_c, 0, 53, 62
4, 16920, Note_on_c, 0, 53, 0
4, 16920, Note_on_c, 0, 62, 62
4, 17040, Note_on_c, 0, 62, 0
4, 17040, Note_on_c, 0, 61, 62
4, 17160, Note_on_c, 0, 61, 0
4, 17160, Note_on_c, 0, 62, 62
4, 17280, Note_on_c, 0, 62, 0
4, 17280, Control_c, 0, 64, 0
4, 17280, Note_on_c, 0, 57, 62
4, 17760, Note_on_c, 0, 57, 0
4, 17760, Control_c, 0, 64, 127
4, 17760, Note_on_c, 0, 55, 62
4, 17880, Note_on_c, 0, 55, 0
4, 17880, Note_on_c, 0, 62, 62
4, 18000, Note_on_c, 0, 62, 0
4, 18000, Note_on_c, 0, 61, 62
4, 18120, Note_on_c, 0, 61, 0
4, 18120, Control_c, 0, 64, 0
4, 18120, Note_on_c, 0, 62, 62
4, 18240, Note_on_c, 0, 62, 0
4, 18240, Control_c, 0, 64, 127
4, 18240, Note_on_c, 0, 54, 62
4, 18360, Note_on_c, 0, 54, 0
4, 18360, Note_on_c, 0, 62, 62
4, 18480, Note_on_c, 0, 62, 0
4, 18480, Note_on_c, 0, 61, 62
4, 18600, Note_on_c, 0, 61, 0
4, 18600, Control_c, 0, 64, 0
4, 18600, Note_on_c, 0, 62, 62
4, 18720, Note_on_c, 0, 62, 0
4, 18720, Control_c, 0, 64, 127
4, 18720, Note_on_c, 0, 63, 62
4, 18840, Note_on_c, 0, 63, 0
4, 18840, Note_on_c, 0, 69, 62
4, 18960, Note_on_c, 0, 69, 0
4, 18960, Note_on_c, 0, 68, 62
4, 19080, Note_on_c, 0, 68, 0
4, 19080, Control_c, 0, 64, 0
4, 19080, Note_on_c, 0, 69, 62
4, 19200, Note_on_c, 0, 69, 0
4, 19200, Control_c, 0, 64, 127
4, 19200, Note_on_c, 0, 62, 49
4, 19320, Note_on_c, 0, 62, 0
4, 19320, Note_on_c, 0, 69, 49
4, 19440, Note_on_c, 0, 69, 0
4, 19440, Note_on_c, 0, 68, 49
4, 19560, Note_on_c, 0, 68, 0
4, 19560, Control_c, 0, 64, 0
4, 19560, Note_on_c, 0, 69, 49
4, 19680, Note_on_c, 0, 69, 0
4, 19680, Control_c, 0, 64, 127
4, 19680, Note_on_c, 0, 67, 49
4, 19800, Note_on_c, 0, 67, 0
4, 19800, Note_on_c, 0, 74, 49
4, 19920, Note_on_c, 0, 74, 0
4, 19920, Note_on_c, 0, 73, 49
4, 20040, Note_on_c, 0, 73, 0
4, 20040, Note_on_c, 0, 74, 49
4, 20160, Note_on_c, 0, 74, 0
4, 20160, Note_on_c, 0, 69, 49
4, 20280, Note_on_c, 0, 69, 0
4, 20280, Note_on_c, 0, 74, 49
4, 20400, Note_on_c, 0, 74, 0
4, 20400, Note_on_c, 0, 73, 49
4, 20520, Note_on_c, 0, 73, 0
4, 20520, Note_on_c, 0, 74, 49
4, 20640, Note_on_c, 0, 74, 0
4, 20640, Note_on_c, 0, 67, 49
4, 20760, Note_on_c, 0, 67, 0
4, 20760, Note_on_c, 0, 74, 49
4, 20880, Note_on_c, 0, 74, 0
4, 20880, Note_on_c, 0, 73, 49
4, 21000, Note_on_c, 0, 73, 0
4, 21000, Control_c, 0, 64, 0
4, 21000, Note_on_c, 0, 74, 49
4, 21120, Note_on_c, 0, 74, 0
4, 21120, Control_c, 0, 64, 127
4, 21120, Note_on_c, 0, 69, 49
4, 21240, Note_on_c, 0, 69, 0
4, 21240, Note_on_c, 0, 74, 49
4, 21360, Note_on_c, 0, 74, 0
4, 21360, Note_on_c, 0, 73, 49
4, 21480, Note_on_c, 0, 73, 0
4, 21480, Note_on_c, 0, 74, 49
4, 21600, Note_on_c, 0, 74, 0
4, 21600, Note_on_c, 0, 69, 49
4, 21720, Note_on_c, 0, 69, 0
4, 21720, Note_on_c, 0, 74, 49
4, 21840, Note_on_c, 0, 74, 0
4, 21840, Note_on_c, 0, 73, 49
4, 21960, Note_on_c, 0, 73, 0
4, 21960, Note_on_c, 0, 74, 49
4, 22080, Note_on_c, 0, 74, 0
4, 22080, Note_on_c, 0, 69, 49
4, 22200, Note_on_c, 0, 69, 0
4, 22200, Note_on_c, 0, 74, 49
4, 22320, Note_on_c, 0, 74, 0
4, 22320, Note_on_c, 0, 73, 49
4, 22440, Note_on_c, 0, 73, 0
4, 22440, Control_c, 0, 64, 0
4, 22440, Note_on_c, 0, 74, 49
4, 22560, Note_on_c, 0, 74, 0
4, 25440, Note_on_c, 0, 67, 49
4, 26400, Note_on_c, 0, 67, 0
4, 26400, Control_c, 0, 64, 127
4, 26400, Note_on_c, 0, 54, 49
4, 26520, Note_on_c, 0, 54, 0
4, 26520, Note_on_c, 0, 55, 49
4, 26640, Note_on_c, 0, 55, 0
4, 26640, Note_on_c, 0, 57, 49
4, 26760, Note_on_c, 0, 57, 0
4, 26760, Control_c, 0, 64, 0
4, 26760, Note_on_c, 0, 58, 49
4, 26820, Note_on_c, 0, 58, 0
4, 26820, Note_on_c, 0, 57, 49
4, 26850, Note_on_c, 0, 57, 0
4, 26850, Note_on_c, 0, 58, 49
4, 26880, Note_on_c, 0, 58, 0
4, 26880, Note_on_c, 0, 57, 49
4, 27120, Note_on_c, 0, 57, 0
4, 27120, Note_on_c, 0, 55, 49
4, 27360, Note_on_c, 0, 55, 0
4, 27360, Note_on_c, 0, 50, 49
4, 27840, Note_on_c, 0, 50, 0
4, 28320, Note_on_c, 0, 67, 49
4, 29280, Note_on_c, 0, 67, 0
4, 29280, Control_c, 0, 64, 127
4, 29280, Note_on_c, 0, 54, 49
4, 29400, Note_on_c, 0, 54, 0
4, 29400, Note_on_c, 0, 55, 49
4, 29520, Note_on_c, 0, 55, 0
4, 29520, Note_on_c, 0, 57, 49
4, 29640, Note_on_c, 0, 57, 0
4, 29640, Control_c, 0, 64, 0
4, 29640, Note_on_c, 0, 58, 49
4, 29700, Note_on_c, 0, 58, 0
4, 29700, Control_c, 0, 64, 127
4, 29700, Note_on_c, 0, 57, 49
4, 29730, Note_on_c, 0, 57, 0
4, 29730, Note_on_c, 0, 58, 49
4, 29760, Note_on_c, 0, 58, 0
4, 29760, Note_on_c, 0, 57, 49
4, 29880, Note_on_c, 0, 57, 0
4, 29880, Note_on_c, 0, 58, 49
4, 30000, Note_on_c, 0, 58, 0
4, 30000, Note_on_c, 0, 57, 49
4, 30120, Note_on_c, 0, 57, 0
4, 30120, Note_on_c, 0, 55, 49
4, 30240, Note_on_c, 0, 55, 0
4, 30240, Control_c, 0, 64, 0
4, 30240, Note_on_c, 0, 50, 49
4, 30720, Note_on_c, 0, 50, 0
4, 30720, Note_on_c, 0, 51, 49
4, 31200, Note_on_c, 0, 51, 0
4, 31200, Note_on_c, 0, 50, 49
4, 31680, Note_on_c, 0, 50, 0
4, 31680, Note_on_c, 0, 51, 49
4, 32160, Note_on_c, 0, 51, 0
4, 32160, Note_on_c, 0, 50, 49
4, 32640, Note_on_c, 0, 50, 0
4, 32640, Control_c, 0, 64, 127
4, 32640, Note_on_c, 0, 48, 49
4, 32640, Note_on_c, 0, 51, 49
4, 33120, Note_on_c, 0, 51, 0
4, 33120, Note_on_c, 0, 48, 0
4, 33120, Note_on_c, 0, 43, 49
4, 33120, Note_on_c, 0, 50, 49
4, 33600, Note_on_c, 0, 50, 0
4, 33600, Note_on_c, 0, 43, 0
4, 33600, Note_on_c, 0, 48, 49
4, 33600, Note_on_c, 0, 51, 49
4, 34080, Note_on_c, 0, 51, 0
4, 34080, Note_on_c, 0, 48, 0
4, 34080, Note_on_c, 0, 43, 49
4, 34080, Note_on_c, 0, 50, 49
4, 34560, Note_on_c, 0, 50, 0
4, 34560, Note_on_c, 0, 43, 0
4, 34560, Note_on_c, 0, 48, 49
4, 34560, Note_on_c, 0, 51, 49
4, 35040, Note_on_c, 0, 51, 0
4, 35040, Note_on_c, 0, 48, 0
4, 35040, Control_c, 0, 64, 0
4, 35040, Note_on_c, 0, 43, 49
4, 35040, Note_on_c, 0, 50, 49
4, 35520, Note_on_c, 0, 50, 0
4, 35520, Note_on_c, 0, 43, 0
4, 35520, Note_on_c, 0, 50, 49
4, 35520, Note_on_c, 0, 55, 49
4, 35520, Note_on_c, 0, 62, 49
4, 35760, Note_on_c, 0, 62, 0
4, 35760, Note_on_c, 0, 55, 0
4, 35760, Note_on_c, 0, 50, 0
4, 35760, Note_on_c, 0, 43, 49
4, 36000, Note_on_c, 0, 43, 0
4, 36000, Note_on_c, 0, 50, 49
4, 36000, Note_on_c, 0, 55, 49
4, 36000, Note_on_c, 0, 62, 49
4, 36240, Note_on_c, 0, 62, 0
4, 36240, Note_on_c, 0, 55, 0
4, 36240, Note_on_c, 0, 50, 0
4, 36240, Note_on_c, 0, 43, 49
4, 36480, Note_on_c, 0, 43, 0
4, 36480, Note_on_c, 0, 64, 49
4, 36720, Note_on_c, 0, 64, 0
4, 36720, Note_on_c, 0, 62, 49
4, 36960, Note_on_c, 0, 62, 0
4, 36960, Note_on_c, 0, 59, 49
4, 37200, Note_on_c, 0, 59, 0
4, 37200, Note_on_c, 0, 50, 49
4, 37440, Note_on_c, 0, 50, 0
4, 37440, Note_on_c, 0, 50, 49
4, 37440, Note_on_c, 0, 55, 49
4, 37440, Note_on_c, 0, 62, 49
4, 37680, Note_on_c, 0, 62, 0
4, 37680, Note_on_c, 0, 55, 0
4, 37680, Note_on_c, 0, 50, 0
4, 37680, Note_on_c, 0, 43, 49
4, 37920, Note_on_c, 0, 43, 0
4, 37920, Note_on_c, 0, 50, 49
4, 37920, Note_on_c, 0, 55, 49
4, 37920, Note_on_c, 0, 62, 49
4, 38160, Note_on_c, 0, 62, 0
4, 38160, Note_on_c, 0, 55, 0
4, 38160, Note_on_c, 0, 50, 0
4, 38160, Note_on_c, 0, 43, 49
4, 38400, Note_on_c, 0, 43, 0
4, 38400, Note_on_c, 0, 50, 49
4, 38400, Note_on_c, 0, 57, 49
4, 38400, Note_on_c, 0, 62, 49
4, 38640, Note_on_c, 0, 62, 0
4, 38640, Note_on_c, 0, 57, 0
4, 38640, Note_on_c, 0, 50, 0
4, 38640, Note_on_c, 0, 43, 49
4, 38880, Note_on_c, 0, 43, 0
4, 38880, Note_on_c, 0, 50, 49
4, 38880, Note_on_c, 0, 57, 49
4, 38880, Note_on_c, 0, 62, 49
4, 39120, Note_on_c, 0, 62, 0
4, 39120, Note_on_c, 0, 57, 0
4, 39120, Note_on_c, 0, 50, 0
4, 39120, Note_on_c, 0, 43, 49
4, 39360, Note_on_c, 0, 43, 0
4, 39360, Note_on_c, 0, 50, 49
4, 39360, Note_on_c, 0, 57, 49
4, 39360, Note_on_c, 0, 62, 49
4, 39600, Note_on_c, 0, 62, 0
4, 39600, Note_on_c, 0, 57, 0
4, 39600, Note_on_c, 0, 50, 0
4, 39600, Note_on_c, 0, 43, 49
4, 39840, Note_on_c, 0, 43, 0
4, 39840, Note_on_c, 0, 50, 49
4, 39840, Note_on_c, 0, 57, 49
4, 39840, Note_on_c, 0, 62, 49
4, 40080, Note_on_c, 0, 62, 0
4, 40080, Note_on_c, 0, 57, 0
4, 40080, Note_on_c, 0, 50, 0
4, 40080, Note_on_c, 0, 43, 49
4, 40320, Note_on_c, 0, 43, 0
4, 40320, Note_on_c, 0, 50, 49
4, 40320, Note_on_c, 0, 57, 49
4, 40320, Note_on_c, 0, 62, 49
4, 40560, Note_on_c, 0, 62, 0
4, 40560, Note_on_c, 0, 57, 0
4, 40560, Note_on_c, 0, 50, 0
4, 40560, Note_on_c, 0, 43, 49
4, 40800, Note_on_c, 0, 43, 0
4, 40800, Note_on_c, 0, 54, 49
4, 41280, Note_on_c, 0, 54, 0
4, 41280, Note_on_c, 0, 50, 49
4, 41280, Note_on_c, 0, 55, 49
4, 41280, Note_on_c, 0, 62, 49
4, 41520, Note_on_c, 0, 62, 0
4, 41520, Note_on_c, 0, 55, 0
4, 41520, Note_on_c, 0, 50, 0
4, 41520, Note_on_c, 0, 43, 49
4, 41760, Note_on_c, 0, 43, 0
4, 41760, Note_on_c, 0, 50, 49
4, 41760, Note_on_c, 0, 55, 49
4, 41760, Note_on_c, 0, 62, 49
4, 42000, Note_on_c, 0, 62, 0
4, 42000, Note_on_c, 0, 55, 0
4, 42000, Note_on_c, 0, 50, 0
4, 42000, Note_on_c, 0, 43, 49
4, 42240, Note_on_c, 0, 43, 0
4, 42240, Note_on_c, 0, 64, 49
4, 42480, Note_on_c, 0, 64, 0
4, 42480, Note_on_c, 0, 62, 49
4, 42720, Note_on_c, 0, 62, 0
4, 42720, Note_on_c, 0, 59, 49
4, 42960, Note_on_c, 0, 59, 0
4, 42960, Note_on_c, 0, 50, 49
4, 43200, Note_on_c, 0, 50, 0
4, 43200, Note_on_c, 0, 50, 49
4, 43200, Note_on_c, 0, 55, 49
4, 43200, Note_on_c, 0, 62, 49
4, 43440, Note_on_c, 0, 62, 0
4, 43440, Note_on_c, 0, 55, 0
4, 43440, Note_on_c, 0, 50, 0
4, 43440, Note_on_c, 0, 43, 49
4, 43680, Note_on_c, 0, 43, 0
4, 43680, Note_on_c, 0, 50, 49
4, 43680, Note_on_c, 0, 55, 49
4, 43680, Note_on_c, 0, 62, 49
4, 43920, Note_on_c, 0, 62, 0
4, 43920, Note_on_c, 0, 55, 0
4, 43920, Note_on_c, 0, 50, 0
4, 43920, Note_on_c, 0, 43, 49
4, 44160, Note_on_c, 0, 43, 0
4, 44160, Note_on_c, 0, 50, 49
4, 44160, Note_on_c, 0, 57, 49
4, 44160, Note_on_c, 0, 62, 49
4, 44400, Note_on_c, 0, 62, 0
4, 44400, Note_on_c, 0, 57, 0
4, 44400, Note_on_c, 0, 50, 0
4, 44400, Note_on_c, 0, 43, 49
4, 44640, Note_on_c, 0, 43, 0
4, 44640, Note_on_c, 0, 50, 49
4, 44640, Note_on_c, 0, 57, 49
4, 44640, Note_on_c, 0, 62, 49
4, 44880, Note_on_c, 0, 62, 0
4, 44880, Note_on_c, 0, 57, 0
4, 44880, Note_on_c, 0, 50, 0
4, 44880, Note_on_c, 0, 43, 49
4, 45120, Note_on_c, 0, 43, 0
4, 45120, Note_on_c, 0, 50, 49
4, 45120, Note_on_c, 0, 57, 49
4, 45120, Note_on_c, 0, 62, 49
4, 45360, Note_on_c, 0, 62, 0
4, 45360, Note_on_c, 0, 57, 0
4, 45360, Note_on_c, 0, 50, 0
4, 45360, Note_on_c, 0, 43, 49
4, 45600, Note_on_c, 0, 43, 0
4, 45600, Note_on_c, 0, 50, 49
4, 45600, Note_on_c, 0, 57, 49
4, 45600, Note_on_c, 0, 62, 49
4, 45840, Note_on_c, 0, 62, 0
4, 45840, Note_on_c, 0, 57, 0
4, 45840, Note_on_c, 0, 50, 0
4, 45840, Note_on_c, 0, 43, 49
4, 46080, Note_on_c, 0, 43, 0
4, 46080, Note_on_c, 0, 50, 49
4, 46080, Note_on_c, 0, 57, 49
4, 46080, Note_on_c, 0, 62, 49
4, 46320, Note_on_c, 0, 62, 0
4, 46320, Note_on_c, 0, 57, 0
4, 46320, Note_on_c, 0, 50, 0
4, 46320, Note_on_c, 0, 43, 49
4, 46560, Note_on_c, 0, 43, 0
4, 46560, Note_on_c, 0, 50, 49
4, 46560, Note_on_c, 0, 55, 49
4, 46560, Note_on_c, 0, 62, 49
4, 46800, Note_on_c, 0, 62, 0
4, 46800, Note_on_c, 0, 55, 0
4, 46800, Note_on_c, 0, 50, 0
4, 46800, Note_on_c, 0, 43, 49
4, 47040, Note_on_c, 0, 43, 0
4, 47040, Note_on_c, 0, 54, 101
4, 47280, Note_on_c, 0, 54, 0
4, 47280, Note_on_c, 0, 54, 101
4, 47520, Note_on_c, 0, 54, 0
4, 47520, Note_on_c, 0, 54, 101
4, 47760, Note_on_c, 0, 54, 0
4, 47760, Note_on_c, 0, 54, 101
4, 48000, Note_on_c, 0, 54, 0
4, 48000, Note_on_c, 0, 54, 101
4, 48480, Note_on_c, 0, 54, 0
4, 48480, Note_on_c, 0, 54, 101
4, 48720, Note_on_c, 0, 54, 0
4, 48720, Note_on_c, 0, 54, 101
4, 48960, Note_on_c, 0, 54, 0
4, 48960, Note_on_c, 0, 54, 101
4, 49200, Note_on_c, 0, 54, 0
4, 49200, Note_on_c, 0, 54, 101
4, 49440, Note_on_c, 0, 54, 0
4, 49440, Note_on_c, 0, 54, 101
4, 49920, Note_on_c, 0, 54, 0
4, 49920, Note_on_c, 0, 54, 62
4, 49920, Note_on_c, 0, 58, 62
4, 49920, Note_on_c, 0, 64, 62
4, 50160, Note_on_c, 0, 64, 0
4, 50160, Note_on_c, 0, 58, 0
4, 50160, Note_on_c, 0, 54, 0
4, 50160, Note_on_c, 0, 47, 62
4, 50400, Note_on_c, 0, 47, 0
4, 50400, Note_on_c, 0, 54, 62
4, 50400, Note_on_c, 0, 58, 62
4, 50400, Note_on_c, 0, 64, 62
4, 50640, Note_on_c, 0, 64, 0
4, 50640, Note_on_c, 0, 58, 0
4, 50640, Note_on_c, 0, 54, 0
4, 50640, Note_on_c, 0, 47, 62
4, 50880, Note_on_c, 0, 47, 0
4, 50880, Note_on_c, 0, 54, 62
4, 50880, Note_on_c, 0, 58, 62
4, 50880, Note_on_c, 0, 64, 62
4, 51120, Note_on_c, 0, 64, 0
4, 51120, Note_on_c, 0, 58, 0
4, 51120, Note_on_c, 0, 54, 0
4, 51120, Note_on_c, 0, 47, 62
4, 51360, Note_on_c, 0, 47, 0
4, 51360, Note_on_c, 0, 54, 75
4, 51480, Note_on_c, 0, 54, 0
4, 51480, Note_on_c, 0, 53, 75
4, 51600, Note_on_c, 0, 53, 0
4, 51600, Note_on_c, 0, 54, 75
4, 51720, Note_on_c, 0, 54, 0
4, 51720, Note_on_c, 0, 59, 75
4, 51960, Note_on_c, 0, 59, 0
4, 51960, Note_on_c, 0, 58, 75
4, 52080, Note_on_c, 0, 58, 0
4, 52080, Note_on_c, 0, 59, 75
4, 52200, Note_on_c, 0, 59, 0
4, 52200, Note_on_c, 0, 62, 75
4, 52440, Note_on_c, 0, 62, 0
4, 52440, Note_on_c, 0, 61, 75
4, 52560, Note_on_c, 0, 61, 0
4, 52560, Note_on_c, 0, 62, 75
4, 52680, Note_on_c, 0, 62, 0
4, 52680, Note_on_c, 0, 66, 75
4, 52800, Note_on_c, 0, 66, 0
4, 52800, Note_on_c, 0, 52, 49
4, 52800, Note_on_c, 0, 59, 49
4, 52800, Note_on_c, 0, 64, 49
4, 53040, Note_on_c, 0, 64, 0
4, 53040, Note_on_c, 0, 59, 0
4, 53040, Note_on_c, 0, 52, 0
4, 53040, Note_on_c, 0, 47, 49
4, 53280, Note_on_c, 0, 47, 0
4, 53280, Note_on_c, 0, 52, 49
4, 53280, Note_on_c, 0, 59, 49
4, 53280, Note_on_c, 0, 64, 49
4, 53520, Note_on_c, 0, 64, 0
4, 53520, Note_on_c, 0, 59, 0
4, 53520, Note_on_c, 0, 52, 0
4, 53520, Note_on_c, 0, 47, 49
4, 53760, Note_on_c, 0, 47, 0
4, 53760, Note_on_c, 0, 52, 49
4, 53760, Note_on_c, 0, 59, 49
4, 53760, Note_on_c, 0, 64, 49
4, 54000, Note_on_c, 0, 64, 0
4, 54000, Note_on_c, 0, 59, 0
4, 54000, Note_on_c, 0, 52, 0
4, 54000, Note_on_c, 0, 47, 49
4, 54240, Note_on_c, 0, 47, 0
4, 54240, Note_on_c, 0, 52, 49
4, 54240, Note_on_c, 0, 59, 49
4, 54240, Note_on_c, 0, 64, 49
4, 54480, Note_on_c, 0, 64, 0
4, 54480, Note_on_c, 0, 59, 0
4, 54480, Note_on_c, 0, 52, 0
4, 54480, Note_on_c, 0, 47, 49
4, 54720, Note_on_c, 0, 47, 0
4, 54720, Note_on_c, 0, 52, 49
4, 54720, Note_on_c, 0, 59, 49
4, 54720, Note_on_c, 0, 64, 49
4, 54960, Note_on_c, 0, 64, 0
4, 54960, Note_on_c, 0, 59, 0
4, 54960, Note_on_c, 0, 52, 0
4, 54960, Note_on_c, 0, 47, 49
4, 55200, Note_on_c, 0, 47, 0
4, 55200, Note_on_c, 0, 52, 49
4, 55200, Note_on_c, 0, 59, 49
4, 55200, Note_on_c, 0, 64, 49
4, 55440, Note_on_c, 0, 64, 0
4, 55440, Note_on_c, 0, 59, 0
4, 55440, Note_on_c, 0, 52, 0
4, 55440, Note_on_c, 0, 47, 49
4, 55680, Note_on_c, 0, 47, 0
4, 55680, Note_on_c, 0, 54, 62
4, 55680, Note_on_c, 0, 58, 62
4, 55680, Note_on_c, 0, 64, 62
4, 55920, Note_on_c, 0, 64, 0
4, 55920, Note_on_c, 0, 58, 0
4, 55920, Note_on_c, 0, 54, 0
4, 55920, Note_on_c, 0, 47, 62
4, 56160, Note_on_c, 0, 47, 0
4, 56160, Note_on_c, 0, 54, 62
4, 56160, Note_on_c, 0, 58, 62
4, 56160, Note_on_c, 0, 64, 62
4, 56400, Note_on_c, 0, 64, 0
4, 56400, Note_on_c, 0, 58, 0
4, 56400, Note_on_c, 0, 54, 0
4, 56400, Note_on_c, 0, 47, 62
4, 56640, Note_on_c, 0, 47, 0
4, 56640, Note_on_c, 0, 54, 62
4, 56640, Note_on_c, 0, 58, 62
4, 56640, Note_on_c, 0, 64, 62
4, 56880, Note_on_c, 0, 64, 0
4, 56880, Note_on_c, 0, 58, 0
4, 56880, Note_on_c, 0, 54, 0
4, 56880, Note_on_c, 0, 47, 62
4, 57120, Note_on_c, 0, 47, 0
4, 57120, Note_on_c, 0, 54, 75
4, 57240, Note_on_c, 0, 54, 0
4, 57240, Note_on_c, 0, 53, 75
4, 57360, Note_on_c, 0, 53, 0
4, 57360, Note_on_c, 0, 54, 75
4, 57480, Note_on_c, 0, 54, 0
4, 57480, Note_on_c, 0, 59, 75
4, 57720, Note_on_c, 0, 59, 0
4, 57720, Note_on_c, 0, 58, 75
4, 57840, Note_on_c, 0, 58, 0
4, 57840, Note_on_c, 0, 59, 75
4, 57960, Note_on_c, 0, 59, 0
4, 57960, Note_on_c, 0, 62, 75
4, 58200, Note_on_c, 0, 62, 0
4, 58200, Note_on_c, 0, 61, 75
4, 58320, Note_on_c, 0, 61, 0
4, 58320, Note_on_c, 0, 62, 75
4, 58440, Note_on_c, 0, 62, 0
4, 58440, Note_on_c, 0, 66, 75
4, 58560, Note_on_c, 0, 66, 0
4, 58560, Note_on_c, 0, 52, 49
4, 58560, Note_on_c, 0, 59, 49
4, 58560, Note_on_c, 0, 64, 49
4, 58800, Note_on_c, 0, 64, 0
4, 58800, Note_on_c, 0, 59, 0
4, 58800, Note_on_c, 0, 52, 0
4, 58800, Note_on_c, 0, 47, 49
4, 59040, Note_on_c, 0, 47, 0
4, 59040, Note_on_c, 0, 52, 49
4, 59040, Note_on_c, 0, 59, 49
4, 59040, Note_on_c, 0, 64, 49
4, 59280, Note_on_c, 0, 64, 0
4, 59280, Note_on_c, 0, 59, 0
4, 59280, Note_on_c, 0, 52, 0
4, 59280, Note_on_c, 0, 47, 49
4, 59520, Note_on_c, 0, 47, 0
4, 59520, Note_on_c, 0, 52, 49
4, 59520, Note_on_c, 0, 59, 49
4, 59520, Note_on_c, 0, 64, 49
4, 59760, Note_on_c, 0, 64, 0
4, 59760, Note_on_c, 0, 59, 0
4, 59760, Note_on_c, 0, 52, 0
4, 59760, Note_on_c, 0, 47, 49
4, 60000, Note_on_c, 0, 47, 0
4, 60000, Note_on_c, 0, 52, 49
4, 60000, Note_on_c, 0, 59, 49
4, 60000, Note_on_c, 0, 64, 49
4, 60240, Note_on_c, 0, 64, 0
4, 60240, Note_on_c, 0, 59, 0
4, 60240, Note_on_c, 0, 52, 0
4, 60240, Note_on_c, 0, 47, 49
4, 60480, Note_on_c, 0, 47, 0
4, 60480, Note_on_c, 0, 52, 49
4, 60480, Note_on_c, 0, 59, 49
4, 60480, Note_on_c, 0, 64, 49
4, 60720, Note_on_c, 0, 64, 0
4, 60720, Note_on_c, 0, 59, 0
4, 60720, Note_on_c, 0, 52, 0
4, 60720, Note_on_c, 0, 47, 49
4, 60960, Note_on_c, 0, 47, 0
4, 60960, Note_on_c, 0, 52, 49
4, 60960, Note_on_c, 0, 59, 49
4, 60960, Note_on_c, 0, 64, 49
4, 61200, Note_on_c, 0, 64, 0
4, 61200, Note_on_c, 0, 59, 0
4, 61200, Note_on_c, 0, 52, 0
4, 61200, Note_on_c, 0, 47, 49
4, 61440, Note_on_c, 0, 47, 0
4, 61440, Note_on_c, 0, 50, 49
4, 61440, Note_on_c, 0, 55, 49
4, 61440, Note_on_c, 0, 62, 49
4, 61680, Note_on_c, 0, 62, 0
4, 61680, Note_on_c, 0, 55, 0
4, 61680, Note_on_c, 0, 50, 0
4, 61680, Note_on_c, 0, 43, 49
4, 61920, Note_on_c, 0, 43, 0
4, 61920, Note_on_c, 0, 50, 49
4, 61920, Note_on_c, 0, 55, 49
4, 61920, Note_on_c, 0, 62, 49
4, 62160, Note_on_c, 0, 62, 0
4, 62160, Note_on_c, 0, 55, 0
4, 62160, Note_on_c, 0, 50, 0
4, 62160, Note_on_c, 0, 43, 49
4, 62400, Note_on_c, 0, 43, 0
4, 62400, Note_on_c, 0, 55, 49
4, 62640, Note_on_c, 0, 55, 0
4, 62640, Note_on_c, 0, 64, 49
4, 62760, Note_on_c, 0, 64, 0
4, 62760, Note_on_c, 0, 62, 49
4, 62880, Note_on_c, 0, 62, 0
4, 62880, Note_on_c, 0, 59, 49
4, 63120, Note_on_c, 0, 59, 0
4, 63120, Note_on_c, 0, 43, 49
4, 63360, Note_on_c, 0, 43, 0
4, 63360, Note_on_c, 0, 50, 49
4, 63360, Note_on_c, 0, 55, 49
4, 63360, Note_on_c, 0, 62, 49
4, 63600, Note_on_c, 0, 62, 0
4, 63600, Note_on_c, 0, 55, 0
4, 63600, Note_on_c, 0, 50, 0
4, 63600, Note_on_c, 0, 43, 49
4, 63840, Note_on_c, 0, 43, 0
4, 63960, Note_on_c, 0, 62, 49
4, 64320, Note_on_c, 0, 62, 0
4, 64320, Note_on_c, 0, 50, 49
4, 64320, Note_on_c, 0, 54, 49
4, 64320, Note_on_c, 0, 60, 49
4, 64560, Note_on_c, 0, 60, 0
4, 64560, Note_on_c, 0, 54, 0
4, 64560, Note_on_c, 0, 50, 0
4, 64560, Note_on_c, 0, 43, 49
4, 64800, Note_on_c, 0, 43, 0
4, 64800, Note_on_c, 0, 50, 49
4, 64800, Note_on_c, 0, 54, 49
4, 64800, Note_on_c, 0, 60, 49
4, 65040, Note_on_c, 0, 60, 0
4, 65040, Note_on_c, 0, 54, 0
4, 65040, Note_on_c, 0, 50, 0
4, 65040, Note_on_c, 0, 43, 49
4, 65280, Note_on_c, 0, 43, 0
4, 65280, Note_on_c, 0, 50, 49
4, 65280, Note_on_c, 0, 54, 49
4, 65280, Note_on_c, 0, 60, 49
4, 65520, Note_on_c, 0, 60, 0
4, 65520, Note_on_c, 0, 54, 0
4, 65520, Note_on_c, 0, 50, 0
4, 65520, Note_on_c, 0, 43, 49
4, 65760, Note_on_c, 0, 43, 0
4, 65760, Note_on_c, 0, 50, 49
4, 65760, Note_on_c, 0, 54, 49
4, 65760, Note_on_c, 0, 60, 49
4, 66000, Note_on_c, 0, 60, 0
4, 66000, Note_on_c, 0, 54, 0
4, 66000, Note_on_c, 0, 50, 0
4, 66000, Note_on_c, 0, 43, 49
4, 66240, Note_on_c, 0, 43, 0
4, 66240, Note_on_c, 0, 50, 49
4, 66240, Note_on_c, 0, 54, 49
4, 66240, Note_on_c, 0, 60, 49
4, 66480, Note_on_c, 0, 60, 0
4, 66480, Note_on_c, 0, 54, 0
4, 66480, Note_on_c, 0, 50, 0
4, 66480, Note_on_c, 0, 43, 49
4, 66720, Note_on_c, 0, 43, 0
4, 66720, Note_on_c, 0, 54, 49
4, 66960, Note_on_c, 0, 54, 0
4, 66960, Note_on_c, 0, 43, 49
4, 66960, Note_on_c, 0, 50, 49
4, 67200, Note_on_c, 0, 50, 0
4, 67200, Note_on_c, 0, 43, 0
4, 67200, Note_on_c, 0, 50, 49
4, 67200, Note_on_c, 0, 55, 49
4, 67200, Note_on_c, 0, 62, 49
4, 67440, Note_on_c, 0, 62, 0
4, 67440, Note_on_c, 0, 55, 0
4, 67440, Note_on_c, 0, 50, 0
4, 67440, Note_on_c, 0, 43, 49
4, 67680, Note_on_c, 0, 43, 0
4, 67680, Note_on_c, 0, 50, 49
4, 67680, Note_on_c, 0, 55, 49
4, 67680, Note_on_c, 0, 62, 49
4, 67920, Note_on_c, 0, 62, 0
4, 67920, Note_on_c, 0, 55, 0
4, 67920, Note_on_c, 0, 50, 0
4, 67920, Note_on_c, 0, 43, 49
4, 68160, Note_on_c, 0, 43, 0
4, 68160, Note_on_c, 0, 55, 49
4, 68400, Note_on_c, 0, 55, 0
4, 68400, Note_on_c, 0, 64, 49
4, 68520, Note_on_c, 0, 64, 0
4, 68520, Note_on_c, 0, 62, 49
4, 68640, Note_on_c, 0, 62, 0
4, 68640, Note_on_c, 0, 59, 49
4, 68880, Note_on_c, 0, 59, 0
4, 68880, Note_on_c, 0, 43, 49
4, 69120, Note_on_c, 0, 43, 0
4, 69120, Note_on_c, 0, 50, 49
4, 69120, Note_on_c, 0, 55, 49
4, 69120, Note_on_c, 0, 62, 49
4, 69360, Note_on_c, 0, 62, 0
4, 69360, Note_on_c, 0, 55, 0
4, 69360, Note_on_c, 0, 50, 0
4, 69360, Note_on_c, 0, 43, 49
4, 69600, Note_on_c, 0, 43, 0
4, 69720, Note_on_c, 0, 62, 49
4, 70080, Note_on_c, 0, 62, 0
4, 70080, Note_on_c, 0, 53, 75
4, 70080, Note_on_c, 0, 58, 75
4, 70080, Note_on_c, 0, 65, 75
4, 70320, Note_on_c, 0, 65, 0
4, 70320, Note_on_c, 0, 58, 0
4, 70320, Note_on_c, 0, 53, 0
4, 70320, Note_on_c, 0, 46, 75
4, 70560, Note_on_c, 0, 46, 0
4, 70560, Note_on_c, 0, 53, 75
4, 70560, Note_on_c, 0, 58, 75
4, 70560, Note_on_c, 0, 65, 75
4, 70800, Note_on_c, 0, 65, 0
4, 70800, Note_on_c, 0, 58, 0
4, 70800, Note_on_c, 0, 53, 0
4, 70800, Note_on_c, 0, 46, 75
4, 71040, Note_on_c, 0, 46, 0
4, 71040, Note_on_c, 0, 58, 75
4, 71280, Note_on_c, 0, 58, 0
4, 71280, Note_on_c, 0, 67, 75
4, 71400, Note_on_c, 0, 67, 0
4, 71400, Note_on_c, 0, 65, 75
4, 71520, Note_on_c, 0, 65, 0
4, 71520, Note_on_c, 0, 62, 75
4, 71760, Note_on_c, 0, 62, 0
4, 71760, Note_on_c, 0, 46, 75
4, 72000, Note_on_c, 0, 46, 0
4, 72000, Note_on_c, 0, 53, 75
4, 72000, Note_on_c, 0, 58, 75
4, 72000, Note_on_c, 0, 65, 75
4, 72240, Note_on_c, 0, 65, 0
4, 72240, Note_on_c, 0, 58, 0
4, 72240, Note_on_c, 0, 53, 0
4, 72240, Note_on_c, 0, 46, 75
4, 72480, Note_on_c, 0, 46, 0
4, 72600, Note_on_c, 0, 65, 75
4, 72960, Note_on_c, 0, 65, 0
4, 72960, Note_on_c, 0, 70, 75
4, 73440, Note_on_c, 0, 70, 0
4, 73440, Note_on_c, 0, 70, 75
4, 73920, Note_on_c, 0, 70, 0
4, 73920, Note_on_c, 0, 61, 101
4, 73920, Note_on_c, 0, 63, 101
4, 73920, Note_on_c, 0, 70, 101
4, 74400, Note_on_c, 0, 70, 0
4, 74400, Note_on_c, 0, 63, 0
4, 74400, Note_on_c, 0, 61, 0
4, 74400, Note_on_c, 0, 70, 75
4, 74880, Note_on_c, 0, 70, 0
4, 74880, Note_on_c, 0, 70, 75
4, 75360, Note_on_c, 0, 70, 0
4, 75360, Note_on_c, 0, 61, 101
4, 75360, Note_on_c, 0, 63, 101
4, 75360, Note_on_c, 0, 70, 101
4, 76560, Note_on_c, 0, 70, 0
4, 76560, Note_on_c, 0, 63, 0
4, 76560, Note_on_c, 0, 61, 0
4, 77400, Note_on_c, 0, 69, 49
4, 78120, Note_on_c, 0, 69, 0
4, 78120, Note_on_c, 0, 67, 49
4, 78360, Note_on_c, 0, 67, 0
4, 78360, Control_c, 0, 64, 127
4, 78360, Note_on_c, 0, 54, 49
4, 78480, Note_on_c, 0, 54, 0
4, 78480, Note_on_c, 0, 55, 49
4, 78600, Note_on_c, 0, 55, 0
4, 78600, Note_on_c, 0, 57, 49
4, 78720, Note_on_c, 0, 57, 0
4, 78720, Control_c, 0, 64, 0
4, 78720, Note_on_c, 0, 58, 49
4, 78780, Note_on_c, 0, 58, 0
4, 78780, Control_c, 0, 64, 127
4, 78780, Note_on_c, 0, 57, 49
4, 78810, Note_on_c, 0, 57, 0
4, 78810, Note_on_c, 0, 58, 49
4, 78840, Note_on_c, 0, 58, 0
4, 78840, Note_on_c, 0, 57, 49
4, 79080, Note_on_c, 0, 57, 0
4, 79080, Note_on_c, 0, 55, 49
4, 79320, Note_on_c, 0, 55, 0
4, 79320, Control_c, 0, 64, 0
4, 79320, Note_on_c, 0, 50, 49
4, 79800, Note_on_c, 0, 50, 0
4, 80280, Note_on_c, 0, 69, 49
4, 81000, Note_on_c, 0, 69, 0
4, 81000, Note_on_c, 0, 67, 49
4, 81240, Note_on_c, 0, 67, 0
4, 81240, Control_c, 0, 64, 127
4, 81240, Note_on_c, 0, 54, 49
4, 81360, Note_on_c, 0, 54, 0
4, 81360, Note_on_c, 0, 55, 49
4, 81480, Note_on_c, 0, 55, 0
4, 81480, Note_on_c, 0, 57, 49
4, 81600, Note_on_c, 0, 57, 0
4, 81600, Control_c, 0, 64, 0
4, 81600, Note_on_c, 0, 58, 49
4, 81660, Note_on_c, 0, 58, 0
4, 81660, Control_c, 0, 64, 127
4, 81660, Note_on_c, 0, 57, 49
4, 81690, Note_on_c, 0, 57, 0
4, 81690, Note_on_c, 0, 58, 49
4, 81720, Note_on_c, 0, 58, 0
4, 81720, Note_on_c, 0, 57, 49
4, 81840, Note_on_c, 0, 57, 0
4, 81840, Note_on_c, 0, 58, 49
4, 81960, Note_on_c, 0, 58, 0
4, 81960, Note_on_c, 0, 57, 49
4, 82080, Note_on_c, 0, 57, 0
4, 82080, Note_on_c, 0, 55, 49
4, 82200, Note_on_c, 0, 55, 0
4, 82200, Control_c, 0, 64, 0
4, 82200, Note_on_c, 0, 50, 49
4, 82680, Note_on_c, 0, 50, 0
4, 82680, Note_on_c, 0, 65, 49
4, 83160, Note_on_c, 0, 65, 0
4, 83160, Note_on_c, 0, 60, 49
4, 84120, Note_on_c, 0, 60, 0
4, 84120, Control_c, 0, 64, 127
4, 84120, Note_on_c, 0, 53, 49
4, 84240, Note_on_c, 0, 53, 0
4, 84240, Note_on_c, 0, 55, 49
4, 84360, Note_on_c, 0, 55, 0
4, 84360, Note_on_c, 0, 57, 49
4, 84480, Note_on_c, 0, 57, 0
4, 84480, Note_on_c, 0, 60, 49
4, 84600, Note_on_c, 0, 60, 0
4, 84600, Control_c, 0, 64, 0
4, 84600, Note_on_c, 0, 52, 49
4, 84960, Note_on_c, 0, 52, 0
4, 84960, Note_on_c, 0, 53, 49
4, 85080, Note_on_c, 0, 53, 0
4, 85080, Note_on_c, 0, 53, 49
4, 85560, Note_on_c, 0, 53, 0
4, 85560, Note_on_c, 0, 65, 49
4, 86040, Note_on_c, 0, 65, 0
4, 86040, Note_on_c, 0, 60, 49
4, 87000, Note_on_c, 0, 60, 0
4, 87000, Control_c, 0, 64, 127
4, 87000, Note_on_c, 0, 53, 49
4, 87120, Note_on_c, 0, 53, 0
4, 87120, Note_on_c, 0, 55, 49
4, 87240, Note_on_c, 0, 55, 0
4, 87240, Note_on_c, 0, 57, 49
4, 87360, Note_on_c, 0, 57, 0
4, 87360, Note_on_c, 0, 60, 49
4, 87480, Note_on_c, 0, 60, 0
4, 87480, Control_c, 0, 64, 0
4, 87480, Note_on_c, 0, 52, 49
4, 87840, Note_on_c, 0, 52, 0
4, 87840, Note_on_c, 0, 53, 49
4, 87960, Note_on_c, 0, 53, 0
4, 87960, Note_on_c, 0, 53, 49
4, 88440, Note_on_c, 0, 53, 0
4, 88680, Note_on_c, 0, 68, 62
4, 88920, Note_on_c, 0, 68, 0
4, 89160, Note_on_c, 0, 69, 62
4, 89640, Note_on_c, 0, 69, 0
4, 89640, Note_on_c, 0, 69, 62
4, 89880, Note_on_c, 0, 69, 0
4, 89880, Control_c, 0, 64, 127
4, 89880, Note_on_c, 0, 55, 62
4, 90000, Note_on_c, 0, 55, 0
4, 90000, Note_on_c, 0, 62, 62
4, 90120, Note_on_c, 0, 62, 0
4, 90120, Note_on_c, 0, 61, 62
4, 90240, Note_on_c, 0, 61, 0
4, 90240, Control_c, 0, 64, 0
4, 90240, Note_on_c, 0, 62, 62
4, 90360, Note_on_c, 0, 62, 0
4, 90360, Control_c, 0, 64, 127
4, 90360, Note_on_c, 0, 53, 62
4, 90480, Note_on_c, 0, 53, 0
4, 90480, Note_on_c, 0, 62, 62
4, 90600, Note_on_c, 0, 62, 0
4, 90600, Note_on_c, 0, 61, 62
4, 90720, Note_on_c, 0, 61, 0
4, 90720, Note_on_c, 0, 62, 62
4, 90840, Note_on_c, 0, 62, 0
4, 90840, Control_c, 0, 64, 0
4, 90840, Note_on_c, 0, 57, 62
4, 91320, Note_on_c, 0, 57, 0
4, 91560, Note_on_c, 0, 68, 62
4, 91800, Note_on_c, 0, 68, 0
4, 92040, Note_on_c, 0, 69, 62
4, 92520, Note_on_c, 0, 69, 0
4, 92520, Note_on_c, 0, 69, 62
4, 92760, Note_on_c, 0, 69, 0
4, 92760, Control_c, 0, 64, 127
4, 92760, Note_on_c, 0, 55, 62
4, 92880, Note_on_c, 0, 55, 0
4, 92880, Note_on_c, 0, 62, 62
4, 93000, Note_on_c, 0, 62, 0
4, 93000, Note_on_c, 0, 61, 62
4, 93120, Note_on_c, 0, 61, 0
4, 93120, Control_c, 0, 64, 0
4, 93120, Note_on_c, 0, 62, 62
4, 93240, Note_on_c, 0, 62, 0
4, 93240, Control_c, 0, 64, 127
4, 93240, Note_on_c, 0, 53, 62
4, 93360, Note_on_c, 0, 53, 0
4, 93360, Note_on_c, 0, 62, 62
4, 93480, Note_on_c, 0, 62, 0
4, 93480, Note_on_c, 0, 61, 62
4, 93600, Note_on_c, 0, 61, 0
4, 93600, Note_on_c, 0, 62, 62
4, 93720, Note_on_c, 0, 62, 0
4, 93720, Control_c, 0, 64, 0
4, 93720, Note_on_c, 0, 57, 62
4, 94200, Note_on_c, 0, 57, 0
4, 94200, Note_on_c, 0, 55, 62
4, 94320, Note_on_c, 0, 55, 0
4, 94320, Note_on_c, 0, 62, 62
4, 94440, Note_on_c, 0, 62, 0
4, 94440, Note_on_c, 0, 61, 62
4, 94560, Note_on_c, 0, 61, 0
4, 94560, Note_on_c, 0, 62, 62
4, 94680, Note_on_c, 0, 62, 0
4, 94680, Note_on_c, 0, 54, 62
4, 94800, Note_on_c, 0, 54, 0
4, 94800, Note_on_c, 0, 62, 62
4, 94920, Note_on_c, 0, 62, 0
4, 94920, Note_on_c, 0, 61, 62
4, 95040, Note_on_c, 0, 61, 0
4, 95040, Note_on_c, 0, 62, 62
4, 95160, Note_on_c, 0, 62, 0
4, 95160, Note_on_c, 0, 63, 62
4, 95280, Note_on_c, 0, 63, 0
4, 95280, Note_on_c, 0, 69, 62
4, 95400, Note_on_c, 0, 69, 0
4, 95400, Note_on_c, 0, 68, 62
4, 95520, Note_on_c, 0, 68, 0
4, 95520, Note_on_c, 0, 69, 62
4, 95640, Note_on_c, 0, 69, 0
4, 95640, Note_on_c, 0, 62, 49
4, 95760, Note_on_c, 0, 62, 0
4, 95760, Note_on_c, 0, 69, 49
4, 95880, Note_on_c, 0, 69, 0
4, 95880, Note_on_c, 0, 68, 49
4, 96000, Note_on_c, 0, 68, 0
4, 96000, Note_on_c, 0, 69, 49
4, 96120, Note_on_c, 0, 69, 0
4, 96120, Note_on_c, 0, 67, 49
4, 96240, Note_on_c, 0, 67, 0
4, 96240, Note_on_c, 0, 74, 49
4, 96360, Note_on_c, 0, 74, 0
4, 96360, Note_on_c, 0, 73, 49
4, 96480, Note_on_c, 0, 73, 0
4, 96480, Note_on_c, 0, 74, 49
4, 96600, Note_on_c, 0, 74, 0
4, 96600, Note_on_c, 0, 69, 49
4, 96720, Note_on_c, 0, 69, 0
4, 96720, Note_on_c, 0, 74, 49
4, 96840, Note_on_c, 0, 74, 0
4, 96840, Note_on_c, 0, 73, 49
4, 96960, Note_on_c, 0, 73, 0
4, 96960, Note_on_c, 0, 74, 49
4, 97080, Note_on_c, 0, 74, 0
4, 97080, Note_on_c, 0, 67, 49
4, 97200, Note_on_c, 0, 67, 0
4, 97200, Note_on_c, 0, 74, 49
4, 97320, Note_on_c, 0, 74, 0
4, 97320, Note_on_c, 0, 73, 49
4, 97440, Note_on_c, 0, 73, 0
4, 97440, Note_on_c, 0, 74, 49
4, 97560, Note_on_c, 0, 74, 0
4, 97560, Note_on_c, 0, 69, 49
4, 97680, Note_on_c, 0, 69, 0
4, 97680, Note_on_c, 0, 74, 49
4, 97800, Note_on_c, 0, 74, 0
4, 97800, Note_on_c, 0, 73, 49
4, 97920, Note_on_c, 0, 73, 0
4, 97920, Note_on_c, 0, 74, 49
4, 98040, Note_on_c, 0, 74, 0
4, 98040, Note_on_c, 0, 69, 49
4, 98160, Note_on_c, 0, 69, 0
4, 98160, Note_on_c, 0, 74, 49
4, 98280, Note_on_c, 0, 74, 0
4, 98280, Note_on_c, 0, 73, 49
4, 98400, Note_on_c, 0, 73, 0
4, 98400, Note_on_c, 0, 74, 49
4, 98520, Note_on_c, 0, 74, 0
4, 98520, Note_on_c, 0, 69, 49
4, 98640, Note_on_c, 0, 69, 0
4, 98640, Note_on_c, 0, 74, 49
4, 98760, Note_on_c, 0, 74, 0
4, 98760, Note_on_c, 0, 73, 49
4, 98880, Note_on_c, 0, 73, 0
4, 98880, Note_on_c, 0, 74, 49
4, 99000, Note_on_c, 0, 74, 0
4, 101280, Note_on_c, 0, 62, 62
4, 101400, Note_on_c, 0, 62, 0
4, 101400, Note_on_c, 0, 70, 88
4, 101640, Note_on_c, 0, 70, 0
4, 101640, Control_c, 0, 64, 127
4, 101640, Note_on_c, 0, 69, 62
4, 101790, Note_on_c, 0, 51, 62
4, 101820, Note_on_c, 0, 58, 62
4, 101850, Note_on_c, 0, 63, 62
4, 101880, Note_on_c, 0, 69, 0
4, 101880, Note_on_c, 0, 69, 62
4, 102240, Note_on_c, 0, 69, 0
4, 102240, Note_on_c, 0, 63, 0
4, 102240, Note_on_c, 0, 58, 0
4, 102240, Note_on_c, 0, 51, 0
4, 102240, Control_c, 0, 64, 0
4, 102240, Note_on_c, 0, 67, 62
4, 102360, Note_on_c, 0, 67, 0
4, 102360, Note_on_c, 0, 60, 62
4, 102600, Note_on_c, 0, 60, 0
4, 102720, Note_on_c, 0, 51, 62
4, 102840, Note_on_c, 0, 51, 0
4, 102840, Note_on_c, 0, 58, 62
4, 103200, Note_on_c, 0, 58, 0
4, 103200, Control_c, 0, 64, 127
4, 103200, Note_on_c, 0, 57, 62
4, 103240, Note_on_c, 0, 43, 62
4, 103280, Note_on_c, 0, 50, 62
4, 103320, Note_on_c, 0, 57, 0
4, 103320, Note_on_c, 0, 57, 62
4, 103680, Note_on_c, 0, 57, 0
4, 103680, Note_on_c, 0, 50, 0
4, 103680, Note_on_c, 0, 43, 0
4, 103680, Control_c, 0, 64, 0
4, 103680, Note_on_c, 0, 55, 62
4, 103800, Note_on_c, 0, 55, 0
4, 103800, Note_on_c, 0, 50, 62
4, 104040, Note_on_c, 0, 50, 0
4, 104160, Note_on_c, 0, 62, 62
4, 104280, Note_on_c, 0, 62, 0
4, 104280, Note_on_c, 0, 70, 88
4, 104640, Note_on_c, 0, 70, 0
4, 104640, Note_on_c, 0, 69, 62
4, 104670, Note_on_c, 0, 51, 62
4, 104700, Note_on_c, 0, 58, 62
4, 104730, Note_on_c, 0, 63, 62
4, 104760, Note_on_c, 0, 69, 0
4, 104760, Note_on_c, 0, 69, 62
4, 105120, Note_on_c, 0, 69, 0
4, 105120, Note_on_c, 0, 63, 0
4, 105120, Note_on_c, 0, 58, 0
4, 105120, Note_on_c, 0, 51, 0
4, 105120, Control_c, 0, 64, 0
4, 105120, Note_on_c, 0, 67, 62
4, 105240, Note_on_c, 0, 67, 0
4, 105240, Note_on_c, 0, 60, 62
4, 105480, Note_on_c, 0, 60, 0
4, 105600, Note_on_c, 0, 51, 62
4, 105720, Note_on_c, 0, 51, 0
4, 105720, Note_on_c, 0, 58, 62
4, 106080, Note_on_c, 0, 58, 0
4, 106080, Control_c, 0, 64, 127
4, 106080, Note_on_c, 0, 57, 62
4, 106120, Note_on_c, 0, 43, 62
4, 106160, Note_on_c, 0, 50, 62
4, 106200, Note_on_c, 0, 57, 0
4, 106200, Note_on_c, 0, 57, 62
4, 106560, Note_on_c, 0, 57, 0
4, 106560, Note_on_c, 0, 50, 0
4, 106560, Note_on_c, 0, 43, 0
4, 106560, Control_c, 0, 64, 0
4, 106560, Note_on_c, 0, 55, 62
4, 106680, Note_on_c, 0, 55, 0
4, 106680, Note_on_c, 0, 50, 62
4, 106920, Note_on_c, 0, 50, 0
4, 107080, Note_on_c, 0, 60, 62
4, 107120, Note_on_c, 0, 63, 62
4, 107160, Note_on_c, 0, 69, 62
4, 107560, Note_on_c, 0, 55, 62
4, 107600, Note_on_c, 0, 62, 62
4, 107640, Note_on_c, 0, 69, 0
4, 107640, Note_on_c, 0, 60, 0
4, 107640, Note_on_c, 0, 63, 0
4, 107640, Note_on_c, 0, 70, 62
4, 108040, Note_on_c, 0, 60, 62
4, 108080, Note_on_c, 0, 63, 62
4, 108120, Note_on_c, 0, 70, 0
4, 108120, Note_on_c, 0, 62, 0
4, 108120, Note_on_c, 0, 55, 0
4, 108120, Note_on_c, 0, 69, 62
4, 108520, Note_on_c, 0, 55, 62
4, 108560, Note_on_c, 0, 62, 62
4, 108600, Note_on_c, 0, 69, 0
4, 108600, Note_on_c, 0, 63, 0
4, 108600, Note_on_c, 0, 60, 0
4, 108600, Note_on_c, 0, 70, 62
4, 109000, Note_on_c, 0, 60, 62
4, 109040, Note_on_c, 0, 63, 62
4, 109080, Note_on_c, 0, 70, 0
4, 109080, Note_on_c, 0, 62, 0
4, 109080, Note_on_c, 0, 55, 0
4, 109080, Note_on_c, 0, 69, 62
4, 109560, Note_on_c, 0, 69, 0
4, 109560, Note_on_c, 0, 60, 0
4, 109560, Note_on_c, 0, 63, 0
4, 111720, Control_c, 0, 64, 127
4, 111720, Note_on_c, 0, 70, 62
4, 111880, Note_on_c, 0, 55, 62
4, 111920, Note_on_c, 0, 62, 62
4, 111960, Note_on_c, 0, 70, 0
4, 111960, Note_on_c, 0, 69, 62
4, 112320, Note_on_c, 0, 69, 0
4, 112320, Note_on_c, 0, 62, 0
4, 112320, Note_on_c, 0, 55, 0
4, 112320, Control_c, 0, 64, 0
4, 112320, Note_on_c, 0, 67, 62
4, 112440, Note_on_c, 0, 67, 0
4, 112440, Note_on_c, 0, 62, 62
4, 112680, Note_on_c, 0, 62, 0
4, 113160, Control_c, 0, 64, 127
4, 113160, Note_on_c, 0, 58, 62
4, 113320, Note_on_c, 0, 43, 62
4, 113360, Note_on_c, 0, 50, 62
4, 113400, Note_on_c, 0, 58, 0
4, 113400, Note_on_c, 0, 57, 62
4, 113760, Note_on_c, 0, 57, 0
4, 113760, Note_on_c, 0, 50, 0
4, 113760, Note_on_c, 0, 43, 0
4, 113760, Control_c, 0, 64, 0
4, 113760, Note_on_c, 0, 55, 62
4, 113880, Note_on_c, 0, 55, 0
4, 113880, Note_on_c, 0, 50, 62
4, 114120, Note_on_c, 0, 50, 0
4, 114720, Note_on_c, 0, 46, 62
4, 114840, Note_on_c, 0, 46, 0
4, 114840, Note_on_c, 0, 45, 62
4, 115080, Note_on_c, 0, 45, 0
4, 115200, Note_on_c, 0, 43, 62
4, 115320, Note_on_c, 0, 43, 0
4, 115320, Note_on_c, 0, 39, 62
4, 115367, Note_on_c, 0, 39, 0
4, 115560, Note_on_c, 0, 38, 62
4, 115607, Note_on_c, 0, 38, 0
4, 115800, Note_on_c, 0, 37, 62
4, 115847, Note_on_c, 0, 37, 0
4, 116040, Note_on_c, 0, 38, 62
4, 116087, Note_on_c, 0, 38, 0
4, 116280, Note_on_c, 0, 31, 62
4, 116520, Note_on_c, 0, 31, 0
4, 117640, Note_on_c, 0, 55, 49
4, 117680, Note_on_c, 0, 62, 49
4, 117720, Note_on_c, 0, 70, 49
4, 117960, Note_on_c, 0, 70, 0
4, 117960, Note_on_c, 0, 62, 0
4, 117960, Note_on_c, 0, 55, 0
4, 117960, End_track
5, 0, Start_track
5, 0, Title_t, "Grand Piano"
5, 0, Program_c, 0, 0
5, 0, Control_c, 0, 7, 115
5, 0, Control_c, 0, 10, 47
5, 960, Note_on_c, 0, 60, 62
5, 1440, Note_on_c, 0, 60, 0
5, 1440, Note_on_c, 0, 63, 62
5, 1920, Note_on_c, 0, 63, 0
5, 2880, Note_on_c, 0, 43, 62
5, 3360, Note_on_c, 0, 43, 0
5, 3840, Note_on_c, 0, 60, 62
5, 4320, Note_on_c, 0, 60, 0
5, 4320, Note_on_c, 0, 63, 62
5, 4800, Note_on_c, 0, 63, 0
5, 5760, Note_on_c, 0, 43, 62
5, 6240, Note_on_c, 0, 43, 0
5, 6240, Note_on_c, 0, 58, 62
5, 6720, Note_on_c, 0, 58, 0
5, 6720, Note_on_c, 0, 58, 62
5, 7680, Note_on_c, 0, 58, 0
5, 8160, Note_on_c, 0, 46, 62
5, 9120, Note_on_c, 0, 46, 0
5, 9120, Note_on_c, 0, 58, 62
5, 9600, Note_on_c, 0, 58, 0
5, 9600, Note_on_c, 0, 58, 62
5, 10560, Note_on_c, 0, 58, 0
5, 11040, Note_on_c, 0, 46, 62
5, 12000, Note_on_c, 0, 46, 0
5, 12000, Note_on_c, 0, 58, 75
5, 12000, Note_on_c, 0, 62, 75
5, 12480, Note_on_c, 0, 62, 0
5, 12480, Note_on_c, 0, 58, 0
5, 12480, Note_on_c, 0, 57, 75
5, 12480, Note_on_c, 0, 62, 75
5, 13440, Note_on_c, 0, 62, 0
5, 13440, Note_on_c, 0, 57, 0
5, 13440, Note_on_c, 0, 55, 75
5, 13920, Note_on_c, 0, 55, 0
5, 13920, Note_on_c, 0, 53, 75
5, 14400, Note_on_c, 0, 53, 0
5, 14400, Note_on_c, 0, 50, 75
5, 14880, Note_on_c, 0, 50, 0
5, 14880, Note_on_c, 0, 58, 75
5, 14880, Note_on_c, 0, 62, 75
5, 15360, Note_on_c, 0, 62, 0
5, 15360, Note_on_c, 0, 58, 0
5, 15360, Note_on_c, 0, 57, 75
5, 15360, Note_on_c, 0, 62, 75
5, 16320, Note_on_c, 0, 62, 0
5, 16320, Note_on_c, 0, 57, 0
5, 16320, Note_on_c, 0, 55, 75
5, 16800, Note_on_c, 0, 55, 0
5, 16800, Note_on_c, 0, 53, 75
5, 17280, Note_on_c, 0, 53, 0
5, 17280, Note_on_c, 0, 50, 75
5, 17760, Note_on_c, 0, 50, 0
5, 17760, Note_on_c, 0, 55, 75
5, 18240, Note_on_c, 0, 55, 0
5, 18240, Note_on_c, 0, 54, 75
5, 18720, Note_on_c, 0, 54, 0
5, 18720, Note_on_c, 0, 63, 75
5, 19200, Note_on_c, 0, 63, 0
5, 19200, Note_on_c, 0, 62, 62
5, 19680, Note_on_c, 0, 62, 0
5, 19680, Note_on_c, 0, 67, 62
5, 19920, Note_on_c, 0, 67, 0
5, 20160, Note_on_c, 0, 62, 62
5, 20160, Note_on_c, 0, 69, 62
5, 20400, Note_on_c, 0, 69, 0
5, 20400, Note_on_c, 0, 62, 0
5, 20640, Note_on_c, 0, 67, 62
5, 20880, Note_on_c, 0, 67, 0
5, 21120, Note_on_c, 0, 62, 62
5, 21120, Note_on_c, 0, 69, 62
5, 21360, Note_on_c, 0, 69, 0
5, 21360, Note_on_c, 0, 62, 0
5, 21600, Note_on_c, 0, 62, 62
5, 21600, Note_on_c, 0, 69, 62
5, 21840, Note_on_c, 0, 69, 0
5, 21840, Note_on_c, 0, 62, 0
5, 22080, Note_on_c, 0, 62, 49
5, 22080, Note_on_c, 0, 69, 49
5, 22320, Note_on_c, 0, 69, 0
5, 22320, Note_on_c, 0, 62, 0
5, 25440, Note_on_c, 0, 60, 62
5, 25920, Note_on_c, 0, 60, 0
5, 25920, Note_on_c, 0, 63, 62
5, 26400, Note_on_c, 0, 63, 0
5, 27360, Note_on_c, 0, 43, 62
5, 27840, Note_on_c, 0, 43, 0
5, 28320, Note_on_c, 0, 60, 62
5, 28800, Note_on_c, 0, 60, 0
5, 28800, Note_on_c, 0, 63, 62
5, 29280, Note_on_c, 0, 63, 0
5, 30240, Note_on_c, 0, 43, 62
5, 30720, Note_on_c, 0, 43, 0
5, 30720, Note_on_c, 0, 48, 49
5, 31200, Note_on_c, 0, 48, 0
5, 31200, Control_c, 0, 64, 127
5, 31200, Note_on_c, 0, 42, 49
5, 31320, Note_on_c, 0, 42, 0
5, 31320, Note_on_c, 0, 43, 49
5, 31440, Note_on_c, 0, 43, 0
5, 31440, Note_on_c, 0, 42, 49
5, 31560, Note_on_c, 0, 42, 0
5, 31560, Note_on_c, 0, 43, 49
5, 31680, Note_on_c, 0, 43, 0
5, 31680, Control_c, 0, 64, 0
5, 31680, Note_on_c, 0, 48, 49
5, 32160, Note_on_c, 0, 48, 0
5, 32160, Control_c, 0, 64, 127
5, 32160, Note_on_c, 0, 42, 49
5, 32280, Note_on_c, 0, 42, 0
5, 32280, Note_on_c, 0, 43, 49
5, 32400, Note_on_c, 0, 43, 0
5, 32400, Note_on_c, 0, 42, 49
5, 32520, Note_on_c, 0, 42, 0
5, 32520, Control_c, 0, 64, 0
5, 32520, Note_on_c, 0, 43, 49
5, 32640, Note_on_c, 0, 43, 0
5, 36720, Note_on_c, 0, 55, 62
5, 36720, Note_on_c, 0, 59, 62
5, 36960, Note_on_c, 0, 59, 0
5, 36960, Note_on_c, 0, 55, 0
5, 37200, Note_on_c, 0, 43, 62
5, 37440, Note_on_c, 0, 43, 0
5, 41040, Note_on_c, 0, 43, 62
5, 41040, Note_on_c, 0, 50, 62
5, 41280, Note_on_c, 0, 50, 0
5, 41280, Note_on_c, 0, 43, 0
5, 42480, Note_on_c, 0, 55, 62
5, 42480, Note_on_c, 0, 59, 62
5, 42720, Note_on_c, 0, 59, 0
5, 42720, Note_on_c, 0, 55, 0
5, 42960, Note_on_c, 0, 43, 62
5, 43200, Note_on_c, 0, 43, 0
5, 47040, Note_on_c, 0, 47, 75
5, 47280, Note_on_c, 0, 47, 0
5, 47520, Note_on_c, 0, 47, 75
5, 47760, Note_on_c, 0, 47, 0
5, 48000, Note_on_c, 0, 47, 75
5, 48240, Note_on_c, 0, 47, 0
5, 48480, Note_on_c, 0, 47, 75
5, 48720, Note_on_c, 0, 47, 0
5, 48960, Note_on_c, 0, 47, 75
5, 49200, Note_on_c, 0, 47, 0
5, 49440, Note_on_c, 0, 47, 75
5, 49680, Note_on_c, 0, 47, 0
5, 51600, Note_on_c, 0, 47, 75
5, 51840, Note_on_c, 0, 47, 0
5, 57360, Note_on_c, 0, 47, 75
5, 57600, Note_on_c, 0, 47, 0
5, 62400, Note_on_c, 0, 55, 62
5, 62880, Note_on_c, 0, 55, 0
5, 63840, Note_on_c, 0, 55, 62
5, 64320, Note_on_c, 0, 55, 0
5, 68160, Note_on_c, 0, 55, 62
5, 68640, Note_on_c, 0, 55, 0
5, 69600, Note_on_c, 0, 55, 62
5, 70080, Note_on_c, 0, 55, 0
5, 71040, Note_on_c, 0, 58, 88
5, 71520, Note_on_c, 0, 58, 0
5, 72480, Note_on_c, 0, 58, 88
5, 72960, Note_on_c, 0, 58, 0
5, 72960, Note_on_c, 0, 62, 62
5, 72960, Note_on_c, 0, 70, 62
5, 73200, Note_on_c, 0, 70, 0
5, 73200, Note_on_c, 0, 62, 0
5, 73200, Note_on_c, 0, 55, 62
5, 73440, Note_on_c, 0, 55, 0
5, 73440, Note_on_c, 0, 62, 62
5, 73440, Note_on_c, 0, 70, 62
5, 73680, Note_on_c, 0, 70, 0
5, 73680, Note_on_c, 0, 62, 0
5, 73680, Note_on_c, 0, 55, 62
5, 73920, Note_on_c, 0, 55, 0
5, 74400, Note_on_c, 0, 62, 62
5, 74400, Note_on_c, 0, 70, 62
5, 74640, Note_on_c, 0, 70, 0
5, 74640, Note_on_c, 0, 62, 0
5, 74640, Note_on_c, 0, 55, 62
5, 74880, Note_on_c, 0, 55, 0
5, 74880, Note_on_c, 0, 62, 62
5, 74880, Note_on_c, 0, 70, 62
5, 75120, Note_on_c, 0, 70, 0
5, 75120, Note_on_c, 0, 62, 0
5, 75120, Note_on_c, 0, 55, 62
5, 75360, Note_on_c, 0, 55, 0
5, 77400, Note_on_c, 0, 60, 62
5, 77400, Note_on_c, 0, 63, 62
5, 78360, Note_on_c, 0, 63, 0
5, 78360, Note_on_c, 0, 60, 0
5, 79320, Note_on_c, 0, 43, 62
5, 79800, Note_on_c, 0, 43, 0
5, 80280, Note_on_c, 0, 60, 62
5, 80280, Note_on_c, 0, 63, 62
5, 81240, Note_on_c, 0, 63, 0
5, 81240, Note_on_c, 0, 60, 0
5, 82200, Note_on_c, 0, 43, 62
5, 82680, Note_on_c, 0, 43, 0
5, 82680, Note_on_c, 0, 58, 62
5, 83160, Note_on_c, 0, 58, 0
5, 83160, Note_on_c, 0, 58, 62
5, 84120, Note_on_c, 0, 58, 0
5, 84600, Note_on_c, 0, 46, 62
5, 85560, Note_on_c, 0, 46, 0
5, 85560, Note_on_c, 0, 58, 62
5, 86040, Note_on_c, 0, 58, 0
5, 86040, Note_on_c, 0, 58, 62
5, 87000, Note_on_c, 0, 58, 0
5, 87480, Note_on_c, 0, 46, 62
5, 88440, Note_on_c, 0, 46, 0
5, 88440, Note_on_c, 0, 58, 75
5, 88440, Note_on_c, 0, 62, 75
5, 88920, Note_on_c, 0, 62, 0
5, 88920, Note_on_c, 0, 58, 0
5, 88920, Note_on_c, 0, 57, 75
5, 88920, Note_on_c, 0, 62, 75
5, 89880, Note_on_c, 0, 62, 0
5, 89880, Note_on_c, 0, 57, 0
5, 89880, Note_on_c, 0, 55, 75
5, 90360, Note_on_c, 0, 55, 0
5, 90360, Note_on_c, 0, 53, 75
5, 90840, Note_on_c, 0, 53, 0
5, 90840, Note_on_c, 0, 50, 75
5, 91320, Note_on_c, 0, 50, 0
5, 91320, Note_on_c, 0, 58, 75
5, 91320, Note_on_c, 0, 62, 75
5, 91800, Note_on_c, 0, 62, 0
5, 91800, Note_on_c, 0, 58, 0
5, 91800, Note_on_c, 0, 57, 75
5, 91800, Note_on_c, 0, 62, 75
5, 92760, Note_on_c, 0, 62, 0
5, 92760, Note_on_c, 0, 57, 0
5, 92760, Note_on_c, 0, 55, 75
5, 93240, Note_on_c, 0, 55, 0
5, 93240, Note_on_c, 0, 53, 75
5, 93720, Note_on_c, 0, 53, 0
5, 93720, Note_on_c, 0, 50, 75
5, 94200, Note_on_c, 0, 50, 0
5, 94200, Note_on_c, 0, 55, 75
5, 94680, Note_on_c, 0, 55, 0
5, 94680, Note_on_c, 0, 54, 75
5, 95160, Note_on_c, 0, 54, 0
5, 95160, Note_on_c, 0, 63, 75
5, 95640, Note_on_c, 0, 63, 0
5, 95640, Note_on_c, 0, 62, 62
5, 96120, Note_on_c, 0, 62, 0
5, 96120, Note_on_c, 0, 67, 62
5, 96360, Note_on_c, 0, 67, 0
5, 96600, Note_on_c, 0, 62, 62
5, 96600, Note_on_c, 0, 69, 62
5, 96840, Note_on_c, 0, 69, 0
5, 96840, Note_on_c, 0, 62, 0
5, 97080, Note_on_c, 0, 67, 49
5, 97320, Note_on_c, 0, 67, 0
5, 97560, Note_on_c, 0, 62, 62
5, 97560, Note_on_c, 0, 69, 62
5, 97800, Note_on_c, 0, 69, 0
5, 97800, Note_on_c, 0, 62, 0
5, 98040, Note_on_c, 0, 62, 62
5, 98040, Note_on_c, 0, 69, 62
5, 98280, Note_on_c, 0, 69, 0
5, 98280, Note_on_c, 0, 62, 0
5, 98520, Note_on_c, 0, 62, 49
5, 98520, Note_on_c, 0, 69, 49
5, 98760, Note_on_c, 0, 69, 0
5, 98760, Note_on_c, 0, 62, 0
5, 98760, End_track
0, 0, End_of_file
