0, 0, Header, 0, 1, 384
1, 0, Start_track
1, 0, Copyright_t, "Adaptation for Disklavier pianos, by: Robert C. Kuhmann (c) 2012."
1, 0, Time_signature, 4, 2, 24, 8
1, 0, Key_signature, 0, "major"
1, 0, Tempo, 512821
1, 0, Program_c, 0, 0
1, 0, Control_c, 0, 7, 115
1, 0, Note_on_c, 0, 72, 53
1, 19, Note_on_c, 0, 60, 33
1, 298, Control_c, 0, 64, 127
1, 301, Note_on_c, 0, 67, 26
1, 304, Note_on_c, 0, 64, 25
1, 478, Note_on_c, 0, 64, 0
1, 481, Note_on_c, 0, 67, 0
1, 506, Note_on_c, 0, 60, 0
1, 506, Note_on_c, 0, 74, 86
1, 526, Note_on_c, 0, 59, 44
1, 618, Note_on_c, 0, 72, 0
1, 705, Control_c, 0, 64, 0
1, 741, Note_on_c, 0, 67, 42
1, 741, Note_on_c, 0, 62, 40
1, 874, Control_c, 0, 64, 127
1, 886, Note_on_c, 0, 67, 0
1, 935, Note_on_c, 0, 62, 0
1, 935, Note_on_c, 0, 58, 34
1, 935, Note_on_c, 0, 76, 86
1, 941, Note_on_c, 0, 59, 0
1, 1017, Control_c, 0, 64, 0
1, 1022, Note_on_c, 0, 74, 0
1, 1169, Note_on_c, 0, 67, 36
1, 1177, Note_on_c, 0, 62, 34
1, 1209, Control_c, 0, 64, 127
1, 1267, Note_on_c, 0, 76, 0
1, 1331, Note_on_c, 0, 67, 0
1, 1339, Note_on_c, 0, 62, 0
1, 1478, Note_on_c, 0, 76, 62
1, 1520, Note_on_c, 0, 58, 0
1, 1520, Note_on_c, 0, 57, 29
1, 1557, Control_c, 0, 64, 0
1, 1821, Control_c, 0, 64, 127
1, 1916, Note_on_c, 0, 67, 21
1, 1920, Note_on_c, 0, 61, 30
1, 2103, Note_on_c, 0, 69, 35
1, 2123, Note_on_c, 0, 76, 0
1, 2226, Note_on_c, 0, 69, 0
1, 2245, Note_on_c, 0, 67, 0
1, 2264, Note_on_c, 0, 61, 0
1, 2294, Note_on_c, 0, 69, 46
1, 2548, Note_on_c, 0, 61, 33
1, 2548, Note_on_c, 0, 67, 34
1, 2635, Control_c, 0, 64, 0
1, 2835, Note_on_c, 0, 67, 0
1, 2835, Note_on_c, 0, 61, 0
1, 2839, Control_c, 0, 64, 127
1, 3000, Note_on_c, 0, 69, 0
1, 3039, Note_on_c, 0, 61, 45
1, 3039, Note_on_c, 0, 67, 34
1, 3098, Note_on_c, 0, 61, 0
1, 3155, Note_on_c, 0, 67, 0
1, 3298, Note_on_c, 0, 74, 88
1, 3298, Note_on_c, 0, 62, 56
1, 3403, Control_c, 0, 64, 0
1, 3417, Note_on_c, 0, 57, 0
1, 3565, Note_on_c, 0, 69, 37
1, 3576, Note_on_c, 0, 65, 41
1, 3618, Control_c, 0, 64, 127
1, 3779, Note_on_c, 0, 69, 0
1, 3783, Note_on_c, 0, 76, 89
1, 3786, Note_on_c, 0, 65, 0
1, 3877, Note_on_c, 0, 74, 0
1, 4005, Note_on_c, 0, 69, 54
1, 4009, Note_on_c, 0, 65, 57
1, 4176, Note_on_c, 0, 69, 0
1, 4240, Note_on_c, 0, 77, 95
1, 4245, Note_on_c, 0, 62, 0
1, 4245, Note_on_c, 0, 60, 64
1, 4261, Note_on_c, 0, 65, 0
1, 4373, Note_on_c, 0, 76, 0
1, 4373, Control_c, 0, 64, 0
1, 4474, Note_on_c, 0, 68, 48
1, 4502, Note_on_c, 0, 65, 45
1, 4509, Note_on_c, 0, 62, 50
1, 4565, Control_c, 0, 64, 127
1, 4621, Note_on_c, 0, 77, 0
1, 4646, Note_on_c, 0, 68, 0
1, 4680, Note_on_c, 0, 65, 0
1, 4732, Note_on_c, 0, 60, 0
1, 4758, Note_on_c, 0, 59, 64
1, 4772, Note_on_c, 0, 77, 85
1, 4786, Note_on_c, 0, 62, 0
1, 4936, Control_c, 0, 64, 0
1, 5072, Note_on_c, 0, 67, 46
1, 5072, Note_on_c, 0, 65, 39
1, 5083, Note_on_c, 0, 62, 30
1, 5172, Note_on_c, 0, 71, 86
1, 5176, Control_c, 0, 64, 127
1, 5239, Note_on_c, 0, 77, 0
1, 5243, Note_on_c, 0, 67, 0
1, 5287, Note_on_c, 0, 65, 0
1, 5298, Note_on_c, 0, 71, 0
1, 5337, Note_on_c, 0, 62, 0
1, 5337, Note_on_c, 0, 71, 94
1, 5364, Note_on_c, 0, 57, 45
1, 5368, Note_on_c, 0, 59, 0
1, 5476, Control_c, 0, 64, 0
1, 5566, Note_on_c, 0, 67, 41
1, 5566, Note_on_c, 0, 62, 54
1, 5580, Note_on_c, 0, 65, 35
1, 5643, Control_c, 0, 64, 127
1, 5671, Note_on_c, 0, 62, 0
1, 5693, Note_on_c, 0, 65, 0
1, 5702, Note_on_c, 0, 67, 0
1, 5725, Note_on_c, 0, 57, 0
1, 5819, Note_on_c, 0, 55, 66
1, 5967, Control_c, 0, 64, 0
1, 6042, Note_on_c, 0, 67, 49
1, 6045, Note_on_c, 0, 65, 43
1, 6062, Note_on_c, 0, 62, 50
1, 6106, Note_on_c, 0, 71, 0
1, 6136, Control_c, 0, 64, 127
1, 6231, Note_on_c, 0, 62, 0
1, 6248, Note_on_c, 0, 67, 0
1, 6254, Note_on_c, 0, 65, 0
1, 6325, Note_on_c, 0, 60, 54
1, 6368, Note_on_c, 0, 69, 90
1, 6474, Note_on_c, 0, 55, 0
1, 6602, Control_c, 0, 64, 0
1, 6629, Note_on_c, 0, 65, 38
1, 6638, Note_on_c, 0, 62, 46
1, 6782, Control_c, 0, 64, 127
1, 6936, Note_on_c, 0, 79, 100
1, 6975, Note_on_c, 0, 65, 0
1, 6984, Note_on_c, 0, 62, 0
1, 7172, Note_on_c, 0, 65, 56
1, 7189, Note_on_c, 0, 62, 55
1, 7373, Note_on_c, 0, 62, 0
1, 7381, Note_on_c, 0, 65, 0
1, 7384, Note_on_c, 0, 77, 101
1, 7485, Note_on_c, 0, 79, 0
1, 7495, Note_on_c, 0, 69, 0
1, 7591, Note_on_c, 0, 65, 49
1, 7619, Note_on_c, 0, 62, 36
1, 7783, Note_on_c, 0, 62, 0
1, 7836, Note_on_c, 0, 76, 84
1, 7841, Note_on_c, 0, 65, 0
1, 7852, Note_on_c, 0, 59, 42
1, 7863, Note_on_c, 0, 60, 0
1, 7908, Control_c, 0, 64, 0
1, 7970, Note_on_c, 0, 77, 0
1, 8153, Note_on_c, 0, 67, 38
1, 8165, Note_on_c, 0, 62, 39
1, 8197, Control_c, 0, 64, 127
1, 8289, Note_on_c, 0, 74, 78
1, 8374, Note_on_c, 0, 76, 0
1, 8399, Note_on_c, 0, 74, 0
1, 8407, Note_on_c, 0, 62, 0
1, 8418, Note_on_c, 0, 67, 0
1, 8459, Note_on_c, 0, 74, 69
1, 8657, Note_on_c, 0, 67, 38
1, 8668, Note_on_c, 0, 62, 41
1, 8675, Control_c, 0, 64, 0
1, 8880, Control_c, 0, 64, 127
1, 8930, Note_on_c, 0, 62, 0
1, 8930, Note_on_c, 0, 67, 0
1, 9118, Note_on_c, 0, 67, 30
1, 9136, Note_on_c, 0, 62, 24
1, 9221, Note_on_c, 0, 62, 0
1, 9257, Note_on_c, 0, 67, 0
1, 9281, Note_on_c, 0, 74, 0
1, 9399, Note_on_c, 0, 59, 0
1, 9421, Note_on_c, 0, 66, 50
1, 9454, Note_on_c, 0, 57, 21
1, 9502, Control_c, 0, 64, 0
1, 9693, Note_on_c, 0, 60, 34
1, 9693, Note_on_c, 0, 62, 32
1, 9742, Control_c, 0, 64, 127
1, 9867, Note_on_c, 0, 60, 0
1, 9883, Note_on_c, 0, 62, 0
1, 9920, Note_on_c, 0, 76, 57
1, 10134, Note_on_c, 0, 62, 28
1, 10150, Note_on_c, 0, 60, 28
1, 10220, Note_on_c, 0, 60, 0
1, 10288, Note_on_c, 0, 62, 0
1, 10396, Note_on_c, 0, 74, 63
1, 10454, Note_on_c, 0, 76, 0
1, 10586, Note_on_c, 0, 74, 0
1, 10597, Note_on_c, 0, 66, 0
1, 10630, Note_on_c, 0, 62, 25
1, 10658, Note_on_c, 0, 60, 25
1, 10702, Note_on_c, 0, 57, 0
1, 10710, Note_on_c, 0, 60, 0
1, 10716, Note_on_c, 0, 62, 0
1, 10886, Note_on_c, 0, 72, 48
1, 10900, Note_on_c, 0, 65, 34
1, 10900, Note_on_c, 0, 55, 32
1, 10930, Control_c, 0, 64, 0
1, 11210, Note_on_c, 0, 59, 24
1, 11221, Note_on_c, 0, 62, 34
1, 11240, Control_c, 0, 64, 127
1, 11376, Note_on_c, 0, 71, 59
1, 11402, Note_on_c, 0, 72, 0
1, 11429, Note_on_c, 0, 71, 0
1, 11467, Note_on_c, 0, 62, 0
1, 11476, Note_on_c, 0, 59, 0
1, 11544, Note_on_c, 0, 71, 52
1, 11741, Note_on_c, 0, 62, 42
1, 11766, Note_on_c, 0, 59, 32
1, 11785, Note_on_c, 0, 55, 0
1, 11833, Note_on_c, 0, 59, 0
1, 11850, Note_on_c, 0, 62, 0
1, 12042, Note_on_c, 0, 69, 34
1, 12065, Note_on_c, 0, 60, 21
1, 12065, Note_on_c, 0, 62, 28
1, 12084, Note_on_c, 0, 55, 26
1, 12092, Note_on_c, 0, 65, 0
1, 12109, Note_on_c, 0, 71, 0
1, 12128, Control_c, 0, 64, 0
1, 12329, Note_on_c, 0, 60, 0
1, 12340, Note_on_c, 0, 62, 0
1, 12349, Note_on_c, 0, 67, 55
1, 12362, Note_on_c, 0, 59, 29
1, 12380, Note_on_c, 0, 69, 0
1, 12391, Control_c, 0, 64, 127
1, 12449, Note_on_c, 0, 59, 0
1, 12524, Note_on_c, 0, 67, 0
1, 12655, Note_on_c, 0, 72, 66
1, 12663, Note_on_c, 0, 60, 46
1, 12711, Note_on_c, 0, 55, 0
1, 12847, Control_c, 0, 64, 0
1, 12905, Note_on_c, 0, 64, 47
1, 12905, Note_on_c, 0, 67, 35
1, 13001, Control_c, 0, 64, 127
1, 13070, Note_on_c, 0, 64, 0
1, 13089, Note_on_c, 0, 67, 0
1, 13112, Note_on_c, 0, 74, 89
1, 13135, Note_on_c, 0, 59, 63
1, 13182, Note_on_c, 0, 60, 0
1, 13237, Note_on_c, 0, 72, 0
1, 13349, Note_on_c, 0, 67, 53
1, 13359, Note_on_c, 0, 62, 59
1, 13374, Control_c, 0, 64, 0
1, 13501, Note_on_c, 0, 67, 0
1, 13518, Control_c, 0, 64, 127
1, 13563, Note_on_c, 0, 76, 86
1, 13574, Note_on_c, 0, 58, 55
1, 13591, Note_on_c, 0, 59, 0
1, 13643, Note_on_c, 0, 62, 0
1, 13677, Note_on_c, 0, 74, 0
1, 13733, Control_c, 0, 64, 0
1, 13800, Note_on_c, 0, 62, 50
1, 13808, Note_on_c, 0, 67, 46
1, 13877, Control_c, 0, 64, 127
1, 13925, Note_on_c, 0, 76, 0
1, 13976, Note_on_c, 0, 67, 0
1, 14084, Note_on_c, 0, 62, 0
1, 14084, Note_on_c, 0, 76, 70
1, 14096, Note_on_c, 0, 57, 44
1, 14156, Note_on_c, 0, 58, 0
1, 14224, Control_c, 0, 64, 0
1, 14463, Note_on_c, 0, 67, 36
1, 14469, Note_on_c, 0, 61, 37
1, 14571, Note_on_c, 0, 69, 36
1, 14600, Note_on_c, 0, 76, 0
1, 14608, Control_c, 0, 64, 127
1, 14699, Note_on_c, 0, 69, 0
1, 14731, Note_on_c, 0, 67, 0
1, 14750, Note_on_c, 0, 69, 54
1, 14773, Note_on_c, 0, 61, 0
1, 14983, Note_on_c, 0, 61, 43
1, 14990, Note_on_c, 0, 67, 37
1, 15257, Note_on_c, 0, 67, 0
1, 15257, Note_on_c, 0, 61, 0
1, 15502, Note_on_c, 0, 69, 0
1, 15505, Note_on_c, 0, 67, 29
1, 15515, Note_on_c, 0, 61, 19
1, 15594, Note_on_c, 0, 61, 0
1, 15664, Note_on_c, 0, 67, 0
1, 15769, Note_on_c, 0, 74, 88
1, 15781, Note_on_c, 0, 62, 49
1, 15931, Note_on_c, 0, 57, 0
1, 15951, Control_c, 0, 64, 0
1, 16026, Note_on_c, 0, 69, 42
1, 16039, Note_on_c, 0, 65, 39
1, 16142, Control_c, 0, 64, 127
1, 16245, Note_on_c, 0, 76, 96
1, 16266, Note_on_c, 0, 69, 0
1, 16287, Note_on_c, 0, 65, 0
1, 16329, Note_on_c, 0, 74, 0
1, 16474, Note_on_c, 0, 69, 56
1, 16483, Note_on_c, 0, 65, 51
1, 16513, Control_c, 0, 64, 0
1, 16658, Control_c, 0, 64, 127
1, 16705, Note_on_c, 0, 69, 0
1, 16705, Note_on_c, 0, 77, 97
1, 16723, Note_on_c, 0, 60, 62
1, 16741, Note_on_c, 0, 62, 0
1, 16761, Note_on_c, 0, 65, 0
1, 16848, Note_on_c, 0, 76, 0
1, 16898, Control_c, 0, 64, 0
1, 16940, Note_on_c, 0, 68, 50
1, 16959, Note_on_c, 0, 62, 57
1, 16967, Note_on_c, 0, 65, 44
1, 17029, Control_c, 0, 64, 127
1, 17076, Note_on_c, 0, 77, 0
1, 17110, Note_on_c, 0, 68, 0
1, 17135, Note_on_c, 0, 60, 0
1, 17194, Note_on_c, 0, 65, 0
1, 17194, Note_on_c, 0, 77, 88
1, 17216, Note_on_c, 0, 59, 60
1, 17259, Note_on_c, 0, 62, 0
1, 17377, Control_c, 0, 64, 0
1, 17497, Note_on_c, 0, 67, 58
1, 17500, Note_on_c, 0, 65, 43
1, 17521, Note_on_c, 0, 62, 21
1, 17557, Control_c, 0, 64, 127
1, 17592, Note_on_c, 0, 71, 85
1, 17619, Note_on_c, 0, 77, 0
1, 17659, Note_on_c, 0, 67, 0
1, 17681, Note_on_c, 0, 71, 0
1, 17725, Note_on_c, 0, 71, 88
1, 17730, Note_on_c, 0, 65, 0
1, 17734, Note_on_c, 0, 57, 62
1, 17758, Note_on_c, 0, 62, 0
1, 17794, Note_on_c, 0, 59, 0
1, 17856, Control_c, 0, 64, 0
1, 17937, Note_on_c, 0, 67, 55
1, 17947, Note_on_c, 0, 62, 64
1, 17951, Note_on_c, 0, 65, 49
1, 18012, Control_c, 0, 64, 127
1, 18064, Note_on_c, 0, 65, 0
1, 18070, Note_on_c, 0, 62, 0
1, 18073, Note_on_c, 0, 67, 0
1, 18090, Note_on_c, 0, 57, 0
1, 18165, Note_on_c, 0, 55, 85
1, 18276, Control_c, 0, 64, 0
1, 18368, Note_on_c, 0, 67, 62
1, 18368, Note_on_c, 0, 62, 73
1, 18368, Note_on_c, 0, 65, 48
1, 18407, Control_c, 0, 64, 127
1, 18424, Note_on_c, 0, 71, 0
1, 18458, Note_on_c, 0, 62, 0
1, 18474, Note_on_c, 0, 55, 0
1, 18519, Note_on_c, 0, 65, 0
1, 18524, Note_on_c, 0, 67, 0
1, 18586, Note_on_c, 0, 60, 88
1, 18611, Note_on_c, 0, 77, 103
1, 18742, Control_c, 0, 64, 0
1, 18829, Note_on_c, 0, 69, 66
1, 18839, Note_on_c, 0, 62, 74
1, 18839, Note_on_c, 0, 65, 72
1, 18946, Control_c, 0, 64, 127
1, 19054, Note_on_c, 0, 79, 112
1, 19102, Note_on_c, 0, 62, 0
1, 19106, Note_on_c, 0, 65, 0
1, 19123, Note_on_c, 0, 69, 0
1, 19123, Note_on_c, 0, 77, 0
1, 19263, Note_on_c, 0, 69, 64
1, 19277, Note_on_c, 0, 65, 58
1, 19277, Note_on_c, 0, 62, 66
1, 19521, Note_on_c, 0, 81, 103
1, 19560, Note_on_c, 0, 62, 0
1, 19560, Note_on_c, 0, 69, 0
1, 19580, Note_on_c, 0, 65, 0
1, 19603, Note_on_c, 0, 79, 0
1, 19731, Note_on_c, 0, 69, 61
1, 19739, Note_on_c, 0, 65, 51
1, 19739, Note_on_c, 0, 62, 65
1, 19856, Note_on_c, 0, 81, 0
1, 20001, Note_on_c, 0, 81, 101
1, 20007, Note_on_c, 0, 60, 0
1, 20017, Note_on_c, 0, 59, 68
1, 20062, Note_on_c, 0, 65, 0
1, 20062, Note_on_c, 0, 69, 0
1, 20096, Note_on_c, 0, 62, 0
1, 20096, Control_c, 0, 64, 0
1, 20287, Note_on_c, 0, 67, 55
1, 20297, Note_on_c, 0, 62, 53
1, 20308, Note_on_c, 0, 65, 47
1, 20372, Control_c, 0, 64, 127
1, 20567, Note_on_c, 0, 62, 0
1, 20572, Note_on_c, 0, 79, 99
1, 20584, Note_on_c, 0, 65, 0
1, 20587, Note_on_c, 0, 67, 0
1, 20726, Note_on_c, 0, 81, 0
1, 20829, Note_on_c, 0, 74, 96
1, 20839, Note_on_c, 0, 67, 37
1, 20864, Note_on_c, 0, 65, 36
1, 20864, Note_on_c, 0, 62, 36
1, 20879, Note_on_c, 0, 79, 0
1, 21006, Note_on_c, 0, 65, 0
1, 21015, Note_on_c, 0, 67, 0
1, 21084, Note_on_c, 0, 76, 79
1, 21096, Note_on_c, 0, 62, 0
1, 21104, Control_c, 0, 64, 0
1, 21109, Note_on_c, 0, 60, 51
1, 21127, Note_on_c, 0, 59, 0
1, 21162, Note_on_c, 0, 74, 0
1, 21319, Note_on_c, 0, 64, 49
1, 21330, Note_on_c, 0, 67, 36
1, 21344, Control_c, 0, 64, 127
1, 21393, Note_on_c, 0, 67, 0
1, 21399, Note_on_c, 0, 64, 0
1, 21439, Note_on_c, 0, 60, 0
1, 21489, Note_on_c, 0, 76, 0
1, 21595, Note_on_c, 0, 77, 64
1, 21620, Note_on_c, 0, 53, 62
1, 21667, Control_c, 0, 64, 0
1, 21845, Note_on_c, 0, 57, 35
1, 21854, Note_on_c, 0, 62, 42
1, 21979, Control_c, 0, 64, 127
1, 22070, Note_on_c, 0, 57, 0
1, 22079, Note_on_c, 0, 76, 60
1, 22087, Note_on_c, 0, 62, 0
1, 22182, Note_on_c, 0, 77, 0
1, 22313, Note_on_c, 0, 53, 0
1, 22319, Note_on_c, 0, 62, 30
1, 22319, Note_on_c, 0, 74, 62
1, 22332, Note_on_c, 0, 57, 32
1, 22364, Note_on_c, 0, 76, 0
1, 22494, Note_on_c, 0, 57, 0
1, 22505, Note_on_c, 0, 62, 0
1, 22581, Note_on_c, 0, 74, 0
1, 22588, Note_on_c, 0, 55, 36
1, 22588, Note_on_c, 0, 69, 41
1, 22625, Control_c, 0, 64, 0
1, 22853, Control_c, 0, 64, 127
1, 22865, Note_on_c, 0, 62, 40
1, 22871, Note_on_c, 0, 65, 26
1, 22876, Note_on_c, 0, 71, 53
1, 22909, Note_on_c, 0, 69, 0
1, 22973, Note_on_c, 0, 62, 0
1, 22993, Note_on_c, 0, 65, 0
1, 23024, Note_on_c, 0, 55, 0
1, 23261, Control_c, 0, 64, 0
1, 23261, Note_on_c, 0, 72, 43
1, 23272, Note_on_c, 0, 48, 26
1, 23302, Note_on_c, 0, 71, 0
1, 23597, Note_on_c, 0, 64, 34
1, 23605, Note_on_c, 0, 55, 22
1, 23609, Control_c, 0, 64, 127
1, 23609, Note_on_c, 0, 60, 25
1, 23645, Note_on_c, 0, 48, 0
1, 23770, Note_on_c, 0, 55, 0
1, 23778, Note_on_c, 0, 60, 0
1, 23814, Note_on_c, 0, 64, 0
1, 24143, Note_on_c, 0, 64, 34
1, 24151, Note_on_c, 0, 55, 22
1, 24155, Note_on_c, 0, 60, 25
1, 24316, Note_on_c, 0, 55, 0
1, 24324, Note_on_c, 0, 60, 0
1, 24360, Note_on_c, 0, 64, 0
1, 24630, Note_on_c, 0, 64, 24
1, 24647, Note_on_c, 0, 60, 9
1, 24659, Note_on_c, 0, 55, 16
1, 24804, Note_on_c, 0, 64, 0
1, 24815, Note_on_c, 0, 55, 0
1, 24828, Note_on_c, 0, 60, 0
1, 24907, Note_on_c, 0, 72, 0
1, 25163, Note_on_c, 0, 62, 72
1, 25383, Control_c, 0, 64, 0
1, 25403, Note_on_c, 0, 67, 40
1, 25408, Note_on_c, 0, 71, 39
1, 25416, Note_on_c, 0, 74, 41
1, 25562, Control_c, 0, 64, 127
1, 25603, Note_on_c, 0, 74, 0
1, 25612, Note_on_c, 0, 67, 0
1, 25612, Note_on_c, 0, 59, 78
1, 25626, Note_on_c, 0, 71, 0
1, 25732, Note_on_c, 0, 62, 0
1, 25826, Control_c, 0, 64, 0
1, 25826, Note_on_c, 0, 67, 62
1, 25831, Note_on_c, 0, 71, 64
1, 25831, Note_on_c, 0, 74, 59
1, 25962, Note_on_c, 0, 67, 0
1, 25970, Note_on_c, 0, 74, 0
1, 25974, Note_on_c, 0, 71, 0
1, 25982, Control_c, 0, 64, 127
1, 26030, Note_on_c, 0, 55, 90
1, 26129, Note_on_c, 0, 59, 0
1, 26197, Control_c, 0, 64, 0
1, 26235, Note_on_c, 0, 67, 58
1, 26241, Note_on_c, 0, 74, 56
1, 26241, Note_on_c, 0, 71, 60
1, 26317, Control_c, 0, 64, 127
1, 26353, Note_on_c, 0, 55, 0
1, 26378, Note_on_c, 0, 74, 0
1, 26386, Note_on_c, 0, 67, 0
1, 26410, Note_on_c, 0, 71, 0
1, 26444, Note_on_c, 0, 55, 78
1, 26717, Note_on_c, 0, 69, 46
1, 26723, Note_on_c, 0, 74, 55
1, 26723, Note_on_c, 0, 72, 39
1, 26792, Note_on_c, 0, 74, 0
1, 26803, Note_on_c, 0, 72, 0
1, 26823, Note_on_c, 0, 69, 0
1, 26839, Note_on_c, 0, 54, 84
1, 26853, Note_on_c, 0, 55, 0
1, 26910, Note_on_c, 0, 54, 0
1, 26957, Note_on_c, 0, 54, 89
1, 27083, Control_c, 0, 64, 0
1, 27171, Note_on_c, 0, 72, 55
1, 27177, Note_on_c, 0, 69, 46
1, 27177, Note_on_c, 0, 74, 56
1, 27411, Note_on_c, 0, 74, 0
1, 27427, Note_on_c, 0, 69, 0
1, 27436, Note_on_c, 0, 72, 0
1, 27444, Control_c, 0, 64, 127
1, 27594, Note_on_c, 0, 72, 55
1, 27598, Note_on_c, 0, 74, 60
1, 27598, Note_on_c, 0, 69, 43
1, 27664, Note_on_c, 0, 69, 0
1, 27697, Note_on_c, 0, 74, 0
1, 27748, Note_on_c, 0, 72, 0
1, 27787, Note_on_c, 0, 57, 94
1, 27803, Note_on_c, 0, 54, 0
1, 27948, Control_c, 0, 64, 0
1, 28019, Note_on_c, 0, 74, 68
1, 28023, Note_on_c, 0, 69, 50
1, 28023, Note_on_c, 0, 66, 39
1, 28115, Control_c, 0, 64, 127
1, 28183, Note_on_c, 0, 74, 0
1, 28218, Note_on_c, 0, 60, 92
1, 28224, Note_on_c, 0, 66, 0
1, 28224, Note_on_c, 0, 69, 0
1, 28296, Note_on_c, 0, 57, 0
1, 28366, Control_c, 0, 64, 0
1, 28416, Note_on_c, 0, 66, 51
1, 28423, Note_on_c, 0, 74, 68
1, 28433, Note_on_c, 0, 69, 36
1, 28486, Control_c, 0, 64, 127
1, 28512, Note_on_c, 0, 66, 0
1, 28544, Note_on_c, 0, 69, 0
1, 28565, Note_on_c, 0, 74, 0
1, 28662, Note_on_c, 0, 66, 86
1, 28743, Note_on_c, 0, 60, 0
1, 28846, Control_c, 0, 64, 0
1, 28910, Note_on_c, 0, 74, 65
1, 28915, Note_on_c, 0, 69, 54
1, 28990, Control_c, 0, 64, 127
1, 29051, Note_on_c, 0, 74, 0
1, 29066, Note_on_c, 0, 69, 0
1, 29097, Note_on_c, 0, 64, 93
1, 29141, Note_on_c, 0, 66, 0
1, 29364, Note_on_c, 0, 67, 46
1, 29369, Note_on_c, 0, 74, 49
1, 29372, Note_on_c, 0, 71, 49
1, 29505, Note_on_c, 0, 62, 80
1, 29548, Note_on_c, 0, 64, 0
1, 29551, Note_on_c, 0, 71, 0
1, 29556, Note_on_c, 0, 74, 0
1, 29570, Note_on_c, 0, 67, 0
1, 29578, Note_on_c, 0, 62, 0
1, 29637, Note_on_c, 0, 62, 66
1, 29793, Control_c, 0, 64, 0
1, 29885, Note_on_c, 0, 67, 42
1, 29885, Note_on_c, 0, 71, 47
1, 29888, Note_on_c, 0, 74, 47
1, 30044, Control_c, 0, 64, 127
1, 30079, Note_on_c, 0, 74, 0
1, 30079, Note_on_c, 0, 67, 0
1, 30118, Note_on_c, 0, 71, 0
1, 30250, Note_on_c, 0, 62, 0
1, 30302, Note_on_c, 0, 67, 50
1, 30306, Note_on_c, 0, 74, 52
1, 30306, Note_on_c, 0, 71, 55
1, 30352, Note_on_c, 0, 67, 0
1, 30364, Note_on_c, 0, 71, 0
1, 30409, Note_on_c, 0, 74, 0
1, 30545, Note_on_c, 0, 67, 100
1, 30740, Control_c, 0, 64, 0
1, 30770, Note_on_c, 0, 74, 80
1, 30770, Note_on_c, 0, 71, 79
1, 30895, Control_c, 0, 64, 127
1, 30930, Note_on_c, 0, 71, 0
1, 30938, Note_on_c, 0, 74, 0
1, 30979, Note_on_c, 0, 66, 91
1, 31051, Note_on_c, 0, 67, 0
1, 31158, Control_c, 0, 64, 0
1, 31175, Note_on_c, 0, 69, 73
1, 31178, Note_on_c, 0, 74, 84
1, 31182, Note_on_c, 0, 71, 78
1, 31302, Control_c, 0, 64, 127
1, 31330, Note_on_c, 0, 71, 0
1, 31338, Note_on_c, 0, 74, 0
1, 31345, Note_on_c, 0, 69, 0
1, 31380, Note_on_c, 0, 65, 102
1, 31462, Note_on_c, 0, 66, 0
1, 31531, Control_c, 0, 64, 0
1, 31565, Note_on_c, 0, 74, 87
1, 31565, Note_on_c, 0, 68, 66
1, 31576, Note_on_c, 0, 71, 62
1, 31623, Note_on_c, 0, 71, 0
1, 31650, Control_c, 0, 64, 127
1, 31653, Note_on_c, 0, 68, 0
1, 31675, Note_on_c, 0, 74, 0
1, 31796, Note_on_c, 0, 79, 103
1, 31818, Note_on_c, 0, 64, 86
1, 31860, Note_on_c, 0, 65, 0
1, 31890, Control_c, 0, 64, 0
1, 32054, Note_on_c, 0, 67, 55
1, 32054, Note_on_c, 0, 72, 60
1, 32094, Control_c, 0, 64, 127
1, 32138, Note_on_c, 0, 79, 0
1, 32188, Note_on_c, 0, 72, 0
1, 32203, Note_on_c, 0, 67, 0
1, 32244, Note_on_c, 0, 78, 98
1, 32244, Note_on_c, 0, 62, 79
1, 32274, Note_on_c, 0, 64, 0
1, 32370, Control_c, 0, 64, 0
1, 32451, Note_on_c, 0, 67, 60
1, 32458, Note_on_c, 0, 72, 66
1, 32512, Control_c, 0, 64, 127
1, 32559, Note_on_c, 0, 67, 0
1, 32573, Note_on_c, 0, 72, 0
1, 32640, Note_on_c, 0, 76, 90
1, 32662, Note_on_c, 0, 78, 0
1, 32662, Note_on_c, 0, 60, 71
1, 32668, Note_on_c, 0, 62, 0
1, 32729, Control_c, 0, 64, 0
1, 32840, Note_on_c, 0, 67, 45
1, 32843, Note_on_c, 0, 72, 58
1, 32873, Control_c, 0, 64, 127
1, 32896, Note_on_c, 0, 76, 0
1, 32944, Note_on_c, 0, 72, 0
1, 32986, Note_on_c, 0, 67, 0
1, 33046, Note_on_c, 0, 74, 79
1, 33058, Note_on_c, 0, 59, 50
1, 33079, Note_on_c, 0, 60, 0
1, 33124, Control_c, 0, 64, 0
1, 33259, Note_on_c, 0, 58, 41
1, 33274, Note_on_c, 0, 59, 0
1, 33278, Note_on_c, 0, 67, 47
1, 33305, Control_c, 0, 64, 127
1, 33370, Note_on_c, 0, 67, 0
1, 33493, Note_on_c, 0, 73, 60
1, 33520, Note_on_c, 0, 57, 45
1, 33533, Note_on_c, 0, 58, 0
1, 33556, Control_c, 0, 64, 0
1, 33564, Note_on_c, 0, 74, 0
1, 33723, Note_on_c, 0, 67, 41
1, 33742, Note_on_c, 0, 69, 18
1, 33771, Control_c, 0, 64, 127
1, 33827, Note_on_c, 0, 69, 0
1, 33849, Note_on_c, 0, 73, 0
1, 33935, Note_on_c, 0, 72, 53
1, 33952, Note_on_c, 0, 57, 0
1, 33958, Note_on_c, 0, 62, 41
1, 33979, Note_on_c, 0, 67, 0
1, 34083, Control_c, 0, 64, 0
1, 34150, Note_on_c, 0, 69, 26
1, 34167, Note_on_c, 0, 66, 20
1, 34206, Note_on_c, 0, 72, 0
1, 34239, Control_c, 0, 64, 127
1, 34263, Note_on_c, 0, 69, 0
1, 34347, Note_on_c, 0, 62, 0
1, 34370, Note_on_c, 0, 71, 56
1, 34383, Note_on_c, 0, 55, 43
1, 34398, Note_on_c, 0, 66, 0
1, 34606, Note_on_c, 0, 67, 29
1, 34609, Note_on_c, 0, 62, 38
1, 34670, Control_c, 0, 64, 0
1, 34813, Control_c, 0, 64, 127
1, 34846, Note_on_c, 0, 62, 0
1, 34857, Note_on_c, 0, 67, 0
1, 34891, Note_on_c, 0, 55, 0
1, 34896, Note_on_c, 0, 52, 47
1, 35125, Control_c, 0, 64, 0
1, 35147, Note_on_c, 0, 67, 41
1, 35155, Note_on_c, 0, 61, 27
1, 35281, Control_c, 0, 64, 127
1, 35322, Note_on_c, 0, 69, 30
1, 35387, Note_on_c, 0, 67, 0
1, 35409, Note_on_c, 0, 69, 0
1, 35567, Note_on_c, 0, 69, 36
1, 35567, Note_on_c, 0, 50, 24
1, 35606, Note_on_c, 0, 52, 0
1, 35662, Note_on_c, 0, 71, 0
1, 35665, Control_c, 0, 64, 0
1, 35690, Note_on_c, 0, 61, 0
1, 35888, Note_on_c, 0, 62, 22
1, 35891, Note_on_c, 0, 66, 19
1, 36049, Control_c, 0, 64, 127
1, 36060, Note_on_c, 0, 50, 0
1, 36105, Note_on_c, 0, 62, 0
1, 36160, Note_on_c, 0, 69, 0
1, 36311, Note_on_c, 0, 66, 0
1, 36339, Note_on_c, 0, 62, 51
1, 36612, Control_c, 0, 64, 0
1, 36626, Note_on_c, 0, 74, 42
1, 36632, Note_on_c, 0, 67, 25
1, 36635, Note_on_c, 0, 71, 18
1, 36791, Control_c, 0, 64, 127
1, 36824, Note_on_c, 0, 74, 0
1, 36844, Note_on_c, 0, 71, 0
1, 36844, Note_on_c, 0, 59, 54
1, 36860, Note_on_c, 0, 67, 0
1, 36971, Control_c, 0, 64, 0
1, 36997, Note_on_c, 0, 62, 0
1, 37046, Note_on_c, 0, 71, 56
1, 37050, Note_on_c, 0, 67, 41
1, 37055, Note_on_c, 0, 74, 44
1, 37139, Control_c, 0, 64, 127
1, 37180, Note_on_c, 0, 67, 0
1, 37203, Note_on_c, 0, 74, 0
1, 37211, Note_on_c, 0, 71, 0
1, 37267, Note_on_c, 0, 55, 72
1, 37359, Note_on_c, 0, 59, 0
1, 37390, Control_c, 0, 64, 0
1, 37462, Note_on_c, 0, 67, 47
1, 37467, Note_on_c, 0, 74, 51
1, 37467, Note_on_c, 0, 71, 51
1, 37535, Control_c, 0, 64, 127
1, 37557, Note_on_c, 0, 55, 0
1, 37588, Note_on_c, 0, 67, 0
1, 37607, Note_on_c, 0, 71, 0
1, 37615, Note_on_c, 0, 74, 0
1, 37677, Note_on_c, 0, 55, 66
1, 37810, Control_c, 0, 64, 0
1, 37905, Note_on_c, 0, 72, 33
1, 37908, Note_on_c, 0, 74, 40
1, 37918, Note_on_c, 0, 69, 26
1, 37954, Control_c, 0, 64, 127
1, 38016, Note_on_c, 0, 69, 0
1, 38016, Note_on_c, 0, 55, 0
1, 38028, Note_on_c, 0, 54, 60
1, 38038, Note_on_c, 0, 74, 0
1, 38081, Note_on_c, 0, 72, 0
1, 38092, Note_on_c, 0, 54, 0
1, 38186, Note_on_c, 0, 54, 64
1, 38412, Note_on_c, 0, 74, 51
1, 38417, Note_on_c, 0, 72, 41
1, 38426, Note_on_c, 0, 69, 31
1, 38470, Control_c, 0, 64, 0
1, 38587, Note_on_c, 0, 74, 0
1, 38593, Note_on_c, 0, 69, 0
1, 38617, Note_on_c, 0, 72, 0
1, 38649, Control_c, 0, 64, 127
1, 38824, Note_on_c, 0, 69, 37
1, 38836, Note_on_c, 0, 74, 38
1, 38836, Note_on_c, 0, 72, 31
1, 38897, Note_on_c, 0, 74, 0
1, 38900, Note_on_c, 0, 69, 0
1, 38925, Note_on_c, 0, 72, 0
1, 39039, Note_on_c, 0, 57, 67
1, 39092, Note_on_c, 0, 54, 0
1, 39177, Control_c, 0, 64, 0
1, 39256, Note_on_c, 0, 69, 43
1, 39256, Note_on_c, 0, 66, 37
1, 39269, Note_on_c, 0, 74, 47
1, 39356, Control_c, 0, 64, 127
1, 39389, Note_on_c, 0, 74, 0
1, 39429, Note_on_c, 0, 69, 0
1, 39440, Note_on_c, 0, 66, 0
1, 39456, Note_on_c, 0, 60, 89
1, 39563, Note_on_c, 0, 57, 0
1, 39596, Control_c, 0, 64, 0
1, 39659, Note_on_c, 0, 74, 62
1, 39659, Note_on_c, 0, 66, 41
1, 39670, Note_on_c, 0, 69, 39
1, 39729, Control_c, 0, 64, 127
1, 39743, Note_on_c, 0, 66, 0
1, 39748, Note_on_c, 0, 69, 0
1, 39758, Note_on_c, 0, 74, 0
1, 39911, Note_on_c, 0, 66, 58
1, 39980, Control_c, 0, 64, 0
1, 39997, Note_on_c, 0, 60, 0
1, 40144, Note_on_c, 0, 74, 46
1, 40150, Note_on_c, 0, 69, 34
1, 40172, Control_c, 0, 64, 127
1, 40219, Note_on_c, 0, 74, 0
1, 40228, Note_on_c, 0, 69, 0
1, 40359, Note_on_c, 0, 64, 60
1, 40389, Note_on_c, 0, 66, 0
1, 40579, Control_c, 0, 64, 0
1, 40649, Note_on_c, 0, 67, 37
1, 40663, Note_on_c, 0, 74, 34
1, 40663, Note_on_c, 0, 71, 39
1, 40766, Note_on_c, 0, 74, 0
1, 40771, Control_c, 0, 64, 127
1, 40782, Note_on_c, 0, 71, 0
1, 40811, Note_on_c, 0, 64, 0
1, 40811, Note_on_c, 0, 62, 38
1, 40825, Note_on_c, 0, 67, 0
1, 40864, Note_on_c, 0, 62, 0
1, 40939, Note_on_c, 0, 62, 47
1, 41094, Control_c, 0, 64, 0
1, 41162, Note_on_c, 0, 74, 40
1, 41173, Note_on_c, 0, 67, 29
1, 41178, Note_on_c, 0, 71, 32
1, 41370, Control_c, 0, 64, 127
1, 41382, Note_on_c, 0, 74, 0
1, 41392, Note_on_c, 0, 67, 0
1, 41400, Note_on_c, 0, 71, 0
1, 41573, Note_on_c, 0, 62, 0
1, 41590, Note_on_c, 0, 74, 51
1, 41599, Note_on_c, 0, 67, 40
1, 41610, Note_on_c, 0, 71, 44
1, 41662, Note_on_c, 0, 67, 0
1, 41688, Note_on_c, 0, 71, 0
1, 41752, Note_on_c, 0, 74, 0
1, 41804, Note_on_c, 0, 67, 90
1, 42005, Control_c, 0, 64, 0
1, 42010, Note_on_c, 0, 74, 71
1, 42010, Note_on_c, 0, 71, 69
1, 42136, Control_c, 0, 64, 127
1, 42167, Note_on_c, 0, 74, 0
1, 42172, Note_on_c, 0, 71, 0
1, 42209, Note_on_c, 0, 66, 81
1, 42283, Note_on_c, 0, 67, 0
1, 42340, Control_c, 0, 64, 0
1, 42409, Note_on_c, 0, 69, 58
1, 42412, Note_on_c, 0, 71, 76
1, 42412, Note_on_c, 0, 74, 75
1, 42473, Control_c, 0, 64, 127
1, 42543, Note_on_c, 0, 71, 0
1, 42568, Note_on_c, 0, 74, 0
1, 42577, Note_on_c, 0, 69, 0
1, 42626, Note_on_c, 0, 65, 95
1, 42719, Note_on_c, 0, 66, 0
1, 42783, Control_c, 0, 64, 0
1, 42811, Note_on_c, 0, 74, 85
1, 42811, Note_on_c, 0, 68, 66
1, 42824, Note_on_c, 0, 71, 72
1, 42900, Note_on_c, 0, 71, 0
1, 42907, Note_on_c, 0, 68, 0
1, 42916, Control_c, 0, 64, 127
1, 42927, Note_on_c, 0, 74, 0
1, 43022, Note_on_c, 0, 79, 111
1, 43036, Note_on_c, 0, 64, 88
1, 43059, Note_on_c, 0, 65, 0
1, 43144, Control_c, 0, 64, 0
1, 43223, Note_on_c, 0, 67, 55
1, 43234, Note_on_c, 0, 72, 51
1, 43300, Control_c, 0, 64, 127
1, 43315, Note_on_c, 0, 72, 0
1, 43354, Note_on_c, 0, 67, 0
1, 43404, Note_on_c, 0, 78, 98
1, 43424, Note_on_c, 0, 62, 83
1, 43457, Note_on_c, 0, 64, 0
1, 43473, Note_on_c, 0, 79, 0
1, 43515, Control_c, 0, 64, 0
1, 43615, Note_on_c, 0, 67, 67
1, 43621, Note_on_c, 0, 72, 69
1, 43658, Control_c, 0, 64, 127
1, 43679, Note_on_c, 0, 78, 0
1, 43775, Note_on_c, 0, 72, 0
1, 43805, Note_on_c, 0, 76, 80
1, 43818, Note_on_c, 0, 60, 73
1, 43836, Note_on_c, 0, 62, 0
1, 43847, Note_on_c, 0, 67, 0
1, 43886, Control_c, 0, 64, 0
1, 43988, Note_on_c, 0, 72, 60
1, 43992, Note_on_c, 0, 67, 43
1, 44042, Note_on_c, 0, 76, 0
1, 44042, Control_c, 0, 64, 127
1, 44105, Note_on_c, 0, 72, 0
1, 44130, Note_on_c, 0, 67, 0
1, 44198, Note_on_c, 0, 74, 78
1, 44233, Note_on_c, 0, 59, 46
1, 44245, Note_on_c, 0, 60, 0
1, 44270, Control_c, 0, 64, 0
1, 44399, Note_on_c, 0, 67, 50
1, 44498, Control_c, 0, 64, 127
1, 44612, Note_on_c, 0, 67, 0
1, 44615, Note_on_c, 0, 73, 51
1, 44662, Note_on_c, 0, 59, 0
1, 44669, Note_on_c, 0, 58, 33
1, 44674, Note_on_c, 0, 74, 0
1, 44713, Control_c, 0, 64, 0
1, 44828, Note_on_c, 0, 67, 44
1, 44828, Note_on_c, 0, 64, 41
1, 44894, Control_c, 0, 64, 127
1, 45003, Note_on_c, 0, 67, 0
1, 45027, Note_on_c, 0, 64, 0
1, 45041, Note_on_c, 0, 72, 41
1, 45045, Note_on_c, 0, 73, 0
1, 45048, Note_on_c, 0, 57, 26
1, 45059, Note_on_c, 0, 58, 0
1, 45122, Control_c, 0, 64, 0
1, 45264, Note_on_c, 0, 66, 22
1, 45267, Note_on_c, 0, 62, 32
1, 45312, Control_c, 0, 64, 127
1, 45382, Note_on_c, 0, 72, 0
1, 45512, Note_on_c, 0, 56, 35
1, 45524, Note_on_c, 0, 72, 36
1, 45540, Note_on_c, 0, 57, 0
1, 45540, Control_c, 0, 64, 0
1, 45552, Note_on_c, 0, 62, 0
1, 45580, Note_on_c, 0, 66, 0
1, 45782, Note_on_c, 0, 66, 22
1, 45789, Note_on_c, 0, 62, 29
1, 45864, Control_c, 0, 64, 127
1, 45956, Note_on_c, 0, 62, 0
1, 45992, Note_on_c, 0, 66, 0
1, 46069, Note_on_c, 0, 50, 30
1, 46203, Note_on_c, 0, 56, 0
1, 46248, Control_c, 0, 64, 0
1, 46376, Note_on_c, 0, 62, 22
1, 46385, Note_on_c, 0, 66, 19
1, 46404, Control_c, 0, 64, 127
1, 46577, Note_on_c, 0, 71, 30
1, 46615, Note_on_c, 0, 72, 0
1, 46705, Note_on_c, 0, 71, 0
1, 46724, Note_on_c, 0, 62, 0
1, 46738, Note_on_c, 0, 66, 0
1, 46743, Note_on_c, 0, 50, 0
1, 46872, Note_on_c, 0, 71, 25
1, 46892, Note_on_c, 0, 55, 25
1, 46942, Control_c, 0, 64, 0
1, 47195, Control_c, 0, 64, 127
1, 47275, Note_on_c, 0, 67, 17
1, 47278, Note_on_c, 0, 62, 17
1, 47285, Note_on_c, 0, 55, 0
1, 47404, Note_on_c, 0, 62, 0
1, 47465, Note_on_c, 0, 71, 0
1, 47526, Note_on_c, 0, 67, 0
1, 47975, Note_on_c, 0, 72, 43
1, 48003, Note_on_c, 0, 60, 22
1, 48070, Control_c, 0, 64, 0
1, 48270, Note_on_c, 0, 64, 28
1, 48270, Note_on_c, 0, 67, 27
1, 48309, Control_c, 0, 64, 127
1, 48435, Note_on_c, 0, 67, 0
1, 48448, Note_on_c, 0, 64, 0
1, 48513, Note_on_c, 0, 60, 0
1, 48538, Note_on_c, 0, 74, 60
1, 48596, Note_on_c, 0, 59, 21
1, 48613, Note_on_c, 0, 72, 0
1, 48669, Control_c, 0, 64, 0
1, 48786, Note_on_c, 0, 67, 26
1, 48811, Note_on_c, 0, 62, 35
1, 48836, Control_c, 0, 64, 127
1, 48875, Note_on_c, 0, 62, 0
1, 48930, Note_on_c, 0, 67, 0
1, 48987, Note_on_c, 0, 59, 0
1, 48998, Note_on_c, 0, 58, 33
1, 49001, Note_on_c, 0, 76, 60
1, 49051, Control_c, 0, 64, 0
1, 49059, Note_on_c, 0, 74, 0
1, 49249, Note_on_c, 0, 62, 36
1, 49260, Note_on_c, 0, 67, 33
1, 49328, Control_c, 0, 64, 127
1, 49385, Note_on_c, 0, 62, 0
1, 49401, Note_on_c, 0, 67, 0
1, 49505, Note_on_c, 0, 76, 0
1, 49633, Note_on_c, 0, 57, 22
1, 49639, Note_on_c, 0, 76, 43
1, 49674, Note_on_c, 0, 58, 0
1, 49674, Control_c, 0, 64, 0
1, 50031, Note_on_c, 0, 67, 25
1, 50036, Note_on_c, 0, 61, 31
1, 50070, Control_c, 0, 64, 127
1, 50249, Note_on_c, 0, 76, 0
1, 50253, Note_on_c, 0, 61, 0
1, 50271, Note_on_c, 0, 69, 30
1, 50274, Note_on_c, 0, 67, 0
1, 50349, Note_on_c, 0, 69, 0
1, 50460, Note_on_c, 0, 69, 26
1, 50622, Control_c, 0, 64, 0
1, 50699, Note_on_c, 0, 67, 29
1, 50703, Note_on_c, 0, 61, 23
1, 50791, Control_c, 0, 64, 127
1, 50870, Note_on_c, 0, 67, 0
1, 50895, Note_on_c, 0, 61, 0
1, 51059, Note_on_c, 0, 69, 0
1, 51165, Note_on_c, 0, 67, 19
1, 51175, Note_on_c, 0, 61, 24
1, 51235, Note_on_c, 0, 61, 0
1, 51274, Note_on_c, 0, 67, 0
1, 51413, Note_on_c, 0, 74, 64
1, 51418, Note_on_c, 0, 62, 49
1, 51449, Control_c, 0, 64, 0
1, 51463, Note_on_c, 0, 57, 0
1, 51682, Note_on_c, 0, 69, 36
1, 51697, Note_on_c, 0, 65, 34
1, 51700, Control_c, 0, 64, 127
1, 51823, Note_on_c, 0, 65, 0
1, 51864, Note_on_c, 0, 69, 0
1, 51942, Note_on_c, 0, 76, 78
1, 52015, Note_on_c, 0, 74, 0
1, 52143, Note_on_c, 0, 69, 34
1, 52156, Note_on_c, 0, 65, 31
1, 52265, Note_on_c, 0, 69, 0
1, 52287, Note_on_c, 0, 65, 0
1, 52376, Note_on_c, 0, 62, 0
1, 52401, Note_on_c, 0, 60, 59
1, 52418, Note_on_c, 0, 77, 65
1, 52455, Control_c, 0, 64, 0
1, 52482, Note_on_c, 0, 76, 0
1, 52639, Note_on_c, 0, 68, 33
1, 52660, Control_c, 0, 64, 127
1, 52677, Note_on_c, 0, 65, 27
1, 52711, Note_on_c, 0, 62, 21
1, 52745, Note_on_c, 0, 65, 0
1, 52780, Note_on_c, 0, 77, 0
1, 52784, Note_on_c, 0, 62, 0
1, 52800, Note_on_c, 0, 68, 0
1, 52845, Note_on_c, 0, 60, 0
1, 52964, Note_on_c, 0, 77, 67
1, 52979, Note_on_c, 0, 59, 43
1, 53008, Control_c, 0, 64, 0
1, 53270, Note_on_c, 0, 67, 32
1, 53270, Note_on_c, 0, 62, 24
1, 53270, Note_on_c, 0, 65, 28
1, 53355, Control_c, 0, 64, 127
1, 53366, Note_on_c, 0, 71, 60
1, 53398, Note_on_c, 0, 59, 0
1, 53398, Note_on_c, 0, 77, 0
1, 53402, Note_on_c, 0, 67, 0
1, 53430, Note_on_c, 0, 71, 0
1, 53452, Note_on_c, 0, 65, 0
1, 53505, Note_on_c, 0, 71, 71
1, 53510, Note_on_c, 0, 62, 0
1, 53516, Note_on_c, 0, 57, 55
1, 53655, Control_c, 0, 64, 0
1, 53738, Note_on_c, 0, 62, 38
1, 53738, Note_on_c, 0, 67, 44
1, 53738, Note_on_c, 0, 65, 30
1, 53786, Control_c, 0, 64, 127
1, 53844, Note_on_c, 0, 65, 0
1, 53844, Note_on_c, 0, 62, 0
1, 53844, Note_on_c, 0, 67, 0
1, 53870, Note_on_c, 0, 57, 0
1, 53947, Note_on_c, 0, 55, 76
1, 54098, Control_c, 0, 64, 0
1, 54162, Note_on_c, 0, 67, 50
1, 54162, Note_on_c, 0, 65, 37
1, 54168, Note_on_c, 0, 62, 59
1, 54229, Note_on_c, 0, 71, 0
1, 54229, Control_c, 0, 64, 127
1, 54279, Note_on_c, 0, 62, 0
1, 54307, Note_on_c, 0, 65, 0
1, 54307, Note_on_c, 0, 67, 0
1, 54432, Note_on_c, 0, 60, 63
1, 54436, Note_on_c, 0, 69, 82
1, 54529, Control_c, 0, 64, 0
1, 54552, Note_on_c, 0, 55, 0
1, 54708, Note_on_c, 0, 65, 46
1, 54730, Note_on_c, 0, 62, 47
1, 54781, Control_c, 0, 64, 127
1, 54989, Note_on_c, 0, 62, 0
1, 55003, Note_on_c, 0, 79, 100
1, 55021, Note_on_c, 0, 65, 0
1, 55238, Note_on_c, 0, 65, 56
1, 55245, Note_on_c, 0, 62, 53
1, 55444, Note_on_c, 0, 77, 98
1, 55450, Note_on_c, 0, 62, 0
1, 55453, Note_on_c, 0, 65, 0
1, 55519, Note_on_c, 0, 79, 0
1, 55631, Note_on_c, 0, 69, 0
1, 55656, Note_on_c, 0, 65, 45
1, 55681, Note_on_c, 0, 62, 38
1, 55820, Note_on_c, 0, 62, 0
1, 55873, Note_on_c, 0, 65, 0
1, 55904, Note_on_c, 0, 76, 75
1, 55920, Note_on_c, 0, 59, 39
1, 55936, Note_on_c, 0, 60, 0
1, 55967, Control_c, 0, 64, 0
1, 56087, Note_on_c, 0, 77, 0
1, 56234, Note_on_c, 0, 67, 35
1, 56243, Control_c, 0, 64, 127
1, 56265, Note_on_c, 0, 62, 27
1, 56422, Note_on_c, 0, 74, 58
1, 56433, Note_on_c, 0, 62, 0
1, 56474, Note_on_c, 0, 67, 0
1, 56477, Note_on_c, 0, 76, 0
1, 56524, Note_on_c, 0, 74, 0
1, 56577, Note_on_c, 0, 74, 79
1, 56776, Note_on_c, 0, 67, 40
1, 56787, Note_on_c, 0, 62, 37
1, 56842, Control_c, 0, 64, 0
1, 56986, Control_c, 0, 64, 127
1, 57003, Note_on_c, 0, 67, 0
1, 57007, Note_on_c, 0, 62, 0
1, 57201, Note_on_c, 0, 74, 0
1, 57213, Note_on_c, 0, 67, 44
1, 57227, Note_on_c, 0, 62, 42
1, 57347, Note_on_c, 0, 62, 0
1, 57347, Note_on_c, 0, 67, 0
1, 57497, Note_on_c, 0, 59, 0
1, 57564, Note_on_c, 0, 66, 63
1, 57580, Note_on_c, 0, 57, 24
1, 57811, Note_on_c, 0, 62, 39
1, 57814, Control_c, 0, 64, 0
1, 57822, Note_on_c, 0, 60, 34
1, 57981, Control_c, 0, 64, 127
1, 58031, Note_on_c, 0, 62, 0
1, 58035, Note_on_c, 0, 60, 0
1, 58035, Note_on_c, 0, 76, 69
1, 58252, Note_on_c, 0, 62, 39
1, 58262, Note_on_c, 0, 60, 34
1, 58280, Control_c, 0, 64, 0
1, 58411, Control_c, 0, 64, 127
1, 58433, Note_on_c, 0, 62, 0
1, 58449, Note_on_c, 0, 60, 0
1, 58486, Note_on_c, 0, 74, 79
1, 58519, Note_on_c, 0, 76, 0
1, 58638, Note_on_c, 0, 74, 0
1, 58645, Note_on_c, 0, 66, 0
1, 58691, Note_on_c, 0, 62, 33
1, 58695, Note_on_c, 0, 60, 34
1, 58765, Note_on_c, 0, 62, 0
1, 58797, Note_on_c, 0, 60, 0
1, 58797, Note_on_c, 0, 57, 0
1, 59004, Note_on_c, 0, 72, 66
1, 59017, Note_on_c, 0, 55, 38
1, 59035, Note_on_c, 0, 65, 35
1, 59096, Control_c, 0, 64, 0
1, 59318, Note_on_c, 0, 59, 20
1, 59322, Note_on_c, 0, 62, 36
1, 59419, Control_c, 0, 64, 127
1, 59560, Note_on_c, 0, 72, 0
1, 59564, Note_on_c, 0, 71, 52
1, 59611, Note_on_c, 0, 59, 0
1, 59617, Note_on_c, 0, 71, 0
1, 59625, Note_on_c, 0, 62, 0
1, 59728, Note_on_c, 0, 71, 53
1, 59934, Control_c, 0, 64, 0
1, 59953, Note_on_c, 0, 62, 37
1, 59964, Note_on_c, 0, 59, 25
1, 60028, Note_on_c, 0, 55, 0
1, 60079, Control_c, 0, 64, 127
1, 60096, Note_on_c, 0, 62, 0
1, 60155, Note_on_c, 0, 59, 0
1, 60193, Note_on_c, 0, 55, 24
1, 60210, Note_on_c, 0, 65, 0
1, 60216, Note_on_c, 0, 69, 49
1, 60232, Note_on_c, 0, 62, 32
1, 60237, Note_on_c, 0, 71, 0
1, 60237, Note_on_c, 0, 60, 41
1, 60422, Note_on_c, 0, 60, 0
1, 60436, Note_on_c, 0, 62, 0
1, 60499, Note_on_c, 0, 67, 62
1, 60503, Note_on_c, 0, 59, 32
1, 60531, Note_on_c, 0, 55, 0
1, 60549, Note_on_c, 0, 69, 0
1, 60575, Note_on_c, 0, 59, 0
1, 60642, Note_on_c, 0, 67, 0
1, 60759, Note_on_c, 0, 60, 57
1, 60770, Note_on_c, 0, 72, 64
1, 60893, Control_c, 0, 64, 0
1, 61017, Note_on_c, 0, 67, 33
1, 61026, Note_on_c, 0, 64, 50
1, 61085, Control_c, 0, 64, 127
1, 61187, Note_on_c, 0, 67, 0
1, 61219, Note_on_c, 0, 64, 0
1, 61241, Note_on_c, 0, 74, 76
1, 61249, Note_on_c, 0, 59, 73
1, 61299, Note_on_c, 0, 60, 0
1, 61325, Note_on_c, 0, 72, 0
1, 61397, Control_c, 0, 64, 0
1, 61483, Note_on_c, 0, 62, 44
1, 61492, Note_on_c, 0, 67, 36
1, 61564, Control_c, 0, 64, 127
1, 61577, Note_on_c, 0, 67, 0
1, 61687, Note_on_c, 0, 76, 68
1, 61698, Note_on_c, 0, 58, 57
1, 61703, Note_on_c, 0, 62, 0
1, 61711, Note_on_c, 0, 59, 0
1, 61744, Note_on_c, 0, 74, 0
1, 61744, Control_c, 0, 64, 0
1, 61939, Note_on_c, 0, 62, 44
1, 61946, Note_on_c, 0, 67, 36
1, 61946, Control_c, 0, 64, 127
1, 62017, Note_on_c, 0, 76, 0
1, 62029, Note_on_c, 0, 67, 0
1, 62107, Note_on_c, 0, 62, 0
1, 62221, Note_on_c, 0, 76, 55
1, 62243, Note_on_c, 0, 57, 44
1, 62283, Control_c, 0, 64, 0
1, 62294, Note_on_c, 0, 58, 0
1, 62587, Note_on_c, 0, 67, 28
1, 62591, Note_on_c, 0, 61, 29
1, 62619, Control_c, 0, 64, 127
1, 62817, Note_on_c, 0, 69, 30
1, 62820, Note_on_c, 0, 76, 0
1, 62839, Note_on_c, 0, 67, 0
1, 62924, Note_on_c, 0, 61, 0
1, 62937, Note_on_c, 0, 69, 0
1, 63006, Note_on_c, 0, 69, 36
1, 63238, Note_on_c, 0, 67, 34
1, 63247, Note_on_c, 0, 61, 25
1, 63480, Note_on_c, 0, 67, 0
1, 63506, Note_on_c, 0, 61, 0
1, 63708, Note_on_c, 0, 69, 0
1, 63725, Note_on_c, 0, 61, 27
1, 63729, Note_on_c, 0, 67, 27
1, 63793, Note_on_c, 0, 61, 0
1, 63828, Note_on_c, 0, 67, 0
1, 64029, Note_on_c, 0, 74, 81
1, 64034, Note_on_c, 0, 62, 49
1, 64080, Control_c, 0, 64, 0
1, 64180, Note_on_c, 0, 57, 0
1, 64304, Note_on_c, 0, 69, 35
1, 64311, Note_on_c, 0, 65, 35
1, 64333, Control_c, 0, 64, 127
1, 64547, Note_on_c, 0, 65, 0
1, 64552, Note_on_c, 0, 69, 0
1, 64559, Note_on_c, 0, 76, 85
1, 64640, Note_on_c, 0, 74, 0
1, 64715, Control_c, 0, 64, 0
1, 64779, Note_on_c, 0, 69, 44
1, 64796, Note_on_c, 0, 65, 39
1, 64848, Control_c, 0, 64, 127
1, 64945, Note_on_c, 0, 69, 0
1, 64990, Note_on_c, 0, 65, 0
1, 65010, Note_on_c, 0, 62, 0
1, 65013, Note_on_c, 0, 60, 61
1, 65016, Note_on_c, 0, 77, 89
1, 65112, Control_c, 0, 64, 0
1, 65121, Note_on_c, 0, 76, 0
1, 65260, Note_on_c, 0, 68, 41
1, 65268, Control_c, 0, 64, 127
1, 65268, Note_on_c, 0, 62, 52
1, 65286, Note_on_c, 0, 65, 34
1, 65341, Note_on_c, 0, 77, 0
1, 65406, Note_on_c, 0, 65, 0
1, 65430, Note_on_c, 0, 60, 0
1, 65438, Note_on_c, 0, 68, 0
1, 65508, Note_on_c, 0, 77, 89
1, 65522, Note_on_c, 0, 59, 46
1, 65534, Note_on_c, 0, 62, 0
1, 65698, Control_c, 0, 64, 0
1, 65826, Note_on_c, 0, 67, 40
1, 65839, Note_on_c, 0, 65, 39
1, 65867, Control_c, 0, 64, 127
1, 65871, Note_on_c, 0, 62, 21
1, 65920, Note_on_c, 0, 71, 82
1, 65974, Note_on_c, 0, 77, 0
1, 65977, Note_on_c, 0, 67, 0
1, 66019, Note_on_c, 0, 65, 0
1, 66029, Note_on_c, 0, 62, 0
1, 66051, Note_on_c, 0, 71, 0
1, 66112, Note_on_c, 0, 59, 0
1, 66115, Note_on_c, 0, 57, 57
1, 66119, Note_on_c, 0, 71, 68
1, 66238, Control_c, 0, 64, 0
1, 66335, Note_on_c, 0, 67, 53
1, 66335, Note_on_c, 0, 62, 57
1, 66335, Note_on_c, 0, 65, 47
1, 66383, Control_c, 0, 64, 127
1, 66472, Note_on_c, 0, 57, 0
1, 66489, Note_on_c, 0, 65, 0
1, 66489, Note_on_c, 0, 67, 0
1, 66553, Note_on_c, 0, 62, 0
1, 66570, Note_on_c, 0, 55, 88
1, 66658, Control_c, 0, 64, 0
1, 66785, Note_on_c, 0, 65, 33
1, 66785, Note_on_c, 0, 67, 71
1, 66790, Note_on_c, 0, 62, 62
1, 66801, Control_c, 0, 64, 127
1, 66837, Note_on_c, 0, 71, 0
1, 66873, Note_on_c, 0, 55, 0
1, 66873, Note_on_c, 0, 62, 0
1, 66973, Note_on_c, 0, 67, 0
1, 66984, Note_on_c, 0, 65, 0
1, 67030, Note_on_c, 0, 60, 87
1, 67040, Note_on_c, 0, 77, 99
1, 67286, Note_on_c, 0, 69, 67
1, 67290, Note_on_c, 0, 62, 66
1, 67299, Note_on_c, 0, 65, 58
1, 67305, Control_c, 0, 64, 0
1, 67461, Control_c, 0, 64, 127
1, 67544, Note_on_c, 0, 79, 109
1, 67567, Note_on_c, 0, 65, 0
1, 67567, Note_on_c, 0, 69, 0
1, 67576, Note_on_c, 0, 62, 0
1, 67657, Note_on_c, 0, 77, 0
1, 67745, Note_on_c, 0, 69, 57
1, 67754, Note_on_c, 0, 62, 67
1, 67760, Note_on_c, 0, 65, 55
1, 67968, Note_on_c, 0, 62, 0
1, 67976, Note_on_c, 0, 81, 106
1, 67998, Note_on_c, 0, 69, 0
1, 67998, Note_on_c, 0, 65, 0
1, 68088, Note_on_c, 0, 79, 0
1, 68194, Note_on_c, 0, 69, 63
1, 68202, Note_on_c, 0, 65, 56
1, 68202, Note_on_c, 0, 62, 62
1, 68228, Note_on_c, 0, 81, 0
1, 68235, Note_on_c, 0, 60, 0
1, 68386, Note_on_c, 0, 69, 0
1, 68466, Note_on_c, 0, 65, 0
1, 68481, Note_on_c, 0, 62, 0
1, 68489, Note_on_c, 0, 81, 90
1, 68508, Note_on_c, 0, 59, 61
1, 68551, Control_c, 0, 64, 0
1, 68779, Control_c, 0, 64, 127
1, 68782, Note_on_c, 0, 67, 49
1, 68796, Note_on_c, 0, 65, 43
1, 68796, Note_on_c, 0, 62, 46
1, 69107, Note_on_c, 0, 67, 0
1, 69135, Note_on_c, 0, 79, 83
1, 69152, Note_on_c, 0, 65, 0
1, 69158, Note_on_c, 0, 62, 0
1, 69228, Note_on_c, 0, 81, 0
1, 69402, Note_on_c, 0, 74, 85
1, 69420, Note_on_c, 0, 67, 28
1, 69420, Note_on_c, 0, 62, 41
1, 69442, Note_on_c, 0, 65, 25
1, 69539, Note_on_c, 0, 67, 0
1, 69564, Note_on_c, 0, 79, 0
1, 69564, Note_on_c, 0, 65, 0
1, 69657, Note_on_c, 0, 59, 0
1, 69661, Note_on_c, 0, 62, 0
1, 69676, Note_on_c, 0, 76, 75
1, 69679, Note_on_c, 0, 60, 58
1, 69703, Control_c, 0, 64, 0
1, 69743, Note_on_c, 0, 74, 0
1, 69905, Control_c, 0, 64, 127
1, 69915, Note_on_c, 0, 67, 41
1, 69919, Note_on_c, 0, 64, 49
1, 69974, Note_on_c, 0, 64, 0
1, 69996, Note_on_c, 0, 76, 0
1, 70015, Note_on_c, 0, 67, 0
1, 70049, Note_on_c, 0, 60, 0
1, 70256, Note_on_c, 0, 77, 55
1, 70274, Note_on_c, 0, 53, 58
1, 70325, Control_c, 0, 64, 0
1, 70547, Note_on_c, 0, 62, 40
1, 70561, Note_on_c, 0, 57, 25
1, 70576, Control_c, 0, 64, 127
1, 70776, Note_on_c, 0, 57, 0
1, 70815, Note_on_c, 0, 62, 0
1, 70963, Note_on_c, 0, 76, 48
1, 71036, Note_on_c, 0, 77, 0
1, 71175, Note_on_c, 0, 53, 0
1, 71277, Note_on_c, 0, 74, 52
1, 71277, Note_on_c, 0, 62, 28
1, 71289, Note_on_c, 0, 57, 19
1, 71330, Note_on_c, 0, 76, 0
1, 71426, Note_on_c, 0, 57, 0
1, 71437, Note_on_c, 0, 62, 0
1, 71559, Control_c, 0, 64, 0
1, 71568, Note_on_c, 0, 55, 35
1, 71572, Note_on_c, 0, 69, 38
1, 71634, Note_on_c, 0, 74, 0
1, 71788, Control_c, 0, 64, 127
1, 71824, Control_c, 0, 64, 0
1, 71860, Note_on_c, 0, 71, 56
1, 71873, Note_on_c, 0, 65, 28
1, 71876, Note_on_c, 0, 62, 36
1, 71907, Note_on_c, 0, 69, 0
1, 71988, Note_on_c, 0, 62, 0
1, 72002, Control_c, 0, 64, 127
1, 72016, Note_on_c, 0, 55, 0
1, 72016, Note_on_c, 0, 65, 0
1, 72300, Note_on_c, 0, 71, 0
1, 72300, Note_on_c, 0, 72, 36
1, 72327, Control_c, 0, 64, 0
1, 72327, Note_on_c, 0, 48, 23
1, 72709, Note_on_c, 0, 64, 32
1, 72709, Control_c, 0, 64, 127
1, 72721, Note_on_c, 0, 55, 28
1, 72721, Note_on_c, 0, 60, 19
1, 72899, Note_on_c, 0, 48, 0
1, 72937, Note_on_c, 0, 60, 0
1, 72955, Note_on_c, 0, 55, 0
1, 72980, Note_on_c, 0, 64, 0
1, 73431, Note_on_c, 0, 64, 27
1, 73456, Note_on_c, 0, 55, 20
1, 73462, Note_on_c, 0, 60, 15
1, 73887, Note_on_c, 0, 64, 0
1, 73908, Note_on_c, 0, 55, 0
1, 73943, Note_on_c, 0, 60, 0
1, 74589, Note_on_c, 0, 60, 12
1, 74600, Note_on_c, 0, 64, 14
1, 74612, Note_on_c, 0, 55, 12
1, 74735, Note_on_c, 0, 55, 0
1, 74790, Note_on_c, 0, 64, 0
1, 74818, Note_on_c, 0, 60, 0
1, 76666, Note_on_c, 0, 72, 0
1, 77876, Control_c, 0, 64, 0
1, 77876, End_track
0, 0, End_of_file
