0, 0, Header, 1, 5, 480
1, 0, Start_track
1, 0, Title_t, "tchaikovsky symphony no4 mv4"
1, 0, Copyright_t, "Adaptation for Disklavier pianos, by: Robert C. Kuhmann (c) 2012."
1, 0, Time_signature, 4, 2, 24, 8
1, 0, Key_signature, -1, "major"
1, 0, Tempo, 400000
1, 380160, Time_signature, 3, 2, 24, 8
1, 380160, Tempo, 800000
1, 414720, Time_signature, 4, 2, 24, 8
1, 414720, Tempo, 400000
1, 549120, Time_signature, 10, 2, 24, 8
1, 549120, End_track
2, 0, Start_track
2, 0, Title_t, "Grand Piano"
2, 0, Program_c, 0, 0
2, 0, Control_c, 0, 7, 115
2, 0, Control_c, 0, 10, 86
2, 0, Control_c, 0, 64, 127
2, 0, Note_on_c, 0, 77, 86
2, 0, Note_on_c, 0, 81, 86
2, 0, Note_on_c, 0, 89, 86
2, 960, Note_on_c, 0, 89, 0
2, 960, Note_on_c, 0, 81, 0
2, 960, Note_on_c, 0, 77, 0
2, 960, Note_on_c, 0, 76, 86
2, 960, Note_on_c, 0, 88, 86
2, 1680, Note_on_c, 0, 88, 0
2, 1680, Note_on_c, 0, 76, 0
2, 1680, Note_on_c, 0, 74, 86
2, 1680, Note_on_c, 0, 86, 86
2, 1920, Note_on_c, 0, 86, 0
2, 1920, Note_on_c, 0, 74, 0
2, 1920, Note_on_c, 0, 72, 86
2, 1920, Note_on_c, 0, 84, 86
2, 2040, Note_on_c, 0, 84, 0
2, 2040, Note_on_c, 0, 72, 0
2, 2040, Control_c, 0, 64, 0
2, 2040, Note_on_c, 0, 81, 86
2, 2160, Note_on_c, 0, 81, 0
2, 2160, Note_on_c, 0, 84, 86
2, 2280, Note_on_c, 0, 84, 0
2, 2280, Note_on_c, 0, 86, 86
2, 2400, Note_on_c, 0, 86, 0
2, 2400, Note_on_c, 0, 88, 86
2, 2520, Note_on_c, 0, 88, 0
2, 2520, Note_on_c, 0, 86, 86
2, 2640, Note_on_c, 0, 86, 0
2, 2640, Note_on_c, 0, 84, 86
2, 2760, Note_on_c, 0, 84, 0
2, 2760, Note_on_c, 0, 82, 86
2, 2880, Note_on_c, 0, 82, 0
2, 2880, Note_on_c, 0, 81, 86
2, 3000, Note_on_c, 0, 81, 0
2, 3000, Note_on_c, 0, 77, 86
2, 3120, Note_on_c, 0, 77, 0
2, 3120, Note_on_c, 0, 81, 86
2, 3240, Note_on_c, 0, 81, 0
2, 3240, Note_on_c, 0, 82, 86
2, 3360, Note_on_c, 0, 82, 0
2, 3360, Note_on_c, 0, 84, 86
2, 3480, Note_on_c, 0, 84, 0
2, 3480, Note_on_c, 0, 82, 86
2, 3600, Note_on_c, 0, 82, 0
2, 3600, Note_on_c, 0, 81, 86
2, 3720, Note_on_c, 0, 81, 0
2, 3720, Note_on_c, 0, 79, 86
2, 3840, Note_on_c, 0, 79, 0
2, 3840, Note_on_c, 0, 81, 86
2, 3960, Note_on_c, 0, 81, 0
2, 3960, Note_on_c, 0, 79, 86
2, 4080, Note_on_c, 0, 79, 0
2, 4080, Note_on_c, 0, 77, 86
2, 4200, Note_on_c, 0, 77, 0
2, 4200, Note_on_c, 0, 76, 86
2, 4320, Note_on_c, 0, 76, 0
2, 4320, Note_on_c, 0, 77, 86
2, 4440, Note_on_c, 0, 77, 0
2, 4440, Note_on_c, 0, 76, 86
2, 4560, Note_on_c, 0, 76, 0
2, 4560, Note_on_c, 0, 74, 86
2, 4680, Note_on_c, 0, 74, 0
2, 4680, Note_on_c, 0, 72, 86
2, 4800, Note_on_c, 0, 72, 0
2, 4800, Note_on_c, 0, 74, 86
2, 4920, Note_on_c, 0, 74, 0
2, 4920, Note_on_c, 0, 72, 86
2, 5040, Note_on_c, 0, 72, 0
2, 5040, Note_on_c, 0, 70, 86
2, 5160, Note_on_c, 0, 70, 0
2, 5160, Note_on_c, 0, 69, 86
2, 5280, Note_on_c, 0, 69, 0
2, 5280, Note_on_c, 0, 67, 86
2, 5520, Note_on_c, 0, 67, 0
2, 5520, Note_on_c, 0, 60, 86
2, 5520, Note_on_c, 0, 72, 86
2, 5760, Note_on_c, 0, 72, 0
2, 5760, Note_on_c, 0, 60, 0
2, 5760, Note_on_c, 0, 57, 86
2, 5760, Note_on_c, 0, 60, 86
2, 5760, Note_on_c, 0, 65, 86
2, 6000, Note_on_c, 0, 65, 0
2, 6000, Note_on_c, 0, 60, 0
2, 6000, Note_on_c, 0, 57, 0
2, 7680, Control_c, 0, 64, 127
2, 7680, Note_on_c, 0, 77, 86
2, 7680, Note_on_c, 0, 81, 86
2, 7680, Note_on_c, 0, 89, 86
2, 8640, Note_on_c, 0, 89, 0
2, 8640, Note_on_c, 0, 81, 0
2, 8640, Note_on_c, 0, 77, 0
2, 8640, Note_on_c, 0, 76, 86
2, 8640, Note_on_c, 0, 88, 86
2, 9360, Note_on_c, 0, 88, 0
2, 9360, Note_on_c, 0, 76, 0
2, 9360, Note_on_c, 0, 74, 86
2, 9360, Note_on_c, 0, 86, 86
2, 9600, Note_on_c, 0, 86, 0
2, 9600, Note_on_c, 0, 74, 0
2, 9600, Note_on_c, 0, 72, 86
2, 9600, Note_on_c, 0, 84, 86
2, 9720, Note_on_c, 0, 84, 0
2, 9720, Note_on_c, 0, 72, 0
2, 9720, Control_c, 0, 64, 0
2, 9720, Note_on_c, 0, 81, 86
2, 9840, Note_on_c, 0, 81, 0
2, 9840, Note_on_c, 0, 84, 86
2, 9960, Note_on_c, 0, 84, 0
2, 9960, Note_on_c, 0, 86, 86
2, 10080, Note_on_c, 0, 86, 0
2, 10080, Note_on_c, 0, 88, 86
2, 10200, Note_on_c, 0, 88, 0
2, 10200, Note_on_c, 0, 86, 86
2, 10320, Note_on_c, 0, 86, 0
2, 10320, Note_on_c, 0, 84, 86
2, 10440, Note_on_c, 0, 84, 0
2, 10440, Note_on_c, 0, 83, 86
2, 10560, Note_on_c, 0, 83, 0
2, 10560, Note_on_c, 0, 81, 86
2, 10680, Note_on_c, 0, 81, 0
2, 10680, Note_on_c, 0, 80, 86
2, 10800, Note_on_c, 0, 80, 0
2, 10800, Note_on_c, 0, 81, 86
2, 10920, Note_on_c, 0, 81, 0
2, 10920, Note_on_c, 0, 83, 86
2, 11040, Note_on_c, 0, 83, 0
2, 11040, Note_on_c, 0, 84, 86
2, 11160, Note_on_c, 0, 84, 0
2, 11160, Note_on_c, 0, 83, 86
2, 11280, Note_on_c, 0, 83, 0
2, 11280, Note_on_c, 0, 81, 86
2, 11400, Note_on_c, 0, 81, 0
2, 11400, Note_on_c, 0, 80, 86
2, 11520, Note_on_c, 0, 80, 0
2, 11520, Note_on_c, 0, 81, 86
2, 11640, Note_on_c, 0, 81, 0
2, 11640, Note_on_c, 0, 79, 86
2, 11760, Note_on_c, 0, 79, 0
2, 11760, Note_on_c, 0, 77, 86
2, 11880, Note_on_c, 0, 77, 0
2, 11880, Note_on_c, 0, 76, 86
2, 12000, Note_on_c, 0, 76, 0
2, 12000, Note_on_c, 0, 77, 86
2, 12120, Note_on_c, 0, 77, 0
2, 12120, Note_on_c, 0, 76, 86
2, 12240, Note_on_c, 0, 76, 0
2, 12240, Note_on_c, 0, 74, 86
2, 12360, Note_on_c, 0, 74, 0
2, 12360, Note_on_c, 0, 73, 86
2, 12480, Note_on_c, 0, 73, 0
2, 12480, Note_on_c, 0, 74, 86
2, 12600, Note_on_c, 0, 74, 0
2, 12600, Note_on_c, 0, 72, 86
2, 12720, Note_on_c, 0, 72, 0
2, 12720, Note_on_c, 0, 71, 86
2, 12840, Note_on_c, 0, 71, 0
2, 12840, Note_on_c, 0, 69, 86
2, 12960, Note_on_c, 0, 69, 0
2, 12960, Note_on_c, 0, 67, 86
2, 13200, Note_on_c, 0, 67, 0
2, 13200, Note_on_c, 0, 67, 86
2, 13200, Note_on_c, 0, 79, 86
2, 13440, Note_on_c, 0, 79, 0
2, 13440, Note_on_c, 0, 67, 0
2, 13440, Note_on_c, 0, 64, 86
2, 13440, Note_on_c, 0, 67, 86
2, 13440, Note_on_c, 0, 72, 86
2, 13680, Note_on_c, 0, 72, 0
2, 13680, Note_on_c, 0, 67, 0
2, 13680, Note_on_c, 0, 64, 0
2, 15360, Note_on_c, 0, 64, 99
2, 16320, Note_on_c, 0, 64, 0
2, 16320, Note_on_c, 0, 64, 99
2, 17280, Note_on_c, 0, 64, 0
2, 17280, Note_on_c, 0, 76, 60
2, 17280, Note_on_c, 0, 88, 60
2, 17520, Note_on_c, 0, 88, 0
2, 17520, Note_on_c, 0, 76, 0
2, 17520, Note_on_c, 0, 76, 60
2, 17520, Note_on_c, 0, 88, 60
2, 17760, Note_on_c, 0, 88, 0
2, 17760, Note_on_c, 0, 76, 0
2, 17760, Note_on_c, 0, 76, 60
2, 17760, Note_on_c, 0, 88, 60
2, 18000, Note_on_c, 0, 88, 0
2, 18000, Note_on_c, 0, 76, 0
2, 18000, Note_on_c, 0, 76, 60
2, 18000, Note_on_c, 0, 88, 60
2, 18240, Note_on_c, 0, 88, 0
2, 18240, Note_on_c, 0, 76, 0
2, 18240, Note_on_c, 0, 74, 60
2, 18240, Note_on_c, 0, 86, 60
2, 18720, Note_on_c, 0, 86, 0
2, 18720, Note_on_c, 0, 74, 0
2, 18720, Note_on_c, 0, 72, 60
2, 18720, Note_on_c, 0, 84, 60
2, 18960, Note_on_c, 0, 84, 0
2, 18960, Note_on_c, 0, 72, 0
2, 18960, Note_on_c, 0, 72, 60
2, 18960, Note_on_c, 0, 84, 60
2, 19200, Note_on_c, 0, 84, 0
2, 19200, Note_on_c, 0, 72, 0
2, 19200, Note_on_c, 0, 71, 60
2, 19200, Note_on_c, 0, 83, 60
2, 19680, Note_on_c, 0, 83, 0
2, 19680, Note_on_c, 0, 71, 0
2, 19680, Note_on_c, 0, 81, 60
2, 20160, Note_on_c, 0, 81, 0
2, 21120, Note_on_c, 0, 76, 60
2, 21120, Note_on_c, 0, 88, 60
2, 21360, Note_on_c, 0, 88, 0
2, 21360, Note_on_c, 0, 76, 0
2, 21360, Note_on_c, 0, 76, 60
2, 21360, Note_on_c, 0, 88, 60
2, 21600, Note_on_c, 0, 88, 0
2, 21600, Note_on_c, 0, 76, 0
2, 21600, Note_on_c, 0, 76, 60
2, 21600, Note_on_c, 0, 88, 60
2, 21840, Note_on_c, 0, 88, 0
2, 21840, Note_on_c, 0, 76, 0
2, 21840, Note_on_c, 0, 76, 60
2, 21840, Note_on_c, 0, 88, 60
2, 22080, Note_on_c, 0, 88, 0
2, 22080, Note_on_c, 0, 76, 0
2, 22080, Note_on_c, 0, 74, 60
2, 22080, Note_on_c, 0, 86, 60
2, 22560, Note_on_c, 0, 86, 0
2, 22560, Note_on_c, 0, 74, 0
2, 22560, Note_on_c, 0, 72, 60
2, 22560, Note_on_c, 0, 84, 60
2, 22800, Note_on_c, 0, 84, 0
2, 22800, Note_on_c, 0, 72, 0
2, 22800, Note_on_c, 0, 72, 60
2, 22800, Note_on_c, 0, 84, 60
2, 23040, Note_on_c, 0, 84, 0
2, 23040, Note_on_c, 0, 72, 0
2, 23040, Note_on_c, 0, 71, 60
2, 23040, Note_on_c, 0, 83, 60
2, 23520, Note_on_c, 0, 83, 0
2, 23520, Note_on_c, 0, 71, 0
2, 23520, Note_on_c, 0, 81, 60
2, 24000, Note_on_c, 0, 81, 0
2, 24960, Note_on_c, 0, 71, 60
2, 24960, Note_on_c, 0, 76, 60
2, 24960, Note_on_c, 0, 83, 60
2, 25680, Note_on_c, 0, 83, 0
2, 25680, Note_on_c, 0, 76, 0
2, 25680, Note_on_c, 0, 71, 0
2, 25680, Note_on_c, 0, 72, 60
2, 25680, Note_on_c, 0, 81, 60
2, 25680, Note_on_c, 0, 84, 60
2, 25920, Note_on_c, 0, 84, 0
2, 25920, Note_on_c, 0, 81, 0
2, 25920, Note_on_c, 0, 72, 0
2, 25920, Note_on_c, 0, 74, 60
2, 25920, Note_on_c, 0, 83, 60
2, 25920, Note_on_c, 0, 86, 60
2, 26160, Note_on_c, 0, 86, 0
2, 26160, Note_on_c, 0, 83, 0
2, 26160, Note_on_c, 0, 74, 0
2, 26160, Note_on_c, 0, 74, 60
2, 26160, Note_on_c, 0, 83, 60
2, 26160, Note_on_c, 0, 86, 60
2, 26400, Note_on_c, 0, 86, 0
2, 26400, Note_on_c, 0, 83, 0
2, 26400, Note_on_c, 0, 74, 0
2, 26400, Note_on_c, 0, 72, 60
2, 26400, Note_on_c, 0, 81, 60
2, 26400, Note_on_c, 0, 84, 60
2, 26640, Note_on_c, 0, 84, 0
2, 26640, Note_on_c, 0, 81, 0
2, 26640, Note_on_c, 0, 72, 0
2, 26640, Note_on_c, 0, 72, 60
2, 26640, Note_on_c, 0, 81, 60
2, 26640, Note_on_c, 0, 84, 60
2, 26880, Note_on_c, 0, 84, 0
2, 26880, Note_on_c, 0, 81, 0
2, 26880, Note_on_c, 0, 72, 0
2, 26880, Note_on_c, 0, 71, 60
2, 26880, Note_on_c, 0, 80, 60
2, 26880, Note_on_c, 0, 83, 60
2, 27360, Note_on_c, 0, 83, 0
2, 27360, Note_on_c, 0, 80, 0
2, 27360, Note_on_c, 0, 71, 0
2, 27360, Note_on_c, 0, 78, 60
2, 27360, Note_on_c, 0, 81, 60
2, 27840, Note_on_c, 0, 81, 0
2, 27840, Note_on_c, 0, 78, 0
2, 28800, Note_on_c, 0, 71, 60
2, 28800, Note_on_c, 0, 76, 60
2, 28800, Note_on_c, 0, 83, 60
2, 29520, Note_on_c, 0, 83, 0
2, 29520, Note_on_c, 0, 76, 0
2, 29520, Note_on_c, 0, 71, 0
2, 29520, Note_on_c, 0, 72, 60
2, 29520, Note_on_c, 0, 81, 60
2, 29520, Note_on_c, 0, 84, 60
2, 29760, Note_on_c, 0, 84, 0
2, 29760, Note_on_c, 0, 81, 0
2, 29760, Note_on_c, 0, 72, 0
2, 29760, Note_on_c, 0, 74, 60
2, 29760, Note_on_c, 0, 83, 60
2, 29760, Note_on_c, 0, 86, 60
2, 30000, Note_on_c, 0, 86, 0
2, 30000, Note_on_c, 0, 83, 0
2, 30000, Note_on_c, 0, 74, 0
2, 30000, Note_on_c, 0, 74, 60
2, 30000, Note_on_c, 0, 83, 60
2, 30000, Note_on_c, 0, 86, 60
2, 30240, Note_on_c, 0, 86, 0
2, 30240, Note_on_c, 0, 83, 0
2, 30240, Note_on_c, 0, 74, 0
2, 30240, Note_on_c, 0, 72, 60
2, 30240, Note_on_c, 0, 81, 60
2, 30240, Note_on_c, 0, 84, 60
2, 30480, Note_on_c, 0, 84, 0
2, 30480, Note_on_c, 0, 81, 0
2, 30480, Note_on_c, 0, 72, 0
2, 30480, Note_on_c, 0, 72, 60
2, 30480, Note_on_c, 0, 81, 60
2, 30480, Note_on_c, 0, 84, 60
2, 30720, Note_on_c, 0, 84, 0
2, 30720, Note_on_c, 0, 81, 0
2, 30720, Note_on_c, 0, 72, 0
2, 30720, Note_on_c, 0, 71, 60
2, 30720, Note_on_c, 0, 80, 60
2, 30720, Note_on_c, 0, 83, 60
2, 31200, Note_on_c, 0, 83, 0
2, 31200, Note_on_c, 0, 80, 0
2, 31200, Note_on_c, 0, 71, 0
2, 31200, Note_on_c, 0, 78, 60
2, 31200, Note_on_c, 0, 81, 60
2, 31680, Note_on_c, 0, 81, 0
2, 31680, Note_on_c, 0, 78, 0
2, 32640, Note_on_c, 0, 71, 60
2, 32640, Note_on_c, 0, 80, 60
2, 32640, Note_on_c, 0, 83, 60
2, 33120, Note_on_c, 0, 83, 0
2, 33120, Note_on_c, 0, 80, 0
2, 33120, Note_on_c, 0, 71, 0
2, 33120, Note_on_c, 0, 81, 60
2, 33120, Note_on_c, 0, 84, 60
2, 33600, Note_on_c, 0, 84, 0
2, 33600, Note_on_c, 0, 81, 0
2, 34560, Note_on_c, 0, 75, 60
2, 34560, Note_on_c, 0, 83, 60
2, 34560, Note_on_c, 0, 87, 60
2, 35040, Note_on_c, 0, 87, 0
2, 35040, Note_on_c, 0, 83, 0
2, 35040, Note_on_c, 0, 75, 0
2, 35040, Note_on_c, 0, 84, 60
2, 35040, Note_on_c, 0, 88, 60
2, 35520, Note_on_c, 0, 88, 0
2, 35520, Note_on_c, 0, 84, 0
2, 36480, Note_on_c, 0, 71, 60
2, 36480, Note_on_c, 0, 80, 60
2, 36480, Note_on_c, 0, 83, 60
2, 36960, Note_on_c, 0, 83, 0
2, 36960, Note_on_c, 0, 80, 0
2, 36960, Note_on_c, 0, 71, 0
2, 36960, Note_on_c, 0, 81, 60
2, 36960, Note_on_c, 0, 84, 60
2, 37440, Note_on_c, 0, 84, 0
2, 37440, Note_on_c, 0, 81, 0
2, 38400, Note_on_c, 0, 75, 60
2, 38400, Note_on_c, 0, 83, 60
2, 38400, Note_on_c, 0, 87, 60
2, 38880, Note_on_c, 0, 87, 0
2, 38880, Note_on_c, 0, 83, 0
2, 38880, Note_on_c, 0, 75, 0
2, 38880, Note_on_c, 0, 84, 60
2, 38880, Note_on_c, 0, 88, 60
2, 39360, Note_on_c, 0, 88, 0
2, 39360, Note_on_c, 0, 84, 0
2, 40320, Note_on_c, 0, 73, 73
2, 40320, Note_on_c, 0, 85, 73
2, 40800, Note_on_c, 0, 85, 0
2, 40800, Note_on_c, 0, 73, 0
2, 40800, Note_on_c, 0, 82, 73
2, 40800, Note_on_c, 0, 86, 73
2, 41280, Note_on_c, 0, 86, 0
2, 41280, Note_on_c, 0, 82, 0
2, 42240, Note_on_c, 0, 78, 73
2, 42240, Note_on_c, 0, 87, 73
2, 42240, Note_on_c, 0, 90, 73
2, 42720, Note_on_c, 0, 90, 0
2, 42720, Note_on_c, 0, 87, 0
2, 42720, Note_on_c, 0, 78, 0
2, 42720, Note_on_c, 0, 88, 73
2, 42720, Note_on_c, 0, 91, 73
2, 42960, Note_on_c, 0, 91, 0
2, 42960, Note_on_c, 0, 88, 0
2, 44160, Note_on_c, 0, 73, 73
2, 44160, Note_on_c, 0, 85, 73
2, 44640, Note_on_c, 0, 85, 0
2, 44640, Note_on_c, 0, 73, 0
2, 44640, Note_on_c, 0, 82, 73
2, 44640, Note_on_c, 0, 86, 73
2, 45120, Note_on_c, 0, 86, 0
2, 45120, Note_on_c, 0, 82, 0
2, 46080, Note_on_c, 0, 78, 73
2, 46080, Note_on_c, 0, 87, 73
2, 46080, Note_on_c, 0, 90, 73
2, 46560, Note_on_c, 0, 90, 0
2, 46560, Note_on_c, 0, 87, 0
2, 46560, Note_on_c, 0, 78, 0
2, 46560, Note_on_c, 0, 88, 73
2, 46560, Note_on_c, 0, 91, 73
2, 46800, Note_on_c, 0, 91, 0
2, 46800, Note_on_c, 0, 88, 0
2, 48000, Note_on_c, 0, 64, 73
2, 48000, Note_on_c, 0, 76, 73
2, 48120, Note_on_c, 0, 76, 0
2, 48120, Note_on_c, 0, 64, 0
2, 48120, Note_on_c, 0, 74, 73
2, 48240, Note_on_c, 0, 74, 0
2, 48240, Note_on_c, 0, 72, 73
2, 48360, Note_on_c, 0, 72, 0
2, 48360, Note_on_c, 0, 70, 73
2, 48480, Note_on_c, 0, 70, 0
2, 48480, Note_on_c, 0, 69, 73
2, 48600, Note_on_c, 0, 69, 0
2, 48600, Note_on_c, 0, 67, 73
2, 48720, Note_on_c, 0, 67, 0
2, 48720, Note_on_c, 0, 65, 73
2, 48840, Note_on_c, 0, 65, 0
2, 48840, Note_on_c, 0, 64, 73
2, 48960, Note_on_c, 0, 64, 0
2, 48960, Note_on_c, 0, 67, 73
2, 48960, Note_on_c, 0, 79, 73
2, 49080, Note_on_c, 0, 79, 0
2, 49080, Note_on_c, 0, 67, 0
2, 49080, Note_on_c, 0, 77, 73
2, 49200, Note_on_c, 0, 77, 0
2, 49200, Note_on_c, 0, 76, 73
2, 49320, Note_on_c, 0, 76, 0
2, 49320, Note_on_c, 0, 74, 73
2, 49440, Note_on_c, 0, 74, 0
2, 49440, Note_on_c, 0, 72, 73
2, 49560, Note_on_c, 0, 72, 0
2, 49560, Note_on_c, 0, 70, 73
2, 49680, Note_on_c, 0, 70, 0
2, 49680, Note_on_c, 0, 69, 73
2, 49800, Note_on_c, 0, 69, 0
2, 49800, Note_on_c, 0, 67, 73
2, 49920, Note_on_c, 0, 67, 0
2, 49920, Note_on_c, 0, 70, 73
2, 49920, Note_on_c, 0, 82, 73
2, 50040, Note_on_c, 0, 82, 0
2, 50040, Note_on_c, 0, 70, 0
2, 50040, Note_on_c, 0, 81, 73
2, 50160, Note_on_c, 0, 81, 0
2, 50160, Note_on_c, 0, 79, 73
2, 50280, Note_on_c, 0, 79, 0
2, 50280, Note_on_c, 0, 77, 73
2, 50400, Note_on_c, 0, 77, 0
2, 50400, Note_on_c, 0, 76, 73
2, 50520, Note_on_c, 0, 76, 0
2, 50520, Note_on_c, 0, 74, 73
2, 50640, Note_on_c, 0, 74, 0
2, 50640, Note_on_c, 0, 72, 73
2, 50760, Note_on_c, 0, 72, 0
2, 50760, Note_on_c, 0, 70, 73
2, 50880, Note_on_c, 0, 70, 0
2, 50880, Note_on_c, 0, 76, 73
2, 50880, Note_on_c, 0, 88, 73
2, 51000, Note_on_c, 0, 88, 0
2, 51000, Note_on_c, 0, 76, 0
2, 51000, Note_on_c, 0, 86, 73
2, 51120, Note_on_c, 0, 86, 0
2, 51120, Note_on_c, 0, 84, 73
2, 51240, Note_on_c, 0, 84, 0
2, 51240, Note_on_c, 0, 82, 73
2, 51360, Note_on_c, 0, 82, 0
2, 51360, Note_on_c, 0, 81, 73
2, 51480, Note_on_c, 0, 81, 0
2, 51480, Note_on_c, 0, 79, 73
2, 51600, Note_on_c, 0, 79, 0
2, 51600, Note_on_c, 0, 77, 73
2, 51720, Note_on_c, 0, 77, 0
2, 51720, Note_on_c, 0, 76, 73
2, 51840, Note_on_c, 0, 76, 0
2, 51840, Note_on_c, 0, 79, 86
2, 51840, Note_on_c, 0, 91, 86
2, 51960, Note_on_c, 0, 91, 0
2, 51960, Note_on_c, 0, 79, 0
2, 51960, Note_on_c, 0, 89, 86
2, 52080, Note_on_c, 0, 89, 0
2, 52080, Note_on_c, 0, 88, 86
2, 52200, Note_on_c, 0, 88, 0
2, 52200, Note_on_c, 0, 86, 86
2, 52320, Note_on_c, 0, 86, 0
2, 52320, Note_on_c, 0, 84, 86
2, 52440, Note_on_c, 0, 84, 0
2, 52440, Note_on_c, 0, 82, 86
2, 52560, Note_on_c, 0, 82, 0
2, 52560, Note_on_c, 0, 81, 86
2, 52680, Note_on_c, 0, 81, 0
2, 52680, Note_on_c, 0, 79, 86
2, 52800, Note_on_c, 0, 79, 0
2, 52800, Note_on_c, 0, 82, 86
2, 52800, Note_on_c, 0, 94, 86
2, 52920, Note_on_c, 0, 94, 0
2, 52920, Note_on_c, 0, 82, 0
2, 52920, Note_on_c, 0, 93, 86
2, 53040, Note_on_c, 0, 93, 0
2, 53040, Note_on_c, 0, 91, 86
2, 53160, Note_on_c, 0, 91, 0
2, 53160, Note_on_c, 0, 89, 86
2, 53280, Note_on_c, 0, 89, 0
2, 53280, Note_on_c, 0, 88, 86
2, 53400, Note_on_c, 0, 88, 0
2, 53400, Note_on_c, 0, 86, 86
2, 53520, Note_on_c, 0, 86, 0
2, 53520, Note_on_c, 0, 84, 86
2, 53640, Note_on_c, 0, 84, 0
2, 53640, Note_on_c, 0, 82, 86
2, 53760, Note_on_c, 0, 82, 0
2, 53760, Note_on_c, 0, 81, 86
2, 53880, Note_on_c, 0, 81, 0
2, 53880, Note_on_c, 0, 79, 86
2, 54000, Note_on_c, 0, 79, 0
2, 54000, Note_on_c, 0, 77, 86
2, 54120, Note_on_c, 0, 77, 0
2, 54120, Note_on_c, 0, 74, 86
2, 54240, Note_on_c, 0, 74, 0
2, 54240, Note_on_c, 0, 76, 86
2, 54360, Note_on_c, 0, 76, 0
2, 54360, Note_on_c, 0, 77, 86
2, 54480, Note_on_c, 0, 77, 0
2, 54480, Note_on_c, 0, 79, 86
2, 54600, Note_on_c, 0, 79, 0
2, 54600, Note_on_c, 0, 81, 86
2, 54720, Note_on_c, 0, 81, 0
2, 54720, Note_on_c, 0, 82, 86
2, 54840, Note_on_c, 0, 82, 0
2, 54840, Note_on_c, 0, 81, 86
2, 54960, Note_on_c, 0, 81, 0
2, 54960, Note_on_c, 0, 79, 86
2, 55080, Note_on_c, 0, 79, 0
2, 55080, Note_on_c, 0, 81, 86
2, 55200, Note_on_c, 0, 81, 0
2, 55200, Note_on_c, 0, 82, 86
2, 55320, Note_on_c, 0, 82, 0
2, 55320, Note_on_c, 0, 84, 86
2, 55440, Note_on_c, 0, 84, 0
2, 55440, Note_on_c, 0, 86, 86
2, 55560, Note_on_c, 0, 86, 0
2, 55560, Note_on_c, 0, 88, 86
2, 55680, Note_on_c, 0, 88, 0
2, 55680, Note_on_c, 0, 89, 86
2, 56640, Note_on_c, 0, 89, 0
2, 56640, Note_on_c, 0, 88, 86
2, 57360, Note_on_c, 0, 88, 0
2, 57360, Note_on_c, 0, 74, 86
2, 57360, Note_on_c, 0, 86, 86
2, 57600, Note_on_c, 0, 86, 0
2, 57600, Note_on_c, 0, 74, 0
2, 57600, Note_on_c, 0, 72, 86
2, 57600, Note_on_c, 0, 77, 86
2, 57600, Note_on_c, 0, 81, 86
2, 57600, Note_on_c, 0, 84, 86
2, 57720, Note_on_c, 0, 84, 0
2, 57720, Note_on_c, 0, 72, 0
2, 57720, Note_on_c, 0, 77, 0
2, 57720, Note_on_c, 0, 81, 0
2, 57720, Control_c, 0, 64, 0
2, 57720, Note_on_c, 0, 81, 86
2, 57840, Note_on_c, 0, 81, 0
2, 57840, Note_on_c, 0, 84, 86
2, 57960, Note_on_c, 0, 84, 0
2, 57960, Note_on_c, 0, 86, 86
2, 58080, Note_on_c, 0, 86, 0
2, 58080, Note_on_c, 0, 76, 86
2, 58080, Note_on_c, 0, 88, 86
2, 58200, Note_on_c, 0, 88, 0
2, 58200, Note_on_c, 0, 76, 0
2, 58200, Note_on_c, 0, 86, 86
2, 58320, Note_on_c, 0, 86, 0
2, 58320, Note_on_c, 0, 84, 86
2, 58440, Note_on_c, 0, 84, 0
2, 58440, Note_on_c, 0, 82, 86
2, 58560, Note_on_c, 0, 82, 0
2, 58560, Note_on_c, 0, 81, 86
2, 58680, Note_on_c, 0, 81, 0
2, 58680, Note_on_c, 0, 77, 86
2, 58800, Note_on_c, 0, 77, 0
2, 58800, Note_on_c, 0, 81, 86
2, 58920, Note_on_c, 0, 81, 0
2, 58920, Note_on_c, 0, 82, 86
2, 59040, Note_on_c, 0, 82, 0
2, 59040, Note_on_c, 0, 84, 86
2, 59160, Note_on_c, 0, 84, 0
2, 59160, Note_on_c, 0, 82, 86
2, 59280, Note_on_c, 0, 82, 0
2, 59280, Note_on_c, 0, 81, 86
2, 59400, Note_on_c, 0, 81, 0
2, 59400, Note_on_c, 0, 79, 86
2, 59520, Note_on_c, 0, 79, 0
2, 59520, Note_on_c, 0, 81, 86
2, 59640, Note_on_c, 0, 81, 0
2, 59640, Note_on_c, 0, 79, 86
2, 59760, Note_on_c, 0, 79, 0
2, 59760, Note_on_c, 0, 77, 86
2, 59880, Note_on_c, 0, 77, 0
2, 59880, Note_on_c, 0, 76, 86
2, 60000, Note_on_c, 0, 76, 0
2, 60000, Note_on_c, 0, 77, 86
2, 60120, Note_on_c, 0, 77, 0
2, 60120, Note_on_c, 0, 76, 86
2, 60240, Note_on_c, 0, 76, 0
2, 60240, Note_on_c, 0, 74, 86
2, 60360, Note_on_c, 0, 74, 0
2, 60360, Note_on_c, 0, 72, 86
2, 60480, Note_on_c, 0, 72, 0
2, 60480, Note_on_c, 0, 74, 86
2, 60600, Note_on_c, 0, 74, 0
2, 60600, Note_on_c, 0, 72, 86
2, 60720, Note_on_c, 0, 72, 0
2, 60720, Note_on_c, 0, 70, 86
2, 60840, Note_on_c, 0, 70, 0
2, 60840, Note_on_c, 0, 69, 86
2, 60960, Note_on_c, 0, 69, 0
2, 60960, Note_on_c, 0, 67, 86
2, 61200, Note_on_c, 0, 67, 0
2, 61200, Note_on_c, 0, 60, 86
2, 61200, Note_on_c, 0, 72, 86
2, 61440, Note_on_c, 0, 72, 0
2, 61440, Note_on_c, 0, 60, 0
2, 61440, Note_on_c, 0, 57, 86
2, 61440, Note_on_c, 0, 60, 86
2, 61440, Note_on_c, 0, 65, 86
2, 61680, Note_on_c, 0, 65, 0
2, 61680, Note_on_c, 0, 60, 0
2, 61680, Note_on_c, 0, 57, 0
2, 62040, Control_c, 0, 64, 127
2, 62040, Note_on_c, 0, 70, 86
2, 62160, Note_on_c, 0, 70, 0
2, 62160, Note_on_c, 0, 72, 86
2, 62280, Note_on_c, 0, 72, 0
2, 62280, Note_on_c, 0, 74, 86
2, 62400, Note_on_c, 0, 74, 0
2, 62400, Note_on_c, 0, 76, 86
2, 62520, Note_on_c, 0, 76, 0
2, 62520, Note_on_c, 0, 77, 86
2, 62640, Note_on_c, 0, 77, 0
2, 62640, Note_on_c, 0, 79, 86
2, 62760, Note_on_c, 0, 79, 0
2, 62760, Note_on_c, 0, 81, 86
2, 62880, Note_on_c, 0, 81, 0
2, 62880, Note_on_c, 0, 82, 86
2, 63000, Note_on_c, 0, 82, 0
2, 63000, Note_on_c, 0, 84, 86
2, 63120, Note_on_c, 0, 84, 0
2, 63120, Note_on_c, 0, 86, 86
2, 63240, Note_on_c, 0, 86, 0
2, 63240, Control_c, 0, 64, 0
2, 63240, Note_on_c, 0, 88, 86
2, 63360, Note_on_c, 0, 88, 0
2, 63360, Note_on_c, 0, 89, 86
2, 64320, Note_on_c, 0, 89, 0
2, 64320, Note_on_c, 0, 88, 86
2, 65040, Note_on_c, 0, 88, 0
2, 65040, Note_on_c, 0, 74, 86
2, 65040, Note_on_c, 0, 86, 86
2, 65280, Note_on_c, 0, 86, 0
2, 65280, Note_on_c, 0, 74, 0
2, 65280, Note_on_c, 0, 72, 86
2, 65280, Note_on_c, 0, 77, 86
2, 65280, Note_on_c, 0, 81, 86
2, 65280, Note_on_c, 0, 84, 86
2, 65400, Note_on_c, 0, 84, 0
2, 65400, Note_on_c, 0, 72, 0
2, 65400, Note_on_c, 0, 77, 0
2, 65400, Note_on_c, 0, 81, 0
2, 65400, Control_c, 0, 64, 0
2, 65400, Note_on_c, 0, 81, 86
2, 65520, Note_on_c, 0, 81, 0
2, 65520, Note_on_c, 0, 84, 86
2, 65640, Note_on_c, 0, 84, 0
2, 65640, Note_on_c, 0, 86, 86
2, 65760, Note_on_c, 0, 86, 0
2, 65760, Note_on_c, 0, 88, 86
2, 65880, Note_on_c, 0, 88, 0
2, 65880, Note_on_c, 0, 86, 86
2, 66000, Note_on_c, 0, 86, 0
2, 66000, Note_on_c, 0, 84, 86
2, 66120, Note_on_c, 0, 84, 0
2, 66120, Note_on_c, 0, 83, 86
2, 66240, Note_on_c, 0, 83, 0
2, 66240, Note_on_c, 0, 81, 86
2, 66360, Note_on_c, 0, 81, 0
2, 66360, Note_on_c, 0, 80, 86
2, 66480, Note_on_c, 0, 80, 0
2, 66480, Note_on_c, 0, 81, 86
2, 66600, Note_on_c, 0, 81, 0
2, 66600, Note_on_c, 0, 83, 86
2, 66720, Note_on_c, 0, 83, 0
2, 66720, Note_on_c, 0, 84, 86
2, 66840, Note_on_c, 0, 84, 0
2, 66840, Note_on_c, 0, 83, 86
2, 66960, Note_on_c, 0, 83, 0
2, 66960, Note_on_c, 0, 81, 86
2, 67080, Note_on_c, 0, 81, 0
2, 67080, Note_on_c, 0, 80, 86
2, 67200, Note_on_c, 0, 80, 0
2, 67200, Note_on_c, 0, 81, 86
2, 67320, Note_on_c, 0, 81, 0
2, 67320, Note_on_c, 0, 79, 86
2, 67440, Note_on_c, 0, 79, 0
2, 67440, Note_on_c, 0, 77, 86
2, 67560, Note_on_c, 0, 77, 0
2, 67560, Note_on_c, 0, 76, 86
2, 67680, Note_on_c, 0, 76, 0
2, 67680, Note_on_c, 0, 77, 86
2, 67800, Note_on_c, 0, 77, 0
2, 67800, Note_on_c, 0, 76, 86
2, 67920, Note_on_c, 0, 76, 0
2, 67920, Note_on_c, 0, 74, 86
2, 68040, Note_on_c, 0, 74, 0
2, 68040, Note_on_c, 0, 73, 86
2, 68160, Note_on_c, 0, 73, 0
2, 68160, Note_on_c, 0, 74, 86
2, 68280, Note_on_c, 0, 74, 0
2, 68280, Note_on_c, 0, 72, 86
2, 68400, Note_on_c, 0, 72, 0
2, 68400, Note_on_c, 0, 71, 86
2, 68520, Note_on_c, 0, 71, 0
2, 68520, Note_on_c, 0, 69, 86
2, 68640, Note_on_c, 0, 69, 0
2, 68640, Note_on_c, 0, 67, 86
2, 68880, Note_on_c, 0, 67, 0
2, 68880, Note_on_c, 0, 67, 86
2, 68880, Note_on_c, 0, 79, 86
2, 69120, Note_on_c, 0, 79, 0
2, 69120, Note_on_c, 0, 67, 0
2, 69120, Note_on_c, 0, 64, 86
2, 69120, Note_on_c, 0, 67, 86
2, 69120, Note_on_c, 0, 72, 86
2, 69360, Note_on_c, 0, 72, 0
2, 69360, Note_on_c, 0, 67, 0
2, 69360, Note_on_c, 0, 64, 0
2, 69720, Control_c, 0, 64, 127
2, 69720, Note_on_c, 0, 72, 86
2, 69840, Note_on_c, 0, 72, 0
2, 69840, Note_on_c, 0, 74, 86
2, 69960, Note_on_c, 0, 74, 0
2, 69960, Note_on_c, 0, 76, 86
2, 70080, Note_on_c, 0, 76, 0
2, 70080, Note_on_c, 0, 77, 86
2, 70200, Note_on_c, 0, 77, 0
2, 70200, Note_on_c, 0, 79, 86
2, 70320, Note_on_c, 0, 79, 0
2, 70320, Note_on_c, 0, 81, 86
2, 70440, Note_on_c, 0, 81, 0
2, 70440, Note_on_c, 0, 82, 86
2, 70560, Note_on_c, 0, 82, 0
2, 70560, Note_on_c, 0, 84, 86
2, 70680, Note_on_c, 0, 84, 0
2, 70680, Note_on_c, 0, 86, 86
2, 70800, Note_on_c, 0, 86, 0
2, 70800, Note_on_c, 0, 88, 86
2, 70920, Note_on_c, 0, 88, 0
2, 70920, Control_c, 0, 64, 0
2, 70920, Note_on_c, 0, 89, 86
2, 71040, Note_on_c, 0, 89, 0
2, 71040, Note_on_c, 0, 79, 86
2, 71040, Note_on_c, 0, 84, 86
2, 71040, Note_on_c, 0, 91, 86
2, 71520, Note_on_c, 0, 91, 0
2, 71520, Note_on_c, 0, 84, 0
2, 71520, Note_on_c, 0, 79, 0
2, 71520, Note_on_c, 0, 74, 86
2, 71520, Note_on_c, 0, 82, 86
2, 71520, Note_on_c, 0, 86, 86
2, 71880, Note_on_c, 0, 86, 0
2, 71880, Note_on_c, 0, 82, 0
2, 71880, Note_on_c, 0, 74, 0
2, 71880, Note_on_c, 0, 77, 86
2, 71880, Note_on_c, 0, 82, 86
2, 71880, Note_on_c, 0, 89, 86
2, 72000, Note_on_c, 0, 89, 0
2, 72000, Note_on_c, 0, 82, 0
2, 72000, Note_on_c, 0, 77, 0
2, 72000, Note_on_c, 0, 77, 86
2, 72000, Note_on_c, 0, 82, 86
2, 72000, Note_on_c, 0, 89, 86
2, 72240, Note_on_c, 0, 89, 0
2, 72240, Note_on_c, 0, 82, 0
2, 72240, Note_on_c, 0, 77, 0
2, 72240, Note_on_c, 0, 76, 86
2, 72240, Note_on_c, 0, 82, 86
2, 72240, Note_on_c, 0, 88, 86
2, 72480, Note_on_c, 0, 88, 0
2, 72480, Note_on_c, 0, 82, 0
2, 72480, Note_on_c, 0, 76, 0
2, 72480, Note_on_c, 0, 74, 86
2, 72480, Note_on_c, 0, 77, 86
2, 72480, Note_on_c, 0, 83, 86
2, 72480, Note_on_c, 0, 86, 86
2, 72960, Note_on_c, 0, 86, 0
2, 72960, Note_on_c, 0, 74, 0
2, 72960, Note_on_c, 0, 77, 0
2, 72960, Note_on_c, 0, 83, 0
2, 72960, Note_on_c, 0, 72, 86
2, 72960, Note_on_c, 0, 77, 86
2, 72960, Note_on_c, 0, 84, 86
2, 73440, Note_on_c, 0, 84, 0
2, 73440, Note_on_c, 0, 77, 0
2, 73440, Note_on_c, 0, 72, 0
2, 73440, Note_on_c, 0, 74, 86
2, 73440, Note_on_c, 0, 77, 86
2, 73440, Note_on_c, 0, 86, 86
2, 73800, Note_on_c, 0, 86, 0
2, 73800, Note_on_c, 0, 77, 0
2, 73800, Note_on_c, 0, 74, 0
2, 73800, Note_on_c, 0, 69, 86
2, 73800, Note_on_c, 0, 77, 86
2, 73800, Note_on_c, 0, 81, 86
2, 73920, Note_on_c, 0, 81, 0
2, 73920, Note_on_c, 0, 77, 0
2, 73920, Note_on_c, 0, 69, 0
2, 73920, Note_on_c, 0, 69, 86
2, 73920, Note_on_c, 0, 77, 86
2, 73920, Note_on_c, 0, 81, 86
2, 74160, Note_on_c, 0, 81, 0
2, 74160, Note_on_c, 0, 77, 0
2, 74160, Note_on_c, 0, 69, 0
2, 74160, Note_on_c, 0, 70, 86
2, 74160, Note_on_c, 0, 77, 86
2, 74160, Note_on_c, 0, 79, 86
2, 74160, Note_on_c, 0, 82, 86
2, 74400, Note_on_c, 0, 82, 0
2, 74400, Note_on_c, 0, 70, 0
2, 74400, Note_on_c, 0, 77, 0
2, 74400, Note_on_c, 0, 79, 0
2, 74400, Note_on_c, 0, 72, 86
2, 74400, Note_on_c, 0, 77, 86
2, 74400, Note_on_c, 0, 81, 86
2, 74400, Note_on_c, 0, 84, 86
2, 74880, Note_on_c, 0, 84, 0
2, 74880, Note_on_c, 0, 72, 0
2, 74880, Note_on_c, 0, 77, 0
2, 74880, Note_on_c, 0, 81, 0
2, 74880, Note_on_c, 0, 74, 86
2, 74880, Note_on_c, 0, 77, 86
2, 74880, Note_on_c, 0, 80, 86
2, 74880, Note_on_c, 0, 86, 86
2, 75360, Note_on_c, 0, 86, 0
2, 75360, Note_on_c, 0, 74, 0
2, 75360, Note_on_c, 0, 77, 0
2, 75360, Note_on_c, 0, 80, 0
2, 75360, Note_on_c, 0, 76, 86
2, 75360, Note_on_c, 0, 79, 86
2, 75360, Note_on_c, 0, 88, 86
2, 75720, Note_on_c, 0, 88, 0
2, 75720, Note_on_c, 0, 79, 0
2, 75720, Note_on_c, 0, 76, 0
2, 75720, Note_on_c, 0, 72, 86
2, 75720, Note_on_c, 0, 77, 86
2, 75720, Note_on_c, 0, 84, 86
2, 75840, Note_on_c, 0, 84, 0
2, 75840, Note_on_c, 0, 77, 0
2, 75840, Note_on_c, 0, 72, 0
2, 75840, Note_on_c, 0, 72, 86
2, 75840, Note_on_c, 0, 77, 86
2, 75840, Note_on_c, 0, 84, 86
2, 76080, Note_on_c, 0, 84, 0
2, 76080, Note_on_c, 0, 77, 0
2, 76080, Note_on_c, 0, 72, 0
2, 76080, Note_on_c, 0, 74, 86
2, 76080, Note_on_c, 0, 77, 86
2, 76080, Note_on_c, 0, 83, 86
2, 76080, Note_on_c, 0, 86, 86
2, 76320, Note_on_c, 0, 86, 0
2, 76320, Note_on_c, 0, 74, 0
2, 76320, Note_on_c, 0, 77, 0
2, 76320, Note_on_c, 0, 83, 0
2, 76320, Note_on_c, 0, 76, 86
2, 76320, Note_on_c, 0, 82, 86
2, 76320, Note_on_c, 0, 88, 86
2, 76560, Note_on_c, 0, 88, 0
2, 76560, Note_on_c, 0, 82, 0
2, 76560, Note_on_c, 0, 76, 0
2, 76560, Note_on_c, 0, 70, 86
2, 76560, Note_on_c, 0, 76, 86
2, 76560, Note_on_c, 0, 82, 86
2, 76800, Note_on_c, 0, 82, 0
2, 76800, Note_on_c, 0, 76, 0
2, 76800, Note_on_c, 0, 70, 0
2, 76800, Note_on_c, 0, 69, 86
2, 76800, Note_on_c, 0, 77, 86
2, 76800, Note_on_c, 0, 81, 86
2, 77040, Note_on_c, 0, 81, 0
2, 77040, Note_on_c, 0, 77, 0
2, 77040, Note_on_c, 0, 69, 0
2, 77040, Note_on_c, 0, 70, 86
2, 77040, Note_on_c, 0, 77, 86
2, 77040, Note_on_c, 0, 82, 86
2, 77280, Note_on_c, 0, 82, 0
2, 77280, Note_on_c, 0, 77, 0
2, 77280, Note_on_c, 0, 70, 0
2, 77280, Note_on_c, 0, 72, 86
2, 77280, Note_on_c, 0, 77, 86
2, 77280, Note_on_c, 0, 84, 86
2, 77520, Note_on_c, 0, 84, 0
2, 77520, Note_on_c, 0, 77, 0
2, 77520, Note_on_c, 0, 72, 0
2, 77520, Note_on_c, 0, 74, 86
2, 77520, Note_on_c, 0, 77, 86
2, 77520, Note_on_c, 0, 86, 86
2, 77760, Note_on_c, 0, 86, 0
2, 77760, Note_on_c, 0, 77, 0
2, 77760, Note_on_c, 0, 74, 0
2, 77760, Note_on_c, 0, 74, 86
2, 77760, Note_on_c, 0, 77, 86
2, 77760, Note_on_c, 0, 79, 86
2, 78000, Note_on_c, 0, 79, 0
2, 78000, Note_on_c, 0, 77, 0
2, 78000, Note_on_c, 0, 74, 0
2, 78000, Note_on_c, 0, 72, 86
2, 78000, Note_on_c, 0, 76, 86
2, 78000, Note_on_c, 0, 84, 86
2, 78240, Note_on_c, 0, 84, 0
2, 78240, Note_on_c, 0, 76, 0
2, 78240, Note_on_c, 0, 72, 0
2, 78240, Control_c, 0, 64, 127
2, 78240, Note_on_c, 0, 79, 86
2, 78308, Note_on_c, 0, 79, 0
2, 78308, Note_on_c, 0, 81, 86
2, 78377, Note_on_c, 0, 81, 0
2, 78377, Note_on_c, 0, 82, 86
2, 78445, Note_on_c, 0, 82, 0
2, 78445, Note_on_c, 0, 84, 86
2, 78514, Note_on_c, 0, 84, 0
2, 78514, Note_on_c, 0, 86, 86
2, 78582, Note_on_c, 0, 86, 0
2, 78582, Note_on_c, 0, 88, 86
2, 78651, Note_on_c, 0, 88, 0
2, 78651, Control_c, 0, 64, 0
2, 78651, Note_on_c, 0, 89, 86
2, 78720, Note_on_c, 0, 89, 0
2, 78720, Note_on_c, 0, 79, 86
2, 78720, Note_on_c, 0, 84, 86
2, 78720, Note_on_c, 0, 91, 86
2, 79200, Note_on_c, 0, 91, 0
2, 79200, Note_on_c, 0, 84, 0
2, 79200, Note_on_c, 0, 79, 0
2, 79200, Note_on_c, 0, 74, 86
2, 79200, Note_on_c, 0, 82, 86
2, 79200, Note_on_c, 0, 86, 86
2, 79560, Note_on_c, 0, 86, 0
2, 79560, Note_on_c, 0, 82, 0
2, 79560, Note_on_c, 0, 74, 0
2, 79560, Note_on_c, 0, 77, 86
2, 79560, Note_on_c, 0, 82, 86
2, 79560, Note_on_c, 0, 89, 86
2, 79680, Note_on_c, 0, 89, 0
2, 79680, Note_on_c, 0, 82, 0
2, 79680, Note_on_c, 0, 77, 0
2, 79680, Note_on_c, 0, 77, 86
2, 79680, Note_on_c, 0, 82, 86
2, 79680, Note_on_c, 0, 89, 86
2, 79920, Note_on_c, 0, 89, 0
2, 79920, Note_on_c, 0, 82, 0
2, 79920, Note_on_c, 0, 77, 0
2, 79920, Note_on_c, 0, 76, 86
2, 79920, Note_on_c, 0, 82, 86
2, 79920, Note_on_c, 0, 88, 86
2, 80160, Note_on_c, 0, 88, 0
2, 80160, Note_on_c, 0, 82, 0
2, 80160, Note_on_c, 0, 76, 0
2, 80160, Note_on_c, 0, 74, 86
2, 80160, Note_on_c, 0, 77, 86
2, 80160, Note_on_c, 0, 83, 86
2, 80160, Note_on_c, 0, 86, 86
2, 80640, Note_on_c, 0, 86, 0
2, 80640, Note_on_c, 0, 74, 0
2, 80640, Note_on_c, 0, 77, 0
2, 80640, Note_on_c, 0, 83, 0
2, 80640, Note_on_c, 0, 72, 86
2, 80640, Note_on_c, 0, 77, 86
2, 80640, Note_on_c, 0, 84, 86
2, 81120, Note_on_c, 0, 84, 0
2, 81120, Note_on_c, 0, 77, 0
2, 81120, Note_on_c, 0, 72, 0
2, 81120, Note_on_c, 0, 74, 86
2, 81120, Note_on_c, 0, 77, 86
2, 81120, Note_on_c, 0, 86, 86
2, 81480, Note_on_c, 0, 86, 0
2, 81480, Note_on_c, 0, 77, 0
2, 81480, Note_on_c, 0, 74, 0
2, 81480, Note_on_c, 0, 69, 86
2, 81480, Note_on_c, 0, 77, 86
2, 81480, Note_on_c, 0, 81, 86
2, 81600, Note_on_c, 0, 81, 0
2, 81600, Note_on_c, 0, 77, 0
2, 81600, Note_on_c, 0, 69, 0
2, 81600, Note_on_c, 0, 69, 86
2, 81600, Note_on_c, 0, 77, 86
2, 81600, Note_on_c, 0, 81, 86
2, 81840, Note_on_c, 0, 81, 0
2, 81840, Note_on_c, 0, 77, 0
2, 81840, Note_on_c, 0, 69, 0
2, 81840, Note_on_c, 0, 70, 86
2, 81840, Note_on_c, 0, 77, 86
2, 81840, Note_on_c, 0, 79, 86
2, 81840, Note_on_c, 0, 82, 86
2, 82080, Note_on_c, 0, 82, 0
2, 82080, Note_on_c, 0, 70, 0
2, 82080, Note_on_c, 0, 77, 0
2, 82080, Note_on_c, 0, 79, 0
2, 82080, Note_on_c, 0, 72, 86
2, 82080, Note_on_c, 0, 77, 86
2, 82080, Note_on_c, 0, 81, 86
2, 82080, Note_on_c, 0, 84, 86
2, 82560, Note_on_c, 0, 84, 0
2, 82560, Note_on_c, 0, 72, 0
2, 82560, Note_on_c, 0, 77, 0
2, 82560, Note_on_c, 0, 81, 0
2, 82560, Note_on_c, 0, 74, 86
2, 82560, Note_on_c, 0, 77, 86
2, 82560, Note_on_c, 0, 80, 86
2, 82560, Note_on_c, 0, 86, 86
2, 83040, Note_on_c, 0, 86, 0
2, 83040, Note_on_c, 0, 74, 0
2, 83040, Note_on_c, 0, 77, 0
2, 83040, Note_on_c, 0, 80, 0
2, 83040, Note_on_c, 0, 76, 86
2, 83040, Note_on_c, 0, 79, 86
2, 83040, Note_on_c, 0, 82, 86
2, 83040, Note_on_c, 0, 88, 86
2, 83400, Note_on_c, 0, 88, 0
2, 83400, Note_on_c, 0, 76, 0
2, 83400, Note_on_c, 0, 79, 0
2, 83400, Note_on_c, 0, 82, 0
2, 83400, Note_on_c, 0, 70, 86
2, 83400, Note_on_c, 0, 79, 86
2, 83400, Note_on_c, 0, 82, 86
2, 83520, Note_on_c, 0, 82, 0
2, 83520, Note_on_c, 0, 79, 0
2, 83520, Note_on_c, 0, 70, 0
2, 83520, Note_on_c, 0, 70, 86
2, 83520, Note_on_c, 0, 79, 86
2, 83520, Note_on_c, 0, 82, 86
2, 83760, Note_on_c, 0, 82, 0
2, 83760, Note_on_c, 0, 79, 0
2, 83760, Note_on_c, 0, 70, 0
2, 83760, Note_on_c, 0, 72, 86
2, 83760, Note_on_c, 0, 79, 86
2, 83760, Note_on_c, 0, 81, 86
2, 83760, Note_on_c, 0, 84, 86
2, 84000, Note_on_c, 0, 84, 0
2, 84000, Note_on_c, 0, 72, 0
2, 84000, Note_on_c, 0, 79, 0
2, 84000, Note_on_c, 0, 81, 0
2, 84000, Note_on_c, 0, 74, 86
2, 84000, Note_on_c, 0, 79, 86
2, 84000, Note_on_c, 0, 82, 86
2, 84000, Note_on_c, 0, 86, 86
2, 84480, Note_on_c, 0, 86, 0
2, 84480, Note_on_c, 0, 74, 0
2, 84480, Note_on_c, 0, 79, 0
2, 84480, Note_on_c, 0, 82, 0
2, 84480, Note_on_c, 0, 76, 86
2, 84480, Note_on_c, 0, 79, 86
2, 84480, Note_on_c, 0, 82, 86
2, 84480, Note_on_c, 0, 88, 86
2, 84960, Note_on_c, 0, 88, 0
2, 84960, Note_on_c, 0, 76, 0
2, 84960, Note_on_c, 0, 79, 0
2, 84960, Note_on_c, 0, 82, 0
2, 84960, Note_on_c, 0, 77, 86
2, 84960, Note_on_c, 0, 83, 86
2, 84960, Note_on_c, 0, 89, 86
2, 85320, Note_on_c, 0, 89, 0
2, 85320, Note_on_c, 0, 83, 0
2, 85320, Note_on_c, 0, 77, 0
2, 85320, Note_on_c, 0, 76, 86
2, 85320, Note_on_c, 0, 82, 86
2, 85320, Note_on_c, 0, 88, 86
2, 85440, Note_on_c, 0, 88, 0
2, 85440, Note_on_c, 0, 82, 0
2, 85440, Note_on_c, 0, 76, 0
2, 85440, Note_on_c, 0, 76, 86
2, 85440, Note_on_c, 0, 82, 86
2, 85440, Note_on_c, 0, 88, 86
2, 85920, Note_on_c, 0, 88, 0
2, 85920, Note_on_c, 0, 82, 0
2, 85920, Note_on_c, 0, 76, 0
2, 85920, Note_on_c, 0, 77, 86
2, 85920, Note_on_c, 0, 83, 86
2, 85920, Note_on_c, 0, 89, 86
2, 86280, Note_on_c, 0, 89, 0
2, 86280, Note_on_c, 0, 83, 0
2, 86280, Note_on_c, 0, 77, 0
2, 86280, Note_on_c, 0, 76, 86
2, 86280, Note_on_c, 0, 82, 86
2, 86280, Note_on_c, 0, 88, 86
2, 86400, Note_on_c, 0, 88, 0
2, 86400, Note_on_c, 0, 82, 0
2, 86400, Note_on_c, 0, 76, 0
2, 86400, Note_on_c, 0, 76, 86
2, 86400, Note_on_c, 0, 82, 86
2, 86400, Note_on_c, 0, 88, 86
2, 86640, Note_on_c, 0, 88, 0
2, 86640, Note_on_c, 0, 82, 0
2, 86640, Note_on_c, 0, 76, 0
2, 86640, Note_on_c, 0, 77, 86
2, 86640, Note_on_c, 0, 83, 86
2, 86640, Note_on_c, 0, 89, 86
2, 86880, Note_on_c, 0, 89, 0
2, 86880, Note_on_c, 0, 83, 0
2, 86880, Note_on_c, 0, 77, 0
2, 86880, Note_on_c, 0, 76, 86
2, 86880, Note_on_c, 0, 82, 86
2, 86880, Note_on_c, 0, 88, 86
2, 87120, Note_on_c, 0, 88, 0
2, 87120, Note_on_c, 0, 82, 0
2, 87120, Note_on_c, 0, 76, 0
2, 87120, Note_on_c, 0, 77, 86
2, 87120, Note_on_c, 0, 83, 86
2, 87120, Note_on_c, 0, 89, 86
2, 87360, Note_on_c, 0, 89, 0
2, 87360, Note_on_c, 0, 83, 0
2, 87360, Note_on_c, 0, 77, 0
2, 87360, Note_on_c, 0, 76, 86
2, 87360, Note_on_c, 0, 82, 86
2, 87360, Note_on_c, 0, 88, 86
2, 87600, Note_on_c, 0, 88, 0
2, 87600, Note_on_c, 0, 82, 0
2, 87600, Note_on_c, 0, 76, 0
2, 87600, Note_on_c, 0, 77, 86
2, 87600, Note_on_c, 0, 83, 86
2, 87600, Note_on_c, 0, 89, 86
2, 87840, Note_on_c, 0, 89, 0
2, 87840, Note_on_c, 0, 83, 0
2, 87840, Note_on_c, 0, 77, 0
2, 87840, Note_on_c, 0, 76, 86
2, 87840, Note_on_c, 0, 82, 86
2, 87840, Note_on_c, 0, 88, 86
2, 88080, Note_on_c, 0, 88, 0
2, 88080, Note_on_c, 0, 82, 0
2, 88080, Note_on_c, 0, 76, 0
2, 88080, Note_on_c, 0, 77, 86
2, 88080, Note_on_c, 0, 83, 86
2, 88080, Note_on_c, 0, 89, 86
2, 88320, Note_on_c, 0, 89, 0
2, 88320, Note_on_c, 0, 83, 0
2, 88320, Note_on_c, 0, 77, 0
2, 88320, Note_on_c, 0, 76, 86
2, 88320, Note_on_c, 0, 85, 86
2, 88320, Note_on_c, 0, 88, 86
2, 88560, Note_on_c, 0, 88, 0
2, 88560, Note_on_c, 0, 85, 0
2, 88560, Note_on_c, 0, 76, 0
2, 88680, Note_on_c, 0, 88, 86
2, 88719, Note_on_c, 0, 88, 0
2, 88719, Note_on_c, 0, 90, 86
2, 88760, Note_on_c, 0, 90, 0
2, 88760, Note_on_c, 0, 92, 86
2, 88800, Note_on_c, 0, 92, 0
2, 88800, Control_c, 0, 64, 127
2, 88800, Note_on_c, 0, 81, 86
2, 88800, Note_on_c, 0, 85, 86
2, 88800, Note_on_c, 0, 88, 86
2, 88920, Note_on_c, 0, 88, 0
2, 88920, Note_on_c, 0, 85, 0
2, 88920, Note_on_c, 0, 81, 0
2, 88920, Note_on_c, 0, 93, 86
2, 89040, Note_on_c, 0, 93, 0
2, 89040, Note_on_c, 0, 81, 86
2, 89040, Note_on_c, 0, 85, 86
2, 89040, Note_on_c, 0, 88, 86
2, 89160, Note_on_c, 0, 88, 0
2, 89160, Note_on_c, 0, 85, 0
2, 89160, Note_on_c, 0, 81, 0
2, 89160, Note_on_c, 0, 93, 86
2, 89280, Note_on_c, 0, 93, 0
2, 89280, Note_on_c, 0, 81, 86
2, 89280, Note_on_c, 0, 85, 86
2, 89280, Note_on_c, 0, 88, 86
2, 89400, Note_on_c, 0, 88, 0
2, 89400, Note_on_c, 0, 85, 0
2, 89400, Note_on_c, 0, 81, 0
2, 89400, Note_on_c, 0, 93, 86
2, 89520, Note_on_c, 0, 93, 0
2, 89520, Note_on_c, 0, 81, 86
2, 89520, Note_on_c, 0, 85, 86
2, 89520, Note_on_c, 0, 88, 86
2, 89640, Note_on_c, 0, 88, 0
2, 89640, Note_on_c, 0, 85, 0
2, 89640, Note_on_c, 0, 81, 0
2, 89640, Note_on_c, 0, 93, 86
2, 89760, Note_on_c, 0, 93, 0
2, 89760, Note_on_c, 0, 81, 86
2, 89760, Note_on_c, 0, 85, 86
2, 89760, Note_on_c, 0, 88, 86
2, 89880, Note_on_c, 0, 88, 0
2, 89880, Note_on_c, 0, 85, 0
2, 89880, Note_on_c, 0, 81, 0
2, 89880, Note_on_c, 0, 93, 86
2, 90000, Note_on_c, 0, 93, 0
2, 90000, Note_on_c, 0, 81, 86
2, 90000, Note_on_c, 0, 85, 86
2, 90000, Note_on_c, 0, 88, 86
2, 90120, Note_on_c, 0, 88, 0
2, 90120, Note_on_c, 0, 85, 0
2, 90120, Note_on_c, 0, 81, 0
2, 90120, Control_c, 0, 64, 0
2, 90120, Note_on_c, 0, 93, 86
2, 90240, Note_on_c, 0, 93, 0
2, 90240, Note_on_c, 0, 87, 86
2, 90240, Note_on_c, 0, 91, 86
2, 90240, Note_on_c, 0, 94, 86
2, 90480, Note_on_c, 0, 94, 0
2, 90480, Note_on_c, 0, 91, 0
2, 90480, Note_on_c, 0, 87, 0
2, 90600, Note_on_c, 0, 90, 86
2, 90639, Note_on_c, 0, 90, 0
2, 90639, Note_on_c, 0, 91, 86
2, 90680, Note_on_c, 0, 91, 0
2, 90680, Note_on_c, 0, 93, 86
2, 90720, Note_on_c, 0, 93, 0
2, 90720, Control_c, 0, 64, 127
2, 90720, Note_on_c, 0, 82, 86
2, 90720, Note_on_c, 0, 87, 86
2, 90720, Note_on_c, 0, 91, 86
2, 90840, Note_on_c, 0, 91, 0
2, 90840, Note_on_c, 0, 87, 0
2, 90840, Note_on_c, 0, 82, 0
2, 90840, Note_on_c, 0, 94, 86
2, 90960, Note_on_c, 0, 94, 0
2, 90960, Note_on_c, 0, 82, 86
2, 90960, Note_on_c, 0, 87, 86
2, 90960, Note_on_c, 0, 91, 86
2, 91080, Note_on_c, 0, 91, 0
2, 91080, Note_on_c, 0, 87, 0
2, 91080, Note_on_c, 0, 82, 0
2, 91080, Note_on_c, 0, 94, 86
2, 91200, Note_on_c, 0, 94, 0
2, 91200, Note_on_c, 0, 82, 86
2, 91200, Note_on_c, 0, 87, 86
2, 91200, Note_on_c, 0, 91, 86
2, 91320, Note_on_c, 0, 91, 0
2, 91320, Note_on_c, 0, 87, 0
2, 91320, Note_on_c, 0, 82, 0
2, 91320, Note_on_c, 0, 94, 86
2, 91440, Note_on_c, 0, 94, 0
2, 91440, Note_on_c, 0, 82, 86
2, 91440, Note_on_c, 0, 87, 86
2, 91440, Note_on_c, 0, 91, 86
2, 91560, Note_on_c, 0, 91, 0
2, 91560, Note_on_c, 0, 87, 0
2, 91560, Note_on_c, 0, 82, 0
2, 91560, Note_on_c, 0, 94, 86
2, 91680, Note_on_c, 0, 94, 0
2, 91680, Note_on_c, 0, 82, 86
2, 91680, Note_on_c, 0, 87, 86
2, 91680, Note_on_c, 0, 91, 86
2, 91800, Note_on_c, 0, 91, 0
2, 91800, Note_on_c, 0, 87, 0
2, 91800, Note_on_c, 0, 82, 0
2, 91800, Note_on_c, 0, 94, 86
2, 91920, Note_on_c, 0, 94, 0
2, 91920, Note_on_c, 0, 82, 86
2, 91920, Note_on_c, 0, 87, 86
2, 91920, Note_on_c, 0, 91, 86
2, 92040, Note_on_c, 0, 91, 0
2, 92040, Note_on_c, 0, 87, 0
2, 92040, Note_on_c, 0, 82, 0
2, 92040, Control_c, 0, 64, 0
2, 92040, Note_on_c, 0, 94, 86
2, 92160, Note_on_c, 0, 94, 0
2, 92160, Note_on_c, 0, 83, 86
2, 92160, Note_on_c, 0, 87, 86
2, 92160, Note_on_c, 0, 92, 86
2, 92160, Note_on_c, 0, 95, 86
2, 92400, Note_on_c, 0, 95, 0
2, 92400, Note_on_c, 0, 83, 0
2, 92400, Note_on_c, 0, 87, 0
2, 92400, Note_on_c, 0, 92, 0
2, 92520, Note_on_c, 0, 91, 86
2, 92559, Note_on_c, 0, 91, 0
2, 92559, Note_on_c, 0, 92, 86
2, 92600, Note_on_c, 0, 92, 0
2, 92600, Note_on_c, 0, 94, 86
2, 92640, Note_on_c, 0, 94, 0
2, 92640, Control_c, 0, 64, 127
2, 92640, Note_on_c, 0, 83, 86
2, 92640, Note_on_c, 0, 87, 86
2, 92640, Note_on_c, 0, 92, 86
2, 92760, Note_on_c, 0, 92, 0
2, 92760, Note_on_c, 0, 87, 0
2, 92760, Note_on_c, 0, 83, 0
2, 92760, Note_on_c, 0, 95, 86
2, 92880, Note_on_c, 0, 95, 0
2, 92880, Note_on_c, 0, 83, 86
2, 92880, Note_on_c, 0, 87, 86
2, 92880, Note_on_c, 0, 92, 86
2, 93000, Note_on_c, 0, 92, 0
2, 93000, Note_on_c, 0, 87, 0
2, 93000, Note_on_c, 0, 83, 0
2, 93000, Note_on_c, 0, 95, 86
2, 93120, Note_on_c, 0, 95, 0
2, 93120, Note_on_c, 0, 83, 86
2, 93120, Note_on_c, 0, 87, 86
2, 93120, Note_on_c, 0, 92, 86
2, 93240, Note_on_c, 0, 92, 0
2, 93240, Note_on_c, 0, 87, 0
2, 93240, Note_on_c, 0, 83, 0
2, 93240, Note_on_c, 0, 95, 86
2, 93360, Note_on_c, 0, 95, 0
2, 93360, Note_on_c, 0, 83, 86
2, 93360, Note_on_c, 0, 87, 86
2, 93360, Note_on_c, 0, 92, 86
2, 93480, Note_on_c, 0, 92, 0
2, 93480, Note_on_c, 0, 87, 0
2, 93480, Note_on_c, 0, 83, 0
2, 93480, Note_on_c, 0, 95, 86
2, 93600, Note_on_c, 0, 95, 0
2, 93600, Note_on_c, 0, 83, 86
2, 93600, Note_on_c, 0, 88, 86
2, 93600, Note_on_c, 0, 92, 86
2, 93720, Note_on_c, 0, 92, 0
2, 93720, Note_on_c, 0, 88, 0
2, 93720, Note_on_c, 0, 83, 0
2, 93720, Note_on_c, 0, 95, 86
2, 93840, Note_on_c, 0, 95, 0
2, 93840, Note_on_c, 0, 83, 86
2, 93840, Note_on_c, 0, 88, 86
2, 93840, Note_on_c, 0, 92, 86
2, 93960, Note_on_c, 0, 92, 0
2, 93960, Note_on_c, 0, 88, 0
2, 93960, Note_on_c, 0, 83, 0
2, 93960, Control_c, 0, 64, 0
2, 93960, Note_on_c, 0, 95, 86
2, 94080, Note_on_c, 0, 95, 0
2, 94080, Note_on_c, 0, 83, 86
2, 94080, Note_on_c, 0, 89, 86
2, 94080, Note_on_c, 0, 92, 86
2, 94080, Note_on_c, 0, 95, 86
2, 94560, Note_on_c, 0, 95, 0
2, 94560, Note_on_c, 0, 83, 0
2, 94560, Note_on_c, 0, 89, 0
2, 94560, Note_on_c, 0, 92, 0
2, 94560, Note_on_c, 0, 82, 86
2, 94560, Note_on_c, 0, 89, 86
2, 94560, Note_on_c, 0, 92, 86
2, 94560, Note_on_c, 0, 94, 86
2, 94920, Note_on_c, 0, 94, 0
2, 94920, Note_on_c, 0, 82, 0
2, 94920, Note_on_c, 0, 89, 0
2, 94920, Note_on_c, 0, 92, 0
2, 94920, Note_on_c, 0, 83, 86
2, 94920, Note_on_c, 0, 89, 86
2, 94920, Note_on_c, 0, 92, 86
2, 94920, Note_on_c, 0, 95, 86
2, 95040, Note_on_c, 0, 95, 0
2, 95040, Note_on_c, 0, 83, 0
2, 95040, Note_on_c, 0, 89, 0
2, 95040, Note_on_c, 0, 92, 0
2, 95040, Note_on_c, 0, 83, 86
2, 95040, Note_on_c, 0, 89, 86
2, 95040, Note_on_c, 0, 92, 86
2, 95040, Note_on_c, 0, 95, 86
2, 95520, Note_on_c, 0, 95, 0
2, 95520, Note_on_c, 0, 83, 0
2, 95520, Note_on_c, 0, 89, 0
2, 95520, Note_on_c, 0, 92, 0
2, 95520, Note_on_c, 0, 82, 86
2, 95520, Note_on_c, 0, 89, 86
2, 95520, Note_on_c, 0, 92, 86
2, 95520, Note_on_c, 0, 94, 86
2, 95880, Note_on_c, 0, 94, 0
2, 95880, Note_on_c, 0, 82, 0
2, 95880, Note_on_c, 0, 89, 0
2, 95880, Note_on_c, 0, 92, 0
2, 95880, Note_on_c, 0, 83, 86
2, 95880, Note_on_c, 0, 89, 86
2, 95880, Note_on_c, 0, 92, 86
2, 95880, Note_on_c, 0, 95, 86
2, 96000, Note_on_c, 0, 95, 0
2, 96000, Note_on_c, 0, 83, 0
2, 96000, Note_on_c, 0, 89, 0
2, 96000, Note_on_c, 0, 92, 0
2, 96000, Note_on_c, 0, 83, 86
2, 96000, Note_on_c, 0, 89, 86
2, 96000, Note_on_c, 0, 92, 86
2, 96000, Note_on_c, 0, 95, 86
2, 96480, Note_on_c, 0, 95, 0
2, 96480, Note_on_c, 0, 83, 0
2, 96480, Note_on_c, 0, 89, 0
2, 96480, Note_on_c, 0, 92, 0
2, 96480, Note_on_c, 0, 77, 86
2, 96480, Note_on_c, 0, 89, 86
2, 96639, Note_on_c, 0, 89, 0
2, 96639, Note_on_c, 0, 77, 0
2, 96639, Note_on_c, 0, 77, 86
2, 96639, Note_on_c, 0, 89, 86
2, 96800, Note_on_c, 0, 89, 0
2, 96800, Note_on_c, 0, 77, 0
2, 96800, Note_on_c, 0, 77, 86
2, 96800, Note_on_c, 0, 89, 86
2, 96960, Note_on_c, 0, 89, 0
2, 96960, Note_on_c, 0, 77, 0
2, 96960, Note_on_c, 0, 77, 86
2, 96960, Note_on_c, 0, 89, 86
2, 97119, Note_on_c, 0, 89, 0
2, 97119, Note_on_c, 0, 77, 0
2, 97119, Note_on_c, 0, 79, 86
2, 97119, Note_on_c, 0, 91, 86
2, 97280, Note_on_c, 0, 91, 0
2, 97280, Note_on_c, 0, 79, 0
2, 97280, Note_on_c, 0, 80, 86
2, 97280, Note_on_c, 0, 92, 86
2, 97440, Note_on_c, 0, 92, 0
2, 97440, Note_on_c, 0, 80, 0
2, 97440, Note_on_c, 0, 80, 86
2, 97440, Note_on_c, 0, 92, 86
2, 97920, Note_on_c, 0, 92, 0
2, 97920, Note_on_c, 0, 80, 0
2, 97920, Note_on_c, 0, 83, 86
2, 97920, Note_on_c, 0, 89, 86
2, 97920, Note_on_c, 0, 92, 86
2, 97920, Note_on_c, 0, 95, 86
2, 98400, Note_on_c, 0, 95, 0
2, 98400, Note_on_c, 0, 83, 0
2, 98400, Note_on_c, 0, 89, 0
2, 98400, Note_on_c, 0, 92, 0
2, 98400, Note_on_c, 0, 82, 86
2, 98400, Note_on_c, 0, 89, 86
2, 98400, Note_on_c, 0, 92, 86
2, 98400, Note_on_c, 0, 94, 86
2, 98760, Note_on_c, 0, 94, 0
2, 98760, Note_on_c, 0, 82, 0
2, 98760, Note_on_c, 0, 89, 0
2, 98760, Note_on_c, 0, 92, 0
2, 98760, Note_on_c, 0, 83, 86
2, 98760, Note_on_c, 0, 89, 86
2, 98760, Note_on_c, 0, 92, 86
2, 98760, Note_on_c, 0, 95, 86
2, 98880, Note_on_c, 0, 95, 0
2, 98880, Note_on_c, 0, 83, 0
2, 98880, Note_on_c, 0, 89, 0
2, 98880, Note_on_c, 0, 92, 0
2, 98880, Note_on_c, 0, 83, 86
2, 98880, Note_on_c, 0, 89, 86
2, 98880, Note_on_c, 0, 92, 86
2, 98880, Note_on_c, 0, 95, 86
2, 99360, Note_on_c, 0, 95, 0
2, 99360, Note_on_c, 0, 83, 0
2, 99360, Note_on_c, 0, 89, 0
2, 99360, Note_on_c, 0, 92, 0
2, 99360, Note_on_c, 0, 82, 86
2, 99360, Note_on_c, 0, 89, 86
2, 99360, Note_on_c, 0, 92, 86
2, 99360, Note_on_c, 0, 94, 86
2, 99720, Note_on_c, 0, 94, 0
2, 99720, Note_on_c, 0, 82, 0
2, 99720, Note_on_c, 0, 89, 0
2, 99720, Note_on_c, 0, 92, 0
2, 99720, Note_on_c, 0, 83, 86
2, 99720, Note_on_c, 0, 89, 86
2, 99720, Note_on_c, 0, 92, 86
2, 99720, Note_on_c, 0, 95, 86
2, 99840, Note_on_c, 0, 95, 0
2, 99840, Note_on_c, 0, 83, 0
2, 99840, Note_on_c, 0, 89, 0
2, 99840, Note_on_c, 0, 92, 0
2, 99840, Note_on_c, 0, 83, 86
2, 99840, Note_on_c, 0, 89, 86
2, 99840, Note_on_c, 0, 92, 86
2, 99840, Note_on_c, 0, 95, 86
2, 100320, Note_on_c, 0, 95, 0
2, 100320, Note_on_c, 0, 83, 0
2, 100320, Note_on_c, 0, 89, 0
2, 100320, Note_on_c, 0, 92, 0
2, 100320, Note_on_c, 0, 77, 86
2, 100320, Note_on_c, 0, 89, 86
2, 100479, Note_on_c, 0, 89, 0
2, 100479, Note_on_c, 0, 77, 0
2, 100479, Note_on_c, 0, 77, 86
2, 100479, Note_on_c, 0, 89, 86
2, 100640, Note_on_c, 0, 89, 0
2, 100640, Note_on_c, 0, 77, 0
2, 100640, Note_on_c, 0, 77, 86
2, 100640, Note_on_c, 0, 89, 86
2, 100800, Note_on_c, 0, 89, 0
2, 100800, Note_on_c, 0, 77, 0
2, 100800, Note_on_c, 0, 77, 86
2, 100800, Note_on_c, 0, 89, 86
2, 100959, Note_on_c, 0, 89, 0
2, 100959, Note_on_c, 0, 77, 0
2, 100959, Note_on_c, 0, 79, 86
2, 100959, Note_on_c, 0, 91, 86
2, 101120, Note_on_c, 0, 91, 0
2, 101120, Note_on_c, 0, 79, 0
2, 101120, Note_on_c, 0, 80, 86
2, 101120, Note_on_c, 0, 92, 86
2, 101280, Note_on_c, 0, 92, 0
2, 101280, Note_on_c, 0, 80, 0
2, 101280, Note_on_c, 0, 80, 86
2, 101280, Note_on_c, 0, 92, 86
2, 101439, Note_on_c, 0, 92, 0
2, 101439, Note_on_c, 0, 80, 0
2, 101439, Note_on_c, 0, 82, 86
2, 101439, Note_on_c, 0, 94, 86
2, 101600, Note_on_c, 0, 94, 0
2, 101600, Note_on_c, 0, 82, 0
2, 101600, Note_on_c, 0, 83, 86
2, 101600, Note_on_c, 0, 95, 86
2, 101760, Note_on_c, 0, 95, 0
2, 101760, Note_on_c, 0, 83, 0
2, 101760, Note_on_c, 0, 89, 86
2, 101919, Note_on_c, 0, 89, 0
2, 101919, Note_on_c, 0, 91, 86
2, 102080, Note_on_c, 0, 91, 0
2, 102080, Note_on_c, 0, 92, 86
2, 102240, Note_on_c, 0, 92, 0
2, 102240, Note_on_c, 0, 80, 86
2, 102240, Note_on_c, 0, 92, 86
2, 102399, Note_on_c, 0, 92, 0
2, 102399, Note_on_c, 0, 80, 0
2, 102399, Note_on_c, 0, 82, 86
2, 102399, Note_on_c, 0, 94, 86
2, 102560, Note_on_c, 0, 94, 0
2, 102560, Note_on_c, 0, 82, 0
2, 102560, Note_on_c, 0, 83, 86
2, 102560, Note_on_c, 0, 95, 86
2, 102720, Note_on_c, 0, 95, 0
2, 102720, Note_on_c, 0, 83, 0
2, 102720, Note_on_c, 0, 89, 86
2, 102879, Note_on_c, 0, 89, 0
2, 102879, Note_on_c, 0, 91, 86
2, 103040, Note_on_c, 0, 91, 0
2, 103040, Note_on_c, 0, 92, 86
2, 103200, Note_on_c, 0, 92, 0
2, 103200, Note_on_c, 0, 80, 86
2, 103200, Note_on_c, 0, 92, 86
2, 103359, Note_on_c, 0, 92, 0
2, 103359, Note_on_c, 0, 80, 0
2, 103359, Note_on_c, 0, 82, 86
2, 103359, Note_on_c, 0, 94, 86
2, 103520, Note_on_c, 0, 94, 0
2, 103520, Note_on_c, 0, 82, 0
2, 103520, Note_on_c, 0, 83, 86
2, 103520, Note_on_c, 0, 95, 86
2, 103680, Note_on_c, 0, 95, 0
2, 103680, Note_on_c, 0, 83, 0
2, 103680, Note_on_c, 0, 92, 86
2, 103839, Note_on_c, 0, 92, 0
2, 103839, Note_on_c, 0, 94, 86
2, 104000, Note_on_c, 0, 94, 0
2, 104000, Note_on_c, 0, 83, 86
2, 104000, Note_on_c, 0, 95, 86
2, 104160, Note_on_c, 0, 95, 0
2, 104160, Note_on_c, 0, 83, 0
2, 104160, Note_on_c, 0, 92, 86
2, 104319, Note_on_c, 0, 92, 0
2, 104319, Note_on_c, 0, 94, 86
2, 104480, Note_on_c, 0, 94, 0
2, 104480, Note_on_c, 0, 83, 86
2, 104480, Note_on_c, 0, 95, 86
2, 104640, Note_on_c, 0, 95, 0
2, 104640, Note_on_c, 0, 83, 0
2, 104640, Note_on_c, 0, 92, 86
2, 104799, Note_on_c, 0, 92, 0
2, 104799, Note_on_c, 0, 94, 86
2, 104960, Note_on_c, 0, 94, 0
2, 104960, Note_on_c, 0, 83, 86
2, 104960, Note_on_c, 0, 95, 86
2, 105120, Note_on_c, 0, 95, 0
2, 105120, Note_on_c, 0, 83, 0
2, 105120, Control_c, 0, 64, 127
2, 105120, Note_on_c, 0, 84, 86
2, 105240, Note_on_c, 0, 84, 0
2, 105240, Note_on_c, 0, 96, 86
2, 105360, Note_on_c, 0, 96, 0
2, 105360, Note_on_c, 0, 84, 86
2, 105480, Note_on_c, 0, 84, 0
2, 105480, Note_on_c, 0, 96, 86
2, 105600, Note_on_c, 0, 96, 0
2, 105600, Note_on_c, 0, 84, 86
2, 105720, Note_on_c, 0, 84, 0
2, 105720, Note_on_c, 0, 96, 86
2, 105840, Note_on_c, 0, 96, 0
2, 105840, Note_on_c, 0, 84, 86
2, 105960, Note_on_c, 0, 84, 0
2, 105960, Note_on_c, 0, 96, 86
2, 106080, Note_on_c, 0, 96, 0
2, 106080, Note_on_c, 0, 84, 86
2, 106200, Note_on_c, 0, 84, 0
2, 106200, Note_on_c, 0, 96, 86
2, 106320, Note_on_c, 0, 96, 0
2, 106320, Note_on_c, 0, 84, 86
2, 106440, Note_on_c, 0, 84, 0
2, 106440, Note_on_c, 0, 96, 86
2, 106560, Note_on_c, 0, 96, 0
2, 106560, Note_on_c, 0, 84, 86
2, 106680, Note_on_c, 0, 84, 0
2, 106680, Note_on_c, 0, 96, 86
2, 106800, Note_on_c, 0, 96, 0
2, 106800, Note_on_c, 0, 84, 86
2, 106920, Note_on_c, 0, 84, 0
2, 106920, Note_on_c, 0, 96, 86
2, 107040, Note_on_c, 0, 96, 0
2, 107040, Note_on_c, 0, 84, 86
2, 107160, Note_on_c, 0, 84, 0
2, 107160, Note_on_c, 0, 96, 86
2, 107280, Note_on_c, 0, 96, 0
2, 107280, Note_on_c, 0, 84, 86
2, 107400, Note_on_c, 0, 84, 0
2, 107400, Control_c, 0, 64, 0
2, 107400, Note_on_c, 0, 96, 86
2, 107520, Note_on_c, 0, 96, 0
2, 107520, Control_c, 0, 64, 127
2, 107520, Note_on_c, 0, 83, 86
2, 107640, Note_on_c, 0, 83, 0
2, 107640, Note_on_c, 0, 95, 86
2, 107760, Note_on_c, 0, 95, 0
2, 107760, Note_on_c, 0, 83, 86
2, 107880, Note_on_c, 0, 83, 0
2, 107880, Control_c, 0, 64, 0
2, 107880, Note_on_c, 0, 95, 86
2, 108000, Note_on_c, 0, 95, 0
2, 108000, Control_c, 0, 64, 127
2, 108000, Note_on_c, 0, 82, 86
2, 108120, Note_on_c, 0, 82, 0
2, 108120, Note_on_c, 0, 94, 86
2, 108240, Note_on_c, 0, 94, 0
2, 108240, Note_on_c, 0, 82, 86
2, 108360, Note_on_c, 0, 82, 0
2, 108360, Control_c, 0, 64, 0
2, 108360, Note_on_c, 0, 94, 86
2, 108480, Note_on_c, 0, 94, 0
2, 108480, Control_c, 0, 64, 127
2, 108480, Note_on_c, 0, 81, 86
2, 108600, Note_on_c, 0, 81, 0
2, 108600, Note_on_c, 0, 93, 86
2, 108720, Note_on_c, 0, 93, 0
2, 108720, Note_on_c, 0, 81, 86
2, 108840, Note_on_c, 0, 81, 0
2, 108840, Control_c, 0, 64, 0
2, 108840, Note_on_c, 0, 93, 86
2, 108960, Note_on_c, 0, 93, 0
2, 108960, Control_c, 0, 64, 127
2, 108960, Note_on_c, 0, 79, 86
2, 109080, Note_on_c, 0, 79, 0
2, 109080, Note_on_c, 0, 91, 86
2, 109200, Note_on_c, 0, 91, 0
2, 109200, Note_on_c, 0, 79, 86
2, 109320, Note_on_c, 0, 79, 0
2, 109320, Control_c, 0, 64, 0
2, 109320, Note_on_c, 0, 91, 86
2, 109440, Note_on_c, 0, 91, 0
2, 109440, Note_on_c, 0, 77, 86
2, 109560, Note_on_c, 0, 77, 0
2, 109560, Note_on_c, 0, 89, 86
2, 109680, Note_on_c, 0, 89, 0
2, 109680, Note_on_c, 0, 76, 86
2, 109800, Note_on_c, 0, 76, 0
2, 109800, Note_on_c, 0, 88, 86
2, 109920, Note_on_c, 0, 88, 0
2, 109920, Note_on_c, 0, 74, 86
2, 110040, Note_on_c, 0, 74, 0
2, 110040, Note_on_c, 0, 86, 86
2, 110160, Note_on_c, 0, 86, 0
2, 110160, Note_on_c, 0, 72, 86
2, 110280, Note_on_c, 0, 72, 0
2, 110280, Note_on_c, 0, 84, 86
2, 110400, Note_on_c, 0, 84, 0
2, 110520, Note_on_c, 0, 71, 86
2, 110520, Note_on_c, 0, 83, 86
2, 110640, Note_on_c, 0, 83, 0
2, 110640, Note_on_c, 0, 71, 0
2, 110760, Note_on_c, 0, 80, 86
2, 110880, Note_on_c, 0, 80, 0
2, 111000, Note_on_c, 0, 79, 86
2, 111120, Note_on_c, 0, 79, 0
2, 111240, Note_on_c, 0, 77, 86
2, 111360, Note_on_c, 0, 77, 0
2, 111480, Note_on_c, 0, 84, 86
2, 111600, Note_on_c, 0, 84, 0
2, 111600, Note_on_c, 0, 86, 86
2, 111720, Note_on_c, 0, 86, 0
2, 111720, Note_on_c, 0, 88, 86
2, 111840, Note_on_c, 0, 88, 0
2, 111840, Note_on_c, 0, 89, 86
2, 111960, Note_on_c, 0, 89, 0
2, 111960, Note_on_c, 0, 91, 86
2, 112080, Note_on_c, 0, 91, 0
2, 112080, Note_on_c, 0, 93, 86
2, 112200, Note_on_c, 0, 93, 0
2, 112200, Note_on_c, 0, 94, 86
2, 112320, Note_on_c, 0, 94, 0
2, 112320, Note_on_c, 0, 84, 86
2, 112320, Note_on_c, 0, 96, 86
2, 112560, Note_on_c, 0, 96, 0
2, 112560, Note_on_c, 0, 84, 0
2, 112560, Note_on_c, 0, 76, 86
2, 112560, Note_on_c, 0, 82, 86
2, 112560, Note_on_c, 0, 84, 86
2, 112560, Note_on_c, 0, 88, 86
2, 112800, Note_on_c, 0, 88, 0
2, 112800, Note_on_c, 0, 76, 0
2, 112800, Note_on_c, 0, 82, 0
2, 112800, Note_on_c, 0, 84, 0
2, 112800, Note_on_c, 0, 77, 86
2, 112800, Note_on_c, 0, 81, 86
2, 112800, Note_on_c, 0, 84, 86
2, 112800, Note_on_c, 0, 89, 86
2, 113040, Note_on_c, 0, 89, 0
2, 113040, Note_on_c, 0, 77, 0
2, 113040, Note_on_c, 0, 81, 0
2, 113040, Note_on_c, 0, 84, 0
2, 113280, Note_on_c, 0, 65, 60
2, 113280, Note_on_c, 0, 70, 60
2, 113280, Note_on_c, 0, 73, 60
2, 113280, Note_on_c, 0, 77, 60
2, 113327, Note_on_c, 0, 77, 0
2, 113327, Note_on_c, 0, 65, 0
2, 113327, Note_on_c, 0, 70, 0
2, 113327, Note_on_c, 0, 73, 0
2, 113520, Note_on_c, 0, 65, 60
2, 113520, Note_on_c, 0, 77, 60
2, 113567, Note_on_c, 0, 77, 0
2, 113567, Note_on_c, 0, 65, 0
2, 113760, Note_on_c, 0, 65, 60
2, 113760, Note_on_c, 0, 77, 60
2, 113807, Note_on_c, 0, 77, 0
2, 113807, Note_on_c, 0, 65, 0
2, 114000, Note_on_c, 0, 65, 60
2, 114000, Note_on_c, 0, 77, 60
2, 114047, Note_on_c, 0, 77, 0
2, 114047, Note_on_c, 0, 65, 0
2, 114240, Note_on_c, 0, 63, 60
2, 114240, Note_on_c, 0, 75, 60
2, 114720, Note_on_c, 0, 75, 0
2, 114720, Note_on_c, 0, 63, 0
2, 114720, Note_on_c, 0, 61, 60
2, 114720, Note_on_c, 0, 73, 60
2, 114960, Note_on_c, 0, 73, 0
2, 114960, Note_on_c, 0, 61, 0
2, 114960, Note_on_c, 0, 61, 60
2, 114960, Note_on_c, 0, 73, 60
2, 115007, Note_on_c, 0, 73, 0
2, 115007, Note_on_c, 0, 61, 0
2, 115200, Note_on_c, 0, 60, 86
2, 115200, Note_on_c, 0, 72, 86
2, 115680, Note_on_c, 0, 72, 0
2, 115680, Note_on_c, 0, 60, 0
2, 115680, Note_on_c, 0, 58, 60
2, 115680, Note_on_c, 0, 70, 60
2, 116160, Note_on_c, 0, 70, 0
2, 116160, Note_on_c, 0, 58, 0
2, 116160, Note_on_c, 0, 49, 60
2, 116160, Note_on_c, 0, 53, 60
2, 116256, Note_on_c, 0, 53, 0
2, 116256, Note_on_c, 0, 49, 0
2, 116640, Note_on_c, 0, 49, 60
2, 116640, Note_on_c, 0, 53, 60
2, 116736, Note_on_c, 0, 53, 0
2, 116736, Note_on_c, 0, 49, 0
2, 117120, Note_on_c, 0, 65, 60
2, 117120, Note_on_c, 0, 77, 60
2, 117167, Note_on_c, 0, 77, 0
2, 117167, Note_on_c, 0, 65, 0
2, 117360, Note_on_c, 0, 65, 60
2, 117360, Note_on_c, 0, 77, 60
2, 117407, Note_on_c, 0, 77, 0
2, 117407, Note_on_c, 0, 65, 0
2, 117600, Note_on_c, 0, 65, 60
2, 117600, Note_on_c, 0, 77, 60
2, 117647, Note_on_c, 0, 77, 0
2, 117647, Note_on_c, 0, 65, 0
2, 117840, Note_on_c, 0, 65, 60
2, 117840, Note_on_c, 0, 77, 60
2, 117887, Note_on_c, 0, 77, 0
2, 117887, Note_on_c, 0, 65, 0
2, 118080, Note_on_c, 0, 63, 60
2, 118080, Note_on_c, 0, 75, 60
2, 118560, Note_on_c, 0, 75, 0
2, 118560, Note_on_c, 0, 63, 0
2, 118560, Note_on_c, 0, 61, 60
2, 118560, Note_on_c, 0, 73, 60
2, 118800, Note_on_c, 0, 73, 0
2, 118800, Note_on_c, 0, 61, 0
2, 118800, Note_on_c, 0, 61, 60
2, 118800, Note_on_c, 0, 73, 60
2, 118847, Note_on_c, 0, 73, 0
2, 118847, Note_on_c, 0, 61, 0
2, 119040, Note_on_c, 0, 60, 86
2, 119040, Note_on_c, 0, 72, 86
2, 119520, Note_on_c, 0, 72, 0
2, 119520, Note_on_c, 0, 60, 0
2, 119520, Note_on_c, 0, 58, 60
2, 119520, Note_on_c, 0, 70, 60
2, 120000, Note_on_c, 0, 70, 0
2, 120000, Note_on_c, 0, 58, 0
2, 120000, Note_on_c, 0, 49, 60
2, 120000, Note_on_c, 0, 53, 60
2, 120096, Note_on_c, 0, 53, 0
2, 120096, Note_on_c, 0, 49, 0
2, 120480, Note_on_c, 0, 49, 60
2, 120480, Note_on_c, 0, 53, 60
2, 120576, Note_on_c, 0, 53, 0
2, 120576, Note_on_c, 0, 49, 0
2, 120960, Note_on_c, 0, 60, 60
2, 120960, Note_on_c, 0, 72, 60
2, 121680, Note_on_c, 0, 72, 0
2, 121680, Note_on_c, 0, 60, 0
2, 121680, Note_on_c, 0, 61, 60
2, 121680, Note_on_c, 0, 73, 60
2, 121920, Note_on_c, 0, 73, 0
2, 121920, Note_on_c, 0, 61, 0
2, 121920, Note_on_c, 0, 63, 60
2, 121920, Note_on_c, 0, 75, 60
2, 122400, Note_on_c, 0, 75, 0
2, 122400, Note_on_c, 0, 63, 0
2, 122400, Note_on_c, 0, 61, 60
2, 122400, Note_on_c, 0, 73, 60
2, 122447, Note_on_c, 0, 73, 0
2, 122447, Note_on_c, 0, 61, 0
2, 122640, Note_on_c, 0, 61, 60
2, 122640, Note_on_c, 0, 73, 60
2, 122687, Note_on_c, 0, 73, 0
2, 122687, Note_on_c, 0, 61, 0
2, 122880, Note_on_c, 0, 60, 86
2, 122880, Note_on_c, 0, 72, 86
2, 123360, Note_on_c, 0, 72, 0
2, 123360, Note_on_c, 0, 60, 0
2, 123360, Note_on_c, 0, 58, 60
2, 123360, Note_on_c, 0, 70, 60
2, 123840, Note_on_c, 0, 70, 0
2, 123840, Note_on_c, 0, 58, 0
2, 123840, Note_on_c, 0, 49, 60
2, 123840, Note_on_c, 0, 53, 60
2, 123936, Note_on_c, 0, 53, 0
2, 123936, Note_on_c, 0, 49, 0
2, 124320, Note_on_c, 0, 49, 60
2, 124320, Note_on_c, 0, 53, 60
2, 124416, Note_on_c, 0, 53, 0
2, 124416, Note_on_c, 0, 49, 0
2, 124800, Note_on_c, 0, 60, 60
2, 124800, Note_on_c, 0, 72, 60
2, 125520, Note_on_c, 0, 72, 0
2, 125520, Note_on_c, 0, 60, 0
2, 125520, Note_on_c, 0, 61, 60
2, 125520, Note_on_c, 0, 73, 60
2, 125760, Note_on_c, 0, 73, 0
2, 125760, Note_on_c, 0, 61, 0
2, 125760, Note_on_c, 0, 63, 60
2, 125760, Note_on_c, 0, 75, 60
2, 126240, Note_on_c, 0, 75, 0
2, 126240, Note_on_c, 0, 63, 0
2, 126240, Note_on_c, 0, 61, 60
2, 126240, Note_on_c, 0, 73, 60
2, 126287, Note_on_c, 0, 73, 0
2, 126287, Note_on_c, 0, 61, 0
2, 126480, Note_on_c, 0, 61, 60
2, 126480, Note_on_c, 0, 73, 60
2, 126527, Note_on_c, 0, 73, 0
2, 126527, Note_on_c, 0, 61, 0
2, 126720, Note_on_c, 0, 60, 86
2, 126720, Note_on_c, 0, 72, 86
2, 127200, Note_on_c, 0, 72, 0
2, 127200, Note_on_c, 0, 60, 0
2, 127200, Note_on_c, 0, 58, 60
2, 127200, Note_on_c, 0, 70, 60
2, 127680, Note_on_c, 0, 70, 0
2, 127680, Note_on_c, 0, 58, 0
2, 127680, Note_on_c, 0, 49, 60
2, 127680, Note_on_c, 0, 53, 60
2, 127776, Note_on_c, 0, 53, 0
2, 127776, Note_on_c, 0, 49, 0
2, 128160, Note_on_c, 0, 49, 60
2, 128160, Note_on_c, 0, 53, 60
2, 128256, Note_on_c, 0, 53, 0
2, 128256, Note_on_c, 0, 49, 0
2, 128640, Note_on_c, 0, 77, 60
2, 128640, Note_on_c, 0, 85, 60
2, 128640, Note_on_c, 0, 89, 60
2, 128880, Note_on_c, 0, 89, 0
2, 128880, Note_on_c, 0, 85, 0
2, 128880, Note_on_c, 0, 77, 0
2, 128880, Note_on_c, 0, 77, 60
2, 128880, Note_on_c, 0, 85, 60
2, 128880, Note_on_c, 0, 89, 60
2, 129120, Note_on_c, 0, 89, 0
2, 129120, Note_on_c, 0, 85, 0
2, 129120, Note_on_c, 0, 77, 0
2, 129120, Note_on_c, 0, 77, 60
2, 129120, Note_on_c, 0, 85, 60
2, 129120, Note_on_c, 0, 89, 60
2, 129360, Note_on_c, 0, 89, 0
2, 129360, Note_on_c, 0, 85, 0
2, 129360, Note_on_c, 0, 77, 0
2, 129360, Note_on_c, 0, 77, 60
2, 129360, Note_on_c, 0, 85, 60
2, 129360, Note_on_c, 0, 89, 60
2, 129600, Note_on_c, 0, 89, 0
2, 129600, Note_on_c, 0, 85, 0
2, 129600, Note_on_c, 0, 77, 0
2, 129600, Note_on_c, 0, 75, 60
2, 129600, Note_on_c, 0, 84, 60
2, 129600, Note_on_c, 0, 87, 60
2, 130080, Note_on_c, 0, 87, 0
2, 130080, Note_on_c, 0, 84, 0
2, 130080, Note_on_c, 0, 75, 0
2, 130080, Note_on_c, 0, 73, 60
2, 130080, Note_on_c, 0, 82, 60
2, 130080, Note_on_c, 0, 85, 60
2, 130320, Note_on_c, 0, 85, 0
2, 130320, Note_on_c, 0, 82, 0
2, 130320, Note_on_c, 0, 73, 0
2, 130320, Note_on_c, 0, 73, 60
2, 130320, Note_on_c, 0, 82, 60
2, 130320, Note_on_c, 0, 85, 60
2, 130560, Note_on_c, 0, 85, 0
2, 130560, Note_on_c, 0, 82, 0
2, 130560, Note_on_c, 0, 73, 0
2, 130560, Note_on_c, 0, 72, 86
2, 130560, Note_on_c, 0, 77, 86
2, 130560, Note_on_c, 0, 84, 86
2, 131040, Note_on_c, 0, 84, 0
2, 131040, Note_on_c, 0, 77, 0
2, 131040, Note_on_c, 0, 72, 0
2, 131040, Note_on_c, 0, 73, 60
2, 131040, Note_on_c, 0, 82, 60
2, 131520, Note_on_c, 0, 82, 0
2, 131520, Note_on_c, 0, 73, 0
2, 131520, Note_on_c, 0, 58, 60
2, 131520, Note_on_c, 0, 61, 60
2, 131520, Note_on_c, 0, 65, 60
2, 132480, Note_on_c, 0, 65, 0
2, 132480, Note_on_c, 0, 61, 0
2, 132480, Note_on_c, 0, 58, 0
2, 132480, Note_on_c, 0, 77, 60
2, 132480, Note_on_c, 0, 85, 60
2, 132480, Note_on_c, 0, 89, 60
2, 132720, Note_on_c, 0, 89, 0
2, 132720, Note_on_c, 0, 85, 0
2, 132720, Note_on_c, 0, 77, 0
2, 132720, Note_on_c, 0, 77, 60
2, 132720, Note_on_c, 0, 85, 60
2, 132720, Note_on_c, 0, 89, 60
2, 132960, Note_on_c, 0, 89, 0
2, 132960, Note_on_c, 0, 85, 0
2, 132960, Note_on_c, 0, 77, 0
2, 132960, Note_on_c, 0, 77, 60
2, 132960, Note_on_c, 0, 85, 60
2, 132960, Note_on_c, 0, 89, 60
2, 133200, Note_on_c, 0, 89, 0
2, 133200, Note_on_c, 0, 85, 0
2, 133200, Note_on_c, 0, 77, 0
2, 133200, Note_on_c, 0, 77, 60
2, 133200, Note_on_c, 0, 85, 60
2, 133200, Note_on_c, 0, 89, 60
2, 133440, Note_on_c, 0, 89, 0
2, 133440, Note_on_c, 0, 85, 0
2, 133440, Note_on_c, 0, 77, 0
2, 133440, Note_on_c, 0, 75, 60
2, 133440, Note_on_c, 0, 84, 60
2, 133440, Note_on_c, 0, 87, 60
2, 133920, Note_on_c, 0, 87, 0
2, 133920, Note_on_c, 0, 84, 0
2, 133920, Note_on_c, 0, 75, 0
2, 133920, Note_on_c, 0, 73, 60
2, 133920, Note_on_c, 0, 82, 60
2, 133920, Note_on_c, 0, 85, 60
2, 134160, Note_on_c, 0, 85, 0
2, 134160, Note_on_c, 0, 82, 0
2, 134160, Note_on_c, 0, 73, 0
2, 134160, Note_on_c, 0, 73, 60
2, 134160, Note_on_c, 0, 82, 60
2, 134160, Note_on_c, 0, 85, 60
2, 134400, Note_on_c, 0, 85, 0
2, 134400, Note_on_c, 0, 82, 0
2, 134400, Note_on_c, 0, 73, 0
2, 134400, Note_on_c, 0, 72, 86
2, 134400, Note_on_c, 0, 77, 86
2, 134400, Note_on_c, 0, 84, 86
2, 134880, Note_on_c, 0, 84, 0
2, 134880, Note_on_c, 0, 77, 0
2, 134880, Note_on_c, 0, 72, 0
2, 134880, Note_on_c, 0, 73, 60
2, 134880, Note_on_c, 0, 82, 60
2, 135360, Note_on_c, 0, 82, 0
2, 135360, Note_on_c, 0, 73, 0
2, 135360, Note_on_c, 0, 58, 60
2, 135360, Note_on_c, 0, 61, 60
2, 135360, Note_on_c, 0, 65, 60
2, 136320, Note_on_c, 0, 65, 0
2, 136320, Note_on_c, 0, 61, 0
2, 136320, Note_on_c, 0, 58, 0
2, 136320, Note_on_c, 0, 72, 60
2, 136320, Note_on_c, 0, 81, 60
2, 136320, Note_on_c, 0, 84, 60
2, 137040, Note_on_c, 0, 84, 0
2, 137040, Note_on_c, 0, 81, 0
2, 137040, Note_on_c, 0, 72, 0
2, 137040, Note_on_c, 0, 73, 60
2, 137040, Note_on_c, 0, 82, 60
2, 137040, Note_on_c, 0, 85, 60
2, 137280, Note_on_c, 0, 85, 0
2, 137280, Note_on_c, 0, 82, 0
2, 137280, Note_on_c, 0, 73, 0
2, 137280, Note_on_c, 0, 75, 60
2, 137280, Note_on_c, 0, 84, 60
2, 137280, Note_on_c, 0, 87, 60
2, 137520, Note_on_c, 0, 87, 0
2, 137520, Note_on_c, 0, 84, 0
2, 137520, Note_on_c, 0, 75, 0
2, 137520, Note_on_c, 0, 75, 60
2, 137520, Note_on_c, 0, 84, 60
2, 137520, Note_on_c, 0, 87, 60
2, 137760, Note_on_c, 0, 87, 0
2, 137760, Note_on_c, 0, 84, 0
2, 137760, Note_on_c, 0, 75, 0
2, 137760, Note_on_c, 0, 73, 60
2, 137760, Note_on_c, 0, 82, 60
2, 137760, Note_on_c, 0, 85, 60
2, 138000, Note_on_c, 0, 85, 0
2, 138000, Note_on_c, 0, 82, 0
2, 138000, Note_on_c, 0, 73, 0
2, 138000, Note_on_c, 0, 73, 60
2, 138000, Note_on_c, 0, 82, 60
2, 138000, Note_on_c, 0, 85, 60
2, 138240, Note_on_c, 0, 85, 0
2, 138240, Note_on_c, 0, 82, 0
2, 138240, Note_on_c, 0, 73, 0
2, 138240, Note_on_c, 0, 72, 86
2, 138240, Note_on_c, 0, 77, 86
2, 138240, Note_on_c, 0, 84, 86
2, 138720, Note_on_c, 0, 84, 0
2, 138720, Note_on_c, 0, 77, 0
2, 138720, Note_on_c, 0, 72, 0
2, 138720, Note_on_c, 0, 73, 60
2, 138720, Note_on_c, 0, 82, 60
2, 139200, Note_on_c, 0, 82, 0
2, 139200, Note_on_c, 0, 73, 0
2, 139200, Note_on_c, 0, 58, 60
2, 139200, Note_on_c, 0, 61, 60
2, 139200, Note_on_c, 0, 65, 60
2, 140160, Note_on_c, 0, 65, 0
2, 140160, Note_on_c, 0, 61, 0
2, 140160, Note_on_c, 0, 58, 0
2, 140160, Note_on_c, 0, 72, 60
2, 140160, Note_on_c, 0, 81, 60
2, 140160, Note_on_c, 0, 84, 60
2, 140880, Note_on_c, 0, 84, 0
2, 140880, Note_on_c, 0, 81, 0
2, 140880, Note_on_c, 0, 72, 0
2, 140880, Note_on_c, 0, 73, 60
2, 140880, Note_on_c, 0, 82, 60
2, 140880, Note_on_c, 0, 85, 60
2, 141120, Note_on_c, 0, 85, 0
2, 141120, Note_on_c, 0, 82, 0
2, 141120, Note_on_c, 0, 73, 0
2, 141120, Note_on_c, 0, 75, 60
2, 141120, Note_on_c, 0, 84, 60
2, 141120, Note_on_c, 0, 87, 60
2, 141360, Note_on_c, 0, 87, 0
2, 141360, Note_on_c, 0, 84, 0
2, 141360, Note_on_c, 0, 75, 0
2, 141360, Note_on_c, 0, 75, 60
2, 141360, Note_on_c, 0, 84, 60
2, 141360, Note_on_c, 0, 87, 60
2, 141600, Note_on_c, 0, 87, 0
2, 141600, Note_on_c, 0, 84, 0
2, 141600, Note_on_c, 0, 75, 0
2, 141600, Note_on_c, 0, 73, 60
2, 141600, Note_on_c, 0, 82, 60
2, 141600, Note_on_c, 0, 85, 60
2, 141840, Note_on_c, 0, 85, 0
2, 141840, Note_on_c, 0, 82, 0
2, 141840, Note_on_c, 0, 73, 0
2, 141840, Note_on_c, 0, 73, 60
2, 141840, Note_on_c, 0, 82, 60
2, 141840, Note_on_c, 0, 85, 60
2, 142080, Note_on_c, 0, 85, 0
2, 142080, Note_on_c, 0, 82, 0
2, 142080, Note_on_c, 0, 73, 0
2, 142080, Note_on_c, 0, 72, 86
2, 142080, Note_on_c, 0, 77, 86
2, 142080, Note_on_c, 0, 84, 86
2, 142560, Note_on_c, 0, 84, 0
2, 142560, Note_on_c, 0, 77, 0
2, 142560, Note_on_c, 0, 72, 0
2, 142560, Note_on_c, 0, 73, 60
2, 142560, Note_on_c, 0, 82, 60
2, 143040, Note_on_c, 0, 82, 0
2, 143040, Note_on_c, 0, 73, 0
2, 143040, Note_on_c, 0, 58, 60
2, 143040, Note_on_c, 0, 61, 60
2, 143040, Note_on_c, 0, 65, 60
2, 144000, Note_on_c, 0, 65, 0
2, 144000, Note_on_c, 0, 61, 0
2, 144000, Note_on_c, 0, 58, 0
2, 144000, Note_on_c, 0, 65, 73
2, 144240, Note_on_c, 0, 65, 0
2, 144240, Note_on_c, 0, 65, 73
2, 144480, Note_on_c, 0, 65, 0
2, 144480, Note_on_c, 0, 67, 73
2, 144720, Note_on_c, 0, 67, 0
2, 144720, Note_on_c, 0, 67, 73
2, 144960, Note_on_c, 0, 67, 0
2, 144960, Note_on_c, 0, 69, 73
2, 145080, Note_on_c, 0, 69, 0
2, 145080, Note_on_c, 0, 66, 73
2, 145200, Note_on_c, 0, 66, 0
2, 145200, Note_on_c, 0, 69, 73
2, 145320, Note_on_c, 0, 69, 0
2, 145320, Note_on_c, 0, 66, 73
2, 145440, Note_on_c, 0, 66, 0
2, 145440, Note_on_c, 0, 70, 73
2, 145560, Note_on_c, 0, 70, 0
2, 145560, Note_on_c, 0, 65, 73
2, 145680, Note_on_c, 0, 65, 0
2, 145680, Note_on_c, 0, 70, 73
2, 145800, Note_on_c, 0, 70, 0
2, 145800, Note_on_c, 0, 65, 73
2, 145920, Note_on_c, 0, 65, 0
2, 145920, Note_on_c, 0, 72, 73
2, 146040, Note_on_c, 0, 72, 0
2, 146040, Note_on_c, 0, 70, 73
2, 146160, Note_on_c, 0, 70, 0
2, 146160, Note_on_c, 0, 72, 73
2, 146280, Note_on_c, 0, 72, 0
2, 146280, Note_on_c, 0, 70, 73
2, 146400, Note_on_c, 0, 70, 0
2, 146400, Note_on_c, 0, 61, 73
2, 146400, Note_on_c, 0, 73, 73
2, 146520, Note_on_c, 0, 73, 0
2, 146520, Note_on_c, 0, 61, 0
2, 146520, Note_on_c, 0, 70, 73
2, 146640, Note_on_c, 0, 70, 0
2, 146640, Note_on_c, 0, 61, 73
2, 146640, Note_on_c, 0, 73, 73
2, 146760, Note_on_c, 0, 73, 0
2, 146760, Note_on_c, 0, 61, 0
2, 146760, Note_on_c, 0, 70, 73
2, 146880, Note_on_c, 0, 70, 0
2, 146880, Note_on_c, 0, 63, 73
2, 146880, Note_on_c, 0, 75, 73
2, 147000, Note_on_c, 0, 75, 0
2, 147000, Note_on_c, 0, 63, 0
2, 147000, Note_on_c, 0, 70, 73
2, 147000, Note_on_c, 0, 72, 73
2, 147120, Note_on_c, 0, 72, 0
2, 147120, Note_on_c, 0, 70, 0
2, 147120, Note_on_c, 0, 63, 73
2, 147120, Note_on_c, 0, 75, 73
2, 147240, Note_on_c, 0, 75, 0
2, 147240, Note_on_c, 0, 63, 0
2, 147240, Note_on_c, 0, 70, 73
2, 147240, Note_on_c, 0, 72, 73
2, 147360, Note_on_c, 0, 72, 0
2, 147360, Note_on_c, 0, 70, 0
2, 147360, Note_on_c, 0, 64, 73
2, 147360, Note_on_c, 0, 76, 73
2, 147480, Note_on_c, 0, 76, 0
2, 147480, Note_on_c, 0, 64, 0
2, 147480, Note_on_c, 0, 70, 73
2, 147480, Note_on_c, 0, 72, 73
2, 147600, Note_on_c, 0, 72, 0
2, 147600, Note_on_c, 0, 70, 0
2, 147600, Note_on_c, 0, 64, 73
2, 147600, Note_on_c, 0, 76, 73
2, 147720, Note_on_c, 0, 76, 0
2, 147720, Note_on_c, 0, 64, 0
2, 147720, Note_on_c, 0, 70, 73
2, 147720, Note_on_c, 0, 72, 73
2, 147840, Note_on_c, 0, 72, 0
2, 147840, Note_on_c, 0, 70, 0
2, 147840, Note_on_c, 0, 77, 73
2, 147960, Note_on_c, 0, 77, 0
2, 147960, Note_on_c, 0, 70, 73
2, 147960, Note_on_c, 0, 73, 73
2, 148080, Note_on_c, 0, 73, 0
2, 148080, Note_on_c, 0, 70, 0
2, 148080, Note_on_c, 0, 77, 73
2, 148200, Note_on_c, 0, 77, 0
2, 148200, Note_on_c, 0, 70, 73
2, 148200, Note_on_c, 0, 73, 73
2, 148320, Note_on_c, 0, 73, 0
2, 148320, Note_on_c, 0, 70, 0
2, 148320, Note_on_c, 0, 67, 73
2, 148440, Note_on_c, 0, 67, 0
2, 148440, Note_on_c, 0, 79, 73
2, 148560, Note_on_c, 0, 79, 0
2, 148560, Note_on_c, 0, 67, 73
2, 148680, Note_on_c, 0, 67, 0
2, 148680, Note_on_c, 0, 79, 73
2, 148800, Note_on_c, 0, 79, 0
2, 148800, Note_on_c, 0, 69, 73
2, 148920, Note_on_c, 0, 69, 0
2, 148920, Note_on_c, 0, 81, 73
2, 149040, Note_on_c, 0, 81, 0
2, 149040, Note_on_c, 0, 69, 73
2, 149160, Note_on_c, 0, 69, 0
2, 149160, Note_on_c, 0, 81, 73
2, 149280, Note_on_c, 0, 81, 0
2, 149280, Note_on_c, 0, 70, 73
2, 149400, Note_on_c, 0, 70, 0
2, 149400, Note_on_c, 0, 82, 73
2, 149520, Note_on_c, 0, 82, 0
2, 149520, Note_on_c, 0, 70, 73
2, 149640, Note_on_c, 0, 70, 0
2, 149640, Note_on_c, 0, 77, 73
2, 149640, Note_on_c, 0, 82, 73
2, 149760, Note_on_c, 0, 82, 0
2, 149760, Note_on_c, 0, 77, 0
2, 149760, Note_on_c, 0, 72, 73
2, 149760, Note_on_c, 0, 82, 73
2, 149880, Note_on_c, 0, 82, 0
2, 149880, Note_on_c, 0, 72, 0
2, 149880, Note_on_c, 0, 84, 73
2, 150000, Note_on_c, 0, 84, 0
2, 150000, Note_on_c, 0, 72, 73
2, 150120, Note_on_c, 0, 72, 0
2, 150120, Note_on_c, 0, 84, 73
2, 150240, Note_on_c, 0, 84, 0
2, 150240, Note_on_c, 0, 73, 73
2, 150240, Note_on_c, 0, 82, 73
2, 150360, Note_on_c, 0, 82, 0
2, 150360, Note_on_c, 0, 73, 0
2, 150360, Note_on_c, 0, 85, 73
2, 150480, Note_on_c, 0, 85, 0
2, 150480, Note_on_c, 0, 73, 73
2, 150600, Note_on_c, 0, 73, 0
2, 150600, Note_on_c, 0, 85, 73
2, 150720, Note_on_c, 0, 85, 0
2, 150720, Note_on_c, 0, 72, 73
2, 150720, Note_on_c, 0, 77, 73
2, 150840, Note_on_c, 0, 77, 0
2, 150840, Note_on_c, 0, 72, 0
2, 150840, Note_on_c, 0, 84, 73
2, 150960, Note_on_c, 0, 84, 0
2, 150960, Note_on_c, 0, 72, 73
2, 150960, Note_on_c, 0, 77, 73
2, 151080, Note_on_c, 0, 77, 0
2, 151080, Note_on_c, 0, 72, 0
2, 151080, Note_on_c, 0, 84, 73
2, 151200, Note_on_c, 0, 84, 0
2, 151200, Note_on_c, 0, 70, 73
2, 151320, Note_on_c, 0, 70, 0
2, 151320, Note_on_c, 0, 82, 73
2, 151440, Note_on_c, 0, 82, 0
2, 151440, Note_on_c, 0, 70, 73
2, 151560, Note_on_c, 0, 70, 0
2, 151560, Note_on_c, 0, 82, 73
2, 151680, Note_on_c, 0, 82, 0
2, 151680, Note_on_c, 0, 69, 73
2, 151680, Note_on_c, 0, 77, 73
2, 151680, Note_on_c, 0, 81, 73
2, 151920, Note_on_c, 0, 81, 0
2, 151920, Note_on_c, 0, 77, 0
2, 151920, Note_on_c, 0, 69, 0
2, 151920, Note_on_c, 0, 69, 73
2, 152040, Note_on_c, 0, 69, 0
2, 152040, Note_on_c, 0, 81, 73
2, 152160, Note_on_c, 0, 81, 0
2, 152160, Note_on_c, 0, 66, 73
2, 152280, Note_on_c, 0, 66, 0
2, 152280, Note_on_c, 0, 78, 73
2, 152400, Note_on_c, 0, 78, 0
2, 152400, Note_on_c, 0, 66, 73
2, 152520, Note_on_c, 0, 66, 0
2, 152520, Note_on_c, 0, 78, 73
2, 152640, Note_on_c, 0, 78, 0
2, 152640, Note_on_c, 0, 65, 73
2, 152760, Note_on_c, 0, 65, 0
2, 152760, Note_on_c, 0, 77, 73
2, 152880, Note_on_c, 0, 77, 0
2, 152880, Note_on_c, 0, 65, 73
2, 153000, Note_on_c, 0, 65, 0
2, 153000, Note_on_c, 0, 77, 73
2, 153120, Note_on_c, 0, 77, 0
2, 153120, Note_on_c, 0, 67, 73
2, 153240, Note_on_c, 0, 67, 0
2, 153240, Note_on_c, 0, 79, 73
2, 153360, Note_on_c, 0, 79, 0
2, 153360, Note_on_c, 0, 67, 73
2, 153480, Note_on_c, 0, 67, 0
2, 153480, Note_on_c, 0, 79, 73
2, 153600, Note_on_c, 0, 79, 0
2, 153600, Note_on_c, 0, 69, 73
2, 153600, Note_on_c, 0, 77, 73
2, 153720, Note_on_c, 0, 77, 0
2, 153720, Note_on_c, 0, 69, 0
2, 153720, Note_on_c, 0, 81, 73
2, 153840, Note_on_c, 0, 81, 0
2, 153840, Note_on_c, 0, 69, 73
2, 153840, Note_on_c, 0, 77, 73
2, 153960, Note_on_c, 0, 77, 0
2, 153960, Note_on_c, 0, 69, 0
2, 153960, Note_on_c, 0, 81, 73
2, 154080, Note_on_c, 0, 81, 0
2, 154080, Note_on_c, 0, 70, 73
2, 154080, Note_on_c, 0, 77, 73
2, 154200, Note_on_c, 0, 77, 0
2, 154200, Note_on_c, 0, 70, 0
2, 154200, Note_on_c, 0, 82, 73
2, 154320, Note_on_c, 0, 82, 0
2, 154320, Note_on_c, 0, 70, 73
2, 154320, Note_on_c, 0, 77, 73
2, 154440, Note_on_c, 0, 77, 0
2, 154440, Note_on_c, 0, 70, 0
2, 154440, Note_on_c, 0, 82, 73
2, 154560, Note_on_c, 0, 82, 0
2, 154560, Note_on_c, 0, 77, 73
2, 154680, Note_on_c, 0, 77, 0
2, 154680, Note_on_c, 0, 89, 73
2, 154800, Note_on_c, 0, 89, 0
2, 154800, Note_on_c, 0, 73, 73
2, 154920, Note_on_c, 0, 73, 0
2, 154920, Note_on_c, 0, 85, 73
2, 155040, Note_on_c, 0, 85, 0
2, 155040, Note_on_c, 0, 72, 73
2, 155160, Note_on_c, 0, 72, 0
2, 155160, Note_on_c, 0, 84, 73
2, 155280, Note_on_c, 0, 84, 0
2, 155280, Note_on_c, 0, 70, 73
2, 155400, Note_on_c, 0, 70, 0
2, 155400, Note_on_c, 0, 82, 73
2, 155520, Note_on_c, 0, 82, 0
2, 155520, Note_on_c, 0, 69, 73
2, 155520, Note_on_c, 0, 77, 73
2, 155520, Note_on_c, 0, 81, 73
2, 155760, Note_on_c, 0, 81, 0
2, 155760, Note_on_c, 0, 77, 0
2, 155760, Note_on_c, 0, 69, 0
2, 155760, Note_on_c, 0, 69, 73
2, 155880, Note_on_c, 0, 69, 0
2, 155880, Note_on_c, 0, 81, 73
2, 156000, Note_on_c, 0, 81, 0
2, 156000, Note_on_c, 0, 66, 73
2, 156120, Note_on_c, 0, 66, 0
2, 156120, Note_on_c, 0, 78, 73
2, 156240, Note_on_c, 0, 78, 0
2, 156240, Note_on_c, 0, 66, 73
2, 156360, Note_on_c, 0, 66, 0
2, 156360, Note_on_c, 0, 78, 73
2, 156480, Note_on_c, 0, 78, 0
2, 156480, Note_on_c, 0, 65, 73
2, 156600, Note_on_c, 0, 65, 0
2, 156600, Note_on_c, 0, 77, 73
2, 156720, Note_on_c, 0, 77, 0
2, 156720, Note_on_c, 0, 65, 73
2, 156840, Note_on_c, 0, 65, 0
2, 156840, Note_on_c, 0, 77, 73
2, 156960, Note_on_c, 0, 77, 0
2, 156960, Note_on_c, 0, 67, 73
2, 157080, Note_on_c, 0, 67, 0
2, 157080, Note_on_c, 0, 79, 73
2, 157200, Note_on_c, 0, 79, 0
2, 157200, Note_on_c, 0, 67, 73
2, 157320, Note_on_c, 0, 67, 0
2, 157320, Note_on_c, 0, 79, 73
2, 157440, Note_on_c, 0, 79, 0
2, 157440, Note_on_c, 0, 69, 73
2, 157440, Note_on_c, 0, 77, 73
2, 157560, Note_on_c, 0, 77, 0
2, 157560, Note_on_c, 0, 69, 0
2, 157560, Note_on_c, 0, 81, 73
2, 157680, Note_on_c, 0, 81, 0
2, 157680, Note_on_c, 0, 69, 73
2, 157680, Note_on_c, 0, 77, 73
2, 157800, Note_on_c, 0, 77, 0
2, 157800, Note_on_c, 0, 69, 0
2, 157800, Note_on_c, 0, 81, 73
2, 157920, Note_on_c, 0, 81, 0
2, 157920, Note_on_c, 0, 70, 73
2, 157920, Note_on_c, 0, 77, 73
2, 158040, Note_on_c, 0, 77, 0
2, 158040, Note_on_c, 0, 70, 0
2, 158040, Note_on_c, 0, 82, 73
2, 158160, Note_on_c, 0, 82, 0
2, 158160, Note_on_c, 0, 70, 73
2, 158160, Note_on_c, 0, 77, 73
2, 158280, Note_on_c, 0, 77, 0
2, 158280, Note_on_c, 0, 70, 0
2, 158280, Note_on_c, 0, 82, 73
2, 158400, Note_on_c, 0, 82, 0
2, 158400, Note_on_c, 0, 77, 73
2, 158520, Note_on_c, 0, 77, 0
2, 158520, Note_on_c, 0, 89, 73
2, 158640, Note_on_c, 0, 89, 0
2, 158640, Note_on_c, 0, 73, 73
2, 158760, Note_on_c, 0, 73, 0
2, 158760, Note_on_c, 0, 85, 73
2, 158880, Note_on_c, 0, 85, 0
2, 158880, Note_on_c, 0, 72, 73
2, 159000, Note_on_c, 0, 72, 0
2, 159000, Note_on_c, 0, 84, 73
2, 159120, Note_on_c, 0, 84, 0
2, 159120, Note_on_c, 0, 70, 73
2, 159240, Note_on_c, 0, 70, 0
2, 159240, Note_on_c, 0, 82, 73
2, 159360, Note_on_c, 0, 82, 0
2, 159360, Control_c, 0, 64, 127
2, 159360, Note_on_c, 0, 65, 86
2, 159480, Note_on_c, 0, 65, 0
2, 159480, Note_on_c, 0, 67, 86
2, 159600, Note_on_c, 0, 67, 0
2, 159600, Note_on_c, 0, 69, 86
2, 159720, Note_on_c, 0, 69, 0
2, 159720, Note_on_c, 0, 70, 86
2, 159840, Note_on_c, 0, 70, 0
2, 159840, Control_c, 0, 64, 127
2, 159840, Note_on_c, 0, 65, 86
2, 159960, Note_on_c, 0, 65, 0
2, 159960, Note_on_c, 0, 67, 86
2, 160080, Note_on_c, 0, 67, 0
2, 160080, Note_on_c, 0, 69, 86
2, 160200, Note_on_c, 0, 69, 0
2, 160200, Control_c, 0, 64, 0
2, 160200, Note_on_c, 0, 70, 86
2, 160320, Note_on_c, 0, 70, 0
2, 160320, Control_c, 0, 64, 127
2, 160320, Note_on_c, 0, 69, 86
2, 160440, Note_on_c, 0, 69, 0
2, 160440, Note_on_c, 0, 70, 86
2, 160560, Note_on_c, 0, 70, 0
2, 160560, Note_on_c, 0, 72, 86
2, 160680, Note_on_c, 0, 72, 0
2, 160680, Control_c, 0, 64, 0
2, 160680, Note_on_c, 0, 73, 86
2, 160800, Note_on_c, 0, 73, 0
2, 160800, Control_c, 0, 64, 127
2, 160800, Note_on_c, 0, 70, 86
2, 160920, Note_on_c, 0, 70, 0
2, 160920, Note_on_c, 0, 73, 86
2, 161040, Note_on_c, 0, 73, 0
2, 161040, Note_on_c, 0, 75, 86
2, 161160, Note_on_c, 0, 75, 0
2, 161160, Control_c, 0, 64, 0
2, 161160, Note_on_c, 0, 77, 86
2, 161280, Note_on_c, 0, 77, 0
2, 161280, Control_c, 0, 64, 127
2, 161280, Note_on_c, 0, 76, 86
2, 161400, Note_on_c, 0, 76, 0
2, 161400, Note_on_c, 0, 77, 86
2, 161520, Note_on_c, 0, 77, 0
2, 161520, Note_on_c, 0, 79, 86
2, 161640, Note_on_c, 0, 79, 0
2, 161640, Control_c, 0, 64, 0
2, 161640, Note_on_c, 0, 81, 86
2, 161760, Note_on_c, 0, 81, 0
2, 161760, Control_c, 0, 64, 127
2, 161760, Note_on_c, 0, 77, 86
2, 161880, Note_on_c, 0, 77, 0
2, 161880, Note_on_c, 0, 79, 86
2, 162000, Note_on_c, 0, 79, 0
2, 162000, Note_on_c, 0, 81, 86
2, 162120, Note_on_c, 0, 81, 0
2, 162120, Control_c, 0, 64, 0
2, 162120, Note_on_c, 0, 82, 86
2, 162240, Note_on_c, 0, 82, 0
2, 162240, Control_c, 0, 64, 127
2, 162240, Note_on_c, 0, 77, 86
2, 162360, Note_on_c, 0, 77, 0
2, 162360, Note_on_c, 0, 79, 86
2, 162480, Note_on_c, 0, 79, 0
2, 162480, Note_on_c, 0, 81, 86
2, 162600, Note_on_c, 0, 81, 0
2, 162600, Control_c, 0, 64, 0
2, 162600, Note_on_c, 0, 82, 86
2, 162720, Note_on_c, 0, 82, 0
2, 162720, Control_c, 0, 64, 127
2, 162720, Note_on_c, 0, 77, 86
2, 162840, Note_on_c, 0, 77, 0
2, 162840, Note_on_c, 0, 79, 86
2, 162960, Note_on_c, 0, 79, 0
2, 162960, Note_on_c, 0, 81, 86
2, 163080, Note_on_c, 0, 81, 0
2, 163080, Control_c, 0, 64, 0
2, 163080, Note_on_c, 0, 82, 86
2, 163200, Note_on_c, 0, 82, 0
2, 163200, Control_c, 0, 64, 127
2, 163200, Note_on_c, 0, 77, 86
2, 163320, Note_on_c, 0, 77, 0
2, 163320, Note_on_c, 0, 79, 86
2, 163440, Note_on_c, 0, 79, 0
2, 163440, Note_on_c, 0, 81, 86
2, 163560, Note_on_c, 0, 81, 0
2, 163560, Note_on_c, 0, 82, 86
2, 163680, Note_on_c, 0, 82, 0
2, 163680, Control_c, 0, 64, 127
2, 163680, Note_on_c, 0, 77, 86
2, 163800, Note_on_c, 0, 77, 0
2, 163800, Note_on_c, 0, 79, 86
2, 163920, Note_on_c, 0, 79, 0
2, 163920, Note_on_c, 0, 81, 86
2, 164040, Note_on_c, 0, 81, 0
2, 164040, Control_c, 0, 64, 0
2, 164040, Note_on_c, 0, 82, 86
2, 164160, Note_on_c, 0, 82, 0
2, 164160, Control_c, 0, 64, 127
2, 164160, Note_on_c, 0, 81, 86
2, 164280, Note_on_c, 0, 81, 0
2, 164280, Note_on_c, 0, 82, 86
2, 164400, Note_on_c, 0, 82, 0
2, 164400, Note_on_c, 0, 84, 86
2, 164520, Note_on_c, 0, 84, 0
2, 164520, Control_c, 0, 64, 0
2, 164520, Note_on_c, 0, 85, 86
2, 164640, Note_on_c, 0, 85, 0
2, 164640, Control_c, 0, 64, 127
2, 164640, Note_on_c, 0, 82, 86
2, 164760, Note_on_c, 0, 82, 0
2, 164760, Note_on_c, 0, 85, 86
2, 164880, Note_on_c, 0, 85, 0
2, 164880, Note_on_c, 0, 87, 86
2, 165000, Note_on_c, 0, 87, 0
2, 165000, Control_c, 0, 64, 0
2, 165000, Note_on_c, 0, 89, 86
2, 165120, Note_on_c, 0, 89, 0
2, 165120, Control_c, 0, 64, 127
2, 165120, Note_on_c, 0, 88, 86
2, 165240, Note_on_c, 0, 88, 0
2, 165240, Note_on_c, 0, 89, 86
2, 165360, Note_on_c, 0, 89, 0
2, 165360, Note_on_c, 0, 91, 86
2, 165480, Note_on_c, 0, 91, 0
2, 165480, Control_c, 0, 64, 0
2, 165480, Note_on_c, 0, 93, 86
2, 165600, Note_on_c, 0, 93, 0
2, 165600, Control_c, 0, 64, 127
2, 165600, Note_on_c, 0, 89, 86
2, 165720, Note_on_c, 0, 89, 0
2, 165720, Note_on_c, 0, 91, 86
2, 165840, Note_on_c, 0, 91, 0
2, 165840, Note_on_c, 0, 93, 86
2, 165960, Note_on_c, 0, 93, 0
2, 165960, Control_c, 0, 64, 0
2, 165960, Note_on_c, 0, 94, 86
2, 166080, Note_on_c, 0, 94, 0
2, 166080, Control_c, 0, 64, 127
2, 166080, Note_on_c, 0, 89, 86
2, 166200, Note_on_c, 0, 89, 0
2, 166200, Note_on_c, 0, 91, 86
2, 166320, Note_on_c, 0, 91, 0
2, 166320, Note_on_c, 0, 93, 86
2, 166440, Note_on_c, 0, 93, 0
2, 166440, Control_c, 0, 64, 0
2, 166440, Note_on_c, 0, 94, 86
2, 166560, Note_on_c, 0, 94, 0
2, 166560, Control_c, 0, 64, 127
2, 166560, Note_on_c, 0, 89, 86
2, 166680, Note_on_c, 0, 89, 0
2, 166680, Note_on_c, 0, 91, 86
2, 166800, Note_on_c, 0, 91, 0
2, 166800, Note_on_c, 0, 93, 86
2, 166920, Note_on_c, 0, 93, 0
2, 166920, Control_c, 0, 64, 0
2, 166920, Note_on_c, 0, 94, 86
2, 167040, Note_on_c, 0, 94, 0
2, 167040, Note_on_c, 0, 89, 86
2, 167160, Note_on_c, 0, 89, 0
2, 167160, Note_on_c, 0, 90, 86
2, 167280, Note_on_c, 0, 90, 0
2, 167280, Note_on_c, 0, 91, 86
2, 167400, Note_on_c, 0, 91, 0
2, 167400, Note_on_c, 0, 93, 86
2, 167520, Note_on_c, 0, 93, 0
2, 167520, Note_on_c, 0, 89, 86
2, 167640, Note_on_c, 0, 89, 0
2, 167640, Note_on_c, 0, 90, 86
2, 167760, Note_on_c, 0, 90, 0
2, 167760, Note_on_c, 0, 91, 86
2, 167880, Note_on_c, 0, 91, 0
2, 167880, Note_on_c, 0, 93, 86
2, 168000, Note_on_c, 0, 93, 0
2, 168000, Note_on_c, 0, 89, 86
2, 168120, Note_on_c, 0, 89, 0
2, 168120, Note_on_c, 0, 91, 86
2, 168240, Note_on_c, 0, 91, 0
2, 168240, Note_on_c, 0, 92, 86
2, 168360, Note_on_c, 0, 92, 0
2, 168360, Note_on_c, 0, 93, 86
2, 168480, Note_on_c, 0, 93, 0
2, 168480, Note_on_c, 0, 89, 86
2, 168600, Note_on_c, 0, 89, 0
2, 168600, Note_on_c, 0, 91, 86
2, 168720, Note_on_c, 0, 91, 0
2, 168720, Note_on_c, 0, 93, 86
2, 168840, Note_on_c, 0, 93, 0
2, 168840, Note_on_c, 0, 94, 86
2, 168960, Note_on_c, 0, 94, 0
2, 168960, Note_on_c, 0, 89, 86
2, 169080, Note_on_c, 0, 89, 0
2, 169080, Note_on_c, 0, 91, 86
2, 169200, Note_on_c, 0, 91, 0
2, 169200, Note_on_c, 0, 92, 86
2, 169320, Note_on_c, 0, 92, 0
2, 169320, Note_on_c, 0, 93, 86
2, 169440, Note_on_c, 0, 93, 0
2, 169440, Note_on_c, 0, 89, 86
2, 169560, Note_on_c, 0, 89, 0
2, 169560, Note_on_c, 0, 91, 86
2, 169680, Note_on_c, 0, 91, 0
2, 169680, Note_on_c, 0, 93, 86
2, 169800, Note_on_c, 0, 93, 0
2, 169800, Note_on_c, 0, 94, 86
2, 169920, Note_on_c, 0, 94, 0
2, 169920, Note_on_c, 0, 84, 86
2, 170040, Note_on_c, 0, 84, 0
2, 170040, Note_on_c, 0, 85, 86
2, 170160, Note_on_c, 0, 85, 0
2, 170160, Note_on_c, 0, 87, 86
2, 170280, Note_on_c, 0, 87, 0
2, 170280, Note_on_c, 0, 89, 86
2, 170400, Note_on_c, 0, 89, 0
2, 170400, Note_on_c, 0, 81, 86
2, 170520, Note_on_c, 0, 81, 0
2, 170520, Note_on_c, 0, 82, 86
2, 170640, Note_on_c, 0, 82, 0
2, 170640, Note_on_c, 0, 84, 86
2, 170760, Note_on_c, 0, 84, 0
2, 170760, Note_on_c, 0, 85, 86
2, 170880, Note_on_c, 0, 85, 0
2, 170880, Note_on_c, 0, 77, 86
2, 171000, Note_on_c, 0, 77, 0
2, 171000, Note_on_c, 0, 78, 86
2, 171120, Note_on_c, 0, 78, 0
2, 171120, Note_on_c, 0, 79, 86
2, 171240, Note_on_c, 0, 79, 0
2, 171240, Note_on_c, 0, 81, 86
2, 171360, Note_on_c, 0, 81, 0
2, 171360, Note_on_c, 0, 77, 86
2, 171480, Note_on_c, 0, 77, 0
2, 171480, Note_on_c, 0, 78, 86
2, 171600, Note_on_c, 0, 78, 0
2, 171600, Note_on_c, 0, 79, 86
2, 171720, Note_on_c, 0, 79, 0
2, 171720, Note_on_c, 0, 81, 86
2, 171840, Note_on_c, 0, 81, 0
2, 171840, Note_on_c, 0, 77, 86
2, 171960, Note_on_c, 0, 77, 0
2, 171960, Note_on_c, 0, 79, 86
2, 172080, Note_on_c, 0, 79, 0
2, 172080, Note_on_c, 0, 80, 86
2, 172200, Note_on_c, 0, 80, 0
2, 172200, Note_on_c, 0, 81, 86
2, 172320, Note_on_c, 0, 81, 0
2, 172320, Note_on_c, 0, 77, 86
2, 172440, Note_on_c, 0, 77, 0
2, 172440, Note_on_c, 0, 79, 86
2, 172560, Note_on_c, 0, 79, 0
2, 172560, Note_on_c, 0, 81, 86
2, 172680, Note_on_c, 0, 81, 0
2, 172680, Note_on_c, 0, 82, 86
2, 172800, Note_on_c, 0, 82, 0
2, 172800, Note_on_c, 0, 77, 86
2, 172920, Note_on_c, 0, 77, 0
2, 172920, Note_on_c, 0, 78, 86
2, 173040, Note_on_c, 0, 78, 0
2, 173040, Note_on_c, 0, 79, 86
2, 173160, Note_on_c, 0, 79, 0
2, 173160, Note_on_c, 0, 81, 86
2, 173280, Note_on_c, 0, 81, 0
2, 173280, Note_on_c, 0, 77, 86
2, 173400, Note_on_c, 0, 77, 0
2, 173400, Note_on_c, 0, 79, 86
2, 173520, Note_on_c, 0, 79, 0
2, 173520, Note_on_c, 0, 81, 86
2, 173640, Note_on_c, 0, 81, 0
2, 173640, Note_on_c, 0, 82, 86
2, 173760, Note_on_c, 0, 82, 0
2, 173760, Note_on_c, 0, 72, 86
2, 173880, Note_on_c, 0, 72, 0
2, 173880, Note_on_c, 0, 73, 86
2, 174000, Note_on_c, 0, 73, 0
2, 174000, Note_on_c, 0, 75, 86
2, 174120, Note_on_c, 0, 75, 0
2, 174120, Note_on_c, 0, 77, 86
2, 174240, Note_on_c, 0, 77, 0
2, 174240, Note_on_c, 0, 69, 86
2, 174360, Note_on_c, 0, 69, 0
2, 174360, Note_on_c, 0, 70, 86
2, 174480, Note_on_c, 0, 70, 0
2, 174480, Note_on_c, 0, 72, 86
2, 174600, Note_on_c, 0, 72, 0
2, 174600, Note_on_c, 0, 73, 86
2, 174720, Note_on_c, 0, 73, 0
2, 174720, Note_on_c, 0, 68, 47
2, 174720, Note_on_c, 0, 71, 47
2, 174720, Note_on_c, 0, 77, 47
2, 174767, Note_on_c, 0, 77, 0
2, 174767, Note_on_c, 0, 71, 0
2, 174767, Note_on_c, 0, 68, 0
2, 174960, Note_on_c, 0, 68, 47
2, 174960, Note_on_c, 0, 71, 47
2, 174960, Note_on_c, 0, 77, 47
2, 175007, Note_on_c, 0, 77, 0
2, 175007, Note_on_c, 0, 71, 0
2, 175007, Note_on_c, 0, 68, 0
2, 175200, Note_on_c, 0, 68, 47
2, 175200, Note_on_c, 0, 71, 47
2, 175200, Note_on_c, 0, 77, 47
2, 175247, Note_on_c, 0, 77, 0
2, 175247, Note_on_c, 0, 71, 0
2, 175247, Note_on_c, 0, 68, 0
2, 175440, Note_on_c, 0, 68, 47
2, 175440, Note_on_c, 0, 71, 47
2, 175440, Note_on_c, 0, 77, 47
2, 175487, Note_on_c, 0, 77, 0
2, 175487, Note_on_c, 0, 71, 0
2, 175487, Note_on_c, 0, 68, 0
2, 175680, Note_on_c, 0, 71, 47
2, 175680, Note_on_c, 0, 75, 47
2, 176160, Note_on_c, 0, 75, 0
2, 176160, Note_on_c, 0, 71, 0
2, 176160, Note_on_c, 0, 71, 47
2, 176160, Note_on_c, 0, 73, 47
2, 176400, Note_on_c, 0, 73, 0
2, 176400, Note_on_c, 0, 71, 0
2, 176400, Note_on_c, 0, 71, 47
2, 176400, Note_on_c, 0, 73, 47
2, 176640, Note_on_c, 0, 73, 0
2, 176640, Note_on_c, 0, 71, 0
2, 176640, Note_on_c, 0, 63, 47
2, 176640, Note_on_c, 0, 65, 47
2, 176640, Note_on_c, 0, 68, 47
2, 176640, Note_on_c, 0, 71, 47
2, 177120, Note_on_c, 0, 71, 0
2, 177120, Note_on_c, 0, 63, 0
2, 177120, Note_on_c, 0, 65, 0
2, 177120, Note_on_c, 0, 68, 0
2, 177120, Note_on_c, 0, 61, 47
2, 177120, Note_on_c, 0, 66, 47
2, 177120, Note_on_c, 0, 70, 47
2, 177360, Note_on_c, 0, 70, 0
2, 177360, Note_on_c, 0, 66, 0
2, 177360, Note_on_c, 0, 61, 0
2, 177360, Note_on_c, 0, 78, 34
2, 177360, Note_on_c, 0, 85, 34
2, 177480, Note_on_c, 0, 85, 0
2, 177480, Note_on_c, 0, 78, 0
2, 177600, Note_on_c, 0, 82, 34
2, 177600, Note_on_c, 0, 87, 34
2, 177720, Note_on_c, 0, 87, 0
2, 177720, Note_on_c, 0, 82, 0
2, 177840, Note_on_c, 0, 78, 34
2, 177840, Note_on_c, 0, 85, 34
2, 177960, Note_on_c, 0, 85, 0
2, 177960, Note_on_c, 0, 78, 0
2, 178080, Note_on_c, 0, 82, 34
2, 178080, Note_on_c, 0, 87, 34
2, 178200, Note_on_c, 0, 87, 0
2, 178200, Note_on_c, 0, 82, 0
2, 178320, Note_on_c, 0, 78, 34
2, 178320, Note_on_c, 0, 85, 34
2, 178440, Note_on_c, 0, 85, 0
2, 178440, Note_on_c, 0, 78, 0
2, 178560, Note_on_c, 0, 68, 47
2, 178560, Note_on_c, 0, 71, 47
2, 178560, Note_on_c, 0, 77, 47
2, 178607, Note_on_c, 0, 77, 0
2, 178607, Note_on_c, 0, 71, 0
2, 178607, Note_on_c, 0, 68, 0
2, 178800, Note_on_c, 0, 68, 47
2, 178800, Note_on_c, 0, 71, 47
2, 178800, Note_on_c, 0, 77, 47
2, 178847, Note_on_c, 0, 77, 0
2, 178847, Note_on_c, 0, 71, 0
2, 178847, Note_on_c, 0, 68, 0
2, 179040, Note_on_c, 0, 68, 47
2, 179040, Note_on_c, 0, 71, 47
2, 179040, Note_on_c, 0, 77, 47
2, 179087, Note_on_c, 0, 77, 0
2, 179087, Note_on_c, 0, 71, 0
2, 179087, Note_on_c, 0, 68, 0
2, 179280, Note_on_c, 0, 68, 47
2, 179280, Note_on_c, 0, 71, 47
2, 179280, Note_on_c, 0, 77, 47
2, 179327, Note_on_c, 0, 77, 0
2, 179327, Note_on_c, 0, 71, 0
2, 179327, Note_on_c, 0, 68, 0
2, 179520, Note_on_c, 0, 71, 47
2, 179520, Note_on_c, 0, 75, 47
2, 180000, Note_on_c, 0, 75, 0
2, 180000, Note_on_c, 0, 71, 0
2, 180000, Note_on_c, 0, 71, 47
2, 180000, Note_on_c, 0, 73, 47
2, 180240, Note_on_c, 0, 73, 0
2, 180240, Note_on_c, 0, 71, 0
2, 180240, Note_on_c, 0, 71, 47
2, 180240, Note_on_c, 0, 73, 47
2, 180480, Note_on_c, 0, 73, 0
2, 180480, Note_on_c, 0, 71, 0
2, 180480, Note_on_c, 0, 63, 47
2, 180480, Note_on_c, 0, 65, 47
2, 180480, Note_on_c, 0, 68, 47
2, 180480, Note_on_c, 0, 71, 47
2, 180960, Note_on_c, 0, 71, 0
2, 180960, Note_on_c, 0, 63, 0
2, 180960, Note_on_c, 0, 65, 0
2, 180960, Note_on_c, 0, 68, 0
2, 180960, Note_on_c, 0, 61, 47
2, 180960, Note_on_c, 0, 66, 47
2, 180960, Note_on_c, 0, 70, 47
2, 181200, Note_on_c, 0, 70, 0
2, 181200, Note_on_c, 0, 66, 0
2, 181200, Note_on_c, 0, 61, 0
2, 181200, Note_on_c, 0, 78, 34
2, 181200, Note_on_c, 0, 85, 34
2, 181320, Note_on_c, 0, 85, 0
2, 181320, Note_on_c, 0, 78, 0
2, 181440, Note_on_c, 0, 82, 34
2, 181440, Note_on_c, 0, 87, 34
2, 181560, Note_on_c, 0, 87, 0
2, 181560, Note_on_c, 0, 82, 0
2, 181680, Note_on_c, 0, 78, 34
2, 181680, Note_on_c, 0, 85, 34
2, 181800, Note_on_c, 0, 85, 0
2, 181800, Note_on_c, 0, 78, 0
2, 181920, Note_on_c, 0, 82, 34
2, 181920, Note_on_c, 0, 87, 34
2, 182040, Note_on_c, 0, 87, 0
2, 182040, Note_on_c, 0, 82, 0
2, 182160, Note_on_c, 0, 78, 34
2, 182160, Note_on_c, 0, 85, 34
2, 182280, Note_on_c, 0, 85, 0
2, 182280, Note_on_c, 0, 78, 0
2, 182400, Note_on_c, 0, 70, 47
2, 182400, Note_on_c, 0, 73, 47
2, 182400, Note_on_c, 0, 78, 47
2, 182447, Note_on_c, 0, 78, 0
2, 182447, Note_on_c, 0, 73, 0
2, 182447, Note_on_c, 0, 70, 0
2, 182640, Note_on_c, 0, 70, 47
2, 182640, Note_on_c, 0, 73, 47
2, 182640, Note_on_c, 0, 78, 47
2, 182687, Note_on_c, 0, 78, 0
2, 182687, Note_on_c, 0, 73, 0
2, 182687, Note_on_c, 0, 70, 0
2, 182880, Note_on_c, 0, 70, 47
2, 182880, Note_on_c, 0, 73, 47
2, 182880, Note_on_c, 0, 78, 47
2, 182927, Note_on_c, 0, 78, 0
2, 182927, Note_on_c, 0, 73, 0
2, 182927, Note_on_c, 0, 70, 0
2, 183120, Note_on_c, 0, 70, 47
2, 183120, Note_on_c, 0, 73, 47
2, 183120, Note_on_c, 0, 78, 47
2, 183167, Note_on_c, 0, 78, 0
2, 183167, Note_on_c, 0, 73, 0
2, 183167, Note_on_c, 0, 70, 0
2, 183360, Note_on_c, 0, 77, 47
2, 183840, Note_on_c, 0, 77, 0
2, 183840, Note_on_c, 0, 72, 47
2, 183840, Note_on_c, 0, 75, 47
2, 184080, Note_on_c, 0, 75, 0
2, 184080, Note_on_c, 0, 72, 0
2, 184080, Note_on_c, 0, 72, 47
2, 184080, Note_on_c, 0, 75, 47
2, 184320, Note_on_c, 0, 75, 0
2, 184320, Note_on_c, 0, 72, 0
2, 184320, Note_on_c, 0, 67, 47
2, 184320, Note_on_c, 0, 71, 47
2, 184320, Note_on_c, 0, 75, 47
2, 184800, Note_on_c, 0, 75, 0
2, 184800, Note_on_c, 0, 71, 0
2, 184800, Note_on_c, 0, 67, 0
2, 184800, Note_on_c, 0, 68, 47
2, 184800, Note_on_c, 0, 71, 47
2, 184800, Note_on_c, 0, 73, 47
2, 185040, Note_on_c, 0, 73, 0
2, 185040, Note_on_c, 0, 71, 0
2, 185040, Note_on_c, 0, 68, 0
2, 185040, Note_on_c, 0, 77, 34
2, 185040, Note_on_c, 0, 85, 34
2, 185160, Note_on_c, 0, 85, 0
2, 185160, Note_on_c, 0, 77, 0
2, 185280, Note_on_c, 0, 80, 34
2, 185280, Note_on_c, 0, 87, 34
2, 185400, Note_on_c, 0, 87, 0
2, 185400, Note_on_c, 0, 80, 0
2, 185520, Note_on_c, 0, 77, 34
2, 185520, Note_on_c, 0, 85, 34
2, 185640, Note_on_c, 0, 85, 0
2, 185640, Note_on_c, 0, 77, 0
2, 185760, Note_on_c, 0, 80, 34
2, 185760, Note_on_c, 0, 87, 34
2, 185880, Note_on_c, 0, 87, 0
2, 185880, Note_on_c, 0, 80, 0
2, 186000, Note_on_c, 0, 77, 34
2, 186000, Note_on_c, 0, 85, 34
2, 186120, Note_on_c, 0, 85, 0
2, 186120, Note_on_c, 0, 77, 0
2, 186240, Note_on_c, 0, 70, 47
2, 186240, Note_on_c, 0, 73, 47
2, 186240, Note_on_c, 0, 78, 47
2, 186287, Note_on_c, 0, 78, 0
2, 186287, Note_on_c, 0, 73, 0
2, 186287, Note_on_c, 0, 70, 0
2, 186480, Note_on_c, 0, 70, 47
2, 186480, Note_on_c, 0, 73, 47
2, 186480, Note_on_c, 0, 78, 47
2, 186527, Note_on_c, 0, 78, 0
2, 186527, Note_on_c, 0, 73, 0
2, 186527, Note_on_c, 0, 70, 0
2, 186720, Note_on_c, 0, 70, 47
2, 186720, Note_on_c, 0, 73, 47
2, 186720, Note_on_c, 0, 78, 47
2, 186767, Note_on_c, 0, 78, 0
2, 186767, Note_on_c, 0, 73, 0
2, 186767, Note_on_c, 0, 70, 0
2, 186960, Note_on_c, 0, 70, 47
2, 186960, Note_on_c, 0, 73, 47
2, 186960, Note_on_c, 0, 78, 47
2, 187007, Note_on_c, 0, 78, 0
2, 187007, Note_on_c, 0, 73, 0
2, 187007, Note_on_c, 0, 70, 0
2, 187200, Note_on_c, 0, 77, 47
2, 187680, Note_on_c, 0, 77, 0
2, 187680, Note_on_c, 0, 72, 47
2, 187680, Note_on_c, 0, 75, 47
2, 187920, Note_on_c, 0, 75, 0
2, 187920, Note_on_c, 0, 72, 0
2, 187920, Note_on_c, 0, 72, 47
2, 187920, Note_on_c, 0, 75, 47
2, 188160, Note_on_c, 0, 75, 0
2, 188160, Note_on_c, 0, 72, 0
2, 188160, Note_on_c, 0, 67, 47
2, 188160, Note_on_c, 0, 71, 47
2, 188160, Note_on_c, 0, 75, 47
2, 188640, Note_on_c, 0, 75, 0
2, 188640, Note_on_c, 0, 71, 0
2, 188640, Note_on_c, 0, 67, 0
2, 188640, Note_on_c, 0, 68, 47
2, 188640, Note_on_c, 0, 71, 47
2, 188640, Note_on_c, 0, 73, 47
2, 188880, Note_on_c, 0, 73, 0
2, 188880, Note_on_c, 0, 71, 0
2, 188880, Note_on_c, 0, 68, 0
2, 188880, Note_on_c, 0, 77, 34
2, 188880, Note_on_c, 0, 85, 34
2, 189000, Note_on_c, 0, 85, 0
2, 189000, Note_on_c, 0, 77, 0
2, 189120, Note_on_c, 0, 80, 34
2, 189120, Note_on_c, 0, 87, 34
2, 189240, Note_on_c, 0, 87, 0
2, 189240, Note_on_c, 0, 80, 0
2, 189360, Note_on_c, 0, 77, 34
2, 189360, Note_on_c, 0, 85, 34
2, 189480, Note_on_c, 0, 85, 0
2, 189480, Note_on_c, 0, 77, 0
2, 189600, Note_on_c, 0, 80, 34
2, 189600, Note_on_c, 0, 87, 34
2, 189720, Note_on_c, 0, 87, 0
2, 189720, Note_on_c, 0, 80, 0
2, 189840, Note_on_c, 0, 77, 34
2, 189840, Note_on_c, 0, 85, 34
2, 189960, Note_on_c, 0, 85, 0
2, 189960, Note_on_c, 0, 77, 0
2, 190080, Note_on_c, 0, 75, 73
2, 190200, Note_on_c, 0, 75, 0
2, 190200, Note_on_c, 0, 75, 73
2, 190320, Note_on_c, 0, 75, 0
2, 190320, Note_on_c, 0, 75, 73
2, 190440, Note_on_c, 0, 75, 0
2, 190440, Note_on_c, 0, 75, 73
2, 190560, Note_on_c, 0, 75, 0
2, 190560, Note_on_c, 0, 66, 73
2, 190560, Note_on_c, 0, 70, 73
2, 190560, Note_on_c, 0, 75, 73
2, 190800, Note_on_c, 0, 75, 0
2, 190800, Note_on_c, 0, 70, 0
2, 190800, Note_on_c, 0, 66, 0
2, 190800, Note_on_c, 0, 73, 73
2, 191040, Note_on_c, 0, 73, 0
2, 191040, Note_on_c, 0, 66, 73
2, 191040, Note_on_c, 0, 78, 73
2, 191160, Note_on_c, 0, 78, 0
2, 191160, Note_on_c, 0, 66, 0
2, 191160, Note_on_c, 0, 66, 73
2, 191160, Note_on_c, 0, 78, 73
2, 191280, Note_on_c, 0, 78, 0
2, 191280, Note_on_c, 0, 66, 0
2, 191280, Note_on_c, 0, 66, 73
2, 191280, Note_on_c, 0, 78, 73
2, 191400, Note_on_c, 0, 78, 0
2, 191400, Note_on_c, 0, 66, 0
2, 191400, Note_on_c, 0, 66, 73
2, 191400, Note_on_c, 0, 78, 73
2, 191520, Note_on_c, 0, 78, 0
2, 191520, Note_on_c, 0, 66, 0
2, 191520, Note_on_c, 0, 66, 73
2, 191520, Note_on_c, 0, 78, 73
2, 191760, Note_on_c, 0, 78, 0
2, 191760, Note_on_c, 0, 66, 0
2, 191760, Note_on_c, 0, 65, 73
2, 191760, Note_on_c, 0, 77, 73
2, 192000, Note_on_c, 0, 77, 0
2, 192000, Note_on_c, 0, 65, 0
2, 192000, Note_on_c, 0, 71, 73
2, 192000, Note_on_c, 0, 74, 73
2, 192000, Note_on_c, 0, 77, 73
2, 192000, Note_on_c, 0, 83, 73
2, 192240, Note_on_c, 0, 83, 0
2, 192240, Note_on_c, 0, 71, 0
2, 192240, Note_on_c, 0, 74, 0
2, 192240, Note_on_c, 0, 77, 0
2, 192240, Note_on_c, 0, 71, 73
2, 192240, Note_on_c, 0, 74, 73
2, 192240, Note_on_c, 0, 78, 73
2, 192240, Note_on_c, 0, 83, 73
2, 192480, Note_on_c, 0, 83, 0
2, 192480, Note_on_c, 0, 71, 0
2, 192480, Note_on_c, 0, 74, 0
2, 192480, Note_on_c, 0, 78, 0
2, 192480, Note_on_c, 0, 71, 73
2, 192480, Note_on_c, 0, 74, 73
2, 192480, Note_on_c, 0, 79, 73
2, 192480, Note_on_c, 0, 83, 73
2, 192720, Note_on_c, 0, 83, 0
2, 192720, Note_on_c, 0, 71, 0
2, 192720, Note_on_c, 0, 74, 0
2, 192720, Note_on_c, 0, 79, 0
2, 192720, Note_on_c, 0, 71, 73
2, 192720, Note_on_c, 0, 74, 73
2, 192720, Note_on_c, 0, 80, 73
2, 192720, Note_on_c, 0, 83, 73
2, 192960, Note_on_c, 0, 83, 0
2, 192960, Note_on_c, 0, 71, 0
2, 192960, Note_on_c, 0, 74, 0
2, 192960, Note_on_c, 0, 80, 0
2, 192960, Note_on_c, 0, 71, 73
2, 192960, Note_on_c, 0, 75, 73
2, 192960, Note_on_c, 0, 79, 73
2, 192960, Note_on_c, 0, 83, 73
2, 193200, Note_on_c, 0, 83, 0
2, 193200, Note_on_c, 0, 71, 0
2, 193200, Note_on_c, 0, 75, 0
2, 193200, Note_on_c, 0, 79, 0
2, 193200, Note_on_c, 0, 70, 73
2, 193200, Note_on_c, 0, 82, 73
2, 193320, Note_on_c, 0, 82, 0
2, 193320, Note_on_c, 0, 70, 0
2, 193320, Note_on_c, 0, 70, 73
2, 193320, Note_on_c, 0, 82, 73
2, 193440, Note_on_c, 0, 82, 0
2, 193440, Note_on_c, 0, 70, 0
2, 193440, Note_on_c, 0, 68, 73
2, 193440, Note_on_c, 0, 80, 73
2, 193680, Note_on_c, 0, 80, 0
2, 193680, Note_on_c, 0, 68, 0
2, 193680, Note_on_c, 0, 67, 73
2, 193680, Note_on_c, 0, 79, 73
2, 193920, Note_on_c, 0, 79, 0
2, 193920, Note_on_c, 0, 67, 0
2, 193920, Note_on_c, 0, 75, 73
2, 193920, Note_on_c, 0, 79, 73
2, 193920, Note_on_c, 0, 87, 73
2, 194160, Note_on_c, 0, 87, 0
2, 194160, Note_on_c, 0, 79, 0
2, 194160, Note_on_c, 0, 75, 0
2, 194160, Note_on_c, 0, 75, 73
2, 194160, Note_on_c, 0, 80, 73
2, 194160, Note_on_c, 0, 87, 73
2, 194400, Note_on_c, 0, 87, 0
2, 194400, Note_on_c, 0, 80, 0
2, 194400, Note_on_c, 0, 75, 0
2, 194400, Note_on_c, 0, 75, 73
2, 194400, Note_on_c, 0, 82, 73
2, 194400, Note_on_c, 0, 87, 73
2, 194640, Note_on_c, 0, 87, 0
2, 194640, Note_on_c, 0, 82, 0
2, 194640, Note_on_c, 0, 75, 0
2, 194640, Note_on_c, 0, 75, 73
2, 194640, Note_on_c, 0, 78, 73
2, 194640, Note_on_c, 0, 84, 73
2, 194640, Note_on_c, 0, 87, 73
2, 194880, Note_on_c, 0, 87, 0
2, 194880, Note_on_c, 0, 75, 0
2, 194880, Note_on_c, 0, 78, 0
2, 194880, Note_on_c, 0, 84, 0
2, 194880, Note_on_c, 0, 75, 73
2, 194880, Note_on_c, 0, 79, 73
2, 194880, Note_on_c, 0, 83, 73
2, 194880, Note_on_c, 0, 87, 73
2, 195120, Note_on_c, 0, 87, 0
2, 195120, Note_on_c, 0, 75, 0
2, 195120, Note_on_c, 0, 79, 0
2, 195120, Note_on_c, 0, 83, 0
2, 195120, Note_on_c, 0, 74, 73
2, 195120, Note_on_c, 0, 86, 73
2, 195240, Note_on_c, 0, 86, 0
2, 195240, Note_on_c, 0, 74, 0
2, 195240, Note_on_c, 0, 74, 73
2, 195240, Note_on_c, 0, 86, 73
2, 195360, Note_on_c, 0, 86, 0
2, 195360, Note_on_c, 0, 74, 0
2, 195360, Note_on_c, 0, 72, 73
2, 195360, Note_on_c, 0, 84, 73
2, 195600, Note_on_c, 0, 84, 0
2, 195600, Note_on_c, 0, 72, 0
2, 195600, Note_on_c, 0, 71, 73
2, 195600, Note_on_c, 0, 83, 73
2, 195840, Note_on_c, 0, 83, 0
2, 195840, Note_on_c, 0, 71, 0
2, 195840, Note_on_c, 0, 79, 112
2, 195840, Note_on_c, 0, 91, 112
2, 196320, Note_on_c, 0, 91, 0
2, 196320, Note_on_c, 0, 79, 0
2, 196320, Note_on_c, 0, 79, 112
2, 196320, Note_on_c, 0, 91, 112
2, 196800, Note_on_c, 0, 91, 0
2, 196800, Note_on_c, 0, 79, 0
2, 196800, Note_on_c, 0, 79, 112
2, 196800, Note_on_c, 0, 91, 112
2, 197280, Note_on_c, 0, 91, 0
2, 197280, Note_on_c, 0, 79, 0
2, 197280, Note_on_c, 0, 79, 112
2, 197280, Note_on_c, 0, 91, 112
2, 197760, Note_on_c, 0, 91, 0
2, 197760, Note_on_c, 0, 79, 0
2, 197760, Note_on_c, 0, 77, 112
2, 197760, Note_on_c, 0, 89, 112
2, 198000, Note_on_c, 0, 89, 0
2, 198000, Note_on_c, 0, 77, 0
2, 198000, Note_on_c, 0, 75, 86
2, 198000, Note_on_c, 0, 87, 86
2, 198120, Note_on_c, 0, 87, 0
2, 198120, Note_on_c, 0, 75, 0
2, 198120, Note_on_c, 0, 75, 86
2, 198120, Note_on_c, 0, 87, 86
2, 198240, Note_on_c, 0, 87, 0
2, 198240, Note_on_c, 0, 75, 0
2, 198240, Note_on_c, 0, 74, 86
2, 198240, Note_on_c, 0, 86, 86
2, 198480, Note_on_c, 0, 86, 0
2, 198480, Note_on_c, 0, 74, 0
2, 198480, Note_on_c, 0, 72, 86
2, 198480, Note_on_c, 0, 84, 86
2, 198720, Note_on_c, 0, 84, 0
2, 198720, Note_on_c, 0, 72, 0
2, 198720, Note_on_c, 0, 71, 86
2, 198720, Note_on_c, 0, 83, 86
2, 198960, Note_on_c, 0, 83, 0
2, 198960, Note_on_c, 0, 71, 0
2, 198960, Note_on_c, 0, 72, 86
2, 198960, Note_on_c, 0, 84, 86
2, 199200, Note_on_c, 0, 84, 0
2, 199200, Note_on_c, 0, 72, 0
2, 199200, Note_on_c, 0, 67, 86
2, 199200, Note_on_c, 0, 79, 86
2, 199320, Note_on_c, 0, 79, 0
2, 199320, Note_on_c, 0, 67, 0
2, 199320, Note_on_c, 0, 67, 86
2, 199320, Note_on_c, 0, 79, 86
2, 199440, Note_on_c, 0, 79, 0
2, 199440, Note_on_c, 0, 67, 0
2, 199440, Note_on_c, 0, 67, 86
2, 199440, Note_on_c, 0, 79, 86
2, 199560, Note_on_c, 0, 79, 0
2, 199560, Note_on_c, 0, 67, 0
2, 199560, Note_on_c, 0, 67, 86
2, 199560, Note_on_c, 0, 79, 86
2, 199680, Note_on_c, 0, 79, 0
2, 199680, Note_on_c, 0, 67, 0
2, 199680, Note_on_c, 0, 69, 86
2, 200160, Note_on_c, 0, 69, 0
2, 200160, Note_on_c, 0, 70, 86
2, 200640, Note_on_c, 0, 70, 0
2, 200640, Note_on_c, 0, 76, 86
2, 201120, Note_on_c, 0, 76, 0
2, 201120, Note_on_c, 0, 75, 86
2, 201120, Note_on_c, 0, 77, 86
2, 201600, Note_on_c, 0, 77, 0
2, 201600, Note_on_c, 0, 75, 0
2, 201600, Note_on_c, 0, 75, 86
2, 201600, Note_on_c, 0, 78, 86
2, 201600, Note_on_c, 0, 81, 86
2, 201600, Note_on_c, 0, 87, 86
2, 201840, Note_on_c, 0, 87, 0
2, 201840, Note_on_c, 0, 75, 0
2, 201840, Note_on_c, 0, 78, 0
2, 201840, Note_on_c, 0, 81, 0
2, 201840, Note_on_c, 0, 75, 86
2, 201840, Note_on_c, 0, 78, 86
2, 201840, Note_on_c, 0, 82, 86
2, 201840, Note_on_c, 0, 87, 86
2, 202080, Note_on_c, 0, 87, 0
2, 202080, Note_on_c, 0, 75, 0
2, 202080, Note_on_c, 0, 78, 0
2, 202080, Note_on_c, 0, 82, 0
2, 202080, Note_on_c, 0, 75, 86
2, 202080, Note_on_c, 0, 78, 86
2, 202080, Note_on_c, 0, 83, 86
2, 202080, Note_on_c, 0, 87, 86
2, 202320, Note_on_c, 0, 87, 0
2, 202320, Note_on_c, 0, 75, 0
2, 202320, Note_on_c, 0, 78, 0
2, 202320, Note_on_c, 0, 83, 0
2, 202320, Note_on_c, 0, 75, 86
2, 202320, Note_on_c, 0, 78, 86
2, 202320, Note_on_c, 0, 84, 86
2, 202320, Note_on_c, 0, 87, 86
2, 202560, Note_on_c, 0, 87, 0
2, 202560, Note_on_c, 0, 75, 0
2, 202560, Note_on_c, 0, 78, 0
2, 202560, Note_on_c, 0, 84, 0
2, 202560, Note_on_c, 0, 75, 86
2, 202560, Note_on_c, 0, 79, 86
2, 202560, Note_on_c, 0, 83, 86
2, 202560, Note_on_c, 0, 87, 86
2, 202800, Note_on_c, 0, 87, 0
2, 202800, Note_on_c, 0, 75, 0
2, 202800, Note_on_c, 0, 79, 0
2, 202800, Note_on_c, 0, 83, 0
2, 202800, Note_on_c, 0, 74, 86
2, 202800, Note_on_c, 0, 86, 86
2, 202920, Note_on_c, 0, 86, 0
2, 202920, Note_on_c, 0, 74, 0
2, 202920, Note_on_c, 0, 74, 86
2, 202920, Note_on_c, 0, 86, 86
2, 203040, Note_on_c, 0, 86, 0
2, 203040, Note_on_c, 0, 74, 0
2, 203040, Note_on_c, 0, 72, 86
2, 203040, Note_on_c, 0, 84, 86
2, 203280, Note_on_c, 0, 84, 0
2, 203280, Note_on_c, 0, 72, 0
2, 203280, Note_on_c, 0, 71, 86
2, 203280, Note_on_c, 0, 83, 86
2, 203520, Note_on_c, 0, 83, 0
2, 203520, Note_on_c, 0, 71, 0
2, 203520, Note_on_c, 0, 79, 86
2, 203520, Note_on_c, 0, 83, 86
2, 203520, Note_on_c, 0, 91, 86
2, 203760, Note_on_c, 0, 91, 0
2, 203760, Note_on_c, 0, 83, 0
2, 203760, Note_on_c, 0, 79, 0
2, 203760, Note_on_c, 0, 79, 86
2, 203760, Note_on_c, 0, 84, 86
2, 203760, Note_on_c, 0, 91, 86
2, 204000, Note_on_c, 0, 91, 0
2, 204000, Note_on_c, 0, 84, 0
2, 204000, Note_on_c, 0, 79, 0
2, 204000, Note_on_c, 0, 79, 86
2, 204000, Note_on_c, 0, 86, 86
2, 204000, Note_on_c, 0, 91, 86
2, 204240, Note_on_c, 0, 91, 0
2, 204240, Note_on_c, 0, 86, 0
2, 204240, Note_on_c, 0, 79, 0
2, 204240, Note_on_c, 0, 79, 86
2, 204240, Note_on_c, 0, 82, 86
2, 204240, Note_on_c, 0, 88, 86
2, 204240, Note_on_c, 0, 91, 86
2, 204480, Note_on_c, 0, 91, 0
2, 204480, Note_on_c, 0, 79, 0
2, 204480, Note_on_c, 0, 82, 0
2, 204480, Note_on_c, 0, 88, 0
2, 204480, Note_on_c, 0, 79, 86
2, 204480, Note_on_c, 0, 83, 86
2, 204480, Note_on_c, 0, 87, 86
2, 204480, Note_on_c, 0, 91, 86
2, 204720, Note_on_c, 0, 91, 0
2, 204720, Note_on_c, 0, 79, 0
2, 204720, Note_on_c, 0, 83, 0
2, 204720, Note_on_c, 0, 87, 0
2, 204720, Note_on_c, 0, 78, 86
2, 204720, Note_on_c, 0, 90, 86
2, 204840, Note_on_c, 0, 90, 0
2, 204840, Note_on_c, 0, 78, 0
2, 204840, Note_on_c, 0, 78, 86
2, 204840, Note_on_c, 0, 90, 86
2, 204960, Note_on_c, 0, 90, 0
2, 204960, Note_on_c, 0, 78, 0
2, 204960, Note_on_c, 0, 76, 86
2, 204960, Note_on_c, 0, 88, 86
2, 205200, Note_on_c, 0, 88, 0
2, 205200, Note_on_c, 0, 76, 0
2, 205200, Note_on_c, 0, 75, 86
2, 205200, Note_on_c, 0, 87, 86
2, 205440, Note_on_c, 0, 87, 0
2, 205440, Note_on_c, 0, 75, 0
2, 205440, Note_on_c, 0, 83, 112
2, 205440, Note_on_c, 0, 95, 112
2, 205920, Note_on_c, 0, 95, 0
2, 205920, Note_on_c, 0, 83, 0
2, 205920, Note_on_c, 0, 83, 112
2, 205920, Note_on_c, 0, 95, 112
2, 206400, Note_on_c, 0, 95, 0
2, 206400, Note_on_c, 0, 83, 0
2, 206400, Note_on_c, 0, 83, 112
2, 206400, Note_on_c, 0, 95, 112
2, 206880, Note_on_c, 0, 95, 0
2, 206880, Note_on_c, 0, 83, 0
2, 206880, Note_on_c, 0, 83, 112
2, 206880, Note_on_c, 0, 95, 112
2, 207360, Note_on_c, 0, 95, 0
2, 207360, Note_on_c, 0, 83, 0
2, 207360, Note_on_c, 0, 81, 112
2, 207360, Note_on_c, 0, 93, 112
2, 207600, Note_on_c, 0, 93, 0
2, 207600, Note_on_c, 0, 81, 0
2, 207600, Note_on_c, 0, 79, 86
2, 207600, Note_on_c, 0, 91, 86
2, 207720, Note_on_c, 0, 91, 0
2, 207720, Note_on_c, 0, 79, 0
2, 207720, Note_on_c, 0, 79, 86
2, 207720, Note_on_c, 0, 91, 86
2, 207840, Note_on_c, 0, 91, 0
2, 207840, Note_on_c, 0, 79, 0
2, 207840, Note_on_c, 0, 78, 86
2, 207840, Note_on_c, 0, 90, 86
2, 208080, Note_on_c, 0, 90, 0
2, 208080, Note_on_c, 0, 78, 0
2, 208080, Note_on_c, 0, 76, 86
2, 208080, Note_on_c, 0, 88, 86
2, 208320, Note_on_c, 0, 88, 0
2, 208320, Note_on_c, 0, 76, 0
2, 208320, Note_on_c, 0, 75, 86
2, 208320, Note_on_c, 0, 87, 86
2, 208560, Note_on_c, 0, 87, 0
2, 208560, Note_on_c, 0, 75, 0
2, 208560, Note_on_c, 0, 76, 86
2, 208560, Note_on_c, 0, 88, 86
2, 208800, Note_on_c, 0, 88, 0
2, 208800, Note_on_c, 0, 76, 0
2, 208800, Note_on_c, 0, 71, 86
2, 208800, Note_on_c, 0, 83, 86
2, 208920, Note_on_c, 0, 83, 0
2, 208920, Note_on_c, 0, 71, 0
2, 208920, Note_on_c, 0, 71, 86
2, 208920, Note_on_c, 0, 83, 86
2, 209040, Note_on_c, 0, 83, 0
2, 209040, Note_on_c, 0, 71, 0
2, 209040, Note_on_c, 0, 71, 86
2, 209040, Note_on_c, 0, 83, 86
2, 209160, Note_on_c, 0, 83, 0
2, 209160, Note_on_c, 0, 71, 0
2, 209160, Note_on_c, 0, 71, 86
2, 209160, Note_on_c, 0, 83, 86
2, 209280, Note_on_c, 0, 83, 0
2, 209280, Note_on_c, 0, 71, 0
2, 209280, Note_on_c, 0, 76, 86
2, 209280, Note_on_c, 0, 88, 86
2, 209520, Note_on_c, 0, 88, 0
2, 209520, Note_on_c, 0, 76, 0
2, 209520, Note_on_c, 0, 76, 86
2, 209520, Note_on_c, 0, 81, 86
2, 209520, Note_on_c, 0, 88, 86
2, 209760, Note_on_c, 0, 88, 0
2, 209760, Note_on_c, 0, 81, 0
2, 209760, Note_on_c, 0, 76, 0
2, 209760, Note_on_c, 0, 76, 86
2, 209760, Note_on_c, 0, 82, 86
2, 209760, Note_on_c, 0, 88, 86
2, 210000, Note_on_c, 0, 88, 0
2, 210000, Note_on_c, 0, 82, 0
2, 210000, Note_on_c, 0, 76, 0
2, 210000, Note_on_c, 0, 76, 86
2, 210000, Note_on_c, 0, 83, 86
2, 210000, Note_on_c, 0, 88, 86
2, 210240, Note_on_c, 0, 88, 0
2, 210240, Note_on_c, 0, 83, 0
2, 210240, Note_on_c, 0, 76, 0
2, 210240, Note_on_c, 0, 74, 86
2, 210240, Note_on_c, 0, 76, 86
2, 210240, Note_on_c, 0, 81, 86
2, 210240, Note_on_c, 0, 86, 86
2, 210480, Note_on_c, 0, 86, 0
2, 210480, Note_on_c, 0, 74, 0
2, 210480, Note_on_c, 0, 76, 0
2, 210480, Note_on_c, 0, 81, 0
2, 210480, Note_on_c, 0, 72, 86
2, 210480, Note_on_c, 0, 84, 86
2, 210600, Note_on_c, 0, 84, 0
2, 210600, Note_on_c, 0, 72, 0
2, 210600, Note_on_c, 0, 72, 86
2, 210600, Note_on_c, 0, 84, 86
2, 210720, Note_on_c, 0, 84, 0
2, 210720, Note_on_c, 0, 72, 0
2, 210720, Note_on_c, 0, 71, 86
2, 210720, Note_on_c, 0, 83, 86
2, 210960, Note_on_c, 0, 83, 0
2, 210960, Note_on_c, 0, 71, 0
2, 210960, Note_on_c, 0, 69, 86
2, 210960, Note_on_c, 0, 81, 86
2, 211200, Note_on_c, 0, 81, 0
2, 211200, Note_on_c, 0, 69, 0
2, 211200, Note_on_c, 0, 64, 86
2, 211320, Note_on_c, 0, 64, 0
2, 211320, Note_on_c, 0, 64, 86
2, 211440, Note_on_c, 0, 64, 0
2, 211440, Note_on_c, 0, 64, 86
2, 211560, Note_on_c, 0, 64, 0
2, 211560, Note_on_c, 0, 64, 86
2, 211680, Note_on_c, 0, 64, 0
2, 211680, Note_on_c, 0, 62, 86
2, 211800, Note_on_c, 0, 62, 0
2, 211800, Note_on_c, 0, 60, 86
2, 211920, Note_on_c, 0, 60, 0
2, 211920, Note_on_c, 0, 59, 86
2, 212040, Note_on_c, 0, 59, 0
2, 212040, Note_on_c, 0, 57, 86
2, 212160, Note_on_c, 0, 57, 0
2, 212160, Note_on_c, 0, 76, 86
2, 212280, Note_on_c, 0, 76, 0
2, 212280, Note_on_c, 0, 76, 86
2, 212400, Note_on_c, 0, 76, 0
2, 212400, Note_on_c, 0, 76, 86
2, 212520, Note_on_c, 0, 76, 0
2, 212520, Note_on_c, 0, 76, 86
2, 212640, Note_on_c, 0, 76, 0
2, 212640, Note_on_c, 0, 74, 86
2, 212760, Note_on_c, 0, 74, 0
2, 212760, Note_on_c, 0, 72, 86
2, 212880, Note_on_c, 0, 72, 0
2, 212880, Note_on_c, 0, 71, 86
2, 213000, Note_on_c, 0, 71, 0
2, 213000, Note_on_c, 0, 69, 86
2, 213120, Note_on_c, 0, 69, 0
2, 213120, Note_on_c, 0, 79, 86
2, 213120, Note_on_c, 0, 91, 86
2, 213360, Note_on_c, 0, 91, 0
2, 213360, Note_on_c, 0, 79, 0
2, 213360, Note_on_c, 0, 79, 86
2, 213360, Note_on_c, 0, 83, 86
2, 213360, Note_on_c, 0, 91, 86
2, 213600, Note_on_c, 0, 91, 0
2, 213600, Note_on_c, 0, 83, 0
2, 213600, Note_on_c, 0, 79, 0
2, 213600, Note_on_c, 0, 79, 86
2, 213600, Note_on_c, 0, 84, 86
2, 213600, Note_on_c, 0, 91, 86
2, 213840, Note_on_c, 0, 91, 0
2, 213840, Note_on_c, 0, 84, 0
2, 213840, Note_on_c, 0, 79, 0
2, 213840, Note_on_c, 0, 79, 86
2, 213840, Note_on_c, 0, 86, 86
2, 213840, Note_on_c, 0, 91, 86
2, 214080, Note_on_c, 0, 91, 0
2, 214080, Note_on_c, 0, 86, 0
2, 214080, Note_on_c, 0, 79, 0
2, 214080, Note_on_c, 0, 77, 86
2, 214080, Note_on_c, 0, 79, 86
2, 214080, Note_on_c, 0, 84, 86
2, 214080, Note_on_c, 0, 89, 86
2, 214320, Note_on_c, 0, 89, 0
2, 214320, Note_on_c, 0, 77, 0
2, 214320, Note_on_c, 0, 79, 0
2, 214320, Note_on_c, 0, 84, 0
2, 214320, Note_on_c, 0, 76, 86
2, 214320, Note_on_c, 0, 88, 86
2, 214440, Note_on_c, 0, 88, 0
2, 214440, Note_on_c, 0, 76, 0
2, 214440, Note_on_c, 0, 76, 86
2, 214440, Note_on_c, 0, 88, 86
2, 214560, Note_on_c, 0, 88, 0
2, 214560, Note_on_c, 0, 76, 0
2, 214560, Note_on_c, 0, 74, 86
2, 214560, Note_on_c, 0, 86, 86
2, 214800, Note_on_c, 0, 86, 0
2, 214800, Note_on_c, 0, 74, 0
2, 214800, Note_on_c, 0, 72, 86
2, 214800, Note_on_c, 0, 84, 86
2, 215040, Note_on_c, 0, 84, 0
2, 215040, Note_on_c, 0, 72, 0
2, 215040, Note_on_c, 0, 67, 86
2, 215160, Note_on_c, 0, 67, 0
2, 215160, Note_on_c, 0, 67, 86
2, 215280, Note_on_c, 0, 67, 0
2, 215280, Note_on_c, 0, 67, 86
2, 215400, Note_on_c, 0, 67, 0
2, 215400, Note_on_c, 0, 67, 86
2, 215520, Note_on_c, 0, 67, 0
2, 215520, Note_on_c, 0, 65, 86
2, 215640, Note_on_c, 0, 65, 0
2, 215640, Note_on_c, 0, 64, 86
2, 215760, Note_on_c, 0, 64, 0
2, 215760, Note_on_c, 0, 62, 86
2, 215880, Note_on_c, 0, 62, 0
2, 215880, Note_on_c, 0, 60, 86
2, 216000, Note_on_c, 0, 60, 0
2, 216000, Note_on_c, 0, 79, 86
2, 216120, Note_on_c, 0, 79, 0
2, 216120, Note_on_c, 0, 79, 86
2, 216240, Note_on_c, 0, 79, 0
2, 216240, Note_on_c, 0, 79, 86
2, 216360, Note_on_c, 0, 79, 0
2, 216360, Note_on_c, 0, 79, 86
2, 216480, Note_on_c, 0, 79, 0
2, 216480, Note_on_c, 0, 77, 86
2, 216600, Note_on_c, 0, 77, 0
2, 216600, Note_on_c, 0, 76, 86
2, 216720, Note_on_c, 0, 76, 0
2, 216720, Note_on_c, 0, 74, 86
2, 216840, Note_on_c, 0, 74, 0
2, 216840, Note_on_c, 0, 72, 86
2, 216960, Note_on_c, 0, 72, 0
2, 216960, Note_on_c, 0, 70, 86
2, 217080, Note_on_c, 0, 70, 0
2, 217080, Note_on_c, 0, 70, 86
2, 217200, Note_on_c, 0, 70, 0
2, 217200, Note_on_c, 0, 70, 86
2, 217320, Note_on_c, 0, 70, 0
2, 217320, Note_on_c, 0, 70, 86
2, 217440, Note_on_c, 0, 70, 0
2, 217440, Note_on_c, 0, 69, 86
2, 217560, Note_on_c, 0, 69, 0
2, 217560, Note_on_c, 0, 67, 86
2, 217680, Note_on_c, 0, 67, 0
2, 217680, Note_on_c, 0, 65, 86
2, 217800, Note_on_c, 0, 65, 0
2, 217800, Note_on_c, 0, 64, 86
2, 217920, Note_on_c, 0, 64, 0
2, 217920, Note_on_c, 0, 82, 86
2, 218040, Note_on_c, 0, 82, 0
2, 218040, Note_on_c, 0, 70, 86
2, 218160, Note_on_c, 0, 70, 0
2, 218160, Note_on_c, 0, 82, 86
2, 218280, Note_on_c, 0, 82, 0
2, 218280, Note_on_c, 0, 70, 86
2, 218400, Note_on_c, 0, 70, 0
2, 218400, Note_on_c, 0, 81, 86
2, 218520, Note_on_c, 0, 81, 0
2, 218520, Note_on_c, 0, 79, 86
2, 218640, Note_on_c, 0, 79, 0
2, 218640, Note_on_c, 0, 77, 86
2, 218760, Note_on_c, 0, 77, 0
2, 218760, Note_on_c, 0, 76, 86
2, 218880, Note_on_c, 0, 76, 0
2, 218880, Note_on_c, 0, 76, 86
2, 219000, Note_on_c, 0, 76, 0
2, 219000, Note_on_c, 0, 74, 86
2, 219120, Note_on_c, 0, 74, 0
2, 219120, Note_on_c, 0, 72, 86
2, 219240, Note_on_c, 0, 72, 0
2, 219240, Note_on_c, 0, 70, 86
2, 219360, Note_on_c, 0, 70, 0
2, 219360, Note_on_c, 0, 69, 86
2, 219480, Note_on_c, 0, 69, 0
2, 219480, Note_on_c, 0, 67, 86
2, 219600, Note_on_c, 0, 67, 0
2, 219600, Note_on_c, 0, 65, 86
2, 219720, Note_on_c, 0, 65, 0
2, 219720, Note_on_c, 0, 64, 86
2, 219840, Note_on_c, 0, 64, 0
2, 219840, Note_on_c, 0, 67, 86
2, 219840, Note_on_c, 0, 79, 86
2, 219960, Note_on_c, 0, 79, 0
2, 219960, Note_on_c, 0, 67, 0
2, 219960, Note_on_c, 0, 77, 86
2, 220080, Note_on_c, 0, 77, 0
2, 220080, Note_on_c, 0, 76, 86
2, 220200, Note_on_c, 0, 76, 0
2, 220200, Note_on_c, 0, 74, 86
2, 220320, Note_on_c, 0, 74, 0
2, 220320, Note_on_c, 0, 72, 86
2, 220440, Note_on_c, 0, 72, 0
2, 220440, Note_on_c, 0, 70, 86
2, 220560, Note_on_c, 0, 70, 0
2, 220560, Note_on_c, 0, 69, 86
2, 220680, Note_on_c, 0, 69, 0
2, 220680, Note_on_c, 0, 67, 86
2, 220800, Note_on_c, 0, 67, 0
2, 220800, Note_on_c, 0, 70, 86
2, 220800, Note_on_c, 0, 82, 86
2, 220920, Note_on_c, 0, 82, 0
2, 220920, Note_on_c, 0, 70, 0
2, 220920, Note_on_c, 0, 81, 86
2, 221040, Note_on_c, 0, 81, 0
2, 221040, Note_on_c, 0, 79, 86
2, 221160, Note_on_c, 0, 79, 0
2, 221160, Note_on_c, 0, 77, 86
2, 221280, Note_on_c, 0, 77, 0
2, 221280, Note_on_c, 0, 76, 86
2, 221400, Note_on_c, 0, 76, 0
2, 221400, Note_on_c, 0, 74, 86
2, 221520, Note_on_c, 0, 74, 0
2, 221520, Note_on_c, 0, 72, 86
2, 221640, Note_on_c, 0, 72, 0
2, 221640, Note_on_c, 0, 70, 86
2, 221760, Note_on_c, 0, 70, 0
2, 221760, Note_on_c, 0, 76, 86
2, 221760, Note_on_c, 0, 88, 86
2, 221880, Note_on_c, 0, 88, 0
2, 221880, Note_on_c, 0, 76, 0
2, 221880, Note_on_c, 0, 86, 86
2, 222000, Note_on_c, 0, 86, 0
2, 222000, Note_on_c, 0, 84, 86
2, 222120, Note_on_c, 0, 84, 0
2, 222120, Note_on_c, 0, 82, 86
2, 222240, Note_on_c, 0, 82, 0
2, 222240, Note_on_c, 0, 81, 86
2, 222360, Note_on_c, 0, 81, 0
2, 222360, Note_on_c, 0, 79, 86
2, 222480, Note_on_c, 0, 79, 0
2, 222480, Note_on_c, 0, 77, 86
2, 222600, Note_on_c, 0, 77, 0
2, 222600, Note_on_c, 0, 76, 86
2, 222720, Note_on_c, 0, 76, 0
2, 222720, Note_on_c, 0, 79, 86
2, 222720, Note_on_c, 0, 91, 86
2, 222840, Note_on_c, 0, 91, 0
2, 222840, Note_on_c, 0, 79, 0
2, 222840, Note_on_c, 0, 89, 86
2, 222960, Note_on_c, 0, 89, 0
2, 222960, Note_on_c, 0, 88, 86
2, 223080, Note_on_c, 0, 88, 0
2, 223080, Note_on_c, 0, 86, 86
2, 223200, Note_on_c, 0, 86, 0
2, 223200, Note_on_c, 0, 84, 86
2, 223320, Note_on_c, 0, 84, 0
2, 223320, Note_on_c, 0, 82, 86
2, 223440, Note_on_c, 0, 82, 0
2, 223440, Note_on_c, 0, 81, 86
2, 223560, Note_on_c, 0, 81, 0
2, 223560, Note_on_c, 0, 79, 86
2, 223680, Note_on_c, 0, 79, 0
2, 223680, Note_on_c, 0, 82, 86
2, 223680, Note_on_c, 0, 94, 86
2, 223800, Note_on_c, 0, 94, 0
2, 223800, Note_on_c, 0, 82, 0
2, 223800, Note_on_c, 0, 93, 86
2, 223920, Note_on_c, 0, 93, 0
2, 223920, Note_on_c, 0, 91, 86
2, 224040, Note_on_c, 0, 91, 0
2, 224040, Note_on_c, 0, 89, 86
2, 224160, Note_on_c, 0, 89, 0
2, 224160, Note_on_c, 0, 88, 86
2, 224280, Note_on_c, 0, 88, 0
2, 224280, Note_on_c, 0, 86, 86
2, 224400, Note_on_c, 0, 86, 0
2, 224400, Note_on_c, 0, 84, 86
2, 224520, Note_on_c, 0, 84, 0
2, 224520, Note_on_c, 0, 82, 86
2, 224640, Note_on_c, 0, 82, 0
2, 224640, Note_on_c, 0, 81, 86
2, 224760, Note_on_c, 0, 81, 0
2, 224760, Note_on_c, 0, 79, 86
2, 224880, Note_on_c, 0, 79, 0
2, 224880, Note_on_c, 0, 77, 86
2, 225000, Note_on_c, 0, 77, 0
2, 225000, Note_on_c, 0, 74, 86
2, 225120, Note_on_c, 0, 74, 0
2, 225120, Note_on_c, 0, 76, 86
2, 225240, Note_on_c, 0, 76, 0
2, 225240, Note_on_c, 0, 77, 86
2, 225360, Note_on_c, 0, 77, 0
2, 225360, Note_on_c, 0, 79, 86
2, 225480, Note_on_c, 0, 79, 0
2, 225480, Note_on_c, 0, 81, 86
2, 225600, Note_on_c, 0, 81, 0
2, 225600, Note_on_c, 0, 82, 86
2, 225720, Note_on_c, 0, 82, 0
2, 225720, Note_on_c, 0, 81, 86
2, 225840, Note_on_c, 0, 81, 0
2, 225840, Note_on_c, 0, 79, 86
2, 225960, Note_on_c, 0, 79, 0
2, 225960, Note_on_c, 0, 81, 86
2, 226080, Note_on_c, 0, 81, 0
2, 226080, Note_on_c, 0, 82, 86
2, 226200, Note_on_c, 0, 82, 0
2, 226200, Note_on_c, 0, 84, 86
2, 226320, Note_on_c, 0, 84, 0
2, 226320, Note_on_c, 0, 86, 86
2, 226440, Note_on_c, 0, 86, 0
2, 226440, Note_on_c, 0, 88, 86
2, 226560, Note_on_c, 0, 88, 0
2, 226560, Note_on_c, 0, 89, 86
2, 227520, Note_on_c, 0, 89, 0
2, 227520, Note_on_c, 0, 88, 86
2, 228240, Note_on_c, 0, 88, 0
2, 228240, Note_on_c, 0, 74, 86
2, 228240, Note_on_c, 0, 86, 86
2, 228480, Note_on_c, 0, 86, 0
2, 228480, Note_on_c, 0, 74, 0
2, 228480, Note_on_c, 0, 72, 86
2, 228480, Note_on_c, 0, 77, 86
2, 228480, Note_on_c, 0, 81, 86
2, 228480, Note_on_c, 0, 84, 86
2, 228600, Note_on_c, 0, 84, 0
2, 228600, Note_on_c, 0, 72, 0
2, 228600, Note_on_c, 0, 77, 0
2, 228600, Note_on_c, 0, 81, 0
2, 228600, Note_on_c, 0, 81, 86
2, 228720, Note_on_c, 0, 81, 0
2, 228720, Note_on_c, 0, 84, 86
2, 228840, Note_on_c, 0, 84, 0
2, 228840, Note_on_c, 0, 86, 86
2, 228960, Note_on_c, 0, 86, 0
2, 228960, Note_on_c, 0, 88, 86
2, 229080, Note_on_c, 0, 88, 0
2, 229080, Note_on_c, 0, 86, 86
2, 229200, Note_on_c, 0, 86, 0
2, 229200, Note_on_c, 0, 84, 86
2, 229320, Note_on_c, 0, 84, 0
2, 229320, Note_on_c, 0, 82, 86
2, 229440, Note_on_c, 0, 82, 0
2, 229440, Note_on_c, 0, 81, 86
2, 229560, Note_on_c, 0, 81, 0
2, 229560, Note_on_c, 0, 77, 86
2, 229680, Note_on_c, 0, 77, 0
2, 229680, Note_on_c, 0, 81, 86
2, 229800, Note_on_c, 0, 81, 0
2, 229800, Note_on_c, 0, 82, 86
2, 229920, Note_on_c, 0, 82, 0
2, 229920, Note_on_c, 0, 84, 86
2, 230040, Note_on_c, 0, 84, 0
2, 230040, Note_on_c, 0, 82, 86
2, 230160, Note_on_c, 0, 82, 0
2, 230160, Note_on_c, 0, 81, 86
2, 230280, Note_on_c, 0, 81, 0
2, 230280, Note_on_c, 0, 79, 86
2, 230400, Note_on_c, 0, 79, 0
2, 230400, Note_on_c, 0, 81, 86
2, 230520, Note_on_c, 0, 81, 0
2, 230520, Note_on_c, 0, 79, 86
2, 230640, Note_on_c, 0, 79, 0
2, 230640, Note_on_c, 0, 77, 86
2, 230760, Note_on_c, 0, 77, 0
2, 230760, Note_on_c, 0, 76, 86
2, 230880, Note_on_c, 0, 76, 0
2, 230880, Note_on_c, 0, 77, 86
2, 231000, Note_on_c, 0, 77, 0
2, 231000, Note_on_c, 0, 76, 86
2, 231120, Note_on_c, 0, 76, 0
2, 231120, Note_on_c, 0, 74, 86
2, 231240, Note_on_c, 0, 74, 0
2, 231240, Note_on_c, 0, 72, 86
2, 231360, Note_on_c, 0, 72, 0
2, 231360, Note_on_c, 0, 74, 86
2, 231480, Note_on_c, 0, 74, 0
2, 231480, Note_on_c, 0, 72, 86
2, 231600, Note_on_c, 0, 72, 0
2, 231600, Note_on_c, 0, 70, 86
2, 231720, Note_on_c, 0, 70, 0
2, 231720, Note_on_c, 0, 69, 86
2, 231840, Note_on_c, 0, 69, 0
2, 231840, Note_on_c, 0, 67, 86
2, 232080, Note_on_c, 0, 67, 0
2, 232080, Note_on_c, 0, 60, 86
2, 232080, Note_on_c, 0, 72, 86
2, 232320, Note_on_c, 0, 72, 0
2, 232320, Note_on_c, 0, 60, 0
2, 232320, Note_on_c, 0, 57, 86
2, 232320, Note_on_c, 0, 60, 86
2, 232320, Note_on_c, 0, 65, 86
2, 232560, Note_on_c, 0, 65, 0
2, 232560, Note_on_c, 0, 60, 0
2, 232560, Note_on_c, 0, 57, 0
2, 232920, Control_c, 0, 64, 127
2, 232920, Note_on_c, 0, 70, 86
2, 233040, Note_on_c, 0, 70, 0
2, 233040, Note_on_c, 0, 72, 86
2, 233160, Note_on_c, 0, 72, 0
2, 233160, Note_on_c, 0, 74, 86
2, 233280, Note_on_c, 0, 74, 0
2, 233280, Note_on_c, 0, 76, 86
2, 233400, Note_on_c, 0, 76, 0
2, 233400, Note_on_c, 0, 77, 86
2, 233520, Note_on_c, 0, 77, 0
2, 233520, Note_on_c, 0, 79, 86
2, 233640, Note_on_c, 0, 79, 0
2, 233640, Note_on_c, 0, 81, 86
2, 233760, Note_on_c, 0, 81, 0
2, 233760, Note_on_c, 0, 82, 86
2, 233880, Note_on_c, 0, 82, 0
2, 233880, Note_on_c, 0, 84, 86
2, 234000, Note_on_c, 0, 84, 0
2, 234000, Note_on_c, 0, 86, 86
2, 234120, Note_on_c, 0, 86, 0
2, 234120, Control_c, 0, 64, 0
2, 234120, Note_on_c, 0, 88, 86
2, 234240, Note_on_c, 0, 88, 0
2, 234240, Note_on_c, 0, 77, 86
2, 234240, Note_on_c, 0, 89, 86
2, 235200, Note_on_c, 0, 89, 0
2, 235200, Note_on_c, 0, 77, 0
2, 235200, Note_on_c, 0, 88, 86
2, 235920, Note_on_c, 0, 88, 0
2, 235920, Note_on_c, 0, 74, 86
2, 235920, Note_on_c, 0, 86, 86
2, 236160, Note_on_c, 0, 86, 0
2, 236160, Note_on_c, 0, 74, 0
2, 236160, Note_on_c, 0, 72, 86
2, 236160, Note_on_c, 0, 77, 86
2, 236160, Note_on_c, 0, 81, 86
2, 236160, Note_on_c, 0, 84, 86
2, 236280, Note_on_c, 0, 84, 0
2, 236280, Note_on_c, 0, 72, 0
2, 236280, Note_on_c, 0, 77, 0
2, 236280, Note_on_c, 0, 81, 0
2, 236280, Note_on_c, 0, 81, 86
2, 236400, Note_on_c, 0, 81, 0
2, 236400, Note_on_c, 0, 84, 86
2, 236520, Note_on_c, 0, 84, 0
2, 236520, Note_on_c, 0, 86, 86
2, 236640, Note_on_c, 0, 86, 0
2, 236640, Note_on_c, 0, 88, 86
2, 236760, Note_on_c, 0, 88, 0
2, 236760, Note_on_c, 0, 86, 86
2, 236880, Note_on_c, 0, 86, 0
2, 236880, Note_on_c, 0, 84, 86
2, 237000, Note_on_c, 0, 84, 0
2, 237000, Note_on_c, 0, 83, 86
2, 237120, Note_on_c, 0, 83, 0
2, 237120, Note_on_c, 0, 81, 86
2, 237240, Note_on_c, 0, 81, 0
2, 237240, Note_on_c, 0, 80, 86
2, 237360, Note_on_c, 0, 80, 0
2, 237360, Note_on_c, 0, 81, 86
2, 237480, Note_on_c, 0, 81, 0
2, 237480, Note_on_c, 0, 83, 86
2, 237600, Note_on_c, 0, 83, 0
2, 237600, Note_on_c, 0, 84, 86
2, 237720, Note_on_c, 0, 84, 0
2, 237720, Note_on_c, 0, 83, 86
2, 237840, Note_on_c, 0, 83, 0
2, 237840, Note_on_c, 0, 81, 86
2, 237960, Note_on_c, 0, 81, 0
2, 237960, Note_on_c, 0, 80, 86
2, 238080, Note_on_c, 0, 80, 0
2, 238080, Note_on_c, 0, 81, 86
2, 238200, Note_on_c, 0, 81, 0
2, 238200, Note_on_c, 0, 79, 86
2, 238320, Note_on_c, 0, 79, 0
2, 238320, Note_on_c, 0, 77, 86
2, 238440, Note_on_c, 0, 77, 0
2, 238440, Note_on_c, 0, 76, 86
2, 238560, Note_on_c, 0, 76, 0
2, 238560, Note_on_c, 0, 77, 86
2, 238680, Note_on_c, 0, 77, 0
2, 238680, Note_on_c, 0, 76, 86
2, 238800, Note_on_c, 0, 76, 0
2, 238800, Note_on_c, 0, 74, 86
2, 238920, Note_on_c, 0, 74, 0
2, 238920, Note_on_c, 0, 73, 86
2, 239040, Note_on_c, 0, 73, 0
2, 239040, Note_on_c, 0, 74, 86
2, 239160, Note_on_c, 0, 74, 0
2, 239160, Note_on_c, 0, 72, 86
2, 239280, Note_on_c, 0, 72, 0
2, 239280, Note_on_c, 0, 71, 86
2, 239400, Note_on_c, 0, 71, 0
2, 239400, Note_on_c, 0, 69, 86
2, 239520, Note_on_c, 0, 69, 0
2, 239520, Note_on_c, 0, 67, 86
2, 239760, Note_on_c, 0, 67, 0
2, 239760, Note_on_c, 0, 67, 86
2, 239760, Note_on_c, 0, 79, 86
2, 240000, Note_on_c, 0, 79, 0
2, 240000, Note_on_c, 0, 67, 0
2, 240000, Note_on_c, 0, 64, 86
2, 240000, Note_on_c, 0, 67, 86
2, 240000, Note_on_c, 0, 72, 86
2, 240240, Note_on_c, 0, 72, 0
2, 240240, Note_on_c, 0, 67, 0
2, 240240, Note_on_c, 0, 64, 0
2, 240600, Control_c, 0, 64, 127
2, 240600, Note_on_c, 0, 72, 86
2, 240720, Note_on_c, 0, 72, 0
2, 240720, Note_on_c, 0, 74, 86
2, 240840, Note_on_c, 0, 74, 0
2, 240840, Note_on_c, 0, 76, 86
2, 240960, Note_on_c, 0, 76, 0
2, 240960, Note_on_c, 0, 77, 86
2, 241080, Note_on_c, 0, 77, 0
2, 241080, Note_on_c, 0, 79, 86
2, 241200, Note_on_c, 0, 79, 0
2, 241200, Note_on_c, 0, 81, 86
2, 241320, Note_on_c, 0, 81, 0
2, 241320, Note_on_c, 0, 82, 86
2, 241440, Note_on_c, 0, 82, 0
2, 241440, Note_on_c, 0, 84, 86
2, 241560, Note_on_c, 0, 84, 0
2, 241560, Note_on_c, 0, 86, 86
2, 241680, Note_on_c, 0, 86, 0
2, 241680, Note_on_c, 0, 88, 86
2, 241800, Note_on_c, 0, 88, 0
2, 241800, Control_c, 0, 64, 0
2, 241800, Note_on_c, 0, 89, 86
2, 241920, Note_on_c, 0, 89, 0
2, 241920, Note_on_c, 0, 79, 86
2, 241920, Note_on_c, 0, 84, 86
2, 241920, Note_on_c, 0, 91, 86
2, 242400, Note_on_c, 0, 91, 0
2, 242400, Note_on_c, 0, 84, 0
2, 242400, Note_on_c, 0, 79, 0
2, 242400, Note_on_c, 0, 74, 86
2, 242400, Note_on_c, 0, 82, 86
2, 242400, Note_on_c, 0, 86, 86
2, 242760, Note_on_c, 0, 86, 0
2, 242760, Note_on_c, 0, 82, 0
2, 242760, Note_on_c, 0, 74, 0
2, 242760, Note_on_c, 0, 77, 86
2, 242760, Note_on_c, 0, 82, 86
2, 242760, Note_on_c, 0, 89, 86
2, 242880, Note_on_c, 0, 89, 0
2, 242880, Note_on_c, 0, 82, 0
2, 242880, Note_on_c, 0, 77, 0
2, 242880, Note_on_c, 0, 77, 86
2, 242880, Note_on_c, 0, 82, 86
2, 242880, Note_on_c, 0, 89, 86
2, 243120, Note_on_c, 0, 89, 0
2, 243120, Note_on_c, 0, 82, 0
2, 243120, Note_on_c, 0, 77, 0
2, 243120, Note_on_c, 0, 76, 86
2, 243120, Note_on_c, 0, 82, 86
2, 243120, Note_on_c, 0, 88, 86
2, 243360, Note_on_c, 0, 88, 0
2, 243360, Note_on_c, 0, 82, 0
2, 243360, Note_on_c, 0, 76, 0
2, 243360, Note_on_c, 0, 74, 86
2, 243360, Note_on_c, 0, 77, 86
2, 243360, Note_on_c, 0, 83, 86
2, 243360, Note_on_c, 0, 86, 86
2, 243840, Note_on_c, 0, 86, 0
2, 243840, Note_on_c, 0, 74, 0
2, 243840, Note_on_c, 0, 77, 0
2, 243840, Note_on_c, 0, 83, 0
2, 243840, Note_on_c, 0, 72, 86
2, 243840, Note_on_c, 0, 77, 86
2, 243840, Note_on_c, 0, 84, 86
2, 244320, Note_on_c, 0, 84, 0
2, 244320, Note_on_c, 0, 77, 0
2, 244320, Note_on_c, 0, 72, 0
2, 244320, Note_on_c, 0, 74, 86
2, 244320, Note_on_c, 0, 77, 86
2, 244320, Note_on_c, 0, 86, 86
2, 244680, Note_on_c, 0, 86, 0
2, 244680, Note_on_c, 0, 77, 0
2, 244680, Note_on_c, 0, 74, 0
2, 244680, Note_on_c, 0, 69, 86
2, 244680, Note_on_c, 0, 77, 86
2, 244680, Note_on_c, 0, 81, 86
2, 244800, Note_on_c, 0, 81, 0
2, 244800, Note_on_c, 0, 77, 0
2, 244800, Note_on_c, 0, 69, 0
2, 244800, Note_on_c, 0, 69, 86
2, 244800, Note_on_c, 0, 77, 86
2, 244800, Note_on_c, 0, 81, 86
2, 245040, Note_on_c, 0, 81, 0
2, 245040, Note_on_c, 0, 77, 0
2, 245040, Note_on_c, 0, 69, 0
2, 245040, Note_on_c, 0, 70, 86
2, 245040, Note_on_c, 0, 77, 86
2, 245040, Note_on_c, 0, 79, 86
2, 245040, Note_on_c, 0, 82, 86
2, 245280, Note_on_c, 0, 82, 0
2, 245280, Note_on_c, 0, 70, 0
2, 245280, Note_on_c, 0, 77, 0
2, 245280, Note_on_c, 0, 79, 0
2, 245280, Note_on_c, 0, 72, 86
2, 245280, Note_on_c, 0, 77, 86
2, 245280, Note_on_c, 0, 81, 86
2, 245280, Note_on_c, 0, 84, 86
2, 245760, Note_on_c, 0, 84, 0
2, 245760, Note_on_c, 0, 72, 0
2, 245760, Note_on_c, 0, 77, 0
2, 245760, Note_on_c, 0, 81, 0
2, 245760, Note_on_c, 0, 74, 86
2, 245760, Note_on_c, 0, 77, 86
2, 245760, Note_on_c, 0, 80, 86
2, 245760, Note_on_c, 0, 86, 86
2, 246240, Note_on_c, 0, 86, 0
2, 246240, Note_on_c, 0, 74, 0
2, 246240, Note_on_c, 0, 77, 0
2, 246240, Note_on_c, 0, 80, 0
2, 246240, Note_on_c, 0, 76, 86
2, 246240, Note_on_c, 0, 79, 86
2, 246240, Note_on_c, 0, 88, 86
2, 246600, Note_on_c, 0, 88, 0
2, 246600, Note_on_c, 0, 79, 0
2, 246600, Note_on_c, 0, 76, 0
2, 246600, Note_on_c, 0, 72, 86
2, 246600, Note_on_c, 0, 77, 86
2, 246600, Note_on_c, 0, 84, 86
2, 246720, Note_on_c, 0, 84, 0
2, 246720, Note_on_c, 0, 77, 0
2, 246720, Note_on_c, 0, 72, 0
2, 246720, Note_on_c, 0, 72, 86
2, 246720, Note_on_c, 0, 77, 86
2, 246720, Note_on_c, 0, 84, 86
2, 246960, Note_on_c, 0, 84, 0
2, 246960, Note_on_c, 0, 77, 0
2, 246960, Note_on_c, 0, 72, 0
2, 246960, Note_on_c, 0, 74, 86
2, 246960, Note_on_c, 0, 77, 86
2, 246960, Note_on_c, 0, 83, 86
2, 246960, Note_on_c, 0, 86, 86
2, 247200, Note_on_c, 0, 86, 0
2, 247200, Note_on_c, 0, 74, 0
2, 247200, Note_on_c, 0, 77, 0
2, 247200, Note_on_c, 0, 83, 0
2, 247200, Note_on_c, 0, 76, 86
2, 247200, Note_on_c, 0, 82, 86
2, 247200, Note_on_c, 0, 88, 86
2, 247440, Note_on_c, 0, 88, 0
2, 247440, Note_on_c, 0, 82, 0
2, 247440, Note_on_c, 0, 76, 0
2, 247440, Note_on_c, 0, 70, 86
2, 247440, Note_on_c, 0, 76, 86
2, 247440, Note_on_c, 0, 82, 86
2, 247680, Note_on_c, 0, 82, 0
2, 247680, Note_on_c, 0, 76, 0
2, 247680, Note_on_c, 0, 70, 0
2, 247680, Note_on_c, 0, 69, 86
2, 247680, Note_on_c, 0, 77, 86
2, 247680, Note_on_c, 0, 81, 86
2, 247920, Note_on_c, 0, 81, 0
2, 247920, Note_on_c, 0, 77, 0
2, 247920, Note_on_c, 0, 69, 0
2, 247920, Note_on_c, 0, 70, 86
2, 247920, Note_on_c, 0, 77, 86
2, 247920, Note_on_c, 0, 82, 86
2, 248160, Note_on_c, 0, 82, 0
2, 248160, Note_on_c, 0, 77, 0
2, 248160, Note_on_c, 0, 70, 0
2, 248160, Note_on_c, 0, 72, 86
2, 248160, Note_on_c, 0, 77, 86
2, 248160, Note_on_c, 0, 84, 86
2, 248400, Note_on_c, 0, 84, 0
2, 248400, Note_on_c, 0, 77, 0
2, 248400, Note_on_c, 0, 72, 0
2, 248400, Note_on_c, 0, 74, 86
2, 248400, Note_on_c, 0, 77, 86
2, 248400, Note_on_c, 0, 86, 86
2, 248640, Note_on_c, 0, 86, 0
2, 248640, Note_on_c, 0, 77, 0
2, 248640, Note_on_c, 0, 74, 0
2, 248640, Note_on_c, 0, 74, 86
2, 248640, Note_on_c, 0, 77, 86
2, 248640, Note_on_c, 0, 79, 86
2, 248880, Note_on_c, 0, 79, 0
2, 248880, Note_on_c, 0, 77, 0
2, 248880, Note_on_c, 0, 74, 0
2, 248880, Note_on_c, 0, 72, 86
2, 248880, Note_on_c, 0, 76, 86
2, 248880, Note_on_c, 0, 84, 86
2, 249120, Note_on_c, 0, 84, 0
2, 249120, Note_on_c, 0, 76, 0
2, 249120, Note_on_c, 0, 72, 0
2, 249120, Control_c, 0, 64, 127
2, 249120, Note_on_c, 0, 79, 86
2, 249188, Note_on_c, 0, 79, 0
2, 249188, Note_on_c, 0, 81, 86
2, 249257, Note_on_c, 0, 81, 0
2, 249257, Note_on_c, 0, 82, 86
2, 249325, Note_on_c, 0, 82, 0
2, 249325, Note_on_c, 0, 84, 86
2, 249394, Note_on_c, 0, 84, 0
2, 249394, Note_on_c, 0, 86, 86
2, 249462, Note_on_c, 0, 86, 0
2, 249462, Note_on_c, 0, 88, 86
2, 249531, Note_on_c, 0, 88, 0
2, 249531, Control_c, 0, 64, 0
2, 249531, Note_on_c, 0, 89, 86
2, 249600, Note_on_c, 0, 89, 0
2, 249600, Note_on_c, 0, 79, 86
2, 249600, Note_on_c, 0, 84, 86
2, 249600, Note_on_c, 0, 91, 86
2, 250080, Note_on_c, 0, 91, 0
2, 250080, Note_on_c, 0, 84, 0
2, 250080, Note_on_c, 0, 79, 0
2, 250080, Note_on_c, 0, 74, 86
2, 250080, Note_on_c, 0, 82, 86
2, 250080, Note_on_c, 0, 86, 86
2, 250440, Note_on_c, 0, 86, 0
2, 250440, Note_on_c, 0, 82, 0
2, 250440, Note_on_c, 0, 74, 0
2, 250440, Note_on_c, 0, 77, 86
2, 250440, Note_on_c, 0, 82, 86
2, 250440, Note_on_c, 0, 89, 86
2, 250560, Note_on_c, 0, 89, 0
2, 250560, Note_on_c, 0, 82, 0
2, 250560, Note_on_c, 0, 77, 0
2, 250560, Note_on_c, 0, 77, 86
2, 250560, Note_on_c, 0, 82, 86
2, 250560, Note_on_c, 0, 89, 86
2, 250800, Note_on_c, 0, 89, 0
2, 250800, Note_on_c, 0, 82, 0
2, 250800, Note_on_c, 0, 77, 0
2, 250800, Note_on_c, 0, 76, 86
2, 250800, Note_on_c, 0, 82, 86
2, 250800, Note_on_c, 0, 88, 86
2, 251040, Note_on_c, 0, 88, 0
2, 251040, Note_on_c, 0, 82, 0
2, 251040, Note_on_c, 0, 76, 0
2, 251040, Note_on_c, 0, 74, 86
2, 251040, Note_on_c, 0, 77, 86
2, 251040, Note_on_c, 0, 83, 86
2, 251040, Note_on_c, 0, 86, 86
2, 251520, Note_on_c, 0, 86, 0
2, 251520, Note_on_c, 0, 74, 0
2, 251520, Note_on_c, 0, 77, 0
2, 251520, Note_on_c, 0, 83, 0
2, 251520, Note_on_c, 0, 72, 86
2, 251520, Note_on_c, 0, 77, 86
2, 251520, Note_on_c, 0, 84, 86
2, 252000, Note_on_c, 0, 84, 0
2, 252000, Note_on_c, 0, 77, 0
2, 252000, Note_on_c, 0, 72, 0
2, 252000, Note_on_c, 0, 74, 86
2, 252000, Note_on_c, 0, 77, 86
2, 252000, Note_on_c, 0, 86, 86
2, 252360, Note_on_c, 0, 86, 0
2, 252360, Note_on_c, 0, 77, 0
2, 252360, Note_on_c, 0, 74, 0
2, 252360, Note_on_c, 0, 69, 86
2, 252360, Note_on_c, 0, 77, 86
2, 252360, Note_on_c, 0, 81, 86
2, 252480, Note_on_c, 0, 81, 0
2, 252480, Note_on_c, 0, 77, 0
2, 252480, Note_on_c, 0, 69, 0
2, 252480, Note_on_c, 0, 69, 86
2, 252480, Note_on_c, 0, 77, 86
2, 252480, Note_on_c, 0, 81, 86
2, 252720, Note_on_c, 0, 81, 0
2, 252720, Note_on_c, 0, 77, 0
2, 252720, Note_on_c, 0, 69, 0
2, 252720, Note_on_c, 0, 70, 86
2, 252720, Note_on_c, 0, 77, 86
2, 252720, Note_on_c, 0, 79, 86
2, 252720, Note_on_c, 0, 82, 86
2, 252960, Note_on_c, 0, 82, 0
2, 252960, Note_on_c, 0, 70, 0
2, 252960, Note_on_c, 0, 77, 0
2, 252960, Note_on_c, 0, 79, 0
2, 252960, Note_on_c, 0, 72, 86
2, 252960, Note_on_c, 0, 77, 86
2, 252960, Note_on_c, 0, 81, 86
2, 252960, Note_on_c, 0, 84, 86
2, 253440, Note_on_c, 0, 84, 0
2, 253440, Note_on_c, 0, 72, 0
2, 253440, Note_on_c, 0, 77, 0
2, 253440, Note_on_c, 0, 81, 0
2, 253440, Note_on_c, 0, 74, 86
2, 253440, Note_on_c, 0, 77, 86
2, 253440, Note_on_c, 0, 80, 86
2, 253440, Note_on_c, 0, 86, 86
2, 253920, Note_on_c, 0, 86, 0
2, 253920, Note_on_c, 0, 74, 0
2, 253920, Note_on_c, 0, 77, 0
2, 253920, Note_on_c, 0, 80, 0
2, 253920, Note_on_c, 0, 76, 86
2, 253920, Note_on_c, 0, 79, 86
2, 253920, Note_on_c, 0, 82, 86
2, 253920, Note_on_c, 0, 88, 86
2, 254280, Note_on_c, 0, 88, 0
2, 254280, Note_on_c, 0, 76, 0
2, 254280, Note_on_c, 0, 79, 0
2, 254280, Note_on_c, 0, 82, 0
2, 254280, Note_on_c, 0, 70, 86
2, 254280, Note_on_c, 0, 79, 86
2, 254280, Note_on_c, 0, 82, 86
2, 254400, Note_on_c, 0, 82, 0
2, 254400, Note_on_c, 0, 79, 0
2, 254400, Note_on_c, 0, 70, 0
2, 254400, Note_on_c, 0, 70, 86
2, 254400, Note_on_c, 0, 79, 86
2, 254400, Note_on_c, 0, 82, 86
2, 254640, Note_on_c, 0, 82, 0
2, 254640, Note_on_c, 0, 79, 0
2, 254640, Note_on_c, 0, 70, 0
2, 254640, Note_on_c, 0, 72, 86
2, 254640, Note_on_c, 0, 79, 86
2, 254640, Note_on_c, 0, 81, 86
2, 254640, Note_on_c, 0, 84, 86
2, 254880, Note_on_c, 0, 84, 0
2, 254880, Note_on_c, 0, 72, 0
2, 254880, Note_on_c, 0, 79, 0
2, 254880, Note_on_c, 0, 81, 0
2, 254880, Note_on_c, 0, 74, 86
2, 254880, Note_on_c, 0, 79, 86
2, 254880, Note_on_c, 0, 82, 86
2, 254880, Note_on_c, 0, 86, 86
2, 255360, Note_on_c, 0, 86, 0
2, 255360, Note_on_c, 0, 74, 0
2, 255360, Note_on_c, 0, 79, 0
2, 255360, Note_on_c, 0, 82, 0
2, 255360, Note_on_c, 0, 76, 86
2, 255360, Note_on_c, 0, 79, 86
2, 255360, Note_on_c, 0, 82, 86
2, 255360, Note_on_c, 0, 88, 86
2, 255840, Note_on_c, 0, 88, 0
2, 255840, Note_on_c, 0, 76, 0
2, 255840, Note_on_c, 0, 79, 0
2, 255840, Note_on_c, 0, 82, 0
2, 255840, Note_on_c, 0, 77, 86
2, 255840, Note_on_c, 0, 83, 86
2, 255840, Note_on_c, 0, 89, 86
2, 256200, Note_on_c, 0, 89, 0
2, 256200, Note_on_c, 0, 83, 0
2, 256200, Note_on_c, 0, 77, 0
2, 256200, Note_on_c, 0, 76, 86
2, 256200, Note_on_c, 0, 82, 86
2, 256200, Note_on_c, 0, 88, 86
2, 256320, Note_on_c, 0, 88, 0
2, 256320, Note_on_c, 0, 82, 0
2, 256320, Note_on_c, 0, 76, 0
2, 256320, Note_on_c, 0, 76, 86
2, 256320, Note_on_c, 0, 82, 86
2, 256320, Note_on_c, 0, 88, 86
2, 256800, Note_on_c, 0, 88, 0
2, 256800, Note_on_c, 0, 82, 0
2, 256800, Note_on_c, 0, 76, 0
2, 256800, Note_on_c, 0, 77, 86
2, 256800, Note_on_c, 0, 83, 86
2, 256800, Note_on_c, 0, 89, 86
2, 257160, Note_on_c, 0, 89, 0
2, 257160, Note_on_c, 0, 83, 0
2, 257160, Note_on_c, 0, 77, 0
2, 257160, Note_on_c, 0, 76, 86
2, 257160, Note_on_c, 0, 82, 86
2, 257160, Note_on_c, 0, 88, 86
2, 257280, Note_on_c, 0, 88, 0
2, 257280, Note_on_c, 0, 82, 0
2, 257280, Note_on_c, 0, 76, 0
2, 257280, Note_on_c, 0, 76, 86
2, 257280, Note_on_c, 0, 82, 86
2, 257280, Note_on_c, 0, 88, 86
2, 257520, Note_on_c, 0, 88, 0
2, 257520, Note_on_c, 0, 82, 0
2, 257520, Note_on_c, 0, 76, 0
2, 257520, Note_on_c, 0, 77, 86
2, 257520, Note_on_c, 0, 83, 86
2, 257520, Note_on_c, 0, 89, 86
2, 257760, Note_on_c, 0, 89, 0
2, 257760, Note_on_c, 0, 83, 0
2, 257760, Note_on_c, 0, 77, 0
2, 257760, Note_on_c, 0, 76, 86
2, 257760, Note_on_c, 0, 82, 86
2, 257760, Note_on_c, 0, 88, 86
2, 258000, Note_on_c, 0, 88, 0
2, 258000, Note_on_c, 0, 82, 0
2, 258000, Note_on_c, 0, 76, 0
2, 258000, Note_on_c, 0, 77, 86
2, 258000, Note_on_c, 0, 83, 86
2, 258000, Note_on_c, 0, 89, 86
2, 258240, Note_on_c, 0, 89, 0
2, 258240, Note_on_c, 0, 83, 0
2, 258240, Note_on_c, 0, 77, 0
2, 258240, Note_on_c, 0, 76, 86
2, 258240, Note_on_c, 0, 82, 86
2, 258240, Note_on_c, 0, 88, 86
2, 258480, Note_on_c, 0, 88, 0
2, 258480, Note_on_c, 0, 82, 0
2, 258480, Note_on_c, 0, 76, 0
2, 258480, Note_on_c, 0, 77, 86
2, 258480, Note_on_c, 0, 83, 86
2, 258480, Note_on_c, 0, 89, 86
2, 258720, Note_on_c, 0, 89, 0
2, 258720, Note_on_c, 0, 83, 0
2, 258720, Note_on_c, 0, 77, 0
2, 258720, Note_on_c, 0, 76, 86
2, 258720, Note_on_c, 0, 82, 86
2, 258720, Note_on_c, 0, 88, 86
2, 258960, Note_on_c, 0, 88, 0
2, 258960, Note_on_c, 0, 82, 0
2, 258960, Note_on_c, 0, 76, 0
2, 258960, Note_on_c, 0, 77, 86
2, 258960, Note_on_c, 0, 83, 86
2, 258960, Note_on_c, 0, 89, 86
2, 259200, Note_on_c, 0, 89, 0
2, 259200, Note_on_c, 0, 83, 0
2, 259200, Note_on_c, 0, 77, 0
2, 259200, Note_on_c, 0, 76, 86
2, 259200, Note_on_c, 0, 85, 86
2, 259200, Note_on_c, 0, 88, 86
2, 259440, Note_on_c, 0, 88, 0
2, 259440, Note_on_c, 0, 85, 0
2, 259440, Note_on_c, 0, 76, 0
2, 259560, Note_on_c, 0, 88, 86
2, 259599, Note_on_c, 0, 88, 0
2, 259599, Note_on_c, 0, 90, 86
2, 259640, Note_on_c, 0, 90, 0
2, 259640, Note_on_c, 0, 92, 86
2, 259680, Note_on_c, 0, 92, 0
2, 259680, Control_c, 0, 64, 127
2, 259680, Note_on_c, 0, 81, 86
2, 259680, Note_on_c, 0, 85, 86
2, 259680, Note_on_c, 0, 88, 86
2, 259800, Note_on_c, 0, 88, 0
2, 259800, Note_on_c, 0, 85, 0
2, 259800, Note_on_c, 0, 81, 0
2, 259800, Note_on_c, 0, 93, 86
2, 259920, Note_on_c, 0, 93, 0
2, 259920, Note_on_c, 0, 81, 86
2, 259920, Note_on_c, 0, 85, 86
2, 259920, Note_on_c, 0, 88, 86
2, 260040, Note_on_c, 0, 88, 0
2, 260040, Note_on_c, 0, 85, 0
2, 260040, Note_on_c, 0, 81, 0
2, 260040, Note_on_c, 0, 93, 86
2, 260160, Note_on_c, 0, 93, 0
2, 260160, Note_on_c, 0, 81, 86
2, 260160, Note_on_c, 0, 85, 86
2, 260160, Note_on_c, 0, 88, 86
2, 260280, Note_on_c, 0, 88, 0
2, 260280, Note_on_c, 0, 85, 0
2, 260280, Note_on_c, 0, 81, 0
2, 260280, Note_on_c, 0, 93, 86
2, 260400, Note_on_c, 0, 93, 0
2, 260400, Note_on_c, 0, 81, 86
2, 260400, Note_on_c, 0, 85, 86
2, 260400, Note_on_c, 0, 88, 86
2, 260520, Note_on_c, 0, 88, 0
2, 260520, Note_on_c, 0, 85, 0
2, 260520, Note_on_c, 0, 81, 0
2, 260520, Note_on_c, 0, 93, 86
2, 260640, Note_on_c, 0, 93, 0
2, 260640, Note_on_c, 0, 81, 86
2, 260640, Note_on_c, 0, 85, 86
2, 260640, Note_on_c, 0, 88, 86
2, 260760, Note_on_c, 0, 88, 0
2, 260760, Note_on_c, 0, 85, 0
2, 260760, Note_on_c, 0, 81, 0
2, 260760, Note_on_c, 0, 93, 86
2, 260880, Note_on_c, 0, 93, 0
2, 260880, Note_on_c, 0, 81, 86
2, 260880, Note_on_c, 0, 85, 86
2, 260880, Note_on_c, 0, 88, 86
2, 261000, Note_on_c, 0, 88, 0
2, 261000, Note_on_c, 0, 85, 0
2, 261000, Note_on_c, 0, 81, 0
2, 261000, Control_c, 0, 64, 0
2, 261000, Note_on_c, 0, 93, 86
2, 261120, Note_on_c, 0, 93, 0
2, 261120, Note_on_c, 0, 82, 86
2, 261120, Note_on_c, 0, 87, 86
2, 261120, Note_on_c, 0, 91, 86
2, 261120, Note_on_c, 0, 94, 86
2, 261360, Note_on_c, 0, 94, 0
2, 261360, Note_on_c, 0, 82, 0
2, 261360, Note_on_c, 0, 87, 0
2, 261360, Note_on_c, 0, 91, 0
2, 261480, Note_on_c, 0, 90, 86
2, 261519, Note_on_c, 0, 90, 0
2, 261519, Note_on_c, 0, 91, 86
2, 261560, Note_on_c, 0, 91, 0
2, 261560, Note_on_c, 0, 93, 86
2, 261600, Note_on_c, 0, 93, 0
2, 261600, Control_c, 0, 64, 127
2, 261600, Note_on_c, 0, 82, 86
2, 261600, Note_on_c, 0, 87, 86
2, 261600, Note_on_c, 0, 91, 86
2, 261720, Note_on_c, 0, 91, 0
2, 261720, Note_on_c, 0, 87, 0
2, 261720, Note_on_c, 0, 82, 0
2, 261720, Note_on_c, 0, 94, 86
2, 261840, Note_on_c, 0, 94, 0
2, 261840, Note_on_c, 0, 82, 86
2, 261840, Note_on_c, 0, 87, 86
2, 261840, Note_on_c, 0, 91, 86
2, 261960, Note_on_c, 0, 91, 0
2, 261960, Note_on_c, 0, 87, 0
2, 261960, Note_on_c, 0, 82, 0
2, 261960, Note_on_c, 0, 94, 86
2, 262080, Note_on_c, 0, 94, 0
2, 262080, Note_on_c, 0, 82, 86
2, 262080, Note_on_c, 0, 87, 86
2, 262080, Note_on_c, 0, 91, 86
2, 262200, Note_on_c, 0, 91, 0
2, 262200, Note_on_c, 0, 87, 0
2, 262200, Note_on_c, 0, 82, 0
2, 262200, Note_on_c, 0, 94, 86
2, 262320, Note_on_c, 0, 94, 0
2, 262320, Note_on_c, 0, 82, 86
2, 262320, Note_on_c, 0, 87, 86
2, 262320, Note_on_c, 0, 91, 86
2, 262440, Note_on_c, 0, 91, 0
2, 262440, Note_on_c, 0, 87, 0
2, 262440, Note_on_c, 0, 82, 0
2, 262440, Note_on_c, 0, 94, 86
2, 262560, Note_on_c, 0, 94, 0
2, 262560, Note_on_c, 0, 82, 86
2, 262560, Note_on_c, 0, 87, 86
2, 262560, Note_on_c, 0, 91, 86
2, 262680, Note_on_c, 0, 91, 0
2, 262680, Note_on_c, 0, 87, 0
2, 262680, Note_on_c, 0, 82, 0
2, 262680, Note_on_c, 0, 94, 86
2, 262800, Note_on_c, 0, 94, 0
2, 262800, Note_on_c, 0, 82, 86
2, 262800, Note_on_c, 0, 87, 86
2, 262800, Note_on_c, 0, 91, 86
2, 262920, Note_on_c, 0, 91, 0
2, 262920, Note_on_c, 0, 87, 0
2, 262920, Note_on_c, 0, 82, 0
2, 262920, Control_c, 0, 64, 0
2, 262920, Note_on_c, 0, 94, 86
2, 263040, Note_on_c, 0, 94, 0
2, 263040, Note_on_c, 0, 83, 86
2, 263040, Note_on_c, 0, 87, 86
2, 263040, Note_on_c, 0, 92, 86
2, 263040, Note_on_c, 0, 95, 86
2, 263280, Note_on_c, 0, 95, 0
2, 263280, Note_on_c, 0, 83, 0
2, 263280, Note_on_c, 0, 87, 0
2, 263280, Note_on_c, 0, 92, 0
2, 263400, Note_on_c, 0, 91, 86
2, 263439, Note_on_c, 0, 91, 0
2, 263439, Note_on_c, 0, 92, 86
2, 263480, Note_on_c, 0, 92, 0
2, 263480, Note_on_c, 0, 94, 86
2, 263520, Note_on_c, 0, 94, 0
2, 263520, Control_c, 0, 64, 127
2, 263520, Note_on_c, 0, 83, 86
2, 263520, Note_on_c, 0, 87, 86
2, 263520, Note_on_c, 0, 92, 86
2, 263640, Note_on_c, 0, 92, 0
2, 263640, Note_on_c, 0, 87, 0
2, 263640, Note_on_c, 0, 83, 0
2, 263640, Note_on_c, 0, 95, 86
2, 263760, Note_on_c, 0, 95, 0
2, 263760, Note_on_c, 0, 83, 86
2, 263760, Note_on_c, 0, 87, 86
2, 263760, Note_on_c, 0, 92, 86
2, 263880, Note_on_c, 0, 92, 0
2, 263880, Note_on_c, 0, 87, 0
2, 263880, Note_on_c, 0, 83, 0
2, 263880, Note_on_c, 0, 95, 86
2, 264000, Note_on_c, 0, 95, 0
2, 264000, Note_on_c, 0, 83, 86
2, 264000, Note_on_c, 0, 87, 86
2, 264000, Note_on_c, 0, 92, 86
2, 264120, Note_on_c, 0, 92, 0
2, 264120, Note_on_c, 0, 87, 0
2, 264120, Note_on_c, 0, 83, 0
2, 264120, Note_on_c, 0, 95, 86
2, 264240, Note_on_c, 0, 95, 0
2, 264240, Note_on_c, 0, 83, 86
2, 264240, Note_on_c, 0, 87, 86
2, 264240, Note_on_c, 0, 92, 86
2, 264360, Note_on_c, 0, 92, 0
2, 264360, Note_on_c, 0, 87, 0
2, 264360, Note_on_c, 0, 83, 0
2, 264360, Note_on_c, 0, 95, 86
2, 264480, Note_on_c, 0, 95, 0
2, 264480, Note_on_c, 0, 83, 86
2, 264480, Note_on_c, 0, 87, 86
2, 264480, Note_on_c, 0, 92, 86
2, 264600, Note_on_c, 0, 92, 0
2, 264600, Note_on_c, 0, 87, 0
2, 264600, Note_on_c, 0, 83, 0
2, 264600, Note_on_c, 0, 95, 86
2, 264720, Note_on_c, 0, 95, 0
2, 264720, Note_on_c, 0, 83, 86
2, 264720, Note_on_c, 0, 87, 86
2, 264720, Note_on_c, 0, 92, 86
2, 264840, Note_on_c, 0, 92, 0
2, 264840, Note_on_c, 0, 87, 0
2, 264840, Note_on_c, 0, 83, 0
2, 264840, Control_c, 0, 64, 0
2, 264840, Note_on_c, 0, 95, 86
2, 264960, Note_on_c, 0, 95, 0
2, 264960, Note_on_c, 0, 83, 86
2, 264960, Note_on_c, 0, 89, 86
2, 264960, Note_on_c, 0, 92, 86
2, 264960, Note_on_c, 0, 95, 86
2, 265440, Note_on_c, 0, 95, 0
2, 265440, Note_on_c, 0, 83, 0
2, 265440, Note_on_c, 0, 89, 0
2, 265440, Note_on_c, 0, 92, 0
2, 265440, Note_on_c, 0, 82, 86
2, 265440, Note_on_c, 0, 89, 86
2, 265440, Note_on_c, 0, 92, 86
2, 265440, Note_on_c, 0, 94, 86
2, 265800, Note_on_c, 0, 94, 0
2, 265800, Note_on_c, 0, 82, 0
2, 265800, Note_on_c, 0, 89, 0
2, 265800, Note_on_c, 0, 92, 0
2, 265800, Note_on_c, 0, 83, 86
2, 265800, Note_on_c, 0, 89, 86
2, 265800, Note_on_c, 0, 92, 86
2, 265800, Note_on_c, 0, 95, 86
2, 265920, Note_on_c, 0, 95, 0
2, 265920, Note_on_c, 0, 83, 0
2, 265920, Note_on_c, 0, 89, 0
2, 265920, Note_on_c, 0, 92, 0
2, 265920, Note_on_c, 0, 83, 86
2, 265920, Note_on_c, 0, 89, 86
2, 265920, Note_on_c, 0, 92, 86
2, 265920, Note_on_c, 0, 95, 86
2, 266400, Note_on_c, 0, 95, 0
2, 266400, Note_on_c, 0, 83, 0
2, 266400, Note_on_c, 0, 89, 0
2, 266400, Note_on_c, 0, 92, 0
2, 266400, Note_on_c, 0, 82, 86
2, 266400, Note_on_c, 0, 89, 86
2, 266400, Note_on_c, 0, 92, 86
2, 266400, Note_on_c, 0, 94, 86
2, 266760, Note_on_c, 0, 94, 0
2, 266760, Note_on_c, 0, 82, 0
2, 266760, Note_on_c, 0, 89, 0
2, 266760, Note_on_c, 0, 92, 0
2, 266760, Note_on_c, 0, 83, 86
2, 266760, Note_on_c, 0, 89, 86
2, 266760, Note_on_c, 0, 92, 86
2, 266760, Note_on_c, 0, 95, 86
2, 266880, Note_on_c, 0, 95, 0
2, 266880, Note_on_c, 0, 83, 0
2, 266880, Note_on_c, 0, 89, 0
2, 266880, Note_on_c, 0, 92, 0
2, 266880, Note_on_c, 0, 83, 86
2, 266880, Note_on_c, 0, 89, 86
2, 266880, Note_on_c, 0, 92, 86
2, 266880, Note_on_c, 0, 95, 86
2, 267360, Note_on_c, 0, 95, 0
2, 267360, Note_on_c, 0, 83, 0
2, 267360, Note_on_c, 0, 89, 0
2, 267360, Note_on_c, 0, 92, 0
2, 267360, Note_on_c, 0, 77, 86
2, 267360, Note_on_c, 0, 89, 86
2, 267519, Note_on_c, 0, 89, 0
2, 267519, Note_on_c, 0, 77, 0
2, 267519, Note_on_c, 0, 77, 86
2, 267519, Note_on_c, 0, 89, 86
2, 267680, Note_on_c, 0, 89, 0
2, 267680, Note_on_c, 0, 77, 0
2, 267680, Note_on_c, 0, 77, 86
2, 267680, Note_on_c, 0, 89, 86
2, 267840, Note_on_c, 0, 89, 0
2, 267840, Note_on_c, 0, 77, 0
2, 267840, Note_on_c, 0, 77, 86
2, 267840, Note_on_c, 0, 89, 86
2, 267999, Note_on_c, 0, 89, 0
2, 267999, Note_on_c, 0, 77, 0
2, 267999, Note_on_c, 0, 79, 86
2, 267999, Note_on_c, 0, 91, 86
2, 268160, Note_on_c, 0, 91, 0
2, 268160, Note_on_c, 0, 79, 0
2, 268160, Note_on_c, 0, 80, 86
2, 268160, Note_on_c, 0, 92, 86
2, 268320, Note_on_c, 0, 92, 0
2, 268320, Note_on_c, 0, 80, 0
2, 268320, Note_on_c, 0, 80, 86
2, 268320, Note_on_c, 0, 92, 86
2, 268800, Note_on_c, 0, 92, 0
2, 268800, Note_on_c, 0, 80, 0
2, 268800, Note_on_c, 0, 83, 86
2, 268800, Note_on_c, 0, 89, 86
2, 268800, Note_on_c, 0, 92, 86
2, 268800, Note_on_c, 0, 95, 86
2, 269280, Note_on_c, 0, 95, 0
2, 269280, Note_on_c, 0, 83, 0
2, 269280, Note_on_c, 0, 89, 0
2, 269280, Note_on_c, 0, 92, 0
2, 269280, Note_on_c, 0, 82, 86
2, 269280, Note_on_c, 0, 89, 86
2, 269280, Note_on_c, 0, 92, 86
2, 269280, Note_on_c, 0, 94, 86
2, 269640, Note_on_c, 0, 94, 0
2, 269640, Note_on_c, 0, 82, 0
2, 269640, Note_on_c, 0, 89, 0
2, 269640, Note_on_c, 0, 92, 0
2, 269640, Note_on_c, 0, 83, 86
2, 269640, Note_on_c, 0, 89, 86
2, 269640, Note_on_c, 0, 92, 86
2, 269640, Note_on_c, 0, 95, 86
2, 269760, Note_on_c, 0, 95, 0
2, 269760, Note_on_c, 0, 83, 0
2, 269760, Note_on_c, 0, 89, 0
2, 269760, Note_on_c, 0, 92, 0
2, 269760, Note_on_c, 0, 83, 86
2, 269760, Note_on_c, 0, 89, 86
2, 269760, Note_on_c, 0, 92, 86
2, 269760, Note_on_c, 0, 95, 86
2, 270240, Note_on_c, 0, 95, 0
2, 270240, Note_on_c, 0, 83, 0
2, 270240, Note_on_c, 0, 89, 0
2, 270240, Note_on_c, 0, 92, 0
2, 270240, Note_on_c, 0, 82, 86
2, 270240, Note_on_c, 0, 89, 86
2, 270240, Note_on_c, 0, 92, 86
2, 270240, Note_on_c, 0, 94, 86
2, 270600, Note_on_c, 0, 94, 0
2, 270600, Note_on_c, 0, 82, 0
2, 270600, Note_on_c, 0, 89, 0
2, 270600, Note_on_c, 0, 92, 0
2, 270600, Note_on_c, 0, 83, 86
2, 270600, Note_on_c, 0, 89, 86
2, 270600, Note_on_c, 0, 92, 86
2, 270600, Note_on_c, 0, 95, 86
2, 270720, Note_on_c, 0, 95, 0
2, 270720, Note_on_c, 0, 83, 0
2, 270720, Note_on_c, 0, 89, 0
2, 270720, Note_on_c, 0, 92, 0
2, 270720, Note_on_c, 0, 83, 86
2, 270720, Note_on_c, 0, 89, 86
2, 270720, Note_on_c, 0, 92, 86
2, 270720, Note_on_c, 0, 95, 86
2, 271200, Note_on_c, 0, 95, 0
2, 271200, Note_on_c, 0, 83, 0
2, 271200, Note_on_c, 0, 89, 0
2, 271200, Note_on_c, 0, 92, 0
2, 271200, Note_on_c, 0, 77, 86
2, 271200, Note_on_c, 0, 89, 86
2, 271359, Note_on_c, 0, 89, 0
2, 271359, Note_on_c, 0, 77, 0
2, 271359, Note_on_c, 0, 77, 86
2, 271359, Note_on_c, 0, 89, 86
2, 271520, Note_on_c, 0, 89, 0
2, 271520, Note_on_c, 0, 77, 0
2, 271520, Note_on_c, 0, 77, 86
2, 271520, Note_on_c, 0, 89, 86
2, 271680, Note_on_c, 0, 89, 0
2, 271680, Note_on_c, 0, 77, 0
2, 271680, Note_on_c, 0, 77, 86
2, 271680, Note_on_c, 0, 89, 86
2, 271839, Note_on_c, 0, 89, 0
2, 271839, Note_on_c, 0, 77, 0
2, 271839, Note_on_c, 0, 79, 86
2, 271839, Note_on_c, 0, 91, 86
2, 272000, Note_on_c, 0, 91, 0
2, 272000, Note_on_c, 0, 79, 0
2, 272000, Note_on_c, 0, 80, 86
2, 272000, Note_on_c, 0, 92, 86
2, 272160, Note_on_c, 0, 92, 0
2, 272160, Note_on_c, 0, 80, 0
2, 272160, Note_on_c, 0, 80, 86
2, 272160, Note_on_c, 0, 92, 86
2, 272319, Note_on_c, 0, 92, 0
2, 272319, Note_on_c, 0, 80, 0
2, 272319, Note_on_c, 0, 82, 86
2, 272319, Note_on_c, 0, 94, 86
2, 272480, Note_on_c, 0, 94, 0
2, 272480, Note_on_c, 0, 82, 0
2, 272480, Note_on_c, 0, 83, 86
2, 272480, Note_on_c, 0, 95, 86
2, 272640, Note_on_c, 0, 95, 0
2, 272640, Note_on_c, 0, 83, 0
2, 272640, Note_on_c, 0, 89, 86
2, 272799, Note_on_c, 0, 89, 0
2, 272799, Note_on_c, 0, 91, 86
2, 272960, Note_on_c, 0, 91, 0
2, 272960, Note_on_c, 0, 92, 86
2, 273120, Note_on_c, 0, 92, 0
2, 273120, Note_on_c, 0, 80, 86
2, 273120, Note_on_c, 0, 92, 86
2, 273279, Note_on_c, 0, 92, 0
2, 273279, Note_on_c, 0, 80, 0
2, 273279, Note_on_c, 0, 82, 86
2, 273279, Note_on_c, 0, 94, 86
2, 273440, Note_on_c, 0, 94, 0
2, 273440, Note_on_c, 0, 82, 0
2, 273440, Note_on_c, 0, 83, 86
2, 273440, Note_on_c, 0, 95, 86
2, 273600, Note_on_c, 0, 95, 0
2, 273600, Note_on_c, 0, 83, 0
2, 273600, Note_on_c, 0, 89, 86
2, 273759, Note_on_c, 0, 89, 0
2, 273759, Note_on_c, 0, 91, 86
2, 273920, Note_on_c, 0, 91, 0
2, 273920, Note_on_c, 0, 92, 86
2, 274080, Note_on_c, 0, 92, 0
2, 274080, Note_on_c, 0, 80, 86
2, 274080, Note_on_c, 0, 92, 86
2, 274239, Note_on_c, 0, 92, 0
2, 274239, Note_on_c, 0, 80, 0
2, 274239, Note_on_c, 0, 82, 86
2, 274239, Note_on_c, 0, 94, 86
2, 274400, Note_on_c, 0, 94, 0
2, 274400, Note_on_c, 0, 82, 0
2, 274400, Note_on_c, 0, 83, 86
2, 274400, Note_on_c, 0, 95, 86
2, 274560, Note_on_c, 0, 95, 0
2, 274560, Note_on_c, 0, 83, 0
2, 274560, Note_on_c, 0, 92, 86
2, 274719, Note_on_c, 0, 92, 0
2, 274719, Note_on_c, 0, 94, 86
2, 274880, Note_on_c, 0, 94, 0
2, 274880, Note_on_c, 0, 83, 86
2, 274880, Note_on_c, 0, 95, 86
2, 275040, Note_on_c, 0, 95, 0
2, 275040, Note_on_c, 0, 83, 0
2, 275040, Note_on_c, 0, 92, 86
2, 275199, Note_on_c, 0, 92, 0
2, 275199, Note_on_c, 0, 94, 86
2, 275360, Note_on_c, 0, 94, 0
2, 275360, Note_on_c, 0, 83, 86
2, 275360, Note_on_c, 0, 95, 86
2, 275520, Note_on_c, 0, 95, 0
2, 275520, Note_on_c, 0, 83, 0
2, 275520, Note_on_c, 0, 92, 86
2, 275679, Note_on_c, 0, 92, 0
2, 275679, Note_on_c, 0, 94, 86
2, 275840, Note_on_c, 0, 94, 0
2, 275840, Note_on_c, 0, 83, 86
2, 275840, Note_on_c, 0, 95, 86
2, 276000, Note_on_c, 0, 95, 0
2, 276000, Note_on_c, 0, 83, 0
2, 276000, Control_c, 0, 64, 127
2, 276000, Note_on_c, 0, 84, 86
2, 276120, Note_on_c, 0, 84, 0
2, 276120, Note_on_c, 0, 96, 86
2, 276240, Note_on_c, 0, 96, 0
2, 276240, Note_on_c, 0, 84, 86
2, 276360, Note_on_c, 0, 84, 0
2, 276360, Note_on_c, 0, 96, 86
2, 276480, Note_on_c, 0, 96, 0
2, 276480, Note_on_c, 0, 84, 86
2, 276600, Note_on_c, 0, 84, 0
2, 276600, Note_on_c, 0, 96, 86
2, 276720, Note_on_c, 0, 96, 0
2, 276720, Note_on_c, 0, 84, 86
2, 276840, Note_on_c, 0, 84, 0
2, 276840, Note_on_c, 0, 96, 86
2, 276960, Note_on_c, 0, 96, 0
2, 276960, Note_on_c, 0, 84, 86
2, 277080, Note_on_c, 0, 84, 0
2, 277080, Note_on_c, 0, 96, 86
2, 277200, Note_on_c, 0, 96, 0
2, 277200, Note_on_c, 0, 84, 86
2, 277320, Note_on_c, 0, 84, 0
2, 277320, Note_on_c, 0, 96, 86
2, 277440, Note_on_c, 0, 96, 0
2, 277440, Note_on_c, 0, 84, 86
2, 277560, Note_on_c, 0, 84, 0
2, 277560, Note_on_c, 0, 96, 86
2, 277680, Note_on_c, 0, 96, 0
2, 277680, Note_on_c, 0, 84, 86
2, 277800, Note_on_c, 0, 84, 0
2, 277800, Note_on_c, 0, 96, 86
2, 277920, Note_on_c, 0, 96, 0
2, 277920, Note_on_c, 0, 84, 86
2, 278040, Note_on_c, 0, 84, 0
2, 278040, Note_on_c, 0, 96, 86
2, 278160, Note_on_c, 0, 96, 0
2, 278160, Note_on_c, 0, 84, 86
2, 278280, Note_on_c, 0, 84, 0
2, 278280, Control_c, 0, 64, 0
2, 278280, Note_on_c, 0, 96, 86
2, 278400, Note_on_c, 0, 96, 0
2, 278400, Control_c, 0, 64, 127
2, 278400, Note_on_c, 0, 83, 86
2, 278520, Note_on_c, 0, 83, 0
2, 278520, Note_on_c, 0, 95, 86
2, 278640, Note_on_c, 0, 95, 0
2, 278640, Note_on_c, 0, 83, 86
2, 278760, Note_on_c, 0, 83, 0
2, 278760, Control_c, 0, 64, 0
2, 278760, Note_on_c, 0, 95, 86
2, 278880, Note_on_c, 0, 95, 0
2, 278880, Control_c, 0, 64, 127
2, 278880, Note_on_c, 0, 82, 86
2, 279000, Note_on_c, 0, 82, 0
2, 279000, Note_on_c, 0, 94, 86
2, 279120, Note_on_c, 0, 94, 0
2, 279120, Note_on_c, 0, 82, 86
2, 279240, Note_on_c, 0, 82, 0
2, 279240, Control_c, 0, 64, 0
2, 279240, Note_on_c, 0, 94, 86
2, 279360, Note_on_c, 0, 94, 0
2, 279360, Control_c, 0, 64, 127
2, 279360, Note_on_c, 0, 81, 86
2, 279480, Note_on_c, 0, 81, 0
2, 279480, Note_on_c, 0, 93, 86
2, 279600, Note_on_c, 0, 93, 0
2, 279600, Note_on_c, 0, 81, 86
2, 279720, Note_on_c, 0, 81, 0
2, 279720, Control_c, 0, 64, 0
2, 279720, Note_on_c, 0, 93, 86
2, 279840, Note_on_c, 0, 93, 0
2, 279840, Control_c, 0, 64, 127
2, 279840, Note_on_c, 0, 79, 86
2, 279960, Note_on_c, 0, 79, 0
2, 279960, Note_on_c, 0, 91, 86
2, 280080, Note_on_c, 0, 91, 0
2, 280080, Note_on_c, 0, 79, 86
2, 280200, Note_on_c, 0, 79, 0
2, 280200, Control_c, 0, 64, 0
2, 280200, Note_on_c, 0, 91, 86
2, 280320, Note_on_c, 0, 91, 0
2, 280320, Note_on_c, 0, 77, 86
2, 280440, Note_on_c, 0, 77, 0
2, 280440, Note_on_c, 0, 89, 86
2, 280560, Note_on_c, 0, 89, 0
2, 280560, Note_on_c, 0, 76, 86
2, 280680, Note_on_c, 0, 76, 0
2, 280680, Note_on_c, 0, 88, 86
2, 280800, Note_on_c, 0, 88, 0
2, 280800, Note_on_c, 0, 74, 86
2, 280920, Note_on_c, 0, 74, 0
2, 280920, Note_on_c, 0, 86, 86
2, 281040, Note_on_c, 0, 86, 0
2, 281040, Note_on_c, 0, 72, 86
2, 281160, Note_on_c, 0, 72, 0
2, 281160, Note_on_c, 0, 84, 86
2, 281280, Note_on_c, 0, 84, 0
2, 281400, Note_on_c, 0, 71, 86
2, 281400, Note_on_c, 0, 83, 86
2, 281520, Note_on_c, 0, 83, 0
2, 281520, Note_on_c, 0, 71, 0
2, 281640, Note_on_c, 0, 80, 86
2, 281760, Note_on_c, 0, 80, 0
2, 281880, Note_on_c, 0, 79, 86
2, 282000, Note_on_c, 0, 79, 0
2, 282120, Note_on_c, 0, 77, 86
2, 282240, Note_on_c, 0, 77, 0
2, 282360, Note_on_c, 0, 84, 86
2, 282480, Note_on_c, 0, 84, 0
2, 282480, Note_on_c, 0, 86, 86
2, 282600, Note_on_c, 0, 86, 0
2, 282600, Note_on_c, 0, 88, 86
2, 282720, Note_on_c, 0, 88, 0
2, 282720, Note_on_c, 0, 89, 86
2, 282840, Note_on_c, 0, 89, 0
2, 282840, Note_on_c, 0, 91, 86
2, 282960, Note_on_c, 0, 91, 0
2, 282960, Note_on_c, 0, 93, 86
2, 283080, Note_on_c, 0, 93, 0
2, 283080, Note_on_c, 0, 94, 86
2, 283200, Note_on_c, 0, 94, 0
2, 283200, Note_on_c, 0, 84, 86
2, 283200, Note_on_c, 0, 96, 86
2, 283440, Note_on_c, 0, 96, 0
2, 283440, Note_on_c, 0, 84, 0
2, 283440, Note_on_c, 0, 76, 86
2, 283440, Note_on_c, 0, 82, 86
2, 283440, Note_on_c, 0, 84, 86
2, 283440, Note_on_c, 0, 88, 86
2, 283680, Note_on_c, 0, 88, 0
2, 283680, Note_on_c, 0, 76, 0
2, 283680, Note_on_c, 0, 82, 0
2, 283680, Note_on_c, 0, 84, 0
2, 283680, Note_on_c, 0, 77, 86
2, 283680, Note_on_c, 0, 81, 86
2, 283680, Note_on_c, 0, 84, 86
2, 283680, Note_on_c, 0, 89, 86
2, 283920, Note_on_c, 0, 89, 0
2, 283920, Note_on_c, 0, 77, 0
2, 283920, Note_on_c, 0, 81, 0
2, 283920, Note_on_c, 0, 84, 0
2, 284160, Note_on_c, 0, 65, 60
2, 284160, Note_on_c, 0, 77, 60
2, 284207, Note_on_c, 0, 77, 0
2, 284207, Note_on_c, 0, 65, 0
2, 284400, Note_on_c, 0, 65, 60
2, 284400, Note_on_c, 0, 77, 60
2, 284447, Note_on_c, 0, 77, 0
2, 284447, Note_on_c, 0, 65, 0
2, 284640, Note_on_c, 0, 65, 60
2, 284640, Note_on_c, 0, 77, 60
2, 284687, Note_on_c, 0, 77, 0
2, 284687, Note_on_c, 0, 65, 0
2, 284880, Note_on_c, 0, 65, 60
2, 284880, Note_on_c, 0, 77, 60
2, 284927, Note_on_c, 0, 77, 0
2, 284927, Note_on_c, 0, 65, 0
2, 285120, Note_on_c, 0, 64, 60
2, 285120, Note_on_c, 0, 76, 60
2, 285600, Note_on_c, 0, 76, 0
2, 285600, Note_on_c, 0, 64, 0
2, 285600, Note_on_c, 0, 62, 60
2, 285600, Note_on_c, 0, 74, 60
2, 285840, Note_on_c, 0, 74, 0
2, 285840, Note_on_c, 0, 62, 0
2, 285840, Note_on_c, 0, 62, 60
2, 285840, Note_on_c, 0, 74, 60
2, 286080, Note_on_c, 0, 74, 0
2, 286080, Note_on_c, 0, 62, 0
2, 286080, Note_on_c, 0, 60, 60
2, 286080, Note_on_c, 0, 72, 60
2, 286560, Note_on_c, 0, 72, 0
2, 286560, Note_on_c, 0, 60, 0
2, 286560, Note_on_c, 0, 58, 60
2, 286560, Note_on_c, 0, 70, 60
2, 288000, Note_on_c, 0, 70, 0
2, 288000, Note_on_c, 0, 58, 0
2, 288000, Note_on_c, 0, 62, 60
2, 288000, Note_on_c, 0, 74, 60
2, 288047, Note_on_c, 0, 74, 0
2, 288047, Note_on_c, 0, 62, 0
2, 288240, Note_on_c, 0, 62, 60
2, 288240, Note_on_c, 0, 74, 60
2, 288287, Note_on_c, 0, 74, 0
2, 288287, Note_on_c, 0, 62, 0
2, 288480, Note_on_c, 0, 62, 60
2, 288480, Note_on_c, 0, 74, 60
2, 288527, Note_on_c, 0, 74, 0
2, 288527, Note_on_c, 0, 62, 0
2, 288720, Note_on_c, 0, 62, 60
2, 288720, Note_on_c, 0, 74, 60
2, 288767, Note_on_c, 0, 74, 0
2, 288767, Note_on_c, 0, 62, 0
2, 288960, Note_on_c, 0, 60, 60
2, 288960, Note_on_c, 0, 72, 60
2, 289440, Note_on_c, 0, 72, 0
2, 289440, Note_on_c, 0, 60, 0
2, 289440, Note_on_c, 0, 58, 60
2, 289440, Note_on_c, 0, 70, 60
2, 289680, Note_on_c, 0, 70, 0
2, 289680, Note_on_c, 0, 58, 0
2, 289680, Note_on_c, 0, 58, 60
2, 289680, Note_on_c, 0, 70, 60
2, 289920, Note_on_c, 0, 70, 0
2, 289920, Note_on_c, 0, 58, 0
2, 289920, Note_on_c, 0, 57, 60
2, 289920, Note_on_c, 0, 69, 60
2, 290400, Note_on_c, 0, 69, 0
2, 290400, Note_on_c, 0, 57, 0
2, 290400, Note_on_c, 0, 56, 60
2, 290400, Note_on_c, 0, 68, 60
2, 291840, Note_on_c, 0, 68, 0
2, 291840, Note_on_c, 0, 56, 0
2, 291840, Note_on_c, 0, 57, 60
2, 291840, Note_on_c, 0, 69, 60
2, 292560, Note_on_c, 0, 69, 0
2, 292560, Note_on_c, 0, 57, 0
2, 292560, Note_on_c, 0, 58, 60
2, 292560, Note_on_c, 0, 70, 60
2, 292800, Note_on_c, 0, 70, 0
2, 292800, Note_on_c, 0, 58, 0
2, 292800, Note_on_c, 0, 60, 60
2, 292800, Note_on_c, 0, 72, 60
2, 293280, Note_on_c, 0, 72, 0
2, 293280, Note_on_c, 0, 60, 0
2, 293280, Note_on_c, 0, 58, 60
2, 293280, Note_on_c, 0, 70, 60
2, 293520, Note_on_c, 0, 70, 0
2, 293520, Note_on_c, 0, 58, 0
2, 293520, Note_on_c, 0, 58, 60
2, 293520, Note_on_c, 0, 70, 60
2, 293760, Note_on_c, 0, 70, 0
2, 293760, Note_on_c, 0, 58, 0
2, 293760, Note_on_c, 0, 57, 60
2, 293760, Note_on_c, 0, 69, 60
2, 293856, Note_on_c, 0, 69, 0
2, 293856, Note_on_c, 0, 57, 0
2, 294240, Note_on_c, 0, 56, 60
2, 294240, Note_on_c, 0, 68, 60
2, 295680, Note_on_c, 0, 68, 0
2, 295680, Note_on_c, 0, 56, 0
2, 295680, Note_on_c, 0, 57, 60
2, 295680, Note_on_c, 0, 69, 60
2, 296400, Note_on_c, 0, 69, 0
2, 296400, Note_on_c, 0, 57, 0
2, 296400, Note_on_c, 0, 58, 60
2, 296400, Note_on_c, 0, 70, 60
2, 296640, Note_on_c, 0, 70, 0
2, 296640, Note_on_c, 0, 58, 0
2, 296640, Note_on_c, 0, 60, 60
2, 296640, Note_on_c, 0, 72, 60
2, 297120, Note_on_c, 0, 72, 0
2, 297120, Note_on_c, 0, 60, 0
2, 297120, Note_on_c, 0, 58, 60
2, 297120, Note_on_c, 0, 70, 60
2, 297360, Note_on_c, 0, 70, 0
2, 297360, Note_on_c, 0, 58, 0
2, 297360, Note_on_c, 0, 58, 60
2, 297360, Note_on_c, 0, 70, 60
2, 297600, Note_on_c, 0, 70, 0
2, 297600, Note_on_c, 0, 58, 0
2, 297600, Note_on_c, 0, 57, 60
2, 297600, Note_on_c, 0, 69, 60
2, 298080, Note_on_c, 0, 69, 0
2, 298080, Note_on_c, 0, 57, 0
2, 298080, Note_on_c, 0, 56, 60
2, 298080, Note_on_c, 0, 68, 60
2, 299520, Note_on_c, 0, 68, 0
2, 299520, Note_on_c, 0, 56, 0
2, 299520, Note_on_c, 0, 65, 60
2, 299520, Note_on_c, 0, 77, 60
2, 299567, Note_on_c, 0, 77, 0
2, 299567, Note_on_c, 0, 65, 0
2, 299760, Note_on_c, 0, 65, 60
2, 299760, Note_on_c, 0, 77, 60
2, 299807, Note_on_c, 0, 77, 0
2, 299807, Note_on_c, 0, 65, 0
2, 300000, Note_on_c, 0, 65, 60
2, 300000, Note_on_c, 0, 77, 60
2, 300047, Note_on_c, 0, 77, 0
2, 300047, Note_on_c, 0, 65, 0
2, 300240, Note_on_c, 0, 65, 60
2, 300240, Note_on_c, 0, 77, 60
2, 300287, Note_on_c, 0, 77, 0
2, 300287, Note_on_c, 0, 65, 0
2, 300480, Note_on_c, 0, 64, 60
2, 300480, Note_on_c, 0, 76, 60
2, 300960, Note_on_c, 0, 76, 0
2, 300960, Note_on_c, 0, 64, 0
2, 300960, Note_on_c, 0, 74, 60
2, 301200, Note_on_c, 0, 74, 0
2, 301200, Note_on_c, 0, 74, 60
2, 301440, Note_on_c, 0, 74, 0
2, 301440, Note_on_c, 0, 72, 60
2, 301920, Note_on_c, 0, 72, 0
2, 301920, Note_on_c, 0, 58, 60
2, 301920, Note_on_c, 0, 70, 60
2, 302880, Note_on_c, 0, 70, 0
2, 302880, Note_on_c, 0, 58, 0
2, 303360, Note_on_c, 0, 74, 60
2, 303407, Note_on_c, 0, 74, 0
2, 303600, Note_on_c, 0, 74, 60
2, 303647, Note_on_c, 0, 74, 0
2, 303840, Note_on_c, 0, 74, 60
2, 303887, Note_on_c, 0, 74, 0
2, 304080, Note_on_c, 0, 74, 60
2, 304127, Note_on_c, 0, 74, 0
2, 304320, Note_on_c, 0, 72, 60
2, 304800, Note_on_c, 0, 72, 0
2, 304800, Note_on_c, 0, 70, 60
2, 305040, Note_on_c, 0, 70, 0
2, 305040, Note_on_c, 0, 70, 60
2, 305280, Note_on_c, 0, 70, 0
2, 305280, Note_on_c, 0, 69, 60
2, 305760, Note_on_c, 0, 69, 0
2, 305760, Note_on_c, 0, 56, 60
2, 305760, Note_on_c, 0, 68, 60
2, 307200, Note_on_c, 0, 68, 0
2, 307200, Note_on_c, 0, 56, 0
2, 307920, Note_on_c, 0, 70, 60
2, 308160, Note_on_c, 0, 70, 0
2, 308160, Note_on_c, 0, 72, 60
2, 308640, Note_on_c, 0, 72, 0
2, 308640, Note_on_c, 0, 70, 60
2, 308880, Note_on_c, 0, 70, 0
2, 308880, Note_on_c, 0, 70, 60
2, 309120, Note_on_c, 0, 70, 0
2, 309120, Note_on_c, 0, 69, 60
2, 309600, Note_on_c, 0, 69, 0
2, 309600, Note_on_c, 0, 56, 60
2, 309600, Note_on_c, 0, 68, 60
2, 311040, Note_on_c, 0, 68, 0
2, 311040, Note_on_c, 0, 56, 0
2, 311760, Note_on_c, 0, 70, 60
2, 312000, Note_on_c, 0, 70, 0
2, 312000, Note_on_c, 0, 72, 60
2, 312480, Note_on_c, 0, 72, 0
2, 312480, Note_on_c, 0, 70, 60
2, 312720, Note_on_c, 0, 70, 0
2, 312720, Note_on_c, 0, 70, 60
2, 312960, Note_on_c, 0, 70, 0
2, 312960, Note_on_c, 0, 69, 60
2, 313440, Note_on_c, 0, 69, 0
2, 313440, Note_on_c, 0, 56, 60
2, 313440, Note_on_c, 0, 68, 60
2, 314880, Note_on_c, 0, 68, 0
2, 314880, Note_on_c, 0, 56, 0
2, 314880, Note_on_c, 0, 77, 60
2, 314927, Note_on_c, 0, 77, 0
2, 315120, Note_on_c, 0, 77, 60
2, 315167, Note_on_c, 0, 77, 0
2, 315360, Note_on_c, 0, 77, 60
2, 315407, Note_on_c, 0, 77, 0
2, 315600, Note_on_c, 0, 77, 60
2, 315647, Note_on_c, 0, 77, 0
2, 315840, Note_on_c, 0, 76, 60
2, 316320, Note_on_c, 0, 76, 0
2, 316320, Note_on_c, 0, 74, 60
2, 316560, Note_on_c, 0, 74, 0
2, 316560, Note_on_c, 0, 74, 60
2, 316800, Note_on_c, 0, 74, 0
2, 316800, Note_on_c, 0, 72, 60
2, 317280, Note_on_c, 0, 72, 0
2, 317280, Note_on_c, 0, 59, 60
2, 317280, Note_on_c, 0, 71, 60
2, 318720, Note_on_c, 0, 71, 0
2, 318720, Note_on_c, 0, 59, 0
2, 318720, Note_on_c, 0, 74, 60
2, 318767, Note_on_c, 0, 74, 0
2, 318960, Note_on_c, 0, 74, 60
2, 319007, Note_on_c, 0, 74, 0
2, 319200, Note_on_c, 0, 74, 60
2, 319247, Note_on_c, 0, 74, 0
2, 319440, Note_on_c, 0, 74, 60
2, 319487, Note_on_c, 0, 74, 0
2, 319680, Note_on_c, 0, 72, 60
2, 320160, Note_on_c, 0, 72, 0
2, 320160, Note_on_c, 0, 71, 60
2, 320400, Note_on_c, 0, 71, 0
2, 320400, Note_on_c, 0, 71, 60
2, 320640, Note_on_c, 0, 71, 0
2, 320760, Control_c, 0, 64, 127
2, 320760, Note_on_c, 0, 71, 47
2, 320880, Note_on_c, 0, 71, 0
2, 320880, Note_on_c, 0, 72, 47
2, 321000, Note_on_c, 0, 72, 0
2, 321000, Note_on_c, 0, 75, 47
2, 321120, Note_on_c, 0, 75, 0
2, 321120, Note_on_c, 0, 76, 47
2, 321240, Note_on_c, 0, 76, 0
2, 321240, Note_on_c, 0, 75, 47
2, 321360, Note_on_c, 0, 75, 0
2, 321360, Note_on_c, 0, 76, 47
2, 321480, Note_on_c, 0, 76, 0
2, 321480, Note_on_c, 0, 78, 47
2, 321600, Note_on_c, 0, 78, 0
2, 321600, Note_on_c, 0, 79, 47
2, 321720, Note_on_c, 0, 79, 0
2, 321720, Note_on_c, 0, 78, 47
2, 321840, Note_on_c, 0, 78, 0
2, 321840, Note_on_c, 0, 79, 47
2, 321960, Note_on_c, 0, 79, 0
2, 321960, Note_on_c, 0, 83, 47
2, 322080, Note_on_c, 0, 83, 0
2, 322080, Note_on_c, 0, 84, 47
2, 322200, Note_on_c, 0, 84, 0
2, 322200, Note_on_c, 0, 88, 47
2, 322320, Note_on_c, 0, 88, 0
2, 322320, Note_on_c, 0, 84, 47
2, 322440, Note_on_c, 0, 84, 0
2, 322440, Control_c, 0, 64, 0
2, 322440, Note_on_c, 0, 83, 47
2, 322560, Note_on_c, 0, 83, 0
2, 322560, Note_on_c, 0, 81, 47
2, 322680, Note_on_c, 0, 81, 0
2, 324600, Control_c, 0, 64, 127
2, 324600, Note_on_c, 0, 73, 47
2, 324720, Note_on_c, 0, 73, 0
2, 324720, Note_on_c, 0, 74, 47
2, 324840, Note_on_c, 0, 74, 0
2, 324840, Note_on_c, 0, 78, 47
2, 324960, Note_on_c, 0, 78, 0
2, 324960, Note_on_c, 0, 79, 47
2, 325080, Note_on_c, 0, 79, 0
2, 325080, Note_on_c, 0, 78, 47
2, 325200, Note_on_c, 0, 78, 0
2, 325200, Note_on_c, 0, 79, 47
2, 325320, Note_on_c, 0, 79, 0
2, 325320, Note_on_c, 0, 83, 47
2, 325440, Note_on_c, 0, 83, 0
2, 325440, Note_on_c, 0, 84, 47
2, 325560, Note_on_c, 0, 84, 0
2, 325560, Note_on_c, 0, 83, 47
2, 325680, Note_on_c, 0, 83, 0
2, 325680, Note_on_c, 0, 84, 47
2, 325800, Note_on_c, 0, 84, 0
2, 325800, Note_on_c, 0, 86, 47
2, 325920, Note_on_c, 0, 86, 0
2, 325920, Note_on_c, 0, 88, 47
2, 326040, Note_on_c, 0, 88, 0
2, 326040, Note_on_c, 0, 86, 47
2, 326160, Note_on_c, 0, 86, 0
2, 326160, Note_on_c, 0, 84, 47
2, 326280, Note_on_c, 0, 84, 0
2, 326280, Note_on_c, 0, 83, 47
2, 326400, Note_on_c, 0, 83, 0
2, 326400, Control_c, 0, 64, 0
2, 326400, Note_on_c, 0, 81, 47
2, 326520, Note_on_c, 0, 81, 0
2, 328440, Control_c, 0, 64, 127
2, 328440, Note_on_c, 0, 73, 47
2, 328560, Note_on_c, 0, 73, 0
2, 328560, Note_on_c, 0, 74, 47
2, 328680, Note_on_c, 0, 74, 0
2, 328680, Note_on_c, 0, 78, 47
2, 328800, Note_on_c, 0, 78, 0
2, 328800, Note_on_c, 0, 79, 47
2, 328920, Note_on_c, 0, 79, 0
2, 328920, Note_on_c, 0, 78, 47
2, 329040, Note_on_c, 0, 78, 0
2, 329040, Note_on_c, 0, 79, 47
2, 329160, Note_on_c, 0, 79, 0
2, 329160, Note_on_c, 0, 83, 47
2, 329280, Note_on_c, 0, 83, 0
2, 329280, Note_on_c, 0, 84, 47
2, 329400, Note_on_c, 0, 84, 0
2, 329400, Note_on_c, 0, 83, 47
2, 329520, Note_on_c, 0, 83, 0
2, 329520, Note_on_c, 0, 84, 47
2, 329640, Note_on_c, 0, 84, 0
2, 329640, Note_on_c, 0, 86, 47
2, 329760, Note_on_c, 0, 86, 0
2, 329760, Note_on_c, 0, 88, 47
2, 329880, Note_on_c, 0, 88, 0
2, 329880, Note_on_c, 0, 86, 47
2, 330000, Note_on_c, 0, 86, 0
2, 330000, Note_on_c, 0, 84, 47
2, 330120, Note_on_c, 0, 84, 0
2, 330120, Control_c, 0, 64, 0
2, 330120, Note_on_c, 0, 79, 47
2, 330240, Note_on_c, 0, 79, 0
2, 330240, Note_on_c, 0, 64, 60
2, 330240, Note_on_c, 0, 76, 60
2, 330480, Note_on_c, 0, 76, 0
2, 330480, Note_on_c, 0, 64, 0
2, 330480, Note_on_c, 0, 64, 60
2, 330480, Note_on_c, 0, 76, 60
2, 330720, Note_on_c, 0, 76, 0
2, 330720, Note_on_c, 0, 64, 0
2, 330720, Note_on_c, 0, 64, 60
2, 330720, Note_on_c, 0, 76, 60
2, 330960, Note_on_c, 0, 76, 0
2, 330960, Note_on_c, 0, 64, 0
2, 330960, Note_on_c, 0, 64, 60
2, 330960, Note_on_c, 0, 76, 60
2, 331200, Note_on_c, 0, 76, 0
2, 331200, Note_on_c, 0, 64, 0
2, 331200, Note_on_c, 0, 74, 73
2, 331680, Note_on_c, 0, 74, 0
2, 331680, Note_on_c, 0, 73, 73
2, 331920, Note_on_c, 0, 73, 0
2, 331920, Note_on_c, 0, 73, 73
2, 332160, Note_on_c, 0, 73, 0
2, 332160, Note_on_c, 0, 70, 73
2, 332640, Note_on_c, 0, 70, 0
2, 332640, Note_on_c, 0, 69, 73
2, 334080, Note_on_c, 0, 69, 0
2, 334080, Note_on_c, 0, 65, 73
2, 334080, Note_on_c, 0, 77, 73
2, 334320, Note_on_c, 0, 77, 0
2, 334320, Note_on_c, 0, 65, 0
2, 334320, Note_on_c, 0, 65, 73
2, 334320, Note_on_c, 0, 77, 73
2, 334560, Note_on_c, 0, 77, 0
2, 334560, Note_on_c, 0, 65, 0
2, 334560, Note_on_c, 0, 65, 73
2, 334560, Note_on_c, 0, 77, 73
2, 334800, Note_on_c, 0, 77, 0
2, 334800, Note_on_c, 0, 65, 0
2, 334800, Note_on_c, 0, 65, 73
2, 334800, Note_on_c, 0, 77, 73
2, 335040, Note_on_c, 0, 77, 0
2, 335040, Note_on_c, 0, 65, 0
2, 335040, Note_on_c, 0, 64, 73
2, 335040, Note_on_c, 0, 76, 73
2, 335520, Note_on_c, 0, 76, 0
2, 335520, Note_on_c, 0, 64, 0
2, 335520, Note_on_c, 0, 63, 73
2, 335520, Note_on_c, 0, 75, 73
2, 335760, Note_on_c, 0, 75, 0
2, 335760, Note_on_c, 0, 63, 0
2, 335760, Note_on_c, 0, 63, 73
2, 335760, Note_on_c, 0, 75, 73
2, 336000, Note_on_c, 0, 75, 0
2, 336000, Note_on_c, 0, 63, 0
2, 336000, Note_on_c, 0, 72, 73
2, 336480, Note_on_c, 0, 72, 0
2, 336480, Note_on_c, 0, 71, 73
2, 337920, Note_on_c, 0, 71, 0
2, 337920, Note_on_c, 0, 67, 73
2, 338040, Note_on_c, 0, 67, 0
2, 338040, Note_on_c, 0, 79, 73
2, 338160, Note_on_c, 0, 79, 0
2, 338160, Note_on_c, 0, 67, 73
2, 338280, Note_on_c, 0, 67, 0
2, 338280, Note_on_c, 0, 79, 73
2, 338400, Note_on_c, 0, 79, 0
2, 338400, Note_on_c, 0, 66, 73
2, 338400, Note_on_c, 0, 78, 73
2, 338640, Note_on_c, 0, 78, 0
2, 338640, Note_on_c, 0, 66, 0
2, 338640, Note_on_c, 0, 64, 73
2, 338640, Note_on_c, 0, 76, 73
2, 338760, Note_on_c, 0, 76, 0
2, 338760, Note_on_c, 0, 64, 0
2, 338760, Note_on_c, 0, 64, 73
2, 338760, Note_on_c, 0, 76, 73
2, 338880, Note_on_c, 0, 76, 0
2, 338880, Note_on_c, 0, 64, 0
2, 339840, Note_on_c, 0, 67, 73
2, 339960, Note_on_c, 0, 67, 0
2, 339960, Note_on_c, 0, 79, 73
2, 340080, Note_on_c, 0, 79, 0
2, 340080, Note_on_c, 0, 67, 73
2, 340200, Note_on_c, 0, 67, 0
2, 340200, Note_on_c, 0, 79, 73
2, 340320, Note_on_c, 0, 79, 0
2, 340320, Note_on_c, 0, 66, 73
2, 340320, Note_on_c, 0, 78, 73
2, 340560, Note_on_c, 0, 78, 0
2, 340560, Note_on_c, 0, 66, 0
2, 340560, Note_on_c, 0, 64, 73
2, 340560, Note_on_c, 0, 76, 73
2, 340680, Note_on_c, 0, 76, 0
2, 340680, Note_on_c, 0, 64, 0
2, 340680, Note_on_c, 0, 64, 73
2, 340680, Note_on_c, 0, 76, 73
2, 340800, Note_on_c, 0, 76, 0
2, 340800, Note_on_c, 0, 64, 0
2, 341760, Note_on_c, 0, 68, 73
2, 341880, Note_on_c, 0, 68, 0
2, 341880, Note_on_c, 0, 80, 73
2, 342000, Note_on_c, 0, 80, 0
2, 342000, Note_on_c, 0, 68, 73
2, 342120, Note_on_c, 0, 68, 0
2, 342120, Note_on_c, 0, 80, 73
2, 342240, Note_on_c, 0, 80, 0
2, 342240, Note_on_c, 0, 67, 73
2, 342240, Note_on_c, 0, 79, 73
2, 342480, Note_on_c, 0, 79, 0
2, 342480, Note_on_c, 0, 67, 0
2, 342480, Note_on_c, 0, 65, 73
2, 342480, Note_on_c, 0, 77, 73
2, 342600, Note_on_c, 0, 77, 0
2, 342600, Note_on_c, 0, 65, 0
2, 342600, Note_on_c, 0, 65, 73
2, 342600, Note_on_c, 0, 77, 73
2, 342720, Note_on_c, 0, 77, 0
2, 342720, Note_on_c, 0, 65, 0
2, 343680, Note_on_c, 0, 68, 73
2, 343800, Note_on_c, 0, 68, 0
2, 343800, Note_on_c, 0, 80, 73
2, 343920, Note_on_c, 0, 80, 0
2, 343920, Note_on_c, 0, 68, 73
2, 344040, Note_on_c, 0, 68, 0
2, 344040, Note_on_c, 0, 80, 73
2, 344160, Note_on_c, 0, 80, 0
2, 344160, Note_on_c, 0, 67, 73
2, 344160, Note_on_c, 0, 79, 73
2, 344400, Note_on_c, 0, 79, 0
2, 344400, Note_on_c, 0, 67, 0
2, 344400, Note_on_c, 0, 65, 73
2, 344400, Note_on_c, 0, 77, 73
2, 344520, Note_on_c, 0, 77, 0
2, 344520, Note_on_c, 0, 65, 0
2, 344520, Note_on_c, 0, 65, 73
2, 344520, Note_on_c, 0, 77, 73
2, 344640, Note_on_c, 0, 77, 0
2, 344640, Note_on_c, 0, 65, 0
2, 345600, Note_on_c, 0, 80, 73
2, 345720, Note_on_c, 0, 80, 0
2, 345720, Note_on_c, 0, 80, 73
2, 345840, Note_on_c, 0, 80, 0
2, 345840, Note_on_c, 0, 79, 73
2, 345960, Note_on_c, 0, 79, 0
2, 345960, Note_on_c, 0, 77, 73
2, 346080, Note_on_c, 0, 77, 0
2, 346200, Note_on_c, 0, 68, 73
2, 346200, Note_on_c, 0, 71, 73
2, 346320, Note_on_c, 0, 71, 0
2, 346320, Note_on_c, 0, 68, 0
2, 346320, Note_on_c, 0, 69, 73
2, 346440, Note_on_c, 0, 69, 0
2, 346440, Note_on_c, 0, 68, 73
2, 346560, Note_on_c, 0, 68, 0
2, 346560, Note_on_c, 0, 66, 99
2, 347040, Note_on_c, 0, 66, 0
2, 347160, Note_on_c, 0, 84, 73
2, 347160, Note_on_c, 0, 92, 73
2, 347280, Note_on_c, 0, 92, 0
2, 347280, Note_on_c, 0, 84, 0
2, 347280, Note_on_c, 0, 83, 73
2, 347280, Note_on_c, 0, 92, 73
2, 347400, Note_on_c, 0, 92, 0
2, 347400, Note_on_c, 0, 83, 0
2, 347400, Note_on_c, 0, 81, 73
2, 347400, Note_on_c, 0, 90, 73
2, 347520, Note_on_c, 0, 90, 0
2, 347520, Note_on_c, 0, 81, 0
2, 347520, Note_on_c, 0, 80, 73
2, 347640, Note_on_c, 0, 80, 0
2, 347640, Note_on_c, 0, 80, 73
2, 347760, Note_on_c, 0, 80, 0
2, 347760, Note_on_c, 0, 79, 73
2, 347880, Note_on_c, 0, 79, 0
2, 347880, Note_on_c, 0, 77, 73
2, 348000, Note_on_c, 0, 77, 0
2, 348120, Note_on_c, 0, 68, 73
2, 348120, Note_on_c, 0, 71, 73
2, 348240, Note_on_c, 0, 71, 0
2, 348240, Note_on_c, 0, 68, 0
2, 348240, Note_on_c, 0, 69, 73
2, 348360, Note_on_c, 0, 69, 0
2, 348360, Note_on_c, 0, 68, 73
2, 348480, Note_on_c, 0, 68, 0
2, 348480, Note_on_c, 0, 66, 99
2, 348960, Note_on_c, 0, 66, 0
2, 349080, Note_on_c, 0, 84, 73
2, 349080, Note_on_c, 0, 92, 73
2, 349200, Note_on_c, 0, 92, 0
2, 349200, Note_on_c, 0, 84, 0
2, 349200, Note_on_c, 0, 83, 73
2, 349200, Note_on_c, 0, 92, 73
2, 349320, Note_on_c, 0, 92, 0
2, 349320, Note_on_c, 0, 83, 0
2, 349320, Note_on_c, 0, 81, 73
2, 349320, Note_on_c, 0, 90, 73
2, 349440, Note_on_c, 0, 90, 0
2, 349440, Note_on_c, 0, 81, 0
2, 349440, Note_on_c, 0, 81, 73
2, 349560, Note_on_c, 0, 81, 0
2, 349560, Note_on_c, 0, 81, 73
2, 349680, Note_on_c, 0, 81, 0
2, 349680, Note_on_c, 0, 80, 73
2, 349800, Note_on_c, 0, 80, 0
2, 349800, Note_on_c, 0, 78, 73
2, 349920, Note_on_c, 0, 78, 0
2, 350040, Note_on_c, 0, 72, 73
2, 350160, Note_on_c, 0, 72, 0
2, 350160, Note_on_c, 0, 70, 73
2, 350280, Note_on_c, 0, 70, 0
2, 350280, Note_on_c, 0, 69, 73
2, 350400, Note_on_c, 0, 69, 0
2, 350400, Note_on_c, 0, 67, 73
2, 350880, Note_on_c, 0, 67, 0
2, 351000, Note_on_c, 0, 85, 73
2, 351000, Note_on_c, 0, 94, 73
2, 351120, Note_on_c, 0, 94, 0
2, 351120, Note_on_c, 0, 85, 0
2, 351120, Note_on_c, 0, 84, 73
2, 351120, Note_on_c, 0, 93, 73
2, 351240, Note_on_c, 0, 93, 0
2, 351240, Note_on_c, 0, 84, 0
2, 351240, Note_on_c, 0, 82, 73
2, 351240, Note_on_c, 0, 91, 73
2, 351360, Note_on_c, 0, 91, 0
2, 351360, Note_on_c, 0, 82, 0
2, 351360, Note_on_c, 0, 81, 73
2, 351480, Note_on_c, 0, 81, 0
2, 351480, Note_on_c, 0, 81, 73
2, 351600, Note_on_c, 0, 81, 0
2, 351600, Note_on_c, 0, 80, 73
2, 351720, Note_on_c, 0, 80, 0
2, 351720, Note_on_c, 0, 78, 73
2, 351840, Note_on_c, 0, 78, 0
2, 351960, Note_on_c, 0, 72, 73
2, 352080, Note_on_c, 0, 72, 0
2, 352080, Note_on_c, 0, 70, 73
2, 352200, Note_on_c, 0, 70, 0
2, 352200, Note_on_c, 0, 69, 73
2, 352320, Note_on_c, 0, 69, 0
2, 352320, Note_on_c, 0, 67, 73
2, 352800, Note_on_c, 0, 67, 0
2, 352920, Note_on_c, 0, 85, 73
2, 352920, Note_on_c, 0, 94, 73
2, 353040, Note_on_c, 0, 94, 0
2, 353040, Note_on_c, 0, 85, 0
2, 353040, Note_on_c, 0, 84, 73
2, 353040, Note_on_c, 0, 93, 73
2, 353160, Note_on_c, 0, 93, 0
2, 353160, Note_on_c, 0, 84, 0
2, 353160, Note_on_c, 0, 82, 73
2, 353160, Note_on_c, 0, 91, 73
2, 353280, Note_on_c, 0, 91, 0
2, 353280, Note_on_c, 0, 82, 0
2, 353280, Note_on_c, 0, 62, 73
2, 353280, Note_on_c, 0, 70, 73
2, 353400, Note_on_c, 0, 70, 0
2, 353400, Note_on_c, 0, 62, 0
2, 353400, Note_on_c, 0, 70, 73
2, 353520, Note_on_c, 0, 70, 0
2, 353520, Note_on_c, 0, 69, 73
2, 353640, Note_on_c, 0, 69, 0
2, 353640, Note_on_c, 0, 67, 73
2, 353760, Note_on_c, 0, 67, 0
2, 353880, Note_on_c, 0, 85, 73
2, 353880, Note_on_c, 0, 94, 73
2, 354000, Note_on_c, 0, 94, 0
2, 354000, Note_on_c, 0, 85, 0
2, 354000, Note_on_c, 0, 84, 73
2, 354000, Note_on_c, 0, 93, 73
2, 354120, Note_on_c, 0, 93, 0
2, 354120, Note_on_c, 0, 84, 0
2, 354120, Note_on_c, 0, 82, 73
2, 354120, Note_on_c, 0, 91, 73
2, 354240, Note_on_c, 0, 91, 0
2, 354240, Note_on_c, 0, 82, 0
2, 354240, Note_on_c, 0, 62, 73
2, 354240, Note_on_c, 0, 70, 73
2, 354360, Note_on_c, 0, 70, 0
2, 354360, Note_on_c, 0, 62, 0
2, 354360, Note_on_c, 0, 70, 73
2, 354480, Note_on_c, 0, 70, 0
2, 354480, Note_on_c, 0, 69, 73
2, 354600, Note_on_c, 0, 69, 0
2, 354600, Note_on_c, 0, 67, 73
2, 354720, Note_on_c, 0, 67, 0
2, 354840, Note_on_c, 0, 85, 73
2, 354840, Note_on_c, 0, 94, 73
2, 354960, Note_on_c, 0, 94, 0
2, 354960, Note_on_c, 0, 85, 0
2, 354960, Note_on_c, 0, 84, 73
2, 354960, Note_on_c, 0, 93, 73
2, 355080, Note_on_c, 0, 93, 0
2, 355080, Note_on_c, 0, 84, 0
2, 355080, Note_on_c, 0, 82, 73
2, 355080, Note_on_c, 0, 91, 73
2, 355200, Note_on_c, 0, 91, 0
2, 355200, Note_on_c, 0, 82, 0
2, 355680, Note_on_c, 0, 58, 73
2, 355800, Note_on_c, 0, 58, 0
2, 355800, Note_on_c, 0, 58, 73
2, 355920, Note_on_c, 0, 58, 0
2, 355920, Note_on_c, 0, 57, 73
2, 356040, Note_on_c, 0, 57, 0
2, 356040, Note_on_c, 0, 55, 73
2, 356160, Note_on_c, 0, 55, 0
2, 356640, Note_on_c, 0, 70, 73
2, 356760, Note_on_c, 0, 70, 0
2, 356760, Note_on_c, 0, 70, 73
2, 356880, Note_on_c, 0, 70, 0
2, 356880, Note_on_c, 0, 69, 73
2, 357000, Note_on_c, 0, 69, 0
2, 357000, Note_on_c, 0, 67, 73
2, 357120, Note_on_c, 0, 67, 0
2, 357120, Note_on_c, 0, 70, 86
2, 357120, Note_on_c, 0, 74, 86
2, 357240, Note_on_c, 0, 74, 0
2, 357240, Note_on_c, 0, 70, 0
2, 357240, Note_on_c, 0, 70, 86
2, 357240, Note_on_c, 0, 74, 86
2, 357360, Note_on_c, 0, 74, 0
2, 357360, Note_on_c, 0, 70, 0
2, 357360, Note_on_c, 0, 69, 86
2, 357360, Note_on_c, 0, 72, 86
2, 357480, Note_on_c, 0, 72, 0
2, 357480, Note_on_c, 0, 69, 0
2, 357480, Note_on_c, 0, 67, 86
2, 357480, Note_on_c, 0, 70, 86
2, 357600, Note_on_c, 0, 70, 0
2, 357600, Note_on_c, 0, 67, 0
2, 357600, Note_on_c, 0, 70, 86
2, 357600, Note_on_c, 0, 74, 86
2, 357720, Note_on_c, 0, 74, 0
2, 357720, Note_on_c, 0, 70, 0
2, 357720, Note_on_c, 0, 70, 86
2, 357720, Note_on_c, 0, 74, 86
2, 357840, Note_on_c, 0, 74, 0
2, 357840, Note_on_c, 0, 70, 0
2, 357840, Note_on_c, 0, 69, 86
2, 357840, Note_on_c, 0, 72, 86
2, 357960, Note_on_c, 0, 72, 0
2, 357960, Note_on_c, 0, 69, 0
2, 357960, Note_on_c, 0, 67, 86
2, 357960, Note_on_c, 0, 70, 86
2, 358080, Note_on_c, 0, 70, 0
2, 358080, Note_on_c, 0, 67, 0
2, 358080, Note_on_c, 0, 69, 86
2, 358080, Note_on_c, 0, 78, 86
2, 358200, Note_on_c, 0, 78, 0
2, 358200, Note_on_c, 0, 69, 0
2, 358200, Note_on_c, 0, 69, 86
2, 358200, Note_on_c, 0, 78, 86
2, 358320, Note_on_c, 0, 78, 0
2, 358320, Note_on_c, 0, 69, 0
2, 358320, Note_on_c, 0, 75, 86
2, 358440, Note_on_c, 0, 75, 0
2, 358440, Note_on_c, 0, 74, 86
2, 358560, Note_on_c, 0, 74, 0
2, 358560, Note_on_c, 0, 67, 86
2, 358560, Note_on_c, 0, 79, 86
2, 358680, Note_on_c, 0, 79, 0
2, 358680, Note_on_c, 0, 67, 0
2, 358680, Note_on_c, 0, 67, 86
2, 358680, Note_on_c, 0, 79, 86
2, 358800, Note_on_c, 0, 79, 0
2, 358800, Note_on_c, 0, 67, 0
2, 358800, Note_on_c, 0, 75, 86
2, 358920, Note_on_c, 0, 75, 0
2, 358920, Note_on_c, 0, 74, 86
2, 359040, Note_on_c, 0, 74, 0
2, 359040, Note_on_c, 0, 78, 86
2, 359040, Note_on_c, 0, 81, 86
2, 359160, Note_on_c, 0, 81, 0
2, 359160, Note_on_c, 0, 78, 0
2, 359160, Note_on_c, 0, 78, 86
2, 359160, Note_on_c, 0, 81, 86
2, 359280, Note_on_c, 0, 81, 0
2, 359280, Note_on_c, 0, 78, 0
2, 359280, Note_on_c, 0, 76, 86
2, 359280, Note_on_c, 0, 79, 86
2, 359400, Note_on_c, 0, 79, 0
2, 359400, Note_on_c, 0, 76, 0
2, 359400, Note_on_c, 0, 74, 86
2, 359400, Note_on_c, 0, 78, 86
2, 359520, Note_on_c, 0, 78, 0
2, 359520, Note_on_c, 0, 74, 0
2, 359520, Note_on_c, 0, 79, 86
2, 359520, Note_on_c, 0, 82, 86
2, 359640, Note_on_c, 0, 82, 0
2, 359640, Note_on_c, 0, 79, 0
2, 359640, Note_on_c, 0, 79, 86
2, 359640, Note_on_c, 0, 82, 86
2, 359760, Note_on_c, 0, 82, 0
2, 359760, Note_on_c, 0, 79, 0
2, 359760, Note_on_c, 0, 78, 86
2, 359760, Note_on_c, 0, 81, 86
2, 359880, Note_on_c, 0, 81, 0
2, 359880, Note_on_c, 0, 78, 0
2, 359880, Note_on_c, 0, 76, 86
2, 359880, Note_on_c, 0, 79, 86
2, 360000, Note_on_c, 0, 79, 0
2, 360000, Note_on_c, 0, 76, 0
2, 360000, Note_on_c, 0, 86, 86
2, 360120, Note_on_c, 0, 86, 0
2, 360120, Note_on_c, 0, 78, 86
2, 360240, Note_on_c, 0, 78, 0
2, 360240, Note_on_c, 0, 86, 86
2, 360360, Note_on_c, 0, 86, 0
2, 360360, Note_on_c, 0, 74, 86
2, 360480, Note_on_c, 0, 74, 0
2, 360480, Note_on_c, 0, 91, 86
2, 360600, Note_on_c, 0, 91, 0
2, 360600, Note_on_c, 0, 86, 86
2, 360720, Note_on_c, 0, 86, 0
2, 360720, Note_on_c, 0, 91, 86
2, 360840, Note_on_c, 0, 91, 0
2, 360840, Note_on_c, 0, 79, 86
2, 360960, Note_on_c, 0, 79, 0
2, 360960, Note_on_c, 0, 93, 86
2, 361080, Note_on_c, 0, 93, 0
2, 361080, Note_on_c, 0, 90, 86
2, 361200, Note_on_c, 0, 90, 0
2, 361200, Note_on_c, 0, 93, 86
2, 361320, Note_on_c, 0, 93, 0
2, 361320, Note_on_c, 0, 81, 86
2, 361440, Note_on_c, 0, 81, 0
2, 361440, Note_on_c, 0, 94, 86
2, 361560, Note_on_c, 0, 94, 0
2, 361560, Note_on_c, 0, 91, 86
2, 361680, Note_on_c, 0, 91, 0
2, 361680, Note_on_c, 0, 94, 86
2, 361800, Note_on_c, 0, 94, 0
2, 361800, Note_on_c, 0, 82, 86
2, 361920, Note_on_c, 0, 82, 0
2, 361920, Note_on_c, 0, 91, 86
2, 362040, Note_on_c, 0, 91, 0
2, 362040, Note_on_c, 0, 86, 86
2, 362160, Note_on_c, 0, 86, 0
2, 362160, Note_on_c, 0, 91, 86
2, 362280, Note_on_c, 0, 91, 0
2, 362280, Note_on_c, 0, 79, 86
2, 362400, Note_on_c, 0, 79, 0
2, 362400, Note_on_c, 0, 86, 86
2, 362520, Note_on_c, 0, 86, 0
2, 362520, Note_on_c, 0, 79, 86
2, 362640, Note_on_c, 0, 79, 0
2, 362640, Note_on_c, 0, 86, 86
2, 362760, Note_on_c, 0, 86, 0
2, 362760, Note_on_c, 0, 74, 86
2, 362880, Note_on_c, 0, 74, 0
2, 362880, Note_on_c, 0, 78, 86
2, 362880, Note_on_c, 0, 81, 86
2, 363000, Note_on_c, 0, 81, 0
2, 363000, Note_on_c, 0, 78, 0
2, 363000, Note_on_c, 0, 74, 86
2, 363120, Note_on_c, 0, 74, 0
2, 363120, Note_on_c, 0, 78, 86
2, 363120, Note_on_c, 0, 81, 86
2, 363240, Note_on_c, 0, 81, 0
2, 363240, Note_on_c, 0, 78, 0
2, 363240, Note_on_c, 0, 69, 86
2, 363360, Note_on_c, 0, 69, 0
2, 363360, Note_on_c, 0, 79, 86
2, 363360, Note_on_c, 0, 82, 86
2, 363480, Note_on_c, 0, 82, 0
2, 363480, Note_on_c, 0, 79, 0
2, 363480, Note_on_c, 0, 74, 86
2, 363600, Note_on_c, 0, 74, 0
2, 363600, Note_on_c, 0, 79, 86
2, 363600, Note_on_c, 0, 82, 86
2, 363720, Note_on_c, 0, 82, 0
2, 363720, Note_on_c, 0, 79, 0
2, 363720, Note_on_c, 0, 67, 86
2, 363840, Note_on_c, 0, 67, 0
2, 363840, Note_on_c, 0, 86, 86
2, 363960, Note_on_c, 0, 86, 0
2, 363960, Note_on_c, 0, 78, 86
2, 364080, Note_on_c, 0, 78, 0
2, 364080, Note_on_c, 0, 86, 86
2, 364200, Note_on_c, 0, 86, 0
2, 364200, Note_on_c, 0, 74, 86
2, 364320, Note_on_c, 0, 74, 0
2, 364320, Note_on_c, 0, 86, 86
2, 364440, Note_on_c, 0, 86, 0
2, 364440, Note_on_c, 0, 79, 86
2, 364560, Note_on_c, 0, 79, 0
2, 364560, Note_on_c, 0, 86, 86
2, 364680, Note_on_c, 0, 86, 0
2, 364680, Note_on_c, 0, 74, 86
2, 364800, Note_on_c, 0, 74, 0
2, 364800, Note_on_c, 0, 79, 86
2, 364920, Note_on_c, 0, 79, 0
2, 364920, Note_on_c, 0, 72, 86
2, 365040, Note_on_c, 0, 72, 0
2, 365040, Note_on_c, 0, 79, 86
2, 365160, Note_on_c, 0, 79, 0
2, 365160, Note_on_c, 0, 67, 86
2, 365280, Note_on_c, 0, 67, 0
2, 365280, Note_on_c, 0, 79, 86
2, 365400, Note_on_c, 0, 79, 0
2, 365400, Note_on_c, 0, 72, 86
2, 365520, Note_on_c, 0, 72, 0
2, 365520, Note_on_c, 0, 79, 86
2, 365640, Note_on_c, 0, 79, 0
2, 365640, Note_on_c, 0, 67, 86
2, 365760, Note_on_c, 0, 67, 0
2, 365760, Note_on_c, 0, 79, 86
2, 365880, Note_on_c, 0, 79, 0
2, 365880, Note_on_c, 0, 70, 86
2, 366000, Note_on_c, 0, 70, 0
2, 366000, Note_on_c, 0, 79, 86
2, 366120, Note_on_c, 0, 79, 0
2, 366120, Note_on_c, 0, 67, 86
2, 366240, Note_on_c, 0, 67, 0
2, 366240, Note_on_c, 0, 81, 86
2, 366360, Note_on_c, 0, 81, 0
2, 366360, Note_on_c, 0, 75, 86
2, 366480, Note_on_c, 0, 75, 0
2, 366480, Note_on_c, 0, 77, 86
2, 366600, Note_on_c, 0, 77, 0
2, 366600, Note_on_c, 0, 69, 86
2, 366720, Note_on_c, 0, 69, 0
2, 366720, Note_on_c, 0, 84, 86
2, 366840, Note_on_c, 0, 84, 0
2, 366840, Note_on_c, 0, 77, 86
2, 366960, Note_on_c, 0, 77, 0
2, 366960, Note_on_c, 0, 84, 86
2, 367080, Note_on_c, 0, 84, 0
2, 367080, Note_on_c, 0, 72, 86
2, 367200, Note_on_c, 0, 72, 0
2, 367200, Note_on_c, 0, 84, 86
2, 367320, Note_on_c, 0, 84, 0
2, 367320, Note_on_c, 0, 77, 86
2, 367440, Note_on_c, 0, 77, 0
2, 367440, Note_on_c, 0, 84, 86
2, 367560, Note_on_c, 0, 84, 0
2, 367560, Note_on_c, 0, 72, 86
2, 367680, Note_on_c, 0, 72, 0
2, 367680, Note_on_c, 0, 89, 86
2, 367800, Note_on_c, 0, 89, 0
2, 367800, Note_on_c, 0, 81, 86
2, 367920, Note_on_c, 0, 81, 0
2, 367920, Note_on_c, 0, 89, 86
2, 368040, Note_on_c, 0, 89, 0
2, 368040, Note_on_c, 0, 77, 86
2, 368160, Note_on_c, 0, 77, 0
2, 368160, Note_on_c, 0, 89, 86
2, 368280, Note_on_c, 0, 89, 0
2, 368280, Note_on_c, 0, 81, 86
2, 368400, Note_on_c, 0, 81, 0
2, 368400, Note_on_c, 0, 89, 86
2, 368520, Note_on_c, 0, 89, 0
2, 368520, Note_on_c, 0, 77, 86
2, 368640, Note_on_c, 0, 77, 0
2, 368640, Note_on_c, 0, 89, 86
2, 368760, Note_on_c, 0, 89, 0
2, 368760, Note_on_c, 0, 84, 86
2, 368880, Note_on_c, 0, 84, 0
2, 368880, Note_on_c, 0, 89, 86
2, 369000, Note_on_c, 0, 89, 0
2, 369000, Note_on_c, 0, 77, 86
2, 369120, Note_on_c, 0, 77, 0
2, 369120, Note_on_c, 0, 89, 86
2, 369240, Note_on_c, 0, 89, 0
2, 369240, Note_on_c, 0, 84, 86
2, 369360, Note_on_c, 0, 84, 0
2, 369360, Note_on_c, 0, 89, 86
2, 369480, Note_on_c, 0, 89, 0
2, 369480, Note_on_c, 0, 77, 86
2, 369600, Note_on_c, 0, 77, 0
2, 369600, Note_on_c, 0, 93, 86
2, 369720, Note_on_c, 0, 93, 0
2, 369720, Note_on_c, 0, 89, 86
2, 369840, Note_on_c, 0, 89, 0
2, 369840, Note_on_c, 0, 93, 86
2, 369960, Note_on_c, 0, 93, 0
2, 369960, Note_on_c, 0, 81, 86
2, 370080, Note_on_c, 0, 81, 0
2, 370080, Note_on_c, 0, 93, 86
2, 370200, Note_on_c, 0, 93, 0
2, 370200, Note_on_c, 0, 89, 86
2, 370320, Note_on_c, 0, 89, 0
2, 370320, Note_on_c, 0, 93, 86
2, 370440, Note_on_c, 0, 93, 0
2, 370440, Note_on_c, 0, 81, 86
2, 370560, Note_on_c, 0, 81, 0
2, 370560, Note_on_c, 0, 84, 86
2, 370680, Note_on_c, 0, 84, 0
2, 370680, Note_on_c, 0, 77, 86
2, 370800, Note_on_c, 0, 77, 0
2, 370800, Note_on_c, 0, 84, 86
2, 370920, Note_on_c, 0, 84, 0
2, 370920, Note_on_c, 0, 72, 86
2, 371040, Note_on_c, 0, 72, 0
2, 371040, Note_on_c, 0, 84, 86
2, 371160, Note_on_c, 0, 84, 0
2, 371160, Note_on_c, 0, 77, 86
2, 371280, Note_on_c, 0, 77, 0
2, 371280, Note_on_c, 0, 84, 86
2, 371400, Note_on_c, 0, 84, 0
2, 371400, Note_on_c, 0, 72, 86
2, 371520, Note_on_c, 0, 72, 0
2, 371520, Note_on_c, 0, 89, 86
2, 371640, Note_on_c, 0, 89, 0
2, 371640, Note_on_c, 0, 81, 86
2, 371760, Note_on_c, 0, 81, 0
2, 371760, Note_on_c, 0, 89, 86
2, 371880, Note_on_c, 0, 89, 0
2, 371880, Note_on_c, 0, 77, 86
2, 372000, Note_on_c, 0, 77, 0
2, 372000, Note_on_c, 0, 89, 86
2, 372120, Note_on_c, 0, 89, 0
2, 372120, Note_on_c, 0, 81, 86
2, 372240, Note_on_c, 0, 81, 0
2, 372240, Note_on_c, 0, 89, 86
2, 372360, Note_on_c, 0, 89, 0
2, 372360, Note_on_c, 0, 77, 86
2, 372480, Note_on_c, 0, 77, 0
2, 372480, Note_on_c, 0, 89, 86
2, 372600, Note_on_c, 0, 89, 0
2, 372600, Note_on_c, 0, 84, 86
2, 372720, Note_on_c, 0, 84, 0
2, 372720, Note_on_c, 0, 89, 86
2, 372840, Note_on_c, 0, 89, 0
2, 372840, Note_on_c, 0, 77, 86
2, 372960, Note_on_c, 0, 77, 0
2, 372960, Note_on_c, 0, 84, 86
2, 373080, Note_on_c, 0, 84, 0
2, 373080, Note_on_c, 0, 77, 86
2, 373200, Note_on_c, 0, 77, 0
2, 373200, Note_on_c, 0, 84, 86
2, 373320, Note_on_c, 0, 84, 0
2, 373320, Note_on_c, 0, 72, 86
2, 373440, Note_on_c, 0, 72, 0
2, 373440, Note_on_c, 0, 69, 86
2, 373560, Note_on_c, 0, 69, 0
2, 373560, Note_on_c, 0, 81, 86
2, 373680, Note_on_c, 0, 81, 0
2, 373680, Note_on_c, 0, 77, 86
2, 373800, Note_on_c, 0, 77, 0
2, 373800, Note_on_c, 0, 81, 86
2, 373920, Note_on_c, 0, 81, 0
2, 373920, Note_on_c, 0, 77, 86
2, 374040, Note_on_c, 0, 77, 0
2, 374040, Note_on_c, 0, 82, 86
2, 374160, Note_on_c, 0, 82, 0
2, 374160, Note_on_c, 0, 77, 86
2, 374280, Note_on_c, 0, 77, 0
2, 374280, Note_on_c, 0, 89, 86
2, 374400, Note_on_c, 0, 89, 0
2, 374400, Note_on_c, 0, 91, 86
2, 374520, Note_on_c, 0, 91, 0
2, 374520, Note_on_c, 0, 86, 86
2, 374640, Note_on_c, 0, 86, 0
2, 374640, Note_on_c, 0, 91, 86
2, 374760, Note_on_c, 0, 91, 0
2, 374760, Note_on_c, 0, 79, 86
2, 374880, Note_on_c, 0, 79, 0
2, 374880, Note_on_c, 0, 86, 86
2, 375000, Note_on_c, 0, 86, 0
2, 375000, Note_on_c, 0, 79, 86
2, 375120, Note_on_c, 0, 79, 0
2, 375120, Note_on_c, 0, 86, 86
2, 375240, Note_on_c, 0, 86, 0
2, 375240, Note_on_c, 0, 74, 86
2, 375360, Note_on_c, 0, 74, 0
2, 375360, Note_on_c, 0, 71, 86
2, 375480, Note_on_c, 0, 71, 0
2, 375480, Note_on_c, 0, 83, 86
2, 375600, Note_on_c, 0, 83, 0
2, 375600, Note_on_c, 0, 79, 86
2, 375720, Note_on_c, 0, 79, 0
2, 375720, Note_on_c, 0, 83, 86
2, 375840, Note_on_c, 0, 83, 0
2, 375840, Note_on_c, 0, 79, 86
2, 375960, Note_on_c, 0, 79, 0
2, 375960, Note_on_c, 0, 84, 86
2, 376080, Note_on_c, 0, 84, 0
2, 376080, Note_on_c, 0, 79, 86
2, 376200, Note_on_c, 0, 79, 0
2, 376200, Note_on_c, 0, 91, 86
2, 376320, Note_on_c, 0, 91, 0
2, 376320, Note_on_c, 0, 92, 86
2, 376440, Note_on_c, 0, 92, 0
2, 376440, Note_on_c, 0, 87, 86
2, 376560, Note_on_c, 0, 87, 0
2, 376560, Note_on_c, 0, 92, 86
2, 376680, Note_on_c, 0, 92, 0
2, 376680, Note_on_c, 0, 80, 86
2, 376800, Note_on_c, 0, 80, 0
2, 376800, Note_on_c, 0, 87, 86
2, 376920, Note_on_c, 0, 87, 0
2, 376920, Note_on_c, 0, 80, 86
2, 377040, Note_on_c, 0, 80, 0
2, 377040, Note_on_c, 0, 87, 86
2, 377160, Note_on_c, 0, 87, 0
2, 377160, Note_on_c, 0, 75, 86
2, 377280, Note_on_c, 0, 75, 0
2, 377280, Note_on_c, 0, 92, 86
2, 377400, Note_on_c, 0, 92, 0
2, 377400, Note_on_c, 0, 84, 86
2, 377520, Note_on_c, 0, 84, 0
2, 377520, Note_on_c, 0, 92, 86
2, 377640, Note_on_c, 0, 92, 0
2, 377640, Note_on_c, 0, 80, 86
2, 377760, Note_on_c, 0, 80, 0
2, 377760, Note_on_c, 0, 92, 86
2, 377880, Note_on_c, 0, 92, 0
2, 377880, Note_on_c, 0, 86, 86
2, 378000, Note_on_c, 0, 86, 0
2, 378000, Note_on_c, 0, 92, 86
2, 378120, Note_on_c, 0, 92, 0
2, 378120, Note_on_c, 0, 80, 86
2, 378240, Note_on_c, 0, 80, 0
2, 378240, Note_on_c, 0, 92, 86
2, 378360, Note_on_c, 0, 92, 0
2, 378360, Note_on_c, 0, 87, 86
2, 378480, Note_on_c, 0, 87, 0
2, 378480, Note_on_c, 0, 92, 86
2, 378600, Note_on_c, 0, 92, 0
2, 378600, Note_on_c, 0, 80, 86
2, 378720, Note_on_c, 0, 80, 0
2, 378720, Note_on_c, 0, 87, 86
2, 378840, Note_on_c, 0, 87, 0
2, 378840, Note_on_c, 0, 80, 86
2, 378960, Note_on_c, 0, 80, 0
2, 378960, Note_on_c, 0, 87, 86
2, 379080, Note_on_c, 0, 87, 0
2, 379080, Note_on_c, 0, 75, 86
2, 379200, Note_on_c, 0, 75, 0
2, 379200, Note_on_c, 0, 92, 86
2, 379320, Note_on_c, 0, 92, 0
2, 379320, Note_on_c, 0, 84, 86
2, 379440, Note_on_c, 0, 84, 0
2, 379440, Note_on_c, 0, 92, 86
2, 379560, Note_on_c, 0, 92, 0
2, 379560, Note_on_c, 0, 80, 86
2, 379680, Note_on_c, 0, 80, 0
2, 379680, Note_on_c, 0, 92, 86
2, 379800, Note_on_c, 0, 92, 0
2, 379800, Note_on_c, 0, 86, 86
2, 379920, Note_on_c, 0, 86, 0
2, 379920, Note_on_c, 0, 92, 86
2, 380040, Note_on_c, 0, 92, 0
2, 380040, Note_on_c, 0, 80, 86
2, 380160, Note_on_c, 0, 80, 0
2, 380160, Note_on_c, 0, 80, 86
2, 380160, Note_on_c, 0, 89, 86
2, 380160, Note_on_c, 0, 92, 86
2, 380400, Note_on_c, 0, 92, 0
2, 380400, Note_on_c, 0, 89, 0
2, 380400, Note_on_c, 0, 80, 0
2, 380400, Note_on_c, 0, 68, 112
2, 380400, Note_on_c, 0, 80, 112
2, 380880, Note_on_c, 0, 80, 0
2, 380880, Note_on_c, 0, 68, 0
2, 380880, Note_on_c, 0, 68, 86
2, 380880, Note_on_c, 0, 80, 86
2, 380960, Note_on_c, 0, 80, 0
2, 380960, Note_on_c, 0, 68, 0
2, 380960, Note_on_c, 0, 68, 86
2, 380960, Note_on_c, 0, 80, 86
2, 381039, Note_on_c, 0, 80, 0
2, 381039, Note_on_c, 0, 68, 0
2, 381039, Note_on_c, 0, 68, 86
2, 381039, Note_on_c, 0, 80, 86
2, 381120, Note_on_c, 0, 80, 0
2, 381120, Note_on_c, 0, 68, 0
2, 381120, Note_on_c, 0, 68, 86
2, 381120, Note_on_c, 0, 80, 86
2, 381360, Note_on_c, 0, 80, 0
2, 381360, Note_on_c, 0, 68, 0
2, 381360, Note_on_c, 0, 68, 86
2, 381360, Note_on_c, 0, 80, 86
2, 381600, Note_on_c, 0, 80, 0
2, 381600, Note_on_c, 0, 68, 0
2, 381600, Note_on_c, 0, 68, 86
2, 381600, Note_on_c, 0, 80, 86
2, 382320, Note_on_c, 0, 80, 0
2, 382320, Note_on_c, 0, 68, 0
2, 382320, Note_on_c, 0, 68, 86
2, 382320, Note_on_c, 0, 80, 86
2, 382400, Note_on_c, 0, 80, 0
2, 382400, Note_on_c, 0, 68, 0
2, 382400, Note_on_c, 0, 68, 86
2, 382400, Note_on_c, 0, 80, 86
2, 382479, Note_on_c, 0, 80, 0
2, 382479, Note_on_c, 0, 68, 0
2, 382479, Note_on_c, 0, 68, 86
2, 382479, Note_on_c, 0, 80, 86
2, 382560, Note_on_c, 0, 80, 0
2, 382560, Note_on_c, 0, 68, 0
2, 382560, Note_on_c, 0, 68, 86
2, 382560, Note_on_c, 0, 80, 86
2, 382800, Note_on_c, 0, 80, 0
2, 382800, Note_on_c, 0, 68, 0
2, 382800, Note_on_c, 0, 68, 86
2, 382800, Note_on_c, 0, 80, 86
2, 383040, Note_on_c, 0, 80, 0
2, 383040, Note_on_c, 0, 68, 0
2, 383040, Note_on_c, 0, 65, 86
2, 383040, Note_on_c, 0, 77, 86
2, 383199, Note_on_c, 0, 77, 0
2, 383199, Note_on_c, 0, 65, 0
2, 383199, Note_on_c, 0, 67, 86
2, 383199, Note_on_c, 0, 79, 86
2, 383439, Note_on_c, 0, 79, 0
2, 383439, Note_on_c, 0, 67, 0
2, 383439, Note_on_c, 0, 68, 86
2, 383439, Note_on_c, 0, 80, 86
2, 383520, Note_on_c, 0, 80, 0
2, 383520, Note_on_c, 0, 68, 0
2, 383520, Note_on_c, 0, 68, 86
2, 383520, Note_on_c, 0, 80, 86
2, 384240, Note_on_c, 0, 80, 0
2, 384240, Note_on_c, 0, 68, 0
2, 384240, Note_on_c, 0, 65, 86
2, 384240, Note_on_c, 0, 77, 86
2, 384480, Note_on_c, 0, 77, 0
2, 384480, Note_on_c, 0, 65, 0
2, 384480, Note_on_c, 0, 65, 86
2, 384480, Note_on_c, 0, 77, 86
2, 384639, Note_on_c, 0, 77, 0
2, 384639, Note_on_c, 0, 65, 0
2, 384639, Note_on_c, 0, 67, 86
2, 384639, Note_on_c, 0, 79, 86
2, 384879, Note_on_c, 0, 79, 0
2, 384879, Note_on_c, 0, 67, 0
2, 384879, Note_on_c, 0, 68, 86
2, 384879, Note_on_c, 0, 80, 86
2, 384960, Note_on_c, 0, 80, 0
2, 384960, Note_on_c, 0, 68, 0
2, 384960, Note_on_c, 0, 68, 86
2, 384960, Note_on_c, 0, 80, 86
2, 385680, Note_on_c, 0, 80, 0
2, 385680, Note_on_c, 0, 68, 0
2, 385680, Note_on_c, 0, 65, 86
2, 385680, Note_on_c, 0, 77, 86
2, 385920, Note_on_c, 0, 77, 0
2, 385920, Note_on_c, 0, 65, 0
2, 385920, Note_on_c, 0, 65, 86
2, 385920, Note_on_c, 0, 77, 86
2, 386079, Note_on_c, 0, 77, 0
2, 386079, Note_on_c, 0, 65, 0
2, 386079, Note_on_c, 0, 67, 86
2, 386079, Note_on_c, 0, 79, 86
2, 386319, Note_on_c, 0, 79, 0
2, 386319, Note_on_c, 0, 67, 0
2, 386319, Note_on_c, 0, 68, 86
2, 386319, Note_on_c, 0, 80, 86
2, 386400, Note_on_c, 0, 80, 0
2, 386400, Note_on_c, 0, 68, 0
2, 386400, Note_on_c, 0, 68, 86
2, 386400, Note_on_c, 0, 80, 86
2, 386640, Note_on_c, 0, 80, 0
2, 386640, Note_on_c, 0, 68, 0
2, 386640, Note_on_c, 0, 68, 86
2, 386640, Note_on_c, 0, 71, 86
2, 386640, Note_on_c, 0, 76, 86
2, 386640, Note_on_c, 0, 80, 86
2, 387120, Note_on_c, 0, 80, 0
2, 387120, Note_on_c, 0, 68, 0
2, 387120, Note_on_c, 0, 71, 0
2, 387120, Note_on_c, 0, 76, 0
2, 387120, Note_on_c, 0, 68, 86
2, 387120, Note_on_c, 0, 71, 86
2, 387120, Note_on_c, 0, 76, 86
2, 387120, Note_on_c, 0, 80, 86
2, 387600, Note_on_c, 0, 80, 0
2, 387600, Note_on_c, 0, 68, 0
2, 387600, Note_on_c, 0, 71, 0
2, 387600, Note_on_c, 0, 76, 0
2, 387600, Note_on_c, 0, 68, 86
2, 387600, Note_on_c, 0, 71, 86
2, 387600, Note_on_c, 0, 76, 86
2, 387600, Note_on_c, 0, 80, 86
2, 388080, Note_on_c, 0, 80, 0
2, 388080, Note_on_c, 0, 68, 0
2, 388080, Note_on_c, 0, 71, 0
2, 388080, Note_on_c, 0, 76, 0
2, 388080, Note_on_c, 0, 68, 86
2, 388080, Note_on_c, 0, 71, 86
2, 388080, Note_on_c, 0, 76, 86
2, 388080, Note_on_c, 0, 80, 86
2, 388560, Note_on_c, 0, 80, 0
2, 388560, Note_on_c, 0, 68, 0
2, 388560, Note_on_c, 0, 71, 0
2, 388560, Note_on_c, 0, 76, 0
2, 388560, Note_on_c, 0, 68, 86
2, 388560, Note_on_c, 0, 71, 86
2, 388560, Note_on_c, 0, 76, 86
2, 388560, Note_on_c, 0, 80, 86
2, 388800, Note_on_c, 0, 80, 0
2, 388800, Note_on_c, 0, 68, 0
2, 388800, Note_on_c, 0, 71, 0
2, 388800, Note_on_c, 0, 76, 0
2, 388800, Note_on_c, 0, 71, 86
2, 388800, Note_on_c, 0, 77, 86
2, 388800, Note_on_c, 0, 80, 86
2, 388800, Note_on_c, 0, 83, 86
2, 389040, Note_on_c, 0, 83, 0
2, 389040, Note_on_c, 0, 71, 0
2, 389040, Note_on_c, 0, 77, 0
2, 389040, Note_on_c, 0, 80, 0
2, 390240, Note_on_c, 0, 68, 86
2, 390240, Note_on_c, 0, 80, 86
2, 390960, Note_on_c, 0, 80, 0
2, 390960, Note_on_c, 0, 68, 0
2, 390960, Note_on_c, 0, 68, 86
2, 390960, Note_on_c, 0, 80, 86
2, 391040, Note_on_c, 0, 80, 0
2, 391040, Note_on_c, 0, 68, 0
2, 391040, Note_on_c, 0, 68, 86
2, 391040, Note_on_c, 0, 80, 86
2, 391119, Note_on_c, 0, 80, 0
2, 391119, Note_on_c, 0, 68, 0
2, 391119, Note_on_c, 0, 68, 86
2, 391119, Note_on_c, 0, 80, 86
2, 391200, Note_on_c, 0, 80, 0
2, 391200, Note_on_c, 0, 68, 0
2, 391200, Note_on_c, 0, 68, 86
2, 391200, Note_on_c, 0, 80, 86
2, 391440, Note_on_c, 0, 80, 0
2, 391440, Note_on_c, 0, 68, 0
2, 391440, Note_on_c, 0, 68, 86
2, 391440, Note_on_c, 0, 80, 86
2, 391680, Note_on_c, 0, 80, 0
2, 391680, Note_on_c, 0, 68, 0
2, 391680, Note_on_c, 0, 71, 86
2, 391680, Note_on_c, 0, 77, 86
2, 391680, Note_on_c, 0, 80, 86
2, 391680, Note_on_c, 0, 83, 86
2, 391920, Note_on_c, 0, 83, 0
2, 391920, Note_on_c, 0, 71, 0
2, 391920, Note_on_c, 0, 77, 0
2, 391920, Note_on_c, 0, 80, 0
2, 393120, Note_on_c, 0, 56, 73
2, 393120, Note_on_c, 0, 68, 73
2, 393840, Note_on_c, 0, 68, 0
2, 393840, Note_on_c, 0, 56, 0
2, 393840, Note_on_c, 0, 56, 73
2, 393840, Note_on_c, 0, 68, 73
2, 393920, Note_on_c, 0, 68, 0
2, 393920, Note_on_c, 0, 56, 0
2, 393920, Note_on_c, 0, 56, 73
2, 393920, Note_on_c, 0, 68, 73
2, 393999, Note_on_c, 0, 68, 0
2, 393999, Note_on_c, 0, 56, 0
2, 393999, Note_on_c, 0, 56, 73
2, 393999, Note_on_c, 0, 68, 73
2, 394080, Note_on_c, 0, 68, 0
2, 394080, Note_on_c, 0, 56, 0
2, 394080, Note_on_c, 0, 56, 73
2, 394080, Note_on_c, 0, 68, 73
2, 394320, Note_on_c, 0, 68, 0
2, 394320, Note_on_c, 0, 56, 0
2, 394320, Note_on_c, 0, 56, 73
2, 394320, Note_on_c, 0, 68, 73
2, 394560, Note_on_c, 0, 68, 0
2, 394560, Note_on_c, 0, 56, 0
2, 394560, Note_on_c, 0, 59, 73
2, 394560, Note_on_c, 0, 64, 73
2, 394560, Note_on_c, 0, 71, 73
2, 396000, Note_on_c, 0, 71, 0
2, 396000, Note_on_c, 0, 64, 0
2, 396000, Note_on_c, 0, 59, 0
2, 396000, Note_on_c, 0, 56, 60
2, 396000, Note_on_c, 0, 68, 60
2, 396720, Note_on_c, 0, 68, 0
2, 396720, Note_on_c, 0, 56, 0
2, 396720, Note_on_c, 0, 56, 60
2, 396720, Note_on_c, 0, 68, 60
2, 396800, Note_on_c, 0, 68, 0
2, 396800, Note_on_c, 0, 56, 0
2, 396800, Note_on_c, 0, 56, 60
2, 396800, Note_on_c, 0, 68, 60
2, 396879, Note_on_c, 0, 68, 0
2, 396879, Note_on_c, 0, 56, 0
2, 396879, Note_on_c, 0, 56, 60
2, 396879, Note_on_c, 0, 68, 60
2, 396960, Note_on_c, 0, 68, 0
2, 396960, Note_on_c, 0, 56, 0
2, 396960, Note_on_c, 0, 56, 60
2, 396960, Note_on_c, 0, 68, 60
2, 397200, Note_on_c, 0, 68, 0
2, 397200, Note_on_c, 0, 56, 0
2, 397200, Note_on_c, 0, 56, 60
2, 397200, Note_on_c, 0, 68, 60
2, 397440, Note_on_c, 0, 68, 0
2, 397440, Note_on_c, 0, 56, 0
2, 397440, Note_on_c, 0, 60, 60
2, 397440, Note_on_c, 0, 63, 60
2, 397440, Note_on_c, 0, 72, 60
2, 398400, Note_on_c, 0, 72, 0
2, 398400, Note_on_c, 0, 63, 0
2, 398400, Note_on_c, 0, 60, 0
2, 398400, Note_on_c, 0, 56, 60
2, 398400, Note_on_c, 0, 68, 60
2, 398880, Note_on_c, 0, 68, 0
2, 398880, Note_on_c, 0, 56, 0
2, 398880, Note_on_c, 0, 60, 47
2, 398880, Note_on_c, 0, 65, 47
2, 398880, Note_on_c, 0, 72, 47
2, 399840, Note_on_c, 0, 72, 0
2, 399840, Note_on_c, 0, 65, 0
2, 399840, Note_on_c, 0, 60, 0
2, 399840, Note_on_c, 0, 56, 47
2, 399840, Note_on_c, 0, 68, 47
2, 400320, Note_on_c, 0, 68, 0
2, 400320, Note_on_c, 0, 56, 0
2, 400320, Note_on_c, 0, 59, 47
2, 400320, Note_on_c, 0, 65, 47
2, 400320, Note_on_c, 0, 71, 47
2, 401280, Note_on_c, 0, 71, 0
2, 401280, Note_on_c, 0, 65, 0
2, 401280, Note_on_c, 0, 59, 0
2, 401280, Note_on_c, 0, 68, 47
2, 401760, Note_on_c, 0, 68, 0
2, 401760, Note_on_c, 0, 65, 47
2, 402240, Note_on_c, 0, 65, 0
2, 402240, Note_on_c, 0, 67, 47
2, 403080, Note_on_c, 0, 67, 0
2, 403080, Note_on_c, 0, 68, 47
2, 403200, Note_on_c, 0, 68, 0
2, 403200, Note_on_c, 0, 68, 47
2, 404160, Note_on_c, 0, 68, 0
2, 404160, Note_on_c, 0, 65, 47
2, 404640, Note_on_c, 0, 65, 0
2, 405120, Note_on_c, 0, 71, 47
2, 405600, Note_on_c, 0, 71, 0
2, 405600, Note_on_c, 0, 68, 47
2, 406080, Note_on_c, 0, 68, 0
2, 406080, Note_on_c, 0, 65, 47
2, 407040, Note_on_c, 0, 65, 0
2, 407040, Note_on_c, 0, 59, 47
2, 407520, Note_on_c, 0, 59, 0
2, 408000, Note_on_c, 0, 56, 47
2, 408480, Note_on_c, 0, 56, 0
2, 408480, Note_on_c, 0, 53, 47
2, 408960, Note_on_c, 0, 53, 0
2, 408960, Note_on_c, 0, 49, 47
2, 411840, Note_on_c, 0, 49, 0
2, 418560, Note_on_c, 0, 58, 47
2, 418560, Note_on_c, 0, 60, 47
2, 418560, Note_on_c, 0, 64, 47
2, 418560, Note_on_c, 0, 67, 47
2, 419040, Note_on_c, 0, 67, 0
2, 419040, Note_on_c, 0, 58, 0
2, 419040, Note_on_c, 0, 60, 0
2, 419040, Note_on_c, 0, 64, 0
2, 419040, Note_on_c, 0, 53, 47
2, 419040, Note_on_c, 0, 58, 47
2, 419040, Note_on_c, 0, 62, 47
2, 419400, Note_on_c, 0, 62, 0
2, 419400, Note_on_c, 0, 58, 0
2, 419400, Note_on_c, 0, 53, 0
2, 419400, Note_on_c, 0, 55, 47
2, 419400, Note_on_c, 0, 58, 47
2, 419400, Note_on_c, 0, 60, 47
2, 419400, Note_on_c, 0, 65, 47
2, 419520, Note_on_c, 0, 65, 0
2, 419520, Note_on_c, 0, 55, 0
2, 419520, Note_on_c, 0, 58, 0
2, 419520, Note_on_c, 0, 60, 0
2, 419520, Note_on_c, 0, 55, 47
2, 419520, Note_on_c, 0, 58, 47
2, 419520, Note_on_c, 0, 60, 47
2, 419520, Note_on_c, 0, 65, 47
2, 419760, Note_on_c, 0, 65, 0
2, 419760, Note_on_c, 0, 55, 0
2, 419760, Note_on_c, 0, 58, 0
2, 419760, Note_on_c, 0, 60, 0
2, 419760, Note_on_c, 0, 55, 47
2, 419760, Note_on_c, 0, 58, 47
2, 419760, Note_on_c, 0, 60, 47
2, 419760, Note_on_c, 0, 64, 47
2, 420000, Note_on_c, 0, 64, 0
2, 420000, Note_on_c, 0, 55, 0
2, 420000, Note_on_c, 0, 58, 0
2, 420000, Note_on_c, 0, 60, 0
2, 420000, Note_on_c, 0, 53, 47
2, 420000, Note_on_c, 0, 56, 47
2, 420000, Note_on_c, 0, 59, 47
2, 420000, Note_on_c, 0, 62, 47
2, 420480, Note_on_c, 0, 62, 0
2, 420480, Note_on_c, 0, 53, 0
2, 420480, Note_on_c, 0, 56, 0
2, 420480, Note_on_c, 0, 59, 0
2, 420480, Note_on_c, 0, 53, 47
2, 420480, Note_on_c, 0, 57, 47
2, 420480, Note_on_c, 0, 60, 47
2, 420960, Note_on_c, 0, 60, 0
2, 420960, Note_on_c, 0, 57, 0
2, 420960, Note_on_c, 0, 53, 0
2, 420960, Note_on_c, 0, 53, 47
2, 420960, Note_on_c, 0, 57, 47
2, 420960, Note_on_c, 0, 62, 47
2, 421320, Note_on_c, 0, 62, 0
2, 421320, Note_on_c, 0, 57, 0
2, 421320, Note_on_c, 0, 53, 0
2, 421320, Note_on_c, 0, 50, 47
2, 421320, Note_on_c, 0, 53, 47
2, 421320, Note_on_c, 0, 57, 47
2, 421440, Note_on_c, 0, 57, 0
2, 421440, Note_on_c, 0, 53, 0
2, 421440, Note_on_c, 0, 50, 0
2, 421440, Note_on_c, 0, 50, 47
2, 421440, Note_on_c, 0, 53, 47
2, 421440, Note_on_c, 0, 57, 47
2, 421680, Note_on_c, 0, 57, 0
2, 421680, Note_on_c, 0, 53, 0
2, 421680, Note_on_c, 0, 50, 0
2, 421680, Note_on_c, 0, 50, 47
2, 421680, Note_on_c, 0, 53, 47
2, 421680, Note_on_c, 0, 58, 47
2, 421920, Note_on_c, 0, 58, 0
2, 421920, Note_on_c, 0, 53, 0
2, 421920, Note_on_c, 0, 50, 0
2, 421920, Note_on_c, 0, 53, 47
2, 421920, Note_on_c, 0, 57, 47
2, 421920, Note_on_c, 0, 60, 47
2, 422400, Note_on_c, 0, 60, 0
2, 422400, Note_on_c, 0, 57, 0
2, 422400, Note_on_c, 0, 53, 0
2, 422400, Note_on_c, 0, 62, 73
2, 422400, Note_on_c, 0, 66, 73
2, 422400, Note_on_c, 0, 69, 73
2, 422400, Note_on_c, 0, 74, 73
2, 422880, Note_on_c, 0, 74, 0
2, 422880, Note_on_c, 0, 62, 0
2, 422880, Note_on_c, 0, 66, 0
2, 422880, Note_on_c, 0, 69, 0
2, 422880, Note_on_c, 0, 58, 47
2, 422880, Note_on_c, 0, 67, 47
2, 422880, Note_on_c, 0, 70, 47
2, 423240, Note_on_c, 0, 70, 0
2, 423240, Note_on_c, 0, 67, 0
2, 423240, Note_on_c, 0, 58, 0
2, 423240, Note_on_c, 0, 60, 47
2, 423240, Note_on_c, 0, 64, 47
2, 423240, Note_on_c, 0, 67, 47
2, 423240, Note_on_c, 0, 72, 47
2, 423360, Note_on_c, 0, 72, 0
2, 423360, Note_on_c, 0, 60, 0
2, 423360, Note_on_c, 0, 64, 0
2, 423360, Note_on_c, 0, 67, 0
2, 423360, Note_on_c, 0, 60, 47
2, 423360, Note_on_c, 0, 64, 47
2, 423360, Note_on_c, 0, 67, 47
2, 423360, Note_on_c, 0, 72, 47
2, 423600, Note_on_c, 0, 72, 0
2, 423600, Note_on_c, 0, 60, 0
2, 423600, Note_on_c, 0, 64, 0
2, 423600, Note_on_c, 0, 67, 0
2, 423600, Note_on_c, 0, 65, 47
2, 423600, Note_on_c, 0, 69, 47
2, 423840, Note_on_c, 0, 69, 0
2, 423840, Note_on_c, 0, 65, 0
2, 423840, Note_on_c, 0, 62, 47
2, 423840, Note_on_c, 0, 65, 47
2, 423840, Note_on_c, 0, 70, 47
2, 424080, Note_on_c, 0, 70, 0
2, 424080, Note_on_c, 0, 65, 0
2, 424080, Note_on_c, 0, 62, 0
2, 424080, Note_on_c, 0, 60, 47
2, 424080, Note_on_c, 0, 65, 47
2, 424080, Note_on_c, 0, 69, 47
2, 424320, Note_on_c, 0, 69, 0
2, 424320, Note_on_c, 0, 65, 0
2, 424320, Note_on_c, 0, 60, 0
2, 424320, Note_on_c, 0, 74, 86
2, 424320, Note_on_c, 0, 78, 86
2, 424320, Note_on_c, 0, 81, 86
2, 424320, Note_on_c, 0, 86, 86
2, 424800, Note_on_c, 0, 86, 0
2, 424800, Note_on_c, 0, 74, 0
2, 424800, Note_on_c, 0, 78, 0
2, 424800, Note_on_c, 0, 81, 0
2, 424800, Note_on_c, 0, 70, 60
2, 424800, Note_on_c, 0, 79, 60
2, 424800, Note_on_c, 0, 82, 60
2, 425160, Note_on_c, 0, 82, 0
2, 425160, Note_on_c, 0, 79, 0
2, 425160, Note_on_c, 0, 70, 0
2, 425160, Note_on_c, 0, 72, 60
2, 425160, Note_on_c, 0, 76, 60
2, 425160, Note_on_c, 0, 79, 60
2, 425160, Note_on_c, 0, 84, 60
2, 425280, Note_on_c, 0, 84, 0
2, 425280, Note_on_c, 0, 72, 0
2, 425280, Note_on_c, 0, 76, 0
2, 425280, Note_on_c, 0, 79, 0
2, 425280, Note_on_c, 0, 72, 60
2, 425280, Note_on_c, 0, 76, 60
2, 425280, Note_on_c, 0, 79, 60
2, 425280, Note_on_c, 0, 84, 60
2, 425520, Note_on_c, 0, 84, 0
2, 425520, Note_on_c, 0, 72, 0
2, 425520, Note_on_c, 0, 76, 0
2, 425520, Note_on_c, 0, 79, 0
2, 425520, Note_on_c, 0, 69, 60
2, 425520, Note_on_c, 0, 77, 60
2, 425520, Note_on_c, 0, 81, 60
2, 425760, Note_on_c, 0, 81, 0
2, 425760, Note_on_c, 0, 77, 0
2, 425760, Note_on_c, 0, 69, 0
2, 425760, Note_on_c, 0, 70, 60
2, 425760, Note_on_c, 0, 74, 60
2, 425760, Note_on_c, 0, 77, 60
2, 425760, Note_on_c, 0, 82, 60
2, 426000, Note_on_c, 0, 82, 0
2, 426000, Note_on_c, 0, 70, 0
2, 426000, Note_on_c, 0, 74, 0
2, 426000, Note_on_c, 0, 77, 0
2, 426000, Note_on_c, 0, 69, 60
2, 426000, Note_on_c, 0, 72, 60
2, 426000, Note_on_c, 0, 77, 60
2, 426000, Note_on_c, 0, 81, 60
2, 426240, Note_on_c, 0, 81, 0
2, 426240, Note_on_c, 0, 69, 0
2, 426240, Note_on_c, 0, 72, 0
2, 426240, Note_on_c, 0, 77, 0
2, 426240, Note_on_c, 0, 57, 60
2, 426240, Note_on_c, 0, 62, 60
2, 426240, Note_on_c, 0, 66, 60
2, 426240, Note_on_c, 0, 69, 60
2, 426720, Note_on_c, 0, 69, 0
2, 426720, Note_on_c, 0, 57, 0
2, 426720, Note_on_c, 0, 62, 0
2, 426720, Note_on_c, 0, 66, 0
2, 426720, Note_on_c, 0, 55, 60
2, 426720, Note_on_c, 0, 58, 60
2, 426720, Note_on_c, 0, 63, 60
2, 427080, Note_on_c, 0, 63, 0
2, 427080, Note_on_c, 0, 58, 0
2, 427080, Note_on_c, 0, 55, 0
2, 427080, Note_on_c, 0, 57, 60
2, 427080, Note_on_c, 0, 60, 60
2, 427080, Note_on_c, 0, 62, 60
2, 427080, Note_on_c, 0, 67, 60
2, 427200, Note_on_c, 0, 67, 0
2, 427200, Note_on_c, 0, 57, 0
2, 427200, Note_on_c, 0, 60, 0
2, 427200, Note_on_c, 0, 62, 0
2, 427200, Note_on_c, 0, 57, 60
2, 427200, Note_on_c, 0, 60, 60
2, 427200, Note_on_c, 0, 62, 60
2, 427200, Note_on_c, 0, 67, 60
2, 427440, Note_on_c, 0, 67, 0
2, 427440, Note_on_c, 0, 57, 0
2, 427440, Note_on_c, 0, 60, 0
2, 427440, Note_on_c, 0, 62, 0
2, 427440, Note_on_c, 0, 57, 60
2, 427440, Note_on_c, 0, 60, 60
2, 427440, Note_on_c, 0, 62, 60
2, 427440, Note_on_c, 0, 66, 60
2, 427680, Note_on_c, 0, 66, 0
2, 427680, Note_on_c, 0, 57, 0
2, 427680, Note_on_c, 0, 60, 0
2, 427680, Note_on_c, 0, 62, 0
2, 427680, Note_on_c, 0, 54, 60
2, 427680, Note_on_c, 0, 57, 60
2, 427680, Note_on_c, 0, 60, 60
2, 427680, Note_on_c, 0, 63, 60
2, 428160, Note_on_c, 0, 63, 0
2, 428160, Note_on_c, 0, 54, 0
2, 428160, Note_on_c, 0, 57, 0
2, 428160, Note_on_c, 0, 60, 0
2, 428160, Note_on_c, 0, 55, 60
2, 428160, Note_on_c, 0, 58, 60
2, 428160, Note_on_c, 0, 62, 60
2, 428640, Note_on_c, 0, 62, 0
2, 428640, Note_on_c, 0, 58, 0
2, 428640, Note_on_c, 0, 55, 0
2, 428640, Note_on_c, 0, 55, 60
2, 428640, Note_on_c, 0, 58, 60
2, 428640, Note_on_c, 0, 63, 60
2, 429000, Note_on_c, 0, 63, 0
2, 429000, Note_on_c, 0, 58, 0
2, 429000, Note_on_c, 0, 55, 0
2, 429000, Note_on_c, 0, 51, 60
2, 429000, Note_on_c, 0, 55, 60
2, 429000, Note_on_c, 0, 58, 60
2, 429120, Note_on_c, 0, 58, 0
2, 429120, Note_on_c, 0, 55, 0
2, 429120, Note_on_c, 0, 51, 0
2, 429120, Note_on_c, 0, 51, 60
2, 429120, Note_on_c, 0, 55, 60
2, 429120, Note_on_c, 0, 58, 60
2, 429360, Note_on_c, 0, 58, 0
2, 429360, Note_on_c, 0, 55, 0
2, 429360, Note_on_c, 0, 51, 0
2, 429360, Note_on_c, 0, 51, 60
2, 429360, Note_on_c, 0, 55, 60
2, 429360, Note_on_c, 0, 57, 60
2, 429360, Note_on_c, 0, 60, 60
2, 429600, Note_on_c, 0, 60, 0
2, 429600, Note_on_c, 0, 51, 0
2, 429600, Note_on_c, 0, 55, 0
2, 429600, Note_on_c, 0, 57, 0
2, 429600, Note_on_c, 0, 50, 60
2, 429600, Note_on_c, 0, 55, 60
2, 429600, Note_on_c, 0, 58, 60
2, 429600, Note_on_c, 0, 62, 60
2, 430080, Note_on_c, 0, 62, 0
2, 430080, Note_on_c, 0, 50, 0
2, 430080, Note_on_c, 0, 55, 0
2, 430080, Note_on_c, 0, 58, 0
2, 430080, Note_on_c, 0, 67, 86
2, 430080, Note_on_c, 0, 70, 86
2, 430080, Note_on_c, 0, 74, 86
2, 430080, Note_on_c, 0, 79, 86
2, 430560, Note_on_c, 0, 79, 0
2, 430560, Note_on_c, 0, 67, 0
2, 430560, Note_on_c, 0, 70, 0
2, 430560, Note_on_c, 0, 74, 0
2, 430560, Note_on_c, 0, 64, 60
2, 430560, Note_on_c, 0, 72, 60
2, 430560, Note_on_c, 0, 76, 60
2, 430920, Note_on_c, 0, 76, 0
2, 430920, Note_on_c, 0, 72, 0
2, 430920, Note_on_c, 0, 64, 0
2, 430920, Note_on_c, 0, 65, 60
2, 430920, Note_on_c, 0, 69, 60
2, 430920, Note_on_c, 0, 72, 60
2, 430920, Note_on_c, 0, 77, 60
2, 431040, Note_on_c, 0, 77, 0
2, 431040, Note_on_c, 0, 65, 0
2, 431040, Note_on_c, 0, 69, 0
2, 431040, Note_on_c, 0, 72, 0
2, 431040, Note_on_c, 0, 65, 60
2, 431040, Note_on_c, 0, 69, 60
2, 431040, Note_on_c, 0, 72, 60
2, 431040, Note_on_c, 0, 77, 60
2, 431280, Note_on_c, 0, 77, 0
2, 431280, Note_on_c, 0, 65, 0
2, 431280, Note_on_c, 0, 69, 0
2, 431280, Note_on_c, 0, 72, 0
2, 431280, Note_on_c, 0, 62, 60
2, 431280, Note_on_c, 0, 70, 60
2, 431280, Note_on_c, 0, 74, 60
2, 431520, Note_on_c, 0, 74, 0
2, 431520, Note_on_c, 0, 70, 0
2, 431520, Note_on_c, 0, 62, 0
2, 431520, Note_on_c, 0, 64, 60
2, 431520, Note_on_c, 0, 67, 60
2, 431520, Note_on_c, 0, 70, 60
2, 431520, Note_on_c, 0, 76, 60
2, 431760, Note_on_c, 0, 76, 0
2, 431760, Note_on_c, 0, 64, 0
2, 431760, Note_on_c, 0, 67, 0
2, 431760, Note_on_c, 0, 70, 0
2, 431760, Note_on_c, 0, 60, 60
2, 431760, Note_on_c, 0, 69, 60
2, 431760, Note_on_c, 0, 72, 60
2, 432000, Note_on_c, 0, 72, 0
2, 432000, Note_on_c, 0, 69, 0
2, 432000, Note_on_c, 0, 60, 0
2, 432000, Note_on_c, 0, 79, 86
2, 432000, Note_on_c, 0, 82, 86
2, 432000, Note_on_c, 0, 86, 86
2, 432000, Note_on_c, 0, 91, 86
2, 432480, Note_on_c, 0, 91, 0
2, 432480, Note_on_c, 0, 79, 0
2, 432480, Note_on_c, 0, 82, 0
2, 432480, Note_on_c, 0, 86, 0
2, 432480, Note_on_c, 0, 76, 60
2, 432480, Note_on_c, 0, 84, 60
2, 432480, Note_on_c, 0, 88, 60
2, 432840, Note_on_c, 0, 88, 0
2, 432840, Note_on_c, 0, 84, 0
2, 432840, Note_on_c, 0, 76, 0
2, 432840, Note_on_c, 0, 77, 60
2, 432840, Note_on_c, 0, 81, 60
2, 432840, Note_on_c, 0, 84, 60
2, 432840, Note_on_c, 0, 89, 60
2, 432960, Note_on_c, 0, 89, 0
2, 432960, Note_on_c, 0, 77, 0
2, 432960, Note_on_c, 0, 81, 0
2, 432960, Note_on_c, 0, 84, 0
2, 432960, Note_on_c, 0, 77, 60
2, 432960, Note_on_c, 0, 81, 60
2, 432960, Note_on_c, 0, 84, 60
2, 432960, Note_on_c, 0, 89, 60
2, 433200, Note_on_c, 0, 89, 0
2, 433200, Note_on_c, 0, 77, 0
2, 433200, Note_on_c, 0, 81, 0
2, 433200, Note_on_c, 0, 84, 0
2, 433200, Note_on_c, 0, 74, 60
2, 433200, Note_on_c, 0, 82, 60
2, 433200, Note_on_c, 0, 86, 60
2, 433440, Note_on_c, 0, 86, 0
2, 433440, Note_on_c, 0, 82, 0
2, 433440, Note_on_c, 0, 74, 0
2, 433440, Note_on_c, 0, 76, 60
2, 433440, Note_on_c, 0, 79, 60
2, 433440, Note_on_c, 0, 82, 60
2, 433440, Note_on_c, 0, 88, 60
2, 433680, Note_on_c, 0, 88, 0
2, 433680, Note_on_c, 0, 76, 0
2, 433680, Note_on_c, 0, 79, 0
2, 433680, Note_on_c, 0, 82, 0
2, 433680, Note_on_c, 0, 72, 60
2, 433680, Note_on_c, 0, 81, 60
2, 433680, Note_on_c, 0, 84, 60
2, 433920, Note_on_c, 0, 84, 0
2, 433920, Note_on_c, 0, 81, 0
2, 433920, Note_on_c, 0, 72, 0
2, 433920, Note_on_c, 0, 69, 86
2, 433920, Note_on_c, 0, 72, 86
2, 433920, Note_on_c, 0, 76, 86
2, 433920, Note_on_c, 0, 81, 86
2, 434400, Note_on_c, 0, 81, 0
2, 434400, Note_on_c, 0, 69, 0
2, 434400, Note_on_c, 0, 72, 0
2, 434400, Note_on_c, 0, 76, 0
2, 434400, Note_on_c, 0, 65, 60
2, 434400, Note_on_c, 0, 69, 60
2, 434400, Note_on_c, 0, 72, 60
2, 434400, Note_on_c, 0, 74, 60
2, 434400, Note_on_c, 0, 77, 60
2, 434760, Note_on_c, 0, 77, 0
2, 434760, Note_on_c, 0, 72, 0
2, 434760, Note_on_c, 0, 65, 0
2, 434760, Note_on_c, 0, 69, 0
2, 434760, Note_on_c, 0, 74, 0
2, 434760, Note_on_c, 0, 67, 60
2, 434760, Note_on_c, 0, 70, 60
2, 434760, Note_on_c, 0, 74, 60
2, 434760, Note_on_c, 0, 79, 60
2, 434880, Note_on_c, 0, 79, 0
2, 434880, Note_on_c, 0, 67, 0
2, 434880, Note_on_c, 0, 70, 0
2, 434880, Note_on_c, 0, 74, 0
2, 434880, Note_on_c, 0, 67, 60
2, 434880, Note_on_c, 0, 70, 60
2, 434880, Note_on_c, 0, 74, 60
2, 434880, Note_on_c, 0, 79, 60
2, 435120, Note_on_c, 0, 79, 0
2, 435120, Note_on_c, 0, 67, 0
2, 435120, Note_on_c, 0, 70, 0
2, 435120, Note_on_c, 0, 74, 0
2, 435120, Note_on_c, 0, 64, 60
2, 435120, Note_on_c, 0, 69, 60
2, 435120, Note_on_c, 0, 72, 60
2, 435120, Note_on_c, 0, 76, 60
2, 435360, Note_on_c, 0, 76, 0
2, 435360, Note_on_c, 0, 64, 0
2, 435360, Note_on_c, 0, 69, 0
2, 435360, Note_on_c, 0, 72, 0
2, 435360, Note_on_c, 0, 65, 60
2, 435360, Note_on_c, 0, 69, 60
2, 435360, Note_on_c, 0, 77, 60
2, 435600, Note_on_c, 0, 77, 0
2, 435600, Note_on_c, 0, 69, 0
2, 435600, Note_on_c, 0, 65, 0
2, 435600, Note_on_c, 0, 65, 60
2, 435600, Note_on_c, 0, 69, 60
2, 435600, Note_on_c, 0, 72, 60
2, 435840, Note_on_c, 0, 72, 0
2, 435840, Note_on_c, 0, 69, 0
2, 435840, Note_on_c, 0, 65, 0
2, 435840, Note_on_c, 0, 81, 86
2, 435840, Note_on_c, 0, 84, 86
2, 435840, Note_on_c, 0, 88, 86
2, 435840, Note_on_c, 0, 93, 86
2, 436320, Note_on_c, 0, 93, 0
2, 436320, Note_on_c, 0, 81, 0
2, 436320, Note_on_c, 0, 84, 0
2, 436320, Note_on_c, 0, 88, 0
2, 436320, Note_on_c, 0, 77, 60
2, 436320, Note_on_c, 0, 86, 60
2, 436320, Note_on_c, 0, 89, 60
2, 436680, Note_on_c, 0, 89, 0
2, 436680, Note_on_c, 0, 86, 0
2, 436680, Note_on_c, 0, 77, 0
2, 436680, Note_on_c, 0, 79, 60
2, 436680, Note_on_c, 0, 82, 60
2, 436680, Note_on_c, 0, 86, 60
2, 436680, Note_on_c, 0, 91, 60
2, 436800, Note_on_c, 0, 91, 0
2, 436800, Note_on_c, 0, 79, 0
2, 436800, Note_on_c, 0, 82, 0
2, 436800, Note_on_c, 0, 86, 0
2, 436800, Note_on_c, 0, 79, 60
2, 436800, Note_on_c, 0, 82, 60
2, 436800, Note_on_c, 0, 86, 60
2, 436800, Note_on_c, 0, 91, 60
2, 437040, Note_on_c, 0, 91, 0
2, 437040, Note_on_c, 0, 79, 0
2, 437040, Note_on_c, 0, 82, 0
2, 437040, Note_on_c, 0, 86, 0
2, 437040, Note_on_c, 0, 76, 60
2, 437040, Note_on_c, 0, 84, 60
2, 437040, Note_on_c, 0, 88, 60
2, 437280, Note_on_c, 0, 88, 0
2, 437280, Note_on_c, 0, 84, 0
2, 437280, Note_on_c, 0, 76, 0
2, 437280, Note_on_c, 0, 77, 60
2, 437280, Note_on_c, 0, 81, 60
2, 437280, Note_on_c, 0, 84, 60
2, 437280, Note_on_c, 0, 89, 60
2, 437520, Note_on_c, 0, 89, 0
2, 437520, Note_on_c, 0, 77, 0
2, 437520, Note_on_c, 0, 81, 0
2, 437520, Note_on_c, 0, 84, 0
2, 437520, Note_on_c, 0, 74, 60
2, 437520, Note_on_c, 0, 82, 60
2, 437520, Note_on_c, 0, 86, 60
2, 437760, Note_on_c, 0, 86, 0
2, 437760, Note_on_c, 0, 82, 0
2, 437760, Note_on_c, 0, 74, 0
2, 437760, Note_on_c, 0, 70, 86
2, 437760, Note_on_c, 0, 74, 86
2, 437760, Note_on_c, 0, 77, 86
2, 437760, Note_on_c, 0, 82, 86
2, 438240, Note_on_c, 0, 82, 0
2, 438240, Note_on_c, 0, 70, 0
2, 438240, Note_on_c, 0, 74, 0
2, 438240, Note_on_c, 0, 77, 0
2, 438240, Note_on_c, 0, 67, 60
2, 438240, Note_on_c, 0, 70, 60
2, 438240, Note_on_c, 0, 76, 60
2, 438240, Note_on_c, 0, 79, 60
2, 438600, Note_on_c, 0, 79, 0
2, 438600, Note_on_c, 0, 67, 0
2, 438600, Note_on_c, 0, 70, 0
2, 438600, Note_on_c, 0, 76, 0
2, 438600, Note_on_c, 0, 69, 60
2, 438600, Note_on_c, 0, 76, 60
2, 438600, Note_on_c, 0, 81, 60
2, 438720, Note_on_c, 0, 81, 0
2, 438720, Note_on_c, 0, 76, 0
2, 438720, Note_on_c, 0, 69, 0
2, 438720, Note_on_c, 0, 69, 60
2, 438720, Note_on_c, 0, 76, 60
2, 438720, Note_on_c, 0, 81, 60
2, 438960, Note_on_c, 0, 81, 0
2, 438960, Note_on_c, 0, 76, 0
2, 438960, Note_on_c, 0, 69, 0
2, 438960, Note_on_c, 0, 65, 60
2, 438960, Note_on_c, 0, 70, 60
2, 438960, Note_on_c, 0, 74, 60
2, 438960, Note_on_c, 0, 77, 60
2, 439200, Note_on_c, 0, 77, 0
2, 439200, Note_on_c, 0, 65, 0
2, 439200, Note_on_c, 0, 70, 0
2, 439200, Note_on_c, 0, 74, 0
2, 439200, Note_on_c, 0, 67, 60
2, 439200, Note_on_c, 0, 70, 60
2, 439200, Note_on_c, 0, 74, 60
2, 439200, Note_on_c, 0, 79, 60
2, 439440, Note_on_c, 0, 79, 0
2, 439440, Note_on_c, 0, 67, 0
2, 439440, Note_on_c, 0, 70, 0
2, 439440, Note_on_c, 0, 74, 0
2, 439440, Note_on_c, 0, 67, 60
2, 439440, Note_on_c, 0, 70, 60
2, 439440, Note_on_c, 0, 74, 60
2, 439680, Note_on_c, 0, 74, 0
2, 439680, Note_on_c, 0, 70, 0
2, 439680, Note_on_c, 0, 67, 0
2, 439680, Note_on_c, 0, 82, 86
2, 439680, Note_on_c, 0, 86, 86
2, 439680, Note_on_c, 0, 89, 86
2, 439680, Note_on_c, 0, 94, 86
2, 440160, Note_on_c, 0, 94, 0
2, 440160, Note_on_c, 0, 82, 0
2, 440160, Note_on_c, 0, 86, 0
2, 440160, Note_on_c, 0, 89, 0
2, 440160, Note_on_c, 0, 79, 60
2, 440160, Note_on_c, 0, 82, 60
2, 440160, Note_on_c, 0, 88, 60
2, 440160, Note_on_c, 0, 91, 60
2, 440520, Note_on_c, 0, 91, 0
2, 440520, Note_on_c, 0, 79, 0
2, 440520, Note_on_c, 0, 82, 0
2, 440520, Note_on_c, 0, 88, 0
2, 440520, Note_on_c, 0, 81, 60
2, 440520, Note_on_c, 0, 84, 60
2, 440520, Note_on_c, 0, 88, 60
2, 440520, Note_on_c, 0, 93, 60
2, 440640, Note_on_c, 0, 93, 0
2, 440640, Note_on_c, 0, 81, 0
2, 440640, Note_on_c, 0, 84, 0
2, 440640, Note_on_c, 0, 88, 0
2, 440640, Note_on_c, 0, 81, 60
2, 440640, Note_on_c, 0, 84, 60
2, 440640, Note_on_c, 0, 88, 60
2, 440640, Note_on_c, 0, 93, 60
2, 440880, Note_on_c, 0, 93, 0
2, 440880, Note_on_c, 0, 81, 0
2, 440880, Note_on_c, 0, 84, 0
2, 440880, Note_on_c, 0, 88, 0
2, 440880, Note_on_c, 0, 77, 60
2, 440880, Note_on_c, 0, 86, 60
2, 440880, Note_on_c, 0, 89, 60
2, 441120, Note_on_c, 0, 89, 0
2, 441120, Note_on_c, 0, 86, 0
2, 441120, Note_on_c, 0, 77, 0
2, 441120, Note_on_c, 0, 79, 60
2, 441120, Note_on_c, 0, 82, 60
2, 441120, Note_on_c, 0, 86, 60
2, 441120, Note_on_c, 0, 91, 60
2, 441360, Note_on_c, 0, 91, 0
2, 441360, Note_on_c, 0, 79, 0
2, 441360, Note_on_c, 0, 82, 0
2, 441360, Note_on_c, 0, 86, 0
2, 441360, Note_on_c, 0, 76, 60
2, 441360, Note_on_c, 0, 84, 60
2, 441360, Note_on_c, 0, 88, 60
2, 441600, Note_on_c, 0, 88, 0
2, 441600, Note_on_c, 0, 84, 0
2, 441600, Note_on_c, 0, 76, 0
2, 441600, Note_on_c, 0, 64, 60
2, 441600, Note_on_c, 0, 69, 60
2, 441600, Note_on_c, 0, 72, 60
2, 441840, Note_on_c, 0, 72, 0
2, 441840, Note_on_c, 0, 69, 0
2, 441840, Note_on_c, 0, 64, 0
2, 441840, Note_on_c, 0, 62, 60
2, 441840, Note_on_c, 0, 65, 60
2, 441840, Note_on_c, 0, 69, 60
2, 442080, Note_on_c, 0, 69, 0
2, 442080, Note_on_c, 0, 65, 0
2, 442080, Note_on_c, 0, 62, 0
2, 442080, Note_on_c, 0, 62, 60
2, 442080, Note_on_c, 0, 67, 60
2, 442080, Note_on_c, 0, 70, 60
2, 442320, Note_on_c, 0, 70, 0
2, 442320, Note_on_c, 0, 67, 0
2, 442320, Note_on_c, 0, 62, 0
2, 442320, Note_on_c, 0, 60, 60
2, 442320, Note_on_c, 0, 64, 60
2, 442320, Note_on_c, 0, 67, 60
2, 442560, Note_on_c, 0, 67, 0
2, 442560, Note_on_c, 0, 64, 0
2, 442560, Note_on_c, 0, 60, 0
2, 442560, Note_on_c, 0, 76, 60
2, 442560, Note_on_c, 0, 81, 60
2, 442560, Note_on_c, 0, 84, 60
2, 442800, Note_on_c, 0, 84, 0
2, 442800, Note_on_c, 0, 81, 0
2, 442800, Note_on_c, 0, 76, 0
2, 442800, Note_on_c, 0, 74, 60
2, 442800, Note_on_c, 0, 77, 60
2, 442800, Note_on_c, 0, 81, 60
2, 443040, Note_on_c, 0, 81, 0
2, 443040, Note_on_c, 0, 77, 0
2, 443040, Note_on_c, 0, 74, 0
2, 443040, Note_on_c, 0, 74, 60
2, 443040, Note_on_c, 0, 79, 60
2, 443040, Note_on_c, 0, 82, 60
2, 443280, Note_on_c, 0, 82, 0
2, 443280, Note_on_c, 0, 79, 0
2, 443280, Note_on_c, 0, 74, 0
2, 443280, Note_on_c, 0, 72, 60
2, 443280, Note_on_c, 0, 76, 60
2, 443280, Note_on_c, 0, 79, 60
2, 443520, Note_on_c, 0, 79, 0
2, 443520, Note_on_c, 0, 76, 0
2, 443520, Note_on_c, 0, 72, 0
2, 443520, Note_on_c, 0, 65, 60
2, 443520, Note_on_c, 0, 70, 60
2, 443520, Note_on_c, 0, 74, 60
2, 443760, Note_on_c, 0, 74, 0
2, 443760, Note_on_c, 0, 70, 0
2, 443760, Note_on_c, 0, 65, 0
2, 443760, Note_on_c, 0, 64, 60
2, 443760, Note_on_c, 0, 67, 60
2, 443760, Note_on_c, 0, 70, 60
2, 444000, Note_on_c, 0, 70, 0
2, 444000, Note_on_c, 0, 67, 0
2, 444000, Note_on_c, 0, 64, 0
2, 444000, Note_on_c, 0, 64, 60
2, 444000, Note_on_c, 0, 69, 60
2, 444000, Note_on_c, 0, 72, 60
2, 444240, Note_on_c, 0, 72, 0
2, 444240, Note_on_c, 0, 69, 0
2, 444240, Note_on_c, 0, 64, 0
2, 444240, Note_on_c, 0, 62, 60
2, 444240, Note_on_c, 0, 65, 60
2, 444240, Note_on_c, 0, 69, 60
2, 444480, Note_on_c, 0, 69, 0
2, 444480, Note_on_c, 0, 65, 0
2, 444480, Note_on_c, 0, 62, 0
2, 444480, Note_on_c, 0, 77, 60
2, 444480, Note_on_c, 0, 82, 60
2, 444480, Note_on_c, 0, 86, 60
2, 444720, Note_on_c, 0, 86, 0
2, 444720, Note_on_c, 0, 82, 0
2, 444720, Note_on_c, 0, 77, 0
2, 444720, Note_on_c, 0, 76, 60
2, 444720, Note_on_c, 0, 79, 60
2, 444720, Note_on_c, 0, 82, 60
2, 444960, Note_on_c, 0, 82, 0
2, 444960, Note_on_c, 0, 79, 0
2, 444960, Note_on_c, 0, 76, 0
2, 444960, Note_on_c, 0, 76, 60
2, 444960, Note_on_c, 0, 81, 60
2, 444960, Note_on_c, 0, 84, 60
2, 445200, Note_on_c, 0, 84, 0
2, 445200, Note_on_c, 0, 81, 0
2, 445200, Note_on_c, 0, 76, 0
2, 445200, Note_on_c, 0, 74, 60
2, 445200, Note_on_c, 0, 77, 60
2, 445200, Note_on_c, 0, 81, 60
2, 445440, Note_on_c, 0, 81, 0
2, 445440, Note_on_c, 0, 77, 0
2, 445440, Note_on_c, 0, 74, 0
2, 445440, Note_on_c, 0, 67, 73
2, 445440, Note_on_c, 0, 70, 73
2, 445440, Note_on_c, 0, 76, 73
2, 445680, Note_on_c, 0, 76, 0
2, 445680, Note_on_c, 0, 70, 0
2, 445680, Note_on_c, 0, 67, 0
2, 445680, Note_on_c, 0, 69, 73
2, 445680, Note_on_c, 0, 72, 73
2, 445920, Note_on_c, 0, 72, 0
2, 445920, Note_on_c, 0, 69, 0
2, 445920, Note_on_c, 0, 79, 73
2, 445920, Note_on_c, 0, 82, 73
2, 445920, Note_on_c, 0, 88, 73
2, 446160, Note_on_c, 0, 88, 0
2, 446160, Note_on_c, 0, 82, 0
2, 446160, Note_on_c, 0, 79, 0
2, 446160, Note_on_c, 0, 81, 73
2, 446160, Note_on_c, 0, 84, 73
2, 446400, Note_on_c, 0, 84, 0
2, 446400, Note_on_c, 0, 81, 0
2, 446400, Note_on_c, 0, 69, 73
2, 446400, Note_on_c, 0, 72, 73
2, 446400, Note_on_c, 0, 77, 73
2, 446640, Note_on_c, 0, 77, 0
2, 446640, Note_on_c, 0, 72, 0
2, 446640, Note_on_c, 0, 69, 0
2, 446640, Note_on_c, 0, 70, 73
2, 446640, Note_on_c, 0, 74, 73
2, 446880, Note_on_c, 0, 74, 0
2, 446880, Note_on_c, 0, 70, 0
2, 446880, Note_on_c, 0, 81, 73
2, 446880, Note_on_c, 0, 84, 73
2, 446880, Note_on_c, 0, 89, 73
2, 447120, Note_on_c, 0, 89, 0
2, 447120, Note_on_c, 0, 84, 0
2, 447120, Note_on_c, 0, 81, 0
2, 447120, Note_on_c, 0, 82, 73
2, 447120, Note_on_c, 0, 86, 73
2, 447360, Note_on_c, 0, 86, 0
2, 447360, Note_on_c, 0, 82, 0
2, 447360, Note_on_c, 0, 70, 73
2, 447360, Note_on_c, 0, 74, 73
2, 447360, Note_on_c, 0, 79, 73
2, 447600, Note_on_c, 0, 79, 0
2, 447600, Note_on_c, 0, 74, 0
2, 447600, Note_on_c, 0, 70, 0
2, 447600, Note_on_c, 0, 72, 73
2, 447600, Note_on_c, 0, 76, 73
2, 447840, Note_on_c, 0, 76, 0
2, 447840, Note_on_c, 0, 72, 0
2, 447840, Note_on_c, 0, 82, 73
2, 447840, Note_on_c, 0, 86, 73
2, 447840, Note_on_c, 0, 91, 73
2, 448080, Note_on_c, 0, 91, 0
2, 448080, Note_on_c, 0, 86, 0
2, 448080, Note_on_c, 0, 82, 0
2, 448080, Note_on_c, 0, 84, 73
2, 448080, Note_on_c, 0, 88, 73
2, 448320, Note_on_c, 0, 88, 0
2, 448320, Note_on_c, 0, 84, 0
2, 448320, Note_on_c, 0, 72, 73
2, 448320, Note_on_c, 0, 76, 73
2, 448320, Note_on_c, 0, 81, 73
2, 448560, Note_on_c, 0, 81, 0
2, 448560, Note_on_c, 0, 76, 0
2, 448560, Note_on_c, 0, 72, 0
2, 448560, Note_on_c, 0, 74, 73
2, 448560, Note_on_c, 0, 77, 73
2, 448800, Note_on_c, 0, 77, 0
2, 448800, Note_on_c, 0, 74, 0
2, 448800, Note_on_c, 0, 84, 73
2, 448800, Note_on_c, 0, 88, 73
2, 448800, Note_on_c, 0, 93, 73
2, 449040, Note_on_c, 0, 93, 0
2, 449040, Note_on_c, 0, 88, 0
2, 449040, Note_on_c, 0, 84, 0
2, 449040, Note_on_c, 0, 86, 73
2, 449040, Note_on_c, 0, 89, 73
2, 449280, Note_on_c, 0, 89, 0
2, 449280, Note_on_c, 0, 86, 0
2, 449280, Note_on_c, 0, 70, 73
2, 449280, Note_on_c, 0, 74, 73
2, 449280, Note_on_c, 0, 77, 73
2, 449280, Note_on_c, 0, 82, 73
2, 449520, Note_on_c, 0, 82, 0
2, 449520, Note_on_c, 0, 70, 0
2, 449520, Note_on_c, 0, 74, 0
2, 449520, Note_on_c, 0, 77, 0
2, 449520, Note_on_c, 0, 70, 73
2, 449520, Note_on_c, 0, 74, 73
2, 449520, Note_on_c, 0, 79, 73
2, 449760, Note_on_c, 0, 79, 0
2, 449760, Note_on_c, 0, 74, 0
2, 449760, Note_on_c, 0, 70, 0
2, 449760, Note_on_c, 0, 82, 73
2, 449760, Note_on_c, 0, 86, 73
2, 449760, Note_on_c, 0, 89, 73
2, 449760, Note_on_c, 0, 94, 73
2, 450000, Note_on_c, 0, 94, 0
2, 450000, Note_on_c, 0, 82, 0
2, 450000, Note_on_c, 0, 86, 0
2, 450000, Note_on_c, 0, 89, 0
2, 450000, Note_on_c, 0, 82, 73
2, 450000, Note_on_c, 0, 86, 73
2, 450000, Note_on_c, 0, 91, 73
2, 450240, Note_on_c, 0, 91, 0
2, 450240, Note_on_c, 0, 86, 0
2, 450240, Note_on_c, 0, 82, 0
2, 450240, Note_on_c, 0, 70, 73
2, 450240, Note_on_c, 0, 74, 73
2, 450240, Note_on_c, 0, 77, 73
2, 450240, Note_on_c, 0, 82, 73
2, 450480, Note_on_c, 0, 82, 0
2, 450480, Note_on_c, 0, 70, 0
2, 450480, Note_on_c, 0, 74, 0
2, 450480, Note_on_c, 0, 77, 0
2, 450480, Note_on_c, 0, 70, 73
2, 450480, Note_on_c, 0, 74, 73
2, 450480, Note_on_c, 0, 79, 73
2, 450720, Note_on_c, 0, 79, 0
2, 450720, Note_on_c, 0, 74, 0
2, 450720, Note_on_c, 0, 70, 0
2, 450720, Note_on_c, 0, 82, 73
2, 450720, Note_on_c, 0, 86, 73
2, 450720, Note_on_c, 0, 89, 73
2, 450720, Note_on_c, 0, 94, 73
2, 450960, Note_on_c, 0, 94, 0
2, 450960, Note_on_c, 0, 82, 0
2, 450960, Note_on_c, 0, 86, 0
2, 450960, Note_on_c, 0, 89, 0
2, 450960, Note_on_c, 0, 82, 73
2, 450960, Note_on_c, 0, 86, 73
2, 450960, Note_on_c, 0, 91, 73
2, 451200, Note_on_c, 0, 91, 0
2, 451200, Note_on_c, 0, 86, 0
2, 451200, Note_on_c, 0, 82, 0
2, 451200, Note_on_c, 0, 71, 73
2, 451200, Note_on_c, 0, 74, 73
2, 451200, Note_on_c, 0, 83, 73
2, 451440, Note_on_c, 0, 83, 0
2, 451440, Note_on_c, 0, 74, 0
2, 451440, Note_on_c, 0, 71, 0
2, 451440, Note_on_c, 0, 71, 73
2, 451440, Note_on_c, 0, 74, 73
2, 451440, Note_on_c, 0, 79, 73
2, 451680, Note_on_c, 0, 79, 0
2, 451680, Note_on_c, 0, 74, 0
2, 451680, Note_on_c, 0, 71, 0
2, 451680, Note_on_c, 0, 83, 73
2, 451680, Note_on_c, 0, 86, 73
2, 451680, Note_on_c, 0, 95, 73
2, 451920, Note_on_c, 0, 95, 0
2, 451920, Note_on_c, 0, 86, 0
2, 451920, Note_on_c, 0, 83, 0
2, 451920, Note_on_c, 0, 83, 73
2, 451920, Note_on_c, 0, 86, 73
2, 451920, Note_on_c, 0, 91, 73
2, 452160, Note_on_c, 0, 91, 0
2, 452160, Note_on_c, 0, 86, 0
2, 452160, Note_on_c, 0, 83, 0
2, 452160, Note_on_c, 0, 71, 73
2, 452160, Note_on_c, 0, 74, 73
2, 452160, Note_on_c, 0, 83, 73
2, 452400, Note_on_c, 0, 83, 0
2, 452400, Note_on_c, 0, 74, 0
2, 452400, Note_on_c, 0, 71, 0
2, 452400, Note_on_c, 0, 71, 73
2, 452400, Note_on_c, 0, 74, 73
2, 452400, Note_on_c, 0, 79, 73
2, 452640, Note_on_c, 0, 79, 0
2, 452640, Note_on_c, 0, 74, 0
2, 452640, Note_on_c, 0, 71, 0
2, 452640, Note_on_c, 0, 83, 73
2, 452640, Note_on_c, 0, 86, 73
2, 452640, Note_on_c, 0, 95, 73
2, 452880, Note_on_c, 0, 95, 0
2, 452880, Note_on_c, 0, 86, 0
2, 452880, Note_on_c, 0, 83, 0
2, 452880, Note_on_c, 0, 83, 73
2, 452880, Note_on_c, 0, 86, 73
2, 452880, Note_on_c, 0, 91, 73
2, 453120, Note_on_c, 0, 91, 0
2, 453120, Note_on_c, 0, 86, 0
2, 453120, Note_on_c, 0, 83, 0
2, 453120, Note_on_c, 0, 72, 73
2, 453120, Note_on_c, 0, 76, 73
2, 453120, Note_on_c, 0, 84, 73
2, 453360, Note_on_c, 0, 84, 0
2, 453360, Note_on_c, 0, 76, 0
2, 453360, Note_on_c, 0, 72, 0
2, 453360, Note_on_c, 0, 72, 73
2, 453360, Note_on_c, 0, 76, 73
2, 453360, Note_on_c, 0, 79, 73
2, 453600, Note_on_c, 0, 79, 0
2, 453600, Note_on_c, 0, 76, 0
2, 453600, Note_on_c, 0, 72, 0
2, 453600, Note_on_c, 0, 84, 73
2, 453600, Note_on_c, 0, 88, 73
2, 453600, Note_on_c, 0, 96, 73
2, 453840, Note_on_c, 0, 96, 0
2, 453840, Note_on_c, 0, 88, 0
2, 453840, Note_on_c, 0, 84, 0
2, 453840, Note_on_c, 0, 84, 73
2, 453840, Note_on_c, 0, 88, 73
2, 453840, Note_on_c, 0, 91, 73
2, 454080, Note_on_c, 0, 91, 0
2, 454080, Note_on_c, 0, 88, 0
2, 454080, Note_on_c, 0, 84, 0
2, 454080, Note_on_c, 0, 72, 73
2, 454080, Note_on_c, 0, 76, 73
2, 454080, Note_on_c, 0, 84, 73
2, 454320, Note_on_c, 0, 84, 0
2, 454320, Note_on_c, 0, 76, 0
2, 454320, Note_on_c, 0, 72, 0
2, 454320, Note_on_c, 0, 72, 73
2, 454320, Note_on_c, 0, 76, 73
2, 454320, Note_on_c, 0, 79, 73
2, 454560, Note_on_c, 0, 79, 0
2, 454560, Note_on_c, 0, 76, 0
2, 454560, Note_on_c, 0, 72, 0
2, 454560, Note_on_c, 0, 84, 73
2, 454560, Note_on_c, 0, 88, 73
2, 454560, Note_on_c, 0, 96, 73
2, 454800, Note_on_c, 0, 96, 0
2, 454800, Note_on_c, 0, 88, 0
2, 454800, Note_on_c, 0, 84, 0
2, 454800, Note_on_c, 0, 84, 73
2, 454800, Note_on_c, 0, 88, 73
2, 454800, Note_on_c, 0, 91, 73
2, 455040, Note_on_c, 0, 91, 0
2, 455040, Note_on_c, 0, 88, 0
2, 455040, Note_on_c, 0, 84, 0
2, 455040, Note_on_c, 0, 76, 73
2, 455040, Note_on_c, 0, 79, 73
2, 455040, Note_on_c, 0, 88, 73
2, 455280, Note_on_c, 0, 88, 0
2, 455280, Note_on_c, 0, 79, 0
2, 455280, Note_on_c, 0, 76, 0
2, 455280, Note_on_c, 0, 76, 73
2, 455280, Note_on_c, 0, 79, 73
2, 455280, Note_on_c, 0, 82, 73
2, 455520, Note_on_c, 0, 82, 0
2, 455520, Note_on_c, 0, 79, 0
2, 455520, Note_on_c, 0, 76, 0
2, 455520, Note_on_c, 0, 88, 73
2, 455520, Note_on_c, 0, 91, 73
2, 455520, Note_on_c, 0, 100, 73
2, 455760, Note_on_c, 0, 100, 0
2, 455760, Note_on_c, 0, 91, 0
2, 455760, Note_on_c, 0, 88, 0
2, 455760, Note_on_c, 0, 88, 73
2, 455760, Note_on_c, 0, 91, 73
2, 455760, Note_on_c, 0, 94, 73
2, 456000, Note_on_c, 0, 94, 0
2, 456000, Note_on_c, 0, 91, 0
2, 456000, Note_on_c, 0, 88, 0
2, 456000, Note_on_c, 0, 76, 73
2, 456000, Note_on_c, 0, 79, 73
2, 456000, Note_on_c, 0, 88, 73
2, 456240, Note_on_c, 0, 88, 0
2, 456240, Note_on_c, 0, 79, 0
2, 456240, Note_on_c, 0, 76, 0
2, 456240, Note_on_c, 0, 76, 73
2, 456240, Note_on_c, 0, 79, 73
2, 456240, Note_on_c, 0, 82, 73
2, 456480, Note_on_c, 0, 82, 0
2, 456480, Note_on_c, 0, 79, 0
2, 456480, Note_on_c, 0, 76, 0
2, 456480, Note_on_c, 0, 88, 73
2, 456480, Note_on_c, 0, 91, 73
2, 456480, Note_on_c, 0, 100, 73
2, 456720, Note_on_c, 0, 100, 0
2, 456720, Note_on_c, 0, 91, 0
2, 456720, Note_on_c, 0, 88, 0
2, 456720, Note_on_c, 0, 88, 73
2, 456720, Note_on_c, 0, 91, 73
2, 456720, Note_on_c, 0, 94, 73
2, 456960, Note_on_c, 0, 94, 0
2, 456960, Note_on_c, 0, 91, 0
2, 456960, Note_on_c, 0, 88, 0
2, 456960, Note_on_c, 0, 64, 86
2, 456960, Note_on_c, 0, 76, 86
2, 457080, Note_on_c, 0, 76, 0
2, 457080, Note_on_c, 0, 64, 0
2, 457080, Note_on_c, 0, 74, 86
2, 457200, Note_on_c, 0, 74, 0
2, 457200, Note_on_c, 0, 72, 86
2, 457320, Note_on_c, 0, 72, 0
2, 457320, Note_on_c, 0, 70, 86
2, 457440, Note_on_c, 0, 70, 0
2, 457440, Note_on_c, 0, 69, 86
2, 457560, Note_on_c, 0, 69, 0
2, 457560, Note_on_c, 0, 67, 86
2, 457680, Note_on_c, 0, 67, 0
2, 457680, Note_on_c, 0, 65, 86
2, 457800, Note_on_c, 0, 65, 0
2, 457800, Note_on_c, 0, 64, 86
2, 457920, Note_on_c, 0, 64, 0
2, 457920, Note_on_c, 0, 67, 86
2, 457920, Note_on_c, 0, 79, 86
2, 458040, Note_on_c, 0, 79, 0
2, 458040, Note_on_c, 0, 67, 0
2, 458040, Note_on_c, 0, 77, 86
2, 458160, Note_on_c, 0, 77, 0
2, 458160, Note_on_c, 0, 76, 86
2, 458280, Note_on_c, 0, 76, 0
2, 458280, Note_on_c, 0, 74, 86
2, 458400, Note_on_c, 0, 74, 0
2, 458400, Note_on_c, 0, 72, 86
2, 458520, Note_on_c, 0, 72, 0
2, 458520, Note_on_c, 0, 70, 86
2, 458640, Note_on_c, 0, 70, 0
2, 458640, Note_on_c, 0, 69, 86
2, 458760, Note_on_c, 0, 69, 0
2, 458760, Note_on_c, 0, 67, 86
2, 458880, Note_on_c, 0, 67, 0
2, 458880, Note_on_c, 0, 70, 86
2, 458880, Note_on_c, 0, 82, 86
2, 459000, Note_on_c, 0, 82, 0
2, 459000, Note_on_c, 0, 70, 0
2, 459000, Note_on_c, 0, 81, 86
2, 459120, Note_on_c, 0, 81, 0
2, 459120, Note_on_c, 0, 79, 86
2, 459240, Note_on_c, 0, 79, 0
2, 459240, Note_on_c, 0, 77, 86
2, 459360, Note_on_c, 0, 77, 0
2, 459360, Note_on_c, 0, 76, 86
2, 459480, Note_on_c, 0, 76, 0
2, 459480, Note_on_c, 0, 74, 86
2, 459600, Note_on_c, 0, 74, 0
2, 459600, Note_on_c, 0, 72, 86
2, 459720, Note_on_c, 0, 72, 0
2, 459720, Note_on_c, 0, 70, 86
2, 459840, Note_on_c, 0, 70, 0
2, 459840, Note_on_c, 0, 76, 86
2, 459840, Note_on_c, 0, 88, 86
2, 459960, Note_on_c, 0, 88, 0
2, 459960, Note_on_c, 0, 76, 0
2, 459960, Note_on_c, 0, 86, 86
2, 460080, Note_on_c, 0, 86, 0
2, 460080, Note_on_c, 0, 84, 86
2, 460200, Note_on_c, 0, 84, 0
2, 460200, Note_on_c, 0, 82, 86
2, 460320, Note_on_c, 0, 82, 0
2, 460320, Note_on_c, 0, 81, 86
2, 460440, Note_on_c, 0, 81, 0
2, 460440, Note_on_c, 0, 79, 86
2, 460560, Note_on_c, 0, 79, 0
2, 460560, Note_on_c, 0, 77, 86
2, 460680, Note_on_c, 0, 77, 0
2, 460680, Note_on_c, 0, 76, 86
2, 460800, Note_on_c, 0, 76, 0
2, 460800, Note_on_c, 0, 79, 86
2, 460800, Note_on_c, 0, 91, 86
2, 460920, Note_on_c, 0, 91, 0
2, 460920, Note_on_c, 0, 79, 0
2, 460920, Note_on_c, 0, 89, 86
2, 461040, Note_on_c, 0, 89, 0
2, 461040, Note_on_c, 0, 88, 86
2, 461160, Note_on_c, 0, 88, 0
2, 461160, Note_on_c, 0, 86, 86
2, 461280, Note_on_c, 0, 86, 0
2, 461280, Note_on_c, 0, 84, 86
2, 461400, Note_on_c, 0, 84, 0
2, 461400, Note_on_c, 0, 82, 86
2, 461520, Note_on_c, 0, 82, 0
2, 461520, Note_on_c, 0, 81, 86
2, 461640, Note_on_c, 0, 81, 0
2, 461640, Note_on_c, 0, 79, 86
2, 461760, Note_on_c, 0, 79, 0
2, 461760, Note_on_c, 0, 82, 86
2, 461760, Note_on_c, 0, 94, 86
2, 461880, Note_on_c, 0, 94, 0
2, 461880, Note_on_c, 0, 82, 0
2, 461880, Note_on_c, 0, 93, 86
2, 462000, Note_on_c, 0, 93, 0
2, 462000, Note_on_c, 0, 91, 86
2, 462120, Note_on_c, 0, 91, 0
2, 462120, Note_on_c, 0, 89, 86
2, 462240, Note_on_c, 0, 89, 0
2, 462240, Note_on_c, 0, 88, 86
2, 462360, Note_on_c, 0, 88, 0
2, 462360, Note_on_c, 0, 86, 86
2, 462480, Note_on_c, 0, 86, 0
2, 462480, Note_on_c, 0, 84, 86
2, 462600, Note_on_c, 0, 84, 0
2, 462600, Note_on_c, 0, 82, 86
2, 462720, Note_on_c, 0, 82, 0
2, 462720, Note_on_c, 0, 69, 86
2, 462720, Note_on_c, 0, 81, 86
2, 462840, Note_on_c, 0, 81, 0
2, 462840, Note_on_c, 0, 69, 0
2, 462840, Note_on_c, 0, 79, 86
2, 462960, Note_on_c, 0, 79, 0
2, 462960, Note_on_c, 0, 77, 86
2, 463080, Note_on_c, 0, 77, 0
2, 463080, Note_on_c, 0, 76, 86
2, 463200, Note_on_c, 0, 76, 0
2, 463200, Note_on_c, 0, 74, 86
2, 463320, Note_on_c, 0, 74, 0
2, 463320, Note_on_c, 0, 72, 86
2, 463440, Note_on_c, 0, 72, 0
2, 463440, Note_on_c, 0, 74, 86
2, 463560, Note_on_c, 0, 74, 0
2, 463560, Note_on_c, 0, 76, 86
2, 463680, Note_on_c, 0, 76, 0
2, 463680, Note_on_c, 0, 77, 86
2, 463800, Note_on_c, 0, 77, 0
2, 463800, Note_on_c, 0, 79, 86
2, 463920, Note_on_c, 0, 79, 0
2, 463920, Note_on_c, 0, 81, 86
2, 464040, Note_on_c, 0, 81, 0
2, 464040, Note_on_c, 0, 82, 86
2, 464160, Note_on_c, 0, 82, 0
2, 464160, Note_on_c, 0, 83, 86
2, 464280, Note_on_c, 0, 83, 0
2, 464280, Note_on_c, 0, 84, 86
2, 464400, Note_on_c, 0, 84, 0
2, 464400, Note_on_c, 0, 86, 86
2, 464520, Note_on_c, 0, 86, 0
2, 464520, Note_on_c, 0, 88, 86
2, 464640, Note_on_c, 0, 88, 0
2, 464640, Note_on_c, 0, 89, 86
2, 465600, Note_on_c, 0, 89, 0
2, 465600, Note_on_c, 0, 88, 86
2, 466320, Note_on_c, 0, 88, 0
2, 466320, Note_on_c, 0, 74, 86
2, 466320, Note_on_c, 0, 86, 86
2, 466560, Note_on_c, 0, 86, 0
2, 466560, Note_on_c, 0, 74, 0
2, 466560, Note_on_c, 0, 72, 86
2, 466560, Note_on_c, 0, 77, 86
2, 466560, Note_on_c, 0, 81, 86
2, 466560, Note_on_c, 0, 84, 86
2, 466680, Note_on_c, 0, 84, 0
2, 466680, Note_on_c, 0, 72, 0
2, 466680, Note_on_c, 0, 77, 0
2, 466680, Note_on_c, 0, 81, 0
2, 466680, Note_on_c, 0, 81, 86
2, 466800, Note_on_c, 0, 81, 0
2, 466800, Note_on_c, 0, 84, 86
2, 466920, Note_on_c, 0, 84, 0
2, 466920, Note_on_c, 0, 86, 86
2, 467040, Note_on_c, 0, 86, 0
2, 467040, Note_on_c, 0, 88, 86
2, 467160, Note_on_c, 0, 88, 0
2, 467160, Note_on_c, 0, 86, 86
2, 467280, Note_on_c, 0, 86, 0
2, 467280, Note_on_c, 0, 84, 86
2, 467400, Note_on_c, 0, 84, 0
2, 467400, Note_on_c, 0, 82, 86
2, 467520, Note_on_c, 0, 82, 0
2, 467520, Note_on_c, 0, 81, 86
2, 467640, Note_on_c, 0, 81, 0
2, 467640, Note_on_c, 0, 77, 86
2, 467760, Note_on_c, 0, 77, 0
2, 467760, Note_on_c, 0, 81, 86
2, 467880, Note_on_c, 0, 81, 0
2, 467880, Note_on_c, 0, 82, 86
2, 468000, Note_on_c, 0, 82, 0
2, 468000, Note_on_c, 0, 84, 86
2, 468120, Note_on_c, 0, 84, 0
2, 468120, Note_on_c, 0, 82, 86
2, 468240, Note_on_c, 0, 82, 0
2, 468240, Note_on_c, 0, 81, 86
2, 468360, Note_on_c, 0, 81, 0
2, 468360, Note_on_c, 0, 79, 86
2, 468480, Note_on_c, 0, 79, 0
2, 468480, Note_on_c, 0, 81, 86
2, 468600, Note_on_c, 0, 81, 0
2, 468600, Note_on_c, 0, 79, 86
2, 468720, Note_on_c, 0, 79, 0
2, 468720, Note_on_c, 0, 77, 86
2, 468840, Note_on_c, 0, 77, 0
2, 468840, Note_on_c, 0, 76, 86
2, 468960, Note_on_c, 0, 76, 0
2, 468960, Note_on_c, 0, 77, 86
2, 469080, Note_on_c, 0, 77, 0
2, 469080, Note_on_c, 0, 76, 86
2, 469200, Note_on_c, 0, 76, 0
2, 469200, Note_on_c, 0, 74, 86
2, 469320, Note_on_c, 0, 74, 0
2, 469320, Note_on_c, 0, 72, 86
2, 469440, Note_on_c, 0, 72, 0
2, 469440, Note_on_c, 0, 74, 86
2, 469560, Note_on_c, 0, 74, 0
2, 469560, Note_on_c, 0, 72, 86
2, 469680, Note_on_c, 0, 72, 0
2, 469680, Note_on_c, 0, 70, 86
2, 469800, Note_on_c, 0, 70, 0
2, 469800, Note_on_c, 0, 69, 86
2, 469920, Note_on_c, 0, 69, 0
2, 469920, Note_on_c, 0, 67, 86
2, 470160, Note_on_c, 0, 67, 0
2, 470160, Note_on_c, 0, 72, 86
2, 470400, Note_on_c, 0, 72, 0
2, 470400, Note_on_c, 0, 57, 86
2, 470400, Note_on_c, 0, 60, 86
2, 470400, Note_on_c, 0, 65, 86
2, 470640, Note_on_c, 0, 65, 0
2, 470640, Note_on_c, 0, 60, 0
2, 470640, Note_on_c, 0, 57, 0
2, 471000, Control_c, 0, 64, 127
2, 471000, Note_on_c, 0, 74, 86
2, 471120, Note_on_c, 0, 74, 0
2, 471120, Note_on_c, 0, 76, 86
2, 471240, Note_on_c, 0, 76, 0
2, 471240, Note_on_c, 0, 77, 86
2, 471360, Note_on_c, 0, 77, 0
2, 471360, Note_on_c, 0, 79, 86
2, 471480, Note_on_c, 0, 79, 0
2, 471480, Note_on_c, 0, 81, 86
2, 471600, Note_on_c, 0, 81, 0
2, 471600, Note_on_c, 0, 82, 86
2, 471720, Note_on_c, 0, 82, 0
2, 471720, Note_on_c, 0, 84, 86
2, 471840, Note_on_c, 0, 84, 0
2, 471840, Note_on_c, 0, 86, 86
2, 471960, Note_on_c, 0, 86, 0
2, 471960, Note_on_c, 0, 88, 86
2, 472080, Note_on_c, 0, 88, 0
2, 472080, Note_on_c, 0, 89, 86
2, 472200, Note_on_c, 0, 89, 0
2, 472200, Control_c, 0, 64, 0
2, 472200, Note_on_c, 0, 91, 86
2, 472320, Note_on_c, 0, 91, 0
2, 472320, Note_on_c, 0, 93, 86
2, 473280, Note_on_c, 0, 93, 0
2, 473280, Note_on_c, 0, 79, 86
2, 473280, Note_on_c, 0, 91, 86
2, 474000, Note_on_c, 0, 91, 0
2, 474000, Note_on_c, 0, 79, 0
2, 474000, Note_on_c, 0, 77, 86
2, 474000, Note_on_c, 0, 89, 86
2, 474240, Note_on_c, 0, 89, 0
2, 474240, Note_on_c, 0, 77, 0
2, 474240, Note_on_c, 0, 76, 86
2, 474240, Note_on_c, 0, 81, 86
2, 474240, Note_on_c, 0, 84, 86
2, 474240, Note_on_c, 0, 88, 86
2, 474360, Note_on_c, 0, 88, 0
2, 474360, Note_on_c, 0, 76, 0
2, 474360, Note_on_c, 0, 81, 0
2, 474360, Note_on_c, 0, 84, 0
2, 474360, Note_on_c, 0, 84, 86
2, 474480, Note_on_c, 0, 84, 0
2, 474480, Note_on_c, 0, 88, 86
2, 474600, Note_on_c, 0, 88, 0
2, 474600, Note_on_c, 0, 89, 86
2, 474720, Note_on_c, 0, 89, 0
2, 474720, Note_on_c, 0, 91, 86
2, 474840, Note_on_c, 0, 91, 0
2, 474840, Note_on_c, 0, 89, 86
2, 474960, Note_on_c, 0, 89, 0
2, 474960, Note_on_c, 0, 88, 86
2, 475080, Note_on_c, 0, 88, 0
2, 475080, Note_on_c, 0, 86, 86
2, 475200, Note_on_c, 0, 86, 0
2, 475200, Note_on_c, 0, 84, 86
2, 475320, Note_on_c, 0, 84, 0
2, 475320, Note_on_c, 0, 81, 86
2, 475440, Note_on_c, 0, 81, 0
2, 475440, Note_on_c, 0, 84, 86
2, 475560, Note_on_c, 0, 84, 0
2, 475560, Note_on_c, 0, 86, 86
2, 475680, Note_on_c, 0, 86, 0
2, 475680, Note_on_c, 0, 88, 86
2, 475800, Note_on_c, 0, 88, 0
2, 475800, Note_on_c, 0, 86, 86
2, 475920, Note_on_c, 0, 86, 0
2, 475920, Note_on_c, 0, 84, 86
2, 476040, Note_on_c, 0, 84, 0
2, 476040, Note_on_c, 0, 82, 86
2, 476160, Note_on_c, 0, 82, 0
2, 476160, Note_on_c, 0, 81, 86
2, 476280, Note_on_c, 0, 81, 0
2, 476280, Note_on_c, 0, 79, 86
2, 476400, Note_on_c, 0, 79, 0
2, 476400, Note_on_c, 0, 77, 86
2, 476520, Note_on_c, 0, 77, 0
2, 476520, Note_on_c, 0, 76, 86
2, 476640, Note_on_c, 0, 76, 0
2, 476640, Note_on_c, 0, 77, 86
2, 476760, Note_on_c, 0, 77, 0
2, 476760, Note_on_c, 0, 76, 86
2, 476880, Note_on_c, 0, 76, 0
2, 476880, Note_on_c, 0, 74, 86
2, 477000, Note_on_c, 0, 74, 0
2, 477000, Note_on_c, 0, 73, 86
2, 477120, Note_on_c, 0, 73, 0
2, 477120, Note_on_c, 0, 74, 86
2, 477240, Note_on_c, 0, 74, 0
2, 477240, Note_on_c, 0, 72, 86
2, 477360, Note_on_c, 0, 72, 0
2, 477360, Note_on_c, 0, 70, 86
2, 477480, Note_on_c, 0, 70, 0
2, 477480, Note_on_c, 0, 69, 86
2, 477600, Note_on_c, 0, 69, 0
2, 477600, Note_on_c, 0, 67, 86
2, 477840, Note_on_c, 0, 67, 0
2, 477840, Note_on_c, 0, 72, 86
2, 478080, Note_on_c, 0, 72, 0
2, 478080, Note_on_c, 0, 57, 86
2, 478080, Note_on_c, 0, 60, 86
2, 478080, Note_on_c, 0, 65, 86
2, 478320, Note_on_c, 0, 65, 0
2, 478320, Note_on_c, 0, 60, 0
2, 478320, Note_on_c, 0, 57, 0
2, 478680, Control_c, 0, 64, 127
2, 478680, Note_on_c, 0, 77, 86
2, 478800, Note_on_c, 0, 77, 0
2, 478800, Note_on_c, 0, 79, 86
2, 478920, Note_on_c, 0, 79, 0
2, 478920, Note_on_c, 0, 81, 86
2, 479040, Note_on_c, 0, 81, 0
2, 479040, Note_on_c, 0, 82, 86
2, 479160, Note_on_c, 0, 82, 0
2, 479160, Note_on_c, 0, 84, 86
2, 479280, Note_on_c, 0, 84, 0
2, 479280, Note_on_c, 0, 86, 86
2, 479400, Note_on_c, 0, 86, 0
2, 479400, Note_on_c, 0, 88, 86
2, 479520, Note_on_c, 0, 88, 0
2, 479520, Note_on_c, 0, 89, 86
2, 479640, Note_on_c, 0, 89, 0
2, 479640, Note_on_c, 0, 91, 86
2, 479760, Note_on_c, 0, 91, 0
2, 479760, Note_on_c, 0, 93, 86
2, 479880, Note_on_c, 0, 93, 0
2, 479880, Control_c, 0, 64, 0
2, 479880, Note_on_c, 0, 94, 86
2, 480000, Note_on_c, 0, 94, 0
2, 480000, Note_on_c, 0, 84, 86
2, 480000, Note_on_c, 0, 89, 86
2, 480120, Note_on_c, 0, 89, 0
2, 480120, Note_on_c, 0, 84, 0
2, 480120, Note_on_c, 0, 96, 86
2, 480240, Note_on_c, 0, 96, 0
2, 480240, Note_on_c, 0, 84, 86
2, 480360, Note_on_c, 0, 84, 0
2, 480360, Note_on_c, 0, 96, 86
2, 480480, Note_on_c, 0, 96, 0
2, 480480, Note_on_c, 0, 84, 86
2, 480600, Note_on_c, 0, 84, 0
2, 480600, Note_on_c, 0, 96, 86
2, 480720, Note_on_c, 0, 96, 0
2, 480720, Note_on_c, 0, 84, 86
2, 480840, Note_on_c, 0, 84, 0
2, 480840, Note_on_c, 0, 96, 86
2, 480960, Note_on_c, 0, 96, 0
2, 480960, Note_on_c, 0, 84, 86
2, 481080, Note_on_c, 0, 84, 0
2, 481080, Note_on_c, 0, 96, 86
2, 481200, Note_on_c, 0, 96, 0
2, 481200, Note_on_c, 0, 84, 86
2, 481320, Note_on_c, 0, 84, 0
2, 481320, Note_on_c, 0, 96, 86
2, 481440, Note_on_c, 0, 96, 0
2, 481440, Note_on_c, 0, 84, 86
2, 481560, Note_on_c, 0, 84, 0
2, 481560, Note_on_c, 0, 96, 86
2, 481680, Note_on_c, 0, 96, 0
2, 481680, Note_on_c, 0, 84, 86
2, 481800, Note_on_c, 0, 84, 0
2, 481800, Note_on_c, 0, 96, 86
2, 481920, Note_on_c, 0, 96, 0
2, 481920, Note_on_c, 0, 84, 86
2, 481920, Note_on_c, 0, 89, 86
2, 482040, Note_on_c, 0, 89, 0
2, 482040, Note_on_c, 0, 84, 0
2, 482040, Note_on_c, 0, 96, 86
2, 482160, Note_on_c, 0, 96, 0
2, 482160, Note_on_c, 0, 84, 86
2, 482280, Note_on_c, 0, 84, 0
2, 482280, Note_on_c, 0, 96, 86
2, 482400, Note_on_c, 0, 96, 0
2, 482400, Note_on_c, 0, 84, 86
2, 482520, Note_on_c, 0, 84, 0
2, 482520, Note_on_c, 0, 96, 86
2, 482640, Note_on_c, 0, 96, 0
2, 482640, Note_on_c, 0, 84, 86
2, 482760, Note_on_c, 0, 84, 0
2, 482760, Note_on_c, 0, 96, 86
2, 482880, Note_on_c, 0, 96, 0
2, 482880, Note_on_c, 0, 84, 86
2, 483000, Note_on_c, 0, 84, 0
2, 483000, Note_on_c, 0, 96, 86
2, 483120, Note_on_c, 0, 96, 0
2, 483120, Note_on_c, 0, 84, 86
2, 483240, Note_on_c, 0, 84, 0
2, 483240, Note_on_c, 0, 96, 86
2, 483360, Note_on_c, 0, 96, 0
2, 483360, Note_on_c, 0, 84, 86
2, 483480, Note_on_c, 0, 84, 0
2, 483480, Note_on_c, 0, 96, 86
2, 483600, Note_on_c, 0, 96, 0
2, 483600, Note_on_c, 0, 84, 86
2, 483720, Note_on_c, 0, 84, 0
2, 483720, Note_on_c, 0, 96, 86
2, 483840, Note_on_c, 0, 96, 0
2, 483840, Note_on_c, 0, 96, 86
2, 483960, Note_on_c, 0, 96, 0
2, 483960, Note_on_c, 0, 84, 86
2, 484080, Note_on_c, 0, 84, 0
2, 484080, Note_on_c, 0, 89, 86
2, 484200, Note_on_c, 0, 89, 0
2, 484200, Note_on_c, 0, 84, 86
2, 484320, Note_on_c, 0, 84, 0
2, 484320, Note_on_c, 0, 95, 86
2, 484440, Note_on_c, 0, 95, 0
2, 484440, Note_on_c, 0, 83, 86
2, 484560, Note_on_c, 0, 83, 0
2, 484560, Note_on_c, 0, 91, 86
2, 484680, Note_on_c, 0, 91, 0
2, 484680, Note_on_c, 0, 82, 86
2, 484800, Note_on_c, 0, 82, 0
2, 484800, Note_on_c, 0, 94, 86
2, 484920, Note_on_c, 0, 94, 0
2, 484920, Note_on_c, 0, 82, 86
2, 485040, Note_on_c, 0, 82, 0
2, 485040, Note_on_c, 0, 91, 86
2, 485160, Note_on_c, 0, 91, 0
2, 485160, Note_on_c, 0, 82, 86
2, 485280, Note_on_c, 0, 82, 0
2, 485280, Note_on_c, 0, 93, 86
2, 485400, Note_on_c, 0, 93, 0
2, 485400, Note_on_c, 0, 81, 86
2, 485520, Note_on_c, 0, 81, 0
2, 485520, Note_on_c, 0, 90, 86
2, 485640, Note_on_c, 0, 90, 0
2, 485640, Note_on_c, 0, 81, 86
2, 485760, Note_on_c, 0, 81, 0
2, 485760, Note_on_c, 0, 93, 86
2, 485880, Note_on_c, 0, 93, 0
2, 485880, Note_on_c, 0, 81, 86
2, 486000, Note_on_c, 0, 81, 0
2, 486000, Note_on_c, 0, 90, 86
2, 486120, Note_on_c, 0, 90, 0
2, 486120, Note_on_c, 0, 81, 86
2, 486240, Note_on_c, 0, 81, 0
2, 486240, Note_on_c, 0, 92, 86
2, 486360, Note_on_c, 0, 92, 0
2, 486360, Note_on_c, 0, 80, 86
2, 486480, Note_on_c, 0, 80, 0
2, 486480, Note_on_c, 0, 89, 86
2, 486600, Note_on_c, 0, 89, 0
2, 486600, Note_on_c, 0, 80, 86
2, 486720, Note_on_c, 0, 80, 0
2, 486720, Note_on_c, 0, 92, 86
2, 486840, Note_on_c, 0, 92, 0
2, 486840, Note_on_c, 0, 80, 86
2, 486960, Note_on_c, 0, 80, 0
2, 486960, Note_on_c, 0, 89, 86
2, 487080, Note_on_c, 0, 89, 0
2, 487080, Note_on_c, 0, 80, 86
2, 487200, Note_on_c, 0, 80, 0
2, 487200, Note_on_c, 0, 91, 86
2, 487320, Note_on_c, 0, 91, 0
2, 487320, Note_on_c, 0, 79, 86
2, 487440, Note_on_c, 0, 79, 0
2, 487440, Note_on_c, 0, 88, 86
2, 487560, Note_on_c, 0, 88, 0
2, 487560, Note_on_c, 0, 79, 86
2, 487680, Note_on_c, 0, 79, 0
2, 487680, Note_on_c, 0, 91, 86
2, 487800, Note_on_c, 0, 91, 0
2, 487800, Note_on_c, 0, 79, 86
2, 487920, Note_on_c, 0, 79, 0
2, 487920, Note_on_c, 0, 88, 86
2, 488040, Note_on_c, 0, 88, 0
2, 488040, Note_on_c, 0, 79, 86
2, 488160, Note_on_c, 0, 79, 0
2, 488160, Note_on_c, 0, 90, 86
2, 488280, Note_on_c, 0, 90, 0
2, 488280, Note_on_c, 0, 78, 86
2, 488400, Note_on_c, 0, 78, 0
2, 488400, Note_on_c, 0, 87, 86
2, 488520, Note_on_c, 0, 87, 0
2, 488520, Note_on_c, 0, 78, 86
2, 488640, Note_on_c, 0, 78, 0
2, 488640, Note_on_c, 0, 90, 86
2, 488760, Note_on_c, 0, 90, 0
2, 488760, Note_on_c, 0, 78, 86
2, 488880, Note_on_c, 0, 78, 0
2, 488880, Note_on_c, 0, 87, 86
2, 489000, Note_on_c, 0, 87, 0
2, 489000, Note_on_c, 0, 78, 86
2, 489120, Note_on_c, 0, 78, 0
2, 489120, Note_on_c, 0, 89, 86
2, 489240, Note_on_c, 0, 89, 0
2, 489240, Note_on_c, 0, 77, 86
2, 489360, Note_on_c, 0, 77, 0
2, 489360, Note_on_c, 0, 86, 86
2, 489480, Note_on_c, 0, 86, 0
2, 489480, Note_on_c, 0, 77, 86
2, 489600, Note_on_c, 0, 77, 0
2, 489600, Note_on_c, 0, 89, 86
2, 489720, Note_on_c, 0, 89, 0
2, 489720, Note_on_c, 0, 77, 86
2, 489840, Note_on_c, 0, 77, 0
2, 489840, Note_on_c, 0, 86, 86
2, 489960, Note_on_c, 0, 86, 0
2, 489960, Note_on_c, 0, 77, 86
2, 490080, Note_on_c, 0, 77, 0
2, 490080, Note_on_c, 0, 88, 86
2, 490200, Note_on_c, 0, 88, 0
2, 490200, Note_on_c, 0, 76, 86
2, 490320, Note_on_c, 0, 76, 0
2, 490320, Note_on_c, 0, 85, 86
2, 490440, Note_on_c, 0, 85, 0
2, 490440, Note_on_c, 0, 76, 86
2, 490560, Note_on_c, 0, 76, 0
2, 490560, Note_on_c, 0, 89, 86
2, 490680, Note_on_c, 0, 89, 0
2, 490680, Note_on_c, 0, 77, 86
2, 490800, Note_on_c, 0, 77, 0
2, 490800, Note_on_c, 0, 86, 86
2, 490920, Note_on_c, 0, 86, 0
2, 490920, Note_on_c, 0, 77, 86
2, 491040, Note_on_c, 0, 77, 0
2, 491040, Note_on_c, 0, 91, 86
2, 491160, Note_on_c, 0, 91, 0
2, 491160, Note_on_c, 0, 79, 86
2, 491280, Note_on_c, 0, 79, 0
2, 491280, Note_on_c, 0, 85, 86
2, 491400, Note_on_c, 0, 85, 0
2, 491400, Note_on_c, 0, 79, 86
2, 491520, Note_on_c, 0, 79, 0
2, 491520, Note_on_c, 0, 78, 86
2, 491520, Note_on_c, 0, 86, 86
2, 491760, Note_on_c, 0, 86, 0
2, 491760, Note_on_c, 0, 78, 0
2, 491760, Control_c, 0, 64, 127
2, 491760, Note_on_c, 0, 86, 86
2, 491820, Note_on_c, 0, 86, 0
2, 491820, Note_on_c, 0, 88, 86
2, 491880, Note_on_c, 0, 88, 0
2, 491880, Note_on_c, 0, 90, 86
2, 491940, Note_on_c, 0, 90, 0
2, 491940, Note_on_c, 0, 91, 86
2, 492000, Note_on_c, 0, 91, 0
2, 492000, Control_c, 0, 64, 0
2, 492000, Note_on_c, 0, 93, 86
2, 492240, Note_on_c, 0, 93, 0
2, 492720, Control_c, 0, 64, 127
2, 492720, Note_on_c, 0, 78, 86
2, 492767, Note_on_c, 0, 78, 0
2, 492767, Note_on_c, 0, 79, 86
2, 492816, Note_on_c, 0, 79, 0
2, 492816, Note_on_c, 0, 81, 86
2, 492863, Note_on_c, 0, 81, 0
2, 492863, Note_on_c, 0, 83, 86
2, 492912, Note_on_c, 0, 83, 0
2, 492912, Note_on_c, 0, 85, 86
2, 492960, Note_on_c, 0, 85, 0
2, 492960, Control_c, 0, 64, 0
2, 492960, Note_on_c, 0, 74, 86
2, 492960, Note_on_c, 0, 86, 86
2, 493200, Note_on_c, 0, 86, 0
2, 493200, Note_on_c, 0, 74, 0
2, 493680, Control_c, 0, 64, 127
2, 493680, Note_on_c, 0, 87, 86
2, 493740, Note_on_c, 0, 87, 0
2, 493740, Note_on_c, 0, 88, 86
2, 493800, Note_on_c, 0, 88, 0
2, 493800, Note_on_c, 0, 90, 86
2, 493860, Note_on_c, 0, 90, 0
2, 493860, Note_on_c, 0, 91, 86
2, 493920, Note_on_c, 0, 91, 0
2, 493920, Control_c, 0, 64, 0
2, 493920, Note_on_c, 0, 81, 86
2, 493920, Note_on_c, 0, 87, 86
2, 493920, Note_on_c, 0, 93, 86
2, 494160, Note_on_c, 0, 93, 0
2, 494160, Note_on_c, 0, 87, 0
2, 494160, Note_on_c, 0, 81, 0
2, 494640, Control_c, 0, 64, 127
2, 494640, Note_on_c, 0, 83, 86
2, 494700, Note_on_c, 0, 83, 0
2, 494700, Note_on_c, 0, 85, 86
2, 494760, Note_on_c, 0, 85, 0
2, 494760, Note_on_c, 0, 87, 86
2, 494820, Note_on_c, 0, 87, 0
2, 494820, Note_on_c, 0, 88, 86
2, 494880, Note_on_c, 0, 88, 0
2, 494880, Control_c, 0, 64, 0
2, 494880, Note_on_c, 0, 78, 86
2, 494880, Note_on_c, 0, 90, 86
2, 495120, Note_on_c, 0, 90, 0
2, 495120, Note_on_c, 0, 78, 0
2, 495600, Control_c, 0, 64, 127
2, 495600, Note_on_c, 0, 76, 86
2, 495660, Note_on_c, 0, 76, 0
2, 495660, Note_on_c, 0, 78, 86
2, 495720, Note_on_c, 0, 78, 0
2, 495720, Note_on_c, 0, 79, 86
2, 495780, Note_on_c, 0, 79, 0
2, 495780, Note_on_c, 0, 81, 86
2, 495840, Note_on_c, 0, 81, 0
2, 495840, Control_c, 0, 64, 0
2, 495840, Note_on_c, 0, 83, 86
2, 496080, Note_on_c, 0, 83, 0
2, 496560, Control_c, 0, 64, 127
2, 496560, Note_on_c, 0, 79, 86
2, 496620, Note_on_c, 0, 79, 0
2, 496620, Note_on_c, 0, 81, 86
2, 496680, Note_on_c, 0, 81, 0
2, 496680, Note_on_c, 0, 83, 86
2, 496740, Note_on_c, 0, 83, 0
2, 496740, Note_on_c, 0, 85, 86
2, 496800, Note_on_c, 0, 85, 0
2, 496800, Control_c, 0, 64, 0
2, 496800, Note_on_c, 0, 74, 86
2, 496800, Note_on_c, 0, 79, 86
2, 496800, Note_on_c, 0, 86, 86
2, 497040, Note_on_c, 0, 86, 0
2, 497040, Note_on_c, 0, 79, 0
2, 497040, Note_on_c, 0, 74, 0
2, 497520, Control_c, 0, 64, 127
2, 497520, Note_on_c, 0, 84, 86
2, 497580, Note_on_c, 0, 84, 0
2, 497580, Note_on_c, 0, 86, 86
2, 497640, Note_on_c, 0, 86, 0
2, 497640, Note_on_c, 0, 88, 86
2, 497700, Note_on_c, 0, 88, 0
2, 497700, Note_on_c, 0, 90, 86
2, 497760, Note_on_c, 0, 90, 0
2, 497760, Control_c, 0, 64, 0
2, 497760, Note_on_c, 0, 91, 86
2, 498000, Note_on_c, 0, 91, 0
2, 498000, Control_c, 0, 64, 127
2, 498000, Note_on_c, 0, 84, 86
2, 498060, Note_on_c, 0, 84, 0
2, 498060, Note_on_c, 0, 86, 86
2, 498120, Note_on_c, 0, 86, 0
2, 498120, Note_on_c, 0, 87, 86
2, 498180, Note_on_c, 0, 87, 0
2, 498180, Note_on_c, 0, 89, 86
2, 498240, Note_on_c, 0, 89, 0
2, 498240, Control_c, 0, 64, 0
2, 498240, Note_on_c, 0, 90, 86
2, 498480, Note_on_c, 0, 90, 0
2, 498480, Control_c, 0, 64, 127
2, 498480, Note_on_c, 0, 83, 86
2, 498540, Note_on_c, 0, 83, 0
2, 498540, Note_on_c, 0, 85, 86
2, 498600, Note_on_c, 0, 85, 0
2, 498600, Note_on_c, 0, 87, 86
2, 498660, Note_on_c, 0, 87, 0
2, 498660, Note_on_c, 0, 88, 86
2, 498720, Note_on_c, 0, 88, 0
2, 498720, Control_c, 0, 64, 0
2, 498720, Note_on_c, 0, 89, 86
2, 498960, Note_on_c, 0, 89, 0
2, 498960, Control_c, 0, 64, 127
2, 498960, Note_on_c, 0, 82, 86
2, 499020, Note_on_c, 0, 82, 0
2, 499020, Note_on_c, 0, 83, 86
2, 499080, Note_on_c, 0, 83, 0
2, 499080, Note_on_c, 0, 85, 86
2, 499140, Note_on_c, 0, 85, 0
2, 499140, Control_c, 0, 64, 0
2, 499140, Note_on_c, 0, 87, 86
2, 499200, Note_on_c, 0, 87, 0
2, 499200, Note_on_c, 0, 88, 86
2, 499440, Note_on_c, 0, 88, 0
2, 499440, Control_c, 0, 64, 127
2, 499440, Note_on_c, 0, 81, 86
2, 499500, Note_on_c, 0, 81, 0
2, 499500, Note_on_c, 0, 83, 86
2, 499560, Note_on_c, 0, 83, 0
2, 499560, Note_on_c, 0, 85, 86
2, 499620, Note_on_c, 0, 85, 0
2, 499620, Note_on_c, 0, 86, 86
2, 499680, Note_on_c, 0, 86, 0
2, 499680, Control_c, 0, 64, 0
2, 499680, Note_on_c, 0, 87, 86
2, 499920, Note_on_c, 0, 87, 0
2, 499920, Control_c, 0, 64, 127
2, 499920, Note_on_c, 0, 80, 86
2, 499980, Note_on_c, 0, 80, 0
2, 499980, Note_on_c, 0, 81, 86
2, 500040, Note_on_c, 0, 81, 0
2, 500040, Note_on_c, 0, 83, 86
2, 500100, Note_on_c, 0, 83, 0
2, 500100, Note_on_c, 0, 85, 86
2, 500160, Note_on_c, 0, 85, 0
2, 500160, Control_c, 0, 64, 0
2, 500160, Note_on_c, 0, 86, 86
2, 500400, Note_on_c, 0, 86, 0
2, 500400, Control_c, 0, 64, 127
2, 500400, Note_on_c, 0, 79, 86
2, 500460, Note_on_c, 0, 79, 0
2, 500460, Note_on_c, 0, 81, 86
2, 500520, Note_on_c, 0, 81, 0
2, 500520, Note_on_c, 0, 83, 86
2, 500580, Note_on_c, 0, 83, 0
2, 500580, Note_on_c, 0, 84, 86
2, 500640, Note_on_c, 0, 84, 0
2, 500640, Control_c, 0, 64, 0
2, 500640, Note_on_c, 0, 85, 86
2, 500880, Note_on_c, 0, 85, 0
2, 500880, Control_c, 0, 64, 127
2, 500880, Note_on_c, 0, 78, 86
2, 500940, Note_on_c, 0, 78, 0
2, 500940, Note_on_c, 0, 79, 86
2, 501000, Note_on_c, 0, 79, 0
2, 501000, Note_on_c, 0, 81, 86
2, 501060, Note_on_c, 0, 81, 0
2, 501060, Note_on_c, 0, 83, 86
2, 501120, Note_on_c, 0, 83, 0
2, 501120, Control_c, 0, 64, 0
2, 501120, Note_on_c, 0, 84, 86
2, 501360, Note_on_c, 0, 84, 0
2, 501360, Control_c, 0, 64, 127
2, 501360, Note_on_c, 0, 79, 86
2, 501420, Note_on_c, 0, 79, 0
2, 501420, Note_on_c, 0, 80, 86
2, 501480, Note_on_c, 0, 80, 0
2, 501480, Note_on_c, 0, 81, 86
2, 501540, Note_on_c, 0, 81, 0
2, 501540, Note_on_c, 0, 82, 86
2, 501600, Note_on_c, 0, 82, 0
2, 501600, Control_c, 0, 64, 0
2, 501600, Note_on_c, 0, 83, 86
2, 501840, Note_on_c, 0, 83, 0
2, 501840, Control_c, 0, 64, 127
2, 501840, Note_on_c, 0, 85, 86
2, 501900, Note_on_c, 0, 85, 0
2, 501900, Note_on_c, 0, 86, 86
2, 501960, Note_on_c, 0, 86, 0
2, 501960, Note_on_c, 0, 88, 86
2, 502020, Note_on_c, 0, 88, 0
2, 502020, Note_on_c, 0, 90, 86
2, 502080, Note_on_c, 0, 90, 0
2, 502080, Control_c, 0, 64, 0
2, 502080, Note_on_c, 0, 79, 86
2, 502080, Note_on_c, 0, 91, 86
2, 502320, Note_on_c, 0, 91, 0
2, 502320, Note_on_c, 0, 79, 0
2, 502320, Note_on_c, 0, 79, 86
2, 502440, Note_on_c, 0, 79, 0
2, 502440, Note_on_c, 0, 91, 86
2, 502560, Note_on_c, 0, 91, 0
2, 502560, Note_on_c, 0, 79, 86
2, 502680, Note_on_c, 0, 79, 0
2, 502680, Note_on_c, 0, 91, 86
2, 502800, Note_on_c, 0, 91, 0
2, 502800, Note_on_c, 0, 79, 86
2, 502920, Note_on_c, 0, 79, 0
2, 502920, Note_on_c, 0, 91, 86
2, 503040, Note_on_c, 0, 91, 0
2, 503040, Note_on_c, 0, 79, 86
2, 503160, Note_on_c, 0, 79, 0
2, 503160, Note_on_c, 0, 91, 86
2, 503280, Note_on_c, 0, 91, 0
2, 503280, Note_on_c, 0, 79, 86
2, 503400, Note_on_c, 0, 79, 0
2, 503400, Note_on_c, 0, 91, 86
2, 503520, Note_on_c, 0, 91, 0
2, 503520, Note_on_c, 0, 79, 86
2, 503640, Note_on_c, 0, 79, 0
2, 503640, Note_on_c, 0, 91, 86
2, 503760, Note_on_c, 0, 91, 0
2, 503760, Note_on_c, 0, 79, 86
2, 503880, Note_on_c, 0, 79, 0
2, 503880, Note_on_c, 0, 91, 86
2, 504000, Note_on_c, 0, 91, 0
2, 504000, Note_on_c, 0, 79, 86
2, 504120, Note_on_c, 0, 79, 0
2, 504120, Note_on_c, 0, 91, 86
2, 504240, Note_on_c, 0, 91, 0
2, 504240, Note_on_c, 0, 79, 86
2, 504360, Note_on_c, 0, 79, 0
2, 504360, Note_on_c, 0, 91, 86
2, 504480, Note_on_c, 0, 91, 0
2, 504480, Note_on_c, 0, 79, 86
2, 504600, Note_on_c, 0, 79, 0
2, 504600, Note_on_c, 0, 91, 86
2, 504720, Note_on_c, 0, 91, 0
2, 504720, Note_on_c, 0, 79, 86
2, 504840, Note_on_c, 0, 79, 0
2, 504840, Note_on_c, 0, 91, 86
2, 504960, Note_on_c, 0, 91, 0
2, 504960, Note_on_c, 0, 80, 86
2, 505080, Note_on_c, 0, 80, 0
2, 505080, Note_on_c, 0, 92, 86
2, 505200, Note_on_c, 0, 92, 0
2, 505200, Note_on_c, 0, 80, 86
2, 505320, Note_on_c, 0, 80, 0
2, 505320, Note_on_c, 0, 92, 86
2, 505440, Note_on_c, 0, 92, 0
2, 505440, Note_on_c, 0, 80, 86
2, 505560, Note_on_c, 0, 80, 0
2, 505560, Note_on_c, 0, 92, 86
2, 505680, Note_on_c, 0, 92, 0
2, 505680, Note_on_c, 0, 80, 86
2, 505800, Note_on_c, 0, 80, 0
2, 505800, Note_on_c, 0, 92, 86
2, 505920, Note_on_c, 0, 92, 0
2, 505920, Note_on_c, 0, 80, 86
2, 505920, Note_on_c, 0, 86, 86
2, 506040, Note_on_c, 0, 86, 0
2, 506040, Note_on_c, 0, 80, 0
2, 506040, Note_on_c, 0, 92, 86
2, 506160, Note_on_c, 0, 92, 0
2, 506160, Note_on_c, 0, 80, 86
2, 506160, Note_on_c, 0, 86, 86
2, 506280, Note_on_c, 0, 86, 0
2, 506280, Note_on_c, 0, 80, 0
2, 506280, Note_on_c, 0, 92, 86
2, 506400, Note_on_c, 0, 92, 0
2, 506400, Note_on_c, 0, 80, 86
2, 506400, Note_on_c, 0, 86, 86
2, 506520, Note_on_c, 0, 86, 0
2, 506520, Note_on_c, 0, 80, 0
2, 506520, Note_on_c, 0, 92, 86
2, 506640, Note_on_c, 0, 92, 0
2, 506640, Note_on_c, 0, 80, 86
2, 506640, Note_on_c, 0, 86, 86
2, 506760, Note_on_c, 0, 86, 0
2, 506760, Note_on_c, 0, 80, 0
2, 506760, Note_on_c, 0, 92, 86
2, 506880, Note_on_c, 0, 92, 0
2, 506880, Note_on_c, 0, 80, 86
2, 506880, Note_on_c, 0, 86, 86
2, 507000, Note_on_c, 0, 86, 0
2, 507000, Note_on_c, 0, 80, 0
2, 507000, Note_on_c, 0, 92, 86
2, 507120, Note_on_c, 0, 92, 0
2, 507120, Note_on_c, 0, 80, 86
2, 507120, Note_on_c, 0, 86, 86
2, 507240, Note_on_c, 0, 86, 0
2, 507240, Note_on_c, 0, 80, 0
2, 507240, Note_on_c, 0, 92, 86
2, 507360, Note_on_c, 0, 92, 0
2, 507360, Note_on_c, 0, 81, 86
2, 507360, Note_on_c, 0, 86, 86
2, 507480, Note_on_c, 0, 86, 0
2, 507480, Note_on_c, 0, 81, 0
2, 507480, Note_on_c, 0, 93, 86
2, 507600, Note_on_c, 0, 93, 0
2, 507600, Note_on_c, 0, 81, 86
2, 507600, Note_on_c, 0, 86, 86
2, 507720, Note_on_c, 0, 86, 0
2, 507720, Note_on_c, 0, 81, 0
2, 507720, Note_on_c, 0, 93, 86
2, 507840, Note_on_c, 0, 93, 0
2, 507840, Note_on_c, 0, 82, 86
2, 507840, Note_on_c, 0, 86, 86
2, 507960, Note_on_c, 0, 86, 0
2, 507960, Note_on_c, 0, 82, 0
2, 507960, Note_on_c, 0, 94, 86
2, 508080, Note_on_c, 0, 94, 0
2, 508080, Note_on_c, 0, 82, 86
2, 508080, Note_on_c, 0, 86, 86
2, 508200, Note_on_c, 0, 86, 0
2, 508200, Note_on_c, 0, 82, 0
2, 508200, Note_on_c, 0, 94, 86
2, 508320, Note_on_c, 0, 94, 0
2, 508320, Note_on_c, 0, 83, 86
2, 508320, Note_on_c, 0, 86, 86
2, 508440, Note_on_c, 0, 86, 0
2, 508440, Note_on_c, 0, 83, 0
2, 508440, Note_on_c, 0, 95, 86
2, 508560, Note_on_c, 0, 95, 0
2, 508560, Note_on_c, 0, 83, 86
2, 508560, Note_on_c, 0, 86, 86
2, 508680, Note_on_c, 0, 86, 0
2, 508680, Note_on_c, 0, 83, 0
2, 508680, Note_on_c, 0, 95, 86
2, 508800, Note_on_c, 0, 95, 0
2, 508800, Note_on_c, 0, 84, 86
2, 508800, Note_on_c, 0, 89, 86
2, 508800, Note_on_c, 0, 91, 86
2, 508920, Note_on_c, 0, 91, 0
2, 508920, Note_on_c, 0, 89, 0
2, 508920, Note_on_c, 0, 84, 0
2, 508920, Note_on_c, 0, 96, 86
2, 509040, Note_on_c, 0, 96, 0
2, 509040, Note_on_c, 0, 84, 86
2, 509040, Note_on_c, 0, 89, 86
2, 509040, Note_on_c, 0, 91, 86
2, 509160, Note_on_c, 0, 91, 0
2, 509160, Note_on_c, 0, 89, 0
2, 509160, Note_on_c, 0, 84, 0
2, 509160, Note_on_c, 0, 96, 86
2, 509280, Note_on_c, 0, 96, 0
2, 509280, Note_on_c, 0, 84, 86
2, 509280, Note_on_c, 0, 88, 86
2, 509280, Note_on_c, 0, 91, 86
2, 509400, Note_on_c, 0, 91, 0
2, 509400, Note_on_c, 0, 88, 0
2, 509400, Note_on_c, 0, 84, 0
2, 509400, Note_on_c, 0, 96, 86
2, 509520, Note_on_c, 0, 96, 0
2, 509520, Note_on_c, 0, 60, 86
2, 509640, Note_on_c, 0, 60, 0
2, 509640, Note_on_c, 0, 84, 86
2, 509760, Note_on_c, 0, 84, 0
2, 509760, Note_on_c, 0, 64, 86
2, 509880, Note_on_c, 0, 64, 0
2, 509880, Note_on_c, 0, 88, 86
2, 510000, Note_on_c, 0, 88, 0
2, 510000, Note_on_c, 0, 67, 86
2, 510120, Note_on_c, 0, 67, 0
2, 510120, Note_on_c, 0, 91, 86
2, 510240, Note_on_c, 0, 91, 0
2, 510240, Note_on_c, 0, 71, 86
2, 510360, Note_on_c, 0, 71, 0
2, 510360, Note_on_c, 0, 83, 86
2, 510360, Note_on_c, 0, 95, 86
2, 510480, Note_on_c, 0, 95, 0
2, 510480, Note_on_c, 0, 83, 0
2, 510480, Note_on_c, 0, 72, 86
2, 510600, Note_on_c, 0, 72, 0
2, 510600, Note_on_c, 0, 84, 86
2, 510600, Note_on_c, 0, 96, 86
2, 510720, Note_on_c, 0, 96, 0
2, 510720, Note_on_c, 0, 84, 0
2, 510720, Note_on_c, 0, 85, 86
2, 510840, Note_on_c, 0, 85, 0
2, 510840, Note_on_c, 0, 97, 86
2, 510960, Note_on_c, 0, 97, 0
2, 510960, Note_on_c, 0, 85, 86
2, 511080, Note_on_c, 0, 85, 0
2, 511080, Note_on_c, 0, 97, 86
2, 511200, Note_on_c, 0, 97, 0
2, 511200, Note_on_c, 0, 85, 86
2, 511320, Note_on_c, 0, 85, 0
2, 511320, Note_on_c, 0, 97, 86
2, 511440, Note_on_c, 0, 97, 0
2, 511440, Note_on_c, 0, 85, 86
2, 511560, Note_on_c, 0, 85, 0
2, 511560, Note_on_c, 0, 97, 86
2, 511680, Note_on_c, 0, 97, 0
2, 511680, Note_on_c, 0, 84, 86
2, 511800, Note_on_c, 0, 84, 0
2, 511800, Note_on_c, 0, 96, 86
2, 511920, Note_on_c, 0, 96, 0
2, 511920, Note_on_c, 0, 84, 86
2, 512040, Note_on_c, 0, 84, 0
2, 512040, Note_on_c, 0, 96, 86
2, 512160, Note_on_c, 0, 96, 0
2, 512160, Note_on_c, 0, 82, 86
2, 512280, Note_on_c, 0, 82, 0
2, 512280, Note_on_c, 0, 94, 86
2, 512400, Note_on_c, 0, 94, 0
2, 512400, Note_on_c, 0, 82, 86
2, 512520, Note_on_c, 0, 82, 0
2, 512520, Note_on_c, 0, 94, 86
2, 512640, Note_on_c, 0, 94, 0
2, 512640, Note_on_c, 0, 80, 86
2, 512760, Note_on_c, 0, 80, 0
2, 512760, Note_on_c, 0, 92, 86
2, 512880, Note_on_c, 0, 92, 0
2, 512880, Note_on_c, 0, 80, 86
2, 513000, Note_on_c, 0, 80, 0
2, 513000, Note_on_c, 0, 92, 86
2, 513120, Note_on_c, 0, 92, 0
2, 513120, Note_on_c, 0, 80, 86
2, 513240, Note_on_c, 0, 80, 0
2, 513240, Note_on_c, 0, 92, 86
2, 513360, Note_on_c, 0, 92, 0
2, 513360, Note_on_c, 0, 80, 86
2, 513480, Note_on_c, 0, 80, 0
2, 513480, Note_on_c, 0, 92, 86
2, 513600, Note_on_c, 0, 92, 0
2, 513600, Note_on_c, 0, 79, 86
2, 513720, Note_on_c, 0, 79, 0
2, 513720, Note_on_c, 0, 91, 86
2, 513840, Note_on_c, 0, 91, 0
2, 513840, Note_on_c, 0, 79, 86
2, 513960, Note_on_c, 0, 79, 0
2, 513960, Note_on_c, 0, 91, 86
2, 514080, Note_on_c, 0, 91, 0
2, 514080, Note_on_c, 0, 77, 86
2, 514200, Note_on_c, 0, 77, 0
2, 514200, Note_on_c, 0, 89, 86
2, 514320, Note_on_c, 0, 89, 0
2, 514320, Note_on_c, 0, 77, 86
2, 514440, Note_on_c, 0, 77, 0
2, 514440, Note_on_c, 0, 89, 86
2, 514560, Note_on_c, 0, 89, 0
2, 514560, Control_c, 0, 64, 127
2, 514560, Note_on_c, 0, 87, 86
2, 514680, Note_on_c, 0, 87, 0
2, 514680, Note_on_c, 0, 85, 86
2, 514800, Note_on_c, 0, 85, 0
2, 514800, Note_on_c, 0, 84, 86
2, 514920, Note_on_c, 0, 84, 0
2, 514920, Note_on_c, 0, 83, 86
2, 515040, Note_on_c, 0, 83, 0
2, 515040, Note_on_c, 0, 87, 86
2, 515160, Note_on_c, 0, 87, 0
2, 515160, Note_on_c, 0, 85, 86
2, 515280, Note_on_c, 0, 85, 0
2, 515280, Note_on_c, 0, 84, 86
2, 515400, Note_on_c, 0, 84, 0
2, 515400, Note_on_c, 0, 83, 86
2, 515520, Note_on_c, 0, 83, 0
2, 515520, Note_on_c, 0, 87, 86
2, 515640, Note_on_c, 0, 87, 0
2, 515640, Note_on_c, 0, 85, 86
2, 515760, Note_on_c, 0, 85, 0
2, 515760, Note_on_c, 0, 84, 86
2, 515880, Note_on_c, 0, 84, 0
2, 515880, Note_on_c, 0, 83, 86
2, 516000, Note_on_c, 0, 83, 0
2, 516000, Note_on_c, 0, 87, 86
2, 516120, Note_on_c, 0, 87, 0
2, 516120, Note_on_c, 0, 85, 86
2, 516240, Note_on_c, 0, 85, 0
2, 516240, Note_on_c, 0, 84, 86
2, 516360, Note_on_c, 0, 84, 0
2, 516360, Control_c, 0, 64, 0
2, 516360, Note_on_c, 0, 83, 86
2, 516480, Note_on_c, 0, 83, 0
2, 516480, Control_c, 0, 64, 127
2, 516480, Note_on_c, 0, 87, 86
2, 516600, Note_on_c, 0, 87, 0
2, 516600, Note_on_c, 0, 85, 86
2, 516720, Note_on_c, 0, 85, 0
2, 516720, Note_on_c, 0, 84, 86
2, 516840, Note_on_c, 0, 84, 0
2, 516840, Note_on_c, 0, 83, 86
2, 516960, Note_on_c, 0, 83, 0
2, 516960, Note_on_c, 0, 87, 86
2, 517080, Note_on_c, 0, 87, 0
2, 517080, Note_on_c, 0, 85, 86
2, 517200, Note_on_c, 0, 85, 0
2, 517200, Note_on_c, 0, 84, 86
2, 517320, Note_on_c, 0, 84, 0
2, 517320, Note_on_c, 0, 83, 86
2, 517440, Note_on_c, 0, 83, 0
2, 517440, Note_on_c, 0, 87, 86
2, 517560, Note_on_c, 0, 87, 0
2, 517560, Note_on_c, 0, 85, 86
2, 517680, Note_on_c, 0, 85, 0
2, 517680, Note_on_c, 0, 84, 86
2, 517800, Note_on_c, 0, 84, 0
2, 517800, Note_on_c, 0, 83, 86
2, 517920, Note_on_c, 0, 83, 0
2, 517920, Note_on_c, 0, 87, 86
2, 518040, Note_on_c, 0, 87, 0
2, 518040, Note_on_c, 0, 85, 86
2, 518160, Note_on_c, 0, 85, 0
2, 518160, Note_on_c, 0, 84, 86
2, 518280, Note_on_c, 0, 84, 0
2, 518280, Control_c, 0, 64, 0
2, 518280, Note_on_c, 0, 83, 86
2, 518400, Note_on_c, 0, 83, 0
2, 518400, Note_on_c, 0, 81, 86
2, 518400, Note_on_c, 0, 84, 86
2, 518400, Note_on_c, 0, 89, 86
2, 518640, Note_on_c, 0, 89, 0
2, 518640, Note_on_c, 0, 84, 0
2, 518640, Note_on_c, 0, 81, 0
2, 518640, Note_on_c, 0, 81, 86
2, 518640, Note_on_c, 0, 84, 86
2, 518640, Note_on_c, 0, 88, 86
2, 518880, Note_on_c, 0, 88, 0
2, 518880, Note_on_c, 0, 84, 0
2, 518880, Note_on_c, 0, 81, 0
2, 518880, Note_on_c, 0, 81, 86
2, 518880, Note_on_c, 0, 84, 86
2, 518880, Note_on_c, 0, 89, 86
2, 519360, Note_on_c, 0, 89, 0
2, 519360, Note_on_c, 0, 84, 0
2, 519360, Note_on_c, 0, 81, 0
2, 519360, Note_on_c, 0, 77, 86
2, 519360, Note_on_c, 0, 81, 86
2, 519360, Note_on_c, 0, 85, 86
2, 519360, Note_on_c, 0, 89, 86
2, 519600, Note_on_c, 0, 89, 0
2, 519600, Note_on_c, 0, 77, 0
2, 519600, Note_on_c, 0, 81, 0
2, 519600, Note_on_c, 0, 85, 0
2, 519600, Note_on_c, 0, 76, 86
2, 519600, Note_on_c, 0, 81, 86
2, 519600, Note_on_c, 0, 85, 86
2, 519600, Note_on_c, 0, 88, 86
2, 519840, Note_on_c, 0, 88, 0
2, 519840, Note_on_c, 0, 76, 0
2, 519840, Note_on_c, 0, 81, 0
2, 519840, Note_on_c, 0, 85, 0
2, 519840, Note_on_c, 0, 77, 86
2, 519840, Note_on_c, 0, 81, 86
2, 519840, Note_on_c, 0, 85, 86
2, 519840, Note_on_c, 0, 89, 86
2, 520320, Note_on_c, 0, 89, 0
2, 520320, Note_on_c, 0, 77, 0
2, 520320, Note_on_c, 0, 81, 0
2, 520320, Note_on_c, 0, 85, 0
2, 520320, Note_on_c, 0, 77, 86
2, 520320, Note_on_c, 0, 80, 86
2, 520320, Note_on_c, 0, 85, 86
2, 520320, Note_on_c, 0, 89, 86
2, 520560, Note_on_c, 0, 89, 0
2, 520560, Note_on_c, 0, 77, 0
2, 520560, Note_on_c, 0, 80, 0
2, 520560, Note_on_c, 0, 85, 0
2, 520560, Note_on_c, 0, 76, 86
2, 520560, Note_on_c, 0, 80, 86
2, 520560, Note_on_c, 0, 85, 86
2, 520560, Note_on_c, 0, 88, 86
2, 520800, Note_on_c, 0, 88, 0
2, 520800, Note_on_c, 0, 76, 0
2, 520800, Note_on_c, 0, 80, 0
2, 520800, Note_on_c, 0, 85, 0
2, 520800, Note_on_c, 0, 77, 86
2, 520800, Note_on_c, 0, 80, 86
2, 520800, Note_on_c, 0, 85, 86
2, 520800, Note_on_c, 0, 89, 86
2, 521280, Note_on_c, 0, 89, 0
2, 521280, Note_on_c, 0, 77, 0
2, 521280, Note_on_c, 0, 80, 0
2, 521280, Note_on_c, 0, 85, 0
2, 521280, Note_on_c, 0, 77, 86
2, 521400, Note_on_c, 0, 77, 0
2, 521400, Note_on_c, 0, 89, 86
2, 521520, Note_on_c, 0, 89, 0
2, 521520, Note_on_c, 0, 77, 86
2, 521640, Note_on_c, 0, 77, 0
2, 521640, Note_on_c, 0, 89, 86
2, 521760, Note_on_c, 0, 89, 0
2, 521760, Note_on_c, 0, 79, 86
2, 521760, Note_on_c, 0, 82, 86
2, 521880, Note_on_c, 0, 82, 0
2, 521880, Note_on_c, 0, 79, 0
2, 521880, Note_on_c, 0, 91, 86
2, 522000, Note_on_c, 0, 91, 0
2, 522000, Note_on_c, 0, 79, 86
2, 522000, Note_on_c, 0, 82, 86
2, 522120, Note_on_c, 0, 82, 0
2, 522120, Note_on_c, 0, 79, 0
2, 522120, Note_on_c, 0, 91, 86
2, 522240, Note_on_c, 0, 91, 0
2, 522240, Note_on_c, 0, 81, 86
2, 522240, Note_on_c, 0, 84, 86
2, 522240, Note_on_c, 0, 89, 86
2, 522480, Note_on_c, 0, 89, 0
2, 522480, Note_on_c, 0, 84, 0
2, 522480, Note_on_c, 0, 81, 0
2, 522480, Note_on_c, 0, 81, 86
2, 522480, Note_on_c, 0, 84, 86
2, 522480, Note_on_c, 0, 88, 86
2, 522720, Note_on_c, 0, 88, 0
2, 522720, Note_on_c, 0, 84, 0
2, 522720, Note_on_c, 0, 81, 0
2, 522720, Note_on_c, 0, 81, 86
2, 522720, Note_on_c, 0, 84, 86
2, 522720, Note_on_c, 0, 89, 86
2, 523200, Note_on_c, 0, 89, 0
2, 523200, Note_on_c, 0, 84, 0
2, 523200, Note_on_c, 0, 81, 0
2, 523200, Note_on_c, 0, 77, 86
2, 523200, Note_on_c, 0, 81, 86
2, 523200, Note_on_c, 0, 85, 86
2, 523200, Note_on_c, 0, 89, 86
2, 523440, Note_on_c, 0, 89, 0
2, 523440, Note_on_c, 0, 77, 0
2, 523440, Note_on_c, 0, 81, 0
2, 523440, Note_on_c, 0, 85, 0
2, 523440, Note_on_c, 0, 76, 86
2, 523440, Note_on_c, 0, 81, 86
2, 523440, Note_on_c, 0, 85, 86
2, 523440, Note_on_c, 0, 88, 86
2, 523680, Note_on_c, 0, 88, 0
2, 523680, Note_on_c, 0, 76, 0
2, 523680, Note_on_c, 0, 81, 0
2, 523680, Note_on_c, 0, 85, 0
2, 523680, Note_on_c, 0, 77, 86
2, 523680, Note_on_c, 0, 81, 86
2, 523680, Note_on_c, 0, 85, 86
2, 523680, Note_on_c, 0, 89, 86
2, 524160, Note_on_c, 0, 89, 0
2, 524160, Note_on_c, 0, 77, 0
2, 524160, Note_on_c, 0, 81, 0
2, 524160, Note_on_c, 0, 85, 0
2, 524160, Note_on_c, 0, 77, 86
2, 524160, Note_on_c, 0, 80, 86
2, 524160, Note_on_c, 0, 85, 86
2, 524160, Note_on_c, 0, 89, 86
2, 524400, Note_on_c, 0, 89, 0
2, 524400, Note_on_c, 0, 77, 0
2, 524400, Note_on_c, 0, 80, 0
2, 524400, Note_on_c, 0, 85, 0
2, 524400, Note_on_c, 0, 76, 86
2, 524400, Note_on_c, 0, 80, 86
2, 524400, Note_on_c, 0, 85, 86
2, 524400, Note_on_c, 0, 88, 86
2, 524640, Note_on_c, 0, 88, 0
2, 524640, Note_on_c, 0, 76, 0
2, 524640, Note_on_c, 0, 80, 0
2, 524640, Note_on_c, 0, 85, 0
2, 524640, Note_on_c, 0, 77, 86
2, 524640, Note_on_c, 0, 80, 86
2, 524640, Note_on_c, 0, 85, 86
2, 524640, Note_on_c, 0, 89, 86
2, 525120, Note_on_c, 0, 89, 0
2, 525120, Note_on_c, 0, 77, 0
2, 525120, Note_on_c, 0, 80, 0
2, 525120, Note_on_c, 0, 85, 0
2, 525120, Note_on_c, 0, 77, 86
2, 525240, Note_on_c, 0, 77, 0
2, 525240, Note_on_c, 0, 89, 86
2, 525360, Note_on_c, 0, 89, 0
2, 525360, Note_on_c, 0, 77, 86
2, 525480, Note_on_c, 0, 77, 0
2, 525480, Note_on_c, 0, 89, 86
2, 525600, Note_on_c, 0, 89, 0
2, 525600, Note_on_c, 0, 79, 86
2, 525600, Note_on_c, 0, 82, 86
2, 525720, Note_on_c, 0, 82, 0
2, 525720, Note_on_c, 0, 79, 0
2, 525720, Note_on_c, 0, 91, 86
2, 525840, Note_on_c, 0, 91, 0
2, 525840, Note_on_c, 0, 79, 86
2, 525840, Note_on_c, 0, 82, 86
2, 525960, Note_on_c, 0, 82, 0
2, 525960, Note_on_c, 0, 79, 0
2, 525960, Note_on_c, 0, 91, 86
2, 526080, Note_on_c, 0, 91, 0
2, 526080, Note_on_c, 0, 79, 86
2, 526200, Note_on_c, 0, 79, 0
2, 526200, Note_on_c, 0, 91, 86
2, 526320, Note_on_c, 0, 91, 0
2, 526320, Note_on_c, 0, 79, 86
2, 526440, Note_on_c, 0, 79, 0
2, 526440, Note_on_c, 0, 91, 86
2, 526560, Note_on_c, 0, 91, 0
2, 526560, Note_on_c, 0, 81, 86
2, 526560, Note_on_c, 0, 84, 86
2, 526680, Note_on_c, 0, 84, 0
2, 526680, Note_on_c, 0, 81, 0
2, 526680, Note_on_c, 0, 93, 86
2, 526800, Note_on_c, 0, 93, 0
2, 526800, Note_on_c, 0, 81, 86
2, 526800, Note_on_c, 0, 84, 86
2, 526920, Note_on_c, 0, 84, 0
2, 526920, Note_on_c, 0, 81, 0
2, 526920, Note_on_c, 0, 93, 86
2, 527040, Note_on_c, 0, 93, 0
2, 527040, Note_on_c, 0, 81, 86
2, 527160, Note_on_c, 0, 81, 0
2, 527160, Note_on_c, 0, 93, 86
2, 527280, Note_on_c, 0, 93, 0
2, 527280, Note_on_c, 0, 81, 86
2, 527400, Note_on_c, 0, 81, 0
2, 527400, Note_on_c, 0, 93, 86
2, 527520, Note_on_c, 0, 93, 0
2, 527520, Note_on_c, 0, 82, 86
2, 527520, Note_on_c, 0, 86, 86
2, 527640, Note_on_c, 0, 86, 0
2, 527640, Note_on_c, 0, 82, 0
2, 527640, Note_on_c, 0, 94, 86
2, 527760, Note_on_c, 0, 94, 0
2, 527760, Note_on_c, 0, 82, 86
2, 527760, Note_on_c, 0, 86, 86
2, 527880, Note_on_c, 0, 86, 0
2, 527880, Note_on_c, 0, 82, 0
2, 527880, Note_on_c, 0, 94, 86
2, 528000, Note_on_c, 0, 94, 0
2, 528000, Note_on_c, 0, 82, 86
2, 528120, Note_on_c, 0, 82, 0
2, 528120, Note_on_c, 0, 94, 86
2, 528240, Note_on_c, 0, 94, 0
2, 528240, Note_on_c, 0, 82, 86
2, 528360, Note_on_c, 0, 82, 0
2, 528360, Note_on_c, 0, 94, 86
2, 528480, Note_on_c, 0, 94, 0
2, 528480, Note_on_c, 0, 83, 86
2, 528480, Note_on_c, 0, 86, 86
2, 528600, Note_on_c, 0, 86, 0
2, 528600, Note_on_c, 0, 83, 0
2, 528600, Note_on_c, 0, 95, 86
2, 528720, Note_on_c, 0, 95, 0
2, 528720, Note_on_c, 0, 83, 86
2, 528720, Note_on_c, 0, 86, 86
2, 528840, Note_on_c, 0, 86, 0
2, 528840, Note_on_c, 0, 83, 0
2, 528840, Note_on_c, 0, 95, 86
2, 528960, Note_on_c, 0, 95, 0
2, 528960, Note_on_c, 0, 83, 86
2, 529080, Note_on_c, 0, 83, 0
2, 529080, Note_on_c, 0, 95, 86
2, 529200, Note_on_c, 0, 95, 0
2, 529200, Note_on_c, 0, 83, 86
2, 529320, Note_on_c, 0, 83, 0
2, 529320, Note_on_c, 0, 95, 86
2, 529440, Note_on_c, 0, 95, 0
2, 529440, Note_on_c, 0, 84, 86
2, 529440, Note_on_c, 0, 91, 86
2, 529560, Note_on_c, 0, 91, 0
2, 529560, Note_on_c, 0, 84, 0
2, 529560, Note_on_c, 0, 96, 86
2, 529680, Note_on_c, 0, 96, 0
2, 529680, Note_on_c, 0, 84, 86
2, 529680, Note_on_c, 0, 90, 86
2, 529800, Note_on_c, 0, 90, 0
2, 529800, Note_on_c, 0, 84, 0
2, 529800, Note_on_c, 0, 96, 86
2, 529920, Note_on_c, 0, 96, 0
2, 529920, Note_on_c, 0, 84, 86
2, 530040, Note_on_c, 0, 84, 0
2, 530040, Note_on_c, 0, 96, 86
2, 530160, Note_on_c, 0, 96, 0
2, 530160, Note_on_c, 0, 84, 86
2, 530160, Note_on_c, 0, 90, 86
2, 530280, Note_on_c, 0, 90, 0
2, 530280, Note_on_c, 0, 84, 0
2, 530280, Note_on_c, 0, 96, 86
2, 530400, Note_on_c, 0, 96, 0
2, 530400, Note_on_c, 0, 82, 86
2, 530520, Note_on_c, 0, 82, 0
2, 530520, Note_on_c, 0, 94, 86
2, 530640, Note_on_c, 0, 94, 0
2, 530640, Note_on_c, 0, 82, 86
2, 530640, Note_on_c, 0, 91, 86
2, 530760, Note_on_c, 0, 91, 0
2, 530760, Note_on_c, 0, 82, 0
2, 530760, Note_on_c, 0, 94, 86
2, 530880, Note_on_c, 0, 94, 0
2, 530880, Note_on_c, 0, 81, 86
2, 531000, Note_on_c, 0, 81, 0
2, 531000, Note_on_c, 0, 93, 86
2, 531120, Note_on_c, 0, 93, 0
2, 531120, Note_on_c, 0, 81, 86
2, 531120, Note_on_c, 0, 89, 86
2, 531240, Note_on_c, 0, 89, 0
2, 531240, Note_on_c, 0, 81, 0
2, 531240, Note_on_c, 0, 93, 86
2, 531360, Note_on_c, 0, 93, 0
2, 531360, Note_on_c, 0, 79, 86
2, 531480, Note_on_c, 0, 79, 0
2, 531480, Note_on_c, 0, 91, 86
2, 531600, Note_on_c, 0, 91, 0
2, 531600, Note_on_c, 0, 79, 86
2, 531600, Note_on_c, 0, 82, 86
2, 531720, Note_on_c, 0, 82, 0
2, 531720, Note_on_c, 0, 79, 0
2, 531720, Note_on_c, 0, 91, 86
2, 531840, Note_on_c, 0, 91, 0
2, 531840, Note_on_c, 0, 77, 86
2, 531960, Note_on_c, 0, 77, 0
2, 531960, Note_on_c, 0, 89, 86
2, 532080, Note_on_c, 0, 89, 0
2, 532080, Note_on_c, 0, 77, 86
2, 532080, Note_on_c, 0, 83, 86
2, 532200, Note_on_c, 0, 83, 0
2, 532200, Note_on_c, 0, 77, 0
2, 532200, Note_on_c, 0, 89, 86
2, 532320, Note_on_c, 0, 89, 0
2, 532320, Note_on_c, 0, 76, 86
2, 532440, Note_on_c, 0, 76, 0
2, 532440, Note_on_c, 0, 88, 86
2, 532560, Note_on_c, 0, 88, 0
2, 532560, Note_on_c, 0, 76, 86
2, 532560, Note_on_c, 0, 84, 86
2, 532680, Note_on_c, 0, 84, 0
2, 532680, Note_on_c, 0, 76, 0
2, 532680, Note_on_c, 0, 88, 86
2, 532800, Note_on_c, 0, 88, 0
2, 532800, Note_on_c, 0, 74, 86
2, 532920, Note_on_c, 0, 74, 0
2, 532920, Note_on_c, 0, 86, 86
2, 533040, Note_on_c, 0, 86, 0
2, 533040, Note_on_c, 0, 74, 86
2, 533040, Note_on_c, 0, 77, 86
2, 533160, Note_on_c, 0, 77, 0
2, 533160, Note_on_c, 0, 74, 0
2, 533160, Note_on_c, 0, 86, 86
2, 533280, Note_on_c, 0, 86, 0
2, 533280, Note_on_c, 0, 76, 86
2, 533400, Note_on_c, 0, 76, 0
2, 533400, Note_on_c, 0, 88, 86
2, 533520, Note_on_c, 0, 88, 0
2, 533520, Note_on_c, 0, 76, 86
2, 533520, Note_on_c, 0, 84, 86
2, 533640, Note_on_c, 0, 84, 0
2, 533640, Note_on_c, 0, 76, 0
2, 533640, Note_on_c, 0, 88, 86
2, 533760, Note_on_c, 0, 88, 0
2, 533760, Note_on_c, 0, 89, 86
2, 533880, Note_on_c, 0, 89, 0
2, 533880, Note_on_c, 0, 77, 86
2, 534000, Note_on_c, 0, 77, 0
2, 534000, Note_on_c, 0, 86, 86
2, 534120, Note_on_c, 0, 86, 0
2, 534120, Note_on_c, 0, 84, 86
2, 534240, Note_on_c, 0, 84, 0
2, 534240, Note_on_c, 0, 88, 86
2, 534360, Note_on_c, 0, 88, 0
2, 534360, Note_on_c, 0, 76, 86
2, 534480, Note_on_c, 0, 76, 0
2, 534480, Note_on_c, 0, 86, 86
2, 534600, Note_on_c, 0, 86, 0
2, 534600, Note_on_c, 0, 84, 86
2, 534720, Note_on_c, 0, 84, 0
2, 534720, Note_on_c, 0, 89, 86
2, 534840, Note_on_c, 0, 89, 0
2, 534840, Note_on_c, 0, 77, 86
2, 534960, Note_on_c, 0, 77, 0
2, 534960, Note_on_c, 0, 86, 86
2, 535080, Note_on_c, 0, 86, 0
2, 535080, Note_on_c, 0, 84, 86
2, 535200, Note_on_c, 0, 84, 0
2, 535200, Note_on_c, 0, 88, 86
2, 535320, Note_on_c, 0, 88, 0
2, 535320, Note_on_c, 0, 76, 86
2, 535440, Note_on_c, 0, 76, 0
2, 535440, Note_on_c, 0, 86, 86
2, 535560, Note_on_c, 0, 86, 0
2, 535560, Note_on_c, 0, 84, 86
2, 535680, Note_on_c, 0, 84, 0
2, 535680, Note_on_c, 0, 89, 86
2, 535800, Note_on_c, 0, 89, 0
2, 535800, Note_on_c, 0, 77, 86
2, 535920, Note_on_c, 0, 77, 0
2, 535920, Note_on_c, 0, 86, 86
2, 536040, Note_on_c, 0, 86, 0
2, 536040, Note_on_c, 0, 84, 86
2, 536160, Note_on_c, 0, 84, 0
2, 536160, Note_on_c, 0, 88, 86
2, 536280, Note_on_c, 0, 88, 0
2, 536280, Note_on_c, 0, 76, 86
2, 536400, Note_on_c, 0, 76, 0
2, 536400, Note_on_c, 0, 86, 86
2, 536520, Note_on_c, 0, 86, 0
2, 536520, Note_on_c, 0, 84, 86
2, 536640, Note_on_c, 0, 84, 0
2, 536640, Note_on_c, 0, 89, 86
2, 536760, Note_on_c, 0, 89, 0
2, 536760, Note_on_c, 0, 77, 86
2, 536880, Note_on_c, 0, 77, 0
2, 536880, Note_on_c, 0, 86, 86
2, 537000, Note_on_c, 0, 86, 0
2, 537000, Note_on_c, 0, 84, 86
2, 537120, Note_on_c, 0, 84, 0
2, 537120, Note_on_c, 0, 88, 86
2, 537240, Note_on_c, 0, 88, 0
2, 537240, Note_on_c, 0, 76, 86
2, 537360, Note_on_c, 0, 76, 0
2, 537360, Note_on_c, 0, 86, 86
2, 537480, Note_on_c, 0, 86, 0
2, 537480, Note_on_c, 0, 84, 86
2, 537600, Note_on_c, 0, 84, 0
2, 537720, Note_on_c, 0, 81, 86
2, 537720, Note_on_c, 0, 84, 86
2, 537720, Note_on_c, 0, 89, 86
2, 537840, Note_on_c, 0, 89, 0
2, 537840, Note_on_c, 0, 84, 0
2, 537840, Note_on_c, 0, 81, 0
2, 537960, Note_on_c, 0, 79, 86
2, 537960, Note_on_c, 0, 84, 86
2, 537960, Note_on_c, 0, 88, 86
2, 538080, Note_on_c, 0, 88, 0
2, 538080, Note_on_c, 0, 84, 0
2, 538080, Note_on_c, 0, 79, 0
2, 538200, Note_on_c, 0, 81, 86
2, 538200, Note_on_c, 0, 84, 86
2, 538200, Note_on_c, 0, 89, 86
2, 538320, Note_on_c, 0, 89, 0
2, 538320, Note_on_c, 0, 84, 0
2, 538320, Note_on_c, 0, 81, 0
2, 538440, Note_on_c, 0, 79, 86
2, 538440, Note_on_c, 0, 84, 86
2, 538440, Note_on_c, 0, 88, 86
2, 538560, Note_on_c, 0, 88, 0
2, 538560, Note_on_c, 0, 84, 0
2, 538560, Note_on_c, 0, 79, 0
2, 538680, Note_on_c, 0, 81, 86
2, 538680, Note_on_c, 0, 84, 86
2, 538680, Note_on_c, 0, 89, 86
2, 538800, Note_on_c, 0, 89, 0
2, 538800, Note_on_c, 0, 84, 0
2, 538800, Note_on_c, 0, 81, 0
2, 538920, Note_on_c, 0, 79, 86
2, 538920, Note_on_c, 0, 84, 86
2, 538920, Note_on_c, 0, 88, 86
2, 539040, Note_on_c, 0, 88, 0
2, 539040, Note_on_c, 0, 84, 0
2, 539040, Note_on_c, 0, 79, 0
2, 539160, Note_on_c, 0, 81, 86
2, 539160, Note_on_c, 0, 84, 86
2, 539160, Note_on_c, 0, 89, 86
2, 539280, Note_on_c, 0, 89, 0
2, 539280, Note_on_c, 0, 84, 0
2, 539280, Note_on_c, 0, 81, 0
2, 539400, Note_on_c, 0, 79, 86
2, 539400, Note_on_c, 0, 84, 86
2, 539400, Note_on_c, 0, 88, 86
2, 539520, Note_on_c, 0, 88, 0
2, 539520, Note_on_c, 0, 84, 0
2, 539520, Note_on_c, 0, 79, 0
2, 539640, Note_on_c, 0, 81, 86
2, 539640, Note_on_c, 0, 84, 86
2, 539640, Note_on_c, 0, 89, 86
2, 539760, Note_on_c, 0, 89, 0
2, 539760, Note_on_c, 0, 84, 0
2, 539760, Note_on_c, 0, 81, 0
2, 539880, Note_on_c, 0, 79, 86
2, 539880, Note_on_c, 0, 84, 86
2, 539880, Note_on_c, 0, 88, 86
2, 539880, Note_on_c, 0, 91, 86
2, 540000, Note_on_c, 0, 91, 0
2, 540000, Note_on_c, 0, 79, 0
2, 540000, Note_on_c, 0, 84, 0
2, 540000, Note_on_c, 0, 88, 0
2, 540120, Note_on_c, 0, 81, 86
2, 540120, Note_on_c, 0, 84, 86
2, 540120, Note_on_c, 0, 89, 86
2, 540120, Note_on_c, 0, 93, 86
2, 540240, Note_on_c, 0, 93, 0
2, 540240, Note_on_c, 0, 81, 0
2, 540240, Note_on_c, 0, 84, 0
2, 540240, Note_on_c, 0, 89, 0
2, 540360, Note_on_c, 0, 79, 86
2, 540360, Note_on_c, 0, 84, 86
2, 540360, Note_on_c, 0, 88, 86
2, 540360, Note_on_c, 0, 91, 86
2, 540480, Note_on_c, 0, 91, 0
2, 540480, Note_on_c, 0, 79, 0
2, 540480, Note_on_c, 0, 84, 0
2, 540480, Note_on_c, 0, 88, 0
2, 540600, Note_on_c, 0, 81, 86
2, 540600, Note_on_c, 0, 84, 86
2, 540600, Note_on_c, 0, 89, 86
2, 540600, Note_on_c, 0, 93, 86
2, 540720, Note_on_c, 0, 93, 0
2, 540720, Note_on_c, 0, 81, 0
2, 540720, Note_on_c, 0, 84, 0
2, 540720, Note_on_c, 0, 89, 0
2, 540840, Note_on_c, 0, 79, 86
2, 540840, Note_on_c, 0, 84, 86
2, 540840, Note_on_c, 0, 88, 86
2, 540840, Note_on_c, 0, 91, 86
2, 540960, Note_on_c, 0, 91, 0
2, 540960, Note_on_c, 0, 79, 0
2, 540960, Note_on_c, 0, 84, 0
2, 540960, Note_on_c, 0, 88, 0
2, 541080, Note_on_c, 0, 81, 86
2, 541080, Note_on_c, 0, 84, 86
2, 541080, Note_on_c, 0, 89, 86
2, 541080, Note_on_c, 0, 93, 86
2, 541200, Note_on_c, 0, 93, 0
2, 541200, Note_on_c, 0, 81, 0
2, 541200, Note_on_c, 0, 84, 0
2, 541200, Note_on_c, 0, 89, 0
2, 541320, Note_on_c, 0, 79, 86
2, 541320, Note_on_c, 0, 84, 86
2, 541320, Note_on_c, 0, 88, 86
2, 541320, Note_on_c, 0, 91, 86
2, 541440, Note_on_c, 0, 91, 0
2, 541440, Note_on_c, 0, 79, 0
2, 541440, Note_on_c, 0, 84, 0
2, 541440, Note_on_c, 0, 88, 0
2, 541560, Note_on_c, 0, 81, 86
2, 541560, Note_on_c, 0, 84, 86
2, 541560, Note_on_c, 0, 89, 86
2, 541560, Note_on_c, 0, 93, 86
2, 541680, Note_on_c, 0, 93, 0
2, 541680, Note_on_c, 0, 81, 0
2, 541680, Note_on_c, 0, 84, 0
2, 541680, Note_on_c, 0, 89, 0
2, 541800, Note_on_c, 0, 84, 86
2, 541800, Note_on_c, 0, 88, 86
2, 541800, Note_on_c, 0, 91, 86
2, 541800, Note_on_c, 0, 96, 86
2, 541920, Note_on_c, 0, 96, 0
2, 541920, Note_on_c, 0, 84, 0
2, 541920, Note_on_c, 0, 88, 0
2, 541920, Note_on_c, 0, 91, 0
2, 542040, Note_on_c, 0, 84, 86
2, 542040, Note_on_c, 0, 89, 86
2, 542040, Note_on_c, 0, 93, 86
2, 542040, Note_on_c, 0, 96, 86
2, 542160, Note_on_c, 0, 96, 0
2, 542160, Note_on_c, 0, 84, 0
2, 542160, Note_on_c, 0, 89, 0
2, 542160, Note_on_c, 0, 93, 0
2, 542280, Note_on_c, 0, 84, 86
2, 542280, Note_on_c, 0, 88, 86
2, 542280, Note_on_c, 0, 91, 86
2, 542280, Note_on_c, 0, 96, 86
2, 542400, Note_on_c, 0, 96, 0
2, 542400, Note_on_c, 0, 84, 0
2, 542400, Note_on_c, 0, 88, 0
2, 542400, Note_on_c, 0, 91, 0
2, 542520, Note_on_c, 0, 84, 86
2, 542520, Note_on_c, 0, 89, 86
2, 542520, Note_on_c, 0, 93, 86
2, 542520, Note_on_c, 0, 96, 86
2, 542640, Note_on_c, 0, 96, 0
2, 542640, Note_on_c, 0, 84, 0
2, 542640, Note_on_c, 0, 89, 0
2, 542640, Note_on_c, 0, 93, 0
2, 542760, Note_on_c, 0, 84, 86
2, 542760, Note_on_c, 0, 88, 86
2, 542760, Note_on_c, 0, 91, 86
2, 542760, Note_on_c, 0, 96, 86
2, 542880, Note_on_c, 0, 96, 0
2, 542880, Note_on_c, 0, 84, 0
2, 542880, Note_on_c, 0, 88, 0
2, 542880, Note_on_c, 0, 91, 0
2, 543000, Note_on_c, 0, 84, 86
2, 543000, Note_on_c, 0, 89, 86
2, 543000, Note_on_c, 0, 93, 86
2, 543000, Note_on_c, 0, 96, 86
2, 543120, Note_on_c, 0, 96, 0
2, 543120, Note_on_c, 0, 84, 0
2, 543120, Note_on_c, 0, 89, 0
2, 543120, Note_on_c, 0, 93, 0
2, 543240, Note_on_c, 0, 84, 86
2, 543240, Note_on_c, 0, 88, 86
2, 543240, Note_on_c, 0, 91, 86
2, 543240, Note_on_c, 0, 96, 86
2, 543360, Note_on_c, 0, 96, 0
2, 543360, Note_on_c, 0, 84, 0
2, 543360, Note_on_c, 0, 88, 0
2, 543360, Note_on_c, 0, 91, 0
2, 543360, Note_on_c, 0, 77, 86
2, 543360, Note_on_c, 0, 81, 86
2, 543360, Note_on_c, 0, 84, 86
2, 543360, Note_on_c, 0, 89, 86
2, 543600, Note_on_c, 0, 89, 0
2, 543600, Note_on_c, 0, 77, 0
2, 543600, Note_on_c, 0, 81, 0
2, 543600, Note_on_c, 0, 84, 0
2, 543840, Note_on_c, 0, 77, 86
2, 543840, Note_on_c, 0, 81, 86
2, 543840, Note_on_c, 0, 84, 86
2, 543840, Note_on_c, 0, 89, 86
2, 544080, Note_on_c, 0, 89, 0
2, 544080, Note_on_c, 0, 77, 0
2, 544080, Note_on_c, 0, 81, 0
2, 544080, Note_on_c, 0, 84, 0
2, 544320, Note_on_c, 0, 77, 86
2, 544320, Note_on_c, 0, 81, 86
2, 544320, Note_on_c, 0, 84, 86
2, 544320, Note_on_c, 0, 89, 86
2, 544560, Note_on_c, 0, 89, 0
2, 544560, Note_on_c, 0, 77, 0
2, 544560, Note_on_c, 0, 81, 0
2, 544560, Note_on_c, 0, 84, 0
2, 544800, Note_on_c, 0, 77, 86
2, 544800, Note_on_c, 0, 81, 86
2, 544800, Note_on_c, 0, 84, 86
2, 544800, Note_on_c, 0, 89, 86
2, 545040, Note_on_c, 0, 89, 0
2, 545040, Note_on_c, 0, 77, 0
2, 545040, Note_on_c, 0, 81, 0
2, 545040, Note_on_c, 0, 84, 0
2, 545280, Note_on_c, 0, 77, 86
2, 545280, Note_on_c, 0, 81, 86
2, 545280, Note_on_c, 0, 84, 86
2, 545280, Note_on_c, 0, 89, 86
2, 545520, Note_on_c, 0, 89, 0
2, 545520, Note_on_c, 0, 77, 0
2, 545520, Note_on_c, 0, 81, 0
2, 545520, Note_on_c, 0, 84, 0
2, 545760, Note_on_c, 0, 77, 86
2, 545760, Note_on_c, 0, 81, 86
2, 545760, Note_on_c, 0, 84, 86
2, 545760, Note_on_c, 0, 89, 86
2, 546000, Note_on_c, 0, 89, 0
2, 546000, Note_on_c, 0, 77, 0
2, 546000, Note_on_c, 0, 81, 0
2, 546000, Note_on_c, 0, 84, 0
2, 546240, Note_on_c, 0, 77, 86
2, 546240, Note_on_c, 0, 81, 86
2, 546240, Note_on_c, 0, 84, 86
2, 546240, Note_on_c, 0, 89, 86
2, 546480, Note_on_c, 0, 89, 0
2, 546480, Note_on_c, 0, 77, 0
2, 546480, Note_on_c, 0, 81, 0
2, 546480, Note_on_c, 0, 84, 0
2, 546720, Note_on_c, 0, 77, 86
2, 546720, Note_on_c, 0, 81, 86
2, 546720, Note_on_c, 0, 84, 86
2, 546720, Note_on_c, 0, 89, 86
2, 546960, Note_on_c, 0, 89, 0
2, 546960, Note_on_c, 0, 77, 0
2, 546960, Note_on_c, 0, 81, 0
2, 546960, Note_on_c, 0, 84, 0
2, 547200, Note_on_c, 0, 77, 86
2, 547200, Note_on_c, 0, 81, 86
2, 547200, Note_on_c, 0, 84, 86
2, 547200, Note_on_c, 0, 89, 86
2, 547440, Note_on_c, 0, 89, 0
2, 547440, Note_on_c, 0, 77, 0
2, 547440, Note_on_c, 0, 81, 0
2, 547440, Note_on_c, 0, 84, 0
2, 548160, Note_on_c, 0, 77, 86
2, 548160, Note_on_c, 0, 81, 86
2, 548160, Note_on_c, 0, 84, 86
2, 548160, Note_on_c, 0, 89, 86
2, 548400, Note_on_c, 0, 89, 0
2, 548400, Note_on_c, 0, 77, 0
2, 548400, Note_on_c, 0, 81, 0
2, 548400, Note_on_c, 0, 84, 0
2, 549120, Note_on_c, 0, 53, 86
2, 549120, Note_on_c, 0, 65, 86
2, 552000, Note_on_c, 0, 65, 0
2, 552000, Note_on_c, 0, 53, 0
2, 552000, Control_c, 0, 64, 127
2, 553440, Control_c, 0, 64, 0
2, 553440, End_track
3, 0, Start_track
3, 0, Title_t, "Grand Piano"
3, 0, Program_c, 0, 0
3, 0, Control_c, 0, 7, 115
3, 0, Control_c, 0, 10, 79
3, 19680, Note_on_c, 0, 69, 62
3, 19800, Note_on_c, 0, 69, 0
3, 19800, Note_on_c, 0, 71, 62
3, 19920, Note_on_c, 0, 71, 0
3, 19920, Note_on_c, 0, 72, 62
3, 20040, Note_on_c, 0, 72, 0
3, 20040, Note_on_c, 0, 74, 62
3, 20160, Note_on_c, 0, 74, 0
3, 20160, Note_on_c, 0, 76, 62
3, 20280, Note_on_c, 0, 76, 0
3, 20280, Note_on_c, 0, 74, 62
3, 20400, Note_on_c, 0, 74, 0
3, 20400, Note_on_c, 0, 72, 62
3, 20520, Note_on_c, 0, 72, 0
3, 20520, Note_on_c, 0, 71, 62
3, 20640, Note_on_c, 0, 71, 0
3, 20640, Note_on_c, 0, 69, 62
3, 20760, Note_on_c, 0, 69, 0
3, 20760, Note_on_c, 0, 68, 62
3, 20880, Note_on_c, 0, 68, 0
3, 20880, Note_on_c, 0, 66, 62
3, 21000, Note_on_c, 0, 66, 0
3, 21000, Note_on_c, 0, 64, 62
3, 21120, Note_on_c, 0, 64, 0
3, 23520, Note_on_c, 0, 69, 62
3, 23640, Note_on_c, 0, 69, 0
3, 23640, Note_on_c, 0, 71, 62
3, 23760, Note_on_c, 0, 71, 0
3, 23760, Note_on_c, 0, 72, 62
3, 23880, Note_on_c, 0, 72, 0
3, 23880, Note_on_c, 0, 74, 62
3, 24000, Note_on_c, 0, 74, 0
3, 24000, Note_on_c, 0, 76, 62
3, 24120, Note_on_c, 0, 76, 0
3, 24120, Note_on_c, 0, 74, 62
3, 24240, Note_on_c, 0, 74, 0
3, 24240, Note_on_c, 0, 72, 62
3, 24360, Note_on_c, 0, 72, 0
3, 24360, Note_on_c, 0, 71, 62
3, 24480, Note_on_c, 0, 71, 0
3, 24480, Note_on_c, 0, 69, 62
3, 24600, Note_on_c, 0, 69, 0
3, 24600, Note_on_c, 0, 68, 62
3, 24720, Note_on_c, 0, 68, 0
3, 24720, Note_on_c, 0, 66, 62
3, 24840, Note_on_c, 0, 66, 0
3, 24840, Note_on_c, 0, 64, 62
3, 24960, Note_on_c, 0, 64, 0
3, 27360, Note_on_c, 0, 69, 62
3, 27480, Note_on_c, 0, 69, 0
3, 27480, Note_on_c, 0, 71, 62
3, 27600, Note_on_c, 0, 71, 0
3, 27600, Note_on_c, 0, 72, 62
3, 27720, Note_on_c, 0, 72, 0
3, 27720, Note_on_c, 0, 74, 62
3, 27840, Note_on_c, 0, 74, 0
3, 27840, Note_on_c, 0, 76, 62
3, 27960, Note_on_c, 0, 76, 0
3, 27960, Note_on_c, 0, 74, 62
3, 28080, Note_on_c, 0, 74, 0
3, 28080, Note_on_c, 0, 72, 62
3, 28200, Note_on_c, 0, 72, 0
3, 28200, Note_on_c, 0, 71, 62
3, 28320, Note_on_c, 0, 71, 0
3, 28320, Note_on_c, 0, 69, 62
3, 28440, Note_on_c, 0, 69, 0
3, 28440, Note_on_c, 0, 68, 62
3, 28560, Note_on_c, 0, 68, 0
3, 28560, Note_on_c, 0, 66, 62
3, 28680, Note_on_c, 0, 66, 0
3, 28680, Note_on_c, 0, 64, 62
3, 28800, Note_on_c, 0, 64, 0
3, 31200, Note_on_c, 0, 69, 62
3, 31320, Note_on_c, 0, 69, 0
3, 31320, Note_on_c, 0, 71, 62
3, 31440, Note_on_c, 0, 71, 0
3, 31440, Note_on_c, 0, 72, 62
3, 31560, Note_on_c, 0, 72, 0
3, 31560, Note_on_c, 0, 74, 62
3, 31680, Note_on_c, 0, 74, 0
3, 31680, Note_on_c, 0, 76, 62
3, 31800, Note_on_c, 0, 76, 0
3, 31800, Note_on_c, 0, 74, 62
3, 31920, Note_on_c, 0, 74, 0
3, 31920, Note_on_c, 0, 72, 62
3, 32040, Note_on_c, 0, 72, 0
3, 32040, Note_on_c, 0, 71, 62
3, 32160, Note_on_c, 0, 71, 0
3, 32160, Note_on_c, 0, 69, 62
3, 32280, Note_on_c, 0, 69, 0
3, 32280, Note_on_c, 0, 68, 62
3, 32400, Note_on_c, 0, 68, 0
3, 32400, Note_on_c, 0, 66, 62
3, 32520, Note_on_c, 0, 66, 0
3, 32520, Note_on_c, 0, 64, 62
3, 32640, Note_on_c, 0, 64, 0
3, 33120, Note_on_c, 0, 72, 62
3, 33240, Note_on_c, 0, 72, 0
3, 33240, Note_on_c, 0, 71, 62
3, 33360, Note_on_c, 0, 71, 0
3, 33360, Note_on_c, 0, 72, 62
3, 33480, Note_on_c, 0, 72, 0
3, 33480, Note_on_c, 0, 74, 62
3, 33600, Note_on_c, 0, 74, 0
3, 33600, Note_on_c, 0, 76, 62
3, 33720, Note_on_c, 0, 76, 0
3, 33720, Note_on_c, 0, 74, 62
3, 33840, Note_on_c, 0, 74, 0
3, 33840, Note_on_c, 0, 72, 62
3, 33960, Note_on_c, 0, 72, 0
3, 33960, Note_on_c, 0, 71, 62
3, 34080, Note_on_c, 0, 71, 0
3, 34080, Note_on_c, 0, 69, 62
3, 34200, Note_on_c, 0, 69, 0
3, 34200, Note_on_c, 0, 68, 62
3, 34320, Note_on_c, 0, 68, 0
3, 34320, Note_on_c, 0, 66, 62
3, 34440, Note_on_c, 0, 66, 0
3, 34440, Note_on_c, 0, 64, 62
3, 34560, Note_on_c, 0, 64, 0
3, 35040, Note_on_c, 0, 76, 62
3, 35160, Note_on_c, 0, 76, 0
3, 35160, Note_on_c, 0, 68, 62
3, 35280, Note_on_c, 0, 68, 0
3, 35280, Note_on_c, 0, 69, 62
3, 35400, Note_on_c, 0, 69, 0
3, 35400, Note_on_c, 0, 71, 62
3, 35520, Note_on_c, 0, 71, 0
3, 35520, Note_on_c, 0, 72, 62
3, 35640, Note_on_c, 0, 72, 0
3, 35640, Note_on_c, 0, 71, 62
3, 35760, Note_on_c, 0, 71, 0
3, 35760, Note_on_c, 0, 69, 62
3, 35880, Note_on_c, 0, 69, 0
3, 35880, Note_on_c, 0, 68, 62
3, 36000, Note_on_c, 0, 68, 0
3, 36000, Note_on_c, 0, 66, 62
3, 36120, Note_on_c, 0, 66, 0
3, 36120, Note_on_c, 0, 64, 62
3, 36240, Note_on_c, 0, 64, 0
3, 36240, Note_on_c, 0, 62, 62
3, 36360, Note_on_c, 0, 62, 0
3, 36360, Note_on_c, 0, 60, 62
3, 36480, Note_on_c, 0, 60, 0
3, 36960, Note_on_c, 0, 72, 62
3, 37080, Note_on_c, 0, 72, 0
3, 37080, Note_on_c, 0, 71, 62
3, 37200, Note_on_c, 0, 71, 0
3, 37200, Note_on_c, 0, 72, 62
3, 37320, Note_on_c, 0, 72, 0
3, 37320, Note_on_c, 0, 74, 62
3, 37440, Note_on_c, 0, 74, 0
3, 37440, Note_on_c, 0, 76, 62
3, 37560, Note_on_c, 0, 76, 0
3, 37560, Note_on_c, 0, 74, 62
3, 37680, Note_on_c, 0, 74, 0
3, 37680, Note_on_c, 0, 72, 62
3, 37800, Note_on_c, 0, 72, 0
3, 37800, Note_on_c, 0, 71, 62
3, 37920, Note_on_c, 0, 71, 0
3, 37920, Note_on_c, 0, 69, 62
3, 38040, Note_on_c, 0, 69, 0
3, 38040, Note_on_c, 0, 68, 62
3, 38160, Note_on_c, 0, 68, 0
3, 38160, Note_on_c, 0, 66, 62
3, 38280, Note_on_c, 0, 66, 0
3, 38280, Note_on_c, 0, 64, 62
3, 38400, Note_on_c, 0, 64, 0
3, 38880, Note_on_c, 0, 76, 62
3, 39000, Note_on_c, 0, 76, 0
3, 39000, Note_on_c, 0, 68, 62
3, 39120, Note_on_c, 0, 68, 0
3, 39120, Note_on_c, 0, 69, 62
3, 39240, Note_on_c, 0, 69, 0
3, 39240, Note_on_c, 0, 71, 62
3, 39360, Note_on_c, 0, 71, 0
3, 39360, Note_on_c, 0, 72, 62
3, 39480, Note_on_c, 0, 72, 0
3, 39480, Note_on_c, 0, 71, 62
3, 39600, Note_on_c, 0, 71, 0
3, 39600, Note_on_c, 0, 69, 62
3, 39720, Note_on_c, 0, 69, 0
3, 39720, Note_on_c, 0, 68, 62
3, 39840, Note_on_c, 0, 68, 0
3, 39840, Note_on_c, 0, 66, 62
3, 39960, Note_on_c, 0, 66, 0
3, 39960, Note_on_c, 0, 64, 62
3, 40080, Note_on_c, 0, 64, 0
3, 40080, Note_on_c, 0, 62, 62
3, 40200, Note_on_c, 0, 62, 0
3, 40200, Note_on_c, 0, 60, 62
3, 40320, Note_on_c, 0, 60, 0
3, 40800, Note_on_c, 0, 74, 75
3, 40920, Note_on_c, 0, 74, 0
3, 40920, Note_on_c, 0, 74, 75
3, 41040, Note_on_c, 0, 74, 0
3, 41040, Note_on_c, 0, 76, 75
3, 41160, Note_on_c, 0, 76, 0
3, 41160, Note_on_c, 0, 77, 75
3, 41280, Note_on_c, 0, 77, 0
3, 41280, Note_on_c, 0, 79, 75
3, 41400, Note_on_c, 0, 79, 0
3, 41400, Note_on_c, 0, 77, 75
3, 41520, Note_on_c, 0, 77, 0
3, 41520, Note_on_c, 0, 76, 75
3, 41640, Note_on_c, 0, 76, 0
3, 41640, Note_on_c, 0, 74, 75
3, 41760, Note_on_c, 0, 74, 0
3, 41760, Note_on_c, 0, 72, 75
3, 41880, Note_on_c, 0, 72, 0
3, 41880, Note_on_c, 0, 70, 75
3, 42000, Note_on_c, 0, 70, 0
3, 42000, Note_on_c, 0, 69, 75
3, 42120, Note_on_c, 0, 69, 0
3, 42120, Note_on_c, 0, 67, 75
3, 42240, Note_on_c, 0, 67, 0
3, 42960, Note_on_c, 0, 67, 75
3, 43080, Note_on_c, 0, 67, 0
3, 43080, Note_on_c, 0, 69, 75
3, 43200, Note_on_c, 0, 69, 0
3, 43200, Note_on_c, 0, 70, 75
3, 43320, Note_on_c, 0, 70, 0
3, 43320, Note_on_c, 0, 69, 75
3, 43440, Note_on_c, 0, 69, 0
3, 43440, Note_on_c, 0, 68, 75
3, 43560, Note_on_c, 0, 68, 0
3, 43560, Note_on_c, 0, 67, 75
3, 43680, Note_on_c, 0, 67, 0
3, 43680, Note_on_c, 0, 65, 75
3, 43800, Note_on_c, 0, 65, 0
3, 43800, Note_on_c, 0, 64, 75
3, 43920, Note_on_c, 0, 64, 0
3, 43920, Note_on_c, 0, 62, 75
3, 44040, Note_on_c, 0, 62, 0
3, 44040, Note_on_c, 0, 60, 75
3, 44160, Note_on_c, 0, 60, 0
3, 44640, Note_on_c, 0, 74, 75
3, 44760, Note_on_c, 0, 74, 0
3, 44760, Note_on_c, 0, 74, 75
3, 44880, Note_on_c, 0, 74, 0
3, 44880, Note_on_c, 0, 76, 75
3, 45000, Note_on_c, 0, 76, 0
3, 45000, Note_on_c, 0, 77, 75
3, 45120, Note_on_c, 0, 77, 0
3, 45120, Note_on_c, 0, 79, 75
3, 45240, Note_on_c, 0, 79, 0
3, 45240, Note_on_c, 0, 77, 75
3, 45360, Note_on_c, 0, 77, 0
3, 45360, Note_on_c, 0, 76, 75
3, 45480, Note_on_c, 0, 76, 0
3, 45480, Note_on_c, 0, 74, 75
3, 45600, Note_on_c, 0, 74, 0
3, 45600, Note_on_c, 0, 72, 75
3, 45720, Note_on_c, 0, 72, 0
3, 45720, Note_on_c, 0, 70, 75
3, 45840, Note_on_c, 0, 70, 0
3, 45840, Note_on_c, 0, 69, 75
3, 45960, Note_on_c, 0, 69, 0
3, 45960, Note_on_c, 0, 67, 75
3, 46080, Note_on_c, 0, 67, 0
3, 46800, Note_on_c, 0, 67, 75
3, 46920, Note_on_c, 0, 67, 0
3, 46920, Note_on_c, 0, 69, 75
3, 47040, Note_on_c, 0, 69, 0
3, 47040, Note_on_c, 0, 70, 75
3, 47160, Note_on_c, 0, 70, 0
3, 47160, Note_on_c, 0, 69, 75
3, 47280, Note_on_c, 0, 69, 0
3, 47280, Note_on_c, 0, 68, 75
3, 47400, Note_on_c, 0, 68, 0
3, 47400, Note_on_c, 0, 67, 75
3, 47520, Note_on_c, 0, 67, 0
3, 47520, Note_on_c, 0, 65, 75
3, 47640, Note_on_c, 0, 65, 0
3, 47640, Note_on_c, 0, 64, 75
3, 47760, Note_on_c, 0, 64, 0
3, 47760, Note_on_c, 0, 62, 75
3, 47880, Note_on_c, 0, 62, 0
3, 47880, Note_on_c, 0, 60, 75
3, 48000, Note_on_c, 0, 60, 0
3, 55680, Note_on_c, 0, 77, 88
3, 55680, Note_on_c, 0, 81, 88
3, 55920, Note_on_c, 0, 81, 0
3, 55920, Note_on_c, 0, 77, 0
3, 55920, Note_on_c, 0, 77, 88
3, 55920, Note_on_c, 0, 81, 88
3, 56160, Note_on_c, 0, 81, 0
3, 56160, Note_on_c, 0, 77, 0
3, 56160, Note_on_c, 0, 77, 88
3, 56160, Note_on_c, 0, 81, 88
3, 56400, Note_on_c, 0, 81, 0
3, 56400, Note_on_c, 0, 77, 0
3, 56400, Note_on_c, 0, 77, 88
3, 56400, Note_on_c, 0, 81, 88
3, 56640, Note_on_c, 0, 81, 0
3, 56640, Note_on_c, 0, 77, 0
3, 56640, Note_on_c, 0, 76, 88
3, 56640, Note_on_c, 0, 77, 88
3, 56640, Note_on_c, 0, 81, 88
3, 56880, Note_on_c, 0, 81, 0
3, 56880, Note_on_c, 0, 77, 0
3, 56880, Note_on_c, 0, 76, 0
3, 56880, Note_on_c, 0, 76, 88
3, 56880, Note_on_c, 0, 77, 88
3, 56880, Note_on_c, 0, 81, 88
3, 57120, Note_on_c, 0, 81, 0
3, 57120, Note_on_c, 0, 77, 0
3, 57120, Note_on_c, 0, 76, 0
3, 57120, Note_on_c, 0, 76, 88
3, 57120, Note_on_c, 0, 77, 88
3, 57120, Note_on_c, 0, 81, 88
3, 57360, Note_on_c, 0, 81, 0
3, 57360, Note_on_c, 0, 77, 0
3, 57360, Note_on_c, 0, 76, 0
3, 63360, Note_on_c, 0, 77, 88
3, 63360, Note_on_c, 0, 81, 88
3, 63600, Note_on_c, 0, 81, 0
3, 63600, Note_on_c, 0, 77, 0
3, 63600, Note_on_c, 0, 77, 88
3, 63600, Note_on_c, 0, 81, 88
3, 63840, Note_on_c, 0, 81, 0
3, 63840, Note_on_c, 0, 77, 0
3, 63840, Note_on_c, 0, 77, 88
3, 63840, Note_on_c, 0, 81, 88
3, 64080, Note_on_c, 0, 81, 0
3, 64080, Note_on_c, 0, 77, 0
3, 64080, Note_on_c, 0, 77, 88
3, 64080, Note_on_c, 0, 81, 88
3, 64320, Note_on_c, 0, 81, 0
3, 64320, Note_on_c, 0, 77, 0
3, 64320, Note_on_c, 0, 76, 88
3, 64320, Note_on_c, 0, 77, 88
3, 64320, Note_on_c, 0, 81, 88
3, 64560, Note_on_c, 0, 81, 0
3, 64560, Note_on_c, 0, 77, 0
3, 64560, Note_on_c, 0, 76, 0
3, 64560, Note_on_c, 0, 76, 88
3, 64560, Note_on_c, 0, 77, 88
3, 64560, Note_on_c, 0, 81, 88
3, 64800, Note_on_c, 0, 81, 0
3, 64800, Note_on_c, 0, 77, 0
3, 64800, Note_on_c, 0, 76, 0
3, 64800, Note_on_c, 0, 76, 88
3, 64800, Note_on_c, 0, 77, 88
3, 64800, Note_on_c, 0, 81, 88
3, 65040, Note_on_c, 0, 81, 0
3, 65040, Note_on_c, 0, 77, 0
3, 65040, Note_on_c, 0, 76, 0
3, 120960, Note_on_c, 0, 65, 88
3, 121440, Note_on_c, 0, 65, 0
3, 124800, Note_on_c, 0, 65, 88
3, 125280, Note_on_c, 0, 65, 0
3, 144000, Note_on_c, 0, 61, 114
3, 144000, Note_on_c, 0, 65, 114
3, 144240, Note_on_c, 0, 65, 0
3, 144240, Note_on_c, 0, 61, 0
3, 144240, Note_on_c, 0, 61, 114
3, 144240, Note_on_c, 0, 65, 114
3, 144480, Note_on_c, 0, 65, 0
3, 144480, Note_on_c, 0, 61, 0
3, 144480, Note_on_c, 0, 61, 114
3, 144480, Note_on_c, 0, 65, 114
3, 144720, Note_on_c, 0, 65, 0
3, 144720, Note_on_c, 0, 61, 0
3, 144720, Note_on_c, 0, 61, 114
3, 144720, Note_on_c, 0, 65, 114
3, 144960, Note_on_c, 0, 65, 0
3, 144960, Note_on_c, 0, 61, 0
3, 144960, Note_on_c, 0, 63, 114
3, 145440, Note_on_c, 0, 63, 0
3, 145440, Note_on_c, 0, 61, 114
3, 145680, Note_on_c, 0, 61, 0
3, 145680, Note_on_c, 0, 61, 114
3, 145920, Note_on_c, 0, 61, 0
3, 145920, Note_on_c, 0, 60, 114
3, 146400, Note_on_c, 0, 60, 0
3, 146400, Note_on_c, 0, 58, 114
3, 146880, Note_on_c, 0, 58, 0
3, 147840, Note_on_c, 0, 65, 114
3, 148080, Note_on_c, 0, 65, 0
3, 148080, Note_on_c, 0, 65, 114
3, 148320, Note_on_c, 0, 65, 0
3, 148320, Note_on_c, 0, 65, 114
3, 148560, Note_on_c, 0, 65, 0
3, 148560, Note_on_c, 0, 65, 114
3, 148800, Note_on_c, 0, 65, 0
3, 148800, Note_on_c, 0, 63, 114
3, 149280, Note_on_c, 0, 63, 0
3, 149280, Note_on_c, 0, 61, 114
3, 149520, Note_on_c, 0, 61, 0
3, 149520, Note_on_c, 0, 61, 114
3, 149760, Note_on_c, 0, 61, 0
3, 159360, Note_on_c, 0, 63, 101
3, 159600, Note_on_c, 0, 63, 0
3, 159600, Note_on_c, 0, 61, 101
3, 159840, Note_on_c, 0, 61, 0
3, 159840, Note_on_c, 0, 63, 101
3, 160080, Note_on_c, 0, 63, 0
3, 160080, Note_on_c, 0, 61, 101
3, 160320, Note_on_c, 0, 61, 0
3, 160320, Note_on_c, 0, 66, 101
3, 160800, Note_on_c, 0, 66, 0
3, 160800, Note_on_c, 0, 65, 101
3, 161280, Note_on_c, 0, 65, 0
3, 161280, Note_on_c, 0, 75, 101
3, 161760, Note_on_c, 0, 75, 0
3, 161760, Note_on_c, 0, 73, 101
3, 162240, Note_on_c, 0, 73, 0
3, 162240, Note_on_c, 0, 73, 101
3, 162720, Note_on_c, 0, 73, 0
3, 162720, Note_on_c, 0, 73, 101
3, 163200, Note_on_c, 0, 73, 0
3, 163200, Note_on_c, 0, 75, 101
3, 163440, Note_on_c, 0, 75, 0
3, 163440, Note_on_c, 0, 73, 101
3, 163680, Note_on_c, 0, 73, 0
3, 163680, Note_on_c, 0, 75, 101
3, 163920, Note_on_c, 0, 75, 0
3, 163920, Note_on_c, 0, 73, 101
3, 164160, Note_on_c, 0, 73, 0
3, 164160, Note_on_c, 0, 78, 101
3, 164640, Note_on_c, 0, 78, 0
3, 164640, Note_on_c, 0, 77, 101
3, 165120, Note_on_c, 0, 77, 0
3, 165120, Note_on_c, 0, 87, 101
3, 165600, Note_on_c, 0, 87, 0
3, 165600, Note_on_c, 0, 85, 101
3, 166080, Note_on_c, 0, 85, 0
3, 166080, Note_on_c, 0, 85, 101
3, 166560, Note_on_c, 0, 85, 0
3, 166560, Note_on_c, 0, 85, 101
3, 167040, Note_on_c, 0, 85, 0
3, 167040, Note_on_c, 0, 87, 101
3, 167520, Note_on_c, 0, 87, 0
3, 167520, Note_on_c, 0, 87, 101
3, 167760, Note_on_c, 0, 87, 0
3, 167760, Note_on_c, 0, 85, 101
3, 168000, Note_on_c, 0, 85, 0
3, 168000, Note_on_c, 0, 84, 101
3, 168480, Note_on_c, 0, 84, 0
3, 168480, Note_on_c, 0, 82, 101
3, 168960, Note_on_c, 0, 82, 0
3, 168960, Note_on_c, 0, 87, 101
3, 169440, Note_on_c, 0, 87, 0
3, 169440, Note_on_c, 0, 85, 101
3, 169920, Note_on_c, 0, 85, 0
3, 169920, Note_on_c, 0, 82, 101
3, 170400, Note_on_c, 0, 82, 0
3, 170400, Note_on_c, 0, 77, 101
3, 170880, Note_on_c, 0, 77, 0
3, 170880, Note_on_c, 0, 75, 101
3, 171360, Note_on_c, 0, 75, 0
3, 171360, Note_on_c, 0, 75, 101
3, 171600, Note_on_c, 0, 75, 0
3, 171600, Note_on_c, 0, 73, 101
3, 171840, Note_on_c, 0, 73, 0
3, 171840, Note_on_c, 0, 72, 101
3, 172320, Note_on_c, 0, 72, 0
3, 172320, Note_on_c, 0, 70, 101
3, 172800, Note_on_c, 0, 70, 0
3, 172800, Note_on_c, 0, 75, 101
3, 173280, Note_on_c, 0, 75, 0
3, 173280, Note_on_c, 0, 73, 101
3, 173760, Note_on_c, 0, 73, 0
3, 173760, Note_on_c, 0, 70, 101
3, 174240, Note_on_c, 0, 70, 0
3, 174240, Note_on_c, 0, 65, 101
3, 174720, Note_on_c, 0, 65, 0
3, 175680, Note_on_c, 0, 66, 49
3, 176160, Note_on_c, 0, 66, 0
3, 179520, Note_on_c, 0, 66, 49
3, 180000, Note_on_c, 0, 66, 0
3, 183360, Note_on_c, 0, 68, 49
3, 183360, Note_on_c, 0, 72, 49
3, 183840, Note_on_c, 0, 72, 0
3, 183840, Note_on_c, 0, 68, 0
3, 187200, Note_on_c, 0, 68, 49
3, 187200, Note_on_c, 0, 72, 49
3, 187680, Note_on_c, 0, 72, 0
3, 187680, Note_on_c, 0, 68, 0
3, 190080, Note_on_c, 0, 65, 75
3, 190080, Note_on_c, 0, 68, 75
3, 190560, Note_on_c, 0, 68, 0
3, 190560, Note_on_c, 0, 65, 0
3, 191040, Note_on_c, 0, 72, 75
3, 191520, Note_on_c, 0, 72, 0
3, 191520, Note_on_c, 0, 71, 75
3, 191520, Note_on_c, 0, 73, 75
3, 192000, Note_on_c, 0, 73, 0
3, 192000, Note_on_c, 0, 71, 0
3, 198240, Note_on_c, 0, 79, 101
3, 198360, Note_on_c, 0, 79, 0
3, 198360, Note_on_c, 0, 79, 101
3, 198480, Note_on_c, 0, 79, 0
3, 198480, Note_on_c, 0, 79, 101
3, 198600, Note_on_c, 0, 79, 0
3, 198600, Note_on_c, 0, 79, 101
3, 198720, Note_on_c, 0, 79, 0
3, 198720, Note_on_c, 0, 77, 101
3, 198960, Note_on_c, 0, 77, 0
3, 198960, Note_on_c, 0, 75, 101
3, 199080, Note_on_c, 0, 75, 0
3, 199080, Note_on_c, 0, 75, 101
3, 199200, Note_on_c, 0, 75, 0
3, 199200, Note_on_c, 0, 74, 101
3, 199440, Note_on_c, 0, 74, 0
3, 199440, Note_on_c, 0, 72, 101
3, 199680, Note_on_c, 0, 72, 0
3, 199680, Note_on_c, 0, 67, 101
3, 199800, Note_on_c, 0, 67, 0
3, 199800, Note_on_c, 0, 67, 101
3, 199920, Note_on_c, 0, 67, 0
3, 199920, Note_on_c, 0, 67, 101
3, 200040, Note_on_c, 0, 67, 0
3, 200040, Note_on_c, 0, 67, 101
3, 200160, Note_on_c, 0, 67, 0
3, 200160, Note_on_c, 0, 67, 101
3, 200400, Note_on_c, 0, 67, 0
3, 200400, Note_on_c, 0, 65, 101
3, 200640, Note_on_c, 0, 65, 0
3, 200640, Note_on_c, 0, 70, 101
3, 200640, Note_on_c, 0, 82, 101
3, 200760, Note_on_c, 0, 82, 0
3, 200760, Note_on_c, 0, 70, 0
3, 200760, Note_on_c, 0, 70, 101
3, 200760, Note_on_c, 0, 82, 101
3, 200880, Note_on_c, 0, 82, 0
3, 200880, Note_on_c, 0, 70, 0
3, 200880, Note_on_c, 0, 70, 101
3, 200880, Note_on_c, 0, 82, 101
3, 201000, Note_on_c, 0, 82, 0
3, 201000, Note_on_c, 0, 70, 0
3, 201000, Note_on_c, 0, 70, 101
3, 201000, Note_on_c, 0, 82, 101
3, 201120, Note_on_c, 0, 82, 0
3, 201120, Note_on_c, 0, 70, 0
3, 201120, Note_on_c, 0, 70, 101
3, 201120, Note_on_c, 0, 82, 101
3, 201360, Note_on_c, 0, 82, 0
3, 201360, Note_on_c, 0, 70, 0
3, 201360, Note_on_c, 0, 69, 101
3, 201360, Note_on_c, 0, 81, 101
3, 201600, Note_on_c, 0, 81, 0
3, 201600, Note_on_c, 0, 69, 0
3, 207840, Note_on_c, 0, 83, 101
3, 207960, Note_on_c, 0, 83, 0
3, 207960, Note_on_c, 0, 83, 101
3, 208080, Note_on_c, 0, 83, 0
3, 208080, Note_on_c, 0, 83, 101
3, 208200, Note_on_c, 0, 83, 0
3, 208200, Note_on_c, 0, 83, 101
3, 208320, Note_on_c, 0, 83, 0
3, 208320, Note_on_c, 0, 81, 101
3, 208560, Note_on_c, 0, 81, 0
3, 208560, Note_on_c, 0, 79, 101
3, 208680, Note_on_c, 0, 79, 0
3, 208680, Note_on_c, 0, 79, 101
3, 208800, Note_on_c, 0, 79, 0
3, 208800, Note_on_c, 0, 78, 101
3, 209040, Note_on_c, 0, 78, 0
3, 209040, Note_on_c, 0, 76, 101
3, 209280, Note_on_c, 0, 76, 0
3, 226560, Note_on_c, 0, 77, 88
3, 226560, Note_on_c, 0, 81, 88
3, 226800, Note_on_c, 0, 81, 0
3, 226800, Note_on_c, 0, 77, 0
3, 226800, Note_on_c, 0, 77, 88
3, 226800, Note_on_c, 0, 81, 88
3, 227040, Note_on_c, 0, 81, 0
3, 227040, Note_on_c, 0, 77, 0
3, 227040, Note_on_c, 0, 77, 88
3, 227040, Note_on_c, 0, 81, 88
3, 227280, Note_on_c, 0, 81, 0
3, 227280, Note_on_c, 0, 77, 0
3, 227280, Note_on_c, 0, 77, 88
3, 227280, Note_on_c, 0, 81, 88
3, 227520, Note_on_c, 0, 81, 0
3, 227520, Note_on_c, 0, 77, 0
3, 227520, Note_on_c, 0, 76, 88
3, 227520, Note_on_c, 0, 77, 88
3, 227520, Note_on_c, 0, 81, 88
3, 227760, Note_on_c, 0, 81, 0
3, 227760, Note_on_c, 0, 77, 0
3, 227760, Note_on_c, 0, 76, 0
3, 227760, Note_on_c, 0, 76, 88
3, 227760, Note_on_c, 0, 77, 88
3, 227760, Note_on_c, 0, 81, 88
3, 228000, Note_on_c, 0, 81, 0
3, 228000, Note_on_c, 0, 77, 0
3, 228000, Note_on_c, 0, 76, 0
3, 228000, Note_on_c, 0, 76, 88
3, 228000, Note_on_c, 0, 77, 88
3, 228000, Note_on_c, 0, 81, 88
3, 228240, Note_on_c, 0, 81, 0
3, 228240, Note_on_c, 0, 77, 0
3, 228240, Note_on_c, 0, 76, 0
3, 234240, Note_on_c, 0, 77, 88
3, 234240, Note_on_c, 0, 81, 88
3, 234480, Note_on_c, 0, 81, 0
3, 234480, Note_on_c, 0, 77, 0
3, 234480, Note_on_c, 0, 77, 88
3, 234480, Note_on_c, 0, 81, 88
3, 234720, Note_on_c, 0, 81, 0
3, 234720, Note_on_c, 0, 77, 0
3, 234720, Note_on_c, 0, 77, 88
3, 234720, Note_on_c, 0, 81, 88
3, 234960, Note_on_c, 0, 81, 0
3, 234960, Note_on_c, 0, 77, 0
3, 234960, Note_on_c, 0, 77, 88
3, 234960, Note_on_c, 0, 81, 88
3, 235200, Note_on_c, 0, 81, 0
3, 235200, Note_on_c, 0, 77, 0
3, 235200, Note_on_c, 0, 76, 88
3, 235200, Note_on_c, 0, 77, 88
3, 235200, Note_on_c, 0, 81, 88
3, 235440, Note_on_c, 0, 81, 0
3, 235440, Note_on_c, 0, 77, 0
3, 235440, Note_on_c, 0, 76, 0
3, 235440, Note_on_c, 0, 76, 88
3, 235440, Note_on_c, 0, 77, 88
3, 235440, Note_on_c, 0, 81, 88
3, 235680, Note_on_c, 0, 81, 0
3, 235680, Note_on_c, 0, 77, 0
3, 235680, Note_on_c, 0, 76, 0
3, 235680, Note_on_c, 0, 76, 88
3, 235680, Note_on_c, 0, 77, 88
3, 235680, Note_on_c, 0, 81, 88
3, 235920, Note_on_c, 0, 81, 0
3, 235920, Note_on_c, 0, 77, 0
3, 235920, Note_on_c, 0, 76, 0
3, 284160, Note_on_c, 0, 69, 62
3, 285120, Note_on_c, 0, 69, 0
3, 287040, Note_on_c, 0, 62, 62
3, 287040, Note_on_c, 0, 65, 62
3, 287520, Note_on_c, 0, 65, 0
3, 287520, Note_on_c, 0, 62, 0
3, 287520, Note_on_c, 0, 62, 62
3, 287520, Note_on_c, 0, 65, 62
3, 288000, Note_on_c, 0, 65, 0
3, 288000, Note_on_c, 0, 62, 0
3, 288000, Note_on_c, 0, 65, 62
3, 288480, Note_on_c, 0, 65, 0
3, 290880, Note_on_c, 0, 62, 62
3, 290880, Note_on_c, 0, 65, 62
3, 291360, Note_on_c, 0, 65, 0
3, 291360, Note_on_c, 0, 62, 0
3, 291360, Note_on_c, 0, 62, 62
3, 291360, Note_on_c, 0, 65, 62
3, 291840, Note_on_c, 0, 65, 0
3, 291840, Note_on_c, 0, 62, 0
3, 291840, Note_on_c, 0, 65, 62
3, 292320, Note_on_c, 0, 65, 0
3, 294720, Note_on_c, 0, 62, 62
3, 294720, Note_on_c, 0, 65, 62
3, 295200, Note_on_c, 0, 65, 0
3, 295200, Note_on_c, 0, 62, 0
3, 295200, Note_on_c, 0, 62, 62
3, 295200, Note_on_c, 0, 65, 62
3, 295680, Note_on_c, 0, 65, 0
3, 295680, Note_on_c, 0, 62, 0
3, 295680, Note_on_c, 0, 65, 62
3, 296160, Note_on_c, 0, 65, 0
3, 298560, Note_on_c, 0, 62, 62
3, 298560, Note_on_c, 0, 65, 62
3, 299040, Note_on_c, 0, 65, 0
3, 299040, Note_on_c, 0, 62, 0
3, 299040, Note_on_c, 0, 62, 62
3, 299040, Note_on_c, 0, 65, 62
3, 299520, Note_on_c, 0, 65, 0
3, 299520, Note_on_c, 0, 62, 0
3, 301560, Control_c, 0, 64, 127
3, 301560, Note_on_c, 0, 76, 62
3, 301680, Note_on_c, 0, 76, 0
3, 301680, Note_on_c, 0, 77, 62
3, 301800, Note_on_c, 0, 77, 0
3, 301800, Note_on_c, 0, 79, 62
3, 301920, Note_on_c, 0, 79, 0
3, 301920, Note_on_c, 0, 80, 62
3, 302040, Note_on_c, 0, 80, 0
3, 302040, Note_on_c, 0, 79, 62
3, 302160, Note_on_c, 0, 79, 0
3, 302160, Note_on_c, 0, 80, 62
3, 302280, Note_on_c, 0, 80, 0
3, 302280, Note_on_c, 0, 85, 62
3, 302400, Note_on_c, 0, 85, 0
3, 302400, Note_on_c, 0, 86, 62
3, 302520, Note_on_c, 0, 86, 0
3, 302520, Note_on_c, 0, 85, 62
3, 302640, Note_on_c, 0, 85, 0
3, 302640, Note_on_c, 0, 86, 62
3, 302760, Note_on_c, 0, 86, 0
3, 302760, Note_on_c, 0, 88, 62
3, 302880, Note_on_c, 0, 88, 0
3, 302880, Note_on_c, 0, 89, 62
3, 303000, Note_on_c, 0, 89, 0
3, 303000, Note_on_c, 0, 85, 62
3, 303120, Note_on_c, 0, 85, 0
3, 303120, Note_on_c, 0, 86, 62
3, 303240, Note_on_c, 0, 86, 0
3, 303240, Note_on_c, 0, 88, 62
3, 303360, Note_on_c, 0, 88, 0
3, 303360, Control_c, 0, 64, 0
3, 303360, Note_on_c, 0, 89, 62
3, 303480, Note_on_c, 0, 89, 0
3, 305400, Control_c, 0, 64, 127
3, 305400, Note_on_c, 0, 73, 62
3, 305520, Note_on_c, 0, 73, 0
3, 305520, Note_on_c, 0, 74, 62
3, 305640, Note_on_c, 0, 74, 0
3, 305640, Note_on_c, 0, 76, 62
3, 305760, Note_on_c, 0, 76, 0
3, 305760, Note_on_c, 0, 77, 62
3, 305880, Note_on_c, 0, 77, 0
3, 305880, Note_on_c, 0, 76, 62
3, 306000, Note_on_c, 0, 76, 0
3, 306000, Note_on_c, 0, 77, 62
3, 306120, Note_on_c, 0, 77, 0
3, 306120, Note_on_c, 0, 79, 62
3, 306240, Note_on_c, 0, 79, 0
3, 306240, Note_on_c, 0, 80, 62
3, 306360, Note_on_c, 0, 80, 0
3, 306360, Note_on_c, 0, 79, 62
3, 306480, Note_on_c, 0, 79, 0
3, 306480, Note_on_c, 0, 80, 62
3, 306600, Note_on_c, 0, 80, 0
3, 306600, Note_on_c, 0, 85, 62
3, 306720, Note_on_c, 0, 85, 0
3, 306720, Note_on_c, 0, 86, 62
3, 306840, Note_on_c, 0, 86, 0
3, 306840, Note_on_c, 0, 85, 62
3, 306960, Note_on_c, 0, 85, 0
3, 306960, Note_on_c, 0, 86, 62
3, 307080, Note_on_c, 0, 86, 0
3, 307080, Note_on_c, 0, 88, 62
3, 307200, Note_on_c, 0, 88, 0
3, 307200, Control_c, 0, 64, 0
3, 307200, Note_on_c, 0, 77, 62
3, 307200, Note_on_c, 0, 89, 62
3, 307320, Note_on_c, 0, 89, 0
3, 307320, Note_on_c, 0, 77, 0
3, 309240, Control_c, 0, 64, 127
3, 309240, Note_on_c, 0, 73, 62
3, 309360, Note_on_c, 0, 73, 0
3, 309360, Note_on_c, 0, 74, 62
3, 309480, Note_on_c, 0, 74, 0
3, 309480, Note_on_c, 0, 76, 62
3, 309600, Note_on_c, 0, 76, 0
3, 309600, Note_on_c, 0, 77, 62
3, 309720, Note_on_c, 0, 77, 0
3, 309720, Note_on_c, 0, 76, 62
3, 309840, Note_on_c, 0, 76, 0
3, 309840, Note_on_c, 0, 77, 62
3, 309960, Note_on_c, 0, 77, 0
3, 309960, Note_on_c, 0, 79, 62
3, 310080, Note_on_c, 0, 79, 0
3, 310080, Note_on_c, 0, 80, 62
3, 310200, Note_on_c, 0, 80, 0
3, 310200, Note_on_c, 0, 79, 62
3, 310320, Note_on_c, 0, 79, 0
3, 310320, Note_on_c, 0, 80, 62
3, 310440, Note_on_c, 0, 80, 0
3, 310440, Note_on_c, 0, 85, 62
3, 310560, Note_on_c, 0, 85, 0
3, 310560, Note_on_c, 0, 86, 62
3, 310680, Note_on_c, 0, 86, 0
3, 310680, Note_on_c, 0, 85, 62
3, 310800, Note_on_c, 0, 85, 0
3, 310800, Note_on_c, 0, 86, 62
3, 310920, Note_on_c, 0, 86, 0
3, 310920, Control_c, 0, 64, 0
3, 310920, Note_on_c, 0, 88, 62
3, 311040, Note_on_c, 0, 88, 0
3, 311040, Control_c, 0, 64, 0
3, 311040, Note_on_c, 0, 77, 62
3, 311040, Note_on_c, 0, 89, 62
3, 311160, Note_on_c, 0, 89, 0
3, 311160, Note_on_c, 0, 77, 0
3, 313080, Control_c, 0, 64, 127
3, 313080, Note_on_c, 0, 73, 62
3, 313200, Note_on_c, 0, 73, 0
3, 313200, Note_on_c, 0, 74, 62
3, 313320, Note_on_c, 0, 74, 0
3, 313320, Note_on_c, 0, 76, 62
3, 313440, Note_on_c, 0, 76, 0
3, 313440, Note_on_c, 0, 77, 62
3, 313560, Note_on_c, 0, 77, 0
3, 313560, Note_on_c, 0, 76, 62
3, 313680, Note_on_c, 0, 76, 0
3, 313680, Note_on_c, 0, 77, 62
3, 313800, Note_on_c, 0, 77, 0
3, 313800, Note_on_c, 0, 79, 62
3, 313920, Note_on_c, 0, 79, 0
3, 313920, Note_on_c, 0, 80, 62
3, 314040, Note_on_c, 0, 80, 0
3, 314040, Note_on_c, 0, 79, 62
3, 314160, Note_on_c, 0, 79, 0
3, 314160, Note_on_c, 0, 80, 62
3, 314280, Note_on_c, 0, 80, 0
3, 314280, Note_on_c, 0, 85, 62
3, 314400, Note_on_c, 0, 85, 0
3, 314400, Note_on_c, 0, 86, 62
3, 314520, Note_on_c, 0, 86, 0
3, 314520, Note_on_c, 0, 85, 62
3, 314640, Note_on_c, 0, 85, 0
3, 314640, Note_on_c, 0, 86, 62
3, 314760, Note_on_c, 0, 86, 0
3, 314760, Note_on_c, 0, 88, 62
3, 314880, Note_on_c, 0, 88, 0
3, 314880, Control_c, 0, 64, 0
3, 314880, Note_on_c, 0, 86, 62
3, 314880, Note_on_c, 0, 89, 62
3, 315000, Note_on_c, 0, 89, 0
3, 315000, Note_on_c, 0, 86, 0
3, 316920, Control_c, 0, 64, 127
3, 316920, Note_on_c, 0, 74, 62
3, 317040, Note_on_c, 0, 74, 0
3, 317040, Note_on_c, 0, 76, 62
3, 317160, Note_on_c, 0, 76, 0
3, 317160, Note_on_c, 0, 77, 62
3, 317280, Note_on_c, 0, 77, 0
3, 317280, Note_on_c, 0, 79, 62
3, 317400, Note_on_c, 0, 79, 0
3, 317400, Note_on_c, 0, 78, 62
3, 317520, Note_on_c, 0, 78, 0
3, 317520, Note_on_c, 0, 79, 62
3, 317640, Note_on_c, 0, 79, 0
3, 317640, Note_on_c, 0, 81, 62
3, 317760, Note_on_c, 0, 81, 0
3, 317760, Note_on_c, 0, 83, 62
3, 317880, Note_on_c, 0, 83, 0
3, 317880, Note_on_c, 0, 81, 62
3, 318000, Note_on_c, 0, 81, 0
3, 318000, Note_on_c, 0, 83, 62
3, 318120, Note_on_c, 0, 83, 0
3, 318120, Note_on_c, 0, 84, 62
3, 318240, Note_on_c, 0, 84, 0
3, 318240, Note_on_c, 0, 86, 62
3, 318360, Note_on_c, 0, 86, 0
3, 318360, Note_on_c, 0, 85, 62
3, 318480, Note_on_c, 0, 85, 0
3, 318480, Note_on_c, 0, 86, 62
3, 318600, Note_on_c, 0, 86, 0
3, 318600, Note_on_c, 0, 88, 62
3, 318720, Note_on_c, 0, 88, 0
3, 318720, Control_c, 0, 64, 0
3, 318720, Note_on_c, 0, 89, 62
3, 318840, Note_on_c, 0, 89, 0
3, 322560, Note_on_c, 0, 69, 62
3, 323280, Note_on_c, 0, 69, 0
3, 323280, Note_on_c, 0, 71, 62
3, 323520, Note_on_c, 0, 71, 0
3, 323520, Note_on_c, 0, 64, 62
3, 323520, Note_on_c, 0, 76, 62
3, 324000, Note_on_c, 0, 76, 0
3, 324000, Note_on_c, 0, 64, 0
3, 324000, Note_on_c, 0, 62, 62
3, 324000, Note_on_c, 0, 74, 62
3, 324240, Note_on_c, 0, 74, 0
3, 324240, Note_on_c, 0, 62, 0
3, 324240, Note_on_c, 0, 62, 62
3, 324240, Note_on_c, 0, 74, 62
3, 324480, Note_on_c, 0, 74, 0
3, 324480, Note_on_c, 0, 62, 0
3, 324480, Note_on_c, 0, 69, 62
3, 324960, Note_on_c, 0, 69, 0
3, 324960, Note_on_c, 0, 67, 62
3, 326400, Note_on_c, 0, 67, 0
3, 326400, Note_on_c, 0, 69, 62
3, 327120, Note_on_c, 0, 69, 0
3, 327120, Note_on_c, 0, 71, 62
3, 327360, Note_on_c, 0, 71, 0
3, 327360, Note_on_c, 0, 64, 62
3, 327360, Note_on_c, 0, 76, 62
3, 327840, Note_on_c, 0, 76, 0
3, 327840, Note_on_c, 0, 64, 0
3, 327840, Note_on_c, 0, 62, 62
3, 327840, Note_on_c, 0, 74, 62
3, 328080, Note_on_c, 0, 74, 0
3, 328080, Note_on_c, 0, 62, 0
3, 328080, Note_on_c, 0, 62, 62
3, 328080, Note_on_c, 0, 74, 62
3, 328320, Note_on_c, 0, 74, 0
3, 328320, Note_on_c, 0, 62, 0
3, 328320, Note_on_c, 0, 69, 62
3, 328800, Note_on_c, 0, 69, 0
3, 328800, Note_on_c, 0, 67, 62
3, 330240, Note_on_c, 0, 67, 0
3, 330240, Note_on_c, 0, 67, 62
3, 331200, Note_on_c, 0, 67, 0
3, 331200, Note_on_c, 0, 67, 75
3, 332160, Note_on_c, 0, 67, 0
3, 332160, Note_on_c, 0, 61, 75
3, 332160, Note_on_c, 0, 64, 75
3, 333120, Note_on_c, 0, 64, 0
3, 333120, Note_on_c, 0, 61, 0
3, 333120, Note_on_c, 0, 59, 75
3, 333120, Note_on_c, 0, 62, 75
3, 333600, Note_on_c, 0, 62, 0
3, 333600, Note_on_c, 0, 59, 0
3, 333600, Note_on_c, 0, 61, 75
3, 333600, Note_on_c, 0, 64, 75
3, 334080, Note_on_c, 0, 64, 0
3, 334080, Note_on_c, 0, 61, 0
3, 334080, Note_on_c, 0, 69, 75
3, 335040, Note_on_c, 0, 69, 0
3, 335040, Note_on_c, 0, 69, 75
3, 336000, Note_on_c, 0, 69, 0
3, 336000, Note_on_c, 0, 63, 75
3, 336000, Note_on_c, 0, 66, 75
3, 336960, Note_on_c, 0, 66, 0
3, 336960, Note_on_c, 0, 63, 0
3, 336960, Note_on_c, 0, 61, 75
3, 336960, Note_on_c, 0, 64, 75
3, 337440, Note_on_c, 0, 64, 0
3, 337440, Note_on_c, 0, 61, 0
3, 337440, Note_on_c, 0, 63, 75
3, 337440, Note_on_c, 0, 66, 75
3, 337920, Note_on_c, 0, 66, 0
3, 337920, Note_on_c, 0, 63, 0
3, 337920, Note_on_c, 0, 71, 101
3, 338880, Note_on_c, 0, 71, 0
3, 338880, Note_on_c, 0, 67, 101
3, 338880, Note_on_c, 0, 70, 101
3, 339840, Note_on_c, 0, 70, 0
3, 339840, Note_on_c, 0, 67, 0
3, 339840, Note_on_c, 0, 71, 101
3, 340800, Note_on_c, 0, 71, 0
3, 340800, Note_on_c, 0, 67, 101
3, 340800, Note_on_c, 0, 70, 101
3, 341760, Note_on_c, 0, 70, 0
3, 341760, Note_on_c, 0, 67, 0
3, 341760, Note_on_c, 0, 72, 101
3, 342720, Note_on_c, 0, 72, 0
3, 342720, Note_on_c, 0, 68, 101
3, 342720, Note_on_c, 0, 71, 101
3, 343680, Note_on_c, 0, 71, 0
3, 343680, Note_on_c, 0, 68, 0
3, 343680, Note_on_c, 0, 72, 101
3, 344640, Note_on_c, 0, 72, 0
3, 344640, Note_on_c, 0, 68, 101
3, 344640, Note_on_c, 0, 71, 101
3, 345600, Note_on_c, 0, 71, 0
3, 345600, Note_on_c, 0, 68, 0
3, 345600, Note_on_c, 0, 68, 75
3, 345600, Note_on_c, 0, 72, 75
3, 346080, Note_on_c, 0, 72, 0
3, 346080, Note_on_c, 0, 68, 0
3, 346560, Note_on_c, 0, 61, 75
3, 346800, Note_on_c, 0, 61, 0
3, 346800, Note_on_c, 0, 59, 75
3, 346920, Note_on_c, 0, 59, 0
3, 346920, Note_on_c, 0, 57, 75
3, 347040, Note_on_c, 0, 57, 0
3, 347520, Note_on_c, 0, 68, 75
3, 347520, Note_on_c, 0, 72, 75
3, 348000, Note_on_c, 0, 72, 0
3, 348000, Note_on_c, 0, 68, 0
3, 348480, Note_on_c, 0, 61, 75
3, 348720, Note_on_c, 0, 61, 0
3, 348720, Note_on_c, 0, 59, 75
3, 348840, Note_on_c, 0, 59, 0
3, 348840, Note_on_c, 0, 57, 75
3, 348960, Note_on_c, 0, 57, 0
3, 349440, Note_on_c, 0, 69, 75
3, 349920, Note_on_c, 0, 69, 0
3, 349920, Note_on_c, 0, 69, 75
3, 350400, Note_on_c, 0, 69, 0
3, 350400, Note_on_c, 0, 62, 75
3, 350640, Note_on_c, 0, 62, 0
3, 350640, Note_on_c, 0, 60, 75
3, 350760, Note_on_c, 0, 60, 0
3, 350760, Note_on_c, 0, 58, 75
3, 350880, Note_on_c, 0, 58, 0
3, 351360, Note_on_c, 0, 69, 75
3, 351840, Note_on_c, 0, 69, 0
3, 351840, Note_on_c, 0, 69, 75
3, 352320, Note_on_c, 0, 69, 0
3, 352320, Note_on_c, 0, 62, 75
3, 352560, Note_on_c, 0, 62, 0
3, 352560, Note_on_c, 0, 60, 75
3, 352680, Note_on_c, 0, 60, 0
3, 352680, Note_on_c, 0, 58, 75
3, 352800, Note_on_c, 0, 58, 0
3, 464640, Note_on_c, 0, 77, 88
3, 464640, Note_on_c, 0, 81, 88
3, 464799, Note_on_c, 0, 81, 0
3, 464799, Note_on_c, 0, 77, 0
3, 464799, Note_on_c, 0, 77, 88
3, 464799, Note_on_c, 0, 81, 88
3, 464960, Note_on_c, 0, 81, 0
3, 464960, Note_on_c, 0, 77, 0
3, 464960, Note_on_c, 0, 77, 88
3, 464960, Note_on_c, 0, 81, 88
3, 465120, Note_on_c, 0, 81, 0
3, 465120, Note_on_c, 0, 77, 0
3, 465120, Note_on_c, 0, 77, 88
3, 465120, Note_on_c, 0, 81, 88
3, 465279, Note_on_c, 0, 81, 0
3, 465279, Note_on_c, 0, 77, 0
3, 465279, Note_on_c, 0, 77, 88
3, 465279, Note_on_c, 0, 81, 88
3, 465440, Note_on_c, 0, 81, 0
3, 465440, Note_on_c, 0, 77, 0
3, 465440, Note_on_c, 0, 77, 88
3, 465440, Note_on_c, 0, 81, 88
3, 465600, Note_on_c, 0, 81, 0
3, 465600, Note_on_c, 0, 77, 0
3, 465600, Note_on_c, 0, 76, 88
3, 465600, Note_on_c, 0, 81, 88
3, 465759, Note_on_c, 0, 81, 0
3, 465759, Note_on_c, 0, 76, 0
3, 465759, Note_on_c, 0, 76, 88
3, 465759, Note_on_c, 0, 77, 88
3, 465759, Note_on_c, 0, 81, 88
3, 465920, Note_on_c, 0, 81, 0
3, 465920, Note_on_c, 0, 77, 0
3, 465920, Note_on_c, 0, 76, 0
3, 465920, Note_on_c, 0, 76, 88
3, 465920, Note_on_c, 0, 77, 88
3, 465920, Note_on_c, 0, 81, 88
3, 466080, Note_on_c, 0, 81, 0
3, 466080, Note_on_c, 0, 77, 0
3, 466080, Note_on_c, 0, 76, 0
3, 466080, Note_on_c, 0, 76, 88
3, 466080, Note_on_c, 0, 77, 88
3, 466080, Note_on_c, 0, 81, 88
3, 466239, Note_on_c, 0, 81, 0
3, 466239, Note_on_c, 0, 77, 0
3, 466239, Note_on_c, 0, 76, 0
3, 466239, Note_on_c, 0, 76, 88
3, 466239, Note_on_c, 0, 77, 88
3, 466239, Note_on_c, 0, 81, 88
3, 466400, Note_on_c, 0, 81, 0
3, 466400, Note_on_c, 0, 77, 0
3, 466400, Note_on_c, 0, 76, 0
3, 472320, Note_on_c, 0, 81, 88
3, 472320, Note_on_c, 0, 84, 88
3, 472479, Note_on_c, 0, 84, 0
3, 472479, Note_on_c, 0, 81, 0
3, 472479, Note_on_c, 0, 81, 88
3, 472479, Note_on_c, 0, 84, 88
3, 472640, Note_on_c, 0, 84, 0
3, 472640, Note_on_c, 0, 81, 0
3, 472640, Note_on_c, 0, 81, 88
3, 472640, Note_on_c, 0, 84, 88
3, 472800, Note_on_c, 0, 84, 0
3, 472800, Note_on_c, 0, 81, 0
3, 472800, Note_on_c, 0, 81, 88
3, 472800, Note_on_c, 0, 84, 88
3, 472959, Note_on_c, 0, 84, 0
3, 472959, Note_on_c, 0, 81, 0
3, 472959, Note_on_c, 0, 81, 88
3, 472959, Note_on_c, 0, 84, 88
3, 473120, Note_on_c, 0, 84, 0
3, 473120, Note_on_c, 0, 81, 0
3, 473120, Note_on_c, 0, 81, 88
3, 473120, Note_on_c, 0, 84, 88
3, 473280, Note_on_c, 0, 84, 0
3, 473280, Note_on_c, 0, 81, 0
3, 473280, Note_on_c, 0, 81, 88
3, 473280, Note_on_c, 0, 84, 88
3, 473439, Note_on_c, 0, 84, 0
3, 473439, Note_on_c, 0, 81, 0
3, 473439, Note_on_c, 0, 79, 88
3, 473439, Note_on_c, 0, 81, 88
3, 473439, Note_on_c, 0, 84, 88
3, 473600, Note_on_c, 0, 84, 0
3, 473600, Note_on_c, 0, 81, 0
3, 473600, Note_on_c, 0, 79, 0
3, 473600, Note_on_c, 0, 79, 88
3, 473600, Note_on_c, 0, 81, 88
3, 473600, Note_on_c, 0, 84, 88
3, 473760, Note_on_c, 0, 84, 0
3, 473760, Note_on_c, 0, 81, 0
3, 473760, Note_on_c, 0, 79, 0
3, 473760, Note_on_c, 0, 79, 88
3, 473760, Note_on_c, 0, 81, 88
3, 473760, Note_on_c, 0, 84, 88
3, 473919, Note_on_c, 0, 84, 0
3, 473919, Note_on_c, 0, 81, 0
3, 473919, Note_on_c, 0, 79, 0
3, 473919, Note_on_c, 0, 79, 88
3, 473919, Note_on_c, 0, 81, 88
3, 473919, Note_on_c, 0, 84, 88
3, 474080, Note_on_c, 0, 84, 0
3, 474080, Note_on_c, 0, 81, 0
3, 474080, Note_on_c, 0, 79, 0
3, 533760, Note_on_c, 0, 89, 101
3, 534000, Note_on_c, 0, 89, 0
3, 534240, Note_on_c, 0, 88, 101
3, 534480, Note_on_c, 0, 88, 0
3, 534720, Note_on_c, 0, 89, 101
3, 534960, Note_on_c, 0, 89, 0
3, 535200, Note_on_c, 0, 88, 101
3, 535440, Note_on_c, 0, 88, 0
3, 535680, Note_on_c, 0, 89, 101
3, 535920, Note_on_c, 0, 89, 0
3, 536160, Note_on_c, 0, 88, 101
3, 536400, Note_on_c, 0, 88, 0
3, 536640, Note_on_c, 0, 89, 101
3, 536880, Note_on_c, 0, 89, 0
3, 537120, Note_on_c, 0, 88, 101
3, 537360, Note_on_c, 0, 88, 0
3, 537360, End_track
4, 0, Start_track
4, 0, Title_t, "Grand Piano"
4, 0, Program_c, 0, 0
4, 0, Control_c, 0, 7, 115
4, 0, Control_c, 0, 10, 41
4, 0, Control_c, 0, 64, 127
4, 0, Note_on_c, 0, 53, 86
4, 0, Note_on_c, 0, 57, 86
4, 0, Note_on_c, 0, 65, 86
4, 960, Note_on_c, 0, 65, 0
4, 960, Note_on_c, 0, 57, 0
4, 960, Note_on_c, 0, 53, 0
4, 960, Note_on_c, 0, 52, 86
4, 960, Note_on_c, 0, 64, 86
4, 1680, Note_on_c, 0, 64, 0
4, 1680, Note_on_c, 0, 52, 0
4, 1680, Note_on_c, 0, 50, 86
4, 1680, Note_on_c, 0, 62, 86
4, 1920, Note_on_c, 0, 62, 0
4, 1920, Note_on_c, 0, 50, 0
4, 1920, Note_on_c, 0, 48, 86
4, 1920, Note_on_c, 0, 60, 86
4, 2040, Note_on_c, 0, 60, 0
4, 2040, Note_on_c, 0, 48, 0
4, 2040, Control_c, 0, 64, 0
4, 2040, Note_on_c, 0, 57, 86
4, 2160, Note_on_c, 0, 57, 0
4, 2160, Note_on_c, 0, 60, 86
4, 2280, Note_on_c, 0, 60, 0
4, 2280, Note_on_c, 0, 62, 86
4, 2400, Note_on_c, 0, 62, 0
4, 2400, Note_on_c, 0, 64, 86
4, 2520, Note_on_c, 0, 64, 0
4, 2520, Note_on_c, 0, 62, 86
4, 2640, Note_on_c, 0, 62, 0
4, 2640, Note_on_c, 0, 60, 86
4, 2760, Note_on_c, 0, 60, 0
4, 2760, Note_on_c, 0, 58, 86
4, 2880, Note_on_c, 0, 58, 0
4, 2880, Note_on_c, 0, 57, 86
4, 3000, Note_on_c, 0, 57, 0
4, 3000, Note_on_c, 0, 53, 86
4, 3120, Note_on_c, 0, 53, 0
4, 3120, Note_on_c, 0, 57, 86
4, 3240, Note_on_c, 0, 57, 0
4, 3240, Note_on_c, 0, 58, 86
4, 3360, Note_on_c, 0, 58, 0
4, 3360, Note_on_c, 0, 60, 86
4, 3480, Note_on_c, 0, 60, 0
4, 3480, Note_on_c, 0, 58, 86
4, 3600, Note_on_c, 0, 58, 0
4, 3600, Note_on_c, 0, 57, 86
4, 3720, Note_on_c, 0, 57, 0
4, 3720, Note_on_c, 0, 55, 86
4, 3840, Note_on_c, 0, 55, 0
4, 3840, Note_on_c, 0, 57, 86
4, 3960, Note_on_c, 0, 57, 0
4, 3960, Note_on_c, 0, 55, 86
4, 4080, Note_on_c, 0, 55, 0
4, 4080, Note_on_c, 0, 53, 86
4, 4200, Note_on_c, 0, 53, 0
4, 4200, Note_on_c, 0, 52, 86
4, 4320, Note_on_c, 0, 52, 0
4, 4320, Note_on_c, 0, 53, 86
4, 4440, Note_on_c, 0, 53, 0
4, 4440, Note_on_c, 0, 52, 86
4, 4560, Note_on_c, 0, 52, 0
4, 4560, Note_on_c, 0, 50, 86
4, 4680, Note_on_c, 0, 50, 0
4, 4680, Note_on_c, 0, 48, 86
4, 4800, Note_on_c, 0, 48, 0
4, 4800, Note_on_c, 0, 50, 86
4, 4920, Note_on_c, 0, 50, 0
4, 4920, Note_on_c, 0, 48, 86
4, 5040, Note_on_c, 0, 48, 0
4, 5040, Note_on_c, 0, 46, 86
4, 5160, Note_on_c, 0, 46, 0
4, 5160, Note_on_c, 0, 45, 86
4, 5280, Note_on_c, 0, 45, 0
4, 5280, Note_on_c, 0, 43, 86
4, 5520, Note_on_c, 0, 43, 0
4, 5520, Note_on_c, 0, 48, 86
4, 5760, Note_on_c, 0, 48, 0
4, 5760, Note_on_c, 0, 41, 86
4, 5760, Note_on_c, 0, 53, 86
4, 6000, Note_on_c, 0, 53, 0
4, 6000, Note_on_c, 0, 41, 0
4, 6000, Note_on_c, 0, 36, 86
4, 6000, Note_on_c, 0, 48, 86
4, 6240, Note_on_c, 0, 48, 0
4, 6240, Note_on_c, 0, 36, 0
4, 6240, Note_on_c, 0, 29, 86
4, 6240, Note_on_c, 0, 41, 86
4, 6480, Note_on_c, 0, 41, 0
4, 6480, Note_on_c, 0, 29, 0
4, 6720, Control_c, 0, 64, 127
4, 7590, Note_on_c, 0, 50, 86
4, 7620, Note_on_c, 0, 53, 86
4, 7650, Note_on_c, 0, 57, 86
4, 7680, Note_on_c, 0, 65, 86
4, 8640, Note_on_c, 0, 65, 0
4, 8640, Note_on_c, 0, 50, 0
4, 8640, Note_on_c, 0, 53, 0
4, 8640, Note_on_c, 0, 57, 0
4, 8640, Note_on_c, 0, 64, 86
4, 9360, Note_on_c, 0, 64, 0
4, 9360, Note_on_c, 0, 62, 86
4, 9600, Note_on_c, 0, 62, 0
4, 9600, Note_on_c, 0, 60, 86
4, 9720, Note_on_c, 0, 60, 0
4, 9720, Control_c, 0, 64, 0
4, 9720, Note_on_c, 0, 57, 86
4, 9840, Note_on_c, 0, 57, 0
4, 9840, Note_on_c, 0, 60, 86
4, 9960, Note_on_c, 0, 60, 0
4, 9960, Note_on_c, 0, 62, 86
4, 10080, Note_on_c, 0, 62, 0
4, 10080, Note_on_c, 0, 64, 86
4, 10200, Note_on_c, 0, 64, 0
4, 10200, Note_on_c, 0, 62, 86
4, 10320, Note_on_c, 0, 62, 0
4, 10320, Note_on_c, 0, 60, 86
4, 10440, Note_on_c, 0, 60, 0
4, 10440, Note_on_c, 0, 59, 86
4, 10560, Note_on_c, 0, 59, 0
4, 10560, Note_on_c, 0, 57, 86
4, 10680, Note_on_c, 0, 57, 0
4, 10680, Note_on_c, 0, 56, 86
4, 10800, Note_on_c, 0, 56, 0
4, 10800, Note_on_c, 0, 57, 86
4, 10920, Note_on_c, 0, 57, 0
4, 10920, Note_on_c, 0, 59, 86
4, 11040, Note_on_c, 0, 59, 0
4, 11040, Note_on_c, 0, 60, 86
4, 11160, Note_on_c, 0, 60, 0
4, 11160, Note_on_c, 0, 59, 86
4, 11280, Note_on_c, 0, 59, 0
4, 11280, Note_on_c, 0, 57, 86
4, 11400, Note_on_c, 0, 57, 0
4, 11400, Note_on_c, 0, 56, 86
4, 11520, Note_on_c, 0, 56, 0
4, 11520, Note_on_c, 0, 57, 86
4, 11640, Note_on_c, 0, 57, 0
4, 11640, Note_on_c, 0, 55, 86
4, 11760, Note_on_c, 0, 55, 0
4, 11760, Note_on_c, 0, 53, 86
4, 11880, Note_on_c, 0, 53, 0
4, 11880, Note_on_c, 0, 52, 86
4, 12000, Note_on_c, 0, 52, 0
4, 12000, Note_on_c, 0, 53, 86
4, 12120, Note_on_c, 0, 53, 0
4, 12120, Note_on_c, 0, 52, 86
4, 12240, Note_on_c, 0, 52, 0
4, 12240, Note_on_c, 0, 50, 86
4, 12360, Note_on_c, 0, 50, 0
4, 12360, Note_on_c, 0, 49, 86
4, 12480, Note_on_c, 0, 49, 0
4, 12480, Note_on_c, 0, 50, 86
4, 12600, Note_on_c, 0, 50, 0
4, 12600, Note_on_c, 0, 48, 86
4, 12720, Note_on_c, 0, 48, 0
4, 12720, Note_on_c, 0, 47, 86
4, 12840, Note_on_c, 0, 47, 0
4, 12840, Note_on_c, 0, 45, 86
4, 12960, Note_on_c, 0, 45, 0
4, 12960, Note_on_c, 0, 43, 86
4, 13200, Note_on_c, 0, 43, 0
4, 13200, Note_on_c, 0, 55, 86
4, 13440, Note_on_c, 0, 55, 0
4, 13440, Note_on_c, 0, 48, 86
4, 13680, Note_on_c, 0, 48, 0
4, 13680, Note_on_c, 0, 43, 86
4, 13680, Note_on_c, 0, 55, 86
4, 13920, Note_on_c, 0, 55, 0
4, 13920, Note_on_c, 0, 43, 0
4, 13920, Note_on_c, 0, 36, 86
4, 13920, Note_on_c, 0, 48, 86
4, 14160, Note_on_c, 0, 48, 0
4, 14160, Note_on_c, 0, 36, 0
4, 14640, Note_on_c, 0, 43, 86
4, 14880, Note_on_c, 0, 43, 0
4, 14880, Note_on_c, 0, 36, 86
4, 15120, Note_on_c, 0, 36, 0
4, 15360, Note_on_c, 0, 52, 99
4, 16320, Note_on_c, 0, 52, 0
4, 16320, Note_on_c, 0, 52, 99
4, 17280, Note_on_c, 0, 52, 0
4, 17280, Note_on_c, 0, 40, 86
4, 17280, Note_on_c, 0, 52, 86
4, 18240, Note_on_c, 0, 52, 0
4, 18240, Note_on_c, 0, 40, 0
4, 18240, Note_on_c, 0, 40, 86
4, 18240, Note_on_c, 0, 52, 86
4, 19200, Note_on_c, 0, 52, 0
4, 19200, Note_on_c, 0, 40, 0
4, 19200, Note_on_c, 0, 40, 86
4, 19200, Note_on_c, 0, 52, 86
4, 20160, Note_on_c, 0, 52, 0
4, 20160, Note_on_c, 0, 40, 0
4, 20160, Note_on_c, 0, 40, 86
4, 20160, Note_on_c, 0, 52, 86
4, 21120, Note_on_c, 0, 52, 0
4, 21120, Note_on_c, 0, 40, 0
4, 21120, Note_on_c, 0, 40, 86
4, 21120, Note_on_c, 0, 52, 86
4, 22080, Note_on_c, 0, 52, 0
4, 22080, Note_on_c, 0, 40, 0
4, 22080, Note_on_c, 0, 40, 86
4, 22080, Note_on_c, 0, 52, 86
4, 23040, Note_on_c, 0, 52, 0
4, 23040, Note_on_c, 0, 40, 0
4, 23040, Note_on_c, 0, 40, 86
4, 23040, Note_on_c, 0, 52, 86
4, 24000, Note_on_c, 0, 52, 0
4, 24000, Note_on_c, 0, 40, 0
4, 24000, Note_on_c, 0, 40, 86
4, 24000, Note_on_c, 0, 52, 86
4, 24960, Note_on_c, 0, 52, 0
4, 24960, Note_on_c, 0, 40, 0
4, 24960, Note_on_c, 0, 52, 86
4, 25920, Note_on_c, 0, 52, 0
4, 25920, Note_on_c, 0, 52, 86
4, 26880, Note_on_c, 0, 52, 0
4, 26880, Note_on_c, 0, 52, 86
4, 27840, Note_on_c, 0, 52, 0
4, 27840, Note_on_c, 0, 52, 86
4, 28800, Note_on_c, 0, 52, 0
4, 28800, Note_on_c, 0, 52, 86
4, 29760, Note_on_c, 0, 52, 0
4, 29760, Note_on_c, 0, 52, 86
4, 30720, Note_on_c, 0, 52, 0
4, 30720, Note_on_c, 0, 52, 86
4, 31680, Note_on_c, 0, 52, 0
4, 31680, Note_on_c, 0, 52, 86
4, 32640, Note_on_c, 0, 52, 0
4, 32640, Note_on_c, 0, 52, 86
4, 32640, Note_on_c, 0, 64, 86
4, 34560, Note_on_c, 0, 64, 0
4, 34560, Note_on_c, 0, 52, 0
4, 36480, Note_on_c, 0, 52, 86
4, 36480, Note_on_c, 0, 64, 86
4, 38400, Note_on_c, 0, 64, 0
4, 38400, Note_on_c, 0, 52, 0
4, 40320, Note_on_c, 0, 52, 86
4, 40320, Note_on_c, 0, 64, 86
4, 42240, Note_on_c, 0, 64, 0
4, 42240, Note_on_c, 0, 52, 0
4, 44160, Note_on_c, 0, 52, 86
4, 44160, Note_on_c, 0, 64, 86
4, 46080, Note_on_c, 0, 64, 0
4, 46080, Note_on_c, 0, 52, 0
4, 48000, Note_on_c, 0, 52, 60
4, 48120, Note_on_c, 0, 52, 0
4, 48120, Note_on_c, 0, 50, 60
4, 48240, Note_on_c, 0, 50, 0
4, 48240, Note_on_c, 0, 48, 60
4, 48360, Note_on_c, 0, 48, 0
4, 48360, Note_on_c, 0, 46, 60
4, 48480, Note_on_c, 0, 46, 0
4, 48480, Note_on_c, 0, 45, 60
4, 48600, Note_on_c, 0, 45, 0
4, 48600, Note_on_c, 0, 43, 60
4, 48720, Note_on_c, 0, 43, 0
4, 48720, Note_on_c, 0, 41, 60
4, 48840, Note_on_c, 0, 41, 0
4, 48840, Note_on_c, 0, 40, 60
4, 48960, Note_on_c, 0, 40, 0
4, 48960, Note_on_c, 0, 55, 60
4, 49080, Note_on_c, 0, 55, 0
4, 49080, Note_on_c, 0, 53, 60
4, 49200, Note_on_c, 0, 53, 0
4, 49200, Note_on_c, 0, 52, 60
4, 49320, Note_on_c, 0, 52, 0
4, 49320, Note_on_c, 0, 50, 60
4, 49440, Note_on_c, 0, 50, 0
4, 49440, Note_on_c, 0, 48, 60
4, 49560, Note_on_c, 0, 48, 0
4, 49560, Note_on_c, 0, 46, 60
4, 49680, Note_on_c, 0, 46, 0
4, 49680, Note_on_c, 0, 45, 60
4, 49800, Note_on_c, 0, 45, 0
4, 49800, Note_on_c, 0, 43, 60
4, 49920, Note_on_c, 0, 43, 0
4, 49920, Note_on_c, 0, 58, 60
4, 50040, Note_on_c, 0, 58, 0
4, 50040, Note_on_c, 0, 57, 60
4, 50160, Note_on_c, 0, 57, 0
4, 50160, Note_on_c, 0, 55, 60
4, 50280, Note_on_c, 0, 55, 0
4, 50280, Note_on_c, 0, 53, 60
4, 50400, Note_on_c, 0, 53, 0
4, 50400, Note_on_c, 0, 52, 60
4, 50520, Note_on_c, 0, 52, 0
4, 50520, Note_on_c, 0, 50, 60
4, 50640, Note_on_c, 0, 50, 0
4, 50640, Note_on_c, 0, 48, 60
4, 50760, Note_on_c, 0, 48, 0
4, 50760, Note_on_c, 0, 46, 60
4, 50880, Note_on_c, 0, 46, 0
4, 50880, Note_on_c, 0, 64, 60
4, 51000, Note_on_c, 0, 64, 0
4, 51000, Note_on_c, 0, 62, 60
4, 51120, Note_on_c, 0, 62, 0
4, 51120, Note_on_c, 0, 60, 60
4, 51240, Note_on_c, 0, 60, 0
4, 51240, Note_on_c, 0, 58, 60
4, 51360, Note_on_c, 0, 58, 0
4, 51360, Note_on_c, 0, 57, 60
4, 51480, Note_on_c, 0, 57, 0
4, 51480, Note_on_c, 0, 55, 60
4, 51600, Note_on_c, 0, 55, 0
4, 51600, Note_on_c, 0, 53, 60
4, 51720, Note_on_c, 0, 53, 0
4, 51720, Note_on_c, 0, 52, 60
4, 51840, Note_on_c, 0, 52, 0
4, 51840, Note_on_c, 0, 67, 86
4, 51960, Note_on_c, 0, 67, 0
4, 51960, Note_on_c, 0, 65, 86
4, 52080, Note_on_c, 0, 65, 0
4, 52080, Note_on_c, 0, 64, 86
4, 52200, Note_on_c, 0, 64, 0
4, 52200, Note_on_c, 0, 62, 86
4, 52320, Note_on_c, 0, 62, 0
4, 52320, Note_on_c, 0, 60, 86
4, 52440, Note_on_c, 0, 60, 0
4, 52440, Note_on_c, 0, 58, 86
4, 52560, Note_on_c, 0, 58, 0
4, 52560, Note_on_c, 0, 57, 86
4, 52680, Note_on_c, 0, 57, 0
4, 52680, Note_on_c, 0, 55, 86
4, 52800, Note_on_c, 0, 55, 0
4, 52800, Note_on_c, 0, 70, 86
4, 52920, Note_on_c, 0, 70, 0
4, 52920, Note_on_c, 0, 69, 86
4, 53040, Note_on_c, 0, 69, 0
4, 53040, Note_on_c, 0, 67, 86
4, 53160, Note_on_c, 0, 67, 0
4, 53160, Note_on_c, 0, 65, 86
4, 53280, Note_on_c, 0, 65, 0
4, 53280, Note_on_c, 0, 64, 86
4, 53400, Note_on_c, 0, 64, 0
4, 53400, Note_on_c, 0, 62, 86
4, 53520, Note_on_c, 0, 62, 0
4, 53520, Note_on_c, 0, 60, 86
4, 53640, Note_on_c, 0, 60, 0
4, 53640, Note_on_c, 0, 58, 86
4, 53760, Note_on_c, 0, 58, 0
4, 53760, Note_on_c, 0, 57, 86
4, 53880, Note_on_c, 0, 57, 0
4, 53880, Note_on_c, 0, 55, 86
4, 54000, Note_on_c, 0, 55, 0
4, 54000, Note_on_c, 0, 53, 86
4, 54120, Note_on_c, 0, 53, 0
4, 54120, Note_on_c, 0, 50, 86
4, 54240, Note_on_c, 0, 50, 0
4, 54240, Note_on_c, 0, 52, 86
4, 54360, Note_on_c, 0, 52, 0
4, 54360, Note_on_c, 0, 53, 86
4, 54480, Note_on_c, 0, 53, 0
4, 54480, Note_on_c, 0, 55, 86
4, 54600, Note_on_c, 0, 55, 0
4, 54600, Note_on_c, 0, 57, 86
4, 54720, Note_on_c, 0, 57, 0
4, 54720, Note_on_c, 0, 58, 86
4, 54840, Note_on_c, 0, 58, 0
4, 54840, Note_on_c, 0, 57, 86
4, 54960, Note_on_c, 0, 57, 0
4, 54960, Note_on_c, 0, 55, 86
4, 55080, Note_on_c, 0, 55, 0
4, 55080, Note_on_c, 0, 57, 86
4, 55200, Note_on_c, 0, 57, 0
4, 55200, Note_on_c, 0, 58, 86
4, 55320, Note_on_c, 0, 58, 0
4, 55320, Note_on_c, 0, 60, 86
4, 55440, Note_on_c, 0, 60, 0
4, 55440, Note_on_c, 0, 62, 86
4, 55560, Note_on_c, 0, 62, 0
4, 55560, Note_on_c, 0, 64, 86
4, 55680, Note_on_c, 0, 64, 0
4, 55680, Note_on_c, 0, 65, 86
4, 56640, Note_on_c, 0, 65, 0
4, 56640, Note_on_c, 0, 52, 86
4, 56640, Note_on_c, 0, 64, 86
4, 57360, Note_on_c, 0, 64, 0
4, 57360, Note_on_c, 0, 52, 0
4, 57360, Note_on_c, 0, 50, 86
4, 57360, Note_on_c, 0, 62, 86
4, 57600, Note_on_c, 0, 62, 0
4, 57600, Note_on_c, 0, 50, 0
4, 57600, Note_on_c, 0, 48, 86
4, 57600, Note_on_c, 0, 53, 86
4, 57600, Note_on_c, 0, 57, 86
4, 57600, Note_on_c, 0, 60, 86
4, 57720, Note_on_c, 0, 60, 0
4, 57720, Note_on_c, 0, 48, 0
4, 57720, Note_on_c, 0, 53, 0
4, 57720, Note_on_c, 0, 57, 0
4, 57720, Control_c, 0, 64, 0
4, 57720, Note_on_c, 0, 57, 86
4, 57840, Note_on_c, 0, 57, 0
4, 57840, Note_on_c, 0, 60, 86
4, 57960, Note_on_c, 0, 60, 0
4, 57960, Note_on_c, 0, 62, 86
4, 58080, Note_on_c, 0, 62, 0
4, 58080, Note_on_c, 0, 64, 86
4, 58200, Note_on_c, 0, 64, 0
4, 58200, Note_on_c, 0, 62, 86
4, 58320, Note_on_c, 0, 62, 0
4, 58320, Note_on_c, 0, 60, 86
4, 58440, Note_on_c, 0, 60, 0
4, 58440, Note_on_c, 0, 58, 86
4, 58560, Note_on_c, 0, 58, 0
4, 58560, Note_on_c, 0, 57, 86
4, 58680, Note_on_c, 0, 57, 0
4, 58680, Note_on_c, 0, 53, 86
4, 58800, Note_on_c, 0, 53, 0
4, 58800, Note_on_c, 0, 57, 86
4, 58920, Note_on_c, 0, 57, 0
4, 58920, Note_on_c, 0, 58, 86
4, 59040, Note_on_c, 0, 58, 0
4, 59040, Note_on_c, 0, 60, 86
4, 59160, Note_on_c, 0, 60, 0
4, 59160, Note_on_c, 0, 58, 86
4, 59280, Note_on_c, 0, 58, 0
4, 59280, Note_on_c, 0, 57, 86
4, 59400, Note_on_c, 0, 57, 0
4, 59400, Note_on_c, 0, 55, 86
4, 59520, Note_on_c, 0, 55, 0
4, 59520, Note_on_c, 0, 57, 86
4, 59640, Note_on_c, 0, 57, 0
4, 59640, Note_on_c, 0, 55, 86
4, 59760, Note_on_c, 0, 55, 0
4, 59760, Note_on_c, 0, 53, 86
4, 59880, Note_on_c, 0, 53, 0
4, 59880, Note_on_c, 0, 52, 86
4, 60000, Note_on_c, 0, 52, 0
4, 60000, Note_on_c, 0, 53, 86
4, 60120, Note_on_c, 0, 53, 0
4, 60120, Note_on_c, 0, 52, 86
4, 60240, Note_on_c, 0, 52, 0
4, 60240, Note_on_c, 0, 50, 86
4, 60360, Note_on_c, 0, 50, 0
4, 60360, Note_on_c, 0, 48, 86
4, 60480, Note_on_c, 0, 48, 0
4, 60480, Note_on_c, 0, 50, 86
4, 60600, Note_on_c, 0, 50, 0
4, 60600, Note_on_c, 0, 48, 86
4, 60720, Note_on_c, 0, 48, 0
4, 60720, Note_on_c, 0, 46, 86
4, 60840, Note_on_c, 0, 46, 0
4, 60840, Note_on_c, 0, 45, 86
4, 60960, Note_on_c, 0, 45, 0
4, 60960, Note_on_c, 0, 43, 86
4, 61200, Note_on_c, 0, 43, 0
4, 61200, Note_on_c, 0, 48, 86
4, 61440, Note_on_c, 0, 48, 0
4, 61440, Note_on_c, 0, 53, 86
4, 61680, Note_on_c, 0, 53, 0
4, 61680, Note_on_c, 0, 48, 86
4, 61920, Note_on_c, 0, 48, 0
4, 61920, Control_c, 0, 64, 127
4, 61920, Note_on_c, 0, 41, 86
4, 62040, Note_on_c, 0, 41, 0
4, 62040, Control_c, 0, 64, 127
4, 62040, Note_on_c, 0, 50, 86
4, 62160, Note_on_c, 0, 50, 0
4, 62160, Note_on_c, 0, 52, 86
4, 62280, Note_on_c, 0, 52, 0
4, 62280, Note_on_c, 0, 53, 86
4, 62400, Note_on_c, 0, 53, 0
4, 62400, Note_on_c, 0, 55, 86
4, 62520, Note_on_c, 0, 55, 0
4, 62520, Note_on_c, 0, 57, 86
4, 62640, Note_on_c, 0, 57, 0
4, 62640, Note_on_c, 0, 58, 86
4, 62760, Note_on_c, 0, 58, 0
4, 62760, Note_on_c, 0, 60, 86
4, 62880, Note_on_c, 0, 60, 0
4, 62880, Note_on_c, 0, 62, 86
4, 63000, Note_on_c, 0, 62, 0
4, 63000, Note_on_c, 0, 64, 86
4, 63120, Note_on_c, 0, 64, 0
4, 63120, Note_on_c, 0, 65, 86
4, 63240, Note_on_c, 0, 65, 0
4, 63240, Control_c, 0, 64, 0
4, 63240, Note_on_c, 0, 67, 86
4, 63360, Note_on_c, 0, 67, 0
4, 63360, Note_on_c, 0, 65, 86
4, 64320, Note_on_c, 0, 65, 0
4, 64320, Note_on_c, 0, 64, 86
4, 65040, Note_on_c, 0, 64, 0
4, 65040, Note_on_c, 0, 62, 86
4, 65280, Note_on_c, 0, 62, 0
4, 65280, Note_on_c, 0, 50, 86
4, 65280, Note_on_c, 0, 53, 86
4, 65280, Note_on_c, 0, 57, 86
4, 65280, Note_on_c, 0, 60, 86
4, 65400, Note_on_c, 0, 60, 0
4, 65400, Note_on_c, 0, 50, 0
4, 65400, Note_on_c, 0, 53, 0
4, 65400, Note_on_c, 0, 57, 0
4, 65400, Control_c, 0, 64, 0
4, 65400, Note_on_c, 0, 57, 86
4, 65520, Note_on_c, 0, 57, 0
4, 65520, Note_on_c, 0, 60, 86
4, 65640, Note_on_c, 0, 60, 0
4, 65640, Note_on_c, 0, 62, 86
4, 65760, Note_on_c, 0, 62, 0
4, 65760, Note_on_c, 0, 64, 86
4, 65880, Note_on_c, 0, 64, 0
4, 65880, Note_on_c, 0, 62, 86
4, 66000, Note_on_c, 0, 62, 0
4, 66000, Note_on_c, 0, 60, 86
4, 66120, Note_on_c, 0, 60, 0
4, 66120, Note_on_c, 0, 59, 86
4, 66240, Note_on_c, 0, 59, 0
4, 66240, Note_on_c, 0, 57, 86
4, 66360, Note_on_c, 0, 57, 0
4, 66360, Note_on_c, 0, 56, 86
4, 66480, Note_on_c, 0, 56, 0
4, 66480, Note_on_c, 0, 57, 86
4, 66600, Note_on_c, 0, 57, 0
4, 66600, Note_on_c, 0, 59, 86
4, 66720, Note_on_c, 0, 59, 0
4, 66720, Note_on_c, 0, 60, 86
4, 66840, Note_on_c, 0, 60, 0
4, 66840, Note_on_c, 0, 59, 86
4, 66960, Note_on_c, 0, 59, 0
4, 66960, Note_on_c, 0, 57, 86
4, 67080, Note_on_c, 0, 57, 0
4, 67080, Note_on_c, 0, 56, 86
4, 67200, Note_on_c, 0, 56, 0
4, 67200, Note_on_c, 0, 57, 86
4, 67320, Note_on_c, 0, 57, 0
4, 67320, Note_on_c, 0, 55, 86
4, 67440, Note_on_c, 0, 55, 0
4, 67440, Note_on_c, 0, 53, 86
4, 67560, Note_on_c, 0, 53, 0
4, 67560, Note_on_c, 0, 52, 86
4, 67680, Note_on_c, 0, 52, 0
4, 67680, Note_on_c, 0, 53, 86
4, 67800, Note_on_c, 0, 53, 0
4, 67800, Note_on_c, 0, 52, 86
4, 67920, Note_on_c, 0, 52, 0
4, 67920, Note_on_c, 0, 50, 86
4, 68040, Note_on_c, 0, 50, 0
4, 68040, Note_on_c, 0, 49, 86
4, 68160, Note_on_c, 0, 49, 0
4, 68160, Note_on_c, 0, 50, 86
4, 68280, Note_on_c, 0, 50, 0
4, 68280, Note_on_c, 0, 48, 86
4, 68400, Note_on_c, 0, 48, 0
4, 68400, Note_on_c, 0, 47, 86
4, 68520, Note_on_c, 0, 47, 0
4, 68520, Note_on_c, 0, 45, 86
4, 68640, Note_on_c, 0, 45, 0
4, 68640, Note_on_c, 0, 43, 86
4, 68880, Note_on_c, 0, 43, 0
4, 68880, Note_on_c, 0, 55, 86
4, 69120, Note_on_c, 0, 55, 0
4, 69120, Note_on_c, 0, 48, 86
4, 69360, Note_on_c, 0, 48, 0
4, 69360, Note_on_c, 0, 43, 86
4, 69600, Note_on_c, 0, 43, 0
4, 69600, Control_c, 0, 64, 127
4, 69600, Note_on_c, 0, 36, 86
4, 69720, Note_on_c, 0, 36, 0
4, 69720, Control_c, 0, 64, 127
4, 69720, Note_on_c, 0, 52, 86
4, 69840, Note_on_c, 0, 52, 0
4, 69840, Note_on_c, 0, 53, 86
4, 69960, Note_on_c, 0, 53, 0
4, 69960, Note_on_c, 0, 55, 86
4, 70080, Note_on_c, 0, 55, 0
4, 70080, Note_on_c, 0, 57, 86
4, 70200, Note_on_c, 0, 57, 0
4, 70200, Note_on_c, 0, 58, 86
4, 70320, Note_on_c, 0, 58, 0
4, 70320, Note_on_c, 0, 60, 86
4, 70440, Note_on_c, 0, 60, 0
4, 70440, Note_on_c, 0, 62, 86
4, 70560, Note_on_c, 0, 62, 0
4, 70560, Note_on_c, 0, 64, 86
4, 70680, Note_on_c, 0, 64, 0
4, 70680, Note_on_c, 0, 65, 86
4, 70800, Note_on_c, 0, 65, 0
4, 70800, Note_on_c, 0, 67, 86
4, 70920, Note_on_c, 0, 67, 0
4, 70920, Control_c, 0, 64, 0
4, 70920, Note_on_c, 0, 69, 86
4, 71040, Note_on_c, 0, 69, 0
4, 71040, Note_on_c, 0, 40, 86
4, 71040, Note_on_c, 0, 46, 86
4, 71040, Note_on_c, 0, 52, 86
4, 71520, Note_on_c, 0, 52, 0
4, 71520, Note_on_c, 0, 46, 0
4, 71520, Note_on_c, 0, 40, 0
4, 71520, Note_on_c, 0, 41, 86
4, 71520, Note_on_c, 0, 46, 86
4, 71520, Note_on_c, 0, 53, 86
4, 71880, Note_on_c, 0, 53, 0
4, 71880, Note_on_c, 0, 46, 0
4, 71880, Note_on_c, 0, 41, 0
4, 71880, Note_on_c, 0, 43, 86
4, 71880, Note_on_c, 0, 48, 86
4, 71880, Note_on_c, 0, 55, 86
4, 72000, Note_on_c, 0, 55, 0
4, 72000, Note_on_c, 0, 48, 0
4, 72000, Note_on_c, 0, 43, 0
4, 72000, Note_on_c, 0, 43, 86
4, 72000, Note_on_c, 0, 48, 86
4, 72000, Note_on_c, 0, 55, 86
4, 72240, Note_on_c, 0, 55, 0
4, 72240, Note_on_c, 0, 48, 0
4, 72240, Note_on_c, 0, 43, 0
4, 72240, Note_on_c, 0, 43, 86
4, 72240, Note_on_c, 0, 48, 86
4, 72240, Note_on_c, 0, 55, 86
4, 72480, Note_on_c, 0, 55, 0
4, 72480, Note_on_c, 0, 48, 0
4, 72480, Note_on_c, 0, 43, 0
4, 72480, Note_on_c, 0, 44, 86
4, 72480, Note_on_c, 0, 50, 86
4, 72480, Note_on_c, 0, 56, 86
4, 72960, Note_on_c, 0, 56, 0
4, 72960, Note_on_c, 0, 50, 0
4, 72960, Note_on_c, 0, 44, 0
4, 72960, Note_on_c, 0, 45, 86
4, 72960, Note_on_c, 0, 53, 86
4, 72960, Note_on_c, 0, 57, 86
4, 73440, Note_on_c, 0, 57, 0
4, 73440, Note_on_c, 0, 53, 0
4, 73440, Note_on_c, 0, 45, 0
4, 73440, Note_on_c, 0, 50, 86
4, 73440, Note_on_c, 0, 53, 86
4, 73440, Note_on_c, 0, 57, 86
4, 73800, Note_on_c, 0, 57, 0
4, 73800, Note_on_c, 0, 53, 0
4, 73800, Note_on_c, 0, 50, 0
4, 73800, Note_on_c, 0, 50, 86
4, 73800, Note_on_c, 0, 53, 86
4, 73800, Note_on_c, 0, 57, 86
4, 73920, Note_on_c, 0, 57, 0
4, 73920, Note_on_c, 0, 53, 0
4, 73920, Note_on_c, 0, 50, 0
4, 73920, Note_on_c, 0, 50, 86
4, 73920, Note_on_c, 0, 53, 86
4, 73920, Note_on_c, 0, 57, 86
4, 74160, Note_on_c, 0, 57, 0
4, 74160, Note_on_c, 0, 53, 0
4, 74160, Note_on_c, 0, 50, 0
4, 74160, Note_on_c, 0, 49, 86
4, 74160, Note_on_c, 0, 53, 86
4, 74160, Note_on_c, 0, 55, 86
4, 74160, Note_on_c, 0, 58, 86
4, 74400, Note_on_c, 0, 58, 0
4, 74400, Note_on_c, 0, 49, 0
4, 74400, Note_on_c, 0, 53, 0
4, 74400, Note_on_c, 0, 55, 0
4, 74400, Note_on_c, 0, 48, 86
4, 74400, Note_on_c, 0, 53, 86
4, 74400, Note_on_c, 0, 57, 86
4, 74400, Note_on_c, 0, 60, 86
4, 74880, Note_on_c, 0, 60, 0
4, 74880, Note_on_c, 0, 48, 0
4, 74880, Note_on_c, 0, 53, 0
4, 74880, Note_on_c, 0, 57, 0
4, 74880, Note_on_c, 0, 47, 86
4, 74880, Note_on_c, 0, 53, 86
4, 74880, Note_on_c, 0, 56, 86
4, 74880, Note_on_c, 0, 59, 86
4, 75360, Note_on_c, 0, 59, 0
4, 75360, Note_on_c, 0, 47, 0
4, 75360, Note_on_c, 0, 53, 0
4, 75360, Note_on_c, 0, 56, 0
4, 75360, Note_on_c, 0, 46, 86
4, 75360, Note_on_c, 0, 48, 86
4, 75360, Note_on_c, 0, 58, 86
4, 75720, Note_on_c, 0, 58, 0
4, 75720, Note_on_c, 0, 48, 0
4, 75720, Note_on_c, 0, 46, 0
4, 75720, Note_on_c, 0, 45, 86
4, 75720, Note_on_c, 0, 48, 86
4, 75720, Note_on_c, 0, 57, 86
4, 75840, Note_on_c, 0, 57, 0
4, 75840, Note_on_c, 0, 48, 0
4, 75840, Note_on_c, 0, 45, 0
4, 75840, Note_on_c, 0, 45, 86
4, 75840, Note_on_c, 0, 48, 86
4, 75840, Note_on_c, 0, 57, 86
4, 76080, Note_on_c, 0, 57, 0
4, 76080, Note_on_c, 0, 48, 0
4, 76080, Note_on_c, 0, 45, 0
4, 76080, Note_on_c, 0, 44, 86
4, 76080, Note_on_c, 0, 56, 86
4, 76320, Note_on_c, 0, 56, 0
4, 76320, Note_on_c, 0, 44, 0
4, 76320, Note_on_c, 0, 43, 86
4, 76320, Note_on_c, 0, 48, 86
4, 76320, Note_on_c, 0, 55, 86
4, 76560, Note_on_c, 0, 55, 0
4, 76560, Note_on_c, 0, 48, 0
4, 76560, Note_on_c, 0, 43, 0
4, 76560, Note_on_c, 0, 42, 86
4, 76560, Note_on_c, 0, 48, 86
4, 76560, Note_on_c, 0, 54, 86
4, 76800, Note_on_c, 0, 54, 0
4, 76800, Note_on_c, 0, 48, 0
4, 76800, Note_on_c, 0, 42, 0
4, 76800, Note_on_c, 0, 41, 86
4, 76800, Note_on_c, 0, 48, 86
4, 76800, Note_on_c, 0, 53, 86
4, 77040, Note_on_c, 0, 53, 0
4, 77040, Note_on_c, 0, 48, 0
4, 77040, Note_on_c, 0, 41, 0
4, 77040, Note_on_c, 0, 43, 86
4, 77040, Note_on_c, 0, 53, 86
4, 77040, Note_on_c, 0, 55, 86
4, 77280, Note_on_c, 0, 55, 0
4, 77280, Note_on_c, 0, 53, 0
4, 77280, Note_on_c, 0, 43, 0
4, 77280, Note_on_c, 0, 45, 86
4, 77280, Note_on_c, 0, 53, 86
4, 77280, Note_on_c, 0, 57, 86
4, 77520, Note_on_c, 0, 57, 0
4, 77520, Note_on_c, 0, 53, 0
4, 77520, Note_on_c, 0, 45, 0
4, 77520, Note_on_c, 0, 46, 86
4, 77520, Note_on_c, 0, 53, 86
4, 77520, Note_on_c, 0, 58, 86
4, 77760, Note_on_c, 0, 58, 0
4, 77760, Note_on_c, 0, 53, 0
4, 77760, Note_on_c, 0, 46, 0
4, 77760, Note_on_c, 0, 47, 86
4, 77760, Note_on_c, 0, 55, 86
4, 77760, Note_on_c, 0, 59, 86
4, 78000, Note_on_c, 0, 59, 0
4, 78000, Note_on_c, 0, 55, 0
4, 78000, Note_on_c, 0, 47, 0
4, 78000, Note_on_c, 0, 48, 86
4, 78000, Note_on_c, 0, 55, 86
4, 78000, Note_on_c, 0, 60, 86
4, 78240, Note_on_c, 0, 60, 0
4, 78240, Note_on_c, 0, 55, 0
4, 78240, Note_on_c, 0, 48, 0
4, 78720, Note_on_c, 0, 40, 86
4, 78720, Note_on_c, 0, 46, 86
4, 78720, Note_on_c, 0, 52, 86
4, 79200, Note_on_c, 0, 52, 0
4, 79200, Note_on_c, 0, 46, 0
4, 79200, Note_on_c, 0, 40, 0
4, 79200, Note_on_c, 0, 41, 86
4, 79200, Note_on_c, 0, 46, 86
4, 79200, Note_on_c, 0, 53, 86
4, 79560, Note_on_c, 0, 53, 0
4, 79560, Note_on_c, 0, 46, 0
4, 79560, Note_on_c, 0, 41, 0
4, 79560, Note_on_c, 0, 43, 86
4, 79560, Note_on_c, 0, 48, 86
4, 79560, Note_on_c, 0, 55, 86
4, 79680, Note_on_c, 0, 55, 0
4, 79680, Note_on_c, 0, 48, 0
4, 79680, Note_on_c, 0, 43, 0
4, 79680, Note_on_c, 0, 43, 86
4, 79680, Note_on_c, 0, 48, 86
4, 79680, Note_on_c, 0, 55, 86
4, 79920, Note_on_c, 0, 55, 0
4, 79920, Note_on_c, 0, 48, 0
4, 79920, Note_on_c, 0, 43, 0
4, 79920, Note_on_c, 0, 43, 86
4, 79920, Note_on_c, 0, 48, 86
4, 79920, Note_on_c, 0, 55, 86
4, 80160, Note_on_c, 0, 55, 0
4, 80160, Note_on_c, 0, 48, 0
4, 80160, Note_on_c, 0, 43, 0
4, 80160, Note_on_c, 0, 44, 86
4, 80160, Note_on_c, 0, 50, 86
4, 80160, Note_on_c, 0, 56, 86
4, 80640, Note_on_c, 0, 56, 0
4, 80640, Note_on_c, 0, 50, 0
4, 80640, Note_on_c, 0, 44, 0
4, 80640, Note_on_c, 0, 45, 86
4, 80640, Note_on_c, 0, 53, 86
4, 80640, Note_on_c, 0, 57, 86
4, 81120, Note_on_c, 0, 57, 0
4, 81120, Note_on_c, 0, 53, 0
4, 81120, Note_on_c, 0, 45, 0
4, 81120, Note_on_c, 0, 50, 86
4, 81120, Note_on_c, 0, 53, 86
4, 81120, Note_on_c, 0, 57, 86
4, 81480, Note_on_c, 0, 57, 0
4, 81480, Note_on_c, 0, 53, 0
4, 81480, Note_on_c, 0, 50, 0
4, 81480, Note_on_c, 0, 50, 86
4, 81480, Note_on_c, 0, 53, 86
4, 81480, Note_on_c, 0, 57, 86
4, 81600, Note_on_c, 0, 57, 0
4, 81600, Note_on_c, 0, 53, 0
4, 81600, Note_on_c, 0, 50, 0
4, 81600, Note_on_c, 0, 50, 86
4, 81600, Note_on_c, 0, 53, 86
4, 81600, Note_on_c, 0, 57, 86
4, 81840, Note_on_c, 0, 57, 0
4, 81840, Note_on_c, 0, 53, 0
4, 81840, Note_on_c, 0, 50, 0
4, 81840, Note_on_c, 0, 49, 86
4, 81840, Note_on_c, 0, 53, 86
4, 81840, Note_on_c, 0, 55, 86
4, 81840, Note_on_c, 0, 58, 86
4, 82080, Note_on_c, 0, 58, 0
4, 82080, Note_on_c, 0, 49, 0
4, 82080, Note_on_c, 0, 53, 0
4, 82080, Note_on_c, 0, 55, 0
4, 82080, Note_on_c, 0, 48, 86
4, 82080, Note_on_c, 0, 53, 86
4, 82080, Note_on_c, 0, 57, 86
4, 82080, Note_on_c, 0, 60, 86
4, 82560, Note_on_c, 0, 60, 0
4, 82560, Note_on_c, 0, 48, 0
4, 82560, Note_on_c, 0, 53, 0
4, 82560, Note_on_c, 0, 57, 0
4, 82560, Note_on_c, 0, 47, 86
4, 82560, Note_on_c, 0, 53, 86
4, 82560, Note_on_c, 0, 56, 86
4, 82560, Note_on_c, 0, 59, 86
4, 83040, Note_on_c, 0, 59, 0
4, 83040, Note_on_c, 0, 47, 0
4, 83040, Note_on_c, 0, 53, 0
4, 83040, Note_on_c, 0, 56, 0
4, 83040, Note_on_c, 0, 52, 86
4, 83040, Note_on_c, 0, 55, 86
4, 83040, Note_on_c, 0, 58, 86
4, 83400, Note_on_c, 0, 58, 0
4, 83400, Note_on_c, 0, 55, 0
4, 83400, Note_on_c, 0, 52, 0
4, 83400, Note_on_c, 0, 52, 86
4, 83400, Note_on_c, 0, 55, 86
4, 83400, Note_on_c, 0, 58, 86
4, 83520, Note_on_c, 0, 58, 0
4, 83520, Note_on_c, 0, 55, 0
4, 83520, Note_on_c, 0, 52, 0
4, 83520, Note_on_c, 0, 52, 86
4, 83520, Note_on_c, 0, 55, 86
4, 83520, Note_on_c, 0, 58, 86
4, 83760, Note_on_c, 0, 58, 0
4, 83760, Note_on_c, 0, 55, 0
4, 83760, Note_on_c, 0, 52, 0
4, 83760, Note_on_c, 0, 52, 86
4, 83760, Note_on_c, 0, 55, 86
4, 83760, Note_on_c, 0, 57, 86
4, 83760, Note_on_c, 0, 60, 86
4, 84000, Note_on_c, 0, 60, 0
4, 84000, Note_on_c, 0, 52, 0
4, 84000, Note_on_c, 0, 55, 0
4, 84000, Note_on_c, 0, 57, 0
4, 84000, Note_on_c, 0, 50, 86
4, 84000, Note_on_c, 0, 55, 86
4, 84000, Note_on_c, 0, 58, 86
4, 84000, Note_on_c, 0, 62, 86
4, 84480, Note_on_c, 0, 62, 0
4, 84480, Note_on_c, 0, 50, 0
4, 84480, Note_on_c, 0, 55, 0
4, 84480, Note_on_c, 0, 58, 0
4, 84480, Note_on_c, 0, 49, 86
4, 84480, Note_on_c, 0, 55, 86
4, 84480, Note_on_c, 0, 58, 86
4, 84960, Note_on_c, 0, 58, 0
4, 84960, Note_on_c, 0, 55, 0
4, 84960, Note_on_c, 0, 49, 0
4, 84960, Note_on_c, 0, 44, 86
4, 84960, Note_on_c, 0, 53, 86
4, 84960, Note_on_c, 0, 59, 86
4, 85320, Note_on_c, 0, 59, 0
4, 85320, Note_on_c, 0, 53, 0
4, 85320, Note_on_c, 0, 44, 0
4, 85320, Note_on_c, 0, 49, 86
4, 85320, Note_on_c, 0, 55, 86
4, 85320, Note_on_c, 0, 58, 86
4, 85440, Note_on_c, 0, 58, 0
4, 85440, Note_on_c, 0, 55, 0
4, 85440, Note_on_c, 0, 49, 0
4, 85440, Note_on_c, 0, 49, 86
4, 85440, Note_on_c, 0, 55, 86
4, 85440, Note_on_c, 0, 58, 86
4, 85920, Note_on_c, 0, 58, 0
4, 85920, Note_on_c, 0, 55, 0
4, 85920, Note_on_c, 0, 49, 0
4, 85920, Note_on_c, 0, 44, 86
4, 85920, Note_on_c, 0, 53, 86
4, 85920, Note_on_c, 0, 59, 86
4, 86280, Note_on_c, 0, 59, 0
4, 86280, Note_on_c, 0, 53, 0
4, 86280, Note_on_c, 0, 44, 0
4, 86280, Note_on_c, 0, 49, 86
4, 86280, Note_on_c, 0, 55, 86
4, 86280, Note_on_c, 0, 58, 86
4, 86400, Note_on_c, 0, 58, 0
4, 86400, Note_on_c, 0, 55, 0
4, 86400, Note_on_c, 0, 49, 0
4, 86400, Note_on_c, 0, 49, 86
4, 86400, Note_on_c, 0, 55, 86
4, 86400, Note_on_c, 0, 58, 86
4, 86640, Note_on_c, 0, 58, 0
4, 86640, Note_on_c, 0, 55, 0
4, 86640, Note_on_c, 0, 49, 0
4, 86640, Note_on_c, 0, 44, 86
4, 86640, Note_on_c, 0, 53, 86
4, 86640, Note_on_c, 0, 59, 86
4, 86880, Note_on_c, 0, 59, 0
4, 86880, Note_on_c, 0, 53, 0
4, 86880, Note_on_c, 0, 44, 0
4, 86880, Note_on_c, 0, 49, 86
4, 86880, Note_on_c, 0, 55, 86
4, 86880, Note_on_c, 0, 58, 86
4, 87120, Note_on_c, 0, 58, 0
4, 87120, Note_on_c, 0, 55, 0
4, 87120, Note_on_c, 0, 49, 0
4, 87120, Note_on_c, 0, 44, 86
4, 87120, Note_on_c, 0, 53, 86
4, 87120, Note_on_c, 0, 59, 86
4, 87360, Note_on_c, 0, 59, 0
4, 87360, Note_on_c, 0, 53, 0
4, 87360, Note_on_c, 0, 44, 0
4, 87360, Note_on_c, 0, 49, 86
4, 87360, Note_on_c, 0, 55, 86
4, 87360, Note_on_c, 0, 58, 86
4, 87600, Note_on_c, 0, 58, 0
4, 87600, Note_on_c, 0, 55, 0
4, 87600, Note_on_c, 0, 49, 0
4, 87600, Note_on_c, 0, 44, 86
4, 87600, Note_on_c, 0, 53, 86
4, 87600, Note_on_c, 0, 59, 86
4, 87840, Note_on_c, 0, 59, 0
4, 87840, Note_on_c, 0, 53, 0
4, 87840, Note_on_c, 0, 44, 0
4, 87840, Note_on_c, 0, 49, 86
4, 87840, Note_on_c, 0, 55, 86
4, 87840, Note_on_c, 0, 58, 86
4, 88080, Note_on_c, 0, 58, 0
4, 88080, Note_on_c, 0, 55, 0
4, 88080, Note_on_c, 0, 49, 0
4, 88080, Note_on_c, 0, 44, 86
4, 88080, Note_on_c, 0, 53, 86
4, 88080, Note_on_c, 0, 59, 86
4, 88320, Note_on_c, 0, 59, 0
4, 88320, Note_on_c, 0, 53, 0
4, 88320, Note_on_c, 0, 44, 0
4, 88320, Note_on_c, 0, 45, 86
4, 88320, Note_on_c, 0, 52, 86
4, 88320, Note_on_c, 0, 57, 86
4, 88560, Note_on_c, 0, 57, 0
4, 88560, Note_on_c, 0, 52, 0
4, 88560, Note_on_c, 0, 45, 0
4, 88800, Note_on_c, 0, 57, 86
4, 88800, Note_on_c, 0, 69, 86
4, 89520, Note_on_c, 0, 69, 0
4, 89520, Note_on_c, 0, 57, 0
4, 89520, Note_on_c, 0, 56, 86
4, 89520, Note_on_c, 0, 68, 86
4, 89760, Note_on_c, 0, 68, 0
4, 89760, Note_on_c, 0, 56, 0
4, 89760, Note_on_c, 0, 54, 86
4, 89760, Note_on_c, 0, 66, 86
4, 90000, Note_on_c, 0, 66, 0
4, 90000, Note_on_c, 0, 54, 0
4, 90000, Note_on_c, 0, 52, 86
4, 90000, Note_on_c, 0, 64, 86
4, 90240, Note_on_c, 0, 64, 0
4, 90240, Note_on_c, 0, 52, 0
4, 90240, Note_on_c, 0, 51, 86
4, 90240, Note_on_c, 0, 63, 86
4, 90480, Note_on_c, 0, 63, 0
4, 90480, Note_on_c, 0, 51, 0
4, 90720, Note_on_c, 0, 51, 86
4, 90720, Note_on_c, 0, 63, 86
4, 91440, Note_on_c, 0, 63, 0
4, 91440, Note_on_c, 0, 51, 0
4, 91440, Note_on_c, 0, 49, 86
4, 91440, Note_on_c, 0, 61, 86
4, 91680, Note_on_c, 0, 61, 0
4, 91680, Note_on_c, 0, 49, 0
4, 91680, Note_on_c, 0, 47, 86
4, 91680, Note_on_c, 0, 59, 86
4, 91920, Note_on_c, 0, 59, 0
4, 91920, Note_on_c, 0, 47, 0
4, 91920, Note_on_c, 0, 46, 86
4, 91920, Note_on_c, 0, 58, 86
4, 92160, Note_on_c, 0, 58, 0
4, 92160, Note_on_c, 0, 46, 0
4, 92160, Note_on_c, 0, 44, 86
4, 92160, Note_on_c, 0, 56, 86
4, 92400, Note_on_c, 0, 56, 0
4, 92400, Note_on_c, 0, 44, 0
4, 92640, Note_on_c, 0, 44, 86
4, 92640, Note_on_c, 0, 56, 86
4, 93360, Note_on_c, 0, 56, 0
4, 93360, Note_on_c, 0, 44, 0
4, 93360, Note_on_c, 0, 42, 86
4, 93360, Note_on_c, 0, 54, 86
4, 93600, Note_on_c, 0, 54, 0
4, 93600, Note_on_c, 0, 42, 0
4, 93600, Note_on_c, 0, 40, 86
4, 93600, Note_on_c, 0, 52, 86
4, 93840, Note_on_c, 0, 52, 0
4, 93840, Note_on_c, 0, 40, 0
4, 93840, Note_on_c, 0, 38, 86
4, 93840, Note_on_c, 0, 50, 86
4, 94080, Note_on_c, 0, 50, 0
4, 94080, Note_on_c, 0, 38, 0
4, 94080, Note_on_c, 0, 37, 86
4, 94080, Note_on_c, 0, 49, 86
4, 94560, Note_on_c, 0, 49, 0
4, 94560, Note_on_c, 0, 37, 0
4, 94560, Note_on_c, 0, 49, 86
4, 94560, Note_on_c, 0, 61, 86
4, 94920, Note_on_c, 0, 61, 0
4, 94920, Note_on_c, 0, 49, 0
4, 94920, Note_on_c, 0, 37, 86
4, 94920, Note_on_c, 0, 49, 86
4, 95040, Note_on_c, 0, 49, 0
4, 95040, Note_on_c, 0, 37, 0
4, 95040, Note_on_c, 0, 37, 86
4, 95040, Note_on_c, 0, 49, 86
4, 95520, Note_on_c, 0, 49, 0
4, 95520, Note_on_c, 0, 37, 0
4, 95520, Note_on_c, 0, 49, 86
4, 95520, Note_on_c, 0, 61, 86
4, 95880, Note_on_c, 0, 61, 0
4, 95880, Note_on_c, 0, 49, 0
4, 95880, Note_on_c, 0, 37, 86
4, 95880, Note_on_c, 0, 49, 86
4, 96000, Note_on_c, 0, 49, 0
4, 96000, Note_on_c, 0, 37, 0
4, 96000, Note_on_c, 0, 37, 86
4, 96000, Note_on_c, 0, 49, 86
4, 96480, Note_on_c, 0, 49, 0
4, 96480, Note_on_c, 0, 37, 0
4, 96480, Note_on_c, 0, 65, 86
4, 96639, Note_on_c, 0, 65, 0
4, 96639, Note_on_c, 0, 65, 86
4, 96800, Note_on_c, 0, 65, 0
4, 96800, Note_on_c, 0, 65, 86
4, 96960, Note_on_c, 0, 65, 0
4, 96960, Note_on_c, 0, 65, 86
4, 97119, Note_on_c, 0, 65, 0
4, 97119, Note_on_c, 0, 67, 86
4, 97280, Note_on_c, 0, 67, 0
4, 97280, Note_on_c, 0, 68, 86
4, 97440, Note_on_c, 0, 68, 0
4, 97440, Note_on_c, 0, 68, 86
4, 97920, Note_on_c, 0, 68, 0
4, 97920, Note_on_c, 0, 37, 86
4, 97920, Note_on_c, 0, 49, 86
4, 98400, Note_on_c, 0, 49, 0
4, 98400, Note_on_c, 0, 37, 0
4, 98400, Note_on_c, 0, 49, 86
4, 98400, Note_on_c, 0, 61, 86
4, 98760, Note_on_c, 0, 61, 0
4, 98760, Note_on_c, 0, 49, 0
4, 98760, Note_on_c, 0, 37, 86
4, 98760, Note_on_c, 0, 49, 86
4, 98880, Note_on_c, 0, 49, 0
4, 98880, Note_on_c, 0, 37, 0
4, 98880, Note_on_c, 0, 37, 86
4, 98880, Note_on_c, 0, 49, 86
4, 99360, Note_on_c, 0, 49, 0
4, 99360, Note_on_c, 0, 37, 0
4, 99360, Note_on_c, 0, 49, 86
4, 99360, Note_on_c, 0, 61, 86
4, 99720, Note_on_c, 0, 61, 0
4, 99720, Note_on_c, 0, 49, 0
4, 99720, Note_on_c, 0, 37, 86
4, 99720, Note_on_c, 0, 49, 86
4, 99840, Note_on_c, 0, 49, 0
4, 99840, Note_on_c, 0, 37, 0
4, 99840, Note_on_c, 0, 37, 86
4, 99840, Note_on_c, 0, 49, 86
4, 100320, Note_on_c, 0, 49, 0
4, 100320, Note_on_c, 0, 37, 0
4, 100320, Note_on_c, 0, 65, 86
4, 100479, Note_on_c, 0, 65, 0
4, 100479, Note_on_c, 0, 65, 86
4, 100640, Note_on_c, 0, 65, 0
4, 100640, Note_on_c, 0, 65, 86
4, 100800, Note_on_c, 0, 65, 0
4, 100800, Note_on_c, 0, 65, 86
4, 100959, Note_on_c, 0, 65, 0
4, 100959, Note_on_c, 0, 67, 86
4, 101120, Note_on_c, 0, 67, 0
4, 101120, Note_on_c, 0, 68, 86
4, 101280, Note_on_c, 0, 68, 0
4, 101280, Note_on_c, 0, 68, 86
4, 101439, Note_on_c, 0, 68, 0
4, 101439, Note_on_c, 0, 70, 86
4, 101600, Note_on_c, 0, 70, 0
4, 101600, Note_on_c, 0, 71, 86
4, 101760, Note_on_c, 0, 71, 0
4, 101760, Note_on_c, 0, 65, 86
4, 101919, Note_on_c, 0, 65, 0
4, 101919, Note_on_c, 0, 67, 86
4, 102080, Note_on_c, 0, 67, 0
4, 102080, Note_on_c, 0, 68, 86
4, 102240, Note_on_c, 0, 68, 0
4, 102240, Note_on_c, 0, 68, 86
4, 102399, Note_on_c, 0, 68, 0
4, 102399, Note_on_c, 0, 70, 86
4, 102560, Note_on_c, 0, 70, 0
4, 102560, Note_on_c, 0, 71, 86
4, 102720, Note_on_c, 0, 71, 0
4, 102720, Note_on_c, 0, 65, 86
4, 102879, Note_on_c, 0, 65, 0
4, 102879, Note_on_c, 0, 67, 86
4, 103040, Note_on_c, 0, 67, 0
4, 103040, Note_on_c, 0, 68, 86
4, 103200, Note_on_c, 0, 68, 0
4, 103200, Note_on_c, 0, 68, 86
4, 103359, Note_on_c, 0, 68, 0
4, 103359, Note_on_c, 0, 70, 86
4, 103520, Note_on_c, 0, 70, 0
4, 103520, Note_on_c, 0, 71, 86
4, 103680, Note_on_c, 0, 71, 0
4, 103680, Note_on_c, 0, 68, 86
4, 103839, Note_on_c, 0, 68, 0
4, 103839, Note_on_c, 0, 70, 86
4, 104000, Note_on_c, 0, 70, 0
4, 104000, Note_on_c, 0, 71, 86
4, 104160, Note_on_c, 0, 71, 0
4, 104160, Note_on_c, 0, 68, 86
4, 104319, Note_on_c, 0, 68, 0
4, 104319, Note_on_c, 0, 70, 86
4, 104480, Note_on_c, 0, 70, 0
4, 104480, Note_on_c, 0, 71, 86
4, 104640, Note_on_c, 0, 71, 0
4, 104640, Note_on_c, 0, 68, 86
4, 104799, Note_on_c, 0, 68, 0
4, 104799, Note_on_c, 0, 70, 86
4, 104960, Note_on_c, 0, 70, 0
4, 104960, Note_on_c, 0, 71, 86
4, 105120, Note_on_c, 0, 71, 0
4, 105360, Note_on_c, 0, 45, 86
4, 105360, Note_on_c, 0, 48, 86
4, 105360, Note_on_c, 0, 53, 86
4, 105600, Note_on_c, 0, 53, 0
4, 105600, Note_on_c, 0, 48, 0
4, 105600, Note_on_c, 0, 45, 0
4, 105600, Note_on_c, 0, 43, 86
4, 105600, Note_on_c, 0, 46, 86
4, 105600, Note_on_c, 0, 52, 86
4, 105840, Note_on_c, 0, 52, 0
4, 105840, Note_on_c, 0, 46, 0
4, 105840, Note_on_c, 0, 43, 0
4, 105840, Note_on_c, 0, 46, 86
4, 105840, Note_on_c, 0, 50, 86
4, 105840, Note_on_c, 0, 55, 86
4, 106080, Note_on_c, 0, 55, 0
4, 106080, Note_on_c, 0, 50, 0
4, 106080, Note_on_c, 0, 46, 0
4, 106080, Note_on_c, 0, 45, 86
4, 106080, Note_on_c, 0, 48, 86
4, 106080, Note_on_c, 0, 53, 86
4, 106320, Note_on_c, 0, 53, 0
4, 106320, Note_on_c, 0, 48, 0
4, 106320, Note_on_c, 0, 45, 0
4, 106320, Note_on_c, 0, 48, 86
4, 106320, Note_on_c, 0, 52, 86
4, 106320, Note_on_c, 0, 57, 86
4, 106560, Note_on_c, 0, 57, 0
4, 106560, Note_on_c, 0, 52, 0
4, 106560, Note_on_c, 0, 48, 0
4, 106560, Note_on_c, 0, 46, 86
4, 106560, Note_on_c, 0, 50, 86
4, 106560, Note_on_c, 0, 55, 86
4, 106800, Note_on_c, 0, 55, 0
4, 106800, Note_on_c, 0, 50, 0
4, 106800, Note_on_c, 0, 46, 0
4, 106800, Note_on_c, 0, 50, 86
4, 106800, Note_on_c, 0, 53, 86
4, 106800, Note_on_c, 0, 58, 86
4, 107040, Note_on_c, 0, 58, 0
4, 107040, Note_on_c, 0, 53, 0
4, 107040, Note_on_c, 0, 50, 0
4, 107040, Note_on_c, 0, 48, 86
4, 107040, Note_on_c, 0, 52, 86
4, 107040, Note_on_c, 0, 57, 86
4, 107280, Note_on_c, 0, 57, 0
4, 107280, Note_on_c, 0, 52, 0
4, 107280, Note_on_c, 0, 48, 0
4, 107280, Note_on_c, 0, 52, 86
4, 107280, Note_on_c, 0, 55, 86
4, 107280, Note_on_c, 0, 60, 86
4, 107520, Note_on_c, 0, 60, 0
4, 107520, Note_on_c, 0, 55, 0
4, 107520, Note_on_c, 0, 52, 0
4, 107520, Note_on_c, 0, 50, 86
4, 107520, Note_on_c, 0, 53, 86
4, 107520, Note_on_c, 0, 59, 86
4, 107760, Note_on_c, 0, 59, 0
4, 107760, Note_on_c, 0, 53, 0
4, 107760, Note_on_c, 0, 50, 0
4, 107760, Note_on_c, 0, 53, 86
4, 107760, Note_on_c, 0, 56, 86
4, 107760, Note_on_c, 0, 62, 86
4, 108000, Note_on_c, 0, 62, 0
4, 108000, Note_on_c, 0, 56, 0
4, 108000, Note_on_c, 0, 53, 0
4, 108000, Note_on_c, 0, 52, 86
4, 108000, Note_on_c, 0, 55, 86
4, 108000, Note_on_c, 0, 60, 86
4, 108240, Note_on_c, 0, 60, 0
4, 108240, Note_on_c, 0, 55, 0
4, 108240, Note_on_c, 0, 52, 0
4, 108240, Note_on_c, 0, 55, 86
4, 108240, Note_on_c, 0, 58, 86
4, 108240, Note_on_c, 0, 64, 86
4, 108480, Note_on_c, 0, 64, 0
4, 108480, Note_on_c, 0, 58, 0
4, 108480, Note_on_c, 0, 55, 0
4, 108480, Note_on_c, 0, 53, 86
4, 108480, Note_on_c, 0, 57, 86
4, 108480, Note_on_c, 0, 62, 86
4, 108720, Note_on_c, 0, 62, 0
4, 108720, Note_on_c, 0, 57, 0
4, 108720, Note_on_c, 0, 53, 0
4, 108720, Note_on_c, 0, 57, 86
4, 108720, Note_on_c, 0, 60, 86
4, 108720, Note_on_c, 0, 65, 86
4, 108960, Note_on_c, 0, 65, 0
4, 108960, Note_on_c, 0, 60, 0
4, 108960, Note_on_c, 0, 57, 0
4, 108960, Note_on_c, 0, 55, 86
4, 108960, Note_on_c, 0, 58, 86
4, 108960, Note_on_c, 0, 64, 86
4, 109200, Note_on_c, 0, 64, 0
4, 109200, Note_on_c, 0, 58, 0
4, 109200, Note_on_c, 0, 55, 0
4, 109200, Note_on_c, 0, 58, 86
4, 109200, Note_on_c, 0, 62, 86
4, 109200, Note_on_c, 0, 67, 86
4, 109440, Note_on_c, 0, 67, 0
4, 109440, Note_on_c, 0, 62, 0
4, 109440, Note_on_c, 0, 58, 0
4, 109440, Note_on_c, 0, 59, 86
4, 109440, Note_on_c, 0, 62, 86
4, 109440, Note_on_c, 0, 68, 86
4, 110160, Note_on_c, 0, 68, 0
4, 110160, Note_on_c, 0, 62, 0
4, 110160, Note_on_c, 0, 59, 0
4, 110400, Note_on_c, 0, 59, 86
4, 110640, Note_on_c, 0, 59, 0
4, 110640, Note_on_c, 0, 56, 86
4, 110880, Note_on_c, 0, 56, 0
4, 110880, Note_on_c, 0, 55, 86
4, 111120, Note_on_c, 0, 55, 0
4, 111120, Note_on_c, 0, 53, 86
4, 111360, Note_on_c, 0, 53, 0
4, 111360, Note_on_c, 0, 48, 86
4, 111360, Note_on_c, 0, 57, 86
4, 111360, Note_on_c, 0, 60, 86
4, 112080, Note_on_c, 0, 60, 0
4, 112080, Note_on_c, 0, 57, 0
4, 112080, Note_on_c, 0, 48, 0
4, 112560, Note_on_c, 0, 48, 86
4, 112560, Note_on_c, 0, 58, 86
4, 112800, Note_on_c, 0, 58, 0
4, 112800, Note_on_c, 0, 48, 0
4, 112800, Note_on_c, 0, 53, 86
4, 112800, Note_on_c, 0, 57, 86
4, 113040, Note_on_c, 0, 57, 0
4, 113040, Note_on_c, 0, 53, 0
4, 113040, Note_on_c, 0, 41, 112
4, 113040, Note_on_c, 0, 45, 112
4, 113040, Note_on_c, 0, 48, 112
4, 113040, Note_on_c, 0, 53, 112
4, 113280, Note_on_c, 0, 53, 0
4, 113280, Note_on_c, 0, 41, 0
4, 113280, Note_on_c, 0, 45, 0
4, 113280, Note_on_c, 0, 48, 0
4, 113280, Note_on_c, 0, 46, 60
4, 113280, Note_on_c, 0, 53, 60
4, 113376, Note_on_c, 0, 53, 0
4, 113376, Note_on_c, 0, 46, 0
4, 116160, Note_on_c, 0, 34, 60
4, 116160, Note_on_c, 0, 46, 60
4, 116256, Note_on_c, 0, 46, 0
4, 116256, Note_on_c, 0, 34, 0
4, 116640, Note_on_c, 0, 34, 60
4, 116640, Note_on_c, 0, 46, 60
4, 116736, Note_on_c, 0, 46, 0
4, 116736, Note_on_c, 0, 34, 0
4, 117030, Note_on_c, 0, 46, 60
4, 117060, Note_on_c, 0, 49, 60
4, 117090, Note_on_c, 0, 53, 60
4, 117120, Note_on_c, 0, 58, 60
4, 117216, Note_on_c, 0, 58, 0
4, 117216, Note_on_c, 0, 46, 0
4, 117216, Note_on_c, 0, 49, 0
4, 117216, Note_on_c, 0, 53, 0
4, 120000, Note_on_c, 0, 34, 60
4, 120000, Note_on_c, 0, 46, 60
4, 120096, Note_on_c, 0, 46, 0
4, 120096, Note_on_c, 0, 34, 0
4, 120480, Note_on_c, 0, 34, 60
4, 120480, Note_on_c, 0, 46, 60
4, 120576, Note_on_c, 0, 46, 0
4, 120576, Note_on_c, 0, 34, 0
4, 120880, Note_on_c, 0, 46, 60
4, 120920, Note_on_c, 0, 53, 60
4, 120960, Note_on_c, 0, 57, 60
4, 121056, Note_on_c, 0, 57, 0
4, 121056, Note_on_c, 0, 53, 0
4, 121056, Note_on_c, 0, 46, 0
4, 123840, Note_on_c, 0, 34, 60
4, 123840, Note_on_c, 0, 46, 60
4, 123936, Note_on_c, 0, 46, 0
4, 123936, Note_on_c, 0, 34, 0
4, 124320, Note_on_c, 0, 34, 60
4, 124320, Note_on_c, 0, 46, 60
4, 124416, Note_on_c, 0, 46, 0
4, 124416, Note_on_c, 0, 34, 0
4, 124720, Note_on_c, 0, 46, 60
4, 124760, Note_on_c, 0, 53, 60
4, 124800, Note_on_c, 0, 57, 60
4, 124896, Note_on_c, 0, 57, 0
4, 124896, Note_on_c, 0, 53, 0
4, 124896, Note_on_c, 0, 46, 0
4, 127680, Note_on_c, 0, 34, 60
4, 127680, Note_on_c, 0, 46, 60
4, 127776, Note_on_c, 0, 46, 0
4, 127776, Note_on_c, 0, 34, 0
4, 128160, Note_on_c, 0, 34, 60
4, 128160, Note_on_c, 0, 46, 60
4, 128256, Note_on_c, 0, 46, 0
4, 128256, Note_on_c, 0, 34, 0
4, 128640, Note_on_c, 0, 41, 60
4, 128640, Note_on_c, 0, 53, 60
4, 129120, Note_on_c, 0, 53, 0
4, 129120, Note_on_c, 0, 41, 0
4, 129120, Note_on_c, 0, 34, 60
4, 129120, Note_on_c, 0, 46, 60
4, 129600, Note_on_c, 0, 46, 0
4, 129600, Note_on_c, 0, 34, 0
4, 129720, Note_on_c, 0, 53, 60
4, 129840, Note_on_c, 0, 53, 0
4, 129840, Note_on_c, 0, 55, 60
4, 129960, Note_on_c, 0, 55, 0
4, 129960, Note_on_c, 0, 57, 60
4, 130080, Note_on_c, 0, 57, 0
4, 130080, Note_on_c, 0, 58, 60
4, 130200, Note_on_c, 0, 58, 0
4, 130200, Note_on_c, 0, 60, 60
4, 130320, Note_on_c, 0, 60, 0
4, 130320, Note_on_c, 0, 61, 60
4, 130440, Note_on_c, 0, 61, 0
4, 130440, Note_on_c, 0, 63, 60
4, 130560, Note_on_c, 0, 63, 0
4, 130560, Note_on_c, 0, 65, 60
4, 130680, Note_on_c, 0, 65, 0
4, 130680, Note_on_c, 0, 67, 60
4, 130800, Note_on_c, 0, 67, 0
4, 130800, Note_on_c, 0, 68, 60
4, 130920, Note_on_c, 0, 68, 0
4, 130920, Note_on_c, 0, 69, 60
4, 131040, Note_on_c, 0, 69, 0
4, 131040, Note_on_c, 0, 70, 60
4, 131280, Note_on_c, 0, 70, 0
4, 131640, Note_on_c, 0, 33, 60
4, 131760, Note_on_c, 0, 33, 0
4, 131760, Note_on_c, 0, 34, 60
4, 131880, Note_on_c, 0, 34, 0
4, 131880, Note_on_c, 0, 36, 60
4, 132000, Note_on_c, 0, 36, 0
4, 132000, Note_on_c, 0, 37, 60
4, 132120, Note_on_c, 0, 37, 0
4, 132120, Note_on_c, 0, 36, 60
4, 132240, Note_on_c, 0, 36, 0
4, 132240, Note_on_c, 0, 37, 60
4, 132360, Note_on_c, 0, 37, 0
4, 132360, Note_on_c, 0, 39, 60
4, 132480, Note_on_c, 0, 39, 0
4, 132480, Note_on_c, 0, 41, 60
4, 132960, Note_on_c, 0, 41, 0
4, 132960, Note_on_c, 0, 34, 60
4, 132960, Note_on_c, 0, 46, 60
4, 133440, Note_on_c, 0, 46, 0
4, 133440, Note_on_c, 0, 34, 0
4, 133560, Note_on_c, 0, 53, 60
4, 133680, Note_on_c, 0, 53, 0
4, 133680, Note_on_c, 0, 55, 60
4, 133800, Note_on_c, 0, 55, 0
4, 133800, Note_on_c, 0, 57, 60
4, 133920, Note_on_c, 0, 57, 0
4, 133920, Note_on_c, 0, 58, 60
4, 134040, Note_on_c, 0, 58, 0
4, 134040, Note_on_c, 0, 60, 60
4, 134160, Note_on_c, 0, 60, 0
4, 134160, Note_on_c, 0, 61, 60
4, 134280, Note_on_c, 0, 61, 0
4, 134280, Note_on_c, 0, 63, 60
4, 134400, Note_on_c, 0, 63, 0
4, 134400, Note_on_c, 0, 65, 60
4, 134520, Note_on_c, 0, 65, 0
4, 134520, Note_on_c, 0, 67, 60
4, 134640, Note_on_c, 0, 67, 0
4, 134640, Note_on_c, 0, 68, 60
4, 134760, Note_on_c, 0, 68, 0
4, 134760, Note_on_c, 0, 69, 60
4, 134880, Note_on_c, 0, 69, 0
4, 134880, Note_on_c, 0, 70, 60
4, 135120, Note_on_c, 0, 70, 0
4, 135480, Note_on_c, 0, 33, 60
4, 135600, Note_on_c, 0, 33, 0
4, 135600, Note_on_c, 0, 34, 60
4, 135720, Note_on_c, 0, 34, 0
4, 135720, Note_on_c, 0, 36, 60
4, 135840, Note_on_c, 0, 36, 0
4, 135840, Note_on_c, 0, 37, 60
4, 135960, Note_on_c, 0, 37, 0
4, 135960, Note_on_c, 0, 36, 60
4, 136080, Note_on_c, 0, 36, 0
4, 136080, Note_on_c, 0, 37, 60
4, 136200, Note_on_c, 0, 37, 0
4, 136200, Note_on_c, 0, 39, 60
4, 136320, Note_on_c, 0, 39, 0
4, 136320, Note_on_c, 0, 41, 60
4, 136800, Note_on_c, 0, 41, 0
4, 136800, Note_on_c, 0, 34, 60
4, 136800, Note_on_c, 0, 46, 60
4, 137280, Note_on_c, 0, 46, 0
4, 137280, Note_on_c, 0, 34, 0
4, 137400, Note_on_c, 0, 53, 60
4, 137520, Note_on_c, 0, 53, 0
4, 137520, Note_on_c, 0, 55, 60
4, 137640, Note_on_c, 0, 55, 0
4, 137640, Note_on_c, 0, 57, 60
4, 137760, Note_on_c, 0, 57, 0
4, 137760, Note_on_c, 0, 58, 60
4, 137880, Note_on_c, 0, 58, 0
4, 137880, Note_on_c, 0, 60, 60
4, 138000, Note_on_c, 0, 60, 0
4, 138000, Note_on_c, 0, 61, 60
4, 138120, Note_on_c, 0, 61, 0
4, 138120, Note_on_c, 0, 63, 60
4, 138240, Note_on_c, 0, 63, 0
4, 138240, Note_on_c, 0, 65, 60
4, 138360, Note_on_c, 0, 65, 0
4, 138360, Note_on_c, 0, 67, 60
4, 138480, Note_on_c, 0, 67, 0
4, 138480, Note_on_c, 0, 68, 60
4, 138600, Note_on_c, 0, 68, 0
4, 138600, Note_on_c, 0, 69, 60
4, 138720, Note_on_c, 0, 69, 0
4, 138720, Note_on_c, 0, 70, 60
4, 138960, Note_on_c, 0, 70, 0
4, 139320, Note_on_c, 0, 33, 60
4, 139440, Note_on_c, 0, 33, 0
4, 139440, Note_on_c, 0, 34, 60
4, 139560, Note_on_c, 0, 34, 0
4, 139560, Note_on_c, 0, 36, 60
4, 139680, Note_on_c, 0, 36, 0
4, 139680, Note_on_c, 0, 37, 60
4, 139800, Note_on_c, 0, 37, 0
4, 139800, Note_on_c, 0, 36, 60
4, 139920, Note_on_c, 0, 36, 0
4, 139920, Note_on_c, 0, 37, 60
4, 140040, Note_on_c, 0, 37, 0
4, 140040, Note_on_c, 0, 39, 60
4, 140160, Note_on_c, 0, 39, 0
4, 140160, Note_on_c, 0, 41, 60
4, 140640, Note_on_c, 0, 41, 0
4, 140640, Note_on_c, 0, 34, 60
4, 140640, Note_on_c, 0, 46, 60
4, 141120, Note_on_c, 0, 46, 0
4, 141120, Note_on_c, 0, 34, 0
4, 141240, Note_on_c, 0, 53, 60
4, 141360, Note_on_c, 0, 53, 0
4, 141360, Note_on_c, 0, 55, 60
4, 141480, Note_on_c, 0, 55, 0
4, 141480, Note_on_c, 0, 57, 60
4, 141600, Note_on_c, 0, 57, 0
4, 141600, Note_on_c, 0, 58, 60
4, 141720, Note_on_c, 0, 58, 0
4, 141720, Note_on_c, 0, 60, 60
4, 141840, Note_on_c, 0, 60, 0
4, 141840, Note_on_c, 0, 61, 60
4, 141960, Note_on_c, 0, 61, 0
4, 141960, Note_on_c, 0, 63, 60
4, 142080, Note_on_c, 0, 63, 0
4, 142080, Note_on_c, 0, 65, 60
4, 142200, Note_on_c, 0, 65, 0
4, 142200, Note_on_c, 0, 67, 60
4, 142320, Note_on_c, 0, 67, 0
4, 142320, Note_on_c, 0, 68, 60
4, 142440, Note_on_c, 0, 68, 0
4, 142440, Note_on_c, 0, 69, 60
4, 142560, Note_on_c, 0, 69, 0
4, 142560, Note_on_c, 0, 70, 60
4, 142800, Note_on_c, 0, 70, 0
4, 143040, Note_on_c, 0, 34, 60
4, 143160, Note_on_c, 0, 34, 0
4, 143160, Note_on_c, 0, 36, 60
4, 143280, Note_on_c, 0, 36, 0
4, 143280, Note_on_c, 0, 37, 60
4, 143400, Note_on_c, 0, 37, 0
4, 143400, Note_on_c, 0, 39, 60
4, 143520, Note_on_c, 0, 39, 0
4, 143520, Note_on_c, 0, 41, 60
4, 143640, Note_on_c, 0, 41, 0
4, 143640, Note_on_c, 0, 39, 60
4, 143760, Note_on_c, 0, 39, 0
4, 143760, Note_on_c, 0, 37, 60
4, 143880, Note_on_c, 0, 37, 0
4, 143880, Note_on_c, 0, 36, 60
4, 144000, Note_on_c, 0, 36, 0
4, 144000, Note_on_c, 0, 34, 73
4, 144000, Note_on_c, 0, 46, 73
4, 145920, Note_on_c, 0, 46, 0
4, 145920, Note_on_c, 0, 34, 0
4, 145920, Note_on_c, 0, 51, 73
4, 145920, Note_on_c, 0, 54, 73
4, 146400, Note_on_c, 0, 54, 0
4, 146400, Note_on_c, 0, 51, 0
4, 146400, Note_on_c, 0, 49, 73
4, 146400, Note_on_c, 0, 53, 73
4, 146880, Note_on_c, 0, 53, 0
4, 146880, Note_on_c, 0, 49, 0
4, 146880, Note_on_c, 0, 58, 73
4, 146880, Note_on_c, 0, 60, 73
4, 147039, Note_on_c, 0, 60, 0
4, 147039, Note_on_c, 0, 58, 0
4, 147039, Note_on_c, 0, 58, 73
4, 147039, Note_on_c, 0, 60, 73
4, 147200, Note_on_c, 0, 60, 0
4, 147200, Note_on_c, 0, 58, 0
4, 147200, Note_on_c, 0, 58, 73
4, 147200, Note_on_c, 0, 60, 73
4, 147360, Note_on_c, 0, 60, 0
4, 147360, Note_on_c, 0, 58, 0
4, 147360, Note_on_c, 0, 58, 73
4, 147360, Note_on_c, 0, 60, 73
4, 147519, Note_on_c, 0, 60, 0
4, 147519, Note_on_c, 0, 58, 0
4, 147519, Note_on_c, 0, 58, 73
4, 147519, Note_on_c, 0, 60, 73
4, 147680, Note_on_c, 0, 60, 0
4, 147680, Note_on_c, 0, 58, 0
4, 147680, Note_on_c, 0, 58, 73
4, 147680, Note_on_c, 0, 60, 73
4, 147840, Note_on_c, 0, 60, 0
4, 147840, Note_on_c, 0, 58, 0
4, 147840, Note_on_c, 0, 52, 73
4, 147840, Note_on_c, 0, 61, 73
4, 148320, Note_on_c, 0, 61, 0
4, 148320, Note_on_c, 0, 52, 0
4, 148320, Note_on_c, 0, 52, 73
4, 148320, Note_on_c, 0, 61, 73
4, 148800, Note_on_c, 0, 61, 0
4, 148800, Note_on_c, 0, 52, 0
4, 148800, Note_on_c, 0, 54, 73
4, 148800, Note_on_c, 0, 60, 73
4, 149280, Note_on_c, 0, 60, 0
4, 149280, Note_on_c, 0, 54, 0
4, 149280, Note_on_c, 0, 52, 73
4, 149280, Note_on_c, 0, 58, 73
4, 149760, Note_on_c, 0, 58, 0
4, 149760, Note_on_c, 0, 52, 0
4, 149760, Note_on_c, 0, 51, 99
4, 149760, Note_on_c, 0, 54, 99
4, 149760, Note_on_c, 0, 60, 99
4, 150240, Note_on_c, 0, 60, 0
4, 150240, Note_on_c, 0, 54, 0
4, 150240, Note_on_c, 0, 51, 0
4, 150240, Note_on_c, 0, 49, 99
4, 150240, Note_on_c, 0, 53, 99
4, 150240, Note_on_c, 0, 58, 99
4, 150720, Note_on_c, 0, 58, 0
4, 150720, Note_on_c, 0, 53, 0
4, 150720, Note_on_c, 0, 49, 0
4, 150720, Note_on_c, 0, 61, 73
4, 150720, Note_on_c, 0, 65, 73
4, 150879, Note_on_c, 0, 65, 0
4, 150879, Note_on_c, 0, 61, 0
4, 150879, Note_on_c, 0, 61, 73
4, 150879, Note_on_c, 0, 65, 73
4, 151040, Note_on_c, 0, 65, 0
4, 151040, Note_on_c, 0, 61, 0
4, 151040, Note_on_c, 0, 61, 73
4, 151040, Note_on_c, 0, 65, 73
4, 151200, Note_on_c, 0, 65, 0
4, 151200, Note_on_c, 0, 61, 0
4, 151200, Note_on_c, 0, 61, 73
4, 151200, Note_on_c, 0, 65, 73
4, 151359, Note_on_c, 0, 65, 0
4, 151359, Note_on_c, 0, 61, 0
4, 151359, Note_on_c, 0, 61, 73
4, 151359, Note_on_c, 0, 65, 73
4, 151520, Note_on_c, 0, 65, 0
4, 151520, Note_on_c, 0, 61, 0
4, 151520, Note_on_c, 0, 61, 73
4, 151520, Note_on_c, 0, 65, 73
4, 151680, Note_on_c, 0, 65, 0
4, 151680, Note_on_c, 0, 61, 0
4, 151680, Note_on_c, 0, 60, 99
4, 152400, Note_on_c, 0, 60, 0
4, 152400, Note_on_c, 0, 61, 99
4, 152640, Note_on_c, 0, 61, 0
4, 152640, Note_on_c, 0, 63, 99
4, 153120, Note_on_c, 0, 63, 0
4, 153120, Note_on_c, 0, 61, 99
4, 153360, Note_on_c, 0, 61, 0
4, 153360, Note_on_c, 0, 61, 99
4, 153600, Note_on_c, 0, 61, 0
4, 153600, Note_on_c, 0, 51, 99
4, 153600, Note_on_c, 0, 60, 99
4, 154080, Note_on_c, 0, 60, 0
4, 154080, Note_on_c, 0, 51, 0
4, 154080, Note_on_c, 0, 49, 99
4, 154080, Note_on_c, 0, 58, 99
4, 154560, Note_on_c, 0, 58, 0
4, 154560, Note_on_c, 0, 49, 0
4, 154560, Note_on_c, 0, 61, 73
4, 154560, Note_on_c, 0, 65, 73
4, 154719, Note_on_c, 0, 65, 0
4, 154719, Note_on_c, 0, 61, 0
4, 154719, Note_on_c, 0, 61, 73
4, 154719, Note_on_c, 0, 65, 73
4, 154880, Note_on_c, 0, 65, 0
4, 154880, Note_on_c, 0, 61, 0
4, 154880, Note_on_c, 0, 61, 73
4, 154880, Note_on_c, 0, 65, 73
4, 155040, Note_on_c, 0, 65, 0
4, 155040, Note_on_c, 0, 61, 0
4, 155040, Note_on_c, 0, 61, 73
4, 155040, Note_on_c, 0, 65, 73
4, 155199, Note_on_c, 0, 65, 0
4, 155199, Note_on_c, 0, 61, 0
4, 155199, Note_on_c, 0, 61, 73
4, 155199, Note_on_c, 0, 65, 73
4, 155360, Note_on_c, 0, 65, 0
4, 155360, Note_on_c, 0, 61, 0
4, 155360, Note_on_c, 0, 61, 73
4, 155360, Note_on_c, 0, 65, 73
4, 155520, Note_on_c, 0, 65, 0
4, 155520, Note_on_c, 0, 61, 0
4, 155520, Note_on_c, 0, 60, 99
4, 156240, Note_on_c, 0, 60, 0
4, 156240, Note_on_c, 0, 61, 99
4, 156480, Note_on_c, 0, 61, 0
4, 156480, Note_on_c, 0, 63, 99
4, 156960, Note_on_c, 0, 63, 0
4, 156960, Note_on_c, 0, 61, 99
4, 157200, Note_on_c, 0, 61, 0
4, 157200, Note_on_c, 0, 61, 99
4, 157440, Note_on_c, 0, 61, 0
4, 157440, Note_on_c, 0, 51, 99
4, 157440, Note_on_c, 0, 60, 99
4, 157920, Note_on_c, 0, 60, 0
4, 157920, Note_on_c, 0, 51, 0
4, 157920, Note_on_c, 0, 49, 99
4, 157920, Note_on_c, 0, 58, 99
4, 158400, Note_on_c, 0, 58, 0
4, 158400, Note_on_c, 0, 49, 0
4, 158400, Note_on_c, 0, 61, 73
4, 158400, Note_on_c, 0, 65, 73
4, 158559, Note_on_c, 0, 65, 0
4, 158559, Note_on_c, 0, 61, 0
4, 158559, Note_on_c, 0, 61, 73
4, 158559, Note_on_c, 0, 65, 73
4, 158720, Note_on_c, 0, 65, 0
4, 158720, Note_on_c, 0, 61, 0
4, 158720, Note_on_c, 0, 61, 73
4, 158720, Note_on_c, 0, 65, 73
4, 158880, Note_on_c, 0, 65, 0
4, 158880, Note_on_c, 0, 61, 0
4, 158880, Note_on_c, 0, 61, 73
4, 158880, Note_on_c, 0, 65, 73
4, 159039, Note_on_c, 0, 65, 0
4, 159039, Note_on_c, 0, 61, 0
4, 159039, Note_on_c, 0, 61, 73
4, 159039, Note_on_c, 0, 65, 73
4, 159200, Note_on_c, 0, 65, 0
4, 159200, Note_on_c, 0, 61, 0
4, 159200, Note_on_c, 0, 61, 73
4, 159200, Note_on_c, 0, 65, 73
4, 159360, Note_on_c, 0, 65, 0
4, 159360, Note_on_c, 0, 61, 0
4, 159360, Note_on_c, 0, 41, 86
4, 159360, Note_on_c, 0, 53, 86
4, 159600, Note_on_c, 0, 53, 0
4, 159600, Note_on_c, 0, 41, 0
4, 159600, Note_on_c, 0, 41, 86
4, 159600, Note_on_c, 0, 53, 86
4, 159840, Note_on_c, 0, 53, 0
4, 159840, Note_on_c, 0, 41, 0
4, 159840, Note_on_c, 0, 41, 86
4, 159840, Note_on_c, 0, 53, 86
4, 160080, Note_on_c, 0, 53, 0
4, 160080, Note_on_c, 0, 41, 0
4, 160080, Note_on_c, 0, 41, 86
4, 160080, Note_on_c, 0, 53, 86
4, 160320, Note_on_c, 0, 53, 0
4, 160320, Note_on_c, 0, 41, 0
4, 160320, Note_on_c, 0, 39, 86
4, 160320, Note_on_c, 0, 51, 86
4, 160800, Note_on_c, 0, 51, 0
4, 160800, Note_on_c, 0, 39, 0
4, 160800, Note_on_c, 0, 37, 86
4, 160800, Note_on_c, 0, 49, 86
4, 161040, Note_on_c, 0, 49, 0
4, 161040, Note_on_c, 0, 37, 0
4, 161040, Note_on_c, 0, 37, 86
4, 161040, Note_on_c, 0, 49, 86
4, 161280, Note_on_c, 0, 49, 0
4, 161280, Note_on_c, 0, 37, 0
4, 161280, Note_on_c, 0, 36, 86
4, 161280, Note_on_c, 0, 45, 86
4, 161280, Note_on_c, 0, 48, 86
4, 161760, Note_on_c, 0, 48, 0
4, 161760, Note_on_c, 0, 45, 0
4, 161760, Note_on_c, 0, 36, 0
4, 161760, Note_on_c, 0, 34, 86
4, 161760, Note_on_c, 0, 46, 86
4, 162240, Note_on_c, 0, 46, 0
4, 162240, Note_on_c, 0, 34, 0
4, 162240, Note_on_c, 0, 89, 86
4, 162240, Note_on_c, 0, 94, 86
4, 162336, Note_on_c, 0, 94, 0
4, 162336, Note_on_c, 0, 89, 0
4, 162720, Note_on_c, 0, 89, 86
4, 162720, Note_on_c, 0, 94, 86
4, 162816, Note_on_c, 0, 94, 0
4, 162816, Note_on_c, 0, 89, 0
4, 163200, Note_on_c, 0, 41, 86
4, 163200, Note_on_c, 0, 53, 86
4, 163440, Note_on_c, 0, 53, 0
4, 163440, Note_on_c, 0, 41, 0
4, 163440, Note_on_c, 0, 41, 86
4, 163440, Note_on_c, 0, 53, 86
4, 163680, Note_on_c, 0, 53, 0
4, 163680, Note_on_c, 0, 41, 0
4, 163680, Note_on_c, 0, 41, 86
4, 163680, Note_on_c, 0, 53, 86
4, 163920, Note_on_c, 0, 53, 0
4, 163920, Note_on_c, 0, 41, 0
4, 163920, Note_on_c, 0, 41, 86
4, 163920, Note_on_c, 0, 53, 86
4, 164160, Note_on_c, 0, 53, 0
4, 164160, Note_on_c, 0, 41, 0
4, 164160, Note_on_c, 0, 39, 86
4, 164160, Note_on_c, 0, 51, 86
4, 164640, Note_on_c, 0, 51, 0
4, 164640, Note_on_c, 0, 39, 0
4, 164640, Note_on_c, 0, 37, 86
4, 164640, Note_on_c, 0, 49, 86
4, 164880, Note_on_c, 0, 49, 0
4, 164880, Note_on_c, 0, 37, 0
4, 164880, Note_on_c, 0, 37, 86
4, 164880, Note_on_c, 0, 49, 86
4, 165120, Note_on_c, 0, 49, 0
4, 165120, Note_on_c, 0, 37, 0
4, 165120, Note_on_c, 0, 36, 86
4, 165120, Note_on_c, 0, 45, 86
4, 165120, Note_on_c, 0, 48, 86
4, 165600, Note_on_c, 0, 48, 0
4, 165600, Note_on_c, 0, 45, 0
4, 165600, Note_on_c, 0, 36, 0
4, 165600, Note_on_c, 0, 34, 86
4, 165600, Note_on_c, 0, 46, 86
4, 166080, Note_on_c, 0, 46, 0
4, 166080, Note_on_c, 0, 34, 0
4, 166080, Note_on_c, 0, 97, 86
4, 166080, Note_on_c, 0, 101, 86
4, 166176, Note_on_c, 0, 101, 0
4, 166176, Note_on_c, 0, 97, 0
4, 166560, Note_on_c, 0, 97, 86
4, 166560, Note_on_c, 0, 101, 86
4, 166656, Note_on_c, 0, 101, 0
4, 166656, Note_on_c, 0, 97, 0
4, 167040, Note_on_c, 0, 36, 86
4, 167040, Note_on_c, 0, 48, 86
4, 167760, Note_on_c, 0, 48, 0
4, 167760, Note_on_c, 0, 36, 0
4, 167760, Note_on_c, 0, 37, 86
4, 167760, Note_on_c, 0, 49, 86
4, 168000, Note_on_c, 0, 49, 0
4, 168000, Note_on_c, 0, 37, 0
4, 168000, Note_on_c, 0, 39, 86
4, 168000, Note_on_c, 0, 51, 86
4, 168480, Note_on_c, 0, 51, 0
4, 168480, Note_on_c, 0, 39, 0
4, 168480, Note_on_c, 0, 37, 86
4, 168480, Note_on_c, 0, 49, 86
4, 168720, Note_on_c, 0, 49, 0
4, 168720, Note_on_c, 0, 37, 0
4, 168720, Note_on_c, 0, 37, 86
4, 168720, Note_on_c, 0, 49, 86
4, 168960, Note_on_c, 0, 49, 0
4, 168960, Note_on_c, 0, 37, 0
4, 168960, Note_on_c, 0, 36, 86
4, 168960, Note_on_c, 0, 48, 86
4, 169440, Note_on_c, 0, 48, 0
4, 169440, Note_on_c, 0, 36, 0
4, 169440, Note_on_c, 0, 34, 86
4, 169440, Note_on_c, 0, 46, 86
4, 169920, Note_on_c, 0, 46, 0
4, 169920, Note_on_c, 0, 34, 0
4, 169920, Note_on_c, 0, 82, 86
4, 169920, Note_on_c, 0, 85, 86
4, 170016, Note_on_c, 0, 85, 0
4, 170016, Note_on_c, 0, 82, 0
4, 170400, Note_on_c, 0, 82, 86
4, 170400, Note_on_c, 0, 85, 86
4, 170496, Note_on_c, 0, 85, 0
4, 170496, Note_on_c, 0, 82, 0
4, 170880, Note_on_c, 0, 36, 86
4, 170880, Note_on_c, 0, 48, 86
4, 171600, Note_on_c, 0, 48, 0
4, 171600, Note_on_c, 0, 36, 0
4, 171600, Note_on_c, 0, 37, 86
4, 171600, Note_on_c, 0, 49, 86
4, 171840, Note_on_c, 0, 49, 0
4, 171840, Note_on_c, 0, 37, 0
4, 171840, Note_on_c, 0, 39, 86
4, 171840, Note_on_c, 0, 51, 86
4, 172320, Note_on_c, 0, 51, 0
4, 172320, Note_on_c, 0, 39, 0
4, 172320, Note_on_c, 0, 37, 86
4, 172320, Note_on_c, 0, 49, 86
4, 172560, Note_on_c, 0, 49, 0
4, 172560, Note_on_c, 0, 37, 0
4, 172560, Note_on_c, 0, 37, 86
4, 172560, Note_on_c, 0, 49, 86
4, 172800, Note_on_c, 0, 49, 0
4, 172800, Note_on_c, 0, 37, 0
4, 172800, Note_on_c, 0, 36, 86
4, 172800, Note_on_c, 0, 48, 86
4, 173280, Note_on_c, 0, 48, 0
4, 173280, Note_on_c, 0, 36, 0
4, 173280, Note_on_c, 0, 34, 86
4, 173280, Note_on_c, 0, 46, 86
4, 173760, Note_on_c, 0, 46, 0
4, 173760, Note_on_c, 0, 34, 0
4, 173760, Note_on_c, 0, 85, 86
4, 173760, Note_on_c, 0, 89, 86
4, 173856, Note_on_c, 0, 89, 0
4, 173856, Note_on_c, 0, 85, 0
4, 174240, Note_on_c, 0, 85, 86
4, 174240, Note_on_c, 0, 89, 86
4, 174336, Note_on_c, 0, 89, 0
4, 174336, Note_on_c, 0, 85, 0
4, 175200, Note_on_c, 0, 61, 34
4, 175680, Note_on_c, 0, 61, 0
4, 175680, Note_on_c, 0, 63, 34
4, 176160, Note_on_c, 0, 63, 0
4, 176160, Note_on_c, 0, 65, 34
4, 176640, Note_on_c, 0, 65, 0
4, 176640, Note_on_c, 0, 42, 47
4, 176640, Note_on_c, 0, 49, 47
4, 177360, Note_on_c, 0, 49, 0
4, 177360, Note_on_c, 0, 42, 0
4, 177360, Note_on_c, 0, 61, 34
4, 177360, Note_on_c, 0, 70, 34
4, 177480, Note_on_c, 0, 70, 0
4, 177480, Note_on_c, 0, 61, 0
4, 177600, Note_on_c, 0, 66, 34
4, 177600, Note_on_c, 0, 73, 34
4, 177720, Note_on_c, 0, 73, 0
4, 177720, Note_on_c, 0, 66, 0
4, 177840, Note_on_c, 0, 61, 34
4, 177840, Note_on_c, 0, 70, 34
4, 177960, Note_on_c, 0, 70, 0
4, 177960, Note_on_c, 0, 61, 0
4, 178080, Note_on_c, 0, 66, 34
4, 178080, Note_on_c, 0, 73, 34
4, 178200, Note_on_c, 0, 73, 0
4, 178200, Note_on_c, 0, 66, 0
4, 178320, Note_on_c, 0, 61, 34
4, 178320, Note_on_c, 0, 70, 34
4, 178440, Note_on_c, 0, 70, 0
4, 178440, Note_on_c, 0, 61, 0
4, 179040, Note_on_c, 0, 61, 34
4, 179520, Note_on_c, 0, 61, 0
4, 179520, Note_on_c, 0, 63, 34
4, 180000, Note_on_c, 0, 63, 0
4, 180000, Note_on_c, 0, 65, 34
4, 180480, Note_on_c, 0, 65, 0
4, 180480, Note_on_c, 0, 42, 47
4, 180480, Note_on_c, 0, 49, 47
4, 181200, Note_on_c, 0, 49, 0
4, 181200, Note_on_c, 0, 42, 0
4, 181200, Note_on_c, 0, 61, 34
4, 181200, Note_on_c, 0, 70, 34
4, 181320, Note_on_c, 0, 70, 0
4, 181320, Note_on_c, 0, 61, 0
4, 181440, Note_on_c, 0, 66, 34
4, 181440, Note_on_c, 0, 73, 34
4, 181560, Note_on_c, 0, 73, 0
4, 181560, Note_on_c, 0, 66, 0
4, 181680, Note_on_c, 0, 61, 34
4, 181680, Note_on_c, 0, 70, 34
4, 181800, Note_on_c, 0, 70, 0
4, 181800, Note_on_c, 0, 61, 0
4, 181920, Note_on_c, 0, 66, 34
4, 181920, Note_on_c, 0, 73, 34
4, 182040, Note_on_c, 0, 73, 0
4, 182040, Note_on_c, 0, 66, 0
4, 182160, Note_on_c, 0, 61, 34
4, 182160, Note_on_c, 0, 70, 34
4, 182280, Note_on_c, 0, 70, 0
4, 182280, Note_on_c, 0, 61, 0
4, 182880, Note_on_c, 0, 63, 34
4, 183360, Note_on_c, 0, 63, 0
4, 183360, Note_on_c, 0, 65, 34
4, 183840, Note_on_c, 0, 65, 0
4, 183840, Note_on_c, 0, 66, 34
4, 184320, Note_on_c, 0, 66, 0
4, 184320, Note_on_c, 0, 49, 47
4, 184320, Note_on_c, 0, 56, 47
4, 184320, Note_on_c, 0, 65, 47
4, 185040, Note_on_c, 0, 65, 0
4, 185040, Note_on_c, 0, 56, 0
4, 185040, Note_on_c, 0, 49, 0
4, 185040, Note_on_c, 0, 61, 34
4, 185040, Note_on_c, 0, 71, 34
4, 185160, Note_on_c, 0, 71, 0
4, 185160, Note_on_c, 0, 61, 0
4, 185280, Note_on_c, 0, 65, 34
4, 185280, Note_on_c, 0, 71, 34
4, 185400, Note_on_c, 0, 71, 0
4, 185400, Note_on_c, 0, 65, 0
4, 185520, Note_on_c, 0, 61, 34
4, 185520, Note_on_c, 0, 71, 34
4, 185640, Note_on_c, 0, 71, 0
4, 185640, Note_on_c, 0, 61, 0
4, 185760, Note_on_c, 0, 65, 34
4, 185760, Note_on_c, 0, 71, 34
4, 185880, Note_on_c, 0, 71, 0
4, 185880, Note_on_c, 0, 65, 0
4, 186000, Note_on_c, 0, 61, 34
4, 186000, Note_on_c, 0, 71, 34
4, 186120, Note_on_c, 0, 71, 0
4, 186120, Note_on_c, 0, 61, 0
4, 186720, Note_on_c, 0, 63, 34
4, 187200, Note_on_c, 0, 63, 0
4, 187200, Note_on_c, 0, 65, 34
4, 187680, Note_on_c, 0, 65, 0
4, 187680, Note_on_c, 0, 66, 34
4, 188160, Note_on_c, 0, 66, 0
4, 188160, Note_on_c, 0, 49, 47
4, 188160, Note_on_c, 0, 56, 47
4, 188160, Note_on_c, 0, 65, 47
4, 188880, Note_on_c, 0, 65, 0
4, 188880, Note_on_c, 0, 56, 0
4, 188880, Note_on_c, 0, 49, 0
4, 188880, Note_on_c, 0, 61, 34
4, 188880, Note_on_c, 0, 71, 34
4, 189000, Note_on_c, 0, 71, 0
4, 189000, Note_on_c, 0, 61, 0
4, 189120, Note_on_c, 0, 65, 34
4, 189120, Note_on_c, 0, 71, 34
4, 189240, Note_on_c, 0, 71, 0
4, 189240, Note_on_c, 0, 65, 0
4, 189360, Note_on_c, 0, 61, 34
4, 189360, Note_on_c, 0, 71, 34
4, 189480, Note_on_c, 0, 71, 0
4, 189480, Note_on_c, 0, 61, 0
4, 189600, Note_on_c, 0, 65, 34
4, 189600, Note_on_c, 0, 71, 34
4, 189720, Note_on_c, 0, 71, 0
4, 189720, Note_on_c, 0, 65, 0
4, 189840, Note_on_c, 0, 61, 34
4, 189840, Note_on_c, 0, 71, 34
4, 189960, Note_on_c, 0, 71, 0
4, 189960, Note_on_c, 0, 61, 0
4, 190080, Note_on_c, 0, 47, 73
4, 190080, Note_on_c, 0, 59, 73
4, 190560, Note_on_c, 0, 59, 0
4, 190560, Note_on_c, 0, 47, 0
4, 190560, Note_on_c, 0, 46, 73
4, 190560, Note_on_c, 0, 58, 73
4, 191040, Note_on_c, 0, 58, 0
4, 191040, Note_on_c, 0, 46, 0
4, 191040, Note_on_c, 0, 45, 73
4, 191040, Note_on_c, 0, 57, 73
4, 191520, Note_on_c, 0, 57, 0
4, 191520, Note_on_c, 0, 45, 0
4, 191520, Note_on_c, 0, 44, 73
4, 191520, Note_on_c, 0, 49, 73
4, 191520, Note_on_c, 0, 56, 73
4, 192000, Note_on_c, 0, 56, 0
4, 192000, Note_on_c, 0, 49, 0
4, 192000, Note_on_c, 0, 44, 0
4, 192000, Note_on_c, 0, 43, 73
4, 192000, Note_on_c, 0, 55, 73
4, 192240, Note_on_c, 0, 55, 0
4, 192240, Note_on_c, 0, 43, 0
4, 192240, Note_on_c, 0, 42, 73
4, 192240, Note_on_c, 0, 54, 73
4, 192480, Note_on_c, 0, 54, 0
4, 192480, Note_on_c, 0, 42, 0
4, 192480, Note_on_c, 0, 41, 73
4, 192480, Note_on_c, 0, 53, 73
4, 192720, Note_on_c, 0, 53, 0
4, 192720, Note_on_c, 0, 41, 0
4, 192720, Note_on_c, 0, 40, 73
4, 192720, Note_on_c, 0, 52, 73
4, 192960, Note_on_c, 0, 52, 0
4, 192960, Note_on_c, 0, 40, 0
4, 192960, Note_on_c, 0, 39, 73
4, 192960, Note_on_c, 0, 51, 73
4, 193200, Note_on_c, 0, 51, 0
4, 193200, Note_on_c, 0, 39, 0
4, 193920, Note_on_c, 0, 49, 73
4, 193920, Note_on_c, 0, 51, 73
4, 193920, Note_on_c, 0, 61, 73
4, 194160, Note_on_c, 0, 61, 0
4, 194160, Note_on_c, 0, 51, 0
4, 194160, Note_on_c, 0, 49, 0
4, 194160, Note_on_c, 0, 47, 73
4, 194160, Note_on_c, 0, 53, 73
4, 194160, Note_on_c, 0, 59, 73
4, 194400, Note_on_c, 0, 59, 0
4, 194400, Note_on_c, 0, 53, 0
4, 194400, Note_on_c, 0, 47, 0
4, 194400, Note_on_c, 0, 46, 73
4, 194400, Note_on_c, 0, 55, 73
4, 194400, Note_on_c, 0, 58, 73
4, 194640, Note_on_c, 0, 58, 0
4, 194640, Note_on_c, 0, 55, 0
4, 194640, Note_on_c, 0, 46, 0
4, 194640, Note_on_c, 0, 44, 73
4, 194640, Note_on_c, 0, 56, 73
4, 194880, Note_on_c, 0, 56, 0
4, 194880, Note_on_c, 0, 44, 0
4, 194880, Note_on_c, 0, 43, 73
4, 194880, Note_on_c, 0, 55, 73
4, 195120, Note_on_c, 0, 55, 0
4, 195120, Note_on_c, 0, 43, 0
4, 195960, Note_on_c, 0, 43, 86
4, 196080, Note_on_c, 0, 43, 0
4, 196080, Note_on_c, 0, 41, 86
4, 196080, Note_on_c, 0, 45, 86
4, 196200, Note_on_c, 0, 45, 0
4, 196200, Note_on_c, 0, 41, 0
4, 196200, Note_on_c, 0, 47, 86
4, 196320, Note_on_c, 0, 47, 0
4, 196320, Note_on_c, 0, 45, 86
4, 196320, Note_on_c, 0, 48, 86
4, 196440, Note_on_c, 0, 48, 0
4, 196440, Note_on_c, 0, 45, 0
4, 196440, Note_on_c, 0, 50, 86
4, 196560, Note_on_c, 0, 50, 0
4, 196560, Note_on_c, 0, 48, 86
4, 196560, Note_on_c, 0, 51, 86
4, 196680, Note_on_c, 0, 51, 0
4, 196680, Note_on_c, 0, 48, 0
4, 196680, Note_on_c, 0, 53, 86
4, 196800, Note_on_c, 0, 53, 0
4, 196800, Note_on_c, 0, 51, 86
4, 196800, Note_on_c, 0, 55, 86
4, 196920, Note_on_c, 0, 55, 0
4, 196920, Note_on_c, 0, 51, 0
4, 196920, Note_on_c, 0, 57, 86
4, 197040, Note_on_c, 0, 57, 0
4, 197040, Note_on_c, 0, 55, 86
4, 197040, Note_on_c, 0, 59, 86
4, 197160, Note_on_c, 0, 59, 0
4, 197160, Note_on_c, 0, 55, 0
4, 197160, Note_on_c, 0, 60, 86
4, 197280, Note_on_c, 0, 60, 0
4, 197280, Note_on_c, 0, 59, 86
4, 197280, Note_on_c, 0, 62, 86
4, 197400, Note_on_c, 0, 62, 0
4, 197400, Note_on_c, 0, 59, 0
4, 197400, Note_on_c, 0, 63, 86
4, 197520, Note_on_c, 0, 63, 0
4, 197520, Note_on_c, 0, 65, 86
4, 197640, Note_on_c, 0, 65, 0
4, 197640, Note_on_c, 0, 62, 86
4, 197760, Note_on_c, 0, 62, 0
4, 197760, Note_on_c, 0, 67, 86
4, 198000, Note_on_c, 0, 67, 0
4, 198000, Note_on_c, 0, 67, 86
4, 198240, Note_on_c, 0, 67, 0
4, 198240, Note_on_c, 0, 65, 86
4, 198480, Note_on_c, 0, 65, 0
4, 198480, Note_on_c, 0, 63, 86
4, 198600, Note_on_c, 0, 63, 0
4, 198600, Note_on_c, 0, 63, 86
4, 198720, Note_on_c, 0, 63, 0
4, 198720, Note_on_c, 0, 62, 86
4, 198960, Note_on_c, 0, 62, 0
4, 198960, Note_on_c, 0, 60, 86
4, 199200, Note_on_c, 0, 60, 0
4, 199200, Note_on_c, 0, 53, 86
4, 199200, Note_on_c, 0, 59, 86
4, 199440, Note_on_c, 0, 59, 0
4, 199440, Note_on_c, 0, 53, 0
4, 199440, Note_on_c, 0, 51, 86
4, 199440, Note_on_c, 0, 60, 86
4, 199680, Note_on_c, 0, 60, 0
4, 199680, Note_on_c, 0, 51, 0
4, 199680, Note_on_c, 0, 51, 86
4, 199680, Note_on_c, 0, 60, 86
4, 200160, Note_on_c, 0, 60, 0
4, 200160, Note_on_c, 0, 51, 0
4, 200160, Note_on_c, 0, 50, 86
4, 200160, Note_on_c, 0, 58, 86
4, 200160, Note_on_c, 0, 62, 86
4, 200640, Note_on_c, 0, 62, 0
4, 200640, Note_on_c, 0, 58, 0
4, 200640, Note_on_c, 0, 50, 0
4, 200640, Note_on_c, 0, 49, 86
4, 200640, Note_on_c, 0, 61, 86
4, 201120, Note_on_c, 0, 61, 0
4, 201120, Note_on_c, 0, 49, 0
4, 201120, Note_on_c, 0, 48, 86
4, 201120, Note_on_c, 0, 53, 86
4, 201120, Note_on_c, 0, 60, 86
4, 201600, Note_on_c, 0, 60, 0
4, 201600, Note_on_c, 0, 53, 0
4, 201600, Note_on_c, 0, 48, 0
4, 201600, Note_on_c, 0, 47, 86
4, 201600, Note_on_c, 0, 59, 86
4, 201840, Note_on_c, 0, 59, 0
4, 201840, Note_on_c, 0, 47, 0
4, 201840, Note_on_c, 0, 46, 86
4, 201840, Note_on_c, 0, 58, 86
4, 202080, Note_on_c, 0, 58, 0
4, 202080, Note_on_c, 0, 46, 0
4, 202080, Note_on_c, 0, 45, 86
4, 202080, Note_on_c, 0, 57, 86
4, 202320, Note_on_c, 0, 57, 0
4, 202320, Note_on_c, 0, 45, 0
4, 202320, Note_on_c, 0, 44, 86
4, 202320, Note_on_c, 0, 56, 86
4, 202560, Note_on_c, 0, 56, 0
4, 202560, Note_on_c, 0, 44, 0
4, 202560, Note_on_c, 0, 43, 86
4, 202560, Note_on_c, 0, 55, 86
4, 202800, Note_on_c, 0, 55, 0
4, 202800, Note_on_c, 0, 43, 0
4, 203520, Note_on_c, 0, 53, 86
4, 203520, Note_on_c, 0, 55, 86
4, 203520, Note_on_c, 0, 59, 86
4, 203760, Note_on_c, 0, 59, 0
4, 203760, Note_on_c, 0, 55, 0
4, 203760, Note_on_c, 0, 53, 0
4, 203760, Note_on_c, 0, 51, 86
4, 203760, Note_on_c, 0, 57, 86
4, 203760, Note_on_c, 0, 60, 86
4, 204000, Note_on_c, 0, 60, 0
4, 204000, Note_on_c, 0, 57, 0
4, 204000, Note_on_c, 0, 51, 0
4, 204000, Note_on_c, 0, 50, 86
4, 204000, Note_on_c, 0, 59, 86
4, 204000, Note_on_c, 0, 62, 86
4, 204240, Note_on_c, 0, 62, 0
4, 204240, Note_on_c, 0, 59, 0
4, 204240, Note_on_c, 0, 50, 0
4, 204240, Note_on_c, 0, 48, 86
4, 204240, Note_on_c, 0, 60, 86
4, 204480, Note_on_c, 0, 60, 0
4, 204480, Note_on_c, 0, 48, 0
4, 204480, Note_on_c, 0, 47, 86
4, 204480, Note_on_c, 0, 59, 86
4, 204720, Note_on_c, 0, 59, 0
4, 204720, Note_on_c, 0, 47, 0
4, 205560, Note_on_c, 0, 47, 86
4, 205680, Note_on_c, 0, 47, 0
4, 205680, Note_on_c, 0, 45, 86
4, 205680, Note_on_c, 0, 49, 86
4, 205800, Note_on_c, 0, 49, 0
4, 205800, Note_on_c, 0, 45, 0
4, 205800, Note_on_c, 0, 51, 86
4, 205920, Note_on_c, 0, 51, 0
4, 205920, Note_on_c, 0, 49, 86
4, 205920, Note_on_c, 0, 52, 86
4, 206040, Note_on_c, 0, 52, 0
4, 206040, Note_on_c, 0, 49, 0
4, 206040, Note_on_c, 0, 54, 86
4, 206160, Note_on_c, 0, 54, 0
4, 206160, Note_on_c, 0, 52, 86
4, 206160, Note_on_c, 0, 55, 86
4, 206280, Note_on_c, 0, 55, 0
4, 206280, Note_on_c, 0, 52, 0
4, 206280, Note_on_c, 0, 57, 86
4, 206400, Note_on_c, 0, 57, 0
4, 206400, Note_on_c, 0, 55, 86
4, 206400, Note_on_c, 0, 59, 86
4, 206520, Note_on_c, 0, 59, 0
4, 206520, Note_on_c, 0, 55, 0
4, 206520, Note_on_c, 0, 61, 86
4, 206640, Note_on_c, 0, 61, 0
4, 206640, Note_on_c, 0, 59, 86
4, 206640, Note_on_c, 0, 63, 86
4, 206760, Note_on_c, 0, 63, 0
4, 206760, Note_on_c, 0, 59, 0
4, 206760, Note_on_c, 0, 64, 86
4, 206880, Note_on_c, 0, 64, 0
4, 206880, Note_on_c, 0, 63, 86
4, 206880, Note_on_c, 0, 66, 86
4, 207000, Note_on_c, 0, 66, 0
4, 207000, Note_on_c, 0, 63, 0
4, 207000, Note_on_c, 0, 67, 86
4, 207120, Note_on_c, 0, 67, 0
4, 207120, Note_on_c, 0, 69, 86
4, 207240, Note_on_c, 0, 69, 0
4, 207240, Note_on_c, 0, 66, 86
4, 207360, Note_on_c, 0, 66, 0
4, 207360, Note_on_c, 0, 71, 86
4, 207600, Note_on_c, 0, 71, 0
4, 207600, Note_on_c, 0, 71, 86
4, 207840, Note_on_c, 0, 71, 0
4, 207840, Note_on_c, 0, 69, 86
4, 208080, Note_on_c, 0, 69, 0
4, 208080, Note_on_c, 0, 67, 86
4, 208200, Note_on_c, 0, 67, 0
4, 208200, Note_on_c, 0, 67, 86
4, 208320, Note_on_c, 0, 67, 0
4, 208320, Note_on_c, 0, 66, 86
4, 208560, Note_on_c, 0, 66, 0
4, 208560, Note_on_c, 0, 64, 86
4, 208800, Note_on_c, 0, 64, 0
4, 208800, Note_on_c, 0, 57, 86
4, 208800, Note_on_c, 0, 63, 86
4, 209040, Note_on_c, 0, 63, 0
4, 209040, Note_on_c, 0, 57, 0
4, 209040, Note_on_c, 0, 55, 86
4, 209040, Note_on_c, 0, 64, 86
4, 209280, Note_on_c, 0, 64, 0
4, 209280, Note_on_c, 0, 55, 0
4, 209520, Note_on_c, 0, 42, 86
4, 209520, Note_on_c, 0, 54, 86
4, 209760, Note_on_c, 0, 54, 0
4, 209760, Note_on_c, 0, 42, 0
4, 209760, Note_on_c, 0, 43, 86
4, 209760, Note_on_c, 0, 55, 86
4, 210000, Note_on_c, 0, 55, 0
4, 210000, Note_on_c, 0, 43, 0
4, 210000, Note_on_c, 0, 44, 86
4, 210000, Note_on_c, 0, 56, 86
4, 210240, Note_on_c, 0, 56, 0
4, 210240, Note_on_c, 0, 44, 0
4, 210240, Note_on_c, 0, 45, 86
4, 210240, Note_on_c, 0, 52, 86
4, 210240, Note_on_c, 0, 57, 86
4, 210480, Note_on_c, 0, 57, 0
4, 210480, Note_on_c, 0, 52, 0
4, 210480, Note_on_c, 0, 45, 0
4, 211200, Note_on_c, 0, 28, 86
4, 211320, Note_on_c, 0, 28, 0
4, 211320, Note_on_c, 0, 40, 86
4, 211440, Note_on_c, 0, 40, 0
4, 211440, Note_on_c, 0, 28, 86
4, 211560, Note_on_c, 0, 28, 0
4, 211560, Note_on_c, 0, 40, 86
4, 211680, Note_on_c, 0, 40, 0
4, 211680, Note_on_c, 0, 38, 86
4, 211800, Note_on_c, 0, 38, 0
4, 211800, Note_on_c, 0, 36, 86
4, 211920, Note_on_c, 0, 36, 0
4, 211920, Note_on_c, 0, 35, 86
4, 212040, Note_on_c, 0, 35, 0
4, 212040, Note_on_c, 0, 33, 86
4, 212160, Note_on_c, 0, 33, 0
4, 212160, Note_on_c, 0, 40, 86
4, 212280, Note_on_c, 0, 40, 0
4, 212280, Note_on_c, 0, 52, 86
4, 212400, Note_on_c, 0, 52, 0
4, 212400, Note_on_c, 0, 40, 86
4, 212520, Note_on_c, 0, 40, 0
4, 212520, Note_on_c, 0, 52, 86
4, 212640, Note_on_c, 0, 52, 0
4, 212640, Note_on_c, 0, 50, 86
4, 212760, Note_on_c, 0, 50, 0
4, 212760, Note_on_c, 0, 48, 86
4, 212880, Note_on_c, 0, 48, 0
4, 212880, Note_on_c, 0, 47, 86
4, 213000, Note_on_c, 0, 47, 0
4, 213000, Note_on_c, 0, 45, 86
4, 213120, Note_on_c, 0, 45, 0
4, 213360, Note_on_c, 0, 43, 86
4, 213360, Note_on_c, 0, 55, 86
4, 213600, Note_on_c, 0, 55, 0
4, 213600, Note_on_c, 0, 43, 0
4, 213600, Note_on_c, 0, 45, 86
4, 213600, Note_on_c, 0, 57, 86
4, 213840, Note_on_c, 0, 57, 0
4, 213840, Note_on_c, 0, 45, 0
4, 213840, Note_on_c, 0, 47, 86
4, 213840, Note_on_c, 0, 59, 86
4, 214080, Note_on_c, 0, 59, 0
4, 214080, Note_on_c, 0, 47, 0
4, 214080, Note_on_c, 0, 48, 86
4, 214080, Note_on_c, 0, 55, 86
4, 214080, Note_on_c, 0, 60, 86
4, 214320, Note_on_c, 0, 60, 0
4, 214320, Note_on_c, 0, 55, 0
4, 214320, Note_on_c, 0, 48, 0
4, 215040, Note_on_c, 0, 31, 86
4, 215160, Note_on_c, 0, 31, 0
4, 215160, Note_on_c, 0, 43, 86
4, 215280, Note_on_c, 0, 43, 0
4, 215280, Note_on_c, 0, 31, 86
4, 215400, Note_on_c, 0, 31, 0
4, 215400, Note_on_c, 0, 43, 86
4, 215520, Note_on_c, 0, 43, 0
4, 215520, Note_on_c, 0, 41, 86
4, 215640, Note_on_c, 0, 41, 0
4, 215640, Note_on_c, 0, 40, 86
4, 215760, Note_on_c, 0, 40, 0
4, 215760, Note_on_c, 0, 38, 86
4, 215880, Note_on_c, 0, 38, 0
4, 215880, Note_on_c, 0, 36, 86
4, 216000, Note_on_c, 0, 36, 0
4, 216000, Note_on_c, 0, 43, 86
4, 216120, Note_on_c, 0, 43, 0
4, 216120, Note_on_c, 0, 55, 86
4, 216240, Note_on_c, 0, 55, 0
4, 216240, Note_on_c, 0, 43, 86
4, 216360, Note_on_c, 0, 43, 0
4, 216360, Note_on_c, 0, 55, 86
4, 216480, Note_on_c, 0, 55, 0
4, 216480, Note_on_c, 0, 53, 86
4, 216600, Note_on_c, 0, 53, 0
4, 216600, Note_on_c, 0, 52, 86
4, 216720, Note_on_c, 0, 52, 0
4, 216720, Note_on_c, 0, 50, 86
4, 216840, Note_on_c, 0, 50, 0
4, 216840, Note_on_c, 0, 48, 86
4, 216960, Note_on_c, 0, 48, 0
4, 216960, Note_on_c, 0, 34, 86
4, 217080, Note_on_c, 0, 34, 0
4, 217080, Note_on_c, 0, 46, 86
4, 217200, Note_on_c, 0, 46, 0
4, 217200, Note_on_c, 0, 34, 86
4, 217320, Note_on_c, 0, 34, 0
4, 217320, Note_on_c, 0, 46, 86
4, 217440, Note_on_c, 0, 46, 0
4, 217440, Note_on_c, 0, 45, 86
4, 217560, Note_on_c, 0, 45, 0
4, 217560, Note_on_c, 0, 43, 86
4, 217680, Note_on_c, 0, 43, 0
4, 217680, Note_on_c, 0, 41, 86
4, 217800, Note_on_c, 0, 41, 0
4, 217800, Note_on_c, 0, 40, 86
4, 217920, Note_on_c, 0, 40, 0
4, 217920, Note_on_c, 0, 46, 86
4, 218040, Note_on_c, 0, 46, 0
4, 218040, Note_on_c, 0, 58, 86
4, 218160, Note_on_c, 0, 58, 0
4, 218160, Note_on_c, 0, 46, 86
4, 218280, Note_on_c, 0, 46, 0
4, 218280, Note_on_c, 0, 58, 86
4, 218400, Note_on_c, 0, 58, 0
4, 218400, Note_on_c, 0, 57, 86
4, 218520, Note_on_c, 0, 57, 0
4, 218520, Note_on_c, 0, 55, 86
4, 218640, Note_on_c, 0, 55, 0
4, 218640, Note_on_c, 0, 53, 86
4, 218760, Note_on_c, 0, 53, 0
4, 218760, Note_on_c, 0, 52, 86
4, 218880, Note_on_c, 0, 52, 0
4, 218880, Note_on_c, 0, 52, 86
4, 219000, Note_on_c, 0, 52, 0
4, 219000, Note_on_c, 0, 50, 86
4, 219120, Note_on_c, 0, 50, 0
4, 219120, Note_on_c, 0, 48, 86
4, 219240, Note_on_c, 0, 48, 0
4, 219240, Note_on_c, 0, 46, 86
4, 219360, Note_on_c, 0, 46, 0
4, 219360, Note_on_c, 0, 45, 86
4, 219480, Note_on_c, 0, 45, 0
4, 219480, Note_on_c, 0, 43, 86
4, 219600, Note_on_c, 0, 43, 0
4, 219600, Note_on_c, 0, 41, 86
4, 219720, Note_on_c, 0, 41, 0
4, 219720, Note_on_c, 0, 40, 86
4, 219840, Note_on_c, 0, 40, 0
4, 219840, Note_on_c, 0, 55, 86
4, 219960, Note_on_c, 0, 55, 0
4, 219960, Note_on_c, 0, 53, 86
4, 220080, Note_on_c, 0, 53, 0
4, 220080, Note_on_c, 0, 52, 86
4, 220200, Note_on_c, 0, 52, 0
4, 220200, Note_on_c, 0, 50, 86
4, 220320, Note_on_c, 0, 50, 0
4, 220320, Note_on_c, 0, 48, 86
4, 220440, Note_on_c, 0, 48, 0
4, 220440, Note_on_c, 0, 46, 86
4, 220560, Note_on_c, 0, 46, 0
4, 220560, Note_on_c, 0, 45, 86
4, 220680, Note_on_c, 0, 45, 0
4, 220680, Note_on_c, 0, 43, 86
4, 220800, Note_on_c, 0, 43, 0
4, 220800, Note_on_c, 0, 58, 86
4, 220920, Note_on_c, 0, 58, 0
4, 220920, Note_on_c, 0, 57, 86
4, 221040, Note_on_c, 0, 57, 0
4, 221040, Note_on_c, 0, 55, 86
4, 221160, Note_on_c, 0, 55, 0
4, 221160, Note_on_c, 0, 53, 86
4, 221280, Note_on_c, 0, 53, 0
4, 221280, Note_on_c, 0, 52, 86
4, 221400, Note_on_c, 0, 52, 0
4, 221400, Note_on_c, 0, 50, 86
4, 221520, Note_on_c, 0, 50, 0
4, 221520, Note_on_c, 0, 48, 86
4, 221640, Note_on_c, 0, 48, 0
4, 221640, Note_on_c, 0, 46, 86
4, 221760, Note_on_c, 0, 46, 0
4, 221760, Note_on_c, 0, 64, 86
4, 221880, Note_on_c, 0, 64, 0
4, 221880, Note_on_c, 0, 62, 86
4, 222000, Note_on_c, 0, 62, 0
4, 222000, Note_on_c, 0, 60, 86
4, 222120, Note_on_c, 0, 60, 0
4, 222120, Note_on_c, 0, 58, 86
4, 222240, Note_on_c, 0, 58, 0
4, 222240, Note_on_c, 0, 57, 86
4, 222360, Note_on_c, 0, 57, 0
4, 222360, Note_on_c, 0, 55, 86
4, 222480, Note_on_c, 0, 55, 0
4, 222480, Note_on_c, 0, 53, 86
4, 222600, Note_on_c, 0, 53, 0
4, 222600, Note_on_c, 0, 52, 86
4, 222720, Note_on_c, 0, 52, 0
4, 222720, Note_on_c, 0, 67, 86
4, 222840, Note_on_c, 0, 67, 0
4, 222840, Note_on_c, 0, 65, 86
4, 222960, Note_on_c, 0, 65, 0
4, 222960, Note_on_c, 0, 64, 86
4, 223080, Note_on_c, 0, 64, 0
4, 223080, Note_on_c, 0, 62, 86
4, 223200, Note_on_c, 0, 62, 0
4, 223200, Note_on_c, 0, 60, 86
4, 223320, Note_on_c, 0, 60, 0
4, 223320, Note_on_c, 0, 58, 86
4, 223440, Note_on_c, 0, 58, 0
4, 223440, Note_on_c, 0, 57, 86
4, 223560, Note_on_c, 0, 57, 0
4, 223560, Note_on_c, 0, 55, 86
4, 223680, Note_on_c, 0, 55, 0
4, 223680, Note_on_c, 0, 70, 86
4, 223800, Note_on_c, 0, 70, 0
4, 223800, Note_on_c, 0, 69, 86
4, 223920, Note_on_c, 0, 69, 0
4, 223920, Note_on_c, 0, 67, 86
4, 224040, Note_on_c, 0, 67, 0
4, 224040, Note_on_c, 0, 65, 86
4, 224160, Note_on_c, 0, 65, 0
4, 224160, Note_on_c, 0, 64, 86
4, 224280, Note_on_c, 0, 64, 0
4, 224280, Note_on_c, 0, 62, 86
4, 224400, Note_on_c, 0, 62, 0
4, 224400, Note_on_c, 0, 60, 86
4, 224520, Note_on_c, 0, 60, 0
4, 224520, Note_on_c, 0, 58, 86
4, 224640, Note_on_c, 0, 58, 0
4, 224640, Note_on_c, 0, 57, 86
4, 224760, Note_on_c, 0, 57, 0
4, 224760, Note_on_c, 0, 55, 86
4, 224880, Note_on_c, 0, 55, 0
4, 224880, Note_on_c, 0, 53, 86
4, 225000, Note_on_c, 0, 53, 0
4, 225000, Note_on_c, 0, 50, 86
4, 225120, Note_on_c, 0, 50, 0
4, 225120, Note_on_c, 0, 52, 86
4, 225240, Note_on_c, 0, 52, 0
4, 225240, Note_on_c, 0, 53, 86
4, 225360, Note_on_c, 0, 53, 0
4, 225360, Note_on_c, 0, 55, 86
4, 225480, Note_on_c, 0, 55, 0
4, 225480, Note_on_c, 0, 57, 86
4, 225600, Note_on_c, 0, 57, 0
4, 225600, Note_on_c, 0, 58, 86
4, 225720, Note_on_c, 0, 58, 0
4, 225720, Note_on_c, 0, 57, 86
4, 225840, Note_on_c, 0, 57, 0
4, 225840, Note_on_c, 0, 55, 86
4, 225960, Note_on_c, 0, 55, 0
4, 225960, Note_on_c, 0, 57, 86
4, 226080, Note_on_c, 0, 57, 0
4, 226080, Note_on_c, 0, 58, 86
4, 226200, Note_on_c, 0, 58, 0
4, 226200, Note_on_c, 0, 60, 86
4, 226320, Note_on_c, 0, 60, 0
4, 226320, Note_on_c, 0, 62, 86
4, 226440, Note_on_c, 0, 62, 0
4, 226440, Note_on_c, 0, 64, 86
4, 226560, Note_on_c, 0, 64, 0
4, 226560, Note_on_c, 0, 65, 86
4, 227520, Note_on_c, 0, 65, 0
4, 227520, Note_on_c, 0, 52, 86
4, 227520, Note_on_c, 0, 64, 86
4, 228240, Note_on_c, 0, 64, 0
4, 228240, Note_on_c, 0, 52, 0
4, 228240, Note_on_c, 0, 50, 86
4, 228240, Note_on_c, 0, 62, 86
4, 228480, Note_on_c, 0, 62, 0
4, 228480, Note_on_c, 0, 50, 0
4, 228480, Note_on_c, 0, 48, 86
4, 228480, Note_on_c, 0, 53, 86
4, 228480, Note_on_c, 0, 57, 86
4, 228480, Note_on_c, 0, 60, 86
4, 228600, Note_on_c, 0, 60, 0
4, 228600, Note_on_c, 0, 48, 0
4, 228600, Note_on_c, 0, 53, 0
4, 228600, Note_on_c, 0, 57, 0
4, 228600, Note_on_c, 0, 57, 86
4, 228720, Note_on_c, 0, 57, 0
4, 228720, Note_on_c, 0, 60, 86
4, 228840, Note_on_c, 0, 60, 0
4, 228840, Note_on_c, 0, 62, 86
4, 228960, Note_on_c, 0, 62, 0
4, 228960, Note_on_c, 0, 64, 86
4, 229080, Note_on_c, 0, 64, 0
4, 229080, Note_on_c, 0, 62, 86
4, 229200, Note_on_c, 0, 62, 0
4, 229200, Note_on_c, 0, 60, 86
4, 229320, Note_on_c, 0, 60, 0
4, 229320, Note_on_c, 0, 58, 86
4, 229440, Note_on_c, 0, 58, 0
4, 229440, Note_on_c, 0, 57, 86
4, 229560, Note_on_c, 0, 57, 0
4, 229560, Note_on_c, 0, 53, 86
4, 229680, Note_on_c, 0, 53, 0
4, 229680, Note_on_c, 0, 57, 86
4, 229800, Note_on_c, 0, 57, 0
4, 229800, Note_on_c, 0, 58, 86
4, 229920, Note_on_c, 0, 58, 0
4, 229920, Note_on_c, 0, 60, 86
4, 230040, Note_on_c, 0, 60, 0
4, 230040, Note_on_c, 0, 58, 86
4, 230160, Note_on_c, 0, 58, 0
4, 230160, Note_on_c, 0, 57, 86
4, 230280, Note_on_c, 0, 57, 0
4, 230280, Note_on_c, 0, 55, 86
4, 230400, Note_on_c, 0, 55, 0
4, 230400, Note_on_c, 0, 57, 86
4, 230520, Note_on_c, 0, 57, 0
4, 230520, Note_on_c, 0, 55, 86
4, 230640, Note_on_c, 0, 55, 0
4, 230640, Note_on_c, 0, 53, 86
4, 230760, Note_on_c, 0, 53, 0
4, 230760, Note_on_c, 0, 52, 86
4, 230880, Note_on_c, 0, 52, 0
4, 230880, Note_on_c, 0, 53, 86
4, 231000, Note_on_c, 0, 53, 0
4, 231000, Note_on_c, 0, 52, 86
4, 231120, Note_on_c, 0, 52, 0
4, 231120, Note_on_c, 0, 50, 86
4, 231240, Note_on_c, 0, 50, 0
4, 231240, Note_on_c, 0, 48, 86
4, 231360, Note_on_c, 0, 48, 0
4, 231360, Note_on_c, 0, 50, 86
4, 231480, Note_on_c, 0, 50, 0
4, 231480, Note_on_c, 0, 48, 86
4, 231600, Note_on_c, 0, 48, 0
4, 231600, Note_on_c, 0, 46, 86
4, 231720, Note_on_c, 0, 46, 0
4, 231720, Note_on_c, 0, 45, 86
4, 231840, Note_on_c, 0, 45, 0
4, 231840, Note_on_c, 0, 43, 86
4, 232080, Note_on_c, 0, 43, 0
4, 232080, Note_on_c, 0, 48, 86
4, 232320, Note_on_c, 0, 48, 0
4, 232320, Note_on_c, 0, 53, 86
4, 232560, Note_on_c, 0, 53, 0
4, 232560, Note_on_c, 0, 48, 86
4, 232800, Note_on_c, 0, 48, 0
4, 232800, Note_on_c, 0, 41, 86
4, 232920, Note_on_c, 0, 41, 0
4, 232920, Control_c, 0, 64, 127
4, 232920, Note_on_c, 0, 46, 86
4, 233040, Note_on_c, 0, 46, 0
4, 233040, Note_on_c, 0, 48, 86
4, 233160, Note_on_c, 0, 48, 0
4, 233160, Note_on_c, 0, 50, 86
4, 233280, Note_on_c, 0, 50, 0
4, 233280, Note_on_c, 0, 52, 86
4, 233400, Note_on_c, 0, 52, 0
4, 233400, Note_on_c, 0, 53, 86
4, 233520, Note_on_c, 0, 53, 0
4, 233520, Note_on_c, 0, 55, 86
4, 233640, Note_on_c, 0, 55, 0
4, 233640, Note_on_c, 0, 57, 86
4, 233760, Note_on_c, 0, 57, 0
4, 233760, Note_on_c, 0, 58, 86
4, 233880, Note_on_c, 0, 58, 0
4, 233880, Note_on_c, 0, 60, 86
4, 234000, Note_on_c, 0, 60, 0
4, 234000, Note_on_c, 0, 62, 86
4, 234120, Note_on_c, 0, 62, 0
4, 234120, Control_c, 0, 64, 0
4, 234120, Note_on_c, 0, 64, 86
4, 234240, Note_on_c, 0, 64, 0
4, 234240, Note_on_c, 0, 65, 86
4, 235200, Note_on_c, 0, 65, 0
4, 235200, Note_on_c, 0, 64, 86
4, 235920, Note_on_c, 0, 64, 0
4, 235920, Note_on_c, 0, 62, 86
4, 236160, Note_on_c, 0, 62, 0
4, 236160, Note_on_c, 0, 50, 86
4, 236160, Note_on_c, 0, 53, 86
4, 236160, Note_on_c, 0, 57, 86
4, 236160, Note_on_c, 0, 60, 86
4, 236280, Note_on_c, 0, 60, 0
4, 236280, Note_on_c, 0, 50, 0
4, 236280, Note_on_c, 0, 53, 0
4, 236280, Note_on_c, 0, 57, 0
4, 236280, Note_on_c, 0, 57, 86
4, 236400, Note_on_c, 0, 57, 0
4, 236400, Note_on_c, 0, 60, 86
4, 236520, Note_on_c, 0, 60, 0
4, 236520, Note_on_c, 0, 62, 86
4, 236640, Note_on_c, 0, 62, 0
4, 236640, Note_on_c, 0, 64, 86
4, 236760, Note_on_c, 0, 64, 0
4, 236760, Note_on_c, 0, 62, 86
4, 236880, Note_on_c, 0, 62, 0
4, 236880, Note_on_c, 0, 60, 86
4, 237000, Note_on_c, 0, 60, 0
4, 237000, Note_on_c, 0, 59, 86
4, 237120, Note_on_c, 0, 59, 0
4, 237120, Note_on_c, 0, 57, 86
4, 237240, Note_on_c, 0, 57, 0
4, 237240, Note_on_c, 0, 56, 86
4, 237360, Note_on_c, 0, 56, 0
4, 237360, Note_on_c, 0, 57, 86
4, 237480, Note_on_c, 0, 57, 0
4, 237480, Note_on_c, 0, 59, 86
4, 237600, Note_on_c, 0, 59, 0
4, 237600, Note_on_c, 0, 60, 86
4, 237720, Note_on_c, 0, 60, 0
4, 237720, Note_on_c, 0, 59, 86
4, 237840, Note_on_c, 0, 59, 0
4, 237840, Note_on_c, 0, 57, 86
4, 237960, Note_on_c, 0, 57, 0
4, 237960, Note_on_c, 0, 56, 86
4, 238080, Note_on_c, 0, 56, 0
4, 238080, Note_on_c, 0, 57, 86
4, 238200, Note_on_c, 0, 57, 0
4, 238200, Note_on_c, 0, 55, 86
4, 238320, Note_on_c, 0, 55, 0
4, 238320, Note_on_c, 0, 53, 86
4, 238440, Note_on_c, 0, 53, 0
4, 238440, Note_on_c, 0, 52, 86
4, 238560, Note_on_c, 0, 52, 0
4, 238560, Note_on_c, 0, 53, 86
4, 238680, Note_on_c, 0, 53, 0
4, 238680, Note_on_c, 0, 52, 86
4, 238800, Note_on_c, 0, 52, 0
4, 238800, Note_on_c, 0, 50, 86
4, 238920, Note_on_c, 0, 50, 0
4, 238920, Note_on_c, 0, 49, 86
4, 239040, Note_on_c, 0, 49, 0
4, 239040, Note_on_c, 0, 50, 86
4, 239160, Note_on_c, 0, 50, 0
4, 239160, Note_on_c, 0, 48, 86
4, 239280, Note_on_c, 0, 48, 0
4, 239280, Note_on_c, 0, 47, 86
4, 239400, Note_on_c, 0, 47, 0
4, 239400, Note_on_c, 0, 45, 86
4, 239520, Note_on_c, 0, 45, 0
4, 239520, Note_on_c, 0, 43, 86
4, 239760, Note_on_c, 0, 43, 0
4, 239760, Note_on_c, 0, 55, 86
4, 240000, Note_on_c, 0, 55, 0
4, 240000, Note_on_c, 0, 48, 86
4, 240240, Note_on_c, 0, 48, 0
4, 240240, Note_on_c, 0, 43, 86
4, 240480, Note_on_c, 0, 43, 0
4, 240480, Control_c, 0, 64, 127
4, 240480, Note_on_c, 0, 36, 86
4, 240600, Note_on_c, 0, 36, 0
4, 240600, Control_c, 0, 64, 127
4, 240600, Note_on_c, 0, 52, 86
4, 240720, Note_on_c, 0, 52, 0
4, 240720, Note_on_c, 0, 53, 86
4, 240840, Note_on_c, 0, 53, 0
4, 240840, Note_on_c, 0, 55, 86
4, 240960, Note_on_c, 0, 55, 0
4, 240960, Note_on_c, 0, 57, 86
4, 241080, Note_on_c, 0, 57, 0
4, 241080, Note_on_c, 0, 58, 86
4, 241200, Note_on_c, 0, 58, 0
4, 241200, Note_on_c, 0, 60, 86
4, 241320, Note_on_c, 0, 60, 0
4, 241320, Note_on_c, 0, 62, 86
4, 241440, Note_on_c, 0, 62, 0
4, 241440, Note_on_c, 0, 64, 86
4, 241560, Note_on_c, 0, 64, 0
4, 241560, Note_on_c, 0, 65, 86
4, 241680, Note_on_c, 0, 65, 0
4, 241680, Note_on_c, 0, 67, 86
4, 241800, Note_on_c, 0, 67, 0
4, 241800, Control_c, 0, 64, 0
4, 241800, Note_on_c, 0, 69, 86
4, 241920, Note_on_c, 0, 69, 0
4, 241920, Note_on_c, 0, 40, 86
4, 241920, Note_on_c, 0, 46, 86
4, 241920, Note_on_c, 0, 52, 86
4, 242400, Note_on_c, 0, 52, 0
4, 242400, Note_on_c, 0, 46, 0
4, 242400, Note_on_c, 0, 40, 0
4, 242400, Note_on_c, 0, 41, 86
4, 242400, Note_on_c, 0, 46, 86
4, 242400, Note_on_c, 0, 53, 86
4, 242760, Note_on_c, 0, 53, 0
4, 242760, Note_on_c, 0, 46, 0
4, 242760, Note_on_c, 0, 41, 0
4, 242760, Note_on_c, 0, 43, 86
4, 242760, Note_on_c, 0, 48, 86
4, 242760, Note_on_c, 0, 55, 86
4, 242880, Note_on_c, 0, 55, 0
4, 242880, Note_on_c, 0, 48, 0
4, 242880, Note_on_c, 0, 43, 0
4, 242880, Note_on_c, 0, 43, 86
4, 242880, Note_on_c, 0, 48, 86
4, 242880, Note_on_c, 0, 55, 86
4, 243120, Note_on_c, 0, 55, 0
4, 243120, Note_on_c, 0, 48, 0
4, 243120, Note_on_c, 0, 43, 0
4, 243120, Note_on_c, 0, 43, 86
4, 243120, Note_on_c, 0, 48, 86
4, 243120, Note_on_c, 0, 55, 86
4, 243360, Note_on_c, 0, 55, 0
4, 243360, Note_on_c, 0, 48, 0
4, 243360, Note_on_c, 0, 43, 0
4, 243360, Note_on_c, 0, 44, 86
4, 243360, Note_on_c, 0, 50, 86
4, 243360, Note_on_c, 0, 56, 86
4, 243840, Note_on_c, 0, 56, 0
4, 243840, Note_on_c, 0, 50, 0
4, 243840, Note_on_c, 0, 44, 0
4, 243840, Note_on_c, 0, 45, 86
4, 243840, Note_on_c, 0, 53, 86
4, 243840, Note_on_c, 0, 57, 86
4, 244320, Note_on_c, 0, 57, 0
4, 244320, Note_on_c, 0, 53, 0
4, 244320, Note_on_c, 0, 45, 0
4, 244320, Note_on_c, 0, 50, 86
4, 244320, Note_on_c, 0, 53, 86
4, 244320, Note_on_c, 0, 57, 86
4, 244680, Note_on_c, 0, 57, 0
4, 244680, Note_on_c, 0, 53, 0
4, 244680, Note_on_c, 0, 50, 0
4, 244680, Note_on_c, 0, 50, 86
4, 244680, Note_on_c, 0, 53, 86
4, 244680, Note_on_c, 0, 57, 86
4, 244800, Note_on_c, 0, 57, 0
4, 244800, Note_on_c, 0, 53, 0
4, 244800, Note_on_c, 0, 50, 0
4, 244800, Note_on_c, 0, 50, 86
4, 244800, Note_on_c, 0, 53, 86
4, 244800, Note_on_c, 0, 57, 86
4, 245040, Note_on_c, 0, 57, 0
4, 245040, Note_on_c, 0, 53, 0
4, 245040, Note_on_c, 0, 50, 0
4, 245040, Note_on_c, 0, 49, 86
4, 245040, Note_on_c, 0, 53, 86
4, 245040, Note_on_c, 0, 55, 86
4, 245040, Note_on_c, 0, 58, 86
4, 245280, Note_on_c, 0, 58, 0
4, 245280, Note_on_c, 0, 49, 0
4, 245280, Note_on_c, 0, 53, 0
4, 245280, Note_on_c, 0, 55, 0
4, 245280, Note_on_c, 0, 48, 86
4, 245280, Note_on_c, 0, 53, 86
4, 245280, Note_on_c, 0, 57, 86
4, 245280, Note_on_c, 0, 60, 86
4, 245760, Note_on_c, 0, 60, 0
4, 245760, Note_on_c, 0, 48, 0
4, 245760, Note_on_c, 0, 53, 0
4, 245760, Note_on_c, 0, 57, 0
4, 245760, Note_on_c, 0, 47, 86
4, 245760, Note_on_c, 0, 53, 86
4, 245760, Note_on_c, 0, 56, 86
4, 245760, Note_on_c, 0, 59, 86
4, 246240, Note_on_c, 0, 59, 0
4, 246240, Note_on_c, 0, 47, 0
4, 246240, Note_on_c, 0, 53, 0
4, 246240, Note_on_c, 0, 56, 0
4, 246240, Note_on_c, 0, 46, 86
4, 246240, Note_on_c, 0, 48, 86
4, 246240, Note_on_c, 0, 58, 86
4, 246600, Note_on_c, 0, 58, 0
4, 246600, Note_on_c, 0, 48, 0
4, 246600, Note_on_c, 0, 46, 0
4, 246600, Note_on_c, 0, 45, 86
4, 246600, Note_on_c, 0, 48, 86
4, 246600, Note_on_c, 0, 57, 86
4, 246720, Note_on_c, 0, 57, 0
4, 246720, Note_on_c, 0, 48, 0
4, 246720, Note_on_c, 0, 45, 0
4, 246720, Note_on_c, 0, 45, 86
4, 246720, Note_on_c, 0, 48, 86
4, 246720, Note_on_c, 0, 57, 86
4, 246960, Note_on_c, 0, 57, 0
4, 246960, Note_on_c, 0, 48, 0
4, 246960, Note_on_c, 0, 45, 0
4, 246960, Note_on_c, 0, 44, 86
4, 246960, Note_on_c, 0, 56, 86
4, 247200, Note_on_c, 0, 56, 0
4, 247200, Note_on_c, 0, 44, 0
4, 247200, Note_on_c, 0, 43, 86
4, 247200, Note_on_c, 0, 48, 86
4, 247200, Note_on_c, 0, 55, 86
4, 247440, Note_on_c, 0, 55, 0
4, 247440, Note_on_c, 0, 48, 0
4, 247440, Note_on_c, 0, 43, 0
4, 247440, Note_on_c, 0, 42, 86
4, 247440, Note_on_c, 0, 48, 86
4, 247440, Note_on_c, 0, 54, 86
4, 247680, Note_on_c, 0, 54, 0
4, 247680, Note_on_c, 0, 48, 0
4, 247680, Note_on_c, 0, 42, 0
4, 247680, Note_on_c, 0, 41, 86
4, 247680, Note_on_c, 0, 48, 86
4, 247680, Note_on_c, 0, 53, 86
4, 247920, Note_on_c, 0, 53, 0
4, 247920, Note_on_c, 0, 48, 0
4, 247920, Note_on_c, 0, 41, 0
4, 247920, Note_on_c, 0, 43, 86
4, 247920, Note_on_c, 0, 53, 86
4, 247920, Note_on_c, 0, 55, 86
4, 248160, Note_on_c, 0, 55, 0
4, 248160, Note_on_c, 0, 53, 0
4, 248160, Note_on_c, 0, 43, 0
4, 248160, Note_on_c, 0, 45, 86
4, 248160, Note_on_c, 0, 53, 86
4, 248160, Note_on_c, 0, 57, 86
4, 248400, Note_on_c, 0, 57, 0
4, 248400, Note_on_c, 0, 53, 0
4, 248400, Note_on_c, 0, 45, 0
4, 248400, Note_on_c, 0, 46, 86
4, 248400, Note_on_c, 0, 53, 86
4, 248400, Note_on_c, 0, 58, 86
4, 248640, Note_on_c, 0, 58, 0
4, 248640, Note_on_c, 0, 53, 0
4, 248640, Note_on_c, 0, 46, 0
4, 248640, Note_on_c, 0, 47, 86
4, 248640, Note_on_c, 0, 55, 86
4, 248640, Note_on_c, 0, 59, 86
4, 248880, Note_on_c, 0, 59, 0
4, 248880, Note_on_c, 0, 55, 0
4, 248880, Note_on_c, 0, 47, 0
4, 248880, Note_on_c, 0, 48, 86
4, 248880, Note_on_c, 0, 55, 86
4, 248880, Note_on_c, 0, 60, 86
4, 249120, Note_on_c, 0, 60, 0
4, 249120, Note_on_c, 0, 55, 0
4, 249120, Note_on_c, 0, 48, 0
4, 249600, Note_on_c, 0, 40, 86
4, 249600, Note_on_c, 0, 46, 86
4, 249600, Note_on_c, 0, 52, 86
4, 250080, Note_on_c, 0, 52, 0
4, 250080, Note_on_c, 0, 46, 0
4, 250080, Note_on_c, 0, 40, 0
4, 250080, Note_on_c, 0, 41, 86
4, 250080, Note_on_c, 0, 46, 86
4, 250080, Note_on_c, 0, 53, 86
4, 250440, Note_on_c, 0, 53, 0
4, 250440, Note_on_c, 0, 46, 0
4, 250440, Note_on_c, 0, 41, 0
4, 250440, Note_on_c, 0, 43, 86
4, 250440, Note_on_c, 0, 48, 86
4, 250440, Note_on_c, 0, 55, 86
4, 250560, Note_on_c, 0, 55, 0
4, 250560, Note_on_c, 0, 48, 0
4, 250560, Note_on_c, 0, 43, 0
4, 250560, Note_on_c, 0, 43, 86
4, 250560, Note_on_c, 0, 48, 86
4, 250560, Note_on_c, 0, 55, 86
4, 250800, Note_on_c, 0, 55, 0
4, 250800, Note_on_c, 0, 48, 0
4, 250800, Note_on_c, 0, 43, 0
4, 250800, Note_on_c, 0, 43, 86
4, 250800, Note_on_c, 0, 48, 86
4, 250800, Note_on_c, 0, 55, 86
4, 251040, Note_on_c, 0, 55, 0
4, 251040, Note_on_c, 0, 48, 0
4, 251040, Note_on_c, 0, 43, 0
4, 251040, Note_on_c, 0, 44, 86
4, 251040, Note_on_c, 0, 50, 86
4, 251040, Note_on_c, 0, 56, 86
4, 251520, Note_on_c, 0, 56, 0
4, 251520, Note_on_c, 0, 50, 0
4, 251520, Note_on_c, 0, 44, 0
4, 251520, Note_on_c, 0, 45, 86
4, 251520, Note_on_c, 0, 53, 86
4, 251520, Note_on_c, 0, 57, 86
4, 252000, Note_on_c, 0, 57, 0
4, 252000, Note_on_c, 0, 53, 0
4, 252000, Note_on_c, 0, 45, 0
4, 252000, Note_on_c, 0, 50, 86
4, 252000, Note_on_c, 0, 53, 86
4, 252000, Note_on_c, 0, 57, 86
4, 252360, Note_on_c, 0, 57, 0
4, 252360, Note_on_c, 0, 53, 0
4, 252360, Note_on_c, 0, 50, 0
4, 252360, Note_on_c, 0, 50, 86
4, 252360, Note_on_c, 0, 53, 86
4, 252360, Note_on_c, 0, 57, 86
4, 252480, Note_on_c, 0, 57, 0
4, 252480, Note_on_c, 0, 53, 0
4, 252480, Note_on_c, 0, 50, 0
4, 252480, Note_on_c, 0, 50, 86
4, 252480, Note_on_c, 0, 53, 86
4, 252480, Note_on_c, 0, 57, 86
4, 252720, Note_on_c, 0, 57, 0
4, 252720, Note_on_c, 0, 53, 0
4, 252720, Note_on_c, 0, 50, 0
4, 252720, Note_on_c, 0, 49, 86
4, 252720, Note_on_c, 0, 53, 86
4, 252720, Note_on_c, 0, 55, 86
4, 252720, Note_on_c, 0, 58, 86
4, 252960, Note_on_c, 0, 58, 0
4, 252960, Note_on_c, 0, 49, 0
4, 252960, Note_on_c, 0, 53, 0
4, 252960, Note_on_c, 0, 55, 0
4, 252960, Note_on_c, 0, 48, 86
4, 252960, Note_on_c, 0, 53, 86
4, 252960, Note_on_c, 0, 57, 86
4, 252960, Note_on_c, 0, 60, 86
4, 253440, Note_on_c, 0, 60, 0
4, 253440, Note_on_c, 0, 48, 0
4, 253440, Note_on_c, 0, 53, 0
4, 253440, Note_on_c, 0, 57, 0
4, 253440, Note_on_c, 0, 47, 86
4, 253440, Note_on_c, 0, 53, 86
4, 253440, Note_on_c, 0, 56, 86
4, 253440, Note_on_c, 0, 59, 86
4, 253920, Note_on_c, 0, 59, 0
4, 253920, Note_on_c, 0, 47, 0
4, 253920, Note_on_c, 0, 53, 0
4, 253920, Note_on_c, 0, 56, 0
4, 253920, Note_on_c, 0, 52, 86
4, 253920, Note_on_c, 0, 55, 86
4, 253920, Note_on_c, 0, 58, 86
4, 254280, Note_on_c, 0, 58, 0
4, 254280, Note_on_c, 0, 55, 0
4, 254280, Note_on_c, 0, 52, 0
4, 254280, Note_on_c, 0, 52, 86
4, 254280, Note_on_c, 0, 55, 86
4, 254280, Note_on_c, 0, 58, 86
4, 254400, Note_on_c, 0, 58, 0
4, 254400, Note_on_c, 0, 55, 0
4, 254400, Note_on_c, 0, 52, 0
4, 254400, Note_on_c, 0, 52, 86
4, 254400, Note_on_c, 0, 55, 86
4, 254400, Note_on_c, 0, 58, 86
4, 254640, Note_on_c, 0, 58, 0
4, 254640, Note_on_c, 0, 55, 0
4, 254640, Note_on_c, 0, 52, 0
4, 254640, Note_on_c, 0, 52, 86
4, 254640, Note_on_c, 0, 55, 86
4, 254640, Note_on_c, 0, 57, 86
4, 254640, Note_on_c, 0, 60, 86
4, 254880, Note_on_c, 0, 60, 0
4, 254880, Note_on_c, 0, 52, 0
4, 254880, Note_on_c, 0, 55, 0
4, 254880, Note_on_c, 0, 57, 0
4, 254880, Note_on_c, 0, 50, 86
4, 254880, Note_on_c, 0, 55, 86
4, 254880, Note_on_c, 0, 58, 86
4, 254880, Note_on_c, 0, 62, 86
4, 255360, Note_on_c, 0, 62, 0
4, 255360, Note_on_c, 0, 50, 0
4, 255360, Note_on_c, 0, 55, 0
4, 255360, Note_on_c, 0, 58, 0
4, 255360, Note_on_c, 0, 49, 86
4, 255360, Note_on_c, 0, 55, 86
4, 255360, Note_on_c, 0, 58, 86
4, 255840, Note_on_c, 0, 58, 0
4, 255840, Note_on_c, 0, 55, 0
4, 255840, Note_on_c, 0, 49, 0
4, 255840, Note_on_c, 0, 44, 86
4, 255840, Note_on_c, 0, 53, 86
4, 255840, Note_on_c, 0, 59, 86
4, 256200, Note_on_c, 0, 59, 0
4, 256200, Note_on_c, 0, 53, 0
4, 256200, Note_on_c, 0, 44, 0
4, 256200, Note_on_c, 0, 49, 86
4, 256200, Note_on_c, 0, 55, 86
4, 256200, Note_on_c, 0, 58, 86
4, 256320, Note_on_c, 0, 58, 0
4, 256320, Note_on_c, 0, 55, 0
4, 256320, Note_on_c, 0, 49, 0
4, 256320, Note_on_c, 0, 49, 86
4, 256320, Note_on_c, 0, 55, 86
4, 256320, Note_on_c, 0, 58, 86
4, 256800, Note_on_c, 0, 58, 0
4, 256800, Note_on_c, 0, 55, 0
4, 256800, Note_on_c, 0, 49, 0
4, 256800, Note_on_c, 0, 44, 86
4, 256800, Note_on_c, 0, 53, 86
4, 256800, Note_on_c, 0, 59, 86
4, 257160, Note_on_c, 0, 59, 0
4, 257160, Note_on_c, 0, 53, 0
4, 257160, Note_on_c, 0, 44, 0
4, 257160, Note_on_c, 0, 49, 86
4, 257160, Note_on_c, 0, 55, 86
4, 257160, Note_on_c, 0, 58, 86
4, 257280, Note_on_c, 0, 58, 0
4, 257280, Note_on_c, 0, 55, 0
4, 257280, Note_on_c, 0, 49, 0
4, 257280, Note_on_c, 0, 49, 86
4, 257280, Note_on_c, 0, 55, 86
4, 257280, Note_on_c, 0, 58, 86
4, 257520, Note_on_c, 0, 58, 0
4, 257520, Note_on_c, 0, 55, 0
4, 257520, Note_on_c, 0, 49, 0
4, 257520, Note_on_c, 0, 44, 86
4, 257520, Note_on_c, 0, 53, 86
4, 257520, Note_on_c, 0, 59, 86
4, 257760, Note_on_c, 0, 59, 0
4, 257760, Note_on_c, 0, 53, 0
4, 257760, Note_on_c, 0, 44, 0
4, 257760, Note_on_c, 0, 49, 86
4, 257760, Note_on_c, 0, 55, 86
4, 257760, Note_on_c, 0, 58, 86
4, 258000, Note_on_c, 0, 58, 0
4, 258000, Note_on_c, 0, 55, 0
4, 258000, Note_on_c, 0, 49, 0
4, 258000, Note_on_c, 0, 44, 86
4, 258000, Note_on_c, 0, 53, 86
4, 258000, Note_on_c, 0, 59, 86
4, 258240, Note_on_c, 0, 59, 0
4, 258240, Note_on_c, 0, 53, 0
4, 258240, Note_on_c, 0, 44, 0
4, 258240, Note_on_c, 0, 49, 86
4, 258240, Note_on_c, 0, 55, 86
4, 258240, Note_on_c, 0, 58, 86
4, 258480, Note_on_c, 0, 58, 0
4, 258480, Note_on_c, 0, 55, 0
4, 258480, Note_on_c, 0, 49, 0
4, 258480, Note_on_c, 0, 44, 86
4, 258480, Note_on_c, 0, 53, 86
4, 258480, Note_on_c, 0, 59, 86
4, 258720, Note_on_c, 0, 59, 0
4, 258720, Note_on_c, 0, 53, 0
4, 258720, Note_on_c, 0, 44, 0
4, 258720, Note_on_c, 0, 49, 86
4, 258720, Note_on_c, 0, 55, 86
4, 258720, Note_on_c, 0, 58, 86
4, 258960, Note_on_c, 0, 58, 0
4, 258960, Note_on_c, 0, 55, 0
4, 258960, Note_on_c, 0, 49, 0
4, 258960, Note_on_c, 0, 44, 86
4, 258960, Note_on_c, 0, 53, 86
4, 258960, Note_on_c, 0, 59, 86
4, 259200, Note_on_c, 0, 59, 0
4, 259200, Note_on_c, 0, 53, 0
4, 259200, Note_on_c, 0, 44, 0
4, 259200, Note_on_c, 0, 45, 86
4, 259200, Note_on_c, 0, 52, 86
4, 259200, Note_on_c, 0, 57, 86
4, 259440, Note_on_c, 0, 57, 0
4, 259440, Note_on_c, 0, 52, 0
4, 259440, Note_on_c, 0, 45, 0
4, 259680, Note_on_c, 0, 57, 86
4, 259680, Note_on_c, 0, 69, 86
4, 260400, Note_on_c, 0, 69, 0
4, 260400, Note_on_c, 0, 57, 0
4, 260400, Note_on_c, 0, 56, 86
4, 260400, Note_on_c, 0, 68, 86
4, 260640, Note_on_c, 0, 68, 0
4, 260640, Note_on_c, 0, 56, 0
4, 260640, Note_on_c, 0, 54, 86
4, 260640, Note_on_c, 0, 66, 86
4, 260880, Note_on_c, 0, 66, 0
4, 260880, Note_on_c, 0, 54, 0
4, 260880, Note_on_c, 0, 52, 86
4, 260880, Note_on_c, 0, 64, 86
4, 261120, Note_on_c, 0, 64, 0
4, 261120, Note_on_c, 0, 52, 0
4, 261120, Note_on_c, 0, 51, 86
4, 261120, Note_on_c, 0, 63, 86
4, 261360, Note_on_c, 0, 63, 0
4, 261360, Note_on_c, 0, 51, 0
4, 261600, Note_on_c, 0, 51, 86
4, 261600, Note_on_c, 0, 63, 86
4, 262320, Note_on_c, 0, 63, 0
4, 262320, Note_on_c, 0, 51, 0
4, 262320, Note_on_c, 0, 49, 86
4, 262320, Note_on_c, 0, 61, 86
4, 262560, Note_on_c, 0, 61, 0
4, 262560, Note_on_c, 0, 49, 0
4, 262560, Note_on_c, 0, 47, 86
4, 262560, Note_on_c, 0, 59, 86
4, 262800, Note_on_c, 0, 59, 0
4, 262800, Note_on_c, 0, 47, 0
4, 262800, Note_on_c, 0, 46, 86
4, 262800, Note_on_c, 0, 58, 86
4, 263040, Note_on_c, 0, 58, 0
4, 263040, Note_on_c, 0, 46, 0
4, 263040, Note_on_c, 0, 44, 86
4, 263040, Note_on_c, 0, 56, 86
4, 263280, Note_on_c, 0, 56, 0
4, 263280, Note_on_c, 0, 44, 0
4, 263520, Note_on_c, 0, 44, 86
4, 263520, Note_on_c, 0, 56, 86
4, 264240, Note_on_c, 0, 56, 0
4, 264240, Note_on_c, 0, 44, 0
4, 264240, Note_on_c, 0, 42, 86
4, 264240, Note_on_c, 0, 54, 86
4, 264480, Note_on_c, 0, 54, 0
4, 264480, Note_on_c, 0, 42, 0
4, 264480, Note_on_c, 0, 40, 86
4, 264480, Note_on_c, 0, 52, 86
4, 264720, Note_on_c, 0, 52, 0
4, 264720, Note_on_c, 0, 40, 0
4, 264720, Note_on_c, 0, 38, 86
4, 264720, Note_on_c, 0, 50, 86
4, 264960, Note_on_c, 0, 50, 0
4, 264960, Note_on_c, 0, 38, 0
4, 264960, Note_on_c, 0, 37, 86
4, 264960, Note_on_c, 0, 49, 86
4, 265440, Note_on_c, 0, 49, 0
4, 265440, Note_on_c, 0, 37, 0
4, 265440, Note_on_c, 0, 49, 86
4, 265440, Note_on_c, 0, 61, 86
4, 265800, Note_on_c, 0, 61, 0
4, 265800, Note_on_c, 0, 49, 0
4, 265800, Note_on_c, 0, 37, 86
4, 265800, Note_on_c, 0, 49, 86
4, 265920, Note_on_c, 0, 49, 0
4, 265920, Note_on_c, 0, 37, 0
4, 265920, Note_on_c, 0, 37, 86
4, 265920, Note_on_c, 0, 49, 86
4, 266400, Note_on_c, 0, 49, 0
4, 266400, Note_on_c, 0, 37, 0
4, 266400, Note_on_c, 0, 49, 86
4, 266400, Note_on_c, 0, 61, 86
4, 266760, Note_on_c, 0, 61, 0
4, 266760, Note_on_c, 0, 49, 0
4, 266760, Note_on_c, 0, 37, 86
4, 266760, Note_on_c, 0, 49, 86
4, 266880, Note_on_c, 0, 49, 0
4, 266880, Note_on_c, 0, 37, 0
4, 266880, Note_on_c, 0, 37, 86
4, 266880, Note_on_c, 0, 49, 86
4, 267360, Note_on_c, 0, 49, 0
4, 267360, Note_on_c, 0, 37, 0
4, 267360, Note_on_c, 0, 65, 86
4, 267519, Note_on_c, 0, 65, 0
4, 267519, Note_on_c, 0, 65, 86
4, 267680, Note_on_c, 0, 65, 0
4, 267680, Note_on_c, 0, 65, 86
4, 267840, Note_on_c, 0, 65, 0
4, 267840, Note_on_c, 0, 65, 86
4, 267999, Note_on_c, 0, 65, 0
4, 267999, Note_on_c, 0, 67, 86
4, 268160, Note_on_c, 0, 67, 0
4, 268160, Note_on_c, 0, 68, 86
4, 268320, Note_on_c, 0, 68, 0
4, 268320, Note_on_c, 0, 68, 86
4, 268800, Note_on_c, 0, 68, 0
4, 268800, Note_on_c, 0, 37, 86
4, 268800, Note_on_c, 0, 49, 86
4, 269280, Note_on_c, 0, 49, 0
4, 269280, Note_on_c, 0, 37, 0
4, 269280, Note_on_c, 0, 49, 86
4, 269280, Note_on_c, 0, 61, 86
4, 269640, Note_on_c, 0, 61, 0
4, 269640, Note_on_c, 0, 49, 0
4, 269640, Note_on_c, 0, 37, 86
4, 269640, Note_on_c, 0, 49, 86
4, 269760, Note_on_c, 0, 49, 0
4, 269760, Note_on_c, 0, 37, 0
4, 269760, Note_on_c, 0, 37, 86
4, 269760, Note_on_c, 0, 49, 86
4, 270240, Note_on_c, 0, 49, 0
4, 270240, Note_on_c, 0, 37, 0
4, 270240, Note_on_c, 0, 49, 86
4, 270240, Note_on_c, 0, 61, 86
4, 270600, Note_on_c, 0, 61, 0
4, 270600, Note_on_c, 0, 49, 0
4, 270600, Note_on_c, 0, 37, 86
4, 270600, Note_on_c, 0, 49, 86
4, 270720, Note_on_c, 0, 49, 0
4, 270720, Note_on_c, 0, 37, 0
4, 270720, Note_on_c, 0, 37, 86
4, 270720, Note_on_c, 0, 49, 86
4, 271200, Note_on_c, 0, 49, 0
4, 271200, Note_on_c, 0, 37, 0
4, 271200, Note_on_c, 0, 65, 86
4, 271359, Note_on_c, 0, 65, 0
4, 271359, Note_on_c, 0, 65, 86
4, 271520, Note_on_c, 0, 65, 0
4, 271520, Note_on_c, 0, 65, 86
4, 271680, Note_on_c, 0, 65, 0
4, 271680, Note_on_c, 0, 65, 86
4, 271839, Note_on_c, 0, 65, 0
4, 271839, Note_on_c, 0, 67, 86
4, 272000, Note_on_c, 0, 67, 0
4, 272000, Note_on_c, 0, 68, 86
4, 272160, Note_on_c, 0, 68, 0
4, 272160, Note_on_c, 0, 68, 86
4, 272319, Note_on_c, 0, 68, 0
4, 272319, Note_on_c, 0, 70, 86
4, 272480, Note_on_c, 0, 70, 0
4, 272480, Note_on_c, 0, 71, 86
4, 272640, Note_on_c, 0, 71, 0
4, 272640, Note_on_c, 0, 65, 86
4, 272799, Note_on_c, 0, 65, 0
4, 272799, Note_on_c, 0, 67, 86
4, 272960, Note_on_c, 0, 67, 0
4, 272960, Note_on_c, 0, 68, 86
4, 273120, Note_on_c, 0, 68, 0
4, 273120, Note_on_c, 0, 68, 86
4, 273279, Note_on_c, 0, 68, 0
4, 273279, Note_on_c, 0, 70, 86
4, 273440, Note_on_c, 0, 70, 0
4, 273440, Note_on_c, 0, 71, 86
4, 273600, Note_on_c, 0, 71, 0
4, 273600, Note_on_c, 0, 65, 86
4, 273759, Note_on_c, 0, 65, 0
4, 273759, Note_on_c, 0, 67, 86
4, 273920, Note_on_c, 0, 67, 0
4, 273920, Note_on_c, 0, 68, 86
4, 274080, Note_on_c, 0, 68, 0
4, 274080, Note_on_c, 0, 68, 86
4, 274239, Note_on_c, 0, 68, 0
4, 274239, Note_on_c, 0, 70, 86
4, 274400, Note_on_c, 0, 70, 0
4, 274400, Note_on_c, 0, 71, 86
4, 274560, Note_on_c, 0, 71, 0
4, 274560, Note_on_c, 0, 68, 86
4, 274719, Note_on_c, 0, 68, 0
4, 274719, Note_on_c, 0, 70, 86
4, 274880, Note_on_c, 0, 70, 0
4, 274880, Note_on_c, 0, 71, 86
4, 275040, Note_on_c, 0, 71, 0
4, 275040, Note_on_c, 0, 68, 86
4, 275199, Note_on_c, 0, 68, 0
4, 275199, Note_on_c, 0, 70, 86
4, 275360, Note_on_c, 0, 70, 0
4, 275360, Note_on_c, 0, 71, 86
4, 275520, Note_on_c, 0, 71, 0
4, 275520, Note_on_c, 0, 68, 86
4, 275679, Note_on_c, 0, 68, 0
4, 275679, Note_on_c, 0, 70, 86
4, 275840, Note_on_c, 0, 70, 0
4, 275840, Note_on_c, 0, 71, 86
4, 276000, Note_on_c, 0, 71, 0
4, 276240, Note_on_c, 0, 45, 86
4, 276240, Note_on_c, 0, 48, 86
4, 276240, Note_on_c, 0, 53, 86
4, 276480, Note_on_c, 0, 53, 0
4, 276480, Note_on_c, 0, 48, 0
4, 276480, Note_on_c, 0, 45, 0
4, 276480, Note_on_c, 0, 43, 86
4, 276480, Note_on_c, 0, 46, 86
4, 276480, Note_on_c, 0, 52, 86
4, 276720, Note_on_c, 0, 52, 0
4, 276720, Note_on_c, 0, 46, 0
4, 276720, Note_on_c, 0, 43, 0
4, 276720, Note_on_c, 0, 46, 86
4, 276720, Note_on_c, 0, 50, 86
4, 276720, Note_on_c, 0, 55, 86
4, 276960, Note_on_c, 0, 55, 0
4, 276960, Note_on_c, 0, 50, 0
4, 276960, Note_on_c, 0, 46, 0
4, 276960, Note_on_c, 0, 45, 86
4, 276960, Note_on_c, 0, 48, 86
4, 276960, Note_on_c, 0, 53, 86
4, 277200, Note_on_c, 0, 53, 0
4, 277200, Note_on_c, 0, 48, 0
4, 277200, Note_on_c, 0, 45, 0
4, 277200, Note_on_c, 0, 48, 86
4, 277200, Note_on_c, 0, 52, 86
4, 277200, Note_on_c, 0, 57, 86
4, 277440, Note_on_c, 0, 57, 0
4, 277440, Note_on_c, 0, 52, 0
4, 277440, Note_on_c, 0, 48, 0
4, 277440, Note_on_c, 0, 46, 86
4, 277440, Note_on_c, 0, 50, 86
4, 277440, Note_on_c, 0, 55, 86
4, 277680, Note_on_c, 0, 55, 0
4, 277680, Note_on_c, 0, 50, 0
4, 277680, Note_on_c, 0, 46, 0
4, 277680, Note_on_c, 0, 50, 86
4, 277680, Note_on_c, 0, 53, 86
4, 277680, Note_on_c, 0, 58, 86
4, 277920, Note_on_c, 0, 58, 0
4, 277920, Note_on_c, 0, 53, 0
4, 277920, Note_on_c, 0, 50, 0
4, 277920, Note_on_c, 0, 48, 86
4, 277920, Note_on_c, 0, 52, 86
4, 277920, Note_on_c, 0, 57, 86
4, 278160, Note_on_c, 0, 57, 0
4, 278160, Note_on_c, 0, 52, 0
4, 278160, Note_on_c, 0, 48, 0
4, 278160, Note_on_c, 0, 52, 86
4, 278160, Note_on_c, 0, 55, 86
4, 278160, Note_on_c, 0, 60, 86
4, 278400, Note_on_c, 0, 60, 0
4, 278400, Note_on_c, 0, 55, 0
4, 278400, Note_on_c, 0, 52, 0
4, 278400, Note_on_c, 0, 50, 86
4, 278400, Note_on_c, 0, 53, 86
4, 278400, Note_on_c, 0, 59, 86
4, 278640, Note_on_c, 0, 59, 0
4, 278640, Note_on_c, 0, 53, 0
4, 278640, Note_on_c, 0, 50, 0
4, 278640, Note_on_c, 0, 53, 86
4, 278640, Note_on_c, 0, 56, 86
4, 278640, Note_on_c, 0, 62, 86
4, 278880, Note_on_c, 0, 62, 0
4, 278880, Note_on_c, 0, 56, 0
4, 278880, Note_on_c, 0, 53, 0
4, 278880, Note_on_c, 0, 52, 86
4, 278880, Note_on_c, 0, 55, 86
4, 278880, Note_on_c, 0, 60, 86
4, 279120, Note_on_c, 0, 60, 0
4, 279120, Note_on_c, 0, 55, 0
4, 279120, Note_on_c, 0, 52, 0
4, 279120, Note_on_c, 0, 55, 86
4, 279120, Note_on_c, 0, 58, 86
4, 279120, Note_on_c, 0, 64, 86
4, 279360, Note_on_c, 0, 64, 0
4, 279360, Note_on_c, 0, 58, 0
4, 279360, Note_on_c, 0, 55, 0
4, 279360, Note_on_c, 0, 53, 86
4, 279360, Note_on_c, 0, 57, 86
4, 279360, Note_on_c, 0, 62, 86
4, 279600, Note_on_c, 0, 62, 0
4, 279600, Note_on_c, 0, 57, 0
4, 279600, Note_on_c, 0, 53, 0
4, 279600, Note_on_c, 0, 57, 86
4, 279600, Note_on_c, 0, 60, 86
4, 279600, Note_on_c, 0, 65, 86
4, 279840, Note_on_c, 0, 65, 0
4, 279840, Note_on_c, 0, 60, 0
4, 279840, Note_on_c, 0, 57, 0
4, 279840, Note_on_c, 0, 55, 86
4, 279840, Note_on_c, 0, 58, 86
4, 279840, Note_on_c, 0, 64, 86
4, 280080, Note_on_c, 0, 64, 0
4, 280080, Note_on_c, 0, 58, 0
4, 280080, Note_on_c, 0, 55, 0
4, 280080, Note_on_c, 0, 58, 86
4, 280080, Note_on_c, 0, 62, 86
4, 280080, Note_on_c, 0, 67, 86
4, 280320, Note_on_c, 0, 67, 0
4, 280320, Note_on_c, 0, 62, 0
4, 280320, Note_on_c, 0, 58, 0
4, 280320, Note_on_c, 0, 59, 86
4, 280320, Note_on_c, 0, 62, 86
4, 280320, Note_on_c, 0, 68, 86
4, 281040, Note_on_c, 0, 68, 0
4, 281040, Note_on_c, 0, 62, 0
4, 281040, Note_on_c, 0, 59, 0
4, 281280, Note_on_c, 0, 59, 86
4, 281520, Note_on_c, 0, 59, 0
4, 281520, Note_on_c, 0, 56, 86
4, 281760, Note_on_c, 0, 56, 0
4, 281760, Note_on_c, 0, 55, 86
4, 282000, Note_on_c, 0, 55, 0
4, 282000, Note_on_c, 0, 53, 86
4, 282240, Note_on_c, 0, 53, 0
4, 282240, Note_on_c, 0, 48, 86
4, 282240, Note_on_c, 0, 57, 86
4, 282240, Note_on_c, 0, 60, 86
4, 282960, Note_on_c, 0, 60, 0
4, 282960, Note_on_c, 0, 57, 0
4, 282960, Note_on_c, 0, 48, 0
4, 283440, Note_on_c, 0, 48, 86
4, 283440, Note_on_c, 0, 58, 86
4, 283680, Note_on_c, 0, 58, 0
4, 283680, Note_on_c, 0, 48, 0
4, 283680, Note_on_c, 0, 53, 86
4, 283680, Note_on_c, 0, 57, 86
4, 283920, Note_on_c, 0, 57, 0
4, 283920, Note_on_c, 0, 53, 0
4, 283920, Note_on_c, 0, 41, 112
4, 283920, Note_on_c, 0, 45, 112
4, 283920, Note_on_c, 0, 48, 112
4, 283920, Note_on_c, 0, 53, 112
4, 284160, Note_on_c, 0, 53, 0
4, 284160, Note_on_c, 0, 41, 0
4, 284160, Note_on_c, 0, 45, 0
4, 284160, Note_on_c, 0, 48, 0
4, 284160, Note_on_c, 0, 50, 60
4, 284160, Note_on_c, 0, 57, 60
4, 285120, Note_on_c, 0, 57, 0
4, 285120, Note_on_c, 0, 50, 0
4, 287040, Note_on_c, 0, 46, 60
4, 287040, Note_on_c, 0, 56, 60
4, 287520, Note_on_c, 0, 56, 0
4, 287520, Note_on_c, 0, 46, 0
4, 287520, Note_on_c, 0, 46, 60
4, 287520, Note_on_c, 0, 56, 60
4, 288000, Note_on_c, 0, 56, 0
4, 288000, Note_on_c, 0, 46, 0
4, 288000, Note_on_c, 0, 38, 60
4, 288000, Note_on_c, 0, 45, 60
4, 288000, Note_on_c, 0, 50, 60
4, 288480, Note_on_c, 0, 50, 0
4, 288480, Note_on_c, 0, 45, 0
4, 288480, Note_on_c, 0, 38, 0
4, 290880, Note_on_c, 0, 34, 60
4, 290880, Note_on_c, 0, 41, 60
4, 290880, Note_on_c, 0, 46, 60
4, 291360, Note_on_c, 0, 46, 0
4, 291360, Note_on_c, 0, 41, 0
4, 291360, Note_on_c, 0, 34, 0
4, 291360, Note_on_c, 0, 34, 60
4, 291360, Note_on_c, 0, 41, 60
4, 291360, Note_on_c, 0, 46, 60
4, 291840, Note_on_c, 0, 46, 0
4, 291840, Note_on_c, 0, 41, 0
4, 291840, Note_on_c, 0, 34, 0
4, 291840, Note_on_c, 0, 38, 60
4, 291840, Note_on_c, 0, 45, 60
4, 291840, Note_on_c, 0, 50, 60
4, 292320, Note_on_c, 0, 50, 0
4, 292320, Note_on_c, 0, 45, 0
4, 292320, Note_on_c, 0, 38, 0
4, 294720, Note_on_c, 0, 34, 60
4, 294720, Note_on_c, 0, 41, 60
4, 294720, Note_on_c, 0, 46, 60
4, 295200, Note_on_c, 0, 46, 0
4, 295200, Note_on_c, 0, 41, 0
4, 295200, Note_on_c, 0, 34, 0
4, 295200, Note_on_c, 0, 34, 60
4, 295200, Note_on_c, 0, 41, 60
4, 295200, Note_on_c, 0, 46, 60
4, 295680, Note_on_c, 0, 46, 0
4, 295680, Note_on_c, 0, 41, 0
4, 295680, Note_on_c, 0, 34, 0
4, 295680, Note_on_c, 0, 38, 60
4, 295680, Note_on_c, 0, 45, 60
4, 295680, Note_on_c, 0, 50, 60
4, 296160, Note_on_c, 0, 50, 0
4, 296160, Note_on_c, 0, 45, 0
4, 296160, Note_on_c, 0, 38, 0
4, 298560, Note_on_c, 0, 34, 60
4, 298560, Note_on_c, 0, 41, 60
4, 298560, Note_on_c, 0, 46, 60
4, 299040, Note_on_c, 0, 46, 0
4, 299040, Note_on_c, 0, 41, 0
4, 299040, Note_on_c, 0, 34, 0
4, 299040, Note_on_c, 0, 34, 60
4, 299040, Note_on_c, 0, 41, 60
4, 299040, Note_on_c, 0, 46, 60
4, 299520, Note_on_c, 0, 46, 0
4, 299520, Note_on_c, 0, 41, 0
4, 299520, Note_on_c, 0, 34, 0
4, 299520, Note_on_c, 0, 38, 47
4, 299520, Note_on_c, 0, 45, 47
4, 299520, Note_on_c, 0, 50, 47
4, 300480, Note_on_c, 0, 50, 0
4, 300480, Note_on_c, 0, 45, 0
4, 300480, Note_on_c, 0, 38, 0
4, 300960, Note_on_c, 0, 62, 47
4, 301200, Note_on_c, 0, 62, 0
4, 301200, Note_on_c, 0, 62, 47
4, 301440, Note_on_c, 0, 62, 0
4, 301440, Note_on_c, 0, 60, 47
4, 302400, Note_on_c, 0, 60, 0
4, 302400, Note_on_c, 0, 46, 47
4, 302400, Note_on_c, 0, 53, 47
4, 302400, Note_on_c, 0, 56, 47
4, 302880, Note_on_c, 0, 56, 0
4, 302880, Note_on_c, 0, 53, 0
4, 302880, Note_on_c, 0, 46, 0
4, 302880, Note_on_c, 0, 46, 47
4, 302880, Note_on_c, 0, 53, 47
4, 302880, Note_on_c, 0, 56, 47
4, 303360, Note_on_c, 0, 56, 0
4, 303360, Note_on_c, 0, 53, 0
4, 303360, Note_on_c, 0, 46, 0
4, 303360, Note_on_c, 0, 62, 47
4, 303407, Note_on_c, 0, 62, 0
4, 303600, Note_on_c, 0, 62, 47
4, 303647, Note_on_c, 0, 62, 0
4, 303840, Note_on_c, 0, 62, 47
4, 303887, Note_on_c, 0, 62, 0
4, 304080, Note_on_c, 0, 62, 47
4, 304127, Note_on_c, 0, 62, 0
4, 304320, Note_on_c, 0, 60, 47
4, 304800, Note_on_c, 0, 60, 0
4, 304800, Note_on_c, 0, 58, 47
4, 305040, Note_on_c, 0, 58, 0
4, 305040, Note_on_c, 0, 58, 47
4, 305280, Note_on_c, 0, 58, 0
4, 305280, Note_on_c, 0, 57, 47
4, 306240, Note_on_c, 0, 57, 0
4, 306240, Note_on_c, 0, 46, 47
4, 306240, Note_on_c, 0, 50, 47
4, 306240, Note_on_c, 0, 56, 47
4, 306720, Note_on_c, 0, 56, 0
4, 306720, Note_on_c, 0, 50, 0
4, 306720, Note_on_c, 0, 46, 0
4, 306720, Note_on_c, 0, 46, 47
4, 306720, Note_on_c, 0, 50, 47
4, 306720, Note_on_c, 0, 56, 47
4, 307200, Note_on_c, 0, 56, 0
4, 307200, Note_on_c, 0, 50, 0
4, 307200, Note_on_c, 0, 46, 0
4, 307200, Note_on_c, 0, 57, 73
4, 307920, Note_on_c, 0, 57, 0
4, 307920, Note_on_c, 0, 58, 47
4, 308160, Note_on_c, 0, 58, 0
4, 308160, Note_on_c, 0, 60, 47
4, 308640, Note_on_c, 0, 60, 0
4, 308640, Note_on_c, 0, 58, 47
4, 308880, Note_on_c, 0, 58, 0
4, 308880, Note_on_c, 0, 58, 47
4, 309120, Note_on_c, 0, 58, 0
4, 309120, Note_on_c, 0, 57, 47
4, 310080, Note_on_c, 0, 57, 0
4, 310080, Note_on_c, 0, 46, 47
4, 310080, Note_on_c, 0, 50, 47
4, 310080, Note_on_c, 0, 56, 47
4, 310560, Note_on_c, 0, 56, 0
4, 310560, Note_on_c, 0, 50, 0
4, 310560, Note_on_c, 0, 46, 0
4, 310560, Note_on_c, 0, 46, 47
4, 310560, Note_on_c, 0, 50, 47
4, 310560, Note_on_c, 0, 56, 47
4, 311040, Note_on_c, 0, 56, 0
4, 311040, Note_on_c, 0, 50, 0
4, 311040, Note_on_c, 0, 46, 0
4, 311040, Note_on_c, 0, 57, 73
4, 311760, Note_on_c, 0, 57, 0
4, 311760, Note_on_c, 0, 58, 47
4, 312000, Note_on_c, 0, 58, 0
4, 312000, Note_on_c, 0, 60, 47
4, 312480, Note_on_c, 0, 60, 0
4, 312480, Note_on_c, 0, 58, 47
4, 312720, Note_on_c, 0, 58, 0
4, 312720, Note_on_c, 0, 58, 47
4, 312960, Note_on_c, 0, 58, 0
4, 312960, Note_on_c, 0, 57, 47
4, 313920, Note_on_c, 0, 57, 0
4, 313920, Note_on_c, 0, 48, 47
4, 313920, Note_on_c, 0, 50, 47
4, 313920, Note_on_c, 0, 53, 47
4, 313920, Note_on_c, 0, 60, 47
4, 314400, Note_on_c, 0, 60, 0
4, 314400, Note_on_c, 0, 48, 0
4, 314400, Note_on_c, 0, 50, 0
4, 314400, Note_on_c, 0, 53, 0
4, 314400, Note_on_c, 0, 48, 47
4, 314400, Note_on_c, 0, 50, 47
4, 314400, Note_on_c, 0, 53, 47
4, 314400, Note_on_c, 0, 60, 47
4, 314880, Note_on_c, 0, 60, 0
4, 314880, Note_on_c, 0, 48, 0
4, 314880, Note_on_c, 0, 50, 0
4, 314880, Note_on_c, 0, 53, 0
4, 314880, Note_on_c, 0, 65, 47
4, 314927, Note_on_c, 0, 65, 0
4, 315120, Note_on_c, 0, 65, 47
4, 315167, Note_on_c, 0, 65, 0
4, 315360, Note_on_c, 0, 65, 47
4, 315407, Note_on_c, 0, 65, 0
4, 315600, Note_on_c, 0, 65, 47
4, 315647, Note_on_c, 0, 65, 0
4, 315840, Note_on_c, 0, 64, 47
4, 316320, Note_on_c, 0, 64, 0
4, 316320, Note_on_c, 0, 62, 47
4, 316560, Note_on_c, 0, 62, 0
4, 316560, Note_on_c, 0, 62, 47
4, 316800, Note_on_c, 0, 62, 0
4, 316800, Note_on_c, 0, 60, 47
4, 317280, Note_on_c, 0, 60, 0
4, 317280, Note_on_c, 0, 59, 47
4, 317280, Note_on_c, 0, 71, 47
4, 318720, Note_on_c, 0, 71, 0
4, 318720, Note_on_c, 0, 59, 0
4, 318720, Note_on_c, 0, 62, 47
4, 318767, Note_on_c, 0, 62, 0
4, 318960, Note_on_c, 0, 62, 47
4, 319007, Note_on_c, 0, 62, 0
4, 319200, Note_on_c, 0, 62, 47
4, 319247, Note_on_c, 0, 62, 0
4, 319440, Note_on_c, 0, 62, 47
4, 319487, Note_on_c, 0, 62, 0
4, 319680, Note_on_c, 0, 60, 47
4, 320160, Note_on_c, 0, 60, 0
4, 320160, Note_on_c, 0, 59, 47
4, 320400, Note_on_c, 0, 59, 0
4, 320400, Note_on_c, 0, 59, 47
4, 320640, Note_on_c, 0, 59, 0
4, 320640, Note_on_c, 0, 57, 47
4, 320640, Note_on_c, 0, 69, 47
4, 321120, Note_on_c, 0, 69, 0
4, 321120, Note_on_c, 0, 57, 0
4, 321120, Note_on_c, 0, 55, 47
4, 321120, Note_on_c, 0, 67, 47
4, 322560, Note_on_c, 0, 67, 0
4, 322560, Note_on_c, 0, 55, 0
4, 322560, Note_on_c, 0, 57, 47
4, 323520, Note_on_c, 0, 57, 0
4, 323520, Note_on_c, 0, 57, 47
4, 324480, Note_on_c, 0, 57, 0
4, 324480, Note_on_c, 0, 53, 47
4, 324480, Note_on_c, 0, 59, 47
4, 324960, Note_on_c, 0, 59, 0
4, 324960, Note_on_c, 0, 53, 0
4, 324960, Note_on_c, 0, 52, 47
4, 324960, Note_on_c, 0, 60, 47
4, 325440, Note_on_c, 0, 60, 0
4, 325440, Note_on_c, 0, 52, 0
4, 325440, Note_on_c, 0, 48, 47
4, 325440, Note_on_c, 0, 52, 47
4, 325920, Note_on_c, 0, 52, 0
4, 325920, Note_on_c, 0, 48, 0
4, 325920, Note_on_c, 0, 48, 47
4, 325920, Note_on_c, 0, 52, 47
4, 326400, Note_on_c, 0, 52, 0
4, 326400, Note_on_c, 0, 48, 0
4, 326400, Note_on_c, 0, 57, 47
4, 327360, Note_on_c, 0, 57, 0
4, 327360, Note_on_c, 0, 57, 47
4, 328320, Note_on_c, 0, 57, 0
4, 328320, Note_on_c, 0, 53, 47
4, 328320, Note_on_c, 0, 59, 47
4, 328800, Note_on_c, 0, 59, 0
4, 328800, Note_on_c, 0, 53, 0
4, 328800, Note_on_c, 0, 52, 47
4, 328800, Note_on_c, 0, 60, 47
4, 329280, Note_on_c, 0, 60, 0
4, 329280, Note_on_c, 0, 52, 0
4, 329280, Note_on_c, 0, 48, 47
4, 329280, Note_on_c, 0, 52, 47
4, 329760, Note_on_c, 0, 52, 0
4, 329760, Note_on_c, 0, 48, 0
4, 329760, Note_on_c, 0, 48, 47
4, 329760, Note_on_c, 0, 52, 47
4, 330240, Note_on_c, 0, 52, 0
4, 330240, Note_on_c, 0, 48, 0
4, 330240, Note_on_c, 0, 46, 47
4, 330240, Note_on_c, 0, 52, 47
4, 330240, Note_on_c, 0, 55, 47
4, 331200, Note_on_c, 0, 55, 0
4, 331200, Note_on_c, 0, 52, 0
4, 331200, Note_on_c, 0, 46, 0
4, 331200, Note_on_c, 0, 45, 60
4, 331200, Note_on_c, 0, 52, 60
4, 331200, Note_on_c, 0, 55, 60
4, 332160, Note_on_c, 0, 55, 0
4, 332160, Note_on_c, 0, 52, 0
4, 332160, Note_on_c, 0, 45, 0
4, 332160, Note_on_c, 0, 43, 73
4, 332160, Note_on_c, 0, 55, 73
4, 332400, Note_on_c, 0, 55, 0
4, 332400, Note_on_c, 0, 43, 0
4, 332400, Note_on_c, 0, 43, 73
4, 332400, Note_on_c, 0, 55, 73
4, 332640, Note_on_c, 0, 55, 0
4, 332640, Note_on_c, 0, 43, 0
4, 332640, Note_on_c, 0, 43, 73
4, 332640, Note_on_c, 0, 55, 73
4, 332880, Note_on_c, 0, 55, 0
4, 332880, Note_on_c, 0, 43, 0
4, 332880, Note_on_c, 0, 43, 73
4, 332880, Note_on_c, 0, 55, 73
4, 333120, Note_on_c, 0, 55, 0
4, 333120, Note_on_c, 0, 43, 0
4, 333120, Note_on_c, 0, 41, 73
4, 333120, Note_on_c, 0, 53, 73
4, 333600, Note_on_c, 0, 53, 0
4, 333600, Note_on_c, 0, 41, 0
4, 333600, Note_on_c, 0, 40, 73
4, 333600, Note_on_c, 0, 52, 73
4, 333840, Note_on_c, 0, 52, 0
4, 333840, Note_on_c, 0, 40, 0
4, 333840, Note_on_c, 0, 40, 73
4, 333840, Note_on_c, 0, 52, 73
4, 334080, Note_on_c, 0, 52, 0
4, 334080, Note_on_c, 0, 40, 0
4, 334080, Note_on_c, 0, 38, 60
4, 334080, Note_on_c, 0, 50, 60
4, 334560, Note_on_c, 0, 50, 0
4, 334560, Note_on_c, 0, 38, 0
4, 334560, Note_on_c, 0, 48, 60
4, 334560, Note_on_c, 0, 60, 60
4, 335040, Note_on_c, 0, 60, 0
4, 335040, Note_on_c, 0, 48, 0
4, 335040, Note_on_c, 0, 47, 60
4, 335040, Note_on_c, 0, 54, 60
4, 335040, Note_on_c, 0, 57, 60
4, 336000, Note_on_c, 0, 57, 0
4, 336000, Note_on_c, 0, 54, 0
4, 336000, Note_on_c, 0, 47, 0
4, 336000, Note_on_c, 0, 45, 73
4, 336000, Note_on_c, 0, 57, 73
4, 336240, Note_on_c, 0, 57, 0
4, 336240, Note_on_c, 0, 45, 0
4, 336240, Note_on_c, 0, 45, 73
4, 336240, Note_on_c, 0, 57, 73
4, 336480, Note_on_c, 0, 57, 0
4, 336480, Note_on_c, 0, 45, 0
4, 336480, Note_on_c, 0, 45, 73
4, 336480, Note_on_c, 0, 57, 73
4, 336720, Note_on_c, 0, 57, 0
4, 336720, Note_on_c, 0, 45, 0
4, 336720, Note_on_c, 0, 45, 73
4, 336720, Note_on_c, 0, 57, 73
4, 336960, Note_on_c, 0, 57, 0
4, 336960, Note_on_c, 0, 45, 0
4, 336960, Note_on_c, 0, 43, 73
4, 336960, Note_on_c, 0, 55, 73
4, 337440, Note_on_c, 0, 55, 0
4, 337440, Note_on_c, 0, 43, 0
4, 337440, Note_on_c, 0, 42, 73
4, 337440, Note_on_c, 0, 54, 73
4, 337680, Note_on_c, 0, 54, 0
4, 337680, Note_on_c, 0, 42, 0
4, 337680, Note_on_c, 0, 42, 73
4, 337680, Note_on_c, 0, 54, 73
4, 337920, Note_on_c, 0, 54, 0
4, 337920, Note_on_c, 0, 42, 0
4, 337920, Note_on_c, 0, 40, 60
4, 337920, Note_on_c, 0, 52, 60
4, 337920, Note_on_c, 0, 59, 60
4, 338880, Note_on_c, 0, 59, 0
4, 338880, Note_on_c, 0, 52, 0
4, 338880, Note_on_c, 0, 40, 0
4, 338880, Note_on_c, 0, 40, 73
4, 339000, Note_on_c, 0, 40, 0
4, 339000, Note_on_c, 0, 52, 73
4, 339120, Note_on_c, 0, 52, 0
4, 339120, Note_on_c, 0, 40, 73
4, 339240, Note_on_c, 0, 40, 0
4, 339240, Note_on_c, 0, 52, 73
4, 339360, Note_on_c, 0, 52, 0
4, 339360, Note_on_c, 0, 38, 73
4, 339360, Note_on_c, 0, 50, 73
4, 339600, Note_on_c, 0, 50, 0
4, 339600, Note_on_c, 0, 38, 0
4, 339600, Note_on_c, 0, 36, 73
4, 339720, Note_on_c, 0, 36, 0
4, 339720, Note_on_c, 0, 48, 73
4, 339840, Note_on_c, 0, 48, 0
4, 339840, Note_on_c, 0, 52, 60
4, 339840, Note_on_c, 0, 59, 60
4, 340800, Note_on_c, 0, 59, 0
4, 340800, Note_on_c, 0, 52, 0
4, 340800, Note_on_c, 0, 40, 73
4, 340920, Note_on_c, 0, 40, 0
4, 340920, Note_on_c, 0, 52, 73
4, 341040, Note_on_c, 0, 52, 0
4, 341040, Note_on_c, 0, 40, 73
4, 341160, Note_on_c, 0, 40, 0
4, 341160, Note_on_c, 0, 52, 73
4, 341280, Note_on_c, 0, 52, 0
4, 341280, Note_on_c, 0, 38, 73
4, 341280, Note_on_c, 0, 50, 73
4, 341520, Note_on_c, 0, 50, 0
4, 341520, Note_on_c, 0, 38, 0
4, 341520, Note_on_c, 0, 36, 73
4, 341640, Note_on_c, 0, 36, 0
4, 341640, Note_on_c, 0, 48, 73
4, 341760, Note_on_c, 0, 48, 0
4, 341760, Note_on_c, 0, 53, 73
4, 341760, Note_on_c, 0, 60, 73
4, 342720, Note_on_c, 0, 60, 0
4, 342720, Note_on_c, 0, 53, 0
4, 342720, Note_on_c, 0, 41, 73
4, 342840, Note_on_c, 0, 41, 0
4, 342840, Note_on_c, 0, 53, 73
4, 342960, Note_on_c, 0, 53, 0
4, 342960, Note_on_c, 0, 41, 73
4, 343080, Note_on_c, 0, 41, 0
4, 343080, Note_on_c, 0, 53, 73
4, 343200, Note_on_c, 0, 53, 0
4, 343200, Note_on_c, 0, 39, 73
4, 343200, Note_on_c, 0, 51, 73
4, 343440, Note_on_c, 0, 51, 0
4, 343440, Note_on_c, 0, 39, 0
4, 343440, Note_on_c, 0, 37, 73
4, 343560, Note_on_c, 0, 37, 0
4, 343560, Note_on_c, 0, 49, 73
4, 343680, Note_on_c, 0, 49, 0
4, 343680, Note_on_c, 0, 53, 73
4, 343680, Note_on_c, 0, 60, 73
4, 344640, Note_on_c, 0, 60, 0
4, 344640, Note_on_c, 0, 53, 0
4, 344640, Note_on_c, 0, 41, 73
4, 344760, Note_on_c, 0, 41, 0
4, 344760, Note_on_c, 0, 53, 73
4, 344880, Note_on_c, 0, 53, 0
4, 344880, Note_on_c, 0, 41, 73
4, 345000, Note_on_c, 0, 41, 0
4, 345000, Note_on_c, 0, 53, 73
4, 345120, Note_on_c, 0, 53, 0
4, 345120, Note_on_c, 0, 39, 73
4, 345120, Note_on_c, 0, 51, 73
4, 345360, Note_on_c, 0, 51, 0
4, 345360, Note_on_c, 0, 39, 0
4, 345360, Note_on_c, 0, 37, 73
4, 345480, Note_on_c, 0, 37, 0
4, 345480, Note_on_c, 0, 49, 73
4, 345600, Note_on_c, 0, 49, 0
4, 345600, Note_on_c, 0, 53, 99
4, 345600, Note_on_c, 0, 60, 99
4, 346080, Note_on_c, 0, 60, 0
4, 346080, Note_on_c, 0, 53, 0
4, 346080, Note_on_c, 0, 49, 99
4, 346080, Note_on_c, 0, 53, 99
4, 346080, Note_on_c, 0, 59, 99
4, 346560, Note_on_c, 0, 59, 0
4, 346560, Note_on_c, 0, 53, 0
4, 346560, Note_on_c, 0, 49, 0
4, 346560, Note_on_c, 0, 45, 73
4, 346680, Note_on_c, 0, 45, 0
4, 346680, Note_on_c, 0, 57, 73
4, 346800, Note_on_c, 0, 57, 0
4, 346800, Note_on_c, 0, 44, 73
4, 346920, Note_on_c, 0, 44, 0
4, 346920, Note_on_c, 0, 42, 73
4, 347040, Note_on_c, 0, 42, 0
4, 347040, Note_on_c, 0, 62, 99
4, 347040, Note_on_c, 0, 66, 99
4, 347520, Note_on_c, 0, 66, 0
4, 347520, Note_on_c, 0, 62, 0
4, 347520, Note_on_c, 0, 53, 99
4, 347520, Note_on_c, 0, 60, 99
4, 348000, Note_on_c, 0, 60, 0
4, 348000, Note_on_c, 0, 53, 0
4, 348000, Note_on_c, 0, 49, 99
4, 348000, Note_on_c, 0, 53, 99
4, 348000, Note_on_c, 0, 59, 99
4, 348480, Note_on_c, 0, 59, 0
4, 348480, Note_on_c, 0, 53, 0
4, 348480, Note_on_c, 0, 49, 0
4, 348480, Note_on_c, 0, 45, 73
4, 348600, Note_on_c, 0, 45, 0
4, 348600, Note_on_c, 0, 57, 73
4, 348720, Note_on_c, 0, 57, 0
4, 348720, Note_on_c, 0, 44, 73
4, 348840, Note_on_c, 0, 44, 0
4, 348840, Note_on_c, 0, 42, 73
4, 348960, Note_on_c, 0, 42, 0
4, 348960, Note_on_c, 0, 62, 99
4, 348960, Note_on_c, 0, 66, 99
4, 349440, Note_on_c, 0, 66, 0
4, 349440, Note_on_c, 0, 62, 0
4, 349440, Note_on_c, 0, 54, 99
4, 349440, Note_on_c, 0, 61, 99
4, 349920, Note_on_c, 0, 61, 0
4, 349920, Note_on_c, 0, 54, 0
4, 349920, Note_on_c, 0, 50, 99
4, 349920, Note_on_c, 0, 54, 99
4, 349920, Note_on_c, 0, 60, 99
4, 350400, Note_on_c, 0, 60, 0
4, 350400, Note_on_c, 0, 54, 0
4, 350400, Note_on_c, 0, 50, 0
4, 350400, Note_on_c, 0, 46, 73
4, 350520, Note_on_c, 0, 46, 0
4, 350520, Note_on_c, 0, 58, 73
4, 350640, Note_on_c, 0, 58, 0
4, 350640, Note_on_c, 0, 45, 73
4, 350760, Note_on_c, 0, 45, 0
4, 350760, Note_on_c, 0, 43, 73
4, 350880, Note_on_c, 0, 43, 0
4, 350880, Note_on_c, 0, 63, 99
4, 350880, Note_on_c, 0, 67, 99
4, 351360, Note_on_c, 0, 67, 0
4, 351360, Note_on_c, 0, 63, 0
4, 351360, Note_on_c, 0, 54, 99
4, 351360, Note_on_c, 0, 61, 99
4, 351840, Note_on_c, 0, 61, 0
4, 351840, Note_on_c, 0, 54, 0
4, 351840, Note_on_c, 0, 50, 99
4, 351840, Note_on_c, 0, 54, 99
4, 351840, Note_on_c, 0, 60, 99
4, 352320, Note_on_c, 0, 60, 0
4, 352320, Note_on_c, 0, 54, 0
4, 352320, Note_on_c, 0, 50, 0
4, 352320, Note_on_c, 0, 46, 73
4, 352440, Note_on_c, 0, 46, 0
4, 352440, Note_on_c, 0, 58, 73
4, 352560, Note_on_c, 0, 58, 0
4, 352560, Note_on_c, 0, 45, 73
4, 352680, Note_on_c, 0, 45, 0
4, 352680, Note_on_c, 0, 43, 73
4, 352800, Note_on_c, 0, 43, 0
4, 352800, Note_on_c, 0, 63, 99
4, 352800, Note_on_c, 0, 67, 99
4, 353280, Note_on_c, 0, 67, 0
4, 353280, Note_on_c, 0, 63, 0
4, 353520, Note_on_c, 0, 60, 73
4, 353640, Note_on_c, 0, 60, 0
4, 353640, Note_on_c, 0, 58, 73
4, 353760, Note_on_c, 0, 58, 0
4, 353760, Note_on_c, 0, 63, 99
4, 353760, Note_on_c, 0, 67, 99
4, 354240, Note_on_c, 0, 67, 0
4, 354240, Note_on_c, 0, 63, 0
4, 354480, Note_on_c, 0, 60, 73
4, 354600, Note_on_c, 0, 60, 0
4, 354600, Note_on_c, 0, 58, 73
4, 354720, Note_on_c, 0, 58, 0
4, 354720, Note_on_c, 0, 63, 99
4, 354720, Note_on_c, 0, 67, 99
4, 355200, Note_on_c, 0, 67, 0
4, 355200, Note_on_c, 0, 63, 0
4, 355200, Note_on_c, 0, 46, 73
4, 355200, Note_on_c, 0, 50, 73
4, 355320, Note_on_c, 0, 50, 0
4, 355320, Note_on_c, 0, 46, 0
4, 355320, Note_on_c, 0, 50, 73
4, 355440, Note_on_c, 0, 50, 0
4, 355440, Note_on_c, 0, 45, 73
4, 355440, Note_on_c, 0, 48, 73
4, 355560, Note_on_c, 0, 48, 0
4, 355560, Note_on_c, 0, 45, 0
4, 355560, Note_on_c, 0, 43, 73
4, 355560, Note_on_c, 0, 46, 73
4, 355680, Note_on_c, 0, 46, 0
4, 355680, Note_on_c, 0, 43, 0
4, 355680, Note_on_c, 0, 50, 73
4, 355920, Note_on_c, 0, 50, 0
4, 355920, Note_on_c, 0, 48, 73
4, 356040, Note_on_c, 0, 48, 0
4, 356040, Note_on_c, 0, 46, 73
4, 356160, Note_on_c, 0, 46, 0
4, 356160, Note_on_c, 0, 58, 73
4, 356160, Note_on_c, 0, 62, 73
4, 356280, Note_on_c, 0, 62, 0
4, 356280, Note_on_c, 0, 58, 0
4, 356280, Note_on_c, 0, 62, 73
4, 356400, Note_on_c, 0, 62, 0
4, 356400, Note_on_c, 0, 57, 73
4, 356400, Note_on_c, 0, 60, 73
4, 356520, Note_on_c, 0, 60, 0
4, 356520, Note_on_c, 0, 57, 0
4, 356520, Note_on_c, 0, 55, 73
4, 356520, Note_on_c, 0, 58, 73
4, 356640, Note_on_c, 0, 58, 0
4, 356640, Note_on_c, 0, 55, 0
4, 356640, Note_on_c, 0, 62, 73
4, 356880, Note_on_c, 0, 62, 0
4, 356880, Note_on_c, 0, 60, 73
4, 357000, Note_on_c, 0, 60, 0
4, 357000, Note_on_c, 0, 58, 73
4, 357120, Note_on_c, 0, 58, 0
4, 357120, Note_on_c, 0, 50, 86
4, 357360, Note_on_c, 0, 50, 0
4, 357360, Note_on_c, 0, 50, 86
4, 357600, Note_on_c, 0, 50, 0
4, 357600, Note_on_c, 0, 50, 86
4, 357840, Note_on_c, 0, 50, 0
4, 357840, Note_on_c, 0, 50, 86
4, 358080, Note_on_c, 0, 50, 0
4, 358080, Note_on_c, 0, 48, 86
4, 358560, Note_on_c, 0, 48, 0
4, 358560, Note_on_c, 0, 46, 86
4, 358800, Note_on_c, 0, 46, 0
4, 358800, Note_on_c, 0, 46, 86
4, 359040, Note_on_c, 0, 46, 0
4, 359040, Note_on_c, 0, 62, 86
4, 359280, Note_on_c, 0, 62, 0
4, 359280, Note_on_c, 0, 62, 86
4, 359520, Note_on_c, 0, 62, 0
4, 359520, Note_on_c, 0, 62, 86
4, 359760, Note_on_c, 0, 62, 0
4, 359760, Note_on_c, 0, 62, 86
4, 360000, Note_on_c, 0, 62, 0
4, 360000, Note_on_c, 0, 60, 86
4, 360480, Note_on_c, 0, 60, 0
4, 360480, Note_on_c, 0, 58, 86
4, 360720, Note_on_c, 0, 58, 0
4, 360720, Note_on_c, 0, 58, 86
4, 360960, Note_on_c, 0, 58, 0
4, 360960, Note_on_c, 0, 57, 86
4, 361440, Note_on_c, 0, 57, 0
4, 361440, Note_on_c, 0, 55, 86
4, 361920, Note_on_c, 0, 55, 0
4, 362880, Note_on_c, 0, 62, 86
4, 363120, Note_on_c, 0, 62, 0
4, 363120, Note_on_c, 0, 62, 86
4, 363360, Note_on_c, 0, 62, 0
4, 363360, Note_on_c, 0, 62, 86
4, 363600, Note_on_c, 0, 62, 0
4, 363600, Note_on_c, 0, 62, 86
4, 363840, Note_on_c, 0, 62, 0
4, 363840, Note_on_c, 0, 60, 86
4, 364320, Note_on_c, 0, 60, 0
4, 364320, Note_on_c, 0, 58, 86
4, 364800, Note_on_c, 0, 58, 0
4, 364800, Note_on_c, 0, 57, 86
4, 365280, Note_on_c, 0, 57, 0
4, 365280, Note_on_c, 0, 55, 86
4, 365760, Note_on_c, 0, 55, 0
4, 366720, Note_on_c, 0, 63, 86
4, 366960, Note_on_c, 0, 63, 0
4, 366960, Note_on_c, 0, 63, 86
4, 367200, Note_on_c, 0, 63, 0
4, 367200, Note_on_c, 0, 63, 86
4, 367440, Note_on_c, 0, 63, 0
4, 367440, Note_on_c, 0, 63, 86
4, 367680, Note_on_c, 0, 63, 0
4, 367680, Note_on_c, 0, 62, 86
4, 368160, Note_on_c, 0, 62, 0
4, 368160, Note_on_c, 0, 60, 86
4, 368400, Note_on_c, 0, 60, 0
4, 368400, Note_on_c, 0, 60, 86
4, 368640, Note_on_c, 0, 60, 0
4, 368640, Note_on_c, 0, 58, 86
4, 369120, Note_on_c, 0, 58, 0
4, 369120, Note_on_c, 0, 57, 86
4, 369600, Note_on_c, 0, 57, 0
4, 370560, Note_on_c, 0, 63, 86
4, 370800, Note_on_c, 0, 63, 0
4, 370800, Note_on_c, 0, 63, 86
4, 371040, Note_on_c, 0, 63, 0
4, 371040, Note_on_c, 0, 63, 86
4, 371280, Note_on_c, 0, 63, 0
4, 371280, Note_on_c, 0, 63, 86
4, 371520, Note_on_c, 0, 63, 0
4, 371520, Note_on_c, 0, 62, 86
4, 372000, Note_on_c, 0, 62, 0
4, 372000, Note_on_c, 0, 60, 86
4, 372240, Note_on_c, 0, 60, 0
4, 372240, Note_on_c, 0, 60, 86
4, 372480, Note_on_c, 0, 60, 0
4, 372480, Note_on_c, 0, 58, 86
4, 372960, Note_on_c, 0, 58, 0
4, 372960, Note_on_c, 0, 57, 86
4, 373440, Note_on_c, 0, 57, 0
4, 373440, Note_on_c, 0, 65, 86
4, 373680, Note_on_c, 0, 65, 0
4, 373680, Note_on_c, 0, 65, 86
4, 373920, Note_on_c, 0, 65, 0
4, 373920, Note_on_c, 0, 65, 86
4, 374160, Note_on_c, 0, 65, 0
4, 374160, Note_on_c, 0, 65, 86
4, 374400, Note_on_c, 0, 65, 0
4, 374400, Note_on_c, 0, 60, 86
4, 374880, Note_on_c, 0, 60, 0
4, 374880, Note_on_c, 0, 59, 86
4, 375360, Note_on_c, 0, 59, 0
4, 375360, Note_on_c, 0, 67, 86
4, 375600, Note_on_c, 0, 67, 0
4, 375600, Note_on_c, 0, 67, 86
4, 375840, Note_on_c, 0, 67, 0
4, 375840, Note_on_c, 0, 67, 86
4, 376080, Note_on_c, 0, 67, 0
4, 376080, Note_on_c, 0, 67, 86
4, 376320, Note_on_c, 0, 67, 0
4, 376320, Note_on_c, 0, 62, 86
4, 376800, Note_on_c, 0, 62, 0
4, 376800, Note_on_c, 0, 60, 86
4, 377280, Note_on_c, 0, 60, 0
4, 377280, Note_on_c, 0, 68, 86
4, 377520, Note_on_c, 0, 68, 0
4, 377520, Note_on_c, 0, 68, 86
4, 377760, Note_on_c, 0, 68, 0
4, 377760, Note_on_c, 0, 68, 86
4, 378000, Note_on_c, 0, 68, 0
4, 378000, Note_on_c, 0, 68, 86
4, 378240, Note_on_c, 0, 68, 0
4, 378240, Note_on_c, 0, 62, 86
4, 378720, Note_on_c, 0, 62, 0
4, 378720, Note_on_c, 0, 60, 86
4, 379200, Note_on_c, 0, 60, 0
4, 379200, Note_on_c, 0, 68, 86
4, 379440, Note_on_c, 0, 68, 0
4, 379440, Note_on_c, 0, 68, 86
4, 379680, Note_on_c, 0, 68, 0
4, 379680, Note_on_c, 0, 68, 86
4, 379920, Note_on_c, 0, 68, 0
4, 379920, Note_on_c, 0, 68, 86
4, 380160, Note_on_c, 0, 68, 0
4, 380160, Note_on_c, 0, 64, 86
4, 380160, Note_on_c, 0, 68, 86
4, 380400, Note_on_c, 0, 68, 0
4, 380400, Note_on_c, 0, 64, 0
4, 380640, Note_on_c, 0, 52, 86
4, 380640, Note_on_c, 0, 64, 86
4, 382080, Note_on_c, 0, 64, 0
4, 382080, Note_on_c, 0, 52, 0
4, 382080, Note_on_c, 0, 50, 86
4, 382080, Note_on_c, 0, 53, 86
4, 382080, Note_on_c, 0, 62, 86
4, 382080, Note_on_c, 0, 65, 86
4, 383040, Note_on_c, 0, 65, 0
4, 383040, Note_on_c, 0, 50, 0
4, 383040, Note_on_c, 0, 53, 0
4, 383040, Note_on_c, 0, 62, 0
4, 383520, Note_on_c, 0, 49, 86
4, 383520, Note_on_c, 0, 53, 86
4, 383520, Note_on_c, 0, 61, 86
4, 384000, Note_on_c, 0, 61, 0
4, 384000, Note_on_c, 0, 53, 0
4, 384000, Note_on_c, 0, 49, 0
4, 384000, Note_on_c, 0, 47, 86
4, 384000, Note_on_c, 0, 49, 86
4, 384000, Note_on_c, 0, 59, 86
4, 384480, Note_on_c, 0, 59, 0
4, 384480, Note_on_c, 0, 49, 0
4, 384480, Note_on_c, 0, 47, 0
4, 384960, Note_on_c, 0, 47, 86
4, 384960, Note_on_c, 0, 49, 86
4, 384960, Note_on_c, 0, 59, 86
4, 385440, Note_on_c, 0, 59, 0
4, 385440, Note_on_c, 0, 49, 0
4, 385440, Note_on_c, 0, 47, 0
4, 385440, Note_on_c, 0, 44, 86
4, 385440, Note_on_c, 0, 48, 86
4, 385440, Note_on_c, 0, 56, 86
4, 385920, Note_on_c, 0, 56, 0
4, 385920, Note_on_c, 0, 48, 0
4, 385920, Note_on_c, 0, 44, 0
4, 386400, Note_on_c, 0, 40, 86
4, 386400, Note_on_c, 0, 47, 86
4, 386400, Note_on_c, 0, 52, 86
4, 386880, Note_on_c, 0, 52, 0
4, 386880, Note_on_c, 0, 47, 0
4, 386880, Note_on_c, 0, 40, 0
4, 386880, Note_on_c, 0, 40, 86
4, 386880, Note_on_c, 0, 47, 86
4, 386880, Note_on_c, 0, 52, 86
4, 387360, Note_on_c, 0, 52, 0
4, 387360, Note_on_c, 0, 47, 0
4, 387360, Note_on_c, 0, 40, 0
4, 387360, Note_on_c, 0, 40, 86
4, 387360, Note_on_c, 0, 47, 86
4, 387360, Note_on_c, 0, 52, 86
4, 387840, Note_on_c, 0, 52, 0
4, 387840, Note_on_c, 0, 47, 0
4, 387840, Note_on_c, 0, 40, 0
4, 387840, Note_on_c, 0, 40, 86
4, 387840, Note_on_c, 0, 47, 86
4, 387840, Note_on_c, 0, 52, 86
4, 388320, Note_on_c, 0, 52, 0
4, 388320, Note_on_c, 0, 47, 0
4, 388320, Note_on_c, 0, 40, 0
4, 388320, Note_on_c, 0, 40, 86
4, 388320, Note_on_c, 0, 47, 86
4, 388320, Note_on_c, 0, 52, 86
4, 388800, Note_on_c, 0, 52, 0
4, 388800, Note_on_c, 0, 47, 0
4, 388800, Note_on_c, 0, 40, 0
4, 388800, Note_on_c, 0, 38, 86
4, 388800, Note_on_c, 0, 44, 86
4, 388800, Note_on_c, 0, 50, 86
4, 389040, Note_on_c, 0, 50, 0
4, 389040, Note_on_c, 0, 44, 0
4, 389040, Note_on_c, 0, 38, 0
4, 390240, Note_on_c, 0, 56, 86
4, 390960, Note_on_c, 0, 56, 0
4, 390960, Note_on_c, 0, 56, 86
4, 391040, Note_on_c, 0, 56, 0
4, 391040, Note_on_c, 0, 56, 86
4, 391119, Note_on_c, 0, 56, 0
4, 391119, Note_on_c, 0, 56, 86
4, 391200, Note_on_c, 0, 56, 0
4, 391200, Note_on_c, 0, 56, 86
4, 391440, Note_on_c, 0, 56, 0
4, 391440, Note_on_c, 0, 56, 86
4, 391680, Note_on_c, 0, 56, 0
4, 391680, Note_on_c, 0, 37, 86
4, 391680, Note_on_c, 0, 44, 86
4, 391680, Note_on_c, 0, 49, 86
4, 391920, Note_on_c, 0, 49, 0
4, 391920, Note_on_c, 0, 44, 0
4, 391920, Note_on_c, 0, 37, 0
4, 394560, Note_on_c, 0, 35, 60
4, 394560, Note_on_c, 0, 44, 60
4, 394560, Note_on_c, 0, 47, 60
4, 396000, Note_on_c, 0, 47, 0
4, 396000, Note_on_c, 0, 44, 0
4, 396000, Note_on_c, 0, 35, 0
4, 397440, Note_on_c, 0, 32, 47
4, 397440, Note_on_c, 0, 39, 47
4, 397440, Note_on_c, 0, 44, 47
4, 398400, Note_on_c, 0, 44, 0
4, 398400, Note_on_c, 0, 39, 0
4, 398400, Note_on_c, 0, 32, 0
4, 398880, Note_on_c, 0, 29, 47
4, 398880, Note_on_c, 0, 41, 47
4, 399840, Note_on_c, 0, 41, 0
4, 399840, Note_on_c, 0, 29, 0
4, 400320, Note_on_c, 0, 37, 34
4, 400320, Note_on_c, 0, 44, 34
4, 400320, Note_on_c, 0, 49, 34
4, 401280, Note_on_c, 0, 49, 0
4, 401280, Note_on_c, 0, 44, 0
4, 401280, Note_on_c, 0, 37, 0
4, 401280, Note_on_c, 0, 56, 34
4, 401760, Note_on_c, 0, 56, 0
4, 401760, Note_on_c, 0, 53, 34
4, 402240, Note_on_c, 0, 53, 0
4, 402240, Note_on_c, 0, 55, 34
4, 403080, Note_on_c, 0, 55, 0
4, 403080, Note_on_c, 0, 56, 34
4, 403200, Note_on_c, 0, 56, 0
4, 403200, Note_on_c, 0, 56, 34
4, 404160, Note_on_c, 0, 56, 0
4, 404160, Note_on_c, 0, 53, 34
4, 404640, Note_on_c, 0, 53, 0
4, 405120, Note_on_c, 0, 59, 34
4, 405600, Note_on_c, 0, 59, 0
4, 405600, Note_on_c, 0, 56, 34
4, 406080, Note_on_c, 0, 56, 0
4, 406080, Note_on_c, 0, 53, 34
4, 407040, Note_on_c, 0, 53, 0
4, 407040, Note_on_c, 0, 47, 34
4, 407520, Note_on_c, 0, 47, 0
4, 408000, Note_on_c, 0, 44, 34
4, 408480, Note_on_c, 0, 44, 0
4, 408480, Note_on_c, 0, 41, 34
4, 408960, Note_on_c, 0, 41, 0
4, 408960, Note_on_c, 0, 37, 34
4, 411840, Note_on_c, 0, 37, 0
4, 411840, Note_on_c, 0, 35, 34
4, 411840, Note_on_c, 0, 47, 34
4, 414720, Note_on_c, 0, 47, 0
4, 414720, Note_on_c, 0, 35, 0
4, 414720, Control_c, 0, 64, 127
4, 414720, Note_on_c, 0, 36, 34
4, 414800, Note_on_c, 0, 36, 0
4, 414800, Note_on_c, 0, 48, 34
4, 414879, Note_on_c, 0, 48, 0
4, 414879, Note_on_c, 0, 36, 34
4, 414960, Note_on_c, 0, 36, 0
4, 414960, Note_on_c, 0, 48, 34
4, 415040, Note_on_c, 0, 48, 0
4, 415040, Note_on_c, 0, 36, 34
4, 415119, Note_on_c, 0, 36, 0
4, 415119, Note_on_c, 0, 48, 34
4, 415200, Note_on_c, 0, 48, 0
4, 415200, Note_on_c, 0, 36, 34
4, 415280, Note_on_c, 0, 36, 0
4, 415280, Note_on_c, 0, 48, 34
4, 415359, Note_on_c, 0, 48, 0
4, 415359, Note_on_c, 0, 36, 34
4, 415440, Note_on_c, 0, 36, 0
4, 415440, Note_on_c, 0, 48, 34
4, 415520, Note_on_c, 0, 48, 0
4, 415520, Note_on_c, 0, 36, 34
4, 415599, Note_on_c, 0, 36, 0
4, 415599, Note_on_c, 0, 48, 34
4, 415680, Note_on_c, 0, 48, 0
4, 415680, Note_on_c, 0, 36, 34
4, 415760, Note_on_c, 0, 36, 0
4, 415760, Note_on_c, 0, 48, 34
4, 415839, Note_on_c, 0, 48, 0
4, 415839, Note_on_c, 0, 36, 34
4, 415920, Note_on_c, 0, 36, 0
4, 415920, Note_on_c, 0, 48, 34
4, 416000, Note_on_c, 0, 48, 0
4, 416000, Note_on_c, 0, 36, 34
4, 416079, Note_on_c, 0, 36, 0
4, 416079, Note_on_c, 0, 48, 34
4, 416160, Note_on_c, 0, 48, 0
4, 416160, Note_on_c, 0, 36, 34
4, 416240, Note_on_c, 0, 36, 0
4, 416240, Note_on_c, 0, 48, 34
4, 416319, Note_on_c, 0, 48, 0
4, 416319, Note_on_c, 0, 36, 34
4, 416400, Note_on_c, 0, 36, 0
4, 416400, Note_on_c, 0, 48, 34
4, 416480, Note_on_c, 0, 48, 0
4, 416480, Note_on_c, 0, 36, 34
4, 416559, Note_on_c, 0, 36, 0
4, 416559, Note_on_c, 0, 48, 34
4, 416640, Note_on_c, 0, 48, 0
4, 416640, Note_on_c, 0, 36, 34
4, 416720, Note_on_c, 0, 36, 0
4, 416720, Note_on_c, 0, 48, 34
4, 416799, Note_on_c, 0, 48, 0
4, 416799, Note_on_c, 0, 36, 34
4, 416880, Note_on_c, 0, 36, 0
4, 416880, Note_on_c, 0, 48, 34
4, 416960, Note_on_c, 0, 48, 0
4, 416960, Note_on_c, 0, 36, 34
4, 417039, Note_on_c, 0, 36, 0
4, 417039, Note_on_c, 0, 48, 34
4, 417120, Note_on_c, 0, 48, 0
4, 417120, Note_on_c, 0, 36, 34
4, 417200, Note_on_c, 0, 36, 0
4, 417200, Note_on_c, 0, 48, 34
4, 417279, Note_on_c, 0, 48, 0
4, 417279, Note_on_c, 0, 36, 34
4, 417360, Note_on_c, 0, 36, 0
4, 417360, Note_on_c, 0, 48, 34
4, 417440, Note_on_c, 0, 48, 0
4, 417440, Note_on_c, 0, 36, 34
4, 417519, Note_on_c, 0, 36, 0
4, 417519, Note_on_c, 0, 48, 34
4, 417600, Note_on_c, 0, 48, 0
4, 417600, Note_on_c, 0, 36, 34
4, 417680, Note_on_c, 0, 36, 0
4, 417680, Note_on_c, 0, 48, 34
4, 417759, Note_on_c, 0, 48, 0
4, 417759, Note_on_c, 0, 36, 34
4, 417840, Note_on_c, 0, 36, 0
4, 417840, Note_on_c, 0, 48, 34
4, 417920, Note_on_c, 0, 48, 0
4, 417920, Note_on_c, 0, 36, 34
4, 417999, Note_on_c, 0, 36, 0
4, 417999, Note_on_c, 0, 48, 34
4, 418080, Note_on_c, 0, 48, 0
4, 418080, Note_on_c, 0, 36, 34
4, 418160, Note_on_c, 0, 36, 0
4, 418160, Note_on_c, 0, 48, 34
4, 418239, Note_on_c, 0, 48, 0
4, 418239, Note_on_c, 0, 36, 34
4, 418320, Note_on_c, 0, 36, 0
4, 418320, Note_on_c, 0, 48, 34
4, 418400, Note_on_c, 0, 48, 0
4, 418400, Note_on_c, 0, 36, 34
4, 418479, Note_on_c, 0, 36, 0
4, 418479, Note_on_c, 0, 48, 34
4, 418560, Note_on_c, 0, 48, 0
4, 418560, Note_on_c, 0, 36, 34
4, 418640, Note_on_c, 0, 36, 0
4, 418640, Note_on_c, 0, 48, 34
4, 418719, Note_on_c, 0, 48, 0
4, 418719, Note_on_c, 0, 36, 34
4, 418800, Note_on_c, 0, 36, 0
4, 418800, Note_on_c, 0, 48, 34
4, 418880, Note_on_c, 0, 48, 0
4, 418880, Note_on_c, 0, 36, 34
4, 418959, Note_on_c, 0, 36, 0
4, 418959, Note_on_c, 0, 48, 34
4, 419040, Note_on_c, 0, 48, 0
4, 419040, Note_on_c, 0, 36, 34
4, 419120, Note_on_c, 0, 36, 0
4, 419120, Note_on_c, 0, 48, 34
4, 419199, Note_on_c, 0, 48, 0
4, 419199, Note_on_c, 0, 36, 34
4, 419280, Note_on_c, 0, 36, 0
4, 419280, Note_on_c, 0, 48, 34
4, 419360, Note_on_c, 0, 48, 0
4, 419360, Note_on_c, 0, 36, 34
4, 419439, Note_on_c, 0, 36, 0
4, 419439, Note_on_c, 0, 48, 34
4, 419520, Note_on_c, 0, 48, 0
4, 419520, Note_on_c, 0, 36, 34
4, 419600, Note_on_c, 0, 36, 0
4, 419600, Note_on_c, 0, 48, 34
4, 419679, Note_on_c, 0, 48, 0
4, 419679, Note_on_c, 0, 36, 34
4, 419760, Note_on_c, 0, 36, 0
4, 419760, Note_on_c, 0, 48, 34
4, 419840, Note_on_c, 0, 48, 0
4, 419840, Note_on_c, 0, 36, 34
4, 419919, Note_on_c, 0, 36, 0
4, 419919, Note_on_c, 0, 48, 34
4, 420000, Note_on_c, 0, 48, 0
4, 420000, Note_on_c, 0, 36, 34
4, 420080, Note_on_c, 0, 36, 0
4, 420080, Note_on_c, 0, 48, 34
4, 420159, Note_on_c, 0, 48, 0
4, 420159, Note_on_c, 0, 36, 34
4, 420240, Note_on_c, 0, 36, 0
4, 420240, Note_on_c, 0, 48, 34
4, 420320, Note_on_c, 0, 48, 0
4, 420320, Note_on_c, 0, 36, 34
4, 420399, Note_on_c, 0, 36, 0
4, 420399, Note_on_c, 0, 48, 34
4, 420480, Note_on_c, 0, 48, 0
4, 420480, Note_on_c, 0, 36, 34
4, 420560, Note_on_c, 0, 36, 0
4, 420560, Note_on_c, 0, 48, 34
4, 420639, Note_on_c, 0, 48, 0
4, 420639, Note_on_c, 0, 36, 34
4, 420720, Note_on_c, 0, 36, 0
4, 420720, Note_on_c, 0, 48, 34
4, 420800, Note_on_c, 0, 48, 0
4, 420800, Note_on_c, 0, 36, 34
4, 420879, Note_on_c, 0, 36, 0
4, 420879, Note_on_c, 0, 48, 34
4, 420960, Note_on_c, 0, 48, 0
4, 420960, Note_on_c, 0, 36, 34
4, 421040, Note_on_c, 0, 36, 0
4, 421040, Note_on_c, 0, 48, 34
4, 421119, Note_on_c, 0, 48, 0
4, 421119, Note_on_c, 0, 36, 34
4, 421200, Note_on_c, 0, 36, 0
4, 421200, Note_on_c, 0, 48, 34
4, 421280, Note_on_c, 0, 48, 0
4, 421280, Note_on_c, 0, 36, 34
4, 421359, Note_on_c, 0, 36, 0
4, 421359, Note_on_c, 0, 48, 34
4, 421440, Note_on_c, 0, 48, 0
4, 421440, Note_on_c, 0, 36, 34
4, 421520, Note_on_c, 0, 36, 0
4, 421520, Note_on_c, 0, 48, 34
4, 421599, Note_on_c, 0, 48, 0
4, 421599, Note_on_c, 0, 36, 34
4, 421680, Note_on_c, 0, 36, 0
4, 421680, Note_on_c, 0, 48, 34
4, 421760, Note_on_c, 0, 48, 0
4, 421760, Note_on_c, 0, 36, 34
4, 421839, Note_on_c, 0, 36, 0
4, 421839, Note_on_c, 0, 48, 34
4, 421920, Note_on_c, 0, 48, 0
4, 421920, Note_on_c, 0, 36, 34
4, 422000, Note_on_c, 0, 36, 0
4, 422000, Note_on_c, 0, 48, 34
4, 422079, Note_on_c, 0, 48, 0
4, 422079, Note_on_c, 0, 36, 34
4, 422160, Note_on_c, 0, 36, 0
4, 422160, Note_on_c, 0, 48, 34
4, 422240, Note_on_c, 0, 48, 0
4, 422240, Note_on_c, 0, 36, 34
4, 422319, Note_on_c, 0, 36, 0
4, 422319, Note_on_c, 0, 48, 34
4, 422400, Note_on_c, 0, 48, 0
4, 422400, Note_on_c, 0, 36, 34
4, 422480, Note_on_c, 0, 36, 0
4, 422480, Note_on_c, 0, 48, 34
4, 422559, Note_on_c, 0, 48, 0
4, 422559, Note_on_c, 0, 36, 34
4, 422640, Note_on_c, 0, 36, 0
4, 422640, Note_on_c, 0, 48, 34
4, 422720, Note_on_c, 0, 48, 0
4, 422720, Note_on_c, 0, 36, 34
4, 422799, Note_on_c, 0, 36, 0
4, 422799, Note_on_c, 0, 48, 34
4, 422880, Note_on_c, 0, 48, 0
4, 422880, Note_on_c, 0, 36, 34
4, 422960, Note_on_c, 0, 36, 0
4, 422960, Note_on_c, 0, 48, 34
4, 423039, Note_on_c, 0, 48, 0
4, 423039, Note_on_c, 0, 36, 34
4, 423120, Note_on_c, 0, 36, 0
4, 423120, Note_on_c, 0, 48, 34
4, 423200, Note_on_c, 0, 48, 0
4, 423200, Note_on_c, 0, 36, 34
4, 423279, Note_on_c, 0, 36, 0
4, 423279, Note_on_c, 0, 48, 34
4, 423360, Note_on_c, 0, 48, 0
4, 423360, Note_on_c, 0, 36, 34
4, 423440, Note_on_c, 0, 36, 0
4, 423440, Note_on_c, 0, 48, 34
4, 423519, Note_on_c, 0, 48, 0
4, 423519, Note_on_c, 0, 36, 34
4, 423600, Note_on_c, 0, 36, 0
4, 423600, Note_on_c, 0, 48, 34
4, 423680, Note_on_c, 0, 48, 0
4, 423680, Note_on_c, 0, 36, 34
4, 423759, Note_on_c, 0, 36, 0
4, 423759, Note_on_c, 0, 48, 34
4, 423840, Note_on_c, 0, 48, 0
4, 423840, Note_on_c, 0, 36, 34
4, 423920, Note_on_c, 0, 36, 0
4, 423920, Note_on_c, 0, 48, 34
4, 423999, Note_on_c, 0, 48, 0
4, 423999, Note_on_c, 0, 36, 34
4, 424080, Note_on_c, 0, 36, 0
4, 424080, Note_on_c, 0, 48, 34
4, 424160, Note_on_c, 0, 48, 0
4, 424160, Control_c, 0, 64, 0
4, 424160, Note_on_c, 0, 36, 34
4, 424239, Note_on_c, 0, 36, 0
4, 424239, Note_on_c, 0, 48, 34
4, 424320, Note_on_c, 0, 48, 0
4, 424320, Control_c, 0, 64, 127
4, 424320, Note_on_c, 0, 36, 47
4, 424400, Note_on_c, 0, 36, 0
4, 424400, Note_on_c, 0, 48, 47
4, 424479, Note_on_c, 0, 48, 0
4, 424479, Note_on_c, 0, 36, 47
4, 424560, Note_on_c, 0, 36, 0
4, 424560, Note_on_c, 0, 48, 47
4, 424640, Note_on_c, 0, 48, 0
4, 424640, Note_on_c, 0, 36, 47
4, 424719, Note_on_c, 0, 36, 0
4, 424719, Note_on_c, 0, 48, 47
4, 424800, Note_on_c, 0, 48, 0
4, 424800, Note_on_c, 0, 36, 47
4, 424880, Note_on_c, 0, 36, 0
4, 424880, Note_on_c, 0, 48, 47
4, 424959, Note_on_c, 0, 48, 0
4, 424959, Note_on_c, 0, 36, 47
4, 425040, Note_on_c, 0, 36, 0
4, 425040, Note_on_c, 0, 48, 47
4, 425120, Note_on_c, 0, 48, 0
4, 425120, Note_on_c, 0, 36, 47
4, 425199, Note_on_c, 0, 36, 0
4, 425199, Note_on_c, 0, 48, 47
4, 425280, Note_on_c, 0, 48, 0
4, 425280, Note_on_c, 0, 36, 47
4, 425360, Note_on_c, 0, 36, 0
4, 425360, Note_on_c, 0, 48, 47
4, 425439, Note_on_c, 0, 48, 0
4, 425439, Note_on_c, 0, 36, 47
4, 425520, Note_on_c, 0, 36, 0
4, 425520, Note_on_c, 0, 48, 47
4, 425600, Note_on_c, 0, 48, 0
4, 425600, Note_on_c, 0, 36, 47
4, 425679, Note_on_c, 0, 36, 0
4, 425679, Note_on_c, 0, 48, 47
4, 425760, Note_on_c, 0, 48, 0
4, 425760, Note_on_c, 0, 36, 47
4, 425840, Note_on_c, 0, 36, 0
4, 425840, Note_on_c, 0, 48, 47
4, 425919, Note_on_c, 0, 48, 0
4, 425919, Note_on_c, 0, 36, 47
4, 426000, Note_on_c, 0, 36, 0
4, 426000, Note_on_c, 0, 48, 47
4, 426080, Note_on_c, 0, 48, 0
4, 426080, Note_on_c, 0, 36, 47
4, 426159, Note_on_c, 0, 36, 0
4, 426159, Note_on_c, 0, 48, 47
4, 426240, Note_on_c, 0, 48, 0
4, 426240, Note_on_c, 0, 36, 47
4, 426320, Note_on_c, 0, 36, 0
4, 426320, Note_on_c, 0, 48, 47
4, 426399, Note_on_c, 0, 48, 0
4, 426399, Note_on_c, 0, 36, 47
4, 426480, Note_on_c, 0, 36, 0
4, 426480, Note_on_c, 0, 48, 47
4, 426560, Note_on_c, 0, 48, 0
4, 426560, Note_on_c, 0, 36, 47
4, 426639, Note_on_c, 0, 36, 0
4, 426639, Note_on_c, 0, 48, 47
4, 426720, Note_on_c, 0, 48, 0
4, 426720, Note_on_c, 0, 36, 47
4, 426800, Note_on_c, 0, 36, 0
4, 426800, Note_on_c, 0, 48, 47
4, 426879, Note_on_c, 0, 48, 0
4, 426879, Note_on_c, 0, 36, 47
4, 426960, Note_on_c, 0, 36, 0
4, 426960, Note_on_c, 0, 48, 47
4, 427040, Note_on_c, 0, 48, 0
4, 427040, Note_on_c, 0, 36, 47
4, 427119, Note_on_c, 0, 36, 0
4, 427119, Note_on_c, 0, 48, 47
4, 427200, Note_on_c, 0, 48, 0
4, 427200, Note_on_c, 0, 36, 47
4, 427280, Note_on_c, 0, 36, 0
4, 427280, Note_on_c, 0, 48, 47
4, 427359, Note_on_c, 0, 48, 0
4, 427359, Note_on_c, 0, 36, 47
4, 427440, Note_on_c, 0, 36, 0
4, 427440, Note_on_c, 0, 48, 47
4, 427520, Note_on_c, 0, 48, 0
4, 427520, Note_on_c, 0, 36, 47
4, 427599, Note_on_c, 0, 36, 0
4, 427599, Note_on_c, 0, 48, 47
4, 427680, Note_on_c, 0, 48, 0
4, 427680, Note_on_c, 0, 36, 47
4, 427760, Note_on_c, 0, 36, 0
4, 427760, Note_on_c, 0, 48, 47
4, 427839, Note_on_c, 0, 48, 0
4, 427839, Note_on_c, 0, 36, 47
4, 427920, Note_on_c, 0, 36, 0
4, 427920, Note_on_c, 0, 48, 47
4, 428000, Note_on_c, 0, 48, 0
4, 428000, Note_on_c, 0, 36, 47
4, 428079, Note_on_c, 0, 36, 0
4, 428079, Note_on_c, 0, 48, 47
4, 428160, Note_on_c, 0, 48, 0
4, 428160, Note_on_c, 0, 36, 47
4, 428240, Note_on_c, 0, 36, 0
4, 428240, Note_on_c, 0, 48, 47
4, 428319, Note_on_c, 0, 48, 0
4, 428319, Note_on_c, 0, 36, 47
4, 428400, Note_on_c, 0, 36, 0
4, 428400, Note_on_c, 0, 48, 47
4, 428480, Note_on_c, 0, 48, 0
4, 428480, Note_on_c, 0, 36, 47
4, 428559, Note_on_c, 0, 36, 0
4, 428559, Note_on_c, 0, 48, 47
4, 428640, Note_on_c, 0, 48, 0
4, 428640, Note_on_c, 0, 36, 47
4, 428720, Note_on_c, 0, 36, 0
4, 428720, Note_on_c, 0, 48, 47
4, 428799, Note_on_c, 0, 48, 0
4, 428799, Note_on_c, 0, 36, 47
4, 428880, Note_on_c, 0, 36, 0
4, 428880, Note_on_c, 0, 48, 47
4, 428960, Note_on_c, 0, 48, 0
4, 428960, Note_on_c, 0, 36, 47
4, 429039, Note_on_c, 0, 36, 0
4, 429039, Note_on_c, 0, 48, 47
4, 429120, Note_on_c, 0, 48, 0
4, 429120, Note_on_c, 0, 36, 47
4, 429200, Note_on_c, 0, 36, 0
4, 429200, Note_on_c, 0, 48, 47
4, 429279, Note_on_c, 0, 48, 0
4, 429279, Note_on_c, 0, 36, 47
4, 429360, Note_on_c, 0, 36, 0
4, 429360, Note_on_c, 0, 48, 47
4, 429440, Note_on_c, 0, 48, 0
4, 429440, Note_on_c, 0, 36, 47
4, 429519, Note_on_c, 0, 36, 0
4, 429519, Note_on_c, 0, 48, 47
4, 429600, Note_on_c, 0, 48, 0
4, 429600, Note_on_c, 0, 36, 47
4, 429680, Note_on_c, 0, 36, 0
4, 429680, Note_on_c, 0, 48, 47
4, 429759, Note_on_c, 0, 48, 0
4, 429759, Note_on_c, 0, 36, 47
4, 429840, Note_on_c, 0, 36, 0
4, 429840, Note_on_c, 0, 48, 47
4, 429920, Note_on_c, 0, 48, 0
4, 429920, Note_on_c, 0, 36, 47
4, 429999, Note_on_c, 0, 36, 0
4, 429999, Note_on_c, 0, 48, 47
4, 430080, Note_on_c, 0, 48, 0
4, 430080, Note_on_c, 0, 36, 47
4, 430160, Note_on_c, 0, 36, 0
4, 430160, Note_on_c, 0, 48, 47
4, 430239, Note_on_c, 0, 48, 0
4, 430239, Note_on_c, 0, 36, 47
4, 430320, Note_on_c, 0, 36, 0
4, 430320, Note_on_c, 0, 48, 47
4, 430400, Note_on_c, 0, 48, 0
4, 430400, Note_on_c, 0, 36, 47
4, 430479, Note_on_c, 0, 36, 0
4, 430479, Note_on_c, 0, 48, 47
4, 430560, Note_on_c, 0, 48, 0
4, 430560, Note_on_c, 0, 36, 47
4, 430640, Note_on_c, 0, 36, 0
4, 430640, Note_on_c, 0, 48, 47
4, 430719, Note_on_c, 0, 48, 0
4, 430719, Note_on_c, 0, 36, 47
4, 430800, Note_on_c, 0, 36, 0
4, 430800, Note_on_c, 0, 48, 47
4, 430880, Note_on_c, 0, 48, 0
4, 430880, Note_on_c, 0, 36, 47
4, 430959, Note_on_c, 0, 36, 0
4, 430959, Note_on_c, 0, 48, 47
4, 431040, Note_on_c, 0, 48, 0
4, 431040, Note_on_c, 0, 36, 47
4, 431120, Note_on_c, 0, 36, 0
4, 431120, Note_on_c, 0, 48, 47
4, 431199, Note_on_c, 0, 48, 0
4, 431199, Note_on_c, 0, 36, 47
4, 431280, Note_on_c, 0, 36, 0
4, 431280, Note_on_c, 0, 48, 47
4, 431360, Note_on_c, 0, 48, 0
4, 431360, Note_on_c, 0, 36, 47
4, 431439, Note_on_c, 0, 36, 0
4, 431439, Note_on_c, 0, 48, 47
4, 431520, Note_on_c, 0, 48, 0
4, 431520, Note_on_c, 0, 36, 47
4, 431600, Note_on_c, 0, 36, 0
4, 431600, Note_on_c, 0, 48, 47
4, 431679, Note_on_c, 0, 48, 0
4, 431679, Note_on_c, 0, 36, 47
4, 431760, Note_on_c, 0, 36, 0
4, 431760, Note_on_c, 0, 48, 47
4, 431840, Note_on_c, 0, 48, 0
4, 431840, Control_c, 0, 64, 0
4, 431840, Note_on_c, 0, 36, 47
4, 431919, Note_on_c, 0, 36, 0
4, 431919, Note_on_c, 0, 48, 47
4, 432000, Note_on_c, 0, 48, 0
4, 432000, Control_c, 0, 64, 127
4, 432000, Note_on_c, 0, 36, 47
4, 432080, Note_on_c, 0, 36, 0
4, 432080, Note_on_c, 0, 48, 47
4, 432159, Note_on_c, 0, 48, 0
4, 432159, Note_on_c, 0, 36, 47
4, 432240, Note_on_c, 0, 36, 0
4, 432240, Note_on_c, 0, 48, 47
4, 432320, Note_on_c, 0, 48, 0
4, 432320, Note_on_c, 0, 36, 47
4, 432399, Note_on_c, 0, 36, 0
4, 432399, Note_on_c, 0, 48, 47
4, 432480, Note_on_c, 0, 48, 0
4, 432480, Note_on_c, 0, 36, 47
4, 432560, Note_on_c, 0, 36, 0
4, 432560, Note_on_c, 0, 48, 47
4, 432639, Note_on_c, 0, 48, 0
4, 432639, Note_on_c, 0, 36, 47
4, 432720, Note_on_c, 0, 36, 0
4, 432720, Note_on_c, 0, 48, 47
4, 432800, Note_on_c, 0, 48, 0
4, 432800, Note_on_c, 0, 36, 47
4, 432879, Note_on_c, 0, 36, 0
4, 432879, Note_on_c, 0, 48, 47
4, 432960, Note_on_c, 0, 48, 0
4, 432960, Note_on_c, 0, 36, 47
4, 433040, Note_on_c, 0, 36, 0
4, 433040, Note_on_c, 0, 48, 47
4, 433119, Note_on_c, 0, 48, 0
4, 433119, Note_on_c, 0, 36, 47
4, 433200, Note_on_c, 0, 36, 0
4, 433200, Note_on_c, 0, 48, 47
4, 433280, Note_on_c, 0, 48, 0
4, 433280, Note_on_c, 0, 36, 47
4, 433359, Note_on_c, 0, 36, 0
4, 433359, Note_on_c, 0, 48, 47
4, 433440, Note_on_c, 0, 48, 0
4, 433440, Note_on_c, 0, 36, 47
4, 433520, Note_on_c, 0, 36, 0
4, 433520, Note_on_c, 0, 48, 47
4, 433599, Note_on_c, 0, 48, 0
4, 433599, Note_on_c, 0, 36, 47
4, 433680, Note_on_c, 0, 36, 0
4, 433680, Note_on_c, 0, 48, 47
4, 433760, Note_on_c, 0, 48, 0
4, 433760, Note_on_c, 0, 36, 47
4, 433839, Note_on_c, 0, 36, 0
4, 433839, Note_on_c, 0, 48, 47
4, 433920, Note_on_c, 0, 48, 0
4, 433920, Note_on_c, 0, 36, 47
4, 434000, Note_on_c, 0, 36, 0
4, 434000, Note_on_c, 0, 48, 47
4, 434079, Note_on_c, 0, 48, 0
4, 434079, Note_on_c, 0, 36, 47
4, 434160, Note_on_c, 0, 36, 0
4, 434160, Note_on_c, 0, 48, 47
4, 434240, Note_on_c, 0, 48, 0
4, 434240, Note_on_c, 0, 36, 47
4, 434319, Note_on_c, 0, 36, 0
4, 434319, Note_on_c, 0, 48, 47
4, 434400, Note_on_c, 0, 48, 0
4, 434400, Note_on_c, 0, 36, 47
4, 434480, Note_on_c, 0, 36, 0
4, 434480, Note_on_c, 0, 48, 47
4, 434559, Note_on_c, 0, 48, 0
4, 434559, Note_on_c, 0, 36, 47
4, 434640, Note_on_c, 0, 36, 0
4, 434640, Note_on_c, 0, 48, 47
4, 434720, Note_on_c, 0, 48, 0
4, 434720, Note_on_c, 0, 36, 47
4, 434799, Note_on_c, 0, 36, 0
4, 434799, Note_on_c, 0, 48, 47
4, 434880, Note_on_c, 0, 48, 0
4, 434880, Note_on_c, 0, 36, 47
4, 434960, Note_on_c, 0, 36, 0
4, 434960, Note_on_c, 0, 48, 47
4, 435039, Note_on_c, 0, 48, 0
4, 435039, Note_on_c, 0, 36, 47
4, 435120, Note_on_c, 0, 36, 0
4, 435120, Note_on_c, 0, 48, 47
4, 435200, Note_on_c, 0, 48, 0
4, 435200, Note_on_c, 0, 36, 47
4, 435279, Note_on_c, 0, 36, 0
4, 435279, Note_on_c, 0, 48, 47
4, 435360, Note_on_c, 0, 48, 0
4, 435360, Note_on_c, 0, 36, 47
4, 435440, Note_on_c, 0, 36, 0
4, 435440, Note_on_c, 0, 48, 47
4, 435519, Note_on_c, 0, 48, 0
4, 435519, Note_on_c, 0, 36, 47
4, 435600, Note_on_c, 0, 36, 0
4, 435600, Note_on_c, 0, 48, 47
4, 435680, Note_on_c, 0, 48, 0
4, 435680, Note_on_c, 0, 36, 47
4, 435759, Note_on_c, 0, 36, 0
4, 435759, Note_on_c, 0, 48, 47
4, 435840, Note_on_c, 0, 48, 0
4, 435840, Note_on_c, 0, 36, 47
4, 435920, Note_on_c, 0, 36, 0
4, 435920, Note_on_c, 0, 48, 47
4, 435999, Note_on_c, 0, 48, 0
4, 435999, Note_on_c, 0, 36, 47
4, 436080, Note_on_c, 0, 36, 0
4, 436080, Note_on_c, 0, 48, 47
4, 436160, Note_on_c, 0, 48, 0
4, 436160, Note_on_c, 0, 36, 47
4, 436239, Note_on_c, 0, 36, 0
4, 436239, Note_on_c, 0, 48, 47
4, 436320, Note_on_c, 0, 48, 0
4, 436320, Note_on_c, 0, 36, 47
4, 436400, Note_on_c, 0, 36, 0
4, 436400, Note_on_c, 0, 48, 47
4, 436479, Note_on_c, 0, 48, 0
4, 436479, Note_on_c, 0, 36, 47
4, 436560, Note_on_c, 0, 36, 0
4, 436560, Note_on_c, 0, 48, 47
4, 436640, Note_on_c, 0, 48, 0
4, 436640, Note_on_c, 0, 36, 47
4, 436719, Note_on_c, 0, 36, 0
4, 436719, Note_on_c, 0, 48, 47
4, 436800, Note_on_c, 0, 48, 0
4, 436800, Note_on_c, 0, 36, 47
4, 436880, Note_on_c, 0, 36, 0
4, 436880, Note_on_c, 0, 48, 47
4, 436959, Note_on_c, 0, 48, 0
4, 436959, Note_on_c, 0, 36, 47
4, 437040, Note_on_c, 0, 36, 0
4, 437040, Note_on_c, 0, 48, 47
4, 437120, Note_on_c, 0, 48, 0
4, 437120, Note_on_c, 0, 36, 47
4, 437199, Note_on_c, 0, 36, 0
4, 437199, Note_on_c, 0, 48, 47
4, 437280, Note_on_c, 0, 48, 0
4, 437280, Note_on_c, 0, 36, 47
4, 437360, Note_on_c, 0, 36, 0
4, 437360, Note_on_c, 0, 48, 47
4, 437439, Note_on_c, 0, 48, 0
4, 437439, Note_on_c, 0, 36, 47
4, 437520, Note_on_c, 0, 36, 0
4, 437520, Note_on_c, 0, 48, 47
4, 437600, Note_on_c, 0, 48, 0
4, 437600, Note_on_c, 0, 36, 47
4, 437679, Note_on_c, 0, 36, 0
4, 437679, Note_on_c, 0, 48, 47
4, 437760, Note_on_c, 0, 48, 0
4, 437760, Note_on_c, 0, 36, 47
4, 437840, Note_on_c, 0, 36, 0
4, 437840, Note_on_c, 0, 48, 47
4, 437919, Note_on_c, 0, 48, 0
4, 437919, Note_on_c, 0, 36, 47
4, 438000, Note_on_c, 0, 36, 0
4, 438000, Note_on_c, 0, 48, 47
4, 438080, Note_on_c, 0, 48, 0
4, 438080, Note_on_c, 0, 36, 47
4, 438159, Note_on_c, 0, 36, 0
4, 438159, Note_on_c, 0, 48, 47
4, 438240, Note_on_c, 0, 48, 0
4, 438240, Note_on_c, 0, 36, 47
4, 438320, Note_on_c, 0, 36, 0
4, 438320, Note_on_c, 0, 48, 47
4, 438399, Note_on_c, 0, 48, 0
4, 438399, Note_on_c, 0, 36, 47
4, 438480, Note_on_c, 0, 36, 0
4, 438480, Note_on_c, 0, 48, 47
4, 438560, Note_on_c, 0, 48, 0
4, 438560, Note_on_c, 0, 36, 47
4, 438639, Note_on_c, 0, 36, 0
4, 438639, Note_on_c, 0, 48, 47
4, 438720, Note_on_c, 0, 48, 0
4, 438720, Note_on_c, 0, 36, 47
4, 438800, Note_on_c, 0, 36, 0
4, 438800, Note_on_c, 0, 48, 47
4, 438879, Note_on_c, 0, 48, 0
4, 438879, Note_on_c, 0, 36, 47
4, 438960, Note_on_c, 0, 36, 0
4, 438960, Note_on_c, 0, 48, 47
4, 439040, Note_on_c, 0, 48, 0
4, 439040, Note_on_c, 0, 36, 47
4, 439119, Note_on_c, 0, 36, 0
4, 439119, Note_on_c, 0, 48, 47
4, 439200, Note_on_c, 0, 48, 0
4, 439200, Note_on_c, 0, 36, 47
4, 439280, Note_on_c, 0, 36, 0
4, 439280, Note_on_c, 0, 48, 47
4, 439359, Note_on_c, 0, 48, 0
4, 439359, Note_on_c, 0, 36, 47
4, 439440, Note_on_c, 0, 36, 0
4, 439440, Note_on_c, 0, 48, 47
4, 439520, Note_on_c, 0, 48, 0
4, 439520, Control_c, 0, 64, 0
4, 439520, Note_on_c, 0, 36, 47
4, 439599, Note_on_c, 0, 36, 0
4, 439599, Note_on_c, 0, 48, 47
4, 439680, Note_on_c, 0, 48, 0
4, 439680, Control_c, 0, 64, 127
4, 439680, Note_on_c, 0, 36, 47
4, 439760, Note_on_c, 0, 36, 0
4, 439760, Note_on_c, 0, 48, 47
4, 439839, Note_on_c, 0, 48, 0
4, 439839, Note_on_c, 0, 36, 47
4, 439920, Note_on_c, 0, 36, 0
4, 439920, Note_on_c, 0, 48, 47
4, 440000, Note_on_c, 0, 48, 0
4, 440000, Note_on_c, 0, 36, 47
4, 440079, Note_on_c, 0, 36, 0
4, 440079, Note_on_c, 0, 48, 47
4, 440160, Note_on_c, 0, 48, 0
4, 440160, Note_on_c, 0, 36, 47
4, 440240, Note_on_c, 0, 36, 0
4, 440240, Note_on_c, 0, 48, 47
4, 440319, Note_on_c, 0, 48, 0
4, 440319, Note_on_c, 0, 36, 47
4, 440400, Note_on_c, 0, 36, 0
4, 440400, Note_on_c, 0, 48, 47
4, 440480, Note_on_c, 0, 48, 0
4, 440480, Note_on_c, 0, 36, 47
4, 440559, Note_on_c, 0, 36, 0
4, 440559, Note_on_c, 0, 48, 47
4, 440640, Note_on_c, 0, 48, 0
4, 440640, Note_on_c, 0, 36, 47
4, 440720, Note_on_c, 0, 36, 0
4, 440720, Note_on_c, 0, 48, 47
4, 440799, Note_on_c, 0, 48, 0
4, 440799, Note_on_c, 0, 36, 47
4, 440880, Note_on_c, 0, 36, 0
4, 440880, Note_on_c, 0, 48, 47
4, 440960, Note_on_c, 0, 48, 0
4, 440960, Note_on_c, 0, 36, 47
4, 441039, Note_on_c, 0, 36, 0
4, 441039, Note_on_c, 0, 48, 47
4, 441120, Note_on_c, 0, 48, 0
4, 441120, Note_on_c, 0, 36, 47
4, 441200, Note_on_c, 0, 36, 0
4, 441200, Note_on_c, 0, 48, 47
4, 441279, Note_on_c, 0, 48, 0
4, 441279, Note_on_c, 0, 36, 47
4, 441360, Note_on_c, 0, 36, 0
4, 441360, Note_on_c, 0, 48, 47
4, 441440, Note_on_c, 0, 48, 0
4, 441440, Note_on_c, 0, 36, 47
4, 441519, Note_on_c, 0, 36, 0
4, 441519, Note_on_c, 0, 48, 47
4, 441600, Note_on_c, 0, 48, 0
4, 441600, Note_on_c, 0, 36, 47
4, 441680, Note_on_c, 0, 36, 0
4, 441680, Note_on_c, 0, 48, 47
4, 441759, Note_on_c, 0, 48, 0
4, 441759, Note_on_c, 0, 36, 47
4, 441840, Note_on_c, 0, 36, 0
4, 441840, Note_on_c, 0, 48, 47
4, 441920, Note_on_c, 0, 48, 0
4, 441920, Note_on_c, 0, 36, 47
4, 441999, Note_on_c, 0, 36, 0
4, 441999, Note_on_c, 0, 48, 47
4, 442080, Note_on_c, 0, 48, 0
4, 442080, Note_on_c, 0, 36, 47
4, 442160, Note_on_c, 0, 36, 0
4, 442160, Note_on_c, 0, 48, 47
4, 442239, Note_on_c, 0, 48, 0
4, 442239, Note_on_c, 0, 36, 47
4, 442320, Note_on_c, 0, 36, 0
4, 442320, Note_on_c, 0, 48, 47
4, 442400, Note_on_c, 0, 48, 0
4, 442400, Note_on_c, 0, 36, 47
4, 442479, Note_on_c, 0, 36, 0
4, 442479, Note_on_c, 0, 48, 47
4, 442560, Note_on_c, 0, 48, 0
4, 442560, Note_on_c, 0, 36, 47
4, 442640, Note_on_c, 0, 36, 0
4, 442640, Note_on_c, 0, 48, 47
4, 442719, Note_on_c, 0, 48, 0
4, 442719, Note_on_c, 0, 36, 47
4, 442800, Note_on_c, 0, 36, 0
4, 442800, Note_on_c, 0, 48, 47
4, 442880, Note_on_c, 0, 48, 0
4, 442880, Note_on_c, 0, 36, 47
4, 442959, Note_on_c, 0, 36, 0
4, 442959, Note_on_c, 0, 48, 47
4, 443040, Note_on_c, 0, 48, 0
4, 443040, Note_on_c, 0, 36, 47
4, 443120, Note_on_c, 0, 36, 0
4, 443120, Note_on_c, 0, 48, 47
4, 443199, Note_on_c, 0, 48, 0
4, 443199, Note_on_c, 0, 36, 47
4, 443280, Note_on_c, 0, 36, 0
4, 443280, Note_on_c, 0, 48, 47
4, 443360, Note_on_c, 0, 48, 0
4, 443360, Note_on_c, 0, 36, 47
4, 443439, Note_on_c, 0, 36, 0
4, 443439, Note_on_c, 0, 48, 47
4, 443520, Note_on_c, 0, 48, 0
4, 443520, Note_on_c, 0, 36, 47
4, 443600, Note_on_c, 0, 36, 0
4, 443600, Note_on_c, 0, 48, 47
4, 443679, Note_on_c, 0, 48, 0
4, 443679, Note_on_c, 0, 36, 47
4, 443760, Note_on_c, 0, 36, 0
4, 443760, Note_on_c, 0, 48, 47
4, 443840, Note_on_c, 0, 48, 0
4, 443840, Note_on_c, 0, 36, 47
4, 443919, Note_on_c, 0, 36, 0
4, 443919, Note_on_c, 0, 48, 47
4, 444000, Note_on_c, 0, 48, 0
4, 444000, Note_on_c, 0, 36, 47
4, 444080, Note_on_c, 0, 36, 0
4, 444080, Note_on_c, 0, 48, 47
4, 444159, Note_on_c, 0, 48, 0
4, 444159, Note_on_c, 0, 36, 47
4, 444240, Note_on_c, 0, 36, 0
4, 444240, Note_on_c, 0, 48, 47
4, 444320, Note_on_c, 0, 48, 0
4, 444320, Note_on_c, 0, 36, 47
4, 444399, Note_on_c, 0, 36, 0
4, 444399, Note_on_c, 0, 48, 47
4, 444480, Note_on_c, 0, 48, 0
4, 444480, Note_on_c, 0, 36, 47
4, 444560, Note_on_c, 0, 36, 0
4, 444560, Note_on_c, 0, 48, 47
4, 444639, Note_on_c, 0, 48, 0
4, 444639, Note_on_c, 0, 36, 47
4, 444720, Note_on_c, 0, 36, 0
4, 444720, Note_on_c, 0, 48, 47
4, 444800, Note_on_c, 0, 48, 0
4, 444800, Note_on_c, 0, 36, 47
4, 444879, Note_on_c, 0, 36, 0
4, 444879, Note_on_c, 0, 48, 47
4, 444960, Note_on_c, 0, 48, 0
4, 444960, Note_on_c, 0, 36, 47
4, 445040, Note_on_c, 0, 36, 0
4, 445040, Note_on_c, 0, 48, 47
4, 445119, Note_on_c, 0, 48, 0
4, 445119, Note_on_c, 0, 36, 47
4, 445200, Note_on_c, 0, 36, 0
4, 445200, Note_on_c, 0, 48, 47
4, 445280, Note_on_c, 0, 48, 0
4, 445280, Note_on_c, 0, 36, 47
4, 445359, Note_on_c, 0, 36, 0
4, 445359, Note_on_c, 0, 48, 47
4, 445440, Note_on_c, 0, 48, 0
4, 445440, Note_on_c, 0, 36, 60
4, 445520, Note_on_c, 0, 36, 0
4, 445520, Note_on_c, 0, 48, 60
4, 445599, Note_on_c, 0, 48, 0
4, 445599, Note_on_c, 0, 36, 60
4, 445680, Note_on_c, 0, 36, 0
4, 445680, Note_on_c, 0, 48, 60
4, 445760, Note_on_c, 0, 48, 0
4, 445760, Note_on_c, 0, 36, 60
4, 445839, Note_on_c, 0, 36, 0
4, 445839, Note_on_c, 0, 48, 60
4, 445920, Note_on_c, 0, 48, 0
4, 445920, Note_on_c, 0, 36, 60
4, 446000, Note_on_c, 0, 36, 0
4, 446000, Note_on_c, 0, 48, 60
4, 446079, Note_on_c, 0, 48, 0
4, 446079, Note_on_c, 0, 36, 60
4, 446160, Note_on_c, 0, 36, 0
4, 446160, Note_on_c, 0, 48, 60
4, 446240, Note_on_c, 0, 48, 0
4, 446240, Note_on_c, 0, 36, 60
4, 446319, Note_on_c, 0, 36, 0
4, 446319, Note_on_c, 0, 48, 60
4, 446400, Note_on_c, 0, 48, 0
4, 446400, Note_on_c, 0, 36, 60
4, 446480, Note_on_c, 0, 36, 0
4, 446480, Note_on_c, 0, 48, 60
4, 446559, Note_on_c, 0, 48, 0
4, 446559, Note_on_c, 0, 36, 60
4, 446640, Note_on_c, 0, 36, 0
4, 446640, Note_on_c, 0, 48, 60
4, 446720, Note_on_c, 0, 48, 0
4, 446720, Note_on_c, 0, 36, 60
4, 446799, Note_on_c, 0, 36, 0
4, 446799, Note_on_c, 0, 48, 60
4, 446880, Note_on_c, 0, 48, 0
4, 446880, Note_on_c, 0, 36, 60
4, 446960, Note_on_c, 0, 36, 0
4, 446960, Note_on_c, 0, 48, 60
4, 447039, Note_on_c, 0, 48, 0
4, 447039, Note_on_c, 0, 36, 60
4, 447120, Note_on_c, 0, 36, 0
4, 447120, Note_on_c, 0, 48, 60
4, 447200, Note_on_c, 0, 48, 0
4, 447200, Control_c, 0, 64, 0
4, 447200, Note_on_c, 0, 36, 60
4, 447279, Note_on_c, 0, 36, 0
4, 447279, Note_on_c, 0, 48, 60
4, 447360, Note_on_c, 0, 48, 0
4, 447360, Control_c, 0, 64, 127
4, 447360, Note_on_c, 0, 36, 60
4, 447440, Note_on_c, 0, 36, 0
4, 447440, Note_on_c, 0, 48, 60
4, 447519, Note_on_c, 0, 48, 0
4, 447519, Note_on_c, 0, 36, 60
4, 447600, Note_on_c, 0, 36, 0
4, 447600, Note_on_c, 0, 48, 60
4, 447680, Note_on_c, 0, 48, 0
4, 447680, Note_on_c, 0, 36, 60
4, 447759, Note_on_c, 0, 36, 0
4, 447759, Note_on_c, 0, 48, 60
4, 447840, Note_on_c, 0, 48, 0
4, 447840, Note_on_c, 0, 36, 60
4, 447920, Note_on_c, 0, 36, 0
4, 447920, Note_on_c, 0, 48, 60
4, 447999, Note_on_c, 0, 48, 0
4, 447999, Note_on_c, 0, 36, 60
4, 448080, Note_on_c, 0, 36, 0
4, 448080, Note_on_c, 0, 48, 60
4, 448160, Note_on_c, 0, 48, 0
4, 448160, Note_on_c, 0, 36, 60
4, 448239, Note_on_c, 0, 36, 0
4, 448239, Note_on_c, 0, 48, 60
4, 448320, Note_on_c, 0, 48, 0
4, 448320, Note_on_c, 0, 36, 60
4, 448400, Note_on_c, 0, 36, 0
4, 448400, Note_on_c, 0, 48, 60
4, 448479, Note_on_c, 0, 48, 0
4, 448479, Note_on_c, 0, 36, 60
4, 448560, Note_on_c, 0, 36, 0
4, 448560, Note_on_c, 0, 48, 60
4, 448640, Note_on_c, 0, 48, 0
4, 448640, Note_on_c, 0, 36, 60
4, 448719, Note_on_c, 0, 36, 0
4, 448719, Note_on_c, 0, 48, 60
4, 448800, Note_on_c, 0, 48, 0
4, 448800, Note_on_c, 0, 36, 60
4, 448880, Note_on_c, 0, 36, 0
4, 448880, Note_on_c, 0, 48, 60
4, 448959, Note_on_c, 0, 48, 0
4, 448959, Note_on_c, 0, 36, 60
4, 449040, Note_on_c, 0, 36, 0
4, 449040, Note_on_c, 0, 48, 60
4, 449120, Note_on_c, 0, 48, 0
4, 449120, Note_on_c, 0, 36, 60
4, 449199, Note_on_c, 0, 36, 0
4, 449199, Note_on_c, 0, 48, 60
4, 449280, Note_on_c, 0, 48, 0
4, 449280, Note_on_c, 0, 36, 60
4, 449360, Note_on_c, 0, 36, 0
4, 449360, Note_on_c, 0, 48, 60
4, 449439, Note_on_c, 0, 48, 0
4, 449439, Note_on_c, 0, 36, 60
4, 449520, Note_on_c, 0, 36, 0
4, 449520, Note_on_c, 0, 48, 60
4, 449600, Note_on_c, 0, 48, 0
4, 449600, Note_on_c, 0, 36, 60
4, 449679, Note_on_c, 0, 36, 0
4, 449679, Note_on_c, 0, 48, 60
4, 449760, Note_on_c, 0, 48, 0
4, 449760, Note_on_c, 0, 36, 60
4, 449840, Note_on_c, 0, 36, 0
4, 449840, Note_on_c, 0, 48, 60
4, 449919, Note_on_c, 0, 48, 0
4, 449919, Note_on_c, 0, 36, 60
4, 450000, Note_on_c, 0, 36, 0
4, 450000, Note_on_c, 0, 48, 60
4, 450080, Note_on_c, 0, 48, 0
4, 450080, Note_on_c, 0, 36, 60
4, 450159, Note_on_c, 0, 36, 0
4, 450159, Note_on_c, 0, 48, 60
4, 450240, Note_on_c, 0, 48, 0
4, 450240, Note_on_c, 0, 36, 60
4, 450320, Note_on_c, 0, 36, 0
4, 450320, Note_on_c, 0, 48, 60
4, 450399, Note_on_c, 0, 48, 0
4, 450399, Note_on_c, 0, 36, 60
4, 450480, Note_on_c, 0, 36, 0
4, 450480, Note_on_c, 0, 48, 60
4, 450560, Note_on_c, 0, 48, 0
4, 450560, Note_on_c, 0, 36, 60
4, 450639, Note_on_c, 0, 36, 0
4, 450639, Note_on_c, 0, 48, 60
4, 450720, Note_on_c, 0, 48, 0
4, 450720, Note_on_c, 0, 36, 60
4, 450800, Note_on_c, 0, 36, 0
4, 450800, Note_on_c, 0, 48, 60
4, 450879, Note_on_c, 0, 48, 0
4, 450879, Note_on_c, 0, 36, 60
4, 450960, Note_on_c, 0, 36, 0
4, 450960, Note_on_c, 0, 48, 60
4, 451040, Note_on_c, 0, 48, 0
4, 451040, Note_on_c, 0, 36, 60
4, 451119, Note_on_c, 0, 36, 0
4, 451119, Note_on_c, 0, 48, 60
4, 451200, Note_on_c, 0, 48, 0
4, 451200, Note_on_c, 0, 36, 60
4, 451280, Note_on_c, 0, 36, 0
4, 451280, Note_on_c, 0, 48, 60
4, 451359, Note_on_c, 0, 48, 0
4, 451359, Note_on_c, 0, 36, 60
4, 451440, Note_on_c, 0, 36, 0
4, 451440, Note_on_c, 0, 48, 60
4, 451520, Note_on_c, 0, 48, 0
4, 451520, Note_on_c, 0, 36, 60
4, 451599, Note_on_c, 0, 36, 0
4, 451599, Note_on_c, 0, 48, 60
4, 451680, Note_on_c, 0, 48, 0
4, 451680, Note_on_c, 0, 36, 60
4, 451760, Note_on_c, 0, 36, 0
4, 451760, Note_on_c, 0, 48, 60
4, 451839, Note_on_c, 0, 48, 0
4, 451839, Note_on_c, 0, 36, 60
4, 451920, Note_on_c, 0, 36, 0
4, 451920, Note_on_c, 0, 48, 60
4, 452000, Note_on_c, 0, 48, 0
4, 452000, Note_on_c, 0, 36, 60
4, 452079, Note_on_c, 0, 36, 0
4, 452079, Note_on_c, 0, 48, 60
4, 452160, Note_on_c, 0, 48, 0
4, 452160, Note_on_c, 0, 36, 60
4, 452240, Note_on_c, 0, 36, 0
4, 452240, Note_on_c, 0, 48, 60
4, 452319, Note_on_c, 0, 48, 0
4, 452319, Note_on_c, 0, 36, 60
4, 452400, Note_on_c, 0, 36, 0
4, 452400, Note_on_c, 0, 48, 60
4, 452480, Note_on_c, 0, 48, 0
4, 452480, Note_on_c, 0, 36, 60
4, 452559, Note_on_c, 0, 36, 0
4, 452559, Note_on_c, 0, 48, 60
4, 452640, Note_on_c, 0, 48, 0
4, 452640, Note_on_c, 0, 36, 60
4, 452720, Note_on_c, 0, 36, 0
4, 452720, Note_on_c, 0, 48, 60
4, 452799, Note_on_c, 0, 48, 0
4, 452799, Note_on_c, 0, 36, 60
4, 452880, Note_on_c, 0, 36, 0
4, 452880, Note_on_c, 0, 48, 60
4, 452960, Note_on_c, 0, 48, 0
4, 452960, Note_on_c, 0, 36, 60
4, 453039, Note_on_c, 0, 36, 0
4, 453039, Note_on_c, 0, 48, 60
4, 453120, Note_on_c, 0, 48, 0
4, 453120, Note_on_c, 0, 36, 60
4, 453200, Note_on_c, 0, 36, 0
4, 453200, Note_on_c, 0, 48, 60
4, 453279, Note_on_c, 0, 48, 0
4, 453279, Note_on_c, 0, 36, 60
4, 453360, Note_on_c, 0, 36, 0
4, 453360, Note_on_c, 0, 48, 60
4, 453440, Note_on_c, 0, 48, 0
4, 453440, Note_on_c, 0, 36, 60
4, 453519, Note_on_c, 0, 36, 0
4, 453519, Note_on_c, 0, 48, 60
4, 453600, Note_on_c, 0, 48, 0
4, 453600, Note_on_c, 0, 36, 60
4, 453680, Note_on_c, 0, 36, 0
4, 453680, Note_on_c, 0, 48, 60
4, 453759, Note_on_c, 0, 48, 0
4, 453759, Note_on_c, 0, 36, 60
4, 453840, Note_on_c, 0, 36, 0
4, 453840, Note_on_c, 0, 48, 60
4, 453920, Note_on_c, 0, 48, 0
4, 453920, Note_on_c, 0, 36, 60
4, 453999, Note_on_c, 0, 36, 0
4, 453999, Note_on_c, 0, 48, 60
4, 454080, Note_on_c, 0, 48, 0
4, 454080, Note_on_c, 0, 36, 60
4, 454160, Note_on_c, 0, 36, 0
4, 454160, Note_on_c, 0, 48, 60
4, 454239, Note_on_c, 0, 48, 0
4, 454239, Note_on_c, 0, 36, 60
4, 454320, Note_on_c, 0, 36, 0
4, 454320, Note_on_c, 0, 48, 60
4, 454400, Note_on_c, 0, 48, 0
4, 454400, Note_on_c, 0, 36, 60
4, 454479, Note_on_c, 0, 36, 0
4, 454479, Note_on_c, 0, 48, 60
4, 454560, Note_on_c, 0, 48, 0
4, 454560, Note_on_c, 0, 36, 60
4, 454640, Note_on_c, 0, 36, 0
4, 454640, Note_on_c, 0, 48, 60
4, 454719, Note_on_c, 0, 48, 0
4, 454719, Note_on_c, 0, 36, 60
4, 454800, Note_on_c, 0, 36, 0
4, 454800, Note_on_c, 0, 48, 60
4, 454880, Note_on_c, 0, 48, 0
4, 454880, Note_on_c, 0, 36, 60
4, 454959, Note_on_c, 0, 36, 0
4, 454959, Note_on_c, 0, 48, 60
4, 455040, Note_on_c, 0, 48, 0
4, 455040, Note_on_c, 0, 36, 60
4, 455120, Note_on_c, 0, 36, 0
4, 455120, Note_on_c, 0, 48, 60
4, 455199, Note_on_c, 0, 48, 0
4, 455199, Note_on_c, 0, 36, 60
4, 455280, Note_on_c, 0, 36, 0
4, 455280, Note_on_c, 0, 48, 60
4, 455360, Note_on_c, 0, 48, 0
4, 455360, Note_on_c, 0, 36, 60
4, 455439, Note_on_c, 0, 36, 0
4, 455439, Note_on_c, 0, 48, 60
4, 455520, Note_on_c, 0, 48, 0
4, 455520, Note_on_c, 0, 36, 60
4, 455600, Note_on_c, 0, 36, 0
4, 455600, Note_on_c, 0, 48, 60
4, 455679, Note_on_c, 0, 48, 0
4, 455679, Note_on_c, 0, 36, 60
4, 455760, Note_on_c, 0, 36, 0
4, 455760, Note_on_c, 0, 48, 60
4, 455840, Note_on_c, 0, 48, 0
4, 455840, Note_on_c, 0, 36, 60
4, 455919, Note_on_c, 0, 36, 0
4, 455919, Note_on_c, 0, 48, 60
4, 456000, Note_on_c, 0, 48, 0
4, 456000, Note_on_c, 0, 36, 60
4, 456080, Note_on_c, 0, 36, 0
4, 456080, Note_on_c, 0, 48, 60
4, 456159, Note_on_c, 0, 48, 0
4, 456159, Note_on_c, 0, 36, 60
4, 456240, Note_on_c, 0, 36, 0
4, 456240, Note_on_c, 0, 48, 60
4, 456320, Note_on_c, 0, 48, 0
4, 456320, Note_on_c, 0, 36, 60
4, 456399, Note_on_c, 0, 36, 0
4, 456399, Note_on_c, 0, 48, 60
4, 456480, Note_on_c, 0, 48, 0
4, 456480, Note_on_c, 0, 36, 60
4, 456560, Note_on_c, 0, 36, 0
4, 456560, Note_on_c, 0, 48, 60
4, 456639, Note_on_c, 0, 48, 0
4, 456639, Note_on_c, 0, 36, 60
4, 456720, Note_on_c, 0, 36, 0
4, 456720, Note_on_c, 0, 48, 60
4, 456800, Note_on_c, 0, 48, 0
4, 456800, Control_c, 0, 64, 0
4, 456800, Note_on_c, 0, 36, 60
4, 456879, Note_on_c, 0, 36, 0
4, 456879, Note_on_c, 0, 48, 60
4, 456960, Note_on_c, 0, 48, 0
4, 456960, Note_on_c, 0, 52, 86
4, 457080, Note_on_c, 0, 52, 0
4, 457080, Note_on_c, 0, 50, 86
4, 457200, Note_on_c, 0, 50, 0
4, 457200, Note_on_c, 0, 48, 86
4, 457320, Note_on_c, 0, 48, 0
4, 457320, Note_on_c, 0, 46, 86
4, 457440, Note_on_c, 0, 46, 0
4, 457440, Note_on_c, 0, 45, 86
4, 457560, Note_on_c, 0, 45, 0
4, 457560, Note_on_c, 0, 43, 86
4, 457680, Note_on_c, 0, 43, 0
4, 457680, Note_on_c, 0, 41, 86
4, 457800, Note_on_c, 0, 41, 0
4, 457800, Note_on_c, 0, 40, 86
4, 457920, Note_on_c, 0, 40, 0
4, 457920, Note_on_c, 0, 55, 86
4, 458040, Note_on_c, 0, 55, 0
4, 458040, Note_on_c, 0, 53, 86
4, 458160, Note_on_c, 0, 53, 0
4, 458160, Note_on_c, 0, 52, 86
4, 458280, Note_on_c, 0, 52, 0
4, 458280, Note_on_c, 0, 50, 86
4, 458400, Note_on_c, 0, 50, 0
4, 458400, Note_on_c, 0, 48, 86
4, 458520, Note_on_c, 0, 48, 0
4, 458520, Note_on_c, 0, 46, 86
4, 458640, Note_on_c, 0, 46, 0
4, 458640, Note_on_c, 0, 45, 86
4, 458760, Note_on_c, 0, 45, 0
4, 458760, Note_on_c, 0, 43, 86
4, 458880, Note_on_c, 0, 43, 0
4, 458880, Note_on_c, 0, 58, 86
4, 459000, Note_on_c, 0, 58, 0
4, 459000, Note_on_c, 0, 57, 86
4, 459120, Note_on_c, 0, 57, 0
4, 459120, Note_on_c, 0, 55, 86
4, 459240, Note_on_c, 0, 55, 0
4, 459240, Note_on_c, 0, 53, 86
4, 459360, Note_on_c, 0, 53, 0
4, 459360, Note_on_c, 0, 52, 86
4, 459480, Note_on_c, 0, 52, 0
4, 459480, Note_on_c, 0, 50, 86
4, 459600, Note_on_c, 0, 50, 0
4, 459600, Note_on_c, 0, 48, 86
4, 459720, Note_on_c, 0, 48, 0
4, 459720, Note_on_c, 0, 46, 86
4, 459840, Note_on_c, 0, 46, 0
4, 459840, Note_on_c, 0, 64, 86
4, 459960, Note_on_c, 0, 64, 0
4, 459960, Note_on_c, 0, 62, 86
4, 460080, Note_on_c, 0, 62, 0
4, 460080, Note_on_c, 0, 60, 86
4, 460200, Note_on_c, 0, 60, 0
4, 460200, Note_on_c, 0, 58, 86
4, 460320, Note_on_c, 0, 58, 0
4, 460320, Note_on_c, 0, 57, 86
4, 460440, Note_on_c, 0, 57, 0
4, 460440, Note_on_c, 0, 55, 86
4, 460560, Note_on_c, 0, 55, 0
4, 460560, Note_on_c, 0, 53, 86
4, 460680, Note_on_c, 0, 53, 0
4, 460680, Note_on_c, 0, 52, 86
4, 460800, Note_on_c, 0, 52, 0
4, 460800, Note_on_c, 0, 67, 86
4, 460920, Note_on_c, 0, 67, 0
4, 460920, Note_on_c, 0, 65, 86
4, 461040, Note_on_c, 0, 65, 0
4, 461040, Note_on_c, 0, 64, 86
4, 461160, Note_on_c, 0, 64, 0
4, 461160, Note_on_c, 0, 62, 86
4, 461280, Note_on_c, 0, 62, 0
4, 461280, Note_on_c, 0, 60, 86
4, 461400, Note_on_c, 0, 60, 0
4, 461400, Note_on_c, 0, 58, 86
4, 461520, Note_on_c, 0, 58, 0
4, 461520, Note_on_c, 0, 57, 86
4, 461640, Note_on_c, 0, 57, 0
4, 461640, Note_on_c, 0, 55, 86
4, 461760, Note_on_c, 0, 55, 0
4, 461760, Note_on_c, 0, 70, 86
4, 461880, Note_on_c, 0, 70, 0
4, 461880, Note_on_c, 0, 69, 86
4, 462000, Note_on_c, 0, 69, 0
4, 462000, Note_on_c, 0, 67, 86
4, 462120, Note_on_c, 0, 67, 0
4, 462120, Note_on_c, 0, 65, 86
4, 462240, Note_on_c, 0, 65, 0
4, 462240, Note_on_c, 0, 64, 86
4, 462360, Note_on_c, 0, 64, 0
4, 462360, Note_on_c, 0, 62, 86
4, 462480, Note_on_c, 0, 62, 0
4, 462480, Note_on_c, 0, 60, 86
4, 462600, Note_on_c, 0, 60, 0
4, 462600, Note_on_c, 0, 58, 86
4, 462720, Note_on_c, 0, 58, 0
4, 462720, Note_on_c, 0, 57, 86
4, 462840, Note_on_c, 0, 57, 0
4, 462840, Note_on_c, 0, 55, 86
4, 462960, Note_on_c, 0, 55, 0
4, 462960, Note_on_c, 0, 53, 86
4, 463080, Note_on_c, 0, 53, 0
4, 463080, Note_on_c, 0, 52, 86
4, 463200, Note_on_c, 0, 52, 0
4, 463200, Note_on_c, 0, 50, 86
4, 463320, Note_on_c, 0, 50, 0
4, 463320, Note_on_c, 0, 48, 86
4, 463440, Note_on_c, 0, 48, 0
4, 463440, Note_on_c, 0, 50, 86
4, 463560, Note_on_c, 0, 50, 0
4, 463560, Note_on_c, 0, 52, 86
4, 463680, Note_on_c, 0, 52, 0
4, 463680, Note_on_c, 0, 53, 86
4, 463800, Note_on_c, 0, 53, 0
4, 463800, Note_on_c, 0, 55, 86
4, 463920, Note_on_c, 0, 55, 0
4, 463920, Note_on_c, 0, 57, 86
4, 464040, Note_on_c, 0, 57, 0
4, 464040, Note_on_c, 0, 58, 86
4, 464160, Note_on_c, 0, 58, 0
4, 464160, Note_on_c, 0, 59, 86
4, 464280, Note_on_c, 0, 59, 0
4, 464280, Note_on_c, 0, 60, 86
4, 464400, Note_on_c, 0, 60, 0
4, 464400, Note_on_c, 0, 62, 86
4, 464520, Note_on_c, 0, 62, 0
4, 464520, Note_on_c, 0, 64, 86
4, 464640, Note_on_c, 0, 64, 0
4, 464640, Note_on_c, 0, 65, 86
4, 465600, Note_on_c, 0, 65, 0
4, 465600, Note_on_c, 0, 64, 86
4, 466320, Note_on_c, 0, 64, 0
4, 466320, Note_on_c, 0, 50, 86
4, 466320, Note_on_c, 0, 62, 86
4, 466560, Note_on_c, 0, 62, 0
4, 466560, Note_on_c, 0, 50, 0
4, 466560, Note_on_c, 0, 48, 86
4, 466560, Note_on_c, 0, 53, 86
4, 466560, Note_on_c, 0, 57, 86
4, 466560, Note_on_c, 0, 60, 86
4, 466680, Note_on_c, 0, 60, 0
4, 466680, Note_on_c, 0, 48, 0
4, 466680, Note_on_c, 0, 53, 0
4, 466680, Note_on_c, 0, 57, 0
4, 466680, Note_on_c, 0, 57, 86
4, 466800, Note_on_c, 0, 57, 0
4, 466800, Note_on_c, 0, 60, 86
4, 466920, Note_on_c, 0, 60, 0
4, 466920, Note_on_c, 0, 62, 86
4, 467040, Note_on_c, 0, 62, 0
4, 467040, Note_on_c, 0, 64, 86
4, 467160, Note_on_c, 0, 64, 0
4, 467160, Note_on_c, 0, 62, 86
4, 467280, Note_on_c, 0, 62, 0
4, 467280, Note_on_c, 0, 60, 86
4, 467400, Note_on_c, 0, 60, 0
4, 467400, Note_on_c, 0, 58, 86
4, 467520, Note_on_c, 0, 58, 0
4, 467520, Note_on_c, 0, 57, 86
4, 467640, Note_on_c, 0, 57, 0
4, 467640, Note_on_c, 0, 53, 86
4, 467760, Note_on_c, 0, 53, 0
4, 467760, Note_on_c, 0, 57, 86
4, 467880, Note_on_c, 0, 57, 0
4, 467880, Note_on_c, 0, 58, 86
4, 468000, Note_on_c, 0, 58, 0
4, 468000, Note_on_c, 0, 60, 86
4, 468120, Note_on_c, 0, 60, 0
4, 468120, Note_on_c, 0, 58, 86
4, 468240, Note_on_c, 0, 58, 0
4, 468240, Note_on_c, 0, 57, 86
4, 468360, Note_on_c, 0, 57, 0
4, 468360, Note_on_c, 0, 55, 86
4, 468480, Note_on_c, 0, 55, 0
4, 468480, Note_on_c, 0, 57, 86
4, 468600, Note_on_c, 0, 57, 0
4, 468600, Note_on_c, 0, 55, 86
4, 468720, Note_on_c, 0, 55, 0
4, 468720, Note_on_c, 0, 53, 86
4, 468840, Note_on_c, 0, 53, 0
4, 468840, Note_on_c, 0, 52, 86
4, 468960, Note_on_c, 0, 52, 0
4, 468960, Note_on_c, 0, 53, 86
4, 469080, Note_on_c, 0, 53, 0
4, 469080, Note_on_c, 0, 52, 86
4, 469200, Note_on_c, 0, 52, 0
4, 469200, Note_on_c, 0, 50, 86
4, 469320, Note_on_c, 0, 50, 0
4, 469320, Note_on_c, 0, 48, 86
4, 469440, Note_on_c, 0, 48, 0
4, 469440, Note_on_c, 0, 50, 86
4, 469560, Note_on_c, 0, 50, 0
4, 469560, Note_on_c, 0, 48, 86
4, 469680, Note_on_c, 0, 48, 0
4, 469680, Note_on_c, 0, 46, 86
4, 469800, Note_on_c, 0, 46, 0
4, 469800, Note_on_c, 0, 45, 86
4, 469920, Note_on_c, 0, 45, 0
4, 469920, Note_on_c, 0, 43, 86
4, 470160, Note_on_c, 0, 43, 0
4, 470160, Note_on_c, 0, 48, 86
4, 470400, Note_on_c, 0, 48, 0
4, 470400, Note_on_c, 0, 53, 86
4, 470640, Note_on_c, 0, 53, 0
4, 470640, Note_on_c, 0, 48, 86
4, 470880, Note_on_c, 0, 48, 0
4, 470880, Note_on_c, 0, 41, 86
4, 471000, Note_on_c, 0, 41, 0
4, 471000, Control_c, 0, 64, 127
4, 471000, Note_on_c, 0, 50, 86
4, 471120, Note_on_c, 0, 50, 0
4, 471120, Note_on_c, 0, 52, 86
4, 471240, Note_on_c, 0, 52, 0
4, 471240, Note_on_c, 0, 53, 86
4, 471360, Note_on_c, 0, 53, 0
4, 471360, Note_on_c, 0, 55, 86
4, 471480, Note_on_c, 0, 55, 0
4, 471480, Note_on_c, 0, 57, 86
4, 471600, Note_on_c, 0, 57, 0
4, 471600, Note_on_c, 0, 58, 86
4, 471720, Note_on_c, 0, 58, 0
4, 471720, Note_on_c, 0, 60, 86
4, 471840, Note_on_c, 0, 60, 0
4, 471840, Note_on_c, 0, 62, 86
4, 471960, Note_on_c, 0, 62, 0
4, 471960, Note_on_c, 0, 64, 86
4, 472080, Note_on_c, 0, 64, 0
4, 472080, Note_on_c, 0, 65, 86
4, 472200, Note_on_c, 0, 65, 0
4, 472200, Control_c, 0, 64, 0
4, 472200, Note_on_c, 0, 67, 86
4, 472320, Note_on_c, 0, 67, 0
4, 472320, Note_on_c, 0, 69, 86
4, 473280, Note_on_c, 0, 69, 0
4, 473280, Note_on_c, 0, 55, 86
4, 473280, Note_on_c, 0, 67, 86
4, 474000, Note_on_c, 0, 67, 0
4, 474000, Note_on_c, 0, 55, 0
4, 474000, Note_on_c, 0, 53, 86
4, 474000, Note_on_c, 0, 65, 86
4, 474240, Note_on_c, 0, 65, 0
4, 474240, Note_on_c, 0, 53, 0
4, 474240, Note_on_c, 0, 52, 86
4, 474240, Note_on_c, 0, 57, 86
4, 474240, Note_on_c, 0, 60, 86
4, 474240, Note_on_c, 0, 64, 86
4, 474360, Note_on_c, 0, 64, 0
4, 474360, Note_on_c, 0, 52, 0
4, 474360, Note_on_c, 0, 57, 0
4, 474360, Note_on_c, 0, 60, 0
4, 474360, Note_on_c, 0, 60, 86
4, 474480, Note_on_c, 0, 60, 0
4, 474480, Note_on_c, 0, 64, 86
4, 474600, Note_on_c, 0, 64, 0
4, 474600, Note_on_c, 0, 65, 86
4, 474720, Note_on_c, 0, 65, 0
4, 474720, Note_on_c, 0, 67, 86
4, 474840, Note_on_c, 0, 67, 0
4, 474840, Note_on_c, 0, 65, 86
4, 474960, Note_on_c, 0, 65, 0
4, 474960, Note_on_c, 0, 64, 86
4, 475080, Note_on_c, 0, 64, 0
4, 475080, Note_on_c, 0, 62, 86
4, 475200, Note_on_c, 0, 62, 0
4, 475200, Note_on_c, 0, 60, 86
4, 475320, Note_on_c, 0, 60, 0
4, 475320, Note_on_c, 0, 57, 86
4, 475440, Note_on_c, 0, 57, 0
4, 475440, Note_on_c, 0, 60, 86
4, 475560, Note_on_c, 0, 60, 0
4, 475560, Note_on_c, 0, 62, 86
4, 475680, Note_on_c, 0, 62, 0
4, 475680, Note_on_c, 0, 64, 86
4, 475800, Note_on_c, 0, 64, 0
4, 475800, Note_on_c, 0, 62, 86
4, 475920, Note_on_c, 0, 62, 0
4, 475920, Note_on_c, 0, 60, 86
4, 476040, Note_on_c, 0, 60, 0
4, 476040, Note_on_c, 0, 58, 86
4, 476160, Note_on_c, 0, 58, 0
4, 476160, Note_on_c, 0, 57, 86
4, 476280, Note_on_c, 0, 57, 0
4, 476280, Note_on_c, 0, 55, 86
4, 476400, Note_on_c, 0, 55, 0
4, 476400, Note_on_c, 0, 53, 86
4, 476520, Note_on_c, 0, 53, 0
4, 476520, Note_on_c, 0, 52, 86
4, 476640, Note_on_c, 0, 52, 0
4, 476640, Note_on_c, 0, 53, 86
4, 476760, Note_on_c, 0, 53, 0
4, 476760, Note_on_c, 0, 52, 86
4, 476880, Note_on_c, 0, 52, 0
4, 476880, Note_on_c, 0, 50, 86
4, 477000, Note_on_c, 0, 50, 0
4, 477000, Note_on_c, 0, 49, 86
4, 477120, Note_on_c, 0, 49, 0
4, 477120, Note_on_c, 0, 50, 86
4, 477240, Note_on_c, 0, 50, 0
4, 477240, Note_on_c, 0, 48, 86
4, 477360, Note_on_c, 0, 48, 0
4, 477360, Note_on_c, 0, 46, 86
4, 477480, Note_on_c, 0, 46, 0
4, 477480, Note_on_c, 0, 45, 86
4, 477600, Note_on_c, 0, 45, 0
4, 477600, Note_on_c, 0, 43, 86
4, 477840, Note_on_c, 0, 43, 0
4, 477840, Note_on_c, 0, 48, 86
4, 478080, Note_on_c, 0, 48, 0
4, 478080, Note_on_c, 0, 53, 86
4, 478320, Note_on_c, 0, 53, 0
4, 478320, Note_on_c, 0, 48, 86
4, 478560, Note_on_c, 0, 48, 0
4, 478560, Note_on_c, 0, 41, 86
4, 478680, Note_on_c, 0, 41, 0
4, 478680, Control_c, 0, 64, 127
4, 478680, Note_on_c, 0, 53, 86
4, 478800, Note_on_c, 0, 53, 0
4, 478800, Note_on_c, 0, 55, 86
4, 478920, Note_on_c, 0, 55, 0
4, 478920, Note_on_c, 0, 57, 86
4, 479040, Note_on_c, 0, 57, 0
4, 479040, Note_on_c, 0, 58, 86
4, 479160, Note_on_c, 0, 58, 0
4, 479160, Note_on_c, 0, 60, 86
4, 479280, Note_on_c, 0, 60, 0
4, 479280, Note_on_c, 0, 62, 86
4, 479400, Note_on_c, 0, 62, 0
4, 479400, Note_on_c, 0, 64, 86
4, 479520, Note_on_c, 0, 64, 0
4, 479520, Note_on_c, 0, 65, 86
4, 479640, Note_on_c, 0, 65, 0
4, 479640, Note_on_c, 0, 67, 86
4, 479760, Note_on_c, 0, 67, 0
4, 479760, Note_on_c, 0, 69, 86
4, 479880, Note_on_c, 0, 69, 0
4, 479880, Control_c, 0, 64, 0
4, 479880, Note_on_c, 0, 70, 86
4, 480000, Note_on_c, 0, 70, 0
4, 480000, Note_on_c, 0, 57, 112
4, 480000, Note_on_c, 0, 60, 112
4, 480000, Note_on_c, 0, 65, 112
4, 480480, Note_on_c, 0, 65, 0
4, 480480, Note_on_c, 0, 60, 0
4, 480480, Note_on_c, 0, 57, 0
4, 480480, Note_on_c, 0, 56, 112
4, 480480, Note_on_c, 0, 60, 112
4, 480480, Note_on_c, 0, 62, 112
4, 480840, Note_on_c, 0, 62, 0
4, 480840, Note_on_c, 0, 60, 0
4, 480840, Note_on_c, 0, 56, 0
4, 480840, Note_on_c, 0, 55, 86
4, 480840, Note_on_c, 0, 58, 86
4, 480840, Note_on_c, 0, 64, 86
4, 480960, Note_on_c, 0, 64, 0
4, 480960, Note_on_c, 0, 58, 0
4, 480960, Note_on_c, 0, 55, 0
4, 480960, Note_on_c, 0, 55, 86
4, 480960, Note_on_c, 0, 58, 86
4, 480960, Note_on_c, 0, 64, 86
4, 481200, Note_on_c, 0, 64, 0
4, 481200, Note_on_c, 0, 58, 0
4, 481200, Note_on_c, 0, 55, 0
4, 481200, Note_on_c, 0, 54, 86
4, 481200, Note_on_c, 0, 57, 86
4, 481200, Note_on_c, 0, 60, 86
4, 481440, Note_on_c, 0, 60, 0
4, 481440, Note_on_c, 0, 57, 0
4, 481440, Note_on_c, 0, 54, 0
4, 481440, Note_on_c, 0, 53, 86
4, 481440, Note_on_c, 0, 57, 86
4, 481440, Note_on_c, 0, 62, 86
4, 481680, Note_on_c, 0, 62, 0
4, 481680, Note_on_c, 0, 57, 0
4, 481680, Note_on_c, 0, 53, 0
4, 481680, Note_on_c, 0, 52, 86
4, 481680, Note_on_c, 0, 55, 86
4, 481680, Note_on_c, 0, 58, 86
4, 481680, Note_on_c, 0, 60, 86
4, 481920, Note_on_c, 0, 60, 0
4, 481920, Note_on_c, 0, 52, 0
4, 481920, Note_on_c, 0, 55, 0
4, 481920, Note_on_c, 0, 58, 0
4, 481920, Note_on_c, 0, 57, 86
4, 481920, Note_on_c, 0, 60, 86
4, 481920, Note_on_c, 0, 65, 86
4, 482400, Note_on_c, 0, 65, 0
4, 482400, Note_on_c, 0, 60, 0
4, 482400, Note_on_c, 0, 57, 0
4, 482400, Note_on_c, 0, 56, 86
4, 482400, Note_on_c, 0, 60, 86
4, 482400, Note_on_c, 0, 62, 86
4, 482760, Note_on_c, 0, 62, 0
4, 482760, Note_on_c, 0, 60, 0
4, 482760, Note_on_c, 0, 56, 0
4, 482760, Note_on_c, 0, 55, 86
4, 482760, Note_on_c, 0, 58, 86
4, 482760, Note_on_c, 0, 64, 86
4, 482880, Note_on_c, 0, 64, 0
4, 482880, Note_on_c, 0, 58, 0
4, 482880, Note_on_c, 0, 55, 0
4, 482880, Note_on_c, 0, 55, 86
4, 482880, Note_on_c, 0, 58, 86
4, 482880, Note_on_c, 0, 64, 86
4, 483120, Note_on_c, 0, 64, 0
4, 483120, Note_on_c, 0, 58, 0
4, 483120, Note_on_c, 0, 55, 0
4, 483120, Note_on_c, 0, 54, 86
4, 483120, Note_on_c, 0, 57, 86
4, 483120, Note_on_c, 0, 60, 86
4, 483360, Note_on_c, 0, 60, 0
4, 483360, Note_on_c, 0, 57, 0
4, 483360, Note_on_c, 0, 54, 0
4, 483360, Note_on_c, 0, 53, 86
4, 483360, Note_on_c, 0, 57, 86
4, 483360, Note_on_c, 0, 62, 86
4, 483600, Note_on_c, 0, 62, 0
4, 483600, Note_on_c, 0, 57, 0
4, 483600, Note_on_c, 0, 53, 0
4, 483600, Note_on_c, 0, 52, 86
4, 483600, Note_on_c, 0, 55, 86
4, 483600, Note_on_c, 0, 58, 86
4, 483600, Note_on_c, 0, 60, 86
4, 483840, Note_on_c, 0, 60, 0
4, 483840, Note_on_c, 0, 52, 0
4, 483840, Note_on_c, 0, 55, 0
4, 483840, Note_on_c, 0, 58, 0
4, 483840, Note_on_c, 0, 57, 86
4, 483840, Note_on_c, 0, 60, 86
4, 483840, Note_on_c, 0, 65, 86
4, 484320, Note_on_c, 0, 65, 0
4, 484320, Note_on_c, 0, 60, 0
4, 484320, Note_on_c, 0, 57, 0
4, 484320, Note_on_c, 0, 55, 86
4, 484320, Note_on_c, 0, 59, 86
4, 484320, Note_on_c, 0, 62, 86
4, 484320, Note_on_c, 0, 65, 86
4, 484680, Note_on_c, 0, 65, 0
4, 484680, Note_on_c, 0, 55, 0
4, 484680, Note_on_c, 0, 59, 0
4, 484680, Note_on_c, 0, 62, 0
4, 484680, Note_on_c, 0, 48, 86
4, 484680, Note_on_c, 0, 52, 86
4, 484680, Note_on_c, 0, 55, 86
4, 484680, Note_on_c, 0, 60, 86
4, 484800, Note_on_c, 0, 60, 0
4, 484800, Note_on_c, 0, 48, 0
4, 484800, Note_on_c, 0, 52, 0
4, 484800, Note_on_c, 0, 55, 0
4, 484800, Note_on_c, 0, 48, 86
4, 484800, Note_on_c, 0, 52, 86
4, 484800, Note_on_c, 0, 55, 86
4, 484800, Note_on_c, 0, 60, 86
4, 485040, Note_on_c, 0, 60, 0
4, 485040, Note_on_c, 0, 48, 0
4, 485040, Note_on_c, 0, 52, 0
4, 485040, Note_on_c, 0, 55, 0
4, 485280, Note_on_c, 0, 48, 86
4, 485280, Note_on_c, 0, 51, 86
4, 485280, Note_on_c, 0, 54, 86
4, 485280, Note_on_c, 0, 60, 86
4, 485520, Note_on_c, 0, 60, 0
4, 485520, Note_on_c, 0, 48, 0
4, 485520, Note_on_c, 0, 51, 0
4, 485520, Note_on_c, 0, 54, 0
4, 485760, Note_on_c, 0, 47, 86
4, 485760, Note_on_c, 0, 51, 86
4, 485760, Note_on_c, 0, 54, 86
4, 485760, Note_on_c, 0, 59, 86
4, 486000, Note_on_c, 0, 59, 0
4, 486000, Note_on_c, 0, 47, 0
4, 486000, Note_on_c, 0, 51, 0
4, 486000, Note_on_c, 0, 54, 0
4, 486240, Note_on_c, 0, 47, 86
4, 486240, Note_on_c, 0, 50, 86
4, 486240, Note_on_c, 0, 53, 86
4, 486240, Note_on_c, 0, 59, 86
4, 486480, Note_on_c, 0, 59, 0
4, 486480, Note_on_c, 0, 47, 0
4, 486480, Note_on_c, 0, 50, 0
4, 486480, Note_on_c, 0, 53, 0
4, 486720, Note_on_c, 0, 46, 86
4, 486720, Note_on_c, 0, 50, 86
4, 486720, Note_on_c, 0, 53, 86
4, 486720, Note_on_c, 0, 58, 86
4, 486960, Note_on_c, 0, 58, 0
4, 486960, Note_on_c, 0, 46, 0
4, 486960, Note_on_c, 0, 50, 0
4, 486960, Note_on_c, 0, 53, 0
4, 487200, Note_on_c, 0, 46, 86
4, 487200, Note_on_c, 0, 49, 86
4, 487200, Note_on_c, 0, 52, 86
4, 487200, Note_on_c, 0, 58, 86
4, 487440, Note_on_c, 0, 58, 0
4, 487440, Note_on_c, 0, 46, 0
4, 487440, Note_on_c, 0, 49, 0
4, 487440, Note_on_c, 0, 52, 0
4, 487680, Note_on_c, 0, 45, 86
4, 487680, Note_on_c, 0, 49, 86
4, 487680, Note_on_c, 0, 52, 86
4, 487680, Note_on_c, 0, 57, 86
4, 487920, Note_on_c, 0, 57, 0
4, 487920, Note_on_c, 0, 45, 0
4, 487920, Note_on_c, 0, 49, 0
4, 487920, Note_on_c, 0, 52, 0
4, 488160, Note_on_c, 0, 45, 86
4, 488160, Note_on_c, 0, 48, 86
4, 488160, Note_on_c, 0, 51, 86
4, 488160, Note_on_c, 0, 57, 86
4, 488400, Note_on_c, 0, 57, 0
4, 488400, Note_on_c, 0, 45, 0
4, 488400, Note_on_c, 0, 48, 0
4, 488400, Note_on_c, 0, 51, 0
4, 488640, Note_on_c, 0, 44, 86
4, 488640, Note_on_c, 0, 48, 86
4, 488640, Note_on_c, 0, 51, 86
4, 488640, Note_on_c, 0, 56, 86
4, 488880, Note_on_c, 0, 56, 0
4, 488880, Note_on_c, 0, 44, 0
4, 488880, Note_on_c, 0, 48, 0
4, 488880, Note_on_c, 0, 51, 0
4, 489120, Note_on_c, 0, 44, 86
4, 489120, Note_on_c, 0, 47, 86
4, 489120, Note_on_c, 0, 50, 86
4, 489120, Note_on_c, 0, 56, 86
4, 489360, Note_on_c, 0, 56, 0
4, 489360, Note_on_c, 0, 44, 0
4, 489360, Note_on_c, 0, 47, 0
4, 489360, Note_on_c, 0, 50, 0
4, 489600, Note_on_c, 0, 43, 86
4, 489600, Note_on_c, 0, 47, 86
4, 489600, Note_on_c, 0, 50, 86
4, 489600, Note_on_c, 0, 55, 86
4, 489840, Note_on_c, 0, 55, 0
4, 489840, Note_on_c, 0, 43, 0
4, 489840, Note_on_c, 0, 47, 0
4, 489840, Note_on_c, 0, 50, 0
4, 490080, Note_on_c, 0, 43, 86
4, 490080, Note_on_c, 0, 46, 86
4, 490080, Note_on_c, 0, 49, 86
4, 490080, Note_on_c, 0, 55, 86
4, 490320, Note_on_c, 0, 55, 0
4, 490320, Note_on_c, 0, 43, 0
4, 490320, Note_on_c, 0, 46, 0
4, 490320, Note_on_c, 0, 49, 0
4, 490560, Note_on_c, 0, 41, 86
4, 490560, Note_on_c, 0, 46, 86
4, 490560, Note_on_c, 0, 49, 86
4, 490560, Note_on_c, 0, 53, 86
4, 490800, Note_on_c, 0, 53, 0
4, 490800, Note_on_c, 0, 41, 0
4, 490800, Note_on_c, 0, 46, 0
4, 490800, Note_on_c, 0, 49, 0
4, 491040, Note_on_c, 0, 39, 86
4, 491040, Note_on_c, 0, 46, 86
4, 491040, Note_on_c, 0, 49, 86
4, 491040, Note_on_c, 0, 51, 86
4, 491280, Note_on_c, 0, 51, 0
4, 491280, Note_on_c, 0, 39, 0
4, 491280, Note_on_c, 0, 46, 0
4, 491280, Note_on_c, 0, 49, 0
4, 491520, Control_c, 0, 64, 127
4, 491520, Note_on_c, 0, 38, 86
4, 491520, Note_on_c, 0, 45, 86
4, 491760, Note_on_c, 0, 45, 0
4, 491760, Note_on_c, 0, 38, 0
4, 491760, Note_on_c, 0, 50, 86
4, 492000, Note_on_c, 0, 50, 0
4, 492000, Note_on_c, 0, 54, 86
4, 492000, Note_on_c, 0, 57, 86
4, 492000, Note_on_c, 0, 62, 86
4, 492120, Note_on_c, 0, 62, 0
4, 492120, Note_on_c, 0, 57, 0
4, 492120, Note_on_c, 0, 54, 0
4, 492120, Note_on_c, 0, 54, 86
4, 492120, Note_on_c, 0, 57, 86
4, 492120, Note_on_c, 0, 62, 86
4, 492240, Note_on_c, 0, 62, 0
4, 492240, Note_on_c, 0, 57, 0
4, 492240, Note_on_c, 0, 54, 0
4, 492240, Note_on_c, 0, 50, 86
4, 492480, Note_on_c, 0, 50, 0
4, 492480, Note_on_c, 0, 47, 86
4, 492480, Note_on_c, 0, 59, 86
4, 492720, Note_on_c, 0, 59, 0
4, 492720, Note_on_c, 0, 47, 0
4, 492720, Note_on_c, 0, 48, 86
4, 492720, Note_on_c, 0, 60, 86
4, 492960, Note_on_c, 0, 60, 0
4, 492960, Note_on_c, 0, 48, 0
4, 492960, Note_on_c, 0, 54, 86
4, 492960, Note_on_c, 0, 57, 86
4, 492960, Note_on_c, 0, 62, 86
4, 493080, Note_on_c, 0, 62, 0
4, 493080, Note_on_c, 0, 57, 0
4, 493080, Note_on_c, 0, 54, 0
4, 493080, Note_on_c, 0, 54, 86
4, 493080, Note_on_c, 0, 57, 86
4, 493080, Note_on_c, 0, 62, 86
4, 493200, Note_on_c, 0, 62, 0
4, 493200, Note_on_c, 0, 57, 0
4, 493200, Note_on_c, 0, 54, 0
4, 493200, Control_c, 0, 64, 0
4, 493200, Note_on_c, 0, 48, 86
4, 493440, Note_on_c, 0, 48, 0
4, 493440, Control_c, 0, 64, 127
4, 493440, Note_on_c, 0, 46, 86
4, 493440, Note_on_c, 0, 58, 86
4, 493680, Note_on_c, 0, 58, 0
4, 493680, Note_on_c, 0, 46, 0
4, 493680, Note_on_c, 0, 47, 86
4, 493680, Note_on_c, 0, 59, 86
4, 493920, Note_on_c, 0, 59, 0
4, 493920, Note_on_c, 0, 47, 0
4, 493920, Note_on_c, 0, 54, 86
4, 493920, Note_on_c, 0, 59, 86
4, 494040, Note_on_c, 0, 59, 0
4, 494040, Note_on_c, 0, 54, 0
4, 494040, Note_on_c, 0, 54, 86
4, 494040, Note_on_c, 0, 59, 86
4, 494160, Note_on_c, 0, 59, 0
4, 494160, Note_on_c, 0, 54, 0
4, 494160, Note_on_c, 0, 47, 86
4, 494400, Note_on_c, 0, 47, 0
4, 494400, Note_on_c, 0, 44, 86
4, 494400, Note_on_c, 0, 56, 86
4, 494640, Note_on_c, 0, 56, 0
4, 494640, Note_on_c, 0, 44, 0
4, 494640, Note_on_c, 0, 45, 86
4, 494640, Note_on_c, 0, 57, 86
4, 494880, Note_on_c, 0, 57, 0
4, 494880, Note_on_c, 0, 45, 0
4, 494880, Note_on_c, 0, 51, 86
4, 494880, Note_on_c, 0, 54, 86
4, 494880, Note_on_c, 0, 59, 86
4, 495000, Note_on_c, 0, 59, 0
4, 495000, Note_on_c, 0, 54, 0
4, 495000, Note_on_c, 0, 51, 0
4, 495000, Note_on_c, 0, 51, 86
4, 495000, Note_on_c, 0, 54, 86
4, 495000, Note_on_c, 0, 59, 86
4, 495120, Note_on_c, 0, 59, 0
4, 495120, Note_on_c, 0, 54, 0
4, 495120, Note_on_c, 0, 51, 0
4, 495120, Control_c, 0, 64, 0
4, 495120, Note_on_c, 0, 45, 86
4, 495360, Note_on_c, 0, 45, 0
4, 495360, Control_c, 0, 64, 127
4, 495360, Note_on_c, 0, 42, 86
4, 495360, Note_on_c, 0, 54, 86
4, 495600, Note_on_c, 0, 54, 0
4, 495600, Note_on_c, 0, 42, 0
4, 495600, Note_on_c, 0, 43, 86
4, 495600, Note_on_c, 0, 55, 86
4, 495840, Note_on_c, 0, 55, 0
4, 495840, Note_on_c, 0, 43, 0
4, 495840, Note_on_c, 0, 52, 86
4, 495840, Note_on_c, 0, 55, 86
4, 495840, Note_on_c, 0, 59, 86
4, 495960, Note_on_c, 0, 59, 0
4, 495960, Note_on_c, 0, 55, 0
4, 495960, Note_on_c, 0, 52, 0
4, 495960, Note_on_c, 0, 52, 86
4, 495960, Note_on_c, 0, 55, 86
4, 495960, Note_on_c, 0, 59, 86
4, 496080, Note_on_c, 0, 59, 0
4, 496080, Note_on_c, 0, 55, 0
4, 496080, Note_on_c, 0, 52, 0
4, 496080, Note_on_c, 0, 43, 86
4, 496320, Note_on_c, 0, 43, 0
4, 496320, Note_on_c, 0, 40, 86
4, 496320, Note_on_c, 0, 52, 86
4, 496560, Note_on_c, 0, 52, 0
4, 496560, Note_on_c, 0, 40, 0
4, 496560, Note_on_c, 0, 41, 86
4, 496560, Note_on_c, 0, 53, 86
4, 496800, Note_on_c, 0, 53, 0
4, 496800, Note_on_c, 0, 41, 0
4, 496800, Note_on_c, 0, 55, 86
4, 496800, Note_on_c, 0, 59, 86
4, 496920, Note_on_c, 0, 59, 0
4, 496920, Note_on_c, 0, 55, 0
4, 496920, Note_on_c, 0, 55, 86
4, 496920, Note_on_c, 0, 59, 86
4, 497040, Note_on_c, 0, 59, 0
4, 497040, Note_on_c, 0, 55, 0
4, 497040, Control_c, 0, 64, 0
4, 497040, Note_on_c, 0, 41, 86
4, 497040, Note_on_c, 0, 53, 86
4, 497280, Note_on_c, 0, 53, 0
4, 497280, Note_on_c, 0, 41, 0
4, 497280, Note_on_c, 0, 39, 86
4, 497280, Note_on_c, 0, 51, 86
4, 497520, Note_on_c, 0, 51, 0
4, 497520, Note_on_c, 0, 39, 0
4, 497520, Note_on_c, 0, 40, 86
4, 497520, Note_on_c, 0, 46, 86
4, 497520, Note_on_c, 0, 48, 86
4, 497520, Note_on_c, 0, 52, 86
4, 498000, Note_on_c, 0, 52, 0
4, 498000, Note_on_c, 0, 40, 0
4, 498000, Note_on_c, 0, 46, 0
4, 498000, Note_on_c, 0, 48, 0
4, 498000, Note_on_c, 0, 44, 86
4, 498000, Note_on_c, 0, 48, 86
4, 498000, Note_on_c, 0, 54, 86
4, 498000, Note_on_c, 0, 56, 86
4, 498480, Note_on_c, 0, 56, 0
4, 498480, Note_on_c, 0, 44, 0
4, 498480, Note_on_c, 0, 48, 0
4, 498480, Note_on_c, 0, 54, 0
4, 498480, Note_on_c, 0, 49, 86
4, 498480, Note_on_c, 0, 53, 86
4, 498480, Note_on_c, 0, 56, 86
4, 498480, Note_on_c, 0, 59, 86
4, 498960, Note_on_c, 0, 59, 0
4, 498960, Note_on_c, 0, 49, 0
4, 498960, Note_on_c, 0, 53, 0
4, 498960, Note_on_c, 0, 56, 0
4, 498960, Note_on_c, 0, 54, 86
4, 498960, Note_on_c, 0, 58, 86
4, 498960, Note_on_c, 0, 61, 86
4, 498960, Note_on_c, 0, 64, 86
4, 499440, Note_on_c, 0, 64, 0
4, 499440, Note_on_c, 0, 54, 0
4, 499440, Note_on_c, 0, 58, 0
4, 499440, Note_on_c, 0, 61, 0
4, 499440, Note_on_c, 0, 47, 86
4, 499440, Note_on_c, 0, 54, 86
4, 499440, Note_on_c, 0, 57, 86
4, 499440, Note_on_c, 0, 59, 86
4, 499920, Note_on_c, 0, 59, 0
4, 499920, Note_on_c, 0, 47, 0
4, 499920, Note_on_c, 0, 54, 0
4, 499920, Note_on_c, 0, 57, 0
4, 499920, Note_on_c, 0, 52, 86
4, 499920, Note_on_c, 0, 56, 86
4, 499920, Note_on_c, 0, 59, 86
4, 499920, Note_on_c, 0, 62, 86
4, 500400, Note_on_c, 0, 62, 0
4, 500400, Note_on_c, 0, 52, 0
4, 500400, Note_on_c, 0, 56, 0
4, 500400, Note_on_c, 0, 59, 0
4, 500400, Note_on_c, 0, 45, 86
4, 500400, Note_on_c, 0, 52, 86
4, 500400, Note_on_c, 0, 55, 86
4, 500400, Note_on_c, 0, 57, 86
4, 500880, Note_on_c, 0, 57, 0
4, 500880, Note_on_c, 0, 45, 0
4, 500880, Note_on_c, 0, 52, 0
4, 500880, Note_on_c, 0, 55, 0
4, 500880, Note_on_c, 0, 50, 86
4, 500880, Note_on_c, 0, 54, 86
4, 500880, Note_on_c, 0, 57, 86
4, 500880, Note_on_c, 0, 60, 86
4, 501360, Note_on_c, 0, 60, 0
4, 501360, Note_on_c, 0, 50, 0
4, 501360, Note_on_c, 0, 54, 0
4, 501360, Note_on_c, 0, 57, 0
4, 501360, Note_on_c, 0, 43, 86
4, 501360, Note_on_c, 0, 50, 86
4, 501360, Note_on_c, 0, 53, 86
4, 501360, Note_on_c, 0, 55, 86
4, 501600, Note_on_c, 0, 55, 0
4, 501840, Note_on_c, 0, 43, 0
4, 501840, Note_on_c, 0, 50, 0
4, 501840, Note_on_c, 0, 53, 0
4, 502080, Note_on_c, 0, 55, 86
4, 502320, Note_on_c, 0, 55, 0
4, 502320, Note_on_c, 0, 55, 86
4, 502560, Note_on_c, 0, 55, 0
4, 502560, Note_on_c, 0, 55, 86
4, 502800, Note_on_c, 0, 55, 0
4, 502800, Note_on_c, 0, 55, 86
4, 503040, Note_on_c, 0, 55, 0
4, 503040, Note_on_c, 0, 54, 86
4, 503520, Note_on_c, 0, 54, 0
4, 503520, Note_on_c, 0, 52, 86
4, 504000, Note_on_c, 0, 52, 0
4, 504000, Note_on_c, 0, 52, 86
4, 504000, Note_on_c, 0, 55, 86
4, 504240, Note_on_c, 0, 55, 0
4, 504240, Note_on_c, 0, 52, 0
4, 504240, Note_on_c, 0, 52, 86
4, 504240, Note_on_c, 0, 55, 86
4, 504480, Note_on_c, 0, 55, 0
4, 504480, Note_on_c, 0, 52, 0
4, 504480, Note_on_c, 0, 52, 86
4, 504480, Note_on_c, 0, 55, 86
4, 504720, Note_on_c, 0, 55, 0
4, 504720, Note_on_c, 0, 52, 0
4, 504720, Note_on_c, 0, 52, 86
4, 504720, Note_on_c, 0, 55, 86
4, 504960, Note_on_c, 0, 55, 0
4, 504960, Note_on_c, 0, 52, 0
4, 504960, Note_on_c, 0, 50, 86
4, 504960, Note_on_c, 0, 54, 86
4, 505440, Note_on_c, 0, 54, 0
4, 505440, Note_on_c, 0, 50, 0
4, 505440, Note_on_c, 0, 49, 86
4, 505440, Note_on_c, 0, 53, 86
4, 505920, Note_on_c, 0, 53, 0
4, 505920, Note_on_c, 0, 49, 0
4, 505920, Note_on_c, 0, 47, 86
4, 505920, Note_on_c, 0, 50, 86
4, 505920, Note_on_c, 0, 53, 86
4, 506160, Note_on_c, 0, 53, 0
4, 506160, Note_on_c, 0, 50, 0
4, 506160, Note_on_c, 0, 47, 0
4, 506160, Note_on_c, 0, 47, 86
4, 506160, Note_on_c, 0, 50, 86
4, 506160, Note_on_c, 0, 53, 86
4, 506400, Note_on_c, 0, 53, 0
4, 506400, Note_on_c, 0, 50, 0
4, 506400, Note_on_c, 0, 47, 0
4, 506400, Note_on_c, 0, 47, 86
4, 506400, Note_on_c, 0, 50, 86
4, 506400, Note_on_c, 0, 53, 86
4, 506640, Note_on_c, 0, 53, 0
4, 506640, Note_on_c, 0, 50, 0
4, 506640, Note_on_c, 0, 47, 0
4, 506640, Note_on_c, 0, 47, 86
4, 506640, Note_on_c, 0, 50, 86
4, 506640, Note_on_c, 0, 53, 86
4, 506880, Note_on_c, 0, 53, 0
4, 506880, Note_on_c, 0, 50, 0
4, 506880, Note_on_c, 0, 47, 0
4, 506880, Note_on_c, 0, 46, 86
4, 506880, Note_on_c, 0, 50, 86
4, 506880, Note_on_c, 0, 53, 86
4, 507360, Note_on_c, 0, 53, 0
4, 507360, Note_on_c, 0, 50, 0
4, 507360, Note_on_c, 0, 46, 0
4, 507360, Note_on_c, 0, 45, 86
4, 507360, Note_on_c, 0, 50, 86
4, 507360, Note_on_c, 0, 53, 86
4, 507840, Note_on_c, 0, 53, 0
4, 507840, Note_on_c, 0, 50, 0
4, 507840, Note_on_c, 0, 45, 0
4, 507840, Note_on_c, 0, 44, 86
4, 507840, Note_on_c, 0, 50, 86
4, 507840, Note_on_c, 0, 53, 86
4, 508320, Note_on_c, 0, 53, 0
4, 508320, Note_on_c, 0, 50, 0
4, 508320, Note_on_c, 0, 44, 0
4, 508320, Note_on_c, 0, 43, 86
4, 508320, Note_on_c, 0, 50, 86
4, 508320, Note_on_c, 0, 53, 86
4, 508800, Note_on_c, 0, 53, 0
4, 508800, Note_on_c, 0, 50, 0
4, 508800, Note_on_c, 0, 43, 0
4, 508800, Note_on_c, 0, 36, 86
4, 508800, Note_on_c, 0, 43, 86
4, 508800, Note_on_c, 0, 48, 86
4, 509280, Note_on_c, 0, 48, 0
4, 509280, Note_on_c, 0, 43, 0
4, 509280, Note_on_c, 0, 36, 0
4, 509280, Note_on_c, 0, 36, 86
4, 509280, Note_on_c, 0, 43, 86
4, 509280, Note_on_c, 0, 48, 86
4, 509520, Note_on_c, 0, 48, 0
4, 509520, Note_on_c, 0, 43, 0
4, 509520, Note_on_c, 0, 36, 0
4, 510720, Note_on_c, 0, 61, 86
4, 510720, Note_on_c, 0, 73, 86
4, 510960, Note_on_c, 0, 73, 0
4, 510960, Note_on_c, 0, 61, 0
4, 510960, Note_on_c, 0, 61, 86
4, 510960, Note_on_c, 0, 73, 86
4, 511200, Note_on_c, 0, 73, 0
4, 511200, Note_on_c, 0, 61, 0
4, 511200, Note_on_c, 0, 61, 86
4, 511200, Note_on_c, 0, 73, 86
4, 511440, Note_on_c, 0, 73, 0
4, 511440, Note_on_c, 0, 61, 0
4, 511440, Note_on_c, 0, 61, 86
4, 511440, Note_on_c, 0, 73, 86
4, 511680, Note_on_c, 0, 73, 0
4, 511680, Note_on_c, 0, 61, 0
4, 511680, Note_on_c, 0, 60, 86
4, 511680, Note_on_c, 0, 72, 86
4, 512160, Note_on_c, 0, 72, 0
4, 512160, Note_on_c, 0, 60, 0
4, 512160, Note_on_c, 0, 58, 86
4, 512160, Note_on_c, 0, 70, 86
4, 512640, Note_on_c, 0, 70, 0
4, 512640, Note_on_c, 0, 58, 0
4, 512640, Note_on_c, 0, 56, 86
4, 512640, Note_on_c, 0, 68, 86
4, 512880, Note_on_c, 0, 68, 0
4, 512880, Note_on_c, 0, 56, 0
4, 512880, Note_on_c, 0, 56, 86
4, 512880, Note_on_c, 0, 68, 86
4, 513120, Note_on_c, 0, 68, 0
4, 513120, Note_on_c, 0, 56, 0
4, 513120, Note_on_c, 0, 56, 86
4, 513120, Note_on_c, 0, 68, 86
4, 513360, Note_on_c, 0, 68, 0
4, 513360, Note_on_c, 0, 56, 0
4, 513360, Note_on_c, 0, 56, 86
4, 513360, Note_on_c, 0, 68, 86
4, 513600, Note_on_c, 0, 68, 0
4, 513600, Note_on_c, 0, 56, 0
4, 513600, Note_on_c, 0, 55, 86
4, 513600, Note_on_c, 0, 67, 86
4, 514080, Note_on_c, 0, 67, 0
4, 514080, Note_on_c, 0, 55, 0
4, 514080, Note_on_c, 0, 53, 86
4, 514080, Note_on_c, 0, 65, 86
4, 514560, Note_on_c, 0, 65, 0
4, 514560, Note_on_c, 0, 53, 0
4, 514560, Note_on_c, 0, 49, 86
4, 514560, Note_on_c, 0, 53, 86
4, 514560, Note_on_c, 0, 56, 86
4, 515040, Note_on_c, 0, 56, 0
4, 515040, Note_on_c, 0, 53, 0
4, 515040, Note_on_c, 0, 49, 0
4, 515040, Note_on_c, 0, 49, 86
4, 515040, Note_on_c, 0, 53, 86
4, 515040, Note_on_c, 0, 56, 86
4, 515520, Note_on_c, 0, 56, 0
4, 515520, Note_on_c, 0, 53, 0
4, 515520, Note_on_c, 0, 49, 0
4, 515520, Note_on_c, 0, 49, 86
4, 515520, Note_on_c, 0, 53, 86
4, 515520, Note_on_c, 0, 56, 86
4, 516000, Note_on_c, 0, 56, 0
4, 516000, Note_on_c, 0, 53, 0
4, 516000, Note_on_c, 0, 49, 0
4, 516000, Note_on_c, 0, 49, 86
4, 516000, Note_on_c, 0, 53, 86
4, 516000, Note_on_c, 0, 56, 86
4, 516480, Note_on_c, 0, 56, 0
4, 516480, Note_on_c, 0, 53, 0
4, 516480, Note_on_c, 0, 49, 0
4, 516480, Note_on_c, 0, 49, 86
4, 516480, Note_on_c, 0, 53, 86
4, 516480, Note_on_c, 0, 56, 86
4, 516960, Note_on_c, 0, 56, 0
4, 516960, Note_on_c, 0, 53, 0
4, 516960, Note_on_c, 0, 49, 0
4, 516960, Note_on_c, 0, 49, 86
4, 516960, Note_on_c, 0, 53, 86
4, 516960, Note_on_c, 0, 56, 86
4, 517440, Note_on_c, 0, 56, 0
4, 517440, Note_on_c, 0, 53, 0
4, 517440, Note_on_c, 0, 49, 0
4, 517440, Note_on_c, 0, 48, 86
4, 517440, Note_on_c, 0, 55, 86
4, 517440, Note_on_c, 0, 58, 86
4, 517920, Note_on_c, 0, 58, 0
4, 517920, Note_on_c, 0, 55, 0
4, 517920, Note_on_c, 0, 48, 0
4, 517920, Note_on_c, 0, 48, 86
4, 517920, Note_on_c, 0, 55, 86
4, 517920, Note_on_c, 0, 58, 86
4, 518400, Note_on_c, 0, 58, 0
4, 518400, Note_on_c, 0, 55, 0
4, 518400, Note_on_c, 0, 48, 0
4, 518400, Note_on_c, 0, 41, 86
4, 518400, Note_on_c, 0, 48, 86
4, 518400, Note_on_c, 0, 57, 86
4, 518880, Note_on_c, 0, 57, 0
4, 518880, Note_on_c, 0, 48, 0
4, 518880, Note_on_c, 0, 41, 0
4, 518880, Note_on_c, 0, 45, 86
4, 519120, Note_on_c, 0, 45, 0
4, 519120, Note_on_c, 0, 48, 86
4, 519360, Note_on_c, 0, 48, 0
4, 519360, Note_on_c, 0, 45, 86
4, 519360, Note_on_c, 0, 57, 86
4, 519840, Note_on_c, 0, 57, 0
4, 519840, Note_on_c, 0, 45, 0
4, 519840, Note_on_c, 0, 49, 86
4, 520080, Note_on_c, 0, 49, 0
4, 520080, Note_on_c, 0, 53, 86
4, 520320, Note_on_c, 0, 53, 0
4, 520320, Note_on_c, 0, 49, 86
4, 520320, Note_on_c, 0, 61, 86
4, 520800, Note_on_c, 0, 61, 0
4, 520800, Note_on_c, 0, 49, 0
4, 520800, Note_on_c, 0, 53, 86
4, 521040, Note_on_c, 0, 53, 0
4, 521040, Note_on_c, 0, 56, 86
4, 521280, Note_on_c, 0, 56, 0
4, 521760, Note_on_c, 0, 48, 86
4, 521760, Note_on_c, 0, 53, 86
4, 521760, Note_on_c, 0, 55, 86
4, 522000, Note_on_c, 0, 55, 0
4, 522000, Note_on_c, 0, 53, 0
4, 522000, Note_on_c, 0, 48, 0
4, 522000, Note_on_c, 0, 48, 86
4, 522000, Note_on_c, 0, 52, 86
4, 522000, Note_on_c, 0, 55, 86
4, 522160, Note_on_c, 0, 41, 86
4, 522200, Note_on_c, 0, 48, 86
4, 522240, Note_on_c, 0, 55, 0
4, 522240, Note_on_c, 0, 48, 0
4, 522240, Note_on_c, 0, 52, 0
4, 522240, Note_on_c, 0, 57, 86
4, 522720, Note_on_c, 0, 57, 0
4, 522720, Note_on_c, 0, 41, 0
4, 522720, Note_on_c, 0, 48, 0
4, 522720, Note_on_c, 0, 45, 86
4, 522960, Note_on_c, 0, 45, 0
4, 522960, Note_on_c, 0, 48, 86
4, 523200, Note_on_c, 0, 48, 0
4, 523200, Note_on_c, 0, 45, 86
4, 523200, Note_on_c, 0, 57, 86
4, 523680, Note_on_c, 0, 57, 0
4, 523680, Note_on_c, 0, 45, 0
4, 523680, Note_on_c, 0, 49, 86
4, 523920, Note_on_c, 0, 49, 0
4, 523920, Note_on_c, 0, 53, 86
4, 524160, Note_on_c, 0, 53, 0
4, 524160, Note_on_c, 0, 49, 86
4, 524160, Note_on_c, 0, 61, 86
4, 524640, Note_on_c, 0, 61, 0
4, 524640, Note_on_c, 0, 49, 0
4, 524640, Note_on_c, 0, 53, 86
4, 524880, Note_on_c, 0, 53, 0
4, 524880, Note_on_c, 0, 56, 86
4, 525120, Note_on_c, 0, 56, 0
4, 525600, Note_on_c, 0, 48, 86
4, 525600, Note_on_c, 0, 53, 86
4, 525600, Note_on_c, 0, 55, 86
4, 525840, Note_on_c, 0, 55, 0
4, 525840, Note_on_c, 0, 53, 0
4, 525840, Note_on_c, 0, 48, 0
4, 525840, Note_on_c, 0, 48, 86
4, 525840, Note_on_c, 0, 52, 86
4, 525840, Note_on_c, 0, 55, 86
4, 526080, Note_on_c, 0, 55, 0
4, 526080, Note_on_c, 0, 52, 0
4, 526080, Note_on_c, 0, 48, 0
4, 526560, Note_on_c, 0, 57, 86
4, 526560, Note_on_c, 0, 62, 86
4, 526560, Note_on_c, 0, 67, 86
4, 526800, Note_on_c, 0, 67, 0
4, 526800, Note_on_c, 0, 62, 0
4, 526800, Note_on_c, 0, 57, 0
4, 526800, Note_on_c, 0, 57, 86
4, 526800, Note_on_c, 0, 62, 86
4, 526800, Note_on_c, 0, 66, 86
4, 527040, Note_on_c, 0, 66, 0
4, 527040, Note_on_c, 0, 62, 0
4, 527040, Note_on_c, 0, 57, 0
4, 527520, Note_on_c, 0, 55, 86
4, 527520, Note_on_c, 0, 62, 86
4, 527520, Note_on_c, 0, 69, 86
4, 527760, Note_on_c, 0, 69, 0
4, 527760, Note_on_c, 0, 62, 0
4, 527760, Note_on_c, 0, 55, 0
4, 527760, Note_on_c, 0, 55, 86
4, 527760, Note_on_c, 0, 62, 86
4, 527760, Note_on_c, 0, 67, 86
4, 528000, Note_on_c, 0, 67, 0
4, 528000, Note_on_c, 0, 62, 0
4, 528000, Note_on_c, 0, 55, 0
4, 528480, Note_on_c, 0, 53, 86
4, 528480, Note_on_c, 0, 57, 86
4, 528480, Note_on_c, 0, 62, 86
4, 528720, Note_on_c, 0, 62, 0
4, 528720, Note_on_c, 0, 57, 0
4, 528720, Note_on_c, 0, 53, 0
4, 528720, Note_on_c, 0, 53, 86
4, 528720, Note_on_c, 0, 56, 86
4, 528720, Note_on_c, 0, 62, 86
4, 528960, Note_on_c, 0, 62, 0
4, 528960, Note_on_c, 0, 56, 0
4, 528960, Note_on_c, 0, 53, 0
4, 529440, Note_on_c, 0, 51, 86
4, 529440, Note_on_c, 0, 57, 86
4, 529440, Note_on_c, 0, 60, 86
4, 529680, Note_on_c, 0, 60, 0
4, 529680, Note_on_c, 0, 57, 0
4, 529680, Note_on_c, 0, 51, 0
4, 529680, Note_on_c, 0, 51, 86
4, 529680, Note_on_c, 0, 57, 86
4, 529680, Note_on_c, 0, 60, 86
4, 529920, Note_on_c, 0, 60, 0
4, 529920, Note_on_c, 0, 57, 0
4, 529920, Note_on_c, 0, 51, 0
4, 530160, Note_on_c, 0, 39, 86
4, 530160, Note_on_c, 0, 45, 86
4, 530160, Note_on_c, 0, 51, 86
4, 530400, Note_on_c, 0, 51, 0
4, 530400, Note_on_c, 0, 45, 0
4, 530400, Note_on_c, 0, 39, 0
4, 530640, Note_on_c, 0, 40, 86
4, 530640, Note_on_c, 0, 49, 86
4, 530640, Note_on_c, 0, 52, 86
4, 530880, Note_on_c, 0, 52, 0
4, 530880, Note_on_c, 0, 49, 0
4, 530880, Note_on_c, 0, 40, 0
4, 531120, Note_on_c, 0, 41, 86
4, 531120, Note_on_c, 0, 48, 86
4, 531120, Note_on_c, 0, 53, 86
4, 531360, Note_on_c, 0, 53, 0
4, 531360, Note_on_c, 0, 48, 0
4, 531360, Note_on_c, 0, 41, 0
4, 531600, Note_on_c, 0, 43, 86
4, 531600, Note_on_c, 0, 52, 86
4, 531600, Note_on_c, 0, 55, 86
4, 531840, Note_on_c, 0, 55, 0
4, 531840, Note_on_c, 0, 52, 0
4, 531840, Note_on_c, 0, 43, 0
4, 532080, Note_on_c, 0, 44, 86
4, 532080, Note_on_c, 0, 50, 86
4, 532080, Note_on_c, 0, 56, 86
4, 532320, Note_on_c, 0, 56, 0
4, 532320, Note_on_c, 0, 50, 0
4, 532320, Note_on_c, 0, 44, 0
4, 532560, Note_on_c, 0, 45, 86
4, 532560, Note_on_c, 0, 48, 86
4, 532560, Note_on_c, 0, 57, 86
4, 532800, Note_on_c, 0, 57, 0
4, 532800, Note_on_c, 0, 48, 0
4, 532800, Note_on_c, 0, 45, 0
4, 533040, Note_on_c, 0, 46, 86
4, 533040, Note_on_c, 0, 53, 86
4, 533040, Note_on_c, 0, 58, 86
4, 533280, Note_on_c, 0, 58, 0
4, 533280, Note_on_c, 0, 53, 0
4, 533280, Note_on_c, 0, 46, 0
4, 533520, Note_on_c, 0, 48, 86
4, 533520, Note_on_c, 0, 58, 86
4, 533760, Note_on_c, 0, 58, 0
4, 533760, Note_on_c, 0, 48, 0
4, 533760, Note_on_c, 0, 41, 86
4, 533760, Note_on_c, 0, 48, 86
4, 534000, Note_on_c, 0, 48, 0
4, 534000, Note_on_c, 0, 41, 0
4, 534000, Note_on_c, 0, 48, 86
4, 534000, Note_on_c, 0, 57, 86
4, 534240, Note_on_c, 0, 57, 0
4, 534240, Note_on_c, 0, 48, 0
4, 534480, Note_on_c, 0, 48, 86
4, 534480, Note_on_c, 0, 58, 86
4, 534720, Note_on_c, 0, 58, 0
4, 534720, Note_on_c, 0, 48, 0
4, 534720, Note_on_c, 0, 41, 86
4, 534720, Note_on_c, 0, 48, 86
4, 534960, Note_on_c, 0, 48, 0
4, 534960, Note_on_c, 0, 41, 0
4, 534960, Note_on_c, 0, 48, 86
4, 534960, Note_on_c, 0, 57, 86
4, 535200, Note_on_c, 0, 57, 0
4, 535200, Note_on_c, 0, 48, 0
4, 535440, Note_on_c, 0, 48, 86
4, 535440, Note_on_c, 0, 58, 86
4, 535680, Note_on_c, 0, 58, 0
4, 535680, Note_on_c, 0, 48, 0
4, 535680, Note_on_c, 0, 41, 86
4, 535680, Note_on_c, 0, 48, 86
4, 535920, Note_on_c, 0, 48, 0
4, 535920, Note_on_c, 0, 41, 0
4, 535920, Note_on_c, 0, 48, 86
4, 535920, Note_on_c, 0, 57, 86
4, 536160, Note_on_c, 0, 57, 0
4, 536160, Note_on_c, 0, 48, 0
4, 536400, Note_on_c, 0, 48, 86
4, 536400, Note_on_c, 0, 58, 86
4, 536640, Note_on_c, 0, 58, 0
4, 536640, Note_on_c, 0, 48, 0
4, 536640, Note_on_c, 0, 41, 86
4, 536640, Note_on_c, 0, 48, 86
4, 536880, Note_on_c, 0, 48, 0
4, 536880, Note_on_c, 0, 41, 0
4, 536880, Note_on_c, 0, 48, 86
4, 536880, Note_on_c, 0, 57, 86
4, 537120, Note_on_c, 0, 57, 0
4, 537120, Note_on_c, 0, 48, 0
4, 537360, Note_on_c, 0, 48, 86
4, 537360, Note_on_c, 0, 58, 86
4, 537600, Note_on_c, 0, 58, 0
4, 537600, Note_on_c, 0, 48, 0
4, 537600, Note_on_c, 0, 41, 86
4, 537600, Note_on_c, 0, 53, 86
4, 537840, Note_on_c, 0, 53, 0
4, 537840, Note_on_c, 0, 41, 0
4, 537840, Note_on_c, 0, 36, 86
4, 537840, Note_on_c, 0, 48, 86
4, 538080, Note_on_c, 0, 48, 0
4, 538080, Note_on_c, 0, 36, 0
4, 538080, Note_on_c, 0, 41, 86
4, 538320, Note_on_c, 0, 41, 0
4, 538320, Note_on_c, 0, 36, 86
4, 538320, Note_on_c, 0, 48, 86
4, 538560, Note_on_c, 0, 48, 0
4, 538560, Note_on_c, 0, 36, 0
4, 538560, Note_on_c, 0, 41, 86
4, 538800, Note_on_c, 0, 41, 0
4, 538800, Note_on_c, 0, 36, 86
4, 538800, Note_on_c, 0, 48, 86
4, 539040, Note_on_c, 0, 48, 0
4, 539040, Note_on_c, 0, 36, 0
4, 539040, Note_on_c, 0, 41, 86
4, 539280, Note_on_c, 0, 41, 0
4, 539280, Note_on_c, 0, 36, 86
4, 539280, Note_on_c, 0, 48, 86
4, 539520, Note_on_c, 0, 48, 0
4, 539520, Note_on_c, 0, 36, 0
4, 539520, Note_on_c, 0, 41, 86
4, 539760, Note_on_c, 0, 41, 0
4, 539760, Note_on_c, 0, 36, 86
4, 539760, Note_on_c, 0, 48, 86
4, 540000, Note_on_c, 0, 48, 0
4, 540000, Note_on_c, 0, 36, 0
4, 540000, Note_on_c, 0, 41, 86
4, 540240, Note_on_c, 0, 41, 0
4, 540240, Note_on_c, 0, 36, 86
4, 540240, Note_on_c, 0, 48, 86
4, 540480, Note_on_c, 0, 48, 0
4, 540480, Note_on_c, 0, 36, 0
4, 540480, Note_on_c, 0, 41, 86
4, 540720, Note_on_c, 0, 41, 0
4, 540720, Note_on_c, 0, 36, 86
4, 540720, Note_on_c, 0, 48, 86
4, 540960, Note_on_c, 0, 48, 0
4, 540960, Note_on_c, 0, 36, 0
4, 540960, Note_on_c, 0, 41, 86
4, 541200, Note_on_c, 0, 41, 0
4, 541200, Note_on_c, 0, 36, 86
4, 541200, Note_on_c, 0, 48, 86
4, 541440, Note_on_c, 0, 48, 0
4, 541440, Note_on_c, 0, 36, 0
4, 541440, Note_on_c, 0, 41, 86
4, 541680, Note_on_c, 0, 41, 0
4, 541680, Note_on_c, 0, 36, 86
4, 541680, Note_on_c, 0, 48, 86
4, 541920, Note_on_c, 0, 48, 0
4, 541920, Note_on_c, 0, 36, 0
4, 541920, Note_on_c, 0, 41, 86
4, 542160, Note_on_c, 0, 41, 0
4, 542160, Note_on_c, 0, 36, 86
4, 542160, Note_on_c, 0, 48, 86
4, 542400, Note_on_c, 0, 48, 0
4, 542400, Note_on_c, 0, 36, 0
4, 542400, Note_on_c, 0, 41, 86
4, 542640, Note_on_c, 0, 41, 0
4, 542640, Note_on_c, 0, 36, 86
4, 542640, Note_on_c, 0, 48, 86
4, 542880, Note_on_c, 0, 48, 0
4, 542880, Note_on_c, 0, 36, 0
4, 542880, Note_on_c, 0, 41, 86
4, 543120, Note_on_c, 0, 41, 0
4, 543120, Note_on_c, 0, 36, 86
4, 543120, Note_on_c, 0, 48, 86
4, 543360, Note_on_c, 0, 48, 0
4, 543360, Note_on_c, 0, 36, 0
4, 543360, Note_on_c, 0, 41, 86
4, 543360, Note_on_c, 0, 45, 86
4, 543360, Note_on_c, 0, 48, 86
4, 543360, Note_on_c, 0, 53, 86
4, 543600, Note_on_c, 0, 53, 0
4, 543600, Note_on_c, 0, 41, 0
4, 543600, Note_on_c, 0, 45, 0
4, 543600, Note_on_c, 0, 48, 0
4, 543840, Note_on_c, 0, 41, 86
4, 543840, Note_on_c, 0, 45, 86
4, 543840, Note_on_c, 0, 48, 86
4, 543840, Note_on_c, 0, 53, 86
4, 544080, Note_on_c, 0, 53, 0
4, 544080, Note_on_c, 0, 41, 0
4, 544080, Note_on_c, 0, 45, 0
4, 544080, Note_on_c, 0, 48, 0
4, 544320, Note_on_c, 0, 41, 86
4, 544320, Note_on_c, 0, 45, 86
4, 544320, Note_on_c, 0, 48, 86
4, 544320, Note_on_c, 0, 53, 86
4, 544560, Note_on_c, 0, 53, 0
4, 544560, Note_on_c, 0, 41, 0
4, 544560, Note_on_c, 0, 45, 0
4, 544560, Note_on_c, 0, 48, 0
4, 544800, Note_on_c, 0, 41, 86
4, 544800, Note_on_c, 0, 45, 86
4, 544800, Note_on_c, 0, 48, 86
4, 544800, Note_on_c, 0, 53, 86
4, 545040, Note_on_c, 0, 53, 0
4, 545040, Note_on_c, 0, 41, 0
4, 545040, Note_on_c, 0, 45, 0
4, 545040, Note_on_c, 0, 48, 0
4, 545280, Note_on_c, 0, 41, 86
4, 545280, Note_on_c, 0, 45, 86
4, 545280, Note_on_c, 0, 48, 86
4, 545280, Note_on_c, 0, 53, 86
4, 545520, Note_on_c, 0, 53, 0
4, 545520, Note_on_c, 0, 41, 0
4, 545520, Note_on_c, 0, 45, 0
4, 545520, Note_on_c, 0, 48, 0
4, 545760, Note_on_c, 0, 41, 86
4, 545760, Note_on_c, 0, 45, 86
4, 545760, Note_on_c, 0, 48, 86
4, 545760, Note_on_c, 0, 53, 86
4, 546000, Note_on_c, 0, 53, 0
4, 546000, Note_on_c, 0, 41, 0
4, 546000, Note_on_c, 0, 45, 0
4, 546000, Note_on_c, 0, 48, 0
4, 546240, Note_on_c, 0, 41, 86
4, 546240, Note_on_c, 0, 45, 86
4, 546240, Note_on_c, 0, 48, 86
4, 546240, Note_on_c, 0, 53, 86
4, 546480, Note_on_c, 0, 53, 0
4, 546480, Note_on_c, 0, 41, 0
4, 546480, Note_on_c, 0, 45, 0
4, 546480, Note_on_c, 0, 48, 0
4, 546720, Note_on_c, 0, 41, 86
4, 546720, Note_on_c, 0, 45, 86
4, 546720, Note_on_c, 0, 48, 86
4, 546720, Note_on_c, 0, 53, 86
4, 546960, Note_on_c, 0, 53, 0
4, 546960, Note_on_c, 0, 41, 0
4, 546960, Note_on_c, 0, 45, 0
4, 546960, Note_on_c, 0, 48, 0
4, 547200, Note_on_c, 0, 45, 86
4, 547200, Note_on_c, 0, 48, 86
4, 547440, Note_on_c, 0, 48, 0
4, 547440, Note_on_c, 0, 45, 0
4, 548160, Note_on_c, 0, 45, 86
4, 548160, Note_on_c, 0, 48, 86
4, 548400, Note_on_c, 0, 48, 0
4, 548400, Note_on_c, 0, 45, 0
4, 549120, Control_c, 0, 64, 127
4, 549120, Note_on_c, 0, 29, 112
4, 549200, Note_on_c, 0, 29, 0
4, 549200, Note_on_c, 0, 41, 112
4, 549279, Note_on_c, 0, 41, 0
4, 549279, Note_on_c, 0, 29, 86
4, 549360, Note_on_c, 0, 29, 0
4, 549360, Note_on_c, 0, 41, 86
4, 549440, Note_on_c, 0, 41, 0
4, 549440, Note_on_c, 0, 29, 86
4, 549519, Note_on_c, 0, 29, 0
4, 549519, Note_on_c, 0, 41, 86
4, 549600, Note_on_c, 0, 41, 0
4, 549600, Note_on_c, 0, 29, 86
4, 549680, Note_on_c, 0, 29, 0
4, 549680, Note_on_c, 0, 41, 86
4, 549759, Note_on_c, 0, 41, 0
4, 549759, Note_on_c, 0, 29, 86
4, 549840, Note_on_c, 0, 29, 0
4, 549840, Note_on_c, 0, 41, 86
4, 549920, Note_on_c, 0, 41, 0
4, 549920, Note_on_c, 0, 29, 86
4, 549999, Note_on_c, 0, 29, 0
4, 549999, Note_on_c, 0, 41, 86
4, 550080, Note_on_c, 0, 41, 0
4, 550080, Note_on_c, 0, 29, 86
4, 550160, Note_on_c, 0, 29, 0
4, 550160, Note_on_c, 0, 41, 86
4, 550239, Note_on_c, 0, 41, 0
4, 550239, Note_on_c, 0, 29, 86
4, 550320, Note_on_c, 0, 29, 0
4, 550320, Note_on_c, 0, 41, 86
4, 550400, Note_on_c, 0, 41, 0
4, 550400, Note_on_c, 0, 29, 86
4, 550479, Note_on_c, 0, 29, 0
4, 550479, Note_on_c, 0, 41, 86
4, 550560, Note_on_c, 0, 41, 0
4, 550560, Note_on_c, 0, 29, 86
4, 550640, Note_on_c, 0, 29, 0
4, 550640, Note_on_c, 0, 41, 86
4, 550719, Note_on_c, 0, 41, 0
4, 550719, Note_on_c, 0, 29, 86
4, 550800, Note_on_c, 0, 29, 0
4, 550800, Note_on_c, 0, 41, 86
4, 550880, Note_on_c, 0, 41, 0
4, 550880, Note_on_c, 0, 29, 86
4, 550959, Note_on_c, 0, 29, 0
4, 550959, Note_on_c, 0, 41, 86
4, 551040, Note_on_c, 0, 41, 0
4, 551040, Note_on_c, 0, 29, 86
4, 551120, Note_on_c, 0, 29, 0
4, 551120, Note_on_c, 0, 41, 86
4, 551199, Note_on_c, 0, 41, 0
4, 551199, Note_on_c, 0, 29, 86
4, 551280, Note_on_c, 0, 29, 0
4, 551280, Note_on_c, 0, 41, 86
4, 551360, Note_on_c, 0, 41, 0
4, 551360, Note_on_c, 0, 29, 86
4, 551439, Note_on_c, 0, 29, 0
4, 551439, Note_on_c, 0, 41, 86
4, 551520, Note_on_c, 0, 41, 0
4, 551520, Note_on_c, 0, 29, 86
4, 551600, Note_on_c, 0, 29, 0
4, 551600, Note_on_c, 0, 41, 86
4, 551679, Note_on_c, 0, 41, 0
4, 551679, Note_on_c, 0, 29, 86
4, 551760, Note_on_c, 0, 29, 0
4, 551760, Note_on_c, 0, 41, 86
4, 551840, Note_on_c, 0, 41, 0
4, 551840, Note_on_c, 0, 29, 86
4, 551919, Note_on_c, 0, 29, 0
4, 551919, Control_c, 0, 64, 0
4, 551919, Note_on_c, 0, 41, 86
4, 552000, Note_on_c, 0, 41, 0
4, 552000, End_track
5, 0, Start_track
5, 0, Title_t, "Grand Piano"
5, 0, Program_c, 0, 0
5, 0, Control_c, 0, 7, 115
5, 0, Control_c, 0, 10, 47
5, 15600, Note_on_c, 0, 43, 83
5, 15840, Note_on_c, 0, 43, 0
5, 15840, Note_on_c, 0, 36, 83
5, 16080, Note_on_c, 0, 36, 0
5, 16560, Note_on_c, 0, 43, 83
5, 16800, Note_on_c, 0, 43, 0
5, 16800, Note_on_c, 0, 36, 83
5, 17040, Note_on_c, 0, 36, 0
5, 17520, Note_on_c, 0, 43, 70
5, 17760, Note_on_c, 0, 43, 0
5, 17760, Note_on_c, 0, 36, 70
5, 18000, Note_on_c, 0, 36, 0
5, 18480, Note_on_c, 0, 44, 70
5, 18720, Note_on_c, 0, 44, 0
5, 18720, Note_on_c, 0, 36, 70
5, 18960, Note_on_c, 0, 36, 0
5, 19440, Note_on_c, 0, 45, 70
5, 19680, Note_on_c, 0, 45, 0
5, 19680, Note_on_c, 0, 36, 70
5, 19920, Note_on_c, 0, 36, 0
5, 20400, Note_on_c, 0, 45, 70
5, 20640, Note_on_c, 0, 45, 0
5, 20640, Note_on_c, 0, 36, 70
5, 20880, Note_on_c, 0, 36, 0
5, 21360, Note_on_c, 0, 43, 70
5, 21600, Note_on_c, 0, 43, 0
5, 21600, Note_on_c, 0, 36, 70
5, 21840, Note_on_c, 0, 36, 0
5, 22320, Note_on_c, 0, 44, 70
5, 22560, Note_on_c, 0, 44, 0
5, 22560, Note_on_c, 0, 36, 70
5, 22800, Note_on_c, 0, 36, 0
5, 23280, Note_on_c, 0, 45, 70
5, 23520, Note_on_c, 0, 45, 0
5, 23520, Note_on_c, 0, 36, 70
5, 23760, Note_on_c, 0, 36, 0
5, 24240, Note_on_c, 0, 45, 70
5, 24480, Note_on_c, 0, 45, 0
5, 24480, Note_on_c, 0, 36, 70
5, 24720, Note_on_c, 0, 36, 0
5, 25200, Note_on_c, 0, 44, 70
5, 25440, Note_on_c, 0, 44, 0
5, 25440, Note_on_c, 0, 36, 70
5, 25680, Note_on_c, 0, 36, 0
5, 25680, Note_on_c, 0, 44, 70
5, 25920, Note_on_c, 0, 44, 0
5, 26160, Note_on_c, 0, 44, 70
5, 26400, Note_on_c, 0, 44, 0
5, 26400, Note_on_c, 0, 36, 70
5, 26640, Note_on_c, 0, 36, 0
5, 26640, Note_on_c, 0, 45, 70
5, 26880, Note_on_c, 0, 45, 0
5, 27120, Note_on_c, 0, 47, 70
5, 27360, Note_on_c, 0, 47, 0
5, 27360, Note_on_c, 0, 36, 70
5, 27600, Note_on_c, 0, 36, 0
5, 27600, Note_on_c, 0, 48, 70
5, 27840, Note_on_c, 0, 48, 0
5, 28080, Note_on_c, 0, 48, 70
5, 28320, Note_on_c, 0, 48, 0
5, 28320, Note_on_c, 0, 36, 70
5, 28560, Note_on_c, 0, 36, 0
5, 28560, Note_on_c, 0, 48, 70
5, 28800, Note_on_c, 0, 48, 0
5, 29040, Note_on_c, 0, 44, 70
5, 29280, Note_on_c, 0, 44, 0
5, 29280, Note_on_c, 0, 36, 70
5, 29520, Note_on_c, 0, 36, 0
5, 29520, Note_on_c, 0, 44, 70
5, 29760, Note_on_c, 0, 44, 0
5, 30000, Note_on_c, 0, 44, 70
5, 30240, Note_on_c, 0, 44, 0
5, 30240, Note_on_c, 0, 36, 70
5, 30480, Note_on_c, 0, 36, 0
5, 30480, Note_on_c, 0, 45, 70
5, 30720, Note_on_c, 0, 45, 0
5, 30960, Note_on_c, 0, 47, 70
5, 31200, Note_on_c, 0, 47, 0
5, 31200, Note_on_c, 0, 36, 70
5, 31440, Note_on_c, 0, 36, 0
5, 31440, Note_on_c, 0, 48, 70
5, 31680, Note_on_c, 0, 48, 0
5, 31920, Note_on_c, 0, 48, 70
5, 32160, Note_on_c, 0, 48, 0
5, 32160, Note_on_c, 0, 36, 70
5, 32400, Note_on_c, 0, 36, 0
5, 32400, Note_on_c, 0, 48, 70
5, 32640, Note_on_c, 0, 48, 0
5, 32880, Note_on_c, 0, 48, 70
5, 33120, Note_on_c, 0, 48, 0
5, 33120, Note_on_c, 0, 36, 70
5, 33360, Note_on_c, 0, 36, 0
5, 33360, Note_on_c, 0, 48, 70
5, 33600, Note_on_c, 0, 48, 0
5, 33840, Note_on_c, 0, 48, 70
5, 34080, Note_on_c, 0, 48, 0
5, 34080, Note_on_c, 0, 36, 70
5, 34320, Note_on_c, 0, 36, 0
5, 34320, Note_on_c, 0, 48, 70
5, 34560, Note_on_c, 0, 48, 0
5, 34800, Note_on_c, 0, 48, 70
5, 35040, Note_on_c, 0, 48, 0
5, 35040, Note_on_c, 0, 36, 70
5, 35280, Note_on_c, 0, 36, 0
5, 35280, Note_on_c, 0, 48, 70
5, 35520, Note_on_c, 0, 48, 0
5, 35760, Note_on_c, 0, 48, 70
5, 36000, Note_on_c, 0, 48, 0
5, 36000, Note_on_c, 0, 36, 70
5, 36240, Note_on_c, 0, 36, 0
5, 36240, Note_on_c, 0, 48, 70
5, 36480, Note_on_c, 0, 48, 0
5, 36720, Note_on_c, 0, 48, 70
5, 36960, Note_on_c, 0, 48, 0
5, 36960, Note_on_c, 0, 36, 70
5, 37200, Note_on_c, 0, 36, 0
5, 37200, Note_on_c, 0, 48, 70
5, 37440, Note_on_c, 0, 48, 0
5, 37680, Note_on_c, 0, 48, 70
5, 37920, Note_on_c, 0, 48, 0
5, 37920, Note_on_c, 0, 36, 70
5, 38160, Note_on_c, 0, 36, 0
5, 38160, Note_on_c, 0, 48, 70
5, 38400, Note_on_c, 0, 48, 0
5, 38640, Note_on_c, 0, 48, 70
5, 38880, Note_on_c, 0, 48, 0
5, 38880, Note_on_c, 0, 36, 70
5, 39120, Note_on_c, 0, 36, 0
5, 39120, Note_on_c, 0, 48, 70
5, 39360, Note_on_c, 0, 48, 0
5, 39600, Note_on_c, 0, 48, 70
5, 39840, Note_on_c, 0, 48, 0
5, 39840, Note_on_c, 0, 36, 70
5, 40080, Note_on_c, 0, 36, 0
5, 40080, Note_on_c, 0, 48, 70
5, 40320, Note_on_c, 0, 48, 0
5, 40560, Note_on_c, 0, 48, 83
5, 40800, Note_on_c, 0, 48, 0
5, 40800, Note_on_c, 0, 36, 83
5, 41040, Note_on_c, 0, 36, 0
5, 41040, Note_on_c, 0, 48, 83
5, 41280, Note_on_c, 0, 48, 0
5, 41520, Note_on_c, 0, 48, 83
5, 41760, Note_on_c, 0, 48, 0
5, 41760, Note_on_c, 0, 36, 83
5, 42000, Note_on_c, 0, 36, 0
5, 42000, Note_on_c, 0, 48, 83
5, 42240, Note_on_c, 0, 48, 0
5, 42480, Note_on_c, 0, 48, 83
5, 42720, Note_on_c, 0, 48, 0
5, 42720, Note_on_c, 0, 36, 83
5, 42960, Note_on_c, 0, 36, 0
5, 42960, Note_on_c, 0, 48, 83
5, 43200, Note_on_c, 0, 48, 0
5, 43440, Note_on_c, 0, 48, 83
5, 43680, Note_on_c, 0, 48, 0
5, 43680, Note_on_c, 0, 36, 83
5, 43920, Note_on_c, 0, 36, 0
5, 43920, Note_on_c, 0, 48, 83
5, 44160, Note_on_c, 0, 48, 0
5, 44400, Note_on_c, 0, 48, 83
5, 44640, Note_on_c, 0, 48, 0
5, 44640, Note_on_c, 0, 36, 83
5, 44880, Note_on_c, 0, 36, 0
5, 44880, Note_on_c, 0, 48, 83
5, 45120, Note_on_c, 0, 48, 0
5, 45360, Note_on_c, 0, 48, 83
5, 45600, Note_on_c, 0, 48, 0
5, 45600, Note_on_c, 0, 36, 83
5, 45840, Note_on_c, 0, 36, 0
5, 45840, Note_on_c, 0, 48, 83
5, 46080, Note_on_c, 0, 48, 0
5, 46320, Note_on_c, 0, 48, 83
5, 46560, Note_on_c, 0, 48, 0
5, 46560, Note_on_c, 0, 36, 83
5, 46800, Note_on_c, 0, 36, 0
5, 46800, Note_on_c, 0, 48, 83
5, 47040, Note_on_c, 0, 48, 0
5, 47280, Note_on_c, 0, 48, 83
5, 47520, Note_on_c, 0, 48, 0
5, 47520, Note_on_c, 0, 36, 83
5, 47760, Note_on_c, 0, 36, 0
5, 47760, Note_on_c, 0, 48, 83
5, 48000, Note_on_c, 0, 48, 0
5, 55680, Note_on_c, 0, 53, 83
5, 55680, Note_on_c, 0, 57, 83
5, 55920, Note_on_c, 0, 57, 0
5, 55920, Note_on_c, 0, 53, 0
5, 55920, Note_on_c, 0, 53, 83
5, 55920, Note_on_c, 0, 57, 83
5, 56160, Note_on_c, 0, 57, 0
5, 56160, Note_on_c, 0, 53, 0
5, 56160, Note_on_c, 0, 53, 83
5, 56160, Note_on_c, 0, 57, 83
5, 56400, Note_on_c, 0, 57, 0
5, 56400, Note_on_c, 0, 53, 0
5, 56400, Note_on_c, 0, 53, 83
5, 56400, Note_on_c, 0, 57, 83
5, 56640, Note_on_c, 0, 57, 0
5, 56640, Note_on_c, 0, 53, 0
5, 56640, Note_on_c, 0, 53, 83
5, 56640, Note_on_c, 0, 57, 83
5, 56880, Note_on_c, 0, 57, 0
5, 56880, Note_on_c, 0, 53, 0
5, 56880, Note_on_c, 0, 53, 83
5, 56880, Note_on_c, 0, 57, 83
5, 57120, Note_on_c, 0, 57, 0
5, 57120, Note_on_c, 0, 53, 0
5, 57120, Note_on_c, 0, 53, 83
5, 57120, Note_on_c, 0, 57, 83
5, 57360, Note_on_c, 0, 57, 0
5, 57360, Note_on_c, 0, 53, 0
5, 57360, Note_on_c, 0, 53, 83
5, 57360, Note_on_c, 0, 57, 83
5, 57600, Note_on_c, 0, 57, 0
5, 57600, Note_on_c, 0, 53, 0
5, 63360, Note_on_c, 0, 50, 83
5, 63600, Note_on_c, 0, 50, 0
5, 63600, Note_on_c, 0, 50, 83
5, 63600, Note_on_c, 0, 53, 83
5, 63600, Note_on_c, 0, 57, 83
5, 63840, Note_on_c, 0, 57, 0
5, 63840, Note_on_c, 0, 53, 0
5, 63840, Note_on_c, 0, 50, 0
5, 63840, Note_on_c, 0, 50, 83
5, 63840, Note_on_c, 0, 53, 83
5, 63840, Note_on_c, 0, 57, 83
5, 64080, Note_on_c, 0, 57, 0
5, 64080, Note_on_c, 0, 53, 0
5, 64080, Note_on_c, 0, 50, 0
5, 64080, Note_on_c, 0, 50, 83
5, 64080, Note_on_c, 0, 53, 83
5, 64080, Note_on_c, 0, 57, 83
5, 64320, Note_on_c, 0, 57, 0
5, 64320, Note_on_c, 0, 53, 0
5, 64320, Note_on_c, 0, 50, 0
5, 64320, Note_on_c, 0, 50, 83
5, 64320, Note_on_c, 0, 53, 83
5, 64320, Note_on_c, 0, 57, 83
5, 64560, Note_on_c, 0, 57, 0
5, 64560, Note_on_c, 0, 53, 0
5, 64560, Note_on_c, 0, 50, 0
5, 64560, Note_on_c, 0, 50, 83
5, 64560, Note_on_c, 0, 53, 83
5, 64560, Note_on_c, 0, 57, 83
5, 64800, Note_on_c, 0, 57, 0
5, 64800, Note_on_c, 0, 53, 0
5, 64800, Note_on_c, 0, 50, 0
5, 64800, Note_on_c, 0, 50, 83
5, 64800, Note_on_c, 0, 53, 83
5, 64800, Note_on_c, 0, 57, 83
5, 65040, Note_on_c, 0, 57, 0
5, 65040, Note_on_c, 0, 53, 0
5, 65040, Note_on_c, 0, 50, 0
5, 65040, Note_on_c, 0, 50, 83
5, 65040, Note_on_c, 0, 53, 83
5, 65040, Note_on_c, 0, 57, 83
5, 65280, Note_on_c, 0, 57, 0
5, 65280, Note_on_c, 0, 53, 0
5, 65280, Note_on_c, 0, 50, 0
5, 130560, Note_on_c, 0, 65, 109
5, 131040, Note_on_c, 0, 65, 0
5, 131040, Note_on_c, 0, 61, 83
5, 131280, Note_on_c, 0, 61, 0
5, 134400, Note_on_c, 0, 65, 109
5, 134880, Note_on_c, 0, 65, 0
5, 134880, Note_on_c, 0, 61, 83
5, 135120, Note_on_c, 0, 61, 0
5, 138240, Note_on_c, 0, 65, 109
5, 138720, Note_on_c, 0, 65, 0
5, 138720, Note_on_c, 0, 61, 83
5, 138960, Note_on_c, 0, 61, 0
5, 142080, Note_on_c, 0, 65, 109
5, 142560, Note_on_c, 0, 65, 0
5, 142560, Note_on_c, 0, 61, 83
5, 142800, Note_on_c, 0, 61, 0
5, 144960, Note_on_c, 0, 54, 83
5, 144960, Note_on_c, 0, 60, 83
5, 145440, Note_on_c, 0, 60, 0
5, 145440, Note_on_c, 0, 54, 0
5, 145440, Note_on_c, 0, 53, 83
5, 145440, Note_on_c, 0, 58, 83
5, 145920, Note_on_c, 0, 58, 0
5, 145920, Note_on_c, 0, 53, 0
5, 145920, Note_on_c, 0, 46, 83
5, 146880, Note_on_c, 0, 46, 0
5, 147840, Note_on_c, 0, 46, 83
5, 149760, Note_on_c, 0, 46, 0
5, 149760, Note_on_c, 0, 46, 83
5, 151680, Note_on_c, 0, 46, 0
5, 151680, Note_on_c, 0, 46, 83
5, 151680, Note_on_c, 0, 53, 83
5, 153600, Note_on_c, 0, 53, 0
5, 153600, Note_on_c, 0, 46, 0
5, 153600, Note_on_c, 0, 46, 83
5, 155520, Note_on_c, 0, 46, 0
5, 155520, Note_on_c, 0, 46, 83
5, 155520, Note_on_c, 0, 53, 83
5, 157440, Note_on_c, 0, 53, 0
5, 157440, Note_on_c, 0, 46, 0
5, 157440, Note_on_c, 0, 46, 83
5, 159360, Note_on_c, 0, 46, 0
5, 174720, Note_on_c, 0, 49, 57
5, 174720, Note_on_c, 0, 56, 57
5, 176640, Note_on_c, 0, 56, 0
5, 176640, Note_on_c, 0, 49, 0
5, 178560, Note_on_c, 0, 49, 57
5, 178560, Note_on_c, 0, 56, 57
5, 180480, Note_on_c, 0, 56, 0
5, 180480, Note_on_c, 0, 49, 0
5, 182400, Note_on_c, 0, 51, 57
5, 182400, Note_on_c, 0, 58, 57
5, 183360, Note_on_c, 0, 58, 0
5, 183360, Note_on_c, 0, 51, 0
5, 183360, Note_on_c, 0, 56, 57
5, 184320, Note_on_c, 0, 56, 0
5, 186240, Note_on_c, 0, 51, 57
5, 186240, Note_on_c, 0, 58, 57
5, 187200, Note_on_c, 0, 58, 0
5, 187200, Note_on_c, 0, 51, 0
5, 187200, Note_on_c, 0, 56, 57
5, 188160, Note_on_c, 0, 56, 0
5, 197760, Note_on_c, 0, 60, 96
5, 198240, Note_on_c, 0, 60, 0
5, 198240, Note_on_c, 0, 55, 96
5, 198360, Note_on_c, 0, 55, 0
5, 198360, Note_on_c, 0, 55, 96
5, 198480, Note_on_c, 0, 55, 0
5, 198480, Note_on_c, 0, 55, 96
5, 198600, Note_on_c, 0, 55, 0
5, 198600, Note_on_c, 0, 55, 96
5, 198720, Note_on_c, 0, 55, 0
5, 207360, Note_on_c, 0, 64, 96
5, 207840, Note_on_c, 0, 64, 0
5, 208320, Note_on_c, 0, 59, 96
5, 208440, Note_on_c, 0, 59, 0
5, 208440, Note_on_c, 0, 59, 96
5, 208560, Note_on_c, 0, 59, 0
5, 208560, Note_on_c, 0, 59, 96
5, 208680, Note_on_c, 0, 59, 0
5, 208680, Note_on_c, 0, 59, 96
5, 208800, Note_on_c, 0, 59, 0
5, 226560, Note_on_c, 0, 53, 83
5, 226560, Note_on_c, 0, 57, 83
5, 226800, Note_on_c, 0, 57, 0
5, 226800, Note_on_c, 0, 53, 0
5, 226800, Note_on_c, 0, 53, 83
5, 226800, Note_on_c, 0, 57, 83
5, 227040, Note_on_c, 0, 57, 0
5, 227040, Note_on_c, 0, 53, 0
5, 227040, Note_on_c, 0, 53, 83
5, 227040, Note_on_c, 0, 57, 83
5, 227280, Note_on_c, 0, 57, 0
5, 227280, Note_on_c, 0, 53, 0
5, 227280, Note_on_c, 0, 53, 83
5, 227280, Note_on_c, 0, 57, 83
5, 227520, Note_on_c, 0, 57, 0
5, 227520, Note_on_c, 0, 53, 0
5, 227520, Note_on_c, 0, 53, 83
5, 227520, Note_on_c, 0, 57, 83
5, 227760, Note_on_c, 0, 57, 0
5, 227760, Note_on_c, 0, 53, 0
5, 227760, Note_on_c, 0, 53, 83
5, 227760, Note_on_c, 0, 57, 83
5, 228000, Note_on_c, 0, 57, 0
5, 228000, Note_on_c, 0, 53, 0
5, 228000, Note_on_c, 0, 53, 83
5, 228000, Note_on_c, 0, 57, 83
5, 228240, Note_on_c, 0, 57, 0
5, 228240, Note_on_c, 0, 53, 0
5, 228240, Note_on_c, 0, 53, 83
5, 228240, Note_on_c, 0, 57, 83
5, 228480, Note_on_c, 0, 57, 0
5, 228480, Note_on_c, 0, 53, 0
5, 234240, Note_on_c, 0, 50, 83
5, 234480, Note_on_c, 0, 50, 0
5, 234480, Note_on_c, 0, 50, 83
5, 234480, Note_on_c, 0, 53, 83
5, 234480, Note_on_c, 0, 57, 83
5, 234720, Note_on_c, 0, 57, 0
5, 234720, Note_on_c, 0, 53, 0
5, 234720, Note_on_c, 0, 50, 0
5, 234720, Note_on_c, 0, 50, 83
5, 234720, Note_on_c, 0, 53, 83
5, 234720, Note_on_c, 0, 57, 83
5, 234960, Note_on_c, 0, 57, 0
5, 234960, Note_on_c, 0, 53, 0
5, 234960, Note_on_c, 0, 50, 0
5, 234960, Note_on_c, 0, 50, 83
5, 234960, Note_on_c, 0, 53, 83
5, 234960, Note_on_c, 0, 57, 83
5, 235200, Note_on_c, 0, 57, 0
5, 235200, Note_on_c, 0, 53, 0
5, 235200, Note_on_c, 0, 50, 0
5, 235200, Note_on_c, 0, 50, 83
5, 235200, Note_on_c, 0, 53, 83
5, 235200, Note_on_c, 0, 57, 83
5, 235440, Note_on_c, 0, 57, 0
5, 235440, Note_on_c, 0, 53, 0
5, 235440, Note_on_c, 0, 50, 0
5, 235440, Note_on_c, 0, 50, 83
5, 235440, Note_on_c, 0, 53, 83
5, 235440, Note_on_c, 0, 57, 83
5, 235680, Note_on_c, 0, 57, 0
5, 235680, Note_on_c, 0, 53, 0
5, 235680, Note_on_c, 0, 50, 0
5, 235680, Note_on_c, 0, 50, 83
5, 235680, Note_on_c, 0, 53, 83
5, 235680, Note_on_c, 0, 57, 83
5, 235920, Note_on_c, 0, 57, 0
5, 235920, Note_on_c, 0, 53, 0
5, 235920, Note_on_c, 0, 50, 0
5, 235920, Note_on_c, 0, 50, 83
5, 235920, Note_on_c, 0, 53, 83
5, 235920, Note_on_c, 0, 57, 83
5, 236160, Note_on_c, 0, 57, 0
5, 236160, Note_on_c, 0, 53, 0
5, 236160, Note_on_c, 0, 50, 0
5, 303360, Note_on_c, 0, 50, 70
5, 303360, Note_on_c, 0, 57, 70
5, 303840, Note_on_c, 0, 57, 0
5, 303840, Note_on_c, 0, 50, 0
5, 307200, Note_on_c, 0, 50, 70
5, 308160, Note_on_c, 0, 50, 0
5, 311040, Note_on_c, 0, 50, 70
5, 312000, Note_on_c, 0, 50, 0
5, 314880, Note_on_c, 0, 47, 70
5, 314880, Note_on_c, 0, 55, 70
5, 315840, Note_on_c, 0, 55, 0
5, 315840, Note_on_c, 0, 47, 0
5, 317760, Note_on_c, 0, 44, 70
5, 317760, Note_on_c, 0, 50, 70
5, 317760, Note_on_c, 0, 53, 70
5, 317760, Note_on_c, 0, 56, 70
5, 318240, Note_on_c, 0, 56, 0
5, 318240, Note_on_c, 0, 44, 0
5, 318240, Note_on_c, 0, 50, 0
5, 318240, Note_on_c, 0, 53, 0
5, 318240, Note_on_c, 0, 44, 70
5, 318240, Note_on_c, 0, 50, 70
5, 318240, Note_on_c, 0, 53, 70
5, 318240, Note_on_c, 0, 56, 70
5, 318720, Note_on_c, 0, 56, 0
5, 318720, Note_on_c, 0, 44, 0
5, 318720, Note_on_c, 0, 50, 0
5, 318720, Note_on_c, 0, 53, 0
5, 318720, Note_on_c, 0, 43, 70
5, 318720, Note_on_c, 0, 53, 70
5, 319200, Note_on_c, 0, 53, 0
5, 319200, Note_on_c, 0, 43, 0
5, 321600, Note_on_c, 0, 48, 70
5, 321600, Note_on_c, 0, 52, 70
5, 322080, Note_on_c, 0, 52, 0
5, 322080, Note_on_c, 0, 48, 0
5, 322080, Note_on_c, 0, 48, 70
5, 322080, Note_on_c, 0, 52, 70
5, 322560, Note_on_c, 0, 52, 0
5, 322560, Note_on_c, 0, 48, 0
5, 322560, Control_c, 0, 64, 127
5, 322560, Note_on_c, 0, 57, 70
5, 323040, Note_on_c, 0, 57, 0
5, 323040, Note_on_c, 0, 56, 70
5, 323520, Note_on_c, 0, 56, 0
5, 323520, Note_on_c, 0, 55, 70
5, 324000, Note_on_c, 0, 55, 0
5, 324000, Control_c, 0, 64, 0
5, 324000, Note_on_c, 0, 54, 70
5, 324480, Note_on_c, 0, 54, 0
5, 326400, Control_c, 0, 64, 127
5, 326400, Note_on_c, 0, 57, 70
5, 326880, Note_on_c, 0, 57, 0
5, 326880, Note_on_c, 0, 56, 70
5, 327360, Note_on_c, 0, 56, 0
5, 327360, Note_on_c, 0, 55, 70
5, 327840, Note_on_c, 0, 55, 0
5, 327840, Control_c, 0, 64, 0
5, 327840, Note_on_c, 0, 54, 70
5, 328320, Note_on_c, 0, 54, 0
5, 346320, Note_on_c, 0, 57, 83
5, 346440, Note_on_c, 0, 57, 0
5, 346440, Note_on_c, 0, 56, 83
5, 346560, Note_on_c, 0, 56, 0
5, 348240, Note_on_c, 0, 57, 83
5, 348360, Note_on_c, 0, 57, 0
5, 348360, Note_on_c, 0, 56, 83
5, 348480, Note_on_c, 0, 56, 0
5, 350160, Note_on_c, 0, 58, 83
5, 350280, Note_on_c, 0, 58, 0
5, 350280, Note_on_c, 0, 57, 83
5, 350400, Note_on_c, 0, 57, 0
5, 352080, Note_on_c, 0, 58, 83
5, 352200, Note_on_c, 0, 58, 0
5, 352200, Note_on_c, 0, 57, 83
5, 352320, Note_on_c, 0, 57, 0
5, 353280, Note_on_c, 0, 43, 109
5, 353280, Note_on_c, 0, 50, 109
5, 353280, Note_on_c, 0, 55, 109
5, 353760, Note_on_c, 0, 55, 0
5, 353760, Note_on_c, 0, 50, 0
5, 353760, Note_on_c, 0, 43, 0
5, 354240, Note_on_c, 0, 43, 109
5, 354240, Note_on_c, 0, 50, 109
5, 354240, Note_on_c, 0, 55, 109
5, 354720, Note_on_c, 0, 55, 0
5, 354720, Note_on_c, 0, 50, 0
5, 354720, Note_on_c, 0, 43, 0
5, 359040, Note_on_c, 0, 45, 96
5, 359520, Note_on_c, 0, 45, 0
5, 359520, Note_on_c, 0, 55, 96
5, 360000, Note_on_c, 0, 55, 0
5, 360960, Note_on_c, 0, 50, 96
5, 361200, Note_on_c, 0, 50, 0
5, 361200, Note_on_c, 0, 50, 96
5, 361440, Note_on_c, 0, 50, 0
5, 361440, Note_on_c, 0, 50, 96
5, 361680, Note_on_c, 0, 50, 0
5, 361680, Note_on_c, 0, 50, 96
5, 361920, Note_on_c, 0, 50, 0
5, 361920, Note_on_c, 0, 48, 96
5, 362400, Note_on_c, 0, 48, 0
5, 362400, Note_on_c, 0, 46, 96
5, 362880, Note_on_c, 0, 46, 0
5, 362880, Note_on_c, 0, 45, 96
5, 363360, Note_on_c, 0, 45, 0
5, 363360, Note_on_c, 0, 55, 96
5, 363840, Note_on_c, 0, 55, 0
5, 364800, Note_on_c, 0, 51, 96
5, 365040, Note_on_c, 0, 51, 0
5, 365040, Note_on_c, 0, 51, 96
5, 365280, Note_on_c, 0, 51, 0
5, 365280, Note_on_c, 0, 51, 96
5, 365520, Note_on_c, 0, 51, 0
5, 365520, Note_on_c, 0, 51, 96
5, 365760, Note_on_c, 0, 51, 0
5, 365760, Note_on_c, 0, 50, 96
5, 366240, Note_on_c, 0, 50, 0
5, 366240, Note_on_c, 0, 48, 96
5, 366480, Note_on_c, 0, 48, 0
5, 366480, Note_on_c, 0, 48, 96
5, 366720, Note_on_c, 0, 48, 0
5, 366720, Note_on_c, 0, 46, 96
5, 367200, Note_on_c, 0, 46, 0
5, 367200, Note_on_c, 0, 57, 96
5, 367680, Note_on_c, 0, 57, 0
5, 368640, Note_on_c, 0, 51, 96
5, 368880, Note_on_c, 0, 51, 0
5, 368880, Note_on_c, 0, 51, 96
5, 369120, Note_on_c, 0, 51, 0
5, 369120, Note_on_c, 0, 51, 96
5, 369360, Note_on_c, 0, 51, 0
5, 369360, Note_on_c, 0, 51, 96
5, 369600, Note_on_c, 0, 51, 0
5, 369600, Note_on_c, 0, 50, 96
5, 370080, Note_on_c, 0, 50, 0
5, 370080, Note_on_c, 0, 48, 96
5, 370320, Note_on_c, 0, 48, 0
5, 370320, Note_on_c, 0, 48, 96
5, 370560, Note_on_c, 0, 48, 0
5, 370560, Note_on_c, 0, 46, 96
5, 371040, Note_on_c, 0, 46, 0
5, 371040, Note_on_c, 0, 57, 96
5, 371520, Note_on_c, 0, 57, 0
5, 372480, Note_on_c, 0, 53, 96
5, 372720, Note_on_c, 0, 53, 0
5, 372720, Note_on_c, 0, 53, 96
5, 372960, Note_on_c, 0, 53, 0
5, 372960, Note_on_c, 0, 53, 96
5, 373200, Note_on_c, 0, 53, 0
5, 373200, Note_on_c, 0, 53, 96
5, 373440, Note_on_c, 0, 53, 0
5, 373440, Note_on_c, 0, 51, 96
5, 373920, Note_on_c, 0, 51, 0
5, 373920, Note_on_c, 0, 50, 96
5, 374400, Note_on_c, 0, 50, 0
5, 374400, Note_on_c, 0, 55, 96
5, 374640, Note_on_c, 0, 55, 0
5, 374640, Note_on_c, 0, 55, 96
5, 374880, Note_on_c, 0, 55, 0
5, 374880, Note_on_c, 0, 55, 96
5, 375120, Note_on_c, 0, 55, 0
5, 375120, Note_on_c, 0, 55, 96
5, 375360, Note_on_c, 0, 55, 0
5, 375360, Note_on_c, 0, 53, 96
5, 375840, Note_on_c, 0, 53, 0
5, 375840, Note_on_c, 0, 51, 96
5, 376320, Note_on_c, 0, 51, 0
5, 376320, Note_on_c, 0, 56, 96
5, 376560, Note_on_c, 0, 56, 0
5, 376560, Note_on_c, 0, 56, 96
5, 376800, Note_on_c, 0, 56, 0
5, 376800, Note_on_c, 0, 56, 96
5, 377040, Note_on_c, 0, 56, 0
5, 377040, Note_on_c, 0, 56, 96
5, 377280, Note_on_c, 0, 56, 0
5, 377280, Note_on_c, 0, 54, 96
5, 377760, Note_on_c, 0, 54, 0
5, 377760, Note_on_c, 0, 53, 96
5, 378240, Note_on_c, 0, 53, 0
5, 378240, Note_on_c, 0, 56, 96
5, 378480, Note_on_c, 0, 56, 0
5, 378480, Note_on_c, 0, 56, 96
5, 378720, Note_on_c, 0, 56, 0
5, 378720, Note_on_c, 0, 56, 96
5, 378960, Note_on_c, 0, 56, 0
5, 378960, Note_on_c, 0, 56, 96
5, 379200, Note_on_c, 0, 56, 0
5, 379200, Note_on_c, 0, 54, 96
5, 379680, Note_on_c, 0, 54, 0
5, 379680, Note_on_c, 0, 53, 96
5, 380160, Note_on_c, 0, 53, 0
5, 464640, Note_on_c, 0, 53, 83
5, 464640, Note_on_c, 0, 57, 83
5, 464799, Note_on_c, 0, 57, 0
5, 464799, Note_on_c, 0, 53, 0
5, 464799, Note_on_c, 0, 53, 83
5, 464799, Note_on_c, 0, 57, 83
5, 464960, Note_on_c, 0, 57, 0
5, 464960, Note_on_c, 0, 53, 0
5, 464960, Note_on_c, 0, 53, 83
5, 464960, Note_on_c, 0, 57, 83
5, 465120, Note_on_c, 0, 57, 0
5, 465120, Note_on_c, 0, 53, 0
5, 465120, Note_on_c, 0, 53, 83
5, 465120, Note_on_c, 0, 57, 83
5, 465279, Note_on_c, 0, 57, 0
5, 465279, Note_on_c, 0, 53, 0
5, 465279, Note_on_c, 0, 53, 83
5, 465279, Note_on_c, 0, 57, 83
5, 465440, Note_on_c, 0, 57, 0
5, 465440, Note_on_c, 0, 53, 0
5, 465440, Note_on_c, 0, 53, 83
5, 465440, Note_on_c, 0, 57, 83
5, 465600, Note_on_c, 0, 57, 0
5, 465600, Note_on_c, 0, 53, 0
5, 465759, Note_on_c, 0, 53, 83
5, 465759, Note_on_c, 0, 57, 83
5, 465920, Note_on_c, 0, 57, 0
5, 465920, Note_on_c, 0, 53, 0
5, 465920, Note_on_c, 0, 53, 83
5, 465920, Note_on_c, 0, 57, 83
5, 466080, Note_on_c, 0, 57, 0
5, 466080, Note_on_c, 0, 53, 0
5, 466080, Note_on_c, 0, 53, 83
5, 466080, Note_on_c, 0, 57, 83
5, 466239, Note_on_c, 0, 57, 0
5, 466239, Note_on_c, 0, 53, 0
5, 466239, Note_on_c, 0, 53, 83
5, 466239, Note_on_c, 0, 57, 83
5, 466400, Note_on_c, 0, 57, 0
5, 466400, Note_on_c, 0, 53, 0
5, 472320, Note_on_c, 0, 57, 83
5, 472320, Note_on_c, 0, 60, 83
5, 472479, Note_on_c, 0, 60, 0
5, 472479, Note_on_c, 0, 57, 0
5, 472479, Note_on_c, 0, 57, 83
5, 472479, Note_on_c, 0, 60, 83
5, 472640, Note_on_c, 0, 60, 0
5, 472640, Note_on_c, 0, 57, 0
5, 472640, Note_on_c, 0, 57, 83
5, 472640, Note_on_c, 0, 60, 83
5, 472800, Note_on_c, 0, 60, 0
5, 472800, Note_on_c, 0, 57, 0
5, 472800, Note_on_c, 0, 57, 83
5, 472800, Note_on_c, 0, 60, 83
5, 472959, Note_on_c, 0, 60, 0
5, 472959, Note_on_c, 0, 57, 0
5, 472959, Note_on_c, 0, 57, 83
5, 472959, Note_on_c, 0, 60, 83
5, 473120, Note_on_c, 0, 60, 0
5, 473120, Note_on_c, 0, 57, 0
5, 473120, Note_on_c, 0, 57, 83
5, 473120, Note_on_c, 0, 60, 83
5, 473280, Note_on_c, 0, 60, 0
5, 473280, Note_on_c, 0, 57, 0
5, 473439, Note_on_c, 0, 57, 83
5, 473439, Note_on_c, 0, 60, 83
5, 473600, Note_on_c, 0, 60, 0
5, 473600, Note_on_c, 0, 57, 0
5, 473600, Note_on_c, 0, 57, 83
5, 473600, Note_on_c, 0, 60, 83
5, 473760, Note_on_c, 0, 60, 0
5, 473760, Note_on_c, 0, 57, 0
5, 473760, Note_on_c, 0, 57, 83
5, 473760, Note_on_c, 0, 60, 83
5, 473919, Note_on_c, 0, 60, 0
5, 473919, Note_on_c, 0, 57, 0
5, 473919, Note_on_c, 0, 57, 83
5, 473919, Note_on_c, 0, 60, 83
5, 474080, Note_on_c, 0, 60, 0
5, 474080, Note_on_c, 0, 57, 0
5, 547200, Control_c, 0, 64, 127
5, 547200, Note_on_c, 0, 41, 109
5, 547280, Note_on_c, 0, 41, 0
5, 547280, Note_on_c, 0, 53, 109
5, 547359, Note_on_c, 0, 53, 0
5, 547359, Note_on_c, 0, 41, 83
5, 547440, Note_on_c, 0, 41, 0
5, 547440, Note_on_c, 0, 53, 83
5, 547520, Note_on_c, 0, 53, 0
5, 547520, Note_on_c, 0, 41, 83
5, 547599, Note_on_c, 0, 41, 0
5, 547599, Note_on_c, 0, 53, 83
5, 547680, Note_on_c, 0, 53, 0
5, 547680, Note_on_c, 0, 41, 83
5, 547760, Note_on_c, 0, 41, 0
5, 547760, Note_on_c, 0, 53, 83
5, 547839, Note_on_c, 0, 53, 0
5, 547839, Note_on_c, 0, 41, 83
5, 547920, Note_on_c, 0, 41, 0
5, 547920, Note_on_c, 0, 53, 83
5, 548000, Note_on_c, 0, 53, 0
5, 548000, Note_on_c, 0, 41, 83
5, 548079, Note_on_c, 0, 41, 0
5, 548079, Note_on_c, 0, 53, 83
5, 548160, Note_on_c, 0, 53, 0
5, 548160, Note_on_c, 0, 41, 83
5, 548240, Note_on_c, 0, 41, 0
5, 548240, Note_on_c, 0, 53, 83
5, 548319, Note_on_c, 0, 53, 0
5, 548319, Note_on_c, 0, 41, 83
5, 548400, Note_on_c, 0, 41, 0
5, 548400, Note_on_c, 0, 53, 83
5, 548480, Note_on_c, 0, 53, 0
5, 548480, Note_on_c, 0, 41, 83
5, 548559, Note_on_c, 0, 41, 0
5, 548559, Note_on_c, 0, 53, 83
5, 548640, Note_on_c, 0, 53, 0
5, 548640, Note_on_c, 0, 41, 83
5, 548720, Note_on_c, 0, 41, 0
5, 548720, Note_on_c, 0, 53, 83
5, 548799, Note_on_c, 0, 53, 0
5, 548799, Note_on_c, 0, 41, 83
5, 548880, Note_on_c, 0, 41, 0
5, 548880, Note_on_c, 0, 53, 83
5, 548960, Note_on_c, 0, 53, 0
5, 548960, Control_c, 0, 64, 0
5, 548960, Note_on_c, 0, 41, 83
5, 549039, Note_on_c, 0, 41, 0
5, 549039, Note_on_c, 0, 53, 83
5, 549120, Note_on_c, 0, 53, 0
5, 549120, End_track
0, 0, End_of_file
