0, 0, Header, 1, 5, 480
1, 0, Start_track
1, 0, Title_t, "tchaikovsky symphony no5 mv2"
1, 0, Copyright_t, "Adaptation for Disklavier pianos, by: Robert C. Kuhmann (c) 2012."
1, 0, Text_t, "Seq. (c) by: Segundo G. Yogore, 2007\012"
1, 0, Time_signature, 12, 3, 12, 8
1, 0, Key_signature, 2, "major"
1, 0, Tempo, 740741
1, 34560, Tempo, 625000
1, 41760, Tempo, 740741
1, 43200, Tempo, 909091
1, 45360, Tempo, 740741
1, 51840, Tempo, 625000
1, 54720, Tempo, 909091
1, 56160, Tempo, 740741
1, 66240, Tempo, 666667
1, 92160, Tempo, 740741
1, 109440, Tempo, 625000
1, 122400, Tempo, 909091
1, 126720, Tempo, 740741
1, 138240, Tempo, 740741
1, 146880, Tempo, 582524
1, 167040, Tempo, 555556
1, 171360, Tempo, 740741
1, 172800, Tempo, 666667
1, 187200, Time_signature, 4, 2, 24, 8
1, 187200, Tempo, 600000
1, 244800, Tempo, 500000
1, 250560, Tempo, 600000
1, 265920, Time_signature, 5, 2, 24, 8
1, 268320, Time_signature, 12, 3, 12, 8
1, 268320, Tempo, 740741
1, 298560, Tempo, 909091
1, 302160, Tempo, 740741
1, 308640, Tempo, 625000
1, 311520, Tempo, 740741
1, 320160, Tempo, 625000
1, 324480, Tempo, 909091
1, 325200, Tempo, 740741
1, 325920, Time_signature, 4, 2, 24, 8
1, 325920, Tempo, 833333
1, 345120, Time_signature, 12, 3, 12, 8
1, 354720, Tempo, 869565
1, 354960, Tempo, 909091
1, 355200, Tempo, 952381
1, 355440, Tempo, 1016949
1, 355680, Tempo, 1071429
1, 355920, Tempo, 1132075
1, 356160, Tempo, 1200000
1, 356400, Tempo, 1304348
1, 356640, Time_signature, 4, 2, 24, 8
1, 356640, Tempo, 909091
1, 360480, Tempo, 789474
1, 363360, Tempo, 909091
1, 364320, Tempo, 909091
1, 368160, Tempo, 789474
1, 370080, Tempo, 869565
1, 377760, Tempo, 1153846
1, 379680, Tempo, 909091
1, 381600, Tempo, 1153846
1, 383520, Time_signature, 12, 3, 12, 8
1, 383520, Tempo, 833333
1, 386400, Tempo, 833333
1, 387840, Tempo, 1153846
1, 389280, Time_signature, 4, 2, 24, 8
1, 389280, Tempo, 454545
1, 404160, Tempo, 600000
1, 412320, Time_signature, 12, 3, 12, 8
1, 412320, Tempo, 740741
1, 446880, Time_signature, 4, 2, 24, 8
1, 448800, Time_signature, 12, 3, 12, 8
1, 451680, Time_signature, 8, 2, 24, 8
1, 451680, End_track
2, 0, Start_track
2, 0, Title_t, "Grand Piano"
2, 0, Program_c, 0, 0
2, 0, Control_c, 0, 7, 115
2, 0, Control_c, 0, 10, 86
2, 0, Note_on_c, 0, 47, 54
2, 0, Note_on_c, 0, 50, 54
2, 1440, Note_on_c, 0, 50, 0
2, 1440, Note_on_c, 0, 47, 0
2, 1440, Note_on_c, 0, 47, 54
2, 1440, Note_on_c, 0, 52, 54
2, 2880, Note_on_c, 0, 52, 0
2, 2880, Note_on_c, 0, 47, 0
2, 2880, Note_on_c, 0, 47, 54
2, 2880, Note_on_c, 0, 54, 54
2, 4320, Note_on_c, 0, 54, 0
2, 4320, Note_on_c, 0, 47, 0
2, 4320, Note_on_c, 0, 47, 67
2, 4320, Note_on_c, 0, 55, 67
2, 5760, Note_on_c, 0, 55, 0
2, 5760, Note_on_c, 0, 47, 0
2, 5760, Note_on_c, 0, 47, 67
2, 5760, Note_on_c, 0, 54, 67
2, 7200, Note_on_c, 0, 54, 0
2, 7200, Note_on_c, 0, 47, 0
2, 7200, Note_on_c, 0, 47, 54
2, 7200, Note_on_c, 0, 52, 54
2, 8640, Note_on_c, 0, 52, 0
2, 8640, Note_on_c, 0, 47, 0
2, 8640, Note_on_c, 0, 47, 54
2, 8640, Note_on_c, 0, 50, 54
2, 10080, Note_on_c, 0, 50, 0
2, 10080, Note_on_c, 0, 47, 0
2, 10080, Note_on_c, 0, 47, 54
2, 10080, Note_on_c, 0, 52, 54
2, 11520, Note_on_c, 0, 52, 0
2, 11520, Note_on_c, 0, 47, 0
2, 11520, Note_on_c, 0, 50, 54
2, 11520, Note_on_c, 0, 54, 54
2, 12960, Note_on_c, 0, 54, 0
2, 12960, Note_on_c, 0, 50, 0
2, 12960, Note_on_c, 0, 50, 54
2, 12960, Note_on_c, 0, 55, 54
2, 14400, Note_on_c, 0, 55, 0
2, 14400, Note_on_c, 0, 50, 0
2, 14400, Note_on_c, 0, 50, 54
2, 14400, Note_on_c, 0, 54, 54
2, 14400, Note_on_c, 0, 57, 54
2, 15840, Note_on_c, 0, 57, 0
2, 15840, Note_on_c, 0, 54, 0
2, 15840, Note_on_c, 0, 50, 0
2, 15840, Note_on_c, 0, 50, 67
2, 15840, Note_on_c, 0, 52, 67
2, 15840, Note_on_c, 0, 55, 67
2, 15840, Note_on_c, 0, 59, 67
2, 17280, Note_on_c, 0, 59, 0
2, 17280, Note_on_c, 0, 50, 0
2, 17280, Note_on_c, 0, 52, 0
2, 17280, Note_on_c, 0, 55, 0
2, 17280, Note_on_c, 0, 49, 67
2, 17280, Note_on_c, 0, 52, 67
2, 17280, Note_on_c, 0, 55, 67
2, 17280, Note_on_c, 0, 57, 67
2, 18720, Note_on_c, 0, 57, 0
2, 18720, Note_on_c, 0, 49, 0
2, 18720, Note_on_c, 0, 52, 0
2, 18720, Note_on_c, 0, 55, 0
2, 18720, Note_on_c, 0, 50, 54
2, 18720, Note_on_c, 0, 54, 54
2, 18720, Note_on_c, 0, 57, 54
2, 20160, Note_on_c, 0, 57, 0
2, 20160, Note_on_c, 0, 54, 0
2, 20160, Note_on_c, 0, 50, 0
2, 22320, Note_on_c, 0, 62, 67
2, 22560, Note_on_c, 0, 62, 0
2, 22560, Note_on_c, 0, 61, 67
2, 22800, Note_on_c, 0, 61, 0
2, 22800, Note_on_c, 0, 59, 80
2, 23040, Note_on_c, 0, 59, 0
2, 23040, Note_on_c, 0, 62, 80
2, 23760, Note_on_c, 0, 62, 0
2, 23760, Note_on_c, 0, 61, 54
2, 25200, Note_on_c, 0, 61, 0
2, 25200, Note_on_c, 0, 57, 54
2, 25440, Note_on_c, 0, 57, 0
2, 25440, Note_on_c, 0, 59, 54
2, 25680, Note_on_c, 0, 59, 0
2, 25680, Note_on_c, 0, 61, 80
2, 25920, Note_on_c, 0, 61, 0
2, 25920, Note_on_c, 0, 64, 80
2, 26640, Note_on_c, 0, 64, 0
2, 26640, Note_on_c, 0, 62, 54
2, 28080, Note_on_c, 0, 62, 0
2, 28080, Note_on_c, 0, 62, 54
2, 28320, Note_on_c, 0, 62, 0
2, 28320, Note_on_c, 0, 64, 54
2, 28560, Note_on_c, 0, 64, 0
2, 28560, Note_on_c, 0, 66, 80
2, 28800, Note_on_c, 0, 66, 0
2, 28800, Note_on_c, 0, 67, 80
2, 29520, Note_on_c, 0, 67, 0
2, 29520, Note_on_c, 0, 67, 54
2, 30000, Note_on_c, 0, 67, 0
2, 30000, Note_on_c, 0, 67, 54
2, 30240, Note_on_c, 0, 67, 0
2, 30240, Note_on_c, 0, 67, 67
2, 31440, Note_on_c, 0, 67, 0
2, 31440, Note_on_c, 0, 67, 80
2, 31680, Note_on_c, 0, 67, 0
2, 31680, Note_on_c, 0, 67, 80
2, 32400, Note_on_c, 0, 67, 0
2, 32400, Note_on_c, 0, 66, 67
2, 33120, Note_on_c, 0, 66, 0
2, 33840, Note_on_c, 0, 62, 67
2, 34080, Note_on_c, 0, 62, 0
2, 34080, Note_on_c, 0, 61, 67
2, 34320, Note_on_c, 0, 61, 0
2, 34320, Note_on_c, 0, 59, 80
2, 34560, Note_on_c, 0, 59, 0
2, 34560, Note_on_c, 0, 62, 80
2, 35280, Note_on_c, 0, 62, 0
2, 35280, Note_on_c, 0, 61, 54
2, 36720, Note_on_c, 0, 61, 0
2, 36720, Note_on_c, 0, 57, 54
2, 36960, Note_on_c, 0, 57, 0
2, 36960, Note_on_c, 0, 59, 54
2, 37200, Note_on_c, 0, 59, 0
2, 37200, Note_on_c, 0, 61, 80
2, 37440, Note_on_c, 0, 61, 0
2, 37440, Note_on_c, 0, 64, 80
2, 38160, Note_on_c, 0, 64, 0
2, 38160, Note_on_c, 0, 62, 54
2, 39600, Note_on_c, 0, 62, 0
2, 39600, Note_on_c, 0, 62, 80
2, 39840, Note_on_c, 0, 62, 0
2, 39840, Note_on_c, 0, 64, 80
2, 40080, Note_on_c, 0, 64, 0
2, 40080, Note_on_c, 0, 66, 80
2, 40320, Note_on_c, 0, 66, 0
2, 40320, Note_on_c, 0, 68, 80
2, 41040, Note_on_c, 0, 68, 0
2, 41040, Note_on_c, 0, 68, 54
2, 41520, Note_on_c, 0, 68, 0
2, 41520, Note_on_c, 0, 68, 67
2, 41760, Note_on_c, 0, 68, 0
2, 41760, Note_on_c, 0, 68, 80
2, 42960, Note_on_c, 0, 68, 0
2, 42960, Note_on_c, 0, 68, 80
2, 43200, Note_on_c, 0, 68, 0
2, 43200, Note_on_c, 0, 68, 80
2, 43440, Note_on_c, 0, 68, 0
2, 43440, Note_on_c, 0, 71, 80
2, 43680, Note_on_c, 0, 71, 0
2, 43680, Note_on_c, 0, 69, 93
2, 43920, Note_on_c, 0, 69, 0
2, 43920, Note_on_c, 0, 69, 67
2, 45360, Note_on_c, 0, 69, 0
2, 45360, Note_on_c, 0, 66, 93
2, 45600, Note_on_c, 0, 66, 0
2, 45600, Note_on_c, 0, 67, 93
2, 45840, Note_on_c, 0, 67, 0
2, 45840, Note_on_c, 0, 69, 106
2, 46080, Note_on_c, 0, 69, 0
2, 46080, Note_on_c, 0, 69, 80
2, 46800, Note_on_c, 0, 69, 0
2, 46800, Note_on_c, 0, 59, 67
2, 48240, Note_on_c, 0, 59, 0
2, 48240, Note_on_c, 0, 64, 93
2, 48480, Note_on_c, 0, 64, 0
2, 48480, Note_on_c, 0, 66, 93
2, 48720, Note_on_c, 0, 66, 0
2, 48720, Note_on_c, 0, 67, 106
2, 48960, Note_on_c, 0, 67, 0
2, 48960, Note_on_c, 0, 67, 80
2, 49680, Note_on_c, 0, 67, 0
2, 49680, Note_on_c, 0, 57, 67
2, 51120, Note_on_c, 0, 57, 0
2, 51120, Note_on_c, 0, 62, 93
2, 51360, Note_on_c, 0, 62, 0
2, 51360, Note_on_c, 0, 64, 93
2, 51600, Note_on_c, 0, 64, 0
2, 51600, Note_on_c, 0, 66, 93
2, 51840, Note_on_c, 0, 66, 0
2, 51840, Note_on_c, 0, 66, 67
2, 52560, Note_on_c, 0, 66, 0
2, 52560, Note_on_c, 0, 66, 67
2, 53040, Note_on_c, 0, 66, 0
2, 53040, Note_on_c, 0, 66, 80
2, 53190, Note_on_c, 0, 52, 80
2, 53220, Note_on_c, 0, 59, 80
2, 53250, Note_on_c, 0, 62, 80
2, 53280, Note_on_c, 0, 66, 0
2, 53280, Note_on_c, 0, 66, 80
2, 54000, Note_on_c, 0, 52, 0
2, 54000, Note_on_c, 0, 62, 0
2, 54000, Note_on_c, 0, 59, 0
2, 54480, Note_on_c, 0, 66, 0
2, 54480, Note_on_c, 0, 64, 80
2, 54640, Note_on_c, 0, 57, 80
2, 54680, Note_on_c, 0, 62, 80
2, 54720, Note_on_c, 0, 64, 0
2, 54720, Note_on_c, 0, 71, 80
2, 55080, Note_on_c, 0, 71, 0
2, 55080, Note_on_c, 0, 62, 0
2, 55080, Note_on_c, 0, 57, 0
2, 55080, Note_on_c, 0, 69, 106
2, 55680, Note_on_c, 0, 69, 0
2, 55680, Note_on_c, 0, 57, 67
2, 55727, Note_on_c, 0, 57, 0
2, 55920, Note_on_c, 0, 59, 67
2, 55967, Note_on_c, 0, 59, 0
2, 56160, Note_on_c, 0, 61, 67
2, 56207, Note_on_c, 0, 61, 0
2, 56400, Note_on_c, 0, 62, 67
2, 56447, Note_on_c, 0, 62, 0
2, 56640, Note_on_c, 0, 64, 67
2, 56687, Note_on_c, 0, 64, 0
2, 56880, Note_on_c, 0, 66, 93
2, 57120, Note_on_c, 0, 66, 0
2, 57120, Note_on_c, 0, 67, 106
2, 57360, Note_on_c, 0, 67, 0
2, 57360, Note_on_c, 0, 69, 106
2, 57600, Note_on_c, 0, 69, 0
2, 57600, Note_on_c, 0, 69, 80
2, 58320, Note_on_c, 0, 69, 0
2, 58320, Note_on_c, 0, 59, 67
2, 59760, Note_on_c, 0, 59, 0
2, 59760, Note_on_c, 0, 64, 93
2, 60000, Note_on_c, 0, 64, 0
2, 60000, Note_on_c, 0, 66, 93
2, 60240, Note_on_c, 0, 66, 0
2, 60240, Note_on_c, 0, 67, 106
2, 60480, Note_on_c, 0, 67, 0
2, 60480, Note_on_c, 0, 67, 80
2, 61200, Note_on_c, 0, 67, 0
2, 61200, Note_on_c, 0, 57, 67
2, 62640, Note_on_c, 0, 57, 0
2, 62640, Note_on_c, 0, 62, 93
2, 62880, Note_on_c, 0, 62, 0
2, 62880, Note_on_c, 0, 64, 93
2, 63120, Note_on_c, 0, 64, 0
2, 63120, Note_on_c, 0, 66, 93
2, 63360, Note_on_c, 0, 66, 0
2, 63360, Note_on_c, 0, 66, 67
2, 64080, Note_on_c, 0, 66, 0
2, 64080, Note_on_c, 0, 66, 67
2, 64560, Note_on_c, 0, 66, 0
2, 64560, Note_on_c, 0, 66, 80
2, 64710, Note_on_c, 0, 52, 80
2, 64740, Note_on_c, 0, 59, 80
2, 64770, Note_on_c, 0, 62, 80
2, 64800, Note_on_c, 0, 66, 0
2, 64800, Note_on_c, 0, 66, 80
2, 65520, Note_on_c, 0, 52, 0
2, 65520, Note_on_c, 0, 62, 0
2, 65520, Note_on_c, 0, 59, 0
2, 66000, Note_on_c, 0, 66, 0
2, 66000, Note_on_c, 0, 64, 67
2, 66240, Note_on_c, 0, 64, 0
2, 66240, Note_on_c, 0, 78, 67
2, 66960, Note_on_c, 0, 78, 0
2, 66960, Note_on_c, 0, 70, 67
2, 67440, Note_on_c, 0, 70, 0
2, 67440, Note_on_c, 0, 75, 67
2, 67680, Note_on_c, 0, 75, 0
2, 67680, Note_on_c, 0, 73, 67
2, 69120, Note_on_c, 0, 73, 0
2, 69120, Note_on_c, 0, 78, 67
2, 69840, Note_on_c, 0, 78, 0
2, 69840, Note_on_c, 0, 70, 67
2, 70320, Note_on_c, 0, 70, 0
2, 70320, Note_on_c, 0, 75, 67
2, 70560, Note_on_c, 0, 75, 0
2, 70560, Note_on_c, 0, 73, 67
2, 72000, Note_on_c, 0, 73, 0
2, 72000, Note_on_c, 0, 73, 93
2, 72360, Note_on_c, 0, 73, 0
2, 72360, Note_on_c, 0, 75, 93
2, 72720, Note_on_c, 0, 75, 0
2, 72720, Note_on_c, 0, 77, 93
2, 73080, Note_on_c, 0, 77, 0
2, 73080, Note_on_c, 0, 78, 93
2, 73440, Note_on_c, 0, 78, 0
2, 73440, Note_on_c, 0, 82, 106
2, 73800, Note_on_c, 0, 82, 0
2, 73800, Note_on_c, 0, 80, 106
2, 74160, Note_on_c, 0, 80, 0
2, 74160, Note_on_c, 0, 79, 106
2, 74520, Note_on_c, 0, 79, 0
2, 74520, Note_on_c, 0, 80, 106
2, 74880, Note_on_c, 0, 80, 0
2, 74880, Note_on_c, 0, 83, 80
2, 75600, Note_on_c, 0, 83, 0
2, 75600, Note_on_c, 0, 82, 80
2, 76320, Note_on_c, 0, 82, 0
2, 77760, Note_on_c, 0, 71, 80
2, 78480, Note_on_c, 0, 71, 0
2, 78480, Note_on_c, 0, 70, 80
2, 79200, Note_on_c, 0, 70, 0
2, 80640, Note_on_c, 0, 65, 67
2, 80640, Note_on_c, 0, 68, 67
2, 80880, Note_on_c, 0, 68, 0
2, 80880, Note_on_c, 0, 65, 0
2, 80880, Note_on_c, 0, 65, 67
2, 80880, Note_on_c, 0, 68, 67
2, 81120, Note_on_c, 0, 68, 0
2, 81120, Note_on_c, 0, 65, 0
2, 81120, Note_on_c, 0, 65, 67
2, 81120, Note_on_c, 0, 68, 67
2, 81360, Note_on_c, 0, 68, 0
2, 81360, Note_on_c, 0, 65, 0
2, 81360, Note_on_c, 0, 66, 54
2, 81600, Note_on_c, 0, 66, 0
2, 81600, Note_on_c, 0, 66, 54
2, 81840, Note_on_c, 0, 66, 0
2, 81840, Note_on_c, 0, 66, 54
2, 82080, Note_on_c, 0, 66, 0
2, 83520, Note_on_c, 0, 53, 67
2, 83520, Note_on_c, 0, 56, 67
2, 83760, Note_on_c, 0, 56, 0
2, 83760, Note_on_c, 0, 53, 0
2, 83760, Note_on_c, 0, 53, 67
2, 83760, Note_on_c, 0, 56, 67
2, 84000, Note_on_c, 0, 56, 0
2, 84000, Note_on_c, 0, 53, 0
2, 84000, Note_on_c, 0, 53, 67
2, 84000, Note_on_c, 0, 56, 67
2, 84240, Note_on_c, 0, 56, 0
2, 84240, Note_on_c, 0, 53, 0
2, 84240, Note_on_c, 0, 54, 54
2, 84480, Note_on_c, 0, 54, 0
2, 84480, Note_on_c, 0, 54, 54
2, 84720, Note_on_c, 0, 54, 0
2, 84720, Note_on_c, 0, 54, 54
2, 84960, Note_on_c, 0, 54, 0
2, 86880, Note_on_c, 0, 43, 54
2, 87120, Note_on_c, 0, 43, 0
2, 87120, Note_on_c, 0, 42, 54
2, 87600, Note_on_c, 0, 42, 0
2, 87600, Note_on_c, 0, 47, 54
2, 87840, Note_on_c, 0, 47, 0
2, 87840, Note_on_c, 0, 46, 54
2, 88320, Note_on_c, 0, 46, 0
2, 88320, Note_on_c, 0, 50, 80
2, 88560, Note_on_c, 0, 50, 0
2, 88560, Note_on_c, 0, 49, 80
2, 89040, Note_on_c, 0, 49, 0
2, 89040, Note_on_c, 0, 55, 80
2, 89280, Note_on_c, 0, 55, 0
2, 89280, Note_on_c, 0, 54, 80
2, 89760, Note_on_c, 0, 54, 0
2, 89760, Note_on_c, 0, 59, 80
2, 90000, Note_on_c, 0, 59, 0
2, 90000, Note_on_c, 0, 58, 80
2, 91200, Note_on_c, 0, 58, 0
2, 91440, Note_on_c, 0, 62, 67
2, 91680, Note_on_c, 0, 62, 0
2, 91680, Note_on_c, 0, 61, 67
2, 91920, Note_on_c, 0, 61, 0
2, 91920, Note_on_c, 0, 59, 67
2, 92160, Note_on_c, 0, 59, 0
2, 92640, Note_on_c, 0, 71, 67
2, 92880, Note_on_c, 0, 71, 0
2, 92880, Note_on_c, 0, 69, 93
2, 93360, Note_on_c, 0, 69, 0
2, 93360, Note_on_c, 0, 71, 67
2, 93600, Note_on_c, 0, 71, 0
2, 93600, Note_on_c, 0, 69, 93
2, 94080, Note_on_c, 0, 69, 0
2, 94080, Note_on_c, 0, 71, 67
2, 94320, Note_on_c, 0, 71, 0
2, 94320, Note_on_c, 0, 69, 93
2, 95280, Note_on_c, 0, 69, 0
2, 95760, Note_on_c, 0, 78, 67
2, 96720, Note_on_c, 0, 78, 0
2, 96720, Note_on_c, 0, 76, 93
2, 96960, Note_on_c, 0, 76, 0
2, 96960, Note_on_c, 0, 74, 93
2, 97200, Note_on_c, 0, 74, 0
2, 97200, Note_on_c, 0, 69, 67
2, 97920, Note_on_c, 0, 69, 0
2, 97920, Note_on_c, 0, 67, 67
2, 98160, Note_on_c, 0, 67, 0
2, 98160, Note_on_c, 0, 69, 67
2, 98400, Note_on_c, 0, 69, 0
2, 98400, Note_on_c, 0, 71, 93
2, 98640, Note_on_c, 0, 71, 0
2, 98640, Note_on_c, 0, 73, 93
2, 98880, Note_on_c, 0, 73, 0
2, 98880, Note_on_c, 0, 74, 93
2, 99120, Note_on_c, 0, 74, 0
2, 99120, Note_on_c, 0, 75, 93
2, 99360, Note_on_c, 0, 75, 0
2, 99360, Note_on_c, 0, 76, 67
2, 99600, Note_on_c, 0, 76, 0
2, 99600, Note_on_c, 0, 78, 67
2, 99840, Note_on_c, 0, 78, 0
2, 99840, Note_on_c, 0, 79, 93
2, 100080, Note_on_c, 0, 79, 0
2, 100080, Note_on_c, 0, 81, 93
2, 100320, Note_on_c, 0, 81, 0
2, 100320, Note_on_c, 0, 71, 93
2, 100560, Note_on_c, 0, 71, 0
2, 100560, Note_on_c, 0, 73, 93
2, 100800, Note_on_c, 0, 73, 0
2, 100800, Note_on_c, 0, 73, 80
2, 102240, Note_on_c, 0, 73, 0
2, 103920, Note_on_c, 0, 71, 67
2, 104160, Note_on_c, 0, 71, 0
2, 104160, Note_on_c, 0, 69, 67
2, 104640, Note_on_c, 0, 69, 0
2, 104640, Note_on_c, 0, 69, 67
2, 104880, Note_on_c, 0, 69, 0
2, 104880, Note_on_c, 0, 67, 67
2, 105360, Note_on_c, 0, 67, 0
2, 105360, Note_on_c, 0, 66, 67
2, 105600, Note_on_c, 0, 66, 0
2, 105600, Note_on_c, 0, 64, 67
2, 106080, Note_on_c, 0, 64, 0
2, 106080, Note_on_c, 0, 62, 67
2, 106320, Note_on_c, 0, 62, 0
2, 106320, Note_on_c, 0, 61, 67
2, 106560, Note_on_c, 0, 61, 0
2, 106560, Note_on_c, 0, 64, 106
2, 107280, Note_on_c, 0, 64, 0
2, 107280, Note_on_c, 0, 62, 80
2, 108000, Note_on_c, 0, 62, 0
2, 108000, Note_on_c, 0, 69, 80
2, 108240, Note_on_c, 0, 69, 0
2, 108240, Note_on_c, 0, 71, 80
2, 108480, Note_on_c, 0, 71, 0
2, 108480, Note_on_c, 0, 73, 80
2, 108720, Note_on_c, 0, 73, 0
2, 108720, Note_on_c, 0, 74, 80
2, 108960, Note_on_c, 0, 74, 0
2, 109440, Note_on_c, 0, 68, 93
2, 110160, Note_on_c, 0, 68, 0
2, 110160, Note_on_c, 0, 68, 93
2, 110640, Note_on_c, 0, 68, 0
2, 110640, Note_on_c, 0, 68, 93
2, 110880, Note_on_c, 0, 68, 0
2, 110880, Note_on_c, 0, 68, 93
2, 111600, Note_on_c, 0, 68, 0
2, 111600, Note_on_c, 0, 62, 119
2, 111840, Note_on_c, 0, 62, 0
2, 111840, Note_on_c, 0, 64, 119
2, 112080, Note_on_c, 0, 64, 0
2, 112080, Note_on_c, 0, 66, 119
2, 112320, Note_on_c, 0, 66, 0
2, 112320, Note_on_c, 0, 68, 93
2, 113040, Note_on_c, 0, 68, 0
2, 113040, Note_on_c, 0, 68, 93
2, 113520, Note_on_c, 0, 68, 0
2, 113520, Note_on_c, 0, 68, 93
2, 113760, Note_on_c, 0, 68, 0
2, 113760, Note_on_c, 0, 68, 93
2, 114480, Note_on_c, 0, 68, 0
2, 114480, Note_on_c, 0, 68, 127
2, 114720, Note_on_c, 0, 68, 0
2, 114720, Note_on_c, 0, 69, 127
2, 114960, Note_on_c, 0, 69, 0
2, 114960, Note_on_c, 0, 71, 127
2, 115200, Note_on_c, 0, 71, 0
2, 115200, Note_on_c, 0, 71, 106
2, 115920, Note_on_c, 0, 71, 0
2, 115920, Note_on_c, 0, 71, 106
2, 116400, Note_on_c, 0, 71, 0
2, 116400, Note_on_c, 0, 71, 106
2, 116640, Note_on_c, 0, 71, 0
2, 116640, Note_on_c, 0, 71, 106
2, 117360, Note_on_c, 0, 71, 0
2, 117360, Note_on_c, 0, 68, 127
2, 117600, Note_on_c, 0, 68, 0
2, 117600, Note_on_c, 0, 69, 127
2, 117840, Note_on_c, 0, 69, 0
2, 117840, Note_on_c, 0, 71, 127
2, 118080, Note_on_c, 0, 71, 0
2, 118080, Note_on_c, 0, 71, 106
2, 118800, Note_on_c, 0, 71, 0
2, 118800, Note_on_c, 0, 71, 106
2, 119280, Note_on_c, 0, 71, 0
2, 119280, Note_on_c, 0, 71, 106
2, 119520, Note_on_c, 0, 71, 0
2, 119520, Note_on_c, 0, 71, 106
2, 120240, Note_on_c, 0, 71, 0
2, 120240, Note_on_c, 0, 71, 106
2, 120720, Note_on_c, 0, 71, 0
2, 120720, Note_on_c, 0, 71, 106
2, 120960, Note_on_c, 0, 71, 0
2, 120960, Note_on_c, 0, 71, 106
2, 121440, Note_on_c, 0, 71, 0
2, 121440, Note_on_c, 0, 71, 106
2, 121920, Note_on_c, 0, 71, 0
2, 121920, Note_on_c, 0, 71, 106
2, 122400, Note_on_c, 0, 71, 0
2, 122400, Note_on_c, 0, 71, 106
2, 122880, Note_on_c, 0, 71, 0
2, 122880, Note_on_c, 0, 71, 106
2, 123600, Note_on_c, 0, 71, 0
2, 123600, Note_on_c, 0, 69, 106
2, 123840, Note_on_c, 0, 69, 0
2, 124560, Note_on_c, 0, 55, 67
2, 124560, Note_on_c, 0, 57, 67
2, 124560, Note_on_c, 0, 61, 67
2, 124560, Note_on_c, 0, 67, 67
2, 124560, Note_on_c, 0, 69, 67
2, 126000, Note_on_c, 0, 69, 0
2, 126000, Note_on_c, 0, 61, 0
2, 126000, Note_on_c, 0, 55, 0
2, 126000, Note_on_c, 0, 57, 0
2, 126000, Note_on_c, 0, 67, 0
2, 126000, Note_on_c, 0, 55, 67
2, 126000, Note_on_c, 0, 57, 67
2, 126000, Note_on_c, 0, 61, 67
2, 126000, Note_on_c, 0, 67, 67
2, 126000, Note_on_c, 0, 69, 67
2, 126720, Note_on_c, 0, 69, 0
2, 126720, Note_on_c, 0, 61, 0
2, 126720, Note_on_c, 0, 55, 0
2, 126720, Note_on_c, 0, 57, 0
2, 126720, Note_on_c, 0, 67, 0
2, 126720, Note_on_c, 0, 62, 67
2, 126720, Note_on_c, 0, 66, 67
2, 126720, Note_on_c, 0, 74, 67
2, 127440, Note_on_c, 0, 74, 0
2, 127440, Note_on_c, 0, 66, 0
2, 127440, Note_on_c, 0, 62, 0
2, 127440, Note_on_c, 0, 66, 67
2, 127920, Note_on_c, 0, 66, 0
2, 127920, Note_on_c, 0, 59, 67
2, 127920, Note_on_c, 0, 71, 67
2, 128160, Note_on_c, 0, 71, 0
2, 128160, Note_on_c, 0, 59, 0
2, 128160, Note_on_c, 0, 57, 67
2, 128160, Note_on_c, 0, 69, 67
2, 129360, Note_on_c, 0, 69, 0
2, 129360, Note_on_c, 0, 57, 0
2, 129360, Note_on_c, 0, 57, 67
2, 129360, Note_on_c, 0, 69, 67
2, 129600, Note_on_c, 0, 69, 0
2, 129600, Note_on_c, 0, 57, 0
2, 129600, Note_on_c, 0, 59, 67
2, 129600, Note_on_c, 0, 71, 67
2, 129960, Note_on_c, 0, 71, 0
2, 129960, Note_on_c, 0, 59, 0
2, 129960, Note_on_c, 0, 61, 80
2, 129960, Note_on_c, 0, 73, 80
2, 130320, Note_on_c, 0, 73, 0
2, 130320, Note_on_c, 0, 61, 0
2, 130320, Note_on_c, 0, 62, 80
2, 130320, Note_on_c, 0, 74, 80
2, 130680, Note_on_c, 0, 74, 0
2, 130680, Note_on_c, 0, 62, 0
2, 130680, Note_on_c, 0, 59, 80
2, 130680, Note_on_c, 0, 71, 80
2, 131040, Note_on_c, 0, 71, 0
2, 131040, Note_on_c, 0, 59, 0
2, 131040, Note_on_c, 0, 78, 80
2, 132000, Note_on_c, 0, 78, 0
2, 132480, Note_on_c, 0, 59, 80
2, 132480, Note_on_c, 0, 71, 80
2, 132840, Note_on_c, 0, 71, 0
2, 132840, Note_on_c, 0, 59, 0
2, 132840, Note_on_c, 0, 61, 80
2, 132840, Note_on_c, 0, 73, 80
2, 133200, Note_on_c, 0, 73, 0
2, 133200, Note_on_c, 0, 61, 0
2, 133200, Note_on_c, 0, 62, 80
2, 133200, Note_on_c, 0, 74, 80
2, 133560, Note_on_c, 0, 74, 0
2, 133560, Note_on_c, 0, 62, 0
2, 133560, Note_on_c, 0, 59, 93
2, 133560, Note_on_c, 0, 71, 93
2, 133920, Note_on_c, 0, 71, 0
2, 133920, Note_on_c, 0, 59, 0
2, 133920, Note_on_c, 0, 66, 93
2, 133920, Note_on_c, 0, 78, 93
2, 134640, Note_on_c, 0, 78, 0
2, 134640, Note_on_c, 0, 66, 0
2, 134640, Note_on_c, 0, 64, 119
2, 134640, Note_on_c, 0, 76, 119
2, 135000, Note_on_c, 0, 76, 0
2, 135000, Note_on_c, 0, 64, 0
2, 135000, Note_on_c, 0, 62, 119
2, 135000, Note_on_c, 0, 74, 119
2, 135360, Note_on_c, 0, 74, 0
2, 135360, Note_on_c, 0, 62, 0
2, 135360, Note_on_c, 0, 62, 93
2, 135360, Note_on_c, 0, 74, 93
2, 136080, Note_on_c, 0, 74, 0
2, 136080, Note_on_c, 0, 62, 0
2, 136080, Note_on_c, 0, 61, 106
2, 136080, Note_on_c, 0, 73, 106
2, 136440, Note_on_c, 0, 73, 0
2, 136440, Note_on_c, 0, 61, 0
2, 136440, Note_on_c, 0, 59, 106
2, 136440, Note_on_c, 0, 71, 106
2, 136800, Note_on_c, 0, 71, 0
2, 136800, Note_on_c, 0, 59, 0
2, 136800, Note_on_c, 0, 64, 80
2, 137040, Note_on_c, 0, 64, 0
2, 137040, Note_on_c, 0, 55, 67
2, 137040, Note_on_c, 0, 67, 67
2, 137280, Note_on_c, 0, 67, 0
2, 137280, Note_on_c, 0, 55, 0
2, 137280, Note_on_c, 0, 59, 67
2, 137280, Note_on_c, 0, 71, 67
2, 137520, Note_on_c, 0, 71, 0
2, 137520, Note_on_c, 0, 59, 0
2, 137520, Note_on_c, 0, 59, 67
2, 137520, Note_on_c, 0, 71, 67
2, 138000, Note_on_c, 0, 71, 0
2, 138000, Note_on_c, 0, 59, 0
2, 138000, Note_on_c, 0, 57, 67
2, 138000, Note_on_c, 0, 69, 67
2, 138240, Note_on_c, 0, 69, 0
2, 138240, Note_on_c, 0, 57, 0
2, 138240, Note_on_c, 0, 62, 67
2, 138240, Note_on_c, 0, 66, 67
2, 138240, Note_on_c, 0, 74, 67
2, 138960, Note_on_c, 0, 74, 0
2, 138960, Note_on_c, 0, 66, 0
2, 138960, Note_on_c, 0, 62, 0
2, 138960, Note_on_c, 0, 66, 67
2, 139440, Note_on_c, 0, 66, 0
2, 139440, Note_on_c, 0, 59, 67
2, 139440, Note_on_c, 0, 71, 67
2, 139680, Note_on_c, 0, 71, 0
2, 139680, Note_on_c, 0, 59, 0
2, 139680, Note_on_c, 0, 57, 67
2, 139680, Note_on_c, 0, 69, 67
2, 140880, Note_on_c, 0, 69, 0
2, 140880, Note_on_c, 0, 57, 0
2, 140880, Note_on_c, 0, 57, 67
2, 140880, Note_on_c, 0, 69, 67
2, 141120, Note_on_c, 0, 69, 0
2, 141120, Note_on_c, 0, 57, 0
2, 141120, Note_on_c, 0, 59, 80
2, 141120, Note_on_c, 0, 71, 80
2, 141480, Note_on_c, 0, 71, 0
2, 141480, Note_on_c, 0, 59, 0
2, 141480, Note_on_c, 0, 61, 80
2, 141480, Note_on_c, 0, 73, 80
2, 141840, Note_on_c, 0, 73, 0
2, 141840, Note_on_c, 0, 61, 0
2, 141840, Note_on_c, 0, 62, 80
2, 141840, Note_on_c, 0, 74, 80
2, 142200, Note_on_c, 0, 74, 0
2, 142200, Note_on_c, 0, 62, 0
2, 142200, Note_on_c, 0, 59, 80
2, 142200, Note_on_c, 0, 71, 80
2, 142560, Note_on_c, 0, 71, 0
2, 142560, Note_on_c, 0, 59, 0
2, 142560, Note_on_c, 0, 78, 80
2, 143520, Note_on_c, 0, 78, 0
2, 143760, Note_on_c, 0, 66, 80
2, 144000, Note_on_c, 0, 66, 0
2, 144000, Note_on_c, 0, 59, 106
2, 144000, Note_on_c, 0, 71, 106
2, 144360, Note_on_c, 0, 71, 0
2, 144360, Note_on_c, 0, 59, 0
2, 144360, Note_on_c, 0, 61, 106
2, 144360, Note_on_c, 0, 73, 106
2, 144720, Note_on_c, 0, 73, 0
2, 144720, Note_on_c, 0, 61, 0
2, 144720, Note_on_c, 0, 62, 106
2, 144720, Note_on_c, 0, 74, 106
2, 145080, Note_on_c, 0, 74, 0
2, 145080, Note_on_c, 0, 62, 0
2, 145080, Note_on_c, 0, 59, 106
2, 145080, Note_on_c, 0, 71, 106
2, 145440, Note_on_c, 0, 71, 0
2, 145440, Note_on_c, 0, 59, 0
2, 145440, Note_on_c, 0, 66, 80
2, 145440, Note_on_c, 0, 78, 80
2, 146160, Note_on_c, 0, 78, 0
2, 146160, Note_on_c, 0, 66, 0
2, 146160, Note_on_c, 0, 66, 80
2, 146160, Note_on_c, 0, 74, 80
2, 146160, Note_on_c, 0, 78, 80
2, 146640, Note_on_c, 0, 78, 0
2, 146640, Note_on_c, 0, 74, 0
2, 146640, Note_on_c, 0, 66, 0
2, 146640, Note_on_c, 0, 66, 80
2, 146640, Note_on_c, 0, 78, 80
2, 146880, Note_on_c, 0, 78, 0
2, 146880, Note_on_c, 0, 66, 0
2, 146880, Note_on_c, 0, 66, 93
2, 146880, Note_on_c, 0, 78, 93
2, 147600, Note_on_c, 0, 78, 0
2, 147600, Note_on_c, 0, 66, 0
2, 147600, Note_on_c, 0, 67, 93
2, 147600, Note_on_c, 0, 79, 93
2, 148080, Note_on_c, 0, 79, 0
2, 148080, Note_on_c, 0, 67, 0
2, 148080, Note_on_c, 0, 67, 93
2, 148080, Note_on_c, 0, 79, 93
2, 148320, Note_on_c, 0, 79, 0
2, 148320, Note_on_c, 0, 67, 0
2, 148320, Note_on_c, 0, 67, 93
2, 148320, Note_on_c, 0, 79, 93
2, 149040, Note_on_c, 0, 79, 0
2, 149040, Note_on_c, 0, 67, 0
2, 149040, Note_on_c, 0, 68, 93
2, 149040, Note_on_c, 0, 80, 93
2, 149520, Note_on_c, 0, 80, 0
2, 149520, Note_on_c, 0, 68, 0
2, 149520, Note_on_c, 0, 68, 93
2, 149520, Note_on_c, 0, 80, 93
2, 149760, Note_on_c, 0, 80, 0
2, 149760, Note_on_c, 0, 68, 0
2, 149760, Note_on_c, 0, 68, 93
2, 149760, Note_on_c, 0, 80, 93
2, 150120, Note_on_c, 0, 80, 0
2, 150120, Note_on_c, 0, 68, 0
2, 150120, Note_on_c, 0, 69, 93
2, 150120, Note_on_c, 0, 81, 93
2, 150480, Note_on_c, 0, 81, 0
2, 150480, Note_on_c, 0, 69, 0
2, 150480, Note_on_c, 0, 69, 119
2, 150480, Note_on_c, 0, 81, 119
2, 150840, Note_on_c, 0, 81, 0
2, 150840, Note_on_c, 0, 69, 0
2, 150840, Note_on_c, 0, 69, 119
2, 150840, Note_on_c, 0, 81, 119
2, 151200, Note_on_c, 0, 81, 0
2, 151200, Note_on_c, 0, 69, 0
2, 151200, Note_on_c, 0, 69, 93
2, 151200, Note_on_c, 0, 81, 93
2, 151560, Note_on_c, 0, 81, 0
2, 151560, Note_on_c, 0, 69, 0
2, 151560, Note_on_c, 0, 70, 93
2, 151560, Note_on_c, 0, 82, 93
2, 151920, Note_on_c, 0, 82, 0
2, 151920, Note_on_c, 0, 70, 0
2, 151920, Note_on_c, 0, 70, 119
2, 151920, Note_on_c, 0, 82, 119
2, 152280, Note_on_c, 0, 82, 0
2, 152280, Note_on_c, 0, 70, 0
2, 152280, Note_on_c, 0, 70, 119
2, 152280, Note_on_c, 0, 82, 119
2, 152640, Note_on_c, 0, 82, 0
2, 152640, Note_on_c, 0, 70, 0
2, 152640, Note_on_c, 0, 70, 93
2, 152640, Note_on_c, 0, 82, 93
2, 153360, Note_on_c, 0, 82, 0
2, 153360, Note_on_c, 0, 70, 0
2, 153360, Note_on_c, 0, 71, 93
2, 153360, Note_on_c, 0, 83, 93
2, 153840, Note_on_c, 0, 83, 0
2, 153840, Note_on_c, 0, 71, 0
2, 153840, Note_on_c, 0, 71, 93
2, 153840, Note_on_c, 0, 83, 93
2, 154080, Note_on_c, 0, 83, 0
2, 154080, Note_on_c, 0, 71, 0
2, 154080, Note_on_c, 0, 83, 93
2, 154800, Note_on_c, 0, 83, 0
2, 154800, Note_on_c, 0, 72, 93
2, 154800, Note_on_c, 0, 84, 93
2, 155280, Note_on_c, 0, 84, 0
2, 155280, Note_on_c, 0, 72, 0
2, 155280, Note_on_c, 0, 72, 93
2, 155280, Note_on_c, 0, 84, 93
2, 155520, Note_on_c, 0, 84, 0
2, 155520, Note_on_c, 0, 72, 0
2, 155520, Note_on_c, 0, 72, 106
2, 155520, Note_on_c, 0, 84, 106
2, 155880, Note_on_c, 0, 84, 0
2, 155880, Note_on_c, 0, 72, 0
2, 155880, Note_on_c, 0, 73, 106
2, 155880, Note_on_c, 0, 85, 106
2, 156240, Note_on_c, 0, 85, 0
2, 156240, Note_on_c, 0, 73, 0
2, 156240, Note_on_c, 0, 73, 127
2, 156240, Note_on_c, 0, 85, 127
2, 156600, Note_on_c, 0, 85, 0
2, 156600, Note_on_c, 0, 73, 0
2, 156600, Note_on_c, 0, 73, 127
2, 156600, Note_on_c, 0, 85, 127
2, 156960, Note_on_c, 0, 85, 0
2, 156960, Note_on_c, 0, 73, 0
2, 156960, Note_on_c, 0, 73, 106
2, 156960, Note_on_c, 0, 85, 106
2, 157320, Note_on_c, 0, 85, 0
2, 157320, Note_on_c, 0, 73, 0
2, 157320, Note_on_c, 0, 74, 106
2, 157320, Note_on_c, 0, 86, 106
2, 157680, Note_on_c, 0, 86, 0
2, 157680, Note_on_c, 0, 74, 0
2, 157680, Note_on_c, 0, 74, 127
2, 157680, Note_on_c, 0, 86, 127
2, 158040, Note_on_c, 0, 86, 0
2, 158040, Note_on_c, 0, 74, 0
2, 158040, Note_on_c, 0, 74, 127
2, 158040, Note_on_c, 0, 86, 127
2, 158400, Note_on_c, 0, 86, 0
2, 158400, Note_on_c, 0, 74, 0
2, 158400, Note_on_c, 0, 74, 106
2, 158400, Note_on_c, 0, 78, 106
2, 158400, Note_on_c, 0, 83, 106
2, 158400, Note_on_c, 0, 86, 106
2, 159120, Note_on_c, 0, 86, 0
2, 159120, Note_on_c, 0, 74, 0
2, 159120, Note_on_c, 0, 78, 0
2, 159120, Note_on_c, 0, 83, 0
2, 159120, Note_on_c, 0, 71, 106
2, 159120, Note_on_c, 0, 74, 106
2, 159120, Note_on_c, 0, 78, 106
2, 159600, Note_on_c, 0, 78, 0
2, 159600, Note_on_c, 0, 74, 0
2, 159600, Note_on_c, 0, 71, 0
2, 159600, Note_on_c, 0, 71, 106
2, 159600, Note_on_c, 0, 74, 106
2, 159600, Note_on_c, 0, 77, 106
2, 159600, Note_on_c, 0, 83, 106
2, 159840, Note_on_c, 0, 83, 0
2, 159840, Note_on_c, 0, 71, 0
2, 159840, Note_on_c, 0, 74, 0
2, 159840, Note_on_c, 0, 77, 0
2, 159840, Note_on_c, 0, 69, 106
2, 159840, Note_on_c, 0, 81, 106
2, 161280, Note_on_c, 0, 81, 0
2, 161280, Note_on_c, 0, 69, 0
2, 161280, Note_on_c, 0, 71, 106
2, 161280, Note_on_c, 0, 74, 106
2, 161280, Note_on_c, 0, 79, 106
2, 161280, Note_on_c, 0, 83, 106
2, 162000, Note_on_c, 0, 83, 0
2, 162000, Note_on_c, 0, 71, 0
2, 162000, Note_on_c, 0, 74, 0
2, 162000, Note_on_c, 0, 79, 0
2, 162000, Note_on_c, 0, 67, 106
2, 162000, Note_on_c, 0, 71, 106
2, 162000, Note_on_c, 0, 74, 106
2, 162480, Note_on_c, 0, 74, 0
2, 162480, Note_on_c, 0, 71, 0
2, 162480, Note_on_c, 0, 67, 0
2, 162480, Note_on_c, 0, 67, 106
2, 162480, Note_on_c, 0, 71, 106
2, 162480, Note_on_c, 0, 74, 106
2, 162480, Note_on_c, 0, 79, 106
2, 162720, Note_on_c, 0, 79, 0
2, 162720, Note_on_c, 0, 67, 0
2, 162720, Note_on_c, 0, 71, 0
2, 162720, Note_on_c, 0, 74, 0
2, 162720, Note_on_c, 0, 66, 106
2, 162720, Note_on_c, 0, 78, 106
2, 164160, Note_on_c, 0, 78, 0
2, 164160, Note_on_c, 0, 66, 0
2, 164160, Note_on_c, 0, 67, 93
2, 164160, Note_on_c, 0, 71, 93
2, 164160, Note_on_c, 0, 76, 93
2, 164160, Note_on_c, 0, 79, 93
2, 164880, Note_on_c, 0, 79, 0
2, 164880, Note_on_c, 0, 67, 0
2, 164880, Note_on_c, 0, 71, 0
2, 164880, Note_on_c, 0, 76, 0
2, 164880, Note_on_c, 0, 64, 93
2, 164880, Note_on_c, 0, 67, 93
2, 164880, Note_on_c, 0, 71, 93
2, 165360, Note_on_c, 0, 71, 0
2, 165360, Note_on_c, 0, 67, 0
2, 165360, Note_on_c, 0, 64, 0
2, 165360, Note_on_c, 0, 64, 93
2, 165360, Note_on_c, 0, 67, 93
2, 165360, Note_on_c, 0, 73, 93
2, 165600, Note_on_c, 0, 73, 0
2, 165600, Note_on_c, 0, 67, 0
2, 165600, Note_on_c, 0, 64, 0
2, 165600, Note_on_c, 0, 62, 93
2, 165600, Note_on_c, 0, 74, 93
2, 167760, Note_on_c, 0, 74, 0
2, 167760, Note_on_c, 0, 62, 0
2, 167760, Note_on_c, 0, 57, 67
2, 167760, Note_on_c, 0, 69, 67
2, 168240, Note_on_c, 0, 69, 0
2, 168240, Note_on_c, 0, 57, 0
2, 168240, Note_on_c, 0, 59, 67
2, 168240, Note_on_c, 0, 71, 67
2, 168480, Note_on_c, 0, 71, 0
2, 168480, Note_on_c, 0, 59, 0
2, 168480, Note_on_c, 0, 62, 80
2, 168480, Note_on_c, 0, 74, 80
2, 169680, Note_on_c, 0, 74, 0
2, 169680, Note_on_c, 0, 62, 0
2, 169680, Note_on_c, 0, 61, 67
2, 169680, Note_on_c, 0, 73, 67
2, 169920, Note_on_c, 0, 73, 0
2, 169920, Note_on_c, 0, 61, 0
2, 169920, Note_on_c, 0, 62, 67
2, 169920, Note_on_c, 0, 74, 67
2, 170640, Note_on_c, 0, 74, 0
2, 170640, Note_on_c, 0, 62, 0
2, 170640, Note_on_c, 0, 57, 67
2, 170640, Note_on_c, 0, 69, 67
2, 171120, Note_on_c, 0, 69, 0
2, 171120, Note_on_c, 0, 57, 0
2, 171120, Note_on_c, 0, 59, 80
2, 171120, Note_on_c, 0, 71, 80
2, 171360, Note_on_c, 0, 71, 0
2, 171360, Note_on_c, 0, 59, 0
2, 171360, Note_on_c, 0, 62, 80
2, 171360, Note_on_c, 0, 74, 80
2, 172560, Note_on_c, 0, 74, 0
2, 172560, Note_on_c, 0, 62, 0
2, 172560, Note_on_c, 0, 61, 67
2, 172560, Note_on_c, 0, 73, 67
2, 172800, Note_on_c, 0, 73, 0
2, 172800, Note_on_c, 0, 61, 0
2, 172800, Note_on_c, 0, 64, 93
2, 172800, Note_on_c, 0, 76, 93
2, 173520, Note_on_c, 0, 76, 0
2, 173520, Note_on_c, 0, 64, 0
2, 173520, Note_on_c, 0, 62, 67
2, 173520, Note_on_c, 0, 74, 67
2, 174480, Note_on_c, 0, 74, 0
2, 174480, Note_on_c, 0, 62, 0
2, 174960, Note_on_c, 0, 62, 67
2, 174960, Note_on_c, 0, 74, 67
2, 175440, Note_on_c, 0, 74, 0
2, 175440, Note_on_c, 0, 62, 0
2, 175440, Note_on_c, 0, 61, 67
2, 175440, Note_on_c, 0, 73, 67
2, 175680, Note_on_c, 0, 73, 0
2, 175680, Note_on_c, 0, 61, 0
2, 175680, Note_on_c, 0, 64, 93
2, 175680, Note_on_c, 0, 76, 93
2, 176400, Note_on_c, 0, 76, 0
2, 176400, Note_on_c, 0, 64, 0
2, 176400, Note_on_c, 0, 62, 67
2, 176400, Note_on_c, 0, 74, 67
2, 177360, Note_on_c, 0, 74, 0
2, 177360, Note_on_c, 0, 62, 0
2, 177840, Note_on_c, 0, 62, 67
2, 177840, Note_on_c, 0, 74, 67
2, 178320, Note_on_c, 0, 74, 0
2, 178320, Note_on_c, 0, 62, 0
2, 178320, Note_on_c, 0, 61, 67
2, 178320, Note_on_c, 0, 73, 67
2, 178560, Note_on_c, 0, 73, 0
2, 178560, Note_on_c, 0, 61, 0
2, 178560, Note_on_c, 0, 64, 67
2, 178560, Note_on_c, 0, 76, 67
2, 179280, Note_on_c, 0, 76, 0
2, 179280, Note_on_c, 0, 64, 0
2, 179280, Note_on_c, 0, 62, 67
2, 179280, Note_on_c, 0, 74, 67
2, 179760, Note_on_c, 0, 74, 0
2, 179760, Note_on_c, 0, 62, 0
2, 179760, Note_on_c, 0, 61, 80
2, 179760, Note_on_c, 0, 73, 80
2, 180000, Note_on_c, 0, 73, 0
2, 180000, Note_on_c, 0, 61, 0
2, 180000, Note_on_c, 0, 61, 80
2, 180000, Note_on_c, 0, 73, 80
2, 180720, Note_on_c, 0, 73, 0
2, 180720, Note_on_c, 0, 61, 0
2, 180720, Note_on_c, 0, 59, 80
2, 180720, Note_on_c, 0, 71, 80
2, 181200, Note_on_c, 0, 71, 0
2, 181200, Note_on_c, 0, 59, 0
2, 181200, Note_on_c, 0, 57, 80
2, 181200, Note_on_c, 0, 69, 80
2, 181440, Note_on_c, 0, 69, 0
2, 181440, Note_on_c, 0, 57, 0
2, 181440, Note_on_c, 0, 69, 80
2, 182160, Note_on_c, 0, 69, 0
2, 182160, Note_on_c, 0, 68, 67
2, 183600, Note_on_c, 0, 68, 0
2, 183600, Note_on_c, 0, 71, 80
2, 184080, Note_on_c, 0, 71, 0
2, 184080, Note_on_c, 0, 69, 80
2, 184320, Note_on_c, 0, 69, 0
2, 184320, Note_on_c, 0, 69, 106
2, 185040, Note_on_c, 0, 69, 0
2, 185040, Note_on_c, 0, 68, 80
2, 186480, Note_on_c, 0, 68, 0
2, 186480, Note_on_c, 0, 71, 67
2, 186960, Note_on_c, 0, 71, 0
2, 186960, Note_on_c, 0, 69, 67
2, 187200, Note_on_c, 0, 69, 0
2, 187200, Note_on_c, 0, 69, 67
2, 188160, Note_on_c, 0, 69, 0
2, 188160, Note_on_c, 0, 68, 67
2, 189120, Note_on_c, 0, 68, 0
2, 189120, Note_on_c, 0, 73, 80
2, 189840, Note_on_c, 0, 73, 0
2, 189840, Note_on_c, 0, 80, 80
2, 190080, Note_on_c, 0, 80, 0
2, 190080, Note_on_c, 0, 83, 93
2, 190320, Note_on_c, 0, 83, 0
2, 190320, Note_on_c, 0, 81, 93
2, 190560, Note_on_c, 0, 81, 0
2, 190560, Note_on_c, 0, 80, 106
2, 190800, Note_on_c, 0, 80, 0
2, 190800, Note_on_c, 0, 78, 106
2, 191040, Note_on_c, 0, 78, 0
2, 191040, Note_on_c, 0, 76, 80
2, 191520, Note_on_c, 0, 76, 0
2, 191520, Control_c, 0, 64, 127
2, 191520, Note_on_c, 0, 74, 80
2, 191573, Note_on_c, 0, 74, 0
2, 191573, Note_on_c, 0, 76, 80
2, 191626, Note_on_c, 0, 76, 0
2, 191626, Note_on_c, 0, 74, 80
2, 191679, Note_on_c, 0, 74, 0
2, 191679, Note_on_c, 0, 76, 80
2, 191733, Note_on_c, 0, 76, 0
2, 191733, Note_on_c, 0, 74, 80
2, 191786, Note_on_c, 0, 74, 0
2, 191786, Note_on_c, 0, 76, 80
2, 191840, Note_on_c, 0, 76, 0
2, 191840, Note_on_c, 0, 74, 80
2, 191893, Note_on_c, 0, 74, 0
2, 191893, Note_on_c, 0, 76, 80
2, 191946, Note_on_c, 0, 76, 0
2, 191946, Note_on_c, 0, 74, 80
2, 192000, Note_on_c, 0, 74, 0
2, 192000, Control_c, 0, 64, 0
2, 192000, Note_on_c, 0, 73, 80
2, 192960, Note_on_c, 0, 73, 0
2, 192960, Control_c, 0, 64, 127
2, 192960, Note_on_c, 0, 71, 80
2, 193560, Note_on_c, 0, 71, 0
2, 193560, Note_on_c, 0, 73, 80
2, 193680, Note_on_c, 0, 73, 0
2, 193680, Note_on_c, 0, 74, 80
2, 193800, Note_on_c, 0, 74, 0
2, 193800, Control_c, 0, 64, 0
2, 193800, Note_on_c, 0, 78, 80
2, 193920, Note_on_c, 0, 78, 0
2, 193920, Note_on_c, 0, 73, 80
2, 194880, Note_on_c, 0, 73, 0
2, 194880, Control_c, 0, 64, 127
2, 194880, Note_on_c, 0, 71, 80
2, 195480, Note_on_c, 0, 71, 0
2, 195480, Note_on_c, 0, 73, 80
2, 195600, Note_on_c, 0, 73, 0
2, 195600, Note_on_c, 0, 74, 80
2, 195720, Note_on_c, 0, 74, 0
2, 195720, Control_c, 0, 64, 0
2, 195720, Note_on_c, 0, 80, 80
2, 195840, Note_on_c, 0, 80, 0
2, 195840, Note_on_c, 0, 73, 80
2, 196800, Note_on_c, 0, 73, 0
2, 196800, Note_on_c, 0, 61, 80
2, 197520, Note_on_c, 0, 61, 0
2, 197520, Note_on_c, 0, 68, 80
2, 197760, Note_on_c, 0, 68, 0
2, 197760, Note_on_c, 0, 71, 93
2, 198000, Note_on_c, 0, 71, 0
2, 198000, Note_on_c, 0, 69, 93
2, 198240, Note_on_c, 0, 69, 0
2, 198240, Note_on_c, 0, 68, 106
2, 198480, Note_on_c, 0, 68, 0
2, 198480, Note_on_c, 0, 66, 106
2, 198720, Note_on_c, 0, 66, 0
2, 198720, Note_on_c, 0, 64, 80
2, 199200, Note_on_c, 0, 64, 0
2, 199200, Control_c, 0, 64, 127
2, 199200, Note_on_c, 0, 62, 80
2, 199253, Note_on_c, 0, 62, 0
2, 199253, Note_on_c, 0, 64, 80
2, 199306, Note_on_c, 0, 64, 0
2, 199306, Note_on_c, 0, 62, 80
2, 199359, Note_on_c, 0, 62, 0
2, 199359, Note_on_c, 0, 64, 80
2, 199413, Note_on_c, 0, 64, 0
2, 199413, Note_on_c, 0, 62, 80
2, 199466, Note_on_c, 0, 62, 0
2, 199466, Note_on_c, 0, 64, 80
2, 199520, Note_on_c, 0, 64, 0
2, 199520, Note_on_c, 0, 62, 80
2, 199573, Note_on_c, 0, 62, 0
2, 199573, Note_on_c, 0, 64, 80
2, 199626, Note_on_c, 0, 64, 0
2, 199626, Note_on_c, 0, 62, 80
2, 199680, Note_on_c, 0, 62, 0
2, 199680, Control_c, 0, 64, 0
2, 199680, Note_on_c, 0, 61, 93
2, 200640, Note_on_c, 0, 61, 0
2, 200640, Control_c, 0, 64, 127
2, 200640, Note_on_c, 0, 59, 106
2, 201240, Note_on_c, 0, 59, 0
2, 201240, Note_on_c, 0, 61, 80
2, 201360, Note_on_c, 0, 61, 0
2, 201360, Note_on_c, 0, 62, 80
2, 201480, Note_on_c, 0, 62, 0
2, 201480, Control_c, 0, 64, 0
2, 201480, Note_on_c, 0, 66, 80
2, 201600, Note_on_c, 0, 66, 0
2, 201600, Note_on_c, 0, 61, 80
2, 202560, Note_on_c, 0, 61, 0
2, 202560, Control_c, 0, 64, 127
2, 202560, Note_on_c, 0, 59, 106
2, 203160, Note_on_c, 0, 59, 0
2, 203160, Note_on_c, 0, 61, 80
2, 203280, Note_on_c, 0, 61, 0
2, 203280, Note_on_c, 0, 62, 80
2, 203400, Note_on_c, 0, 62, 0
2, 203400, Control_c, 0, 64, 0
2, 203400, Note_on_c, 0, 68, 80
2, 203520, Note_on_c, 0, 68, 0
2, 203520, Note_on_c, 0, 61, 80
2, 204480, Note_on_c, 0, 61, 0
2, 204480, Note_on_c, 0, 61, 80
2, 205200, Note_on_c, 0, 61, 0
2, 205200, Note_on_c, 0, 62, 80
2, 205440, Note_on_c, 0, 62, 0
2, 205440, Note_on_c, 0, 66, 93
2, 205680, Note_on_c, 0, 66, 0
2, 205680, Note_on_c, 0, 64, 93
2, 205920, Note_on_c, 0, 64, 0
2, 205920, Note_on_c, 0, 62, 106
2, 206160, Note_on_c, 0, 62, 0
2, 206160, Note_on_c, 0, 61, 106
2, 206400, Note_on_c, 0, 61, 0
2, 206400, Note_on_c, 0, 61, 80
2, 206400, Note_on_c, 0, 73, 80
2, 207120, Note_on_c, 0, 73, 0
2, 207120, Note_on_c, 0, 61, 0
2, 207120, Note_on_c, 0, 62, 93
2, 207120, Note_on_c, 0, 74, 93
2, 207360, Note_on_c, 0, 74, 0
2, 207360, Note_on_c, 0, 62, 0
2, 207360, Note_on_c, 0, 66, 93
2, 207360, Note_on_c, 0, 78, 93
2, 207600, Note_on_c, 0, 78, 0
2, 207600, Note_on_c, 0, 66, 0
2, 207600, Note_on_c, 0, 64, 93
2, 207600, Note_on_c, 0, 76, 93
2, 207840, Note_on_c, 0, 76, 0
2, 207840, Note_on_c, 0, 64, 0
2, 207840, Note_on_c, 0, 62, 106
2, 207840, Note_on_c, 0, 74, 106
2, 208080, Note_on_c, 0, 74, 0
2, 208080, Note_on_c, 0, 62, 0
2, 208080, Note_on_c, 0, 61, 106
2, 208080, Note_on_c, 0, 73, 106
2, 208320, Note_on_c, 0, 73, 0
2, 208320, Note_on_c, 0, 61, 0
2, 208320, Note_on_c, 0, 66, 80
2, 208320, Note_on_c, 0, 78, 80
2, 209040, Note_on_c, 0, 78, 0
2, 209040, Note_on_c, 0, 66, 0
2, 209040, Note_on_c, 0, 68, 80
2, 209040, Note_on_c, 0, 80, 80
2, 209280, Note_on_c, 0, 80, 0
2, 209280, Note_on_c, 0, 68, 0
2, 209280, Note_on_c, 0, 71, 93
2, 209280, Note_on_c, 0, 83, 93
2, 209520, Note_on_c, 0, 83, 0
2, 209520, Note_on_c, 0, 71, 0
2, 209520, Note_on_c, 0, 69, 93
2, 209520, Note_on_c, 0, 81, 93
2, 209760, Note_on_c, 0, 81, 0
2, 209760, Note_on_c, 0, 69, 0
2, 209760, Note_on_c, 0, 68, 106
2, 209760, Note_on_c, 0, 80, 106
2, 210000, Note_on_c, 0, 80, 0
2, 210000, Note_on_c, 0, 68, 0
2, 210000, Note_on_c, 0, 66, 106
2, 210000, Note_on_c, 0, 78, 106
2, 210240, Note_on_c, 0, 78, 0
2, 210240, Note_on_c, 0, 66, 0
2, 210240, Note_on_c, 0, 75, 80
2, 210240, Note_on_c, 0, 87, 80
2, 210960, Note_on_c, 0, 87, 0
2, 210960, Note_on_c, 0, 75, 0
2, 210960, Note_on_c, 0, 76, 80
2, 210960, Note_on_c, 0, 88, 80
2, 211200, Note_on_c, 0, 88, 0
2, 211200, Note_on_c, 0, 76, 0
2, 211200, Note_on_c, 0, 80, 93
2, 211200, Note_on_c, 0, 92, 93
2, 211440, Note_on_c, 0, 92, 0
2, 211440, Note_on_c, 0, 80, 0
2, 211440, Note_on_c, 0, 78, 93
2, 211440, Note_on_c, 0, 90, 93
2, 211680, Note_on_c, 0, 90, 0
2, 211680, Note_on_c, 0, 78, 0
2, 211680, Note_on_c, 0, 76, 106
2, 211680, Note_on_c, 0, 80, 106
2, 211680, Note_on_c, 0, 88, 106
2, 211920, Note_on_c, 0, 88, 0
2, 211920, Note_on_c, 0, 80, 0
2, 211920, Note_on_c, 0, 76, 0
2, 211920, Note_on_c, 0, 75, 106
2, 211920, Note_on_c, 0, 87, 106
2, 212160, Note_on_c, 0, 87, 0
2, 212160, Note_on_c, 0, 75, 0
2, 212160, Note_on_c, 0, 63, 80
2, 212880, Note_on_c, 0, 63, 0
2, 212880, Note_on_c, 0, 64, 80
2, 213120, Note_on_c, 0, 64, 0
2, 213120, Note_on_c, 0, 68, 93
2, 213360, Note_on_c, 0, 68, 0
2, 213360, Note_on_c, 0, 66, 93
2, 213600, Note_on_c, 0, 66, 0
2, 213600, Note_on_c, 0, 64, 106
2, 213840, Note_on_c, 0, 64, 0
2, 213840, Note_on_c, 0, 63, 106
2, 214080, Note_on_c, 0, 63, 0
2, 214080, Note_on_c, 0, 63, 80
2, 214080, Note_on_c, 0, 75, 80
2, 214800, Note_on_c, 0, 75, 0
2, 214800, Note_on_c, 0, 63, 0
2, 214800, Note_on_c, 0, 64, 80
2, 214800, Note_on_c, 0, 76, 80
2, 215040, Note_on_c, 0, 76, 0
2, 215040, Note_on_c, 0, 64, 0
2, 215040, Note_on_c, 0, 68, 93
2, 215040, Note_on_c, 0, 80, 93
2, 215280, Note_on_c, 0, 80, 0
2, 215280, Note_on_c, 0, 68, 0
2, 215280, Note_on_c, 0, 66, 93
2, 215280, Note_on_c, 0, 78, 93
2, 215520, Note_on_c, 0, 78, 0
2, 215520, Note_on_c, 0, 66, 0
2, 215520, Note_on_c, 0, 64, 106
2, 215520, Note_on_c, 0, 76, 106
2, 215760, Note_on_c, 0, 76, 0
2, 215760, Note_on_c, 0, 64, 0
2, 215760, Note_on_c, 0, 63, 106
2, 215760, Note_on_c, 0, 75, 106
2, 216000, Note_on_c, 0, 75, 0
2, 216000, Note_on_c, 0, 63, 0
2, 216000, Note_on_c, 0, 68, 80
2, 216000, Note_on_c, 0, 80, 80
2, 216720, Note_on_c, 0, 80, 0
2, 216720, Note_on_c, 0, 68, 0
2, 216720, Note_on_c, 0, 70, 93
2, 216720, Note_on_c, 0, 82, 93
2, 216960, Note_on_c, 0, 82, 0
2, 216960, Note_on_c, 0, 70, 0
2, 216960, Note_on_c, 0, 73, 93
2, 216960, Note_on_c, 0, 85, 93
2, 217200, Note_on_c, 0, 85, 0
2, 217200, Note_on_c, 0, 73, 0
2, 217200, Note_on_c, 0, 71, 93
2, 217200, Note_on_c, 0, 83, 93
2, 217440, Note_on_c, 0, 83, 0
2, 217440, Note_on_c, 0, 71, 0
2, 217440, Note_on_c, 0, 70, 106
2, 217440, Note_on_c, 0, 82, 106
2, 217680, Note_on_c, 0, 82, 0
2, 217680, Note_on_c, 0, 70, 0
2, 217680, Note_on_c, 0, 68, 106
2, 217680, Note_on_c, 0, 80, 106
2, 217920, Note_on_c, 0, 80, 0
2, 217920, Note_on_c, 0, 68, 0
2, 217920, Note_on_c, 0, 77, 80
2, 217920, Note_on_c, 0, 89, 80
2, 218640, Note_on_c, 0, 89, 0
2, 218640, Note_on_c, 0, 77, 0
2, 218640, Note_on_c, 0, 78, 93
2, 218640, Note_on_c, 0, 90, 93
2, 218880, Note_on_c, 0, 90, 0
2, 218880, Note_on_c, 0, 78, 0
2, 218880, Note_on_c, 0, 82, 93
2, 218880, Note_on_c, 0, 94, 93
2, 219120, Note_on_c, 0, 94, 0
2, 219120, Note_on_c, 0, 82, 0
2, 219120, Note_on_c, 0, 80, 93
2, 219120, Note_on_c, 0, 92, 93
2, 219360, Note_on_c, 0, 92, 0
2, 219360, Note_on_c, 0, 80, 0
2, 219360, Note_on_c, 0, 78, 106
2, 219360, Note_on_c, 0, 82, 106
2, 219360, Note_on_c, 0, 90, 106
2, 219600, Note_on_c, 0, 90, 0
2, 219600, Note_on_c, 0, 82, 0
2, 219600, Note_on_c, 0, 78, 0
2, 219600, Note_on_c, 0, 77, 106
2, 219600, Note_on_c, 0, 89, 106
2, 219840, Note_on_c, 0, 89, 0
2, 219840, Note_on_c, 0, 77, 0
2, 219840, Note_on_c, 0, 58, 80
2, 220560, Note_on_c, 0, 58, 0
2, 220560, Note_on_c, 0, 65, 80
2, 220800, Note_on_c, 0, 65, 0
2, 220800, Note_on_c, 0, 68, 93
2, 221040, Note_on_c, 0, 68, 0
2, 221040, Note_on_c, 0, 66, 93
2, 221280, Note_on_c, 0, 66, 0
2, 221280, Note_on_c, 0, 65, 106
2, 221520, Note_on_c, 0, 65, 0
2, 221520, Note_on_c, 0, 63, 106
2, 221760, Note_on_c, 0, 63, 0
2, 221760, Note_on_c, 0, 61, 80
2, 222240, Note_on_c, 0, 61, 0
2, 222240, Control_c, 0, 64, 127
2, 222240, Note_on_c, 0, 59, 80
2, 222293, Note_on_c, 0, 59, 0
2, 222293, Note_on_c, 0, 61, 80
2, 222346, Note_on_c, 0, 61, 0
2, 222346, Note_on_c, 0, 59, 80
2, 222399, Note_on_c, 0, 59, 0
2, 222399, Note_on_c, 0, 61, 80
2, 222453, Note_on_c, 0, 61, 0
2, 222453, Note_on_c, 0, 59, 80
2, 222506, Note_on_c, 0, 59, 0
2, 222506, Note_on_c, 0, 61, 80
2, 222560, Note_on_c, 0, 61, 0
2, 222560, Note_on_c, 0, 59, 93
2, 222613, Note_on_c, 0, 59, 0
2, 222613, Note_on_c, 0, 61, 93
2, 222666, Note_on_c, 0, 61, 0
2, 222666, Note_on_c, 0, 59, 93
2, 222720, Note_on_c, 0, 59, 0
2, 222720, Control_c, 0, 64, 0
2, 222720, Note_on_c, 0, 58, 93
2, 223680, Note_on_c, 0, 58, 0
2, 223680, Note_on_c, 0, 75, 93
2, 224400, Note_on_c, 0, 75, 0
2, 224400, Note_on_c, 0, 80, 93
2, 224640, Note_on_c, 0, 80, 0
2, 224640, Note_on_c, 0, 75, 106
2, 224640, Note_on_c, 0, 87, 106
2, 224880, Note_on_c, 0, 87, 0
2, 224880, Note_on_c, 0, 75, 0
2, 224880, Note_on_c, 0, 74, 106
2, 224880, Note_on_c, 0, 86, 106
2, 225120, Note_on_c, 0, 86, 0
2, 225120, Note_on_c, 0, 74, 0
2, 225120, Note_on_c, 0, 71, 119
2, 225120, Note_on_c, 0, 83, 119
2, 225360, Note_on_c, 0, 83, 0
2, 225360, Note_on_c, 0, 71, 0
2, 225360, Note_on_c, 0, 70, 119
2, 225360, Note_on_c, 0, 82, 119
2, 225600, Note_on_c, 0, 82, 0
2, 225600, Note_on_c, 0, 70, 0
2, 225600, Note_on_c, 0, 75, 119
2, 226080, Note_on_c, 0, 75, 0
2, 226080, Note_on_c, 0, 71, 93
2, 226080, Note_on_c, 0, 80, 93
2, 226239, Note_on_c, 0, 80, 0
2, 226239, Note_on_c, 0, 83, 93
2, 226400, Note_on_c, 0, 83, 0
2, 226400, Note_on_c, 0, 71, 0
2, 226400, Note_on_c, 0, 75, 93
2, 226400, Note_on_c, 0, 87, 93
2, 226560, Note_on_c, 0, 87, 0
2, 226560, Note_on_c, 0, 75, 0
2, 226560, Note_on_c, 0, 78, 119
2, 226560, Note_on_c, 0, 90, 119
2, 226800, Note_on_c, 0, 90, 0
2, 226800, Note_on_c, 0, 78, 0
2, 226800, Note_on_c, 0, 77, 93
2, 226800, Note_on_c, 0, 89, 93
2, 227040, Note_on_c, 0, 89, 0
2, 227040, Note_on_c, 0, 77, 0
2, 227040, Note_on_c, 0, 74, 119
2, 227040, Note_on_c, 0, 86, 119
2, 227280, Note_on_c, 0, 86, 0
2, 227280, Note_on_c, 0, 74, 0
2, 227280, Note_on_c, 0, 70, 119
2, 227280, Note_on_c, 0, 82, 119
2, 227520, Note_on_c, 0, 82, 0
2, 227520, Note_on_c, 0, 70, 0
2, 227520, Note_on_c, 0, 70, 80
2, 228240, Note_on_c, 0, 70, 0
2, 228240, Note_on_c, 0, 71, 80
2, 228480, Note_on_c, 0, 71, 0
2, 228480, Note_on_c, 0, 75, 93
2, 228720, Note_on_c, 0, 75, 0
2, 228720, Note_on_c, 0, 73, 93
2, 228960, Note_on_c, 0, 73, 0
2, 228960, Note_on_c, 0, 71, 106
2, 229200, Note_on_c, 0, 71, 0
2, 229200, Note_on_c, 0, 70, 106
2, 229440, Note_on_c, 0, 70, 0
2, 229440, Note_on_c, 0, 70, 80
2, 229440, Note_on_c, 0, 82, 80
2, 230160, Note_on_c, 0, 82, 0
2, 230160, Note_on_c, 0, 70, 0
2, 230160, Note_on_c, 0, 71, 93
2, 230160, Note_on_c, 0, 83, 93
2, 230400, Note_on_c, 0, 83, 0
2, 230400, Note_on_c, 0, 71, 0
2, 230400, Note_on_c, 0, 75, 93
2, 230400, Note_on_c, 0, 87, 93
2, 230640, Note_on_c, 0, 87, 0
2, 230640, Note_on_c, 0, 75, 0
2, 230640, Note_on_c, 0, 73, 93
2, 230640, Note_on_c, 0, 85, 93
2, 230880, Note_on_c, 0, 85, 0
2, 230880, Note_on_c, 0, 73, 0
2, 230880, Note_on_c, 0, 71, 106
2, 230880, Note_on_c, 0, 83, 106
2, 231120, Note_on_c, 0, 83, 0
2, 231120, Note_on_c, 0, 71, 0
2, 231120, Note_on_c, 0, 70, 106
2, 231120, Note_on_c, 0, 82, 106
2, 231360, Note_on_c, 0, 82, 0
2, 231360, Note_on_c, 0, 70, 0
2, 231360, Note_on_c, 0, 63, 93
2, 231360, Note_on_c, 0, 75, 93
2, 232080, Note_on_c, 0, 75, 0
2, 232080, Note_on_c, 0, 63, 0
2, 232080, Note_on_c, 0, 64, 106
2, 232080, Note_on_c, 0, 76, 106
2, 232320, Note_on_c, 0, 76, 0
2, 232320, Note_on_c, 0, 64, 0
2, 232320, Note_on_c, 0, 68, 106
2, 232320, Note_on_c, 0, 80, 106
2, 232560, Note_on_c, 0, 80, 0
2, 232560, Note_on_c, 0, 68, 0
2, 232560, Note_on_c, 0, 66, 106
2, 232560, Note_on_c, 0, 78, 106
2, 232800, Note_on_c, 0, 78, 0
2, 232800, Note_on_c, 0, 66, 0
2, 232800, Note_on_c, 0, 64, 119
2, 232800, Note_on_c, 0, 76, 119
2, 233040, Note_on_c, 0, 76, 0
2, 233040, Note_on_c, 0, 64, 0
2, 233040, Note_on_c, 0, 63, 119
2, 233040, Note_on_c, 0, 75, 119
2, 233280, Note_on_c, 0, 75, 0
2, 233280, Note_on_c, 0, 63, 0
2, 233280, Note_on_c, 0, 75, 93
2, 233280, Note_on_c, 0, 87, 93
2, 234000, Note_on_c, 0, 87, 0
2, 234000, Note_on_c, 0, 75, 0
2, 234000, Note_on_c, 0, 76, 106
2, 234000, Note_on_c, 0, 88, 106
2, 234240, Note_on_c, 0, 88, 0
2, 234240, Note_on_c, 0, 76, 0
2, 234240, Note_on_c, 0, 80, 106
2, 234240, Note_on_c, 0, 84, 106
2, 234240, Note_on_c, 0, 92, 106
2, 234480, Note_on_c, 0, 92, 0
2, 234480, Note_on_c, 0, 84, 0
2, 234480, Note_on_c, 0, 80, 0
2, 234480, Note_on_c, 0, 78, 106
2, 234480, Note_on_c, 0, 90, 106
2, 234720, Note_on_c, 0, 90, 0
2, 234720, Note_on_c, 0, 78, 0
2, 234720, Note_on_c, 0, 76, 119
2, 234720, Note_on_c, 0, 88, 119
2, 234960, Note_on_c, 0, 88, 0
2, 234960, Note_on_c, 0, 76, 0
2, 234960, Note_on_c, 0, 75, 119
2, 234960, Note_on_c, 0, 87, 119
2, 235200, Note_on_c, 0, 87, 0
2, 235200, Note_on_c, 0, 75, 0
2, 235200, Note_on_c, 0, 68, 80
2, 235920, Note_on_c, 0, 68, 0
2, 235920, Note_on_c, 0, 75, 93
2, 236160, Note_on_c, 0, 75, 0
2, 236160, Note_on_c, 0, 78, 93
2, 236400, Note_on_c, 0, 78, 0
2, 236400, Note_on_c, 0, 76, 93
2, 236640, Note_on_c, 0, 76, 0
2, 236640, Note_on_c, 0, 75, 106
2, 236880, Note_on_c, 0, 75, 0
2, 236880, Note_on_c, 0, 73, 106
2, 237120, Note_on_c, 0, 73, 0
2, 237120, Note_on_c, 0, 71, 80
2, 237600, Note_on_c, 0, 71, 0
2, 237600, Note_on_c, 0, 69, 80
2, 237653, Note_on_c, 0, 69, 0
2, 237653, Note_on_c, 0, 71, 80
2, 237706, Note_on_c, 0, 71, 0
2, 237706, Note_on_c, 0, 69, 80
2, 237759, Note_on_c, 0, 69, 0
2, 237759, Note_on_c, 0, 71, 80
2, 237813, Note_on_c, 0, 71, 0
2, 237813, Note_on_c, 0, 69, 80
2, 237866, Note_on_c, 0, 69, 0
2, 237866, Note_on_c, 0, 71, 80
2, 237920, Note_on_c, 0, 71, 0
2, 237920, Note_on_c, 0, 69, 80
2, 237973, Note_on_c, 0, 69, 0
2, 237973, Note_on_c, 0, 71, 80
2, 238026, Note_on_c, 0, 71, 0
2, 238026, Note_on_c, 0, 69, 80
2, 238080, Note_on_c, 0, 69, 0
2, 238080, Control_c, 0, 64, 127
2, 238080, Note_on_c, 0, 68, 93
2, 238200, Note_on_c, 0, 68, 0
2, 238200, Note_on_c, 0, 70, 93
2, 238320, Note_on_c, 0, 70, 0
2, 238320, Note_on_c, 0, 68, 93
2, 238440, Note_on_c, 0, 68, 0
2, 238440, Control_c, 0, 64, 0
2, 238440, Note_on_c, 0, 70, 93
2, 238560, Note_on_c, 0, 70, 0
2, 238560, Control_c, 0, 64, 127
2, 238560, Note_on_c, 0, 71, 93
2, 238680, Note_on_c, 0, 71, 0
2, 238680, Note_on_c, 0, 72, 93
2, 238800, Note_on_c, 0, 72, 0
2, 238800, Note_on_c, 0, 71, 93
2, 238920, Note_on_c, 0, 71, 0
2, 238920, Control_c, 0, 64, 0
2, 238920, Note_on_c, 0, 72, 93
2, 239040, Note_on_c, 0, 72, 0
2, 239040, Control_c, 0, 64, 127
2, 239040, Note_on_c, 0, 73, 93
2, 239160, Note_on_c, 0, 73, 0
2, 239160, Note_on_c, 0, 75, 93
2, 239280, Note_on_c, 0, 75, 0
2, 239280, Note_on_c, 0, 73, 93
2, 239400, Note_on_c, 0, 73, 0
2, 239400, Control_c, 0, 64, 0
2, 239400, Note_on_c, 0, 75, 93
2, 239520, Note_on_c, 0, 75, 0
2, 239520, Note_on_c, 0, 73, 93
2, 239520, Note_on_c, 0, 75, 93
2, 239640, Note_on_c, 0, 75, 0
2, 239640, Note_on_c, 0, 73, 0
2, 239640, Note_on_c, 0, 76, 93
2, 239760, Note_on_c, 0, 76, 0
2, 239760, Note_on_c, 0, 75, 93
2, 239880, Note_on_c, 0, 75, 0
2, 240000, Control_c, 0, 64, 127
2, 240000, Note_on_c, 0, 80, 93
2, 240120, Note_on_c, 0, 80, 0
2, 240120, Note_on_c, 0, 82, 93
2, 240240, Note_on_c, 0, 82, 0
2, 240240, Note_on_c, 0, 80, 93
2, 240360, Note_on_c, 0, 80, 0
2, 240360, Control_c, 0, 64, 0
2, 240360, Note_on_c, 0, 82, 93
2, 240480, Note_on_c, 0, 82, 0
2, 240480, Control_c, 0, 64, 127
2, 240480, Note_on_c, 0, 83, 93
2, 240600, Note_on_c, 0, 83, 0
2, 240600, Note_on_c, 0, 84, 93
2, 240720, Note_on_c, 0, 84, 0
2, 240720, Note_on_c, 0, 83, 93
2, 240840, Note_on_c, 0, 83, 0
2, 240840, Control_c, 0, 64, 0
2, 240840, Note_on_c, 0, 84, 93
2, 240960, Note_on_c, 0, 84, 0
2, 240960, Control_c, 0, 64, 127
2, 240960, Note_on_c, 0, 73, 93
2, 241080, Note_on_c, 0, 73, 0
2, 241080, Note_on_c, 0, 75, 93
2, 241200, Note_on_c, 0, 75, 0
2, 241200, Note_on_c, 0, 73, 93
2, 241320, Note_on_c, 0, 73, 0
2, 241320, Control_c, 0, 64, 0
2, 241320, Note_on_c, 0, 75, 93
2, 241440, Note_on_c, 0, 75, 0
2, 241440, Note_on_c, 0, 73, 93
2, 241440, Note_on_c, 0, 75, 93
2, 241560, Note_on_c, 0, 75, 0
2, 241560, Note_on_c, 0, 73, 0
2, 241560, Note_on_c, 0, 76, 93
2, 241680, Note_on_c, 0, 76, 0
2, 241680, Note_on_c, 0, 75, 93
2, 241800, Note_on_c, 0, 75, 0
2, 241920, Control_c, 0, 64, 127
2, 241920, Note_on_c, 0, 80, 93
2, 242040, Note_on_c, 0, 80, 0
2, 242040, Note_on_c, 0, 82, 93
2, 242160, Note_on_c, 0, 82, 0
2, 242160, Note_on_c, 0, 80, 93
2, 242280, Note_on_c, 0, 80, 0
2, 242280, Control_c, 0, 64, 0
2, 242280, Note_on_c, 0, 82, 93
2, 242400, Note_on_c, 0, 82, 0
2, 242400, Control_c, 0, 64, 127
2, 242400, Note_on_c, 0, 83, 93
2, 242520, Note_on_c, 0, 83, 0
2, 242520, Note_on_c, 0, 84, 93
2, 242640, Note_on_c, 0, 84, 0
2, 242640, Note_on_c, 0, 83, 93
2, 242760, Note_on_c, 0, 83, 0
2, 242760, Control_c, 0, 64, 0
2, 242760, Note_on_c, 0, 84, 93
2, 242880, Note_on_c, 0, 84, 0
2, 242880, Note_on_c, 0, 68, 93
2, 243600, Note_on_c, 0, 68, 0
2, 243600, Control_c, 0, 64, 127
2, 243600, Note_on_c, 0, 63, 93
2, 243600, Note_on_c, 0, 75, 93
2, 243840, Note_on_c, 0, 75, 0
2, 243840, Note_on_c, 0, 63, 0
2, 243840, Note_on_c, 0, 78, 93
2, 244080, Note_on_c, 0, 78, 0
2, 244080, Note_on_c, 0, 76, 93
2, 244320, Note_on_c, 0, 76, 0
2, 244320, Note_on_c, 0, 75, 93
2, 244560, Note_on_c, 0, 75, 0
2, 244560, Control_c, 0, 64, 0
2, 244560, Note_on_c, 0, 73, 93
2, 244800, Note_on_c, 0, 73, 0
2, 244800, Control_c, 0, 64, 127
2, 244800, Note_on_c, 0, 83, 93
2, 245040, Note_on_c, 0, 83, 0
2, 245040, Note_on_c, 0, 81, 93
2, 245280, Note_on_c, 0, 81, 0
2, 245280, Note_on_c, 0, 80, 93
2, 245520, Note_on_c, 0, 80, 0
2, 245520, Control_c, 0, 64, 0
2, 245520, Note_on_c, 0, 78, 93
2, 245760, Note_on_c, 0, 78, 0
2, 245760, Control_c, 0, 64, 127
2, 245760, Note_on_c, 0, 88, 93
2, 246000, Note_on_c, 0, 88, 0
2, 246000, Note_on_c, 0, 87, 93
2, 246240, Note_on_c, 0, 87, 0
2, 246240, Note_on_c, 0, 85, 93
2, 246480, Note_on_c, 0, 85, 0
2, 246480, Control_c, 0, 64, 0
2, 246480, Note_on_c, 0, 84, 93
2, 246720, Note_on_c, 0, 84, 0
2, 246720, Control_c, 0, 64, 127
2, 246720, Note_on_c, 0, 93, 93
2, 246960, Note_on_c, 0, 93, 0
2, 246960, Note_on_c, 0, 92, 93
2, 247200, Note_on_c, 0, 92, 0
2, 247200, Note_on_c, 0, 90, 93
2, 247440, Note_on_c, 0, 90, 0
2, 247440, Control_c, 0, 64, 0
2, 247440, Note_on_c, 0, 88, 93
2, 247680, Note_on_c, 0, 88, 0
2, 247680, Control_c, 0, 64, 127
2, 247680, Note_on_c, 0, 87, 93
2, 247920, Note_on_c, 0, 87, 0
2, 247920, Note_on_c, 0, 85, 93
2, 248160, Note_on_c, 0, 85, 0
2, 248160, Note_on_c, 0, 83, 93
2, 248400, Note_on_c, 0, 83, 0
2, 248400, Control_c, 0, 64, 0
2, 248400, Note_on_c, 0, 81, 93
2, 248640, Note_on_c, 0, 81, 0
2, 248640, Control_c, 0, 64, 127
2, 248640, Note_on_c, 0, 80, 93
2, 248880, Note_on_c, 0, 80, 0
2, 248880, Note_on_c, 0, 78, 93
2, 249120, Note_on_c, 0, 78, 0
2, 249120, Note_on_c, 0, 76, 93
2, 249360, Note_on_c, 0, 76, 0
2, 249360, Control_c, 0, 64, 0
2, 249360, Note_on_c, 0, 75, 93
2, 249600, Note_on_c, 0, 75, 0
2, 249600, Control_c, 0, 64, 127
2, 249600, Note_on_c, 0, 73, 93
2, 249840, Note_on_c, 0, 73, 0
2, 249840, Note_on_c, 0, 71, 93
2, 250080, Note_on_c, 0, 71, 0
2, 250080, Note_on_c, 0, 69, 93
2, 250320, Note_on_c, 0, 69, 0
2, 250320, Control_c, 0, 64, 0
2, 250320, Note_on_c, 0, 68, 93
2, 250560, Note_on_c, 0, 68, 0
2, 250560, Note_on_c, 0, 57, 106
2, 250560, Note_on_c, 0, 69, 106
2, 251280, Note_on_c, 0, 69, 0
2, 251280, Note_on_c, 0, 57, 0
2, 251280, Note_on_c, 0, 57, 106
2, 251280, Note_on_c, 0, 69, 106
2, 251400, Note_on_c, 0, 69, 0
2, 251400, Note_on_c, 0, 57, 0
2, 251400, Note_on_c, 0, 57, 106
2, 251400, Note_on_c, 0, 69, 106
2, 251520, Note_on_c, 0, 69, 0
2, 251520, Note_on_c, 0, 57, 0
2, 251520, Note_on_c, 0, 59, 106
2, 251520, Note_on_c, 0, 71, 106
2, 252240, Note_on_c, 0, 71, 0
2, 252240, Note_on_c, 0, 59, 0
2, 252240, Note_on_c, 0, 57, 106
2, 252240, Note_on_c, 0, 69, 106
2, 252360, Note_on_c, 0, 69, 0
2, 252360, Note_on_c, 0, 57, 0
2, 252360, Note_on_c, 0, 56, 106
2, 252360, Note_on_c, 0, 68, 106
2, 252480, Note_on_c, 0, 68, 0
2, 252480, Note_on_c, 0, 56, 0
2, 252480, Note_on_c, 0, 57, 127
2, 252480, Note_on_c, 0, 61, 127
2, 252480, Note_on_c, 0, 64, 127
2, 252480, Note_on_c, 0, 69, 127
2, 252720, Note_on_c, 0, 69, 0
2, 252720, Note_on_c, 0, 57, 0
2, 252720, Note_on_c, 0, 61, 0
2, 252720, Note_on_c, 0, 64, 0
2, 252720, Note_on_c, 0, 57, 127
2, 252720, Note_on_c, 0, 61, 127
2, 252720, Note_on_c, 0, 64, 127
2, 252720, Note_on_c, 0, 69, 127
2, 252960, Note_on_c, 0, 69, 0
2, 252960, Note_on_c, 0, 57, 0
2, 252960, Note_on_c, 0, 61, 0
2, 252960, Note_on_c, 0, 64, 0
2, 252960, Note_on_c, 0, 45, 106
2, 253119, Note_on_c, 0, 45, 0
2, 253119, Note_on_c, 0, 45, 106
2, 253280, Note_on_c, 0, 45, 0
2, 253280, Note_on_c, 0, 45, 106
2, 253440, Note_on_c, 0, 45, 0
2, 253440, Note_on_c, 0, 45, 106
2, 253920, Note_on_c, 0, 45, 0
2, 253920, Note_on_c, 0, 45, 106
2, 254400, Note_on_c, 0, 45, 0
2, 254400, Note_on_c, 0, 57, 106
2, 254400, Note_on_c, 0, 69, 106
2, 255120, Note_on_c, 0, 69, 0
2, 255120, Note_on_c, 0, 57, 0
2, 255120, Note_on_c, 0, 57, 106
2, 255120, Note_on_c, 0, 69, 106
2, 255240, Note_on_c, 0, 69, 0
2, 255240, Note_on_c, 0, 57, 0
2, 255240, Note_on_c, 0, 57, 106
2, 255240, Note_on_c, 0, 69, 106
2, 255360, Note_on_c, 0, 69, 0
2, 255360, Note_on_c, 0, 57, 0
2, 255360, Note_on_c, 0, 59, 106
2, 255360, Note_on_c, 0, 71, 106
2, 256080, Note_on_c, 0, 71, 0
2, 256080, Note_on_c, 0, 59, 0
2, 256080, Note_on_c, 0, 57, 106
2, 256080, Note_on_c, 0, 69, 106
2, 256200, Note_on_c, 0, 69, 0
2, 256200, Note_on_c, 0, 57, 0
2, 256200, Note_on_c, 0, 56, 106
2, 256200, Note_on_c, 0, 68, 106
2, 256320, Note_on_c, 0, 68, 0
2, 256320, Note_on_c, 0, 56, 0
2, 256320, Note_on_c, 0, 57, 127
2, 256320, Note_on_c, 0, 61, 127
2, 256320, Note_on_c, 0, 64, 127
2, 256320, Note_on_c, 0, 69, 127
2, 256560, Note_on_c, 0, 69, 0
2, 256560, Note_on_c, 0, 57, 0
2, 256560, Note_on_c, 0, 61, 0
2, 256560, Note_on_c, 0, 64, 0
2, 256560, Note_on_c, 0, 57, 127
2, 256560, Note_on_c, 0, 61, 127
2, 256560, Note_on_c, 0, 64, 127
2, 256560, Note_on_c, 0, 69, 127
2, 256800, Note_on_c, 0, 69, 0
2, 256800, Note_on_c, 0, 57, 0
2, 256800, Note_on_c, 0, 61, 0
2, 256800, Note_on_c, 0, 64, 0
2, 256800, Note_on_c, 0, 45, 106
2, 256959, Note_on_c, 0, 45, 0
2, 256959, Note_on_c, 0, 45, 106
2, 257120, Note_on_c, 0, 45, 0
2, 257120, Note_on_c, 0, 45, 106
2, 257280, Note_on_c, 0, 45, 0
2, 257280, Note_on_c, 0, 45, 106
2, 257760, Note_on_c, 0, 45, 0
2, 257760, Note_on_c, 0, 64, 106
2, 257760, Note_on_c, 0, 71, 106
2, 257760, Note_on_c, 0, 74, 106
2, 258240, Note_on_c, 0, 74, 0
2, 258240, Note_on_c, 0, 71, 0
2, 258240, Note_on_c, 0, 64, 0
2, 258240, Note_on_c, 0, 64, 106
2, 258240, Note_on_c, 0, 69, 106
2, 258240, Note_on_c, 0, 73, 106
2, 258720, Note_on_c, 0, 73, 0
2, 258720, Note_on_c, 0, 69, 0
2, 258720, Note_on_c, 0, 64, 0
2, 258720, Note_on_c, 0, 64, 106
2, 258720, Note_on_c, 0, 67, 106
2, 258720, Note_on_c, 0, 71, 106
2, 259200, Note_on_c, 0, 71, 0
2, 259200, Note_on_c, 0, 67, 0
2, 259200, Note_on_c, 0, 64, 0
2, 259200, Note_on_c, 0, 61, 106
2, 259200, Note_on_c, 0, 64, 106
2, 259200, Note_on_c, 0, 69, 106
2, 259680, Note_on_c, 0, 69, 0
2, 259680, Note_on_c, 0, 64, 0
2, 259680, Note_on_c, 0, 61, 0
2, 259680, Note_on_c, 0, 59, 106
2, 259680, Note_on_c, 0, 62, 106
2, 259680, Note_on_c, 0, 64, 106
2, 259680, Note_on_c, 0, 67, 106
2, 260160, Note_on_c, 0, 67, 0
2, 260160, Note_on_c, 0, 59, 0
2, 260160, Note_on_c, 0, 62, 0
2, 260160, Note_on_c, 0, 64, 0
2, 260160, Note_on_c, 0, 57, 127
2, 260160, Note_on_c, 0, 61, 127
2, 260160, Note_on_c, 0, 64, 127
2, 260160, Note_on_c, 0, 69, 127
2, 260400, Note_on_c, 0, 69, 0
2, 260400, Note_on_c, 0, 57, 0
2, 260400, Note_on_c, 0, 61, 0
2, 260400, Note_on_c, 0, 64, 0
2, 260400, Note_on_c, 0, 57, 127
2, 260400, Note_on_c, 0, 61, 127
2, 260400, Note_on_c, 0, 64, 127
2, 260400, Note_on_c, 0, 69, 127
2, 260640, Note_on_c, 0, 69, 0
2, 260640, Note_on_c, 0, 57, 0
2, 260640, Note_on_c, 0, 61, 0
2, 260640, Note_on_c, 0, 64, 0
2, 260640, Note_on_c, 0, 45, 106
2, 260799, Note_on_c, 0, 45, 0
2, 260799, Note_on_c, 0, 45, 106
2, 260960, Note_on_c, 0, 45, 0
2, 260960, Note_on_c, 0, 45, 106
2, 261120, Note_on_c, 0, 45, 0
2, 261120, Note_on_c, 0, 45, 106
2, 261600, Note_on_c, 0, 45, 0
2, 261600, Note_on_c, 0, 64, 106
2, 261600, Note_on_c, 0, 71, 106
2, 261600, Note_on_c, 0, 74, 106
2, 262080, Note_on_c, 0, 74, 0
2, 262080, Note_on_c, 0, 71, 0
2, 262080, Note_on_c, 0, 64, 0
2, 262080, Note_on_c, 0, 64, 106
2, 262080, Note_on_c, 0, 69, 106
2, 262080, Note_on_c, 0, 73, 106
2, 262560, Note_on_c, 0, 73, 0
2, 262560, Note_on_c, 0, 69, 0
2, 262560, Note_on_c, 0, 64, 0
2, 262560, Note_on_c, 0, 64, 106
2, 262560, Note_on_c, 0, 67, 106
2, 262560, Note_on_c, 0, 71, 106
2, 263040, Note_on_c, 0, 71, 0
2, 263040, Note_on_c, 0, 67, 0
2, 263040, Note_on_c, 0, 64, 0
2, 263040, Note_on_c, 0, 61, 106
2, 263040, Note_on_c, 0, 64, 106
2, 263040, Note_on_c, 0, 69, 106
2, 263520, Note_on_c, 0, 69, 0
2, 263520, Note_on_c, 0, 64, 0
2, 263520, Note_on_c, 0, 61, 0
2, 263520, Note_on_c, 0, 59, 106
2, 263520, Note_on_c, 0, 62, 106
2, 263520, Note_on_c, 0, 64, 106
2, 263520, Note_on_c, 0, 67, 106
2, 264000, Note_on_c, 0, 67, 0
2, 264000, Note_on_c, 0, 59, 0
2, 264000, Note_on_c, 0, 62, 0
2, 264000, Note_on_c, 0, 64, 0
2, 264000, Note_on_c, 0, 57, 127
2, 264000, Note_on_c, 0, 61, 127
2, 264000, Note_on_c, 0, 64, 127
2, 264000, Note_on_c, 0, 69, 127
2, 264240, Note_on_c, 0, 69, 0
2, 264240, Note_on_c, 0, 57, 0
2, 264240, Note_on_c, 0, 61, 0
2, 264240, Note_on_c, 0, 64, 0
2, 264240, Note_on_c, 0, 57, 127
2, 264240, Note_on_c, 0, 61, 127
2, 264240, Note_on_c, 0, 64, 127
2, 264240, Note_on_c, 0, 69, 127
2, 264480, Note_on_c, 0, 69, 0
2, 264480, Note_on_c, 0, 57, 0
2, 264480, Note_on_c, 0, 61, 0
2, 264480, Note_on_c, 0, 64, 0
2, 265440, Note_on_c, 0, 57, 127
2, 265440, Note_on_c, 0, 61, 127
2, 265440, Note_on_c, 0, 64, 127
2, 265440, Note_on_c, 0, 69, 127
2, 265680, Note_on_c, 0, 69, 0
2, 265680, Note_on_c, 0, 57, 0
2, 265680, Note_on_c, 0, 61, 0
2, 265680, Note_on_c, 0, 64, 0
2, 266400, Note_on_c, 0, 57, 127
2, 266400, Note_on_c, 0, 61, 127
2, 266400, Note_on_c, 0, 64, 127
2, 266400, Note_on_c, 0, 69, 127
2, 266640, Note_on_c, 0, 69, 0
2, 266640, Note_on_c, 0, 57, 0
2, 266640, Note_on_c, 0, 61, 0
2, 266640, Note_on_c, 0, 64, 0
2, 267360, Note_on_c, 0, 57, 127
2, 267360, Note_on_c, 0, 61, 127
2, 267360, Note_on_c, 0, 64, 127
2, 267360, Note_on_c, 0, 69, 127
2, 267600, Note_on_c, 0, 69, 0
2, 267600, Note_on_c, 0, 57, 0
2, 267600, Note_on_c, 0, 61, 0
2, 267600, Note_on_c, 0, 64, 0
2, 269040, Note_on_c, 0, 57, 80
2, 269040, Note_on_c, 0, 64, 80
2, 269040, Note_on_c, 0, 69, 80
2, 269136, Note_on_c, 0, 69, 0
2, 269136, Note_on_c, 0, 64, 0
2, 269136, Note_on_c, 0, 57, 0
2, 269760, Note_on_c, 0, 49, 80
2, 269760, Note_on_c, 0, 52, 80
2, 269760, Note_on_c, 0, 57, 80
2, 269856, Note_on_c, 0, 57, 0
2, 269856, Note_on_c, 0, 52, 0
2, 269856, Note_on_c, 0, 49, 0
2, 270480, Note_on_c, 0, 57, 80
2, 270480, Note_on_c, 0, 64, 80
2, 270480, Note_on_c, 0, 69, 80
2, 270576, Note_on_c, 0, 69, 0
2, 270576, Note_on_c, 0, 64, 0
2, 270576, Note_on_c, 0, 57, 0
2, 271920, Note_on_c, 0, 57, 80
2, 271920, Note_on_c, 0, 64, 80
2, 271920, Note_on_c, 0, 69, 80
2, 272016, Note_on_c, 0, 69, 0
2, 272016, Note_on_c, 0, 64, 0
2, 272016, Note_on_c, 0, 57, 0
2, 272640, Note_on_c, 0, 49, 80
2, 272640, Note_on_c, 0, 52, 80
2, 272640, Note_on_c, 0, 57, 80
2, 272736, Note_on_c, 0, 57, 0
2, 272736, Note_on_c, 0, 52, 0
2, 272736, Note_on_c, 0, 49, 0
2, 273360, Note_on_c, 0, 57, 80
2, 273360, Note_on_c, 0, 64, 80
2, 273360, Note_on_c, 0, 69, 80
2, 273456, Note_on_c, 0, 69, 0
2, 273456, Note_on_c, 0, 64, 0
2, 273456, Note_on_c, 0, 57, 0
2, 274800, Note_on_c, 0, 57, 80
2, 274800, Note_on_c, 0, 62, 80
2, 274800, Note_on_c, 0, 69, 80
2, 274896, Note_on_c, 0, 69, 0
2, 274896, Note_on_c, 0, 62, 0
2, 274896, Note_on_c, 0, 57, 0
2, 275520, Note_on_c, 0, 50, 80
2, 275520, Note_on_c, 0, 57, 80
2, 275616, Note_on_c, 0, 57, 0
2, 275616, Note_on_c, 0, 50, 0
2, 276240, Note_on_c, 0, 57, 80
2, 276240, Note_on_c, 0, 62, 80
2, 276240, Note_on_c, 0, 69, 80
2, 276336, Note_on_c, 0, 69, 0
2, 276336, Note_on_c, 0, 62, 0
2, 276336, Note_on_c, 0, 57, 0
2, 277680, Note_on_c, 0, 57, 80
2, 277680, Note_on_c, 0, 62, 80
2, 277680, Note_on_c, 0, 69, 80
2, 277776, Note_on_c, 0, 69, 0
2, 277776, Note_on_c, 0, 62, 0
2, 277776, Note_on_c, 0, 57, 0
2, 278400, Note_on_c, 0, 50, 80
2, 278400, Note_on_c, 0, 57, 80
2, 278496, Note_on_c, 0, 57, 0
2, 278496, Note_on_c, 0, 50, 0
2, 279120, Note_on_c, 0, 62, 80
2, 279360, Note_on_c, 0, 62, 0
2, 279360, Note_on_c, 0, 61, 80
2, 279600, Note_on_c, 0, 61, 0
2, 279600, Note_on_c, 0, 59, 106
2, 279840, Note_on_c, 0, 59, 0
2, 279840, Note_on_c, 0, 62, 106
2, 280560, Note_on_c, 0, 62, 0
2, 280560, Note_on_c, 0, 61, 80
2, 282000, Note_on_c, 0, 61, 0
2, 282000, Note_on_c, 0, 57, 80
2, 282240, Note_on_c, 0, 57, 0
2, 282240, Note_on_c, 0, 59, 80
2, 282480, Note_on_c, 0, 59, 0
2, 282480, Note_on_c, 0, 61, 106
2, 282720, Note_on_c, 0, 61, 0
2, 282720, Note_on_c, 0, 64, 106
2, 283440, Note_on_c, 0, 64, 0
2, 283440, Note_on_c, 0, 62, 80
2, 284880, Note_on_c, 0, 62, 0
2, 284880, Note_on_c, 0, 62, 80
2, 285120, Note_on_c, 0, 62, 0
2, 285120, Note_on_c, 0, 64, 80
2, 285360, Note_on_c, 0, 64, 0
2, 285360, Note_on_c, 0, 66, 106
2, 285600, Note_on_c, 0, 66, 0
2, 285600, Note_on_c, 0, 67, 80
2, 286320, Note_on_c, 0, 67, 0
2, 286320, Note_on_c, 0, 67, 80
2, 286800, Note_on_c, 0, 67, 0
2, 286800, Note_on_c, 0, 67, 93
2, 287040, Note_on_c, 0, 67, 0
2, 287040, Note_on_c, 0, 67, 93
2, 288240, Note_on_c, 0, 67, 0
2, 288240, Note_on_c, 0, 67, 93
2, 288480, Note_on_c, 0, 67, 0
2, 288480, Note_on_c, 0, 67, 93
2, 289200, Note_on_c, 0, 67, 0
2, 289200, Note_on_c, 0, 66, 93
2, 290640, Note_on_c, 0, 66, 0
2, 290640, Note_on_c, 0, 62, 80
2, 290880, Note_on_c, 0, 62, 0
2, 290880, Note_on_c, 0, 61, 80
2, 291120, Note_on_c, 0, 61, 0
2, 291120, Note_on_c, 0, 59, 106
2, 291360, Note_on_c, 0, 59, 0
2, 291360, Note_on_c, 0, 62, 106
2, 292080, Note_on_c, 0, 62, 0
2, 292080, Note_on_c, 0, 61, 80
2, 293520, Note_on_c, 0, 61, 0
2, 293520, Note_on_c, 0, 57, 80
2, 293760, Note_on_c, 0, 57, 0
2, 293760, Note_on_c, 0, 59, 93
2, 294000, Note_on_c, 0, 59, 0
2, 294000, Note_on_c, 0, 61, 119
2, 294240, Note_on_c, 0, 61, 0
2, 294240, Note_on_c, 0, 64, 119
2, 294960, Note_on_c, 0, 64, 0
2, 294960, Note_on_c, 0, 62, 80
2, 296400, Note_on_c, 0, 62, 0
2, 296400, Note_on_c, 0, 62, 106
2, 296640, Note_on_c, 0, 62, 0
2, 296640, Note_on_c, 0, 64, 106
2, 296880, Note_on_c, 0, 64, 0
2, 296880, Note_on_c, 0, 66, 119
2, 297120, Note_on_c, 0, 66, 0
2, 297120, Note_on_c, 0, 68, 119
2, 297840, Note_on_c, 0, 68, 0
2, 297840, Note_on_c, 0, 68, 93
2, 298320, Note_on_c, 0, 68, 0
2, 298320, Note_on_c, 0, 68, 93
2, 298560, Note_on_c, 0, 68, 0
2, 298560, Note_on_c, 0, 68, 80
2, 299760, Note_on_c, 0, 68, 0
2, 299760, Note_on_c, 0, 68, 93
2, 300000, Note_on_c, 0, 68, 0
2, 300000, Note_on_c, 0, 68, 93
2, 300240, Note_on_c, 0, 68, 0
2, 300240, Note_on_c, 0, 71, 93
2, 300480, Note_on_c, 0, 71, 0
2, 300480, Note_on_c, 0, 69, 93
2, 300720, Note_on_c, 0, 69, 0
2, 300720, Note_on_c, 0, 66, 93
2, 300720, Note_on_c, 0, 69, 93
2, 302160, Note_on_c, 0, 69, 0
2, 302160, Note_on_c, 0, 66, 0
2, 302160, Note_on_c, 0, 66, 106
2, 302400, Note_on_c, 0, 66, 0
2, 302400, Note_on_c, 0, 67, 106
2, 302640, Note_on_c, 0, 67, 0
2, 302640, Note_on_c, 0, 69, 119
2, 302880, Note_on_c, 0, 69, 0
2, 302880, Note_on_c, 0, 69, 93
2, 303600, Note_on_c, 0, 69, 0
2, 303600, Note_on_c, 0, 59, 80
2, 305040, Note_on_c, 0, 59, 0
2, 305040, Note_on_c, 0, 64, 106
2, 305040, Note_on_c, 0, 67, 106
2, 305280, Note_on_c, 0, 67, 0
2, 305280, Note_on_c, 0, 64, 0
2, 305280, Note_on_c, 0, 66, 106
2, 305520, Note_on_c, 0, 66, 0
2, 305520, Note_on_c, 0, 67, 119
2, 305760, Note_on_c, 0, 67, 0
2, 305760, Note_on_c, 0, 67, 119
2, 306480, Note_on_c, 0, 67, 0
2, 306480, Note_on_c, 0, 57, 80
2, 307920, Note_on_c, 0, 57, 0
2, 307920, Note_on_c, 0, 62, 106
2, 307920, Note_on_c, 0, 66, 106
2, 308160, Note_on_c, 0, 66, 0
2, 308160, Note_on_c, 0, 62, 0
2, 308160, Note_on_c, 0, 64, 106
2, 308400, Note_on_c, 0, 64, 0
2, 308400, Note_on_c, 0, 66, 119
2, 308640, Note_on_c, 0, 66, 0
2, 308640, Note_on_c, 0, 66, 93
2, 309360, Note_on_c, 0, 66, 0
2, 309360, Note_on_c, 0, 66, 93
2, 309840, Note_on_c, 0, 66, 0
2, 309840, Note_on_c, 0, 66, 93
2, 310080, Note_on_c, 0, 66, 0
2, 310080, Note_on_c, 0, 66, 106
2, 311280, Note_on_c, 0, 66, 0
2, 311280, Note_on_c, 0, 64, 106
2, 311520, Note_on_c, 0, 64, 0
2, 311520, Note_on_c, 0, 71, 106
2, 312000, Note_on_c, 0, 71, 0
2, 312000, Note_on_c, 0, 69, 106
2, 312480, Note_on_c, 0, 69, 0
2, 312480, Note_on_c, 0, 57, 106
2, 312720, Note_on_c, 0, 57, 0
2, 312720, Note_on_c, 0, 59, 106
2, 312960, Note_on_c, 0, 59, 0
2, 312960, Note_on_c, 0, 61, 80
2, 313200, Note_on_c, 0, 61, 0
2, 313200, Note_on_c, 0, 62, 80
2, 313440, Note_on_c, 0, 62, 0
2, 313440, Note_on_c, 0, 64, 106
2, 313680, Note_on_c, 0, 64, 0
2, 313680, Note_on_c, 0, 66, 106
2, 313920, Note_on_c, 0, 66, 0
2, 313920, Note_on_c, 0, 67, 119
2, 314160, Note_on_c, 0, 67, 0
2, 314160, Note_on_c, 0, 69, 119
2, 314400, Note_on_c, 0, 69, 0
2, 314400, Note_on_c, 0, 69, 93
2, 315120, Note_on_c, 0, 69, 0
2, 315120, Note_on_c, 0, 59, 80
2, 316560, Note_on_c, 0, 59, 0
2, 316560, Note_on_c, 0, 64, 106
2, 316560, Note_on_c, 0, 67, 106
2, 316800, Note_on_c, 0, 67, 0
2, 316800, Note_on_c, 0, 64, 0
2, 316800, Note_on_c, 0, 66, 106
2, 317040, Note_on_c, 0, 66, 0
2, 317040, Note_on_c, 0, 67, 119
2, 317280, Note_on_c, 0, 67, 0
2, 317280, Note_on_c, 0, 67, 119
2, 318000, Note_on_c, 0, 67, 0
2, 318000, Note_on_c, 0, 57, 80
2, 319440, Note_on_c, 0, 57, 0
2, 319440, Note_on_c, 0, 62, 106
2, 319440, Note_on_c, 0, 66, 106
2, 319680, Note_on_c, 0, 66, 0
2, 319680, Note_on_c, 0, 62, 0
2, 319680, Note_on_c, 0, 64, 106
2, 319920, Note_on_c, 0, 64, 0
2, 319920, Note_on_c, 0, 66, 119
2, 320160, Note_on_c, 0, 66, 0
2, 320160, Note_on_c, 0, 66, 93
2, 320880, Note_on_c, 0, 66, 0
2, 320880, Note_on_c, 0, 66, 93
2, 321360, Note_on_c, 0, 66, 0
2, 321360, Note_on_c, 0, 66, 93
2, 321600, Note_on_c, 0, 66, 0
2, 321600, Note_on_c, 0, 66, 106
2, 322800, Note_on_c, 0, 66, 0
2, 322800, Note_on_c, 0, 64, 106
2, 323040, Note_on_c, 0, 64, 0
2, 323040, Note_on_c, 0, 69, 106
2, 323040, Note_on_c, 0, 71, 106
2, 323760, Note_on_c, 0, 71, 0
2, 323760, Note_on_c, 0, 69, 0
2, 323760, Note_on_c, 0, 68, 106
2, 323760, Note_on_c, 0, 71, 106
2, 324240, Note_on_c, 0, 71, 0
2, 324240, Note_on_c, 0, 68, 0
2, 324240, Note_on_c, 0, 68, 106
2, 324240, Note_on_c, 0, 71, 106
2, 324480, Note_on_c, 0, 71, 0
2, 324480, Note_on_c, 0, 68, 0
2, 324480, Note_on_c, 0, 67, 93
2, 324480, Note_on_c, 0, 71, 93
2, 324960, Note_on_c, 0, 71, 0
2, 324960, Note_on_c, 0, 67, 0
2, 324960, Note_on_c, 0, 67, 80
2, 324960, Note_on_c, 0, 69, 80
2, 325200, Note_on_c, 0, 69, 0
2, 325200, Note_on_c, 0, 67, 0
2, 325200, Note_on_c, 0, 62, 93
2, 325200, Note_on_c, 0, 66, 93
2, 325200, Note_on_c, 0, 74, 93
2, 325440, Note_on_c, 0, 74, 0
2, 325440, Note_on_c, 0, 66, 0
2, 325440, Note_on_c, 0, 62, 0
2, 325440, Note_on_c, 0, 61, 93
2, 325440, Note_on_c, 0, 73, 93
2, 325680, Note_on_c, 0, 73, 0
2, 325680, Note_on_c, 0, 61, 0
2, 325680, Note_on_c, 0, 59, 119
2, 325680, Note_on_c, 0, 71, 119
2, 325920, Note_on_c, 0, 71, 0
2, 325920, Note_on_c, 0, 59, 0
2, 325920, Note_on_c, 0, 62, 106
2, 325920, Note_on_c, 0, 74, 106
2, 326400, Note_on_c, 0, 74, 0
2, 326400, Note_on_c, 0, 62, 0
2, 326400, Note_on_c, 0, 61, 80
2, 326400, Note_on_c, 0, 73, 80
2, 327360, Note_on_c, 0, 73, 0
2, 327360, Note_on_c, 0, 61, 0
2, 327360, Note_on_c, 0, 57, 80
2, 327360, Note_on_c, 0, 67, 80
2, 327360, Note_on_c, 0, 69, 80
2, 327519, Note_on_c, 0, 69, 0
2, 327519, Note_on_c, 0, 67, 0
2, 327519, Note_on_c, 0, 57, 0
2, 327519, Note_on_c, 0, 59, 93
2, 327519, Note_on_c, 0, 71, 93
2, 327680, Note_on_c, 0, 71, 0
2, 327680, Note_on_c, 0, 59, 0
2, 327680, Note_on_c, 0, 61, 119
2, 327680, Note_on_c, 0, 73, 119
2, 327840, Note_on_c, 0, 73, 0
2, 327840, Note_on_c, 0, 61, 0
2, 327840, Note_on_c, 0, 64, 119
2, 327840, Note_on_c, 0, 76, 119
2, 328320, Note_on_c, 0, 76, 0
2, 328320, Note_on_c, 0, 64, 0
2, 328320, Note_on_c, 0, 62, 80
2, 328320, Note_on_c, 0, 74, 80
2, 329280, Note_on_c, 0, 74, 0
2, 329280, Note_on_c, 0, 62, 0
2, 329280, Note_on_c, 0, 62, 106
2, 329280, Note_on_c, 0, 66, 106
2, 329280, Note_on_c, 0, 74, 106
2, 329439, Note_on_c, 0, 74, 0
2, 329439, Note_on_c, 0, 66, 0
2, 329439, Note_on_c, 0, 62, 0
2, 329439, Note_on_c, 0, 64, 119
2, 329439, Note_on_c, 0, 76, 119
2, 329600, Note_on_c, 0, 76, 0
2, 329600, Note_on_c, 0, 64, 0
2, 329600, Note_on_c, 0, 66, 119
2, 329600, Note_on_c, 0, 78, 119
2, 329760, Note_on_c, 0, 78, 0
2, 329760, Note_on_c, 0, 66, 0
2, 329760, Note_on_c, 0, 67, 93
2, 329760, Note_on_c, 0, 79, 93
2, 330240, Note_on_c, 0, 79, 0
2, 330240, Note_on_c, 0, 67, 0
2, 330240, Note_on_c, 0, 67, 93
2, 330240, Note_on_c, 0, 79, 93
2, 330560, Note_on_c, 0, 79, 0
2, 330560, Note_on_c, 0, 67, 0
2, 330560, Note_on_c, 0, 67, 93
2, 330560, Note_on_c, 0, 79, 93
2, 330720, Note_on_c, 0, 79, 0
2, 330720, Note_on_c, 0, 67, 0
2, 330720, Note_on_c, 0, 67, 93
2, 330720, Note_on_c, 0, 79, 93
2, 331520, Note_on_c, 0, 79, 0
2, 331520, Note_on_c, 0, 67, 0
2, 331520, Note_on_c, 0, 67, 93
2, 331520, Note_on_c, 0, 79, 93
2, 331680, Note_on_c, 0, 79, 0
2, 331680, Note_on_c, 0, 67, 0
2, 331680, Note_on_c, 0, 67, 106
2, 331680, Note_on_c, 0, 79, 106
2, 331920, Note_on_c, 0, 79, 0
2, 331920, Note_on_c, 0, 67, 0
2, 331920, Note_on_c, 0, 66, 106
2, 331920, Note_on_c, 0, 78, 106
2, 332160, Note_on_c, 0, 78, 0
2, 332160, Note_on_c, 0, 66, 0
2, 332160, Note_on_c, 0, 71, 106
2, 332160, Note_on_c, 0, 83, 106
2, 332400, Note_on_c, 0, 83, 0
2, 332400, Note_on_c, 0, 71, 0
2, 332400, Note_on_c, 0, 69, 106
2, 332400, Note_on_c, 0, 81, 106
2, 332640, Note_on_c, 0, 81, 0
2, 332640, Note_on_c, 0, 69, 0
2, 332640, Note_on_c, 0, 67, 106
2, 332640, Note_on_c, 0, 69, 106
2, 332640, Note_on_c, 0, 79, 106
2, 332799, Note_on_c, 0, 79, 0
2, 332799, Note_on_c, 0, 69, 0
2, 332799, Note_on_c, 0, 67, 0
2, 332799, Note_on_c, 0, 66, 106
2, 332799, Note_on_c, 0, 78, 106
2, 332960, Note_on_c, 0, 78, 0
2, 332960, Note_on_c, 0, 66, 0
2, 332960, Note_on_c, 0, 64, 119
2, 332960, Note_on_c, 0, 76, 119
2, 333120, Note_on_c, 0, 76, 0
2, 333120, Note_on_c, 0, 64, 0
2, 333120, Note_on_c, 0, 62, 119
2, 333120, Note_on_c, 0, 69, 119
2, 333120, Note_on_c, 0, 74, 119
2, 333279, Note_on_c, 0, 74, 0
2, 333279, Note_on_c, 0, 69, 0
2, 333279, Note_on_c, 0, 62, 0
2, 333279, Note_on_c, 0, 61, 106
2, 333279, Note_on_c, 0, 73, 106
2, 333440, Note_on_c, 0, 73, 0
2, 333440, Note_on_c, 0, 61, 0
2, 333440, Note_on_c, 0, 59, 106
2, 333440, Note_on_c, 0, 71, 106
2, 333600, Note_on_c, 0, 71, 0
2, 333600, Note_on_c, 0, 59, 0
2, 333600, Note_on_c, 0, 64, 106
2, 333600, Note_on_c, 0, 74, 106
2, 334080, Note_on_c, 0, 74, 0
2, 334080, Note_on_c, 0, 64, 0
2, 334080, Note_on_c, 0, 61, 80
2, 334080, Note_on_c, 0, 73, 80
2, 335040, Note_on_c, 0, 73, 0
2, 335040, Note_on_c, 0, 61, 0
2, 335040, Note_on_c, 0, 57, 80
2, 335040, Note_on_c, 0, 67, 80
2, 335040, Note_on_c, 0, 69, 80
2, 335199, Note_on_c, 0, 69, 0
2, 335199, Note_on_c, 0, 67, 0
2, 335199, Note_on_c, 0, 57, 0
2, 335199, Note_on_c, 0, 59, 93
2, 335199, Note_on_c, 0, 71, 93
2, 335360, Note_on_c, 0, 71, 0
2, 335360, Note_on_c, 0, 59, 0
2, 335360, Note_on_c, 0, 61, 119
2, 335360, Note_on_c, 0, 73, 119
2, 335520, Note_on_c, 0, 73, 0
2, 335520, Note_on_c, 0, 61, 0
2, 335520, Note_on_c, 0, 64, 119
2, 335520, Note_on_c, 0, 76, 119
2, 336000, Note_on_c, 0, 76, 0
2, 336000, Note_on_c, 0, 64, 0
2, 336000, Note_on_c, 0, 62, 80
2, 336000, Note_on_c, 0, 74, 80
2, 336960, Note_on_c, 0, 74, 0
2, 336960, Note_on_c, 0, 62, 0
2, 336960, Note_on_c, 0, 62, 106
2, 336960, Note_on_c, 0, 66, 106
2, 336960, Note_on_c, 0, 74, 106
2, 337119, Note_on_c, 0, 74, 0
2, 337119, Note_on_c, 0, 66, 0
2, 337119, Note_on_c, 0, 62, 0
2, 337119, Note_on_c, 0, 64, 119
2, 337119, Note_on_c, 0, 76, 119
2, 337280, Note_on_c, 0, 76, 0
2, 337280, Note_on_c, 0, 64, 0
2, 337280, Note_on_c, 0, 66, 119
2, 337280, Note_on_c, 0, 78, 119
2, 337440, Note_on_c, 0, 78, 0
2, 337440, Note_on_c, 0, 66, 0
2, 337440, Note_on_c, 0, 68, 93
2, 337440, Note_on_c, 0, 80, 93
2, 337920, Note_on_c, 0, 80, 0
2, 337920, Note_on_c, 0, 68, 0
2, 337920, Note_on_c, 0, 68, 93
2, 337920, Note_on_c, 0, 80, 93
2, 338240, Note_on_c, 0, 80, 0
2, 338240, Note_on_c, 0, 68, 0
2, 338240, Note_on_c, 0, 68, 93
2, 338240, Note_on_c, 0, 80, 93
2, 338400, Note_on_c, 0, 80, 0
2, 338400, Note_on_c, 0, 68, 0
2, 338400, Note_on_c, 0, 68, 93
2, 338400, Note_on_c, 0, 80, 93
2, 338880, Note_on_c, 0, 80, 0
2, 338880, Note_on_c, 0, 68, 0
2, 338880, Note_on_c, 0, 62, 119
2, 338880, Note_on_c, 0, 74, 119
2, 339039, Note_on_c, 0, 74, 0
2, 339039, Note_on_c, 0, 62, 0
2, 339039, Note_on_c, 0, 64, 119
2, 339039, Note_on_c, 0, 76, 119
2, 339200, Note_on_c, 0, 76, 0
2, 339200, Note_on_c, 0, 64, 0
2, 339200, Note_on_c, 0, 66, 119
2, 339200, Note_on_c, 0, 78, 119
2, 339360, Note_on_c, 0, 78, 0
2, 339360, Note_on_c, 0, 66, 0
2, 339360, Note_on_c, 0, 68, 93
2, 339360, Note_on_c, 0, 80, 93
2, 339840, Note_on_c, 0, 80, 0
2, 339840, Note_on_c, 0, 68, 0
2, 339840, Note_on_c, 0, 68, 93
2, 339840, Note_on_c, 0, 80, 93
2, 340160, Note_on_c, 0, 80, 0
2, 340160, Note_on_c, 0, 68, 0
2, 340160, Note_on_c, 0, 68, 93
2, 340160, Note_on_c, 0, 80, 93
2, 340320, Note_on_c, 0, 80, 0
2, 340320, Note_on_c, 0, 68, 0
2, 340320, Note_on_c, 0, 68, 93
2, 340320, Note_on_c, 0, 80, 93
2, 340800, Note_on_c, 0, 80, 0
2, 340800, Note_on_c, 0, 68, 0
2, 340800, Note_on_c, 0, 68, 127
2, 340800, Note_on_c, 0, 80, 127
2, 340959, Note_on_c, 0, 80, 0
2, 340959, Note_on_c, 0, 68, 0
2, 340959, Note_on_c, 0, 69, 127
2, 340959, Note_on_c, 0, 81, 127
2, 341120, Note_on_c, 0, 81, 0
2, 341120, Note_on_c, 0, 69, 0
2, 341120, Note_on_c, 0, 71, 127
2, 341120, Note_on_c, 0, 83, 127
2, 341280, Note_on_c, 0, 83, 0
2, 341280, Note_on_c, 0, 71, 0
2, 341280, Note_on_c, 0, 71, 106
2, 341280, Note_on_c, 0, 83, 106
2, 341760, Note_on_c, 0, 83, 0
2, 341760, Note_on_c, 0, 71, 0
2, 341760, Note_on_c, 0, 71, 106
2, 341760, Note_on_c, 0, 83, 106
2, 342080, Note_on_c, 0, 83, 0
2, 342080, Note_on_c, 0, 71, 0
2, 342080, Note_on_c, 0, 71, 106
2, 342080, Note_on_c, 0, 83, 106
2, 342240, Note_on_c, 0, 83, 0
2, 342240, Note_on_c, 0, 71, 0
2, 342240, Note_on_c, 0, 71, 106
2, 342240, Note_on_c, 0, 83, 106
2, 342720, Note_on_c, 0, 83, 0
2, 342720, Note_on_c, 0, 71, 0
2, 342720, Note_on_c, 0, 68, 127
2, 342720, Note_on_c, 0, 80, 127
2, 342879, Note_on_c, 0, 80, 0
2, 342879, Note_on_c, 0, 68, 0
2, 342879, Note_on_c, 0, 69, 127
2, 342879, Note_on_c, 0, 81, 127
2, 343040, Note_on_c, 0, 81, 0
2, 343040, Note_on_c, 0, 69, 0
2, 343040, Note_on_c, 0, 71, 127
2, 343040, Note_on_c, 0, 83, 127
2, 343200, Note_on_c, 0, 83, 0
2, 343200, Note_on_c, 0, 71, 0
2, 343200, Note_on_c, 0, 71, 106
2, 343200, Note_on_c, 0, 83, 106
2, 343680, Note_on_c, 0, 83, 0
2, 343680, Note_on_c, 0, 71, 0
2, 343680, Note_on_c, 0, 71, 106
2, 343680, Note_on_c, 0, 83, 106
2, 344000, Note_on_c, 0, 83, 0
2, 344000, Note_on_c, 0, 71, 0
2, 344000, Note_on_c, 0, 71, 106
2, 344000, Note_on_c, 0, 83, 106
2, 344160, Note_on_c, 0, 83, 0
2, 344160, Note_on_c, 0, 71, 0
2, 344160, Note_on_c, 0, 71, 106
2, 344160, Note_on_c, 0, 83, 106
2, 344640, Note_on_c, 0, 83, 0
2, 344640, Note_on_c, 0, 71, 0
2, 344640, Note_on_c, 0, 71, 106
2, 344640, Note_on_c, 0, 83, 106
2, 344960, Note_on_c, 0, 83, 0
2, 344960, Note_on_c, 0, 71, 0
2, 344960, Note_on_c, 0, 71, 106
2, 344960, Note_on_c, 0, 83, 106
2, 345360, Note_on_c, 0, 83, 0
2, 345360, Note_on_c, 0, 71, 0
2, 345360, Note_on_c, 0, 71, 106
2, 345360, Note_on_c, 0, 83, 106
2, 345840, Note_on_c, 0, 83, 0
2, 345840, Note_on_c, 0, 71, 0
2, 345840, Note_on_c, 0, 71, 106
2, 345840, Note_on_c, 0, 83, 106
2, 346320, Note_on_c, 0, 83, 0
2, 346320, Note_on_c, 0, 71, 0
2, 346320, Note_on_c, 0, 71, 106
2, 346320, Note_on_c, 0, 83, 106
2, 346800, Note_on_c, 0, 83, 0
2, 346800, Note_on_c, 0, 71, 0
2, 346800, Note_on_c, 0, 71, 106
2, 346800, Note_on_c, 0, 83, 106
2, 347280, Note_on_c, 0, 83, 0
2, 347280, Note_on_c, 0, 71, 0
2, 347280, Note_on_c, 0, 71, 106
2, 347280, Note_on_c, 0, 83, 106
2, 347760, Note_on_c, 0, 83, 0
2, 347760, Note_on_c, 0, 71, 0
2, 347760, Note_on_c, 0, 71, 106
2, 347760, Note_on_c, 0, 83, 106
2, 348240, Note_on_c, 0, 83, 0
2, 348240, Note_on_c, 0, 71, 0
2, 348240, Note_on_c, 0, 71, 106
2, 348240, Note_on_c, 0, 83, 106
2, 348720, Note_on_c, 0, 83, 0
2, 348720, Note_on_c, 0, 71, 0
2, 348720, Note_on_c, 0, 71, 106
2, 348720, Note_on_c, 0, 83, 106
2, 349200, Note_on_c, 0, 83, 0
2, 349200, Note_on_c, 0, 71, 0
2, 349200, Note_on_c, 0, 71, 106
2, 349200, Note_on_c, 0, 83, 106
2, 349680, Note_on_c, 0, 83, 0
2, 349680, Note_on_c, 0, 71, 0
2, 349680, Note_on_c, 0, 71, 106
2, 349680, Note_on_c, 0, 83, 106
2, 350160, Note_on_c, 0, 83, 0
2, 350160, Note_on_c, 0, 71, 0
2, 350160, Note_on_c, 0, 71, 106
2, 350160, Note_on_c, 0, 83, 106
2, 350640, Note_on_c, 0, 83, 0
2, 350640, Note_on_c, 0, 71, 0
2, 350640, Note_on_c, 0, 71, 106
2, 350640, Note_on_c, 0, 83, 106
2, 351120, Note_on_c, 0, 83, 0
2, 351120, Note_on_c, 0, 71, 0
2, 351120, Note_on_c, 0, 67, 106
2, 351120, Note_on_c, 0, 79, 106
2, 351600, Note_on_c, 0, 79, 0
2, 351600, Note_on_c, 0, 67, 0
2, 351600, Note_on_c, 0, 64, 106
2, 351600, Note_on_c, 0, 76, 106
2, 352080, Note_on_c, 0, 76, 0
2, 352080, Note_on_c, 0, 64, 0
2, 352080, Note_on_c, 0, 62, 106
2, 352080, Note_on_c, 0, 74, 106
2, 352560, Note_on_c, 0, 74, 0
2, 352560, Note_on_c, 0, 62, 0
2, 352560, Note_on_c, 0, 73, 106
2, 353040, Note_on_c, 0, 73, 0
2, 353040, Note_on_c, 0, 71, 106
2, 353520, Note_on_c, 0, 71, 0
2, 353520, Note_on_c, 0, 69, 106
2, 354000, Note_on_c, 0, 69, 0
2, 354000, Note_on_c, 0, 67, 106
2, 354480, Note_on_c, 0, 67, 0
2, 354480, Note_on_c, 0, 66, 106
2, 354960, Note_on_c, 0, 66, 0
2, 354960, Note_on_c, 0, 64, 106
2, 355200, Note_on_c, 0, 64, 0
2, 355200, Note_on_c, 0, 66, 106
2, 355200, Note_on_c, 0, 78, 106
2, 355440, Note_on_c, 0, 78, 0
2, 355440, Note_on_c, 0, 66, 0
2, 355440, Note_on_c, 0, 67, 106
2, 355440, Note_on_c, 0, 79, 106
2, 355680, Note_on_c, 0, 79, 0
2, 355680, Note_on_c, 0, 67, 0
2, 355680, Note_on_c, 0, 69, 106
2, 355680, Note_on_c, 0, 81, 106
2, 355920, Note_on_c, 0, 81, 0
2, 355920, Note_on_c, 0, 69, 0
2, 355920, Note_on_c, 0, 70, 106
2, 355920, Note_on_c, 0, 82, 106
2, 356160, Note_on_c, 0, 82, 0
2, 356160, Note_on_c, 0, 70, 0
2, 356160, Note_on_c, 0, 71, 106
2, 356160, Note_on_c, 0, 83, 106
2, 356400, Note_on_c, 0, 83, 0
2, 356400, Note_on_c, 0, 71, 0
2, 356400, Note_on_c, 0, 73, 106
2, 356400, Note_on_c, 0, 85, 106
2, 356640, Note_on_c, 0, 85, 0
2, 356640, Note_on_c, 0, 73, 0
2, 356640, Note_on_c, 0, 74, 106
2, 356640, Note_on_c, 0, 78, 106
2, 356640, Note_on_c, 0, 81, 106
2, 356640, Note_on_c, 0, 86, 106
2, 357120, Note_on_c, 0, 86, 0
2, 357120, Note_on_c, 0, 74, 0
2, 357120, Note_on_c, 0, 78, 0
2, 357120, Note_on_c, 0, 81, 0
2, 357120, Note_on_c, 0, 69, 106
2, 357120, Note_on_c, 0, 74, 106
2, 357120, Note_on_c, 0, 78, 106
2, 357440, Note_on_c, 0, 78, 0
2, 357440, Note_on_c, 0, 74, 0
2, 357440, Note_on_c, 0, 69, 0
2, 357440, Note_on_c, 0, 71, 106
2, 357440, Note_on_c, 0, 78, 106
2, 357440, Note_on_c, 0, 83, 106
2, 357600, Note_on_c, 0, 83, 0
2, 357600, Note_on_c, 0, 78, 0
2, 357600, Note_on_c, 0, 71, 0
2, 357600, Note_on_c, 0, 69, 106
2, 357600, Note_on_c, 0, 79, 106
2, 357600, Note_on_c, 0, 81, 106
2, 358080, Note_on_c, 0, 79, 0
2, 358080, Note_on_c, 0, 78, 106
2, 358400, Note_on_c, 0, 78, 0
2, 358400, Note_on_c, 0, 81, 0
2, 358400, Note_on_c, 0, 69, 0
2, 358400, Note_on_c, 0, 69, 106
2, 358400, Note_on_c, 0, 76, 106
2, 358400, Note_on_c, 0, 81, 106
2, 358560, Note_on_c, 0, 81, 0
2, 358560, Note_on_c, 0, 76, 0
2, 358560, Note_on_c, 0, 69, 0
2, 358560, Note_on_c, 0, 71, 106
2, 358560, Note_on_c, 0, 74, 106
2, 358560, Note_on_c, 0, 78, 106
2, 358560, Note_on_c, 0, 83, 106
2, 358800, Note_on_c, 0, 83, 0
2, 358800, Note_on_c, 0, 71, 0
2, 358800, Note_on_c, 0, 74, 0
2, 358800, Note_on_c, 0, 78, 0
2, 358800, Note_on_c, 0, 73, 106
2, 358800, Note_on_c, 0, 78, 106
2, 358800, Note_on_c, 0, 85, 106
2, 359040, Note_on_c, 0, 85, 0
2, 359040, Note_on_c, 0, 78, 0
2, 359040, Note_on_c, 0, 73, 0
2, 359040, Note_on_c, 0, 74, 106
2, 359040, Note_on_c, 0, 78, 106
2, 359040, Note_on_c, 0, 86, 106
2, 359280, Note_on_c, 0, 86, 0
2, 359280, Note_on_c, 0, 78, 0
2, 359280, Note_on_c, 0, 74, 0
2, 359280, Note_on_c, 0, 71, 106
2, 359280, Note_on_c, 0, 78, 106
2, 359280, Note_on_c, 0, 83, 106
2, 359520, Note_on_c, 0, 83, 0
2, 359520, Note_on_c, 0, 78, 0
2, 359520, Note_on_c, 0, 71, 0
2, 359520, Note_on_c, 0, 78, 106
2, 359520, Note_on_c, 0, 85, 106
2, 359520, Note_on_c, 0, 90, 106
2, 360240, Note_on_c, 0, 90, 0
2, 360240, Note_on_c, 0, 85, 0
2, 360240, Note_on_c, 0, 78, 0
2, 360480, Note_on_c, 0, 71, 106
2, 360480, Note_on_c, 0, 74, 106
2, 360480, Note_on_c, 0, 77, 106
2, 360480, Note_on_c, 0, 83, 106
2, 360720, Note_on_c, 0, 83, 0
2, 360720, Note_on_c, 0, 71, 0
2, 360720, Note_on_c, 0, 74, 0
2, 360720, Note_on_c, 0, 77, 0
2, 360720, Note_on_c, 0, 73, 106
2, 360720, Note_on_c, 0, 77, 106
2, 360720, Note_on_c, 0, 85, 106
2, 360960, Note_on_c, 0, 85, 0
2, 360960, Note_on_c, 0, 77, 0
2, 360960, Note_on_c, 0, 73, 0
2, 360960, Note_on_c, 0, 74, 106
2, 360960, Note_on_c, 0, 77, 106
2, 360960, Note_on_c, 0, 86, 106
2, 361200, Note_on_c, 0, 86, 0
2, 361200, Note_on_c, 0, 77, 0
2, 361200, Note_on_c, 0, 74, 0
2, 361200, Note_on_c, 0, 71, 106
2, 361200, Note_on_c, 0, 77, 106
2, 361200, Note_on_c, 0, 83, 106
2, 361440, Note_on_c, 0, 83, 0
2, 361440, Note_on_c, 0, 77, 0
2, 361440, Note_on_c, 0, 71, 0
2, 361440, Note_on_c, 0, 78, 106
2, 361440, Note_on_c, 0, 90, 106
2, 361920, Note_on_c, 0, 90, 0
2, 361920, Note_on_c, 0, 78, 0
2, 361920, Note_on_c, 0, 76, 106
2, 361920, Note_on_c, 0, 78, 106
2, 361920, Note_on_c, 0, 88, 106
2, 362160, Note_on_c, 0, 88, 0
2, 362160, Note_on_c, 0, 78, 0
2, 362160, Note_on_c, 0, 76, 0
2, 362160, Note_on_c, 0, 74, 106
2, 362160, Note_on_c, 0, 78, 106
2, 362160, Note_on_c, 0, 86, 106
2, 362400, Note_on_c, 0, 86, 0
2, 362400, Note_on_c, 0, 78, 0
2, 362400, Note_on_c, 0, 74, 0
2, 362400, Note_on_c, 0, 74, 106
2, 362400, Note_on_c, 0, 86, 106
2, 362880, Note_on_c, 0, 86, 0
2, 362880, Note_on_c, 0, 74, 0
2, 362880, Note_on_c, 0, 73, 106
2, 362880, Note_on_c, 0, 76, 106
2, 362880, Note_on_c, 0, 85, 106
2, 363120, Note_on_c, 0, 85, 0
2, 363120, Note_on_c, 0, 76, 0
2, 363120, Note_on_c, 0, 73, 0
2, 363120, Note_on_c, 0, 71, 106
2, 363120, Note_on_c, 0, 76, 106
2, 363120, Note_on_c, 0, 83, 106
2, 363360, Note_on_c, 0, 83, 0
2, 363360, Note_on_c, 0, 76, 0
2, 363360, Note_on_c, 0, 71, 0
2, 363360, Note_on_c, 0, 64, 127
2, 363360, Note_on_c, 0, 67, 127
2, 363360, Note_on_c, 0, 71, 127
2, 363360, Note_on_c, 0, 76, 127
2, 363519, Note_on_c, 0, 76, 0
2, 363519, Note_on_c, 0, 64, 0
2, 363519, Note_on_c, 0, 67, 0
2, 363519, Note_on_c, 0, 71, 0
2, 363519, Note_on_c, 0, 67, 127
2, 363519, Note_on_c, 0, 71, 127
2, 363519, Note_on_c, 0, 76, 127
2, 363519, Note_on_c, 0, 79, 127
2, 363680, Note_on_c, 0, 79, 0
2, 363680, Note_on_c, 0, 67, 0
2, 363680, Note_on_c, 0, 71, 0
2, 363680, Note_on_c, 0, 76, 0
2, 363680, Note_on_c, 0, 71, 127
2, 363680, Note_on_c, 0, 76, 127
2, 363680, Note_on_c, 0, 79, 127
2, 363680, Note_on_c, 0, 83, 127
2, 363840, Note_on_c, 0, 83, 0
2, 363840, Note_on_c, 0, 71, 0
2, 363840, Note_on_c, 0, 76, 0
2, 363840, Note_on_c, 0, 79, 0
2, 363840, Note_on_c, 0, 71, 106
2, 363840, Note_on_c, 0, 76, 106
2, 363840, Note_on_c, 0, 79, 106
2, 363840, Note_on_c, 0, 83, 106
2, 364160, Note_on_c, 0, 83, 0
2, 364160, Note_on_c, 0, 71, 0
2, 364160, Note_on_c, 0, 76, 0
2, 364160, Note_on_c, 0, 79, 0
2, 364160, Note_on_c, 0, 69, 106
2, 364160, Note_on_c, 0, 76, 106
2, 364160, Note_on_c, 0, 79, 106
2, 364160, Note_on_c, 0, 81, 106
2, 364320, Note_on_c, 0, 81, 0
2, 364320, Note_on_c, 0, 69, 0
2, 364320, Note_on_c, 0, 76, 0
2, 364320, Note_on_c, 0, 79, 0
2, 364320, Note_on_c, 0, 74, 106
2, 364320, Note_on_c, 0, 78, 106
2, 364320, Note_on_c, 0, 81, 106
2, 364320, Note_on_c, 0, 86, 106
2, 364800, Note_on_c, 0, 86, 0
2, 364800, Note_on_c, 0, 74, 0
2, 364800, Note_on_c, 0, 78, 0
2, 364800, Note_on_c, 0, 81, 0
2, 364800, Note_on_c, 0, 69, 106
2, 364800, Note_on_c, 0, 74, 106
2, 364800, Note_on_c, 0, 78, 106
2, 365120, Note_on_c, 0, 78, 0
2, 365120, Note_on_c, 0, 74, 0
2, 365120, Note_on_c, 0, 69, 0
2, 365120, Note_on_c, 0, 71, 106
2, 365120, Note_on_c, 0, 78, 106
2, 365120, Note_on_c, 0, 83, 106
2, 365280, Note_on_c, 0, 83, 0
2, 365280, Note_on_c, 0, 78, 0
2, 365280, Note_on_c, 0, 71, 0
2, 365280, Note_on_c, 0, 69, 106
2, 365280, Note_on_c, 0, 79, 106
2, 365280, Note_on_c, 0, 81, 106
2, 365760, Note_on_c, 0, 79, 0
2, 365760, Note_on_c, 0, 78, 106
2, 366080, Note_on_c, 0, 78, 0
2, 366080, Note_on_c, 0, 81, 0
2, 366080, Note_on_c, 0, 69, 0
2, 366080, Note_on_c, 0, 69, 106
2, 366080, Note_on_c, 0, 76, 106
2, 366080, Note_on_c, 0, 81, 106
2, 366240, Note_on_c, 0, 81, 0
2, 366240, Note_on_c, 0, 76, 0
2, 366240, Note_on_c, 0, 69, 0
2, 366240, Note_on_c, 0, 71, 106
2, 366240, Note_on_c, 0, 74, 106
2, 366240, Note_on_c, 0, 78, 106
2, 366240, Note_on_c, 0, 83, 106
2, 366480, Note_on_c, 0, 83, 0
2, 366480, Note_on_c, 0, 71, 0
2, 366480, Note_on_c, 0, 74, 0
2, 366480, Note_on_c, 0, 78, 0
2, 366480, Note_on_c, 0, 73, 106
2, 366480, Note_on_c, 0, 78, 106
2, 366480, Note_on_c, 0, 85, 106
2, 366720, Note_on_c, 0, 85, 0
2, 366720, Note_on_c, 0, 78, 0
2, 366720, Note_on_c, 0, 73, 0
2, 366720, Note_on_c, 0, 74, 106
2, 366720, Note_on_c, 0, 78, 106
2, 366720, Note_on_c, 0, 86, 106
2, 366960, Note_on_c, 0, 86, 0
2, 366960, Note_on_c, 0, 78, 0
2, 366960, Note_on_c, 0, 74, 0
2, 366960, Note_on_c, 0, 71, 106
2, 366960, Note_on_c, 0, 78, 106
2, 366960, Note_on_c, 0, 83, 106
2, 367200, Note_on_c, 0, 83, 0
2, 367200, Note_on_c, 0, 78, 0
2, 367200, Note_on_c, 0, 71, 0
2, 367200, Note_on_c, 0, 78, 106
2, 367200, Note_on_c, 0, 85, 106
2, 367200, Note_on_c, 0, 90, 106
2, 367920, Note_on_c, 0, 90, 0
2, 367920, Note_on_c, 0, 85, 0
2, 367920, Note_on_c, 0, 78, 0
2, 368160, Note_on_c, 0, 71, 106
2, 368160, Note_on_c, 0, 74, 106
2, 368160, Note_on_c, 0, 77, 106
2, 368160, Note_on_c, 0, 83, 106
2, 368400, Note_on_c, 0, 83, 0
2, 368400, Note_on_c, 0, 71, 0
2, 368400, Note_on_c, 0, 74, 0
2, 368400, Note_on_c, 0, 77, 0
2, 368400, Note_on_c, 0, 73, 106
2, 368400, Note_on_c, 0, 77, 106
2, 368400, Note_on_c, 0, 85, 106
2, 368640, Note_on_c, 0, 85, 0
2, 368640, Note_on_c, 0, 77, 0
2, 368640, Note_on_c, 0, 73, 0
2, 368640, Note_on_c, 0, 74, 106
2, 368640, Note_on_c, 0, 77, 106
2, 368640, Note_on_c, 0, 86, 106
2, 368880, Note_on_c, 0, 86, 0
2, 368880, Note_on_c, 0, 77, 0
2, 368880, Note_on_c, 0, 74, 0
2, 368880, Note_on_c, 0, 71, 106
2, 368880, Note_on_c, 0, 77, 106
2, 368880, Note_on_c, 0, 83, 106
2, 369120, Note_on_c, 0, 83, 0
2, 369120, Note_on_c, 0, 77, 0
2, 369120, Note_on_c, 0, 71, 0
2, 369120, Note_on_c, 0, 78, 106
2, 369120, Note_on_c, 0, 90, 106
2, 369600, Note_on_c, 0, 90, 0
2, 369600, Note_on_c, 0, 78, 0
2, 369600, Note_on_c, 0, 78, 106
2, 369600, Note_on_c, 0, 90, 106
2, 369920, Note_on_c, 0, 90, 0
2, 369920, Note_on_c, 0, 78, 0
2, 369920, Note_on_c, 0, 78, 106
2, 369920, Note_on_c, 0, 90, 106
2, 370080, Note_on_c, 0, 90, 0
2, 370080, Note_on_c, 0, 78, 0
2, 370080, Note_on_c, 0, 78, 106
2, 370080, Note_on_c, 0, 83, 106
2, 370080, Note_on_c, 0, 88, 106
2, 370080, Note_on_c, 0, 90, 106
2, 370560, Note_on_c, 0, 90, 0
2, 370560, Note_on_c, 0, 78, 0
2, 370560, Note_on_c, 0, 83, 0
2, 370560, Note_on_c, 0, 88, 0
2, 370560, Note_on_c, 0, 79, 106
2, 370560, Note_on_c, 0, 83, 106
2, 370560, Note_on_c, 0, 88, 106
2, 370560, Note_on_c, 0, 91, 106
2, 370880, Note_on_c, 0, 91, 0
2, 370880, Note_on_c, 0, 79, 0
2, 370880, Note_on_c, 0, 83, 0
2, 370880, Note_on_c, 0, 88, 0
2, 370880, Note_on_c, 0, 79, 106
2, 370880, Note_on_c, 0, 83, 106
2, 370880, Note_on_c, 0, 88, 106
2, 370880, Note_on_c, 0, 91, 106
2, 371040, Note_on_c, 0, 91, 0
2, 371040, Note_on_c, 0, 79, 0
2, 371040, Note_on_c, 0, 83, 0
2, 371040, Note_on_c, 0, 88, 0
2, 371040, Note_on_c, 0, 79, 106
2, 371040, Note_on_c, 0, 83, 106
2, 371040, Note_on_c, 0, 89, 106
2, 371040, Note_on_c, 0, 91, 106
2, 371520, Note_on_c, 0, 91, 0
2, 371520, Note_on_c, 0, 79, 0
2, 371520, Note_on_c, 0, 83, 0
2, 371520, Note_on_c, 0, 89, 0
2, 371520, Note_on_c, 0, 80, 106
2, 371520, Note_on_c, 0, 83, 106
2, 371520, Note_on_c, 0, 89, 106
2, 371520, Note_on_c, 0, 92, 106
2, 371840, Note_on_c, 0, 92, 0
2, 371840, Note_on_c, 0, 80, 0
2, 371840, Note_on_c, 0, 83, 0
2, 371840, Note_on_c, 0, 89, 0
2, 371840, Note_on_c, 0, 80, 106
2, 371840, Note_on_c, 0, 83, 106
2, 371840, Note_on_c, 0, 89, 106
2, 371840, Note_on_c, 0, 92, 106
2, 372000, Note_on_c, 0, 92, 0
2, 372000, Note_on_c, 0, 80, 0
2, 372000, Note_on_c, 0, 83, 0
2, 372000, Note_on_c, 0, 89, 0
2, 372000, Note_on_c, 0, 80, 106
2, 372000, Note_on_c, 0, 85, 106
2, 372000, Note_on_c, 0, 90, 106
2, 372000, Note_on_c, 0, 92, 106
2, 372240, Note_on_c, 0, 92, 0
2, 372240, Note_on_c, 0, 80, 0
2, 372240, Note_on_c, 0, 85, 0
2, 372240, Note_on_c, 0, 90, 0
2, 372240, Note_on_c, 0, 81, 106
2, 372240, Note_on_c, 0, 85, 106
2, 372240, Note_on_c, 0, 90, 106
2, 372240, Note_on_c, 0, 93, 106
2, 372480, Note_on_c, 0, 93, 0
2, 372480, Note_on_c, 0, 81, 0
2, 372480, Note_on_c, 0, 85, 0
2, 372480, Note_on_c, 0, 90, 0
2, 372480, Note_on_c, 0, 81, 106
2, 372480, Note_on_c, 0, 85, 106
2, 372480, Note_on_c, 0, 90, 106
2, 372480, Note_on_c, 0, 93, 106
2, 372720, Note_on_c, 0, 93, 0
2, 372720, Note_on_c, 0, 81, 0
2, 372720, Note_on_c, 0, 85, 0
2, 372720, Note_on_c, 0, 90, 0
2, 372720, Note_on_c, 0, 81, 106
2, 372720, Note_on_c, 0, 85, 106
2, 372720, Note_on_c, 0, 90, 106
2, 372720, Note_on_c, 0, 93, 106
2, 372960, Note_on_c, 0, 93, 0
2, 372960, Note_on_c, 0, 81, 0
2, 372960, Note_on_c, 0, 85, 0
2, 372960, Note_on_c, 0, 90, 0
2, 372960, Note_on_c, 0, 81, 106
2, 372960, Note_on_c, 0, 86, 106
2, 372960, Note_on_c, 0, 90, 106
2, 372960, Note_on_c, 0, 93, 106
2, 373200, Note_on_c, 0, 93, 0
2, 373200, Note_on_c, 0, 81, 0
2, 373200, Note_on_c, 0, 86, 0
2, 373200, Note_on_c, 0, 90, 0
2, 373200, Note_on_c, 0, 82, 106
2, 373200, Note_on_c, 0, 86, 106
2, 373200, Note_on_c, 0, 90, 106
2, 373200, Note_on_c, 0, 94, 106
2, 373440, Note_on_c, 0, 94, 0
2, 373440, Note_on_c, 0, 82, 0
2, 373440, Note_on_c, 0, 86, 0
2, 373440, Note_on_c, 0, 90, 0
2, 373440, Note_on_c, 0, 82, 106
2, 373440, Note_on_c, 0, 86, 106
2, 373440, Note_on_c, 0, 90, 106
2, 373440, Note_on_c, 0, 94, 106
2, 373680, Note_on_c, 0, 94, 0
2, 373680, Note_on_c, 0, 82, 0
2, 373680, Note_on_c, 0, 86, 0
2, 373680, Note_on_c, 0, 90, 0
2, 373680, Note_on_c, 0, 70, 106
2, 373680, Note_on_c, 0, 74, 106
2, 373680, Note_on_c, 0, 78, 106
2, 373680, Note_on_c, 0, 82, 106
2, 373920, Note_on_c, 0, 82, 0
2, 373920, Note_on_c, 0, 70, 0
2, 373920, Note_on_c, 0, 74, 0
2, 373920, Note_on_c, 0, 78, 0
2, 373920, Note_on_c, 0, 70, 106
2, 373920, Note_on_c, 0, 75, 106
2, 373920, Note_on_c, 0, 78, 106
2, 373920, Note_on_c, 0, 82, 106
2, 374400, Note_on_c, 0, 82, 0
2, 374400, Note_on_c, 0, 70, 0
2, 374400, Note_on_c, 0, 75, 0
2, 374400, Note_on_c, 0, 78, 0
2, 374400, Note_on_c, 0, 71, 106
2, 374400, Note_on_c, 0, 75, 106
2, 374400, Note_on_c, 0, 78, 106
2, 374400, Note_on_c, 0, 83, 106
2, 374720, Note_on_c, 0, 83, 0
2, 374720, Note_on_c, 0, 71, 0
2, 374720, Note_on_c, 0, 75, 0
2, 374720, Note_on_c, 0, 78, 0
2, 374720, Note_on_c, 0, 71, 106
2, 374720, Note_on_c, 0, 75, 106
2, 374720, Note_on_c, 0, 78, 106
2, 374720, Note_on_c, 0, 83, 106
2, 374880, Note_on_c, 0, 83, 0
2, 374880, Note_on_c, 0, 71, 0
2, 374880, Note_on_c, 0, 75, 0
2, 374880, Note_on_c, 0, 78, 0
2, 374880, Note_on_c, 0, 71, 106
2, 374880, Note_on_c, 0, 76, 106
2, 374880, Note_on_c, 0, 83, 106
2, 375360, Note_on_c, 0, 83, 0
2, 375360, Note_on_c, 0, 76, 0
2, 375360, Note_on_c, 0, 71, 0
2, 375360, Note_on_c, 0, 72, 106
2, 375360, Note_on_c, 0, 76, 106
2, 375360, Note_on_c, 0, 82, 106
2, 375360, Note_on_c, 0, 84, 106
2, 375680, Note_on_c, 0, 84, 0
2, 375680, Note_on_c, 0, 72, 0
2, 375680, Note_on_c, 0, 76, 0
2, 375680, Note_on_c, 0, 82, 0
2, 375680, Note_on_c, 0, 72, 106
2, 375680, Note_on_c, 0, 76, 106
2, 375680, Note_on_c, 0, 82, 106
2, 375680, Note_on_c, 0, 84, 106
2, 375840, Note_on_c, 0, 84, 0
2, 375840, Note_on_c, 0, 72, 0
2, 375840, Note_on_c, 0, 76, 0
2, 375840, Note_on_c, 0, 82, 0
2, 375840, Note_on_c, 0, 72, 106
2, 375840, Note_on_c, 0, 76, 106
2, 375840, Note_on_c, 0, 82, 106
2, 375840, Note_on_c, 0, 84, 106
2, 376080, Note_on_c, 0, 84, 0
2, 376080, Note_on_c, 0, 72, 0
2, 376080, Note_on_c, 0, 76, 0
2, 376080, Note_on_c, 0, 82, 0
2, 376080, Note_on_c, 0, 73, 106
2, 376080, Note_on_c, 0, 76, 106
2, 376080, Note_on_c, 0, 82, 106
2, 376080, Note_on_c, 0, 85, 106
2, 376320, Note_on_c, 0, 85, 0
2, 376320, Note_on_c, 0, 73, 0
2, 376320, Note_on_c, 0, 76, 0
2, 376320, Note_on_c, 0, 82, 0
2, 376320, Note_on_c, 0, 73, 106
2, 376320, Note_on_c, 0, 76, 106
2, 376320, Note_on_c, 0, 82, 106
2, 376320, Note_on_c, 0, 85, 106
2, 376560, Note_on_c, 0, 85, 0
2, 376560, Note_on_c, 0, 73, 0
2, 376560, Note_on_c, 0, 76, 0
2, 376560, Note_on_c, 0, 82, 0
2, 376560, Note_on_c, 0, 73, 106
2, 376560, Note_on_c, 0, 76, 106
2, 376560, Note_on_c, 0, 82, 106
2, 376560, Note_on_c, 0, 85, 106
2, 376800, Note_on_c, 0, 85, 0
2, 376800, Note_on_c, 0, 73, 0
2, 376800, Note_on_c, 0, 76, 0
2, 376800, Note_on_c, 0, 82, 0
2, 376800, Note_on_c, 0, 73, 106
2, 376800, Note_on_c, 0, 80, 106
2, 376800, Note_on_c, 0, 83, 106
2, 376800, Note_on_c, 0, 85, 106
2, 377040, Note_on_c, 0, 85, 0
2, 377040, Note_on_c, 0, 73, 0
2, 377040, Note_on_c, 0, 80, 0
2, 377040, Note_on_c, 0, 83, 0
2, 377040, Note_on_c, 0, 74, 106
2, 377040, Note_on_c, 0, 80, 106
2, 377040, Note_on_c, 0, 83, 106
2, 377040, Note_on_c, 0, 86, 106
2, 377280, Note_on_c, 0, 86, 0
2, 377280, Note_on_c, 0, 74, 0
2, 377280, Note_on_c, 0, 80, 0
2, 377280, Note_on_c, 0, 83, 0
2, 377280, Note_on_c, 0, 74, 106
2, 377280, Note_on_c, 0, 80, 106
2, 377280, Note_on_c, 0, 83, 106
2, 377280, Note_on_c, 0, 86, 106
2, 377520, Note_on_c, 0, 86, 0
2, 377520, Note_on_c, 0, 74, 0
2, 377520, Note_on_c, 0, 80, 0
2, 377520, Note_on_c, 0, 83, 0
2, 377520, Note_on_c, 0, 74, 106
2, 377520, Note_on_c, 0, 80, 106
2, 377520, Note_on_c, 0, 83, 106
2, 377520, Note_on_c, 0, 86, 106
2, 377760, Note_on_c, 0, 86, 0
2, 377760, Note_on_c, 0, 74, 0
2, 377760, Note_on_c, 0, 80, 0
2, 377760, Note_on_c, 0, 83, 0
2, 377760, Note_on_c, 0, 74, 127
2, 377760, Note_on_c, 0, 78, 127
2, 377760, Note_on_c, 0, 83, 127
2, 377760, Note_on_c, 0, 86, 127
2, 378240, Note_on_c, 0, 86, 0
2, 378240, Note_on_c, 0, 74, 0
2, 378240, Note_on_c, 0, 78, 0
2, 378240, Note_on_c, 0, 83, 0
2, 378240, Note_on_c, 0, 71, 106
2, 378240, Note_on_c, 0, 74, 106
2, 378240, Note_on_c, 0, 78, 106
2, 378480, Note_on_c, 0, 78, 0
2, 378480, Note_on_c, 0, 74, 0
2, 378480, Note_on_c, 0, 71, 0
2, 378480, Note_on_c, 0, 71, 106
2, 378480, Note_on_c, 0, 74, 106
2, 378480, Note_on_c, 0, 77, 106
2, 378480, Note_on_c, 0, 83, 106
2, 378720, Note_on_c, 0, 83, 0
2, 378720, Note_on_c, 0, 71, 0
2, 378720, Note_on_c, 0, 74, 0
2, 378720, Note_on_c, 0, 77, 0
2, 378720, Note_on_c, 0, 69, 106
2, 378720, Note_on_c, 0, 81, 106
2, 379680, Note_on_c, 0, 81, 0
2, 379680, Note_on_c, 0, 69, 0
2, 379680, Note_on_c, 0, 71, 106
2, 379680, Note_on_c, 0, 74, 106
2, 379680, Note_on_c, 0, 79, 106
2, 379680, Note_on_c, 0, 83, 106
2, 380160, Note_on_c, 0, 83, 0
2, 380160, Note_on_c, 0, 71, 0
2, 380160, Note_on_c, 0, 74, 0
2, 380160, Note_on_c, 0, 79, 0
2, 380160, Note_on_c, 0, 67, 106
2, 380160, Note_on_c, 0, 71, 106
2, 380160, Note_on_c, 0, 74, 106
2, 380400, Note_on_c, 0, 74, 0
2, 380400, Note_on_c, 0, 71, 0
2, 380400, Note_on_c, 0, 67, 0
2, 380400, Note_on_c, 0, 67, 106
2, 380400, Note_on_c, 0, 71, 106
2, 380400, Note_on_c, 0, 74, 106
2, 380400, Note_on_c, 0, 79, 106
2, 380640, Note_on_c, 0, 79, 0
2, 380640, Note_on_c, 0, 67, 0
2, 380640, Note_on_c, 0, 71, 0
2, 380640, Note_on_c, 0, 74, 0
2, 380640, Note_on_c, 0, 66, 106
2, 380640, Note_on_c, 0, 78, 106
2, 381600, Note_on_c, 0, 78, 0
2, 381600, Note_on_c, 0, 66, 0
2, 381600, Note_on_c, 0, 67, 93
2, 381600, Note_on_c, 0, 71, 93
2, 381600, Note_on_c, 0, 76, 93
2, 381600, Note_on_c, 0, 79, 93
2, 382080, Note_on_c, 0, 79, 0
2, 382080, Note_on_c, 0, 67, 0
2, 382080, Note_on_c, 0, 71, 0
2, 382080, Note_on_c, 0, 76, 0
2, 382080, Note_on_c, 0, 64, 93
2, 382080, Note_on_c, 0, 67, 93
2, 382080, Note_on_c, 0, 71, 93
2, 382400, Note_on_c, 0, 71, 0
2, 382400, Note_on_c, 0, 67, 0
2, 382400, Note_on_c, 0, 64, 0
2, 382400, Note_on_c, 0, 64, 93
2, 382400, Note_on_c, 0, 67, 93
2, 382400, Note_on_c, 0, 73, 93
2, 382560, Note_on_c, 0, 73, 0
2, 382560, Note_on_c, 0, 67, 0
2, 382560, Note_on_c, 0, 64, 0
2, 382560, Note_on_c, 0, 62, 93
2, 382560, Note_on_c, 0, 74, 93
2, 384240, Note_on_c, 0, 74, 0
2, 384240, Note_on_c, 0, 62, 0
2, 384240, Note_on_c, 0, 57, 67
2, 384240, Note_on_c, 0, 69, 67
2, 384720, Note_on_c, 0, 69, 0
2, 384720, Note_on_c, 0, 57, 0
2, 384720, Note_on_c, 0, 59, 67
2, 384720, Note_on_c, 0, 71, 67
2, 384960, Note_on_c, 0, 71, 0
2, 384960, Note_on_c, 0, 59, 0
2, 384960, Note_on_c, 0, 62, 80
2, 384960, Note_on_c, 0, 74, 80
2, 386160, Note_on_c, 0, 74, 0
2, 386160, Note_on_c, 0, 62, 0
2, 386160, Note_on_c, 0, 61, 67
2, 386160, Note_on_c, 0, 73, 67
2, 386400, Note_on_c, 0, 73, 0
2, 386400, Note_on_c, 0, 61, 0
2, 386400, Note_on_c, 0, 62, 67
2, 386400, Note_on_c, 0, 74, 67
2, 387120, Note_on_c, 0, 74, 0
2, 387120, Note_on_c, 0, 62, 0
2, 387120, Note_on_c, 0, 57, 67
2, 387120, Note_on_c, 0, 69, 67
2, 387600, Note_on_c, 0, 69, 0
2, 387600, Note_on_c, 0, 57, 0
2, 387600, Note_on_c, 0, 59, 67
2, 387600, Note_on_c, 0, 71, 67
2, 387840, Note_on_c, 0, 71, 0
2, 387840, Note_on_c, 0, 59, 0
2, 387840, Note_on_c, 0, 62, 80
2, 387840, Note_on_c, 0, 74, 80
2, 389040, Note_on_c, 0, 74, 0
2, 389040, Note_on_c, 0, 62, 0
2, 389040, Note_on_c, 0, 61, 67
2, 389040, Note_on_c, 0, 73, 67
2, 389280, Note_on_c, 0, 73, 0
2, 389280, Note_on_c, 0, 61, 0
2, 389280, Note_on_c, 0, 64, 106
2, 389280, Note_on_c, 0, 76, 106
2, 389520, Note_on_c, 0, 76, 0
2, 389520, Note_on_c, 0, 64, 0
2, 389520, Note_on_c, 0, 62, 106
2, 389520, Note_on_c, 0, 74, 106
2, 389760, Note_on_c, 0, 74, 0
2, 389760, Note_on_c, 0, 62, 0
2, 390000, Note_on_c, 0, 59, 106
2, 390120, Note_on_c, 0, 59, 0
2, 390120, Note_on_c, 0, 59, 106
2, 390240, Note_on_c, 0, 59, 0
2, 390240, Note_on_c, 0, 61, 106
2, 390960, Note_on_c, 0, 61, 0
2, 390960, Note_on_c, 0, 59, 106
2, 391080, Note_on_c, 0, 59, 0
2, 391080, Note_on_c, 0, 58, 106
2, 391200, Note_on_c, 0, 58, 0
2, 391200, Note_on_c, 0, 59, 106
2, 391440, Note_on_c, 0, 59, 0
2, 391440, Note_on_c, 0, 59, 106
2, 391680, Note_on_c, 0, 59, 0
2, 391680, Note_on_c, 0, 59, 106
2, 391680, Note_on_c, 0, 71, 106
2, 391839, Note_on_c, 0, 71, 0
2, 391839, Note_on_c, 0, 59, 0
2, 391839, Note_on_c, 0, 59, 106
2, 391839, Note_on_c, 0, 71, 106
2, 392000, Note_on_c, 0, 71, 0
2, 392000, Note_on_c, 0, 59, 0
2, 392000, Note_on_c, 0, 59, 106
2, 392000, Note_on_c, 0, 71, 106
2, 392160, Note_on_c, 0, 71, 0
2, 392160, Note_on_c, 0, 59, 0
2, 392160, Note_on_c, 0, 59, 106
2, 392160, Note_on_c, 0, 71, 106
2, 392640, Note_on_c, 0, 71, 0
2, 392640, Note_on_c, 0, 59, 0
2, 392640, Note_on_c, 0, 59, 106
2, 392640, Note_on_c, 0, 71, 106
2, 393120, Note_on_c, 0, 71, 0
2, 393120, Note_on_c, 0, 59, 0
2, 393120, Note_on_c, 0, 62, 106
2, 393840, Note_on_c, 0, 62, 0
2, 393840, Note_on_c, 0, 62, 106
2, 393960, Note_on_c, 0, 62, 0
2, 393960, Note_on_c, 0, 62, 106
2, 394080, Note_on_c, 0, 62, 0
2, 394080, Note_on_c, 0, 64, 106
2, 394800, Note_on_c, 0, 64, 0
2, 394800, Note_on_c, 0, 62, 106
2, 394920, Note_on_c, 0, 62, 0
2, 394920, Note_on_c, 0, 61, 106
2, 395040, Note_on_c, 0, 61, 0
2, 395040, Note_on_c, 0, 62, 106
2, 395280, Note_on_c, 0, 62, 0
2, 395280, Note_on_c, 0, 62, 106
2, 395520, Note_on_c, 0, 62, 0
2, 395520, Note_on_c, 0, 62, 106
2, 395520, Note_on_c, 0, 74, 106
2, 395679, Note_on_c, 0, 74, 0
2, 395679, Note_on_c, 0, 62, 0
2, 395679, Note_on_c, 0, 62, 106
2, 395679, Note_on_c, 0, 74, 106
2, 395840, Note_on_c, 0, 74, 0
2, 395840, Note_on_c, 0, 62, 0
2, 395840, Note_on_c, 0, 62, 106
2, 395840, Note_on_c, 0, 74, 106
2, 396000, Note_on_c, 0, 74, 0
2, 396000, Note_on_c, 0, 62, 0
2, 396000, Note_on_c, 0, 62, 106
2, 396000, Note_on_c, 0, 74, 106
2, 396480, Note_on_c, 0, 74, 0
2, 396480, Note_on_c, 0, 62, 0
2, 396480, Note_on_c, 0, 62, 106
2, 396480, Note_on_c, 0, 74, 106
2, 396720, Note_on_c, 0, 74, 0
2, 396720, Note_on_c, 0, 62, 0
2, 396720, Note_on_c, 0, 65, 106
2, 396960, Note_on_c, 0, 65, 0
2, 396960, Note_on_c, 0, 64, 106
2, 397200, Note_on_c, 0, 64, 0
2, 397200, Note_on_c, 0, 62, 106
2, 397440, Note_on_c, 0, 62, 0
2, 397440, Note_on_c, 0, 61, 106
2, 397680, Note_on_c, 0, 61, 0
2, 397680, Note_on_c, 0, 59, 106
2, 397920, Note_on_c, 0, 59, 0
2, 397920, Note_on_c, 0, 62, 106
2, 398640, Note_on_c, 0, 62, 0
2, 398640, Note_on_c, 0, 65, 106
2, 398880, Note_on_c, 0, 65, 0
2, 398880, Note_on_c, 0, 64, 106
2, 399120, Note_on_c, 0, 64, 0
2, 399120, Note_on_c, 0, 62, 106
2, 399360, Note_on_c, 0, 62, 0
2, 399360, Note_on_c, 0, 61, 106
2, 399600, Note_on_c, 0, 61, 0
2, 399600, Note_on_c, 0, 59, 106
2, 399840, Note_on_c, 0, 59, 0
2, 399840, Control_c, 0, 64, 127
2, 399840, Note_on_c, 0, 53, 106
2, 399840, Note_on_c, 0, 59, 106
2, 399840, Note_on_c, 0, 62, 106
2, 400080, Note_on_c, 0, 62, 0
2, 400080, Note_on_c, 0, 59, 0
2, 400080, Note_on_c, 0, 53, 0
2, 400080, Note_on_c, 0, 59, 106
2, 400080, Note_on_c, 0, 62, 106
2, 400080, Note_on_c, 0, 65, 106
2, 400320, Note_on_c, 0, 65, 0
2, 400320, Note_on_c, 0, 62, 0
2, 400320, Note_on_c, 0, 59, 0
2, 400320, Note_on_c, 0, 62, 106
2, 400320, Note_on_c, 0, 65, 106
2, 400320, Note_on_c, 0, 71, 106
2, 400560, Note_on_c, 0, 71, 0
2, 400560, Note_on_c, 0, 65, 0
2, 400560, Note_on_c, 0, 62, 0
2, 400560, Control_c, 0, 64, 0
2, 400560, Note_on_c, 0, 65, 106
2, 400560, Note_on_c, 0, 71, 106
2, 400560, Note_on_c, 0, 74, 106
2, 400800, Note_on_c, 0, 74, 0
2, 400800, Note_on_c, 0, 71, 0
2, 400800, Note_on_c, 0, 65, 0
2, 400800, Control_c, 0, 64, 127
2, 400800, Note_on_c, 0, 64, 106
2, 400800, Note_on_c, 0, 70, 106
2, 400800, Note_on_c, 0, 74, 106
2, 400800, Note_on_c, 0, 76, 106
2, 400959, Note_on_c, 0, 76, 0
2, 400959, Note_on_c, 0, 64, 0
2, 400959, Note_on_c, 0, 70, 0
2, 400959, Note_on_c, 0, 74, 0
2, 400959, Note_on_c, 0, 76, 106
2, 400959, Note_on_c, 0, 82, 106
2, 400959, Note_on_c, 0, 86, 106
2, 400959, Note_on_c, 0, 88, 106
2, 401120, Note_on_c, 0, 88, 0
2, 401120, Note_on_c, 0, 76, 0
2, 401120, Note_on_c, 0, 82, 0
2, 401120, Note_on_c, 0, 86, 0
2, 401120, Note_on_c, 0, 76, 106
2, 401120, Note_on_c, 0, 82, 106
2, 401120, Note_on_c, 0, 86, 106
2, 401120, Note_on_c, 0, 88, 106
2, 401280, Note_on_c, 0, 88, 0
2, 401280, Note_on_c, 0, 76, 0
2, 401280, Note_on_c, 0, 82, 0
2, 401280, Note_on_c, 0, 86, 0
2, 401280, Note_on_c, 0, 76, 106
2, 401280, Note_on_c, 0, 82, 106
2, 401280, Note_on_c, 0, 86, 106
2, 401280, Note_on_c, 0, 88, 106
2, 401439, Note_on_c, 0, 88, 0
2, 401439, Note_on_c, 0, 76, 0
2, 401439, Note_on_c, 0, 82, 0
2, 401439, Note_on_c, 0, 86, 0
2, 401439, Note_on_c, 0, 76, 106
2, 401439, Note_on_c, 0, 82, 106
2, 401439, Note_on_c, 0, 86, 106
2, 401439, Note_on_c, 0, 88, 106
2, 401600, Note_on_c, 0, 88, 0
2, 401600, Note_on_c, 0, 76, 0
2, 401600, Note_on_c, 0, 82, 0
2, 401600, Note_on_c, 0, 86, 0
2, 401600, Note_on_c, 0, 76, 106
2, 401600, Note_on_c, 0, 82, 106
2, 401600, Note_on_c, 0, 86, 106
2, 401600, Note_on_c, 0, 88, 106
2, 401760, Note_on_c, 0, 88, 0
2, 401760, Note_on_c, 0, 76, 0
2, 401760, Note_on_c, 0, 82, 0
2, 401760, Note_on_c, 0, 86, 0
2, 401760, Note_on_c, 0, 76, 127
2, 401760, Note_on_c, 0, 82, 127
2, 401760, Note_on_c, 0, 86, 127
2, 401760, Note_on_c, 0, 88, 127
2, 402000, Note_on_c, 0, 88, 0
2, 402000, Note_on_c, 0, 76, 0
2, 402000, Note_on_c, 0, 82, 0
2, 402000, Note_on_c, 0, 86, 0
2, 402000, Note_on_c, 0, 76, 127
2, 402000, Note_on_c, 0, 82, 127
2, 402000, Note_on_c, 0, 86, 127
2, 402000, Note_on_c, 0, 88, 127
2, 402240, Note_on_c, 0, 88, 0
2, 402240, Note_on_c, 0, 76, 0
2, 402240, Note_on_c, 0, 82, 0
2, 402240, Note_on_c, 0, 86, 0
2, 402240, Note_on_c, 0, 76, 127
2, 402240, Note_on_c, 0, 82, 127
2, 402240, Note_on_c, 0, 86, 127
2, 402240, Note_on_c, 0, 88, 127
2, 402480, Note_on_c, 0, 88, 0
2, 402480, Note_on_c, 0, 76, 0
2, 402480, Note_on_c, 0, 82, 0
2, 402480, Note_on_c, 0, 86, 0
2, 402480, Control_c, 0, 64, 0
2, 402480, Note_on_c, 0, 76, 127
2, 402480, Note_on_c, 0, 82, 127
2, 402480, Note_on_c, 0, 86, 127
2, 402480, Note_on_c, 0, 88, 127
2, 402720, Note_on_c, 0, 88, 0
2, 402720, Note_on_c, 0, 76, 0
2, 402720, Note_on_c, 0, 82, 0
2, 402720, Note_on_c, 0, 86, 0
2, 402720, Note_on_c, 0, 64, 127
2, 402720, Note_on_c, 0, 70, 127
2, 402720, Note_on_c, 0, 74, 127
2, 402720, Note_on_c, 0, 76, 127
2, 402960, Note_on_c, 0, 76, 0
2, 402960, Note_on_c, 0, 64, 0
2, 402960, Note_on_c, 0, 70, 0
2, 402960, Note_on_c, 0, 74, 0
2, 402960, Note_on_c, 0, 64, 127
2, 402960, Note_on_c, 0, 70, 127
2, 402960, Note_on_c, 0, 74, 127
2, 402960, Note_on_c, 0, 76, 127
2, 403200, Note_on_c, 0, 76, 0
2, 403200, Note_on_c, 0, 64, 0
2, 403200, Note_on_c, 0, 70, 0
2, 403200, Note_on_c, 0, 74, 0
2, 404160, Note_on_c, 0, 62, 93
2, 404160, Note_on_c, 0, 74, 93
2, 404640, Note_on_c, 0, 74, 0
2, 404640, Note_on_c, 0, 62, 0
2, 404640, Note_on_c, 0, 60, 119
2, 404640, Note_on_c, 0, 72, 119
2, 405120, Note_on_c, 0, 72, 0
2, 405120, Note_on_c, 0, 60, 0
2, 405120, Note_on_c, 0, 58, 93
2, 405120, Note_on_c, 0, 70, 93
2, 405600, Note_on_c, 0, 70, 0
2, 405600, Note_on_c, 0, 58, 0
2, 406080, Note_on_c, 0, 58, 67
2, 406080, Note_on_c, 0, 70, 67
2, 406560, Note_on_c, 0, 70, 0
2, 406560, Note_on_c, 0, 58, 0
2, 406560, Note_on_c, 0, 57, 67
2, 406560, Note_on_c, 0, 69, 67
2, 407040, Note_on_c, 0, 69, 0
2, 407040, Note_on_c, 0, 57, 0
2, 407040, Note_on_c, 0, 55, 67
2, 407040, Note_on_c, 0, 67, 67
2, 407520, Note_on_c, 0, 67, 0
2, 407520, Note_on_c, 0, 55, 0
2, 408000, Note_on_c, 0, 62, 54
2, 408480, Note_on_c, 0, 62, 0
2, 408480, Note_on_c, 0, 64, 54
2, 408960, Note_on_c, 0, 64, 0
2, 408960, Note_on_c, 0, 66, 67
2, 409440, Note_on_c, 0, 66, 0
2, 409440, Note_on_c, 0, 69, 67
2, 409920, Note_on_c, 0, 69, 0
2, 409920, Note_on_c, 0, 67, 54
2, 411840, Note_on_c, 0, 67, 0
2, 411840, Note_on_c, 0, 58, 54
2, 411840, Note_on_c, 0, 70, 54
2, 412320, Note_on_c, 0, 70, 0
2, 412320, Note_on_c, 0, 58, 0
2, 412320, Note_on_c, 0, 58, 80
2, 412320, Note_on_c, 0, 70, 80
2, 413640, Note_on_c, 0, 70, 0
2, 413640, Note_on_c, 0, 58, 0
2, 413640, Note_on_c, 0, 57, 54
2, 413640, Note_on_c, 0, 69, 54
2, 413760, Note_on_c, 0, 69, 0
2, 413760, Note_on_c, 0, 57, 0
2, 413760, Note_on_c, 0, 57, 54
2, 413760, Note_on_c, 0, 69, 54
2, 414720, Note_on_c, 0, 69, 0
2, 414720, Note_on_c, 0, 57, 0
2, 415200, Note_on_c, 0, 62, 67
2, 415200, Note_on_c, 0, 74, 67
2, 415920, Note_on_c, 0, 74, 0
2, 415920, Note_on_c, 0, 62, 0
2, 415920, Note_on_c, 0, 66, 67
2, 416400, Note_on_c, 0, 66, 0
2, 416400, Note_on_c, 0, 59, 67
2, 416400, Note_on_c, 0, 71, 67
2, 416640, Note_on_c, 0, 71, 0
2, 416640, Note_on_c, 0, 59, 0
2, 416640, Note_on_c, 0, 57, 67
2, 416640, Note_on_c, 0, 69, 67
2, 418080, Note_on_c, 0, 69, 0
2, 418080, Note_on_c, 0, 57, 0
2, 418080, Note_on_c, 0, 62, 67
2, 418080, Note_on_c, 0, 74, 67
2, 418800, Note_on_c, 0, 74, 0
2, 418800, Note_on_c, 0, 62, 0
2, 418800, Note_on_c, 0, 66, 67
2, 419280, Note_on_c, 0, 66, 0
2, 419280, Note_on_c, 0, 59, 67
2, 419280, Note_on_c, 0, 71, 67
2, 419520, Note_on_c, 0, 71, 0
2, 419520, Note_on_c, 0, 59, 0
2, 419520, Note_on_c, 0, 57, 67
2, 419520, Note_on_c, 0, 69, 67
2, 420960, Note_on_c, 0, 69, 0
2, 420960, Note_on_c, 0, 57, 0
2, 420960, Note_on_c, 0, 57, 67
2, 420960, Note_on_c, 0, 69, 67
2, 421320, Note_on_c, 0, 69, 0
2, 421320, Note_on_c, 0, 57, 0
2, 421320, Note_on_c, 0, 59, 67
2, 421320, Note_on_c, 0, 71, 67
2, 421680, Note_on_c, 0, 71, 0
2, 421680, Note_on_c, 0, 59, 0
2, 421680, Note_on_c, 0, 61, 80
2, 421680, Note_on_c, 0, 73, 80
2, 422040, Note_on_c, 0, 73, 0
2, 422040, Note_on_c, 0, 61, 0
2, 422040, Note_on_c, 0, 62, 80
2, 422040, Note_on_c, 0, 74, 80
2, 422400, Note_on_c, 0, 74, 0
2, 422400, Note_on_c, 0, 62, 0
2, 422400, Note_on_c, 0, 66, 93
2, 422400, Note_on_c, 0, 78, 93
2, 422760, Note_on_c, 0, 78, 0
2, 422760, Note_on_c, 0, 66, 0
2, 422760, Note_on_c, 0, 64, 93
2, 422760, Note_on_c, 0, 76, 93
2, 423120, Note_on_c, 0, 76, 0
2, 423120, Note_on_c, 0, 64, 0
2, 423120, Note_on_c, 0, 63, 93
2, 423120, Note_on_c, 0, 75, 93
2, 423480, Note_on_c, 0, 75, 0
2, 423480, Note_on_c, 0, 63, 0
2, 423480, Note_on_c, 0, 64, 93
2, 423480, Note_on_c, 0, 76, 93
2, 423840, Note_on_c, 0, 76, 0
2, 423840, Note_on_c, 0, 64, 0
2, 423840, Note_on_c, 0, 67, 93
2, 423840, Note_on_c, 0, 79, 93
2, 424560, Note_on_c, 0, 79, 0
2, 424560, Note_on_c, 0, 67, 0
2, 424560, Note_on_c, 0, 66, 80
2, 424560, Note_on_c, 0, 78, 80
2, 425280, Note_on_c, 0, 78, 0
2, 425280, Note_on_c, 0, 66, 0
2, 426720, Note_on_c, 0, 57, 67
2, 426720, Note_on_c, 0, 69, 67
2, 427080, Note_on_c, 0, 69, 0
2, 427080, Note_on_c, 0, 57, 0
2, 427080, Note_on_c, 0, 59, 67
2, 427080, Note_on_c, 0, 71, 67
2, 427440, Note_on_c, 0, 71, 0
2, 427440, Note_on_c, 0, 59, 0
2, 427440, Note_on_c, 0, 61, 80
2, 427440, Note_on_c, 0, 73, 80
2, 427800, Note_on_c, 0, 73, 0
2, 427800, Note_on_c, 0, 61, 0
2, 427800, Note_on_c, 0, 62, 80
2, 427800, Note_on_c, 0, 74, 80
2, 428160, Note_on_c, 0, 74, 0
2, 428160, Note_on_c, 0, 62, 0
2, 428160, Note_on_c, 0, 66, 93
2, 428160, Note_on_c, 0, 78, 93
2, 428520, Note_on_c, 0, 78, 0
2, 428520, Note_on_c, 0, 66, 0
2, 428520, Note_on_c, 0, 64, 93
2, 428520, Note_on_c, 0, 76, 93
2, 428880, Note_on_c, 0, 76, 0
2, 428880, Note_on_c, 0, 64, 0
2, 428880, Note_on_c, 0, 63, 93
2, 428880, Note_on_c, 0, 75, 93
2, 429240, Note_on_c, 0, 75, 0
2, 429240, Note_on_c, 0, 63, 0
2, 429240, Note_on_c, 0, 64, 93
2, 429240, Note_on_c, 0, 76, 93
2, 429600, Note_on_c, 0, 76, 0
2, 429600, Note_on_c, 0, 64, 0
2, 429600, Note_on_c, 0, 67, 93
2, 429600, Note_on_c, 0, 79, 93
2, 430320, Note_on_c, 0, 79, 0
2, 430320, Note_on_c, 0, 67, 0
2, 430320, Note_on_c, 0, 66, 80
2, 430320, Note_on_c, 0, 78, 80
2, 431040, Note_on_c, 0, 78, 0
2, 431040, Note_on_c, 0, 66, 0
2, 432480, Note_on_c, 0, 62, 80
2, 432480, Note_on_c, 0, 67, 80
2, 432480, Note_on_c, 0, 74, 80
2, 433200, Note_on_c, 0, 74, 0
2, 433200, Note_on_c, 0, 67, 0
2, 433200, Note_on_c, 0, 62, 0
2, 433200, Note_on_c, 0, 66, 67
2, 433680, Note_on_c, 0, 66, 0
2, 433680, Note_on_c, 0, 59, 67
2, 433680, Note_on_c, 0, 71, 67
2, 433920, Note_on_c, 0, 71, 0
2, 433920, Note_on_c, 0, 59, 0
2, 433920, Note_on_c, 0, 55, 67
2, 433920, Note_on_c, 0, 69, 67
2, 435360, Note_on_c, 0, 69, 0
2, 435360, Note_on_c, 0, 55, 0
2, 435360, Note_on_c, 0, 62, 67
2, 435360, Note_on_c, 0, 66, 67
2, 435360, Note_on_c, 0, 74, 67
2, 436080, Note_on_c, 0, 74, 0
2, 436080, Note_on_c, 0, 66, 0
2, 436080, Note_on_c, 0, 62, 0
2, 436080, Note_on_c, 0, 54, 67
2, 436080, Note_on_c, 0, 66, 67
2, 436560, Note_on_c, 0, 66, 0
2, 436560, Note_on_c, 0, 54, 0
2, 436560, Note_on_c, 0, 59, 67
2, 436560, Note_on_c, 0, 71, 67
2, 436800, Note_on_c, 0, 71, 0
2, 436800, Note_on_c, 0, 59, 0
2, 436800, Note_on_c, 0, 55, 67
2, 436800, Note_on_c, 0, 69, 67
2, 438240, Note_on_c, 0, 69, 0
2, 438240, Note_on_c, 0, 55, 0
2, 438240, Note_on_c, 0, 74, 54
2, 438960, Note_on_c, 0, 74, 0
2, 438960, Note_on_c, 0, 66, 54
2, 439440, Note_on_c, 0, 66, 0
2, 439440, Note_on_c, 0, 71, 54
2, 439680, Note_on_c, 0, 71, 0
2, 439680, Note_on_c, 0, 66, 54
2, 439680, Note_on_c, 0, 69, 54
2, 440400, Note_on_c, 0, 69, 0
2, 440400, Note_on_c, 0, 66, 0
2, 440400, Note_on_c, 0, 62, 54
2, 440880, Note_on_c, 0, 62, 0
2, 440880, Note_on_c, 0, 67, 54
2, 441120, Note_on_c, 0, 67, 0
2, 441120, Note_on_c, 0, 66, 54
2, 441840, Note_on_c, 0, 66, 0
2, 441840, Note_on_c, 0, 57, 54
2, 442320, Note_on_c, 0, 57, 0
2, 442320, Note_on_c, 0, 64, 54
2, 442560, Note_on_c, 0, 64, 0
2, 442560, Note_on_c, 0, 62, 54
2, 443280, Note_on_c, 0, 62, 0
2, 443280, Note_on_c, 0, 54, 54
2, 443760, Note_on_c, 0, 54, 0
2, 443760, Note_on_c, 0, 59, 54
2, 444000, Note_on_c, 0, 59, 0
2, 444000, Note_on_c, 0, 57, 54
2, 444720, Note_on_c, 0, 57, 0
2, 444720, Note_on_c, 0, 50, 54
2, 445200, Note_on_c, 0, 50, 0
2, 445200, Note_on_c, 0, 55, 54
2, 445440, Note_on_c, 0, 55, 0
2, 445440, Note_on_c, 0, 54, 54
2, 446160, Note_on_c, 0, 54, 0
2, 446160, Note_on_c, 0, 45, 54
2, 446640, Note_on_c, 0, 45, 0
2, 446640, Note_on_c, 0, 52, 54
2, 446820, Note_on_c, 0, 50, 54
2, 446880, Note_on_c, 0, 52, 0
2, 446880, Note_on_c, 0, 54, 54
2, 447600, Note_on_c, 0, 54, 0
2, 447600, Note_on_c, 0, 50, 0
2, 447600, Control_c, 0, 64, 127
2, 447600, Note_on_c, 0, 50, 54
2, 447840, Note_on_c, 0, 50, 0
2, 447840, Note_on_c, 0, 54, 67
2, 448080, Note_on_c, 0, 54, 0
2, 448080, Note_on_c, 0, 57, 67
2, 448320, Note_on_c, 0, 57, 0
2, 448320, Note_on_c, 0, 62, 80
2, 448560, Note_on_c, 0, 62, 0
2, 448560, Control_c, 0, 64, 0
2, 448560, Note_on_c, 0, 66, 80
2, 448800, Note_on_c, 0, 66, 0
2, 448800, Note_on_c, 0, 64, 80
2, 450120, Note_on_c, 0, 64, 0
2, 450120, Note_on_c, 0, 62, 67
2, 450240, Note_on_c, 0, 62, 0
2, 450240, Note_on_c, 0, 62, 67
2, 453360, Note_on_c, 0, 62, 0
2, 453360, Control_c, 0, 64, 127
2, 455040, Control_c, 0, 64, 0
2, 455040, End_track
3, 0, Start_track
3, 0, Title_t, "Grand Piano"
3, 0, Program_c, 0, 0
3, 0, Control_c, 0, 7, 115
3, 0, Control_c, 0, 10, 79
3, 20160, Note_on_c, 0, 52, 54
3, 20160, Note_on_c, 0, 57, 54
3, 21600, Note_on_c, 0, 57, 0
3, 21600, Note_on_c, 0, 52, 0
3, 21600, Note_on_c, 0, 57, 54
3, 23040, Note_on_c, 0, 57, 0
3, 23040, Note_on_c, 0, 57, 54
3, 25200, Note_on_c, 0, 57, 0
3, 25200, Note_on_c, 0, 57, 54
3, 25920, Note_on_c, 0, 57, 0
3, 25920, Note_on_c, 0, 57, 54
3, 27360, Note_on_c, 0, 57, 0
3, 27360, Note_on_c, 0, 54, 54
3, 28800, Note_on_c, 0, 54, 0
3, 28800, Note_on_c, 0, 55, 54
3, 28800, Note_on_c, 0, 62, 54
3, 30960, Note_on_c, 0, 62, 0
3, 30960, Note_on_c, 0, 55, 0
3, 30960, Note_on_c, 0, 55, 54
3, 30960, Note_on_c, 0, 61, 54
3, 31680, Note_on_c, 0, 61, 0
3, 31680, Note_on_c, 0, 55, 0
3, 31680, Note_on_c, 0, 57, 67
3, 31680, Note_on_c, 0, 62, 67
3, 33120, Note_on_c, 0, 62, 0
3, 33120, Note_on_c, 0, 57, 0
3, 33120, Note_on_c, 0, 57, 54
3, 34560, Note_on_c, 0, 57, 0
3, 34560, Note_on_c, 0, 57, 54
3, 36720, Note_on_c, 0, 57, 0
3, 36720, Note_on_c, 0, 57, 54
3, 37440, Note_on_c, 0, 57, 0
3, 37440, Note_on_c, 0, 57, 54
3, 38880, Note_on_c, 0, 57, 0
3, 38880, Note_on_c, 0, 54, 54
3, 40320, Note_on_c, 0, 54, 0
3, 40320, Note_on_c, 0, 54, 54
3, 40320, Note_on_c, 0, 62, 54
3, 41760, Note_on_c, 0, 62, 0
3, 41760, Note_on_c, 0, 54, 0
3, 41760, Note_on_c, 0, 54, 67
3, 41760, Note_on_c, 0, 59, 67
3, 42480, Note_on_c, 0, 59, 0
3, 42480, Note_on_c, 0, 54, 0
3, 42480, Note_on_c, 0, 53, 67
3, 42480, Note_on_c, 0, 59, 67
3, 43200, Note_on_c, 0, 59, 0
3, 43200, Note_on_c, 0, 53, 0
3, 43200, Note_on_c, 0, 61, 67
3, 43200, Note_on_c, 0, 66, 67
3, 43920, Note_on_c, 0, 66, 0
3, 43920, Note_on_c, 0, 61, 0
3, 43920, Note_on_c, 0, 57, 54
3, 43920, Note_on_c, 0, 66, 54
3, 44640, Note_on_c, 0, 66, 0
3, 44640, Note_on_c, 0, 57, 0
3, 44640, Note_on_c, 0, 61, 54
3, 44640, Note_on_c, 0, 66, 54
3, 45360, Note_on_c, 0, 66, 0
3, 45360, Note_on_c, 0, 61, 0
3, 45360, Note_on_c, 0, 60, 54
3, 46080, Note_on_c, 0, 60, 0
3, 46080, Note_on_c, 0, 59, 67
3, 46800, Note_on_c, 0, 59, 0
3, 48240, Note_on_c, 0, 59, 54
3, 48960, Note_on_c, 0, 59, 0
3, 48960, Note_on_c, 0, 57, 67
3, 49680, Note_on_c, 0, 57, 0
3, 51120, Note_on_c, 0, 57, 54
3, 51840, Note_on_c, 0, 57, 0
3, 51840, Note_on_c, 0, 54, 54
3, 51840, Note_on_c, 0, 56, 54
3, 51840, Note_on_c, 0, 62, 54
3, 52560, Note_on_c, 0, 62, 0
3, 52560, Note_on_c, 0, 56, 0
3, 52560, Note_on_c, 0, 54, 0
3, 52560, Note_on_c, 0, 54, 54
3, 52560, Note_on_c, 0, 57, 54
3, 52560, Note_on_c, 0, 62, 54
3, 53280, Note_on_c, 0, 62, 0
3, 53280, Note_on_c, 0, 57, 0
3, 53280, Note_on_c, 0, 54, 0
3, 54000, Note_on_c, 0, 57, 67
3, 54000, Note_on_c, 0, 61, 67
3, 54720, Note_on_c, 0, 61, 0
3, 54720, Note_on_c, 0, 57, 0
3, 55680, Note_on_c, 0, 57, 67
3, 56880, Note_on_c, 0, 57, 0
3, 56880, Note_on_c, 0, 60, 67
3, 57600, Note_on_c, 0, 60, 0
3, 57600, Note_on_c, 0, 59, 67
3, 58320, Note_on_c, 0, 59, 0
3, 59760, Note_on_c, 0, 59, 54
3, 60480, Note_on_c, 0, 59, 0
3, 60480, Note_on_c, 0, 57, 67
3, 61200, Note_on_c, 0, 57, 0
3, 62640, Note_on_c, 0, 57, 54
3, 63360, Note_on_c, 0, 57, 0
3, 63360, Note_on_c, 0, 54, 54
3, 63360, Note_on_c, 0, 56, 54
3, 63360, Note_on_c, 0, 62, 54
3, 64080, Note_on_c, 0, 62, 0
3, 64080, Note_on_c, 0, 56, 0
3, 64080, Note_on_c, 0, 54, 0
3, 64080, Note_on_c, 0, 54, 54
3, 64080, Note_on_c, 0, 57, 54
3, 64080, Note_on_c, 0, 62, 54
3, 64800, Note_on_c, 0, 62, 0
3, 64800, Note_on_c, 0, 57, 0
3, 64800, Note_on_c, 0, 54, 0
3, 65520, Note_on_c, 0, 59, 54
3, 65520, Note_on_c, 0, 61, 54
3, 66240, Note_on_c, 0, 61, 0
3, 66240, Note_on_c, 0, 59, 0
3, 66240, Note_on_c, 0, 66, 54
3, 66240, Note_on_c, 0, 70, 54
3, 66960, Note_on_c, 0, 70, 0
3, 66960, Note_on_c, 0, 66, 0
3, 67680, Control_c, 0, 64, 127
3, 67680, Note_on_c, 0, 65, 54
3, 67680, Note_on_c, 0, 71, 54
3, 67920, Note_on_c, 0, 71, 0
3, 67920, Note_on_c, 0, 65, 0
3, 67920, Note_on_c, 0, 65, 54
3, 67920, Note_on_c, 0, 71, 54
3, 68160, Note_on_c, 0, 71, 0
3, 68160, Note_on_c, 0, 65, 0
3, 68160, Note_on_c, 0, 65, 54
3, 68160, Note_on_c, 0, 71, 54
3, 68400, Note_on_c, 0, 71, 0
3, 68400, Note_on_c, 0, 65, 0
3, 68400, Note_on_c, 0, 68, 54
3, 68400, Note_on_c, 0, 71, 54
3, 68640, Note_on_c, 0, 71, 0
3, 68640, Note_on_c, 0, 68, 0
3, 68640, Note_on_c, 0, 68, 54
3, 68640, Note_on_c, 0, 71, 54
3, 68880, Note_on_c, 0, 71, 0
3, 68880, Note_on_c, 0, 68, 0
3, 68880, Control_c, 0, 64, 0
3, 68880, Note_on_c, 0, 68, 54
3, 68880, Note_on_c, 0, 71, 54
3, 69120, Note_on_c, 0, 71, 0
3, 69120, Note_on_c, 0, 68, 0
3, 69120, Note_on_c, 0, 70, 54
3, 69840, Note_on_c, 0, 70, 0
3, 70560, Control_c, 0, 64, 127
3, 70560, Note_on_c, 0, 65, 54
3, 70560, Note_on_c, 0, 71, 54
3, 70800, Note_on_c, 0, 71, 0
3, 70800, Note_on_c, 0, 65, 0
3, 70800, Note_on_c, 0, 65, 54
3, 70800, Note_on_c, 0, 71, 54
3, 71040, Note_on_c, 0, 71, 0
3, 71040, Note_on_c, 0, 65, 0
3, 71040, Note_on_c, 0, 65, 54
3, 71040, Note_on_c, 0, 71, 54
3, 71280, Note_on_c, 0, 71, 0
3, 71280, Note_on_c, 0, 65, 0
3, 71280, Note_on_c, 0, 68, 54
3, 71280, Note_on_c, 0, 71, 54
3, 71520, Note_on_c, 0, 71, 0
3, 71520, Note_on_c, 0, 68, 0
3, 71520, Note_on_c, 0, 68, 54
3, 71520, Note_on_c, 0, 71, 54
3, 71760, Note_on_c, 0, 71, 0
3, 71760, Note_on_c, 0, 68, 0
3, 71760, Control_c, 0, 64, 0
3, 71760, Note_on_c, 0, 68, 54
3, 71760, Note_on_c, 0, 71, 54
3, 72000, Note_on_c, 0, 71, 0
3, 72000, Note_on_c, 0, 68, 0
3, 72000, Note_on_c, 0, 70, 54
3, 72720, Note_on_c, 0, 70, 0
3, 72720, Note_on_c, 0, 70, 54
3, 72720, Note_on_c, 0, 73, 54
3, 73440, Note_on_c, 0, 73, 0
3, 73440, Note_on_c, 0, 70, 0
3, 73440, Note_on_c, 0, 71, 67
3, 73440, Note_on_c, 0, 74, 67
3, 74160, Note_on_c, 0, 74, 0
3, 74160, Note_on_c, 0, 71, 0
3, 74160, Note_on_c, 0, 71, 67
3, 74160, Note_on_c, 0, 74, 67
3, 74880, Note_on_c, 0, 74, 0
3, 74880, Note_on_c, 0, 71, 0
3, 74880, Note_on_c, 0, 71, 67
3, 74880, Note_on_c, 0, 73, 67
3, 74880, Note_on_c, 0, 78, 67
3, 75120, Note_on_c, 0, 78, 0
3, 75120, Note_on_c, 0, 73, 0
3, 75120, Note_on_c, 0, 71, 0
3, 75120, Note_on_c, 0, 71, 67
3, 75120, Note_on_c, 0, 73, 67
3, 75120, Note_on_c, 0, 78, 67
3, 75360, Note_on_c, 0, 78, 0
3, 75360, Note_on_c, 0, 73, 0
3, 75360, Note_on_c, 0, 71, 0
3, 75360, Note_on_c, 0, 71, 67
3, 75360, Note_on_c, 0, 73, 67
3, 75360, Note_on_c, 0, 78, 67
3, 75600, Note_on_c, 0, 78, 0
3, 75600, Note_on_c, 0, 73, 0
3, 75600, Note_on_c, 0, 71, 0
3, 75600, Note_on_c, 0, 70, 67
3, 75600, Note_on_c, 0, 73, 67
3, 75840, Note_on_c, 0, 73, 0
3, 75840, Note_on_c, 0, 70, 0
3, 75840, Note_on_c, 0, 70, 67
3, 75840, Note_on_c, 0, 73, 67
3, 76080, Note_on_c, 0, 73, 0
3, 76080, Note_on_c, 0, 70, 0
3, 76080, Note_on_c, 0, 70, 67
3, 76080, Note_on_c, 0, 73, 67
3, 76320, Note_on_c, 0, 73, 0
3, 76320, Note_on_c, 0, 70, 0
3, 76320, Control_c, 0, 64, 127
3, 76320, Note_on_c, 0, 71, 67
3, 76320, Note_on_c, 0, 74, 67
3, 76560, Note_on_c, 0, 74, 0
3, 76560, Note_on_c, 0, 71, 0
3, 76560, Note_on_c, 0, 71, 67
3, 76560, Note_on_c, 0, 74, 67
3, 76800, Note_on_c, 0, 74, 0
3, 76800, Note_on_c, 0, 71, 0
3, 76800, Note_on_c, 0, 71, 67
3, 76800, Note_on_c, 0, 74, 67
3, 77040, Note_on_c, 0, 74, 0
3, 77040, Note_on_c, 0, 71, 0
3, 77040, Note_on_c, 0, 71, 67
3, 77040, Note_on_c, 0, 74, 67
3, 77280, Note_on_c, 0, 74, 0
3, 77280, Note_on_c, 0, 71, 0
3, 77280, Note_on_c, 0, 71, 67
3, 77280, Note_on_c, 0, 74, 67
3, 77520, Note_on_c, 0, 74, 0
3, 77520, Note_on_c, 0, 71, 0
3, 77520, Control_c, 0, 64, 0
3, 77520, Note_on_c, 0, 71, 67
3, 77520, Note_on_c, 0, 74, 67
3, 77760, Note_on_c, 0, 74, 0
3, 77760, Note_on_c, 0, 71, 0
3, 91200, Note_on_c, 0, 57, 67
3, 91440, Note_on_c, 0, 57, 0
3, 91440, Note_on_c, 0, 57, 54
3, 92160, Note_on_c, 0, 57, 0
3, 92160, Note_on_c, 0, 62, 80
3, 92880, Note_on_c, 0, 62, 0
3, 92880, Note_on_c, 0, 61, 80
3, 94320, Note_on_c, 0, 61, 0
3, 94320, Note_on_c, 0, 57, 80
3, 94560, Note_on_c, 0, 57, 0
3, 94560, Note_on_c, 0, 59, 80
3, 94800, Note_on_c, 0, 59, 0
3, 94800, Note_on_c, 0, 61, 106
3, 95040, Note_on_c, 0, 61, 0
3, 95040, Note_on_c, 0, 64, 106
3, 95760, Note_on_c, 0, 64, 0
3, 95760, Note_on_c, 0, 62, 80
3, 97200, Note_on_c, 0, 62, 0
3, 97200, Note_on_c, 0, 62, 80
3, 97440, Note_on_c, 0, 62, 0
3, 97440, Note_on_c, 0, 64, 80
3, 97680, Note_on_c, 0, 64, 0
3, 97680, Note_on_c, 0, 66, 106
3, 97920, Note_on_c, 0, 66, 0
3, 97920, Note_on_c, 0, 67, 106
3, 98640, Note_on_c, 0, 67, 0
3, 98640, Note_on_c, 0, 67, 80
3, 99120, Note_on_c, 0, 67, 0
3, 99120, Note_on_c, 0, 67, 93
3, 99360, Note_on_c, 0, 67, 0
3, 99360, Note_on_c, 0, 67, 93
3, 100560, Note_on_c, 0, 67, 0
3, 100560, Note_on_c, 0, 67, 80
3, 100800, Note_on_c, 0, 67, 0
3, 100800, Note_on_c, 0, 67, 93
3, 101160, Note_on_c, 0, 67, 0
3, 101160, Note_on_c, 0, 66, 93
3, 101520, Note_on_c, 0, 66, 0
3, 101520, Note_on_c, 0, 71, 93
3, 101880, Note_on_c, 0, 71, 0
3, 101880, Note_on_c, 0, 69, 93
3, 102240, Note_on_c, 0, 69, 0
3, 102240, Note_on_c, 0, 67, 119
3, 102480, Note_on_c, 0, 67, 0
3, 102480, Note_on_c, 0, 66, 119
3, 102720, Note_on_c, 0, 66, 0
3, 102720, Note_on_c, 0, 64, 119
3, 102960, Note_on_c, 0, 64, 0
3, 102960, Note_on_c, 0, 62, 106
3, 103200, Note_on_c, 0, 62, 0
3, 103200, Note_on_c, 0, 61, 106
3, 103440, Note_on_c, 0, 61, 0
3, 103440, Note_on_c, 0, 59, 106
3, 103680, Note_on_c, 0, 59, 0
3, 103680, Note_on_c, 0, 62, 106
3, 104400, Note_on_c, 0, 62, 0
3, 104400, Note_on_c, 0, 61, 80
3, 105840, Note_on_c, 0, 61, 0
3, 105840, Note_on_c, 0, 57, 80
3, 106080, Note_on_c, 0, 57, 0
3, 106080, Note_on_c, 0, 59, 80
3, 106320, Note_on_c, 0, 59, 0
3, 106320, Note_on_c, 0, 61, 106
3, 106800, Note_on_c, 0, 61, 0
3, 106800, Note_on_c, 0, 59, 67
3, 107040, Note_on_c, 0, 59, 0
3, 107040, Note_on_c, 0, 57, 67
3, 107520, Note_on_c, 0, 57, 0
3, 107520, Note_on_c, 0, 59, 67
3, 107760, Note_on_c, 0, 59, 0
3, 107760, Note_on_c, 0, 62, 67
3, 108000, Note_on_c, 0, 62, 0
3, 108000, Note_on_c, 0, 62, 67
3, 108000, Note_on_c, 0, 66, 67
3, 108720, Note_on_c, 0, 66, 0
3, 108720, Note_on_c, 0, 62, 0
3, 108720, Note_on_c, 0, 62, 119
3, 108960, Note_on_c, 0, 62, 0
3, 108960, Note_on_c, 0, 64, 119
3, 109200, Note_on_c, 0, 64, 0
3, 109200, Note_on_c, 0, 66, 119
3, 109440, Note_on_c, 0, 66, 0
3, 109440, Note_on_c, 0, 56, 80
3, 109440, Note_on_c, 0, 59, 80
3, 109440, Note_on_c, 0, 66, 80
3, 110160, Note_on_c, 0, 66, 0
3, 110160, Note_on_c, 0, 59, 0
3, 110160, Note_on_c, 0, 56, 0
3, 110160, Note_on_c, 0, 56, 80
3, 110160, Note_on_c, 0, 61, 80
3, 110160, Note_on_c, 0, 66, 80
3, 110880, Note_on_c, 0, 66, 0
3, 110880, Note_on_c, 0, 61, 0
3, 110880, Note_on_c, 0, 56, 0
3, 110880, Note_on_c, 0, 56, 80
3, 110880, Note_on_c, 0, 62, 80
3, 110880, Note_on_c, 0, 66, 80
3, 111600, Note_on_c, 0, 66, 0
3, 111600, Note_on_c, 0, 62, 0
3, 111600, Note_on_c, 0, 56, 0
3, 112320, Note_on_c, 0, 56, 80
3, 112320, Note_on_c, 0, 59, 80
3, 112320, Note_on_c, 0, 66, 80
3, 113040, Note_on_c, 0, 66, 0
3, 113040, Note_on_c, 0, 59, 0
3, 113040, Note_on_c, 0, 56, 0
3, 113040, Note_on_c, 0, 56, 80
3, 113040, Note_on_c, 0, 61, 80
3, 113040, Note_on_c, 0, 66, 80
3, 113760, Note_on_c, 0, 66, 0
3, 113760, Note_on_c, 0, 61, 0
3, 113760, Note_on_c, 0, 56, 0
3, 113760, Note_on_c, 0, 56, 80
3, 113760, Note_on_c, 0, 62, 80
3, 113760, Note_on_c, 0, 66, 80
3, 114480, Note_on_c, 0, 66, 0
3, 114480, Note_on_c, 0, 62, 0
3, 114480, Note_on_c, 0, 56, 0
3, 115200, Note_on_c, 0, 59, 93
3, 115200, Note_on_c, 0, 62, 93
3, 115200, Note_on_c, 0, 65, 93
3, 115920, Note_on_c, 0, 65, 0
3, 115920, Note_on_c, 0, 62, 0
3, 115920, Note_on_c, 0, 59, 0
3, 115920, Note_on_c, 0, 59, 93
3, 115920, Note_on_c, 0, 62, 93
3, 115920, Note_on_c, 0, 66, 93
3, 116640, Note_on_c, 0, 66, 0
3, 116640, Note_on_c, 0, 62, 0
3, 116640, Note_on_c, 0, 59, 0
3, 116640, Note_on_c, 0, 59, 93
3, 116640, Note_on_c, 0, 62, 93
3, 116640, Note_on_c, 0, 68, 93
3, 117360, Note_on_c, 0, 68, 0
3, 117360, Note_on_c, 0, 62, 0
3, 117360, Note_on_c, 0, 59, 0
3, 118080, Note_on_c, 0, 59, 93
3, 118080, Note_on_c, 0, 62, 93
3, 118080, Note_on_c, 0, 65, 93
3, 118800, Note_on_c, 0, 65, 0
3, 118800, Note_on_c, 0, 62, 0
3, 118800, Note_on_c, 0, 59, 0
3, 118800, Note_on_c, 0, 59, 93
3, 118800, Note_on_c, 0, 62, 93
3, 118800, Note_on_c, 0, 66, 93
3, 119520, Note_on_c, 0, 66, 0
3, 119520, Note_on_c, 0, 62, 0
3, 119520, Note_on_c, 0, 59, 0
3, 119520, Note_on_c, 0, 59, 93
3, 119520, Note_on_c, 0, 62, 93
3, 119520, Note_on_c, 0, 68, 93
3, 120240, Note_on_c, 0, 68, 0
3, 120240, Note_on_c, 0, 62, 0
3, 120240, Note_on_c, 0, 59, 0
3, 120960, Note_on_c, 0, 59, 93
3, 120960, Note_on_c, 0, 62, 93
3, 120960, Note_on_c, 0, 67, 93
3, 122400, Note_on_c, 0, 67, 0
3, 122400, Note_on_c, 0, 62, 0
3, 122400, Note_on_c, 0, 59, 0
3, 122400, Note_on_c, 0, 61, 93
3, 122400, Note_on_c, 0, 67, 93
3, 123840, Note_on_c, 0, 67, 0
3, 123840, Note_on_c, 0, 61, 0
3, 128160, Note_on_c, 0, 67, 54
3, 128880, Note_on_c, 0, 67, 0
3, 128880, Note_on_c, 0, 66, 54
3, 129360, Note_on_c, 0, 66, 0
3, 129360, Note_on_c, 0, 64, 54
3, 129600, Note_on_c, 0, 64, 0
3, 129600, Note_on_c, 0, 62, 54
3, 129600, Note_on_c, 0, 66, 54
3, 130320, Note_on_c, 0, 66, 0
3, 130320, Note_on_c, 0, 62, 0
3, 130320, Note_on_c, 0, 66, 54
3, 131040, Note_on_c, 0, 66, 0
3, 131040, Control_c, 0, 64, 127
3, 131040, Note_on_c, 0, 66, 54
3, 131040, Note_on_c, 0, 73, 54
3, 131280, Note_on_c, 0, 73, 0
3, 131280, Note_on_c, 0, 66, 0
3, 131280, Note_on_c, 0, 66, 54
3, 131280, Note_on_c, 0, 73, 54
3, 131520, Note_on_c, 0, 73, 0
3, 131520, Note_on_c, 0, 66, 0
3, 131520, Note_on_c, 0, 66, 54
3, 131520, Note_on_c, 0, 73, 54
3, 131760, Note_on_c, 0, 73, 0
3, 131760, Note_on_c, 0, 66, 0
3, 131760, Note_on_c, 0, 66, 54
3, 131760, Note_on_c, 0, 73, 54
3, 132000, Note_on_c, 0, 73, 0
3, 132000, Note_on_c, 0, 66, 0
3, 132000, Note_on_c, 0, 66, 54
3, 132000, Note_on_c, 0, 73, 54
3, 132240, Note_on_c, 0, 73, 0
3, 132240, Note_on_c, 0, 66, 0
3, 132240, Control_c, 0, 64, 0
3, 132240, Note_on_c, 0, 66, 54
3, 132240, Note_on_c, 0, 73, 54
3, 132480, Note_on_c, 0, 73, 0
3, 132480, Note_on_c, 0, 66, 0
3, 132480, Note_on_c, 0, 62, 54
3, 132480, Note_on_c, 0, 65, 54
3, 133200, Note_on_c, 0, 65, 0
3, 133200, Note_on_c, 0, 62, 0
3, 133200, Note_on_c, 0, 65, 54
3, 133920, Note_on_c, 0, 65, 0
3, 133920, Note_on_c, 0, 66, 80
3, 134160, Note_on_c, 0, 66, 0
3, 134160, Note_on_c, 0, 66, 80
3, 134400, Note_on_c, 0, 66, 0
3, 134400, Note_on_c, 0, 66, 80
3, 134640, Note_on_c, 0, 66, 0
3, 134640, Note_on_c, 0, 66, 80
3, 134880, Note_on_c, 0, 66, 0
3, 134880, Note_on_c, 0, 66, 80
3, 135120, Note_on_c, 0, 66, 0
3, 135120, Note_on_c, 0, 66, 80
3, 135360, Note_on_c, 0, 66, 0
3, 135360, Note_on_c, 0, 67, 80
3, 135360, Note_on_c, 0, 71, 80
3, 135600, Note_on_c, 0, 71, 0
3, 135600, Note_on_c, 0, 67, 0
3, 135600, Note_on_c, 0, 67, 80
3, 135600, Note_on_c, 0, 71, 80
3, 135840, Note_on_c, 0, 71, 0
3, 135840, Note_on_c, 0, 67, 0
3, 135840, Note_on_c, 0, 67, 80
3, 135840, Note_on_c, 0, 71, 80
3, 136080, Note_on_c, 0, 71, 0
3, 136080, Note_on_c, 0, 67, 0
3, 136080, Note_on_c, 0, 64, 67
3, 136800, Note_on_c, 0, 64, 0
3, 137520, Note_on_c, 0, 64, 54
3, 137520, Note_on_c, 0, 67, 54
3, 137760, Note_on_c, 0, 67, 0
3, 137760, Note_on_c, 0, 64, 0
3, 137760, Note_on_c, 0, 64, 54
3, 137760, Note_on_c, 0, 67, 54
3, 138240, Note_on_c, 0, 67, 0
3, 138240, Note_on_c, 0, 64, 0
3, 139680, Note_on_c, 0, 67, 54
3, 140400, Note_on_c, 0, 67, 0
3, 140400, Note_on_c, 0, 66, 54
3, 140880, Note_on_c, 0, 66, 0
3, 140880, Note_on_c, 0, 64, 54
3, 141120, Note_on_c, 0, 64, 0
3, 141120, Note_on_c, 0, 62, 67
3, 141120, Note_on_c, 0, 66, 67
3, 141840, Note_on_c, 0, 66, 0
3, 141840, Note_on_c, 0, 62, 0
3, 141840, Note_on_c, 0, 66, 67
3, 142560, Note_on_c, 0, 66, 0
3, 142560, Control_c, 0, 64, 127
3, 142560, Note_on_c, 0, 66, 67
3, 142560, Note_on_c, 0, 73, 67
3, 142800, Note_on_c, 0, 73, 0
3, 142800, Note_on_c, 0, 66, 0
3, 142800, Note_on_c, 0, 66, 67
3, 142800, Note_on_c, 0, 73, 67
3, 143040, Note_on_c, 0, 73, 0
3, 143040, Note_on_c, 0, 66, 0
3, 143040, Note_on_c, 0, 66, 67
3, 143040, Note_on_c, 0, 73, 67
3, 143280, Note_on_c, 0, 73, 0
3, 143280, Note_on_c, 0, 66, 0
3, 143280, Note_on_c, 0, 66, 67
3, 143280, Note_on_c, 0, 73, 67
3, 143520, Note_on_c, 0, 73, 0
3, 143520, Note_on_c, 0, 66, 0
3, 143760, Control_c, 0, 64, 0
3, 144000, Note_on_c, 0, 62, 67
3, 144000, Note_on_c, 0, 65, 67
3, 144720, Note_on_c, 0, 65, 0
3, 144720, Note_on_c, 0, 62, 0
3, 144720, Note_on_c, 0, 65, 67
3, 145440, Note_on_c, 0, 65, 0
3, 145440, Note_on_c, 0, 66, 67
3, 145680, Note_on_c, 0, 66, 0
3, 145680, Note_on_c, 0, 66, 67
3, 145920, Note_on_c, 0, 66, 0
3, 145920, Note_on_c, 0, 66, 67
3, 146160, Note_on_c, 0, 66, 0
3, 146880, Note_on_c, 0, 71, 80
3, 146880, Note_on_c, 0, 76, 80
3, 147600, Note_on_c, 0, 76, 0
3, 147600, Note_on_c, 0, 71, 0
3, 148320, Note_on_c, 0, 71, 80
3, 148320, Note_on_c, 0, 77, 80
3, 149040, Note_on_c, 0, 77, 0
3, 149040, Note_on_c, 0, 71, 0
3, 149760, Note_on_c, 0, 73, 80
3, 149760, Note_on_c, 0, 78, 80
3, 150480, Note_on_c, 0, 78, 0
3, 150480, Note_on_c, 0, 73, 0
3, 151200, Note_on_c, 0, 74, 80
3, 151200, Note_on_c, 0, 78, 80
3, 151920, Note_on_c, 0, 78, 0
3, 151920, Note_on_c, 0, 74, 0
3, 152640, Note_on_c, 0, 75, 80
3, 152640, Note_on_c, 0, 78, 80
3, 153360, Note_on_c, 0, 78, 0
3, 153360, Note_on_c, 0, 75, 0
3, 153360, Note_on_c, 0, 75, 80
3, 153360, Note_on_c, 0, 78, 80
3, 153840, Note_on_c, 0, 78, 0
3, 153840, Note_on_c, 0, 75, 0
3, 153840, Note_on_c, 0, 75, 80
3, 153840, Note_on_c, 0, 78, 80
3, 154080, Note_on_c, 0, 78, 0
3, 154080, Note_on_c, 0, 75, 0
3, 154080, Note_on_c, 0, 71, 80
3, 154080, Note_on_c, 0, 76, 80
3, 154800, Note_on_c, 0, 76, 0
3, 154800, Note_on_c, 0, 71, 0
3, 154800, Note_on_c, 0, 76, 80
3, 154800, Note_on_c, 0, 82, 80
3, 155160, Note_on_c, 0, 82, 0
3, 155160, Note_on_c, 0, 76, 0
3, 155160, Note_on_c, 0, 76, 80
3, 155160, Note_on_c, 0, 82, 80
3, 155520, Note_on_c, 0, 82, 0
3, 155520, Note_on_c, 0, 76, 0
3, 155520, Note_on_c, 0, 76, 93
3, 155520, Note_on_c, 0, 82, 93
3, 156240, Note_on_c, 0, 82, 0
3, 156240, Note_on_c, 0, 76, 0
3, 156240, Note_on_c, 0, 76, 93
3, 156240, Note_on_c, 0, 82, 93
3, 156960, Note_on_c, 0, 82, 0
3, 156960, Note_on_c, 0, 76, 0
3, 156960, Note_on_c, 0, 80, 93
3, 156960, Note_on_c, 0, 83, 93
3, 157680, Note_on_c, 0, 83, 0
3, 157680, Note_on_c, 0, 80, 0
3, 157680, Note_on_c, 0, 80, 93
3, 157680, Note_on_c, 0, 83, 93
3, 158400, Note_on_c, 0, 83, 0
3, 158400, Note_on_c, 0, 80, 0
3, 159840, Note_on_c, 0, 73, 93
3, 159840, Note_on_c, 0, 79, 93
3, 160080, Note_on_c, 0, 79, 0
3, 160080, Note_on_c, 0, 73, 0
3, 160080, Note_on_c, 0, 73, 93
3, 160080, Note_on_c, 0, 79, 93
3, 160320, Note_on_c, 0, 79, 0
3, 160320, Note_on_c, 0, 73, 0
3, 160320, Note_on_c, 0, 73, 93
3, 160320, Note_on_c, 0, 79, 93
3, 160560, Note_on_c, 0, 79, 0
3, 160560, Note_on_c, 0, 73, 0
3, 160560, Note_on_c, 0, 74, 80
3, 160560, Note_on_c, 0, 79, 80
3, 160800, Note_on_c, 0, 79, 0
3, 160800, Note_on_c, 0, 74, 0
3, 160800, Note_on_c, 0, 74, 80
3, 160800, Note_on_c, 0, 79, 80
3, 161040, Note_on_c, 0, 79, 0
3, 161040, Note_on_c, 0, 74, 0
3, 161040, Note_on_c, 0, 76, 80
3, 161040, Note_on_c, 0, 79, 80
3, 161280, Note_on_c, 0, 79, 0
3, 161280, Note_on_c, 0, 76, 0
3, 162720, Note_on_c, 0, 70, 93
3, 162720, Note_on_c, 0, 76, 93
3, 162960, Note_on_c, 0, 76, 0
3, 162960, Note_on_c, 0, 70, 0
3, 162960, Note_on_c, 0, 70, 93
3, 162960, Note_on_c, 0, 76, 93
3, 163200, Note_on_c, 0, 76, 0
3, 163200, Note_on_c, 0, 70, 0
3, 163200, Note_on_c, 0, 70, 93
3, 163200, Note_on_c, 0, 76, 93
3, 163440, Note_on_c, 0, 76, 0
3, 163440, Note_on_c, 0, 70, 0
3, 163440, Note_on_c, 0, 71, 80
3, 163440, Note_on_c, 0, 76, 80
3, 163680, Note_on_c, 0, 76, 0
3, 163680, Note_on_c, 0, 71, 0
3, 163680, Note_on_c, 0, 71, 80
3, 163680, Note_on_c, 0, 76, 80
3, 163920, Note_on_c, 0, 76, 0
3, 163920, Note_on_c, 0, 71, 0
3, 163920, Note_on_c, 0, 73, 80
3, 163920, Note_on_c, 0, 76, 80
3, 164160, Note_on_c, 0, 76, 0
3, 164160, Note_on_c, 0, 73, 0
3, 165600, Note_on_c, 0, 64, 80
3, 165600, Note_on_c, 0, 67, 80
3, 166320, Note_on_c, 0, 67, 0
3, 166320, Note_on_c, 0, 64, 0
3, 166320, Note_on_c, 0, 65, 67
3, 166320, Note_on_c, 0, 68, 67
3, 167040, Note_on_c, 0, 68, 0
3, 167040, Note_on_c, 0, 65, 0
3, 167040, Note_on_c, 0, 66, 67
3, 167040, Note_on_c, 0, 69, 67
3, 167760, Note_on_c, 0, 69, 0
3, 167760, Note_on_c, 0, 66, 0
3, 167760, Note_on_c, 0, 62, 54
3, 168480, Note_on_c, 0, 62, 0
3, 168480, Note_on_c, 0, 68, 67
3, 169200, Note_on_c, 0, 68, 0
3, 169200, Note_on_c, 0, 67, 67
3, 169200, Note_on_c, 0, 69, 67
3, 169920, Note_on_c, 0, 69, 0
3, 169920, Note_on_c, 0, 67, 0
3, 169920, Note_on_c, 0, 66, 54
3, 169920, Note_on_c, 0, 69, 54
3, 170640, Note_on_c, 0, 69, 0
3, 170640, Note_on_c, 0, 66, 0
3, 170640, Note_on_c, 0, 62, 54
3, 171360, Note_on_c, 0, 62, 0
3, 171360, Note_on_c, 0, 68, 67
3, 172080, Note_on_c, 0, 68, 0
3, 172080, Note_on_c, 0, 67, 67
3, 172080, Note_on_c, 0, 69, 67
3, 172800, Note_on_c, 0, 69, 0
3, 172800, Note_on_c, 0, 67, 0
3, 172800, Control_c, 0, 64, 127
3, 172800, Note_on_c, 0, 66, 54
3, 172800, Note_on_c, 0, 69, 54
3, 173040, Note_on_c, 0, 69, 0
3, 173040, Note_on_c, 0, 66, 0
3, 173040, Note_on_c, 0, 66, 54
3, 173040, Note_on_c, 0, 69, 54
3, 173280, Note_on_c, 0, 69, 0
3, 173280, Note_on_c, 0, 66, 0
3, 173280, Note_on_c, 0, 66, 54
3, 173280, Note_on_c, 0, 69, 54
3, 173520, Note_on_c, 0, 69, 0
3, 173520, Note_on_c, 0, 66, 0
3, 173520, Note_on_c, 0, 66, 54
3, 173520, Note_on_c, 0, 69, 54
3, 173760, Note_on_c, 0, 69, 0
3, 173760, Note_on_c, 0, 66, 0
3, 173760, Note_on_c, 0, 66, 54
3, 173760, Note_on_c, 0, 69, 54
3, 174000, Note_on_c, 0, 69, 0
3, 174000, Note_on_c, 0, 66, 0
3, 174000, Note_on_c, 0, 66, 54
3, 174000, Note_on_c, 0, 69, 54
3, 174240, Note_on_c, 0, 69, 0
3, 174240, Note_on_c, 0, 66, 0
3, 174240, Control_c, 0, 64, 0
3, 174240, Note_on_c, 0, 66, 54
3, 174240, Note_on_c, 0, 69, 54
3, 174480, Note_on_c, 0, 69, 0
3, 174480, Note_on_c, 0, 66, 0
3, 175680, Control_c, 0, 64, 127
3, 175680, Note_on_c, 0, 66, 54
3, 175680, Note_on_c, 0, 71, 54
3, 175920, Note_on_c, 0, 71, 0
3, 175920, Note_on_c, 0, 66, 0
3, 175920, Note_on_c, 0, 66, 54
3, 175920, Note_on_c, 0, 71, 54
3, 176640, Note_on_c, 0, 71, 0
3, 176640, Note_on_c, 0, 66, 0
3, 176640, Note_on_c, 0, 66, 54
3, 176640, Note_on_c, 0, 71, 54
3, 176880, Note_on_c, 0, 71, 0
3, 176880, Note_on_c, 0, 66, 0
3, 176880, Note_on_c, 0, 66, 54
3, 176880, Note_on_c, 0, 71, 54
3, 177120, Note_on_c, 0, 71, 0
3, 177120, Note_on_c, 0, 66, 0
3, 177120, Control_c, 0, 64, 0
3, 177120, Note_on_c, 0, 66, 54
3, 177120, Note_on_c, 0, 71, 54
3, 177360, Note_on_c, 0, 71, 0
3, 177360, Note_on_c, 0, 66, 0
3, 178560, Note_on_c, 0, 66, 54
3, 178560, Note_on_c, 0, 71, 54
3, 178800, Note_on_c, 0, 71, 0
3, 178800, Note_on_c, 0, 66, 0
3, 178800, Note_on_c, 0, 66, 54
3, 178800, Note_on_c, 0, 71, 54
3, 179040, Note_on_c, 0, 71, 0
3, 179040, Note_on_c, 0, 66, 0
3, 179040, Note_on_c, 0, 66, 54
3, 179040, Note_on_c, 0, 71, 54
3, 179520, Note_on_c, 0, 71, 0
3, 179520, Note_on_c, 0, 66, 0
3, 180000, Note_on_c, 0, 62, 67
3, 180000, Note_on_c, 0, 66, 67
3, 180240, Note_on_c, 0, 66, 0
3, 180240, Note_on_c, 0, 62, 0
3, 180240, Note_on_c, 0, 62, 67
3, 180240, Note_on_c, 0, 66, 67
3, 180480, Note_on_c, 0, 66, 0
3, 180480, Note_on_c, 0, 62, 0
3, 180480, Note_on_c, 0, 62, 67
3, 180480, Note_on_c, 0, 66, 67
3, 180960, Note_on_c, 0, 66, 0
3, 180960, Note_on_c, 0, 62, 0
3, 181440, Note_on_c, 0, 59, 67
3, 181440, Note_on_c, 0, 65, 67
3, 181680, Note_on_c, 0, 65, 0
3, 181680, Note_on_c, 0, 59, 0
3, 181680, Note_on_c, 0, 59, 67
3, 181680, Note_on_c, 0, 65, 67
3, 181920, Note_on_c, 0, 65, 0
3, 181920, Note_on_c, 0, 59, 0
3, 181920, Note_on_c, 0, 59, 67
3, 181920, Note_on_c, 0, 65, 67
3, 182400, Note_on_c, 0, 65, 0
3, 182400, Note_on_c, 0, 59, 0
3, 182400, Note_on_c, 0, 59, 54
3, 182400, Note_on_c, 0, 65, 54
3, 182640, Note_on_c, 0, 65, 0
3, 182640, Note_on_c, 0, 59, 0
3, 182640, Note_on_c, 0, 59, 54
3, 182640, Note_on_c, 0, 65, 54
3, 182880, Note_on_c, 0, 65, 0
3, 182880, Note_on_c, 0, 59, 0
3, 182880, Note_on_c, 0, 59, 54
3, 182880, Note_on_c, 0, 66, 54
3, 183600, Note_on_c, 0, 66, 0
3, 183600, Note_on_c, 0, 59, 0
3, 184320, Control_c, 0, 64, 127
3, 184320, Note_on_c, 0, 59, 54
3, 184320, Note_on_c, 0, 65, 54
3, 184560, Note_on_c, 0, 65, 0
3, 184560, Note_on_c, 0, 59, 0
3, 184560, Note_on_c, 0, 59, 54
3, 184560, Note_on_c, 0, 65, 54
3, 184800, Note_on_c, 0, 65, 0
3, 184800, Note_on_c, 0, 59, 0
3, 184800, Note_on_c, 0, 59, 54
3, 184800, Note_on_c, 0, 65, 54
3, 185280, Note_on_c, 0, 65, 0
3, 185280, Note_on_c, 0, 59, 0
3, 185280, Note_on_c, 0, 59, 54
3, 185280, Note_on_c, 0, 65, 54
3, 185520, Note_on_c, 0, 65, 0
3, 185520, Note_on_c, 0, 59, 0
3, 185520, Note_on_c, 0, 59, 54
3, 185520, Note_on_c, 0, 65, 54
3, 185760, Note_on_c, 0, 65, 0
3, 185760, Note_on_c, 0, 59, 0
3, 185760, Control_c, 0, 64, 0
3, 185760, Note_on_c, 0, 59, 54
3, 185760, Note_on_c, 0, 66, 54
3, 186480, Note_on_c, 0, 66, 0
3, 186480, Note_on_c, 0, 59, 0
3, 187200, Note_on_c, 0, 59, 54
3, 187200, Note_on_c, 0, 65, 54
3, 189120, Note_on_c, 0, 65, 0
3, 189120, Note_on_c, 0, 59, 0
3, 192960, Note_on_c, 0, 71, 67
3, 193920, Note_on_c, 0, 71, 0
3, 193920, Note_on_c, 0, 68, 67
3, 194880, Note_on_c, 0, 68, 0
3, 194880, Note_on_c, 0, 71, 67
3, 195840, Note_on_c, 0, 71, 0
3, 195840, Note_on_c, 0, 68, 67
3, 196800, Note_on_c, 0, 68, 0
3, 196800, Note_on_c, 0, 61, 67
3, 197520, Note_on_c, 0, 61, 0
3, 197520, Note_on_c, 0, 61, 67
3, 198000, Note_on_c, 0, 61, 0
3, 198000, Note_on_c, 0, 61, 80
3, 198480, Note_on_c, 0, 61, 0
3, 198480, Note_on_c, 0, 61, 67
3, 198720, Note_on_c, 0, 61, 0
3, 198720, Note_on_c, 0, 54, 67
3, 198720, Note_on_c, 0, 57, 67
3, 198960, Note_on_c, 0, 57, 0
3, 198960, Note_on_c, 0, 54, 0
3, 198960, Note_on_c, 0, 54, 67
3, 198960, Note_on_c, 0, 57, 67
3, 199440, Note_on_c, 0, 57, 0
3, 199440, Note_on_c, 0, 54, 0
3, 199440, Note_on_c, 0, 54, 67
3, 199440, Note_on_c, 0, 57, 67
3, 199680, Note_on_c, 0, 57, 0
3, 199680, Note_on_c, 0, 54, 0
3, 199680, Note_on_c, 0, 53, 80
3, 199680, Note_on_c, 0, 59, 80
3, 199920, Note_on_c, 0, 59, 0
3, 199920, Note_on_c, 0, 53, 0
3, 199920, Note_on_c, 0, 53, 80
3, 199920, Note_on_c, 0, 59, 80
3, 200400, Note_on_c, 0, 59, 0
3, 200400, Note_on_c, 0, 53, 0
3, 200400, Note_on_c, 0, 53, 67
3, 200400, Note_on_c, 0, 59, 67
3, 200640, Note_on_c, 0, 59, 0
3, 200640, Note_on_c, 0, 53, 0
3, 200640, Note_on_c, 0, 54, 67
3, 200880, Note_on_c, 0, 54, 0
3, 200880, Note_on_c, 0, 54, 67
3, 201360, Note_on_c, 0, 54, 0
3, 201360, Note_on_c, 0, 54, 67
3, 201360, Note_on_c, 0, 59, 67
3, 201600, Note_on_c, 0, 59, 0
3, 201600, Note_on_c, 0, 54, 0
3, 201600, Note_on_c, 0, 53, 67
3, 201600, Note_on_c, 0, 59, 67
3, 201840, Note_on_c, 0, 59, 0
3, 201840, Note_on_c, 0, 53, 0
3, 201840, Note_on_c, 0, 53, 67
3, 201840, Note_on_c, 0, 59, 67
3, 202320, Note_on_c, 0, 59, 0
3, 202320, Note_on_c, 0, 53, 0
3, 202320, Note_on_c, 0, 53, 67
3, 202320, Note_on_c, 0, 59, 67
3, 202560, Note_on_c, 0, 59, 0
3, 202560, Note_on_c, 0, 53, 0
3, 202560, Note_on_c, 0, 54, 67
3, 202800, Note_on_c, 0, 54, 0
3, 202800, Note_on_c, 0, 54, 67
3, 203280, Note_on_c, 0, 54, 0
3, 203280, Note_on_c, 0, 54, 67
3, 203280, Note_on_c, 0, 59, 67
3, 203520, Note_on_c, 0, 59, 0
3, 203520, Note_on_c, 0, 54, 0
3, 203520, Note_on_c, 0, 53, 67
3, 203520, Note_on_c, 0, 59, 67
3, 203760, Note_on_c, 0, 59, 0
3, 203760, Note_on_c, 0, 53, 0
3, 203760, Note_on_c, 0, 53, 67
3, 203760, Note_on_c, 0, 59, 67
3, 204240, Note_on_c, 0, 59, 0
3, 204240, Note_on_c, 0, 53, 0
3, 204240, Note_on_c, 0, 53, 67
3, 204240, Note_on_c, 0, 59, 67
3, 204480, Note_on_c, 0, 59, 0
3, 204480, Note_on_c, 0, 53, 0
3, 206400, Note_on_c, 0, 65, 67
3, 206400, Note_on_c, 0, 71, 67
3, 206640, Note_on_c, 0, 71, 0
3, 206640, Note_on_c, 0, 65, 0
3, 206640, Note_on_c, 0, 65, 67
3, 206640, Note_on_c, 0, 71, 67
3, 207120, Note_on_c, 0, 71, 0
3, 207120, Note_on_c, 0, 65, 0
3, 207120, Note_on_c, 0, 65, 80
3, 207120, Note_on_c, 0, 71, 80
3, 207360, Note_on_c, 0, 71, 0
3, 207360, Note_on_c, 0, 65, 0
3, 207360, Note_on_c, 0, 70, 80
3, 207600, Note_on_c, 0, 70, 0
3, 207600, Note_on_c, 0, 70, 80
3, 208080, Note_on_c, 0, 70, 0
3, 208080, Note_on_c, 0, 70, 67
3, 208320, Note_on_c, 0, 70, 0
3, 208320, Note_on_c, 0, 73, 67
3, 208800, Note_on_c, 0, 73, 0
3, 208800, Note_on_c, 0, 71, 67
3, 209280, Note_on_c, 0, 71, 0
3, 209280, Note_on_c, 0, 73, 80
3, 209520, Note_on_c, 0, 73, 0
3, 209520, Note_on_c, 0, 73, 80
3, 210000, Note_on_c, 0, 73, 0
3, 210000, Note_on_c, 0, 73, 67
3, 210240, Note_on_c, 0, 73, 0
3, 210240, Note_on_c, 0, 80, 67
3, 210480, Note_on_c, 0, 80, 0
3, 210480, Note_on_c, 0, 80, 67
3, 210720, Note_on_c, 0, 80, 0
3, 210720, Note_on_c, 0, 78, 67
3, 210960, Note_on_c, 0, 78, 0
3, 210960, Note_on_c, 0, 76, 67
3, 211200, Note_on_c, 0, 76, 0
3, 214080, Note_on_c, 0, 67, 67
3, 214080, Note_on_c, 0, 73, 67
3, 214320, Note_on_c, 0, 73, 0
3, 214320, Note_on_c, 0, 67, 0
3, 214320, Note_on_c, 0, 67, 67
3, 214320, Note_on_c, 0, 73, 67
3, 214800, Note_on_c, 0, 73, 0
3, 214800, Note_on_c, 0, 67, 0
3, 214800, Note_on_c, 0, 67, 67
3, 214800, Note_on_c, 0, 73, 67
3, 215040, Note_on_c, 0, 73, 0
3, 215040, Note_on_c, 0, 67, 0
3, 215040, Note_on_c, 0, 72, 80
3, 215280, Note_on_c, 0, 72, 0
3, 215280, Note_on_c, 0, 72, 80
3, 215760, Note_on_c, 0, 72, 0
3, 215760, Note_on_c, 0, 72, 67
3, 216000, Note_on_c, 0, 72, 0
3, 216000, Note_on_c, 0, 75, 67
3, 216480, Note_on_c, 0, 75, 0
3, 216480, Note_on_c, 0, 73, 67
3, 216960, Note_on_c, 0, 73, 0
3, 216960, Note_on_c, 0, 75, 80
3, 217200, Note_on_c, 0, 75, 0
3, 217200, Note_on_c, 0, 75, 80
3, 217680, Note_on_c, 0, 75, 0
3, 217680, Note_on_c, 0, 75, 67
3, 217920, Note_on_c, 0, 75, 0
3, 217920, Note_on_c, 0, 82, 67
3, 218160, Note_on_c, 0, 82, 0
3, 218160, Note_on_c, 0, 82, 67
3, 218400, Note_on_c, 0, 82, 0
3, 218400, Note_on_c, 0, 80, 67
3, 218640, Note_on_c, 0, 80, 0
3, 218640, Note_on_c, 0, 78, 80
3, 218880, Note_on_c, 0, 78, 0
3, 223680, Note_on_c, 0, 73, 80
3, 224160, Note_on_c, 0, 73, 0
3, 224160, Note_on_c, 0, 71, 80
3, 224640, Note_on_c, 0, 71, 0
3, 225600, Note_on_c, 0, 73, 106
3, 226080, Note_on_c, 0, 73, 0
3, 235200, Note_on_c, 0, 68, 67
3, 236160, Note_on_c, 0, 68, 0
3, 236160, Note_on_c, 0, 68, 80
3, 237120, Note_on_c, 0, 68, 0
3, 237120, Control_c, 0, 64, 127
3, 237120, Note_on_c, 0, 64, 67
3, 237240, Note_on_c, 0, 64, 0
3, 237240, Note_on_c, 0, 65, 67
3, 237360, Note_on_c, 0, 65, 0
3, 237360, Note_on_c, 0, 64, 67
3, 237480, Note_on_c, 0, 64, 0
3, 237480, Control_c, 0, 64, 0
3, 237480, Note_on_c, 0, 65, 67
3, 237600, Note_on_c, 0, 65, 0
3, 237600, Control_c, 0, 64, 127
3, 237600, Note_on_c, 0, 65, 67
3, 237720, Note_on_c, 0, 65, 0
3, 237720, Note_on_c, 0, 66, 67
3, 237840, Note_on_c, 0, 66, 0
3, 237840, Note_on_c, 0, 65, 67
3, 237960, Note_on_c, 0, 65, 0
3, 237960, Control_c, 0, 64, 0
3, 237960, Note_on_c, 0, 66, 67
3, 238080, Note_on_c, 0, 66, 0
3, 240000, Note_on_c, 0, 72, 80
3, 240240, Note_on_c, 0, 72, 0
3, 240240, Note_on_c, 0, 72, 80
3, 240480, Note_on_c, 0, 72, 0
3, 240480, Note_on_c, 0, 75, 80
3, 240720, Note_on_c, 0, 75, 0
3, 240720, Note_on_c, 0, 75, 80
3, 240960, Note_on_c, 0, 75, 0
3, 241920, Note_on_c, 0, 72, 80
3, 242160, Note_on_c, 0, 72, 0
3, 242160, Note_on_c, 0, 72, 80
3, 242400, Note_on_c, 0, 72, 0
3, 242400, Note_on_c, 0, 75, 80
3, 242640, Note_on_c, 0, 75, 0
3, 242640, Note_on_c, 0, 75, 80
3, 242880, Note_on_c, 0, 75, 0
3, 242880, Control_c, 0, 64, 0
3, 242880, Note_on_c, 0, 68, 80
3, 243600, Note_on_c, 0, 68, 0
3, 243840, Note_on_c, 0, 66, 80
3, 243920, Note_on_c, 0, 66, 0
3, 243920, Note_on_c, 0, 68, 80
3, 243999, Note_on_c, 0, 68, 0
3, 243999, Note_on_c, 0, 66, 80
3, 244080, Note_on_c, 0, 66, 0
3, 244080, Note_on_c, 0, 64, 80
3, 244160, Note_on_c, 0, 64, 0
3, 244160, Note_on_c, 0, 68, 80
3, 244239, Note_on_c, 0, 68, 0
3, 244239, Note_on_c, 0, 64, 80
3, 244320, Note_on_c, 0, 64, 0
3, 244320, Note_on_c, 0, 63, 80
3, 244400, Note_on_c, 0, 63, 0
3, 244400, Note_on_c, 0, 68, 80
3, 244479, Note_on_c, 0, 68, 0
3, 244479, Note_on_c, 0, 63, 80
3, 244560, Note_on_c, 0, 63, 0
3, 244560, Note_on_c, 0, 61, 80
3, 244640, Note_on_c, 0, 61, 0
3, 244640, Note_on_c, 0, 68, 80
3, 244719, Note_on_c, 0, 68, 0
3, 244719, Note_on_c, 0, 61, 80
3, 244800, Note_on_c, 0, 61, 0
3, 244800, Note_on_c, 0, 71, 80
3, 244880, Note_on_c, 0, 71, 0
3, 244880, Note_on_c, 0, 73, 80
3, 244959, Note_on_c, 0, 73, 0
3, 244959, Note_on_c, 0, 71, 80
3, 245040, Note_on_c, 0, 71, 0
3, 245040, Note_on_c, 0, 69, 80
3, 245120, Note_on_c, 0, 69, 0
3, 245120, Note_on_c, 0, 73, 80
3, 245199, Note_on_c, 0, 73, 0
3, 245199, Note_on_c, 0, 69, 80
3, 245280, Note_on_c, 0, 69, 0
3, 245280, Note_on_c, 0, 68, 80
3, 245360, Note_on_c, 0, 68, 0
3, 245360, Note_on_c, 0, 73, 80
3, 245439, Note_on_c, 0, 73, 0
3, 245439, Note_on_c, 0, 68, 80
3, 245520, Note_on_c, 0, 68, 0
3, 245520, Note_on_c, 0, 66, 80
3, 245600, Note_on_c, 0, 66, 0
3, 245600, Note_on_c, 0, 73, 80
3, 245679, Note_on_c, 0, 73, 0
3, 245679, Note_on_c, 0, 66, 80
3, 245760, Note_on_c, 0, 66, 0
3, 245760, Note_on_c, 0, 76, 80
3, 245840, Note_on_c, 0, 76, 0
3, 245840, Note_on_c, 0, 80, 80
3, 245919, Note_on_c, 0, 80, 0
3, 245919, Note_on_c, 0, 76, 80
3, 246000, Note_on_c, 0, 76, 0
3, 246000, Note_on_c, 0, 75, 80
3, 246080, Note_on_c, 0, 75, 0
3, 246080, Note_on_c, 0, 80, 80
3, 246159, Note_on_c, 0, 80, 0
3, 246159, Note_on_c, 0, 75, 80
3, 246240, Note_on_c, 0, 75, 0
3, 246240, Note_on_c, 0, 73, 80
3, 246320, Note_on_c, 0, 73, 0
3, 246320, Note_on_c, 0, 80, 80
3, 246399, Note_on_c, 0, 80, 0
3, 246399, Note_on_c, 0, 73, 80
3, 246480, Note_on_c, 0, 73, 0
3, 246480, Note_on_c, 0, 72, 80
3, 246560, Note_on_c, 0, 72, 0
3, 246560, Note_on_c, 0, 80, 80
3, 246639, Note_on_c, 0, 80, 0
3, 246639, Note_on_c, 0, 72, 80
3, 246720, Note_on_c, 0, 72, 0
3, 246720, Note_on_c, 0, 81, 80
3, 246800, Note_on_c, 0, 81, 0
3, 246800, Note_on_c, 0, 85, 80
3, 246879, Note_on_c, 0, 85, 0
3, 246879, Note_on_c, 0, 81, 80
3, 246960, Note_on_c, 0, 81, 0
3, 246960, Note_on_c, 0, 80, 80
3, 247040, Note_on_c, 0, 80, 0
3, 247040, Note_on_c, 0, 85, 80
3, 247119, Note_on_c, 0, 85, 0
3, 247119, Note_on_c, 0, 80, 80
3, 247200, Note_on_c, 0, 80, 0
3, 247200, Note_on_c, 0, 78, 80
3, 247280, Note_on_c, 0, 78, 0
3, 247280, Note_on_c, 0, 85, 80
3, 247359, Note_on_c, 0, 85, 0
3, 247359, Note_on_c, 0, 78, 80
3, 247440, Note_on_c, 0, 78, 0
3, 247440, Note_on_c, 0, 76, 80
3, 247520, Note_on_c, 0, 76, 0
3, 247520, Note_on_c, 0, 85, 80
3, 247599, Note_on_c, 0, 85, 0
3, 247599, Note_on_c, 0, 76, 80
3, 247680, Note_on_c, 0, 76, 0
3, 247680, Note_on_c, 0, 75, 80
3, 247760, Note_on_c, 0, 75, 0
3, 247760, Note_on_c, 0, 76, 80
3, 247839, Note_on_c, 0, 76, 0
3, 247839, Note_on_c, 0, 75, 80
3, 247920, Note_on_c, 0, 75, 0
3, 247920, Note_on_c, 0, 73, 80
3, 248000, Note_on_c, 0, 73, 0
3, 248000, Note_on_c, 0, 76, 80
3, 248079, Note_on_c, 0, 76, 0
3, 248079, Note_on_c, 0, 73, 80
3, 248160, Note_on_c, 0, 73, 0
3, 248160, Note_on_c, 0, 71, 80
3, 248240, Note_on_c, 0, 71, 0
3, 248240, Note_on_c, 0, 76, 80
3, 248319, Note_on_c, 0, 76, 0
3, 248319, Note_on_c, 0, 71, 80
3, 248400, Note_on_c, 0, 71, 0
3, 248400, Note_on_c, 0, 69, 80
3, 248480, Note_on_c, 0, 69, 0
3, 248480, Note_on_c, 0, 73, 80
3, 248559, Note_on_c, 0, 73, 0
3, 248559, Note_on_c, 0, 69, 80
3, 248640, Note_on_c, 0, 69, 0
3, 248640, Note_on_c, 0, 68, 80
3, 248720, Note_on_c, 0, 68, 0
3, 248720, Note_on_c, 0, 71, 80
3, 248799, Note_on_c, 0, 71, 0
3, 248799, Note_on_c, 0, 68, 80
3, 248880, Note_on_c, 0, 68, 0
3, 248880, Note_on_c, 0, 66, 80
3, 248960, Note_on_c, 0, 66, 0
3, 248960, Note_on_c, 0, 69, 80
3, 249039, Note_on_c, 0, 69, 0
3, 249039, Note_on_c, 0, 66, 80
3, 249120, Note_on_c, 0, 66, 0
3, 249120, Note_on_c, 0, 64, 80
3, 249200, Note_on_c, 0, 64, 0
3, 249200, Note_on_c, 0, 68, 80
3, 249279, Note_on_c, 0, 68, 0
3, 249279, Note_on_c, 0, 64, 80
3, 249360, Note_on_c, 0, 64, 0
3, 249360, Note_on_c, 0, 63, 80
3, 249440, Note_on_c, 0, 63, 0
3, 249440, Note_on_c, 0, 66, 80
3, 249519, Note_on_c, 0, 66, 0
3, 249519, Note_on_c, 0, 63, 80
3, 249600, Note_on_c, 0, 63, 0
3, 249600, Note_on_c, 0, 61, 80
3, 249680, Note_on_c, 0, 61, 0
3, 249680, Note_on_c, 0, 64, 80
3, 249759, Note_on_c, 0, 64, 0
3, 249759, Note_on_c, 0, 61, 80
3, 249840, Note_on_c, 0, 61, 0
3, 249840, Note_on_c, 0, 59, 80
3, 249920, Note_on_c, 0, 59, 0
3, 249920, Note_on_c, 0, 63, 80
3, 249999, Note_on_c, 0, 63, 0
3, 249999, Note_on_c, 0, 59, 80
3, 250080, Note_on_c, 0, 59, 0
3, 250080, Note_on_c, 0, 57, 80
3, 250160, Note_on_c, 0, 57, 0
3, 250160, Note_on_c, 0, 61, 80
3, 250239, Note_on_c, 0, 61, 0
3, 250239, Note_on_c, 0, 57, 80
3, 250320, Note_on_c, 0, 57, 0
3, 250320, Note_on_c, 0, 56, 80
3, 250400, Note_on_c, 0, 56, 0
3, 250400, Note_on_c, 0, 60, 80
3, 250479, Note_on_c, 0, 60, 0
3, 250479, Note_on_c, 0, 56, 80
3, 250560, Note_on_c, 0, 56, 0
3, 250560, Note_on_c, 0, 61, 93
3, 250560, Note_on_c, 0, 64, 93
3, 252480, Note_on_c, 0, 64, 0
3, 252480, Note_on_c, 0, 61, 0
3, 254400, Note_on_c, 0, 61, 93
3, 254400, Note_on_c, 0, 64, 93
3, 256320, Note_on_c, 0, 64, 0
3, 256320, Note_on_c, 0, 61, 0
3, 280320, Note_on_c, 0, 69, 67
3, 280800, Note_on_c, 0, 69, 0
3, 280800, Note_on_c, 0, 73, 93
3, 281040, Note_on_c, 0, 73, 0
3, 281040, Note_on_c, 0, 74, 93
3, 281280, Note_on_c, 0, 74, 0
3, 281280, Note_on_c, 0, 76, 93
3, 281760, Note_on_c, 0, 76, 0
3, 281760, Note_on_c, 0, 69, 67
3, 282000, Note_on_c, 0, 69, 0
3, 283200, Note_on_c, 0, 69, 67
3, 283680, Note_on_c, 0, 69, 0
3, 283680, Note_on_c, 0, 74, 93
3, 283920, Note_on_c, 0, 74, 0
3, 283920, Note_on_c, 0, 76, 93
3, 284160, Note_on_c, 0, 76, 0
3, 284160, Note_on_c, 0, 78, 67
3, 284400, Note_on_c, 0, 78, 0
3, 284400, Note_on_c, 0, 79, 67
3, 284640, Note_on_c, 0, 79, 0
3, 284640, Note_on_c, 0, 78, 67
3, 285120, Note_on_c, 0, 78, 0
3, 285120, Note_on_c, 0, 76, 93
3, 285360, Note_on_c, 0, 76, 0
3, 285360, Note_on_c, 0, 74, 93
3, 285600, Note_on_c, 0, 74, 0
3, 285600, Note_on_c, 0, 74, 67
3, 286400, Note_on_c, 0, 74, 0
3, 286400, Note_on_c, 0, 76, 67
3, 286479, Note_on_c, 0, 76, 0
3, 286479, Note_on_c, 0, 74, 67
3, 286560, Note_on_c, 0, 74, 0
3, 286560, Note_on_c, 0, 73, 67
3, 286680, Note_on_c, 0, 73, 0
3, 286680, Note_on_c, 0, 74, 67
3, 286800, Note_on_c, 0, 74, 0
3, 286800, Note_on_c, 0, 76, 80
3, 286920, Note_on_c, 0, 76, 0
3, 286920, Note_on_c, 0, 74, 80
3, 287040, Note_on_c, 0, 74, 0
3, 287040, Note_on_c, 0, 74, 80
3, 287760, Note_on_c, 0, 74, 0
3, 287760, Note_on_c, 0, 73, 80
3, 288480, Note_on_c, 0, 73, 0
3, 288720, Note_on_c, 0, 69, 80
3, 288960, Note_on_c, 0, 69, 0
3, 288960, Note_on_c, 0, 71, 80
3, 289380, Note_on_c, 0, 71, 0
3, 289380, Note_on_c, 0, 73, 106
3, 289560, Note_on_c, 0, 73, 0
3, 289560, Note_on_c, 0, 74, 106
3, 289740, Note_on_c, 0, 74, 0
3, 289740, Note_on_c, 0, 76, 106
3, 289920, Note_on_c, 0, 76, 0
3, 289920, Note_on_c, 0, 78, 80
3, 290160, Note_on_c, 0, 78, 0
3, 290160, Note_on_c, 0, 79, 80
3, 290400, Note_on_c, 0, 79, 0
3, 290400, Note_on_c, 0, 81, 80
3, 290640, Note_on_c, 0, 81, 0
3, 291360, Note_on_c, 0, 67, 67
3, 291540, Note_on_c, 0, 67, 0
3, 291540, Note_on_c, 0, 66, 67
3, 291720, Note_on_c, 0, 66, 0
3, 291720, Note_on_c, 0, 67, 67
3, 291900, Note_on_c, 0, 67, 0
3, 291900, Note_on_c, 0, 64, 67
3, 292080, Note_on_c, 0, 64, 0
3, 292080, Note_on_c, 0, 64, 67
3, 292980, Note_on_c, 0, 64, 0
3, 292980, Note_on_c, 0, 66, 67
3, 293160, Note_on_c, 0, 66, 0
3, 293160, Note_on_c, 0, 67, 67
3, 293340, Note_on_c, 0, 67, 0
3, 293340, Note_on_c, 0, 68, 67
3, 293520, Note_on_c, 0, 68, 0
3, 293520, Note_on_c, 0, 69, 67
3, 294420, Note_on_c, 0, 69, 0
3, 294420, Note_on_c, 0, 70, 67
3, 294600, Note_on_c, 0, 70, 0
3, 294600, Note_on_c, 0, 71, 67
3, 294780, Note_on_c, 0, 71, 0
3, 294780, Note_on_c, 0, 73, 67
3, 294960, Note_on_c, 0, 73, 0
3, 294960, Note_on_c, 0, 74, 67
3, 295680, Note_on_c, 0, 74, 0
3, 297120, Note_on_c, 0, 59, 80
3, 297120, Note_on_c, 0, 66, 80
3, 297600, Note_on_c, 0, 66, 0
3, 297600, Note_on_c, 0, 59, 0
3, 297840, Note_on_c, 0, 59, 106
3, 297840, Note_on_c, 0, 65, 106
3, 298080, Note_on_c, 0, 65, 0
3, 298080, Note_on_c, 0, 59, 0
3, 298080, Note_on_c, 0, 61, 106
3, 298320, Note_on_c, 0, 61, 0
3, 298320, Note_on_c, 0, 62, 106
3, 298560, Note_on_c, 0, 62, 0
3, 298560, Note_on_c, 0, 66, 67
3, 299280, Note_on_c, 0, 66, 0
3, 299280, Note_on_c, 0, 65, 67
3, 300000, Note_on_c, 0, 65, 0
3, 300000, Note_on_c, 0, 66, 80
3, 300720, Note_on_c, 0, 66, 0
3, 300720, Note_on_c, 0, 62, 80
3, 300960, Note_on_c, 0, 62, 0
3, 300960, Note_on_c, 0, 60, 80
3, 301200, Note_on_c, 0, 60, 0
3, 301200, Note_on_c, 0, 61, 80
3, 301440, Note_on_c, 0, 61, 0
3, 301440, Note_on_c, 0, 61, 80
3, 302160, Note_on_c, 0, 61, 0
3, 302160, Note_on_c, 0, 57, 67
3, 302160, Note_on_c, 0, 60, 67
3, 302880, Note_on_c, 0, 60, 0
3, 302880, Note_on_c, 0, 57, 0
3, 302880, Control_c, 0, 64, 127
3, 302880, Note_on_c, 0, 59, 67
3, 303060, Note_on_c, 0, 59, 0
3, 303060, Note_on_c, 0, 61, 67
3, 303240, Note_on_c, 0, 61, 0
3, 303240, Note_on_c, 0, 63, 67
3, 303420, Note_on_c, 0, 63, 0
3, 303420, Note_on_c, 0, 64, 67
3, 303600, Note_on_c, 0, 64, 0
3, 303600, Note_on_c, 0, 66, 67
3, 303780, Note_on_c, 0, 66, 0
3, 303780, Note_on_c, 0, 67, 67
3, 303960, Note_on_c, 0, 67, 0
3, 303960, Note_on_c, 0, 68, 67
3, 304140, Note_on_c, 0, 68, 0
3, 304140, Note_on_c, 0, 69, 67
3, 304320, Note_on_c, 0, 69, 0
3, 304320, Control_c, 0, 64, 0
3, 304320, Note_on_c, 0, 69, 67
3, 304500, Note_on_c, 0, 69, 0
3, 304500, Note_on_c, 0, 67, 67
3, 304680, Note_on_c, 0, 67, 0
3, 304680, Note_on_c, 0, 66, 67
3, 304860, Note_on_c, 0, 66, 0
3, 304860, Note_on_c, 0, 69, 67
3, 305040, Note_on_c, 0, 69, 0
3, 305040, Note_on_c, 0, 59, 67
3, 305760, Note_on_c, 0, 59, 0
3, 305760, Control_c, 0, 64, 127
3, 305760, Note_on_c, 0, 57, 67
3, 305940, Note_on_c, 0, 57, 0
3, 305940, Note_on_c, 0, 59, 67
3, 306120, Note_on_c, 0, 59, 0
3, 306120, Note_on_c, 0, 61, 67
3, 306300, Note_on_c, 0, 61, 0
3, 306300, Note_on_c, 0, 62, 67
3, 306480, Note_on_c, 0, 62, 0
3, 306480, Note_on_c, 0, 64, 67
3, 306660, Note_on_c, 0, 64, 0
3, 306660, Note_on_c, 0, 65, 67
3, 306840, Note_on_c, 0, 65, 0
3, 306840, Note_on_c, 0, 66, 67
3, 307020, Note_on_c, 0, 66, 0
3, 307020, Note_on_c, 0, 67, 67
3, 307200, Note_on_c, 0, 67, 0
3, 307200, Control_c, 0, 64, 0
3, 307200, Note_on_c, 0, 67, 67
3, 307380, Note_on_c, 0, 67, 0
3, 307380, Note_on_c, 0, 66, 67
3, 307560, Note_on_c, 0, 66, 0
3, 307560, Note_on_c, 0, 65, 67
3, 307740, Note_on_c, 0, 65, 0
3, 307740, Note_on_c, 0, 67, 67
3, 307920, Note_on_c, 0, 67, 0
3, 307920, Note_on_c, 0, 57, 67
3, 308640, Note_on_c, 0, 57, 0
3, 308820, Note_on_c, 0, 56, 80
3, 309000, Note_on_c, 0, 56, 0
3, 309000, Note_on_c, 0, 57, 80
3, 309180, Note_on_c, 0, 57, 0
3, 309180, Note_on_c, 0, 56, 80
3, 309360, Note_on_c, 0, 56, 0
3, 309540, Note_on_c, 0, 57, 80
3, 309720, Note_on_c, 0, 57, 0
3, 309720, Note_on_c, 0, 59, 80
3, 309900, Note_on_c, 0, 59, 0
3, 309900, Note_on_c, 0, 57, 80
3, 310080, Note_on_c, 0, 57, 0
3, 310260, Note_on_c, 0, 59, 93
3, 310440, Note_on_c, 0, 59, 0
3, 310440, Note_on_c, 0, 61, 93
3, 310620, Note_on_c, 0, 61, 0
3, 310620, Note_on_c, 0, 59, 93
3, 310800, Note_on_c, 0, 59, 0
3, 310980, Note_on_c, 0, 61, 93
3, 311160, Note_on_c, 0, 61, 0
3, 311160, Note_on_c, 0, 62, 93
3, 311340, Note_on_c, 0, 62, 0
3, 311340, Note_on_c, 0, 61, 93
3, 311520, Note_on_c, 0, 61, 0
3, 311700, Note_on_c, 0, 62, 93
3, 311880, Note_on_c, 0, 62, 0
3, 311880, Note_on_c, 0, 64, 93
3, 312060, Note_on_c, 0, 64, 0
3, 312060, Note_on_c, 0, 62, 93
3, 312480, Note_on_c, 0, 62, 0
3, 314400, Control_c, 0, 64, 127
3, 314400, Note_on_c, 0, 59, 67
3, 314580, Note_on_c, 0, 59, 0
3, 314580, Note_on_c, 0, 61, 67
3, 314760, Note_on_c, 0, 61, 0
3, 314760, Note_on_c, 0, 62, 67
3, 314940, Note_on_c, 0, 62, 0
3, 314940, Note_on_c, 0, 64, 67
3, 315120, Note_on_c, 0, 64, 0
3, 315120, Note_on_c, 0, 66, 67
3, 315300, Note_on_c, 0, 66, 0
3, 315300, Note_on_c, 0, 67, 67
3, 315480, Note_on_c, 0, 67, 0
3, 315480, Note_on_c, 0, 68, 67
3, 315660, Note_on_c, 0, 68, 0
3, 315660, Note_on_c, 0, 69, 67
3, 315840, Note_on_c, 0, 69, 0
3, 315840, Control_c, 0, 64, 0
3, 315840, Note_on_c, 0, 69, 67
3, 316020, Note_on_c, 0, 69, 0
3, 316020, Note_on_c, 0, 67, 67
3, 316200, Note_on_c, 0, 67, 0
3, 316200, Note_on_c, 0, 66, 67
3, 316380, Note_on_c, 0, 66, 0
3, 316380, Note_on_c, 0, 69, 67
3, 316560, Note_on_c, 0, 69, 0
3, 316560, Note_on_c, 0, 59, 67
3, 317280, Note_on_c, 0, 59, 0
3, 317280, Control_c, 0, 64, 127
3, 317280, Note_on_c, 0, 57, 67
3, 317460, Note_on_c, 0, 57, 0
3, 317460, Note_on_c, 0, 59, 67
3, 317640, Note_on_c, 0, 59, 0
3, 317640, Note_on_c, 0, 60, 67
3, 317820, Note_on_c, 0, 60, 0
3, 317820, Note_on_c, 0, 62, 67
3, 318000, Note_on_c, 0, 62, 0
3, 318000, Note_on_c, 0, 64, 67
3, 318180, Note_on_c, 0, 64, 0
3, 318180, Note_on_c, 0, 65, 67
3, 318360, Note_on_c, 0, 65, 0
3, 318360, Note_on_c, 0, 66, 67
3, 318540, Note_on_c, 0, 66, 0
3, 318540, Note_on_c, 0, 67, 67
3, 318720, Note_on_c, 0, 67, 0
3, 318720, Control_c, 0, 64, 0
3, 318720, Note_on_c, 0, 67, 67
3, 318900, Note_on_c, 0, 67, 0
3, 318900, Note_on_c, 0, 66, 67
3, 319080, Note_on_c, 0, 66, 0
3, 319080, Note_on_c, 0, 65, 67
3, 319260, Note_on_c, 0, 65, 0
3, 319260, Note_on_c, 0, 67, 67
3, 319440, Note_on_c, 0, 67, 0
3, 319440, Note_on_c, 0, 57, 67
3, 320160, Note_on_c, 0, 57, 0
3, 320340, Note_on_c, 0, 56, 80
3, 320520, Note_on_c, 0, 56, 0
3, 320520, Note_on_c, 0, 57, 80
3, 320700, Note_on_c, 0, 57, 0
3, 320700, Note_on_c, 0, 56, 80
3, 320880, Note_on_c, 0, 56, 0
3, 321060, Note_on_c, 0, 57, 80
3, 321240, Note_on_c, 0, 57, 0
3, 321240, Note_on_c, 0, 59, 80
3, 321420, Note_on_c, 0, 59, 0
3, 321420, Note_on_c, 0, 57, 80
3, 321600, Note_on_c, 0, 57, 0
3, 321780, Note_on_c, 0, 59, 93
3, 321960, Note_on_c, 0, 59, 0
3, 321960, Note_on_c, 0, 61, 93
3, 322140, Note_on_c, 0, 61, 0
3, 322140, Note_on_c, 0, 59, 93
3, 322320, Note_on_c, 0, 59, 0
3, 322500, Note_on_c, 0, 61, 93
3, 322680, Note_on_c, 0, 61, 0
3, 322680, Note_on_c, 0, 62, 93
3, 322860, Note_on_c, 0, 62, 0
3, 322860, Note_on_c, 0, 61, 93
3, 323040, Note_on_c, 0, 61, 0
3, 323220, Note_on_c, 0, 62, 93
3, 323400, Note_on_c, 0, 62, 0
3, 323400, Note_on_c, 0, 64, 93
3, 323580, Note_on_c, 0, 64, 0
3, 323580, Note_on_c, 0, 62, 93
3, 323760, Note_on_c, 0, 62, 0
3, 323940, Note_on_c, 0, 62, 93
3, 324120, Note_on_c, 0, 62, 0
3, 324120, Note_on_c, 0, 64, 93
3, 324300, Note_on_c, 0, 64, 0
3, 324300, Note_on_c, 0, 62, 93
3, 324480, Note_on_c, 0, 62, 0
3, 324660, Note_on_c, 0, 62, 80
3, 324840, Note_on_c, 0, 62, 0
3, 324840, Note_on_c, 0, 59, 80
3, 325020, Note_on_c, 0, 59, 0
3, 325020, Note_on_c, 0, 61, 80
3, 325200, Note_on_c, 0, 61, 0
3, 325920, Note_on_c, 0, 67, 67
3, 326040, Note_on_c, 0, 67, 0
3, 326040, Note_on_c, 0, 69, 67
3, 326160, Note_on_c, 0, 69, 0
3, 326160, Note_on_c, 0, 71, 67
3, 326280, Note_on_c, 0, 71, 0
3, 326280, Note_on_c, 0, 69, 67
3, 326520, Note_on_c, 0, 69, 0
3, 326520, Note_on_c, 0, 69, 67
3, 326640, Note_on_c, 0, 69, 0
3, 326640, Note_on_c, 0, 71, 67
3, 326760, Note_on_c, 0, 71, 0
3, 326760, Note_on_c, 0, 69, 67
3, 327000, Note_on_c, 0, 69, 0
3, 327000, Note_on_c, 0, 69, 67
3, 327120, Note_on_c, 0, 69, 0
3, 327120, Note_on_c, 0, 71, 67
3, 327240, Note_on_c, 0, 71, 0
3, 327240, Note_on_c, 0, 69, 67
3, 327360, Note_on_c, 0, 69, 0
3, 327840, Note_on_c, 0, 69, 80
3, 327960, Note_on_c, 0, 69, 0
3, 327960, Note_on_c, 0, 69, 80
3, 328080, Note_on_c, 0, 69, 0
3, 328080, Note_on_c, 0, 71, 80
3, 328200, Note_on_c, 0, 71, 0
3, 328200, Note_on_c, 0, 69, 80
3, 328440, Note_on_c, 0, 69, 0
3, 328440, Note_on_c, 0, 69, 67
3, 328560, Note_on_c, 0, 69, 0
3, 328560, Note_on_c, 0, 71, 67
3, 328680, Note_on_c, 0, 71, 0
3, 328680, Note_on_c, 0, 69, 67
3, 328920, Note_on_c, 0, 69, 0
3, 328920, Note_on_c, 0, 69, 67
3, 329040, Note_on_c, 0, 69, 0
3, 329040, Note_on_c, 0, 71, 67
3, 329160, Note_on_c, 0, 71, 0
3, 329160, Note_on_c, 0, 69, 67
3, 329280, Note_on_c, 0, 69, 0
3, 329760, Note_on_c, 0, 74, 80
3, 329880, Note_on_c, 0, 74, 0
3, 329880, Note_on_c, 0, 74, 80
3, 330000, Note_on_c, 0, 74, 0
3, 330000, Note_on_c, 0, 76, 80
3, 330120, Note_on_c, 0, 76, 0
3, 330120, Note_on_c, 0, 74, 80
3, 330399, Note_on_c, 0, 74, 0
3, 330399, Note_on_c, 0, 76, 80
3, 330560, Note_on_c, 0, 76, 0
3, 330560, Note_on_c, 0, 74, 80
3, 330720, Note_on_c, 0, 74, 0
3, 330720, Note_on_c, 0, 73, 80
3, 330840, Note_on_c, 0, 73, 0
3, 330840, Note_on_c, 0, 73, 80
3, 330960, Note_on_c, 0, 73, 0
3, 330960, Note_on_c, 0, 74, 80
3, 331080, Note_on_c, 0, 74, 0
3, 331080, Note_on_c, 0, 73, 80
3, 331359, Note_on_c, 0, 73, 0
3, 331359, Note_on_c, 0, 74, 80
3, 331520, Note_on_c, 0, 74, 0
3, 331520, Note_on_c, 0, 73, 80
3, 331680, Note_on_c, 0, 73, 0
3, 331680, Note_on_c, 0, 74, 93
3, 331800, Note_on_c, 0, 74, 0
3, 331800, Note_on_c, 0, 74, 93
3, 331920, Note_on_c, 0, 74, 0
3, 331920, Note_on_c, 0, 76, 93
3, 332040, Note_on_c, 0, 76, 0
3, 332040, Note_on_c, 0, 74, 93
3, 332280, Note_on_c, 0, 74, 0
3, 332280, Note_on_c, 0, 74, 93
3, 332400, Note_on_c, 0, 74, 0
3, 332400, Note_on_c, 0, 76, 93
3, 332520, Note_on_c, 0, 76, 0
3, 332520, Note_on_c, 0, 74, 93
3, 332640, Note_on_c, 0, 74, 0
3, 333600, Note_on_c, 0, 67, 67
3, 333720, Note_on_c, 0, 67, 0
3, 333720, Note_on_c, 0, 69, 67
3, 333840, Note_on_c, 0, 69, 0
3, 333840, Note_on_c, 0, 71, 67
3, 333960, Note_on_c, 0, 71, 0
3, 333960, Note_on_c, 0, 69, 67
3, 334200, Note_on_c, 0, 69, 0
3, 334200, Note_on_c, 0, 69, 67
3, 334320, Note_on_c, 0, 69, 0
3, 334320, Note_on_c, 0, 71, 67
3, 334440, Note_on_c, 0, 71, 0
3, 334440, Note_on_c, 0, 69, 67
3, 334680, Note_on_c, 0, 69, 0
3, 334680, Note_on_c, 0, 69, 67
3, 334800, Note_on_c, 0, 69, 0
3, 334800, Note_on_c, 0, 71, 67
3, 334920, Note_on_c, 0, 71, 0
3, 334920, Note_on_c, 0, 69, 67
3, 335040, Note_on_c, 0, 69, 0
3, 335520, Note_on_c, 0, 69, 80
3, 335640, Note_on_c, 0, 69, 0
3, 335640, Note_on_c, 0, 69, 80
3, 335760, Note_on_c, 0, 69, 0
3, 335760, Note_on_c, 0, 71, 80
3, 335880, Note_on_c, 0, 71, 0
3, 335880, Note_on_c, 0, 69, 80
3, 336120, Note_on_c, 0, 69, 0
3, 336120, Note_on_c, 0, 69, 67
3, 336240, Note_on_c, 0, 69, 0
3, 336240, Note_on_c, 0, 71, 67
3, 336360, Note_on_c, 0, 71, 0
3, 336360, Note_on_c, 0, 69, 67
3, 336600, Note_on_c, 0, 69, 0
3, 336600, Note_on_c, 0, 69, 67
3, 336720, Note_on_c, 0, 69, 0
3, 336720, Note_on_c, 0, 71, 67
3, 336840, Note_on_c, 0, 71, 0
3, 336840, Note_on_c, 0, 69, 67
3, 336960, Note_on_c, 0, 69, 0
3, 337440, Note_on_c, 0, 74, 80
3, 337560, Note_on_c, 0, 74, 0
3, 337560, Note_on_c, 0, 74, 80
3, 337680, Note_on_c, 0, 74, 0
3, 337680, Note_on_c, 0, 76, 80
3, 337800, Note_on_c, 0, 76, 0
3, 337800, Note_on_c, 0, 74, 80
3, 337920, Note_on_c, 0, 74, 0
3, 338079, Note_on_c, 0, 74, 80
3, 338240, Note_on_c, 0, 74, 0
3, 338240, Note_on_c, 0, 73, 80
3, 338400, Note_on_c, 0, 73, 0
3, 338400, Note_on_c, 0, 74, 80
3, 338520, Note_on_c, 0, 74, 0
3, 338520, Note_on_c, 0, 74, 80
3, 338640, Note_on_c, 0, 74, 0
3, 338640, Note_on_c, 0, 76, 80
3, 338760, Note_on_c, 0, 76, 0
3, 338760, Note_on_c, 0, 74, 80
3, 338880, Note_on_c, 0, 74, 0
3, 339360, Note_on_c, 0, 74, 80
3, 339480, Note_on_c, 0, 74, 0
3, 339480, Note_on_c, 0, 74, 80
3, 339600, Note_on_c, 0, 74, 0
3, 339600, Note_on_c, 0, 76, 80
3, 339720, Note_on_c, 0, 76, 0
3, 339720, Note_on_c, 0, 74, 80
3, 339840, Note_on_c, 0, 74, 0
3, 339999, Note_on_c, 0, 74, 80
3, 340160, Note_on_c, 0, 74, 0
3, 340160, Note_on_c, 0, 73, 80
3, 340320, Note_on_c, 0, 73, 0
3, 340320, Note_on_c, 0, 74, 80
3, 340440, Note_on_c, 0, 74, 0
3, 340440, Note_on_c, 0, 74, 80
3, 340560, Note_on_c, 0, 74, 0
3, 340560, Note_on_c, 0, 76, 80
3, 340680, Note_on_c, 0, 76, 0
3, 340680, Note_on_c, 0, 74, 80
3, 340800, Note_on_c, 0, 74, 0
3, 341280, Note_on_c, 0, 80, 80
3, 341400, Note_on_c, 0, 80, 0
3, 341400, Note_on_c, 0, 80, 80
3, 341520, Note_on_c, 0, 80, 0
3, 341520, Note_on_c, 0, 81, 80
3, 341640, Note_on_c, 0, 81, 0
3, 341640, Note_on_c, 0, 80, 80
3, 341760, Note_on_c, 0, 80, 0
3, 341760, Note_on_c, 0, 78, 80
3, 341919, Note_on_c, 0, 78, 0
3, 341919, Note_on_c, 0, 80, 80
3, 342080, Note_on_c, 0, 80, 0
3, 342080, Note_on_c, 0, 78, 80
3, 342240, Note_on_c, 0, 78, 0
3, 342240, Note_on_c, 0, 77, 80
3, 342360, Note_on_c, 0, 77, 0
3, 342360, Note_on_c, 0, 77, 80
3, 342480, Note_on_c, 0, 77, 0
3, 342480, Note_on_c, 0, 78, 80
3, 342600, Note_on_c, 0, 78, 0
3, 342600, Note_on_c, 0, 77, 80
3, 342720, Note_on_c, 0, 77, 0
3, 343200, Note_on_c, 0, 80, 80
3, 343320, Note_on_c, 0, 80, 0
3, 343320, Note_on_c, 0, 80, 80
3, 343440, Note_on_c, 0, 80, 0
3, 343440, Note_on_c, 0, 81, 80
3, 343560, Note_on_c, 0, 81, 0
3, 343560, Note_on_c, 0, 80, 80
3, 343680, Note_on_c, 0, 80, 0
3, 343680, Note_on_c, 0, 78, 80
3, 343839, Note_on_c, 0, 78, 0
3, 343839, Note_on_c, 0, 80, 80
3, 344000, Note_on_c, 0, 80, 0
3, 344000, Note_on_c, 0, 78, 80
3, 344160, Note_on_c, 0, 78, 0
3, 344160, Note_on_c, 0, 77, 80
3, 344280, Note_on_c, 0, 77, 0
3, 344280, Note_on_c, 0, 77, 80
3, 344400, Note_on_c, 0, 77, 0
3, 344400, Note_on_c, 0, 78, 80
3, 344520, Note_on_c, 0, 78, 0
3, 344520, Note_on_c, 0, 77, 80
3, 344640, Note_on_c, 0, 77, 0
3, 352560, Note_on_c, 0, 63, 106
3, 352800, Note_on_c, 0, 63, 0
3, 352800, Note_on_c, 0, 64, 106
3, 353040, Note_on_c, 0, 64, 0
3, 353040, Note_on_c, 0, 67, 106
3, 353280, Note_on_c, 0, 67, 0
3, 353280, Note_on_c, 0, 68, 106
3, 353520, Note_on_c, 0, 68, 0
3, 353520, Note_on_c, 0, 69, 106
3, 353760, Note_on_c, 0, 69, 0
3, 353760, Note_on_c, 0, 70, 106
3, 354000, Note_on_c, 0, 70, 0
3, 354000, Note_on_c, 0, 71, 106
3, 354240, Note_on_c, 0, 71, 0
3, 354240, Note_on_c, 0, 73, 106
3, 354480, Note_on_c, 0, 73, 0
3, 354480, Note_on_c, 0, 74, 106
3, 354720, Note_on_c, 0, 74, 0
3, 354720, Note_on_c, 0, 75, 106
3, 354960, Note_on_c, 0, 75, 0
3, 354960, Note_on_c, 0, 76, 106
3, 355200, Note_on_c, 0, 76, 0
3, 362400, Note_on_c, 0, 79, 106
3, 362640, Note_on_c, 0, 79, 0
3, 362640, Note_on_c, 0, 78, 106
3, 362880, Note_on_c, 0, 78, 0
3, 378720, Note_on_c, 0, 73, 93
3, 378720, Note_on_c, 0, 79, 93
3, 379200, Note_on_c, 0, 79, 0
3, 379200, Note_on_c, 0, 73, 0
3, 379200, Note_on_c, 0, 74, 93
3, 379200, Note_on_c, 0, 79, 93
3, 379440, Note_on_c, 0, 79, 0
3, 379440, Note_on_c, 0, 74, 0
3, 379440, Note_on_c, 0, 76, 93
3, 379440, Note_on_c, 0, 79, 93
3, 379680, Note_on_c, 0, 79, 0
3, 379680, Note_on_c, 0, 76, 0
3, 380640, Note_on_c, 0, 70, 93
3, 380640, Note_on_c, 0, 76, 93
3, 381120, Note_on_c, 0, 76, 0
3, 381120, Note_on_c, 0, 70, 0
3, 381120, Note_on_c, 0, 71, 80
3, 381120, Note_on_c, 0, 76, 80
3, 381360, Note_on_c, 0, 76, 0
3, 381360, Note_on_c, 0, 71, 0
3, 381360, Note_on_c, 0, 73, 80
3, 381360, Note_on_c, 0, 76, 80
3, 381600, Note_on_c, 0, 76, 0
3, 381600, Note_on_c, 0, 73, 0
3, 382560, Note_on_c, 0, 64, 80
3, 382560, Note_on_c, 0, 67, 80
3, 383040, Note_on_c, 0, 67, 0
3, 383040, Note_on_c, 0, 64, 0
3, 383040, Note_on_c, 0, 65, 80
3, 383040, Note_on_c, 0, 68, 80
3, 383520, Note_on_c, 0, 68, 0
3, 383520, Note_on_c, 0, 65, 0
3, 383520, Note_on_c, 0, 66, 67
3, 383520, Note_on_c, 0, 69, 67
3, 384240, Note_on_c, 0, 69, 0
3, 384240, Note_on_c, 0, 66, 0
3, 384240, Note_on_c, 0, 62, 54
3, 384960, Note_on_c, 0, 62, 0
3, 384960, Note_on_c, 0, 68, 67
3, 385680, Note_on_c, 0, 68, 0
3, 385680, Note_on_c, 0, 67, 54
3, 385680, Note_on_c, 0, 69, 54
3, 386400, Note_on_c, 0, 69, 0
3, 386400, Note_on_c, 0, 67, 0
3, 386400, Note_on_c, 0, 66, 67
3, 386400, Note_on_c, 0, 69, 67
3, 387120, Note_on_c, 0, 69, 0
3, 387120, Note_on_c, 0, 66, 0
3, 387120, Note_on_c, 0, 62, 54
3, 387840, Note_on_c, 0, 62, 0
3, 387840, Note_on_c, 0, 68, 67
3, 388560, Note_on_c, 0, 68, 0
3, 388560, Note_on_c, 0, 67, 54
3, 388560, Note_on_c, 0, 69, 54
3, 389280, Note_on_c, 0, 69, 0
3, 389280, Note_on_c, 0, 67, 0
3, 389280, Note_on_c, 0, 65, 93
3, 389280, Note_on_c, 0, 71, 93
3, 389760, Note_on_c, 0, 71, 0
3, 389760, Note_on_c, 0, 65, 0
3, 390000, Note_on_c, 0, 50, 93
3, 390000, Note_on_c, 0, 53, 93
3, 390240, Note_on_c, 0, 53, 0
3, 390240, Note_on_c, 0, 50, 0
3, 390240, Note_on_c, 0, 50, 93
3, 390240, Note_on_c, 0, 53, 93
3, 391200, Note_on_c, 0, 53, 0
3, 391200, Note_on_c, 0, 50, 0
3, 391200, Note_on_c, 0, 50, 93
3, 391200, Note_on_c, 0, 53, 93
3, 391680, Note_on_c, 0, 53, 0
3, 391680, Note_on_c, 0, 50, 0
3, 391680, Note_on_c, 0, 62, 93
3, 391680, Note_on_c, 0, 65, 93
3, 393120, Note_on_c, 0, 65, 0
3, 393120, Note_on_c, 0, 62, 0
3, 393120, Note_on_c, 0, 53, 93
3, 393120, Note_on_c, 0, 59, 93
3, 394080, Note_on_c, 0, 59, 0
3, 394080, Note_on_c, 0, 53, 0
3, 394080, Note_on_c, 0, 53, 93
3, 394080, Note_on_c, 0, 59, 93
3, 395040, Note_on_c, 0, 59, 0
3, 395040, Note_on_c, 0, 53, 0
3, 395040, Note_on_c, 0, 53, 93
3, 395040, Note_on_c, 0, 59, 93
3, 395520, Note_on_c, 0, 59, 0
3, 395520, Note_on_c, 0, 53, 0
3, 395520, Note_on_c, 0, 65, 93
3, 395520, Note_on_c, 0, 71, 93
3, 396480, Note_on_c, 0, 71, 0
3, 396480, Note_on_c, 0, 65, 0
3, 396480, Note_on_c, 0, 65, 93
3, 396480, Note_on_c, 0, 71, 93
3, 396720, Note_on_c, 0, 71, 0
3, 396720, Note_on_c, 0, 65, 0
3, 396960, Note_on_c, 0, 53, 93
3, 396960, Note_on_c, 0, 59, 93
3, 397440, Note_on_c, 0, 59, 0
3, 397440, Note_on_c, 0, 53, 0
3, 397440, Note_on_c, 0, 50, 93
3, 397440, Note_on_c, 0, 53, 93
3, 397920, Note_on_c, 0, 53, 0
3, 397920, Note_on_c, 0, 50, 0
3, 397920, Note_on_c, 0, 53, 93
3, 397920, Note_on_c, 0, 59, 93
3, 398880, Note_on_c, 0, 59, 0
3, 398880, Note_on_c, 0, 53, 0
3, 398880, Note_on_c, 0, 53, 93
3, 398880, Note_on_c, 0, 59, 93
3, 399360, Note_on_c, 0, 59, 0
3, 399360, Note_on_c, 0, 53, 0
3, 399360, Note_on_c, 0, 50, 93
3, 399360, Note_on_c, 0, 53, 93
3, 399840, Note_on_c, 0, 53, 0
3, 399840, Note_on_c, 0, 50, 0
3, 404640, Note_on_c, 0, 64, 80
3, 405600, Note_on_c, 0, 64, 0
3, 406560, Note_on_c, 0, 62, 54
3, 407520, Note_on_c, 0, 62, 0
3, 410400, Note_on_c, 0, 58, 54
3, 410400, Note_on_c, 0, 62, 54
3, 410400, Note_on_c, 0, 64, 54
3, 410880, Note_on_c, 0, 64, 0
3, 410880, Note_on_c, 0, 62, 0
3, 410880, Note_on_c, 0, 58, 0
3, 410880, Note_on_c, 0, 58, 54
3, 410880, Note_on_c, 0, 62, 54
3, 410880, Note_on_c, 0, 64, 54
3, 411360, Note_on_c, 0, 64, 0
3, 411360, Note_on_c, 0, 62, 0
3, 411360, Note_on_c, 0, 58, 0
3, 412320, Control_c, 0, 64, 127
3, 412320, Note_on_c, 0, 62, 54
3, 412320, Note_on_c, 0, 66, 54
3, 412560, Note_on_c, 0, 66, 0
3, 412560, Note_on_c, 0, 62, 0
3, 412560, Note_on_c, 0, 62, 54
3, 412560, Note_on_c, 0, 66, 54
3, 412800, Note_on_c, 0, 66, 0
3, 412800, Note_on_c, 0, 62, 0
3, 412800, Note_on_c, 0, 62, 54
3, 412800, Note_on_c, 0, 66, 54
3, 413040, Note_on_c, 0, 66, 0
3, 413040, Note_on_c, 0, 62, 0
3, 413040, Note_on_c, 0, 62, 54
3, 413040, Note_on_c, 0, 66, 54
3, 413280, Note_on_c, 0, 66, 0
3, 413280, Note_on_c, 0, 62, 0
3, 413280, Note_on_c, 0, 62, 54
3, 413280, Note_on_c, 0, 66, 54
3, 413520, Note_on_c, 0, 66, 0
3, 413520, Note_on_c, 0, 62, 0
3, 413520, Note_on_c, 0, 62, 54
3, 413520, Note_on_c, 0, 66, 54
3, 413760, Note_on_c, 0, 66, 0
3, 413760, Note_on_c, 0, 62, 0
3, 413760, Note_on_c, 0, 62, 54
3, 413760, Note_on_c, 0, 66, 54
3, 414000, Note_on_c, 0, 66, 0
3, 414000, Note_on_c, 0, 62, 0
3, 414000, Note_on_c, 0, 62, 54
3, 414000, Note_on_c, 0, 66, 54
3, 414240, Note_on_c, 0, 66, 0
3, 414240, Note_on_c, 0, 62, 0
3, 414240, Note_on_c, 0, 62, 54
3, 414240, Note_on_c, 0, 66, 54
3, 414480, Note_on_c, 0, 66, 0
3, 414480, Note_on_c, 0, 62, 0
3, 414480, Note_on_c, 0, 62, 54
3, 414480, Note_on_c, 0, 66, 54
3, 414720, Note_on_c, 0, 66, 0
3, 414720, Note_on_c, 0, 62, 0
3, 414720, Note_on_c, 0, 62, 54
3, 414720, Note_on_c, 0, 66, 54
3, 414960, Note_on_c, 0, 66, 0
3, 414960, Note_on_c, 0, 62, 0
3, 414960, Control_c, 0, 64, 0
3, 414960, Note_on_c, 0, 62, 54
3, 414960, Note_on_c, 0, 66, 54
3, 415200, Note_on_c, 0, 66, 0
3, 415200, Note_on_c, 0, 62, 0
3, 415200, Note_on_c, 0, 66, 54
3, 415920, Note_on_c, 0, 66, 0
3, 415920, Note_on_c, 0, 62, 54
3, 416400, Note_on_c, 0, 62, 0
3, 416400, Note_on_c, 0, 62, 54
3, 416640, Note_on_c, 0, 62, 0
3, 416640, Control_c, 0, 64, 127
3, 416640, Note_on_c, 0, 61, 54
3, 416640, Note_on_c, 0, 67, 54
3, 416880, Note_on_c, 0, 67, 0
3, 416880, Note_on_c, 0, 61, 0
3, 416880, Note_on_c, 0, 61, 54
3, 416880, Note_on_c, 0, 67, 54
3, 417120, Note_on_c, 0, 67, 0
3, 417120, Note_on_c, 0, 61, 0
3, 417120, Note_on_c, 0, 61, 54
3, 417120, Note_on_c, 0, 67, 54
3, 417360, Note_on_c, 0, 67, 0
3, 417360, Note_on_c, 0, 61, 0
3, 417360, Note_on_c, 0, 64, 54
3, 417360, Note_on_c, 0, 67, 54
3, 417600, Note_on_c, 0, 67, 0
3, 417600, Note_on_c, 0, 64, 0
3, 417600, Note_on_c, 0, 64, 54
3, 417600, Note_on_c, 0, 67, 54
3, 417840, Note_on_c, 0, 67, 0
3, 417840, Note_on_c, 0, 64, 0
3, 417840, Control_c, 0, 64, 0
3, 417840, Note_on_c, 0, 64, 54
3, 417840, Note_on_c, 0, 67, 54
3, 418080, Note_on_c, 0, 67, 0
3, 418080, Note_on_c, 0, 64, 0
3, 418080, Note_on_c, 0, 66, 54
3, 418800, Note_on_c, 0, 66, 0
3, 418800, Note_on_c, 0, 62, 54
3, 419280, Note_on_c, 0, 62, 0
3, 419280, Note_on_c, 0, 62, 54
3, 419520, Note_on_c, 0, 62, 0
3, 419520, Control_c, 0, 64, 127
3, 419520, Note_on_c, 0, 61, 54
3, 419520, Note_on_c, 0, 67, 54
3, 419760, Note_on_c, 0, 67, 0
3, 419760, Note_on_c, 0, 61, 0
3, 419760, Note_on_c, 0, 61, 54
3, 419760, Note_on_c, 0, 67, 54
3, 420000, Note_on_c, 0, 67, 0
3, 420000, Note_on_c, 0, 61, 0
3, 420000, Note_on_c, 0, 61, 54
3, 420000, Note_on_c, 0, 67, 54
3, 420240, Note_on_c, 0, 67, 0
3, 420240, Note_on_c, 0, 61, 0
3, 420240, Note_on_c, 0, 64, 54
3, 420240, Note_on_c, 0, 67, 54
3, 420480, Note_on_c, 0, 67, 0
3, 420480, Note_on_c, 0, 64, 0
3, 420480, Note_on_c, 0, 64, 54
3, 420480, Note_on_c, 0, 67, 54
3, 420720, Note_on_c, 0, 67, 0
3, 420720, Note_on_c, 0, 64, 0
3, 420720, Control_c, 0, 64, 0
3, 420720, Note_on_c, 0, 64, 54
3, 420720, Note_on_c, 0, 67, 54
3, 420960, Note_on_c, 0, 67, 0
3, 420960, Note_on_c, 0, 64, 0
3, 420960, Note_on_c, 0, 62, 54
3, 420960, Note_on_c, 0, 66, 54
3, 421680, Note_on_c, 0, 66, 0
3, 421680, Note_on_c, 0, 62, 0
3, 421680, Note_on_c, 0, 66, 67
3, 421680, Note_on_c, 0, 69, 67
3, 422400, Note_on_c, 0, 69, 0
3, 422400, Note_on_c, 0, 66, 0
3, 422400, Note_on_c, 0, 70, 80
3, 422400, Note_on_c, 0, 73, 80
3, 423120, Note_on_c, 0, 73, 0
3, 423120, Note_on_c, 0, 70, 0
3, 423120, Note_on_c, 0, 70, 80
3, 423120, Note_on_c, 0, 73, 80
3, 423840, Note_on_c, 0, 73, 0
3, 423840, Note_on_c, 0, 70, 0
3, 423840, Control_c, 0, 64, 127
3, 423840, Note_on_c, 0, 69, 80
3, 423840, Note_on_c, 0, 74, 80
3, 424080, Note_on_c, 0, 74, 0
3, 424080, Note_on_c, 0, 69, 0
3, 424080, Note_on_c, 0, 69, 67
3, 424080, Note_on_c, 0, 74, 67
3, 424320, Note_on_c, 0, 74, 0
3, 424320, Note_on_c, 0, 69, 0
3, 424320, Note_on_c, 0, 69, 67
3, 424320, Note_on_c, 0, 74, 67
3, 424560, Note_on_c, 0, 74, 0
3, 424560, Note_on_c, 0, 69, 0
3, 424560, Note_on_c, 0, 69, 54
3, 424560, Note_on_c, 0, 74, 54
3, 424800, Note_on_c, 0, 74, 0
3, 424800, Note_on_c, 0, 69, 0
3, 424800, Note_on_c, 0, 69, 54
3, 424800, Note_on_c, 0, 74, 54
3, 425040, Note_on_c, 0, 74, 0
3, 425040, Note_on_c, 0, 69, 0
3, 425040, Control_c, 0, 64, 0
3, 425040, Note_on_c, 0, 69, 54
3, 425040, Note_on_c, 0, 74, 54
3, 425280, Note_on_c, 0, 74, 0
3, 425280, Note_on_c, 0, 69, 0
3, 425280, Control_c, 0, 64, 127
3, 425280, Note_on_c, 0, 61, 54
3, 425280, Note_on_c, 0, 67, 54
3, 425280, Note_on_c, 0, 70, 54
3, 425520, Note_on_c, 0, 70, 0
3, 425520, Note_on_c, 0, 67, 0
3, 425520, Note_on_c, 0, 61, 0
3, 425520, Note_on_c, 0, 61, 54
3, 425520, Note_on_c, 0, 67, 54
3, 425520, Note_on_c, 0, 70, 54
3, 425760, Note_on_c, 0, 70, 0
3, 425760, Note_on_c, 0, 67, 0
3, 425760, Note_on_c, 0, 61, 0
3, 425760, Note_on_c, 0, 61, 54
3, 425760, Note_on_c, 0, 67, 54
3, 425760, Note_on_c, 0, 70, 54
3, 426000, Note_on_c, 0, 70, 0
3, 426000, Note_on_c, 0, 67, 0
3, 426000, Note_on_c, 0, 61, 0
3, 426000, Note_on_c, 0, 61, 54
3, 426000, Note_on_c, 0, 67, 54
3, 426000, Note_on_c, 0, 70, 54
3, 426240, Note_on_c, 0, 70, 0
3, 426240, Note_on_c, 0, 67, 0
3, 426240, Note_on_c, 0, 61, 0
3, 426240, Note_on_c, 0, 61, 54
3, 426240, Note_on_c, 0, 67, 54
3, 426240, Note_on_c, 0, 70, 54
3, 426480, Note_on_c, 0, 70, 0
3, 426480, Note_on_c, 0, 67, 0
3, 426480, Note_on_c, 0, 61, 0
3, 426480, Control_c, 0, 64, 0
3, 426480, Note_on_c, 0, 61, 54
3, 426480, Note_on_c, 0, 67, 54
3, 426480, Note_on_c, 0, 70, 54
3, 426720, Note_on_c, 0, 70, 0
3, 426720, Note_on_c, 0, 67, 0
3, 426720, Note_on_c, 0, 61, 0
3, 426720, Note_on_c, 0, 66, 54
3, 427440, Note_on_c, 0, 66, 0
3, 427440, Note_on_c, 0, 66, 67
3, 427440, Note_on_c, 0, 69, 67
3, 428160, Note_on_c, 0, 69, 0
3, 428160, Note_on_c, 0, 66, 0
3, 428160, Note_on_c, 0, 70, 80
3, 428160, Note_on_c, 0, 73, 80
3, 428880, Note_on_c, 0, 73, 0
3, 428880, Note_on_c, 0, 70, 0
3, 428880, Note_on_c, 0, 70, 80
3, 428880, Note_on_c, 0, 73, 80
3, 429600, Note_on_c, 0, 73, 0
3, 429600, Note_on_c, 0, 70, 0
3, 429600, Control_c, 0, 64, 127
3, 429600, Note_on_c, 0, 69, 80
3, 429600, Note_on_c, 0, 74, 80
3, 429840, Note_on_c, 0, 74, 0
3, 429840, Note_on_c, 0, 69, 0
3, 429840, Note_on_c, 0, 69, 67
3, 429840, Note_on_c, 0, 74, 67
3, 430080, Note_on_c, 0, 74, 0
3, 430080, Note_on_c, 0, 69, 0
3, 430080, Note_on_c, 0, 69, 67
3, 430080, Note_on_c, 0, 74, 67
3, 430320, Note_on_c, 0, 74, 0
3, 430320, Note_on_c, 0, 69, 0
3, 430320, Note_on_c, 0, 69, 54
3, 430320, Note_on_c, 0, 74, 54
3, 430560, Note_on_c, 0, 74, 0
3, 430560, Note_on_c, 0, 69, 0
3, 430560, Note_on_c, 0, 69, 54
3, 430560, Note_on_c, 0, 74, 54
3, 430800, Note_on_c, 0, 74, 0
3, 430800, Note_on_c, 0, 69, 0
3, 430800, Control_c, 0, 64, 0
3, 430800, Note_on_c, 0, 69, 54
3, 430800, Note_on_c, 0, 74, 54
3, 431040, Note_on_c, 0, 74, 0
3, 431040, Note_on_c, 0, 69, 0
3, 431040, Control_c, 0, 64, 127
3, 431040, Note_on_c, 0, 61, 54
3, 431040, Note_on_c, 0, 67, 54
3, 431040, Note_on_c, 0, 70, 54
3, 431280, Note_on_c, 0, 70, 0
3, 431280, Note_on_c, 0, 67, 0
3, 431280, Note_on_c, 0, 61, 0
3, 431280, Note_on_c, 0, 61, 54
3, 431280, Note_on_c, 0, 67, 54
3, 431280, Note_on_c, 0, 70, 54
3, 431520, Note_on_c, 0, 70, 0
3, 431520, Note_on_c, 0, 67, 0
3, 431520, Note_on_c, 0, 61, 0
3, 431520, Note_on_c, 0, 61, 54
3, 431520, Note_on_c, 0, 67, 54
3, 431520, Note_on_c, 0, 70, 54
3, 431760, Note_on_c, 0, 70, 0
3, 431760, Note_on_c, 0, 67, 0
3, 431760, Note_on_c, 0, 61, 0
3, 431760, Note_on_c, 0, 61, 54
3, 431760, Note_on_c, 0, 67, 54
3, 431760, Note_on_c, 0, 70, 54
3, 432000, Note_on_c, 0, 70, 0
3, 432000, Note_on_c, 0, 67, 0
3, 432000, Note_on_c, 0, 61, 0
3, 432000, Note_on_c, 0, 61, 54
3, 432000, Note_on_c, 0, 67, 54
3, 432000, Note_on_c, 0, 70, 54
3, 432240, Note_on_c, 0, 70, 0
3, 432240, Note_on_c, 0, 67, 0
3, 432240, Note_on_c, 0, 61, 0
3, 432240, Control_c, 0, 64, 0
3, 432240, Note_on_c, 0, 61, 54
3, 432240, Note_on_c, 0, 67, 54
3, 432240, Note_on_c, 0, 70, 54
3, 432480, Note_on_c, 0, 70, 0
3, 432480, Note_on_c, 0, 67, 0
3, 432480, Note_on_c, 0, 61, 0
3, 433920, Note_on_c, 0, 61, 54
3, 434640, Note_on_c, 0, 61, 0
3, 434640, Note_on_c, 0, 64, 54
3, 435360, Note_on_c, 0, 64, 0
3, 436800, Note_on_c, 0, 61, 54
3, 437520, Note_on_c, 0, 61, 0
3, 437520, Note_on_c, 0, 64, 54
3, 438240, Note_on_c, 0, 64, 0
3, 438240, Note_on_c, 0, 62, 54
3, 438240, Note_on_c, 0, 66, 54
3, 438960, Note_on_c, 0, 66, 0
3, 438960, Note_on_c, 0, 62, 0
3, 438960, Note_on_c, 0, 62, 54
3, 439200, Note_on_c, 0, 62, 0
3, 439680, Note_on_c, 0, 57, 54
3, 440400, Note_on_c, 0, 57, 0
3, 440400, Note_on_c, 0, 57, 54
3, 440640, Note_on_c, 0, 57, 0
3, 441120, Note_on_c, 0, 54, 54
3, 441120, Note_on_c, 0, 57, 54
3, 441840, Note_on_c, 0, 57, 0
3, 441840, Note_on_c, 0, 54, 0
3, 442560, Note_on_c, 0, 50, 54
3, 442560, Note_on_c, 0, 54, 54
3, 443280, Note_on_c, 0, 54, 0
3, 443280, Note_on_c, 0, 50, 0
3, 444000, Note_on_c, 0, 50, 54
3, 444000, Note_on_c, 0, 54, 54
3, 444720, Note_on_c, 0, 54, 0
3, 444720, Note_on_c, 0, 50, 0
3, 445440, Note_on_c, 0, 50, 54
3, 446160, Note_on_c, 0, 50, 0
3, 448800, Note_on_c, 0, 57, 67
3, 448800, Note_on_c, 0, 69, 67
3, 453360, Note_on_c, 0, 69, 0
3, 453360, Note_on_c, 0, 57, 0
3, 453360, End_track
4, 0, Start_track
4, 0, Title_t, "Grand Piano"
4, 0, Program_c, 0, 0
4, 0, Control_c, 0, 7, 115
4, 0, Control_c, 0, 10, 41
4, 0, Note_on_c, 0, 35, 54
4, 0, Note_on_c, 0, 42, 54
4, 1440, Note_on_c, 0, 42, 0
4, 1440, Note_on_c, 0, 35, 0
4, 1440, Note_on_c, 0, 31, 54
4, 1440, Note_on_c, 0, 40, 54
4, 2880, Note_on_c, 0, 40, 0
4, 2880, Note_on_c, 0, 31, 0
4, 2880, Note_on_c, 0, 38, 54
4, 4320, Note_on_c, 0, 38, 0
4, 4320, Note_on_c, 0, 37, 67
4, 4320, Note_on_c, 0, 40, 67
4, 5760, Note_on_c, 0, 40, 0
4, 5760, Note_on_c, 0, 37, 0
4, 5760, Note_on_c, 0, 38, 67
4, 5760, Note_on_c, 0, 42, 67
4, 7200, Note_on_c, 0, 42, 0
4, 7200, Note_on_c, 0, 38, 0
4, 7200, Note_on_c, 0, 40, 54
4, 7200, Note_on_c, 0, 43, 54
4, 8640, Note_on_c, 0, 43, 0
4, 8640, Note_on_c, 0, 40, 0
4, 8640, Note_on_c, 0, 35, 54
4, 8640, Note_on_c, 0, 42, 54
4, 10080, Note_on_c, 0, 42, 0
4, 10080, Note_on_c, 0, 35, 0
4, 10080, Note_on_c, 0, 40, 54
4, 10080, Note_on_c, 0, 43, 54
4, 11520, Note_on_c, 0, 43, 0
4, 11520, Note_on_c, 0, 40, 0
4, 11520, Note_on_c, 0, 47, 54
4, 12960, Note_on_c, 0, 47, 0
4, 12960, Note_on_c, 0, 43, 54
4, 12960, Note_on_c, 0, 47, 54
4, 14400, Note_on_c, 0, 47, 0
4, 14400, Note_on_c, 0, 43, 0
4, 14400, Note_on_c, 0, 38, 54
4, 14400, Note_on_c, 0, 45, 54
4, 15840, Note_on_c, 0, 45, 0
4, 15840, Note_on_c, 0, 38, 0
4, 15840, Note_on_c, 0, 31, 67
4, 15840, Note_on_c, 0, 43, 67
4, 17280, Note_on_c, 0, 43, 0
4, 17280, Note_on_c, 0, 31, 0
4, 17280, Note_on_c, 0, 33, 67
4, 17280, Note_on_c, 0, 45, 67
4, 18720, Note_on_c, 0, 45, 0
4, 18720, Note_on_c, 0, 33, 0
4, 18720, Note_on_c, 0, 35, 54
4, 18720, Note_on_c, 0, 47, 54
4, 20160, Note_on_c, 0, 47, 0
4, 20160, Note_on_c, 0, 35, 0
4, 20160, Note_on_c, 0, 37, 54
4, 20160, Note_on_c, 0, 45, 54
4, 21600, Note_on_c, 0, 45, 0
4, 21600, Note_on_c, 0, 37, 0
4, 21600, Note_on_c, 0, 38, 54
4, 21600, Note_on_c, 0, 45, 54
4, 21600, Note_on_c, 0, 54, 54
4, 23040, Note_on_c, 0, 54, 0
4, 23040, Note_on_c, 0, 45, 0
4, 23040, Note_on_c, 0, 38, 0
4, 23040, Note_on_c, 0, 40, 54
4, 23040, Note_on_c, 0, 45, 54
4, 23040, Note_on_c, 0, 55, 54
4, 24480, Note_on_c, 0, 55, 0
4, 24480, Note_on_c, 0, 45, 0
4, 24480, Note_on_c, 0, 40, 0
4, 24480, Note_on_c, 0, 43, 54
4, 24480, Note_on_c, 0, 45, 54
4, 24480, Note_on_c, 0, 52, 54
4, 25920, Note_on_c, 0, 52, 0
4, 25920, Note_on_c, 0, 45, 0
4, 25920, Note_on_c, 0, 43, 0
4, 25920, Note_on_c, 0, 42, 54
4, 25920, Note_on_c, 0, 45, 54
4, 25920, Note_on_c, 0, 54, 54
4, 27360, Note_on_c, 0, 54, 0
4, 27360, Note_on_c, 0, 45, 0
4, 27360, Note_on_c, 0, 42, 0
4, 27360, Note_on_c, 0, 38, 54
4, 27360, Note_on_c, 0, 45, 54
4, 27360, Note_on_c, 0, 50, 54
4, 28800, Note_on_c, 0, 50, 0
4, 28800, Note_on_c, 0, 45, 0
4, 28800, Note_on_c, 0, 38, 0
4, 28800, Note_on_c, 0, 35, 54
4, 28800, Note_on_c, 0, 40, 54
4, 28800, Note_on_c, 0, 47, 54
4, 30240, Note_on_c, 0, 47, 0
4, 30240, Note_on_c, 0, 40, 0
4, 30240, Note_on_c, 0, 35, 0
4, 30240, Note_on_c, 0, 33, 54
4, 30240, Note_on_c, 0, 40, 54
4, 30240, Note_on_c, 0, 45, 54
4, 31680, Note_on_c, 0, 45, 0
4, 31680, Note_on_c, 0, 40, 0
4, 31680, Note_on_c, 0, 33, 0
4, 31680, Note_on_c, 0, 38, 67
4, 31680, Note_on_c, 0, 45, 67
4, 31680, Note_on_c, 0, 50, 67
4, 33120, Note_on_c, 0, 50, 0
4, 33120, Note_on_c, 0, 45, 0
4, 33120, Note_on_c, 0, 38, 0
4, 33120, Note_on_c, 0, 42, 54
4, 33120, Note_on_c, 0, 45, 54
4, 33120, Note_on_c, 0, 50, 54
4, 34560, Note_on_c, 0, 50, 0
4, 34560, Note_on_c, 0, 45, 0
4, 34560, Note_on_c, 0, 42, 0
4, 34560, Note_on_c, 0, 40, 54
4, 34560, Note_on_c, 0, 45, 54
4, 34560, Note_on_c, 0, 55, 54
4, 36000, Note_on_c, 0, 55, 0
4, 36000, Note_on_c, 0, 45, 0
4, 36000, Note_on_c, 0, 40, 0
4, 36000, Note_on_c, 0, 43, 54
4, 36000, Note_on_c, 0, 45, 54
4, 36000, Note_on_c, 0, 52, 54
4, 37440, Note_on_c, 0, 52, 0
4, 37440, Note_on_c, 0, 45, 0
4, 37440, Note_on_c, 0, 43, 0
4, 37440, Note_on_c, 0, 42, 54
4, 37440, Note_on_c, 0, 45, 54
4, 37440, Note_on_c, 0, 54, 54
4, 38880, Note_on_c, 0, 54, 0
4, 38880, Note_on_c, 0, 45, 0
4, 38880, Note_on_c, 0, 42, 0
4, 38880, Note_on_c, 0, 38, 54
4, 38880, Note_on_c, 0, 45, 54
4, 38880, Note_on_c, 0, 50, 54
4, 40320, Note_on_c, 0, 50, 0
4, 40320, Note_on_c, 0, 45, 0
4, 40320, Note_on_c, 0, 38, 0
4, 40320, Note_on_c, 0, 35, 54
4, 40320, Note_on_c, 0, 47, 54
4, 41760, Note_on_c, 0, 47, 0
4, 41760, Note_on_c, 0, 35, 0
4, 41760, Note_on_c, 0, 38, 67
4, 41760, Note_on_c, 0, 50, 67
4, 42480, Note_on_c, 0, 50, 0
4, 42480, Note_on_c, 0, 38, 0
4, 42480, Note_on_c, 0, 37, 67
4, 42480, Note_on_c, 0, 49, 67
4, 43200, Note_on_c, 0, 49, 0
4, 43200, Note_on_c, 0, 37, 0
4, 43200, Note_on_c, 0, 54, 67
4, 43440, Note_on_c, 0, 54, 0
4, 43440, Note_on_c, 0, 56, 67
4, 43680, Note_on_c, 0, 56, 0
4, 43680, Note_on_c, 0, 57, 93
4, 43920, Note_on_c, 0, 57, 0
4, 43920, Note_on_c, 0, 57, 54
4, 44160, Note_on_c, 0, 57, 0
4, 44160, Note_on_c, 0, 59, 54
4, 44400, Note_on_c, 0, 59, 0
4, 44400, Note_on_c, 0, 61, 80
4, 44640, Note_on_c, 0, 61, 0
4, 44640, Note_on_c, 0, 40, 54
4, 44640, Note_on_c, 0, 45, 54
4, 44640, Note_on_c, 0, 52, 54
4, 46000, Note_on_c, 0, 39, 54
4, 46040, Note_on_c, 0, 47, 54
4, 46080, Note_on_c, 0, 52, 0
4, 46080, Note_on_c, 0, 40, 0
4, 46080, Note_on_c, 0, 45, 0
4, 46080, Note_on_c, 0, 54, 67
4, 46800, Note_on_c, 0, 54, 0
4, 46800, Note_on_c, 0, 39, 0
4, 46800, Note_on_c, 0, 47, 0
4, 46800, Note_on_c, 0, 54, 93
4, 47040, Note_on_c, 0, 54, 0
4, 47040, Note_on_c, 0, 55, 93
4, 47280, Note_on_c, 0, 55, 0
4, 47280, Note_on_c, 0, 57, 93
4, 47440, Note_on_c, 0, 40, 67
4, 47480, Note_on_c, 0, 47, 67
4, 47520, Note_on_c, 0, 57, 0
4, 47520, Note_on_c, 0, 57, 67
4, 48240, Note_on_c, 0, 57, 0
4, 48240, Note_on_c, 0, 47, 0
4, 48240, Note_on_c, 0, 40, 0
4, 48240, Note_on_c, 0, 55, 54
4, 48880, Note_on_c, 0, 37, 54
4, 48920, Note_on_c, 0, 45, 54
4, 48960, Note_on_c, 0, 55, 0
4, 48960, Note_on_c, 0, 52, 67
4, 49680, Note_on_c, 0, 52, 0
4, 49680, Note_on_c, 0, 45, 0
4, 49680, Note_on_c, 0, 37, 0
4, 49680, Note_on_c, 0, 52, 67
4, 49920, Note_on_c, 0, 52, 0
4, 49920, Note_on_c, 0, 54, 67
4, 50160, Note_on_c, 0, 54, 0
4, 50160, Note_on_c, 0, 55, 67
4, 50320, Note_on_c, 0, 38, 67
4, 50360, Note_on_c, 0, 45, 67
4, 50400, Note_on_c, 0, 55, 0
4, 50400, Note_on_c, 0, 55, 67
4, 51120, Note_on_c, 0, 55, 0
4, 51120, Note_on_c, 0, 45, 0
4, 51120, Note_on_c, 0, 38, 0
4, 51120, Note_on_c, 0, 54, 54
4, 51840, Note_on_c, 0, 54, 0
4, 51840, Note_on_c, 0, 35, 54
4, 51840, Note_on_c, 0, 47, 54
4, 52560, Note_on_c, 0, 47, 0
4, 52560, Note_on_c, 0, 35, 0
4, 52560, Note_on_c, 0, 33, 54
4, 52560, Note_on_c, 0, 45, 54
4, 53280, Note_on_c, 0, 45, 0
4, 53280, Note_on_c, 0, 33, 0
4, 53280, Note_on_c, 0, 32, 67
4, 53280, Note_on_c, 0, 44, 67
4, 54000, Note_on_c, 0, 44, 0
4, 54000, Note_on_c, 0, 32, 0
4, 54000, Note_on_c, 0, 31, 67
4, 54000, Note_on_c, 0, 43, 67
4, 54720, Note_on_c, 0, 43, 0
4, 54720, Note_on_c, 0, 31, 0
4, 54720, Note_on_c, 0, 30, 67
4, 54720, Note_on_c, 0, 42, 67
4, 55440, Note_on_c, 0, 42, 0
4, 55440, Note_on_c, 0, 30, 0
4, 55440, Note_on_c, 0, 42, 54
4, 55440, Note_on_c, 0, 45, 54
4, 55440, Note_on_c, 0, 54, 54
4, 56880, Note_on_c, 0, 54, 0
4, 56880, Note_on_c, 0, 45, 0
4, 56880, Note_on_c, 0, 42, 0
4, 56880, Note_on_c, 0, 40, 54
4, 56880, Note_on_c, 0, 45, 54
4, 56880, Note_on_c, 0, 52, 54
4, 57600, Note_on_c, 0, 52, 0
4, 57600, Note_on_c, 0, 45, 0
4, 57600, Note_on_c, 0, 40, 0
4, 57600, Note_on_c, 0, 39, 67
4, 57600, Note_on_c, 0, 47, 67
4, 57600, Note_on_c, 0, 54, 67
4, 58320, Note_on_c, 0, 54, 0
4, 58320, Note_on_c, 0, 47, 0
4, 58320, Note_on_c, 0, 39, 0
4, 58320, Note_on_c, 0, 54, 93
4, 58560, Note_on_c, 0, 54, 0
4, 58560, Note_on_c, 0, 55, 93
4, 58800, Note_on_c, 0, 55, 0
4, 58800, Note_on_c, 0, 57, 93
4, 58960, Note_on_c, 0, 40, 67
4, 59000, Note_on_c, 0, 47, 67
4, 59040, Note_on_c, 0, 57, 0
4, 59040, Note_on_c, 0, 57, 67
4, 59760, Note_on_c, 0, 57, 0
4, 59760, Note_on_c, 0, 47, 0
4, 59760, Note_on_c, 0, 40, 0
4, 59760, Note_on_c, 0, 55, 54
4, 60480, Note_on_c, 0, 55, 0
4, 60480, Note_on_c, 0, 37, 67
4, 60480, Note_on_c, 0, 45, 67
4, 60480, Note_on_c, 0, 52, 67
4, 61200, Note_on_c, 0, 52, 0
4, 61200, Note_on_c, 0, 45, 0
4, 61200, Note_on_c, 0, 37, 0
4, 61200, Note_on_c, 0, 52, 93
4, 61440, Note_on_c, 0, 52, 0
4, 61440, Note_on_c, 0, 54, 93
4, 61680, Note_on_c, 0, 54, 0
4, 61680, Note_on_c, 0, 55, 93
4, 61840, Note_on_c, 0, 38, 67
4, 61880, Note_on_c, 0, 45, 67
4, 61920, Note_on_c, 0, 55, 0
4, 61920, Note_on_c, 0, 55, 67
4, 62640, Note_on_c, 0, 55, 0
4, 62640, Note_on_c, 0, 45, 0
4, 62640, Note_on_c, 0, 38, 0
4, 62640, Note_on_c, 0, 54, 54
4, 63360, Note_on_c, 0, 54, 0
4, 63360, Note_on_c, 0, 35, 54
4, 63360, Note_on_c, 0, 47, 54
4, 64080, Note_on_c, 0, 47, 0
4, 64080, Note_on_c, 0, 35, 0
4, 64080, Note_on_c, 0, 33, 54
4, 64080, Note_on_c, 0, 45, 54
4, 64800, Note_on_c, 0, 45, 0
4, 64800, Note_on_c, 0, 33, 0
4, 64800, Note_on_c, 0, 32, 67
4, 64800, Note_on_c, 0, 44, 67
4, 65520, Note_on_c, 0, 44, 0
4, 65520, Note_on_c, 0, 32, 0
4, 65520, Note_on_c, 0, 31, 67
4, 65520, Note_on_c, 0, 43, 67
4, 66180, Note_on_c, 0, 42, 67
4, 66240, Note_on_c, 0, 43, 0
4, 66240, Note_on_c, 0, 31, 0
4, 66240, Note_on_c, 0, 62, 67
4, 66960, Note_on_c, 0, 62, 0
4, 66960, Note_on_c, 0, 42, 0
4, 66960, Note_on_c, 0, 61, 67
4, 67680, Note_on_c, 0, 61, 0
4, 67680, Note_on_c, 0, 68, 67
4, 68400, Note_on_c, 0, 68, 0
4, 68400, Note_on_c, 0, 63, 67
4, 68880, Note_on_c, 0, 63, 0
4, 68880, Note_on_c, 0, 65, 67
4, 69120, Note_on_c, 0, 65, 0
4, 69120, Note_on_c, 0, 66, 67
4, 70080, Note_on_c, 0, 66, 0
4, 70560, Note_on_c, 0, 68, 67
4, 71280, Note_on_c, 0, 68, 0
4, 71280, Note_on_c, 0, 63, 67
4, 71760, Note_on_c, 0, 63, 0
4, 71760, Note_on_c, 0, 65, 67
4, 72000, Note_on_c, 0, 65, 0
4, 72000, Note_on_c, 0, 66, 67
4, 72960, Note_on_c, 0, 66, 0
4, 74880, Note_on_c, 0, 61, 93
4, 75240, Note_on_c, 0, 61, 0
4, 75240, Note_on_c, 0, 63, 93
4, 75600, Note_on_c, 0, 63, 0
4, 75600, Note_on_c, 0, 65, 93
4, 75960, Note_on_c, 0, 65, 0
4, 75960, Note_on_c, 0, 66, 93
4, 76320, Note_on_c, 0, 66, 0
4, 76320, Note_on_c, 0, 70, 106
4, 76680, Note_on_c, 0, 70, 0
4, 76680, Note_on_c, 0, 68, 106
4, 77040, Note_on_c, 0, 68, 0
4, 77040, Note_on_c, 0, 67, 106
4, 77400, Note_on_c, 0, 67, 0
4, 77400, Note_on_c, 0, 68, 106
4, 77760, Note_on_c, 0, 68, 0
4, 77760, Note_on_c, 0, 54, 67
4, 77760, Note_on_c, 0, 59, 67
4, 77760, Note_on_c, 0, 62, 67
4, 78000, Note_on_c, 0, 62, 0
4, 78000, Note_on_c, 0, 59, 0
4, 78000, Note_on_c, 0, 54, 0
4, 78000, Note_on_c, 0, 54, 54
4, 78000, Note_on_c, 0, 59, 54
4, 78000, Note_on_c, 0, 62, 54
4, 78240, Note_on_c, 0, 62, 0
4, 78240, Note_on_c, 0, 59, 0
4, 78240, Note_on_c, 0, 54, 0
4, 78240, Note_on_c, 0, 54, 54
4, 78240, Note_on_c, 0, 59, 54
4, 78240, Note_on_c, 0, 62, 54
4, 78480, Note_on_c, 0, 62, 0
4, 78480, Note_on_c, 0, 59, 0
4, 78480, Note_on_c, 0, 54, 0
4, 78480, Note_on_c, 0, 54, 54
4, 78480, Note_on_c, 0, 61, 54
4, 78720, Note_on_c, 0, 61, 0
4, 78720, Note_on_c, 0, 54, 0
4, 78720, Note_on_c, 0, 54, 54
4, 78720, Note_on_c, 0, 61, 54
4, 78960, Note_on_c, 0, 61, 0
4, 78960, Note_on_c, 0, 54, 0
4, 78960, Note_on_c, 0, 54, 54
4, 78960, Note_on_c, 0, 61, 54
4, 79200, Note_on_c, 0, 61, 0
4, 79200, Note_on_c, 0, 54, 0
4, 79200, Note_on_c, 0, 66, 80
4, 79920, Note_on_c, 0, 66, 0
4, 79920, Note_on_c, 0, 58, 80
4, 80400, Note_on_c, 0, 58, 0
4, 80400, Note_on_c, 0, 63, 80
4, 80560, Note_on_c, 0, 54, 80
4, 80600, Note_on_c, 0, 59, 80
4, 80640, Note_on_c, 0, 63, 0
4, 80640, Note_on_c, 0, 62, 80
4, 81360, Note_on_c, 0, 62, 0
4, 81360, Note_on_c, 0, 59, 0
4, 81360, Note_on_c, 0, 54, 0
4, 81360, Note_on_c, 0, 61, 67
4, 82080, Note_on_c, 0, 61, 0
4, 82080, Note_on_c, 0, 54, 67
4, 82800, Note_on_c, 0, 54, 0
4, 82800, Note_on_c, 0, 46, 67
4, 83280, Note_on_c, 0, 46, 0
4, 83280, Note_on_c, 0, 51, 67
4, 83440, Note_on_c, 0, 42, 67
4, 83480, Note_on_c, 0, 47, 67
4, 83520, Note_on_c, 0, 51, 0
4, 83520, Note_on_c, 0, 50, 67
4, 84160, Note_on_c, 0, 42, 67
4, 84200, Note_on_c, 0, 46, 67
4, 84240, Note_on_c, 0, 50, 0
4, 84240, Note_on_c, 0, 42, 0
4, 84240, Note_on_c, 0, 47, 0
4, 84240, Note_on_c, 0, 49, 67
4, 84960, Note_on_c, 0, 49, 0
4, 84960, Note_on_c, 0, 42, 0
4, 84960, Note_on_c, 0, 46, 0
4, 84960, Note_on_c, 0, 42, 54
4, 85680, Note_on_c, 0, 42, 0
4, 85680, Note_on_c, 0, 34, 54
4, 86160, Note_on_c, 0, 34, 0
4, 86160, Note_on_c, 0, 38, 54
4, 86400, Note_on_c, 0, 38, 0
4, 86400, Note_on_c, 0, 37, 54
4, 86880, Note_on_c, 0, 37, 0
4, 86880, Note_on_c, 0, 35, 54
4, 87120, Note_on_c, 0, 35, 0
4, 87120, Note_on_c, 0, 34, 54
4, 87600, Note_on_c, 0, 34, 0
4, 87600, Note_on_c, 0, 38, 54
4, 87840, Note_on_c, 0, 38, 0
4, 87840, Note_on_c, 0, 37, 54
4, 88320, Note_on_c, 0, 37, 0
4, 88320, Note_on_c, 0, 42, 67
4, 88560, Note_on_c, 0, 42, 0
4, 88560, Note_on_c, 0, 40, 67
4, 89040, Note_on_c, 0, 40, 0
4, 89040, Note_on_c, 0, 47, 67
4, 89280, Note_on_c, 0, 47, 0
4, 89280, Note_on_c, 0, 46, 67
4, 89760, Note_on_c, 0, 46, 0
4, 89760, Note_on_c, 0, 50, 67
4, 90000, Note_on_c, 0, 50, 0
4, 90000, Note_on_c, 0, 49, 67
4, 90480, Note_on_c, 0, 49, 0
4, 90480, Note_on_c, 0, 55, 67
4, 90720, Note_on_c, 0, 55, 0
4, 90720, Note_on_c, 0, 54, 67
4, 91440, Note_on_c, 0, 54, 0
4, 91440, Note_on_c, 0, 42, 54
4, 92160, Note_on_c, 0, 42, 0
4, 92160, Note_on_c, 0, 40, 67
4, 92160, Note_on_c, 0, 45, 67
4, 92160, Note_on_c, 0, 55, 67
4, 93600, Note_on_c, 0, 55, 0
4, 93600, Note_on_c, 0, 45, 0
4, 93600, Note_on_c, 0, 40, 0
4, 93600, Note_on_c, 0, 52, 67
4, 94320, Note_on_c, 0, 52, 0
4, 94320, Note_on_c, 0, 49, 67
4, 94800, Note_on_c, 0, 49, 0
4, 94800, Note_on_c, 0, 57, 67
4, 95040, Note_on_c, 0, 57, 0
4, 95040, Note_on_c, 0, 57, 67
4, 95520, Note_on_c, 0, 57, 0
4, 95520, Note_on_c, 0, 59, 67
4, 95760, Note_on_c, 0, 59, 0
4, 95760, Note_on_c, 0, 57, 93
4, 96240, Note_on_c, 0, 57, 0
4, 96240, Note_on_c, 0, 59, 67
4, 96480, Note_on_c, 0, 59, 0
4, 96480, Note_on_c, 0, 57, 93
4, 96960, Note_on_c, 0, 57, 0
4, 96960, Note_on_c, 0, 59, 67
4, 97200, Note_on_c, 0, 59, 0
4, 97200, Note_on_c, 0, 57, 93
4, 97680, Note_on_c, 0, 57, 0
4, 97680, Note_on_c, 0, 62, 67
4, 97920, Note_on_c, 0, 62, 0
4, 97920, Note_on_c, 0, 59, 67
4, 98400, Note_on_c, 0, 59, 0
4, 98400, Note_on_c, 0, 59, 67
4, 98640, Note_on_c, 0, 59, 0
4, 98640, Note_on_c, 0, 57, 93
4, 99120, Note_on_c, 0, 57, 0
4, 99120, Note_on_c, 0, 59, 67
4, 99360, Note_on_c, 0, 59, 0
4, 99360, Note_on_c, 0, 57, 93
4, 99840, Note_on_c, 0, 57, 0
4, 99840, Note_on_c, 0, 59, 67
4, 100080, Note_on_c, 0, 59, 0
4, 100080, Note_on_c, 0, 57, 93
4, 100800, Note_on_c, 0, 57, 0
4, 100800, Note_on_c, 0, 57, 80
4, 101040, Note_on_c, 0, 57, 0
4, 101040, Note_on_c, 0, 54, 80
4, 101280, Note_on_c, 0, 54, 0
4, 101280, Note_on_c, 0, 57, 80
4, 101520, Note_on_c, 0, 57, 0
4, 101520, Note_on_c, 0, 62, 80
4, 101760, Note_on_c, 0, 62, 0
4, 101760, Note_on_c, 0, 57, 80
4, 102000, Note_on_c, 0, 57, 0
4, 102000, Note_on_c, 0, 62, 80
4, 102240, Note_on_c, 0, 62, 0
4, 102240, Note_on_c, 0, 50, 80
4, 102720, Note_on_c, 0, 50, 0
4, 102720, Note_on_c, 0, 52, 80
4, 102960, Note_on_c, 0, 52, 0
4, 102960, Note_on_c, 0, 54, 80
4, 103680, Note_on_c, 0, 54, 0
4, 103680, Note_on_c, 0, 40, 67
4, 103680, Note_on_c, 0, 45, 67
4, 103680, Note_on_c, 0, 52, 67
4, 105120, Note_on_c, 0, 52, 0
4, 105120, Note_on_c, 0, 45, 0
4, 105120, Note_on_c, 0, 40, 0
4, 105120, Note_on_c, 0, 43, 67
4, 105120, Note_on_c, 0, 45, 67
4, 105120, Note_on_c, 0, 55, 67
4, 106560, Note_on_c, 0, 55, 0
4, 106560, Note_on_c, 0, 45, 0
4, 106560, Note_on_c, 0, 43, 0
4, 106560, Note_on_c, 0, 42, 67
4, 106560, Note_on_c, 0, 45, 67
4, 106560, Note_on_c, 0, 54, 67
4, 108000, Note_on_c, 0, 54, 0
4, 108000, Note_on_c, 0, 45, 0
4, 108000, Note_on_c, 0, 42, 0
4, 108000, Note_on_c, 0, 38, 67
4, 108000, Note_on_c, 0, 45, 67
4, 108000, Note_on_c, 0, 50, 67
4, 109440, Note_on_c, 0, 50, 0
4, 109440, Note_on_c, 0, 45, 0
4, 109440, Note_on_c, 0, 38, 0
4, 109440, Note_on_c, 0, 38, 80
4, 109440, Note_on_c, 0, 50, 80
4, 110160, Note_on_c, 0, 50, 0
4, 110160, Note_on_c, 0, 38, 0
4, 110160, Note_on_c, 0, 37, 80
4, 110160, Note_on_c, 0, 49, 80
4, 110880, Note_on_c, 0, 49, 0
4, 110880, Note_on_c, 0, 37, 0
4, 110880, Note_on_c, 0, 35, 80
4, 110880, Note_on_c, 0, 47, 80
4, 111600, Note_on_c, 0, 47, 0
4, 111600, Note_on_c, 0, 35, 0
4, 112320, Note_on_c, 0, 38, 80
4, 112320, Note_on_c, 0, 50, 80
4, 113040, Note_on_c, 0, 50, 0
4, 113040, Note_on_c, 0, 38, 0
4, 113040, Note_on_c, 0, 37, 80
4, 113040, Note_on_c, 0, 49, 80
4, 113760, Note_on_c, 0, 49, 0
4, 113760, Note_on_c, 0, 37, 0
4, 113760, Note_on_c, 0, 35, 80
4, 113760, Note_on_c, 0, 47, 80
4, 114480, Note_on_c, 0, 47, 0
4, 114480, Note_on_c, 0, 35, 0
4, 115200, Note_on_c, 0, 44, 93
4, 115200, Note_on_c, 0, 56, 93
4, 115920, Note_on_c, 0, 56, 0
4, 115920, Note_on_c, 0, 44, 0
4, 115920, Note_on_c, 0, 42, 93
4, 115920, Note_on_c, 0, 54, 93
4, 116640, Note_on_c, 0, 54, 0
4, 116640, Note_on_c, 0, 42, 0
4, 116640, Note_on_c, 0, 41, 93
4, 116640, Note_on_c, 0, 53, 93
4, 117360, Note_on_c, 0, 53, 0
4, 117360, Note_on_c, 0, 41, 0
4, 118080, Note_on_c, 0, 44, 93
4, 118080, Note_on_c, 0, 56, 93
4, 118800, Note_on_c, 0, 56, 0
4, 118800, Note_on_c, 0, 44, 0
4, 118800, Note_on_c, 0, 42, 93
4, 118800, Note_on_c, 0, 54, 93
4, 119520, Note_on_c, 0, 54, 0
4, 119520, Note_on_c, 0, 42, 0
4, 119520, Note_on_c, 0, 41, 93
4, 119520, Note_on_c, 0, 53, 93
4, 120240, Note_on_c, 0, 53, 0
4, 120240, Note_on_c, 0, 41, 0
4, 120960, Note_on_c, 0, 40, 93
4, 120960, Note_on_c, 0, 52, 93
4, 122400, Note_on_c, 0, 52, 0
4, 122400, Note_on_c, 0, 40, 0
4, 122400, Note_on_c, 0, 40, 93
4, 122400, Note_on_c, 0, 52, 93
4, 123120, Note_on_c, 0, 52, 0
4, 123120, Note_on_c, 0, 40, 0
4, 123120, Note_on_c, 0, 39, 93
4, 123120, Note_on_c, 0, 51, 93
4, 123840, Note_on_c, 0, 51, 0
4, 123840, Note_on_c, 0, 39, 0
4, 124560, Note_on_c, 0, 39, 54
4, 124560, Note_on_c, 0, 45, 54
4, 124560, Note_on_c, 0, 51, 54
4, 126000, Note_on_c, 0, 51, 0
4, 126000, Note_on_c, 0, 45, 0
4, 126000, Note_on_c, 0, 39, 0
4, 126000, Note_on_c, 0, 39, 54
4, 126000, Note_on_c, 0, 45, 54
4, 126000, Note_on_c, 0, 51, 54
4, 126720, Note_on_c, 0, 51, 0
4, 126720, Note_on_c, 0, 45, 0
4, 126720, Note_on_c, 0, 39, 0
4, 126720, Control_c, 0, 64, 127
4, 126720, Note_on_c, 0, 38, 54
4, 126720, Note_on_c, 0, 45, 54
4, 126720, Note_on_c, 0, 50, 54
4, 126960, Note_on_c, 0, 50, 0
4, 126960, Note_on_c, 0, 45, 0
4, 126960, Note_on_c, 0, 38, 0
4, 126960, Note_on_c, 0, 54, 54
4, 126960, Note_on_c, 0, 57, 54
4, 127200, Note_on_c, 0, 57, 0
4, 127200, Note_on_c, 0, 54, 0
4, 127200, Control_c, 0, 64, 0
4, 127200, Note_on_c, 0, 54, 54
4, 127200, Note_on_c, 0, 57, 54
4, 127440, Note_on_c, 0, 57, 0
4, 127440, Note_on_c, 0, 54, 0
4, 127440, Note_on_c, 0, 57, 54
4, 127680, Note_on_c, 0, 57, 0
4, 127680, Note_on_c, 0, 57, 54
4, 127920, Note_on_c, 0, 57, 0
4, 127920, Note_on_c, 0, 57, 54
4, 128160, Note_on_c, 0, 57, 0
4, 128160, Note_on_c, 0, 52, 54
4, 128400, Note_on_c, 0, 52, 0
4, 128400, Note_on_c, 0, 52, 54
4, 128640, Note_on_c, 0, 52, 0
4, 128640, Note_on_c, 0, 52, 54
4, 128880, Note_on_c, 0, 52, 0
4, 128880, Note_on_c, 0, 54, 54
4, 129120, Note_on_c, 0, 54, 0
4, 129120, Note_on_c, 0, 54, 54
4, 129360, Note_on_c, 0, 54, 0
4, 129360, Note_on_c, 0, 55, 54
4, 129600, Note_on_c, 0, 55, 0
4, 129600, Note_on_c, 0, 54, 54
4, 129840, Note_on_c, 0, 54, 0
4, 129840, Note_on_c, 0, 54, 54
4, 130080, Note_on_c, 0, 54, 0
4, 130080, Note_on_c, 0, 54, 54
4, 130320, Note_on_c, 0, 54, 0
4, 130320, Note_on_c, 0, 54, 54
4, 130560, Note_on_c, 0, 54, 0
4, 130560, Note_on_c, 0, 54, 54
4, 130800, Note_on_c, 0, 54, 0
4, 130800, Note_on_c, 0, 54, 54
4, 131040, Note_on_c, 0, 54, 0
4, 131040, Note_on_c, 0, 54, 54
4, 131400, Note_on_c, 0, 54, 0
4, 131400, Note_on_c, 0, 56, 54
4, 131760, Note_on_c, 0, 56, 0
4, 131760, Note_on_c, 0, 57, 54
4, 132120, Note_on_c, 0, 57, 0
4, 132120, Note_on_c, 0, 54, 54
4, 132480, Note_on_c, 0, 54, 0
4, 132480, Note_on_c, 0, 56, 67
4, 132720, Note_on_c, 0, 56, 0
4, 132720, Note_on_c, 0, 56, 67
4, 132960, Note_on_c, 0, 56, 0
4, 132960, Note_on_c, 0, 56, 67
4, 133200, Note_on_c, 0, 56, 0
4, 133200, Note_on_c, 0, 55, 67
4, 133440, Note_on_c, 0, 55, 0
4, 133440, Note_on_c, 0, 55, 67
4, 133680, Note_on_c, 0, 55, 0
4, 133680, Note_on_c, 0, 55, 80
4, 133920, Note_on_c, 0, 55, 0
4, 133920, Note_on_c, 0, 56, 80
4, 133920, Note_on_c, 0, 62, 80
4, 134280, Note_on_c, 0, 62, 0
4, 134280, Note_on_c, 0, 56, 0
4, 134280, Note_on_c, 0, 58, 80
4, 134640, Note_on_c, 0, 58, 0
4, 134640, Note_on_c, 0, 59, 80
4, 134880, Note_on_c, 0, 59, 0
4, 135360, Note_on_c, 0, 52, 106
4, 135720, Note_on_c, 0, 52, 0
4, 135720, Note_on_c, 0, 54, 106
4, 136080, Note_on_c, 0, 54, 0
4, 136080, Note_on_c, 0, 55, 80
4, 136800, Note_on_c, 0, 55, 0
4, 136800, Note_on_c, 0, 47, 67
4, 136800, Note_on_c, 0, 52, 67
4, 137040, Note_on_c, 0, 52, 0
4, 137040, Note_on_c, 0, 47, 0
4, 137040, Note_on_c, 0, 47, 67
4, 137280, Note_on_c, 0, 47, 0
4, 137280, Note_on_c, 0, 52, 67
4, 137520, Note_on_c, 0, 52, 0
4, 137520, Note_on_c, 0, 37, 54
4, 137520, Note_on_c, 0, 52, 54
4, 138240, Note_on_c, 0, 52, 0
4, 138240, Note_on_c, 0, 37, 0
4, 138240, Control_c, 0, 64, 127
4, 138240, Note_on_c, 0, 38, 54
4, 138240, Note_on_c, 0, 45, 54
4, 138240, Note_on_c, 0, 50, 54
4, 138480, Note_on_c, 0, 50, 0
4, 138480, Note_on_c, 0, 45, 0
4, 138480, Note_on_c, 0, 38, 0
4, 138480, Note_on_c, 0, 54, 54
4, 138480, Note_on_c, 0, 57, 54
4, 138720, Note_on_c, 0, 57, 0
4, 138720, Note_on_c, 0, 54, 0
4, 138720, Control_c, 0, 64, 0
4, 138720, Note_on_c, 0, 54, 54
4, 138720, Note_on_c, 0, 57, 54
4, 138960, Note_on_c, 0, 57, 0
4, 138960, Note_on_c, 0, 54, 0
4, 138960, Note_on_c, 0, 57, 54
4, 139200, Note_on_c, 0, 57, 0
4, 139200, Note_on_c, 0, 57, 54
4, 139440, Note_on_c, 0, 57, 0
4, 139440, Note_on_c, 0, 57, 54
4, 139680, Note_on_c, 0, 57, 0
4, 139680, Note_on_c, 0, 52, 54
4, 139920, Note_on_c, 0, 52, 0
4, 139920, Note_on_c, 0, 52, 54
4, 140160, Note_on_c, 0, 52, 0
4, 140160, Note_on_c, 0, 52, 54
4, 140400, Note_on_c, 0, 52, 0
4, 140400, Note_on_c, 0, 54, 54
4, 140640, Note_on_c, 0, 54, 0
4, 140640, Note_on_c, 0, 54, 54
4, 140880, Note_on_c, 0, 54, 0
4, 140880, Note_on_c, 0, 55, 54
4, 141120, Note_on_c, 0, 55, 0
4, 141120, Note_on_c, 0, 54, 67
4, 141360, Note_on_c, 0, 54, 0
4, 141360, Note_on_c, 0, 54, 67
4, 141600, Note_on_c, 0, 54, 0
4, 141600, Note_on_c, 0, 54, 67
4, 141840, Note_on_c, 0, 54, 0
4, 141840, Note_on_c, 0, 54, 67
4, 142080, Note_on_c, 0, 54, 0
4, 142080, Note_on_c, 0, 54, 67
4, 142320, Note_on_c, 0, 54, 0
4, 142320, Note_on_c, 0, 54, 67
4, 142560, Note_on_c, 0, 54, 0
4, 142560, Note_on_c, 0, 54, 67
4, 142920, Note_on_c, 0, 54, 0
4, 142920, Note_on_c, 0, 56, 67
4, 143280, Note_on_c, 0, 56, 0
4, 143280, Note_on_c, 0, 57, 67
4, 143640, Note_on_c, 0, 57, 0
4, 143640, Note_on_c, 0, 54, 67
4, 144000, Note_on_c, 0, 54, 0
4, 144000, Note_on_c, 0, 56, 67
4, 144240, Note_on_c, 0, 56, 0
4, 144240, Note_on_c, 0, 56, 67
4, 144480, Note_on_c, 0, 56, 0
4, 144480, Note_on_c, 0, 56, 67
4, 144720, Note_on_c, 0, 56, 0
4, 144720, Note_on_c, 0, 55, 67
4, 144960, Note_on_c, 0, 55, 0
4, 144960, Note_on_c, 0, 55, 67
4, 145200, Note_on_c, 0, 55, 0
4, 145200, Note_on_c, 0, 55, 67
4, 145440, Note_on_c, 0, 55, 0
4, 145440, Control_c, 0, 64, 127
4, 145440, Note_on_c, 0, 56, 67
4, 145800, Note_on_c, 0, 56, 0
4, 145800, Note_on_c, 0, 58, 67
4, 146160, Note_on_c, 0, 58, 0
4, 146160, Note_on_c, 0, 59, 67
4, 146520, Note_on_c, 0, 59, 0
4, 146520, Control_c, 0, 64, 0
4, 146520, Note_on_c, 0, 62, 67
4, 146880, Note_on_c, 0, 62, 0
4, 146880, Control_c, 0, 64, 127
4, 146880, Note_on_c, 0, 40, 80
4, 146880, Note_on_c, 0, 52, 80
4, 147120, Note_on_c, 0, 52, 0
4, 147120, Note_on_c, 0, 40, 0
4, 147120, Note_on_c, 0, 54, 80
4, 147120, Note_on_c, 0, 59, 80
4, 147120, Note_on_c, 0, 64, 80
4, 147360, Note_on_c, 0, 64, 0
4, 147360, Note_on_c, 0, 59, 0
4, 147360, Note_on_c, 0, 54, 0
4, 147360, Note_on_c, 0, 54, 80
4, 147360, Note_on_c, 0, 59, 80
4, 147360, Note_on_c, 0, 64, 80
4, 147600, Note_on_c, 0, 64, 0
4, 147600, Note_on_c, 0, 59, 0
4, 147600, Note_on_c, 0, 54, 0
4, 147600, Note_on_c, 0, 55, 80
4, 147600, Note_on_c, 0, 59, 80
4, 147600, Note_on_c, 0, 64, 80
4, 147840, Note_on_c, 0, 64, 0
4, 147840, Note_on_c, 0, 59, 0
4, 147840, Note_on_c, 0, 55, 0
4, 147840, Note_on_c, 0, 55, 80
4, 147840, Note_on_c, 0, 59, 80
4, 147840, Note_on_c, 0, 64, 80
4, 148080, Note_on_c, 0, 64, 0
4, 148080, Note_on_c, 0, 59, 0
4, 148080, Note_on_c, 0, 55, 0
4, 148080, Control_c, 0, 64, 0
4, 148080, Note_on_c, 0, 55, 80
4, 148080, Note_on_c, 0, 59, 80
4, 148080, Note_on_c, 0, 64, 80
4, 148320, Note_on_c, 0, 64, 0
4, 148320, Note_on_c, 0, 59, 0
4, 148320, Note_on_c, 0, 55, 0
4, 148320, Control_c, 0, 64, 127
4, 148320, Note_on_c, 0, 38, 80
4, 148320, Note_on_c, 0, 50, 80
4, 148560, Note_on_c, 0, 50, 0
4, 148560, Note_on_c, 0, 38, 0
4, 148560, Note_on_c, 0, 55, 80
4, 148560, Note_on_c, 0, 59, 80
4, 148560, Note_on_c, 0, 65, 80
4, 148800, Note_on_c, 0, 65, 0
4, 148800, Note_on_c, 0, 59, 0
4, 148800, Note_on_c, 0, 55, 0
4, 148800, Note_on_c, 0, 55, 80
4, 148800, Note_on_c, 0, 59, 80
4, 148800, Note_on_c, 0, 65, 80
4, 149040, Note_on_c, 0, 65, 0
4, 149040, Note_on_c, 0, 59, 0
4, 149040, Note_on_c, 0, 55, 0
4, 149040, Note_on_c, 0, 56, 80
4, 149040, Note_on_c, 0, 59, 80
4, 149040, Note_on_c, 0, 65, 80
4, 149280, Note_on_c, 0, 65, 0
4, 149280, Note_on_c, 0, 59, 0
4, 149280, Note_on_c, 0, 56, 0
4, 149280, Note_on_c, 0, 56, 80
4, 149280, Note_on_c, 0, 59, 80
4, 149280, Note_on_c, 0, 65, 80
4, 149520, Note_on_c, 0, 65, 0
4, 149520, Note_on_c, 0, 59, 0
4, 149520, Note_on_c, 0, 56, 0
4, 149520, Control_c, 0, 64, 0
4, 149520, Note_on_c, 0, 56, 80
4, 149520, Note_on_c, 0, 59, 80
4, 149520, Note_on_c, 0, 65, 80
4, 149760, Note_on_c, 0, 65, 0
4, 149760, Note_on_c, 0, 59, 0
4, 149760, Note_on_c, 0, 56, 0
4, 149760, Control_c, 0, 64, 127
4, 149760, Note_on_c, 0, 37, 80
4, 149760, Note_on_c, 0, 49, 80
4, 150000, Note_on_c, 0, 49, 0
4, 150000, Note_on_c, 0, 37, 0
4, 150000, Note_on_c, 0, 56, 80
4, 150000, Note_on_c, 0, 61, 80
4, 150000, Note_on_c, 0, 66, 80
4, 150240, Note_on_c, 0, 66, 0
4, 150240, Note_on_c, 0, 61, 0
4, 150240, Note_on_c, 0, 56, 0
4, 150240, Note_on_c, 0, 57, 80
4, 150240, Note_on_c, 0, 61, 80
4, 150240, Note_on_c, 0, 66, 80
4, 150480, Note_on_c, 0, 66, 0
4, 150480, Note_on_c, 0, 61, 0
4, 150480, Note_on_c, 0, 57, 0
4, 150480, Note_on_c, 0, 57, 80
4, 150480, Note_on_c, 0, 61, 80
4, 150480, Note_on_c, 0, 66, 80
4, 150720, Note_on_c, 0, 66, 0
4, 150720, Note_on_c, 0, 61, 0
4, 150720, Note_on_c, 0, 57, 0
4, 150720, Note_on_c, 0, 57, 80
4, 150720, Note_on_c, 0, 61, 80
4, 150720, Note_on_c, 0, 66, 80
4, 150960, Note_on_c, 0, 66, 0
4, 150960, Note_on_c, 0, 61, 0
4, 150960, Note_on_c, 0, 57, 0
4, 150960, Control_c, 0, 64, 0
4, 150960, Note_on_c, 0, 57, 80
4, 150960, Note_on_c, 0, 61, 80
4, 150960, Note_on_c, 0, 66, 80
4, 151200, Note_on_c, 0, 66, 0
4, 151200, Note_on_c, 0, 61, 0
4, 151200, Note_on_c, 0, 57, 0
4, 151200, Control_c, 0, 64, 127
4, 151200, Note_on_c, 0, 36, 80
4, 151200, Note_on_c, 0, 48, 80
4, 151440, Note_on_c, 0, 48, 0
4, 151440, Note_on_c, 0, 36, 0
4, 151440, Note_on_c, 0, 57, 80
4, 151440, Note_on_c, 0, 62, 80
4, 151440, Note_on_c, 0, 66, 80
4, 151680, Note_on_c, 0, 66, 0
4, 151680, Note_on_c, 0, 62, 0
4, 151680, Note_on_c, 0, 57, 0
4, 151680, Note_on_c, 0, 58, 80
4, 151680, Note_on_c, 0, 62, 80
4, 151680, Note_on_c, 0, 66, 80
4, 151920, Note_on_c, 0, 66, 0
4, 151920, Note_on_c, 0, 62, 0
4, 151920, Note_on_c, 0, 58, 0
4, 151920, Note_on_c, 0, 58, 80
4, 151920, Note_on_c, 0, 62, 80
4, 151920, Note_on_c, 0, 66, 80
4, 152160, Note_on_c, 0, 66, 0
4, 152160, Note_on_c, 0, 62, 0
4, 152160, Note_on_c, 0, 58, 0
4, 152160, Note_on_c, 0, 58, 80
4, 152160, Note_on_c, 0, 62, 80
4, 152160, Note_on_c, 0, 66, 80
4, 152400, Note_on_c, 0, 66, 0
4, 152400, Note_on_c, 0, 62, 0
4, 152400, Note_on_c, 0, 58, 0
4, 152400, Control_c, 0, 64, 0
4, 152400, Note_on_c, 0, 58, 80
4, 152400, Note_on_c, 0, 62, 80
4, 152400, Note_on_c, 0, 66, 80
4, 152640, Note_on_c, 0, 66, 0
4, 152640, Note_on_c, 0, 62, 0
4, 152640, Note_on_c, 0, 58, 0
4, 152640, Note_on_c, 0, 35, 80
4, 152640, Note_on_c, 0, 47, 80
4, 152880, Note_on_c, 0, 47, 0
4, 152880, Note_on_c, 0, 35, 0
4, 152880, Note_on_c, 0, 54, 80
4, 152880, Note_on_c, 0, 59, 80
4, 152880, Note_on_c, 0, 63, 80
4, 153120, Note_on_c, 0, 63, 0
4, 153120, Note_on_c, 0, 59, 0
4, 153120, Note_on_c, 0, 54, 0
4, 153120, Note_on_c, 0, 54, 80
4, 153120, Note_on_c, 0, 59, 80
4, 153120, Note_on_c, 0, 63, 80
4, 153360, Note_on_c, 0, 63, 0
4, 153360, Note_on_c, 0, 59, 0
4, 153360, Note_on_c, 0, 54, 0
4, 153360, Note_on_c, 0, 33, 80
4, 153360, Note_on_c, 0, 45, 80
4, 153600, Note_on_c, 0, 45, 0
4, 153600, Note_on_c, 0, 33, 0
4, 153600, Note_on_c, 0, 54, 80
4, 153600, Note_on_c, 0, 59, 80
4, 153600, Note_on_c, 0, 63, 80
4, 153840, Note_on_c, 0, 63, 0
4, 153840, Note_on_c, 0, 59, 0
4, 153840, Note_on_c, 0, 54, 0
4, 153840, Note_on_c, 0, 54, 80
4, 153840, Note_on_c, 0, 59, 80
4, 153840, Note_on_c, 0, 63, 80
4, 154080, Note_on_c, 0, 63, 0
4, 154080, Note_on_c, 0, 59, 0
4, 154080, Note_on_c, 0, 54, 0
4, 154080, Note_on_c, 0, 32, 80
4, 154080, Note_on_c, 0, 44, 80
4, 154320, Note_on_c, 0, 44, 0
4, 154320, Note_on_c, 0, 32, 0
4, 154320, Note_on_c, 0, 56, 80
4, 154320, Note_on_c, 0, 59, 80
4, 154320, Note_on_c, 0, 64, 80
4, 154560, Note_on_c, 0, 64, 0
4, 154560, Note_on_c, 0, 59, 0
4, 154560, Note_on_c, 0, 56, 0
4, 154560, Note_on_c, 0, 56, 80
4, 154560, Note_on_c, 0, 59, 80
4, 154560, Note_on_c, 0, 64, 80
4, 154800, Note_on_c, 0, 64, 0
4, 154800, Note_on_c, 0, 59, 0
4, 154800, Note_on_c, 0, 56, 0
4, 154800, Note_on_c, 0, 31, 80
4, 154800, Note_on_c, 0, 43, 80
4, 155040, Note_on_c, 0, 43, 0
4, 155040, Note_on_c, 0, 31, 0
4, 155040, Note_on_c, 0, 55, 80
4, 155040, Note_on_c, 0, 58, 80
4, 155040, Note_on_c, 0, 64, 80
4, 155280, Note_on_c, 0, 64, 0
4, 155280, Note_on_c, 0, 58, 0
4, 155280, Note_on_c, 0, 55, 0
4, 155280, Note_on_c, 0, 55, 80
4, 155280, Note_on_c, 0, 58, 80
4, 155280, Note_on_c, 0, 64, 80
4, 155520, Note_on_c, 0, 64, 0
4, 155520, Note_on_c, 0, 58, 0
4, 155520, Note_on_c, 0, 55, 0
4, 155520, Control_c, 0, 64, 127
4, 155520, Note_on_c, 0, 30, 93
4, 155520, Note_on_c, 0, 42, 93
4, 155760, Note_on_c, 0, 42, 0
4, 155760, Note_on_c, 0, 30, 0
4, 155760, Note_on_c, 0, 54, 93
4, 155760, Note_on_c, 0, 58, 93
4, 155760, Note_on_c, 0, 64, 93
4, 156000, Note_on_c, 0, 64, 0
4, 156000, Note_on_c, 0, 58, 0
4, 156000, Note_on_c, 0, 54, 0
4, 156000, Note_on_c, 0, 54, 93
4, 156000, Note_on_c, 0, 58, 93
4, 156000, Note_on_c, 0, 64, 93
4, 156240, Note_on_c, 0, 64, 0
4, 156240, Note_on_c, 0, 58, 0
4, 156240, Note_on_c, 0, 54, 0
4, 156240, Note_on_c, 0, 54, 93
4, 156240, Note_on_c, 0, 58, 93
4, 156240, Note_on_c, 0, 64, 93
4, 156480, Note_on_c, 0, 64, 0
4, 156480, Note_on_c, 0, 58, 0
4, 156480, Note_on_c, 0, 54, 0
4, 156480, Note_on_c, 0, 54, 93
4, 156480, Note_on_c, 0, 58, 93
4, 156480, Note_on_c, 0, 64, 93
4, 156720, Note_on_c, 0, 64, 0
4, 156720, Note_on_c, 0, 58, 0
4, 156720, Note_on_c, 0, 54, 0
4, 156720, Control_c, 0, 64, 0
4, 156720, Note_on_c, 0, 54, 93
4, 156720, Note_on_c, 0, 58, 93
4, 156720, Note_on_c, 0, 64, 93
4, 156960, Note_on_c, 0, 64, 0
4, 156960, Note_on_c, 0, 58, 0
4, 156960, Note_on_c, 0, 54, 0
4, 156960, Control_c, 0, 64, 127
4, 156960, Note_on_c, 0, 29, 93
4, 156960, Note_on_c, 0, 41, 93
4, 157200, Note_on_c, 0, 41, 0
4, 157200, Note_on_c, 0, 29, 0
4, 157200, Note_on_c, 0, 56, 93
4, 157200, Note_on_c, 0, 59, 93
4, 157200, Note_on_c, 0, 61, 93
4, 157440, Note_on_c, 0, 61, 0
4, 157440, Note_on_c, 0, 59, 0
4, 157440, Note_on_c, 0, 56, 0
4, 157440, Note_on_c, 0, 56, 93
4, 157440, Note_on_c, 0, 59, 93
4, 157440, Note_on_c, 0, 62, 93
4, 157680, Note_on_c, 0, 62, 0
4, 157680, Note_on_c, 0, 59, 0
4, 157680, Note_on_c, 0, 56, 0
4, 157680, Note_on_c, 0, 56, 93
4, 157680, Note_on_c, 0, 59, 93
4, 157680, Note_on_c, 0, 62, 93
4, 157920, Note_on_c, 0, 62, 0
4, 157920, Note_on_c, 0, 59, 0
4, 157920, Note_on_c, 0, 56, 0
4, 157920, Note_on_c, 0, 56, 93
4, 157920, Note_on_c, 0, 59, 93
4, 157920, Note_on_c, 0, 62, 93
4, 158160, Note_on_c, 0, 62, 0
4, 158160, Note_on_c, 0, 59, 0
4, 158160, Note_on_c, 0, 56, 0
4, 158160, Control_c, 0, 64, 0
4, 158160, Note_on_c, 0, 56, 93
4, 158160, Note_on_c, 0, 59, 93
4, 158160, Note_on_c, 0, 62, 93
4, 158400, Note_on_c, 0, 62, 0
4, 158400, Note_on_c, 0, 59, 0
4, 158400, Note_on_c, 0, 56, 0
4, 158400, Control_c, 0, 64, 127
4, 158400, Note_on_c, 0, 30, 106
4, 158400, Note_on_c, 0, 42, 106
4, 158640, Note_on_c, 0, 42, 0
4, 158640, Note_on_c, 0, 30, 0
4, 158640, Note_on_c, 0, 50, 106
4, 158640, Note_on_c, 0, 54, 106
4, 158640, Note_on_c, 0, 59, 106
4, 158880, Note_on_c, 0, 59, 0
4, 158880, Note_on_c, 0, 54, 0
4, 158880, Note_on_c, 0, 50, 0
4, 158880, Note_on_c, 0, 54, 106
4, 158880, Note_on_c, 0, 59, 106
4, 158880, Note_on_c, 0, 62, 106
4, 159120, Note_on_c, 0, 62, 0
4, 159120, Note_on_c, 0, 59, 0
4, 159120, Note_on_c, 0, 54, 0
4, 159120, Control_c, 0, 64, 0
4, 159120, Note_on_c, 0, 59, 106
4, 159120, Note_on_c, 0, 62, 106
4, 159120, Note_on_c, 0, 66, 106
4, 159360, Note_on_c, 0, 66, 0
4, 159360, Note_on_c, 0, 62, 0
4, 159360, Note_on_c, 0, 59, 0
4, 159360, Note_on_c, 0, 30, 106
4, 159360, Note_on_c, 0, 42, 106
4, 159600, Note_on_c, 0, 42, 0
4, 159600, Note_on_c, 0, 30, 0
4, 159600, Note_on_c, 0, 32, 106
4, 159600, Note_on_c, 0, 44, 106
4, 159840, Note_on_c, 0, 44, 0
4, 159840, Note_on_c, 0, 32, 0
4, 159840, Note_on_c, 0, 33, 106
4, 159840, Note_on_c, 0, 45, 106
4, 160080, Note_on_c, 0, 45, 0
4, 160080, Note_on_c, 0, 33, 0
4, 160080, Note_on_c, 0, 52, 93
4, 160080, Note_on_c, 0, 57, 93
4, 160080, Note_on_c, 0, 61, 93
4, 160320, Note_on_c, 0, 61, 0
4, 160320, Note_on_c, 0, 57, 0
4, 160320, Note_on_c, 0, 52, 0
4, 160320, Note_on_c, 0, 52, 93
4, 160320, Note_on_c, 0, 57, 93
4, 160320, Note_on_c, 0, 61, 93
4, 160560, Note_on_c, 0, 61, 0
4, 160560, Note_on_c, 0, 57, 0
4, 160560, Note_on_c, 0, 52, 0
4, 160560, Note_on_c, 0, 35, 80
4, 160560, Note_on_c, 0, 47, 80
4, 160800, Note_on_c, 0, 47, 0
4, 160800, Note_on_c, 0, 35, 0
4, 160800, Note_on_c, 0, 50, 80
4, 160800, Note_on_c, 0, 57, 80
4, 160800, Note_on_c, 0, 62, 80
4, 161040, Note_on_c, 0, 62, 0
4, 161040, Note_on_c, 0, 57, 0
4, 161040, Note_on_c, 0, 50, 0
4, 161040, Note_on_c, 0, 49, 80
4, 161040, Note_on_c, 0, 57, 80
4, 161040, Note_on_c, 0, 64, 80
4, 161280, Note_on_c, 0, 64, 0
4, 161280, Note_on_c, 0, 57, 0
4, 161280, Note_on_c, 0, 49, 0
4, 161280, Control_c, 0, 64, 127
4, 161280, Note_on_c, 0, 38, 93
4, 161280, Note_on_c, 0, 50, 93
4, 161520, Note_on_c, 0, 50, 0
4, 161520, Note_on_c, 0, 38, 0
4, 161520, Note_on_c, 0, 47, 93
4, 161520, Note_on_c, 0, 50, 93
4, 161520, Note_on_c, 0, 55, 93
4, 161760, Note_on_c, 0, 55, 0
4, 161760, Note_on_c, 0, 50, 0
4, 161760, Note_on_c, 0, 47, 0
4, 161760, Note_on_c, 0, 50, 93
4, 161760, Note_on_c, 0, 55, 93
4, 161760, Note_on_c, 0, 59, 93
4, 162000, Note_on_c, 0, 59, 0
4, 162000, Note_on_c, 0, 55, 0
4, 162000, Note_on_c, 0, 50, 0
4, 162000, Control_c, 0, 64, 0
4, 162000, Note_on_c, 0, 55, 93
4, 162000, Note_on_c, 0, 59, 93
4, 162000, Note_on_c, 0, 62, 93
4, 162240, Note_on_c, 0, 62, 0
4, 162240, Note_on_c, 0, 59, 0
4, 162240, Note_on_c, 0, 55, 0
4, 162240, Note_on_c, 0, 38, 93
4, 162240, Note_on_c, 0, 50, 93
4, 162480, Note_on_c, 0, 50, 0
4, 162480, Note_on_c, 0, 38, 0
4, 162480, Note_on_c, 0, 40, 93
4, 162480, Note_on_c, 0, 52, 93
4, 162720, Note_on_c, 0, 52, 0
4, 162720, Note_on_c, 0, 40, 0
4, 162720, Note_on_c, 0, 42, 93
4, 162720, Note_on_c, 0, 54, 93
4, 162960, Note_on_c, 0, 54, 0
4, 162960, Note_on_c, 0, 42, 0
4, 162960, Note_on_c, 0, 54, 93
4, 162960, Note_on_c, 0, 58, 93
4, 162960, Note_on_c, 0, 64, 93
4, 163200, Note_on_c, 0, 64, 0
4, 163200, Note_on_c, 0, 58, 0
4, 163200, Note_on_c, 0, 54, 0
4, 163200, Note_on_c, 0, 54, 93
4, 163200, Note_on_c, 0, 58, 93
4, 163200, Note_on_c, 0, 64, 93
4, 163440, Note_on_c, 0, 64, 0
4, 163440, Note_on_c, 0, 58, 0
4, 163440, Note_on_c, 0, 54, 0
4, 163440, Note_on_c, 0, 44, 80
4, 163440, Note_on_c, 0, 56, 80
4, 163680, Note_on_c, 0, 56, 0
4, 163680, Note_on_c, 0, 44, 0
4, 163680, Note_on_c, 0, 56, 80
4, 163680, Note_on_c, 0, 59, 80
4, 163680, Note_on_c, 0, 64, 80
4, 163920, Note_on_c, 0, 64, 0
4, 163920, Note_on_c, 0, 59, 0
4, 163920, Note_on_c, 0, 56, 0
4, 163920, Note_on_c, 0, 46, 80
4, 163920, Note_on_c, 0, 54, 80
4, 163920, Note_on_c, 0, 61, 80
4, 164160, Note_on_c, 0, 61, 0
4, 164160, Note_on_c, 0, 54, 0
4, 164160, Note_on_c, 0, 46, 0
4, 164160, Note_on_c, 0, 47, 80
4, 164160, Note_on_c, 0, 59, 80
4, 164400, Note_on_c, 0, 59, 0
4, 164400, Note_on_c, 0, 47, 0
4, 164400, Note_on_c, 0, 47, 80
4, 164400, Note_on_c, 0, 52, 80
4, 164400, Note_on_c, 0, 55, 80
4, 164640, Note_on_c, 0, 55, 0
4, 164640, Note_on_c, 0, 52, 0
4, 164640, Note_on_c, 0, 47, 0
4, 164640, Note_on_c, 0, 52, 80
4, 164640, Note_on_c, 0, 55, 80
4, 164640, Note_on_c, 0, 59, 80
4, 164880, Note_on_c, 0, 59, 0
4, 164880, Note_on_c, 0, 55, 0
4, 164880, Note_on_c, 0, 52, 0
4, 164880, Note_on_c, 0, 59, 80
4, 165360, Note_on_c, 0, 59, 0
4, 165360, Note_on_c, 0, 61, 80
4, 165600, Note_on_c, 0, 61, 0
4, 165600, Note_on_c, 0, 35, 80
4, 165600, Note_on_c, 0, 47, 80
4, 166320, Note_on_c, 0, 47, 0
4, 166320, Note_on_c, 0, 35, 0
4, 166320, Note_on_c, 0, 34, 67
4, 166320, Note_on_c, 0, 46, 67
4, 167040, Note_on_c, 0, 46, 0
4, 167040, Note_on_c, 0, 34, 0
4, 167760, Note_on_c, 0, 54, 54
4, 168480, Note_on_c, 0, 54, 0
4, 168480, Note_on_c, 0, 53, 67
4, 168480, Note_on_c, 0, 59, 67
4, 169200, Note_on_c, 0, 59, 0
4, 169200, Note_on_c, 0, 53, 0
4, 169200, Note_on_c, 0, 52, 67
4, 169200, Note_on_c, 0, 57, 67
4, 169920, Note_on_c, 0, 57, 0
4, 169920, Note_on_c, 0, 52, 0
4, 169920, Note_on_c, 0, 50, 54
4, 169920, Note_on_c, 0, 57, 54
4, 170640, Note_on_c, 0, 57, 0
4, 170640, Note_on_c, 0, 50, 0
4, 170640, Note_on_c, 0, 54, 54
4, 171360, Note_on_c, 0, 54, 0
4, 171360, Note_on_c, 0, 53, 67
4, 171360, Note_on_c, 0, 59, 67
4, 172080, Note_on_c, 0, 59, 0
4, 172080, Note_on_c, 0, 53, 0
4, 172080, Note_on_c, 0, 52, 67
4, 172080, Note_on_c, 0, 57, 67
4, 172800, Note_on_c, 0, 57, 0
4, 172800, Note_on_c, 0, 52, 0
4, 172800, Control_c, 0, 64, 127
4, 172800, Note_on_c, 0, 38, 54
4, 172800, Note_on_c, 0, 45, 54
4, 172800, Note_on_c, 0, 50, 54
4, 173040, Note_on_c, 0, 50, 0
4, 173040, Note_on_c, 0, 45, 0
4, 173040, Note_on_c, 0, 38, 0
4, 173040, Note_on_c, 0, 54, 54
4, 173040, Note_on_c, 0, 57, 54
4, 173280, Note_on_c, 0, 57, 0
4, 173280, Note_on_c, 0, 54, 0
4, 173280, Note_on_c, 0, 54, 54
4, 173280, Note_on_c, 0, 57, 54
4, 173520, Note_on_c, 0, 57, 0
4, 173520, Note_on_c, 0, 54, 0
4, 173520, Note_on_c, 0, 54, 54
4, 173520, Note_on_c, 0, 57, 54
4, 173760, Note_on_c, 0, 57, 0
4, 173760, Note_on_c, 0, 54, 0
4, 173760, Note_on_c, 0, 54, 54
4, 173760, Note_on_c, 0, 57, 54
4, 174000, Note_on_c, 0, 57, 0
4, 174000, Note_on_c, 0, 54, 0
4, 174000, Note_on_c, 0, 54, 54
4, 174000, Note_on_c, 0, 57, 54
4, 174240, Note_on_c, 0, 57, 0
4, 174240, Note_on_c, 0, 54, 0
4, 174240, Note_on_c, 0, 54, 54
4, 174240, Note_on_c, 0, 57, 54
4, 174480, Note_on_c, 0, 57, 0
4, 174480, Note_on_c, 0, 54, 0
4, 174480, Control_c, 0, 64, 0
4, 175680, Control_c, 0, 64, 127
4, 175680, Note_on_c, 0, 38, 54
4, 175680, Note_on_c, 0, 47, 54
4, 175680, Note_on_c, 0, 50, 54
4, 175920, Note_on_c, 0, 50, 0
4, 175920, Note_on_c, 0, 47, 0
4, 175920, Note_on_c, 0, 38, 0
4, 175920, Note_on_c, 0, 54, 54
4, 175920, Note_on_c, 0, 59, 54
4, 176160, Note_on_c, 0, 59, 0
4, 176160, Note_on_c, 0, 54, 0
4, 176160, Note_on_c, 0, 54, 54
4, 176160, Note_on_c, 0, 59, 54
4, 176400, Note_on_c, 0, 59, 0
4, 176400, Note_on_c, 0, 54, 0
4, 176400, Note_on_c, 0, 54, 54
4, 176400, Note_on_c, 0, 59, 54
4, 176640, Note_on_c, 0, 59, 0
4, 176640, Note_on_c, 0, 54, 0
4, 176640, Note_on_c, 0, 54, 54
4, 176640, Note_on_c, 0, 59, 54
4, 176880, Note_on_c, 0, 59, 0
4, 176880, Note_on_c, 0, 54, 0
4, 176880, Note_on_c, 0, 54, 54
4, 176880, Note_on_c, 0, 59, 54
4, 177120, Note_on_c, 0, 59, 0
4, 177120, Note_on_c, 0, 54, 0
4, 177120, Control_c, 0, 64, 0
4, 177120, Note_on_c, 0, 54, 54
4, 177120, Note_on_c, 0, 59, 54
4, 177360, Note_on_c, 0, 59, 0
4, 177360, Note_on_c, 0, 54, 0
4, 178560, Note_on_c, 0, 38, 54
4, 178560, Note_on_c, 0, 47, 54
4, 179280, Note_on_c, 0, 38, 0
4, 179280, Note_on_c, 0, 42, 54
4, 179520, Note_on_c, 0, 42, 0
4, 179520, Note_on_c, 0, 47, 0
4, 180000, Note_on_c, 0, 47, 67
4, 180000, Note_on_c, 0, 54, 67
4, 180720, Note_on_c, 0, 47, 0
4, 180720, Note_on_c, 0, 50, 67
4, 180960, Note_on_c, 0, 50, 0
4, 180960, Note_on_c, 0, 54, 0
4, 181440, Note_on_c, 0, 57, 67
4, 182160, Note_on_c, 0, 57, 0
4, 182160, Note_on_c, 0, 56, 54
4, 183600, Note_on_c, 0, 56, 0
4, 183600, Note_on_c, 0, 59, 67
4, 184080, Note_on_c, 0, 59, 0
4, 184080, Note_on_c, 0, 57, 67
4, 184320, Note_on_c, 0, 57, 0
4, 184320, Note_on_c, 0, 57, 93
4, 185040, Note_on_c, 0, 57, 0
4, 185040, Note_on_c, 0, 56, 67
4, 186480, Note_on_c, 0, 56, 0
4, 186480, Note_on_c, 0, 59, 54
4, 186960, Note_on_c, 0, 59, 0
4, 186960, Note_on_c, 0, 57, 54
4, 187200, Note_on_c, 0, 57, 0
4, 187200, Note_on_c, 0, 57, 54
4, 188160, Note_on_c, 0, 57, 0
4, 188160, Note_on_c, 0, 56, 54
4, 189120, Note_on_c, 0, 56, 0
4, 189120, Note_on_c, 0, 59, 67
4, 189120, Note_on_c, 0, 65, 67
4, 190080, Note_on_c, 0, 65, 0
4, 190080, Note_on_c, 0, 59, 0
4, 190080, Note_on_c, 0, 57, 80
4, 190080, Note_on_c, 0, 66, 80
4, 191040, Note_on_c, 0, 66, 0
4, 191040, Note_on_c, 0, 57, 0
4, 191040, Note_on_c, 0, 57, 67
4, 191040, Note_on_c, 0, 66, 67
4, 192000, Note_on_c, 0, 66, 0
4, 192000, Note_on_c, 0, 57, 0
4, 192000, Note_on_c, 0, 56, 67
4, 192000, Note_on_c, 0, 65, 67
4, 192960, Note_on_c, 0, 65, 0
4, 192960, Note_on_c, 0, 56, 0
4, 192960, Note_on_c, 0, 54, 67
4, 192960, Note_on_c, 0, 59, 67
4, 192960, Note_on_c, 0, 62, 67
4, 192960, Note_on_c, 0, 66, 67
4, 193920, Note_on_c, 0, 66, 0
4, 193920, Note_on_c, 0, 54, 0
4, 193920, Note_on_c, 0, 59, 0
4, 193920, Note_on_c, 0, 62, 0
4, 193920, Note_on_c, 0, 56, 67
4, 193920, Note_on_c, 0, 59, 67
4, 193920, Note_on_c, 0, 61, 67
4, 193920, Note_on_c, 0, 65, 67
4, 194880, Note_on_c, 0, 65, 0
4, 194880, Note_on_c, 0, 56, 0
4, 194880, Note_on_c, 0, 59, 0
4, 194880, Note_on_c, 0, 61, 0
4, 194880, Note_on_c, 0, 54, 67
4, 194880, Note_on_c, 0, 59, 67
4, 194880, Note_on_c, 0, 62, 67
4, 194880, Note_on_c, 0, 66, 67
4, 195840, Note_on_c, 0, 66, 0
4, 195840, Note_on_c, 0, 54, 0
4, 195840, Note_on_c, 0, 59, 0
4, 195840, Note_on_c, 0, 62, 0
4, 195840, Note_on_c, 0, 56, 67
4, 195840, Note_on_c, 0, 59, 67
4, 195840, Note_on_c, 0, 61, 67
4, 195840, Note_on_c, 0, 65, 67
4, 196800, Note_on_c, 0, 65, 0
4, 196800, Note_on_c, 0, 56, 0
4, 196800, Note_on_c, 0, 59, 0
4, 196800, Note_on_c, 0, 61, 0
4, 196800, Note_on_c, 0, 53, 67
4, 196800, Note_on_c, 0, 59, 67
4, 197040, Note_on_c, 0, 59, 0
4, 197040, Note_on_c, 0, 53, 0
4, 197040, Note_on_c, 0, 49, 67
4, 197040, Note_on_c, 0, 53, 67
4, 197040, Note_on_c, 0, 59, 67
4, 197520, Note_on_c, 0, 59, 0
4, 197520, Note_on_c, 0, 53, 0
4, 197520, Note_on_c, 0, 49, 0
4, 197520, Note_on_c, 0, 49, 80
4, 197520, Note_on_c, 0, 53, 80
4, 197520, Note_on_c, 0, 59, 80
4, 197760, Note_on_c, 0, 59, 0
4, 197760, Note_on_c, 0, 53, 0
4, 197760, Note_on_c, 0, 49, 0
4, 197760, Note_on_c, 0, 54, 80
4, 197760, Note_on_c, 0, 57, 80
4, 198000, Note_on_c, 0, 57, 0
4, 198000, Note_on_c, 0, 54, 0
4, 198000, Note_on_c, 0, 54, 67
4, 198000, Note_on_c, 0, 57, 67
4, 198480, Note_on_c, 0, 57, 0
4, 198480, Note_on_c, 0, 54, 0
4, 198480, Note_on_c, 0, 54, 67
4, 198480, Note_on_c, 0, 57, 67
4, 198720, Note_on_c, 0, 57, 0
4, 198720, Note_on_c, 0, 54, 0
4, 198720, Note_on_c, 0, 37, 67
4, 198720, Note_on_c, 0, 49, 67
4, 199440, Note_on_c, 0, 49, 0
4, 199440, Note_on_c, 0, 37, 0
4, 199440, Note_on_c, 0, 42, 67
4, 199680, Note_on_c, 0, 42, 0
4, 199680, Note_on_c, 0, 45, 80
4, 199920, Note_on_c, 0, 45, 0
4, 199920, Note_on_c, 0, 44, 80
4, 200160, Note_on_c, 0, 44, 0
4, 200160, Note_on_c, 0, 41, 93
4, 200400, Note_on_c, 0, 41, 0
4, 200400, Note_on_c, 0, 37, 93
4, 200640, Note_on_c, 0, 37, 0
4, 200640, Note_on_c, 0, 50, 67
4, 201600, Note_on_c, 0, 50, 0
4, 201600, Note_on_c, 0, 49, 67
4, 202560, Note_on_c, 0, 49, 0
4, 202560, Note_on_c, 0, 50, 67
4, 203520, Note_on_c, 0, 50, 0
4, 203520, Note_on_c, 0, 49, 67
4, 204480, Note_on_c, 0, 49, 0
4, 204480, Note_on_c, 0, 52, 67
4, 204480, Note_on_c, 0, 55, 67
4, 204720, Note_on_c, 0, 55, 0
4, 204720, Note_on_c, 0, 52, 0
4, 204720, Note_on_c, 0, 52, 67
4, 204720, Note_on_c, 0, 55, 67
4, 205200, Note_on_c, 0, 55, 0
4, 205200, Note_on_c, 0, 52, 0
4, 205200, Note_on_c, 0, 52, 67
4, 205200, Note_on_c, 0, 55, 67
4, 205440, Note_on_c, 0, 55, 0
4, 205440, Note_on_c, 0, 52, 0
4, 205440, Note_on_c, 0, 52, 80
4, 205440, Note_on_c, 0, 54, 80
4, 205680, Note_on_c, 0, 54, 0
4, 205680, Note_on_c, 0, 52, 0
4, 205680, Note_on_c, 0, 52, 80
4, 205680, Note_on_c, 0, 54, 80
4, 206160, Note_on_c, 0, 54, 0
4, 206160, Note_on_c, 0, 52, 0
4, 206160, Note_on_c, 0, 52, 67
4, 206160, Note_on_c, 0, 54, 67
4, 206400, Note_on_c, 0, 54, 0
4, 206400, Note_on_c, 0, 52, 0
4, 206640, Note_on_c, 0, 53, 67
4, 206640, Note_on_c, 0, 59, 67
4, 207120, Note_on_c, 0, 59, 0
4, 207120, Note_on_c, 0, 53, 0
4, 207120, Note_on_c, 0, 53, 80
4, 207120, Note_on_c, 0, 59, 80
4, 207360, Note_on_c, 0, 59, 0
4, 207360, Note_on_c, 0, 53, 0
4, 207360, Note_on_c, 0, 42, 80
4, 207360, Note_on_c, 0, 54, 80
4, 207840, Note_on_c, 0, 54, 0
4, 207840, Note_on_c, 0, 42, 0
4, 207840, Note_on_c, 0, 40, 67
4, 207840, Note_on_c, 0, 52, 67
4, 208320, Note_on_c, 0, 52, 0
4, 208320, Note_on_c, 0, 40, 0
4, 208320, Note_on_c, 0, 54, 67
4, 208320, Note_on_c, 0, 58, 67
4, 208560, Note_on_c, 0, 58, 0
4, 208560, Note_on_c, 0, 54, 0
4, 208560, Note_on_c, 0, 54, 67
4, 208560, Note_on_c, 0, 58, 67
4, 208800, Note_on_c, 0, 58, 0
4, 208800, Note_on_c, 0, 59, 67
4, 209040, Note_on_c, 0, 59, 0
4, 209040, Note_on_c, 0, 54, 0
4, 209040, Note_on_c, 0, 54, 67
4, 209040, Note_on_c, 0, 59, 67
4, 209280, Note_on_c, 0, 59, 0
4, 209280, Note_on_c, 0, 54, 0
4, 209280, Note_on_c, 0, 54, 80
4, 209280, Note_on_c, 0, 61, 80
4, 209520, Note_on_c, 0, 61, 0
4, 209520, Note_on_c, 0, 54, 0
4, 209520, Note_on_c, 0, 54, 80
4, 209520, Note_on_c, 0, 61, 80
4, 209760, Note_on_c, 0, 54, 0
4, 209760, Note_on_c, 0, 56, 80
4, 210000, Note_on_c, 0, 56, 0
4, 210000, Note_on_c, 0, 61, 0
4, 210000, Note_on_c, 0, 57, 67
4, 210000, Note_on_c, 0, 61, 67
4, 210240, Note_on_c, 0, 61, 0
4, 210240, Note_on_c, 0, 57, 0
4, 210240, Note_on_c, 0, 48, 67
4, 210480, Note_on_c, 0, 48, 0
4, 210480, Note_on_c, 0, 56, 67
4, 210480, Note_on_c, 0, 63, 67
4, 210720, Note_on_c, 0, 63, 0
4, 210720, Note_on_c, 0, 56, 0
4, 210720, Note_on_c, 0, 45, 67
4, 210960, Note_on_c, 0, 45, 0
4, 210960, Note_on_c, 0, 52, 67
4, 210960, Note_on_c, 0, 61, 67
4, 211200, Note_on_c, 0, 61, 0
4, 211200, Note_on_c, 0, 52, 0
4, 211200, Note_on_c, 0, 44, 80
4, 211440, Note_on_c, 0, 44, 0
4, 211440, Note_on_c, 0, 52, 80
4, 211440, Note_on_c, 0, 56, 80
4, 211440, Note_on_c, 0, 61, 80
4, 211680, Note_on_c, 0, 61, 0
4, 211680, Note_on_c, 0, 56, 0
4, 211680, Note_on_c, 0, 52, 0
4, 211680, Note_on_c, 0, 60, 67
4, 212160, Note_on_c, 0, 60, 0
4, 212160, Note_on_c, 0, 54, 67
4, 212160, Note_on_c, 0, 57, 67
4, 212400, Note_on_c, 0, 57, 0
4, 212400, Note_on_c, 0, 54, 0
4, 212400, Note_on_c, 0, 54, 67
4, 212400, Note_on_c, 0, 57, 67
4, 212880, Note_on_c, 0, 57, 0
4, 212880, Note_on_c, 0, 54, 0
4, 212880, Note_on_c, 0, 54, 80
4, 212880, Note_on_c, 0, 57, 80
4, 213120, Note_on_c, 0, 57, 0
4, 213120, Note_on_c, 0, 54, 0
4, 213120, Note_on_c, 0, 54, 80
4, 213120, Note_on_c, 0, 56, 80
4, 213360, Note_on_c, 0, 56, 0
4, 213360, Note_on_c, 0, 54, 0
4, 213360, Note_on_c, 0, 54, 80
4, 213360, Note_on_c, 0, 56, 80
4, 213840, Note_on_c, 0, 56, 0
4, 213840, Note_on_c, 0, 54, 0
4, 213840, Note_on_c, 0, 54, 67
4, 213840, Note_on_c, 0, 56, 67
4, 214080, Note_on_c, 0, 56, 0
4, 214080, Note_on_c, 0, 54, 0
4, 214320, Note_on_c, 0, 55, 67
4, 214320, Note_on_c, 0, 61, 67
4, 214800, Note_on_c, 0, 61, 0
4, 214800, Note_on_c, 0, 55, 0
4, 214800, Note_on_c, 0, 55, 67
4, 214800, Note_on_c, 0, 61, 67
4, 215040, Note_on_c, 0, 61, 0
4, 215040, Note_on_c, 0, 55, 0
4, 215040, Note_on_c, 0, 44, 80
4, 215040, Note_on_c, 0, 56, 80
4, 215520, Note_on_c, 0, 56, 0
4, 215520, Note_on_c, 0, 44, 0
4, 215520, Note_on_c, 0, 42, 67
4, 215520, Note_on_c, 0, 54, 67
4, 216000, Note_on_c, 0, 54, 0
4, 216000, Note_on_c, 0, 42, 0
4, 216000, Note_on_c, 0, 56, 67
4, 216000, Note_on_c, 0, 60, 67
4, 216240, Note_on_c, 0, 60, 0
4, 216240, Note_on_c, 0, 56, 0
4, 216240, Note_on_c, 0, 56, 67
4, 216240, Note_on_c, 0, 60, 67
4, 216480, Note_on_c, 0, 60, 0
4, 216480, Note_on_c, 0, 61, 67
4, 216720, Note_on_c, 0, 61, 0
4, 216720, Note_on_c, 0, 56, 0
4, 216720, Note_on_c, 0, 56, 80
4, 216720, Note_on_c, 0, 61, 80
4, 216960, Note_on_c, 0, 61, 0
4, 216960, Note_on_c, 0, 56, 0
4, 216960, Note_on_c, 0, 56, 80
4, 216960, Note_on_c, 0, 63, 80
4, 217200, Note_on_c, 0, 63, 0
4, 217200, Note_on_c, 0, 56, 0
4, 217200, Note_on_c, 0, 56, 80
4, 217200, Note_on_c, 0, 63, 80
4, 217440, Note_on_c, 0, 56, 0
4, 217440, Note_on_c, 0, 58, 67
4, 217680, Note_on_c, 0, 58, 0
4, 217680, Note_on_c, 0, 63, 0
4, 217680, Note_on_c, 0, 59, 67
4, 217680, Note_on_c, 0, 63, 67
4, 217920, Note_on_c, 0, 63, 0
4, 217920, Note_on_c, 0, 59, 0
4, 217920, Note_on_c, 0, 50, 67
4, 218160, Note_on_c, 0, 50, 0
4, 218160, Note_on_c, 0, 58, 67
4, 218160, Note_on_c, 0, 65, 67
4, 218400, Note_on_c, 0, 65, 0
4, 218400, Note_on_c, 0, 58, 0
4, 218400, Note_on_c, 0, 47, 67
4, 218640, Note_on_c, 0, 47, 0
4, 218640, Note_on_c, 0, 54, 80
4, 218640, Note_on_c, 0, 63, 80
4, 218880, Note_on_c, 0, 63, 0
4, 218880, Note_on_c, 0, 54, 0
4, 218880, Note_on_c, 0, 46, 80
4, 219120, Note_on_c, 0, 46, 0
4, 219120, Note_on_c, 0, 54, 80
4, 219120, Note_on_c, 0, 58, 80
4, 219120, Note_on_c, 0, 63, 80
4, 219360, Note_on_c, 0, 63, 0
4, 219360, Note_on_c, 0, 58, 0
4, 219360, Note_on_c, 0, 54, 0
4, 219360, Note_on_c, 0, 62, 67
4, 219840, Note_on_c, 0, 62, 0
4, 219840, Note_on_c, 0, 50, 67
4, 219840, Note_on_c, 0, 56, 67
4, 220800, Note_on_c, 0, 56, 0
4, 220800, Note_on_c, 0, 50, 0
4, 220800, Note_on_c, 0, 51, 80
4, 220800, Note_on_c, 0, 54, 80
4, 221760, Note_on_c, 0, 54, 0
4, 221760, Note_on_c, 0, 51, 0
4, 221760, Note_on_c, 0, 51, 67
4, 221760, Note_on_c, 0, 54, 67
4, 222240, Note_on_c, 0, 54, 0
4, 222240, Note_on_c, 0, 51, 0
4, 222480, Note_on_c, 0, 75, 80
4, 222720, Note_on_c, 0, 75, 0
4, 222720, Note_on_c, 0, 78, 93
4, 222960, Note_on_c, 0, 78, 0
4, 222960, Note_on_c, 0, 77, 93
4, 223200, Note_on_c, 0, 77, 0
4, 223200, Note_on_c, 0, 75, 106
4, 223440, Note_on_c, 0, 75, 0
4, 223440, Note_on_c, 0, 74, 106
4, 223680, Note_on_c, 0, 74, 0
4, 223680, Note_on_c, 0, 51, 106
4, 223680, Note_on_c, 0, 56, 106
4, 224160, Note_on_c, 0, 51, 0
4, 224280, Note_on_c, 0, 56, 0
4, 224280, Note_on_c, 0, 58, 80
4, 224400, Note_on_c, 0, 58, 0
4, 224400, Note_on_c, 0, 59, 93
4, 224520, Note_on_c, 0, 59, 0
4, 224520, Note_on_c, 0, 63, 93
4, 224640, Note_on_c, 0, 63, 0
4, 224640, Note_on_c, 0, 53, 80
4, 224640, Note_on_c, 0, 56, 80
4, 224640, Note_on_c, 0, 58, 80
4, 225600, Note_on_c, 0, 58, 0
4, 225600, Note_on_c, 0, 56, 0
4, 225600, Note_on_c, 0, 53, 0
4, 225600, Control_c, 0, 64, 127
4, 225600, Note_on_c, 0, 51, 106
4, 225600, Note_on_c, 0, 56, 106
4, 226080, Note_on_c, 0, 51, 0
4, 226200, Note_on_c, 0, 56, 0
4, 226200, Note_on_c, 0, 58, 80
4, 226320, Note_on_c, 0, 58, 0
4, 226320, Note_on_c, 0, 59, 80
4, 226440, Note_on_c, 0, 59, 0
4, 226440, Control_c, 0, 64, 0
4, 226440, Note_on_c, 0, 65, 80
4, 226560, Note_on_c, 0, 65, 0
4, 226560, Note_on_c, 0, 50, 80
4, 226560, Note_on_c, 0, 56, 80
4, 226560, Note_on_c, 0, 58, 80
4, 227520, Note_on_c, 0, 58, 0
4, 227520, Note_on_c, 0, 56, 0
4, 227520, Note_on_c, 0, 50, 0
4, 227520, Note_on_c, 0, 61, 67
4, 227520, Note_on_c, 0, 64, 67
4, 227760, Note_on_c, 0, 64, 0
4, 227760, Note_on_c, 0, 61, 0
4, 227760, Note_on_c, 0, 61, 67
4, 227760, Note_on_c, 0, 64, 67
4, 228000, Note_on_c, 0, 64, 0
4, 228000, Note_on_c, 0, 61, 0
4, 228000, Note_on_c, 0, 61, 67
4, 228000, Note_on_c, 0, 64, 67
4, 228240, Note_on_c, 0, 64, 0
4, 228240, Note_on_c, 0, 61, 0
4, 228240, Note_on_c, 0, 61, 80
4, 228240, Note_on_c, 0, 64, 80
4, 228480, Note_on_c, 0, 64, 0
4, 228480, Note_on_c, 0, 61, 0
4, 228480, Note_on_c, 0, 61, 80
4, 228480, Note_on_c, 0, 63, 80
4, 228720, Note_on_c, 0, 63, 0
4, 228720, Note_on_c, 0, 61, 0
4, 228720, Note_on_c, 0, 61, 80
4, 228720, Note_on_c, 0, 63, 80
4, 228960, Note_on_c, 0, 63, 0
4, 228960, Note_on_c, 0, 61, 0
4, 228960, Note_on_c, 0, 61, 67
4, 228960, Note_on_c, 0, 63, 67
4, 229200, Note_on_c, 0, 63, 0
4, 229200, Note_on_c, 0, 61, 0
4, 229200, Note_on_c, 0, 61, 67
4, 229200, Note_on_c, 0, 63, 67
4, 229440, Note_on_c, 0, 63, 0
4, 229440, Note_on_c, 0, 61, 0
4, 229440, Note_on_c, 0, 61, 67
4, 229440, Note_on_c, 0, 68, 67
4, 229680, Note_on_c, 0, 68, 0
4, 229680, Note_on_c, 0, 61, 0
4, 229680, Note_on_c, 0, 61, 67
4, 229680, Note_on_c, 0, 68, 67
4, 229920, Note_on_c, 0, 68, 0
4, 229920, Note_on_c, 0, 61, 0
4, 229920, Note_on_c, 0, 61, 67
4, 229920, Note_on_c, 0, 68, 67
4, 230160, Note_on_c, 0, 68, 0
4, 230160, Note_on_c, 0, 61, 0
4, 230160, Note_on_c, 0, 61, 80
4, 230160, Note_on_c, 0, 68, 80
4, 230400, Note_on_c, 0, 68, 0
4, 230400, Note_on_c, 0, 61, 0
4, 230400, Note_on_c, 0, 61, 80
4, 230400, Note_on_c, 0, 67, 80
4, 230640, Note_on_c, 0, 67, 0
4, 230640, Note_on_c, 0, 61, 0
4, 230640, Note_on_c, 0, 61, 80
4, 230640, Note_on_c, 0, 67, 80
4, 230880, Note_on_c, 0, 67, 0
4, 230880, Note_on_c, 0, 61, 0
4, 230880, Note_on_c, 0, 61, 67
4, 230880, Note_on_c, 0, 67, 67
4, 231120, Note_on_c, 0, 67, 0
4, 231120, Note_on_c, 0, 61, 0
4, 231120, Note_on_c, 0, 61, 67
4, 231120, Note_on_c, 0, 67, 67
4, 231360, Note_on_c, 0, 67, 0
4, 231360, Note_on_c, 0, 61, 0
4, 231360, Note_on_c, 0, 54, 80
4, 231360, Note_on_c, 0, 57, 80
4, 231600, Note_on_c, 0, 57, 0
4, 231600, Note_on_c, 0, 54, 0
4, 231600, Note_on_c, 0, 54, 80
4, 231600, Note_on_c, 0, 57, 80
4, 231840, Note_on_c, 0, 57, 0
4, 231840, Note_on_c, 0, 54, 0
4, 231840, Note_on_c, 0, 54, 80
4, 231840, Note_on_c, 0, 57, 80
4, 232080, Note_on_c, 0, 57, 0
4, 232080, Note_on_c, 0, 54, 0
4, 232080, Note_on_c, 0, 54, 93
4, 232080, Note_on_c, 0, 57, 93
4, 232320, Note_on_c, 0, 57, 0
4, 232320, Note_on_c, 0, 54, 0
4, 232320, Note_on_c, 0, 54, 93
4, 232320, Note_on_c, 0, 56, 93
4, 232560, Note_on_c, 0, 56, 0
4, 232560, Note_on_c, 0, 54, 0
4, 232560, Note_on_c, 0, 54, 93
4, 232560, Note_on_c, 0, 56, 93
4, 232800, Note_on_c, 0, 56, 0
4, 232800, Note_on_c, 0, 54, 0
4, 232800, Note_on_c, 0, 54, 80
4, 232800, Note_on_c, 0, 56, 80
4, 233040, Note_on_c, 0, 56, 0
4, 233040, Note_on_c, 0, 54, 0
4, 233040, Note_on_c, 0, 54, 80
4, 233040, Note_on_c, 0, 56, 80
4, 233280, Note_on_c, 0, 56, 0
4, 233280, Note_on_c, 0, 54, 0
4, 233280, Note_on_c, 0, 54, 80
4, 233280, Note_on_c, 0, 61, 80
4, 233520, Note_on_c, 0, 61, 0
4, 233520, Note_on_c, 0, 54, 0
4, 233520, Note_on_c, 0, 54, 80
4, 233520, Note_on_c, 0, 61, 80
4, 233760, Note_on_c, 0, 61, 0
4, 233760, Note_on_c, 0, 54, 0
4, 233760, Note_on_c, 0, 54, 80
4, 233760, Note_on_c, 0, 61, 80
4, 234000, Note_on_c, 0, 61, 0
4, 234000, Note_on_c, 0, 54, 0
4, 234000, Note_on_c, 0, 54, 93
4, 234000, Note_on_c, 0, 61, 93
4, 234240, Note_on_c, 0, 61, 0
4, 234240, Note_on_c, 0, 54, 0
4, 234240, Note_on_c, 0, 54, 93
4, 234240, Note_on_c, 0, 60, 93
4, 234480, Note_on_c, 0, 60, 0
4, 234480, Note_on_c, 0, 54, 0
4, 234480, Note_on_c, 0, 54, 93
4, 234480, Note_on_c, 0, 60, 93
4, 234720, Note_on_c, 0, 60, 0
4, 234720, Note_on_c, 0, 54, 0
4, 234720, Note_on_c, 0, 54, 80
4, 234720, Note_on_c, 0, 60, 80
4, 234960, Note_on_c, 0, 60, 0
4, 234960, Note_on_c, 0, 54, 0
4, 234960, Note_on_c, 0, 54, 80
4, 234960, Note_on_c, 0, 60, 80
4, 235200, Note_on_c, 0, 60, 0
4, 235200, Note_on_c, 0, 54, 0
4, 235200, Control_c, 0, 64, 127
4, 235200, Note_on_c, 0, 60, 67
4, 235320, Note_on_c, 0, 60, 0
4, 235320, Note_on_c, 0, 58, 67
4, 235440, Note_on_c, 0, 58, 0
4, 235440, Note_on_c, 0, 56, 67
4, 235560, Note_on_c, 0, 56, 0
4, 235560, Control_c, 0, 64, 0
4, 235560, Note_on_c, 0, 58, 67
4, 235680, Note_on_c, 0, 58, 0
4, 235680, Control_c, 0, 64, 127
4, 235680, Note_on_c, 0, 59, 67
4, 235800, Note_on_c, 0, 59, 0
4, 235800, Note_on_c, 0, 60, 67
4, 235920, Note_on_c, 0, 60, 0
4, 235920, Note_on_c, 0, 59, 80
4, 236040, Note_on_c, 0, 59, 0
4, 236040, Control_c, 0, 64, 0
4, 236040, Note_on_c, 0, 60, 80
4, 236160, Note_on_c, 0, 60, 0
4, 236160, Control_c, 0, 64, 127
4, 236160, Note_on_c, 0, 60, 80
4, 236280, Note_on_c, 0, 60, 0
4, 236280, Note_on_c, 0, 61, 80
4, 236400, Note_on_c, 0, 61, 0
4, 236400, Note_on_c, 0, 60, 80
4, 236520, Note_on_c, 0, 60, 0
4, 236520, Control_c, 0, 64, 0
4, 236520, Note_on_c, 0, 61, 80
4, 236640, Note_on_c, 0, 61, 0
4, 236640, Control_c, 0, 64, 127
4, 236640, Note_on_c, 0, 63, 67
4, 236760, Note_on_c, 0, 63, 0
4, 236760, Note_on_c, 0, 64, 67
4, 236880, Note_on_c, 0, 64, 0
4, 236880, Note_on_c, 0, 63, 67
4, 237000, Note_on_c, 0, 63, 0
4, 237000, Control_c, 0, 64, 0
4, 237000, Note_on_c, 0, 64, 67
4, 237120, Note_on_c, 0, 64, 0
4, 237120, Note_on_c, 0, 61, 67
4, 237360, Note_on_c, 0, 61, 0
4, 237360, Note_on_c, 0, 61, 67
4, 237840, Note_on_c, 0, 61, 0
4, 237840, Note_on_c, 0, 61, 80
4, 238080, Note_on_c, 0, 61, 0
4, 238080, Note_on_c, 0, 60, 80
4, 238080, Note_on_c, 0, 63, 80
4, 239040, Note_on_c, 0, 63, 0
4, 239040, Note_on_c, 0, 60, 0
4, 239040, Note_on_c, 0, 57, 119
4, 239040, Note_on_c, 0, 61, 119
4, 239040, Note_on_c, 0, 66, 119
4, 239520, Note_on_c, 0, 61, 0
4, 239520, Note_on_c, 0, 57, 0
4, 239640, Note_on_c, 0, 66, 0
4, 239640, Note_on_c, 0, 68, 93
4, 239760, Note_on_c, 0, 68, 0
4, 239760, Note_on_c, 0, 69, 93
4, 239880, Note_on_c, 0, 69, 0
4, 239880, Control_c, 0, 64, 0
4, 239880, Note_on_c, 0, 73, 93
4, 240000, Note_on_c, 0, 73, 0
4, 240000, Note_on_c, 0, 60, 93
4, 240000, Note_on_c, 0, 63, 93
4, 240000, Note_on_c, 0, 68, 93
4, 240960, Note_on_c, 0, 68, 0
4, 240960, Note_on_c, 0, 63, 0
4, 240960, Note_on_c, 0, 60, 0
4, 240960, Note_on_c, 0, 57, 119
4, 240960, Note_on_c, 0, 61, 119
4, 240960, Note_on_c, 0, 66, 119
4, 241440, Note_on_c, 0, 61, 0
4, 241440, Note_on_c, 0, 57, 0
4, 241560, Note_on_c, 0, 66, 0
4, 241560, Note_on_c, 0, 68, 93
4, 241680, Note_on_c, 0, 68, 0
4, 241680, Note_on_c, 0, 69, 93
4, 241800, Note_on_c, 0, 69, 0
4, 241800, Control_c, 0, 64, 0
4, 241800, Note_on_c, 0, 73, 93
4, 241920, Note_on_c, 0, 73, 0
4, 241920, Note_on_c, 0, 60, 93
4, 241920, Note_on_c, 0, 63, 93
4, 241920, Note_on_c, 0, 68, 93
4, 242880, Note_on_c, 0, 68, 0
4, 242880, Note_on_c, 0, 63, 0
4, 242880, Note_on_c, 0, 60, 0
4, 242880, Control_c, 0, 64, 127
4, 242880, Note_on_c, 0, 32, 93
4, 242880, Note_on_c, 0, 44, 93
4, 243120, Note_on_c, 0, 44, 0
4, 243120, Note_on_c, 0, 32, 0
4, 243120, Note_on_c, 0, 56, 80
4, 243360, Note_on_c, 0, 56, 0
4, 243360, Note_on_c, 0, 46, 80
4, 243600, Note_on_c, 0, 46, 0
4, 243600, Note_on_c, 0, 47, 80
4, 243840, Note_on_c, 0, 47, 0
4, 243840, Control_c, 0, 64, 0
4, 243840, Note_on_c, 0, 48, 80
4, 244080, Note_on_c, 0, 48, 0
4, 244080, Note_on_c, 0, 49, 80
4, 244200, Note_on_c, 0, 49, 0
4, 244200, Note_on_c, 0, 56, 80
4, 244320, Note_on_c, 0, 56, 0
4, 244320, Note_on_c, 0, 51, 80
4, 244440, Note_on_c, 0, 51, 0
4, 244440, Note_on_c, 0, 56, 80
4, 244560, Note_on_c, 0, 56, 0
4, 244560, Note_on_c, 0, 52, 80
4, 244680, Note_on_c, 0, 52, 0
4, 244680, Note_on_c, 0, 56, 80
4, 244800, Note_on_c, 0, 56, 0
4, 244800, Note_on_c, 0, 53, 80
4, 245040, Note_on_c, 0, 53, 0
4, 245040, Note_on_c, 0, 54, 80
4, 245160, Note_on_c, 0, 54, 0
4, 245160, Note_on_c, 0, 49, 80
4, 245280, Note_on_c, 0, 49, 0
4, 245280, Note_on_c, 0, 56, 80
4, 245400, Note_on_c, 0, 56, 0
4, 245400, Note_on_c, 0, 49, 80
4, 245520, Note_on_c, 0, 49, 0
4, 245520, Note_on_c, 0, 57, 80
4, 245640, Note_on_c, 0, 57, 0
4, 245640, Note_on_c, 0, 49, 80
4, 245760, Note_on_c, 0, 49, 0
4, 245760, Note_on_c, 0, 58, 80
4, 246000, Note_on_c, 0, 58, 0
4, 246000, Note_on_c, 0, 48, 80
4, 246120, Note_on_c, 0, 48, 0
4, 246120, Note_on_c, 0, 56, 80
4, 246240, Note_on_c, 0, 56, 0
4, 246240, Note_on_c, 0, 49, 80
4, 246360, Note_on_c, 0, 49, 0
4, 246360, Note_on_c, 0, 56, 80
4, 246480, Note_on_c, 0, 56, 0
4, 246480, Note_on_c, 0, 51, 80
4, 246600, Note_on_c, 0, 51, 0
4, 246600, Note_on_c, 0, 56, 80
4, 246720, Note_on_c, 0, 56, 0
4, 246720, Note_on_c, 0, 52, 80
4, 246960, Note_on_c, 0, 52, 0
4, 246960, Note_on_c, 0, 53, 80
4, 247080, Note_on_c, 0, 53, 0
4, 247080, Note_on_c, 0, 49, 80
4, 247200, Note_on_c, 0, 49, 0
4, 247200, Note_on_c, 0, 54, 80
4, 247320, Note_on_c, 0, 54, 0
4, 247320, Note_on_c, 0, 49, 80
4, 247440, Note_on_c, 0, 49, 0
4, 247440, Note_on_c, 0, 56, 80
4, 247560, Note_on_c, 0, 56, 0
4, 247560, Note_on_c, 0, 49, 80
4, 247680, Note_on_c, 0, 49, 0
4, 247680, Note_on_c, 0, 57, 80
4, 247920, Note_on_c, 0, 57, 0
4, 247920, Note_on_c, 0, 58, 80
4, 248040, Note_on_c, 0, 58, 0
4, 248040, Note_on_c, 0, 64, 80
4, 248160, Note_on_c, 0, 64, 0
4, 248160, Note_on_c, 0, 59, 80
4, 248280, Note_on_c, 0, 59, 0
4, 248280, Note_on_c, 0, 64, 80
4, 248400, Note_on_c, 0, 64, 0
4, 248400, Note_on_c, 0, 61, 80
4, 248520, Note_on_c, 0, 61, 0
4, 248520, Note_on_c, 0, 64, 80
4, 248640, Note_on_c, 0, 64, 0
4, 248640, Note_on_c, 0, 59, 80
4, 248880, Note_on_c, 0, 59, 0
4, 248880, Note_on_c, 0, 57, 80
4, 249000, Note_on_c, 0, 57, 0
4, 249000, Note_on_c, 0, 49, 80
4, 249120, Note_on_c, 0, 49, 0
4, 249120, Note_on_c, 0, 56, 80
4, 249240, Note_on_c, 0, 56, 0
4, 249240, Note_on_c, 0, 49, 80
4, 249360, Note_on_c, 0, 49, 0
4, 249360, Note_on_c, 0, 54, 80
4, 249480, Note_on_c, 0, 54, 0
4, 249480, Note_on_c, 0, 49, 80
4, 249600, Note_on_c, 0, 49, 0
4, 249600, Note_on_c, 0, 52, 80
4, 249840, Note_on_c, 0, 52, 0
4, 249840, Note_on_c, 0, 51, 80
4, 249960, Note_on_c, 0, 51, 0
4, 249960, Note_on_c, 0, 56, 80
4, 250080, Note_on_c, 0, 56, 0
4, 250080, Note_on_c, 0, 49, 80
4, 250200, Note_on_c, 0, 49, 0
4, 250200, Note_on_c, 0, 52, 80
4, 250320, Note_on_c, 0, 52, 0
4, 250320, Note_on_c, 0, 48, 80
4, 250440, Note_on_c, 0, 48, 0
4, 250440, Note_on_c, 0, 52, 80
4, 250560, Note_on_c, 0, 52, 0
4, 250560, Note_on_c, 0, 31, 93
4, 250620, Note_on_c, 0, 31, 0
4, 250620, Note_on_c, 0, 43, 93
4, 250680, Note_on_c, 0, 43, 0
4, 250680, Note_on_c, 0, 31, 93
4, 250740, Note_on_c, 0, 31, 0
4, 250740, Note_on_c, 0, 43, 93
4, 250800, Note_on_c, 0, 43, 0
4, 250800, Note_on_c, 0, 31, 93
4, 250860, Note_on_c, 0, 31, 0
4, 250860, Note_on_c, 0, 43, 93
4, 250920, Note_on_c, 0, 43, 0
4, 250920, Note_on_c, 0, 31, 93
4, 250980, Note_on_c, 0, 31, 0
4, 250980, Note_on_c, 0, 43, 93
4, 251040, Note_on_c, 0, 43, 0
4, 251040, Note_on_c, 0, 31, 93
4, 251100, Note_on_c, 0, 31, 0
4, 251100, Note_on_c, 0, 43, 93
4, 251160, Note_on_c, 0, 43, 0
4, 251160, Note_on_c, 0, 31, 93
4, 251220, Note_on_c, 0, 31, 0
4, 251220, Note_on_c, 0, 43, 93
4, 251280, Note_on_c, 0, 43, 0
4, 251280, Note_on_c, 0, 31, 93
4, 251340, Note_on_c, 0, 31, 0
4, 251340, Note_on_c, 0, 43, 93
4, 251400, Note_on_c, 0, 43, 0
4, 251400, Note_on_c, 0, 31, 93
4, 251460, Note_on_c, 0, 31, 0
4, 251460, Note_on_c, 0, 43, 93
4, 251520, Note_on_c, 0, 43, 0
4, 251520, Note_on_c, 0, 31, 93
4, 251580, Note_on_c, 0, 31, 0
4, 251580, Note_on_c, 0, 43, 93
4, 251640, Note_on_c, 0, 43, 0
4, 251640, Note_on_c, 0, 31, 93
4, 251700, Note_on_c, 0, 31, 0
4, 251700, Note_on_c, 0, 43, 93
4, 251760, Note_on_c, 0, 43, 0
4, 251760, Note_on_c, 0, 31, 93
4, 251820, Note_on_c, 0, 31, 0
4, 251820, Note_on_c, 0, 43, 93
4, 251880, Note_on_c, 0, 43, 0
4, 251880, Note_on_c, 0, 31, 93
4, 251940, Note_on_c, 0, 31, 0
4, 251940, Note_on_c, 0, 43, 93
4, 252000, Note_on_c, 0, 43, 0
4, 252000, Note_on_c, 0, 31, 93
4, 252060, Note_on_c, 0, 31, 0
4, 252060, Note_on_c, 0, 43, 93
4, 252120, Note_on_c, 0, 43, 0
4, 252120, Note_on_c, 0, 31, 93
4, 252180, Note_on_c, 0, 31, 0
4, 252180, Note_on_c, 0, 43, 93
4, 252240, Note_on_c, 0, 43, 0
4, 252240, Note_on_c, 0, 31, 93
4, 252300, Note_on_c, 0, 31, 0
4, 252300, Note_on_c, 0, 43, 93
4, 252360, Note_on_c, 0, 43, 0
4, 252360, Note_on_c, 0, 31, 93
4, 252420, Note_on_c, 0, 31, 0
4, 252420, Note_on_c, 0, 43, 93
4, 252480, Note_on_c, 0, 43, 0
4, 252480, Note_on_c, 0, 31, 93
4, 252540, Note_on_c, 0, 31, 0
4, 252540, Note_on_c, 0, 43, 93
4, 252600, Note_on_c, 0, 43, 0
4, 252600, Note_on_c, 0, 31, 93
4, 252660, Note_on_c, 0, 31, 0
4, 252660, Note_on_c, 0, 43, 93
4, 252720, Note_on_c, 0, 43, 0
4, 252720, Note_on_c, 0, 31, 93
4, 252780, Note_on_c, 0, 31, 0
4, 252780, Note_on_c, 0, 43, 93
4, 252840, Note_on_c, 0, 43, 0
4, 252840, Note_on_c, 0, 31, 93
4, 252900, Note_on_c, 0, 31, 0
4, 252900, Note_on_c, 0, 43, 93
4, 252960, Note_on_c, 0, 43, 0
4, 252960, Note_on_c, 0, 31, 93
4, 253020, Note_on_c, 0, 31, 0
4, 253020, Note_on_c, 0, 43, 93
4, 253080, Note_on_c, 0, 43, 0
4, 253080, Note_on_c, 0, 31, 93
4, 253140, Note_on_c, 0, 31, 0
4, 253140, Note_on_c, 0, 43, 93
4, 253200, Note_on_c, 0, 43, 0
4, 253200, Note_on_c, 0, 31, 93
4, 253260, Note_on_c, 0, 31, 0
4, 253260, Note_on_c, 0, 43, 93
4, 253320, Note_on_c, 0, 43, 0
4, 253320, Note_on_c, 0, 31, 93
4, 253380, Note_on_c, 0, 31, 0
4, 253380, Note_on_c, 0, 43, 93
4, 253440, Note_on_c, 0, 43, 0
4, 253440, Note_on_c, 0, 31, 93
4, 253500, Note_on_c, 0, 31, 0
4, 253500, Note_on_c, 0, 43, 93
4, 253560, Note_on_c, 0, 43, 0
4, 253560, Note_on_c, 0, 31, 93
4, 253620, Note_on_c, 0, 31, 0
4, 253620, Note_on_c, 0, 43, 93
4, 253680, Note_on_c, 0, 43, 0
4, 253680, Note_on_c, 0, 31, 93
4, 253740, Note_on_c, 0, 31, 0
4, 253740, Note_on_c, 0, 43, 93
4, 253800, Note_on_c, 0, 43, 0
4, 253800, Note_on_c, 0, 31, 93
4, 253860, Note_on_c, 0, 31, 0
4, 253860, Note_on_c, 0, 43, 93
4, 253920, Note_on_c, 0, 43, 0
4, 253920, Note_on_c, 0, 31, 93
4, 253980, Note_on_c, 0, 31, 0
4, 253980, Note_on_c, 0, 43, 93
4, 254040, Note_on_c, 0, 43, 0
4, 254040, Note_on_c, 0, 31, 93
4, 254100, Note_on_c, 0, 31, 0
4, 254100, Note_on_c, 0, 43, 93
4, 254160, Note_on_c, 0, 43, 0
4, 254160, Note_on_c, 0, 31, 93
4, 254220, Note_on_c, 0, 31, 0
4, 254220, Note_on_c, 0, 43, 93
4, 254280, Note_on_c, 0, 43, 0
4, 254280, Note_on_c, 0, 31, 93
4, 254340, Note_on_c, 0, 31, 0
4, 254340, Note_on_c, 0, 43, 93
4, 254400, Note_on_c, 0, 43, 0
4, 254400, Note_on_c, 0, 31, 93
4, 254460, Note_on_c, 0, 31, 0
4, 254460, Note_on_c, 0, 43, 93
4, 254520, Note_on_c, 0, 43, 0
4, 254520, Note_on_c, 0, 31, 93
4, 254580, Note_on_c, 0, 31, 0
4, 254580, Note_on_c, 0, 43, 93
4, 254640, Note_on_c, 0, 43, 0
4, 254640, Note_on_c, 0, 31, 93
4, 254700, Note_on_c, 0, 31, 0
4, 254700, Note_on_c, 0, 43, 93
4, 254760, Note_on_c, 0, 43, 0
4, 254760, Note_on_c, 0, 31, 93
4, 254820, Note_on_c, 0, 31, 0
4, 254820, Note_on_c, 0, 43, 93
4, 254880, Note_on_c, 0, 43, 0
4, 254880, Note_on_c, 0, 31, 93
4, 254940, Note_on_c, 0, 31, 0
4, 254940, Note_on_c, 0, 43, 93
4, 255000, Note_on_c, 0, 43, 0
4, 255000, Note_on_c, 0, 31, 93
4, 255060, Note_on_c, 0, 31, 0
4, 255060, Note_on_c, 0, 43, 93
4, 255120, Note_on_c, 0, 43, 0
4, 255120, Note_on_c, 0, 31, 93
4, 255180, Note_on_c, 0, 31, 0
4, 255180, Note_on_c, 0, 43, 93
4, 255240, Note_on_c, 0, 43, 0
4, 255240, Note_on_c, 0, 31, 93
4, 255300, Note_on_c, 0, 31, 0
4, 255300, Note_on_c, 0, 43, 93
4, 255360, Note_on_c, 0, 43, 0
4, 255360, Note_on_c, 0, 31, 93
4, 255420, Note_on_c, 0, 31, 0
4, 255420, Note_on_c, 0, 43, 93
4, 255480, Note_on_c, 0, 43, 0
4, 255480, Note_on_c, 0, 31, 93
4, 255540, Note_on_c, 0, 31, 0
4, 255540, Note_on_c, 0, 43, 93
4, 255600, Note_on_c, 0, 43, 0
4, 255600, Note_on_c, 0, 31, 93
4, 255660, Note_on_c, 0, 31, 0
4, 255660, Note_on_c, 0, 43, 93
4, 255720, Note_on_c, 0, 43, 0
4, 255720, Note_on_c, 0, 31, 93
4, 255780, Note_on_c, 0, 31, 0
4, 255780, Note_on_c, 0, 43, 93
4, 255840, Note_on_c, 0, 43, 0
4, 255840, Note_on_c, 0, 31, 93
4, 255900, Note_on_c, 0, 31, 0
4, 255900, Note_on_c, 0, 43, 93
4, 255960, Note_on_c, 0, 43, 0
4, 255960, Note_on_c, 0, 31, 93
4, 256020, Note_on_c, 0, 31, 0
4, 256020, Note_on_c, 0, 43, 93
4, 256080, Note_on_c, 0, 43, 0
4, 256080, Note_on_c, 0, 31, 93
4, 256140, Note_on_c, 0, 31, 0
4, 256140, Note_on_c, 0, 43, 93
4, 256200, Note_on_c, 0, 43, 0
4, 256200, Note_on_c, 0, 31, 93
4, 256260, Note_on_c, 0, 31, 0
4, 256260, Note_on_c, 0, 43, 93
4, 256320, Note_on_c, 0, 43, 0
4, 256320, Note_on_c, 0, 31, 93
4, 256380, Note_on_c, 0, 31, 0
4, 256380, Note_on_c, 0, 43, 93
4, 256440, Note_on_c, 0, 43, 0
4, 256440, Note_on_c, 0, 31, 93
4, 256500, Note_on_c, 0, 31, 0
4, 256500, Note_on_c, 0, 43, 93
4, 256560, Note_on_c, 0, 43, 0
4, 256560, Note_on_c, 0, 31, 93
4, 256620, Note_on_c, 0, 31, 0
4, 256620, Note_on_c, 0, 43, 93
4, 256680, Note_on_c, 0, 43, 0
4, 256680, Note_on_c, 0, 31, 93
4, 256740, Note_on_c, 0, 31, 0
4, 256740, Note_on_c, 0, 43, 93
4, 256800, Note_on_c, 0, 43, 0
4, 256800, Note_on_c, 0, 31, 93
4, 256860, Note_on_c, 0, 31, 0
4, 256860, Note_on_c, 0, 43, 93
4, 256920, Note_on_c, 0, 43, 0
4, 256920, Note_on_c, 0, 31, 93
4, 256980, Note_on_c, 0, 31, 0
4, 256980, Note_on_c, 0, 43, 93
4, 257040, Note_on_c, 0, 43, 0
4, 257040, Note_on_c, 0, 31, 93
4, 257100, Note_on_c, 0, 31, 0
4, 257100, Note_on_c, 0, 43, 93
4, 257160, Note_on_c, 0, 43, 0
4, 257160, Note_on_c, 0, 31, 93
4, 257220, Note_on_c, 0, 31, 0
4, 257220, Note_on_c, 0, 43, 93
4, 257280, Note_on_c, 0, 43, 0
4, 257280, Note_on_c, 0, 31, 93
4, 257340, Note_on_c, 0, 31, 0
4, 257340, Note_on_c, 0, 43, 93
4, 257400, Note_on_c, 0, 43, 0
4, 257400, Note_on_c, 0, 31, 93
4, 257460, Note_on_c, 0, 31, 0
4, 257460, Note_on_c, 0, 43, 93
4, 257520, Note_on_c, 0, 43, 0
4, 257520, Note_on_c, 0, 31, 93
4, 257580, Note_on_c, 0, 31, 0
4, 257580, Note_on_c, 0, 43, 93
4, 257640, Note_on_c, 0, 43, 0
4, 257640, Note_on_c, 0, 31, 93
4, 257700, Note_on_c, 0, 31, 0
4, 257700, Note_on_c, 0, 43, 93
4, 257760, Note_on_c, 0, 43, 0
4, 257760, Note_on_c, 0, 31, 93
4, 257820, Note_on_c, 0, 31, 0
4, 257820, Note_on_c, 0, 43, 93
4, 257880, Note_on_c, 0, 43, 0
4, 257880, Note_on_c, 0, 31, 93
4, 257940, Note_on_c, 0, 31, 0
4, 257940, Note_on_c, 0, 43, 93
4, 258000, Note_on_c, 0, 43, 0
4, 258000, Note_on_c, 0, 31, 93
4, 258060, Note_on_c, 0, 31, 0
4, 258060, Note_on_c, 0, 43, 93
4, 258120, Note_on_c, 0, 43, 0
4, 258120, Note_on_c, 0, 31, 93
4, 258180, Note_on_c, 0, 31, 0
4, 258180, Note_on_c, 0, 43, 93
4, 258240, Note_on_c, 0, 43, 0
4, 258240, Note_on_c, 0, 31, 93
4, 258300, Note_on_c, 0, 31, 0
4, 258300, Note_on_c, 0, 43, 93
4, 258360, Note_on_c, 0, 43, 0
4, 258360, Note_on_c, 0, 31, 93
4, 258420, Note_on_c, 0, 31, 0
4, 258420, Note_on_c, 0, 43, 93
4, 258480, Note_on_c, 0, 43, 0
4, 258480, Note_on_c, 0, 31, 93
4, 258540, Note_on_c, 0, 31, 0
4, 258540, Note_on_c, 0, 43, 93
4, 258600, Note_on_c, 0, 43, 0
4, 258600, Note_on_c, 0, 31, 93
4, 258660, Note_on_c, 0, 31, 0
4, 258660, Note_on_c, 0, 43, 93
4, 258720, Note_on_c, 0, 43, 0
4, 258720, Note_on_c, 0, 31, 93
4, 258780, Note_on_c, 0, 31, 0
4, 258780, Note_on_c, 0, 43, 93
4, 258840, Note_on_c, 0, 43, 0
4, 258840, Note_on_c, 0, 31, 93
4, 258900, Note_on_c, 0, 31, 0
4, 258900, Note_on_c, 0, 43, 93
4, 258960, Note_on_c, 0, 43, 0
4, 258960, Note_on_c, 0, 31, 93
4, 259020, Note_on_c, 0, 31, 0
4, 259020, Note_on_c, 0, 43, 93
4, 259080, Note_on_c, 0, 43, 0
4, 259080, Note_on_c, 0, 31, 93
4, 259140, Note_on_c, 0, 31, 0
4, 259140, Note_on_c, 0, 43, 93
4, 259200, Note_on_c, 0, 43, 0
4, 259200, Note_on_c, 0, 31, 93
4, 259260, Note_on_c, 0, 31, 0
4, 259260, Note_on_c, 0, 43, 93
4, 259320, Note_on_c, 0, 43, 0
4, 259320, Note_on_c, 0, 31, 93
4, 259380, Note_on_c, 0, 31, 0
4, 259380, Note_on_c, 0, 43, 93
4, 259440, Note_on_c, 0, 43, 0
4, 259440, Note_on_c, 0, 31, 93
4, 259500, Note_on_c, 0, 31, 0
4, 259500, Note_on_c, 0, 43, 93
4, 259560, Note_on_c, 0, 43, 0
4, 259560, Note_on_c, 0, 31, 93
4, 259620, Note_on_c, 0, 31, 0
4, 259620, Note_on_c, 0, 43, 93
4, 259680, Note_on_c, 0, 43, 0
4, 259680, Note_on_c, 0, 31, 93
4, 259740, Note_on_c, 0, 31, 0
4, 259740, Note_on_c, 0, 43, 93
4, 259800, Note_on_c, 0, 43, 0
4, 259800, Note_on_c, 0, 31, 93
4, 259860, Note_on_c, 0, 31, 0
4, 259860, Note_on_c, 0, 43, 93
4, 259920, Note_on_c, 0, 43, 0
4, 259920, Note_on_c, 0, 31, 93
4, 259980, Note_on_c, 0, 31, 0
4, 259980, Note_on_c, 0, 43, 93
4, 260040, Note_on_c, 0, 43, 0
4, 260040, Note_on_c, 0, 31, 93
4, 260100, Note_on_c, 0, 31, 0
4, 260100, Note_on_c, 0, 43, 93
4, 260160, Note_on_c, 0, 43, 0
4, 260160, Note_on_c, 0, 31, 93
4, 260220, Note_on_c, 0, 31, 0
4, 260220, Note_on_c, 0, 43, 93
4, 260280, Note_on_c, 0, 43, 0
4, 260280, Note_on_c, 0, 31, 93
4, 260340, Note_on_c, 0, 31, 0
4, 260340, Note_on_c, 0, 43, 93
4, 260400, Note_on_c, 0, 43, 0
4, 260400, Note_on_c, 0, 31, 93
4, 260460, Note_on_c, 0, 31, 0
4, 260460, Note_on_c, 0, 43, 93
4, 260520, Note_on_c, 0, 43, 0
4, 260520, Note_on_c, 0, 31, 93
4, 260580, Note_on_c, 0, 31, 0
4, 260580, Note_on_c, 0, 43, 93
4, 260640, Note_on_c, 0, 43, 0
4, 260640, Note_on_c, 0, 31, 93
4, 260700, Note_on_c, 0, 31, 0
4, 260700, Note_on_c, 0, 43, 93
4, 260760, Note_on_c, 0, 43, 0
4, 260760, Note_on_c, 0, 31, 93
4, 260820, Note_on_c, 0, 31, 0
4, 260820, Note_on_c, 0, 43, 93
4, 260880, Note_on_c, 0, 43, 0
4, 260880, Note_on_c, 0, 31, 93
4, 260940, Note_on_c, 0, 31, 0
4, 260940, Note_on_c, 0, 43, 93
4, 261000, Note_on_c, 0, 43, 0
4, 261000, Note_on_c, 0, 31, 93
4, 261060, Note_on_c, 0, 31, 0
4, 261060, Note_on_c, 0, 43, 93
4, 261120, Note_on_c, 0, 43, 0
4, 261120, Note_on_c, 0, 31, 93
4, 261180, Note_on_c, 0, 31, 0
4, 261180, Note_on_c, 0, 43, 93
4, 261240, Note_on_c, 0, 43, 0
4, 261240, Note_on_c, 0, 31, 93
4, 261300, Note_on_c, 0, 31, 0
4, 261300, Note_on_c, 0, 43, 93
4, 261360, Note_on_c, 0, 43, 0
4, 261360, Note_on_c, 0, 31, 93
4, 261420, Note_on_c, 0, 31, 0
4, 261420, Note_on_c, 0, 43, 93
4, 261480, Note_on_c, 0, 43, 0
4, 261480, Note_on_c, 0, 31, 93
4, 261540, Note_on_c, 0, 31, 0
4, 261540, Note_on_c, 0, 43, 93
4, 261600, Note_on_c, 0, 43, 0
4, 261600, Note_on_c, 0, 31, 93
4, 261660, Note_on_c, 0, 31, 0
4, 261660, Note_on_c, 0, 43, 93
4, 261720, Note_on_c, 0, 43, 0
4, 261720, Note_on_c, 0, 31, 93
4, 261780, Note_on_c, 0, 31, 0
4, 261780, Note_on_c, 0, 43, 93
4, 261840, Note_on_c, 0, 43, 0
4, 261840, Note_on_c, 0, 31, 93
4, 261900, Note_on_c, 0, 31, 0
4, 261900, Note_on_c, 0, 43, 93
4, 261960, Note_on_c, 0, 43, 0
4, 261960, Note_on_c, 0, 31, 93
4, 262020, Note_on_c, 0, 31, 0
4, 262020, Note_on_c, 0, 43, 93
4, 262080, Note_on_c, 0, 43, 0
4, 262080, Note_on_c, 0, 31, 93
4, 262140, Note_on_c, 0, 31, 0
4, 262140, Note_on_c, 0, 43, 93
4, 262200, Note_on_c, 0, 43, 0
4, 262200, Note_on_c, 0, 31, 93
4, 262260, Note_on_c, 0, 31, 0
4, 262260, Note_on_c, 0, 43, 93
4, 262320, Note_on_c, 0, 43, 0
4, 262320, Note_on_c, 0, 31, 93
4, 262380, Note_on_c, 0, 31, 0
4, 262380, Note_on_c, 0, 43, 93
4, 262440, Note_on_c, 0, 43, 0
4, 262440, Note_on_c, 0, 31, 93
4, 262500, Note_on_c, 0, 31, 0
4, 262500, Note_on_c, 0, 43, 93
4, 262560, Note_on_c, 0, 43, 0
4, 262560, Note_on_c, 0, 31, 93
4, 262620, Note_on_c, 0, 31, 0
4, 262620, Note_on_c, 0, 43, 93
4, 262680, Note_on_c, 0, 43, 0
4, 262680, Note_on_c, 0, 31, 93
4, 262740, Note_on_c, 0, 31, 0
4, 262740, Note_on_c, 0, 43, 93
4, 262800, Note_on_c, 0, 43, 0
4, 262800, Note_on_c, 0, 31, 93
4, 262860, Note_on_c, 0, 31, 0
4, 262860, Note_on_c, 0, 43, 93
4, 262920, Note_on_c, 0, 43, 0
4, 262920, Note_on_c, 0, 31, 93
4, 262980, Note_on_c, 0, 31, 0
4, 262980, Note_on_c, 0, 43, 93
4, 263040, Note_on_c, 0, 43, 0
4, 263040, Note_on_c, 0, 31, 93
4, 263100, Note_on_c, 0, 31, 0
4, 263100, Note_on_c, 0, 43, 93
4, 263160, Note_on_c, 0, 43, 0
4, 263160, Note_on_c, 0, 31, 93
4, 263220, Note_on_c, 0, 31, 0
4, 263220, Note_on_c, 0, 43, 93
4, 263280, Note_on_c, 0, 43, 0
4, 263280, Note_on_c, 0, 31, 93
4, 263340, Note_on_c, 0, 31, 0
4, 263340, Note_on_c, 0, 43, 93
4, 263400, Note_on_c, 0, 43, 0
4, 263400, Note_on_c, 0, 31, 93
4, 263460, Note_on_c, 0, 31, 0
4, 263460, Note_on_c, 0, 43, 93
4, 263520, Note_on_c, 0, 43, 0
4, 263520, Note_on_c, 0, 31, 93
4, 263580, Note_on_c, 0, 31, 0
4, 263580, Note_on_c, 0, 43, 93
4, 263640, Note_on_c, 0, 43, 0
4, 263640, Note_on_c, 0, 31, 93
4, 263700, Note_on_c, 0, 31, 0
4, 263700, Note_on_c, 0, 43, 93
4, 263760, Note_on_c, 0, 43, 0
4, 263760, Note_on_c, 0, 31, 93
4, 263820, Note_on_c, 0, 31, 0
4, 263820, Note_on_c, 0, 43, 93
4, 263880, Note_on_c, 0, 43, 0
4, 263880, Note_on_c, 0, 31, 93
4, 263940, Note_on_c, 0, 31, 0
4, 263940, Note_on_c, 0, 43, 93
4, 264000, Note_on_c, 0, 43, 0
4, 264000, Note_on_c, 0, 31, 93
4, 264060, Note_on_c, 0, 31, 0
4, 264060, Note_on_c, 0, 43, 93
4, 264120, Note_on_c, 0, 43, 0
4, 264120, Note_on_c, 0, 31, 93
4, 264180, Note_on_c, 0, 31, 0
4, 264180, Note_on_c, 0, 43, 93
4, 264240, Note_on_c, 0, 43, 0
4, 264240, Note_on_c, 0, 31, 93
4, 264300, Note_on_c, 0, 31, 0
4, 264300, Note_on_c, 0, 43, 93
4, 264360, Note_on_c, 0, 43, 0
4, 264360, Note_on_c, 0, 31, 93
4, 264420, Note_on_c, 0, 31, 0
4, 264420, Note_on_c, 0, 43, 93
4, 264480, Note_on_c, 0, 43, 0
4, 264480, Note_on_c, 0, 31, 93
4, 264540, Note_on_c, 0, 31, 0
4, 264540, Note_on_c, 0, 43, 93
4, 264600, Note_on_c, 0, 43, 0
4, 264600, Note_on_c, 0, 31, 93
4, 264660, Note_on_c, 0, 31, 0
4, 264660, Note_on_c, 0, 43, 93
4, 264720, Note_on_c, 0, 43, 0
4, 264720, Note_on_c, 0, 31, 93
4, 264780, Note_on_c, 0, 31, 0
4, 264780, Note_on_c, 0, 43, 93
4, 264840, Note_on_c, 0, 43, 0
4, 264840, Note_on_c, 0, 31, 93
4, 264900, Note_on_c, 0, 31, 0
4, 264900, Note_on_c, 0, 43, 93
4, 264960, Note_on_c, 0, 43, 0
4, 264960, Note_on_c, 0, 31, 93
4, 265020, Note_on_c, 0, 31, 0
4, 265020, Note_on_c, 0, 43, 93
4, 265080, Note_on_c, 0, 43, 0
4, 265080, Note_on_c, 0, 31, 93
4, 265140, Note_on_c, 0, 31, 0
4, 265140, Note_on_c, 0, 43, 93
4, 265200, Note_on_c, 0, 43, 0
4, 265200, Note_on_c, 0, 31, 93
4, 265260, Note_on_c, 0, 31, 0
4, 265260, Note_on_c, 0, 43, 93
4, 265320, Note_on_c, 0, 43, 0
4, 265320, Note_on_c, 0, 31, 93
4, 265380, Note_on_c, 0, 31, 0
4, 265380, Note_on_c, 0, 43, 93
4, 265440, Note_on_c, 0, 43, 0
4, 265440, Note_on_c, 0, 31, 93
4, 265500, Note_on_c, 0, 31, 0
4, 265500, Note_on_c, 0, 43, 93
4, 265560, Note_on_c, 0, 43, 0
4, 265560, Note_on_c, 0, 31, 93
4, 265620, Note_on_c, 0, 31, 0
4, 265620, Note_on_c, 0, 43, 93
4, 265680, Note_on_c, 0, 43, 0
4, 265680, Note_on_c, 0, 31, 93
4, 265740, Note_on_c, 0, 31, 0
4, 265740, Note_on_c, 0, 43, 93
4, 265800, Note_on_c, 0, 43, 0
4, 265800, Note_on_c, 0, 31, 93
4, 265860, Note_on_c, 0, 31, 0
4, 265860, Note_on_c, 0, 43, 93
4, 265920, Note_on_c, 0, 43, 0
4, 265920, Note_on_c, 0, 31, 93
4, 265980, Note_on_c, 0, 31, 0
4, 265980, Note_on_c, 0, 43, 93
4, 266040, Note_on_c, 0, 43, 0
4, 266040, Note_on_c, 0, 31, 93
4, 266100, Note_on_c, 0, 31, 0
4, 266100, Note_on_c, 0, 43, 93
4, 266160, Note_on_c, 0, 43, 0
4, 266160, Note_on_c, 0, 31, 93
4, 266220, Note_on_c, 0, 31, 0
4, 266220, Note_on_c, 0, 43, 93
4, 266280, Note_on_c, 0, 43, 0
4, 266280, Note_on_c, 0, 31, 93
4, 266340, Note_on_c, 0, 31, 0
4, 266340, Note_on_c, 0, 43, 93
4, 266400, Note_on_c, 0, 43, 0
4, 266400, Note_on_c, 0, 31, 93
4, 266460, Note_on_c, 0, 31, 0
4, 266460, Note_on_c, 0, 43, 93
4, 266520, Note_on_c, 0, 43, 0
4, 266520, Note_on_c, 0, 31, 93
4, 266580, Note_on_c, 0, 31, 0
4, 266580, Note_on_c, 0, 43, 93
4, 266640, Note_on_c, 0, 43, 0
4, 266640, Note_on_c, 0, 31, 93
4, 266700, Note_on_c, 0, 31, 0
4, 266700, Note_on_c, 0, 43, 93
4, 266760, Note_on_c, 0, 43, 0
4, 266760, Note_on_c, 0, 31, 93
4, 266820, Note_on_c, 0, 31, 0
4, 266820, Note_on_c, 0, 43, 93
4, 266880, Note_on_c, 0, 43, 0
4, 266880, Note_on_c, 0, 31, 93
4, 266940, Note_on_c, 0, 31, 0
4, 266940, Note_on_c, 0, 43, 93
4, 267000, Note_on_c, 0, 43, 0
4, 267000, Note_on_c, 0, 31, 93
4, 267060, Note_on_c, 0, 31, 0
4, 267060, Note_on_c, 0, 43, 93
4, 267120, Note_on_c, 0, 43, 0
4, 267120, Note_on_c, 0, 31, 93
4, 267180, Note_on_c, 0, 31, 0
4, 267180, Note_on_c, 0, 43, 93
4, 267240, Note_on_c, 0, 43, 0
4, 267240, Note_on_c, 0, 31, 93
4, 267300, Note_on_c, 0, 31, 0
4, 267300, Note_on_c, 0, 43, 93
4, 267360, Note_on_c, 0, 43, 0
4, 267360, Note_on_c, 0, 31, 93
4, 267420, Note_on_c, 0, 31, 0
4, 269040, Note_on_c, 0, 43, 80
4, 269040, Note_on_c, 0, 49, 80
4, 269040, Note_on_c, 0, 52, 80
4, 269136, Note_on_c, 0, 52, 0
4, 269136, Note_on_c, 0, 49, 0
4, 269136, Note_on_c, 0, 43, 0
4, 269760, Note_on_c, 0, 31, 80
4, 269760, Note_on_c, 0, 43, 80
4, 269856, Note_on_c, 0, 43, 0
4, 269856, Note_on_c, 0, 31, 0
4, 270480, Note_on_c, 0, 43, 80
4, 270480, Note_on_c, 0, 49, 80
4, 270480, Note_on_c, 0, 52, 80
4, 270576, Note_on_c, 0, 52, 0
4, 270576, Note_on_c, 0, 49, 0
4, 270576, Note_on_c, 0, 43, 0
4, 271920, Note_on_c, 0, 43, 80
4, 271920, Note_on_c, 0, 49, 80
4, 271920, Note_on_c, 0, 52, 80
4, 272016, Note_on_c, 0, 52, 0
4, 272016, Note_on_c, 0, 49, 0
4, 272016, Note_on_c, 0, 43, 0
4, 272640, Note_on_c, 0, 31, 80
4, 272640, Note_on_c, 0, 43, 80
4, 272736, Note_on_c, 0, 43, 0
4, 272736, Note_on_c, 0, 31, 0
4, 273360, Note_on_c, 0, 43, 80
4, 273360, Note_on_c, 0, 49, 80
4, 273360, Note_on_c, 0, 52, 80
4, 273456, Note_on_c, 0, 52, 0
4, 273456, Note_on_c, 0, 49, 0
4, 273456, Note_on_c, 0, 43, 0
4, 274800, Note_on_c, 0, 42, 80
4, 274800, Note_on_c, 0, 50, 80
4, 274800, Note_on_c, 0, 54, 80
4, 274896, Note_on_c, 0, 54, 0
4, 274896, Note_on_c, 0, 50, 0
4, 274896, Note_on_c, 0, 42, 0
4, 275520, Note_on_c, 0, 30, 80
4, 275520, Note_on_c, 0, 42, 80
4, 275616, Note_on_c, 0, 42, 0
4, 275616, Note_on_c, 0, 30, 0
4, 276240, Note_on_c, 0, 42, 80
4, 276240, Note_on_c, 0, 50, 80
4, 276240, Note_on_c, 0, 54, 80
4, 276336, Note_on_c, 0, 54, 0
4, 276336, Note_on_c, 0, 50, 0
4, 276336, Note_on_c, 0, 42, 0
4, 277680, Note_on_c, 0, 42, 80
4, 277680, Note_on_c, 0, 50, 80
4, 277680, Note_on_c, 0, 54, 80
4, 277776, Note_on_c, 0, 54, 0
4, 277776, Note_on_c, 0, 50, 0
4, 277776, Note_on_c, 0, 42, 0
4, 278400, Note_on_c, 0, 30, 80
4, 278400, Note_on_c, 0, 42, 80
4, 278496, Note_on_c, 0, 42, 0
4, 278496, Note_on_c, 0, 30, 0
4, 279120, Note_on_c, 0, 42, 67
4, 279120, Note_on_c, 0, 50, 67
4, 279120, Note_on_c, 0, 57, 67
4, 279216, Note_on_c, 0, 57, 0
4, 279216, Note_on_c, 0, 50, 0
4, 279216, Note_on_c, 0, 42, 0
4, 279840, Note_on_c, 0, 28, 67
4, 279840, Note_on_c, 0, 40, 67
4, 279936, Note_on_c, 0, 40, 0
4, 279936, Note_on_c, 0, 28, 0
4, 280560, Note_on_c, 0, 40, 67
4, 280560, Note_on_c, 0, 45, 67
4, 280560, Note_on_c, 0, 55, 67
4, 280656, Note_on_c, 0, 55, 0
4, 280656, Note_on_c, 0, 45, 0
4, 280656, Note_on_c, 0, 40, 0
4, 281280, Note_on_c, 0, 31, 67
4, 281280, Note_on_c, 0, 43, 67
4, 281376, Note_on_c, 0, 43, 0
4, 281376, Note_on_c, 0, 31, 0
4, 282000, Note_on_c, 0, 43, 67
4, 282000, Note_on_c, 0, 49, 67
4, 282000, Note_on_c, 0, 52, 67
4, 282096, Note_on_c, 0, 52, 0
4, 282096, Note_on_c, 0, 49, 0
4, 282096, Note_on_c, 0, 43, 0
4, 282720, Note_on_c, 0, 30, 67
4, 282720, Note_on_c, 0, 42, 67
4, 282816, Note_on_c, 0, 42, 0
4, 282816, Note_on_c, 0, 30, 0
4, 283440, Note_on_c, 0, 42, 67
4, 283440, Note_on_c, 0, 50, 67
4, 283440, Note_on_c, 0, 57, 67
4, 283536, Note_on_c, 0, 57, 0
4, 283536, Note_on_c, 0, 50, 0
4, 283536, Note_on_c, 0, 42, 0
4, 284160, Note_on_c, 0, 33, 67
4, 284160, Note_on_c, 0, 45, 67
4, 284256, Note_on_c, 0, 45, 0
4, 284256, Note_on_c, 0, 33, 0
4, 284880, Note_on_c, 0, 45, 67
4, 284880, Note_on_c, 0, 50, 67
4, 284880, Note_on_c, 0, 57, 67
4, 284976, Note_on_c, 0, 57, 0
4, 284976, Note_on_c, 0, 50, 0
4, 284976, Note_on_c, 0, 45, 0
4, 285600, Note_on_c, 0, 35, 67
4, 285600, Note_on_c, 0, 47, 67
4, 285696, Note_on_c, 0, 47, 0
4, 285696, Note_on_c, 0, 35, 0
4, 286320, Note_on_c, 0, 47, 67
4, 286320, Note_on_c, 0, 55, 67
4, 286320, Note_on_c, 0, 62, 67
4, 286416, Note_on_c, 0, 62, 0
4, 286416, Note_on_c, 0, 55, 0
4, 286416, Note_on_c, 0, 47, 0
4, 287040, Note_on_c, 0, 33, 80
4, 287040, Note_on_c, 0, 45, 80
4, 287136, Note_on_c, 0, 45, 0
4, 287136, Note_on_c, 0, 33, 0
4, 287760, Note_on_c, 0, 52, 80
4, 287760, Note_on_c, 0, 57, 80
4, 287760, Note_on_c, 0, 64, 80
4, 287856, Note_on_c, 0, 64, 0
4, 287856, Note_on_c, 0, 57, 0
4, 287856, Note_on_c, 0, 52, 0
4, 288480, Note_on_c, 0, 38, 80
4, 288480, Note_on_c, 0, 50, 80
4, 288576, Note_on_c, 0, 50, 0
4, 288576, Note_on_c, 0, 38, 0
4, 289200, Note_on_c, 0, 50, 80
4, 289200, Note_on_c, 0, 57, 80
4, 289200, Note_on_c, 0, 62, 80
4, 289296, Note_on_c, 0, 62, 0
4, 289296, Note_on_c, 0, 57, 0
4, 289296, Note_on_c, 0, 50, 0
4, 289920, Note_on_c, 0, 30, 80
4, 289920, Note_on_c, 0, 42, 80
4, 290016, Note_on_c, 0, 42, 0
4, 290016, Note_on_c, 0, 30, 0
4, 290640, Note_on_c, 0, 42, 67
4, 290640, Note_on_c, 0, 50, 67
4, 290640, Note_on_c, 0, 57, 67
4, 290736, Note_on_c, 0, 57, 0
4, 290736, Note_on_c, 0, 50, 0
4, 290736, Note_on_c, 0, 42, 0
4, 291360, Note_on_c, 0, 28, 67
4, 291360, Note_on_c, 0, 40, 67
4, 291456, Note_on_c, 0, 40, 0
4, 291456, Note_on_c, 0, 28, 0
4, 292080, Note_on_c, 0, 40, 67
4, 292080, Note_on_c, 0, 45, 67
4, 292080, Note_on_c, 0, 55, 67
4, 292176, Note_on_c, 0, 55, 0
4, 292176, Note_on_c, 0, 45, 0
4, 292176, Note_on_c, 0, 40, 0
4, 292800, Note_on_c, 0, 31, 67
4, 292800, Note_on_c, 0, 43, 67
4, 292896, Note_on_c, 0, 43, 0
4, 292896, Note_on_c, 0, 31, 0
4, 293520, Note_on_c, 0, 43, 67
4, 293520, Note_on_c, 0, 49, 67
4, 293520, Note_on_c, 0, 52, 67
4, 293616, Note_on_c, 0, 52, 0
4, 293616, Note_on_c, 0, 49, 0
4, 293616, Note_on_c, 0, 43, 0
4, 294240, Note_on_c, 0, 30, 67
4, 294240, Note_on_c, 0, 42, 67
4, 294336, Note_on_c, 0, 42, 0
4, 294336, Note_on_c, 0, 30, 0
4, 294960, Note_on_c, 0, 42, 67
4, 294960, Note_on_c, 0, 50, 67
4, 294960, Note_on_c, 0, 57, 67
4, 295056, Note_on_c, 0, 57, 0
4, 295056, Note_on_c, 0, 50, 0
4, 295056, Note_on_c, 0, 42, 0
4, 295680, Note_on_c, 0, 33, 67
4, 295680, Note_on_c, 0, 45, 67
4, 295776, Note_on_c, 0, 45, 0
4, 295776, Note_on_c, 0, 33, 0
4, 296400, Note_on_c, 0, 45, 67
4, 296400, Note_on_c, 0, 50, 67
4, 296400, Note_on_c, 0, 57, 67
4, 296496, Note_on_c, 0, 57, 0
4, 296496, Note_on_c, 0, 50, 0
4, 296496, Note_on_c, 0, 45, 0
4, 297120, Note_on_c, 0, 38, 67
4, 297120, Note_on_c, 0, 50, 67
4, 297216, Note_on_c, 0, 50, 0
4, 297216, Note_on_c, 0, 38, 0
4, 297840, Note_on_c, 0, 50, 67
4, 297936, Note_on_c, 0, 50, 0
4, 298560, Note_on_c, 0, 37, 67
4, 298560, Note_on_c, 0, 49, 67
4, 298656, Note_on_c, 0, 49, 0
4, 298656, Note_on_c, 0, 37, 0
4, 299280, Note_on_c, 0, 49, 67
4, 299280, Note_on_c, 0, 59, 67
4, 299376, Note_on_c, 0, 59, 0
4, 299376, Note_on_c, 0, 49, 0
4, 300000, Note_on_c, 0, 42, 80
4, 300000, Note_on_c, 0, 49, 80
4, 300096, Note_on_c, 0, 49, 0
4, 300096, Note_on_c, 0, 42, 0
4, 300720, Note_on_c, 0, 57, 80
4, 301680, Note_on_c, 0, 57, 0
4, 301680, Note_on_c, 0, 56, 80
4, 301920, Note_on_c, 0, 56, 0
4, 301920, Note_on_c, 0, 57, 80
4, 302160, Note_on_c, 0, 57, 0
4, 302160, Note_on_c, 0, 40, 80
4, 302160, Note_on_c, 0, 52, 80
4, 302880, Note_on_c, 0, 52, 0
4, 302880, Note_on_c, 0, 40, 0
4, 302880, Note_on_c, 0, 39, 67
4, 302880, Note_on_c, 0, 57, 67
4, 303600, Note_on_c, 0, 57, 0
4, 303600, Note_on_c, 0, 39, 0
4, 303600, Note_on_c, 0, 47, 67
4, 304320, Note_on_c, 0, 47, 0
4, 304320, Note_on_c, 0, 40, 67
4, 304320, Note_on_c, 0, 47, 67
4, 304320, Note_on_c, 0, 52, 67
4, 305040, Note_on_c, 0, 52, 0
4, 305040, Note_on_c, 0, 47, 0
4, 305040, Note_on_c, 0, 40, 0
4, 305040, Note_on_c, 0, 52, 93
4, 305280, Note_on_c, 0, 52, 0
4, 305280, Note_on_c, 0, 54, 93
4, 305520, Note_on_c, 0, 54, 0
4, 305520, Note_on_c, 0, 55, 93
4, 305760, Note_on_c, 0, 55, 0
4, 305760, Note_on_c, 0, 37, 67
4, 305760, Note_on_c, 0, 55, 67
4, 306480, Note_on_c, 0, 55, 0
4, 306480, Note_on_c, 0, 37, 0
4, 306480, Note_on_c, 0, 45, 67
4, 307200, Note_on_c, 0, 45, 0
4, 307200, Note_on_c, 0, 38, 67
4, 307200, Note_on_c, 0, 45, 67
4, 307200, Note_on_c, 0, 50, 67
4, 307920, Note_on_c, 0, 50, 0
4, 307920, Note_on_c, 0, 45, 0
4, 307920, Note_on_c, 0, 38, 0
4, 307920, Note_on_c, 0, 50, 93
4, 308160, Note_on_c, 0, 50, 0
4, 308160, Note_on_c, 0, 52, 93
4, 308400, Note_on_c, 0, 52, 0
4, 308400, Note_on_c, 0, 54, 93
4, 308640, Note_on_c, 0, 54, 0
4, 308640, Note_on_c, 0, 35, 80
4, 308640, Note_on_c, 0, 47, 80
4, 309360, Note_on_c, 0, 47, 0
4, 309360, Note_on_c, 0, 35, 0
4, 309360, Note_on_c, 0, 33, 80
4, 309360, Note_on_c, 0, 45, 80
4, 310080, Note_on_c, 0, 45, 0
4, 310080, Note_on_c, 0, 33, 0
4, 310080, Note_on_c, 0, 32, 93
4, 310080, Note_on_c, 0, 44, 93
4, 310800, Note_on_c, 0, 44, 0
4, 310800, Note_on_c, 0, 32, 0
4, 310800, Note_on_c, 0, 31, 93
4, 310800, Note_on_c, 0, 43, 93
4, 311520, Note_on_c, 0, 43, 0
4, 311520, Note_on_c, 0, 31, 0
4, 311520, Note_on_c, 0, 30, 93
4, 311520, Note_on_c, 0, 42, 93
4, 312480, Note_on_c, 0, 42, 0
4, 312480, Note_on_c, 0, 30, 0
4, 314400, Note_on_c, 0, 38, 67
4, 314400, Note_on_c, 0, 57, 67
4, 315120, Note_on_c, 0, 57, 0
4, 315120, Note_on_c, 0, 38, 0
4, 315120, Note_on_c, 0, 39, 67
4, 315120, Note_on_c, 0, 47, 67
4, 315840, Note_on_c, 0, 47, 0
4, 315840, Note_on_c, 0, 39, 0
4, 315840, Note_on_c, 0, 40, 67
4, 315840, Note_on_c, 0, 47, 67
4, 315840, Note_on_c, 0, 52, 67
4, 316560, Note_on_c, 0, 52, 0
4, 316560, Note_on_c, 0, 47, 0
4, 316560, Note_on_c, 0, 40, 0
4, 316560, Note_on_c, 0, 52, 93
4, 316800, Note_on_c, 0, 52, 0
4, 316800, Note_on_c, 0, 54, 93
4, 317040, Note_on_c, 0, 54, 0
4, 317040, Note_on_c, 0, 55, 93
4, 317280, Note_on_c, 0, 55, 0
4, 317280, Note_on_c, 0, 36, 67
4, 317280, Note_on_c, 0, 55, 67
4, 318000, Note_on_c, 0, 55, 0
4, 318000, Note_on_c, 0, 36, 0
4, 318000, Note_on_c, 0, 37, 67
4, 318000, Note_on_c, 0, 45, 67
4, 318720, Note_on_c, 0, 45, 0
4, 318720, Note_on_c, 0, 37, 0
4, 318720, Note_on_c, 0, 38, 67
4, 318720, Note_on_c, 0, 45, 67
4, 318720, Note_on_c, 0, 50, 67
4, 319440, Note_on_c, 0, 50, 0
4, 319440, Note_on_c, 0, 45, 0
4, 319440, Note_on_c, 0, 38, 0
4, 319440, Note_on_c, 0, 50, 93
4, 319680, Note_on_c, 0, 50, 0
4, 319680, Note_on_c, 0, 52, 93
4, 319920, Note_on_c, 0, 52, 0
4, 319920, Note_on_c, 0, 54, 93
4, 320160, Note_on_c, 0, 54, 0
4, 320160, Note_on_c, 0, 35, 80
4, 320160, Note_on_c, 0, 47, 80
4, 320880, Note_on_c, 0, 47, 0
4, 320880, Note_on_c, 0, 35, 0
4, 320880, Note_on_c, 0, 33, 80
4, 320880, Note_on_c, 0, 45, 80
4, 321600, Note_on_c, 0, 45, 0
4, 321600, Note_on_c, 0, 33, 0
4, 321600, Note_on_c, 0, 32, 93
4, 321600, Note_on_c, 0, 44, 93
4, 322320, Note_on_c, 0, 44, 0
4, 322320, Note_on_c, 0, 32, 0
4, 322320, Note_on_c, 0, 31, 93
4, 322320, Note_on_c, 0, 43, 93
4, 323040, Note_on_c, 0, 43, 0
4, 323040, Note_on_c, 0, 31, 0
4, 323040, Note_on_c, 0, 30, 93
4, 323040, Note_on_c, 0, 42, 93
4, 323760, Note_on_c, 0, 42, 0
4, 323760, Note_on_c, 0, 30, 0
4, 323760, Note_on_c, 0, 29, 93
4, 323760, Note_on_c, 0, 41, 93
4, 324480, Note_on_c, 0, 41, 0
4, 324480, Note_on_c, 0, 29, 0
4, 324480, Note_on_c, 0, 28, 93
4, 324480, Note_on_c, 0, 40, 93
4, 324840, Note_on_c, 0, 40, 0
4, 324840, Note_on_c, 0, 28, 0
4, 324840, Note_on_c, 0, 40, 80
4, 324840, Note_on_c, 0, 52, 80
4, 325200, Note_on_c, 0, 52, 0
4, 325200, Note_on_c, 0, 40, 0
4, 325200, Note_on_c, 0, 38, 80
4, 325200, Note_on_c, 0, 50, 80
4, 325560, Note_on_c, 0, 50, 0
4, 325560, Note_on_c, 0, 38, 0
4, 325560, Note_on_c, 0, 30, 80
4, 325560, Note_on_c, 0, 42, 80
4, 325920, Note_on_c, 0, 42, 0
4, 325920, Note_on_c, 0, 30, 0
4, 325920, Control_c, 0, 64, 127
4, 325920, Note_on_c, 0, 28, 67
4, 325920, Note_on_c, 0, 40, 67
4, 326160, Note_on_c, 0, 40, 0
4, 326160, Note_on_c, 0, 28, 0
4, 326160, Note_on_c, 0, 33, 67
4, 326400, Note_on_c, 0, 33, 0
4, 326400, Note_on_c, 0, 40, 67
4, 326640, Note_on_c, 0, 40, 0
4, 326640, Note_on_c, 0, 45, 67
4, 326880, Note_on_c, 0, 45, 0
4, 326880, Note_on_c, 0, 52, 67
4, 327120, Note_on_c, 0, 52, 0
4, 327120, Note_on_c, 0, 45, 67
4, 327360, Note_on_c, 0, 45, 0
4, 327360, Note_on_c, 0, 40, 67
4, 327600, Note_on_c, 0, 40, 0
4, 327600, Control_c, 0, 64, 0
4, 327600, Note_on_c, 0, 33, 67
4, 327840, Note_on_c, 0, 33, 0
4, 327840, Control_c, 0, 64, 127
4, 327840, Note_on_c, 0, 30, 67
4, 327840, Note_on_c, 0, 42, 67
4, 328080, Note_on_c, 0, 42, 0
4, 328080, Note_on_c, 0, 30, 0
4, 328080, Note_on_c, 0, 33, 67
4, 328320, Note_on_c, 0, 33, 0
4, 328320, Note_on_c, 0, 38, 67
4, 328560, Note_on_c, 0, 38, 0
4, 328560, Note_on_c, 0, 45, 67
4, 328800, Note_on_c, 0, 45, 0
4, 328800, Note_on_c, 0, 50, 67
4, 329040, Note_on_c, 0, 50, 0
4, 329040, Note_on_c, 0, 45, 67
4, 329280, Note_on_c, 0, 45, 0
4, 329280, Note_on_c, 0, 38, 67
4, 329520, Note_on_c, 0, 38, 0
4, 329520, Control_c, 0, 64, 0
4, 329520, Note_on_c, 0, 33, 67
4, 329760, Note_on_c, 0, 33, 0
4, 329760, Control_c, 0, 64, 127
4, 329760, Note_on_c, 0, 35, 80
4, 329760, Note_on_c, 0, 47, 80
4, 330000, Note_on_c, 0, 47, 0
4, 330000, Note_on_c, 0, 35, 0
4, 330000, Note_on_c, 0, 40, 80
4, 330240, Note_on_c, 0, 40, 0
4, 330240, Note_on_c, 0, 47, 80
4, 330480, Note_on_c, 0, 47, 0
4, 330480, Control_c, 0, 64, 0
4, 330480, Note_on_c, 0, 52, 80
4, 330720, Note_on_c, 0, 52, 0
4, 330720, Control_c, 0, 64, 127
4, 330720, Note_on_c, 0, 33, 80
4, 330720, Note_on_c, 0, 45, 80
4, 330960, Note_on_c, 0, 45, 0
4, 330960, Note_on_c, 0, 33, 0
4, 330960, Note_on_c, 0, 40, 80
4, 331200, Note_on_c, 0, 40, 0
4, 331200, Note_on_c, 0, 45, 80
4, 331440, Note_on_c, 0, 45, 0
4, 331440, Control_c, 0, 64, 0
4, 331440, Note_on_c, 0, 52, 80
4, 331680, Note_on_c, 0, 52, 0
4, 331680, Control_c, 0, 64, 127
4, 331680, Note_on_c, 0, 38, 93
4, 331680, Note_on_c, 0, 50, 93
4, 331920, Note_on_c, 0, 50, 0
4, 331920, Note_on_c, 0, 38, 0
4, 331920, Note_on_c, 0, 45, 93
4, 332160, Note_on_c, 0, 45, 0
4, 332160, Note_on_c, 0, 50, 93
4, 332400, Note_on_c, 0, 50, 0
4, 332400, Note_on_c, 0, 45, 93
4, 332640, Note_on_c, 0, 45, 0
4, 332640, Note_on_c, 0, 38, 93
4, 332880, Note_on_c, 0, 38, 0
4, 332880, Note_on_c, 0, 33, 93
4, 333120, Note_on_c, 0, 33, 0
4, 333120, Note_on_c, 0, 30, 80
4, 333360, Note_on_c, 0, 30, 0
4, 333360, Control_c, 0, 64, 0
4, 333360, Note_on_c, 0, 42, 80
4, 333600, Note_on_c, 0, 42, 0
4, 333600, Control_c, 0, 64, 127
4, 333600, Note_on_c, 0, 28, 67
4, 333600, Note_on_c, 0, 40, 67
4, 333840, Note_on_c, 0, 40, 0
4, 333840, Note_on_c, 0, 28, 0
4, 333840, Note_on_c, 0, 33, 67
4, 334080, Note_on_c, 0, 33, 0
4, 334080, Note_on_c, 0, 40, 67
4, 334320, Note_on_c, 0, 40, 0
4, 334320, Note_on_c, 0, 45, 67
4, 334560, Note_on_c, 0, 45, 0
4, 334560, Note_on_c, 0, 52, 67
4, 334800, Note_on_c, 0, 52, 0
4, 334800, Note_on_c, 0, 45, 67
4, 335040, Note_on_c, 0, 45, 0
4, 335040, Note_on_c, 0, 40, 67
4, 335280, Note_on_c, 0, 40, 0
4, 335280, Control_c, 0, 64, 0
4, 335280, Note_on_c, 0, 33, 67
4, 335520, Note_on_c, 0, 33, 0
4, 335520, Control_c, 0, 64, 127
4, 335520, Note_on_c, 0, 30, 67
4, 335520, Note_on_c, 0, 42, 67
4, 335760, Note_on_c, 0, 42, 0
4, 335760, Note_on_c, 0, 30, 0
4, 335760, Note_on_c, 0, 33, 67
4, 336000, Note_on_c, 0, 33, 0
4, 336000, Note_on_c, 0, 38, 67
4, 336240, Note_on_c, 0, 38, 0
4, 336240, Note_on_c, 0, 45, 67
4, 336480, Note_on_c, 0, 45, 0
4, 336480, Note_on_c, 0, 50, 67
4, 336720, Note_on_c, 0, 50, 0
4, 336720, Note_on_c, 0, 45, 67
4, 336960, Note_on_c, 0, 45, 0
4, 336960, Note_on_c, 0, 38, 67
4, 337200, Note_on_c, 0, 38, 0
4, 337200, Control_c, 0, 64, 0
4, 337200, Note_on_c, 0, 30, 67
4, 337440, Note_on_c, 0, 30, 0
4, 337440, Note_on_c, 0, 35, 80
4, 337440, Note_on_c, 0, 42, 80
4, 337440, Note_on_c, 0, 47, 80
4, 337920, Note_on_c, 0, 47, 0
4, 337920, Note_on_c, 0, 42, 0
4, 337920, Note_on_c, 0, 35, 0
4, 337920, Note_on_c, 0, 37, 80
4, 337920, Note_on_c, 0, 42, 80
4, 337920, Note_on_c, 0, 49, 80
4, 338400, Note_on_c, 0, 49, 0
4, 338400, Note_on_c, 0, 42, 0
4, 338400, Note_on_c, 0, 37, 0
4, 338400, Note_on_c, 0, 38, 80
4, 338400, Note_on_c, 0, 42, 80
4, 338400, Note_on_c, 0, 50, 80
4, 338880, Note_on_c, 0, 50, 0
4, 338880, Note_on_c, 0, 42, 0
4, 338880, Note_on_c, 0, 38, 0
4, 339360, Note_on_c, 0, 35, 80
4, 339360, Note_on_c, 0, 42, 80
4, 339360, Note_on_c, 0, 47, 80
4, 339840, Note_on_c, 0, 47, 0
4, 339840, Note_on_c, 0, 42, 0
4, 339840, Note_on_c, 0, 35, 0
4, 339840, Note_on_c, 0, 37, 80
4, 339840, Note_on_c, 0, 42, 80
4, 339840, Note_on_c, 0, 49, 80
4, 340320, Note_on_c, 0, 49, 0
4, 340320, Note_on_c, 0, 42, 0
4, 340320, Note_on_c, 0, 37, 0
4, 340320, Note_on_c, 0, 38, 80
4, 340320, Note_on_c, 0, 42, 80
4, 340320, Note_on_c, 0, 50, 80
4, 340800, Note_on_c, 0, 50, 0
4, 340800, Note_on_c, 0, 42, 0
4, 340800, Note_on_c, 0, 38, 0
4, 341280, Note_on_c, 0, 41, 80
4, 341280, Note_on_c, 0, 50, 80
4, 341280, Note_on_c, 0, 53, 80
4, 341760, Note_on_c, 0, 53, 0
4, 341760, Note_on_c, 0, 50, 0
4, 341760, Note_on_c, 0, 41, 0
4, 341760, Note_on_c, 0, 42, 80
4, 341760, Note_on_c, 0, 50, 80
4, 341760, Note_on_c, 0, 54, 80
4, 342240, Note_on_c, 0, 54, 0
4, 342240, Note_on_c, 0, 50, 0
4, 342240, Note_on_c, 0, 42, 0
4, 342240, Note_on_c, 0, 44, 80
4, 342240, Note_on_c, 0, 50, 80
4, 342240, Note_on_c, 0, 56, 80
4, 342720, Note_on_c, 0, 56, 0
4, 342720, Note_on_c, 0, 50, 0
4, 342720, Note_on_c, 0, 44, 0
4, 343200, Note_on_c, 0, 41, 80
4, 343200, Note_on_c, 0, 50, 80
4, 343200, Note_on_c, 0, 53, 80
4, 343680, Note_on_c, 0, 53, 0
4, 343680, Note_on_c, 0, 50, 0
4, 343680, Note_on_c, 0, 41, 0
4, 343680, Note_on_c, 0, 42, 80
4, 343680, Note_on_c, 0, 50, 80
4, 343680, Note_on_c, 0, 54, 80
4, 344160, Note_on_c, 0, 54, 0
4, 344160, Note_on_c, 0, 50, 0
4, 344160, Note_on_c, 0, 42, 0
4, 344160, Note_on_c, 0, 44, 80
4, 344160, Note_on_c, 0, 50, 80
4, 344160, Note_on_c, 0, 56, 80
4, 344640, Note_on_c, 0, 56, 0
4, 344640, Note_on_c, 0, 50, 0
4, 344640, Note_on_c, 0, 44, 0
4, 345120, Note_on_c, 0, 54, 106
4, 345120, Note_on_c, 0, 59, 106
4, 345120, Note_on_c, 0, 62, 106
4, 345120, Note_on_c, 0, 66, 106
4, 346080, Note_on_c, 0, 66, 0
4, 346080, Note_on_c, 0, 54, 0
4, 346080, Note_on_c, 0, 59, 0
4, 346080, Note_on_c, 0, 62, 0
4, 346560, Note_on_c, 0, 53, 106
4, 346560, Note_on_c, 0, 59, 106
4, 346560, Note_on_c, 0, 62, 106
4, 346560, Note_on_c, 0, 67, 106
4, 347520, Note_on_c, 0, 67, 0
4, 347520, Note_on_c, 0, 53, 0
4, 347520, Note_on_c, 0, 59, 0
4, 347520, Note_on_c, 0, 62, 0
4, 347910, Note_on_c, 0, 52, 106
4, 347940, Note_on_c, 0, 59, 106
4, 347970, Note_on_c, 0, 62, 106
4, 348000, Note_on_c, 0, 68, 106
4, 348960, Note_on_c, 0, 68, 0
4, 348960, Note_on_c, 0, 52, 0
4, 348960, Note_on_c, 0, 59, 0
4, 348960, Note_on_c, 0, 62, 0
4, 349440, Note_on_c, 0, 61, 106
4, 349440, Note_on_c, 0, 67, 106
4, 350400, Note_on_c, 0, 67, 0
4, 350400, Note_on_c, 0, 61, 0
4, 350400, Note_on_c, 0, 33, 106
4, 350400, Note_on_c, 0, 45, 106
4, 350640, Note_on_c, 0, 45, 0
4, 350640, Note_on_c, 0, 33, 0
4, 350640, Note_on_c, 0, 35, 106
4, 350640, Note_on_c, 0, 47, 106
4, 350880, Note_on_c, 0, 47, 0
4, 350880, Note_on_c, 0, 35, 0
4, 350880, Note_on_c, 0, 37, 106
4, 350880, Note_on_c, 0, 49, 106
4, 351120, Note_on_c, 0, 49, 0
4, 351120, Note_on_c, 0, 37, 0
4, 351120, Note_on_c, 0, 39, 106
4, 351120, Note_on_c, 0, 51, 106
4, 351360, Note_on_c, 0, 51, 0
4, 351360, Note_on_c, 0, 39, 0
4, 351360, Note_on_c, 0, 40, 106
4, 351360, Note_on_c, 0, 52, 106
4, 351600, Note_on_c, 0, 52, 0
4, 351600, Note_on_c, 0, 40, 0
4, 351600, Note_on_c, 0, 42, 106
4, 351600, Note_on_c, 0, 54, 106
4, 351840, Note_on_c, 0, 54, 0
4, 351840, Note_on_c, 0, 42, 0
4, 351840, Note_on_c, 0, 43, 106
4, 351840, Note_on_c, 0, 55, 106
4, 352080, Note_on_c, 0, 55, 0
4, 352080, Note_on_c, 0, 43, 0
4, 352080, Note_on_c, 0, 46, 106
4, 352080, Note_on_c, 0, 58, 106
4, 352320, Note_on_c, 0, 58, 0
4, 352320, Note_on_c, 0, 46, 0
4, 352320, Note_on_c, 0, 47, 106
4, 352320, Note_on_c, 0, 59, 106
4, 352560, Note_on_c, 0, 59, 0
4, 352560, Note_on_c, 0, 47, 0
4, 352560, Note_on_c, 0, 61, 106
4, 353040, Note_on_c, 0, 61, 0
4, 353040, Note_on_c, 0, 59, 106
4, 353520, Note_on_c, 0, 59, 0
4, 353520, Note_on_c, 0, 57, 106
4, 354000, Note_on_c, 0, 57, 0
4, 354000, Note_on_c, 0, 55, 106
4, 354480, Note_on_c, 0, 55, 0
4, 354480, Note_on_c, 0, 54, 106
4, 354960, Note_on_c, 0, 54, 0
4, 354960, Note_on_c, 0, 52, 106
4, 355440, Note_on_c, 0, 52, 0
4, 355440, Note_on_c, 0, 47, 106
4, 355440, Note_on_c, 0, 59, 106
4, 355920, Note_on_c, 0, 59, 0
4, 355920, Note_on_c, 0, 47, 0
4, 355920, Note_on_c, 0, 43, 106
4, 355920, Note_on_c, 0, 55, 106
4, 356400, Note_on_c, 0, 55, 0
4, 356400, Note_on_c, 0, 43, 0
4, 356400, Note_on_c, 0, 40, 106
4, 356400, Note_on_c, 0, 52, 106
4, 356640, Note_on_c, 0, 52, 0
4, 356640, Note_on_c, 0, 40, 0
4, 356640, Control_c, 0, 64, 127
4, 356640, Note_on_c, 0, 38, 93
4, 356640, Note_on_c, 0, 45, 93
4, 356640, Note_on_c, 0, 50, 93
4, 356760, Note_on_c, 0, 50, 0
4, 356760, Note_on_c, 0, 45, 0
4, 356760, Note_on_c, 0, 38, 0
4, 356760, Note_on_c, 0, 54, 93
4, 356760, Note_on_c, 0, 57, 93
4, 356760, Note_on_c, 0, 62, 93
4, 356760, Note_on_c, 0, 66, 93
4, 356880, Note_on_c, 0, 66, 0
4, 356880, Note_on_c, 0, 54, 0
4, 356880, Note_on_c, 0, 57, 0
4, 356880, Note_on_c, 0, 62, 0
4, 356880, Note_on_c, 0, 54, 93
4, 356880, Note_on_c, 0, 57, 93
4, 356880, Note_on_c, 0, 62, 93
4, 356880, Note_on_c, 0, 66, 93
4, 357000, Note_on_c, 0, 66, 0
4, 357000, Note_on_c, 0, 54, 0
4, 357000, Note_on_c, 0, 57, 0
4, 357000, Note_on_c, 0, 62, 0
4, 357000, Note_on_c, 0, 54, 93
4, 357000, Note_on_c, 0, 57, 93
4, 357000, Note_on_c, 0, 62, 93
4, 357000, Note_on_c, 0, 66, 93
4, 357120, Note_on_c, 0, 66, 0
4, 357120, Note_on_c, 0, 54, 0
4, 357120, Note_on_c, 0, 57, 0
4, 357120, Note_on_c, 0, 62, 0
4, 357120, Note_on_c, 0, 54, 93
4, 357120, Note_on_c, 0, 57, 93
4, 357120, Note_on_c, 0, 62, 93
4, 357120, Note_on_c, 0, 66, 93
4, 357240, Note_on_c, 0, 66, 0
4, 357240, Note_on_c, 0, 54, 0
4, 357240, Note_on_c, 0, 57, 0
4, 357240, Note_on_c, 0, 62, 0
4, 357240, Note_on_c, 0, 54, 93
4, 357240, Note_on_c, 0, 57, 93
4, 357240, Note_on_c, 0, 62, 93
4, 357240, Note_on_c, 0, 66, 93
4, 357360, Note_on_c, 0, 66, 0
4, 357360, Note_on_c, 0, 54, 0
4, 357360, Note_on_c, 0, 57, 0
4, 357360, Note_on_c, 0, 62, 0
4, 357360, Note_on_c, 0, 54, 93
4, 357360, Note_on_c, 0, 57, 93
4, 357360, Note_on_c, 0, 62, 93
4, 357360, Note_on_c, 0, 66, 93
4, 357480, Note_on_c, 0, 66, 0
4, 357480, Note_on_c, 0, 54, 0
4, 357480, Note_on_c, 0, 57, 0
4, 357480, Note_on_c, 0, 62, 0
4, 357480, Control_c, 0, 64, 0
4, 357480, Note_on_c, 0, 54, 93
4, 357480, Note_on_c, 0, 57, 93
4, 357480, Note_on_c, 0, 62, 93
4, 357480, Note_on_c, 0, 66, 93
4, 357600, Note_on_c, 0, 66, 0
4, 357600, Note_on_c, 0, 54, 0
4, 357600, Note_on_c, 0, 57, 0
4, 357600, Note_on_c, 0, 62, 0
4, 357600, Control_c, 0, 64, 127
4, 357600, Note_on_c, 0, 49, 93
4, 357600, Note_on_c, 0, 57, 93
4, 357600, Note_on_c, 0, 61, 93
4, 357720, Note_on_c, 0, 61, 0
4, 357720, Note_on_c, 0, 57, 0
4, 357720, Note_on_c, 0, 49, 0
4, 357720, Note_on_c, 0, 52, 93
4, 357720, Note_on_c, 0, 61, 93
4, 357720, Note_on_c, 0, 64, 93
4, 357840, Note_on_c, 0, 64, 0
4, 357840, Note_on_c, 0, 61, 0
4, 357840, Note_on_c, 0, 52, 0
4, 357840, Note_on_c, 0, 52, 93
4, 357840, Note_on_c, 0, 61, 93
4, 357840, Note_on_c, 0, 64, 93
4, 357960, Note_on_c, 0, 64, 0
4, 357960, Note_on_c, 0, 61, 0
4, 357960, Note_on_c, 0, 52, 0
4, 357960, Note_on_c, 0, 52, 93
4, 357960, Note_on_c, 0, 61, 93
4, 357960, Note_on_c, 0, 64, 93
4, 358080, Note_on_c, 0, 64, 0
4, 358080, Note_on_c, 0, 61, 0
4, 358080, Note_on_c, 0, 52, 0
4, 358080, Note_on_c, 0, 54, 93
4, 358080, Note_on_c, 0, 61, 93
4, 358080, Note_on_c, 0, 66, 93
4, 358200, Note_on_c, 0, 66, 0
4, 358200, Note_on_c, 0, 61, 0
4, 358200, Note_on_c, 0, 54, 0
4, 358200, Note_on_c, 0, 54, 93
4, 358200, Note_on_c, 0, 61, 93
4, 358200, Note_on_c, 0, 66, 93
4, 358320, Note_on_c, 0, 66, 0
4, 358320, Note_on_c, 0, 61, 0
4, 358320, Note_on_c, 0, 54, 0
4, 358320, Note_on_c, 0, 55, 93
4, 358320, Note_on_c, 0, 61, 93
4, 358320, Note_on_c, 0, 67, 93
4, 358440, Note_on_c, 0, 67, 0
4, 358440, Note_on_c, 0, 61, 0
4, 358440, Note_on_c, 0, 55, 0
4, 358440, Control_c, 0, 64, 0
4, 358440, Note_on_c, 0, 55, 93
4, 358440, Note_on_c, 0, 61, 93
4, 358440, Note_on_c, 0, 67, 93
4, 358560, Note_on_c, 0, 67, 0
4, 358560, Note_on_c, 0, 61, 0
4, 358560, Note_on_c, 0, 55, 0
4, 358560, Control_c, 0, 64, 127
4, 358560, Note_on_c, 0, 47, 93
4, 358560, Note_on_c, 0, 54, 93
4, 358560, Note_on_c, 0, 59, 93
4, 358680, Note_on_c, 0, 59, 0
4, 358680, Note_on_c, 0, 54, 0
4, 358680, Note_on_c, 0, 47, 0
4, 358680, Note_on_c, 0, 54, 93
4, 358680, Note_on_c, 0, 62, 93
4, 358680, Note_on_c, 0, 66, 93
4, 358800, Note_on_c, 0, 66, 0
4, 358800, Note_on_c, 0, 62, 0
4, 358800, Note_on_c, 0, 54, 0
4, 358800, Note_on_c, 0, 54, 93
4, 358800, Note_on_c, 0, 61, 93
4, 358800, Note_on_c, 0, 66, 93
4, 358920, Note_on_c, 0, 66, 0
4, 358920, Note_on_c, 0, 61, 0
4, 358920, Note_on_c, 0, 54, 0
4, 358920, Note_on_c, 0, 54, 93
4, 358920, Note_on_c, 0, 61, 93
4, 358920, Note_on_c, 0, 66, 93
4, 359040, Note_on_c, 0, 66, 0
4, 359040, Note_on_c, 0, 61, 0
4, 359040, Note_on_c, 0, 54, 0
4, 359040, Note_on_c, 0, 54, 93
4, 359040, Note_on_c, 0, 59, 93
4, 359040, Note_on_c, 0, 66, 93
4, 359160, Note_on_c, 0, 66, 0
4, 359160, Note_on_c, 0, 59, 0
4, 359160, Note_on_c, 0, 54, 0
4, 359160, Note_on_c, 0, 54, 93
4, 359160, Note_on_c, 0, 59, 93
4, 359160, Note_on_c, 0, 66, 93
4, 359280, Note_on_c, 0, 66, 0
4, 359280, Note_on_c, 0, 59, 0
4, 359280, Note_on_c, 0, 54, 0
4, 359280, Note_on_c, 0, 54, 93
4, 359280, Note_on_c, 0, 62, 93
4, 359280, Note_on_c, 0, 66, 93
4, 359400, Note_on_c, 0, 66, 0
4, 359400, Note_on_c, 0, 62, 0
4, 359400, Note_on_c, 0, 54, 0
4, 359400, Control_c, 0, 64, 0
4, 359400, Note_on_c, 0, 54, 93
4, 359400, Note_on_c, 0, 62, 93
4, 359400, Note_on_c, 0, 66, 93
4, 359520, Note_on_c, 0, 66, 0
4, 359520, Note_on_c, 0, 62, 0
4, 359520, Note_on_c, 0, 54, 0
4, 359520, Control_c, 0, 64, 127
4, 359520, Note_on_c, 0, 45, 93
4, 359520, Note_on_c, 0, 54, 93
4, 359520, Note_on_c, 0, 57, 93
4, 359640, Note_on_c, 0, 57, 0
4, 359640, Note_on_c, 0, 54, 0
4, 359640, Note_on_c, 0, 45, 0
4, 359640, Note_on_c, 0, 54, 93
4, 359640, Note_on_c, 0, 61, 93
4, 359640, Note_on_c, 0, 66, 93
4, 359760, Note_on_c, 0, 66, 0
4, 359760, Note_on_c, 0, 61, 0
4, 359760, Note_on_c, 0, 54, 0
4, 359760, Note_on_c, 0, 56, 93
4, 359760, Note_on_c, 0, 61, 93
4, 359760, Note_on_c, 0, 66, 93
4, 359880, Note_on_c, 0, 66, 0
4, 359880, Note_on_c, 0, 61, 0
4, 359880, Note_on_c, 0, 56, 0
4, 359880, Note_on_c, 0, 56, 93
4, 359880, Note_on_c, 0, 61, 93
4, 359880, Note_on_c, 0, 66, 93
4, 360000, Note_on_c, 0, 66, 0
4, 360000, Note_on_c, 0, 61, 0
4, 360000, Note_on_c, 0, 56, 0
4, 360000, Note_on_c, 0, 57, 93
4, 360000, Note_on_c, 0, 61, 93
4, 360000, Note_on_c, 0, 66, 93
4, 360120, Note_on_c, 0, 66, 0
4, 360120, Note_on_c, 0, 61, 0
4, 360120, Note_on_c, 0, 57, 0
4, 360120, Note_on_c, 0, 57, 93
4, 360120, Note_on_c, 0, 61, 93
4, 360120, Note_on_c, 0, 66, 93
4, 360240, Note_on_c, 0, 66, 0
4, 360240, Note_on_c, 0, 61, 0
4, 360240, Note_on_c, 0, 57, 0
4, 360240, Note_on_c, 0, 54, 93
4, 360240, Note_on_c, 0, 61, 93
4, 360240, Note_on_c, 0, 66, 93
4, 360360, Note_on_c, 0, 66, 0
4, 360360, Note_on_c, 0, 61, 0
4, 360360, Note_on_c, 0, 54, 0
4, 360360, Control_c, 0, 64, 0
4, 360360, Note_on_c, 0, 54, 93
4, 360360, Note_on_c, 0, 61, 93
4, 360360, Note_on_c, 0, 66, 93
4, 360480, Note_on_c, 0, 66, 0
4, 360480, Note_on_c, 0, 61, 0
4, 360480, Note_on_c, 0, 54, 0
4, 360480, Control_c, 0, 64, 127
4, 360480, Note_on_c, 0, 44, 93
4, 360480, Note_on_c, 0, 56, 93
4, 360600, Note_on_c, 0, 56, 0
4, 360600, Note_on_c, 0, 44, 0
4, 360600, Note_on_c, 0, 56, 93
4, 360600, Note_on_c, 0, 62, 93
4, 360600, Note_on_c, 0, 65, 93
4, 360720, Note_on_c, 0, 65, 0
4, 360720, Note_on_c, 0, 62, 0
4, 360720, Note_on_c, 0, 56, 0
4, 360720, Note_on_c, 0, 56, 93
4, 360720, Note_on_c, 0, 61, 93
4, 360720, Note_on_c, 0, 65, 93
4, 360840, Note_on_c, 0, 65, 0
4, 360840, Note_on_c, 0, 61, 0
4, 360840, Note_on_c, 0, 56, 0
4, 360840, Note_on_c, 0, 56, 93
4, 360840, Note_on_c, 0, 61, 93
4, 360840, Note_on_c, 0, 65, 93
4, 360960, Note_on_c, 0, 65, 0
4, 360960, Note_on_c, 0, 61, 0
4, 360960, Note_on_c, 0, 56, 0
4, 360960, Note_on_c, 0, 56, 93
4, 360960, Note_on_c, 0, 59, 93
4, 360960, Note_on_c, 0, 65, 93
4, 361080, Note_on_c, 0, 65, 0
4, 361080, Note_on_c, 0, 59, 0
4, 361080, Note_on_c, 0, 56, 0
4, 361080, Note_on_c, 0, 56, 93
4, 361080, Note_on_c, 0, 59, 93
4, 361080, Note_on_c, 0, 65, 93
4, 361200, Note_on_c, 0, 65, 0
4, 361200, Note_on_c, 0, 59, 0
4, 361200, Note_on_c, 0, 56, 0
4, 361200, Note_on_c, 0, 56, 93
4, 361200, Note_on_c, 0, 62, 93
4, 361200, Note_on_c, 0, 65, 93
4, 361320, Note_on_c, 0, 65, 0
4, 361320, Note_on_c, 0, 62, 0
4, 361320, Note_on_c, 0, 56, 0
4, 361320, Control_c, 0, 64, 0
4, 361320, Note_on_c, 0, 56, 93
4, 361320, Note_on_c, 0, 62, 93
4, 361320, Note_on_c, 0, 65, 93
4, 361440, Note_on_c, 0, 65, 0
4, 361440, Note_on_c, 0, 62, 0
4, 361440, Note_on_c, 0, 56, 0
4, 361440, Control_c, 0, 64, 127
4, 361440, Note_on_c, 0, 42, 93
4, 361440, Note_on_c, 0, 54, 93
4, 361560, Note_on_c, 0, 54, 0
4, 361560, Note_on_c, 0, 42, 0
4, 361560, Note_on_c, 0, 54, 93
4, 361560, Note_on_c, 0, 56, 93
4, 361560, Note_on_c, 0, 66, 93
4, 361680, Note_on_c, 0, 66, 0
4, 361680, Note_on_c, 0, 56, 0
4, 361680, Note_on_c, 0, 54, 0
4, 361680, Note_on_c, 0, 54, 93
4, 361680, Note_on_c, 0, 58, 93
4, 361680, Note_on_c, 0, 66, 93
4, 361800, Note_on_c, 0, 66, 0
4, 361800, Note_on_c, 0, 58, 0
4, 361800, Note_on_c, 0, 54, 0
4, 361800, Note_on_c, 0, 54, 93
4, 361800, Note_on_c, 0, 58, 93
4, 361800, Note_on_c, 0, 66, 93
4, 361920, Note_on_c, 0, 66, 0
4, 361920, Note_on_c, 0, 58, 0
4, 361920, Note_on_c, 0, 54, 0
4, 361920, Note_on_c, 0, 54, 93
4, 361920, Note_on_c, 0, 59, 93
4, 361920, Note_on_c, 0, 66, 93
4, 362040, Note_on_c, 0, 66, 0
4, 362040, Note_on_c, 0, 59, 0
4, 362040, Note_on_c, 0, 54, 0
4, 362040, Note_on_c, 0, 54, 93
4, 362040, Note_on_c, 0, 59, 93
4, 362040, Note_on_c, 0, 66, 93
4, 362160, Note_on_c, 0, 66, 0
4, 362160, Note_on_c, 0, 59, 0
4, 362160, Note_on_c, 0, 54, 0
4, 362160, Note_on_c, 0, 54, 93
4, 362160, Note_on_c, 0, 59, 93
4, 362160, Note_on_c, 0, 66, 93
4, 362280, Note_on_c, 0, 66, 0
4, 362280, Note_on_c, 0, 59, 0
4, 362280, Note_on_c, 0, 54, 0
4, 362280, Control_c, 0, 64, 0
4, 362280, Note_on_c, 0, 54, 93
4, 362280, Note_on_c, 0, 59, 93
4, 362280, Note_on_c, 0, 66, 93
4, 362400, Note_on_c, 0, 66, 0
4, 362400, Note_on_c, 0, 59, 0
4, 362400, Note_on_c, 0, 54, 0
4, 362400, Control_c, 0, 64, 127
4, 362400, Note_on_c, 0, 40, 93
4, 362400, Note_on_c, 0, 52, 93
4, 362520, Note_on_c, 0, 52, 0
4, 362520, Note_on_c, 0, 40, 0
4, 362520, Note_on_c, 0, 52, 93
4, 362520, Note_on_c, 0, 59, 93
4, 362520, Note_on_c, 0, 62, 93
4, 362640, Note_on_c, 0, 62, 0
4, 362640, Note_on_c, 0, 59, 0
4, 362640, Note_on_c, 0, 52, 0
4, 362640, Note_on_c, 0, 54, 93
4, 362640, Note_on_c, 0, 59, 93
4, 362640, Note_on_c, 0, 62, 93
4, 362760, Note_on_c, 0, 62, 0
4, 362760, Note_on_c, 0, 59, 0
4, 362760, Note_on_c, 0, 54, 0
4, 362760, Note_on_c, 0, 54, 93
4, 362760, Note_on_c, 0, 59, 93
4, 362760, Note_on_c, 0, 62, 93
4, 362880, Note_on_c, 0, 62, 0
4, 362880, Note_on_c, 0, 59, 0
4, 362880, Note_on_c, 0, 54, 0
4, 362880, Note_on_c, 0, 55, 93
4, 362880, Note_on_c, 0, 59, 93
4, 362880, Note_on_c, 0, 64, 93
4, 363000, Note_on_c, 0, 64, 0
4, 363000, Note_on_c, 0, 59, 0
4, 363000, Note_on_c, 0, 55, 0
4, 363000, Note_on_c, 0, 55, 93
4, 363000, Note_on_c, 0, 59, 93
4, 363000, Note_on_c, 0, 64, 93
4, 363120, Note_on_c, 0, 64, 0
4, 363120, Note_on_c, 0, 59, 0
4, 363120, Note_on_c, 0, 55, 0
4, 363120, Note_on_c, 0, 55, 93
4, 363120, Note_on_c, 0, 59, 93
4, 363120, Note_on_c, 0, 64, 93
4, 363240, Note_on_c, 0, 64, 0
4, 363240, Note_on_c, 0, 59, 0
4, 363240, Note_on_c, 0, 55, 0
4, 363240, Control_c, 0, 64, 0
4, 363240, Note_on_c, 0, 55, 93
4, 363240, Note_on_c, 0, 59, 93
4, 363240, Note_on_c, 0, 64, 93
4, 363360, Note_on_c, 0, 64, 0
4, 363360, Note_on_c, 0, 59, 0
4, 363360, Note_on_c, 0, 55, 0
4, 363360, Control_c, 0, 64, 127
4, 363360, Note_on_c, 0, 38, 93
4, 363360, Note_on_c, 0, 50, 93
4, 363480, Note_on_c, 0, 50, 0
4, 363480, Note_on_c, 0, 38, 0
4, 363480, Note_on_c, 0, 52, 93
4, 363480, Note_on_c, 0, 55, 93
4, 363480, Note_on_c, 0, 59, 93
4, 363600, Note_on_c, 0, 59, 0
4, 363600, Note_on_c, 0, 55, 0
4, 363600, Note_on_c, 0, 52, 0
4, 363600, Note_on_c, 0, 55, 93
4, 363600, Note_on_c, 0, 59, 93
4, 363600, Note_on_c, 0, 64, 93
4, 363720, Note_on_c, 0, 64, 0
4, 363720, Note_on_c, 0, 59, 0
4, 363720, Note_on_c, 0, 55, 0
4, 363840, Note_on_c, 0, 37, 93
4, 363840, Note_on_c, 0, 49, 93
4, 363960, Note_on_c, 0, 49, 0
4, 363960, Note_on_c, 0, 37, 0
4, 363960, Note_on_c, 0, 52, 93
4, 363960, Note_on_c, 0, 55, 93
4, 363960, Note_on_c, 0, 59, 93
4, 364080, Note_on_c, 0, 59, 0
4, 364080, Note_on_c, 0, 55, 0
4, 364080, Note_on_c, 0, 52, 0
4, 364080, Note_on_c, 0, 52, 93
4, 364080, Note_on_c, 0, 55, 93
4, 364080, Note_on_c, 0, 61, 93
4, 364200, Note_on_c, 0, 61, 0
4, 364200, Note_on_c, 0, 55, 0
4, 364200, Note_on_c, 0, 52, 0
4, 364200, Control_c, 0, 64, 0
4, 364200, Note_on_c, 0, 52, 93
4, 364200, Note_on_c, 0, 55, 93
4, 364200, Note_on_c, 0, 64, 93
4, 364320, Note_on_c, 0, 64, 0
4, 364320, Note_on_c, 0, 55, 0
4, 364320, Note_on_c, 0, 52, 0
4, 364320, Control_c, 0, 64, 127
4, 364320, Note_on_c, 0, 38, 93
4, 364320, Note_on_c, 0, 45, 93
4, 364320, Note_on_c, 0, 50, 93
4, 364440, Note_on_c, 0, 50, 0
4, 364440, Note_on_c, 0, 45, 0
4, 364440, Note_on_c, 0, 38, 0
4, 364440, Note_on_c, 0, 54, 93
4, 364440, Note_on_c, 0, 57, 93
4, 364440, Note_on_c, 0, 62, 93
4, 364440, Note_on_c, 0, 66, 93
4, 364560, Note_on_c, 0, 66, 0
4, 364560, Note_on_c, 0, 54, 0
4, 364560, Note_on_c, 0, 57, 0
4, 364560, Note_on_c, 0, 62, 0
4, 364560, Note_on_c, 0, 54, 93
4, 364560, Note_on_c, 0, 57, 93
4, 364560, Note_on_c, 0, 62, 93
4, 364560, Note_on_c, 0, 66, 93
4, 364680, Note_on_c, 0, 66, 0
4, 364680, Note_on_c, 0, 54, 0
4, 364680, Note_on_c, 0, 57, 0
4, 364680, Note_on_c, 0, 62, 0
4, 364680, Note_on_c, 0, 54, 93
4, 364680, Note_on_c, 0, 57, 93
4, 364680, Note_on_c, 0, 62, 93
4, 364680, Note_on_c, 0, 66, 93
4, 364800, Note_on_c, 0, 66, 0
4, 364800, Note_on_c, 0, 54, 0
4, 364800, Note_on_c, 0, 57, 0
4, 364800, Note_on_c, 0, 62, 0
4, 364800, Note_on_c, 0, 54, 93
4, 364800, Note_on_c, 0, 57, 93
4, 364800, Note_on_c, 0, 62, 93
4, 364800, Note_on_c, 0, 66, 93
4, 364920, Note_on_c, 0, 66, 0
4, 364920, Note_on_c, 0, 54, 0
4, 364920, Note_on_c, 0, 57, 0
4, 364920, Note_on_c, 0, 62, 0
4, 364920, Note_on_c, 0, 54, 93
4, 364920, Note_on_c, 0, 57, 93
4, 364920, Note_on_c, 0, 62, 93
4, 364920, Note_on_c, 0, 66, 93
4, 365040, Note_on_c, 0, 66, 0
4, 365040, Note_on_c, 0, 54, 0
4, 365040, Note_on_c, 0, 57, 0
4, 365040, Note_on_c, 0, 62, 0
4, 365040, Note_on_c, 0, 54, 93
4, 365040, Note_on_c, 0, 57, 93
4, 365040, Note_on_c, 0, 62, 93
4, 365040, Note_on_c, 0, 66, 93
4, 365160, Note_on_c, 0, 66, 0
4, 365160, Note_on_c, 0, 54, 0
4, 365160, Note_on_c, 0, 57, 0
4, 365160, Note_on_c, 0, 62, 0
4, 365160, Control_c, 0, 64, 0
4, 365160, Note_on_c, 0, 54, 93
4, 365160, Note_on_c, 0, 57, 93
4, 365160, Note_on_c, 0, 62, 93
4, 365160, Note_on_c, 0, 66, 93
4, 365280, Note_on_c, 0, 66, 0
4, 365280, Note_on_c, 0, 54, 0
4, 365280, Note_on_c, 0, 57, 0
4, 365280, Note_on_c, 0, 62, 0
4, 365280, Control_c, 0, 64, 127
4, 365280, Note_on_c, 0, 49, 93
4, 365280, Note_on_c, 0, 57, 93
4, 365280, Note_on_c, 0, 61, 93
4, 365400, Note_on_c, 0, 61, 0
4, 365400, Note_on_c, 0, 57, 0
4, 365400, Note_on_c, 0, 49, 0
4, 365400, Note_on_c, 0, 52, 93
4, 365400, Note_on_c, 0, 61, 93
4, 365400, Note_on_c, 0, 64, 93
4, 365520, Note_on_c, 0, 64, 0
4, 365520, Note_on_c, 0, 61, 0
4, 365520, Note_on_c, 0, 52, 0
4, 365520, Note_on_c, 0, 52, 93
4, 365520, Note_on_c, 0, 61, 93
4, 365520, Note_on_c, 0, 64, 93
4, 365640, Note_on_c, 0, 64, 0
4, 365640, Note_on_c, 0, 61, 0
4, 365640, Note_on_c, 0, 52, 0
4, 365640, Note_on_c, 0, 52, 93
4, 365640, Note_on_c, 0, 61, 93
4, 365640, Note_on_c, 0, 64, 93
4, 365760, Note_on_c, 0, 64, 0
4, 365760, Note_on_c, 0, 61, 0
4, 365760, Note_on_c, 0, 52, 0
4, 365760, Note_on_c, 0, 54, 93
4, 365760, Note_on_c, 0, 61, 93
4, 365760, Note_on_c, 0, 66, 93
4, 365880, Note_on_c, 0, 66, 0
4, 365880, Note_on_c, 0, 61, 0
4, 365880, Note_on_c, 0, 54, 0
4, 365880, Note_on_c, 0, 54, 93
4, 365880, Note_on_c, 0, 61, 93
4, 365880, Note_on_c, 0, 66, 93
4, 366000, Note_on_c, 0, 66, 0
4, 366000, Note_on_c, 0, 61, 0
4, 366000, Note_on_c, 0, 54, 0
4, 366000, Note_on_c, 0, 55, 93
4, 366000, Note_on_c, 0, 61, 93
4, 366000, Note_on_c, 0, 67, 93
4, 366120, Note_on_c, 0, 67, 0
4, 366120, Note_on_c, 0, 61, 0
4, 366120, Note_on_c, 0, 55, 0
4, 366120, Control_c, 0, 64, 0
4, 366120, Note_on_c, 0, 55, 93
4, 366120, Note_on_c, 0, 61, 93
4, 366120, Note_on_c, 0, 67, 93
4, 366240, Note_on_c, 0, 67, 0
4, 366240, Note_on_c, 0, 61, 0
4, 366240, Note_on_c, 0, 55, 0
4, 366240, Control_c, 0, 64, 127
4, 366240, Note_on_c, 0, 47, 93
4, 366240, Note_on_c, 0, 54, 93
4, 366240, Note_on_c, 0, 59, 93
4, 366360, Note_on_c, 0, 59, 0
4, 366360, Note_on_c, 0, 54, 0
4, 366360, Note_on_c, 0, 47, 0
4, 366360, Note_on_c, 0, 54, 93
4, 366360, Note_on_c, 0, 62, 93
4, 366360, Note_on_c, 0, 66, 93
4, 366480, Note_on_c, 0, 66, 0
4, 366480, Note_on_c, 0, 62, 0
4, 366480, Note_on_c, 0, 54, 0
4, 366480, Note_on_c, 0, 54, 93
4, 366480, Note_on_c, 0, 61, 93
4, 366480, Note_on_c, 0, 66, 93
4, 366600, Note_on_c, 0, 66, 0
4, 366600, Note_on_c, 0, 61, 0
4, 366600, Note_on_c, 0, 54, 0
4, 366600, Note_on_c, 0, 54, 93
4, 366600, Note_on_c, 0, 61, 93
4, 366600, Note_on_c, 0, 66, 93
4, 366720, Note_on_c, 0, 66, 0
4, 366720, Note_on_c, 0, 61, 0
4, 366720, Note_on_c, 0, 54, 0
4, 366720, Note_on_c, 0, 54, 93
4, 366720, Note_on_c, 0, 59, 93
4, 366720, Note_on_c, 0, 66, 93
4, 366840, Note_on_c, 0, 66, 0
4, 366840, Note_on_c, 0, 59, 0
4, 366840, Note_on_c, 0, 54, 0
4, 366840, Note_on_c, 0, 54, 93
4, 366840, Note_on_c, 0, 59, 93
4, 366840, Note_on_c, 0, 66, 93
4, 366960, Note_on_c, 0, 66, 0
4, 366960, Note_on_c, 0, 59, 0
4, 366960, Note_on_c, 0, 54, 0
4, 366960, Note_on_c, 0, 54, 93
4, 366960, Note_on_c, 0, 62, 93
4, 366960, Note_on_c, 0, 66, 93
4, 367080, Note_on_c, 0, 66, 0
4, 367080, Note_on_c, 0, 62, 0
4, 367080, Note_on_c, 0, 54, 0
4, 367080, Control_c, 0, 64, 0
4, 367080, Note_on_c, 0, 54, 93
4, 367080, Note_on_c, 0, 62, 93
4, 367080, Note_on_c, 0, 66, 93
4, 367200, Note_on_c, 0, 66, 0
4, 367200, Note_on_c, 0, 62, 0
4, 367200, Note_on_c, 0, 54, 0
4, 367200, Control_c, 0, 64, 127
4, 367200, Note_on_c, 0, 45, 93
4, 367200, Note_on_c, 0, 54, 93
4, 367200, Note_on_c, 0, 57, 93
4, 367320, Note_on_c, 0, 57, 0
4, 367320, Note_on_c, 0, 54, 0
4, 367320, Note_on_c, 0, 45, 0
4, 367320, Note_on_c, 0, 54, 93
4, 367320, Note_on_c, 0, 61, 93
4, 367320, Note_on_c, 0, 66, 93
4, 367440, Note_on_c, 0, 66, 0
4, 367440, Note_on_c, 0, 61, 0
4, 367440, Note_on_c, 0, 54, 0
4, 367440, Note_on_c, 0, 56, 93
4, 367440, Note_on_c, 0, 61, 93
4, 367440, Note_on_c, 0, 66, 93
4, 367560, Note_on_c, 0, 66, 0
4, 367560, Note_on_c, 0, 61, 0
4, 367560, Note_on_c, 0, 56, 0
4, 367560, Note_on_c, 0, 56, 93
4, 367560, Note_on_c, 0, 61, 93
4, 367560, Note_on_c, 0, 66, 93
4, 367680, Note_on_c, 0, 66, 0
4, 367680, Note_on_c, 0, 61, 0
4, 367680, Note_on_c, 0, 56, 0
4, 367680, Note_on_c, 0, 57, 93
4, 367680, Note_on_c, 0, 61, 93
4, 367680, Note_on_c, 0, 66, 93
4, 367800, Note_on_c, 0, 66, 0
4, 367800, Note_on_c, 0, 61, 0
4, 367800, Note_on_c, 0, 57, 0
4, 367800, Note_on_c, 0, 57, 93
4, 367800, Note_on_c, 0, 61, 93
4, 367800, Note_on_c, 0, 66, 93
4, 367920, Note_on_c, 0, 66, 0
4, 367920, Note_on_c, 0, 61, 0
4, 367920, Note_on_c, 0, 57, 0
4, 367920, Note_on_c, 0, 54, 93
4, 367920, Note_on_c, 0, 61, 93
4, 367920, Note_on_c, 0, 66, 93
4, 368040, Note_on_c, 0, 66, 0
4, 368040, Note_on_c, 0, 61, 0
4, 368040, Note_on_c, 0, 54, 0
4, 368040, Control_c, 0, 64, 0
4, 368040, Note_on_c, 0, 54, 93
4, 368040, Note_on_c, 0, 61, 93
4, 368040, Note_on_c, 0, 66, 93
4, 368160, Note_on_c, 0, 66, 0
4, 368160, Note_on_c, 0, 61, 0
4, 368160, Note_on_c, 0, 54, 0
4, 368160, Control_c, 0, 64, 127
4, 368160, Note_on_c, 0, 44, 93
4, 368160, Note_on_c, 0, 56, 93
4, 368280, Note_on_c, 0, 56, 0
4, 368280, Note_on_c, 0, 44, 0
4, 368280, Note_on_c, 0, 56, 93
4, 368280, Note_on_c, 0, 62, 93
4, 368280, Note_on_c, 0, 65, 93
4, 368400, Note_on_c, 0, 65, 0
4, 368400, Note_on_c, 0, 62, 0
4, 368400, Note_on_c, 0, 56, 0
4, 368400, Note_on_c, 0, 56, 93
4, 368400, Note_on_c, 0, 61, 93
4, 368400, Note_on_c, 0, 65, 93
4, 368520, Note_on_c, 0, 65, 0
4, 368520, Note_on_c, 0, 61, 0
4, 368520, Note_on_c, 0, 56, 0
4, 368520, Note_on_c, 0, 56, 93
4, 368520, Note_on_c, 0, 61, 93
4, 368520, Note_on_c, 0, 65, 93
4, 368640, Note_on_c, 0, 65, 0
4, 368640, Note_on_c, 0, 61, 0
4, 368640, Note_on_c, 0, 56, 0
4, 368640, Note_on_c, 0, 56, 93
4, 368640, Note_on_c, 0, 59, 93
4, 368640, Note_on_c, 0, 65, 93
4, 368760, Note_on_c, 0, 65, 0
4, 368760, Note_on_c, 0, 59, 0
4, 368760, Note_on_c, 0, 56, 0
4, 368760, Note_on_c, 0, 56, 93
4, 368760, Note_on_c, 0, 59, 93
4, 368760, Note_on_c, 0, 65, 93
4, 368880, Note_on_c, 0, 65, 0
4, 368880, Note_on_c, 0, 59, 0
4, 368880, Note_on_c, 0, 56, 0
4, 368880, Note_on_c, 0, 56, 93
4, 368880, Note_on_c, 0, 62, 93
4, 368880, Note_on_c, 0, 65, 93
4, 369000, Note_on_c, 0, 65, 0
4, 369000, Note_on_c, 0, 62, 0
4, 369000, Note_on_c, 0, 56, 0
4, 369000, Control_c, 0, 64, 0
4, 369000, Note_on_c, 0, 56, 93
4, 369000, Note_on_c, 0, 62, 93
4, 369000, Note_on_c, 0, 65, 93
4, 369120, Note_on_c, 0, 65, 0
4, 369120, Note_on_c, 0, 62, 0
4, 369120, Note_on_c, 0, 56, 0
4, 369120, Control_c, 0, 64, 127
4, 369120, Note_on_c, 0, 42, 93
4, 369120, Note_on_c, 0, 54, 93
4, 369240, Note_on_c, 0, 54, 0
4, 369240, Note_on_c, 0, 42, 0
4, 369240, Note_on_c, 0, 54, 93
4, 369240, Note_on_c, 0, 56, 93
4, 369240, Note_on_c, 0, 66, 93
4, 369360, Note_on_c, 0, 66, 0
4, 369360, Note_on_c, 0, 56, 0
4, 369360, Note_on_c, 0, 54, 0
4, 369360, Note_on_c, 0, 54, 93
4, 369360, Note_on_c, 0, 58, 93
4, 369360, Note_on_c, 0, 66, 93
4, 369480, Note_on_c, 0, 66, 0
4, 369480, Note_on_c, 0, 58, 0
4, 369480, Note_on_c, 0, 54, 0
4, 369480, Note_on_c, 0, 54, 93
4, 369480, Note_on_c, 0, 58, 93
4, 369480, Note_on_c, 0, 66, 93
4, 369600, Note_on_c, 0, 66, 0
4, 369600, Note_on_c, 0, 58, 0
4, 369600, Note_on_c, 0, 54, 0
4, 369600, Note_on_c, 0, 54, 93
4, 369600, Note_on_c, 0, 59, 93
4, 369600, Note_on_c, 0, 66, 93
4, 369720, Note_on_c, 0, 66, 0
4, 369720, Note_on_c, 0, 59, 0
4, 369720, Note_on_c, 0, 54, 0
4, 369720, Note_on_c, 0, 54, 93
4, 369720, Note_on_c, 0, 59, 93
4, 369720, Note_on_c, 0, 66, 93
4, 369840, Note_on_c, 0, 66, 0
4, 369840, Note_on_c, 0, 59, 0
4, 369840, Note_on_c, 0, 54, 0
4, 369840, Note_on_c, 0, 54, 93
4, 369840, Note_on_c, 0, 62, 93
4, 369840, Note_on_c, 0, 66, 93
4, 369960, Note_on_c, 0, 66, 0
4, 369960, Note_on_c, 0, 62, 0
4, 369960, Note_on_c, 0, 54, 0
4, 369960, Control_c, 0, 64, 0
4, 369960, Note_on_c, 0, 54, 93
4, 369960, Note_on_c, 0, 62, 93
4, 369960, Note_on_c, 0, 66, 93
4, 370080, Note_on_c, 0, 66, 0
4, 370080, Note_on_c, 0, 62, 0
4, 370080, Note_on_c, 0, 54, 0
4, 370080, Control_c, 0, 64, 127
4, 370080, Note_on_c, 0, 40, 93
4, 370080, Note_on_c, 0, 52, 93
4, 370200, Note_on_c, 0, 52, 0
4, 370200, Note_on_c, 0, 40, 0
4, 370200, Note_on_c, 0, 54, 93
4, 370200, Note_on_c, 0, 59, 93
4, 370200, Note_on_c, 0, 64, 93
4, 370320, Note_on_c, 0, 64, 0
4, 370320, Note_on_c, 0, 59, 0
4, 370320, Note_on_c, 0, 54, 0
4, 370320, Note_on_c, 0, 54, 93
4, 370320, Note_on_c, 0, 59, 93
4, 370320, Note_on_c, 0, 64, 93
4, 370440, Note_on_c, 0, 64, 0
4, 370440, Note_on_c, 0, 59, 0
4, 370440, Note_on_c, 0, 54, 0
4, 370440, Note_on_c, 0, 54, 93
4, 370440, Note_on_c, 0, 59, 93
4, 370440, Note_on_c, 0, 64, 93
4, 370560, Note_on_c, 0, 64, 0
4, 370560, Note_on_c, 0, 59, 0
4, 370560, Note_on_c, 0, 54, 0
4, 370560, Note_on_c, 0, 55, 93
4, 370560, Note_on_c, 0, 59, 93
4, 370560, Note_on_c, 0, 64, 93
4, 370680, Note_on_c, 0, 64, 0
4, 370680, Note_on_c, 0, 59, 0
4, 370680, Note_on_c, 0, 55, 0
4, 370680, Note_on_c, 0, 55, 93
4, 370680, Note_on_c, 0, 59, 93
4, 370680, Note_on_c, 0, 64, 93
4, 370800, Note_on_c, 0, 64, 0
4, 370800, Note_on_c, 0, 59, 0
4, 370800, Note_on_c, 0, 55, 0
4, 370800, Note_on_c, 0, 55, 93
4, 370800, Note_on_c, 0, 59, 93
4, 370800, Note_on_c, 0, 64, 93
4, 370920, Note_on_c, 0, 64, 0
4, 370920, Note_on_c, 0, 59, 0
4, 370920, Note_on_c, 0, 55, 0
4, 370920, Control_c, 0, 64, 0
4, 370920, Note_on_c, 0, 55, 93
4, 370920, Note_on_c, 0, 59, 93
4, 370920, Note_on_c, 0, 64, 93
4, 371040, Note_on_c, 0, 64, 0
4, 371040, Note_on_c, 0, 59, 0
4, 371040, Note_on_c, 0, 55, 0
4, 371040, Control_c, 0, 64, 127
4, 371040, Note_on_c, 0, 38, 93
4, 371040, Note_on_c, 0, 50, 93
4, 371160, Note_on_c, 0, 50, 0
4, 371160, Note_on_c, 0, 38, 0
4, 371160, Note_on_c, 0, 55, 93
4, 371160, Note_on_c, 0, 59, 93
4, 371160, Note_on_c, 0, 65, 93
4, 371280, Note_on_c, 0, 65, 0
4, 371280, Note_on_c, 0, 59, 0
4, 371280, Note_on_c, 0, 55, 0
4, 371280, Note_on_c, 0, 55, 93
4, 371280, Note_on_c, 0, 59, 93
4, 371280, Note_on_c, 0, 65, 93
4, 371400, Note_on_c, 0, 65, 0
4, 371400, Note_on_c, 0, 59, 0
4, 371400, Note_on_c, 0, 55, 0
4, 371400, Note_on_c, 0, 55, 93
4, 371400, Note_on_c, 0, 59, 93
4, 371400, Note_on_c, 0, 65, 93
4, 371520, Note_on_c, 0, 65, 0
4, 371520, Note_on_c, 0, 59, 0
4, 371520, Note_on_c, 0, 55, 0
4, 371520, Note_on_c, 0, 56, 93
4, 371520, Note_on_c, 0, 59, 93
4, 371520, Note_on_c, 0, 65, 93
4, 371640, Note_on_c, 0, 65, 0
4, 371640, Note_on_c, 0, 59, 0
4, 371640, Note_on_c, 0, 56, 0
4, 371640, Note_on_c, 0, 56, 93
4, 371640, Note_on_c, 0, 59, 93
4, 371640, Note_on_c, 0, 65, 93
4, 371760, Note_on_c, 0, 65, 0
4, 371760, Note_on_c, 0, 59, 0
4, 371760, Note_on_c, 0, 56, 0
4, 371760, Note_on_c, 0, 56, 93
4, 371760, Note_on_c, 0, 59, 93
4, 371760, Note_on_c, 0, 65, 93
4, 371880, Note_on_c, 0, 65, 0
4, 371880, Note_on_c, 0, 59, 0
4, 371880, Note_on_c, 0, 56, 0
4, 371880, Control_c, 0, 64, 0
4, 371880, Note_on_c, 0, 56, 93
4, 371880, Note_on_c, 0, 59, 93
4, 371880, Note_on_c, 0, 65, 93
4, 372000, Note_on_c, 0, 65, 0
4, 372000, Note_on_c, 0, 59, 0
4, 372000, Note_on_c, 0, 56, 0
4, 372000, Control_c, 0, 64, 127
4, 372000, Note_on_c, 0, 37, 93
4, 372000, Note_on_c, 0, 49, 93
4, 372120, Note_on_c, 0, 49, 0
4, 372120, Note_on_c, 0, 37, 0
4, 372120, Note_on_c, 0, 56, 93
4, 372120, Note_on_c, 0, 61, 93
4, 372120, Note_on_c, 0, 66, 93
4, 372240, Note_on_c, 0, 66, 0
4, 372240, Note_on_c, 0, 61, 0
4, 372240, Note_on_c, 0, 56, 0
4, 372240, Note_on_c, 0, 57, 93
4, 372240, Note_on_c, 0, 61, 93
4, 372240, Note_on_c, 0, 66, 93
4, 372360, Note_on_c, 0, 66, 0
4, 372360, Note_on_c, 0, 61, 0
4, 372360, Note_on_c, 0, 57, 0
4, 372360, Note_on_c, 0, 57, 93
4, 372360, Note_on_c, 0, 61, 93
4, 372360, Note_on_c, 0, 66, 93
4, 372480, Note_on_c, 0, 66, 0
4, 372480, Note_on_c, 0, 61, 0
4, 372480, Note_on_c, 0, 57, 0
4, 372480, Note_on_c, 0, 57, 93
4, 372480, Note_on_c, 0, 61, 93
4, 372480, Note_on_c, 0, 66, 93
4, 372600, Note_on_c, 0, 66, 0
4, 372600, Note_on_c, 0, 61, 0
4, 372600, Note_on_c, 0, 57, 0
4, 372600, Note_on_c, 0, 57, 93
4, 372600, Note_on_c, 0, 61, 93
4, 372600, Note_on_c, 0, 66, 93
4, 372720, Note_on_c, 0, 66, 0
4, 372720, Note_on_c, 0, 61, 0
4, 372720, Note_on_c, 0, 57, 0
4, 372720, Note_on_c, 0, 57, 93
4, 372720, Note_on_c, 0, 61, 93
4, 372720, Note_on_c, 0, 66, 93
4, 372840, Note_on_c, 0, 66, 0
4, 372840, Note_on_c, 0, 61, 0
4, 372840, Note_on_c, 0, 57, 0
4, 372840, Control_c, 0, 64, 0
4, 372840, Note_on_c, 0, 57, 93
4, 372840, Note_on_c, 0, 61, 93
4, 372840, Note_on_c, 0, 66, 93
4, 372960, Note_on_c, 0, 66, 0
4, 372960, Note_on_c, 0, 61, 0
4, 372960, Note_on_c, 0, 57, 0
4, 372960, Control_c, 0, 64, 127
4, 372960, Note_on_c, 0, 36, 93
4, 372960, Note_on_c, 0, 48, 93
4, 373080, Note_on_c, 0, 48, 0
4, 373080, Note_on_c, 0, 36, 0
4, 373080, Note_on_c, 0, 57, 93
4, 373080, Note_on_c, 0, 62, 93
4, 373080, Note_on_c, 0, 66, 93
4, 373200, Note_on_c, 0, 66, 0
4, 373200, Note_on_c, 0, 62, 0
4, 373200, Note_on_c, 0, 57, 0
4, 373200, Note_on_c, 0, 58, 93
4, 373200, Note_on_c, 0, 62, 93
4, 373200, Note_on_c, 0, 66, 93
4, 373320, Note_on_c, 0, 66, 0
4, 373320, Note_on_c, 0, 62, 0
4, 373320, Note_on_c, 0, 58, 0
4, 373320, Note_on_c, 0, 58, 93
4, 373320, Note_on_c, 0, 62, 93
4, 373320, Note_on_c, 0, 66, 93
4, 373440, Note_on_c, 0, 66, 0
4, 373440, Note_on_c, 0, 62, 0
4, 373440, Note_on_c, 0, 58, 0
4, 373440, Note_on_c, 0, 58, 93
4, 373440, Note_on_c, 0, 62, 93
4, 373440, Note_on_c, 0, 66, 93
4, 373560, Note_on_c, 0, 66, 0
4, 373560, Note_on_c, 0, 62, 0
4, 373560, Note_on_c, 0, 58, 0
4, 373560, Note_on_c, 0, 58, 93
4, 373560, Note_on_c, 0, 62, 93
4, 373560, Note_on_c, 0, 66, 93
4, 373680, Note_on_c, 0, 66, 0
4, 373680, Note_on_c, 0, 62, 0
4, 373680, Note_on_c, 0, 58, 0
4, 373680, Note_on_c, 0, 58, 93
4, 373680, Note_on_c, 0, 62, 93
4, 373680, Note_on_c, 0, 66, 93
4, 373800, Note_on_c, 0, 66, 0
4, 373800, Note_on_c, 0, 62, 0
4, 373800, Note_on_c, 0, 58, 0
4, 373800, Control_c, 0, 64, 0
4, 373800, Note_on_c, 0, 58, 93
4, 373800, Note_on_c, 0, 62, 93
4, 373800, Note_on_c, 0, 66, 93
4, 373920, Note_on_c, 0, 66, 0
4, 373920, Note_on_c, 0, 62, 0
4, 373920, Note_on_c, 0, 58, 0
4, 373920, Control_c, 0, 64, 127
4, 373920, Note_on_c, 0, 35, 93
4, 373920, Note_on_c, 0, 47, 93
4, 374040, Note_on_c, 0, 47, 0
4, 374040, Note_on_c, 0, 35, 0
4, 374040, Note_on_c, 0, 54, 93
4, 374040, Note_on_c, 0, 63, 93
4, 374040, Note_on_c, 0, 66, 93
4, 374160, Note_on_c, 0, 66, 0
4, 374160, Note_on_c, 0, 63, 0
4, 374160, Note_on_c, 0, 54, 0
4, 374160, Note_on_c, 0, 54, 93
4, 374160, Note_on_c, 0, 63, 93
4, 374160, Note_on_c, 0, 66, 93
4, 374280, Note_on_c, 0, 66, 0
4, 374280, Note_on_c, 0, 63, 0
4, 374280, Note_on_c, 0, 54, 0
4, 374280, Control_c, 0, 64, 0
4, 374280, Note_on_c, 0, 54, 93
4, 374280, Note_on_c, 0, 63, 93
4, 374280, Note_on_c, 0, 66, 93
4, 374400, Note_on_c, 0, 66, 0
4, 374400, Note_on_c, 0, 63, 0
4, 374400, Note_on_c, 0, 54, 0
4, 374400, Control_c, 0, 64, 127
4, 374400, Note_on_c, 0, 33, 93
4, 374400, Note_on_c, 0, 45, 93
4, 374520, Note_on_c, 0, 45, 0
4, 374520, Note_on_c, 0, 33, 0
4, 374520, Note_on_c, 0, 54, 93
4, 374520, Note_on_c, 0, 63, 93
4, 374520, Note_on_c, 0, 66, 93
4, 374640, Note_on_c, 0, 66, 0
4, 374640, Note_on_c, 0, 63, 0
4, 374640, Note_on_c, 0, 54, 0
4, 374640, Note_on_c, 0, 54, 93
4, 374640, Note_on_c, 0, 63, 93
4, 374640, Note_on_c, 0, 66, 93
4, 374760, Note_on_c, 0, 66, 0
4, 374760, Note_on_c, 0, 63, 0
4, 374760, Note_on_c, 0, 54, 0
4, 374760, Control_c, 0, 64, 0
4, 374760, Note_on_c, 0, 54, 93
4, 374760, Note_on_c, 0, 63, 93
4, 374760, Note_on_c, 0, 66, 93
4, 374880, Note_on_c, 0, 66, 0
4, 374880, Note_on_c, 0, 63, 0
4, 374880, Note_on_c, 0, 54, 0
4, 374880, Control_c, 0, 64, 127
4, 374880, Note_on_c, 0, 32, 93
4, 374880, Note_on_c, 0, 44, 93
4, 375000, Note_on_c, 0, 44, 0
4, 375000, Note_on_c, 0, 32, 0
4, 375000, Note_on_c, 0, 56, 93
4, 375000, Note_on_c, 0, 59, 93
4, 375000, Note_on_c, 0, 64, 93
4, 375120, Note_on_c, 0, 64, 0
4, 375120, Note_on_c, 0, 59, 0
4, 375120, Note_on_c, 0, 56, 0
4, 375120, Note_on_c, 0, 56, 93
4, 375120, Note_on_c, 0, 59, 93
4, 375120, Note_on_c, 0, 64, 93
4, 375240, Note_on_c, 0, 64, 0
4, 375240, Note_on_c, 0, 59, 0
4, 375240, Note_on_c, 0, 56, 0
4, 375240, Control_c, 0, 64, 0
4, 375240, Note_on_c, 0, 56, 93
4, 375240, Note_on_c, 0, 59, 93
4, 375240, Note_on_c, 0, 64, 93
4, 375360, Note_on_c, 0, 64, 0
4, 375360, Note_on_c, 0, 59, 0
4, 375360, Note_on_c, 0, 56, 0
4, 375360, Control_c, 0, 64, 127
4, 375360, Note_on_c, 0, 31, 93
4, 375360, Note_on_c, 0, 43, 93
4, 375480, Note_on_c, 0, 43, 0
4, 375480, Note_on_c, 0, 31, 0
4, 375480, Note_on_c, 0, 55, 93
4, 375480, Note_on_c, 0, 58, 93
4, 375480, Note_on_c, 0, 64, 93
4, 375600, Note_on_c, 0, 64, 0
4, 375600, Note_on_c, 0, 58, 0
4, 375600, Note_on_c, 0, 55, 0
4, 375600, Note_on_c, 0, 55, 93
4, 375600, Note_on_c, 0, 58, 93
4, 375600, Note_on_c, 0, 64, 93
4, 375720, Note_on_c, 0, 64, 0
4, 375720, Note_on_c, 0, 58, 0
4, 375720, Note_on_c, 0, 55, 0
4, 375720, Control_c, 0, 64, 0
4, 375720, Note_on_c, 0, 55, 93
4, 375720, Note_on_c, 0, 58, 93
4, 375720, Note_on_c, 0, 64, 93
4, 375840, Note_on_c, 0, 64, 0
4, 375840, Note_on_c, 0, 58, 0
4, 375840, Note_on_c, 0, 55, 0
4, 375840, Control_c, 0, 64, 127
4, 375840, Note_on_c, 0, 30, 93
4, 375840, Note_on_c, 0, 42, 93
4, 375960, Note_on_c, 0, 42, 0
4, 375960, Note_on_c, 0, 30, 0
4, 375960, Note_on_c, 0, 54, 93
4, 375960, Note_on_c, 0, 58, 93
4, 375960, Note_on_c, 0, 64, 93
4, 376080, Note_on_c, 0, 64, 0
4, 376080, Note_on_c, 0, 58, 0
4, 376080, Note_on_c, 0, 54, 0
4, 376080, Note_on_c, 0, 54, 93
4, 376080, Note_on_c, 0, 58, 93
4, 376080, Note_on_c, 0, 64, 93
4, 376200, Note_on_c, 0, 64, 0
4, 376200, Note_on_c, 0, 58, 0
4, 376200, Note_on_c, 0, 54, 0
4, 376200, Note_on_c, 0, 54, 93
4, 376200, Note_on_c, 0, 58, 93
4, 376200, Note_on_c, 0, 64, 93
4, 376320, Note_on_c, 0, 64, 0
4, 376320, Note_on_c, 0, 58, 0
4, 376320, Note_on_c, 0, 54, 0
4, 376320, Note_on_c, 0, 54, 93
4, 376320, Note_on_c, 0, 58, 93
4, 376320, Note_on_c, 0, 64, 93
4, 376440, Note_on_c, 0, 64, 0
4, 376440, Note_on_c, 0, 58, 0
4, 376440, Note_on_c, 0, 54, 0
4, 376440, Note_on_c, 0, 54, 93
4, 376440, Note_on_c, 0, 58, 93
4, 376440, Note_on_c, 0, 64, 93
4, 376560, Note_on_c, 0, 64, 0
4, 376560, Note_on_c, 0, 58, 0
4, 376560, Note_on_c, 0, 54, 0
4, 376560, Note_on_c, 0, 54, 93
4, 376560, Note_on_c, 0, 58, 93
4, 376560, Note_on_c, 0, 64, 93
4, 376680, Note_on_c, 0, 64, 0
4, 376680, Note_on_c, 0, 58, 0
4, 376680, Note_on_c, 0, 54, 0
4, 376680, Control_c, 0, 64, 0
4, 376680, Note_on_c, 0, 54, 93
4, 376680, Note_on_c, 0, 58, 93
4, 376680, Note_on_c, 0, 64, 93
4, 376800, Note_on_c, 0, 64, 0
4, 376800, Note_on_c, 0, 58, 0
4, 376800, Note_on_c, 0, 54, 0
4, 376800, Control_c, 0, 64, 127
4, 376800, Note_on_c, 0, 29, 93
4, 376800, Note_on_c, 0, 41, 93
4, 376920, Note_on_c, 0, 41, 0
4, 376920, Note_on_c, 0, 29, 0
4, 376920, Note_on_c, 0, 56, 93
4, 376920, Note_on_c, 0, 59, 93
4, 376920, Note_on_c, 0, 61, 93
4, 377040, Note_on_c, 0, 61, 0
4, 377040, Note_on_c, 0, 59, 0
4, 377040, Note_on_c, 0, 56, 0
4, 377040, Note_on_c, 0, 56, 93
4, 377040, Note_on_c, 0, 59, 93
4, 377040, Note_on_c, 0, 62, 93
4, 377160, Note_on_c, 0, 62, 0
4, 377160, Note_on_c, 0, 59, 0
4, 377160, Note_on_c, 0, 56, 0
4, 377160, Note_on_c, 0, 56, 93
4, 377160, Note_on_c, 0, 59, 93
4, 377160, Note_on_c, 0, 62, 93
4, 377280, Note_on_c, 0, 62, 0
4, 377280, Note_on_c, 0, 59, 0
4, 377280, Note_on_c, 0, 56, 0
4, 377280, Note_on_c, 0, 56, 93
4, 377280, Note_on_c, 0, 59, 93
4, 377280, Note_on_c, 0, 62, 93
4, 377400, Note_on_c, 0, 62, 0
4, 377400, Note_on_c, 0, 59, 0
4, 377400, Note_on_c, 0, 56, 0
4, 377400, Note_on_c, 0, 56, 93
4, 377400, Note_on_c, 0, 59, 93
4, 377400, Note_on_c, 0, 62, 93
4, 377520, Note_on_c, 0, 62, 0
4, 377520, Note_on_c, 0, 59, 0
4, 377520, Note_on_c, 0, 56, 0
4, 377520, Note_on_c, 0, 56, 93
4, 377520, Note_on_c, 0, 59, 93
4, 377520, Note_on_c, 0, 62, 93
4, 377640, Note_on_c, 0, 62, 0
4, 377640, Note_on_c, 0, 59, 0
4, 377640, Note_on_c, 0, 56, 0
4, 377640, Control_c, 0, 64, 0
4, 377640, Note_on_c, 0, 56, 93
4, 377640, Note_on_c, 0, 59, 93
4, 377640, Note_on_c, 0, 62, 93
4, 377760, Note_on_c, 0, 62, 0
4, 377760, Note_on_c, 0, 59, 0
4, 377760, Note_on_c, 0, 56, 0
4, 377760, Control_c, 0, 64, 127
4, 377760, Note_on_c, 0, 30, 106
4, 377760, Note_on_c, 0, 42, 106
4, 377880, Note_on_c, 0, 42, 0
4, 377880, Note_on_c, 0, 30, 0
4, 377880, Note_on_c, 0, 47, 106
4, 377880, Note_on_c, 0, 50, 106
4, 377880, Note_on_c, 0, 54, 106
4, 378000, Note_on_c, 0, 54, 0
4, 378000, Note_on_c, 0, 50, 0
4, 378000, Note_on_c, 0, 47, 0
4, 378000, Note_on_c, 0, 50, 106
4, 378000, Note_on_c, 0, 54, 106
4, 378000, Note_on_c, 0, 59, 106
4, 378120, Note_on_c, 0, 59, 0
4, 378120, Note_on_c, 0, 54, 0
4, 378120, Note_on_c, 0, 50, 0
4, 378120, Note_on_c, 0, 54, 106
4, 378120, Note_on_c, 0, 59, 106
4, 378120, Note_on_c, 0, 62, 106
4, 378240, Note_on_c, 0, 62, 0
4, 378240, Note_on_c, 0, 59, 0
4, 378240, Note_on_c, 0, 54, 0
4, 378240, Control_c, 0, 64, 0
4, 378240, Note_on_c, 0, 59, 106
4, 378240, Note_on_c, 0, 62, 106
4, 378240, Note_on_c, 0, 66, 106
4, 378360, Note_on_c, 0, 66, 0
4, 378360, Note_on_c, 0, 62, 0
4, 378360, Note_on_c, 0, 59, 0
4, 378360, Note_on_c, 0, 30, 106
4, 378360, Note_on_c, 0, 42, 106
4, 378480, Note_on_c, 0, 42, 0
4, 378480, Note_on_c, 0, 30, 0
4, 378480, Note_on_c, 0, 32, 106
4, 378480, Note_on_c, 0, 44, 106
4, 378600, Note_on_c, 0, 44, 0
4, 378600, Note_on_c, 0, 32, 0
4, 378600, Note_on_c, 0, 56, 106
4, 378600, Note_on_c, 0, 59, 106
4, 378600, Note_on_c, 0, 62, 106
4, 378720, Note_on_c, 0, 62, 0
4, 378720, Note_on_c, 0, 59, 0
4, 378720, Note_on_c, 0, 56, 0
4, 378720, Control_c, 0, 64, 127
4, 378720, Note_on_c, 0, 33, 106
4, 378720, Note_on_c, 0, 45, 106
4, 378840, Note_on_c, 0, 45, 0
4, 378840, Note_on_c, 0, 33, 0
4, 378840, Note_on_c, 0, 52, 106
4, 378840, Note_on_c, 0, 57, 106
4, 378840, Note_on_c, 0, 61, 106
4, 378960, Note_on_c, 0, 61, 0
4, 378960, Note_on_c, 0, 57, 0
4, 378960, Note_on_c, 0, 52, 0
4, 378960, Note_on_c, 0, 52, 106
4, 378960, Note_on_c, 0, 57, 106
4, 378960, Note_on_c, 0, 61, 106
4, 379080, Note_on_c, 0, 61, 0
4, 379080, Note_on_c, 0, 57, 0
4, 379080, Note_on_c, 0, 52, 0
4, 379080, Control_c, 0, 64, 0
4, 379080, Note_on_c, 0, 52, 106
4, 379080, Note_on_c, 0, 57, 106
4, 379080, Note_on_c, 0, 61, 106
4, 379200, Note_on_c, 0, 61, 0
4, 379200, Note_on_c, 0, 57, 0
4, 379200, Note_on_c, 0, 52, 0
4, 379200, Note_on_c, 0, 35, 106
4, 379200, Note_on_c, 0, 47, 106
4, 379320, Note_on_c, 0, 47, 0
4, 379320, Note_on_c, 0, 35, 0
4, 379320, Note_on_c, 0, 50, 106
4, 379320, Note_on_c, 0, 55, 106
4, 379320, Note_on_c, 0, 62, 106
4, 379440, Note_on_c, 0, 62, 0
4, 379440, Note_on_c, 0, 55, 0
4, 379440, Note_on_c, 0, 50, 0
4, 379440, Note_on_c, 0, 37, 106
4, 379440, Note_on_c, 0, 49, 106
4, 379560, Note_on_c, 0, 49, 0
4, 379560, Note_on_c, 0, 37, 0
4, 379560, Note_on_c, 0, 52, 106
4, 379560, Note_on_c, 0, 57, 106
4, 379560, Note_on_c, 0, 64, 106
4, 379680, Note_on_c, 0, 64, 0
4, 379680, Note_on_c, 0, 57, 0
4, 379680, Note_on_c, 0, 52, 0
4, 379680, Control_c, 0, 64, 127
4, 379680, Note_on_c, 0, 38, 93
4, 379680, Note_on_c, 0, 50, 93
4, 379800, Note_on_c, 0, 50, 0
4, 379800, Note_on_c, 0, 38, 0
4, 379800, Note_on_c, 0, 43, 93
4, 379800, Note_on_c, 0, 47, 93
4, 379800, Note_on_c, 0, 50, 93
4, 379920, Note_on_c, 0, 50, 0
4, 379920, Note_on_c, 0, 47, 0
4, 379920, Note_on_c, 0, 43, 0
4, 379920, Note_on_c, 0, 47, 93
4, 379920, Note_on_c, 0, 50, 93
4, 379920, Note_on_c, 0, 55, 93
4, 380040, Note_on_c, 0, 55, 0
4, 380040, Note_on_c, 0, 50, 0
4, 380040, Note_on_c, 0, 47, 0
4, 380040, Note_on_c, 0, 50, 93
4, 380040, Note_on_c, 0, 55, 93
4, 380040, Note_on_c, 0, 59, 93
4, 380160, Note_on_c, 0, 59, 0
4, 380160, Note_on_c, 0, 55, 0
4, 380160, Note_on_c, 0, 50, 0
4, 380160, Control_c, 0, 64, 0
4, 380160, Note_on_c, 0, 55, 93
4, 380160, Note_on_c, 0, 59, 93
4, 380160, Note_on_c, 0, 62, 93
4, 380280, Note_on_c, 0, 62, 0
4, 380280, Note_on_c, 0, 59, 0
4, 380280, Note_on_c, 0, 55, 0
4, 380280, Note_on_c, 0, 38, 93
4, 380280, Note_on_c, 0, 50, 93
4, 380400, Note_on_c, 0, 50, 0
4, 380400, Note_on_c, 0, 38, 0
4, 380400, Note_on_c, 0, 40, 93
4, 380400, Note_on_c, 0, 52, 93
4, 380520, Note_on_c, 0, 52, 0
4, 380520, Note_on_c, 0, 40, 0
4, 380520, Note_on_c, 0, 55, 93
4, 380520, Note_on_c, 0, 59, 93
4, 380520, Note_on_c, 0, 62, 93
4, 380640, Note_on_c, 0, 62, 0
4, 380640, Note_on_c, 0, 59, 0
4, 380640, Note_on_c, 0, 55, 0
4, 380640, Control_c, 0, 64, 127
4, 380640, Note_on_c, 0, 42, 80
4, 380640, Note_on_c, 0, 54, 80
4, 380760, Note_on_c, 0, 54, 0
4, 380760, Note_on_c, 0, 42, 0
4, 380760, Note_on_c, 0, 54, 80
4, 380760, Note_on_c, 0, 58, 80
4, 380760, Note_on_c, 0, 64, 80
4, 380880, Note_on_c, 0, 64, 0
4, 380880, Note_on_c, 0, 58, 0
4, 380880, Note_on_c, 0, 54, 0
4, 380880, Note_on_c, 0, 54, 67
4, 380880, Note_on_c, 0, 58, 67
4, 380880, Note_on_c, 0, 64, 67
4, 381000, Note_on_c, 0, 64, 0
4, 381000, Note_on_c, 0, 58, 0
4, 381000, Note_on_c, 0, 54, 0
4, 381000, Control_c, 0, 64, 0
4, 381000, Note_on_c, 0, 54, 67
4, 381000, Note_on_c, 0, 58, 67
4, 381000, Note_on_c, 0, 64, 67
4, 381120, Note_on_c, 0, 64, 0
4, 381120, Note_on_c, 0, 58, 0
4, 381120, Note_on_c, 0, 54, 0
4, 381120, Note_on_c, 0, 44, 67
4, 381120, Note_on_c, 0, 56, 67
4, 381240, Note_on_c, 0, 56, 0
4, 381240, Note_on_c, 0, 44, 0
4, 381240, Note_on_c, 0, 56, 67
4, 381240, Note_on_c, 0, 59, 67
4, 381240, Note_on_c, 0, 64, 67
4, 381360, Note_on_c, 0, 64, 0
4, 381360, Note_on_c, 0, 59, 0
4, 381360, Note_on_c, 0, 56, 0
4, 381360, Note_on_c, 0, 46, 67
4, 381360, Note_on_c, 0, 58, 67
4, 381480, Note_on_c, 0, 58, 0
4, 381480, Note_on_c, 0, 46, 0
4, 381480, Note_on_c, 0, 58, 67
4, 381480, Note_on_c, 0, 61, 67
4, 381480, Note_on_c, 0, 64, 67
4, 381600, Note_on_c, 0, 64, 0
4, 381600, Note_on_c, 0, 61, 0
4, 381600, Note_on_c, 0, 58, 0
4, 381600, Control_c, 0, 64, 127
4, 381600, Note_on_c, 0, 47, 80
4, 381600, Note_on_c, 0, 59, 80
4, 381720, Note_on_c, 0, 59, 0
4, 381720, Note_on_c, 0, 47, 0
4, 381720, Note_on_c, 0, 47, 80
4, 381720, Note_on_c, 0, 52, 80
4, 381720, Note_on_c, 0, 55, 80
4, 381840, Note_on_c, 0, 55, 0
4, 381840, Note_on_c, 0, 52, 0
4, 381840, Note_on_c, 0, 47, 0
4, 381840, Note_on_c, 0, 47, 80
4, 381840, Note_on_c, 0, 52, 80
4, 381840, Note_on_c, 0, 55, 80
4, 381960, Note_on_c, 0, 55, 0
4, 381960, Note_on_c, 0, 52, 0
4, 381960, Note_on_c, 0, 47, 0
4, 381960, Note_on_c, 0, 52, 80
4, 381960, Note_on_c, 0, 55, 80
4, 381960, Note_on_c, 0, 59, 80
4, 382080, Note_on_c, 0, 59, 0
4, 382080, Note_on_c, 0, 55, 0
4, 382080, Note_on_c, 0, 52, 0
4, 382080, Note_on_c, 0, 52, 80
4, 382080, Note_on_c, 0, 55, 80
4, 382080, Note_on_c, 0, 59, 80
4, 382239, Note_on_c, 0, 55, 0
4, 382239, Note_on_c, 0, 52, 0
4, 382239, Note_on_c, 0, 52, 80
4, 382239, Note_on_c, 0, 55, 80
4, 382400, Note_on_c, 0, 59, 0
4, 382400, Control_c, 0, 64, 0
4, 382400, Note_on_c, 0, 61, 80
4, 382560, Note_on_c, 0, 61, 0
4, 382560, Note_on_c, 0, 55, 0
4, 382560, Note_on_c, 0, 52, 0
4, 382560, Note_on_c, 0, 35, 67
4, 382560, Note_on_c, 0, 47, 67
4, 383040, Note_on_c, 0, 47, 0
4, 383040, Note_on_c, 0, 35, 0
4, 383040, Note_on_c, 0, 34, 67
4, 383040, Note_on_c, 0, 46, 67
4, 383520, Note_on_c, 0, 46, 0
4, 383520, Note_on_c, 0, 34, 0
4, 384240, Note_on_c, 0, 54, 54
4, 384960, Note_on_c, 0, 54, 0
4, 384960, Note_on_c, 0, 53, 54
4, 384960, Note_on_c, 0, 59, 54
4, 385680, Note_on_c, 0, 59, 0
4, 385680, Note_on_c, 0, 53, 0
4, 385680, Note_on_c, 0, 52, 54
4, 385680, Note_on_c, 0, 57, 54
4, 386400, Note_on_c, 0, 57, 0
4, 386400, Note_on_c, 0, 52, 0
4, 386400, Note_on_c, 0, 50, 54
4, 386400, Note_on_c, 0, 57, 54
4, 387120, Note_on_c, 0, 57, 0
4, 387120, Note_on_c, 0, 50, 0
4, 387120, Note_on_c, 0, 54, 54
4, 387840, Note_on_c, 0, 54, 0
4, 387840, Note_on_c, 0, 53, 54
4, 387840, Note_on_c, 0, 59, 54
4, 388560, Note_on_c, 0, 59, 0
4, 388560, Note_on_c, 0, 53, 0
4, 388560, Note_on_c, 0, 52, 54
4, 388560, Note_on_c, 0, 57, 54
4, 389280, Note_on_c, 0, 57, 0
4, 389280, Note_on_c, 0, 52, 0
4, 389280, Note_on_c, 0, 32, 93
4, 389340, Note_on_c, 0, 32, 0
4, 389340, Note_on_c, 0, 44, 93
4, 389400, Note_on_c, 0, 44, 0
4, 389400, Note_on_c, 0, 32, 93
4, 389460, Note_on_c, 0, 32, 0
4, 389460, Note_on_c, 0, 44, 93
4, 389520, Note_on_c, 0, 44, 0
4, 389520, Note_on_c, 0, 32, 93
4, 389580, Note_on_c, 0, 32, 0
4, 389580, Note_on_c, 0, 44, 93
4, 389640, Note_on_c, 0, 44, 0
4, 389640, Note_on_c, 0, 32, 93
4, 389700, Note_on_c, 0, 32, 0
4, 389700, Note_on_c, 0, 44, 93
4, 389760, Note_on_c, 0, 44, 0
4, 389760, Note_on_c, 0, 32, 93
4, 389820, Note_on_c, 0, 32, 0
4, 389820, Note_on_c, 0, 44, 93
4, 389880, Note_on_c, 0, 44, 0
4, 389880, Note_on_c, 0, 32, 93
4, 389940, Note_on_c, 0, 32, 0
4, 389940, Note_on_c, 0, 44, 93
4, 390000, Note_on_c, 0, 44, 0
4, 390000, Note_on_c, 0, 32, 93
4, 390060, Note_on_c, 0, 32, 0
4, 390060, Note_on_c, 0, 44, 93
4, 390120, Note_on_c, 0, 44, 0
4, 390120, Note_on_c, 0, 32, 93
4, 390180, Note_on_c, 0, 32, 0
4, 390180, Note_on_c, 0, 44, 93
4, 390240, Note_on_c, 0, 44, 0
4, 390240, Note_on_c, 0, 32, 93
4, 390300, Note_on_c, 0, 32, 0
4, 390300, Note_on_c, 0, 44, 93
4, 390360, Note_on_c, 0, 44, 0
4, 390360, Note_on_c, 0, 32, 93
4, 390420, Note_on_c, 0, 32, 0
4, 390420, Note_on_c, 0, 44, 93
4, 390480, Note_on_c, 0, 44, 0
4, 390480, Note_on_c, 0, 32, 93
4, 390540, Note_on_c, 0, 32, 0
4, 390540, Note_on_c, 0, 44, 93
4, 390600, Note_on_c, 0, 44, 0
4, 390600, Note_on_c, 0, 32, 93
4, 390660, Note_on_c, 0, 32, 0
4, 390660, Note_on_c, 0, 44, 93
4, 390720, Note_on_c, 0, 44, 0
4, 390720, Note_on_c, 0, 32, 93
4, 390780, Note_on_c, 0, 32, 0
4, 390780, Note_on_c, 0, 44, 93
4, 390840, Note_on_c, 0, 44, 0
4, 390840, Note_on_c, 0, 32, 93
4, 390900, Note_on_c, 0, 32, 0
4, 390900, Note_on_c, 0, 44, 93
4, 390960, Note_on_c, 0, 44, 0
4, 390960, Note_on_c, 0, 32, 93
4, 391020, Note_on_c, 0, 32, 0
4, 391020, Note_on_c, 0, 44, 93
4, 391080, Note_on_c, 0, 44, 0
4, 391080, Note_on_c, 0, 32, 93
4, 391140, Note_on_c, 0, 32, 0
4, 391140, Note_on_c, 0, 44, 93
4, 391200, Note_on_c, 0, 44, 0
4, 391200, Note_on_c, 0, 32, 93
4, 391260, Note_on_c, 0, 32, 0
4, 391260, Note_on_c, 0, 44, 93
4, 391320, Note_on_c, 0, 44, 0
4, 391320, Note_on_c, 0, 32, 93
4, 391380, Note_on_c, 0, 32, 0
4, 391380, Note_on_c, 0, 44, 93
4, 391440, Note_on_c, 0, 44, 0
4, 391440, Note_on_c, 0, 32, 93
4, 391500, Note_on_c, 0, 32, 0
4, 391500, Note_on_c, 0, 44, 93
4, 391560, Note_on_c, 0, 44, 0
4, 391560, Note_on_c, 0, 32, 93
4, 391620, Note_on_c, 0, 32, 0
4, 391620, Note_on_c, 0, 44, 93
4, 391680, Note_on_c, 0, 44, 0
4, 391680, Note_on_c, 0, 32, 93
4, 391740, Note_on_c, 0, 32, 0
4, 391740, Note_on_c, 0, 44, 93
4, 391800, Note_on_c, 0, 44, 0
4, 391800, Note_on_c, 0, 32, 93
4, 391860, Note_on_c, 0, 32, 0
4, 391860, Note_on_c, 0, 44, 93
4, 391920, Note_on_c, 0, 44, 0
4, 391920, Note_on_c, 0, 32, 93
4, 391980, Note_on_c, 0, 32, 0
4, 391980, Note_on_c, 0, 44, 93
4, 392040, Note_on_c, 0, 44, 0
4, 392040, Note_on_c, 0, 32, 93
4, 392100, Note_on_c, 0, 32, 0
4, 392100, Note_on_c, 0, 44, 93
4, 392160, Note_on_c, 0, 44, 0
4, 392160, Note_on_c, 0, 32, 93
4, 392220, Note_on_c, 0, 32, 0
4, 392220, Note_on_c, 0, 44, 93
4, 392280, Note_on_c, 0, 44, 0
4, 392280, Note_on_c, 0, 32, 93
4, 392340, Note_on_c, 0, 32, 0
4, 392340, Note_on_c, 0, 44, 93
4, 392400, Note_on_c, 0, 44, 0
4, 392400, Note_on_c, 0, 32, 93
4, 392460, Note_on_c, 0, 32, 0
4, 392460, Note_on_c, 0, 44, 93
4, 392520, Note_on_c, 0, 44, 0
4, 392520, Note_on_c, 0, 32, 93
4, 392580, Note_on_c, 0, 32, 0
4, 392580, Note_on_c, 0, 44, 93
4, 392640, Note_on_c, 0, 44, 0
4, 392640, Note_on_c, 0, 32, 93
4, 392700, Note_on_c, 0, 32, 0
4, 392700, Note_on_c, 0, 44, 93
4, 392760, Note_on_c, 0, 44, 0
4, 392760, Note_on_c, 0, 32, 93
4, 392820, Note_on_c, 0, 32, 0
4, 392820, Note_on_c, 0, 44, 93
4, 392880, Note_on_c, 0, 44, 0
4, 392880, Note_on_c, 0, 32, 93
4, 392940, Note_on_c, 0, 32, 0
4, 392940, Note_on_c, 0, 44, 93
4, 393000, Note_on_c, 0, 44, 0
4, 393000, Note_on_c, 0, 32, 93
4, 393060, Note_on_c, 0, 32, 0
4, 393060, Note_on_c, 0, 44, 93
4, 393120, Note_on_c, 0, 44, 0
4, 393120, Note_on_c, 0, 32, 93
4, 393180, Note_on_c, 0, 32, 0
4, 393180, Note_on_c, 0, 44, 93
4, 393240, Note_on_c, 0, 44, 0
4, 393240, Note_on_c, 0, 32, 93
4, 393300, Note_on_c, 0, 32, 0
4, 393300, Note_on_c, 0, 44, 93
4, 393360, Note_on_c, 0, 44, 0
4, 393360, Note_on_c, 0, 32, 93
4, 393420, Note_on_c, 0, 32, 0
4, 393420, Note_on_c, 0, 44, 93
4, 393480, Note_on_c, 0, 44, 0
4, 393480, Note_on_c, 0, 32, 93
4, 393540, Note_on_c, 0, 32, 0
4, 393540, Note_on_c, 0, 44, 93
4, 393600, Note_on_c, 0, 44, 0
4, 393600, Note_on_c, 0, 32, 93
4, 393660, Note_on_c, 0, 32, 0
4, 393660, Note_on_c, 0, 44, 93
4, 393720, Note_on_c, 0, 44, 0
4, 393720, Note_on_c, 0, 32, 93
4, 393780, Note_on_c, 0, 32, 0
4, 393780, Note_on_c, 0, 44, 93
4, 393840, Note_on_c, 0, 44, 0
4, 393840, Note_on_c, 0, 32, 93
4, 393900, Note_on_c, 0, 32, 0
4, 393900, Note_on_c, 0, 44, 93
4, 393960, Note_on_c, 0, 44, 0
4, 393960, Note_on_c, 0, 32, 93
4, 394020, Note_on_c, 0, 32, 0
4, 394020, Note_on_c, 0, 44, 93
4, 394080, Note_on_c, 0, 44, 0
4, 394080, Note_on_c, 0, 32, 93
4, 394140, Note_on_c, 0, 32, 0
4, 394140, Note_on_c, 0, 44, 93
4, 394200, Note_on_c, 0, 44, 0
4, 394200, Note_on_c, 0, 32, 93
4, 394260, Note_on_c, 0, 32, 0
4, 394260, Note_on_c, 0, 44, 93
4, 394320, Note_on_c, 0, 44, 0
4, 394320, Note_on_c, 0, 32, 93
4, 394380, Note_on_c, 0, 32, 0
4, 394380, Note_on_c, 0, 44, 93
4, 394440, Note_on_c, 0, 44, 0
4, 394440, Note_on_c, 0, 32, 93
4, 394500, Note_on_c, 0, 32, 0
4, 394500, Note_on_c, 0, 44, 93
4, 394560, Note_on_c, 0, 44, 0
4, 394560, Note_on_c, 0, 32, 93
4, 394620, Note_on_c, 0, 32, 0
4, 394620, Note_on_c, 0, 44, 93
4, 394680, Note_on_c, 0, 44, 0
4, 394680, Note_on_c, 0, 32, 93
4, 394740, Note_on_c, 0, 32, 0
4, 394740, Note_on_c, 0, 44, 93
4, 394800, Note_on_c, 0, 44, 0
4, 394800, Note_on_c, 0, 32, 93
4, 394860, Note_on_c, 0, 32, 0
4, 394860, Note_on_c, 0, 44, 93
4, 394920, Note_on_c, 0, 44, 0
4, 394920, Note_on_c, 0, 32, 93
4, 394980, Note_on_c, 0, 32, 0
4, 394980, Note_on_c, 0, 44, 93
4, 395040, Note_on_c, 0, 44, 0
4, 395040, Note_on_c, 0, 32, 93
4, 395100, Note_on_c, 0, 32, 0
4, 395100, Note_on_c, 0, 44, 93
4, 395160, Note_on_c, 0, 44, 0
4, 395160, Note_on_c, 0, 32, 93
4, 395220, Note_on_c, 0, 32, 0
4, 395220, Note_on_c, 0, 44, 93
4, 395280, Note_on_c, 0, 44, 0
4, 395280, Note_on_c, 0, 32, 93
4, 395340, Note_on_c, 0, 32, 0
4, 395340, Note_on_c, 0, 44, 93
4, 395400, Note_on_c, 0, 44, 0
4, 395400, Note_on_c, 0, 32, 93
4, 395460, Note_on_c, 0, 32, 0
4, 395460, Note_on_c, 0, 44, 93
4, 395520, Note_on_c, 0, 44, 0
4, 395520, Note_on_c, 0, 32, 93
4, 395580, Note_on_c, 0, 32, 0
4, 395580, Note_on_c, 0, 44, 93
4, 395640, Note_on_c, 0, 44, 0
4, 395640, Note_on_c, 0, 32, 93
4, 395700, Note_on_c, 0, 32, 0
4, 395700, Note_on_c, 0, 44, 93
4, 395760, Note_on_c, 0, 44, 0
4, 395760, Note_on_c, 0, 32, 93
4, 395820, Note_on_c, 0, 32, 0
4, 395820, Note_on_c, 0, 44, 93
4, 395880, Note_on_c, 0, 44, 0
4, 395880, Note_on_c, 0, 32, 93
4, 395940, Note_on_c, 0, 32, 0
4, 395940, Note_on_c, 0, 44, 93
4, 396000, Note_on_c, 0, 44, 0
4, 396000, Note_on_c, 0, 32, 93
4, 396060, Note_on_c, 0, 32, 0
4, 396060, Note_on_c, 0, 44, 93
4, 396120, Note_on_c, 0, 44, 0
4, 396120, Note_on_c, 0, 32, 93
4, 396180, Note_on_c, 0, 32, 0
4, 396180, Note_on_c, 0, 44, 93
4, 396240, Note_on_c, 0, 44, 0
4, 396240, Note_on_c, 0, 32, 93
4, 396300, Note_on_c, 0, 32, 0
4, 396300, Note_on_c, 0, 44, 93
4, 396360, Note_on_c, 0, 44, 0
4, 396360, Note_on_c, 0, 32, 93
4, 396420, Note_on_c, 0, 32, 0
4, 396420, Note_on_c, 0, 44, 93
4, 396480, Note_on_c, 0, 44, 0
4, 396480, Note_on_c, 0, 32, 93
4, 396540, Note_on_c, 0, 32, 0
4, 396540, Note_on_c, 0, 44, 93
4, 396600, Note_on_c, 0, 44, 0
4, 396600, Note_on_c, 0, 32, 93
4, 396660, Note_on_c, 0, 32, 0
4, 396660, Note_on_c, 0, 44, 93
4, 396720, Note_on_c, 0, 44, 0
4, 396720, Note_on_c, 0, 32, 93
4, 396780, Note_on_c, 0, 32, 0
4, 396780, Note_on_c, 0, 44, 93
4, 396840, Note_on_c, 0, 44, 0
4, 396840, Note_on_c, 0, 32, 93
4, 396900, Note_on_c, 0, 32, 0
4, 396900, Note_on_c, 0, 44, 93
4, 396960, Note_on_c, 0, 44, 0
4, 396960, Note_on_c, 0, 32, 93
4, 397020, Note_on_c, 0, 32, 0
4, 397020, Note_on_c, 0, 44, 93
4, 397080, Note_on_c, 0, 44, 0
4, 397080, Note_on_c, 0, 32, 93
4, 397140, Note_on_c, 0, 32, 0
4, 397140, Note_on_c, 0, 44, 93
4, 397200, Note_on_c, 0, 44, 0
4, 397200, Note_on_c, 0, 32, 93
4, 397260, Note_on_c, 0, 32, 0
4, 397260, Note_on_c, 0, 44, 93
4, 397320, Note_on_c, 0, 44, 0
4, 397320, Note_on_c, 0, 32, 93
4, 397380, Note_on_c, 0, 32, 0
4, 397380, Note_on_c, 0, 44, 93
4, 397440, Note_on_c, 0, 44, 0
4, 397440, Note_on_c, 0, 32, 93
4, 397500, Note_on_c, 0, 32, 0
4, 397500, Note_on_c, 0, 44, 93
4, 397560, Note_on_c, 0, 44, 0
4, 397560, Note_on_c, 0, 32, 93
4, 397620, Note_on_c, 0, 32, 0
4, 397620, Note_on_c, 0, 44, 93
4, 397680, Note_on_c, 0, 44, 0
4, 397680, Note_on_c, 0, 32, 93
4, 397740, Note_on_c, 0, 32, 0
4, 397740, Note_on_c, 0, 44, 93
4, 397800, Note_on_c, 0, 44, 0
4, 397800, Note_on_c, 0, 32, 93
4, 397860, Note_on_c, 0, 32, 0
4, 397860, Note_on_c, 0, 44, 93
4, 397920, Note_on_c, 0, 44, 0
4, 397920, Note_on_c, 0, 32, 93
4, 397980, Note_on_c, 0, 32, 0
4, 397980, Note_on_c, 0, 44, 93
4, 398040, Note_on_c, 0, 44, 0
4, 398040, Note_on_c, 0, 32, 93
4, 398100, Note_on_c, 0, 32, 0
4, 398100, Note_on_c, 0, 44, 93
4, 398160, Note_on_c, 0, 44, 0
4, 398160, Note_on_c, 0, 32, 93
4, 398220, Note_on_c, 0, 32, 0
4, 398220, Note_on_c, 0, 44, 93
4, 398280, Note_on_c, 0, 44, 0
4, 398280, Note_on_c, 0, 32, 93
4, 398340, Note_on_c, 0, 32, 0
4, 398340, Note_on_c, 0, 44, 93
4, 398400, Note_on_c, 0, 44, 0
4, 398400, Note_on_c, 0, 32, 93
4, 398460, Note_on_c, 0, 32, 0
4, 398460, Note_on_c, 0, 44, 93
4, 398520, Note_on_c, 0, 44, 0
4, 398520, Note_on_c, 0, 32, 93
4, 398580, Note_on_c, 0, 32, 0
4, 398580, Note_on_c, 0, 44, 93
4, 398640, Note_on_c, 0, 44, 0
4, 398640, Note_on_c, 0, 32, 93
4, 398700, Note_on_c, 0, 32, 0
4, 398700, Note_on_c, 0, 44, 93
4, 398760, Note_on_c, 0, 44, 0
4, 398760, Note_on_c, 0, 32, 93
4, 398820, Note_on_c, 0, 32, 0
4, 398820, Note_on_c, 0, 44, 93
4, 398880, Note_on_c, 0, 44, 0
4, 398880, Note_on_c, 0, 32, 93
4, 398940, Note_on_c, 0, 32, 0
4, 398940, Note_on_c, 0, 44, 93
4, 399000, Note_on_c, 0, 44, 0
4, 399000, Note_on_c, 0, 32, 93
4, 399060, Note_on_c, 0, 32, 0
4, 399060, Note_on_c, 0, 44, 93
4, 399120, Note_on_c, 0, 44, 0
4, 399120, Note_on_c, 0, 32, 93
4, 399180, Note_on_c, 0, 32, 0
4, 399180, Note_on_c, 0, 44, 93
4, 399240, Note_on_c, 0, 44, 0
4, 399240, Note_on_c, 0, 32, 93
4, 399300, Note_on_c, 0, 32, 0
4, 399300, Note_on_c, 0, 44, 93
4, 399360, Note_on_c, 0, 44, 0
4, 399360, Note_on_c, 0, 32, 93
4, 399420, Note_on_c, 0, 32, 0
4, 399420, Note_on_c, 0, 44, 93
4, 399480, Note_on_c, 0, 44, 0
4, 399480, Note_on_c, 0, 32, 93
4, 399540, Note_on_c, 0, 32, 0
4, 399540, Note_on_c, 0, 44, 93
4, 399600, Note_on_c, 0, 44, 0
4, 399600, Note_on_c, 0, 32, 93
4, 399660, Note_on_c, 0, 32, 0
4, 399660, Note_on_c, 0, 44, 93
4, 399720, Note_on_c, 0, 44, 0
4, 399720, Note_on_c, 0, 32, 93
4, 399780, Note_on_c, 0, 32, 0
4, 399780, Note_on_c, 0, 44, 93
4, 399840, Note_on_c, 0, 44, 0
4, 399840, Note_on_c, 0, 32, 93
4, 399900, Note_on_c, 0, 32, 0
4, 399900, Note_on_c, 0, 44, 93
4, 399960, Note_on_c, 0, 44, 0
4, 399960, Note_on_c, 0, 32, 93
4, 400020, Note_on_c, 0, 32, 0
4, 400020, Note_on_c, 0, 44, 93
4, 400080, Note_on_c, 0, 44, 0
4, 400080, Note_on_c, 0, 32, 93
4, 400140, Note_on_c, 0, 32, 0
4, 400140, Note_on_c, 0, 44, 93
4, 400200, Note_on_c, 0, 44, 0
4, 400200, Note_on_c, 0, 32, 93
4, 400260, Note_on_c, 0, 32, 0
4, 400260, Note_on_c, 0, 44, 93
4, 400320, Note_on_c, 0, 44, 0
4, 400320, Note_on_c, 0, 32, 93
4, 400380, Note_on_c, 0, 32, 0
4, 400380, Note_on_c, 0, 44, 93
4, 400440, Note_on_c, 0, 44, 0
4, 400440, Note_on_c, 0, 32, 93
4, 400500, Note_on_c, 0, 32, 0
4, 400500, Note_on_c, 0, 44, 93
4, 400560, Note_on_c, 0, 44, 0
4, 400560, Note_on_c, 0, 32, 93
4, 400620, Note_on_c, 0, 32, 0
4, 400620, Note_on_c, 0, 44, 93
4, 400680, Note_on_c, 0, 44, 0
4, 400680, Note_on_c, 0, 32, 93
4, 400740, Note_on_c, 0, 32, 0
4, 400740, Note_on_c, 0, 44, 93
4, 400800, Note_on_c, 0, 44, 0
4, 400800, Control_c, 0, 64, 127
4, 400800, Note_on_c, 0, 31, 106
4, 400800, Note_on_c, 0, 43, 106
4, 400959, Note_on_c, 0, 43, 0
4, 400959, Note_on_c, 0, 31, 0
4, 400959, Note_on_c, 0, 43, 106
4, 400959, Note_on_c, 0, 46, 106
4, 400959, Note_on_c, 0, 50, 106
4, 401120, Note_on_c, 0, 50, 0
4, 401120, Note_on_c, 0, 46, 0
4, 401120, Note_on_c, 0, 43, 0
4, 401120, Note_on_c, 0, 43, 106
4, 401120, Note_on_c, 0, 46, 106
4, 401120, Note_on_c, 0, 50, 106
4, 401280, Note_on_c, 0, 50, 0
4, 401280, Note_on_c, 0, 46, 0
4, 401280, Note_on_c, 0, 43, 0
4, 401280, Note_on_c, 0, 43, 106
4, 401280, Note_on_c, 0, 46, 106
4, 401280, Note_on_c, 0, 50, 106
4, 401439, Note_on_c, 0, 50, 0
4, 401439, Note_on_c, 0, 46, 0
4, 401439, Note_on_c, 0, 43, 0
4, 401439, Note_on_c, 0, 43, 106
4, 401439, Note_on_c, 0, 46, 106
4, 401439, Note_on_c, 0, 50, 106
4, 401600, Note_on_c, 0, 50, 0
4, 401600, Note_on_c, 0, 46, 0
4, 401600, Note_on_c, 0, 43, 0
4, 401600, Note_on_c, 0, 43, 106
4, 401600, Note_on_c, 0, 46, 106
4, 401600, Note_on_c, 0, 50, 106
4, 401760, Note_on_c, 0, 50, 0
4, 401760, Note_on_c, 0, 46, 0
4, 401760, Note_on_c, 0, 43, 0
4, 401760, Note_on_c, 0, 43, 106
4, 401760, Note_on_c, 0, 46, 106
4, 401760, Note_on_c, 0, 50, 106
4, 402000, Note_on_c, 0, 50, 0
4, 402000, Note_on_c, 0, 46, 0
4, 402000, Note_on_c, 0, 43, 0
4, 402000, Note_on_c, 0, 43, 106
4, 402000, Note_on_c, 0, 46, 106
4, 402000, Note_on_c, 0, 50, 106
4, 402240, Note_on_c, 0, 50, 0
4, 402240, Note_on_c, 0, 46, 0
4, 402240, Note_on_c, 0, 43, 0
4, 402240, Note_on_c, 0, 43, 106
4, 402240, Note_on_c, 0, 46, 106
4, 402240, Note_on_c, 0, 50, 106
4, 402480, Note_on_c, 0, 50, 0
4, 402480, Note_on_c, 0, 46, 0
4, 402480, Note_on_c, 0, 43, 0
4, 402480, Control_c, 0, 64, 0
4, 402480, Note_on_c, 0, 43, 106
4, 402480, Note_on_c, 0, 46, 106
4, 402480, Note_on_c, 0, 50, 106
4, 402720, Note_on_c, 0, 50, 0
4, 402720, Note_on_c, 0, 46, 0
4, 402720, Note_on_c, 0, 43, 0
4, 402720, Note_on_c, 0, 55, 127
4, 402720, Note_on_c, 0, 58, 127
4, 402720, Note_on_c, 0, 62, 127
4, 402960, Note_on_c, 0, 62, 0
4, 402960, Note_on_c, 0, 58, 0
4, 402960, Note_on_c, 0, 55, 0
4, 402960, Note_on_c, 0, 55, 127
4, 402960, Note_on_c, 0, 58, 127
4, 402960, Note_on_c, 0, 62, 127
4, 403200, Note_on_c, 0, 62, 0
4, 403200, Note_on_c, 0, 58, 0
4, 403200, Note_on_c, 0, 55, 0
4, 404640, Note_on_c, 0, 43, 80
4, 404640, Note_on_c, 0, 50, 80
4, 404640, Note_on_c, 0, 52, 80
4, 404640, Note_on_c, 0, 55, 80
4, 405600, Note_on_c, 0, 55, 0
4, 405600, Note_on_c, 0, 43, 0
4, 405600, Note_on_c, 0, 50, 0
4, 405600, Note_on_c, 0, 52, 0
4, 406560, Note_on_c, 0, 43, 54
4, 406560, Note_on_c, 0, 50, 54
4, 406560, Note_on_c, 0, 52, 54
4, 406560, Note_on_c, 0, 58, 54
4, 407520, Note_on_c, 0, 58, 0
4, 407520, Note_on_c, 0, 43, 0
4, 407520, Note_on_c, 0, 50, 0
4, 407520, Note_on_c, 0, 52, 0
4, 408000, Note_on_c, 0, 50, 54
4, 408480, Note_on_c, 0, 50, 0
4, 408480, Note_on_c, 0, 52, 54
4, 408960, Note_on_c, 0, 52, 0
4, 408960, Note_on_c, 0, 54, 54
4, 409440, Note_on_c, 0, 54, 0
4, 409440, Note_on_c, 0, 57, 54
4, 409920, Note_on_c, 0, 57, 0
4, 409920, Note_on_c, 0, 55, 54
4, 411840, Note_on_c, 0, 55, 0
4, 412320, Control_c, 0, 64, 127
4, 412320, Note_on_c, 0, 38, 54
4, 412320, Note_on_c, 0, 50, 54
4, 412560, Note_on_c, 0, 50, 0
4, 412560, Note_on_c, 0, 38, 0
4, 412560, Note_on_c, 0, 50, 54
4, 412560, Note_on_c, 0, 54, 54
4, 412800, Note_on_c, 0, 54, 0
4, 412800, Note_on_c, 0, 50, 0
4, 412800, Note_on_c, 0, 50, 54
4, 412800, Note_on_c, 0, 54, 54
4, 413040, Note_on_c, 0, 54, 0
4, 413040, Note_on_c, 0, 50, 0
4, 413040, Note_on_c, 0, 50, 54
4, 413040, Note_on_c, 0, 54, 54
4, 413280, Note_on_c, 0, 54, 0
4, 413280, Note_on_c, 0, 50, 0
4, 413280, Note_on_c, 0, 50, 54
4, 413280, Note_on_c, 0, 54, 54
4, 413520, Note_on_c, 0, 54, 0
4, 413520, Note_on_c, 0, 50, 0
4, 413520, Note_on_c, 0, 50, 54
4, 413520, Note_on_c, 0, 54, 54
4, 413760, Note_on_c, 0, 54, 0
4, 413760, Note_on_c, 0, 50, 0
4, 413760, Note_on_c, 0, 50, 54
4, 413760, Note_on_c, 0, 54, 54
4, 414000, Note_on_c, 0, 54, 0
4, 414000, Note_on_c, 0, 50, 0
4, 414000, Note_on_c, 0, 50, 54
4, 414000, Note_on_c, 0, 54, 54
4, 414240, Note_on_c, 0, 54, 0
4, 414240, Note_on_c, 0, 50, 0
4, 414240, Note_on_c, 0, 50, 54
4, 414240, Note_on_c, 0, 54, 54
4, 414480, Note_on_c, 0, 54, 0
4, 414480, Note_on_c, 0, 50, 0
4, 414480, Note_on_c, 0, 50, 54
4, 414480, Note_on_c, 0, 54, 54
4, 414720, Note_on_c, 0, 54, 0
4, 414720, Note_on_c, 0, 50, 0
4, 414720, Note_on_c, 0, 50, 54
4, 414720, Note_on_c, 0, 54, 54
4, 414960, Note_on_c, 0, 54, 0
4, 414960, Note_on_c, 0, 50, 0
4, 414960, Control_c, 0, 64, 0
4, 414960, Note_on_c, 0, 50, 54
4, 414960, Note_on_c, 0, 54, 54
4, 415200, Note_on_c, 0, 54, 0
4, 415200, Note_on_c, 0, 50, 0
4, 415200, Control_c, 0, 64, 127
4, 415200, Note_on_c, 0, 38, 54
4, 415200, Note_on_c, 0, 45, 54
4, 415200, Note_on_c, 0, 50, 54
4, 415440, Note_on_c, 0, 50, 0
4, 415440, Note_on_c, 0, 45, 0
4, 415440, Note_on_c, 0, 38, 0
4, 415440, Note_on_c, 0, 50, 54
4, 415440, Note_on_c, 0, 54, 54
4, 415440, Note_on_c, 0, 57, 54
4, 415680, Note_on_c, 0, 57, 0
4, 415680, Note_on_c, 0, 54, 0
4, 415680, Note_on_c, 0, 50, 0
4, 415680, Note_on_c, 0, 50, 54
4, 415680, Note_on_c, 0, 54, 54
4, 415680, Note_on_c, 0, 57, 54
4, 415920, Note_on_c, 0, 57, 0
4, 415920, Note_on_c, 0, 54, 0
4, 415920, Note_on_c, 0, 50, 0
4, 415920, Note_on_c, 0, 50, 54
4, 415920, Note_on_c, 0, 54, 54
4, 415920, Note_on_c, 0, 57, 54
4, 416160, Note_on_c, 0, 57, 0
4, 416160, Note_on_c, 0, 54, 0
4, 416160, Note_on_c, 0, 50, 0
4, 416160, Note_on_c, 0, 50, 54
4, 416160, Note_on_c, 0, 54, 54
4, 416160, Note_on_c, 0, 57, 54
4, 416400, Note_on_c, 0, 57, 0
4, 416400, Note_on_c, 0, 54, 0
4, 416400, Note_on_c, 0, 50, 0
4, 416400, Note_on_c, 0, 50, 54
4, 416400, Note_on_c, 0, 54, 54
4, 416400, Note_on_c, 0, 57, 54
4, 416640, Note_on_c, 0, 57, 0
4, 416640, Note_on_c, 0, 54, 0
4, 416640, Note_on_c, 0, 50, 0
4, 416640, Control_c, 0, 64, 0
4, 416640, Note_on_c, 0, 52, 67
4, 417360, Note_on_c, 0, 52, 0
4, 417360, Note_on_c, 0, 47, 67
4, 417840, Note_on_c, 0, 47, 0
4, 417840, Note_on_c, 0, 49, 67
4, 418080, Note_on_c, 0, 49, 0
4, 418080, Control_c, 0, 64, 127
4, 418080, Note_on_c, 0, 38, 54
4, 418080, Note_on_c, 0, 45, 54
4, 418080, Note_on_c, 0, 50, 54
4, 418320, Note_on_c, 0, 50, 0
4, 418320, Note_on_c, 0, 45, 0
4, 418320, Note_on_c, 0, 38, 0
4, 418320, Note_on_c, 0, 50, 54
4, 418320, Note_on_c, 0, 54, 54
4, 418320, Note_on_c, 0, 57, 54
4, 418560, Note_on_c, 0, 57, 0
4, 418560, Note_on_c, 0, 54, 0
4, 418560, Note_on_c, 0, 50, 0
4, 418560, Note_on_c, 0, 50, 54
4, 418560, Note_on_c, 0, 54, 54
4, 418560, Note_on_c, 0, 57, 54
4, 418800, Note_on_c, 0, 57, 0
4, 418800, Note_on_c, 0, 54, 0
4, 418800, Note_on_c, 0, 50, 0
4, 418800, Note_on_c, 0, 50, 54
4, 418800, Note_on_c, 0, 54, 54
4, 418800, Note_on_c, 0, 57, 54
4, 419040, Note_on_c, 0, 57, 0
4, 419040, Note_on_c, 0, 54, 0
4, 419040, Note_on_c, 0, 50, 0
4, 419040, Note_on_c, 0, 50, 54
4, 419040, Note_on_c, 0, 54, 54
4, 419040, Note_on_c, 0, 57, 54
4, 419280, Note_on_c, 0, 57, 0
4, 419280, Note_on_c, 0, 54, 0
4, 419280, Note_on_c, 0, 50, 0
4, 419280, Note_on_c, 0, 50, 54
4, 419280, Note_on_c, 0, 54, 54
4, 419280, Note_on_c, 0, 57, 54
4, 419520, Note_on_c, 0, 57, 0
4, 419520, Note_on_c, 0, 54, 0
4, 419520, Note_on_c, 0, 50, 0
4, 419520, Control_c, 0, 64, 0
4, 419520, Note_on_c, 0, 52, 67
4, 420240, Note_on_c, 0, 52, 0
4, 420240, Note_on_c, 0, 47, 67
4, 420720, Note_on_c, 0, 47, 0
4, 420720, Note_on_c, 0, 49, 67
4, 420960, Note_on_c, 0, 49, 0
4, 420960, Control_c, 0, 64, 127
4, 420960, Note_on_c, 0, 38, 54
4, 420960, Note_on_c, 0, 45, 54
4, 420960, Note_on_c, 0, 50, 54
4, 421200, Note_on_c, 0, 50, 0
4, 421200, Note_on_c, 0, 45, 0
4, 421200, Note_on_c, 0, 38, 0
4, 421200, Note_on_c, 0, 50, 54
4, 421200, Note_on_c, 0, 54, 54
4, 421440, Note_on_c, 0, 54, 0
4, 421440, Note_on_c, 0, 50, 0
4, 421440, Note_on_c, 0, 50, 54
4, 421440, Note_on_c, 0, 54, 54
4, 421680, Note_on_c, 0, 54, 0
4, 421680, Note_on_c, 0, 50, 0
4, 421680, Note_on_c, 0, 50, 54
4, 421680, Note_on_c, 0, 54, 54
4, 421680, Note_on_c, 0, 57, 54
4, 421920, Note_on_c, 0, 57, 0
4, 421920, Note_on_c, 0, 54, 0
4, 421920, Note_on_c, 0, 50, 0
4, 421920, Note_on_c, 0, 50, 54
4, 421920, Note_on_c, 0, 54, 54
4, 421920, Note_on_c, 0, 57, 54
4, 422160, Note_on_c, 0, 57, 0
4, 422160, Note_on_c, 0, 54, 0
4, 422160, Note_on_c, 0, 50, 0
4, 422160, Note_on_c, 0, 50, 54
4, 422160, Note_on_c, 0, 54, 54
4, 422160, Note_on_c, 0, 57, 54
4, 422400, Note_on_c, 0, 57, 0
4, 422400, Note_on_c, 0, 54, 0
4, 422400, Note_on_c, 0, 50, 0
4, 422400, Note_on_c, 0, 50, 54
4, 422400, Note_on_c, 0, 55, 54
4, 422400, Note_on_c, 0, 58, 54
4, 422400, Note_on_c, 0, 61, 54
4, 422640, Note_on_c, 0, 61, 0
4, 422640, Note_on_c, 0, 50, 0
4, 422640, Note_on_c, 0, 55, 0
4, 422640, Note_on_c, 0, 58, 0
4, 422640, Note_on_c, 0, 50, 54
4, 422640, Note_on_c, 0, 55, 54
4, 422640, Note_on_c, 0, 58, 54
4, 422640, Note_on_c, 0, 61, 54
4, 422880, Note_on_c, 0, 61, 0
4, 422880, Note_on_c, 0, 50, 0
4, 422880, Note_on_c, 0, 55, 0
4, 422880, Note_on_c, 0, 58, 0
4, 422880, Note_on_c, 0, 50, 54
4, 422880, Note_on_c, 0, 55, 54
4, 422880, Note_on_c, 0, 58, 54
4, 422880, Note_on_c, 0, 61, 54
4, 423120, Note_on_c, 0, 61, 0
4, 423120, Note_on_c, 0, 50, 0
4, 423120, Note_on_c, 0, 55, 0
4, 423120, Note_on_c, 0, 58, 0
4, 423120, Note_on_c, 0, 50, 54
4, 423120, Note_on_c, 0, 55, 54
4, 423120, Note_on_c, 0, 58, 54
4, 423120, Note_on_c, 0, 61, 54
4, 423360, Note_on_c, 0, 61, 0
4, 423360, Note_on_c, 0, 50, 0
4, 423360, Note_on_c, 0, 55, 0
4, 423360, Note_on_c, 0, 58, 0
4, 423360, Note_on_c, 0, 50, 54
4, 423360, Note_on_c, 0, 55, 54
4, 423360, Note_on_c, 0, 58, 54
4, 423360, Note_on_c, 0, 61, 54
4, 423600, Note_on_c, 0, 61, 0
4, 423600, Note_on_c, 0, 50, 0
4, 423600, Note_on_c, 0, 55, 0
4, 423600, Note_on_c, 0, 58, 0
4, 423600, Control_c, 0, 64, 0
4, 423600, Note_on_c, 0, 50, 54
4, 423600, Note_on_c, 0, 55, 54
4, 423600, Note_on_c, 0, 58, 54
4, 423600, Note_on_c, 0, 61, 54
4, 423840, Note_on_c, 0, 61, 0
4, 423840, Note_on_c, 0, 50, 0
4, 423840, Note_on_c, 0, 55, 0
4, 423840, Note_on_c, 0, 58, 0
4, 423840, Note_on_c, 0, 45, 67
4, 424200, Note_on_c, 0, 45, 0
4, 424200, Note_on_c, 0, 47, 67
4, 424560, Note_on_c, 0, 47, 0
4, 424560, Note_on_c, 0, 49, 80
4, 424920, Note_on_c, 0, 49, 0
4, 424920, Note_on_c, 0, 50, 80
4, 425280, Note_on_c, 0, 50, 0
4, 425280, Note_on_c, 0, 54, 93
4, 425640, Note_on_c, 0, 54, 0
4, 425640, Note_on_c, 0, 52, 93
4, 426000, Note_on_c, 0, 52, 0
4, 426000, Note_on_c, 0, 51, 93
4, 426360, Note_on_c, 0, 51, 0
4, 426360, Note_on_c, 0, 52, 93
4, 426720, Note_on_c, 0, 52, 0
4, 426720, Note_on_c, 0, 55, 93
4, 427440, Note_on_c, 0, 55, 0
4, 427440, Note_on_c, 0, 54, 93
4, 428160, Note_on_c, 0, 54, 0
4, 429600, Note_on_c, 0, 45, 67
4, 429960, Note_on_c, 0, 45, 0
4, 429960, Note_on_c, 0, 47, 67
4, 430320, Note_on_c, 0, 47, 0
4, 430320, Note_on_c, 0, 49, 80
4, 430680, Note_on_c, 0, 49, 0
4, 430680, Note_on_c, 0, 50, 80
4, 431040, Note_on_c, 0, 50, 0
4, 431040, Note_on_c, 0, 54, 93
4, 431400, Note_on_c, 0, 54, 0
4, 431400, Note_on_c, 0, 52, 93
4, 431760, Note_on_c, 0, 52, 0
4, 431760, Note_on_c, 0, 51, 93
4, 432120, Note_on_c, 0, 51, 0
4, 432120, Note_on_c, 0, 52, 93
4, 432480, Note_on_c, 0, 52, 0
4, 432480, Note_on_c, 0, 55, 93
4, 433200, Note_on_c, 0, 55, 0
4, 433200, Note_on_c, 0, 54, 80
4, 433920, Note_on_c, 0, 54, 0
4, 433920, Note_on_c, 0, 52, 67
4, 434640, Note_on_c, 0, 52, 0
4, 434640, Note_on_c, 0, 47, 67
4, 435120, Note_on_c, 0, 47, 0
4, 435120, Note_on_c, 0, 49, 67
4, 435360, Note_on_c, 0, 49, 0
4, 436800, Note_on_c, 0, 52, 67
4, 437520, Note_on_c, 0, 52, 0
4, 437520, Note_on_c, 0, 47, 67
4, 438000, Note_on_c, 0, 47, 0
4, 438000, Note_on_c, 0, 49, 67
4, 438240, Note_on_c, 0, 49, 0
4, 438240, Control_c, 0, 64, 127
4, 438240, Note_on_c, 0, 38, 54
4, 438240, Note_on_c, 0, 45, 54
4, 438240, Note_on_c, 0, 50, 54
4, 438480, Note_on_c, 0, 50, 0
4, 438480, Note_on_c, 0, 45, 0
4, 438480, Note_on_c, 0, 38, 0
4, 438480, Note_on_c, 0, 38, 54
4, 438480, Note_on_c, 0, 45, 54
4, 438480, Note_on_c, 0, 50, 54
4, 438720, Note_on_c, 0, 50, 0
4, 438720, Note_on_c, 0, 45, 0
4, 438720, Note_on_c, 0, 38, 0
4, 438720, Note_on_c, 0, 38, 54
4, 438720, Note_on_c, 0, 45, 54
4, 438720, Note_on_c, 0, 50, 54
4, 438960, Note_on_c, 0, 50, 0
4, 438960, Note_on_c, 0, 45, 0
4, 438960, Note_on_c, 0, 38, 0
4, 438960, Control_c, 0, 64, 0
4, 438960, Note_on_c, 0, 38, 54
4, 438960, Note_on_c, 0, 45, 54
4, 438960, Note_on_c, 0, 50, 54
4, 439200, Note_on_c, 0, 50, 0
4, 439200, Note_on_c, 0, 45, 0
4, 439200, Note_on_c, 0, 38, 0
4, 439680, Control_c, 0, 64, 127
4, 439680, Note_on_c, 0, 38, 54
4, 439680, Note_on_c, 0, 45, 54
4, 439680, Note_on_c, 0, 50, 54
4, 439920, Note_on_c, 0, 50, 0
4, 439920, Note_on_c, 0, 45, 0
4, 439920, Note_on_c, 0, 38, 0
4, 439920, Note_on_c, 0, 38, 54
4, 439920, Note_on_c, 0, 45, 54
4, 439920, Note_on_c, 0, 50, 54
4, 440160, Note_on_c, 0, 50, 0
4, 440160, Note_on_c, 0, 45, 0
4, 440160, Note_on_c, 0, 38, 0
4, 440160, Note_on_c, 0, 38, 54
4, 440160, Note_on_c, 0, 45, 54
4, 440160, Note_on_c, 0, 50, 54
4, 440400, Note_on_c, 0, 50, 0
4, 440400, Note_on_c, 0, 45, 0
4, 440400, Note_on_c, 0, 38, 0
4, 440400, Control_c, 0, 64, 0
4, 440400, Note_on_c, 0, 38, 54
4, 440400, Note_on_c, 0, 45, 54
4, 440400, Note_on_c, 0, 50, 54
4, 440640, Note_on_c, 0, 50, 0
4, 440640, Note_on_c, 0, 45, 0
4, 440640, Note_on_c, 0, 38, 0
4, 441120, Note_on_c, 0, 38, 54
4, 441120, Note_on_c, 0, 45, 54
4, 441120, Note_on_c, 0, 50, 54
4, 441360, Note_on_c, 0, 50, 0
4, 441360, Note_on_c, 0, 45, 0
4, 441360, Note_on_c, 0, 38, 0
4, 441360, Note_on_c, 0, 38, 54
4, 441360, Note_on_c, 0, 45, 54
4, 441360, Note_on_c, 0, 50, 54
4, 441600, Note_on_c, 0, 50, 0
4, 441600, Note_on_c, 0, 45, 0
4, 441600, Note_on_c, 0, 38, 0
4, 441600, Note_on_c, 0, 38, 54
4, 441600, Note_on_c, 0, 45, 54
4, 441600, Note_on_c, 0, 50, 54
4, 441840, Note_on_c, 0, 50, 0
4, 441840, Note_on_c, 0, 45, 0
4, 441840, Note_on_c, 0, 38, 0
4, 442560, Note_on_c, 0, 38, 54
4, 442560, Note_on_c, 0, 45, 54
4, 442800, Note_on_c, 0, 45, 0
4, 442800, Note_on_c, 0, 38, 0
4, 442800, Note_on_c, 0, 38, 54
4, 442800, Note_on_c, 0, 45, 54
4, 443040, Note_on_c, 0, 45, 0
4, 443040, Note_on_c, 0, 38, 0
4, 443040, Note_on_c, 0, 38, 54
4, 443040, Note_on_c, 0, 45, 54
4, 443280, Note_on_c, 0, 45, 0
4, 443280, Note_on_c, 0, 38, 0
4, 444000, Note_on_c, 0, 38, 54
4, 444000, Note_on_c, 0, 45, 54
4, 444720, Note_on_c, 0, 45, 0
4, 444720, Note_on_c, 0, 38, 0
4, 445440, Note_on_c, 0, 38, 54
4, 445440, Note_on_c, 0, 45, 54
4, 446160, Note_on_c, 0, 45, 0
4, 446160, Note_on_c, 0, 38, 0
4, 446880, Note_on_c, 0, 38, 54
4, 446880, Note_on_c, 0, 45, 54
4, 447600, Note_on_c, 0, 45, 0
4, 447600, Note_on_c, 0, 38, 0
4, 448800, Note_on_c, 0, 38, 67
4, 448800, Note_on_c, 0, 45, 67
4, 448800, Note_on_c, 0, 54, 67
4, 453360, Note_on_c, 0, 54, 0
4, 453360, Note_on_c, 0, 45, 0
4, 453360, Note_on_c, 0, 38, 0
4, 453360, End_track
5, 0, Start_track
5, 0, Title_t, "Grand Piano"
5, 0, Program_c, 0, 0
5, 0, Control_c, 0, 7, 115
5, 0, Control_c, 0, 10, 47
5, 43200, Note_on_c, 0, 42, 80
5, 43200, Note_on_c, 0, 49, 80
5, 44640, Note_on_c, 0, 49, 0
5, 44640, Note_on_c, 0, 42, 0
5, 46800, Note_on_c, 0, 51, 80
5, 47520, Note_on_c, 0, 51, 0
5, 49680, Note_on_c, 0, 49, 80
5, 50400, Note_on_c, 0, 49, 0
5, 58320, Note_on_c, 0, 51, 80
5, 59040, Note_on_c, 0, 51, 0
5, 61200, Note_on_c, 0, 49, 80
5, 61920, Note_on_c, 0, 49, 0
5, 66480, Control_c, 0, 64, 127
5, 66480, Note_on_c, 0, 54, 54
5, 66480, Note_on_c, 0, 58, 54
5, 66720, Note_on_c, 0, 58, 0
5, 66720, Note_on_c, 0, 54, 0
5, 66720, Note_on_c, 0, 54, 54
5, 66720, Note_on_c, 0, 58, 54
5, 66960, Note_on_c, 0, 58, 0
5, 66960, Note_on_c, 0, 54, 0
5, 66960, Note_on_c, 0, 54, 54
5, 66960, Note_on_c, 0, 58, 54
5, 67200, Note_on_c, 0, 58, 0
5, 67200, Note_on_c, 0, 54, 0
5, 67200, Note_on_c, 0, 54, 54
5, 67200, Note_on_c, 0, 58, 54
5, 67440, Note_on_c, 0, 58, 0
5, 67440, Note_on_c, 0, 54, 0
5, 67440, Control_c, 0, 64, 0
5, 67440, Note_on_c, 0, 54, 54
5, 67440, Note_on_c, 0, 58, 54
5, 67680, Note_on_c, 0, 58, 0
5, 67680, Note_on_c, 0, 54, 0
5, 67680, Control_c, 0, 64, 127
5, 67680, Note_on_c, 0, 54, 54
5, 67680, Note_on_c, 0, 59, 54
5, 67920, Note_on_c, 0, 59, 0
5, 67920, Note_on_c, 0, 54, 0
5, 67920, Note_on_c, 0, 54, 54
5, 67920, Note_on_c, 0, 59, 54
5, 68160, Note_on_c, 0, 59, 0
5, 68160, Note_on_c, 0, 54, 0
5, 68160, Note_on_c, 0, 54, 54
5, 68160, Note_on_c, 0, 59, 54
5, 68400, Note_on_c, 0, 59, 0
5, 68400, Note_on_c, 0, 54, 0
5, 68400, Note_on_c, 0, 54, 54
5, 68400, Note_on_c, 0, 59, 54
5, 68640, Note_on_c, 0, 59, 0
5, 68640, Note_on_c, 0, 54, 0
5, 68640, Note_on_c, 0, 54, 54
5, 68640, Note_on_c, 0, 59, 54
5, 68880, Note_on_c, 0, 59, 0
5, 68880, Note_on_c, 0, 54, 0
5, 68880, Control_c, 0, 64, 0
5, 68880, Note_on_c, 0, 54, 54
5, 68880, Note_on_c, 0, 59, 54
5, 69120, Note_on_c, 0, 59, 0
5, 69120, Note_on_c, 0, 54, 0
5, 69120, Control_c, 0, 64, 127
5, 69120, Note_on_c, 0, 54, 54
5, 69120, Note_on_c, 0, 58, 54
5, 69120, Note_on_c, 0, 61, 54
5, 69360, Note_on_c, 0, 61, 0
5, 69360, Note_on_c, 0, 58, 0
5, 69360, Note_on_c, 0, 54, 0
5, 69360, Note_on_c, 0, 54, 54
5, 69360, Note_on_c, 0, 58, 54
5, 69360, Note_on_c, 0, 61, 54
5, 69600, Note_on_c, 0, 61, 0
5, 69600, Note_on_c, 0, 58, 0
5, 69600, Note_on_c, 0, 54, 0
5, 69600, Note_on_c, 0, 54, 54
5, 69600, Note_on_c, 0, 58, 54
5, 69600, Note_on_c, 0, 61, 54
5, 69840, Note_on_c, 0, 61, 0
5, 69840, Note_on_c, 0, 58, 0
5, 69840, Note_on_c, 0, 54, 0
5, 69840, Note_on_c, 0, 54, 54
5, 69840, Note_on_c, 0, 58, 54
5, 69840, Note_on_c, 0, 61, 54
5, 70080, Note_on_c, 0, 61, 0
5, 70080, Note_on_c, 0, 58, 0
5, 70080, Note_on_c, 0, 54, 0
5, 70080, Note_on_c, 0, 54, 54
5, 70080, Note_on_c, 0, 58, 54
5, 70080, Note_on_c, 0, 61, 54
5, 70320, Note_on_c, 0, 61, 0
5, 70320, Note_on_c, 0, 58, 0
5, 70320, Note_on_c, 0, 54, 0
5, 70320, Control_c, 0, 64, 0
5, 70320, Note_on_c, 0, 54, 54
5, 70320, Note_on_c, 0, 58, 54
5, 70320, Note_on_c, 0, 61, 54
5, 70560, Note_on_c, 0, 61, 0
5, 70560, Note_on_c, 0, 58, 0
5, 70560, Note_on_c, 0, 54, 0
5, 70560, Control_c, 0, 64, 127
5, 70560, Note_on_c, 0, 54, 54
5, 70560, Note_on_c, 0, 59, 54
5, 70800, Note_on_c, 0, 59, 0
5, 70800, Note_on_c, 0, 54, 0
5, 70800, Note_on_c, 0, 54, 54
5, 70800, Note_on_c, 0, 59, 54
5, 71040, Note_on_c, 0, 59, 0
5, 71040, Note_on_c, 0, 54, 0
5, 71040, Note_on_c, 0, 54, 54
5, 71040, Note_on_c, 0, 59, 54
5, 71280, Note_on_c, 0, 59, 0
5, 71280, Note_on_c, 0, 54, 0
5, 71280, Note_on_c, 0, 54, 54
5, 71280, Note_on_c, 0, 59, 54
5, 71520, Note_on_c, 0, 59, 0
5, 71520, Note_on_c, 0, 54, 0
5, 71520, Note_on_c, 0, 54, 54
5, 71520, Note_on_c, 0, 59, 54
5, 71760, Note_on_c, 0, 59, 0
5, 71760, Note_on_c, 0, 54, 0
5, 71760, Control_c, 0, 64, 0
5, 71760, Note_on_c, 0, 54, 54
5, 71760, Note_on_c, 0, 59, 54
5, 72000, Note_on_c, 0, 59, 0
5, 72000, Note_on_c, 0, 54, 0
5, 72000, Control_c, 0, 64, 127
5, 72000, Note_on_c, 0, 54, 54
5, 72000, Note_on_c, 0, 58, 54
5, 72000, Note_on_c, 0, 61, 54
5, 72240, Note_on_c, 0, 61, 0
5, 72240, Note_on_c, 0, 58, 0
5, 72240, Note_on_c, 0, 54, 0
5, 72240, Note_on_c, 0, 54, 54
5, 72240, Note_on_c, 0, 58, 54
5, 72240, Note_on_c, 0, 61, 54
5, 72480, Note_on_c, 0, 61, 0
5, 72480, Note_on_c, 0, 58, 0
5, 72480, Note_on_c, 0, 54, 0
5, 72480, Note_on_c, 0, 54, 54
5, 72480, Note_on_c, 0, 58, 54
5, 72480, Note_on_c, 0, 61, 54
5, 72720, Note_on_c, 0, 61, 0
5, 72720, Note_on_c, 0, 58, 0
5, 72720, Note_on_c, 0, 54, 0
5, 72720, Note_on_c, 0, 54, 54
5, 72720, Note_on_c, 0, 58, 54
5, 72720, Note_on_c, 0, 61, 54
5, 72960, Note_on_c, 0, 61, 0
5, 72960, Note_on_c, 0, 58, 0
5, 72960, Note_on_c, 0, 54, 0
5, 72960, Note_on_c, 0, 54, 54
5, 72960, Note_on_c, 0, 58, 54
5, 72960, Note_on_c, 0, 61, 54
5, 73200, Note_on_c, 0, 61, 0
5, 73200, Note_on_c, 0, 58, 0
5, 73200, Note_on_c, 0, 54, 0
5, 73200, Control_c, 0, 64, 0
5, 73200, Note_on_c, 0, 54, 54
5, 73200, Note_on_c, 0, 58, 54
5, 73200, Note_on_c, 0, 61, 54
5, 73440, Note_on_c, 0, 61, 0
5, 73440, Note_on_c, 0, 58, 0
5, 73440, Note_on_c, 0, 54, 0
5, 73440, Control_c, 0, 64, 127
5, 73440, Note_on_c, 0, 54, 54
5, 73440, Note_on_c, 0, 59, 54
5, 73440, Note_on_c, 0, 62, 54
5, 73440, Note_on_c, 0, 66, 54
5, 73680, Note_on_c, 0, 66, 0
5, 73680, Note_on_c, 0, 54, 0
5, 73680, Note_on_c, 0, 59, 0
5, 73680, Note_on_c, 0, 62, 0
5, 73680, Note_on_c, 0, 54, 54
5, 73680, Note_on_c, 0, 59, 54
5, 73680, Note_on_c, 0, 62, 54
5, 73680, Note_on_c, 0, 66, 54
5, 73920, Note_on_c, 0, 66, 0
5, 73920, Note_on_c, 0, 54, 0
5, 73920, Note_on_c, 0, 59, 0
5, 73920, Note_on_c, 0, 62, 0
5, 73920, Note_on_c, 0, 54, 54
5, 73920, Note_on_c, 0, 59, 54
5, 73920, Note_on_c, 0, 62, 54
5, 73920, Note_on_c, 0, 66, 54
5, 74160, Note_on_c, 0, 66, 0
5, 74160, Note_on_c, 0, 54, 0
5, 74160, Note_on_c, 0, 59, 0
5, 74160, Note_on_c, 0, 62, 0
5, 74160, Note_on_c, 0, 54, 54
5, 74160, Note_on_c, 0, 59, 54
5, 74160, Note_on_c, 0, 62, 54
5, 74160, Note_on_c, 0, 66, 54
5, 74400, Note_on_c, 0, 66, 0
5, 74400, Note_on_c, 0, 54, 0
5, 74400, Note_on_c, 0, 59, 0
5, 74400, Note_on_c, 0, 62, 0
5, 74400, Note_on_c, 0, 54, 54
5, 74400, Note_on_c, 0, 59, 54
5, 74400, Note_on_c, 0, 62, 54
5, 74400, Note_on_c, 0, 66, 54
5, 74640, Note_on_c, 0, 66, 0
5, 74640, Note_on_c, 0, 54, 0
5, 74640, Note_on_c, 0, 59, 0
5, 74640, Note_on_c, 0, 62, 0
5, 74640, Control_c, 0, 64, 0
5, 74640, Note_on_c, 0, 54, 54
5, 74640, Note_on_c, 0, 59, 54
5, 74640, Note_on_c, 0, 62, 54
5, 74640, Note_on_c, 0, 66, 54
5, 74880, Note_on_c, 0, 66, 0
5, 74880, Note_on_c, 0, 54, 0
5, 74880, Note_on_c, 0, 59, 0
5, 74880, Note_on_c, 0, 62, 0
5, 74880, Note_on_c, 0, 54, 54
5, 75600, Note_on_c, 0, 54, 0
5, 75600, Control_c, 0, 64, 127
5, 75600, Note_on_c, 0, 54, 54
5, 75600, Note_on_c, 0, 58, 54
5, 75600, Note_on_c, 0, 61, 54
5, 76240, Note_on_c, 0, 54, 54
5, 76280, Note_on_c, 0, 59, 54
5, 76320, Note_on_c, 0, 61, 0
5, 76320, Note_on_c, 0, 54, 0
5, 76320, Note_on_c, 0, 58, 0
5, 76320, Note_on_c, 0, 62, 54
5, 77040, Note_on_c, 0, 62, 0
5, 77040, Note_on_c, 0, 54, 0
5, 77040, Note_on_c, 0, 59, 0
5, 77040, Control_c, 0, 64, 0
5, 77040, Note_on_c, 0, 54, 54
5, 77040, Note_on_c, 0, 59, 54
5, 77040, Note_on_c, 0, 62, 54
5, 77760, Note_on_c, 0, 62, 0
5, 77760, Note_on_c, 0, 59, 0
5, 77760, Note_on_c, 0, 54, 0
5, 93600, Note_on_c, 0, 43, 67
5, 93600, Note_on_c, 0, 45, 67
5, 95040, Note_on_c, 0, 45, 0
5, 95040, Note_on_c, 0, 43, 0
5, 95040, Note_on_c, 0, 42, 67
5, 95040, Note_on_c, 0, 45, 67
5, 95760, Note_on_c, 0, 45, 0
5, 95760, Note_on_c, 0, 42, 0
5, 95760, Note_on_c, 0, 54, 67
5, 96480, Note_on_c, 0, 54, 0
5, 96480, Note_on_c, 0, 50, 67
5, 97200, Note_on_c, 0, 50, 0
5, 97200, Note_on_c, 0, 54, 67
5, 97920, Note_on_c, 0, 54, 0
5, 97920, Note_on_c, 0, 52, 67
5, 100800, Note_on_c, 0, 52, 0
5, 100800, Note_on_c, 0, 50, 80
5, 102240, Note_on_c, 0, 50, 0
5, 102240, Note_on_c, 0, 38, 80
5, 102240, Note_on_c, 0, 45, 80
5, 103680, Note_on_c, 0, 45, 0
5, 103680, Note_on_c, 0, 38, 0
5, 127440, Note_on_c, 0, 50, 67
5, 128160, Note_on_c, 0, 50, 0
5, 128160, Note_on_c, 0, 49, 67
5, 129600, Note_on_c, 0, 49, 0
5, 129600, Note_on_c, 0, 47, 67
5, 131040, Note_on_c, 0, 47, 0
5, 131040, Note_on_c, 0, 45, 67
5, 132480, Note_on_c, 0, 45, 0
5, 132480, Note_on_c, 0, 44, 67
5, 133200, Note_on_c, 0, 44, 0
5, 133200, Note_on_c, 0, 43, 67
5, 133920, Note_on_c, 0, 43, 0
5, 133920, Note_on_c, 0, 54, 80
5, 135360, Note_on_c, 0, 54, 0
5, 135360, Note_on_c, 0, 40, 80
5, 136080, Note_on_c, 0, 40, 0
5, 136080, Note_on_c, 0, 52, 80
5, 136320, Note_on_c, 0, 52, 0
5, 136320, Note_on_c, 0, 52, 80
5, 136560, Note_on_c, 0, 52, 0
5, 136560, Note_on_c, 0, 52, 80
5, 136800, Note_on_c, 0, 52, 0
5, 136800, Note_on_c, 0, 38, 67
5, 137520, Note_on_c, 0, 38, 0
5, 138960, Note_on_c, 0, 50, 67
5, 139680, Note_on_c, 0, 50, 0
5, 139680, Note_on_c, 0, 49, 67
5, 141120, Note_on_c, 0, 49, 0
5, 141120, Note_on_c, 0, 47, 67
5, 142560, Note_on_c, 0, 47, 0
5, 142560, Note_on_c, 0, 45, 67
5, 144000, Note_on_c, 0, 45, 0
5, 144000, Note_on_c, 0, 44, 67
5, 144720, Note_on_c, 0, 44, 0
5, 144720, Note_on_c, 0, 43, 67
5, 145440, Note_on_c, 0, 43, 0
5, 145440, Note_on_c, 0, 54, 67
5, 145440, Note_on_c, 0, 62, 67
5, 146880, Note_on_c, 0, 62, 0
5, 146880, Note_on_c, 0, 54, 0
5, 164880, Note_on_c, 0, 52, 80
5, 164880, Note_on_c, 0, 55, 80
5, 165120, Note_on_c, 0, 55, 0
5, 165120, Note_on_c, 0, 52, 0
5, 165120, Note_on_c, 0, 52, 80
5, 165120, Note_on_c, 0, 55, 80
5, 165360, Note_on_c, 0, 55, 0
5, 165360, Note_on_c, 0, 52, 0
5, 165360, Note_on_c, 0, 52, 80
5, 165360, Note_on_c, 0, 55, 80
5, 165600, Note_on_c, 0, 55, 0
5, 165600, Note_on_c, 0, 52, 0
5, 166980, Note_on_c, 0, 33, 80
5, 167040, Note_on_c, 0, 45, 80
5, 169920, Note_on_c, 0, 33, 0
5, 172800, Note_on_c, 0, 45, 0
5, 181440, Note_on_c, 0, 49, 67
5, 182880, Note_on_c, 0, 49, 0
5, 182880, Note_on_c, 0, 50, 54
5, 184320, Note_on_c, 0, 50, 0
5, 184320, Note_on_c, 0, 49, 54
5, 185760, Note_on_c, 0, 49, 0
5, 185760, Note_on_c, 0, 50, 54
5, 187200, Note_on_c, 0, 50, 0
5, 187200, Note_on_c, 0, 49, 54
5, 187440, Note_on_c, 0, 49, 0
5, 187440, Note_on_c, 0, 49, 54
5, 187920, Note_on_c, 0, 49, 0
5, 187920, Note_on_c, 0, 49, 54
5, 188400, Note_on_c, 0, 49, 0
5, 188400, Note_on_c, 0, 49, 54
5, 188880, Note_on_c, 0, 49, 0
5, 188880, Note_on_c, 0, 49, 54
5, 189120, Note_on_c, 0, 49, 0
5, 189360, Note_on_c, 0, 49, 67
5, 189840, Note_on_c, 0, 49, 0
5, 189840, Note_on_c, 0, 49, 67
5, 190080, Note_on_c, 0, 49, 0
5, 190320, Note_on_c, 0, 49, 67
5, 190800, Note_on_c, 0, 49, 0
5, 190800, Note_on_c, 0, 49, 67
5, 191040, Note_on_c, 0, 49, 0
5, 191280, Note_on_c, 0, 49, 67
5, 191760, Note_on_c, 0, 49, 0
5, 191760, Note_on_c, 0, 49, 67
5, 192000, Note_on_c, 0, 49, 0
5, 192240, Note_on_c, 0, 49, 67
5, 192720, Note_on_c, 0, 49, 0
5, 192720, Note_on_c, 0, 49, 67
5, 192960, Note_on_c, 0, 49, 0
5, 193200, Note_on_c, 0, 49, 67
5, 193680, Note_on_c, 0, 49, 0
5, 193680, Note_on_c, 0, 49, 67
5, 193920, Note_on_c, 0, 49, 0
5, 194160, Note_on_c, 0, 49, 67
5, 194640, Note_on_c, 0, 49, 0
5, 194640, Note_on_c, 0, 49, 67
5, 194880, Note_on_c, 0, 49, 0
5, 195120, Note_on_c, 0, 49, 67
5, 195600, Note_on_c, 0, 49, 0
5, 195600, Note_on_c, 0, 49, 67
5, 195840, Note_on_c, 0, 49, 0
5, 196080, Note_on_c, 0, 49, 67
5, 196560, Note_on_c, 0, 49, 0
5, 196560, Note_on_c, 0, 49, 67
5, 196800, Note_on_c, 0, 49, 0
5, 201120, Note_on_c, 0, 38, 67
5, 201167, Note_on_c, 0, 38, 0
5, 201600, Control_c, 0, 64, 127
5, 201600, Note_on_c, 0, 37, 67
5, 202200, Note_on_c, 0, 37, 0
5, 202200, Note_on_c, 0, 41, 67
5, 202320, Note_on_c, 0, 41, 0
5, 202320, Note_on_c, 0, 44, 67
5, 202440, Note_on_c, 0, 44, 0
5, 202440, Control_c, 0, 64, 0
5, 202440, Note_on_c, 0, 49, 67
5, 202560, Note_on_c, 0, 49, 0
5, 203040, Note_on_c, 0, 38, 67
5, 203087, Note_on_c, 0, 38, 0
5, 203520, Note_on_c, 0, 37, 67
5, 204120, Note_on_c, 0, 37, 0
5, 204120, Note_on_c, 0, 41, 67
5, 204240, Note_on_c, 0, 41, 0
5, 204240, Note_on_c, 0, 44, 67
5, 204360, Note_on_c, 0, 44, 0
5, 204360, Note_on_c, 0, 49, 67
5, 204480, Note_on_c, 0, 49, 0
5, 204480, Note_on_c, 0, 47, 67
5, 205440, Note_on_c, 0, 47, 0
5, 205440, Note_on_c, 0, 46, 80
5, 206400, Note_on_c, 0, 46, 0
5, 206400, Note_on_c, 0, 44, 67
5, 206880, Note_on_c, 0, 44, 0
5, 206880, Note_on_c, 0, 43, 80
5, 207360, Note_on_c, 0, 43, 0
5, 208320, Note_on_c, 0, 50, 67
5, 209280, Note_on_c, 0, 50, 0
5, 209280, Note_on_c, 0, 49, 80
5, 210240, Note_on_c, 0, 49, 0
5, 211680, Note_on_c, 0, 56, 67
5, 211920, Note_on_c, 0, 56, 0
5, 211920, Note_on_c, 0, 56, 67
5, 212160, Note_on_c, 0, 56, 0
5, 212160, Note_on_c, 0, 49, 67
5, 213120, Note_on_c, 0, 49, 0
5, 213120, Note_on_c, 0, 48, 80
5, 214080, Note_on_c, 0, 48, 0
5, 214080, Note_on_c, 0, 46, 80
5, 214560, Note_on_c, 0, 46, 0
5, 214560, Note_on_c, 0, 45, 80
5, 215040, Note_on_c, 0, 45, 0
5, 216000, Note_on_c, 0, 52, 67
5, 216960, Note_on_c, 0, 52, 0
5, 216960, Note_on_c, 0, 51, 80
5, 217920, Note_on_c, 0, 51, 0
5, 219360, Note_on_c, 0, 58, 67
5, 219600, Note_on_c, 0, 58, 0
5, 219600, Note_on_c, 0, 58, 67
5, 219840, Note_on_c, 0, 58, 0
5, 219840, Note_on_c, 0, 46, 67
5, 220080, Note_on_c, 0, 46, 0
5, 220080, Note_on_c, 0, 46, 67
5, 220560, Note_on_c, 0, 46, 0
5, 220560, Note_on_c, 0, 46, 67
5, 221040, Note_on_c, 0, 46, 0
5, 221040, Note_on_c, 0, 46, 80
5, 221520, Note_on_c, 0, 46, 0
5, 221520, Note_on_c, 0, 46, 67
5, 221760, Note_on_c, 0, 46, 0
5, 222000, Note_on_c, 0, 46, 67
5, 222240, Note_on_c, 0, 46, 0
5, 222720, Note_on_c, 0, 68, 80
5, 222720, Note_on_c, 0, 74, 80
5, 223200, Note_on_c, 0, 74, 0
5, 223200, Note_on_c, 0, 68, 0
5, 223200, Note_on_c, 0, 65, 67
5, 223200, Note_on_c, 0, 68, 67
5, 223680, Note_on_c, 0, 68, 0
5, 223680, Note_on_c, 0, 65, 0
5, 223920, Note_on_c, 0, 46, 80
5, 224160, Note_on_c, 0, 46, 0
5, 224880, Note_on_c, 0, 46, 80
5, 225360, Note_on_c, 0, 46, 0
5, 225360, Note_on_c, 0, 46, 80
5, 225600, Note_on_c, 0, 46, 0
5, 225840, Note_on_c, 0, 46, 80
5, 226080, Note_on_c, 0, 46, 0
5, 226800, Note_on_c, 0, 46, 80
5, 227280, Note_on_c, 0, 46, 0
5, 227280, Note_on_c, 0, 46, 80
5, 227520, Note_on_c, 0, 46, 0
5, 227520, Note_on_c, 0, 56, 67
5, 228480, Note_on_c, 0, 56, 0
5, 228480, Note_on_c, 0, 55, 80
5, 229440, Note_on_c, 0, 55, 0
5, 229440, Note_on_c, 0, 52, 67
5, 230400, Note_on_c, 0, 52, 0
5, 230400, Note_on_c, 0, 51, 80
5, 231360, Note_on_c, 0, 51, 0
5, 231360, Note_on_c, 0, 49, 67
5, 232320, Note_on_c, 0, 49, 0
5, 232320, Note_on_c, 0, 48, 80
5, 233280, Note_on_c, 0, 48, 0
5, 233280, Note_on_c, 0, 45, 67
5, 234240, Note_on_c, 0, 45, 0
5, 234240, Note_on_c, 0, 44, 80
5, 235200, Note_on_c, 0, 44, 0
5, 235200, Note_on_c, 0, 56, 54
5, 235440, Note_on_c, 0, 56, 0
5, 235440, Note_on_c, 0, 56, 54
5, 235920, Note_on_c, 0, 56, 0
5, 235920, Note_on_c, 0, 56, 67
5, 236400, Note_on_c, 0, 56, 0
5, 236400, Note_on_c, 0, 56, 67
5, 236880, Note_on_c, 0, 56, 0
5, 236880, Note_on_c, 0, 56, 54
5, 237360, Note_on_c, 0, 56, 0
5, 237360, Note_on_c, 0, 56, 54
5, 237840, Note_on_c, 0, 56, 0
5, 237840, Note_on_c, 0, 56, 80
5, 238320, Note_on_c, 0, 56, 0
5, 238320, Note_on_c, 0, 56, 80
5, 238800, Note_on_c, 0, 56, 0
5, 238800, Note_on_c, 0, 56, 80
5, 239040, Control_c, 0, 64, 127
5, 239280, Note_on_c, 0, 56, 0
5, 239280, Note_on_c, 0, 56, 80
5, 239520, Note_on_c, 0, 56, 0
5, 240000, Note_on_c, 0, 56, 80
5, 240240, Note_on_c, 0, 56, 0
5, 240240, Note_on_c, 0, 56, 80
5, 240720, Note_on_c, 0, 56, 0
5, 240720, Note_on_c, 0, 56, 80
5, 240960, Control_c, 0, 64, 127
5, 241200, Note_on_c, 0, 56, 0
5, 241200, Note_on_c, 0, 56, 80
5, 241440, Note_on_c, 0, 56, 0
5, 241920, Note_on_c, 0, 56, 80
5, 242160, Note_on_c, 0, 56, 0
5, 242160, Note_on_c, 0, 56, 80
5, 242640, Note_on_c, 0, 56, 0
5, 242640, Note_on_c, 0, 56, 80
5, 242880, Note_on_c, 0, 56, 0
5, 242880, Control_c, 0, 64, 0
5, 243120, Note_on_c, 0, 44, 80
5, 244080, Note_on_c, 0, 44, 0
5, 244080, Note_on_c, 0, 44, 80
5, 244320, Note_on_c, 0, 44, 0
5, 244320, Note_on_c, 0, 44, 80
5, 244560, Note_on_c, 0, 44, 0
5, 244560, Note_on_c, 0, 44, 80
5, 244800, Note_on_c, 0, 44, 0
5, 244800, Note_on_c, 0, 44, 80
5, 245040, Note_on_c, 0, 44, 0
5, 245040, Note_on_c, 0, 44, 80
5, 245280, Note_on_c, 0, 44, 0
5, 245280, Note_on_c, 0, 44, 80
5, 245520, Note_on_c, 0, 44, 0
5, 245520, Note_on_c, 0, 44, 80
5, 245760, Note_on_c, 0, 44, 0
5, 245760, Note_on_c, 0, 44, 80
5, 246000, Note_on_c, 0, 44, 0
5, 246000, Note_on_c, 0, 44, 80
5, 246240, Note_on_c, 0, 44, 0
5, 246240, Note_on_c, 0, 44, 80
5, 246480, Note_on_c, 0, 44, 0
5, 246480, Note_on_c, 0, 44, 80
5, 246720, Note_on_c, 0, 44, 0
5, 246720, Note_on_c, 0, 44, 80
5, 246960, Note_on_c, 0, 44, 0
5, 246960, Note_on_c, 0, 44, 80
5, 247200, Note_on_c, 0, 44, 0
5, 247200, Note_on_c, 0, 44, 80
5, 247440, Note_on_c, 0, 44, 0
5, 247440, Note_on_c, 0, 44, 80
5, 247680, Note_on_c, 0, 44, 0
5, 247680, Note_on_c, 0, 44, 80
5, 247920, Note_on_c, 0, 44, 0
5, 247920, Note_on_c, 0, 56, 80
5, 248160, Note_on_c, 0, 56, 0
5, 248160, Note_on_c, 0, 56, 80
5, 248400, Note_on_c, 0, 56, 0
5, 248400, Note_on_c, 0, 56, 80
5, 248640, Note_on_c, 0, 56, 0
5, 248640, Note_on_c, 0, 56, 80
5, 248880, Note_on_c, 0, 56, 0
5, 248880, Note_on_c, 0, 44, 80
5, 249120, Note_on_c, 0, 44, 0
5, 249120, Note_on_c, 0, 44, 80
5, 249360, Note_on_c, 0, 44, 0
5, 249360, Note_on_c, 0, 44, 80
5, 249600, Note_on_c, 0, 44, 0
5, 249600, Note_on_c, 0, 44, 80
5, 249840, Note_on_c, 0, 44, 0
5, 249840, Note_on_c, 0, 44, 80
5, 250080, Note_on_c, 0, 44, 0
5, 250080, Note_on_c, 0, 44, 80
5, 250320, Note_on_c, 0, 44, 0
5, 250320, Note_on_c, 0, 44, 80
5, 250560, Note_on_c, 0, 44, 0
5, 300720, Note_on_c, 0, 54, 93
5, 302160, Note_on_c, 0, 54, 0
5, 305040, Note_on_c, 0, 52, 67
5, 305760, Note_on_c, 0, 52, 0
5, 307920, Note_on_c, 0, 50, 67
5, 308640, Note_on_c, 0, 50, 0
5, 316560, Note_on_c, 0, 52, 67
5, 317280, Note_on_c, 0, 52, 0
5, 319440, Note_on_c, 0, 50, 67
5, 320160, Note_on_c, 0, 50, 0
5, 349360, Note_on_c, 0, 45, 106
5, 349400, Note_on_c, 0, 52, 106
5, 349440, Note_on_c, 0, 55, 106
5, 350400, Note_on_c, 0, 55, 0
5, 350400, Note_on_c, 0, 52, 0
5, 350400, Note_on_c, 0, 45, 0
5, 352560, Note_on_c, 0, 51, 106
5, 352800, Note_on_c, 0, 51, 0
5, 352800, Note_on_c, 0, 52, 106
5, 353040, Note_on_c, 0, 52, 0
5, 353040, Note_on_c, 0, 55, 106
5, 353280, Note_on_c, 0, 55, 0
5, 353280, Note_on_c, 0, 56, 106
5, 353520, Note_on_c, 0, 56, 0
5, 353520, Note_on_c, 0, 57, 106
5, 353760, Note_on_c, 0, 57, 0
5, 353760, Note_on_c, 0, 58, 106
5, 354000, Note_on_c, 0, 58, 0
5, 354000, Note_on_c, 0, 59, 106
5, 354240, Note_on_c, 0, 59, 0
5, 354240, Note_on_c, 0, 61, 106
5, 354480, Note_on_c, 0, 61, 0
5, 354480, Note_on_c, 0, 62, 106
5, 354720, Note_on_c, 0, 62, 0
5, 354720, Note_on_c, 0, 63, 106
5, 354960, Note_on_c, 0, 63, 0
5, 354960, Note_on_c, 0, 64, 106
5, 355440, Note_on_c, 0, 64, 0
5, 383460, Note_on_c, 0, 33, 106
5, 383520, Note_on_c, 0, 45, 106
5, 386400, Note_on_c, 0, 33, 0
5, 389280, Note_on_c, 0, 45, 0
5, 410400, Note_on_c, 0, 43, 54
5, 410880, Note_on_c, 0, 43, 0
5, 410880, Note_on_c, 0, 43, 54
5, 411360, Note_on_c, 0, 43, 0
5, 416640, Note_on_c, 0, 38, 54
5, 416640, Note_on_c, 0, 45, 54
5, 417360, Note_on_c, 0, 45, 0
5, 417360, Note_on_c, 0, 38, 0
5, 417360, Note_on_c, 0, 38, 54
5, 417360, Note_on_c, 0, 45, 54
5, 418080, Note_on_c, 0, 45, 0
5, 418080, Note_on_c, 0, 38, 0
5, 419520, Note_on_c, 0, 38, 54
5, 419520, Note_on_c, 0, 45, 54
5, 420240, Note_on_c, 0, 45, 0
5, 420240, Note_on_c, 0, 38, 0
5, 420240, Note_on_c, 0, 38, 54
5, 420240, Note_on_c, 0, 45, 54
5, 420960, Note_on_c, 0, 45, 0
5, 420960, Note_on_c, 0, 38, 0
5, 423840, Note_on_c, 0, 38, 80
5, 425280, Note_on_c, 0, 38, 0
5, 426720, Control_c, 0, 64, 127
5, 426720, Note_on_c, 0, 38, 54
5, 426720, Note_on_c, 0, 45, 54
5, 426960, Note_on_c, 0, 45, 0
5, 426960, Note_on_c, 0, 38, 0
5, 426960, Note_on_c, 0, 38, 54
5, 426960, Note_on_c, 0, 45, 54
5, 427200, Note_on_c, 0, 45, 0
5, 427200, Note_on_c, 0, 38, 0
5, 427200, Note_on_c, 0, 38, 54
5, 427200, Note_on_c, 0, 45, 54
5, 427680, Note_on_c, 0, 45, 0
5, 427680, Note_on_c, 0, 38, 0
5, 427680, Note_on_c, 0, 38, 54
5, 427680, Note_on_c, 0, 45, 54
5, 427920, Note_on_c, 0, 45, 0
5, 427920, Note_on_c, 0, 38, 0
5, 427920, Note_on_c, 0, 38, 54
5, 427920, Note_on_c, 0, 45, 54
5, 428160, Note_on_c, 0, 45, 0
5, 428160, Note_on_c, 0, 38, 0
5, 428160, Note_on_c, 0, 50, 54
5, 428160, Note_on_c, 0, 55, 54
5, 428160, Note_on_c, 0, 58, 54
5, 428160, Note_on_c, 0, 61, 54
5, 428400, Note_on_c, 0, 61, 0
5, 428400, Note_on_c, 0, 50, 0
5, 428400, Note_on_c, 0, 55, 0
5, 428400, Note_on_c, 0, 58, 0
5, 428400, Note_on_c, 0, 50, 54
5, 428400, Note_on_c, 0, 55, 54
5, 428400, Note_on_c, 0, 58, 54
5, 428400, Note_on_c, 0, 61, 54
5, 428640, Note_on_c, 0, 61, 0
5, 428640, Note_on_c, 0, 50, 0
5, 428640, Note_on_c, 0, 55, 0
5, 428640, Note_on_c, 0, 58, 0
5, 428640, Note_on_c, 0, 50, 54
5, 428640, Note_on_c, 0, 55, 54
5, 428640, Note_on_c, 0, 58, 54
5, 428640, Note_on_c, 0, 61, 54
5, 428880, Note_on_c, 0, 61, 0
5, 428880, Note_on_c, 0, 50, 0
5, 428880, Note_on_c, 0, 55, 0
5, 428880, Note_on_c, 0, 58, 0
5, 428880, Note_on_c, 0, 50, 54
5, 428880, Note_on_c, 0, 55, 54
5, 428880, Note_on_c, 0, 58, 54
5, 428880, Note_on_c, 0, 61, 54
5, 429120, Note_on_c, 0, 61, 0
5, 429120, Note_on_c, 0, 50, 0
5, 429120, Note_on_c, 0, 55, 0
5, 429120, Note_on_c, 0, 58, 0
5, 429120, Note_on_c, 0, 50, 54
5, 429120, Note_on_c, 0, 55, 54
5, 429120, Note_on_c, 0, 58, 54
5, 429120, Note_on_c, 0, 61, 54
5, 429360, Note_on_c, 0, 61, 0
5, 429360, Note_on_c, 0, 50, 0
5, 429360, Note_on_c, 0, 55, 0
5, 429360, Note_on_c, 0, 58, 0
5, 429360, Control_c, 0, 64, 0
5, 429360, Note_on_c, 0, 50, 54
5, 429360, Note_on_c, 0, 55, 54
5, 429360, Note_on_c, 0, 58, 54
5, 429360, Note_on_c, 0, 61, 54
5, 429600, Note_on_c, 0, 61, 0
5, 429600, Note_on_c, 0, 50, 0
5, 429600, Note_on_c, 0, 55, 0
5, 429600, Note_on_c, 0, 58, 0
5, 429600, Note_on_c, 0, 38, 80
5, 431040, Note_on_c, 0, 38, 0
5, 432480, Control_c, 0, 64, 127
5, 432480, Control_c, 0, 64, 127
5, 432480, Note_on_c, 0, 38, 54
5, 432480, Note_on_c, 0, 45, 54
5, 432720, Note_on_c, 0, 45, 0
5, 432720, Note_on_c, 0, 38, 0
5, 432720, Note_on_c, 0, 38, 54
5, 432720, Note_on_c, 0, 45, 54
5, 433440, Note_on_c, 0, 45, 0
5, 433440, Note_on_c, 0, 38, 0
5, 433440, Note_on_c, 0, 38, 54
5, 433440, Note_on_c, 0, 45, 54
5, 433680, Note_on_c, 0, 45, 0
5, 433680, Note_on_c, 0, 38, 0
5, 433680, Note_on_c, 0, 38, 54
5, 433680, Note_on_c, 0, 45, 54
5, 433920, Note_on_c, 0, 45, 0
5, 433920, Note_on_c, 0, 38, 0
5, 433920, Control_c, 0, 64, 0
5, 433920, Note_on_c, 0, 38, 54
5, 433920, Note_on_c, 0, 45, 54
5, 435360, Note_on_c, 0, 45, 0
5, 435360, Note_on_c, 0, 38, 0
5, 435360, Control_c, 0, 64, 127
5, 435360, Note_on_c, 0, 38, 54
5, 435360, Note_on_c, 0, 45, 54
5, 435360, Note_on_c, 0, 50, 54
5, 435600, Note_on_c, 0, 50, 0
5, 435600, Note_on_c, 0, 45, 0
5, 435600, Note_on_c, 0, 38, 0
5, 435600, Note_on_c, 0, 38, 54
5, 435600, Note_on_c, 0, 45, 54
5, 435600, Note_on_c, 0, 50, 54
5, 435840, Note_on_c, 0, 50, 0
5, 435840, Note_on_c, 0, 45, 0
5, 435840, Note_on_c, 0, 38, 0
5, 435840, Note_on_c, 0, 38, 54
5, 435840, Note_on_c, 0, 45, 54
5, 435840, Note_on_c, 0, 50, 54
5, 436080, Note_on_c, 0, 50, 0
5, 436080, Note_on_c, 0, 45, 0
5, 436080, Note_on_c, 0, 38, 0
5, 436080, Note_on_c, 0, 38, 54
5, 436080, Note_on_c, 0, 45, 54
5, 436080, Note_on_c, 0, 50, 54
5, 436320, Note_on_c, 0, 50, 0
5, 436320, Note_on_c, 0, 45, 0
5, 436320, Note_on_c, 0, 38, 0
5, 436320, Note_on_c, 0, 38, 54
5, 436320, Note_on_c, 0, 45, 54
5, 436320, Note_on_c, 0, 50, 54
5, 436560, Note_on_c, 0, 50, 0
5, 436560, Note_on_c, 0, 45, 0
5, 436560, Note_on_c, 0, 38, 0
5, 436560, Note_on_c, 0, 38, 54
5, 436560, Note_on_c, 0, 45, 54
5, 436560, Note_on_c, 0, 50, 54
5, 436800, Note_on_c, 0, 50, 0
5, 436800, Note_on_c, 0, 45, 0
5, 436800, Note_on_c, 0, 38, 0
5, 436800, Control_c, 0, 64, 0
5, 436800, Note_on_c, 0, 38, 54
5, 436800, Note_on_c, 0, 45, 54
5, 438240, Note_on_c, 0, 45, 0
5, 438240, Note_on_c, 0, 38, 0
5, 438240, End_track
0, 0, End_of_file
