0, 0, Header, 1, 5, 384
1, 0, Start_track
1, 0, Title_t, "        "
1, 0, Sequencer_specific, 3, 0, 0, 65
1, 0, Time_signature, 3, 2, 24, 8
1, 0, Key_signature, 0, "major"
1, 0, Tempo, 468750
1, 225792, Tempo, 750000
1, 226560, Tempo, 468750
1, 228480, Tempo, 750000
1, 229248, Tempo, 468750
1, 364416, Tempo, 517241
1, 364416, End_track
2, 0, Start_track
2, 0, Title_t, "Mozart - Piano Concerto"
2, 0, Control_c, 0, 0, 0
2, 0, Control_c, 0, 7, 115
2, 0, Control_c, 0, 10, 83
2, 0, Control_c, 0, 91, 40
2, 0, Control_c, 0, 93, 34
2, 0, Control_c, 0, 121, 0
2, 0, Control_c, 0, 32, 0
2, 1, Program_c, 0, 0
2, 96, Control_c, 0, 10, 83
2, 192, Control_c, 0, 91, 63
2, 240, Control_c, 0, 93, 40
2, 288, Program_c, 0, 0
2, 1920, Note_on_c, 0, 79, 70
2, 2300, Note_on_c, 0, 79, 0
2, 2304, Note_on_c, 0, 79, 70
2, 2348, Note_on_c, 0, 79, 0
2, 2352, Note_on_c, 0, 81, 70
2, 2396, Note_on_c, 0, 81, 0
2, 2400, Note_on_c, 0, 79, 70
2, 2444, Note_on_c, 0, 79, 0
2, 2448, Note_on_c, 0, 81, 70
2, 2492, Note_on_c, 0, 81, 0
2, 2496, Note_on_c, 0, 79, 70
2, 2540, Note_on_c, 0, 79, 0
2, 2544, Note_on_c, 0, 81, 70
2, 2588, Note_on_c, 0, 81, 0
2, 2592, Note_on_c, 0, 79, 70
2, 2636, Note_on_c, 0, 79, 0
2, 2640, Note_on_c, 0, 81, 70
2, 2684, Note_on_c, 0, 81, 0
2, 2976, Note_on_c, 0, 81, 70
2, 3020, Note_on_c, 0, 81, 0
2, 3072, Note_on_c, 0, 77, 70
2, 3260, Note_on_c, 0, 77, 0
2, 3456, Note_on_c, 0, 76, 70
2, 3644, Note_on_c, 0, 76, 0
2, 4224, Note_on_c, 0, 72, 70
2, 4604, Note_on_c, 0, 72, 0
2, 4608, Note_on_c, 0, 73, 70
2, 4796, Note_on_c, 0, 73, 0
2, 4800, Note_on_c, 0, 74, 70
2, 4988, Note_on_c, 0, 74, 0
2, 4992, Note_on_c, 0, 76, 70
2, 5180, Note_on_c, 0, 76, 0
2, 5184, Note_on_c, 0, 74, 70
2, 5372, Note_on_c, 0, 74, 0
2, 5376, Note_on_c, 0, 77, 70
2, 5564, Note_on_c, 0, 77, 0
2, 5568, Note_on_c, 0, 74, 70
2, 5756, Note_on_c, 0, 74, 0
2, 5760, Note_on_c, 0, 72, 70
2, 5948, Note_on_c, 0, 72, 0
2, 5952, Note_on_c, 0, 71, 70
2, 6140, Note_on_c, 0, 71, 0
2, 6144, Note_on_c, 0, 69, 70
2, 6332, Note_on_c, 0, 69, 0
2, 6336, Note_on_c, 0, 67, 70
2, 6524, Note_on_c, 0, 67, 0
2, 6528, Note_on_c, 0, 79, 70
2, 6908, Note_on_c, 0, 79, 0
2, 6912, Note_on_c, 0, 79, 70
2, 6956, Note_on_c, 0, 79, 0
2, 6960, Note_on_c, 0, 81, 70
2, 7004, Note_on_c, 0, 81, 0
2, 7008, Note_on_c, 0, 79, 70
2, 7052, Note_on_c, 0, 79, 0
2, 7056, Note_on_c, 0, 81, 70
2, 7100, Note_on_c, 0, 81, 0
2, 7104, Note_on_c, 0, 79, 70
2, 7148, Note_on_c, 0, 79, 0
2, 7152, Note_on_c, 0, 81, 70
2, 7196, Note_on_c, 0, 81, 0
2, 7200, Note_on_c, 0, 79, 70
2, 7244, Note_on_c, 0, 79, 0
2, 7248, Note_on_c, 0, 81, 70
2, 7292, Note_on_c, 0, 81, 0
2, 7584, Note_on_c, 0, 81, 70
2, 7628, Note_on_c, 0, 81, 0
2, 7680, Note_on_c, 0, 77, 70
2, 8060, Note_on_c, 0, 77, 0
2, 8064, Note_on_c, 0, 76, 70
2, 8444, Note_on_c, 0, 76, 0
2, 8832, Note_on_c, 0, 72, 70
2, 9212, Note_on_c, 0, 72, 0
2, 9216, Note_on_c, 0, 74, 70
2, 9340, Note_on_c, 0, 74, 0
2, 9344, Note_on_c, 0, 77, 70
2, 9468, Note_on_c, 0, 77, 0
2, 9472, Note_on_c, 0, 81, 70
2, 9596, Note_on_c, 0, 81, 0
2, 9600, Note_on_c, 0, 72, 70
2, 9980, Note_on_c, 0, 72, 0
2, 9984, Note_on_c, 0, 72, 70
2, 10028, Note_on_c, 0, 72, 0
2, 10032, Note_on_c, 0, 74, 70
2, 10076, Note_on_c, 0, 74, 0
2, 10080, Note_on_c, 0, 72, 70
2, 10124, Note_on_c, 0, 72, 0
2, 10128, Note_on_c, 0, 74, 70
2, 10172, Note_on_c, 0, 74, 0
2, 10176, Note_on_c, 0, 71, 70
2, 10268, Note_on_c, 0, 71, 0
2, 10272, Note_on_c, 0, 72, 70
2, 10364, Note_on_c, 0, 72, 0
2, 10368, Note_on_c, 0, 72, 70
2, 10748, Note_on_c, 0, 72, 0
2, 33408, Program_c, 0, 0
2, 33600, Note_on_c, 0, 79, 72
2, 33692, Note_on_c, 0, 79, 0
2, 33792, Note_on_c, 0, 79, 74
2, 33884, Note_on_c, 0, 79, 0
2, 33984, Note_on_c, 0, 79, 77
2, 34076, Note_on_c, 0, 79, 0
2, 34176, Note_on_c, 0, 79, 79
2, 34268, Note_on_c, 0, 79, 0
2, 34368, Note_on_c, 0, 79, 82
2, 34460, Note_on_c, 0, 79, 0
2, 34560, Note_on_c, 0, 81, 83
2, 34748, Note_on_c, 0, 81, 0
2, 34752, Note_on_c, 0, 79, 82
2, 34940, Note_on_c, 0, 79, 0
2, 34944, Note_on_c, 0, 77, 79
2, 35036, Note_on_c, 0, 77, 0
2, 35136, Note_on_c, 0, 76, 77
2, 35228, Note_on_c, 0, 76, 0
2, 35328, Note_on_c, 0, 74, 74
2, 35420, Note_on_c, 0, 74, 0
2, 35520, Note_on_c, 0, 72, 72
2, 35612, Note_on_c, 0, 72, 0
2, 35712, Note_on_c, 0, 74, 71
2, 35900, Note_on_c, 0, 74, 0
2, 35904, Note_on_c, 0, 86, 72
2, 36092, Note_on_c, 0, 86, 0
2, 36096, Note_on_c, 0, 86, 74
2, 36188, Note_on_c, 0, 86, 0
2, 36288, Note_on_c, 0, 86, 77
2, 36380, Note_on_c, 0, 86, 0
2, 36480, Note_on_c, 0, 86, 79
2, 36572, Note_on_c, 0, 86, 0
2, 36672, Note_on_c, 0, 86, 82
2, 36764, Note_on_c, 0, 86, 0
2, 36864, Note_on_c, 0, 88, 83
2, 37052, Note_on_c, 0, 88, 0
2, 37056, Note_on_c, 0, 86, 82
2, 37244, Note_on_c, 0, 86, 0
2, 37248, Note_on_c, 0, 84, 79
2, 37340, Note_on_c, 0, 84, 0
2, 37440, Note_on_c, 0, 83, 77
2, 37532, Note_on_c, 0, 83, 0
2, 37632, Note_on_c, 0, 81, 74
2, 37724, Note_on_c, 0, 81, 0
2, 37824, Note_on_c, 0, 79, 72
2, 37916, Note_on_c, 0, 79, 0
2, 38016, Note_on_c, 0, 78, 71
2, 38204, Note_on_c, 0, 78, 0
2, 38208, Note_on_c, 0, 84, 72
2, 38396, Note_on_c, 0, 84, 0
2, 38400, Note_on_c, 0, 84, 74
2, 38492, Note_on_c, 0, 84, 0
2, 38592, Note_on_c, 0, 84, 77
2, 38684, Note_on_c, 0, 84, 0
2, 38784, Note_on_c, 0, 84, 79
2, 38876, Note_on_c, 0, 84, 0
2, 38976, Note_on_c, 0, 84, 82
2, 39068, Note_on_c, 0, 84, 0
2, 39168, Note_on_c, 0, 86, 83
2, 39356, Note_on_c, 0, 86, 0
2, 39360, Note_on_c, 0, 84, 82
2, 39548, Note_on_c, 0, 84, 0
2, 39552, Note_on_c, 0, 83, 79
2, 39644, Note_on_c, 0, 83, 0
2, 39744, Note_on_c, 0, 81, 77
2, 39836, Note_on_c, 0, 81, 0
2, 39936, Note_on_c, 0, 79, 74
2, 40028, Note_on_c, 0, 79, 0
2, 40128, Note_on_c, 0, 78, 72
2, 40220, Note_on_c, 0, 78, 0
2, 40320, Note_on_c, 0, 81, 83
2, 40508, Note_on_c, 0, 81, 0
2, 40512, Note_on_c, 0, 79, 82
2, 40700, Note_on_c, 0, 79, 0
2, 40704, Note_on_c, 0, 78, 79
2, 40796, Note_on_c, 0, 78, 0
2, 40896, Note_on_c, 0, 76, 77
2, 40988, Note_on_c, 0, 76, 0
2, 41088, Note_on_c, 0, 74, 74
2, 41180, Note_on_c, 0, 74, 0
2, 41280, Note_on_c, 0, 73, 72
2, 41372, Note_on_c, 0, 73, 0
2, 41472, Note_on_c, 0, 81, 71
2, 41660, Note_on_c, 0, 81, 0
2, 41664, Note_on_c, 0, 72, 73
2, 41852, Note_on_c, 0, 72, 0
2, 41856, Note_on_c, 0, 72, 77
2, 42236, Note_on_c, 0, 72, 0
2, 42240, Note_on_c, 0, 71, 83
2, 42284, Note_on_c, 0, 71, 0
2, 42288, Note_on_c, 0, 72, 86
2, 42332, Note_on_c, 0, 72, 0
2, 42336, Note_on_c, 0, 71, 86
2, 42380, Note_on_c, 0, 71, 0
2, 42384, Note_on_c, 0, 72, 87
2, 42428, Note_on_c, 0, 72, 0
2, 42432, Note_on_c, 0, 69, 88
2, 42524, Note_on_c, 0, 69, 0
2, 42528, Note_on_c, 0, 71, 89
2, 42620, Note_on_c, 0, 71, 0
2, 42624, Note_on_c, 0, 69, 91
2, 43004, Note_on_c, 0, 69, 0
2, 46080, Note_on_c, 0, 74, 70
2, 46364, Note_on_c, 0, 74, 0
2, 46368, Note_on_c, 0, 71, 70
2, 46460, Note_on_c, 0, 71, 0
2, 46464, Note_on_c, 0, 79, 70
2, 47228, Note_on_c, 0, 79, 0
2, 47232, Note_on_c, 0, 76, 70
2, 47516, Note_on_c, 0, 76, 0
2, 47520, Note_on_c, 0, 72, 70
2, 47612, Note_on_c, 0, 72, 0
2, 47616, Note_on_c, 0, 79, 70
2, 48380, Note_on_c, 0, 79, 0
2, 48384, Note_on_c, 0, 74, 70
2, 48668, Note_on_c, 0, 74, 0
2, 48672, Note_on_c, 0, 71, 70
2, 48764, Note_on_c, 0, 71, 0
2, 48768, Note_on_c, 0, 76, 70
2, 49052, Note_on_c, 0, 76, 0
2, 49056, Note_on_c, 0, 72, 70
2, 49148, Note_on_c, 0, 72, 0
2, 49152, Note_on_c, 0, 69, 70
2, 49436, Note_on_c, 0, 69, 0
2, 49440, Note_on_c, 0, 67, 70
2, 49532, Note_on_c, 0, 67, 0
2, 49536, Note_on_c, 0, 66, 70
2, 49820, Note_on_c, 0, 66, 0
2, 49824, Note_on_c, 0, 62, 70
2, 49916, Note_on_c, 0, 62, 0
2, 49920, Note_on_c, 0, 72, 70
2, 50492, Note_on_c, 0, 72, 0
2, 50496, Note_on_c, 0, 69, 70
2, 50684, Note_on_c, 0, 69, 0
2, 50688, Note_on_c, 0, 74, 70
2, 50688, Note_on_c, 0, 62, 70
2, 50972, Note_on_c, 0, 62, 0
2, 50972, Note_on_c, 0, 74, 0
2, 50976, Note_on_c, 0, 71, 70
2, 50976, Note_on_c, 0, 59, 70
2, 51068, Note_on_c, 0, 59, 0
2, 51068, Note_on_c, 0, 71, 0
2, 51072, Note_on_c, 0, 79, 70
2, 51072, Note_on_c, 0, 67, 70
2, 51836, Note_on_c, 0, 67, 0
2, 51836, Note_on_c, 0, 79, 0
2, 51840, Note_on_c, 0, 76, 91
2, 51840, Note_on_c, 0, 64, 91
2, 52124, Note_on_c, 0, 64, 0
2, 52124, Note_on_c, 0, 76, 0
2, 52128, Note_on_c, 0, 72, 91
2, 52128, Note_on_c, 0, 60, 91
2, 52220, Note_on_c, 0, 60, 0
2, 52220, Note_on_c, 0, 72, 0
2, 52224, Note_on_c, 0, 79, 91
2, 52224, Note_on_c, 0, 67, 91
2, 52988, Note_on_c, 0, 67, 0
2, 52988, Note_on_c, 0, 79, 0
2, 52992, Note_on_c, 0, 74, 90
2, 53084, Note_on_c, 0, 74, 0
2, 53088, Note_on_c, 0, 76, 89
2, 53132, Note_on_c, 0, 76, 0
2, 53136, Note_on_c, 0, 74, 89
2, 53180, Note_on_c, 0, 74, 0
2, 53184, Note_on_c, 0, 72, 88
2, 53228, Note_on_c, 0, 72, 0
2, 53232, Note_on_c, 0, 74, 88
2, 53276, Note_on_c, 0, 74, 0
2, 53280, Note_on_c, 0, 76, 87
2, 53372, Note_on_c, 0, 76, 0
2, 53376, Note_on_c, 0, 67, 86
2, 53756, Note_on_c, 0, 67, 0
2, 53760, Note_on_c, 0, 66, 80
2, 53804, Note_on_c, 0, 66, 0
2, 53808, Note_on_c, 0, 67, 79
2, 53852, Note_on_c, 0, 67, 0
2, 53856, Note_on_c, 0, 66, 79
2, 53900, Note_on_c, 0, 66, 0
2, 53904, Note_on_c, 0, 67, 78
2, 53948, Note_on_c, 0, 67, 0
2, 53952, Note_on_c, 0, 64, 78
2, 54044, Note_on_c, 0, 64, 0
2, 54048, Note_on_c, 0, 66, 77
2, 54140, Note_on_c, 0, 66, 0
2, 54144, Note_on_c, 0, 67, 76
2, 54524, Note_on_c, 0, 67, 0
2, 54720, Note_on_c, 0, 62, 70
2, 54812, Note_on_c, 0, 62, 0
2, 54912, Note_on_c, 0, 64, 70
2, 55004, Note_on_c, 0, 64, 0
2, 55104, Note_on_c, 0, 66, 70
2, 55196, Note_on_c, 0, 66, 0
2, 55296, Note_on_c, 0, 67, 70
2, 55388, Note_on_c, 0, 67, 0
2, 55392, Note_on_c, 0, 62, 70
2, 55484, Note_on_c, 0, 62, 0
2, 55488, Note_on_c, 0, 59, 70
2, 55580, Note_on_c, 0, 59, 0
2, 55584, Note_on_c, 0, 62, 70
2, 55676, Note_on_c, 0, 62, 0
2, 55680, Note_on_c, 0, 67, 70
2, 55772, Note_on_c, 0, 67, 0
2, 55872, Note_on_c, 0, 67, 70
2, 55872, Note_on_c, 0, 62, 70
2, 55964, Note_on_c, 0, 62, 0
2, 55964, Note_on_c, 0, 67, 0
2, 56064, Note_on_c, 0, 69, 70
2, 56064, Note_on_c, 0, 66, 70
2, 56156, Note_on_c, 0, 66, 0
2, 56156, Note_on_c, 0, 69, 0
2, 56256, Note_on_c, 0, 71, 70
2, 56256, Note_on_c, 0, 67, 70
2, 56348, Note_on_c, 0, 67, 0
2, 56348, Note_on_c, 0, 71, 0
2, 56448, Note_on_c, 0, 69, 70
2, 56540, Note_on_c, 0, 69, 0
2, 56544, Note_on_c, 0, 66, 70
2, 56636, Note_on_c, 0, 66, 0
2, 56640, Note_on_c, 0, 62, 70
2, 56732, Note_on_c, 0, 62, 0
2, 56736, Note_on_c, 0, 66, 70
2, 56828, Note_on_c, 0, 66, 0
2, 56832, Note_on_c, 0, 69, 70
2, 56924, Note_on_c, 0, 69, 0
2, 57024, Note_on_c, 0, 62, 70
2, 57116, Note_on_c, 0, 62, 0
2, 57216, Note_on_c, 0, 66, 70
2, 57216, Note_on_c, 0, 62, 70
2, 57308, Note_on_c, 0, 62, 0
2, 57308, Note_on_c, 0, 66, 0
2, 57408, Note_on_c, 0, 67, 70
2, 57408, Note_on_c, 0, 64, 70
2, 57500, Note_on_c, 0, 64, 0
2, 57500, Note_on_c, 0, 67, 0
2, 57600, Note_on_c, 0, 69, 70
2, 57692, Note_on_c, 0, 69, 0
2, 57696, Note_on_c, 0, 66, 70
2, 57788, Note_on_c, 0, 66, 0
2, 57792, Note_on_c, 0, 62, 70
2, 57884, Note_on_c, 0, 62, 0
2, 57888, Note_on_c, 0, 66, 70
2, 57980, Note_on_c, 0, 66, 0
2, 57984, Note_on_c, 0, 69, 70
2, 58172, Note_on_c, 0, 69, 0
2, 58176, Note_on_c, 0, 69, 70
2, 58176, Note_on_c, 0, 66, 70
2, 58268, Note_on_c, 0, 66, 0
2, 58268, Note_on_c, 0, 69, 0
2, 58368, Note_on_c, 0, 71, 70
2, 58368, Note_on_c, 0, 67, 70
2, 58460, Note_on_c, 0, 67, 0
2, 58460, Note_on_c, 0, 71, 0
2, 58560, Note_on_c, 0, 72, 70
2, 58560, Note_on_c, 0, 69, 70
2, 58652, Note_on_c, 0, 69, 0
2, 58652, Note_on_c, 0, 72, 0
2, 58752, Note_on_c, 0, 71, 70
2, 58844, Note_on_c, 0, 71, 0
2, 58848, Note_on_c, 0, 67, 70
2, 58940, Note_on_c, 0, 67, 0
2, 58944, Note_on_c, 0, 62, 70
2, 59036, Note_on_c, 0, 62, 0
2, 59040, Note_on_c, 0, 67, 70
2, 59132, Note_on_c, 0, 67, 0
2, 59136, Note_on_c, 0, 71, 70
2, 59228, Note_on_c, 0, 71, 0
2, 59328, Note_on_c, 0, 74, 70
2, 59328, Note_on_c, 0, 71, 70
2, 59420, Note_on_c, 0, 71, 0
2, 59420, Note_on_c, 0, 74, 0
2, 59520, Note_on_c, 0, 76, 71
2, 59520, Note_on_c, 0, 72, 71
2, 59612, Note_on_c, 0, 72, 0
2, 59612, Note_on_c, 0, 76, 0
2, 59712, Note_on_c, 0, 78, 71
2, 59712, Note_on_c, 0, 74, 71
2, 59804, Note_on_c, 0, 74, 0
2, 59804, Note_on_c, 0, 78, 0
2, 59904, Note_on_c, 0, 79, 72
2, 59996, Note_on_c, 0, 79, 0
2, 60000, Note_on_c, 0, 74, 72
2, 60092, Note_on_c, 0, 74, 0
2, 60096, Note_on_c, 0, 71, 72
2, 60188, Note_on_c, 0, 71, 0
2, 60192, Note_on_c, 0, 74, 72
2, 60284, Note_on_c, 0, 74, 0
2, 60288, Note_on_c, 0, 79, 73
2, 60380, Note_on_c, 0, 79, 0
2, 60480, Note_on_c, 0, 71, 73
2, 60480, Note_on_c, 0, 67, 73
2, 60572, Note_on_c, 0, 67, 0
2, 60572, Note_on_c, 0, 71, 0
2, 60672, Note_on_c, 0, 72, 74
2, 60672, Note_on_c, 0, 69, 74
2, 60764, Note_on_c, 0, 69, 0
2, 60764, Note_on_c, 0, 72, 0
2, 60864, Note_on_c, 0, 74, 74
2, 60864, Note_on_c, 0, 71, 74
2, 60956, Note_on_c, 0, 71, 0
2, 60956, Note_on_c, 0, 74, 0
2, 61056, Note_on_c, 0, 76, 76
2, 61148, Note_on_c, 0, 76, 0
2, 61152, Note_on_c, 0, 72, 76
2, 61244, Note_on_c, 0, 72, 0
2, 61248, Note_on_c, 0, 69, 76
2, 61340, Note_on_c, 0, 69, 0
2, 61344, Note_on_c, 0, 72, 77
2, 61436, Note_on_c, 0, 72, 0
2, 61440, Note_on_c, 0, 76, 77
2, 61532, Note_on_c, 0, 76, 0
2, 61632, Note_on_c, 0, 69, 78
2, 61632, Note_on_c, 0, 66, 78
2, 61724, Note_on_c, 0, 66, 0
2, 61724, Note_on_c, 0, 69, 0
2, 61824, Note_on_c, 0, 71, 78
2, 61824, Note_on_c, 0, 67, 78
2, 61916, Note_on_c, 0, 67, 0
2, 61916, Note_on_c, 0, 71, 0
2, 62016, Note_on_c, 0, 72, 79
2, 62016, Note_on_c, 0, 69, 79
2, 62108, Note_on_c, 0, 69, 0
2, 62108, Note_on_c, 0, 72, 0
2, 62208, Note_on_c, 0, 74, 79
2, 62300, Note_on_c, 0, 74, 0
2, 62304, Note_on_c, 0, 71, 79
2, 62396, Note_on_c, 0, 71, 0
2, 62400, Note_on_c, 0, 67, 80
2, 62492, Note_on_c, 0, 67, 0
2, 62496, Note_on_c, 0, 71, 80
2, 62588, Note_on_c, 0, 71, 0
2, 62592, Note_on_c, 0, 74, 80
2, 62684, Note_on_c, 0, 74, 0
2, 62784, Note_on_c, 0, 74, 82
2, 62876, Note_on_c, 0, 74, 0
2, 62976, Note_on_c, 0, 76, 82
2, 63068, Note_on_c, 0, 76, 0
2, 63072, Note_on_c, 0, 74, 83
2, 63164, Note_on_c, 0, 74, 0
2, 63168, Note_on_c, 0, 72, 83
2, 63260, Note_on_c, 0, 72, 0
2, 63264, Note_on_c, 0, 71, 83
2, 63356, Note_on_c, 0, 71, 0
2, 63360, Note_on_c, 0, 71, 83
2, 63360, Note_on_c, 0, 67, 83
2, 63740, Note_on_c, 0, 67, 0
2, 63740, Note_on_c, 0, 71, 0
2, 63744, Note_on_c, 0, 69, 83
2, 63744, Note_on_c, 0, 66, 83
2, 63932, Note_on_c, 0, 66, 0
2, 63932, Note_on_c, 0, 69, 0
2, 63936, Note_on_c, 0, 74, 70
2, 64028, Note_on_c, 0, 74, 0
2, 64128, Note_on_c, 0, 74, 70
2, 64220, Note_on_c, 0, 74, 0
2, 64320, Note_on_c, 0, 74, 70
2, 64412, Note_on_c, 0, 74, 0
2, 64512, Note_on_c, 0, 74, 70
2, 64892, Note_on_c, 0, 74, 0
2, 64896, Note_on_c, 0, 74, 70
2, 65084, Note_on_c, 0, 74, 0
2, 65088, Note_on_c, 0, 86, 70
2, 65180, Note_on_c, 0, 86, 0
2, 65280, Note_on_c, 0, 86, 70
2, 65372, Note_on_c, 0, 86, 0
2, 65472, Note_on_c, 0, 86, 70
2, 65564, Note_on_c, 0, 86, 0
2, 65664, Note_on_c, 0, 86, 70
2, 65708, Note_on_c, 0, 86, 0
2, 65712, Note_on_c, 0, 88, 70
2, 65756, Note_on_c, 0, 88, 0
2, 65760, Note_on_c, 0, 86, 70
2, 65804, Note_on_c, 0, 86, 0
2, 65808, Note_on_c, 0, 88, 70
2, 65852, Note_on_c, 0, 88, 0
2, 65856, Note_on_c, 0, 86, 70
2, 65900, Note_on_c, 0, 86, 0
2, 65904, Note_on_c, 0, 88, 70
2, 65948, Note_on_c, 0, 88, 0
2, 65952, Note_on_c, 0, 86, 70
2, 65996, Note_on_c, 0, 86, 0
2, 66000, Note_on_c, 0, 88, 70
2, 66044, Note_on_c, 0, 88, 0
2, 66048, Note_on_c, 0, 86, 70
2, 66092, Note_on_c, 0, 86, 0
2, 66096, Note_on_c, 0, 88, 70
2, 66140, Note_on_c, 0, 88, 0
2, 66144, Note_on_c, 0, 86, 70
2, 66188, Note_on_c, 0, 86, 0
2, 66192, Note_on_c, 0, 88, 70
2, 66236, Note_on_c, 0, 88, 0
2, 66240, Note_on_c, 0, 86, 70
2, 66284, Note_on_c, 0, 86, 0
2, 66288, Note_on_c, 0, 88, 70
2, 66332, Note_on_c, 0, 88, 0
2, 66336, Note_on_c, 0, 86, 70
2, 66380, Note_on_c, 0, 86, 0
2, 66384, Note_on_c, 0, 88, 70
2, 66428, Note_on_c, 0, 88, 0
2, 66432, Note_on_c, 0, 86, 70
2, 66476, Note_on_c, 0, 86, 0
2, 66480, Note_on_c, 0, 88, 70
2, 66524, Note_on_c, 0, 88, 0
2, 66528, Note_on_c, 0, 86, 70
2, 66572, Note_on_c, 0, 86, 0
2, 66576, Note_on_c, 0, 88, 70
2, 66620, Note_on_c, 0, 88, 0
2, 66624, Note_on_c, 0, 86, 70
2, 66668, Note_on_c, 0, 86, 0
2, 66672, Note_on_c, 0, 88, 70
2, 66716, Note_on_c, 0, 88, 0
2, 66720, Note_on_c, 0, 86, 70
2, 66764, Note_on_c, 0, 86, 0
2, 66768, Note_on_c, 0, 88, 70
2, 66812, Note_on_c, 0, 88, 0
2, 66816, Note_on_c, 0, 86, 70
2, 66860, Note_on_c, 0, 86, 0
2, 66864, Note_on_c, 0, 88, 70
2, 66908, Note_on_c, 0, 88, 0
2, 66912, Note_on_c, 0, 86, 70
2, 66956, Note_on_c, 0, 86, 0
2, 66960, Note_on_c, 0, 88, 70
2, 67004, Note_on_c, 0, 88, 0
2, 67008, Note_on_c, 0, 86, 70
2, 67052, Note_on_c, 0, 86, 0
2, 67056, Note_on_c, 0, 88, 70
2, 67100, Note_on_c, 0, 88, 0
2, 67104, Note_on_c, 0, 86, 70
2, 67148, Note_on_c, 0, 86, 0
2, 67152, Note_on_c, 0, 88, 70
2, 67196, Note_on_c, 0, 88, 0
2, 67200, Note_on_c, 0, 86, 70
2, 67244, Note_on_c, 0, 86, 0
2, 67248, Note_on_c, 0, 88, 70
2, 67292, Note_on_c, 0, 88, 0
2, 67296, Note_on_c, 0, 86, 70
2, 67340, Note_on_c, 0, 86, 0
2, 67344, Note_on_c, 0, 88, 70
2, 67388, Note_on_c, 0, 88, 0
2, 67392, Note_on_c, 0, 86, 70
2, 67436, Note_on_c, 0, 86, 0
2, 67440, Note_on_c, 0, 88, 70
2, 67484, Note_on_c, 0, 88, 0
2, 67488, Note_on_c, 0, 86, 70
2, 67532, Note_on_c, 0, 86, 0
2, 67536, Note_on_c, 0, 88, 70
2, 67580, Note_on_c, 0, 88, 0
2, 67584, Note_on_c, 0, 86, 70
2, 67628, Note_on_c, 0, 86, 0
2, 67632, Note_on_c, 0, 88, 70
2, 67676, Note_on_c, 0, 88, 0
2, 67680, Note_on_c, 0, 86, 70
2, 67724, Note_on_c, 0, 86, 0
2, 67728, Note_on_c, 0, 88, 70
2, 67772, Note_on_c, 0, 88, 0
2, 67776, Note_on_c, 0, 86, 70
2, 67820, Note_on_c, 0, 86, 0
2, 67824, Note_on_c, 0, 88, 70
2, 67868, Note_on_c, 0, 88, 0
2, 67872, Note_on_c, 0, 86, 70
2, 67916, Note_on_c, 0, 86, 0
2, 67920, Note_on_c, 0, 88, 70
2, 67964, Note_on_c, 0, 88, 0
2, 67968, Note_on_c, 0, 86, 70
2, 68348, Note_on_c, 0, 86, 0
2, 68352, Note_on_c, 0, 79, 91
2, 68444, Note_on_c, 0, 79, 0
2, 68448, Note_on_c, 0, 74, 91
2, 68540, Note_on_c, 0, 74, 0
2, 68544, Note_on_c, 0, 71, 91
2, 68636, Note_on_c, 0, 71, 0
2, 68640, Note_on_c, 0, 74, 91
2, 68732, Note_on_c, 0, 74, 0
2, 68736, Note_on_c, 0, 79, 91
2, 68828, Note_on_c, 0, 79, 0
2, 68832, Note_on_c, 0, 74, 91
2, 68924, Note_on_c, 0, 74, 0
2, 68928, Note_on_c, 0, 71, 91
2, 69020, Note_on_c, 0, 71, 0
2, 69024, Note_on_c, 0, 74, 91
2, 69116, Note_on_c, 0, 74, 0
2, 69120, Note_on_c, 0, 79, 91
2, 69308, Note_on_c, 0, 79, 0
2, 69312, Note_on_c, 0, 74, 91
2, 69500, Note_on_c, 0, 74, 0
2, 69504, Note_on_c, 0, 83, 91
2, 69596, Note_on_c, 0, 83, 0
2, 69600, Note_on_c, 0, 79, 91
2, 69692, Note_on_c, 0, 79, 0
2, 69696, Note_on_c, 0, 74, 91
2, 69788, Note_on_c, 0, 74, 0
2, 69792, Note_on_c, 0, 79, 91
2, 69884, Note_on_c, 0, 79, 0
2, 69888, Note_on_c, 0, 83, 91
2, 69980, Note_on_c, 0, 83, 0
2, 69984, Note_on_c, 0, 79, 91
2, 70076, Note_on_c, 0, 79, 0
2, 70080, Note_on_c, 0, 74, 91
2, 70172, Note_on_c, 0, 74, 0
2, 70176, Note_on_c, 0, 79, 91
2, 70268, Note_on_c, 0, 79, 0
2, 70272, Note_on_c, 0, 83, 91
2, 70460, Note_on_c, 0, 83, 0
2, 70464, Note_on_c, 0, 79, 91
2, 70652, Note_on_c, 0, 79, 0
2, 70656, Note_on_c, 0, 86, 91
2, 70748, Note_on_c, 0, 86, 0
2, 70752, Note_on_c, 0, 83, 91
2, 70844, Note_on_c, 0, 83, 0
2, 70848, Note_on_c, 0, 79, 91
2, 70940, Note_on_c, 0, 79, 0
2, 70944, Note_on_c, 0, 83, 91
2, 71036, Note_on_c, 0, 83, 0
2, 71040, Note_on_c, 0, 86, 91
2, 71132, Note_on_c, 0, 86, 0
2, 71136, Note_on_c, 0, 83, 91
2, 71228, Note_on_c, 0, 83, 0
2, 71232, Note_on_c, 0, 79, 91
2, 71324, Note_on_c, 0, 79, 0
2, 71328, Note_on_c, 0, 83, 91
2, 71420, Note_on_c, 0, 83, 0
2, 71424, Note_on_c, 0, 86, 91
2, 71424, Note_on_c, 0, 59, 91
2, 71516, Note_on_c, 0, 86, 0
2, 71520, Note_on_c, 0, 83, 91
2, 71612, Note_on_c, 0, 83, 0
2, 71616, Note_on_c, 0, 79, 91
2, 71708, Note_on_c, 0, 79, 0
2, 71712, Note_on_c, 0, 74, 91
2, 71804, Note_on_c, 0, 74, 0
2, 71804, Note_on_c, 0, 59, 0
2, 71808, Note_on_c, 0, 83, 91
2, 71808, Note_on_c, 0, 67, 91
2, 71808, Note_on_c, 0, 62, 91
2, 72188, Note_on_c, 0, 62, 0
2, 72188, Note_on_c, 0, 67, 0
2, 72188, Note_on_c, 0, 83, 0
2, 72192, Note_on_c, 0, 81, 91
2, 72192, Note_on_c, 0, 66, 91
2, 72192, Note_on_c, 0, 62, 91
2, 72236, Note_on_c, 0, 81, 0
2, 72240, Note_on_c, 0, 83, 91
2, 72284, Note_on_c, 0, 83, 0
2, 72288, Note_on_c, 0, 81, 91
2, 72332, Note_on_c, 0, 81, 0
2, 72336, Note_on_c, 0, 83, 91
2, 72380, Note_on_c, 0, 83, 0
2, 72384, Note_on_c, 0, 81, 91
2, 72428, Note_on_c, 0, 81, 0
2, 72432, Note_on_c, 0, 83, 91
2, 72476, Note_on_c, 0, 83, 0
2, 72480, Note_on_c, 0, 79, 91
2, 72524, Note_on_c, 0, 79, 0
2, 72528, Note_on_c, 0, 81, 91
2, 72572, Note_on_c, 0, 81, 0
2, 72572, Note_on_c, 0, 62, 0
2, 72572, Note_on_c, 0, 66, 0
2, 72576, Note_on_c, 0, 79, 91
2, 72576, Note_on_c, 0, 67, 91
2, 72956, Note_on_c, 0, 67, 0
2, 72956, Note_on_c, 0, 79, 0
2, 72960, Note_on_c, 0, 67, 70
2, 73052, Note_on_c, 0, 67, 0
2, 73056, Note_on_c, 0, 62, 70
2, 73148, Note_on_c, 0, 62, 0
2, 73152, Note_on_c, 0, 59, 70
2, 73244, Note_on_c, 0, 59, 0
2, 73248, Note_on_c, 0, 62, 70
2, 73340, Note_on_c, 0, 62, 0
2, 73344, Note_on_c, 0, 67, 70
2, 73436, Note_on_c, 0, 67, 0
2, 73440, Note_on_c, 0, 62, 70
2, 73532, Note_on_c, 0, 62, 0
2, 73536, Note_on_c, 0, 59, 70
2, 73628, Note_on_c, 0, 59, 0
2, 73632, Note_on_c, 0, 62, 70
2, 73724, Note_on_c, 0, 62, 0
2, 73728, Note_on_c, 0, 67, 70
2, 73916, Note_on_c, 0, 67, 0
2, 73920, Note_on_c, 0, 62, 70
2, 74108, Note_on_c, 0, 62, 0
2, 74112, Note_on_c, 0, 71, 70
2, 74204, Note_on_c, 0, 71, 0
2, 74208, Note_on_c, 0, 67, 70
2, 74300, Note_on_c, 0, 67, 0
2, 74304, Note_on_c, 0, 62, 70
2, 74396, Note_on_c, 0, 62, 0
2, 74400, Note_on_c, 0, 67, 70
2, 74492, Note_on_c, 0, 67, 0
2, 74496, Note_on_c, 0, 71, 71
2, 74588, Note_on_c, 0, 71, 0
2, 74592, Note_on_c, 0, 67, 71
2, 74684, Note_on_c, 0, 67, 0
2, 74688, Note_on_c, 0, 62, 71
2, 74780, Note_on_c, 0, 62, 0
2, 74784, Note_on_c, 0, 67, 72
2, 74876, Note_on_c, 0, 67, 0
2, 74880, Note_on_c, 0, 72, 72
2, 75068, Note_on_c, 0, 72, 0
2, 75072, Note_on_c, 0, 67, 73
2, 75260, Note_on_c, 0, 67, 0
2, 75264, Note_on_c, 0, 74, 74
2, 75356, Note_on_c, 0, 74, 0
2, 75360, Note_on_c, 0, 71, 76
2, 75452, Note_on_c, 0, 71, 0
2, 75456, Note_on_c, 0, 67, 76
2, 75548, Note_on_c, 0, 67, 0
2, 75552, Note_on_c, 0, 71, 77
2, 75644, Note_on_c, 0, 71, 0
2, 75648, Note_on_c, 0, 74, 77
2, 75740, Note_on_c, 0, 74, 0
2, 75744, Note_on_c, 0, 71, 77
2, 75836, Note_on_c, 0, 71, 0
2, 75840, Note_on_c, 0, 67, 78
2, 75932, Note_on_c, 0, 67, 0
2, 75936, Note_on_c, 0, 71, 78
2, 76028, Note_on_c, 0, 71, 0
2, 76032, Note_on_c, 0, 74, 79
2, 76124, Note_on_c, 0, 74, 0
2, 76128, Note_on_c, 0, 71, 79
2, 76220, Note_on_c, 0, 71, 0
2, 76224, Note_on_c, 0, 67, 80
2, 76316, Note_on_c, 0, 67, 0
2, 76320, Note_on_c, 0, 62, 80
2, 76412, Note_on_c, 0, 62, 0
2, 76416, Note_on_c, 0, 71, 82
2, 76796, Note_on_c, 0, 71, 0
2, 76800, Note_on_c, 0, 69, 89
2, 76844, Note_on_c, 0, 69, 0
2, 76848, Note_on_c, 0, 71, 87
2, 76892, Note_on_c, 0, 71, 0
2, 76896, Note_on_c, 0, 69, 83
2, 76940, Note_on_c, 0, 69, 0
2, 76944, Note_on_c, 0, 71, 82
2, 76988, Note_on_c, 0, 71, 0
2, 76992, Note_on_c, 0, 69, 79
2, 77036, Note_on_c, 0, 69, 0
2, 77040, Note_on_c, 0, 71, 77
2, 77084, Note_on_c, 0, 71, 0
2, 77088, Note_on_c, 0, 67, 74
2, 77132, Note_on_c, 0, 67, 0
2, 77136, Note_on_c, 0, 69, 72
2, 77180, Note_on_c, 0, 69, 0
2, 77184, Note_on_c, 0, 67, 70
2, 77564, Note_on_c, 0, 67, 0
2, 77760, Note_on_c, 0, 81, 70
2, 77852, Note_on_c, 0, 81, 0
2, 77856, Note_on_c, 0, 79, 70
2, 77948, Note_on_c, 0, 79, 0
2, 77952, Note_on_c, 0, 78, 70
2, 78044, Note_on_c, 0, 78, 0
2, 78048, Note_on_c, 0, 79, 70
2, 78140, Note_on_c, 0, 79, 0
2, 78144, Note_on_c, 0, 81, 70
2, 78236, Note_on_c, 0, 81, 0
2, 78240, Note_on_c, 0, 79, 70
2, 78332, Note_on_c, 0, 79, 0
2, 78336, Note_on_c, 0, 77, 70
2, 78716, Note_on_c, 0, 77, 0
2, 78912, Note_on_c, 0, 79, 70
2, 79004, Note_on_c, 0, 79, 0
2, 79008, Note_on_c, 0, 77, 70
2, 79100, Note_on_c, 0, 77, 0
2, 79104, Note_on_c, 0, 76, 71
2, 79196, Note_on_c, 0, 76, 0
2, 79200, Note_on_c, 0, 77, 71
2, 79292, Note_on_c, 0, 77, 0
2, 79296, Note_on_c, 0, 79, 72
2, 79388, Note_on_c, 0, 79, 0
2, 79392, Note_on_c, 0, 77, 73
2, 79484, Note_on_c, 0, 77, 0
2, 79488, Note_on_c, 0, 76, 73
2, 79676, Note_on_c, 0, 76, 0
2, 79680, Note_on_c, 0, 84, 76
2, 79868, Note_on_c, 0, 84, 0
2, 79872, Note_on_c, 0, 84, 77
2, 79964, Note_on_c, 0, 84, 0
2, 80064, Note_on_c, 0, 84, 78
2, 80156, Note_on_c, 0, 84, 0
2, 80256, Note_on_c, 0, 84, 80
2, 80348, Note_on_c, 0, 84, 0
2, 80448, Note_on_c, 0, 84, 82
2, 80540, Note_on_c, 0, 84, 0
2, 80640, Note_on_c, 0, 84, 70
2, 80732, Note_on_c, 0, 84, 0
2, 80736, Note_on_c, 0, 86, 70
2, 80828, Note_on_c, 0, 86, 0
2, 80832, Note_on_c, 0, 88, 70
2, 80924, Note_on_c, 0, 88, 0
2, 80928, Note_on_c, 0, 84, 70
2, 81020, Note_on_c, 0, 84, 0
2, 81024, Note_on_c, 0, 81, 70
2, 81116, Note_on_c, 0, 81, 0
2, 81120, Note_on_c, 0, 83, 70
2, 81212, Note_on_c, 0, 83, 0
2, 81216, Note_on_c, 0, 84, 70
2, 81308, Note_on_c, 0, 84, 0
2, 81312, Note_on_c, 0, 81, 70
2, 81404, Note_on_c, 0, 81, 0
2, 81408, Note_on_c, 0, 78, 70
2, 81500, Note_on_c, 0, 78, 0
2, 81504, Note_on_c, 0, 84, 70
2, 81596, Note_on_c, 0, 84, 0
2, 81600, Note_on_c, 0, 81, 70
2, 81692, Note_on_c, 0, 81, 0
2, 81696, Note_on_c, 0, 78, 70
2, 81788, Note_on_c, 0, 78, 0
2, 81792, Note_on_c, 0, 79, 70
2, 82172, Note_on_c, 0, 79, 0
2, 82368, Note_on_c, 0, 69, 70
2, 82460, Note_on_c, 0, 69, 0
2, 82464, Note_on_c, 0, 67, 70
2, 82556, Note_on_c, 0, 67, 0
2, 82560, Note_on_c, 0, 66, 70
2, 82652, Note_on_c, 0, 66, 0
2, 82656, Note_on_c, 0, 67, 70
2, 82748, Note_on_c, 0, 67, 0
2, 82752, Note_on_c, 0, 69, 70
2, 82844, Note_on_c, 0, 69, 0
2, 82848, Note_on_c, 0, 67, 70
2, 82940, Note_on_c, 0, 67, 0
2, 82944, Note_on_c, 0, 65, 70
2, 83324, Note_on_c, 0, 65, 0
2, 83520, Note_on_c, 0, 67, 70
2, 83612, Note_on_c, 0, 67, 0
2, 83616, Note_on_c, 0, 65, 70
2, 83708, Note_on_c, 0, 65, 0
2, 83712, Note_on_c, 0, 64, 70
2, 83804, Note_on_c, 0, 64, 0
2, 83808, Note_on_c, 0, 65, 70
2, 83900, Note_on_c, 0, 65, 0
2, 83904, Note_on_c, 0, 67, 70
2, 83996, Note_on_c, 0, 67, 0
2, 84000, Note_on_c, 0, 65, 70
2, 84092, Note_on_c, 0, 65, 0
2, 84096, Note_on_c, 0, 64, 71
2, 84284, Note_on_c, 0, 64, 0
2, 84288, Note_on_c, 0, 72, 71
2, 84476, Note_on_c, 0, 72, 0
2, 84480, Note_on_c, 0, 72, 72
2, 84572, Note_on_c, 0, 72, 0
2, 84672, Note_on_c, 0, 72, 72
2, 84764, Note_on_c, 0, 72, 0
2, 84864, Note_on_c, 0, 72, 73
2, 84956, Note_on_c, 0, 72, 0
2, 85056, Note_on_c, 0, 72, 74
2, 85148, Note_on_c, 0, 72, 0
2, 85248, Note_on_c, 0, 72, 74
2, 85436, Note_on_c, 0, 72, 0
2, 85440, Note_on_c, 0, 84, 76
2, 85628, Note_on_c, 0, 84, 0
2, 85632, Note_on_c, 0, 84, 76
2, 85724, Note_on_c, 0, 84, 0
2, 85824, Note_on_c, 0, 84, 77
2, 85916, Note_on_c, 0, 84, 0
2, 86016, Note_on_c, 0, 84, 78
2, 86108, Note_on_c, 0, 84, 0
2, 86208, Note_on_c, 0, 84, 78
2, 86300, Note_on_c, 0, 84, 0
2, 86400, Note_on_c, 0, 84, 79
2, 86460, Note_on_c, 0, 84, 0
2, 86464, Note_on_c, 0, 86, 79
2, 86524, Note_on_c, 0, 86, 0
2, 86528, Note_on_c, 0, 84, 79
2, 86588, Note_on_c, 0, 84, 0
2, 86592, Note_on_c, 0, 86, 79
2, 86652, Note_on_c, 0, 86, 0
2, 86656, Note_on_c, 0, 84, 80
2, 86716, Note_on_c, 0, 84, 0
2, 86720, Note_on_c, 0, 83, 80
2, 86780, Note_on_c, 0, 83, 0
2, 86784, Note_on_c, 0, 84, 80
2, 86972, Note_on_c, 0, 84, 0
2, 86976, Note_on_c, 0, 86, 82
2, 87164, Note_on_c, 0, 86, 0
2, 87168, Note_on_c, 0, 88, 82
2, 87548, Note_on_c, 0, 88, 0
2, 87552, Note_on_c, 0, 86, 83
2, 87740, Note_on_c, 0, 86, 0
2, 87744, Note_on_c, 0, 84, 82
2, 87836, Note_on_c, 0, 84, 0
2, 87936, Note_on_c, 0, 83, 80
2, 88124, Note_on_c, 0, 83, 0
2, 88128, Note_on_c, 0, 81, 78
2, 88220, Note_on_c, 0, 81, 0
2, 88320, Note_on_c, 0, 79, 77
2, 88508, Note_on_c, 0, 79, 0
2, 88512, Note_on_c, 0, 78, 76
2, 88604, Note_on_c, 0, 78, 0
2, 88704, Note_on_c, 0, 79, 73
2, 89084, Note_on_c, 0, 79, 0
2, 89280, Note_on_c, 0, 78, 70
2, 89372, Note_on_c, 0, 78, 0
2, 89376, Note_on_c, 0, 79, 70
2, 89468, Note_on_c, 0, 79, 0
2, 89472, Note_on_c, 0, 81, 70
2, 89564, Note_on_c, 0, 81, 0
2, 89568, Note_on_c, 0, 79, 70
2, 89660, Note_on_c, 0, 79, 0
2, 89664, Note_on_c, 0, 83, 70
2, 89756, Note_on_c, 0, 83, 0
2, 89760, Note_on_c, 0, 79, 70
2, 89852, Note_on_c, 0, 79, 0
2, 89856, Note_on_c, 0, 74, 70
2, 90236, Note_on_c, 0, 74, 0
2, 90432, Note_on_c, 0, 73, 70
2, 90524, Note_on_c, 0, 73, 0
2, 90528, Note_on_c, 0, 74, 70
2, 90620, Note_on_c, 0, 74, 0
2, 90624, Note_on_c, 0, 76, 71
2, 90716, Note_on_c, 0, 76, 0
2, 90720, Note_on_c, 0, 74, 71
2, 90812, Note_on_c, 0, 74, 0
2, 90816, Note_on_c, 0, 79, 72
2, 90908, Note_on_c, 0, 79, 0
2, 90912, Note_on_c, 0, 74, 72
2, 91004, Note_on_c, 0, 74, 0
2, 91008, Note_on_c, 0, 72, 73
2, 91100, Note_on_c, 0, 72, 0
2, 91104, Note_on_c, 0, 71, 74
2, 91196, Note_on_c, 0, 71, 0
2, 91200, Note_on_c, 0, 74, 74
2, 91292, Note_on_c, 0, 74, 0
2, 91296, Note_on_c, 0, 71, 76
2, 91388, Note_on_c, 0, 71, 0
2, 91392, Note_on_c, 0, 69, 76
2, 91484, Note_on_c, 0, 69, 0
2, 91488, Note_on_c, 0, 67, 77
2, 91580, Note_on_c, 0, 67, 0
2, 91584, Note_on_c, 0, 71, 78
2, 91676, Note_on_c, 0, 71, 0
2, 91680, Note_on_c, 0, 67, 78
2, 91772, Note_on_c, 0, 67, 0
2, 91776, Note_on_c, 0, 64, 79
2, 91868, Note_on_c, 0, 64, 0
2, 91872, Note_on_c, 0, 62, 79
2, 91964, Note_on_c, 0, 62, 0
2, 91968, Note_on_c, 0, 67, 80
2, 92060, Note_on_c, 0, 67, 0
2, 92064, Note_on_c, 0, 62, 82
2, 92156, Note_on_c, 0, 62, 0
2, 92160, Note_on_c, 0, 60, 82
2, 92252, Note_on_c, 0, 60, 0
2, 92256, Note_on_c, 0, 59, 83
2, 92348, Note_on_c, 0, 59, 0
2, 92352, Note_on_c, 0, 62, 83
2, 92444, Note_on_c, 0, 62, 0
2, 92448, Note_on_c, 0, 59, 83
2, 92540, Note_on_c, 0, 59, 0
2, 92544, Note_on_c, 0, 55, 86
2, 92732, Note_on_c, 0, 55, 0
2, 92928, Note_on_c, 0, 55, 88
2, 93116, Note_on_c, 0, 55, 0
2, 93312, Note_on_c, 0, 55, 91
2, 93788, Note_on_c, 0, 55, 0
2, 93792, Note_on_c, 0, 59, 91
2, 93884, Note_on_c, 0, 59, 0
2, 93888, Note_on_c, 0, 62, 91
2, 93980, Note_on_c, 0, 62, 0
2, 93984, Note_on_c, 0, 60, 91
2, 94076, Note_on_c, 0, 60, 0
2, 94080, Note_on_c, 0, 59, 91
2, 94172, Note_on_c, 0, 59, 0
2, 94176, Note_on_c, 0, 62, 91
2, 94268, Note_on_c, 0, 62, 0
2, 94272, Note_on_c, 0, 65, 91
2, 94364, Note_on_c, 0, 65, 0
2, 94368, Note_on_c, 0, 64, 91
2, 94460, Note_on_c, 0, 64, 0
2, 94464, Note_on_c, 0, 62, 91
2, 94556, Note_on_c, 0, 62, 0
2, 94560, Note_on_c, 0, 65, 91
2, 94652, Note_on_c, 0, 65, 0
2, 94656, Note_on_c, 0, 69, 91
2, 94748, Note_on_c, 0, 69, 0
2, 94752, Note_on_c, 0, 67, 91
2, 94844, Note_on_c, 0, 67, 0
2, 94848, Note_on_c, 0, 65, 91
2, 94940, Note_on_c, 0, 65, 0
2, 94944, Note_on_c, 0, 71, 91
2, 95036, Note_on_c, 0, 71, 0
2, 95040, Note_on_c, 0, 74, 91
2, 95132, Note_on_c, 0, 74, 0
2, 95136, Note_on_c, 0, 72, 91
2, 95228, Note_on_c, 0, 72, 0
2, 95232, Note_on_c, 0, 71, 91
2, 95324, Note_on_c, 0, 71, 0
2, 95328, Note_on_c, 0, 74, 91
2, 95420, Note_on_c, 0, 74, 0
2, 95424, Note_on_c, 0, 77, 91
2, 95516, Note_on_c, 0, 77, 0
2, 95520, Note_on_c, 0, 76, 91
2, 95612, Note_on_c, 0, 76, 0
2, 95616, Note_on_c, 0, 74, 91
2, 95708, Note_on_c, 0, 74, 0
2, 95712, Note_on_c, 0, 77, 91
2, 95804, Note_on_c, 0, 77, 0
2, 95808, Note_on_c, 0, 81, 91
2, 95900, Note_on_c, 0, 81, 0
2, 95904, Note_on_c, 0, 79, 91
2, 95996, Note_on_c, 0, 79, 0
2, 96000, Note_on_c, 0, 79, 91
2, 96572, Note_on_c, 0, 79, 0
2, 96576, Note_on_c, 0, 78, 91
2, 96764, Note_on_c, 0, 78, 0
2, 96768, Note_on_c, 0, 77, 90
2, 96956, Note_on_c, 0, 77, 0
2, 96960, Note_on_c, 0, 76, 88
2, 97148, Note_on_c, 0, 76, 0
2, 97152, Note_on_c, 0, 79, 83
2, 97340, Note_on_c, 0, 79, 0
2, 97344, Note_on_c, 0, 77, 80
2, 97532, Note_on_c, 0, 77, 0
2, 97536, Note_on_c, 0, 81, 77
2, 97724, Note_on_c, 0, 81, 0
2, 97728, Note_on_c, 0, 79, 73
2, 97916, Note_on_c, 0, 79, 0
2, 97920, Note_on_c, 0, 79, 70
2, 97964, Note_on_c, 0, 79, 0
2, 97968, Note_on_c, 0, 81, 70
2, 98012, Note_on_c, 0, 81, 0
2, 98016, Note_on_c, 0, 79, 70
2, 98060, Note_on_c, 0, 79, 0
2, 98064, Note_on_c, 0, 81, 70
2, 98108, Note_on_c, 0, 81, 0
2, 98112, Note_on_c, 0, 79, 70
2, 98156, Note_on_c, 0, 79, 0
2, 98160, Note_on_c, 0, 81, 70
2, 98204, Note_on_c, 0, 81, 0
2, 98208, Note_on_c, 0, 79, 70
2, 98252, Note_on_c, 0, 79, 0
2, 98256, Note_on_c, 0, 81, 70
2, 98300, Note_on_c, 0, 81, 0
2, 98592, Note_on_c, 0, 81, 70
2, 98636, Note_on_c, 0, 81, 0
2, 98688, Note_on_c, 0, 77, 70
2, 98876, Note_on_c, 0, 77, 0
2, 99072, Note_on_c, 0, 76, 70
2, 99260, Note_on_c, 0, 76, 0
2, 99840, Note_on_c, 0, 72, 70
2, 100220, Note_on_c, 0, 72, 0
2, 100224, Note_on_c, 0, 73, 70
2, 100412, Note_on_c, 0, 73, 0
2, 100416, Note_on_c, 0, 74, 70
2, 100604, Note_on_c, 0, 74, 0
2, 100608, Note_on_c, 0, 76, 70
2, 100700, Note_on_c, 0, 76, 0
2, 100704, Note_on_c, 0, 74, 70
2, 100796, Note_on_c, 0, 74, 0
2, 100800, Note_on_c, 0, 76, 70
2, 100892, Note_on_c, 0, 76, 0
2, 100896, Note_on_c, 0, 74, 70
2, 100988, Note_on_c, 0, 74, 0
2, 100992, Note_on_c, 0, 77, 70
2, 101180, Note_on_c, 0, 77, 0
2, 101184, Note_on_c, 0, 74, 70
2, 101372, Note_on_c, 0, 74, 0
2, 101376, Note_on_c, 0, 72, 70
2, 101564, Note_on_c, 0, 72, 0
2, 101568, Note_on_c, 0, 71, 70
2, 101756, Note_on_c, 0, 71, 0
2, 101760, Note_on_c, 0, 69, 70
2, 101948, Note_on_c, 0, 69, 0
2, 101952, Note_on_c, 0, 67, 70
2, 102140, Note_on_c, 0, 67, 0
2, 102144, Note_on_c, 0, 79, 70
2, 102236, Note_on_c, 0, 79, 0
2, 102336, Note_on_c, 0, 79, 70
2, 102428, Note_on_c, 0, 79, 0
2, 102528, Note_on_c, 0, 79, 70
2, 102572, Note_on_c, 0, 79, 0
2, 102576, Note_on_c, 0, 81, 70
2, 102620, Note_on_c, 0, 81, 0
2, 102624, Note_on_c, 0, 79, 70
2, 102668, Note_on_c, 0, 79, 0
2, 102672, Note_on_c, 0, 81, 70
2, 102716, Note_on_c, 0, 81, 0
2, 102720, Note_on_c, 0, 79, 70
2, 102764, Note_on_c, 0, 79, 0
2, 102768, Note_on_c, 0, 81, 70
2, 102812, Note_on_c, 0, 81, 0
2, 102816, Note_on_c, 0, 79, 70
2, 102860, Note_on_c, 0, 79, 0
2, 102864, Note_on_c, 0, 81, 70
2, 102908, Note_on_c, 0, 81, 0
2, 103200, Note_on_c, 0, 81, 70
2, 103244, Note_on_c, 0, 81, 0
2, 103296, Note_on_c, 0, 77, 70
2, 103484, Note_on_c, 0, 77, 0
2, 103680, Note_on_c, 0, 76, 70
2, 103868, Note_on_c, 0, 76, 0
2, 104448, Note_on_c, 0, 84, 70
2, 104540, Note_on_c, 0, 84, 0
2, 104544, Note_on_c, 0, 72, 70
2, 104828, Note_on_c, 0, 72, 0
2, 104832, Note_on_c, 0, 74, 68
2, 104956, Note_on_c, 0, 74, 0
2, 104960, Note_on_c, 0, 77, 68
2, 105084, Note_on_c, 0, 77, 0
2, 105088, Note_on_c, 0, 81, 66
2, 105212, Note_on_c, 0, 81, 0
2, 105216, Note_on_c, 0, 72, 65
2, 105596, Note_on_c, 0, 72, 0
2, 105600, Note_on_c, 0, 71, 62
2, 105644, Note_on_c, 0, 71, 0
2, 105648, Note_on_c, 0, 72, 62
2, 105692, Note_on_c, 0, 72, 0
2, 105696, Note_on_c, 0, 71, 62
2, 105740, Note_on_c, 0, 71, 0
2, 105744, Note_on_c, 0, 72, 62
2, 105788, Note_on_c, 0, 72, 0
2, 105792, Note_on_c, 0, 69, 62
2, 105884, Note_on_c, 0, 69, 0
2, 105888, Note_on_c, 0, 71, 62
2, 105980, Note_on_c, 0, 71, 0
2, 105984, Note_on_c, 0, 72, 62
2, 106364, Note_on_c, 0, 72, 0
2, 131328, Note_on_c, 0, 81, 70
2, 131516, Note_on_c, 0, 81, 0
2, 131520, Note_on_c, 0, 76, 70
2, 131520, Note_on_c, 0, 72, 70
2, 131520, Note_on_c, 0, 69, 70
2, 131612, Note_on_c, 0, 69, 0
2, 131612, Note_on_c, 0, 72, 0
2, 131708, Note_on_c, 0, 76, 0
2, 131712, Note_on_c, 0, 76, 70
2, 131712, Note_on_c, 0, 72, 70
2, 131712, Note_on_c, 0, 69, 70
2, 131804, Note_on_c, 0, 69, 0
2, 131804, Note_on_c, 0, 72, 0
2, 131904, Note_on_c, 0, 72, 70
2, 131904, Note_on_c, 0, 69, 70
2, 131996, Note_on_c, 0, 69, 0
2, 131996, Note_on_c, 0, 72, 0
2, 132096, Note_on_c, 0, 72, 70
2, 132096, Note_on_c, 0, 69, 70
2, 132188, Note_on_c, 0, 69, 0
2, 132188, Note_on_c, 0, 72, 0
2, 132288, Note_on_c, 0, 72, 70
2, 132288, Note_on_c, 0, 69, 70
2, 132380, Note_on_c, 0, 69, 0
2, 132380, Note_on_c, 0, 72, 0
2, 132476, Note_on_c, 0, 76, 0
2, 132480, Note_on_c, 0, 77, 70
2, 132524, Note_on_c, 0, 77, 0
2, 132528, Note_on_c, 0, 79, 70
2, 132572, Note_on_c, 0, 79, 0
2, 132576, Note_on_c, 0, 77, 70
2, 132620, Note_on_c, 0, 77, 0
2, 132624, Note_on_c, 0, 79, 70
2, 132668, Note_on_c, 0, 79, 0
2, 132672, Note_on_c, 0, 76, 70
2, 132672, Note_on_c, 0, 72, 70
2, 132672, Note_on_c, 0, 70, 70
2, 132764, Note_on_c, 0, 70, 0
2, 132764, Note_on_c, 0, 72, 0
2, 132848, Note_on_c, 0, 70, 70
2, 132860, Note_on_c, 0, 76, 0
2, 132864, Note_on_c, 0, 76, 70
2, 132864, Note_on_c, 0, 72, 70
2, 132940, Note_on_c, 0, 70, 0
2, 132956, Note_on_c, 0, 72, 0
2, 133056, Note_on_c, 0, 72, 70
2, 133056, Note_on_c, 0, 70, 70
2, 133148, Note_on_c, 0, 70, 0
2, 133148, Note_on_c, 0, 72, 0
2, 133248, Note_on_c, 0, 72, 70
2, 133248, Note_on_c, 0, 70, 70
2, 133340, Note_on_c, 0, 70, 0
2, 133340, Note_on_c, 0, 72, 0
2, 133440, Note_on_c, 0, 72, 70
2, 133440, Note_on_c, 0, 70, 70
2, 133532, Note_on_c, 0, 70, 0
2, 133532, Note_on_c, 0, 72, 0
2, 133632, Note_on_c, 0, 69, 70
2, 133820, Note_on_c, 0, 76, 0
2, 133824, Note_on_c, 0, 84, 70
2, 134012, Note_on_c, 0, 69, 0
2, 134016, Note_on_c, 0, 67, 70
2, 134204, Note_on_c, 0, 84, 0
2, 134208, Note_on_c, 0, 83, 70
2, 134396, Note_on_c, 0, 67, 0
2, 134400, Note_on_c, 0, 65, 71
2, 134588, Note_on_c, 0, 83, 0
2, 134592, Note_on_c, 0, 81, 71
2, 134780, Note_on_c, 0, 65, 0
2, 134784, Note_on_c, 0, 64, 72
2, 134972, Note_on_c, 0, 81, 0
2, 134976, Note_on_c, 0, 80, 72
2, 135164, Note_on_c, 0, 64, 0
2, 135168, Note_on_c, 0, 62, 73
2, 135356, Note_on_c, 0, 80, 0
2, 135360, Note_on_c, 0, 81, 73
2, 135548, Note_on_c, 0, 81, 0
2, 135548, Note_on_c, 0, 62, 0
2, 135552, Note_on_c, 0, 77, 74
2, 135552, Note_on_c, 0, 60, 74
2, 135740, Note_on_c, 0, 77, 0
2, 135744, Note_on_c, 0, 76, 74
2, 135932, Note_on_c, 0, 76, 0
2, 135932, Note_on_c, 0, 60, 0
2, 135936, Note_on_c, 0, 59, 76
2, 136128, Note_on_c, 0, 74, 77
2, 136172, Note_on_c, 0, 74, 0
2, 136176, Note_on_c, 0, 76, 77
2, 136220, Note_on_c, 0, 76, 0
2, 136224, Note_on_c, 0, 77, 77
2, 136316, Note_on_c, 0, 77, 0
2, 136316, Note_on_c, 0, 59, 0
2, 136320, Note_on_c, 0, 76, 77
2, 136508, Note_on_c, 0, 76, 0
2, 136512, Note_on_c, 0, 74, 78
2, 136700, Note_on_c, 0, 74, 0
2, 136704, Note_on_c, 0, 72, 78
2, 136892, Note_on_c, 0, 72, 0
2, 136896, Note_on_c, 0, 71, 79
2, 137084, Note_on_c, 0, 71, 0
2, 137088, Note_on_c, 0, 69, 79
2, 137280, Note_on_c, 0, 62, 80
2, 137324, Note_on_c, 0, 62, 0
2, 137328, Note_on_c, 0, 64, 80
2, 137372, Note_on_c, 0, 64, 0
2, 137376, Note_on_c, 0, 65, 80
2, 137468, Note_on_c, 0, 65, 0
2, 137468, Note_on_c, 0, 69, 0
2, 137472, Note_on_c, 0, 68, 80
2, 137472, Note_on_c, 0, 64, 80
2, 137660, Note_on_c, 0, 64, 0
2, 137664, Note_on_c, 0, 62, 82
2, 137852, Note_on_c, 0, 62, 0
2, 137852, Note_on_c, 0, 68, 0
2, 137856, Note_on_c, 0, 60, 82
2, 137856, Note_on_c, 0, 80, 82
2, 138044, Note_on_c, 0, 60, 0
2, 138048, Note_on_c, 0, 59, 83
2, 138236, Note_on_c, 0, 59, 0
2, 138240, Note_on_c, 0, 60, 83
2, 138332, Note_on_c, 0, 80, 0
2, 138432, Note_on_c, 0, 76, 82
2, 138620, Note_on_c, 0, 60, 0
2, 138624, Note_on_c, 0, 68, 79
2, 138812, Note_on_c, 0, 76, 0
2, 138816, Note_on_c, 0, 74, 77
2, 139004, Note_on_c, 0, 68, 0
2, 139008, Note_on_c, 0, 69, 74
2, 139196, Note_on_c, 0, 74, 0
2, 139200, Note_on_c, 0, 72, 72
2, 139388, Note_on_c, 0, 69, 0
2, 139392, Note_on_c, 0, 69, 70
2, 139392, Note_on_c, 0, 64, 70
2, 139580, Note_on_c, 0, 72, 0
2, 139584, Note_on_c, 0, 74, 72
2, 139772, Note_on_c, 0, 74, 0
2, 139776, Note_on_c, 0, 75, 74
2, 139964, Note_on_c, 0, 75, 0
2, 139968, Note_on_c, 0, 76, 77
2, 140156, Note_on_c, 0, 76, 0
2, 140156, Note_on_c, 0, 69, 0
2, 140160, Note_on_c, 0, 71, 79
2, 140160, Note_on_c, 0, 68, 79
2, 140540, Note_on_c, 0, 68, 0
2, 140540, Note_on_c, 0, 71, 0
2, 140540, Note_on_c, 0, 64, 0
2, 140544, Note_on_c, 0, 69, 83
2, 140732, Note_on_c, 0, 69, 0
2, 140736, Note_on_c, 0, 64, 83
2, 140924, Note_on_c, 0, 64, 0
2, 140928, Note_on_c, 0, 64, 83
2, 141692, Note_on_c, 0, 64, 0
2, 141696, Note_on_c, 0, 65, 83
2, 141740, Note_on_c, 0, 65, 0
2, 141744, Note_on_c, 0, 67, 83
2, 141788, Note_on_c, 0, 67, 0
2, 141792, Note_on_c, 0, 65, 83
2, 141836, Note_on_c, 0, 65, 0
2, 141840, Note_on_c, 0, 67, 83
2, 141884, Note_on_c, 0, 67, 0
2, 141888, Note_on_c, 0, 64, 83
2, 142076, Note_on_c, 0, 64, 0
2, 142080, Note_on_c, 0, 64, 83
2, 143036, Note_on_c, 0, 64, 0
2, 143056, Note_on_c, 0, 72, 86
2, 143424, Note_on_c, 0, 71, 86
2, 143436, Note_on_c, 0, 72, 0
2, 143804, Note_on_c, 0, 71, 0
2, 143808, Note_on_c, 0, 69, 87
2, 144188, Note_on_c, 0, 69, 0
2, 144192, Note_on_c, 0, 68, 87
2, 144572, Note_on_c, 0, 68, 0
2, 144576, Note_on_c, 0, 69, 87
2, 144764, Note_on_c, 0, 69, 0
2, 144768, Note_on_c, 0, 65, 88
2, 144956, Note_on_c, 0, 65, 0
2, 144960, Note_on_c, 0, 64, 88
2, 145148, Note_on_c, 0, 64, 0
2, 145344, Note_on_c, 0, 62, 88
2, 145388, Note_on_c, 0, 62, 0
2, 145392, Note_on_c, 0, 64, 88
2, 145436, Note_on_c, 0, 64, 0
2, 145440, Note_on_c, 0, 65, 88
2, 145532, Note_on_c, 0, 65, 0
2, 145536, Note_on_c, 0, 64, 88
2, 145724, Note_on_c, 0, 64, 0
2, 145728, Note_on_c, 0, 62, 89
2, 145916, Note_on_c, 0, 62, 0
2, 145920, Note_on_c, 0, 60, 89
2, 146108, Note_on_c, 0, 60, 0
2, 146112, Note_on_c, 0, 59, 89
2, 146300, Note_on_c, 0, 59, 0
2, 146304, Note_on_c, 0, 57, 89
2, 146492, Note_on_c, 0, 57, 0
2, 146496, Note_on_c, 0, 56, 89
2, 146684, Note_on_c, 0, 56, 0
2, 146688, Note_on_c, 0, 68, 90
2, 147452, Note_on_c, 0, 68, 0
2, 147456, Note_on_c, 0, 69, 83
2, 147548, Note_on_c, 0, 69, 0
2, 147552, Note_on_c, 0, 71, 83
2, 147644, Note_on_c, 0, 71, 0
2, 147648, Note_on_c, 0, 69, 83
2, 147740, Note_on_c, 0, 69, 0
2, 147744, Note_on_c, 0, 68, 83
2, 147836, Note_on_c, 0, 68, 0
2, 147840, Note_on_c, 0, 69, 86
2, 147932, Note_on_c, 0, 69, 0
2, 147936, Note_on_c, 0, 71, 86
2, 148028, Note_on_c, 0, 71, 0
2, 148032, Note_on_c, 0, 72, 87
2, 148124, Note_on_c, 0, 72, 0
2, 148128, Note_on_c, 0, 74, 87
2, 148220, Note_on_c, 0, 74, 0
2, 148224, Note_on_c, 0, 76, 88
2, 148316, Note_on_c, 0, 76, 0
2, 148320, Note_on_c, 0, 78, 89
2, 148412, Note_on_c, 0, 78, 0
2, 148416, Note_on_c, 0, 80, 89
2, 148508, Note_on_c, 0, 80, 0
2, 148512, Note_on_c, 0, 81, 90
2, 148604, Note_on_c, 0, 81, 0
2, 148608, Note_on_c, 0, 79, 91
2, 148700, Note_on_c, 0, 79, 0
2, 148704, Note_on_c, 0, 77, 91
2, 148796, Note_on_c, 0, 77, 0
2, 148800, Note_on_c, 0, 76, 91
2, 148892, Note_on_c, 0, 76, 0
2, 148896, Note_on_c, 0, 77, 91
2, 148988, Note_on_c, 0, 77, 0
2, 148992, Note_on_c, 0, 76, 91
2, 149084, Note_on_c, 0, 76, 0
2, 149088, Note_on_c, 0, 74, 91
2, 149180, Note_on_c, 0, 74, 0
2, 149184, Note_on_c, 0, 73, 91
2, 149276, Note_on_c, 0, 73, 0
2, 149280, Note_on_c, 0, 74, 91
2, 149372, Note_on_c, 0, 74, 0
2, 149376, Note_on_c, 0, 72, 91
2, 149468, Note_on_c, 0, 72, 0
2, 149472, Note_on_c, 0, 71, 91
2, 149564, Note_on_c, 0, 71, 0
2, 149568, Note_on_c, 0, 70, 91
2, 149660, Note_on_c, 0, 70, 0
2, 149664, Note_on_c, 0, 71, 91
2, 149756, Note_on_c, 0, 71, 0
2, 149760, Note_on_c, 0, 76, 91
2, 149852, Note_on_c, 0, 76, 0
2, 149856, Note_on_c, 0, 77, 91
2, 149900, Note_on_c, 0, 77, 0
2, 149904, Note_on_c, 0, 76, 91
2, 149948, Note_on_c, 0, 76, 0
2, 149952, Note_on_c, 0, 74, 91
2, 149996, Note_on_c, 0, 74, 0
2, 150000, Note_on_c, 0, 76, 91
2, 150032, Note_on_c, 0, 77, 91
2, 150044, Note_on_c, 0, 76, 0
2, 150124, Note_on_c, 0, 77, 0
2, 150144, Note_on_c, 0, 69, 91
2, 150524, Note_on_c, 0, 69, 0
2, 150528, Note_on_c, 0, 68, 91
2, 150572, Note_on_c, 0, 68, 0
2, 150576, Note_on_c, 0, 69, 91
2, 150620, Note_on_c, 0, 69, 0
2, 150624, Note_on_c, 0, 68, 91
2, 150668, Note_on_c, 0, 68, 0
2, 150672, Note_on_c, 0, 69, 91
2, 150716, Note_on_c, 0, 69, 0
2, 150720, Note_on_c, 0, 66, 91
2, 150812, Note_on_c, 0, 66, 0
2, 150816, Note_on_c, 0, 68, 91
2, 150908, Note_on_c, 0, 68, 0
2, 151104, Note_on_c, 0, 69, 86
2, 151292, Note_on_c, 0, 69, 0
2, 151296, Note_on_c, 0, 71, 87
2, 151484, Note_on_c, 0, 71, 0
2, 151488, Note_on_c, 0, 72, 88
2, 151676, Note_on_c, 0, 72, 0
2, 151680, Note_on_c, 0, 73, 89
2, 151868, Note_on_c, 0, 73, 0
2, 151872, Note_on_c, 0, 74, 90
2, 152060, Note_on_c, 0, 74, 0
2, 152064, Note_on_c, 0, 75, 91
2, 152256, Note_on_c, 0, 69, 70
2, 152348, Note_on_c, 0, 69, 0
2, 152448, Note_on_c, 0, 69, 70
2, 152636, Note_on_c, 0, 69, 0
2, 152640, Note_on_c, 0, 71, 70
2, 152828, Note_on_c, 0, 71, 0
2, 152832, Note_on_c, 0, 74, 70
2, 152924, Note_on_c, 0, 74, 0
2, 152928, Note_on_c, 0, 72, 70
2, 153020, Note_on_c, 0, 72, 0
2, 153024, Note_on_c, 0, 71, 70
2, 153116, Note_on_c, 0, 71, 0
2, 153120, Note_on_c, 0, 69, 70
2, 153212, Note_on_c, 0, 69, 0
2, 153212, Note_on_c, 0, 75, 0
2, 153216, Note_on_c, 0, 76, 70
2, 153216, Note_on_c, 0, 68, 70
2, 153596, Note_on_c, 0, 76, 0
2, 154364, Note_on_c, 0, 68, 0
2, 154368, Note_on_c, 0, 68, 91
2, 154560, Note_on_c, 0, 74, 70
2, 154652, Note_on_c, 0, 74, 0
2, 154752, Note_on_c, 0, 74, 70
2, 154940, Note_on_c, 0, 74, 0
2, 154944, Note_on_c, 0, 76, 70
2, 155132, Note_on_c, 0, 76, 0
2, 155136, Note_on_c, 0, 79, 70
2, 155228, Note_on_c, 0, 79, 0
2, 155232, Note_on_c, 0, 77, 70
2, 155324, Note_on_c, 0, 77, 0
2, 155328, Note_on_c, 0, 76, 70
2, 155420, Note_on_c, 0, 76, 0
2, 155424, Note_on_c, 0, 74, 70
2, 155516, Note_on_c, 0, 74, 0
2, 155516, Note_on_c, 0, 68, 0
2, 155520, Note_on_c, 0, 72, 70
2, 155520, Note_on_c, 0, 69, 70
2, 155612, Note_on_c, 0, 69, 0
2, 155612, Note_on_c, 0, 72, 0
2, 155712, Note_on_c, 0, 81, 70
2, 155900, Note_on_c, 0, 81, 0
2, 155904, Note_on_c, 0, 80, 70
2, 156092, Note_on_c, 0, 80, 0
2, 156096, Note_on_c, 0, 79, 70
2, 156284, Note_on_c, 0, 79, 0
2, 156288, Note_on_c, 0, 78, 70
2, 156476, Note_on_c, 0, 78, 0
2, 156480, Note_on_c, 0, 77, 70
2, 156668, Note_on_c, 0, 77, 0
2, 156672, Note_on_c, 0, 76, 68
2, 156860, Note_on_c, 0, 76, 0
2, 156864, Note_on_c, 0, 75, 68
2, 157052, Note_on_c, 0, 75, 0
2, 157056, Note_on_c, 0, 81, 66
2, 157056, Note_on_c, 0, 75, 66
2, 157436, Note_on_c, 0, 75, 0
2, 157436, Note_on_c, 0, 81, 0
2, 157440, Note_on_c, 0, 75, 65
2, 157440, Note_on_c, 0, 69, 65
2, 157820, Note_on_c, 0, 69, 0
2, 157820, Note_on_c, 0, 75, 0
2, 157824, Note_on_c, 0, 76, 62
2, 157824, Note_on_c, 0, 71, 62
2, 157824, Note_on_c, 0, 68, 62
2, 158204, Note_on_c, 0, 68, 0
2, 158204, Note_on_c, 0, 71, 0
2, 158204, Note_on_c, 0, 76, 0
2, 161280, Note_on_c, 0, 71, 70
2, 161280, Note_on_c, 0, 64, 70
2, 161372, Note_on_c, 0, 64, 0
2, 161372, Note_on_c, 0, 71, 0
2, 161376, Note_on_c, 0, 71, 70
2, 161392, Note_on_c, 0, 83, 70
2, 161468, Note_on_c, 0, 71, 0
2, 161472, Note_on_c, 0, 67, 70
2, 161564, Note_on_c, 0, 67, 0
2, 161568, Note_on_c, 0, 71, 70
2, 161660, Note_on_c, 0, 71, 0
2, 161664, Note_on_c, 0, 64, 70
2, 161756, Note_on_c, 0, 64, 0
2, 161760, Note_on_c, 0, 71, 70
2, 161852, Note_on_c, 0, 71, 0
2, 161856, Note_on_c, 0, 67, 70
2, 161948, Note_on_c, 0, 67, 0
2, 161952, Note_on_c, 0, 71, 70
2, 162044, Note_on_c, 0, 71, 0
2, 162048, Note_on_c, 0, 81, 70
2, 162048, Note_on_c, 0, 64, 70
2, 162140, Note_on_c, 0, 64, 0
2, 162140, Note_on_c, 0, 81, 0
2, 162144, Note_on_c, 0, 79, 70
2, 162144, Note_on_c, 0, 71, 70
2, 162156, Note_on_c, 0, 83, 0
2, 162224, Note_on_c, 0, 67, 70
2, 162236, Note_on_c, 0, 71, 0
2, 162236, Note_on_c, 0, 79, 0
2, 162240, Note_on_c, 0, 78, 70
2, 162316, Note_on_c, 0, 67, 0
2, 162332, Note_on_c, 0, 78, 0
2, 162336, Note_on_c, 0, 76, 70
2, 162336, Note_on_c, 0, 71, 70
2, 162428, Note_on_c, 0, 71, 0
2, 162428, Note_on_c, 0, 76, 0
2, 162432, Note_on_c, 0, 84, 70
2, 162432, Note_on_c, 0, 63, 70
2, 162524, Note_on_c, 0, 63, 0
2, 162528, Note_on_c, 0, 69, 70
2, 162620, Note_on_c, 0, 69, 0
2, 162620, Note_on_c, 0, 84, 0
2, 162624, Note_on_c, 0, 66, 70
2, 162716, Note_on_c, 0, 66, 0
2, 162720, Note_on_c, 0, 69, 70
2, 162812, Note_on_c, 0, 69, 0
2, 162816, Note_on_c, 0, 84, 77
2, 162816, Note_on_c, 0, 63, 70
2, 162908, Note_on_c, 0, 63, 0
2, 162912, Note_on_c, 0, 69, 70
2, 163004, Note_on_c, 0, 69, 0
2, 163008, Note_on_c, 0, 66, 70
2, 163100, Note_on_c, 0, 66, 0
2, 163104, Note_on_c, 0, 69, 70
2, 163196, Note_on_c, 0, 69, 0
2, 163200, Note_on_c, 0, 63, 70
2, 163292, Note_on_c, 0, 63, 0
2, 163296, Note_on_c, 0, 69, 70
2, 163388, Note_on_c, 0, 69, 0
2, 163392, Note_on_c, 0, 66, 70
2, 163484, Note_on_c, 0, 66, 0
2, 163488, Note_on_c, 0, 69, 70
2, 163580, Note_on_c, 0, 69, 0
2, 163580, Note_on_c, 0, 84, 0
2, 163584, Note_on_c, 0, 83, 70
2, 163584, Note_on_c, 0, 64, 70
2, 163676, Note_on_c, 0, 64, 0
2, 163680, Note_on_c, 0, 67, 66
2, 163772, Note_on_c, 0, 67, 0
2, 163776, Note_on_c, 0, 66, 70
2, 163868, Note_on_c, 0, 66, 0
2, 163872, Note_on_c, 0, 67, 70
2, 163964, Note_on_c, 0, 67, 0
2, 163968, Note_on_c, 0, 64, 70
2, 164060, Note_on_c, 0, 64, 0
2, 164064, Note_on_c, 0, 67, 70
2, 164156, Note_on_c, 0, 67, 0
2, 164156, Note_on_c, 0, 83, 0
2, 164160, Note_on_c, 0, 84, 70
2, 164160, Note_on_c, 0, 66, 70
2, 164252, Note_on_c, 0, 66, 0
2, 164252, Note_on_c, 0, 84, 0
2, 164256, Note_on_c, 0, 83, 70
2, 164256, Note_on_c, 0, 67, 70
2, 164348, Note_on_c, 0, 67, 0
2, 164348, Note_on_c, 0, 83, 0
2, 164352, Note_on_c, 0, 81, 70
2, 164352, Note_on_c, 0, 64, 70
2, 164432, Note_on_c, 0, 67, 70
2, 164444, Note_on_c, 0, 64, 0
2, 164444, Note_on_c, 0, 81, 0
2, 164448, Note_on_c, 0, 79, 70
2, 164524, Note_on_c, 0, 67, 0
2, 164540, Note_on_c, 0, 79, 0
2, 164544, Note_on_c, 0, 78, 70
2, 164544, Note_on_c, 0, 66, 70
2, 164636, Note_on_c, 0, 66, 0
2, 164636, Note_on_c, 0, 78, 0
2, 164640, Note_on_c, 0, 76, 70
2, 164640, Note_on_c, 0, 67, 70
2, 164732, Note_on_c, 0, 67, 0
2, 164732, Note_on_c, 0, 76, 0
2, 164736, Note_on_c, 0, 75, 70
2, 164736, Note_on_c, 0, 66, 70
2, 164828, Note_on_c, 0, 66, 0
2, 164832, Note_on_c, 0, 72, 70
2, 164924, Note_on_c, 0, 72, 0
2, 164924, Note_on_c, 0, 75, 0
2, 164928, Note_on_c, 0, 69, 70
2, 165020, Note_on_c, 0, 69, 0
2, 165024, Note_on_c, 0, 72, 70
2, 165116, Note_on_c, 0, 72, 0
2, 165120, Note_on_c, 0, 75, 77
2, 165120, Note_on_c, 0, 66, 70
2, 165212, Note_on_c, 0, 66, 0
2, 165216, Note_on_c, 0, 72, 70
2, 165308, Note_on_c, 0, 72, 0
2, 165312, Note_on_c, 0, 69, 70
2, 165404, Note_on_c, 0, 69, 0
2, 165408, Note_on_c, 0, 72, 70
2, 165500, Note_on_c, 0, 72, 0
2, 165504, Note_on_c, 0, 66, 70
2, 165596, Note_on_c, 0, 66, 0
2, 165600, Note_on_c, 0, 72, 70
2, 165692, Note_on_c, 0, 72, 0
2, 165696, Note_on_c, 0, 69, 70
2, 165788, Note_on_c, 0, 69, 0
2, 165792, Note_on_c, 0, 72, 70
2, 165884, Note_on_c, 0, 72, 0
2, 165884, Note_on_c, 0, 75, 0
2, 165888, Note_on_c, 0, 76, 71
2, 165888, Note_on_c, 0, 71, 71
2, 165888, Note_on_c, 0, 67, 71
2, 165980, Note_on_c, 0, 76, 0
2, 165984, Note_on_c, 0, 78, 72
2, 166076, Note_on_c, 0, 78, 0
2, 166080, Note_on_c, 0, 76, 73
2, 166172, Note_on_c, 0, 76, 0
2, 166176, Note_on_c, 0, 75, 76
2, 166268, Note_on_c, 0, 75, 0
2, 166268, Note_on_c, 0, 67, 0
2, 166268, Note_on_c, 0, 71, 0
2, 166272, Note_on_c, 0, 76, 77
2, 166364, Note_on_c, 0, 76, 0
2, 166368, Note_on_c, 0, 78, 78
2, 166460, Note_on_c, 0, 78, 0
2, 166464, Note_on_c, 0, 79, 80
2, 166556, Note_on_c, 0, 79, 0
2, 166560, Note_on_c, 0, 81, 82
2, 166652, Note_on_c, 0, 81, 0
2, 166656, Note_on_c, 0, 83, 83
2, 166844, Note_on_c, 0, 83, 0
2, 166944, Note_on_c, 0, 79, 83
2, 166988, Note_on_c, 0, 79, 0
2, 167040, Note_on_c, 0, 72, 71
2, 167040, Note_on_c, 0, 69, 71
2, 167040, Note_on_c, 0, 78, 71
2, 167132, Note_on_c, 0, 78, 0
2, 167136, Note_on_c, 0, 79, 72
2, 167228, Note_on_c, 0, 79, 0
2, 167232, Note_on_c, 0, 78, 73
2, 167324, Note_on_c, 0, 78, 0
2, 167328, Note_on_c, 0, 76, 76
2, 167420, Note_on_c, 0, 76, 0
2, 167420, Note_on_c, 0, 69, 0
2, 167420, Note_on_c, 0, 72, 0
2, 167424, Note_on_c, 0, 78, 77
2, 167516, Note_on_c, 0, 78, 0
2, 167520, Note_on_c, 0, 79, 78
2, 167612, Note_on_c, 0, 79, 0
2, 167616, Note_on_c, 0, 81, 80
2, 167708, Note_on_c, 0, 81, 0
2, 167712, Note_on_c, 0, 83, 82
2, 167804, Note_on_c, 0, 83, 0
2, 167808, Note_on_c, 0, 84, 83
2, 167996, Note_on_c, 0, 84, 0
2, 168096, Note_on_c, 0, 81, 83
2, 168140, Note_on_c, 0, 81, 0
2, 168192, Note_on_c, 0, 79, 83
2, 168476, Note_on_c, 0, 79, 0
2, 168480, Note_on_c, 0, 83, 83
2, 168572, Note_on_c, 0, 83, 0
2, 168576, Note_on_c, 0, 76, 77
2, 168956, Note_on_c, 0, 76, 0
2, 168960, Note_on_c, 0, 75, 72
2, 169340, Note_on_c, 0, 75, 0
2, 169344, Note_on_c, 0, 76, 71
2, 169436, Note_on_c, 0, 76, 0
2, 169440, Note_on_c, 0, 78, 72
2, 169532, Note_on_c, 0, 78, 0
2, 169536, Note_on_c, 0, 76, 73
2, 169628, Note_on_c, 0, 76, 0
2, 169632, Note_on_c, 0, 75, 76
2, 169724, Note_on_c, 0, 75, 0
2, 169728, Note_on_c, 0, 76, 77
2, 169820, Note_on_c, 0, 76, 0
2, 169824, Note_on_c, 0, 78, 78
2, 169916, Note_on_c, 0, 78, 0
2, 169920, Note_on_c, 0, 79, 80
2, 170012, Note_on_c, 0, 79, 0
2, 170016, Note_on_c, 0, 81, 82
2, 170108, Note_on_c, 0, 81, 0
2, 170112, Note_on_c, 0, 83, 83
2, 170300, Note_on_c, 0, 83, 0
2, 170400, Note_on_c, 0, 79, 83
2, 170444, Note_on_c, 0, 79, 0
2, 170496, Note_on_c, 0, 77, 71
2, 170588, Note_on_c, 0, 77, 0
2, 170592, Note_on_c, 0, 79, 72
2, 170684, Note_on_c, 0, 79, 0
2, 170688, Note_on_c, 0, 77, 73
2, 170780, Note_on_c, 0, 77, 0
2, 170784, Note_on_c, 0, 76, 76
2, 170876, Note_on_c, 0, 76, 0
2, 170880, Note_on_c, 0, 77, 77
2, 170972, Note_on_c, 0, 77, 0
2, 170976, Note_on_c, 0, 79, 78
2, 171068, Note_on_c, 0, 79, 0
2, 171072, Note_on_c, 0, 81, 80
2, 171164, Note_on_c, 0, 81, 0
2, 171168, Note_on_c, 0, 83, 82
2, 171260, Note_on_c, 0, 83, 0
2, 171264, Note_on_c, 0, 84, 83
2, 171452, Note_on_c, 0, 84, 0
2, 171552, Note_on_c, 0, 81, 83
2, 171596, Note_on_c, 0, 81, 0
2, 171648, Note_on_c, 0, 79, 83
2, 171932, Note_on_c, 0, 79, 0
2, 171936, Note_on_c, 0, 83, 80
2, 172028, Note_on_c, 0, 83, 0
2, 172032, Note_on_c, 0, 76, 79
2, 172412, Note_on_c, 0, 76, 0
2, 172416, Note_on_c, 0, 75, 74
2, 172796, Note_on_c, 0, 75, 0
2, 172800, Note_on_c, 0, 76, 70
2, 172892, Note_on_c, 0, 76, 0
2, 173184, Note_on_c, 0, 64, 70
2, 173228, Note_on_c, 0, 64, 0
2, 173232, Note_on_c, 0, 76, 70
2, 173324, Note_on_c, 0, 76, 0
2, 173568, Note_on_c, 0, 65, 70
2, 173612, Note_on_c, 0, 65, 0
2, 173616, Note_on_c, 0, 77, 70
2, 173708, Note_on_c, 0, 77, 0
2, 173952, Note_on_c, 0, 66, 71
2, 173996, Note_on_c, 0, 66, 0
2, 174000, Note_on_c, 0, 78, 71
2, 174092, Note_on_c, 0, 78, 0
2, 174336, Note_on_c, 0, 67, 73
2, 174380, Note_on_c, 0, 67, 0
2, 174384, Note_on_c, 0, 79, 73
2, 174476, Note_on_c, 0, 79, 0
2, 174720, Note_on_c, 0, 68, 76
2, 174764, Note_on_c, 0, 68, 0
2, 174768, Note_on_c, 0, 80, 76
2, 174860, Note_on_c, 0, 80, 0
2, 175104, Note_on_c, 0, 81, 70
2, 175292, Note_on_c, 0, 81, 0
2, 175296, Note_on_c, 0, 76, 70
2, 175296, Note_on_c, 0, 72, 70
2, 175296, Note_on_c, 0, 69, 70
2, 175388, Note_on_c, 0, 69, 0
2, 175388, Note_on_c, 0, 72, 0
2, 175484, Note_on_c, 0, 76, 0
2, 175488, Note_on_c, 0, 76, 70
2, 175488, Note_on_c, 0, 72, 70
2, 175488, Note_on_c, 0, 69, 70
2, 175580, Note_on_c, 0, 69, 0
2, 175580, Note_on_c, 0, 72, 0
2, 175680, Note_on_c, 0, 72, 70
2, 175680, Note_on_c, 0, 69, 70
2, 175772, Note_on_c, 0, 69, 0
2, 175772, Note_on_c, 0, 72, 0
2, 175872, Note_on_c, 0, 72, 70
2, 175872, Note_on_c, 0, 69, 70
2, 175964, Note_on_c, 0, 69, 0
2, 175964, Note_on_c, 0, 72, 0
2, 176064, Note_on_c, 0, 72, 70
2, 176064, Note_on_c, 0, 69, 70
2, 176156, Note_on_c, 0, 69, 0
2, 176156, Note_on_c, 0, 72, 0
2, 176252, Note_on_c, 0, 76, 0
2, 176256, Note_on_c, 0, 77, 70
2, 176300, Note_on_c, 0, 77, 0
2, 176304, Note_on_c, 0, 79, 70
2, 176348, Note_on_c, 0, 79, 0
2, 176352, Note_on_c, 0, 77, 70
2, 176396, Note_on_c, 0, 77, 0
2, 176400, Note_on_c, 0, 79, 70
2, 176444, Note_on_c, 0, 79, 0
2, 176448, Note_on_c, 0, 71, 70
2, 176448, Note_on_c, 0, 68, 70
2, 176448, Note_on_c, 0, 76, 70
2, 176540, Note_on_c, 0, 68, 0
2, 176540, Note_on_c, 0, 71, 0
2, 176636, Note_on_c, 0, 76, 0
2, 176640, Note_on_c, 0, 71, 70
2, 176640, Note_on_c, 0, 68, 70
2, 176640, Note_on_c, 0, 76, 70
2, 176732, Note_on_c, 0, 68, 0
2, 176732, Note_on_c, 0, 71, 0
2, 176832, Note_on_c, 0, 71, 70
2, 176832, Note_on_c, 0, 68, 70
2, 176924, Note_on_c, 0, 68, 0
2, 176924, Note_on_c, 0, 71, 0
2, 177024, Note_on_c, 0, 71, 70
2, 177024, Note_on_c, 0, 68, 70
2, 177116, Note_on_c, 0, 68, 0
2, 177116, Note_on_c, 0, 71, 0
2, 177216, Note_on_c, 0, 71, 70
2, 177216, Note_on_c, 0, 68, 70
2, 177308, Note_on_c, 0, 68, 0
2, 177308, Note_on_c, 0, 71, 0
2, 177408, Note_on_c, 0, 69, 71
2, 177596, Note_on_c, 0, 76, 0
2, 177600, Note_on_c, 0, 84, 71
2, 177788, Note_on_c, 0, 69, 0
2, 177792, Note_on_c, 0, 67, 72
2, 177980, Note_on_c, 0, 84, 0
2, 177984, Note_on_c, 0, 83, 73
2, 178172, Note_on_c, 0, 67, 0
2, 178176, Note_on_c, 0, 65, 74
2, 178364, Note_on_c, 0, 83, 0
2, 178368, Note_on_c, 0, 81, 76
2, 178556, Note_on_c, 0, 65, 0
2, 178560, Note_on_c, 0, 64, 77
2, 178748, Note_on_c, 0, 81, 0
2, 178752, Note_on_c, 0, 80, 78
2, 178940, Note_on_c, 0, 64, 0
2, 178944, Note_on_c, 0, 62, 79
2, 179132, Note_on_c, 0, 80, 0
2, 179136, Note_on_c, 0, 81, 80
2, 179324, Note_on_c, 0, 81, 0
2, 179324, Note_on_c, 0, 62, 0
2, 179328, Note_on_c, 0, 77, 82
2, 179328, Note_on_c, 0, 60, 82
2, 179516, Note_on_c, 0, 77, 0
2, 179520, Note_on_c, 0, 76, 83
2, 179708, Note_on_c, 0, 76, 0
2, 179708, Note_on_c, 0, 60, 0
2, 179712, Note_on_c, 0, 59, 83
2, 179904, Note_on_c, 0, 74, 82
2, 179948, Note_on_c, 0, 74, 0
2, 179952, Note_on_c, 0, 76, 82
2, 179996, Note_on_c, 0, 76, 0
2, 180000, Note_on_c, 0, 77, 80
2, 180092, Note_on_c, 0, 77, 0
2, 180092, Note_on_c, 0, 59, 0
2, 180096, Note_on_c, 0, 76, 79
2, 180284, Note_on_c, 0, 76, 0
2, 180288, Note_on_c, 0, 74, 77
2, 180476, Note_on_c, 0, 74, 0
2, 180480, Note_on_c, 0, 72, 74
2, 180668, Note_on_c, 0, 72, 0
2, 180672, Note_on_c, 0, 71, 72
2, 180860, Note_on_c, 0, 71, 0
2, 180864, Note_on_c, 0, 69, 83
2, 181052, Note_on_c, 0, 69, 0
2, 181056, Note_on_c, 0, 68, 82
2, 181056, Note_on_c, 0, 62, 82
2, 181100, Note_on_c, 0, 62, 0
2, 181104, Note_on_c, 0, 64, 82
2, 181148, Note_on_c, 0, 64, 0
2, 181152, Note_on_c, 0, 65, 80
2, 181244, Note_on_c, 0, 65, 0
2, 181244, Note_on_c, 0, 68, 0
2, 181248, Note_on_c, 0, 64, 79
2, 181248, Note_on_c, 0, 80, 79
2, 181436, Note_on_c, 0, 64, 0
2, 181440, Note_on_c, 0, 62, 77
2, 181628, Note_on_c, 0, 62, 0
2, 181632, Note_on_c, 0, 60, 74
2, 181820, Note_on_c, 0, 60, 0
2, 181824, Note_on_c, 0, 59, 72
2, 182012, Note_on_c, 0, 59, 0
2, 182012, Note_on_c, 0, 80, 0
2, 182016, Note_on_c, 0, 81, 70
2, 182016, Note_on_c, 0, 60, 70
2, 182108, Note_on_c, 0, 81, 0
2, 182204, Note_on_c, 0, 60, 0
2, 182208, Note_on_c, 0, 76, 70
2, 182400, Note_on_c, 0, 68, 70
2, 182588, Note_on_c, 0, 76, 0
2, 182592, Note_on_c, 0, 74, 70
2, 182780, Note_on_c, 0, 68, 0
2, 182784, Note_on_c, 0, 69, 70
2, 182972, Note_on_c, 0, 74, 0
2, 182976, Note_on_c, 0, 72, 70
2, 183164, Note_on_c, 0, 69, 0
2, 183168, Note_on_c, 0, 69, 71
2, 183168, Note_on_c, 0, 64, 71
2, 183356, Note_on_c, 0, 72, 0
2, 183360, Note_on_c, 0, 74, 72
2, 183548, Note_on_c, 0, 74, 0
2, 183552, Note_on_c, 0, 75, 74
2, 183740, Note_on_c, 0, 75, 0
2, 183744, Note_on_c, 0, 76, 77
2, 183920, Note_on_c, 0, 71, 79
2, 183932, Note_on_c, 0, 76, 0
2, 183932, Note_on_c, 0, 69, 0
2, 183936, Note_on_c, 0, 68, 79
2, 184300, Note_on_c, 0, 71, 0
2, 184316, Note_on_c, 0, 68, 0
2, 184316, Note_on_c, 0, 64, 0
2, 184320, Note_on_c, 0, 69, 70
2, 184508, Note_on_c, 0, 69, 0
2, 184512, Note_on_c, 0, 64, 70
2, 184700, Note_on_c, 0, 64, 0
2, 184704, Note_on_c, 0, 64, 70
2, 185468, Note_on_c, 0, 64, 0
2, 185472, Note_on_c, 0, 65, 70
2, 185660, Note_on_c, 0, 65, 0
2, 185664, Note_on_c, 0, 64, 70
2, 185852, Note_on_c, 0, 64, 0
2, 185856, Note_on_c, 0, 64, 70
2, 186812, Note_on_c, 0, 64, 0
2, 186816, Note_on_c, 0, 72, 72
2, 187196, Note_on_c, 0, 72, 0
2, 187200, Note_on_c, 0, 71, 77
2, 187580, Note_on_c, 0, 71, 0
2, 187584, Note_on_c, 0, 69, 82
2, 187964, Note_on_c, 0, 69, 0
2, 187984, Note_on_c, 0, 68, 70
2, 188352, Note_on_c, 0, 69, 70
2, 188364, Note_on_c, 0, 68, 0
2, 188540, Note_on_c, 0, 69, 0
2, 188544, Note_on_c, 0, 65, 70
2, 188732, Note_on_c, 0, 65, 0
2, 188736, Note_on_c, 0, 64, 70
2, 188924, Note_on_c, 0, 64, 0
2, 189120, Note_on_c, 0, 62, 71
2, 189164, Note_on_c, 0, 62, 0
2, 189168, Note_on_c, 0, 64, 71
2, 189212, Note_on_c, 0, 64, 0
2, 189216, Note_on_c, 0, 65, 71
2, 189308, Note_on_c, 0, 65, 0
2, 189312, Note_on_c, 0, 64, 71
2, 189500, Note_on_c, 0, 64, 0
2, 189504, Note_on_c, 0, 62, 71
2, 189692, Note_on_c, 0, 62, 0
2, 189696, Note_on_c, 0, 60, 72
2, 189884, Note_on_c, 0, 60, 0
2, 189888, Note_on_c, 0, 59, 72
2, 190076, Note_on_c, 0, 59, 0
2, 190080, Note_on_c, 0, 57, 72
2, 190268, Note_on_c, 0, 57, 0
2, 190272, Note_on_c, 0, 56, 73
2, 190460, Note_on_c, 0, 56, 0
2, 190464, Note_on_c, 0, 68, 73
2, 191228, Note_on_c, 0, 68, 0
2, 191424, Note_on_c, 0, 67, 74
2, 191468, Note_on_c, 0, 67, 0
2, 191472, Note_on_c, 0, 69, 76
2, 191516, Note_on_c, 0, 69, 0
2, 191520, Note_on_c, 0, 70, 76
2, 191612, Note_on_c, 0, 70, 0
2, 191616, Note_on_c, 0, 69, 76
2, 191804, Note_on_c, 0, 69, 0
2, 191808, Note_on_c, 0, 67, 76
2, 191996, Note_on_c, 0, 67, 0
2, 192000, Note_on_c, 0, 65, 76
2, 192188, Note_on_c, 0, 65, 0
2, 192192, Note_on_c, 0, 64, 77
2, 192380, Note_on_c, 0, 64, 0
2, 192384, Note_on_c, 0, 62, 77
2, 192572, Note_on_c, 0, 62, 0
2, 192576, Note_on_c, 0, 61, 77
2, 192764, Note_on_c, 0, 61, 0
2, 192784, Note_on_c, 0, 73, 78
2, 193548, Note_on_c, 0, 73, 0
2, 193728, Note_on_c, 0, 69, 79
2, 193772, Note_on_c, 0, 69, 0
2, 193776, Note_on_c, 0, 71, 79
2, 193820, Note_on_c, 0, 71, 0
2, 193824, Note_on_c, 0, 72, 79
2, 193916, Note_on_c, 0, 72, 0
2, 193920, Note_on_c, 0, 71, 79
2, 194108, Note_on_c, 0, 71, 0
2, 194112, Note_on_c, 0, 69, 80
2, 194300, Note_on_c, 0, 69, 0
2, 194304, Note_on_c, 0, 67, 80
2, 194492, Note_on_c, 0, 67, 0
2, 194496, Note_on_c, 0, 66, 80
2, 194684, Note_on_c, 0, 66, 0
2, 194688, Note_on_c, 0, 64, 82
2, 194876, Note_on_c, 0, 64, 0
2, 194880, Note_on_c, 0, 63, 82
2, 195068, Note_on_c, 0, 63, 0
2, 195072, Note_on_c, 0, 75, 82
2, 195836, Note_on_c, 0, 75, 0
2, 195840, Note_on_c, 0, 76, 86
2, 195932, Note_on_c, 0, 76, 0
2, 195936, Note_on_c, 0, 78, 86
2, 196028, Note_on_c, 0, 78, 0
2, 196032, Note_on_c, 0, 76, 86
2, 196124, Note_on_c, 0, 76, 0
2, 196128, Note_on_c, 0, 75, 87
2, 196220, Note_on_c, 0, 75, 0
2, 196224, Note_on_c, 0, 76, 87
2, 196316, Note_on_c, 0, 76, 0
2, 196320, Note_on_c, 0, 78, 88
2, 196412, Note_on_c, 0, 78, 0
2, 196416, Note_on_c, 0, 80, 88
2, 196508, Note_on_c, 0, 80, 0
2, 196512, Note_on_c, 0, 81, 88
2, 196604, Note_on_c, 0, 81, 0
2, 196608, Note_on_c, 0, 83, 89
2, 196700, Note_on_c, 0, 83, 0
2, 196704, Note_on_c, 0, 84, 89
2, 196796, Note_on_c, 0, 84, 0
2, 196800, Note_on_c, 0, 86, 90
2, 196892, Note_on_c, 0, 86, 0
2, 196896, Note_on_c, 0, 88, 90
2, 196988, Note_on_c, 0, 88, 0
2, 196992, Note_on_c, 0, 86, 91
2, 197084, Note_on_c, 0, 86, 0
2, 197088, Note_on_c, 0, 84, 91
2, 197180, Note_on_c, 0, 84, 0
2, 197184, Note_on_c, 0, 83, 90
2, 197276, Note_on_c, 0, 83, 0
2, 197280, Note_on_c, 0, 84, 90
2, 197372, Note_on_c, 0, 84, 0
2, 197376, Note_on_c, 0, 83, 89
2, 197468, Note_on_c, 0, 83, 0
2, 197472, Note_on_c, 0, 81, 89
2, 197564, Note_on_c, 0, 81, 0
2, 197568, Note_on_c, 0, 80, 88
2, 197660, Note_on_c, 0, 80, 0
2, 197664, Note_on_c, 0, 81, 88
2, 197756, Note_on_c, 0, 81, 0
2, 197760, Note_on_c, 0, 79, 87
2, 197852, Note_on_c, 0, 79, 0
2, 197856, Note_on_c, 0, 77, 87
2, 197948, Note_on_c, 0, 77, 0
2, 197952, Note_on_c, 0, 76, 86
2, 198044, Note_on_c, 0, 76, 0
2, 198048, Note_on_c, 0, 77, 86
2, 198140, Note_on_c, 0, 77, 0
2, 198144, Note_on_c, 0, 76, 83
2, 198236, Note_on_c, 0, 76, 0
2, 198240, Note_on_c, 0, 77, 83
2, 198284, Note_on_c, 0, 77, 0
2, 198288, Note_on_c, 0, 76, 83
2, 198332, Note_on_c, 0, 76, 0
2, 198336, Note_on_c, 0, 74, 83
2, 198380, Note_on_c, 0, 74, 0
2, 198384, Note_on_c, 0, 76, 83
2, 198428, Note_on_c, 0, 76, 0
2, 198432, Note_on_c, 0, 77, 83
2, 198524, Note_on_c, 0, 77, 0
2, 198528, Note_on_c, 0, 69, 83
2, 198908, Note_on_c, 0, 69, 0
2, 198912, Note_on_c, 0, 68, 83
2, 199292, Note_on_c, 0, 68, 0
2, 199296, Note_on_c, 0, 76, 86
2, 199388, Note_on_c, 0, 76, 0
2, 199392, Note_on_c, 0, 78, 86
2, 199484, Note_on_c, 0, 78, 0
2, 199488, Note_on_c, 0, 76, 86
2, 199580, Note_on_c, 0, 76, 0
2, 199584, Note_on_c, 0, 75, 87
2, 199676, Note_on_c, 0, 75, 0
2, 199680, Note_on_c, 0, 76, 87
2, 199772, Note_on_c, 0, 76, 0
2, 199776, Note_on_c, 0, 78, 88
2, 199868, Note_on_c, 0, 78, 0
2, 199872, Note_on_c, 0, 80, 88
2, 199964, Note_on_c, 0, 80, 0
2, 199968, Note_on_c, 0, 81, 88
2, 200060, Note_on_c, 0, 81, 0
2, 200064, Note_on_c, 0, 83, 89
2, 200156, Note_on_c, 0, 83, 0
2, 200160, Note_on_c, 0, 84, 89
2, 200252, Note_on_c, 0, 84, 0
2, 200256, Note_on_c, 0, 86, 90
2, 200348, Note_on_c, 0, 86, 0
2, 200352, Note_on_c, 0, 88, 91
2, 200444, Note_on_c, 0, 88, 0
2, 200448, Note_on_c, 0, 86, 91
2, 200540, Note_on_c, 0, 86, 0
2, 200544, Note_on_c, 0, 84, 90
2, 200636, Note_on_c, 0, 84, 0
2, 200640, Note_on_c, 0, 83, 90
2, 200732, Note_on_c, 0, 83, 0
2, 200736, Note_on_c, 0, 84, 89
2, 200828, Note_on_c, 0, 84, 0
2, 200832, Note_on_c, 0, 83, 89
2, 200924, Note_on_c, 0, 83, 0
2, 200928, Note_on_c, 0, 81, 88
2, 201020, Note_on_c, 0, 81, 0
2, 201024, Note_on_c, 0, 80, 88
2, 201116, Note_on_c, 0, 80, 0
2, 201120, Note_on_c, 0, 81, 88
2, 201212, Note_on_c, 0, 81, 0
2, 201216, Note_on_c, 0, 79, 87
2, 201308, Note_on_c, 0, 79, 0
2, 201312, Note_on_c, 0, 77, 87
2, 201404, Note_on_c, 0, 77, 0
2, 201408, Note_on_c, 0, 76, 86
2, 201500, Note_on_c, 0, 76, 0
2, 201504, Note_on_c, 0, 77, 86
2, 201596, Note_on_c, 0, 77, 0
2, 201600, Note_on_c, 0, 76, 83
2, 201692, Note_on_c, 0, 76, 0
2, 201696, Note_on_c, 0, 74, 83
2, 201788, Note_on_c, 0, 74, 0
2, 201792, Note_on_c, 0, 73, 83
2, 201884, Note_on_c, 0, 73, 0
2, 201888, Note_on_c, 0, 74, 83
2, 201980, Note_on_c, 0, 74, 0
2, 201984, Note_on_c, 0, 72, 83
2, 202076, Note_on_c, 0, 72, 0
2, 202080, Note_on_c, 0, 71, 83
2, 202172, Note_on_c, 0, 71, 0
2, 202176, Note_on_c, 0, 70, 83
2, 202268, Note_on_c, 0, 70, 0
2, 202272, Note_on_c, 0, 71, 83
2, 202364, Note_on_c, 0, 71, 0
2, 202368, Note_on_c, 0, 76, 83
2, 202460, Note_on_c, 0, 76, 0
2, 202464, Note_on_c, 0, 77, 83
2, 202556, Note_on_c, 0, 77, 0
2, 202560, Note_on_c, 0, 74, 83
2, 202652, Note_on_c, 0, 74, 0
2, 202656, Note_on_c, 0, 71, 83
2, 202748, Note_on_c, 0, 71, 0
2, 202752, Note_on_c, 0, 76, 83
2, 202844, Note_on_c, 0, 76, 0
2, 202848, Note_on_c, 0, 77, 83
2, 202892, Note_on_c, 0, 77, 0
2, 202896, Note_on_c, 0, 76, 83
2, 202940, Note_on_c, 0, 76, 0
2, 202944, Note_on_c, 0, 74, 83
2, 202988, Note_on_c, 0, 74, 0
2, 202992, Note_on_c, 0, 76, 83
2, 203036, Note_on_c, 0, 76, 0
2, 203040, Note_on_c, 0, 77, 83
2, 203132, Note_on_c, 0, 77, 0
2, 203136, Note_on_c, 0, 69, 83
2, 203516, Note_on_c, 0, 69, 0
2, 203520, Note_on_c, 0, 68, 83
2, 203900, Note_on_c, 0, 68, 0
2, 203904, Note_on_c, 0, 69, 71
2, 204092, Note_on_c, 0, 69, 0
2, 204096, Note_on_c, 0, 81, 72
2, 204284, Note_on_c, 0, 81, 0
2, 204288, Note_on_c, 0, 81, 74
2, 204380, Note_on_c, 0, 81, 0
2, 204480, Note_on_c, 0, 81, 77
2, 204572, Note_on_c, 0, 81, 0
2, 204672, Note_on_c, 0, 81, 79
2, 204764, Note_on_c, 0, 81, 0
2, 204864, Note_on_c, 0, 81, 82
2, 204956, Note_on_c, 0, 81, 0
2, 205056, Note_on_c, 0, 83, 83
2, 205244, Note_on_c, 0, 83, 0
2, 205248, Note_on_c, 0, 81, 82
2, 205436, Note_on_c, 0, 81, 0
2, 205440, Note_on_c, 0, 79, 79
2, 205440, Note_on_c, 0, 72, 79
2, 205440, Note_on_c, 0, 69, 79
2, 205532, Note_on_c, 0, 79, 0
2, 205628, Note_on_c, 0, 69, 0
2, 205628, Note_on_c, 0, 72, 0
2, 205632, Note_on_c, 0, 77, 77
2, 205724, Note_on_c, 0, 77, 0
2, 205824, Note_on_c, 0, 76, 74
2, 205824, Note_on_c, 0, 71, 74
2, 205824, Note_on_c, 0, 69, 74
2, 205916, Note_on_c, 0, 76, 0
2, 206012, Note_on_c, 0, 69, 0
2, 206012, Note_on_c, 0, 71, 0
2, 206016, Note_on_c, 0, 75, 72
2, 206108, Note_on_c, 0, 75, 0
2, 206208, Note_on_c, 0, 76, 71
2, 206208, Note_on_c, 0, 71, 71
2, 206208, Note_on_c, 0, 67, 71
2, 206396, Note_on_c, 0, 67, 0
2, 206396, Note_on_c, 0, 71, 0
2, 206396, Note_on_c, 0, 76, 0
2, 206400, Note_on_c, 0, 79, 72
2, 206588, Note_on_c, 0, 79, 0
2, 206592, Note_on_c, 0, 79, 74
2, 206684, Note_on_c, 0, 79, 0
2, 206784, Note_on_c, 0, 79, 77
2, 206876, Note_on_c, 0, 79, 0
2, 206976, Note_on_c, 0, 79, 79
2, 207068, Note_on_c, 0, 79, 0
2, 207168, Note_on_c, 0, 79, 82
2, 207260, Note_on_c, 0, 79, 0
2, 207360, Note_on_c, 0, 81, 83
2, 207548, Note_on_c, 0, 81, 0
2, 207552, Note_on_c, 0, 79, 82
2, 207740, Note_on_c, 0, 79, 0
2, 207744, Note_on_c, 0, 77, 79
2, 207744, Note_on_c, 0, 70, 79
2, 207744, Note_on_c, 0, 67, 79
2, 207836, Note_on_c, 0, 77, 0
2, 207932, Note_on_c, 0, 67, 0
2, 207932, Note_on_c, 0, 70, 0
2, 207936, Note_on_c, 0, 76, 77
2, 208028, Note_on_c, 0, 76, 0
2, 208128, Note_on_c, 0, 74, 74
2, 208128, Note_on_c, 0, 69, 74
2, 208128, Note_on_c, 0, 67, 74
2, 208220, Note_on_c, 0, 74, 0
2, 208316, Note_on_c, 0, 67, 0
2, 208316, Note_on_c, 0, 69, 0
2, 208320, Note_on_c, 0, 73, 72
2, 208412, Note_on_c, 0, 73, 0
2, 208512, Note_on_c, 0, 74, 70
2, 208512, Note_on_c, 0, 69, 70
2, 208512, Note_on_c, 0, 65, 70
2, 208700, Note_on_c, 0, 65, 0
2, 208700, Note_on_c, 0, 69, 0
2, 208700, Note_on_c, 0, 74, 0
2, 208704, Note_on_c, 0, 77, 70
2, 208892, Note_on_c, 0, 77, 0
2, 208896, Note_on_c, 0, 77, 70
2, 208988, Note_on_c, 0, 77, 0
2, 209088, Note_on_c, 0, 77, 70
2, 209180, Note_on_c, 0, 77, 0
2, 209280, Note_on_c, 0, 77, 70
2, 209372, Note_on_c, 0, 77, 0
2, 209472, Note_on_c, 0, 77, 70
2, 209564, Note_on_c, 0, 77, 0
2, 209664, Note_on_c, 0, 79, 83
2, 209852, Note_on_c, 0, 79, 0
2, 209856, Note_on_c, 0, 77, 82
2, 210044, Note_on_c, 0, 77, 0
2, 210048, Note_on_c, 0, 76, 79
2, 210048, Note_on_c, 0, 68, 79
2, 210048, Note_on_c, 0, 65, 79
2, 210140, Note_on_c, 0, 76, 0
2, 210236, Note_on_c, 0, 65, 0
2, 210236, Note_on_c, 0, 68, 0
2, 210240, Note_on_c, 0, 74, 77
2, 210332, Note_on_c, 0, 74, 0
2, 210432, Note_on_c, 0, 72, 74
2, 210432, Note_on_c, 0, 67, 74
2, 210432, Note_on_c, 0, 65, 74
2, 210524, Note_on_c, 0, 72, 0
2, 210620, Note_on_c, 0, 65, 0
2, 210620, Note_on_c, 0, 67, 0
2, 210624, Note_on_c, 0, 71, 72
2, 210716, Note_on_c, 0, 71, 0
2, 210816, Note_on_c, 0, 72, 70
2, 210816, Note_on_c, 0, 64, 70
2, 210908, Note_on_c, 0, 64, 0
2, 210912, Note_on_c, 0, 67, 70
2, 211004, Note_on_c, 0, 67, 0
2, 211008, Note_on_c, 0, 66, 70
2, 211100, Note_on_c, 0, 66, 0
2, 211104, Note_on_c, 0, 67, 70
2, 211196, Note_on_c, 0, 67, 0
2, 211196, Note_on_c, 0, 72, 0
2, 211200, Note_on_c, 0, 69, 70
2, 211292, Note_on_c, 0, 69, 0
2, 211296, Note_on_c, 0, 67, 70
2, 211388, Note_on_c, 0, 67, 0
2, 211392, Note_on_c, 0, 66, 70
2, 211484, Note_on_c, 0, 66, 0
2, 211488, Note_on_c, 0, 67, 70
2, 211568, Note_on_c, 0, 64, 70
2, 211580, Note_on_c, 0, 67, 0
2, 211584, Note_on_c, 0, 72, 70
2, 211628, Note_on_c, 0, 72, 0
2, 211632, Note_on_c, 0, 74, 70
2, 211660, Note_on_c, 0, 64, 0
2, 211664, Note_on_c, 0, 67, 70
2, 211676, Note_on_c, 0, 74, 0
2, 211680, Note_on_c, 0, 72, 70
2, 211724, Note_on_c, 0, 72, 0
2, 211728, Note_on_c, 0, 74, 70
2, 211756, Note_on_c, 0, 67, 0
2, 211760, Note_on_c, 0, 66, 70
2, 211772, Note_on_c, 0, 74, 0
2, 211776, Note_on_c, 0, 72, 70
2, 211820, Note_on_c, 0, 72, 0
2, 211824, Note_on_c, 0, 74, 70
2, 211852, Note_on_c, 0, 66, 0
2, 211868, Note_on_c, 0, 74, 0
2, 211872, Note_on_c, 0, 71, 70
2, 211872, Note_on_c, 0, 67, 70
2, 211916, Note_on_c, 0, 71, 0
2, 211920, Note_on_c, 0, 72, 70
2, 211964, Note_on_c, 0, 72, 0
2, 211964, Note_on_c, 0, 67, 0
2, 211968, Note_on_c, 0, 74, 70
2, 211968, Note_on_c, 0, 59, 70
2, 212060, Note_on_c, 0, 59, 0
2, 212064, Note_on_c, 0, 67, 70
2, 212156, Note_on_c, 0, 67, 0
2, 212160, Note_on_c, 0, 66, 70
2, 212252, Note_on_c, 0, 66, 0
2, 212256, Note_on_c, 0, 67, 70
2, 212348, Note_on_c, 0, 67, 0
2, 212348, Note_on_c, 0, 74, 0
2, 212352, Note_on_c, 0, 69, 70
2, 212444, Note_on_c, 0, 69, 0
2, 212448, Note_on_c, 0, 67, 70
2, 212540, Note_on_c, 0, 67, 0
2, 212544, Note_on_c, 0, 66, 70
2, 212636, Note_on_c, 0, 66, 0
2, 212640, Note_on_c, 0, 67, 70
2, 212720, Note_on_c, 0, 59, 70
2, 212732, Note_on_c, 0, 67, 0
2, 212736, Note_on_c, 0, 74, 71
2, 212780, Note_on_c, 0, 74, 0
2, 212784, Note_on_c, 0, 76, 71
2, 212812, Note_on_c, 0, 59, 0
2, 212828, Note_on_c, 0, 76, 0
2, 212832, Note_on_c, 0, 74, 71
2, 212832, Note_on_c, 0, 67, 71
2, 212876, Note_on_c, 0, 74, 0
2, 212880, Note_on_c, 0, 76, 71
2, 212924, Note_on_c, 0, 76, 0
2, 212924, Note_on_c, 0, 67, 0
2, 212928, Note_on_c, 0, 74, 72
2, 212928, Note_on_c, 0, 66, 72
2, 212972, Note_on_c, 0, 74, 0
2, 212976, Note_on_c, 0, 76, 72
2, 213020, Note_on_c, 0, 76, 0
2, 213020, Note_on_c, 0, 66, 0
2, 213024, Note_on_c, 0, 73, 72
2, 213024, Note_on_c, 0, 67, 72
2, 213068, Note_on_c, 0, 73, 0
2, 213072, Note_on_c, 0, 74, 73
2, 213116, Note_on_c, 0, 74, 0
2, 213116, Note_on_c, 0, 67, 0
2, 213120, Note_on_c, 0, 76, 73
2, 213120, Note_on_c, 0, 60, 73
2, 213212, Note_on_c, 0, 60, 0
2, 213216, Note_on_c, 0, 72, 74
2, 213308, Note_on_c, 0, 72, 0
2, 213312, Note_on_c, 0, 71, 74
2, 213404, Note_on_c, 0, 71, 0
2, 213408, Note_on_c, 0, 72, 76
2, 213500, Note_on_c, 0, 72, 0
2, 213500, Note_on_c, 0, 76, 0
2, 213504, Note_on_c, 0, 74, 76
2, 213596, Note_on_c, 0, 74, 0
2, 213600, Note_on_c, 0, 72, 77
2, 213692, Note_on_c, 0, 72, 0
2, 213696, Note_on_c, 0, 71, 78
2, 213788, Note_on_c, 0, 71, 0
2, 213792, Note_on_c, 0, 72, 78
2, 213884, Note_on_c, 0, 72, 0
2, 213888, Note_on_c, 0, 76, 79
2, 213888, Note_on_c, 0, 67, 79
2, 213932, Note_on_c, 0, 76, 0
2, 213936, Note_on_c, 0, 77, 79
2, 213980, Note_on_c, 0, 77, 0
2, 213980, Note_on_c, 0, 67, 0
2, 213984, Note_on_c, 0, 76, 79
2, 213984, Note_on_c, 0, 72, 79
2, 214028, Note_on_c, 0, 76, 0
2, 214032, Note_on_c, 0, 77, 80
2, 214076, Note_on_c, 0, 77, 0
2, 214076, Note_on_c, 0, 72, 0
2, 214080, Note_on_c, 0, 76, 80
2, 214080, Note_on_c, 0, 71, 80
2, 214124, Note_on_c, 0, 76, 0
2, 214128, Note_on_c, 0, 77, 80
2, 214160, Note_on_c, 0, 72, 82
2, 214172, Note_on_c, 0, 77, 0
2, 214172, Note_on_c, 0, 71, 0
2, 214176, Note_on_c, 0, 74, 82
2, 214220, Note_on_c, 0, 74, 0
2, 214224, Note_on_c, 0, 76, 82
2, 214252, Note_on_c, 0, 72, 0
2, 214268, Note_on_c, 0, 76, 0
2, 214272, Note_on_c, 0, 77, 82
2, 214272, Note_on_c, 0, 69, 82
2, 214364, Note_on_c, 0, 69, 0
2, 214368, Note_on_c, 0, 72, 83
2, 214460, Note_on_c, 0, 72, 0
2, 214464, Note_on_c, 0, 71, 83
2, 214556, Note_on_c, 0, 71, 0
2, 214560, Note_on_c, 0, 72, 83
2, 214652, Note_on_c, 0, 72, 0
2, 214652, Note_on_c, 0, 77, 0
2, 214656, Note_on_c, 0, 74, 86
2, 214748, Note_on_c, 0, 74, 0
2, 214752, Note_on_c, 0, 72, 86
2, 214844, Note_on_c, 0, 72, 0
2, 214848, Note_on_c, 0, 71, 87
2, 214940, Note_on_c, 0, 71, 0
2, 214944, Note_on_c, 0, 72, 87
2, 215036, Note_on_c, 0, 72, 0
2, 215040, Note_on_c, 0, 77, 88
2, 215040, Note_on_c, 0, 69, 88
2, 215084, Note_on_c, 0, 77, 0
2, 215088, Note_on_c, 0, 79, 88
2, 215132, Note_on_c, 0, 79, 0
2, 215132, Note_on_c, 0, 69, 0
2, 215136, Note_on_c, 0, 77, 89
2, 215136, Note_on_c, 0, 72, 89
2, 215180, Note_on_c, 0, 77, 0
2, 215184, Note_on_c, 0, 79, 89
2, 215216, Note_on_c, 0, 71, 89
2, 215228, Note_on_c, 0, 79, 0
2, 215228, Note_on_c, 0, 72, 0
2, 215232, Note_on_c, 0, 77, 89
2, 215276, Note_on_c, 0, 77, 0
2, 215280, Note_on_c, 0, 79, 90
2, 215308, Note_on_c, 0, 71, 0
2, 215312, Note_on_c, 0, 72, 90
2, 215324, Note_on_c, 0, 79, 0
2, 215328, Note_on_c, 0, 76, 90
2, 215372, Note_on_c, 0, 76, 0
2, 215376, Note_on_c, 0, 77, 90
2, 215404, Note_on_c, 0, 72, 0
2, 215420, Note_on_c, 0, 77, 0
2, 215424, Note_on_c, 0, 79, 91
2, 215424, Note_on_c, 0, 64, 91
2, 215516, Note_on_c, 0, 79, 0
2, 215520, Note_on_c, 0, 84, 90
2, 215612, Note_on_c, 0, 84, 0
2, 215616, Note_on_c, 0, 83, 89
2, 215708, Note_on_c, 0, 83, 0
2, 215712, Note_on_c, 0, 84, 88
2, 215804, Note_on_c, 0, 84, 0
2, 215804, Note_on_c, 0, 64, 0
2, 215808, Note_on_c, 0, 86, 87
2, 215900, Note_on_c, 0, 86, 0
2, 215904, Note_on_c, 0, 84, 86
2, 215996, Note_on_c, 0, 84, 0
2, 216000, Note_on_c, 0, 83, 83
2, 216092, Note_on_c, 0, 83, 0
2, 216096, Note_on_c, 0, 84, 83
2, 216188, Note_on_c, 0, 84, 0
2, 216192, Note_on_c, 0, 79, 80
2, 216284, Note_on_c, 0, 79, 0
2, 216288, Note_on_c, 0, 84, 79
2, 216380, Note_on_c, 0, 84, 0
2, 216384, Note_on_c, 0, 83, 78
2, 216476, Note_on_c, 0, 83, 0
2, 216480, Note_on_c, 0, 84, 77
2, 216572, Note_on_c, 0, 84, 0
2, 216576, Note_on_c, 0, 81, 76
2, 216668, Note_on_c, 0, 81, 0
2, 216672, Note_on_c, 0, 83, 74
2, 216764, Note_on_c, 0, 83, 0
2, 216768, Note_on_c, 0, 79, 73
2, 216860, Note_on_c, 0, 79, 0
2, 216864, Note_on_c, 0, 81, 72
2, 216956, Note_on_c, 0, 81, 0
2, 216960, Note_on_c, 0, 77, 70
2, 217052, Note_on_c, 0, 77, 0
2, 217056, Note_on_c, 0, 79, 70
2, 217148, Note_on_c, 0, 79, 0
2, 217152, Note_on_c, 0, 76, 70
2, 217244, Note_on_c, 0, 76, 0
2, 217248, Note_on_c, 0, 77, 70
2, 217340, Note_on_c, 0, 77, 0
2, 217344, Note_on_c, 0, 74, 70
2, 217436, Note_on_c, 0, 74, 0
2, 217440, Note_on_c, 0, 76, 70
2, 217532, Note_on_c, 0, 76, 0
2, 217536, Note_on_c, 0, 72, 70
2, 217628, Note_on_c, 0, 72, 0
2, 217632, Note_on_c, 0, 74, 70
2, 217724, Note_on_c, 0, 74, 0
2, 217728, Note_on_c, 0, 71, 70
2, 217820, Note_on_c, 0, 71, 0
2, 217824, Note_on_c, 0, 67, 70
2, 217916, Note_on_c, 0, 67, 0
2, 217920, Note_on_c, 0, 74, 70
2, 218012, Note_on_c, 0, 74, 0
2, 218016, Note_on_c, 0, 71, 70
2, 218108, Note_on_c, 0, 71, 0
2, 218112, Note_on_c, 0, 79, 70
2, 218204, Note_on_c, 0, 79, 0
2, 218208, Note_on_c, 0, 78, 70
2, 218300, Note_on_c, 0, 78, 0
2, 218304, Note_on_c, 0, 79, 70
2, 218396, Note_on_c, 0, 79, 0
2, 218400, Note_on_c, 0, 78, 70
2, 218492, Note_on_c, 0, 78, 0
2, 218496, Note_on_c, 0, 79, 70
2, 218588, Note_on_c, 0, 79, 0
2, 218592, Note_on_c, 0, 77, 70
2, 218684, Note_on_c, 0, 77, 0
2, 218688, Note_on_c, 0, 76, 70
2, 218780, Note_on_c, 0, 76, 0
2, 218784, Note_on_c, 0, 74, 70
2, 218876, Note_on_c, 0, 74, 0
2, 218880, Note_on_c, 0, 76, 70
2, 218972, Note_on_c, 0, 76, 0
2, 218976, Note_on_c, 0, 72, 70
2, 219068, Note_on_c, 0, 72, 0
2, 219072, Note_on_c, 0, 79, 70
2, 219164, Note_on_c, 0, 79, 0
2, 219168, Note_on_c, 0, 76, 70
2, 219260, Note_on_c, 0, 76, 0
2, 219264, Note_on_c, 0, 84, 70
2, 219356, Note_on_c, 0, 84, 0
2, 219360, Note_on_c, 0, 83, 70
2, 219452, Note_on_c, 0, 83, 0
2, 219456, Note_on_c, 0, 84, 70
2, 219548, Note_on_c, 0, 84, 0
2, 219552, Note_on_c, 0, 83, 70
2, 219644, Note_on_c, 0, 83, 0
2, 219648, Note_on_c, 0, 84, 70
2, 219740, Note_on_c, 0, 84, 0
2, 219744, Note_on_c, 0, 79, 70
2, 219836, Note_on_c, 0, 79, 0
2, 219840, Note_on_c, 0, 76, 70
2, 219932, Note_on_c, 0, 76, 0
2, 219936, Note_on_c, 0, 72, 70
2, 220028, Note_on_c, 0, 72, 0
2, 220032, Note_on_c, 0, 71, 70
2, 220124, Note_on_c, 0, 71, 0
2, 220128, Note_on_c, 0, 67, 70
2, 220220, Note_on_c, 0, 67, 0
2, 220224, Note_on_c, 0, 74, 70
2, 220316, Note_on_c, 0, 74, 0
2, 220320, Note_on_c, 0, 71, 70
2, 220412, Note_on_c, 0, 71, 0
2, 220416, Note_on_c, 0, 79, 71
2, 220508, Note_on_c, 0, 79, 0
2, 220512, Note_on_c, 0, 78, 71
2, 220604, Note_on_c, 0, 78, 0
2, 220608, Note_on_c, 0, 79, 72
2, 220700, Note_on_c, 0, 79, 0
2, 220704, Note_on_c, 0, 78, 73
2, 220796, Note_on_c, 0, 78, 0
2, 220800, Note_on_c, 0, 79, 74
2, 220892, Note_on_c, 0, 79, 0
2, 220896, Note_on_c, 0, 77, 76
2, 220988, Note_on_c, 0, 77, 0
2, 220992, Note_on_c, 0, 76, 77
2, 221084, Note_on_c, 0, 76, 0
2, 221088, Note_on_c, 0, 74, 77
2, 221180, Note_on_c, 0, 74, 0
2, 221184, Note_on_c, 0, 76, 78
2, 221276, Note_on_c, 0, 76, 0
2, 221280, Note_on_c, 0, 72, 79
2, 221372, Note_on_c, 0, 72, 0
2, 221376, Note_on_c, 0, 79, 80
2, 221468, Note_on_c, 0, 79, 0
2, 221472, Note_on_c, 0, 76, 82
2, 221564, Note_on_c, 0, 76, 0
2, 221568, Note_on_c, 0, 84, 83
2, 221660, Note_on_c, 0, 84, 0
2, 221664, Note_on_c, 0, 83, 83
2, 221756, Note_on_c, 0, 83, 0
2, 221760, Note_on_c, 0, 84, 83
2, 221852, Note_on_c, 0, 84, 0
2, 221856, Note_on_c, 0, 83, 86
2, 221948, Note_on_c, 0, 83, 0
2, 221952, Note_on_c, 0, 84, 87
2, 222044, Note_on_c, 0, 84, 0
2, 222048, Note_on_c, 0, 79, 88
2, 222140, Note_on_c, 0, 79, 0
2, 222144, Note_on_c, 0, 76, 89
2, 222236, Note_on_c, 0, 76, 0
2, 222240, Note_on_c, 0, 72, 90
2, 222332, Note_on_c, 0, 72, 0
2, 222336, Note_on_c, 0, 71, 91
2, 222428, Note_on_c, 0, 71, 0
2, 222432, Note_on_c, 0, 67, 91
2, 222524, Note_on_c, 0, 67, 0
2, 222528, Note_on_c, 0, 71, 91
2, 222620, Note_on_c, 0, 71, 0
2, 222624, Note_on_c, 0, 74, 91
2, 222716, Note_on_c, 0, 74, 0
2, 222720, Note_on_c, 0, 79, 91
2, 222812, Note_on_c, 0, 79, 0
2, 222816, Note_on_c, 0, 74, 91
2, 222908, Note_on_c, 0, 74, 0
2, 222912, Note_on_c, 0, 71, 91
2, 223004, Note_on_c, 0, 71, 0
2, 223008, Note_on_c, 0, 67, 91
2, 223100, Note_on_c, 0, 67, 0
2, 223104, Note_on_c, 0, 79, 91
2, 223196, Note_on_c, 0, 79, 0
2, 223200, Note_on_c, 0, 74, 91
2, 223292, Note_on_c, 0, 74, 0
2, 223296, Note_on_c, 0, 71, 91
2, 223388, Note_on_c, 0, 71, 0
2, 223392, Note_on_c, 0, 67, 91
2, 223484, Note_on_c, 0, 67, 0
2, 223488, Note_on_c, 0, 79, 91
2, 223532, Note_on_c, 0, 79, 0
2, 223536, Note_on_c, 0, 81, 91
2, 223580, Note_on_c, 0, 81, 0
2, 223584, Note_on_c, 0, 79, 91
2, 223628, Note_on_c, 0, 79, 0
2, 223632, Note_on_c, 0, 81, 91
2, 223676, Note_on_c, 0, 81, 0
2, 223680, Note_on_c, 0, 79, 91
2, 223724, Note_on_c, 0, 79, 0
2, 223728, Note_on_c, 0, 81, 91
2, 223772, Note_on_c, 0, 81, 0
2, 223776, Note_on_c, 0, 79, 91
2, 223820, Note_on_c, 0, 79, 0
2, 223824, Note_on_c, 0, 81, 91
2, 223868, Note_on_c, 0, 81, 0
2, 223872, Note_on_c, 0, 79, 91
2, 223916, Note_on_c, 0, 79, 0
2, 223920, Note_on_c, 0, 81, 91
2, 223964, Note_on_c, 0, 81, 0
2, 223968, Note_on_c, 0, 79, 91
2, 224012, Note_on_c, 0, 79, 0
2, 224016, Note_on_c, 0, 81, 91
2, 224060, Note_on_c, 0, 81, 0
2, 224064, Note_on_c, 0, 79, 91
2, 224108, Note_on_c, 0, 79, 0
2, 224112, Note_on_c, 0, 81, 91
2, 224156, Note_on_c, 0, 81, 0
2, 224160, Note_on_c, 0, 79, 91
2, 224204, Note_on_c, 0, 79, 0
2, 224208, Note_on_c, 0, 81, 91
2, 224252, Note_on_c, 0, 81, 0
2, 224256, Note_on_c, 0, 79, 91
2, 224348, Note_on_c, 0, 79, 0
2, 224352, Note_on_c, 0, 81, 91
2, 224444, Note_on_c, 0, 81, 0
2, 224448, Note_on_c, 0, 83, 91
2, 224540, Note_on_c, 0, 83, 0
2, 224544, Note_on_c, 0, 84, 91
2, 224636, Note_on_c, 0, 84, 0
2, 224640, Note_on_c, 0, 86, 91
2, 224732, Note_on_c, 0, 86, 0
2, 224736, Note_on_c, 0, 84, 91
2, 224828, Note_on_c, 0, 84, 0
2, 224832, Note_on_c, 0, 83, 91
2, 224924, Note_on_c, 0, 83, 0
2, 224928, Note_on_c, 0, 81, 91
2, 225020, Note_on_c, 0, 81, 0
2, 225024, Note_on_c, 0, 79, 91
2, 225116, Note_on_c, 0, 79, 0
2, 225120, Note_on_c, 0, 78, 91
2, 225212, Note_on_c, 0, 78, 0
2, 225216, Note_on_c, 0, 76, 91
2, 225308, Note_on_c, 0, 76, 0
2, 225312, Note_on_c, 0, 74, 91
2, 225404, Note_on_c, 0, 74, 0
2, 225408, Note_on_c, 0, 72, 91
2, 225500, Note_on_c, 0, 72, 0
2, 225504, Note_on_c, 0, 71, 91
2, 225596, Note_on_c, 0, 71, 0
2, 225600, Note_on_c, 0, 69, 91
2, 225692, Note_on_c, 0, 69, 0
2, 225696, Note_on_c, 0, 67, 91
2, 225788, Note_on_c, 0, 67, 0
2, 225792, Note_on_c, 0, 66, 91
2, 226652, Note_on_c, 0, 66, 0
2, 226656, Note_on_c, 0, 67, 91
2, 226748, Note_on_c, 0, 67, 0
2, 226752, Note_on_c, 0, 66, 91
2, 226844, Note_on_c, 0, 66, 0
2, 226848, Note_on_c, 0, 64, 91
2, 226940, Note_on_c, 0, 64, 0
2, 226944, Note_on_c, 0, 65, 91
2, 227036, Note_on_c, 0, 65, 0
2, 227040, Note_on_c, 0, 67, 91
2, 227132, Note_on_c, 0, 67, 0
2, 227136, Note_on_c, 0, 69, 91
2, 227228, Note_on_c, 0, 69, 0
2, 227232, Note_on_c, 0, 71, 91
2, 227324, Note_on_c, 0, 71, 0
2, 227328, Note_on_c, 0, 72, 91
2, 227420, Note_on_c, 0, 72, 0
2, 227424, Note_on_c, 0, 74, 91
2, 227516, Note_on_c, 0, 74, 0
2, 227520, Note_on_c, 0, 76, 91
2, 227612, Note_on_c, 0, 76, 0
2, 227616, Note_on_c, 0, 78, 91
2, 227708, Note_on_c, 0, 78, 0
2, 227712, Note_on_c, 0, 79, 91
2, 227804, Note_on_c, 0, 79, 0
2, 227808, Note_on_c, 0, 81, 91
2, 227900, Note_on_c, 0, 81, 0
2, 227904, Note_on_c, 0, 83, 91
2, 227996, Note_on_c, 0, 83, 0
2, 228000, Note_on_c, 0, 84, 91
2, 228092, Note_on_c, 0, 84, 0
2, 228096, Note_on_c, 0, 86, 91
2, 228284, Note_on_c, 0, 86, 0
2, 228288, Note_on_c, 0, 88, 91
2, 228476, Note_on_c, 0, 88, 0
2, 228480, Note_on_c, 0, 89, 91
2, 229244, Note_on_c, 0, 89, 0
2, 229248, Note_on_c, 0, 89, 91
2, 229532, Note_on_c, 0, 89, 0
2, 229536, Note_on_c, 0, 86, 91
2, 229628, Note_on_c, 0, 86, 0
2, 229632, Note_on_c, 0, 86, 91
2, 229676, Note_on_c, 0, 86, 0
2, 229680, Note_on_c, 0, 88, 91
2, 229724, Note_on_c, 0, 88, 0
2, 229728, Note_on_c, 0, 86, 91
2, 229772, Note_on_c, 0, 86, 0
2, 229776, Note_on_c, 0, 88, 91
2, 229820, Note_on_c, 0, 88, 0
2, 229824, Note_on_c, 0, 89, 91
2, 230108, Note_on_c, 0, 89, 0
2, 230112, Note_on_c, 0, 83, 91
2, 230204, Note_on_c, 0, 83, 0
2, 230208, Note_on_c, 0, 83, 91
2, 230252, Note_on_c, 0, 83, 0
2, 230256, Note_on_c, 0, 84, 91
2, 230300, Note_on_c, 0, 84, 0
2, 230304, Note_on_c, 0, 83, 91
2, 230348, Note_on_c, 0, 83, 0
2, 230352, Note_on_c, 0, 84, 91
2, 230396, Note_on_c, 0, 84, 0
2, 230400, Note_on_c, 0, 86, 90
2, 230684, Note_on_c, 0, 86, 0
2, 230688, Note_on_c, 0, 77, 88
2, 230780, Note_on_c, 0, 77, 0
2, 230784, Note_on_c, 0, 77, 88
2, 230828, Note_on_c, 0, 77, 0
2, 230832, Note_on_c, 0, 79, 87
2, 230876, Note_on_c, 0, 79, 0
2, 230880, Note_on_c, 0, 77, 87
2, 230924, Note_on_c, 0, 77, 0
2, 230928, Note_on_c, 0, 79, 87
2, 230972, Note_on_c, 0, 79, 0
2, 230976, Note_on_c, 0, 81, 86
2, 231260, Note_on_c, 0, 81, 0
2, 231264, Note_on_c, 0, 74, 83
2, 231356, Note_on_c, 0, 74, 0
2, 231360, Note_on_c, 0, 74, 82
2, 231404, Note_on_c, 0, 74, 0
2, 231408, Note_on_c, 0, 76, 82
2, 231452, Note_on_c, 0, 76, 0
2, 231456, Note_on_c, 0, 74, 82
2, 231500, Note_on_c, 0, 74, 0
2, 231504, Note_on_c, 0, 76, 80
2, 231548, Note_on_c, 0, 76, 0
2, 231552, Note_on_c, 0, 77, 80
2, 231836, Note_on_c, 0, 77, 0
2, 231840, Note_on_c, 0, 71, 78
2, 231932, Note_on_c, 0, 71, 0
2, 231936, Note_on_c, 0, 71, 77
2, 231980, Note_on_c, 0, 71, 0
2, 231984, Note_on_c, 0, 72, 77
2, 232028, Note_on_c, 0, 72, 0
2, 232032, Note_on_c, 0, 71, 76
2, 232076, Note_on_c, 0, 71, 0
2, 232080, Note_on_c, 0, 72, 76
2, 232124, Note_on_c, 0, 72, 0
2, 232128, Note_on_c, 0, 74, 76
2, 232412, Note_on_c, 0, 74, 0
2, 232416, Note_on_c, 0, 67, 73
2, 232700, Note_on_c, 0, 67, 0
2, 232704, Note_on_c, 0, 67, 70
2, 232892, Note_on_c, 0, 67, 0
2, 233088, Note_on_c, 0, 67, 70
2, 233276, Note_on_c, 0, 67, 0
2, 233472, Note_on_c, 0, 67, 70
2, 233660, Note_on_c, 0, 67, 0
2, 233856, Note_on_c, 0, 67, 77
2, 235392, Note_on_c, 0, 67, 72
2, 235580, Note_on_c, 0, 67, 0
2, 235580, Note_on_c, 0, 67, 0
2, 235584, Note_on_c, 0, 71, 72
2, 235772, Note_on_c, 0, 71, 0
2, 235776, Note_on_c, 0, 74, 73
2, 235964, Note_on_c, 0, 74, 0
2, 235968, Note_on_c, 0, 72, 74
2, 236156, Note_on_c, 0, 72, 0
2, 236160, Note_on_c, 0, 71, 74
2, 236348, Note_on_c, 0, 71, 0
2, 236352, Note_on_c, 0, 74, 76
2, 236540, Note_on_c, 0, 74, 0
2, 236544, Note_on_c, 0, 77, 76
2, 236732, Note_on_c, 0, 77, 0
2, 236736, Note_on_c, 0, 76, 77
2, 236924, Note_on_c, 0, 76, 0
2, 236928, Note_on_c, 0, 74, 78
2, 237116, Note_on_c, 0, 74, 0
2, 237120, Note_on_c, 0, 77, 79
2, 237308, Note_on_c, 0, 77, 0
2, 237312, Note_on_c, 0, 81, 80
2, 237500, Note_on_c, 0, 81, 0
2, 237504, Note_on_c, 0, 79, 82
2, 237692, Note_on_c, 0, 79, 0
2, 237696, Note_on_c, 0, 79, 83
2, 238268, Note_on_c, 0, 79, 0
2, 238272, Note_on_c, 0, 78, 83
2, 238460, Note_on_c, 0, 78, 0
2, 238464, Note_on_c, 0, 79, 83
2, 238556, Note_on_c, 0, 79, 0
2, 238656, Note_on_c, 0, 83, 82
2, 238844, Note_on_c, 0, 83, 0
2, 238848, Note_on_c, 0, 86, 79
2, 239036, Note_on_c, 0, 86, 0
2, 239040, Note_on_c, 0, 84, 77
2, 239228, Note_on_c, 0, 84, 0
2, 239232, Note_on_c, 0, 83, 74
2, 239420, Note_on_c, 0, 83, 0
2, 239424, Note_on_c, 0, 81, 72
2, 239612, Note_on_c, 0, 81, 0
2, 239616, Note_on_c, 0, 79, 70
2, 239660, Note_on_c, 0, 79, 0
2, 239664, Note_on_c, 0, 81, 70
2, 239708, Note_on_c, 0, 81, 0
2, 239712, Note_on_c, 0, 79, 70
2, 239756, Note_on_c, 0, 79, 0
2, 239760, Note_on_c, 0, 81, 70
2, 239804, Note_on_c, 0, 81, 0
2, 239808, Note_on_c, 0, 79, 70
2, 239852, Note_on_c, 0, 79, 0
2, 239856, Note_on_c, 0, 81, 70
2, 239900, Note_on_c, 0, 81, 0
2, 239904, Note_on_c, 0, 79, 70
2, 239948, Note_on_c, 0, 79, 0
2, 239952, Note_on_c, 0, 81, 70
2, 239996, Note_on_c, 0, 81, 0
2, 240288, Note_on_c, 0, 81, 70
2, 240332, Note_on_c, 0, 81, 0
2, 240384, Note_on_c, 0, 77, 70
2, 240572, Note_on_c, 0, 77, 0
2, 240768, Note_on_c, 0, 76, 70
2, 241148, Note_on_c, 0, 76, 0
2, 241536, Note_on_c, 0, 72, 70
2, 241724, Note_on_c, 0, 72, 0
2, 241920, Note_on_c, 0, 73, 71
2, 242108, Note_on_c, 0, 73, 0
2, 242112, Note_on_c, 0, 74, 72
2, 242300, Note_on_c, 0, 74, 0
2, 242304, Note_on_c, 0, 76, 74
2, 242492, Note_on_c, 0, 76, 0
2, 242496, Note_on_c, 0, 74, 77
2, 242684, Note_on_c, 0, 74, 0
2, 242688, Note_on_c, 0, 77, 79
2, 242876, Note_on_c, 0, 77, 0
2, 242880, Note_on_c, 0, 74, 82
2, 243068, Note_on_c, 0, 74, 0
2, 243072, Note_on_c, 0, 72, 83
2, 243260, Note_on_c, 0, 72, 0
2, 243264, Note_on_c, 0, 71, 82
2, 243452, Note_on_c, 0, 71, 0
2, 243456, Note_on_c, 0, 69, 79
2, 243644, Note_on_c, 0, 69, 0
2, 243648, Note_on_c, 0, 67, 77
2, 243836, Note_on_c, 0, 67, 0
2, 243840, Note_on_c, 0, 79, 74
2, 244220, Note_on_c, 0, 79, 0
2, 244224, Note_on_c, 0, 79, 70
2, 244268, Note_on_c, 0, 79, 0
2, 244272, Note_on_c, 0, 81, 70
2, 244316, Note_on_c, 0, 81, 0
2, 244320, Note_on_c, 0, 79, 70
2, 244364, Note_on_c, 0, 79, 0
2, 244368, Note_on_c, 0, 81, 70
2, 244412, Note_on_c, 0, 81, 0
2, 244416, Note_on_c, 0, 79, 70
2, 244460, Note_on_c, 0, 79, 0
2, 244464, Note_on_c, 0, 81, 70
2, 244508, Note_on_c, 0, 81, 0
2, 244512, Note_on_c, 0, 79, 70
2, 244556, Note_on_c, 0, 79, 0
2, 244560, Note_on_c, 0, 81, 70
2, 244604, Note_on_c, 0, 81, 0
2, 244896, Note_on_c, 0, 81, 70
2, 244940, Note_on_c, 0, 81, 0
2, 244992, Note_on_c, 0, 77, 70
2, 245180, Note_on_c, 0, 77, 0
2, 245376, Note_on_c, 0, 76, 70
2, 245756, Note_on_c, 0, 76, 0
2, 246144, Note_on_c, 0, 72, 70
2, 246524, Note_on_c, 0, 72, 0
2, 246528, Note_on_c, 0, 74, 70
2, 246652, Note_on_c, 0, 74, 0
2, 246656, Note_on_c, 0, 77, 70
2, 246780, Note_on_c, 0, 77, 0
2, 246784, Note_on_c, 0, 81, 70
2, 246908, Note_on_c, 0, 81, 0
2, 246912, Note_on_c, 0, 72, 70
2, 247292, Note_on_c, 0, 72, 0
2, 247296, Note_on_c, 0, 71, 70
2, 247328, Note_on_c, 0, 72, 70
2, 247340, Note_on_c, 0, 71, 0
2, 247372, Note_on_c, 0, 72, 0
2, 247392, Note_on_c, 0, 71, 70
2, 247436, Note_on_c, 0, 71, 0
2, 247440, Note_on_c, 0, 72, 70
2, 247484, Note_on_c, 0, 72, 0
2, 247488, Note_on_c, 0, 69, 70
2, 247580, Note_on_c, 0, 69, 0
2, 247584, Note_on_c, 0, 71, 70
2, 247676, Note_on_c, 0, 71, 0
2, 247680, Note_on_c, 0, 72, 70
2, 248060, Note_on_c, 0, 72, 0
2, 259392, Note_on_c, 0, 84, 71
2, 259484, Note_on_c, 0, 84, 0
2, 259584, Note_on_c, 0, 84, 72
2, 259676, Note_on_c, 0, 84, 0
2, 259776, Note_on_c, 0, 84, 73
2, 259868, Note_on_c, 0, 84, 0
2, 259968, Note_on_c, 0, 84, 74
2, 260060, Note_on_c, 0, 84, 0
2, 260160, Note_on_c, 0, 84, 76
2, 260252, Note_on_c, 0, 84, 0
2, 260352, Note_on_c, 0, 86, 77
2, 260540, Note_on_c, 0, 86, 0
2, 260544, Note_on_c, 0, 84, 78
2, 260544, Note_on_c, 0, 72, 78
2, 260636, Note_on_c, 0, 72, 0
2, 260732, Note_on_c, 0, 84, 0
2, 260736, Note_on_c, 0, 82, 79
2, 260736, Note_on_c, 0, 72, 79
2, 260828, Note_on_c, 0, 72, 0
2, 260828, Note_on_c, 0, 82, 0
2, 260928, Note_on_c, 0, 81, 80
2, 260928, Note_on_c, 0, 72, 80
2, 261020, Note_on_c, 0, 72, 0
2, 261020, Note_on_c, 0, 81, 0
2, 261104, Note_on_c, 0, 72, 82
2, 261120, Note_on_c, 0, 82, 82
2, 261196, Note_on_c, 0, 72, 0
2, 261308, Note_on_c, 0, 82, 0
2, 261312, Note_on_c, 0, 79, 83
2, 261312, Note_on_c, 0, 72, 83
2, 261404, Note_on_c, 0, 72, 0
2, 261500, Note_on_c, 0, 79, 0
2, 261504, Note_on_c, 0, 82, 83
2, 261504, Note_on_c, 0, 74, 83
2, 261692, Note_on_c, 0, 74, 0
2, 261692, Note_on_c, 0, 82, 0
2, 261696, Note_on_c, 0, 81, 82
2, 261696, Note_on_c, 0, 72, 82
2, 261884, Note_on_c, 0, 72, 0
2, 261884, Note_on_c, 0, 81, 0
2, 261888, Note_on_c, 0, 79, 79
2, 261888, Note_on_c, 0, 70, 79
2, 261980, Note_on_c, 0, 70, 0
2, 261980, Note_on_c, 0, 79, 0
2, 262080, Note_on_c, 0, 77, 77
2, 262080, Note_on_c, 0, 69, 77
2, 262172, Note_on_c, 0, 69, 0
2, 262172, Note_on_c, 0, 77, 0
2, 262272, Note_on_c, 0, 79, 74
2, 262272, Note_on_c, 0, 70, 74
2, 262460, Note_on_c, 0, 70, 0
2, 262460, Note_on_c, 0, 79, 0
2, 262464, Note_on_c, 0, 77, 72
2, 262464, Note_on_c, 0, 69, 72
2, 262652, Note_on_c, 0, 69, 0
2, 262652, Note_on_c, 0, 77, 0
2, 262656, Note_on_c, 0, 65, 70
2, 262748, Note_on_c, 0, 65, 0
2, 262752, Note_on_c, 0, 77, 70
2, 263424, Note_on_c, 0, 77, 0
2, 263424, Note_on_c, 0, 76, 70
2, 263424, Note_on_c, 0, 79, 70
2, 263468, Note_on_c, 0, 79, 0
2, 263472, Note_on_c, 0, 81, 70
2, 263516, Note_on_c, 0, 81, 0
2, 263520, Note_on_c, 0, 79, 70
2, 263552, Note_on_c, 0, 81, 70
2, 263564, Note_on_c, 0, 79, 0
2, 263596, Note_on_c, 0, 81, 0
2, 263616, Note_on_c, 0, 79, 70
2, 263660, Note_on_c, 0, 79, 0
2, 263664, Note_on_c, 0, 81, 70
2, 263708, Note_on_c, 0, 81, 0
2, 263712, Note_on_c, 0, 77, 70
2, 263756, Note_on_c, 0, 77, 0
2, 263760, Note_on_c, 0, 79, 70
2, 263804, Note_on_c, 0, 79, 0
2, 263804, Note_on_c, 0, 76, 0
2, 263808, Note_on_c, 0, 81, 70
2, 263808, Note_on_c, 0, 77, 70
2, 263900, Note_on_c, 0, 77, 0
2, 263900, Note_on_c, 0, 81, 0
2, 264192, Note_on_c, 0, 77, 70
2, 264284, Note_on_c, 0, 77, 0
2, 264576, Note_on_c, 0, 72, 70
2, 264668, Note_on_c, 0, 72, 0
2, 264960, Note_on_c, 0, 69, 71
2, 265468, Note_on_c, 0, 69, 0
2, 265472, Note_on_c, 0, 72, 76
2, 265596, Note_on_c, 0, 72, 0
2, 265600, Note_on_c, 0, 77, 78
2, 265724, Note_on_c, 0, 77, 0
2, 265728, Note_on_c, 0, 72, 79
2, 265852, Note_on_c, 0, 72, 0
2, 265856, Note_on_c, 0, 77, 80
2, 265980, Note_on_c, 0, 77, 0
2, 265984, Note_on_c, 0, 81, 82
2, 266108, Note_on_c, 0, 81, 0
2, 266112, Note_on_c, 0, 82, 83
2, 266204, Note_on_c, 0, 82, 0
2, 266496, Note_on_c, 0, 79, 79
2, 266588, Note_on_c, 0, 79, 0
2, 266880, Note_on_c, 0, 76, 74
2, 266972, Note_on_c, 0, 76, 0
2, 267264, Note_on_c, 0, 72, 71
2, 267772, Note_on_c, 0, 72, 0
2, 267776, Note_on_c, 0, 76, 76
2, 267900, Note_on_c, 0, 76, 0
2, 267904, Note_on_c, 0, 79, 78
2, 268028, Note_on_c, 0, 79, 0
2, 268032, Note_on_c, 0, 76, 79
2, 268156, Note_on_c, 0, 76, 0
2, 268160, Note_on_c, 0, 77, 80
2, 268284, Note_on_c, 0, 77, 0
2, 268288, Note_on_c, 0, 82, 82
2, 268412, Note_on_c, 0, 82, 0
2, 268416, Note_on_c, 0, 81, 83
2, 268540, Note_on_c, 0, 81, 0
2, 268544, Note_on_c, 0, 84, 83
2, 268668, Note_on_c, 0, 84, 0
2, 268672, Note_on_c, 0, 82, 82
2, 268796, Note_on_c, 0, 82, 0
2, 268800, Note_on_c, 0, 81, 79
2, 268924, Note_on_c, 0, 81, 0
2, 268928, Note_on_c, 0, 79, 78
2, 269052, Note_on_c, 0, 79, 0
2, 269056, Note_on_c, 0, 77, 77
2, 269180, Note_on_c, 0, 77, 0
2, 269184, Note_on_c, 0, 76, 74
2, 269308, Note_on_c, 0, 76, 0
2, 269312, Note_on_c, 0, 74, 73
2, 269436, Note_on_c, 0, 74, 0
2, 269440, Note_on_c, 0, 72, 72
2, 269564, Note_on_c, 0, 72, 0
2, 269568, Note_on_c, 0, 77, 70
2, 269692, Note_on_c, 0, 77, 0
2, 269696, Note_on_c, 0, 81, 70
2, 269820, Note_on_c, 0, 81, 0
2, 269824, Note_on_c, 0, 79, 70
2, 269948, Note_on_c, 0, 79, 0
2, 269952, Note_on_c, 0, 77, 70
2, 270076, Note_on_c, 0, 77, 0
2, 270080, Note_on_c, 0, 76, 70
2, 270204, Note_on_c, 0, 76, 0
2, 270208, Note_on_c, 0, 74, 70
2, 270332, Note_on_c, 0, 74, 0
2, 270336, Note_on_c, 0, 72, 70
2, 270460, Note_on_c, 0, 72, 0
2, 270464, Note_on_c, 0, 70, 70
2, 270588, Note_on_c, 0, 70, 0
2, 270592, Note_on_c, 0, 69, 70
2, 270716, Note_on_c, 0, 69, 0
2, 270720, Note_on_c, 0, 67, 70
2, 270844, Note_on_c, 0, 67, 0
2, 270848, Note_on_c, 0, 70, 70
2, 270972, Note_on_c, 0, 70, 0
2, 270976, Note_on_c, 0, 74, 70
2, 271100, Note_on_c, 0, 74, 0
2, 271104, Note_on_c, 0, 72, 70
2, 271228, Note_on_c, 0, 72, 0
2, 271232, Note_on_c, 0, 69, 70
2, 271356, Note_on_c, 0, 69, 0
2, 271360, Note_on_c, 0, 65, 70
2, 271484, Note_on_c, 0, 65, 0
2, 271488, Note_on_c, 0, 70, 70
2, 271612, Note_on_c, 0, 70, 0
2, 271616, Note_on_c, 0, 67, 70
2, 271740, Note_on_c, 0, 67, 0
2, 271744, Note_on_c, 0, 64, 70
2, 271868, Note_on_c, 0, 64, 0
2, 271872, Note_on_c, 0, 81, 62
2, 271996, Note_on_c, 0, 81, 0
2, 272000, Note_on_c, 0, 84, 62
2, 272124, Note_on_c, 0, 84, 0
2, 272128, Note_on_c, 0, 82, 62
2, 272252, Note_on_c, 0, 82, 0
2, 272256, Note_on_c, 0, 81, 62
2, 272380, Note_on_c, 0, 81, 0
2, 272384, Note_on_c, 0, 79, 62
2, 272508, Note_on_c, 0, 79, 0
2, 272512, Note_on_c, 0, 77, 62
2, 272636, Note_on_c, 0, 77, 0
2, 272640, Note_on_c, 0, 76, 62
2, 272764, Note_on_c, 0, 76, 0
2, 272768, Note_on_c, 0, 74, 62
2, 272892, Note_on_c, 0, 74, 0
2, 272896, Note_on_c, 0, 72, 62
2, 273020, Note_on_c, 0, 72, 0
2, 273024, Note_on_c, 0, 77, 71
2, 273148, Note_on_c, 0, 77, 0
2, 273152, Note_on_c, 0, 81, 71
2, 273276, Note_on_c, 0, 81, 0
2, 273280, Note_on_c, 0, 79, 72
2, 273404, Note_on_c, 0, 79, 0
2, 273408, Note_on_c, 0, 77, 73
2, 273532, Note_on_c, 0, 77, 0
2, 273536, Note_on_c, 0, 76, 74
2, 273660, Note_on_c, 0, 76, 0
2, 273664, Note_on_c, 0, 74, 76
2, 273788, Note_on_c, 0, 74, 0
2, 273792, Note_on_c, 0, 72, 77
2, 273916, Note_on_c, 0, 72, 0
2, 273920, Note_on_c, 0, 70, 78
2, 274044, Note_on_c, 0, 70, 0
2, 274048, Note_on_c, 0, 69, 79
2, 274172, Note_on_c, 0, 69, 0
2, 274176, Note_on_c, 0, 67, 80
2, 274300, Note_on_c, 0, 67, 0
2, 274304, Note_on_c, 0, 70, 82
2, 274428, Note_on_c, 0, 70, 0
2, 274432, Note_on_c, 0, 74, 83
2, 274556, Note_on_c, 0, 74, 0
2, 274560, Note_on_c, 0, 72, 83
2, 274684, Note_on_c, 0, 72, 0
2, 274688, Note_on_c, 0, 69, 86
2, 274812, Note_on_c, 0, 69, 0
2, 274816, Note_on_c, 0, 65, 87
2, 274940, Note_on_c, 0, 65, 0
2, 274944, Note_on_c, 0, 70, 88
2, 275068, Note_on_c, 0, 70, 0
2, 275072, Note_on_c, 0, 67, 89
2, 275196, Note_on_c, 0, 67, 0
2, 275200, Note_on_c, 0, 64, 90
2, 275324, Note_on_c, 0, 64, 0
2, 275328, Note_on_c, 0, 65, 91
2, 275708, Note_on_c, 0, 65, 0
2, 277824, Note_on_c, 0, 72, 70
2, 277916, Note_on_c, 0, 72, 0
2, 278016, Note_on_c, 0, 72, 70
2, 278108, Note_on_c, 0, 72, 0
2, 278208, Note_on_c, 0, 72, 70
2, 278300, Note_on_c, 0, 72, 0
2, 278400, Note_on_c, 0, 72, 71
2, 278492, Note_on_c, 0, 72, 0
2, 278592, Note_on_c, 0, 72, 73
2, 278684, Note_on_c, 0, 72, 0
2, 278784, Note_on_c, 0, 74, 77
2, 278972, Note_on_c, 0, 74, 0
2, 278976, Note_on_c, 0, 72, 80
2, 279164, Note_on_c, 0, 72, 0
2, 279168, Note_on_c, 0, 70, 83
2, 279260, Note_on_c, 0, 70, 0
2, 279376, Note_on_c, 0, 69, 80
2, 279468, Note_on_c, 0, 69, 0
2, 279552, Note_on_c, 0, 67, 77
2, 279644, Note_on_c, 0, 67, 0
2, 279744, Note_on_c, 0, 65, 73
2, 279836, Note_on_c, 0, 65, 0
2, 279936, Note_on_c, 0, 69, 71
2, 280124, Note_on_c, 0, 69, 0
2, 280128, Note_on_c, 0, 79, 72
2, 280316, Note_on_c, 0, 79, 0
2, 280320, Note_on_c, 0, 79, 74
2, 280412, Note_on_c, 0, 79, 0
2, 280512, Note_on_c, 0, 79, 77
2, 280604, Note_on_c, 0, 79, 0
2, 280704, Note_on_c, 0, 79, 79
2, 280796, Note_on_c, 0, 79, 0
2, 280896, Note_on_c, 0, 79, 82
2, 280988, Note_on_c, 0, 79, 0
2, 281088, Note_on_c, 0, 81, 83
2, 281276, Note_on_c, 0, 81, 0
2, 281280, Note_on_c, 0, 79, 82
2, 281468, Note_on_c, 0, 79, 0
2, 281472, Note_on_c, 0, 77, 79
2, 281564, Note_on_c, 0, 77, 0
2, 281664, Note_on_c, 0, 76, 77
2, 281756, Note_on_c, 0, 76, 0
2, 281856, Note_on_c, 0, 74, 74
2, 281948, Note_on_c, 0, 74, 0
2, 282048, Note_on_c, 0, 72, 72
2, 282140, Note_on_c, 0, 72, 0
2, 282240, Note_on_c, 0, 71, 70
2, 282428, Note_on_c, 0, 71, 0
2, 282432, Note_on_c, 0, 77, 70
2, 282620, Note_on_c, 0, 77, 0
2, 282624, Note_on_c, 0, 77, 71
2, 282716, Note_on_c, 0, 77, 0
2, 282816, Note_on_c, 0, 77, 71
2, 282908, Note_on_c, 0, 77, 0
2, 283008, Note_on_c, 0, 77, 72
2, 283100, Note_on_c, 0, 77, 0
2, 283200, Note_on_c, 0, 77, 73
2, 283292, Note_on_c, 0, 77, 0
2, 283392, Note_on_c, 0, 79, 74
2, 283580, Note_on_c, 0, 79, 0
2, 283584, Note_on_c, 0, 77, 74
2, 283772, Note_on_c, 0, 77, 0
2, 283776, Note_on_c, 0, 76, 76
2, 283868, Note_on_c, 0, 76, 0
2, 283968, Note_on_c, 0, 74, 77
2, 284060, Note_on_c, 0, 74, 0
2, 284160, Note_on_c, 0, 72, 78
2, 284252, Note_on_c, 0, 72, 0
2, 284352, Note_on_c, 0, 71, 78
2, 284444, Note_on_c, 0, 71, 0
2, 284544, Note_on_c, 0, 86, 79
2, 284732, Note_on_c, 0, 86, 0
2, 284736, Note_on_c, 0, 84, 80
2, 284924, Note_on_c, 0, 84, 0
2, 284928, Note_on_c, 0, 83, 82
2, 285020, Note_on_c, 0, 83, 0
2, 285120, Note_on_c, 0, 81, 83
2, 285212, Note_on_c, 0, 81, 0
2, 285312, Note_on_c, 0, 79, 83
2, 285404, Note_on_c, 0, 79, 0
2, 285520, Note_on_c, 0, 78, 83
2, 285612, Note_on_c, 0, 78, 0
2, 285696, Note_on_c, 0, 86, 86
2, 285884, Note_on_c, 0, 86, 0
2, 285888, Note_on_c, 0, 77, 87
2, 286076, Note_on_c, 0, 77, 0
2, 286080, Note_on_c, 0, 77, 87
2, 286460, Note_on_c, 0, 77, 0
2, 286464, Note_on_c, 0, 77, 89
2, 286496, Note_on_c, 0, 79, 89
2, 286508, Note_on_c, 0, 77, 0
2, 286540, Note_on_c, 0, 79, 0
2, 286560, Note_on_c, 0, 77, 89
2, 286604, Note_on_c, 0, 77, 0
2, 286608, Note_on_c, 0, 79, 90
2, 286652, Note_on_c, 0, 79, 0
2, 286656, Note_on_c, 0, 77, 90
2, 286700, Note_on_c, 0, 77, 0
2, 286704, Note_on_c, 0, 79, 90
2, 286748, Note_on_c, 0, 79, 0
2, 286752, Note_on_c, 0, 76, 90
2, 286784, Note_on_c, 0, 77, 90
2, 286796, Note_on_c, 0, 76, 0
2, 286828, Note_on_c, 0, 77, 0
2, 286848, Note_on_c, 0, 74, 91
2, 287228, Note_on_c, 0, 74, 0
2, 290304, Note_on_c, 0, 79, 70
2, 290304, Note_on_c, 0, 67, 70
2, 290592, Note_on_c, 0, 76, 70
2, 290592, Note_on_c, 0, 64, 70
2, 290684, Note_on_c, 0, 64, 0
2, 290684, Note_on_c, 0, 76, 0
2, 290688, Note_on_c, 0, 84, 70
2, 290688, Note_on_c, 0, 72, 70
2, 290876, Note_on_c, 0, 67, 0
2, 290876, Note_on_c, 0, 79, 0
2, 291452, Note_on_c, 0, 84, 0
2, 291452, Note_on_c, 0, 72, 0
2, 291456, Note_on_c, 0, 81, 70
2, 291456, Note_on_c, 0, 69, 70
2, 291740, Note_on_c, 0, 69, 0
2, 291740, Note_on_c, 0, 81, 0
2, 291744, Note_on_c, 0, 77, 70
2, 291744, Note_on_c, 0, 65, 70
2, 291836, Note_on_c, 0, 65, 0
2, 291836, Note_on_c, 0, 77, 0
2, 291840, Note_on_c, 0, 84, 70
2, 291840, Note_on_c, 0, 72, 70
2, 292604, Note_on_c, 0, 72, 0
2, 292604, Note_on_c, 0, 84, 0
2, 292608, Note_on_c, 0, 79, 70
2, 292608, Note_on_c, 0, 67, 70
2, 292892, Note_on_c, 0, 67, 0
2, 292892, Note_on_c, 0, 79, 0
2, 292896, Note_on_c, 0, 76, 70
2, 292896, Note_on_c, 0, 64, 70
2, 292988, Note_on_c, 0, 64, 0
2, 292988, Note_on_c, 0, 76, 0
2, 292992, Note_on_c, 0, 81, 70
2, 292992, Note_on_c, 0, 69, 70
2, 293276, Note_on_c, 0, 69, 0
2, 293276, Note_on_c, 0, 81, 0
2, 293280, Note_on_c, 0, 77, 70
2, 293280, Note_on_c, 0, 65, 70
2, 293372, Note_on_c, 0, 65, 0
2, 293372, Note_on_c, 0, 77, 0
2, 293376, Note_on_c, 0, 74, 70
2, 293376, Note_on_c, 0, 62, 70
2, 293660, Note_on_c, 0, 62, 0
2, 293660, Note_on_c, 0, 74, 0
2, 293664, Note_on_c, 0, 72, 70
2, 293664, Note_on_c, 0, 60, 70
2, 293756, Note_on_c, 0, 60, 0
2, 293756, Note_on_c, 0, 72, 0
2, 293760, Note_on_c, 0, 71, 70
2, 293760, Note_on_c, 0, 59, 70
2, 294044, Note_on_c, 0, 59, 0
2, 294044, Note_on_c, 0, 71, 0
2, 294048, Note_on_c, 0, 67, 70
2, 294048, Note_on_c, 0, 55, 70
2, 294140, Note_on_c, 0, 55, 0
2, 294140, Note_on_c, 0, 67, 0
2, 294144, Note_on_c, 0, 77, 70
2, 294144, Note_on_c, 0, 65, 70
2, 294716, Note_on_c, 0, 65, 0
2, 294716, Note_on_c, 0, 77, 0
2, 294720, Note_on_c, 0, 74, 70
2, 294720, Note_on_c, 0, 62, 70
2, 294908, Note_on_c, 0, 62, 0
2, 294908, Note_on_c, 0, 74, 0
2, 294912, Note_on_c, 0, 79, 70
2, 294912, Note_on_c, 0, 67, 70
2, 295196, Note_on_c, 0, 67, 0
2, 295196, Note_on_c, 0, 79, 0
2, 295200, Note_on_c, 0, 76, 70
2, 295200, Note_on_c, 0, 64, 70
2, 295292, Note_on_c, 0, 64, 0
2, 295292, Note_on_c, 0, 76, 0
2, 295296, Note_on_c, 0, 84, 70
2, 295296, Note_on_c, 0, 72, 70
2, 296060, Note_on_c, 0, 72, 0
2, 296060, Note_on_c, 0, 84, 0
2, 296064, Note_on_c, 0, 81, 70
2, 296064, Note_on_c, 0, 69, 70
2, 296348, Note_on_c, 0, 69, 0
2, 296348, Note_on_c, 0, 81, 0
2, 296352, Note_on_c, 0, 77, 70
2, 296352, Note_on_c, 0, 65, 70
2, 296444, Note_on_c, 0, 65, 0
2, 296444, Note_on_c, 0, 77, 0
2, 296448, Note_on_c, 0, 84, 70
2, 296448, Note_on_c, 0, 72, 70
2, 297212, Note_on_c, 0, 72, 0
2, 297212, Note_on_c, 0, 84, 0
2, 297216, Note_on_c, 0, 79, 71
2, 297216, Note_on_c, 0, 67, 71
2, 297500, Note_on_c, 0, 67, 0
2, 297500, Note_on_c, 0, 79, 0
2, 297504, Note_on_c, 0, 80, 73
2, 297504, Note_on_c, 0, 68, 73
2, 297596, Note_on_c, 0, 68, 0
2, 297596, Note_on_c, 0, 80, 0
2, 297600, Note_on_c, 0, 81, 74
2, 297600, Note_on_c, 0, 69, 74
2, 297884, Note_on_c, 0, 69, 0
2, 297884, Note_on_c, 0, 81, 0
2, 297888, Note_on_c, 0, 83, 78
2, 297888, Note_on_c, 0, 71, 78
2, 297968, Note_on_c, 0, 72, 79
2, 297980, Note_on_c, 0, 71, 0
2, 297980, Note_on_c, 0, 83, 0
2, 297984, Note_on_c, 0, 84, 79
2, 298252, Note_on_c, 0, 72, 0
2, 298268, Note_on_c, 0, 84, 0
2, 298272, Note_on_c, 0, 86, 83
2, 298272, Note_on_c, 0, 74, 83
2, 298364, Note_on_c, 0, 74, 0
2, 298364, Note_on_c, 0, 86, 0
2, 298368, Note_on_c, 0, 84, 83
2, 298368, Note_on_c, 0, 72, 83
2, 298748, Note_on_c, 0, 72, 0
2, 298748, Note_on_c, 0, 84, 0
2, 298752, Note_on_c, 0, 83, 79
2, 298752, Note_on_c, 0, 71, 79
2, 298940, Note_on_c, 0, 71, 0
2, 298940, Note_on_c, 0, 83, 0
2, 298944, Note_on_c, 0, 67, 77
2, 299036, Note_on_c, 0, 67, 0
2, 299136, Note_on_c, 0, 69, 74
2, 299228, Note_on_c, 0, 69, 0
2, 299328, Note_on_c, 0, 71, 72
2, 299420, Note_on_c, 0, 71, 0
2, 299520, Note_on_c, 0, 72, 70
2, 299612, Note_on_c, 0, 72, 0
2, 299616, Note_on_c, 0, 67, 70
2, 299708, Note_on_c, 0, 67, 0
2, 299712, Note_on_c, 0, 64, 70
2, 299804, Note_on_c, 0, 64, 0
2, 299808, Note_on_c, 0, 67, 70
2, 299900, Note_on_c, 0, 67, 0
2, 299904, Note_on_c, 0, 72, 70
2, 299996, Note_on_c, 0, 72, 0
2, 300096, Note_on_c, 0, 72, 70
2, 300096, Note_on_c, 0, 67, 70
2, 300188, Note_on_c, 0, 67, 0
2, 300188, Note_on_c, 0, 72, 0
2, 300288, Note_on_c, 0, 74, 70
2, 300288, Note_on_c, 0, 71, 70
2, 300380, Note_on_c, 0, 71, 0
2, 300380, Note_on_c, 0, 74, 0
2, 300480, Note_on_c, 0, 76, 70
2, 300480, Note_on_c, 0, 72, 70
2, 300572, Note_on_c, 0, 72, 0
2, 300572, Note_on_c, 0, 76, 0
2, 300672, Note_on_c, 0, 74, 70
2, 300764, Note_on_c, 0, 74, 0
2, 300768, Note_on_c, 0, 71, 70
2, 300860, Note_on_c, 0, 71, 0
2, 300864, Note_on_c, 0, 67, 70
2, 300956, Note_on_c, 0, 67, 0
2, 300960, Note_on_c, 0, 71, 70
2, 301052, Note_on_c, 0, 71, 0
2, 301056, Note_on_c, 0, 74, 70
2, 301148, Note_on_c, 0, 74, 0
2, 301248, Note_on_c, 0, 67, 70
2, 301340, Note_on_c, 0, 67, 0
2, 301440, Note_on_c, 0, 71, 70
2, 301440, Note_on_c, 0, 67, 70
2, 301532, Note_on_c, 0, 67, 0
2, 301532, Note_on_c, 0, 71, 0
2, 301632, Note_on_c, 0, 72, 70
2, 301632, Note_on_c, 0, 69, 70
2, 301724, Note_on_c, 0, 69, 0
2, 301724, Note_on_c, 0, 72, 0
2, 301824, Note_on_c, 0, 74, 70
2, 301916, Note_on_c, 0, 74, 0
2, 301920, Note_on_c, 0, 71, 70
2, 302012, Note_on_c, 0, 71, 0
2, 302016, Note_on_c, 0, 67, 70
2, 302108, Note_on_c, 0, 67, 0
2, 302112, Note_on_c, 0, 71, 70
2, 302204, Note_on_c, 0, 71, 0
2, 302208, Note_on_c, 0, 74, 70
2, 302300, Note_on_c, 0, 74, 0
2, 302400, Note_on_c, 0, 74, 70
2, 302400, Note_on_c, 0, 71, 70
2, 302492, Note_on_c, 0, 71, 0
2, 302492, Note_on_c, 0, 74, 0
2, 302592, Note_on_c, 0, 76, 70
2, 302592, Note_on_c, 0, 72, 70
2, 302684, Note_on_c, 0, 72, 0
2, 302684, Note_on_c, 0, 76, 0
2, 302784, Note_on_c, 0, 77, 70
2, 302784, Note_on_c, 0, 74, 70
2, 302876, Note_on_c, 0, 74, 0
2, 302876, Note_on_c, 0, 77, 0
2, 302976, Note_on_c, 0, 76, 70
2, 303068, Note_on_c, 0, 76, 0
2, 303072, Note_on_c, 0, 72, 70
2, 303164, Note_on_c, 0, 72, 0
2, 303168, Note_on_c, 0, 67, 70
2, 303260, Note_on_c, 0, 67, 0
2, 303264, Note_on_c, 0, 72, 70
2, 303356, Note_on_c, 0, 72, 0
2, 303360, Note_on_c, 0, 76, 71
2, 303452, Note_on_c, 0, 76, 0
2, 303552, Note_on_c, 0, 79, 71
2, 303552, Note_on_c, 0, 76, 71
2, 303644, Note_on_c, 0, 76, 0
2, 303644, Note_on_c, 0, 79, 0
2, 303744, Note_on_c, 0, 81, 72
2, 303744, Note_on_c, 0, 77, 72
2, 303836, Note_on_c, 0, 77, 0
2, 303836, Note_on_c, 0, 81, 0
2, 303936, Note_on_c, 0, 83, 72
2, 303936, Note_on_c, 0, 79, 72
2, 304028, Note_on_c, 0, 79, 0
2, 304028, Note_on_c, 0, 83, 0
2, 304128, Note_on_c, 0, 84, 73
2, 304220, Note_on_c, 0, 84, 0
2, 304224, Note_on_c, 0, 79, 73
2, 304316, Note_on_c, 0, 79, 0
2, 304320, Note_on_c, 0, 76, 74
2, 304412, Note_on_c, 0, 76, 0
2, 304416, Note_on_c, 0, 79, 74
2, 304508, Note_on_c, 0, 79, 0
2, 304512, Note_on_c, 0, 84, 74
2, 304604, Note_on_c, 0, 84, 0
2, 304704, Note_on_c, 0, 76, 76
2, 304704, Note_on_c, 0, 72, 76
2, 304796, Note_on_c, 0, 72, 0
2, 304796, Note_on_c, 0, 76, 0
2, 304896, Note_on_c, 0, 77, 76
2, 304896, Note_on_c, 0, 74, 76
2, 304988, Note_on_c, 0, 74, 0
2, 304988, Note_on_c, 0, 77, 0
2, 305088, Note_on_c, 0, 79, 77
2, 305088, Note_on_c, 0, 76, 77
2, 305180, Note_on_c, 0, 76, 0
2, 305180, Note_on_c, 0, 79, 0
2, 305280, Note_on_c, 0, 81, 78
2, 305372, Note_on_c, 0, 81, 0
2, 305376, Note_on_c, 0, 77, 78
2, 305468, Note_on_c, 0, 77, 0
2, 305472, Note_on_c, 0, 74, 78
2, 305564, Note_on_c, 0, 74, 0
2, 305568, Note_on_c, 0, 77, 79
2, 305660, Note_on_c, 0, 77, 0
2, 305664, Note_on_c, 0, 81, 79
2, 305756, Note_on_c, 0, 81, 0
2, 305856, Note_on_c, 0, 74, 79
2, 305856, Note_on_c, 0, 71, 79
2, 305948, Note_on_c, 0, 71, 0
2, 305948, Note_on_c, 0, 74, 0
2, 306048, Note_on_c, 0, 76, 80
2, 306048, Note_on_c, 0, 72, 80
2, 306140, Note_on_c, 0, 72, 0
2, 306140, Note_on_c, 0, 76, 0
2, 306240, Note_on_c, 0, 77, 82
2, 306240, Note_on_c, 0, 74, 82
2, 306332, Note_on_c, 0, 74, 0
2, 306332, Note_on_c, 0, 77, 0
2, 306432, Note_on_c, 0, 79, 82
2, 306524, Note_on_c, 0, 79, 0
2, 306528, Note_on_c, 0, 76, 83
2, 306620, Note_on_c, 0, 76, 0
2, 306624, Note_on_c, 0, 72, 83
2, 306716, Note_on_c, 0, 72, 0
2, 306720, Note_on_c, 0, 76, 83
2, 306812, Note_on_c, 0, 76, 0
2, 306816, Note_on_c, 0, 79, 83
2, 306908, Note_on_c, 0, 79, 0
2, 307008, Note_on_c, 0, 79, 83
2, 307100, Note_on_c, 0, 79, 0
2, 307200, Note_on_c, 0, 81, 83
2, 307292, Note_on_c, 0, 81, 0
2, 307296, Note_on_c, 0, 79, 80
2, 307388, Note_on_c, 0, 79, 0
2, 307392, Note_on_c, 0, 77, 77
2, 307484, Note_on_c, 0, 77, 0
2, 307488, Note_on_c, 0, 76, 73
2, 307580, Note_on_c, 0, 76, 0
2, 307584, Note_on_c, 0, 76, 70
2, 307584, Note_on_c, 0, 72, 70
2, 307964, Note_on_c, 0, 72, 0
2, 307964, Note_on_c, 0, 76, 0
2, 307968, Note_on_c, 0, 74, 70
2, 307968, Note_on_c, 0, 71, 70
2, 308156, Note_on_c, 0, 71, 0
2, 308156, Note_on_c, 0, 74, 0
2, 308160, Note_on_c, 0, 67, 70
2, 308252, Note_on_c, 0, 67, 0
2, 308352, Note_on_c, 0, 67, 70
2, 308444, Note_on_c, 0, 67, 0
2, 308544, Note_on_c, 0, 67, 70
2, 308636, Note_on_c, 0, 67, 0
2, 308736, Note_on_c, 0, 67, 70
2, 309116, Note_on_c, 0, 67, 0
2, 309120, Note_on_c, 0, 67, 70
2, 309308, Note_on_c, 0, 67, 0
2, 309312, Note_on_c, 0, 79, 70
2, 309404, Note_on_c, 0, 79, 0
2, 309504, Note_on_c, 0, 79, 71
2, 309596, Note_on_c, 0, 79, 0
2, 309696, Note_on_c, 0, 79, 72
2, 309788, Note_on_c, 0, 79, 0
2, 309888, Note_on_c, 0, 79, 73
2, 309932, Note_on_c, 0, 79, 0
2, 309936, Note_on_c, 0, 81, 73
2, 309980, Note_on_c, 0, 81, 0
2, 309984, Note_on_c, 0, 79, 74
2, 310028, Note_on_c, 0, 79, 0
2, 310032, Note_on_c, 0, 81, 74
2, 310076, Note_on_c, 0, 81, 0
2, 310080, Note_on_c, 0, 79, 74
2, 310124, Note_on_c, 0, 79, 0
2, 310128, Note_on_c, 0, 81, 76
2, 310172, Note_on_c, 0, 81, 0
2, 310176, Note_on_c, 0, 79, 76
2, 310220, Note_on_c, 0, 79, 0
2, 310224, Note_on_c, 0, 81, 76
2, 310268, Note_on_c, 0, 81, 0
2, 310272, Note_on_c, 0, 79, 77
2, 310316, Note_on_c, 0, 79, 0
2, 310320, Note_on_c, 0, 81, 77
2, 310364, Note_on_c, 0, 81, 0
2, 310368, Note_on_c, 0, 79, 77
2, 310412, Note_on_c, 0, 79, 0
2, 310416, Note_on_c, 0, 81, 78
2, 310460, Note_on_c, 0, 81, 0
2, 310464, Note_on_c, 0, 79, 78
2, 310508, Note_on_c, 0, 79, 0
2, 310512, Note_on_c, 0, 81, 78
2, 310556, Note_on_c, 0, 81, 0
2, 310560, Note_on_c, 0, 79, 79
2, 310592, Note_on_c, 0, 81, 79
2, 310604, Note_on_c, 0, 79, 0
2, 310636, Note_on_c, 0, 81, 0
2, 310656, Note_on_c, 0, 79, 79
2, 310700, Note_on_c, 0, 79, 0
2, 310704, Note_on_c, 0, 81, 80
2, 310748, Note_on_c, 0, 81, 0
2, 310752, Note_on_c, 0, 79, 80
2, 310796, Note_on_c, 0, 79, 0
2, 310800, Note_on_c, 0, 81, 80
2, 310844, Note_on_c, 0, 81, 0
2, 310848, Note_on_c, 0, 79, 82
2, 310892, Note_on_c, 0, 79, 0
2, 310896, Note_on_c, 0, 81, 82
2, 310940, Note_on_c, 0, 81, 0
2, 310944, Note_on_c, 0, 79, 82
2, 310988, Note_on_c, 0, 79, 0
2, 310992, Note_on_c, 0, 81, 82
2, 311036, Note_on_c, 0, 81, 0
2, 311040, Note_on_c, 0, 79, 83
2, 311084, Note_on_c, 0, 79, 0
2, 311088, Note_on_c, 0, 81, 83
2, 311132, Note_on_c, 0, 81, 0
2, 311136, Note_on_c, 0, 79, 83
2, 311180, Note_on_c, 0, 79, 0
2, 311184, Note_on_c, 0, 81, 83
2, 311228, Note_on_c, 0, 81, 0
2, 311232, Note_on_c, 0, 79, 83
2, 311276, Note_on_c, 0, 79, 0
2, 311280, Note_on_c, 0, 81, 83
2, 311324, Note_on_c, 0, 81, 0
2, 311328, Note_on_c, 0, 79, 86
2, 311372, Note_on_c, 0, 79, 0
2, 311376, Note_on_c, 0, 81, 86
2, 311420, Note_on_c, 0, 81, 0
2, 311424, Note_on_c, 0, 79, 86
2, 311468, Note_on_c, 0, 79, 0
2, 311472, Note_on_c, 0, 81, 87
2, 311516, Note_on_c, 0, 81, 0
2, 311520, Note_on_c, 0, 79, 87
2, 311564, Note_on_c, 0, 79, 0
2, 311568, Note_on_c, 0, 81, 87
2, 311612, Note_on_c, 0, 81, 0
2, 311616, Note_on_c, 0, 79, 88
2, 311660, Note_on_c, 0, 79, 0
2, 311664, Note_on_c, 0, 81, 88
2, 311708, Note_on_c, 0, 81, 0
2, 311712, Note_on_c, 0, 79, 88
2, 311756, Note_on_c, 0, 79, 0
2, 311760, Note_on_c, 0, 81, 89
2, 311804, Note_on_c, 0, 81, 0
2, 311808, Note_on_c, 0, 79, 89
2, 311852, Note_on_c, 0, 79, 0
2, 311856, Note_on_c, 0, 81, 89
2, 311900, Note_on_c, 0, 81, 0
2, 311904, Note_on_c, 0, 79, 90
2, 311948, Note_on_c, 0, 79, 0
2, 311952, Note_on_c, 0, 81, 90
2, 311996, Note_on_c, 0, 81, 0
2, 312000, Note_on_c, 0, 79, 90
2, 312032, Note_on_c, 0, 81, 90
2, 312044, Note_on_c, 0, 79, 0
2, 312076, Note_on_c, 0, 81, 0
2, 312096, Note_on_c, 0, 78, 91
2, 312188, Note_on_c, 0, 78, 0
2, 312192, Note_on_c, 0, 79, 91
2, 312572, Note_on_c, 0, 79, 0
2, 312576, Note_on_c, 0, 72, 83
2, 312668, Note_on_c, 0, 72, 0
2, 312672, Note_on_c, 0, 67, 83
2, 312764, Note_on_c, 0, 67, 0
2, 312768, Note_on_c, 0, 64, 83
2, 312860, Note_on_c, 0, 64, 0
2, 312864, Note_on_c, 0, 67, 83
2, 312956, Note_on_c, 0, 67, 0
2, 312960, Note_on_c, 0, 72, 70
2, 313052, Note_on_c, 0, 72, 0
2, 313056, Note_on_c, 0, 67, 70
2, 313148, Note_on_c, 0, 67, 0
2, 313152, Note_on_c, 0, 64, 70
2, 313244, Note_on_c, 0, 64, 0
2, 313248, Note_on_c, 0, 67, 70
2, 313340, Note_on_c, 0, 67, 0
2, 313344, Note_on_c, 0, 72, 71
2, 313532, Note_on_c, 0, 72, 0
2, 313536, Note_on_c, 0, 67, 71
2, 313724, Note_on_c, 0, 67, 0
2, 313728, Note_on_c, 0, 76, 72
2, 313820, Note_on_c, 0, 76, 0
2, 313824, Note_on_c, 0, 72, 72
2, 313916, Note_on_c, 0, 72, 0
2, 313920, Note_on_c, 0, 67, 73
2, 314012, Note_on_c, 0, 67, 0
2, 314016, Note_on_c, 0, 72, 73
2, 314108, Note_on_c, 0, 72, 0
2, 314112, Note_on_c, 0, 76, 74
2, 314204, Note_on_c, 0, 76, 0
2, 314208, Note_on_c, 0, 72, 74
2, 314300, Note_on_c, 0, 72, 0
2, 314304, Note_on_c, 0, 67, 74
2, 314396, Note_on_c, 0, 67, 0
2, 314400, Note_on_c, 0, 72, 76
2, 314492, Note_on_c, 0, 72, 0
2, 314496, Note_on_c, 0, 76, 76
2, 314684, Note_on_c, 0, 76, 0
2, 314688, Note_on_c, 0, 72, 77
2, 314876, Note_on_c, 0, 72, 0
2, 314880, Note_on_c, 0, 79, 78
2, 314972, Note_on_c, 0, 79, 0
2, 314976, Note_on_c, 0, 76, 78
2, 315068, Note_on_c, 0, 76, 0
2, 315072, Note_on_c, 0, 72, 78
2, 315164, Note_on_c, 0, 72, 0
2, 315168, Note_on_c, 0, 76, 79
2, 315260, Note_on_c, 0, 76, 0
2, 315264, Note_on_c, 0, 79, 79
2, 315356, Note_on_c, 0, 79, 0
2, 315360, Note_on_c, 0, 76, 79
2, 315452, Note_on_c, 0, 76, 0
2, 315456, Note_on_c, 0, 72, 80
2, 315548, Note_on_c, 0, 72, 0
2, 315552, Note_on_c, 0, 76, 80
2, 315644, Note_on_c, 0, 76, 0
2, 315648, Note_on_c, 0, 79, 82
2, 315740, Note_on_c, 0, 79, 0
2, 315744, Note_on_c, 0, 76, 82
2, 315836, Note_on_c, 0, 76, 0
2, 315840, Note_on_c, 0, 72, 82
2, 315932, Note_on_c, 0, 72, 0
2, 315936, Note_on_c, 0, 67, 83
2, 316028, Note_on_c, 0, 67, 0
2, 316032, Note_on_c, 0, 76, 83
2, 316412, Note_on_c, 0, 76, 0
2, 316416, Note_on_c, 0, 74, 83
2, 316460, Note_on_c, 0, 74, 0
2, 316464, Note_on_c, 0, 76, 83
2, 316508, Note_on_c, 0, 76, 0
2, 316512, Note_on_c, 0, 74, 80
2, 316556, Note_on_c, 0, 74, 0
2, 316560, Note_on_c, 0, 76, 79
2, 316604, Note_on_c, 0, 76, 0
2, 316608, Note_on_c, 0, 74, 77
2, 316652, Note_on_c, 0, 74, 0
2, 316656, Note_on_c, 0, 76, 76
2, 316700, Note_on_c, 0, 76, 0
2, 316704, Note_on_c, 0, 72, 73
2, 316748, Note_on_c, 0, 72, 0
2, 316752, Note_on_c, 0, 74, 72
2, 316796, Note_on_c, 0, 74, 0
2, 316800, Note_on_c, 0, 72, 70
2, 317180, Note_on_c, 0, 72, 0
2, 319104, Note_on_c, 0, 64, 73
2, 319292, Note_on_c, 0, 64, 0
2, 319296, Note_on_c, 0, 60, 74
2, 319484, Note_on_c, 0, 60, 0
2, 319488, Note_on_c, 0, 67, 77
2, 319580, Note_on_c, 0, 67, 0
2, 319584, Note_on_c, 0, 64, 77
2, 319676, Note_on_c, 0, 64, 0
2, 319680, Note_on_c, 0, 60, 78
2, 319772, Note_on_c, 0, 60, 0
2, 319776, Note_on_c, 0, 64, 79
2, 319868, Note_on_c, 0, 64, 0
2, 319872, Note_on_c, 0, 67, 79
2, 319964, Note_on_c, 0, 67, 0
2, 319968, Note_on_c, 0, 64, 80
2, 320060, Note_on_c, 0, 64, 0
2, 320064, Note_on_c, 0, 60, 82
2, 320156, Note_on_c, 0, 60, 0
2, 320160, Note_on_c, 0, 64, 82
2, 320252, Note_on_c, 0, 64, 0
2, 320256, Note_on_c, 0, 67, 83
2, 320348, Note_on_c, 0, 67, 0
2, 320352, Note_on_c, 0, 64, 83
2, 320444, Note_on_c, 0, 64, 0
2, 320448, Note_on_c, 0, 60, 83
2, 320540, Note_on_c, 0, 60, 0
2, 320544, Note_on_c, 0, 55, 86
2, 320636, Note_on_c, 0, 55, 0
2, 320640, Note_on_c, 0, 64, 86
2, 321020, Note_on_c, 0, 64, 0
2, 321024, Note_on_c, 0, 62, 89
2, 321056, Note_on_c, 0, 64, 89
2, 321068, Note_on_c, 0, 62, 0
2, 321100, Note_on_c, 0, 64, 0
2, 321120, Note_on_c, 0, 62, 90
2, 321164, Note_on_c, 0, 62, 0
2, 321168, Note_on_c, 0, 64, 90
2, 321212, Note_on_c, 0, 64, 0
2, 321216, Note_on_c, 0, 62, 90
2, 321260, Note_on_c, 0, 62, 0
2, 321264, Note_on_c, 0, 64, 91
2, 321308, Note_on_c, 0, 64, 0
2, 321312, Note_on_c, 0, 60, 91
2, 321356, Note_on_c, 0, 60, 0
2, 321360, Note_on_c, 0, 62, 91
2, 321404, Note_on_c, 0, 62, 0
2, 321504, Note_on_c, 0, 60, 91
2, 321596, Note_on_c, 0, 60, 0
2, 321600, Note_on_c, 0, 64, 91
2, 321692, Note_on_c, 0, 64, 0
2, 321696, Note_on_c, 0, 67, 93
2, 321788, Note_on_c, 0, 67, 0
2, 321792, Note_on_c, 0, 72, 93
2, 321884, Note_on_c, 0, 72, 0
2, 321888, Note_on_c, 0, 64, 93
2, 321980, Note_on_c, 0, 64, 0
2, 321984, Note_on_c, 0, 67, 94
2, 322076, Note_on_c, 0, 67, 0
2, 322080, Note_on_c, 0, 72, 94
2, 322172, Note_on_c, 0, 72, 0
2, 322176, Note_on_c, 0, 76, 95
2, 322268, Note_on_c, 0, 76, 0
2, 322272, Note_on_c, 0, 67, 95
2, 322364, Note_on_c, 0, 67, 0
2, 322368, Note_on_c, 0, 72, 95
2, 322460, Note_on_c, 0, 72, 0
2, 322464, Note_on_c, 0, 76, 96
2, 322556, Note_on_c, 0, 76, 0
2, 322560, Note_on_c, 0, 79, 96
2, 322652, Note_on_c, 0, 79, 0
2, 322656, Note_on_c, 0, 72, 96
2, 322748, Note_on_c, 0, 72, 0
2, 322752, Note_on_c, 0, 76, 97
2, 322844, Note_on_c, 0, 76, 0
2, 322848, Note_on_c, 0, 81, 97
2, 322940, Note_on_c, 0, 81, 0
2, 322944, Note_on_c, 0, 84, 98
2, 323036, Note_on_c, 0, 84, 0
2, 323040, Note_on_c, 0, 83, 98
2, 323132, Note_on_c, 0, 83, 0
2, 323136, Note_on_c, 0, 81, 98
2, 323228, Note_on_c, 0, 81, 0
2, 323232, Note_on_c, 0, 79, 98
2, 323324, Note_on_c, 0, 79, 0
2, 323328, Note_on_c, 0, 77, 98
2, 323420, Note_on_c, 0, 77, 0
2, 323424, Note_on_c, 0, 76, 98
2, 323516, Note_on_c, 0, 76, 0
2, 323520, Note_on_c, 0, 74, 98
2, 323612, Note_on_c, 0, 74, 0
2, 323616, Note_on_c, 0, 72, 98
2, 323708, Note_on_c, 0, 72, 0
2, 323712, Note_on_c, 0, 79, 98
2, 323996, Note_on_c, 0, 79, 0
2, 324000, Note_on_c, 0, 81, 98
2, 324092, Note_on_c, 0, 81, 0
2, 324096, Note_on_c, 0, 72, 98
2, 324476, Note_on_c, 0, 72, 0
2, 324480, Note_on_c, 0, 71, 95
2, 324524, Note_on_c, 0, 71, 0
2, 324528, Note_on_c, 0, 72, 95
2, 324572, Note_on_c, 0, 72, 0
2, 324576, Note_on_c, 0, 71, 95
2, 324620, Note_on_c, 0, 71, 0
2, 324624, Note_on_c, 0, 72, 94
2, 324668, Note_on_c, 0, 72, 0
2, 324672, Note_on_c, 0, 69, 94
2, 324764, Note_on_c, 0, 69, 0
2, 324768, Note_on_c, 0, 71, 93
2, 324860, Note_on_c, 0, 71, 0
2, 324960, Note_on_c, 0, 60, 91
2, 325052, Note_on_c, 0, 60, 0
2, 325056, Note_on_c, 0, 64, 91
2, 325148, Note_on_c, 0, 64, 0
2, 325152, Note_on_c, 0, 67, 91
2, 325244, Note_on_c, 0, 67, 0
2, 325248, Note_on_c, 0, 72, 91
2, 325340, Note_on_c, 0, 72, 0
2, 325344, Note_on_c, 0, 64, 91
2, 325436, Note_on_c, 0, 64, 0
2, 325440, Note_on_c, 0, 67, 91
2, 325532, Note_on_c, 0, 67, 0
2, 325536, Note_on_c, 0, 72, 91
2, 325628, Note_on_c, 0, 72, 0
2, 325632, Note_on_c, 0, 76, 91
2, 325724, Note_on_c, 0, 76, 0
2, 325728, Note_on_c, 0, 67, 91
2, 325820, Note_on_c, 0, 67, 0
2, 325824, Note_on_c, 0, 72, 91
2, 325916, Note_on_c, 0, 72, 0
2, 325920, Note_on_c, 0, 76, 91
2, 326012, Note_on_c, 0, 76, 0
2, 326016, Note_on_c, 0, 79, 91
2, 326108, Note_on_c, 0, 79, 0
2, 326112, Note_on_c, 0, 72, 91
2, 326204, Note_on_c, 0, 72, 0
2, 326208, Note_on_c, 0, 76, 91
2, 326300, Note_on_c, 0, 76, 0
2, 326304, Note_on_c, 0, 79, 91
2, 326396, Note_on_c, 0, 79, 0
2, 326400, Note_on_c, 0, 84, 91
2, 326492, Note_on_c, 0, 84, 0
2, 326496, Note_on_c, 0, 83, 91
2, 326588, Note_on_c, 0, 83, 0
2, 326592, Note_on_c, 0, 81, 91
2, 326684, Note_on_c, 0, 81, 0
2, 326688, Note_on_c, 0, 79, 91
2, 326780, Note_on_c, 0, 79, 0
2, 326784, Note_on_c, 0, 77, 91
2, 326876, Note_on_c, 0, 77, 0
2, 326880, Note_on_c, 0, 76, 91
2, 326972, Note_on_c, 0, 76, 0
2, 326976, Note_on_c, 0, 74, 91
2, 327068, Note_on_c, 0, 74, 0
2, 327072, Note_on_c, 0, 72, 91
2, 327164, Note_on_c, 0, 72, 0
2, 327168, Note_on_c, 0, 79, 91
2, 327452, Note_on_c, 0, 79, 0
2, 327456, Note_on_c, 0, 81, 87
2, 327548, Note_on_c, 0, 81, 0
2, 327552, Note_on_c, 0, 72, 83
2, 327932, Note_on_c, 0, 72, 0
2, 327936, Note_on_c, 0, 71, 77
2, 327980, Note_on_c, 0, 71, 0
2, 327984, Note_on_c, 0, 72, 77
2, 328028, Note_on_c, 0, 72, 0
2, 328032, Note_on_c, 0, 71, 76
2, 328076, Note_on_c, 0, 71, 0
2, 328080, Note_on_c, 0, 72, 74
2, 328124, Note_on_c, 0, 72, 0
2, 328128, Note_on_c, 0, 69, 73
2, 328220, Note_on_c, 0, 69, 0
2, 328224, Note_on_c, 0, 71, 72
2, 328316, Note_on_c, 0, 71, 0
2, 328320, Note_on_c, 0, 72, 70
2, 328700, Note_on_c, 0, 72, 0
2, 330624, Note_on_c, 0, 79, 91
2, 330668, Note_on_c, 0, 79, 0
2, 330672, Note_on_c, 0, 81, 70
2, 330716, Note_on_c, 0, 81, 0
2, 330720, Note_on_c, 0, 79, 70
2, 330764, Note_on_c, 0, 79, 0
2, 330768, Note_on_c, 0, 81, 70
2, 330812, Note_on_c, 0, 81, 0
2, 330816, Note_on_c, 0, 79, 70
2, 330860, Note_on_c, 0, 79, 0
2, 330864, Note_on_c, 0, 81, 70
2, 330908, Note_on_c, 0, 81, 0
2, 330912, Note_on_c, 0, 79, 70
2, 330956, Note_on_c, 0, 79, 0
2, 330960, Note_on_c, 0, 81, 70
2, 331004, Note_on_c, 0, 81, 0
2, 331296, Note_on_c, 0, 81, 70
2, 331340, Note_on_c, 0, 81, 0
2, 331392, Note_on_c, 0, 77, 70
2, 331580, Note_on_c, 0, 77, 0
2, 331776, Note_on_c, 0, 76, 70
2, 332156, Note_on_c, 0, 76, 0
2, 332544, Note_on_c, 0, 72, 70
2, 332924, Note_on_c, 0, 72, 0
2, 332928, Note_on_c, 0, 73, 71
2, 333116, Note_on_c, 0, 73, 0
2, 333120, Note_on_c, 0, 74, 72
2, 333308, Note_on_c, 0, 74, 0
2, 333312, Note_on_c, 0, 76, 74
2, 333500, Note_on_c, 0, 76, 0
2, 333504, Note_on_c, 0, 74, 77
2, 333692, Note_on_c, 0, 74, 0
2, 333696, Note_on_c, 0, 77, 79
2, 333884, Note_on_c, 0, 77, 0
2, 333888, Note_on_c, 0, 74, 82
2, 334076, Note_on_c, 0, 74, 0
2, 334080, Note_on_c, 0, 72, 83
2, 334268, Note_on_c, 0, 72, 0
2, 334272, Note_on_c, 0, 71, 82
2, 334460, Note_on_c, 0, 71, 0
2, 334464, Note_on_c, 0, 69, 79
2, 334652, Note_on_c, 0, 69, 0
2, 334656, Note_on_c, 0, 67, 77
2, 334844, Note_on_c, 0, 67, 0
2, 334848, Note_on_c, 0, 79, 74
2, 335228, Note_on_c, 0, 79, 0
2, 335232, Note_on_c, 0, 79, 70
2, 335276, Note_on_c, 0, 79, 0
2, 335280, Note_on_c, 0, 81, 70
2, 335324, Note_on_c, 0, 81, 0
2, 335328, Note_on_c, 0, 79, 70
2, 335372, Note_on_c, 0, 79, 0
2, 335376, Note_on_c, 0, 81, 70
2, 335420, Note_on_c, 0, 81, 0
2, 335424, Note_on_c, 0, 79, 70
2, 335468, Note_on_c, 0, 79, 0
2, 335472, Note_on_c, 0, 81, 70
2, 335516, Note_on_c, 0, 81, 0
2, 335520, Note_on_c, 0, 79, 70
2, 335564, Note_on_c, 0, 79, 0
2, 335568, Note_on_c, 0, 81, 70
2, 335612, Note_on_c, 0, 81, 0
2, 335904, Note_on_c, 0, 81, 70
2, 335948, Note_on_c, 0, 81, 0
2, 336000, Note_on_c, 0, 77, 70
2, 336188, Note_on_c, 0, 77, 0
2, 336384, Note_on_c, 0, 76, 70
2, 336764, Note_on_c, 0, 76, 0
2, 337152, Note_on_c, 0, 72, 70
2, 337532, Note_on_c, 0, 72, 0
2, 337536, Note_on_c, 0, 74, 71
2, 337660, Note_on_c, 0, 74, 0
2, 337664, Note_on_c, 0, 77, 72
2, 337788, Note_on_c, 0, 77, 0
2, 337792, Note_on_c, 0, 81, 73
2, 337916, Note_on_c, 0, 81, 0
2, 337920, Note_on_c, 0, 72, 74
2, 338300, Note_on_c, 0, 72, 0
2, 338304, Note_on_c, 0, 71, 74
2, 338348, Note_on_c, 0, 71, 0
2, 338352, Note_on_c, 0, 72, 74
2, 338396, Note_on_c, 0, 72, 0
2, 338400, Note_on_c, 0, 71, 73
2, 338432, Note_on_c, 0, 72, 73
2, 338444, Note_on_c, 0, 71, 0
2, 338476, Note_on_c, 0, 72, 0
2, 338496, Note_on_c, 0, 69, 72
2, 338588, Note_on_c, 0, 69, 0
2, 338592, Note_on_c, 0, 71, 71
2, 338684, Note_on_c, 0, 71, 0
2, 338688, Note_on_c, 0, 72, 70
2, 339068, Note_on_c, 0, 72, 0
2, 339068, End_track
3, 0, Start_track
3, 0, Title_t, "K246 - #8 - c"
3, 0, Control_c, 0, 0, 0
3, 0, Control_c, 0, 7, 115
3, 0, Control_c, 0, 10, 44
3, 0, Control_c, 0, 91, 40
3, 0, Control_c, 0, 93, 34
3, 0, Control_c, 0, 121, 0
3, 0, Control_c, 0, 32, 0
3, 1, Program_c, 0, 0
3, 96, Control_c, 0, 10, 83
3, 192, Control_c, 0, 91, 63
3, 240, Control_c, 0, 93, 40
3, 288, Program_c, 0, 0
3, 2304, Note_on_c, 0, 64, 70
3, 2304, Note_on_c, 0, 60, 70
3, 2492, Note_on_c, 0, 60, 0
3, 2492, Note_on_c, 0, 64, 0
3, 3072, Note_on_c, 0, 62, 70
3, 3072, Note_on_c, 0, 55, 70
3, 3260, Note_on_c, 0, 55, 0
3, 3260, Note_on_c, 0, 62, 0
3, 3456, Note_on_c, 0, 60, 70
3, 3456, Note_on_c, 0, 57, 70
3, 3644, Note_on_c, 0, 57, 0
3, 3644, Note_on_c, 0, 60, 0
3, 4608, Note_on_c, 0, 62, 70
3, 4608, Note_on_c, 0, 57, 70
3, 4608, Note_on_c, 0, 53, 70
3, 4796, Note_on_c, 0, 53, 0
3, 4796, Note_on_c, 0, 57, 0
3, 4796, Note_on_c, 0, 62, 0
3, 5760, Note_on_c, 0, 65, 70
3, 5760, Note_on_c, 0, 62, 70
3, 5760, Note_on_c, 0, 55, 70
3, 5948, Note_on_c, 0, 55, 0
3, 5948, Note_on_c, 0, 62, 0
3, 5948, Note_on_c, 0, 65, 0
3, 6912, Note_on_c, 0, 64, 70
3, 6912, Note_on_c, 0, 60, 70
3, 7100, Note_on_c, 0, 60, 0
3, 7100, Note_on_c, 0, 64, 0
3, 7680, Note_on_c, 0, 62, 70
3, 7680, Note_on_c, 0, 56, 70
3, 8060, Note_on_c, 0, 56, 0
3, 8060, Note_on_c, 0, 62, 0
3, 8064, Note_on_c, 0, 60, 70
3, 8064, Note_on_c, 0, 57, 70
3, 8444, Note_on_c, 0, 57, 0
3, 8444, Note_on_c, 0, 60, 0
3, 9216, Note_on_c, 0, 62, 70
3, 9216, Note_on_c, 0, 53, 70
3, 9404, Note_on_c, 0, 53, 0
3, 9404, Note_on_c, 0, 62, 0
3, 9600, Note_on_c, 0, 64, 70
3, 9600, Note_on_c, 0, 55, 70
3, 9980, Note_on_c, 0, 64, 0
3, 9984, Note_on_c, 0, 65, 70
3, 10364, Note_on_c, 0, 65, 0
3, 10364, Note_on_c, 0, 55, 0
3, 10368, Note_on_c, 0, 60, 70
3, 10368, Note_on_c, 0, 64, 70
3, 10748, Note_on_c, 0, 64, 0
3, 10748, Note_on_c, 0, 60, 0
3, 10752, Note_on_c, 0, 48, 70
3, 11132, Note_on_c, 0, 48, 0
3, 34944, Note_on_c, 0, 67, 79
3, 34944, Note_on_c, 0, 60, 79
3, 35132, Note_on_c, 0, 60, 0
3, 35132, Note_on_c, 0, 67, 0
3, 35328, Note_on_c, 0, 67, 74
3, 35328, Note_on_c, 0, 60, 74
3, 35516, Note_on_c, 0, 60, 0
3, 35516, Note_on_c, 0, 67, 0
3, 35712, Note_on_c, 0, 67, 71
3, 35712, Note_on_c, 0, 59, 71
3, 36092, Note_on_c, 0, 59, 0
3, 36092, Note_on_c, 0, 67, 0
3, 37248, Note_on_c, 0, 67, 79
3, 37248, Note_on_c, 0, 59, 79
3, 37436, Note_on_c, 0, 59, 0
3, 37436, Note_on_c, 0, 67, 0
3, 37632, Note_on_c, 0, 67, 74
3, 37632, Note_on_c, 0, 59, 74
3, 37820, Note_on_c, 0, 59, 0
3, 37820, Note_on_c, 0, 67, 0
3, 38016, Note_on_c, 0, 62, 71
3, 38016, Note_on_c, 0, 60, 71
3, 38016, Note_on_c, 0, 57, 71
3, 38396, Note_on_c, 0, 57, 0
3, 38396, Note_on_c, 0, 60, 0
3, 38396, Note_on_c, 0, 62, 0
3, 39552, Note_on_c, 0, 60, 79
3, 39552, Note_on_c, 0, 57, 79
3, 39552, Note_on_c, 0, 50, 79
3, 39740, Note_on_c, 0, 50, 0
3, 39740, Note_on_c, 0, 57, 0
3, 39740, Note_on_c, 0, 60, 0
3, 39936, Note_on_c, 0, 60, 74
3, 39936, Note_on_c, 0, 57, 74
3, 39936, Note_on_c, 0, 50, 74
3, 40124, Note_on_c, 0, 50, 0
3, 40124, Note_on_c, 0, 57, 0
3, 40124, Note_on_c, 0, 60, 0
3, 40704, Note_on_c, 0, 58, 79
3, 40704, Note_on_c, 0, 52, 79
3, 40704, Note_on_c, 0, 55, 79
3, 40892, Note_on_c, 0, 55, 0
3, 40892, Note_on_c, 0, 52, 0
3, 40892, Note_on_c, 0, 58, 0
3, 41088, Note_on_c, 0, 57, 74
3, 41088, Note_on_c, 0, 55, 74
3, 41088, Note_on_c, 0, 52, 74
3, 41276, Note_on_c, 0, 52, 0
3, 41276, Note_on_c, 0, 55, 0
3, 41276, Note_on_c, 0, 57, 0
3, 41856, Note_on_c, 0, 62, 77
3, 41856, Note_on_c, 0, 54, 77
3, 42044, Note_on_c, 0, 54, 0
3, 42044, Note_on_c, 0, 62, 0
3, 42240, Note_on_c, 0, 62, 83
3, 42240, Note_on_c, 0, 55, 83
3, 42428, Note_on_c, 0, 55, 0
3, 42428, Note_on_c, 0, 62, 0
3, 42624, Note_on_c, 0, 54, 91
3, 42624, Note_on_c, 0, 50, 91
3, 43004, Note_on_c, 0, 50, 0
3, 43004, Note_on_c, 0, 54, 0
3, 46080, Note_on_c, 0, 62, 70
3, 46364, Note_on_c, 0, 62, 0
3, 46368, Note_on_c, 0, 59, 70
3, 46460, Note_on_c, 0, 59, 0
3, 46464, Note_on_c, 0, 67, 70
3, 47228, Note_on_c, 0, 67, 0
3, 47232, Note_on_c, 0, 64, 70
3, 47516, Note_on_c, 0, 64, 0
3, 47520, Note_on_c, 0, 60, 70
3, 47612, Note_on_c, 0, 60, 0
3, 47616, Note_on_c, 0, 67, 70
3, 48380, Note_on_c, 0, 67, 0
3, 48384, Note_on_c, 0, 62, 70
3, 48668, Note_on_c, 0, 62, 0
3, 48672, Note_on_c, 0, 59, 70
3, 48764, Note_on_c, 0, 59, 0
3, 48768, Note_on_c, 0, 64, 70
3, 49052, Note_on_c, 0, 64, 0
3, 49056, Note_on_c, 0, 60, 70
3, 49148, Note_on_c, 0, 60, 0
3, 49152, Note_on_c, 0, 57, 70
3, 49436, Note_on_c, 0, 57, 0
3, 49440, Note_on_c, 0, 55, 70
3, 49532, Note_on_c, 0, 55, 0
3, 49536, Note_on_c, 0, 54, 70
3, 49820, Note_on_c, 0, 54, 0
3, 49824, Note_on_c, 0, 50, 70
3, 49916, Note_on_c, 0, 50, 0
3, 49920, Note_on_c, 0, 60, 70
3, 50492, Note_on_c, 0, 60, 0
3, 50496, Note_on_c, 0, 57, 70
3, 50684, Note_on_c, 0, 57, 0
3, 52992, Note_on_c, 0, 47, 90
3, 53276, Note_on_c, 0, 47, 0
3, 53280, Note_on_c, 0, 48, 87
3, 53372, Note_on_c, 0, 48, 0
3, 53376, Note_on_c, 0, 50, 86
3, 53756, Note_on_c, 0, 50, 0
3, 53760, Note_on_c, 0, 50, 80
3, 54140, Note_on_c, 0, 50, 0
3, 54144, Note_on_c, 0, 55, 76
3, 54332, Note_on_c, 0, 55, 0
3, 54528, Note_on_c, 0, 43, 70
3, 54716, Note_on_c, 0, 43, 0
3, 55296, Note_on_c, 0, 55, 70
3, 55676, Note_on_c, 0, 55, 0
3, 56448, Note_on_c, 0, 50, 70
3, 56828, Note_on_c, 0, 50, 0
3, 57600, Note_on_c, 0, 50, 70
3, 57980, Note_on_c, 0, 50, 0
3, 58752, Note_on_c, 0, 43, 70
3, 59132, Note_on_c, 0, 43, 0
3, 59904, Note_on_c, 0, 55, 72
3, 60284, Note_on_c, 0, 55, 0
3, 61056, Note_on_c, 0, 48, 76
3, 61436, Note_on_c, 0, 48, 0
3, 62208, Note_on_c, 0, 47, 79
3, 62588, Note_on_c, 0, 47, 0
3, 62784, Note_on_c, 0, 59, 82
3, 62876, Note_on_c, 0, 59, 0
3, 62976, Note_on_c, 0, 60, 82
3, 63068, Note_on_c, 0, 60, 0
3, 63168, Note_on_c, 0, 64, 83
3, 63260, Note_on_c, 0, 64, 0
3, 63360, Note_on_c, 0, 62, 83
3, 63548, Note_on_c, 0, 62, 0
3, 63744, Note_on_c, 0, 50, 83
3, 63932, Note_on_c, 0, 50, 0
3, 64512, Note_on_c, 0, 55, 70
3, 64700, Note_on_c, 0, 55, 0
3, 65664, Note_on_c, 0, 62, 70
3, 66044, Note_on_c, 0, 62, 0
3, 66816, Note_on_c, 0, 50, 70
3, 67196, Note_on_c, 0, 50, 0
3, 67968, Note_on_c, 0, 55, 70
3, 68348, Note_on_c, 0, 55, 0
3, 69120, Note_on_c, 0, 59, 91
3, 69120, Note_on_c, 0, 55, 91
3, 69500, Note_on_c, 0, 55, 0
3, 69500, Note_on_c, 0, 59, 0
3, 70272, Note_on_c, 0, 62, 91
3, 70272, Note_on_c, 0, 59, 91
3, 70272, Note_on_c, 0, 55, 91
3, 70652, Note_on_c, 0, 55, 0
3, 70652, Note_on_c, 0, 59, 0
3, 70652, Note_on_c, 0, 62, 0
3, 73728, Note_on_c, 0, 47, 70
3, 73728, Note_on_c, 0, 43, 70
3, 74108, Note_on_c, 0, 43, 0
3, 74108, Note_on_c, 0, 47, 0
3, 74880, Note_on_c, 0, 50, 72
3, 74880, Note_on_c, 0, 47, 72
3, 74880, Note_on_c, 0, 43, 72
3, 75260, Note_on_c, 0, 43, 0
3, 75260, Note_on_c, 0, 47, 0
3, 75260, Note_on_c, 0, 50, 0
3, 77184, Note_on_c, 0, 55, 70
3, 77372, Note_on_c, 0, 55, 0
3, 77376, Note_on_c, 0, 59, 70
3, 77564, Note_on_c, 0, 59, 0
3, 77568, Note_on_c, 0, 62, 70
3, 77756, Note_on_c, 0, 62, 0
3, 77760, Note_on_c, 0, 59, 70
3, 77948, Note_on_c, 0, 59, 0
3, 77952, Note_on_c, 0, 62, 70
3, 78140, Note_on_c, 0, 62, 0
3, 78144, Note_on_c, 0, 59, 70
3, 78332, Note_on_c, 0, 59, 0
3, 78336, Note_on_c, 0, 55, 70
3, 78524, Note_on_c, 0, 55, 0
3, 78528, Note_on_c, 0, 59, 70
3, 78716, Note_on_c, 0, 59, 0
3, 78720, Note_on_c, 0, 62, 70
3, 78908, Note_on_c, 0, 62, 0
3, 78912, Note_on_c, 0, 59, 70
3, 79100, Note_on_c, 0, 59, 0
3, 79104, Note_on_c, 0, 62, 71
3, 79292, Note_on_c, 0, 62, 0
3, 79296, Note_on_c, 0, 59, 72
3, 79484, Note_on_c, 0, 59, 0
3, 79488, Note_on_c, 0, 55, 73
3, 79676, Note_on_c, 0, 55, 0
3, 79680, Note_on_c, 0, 60, 76
3, 79868, Note_on_c, 0, 60, 0
3, 79872, Note_on_c, 0, 64, 77
3, 80060, Note_on_c, 0, 64, 0
3, 80064, Note_on_c, 0, 60, 78
3, 80252, Note_on_c, 0, 60, 0
3, 80256, Note_on_c, 0, 64, 80
3, 80444, Note_on_c, 0, 64, 0
3, 80448, Note_on_c, 0, 60, 82
3, 80636, Note_on_c, 0, 60, 0
3, 80640, Note_on_c, 0, 55, 83
3, 80828, Note_on_c, 0, 55, 0
3, 80832, Note_on_c, 0, 57, 82
3, 81020, Note_on_c, 0, 57, 0
3, 81024, Note_on_c, 0, 60, 79
3, 81212, Note_on_c, 0, 60, 0
3, 81216, Note_on_c, 0, 57, 77
3, 81404, Note_on_c, 0, 57, 0
3, 81408, Note_on_c, 0, 60, 74
3, 81596, Note_on_c, 0, 60, 0
3, 81600, Note_on_c, 0, 57, 72
3, 81788, Note_on_c, 0, 57, 0
3, 81792, Note_on_c, 0, 55, 70
3, 81980, Note_on_c, 0, 55, 0
3, 81984, Note_on_c, 0, 59, 70
3, 82172, Note_on_c, 0, 59, 0
3, 82176, Note_on_c, 0, 62, 70
3, 82364, Note_on_c, 0, 62, 0
3, 82368, Note_on_c, 0, 59, 70
3, 82556, Note_on_c, 0, 59, 0
3, 82560, Note_on_c, 0, 62, 70
3, 82748, Note_on_c, 0, 62, 0
3, 82752, Note_on_c, 0, 59, 70
3, 82940, Note_on_c, 0, 59, 0
3, 82944, Note_on_c, 0, 55, 70
3, 83132, Note_on_c, 0, 55, 0
3, 83136, Note_on_c, 0, 59, 70
3, 83324, Note_on_c, 0, 59, 0
3, 83328, Note_on_c, 0, 62, 70
3, 83516, Note_on_c, 0, 62, 0
3, 83520, Note_on_c, 0, 59, 70
3, 83708, Note_on_c, 0, 59, 0
3, 83712, Note_on_c, 0, 62, 70
3, 83900, Note_on_c, 0, 62, 0
3, 83904, Note_on_c, 0, 59, 70
3, 84092, Note_on_c, 0, 59, 0
3, 84096, Note_on_c, 0, 55, 71
3, 84284, Note_on_c, 0, 55, 0
3, 84288, Note_on_c, 0, 60, 71
3, 84476, Note_on_c, 0, 60, 0
3, 84480, Note_on_c, 0, 64, 72
3, 84668, Note_on_c, 0, 64, 0
3, 84672, Note_on_c, 0, 60, 72
3, 84860, Note_on_c, 0, 60, 0
3, 84864, Note_on_c, 0, 64, 73
3, 85052, Note_on_c, 0, 64, 0
3, 85056, Note_on_c, 0, 60, 74
3, 85244, Note_on_c, 0, 60, 0
3, 85248, Note_on_c, 0, 55, 74
3, 85436, Note_on_c, 0, 55, 0
3, 85440, Note_on_c, 0, 60, 76
3, 85628, Note_on_c, 0, 60, 0
3, 85632, Note_on_c, 0, 63, 76
3, 85820, Note_on_c, 0, 63, 0
3, 85824, Note_on_c, 0, 60, 77
3, 86012, Note_on_c, 0, 60, 0
3, 86016, Note_on_c, 0, 63, 78
3, 86204, Note_on_c, 0, 63, 0
3, 86208, Note_on_c, 0, 60, 78
3, 86396, Note_on_c, 0, 60, 0
3, 86400, Note_on_c, 0, 66, 87
3, 86400, Note_on_c, 0, 57, 87
3, 86400, Note_on_c, 0, 55, 87
3, 87548, Note_on_c, 0, 55, 0
3, 87548, Note_on_c, 0, 57, 0
3, 87548, Note_on_c, 0, 66, 0
3, 88896, Note_on_c, 0, 62, 71
3, 88896, Note_on_c, 0, 59, 71
3, 88896, Note_on_c, 0, 55, 71
3, 88988, Note_on_c, 0, 55, 0
3, 88988, Note_on_c, 0, 59, 0
3, 88988, Note_on_c, 0, 62, 0
3, 89088, Note_on_c, 0, 62, 70
3, 89088, Note_on_c, 0, 59, 70
3, 89088, Note_on_c, 0, 55, 70
3, 89276, Note_on_c, 0, 55, 0
3, 89276, Note_on_c, 0, 59, 0
3, 89276, Note_on_c, 0, 62, 0
3, 90048, Note_on_c, 0, 62, 70
3, 90048, Note_on_c, 0, 59, 70
3, 90048, Note_on_c, 0, 55, 70
3, 90140, Note_on_c, 0, 55, 0
3, 90140, Note_on_c, 0, 59, 0
3, 90140, Note_on_c, 0, 62, 0
3, 90240, Note_on_c, 0, 62, 70
3, 90240, Note_on_c, 0, 59, 70
3, 90240, Note_on_c, 0, 55, 70
3, 90428, Note_on_c, 0, 55, 0
3, 90428, Note_on_c, 0, 59, 0
3, 90428, Note_on_c, 0, 62, 0
3, 92736, Note_on_c, 0, 43, 87
3, 92736, Note_on_c, 0, 31, 87
3, 92828, Note_on_c, 0, 31, 0
3, 92828, Note_on_c, 0, 43, 0
3, 92928, Note_on_c, 0, 47, 88
3, 92928, Note_on_c, 0, 35, 88
3, 93020, Note_on_c, 0, 35, 0
3, 93020, Note_on_c, 0, 47, 0
3, 93120, Note_on_c, 0, 50, 89
3, 93120, Note_on_c, 0, 38, 89
3, 93212, Note_on_c, 0, 38, 0
3, 93212, Note_on_c, 0, 50, 0
3, 93312, Note_on_c, 0, 53, 91
3, 93312, Note_on_c, 0, 41, 91
3, 93692, Note_on_c, 0, 41, 0
3, 93692, Note_on_c, 0, 53, 0
3, 97920, Note_on_c, 0, 60, 70
3, 97920, Note_on_c, 0, 64, 70
3, 98300, Note_on_c, 0, 64, 0
3, 98300, Note_on_c, 0, 60, 0
3, 99072, Note_on_c, 0, 60, 70
3, 99072, Note_on_c, 0, 57, 70
3, 99260, Note_on_c, 0, 57, 0
3, 99260, Note_on_c, 0, 60, 0
3, 100224, Note_on_c, 0, 62, 70
3, 100224, Note_on_c, 0, 57, 70
3, 100224, Note_on_c, 0, 53, 70
3, 100412, Note_on_c, 0, 53, 0
3, 100412, Note_on_c, 0, 57, 0
3, 100412, Note_on_c, 0, 62, 0
3, 101376, Note_on_c, 0, 65, 70
3, 101376, Note_on_c, 0, 62, 70
3, 101376, Note_on_c, 0, 55, 70
3, 101564, Note_on_c, 0, 55, 0
3, 101564, Note_on_c, 0, 62, 0
3, 101564, Note_on_c, 0, 65, 0
3, 102528, Note_on_c, 0, 60, 70
3, 102528, Note_on_c, 0, 64, 70
3, 102716, Note_on_c, 0, 64, 0
3, 102716, Note_on_c, 0, 60, 0
3, 103296, Note_on_c, 0, 62, 70
3, 103296, Note_on_c, 0, 56, 70
3, 103484, Note_on_c, 0, 56, 0
3, 103484, Note_on_c, 0, 62, 0
3, 103680, Note_on_c, 0, 60, 70
3, 103680, Note_on_c, 0, 57, 70
3, 103868, Note_on_c, 0, 57, 0
3, 103868, Note_on_c, 0, 60, 0
3, 104832, Note_on_c, 0, 62, 68
3, 104832, Note_on_c, 0, 53, 68
3, 105020, Note_on_c, 0, 53, 0
3, 105020, Note_on_c, 0, 62, 0
3, 105216, Note_on_c, 0, 55, 66
3, 105216, Note_on_c, 0, 64, 66
3, 105596, Note_on_c, 0, 64, 0
3, 105600, Note_on_c, 0, 65, 62
3, 105980, Note_on_c, 0, 65, 0
3, 105980, Note_on_c, 0, 55, 0
3, 105984, Note_on_c, 0, 64, 62
3, 105984, Note_on_c, 0, 60, 62
3, 106172, Note_on_c, 0, 60, 0
3, 106172, Note_on_c, 0, 64, 0
3, 106368, Note_on_c, 0, 48, 70
3, 106748, Note_on_c, 0, 48, 0
3, 140736, Note_on_c, 0, 60, 83
3, 140736, Note_on_c, 0, 57, 83
3, 140828, Note_on_c, 0, 57, 0
3, 140828, Note_on_c, 0, 60, 0
3, 140928, Note_on_c, 0, 60, 83
3, 140928, Note_on_c, 0, 57, 83
3, 141020, Note_on_c, 0, 57, 0
3, 141020, Note_on_c, 0, 60, 0
3, 141120, Note_on_c, 0, 60, 83
3, 141120, Note_on_c, 0, 57, 83
3, 141212, Note_on_c, 0, 57, 0
3, 141212, Note_on_c, 0, 60, 0
3, 141312, Note_on_c, 0, 60, 83
3, 141312, Note_on_c, 0, 57, 83
3, 141404, Note_on_c, 0, 57, 0
3, 141404, Note_on_c, 0, 60, 0
3, 141504, Note_on_c, 0, 60, 83
3, 141504, Note_on_c, 0, 57, 83
3, 141596, Note_on_c, 0, 57, 0
3, 141596, Note_on_c, 0, 60, 0
3, 141888, Note_on_c, 0, 59, 83
3, 141888, Note_on_c, 0, 56, 83
3, 141980, Note_on_c, 0, 56, 0
3, 141980, Note_on_c, 0, 59, 0
3, 142080, Note_on_c, 0, 59, 83
3, 142080, Note_on_c, 0, 56, 83
3, 142172, Note_on_c, 0, 56, 0
3, 142172, Note_on_c, 0, 59, 0
3, 142272, Note_on_c, 0, 59, 83
3, 142272, Note_on_c, 0, 56, 83
3, 142364, Note_on_c, 0, 56, 0
3, 142364, Note_on_c, 0, 59, 0
3, 142464, Note_on_c, 0, 59, 83
3, 142464, Note_on_c, 0, 56, 83
3, 142556, Note_on_c, 0, 56, 0
3, 142556, Note_on_c, 0, 59, 0
3, 142656, Note_on_c, 0, 59, 83
3, 142656, Note_on_c, 0, 56, 83
3, 142748, Note_on_c, 0, 56, 0
3, 142748, Note_on_c, 0, 59, 0
3, 142848, Note_on_c, 0, 57, 86
3, 143228, Note_on_c, 0, 57, 0
3, 143232, Note_on_c, 0, 55, 86
3, 143612, Note_on_c, 0, 55, 0
3, 143616, Note_on_c, 0, 53, 86
3, 143996, Note_on_c, 0, 53, 0
3, 144000, Note_on_c, 0, 52, 87
3, 144380, Note_on_c, 0, 52, 0
3, 144384, Note_on_c, 0, 50, 87
3, 144764, Note_on_c, 0, 50, 0
3, 144768, Note_on_c, 0, 48, 88
3, 145148, Note_on_c, 0, 48, 0
3, 145152, Note_on_c, 0, 47, 88
3, 145532, Note_on_c, 0, 47, 0
3, 146496, Note_on_c, 0, 50, 89
3, 146540, Note_on_c, 0, 50, 0
3, 146544, Note_on_c, 0, 52, 90
3, 146588, Note_on_c, 0, 52, 0
3, 146592, Note_on_c, 0, 53, 90
3, 146684, Note_on_c, 0, 53, 0
3, 146688, Note_on_c, 0, 52, 90
3, 146876, Note_on_c, 0, 52, 0
3, 146880, Note_on_c, 0, 50, 90
3, 147068, Note_on_c, 0, 50, 0
3, 147072, Note_on_c, 0, 48, 90
3, 147248, Note_on_c, 0, 47, 90
3, 147260, Note_on_c, 0, 48, 0
3, 147436, Note_on_c, 0, 47, 0
3, 147456, Note_on_c, 0, 48, 83
3, 147836, Note_on_c, 0, 48, 0
3, 148608, Note_on_c, 0, 50, 91
3, 148988, Note_on_c, 0, 50, 0
3, 149760, Note_on_c, 0, 60, 91
3, 150044, Note_on_c, 0, 60, 0
3, 150048, Note_on_c, 0, 62, 91
3, 150140, Note_on_c, 0, 62, 0
3, 150144, Note_on_c, 0, 64, 91
3, 150524, Note_on_c, 0, 64, 0
3, 150528, Note_on_c, 0, 52, 91
3, 150908, Note_on_c, 0, 52, 0
3, 150912, Note_on_c, 0, 57, 83
3, 151292, Note_on_c, 0, 57, 0
3, 152064, Note_on_c, 0, 53, 91
3, 153212, Note_on_c, 0, 53, 0
3, 153408, Note_on_c, 0, 52, 70
3, 153500, Note_on_c, 0, 52, 0
3, 153600, Note_on_c, 0, 52, 70
3, 153788, Note_on_c, 0, 52, 0
3, 153792, Note_on_c, 0, 54, 70
3, 153980, Note_on_c, 0, 54, 0
3, 153984, Note_on_c, 0, 56, 70
3, 154172, Note_on_c, 0, 56, 0
3, 154176, Note_on_c, 0, 57, 70
3, 154364, Note_on_c, 0, 57, 0
3, 154368, Note_on_c, 0, 59, 91
3, 155516, Note_on_c, 0, 59, 0
3, 155520, Note_on_c, 0, 57, 70
3, 155900, Note_on_c, 0, 57, 0
3, 157056, Note_on_c, 0, 60, 66
3, 157056, Note_on_c, 0, 53, 66
3, 157436, Note_on_c, 0, 53, 0
3, 157436, Note_on_c, 0, 60, 0
3, 157440, Note_on_c, 0, 57, 65
3, 157440, Note_on_c, 0, 53, 65
3, 157820, Note_on_c, 0, 53, 0
3, 157820, Note_on_c, 0, 57, 0
3, 157824, Note_on_c, 0, 59, 62
3, 157824, Note_on_c, 0, 56, 62
3, 157824, Note_on_c, 0, 52, 62
3, 158204, Note_on_c, 0, 52, 0
3, 158204, Note_on_c, 0, 56, 0
3, 158204, Note_on_c, 0, 59, 0
3, 168576, Note_on_c, 0, 59, 77
3, 168576, Note_on_c, 0, 67, 77
3, 168956, Note_on_c, 0, 67, 0
3, 168956, Note_on_c, 0, 59, 0
3, 168960, Note_on_c, 0, 57, 72
3, 168960, Note_on_c, 0, 59, 72
3, 168960, Note_on_c, 0, 66, 72
3, 169340, Note_on_c, 0, 66, 0
3, 169340, Note_on_c, 0, 59, 0
3, 169340, Note_on_c, 0, 57, 0
3, 169344, Note_on_c, 0, 64, 70
3, 169344, Note_on_c, 0, 55, 70
3, 169724, Note_on_c, 0, 55, 0
3, 169724, Note_on_c, 0, 64, 0
3, 170496, Note_on_c, 0, 64, 71
3, 170496, Note_on_c, 0, 60, 71
3, 170496, Note_on_c, 0, 57, 71
3, 170876, Note_on_c, 0, 57, 0
3, 170876, Note_on_c, 0, 60, 0
3, 170876, Note_on_c, 0, 64, 0
3, 172032, Note_on_c, 0, 67, 79
3, 172032, Note_on_c, 0, 59, 79
3, 172412, Note_on_c, 0, 67, 0
3, 172416, Note_on_c, 0, 63, 74
3, 172796, Note_on_c, 0, 63, 0
3, 172796, Note_on_c, 0, 59, 0
3, 172800, Note_on_c, 0, 64, 70
3, 172800, Note_on_c, 0, 52, 70
3, 172988, Note_on_c, 0, 52, 0
3, 172988, Note_on_c, 0, 64, 0
3, 184496, Note_on_c, 0, 57, 70
3, 184512, Note_on_c, 0, 60, 70
3, 184588, Note_on_c, 0, 57, 0
3, 184604, Note_on_c, 0, 60, 0
3, 184704, Note_on_c, 0, 60, 70
3, 184704, Note_on_c, 0, 57, 70
3, 184796, Note_on_c, 0, 57, 0
3, 184796, Note_on_c, 0, 60, 0
3, 184896, Note_on_c, 0, 60, 70
3, 184896, Note_on_c, 0, 57, 70
3, 184988, Note_on_c, 0, 57, 0
3, 184988, Note_on_c, 0, 60, 0
3, 185088, Note_on_c, 0, 60, 70
3, 185088, Note_on_c, 0, 57, 70
3, 185180, Note_on_c, 0, 57, 0
3, 185180, Note_on_c, 0, 60, 0
3, 185280, Note_on_c, 0, 60, 70
3, 185280, Note_on_c, 0, 57, 70
3, 185372, Note_on_c, 0, 57, 0
3, 185372, Note_on_c, 0, 60, 0
3, 185664, Note_on_c, 0, 59, 70
3, 185664, Note_on_c, 0, 56, 70
3, 185756, Note_on_c, 0, 56, 0
3, 185756, Note_on_c, 0, 59, 0
3, 185856, Note_on_c, 0, 59, 70
3, 185856, Note_on_c, 0, 56, 70
3, 185948, Note_on_c, 0, 56, 0
3, 185948, Note_on_c, 0, 59, 0
3, 186048, Note_on_c, 0, 59, 70
3, 186048, Note_on_c, 0, 56, 70
3, 186140, Note_on_c, 0, 56, 0
3, 186140, Note_on_c, 0, 59, 0
3, 186240, Note_on_c, 0, 59, 70
3, 186240, Note_on_c, 0, 56, 70
3, 186332, Note_on_c, 0, 56, 0
3, 186332, Note_on_c, 0, 59, 0
3, 186432, Note_on_c, 0, 59, 70
3, 186432, Note_on_c, 0, 56, 70
3, 186524, Note_on_c, 0, 56, 0
3, 186524, Note_on_c, 0, 59, 0
3, 186624, Note_on_c, 0, 57, 71
3, 187004, Note_on_c, 0, 57, 0
3, 187008, Note_on_c, 0, 55, 74
3, 187388, Note_on_c, 0, 55, 0
3, 187392, Note_on_c, 0, 53, 79
3, 187772, Note_on_c, 0, 53, 0
3, 187776, Note_on_c, 0, 52, 70
3, 188156, Note_on_c, 0, 52, 0
3, 188160, Note_on_c, 0, 50, 70
3, 188540, Note_on_c, 0, 50, 0
3, 188544, Note_on_c, 0, 48, 70
3, 188924, Note_on_c, 0, 48, 0
3, 188928, Note_on_c, 0, 47, 71
3, 189308, Note_on_c, 0, 47, 0
3, 190272, Note_on_c, 0, 50, 73
3, 190316, Note_on_c, 0, 50, 0
3, 190320, Note_on_c, 0, 52, 73
3, 190364, Note_on_c, 0, 52, 0
3, 190368, Note_on_c, 0, 53, 73
3, 190460, Note_on_c, 0, 53, 0
3, 190464, Note_on_c, 0, 52, 73
3, 190652, Note_on_c, 0, 52, 0
3, 190656, Note_on_c, 0, 50, 73
3, 190844, Note_on_c, 0, 50, 0
3, 190848, Note_on_c, 0, 48, 74
3, 191036, Note_on_c, 0, 48, 0
3, 191040, Note_on_c, 0, 47, 74
3, 191228, Note_on_c, 0, 47, 0
3, 191232, Note_on_c, 0, 49, 74
3, 191612, Note_on_c, 0, 49, 0
3, 192576, Note_on_c, 0, 55, 77
3, 192620, Note_on_c, 0, 55, 0
3, 192624, Note_on_c, 0, 57, 77
3, 192668, Note_on_c, 0, 57, 0
3, 192672, Note_on_c, 0, 58, 77
3, 192764, Note_on_c, 0, 58, 0
3, 192768, Note_on_c, 0, 57, 78
3, 192956, Note_on_c, 0, 57, 0
3, 192960, Note_on_c, 0, 55, 78
3, 193148, Note_on_c, 0, 55, 0
3, 193152, Note_on_c, 0, 53, 78
3, 193340, Note_on_c, 0, 53, 0
3, 193344, Note_on_c, 0, 52, 79
3, 193532, Note_on_c, 0, 52, 0
3, 193536, Note_on_c, 0, 51, 79
3, 193916, Note_on_c, 0, 51, 0
3, 194880, Note_on_c, 0, 57, 82
3, 194924, Note_on_c, 0, 57, 0
3, 194928, Note_on_c, 0, 59, 82
3, 194972, Note_on_c, 0, 59, 0
3, 194976, Note_on_c, 0, 60, 82
3, 195068, Note_on_c, 0, 60, 0
3, 195072, Note_on_c, 0, 59, 82
3, 195260, Note_on_c, 0, 59, 0
3, 195264, Note_on_c, 0, 57, 83
3, 195452, Note_on_c, 0, 57, 0
3, 195456, Note_on_c, 0, 55, 83
3, 195644, Note_on_c, 0, 55, 0
3, 195648, Note_on_c, 0, 54, 83
3, 195836, Note_on_c, 0, 54, 0
3, 195840, Note_on_c, 0, 52, 86
3, 196220, Note_on_c, 0, 52, 0
3, 196608, Note_on_c, 0, 56, 89
3, 196608, Note_on_c, 0, 64, 89
3, 196988, Note_on_c, 0, 64, 0
3, 196988, Note_on_c, 0, 56, 0
3, 196992, Note_on_c, 0, 64, 91
3, 196992, Note_on_c, 0, 57, 91
3, 197372, Note_on_c, 0, 57, 0
3, 197372, Note_on_c, 0, 64, 0
3, 197760, Note_on_c, 0, 62, 87
3, 198140, Note_on_c, 0, 62, 0
3, 198144, Note_on_c, 0, 60, 70
3, 198428, Note_on_c, 0, 60, 0
3, 198432, Note_on_c, 0, 62, 70
3, 198524, Note_on_c, 0, 62, 0
3, 198528, Note_on_c, 0, 64, 70
3, 198908, Note_on_c, 0, 64, 0
3, 198912, Note_on_c, 0, 52, 70
3, 199292, Note_on_c, 0, 52, 0
3, 199296, Note_on_c, 0, 59, 86
3, 199296, Note_on_c, 0, 56, 86
3, 199676, Note_on_c, 0, 56, 0
3, 199676, Note_on_c, 0, 59, 0
3, 200064, Note_on_c, 0, 64, 89
3, 200064, Note_on_c, 0, 56, 89
3, 200444, Note_on_c, 0, 56, 0
3, 200444, Note_on_c, 0, 64, 0
3, 200448, Note_on_c, 0, 64, 90
3, 200448, Note_on_c, 0, 57, 90
3, 200828, Note_on_c, 0, 57, 0
3, 200828, Note_on_c, 0, 64, 0
3, 201216, Note_on_c, 0, 62, 87
3, 201596, Note_on_c, 0, 62, 0
3, 201984, Note_on_c, 0, 53, 83
3, 201984, Note_on_c, 0, 50, 83
3, 202364, Note_on_c, 0, 53, 0
3, 202368, Note_on_c, 0, 56, 83
3, 202748, Note_on_c, 0, 56, 0
3, 202748, Note_on_c, 0, 50, 0
3, 202752, Note_on_c, 0, 48, 83
3, 203036, Note_on_c, 0, 48, 0
3, 203040, Note_on_c, 0, 50, 83
3, 203132, Note_on_c, 0, 50, 0
3, 203136, Note_on_c, 0, 60, 83
3, 203136, Note_on_c, 0, 52, 83
3, 203516, Note_on_c, 0, 60, 0
3, 203520, Note_on_c, 0, 59, 83
3, 203900, Note_on_c, 0, 59, 0
3, 203900, Note_on_c, 0, 52, 0
3, 203904, Note_on_c, 0, 57, 70
3, 204284, Note_on_c, 0, 57, 0
3, 216192, Note_on_c, 0, 64, 80
3, 216572, Note_on_c, 0, 64, 0
3, 216576, Note_on_c, 0, 65, 76
3, 216668, Note_on_c, 0, 65, 0
3, 216768, Note_on_c, 0, 64, 73
3, 216860, Note_on_c, 0, 64, 0
3, 216960, Note_on_c, 0, 62, 70
3, 217052, Note_on_c, 0, 62, 0
3, 217152, Note_on_c, 0, 60, 70
3, 217244, Note_on_c, 0, 60, 0
3, 217344, Note_on_c, 0, 59, 70
3, 217436, Note_on_c, 0, 59, 0
3, 217536, Note_on_c, 0, 57, 70
3, 217628, Note_on_c, 0, 57, 0
3, 217728, Note_on_c, 0, 55, 70
3, 218108, Note_on_c, 0, 55, 0
3, 218880, Note_on_c, 0, 60, 70
3, 218880, Note_on_c, 0, 55, 70
3, 219068, Note_on_c, 0, 55, 0
3, 219068, Note_on_c, 0, 60, 0
3, 219648, Note_on_c, 0, 64, 70
3, 219648, Note_on_c, 0, 55, 70
3, 219836, Note_on_c, 0, 55, 0
3, 219836, Note_on_c, 0, 64, 0
3, 220032, Note_on_c, 0, 62, 70
3, 220032, Note_on_c, 0, 55, 70
3, 220220, Note_on_c, 0, 55, 0
3, 220220, Note_on_c, 0, 62, 0
3, 220800, Note_on_c, 0, 59, 74
3, 220800, Note_on_c, 0, 55, 74
3, 220988, Note_on_c, 0, 55, 0
3, 220988, Note_on_c, 0, 59, 0
3, 221184, Note_on_c, 0, 60, 78
3, 221184, Note_on_c, 0, 55, 78
3, 221372, Note_on_c, 0, 55, 0
3, 221372, Note_on_c, 0, 60, 0
3, 221952, Note_on_c, 0, 64, 87
3, 221952, Note_on_c, 0, 55, 87
3, 222140, Note_on_c, 0, 55, 0
3, 222140, Note_on_c, 0, 64, 0
3, 222336, Note_on_c, 0, 62, 91
3, 222336, Note_on_c, 0, 55, 91
3, 222524, Note_on_c, 0, 55, 0
3, 222524, Note_on_c, 0, 62, 0
3, 222720, Note_on_c, 0, 62, 91
3, 222720, Note_on_c, 0, 59, 91
3, 222720, Note_on_c, 0, 55, 91
3, 222908, Note_on_c, 0, 55, 0
3, 222908, Note_on_c, 0, 59, 0
3, 222908, Note_on_c, 0, 62, 0
3, 223104, Note_on_c, 0, 62, 91
3, 223104, Note_on_c, 0, 59, 91
3, 223104, Note_on_c, 0, 55, 91
3, 223292, Note_on_c, 0, 55, 0
3, 223292, Note_on_c, 0, 59, 0
3, 223292, Note_on_c, 0, 62, 0
3, 223488, Note_on_c, 0, 62, 91
3, 223488, Note_on_c, 0, 59, 91
3, 223488, Note_on_c, 0, 55, 91
3, 224252, Note_on_c, 0, 55, 0
3, 224252, Note_on_c, 0, 59, 0
3, 224252, Note_on_c, 0, 62, 0
3, 225792, Note_on_c, 0, 62, 91
3, 225792, Note_on_c, 0, 60, 91
3, 225792, Note_on_c, 0, 57, 91
3, 226556, Note_on_c, 0, 57, 0
3, 226556, Note_on_c, 0, 60, 0
3, 226556, Note_on_c, 0, 62, 0
3, 228480, Note_on_c, 0, 59, 91
3, 228480, Note_on_c, 0, 65, 91
3, 228480, Note_on_c, 0, 55, 91
3, 228480, Note_on_c, 0, 62, 91
3, 229244, Note_on_c, 0, 62, 0
3, 229244, Note_on_c, 0, 59, 0
3, 229244, Note_on_c, 0, 65, 0
3, 229244, Note_on_c, 0, 55, 0
3, 232704, Note_on_c, 0, 62, 70
3, 232704, Note_on_c, 0, 59, 70
3, 232704, Note_on_c, 0, 55, 70
3, 232892, Note_on_c, 0, 55, 0
3, 232892, Note_on_c, 0, 59, 0
3, 232892, Note_on_c, 0, 62, 0
3, 233088, Note_on_c, 0, 63, 70
3, 233088, Note_on_c, 0, 60, 70
3, 233088, Note_on_c, 0, 55, 70
3, 233276, Note_on_c, 0, 55, 0
3, 233276, Note_on_c, 0, 60, 0
3, 233276, Note_on_c, 0, 63, 0
3, 233472, Note_on_c, 0, 64, 70
3, 233472, Note_on_c, 0, 61, 70
3, 233472, Note_on_c, 0, 55, 70
3, 233660, Note_on_c, 0, 55, 0
3, 233660, Note_on_c, 0, 61, 0
3, 233660, Note_on_c, 0, 64, 0
3, 233856, Note_on_c, 0, 65, 77
3, 233856, Note_on_c, 0, 62, 77
3, 233856, Note_on_c, 0, 55, 77
3, 235388, Note_on_c, 0, 55, 0
3, 235388, Note_on_c, 0, 62, 0
3, 235388, Note_on_c, 0, 65, 0
3, 239616, Note_on_c, 0, 60, 70
3, 239804, Note_on_c, 0, 60, 0
3, 239808, Note_on_c, 0, 64, 70
3, 239996, Note_on_c, 0, 64, 0
3, 240000, Note_on_c, 0, 67, 70
3, 240188, Note_on_c, 0, 67, 0
3, 240192, Note_on_c, 0, 64, 70
3, 240380, Note_on_c, 0, 64, 0
3, 240384, Note_on_c, 0, 56, 70
3, 240384, Note_on_c, 0, 56, 70
3, 240572, Note_on_c, 0, 56, 0
3, 240576, Note_on_c, 0, 59, 70
3, 240764, Note_on_c, 0, 59, 0
3, 240764, Note_on_c, 0, 56, 0
3, 240768, Note_on_c, 0, 57, 70
3, 240768, Note_on_c, 0, 57, 70
3, 240956, Note_on_c, 0, 57, 0
3, 240960, Note_on_c, 0, 60, 70
3, 241148, Note_on_c, 0, 60, 0
3, 241148, Note_on_c, 0, 57, 0
3, 241152, Note_on_c, 0, 64, 70
3, 241340, Note_on_c, 0, 64, 0
3, 241344, Note_on_c, 0, 57, 70
3, 241532, Note_on_c, 0, 57, 0
3, 241536, Note_on_c, 0, 52, 70
3, 241536, Note_on_c, 0, 52, 70
3, 241724, Note_on_c, 0, 52, 0
3, 241728, Note_on_c, 0, 55, 70
3, 241916, Note_on_c, 0, 55, 0
3, 241916, Note_on_c, 0, 52, 0
3, 241920, Note_on_c, 0, 53, 71
3, 241920, Note_on_c, 0, 53, 71
3, 242108, Note_on_c, 0, 53, 0
3, 242112, Note_on_c, 0, 57, 72
3, 242300, Note_on_c, 0, 57, 0
3, 242300, Note_on_c, 0, 53, 0
3, 242304, Note_on_c, 0, 62, 74
3, 242492, Note_on_c, 0, 62, 0
3, 242496, Note_on_c, 0, 57, 77
3, 242684, Note_on_c, 0, 57, 0
3, 242688, Note_on_c, 0, 53, 79
3, 242876, Note_on_c, 0, 53, 0
3, 242880, Note_on_c, 0, 57, 82
3, 243068, Note_on_c, 0, 57, 0
3, 243072, Note_on_c, 0, 55, 83
3, 243072, Note_on_c, 0, 55, 83
3, 243260, Note_on_c, 0, 55, 0
3, 243264, Note_on_c, 0, 62, 82
3, 243452, Note_on_c, 0, 62, 0
3, 243452, Note_on_c, 0, 55, 0
3, 243456, Note_on_c, 0, 65, 79
3, 243644, Note_on_c, 0, 65, 0
3, 243648, Note_on_c, 0, 62, 77
3, 243836, Note_on_c, 0, 62, 0
3, 243840, Note_on_c, 0, 59, 74
3, 244028, Note_on_c, 0, 59, 0
3, 244032, Note_on_c, 0, 62, 72
3, 244220, Note_on_c, 0, 62, 0
3, 244224, Note_on_c, 0, 60, 70
3, 244412, Note_on_c, 0, 60, 0
3, 244416, Note_on_c, 0, 64, 70
3, 244604, Note_on_c, 0, 64, 0
3, 244608, Note_on_c, 0, 67, 70
3, 244796, Note_on_c, 0, 67, 0
3, 244800, Note_on_c, 0, 60, 70
3, 244988, Note_on_c, 0, 60, 0
3, 244992, Note_on_c, 0, 55, 70
3, 244992, Note_on_c, 0, 55, 70
3, 245180, Note_on_c, 0, 55, 0
3, 245184, Note_on_c, 0, 59, 70
3, 245372, Note_on_c, 0, 59, 0
3, 245372, Note_on_c, 0, 55, 0
3, 245376, Note_on_c, 0, 56, 70
3, 245376, Note_on_c, 0, 56, 70
3, 245564, Note_on_c, 0, 56, 0
3, 245568, Note_on_c, 0, 62, 70
3, 245756, Note_on_c, 0, 62, 0
3, 245756, Note_on_c, 0, 56, 0
3, 245760, Note_on_c, 0, 57, 70
3, 245948, Note_on_c, 0, 57, 0
3, 245952, Note_on_c, 0, 60, 70
3, 246140, Note_on_c, 0, 60, 0
3, 246144, Note_on_c, 0, 52, 70
3, 246144, Note_on_c, 0, 52, 70
3, 246332, Note_on_c, 0, 52, 0
3, 246336, Note_on_c, 0, 55, 70
3, 246524, Note_on_c, 0, 55, 0
3, 246524, Note_on_c, 0, 52, 0
3, 246528, Note_on_c, 0, 53, 70
3, 246528, Note_on_c, 0, 53, 70
3, 246716, Note_on_c, 0, 53, 0
3, 246720, Note_on_c, 0, 62, 70
3, 246908, Note_on_c, 0, 62, 0
3, 246908, Note_on_c, 0, 53, 0
3, 246912, Note_on_c, 0, 55, 70
3, 246912, Note_on_c, 0, 55, 70
3, 247100, Note_on_c, 0, 55, 0
3, 247104, Note_on_c, 0, 64, 70
3, 247292, Note_on_c, 0, 64, 0
3, 247292, Note_on_c, 0, 55, 0
3, 247296, Note_on_c, 0, 55, 70
3, 247296, Note_on_c, 0, 55, 70
3, 247484, Note_on_c, 0, 55, 0
3, 247488, Note_on_c, 0, 65, 70
3, 247676, Note_on_c, 0, 65, 0
3, 247676, Note_on_c, 0, 55, 0
3, 247680, Note_on_c, 0, 64, 70
3, 247680, Note_on_c, 0, 60, 70
3, 247868, Note_on_c, 0, 60, 0
3, 247868, Note_on_c, 0, 64, 0
3, 248064, Note_on_c, 0, 48, 70
3, 248444, Note_on_c, 0, 48, 0
3, 261696, Note_on_c, 0, 60, 82
3, 261788, Note_on_c, 0, 60, 0
3, 261888, Note_on_c, 0, 60, 79
3, 261980, Note_on_c, 0, 60, 0
3, 262080, Note_on_c, 0, 60, 77
3, 262172, Note_on_c, 0, 60, 0
3, 262272, Note_on_c, 0, 60, 74
3, 262364, Note_on_c, 0, 60, 0
3, 262464, Note_on_c, 0, 60, 72
3, 262556, Note_on_c, 0, 60, 0
3, 262656, Note_on_c, 0, 62, 70
3, 262844, Note_on_c, 0, 62, 0
3, 262848, Note_on_c, 0, 60, 70
3, 263036, Note_on_c, 0, 60, 0
3, 263040, Note_on_c, 0, 58, 70
3, 263132, Note_on_c, 0, 58, 0
3, 263232, Note_on_c, 0, 57, 70
3, 263324, Note_on_c, 0, 57, 0
3, 263424, Note_on_c, 0, 58, 70
3, 263612, Note_on_c, 0, 58, 0
3, 263616, Note_on_c, 0, 57, 70
3, 263804, Note_on_c, 0, 57, 0
3, 263808, Note_on_c, 0, 53, 70
3, 263932, Note_on_c, 0, 53, 0
3, 263936, Note_on_c, 0, 57, 70
3, 264060, Note_on_c, 0, 57, 0
3, 264064, Note_on_c, 0, 60, 70
3, 264188, Note_on_c, 0, 60, 0
3, 264192, Note_on_c, 0, 53, 70
3, 264316, Note_on_c, 0, 53, 0
3, 264320, Note_on_c, 0, 57, 70
3, 264444, Note_on_c, 0, 57, 0
3, 264448, Note_on_c, 0, 60, 70
3, 264572, Note_on_c, 0, 60, 0
3, 264576, Note_on_c, 0, 53, 70
3, 264700, Note_on_c, 0, 53, 0
3, 264704, Note_on_c, 0, 57, 70
3, 264828, Note_on_c, 0, 57, 0
3, 264832, Note_on_c, 0, 60, 70
3, 264956, Note_on_c, 0, 60, 0
3, 264960, Note_on_c, 0, 53, 71
3, 265084, Note_on_c, 0, 53, 0
3, 265088, Note_on_c, 0, 57, 72
3, 265212, Note_on_c, 0, 57, 0
3, 265216, Note_on_c, 0, 60, 73
3, 265340, Note_on_c, 0, 60, 0
3, 265344, Note_on_c, 0, 53, 74
3, 265468, Note_on_c, 0, 53, 0
3, 265472, Note_on_c, 0, 57, 76
3, 265596, Note_on_c, 0, 57, 0
3, 265600, Note_on_c, 0, 60, 78
3, 265724, Note_on_c, 0, 60, 0
3, 265728, Note_on_c, 0, 53, 79
3, 265852, Note_on_c, 0, 53, 0
3, 265856, Note_on_c, 0, 57, 80
3, 265980, Note_on_c, 0, 57, 0
3, 265984, Note_on_c, 0, 60, 82
3, 266108, Note_on_c, 0, 60, 0
3, 266112, Note_on_c, 0, 52, 83
3, 266236, Note_on_c, 0, 52, 0
3, 266240, Note_on_c, 0, 55, 83
3, 266364, Note_on_c, 0, 55, 0
3, 266368, Note_on_c, 0, 60, 82
3, 266492, Note_on_c, 0, 60, 0
3, 266496, Note_on_c, 0, 52, 79
3, 266620, Note_on_c, 0, 52, 0
3, 266624, Note_on_c, 0, 55, 78
3, 266748, Note_on_c, 0, 55, 0
3, 266752, Note_on_c, 0, 60, 77
3, 266876, Note_on_c, 0, 60, 0
3, 266880, Note_on_c, 0, 52, 74
3, 267004, Note_on_c, 0, 52, 0
3, 267008, Note_on_c, 0, 55, 73
3, 267132, Note_on_c, 0, 55, 0
3, 267136, Note_on_c, 0, 60, 72
3, 267260, Note_on_c, 0, 60, 0
3, 267264, Note_on_c, 0, 52, 71
3, 267388, Note_on_c, 0, 52, 0
3, 267392, Note_on_c, 0, 55, 72
3, 267516, Note_on_c, 0, 55, 0
3, 267520, Note_on_c, 0, 60, 73
3, 267644, Note_on_c, 0, 60, 0
3, 267648, Note_on_c, 0, 52, 74
3, 267772, Note_on_c, 0, 52, 0
3, 267776, Note_on_c, 0, 55, 76
3, 267900, Note_on_c, 0, 55, 0
3, 267904, Note_on_c, 0, 60, 78
3, 268028, Note_on_c, 0, 60, 0
3, 268032, Note_on_c, 0, 52, 79
3, 268156, Note_on_c, 0, 52, 0
3, 268160, Note_on_c, 0, 55, 80
3, 268284, Note_on_c, 0, 55, 0
3, 268288, Note_on_c, 0, 60, 82
3, 268412, Note_on_c, 0, 60, 0
3, 268416, Note_on_c, 0, 57, 83
3, 268416, Note_on_c, 0, 53, 83
3, 268604, Note_on_c, 0, 53, 0
3, 268604, Note_on_c, 0, 57, 0
3, 269168, Note_on_c, 0, 55, 76
3, 269184, Note_on_c, 0, 58, 74
3, 269356, Note_on_c, 0, 55, 0
3, 269372, Note_on_c, 0, 58, 0
3, 269568, Note_on_c, 0, 60, 70
3, 269568, Note_on_c, 0, 57, 70
3, 269756, Note_on_c, 0, 57, 0
3, 269756, Note_on_c, 0, 60, 0
3, 270336, Note_on_c, 0, 53, 70
3, 270336, Note_on_c, 0, 45, 70
3, 270524, Note_on_c, 0, 45, 0
3, 270524, Note_on_c, 0, 53, 0
3, 270720, Note_on_c, 0, 55, 70
3, 270720, Note_on_c, 0, 46, 70
3, 270908, Note_on_c, 0, 46, 0
3, 270908, Note_on_c, 0, 55, 0
3, 271088, Note_on_c, 0, 48, 70
3, 271104, Note_on_c, 0, 57, 70
3, 271484, Note_on_c, 0, 57, 0
3, 271488, Note_on_c, 0, 58, 70
3, 271852, Note_on_c, 0, 48, 0
3, 271868, Note_on_c, 0, 58, 0
3, 271872, Note_on_c, 0, 57, 62
3, 271872, Note_on_c, 0, 53, 62
3, 272060, Note_on_c, 0, 53, 0
3, 272060, Note_on_c, 0, 57, 0
3, 272624, Note_on_c, 0, 55, 62
3, 272640, Note_on_c, 0, 58, 62
3, 272812, Note_on_c, 0, 55, 0
3, 272828, Note_on_c, 0, 58, 0
3, 273024, Note_on_c, 0, 60, 71
3, 273024, Note_on_c, 0, 57, 71
3, 273212, Note_on_c, 0, 57, 0
3, 273212, Note_on_c, 0, 60, 0
3, 273792, Note_on_c, 0, 53, 77
3, 273792, Note_on_c, 0, 45, 77
3, 273980, Note_on_c, 0, 45, 0
3, 273980, Note_on_c, 0, 53, 0
3, 274176, Note_on_c, 0, 55, 80
3, 274176, Note_on_c, 0, 46, 80
3, 274544, Note_on_c, 0, 48, 83
3, 274556, Note_on_c, 0, 46, 0
3, 274556, Note_on_c, 0, 55, 0
3, 274560, Note_on_c, 0, 57, 83
3, 274940, Note_on_c, 0, 57, 0
3, 274944, Note_on_c, 0, 58, 88
3, 275308, Note_on_c, 0, 48, 0
3, 275324, Note_on_c, 0, 58, 0
3, 275328, Note_on_c, 0, 57, 91
3, 275328, Note_on_c, 0, 53, 91
3, 275708, Note_on_c, 0, 53, 0
3, 275708, Note_on_c, 0, 57, 0
3, 279168, Note_on_c, 0, 60, 83
3, 279168, Note_on_c, 0, 53, 83
3, 279356, Note_on_c, 0, 53, 0
3, 279356, Note_on_c, 0, 60, 0
3, 279552, Note_on_c, 0, 60, 77
3, 279552, Note_on_c, 0, 53, 77
3, 279740, Note_on_c, 0, 53, 0
3, 279740, Note_on_c, 0, 60, 0
3, 279936, Note_on_c, 0, 60, 71
3, 279936, Note_on_c, 0, 52, 71
3, 280124, Note_on_c, 0, 52, 0
3, 280124, Note_on_c, 0, 60, 0
3, 281472, Note_on_c, 0, 60, 79
3, 281472, Note_on_c, 0, 52, 79
3, 281660, Note_on_c, 0, 52, 0
3, 281660, Note_on_c, 0, 60, 0
3, 281856, Note_on_c, 0, 60, 74
3, 281856, Note_on_c, 0, 52, 74
3, 282044, Note_on_c, 0, 52, 0
3, 282044, Note_on_c, 0, 60, 0
3, 282240, Note_on_c, 0, 55, 70
3, 282240, Note_on_c, 0, 53, 70
3, 282240, Note_on_c, 0, 50, 70
3, 282428, Note_on_c, 0, 50, 0
3, 282428, Note_on_c, 0, 53, 0
3, 282428, Note_on_c, 0, 55, 0
3, 283776, Note_on_c, 0, 65, 76
3, 283776, Note_on_c, 0, 62, 76
3, 283776, Note_on_c, 0, 55, 76
3, 283964, Note_on_c, 0, 55, 0
3, 283964, Note_on_c, 0, 62, 0
3, 283964, Note_on_c, 0, 65, 0
3, 284160, Note_on_c, 0, 65, 78
3, 284160, Note_on_c, 0, 62, 78
3, 284160, Note_on_c, 0, 55, 78
3, 284348, Note_on_c, 0, 55, 0
3, 284348, Note_on_c, 0, 62, 0
3, 284348, Note_on_c, 0, 65, 0
3, 284928, Note_on_c, 0, 62, 82
3, 284928, Note_on_c, 0, 60, 82
3, 284928, Note_on_c, 0, 57, 82
3, 285116, Note_on_c, 0, 57, 0
3, 285116, Note_on_c, 0, 60, 0
3, 285116, Note_on_c, 0, 62, 0
3, 285312, Note_on_c, 0, 62, 83
3, 285312, Note_on_c, 0, 60, 83
3, 285312, Note_on_c, 0, 57, 83
3, 285500, Note_on_c, 0, 57, 0
3, 285500, Note_on_c, 0, 60, 0
3, 285500, Note_on_c, 0, 62, 0
3, 286080, Note_on_c, 0, 67, 87
3, 286080, Note_on_c, 0, 59, 87
3, 286460, Note_on_c, 0, 59, 0
3, 286460, Note_on_c, 0, 67, 0
3, 286464, Note_on_c, 0, 67, 89
3, 286464, Note_on_c, 0, 60, 89
3, 286844, Note_on_c, 0, 60, 0
3, 286844, Note_on_c, 0, 67, 0
3, 286848, Note_on_c, 0, 59, 91
3, 286848, Note_on_c, 0, 55, 91
3, 287228, Note_on_c, 0, 55, 0
3, 287228, Note_on_c, 0, 59, 0
3, 299520, Note_on_c, 0, 60, 70
3, 299900, Note_on_c, 0, 60, 0
3, 300672, Note_on_c, 0, 55, 70
3, 301052, Note_on_c, 0, 55, 0
3, 301824, Note_on_c, 0, 55, 70
3, 302204, Note_on_c, 0, 55, 0
3, 302976, Note_on_c, 0, 48, 70
3, 303356, Note_on_c, 0, 48, 0
3, 304128, Note_on_c, 0, 60, 73
3, 304508, Note_on_c, 0, 60, 0
3, 305280, Note_on_c, 0, 53, 78
3, 305660, Note_on_c, 0, 53, 0
3, 306432, Note_on_c, 0, 52, 82
3, 306812, Note_on_c, 0, 52, 0
3, 307008, Note_on_c, 0, 64, 83
3, 307100, Note_on_c, 0, 64, 0
3, 307200, Note_on_c, 0, 65, 79
3, 307292, Note_on_c, 0, 65, 0
3, 307392, Note_on_c, 0, 69, 74
3, 307484, Note_on_c, 0, 69, 0
3, 307584, Note_on_c, 0, 67, 70
3, 307772, Note_on_c, 0, 67, 0
3, 307968, Note_on_c, 0, 55, 70
3, 308348, Note_on_c, 0, 55, 0
3, 308736, Note_on_c, 0, 48, 70
3, 309116, Note_on_c, 0, 48, 0
3, 309888, Note_on_c, 0, 55, 73
3, 310268, Note_on_c, 0, 55, 0
3, 312192, Note_on_c, 0, 48, 91
3, 312572, Note_on_c, 0, 48, 0
3, 313344, Note_on_c, 0, 64, 71
3, 313344, Note_on_c, 0, 60, 71
3, 313724, Note_on_c, 0, 60, 0
3, 313724, Note_on_c, 0, 64, 0
3, 314496, Note_on_c, 0, 60, 76
3, 314496, Note_on_c, 0, 64, 76
3, 314496, Note_on_c, 0, 67, 76
3, 314876, Note_on_c, 0, 67, 0
3, 314876, Note_on_c, 0, 64, 0
3, 314876, Note_on_c, 0, 60, 0
3, 315648, Note_on_c, 0, 52, 82
3, 316028, Note_on_c, 0, 52, 0
3, 316032, Note_on_c, 0, 55, 83
3, 316032, Note_on_c, 0, 60, 83
3, 316412, Note_on_c, 0, 60, 0
3, 316412, Note_on_c, 0, 55, 0
3, 316416, Note_on_c, 0, 55, 70
3, 316416, Note_on_c, 0, 59, 70
3, 316796, Note_on_c, 0, 59, 0
3, 316796, Note_on_c, 0, 55, 0
3, 316800, Note_on_c, 0, 60, 70
3, 317180, Note_on_c, 0, 60, 0
3, 317184, Note_on_c, 0, 60, 70
3, 317276, Note_on_c, 0, 60, 0
3, 317280, Note_on_c, 0, 55, 70
3, 317372, Note_on_c, 0, 55, 0
3, 317376, Note_on_c, 0, 52, 70
3, 317468, Note_on_c, 0, 52, 0
3, 317472, Note_on_c, 0, 55, 70
3, 317564, Note_on_c, 0, 55, 0
3, 317568, Note_on_c, 0, 60, 70
3, 317660, Note_on_c, 0, 60, 0
3, 317664, Note_on_c, 0, 55, 70
3, 317756, Note_on_c, 0, 55, 0
3, 317760, Note_on_c, 0, 52, 70
3, 317852, Note_on_c, 0, 52, 0
3, 317856, Note_on_c, 0, 55, 70
3, 317948, Note_on_c, 0, 55, 0
3, 317952, Note_on_c, 0, 60, 70
3, 317952, Note_on_c, 0, 52, 70
3, 317952, Note_on_c, 0, 48, 70
3, 318140, Note_on_c, 0, 60, 0
3, 318144, Note_on_c, 0, 55, 70
3, 318332, Note_on_c, 0, 55, 0
3, 318332, Note_on_c, 0, 48, 0
3, 318332, Note_on_c, 0, 52, 0
3, 318336, Note_on_c, 0, 64, 70
3, 318428, Note_on_c, 0, 64, 0
3, 318432, Note_on_c, 0, 60, 70
3, 318524, Note_on_c, 0, 60, 0
3, 318528, Note_on_c, 0, 55, 70
3, 318620, Note_on_c, 0, 55, 0
3, 318624, Note_on_c, 0, 60, 70
3, 318716, Note_on_c, 0, 60, 0
3, 318720, Note_on_c, 0, 64, 71
3, 318812, Note_on_c, 0, 64, 0
3, 318816, Note_on_c, 0, 60, 71
3, 318908, Note_on_c, 0, 60, 0
3, 318912, Note_on_c, 0, 55, 72
3, 319004, Note_on_c, 0, 55, 0
3, 319008, Note_on_c, 0, 60, 72
3, 319100, Note_on_c, 0, 60, 0
3, 319104, Note_on_c, 0, 55, 73
3, 319104, Note_on_c, 0, 52, 73
3, 319104, Note_on_c, 0, 48, 73
3, 319484, Note_on_c, 0, 48, 0
3, 319484, Note_on_c, 0, 52, 0
3, 319484, Note_on_c, 0, 55, 0
3, 320256, Note_on_c, 0, 40, 83
3, 320636, Note_on_c, 0, 40, 0
3, 320640, Note_on_c, 0, 48, 86
3, 320640, Note_on_c, 0, 43, 86
3, 321020, Note_on_c, 0, 43, 0
3, 321020, Note_on_c, 0, 48, 0
3, 321024, Note_on_c, 0, 47, 89
3, 321024, Note_on_c, 0, 43, 89
3, 321404, Note_on_c, 0, 43, 0
3, 321404, Note_on_c, 0, 47, 0
3, 321408, Note_on_c, 0, 48, 91
3, 321408, Note_on_c, 0, 36, 91
3, 321788, Note_on_c, 0, 36, 0
3, 321788, Note_on_c, 0, 48, 0
3, 323712, Note_on_c, 0, 64, 98
3, 323996, Note_on_c, 0, 64, 0
3, 324000, Note_on_c, 0, 65, 98
3, 324092, Note_on_c, 0, 65, 0
3, 324096, Note_on_c, 0, 67, 98
3, 324112, Note_on_c, 0, 64, 98
3, 324476, Note_on_c, 0, 67, 0
3, 324492, Note_on_c, 0, 64, 0
3, 324864, Note_on_c, 0, 52, 70
3, 324864, Note_on_c, 0, 36, 70
3, 325244, Note_on_c, 0, 36, 0
3, 325244, Note_on_c, 0, 52, 0
3, 327168, Note_on_c, 0, 52, 91
3, 327452, Note_on_c, 0, 52, 0
3, 327456, Note_on_c, 0, 53, 87
3, 327548, Note_on_c, 0, 53, 0
3, 327552, Note_on_c, 0, 55, 83
3, 327932, Note_on_c, 0, 55, 0
3, 327936, Note_on_c, 0, 43, 77
3, 328316, Note_on_c, 0, 43, 0
3, 328320, Note_on_c, 0, 48, 70
3, 328700, Note_on_c, 0, 48, 0
3, 330624, Note_on_c, 0, 60, 91
3, 330748, Note_on_c, 0, 60, 0
3, 330752, Note_on_c, 0, 64, 70
3, 330876, Note_on_c, 0, 64, 0
3, 330880, Note_on_c, 0, 67, 70
3, 331004, Note_on_c, 0, 67, 0
3, 331008, Note_on_c, 0, 60, 70
3, 331132, Note_on_c, 0, 60, 0
3, 331136, Note_on_c, 0, 64, 70
3, 331260, Note_on_c, 0, 64, 0
3, 331264, Note_on_c, 0, 67, 70
3, 331388, Note_on_c, 0, 67, 0
3, 331392, Note_on_c, 0, 55, 70
3, 331516, Note_on_c, 0, 55, 0
3, 331520, Note_on_c, 0, 59, 70
3, 331644, Note_on_c, 0, 59, 0
3, 331648, Note_on_c, 0, 62, 70
3, 331772, Note_on_c, 0, 62, 0
3, 331776, Note_on_c, 0, 57, 70
3, 331900, Note_on_c, 0, 57, 0
3, 331904, Note_on_c, 0, 59, 70
3, 332028, Note_on_c, 0, 59, 0
3, 332032, Note_on_c, 0, 60, 70
3, 332156, Note_on_c, 0, 60, 0
3, 332160, Note_on_c, 0, 57, 70
3, 332284, Note_on_c, 0, 57, 0
3, 332288, Note_on_c, 0, 60, 70
3, 332412, Note_on_c, 0, 60, 0
3, 332416, Note_on_c, 0, 64, 70
3, 332540, Note_on_c, 0, 64, 0
3, 332544, Note_on_c, 0, 52, 70
3, 332668, Note_on_c, 0, 52, 0
3, 332672, Note_on_c, 0, 55, 70
3, 332796, Note_on_c, 0, 55, 0
3, 332800, Note_on_c, 0, 60, 70
3, 332924, Note_on_c, 0, 60, 0
3, 332928, Note_on_c, 0, 53, 71
3, 333052, Note_on_c, 0, 53, 0
3, 333056, Note_on_c, 0, 57, 72
3, 333180, Note_on_c, 0, 57, 0
3, 333184, Note_on_c, 0, 62, 73
3, 333308, Note_on_c, 0, 62, 0
3, 333312, Note_on_c, 0, 53, 74
3, 333436, Note_on_c, 0, 53, 0
3, 333440, Note_on_c, 0, 57, 76
3, 333564, Note_on_c, 0, 57, 0
3, 333568, Note_on_c, 0, 62, 78
3, 333692, Note_on_c, 0, 62, 0
3, 333696, Note_on_c, 0, 50, 79
3, 333820, Note_on_c, 0, 50, 0
3, 333824, Note_on_c, 0, 53, 80
3, 333948, Note_on_c, 0, 53, 0
3, 333952, Note_on_c, 0, 57, 82
3, 334076, Note_on_c, 0, 57, 0
3, 334080, Note_on_c, 0, 55, 83
3, 334204, Note_on_c, 0, 55, 0
3, 334208, Note_on_c, 0, 62, 83
3, 334332, Note_on_c, 0, 62, 0
3, 334336, Note_on_c, 0, 65, 82
3, 334460, Note_on_c, 0, 65, 0
3, 334464, Note_on_c, 0, 55, 79
3, 334588, Note_on_c, 0, 55, 0
3, 334592, Note_on_c, 0, 62, 78
3, 334716, Note_on_c, 0, 62, 0
3, 334720, Note_on_c, 0, 65, 77
3, 334844, Note_on_c, 0, 65, 0
3, 334848, Note_on_c, 0, 59, 74
3, 334972, Note_on_c, 0, 59, 0
3, 334976, Note_on_c, 0, 62, 73
3, 335100, Note_on_c, 0, 62, 0
3, 335104, Note_on_c, 0, 65, 72
3, 335228, Note_on_c, 0, 65, 0
3, 335232, Note_on_c, 0, 60, 70
3, 335356, Note_on_c, 0, 60, 0
3, 335360, Note_on_c, 0, 63, 70
3, 335484, Note_on_c, 0, 63, 0
3, 335488, Note_on_c, 0, 64, 70
3, 335612, Note_on_c, 0, 64, 0
3, 335616, Note_on_c, 0, 60, 70
3, 335740, Note_on_c, 0, 60, 0
3, 335744, Note_on_c, 0, 64, 70
3, 335868, Note_on_c, 0, 64, 0
3, 335872, Note_on_c, 0, 67, 70
3, 335996, Note_on_c, 0, 67, 0
3, 336000, Note_on_c, 0, 56, 70
3, 336124, Note_on_c, 0, 56, 0
3, 336128, Note_on_c, 0, 59, 70
3, 336252, Note_on_c, 0, 59, 0
3, 336256, Note_on_c, 0, 62, 70
3, 336380, Note_on_c, 0, 62, 0
3, 336384, Note_on_c, 0, 57, 70
3, 336508, Note_on_c, 0, 57, 0
3, 336512, Note_on_c, 0, 59, 70
3, 336636, Note_on_c, 0, 59, 0
3, 336640, Note_on_c, 0, 60, 70
3, 336764, Note_on_c, 0, 60, 0
3, 336768, Note_on_c, 0, 57, 70
3, 336892, Note_on_c, 0, 57, 0
3, 336896, Note_on_c, 0, 60, 70
3, 337020, Note_on_c, 0, 60, 0
3, 337024, Note_on_c, 0, 64, 70
3, 337148, Note_on_c, 0, 64, 0
3, 337152, Note_on_c, 0, 52, 70
3, 337276, Note_on_c, 0, 52, 0
3, 337280, Note_on_c, 0, 55, 70
3, 337404, Note_on_c, 0, 55, 0
3, 337408, Note_on_c, 0, 60, 70
3, 337532, Note_on_c, 0, 60, 0
3, 337536, Note_on_c, 0, 53, 71
3, 337660, Note_on_c, 0, 53, 0
3, 337664, Note_on_c, 0, 57, 72
3, 337788, Note_on_c, 0, 57, 0
3, 337792, Note_on_c, 0, 62, 73
3, 337916, Note_on_c, 0, 62, 0
3, 337920, Note_on_c, 0, 55, 74
3, 338044, Note_on_c, 0, 55, 0
3, 338048, Note_on_c, 0, 60, 76
3, 338172, Note_on_c, 0, 60, 0
3, 338176, Note_on_c, 0, 64, 77
3, 338300, Note_on_c, 0, 64, 0
3, 338304, Note_on_c, 0, 55, 74
3, 338428, Note_on_c, 0, 55, 0
3, 338432, Note_on_c, 0, 62, 73
3, 338556, Note_on_c, 0, 62, 0
3, 338560, Note_on_c, 0, 65, 72
3, 338684, Note_on_c, 0, 65, 0
3, 338688, Note_on_c, 0, 60, 70
3, 338688, Note_on_c, 0, 64, 70
3, 338876, Note_on_c, 0, 64, 0
3, 338876, Note_on_c, 0, 60, 0
3, 339072, Note_on_c, 0, 48, 70
3, 339452, Note_on_c, 0, 48, 0
3, 339452, End_track
4, 0, Start_track
4, 0, Title_t, "Piano"
4, 0, Control_c, 0, 0, 0
4, 0, Control_c, 0, 7, 115
4, 0, Control_c, 0, 10, 82
4, 0, Control_c, 0, 91, 40
4, 0, Control_c, 0, 93, 33
4, 0, Control_c, 0, 121, 0
4, 0, Control_c, 0, 32, 0
4, 1, Program_c, 0, 0
4, 96, Control_c, 0, 10, 43
4, 192, Control_c, 0, 91, 63
4, 240, Control_c, 0, 93, 40
4, 288, Program_c, 0, 0
4, 11136, Note_on_c, 0, 79, 87
4, 11136, Note_on_c, 0, 76, 87
4, 11516, Note_on_c, 0, 76, 0
4, 11516, Note_on_c, 0, 79, 0
4, 11520, Note_on_c, 0, 76, 87
4, 11520, Note_on_c, 0, 79, 87
4, 11564, Note_on_c, 0, 79, 0
4, 11568, Note_on_c, 0, 81, 87
4, 11612, Note_on_c, 0, 81, 0
4, 11616, Note_on_c, 0, 79, 87
4, 11660, Note_on_c, 0, 79, 0
4, 11664, Note_on_c, 0, 81, 87
4, 11708, Note_on_c, 0, 81, 0
4, 11712, Note_on_c, 0, 79, 87
4, 11756, Note_on_c, 0, 79, 0
4, 11760, Note_on_c, 0, 81, 87
4, 11804, Note_on_c, 0, 81, 0
4, 11808, Note_on_c, 0, 79, 87
4, 11852, Note_on_c, 0, 79, 0
4, 11856, Note_on_c, 0, 81, 87
4, 11900, Note_on_c, 0, 81, 0
4, 11900, Note_on_c, 0, 76, 0
4, 12192, Note_on_c, 0, 81, 87
4, 12192, Note_on_c, 0, 77, 87
4, 12236, Note_on_c, 0, 77, 0
4, 12236, Note_on_c, 0, 81, 0
4, 12288, Note_on_c, 0, 77, 87
4, 12288, Note_on_c, 0, 74, 87
4, 12476, Note_on_c, 0, 74, 0
4, 12476, Note_on_c, 0, 77, 0
4, 12672, Note_on_c, 0, 76, 87
4, 12672, Note_on_c, 0, 72, 87
4, 12860, Note_on_c, 0, 72, 0
4, 12860, Note_on_c, 0, 76, 0
4, 13440, Note_on_c, 0, 72, 87
4, 13820, Note_on_c, 0, 72, 0
4, 13824, Note_on_c, 0, 73, 87
4, 14012, Note_on_c, 0, 73, 0
4, 14016, Note_on_c, 0, 74, 87
4, 14204, Note_on_c, 0, 74, 0
4, 14208, Note_on_c, 0, 76, 87
4, 14396, Note_on_c, 0, 76, 0
4, 14400, Note_on_c, 0, 74, 87
4, 14588, Note_on_c, 0, 74, 0
4, 14592, Note_on_c, 0, 77, 87
4, 14780, Note_on_c, 0, 77, 0
4, 14784, Note_on_c, 0, 74, 87
4, 14972, Note_on_c, 0, 74, 0
4, 14976, Note_on_c, 0, 72, 87
4, 15164, Note_on_c, 0, 72, 0
4, 15168, Note_on_c, 0, 71, 87
4, 15356, Note_on_c, 0, 71, 0
4, 15360, Note_on_c, 0, 69, 87
4, 15548, Note_on_c, 0, 69, 0
4, 15552, Note_on_c, 0, 67, 87
4, 15740, Note_on_c, 0, 67, 0
4, 15744, Note_on_c, 0, 79, 87
4, 16124, Note_on_c, 0, 79, 0
4, 16128, Note_on_c, 0, 79, 87
4, 16172, Note_on_c, 0, 79, 0
4, 16176, Note_on_c, 0, 81, 87
4, 16220, Note_on_c, 0, 81, 0
4, 16224, Note_on_c, 0, 79, 87
4, 16268, Note_on_c, 0, 79, 0
4, 16272, Note_on_c, 0, 81, 87
4, 16316, Note_on_c, 0, 81, 0
4, 16320, Note_on_c, 0, 79, 87
4, 16364, Note_on_c, 0, 79, 0
4, 16368, Note_on_c, 0, 81, 87
4, 16412, Note_on_c, 0, 81, 0
4, 16416, Note_on_c, 0, 79, 87
4, 16460, Note_on_c, 0, 79, 0
4, 16464, Note_on_c, 0, 81, 87
4, 16508, Note_on_c, 0, 81, 0
4, 16800, Note_on_c, 0, 81, 87
4, 16800, Note_on_c, 0, 77, 87
4, 16844, Note_on_c, 0, 77, 0
4, 16844, Note_on_c, 0, 81, 0
4, 16896, Note_on_c, 0, 77, 87
4, 16896, Note_on_c, 0, 74, 87
4, 17084, Note_on_c, 0, 74, 0
4, 17084, Note_on_c, 0, 77, 0
4, 17280, Note_on_c, 0, 76, 87
4, 17280, Note_on_c, 0, 72, 87
4, 17468, Note_on_c, 0, 72, 0
4, 17468, Note_on_c, 0, 76, 0
4, 18048, Note_on_c, 0, 72, 87
4, 18236, Note_on_c, 0, 72, 0
4, 18432, Note_on_c, 0, 74, 87
4, 18556, Note_on_c, 0, 74, 0
4, 18560, Note_on_c, 0, 77, 87
4, 18684, Note_on_c, 0, 77, 0
4, 18688, Note_on_c, 0, 81, 87
4, 18812, Note_on_c, 0, 81, 0
4, 18816, Note_on_c, 0, 72, 87
4, 19004, Note_on_c, 0, 72, 0
4, 19200, Note_on_c, 0, 71, 87
4, 19580, Note_on_c, 0, 71, 0
4, 19584, Note_on_c, 0, 72, 66
4, 19964, Note_on_c, 0, 72, 0
4, 20352, Note_on_c, 0, 67, 66
4, 20732, Note_on_c, 0, 67, 0
4, 20736, Note_on_c, 0, 76, 66
4, 21308, Note_on_c, 0, 76, 0
4, 21312, Note_on_c, 0, 79, 66
4, 21500, Note_on_c, 0, 79, 0
4, 21504, Note_on_c, 0, 77, 66
4, 21504, Note_on_c, 0, 67, 66
4, 21692, Note_on_c, 0, 77, 0
4, 21696, Note_on_c, 0, 74, 66
4, 21884, Note_on_c, 0, 74, 0
4, 21884, Note_on_c, 0, 67, 0
4, 21888, Note_on_c, 0, 72, 66
4, 21888, Note_on_c, 0, 64, 66
4, 22460, Note_on_c, 0, 64, 0
4, 22460, Note_on_c, 0, 72, 0
4, 22464, Note_on_c, 0, 76, 66
4, 22464, Note_on_c, 0, 67, 66
4, 22652, Note_on_c, 0, 67, 0
4, 22652, Note_on_c, 0, 76, 0
4, 22656, Note_on_c, 0, 74, 66
4, 22656, Note_on_c, 0, 65, 66
4, 22844, Note_on_c, 0, 65, 0
4, 22844, Note_on_c, 0, 74, 0
4, 22848, Note_on_c, 0, 71, 66
4, 22848, Note_on_c, 0, 62, 66
4, 23036, Note_on_c, 0, 62, 0
4, 23036, Note_on_c, 0, 71, 0
4, 23040, Note_on_c, 0, 76, 66
4, 23040, Note_on_c, 0, 72, 66
4, 23228, Note_on_c, 0, 72, 0
4, 23228, Note_on_c, 0, 76, 0
4, 23424, Note_on_c, 0, 76, 66
4, 23424, Note_on_c, 0, 72, 66
4, 23612, Note_on_c, 0, 72, 0
4, 23612, Note_on_c, 0, 76, 0
4, 23616, Note_on_c, 0, 79, 66
4, 23616, Note_on_c, 0, 76, 66
4, 23804, Note_on_c, 0, 76, 0
4, 23804, Note_on_c, 0, 79, 0
4, 23808, Note_on_c, 0, 77, 66
4, 23808, Note_on_c, 0, 74, 66
4, 23996, Note_on_c, 0, 74, 0
4, 23996, Note_on_c, 0, 77, 0
4, 24000, Note_on_c, 0, 74, 66
4, 24000, Note_on_c, 0, 71, 66
4, 24188, Note_on_c, 0, 71, 0
4, 24188, Note_on_c, 0, 74, 0
4, 24192, Note_on_c, 0, 72, 66
4, 24192, Note_on_c, 0, 64, 66
4, 24572, Note_on_c, 0, 64, 0
4, 24572, Note_on_c, 0, 72, 0
4, 24576, Note_on_c, 0, 72, 66
4, 24576, Note_on_c, 0, 64, 66
4, 24764, Note_on_c, 0, 64, 0
4, 24764, Note_on_c, 0, 72, 0
4, 24768, Note_on_c, 0, 76, 66
4, 24768, Note_on_c, 0, 67, 66
4, 24956, Note_on_c, 0, 67, 0
4, 24956, Note_on_c, 0, 76, 0
4, 24960, Note_on_c, 0, 74, 66
4, 24960, Note_on_c, 0, 65, 66
4, 25148, Note_on_c, 0, 65, 0
4, 25148, Note_on_c, 0, 74, 0
4, 25152, Note_on_c, 0, 71, 66
4, 25152, Note_on_c, 0, 62, 66
4, 25340, Note_on_c, 0, 62, 0
4, 25340, Note_on_c, 0, 71, 0
4, 25344, Note_on_c, 0, 83, 87
4, 25344, Note_on_c, 0, 74, 87
4, 25532, Note_on_c, 0, 74, 0
4, 25532, Note_on_c, 0, 83, 0
4, 25536, Note_on_c, 0, 84, 87
4, 25536, Note_on_c, 0, 76, 87
4, 25724, Note_on_c, 0, 76, 0
4, 25724, Note_on_c, 0, 84, 0
4, 25728, Note_on_c, 0, 77, 87
4, 25728, Note_on_c, 0, 86, 87
4, 25916, Note_on_c, 0, 86, 0
4, 25916, Note_on_c, 0, 77, 0
4, 25920, Note_on_c, 0, 84, 87
4, 25920, Note_on_c, 0, 76, 87
4, 26108, Note_on_c, 0, 76, 0
4, 26108, Note_on_c, 0, 84, 0
4, 26112, Note_on_c, 0, 83, 87
4, 26112, Note_on_c, 0, 74, 87
4, 26300, Note_on_c, 0, 74, 0
4, 26300, Note_on_c, 0, 83, 0
4, 26304, Note_on_c, 0, 81, 87
4, 26304, Note_on_c, 0, 72, 87
4, 26492, Note_on_c, 0, 72, 0
4, 26492, Note_on_c, 0, 81, 0
4, 26496, Note_on_c, 0, 79, 87
4, 26496, Note_on_c, 0, 71, 87
4, 26684, Note_on_c, 0, 71, 0
4, 26684, Note_on_c, 0, 79, 0
4, 26688, Note_on_c, 0, 77, 87
4, 26688, Note_on_c, 0, 74, 87
4, 26876, Note_on_c, 0, 74, 0
4, 26876, Note_on_c, 0, 77, 0
4, 26880, Note_on_c, 0, 77, 87
4, 26880, Note_on_c, 0, 74, 87
4, 26880, Note_on_c, 0, 67, 87
4, 27260, Note_on_c, 0, 67, 0
4, 27260, Note_on_c, 0, 74, 0
4, 27260, Note_on_c, 0, 77, 0
4, 27264, Note_on_c, 0, 76, 87
4, 27264, Note_on_c, 0, 72, 87
4, 27264, Note_on_c, 0, 67, 87
4, 27644, Note_on_c, 0, 67, 0
4, 27644, Note_on_c, 0, 72, 0
4, 27644, Note_on_c, 0, 76, 0
4, 27648, Note_on_c, 0, 76, 87
4, 27740, Note_on_c, 0, 76, 0
4, 27744, Note_on_c, 0, 74, 87
4, 27744, Note_on_c, 0, 69, 87
4, 28028, Note_on_c, 0, 69, 0
4, 28028, Note_on_c, 0, 74, 0
4, 28032, Note_on_c, 0, 77, 87
4, 28032, Note_on_c, 0, 69, 87
4, 28220, Note_on_c, 0, 69, 0
4, 28220, Note_on_c, 0, 77, 0
4, 28224, Note_on_c, 0, 74, 87
4, 28224, Note_on_c, 0, 65, 87
4, 28412, Note_on_c, 0, 65, 0
4, 28412, Note_on_c, 0, 74, 0
4, 28416, Note_on_c, 0, 72, 87
4, 28416, Note_on_c, 0, 64, 87
4, 28592, Note_on_c, 0, 62, 87
4, 28604, Note_on_c, 0, 64, 0
4, 28604, Note_on_c, 0, 72, 0
4, 28608, Note_on_c, 0, 71, 87
4, 28780, Note_on_c, 0, 62, 0
4, 28796, Note_on_c, 0, 71, 0
4, 28800, Note_on_c, 0, 72, 87
4, 28800, Note_on_c, 0, 64, 87
4, 28988, Note_on_c, 0, 64, 0
4, 28988, Note_on_c, 0, 72, 0
4, 28992, Note_on_c, 0, 79, 87
4, 28992, Note_on_c, 0, 76, 87
4, 29180, Note_on_c, 0, 76, 0
4, 29180, Note_on_c, 0, 79, 0
4, 29184, Note_on_c, 0, 79, 87
4, 29184, Note_on_c, 0, 76, 87
4, 29276, Note_on_c, 0, 76, 0
4, 29276, Note_on_c, 0, 79, 0
4, 29376, Note_on_c, 0, 79, 87
4, 29376, Note_on_c, 0, 76, 87
4, 29468, Note_on_c, 0, 76, 0
4, 29468, Note_on_c, 0, 79, 0
4, 29568, Note_on_c, 0, 79, 87
4, 29568, Note_on_c, 0, 76, 87
4, 29660, Note_on_c, 0, 76, 0
4, 29660, Note_on_c, 0, 79, 0
4, 29760, Note_on_c, 0, 79, 87
4, 29760, Note_on_c, 0, 76, 87
4, 29852, Note_on_c, 0, 76, 0
4, 29852, Note_on_c, 0, 79, 0
4, 29952, Note_on_c, 0, 81, 94
4, 29952, Note_on_c, 0, 77, 94
4, 30140, Note_on_c, 0, 77, 0
4, 30140, Note_on_c, 0, 81, 0
4, 30144, Note_on_c, 0, 79, 87
4, 30144, Note_on_c, 0, 76, 87
4, 30332, Note_on_c, 0, 76, 0
4, 30332, Note_on_c, 0, 79, 0
4, 30336, Note_on_c, 0, 74, 87
4, 30336, Note_on_c, 0, 77, 87
4, 30428, Note_on_c, 0, 77, 0
4, 30428, Note_on_c, 0, 74, 0
4, 30528, Note_on_c, 0, 76, 87
4, 30528, Note_on_c, 0, 72, 87
4, 30620, Note_on_c, 0, 72, 0
4, 30620, Note_on_c, 0, 76, 0
4, 30720, Note_on_c, 0, 77, 87
4, 30720, Note_on_c, 0, 74, 87
4, 30908, Note_on_c, 0, 74, 0
4, 30908, Note_on_c, 0, 77, 0
4, 30912, Note_on_c, 0, 74, 87
4, 30912, Note_on_c, 0, 71, 87
4, 31100, Note_on_c, 0, 71, 0
4, 31100, Note_on_c, 0, 74, 0
4, 31104, Note_on_c, 0, 72, 87
4, 31292, Note_on_c, 0, 72, 0
4, 31296, Note_on_c, 0, 79, 87
4, 31296, Note_on_c, 0, 76, 87
4, 31484, Note_on_c, 0, 76, 0
4, 31484, Note_on_c, 0, 79, 0
4, 31488, Note_on_c, 0, 79, 87
4, 31488, Note_on_c, 0, 76, 87
4, 31580, Note_on_c, 0, 76, 0
4, 31580, Note_on_c, 0, 79, 0
4, 31680, Note_on_c, 0, 79, 87
4, 31680, Note_on_c, 0, 76, 87
4, 31772, Note_on_c, 0, 76, 0
4, 31772, Note_on_c, 0, 79, 0
4, 31872, Note_on_c, 0, 79, 87
4, 31872, Note_on_c, 0, 76, 87
4, 31964, Note_on_c, 0, 76, 0
4, 31964, Note_on_c, 0, 79, 0
4, 32064, Note_on_c, 0, 79, 87
4, 32064, Note_on_c, 0, 76, 87
4, 32156, Note_on_c, 0, 76, 0
4, 32156, Note_on_c, 0, 79, 0
4, 32256, Note_on_c, 0, 81, 94
4, 32256, Note_on_c, 0, 77, 94
4, 32444, Note_on_c, 0, 77, 0
4, 32444, Note_on_c, 0, 81, 0
4, 32448, Note_on_c, 0, 79, 87
4, 32448, Note_on_c, 0, 76, 87
4, 32636, Note_on_c, 0, 76, 0
4, 32636, Note_on_c, 0, 79, 0
4, 32640, Note_on_c, 0, 77, 87
4, 32640, Note_on_c, 0, 74, 87
4, 32732, Note_on_c, 0, 74, 0
4, 32732, Note_on_c, 0, 77, 0
4, 32832, Note_on_c, 0, 76, 87
4, 32832, Note_on_c, 0, 72, 87
4, 32924, Note_on_c, 0, 72, 0
4, 32924, Note_on_c, 0, 76, 0
4, 33024, Note_on_c, 0, 77, 87
4, 33024, Note_on_c, 0, 74, 87
4, 33212, Note_on_c, 0, 74, 0
4, 33212, Note_on_c, 0, 77, 0
4, 33216, Note_on_c, 0, 71, 87
4, 33216, Note_on_c, 0, 74, 87
4, 33404, Note_on_c, 0, 74, 0
4, 33404, Note_on_c, 0, 71, 0
4, 33408, Note_on_c, 0, 72, 66
4, 33788, Note_on_c, 0, 72, 0
4, 42816, Note_on_c, 0, 74, 87
4, 42908, Note_on_c, 0, 74, 0
4, 43008, Note_on_c, 0, 74, 87
4, 43100, Note_on_c, 0, 74, 0
4, 43200, Note_on_c, 0, 74, 87
4, 43292, Note_on_c, 0, 74, 0
4, 43392, Note_on_c, 0, 74, 87
4, 43484, Note_on_c, 0, 74, 0
4, 43584, Note_on_c, 0, 74, 87
4, 43676, Note_on_c, 0, 74, 0
4, 43776, Note_on_c, 0, 76, 87
4, 43964, Note_on_c, 0, 76, 0
4, 43968, Note_on_c, 0, 74, 87
4, 44156, Note_on_c, 0, 74, 0
4, 44160, Note_on_c, 0, 72, 87
4, 44252, Note_on_c, 0, 72, 0
4, 44352, Note_on_c, 0, 71, 87
4, 44444, Note_on_c, 0, 71, 0
4, 44544, Note_on_c, 0, 69, 87
4, 44636, Note_on_c, 0, 69, 0
4, 44736, Note_on_c, 0, 67, 87
4, 44828, Note_on_c, 0, 67, 0
4, 44928, Note_on_c, 0, 73, 87
4, 45020, Note_on_c, 0, 73, 0
4, 45024, Note_on_c, 0, 74, 87
4, 45212, Note_on_c, 0, 74, 0
4, 45312, Note_on_c, 0, 62, 87
4, 45692, Note_on_c, 0, 62, 0
4, 46464, Note_on_c, 0, 74, 66
4, 46464, Note_on_c, 0, 67, 66
4, 46464, Note_on_c, 0, 62, 66
4, 46844, Note_on_c, 0, 62, 0
4, 46844, Note_on_c, 0, 67, 0
4, 46844, Note_on_c, 0, 74, 0
4, 46848, Note_on_c, 0, 71, 66
4, 46848, Note_on_c, 0, 67, 66
4, 46848, Note_on_c, 0, 59, 66
4, 47228, Note_on_c, 0, 59, 0
4, 47228, Note_on_c, 0, 67, 0
4, 47228, Note_on_c, 0, 71, 0
4, 47616, Note_on_c, 0, 72, 66
4, 47616, Note_on_c, 0, 67, 66
4, 47616, Note_on_c, 0, 60, 66
4, 47996, Note_on_c, 0, 60, 0
4, 47996, Note_on_c, 0, 67, 0
4, 47996, Note_on_c, 0, 72, 0
4, 48000, Note_on_c, 0, 76, 66
4, 48000, Note_on_c, 0, 67, 66
4, 48000, Note_on_c, 0, 64, 66
4, 48380, Note_on_c, 0, 64, 0
4, 48380, Note_on_c, 0, 67, 0
4, 48380, Note_on_c, 0, 76, 0
4, 48384, Note_on_c, 0, 74, 66
4, 48384, Note_on_c, 0, 67, 66
4, 48384, Note_on_c, 0, 62, 66
4, 48476, Note_on_c, 0, 62, 0
4, 48476, Note_on_c, 0, 67, 0
4, 48476, Note_on_c, 0, 74, 0
4, 48768, Note_on_c, 0, 76, 66
4, 48768, Note_on_c, 0, 64, 66
4, 48860, Note_on_c, 0, 64, 0
4, 48860, Note_on_c, 0, 76, 0
4, 49152, Note_on_c, 0, 67, 66
4, 49152, Note_on_c, 0, 64, 66
4, 49244, Note_on_c, 0, 64, 0
4, 49244, Note_on_c, 0, 67, 0
4, 49536, Note_on_c, 0, 66, 67
4, 49536, Note_on_c, 0, 62, 67
4, 49536, Note_on_c, 0, 60, 67
4, 50108, Note_on_c, 0, 60, 0
4, 50108, Note_on_c, 0, 62, 0
4, 50108, Note_on_c, 0, 66, 0
4, 50112, Note_on_c, 0, 69, 66
4, 50112, Note_on_c, 0, 66, 66
4, 50300, Note_on_c, 0, 66, 0
4, 50300, Note_on_c, 0, 69, 0
4, 50304, Note_on_c, 0, 72, 66
4, 50304, Note_on_c, 0, 69, 66
4, 50684, Note_on_c, 0, 69, 0
4, 50684, Note_on_c, 0, 72, 0
4, 51072, Note_on_c, 0, 74, 66
4, 51072, Note_on_c, 0, 67, 66
4, 51072, Note_on_c, 0, 62, 66
4, 51452, Note_on_c, 0, 62, 0
4, 51452, Note_on_c, 0, 67, 0
4, 51452, Note_on_c, 0, 74, 0
4, 51456, Note_on_c, 0, 71, 66
4, 51456, Note_on_c, 0, 67, 66
4, 51456, Note_on_c, 0, 59, 66
4, 51836, Note_on_c, 0, 59, 0
4, 51836, Note_on_c, 0, 67, 0
4, 51836, Note_on_c, 0, 71, 0
4, 52224, Note_on_c, 0, 72, 66
4, 52224, Note_on_c, 0, 67, 66
4, 52224, Note_on_c, 0, 60, 66
4, 52604, Note_on_c, 0, 60, 0
4, 52604, Note_on_c, 0, 67, 0
4, 52604, Note_on_c, 0, 72, 0
4, 52608, Note_on_c, 0, 76, 66
4, 52608, Note_on_c, 0, 67, 66
4, 52608, Note_on_c, 0, 64, 66
4, 52988, Note_on_c, 0, 64, 0
4, 52988, Note_on_c, 0, 67, 0
4, 52988, Note_on_c, 0, 76, 0
4, 52992, Note_on_c, 0, 74, 66
4, 52992, Note_on_c, 0, 67, 66
4, 52992, Note_on_c, 0, 62, 66
4, 53276, Note_on_c, 0, 62, 0
4, 53276, Note_on_c, 0, 67, 0
4, 53276, Note_on_c, 0, 74, 0
4, 53280, Note_on_c, 0, 72, 66
4, 53280, Note_on_c, 0, 69, 66
4, 53280, Note_on_c, 0, 64, 66
4, 53372, Note_on_c, 0, 64, 0
4, 53372, Note_on_c, 0, 69, 0
4, 53372, Note_on_c, 0, 72, 0
4, 53376, Note_on_c, 0, 71, 66
4, 53376, Note_on_c, 0, 67, 66
4, 53376, Note_on_c, 0, 62, 66
4, 53564, Note_on_c, 0, 62, 0
4, 53564, Note_on_c, 0, 67, 0
4, 53564, Note_on_c, 0, 71, 0
4, 53760, Note_on_c, 0, 69, 66
4, 53760, Note_on_c, 0, 66, 66
4, 53760, Note_on_c, 0, 60, 66
4, 53948, Note_on_c, 0, 60, 0
4, 53948, Note_on_c, 0, 66, 0
4, 53948, Note_on_c, 0, 69, 0
4, 54144, Note_on_c, 0, 67, 66
4, 54144, Note_on_c, 0, 59, 66
4, 54332, Note_on_c, 0, 59, 0
4, 54332, Note_on_c, 0, 67, 0
4, 63936, Note_on_c, 0, 62, 66
4, 64028, Note_on_c, 0, 62, 0
4, 64128, Note_on_c, 0, 64, 66
4, 64128, Note_on_c, 0, 61, 66
4, 64220, Note_on_c, 0, 61, 0
4, 64220, Note_on_c, 0, 64, 0
4, 64320, Note_on_c, 0, 66, 66
4, 64320, Note_on_c, 0, 60, 66
4, 64412, Note_on_c, 0, 60, 0
4, 64412, Note_on_c, 0, 66, 0
4, 64512, Note_on_c, 0, 67, 66
4, 64512, Note_on_c, 0, 59, 66
4, 64604, Note_on_c, 0, 59, 0
4, 64604, Note_on_c, 0, 67, 0
4, 64608, Note_on_c, 0, 62, 66
4, 64700, Note_on_c, 0, 62, 0
4, 64704, Note_on_c, 0, 59, 66
4, 64796, Note_on_c, 0, 59, 0
4, 64800, Note_on_c, 0, 62, 66
4, 64892, Note_on_c, 0, 62, 0
4, 64896, Note_on_c, 0, 67, 66
4, 65084, Note_on_c, 0, 67, 0
4, 65088, Note_on_c, 0, 67, 66
4, 65088, Note_on_c, 0, 62, 66
4, 65180, Note_on_c, 0, 62, 0
4, 65180, Note_on_c, 0, 67, 0
4, 65280, Note_on_c, 0, 69, 66
4, 65280, Note_on_c, 0, 66, 66
4, 65372, Note_on_c, 0, 66, 0
4, 65372, Note_on_c, 0, 69, 0
4, 65472, Note_on_c, 0, 71, 66
4, 65472, Note_on_c, 0, 67, 66
4, 65564, Note_on_c, 0, 67, 0
4, 65564, Note_on_c, 0, 71, 0
4, 65664, Note_on_c, 0, 69, 66
4, 65664, Note_on_c, 0, 66, 66
4, 65708, Note_on_c, 0, 66, 0
4, 65708, Note_on_c, 0, 69, 0
4, 65760, Note_on_c, 0, 66, 66
4, 65852, Note_on_c, 0, 66, 0
4, 65856, Note_on_c, 0, 62, 66
4, 65948, Note_on_c, 0, 62, 0
4, 65952, Note_on_c, 0, 66, 66
4, 66044, Note_on_c, 0, 66, 0
4, 66048, Note_on_c, 0, 69, 66
4, 66236, Note_on_c, 0, 69, 0
4, 66240, Note_on_c, 0, 62, 66
4, 66332, Note_on_c, 0, 62, 0
4, 66432, Note_on_c, 0, 66, 66
4, 66432, Note_on_c, 0, 62, 66
4, 66524, Note_on_c, 0, 62, 0
4, 66524, Note_on_c, 0, 66, 0
4, 66624, Note_on_c, 0, 67, 66
4, 66624, Note_on_c, 0, 64, 66
4, 66716, Note_on_c, 0, 64, 0
4, 66716, Note_on_c, 0, 67, 0
4, 66816, Note_on_c, 0, 69, 66
4, 66816, Note_on_c, 0, 66, 66
4, 66908, Note_on_c, 0, 66, 0
4, 66908, Note_on_c, 0, 69, 0
4, 66912, Note_on_c, 0, 66, 66
4, 67004, Note_on_c, 0, 66, 0
4, 67008, Note_on_c, 0, 62, 66
4, 67100, Note_on_c, 0, 62, 0
4, 67104, Note_on_c, 0, 66, 66
4, 67196, Note_on_c, 0, 66, 0
4, 67200, Note_on_c, 0, 69, 66
4, 67388, Note_on_c, 0, 69, 0
4, 67392, Note_on_c, 0, 69, 66
4, 67392, Note_on_c, 0, 66, 66
4, 67484, Note_on_c, 0, 66, 0
4, 67484, Note_on_c, 0, 69, 0
4, 67584, Note_on_c, 0, 71, 66
4, 67584, Note_on_c, 0, 67, 66
4, 67676, Note_on_c, 0, 67, 0
4, 67676, Note_on_c, 0, 71, 0
4, 67776, Note_on_c, 0, 72, 66
4, 67776, Note_on_c, 0, 69, 66
4, 67868, Note_on_c, 0, 69, 0
4, 67868, Note_on_c, 0, 72, 0
4, 67968, Note_on_c, 0, 71, 66
4, 67968, Note_on_c, 0, 67, 66
4, 68060, Note_on_c, 0, 67, 0
4, 68060, Note_on_c, 0, 71, 0
4, 68064, Note_on_c, 0, 67, 66
4, 68156, Note_on_c, 0, 67, 0
4, 68160, Note_on_c, 0, 64, 66
4, 68252, Note_on_c, 0, 64, 0
4, 68256, Note_on_c, 0, 67, 66
4, 68348, Note_on_c, 0, 67, 0
4, 68352, Note_on_c, 0, 71, 66
4, 68352, Note_on_c, 0, 62, 66
4, 68732, Note_on_c, 0, 62, 0
4, 68732, Note_on_c, 0, 71, 0
4, 69120, Note_on_c, 0, 74, 66
4, 69212, Note_on_c, 0, 74, 0
4, 69216, Note_on_c, 0, 71, 66
4, 69308, Note_on_c, 0, 71, 0
4, 69312, Note_on_c, 0, 67, 66
4, 69404, Note_on_c, 0, 67, 0
4, 69408, Note_on_c, 0, 71, 66
4, 69500, Note_on_c, 0, 71, 0
4, 69504, Note_on_c, 0, 74, 66
4, 69884, Note_on_c, 0, 74, 0
4, 70272, Note_on_c, 0, 79, 66
4, 70272, Note_on_c, 0, 71, 66
4, 70364, Note_on_c, 0, 71, 0
4, 70364, Note_on_c, 0, 79, 0
4, 70368, Note_on_c, 0, 74, 66
4, 70460, Note_on_c, 0, 74, 0
4, 70464, Note_on_c, 0, 71, 66
4, 70556, Note_on_c, 0, 71, 0
4, 70560, Note_on_c, 0, 74, 66
4, 70652, Note_on_c, 0, 74, 0
4, 70656, Note_on_c, 0, 79, 66
4, 71036, Note_on_c, 0, 79, 0
4, 71712, Note_on_c, 0, 74, 66
4, 71712, Note_on_c, 0, 67, 66
4, 71804, Note_on_c, 0, 67, 0
4, 71804, Note_on_c, 0, 74, 0
4, 71808, Note_on_c, 0, 81, 66
4, 71808, Note_on_c, 0, 74, 66
4, 71808, Note_on_c, 0, 71, 66
4, 71996, Note_on_c, 0, 71, 0
4, 71996, Note_on_c, 0, 74, 0
4, 71996, Note_on_c, 0, 81, 0
4, 72192, Note_on_c, 0, 69, 66
4, 72192, Note_on_c, 0, 74, 66
4, 72192, Note_on_c, 0, 78, 66
4, 72380, Note_on_c, 0, 78, 0
4, 72380, Note_on_c, 0, 74, 0
4, 72380, Note_on_c, 0, 69, 0
4, 72576, Note_on_c, 0, 79, 66
4, 72576, Note_on_c, 0, 74, 66
4, 72576, Note_on_c, 0, 71, 66
4, 72956, Note_on_c, 0, 71, 0
4, 72956, Note_on_c, 0, 74, 0
4, 72956, Note_on_c, 0, 79, 0
4, 72960, Note_on_c, 0, 79, 60
4, 72960, Note_on_c, 0, 71, 60
4, 73052, Note_on_c, 0, 71, 0
4, 73052, Note_on_c, 0, 79, 0
4, 73152, Note_on_c, 0, 79, 60
4, 73152, Note_on_c, 0, 71, 60
4, 73244, Note_on_c, 0, 71, 0
4, 73244, Note_on_c, 0, 79, 0
4, 73248, Note_on_c, 0, 79, 60
4, 73248, Note_on_c, 0, 71, 60
4, 73340, Note_on_c, 0, 71, 0
4, 73340, Note_on_c, 0, 79, 0
4, 73344, Note_on_c, 0, 79, 60
4, 73344, Note_on_c, 0, 71, 60
4, 73436, Note_on_c, 0, 71, 0
4, 73436, Note_on_c, 0, 79, 0
4, 73536, Note_on_c, 0, 79, 60
4, 73536, Note_on_c, 0, 71, 60
4, 73628, Note_on_c, 0, 71, 0
4, 73628, Note_on_c, 0, 79, 0
4, 73728, Note_on_c, 0, 79, 60
4, 73728, Note_on_c, 0, 71, 60
4, 74108, Note_on_c, 0, 71, 0
4, 74108, Note_on_c, 0, 79, 0
4, 74112, Note_on_c, 0, 83, 60
4, 74112, Note_on_c, 0, 79, 60
4, 74204, Note_on_c, 0, 79, 0
4, 74204, Note_on_c, 0, 83, 0
4, 74304, Note_on_c, 0, 83, 60
4, 74304, Note_on_c, 0, 79, 60
4, 74396, Note_on_c, 0, 79, 0
4, 74396, Note_on_c, 0, 83, 0
4, 74400, Note_on_c, 0, 83, 60
4, 74400, Note_on_c, 0, 79, 60
4, 74492, Note_on_c, 0, 79, 0
4, 74492, Note_on_c, 0, 83, 0
4, 74496, Note_on_c, 0, 83, 60
4, 74496, Note_on_c, 0, 79, 60
4, 74588, Note_on_c, 0, 79, 0
4, 74588, Note_on_c, 0, 83, 0
4, 74688, Note_on_c, 0, 83, 60
4, 74688, Note_on_c, 0, 79, 60
4, 74780, Note_on_c, 0, 79, 0
4, 74780, Note_on_c, 0, 83, 0
4, 74880, Note_on_c, 0, 83, 60
4, 74880, Note_on_c, 0, 79, 60
4, 75068, Note_on_c, 0, 79, 0
4, 75068, Note_on_c, 0, 83, 0
4, 75264, Note_on_c, 0, 83, 60
4, 75264, Note_on_c, 0, 86, 60
4, 75356, Note_on_c, 0, 86, 0
4, 75356, Note_on_c, 0, 83, 0
4, 75456, Note_on_c, 0, 83, 60
4, 75456, Note_on_c, 0, 86, 60
4, 75548, Note_on_c, 0, 86, 0
4, 75548, Note_on_c, 0, 83, 0
4, 75552, Note_on_c, 0, 83, 60
4, 75552, Note_on_c, 0, 86, 60
4, 75644, Note_on_c, 0, 86, 0
4, 75644, Note_on_c, 0, 83, 0
4, 75648, Note_on_c, 0, 83, 60
4, 75648, Note_on_c, 0, 86, 60
4, 75740, Note_on_c, 0, 86, 0
4, 75740, Note_on_c, 0, 83, 0
4, 75840, Note_on_c, 0, 83, 60
4, 75840, Note_on_c, 0, 86, 60
4, 75932, Note_on_c, 0, 86, 0
4, 75932, Note_on_c, 0, 83, 0
4, 76032, Note_on_c, 0, 86, 60
4, 76032, Note_on_c, 0, 83, 60
4, 76412, Note_on_c, 0, 83, 0
4, 76412, Note_on_c, 0, 86, 0
4, 76416, Note_on_c, 0, 83, 60
4, 76416, Note_on_c, 0, 79, 60
4, 76796, Note_on_c, 0, 79, 0
4, 76796, Note_on_c, 0, 83, 0
4, 76800, Note_on_c, 0, 78, 60
4, 76800, Note_on_c, 0, 81, 60
4, 76844, Note_on_c, 0, 81, 0
4, 76848, Note_on_c, 0, 83, 60
4, 76892, Note_on_c, 0, 83, 0
4, 76896, Note_on_c, 0, 81, 60
4, 76940, Note_on_c, 0, 81, 0
4, 76944, Note_on_c, 0, 83, 60
4, 76988, Note_on_c, 0, 83, 0
4, 76992, Note_on_c, 0, 79, 60
4, 77084, Note_on_c, 0, 79, 0
4, 77088, Note_on_c, 0, 81, 60
4, 77180, Note_on_c, 0, 81, 0
4, 77180, Note_on_c, 0, 78, 0
4, 77184, Note_on_c, 0, 79, 60
4, 77564, Note_on_c, 0, 79, 0
4, 82176, Note_on_c, 0, 71, 66
4, 82176, Note_on_c, 0, 74, 66
4, 82460, Note_on_c, 0, 74, 0
4, 82460, Note_on_c, 0, 71, 0
4, 82464, Note_on_c, 0, 71, 66
4, 82464, Note_on_c, 0, 67, 66
4, 82556, Note_on_c, 0, 67, 0
4, 82556, Note_on_c, 0, 71, 0
4, 82560, Note_on_c, 0, 79, 66
4, 82560, Note_on_c, 0, 71, 66
4, 82940, Note_on_c, 0, 71, 0
4, 82940, Note_on_c, 0, 79, 0
4, 83328, Note_on_c, 0, 74, 66
4, 83328, Note_on_c, 0, 71, 66
4, 83612, Note_on_c, 0, 71, 0
4, 83612, Note_on_c, 0, 74, 0
4, 83616, Note_on_c, 0, 71, 66
4, 83616, Note_on_c, 0, 67, 66
4, 83708, Note_on_c, 0, 67, 0
4, 83708, Note_on_c, 0, 71, 0
4, 83712, Note_on_c, 0, 77, 66
4, 83712, Note_on_c, 0, 74, 66
4, 83900, Note_on_c, 0, 74, 0
4, 83900, Note_on_c, 0, 77, 0
4, 84480, Note_on_c, 0, 72, 66
4, 84480, Note_on_c, 0, 67, 66
4, 84764, Note_on_c, 0, 67, 0
4, 84764, Note_on_c, 0, 72, 0
4, 84768, Note_on_c, 0, 67, 66
4, 84768, Note_on_c, 0, 64, 66
4, 84860, Note_on_c, 0, 64, 0
4, 84860, Note_on_c, 0, 67, 0
4, 84864, Note_on_c, 0, 76, 66
4, 84864, Note_on_c, 0, 72, 66
4, 85052, Note_on_c, 0, 72, 0
4, 85052, Note_on_c, 0, 76, 0
4, 85632, Note_on_c, 0, 72, 67
4, 85632, Note_on_c, 0, 67, 67
4, 85916, Note_on_c, 0, 67, 0
4, 85916, Note_on_c, 0, 72, 0
4, 85920, Note_on_c, 0, 67, 74
4, 85920, Note_on_c, 0, 63, 74
4, 86012, Note_on_c, 0, 63, 0
4, 86012, Note_on_c, 0, 67, 0
4, 86016, Note_on_c, 0, 75, 77
4, 86016, Note_on_c, 0, 72, 77
4, 86204, Note_on_c, 0, 72, 0
4, 86204, Note_on_c, 0, 75, 0
4, 86400, Note_on_c, 0, 78, 87
4, 86400, Note_on_c, 0, 72, 87
4, 86400, Note_on_c, 0, 69, 87
4, 87548, Note_on_c, 0, 69, 0
4, 87548, Note_on_c, 0, 72, 0
4, 87548, Note_on_c, 0, 78, 0
4, 88896, Note_on_c, 0, 79, 66
4, 88896, Note_on_c, 0, 74, 66
4, 88896, Note_on_c, 0, 71, 66
4, 88988, Note_on_c, 0, 71, 0
4, 88988, Note_on_c, 0, 74, 0
4, 88988, Note_on_c, 0, 79, 0
4, 89088, Note_on_c, 0, 79, 66
4, 89088, Note_on_c, 0, 74, 66
4, 89088, Note_on_c, 0, 71, 66
4, 89468, Note_on_c, 0, 71, 0
4, 89468, Note_on_c, 0, 74, 0
4, 89468, Note_on_c, 0, 79, 0
4, 90048, Note_on_c, 0, 74, 66
4, 90048, Note_on_c, 0, 71, 66
4, 90048, Note_on_c, 0, 67, 66
4, 90140, Note_on_c, 0, 67, 0
4, 90140, Note_on_c, 0, 71, 0
4, 90140, Note_on_c, 0, 74, 0
4, 90240, Note_on_c, 0, 74, 66
4, 90240, Note_on_c, 0, 71, 66
4, 90240, Note_on_c, 0, 67, 66
4, 90428, Note_on_c, 0, 67, 0
4, 90428, Note_on_c, 0, 71, 0
4, 90428, Note_on_c, 0, 74, 0
4, 92736, Note_on_c, 0, 55, 72
4, 92828, Note_on_c, 0, 55, 0
4, 92928, Note_on_c, 0, 59, 77
4, 93020, Note_on_c, 0, 59, 0
4, 93120, Note_on_c, 0, 62, 82
4, 93212, Note_on_c, 0, 62, 0
4, 93312, Note_on_c, 0, 65, 87
4, 93692, Note_on_c, 0, 65, 0
4, 106752, Note_on_c, 0, 79, 87
4, 106752, Note_on_c, 0, 76, 87
4, 107132, Note_on_c, 0, 76, 0
4, 107132, Note_on_c, 0, 79, 0
4, 107136, Note_on_c, 0, 76, 87
4, 107136, Note_on_c, 0, 79, 87
4, 107180, Note_on_c, 0, 79, 0
4, 107184, Note_on_c, 0, 81, 87
4, 107228, Note_on_c, 0, 81, 0
4, 107232, Note_on_c, 0, 79, 87
4, 107276, Note_on_c, 0, 79, 0
4, 107280, Note_on_c, 0, 81, 87
4, 107324, Note_on_c, 0, 81, 0
4, 107328, Note_on_c, 0, 79, 87
4, 107372, Note_on_c, 0, 79, 0
4, 107376, Note_on_c, 0, 81, 87
4, 107420, Note_on_c, 0, 81, 0
4, 107424, Note_on_c, 0, 79, 87
4, 107468, Note_on_c, 0, 79, 0
4, 107472, Note_on_c, 0, 81, 87
4, 107516, Note_on_c, 0, 81, 0
4, 107516, Note_on_c, 0, 76, 0
4, 107808, Note_on_c, 0, 77, 87
4, 107824, Note_on_c, 0, 81, 87
4, 107852, Note_on_c, 0, 77, 0
4, 107868, Note_on_c, 0, 81, 0
4, 107904, Note_on_c, 0, 77, 87
4, 107904, Note_on_c, 0, 74, 87
4, 108092, Note_on_c, 0, 74, 0
4, 108092, Note_on_c, 0, 77, 0
4, 108288, Note_on_c, 0, 76, 87
4, 108288, Note_on_c, 0, 72, 87
4, 108476, Note_on_c, 0, 72, 0
4, 108476, Note_on_c, 0, 76, 0
4, 109056, Note_on_c, 0, 72, 87
4, 109244, Note_on_c, 0, 72, 0
4, 109440, Note_on_c, 0, 73, 87
4, 109628, Note_on_c, 0, 73, 0
4, 109632, Note_on_c, 0, 74, 87
4, 109820, Note_on_c, 0, 74, 0
4, 109824, Note_on_c, 0, 76, 89
4, 110012, Note_on_c, 0, 76, 0
4, 110016, Note_on_c, 0, 74, 89
4, 110204, Note_on_c, 0, 74, 0
4, 110208, Note_on_c, 0, 77, 90
4, 110396, Note_on_c, 0, 77, 0
4, 110400, Note_on_c, 0, 74, 92
4, 110588, Note_on_c, 0, 74, 0
4, 110592, Note_on_c, 0, 72, 93
4, 110780, Note_on_c, 0, 72, 0
4, 110784, Note_on_c, 0, 71, 92
4, 110972, Note_on_c, 0, 71, 0
4, 110976, Note_on_c, 0, 69, 90
4, 111164, Note_on_c, 0, 69, 0
4, 111168, Note_on_c, 0, 67, 89
4, 111356, Note_on_c, 0, 67, 0
4, 111360, Note_on_c, 0, 74, 87
4, 111360, Note_on_c, 0, 79, 87
4, 111548, Note_on_c, 0, 74, 0
4, 111552, Note_on_c, 0, 77, 87
4, 111740, Note_on_c, 0, 77, 0
4, 111740, Note_on_c, 0, 79, 0
4, 111744, Note_on_c, 0, 76, 87
4, 111744, Note_on_c, 0, 79, 87
4, 111788, Note_on_c, 0, 79, 0
4, 111792, Note_on_c, 0, 81, 87
4, 111824, Note_on_c, 0, 79, 87
4, 111836, Note_on_c, 0, 81, 0
4, 111868, Note_on_c, 0, 79, 0
4, 111872, Note_on_c, 0, 81, 87
4, 111916, Note_on_c, 0, 81, 0
4, 111920, Note_on_c, 0, 79, 87
4, 111964, Note_on_c, 0, 79, 0
4, 111968, Note_on_c, 0, 81, 87
4, 112012, Note_on_c, 0, 81, 0
4, 112016, Note_on_c, 0, 79, 87
4, 112060, Note_on_c, 0, 79, 0
4, 112064, Note_on_c, 0, 81, 87
4, 112108, Note_on_c, 0, 81, 0
4, 112124, Note_on_c, 0, 76, 0
4, 112416, Note_on_c, 0, 77, 87
4, 112416, Note_on_c, 0, 81, 87
4, 112508, Note_on_c, 0, 81, 0
4, 112508, Note_on_c, 0, 77, 0
4, 112512, Note_on_c, 0, 77, 87
4, 112512, Note_on_c, 0, 74, 87
4, 112700, Note_on_c, 0, 74, 0
4, 112700, Note_on_c, 0, 77, 0
4, 112896, Note_on_c, 0, 76, 87
4, 112896, Note_on_c, 0, 72, 87
4, 113084, Note_on_c, 0, 72, 0
4, 113084, Note_on_c, 0, 76, 0
4, 113664, Note_on_c, 0, 72, 87
4, 113852, Note_on_c, 0, 72, 0
4, 114048, Note_on_c, 0, 74, 89
4, 114172, Note_on_c, 0, 74, 0
4, 114176, Note_on_c, 0, 77, 89
4, 114300, Note_on_c, 0, 77, 0
4, 114304, Note_on_c, 0, 81, 89
4, 114428, Note_on_c, 0, 81, 0
4, 114432, Note_on_c, 0, 72, 90
4, 114812, Note_on_c, 0, 72, 0
4, 114816, Note_on_c, 0, 71, 87
4, 114860, Note_on_c, 0, 71, 0
4, 114864, Note_on_c, 0, 72, 87
4, 114908, Note_on_c, 0, 72, 0
4, 114912, Note_on_c, 0, 71, 87
4, 114956, Note_on_c, 0, 71, 0
4, 114960, Note_on_c, 0, 72, 87
4, 115004, Note_on_c, 0, 72, 0
4, 115008, Note_on_c, 0, 69, 87
4, 115100, Note_on_c, 0, 69, 0
4, 115104, Note_on_c, 0, 71, 87
4, 115196, Note_on_c, 0, 71, 0
4, 115200, Note_on_c, 0, 72, 87
4, 115580, Note_on_c, 0, 72, 0
4, 115968, Note_on_c, 0, 67, 66
4, 116348, Note_on_c, 0, 67, 0
4, 116352, Note_on_c, 0, 76, 66
4, 116540, Note_on_c, 0, 76, 0
4, 116928, Note_on_c, 0, 79, 66
4, 117116, Note_on_c, 0, 79, 0
4, 117120, Note_on_c, 0, 67, 66
4, 117120, Note_on_c, 0, 77, 66
4, 117308, Note_on_c, 0, 77, 0
4, 117312, Note_on_c, 0, 74, 66
4, 117500, Note_on_c, 0, 74, 0
4, 117500, Note_on_c, 0, 67, 0
4, 117504, Note_on_c, 0, 72, 66
4, 117504, Note_on_c, 0, 64, 66
4, 118076, Note_on_c, 0, 64, 0
4, 118076, Note_on_c, 0, 72, 0
4, 118080, Note_on_c, 0, 76, 66
4, 118080, Note_on_c, 0, 67, 66
4, 118268, Note_on_c, 0, 67, 0
4, 118268, Note_on_c, 0, 76, 0
4, 118272, Note_on_c, 0, 74, 66
4, 118272, Note_on_c, 0, 65, 66
4, 118460, Note_on_c, 0, 65, 0
4, 118460, Note_on_c, 0, 74, 0
4, 118464, Note_on_c, 0, 71, 66
4, 118464, Note_on_c, 0, 62, 66
4, 118652, Note_on_c, 0, 62, 0
4, 118652, Note_on_c, 0, 71, 0
4, 118656, Note_on_c, 0, 76, 66
4, 118656, Note_on_c, 0, 72, 66
4, 118844, Note_on_c, 0, 72, 0
4, 118844, Note_on_c, 0, 76, 0
4, 119040, Note_on_c, 0, 76, 66
4, 119040, Note_on_c, 0, 72, 66
4, 119228, Note_on_c, 0, 72, 0
4, 119228, Note_on_c, 0, 76, 0
4, 119232, Note_on_c, 0, 79, 66
4, 119232, Note_on_c, 0, 76, 66
4, 119420, Note_on_c, 0, 76, 0
4, 119420, Note_on_c, 0, 79, 0
4, 119424, Note_on_c, 0, 77, 66
4, 119424, Note_on_c, 0, 74, 66
4, 119612, Note_on_c, 0, 74, 0
4, 119612, Note_on_c, 0, 77, 0
4, 119616, Note_on_c, 0, 74, 66
4, 119616, Note_on_c, 0, 71, 66
4, 119804, Note_on_c, 0, 71, 0
4, 119804, Note_on_c, 0, 74, 0
4, 119808, Note_on_c, 0, 72, 66
4, 119808, Note_on_c, 0, 64, 66
4, 120188, Note_on_c, 0, 64, 0
4, 120188, Note_on_c, 0, 72, 0
4, 120192, Note_on_c, 0, 72, 66
4, 120192, Note_on_c, 0, 64, 66
4, 120380, Note_on_c, 0, 64, 0
4, 120380, Note_on_c, 0, 72, 0
4, 120384, Note_on_c, 0, 76, 66
4, 120384, Note_on_c, 0, 67, 66
4, 120572, Note_on_c, 0, 67, 0
4, 120572, Note_on_c, 0, 76, 0
4, 120576, Note_on_c, 0, 74, 66
4, 120576, Note_on_c, 0, 65, 66
4, 120764, Note_on_c, 0, 65, 0
4, 120764, Note_on_c, 0, 74, 0
4, 120768, Note_on_c, 0, 71, 66
4, 120768, Note_on_c, 0, 62, 66
4, 120956, Note_on_c, 0, 62, 0
4, 120956, Note_on_c, 0, 71, 0
4, 120960, Note_on_c, 0, 83, 87
4, 120960, Note_on_c, 0, 74, 87
4, 121148, Note_on_c, 0, 74, 0
4, 121148, Note_on_c, 0, 83, 0
4, 121152, Note_on_c, 0, 84, 87
4, 121152, Note_on_c, 0, 76, 87
4, 121340, Note_on_c, 0, 76, 0
4, 121340, Note_on_c, 0, 84, 0
4, 121344, Note_on_c, 0, 86, 87
4, 121344, Note_on_c, 0, 77, 87
4, 121532, Note_on_c, 0, 77, 0
4, 121532, Note_on_c, 0, 86, 0
4, 121536, Note_on_c, 0, 84, 87
4, 121536, Note_on_c, 0, 76, 87
4, 121724, Note_on_c, 0, 76, 0
4, 121724, Note_on_c, 0, 84, 0
4, 121728, Note_on_c, 0, 83, 87
4, 121728, Note_on_c, 0, 74, 87
4, 121916, Note_on_c, 0, 74, 0
4, 121916, Note_on_c, 0, 83, 0
4, 121920, Note_on_c, 0, 81, 87
4, 121920, Note_on_c, 0, 72, 87
4, 122108, Note_on_c, 0, 72, 0
4, 122108, Note_on_c, 0, 81, 0
4, 122112, Note_on_c, 0, 79, 87
4, 122112, Note_on_c, 0, 71, 87
4, 122300, Note_on_c, 0, 71, 0
4, 122300, Note_on_c, 0, 79, 0
4, 122304, Note_on_c, 0, 77, 87
4, 122304, Note_on_c, 0, 74, 87
4, 122492, Note_on_c, 0, 74, 0
4, 122492, Note_on_c, 0, 77, 0
4, 122496, Note_on_c, 0, 77, 87
4, 122496, Note_on_c, 0, 74, 87
4, 122876, Note_on_c, 0, 74, 0
4, 122876, Note_on_c, 0, 77, 0
4, 122880, Note_on_c, 0, 76, 87
4, 122880, Note_on_c, 0, 72, 87
4, 123260, Note_on_c, 0, 72, 0
4, 123260, Note_on_c, 0, 76, 0
4, 123264, Note_on_c, 0, 69, 87
4, 123264, Note_on_c, 0, 76, 87
4, 123452, Note_on_c, 0, 76, 0
4, 123456, Note_on_c, 0, 74, 87
4, 123644, Note_on_c, 0, 74, 0
4, 123644, Note_on_c, 0, 69, 0
4, 123648, Note_on_c, 0, 77, 89
4, 123648, Note_on_c, 0, 69, 89
4, 123836, Note_on_c, 0, 69, 0
4, 123836, Note_on_c, 0, 77, 0
4, 123840, Note_on_c, 0, 74, 89
4, 123840, Note_on_c, 0, 65, 89
4, 124028, Note_on_c, 0, 65, 0
4, 124028, Note_on_c, 0, 74, 0
4, 124032, Note_on_c, 0, 72, 90
4, 124032, Note_on_c, 0, 64, 90
4, 124220, Note_on_c, 0, 64, 0
4, 124220, Note_on_c, 0, 72, 0
4, 124224, Note_on_c, 0, 71, 92
4, 124224, Note_on_c, 0, 62, 92
4, 124412, Note_on_c, 0, 62, 0
4, 124412, Note_on_c, 0, 71, 0
4, 124416, Note_on_c, 0, 72, 87
4, 124416, Note_on_c, 0, 64, 87
4, 124604, Note_on_c, 0, 64, 0
4, 124604, Note_on_c, 0, 72, 0
4, 124608, Note_on_c, 0, 79, 87
4, 124608, Note_on_c, 0, 76, 87
4, 124796, Note_on_c, 0, 76, 0
4, 124796, Note_on_c, 0, 79, 0
4, 124800, Note_on_c, 0, 79, 87
4, 124800, Note_on_c, 0, 76, 87
4, 124892, Note_on_c, 0, 76, 0
4, 124892, Note_on_c, 0, 79, 0
4, 124992, Note_on_c, 0, 79, 87
4, 124992, Note_on_c, 0, 76, 87
4, 125084, Note_on_c, 0, 76, 0
4, 125084, Note_on_c, 0, 79, 0
4, 125184, Note_on_c, 0, 79, 87
4, 125184, Note_on_c, 0, 76, 87
4, 125276, Note_on_c, 0, 76, 0
4, 125276, Note_on_c, 0, 79, 0
4, 125376, Note_on_c, 0, 79, 87
4, 125376, Note_on_c, 0, 76, 87
4, 125468, Note_on_c, 0, 76, 0
4, 125468, Note_on_c, 0, 79, 0
4, 125568, Note_on_c, 0, 77, 86
4, 125568, Note_on_c, 0, 81, 86
4, 125756, Note_on_c, 0, 81, 0
4, 125756, Note_on_c, 0, 77, 0
4, 125760, Note_on_c, 0, 79, 83
4, 125760, Note_on_c, 0, 76, 83
4, 125948, Note_on_c, 0, 76, 0
4, 125948, Note_on_c, 0, 79, 0
4, 125952, Note_on_c, 0, 77, 80
4, 125952, Note_on_c, 0, 74, 80
4, 126044, Note_on_c, 0, 74, 0
4, 126044, Note_on_c, 0, 77, 0
4, 126144, Note_on_c, 0, 76, 77
4, 126144, Note_on_c, 0, 72, 77
4, 126236, Note_on_c, 0, 72, 0
4, 126236, Note_on_c, 0, 76, 0
4, 126336, Note_on_c, 0, 77, 73
4, 126336, Note_on_c, 0, 74, 73
4, 126524, Note_on_c, 0, 74, 0
4, 126524, Note_on_c, 0, 77, 0
4, 126528, Note_on_c, 0, 74, 70
4, 126528, Note_on_c, 0, 71, 70
4, 126716, Note_on_c, 0, 71, 0
4, 126716, Note_on_c, 0, 74, 0
4, 126720, Note_on_c, 0, 72, 66
4, 126908, Note_on_c, 0, 72, 0
4, 126912, Note_on_c, 0, 76, 70
4, 126912, Note_on_c, 0, 79, 70
4, 127100, Note_on_c, 0, 79, 0
4, 127100, Note_on_c, 0, 76, 0
4, 127104, Note_on_c, 0, 79, 73
4, 127104, Note_on_c, 0, 76, 73
4, 127196, Note_on_c, 0, 76, 0
4, 127196, Note_on_c, 0, 79, 0
4, 127296, Note_on_c, 0, 79, 77
4, 127296, Note_on_c, 0, 76, 77
4, 127388, Note_on_c, 0, 76, 0
4, 127388, Note_on_c, 0, 79, 0
4, 127488, Note_on_c, 0, 79, 80
4, 127488, Note_on_c, 0, 76, 80
4, 127580, Note_on_c, 0, 76, 0
4, 127580, Note_on_c, 0, 79, 0
4, 127680, Note_on_c, 0, 79, 83
4, 127680, Note_on_c, 0, 76, 83
4, 127772, Note_on_c, 0, 76, 0
4, 127772, Note_on_c, 0, 79, 0
4, 127872, Note_on_c, 0, 81, 86
4, 127872, Note_on_c, 0, 77, 86
4, 128060, Note_on_c, 0, 77, 0
4, 128060, Note_on_c, 0, 81, 0
4, 128064, Note_on_c, 0, 79, 83
4, 128064, Note_on_c, 0, 76, 83
4, 128252, Note_on_c, 0, 76, 0
4, 128252, Note_on_c, 0, 79, 0
4, 128256, Note_on_c, 0, 77, 80
4, 128256, Note_on_c, 0, 74, 80
4, 128348, Note_on_c, 0, 74, 0
4, 128348, Note_on_c, 0, 77, 0
4, 128448, Note_on_c, 0, 76, 77
4, 128448, Note_on_c, 0, 72, 77
4, 128540, Note_on_c, 0, 72, 0
4, 128540, Note_on_c, 0, 76, 0
4, 128640, Note_on_c, 0, 77, 73
4, 128640, Note_on_c, 0, 74, 73
4, 128828, Note_on_c, 0, 74, 0
4, 128828, Note_on_c, 0, 77, 0
4, 128832, Note_on_c, 0, 74, 70
4, 128832, Note_on_c, 0, 71, 70
4, 129020, Note_on_c, 0, 71, 0
4, 129020, Note_on_c, 0, 74, 0
4, 129024, Note_on_c, 0, 72, 66
4, 129116, Note_on_c, 0, 72, 0
4, 129408, Note_on_c, 0, 76, 66
4, 129408, Note_on_c, 0, 64, 66
4, 129500, Note_on_c, 0, 64, 0
4, 129500, Note_on_c, 0, 76, 0
4, 129792, Note_on_c, 0, 77, 66
4, 129792, Note_on_c, 0, 65, 66
4, 129884, Note_on_c, 0, 65, 0
4, 129884, Note_on_c, 0, 77, 0
4, 130176, Note_on_c, 0, 78, 66
4, 130176, Note_on_c, 0, 66, 66
4, 130268, Note_on_c, 0, 66, 0
4, 130268, Note_on_c, 0, 78, 0
4, 130560, Note_on_c, 0, 79, 66
4, 130560, Note_on_c, 0, 67, 66
4, 130652, Note_on_c, 0, 67, 0
4, 130652, Note_on_c, 0, 79, 0
4, 130944, Note_on_c, 0, 80, 66
4, 130944, Note_on_c, 0, 68, 66
4, 131036, Note_on_c, 0, 68, 0
4, 131036, Note_on_c, 0, 80, 0
4, 131328, Note_on_c, 0, 81, 66
4, 131328, Note_on_c, 0, 69, 66
4, 131708, Note_on_c, 0, 69, 0
4, 131708, Note_on_c, 0, 81, 0
4, 140544, Note_on_c, 0, 81, 66
4, 140732, Note_on_c, 0, 81, 0
4, 140736, Note_on_c, 0, 76, 66
4, 140924, Note_on_c, 0, 76, 0
4, 140928, Note_on_c, 0, 76, 66
4, 141692, Note_on_c, 0, 76, 0
4, 141696, Note_on_c, 0, 77, 66
4, 141740, Note_on_c, 0, 77, 0
4, 141744, Note_on_c, 0, 79, 66
4, 141788, Note_on_c, 0, 79, 0
4, 141792, Note_on_c, 0, 77, 66
4, 141836, Note_on_c, 0, 77, 0
4, 141840, Note_on_c, 0, 79, 66
4, 141884, Note_on_c, 0, 79, 0
4, 141888, Note_on_c, 0, 76, 66
4, 142076, Note_on_c, 0, 76, 0
4, 142080, Note_on_c, 0, 76, 66
4, 143036, Note_on_c, 0, 76, 0
4, 143040, Note_on_c, 0, 84, 66
4, 143420, Note_on_c, 0, 84, 0
4, 143424, Note_on_c, 0, 83, 66
4, 143804, Note_on_c, 0, 83, 0
4, 143808, Note_on_c, 0, 81, 66
4, 144176, Note_on_c, 0, 80, 66
4, 144188, Note_on_c, 0, 81, 0
4, 144556, Note_on_c, 0, 80, 0
4, 144576, Note_on_c, 0, 81, 66
4, 144764, Note_on_c, 0, 81, 0
4, 144768, Note_on_c, 0, 77, 66
4, 144956, Note_on_c, 0, 77, 0
4, 144960, Note_on_c, 0, 76, 66
4, 145148, Note_on_c, 0, 76, 0
4, 147456, Note_on_c, 0, 69, 80
4, 147456, Note_on_c, 0, 64, 80
4, 147836, Note_on_c, 0, 64, 0
4, 147836, Note_on_c, 0, 69, 0
4, 148608, Note_on_c, 0, 69, 80
4, 148608, Note_on_c, 0, 65, 80
4, 148988, Note_on_c, 0, 65, 0
4, 148988, Note_on_c, 0, 69, 0
4, 150128, Note_on_c, 0, 69, 80
4, 150144, Note_on_c, 0, 64, 80
4, 150144, Note_on_c, 0, 60, 80
4, 150508, Note_on_c, 0, 69, 0
4, 150524, Note_on_c, 0, 60, 0
4, 150524, Note_on_c, 0, 64, 0
4, 150528, Note_on_c, 0, 68, 80
4, 150528, Note_on_c, 0, 62, 80
4, 150528, Note_on_c, 0, 59, 80
4, 150908, Note_on_c, 0, 59, 0
4, 150908, Note_on_c, 0, 62, 0
4, 150908, Note_on_c, 0, 68, 0
4, 150912, Note_on_c, 0, 69, 80
4, 150912, Note_on_c, 0, 60, 80
4, 151292, Note_on_c, 0, 60, 0
4, 151292, Note_on_c, 0, 69, 0
4, 152064, Note_on_c, 0, 75, 87
4, 152064, Note_on_c, 0, 69, 87
4, 153212, Note_on_c, 0, 69, 0
4, 153212, Note_on_c, 0, 75, 0
4, 153216, Note_on_c, 0, 76, 66
4, 153216, Note_on_c, 0, 68, 66
4, 153596, Note_on_c, 0, 68, 0
4, 153596, Note_on_c, 0, 76, 0
4, 154368, Note_on_c, 0, 74, 87
4, 154368, Note_on_c, 0, 68, 87
4, 154368, Note_on_c, 0, 62, 87
4, 155516, Note_on_c, 0, 62, 0
4, 155516, Note_on_c, 0, 68, 0
4, 155516, Note_on_c, 0, 74, 0
4, 155520, Note_on_c, 0, 72, 66
4, 155520, Note_on_c, 0, 69, 66
4, 155520, Note_on_c, 0, 64, 66
4, 155900, Note_on_c, 0, 64, 0
4, 155900, Note_on_c, 0, 69, 0
4, 155900, Note_on_c, 0, 72, 0
4, 158016, Note_on_c, 0, 76, 94
4, 158108, Note_on_c, 0, 76, 0
4, 158208, Note_on_c, 0, 76, 94
4, 158300, Note_on_c, 0, 76, 0
4, 158400, Note_on_c, 0, 76, 94
4, 158492, Note_on_c, 0, 76, 0
4, 158592, Note_on_c, 0, 76, 94
4, 158684, Note_on_c, 0, 76, 0
4, 158784, Note_on_c, 0, 76, 94
4, 158876, Note_on_c, 0, 76, 0
4, 158976, Note_on_c, 0, 77, 94
4, 159164, Note_on_c, 0, 77, 0
4, 159168, Note_on_c, 0, 76, 94
4, 159356, Note_on_c, 0, 76, 0
4, 159360, Note_on_c, 0, 74, 94
4, 159452, Note_on_c, 0, 74, 0
4, 159552, Note_on_c, 0, 72, 94
4, 159644, Note_on_c, 0, 72, 0
4, 159744, Note_on_c, 0, 71, 94
4, 159836, Note_on_c, 0, 71, 0
4, 159936, Note_on_c, 0, 69, 94
4, 160028, Note_on_c, 0, 69, 0
4, 160128, Note_on_c, 0, 75, 94
4, 160220, Note_on_c, 0, 75, 0
4, 160224, Note_on_c, 0, 76, 94
4, 160412, Note_on_c, 0, 76, 0
4, 160512, Note_on_c, 0, 64, 94
4, 160892, Note_on_c, 0, 64, 0
4, 162624, Note_on_c, 0, 81, 87
4, 162624, Note_on_c, 0, 78, 87
4, 162624, Note_on_c, 0, 84, 87
4, 163004, Note_on_c, 0, 84, 0
4, 163004, Note_on_c, 0, 78, 0
4, 163004, Note_on_c, 0, 81, 0
4, 163008, Note_on_c, 0, 84, 66
4, 163008, Note_on_c, 0, 81, 66
4, 163008, Note_on_c, 0, 78, 66
4, 163388, Note_on_c, 0, 78, 0
4, 163388, Note_on_c, 0, 81, 0
4, 163388, Note_on_c, 0, 84, 0
4, 163392, Note_on_c, 0, 84, 66
4, 163392, Note_on_c, 0, 81, 66
4, 163392, Note_on_c, 0, 78, 66
4, 163580, Note_on_c, 0, 78, 0
4, 163580, Note_on_c, 0, 81, 0
4, 163580, Note_on_c, 0, 84, 0
4, 163584, Note_on_c, 0, 79, 66
4, 163584, Note_on_c, 0, 83, 66
4, 163964, Note_on_c, 0, 83, 0
4, 163964, Note_on_c, 0, 79, 0
4, 164928, Note_on_c, 0, 69, 87
4, 164928, Note_on_c, 0, 72, 87
4, 164928, Note_on_c, 0, 75, 87
4, 165308, Note_on_c, 0, 75, 0
4, 165308, Note_on_c, 0, 72, 0
4, 165308, Note_on_c, 0, 69, 0
4, 165312, Note_on_c, 0, 75, 66
4, 165312, Note_on_c, 0, 72, 66
4, 165312, Note_on_c, 0, 69, 66
4, 165692, Note_on_c, 0, 69, 0
4, 165692, Note_on_c, 0, 72, 0
4, 165692, Note_on_c, 0, 75, 0
4, 165696, Note_on_c, 0, 75, 66
4, 165696, Note_on_c, 0, 72, 66
4, 165696, Note_on_c, 0, 69, 66
4, 165884, Note_on_c, 0, 69, 0
4, 165884, Note_on_c, 0, 72, 0
4, 165884, Note_on_c, 0, 75, 0
4, 165888, Note_on_c, 0, 76, 66
4, 165888, Note_on_c, 0, 71, 66
4, 166268, Note_on_c, 0, 71, 0
4, 166268, Note_on_c, 0, 76, 0
4, 169344, Note_on_c, 0, 83, 66
4, 169344, Note_on_c, 0, 71, 66
4, 169724, Note_on_c, 0, 71, 0
4, 169724, Note_on_c, 0, 83, 0
4, 169728, Note_on_c, 0, 79, 66
4, 169728, Note_on_c, 0, 67, 66
4, 170108, Note_on_c, 0, 67, 0
4, 170108, Note_on_c, 0, 79, 0
4, 170112, Note_on_c, 0, 76, 66
4, 170112, Note_on_c, 0, 64, 66
4, 170204, Note_on_c, 0, 64, 0
4, 170204, Note_on_c, 0, 76, 0
4, 170496, Note_on_c, 0, 84, 67
4, 170496, Note_on_c, 0, 72, 67
4, 170876, Note_on_c, 0, 72, 0
4, 170876, Note_on_c, 0, 84, 0
4, 170880, Note_on_c, 0, 81, 67
4, 170880, Note_on_c, 0, 69, 67
4, 171068, Note_on_c, 0, 69, 0
4, 171068, Note_on_c, 0, 81, 0
4, 171248, Note_on_c, 0, 66, 69
4, 171264, Note_on_c, 0, 78, 69
4, 171436, Note_on_c, 0, 66, 0
4, 171452, Note_on_c, 0, 78, 0
4, 171648, Note_on_c, 0, 79, 70
4, 171648, Note_on_c, 0, 69, 70
4, 172028, Note_on_c, 0, 69, 0
4, 172028, Note_on_c, 0, 79, 0
4, 172032, Note_on_c, 0, 76, 70
4, 172032, Note_on_c, 0, 67, 70
4, 172412, Note_on_c, 0, 67, 0
4, 172412, Note_on_c, 0, 76, 0
4, 172416, Note_on_c, 0, 75, 71
4, 172416, Note_on_c, 0, 66, 71
4, 172796, Note_on_c, 0, 66, 0
4, 172796, Note_on_c, 0, 75, 0
4, 172800, Note_on_c, 0, 76, 72
4, 172800, Note_on_c, 0, 67, 72
4, 173180, Note_on_c, 0, 67, 0
4, 173180, Note_on_c, 0, 76, 0
4, 184320, Note_on_c, 0, 81, 66
4, 184508, Note_on_c, 0, 81, 0
4, 184512, Note_on_c, 0, 76, 66
4, 184700, Note_on_c, 0, 76, 0
4, 184704, Note_on_c, 0, 76, 66
4, 185468, Note_on_c, 0, 76, 0
4, 185472, Note_on_c, 0, 77, 66
4, 185516, Note_on_c, 0, 77, 0
4, 185520, Note_on_c, 0, 79, 66
4, 185564, Note_on_c, 0, 79, 0
4, 185568, Note_on_c, 0, 77, 66
4, 185612, Note_on_c, 0, 77, 0
4, 185616, Note_on_c, 0, 79, 66
4, 185660, Note_on_c, 0, 79, 0
4, 185664, Note_on_c, 0, 76, 66
4, 185852, Note_on_c, 0, 76, 0
4, 185856, Note_on_c, 0, 76, 66
4, 186800, Note_on_c, 0, 84, 66
4, 186812, Note_on_c, 0, 76, 0
4, 187180, Note_on_c, 0, 84, 0
4, 187200, Note_on_c, 0, 83, 66
4, 187580, Note_on_c, 0, 83, 0
4, 187584, Note_on_c, 0, 81, 66
4, 187964, Note_on_c, 0, 81, 0
4, 187968, Note_on_c, 0, 80, 66
4, 188348, Note_on_c, 0, 80, 0
4, 188352, Note_on_c, 0, 81, 66
4, 188540, Note_on_c, 0, 81, 0
4, 188544, Note_on_c, 0, 77, 66
4, 188732, Note_on_c, 0, 77, 0
4, 188736, Note_on_c, 0, 76, 66
4, 188924, Note_on_c, 0, 76, 0
4, 191232, Note_on_c, 0, 82, 66
4, 191232, Note_on_c, 0, 79, 66
4, 192764, Note_on_c, 0, 79, 0
4, 192764, Note_on_c, 0, 82, 0
4, 192768, Note_on_c, 0, 76, 66
4, 192768, Note_on_c, 0, 73, 66
4, 193148, Note_on_c, 0, 73, 0
4, 193148, Note_on_c, 0, 76, 0
4, 193536, Note_on_c, 0, 84, 66
4, 193536, Note_on_c, 0, 81, 66
4, 195068, Note_on_c, 0, 81, 0
4, 195068, Note_on_c, 0, 84, 0
4, 195072, Note_on_c, 0, 78, 66
4, 195072, Note_on_c, 0, 75, 66
4, 195452, Note_on_c, 0, 75, 0
4, 195452, Note_on_c, 0, 78, 0
4, 195840, Note_on_c, 0, 86, 80
4, 195840, Note_on_c, 0, 83, 80
4, 196604, Note_on_c, 0, 83, 0
4, 196604, Note_on_c, 0, 86, 0
4, 196608, Note_on_c, 0, 74, 80
4, 196608, Note_on_c, 0, 71, 80
4, 196988, Note_on_c, 0, 71, 0
4, 196988, Note_on_c, 0, 74, 0
4, 196992, Note_on_c, 0, 72, 80
4, 196992, Note_on_c, 0, 69, 80
4, 197180, Note_on_c, 0, 69, 0
4, 197180, Note_on_c, 0, 72, 0
4, 197760, Note_on_c, 0, 77, 82
4, 197760, Note_on_c, 0, 69, 82
4, 197948, Note_on_c, 0, 69, 0
4, 197948, Note_on_c, 0, 77, 0
4, 198144, Note_on_c, 0, 76, 83
4, 198144, Note_on_c, 0, 69, 83
4, 198428, Note_on_c, 0, 76, 0
4, 198432, Note_on_c, 0, 77, 87
4, 198524, Note_on_c, 0, 77, 0
4, 198524, Note_on_c, 0, 69, 0
4, 198528, Note_on_c, 0, 69, 87
4, 198528, Note_on_c, 0, 64, 87
4, 198528, Note_on_c, 0, 60, 87
4, 198908, Note_on_c, 0, 60, 0
4, 198908, Note_on_c, 0, 64, 0
4, 198908, Note_on_c, 0, 69, 0
4, 198912, Note_on_c, 0, 68, 83
4, 198912, Note_on_c, 0, 64, 83
4, 198912, Note_on_c, 0, 59, 83
4, 199292, Note_on_c, 0, 59, 0
4, 199292, Note_on_c, 0, 64, 0
4, 199292, Note_on_c, 0, 68, 0
4, 199296, Note_on_c, 0, 86, 80
4, 199296, Note_on_c, 0, 83, 80
4, 200060, Note_on_c, 0, 83, 0
4, 200060, Note_on_c, 0, 86, 0
4, 200064, Note_on_c, 0, 74, 80
4, 200064, Note_on_c, 0, 71, 80
4, 200444, Note_on_c, 0, 71, 0
4, 200444, Note_on_c, 0, 74, 0
4, 200448, Note_on_c, 0, 72, 80
4, 200448, Note_on_c, 0, 69, 80
4, 200828, Note_on_c, 0, 69, 0
4, 200828, Note_on_c, 0, 72, 0
4, 201216, Note_on_c, 0, 77, 80
4, 201216, Note_on_c, 0, 69, 80
4, 201404, Note_on_c, 0, 69, 0
4, 201404, Note_on_c, 0, 77, 0
4, 201984, Note_on_c, 0, 68, 82
4, 201984, Note_on_c, 0, 65, 82
4, 201984, Note_on_c, 0, 59, 82
4, 202364, Note_on_c, 0, 59, 0
4, 202364, Note_on_c, 0, 65, 0
4, 202364, Note_on_c, 0, 68, 0
4, 202368, Note_on_c, 0, 77, 85
4, 202368, Note_on_c, 0, 71, 85
4, 202368, Note_on_c, 0, 68, 85
4, 202748, Note_on_c, 0, 68, 0
4, 202748, Note_on_c, 0, 71, 0
4, 202748, Note_on_c, 0, 77, 0
4, 202752, Note_on_c, 0, 76, 87
4, 202752, Note_on_c, 0, 69, 87
4, 203036, Note_on_c, 0, 76, 0
4, 203040, Note_on_c, 0, 77, 83
4, 203132, Note_on_c, 0, 77, 0
4, 203132, Note_on_c, 0, 69, 0
4, 203136, Note_on_c, 0, 69, 82
4, 203136, Note_on_c, 0, 64, 82
4, 203136, Note_on_c, 0, 60, 82
4, 203516, Note_on_c, 0, 60, 0
4, 203516, Note_on_c, 0, 64, 0
4, 203516, Note_on_c, 0, 69, 0
4, 203520, Note_on_c, 0, 68, 80
4, 203520, Note_on_c, 0, 64, 80
4, 203520, Note_on_c, 0, 59, 80
4, 203900, Note_on_c, 0, 59, 0
4, 203900, Note_on_c, 0, 64, 0
4, 203900, Note_on_c, 0, 68, 0
4, 203904, Note_on_c, 0, 69, 66
4, 203904, Note_on_c, 0, 64, 66
4, 203904, Note_on_c, 0, 60, 66
4, 204284, Note_on_c, 0, 60, 0
4, 204284, Note_on_c, 0, 64, 0
4, 204284, Note_on_c, 0, 69, 0
4, 210816, Note_on_c, 0, 79, 66
4, 210816, Note_on_c, 0, 64, 66
4, 211200, Note_on_c, 0, 72, 66
4, 211200, Note_on_c, 0, 67, 66
4, 211580, Note_on_c, 0, 67, 0
4, 211580, Note_on_c, 0, 72, 0
4, 211584, Note_on_c, 0, 76, 66
4, 211584, Note_on_c, 0, 72, 66
4, 211772, Note_on_c, 0, 72, 0
4, 211772, Note_on_c, 0, 76, 0
4, 211964, Note_on_c, 0, 64, 0
4, 211968, Note_on_c, 0, 59, 66
4, 212352, Note_on_c, 0, 74, 66
4, 212352, Note_on_c, 0, 67, 66
4, 212732, Note_on_c, 0, 67, 0
4, 212732, Note_on_c, 0, 74, 0
4, 212736, Note_on_c, 0, 77, 66
4, 212736, Note_on_c, 0, 74, 66
4, 212924, Note_on_c, 0, 74, 0
4, 212924, Note_on_c, 0, 77, 0
4, 213116, Note_on_c, 0, 59, 0
4, 213116, Note_on_c, 0, 79, 0
4, 213120, Note_on_c, 0, 84, 66
4, 213120, Note_on_c, 0, 60, 66
4, 213504, Note_on_c, 0, 76, 66
4, 213504, Note_on_c, 0, 72, 66
4, 213872, Note_on_c, 0, 76, 66
4, 213884, Note_on_c, 0, 72, 0
4, 213884, Note_on_c, 0, 76, 0
4, 213888, Note_on_c, 0, 79, 66
4, 214060, Note_on_c, 0, 76, 0
4, 214076, Note_on_c, 0, 79, 0
4, 214268, Note_on_c, 0, 60, 0
4, 214272, Note_on_c, 0, 69, 66
4, 214656, Note_on_c, 0, 77, 66
4, 214656, Note_on_c, 0, 72, 66
4, 215036, Note_on_c, 0, 72, 0
4, 215036, Note_on_c, 0, 77, 0
4, 215040, Note_on_c, 0, 81, 66
4, 215040, Note_on_c, 0, 77, 66
4, 215228, Note_on_c, 0, 77, 0
4, 215228, Note_on_c, 0, 81, 0
4, 215420, Note_on_c, 0, 69, 0
4, 215420, Note_on_c, 0, 84, 0
4, 215424, Note_on_c, 0, 84, 80
4, 215424, Note_on_c, 0, 79, 80
4, 215424, Note_on_c, 0, 72, 80
4, 215424, Note_on_c, 0, 64, 80
4, 215612, Note_on_c, 0, 64, 0
4, 215612, Note_on_c, 0, 84, 0
4, 215612, Note_on_c, 0, 79, 0
4, 215612, Note_on_c, 0, 72, 0
4, 216192, Note_on_c, 0, 79, 80
4, 216192, Note_on_c, 0, 67, 80
4, 216192, Note_on_c, 0, 64, 80
4, 216380, Note_on_c, 0, 64, 0
4, 216380, Note_on_c, 0, 67, 0
4, 216380, Note_on_c, 0, 79, 0
4, 216576, Note_on_c, 0, 81, 80
4, 216576, Note_on_c, 0, 69, 80
4, 216576, Note_on_c, 0, 65, 80
4, 216668, Note_on_c, 0, 65, 0
4, 216668, Note_on_c, 0, 69, 0
4, 216668, Note_on_c, 0, 81, 0
4, 216768, Note_on_c, 0, 79, 80
4, 216768, Note_on_c, 0, 67, 80
4, 216768, Note_on_c, 0, 64, 80
4, 216860, Note_on_c, 0, 64, 0
4, 216860, Note_on_c, 0, 67, 0
4, 216860, Note_on_c, 0, 79, 0
4, 216960, Note_on_c, 0, 77, 80
4, 216960, Note_on_c, 0, 65, 80
4, 216960, Note_on_c, 0, 62, 80
4, 217052, Note_on_c, 0, 62, 0
4, 217052, Note_on_c, 0, 65, 0
4, 217052, Note_on_c, 0, 77, 0
4, 217152, Note_on_c, 0, 76, 80
4, 217152, Note_on_c, 0, 64, 80
4, 217152, Note_on_c, 0, 60, 80
4, 217244, Note_on_c, 0, 60, 0
4, 217244, Note_on_c, 0, 64, 0
4, 217244, Note_on_c, 0, 76, 0
4, 217328, Note_on_c, 0, 62, 80
4, 217328, Note_on_c, 0, 59, 80
4, 217344, Note_on_c, 0, 74, 73
4, 217420, Note_on_c, 0, 59, 0
4, 217420, Note_on_c, 0, 62, 0
4, 217436, Note_on_c, 0, 74, 0
4, 217520, Note_on_c, 0, 60, 71
4, 217536, Note_on_c, 0, 72, 70
4, 217536, Note_on_c, 0, 57, 70
4, 217612, Note_on_c, 0, 60, 0
4, 217628, Note_on_c, 0, 57, 0
4, 217628, Note_on_c, 0, 72, 0
4, 217728, Note_on_c, 0, 71, 66
4, 217728, Note_on_c, 0, 59, 66
4, 218108, Note_on_c, 0, 59, 0
4, 218108, Note_on_c, 0, 71, 0
4, 218880, Note_on_c, 0, 76, 66
4, 218880, Note_on_c, 0, 72, 66
4, 219068, Note_on_c, 0, 72, 0
4, 219068, Note_on_c, 0, 76, 0
4, 219648, Note_on_c, 0, 76, 66
4, 219648, Note_on_c, 0, 72, 66
4, 219836, Note_on_c, 0, 72, 0
4, 219836, Note_on_c, 0, 76, 0
4, 220032, Note_on_c, 0, 74, 66
4, 220032, Note_on_c, 0, 71, 66
4, 220220, Note_on_c, 0, 71, 0
4, 220220, Note_on_c, 0, 74, 0
4, 220800, Note_on_c, 0, 77, 67
4, 220800, Note_on_c, 0, 71, 67
4, 220988, Note_on_c, 0, 71, 0
4, 220988, Note_on_c, 0, 77, 0
4, 221184, Note_on_c, 0, 76, 72
4, 221184, Note_on_c, 0, 72, 72
4, 221372, Note_on_c, 0, 72, 0
4, 221372, Note_on_c, 0, 76, 0
4, 221952, Note_on_c, 0, 76, 82
4, 221952, Note_on_c, 0, 72, 82
4, 222140, Note_on_c, 0, 72, 0
4, 222140, Note_on_c, 0, 76, 0
4, 222336, Note_on_c, 0, 71, 87
4, 222336, Note_on_c, 0, 67, 87
4, 222352, Note_on_c, 0, 74, 87
4, 222524, Note_on_c, 0, 67, 0
4, 222524, Note_on_c, 0, 71, 0
4, 222540, Note_on_c, 0, 74, 0
4, 222720, Note_on_c, 0, 74, 87
4, 222720, Note_on_c, 0, 71, 87
4, 222720, Note_on_c, 0, 67, 87
4, 222908, Note_on_c, 0, 67, 0
4, 222908, Note_on_c, 0, 71, 0
4, 222908, Note_on_c, 0, 74, 0
4, 223104, Note_on_c, 0, 74, 87
4, 223104, Note_on_c, 0, 71, 87
4, 223104, Note_on_c, 0, 67, 87
4, 223292, Note_on_c, 0, 67, 0
4, 223292, Note_on_c, 0, 71, 0
4, 223292, Note_on_c, 0, 74, 0
4, 223488, Note_on_c, 0, 74, 87
4, 223488, Note_on_c, 0, 71, 87
4, 223488, Note_on_c, 0, 67, 87
4, 223868, Note_on_c, 0, 67, 0
4, 223868, Note_on_c, 0, 71, 0
4, 223868, Note_on_c, 0, 74, 0
4, 248448, Note_on_c, 0, 79, 87
4, 248448, Note_on_c, 0, 79, 87
4, 248636, Note_on_c, 0, 79, 0
4, 248640, Note_on_c, 0, 77, 87
4, 248828, Note_on_c, 0, 77, 0
4, 248828, Note_on_c, 0, 79, 0
4, 248832, Note_on_c, 0, 76, 87
4, 248832, Note_on_c, 0, 79, 87
4, 248876, Note_on_c, 0, 79, 0
4, 248880, Note_on_c, 0, 81, 87
4, 248924, Note_on_c, 0, 81, 0
4, 248928, Note_on_c, 0, 79, 87
4, 248972, Note_on_c, 0, 79, 0
4, 248976, Note_on_c, 0, 81, 87
4, 249020, Note_on_c, 0, 81, 0
4, 249024, Note_on_c, 0, 79, 87
4, 249068, Note_on_c, 0, 79, 0
4, 249072, Note_on_c, 0, 81, 87
4, 249116, Note_on_c, 0, 81, 0
4, 249120, Note_on_c, 0, 79, 87
4, 249164, Note_on_c, 0, 79, 0
4, 249168, Note_on_c, 0, 81, 87
4, 249212, Note_on_c, 0, 81, 0
4, 249212, Note_on_c, 0, 76, 0
4, 249504, Note_on_c, 0, 81, 87
4, 249504, Note_on_c, 0, 77, 87
4, 249548, Note_on_c, 0, 77, 0
4, 249548, Note_on_c, 0, 81, 0
4, 249600, Note_on_c, 0, 77, 87
4, 249600, Note_on_c, 0, 74, 87
4, 249788, Note_on_c, 0, 74, 0
4, 249788, Note_on_c, 0, 77, 0
4, 249984, Note_on_c, 0, 76, 87
4, 249984, Note_on_c, 0, 72, 87
4, 250172, Note_on_c, 0, 72, 0
4, 250172, Note_on_c, 0, 76, 0
4, 250752, Note_on_c, 0, 72, 87
4, 251132, Note_on_c, 0, 72, 0
4, 251136, Note_on_c, 0, 73, 89
4, 251324, Note_on_c, 0, 73, 0
4, 251328, Note_on_c, 0, 74, 89
4, 251516, Note_on_c, 0, 74, 0
4, 251520, Note_on_c, 0, 76, 89
4, 251708, Note_on_c, 0, 76, 0
4, 251712, Note_on_c, 0, 74, 90
4, 251900, Note_on_c, 0, 74, 0
4, 251904, Note_on_c, 0, 77, 92
4, 252092, Note_on_c, 0, 77, 0
4, 252096, Note_on_c, 0, 74, 93
4, 252284, Note_on_c, 0, 74, 0
4, 252288, Note_on_c, 0, 72, 93
4, 252476, Note_on_c, 0, 72, 0
4, 252480, Note_on_c, 0, 71, 93
4, 252668, Note_on_c, 0, 71, 0
4, 252672, Note_on_c, 0, 69, 92
4, 252860, Note_on_c, 0, 69, 0
4, 252864, Note_on_c, 0, 67, 90
4, 253040, Note_on_c, 0, 77, 89
4, 253052, Note_on_c, 0, 67, 0
4, 253056, Note_on_c, 0, 79, 89
4, 253420, Note_on_c, 0, 77, 0
4, 253436, Note_on_c, 0, 79, 0
4, 253440, Note_on_c, 0, 76, 87
4, 253440, Note_on_c, 0, 79, 87
4, 253484, Note_on_c, 0, 79, 0
4, 253488, Note_on_c, 0, 81, 87
4, 253532, Note_on_c, 0, 81, 0
4, 253536, Note_on_c, 0, 79, 87
4, 253580, Note_on_c, 0, 79, 0
4, 253584, Note_on_c, 0, 81, 87
4, 253628, Note_on_c, 0, 81, 0
4, 253632, Note_on_c, 0, 79, 87
4, 253676, Note_on_c, 0, 79, 0
4, 253680, Note_on_c, 0, 81, 87
4, 253724, Note_on_c, 0, 81, 0
4, 253728, Note_on_c, 0, 79, 87
4, 253772, Note_on_c, 0, 79, 0
4, 253776, Note_on_c, 0, 81, 87
4, 253820, Note_on_c, 0, 81, 0
4, 253820, Note_on_c, 0, 76, 0
4, 254112, Note_on_c, 0, 81, 87
4, 254156, Note_on_c, 0, 81, 0
4, 254208, Note_on_c, 0, 77, 87
4, 254208, Note_on_c, 0, 71, 87
4, 254396, Note_on_c, 0, 71, 0
4, 254396, Note_on_c, 0, 77, 0
4, 254592, Note_on_c, 0, 76, 87
4, 254592, Note_on_c, 0, 72, 87
4, 254780, Note_on_c, 0, 72, 0
4, 254780, Note_on_c, 0, 76, 0
4, 255344, Note_on_c, 0, 67, 87
4, 255360, Note_on_c, 0, 72, 87
4, 255724, Note_on_c, 0, 67, 0
4, 255740, Note_on_c, 0, 72, 0
4, 255744, Note_on_c, 0, 74, 87
4, 255868, Note_on_c, 0, 74, 0
4, 255872, Note_on_c, 0, 77, 87
4, 255996, Note_on_c, 0, 77, 0
4, 256000, Note_on_c, 0, 81, 87
4, 256124, Note_on_c, 0, 81, 0
4, 256128, Note_on_c, 0, 72, 87
4, 256128, Note_on_c, 0, 67, 87
4, 256496, Note_on_c, 0, 71, 87
4, 256508, Note_on_c, 0, 67, 0
4, 256508, Note_on_c, 0, 72, 0
4, 256512, Note_on_c, 0, 67, 87
4, 256540, Note_on_c, 0, 71, 0
4, 256560, Note_on_c, 0, 72, 87
4, 256604, Note_on_c, 0, 72, 0
4, 256608, Note_on_c, 0, 71, 87
4, 256652, Note_on_c, 0, 71, 0
4, 256656, Note_on_c, 0, 72, 87
4, 256700, Note_on_c, 0, 72, 0
4, 256704, Note_on_c, 0, 69, 87
4, 256796, Note_on_c, 0, 69, 0
4, 256800, Note_on_c, 0, 71, 87
4, 256892, Note_on_c, 0, 71, 0
4, 256892, Note_on_c, 0, 67, 0
4, 256896, Note_on_c, 0, 72, 67
4, 256896, Note_on_c, 0, 67, 67
4, 256988, Note_on_c, 0, 67, 0
4, 256988, Note_on_c, 0, 72, 0
4, 257088, Note_on_c, 0, 84, 69
4, 257180, Note_on_c, 0, 84, 0
4, 257280, Note_on_c, 0, 84, 71
4, 257372, Note_on_c, 0, 84, 0
4, 257472, Note_on_c, 0, 84, 73
4, 257564, Note_on_c, 0, 84, 0
4, 257664, Note_on_c, 0, 84, 76
4, 257756, Note_on_c, 0, 84, 0
4, 257856, Note_on_c, 0, 84, 78
4, 257948, Note_on_c, 0, 84, 0
4, 258048, Note_on_c, 0, 86, 79
4, 258236, Note_on_c, 0, 86, 0
4, 258240, Note_on_c, 0, 84, 78
4, 258240, Note_on_c, 0, 72, 78
4, 258332, Note_on_c, 0, 72, 0
4, 258416, Note_on_c, 0, 72, 76
4, 258428, Note_on_c, 0, 84, 0
4, 258432, Note_on_c, 0, 82, 76
4, 258508, Note_on_c, 0, 72, 0
4, 258524, Note_on_c, 0, 82, 0
4, 258624, Note_on_c, 0, 81, 73
4, 258624, Note_on_c, 0, 72, 73
4, 258716, Note_on_c, 0, 72, 0
4, 258716, Note_on_c, 0, 81, 0
4, 258816, Note_on_c, 0, 82, 71
4, 258816, Note_on_c, 0, 72, 71
4, 258908, Note_on_c, 0, 72, 0
4, 259004, Note_on_c, 0, 82, 0
4, 259008, Note_on_c, 0, 79, 69
4, 259008, Note_on_c, 0, 72, 69
4, 259100, Note_on_c, 0, 72, 0
4, 259196, Note_on_c, 0, 79, 0
4, 259200, Note_on_c, 0, 82, 80
4, 259200, Note_on_c, 0, 74, 80
4, 259388, Note_on_c, 0, 74, 0
4, 259388, Note_on_c, 0, 82, 0
4, 259392, Note_on_c, 0, 81, 78
4, 259392, Note_on_c, 0, 72, 78
4, 259580, Note_on_c, 0, 72, 0
4, 259580, Note_on_c, 0, 81, 0
4, 259584, Note_on_c, 0, 79, 76
4, 259584, Note_on_c, 0, 70, 76
4, 259676, Note_on_c, 0, 70, 0
4, 259676, Note_on_c, 0, 79, 0
4, 259776, Note_on_c, 0, 77, 73
4, 259776, Note_on_c, 0, 69, 73
4, 259868, Note_on_c, 0, 69, 0
4, 259868, Note_on_c, 0, 77, 0
4, 259968, Note_on_c, 0, 79, 71
4, 259968, Note_on_c, 0, 70, 71
4, 260156, Note_on_c, 0, 70, 0
4, 260156, Note_on_c, 0, 79, 0
4, 260160, Note_on_c, 0, 77, 69
4, 260160, Note_on_c, 0, 69, 69
4, 260348, Note_on_c, 0, 69, 0
4, 260348, Note_on_c, 0, 77, 0
4, 260352, Note_on_c, 0, 77, 66
4, 260352, Note_on_c, 0, 70, 66
4, 260540, Note_on_c, 0, 70, 0
4, 260544, Note_on_c, 0, 69, 66
4, 260732, Note_on_c, 0, 69, 0
4, 260732, Note_on_c, 0, 77, 0
4, 260736, Note_on_c, 0, 67, 66
4, 260828, Note_on_c, 0, 67, 0
4, 260928, Note_on_c, 0, 65, 66
4, 261020, Note_on_c, 0, 65, 0
4, 261120, Note_on_c, 0, 67, 66
4, 261308, Note_on_c, 0, 67, 0
4, 261312, Note_on_c, 0, 65, 66
4, 261500, Note_on_c, 0, 65, 0
4, 261504, Note_on_c, 0, 65, 66
4, 261884, Note_on_c, 0, 65, 0
4, 263808, Note_on_c, 0, 72, 66
4, 263808, Note_on_c, 0, 69, 66
4, 263808, Note_on_c, 0, 65, 66
4, 266108, Note_on_c, 0, 65, 0
4, 266108, Note_on_c, 0, 69, 0
4, 266108, Note_on_c, 0, 72, 0
4, 266112, Note_on_c, 0, 72, 66
4, 266112, Note_on_c, 0, 70, 66
4, 266112, Note_on_c, 0, 67, 66
4, 268412, Note_on_c, 0, 67, 0
4, 268412, Note_on_c, 0, 70, 0
4, 268412, Note_on_c, 0, 72, 0
4, 268416, Note_on_c, 0, 72, 66
4, 268416, Note_on_c, 0, 69, 66
4, 268416, Note_on_c, 0, 65, 66
4, 268796, Note_on_c, 0, 65, 0
4, 268796, Note_on_c, 0, 69, 0
4, 268796, Note_on_c, 0, 72, 0
4, 269168, Note_on_c, 0, 70, 66
4, 269184, Note_on_c, 0, 76, 66
4, 269184, Note_on_c, 0, 67, 66
4, 269548, Note_on_c, 0, 70, 0
4, 269564, Note_on_c, 0, 67, 0
4, 269564, Note_on_c, 0, 76, 0
4, 269568, Note_on_c, 0, 77, 67
4, 269568, Note_on_c, 0, 72, 67
4, 269568, Note_on_c, 0, 65, 67
4, 269948, Note_on_c, 0, 65, 0
4, 269948, Note_on_c, 0, 72, 0
4, 269948, Note_on_c, 0, 77, 0
4, 270336, Note_on_c, 0, 72, 70
4, 270336, Note_on_c, 0, 69, 70
4, 270336, Note_on_c, 0, 65, 70
4, 270716, Note_on_c, 0, 65, 0
4, 270716, Note_on_c, 0, 69, 0
4, 270716, Note_on_c, 0, 72, 0
4, 270720, Note_on_c, 0, 70, 71
4, 270720, Note_on_c, 0, 67, 71
4, 270720, Note_on_c, 0, 62, 71
4, 271088, Note_on_c, 0, 60, 72
4, 271100, Note_on_c, 0, 62, 0
4, 271100, Note_on_c, 0, 70, 0
4, 271100, Note_on_c, 0, 67, 0
4, 271104, Note_on_c, 0, 69, 72
4, 271104, Note_on_c, 0, 65, 72
4, 271484, Note_on_c, 0, 65, 0
4, 271484, Note_on_c, 0, 69, 0
4, 271488, Note_on_c, 0, 67, 73
4, 271488, Note_on_c, 0, 64, 73
4, 271852, Note_on_c, 0, 60, 0
4, 271868, Note_on_c, 0, 64, 0
4, 271868, Note_on_c, 0, 67, 0
4, 271872, Note_on_c, 0, 81, 74
4, 271872, Note_on_c, 0, 72, 74
4, 271872, Note_on_c, 0, 69, 74
4, 272060, Note_on_c, 0, 69, 0
4, 272060, Note_on_c, 0, 72, 0
4, 272060, Note_on_c, 0, 81, 0
4, 272640, Note_on_c, 0, 76, 78
4, 272640, Note_on_c, 0, 70, 78
4, 272640, Note_on_c, 0, 67, 78
4, 272828, Note_on_c, 0, 67, 0
4, 272828, Note_on_c, 0, 70, 0
4, 272828, Note_on_c, 0, 76, 0
4, 273024, Note_on_c, 0, 77, 79
4, 273024, Note_on_c, 0, 72, 79
4, 273024, Note_on_c, 0, 65, 79
4, 273404, Note_on_c, 0, 65, 0
4, 273404, Note_on_c, 0, 72, 0
4, 273404, Note_on_c, 0, 77, 0
4, 273776, Note_on_c, 0, 69, 82
4, 273792, Note_on_c, 0, 72, 82
4, 273792, Note_on_c, 0, 65, 82
4, 274156, Note_on_c, 0, 69, 0
4, 274172, Note_on_c, 0, 65, 0
4, 274172, Note_on_c, 0, 72, 0
4, 274176, Note_on_c, 0, 70, 83
4, 274176, Note_on_c, 0, 67, 83
4, 274176, Note_on_c, 0, 62, 83
4, 274556, Note_on_c, 0, 62, 0
4, 274556, Note_on_c, 0, 67, 0
4, 274556, Note_on_c, 0, 70, 0
4, 274560, Note_on_c, 0, 69, 83
4, 274560, Note_on_c, 0, 65, 83
4, 274560, Note_on_c, 0, 60, 83
4, 274940, Note_on_c, 0, 60, 0
4, 274940, Note_on_c, 0, 65, 0
4, 274940, Note_on_c, 0, 69, 0
4, 274944, Note_on_c, 0, 67, 85
4, 274944, Note_on_c, 0, 64, 85
4, 274944, Note_on_c, 0, 60, 85
4, 275324, Note_on_c, 0, 60, 0
4, 275324, Note_on_c, 0, 64, 0
4, 275324, Note_on_c, 0, 67, 0
4, 275328, Note_on_c, 0, 65, 87
4, 275328, Note_on_c, 0, 60, 87
4, 275328, Note_on_c, 0, 57, 87
4, 275516, Note_on_c, 0, 57, 0
4, 275516, Note_on_c, 0, 60, 0
4, 275516, Note_on_c, 0, 65, 0
4, 275520, Note_on_c, 0, 81, 87
4, 275520, Note_on_c, 0, 84, 87
4, 275612, Note_on_c, 0, 84, 0
4, 275612, Note_on_c, 0, 81, 0
4, 275712, Note_on_c, 0, 84, 87
4, 275712, Note_on_c, 0, 81, 87
4, 275804, Note_on_c, 0, 81, 0
4, 275804, Note_on_c, 0, 84, 0
4, 275904, Note_on_c, 0, 84, 87
4, 275904, Note_on_c, 0, 81, 87
4, 275996, Note_on_c, 0, 81, 0
4, 275996, Note_on_c, 0, 84, 0
4, 276096, Note_on_c, 0, 84, 87
4, 276096, Note_on_c, 0, 81, 87
4, 276188, Note_on_c, 0, 81, 0
4, 276188, Note_on_c, 0, 84, 0
4, 276288, Note_on_c, 0, 84, 87
4, 276288, Note_on_c, 0, 81, 87
4, 276380, Note_on_c, 0, 81, 0
4, 276380, Note_on_c, 0, 84, 0
4, 276480, Note_on_c, 0, 86, 87
4, 276480, Note_on_c, 0, 82, 87
4, 276668, Note_on_c, 0, 82, 0
4, 276668, Note_on_c, 0, 86, 0
4, 276672, Note_on_c, 0, 84, 87
4, 276672, Note_on_c, 0, 81, 87
4, 276860, Note_on_c, 0, 81, 0
4, 276860, Note_on_c, 0, 84, 0
4, 276864, Note_on_c, 0, 82, 87
4, 276864, Note_on_c, 0, 79, 87
4, 276956, Note_on_c, 0, 79, 0
4, 276956, Note_on_c, 0, 82, 0
4, 277056, Note_on_c, 0, 81, 87
4, 277056, Note_on_c, 0, 77, 87
4, 277148, Note_on_c, 0, 77, 0
4, 277148, Note_on_c, 0, 81, 0
4, 277232, Note_on_c, 0, 82, 87
4, 277248, Note_on_c, 0, 79, 87
4, 277420, Note_on_c, 0, 82, 0
4, 277436, Note_on_c, 0, 79, 0
4, 277440, Note_on_c, 0, 81, 87
4, 277440, Note_on_c, 0, 77, 87
4, 277628, Note_on_c, 0, 77, 0
4, 277628, Note_on_c, 0, 81, 0
4, 277632, Note_on_c, 0, 77, 87
4, 278012, Note_on_c, 0, 77, 0
4, 287040, Note_on_c, 0, 79, 94
4, 287132, Note_on_c, 0, 79, 0
4, 287232, Note_on_c, 0, 79, 94
4, 287324, Note_on_c, 0, 79, 0
4, 287424, Note_on_c, 0, 79, 94
4, 287516, Note_on_c, 0, 79, 0
4, 287616, Note_on_c, 0, 79, 94
4, 287708, Note_on_c, 0, 79, 0
4, 287808, Note_on_c, 0, 79, 94
4, 287900, Note_on_c, 0, 79, 0
4, 288000, Note_on_c, 0, 81, 94
4, 288188, Note_on_c, 0, 81, 0
4, 288192, Note_on_c, 0, 79, 94
4, 288380, Note_on_c, 0, 79, 0
4, 288384, Note_on_c, 0, 77, 94
4, 288476, Note_on_c, 0, 77, 0
4, 288576, Note_on_c, 0, 76, 94
4, 288668, Note_on_c, 0, 76, 0
4, 288768, Note_on_c, 0, 74, 94
4, 288860, Note_on_c, 0, 74, 0
4, 288960, Note_on_c, 0, 72, 94
4, 289052, Note_on_c, 0, 72, 0
4, 289152, Note_on_c, 0, 78, 94
4, 289232, Note_on_c, 0, 79, 94
4, 289244, Note_on_c, 0, 78, 0
4, 289420, Note_on_c, 0, 79, 0
4, 289536, Note_on_c, 0, 67, 94
4, 289724, Note_on_c, 0, 67, 0
4, 290688, Note_on_c, 0, 79, 66
4, 290688, Note_on_c, 0, 67, 66
4, 291068, Note_on_c, 0, 67, 0
4, 291068, Note_on_c, 0, 79, 0
4, 291072, Note_on_c, 0, 76, 66
4, 291072, Note_on_c, 0, 64, 66
4, 291452, Note_on_c, 0, 64, 0
4, 291452, Note_on_c, 0, 76, 0
4, 291840, Note_on_c, 0, 77, 66
4, 291840, Note_on_c, 0, 65, 66
4, 292220, Note_on_c, 0, 65, 0
4, 292220, Note_on_c, 0, 77, 0
4, 292224, Note_on_c, 0, 81, 66
4, 292224, Note_on_c, 0, 69, 66
4, 292604, Note_on_c, 0, 69, 0
4, 292604, Note_on_c, 0, 81, 0
4, 292608, Note_on_c, 0, 79, 66
4, 292608, Note_on_c, 0, 67, 66
4, 292796, Note_on_c, 0, 67, 0
4, 292796, Note_on_c, 0, 79, 0
4, 292992, Note_on_c, 0, 81, 66
4, 292992, Note_on_c, 0, 69, 66
4, 293180, Note_on_c, 0, 69, 0
4, 293180, Note_on_c, 0, 81, 0
4, 293376, Note_on_c, 0, 72, 66
4, 293376, Note_on_c, 0, 69, 66
4, 293564, Note_on_c, 0, 69, 0
4, 293564, Note_on_c, 0, 72, 0
4, 293760, Note_on_c, 0, 71, 67
4, 293760, Note_on_c, 0, 67, 67
4, 294332, Note_on_c, 0, 67, 0
4, 294332, Note_on_c, 0, 71, 0
4, 294336, Note_on_c, 0, 74, 70
4, 294336, Note_on_c, 0, 71, 70
4, 294524, Note_on_c, 0, 71, 0
4, 294524, Note_on_c, 0, 74, 0
4, 294528, Note_on_c, 0, 77, 71
4, 294528, Note_on_c, 0, 74, 71
4, 294908, Note_on_c, 0, 74, 0
4, 294908, Note_on_c, 0, 77, 0
4, 295296, Note_on_c, 0, 79, 66
4, 295296, Note_on_c, 0, 72, 66
4, 295296, Note_on_c, 0, 67, 66
4, 295676, Note_on_c, 0, 67, 0
4, 295676, Note_on_c, 0, 72, 0
4, 295676, Note_on_c, 0, 79, 0
4, 295680, Note_on_c, 0, 76, 66
4, 295680, Note_on_c, 0, 72, 66
4, 295680, Note_on_c, 0, 64, 66
4, 296060, Note_on_c, 0, 64, 0
4, 296060, Note_on_c, 0, 72, 0
4, 296060, Note_on_c, 0, 76, 0
4, 296448, Note_on_c, 0, 77, 66
4, 296448, Note_on_c, 0, 72, 66
4, 296448, Note_on_c, 0, 65, 66
4, 296828, Note_on_c, 0, 65, 0
4, 296828, Note_on_c, 0, 72, 0
4, 296828, Note_on_c, 0, 77, 0
4, 296832, Note_on_c, 0, 81, 66
4, 296832, Note_on_c, 0, 72, 66
4, 296832, Note_on_c, 0, 69, 66
4, 297212, Note_on_c, 0, 69, 0
4, 297212, Note_on_c, 0, 72, 0
4, 297212, Note_on_c, 0, 81, 0
4, 297216, Note_on_c, 0, 72, 66
4, 297216, Note_on_c, 0, 60, 66
4, 297584, Note_on_c, 0, 72, 66
4, 297596, Note_on_c, 0, 60, 0
4, 297596, Note_on_c, 0, 72, 0
4, 297600, Note_on_c, 0, 60, 66
4, 297868, Note_on_c, 0, 72, 0
4, 297884, Note_on_c, 0, 60, 0
4, 297888, Note_on_c, 0, 77, 66
4, 297888, Note_on_c, 0, 74, 66
4, 297888, Note_on_c, 0, 65, 66
4, 297980, Note_on_c, 0, 65, 0
4, 297980, Note_on_c, 0, 74, 0
4, 297980, Note_on_c, 0, 77, 0
4, 297984, Note_on_c, 0, 76, 66
4, 297984, Note_on_c, 0, 72, 66
4, 297984, Note_on_c, 0, 64, 66
4, 298268, Note_on_c, 0, 64, 0
4, 298268, Note_on_c, 0, 72, 0
4, 298268, Note_on_c, 0, 76, 0
4, 298272, Note_on_c, 0, 77, 66
4, 298272, Note_on_c, 0, 69, 66
4, 298272, Note_on_c, 0, 65, 66
4, 298364, Note_on_c, 0, 65, 0
4, 298364, Note_on_c, 0, 69, 0
4, 298364, Note_on_c, 0, 77, 0
4, 298368, Note_on_c, 0, 76, 80
4, 298368, Note_on_c, 0, 67, 80
4, 298368, Note_on_c, 0, 64, 80
4, 298748, Note_on_c, 0, 64, 0
4, 298748, Note_on_c, 0, 67, 0
4, 298748, Note_on_c, 0, 76, 0
4, 298752, Note_on_c, 0, 74, 76
4, 298752, Note_on_c, 0, 67, 76
4, 298752, Note_on_c, 0, 62, 76
4, 298940, Note_on_c, 0, 62, 0
4, 298940, Note_on_c, 0, 67, 0
4, 298940, Note_on_c, 0, 74, 0
4, 313344, Note_on_c, 0, 67, 80
4, 313344, Note_on_c, 0, 64, 80
4, 313388, Note_on_c, 0, 64, 0
4, 313388, Note_on_c, 0, 67, 0
4, 313440, Note_on_c, 0, 64, 80
4, 313532, Note_on_c, 0, 64, 0
4, 313536, Note_on_c, 0, 60, 80
4, 313628, Note_on_c, 0, 60, 0
4, 313632, Note_on_c, 0, 64, 80
4, 313724, Note_on_c, 0, 64, 0
4, 313728, Note_on_c, 0, 67, 80
4, 314108, Note_on_c, 0, 67, 0
4, 314496, Note_on_c, 0, 72, 80
4, 314496, Note_on_c, 0, 64, 80
4, 314540, Note_on_c, 0, 64, 0
4, 314540, Note_on_c, 0, 72, 0
4, 314592, Note_on_c, 0, 67, 80
4, 314684, Note_on_c, 0, 67, 0
4, 314688, Note_on_c, 0, 64, 80
4, 314780, Note_on_c, 0, 64, 0
4, 314784, Note_on_c, 0, 67, 80
4, 314876, Note_on_c, 0, 67, 0
4, 314880, Note_on_c, 0, 72, 80
4, 314880, Note_on_c, 0, 64, 80
4, 315260, Note_on_c, 0, 64, 0
4, 315260, Note_on_c, 0, 72, 0
4, 315936, Note_on_c, 0, 67, 87
4, 315936, Note_on_c, 0, 60, 87
4, 315980, Note_on_c, 0, 60, 0
4, 315980, Note_on_c, 0, 67, 0
4, 316032, Note_on_c, 0, 72, 87
4, 316032, Note_on_c, 0, 67, 87
4, 316032, Note_on_c, 0, 64, 87
4, 316220, Note_on_c, 0, 64, 0
4, 316220, Note_on_c, 0, 67, 0
4, 316220, Note_on_c, 0, 72, 0
4, 316416, Note_on_c, 0, 71, 87
4, 316416, Note_on_c, 0, 67, 87
4, 316416, Note_on_c, 0, 62, 87
4, 316604, Note_on_c, 0, 62, 0
4, 316604, Note_on_c, 0, 67, 0
4, 316604, Note_on_c, 0, 71, 0
4, 316800, Note_on_c, 0, 72, 87
4, 316800, Note_on_c, 0, 67, 87
4, 316800, Note_on_c, 0, 64, 87
4, 316988, Note_on_c, 0, 64, 0
4, 316988, Note_on_c, 0, 67, 0
4, 316988, Note_on_c, 0, 72, 0
4, 317184, Note_on_c, 0, 72, 66
4, 317184, Note_on_c, 0, 64, 66
4, 317372, Note_on_c, 0, 64, 0
4, 317372, Note_on_c, 0, 72, 0
4, 317376, Note_on_c, 0, 72, 66
4, 317376, Note_on_c, 0, 64, 66
4, 317468, Note_on_c, 0, 64, 0
4, 317468, Note_on_c, 0, 72, 0
4, 317472, Note_on_c, 0, 72, 66
4, 317472, Note_on_c, 0, 64, 66
4, 317564, Note_on_c, 0, 64, 0
4, 317564, Note_on_c, 0, 72, 0
4, 317568, Note_on_c, 0, 72, 66
4, 317568, Note_on_c, 0, 64, 66
4, 317744, Note_on_c, 0, 64, 66
4, 317756, Note_on_c, 0, 64, 0
4, 317756, Note_on_c, 0, 72, 0
4, 317760, Note_on_c, 0, 72, 66
4, 317932, Note_on_c, 0, 64, 0
4, 317948, Note_on_c, 0, 72, 0
4, 317952, Note_on_c, 0, 72, 66
4, 317952, Note_on_c, 0, 64, 66
4, 318332, Note_on_c, 0, 64, 0
4, 318332, Note_on_c, 0, 72, 0
4, 318336, Note_on_c, 0, 76, 66
4, 318336, Note_on_c, 0, 72, 66
4, 318428, Note_on_c, 0, 72, 0
4, 318428, Note_on_c, 0, 76, 0
4, 318528, Note_on_c, 0, 76, 66
4, 318528, Note_on_c, 0, 72, 66
4, 318572, Note_on_c, 0, 72, 0
4, 318572, Note_on_c, 0, 76, 0
4, 318624, Note_on_c, 0, 76, 66
4, 318624, Note_on_c, 0, 72, 66
4, 318668, Note_on_c, 0, 72, 0
4, 318668, Note_on_c, 0, 76, 0
4, 318720, Note_on_c, 0, 76, 67
4, 318720, Note_on_c, 0, 72, 67
4, 318812, Note_on_c, 0, 72, 0
4, 318812, Note_on_c, 0, 76, 0
4, 318912, Note_on_c, 0, 76, 69
4, 318912, Note_on_c, 0, 72, 69
4, 319004, Note_on_c, 0, 72, 0
4, 319004, Note_on_c, 0, 76, 0
4, 319104, Note_on_c, 0, 76, 70
4, 319104, Note_on_c, 0, 72, 70
4, 319484, Note_on_c, 0, 72, 0
4, 319484, Note_on_c, 0, 76, 0
4, 319488, Note_on_c, 0, 79, 73
4, 319488, Note_on_c, 0, 76, 73
4, 319580, Note_on_c, 0, 76, 0
4, 319580, Note_on_c, 0, 79, 0
4, 319680, Note_on_c, 0, 79, 74
4, 319680, Note_on_c, 0, 76, 74
4, 319724, Note_on_c, 0, 76, 0
4, 319724, Note_on_c, 0, 79, 0
4, 319776, Note_on_c, 0, 79, 76
4, 319776, Note_on_c, 0, 76, 76
4, 319820, Note_on_c, 0, 76, 0
4, 319820, Note_on_c, 0, 79, 0
4, 319872, Note_on_c, 0, 79, 76
4, 319872, Note_on_c, 0, 76, 76
4, 319964, Note_on_c, 0, 76, 0
4, 319964, Note_on_c, 0, 79, 0
4, 320064, Note_on_c, 0, 79, 78
4, 320064, Note_on_c, 0, 76, 78
4, 320156, Note_on_c, 0, 76, 0
4, 320156, Note_on_c, 0, 79, 0
4, 320256, Note_on_c, 0, 79, 79
4, 320256, Note_on_c, 0, 76, 79
4, 320544, Note_on_c, 0, 72, 82
4, 320544, Note_on_c, 0, 67, 82
4, 320636, Note_on_c, 0, 67, 0
4, 320636, Note_on_c, 0, 72, 0
4, 320640, Note_on_c, 0, 76, 82
4, 320640, Note_on_c, 0, 72, 82
4, 320640, Note_on_c, 0, 67, 82
4, 320828, Note_on_c, 0, 76, 0
4, 320828, Note_on_c, 0, 79, 0
4, 321020, Note_on_c, 0, 72, 0
4, 321020, Note_on_c, 0, 76, 0
4, 321020, Note_on_c, 0, 67, 0
4, 321024, Note_on_c, 0, 71, 85
4, 321024, Note_on_c, 0, 67, 85
4, 321024, Note_on_c, 0, 74, 85
4, 321068, Note_on_c, 0, 74, 0
4, 321072, Note_on_c, 0, 76, 85
4, 321116, Note_on_c, 0, 76, 0
4, 321120, Note_on_c, 0, 74, 86
4, 321164, Note_on_c, 0, 74, 0
4, 321168, Note_on_c, 0, 76, 86
4, 321212, Note_on_c, 0, 76, 0
4, 321216, Note_on_c, 0, 74, 86
4, 321260, Note_on_c, 0, 74, 0
4, 321264, Note_on_c, 0, 76, 87
4, 321308, Note_on_c, 0, 76, 0
4, 321312, Note_on_c, 0, 74, 87
4, 321356, Note_on_c, 0, 74, 0
4, 321360, Note_on_c, 0, 76, 87
4, 321404, Note_on_c, 0, 76, 0
4, 321404, Note_on_c, 0, 67, 0
4, 321404, Note_on_c, 0, 71, 0
4, 321408, Note_on_c, 0, 72, 87
4, 321408, Note_on_c, 0, 67, 87
4, 321408, Note_on_c, 0, 64, 87
4, 321788, Note_on_c, 0, 64, 0
4, 321788, Note_on_c, 0, 67, 0
4, 321788, Note_on_c, 0, 72, 0
4, 323712, Note_on_c, 0, 79, 66
4, 323996, Note_on_c, 0, 79, 0
4, 324000, Note_on_c, 0, 81, 66
4, 324092, Note_on_c, 0, 81, 0
4, 324096, Note_on_c, 0, 72, 66
4, 324284, Note_on_c, 0, 72, 0
4, 324464, Note_on_c, 0, 71, 66
4, 324480, Note_on_c, 0, 67, 66
4, 324508, Note_on_c, 0, 71, 0
4, 324528, Note_on_c, 0, 72, 66
4, 324572, Note_on_c, 0, 72, 0
4, 324576, Note_on_c, 0, 71, 66
4, 324620, Note_on_c, 0, 71, 0
4, 324624, Note_on_c, 0, 72, 66
4, 324668, Note_on_c, 0, 72, 0
4, 324672, Note_on_c, 0, 69, 66
4, 324764, Note_on_c, 0, 69, 0
4, 324768, Note_on_c, 0, 71, 66
4, 324860, Note_on_c, 0, 71, 0
4, 324860, Note_on_c, 0, 67, 0
4, 324864, Note_on_c, 0, 72, 66
4, 324864, Note_on_c, 0, 67, 66
4, 325244, Note_on_c, 0, 67, 0
4, 325244, Note_on_c, 0, 72, 0
4, 327168, Note_on_c, 0, 79, 66
4, 327452, Note_on_c, 0, 79, 0
4, 327456, Note_on_c, 0, 81, 66
4, 327548, Note_on_c, 0, 81, 0
4, 327552, Note_on_c, 0, 72, 66
4, 327568, Note_on_c, 0, 64, 66
4, 327740, Note_on_c, 0, 72, 0
4, 327756, Note_on_c, 0, 64, 0
4, 327936, Note_on_c, 0, 71, 66
4, 327936, Note_on_c, 0, 62, 66
4, 328124, Note_on_c, 0, 62, 0
4, 328124, Note_on_c, 0, 71, 0
4, 328320, Note_on_c, 0, 72, 66
4, 328320, Note_on_c, 0, 64, 66
4, 328508, Note_on_c, 0, 64, 0
4, 328508, Note_on_c, 0, 72, 0
4, 328512, Note_on_c, 0, 67, 66
4, 328700, Note_on_c, 0, 67, 0
4, 328704, Note_on_c, 0, 64, 66
4, 328892, Note_on_c, 0, 64, 0
4, 328896, Note_on_c, 0, 67, 66
4, 329084, Note_on_c, 0, 67, 0
4, 329088, Note_on_c, 0, 72, 66
4, 329088, Note_on_c, 0, 69, 66
4, 329276, Note_on_c, 0, 69, 0
4, 329276, Note_on_c, 0, 72, 0
4, 329280, Note_on_c, 0, 74, 66
4, 329280, Note_on_c, 0, 71, 66
4, 329468, Note_on_c, 0, 71, 0
4, 329468, Note_on_c, 0, 74, 0
4, 329472, Note_on_c, 0, 76, 67
4, 329472, Note_on_c, 0, 72, 67
4, 329660, Note_on_c, 0, 72, 0
4, 329660, Note_on_c, 0, 76, 0
4, 329664, Note_on_c, 0, 72, 70
4, 329664, Note_on_c, 0, 67, 70
4, 329852, Note_on_c, 0, 67, 0
4, 329852, Note_on_c, 0, 72, 0
4, 329856, Note_on_c, 0, 67, 73
4, 330044, Note_on_c, 0, 67, 0
4, 330048, Note_on_c, 0, 67, 77
4, 330048, Note_on_c, 0, 72, 77
4, 330236, Note_on_c, 0, 72, 0
4, 330236, Note_on_c, 0, 67, 0
4, 330240, Note_on_c, 0, 76, 80
4, 330240, Note_on_c, 0, 72, 80
4, 330428, Note_on_c, 0, 72, 0
4, 330428, Note_on_c, 0, 76, 0
4, 330432, Note_on_c, 0, 77, 83
4, 330432, Note_on_c, 0, 74, 83
4, 330620, Note_on_c, 0, 74, 0
4, 330620, Note_on_c, 0, 77, 0
4, 330624, Note_on_c, 0, 79, 87
4, 330624, Note_on_c, 0, 76, 87
4, 331004, Note_on_c, 0, 76, 0
4, 331004, Note_on_c, 0, 79, 0
4, 339440, Note_on_c, 0, 79, 66
4, 339456, Note_on_c, 0, 79, 87
4, 339724, Note_on_c, 0, 79, 0
4, 339744, Note_on_c, 0, 77, 87
4, 339836, Note_on_c, 0, 77, 0
4, 339836, Note_on_c, 0, 79, 0
4, 339840, Note_on_c, 0, 76, 87
4, 339840, Note_on_c, 0, 79, 87
4, 339884, Note_on_c, 0, 79, 0
4, 339888, Note_on_c, 0, 81, 87
4, 339932, Note_on_c, 0, 81, 0
4, 339936, Note_on_c, 0, 79, 87
4, 339980, Note_on_c, 0, 79, 0
4, 339984, Note_on_c, 0, 81, 87
4, 340028, Note_on_c, 0, 81, 0
4, 340032, Note_on_c, 0, 79, 87
4, 340076, Note_on_c, 0, 79, 0
4, 340080, Note_on_c, 0, 81, 87
4, 340124, Note_on_c, 0, 81, 0
4, 340128, Note_on_c, 0, 79, 87
4, 340172, Note_on_c, 0, 79, 0
4, 340176, Note_on_c, 0, 81, 87
4, 340220, Note_on_c, 0, 81, 0
4, 340220, Note_on_c, 0, 76, 0
4, 340512, Note_on_c, 0, 81, 87
4, 340556, Note_on_c, 0, 81, 0
4, 340608, Note_on_c, 0, 77, 87
4, 340608, Note_on_c, 0, 74, 87
4, 340796, Note_on_c, 0, 74, 0
4, 340796, Note_on_c, 0, 77, 0
4, 340992, Note_on_c, 0, 76, 87
4, 340992, Note_on_c, 0, 72, 87
4, 341180, Note_on_c, 0, 72, 0
4, 341180, Note_on_c, 0, 76, 0
4, 341760, Note_on_c, 0, 72, 87
4, 341760, Note_on_c, 0, 67, 87
4, 341948, Note_on_c, 0, 67, 0
4, 341948, Note_on_c, 0, 72, 0
4, 342144, Note_on_c, 0, 73, 87
4, 342144, Note_on_c, 0, 69, 87
4, 342332, Note_on_c, 0, 73, 0
4, 342336, Note_on_c, 0, 74, 87
4, 342512, Note_on_c, 0, 69, 87
4, 342524, Note_on_c, 0, 74, 0
4, 342524, Note_on_c, 0, 69, 0
4, 342528, Note_on_c, 0, 76, 87
4, 342716, Note_on_c, 0, 76, 0
4, 342720, Note_on_c, 0, 74, 87
4, 342892, Note_on_c, 0, 69, 0
4, 342896, Note_on_c, 0, 69, 87
4, 342908, Note_on_c, 0, 74, 0
4, 342912, Note_on_c, 0, 77, 87
4, 343100, Note_on_c, 0, 77, 0
4, 343104, Note_on_c, 0, 74, 87
4, 343276, Note_on_c, 0, 69, 0
4, 343292, Note_on_c, 0, 74, 0
4, 343296, Note_on_c, 0, 72, 87
4, 343484, Note_on_c, 0, 72, 0
4, 343488, Note_on_c, 0, 71, 87
4, 343676, Note_on_c, 0, 71, 0
4, 343680, Note_on_c, 0, 69, 87
4, 343868, Note_on_c, 0, 69, 0
4, 343872, Note_on_c, 0, 67, 87
4, 344048, Note_on_c, 0, 74, 87
4, 344060, Note_on_c, 0, 67, 0
4, 344064, Note_on_c, 0, 79, 87
4, 344428, Note_on_c, 0, 74, 0
4, 344444, Note_on_c, 0, 79, 0
4, 344448, Note_on_c, 0, 76, 87
4, 344448, Note_on_c, 0, 79, 87
4, 344492, Note_on_c, 0, 79, 0
4, 344496, Note_on_c, 0, 81, 87
4, 344540, Note_on_c, 0, 81, 0
4, 344544, Note_on_c, 0, 79, 87
4, 344588, Note_on_c, 0, 79, 0
4, 344592, Note_on_c, 0, 81, 87
4, 344636, Note_on_c, 0, 81, 0
4, 344640, Note_on_c, 0, 79, 87
4, 344684, Note_on_c, 0, 79, 0
4, 344688, Note_on_c, 0, 81, 87
4, 344732, Note_on_c, 0, 81, 0
4, 344736, Note_on_c, 0, 79, 87
4, 344780, Note_on_c, 0, 79, 0
4, 344784, Note_on_c, 0, 81, 87
4, 344828, Note_on_c, 0, 81, 0
4, 344828, Note_on_c, 0, 76, 0
4, 345120, Note_on_c, 0, 81, 87
4, 345164, Note_on_c, 0, 81, 0
4, 345216, Note_on_c, 0, 77, 87
4, 345216, Note_on_c, 0, 71, 87
4, 345404, Note_on_c, 0, 71, 0
4, 345404, Note_on_c, 0, 77, 0
4, 345600, Note_on_c, 0, 76, 87
4, 345600, Note_on_c, 0, 72, 87
4, 345788, Note_on_c, 0, 72, 0
4, 345788, Note_on_c, 0, 76, 0
4, 346368, Note_on_c, 0, 72, 87
4, 346748, Note_on_c, 0, 72, 0
4, 346752, Note_on_c, 0, 74, 87
4, 346876, Note_on_c, 0, 74, 0
4, 346880, Note_on_c, 0, 77, 87
4, 347004, Note_on_c, 0, 77, 0
4, 347008, Note_on_c, 0, 81, 87
4, 347132, Note_on_c, 0, 81, 0
4, 347136, Note_on_c, 0, 72, 87
4, 347516, Note_on_c, 0, 72, 0
4, 347520, Note_on_c, 0, 71, 87
4, 347552, Note_on_c, 0, 72, 87
4, 347564, Note_on_c, 0, 71, 0
4, 347596, Note_on_c, 0, 72, 0
4, 347600, Note_on_c, 0, 71, 87
4, 347644, Note_on_c, 0, 71, 0
4, 347664, Note_on_c, 0, 72, 87
4, 347708, Note_on_c, 0, 72, 0
4, 347712, Note_on_c, 0, 69, 87
4, 347804, Note_on_c, 0, 69, 0
4, 347808, Note_on_c, 0, 71, 87
4, 347900, Note_on_c, 0, 71, 0
4, 347904, Note_on_c, 0, 72, 87
4, 347904, Note_on_c, 0, 64, 87
4, 348284, Note_on_c, 0, 64, 0
4, 348284, Note_on_c, 0, 72, 0
4, 348672, Note_on_c, 0, 67, 87
4, 349052, Note_on_c, 0, 67, 0
4, 349056, Note_on_c, 0, 76, 87
4, 349244, Note_on_c, 0, 76, 0
4, 349440, Note_on_c, 0, 76, 87
4, 349628, Note_on_c, 0, 76, 0
4, 349632, Note_on_c, 0, 79, 87
4, 349820, Note_on_c, 0, 79, 0
4, 349824, Note_on_c, 0, 77, 87
4, 349824, Note_on_c, 0, 67, 87
4, 350012, Note_on_c, 0, 77, 0
4, 350016, Note_on_c, 0, 74, 87
4, 350204, Note_on_c, 0, 74, 0
4, 350204, Note_on_c, 0, 67, 0
4, 350208, Note_on_c, 0, 72, 87
4, 350208, Note_on_c, 0, 64, 87
4, 350396, Note_on_c, 0, 64, 0
4, 350396, Note_on_c, 0, 72, 0
4, 350592, Note_on_c, 0, 72, 87
4, 350592, Note_on_c, 0, 64, 87
4, 350780, Note_on_c, 0, 64, 0
4, 350780, Note_on_c, 0, 72, 0
4, 350784, Note_on_c, 0, 76, 87
4, 350784, Note_on_c, 0, 67, 87
4, 350972, Note_on_c, 0, 67, 0
4, 350972, Note_on_c, 0, 76, 0
4, 350976, Note_on_c, 0, 74, 87
4, 350976, Note_on_c, 0, 65, 87
4, 351164, Note_on_c, 0, 65, 0
4, 351164, Note_on_c, 0, 74, 0
4, 351168, Note_on_c, 0, 71, 87
4, 351168, Note_on_c, 0, 62, 87
4, 351356, Note_on_c, 0, 62, 0
4, 351356, Note_on_c, 0, 71, 0
4, 351360, Note_on_c, 0, 76, 87
4, 351360, Note_on_c, 0, 72, 87
4, 351548, Note_on_c, 0, 72, 0
4, 351548, Note_on_c, 0, 76, 0
4, 351552, Note_on_c, 0, 79, 87
4, 351552, Note_on_c, 0, 76, 87
4, 351740, Note_on_c, 0, 76, 0
4, 351740, Note_on_c, 0, 79, 0
4, 351744, Note_on_c, 0, 76, 87
4, 351744, Note_on_c, 0, 72, 87
4, 351932, Note_on_c, 0, 72, 0
4, 351932, Note_on_c, 0, 76, 0
4, 351936, Note_on_c, 0, 79, 87
4, 351936, Note_on_c, 0, 76, 87
4, 352112, Note_on_c, 0, 74, 87
4, 352124, Note_on_c, 0, 76, 0
4, 352124, Note_on_c, 0, 79, 0
4, 352128, Note_on_c, 0, 77, 87
4, 352300, Note_on_c, 0, 74, 0
4, 352316, Note_on_c, 0, 77, 0
4, 352320, Note_on_c, 0, 74, 87
4, 352320, Note_on_c, 0, 71, 87
4, 352508, Note_on_c, 0, 71, 0
4, 352508, Note_on_c, 0, 74, 0
4, 352512, Note_on_c, 0, 72, 87
4, 352512, Note_on_c, 0, 64, 87
4, 352688, Note_on_c, 0, 67, 87
4, 352700, Note_on_c, 0, 64, 0
4, 352700, Note_on_c, 0, 72, 0
4, 352704, Note_on_c, 0, 76, 89
4, 352876, Note_on_c, 0, 67, 0
4, 352892, Note_on_c, 0, 76, 0
4, 352896, Note_on_c, 0, 72, 89
4, 352896, Note_on_c, 0, 64, 89
4, 353084, Note_on_c, 0, 64, 0
4, 353084, Note_on_c, 0, 72, 0
4, 353088, Note_on_c, 0, 76, 90
4, 353088, Note_on_c, 0, 67, 90
4, 353276, Note_on_c, 0, 67, 0
4, 353276, Note_on_c, 0, 76, 0
4, 353280, Note_on_c, 0, 74, 92
4, 353280, Note_on_c, 0, 65, 92
4, 353468, Note_on_c, 0, 65, 0
4, 353468, Note_on_c, 0, 74, 0
4, 353472, Note_on_c, 0, 71, 93
4, 353472, Note_on_c, 0, 62, 93
4, 353660, Note_on_c, 0, 62, 0
4, 353660, Note_on_c, 0, 71, 0
4, 353664, Note_on_c, 0, 83, 87
4, 353664, Note_on_c, 0, 74, 87
4, 353788, Note_on_c, 0, 74, 0
4, 353788, Note_on_c, 0, 83, 0
4, 353792, Note_on_c, 0, 82, 87
4, 353792, Note_on_c, 0, 73, 87
4, 353916, Note_on_c, 0, 73, 0
4, 353916, Note_on_c, 0, 82, 0
4, 353920, Note_on_c, 0, 83, 87
4, 353920, Note_on_c, 0, 74, 87
4, 354044, Note_on_c, 0, 74, 0
4, 354044, Note_on_c, 0, 83, 0
4, 354048, Note_on_c, 0, 77, 87
4, 354048, Note_on_c, 0, 86, 87
4, 354172, Note_on_c, 0, 86, 0
4, 354172, Note_on_c, 0, 77, 0
4, 354176, Note_on_c, 0, 76, 87
4, 354176, Note_on_c, 0, 85, 87
4, 354300, Note_on_c, 0, 85, 0
4, 354300, Note_on_c, 0, 76, 0
4, 354304, Note_on_c, 0, 86, 87
4, 354304, Note_on_c, 0, 77, 87
4, 354428, Note_on_c, 0, 77, 0
4, 354428, Note_on_c, 0, 86, 0
4, 354432, Note_on_c, 0, 83, 87
4, 354432, Note_on_c, 0, 74, 87
4, 354556, Note_on_c, 0, 74, 0
4, 354556, Note_on_c, 0, 83, 0
4, 354560, Note_on_c, 0, 82, 87
4, 354560, Note_on_c, 0, 73, 87
4, 354684, Note_on_c, 0, 73, 0
4, 354684, Note_on_c, 0, 82, 0
4, 354688, Note_on_c, 0, 83, 87
4, 354688, Note_on_c, 0, 74, 87
4, 354812, Note_on_c, 0, 74, 0
4, 354812, Note_on_c, 0, 83, 0
4, 354816, Note_on_c, 0, 79, 87
4, 354816, Note_on_c, 0, 74, 87
4, 354816, Note_on_c, 0, 71, 87
4, 355004, Note_on_c, 0, 79, 0
4, 355008, Note_on_c, 0, 77, 87
4, 355184, Note_on_c, 0, 67, 87
4, 355196, Note_on_c, 0, 77, 0
4, 355196, Note_on_c, 0, 74, 0
4, 355196, Note_on_c, 0, 71, 0
4, 355200, Note_on_c, 0, 77, 87
4, 355200, Note_on_c, 0, 74, 87
4, 355580, Note_on_c, 0, 74, 0
4, 355580, Note_on_c, 0, 77, 0
4, 355584, Note_on_c, 0, 76, 87
4, 355584, Note_on_c, 0, 72, 87
4, 355948, Note_on_c, 0, 67, 0
4, 355964, Note_on_c, 0, 72, 0
4, 355964, Note_on_c, 0, 76, 0
4, 355968, Note_on_c, 0, 74, 87
4, 355968, Note_on_c, 0, 69, 87
4, 356156, Note_on_c, 0, 74, 0
4, 356160, Note_on_c, 0, 77, 87
4, 356348, Note_on_c, 0, 77, 0
4, 356348, Note_on_c, 0, 69, 0
4, 356352, Note_on_c, 0, 76, 87
4, 356352, Note_on_c, 0, 67, 87
4, 356540, Note_on_c, 0, 67, 0
4, 356540, Note_on_c, 0, 76, 0
4, 356544, Note_on_c, 0, 72, 87
4, 356544, Note_on_c, 0, 64, 87
4, 356732, Note_on_c, 0, 64, 0
4, 356732, Note_on_c, 0, 72, 0
4, 356736, Note_on_c, 0, 71, 87
4, 356736, Note_on_c, 0, 62, 87
4, 356924, Note_on_c, 0, 62, 0
4, 356924, Note_on_c, 0, 71, 0
4, 356928, Note_on_c, 0, 74, 87
4, 356928, Note_on_c, 0, 65, 87
4, 357116, Note_on_c, 0, 65, 0
4, 357116, Note_on_c, 0, 74, 0
4, 357120, Note_on_c, 0, 72, 87
4, 357120, Note_on_c, 0, 64, 87
4, 357244, Note_on_c, 0, 64, 0
4, 357244, Note_on_c, 0, 72, 0
4, 357248, Note_on_c, 0, 79, 87
4, 357248, Note_on_c, 0, 76, 87
4, 357372, Note_on_c, 0, 76, 0
4, 357372, Note_on_c, 0, 79, 0
4, 357376, Note_on_c, 0, 79, 87
4, 357376, Note_on_c, 0, 76, 87
4, 357500, Note_on_c, 0, 76, 0
4, 357500, Note_on_c, 0, 79, 0
4, 357504, Note_on_c, 0, 79, 87
4, 357504, Note_on_c, 0, 76, 87
4, 357628, Note_on_c, 0, 76, 0
4, 357628, Note_on_c, 0, 79, 0
4, 357632, Note_on_c, 0, 79, 87
4, 357632, Note_on_c, 0, 76, 87
4, 357756, Note_on_c, 0, 76, 0
4, 357756, Note_on_c, 0, 79, 0
4, 357760, Note_on_c, 0, 79, 87
4, 357760, Note_on_c, 0, 76, 87
4, 357884, Note_on_c, 0, 76, 0
4, 357884, Note_on_c, 0, 79, 0
4, 357888, Note_on_c, 0, 79, 87
4, 357888, Note_on_c, 0, 76, 87
4, 358012, Note_on_c, 0, 76, 0
4, 358012, Note_on_c, 0, 79, 0
4, 358016, Note_on_c, 0, 79, 87
4, 358016, Note_on_c, 0, 76, 87
4, 358140, Note_on_c, 0, 76, 0
4, 358140, Note_on_c, 0, 79, 0
4, 358144, Note_on_c, 0, 79, 87
4, 358144, Note_on_c, 0, 76, 87
4, 358268, Note_on_c, 0, 76, 0
4, 358268, Note_on_c, 0, 79, 0
4, 358272, Note_on_c, 0, 81, 87
4, 358272, Note_on_c, 0, 77, 87
4, 358460, Note_on_c, 0, 77, 0
4, 358460, Note_on_c, 0, 81, 0
4, 358464, Note_on_c, 0, 79, 87
4, 358464, Note_on_c, 0, 76, 87
4, 358640, Note_on_c, 0, 67, 87
4, 358652, Note_on_c, 0, 76, 0
4, 358652, Note_on_c, 0, 79, 0
4, 358656, Note_on_c, 0, 77, 87
4, 358656, Note_on_c, 0, 74, 87
4, 358748, Note_on_c, 0, 74, 0
4, 358748, Note_on_c, 0, 77, 0
4, 358848, Note_on_c, 0, 76, 87
4, 358848, Note_on_c, 0, 72, 87
4, 358940, Note_on_c, 0, 72, 0
4, 358940, Note_on_c, 0, 76, 0
4, 359040, Note_on_c, 0, 77, 87
4, 359040, Note_on_c, 0, 74, 87
4, 359212, Note_on_c, 0, 67, 0
4, 359228, Note_on_c, 0, 74, 0
4, 359228, Note_on_c, 0, 77, 0
4, 359232, Note_on_c, 0, 74, 87
4, 359232, Note_on_c, 0, 71, 87
4, 359232, Note_on_c, 0, 65, 87
4, 359420, Note_on_c, 0, 65, 0
4, 359420, Note_on_c, 0, 71, 0
4, 359420, Note_on_c, 0, 74, 0
4, 359424, Note_on_c, 0, 72, 87
4, 359424, Note_on_c, 0, 64, 87
4, 359548, Note_on_c, 0, 64, 0
4, 359548, Note_on_c, 0, 72, 0
4, 359552, Note_on_c, 0, 79, 87
4, 359552, Note_on_c, 0, 76, 87
4, 359676, Note_on_c, 0, 76, 0
4, 359676, Note_on_c, 0, 79, 0
4, 359680, Note_on_c, 0, 79, 87
4, 359680, Note_on_c, 0, 76, 87
4, 359804, Note_on_c, 0, 76, 0
4, 359804, Note_on_c, 0, 79, 0
4, 359808, Note_on_c, 0, 79, 87
4, 359808, Note_on_c, 0, 76, 87
4, 359932, Note_on_c, 0, 76, 0
4, 359932, Note_on_c, 0, 79, 0
4, 359936, Note_on_c, 0, 79, 87
4, 359936, Note_on_c, 0, 76, 87
4, 360060, Note_on_c, 0, 76, 0
4, 360060, Note_on_c, 0, 79, 0
4, 360064, Note_on_c, 0, 79, 87
4, 360064, Note_on_c, 0, 76, 87
4, 360188, Note_on_c, 0, 76, 0
4, 360188, Note_on_c, 0, 79, 0
4, 360192, Note_on_c, 0, 79, 87
4, 360192, Note_on_c, 0, 76, 87
4, 360316, Note_on_c, 0, 76, 0
4, 360316, Note_on_c, 0, 79, 0
4, 360320, Note_on_c, 0, 79, 87
4, 360320, Note_on_c, 0, 76, 87
4, 360444, Note_on_c, 0, 76, 0
4, 360444, Note_on_c, 0, 79, 0
4, 360448, Note_on_c, 0, 79, 87
4, 360448, Note_on_c, 0, 76, 87
4, 360572, Note_on_c, 0, 76, 0
4, 360572, Note_on_c, 0, 79, 0
4, 360576, Note_on_c, 0, 81, 87
4, 360576, Note_on_c, 0, 77, 87
4, 360764, Note_on_c, 0, 77, 0
4, 360764, Note_on_c, 0, 81, 0
4, 360768, Note_on_c, 0, 79, 87
4, 360768, Note_on_c, 0, 76, 87
4, 360944, Note_on_c, 0, 67, 87
4, 360956, Note_on_c, 0, 76, 0
4, 360956, Note_on_c, 0, 79, 0
4, 360960, Note_on_c, 0, 77, 87
4, 360960, Note_on_c, 0, 74, 87
4, 361052, Note_on_c, 0, 74, 0
4, 361052, Note_on_c, 0, 77, 0
4, 361152, Note_on_c, 0, 76, 87
4, 361152, Note_on_c, 0, 72, 87
4, 361244, Note_on_c, 0, 72, 0
4, 361244, Note_on_c, 0, 76, 0
4, 361344, Note_on_c, 0, 77, 87
4, 361344, Note_on_c, 0, 74, 87
4, 361516, Note_on_c, 0, 67, 0
4, 361520, Note_on_c, 0, 65, 87
4, 361532, Note_on_c, 0, 74, 0
4, 361532, Note_on_c, 0, 77, 0
4, 361536, Note_on_c, 0, 76, 87
4, 361536, Note_on_c, 0, 72, 87
4, 361708, Note_on_c, 0, 65, 0
4, 361724, Note_on_c, 0, 72, 0
4, 361724, Note_on_c, 0, 76, 0
4, 361728, Note_on_c, 0, 72, 87
4, 361728, Note_on_c, 0, 64, 87
4, 362108, Note_on_c, 0, 64, 0
4, 362108, Note_on_c, 0, 72, 0
4, 362112, Note_on_c, 0, 76, 87
4, 362112, Note_on_c, 0, 67, 87
4, 362468, Note_on_c, 0, 67, 0
4, 362468, Note_on_c, 0, 76, 0
4, 362496, Note_on_c, 0, 71, 87
4, 362496, Note_on_c, 0, 65, 87
4, 362496, Note_on_c, 0, 62, 87
4, 362620, Note_on_c, 0, 62, 0
4, 362620, Note_on_c, 0, 65, 0
4, 362620, Note_on_c, 0, 71, 0
4, 362624, Note_on_c, 0, 71, 87
4, 362624, Note_on_c, 0, 65, 87
4, 362624, Note_on_c, 0, 62, 87
4, 362748, Note_on_c, 0, 62, 0
4, 362748, Note_on_c, 0, 65, 0
4, 362748, Note_on_c, 0, 71, 0
4, 362752, Note_on_c, 0, 71, 87
4, 362752, Note_on_c, 0, 65, 87
4, 362752, Note_on_c, 0, 62, 87
4, 362876, Note_on_c, 0, 62, 0
4, 362876, Note_on_c, 0, 65, 0
4, 362876, Note_on_c, 0, 71, 0
4, 362880, Note_on_c, 0, 72, 87
4, 362880, Note_on_c, 0, 64, 87
4, 363260, Note_on_c, 0, 64, 0
4, 363260, Note_on_c, 0, 72, 0
4, 363264, Note_on_c, 0, 79, 87
4, 363264, Note_on_c, 0, 72, 87
4, 363264, Note_on_c, 0, 67, 87
4, 363620, Note_on_c, 0, 67, 0
4, 363620, Note_on_c, 0, 72, 0
4, 363620, Note_on_c, 0, 79, 0
4, 363648, Note_on_c, 0, 71, 87
4, 363648, Note_on_c, 0, 65, 87
4, 363648, Note_on_c, 0, 62, 87
4, 363772, Note_on_c, 0, 62, 0
4, 363772, Note_on_c, 0, 65, 0
4, 363772, Note_on_c, 0, 71, 0
4, 363776, Note_on_c, 0, 71, 87
4, 363776, Note_on_c, 0, 65, 87
4, 363776, Note_on_c, 0, 62, 87
4, 363900, Note_on_c, 0, 62, 0
4, 363900, Note_on_c, 0, 65, 0
4, 363900, Note_on_c, 0, 71, 0
4, 363904, Note_on_c, 0, 71, 87
4, 363904, Note_on_c, 0, 65, 87
4, 363904, Note_on_c, 0, 62, 87
4, 364028, Note_on_c, 0, 62, 0
4, 364028, Note_on_c, 0, 65, 0
4, 364028, Note_on_c, 0, 71, 0
4, 364032, Note_on_c, 0, 72, 87
4, 364032, Note_on_c, 0, 64, 87
4, 364400, Note_on_c, 0, 72, 87
4, 364412, Note_on_c, 0, 64, 0
4, 364412, Note_on_c, 0, 72, 0
4, 364416, Note_on_c, 0, 84, 94
4, 364416, Note_on_c, 0, 79, 94
4, 364416, Note_on_c, 0, 76, 94
4, 364780, Note_on_c, 0, 72, 0
4, 364784, Note_on_c, 0, 79, 94
4, 364784, Note_on_c, 0, 72, 94
4, 364796, Note_on_c, 0, 84, 0
4, 364796, Note_on_c, 0, 76, 0
4, 364796, Note_on_c, 0, 79, 0
4, 364800, Note_on_c, 0, 84, 94
4, 364800, Note_on_c, 0, 76, 94
4, 365164, Note_on_c, 0, 79, 0
4, 365164, Note_on_c, 0, 72, 0
4, 365180, Note_on_c, 0, 84, 0
4, 365180, Note_on_c, 0, 76, 0
4, 365184, Note_on_c, 0, 84, 94
4, 365184, Note_on_c, 0, 79, 94
4, 365184, Note_on_c, 0, 76, 94
4, 365184, Note_on_c, 0, 72, 94
4, 365564, Note_on_c, 0, 72, 0
4, 365564, Note_on_c, 0, 84, 0
4, 365564, Note_on_c, 0, 79, 0
4, 365564, Note_on_c, 0, 76, 0
4, 365564, End_track
5, 0, Start_track
5, 0, Title_t, "Piano"
5, 0, Control_c, 0, 0, 0
5, 0, Control_c, 0, 7, 115
5, 0, Control_c, 0, 10, 44
5, 0, Control_c, 0, 91, 42
5, 0, Control_c, 0, 93, 33
5, 0, Control_c, 0, 121, 0
5, 0, Control_c, 0, 32, 0
5, 1, Program_c, 0, 0
5, 96, Control_c, 0, 10, 43
5, 192, Control_c, 0, 91, 63
5, 240, Control_c, 0, 93, 40
5, 288, Program_c, 0, 0
5, 11520, Note_on_c, 0, 64, 87
5, 11520, Note_on_c, 0, 60, 87
5, 11708, Note_on_c, 0, 60, 0
5, 11708, Note_on_c, 0, 64, 0
5, 12288, Note_on_c, 0, 62, 87
5, 12288, Note_on_c, 0, 55, 87
5, 12476, Note_on_c, 0, 55, 0
5, 12476, Note_on_c, 0, 62, 0
5, 12672, Note_on_c, 0, 60, 87
5, 12672, Note_on_c, 0, 57, 87
5, 12860, Note_on_c, 0, 57, 0
5, 12860, Note_on_c, 0, 60, 0
5, 13824, Note_on_c, 0, 53, 87
5, 14204, Note_on_c, 0, 53, 0
5, 14208, Note_on_c, 0, 62, 87
5, 14208, Note_on_c, 0, 57, 87
5, 14588, Note_on_c, 0, 57, 0
5, 14588, Note_on_c, 0, 62, 0
5, 14592, Note_on_c, 0, 62, 87
5, 14592, Note_on_c, 0, 57, 87
5, 14972, Note_on_c, 0, 57, 0
5, 14972, Note_on_c, 0, 62, 0
5, 14976, Note_on_c, 0, 55, 87
5, 15356, Note_on_c, 0, 55, 0
5, 15360, Note_on_c, 0, 62, 87
5, 15360, Note_on_c, 0, 65, 87
5, 15740, Note_on_c, 0, 65, 0
5, 15740, Note_on_c, 0, 62, 0
5, 15744, Note_on_c, 0, 59, 87
5, 15744, Note_on_c, 0, 62, 87
5, 15744, Note_on_c, 0, 65, 87
5, 16124, Note_on_c, 0, 65, 0
5, 16124, Note_on_c, 0, 62, 0
5, 16124, Note_on_c, 0, 59, 0
5, 16128, Note_on_c, 0, 60, 87
5, 16128, Note_on_c, 0, 64, 87
5, 16508, Note_on_c, 0, 64, 0
5, 16508, Note_on_c, 0, 60, 0
5, 16896, Note_on_c, 0, 62, 87
5, 16896, Note_on_c, 0, 56, 87
5, 17084, Note_on_c, 0, 56, 0
5, 17084, Note_on_c, 0, 62, 0
5, 17280, Note_on_c, 0, 60, 87
5, 17280, Note_on_c, 0, 57, 87
5, 17468, Note_on_c, 0, 57, 0
5, 17468, Note_on_c, 0, 60, 0
5, 18048, Note_on_c, 0, 60, 87
5, 18048, Note_on_c, 0, 55, 87
5, 18048, Note_on_c, 0, 52, 87
5, 18236, Note_on_c, 0, 52, 0
5, 18236, Note_on_c, 0, 55, 0
5, 18236, Note_on_c, 0, 60, 0
5, 18432, Note_on_c, 0, 62, 87
5, 18432, Note_on_c, 0, 57, 87
5, 18432, Note_on_c, 0, 53, 87
5, 18620, Note_on_c, 0, 53, 0
5, 18620, Note_on_c, 0, 57, 0
5, 18620, Note_on_c, 0, 62, 0
5, 18816, Note_on_c, 0, 64, 87
5, 18816, Note_on_c, 0, 55, 87
5, 19196, Note_on_c, 0, 55, 0
5, 19196, Note_on_c, 0, 64, 0
5, 19200, Note_on_c, 0, 65, 87
5, 19200, Note_on_c, 0, 62, 87
5, 19200, Note_on_c, 0, 55, 87
5, 19580, Note_on_c, 0, 55, 0
5, 19580, Note_on_c, 0, 62, 0
5, 19580, Note_on_c, 0, 65, 0
5, 19584, Note_on_c, 0, 64, 66
5, 19584, Note_on_c, 0, 60, 66
5, 19964, Note_on_c, 0, 60, 0
5, 19964, Note_on_c, 0, 64, 0
5, 19968, Note_on_c, 0, 48, 66
5, 20348, Note_on_c, 0, 48, 0
5, 20736, Note_on_c, 0, 43, 66
5, 21116, Note_on_c, 0, 43, 0
5, 21120, Note_on_c, 0, 55, 66
5, 21500, Note_on_c, 0, 55, 0
5, 21504, Note_on_c, 0, 55, 66
5, 21884, Note_on_c, 0, 55, 0
5, 21888, Note_on_c, 0, 43, 66
5, 22268, Note_on_c, 0, 43, 0
5, 22272, Note_on_c, 0, 55, 66
5, 22652, Note_on_c, 0, 55, 0
5, 22656, Note_on_c, 0, 55, 66
5, 23036, Note_on_c, 0, 55, 0
5, 23040, Note_on_c, 0, 43, 66
5, 23420, Note_on_c, 0, 43, 0
5, 23424, Note_on_c, 0, 55, 66
5, 23804, Note_on_c, 0, 55, 0
5, 23808, Note_on_c, 0, 55, 66
5, 24188, Note_on_c, 0, 55, 0
5, 24192, Note_on_c, 0, 43, 66
5, 24572, Note_on_c, 0, 43, 0
5, 24576, Note_on_c, 0, 55, 66
5, 24956, Note_on_c, 0, 55, 0
5, 24960, Note_on_c, 0, 55, 66
5, 25340, Note_on_c, 0, 55, 0
5, 26880, Note_on_c, 0, 59, 87
5, 26880, Note_on_c, 0, 47, 87
5, 27260, Note_on_c, 0, 47, 0
5, 27260, Note_on_c, 0, 59, 0
5, 27264, Note_on_c, 0, 60, 87
5, 27264, Note_on_c, 0, 48, 87
5, 27644, Note_on_c, 0, 48, 0
5, 27644, Note_on_c, 0, 60, 0
5, 27648, Note_on_c, 0, 53, 87
5, 27648, Note_on_c, 0, 41, 87
5, 27836, Note_on_c, 0, 41, 0
5, 27836, Note_on_c, 0, 53, 0
5, 28032, Note_on_c, 0, 50, 87
5, 28032, Note_on_c, 0, 38, 87
5, 28220, Note_on_c, 0, 38, 0
5, 28220, Note_on_c, 0, 50, 0
5, 28416, Note_on_c, 0, 55, 87
5, 28416, Note_on_c, 0, 43, 87
5, 28604, Note_on_c, 0, 43, 0
5, 28604, Note_on_c, 0, 55, 0
5, 28800, Note_on_c, 0, 48, 87
5, 28800, Note_on_c, 0, 36, 87
5, 28988, Note_on_c, 0, 36, 0
5, 28988, Note_on_c, 0, 48, 0
5, 29184, Note_on_c, 0, 52, 87
5, 29372, Note_on_c, 0, 52, 0
5, 29568, Note_on_c, 0, 48, 87
5, 29756, Note_on_c, 0, 48, 0
5, 29952, Note_on_c, 0, 43, 94
5, 30332, Note_on_c, 0, 43, 0
5, 30336, Note_on_c, 0, 43, 87
5, 30336, Note_on_c, 0, 55, 87
5, 30716, Note_on_c, 0, 43, 0
5, 30720, Note_on_c, 0, 43, 87
5, 30908, Note_on_c, 0, 55, 0
5, 30912, Note_on_c, 0, 53, 87
5, 31100, Note_on_c, 0, 53, 0
5, 31100, Note_on_c, 0, 43, 0
5, 31104, Note_on_c, 0, 52, 87
5, 31104, Note_on_c, 0, 48, 87
5, 31292, Note_on_c, 0, 52, 0
5, 31484, Note_on_c, 0, 48, 0
5, 31488, Note_on_c, 0, 55, 87
5, 31676, Note_on_c, 0, 55, 0
5, 31872, Note_on_c, 0, 52, 87
5, 32060, Note_on_c, 0, 52, 0
5, 32256, Note_on_c, 0, 43, 94
5, 32636, Note_on_c, 0, 43, 0
5, 32640, Note_on_c, 0, 43, 87
5, 32640, Note_on_c, 0, 55, 87
5, 33020, Note_on_c, 0, 43, 0
5, 33024, Note_on_c, 0, 43, 87
5, 33212, Note_on_c, 0, 55, 0
5, 33216, Note_on_c, 0, 53, 87
5, 33404, Note_on_c, 0, 53, 0
5, 33404, Note_on_c, 0, 43, 0
5, 33408, Note_on_c, 0, 48, 66
5, 33788, Note_on_c, 0, 48, 0
5, 42816, Note_on_c, 0, 62, 87
5, 42816, Note_on_c, 0, 50, 87
5, 42908, Note_on_c, 0, 50, 0
5, 42908, Note_on_c, 0, 62, 0
5, 43008, Note_on_c, 0, 62, 87
5, 43008, Note_on_c, 0, 50, 87
5, 43100, Note_on_c, 0, 50, 0
5, 43100, Note_on_c, 0, 62, 0
5, 43200, Note_on_c, 0, 62, 87
5, 43200, Note_on_c, 0, 50, 87
5, 43292, Note_on_c, 0, 50, 0
5, 43292, Note_on_c, 0, 62, 0
5, 43392, Note_on_c, 0, 62, 87
5, 43392, Note_on_c, 0, 50, 87
5, 43484, Note_on_c, 0, 50, 0
5, 43484, Note_on_c, 0, 62, 0
5, 43584, Note_on_c, 0, 62, 87
5, 43584, Note_on_c, 0, 50, 87
5, 43676, Note_on_c, 0, 50, 0
5, 43676, Note_on_c, 0, 62, 0
5, 43776, Note_on_c, 0, 64, 87
5, 43776, Note_on_c, 0, 52, 87
5, 43964, Note_on_c, 0, 52, 0
5, 43964, Note_on_c, 0, 64, 0
5, 43968, Note_on_c, 0, 62, 87
5, 43968, Note_on_c, 0, 50, 87
5, 44156, Note_on_c, 0, 50, 0
5, 44156, Note_on_c, 0, 62, 0
5, 44160, Note_on_c, 0, 60, 87
5, 44160, Note_on_c, 0, 48, 87
5, 44252, Note_on_c, 0, 48, 0
5, 44252, Note_on_c, 0, 60, 0
5, 44352, Note_on_c, 0, 59, 87
5, 44352, Note_on_c, 0, 47, 87
5, 44444, Note_on_c, 0, 47, 0
5, 44444, Note_on_c, 0, 59, 0
5, 44544, Note_on_c, 0, 57, 87
5, 44544, Note_on_c, 0, 45, 87
5, 44636, Note_on_c, 0, 45, 0
5, 44636, Note_on_c, 0, 57, 0
5, 44736, Note_on_c, 0, 55, 87
5, 44736, Note_on_c, 0, 43, 87
5, 44828, Note_on_c, 0, 43, 0
5, 44828, Note_on_c, 0, 55, 0
5, 44928, Note_on_c, 0, 62, 87
5, 44928, Note_on_c, 0, 50, 87
5, 45116, Note_on_c, 0, 50, 0
5, 45116, Note_on_c, 0, 62, 0
5, 45312, Note_on_c, 0, 50, 87
5, 45312, Note_on_c, 0, 38, 87
5, 45692, Note_on_c, 0, 38, 0
5, 45692, Note_on_c, 0, 50, 0
5, 46464, Note_on_c, 0, 47, 66
5, 46844, Note_on_c, 0, 47, 0
5, 46848, Note_on_c, 0, 43, 66
5, 47228, Note_on_c, 0, 43, 0
5, 47616, Note_on_c, 0, 52, 66
5, 47996, Note_on_c, 0, 52, 0
5, 48000, Note_on_c, 0, 48, 66
5, 48380, Note_on_c, 0, 48, 0
5, 48384, Note_on_c, 0, 47, 66
5, 48476, Note_on_c, 0, 47, 0
5, 48768, Note_on_c, 0, 55, 66
5, 48768, Note_on_c, 0, 48, 66
5, 48860, Note_on_c, 0, 48, 0
5, 48860, Note_on_c, 0, 55, 0
5, 49152, Note_on_c, 0, 57, 66
5, 49152, Note_on_c, 0, 49, 66
5, 49244, Note_on_c, 0, 49, 0
5, 49244, Note_on_c, 0, 57, 0
5, 49536, Note_on_c, 0, 50, 67
5, 49724, Note_on_c, 0, 50, 0
5, 49920, Note_on_c, 0, 45, 66
5, 50300, Note_on_c, 0, 45, 0
5, 50304, Note_on_c, 0, 42, 66
5, 50684, Note_on_c, 0, 42, 0
5, 51072, Note_on_c, 0, 47, 66
5, 51452, Note_on_c, 0, 47, 0
5, 51456, Note_on_c, 0, 43, 66
5, 51836, Note_on_c, 0, 43, 0
5, 52224, Note_on_c, 0, 52, 66
5, 52604, Note_on_c, 0, 52, 0
5, 52608, Note_on_c, 0, 48, 66
5, 52988, Note_on_c, 0, 48, 0
5, 52992, Note_on_c, 0, 47, 66
5, 53276, Note_on_c, 0, 47, 0
5, 53280, Note_on_c, 0, 48, 66
5, 53372, Note_on_c, 0, 48, 0
5, 53376, Note_on_c, 0, 50, 66
5, 53564, Note_on_c, 0, 50, 0
5, 53760, Note_on_c, 0, 50, 66
5, 53760, Note_on_c, 0, 38, 66
5, 53948, Note_on_c, 0, 38, 0
5, 53948, Note_on_c, 0, 50, 0
5, 54144, Note_on_c, 0, 55, 66
5, 54144, Note_on_c, 0, 43, 66
5, 54332, Note_on_c, 0, 43, 0
5, 54332, Note_on_c, 0, 55, 0
5, 54528, Note_on_c, 0, 43, 66
5, 54528, Note_on_c, 0, 31, 66
5, 54908, Note_on_c, 0, 31, 0
5, 54908, Note_on_c, 0, 43, 0
5, 64512, Note_on_c, 0, 55, 66
5, 64512, Note_on_c, 0, 45, 66
5, 64892, Note_on_c, 0, 45, 0
5, 64892, Note_on_c, 0, 55, 0
5, 64896, Note_on_c, 0, 55, 66
5, 65084, Note_on_c, 0, 55, 0
5, 65088, Note_on_c, 0, 59, 66
5, 65180, Note_on_c, 0, 59, 0
5, 65280, Note_on_c, 0, 57, 66
5, 65372, Note_on_c, 0, 57, 0
5, 65472, Note_on_c, 0, 55, 66
5, 65564, Note_on_c, 0, 55, 0
5, 65664, Note_on_c, 0, 50, 66
5, 65664, Note_on_c, 0, 50, 66
5, 66044, Note_on_c, 0, 50, 0
5, 66044, Note_on_c, 0, 50, 0
5, 66048, Note_on_c, 0, 50, 66
5, 66236, Note_on_c, 0, 50, 0
5, 66240, Note_on_c, 0, 57, 66
5, 66332, Note_on_c, 0, 57, 0
5, 66432, Note_on_c, 0, 54, 66
5, 66524, Note_on_c, 0, 54, 0
5, 66624, Note_on_c, 0, 52, 66
5, 66716, Note_on_c, 0, 52, 0
5, 66816, Note_on_c, 0, 50, 66
5, 66816, Note_on_c, 0, 50, 66
5, 67196, Note_on_c, 0, 50, 0
5, 67196, Note_on_c, 0, 50, 0
5, 67200, Note_on_c, 0, 50, 66
5, 67388, Note_on_c, 0, 50, 0
5, 67392, Note_on_c, 0, 60, 66
5, 67580, Note_on_c, 0, 60, 0
5, 67584, Note_on_c, 0, 59, 66
5, 67772, Note_on_c, 0, 59, 0
5, 67776, Note_on_c, 0, 54, 66
5, 67964, Note_on_c, 0, 54, 0
5, 67968, Note_on_c, 0, 57, 66
5, 67968, Note_on_c, 0, 43, 66
5, 68348, Note_on_c, 0, 43, 0
5, 68348, Note_on_c, 0, 57, 0
5, 69120, Note_on_c, 0, 55, 66
5, 69120, Note_on_c, 0, 43, 66
5, 69500, Note_on_c, 0, 43, 0
5, 69500, Note_on_c, 0, 55, 0
5, 69504, Note_on_c, 0, 59, 66
5, 69504, Note_on_c, 0, 55, 66
5, 69884, Note_on_c, 0, 55, 0
5, 69884, Note_on_c, 0, 59, 0
5, 70272, Note_on_c, 0, 55, 66
5, 70272, Note_on_c, 0, 43, 66
5, 70652, Note_on_c, 0, 43, 0
5, 70652, Note_on_c, 0, 55, 0
5, 70656, Note_on_c, 0, 59, 66
5, 70656, Note_on_c, 0, 62, 66
5, 71036, Note_on_c, 0, 62, 0
5, 71036, Note_on_c, 0, 59, 0
5, 71712, Note_on_c, 0, 47, 66
5, 71804, Note_on_c, 0, 47, 0
5, 71808, Note_on_c, 0, 50, 66
5, 71996, Note_on_c, 0, 50, 0
5, 72192, Note_on_c, 0, 50, 66
5, 72192, Note_on_c, 0, 38, 66
5, 72380, Note_on_c, 0, 38, 0
5, 72380, Note_on_c, 0, 50, 0
5, 72576, Note_on_c, 0, 55, 66
5, 72576, Note_on_c, 0, 43, 66
5, 72956, Note_on_c, 0, 43, 0
5, 72956, Note_on_c, 0, 55, 0
5, 72960, Note_on_c, 0, 62, 60
5, 72960, Note_on_c, 0, 55, 60
5, 73052, Note_on_c, 0, 55, 0
5, 73052, Note_on_c, 0, 62, 0
5, 73152, Note_on_c, 0, 62, 60
5, 73152, Note_on_c, 0, 55, 60
5, 73244, Note_on_c, 0, 55, 0
5, 73244, Note_on_c, 0, 62, 0
5, 73248, Note_on_c, 0, 62, 60
5, 73248, Note_on_c, 0, 55, 60
5, 73340, Note_on_c, 0, 55, 0
5, 73340, Note_on_c, 0, 62, 0
5, 73344, Note_on_c, 0, 62, 60
5, 73344, Note_on_c, 0, 55, 60
5, 73436, Note_on_c, 0, 55, 0
5, 73436, Note_on_c, 0, 62, 0
5, 73536, Note_on_c, 0, 62, 60
5, 73536, Note_on_c, 0, 55, 60
5, 73628, Note_on_c, 0, 55, 0
5, 73628, Note_on_c, 0, 62, 0
5, 73728, Note_on_c, 0, 62, 60
5, 73728, Note_on_c, 0, 55, 60
5, 73916, Note_on_c, 0, 55, 0
5, 73916, Note_on_c, 0, 62, 0
5, 74112, Note_on_c, 0, 62, 60
5, 74112, Note_on_c, 0, 55, 60
5, 74204, Note_on_c, 0, 55, 0
5, 74204, Note_on_c, 0, 62, 0
5, 74304, Note_on_c, 0, 62, 60
5, 74304, Note_on_c, 0, 55, 60
5, 74396, Note_on_c, 0, 55, 0
5, 74396, Note_on_c, 0, 62, 0
5, 74400, Note_on_c, 0, 62, 60
5, 74400, Note_on_c, 0, 55, 60
5, 74492, Note_on_c, 0, 55, 0
5, 74492, Note_on_c, 0, 62, 0
5, 74496, Note_on_c, 0, 62, 60
5, 74496, Note_on_c, 0, 55, 60
5, 74588, Note_on_c, 0, 55, 0
5, 74588, Note_on_c, 0, 62, 0
5, 74688, Note_on_c, 0, 62, 60
5, 74688, Note_on_c, 0, 55, 60
5, 74780, Note_on_c, 0, 55, 0
5, 74780, Note_on_c, 0, 62, 0
5, 74880, Note_on_c, 0, 62, 60
5, 74880, Note_on_c, 0, 55, 60
5, 75068, Note_on_c, 0, 55, 0
5, 75068, Note_on_c, 0, 62, 0
5, 75264, Note_on_c, 0, 55, 60
5, 75264, Note_on_c, 0, 62, 60
5, 75356, Note_on_c, 0, 62, 0
5, 75356, Note_on_c, 0, 55, 0
5, 75456, Note_on_c, 0, 55, 60
5, 75456, Note_on_c, 0, 62, 60
5, 75548, Note_on_c, 0, 62, 0
5, 75548, Note_on_c, 0, 55, 0
5, 75552, Note_on_c, 0, 55, 60
5, 75552, Note_on_c, 0, 62, 60
5, 75644, Note_on_c, 0, 62, 0
5, 75644, Note_on_c, 0, 55, 0
5, 75648, Note_on_c, 0, 55, 60
5, 75648, Note_on_c, 0, 62, 60
5, 75740, Note_on_c, 0, 62, 0
5, 75740, Note_on_c, 0, 55, 0
5, 75840, Note_on_c, 0, 55, 60
5, 75840, Note_on_c, 0, 62, 60
5, 75932, Note_on_c, 0, 62, 0
5, 75932, Note_on_c, 0, 55, 0
5, 76032, Note_on_c, 0, 62, 60
5, 76032, Note_on_c, 0, 55, 60
5, 76316, Note_on_c, 0, 55, 0
5, 76316, Note_on_c, 0, 62, 0
5, 76320, Note_on_c, 0, 55, 60
5, 76320, Note_on_c, 0, 50, 60
5, 76320, Note_on_c, 0, 47, 60
5, 76412, Note_on_c, 0, 47, 0
5, 76412, Note_on_c, 0, 50, 0
5, 76412, Note_on_c, 0, 55, 0
5, 76416, Note_on_c, 0, 59, 60
5, 76416, Note_on_c, 0, 55, 60
5, 76416, Note_on_c, 0, 50, 60
5, 76604, Note_on_c, 0, 50, 0
5, 76604, Note_on_c, 0, 55, 0
5, 76604, Note_on_c, 0, 59, 0
5, 76800, Note_on_c, 0, 57, 60
5, 76800, Note_on_c, 0, 54, 60
5, 76800, Note_on_c, 0, 50, 60
5, 76988, Note_on_c, 0, 50, 0
5, 76988, Note_on_c, 0, 54, 0
5, 76988, Note_on_c, 0, 57, 0
5, 77184, Note_on_c, 0, 55, 60
5, 77184, Note_on_c, 0, 43, 60
5, 77564, Note_on_c, 0, 43, 0
5, 77564, Note_on_c, 0, 55, 0
5, 81792, Note_on_c, 0, 55, 66
5, 81792, Note_on_c, 0, 43, 66
5, 84092, Note_on_c, 0, 43, 0
5, 84092, Note_on_c, 0, 55, 0
5, 84096, Note_on_c, 0, 55, 66
5, 84096, Note_on_c, 0, 43, 66
5, 86396, Note_on_c, 0, 43, 0
5, 86396, Note_on_c, 0, 55, 0
5, 86400, Note_on_c, 0, 55, 87
5, 86400, Note_on_c, 0, 43, 87
5, 87548, Note_on_c, 0, 43, 0
5, 87548, Note_on_c, 0, 55, 0
5, 88896, Note_on_c, 0, 55, 66
5, 88896, Note_on_c, 0, 43, 66
5, 88988, Note_on_c, 0, 43, 0
5, 88988, Note_on_c, 0, 55, 0
5, 89088, Note_on_c, 0, 55, 66
5, 89088, Note_on_c, 0, 43, 66
5, 89468, Note_on_c, 0, 43, 0
5, 89468, Note_on_c, 0, 55, 0
5, 90048, Note_on_c, 0, 55, 66
5, 90048, Note_on_c, 0, 43, 66
5, 90140, Note_on_c, 0, 43, 0
5, 90140, Note_on_c, 0, 55, 0
5, 90240, Note_on_c, 0, 55, 66
5, 90240, Note_on_c, 0, 43, 66
5, 90428, Note_on_c, 0, 43, 0
5, 90428, Note_on_c, 0, 55, 0
5, 92736, Note_on_c, 0, 43, 72
5, 92736, Note_on_c, 0, 31, 72
5, 92828, Note_on_c, 0, 31, 0
5, 92828, Note_on_c, 0, 43, 0
5, 92928, Note_on_c, 0, 47, 77
5, 92928, Note_on_c, 0, 35, 77
5, 93020, Note_on_c, 0, 35, 0
5, 93020, Note_on_c, 0, 47, 0
5, 93120, Note_on_c, 0, 50, 82
5, 93120, Note_on_c, 0, 38, 82
5, 93212, Note_on_c, 0, 38, 0
5, 93212, Note_on_c, 0, 50, 0
5, 93312, Note_on_c, 0, 53, 87
5, 93312, Note_on_c, 0, 41, 87
5, 93692, Note_on_c, 0, 41, 0
5, 93692, Note_on_c, 0, 53, 0
5, 107136, Note_on_c, 0, 64, 87
5, 107136, Note_on_c, 0, 60, 87
5, 107324, Note_on_c, 0, 60, 0
5, 107324, Note_on_c, 0, 64, 0
5, 107904, Note_on_c, 0, 62, 87
5, 107904, Note_on_c, 0, 55, 87
5, 108092, Note_on_c, 0, 55, 0
5, 108092, Note_on_c, 0, 62, 0
5, 108288, Note_on_c, 0, 60, 87
5, 108288, Note_on_c, 0, 57, 87
5, 108476, Note_on_c, 0, 57, 0
5, 108476, Note_on_c, 0, 60, 0
5, 109440, Note_on_c, 0, 53, 87
5, 109820, Note_on_c, 0, 53, 0
5, 109824, Note_on_c, 0, 57, 89
5, 109824, Note_on_c, 0, 62, 89
5, 110204, Note_on_c, 0, 62, 0
5, 110204, Note_on_c, 0, 57, 0
5, 110208, Note_on_c, 0, 57, 90
5, 110208, Note_on_c, 0, 62, 90
5, 110588, Note_on_c, 0, 62, 0
5, 110588, Note_on_c, 0, 57, 0
5, 110592, Note_on_c, 0, 55, 93
5, 110972, Note_on_c, 0, 55, 0
5, 110976, Note_on_c, 0, 59, 90
5, 110976, Note_on_c, 0, 62, 90
5, 110976, Note_on_c, 0, 65, 90
5, 111356, Note_on_c, 0, 65, 0
5, 111356, Note_on_c, 0, 62, 0
5, 111356, Note_on_c, 0, 59, 0
5, 111360, Note_on_c, 0, 62, 87
5, 111360, Note_on_c, 0, 65, 87
5, 111360, Note_on_c, 0, 59, 87
5, 111740, Note_on_c, 0, 59, 0
5, 111740, Note_on_c, 0, 65, 0
5, 111740, Note_on_c, 0, 62, 0
5, 111744, Note_on_c, 0, 64, 87
5, 111744, Note_on_c, 0, 60, 87
5, 111932, Note_on_c, 0, 60, 0
5, 111932, Note_on_c, 0, 64, 0
5, 112512, Note_on_c, 0, 62, 87
5, 112512, Note_on_c, 0, 59, 87
5, 112512, Note_on_c, 0, 56, 87
5, 112700, Note_on_c, 0, 56, 0
5, 112700, Note_on_c, 0, 59, 0
5, 112700, Note_on_c, 0, 62, 0
5, 112896, Note_on_c, 0, 60, 87
5, 112896, Note_on_c, 0, 57, 87
5, 113084, Note_on_c, 0, 57, 0
5, 113084, Note_on_c, 0, 60, 0
5, 113664, Note_on_c, 0, 60, 87
5, 113664, Note_on_c, 0, 55, 87
5, 113664, Note_on_c, 0, 52, 87
5, 113852, Note_on_c, 0, 52, 0
5, 113852, Note_on_c, 0, 55, 0
5, 113852, Note_on_c, 0, 60, 0
5, 114048, Note_on_c, 0, 57, 89
5, 114048, Note_on_c, 0, 53, 89
5, 114236, Note_on_c, 0, 57, 0
5, 114240, Note_on_c, 0, 65, 89
5, 114428, Note_on_c, 0, 65, 0
5, 114428, Note_on_c, 0, 53, 0
5, 114432, Note_on_c, 0, 55, 90
5, 114432, Note_on_c, 0, 64, 90
5, 114812, Note_on_c, 0, 64, 0
5, 114812, Note_on_c, 0, 55, 0
5, 114816, Note_on_c, 0, 65, 87
5, 114816, Note_on_c, 0, 62, 87
5, 114816, Note_on_c, 0, 55, 87
5, 115004, Note_on_c, 0, 55, 0
5, 115004, Note_on_c, 0, 62, 0
5, 115004, Note_on_c, 0, 65, 0
5, 115200, Note_on_c, 0, 60, 87
5, 115200, Note_on_c, 0, 64, 87
5, 115388, Note_on_c, 0, 64, 0
5, 115388, Note_on_c, 0, 60, 0
5, 115584, Note_on_c, 0, 48, 66
5, 115772, Note_on_c, 0, 48, 0
5, 116352, Note_on_c, 0, 43, 66
5, 116732, Note_on_c, 0, 43, 0
5, 116736, Note_on_c, 0, 55, 66
5, 117116, Note_on_c, 0, 55, 0
5, 117120, Note_on_c, 0, 55, 66
5, 117500, Note_on_c, 0, 55, 0
5, 117504, Note_on_c, 0, 43, 66
5, 117884, Note_on_c, 0, 43, 0
5, 117888, Note_on_c, 0, 55, 66
5, 118268, Note_on_c, 0, 55, 0
5, 118272, Note_on_c, 0, 55, 66
5, 118652, Note_on_c, 0, 55, 0
5, 118656, Note_on_c, 0, 43, 66
5, 119036, Note_on_c, 0, 43, 0
5, 119040, Note_on_c, 0, 55, 66
5, 119420, Note_on_c, 0, 55, 0
5, 119424, Note_on_c, 0, 55, 66
5, 119804, Note_on_c, 0, 55, 0
5, 119808, Note_on_c, 0, 43, 66
5, 120188, Note_on_c, 0, 43, 0
5, 120192, Note_on_c, 0, 55, 66
5, 120572, Note_on_c, 0, 55, 0
5, 120576, Note_on_c, 0, 55, 66
5, 120956, Note_on_c, 0, 55, 0
5, 122496, Note_on_c, 0, 55, 87
5, 122496, Note_on_c, 0, 47, 87
5, 122876, Note_on_c, 0, 47, 0
5, 122876, Note_on_c, 0, 55, 0
5, 122880, Note_on_c, 0, 55, 87
5, 122880, Note_on_c, 0, 48, 87
5, 123260, Note_on_c, 0, 48, 0
5, 123260, Note_on_c, 0, 55, 0
5, 123264, Note_on_c, 0, 53, 87
5, 123644, Note_on_c, 0, 53, 0
5, 123648, Note_on_c, 0, 50, 89
5, 123840, Note_on_c, 0, 57, 89
5, 124028, Note_on_c, 0, 57, 0
5, 124028, Note_on_c, 0, 50, 0
5, 124032, Note_on_c, 0, 55, 90
5, 124412, Note_on_c, 0, 55, 0
5, 124416, Note_on_c, 0, 48, 66
5, 124796, Note_on_c, 0, 48, 0
5, 124800, Note_on_c, 0, 52, 66
5, 124988, Note_on_c, 0, 52, 0
5, 125184, Note_on_c, 0, 48, 66
5, 125372, Note_on_c, 0, 48, 0
5, 125568, Note_on_c, 0, 43, 86
5, 125948, Note_on_c, 0, 43, 0
5, 125952, Note_on_c, 0, 43, 80
5, 125952, Note_on_c, 0, 55, 80
5, 126332, Note_on_c, 0, 43, 0
5, 126336, Note_on_c, 0, 43, 73
5, 126524, Note_on_c, 0, 55, 0
5, 126528, Note_on_c, 0, 53, 70
5, 126716, Note_on_c, 0, 53, 0
5, 126716, Note_on_c, 0, 43, 0
5, 126720, Note_on_c, 0, 52, 66
5, 126720, Note_on_c, 0, 48, 66
5, 126908, Note_on_c, 0, 52, 0
5, 127100, Note_on_c, 0, 48, 0
5, 127104, Note_on_c, 0, 52, 73
5, 127292, Note_on_c, 0, 52, 0
5, 127488, Note_on_c, 0, 48, 80
5, 127676, Note_on_c, 0, 48, 0
5, 127872, Note_on_c, 0, 43, 86
5, 128252, Note_on_c, 0, 43, 0
5, 128256, Note_on_c, 0, 43, 80
5, 128256, Note_on_c, 0, 55, 80
5, 128636, Note_on_c, 0, 43, 0
5, 128640, Note_on_c, 0, 43, 73
5, 128828, Note_on_c, 0, 55, 0
5, 128832, Note_on_c, 0, 53, 70
5, 129020, Note_on_c, 0, 53, 0
5, 129020, Note_on_c, 0, 43, 0
5, 129024, Note_on_c, 0, 52, 66
5, 129024, Note_on_c, 0, 48, 66
5, 129404, Note_on_c, 0, 48, 0
5, 129404, Note_on_c, 0, 52, 0
5, 140544, Note_on_c, 0, 45, 66
5, 140736, Note_on_c, 0, 60, 66
5, 140736, Note_on_c, 0, 57, 66
5, 140828, Note_on_c, 0, 57, 0
5, 140828, Note_on_c, 0, 60, 0
5, 140924, Note_on_c, 0, 45, 0
5, 140928, Note_on_c, 0, 60, 66
5, 140928, Note_on_c, 0, 57, 66
5, 141020, Note_on_c, 0, 57, 0
5, 141020, Note_on_c, 0, 60, 0
5, 141120, Note_on_c, 0, 60, 66
5, 141120, Note_on_c, 0, 57, 66
5, 141212, Note_on_c, 0, 57, 0
5, 141212, Note_on_c, 0, 60, 0
5, 141312, Note_on_c, 0, 60, 66
5, 141312, Note_on_c, 0, 57, 66
5, 141404, Note_on_c, 0, 57, 0
5, 141404, Note_on_c, 0, 60, 0
5, 141504, Note_on_c, 0, 60, 66
5, 141504, Note_on_c, 0, 57, 66
5, 141596, Note_on_c, 0, 57, 0
5, 141596, Note_on_c, 0, 60, 0
5, 141696, Note_on_c, 0, 44, 66
5, 141888, Note_on_c, 0, 62, 66
5, 141888, Note_on_c, 0, 56, 66
5, 141904, Note_on_c, 0, 59, 66
5, 141980, Note_on_c, 0, 56, 0
5, 141980, Note_on_c, 0, 62, 0
5, 141996, Note_on_c, 0, 59, 0
5, 142076, Note_on_c, 0, 44, 0
5, 142080, Note_on_c, 0, 62, 66
5, 142080, Note_on_c, 0, 59, 66
5, 142080, Note_on_c, 0, 56, 66
5, 142172, Note_on_c, 0, 56, 0
5, 142172, Note_on_c, 0, 59, 0
5, 142172, Note_on_c, 0, 62, 0
5, 142272, Note_on_c, 0, 62, 66
5, 142272, Note_on_c, 0, 59, 66
5, 142272, Note_on_c, 0, 56, 66
5, 142364, Note_on_c, 0, 56, 0
5, 142364, Note_on_c, 0, 59, 0
5, 142364, Note_on_c, 0, 62, 0
5, 142464, Note_on_c, 0, 62, 66
5, 142464, Note_on_c, 0, 59, 66
5, 142464, Note_on_c, 0, 56, 66
5, 142556, Note_on_c, 0, 56, 0
5, 142556, Note_on_c, 0, 59, 0
5, 142556, Note_on_c, 0, 62, 0
5, 142656, Note_on_c, 0, 62, 66
5, 142656, Note_on_c, 0, 59, 66
5, 142656, Note_on_c, 0, 56, 66
5, 142748, Note_on_c, 0, 56, 0
5, 142748, Note_on_c, 0, 59, 0
5, 142748, Note_on_c, 0, 62, 0
5, 142848, Note_on_c, 0, 45, 66
5, 142864, Note_on_c, 0, 52, 66
5, 142880, Note_on_c, 0, 60, 66
5, 143228, Note_on_c, 0, 45, 0
5, 143244, Note_on_c, 0, 52, 0
5, 143260, Note_on_c, 0, 60, 0
5, 147456, Note_on_c, 0, 60, 80
5, 147456, Note_on_c, 0, 48, 80
5, 147836, Note_on_c, 0, 48, 0
5, 147836, Note_on_c, 0, 60, 0
5, 148608, Note_on_c, 0, 60, 80
5, 148608, Note_on_c, 0, 48, 80
5, 148988, Note_on_c, 0, 48, 0
5, 148988, Note_on_c, 0, 60, 0
5, 150144, Note_on_c, 0, 52, 80
5, 150524, Note_on_c, 0, 52, 0
5, 150528, Note_on_c, 0, 40, 80
5, 150908, Note_on_c, 0, 40, 0
5, 150912, Note_on_c, 0, 45, 80
5, 151292, Note_on_c, 0, 45, 0
5, 152064, Note_on_c, 0, 53, 87
5, 152064, Note_on_c, 0, 41, 87
5, 153212, Note_on_c, 0, 41, 0
5, 153212, Note_on_c, 0, 53, 0
5, 153216, Note_on_c, 0, 52, 66
5, 153216, Note_on_c, 0, 40, 66
5, 153596, Note_on_c, 0, 40, 0
5, 153596, Note_on_c, 0, 52, 0
5, 154368, Note_on_c, 0, 59, 87
5, 154368, Note_on_c, 0, 47, 87
5, 155516, Note_on_c, 0, 47, 0
5, 155516, Note_on_c, 0, 59, 0
5, 155520, Note_on_c, 0, 57, 66
5, 155520, Note_on_c, 0, 45, 66
5, 155900, Note_on_c, 0, 45, 0
5, 155900, Note_on_c, 0, 57, 0
5, 158016, Note_on_c, 0, 64, 94
5, 158016, Note_on_c, 0, 52, 94
5, 158108, Note_on_c, 0, 52, 0
5, 158108, Note_on_c, 0, 64, 0
5, 158208, Note_on_c, 0, 64, 94
5, 158208, Note_on_c, 0, 52, 94
5, 158300, Note_on_c, 0, 52, 0
5, 158300, Note_on_c, 0, 64, 0
5, 158400, Note_on_c, 0, 64, 94
5, 158400, Note_on_c, 0, 52, 94
5, 158492, Note_on_c, 0, 52, 0
5, 158492, Note_on_c, 0, 64, 0
5, 158592, Note_on_c, 0, 64, 94
5, 158592, Note_on_c, 0, 52, 94
5, 158684, Note_on_c, 0, 52, 0
5, 158684, Note_on_c, 0, 64, 0
5, 158784, Note_on_c, 0, 64, 94
5, 158784, Note_on_c, 0, 52, 94
5, 158876, Note_on_c, 0, 52, 0
5, 158876, Note_on_c, 0, 64, 0
5, 158976, Note_on_c, 0, 65, 94
5, 158976, Note_on_c, 0, 53, 94
5, 159164, Note_on_c, 0, 53, 0
5, 159164, Note_on_c, 0, 65, 0
5, 159168, Note_on_c, 0, 64, 94
5, 159168, Note_on_c, 0, 52, 94
5, 159344, Note_on_c, 0, 50, 94
5, 159356, Note_on_c, 0, 52, 0
5, 159356, Note_on_c, 0, 64, 0
5, 159360, Note_on_c, 0, 62, 94
5, 159436, Note_on_c, 0, 50, 0
5, 159452, Note_on_c, 0, 62, 0
5, 159552, Note_on_c, 0, 60, 94
5, 159552, Note_on_c, 0, 48, 94
5, 159644, Note_on_c, 0, 48, 0
5, 159644, Note_on_c, 0, 60, 0
5, 159744, Note_on_c, 0, 59, 94
5, 159744, Note_on_c, 0, 47, 94
5, 159836, Note_on_c, 0, 47, 0
5, 159836, Note_on_c, 0, 59, 0
5, 159936, Note_on_c, 0, 57, 94
5, 159936, Note_on_c, 0, 45, 94
5, 160028, Note_on_c, 0, 45, 0
5, 160028, Note_on_c, 0, 57, 0
5, 160128, Note_on_c, 0, 63, 94
5, 160220, Note_on_c, 0, 63, 0
5, 160224, Note_on_c, 0, 64, 94
5, 160224, Note_on_c, 0, 52, 94
5, 160412, Note_on_c, 0, 52, 0
5, 160412, Note_on_c, 0, 64, 0
5, 160512, Note_on_c, 0, 52, 94
5, 160512, Note_on_c, 0, 40, 94
5, 160892, Note_on_c, 0, 40, 0
5, 160892, Note_on_c, 0, 52, 0
5, 162624, Note_on_c, 0, 51, 87
5, 162624, Note_on_c, 0, 63, 87
5, 163004, Note_on_c, 0, 63, 0
5, 163004, Note_on_c, 0, 51, 0
5, 163008, Note_on_c, 0, 51, 66
5, 163008, Note_on_c, 0, 63, 66
5, 163388, Note_on_c, 0, 63, 0
5, 163388, Note_on_c, 0, 51, 0
5, 163392, Note_on_c, 0, 63, 66
5, 163392, Note_on_c, 0, 51, 66
5, 163580, Note_on_c, 0, 51, 0
5, 163580, Note_on_c, 0, 63, 0
5, 163584, Note_on_c, 0, 64, 66
5, 163584, Note_on_c, 0, 52, 66
5, 163964, Note_on_c, 0, 52, 0
5, 163964, Note_on_c, 0, 64, 0
5, 164928, Note_on_c, 0, 54, 87
5, 164928, Note_on_c, 0, 66, 87
5, 165308, Note_on_c, 0, 66, 0
5, 165308, Note_on_c, 0, 54, 0
5, 165312, Note_on_c, 0, 54, 66
5, 165312, Note_on_c, 0, 66, 66
5, 165692, Note_on_c, 0, 66, 0
5, 165692, Note_on_c, 0, 54, 0
5, 165696, Note_on_c, 0, 66, 66
5, 165696, Note_on_c, 0, 54, 66
5, 165884, Note_on_c, 0, 54, 0
5, 165884, Note_on_c, 0, 66, 0
5, 165888, Note_on_c, 0, 67, 66
5, 165888, Note_on_c, 0, 55, 66
5, 166268, Note_on_c, 0, 55, 0
5, 166268, Note_on_c, 0, 67, 0
5, 169344, Note_on_c, 0, 55, 66
5, 169344, Note_on_c, 0, 43, 66
5, 169724, Note_on_c, 0, 43, 0
5, 169724, Note_on_c, 0, 55, 0
5, 170496, Note_on_c, 0, 57, 67
5, 170496, Note_on_c, 0, 45, 67
5, 170876, Note_on_c, 0, 45, 0
5, 170876, Note_on_c, 0, 57, 0
5, 171648, Note_on_c, 0, 60, 70
5, 171648, Note_on_c, 0, 48, 70
5, 172028, Note_on_c, 0, 48, 0
5, 172028, Note_on_c, 0, 60, 0
5, 172032, Note_on_c, 0, 59, 70
5, 172032, Note_on_c, 0, 47, 70
5, 172220, Note_on_c, 0, 47, 0
5, 172220, Note_on_c, 0, 59, 0
5, 172416, Note_on_c, 0, 47, 71
5, 172416, Note_on_c, 0, 35, 71
5, 172604, Note_on_c, 0, 35, 0
5, 172604, Note_on_c, 0, 47, 0
5, 172800, Note_on_c, 0, 52, 72
5, 172800, Note_on_c, 0, 40, 72
5, 173180, Note_on_c, 0, 40, 0
5, 173180, Note_on_c, 0, 52, 0
5, 184320, Note_on_c, 0, 57, 66
5, 184320, Note_on_c, 0, 45, 66
5, 184508, Note_on_c, 0, 45, 0
5, 184508, Note_on_c, 0, 57, 0
5, 184512, Note_on_c, 0, 60, 66
5, 184512, Note_on_c, 0, 57, 66
5, 184604, Note_on_c, 0, 57, 0
5, 184604, Note_on_c, 0, 60, 0
5, 184704, Note_on_c, 0, 60, 66
5, 184704, Note_on_c, 0, 57, 66
5, 184796, Note_on_c, 0, 57, 0
5, 184796, Note_on_c, 0, 60, 0
5, 184896, Note_on_c, 0, 60, 66
5, 184896, Note_on_c, 0, 57, 66
5, 184988, Note_on_c, 0, 57, 0
5, 184988, Note_on_c, 0, 60, 0
5, 185088, Note_on_c, 0, 60, 66
5, 185088, Note_on_c, 0, 57, 66
5, 185180, Note_on_c, 0, 57, 0
5, 185180, Note_on_c, 0, 60, 0
5, 185280, Note_on_c, 0, 60, 66
5, 185280, Note_on_c, 0, 57, 66
5, 185372, Note_on_c, 0, 57, 0
5, 185372, Note_on_c, 0, 60, 0
5, 185472, Note_on_c, 0, 56, 66
5, 185472, Note_on_c, 0, 44, 66
5, 185660, Note_on_c, 0, 44, 0
5, 185660, Note_on_c, 0, 56, 0
5, 185664, Note_on_c, 0, 62, 66
5, 185664, Note_on_c, 0, 59, 66
5, 185664, Note_on_c, 0, 56, 66
5, 185756, Note_on_c, 0, 56, 0
5, 185756, Note_on_c, 0, 59, 0
5, 185756, Note_on_c, 0, 62, 0
5, 185856, Note_on_c, 0, 62, 66
5, 185856, Note_on_c, 0, 59, 66
5, 185856, Note_on_c, 0, 56, 66
5, 185948, Note_on_c, 0, 56, 0
5, 185948, Note_on_c, 0, 59, 0
5, 185948, Note_on_c, 0, 62, 0
5, 186048, Note_on_c, 0, 62, 66
5, 186048, Note_on_c, 0, 59, 66
5, 186048, Note_on_c, 0, 56, 66
5, 186140, Note_on_c, 0, 56, 0
5, 186140, Note_on_c, 0, 59, 0
5, 186140, Note_on_c, 0, 62, 0
5, 186240, Note_on_c, 0, 62, 66
5, 186240, Note_on_c, 0, 59, 66
5, 186240, Note_on_c, 0, 56, 66
5, 186332, Note_on_c, 0, 56, 0
5, 186332, Note_on_c, 0, 59, 0
5, 186332, Note_on_c, 0, 62, 0
5, 186432, Note_on_c, 0, 62, 66
5, 186432, Note_on_c, 0, 59, 66
5, 186432, Note_on_c, 0, 56, 66
5, 186524, Note_on_c, 0, 56, 0
5, 186524, Note_on_c, 0, 59, 0
5, 186524, Note_on_c, 0, 62, 0
5, 186624, Note_on_c, 0, 60, 66
5, 186624, Note_on_c, 0, 57, 66
5, 187004, Note_on_c, 0, 57, 0
5, 187004, Note_on_c, 0, 60, 0
5, 195840, Note_on_c, 0, 56, 80
5, 195840, Note_on_c, 0, 52, 80
5, 196220, Note_on_c, 0, 52, 0
5, 196220, Note_on_c, 0, 56, 0
5, 196608, Note_on_c, 0, 52, 80
5, 196608, Note_on_c, 0, 56, 80
5, 196608, Note_on_c, 0, 44, 80
5, 196796, Note_on_c, 0, 44, 0
5, 196796, Note_on_c, 0, 56, 0
5, 196796, Note_on_c, 0, 52, 0
5, 196992, Note_on_c, 0, 57, 80
5, 196992, Note_on_c, 0, 52, 80
5, 196992, Note_on_c, 0, 45, 80
5, 197180, Note_on_c, 0, 45, 0
5, 197180, Note_on_c, 0, 52, 0
5, 197180, Note_on_c, 0, 57, 0
5, 197760, Note_on_c, 0, 50, 82
5, 197948, Note_on_c, 0, 50, 0
5, 198144, Note_on_c, 0, 48, 83
5, 198428, Note_on_c, 0, 48, 0
5, 198432, Note_on_c, 0, 50, 87
5, 198524, Note_on_c, 0, 50, 0
5, 198528, Note_on_c, 0, 52, 87
5, 198908, Note_on_c, 0, 52, 0
5, 198912, Note_on_c, 0, 52, 83
5, 198912, Note_on_c, 0, 40, 83
5, 199292, Note_on_c, 0, 40, 0
5, 199292, Note_on_c, 0, 52, 0
5, 199296, Note_on_c, 0, 56, 80
5, 199296, Note_on_c, 0, 44, 80
5, 199484, Note_on_c, 0, 44, 0
5, 199484, Note_on_c, 0, 56, 0
5, 200064, Note_on_c, 0, 56, 80
5, 200064, Note_on_c, 0, 52, 80
5, 200064, Note_on_c, 0, 44, 80
5, 200252, Note_on_c, 0, 44, 0
5, 200252, Note_on_c, 0, 52, 0
5, 200252, Note_on_c, 0, 56, 0
5, 200448, Note_on_c, 0, 57, 80
5, 200448, Note_on_c, 0, 52, 80
5, 200448, Note_on_c, 0, 45, 80
5, 200828, Note_on_c, 0, 45, 0
5, 200828, Note_on_c, 0, 52, 0
5, 200828, Note_on_c, 0, 57, 0
5, 201216, Note_on_c, 0, 50, 80
5, 201404, Note_on_c, 0, 50, 0
5, 201984, Note_on_c, 0, 50, 82
5, 201984, Note_on_c, 0, 38, 82
5, 202748, Note_on_c, 0, 38, 0
5, 202748, Note_on_c, 0, 50, 0
5, 202752, Note_on_c, 0, 48, 87
5, 202752, Note_on_c, 0, 36, 87
5, 203036, Note_on_c, 0, 36, 0
5, 203036, Note_on_c, 0, 48, 0
5, 203040, Note_on_c, 0, 50, 83
5, 203040, Note_on_c, 0, 38, 83
5, 203132, Note_on_c, 0, 38, 0
5, 203132, Note_on_c, 0, 50, 0
5, 203136, Note_on_c, 0, 52, 82
5, 203136, Note_on_c, 0, 40, 82
5, 203324, Note_on_c, 0, 40, 0
5, 203324, Note_on_c, 0, 52, 0
5, 203520, Note_on_c, 0, 52, 80
5, 203520, Note_on_c, 0, 40, 80
5, 203708, Note_on_c, 0, 40, 0
5, 203708, Note_on_c, 0, 52, 0
5, 203904, Note_on_c, 0, 45, 66
5, 203904, Note_on_c, 0, 33, 66
5, 204284, Note_on_c, 0, 33, 0
5, 204284, Note_on_c, 0, 45, 0
5, 217728, Note_on_c, 0, 50, 66
5, 217728, Note_on_c, 0, 43, 66
5, 217728, Note_on_c, 0, 55, 66
5, 217820, Note_on_c, 0, 55, 0
5, 217920, Note_on_c, 0, 55, 66
5, 218012, Note_on_c, 0, 55, 0
5, 218108, Note_on_c, 0, 43, 0
5, 218108, Note_on_c, 0, 50, 0
5, 218112, Note_on_c, 0, 55, 66
5, 218204, Note_on_c, 0, 55, 0
5, 218304, Note_on_c, 0, 55, 66
5, 218396, Note_on_c, 0, 55, 0
5, 218496, Note_on_c, 0, 55, 66
5, 218588, Note_on_c, 0, 55, 0
5, 218688, Note_on_c, 0, 55, 66
5, 218780, Note_on_c, 0, 55, 0
5, 218880, Note_on_c, 0, 48, 66
5, 218880, Note_on_c, 0, 43, 66
5, 218880, Note_on_c, 0, 55, 66
5, 218972, Note_on_c, 0, 55, 0
5, 219072, Note_on_c, 0, 55, 66
5, 219164, Note_on_c, 0, 55, 0
5, 219260, Note_on_c, 0, 43, 0
5, 219260, Note_on_c, 0, 48, 0
5, 219264, Note_on_c, 0, 55, 66
5, 219356, Note_on_c, 0, 55, 0
5, 219456, Note_on_c, 0, 55, 66
5, 219548, Note_on_c, 0, 55, 0
5, 219648, Note_on_c, 0, 55, 66
5, 219740, Note_on_c, 0, 55, 0
5, 219840, Note_on_c, 0, 55, 66
5, 219932, Note_on_c, 0, 55, 0
5, 220032, Note_on_c, 0, 55, 66
5, 220032, Note_on_c, 0, 50, 66
5, 220032, Note_on_c, 0, 43, 66
5, 220124, Note_on_c, 0, 55, 0
5, 220224, Note_on_c, 0, 55, 66
5, 220316, Note_on_c, 0, 55, 0
5, 220412, Note_on_c, 0, 43, 0
5, 220412, Note_on_c, 0, 50, 0
5, 220416, Note_on_c, 0, 55, 66
5, 220508, Note_on_c, 0, 55, 0
5, 220608, Note_on_c, 0, 55, 66
5, 220700, Note_on_c, 0, 55, 0
5, 220800, Note_on_c, 0, 55, 67
5, 220892, Note_on_c, 0, 55, 0
5, 220992, Note_on_c, 0, 55, 70
5, 221084, Note_on_c, 0, 55, 0
5, 221184, Note_on_c, 0, 55, 72
5, 221184, Note_on_c, 0, 48, 72
5, 221184, Note_on_c, 0, 43, 72
5, 221276, Note_on_c, 0, 55, 0
5, 221376, Note_on_c, 0, 55, 74
5, 221468, Note_on_c, 0, 55, 0
5, 221564, Note_on_c, 0, 43, 0
5, 221564, Note_on_c, 0, 48, 0
5, 221568, Note_on_c, 0, 55, 77
5, 221660, Note_on_c, 0, 55, 0
5, 221760, Note_on_c, 0, 55, 79
5, 221852, Note_on_c, 0, 55, 0
5, 221952, Note_on_c, 0, 55, 82
5, 222044, Note_on_c, 0, 55, 0
5, 222144, Note_on_c, 0, 55, 83
5, 222236, Note_on_c, 0, 55, 0
5, 222336, Note_on_c, 0, 55, 87
5, 222336, Note_on_c, 0, 43, 87
5, 222524, Note_on_c, 0, 43, 0
5, 222524, Note_on_c, 0, 55, 0
5, 222720, Note_on_c, 0, 55, 87
5, 222720, Note_on_c, 0, 43, 87
5, 222908, Note_on_c, 0, 43, 0
5, 222908, Note_on_c, 0, 55, 0
5, 223104, Note_on_c, 0, 55, 87
5, 223104, Note_on_c, 0, 43, 87
5, 223292, Note_on_c, 0, 43, 0
5, 223292, Note_on_c, 0, 55, 0
5, 223488, Note_on_c, 0, 55, 87
5, 223488, Note_on_c, 0, 43, 87
5, 223868, Note_on_c, 0, 43, 0
5, 223868, Note_on_c, 0, 55, 0
5, 248448, Note_on_c, 0, 55, 87
5, 248828, Note_on_c, 0, 55, 0
5, 248832, Note_on_c, 0, 60, 87
5, 248832, Note_on_c, 0, 60, 87
5, 249020, Note_on_c, 0, 60, 0
5, 249024, Note_on_c, 0, 64, 87
5, 249212, Note_on_c, 0, 64, 0
5, 249212, Note_on_c, 0, 60, 0
5, 249216, Note_on_c, 0, 67, 87
5, 249404, Note_on_c, 0, 67, 0
5, 249408, Note_on_c, 0, 64, 87
5, 249596, Note_on_c, 0, 64, 0
5, 249600, Note_on_c, 0, 56, 87
5, 249600, Note_on_c, 0, 56, 87
5, 249788, Note_on_c, 0, 56, 0
5, 249792, Note_on_c, 0, 59, 87
5, 249980, Note_on_c, 0, 59, 0
5, 249980, Note_on_c, 0, 56, 0
5, 249984, Note_on_c, 0, 57, 87
5, 249984, Note_on_c, 0, 57, 87
5, 250172, Note_on_c, 0, 57, 0
5, 250176, Note_on_c, 0, 60, 87
5, 250364, Note_on_c, 0, 60, 0
5, 250364, Note_on_c, 0, 57, 0
5, 250368, Note_on_c, 0, 64, 87
5, 250556, Note_on_c, 0, 64, 0
5, 250560, Note_on_c, 0, 60, 87
5, 250748, Note_on_c, 0, 60, 0
5, 250752, Note_on_c, 0, 52, 87
5, 250752, Note_on_c, 0, 52, 87
5, 250940, Note_on_c, 0, 52, 0
5, 250944, Note_on_c, 0, 55, 87
5, 251132, Note_on_c, 0, 55, 0
5, 251132, Note_on_c, 0, 52, 0
5, 251136, Note_on_c, 0, 53, 89
5, 251136, Note_on_c, 0, 53, 89
5, 251324, Note_on_c, 0, 53, 0
5, 251328, Note_on_c, 0, 57, 89
5, 251516, Note_on_c, 0, 57, 0
5, 251516, Note_on_c, 0, 53, 0
5, 251520, Note_on_c, 0, 62, 89
5, 251708, Note_on_c, 0, 62, 0
5, 251712, Note_on_c, 0, 57, 90
5, 251900, Note_on_c, 0, 57, 0
5, 251904, Note_on_c, 0, 50, 92
5, 251904, Note_on_c, 0, 50, 92
5, 252092, Note_on_c, 0, 50, 0
5, 252096, Note_on_c, 0, 65, 93
5, 252284, Note_on_c, 0, 65, 0
5, 252284, Note_on_c, 0, 50, 0
5, 252288, Note_on_c, 0, 64, 93
5, 252288, Note_on_c, 0, 55, 93
5, 252476, Note_on_c, 0, 64, 0
5, 252480, Note_on_c, 0, 62, 93
5, 252668, Note_on_c, 0, 62, 0
5, 252668, Note_on_c, 0, 55, 0
5, 252672, Note_on_c, 0, 60, 92
5, 252860, Note_on_c, 0, 60, 0
5, 252864, Note_on_c, 0, 59, 90
5, 253052, Note_on_c, 0, 59, 0
5, 253056, Note_on_c, 0, 62, 89
5, 253056, Note_on_c, 0, 59, 89
5, 253244, Note_on_c, 0, 59, 0
5, 253248, Note_on_c, 0, 55, 89
5, 253436, Note_on_c, 0, 55, 0
5, 253436, Note_on_c, 0, 62, 0
5, 253440, Note_on_c, 0, 60, 87
5, 253440, Note_on_c, 0, 60, 87
5, 253628, Note_on_c, 0, 60, 0
5, 253632, Note_on_c, 0, 64, 87
5, 253820, Note_on_c, 0, 64, 0
5, 253820, Note_on_c, 0, 60, 0
5, 253824, Note_on_c, 0, 52, 87
5, 253824, Note_on_c, 0, 52, 87
5, 254012, Note_on_c, 0, 52, 0
5, 254016, Note_on_c, 0, 60, 87
5, 254204, Note_on_c, 0, 60, 0
5, 254204, Note_on_c, 0, 52, 0
5, 254208, Note_on_c, 0, 55, 87
5, 254208, Note_on_c, 0, 55, 87
5, 254396, Note_on_c, 0, 55, 0
5, 254400, Note_on_c, 0, 62, 87
5, 254588, Note_on_c, 0, 62, 0
5, 254588, Note_on_c, 0, 55, 0
5, 254592, Note_on_c, 0, 56, 87
5, 254592, Note_on_c, 0, 56, 87
5, 254780, Note_on_c, 0, 56, 0
5, 254784, Note_on_c, 0, 62, 87
5, 254972, Note_on_c, 0, 62, 0
5, 254972, Note_on_c, 0, 56, 0
5, 254976, Note_on_c, 0, 60, 87
5, 254976, Note_on_c, 0, 57, 87
5, 255164, Note_on_c, 0, 60, 0
5, 255168, Note_on_c, 0, 64, 87
5, 255356, Note_on_c, 0, 64, 0
5, 255356, Note_on_c, 0, 57, 0
5, 255360, Note_on_c, 0, 52, 87
5, 255360, Note_on_c, 0, 52, 87
5, 255548, Note_on_c, 0, 52, 0
5, 255552, Note_on_c, 0, 64, 87
5, 255740, Note_on_c, 0, 64, 0
5, 255740, Note_on_c, 0, 52, 0
5, 255744, Note_on_c, 0, 53, 87
5, 255744, Note_on_c, 0, 53, 87
5, 255932, Note_on_c, 0, 53, 0
5, 255936, Note_on_c, 0, 62, 87
5, 256124, Note_on_c, 0, 62, 0
5, 256124, Note_on_c, 0, 53, 0
5, 256128, Note_on_c, 0, 65, 87
5, 256128, Note_on_c, 0, 55, 87
5, 256316, Note_on_c, 0, 65, 0
5, 256320, Note_on_c, 0, 60, 87
5, 256496, Note_on_c, 0, 55, 87
5, 256508, Note_on_c, 0, 60, 0
5, 256508, Note_on_c, 0, 55, 0
5, 256512, Note_on_c, 0, 65, 87
5, 256700, Note_on_c, 0, 65, 0
5, 256704, Note_on_c, 0, 62, 87
5, 256876, Note_on_c, 0, 55, 0
5, 256892, Note_on_c, 0, 62, 0
5, 256896, Note_on_c, 0, 60, 67
5, 256896, Note_on_c, 0, 64, 67
5, 257276, Note_on_c, 0, 64, 0
5, 257276, Note_on_c, 0, 60, 0
5, 263808, Note_on_c, 0, 53, 66
5, 263808, Note_on_c, 0, 41, 66
5, 266108, Note_on_c, 0, 41, 0
5, 266108, Note_on_c, 0, 53, 0
5, 266112, Note_on_c, 0, 52, 66
5, 266112, Note_on_c, 0, 40, 66
5, 268412, Note_on_c, 0, 40, 0
5, 268412, Note_on_c, 0, 52, 0
5, 268416, Note_on_c, 0, 53, 66
5, 268416, Note_on_c, 0, 41, 66
5, 268796, Note_on_c, 0, 41, 0
5, 268796, Note_on_c, 0, 53, 0
5, 269184, Note_on_c, 0, 55, 66
5, 269184, Note_on_c, 0, 43, 66
5, 269564, Note_on_c, 0, 43, 0
5, 269564, Note_on_c, 0, 55, 0
5, 269568, Note_on_c, 0, 57, 67
5, 269568, Note_on_c, 0, 45, 67
5, 269948, Note_on_c, 0, 45, 0
5, 269948, Note_on_c, 0, 57, 0
5, 270336, Note_on_c, 0, 45, 70
5, 270336, Note_on_c, 0, 33, 70
5, 270716, Note_on_c, 0, 33, 0
5, 270716, Note_on_c, 0, 45, 0
5, 270720, Note_on_c, 0, 46, 71
5, 270720, Note_on_c, 0, 34, 71
5, 271088, Note_on_c, 0, 48, 72
5, 271088, Note_on_c, 0, 36, 72
5, 271100, Note_on_c, 0, 34, 0
5, 271100, Note_on_c, 0, 46, 0
5, 271852, Note_on_c, 0, 48, 0
5, 271852, Note_on_c, 0, 36, 0
5, 271872, Note_on_c, 0, 53, 74
5, 271872, Note_on_c, 0, 41, 74
5, 272252, Note_on_c, 0, 41, 0
5, 272252, Note_on_c, 0, 53, 0
5, 272624, Note_on_c, 0, 43, 78
5, 272640, Note_on_c, 0, 55, 78
5, 273004, Note_on_c, 0, 43, 0
5, 273020, Note_on_c, 0, 55, 0
5, 273024, Note_on_c, 0, 57, 79
5, 273024, Note_on_c, 0, 45, 79
5, 273404, Note_on_c, 0, 45, 0
5, 273404, Note_on_c, 0, 57, 0
5, 273776, Note_on_c, 0, 33, 82
5, 273792, Note_on_c, 0, 45, 82
5, 274156, Note_on_c, 0, 33, 0
5, 274172, Note_on_c, 0, 45, 0
5, 274176, Note_on_c, 0, 34, 83
5, 274176, Note_on_c, 0, 46, 83
5, 274544, Note_on_c, 0, 36, 83
5, 274556, Note_on_c, 0, 46, 0
5, 274556, Note_on_c, 0, 34, 0
5, 274560, Note_on_c, 0, 48, 83
5, 274924, Note_on_c, 0, 36, 0
5, 274940, Note_on_c, 0, 48, 0
5, 274944, Note_on_c, 0, 48, 85
5, 274944, Note_on_c, 0, 36, 85
5, 275324, Note_on_c, 0, 36, 0
5, 275324, Note_on_c, 0, 48, 0
5, 275328, Note_on_c, 0, 53, 87
5, 275328, Note_on_c, 0, 41, 87
5, 275696, Note_on_c, 0, 57, 87
5, 275708, Note_on_c, 0, 41, 0
5, 275708, Note_on_c, 0, 53, 0
5, 276076, Note_on_c, 0, 57, 0
5, 276096, Note_on_c, 0, 53, 87
5, 276476, Note_on_c, 0, 53, 0
5, 276480, Note_on_c, 0, 48, 87
5, 276480, Note_on_c, 0, 48, 87
5, 276860, Note_on_c, 0, 48, 0
5, 276860, Note_on_c, 0, 48, 0
5, 276864, Note_on_c, 0, 48, 87
5, 276864, Note_on_c, 0, 60, 87
5, 277244, Note_on_c, 0, 48, 0
5, 277248, Note_on_c, 0, 48, 87
5, 277436, Note_on_c, 0, 60, 0
5, 277440, Note_on_c, 0, 58, 87
5, 277628, Note_on_c, 0, 58, 0
5, 277628, Note_on_c, 0, 48, 0
5, 277632, Note_on_c, 0, 57, 87
5, 277632, Note_on_c, 0, 53, 87
5, 278012, Note_on_c, 0, 53, 0
5, 278012, Note_on_c, 0, 57, 0
5, 287040, Note_on_c, 0, 67, 94
5, 287040, Note_on_c, 0, 55, 94
5, 287132, Note_on_c, 0, 55, 0
5, 287132, Note_on_c, 0, 67, 0
5, 287232, Note_on_c, 0, 67, 94
5, 287232, Note_on_c, 0, 55, 94
5, 287324, Note_on_c, 0, 55, 0
5, 287324, Note_on_c, 0, 67, 0
5, 287424, Note_on_c, 0, 67, 94
5, 287424, Note_on_c, 0, 55, 94
5, 287516, Note_on_c, 0, 55, 0
5, 287516, Note_on_c, 0, 67, 0
5, 287616, Note_on_c, 0, 67, 94
5, 287616, Note_on_c, 0, 55, 94
5, 287708, Note_on_c, 0, 55, 0
5, 287708, Note_on_c, 0, 67, 0
5, 287808, Note_on_c, 0, 67, 94
5, 287808, Note_on_c, 0, 55, 94
5, 287900, Note_on_c, 0, 55, 0
5, 287900, Note_on_c, 0, 67, 0
5, 288000, Note_on_c, 0, 69, 94
5, 288000, Note_on_c, 0, 57, 94
5, 288188, Note_on_c, 0, 57, 0
5, 288188, Note_on_c, 0, 69, 0
5, 288192, Note_on_c, 0, 67, 94
5, 288192, Note_on_c, 0, 55, 94
5, 288368, Note_on_c, 0, 53, 94
5, 288380, Note_on_c, 0, 55, 0
5, 288380, Note_on_c, 0, 67, 0
5, 288384, Note_on_c, 0, 65, 94
5, 288460, Note_on_c, 0, 53, 0
5, 288476, Note_on_c, 0, 65, 0
5, 288576, Note_on_c, 0, 64, 94
5, 288576, Note_on_c, 0, 52, 94
5, 288668, Note_on_c, 0, 52, 0
5, 288668, Note_on_c, 0, 64, 0
5, 288752, Note_on_c, 0, 50, 94
5, 288768, Note_on_c, 0, 62, 94
5, 288844, Note_on_c, 0, 50, 0
5, 288860, Note_on_c, 0, 62, 0
5, 288960, Note_on_c, 0, 60, 94
5, 288960, Note_on_c, 0, 48, 94
5, 289052, Note_on_c, 0, 48, 0
5, 289052, Note_on_c, 0, 60, 0
5, 289152, Note_on_c, 0, 66, 94
5, 289244, Note_on_c, 0, 66, 0
5, 289248, Note_on_c, 0, 67, 94
5, 289248, Note_on_c, 0, 55, 94
5, 289436, Note_on_c, 0, 55, 0
5, 289436, Note_on_c, 0, 67, 0
5, 289536, Note_on_c, 0, 55, 94
5, 289536, Note_on_c, 0, 43, 94
5, 289724, Note_on_c, 0, 43, 0
5, 289724, Note_on_c, 0, 55, 0
5, 290672, Note_on_c, 0, 60, 66
5, 290688, Note_on_c, 0, 52, 66
5, 291068, Note_on_c, 0, 52, 0
5, 291072, Note_on_c, 0, 48, 66
5, 291436, Note_on_c, 0, 60, 0
5, 291452, Note_on_c, 0, 48, 0
5, 291840, Note_on_c, 0, 57, 66
5, 291840, Note_on_c, 0, 60, 66
5, 292220, Note_on_c, 0, 57, 0
5, 292224, Note_on_c, 0, 53, 66
5, 292604, Note_on_c, 0, 53, 0
5, 292604, Note_on_c, 0, 60, 0
5, 292608, Note_on_c, 0, 60, 66
5, 292608, Note_on_c, 0, 52, 66
5, 292796, Note_on_c, 0, 52, 0
5, 292796, Note_on_c, 0, 60, 0
5, 292992, Note_on_c, 0, 60, 66
5, 292992, Note_on_c, 0, 53, 66
5, 293180, Note_on_c, 0, 53, 0
5, 293180, Note_on_c, 0, 60, 0
5, 293376, Note_on_c, 0, 54, 66
5, 293376, Note_on_c, 0, 62, 66
5, 293564, Note_on_c, 0, 62, 0
5, 293564, Note_on_c, 0, 54, 0
5, 293760, Note_on_c, 0, 62, 67
5, 293760, Note_on_c, 0, 55, 67
5, 293948, Note_on_c, 0, 55, 0
5, 293948, Note_on_c, 0, 62, 0
5, 294144, Note_on_c, 0, 62, 69
5, 294524, Note_on_c, 0, 62, 0
5, 294528, Note_on_c, 0, 59, 71
5, 294528, Note_on_c, 0, 55, 71
5, 294908, Note_on_c, 0, 55, 0
5, 294908, Note_on_c, 0, 59, 0
5, 295296, Note_on_c, 0, 64, 66
5, 295296, Note_on_c, 0, 52, 66
5, 295676, Note_on_c, 0, 52, 0
5, 295676, Note_on_c, 0, 64, 0
5, 295680, Note_on_c, 0, 60, 66
5, 295680, Note_on_c, 0, 48, 66
5, 296060, Note_on_c, 0, 48, 0
5, 296060, Note_on_c, 0, 60, 0
5, 296448, Note_on_c, 0, 57, 66
5, 296448, Note_on_c, 0, 45, 66
5, 296828, Note_on_c, 0, 45, 0
5, 296828, Note_on_c, 0, 57, 0
5, 296832, Note_on_c, 0, 53, 66
5, 296832, Note_on_c, 0, 41, 66
5, 297212, Note_on_c, 0, 41, 0
5, 297212, Note_on_c, 0, 53, 0
5, 297216, Note_on_c, 0, 52, 67
5, 297216, Note_on_c, 0, 40, 67
5, 297584, Note_on_c, 0, 52, 71
5, 297584, Note_on_c, 0, 40, 71
5, 297596, Note_on_c, 0, 40, 0
5, 297596, Note_on_c, 0, 52, 0
5, 297868, Note_on_c, 0, 52, 0
5, 297868, Note_on_c, 0, 40, 0
5, 297888, Note_on_c, 0, 55, 74
5, 297888, Note_on_c, 0, 43, 74
5, 297968, Note_on_c, 0, 57, 76
5, 297968, Note_on_c, 0, 45, 76
5, 297980, Note_on_c, 0, 43, 0
5, 297980, Note_on_c, 0, 55, 0
5, 298252, Note_on_c, 0, 57, 0
5, 298252, Note_on_c, 0, 45, 0
5, 298272, Note_on_c, 0, 53, 79
5, 298272, Note_on_c, 0, 41, 79
5, 298364, Note_on_c, 0, 41, 0
5, 298364, Note_on_c, 0, 53, 0
5, 298368, Note_on_c, 0, 53, 80
5, 298368, Note_on_c, 0, 43, 80
5, 299132, Note_on_c, 0, 43, 0
5, 299132, Note_on_c, 0, 53, 0
5, 308160, Note_on_c, 0, 55, 66
5, 308252, Note_on_c, 0, 55, 0
5, 308352, Note_on_c, 0, 57, 66
5, 308352, Note_on_c, 0, 54, 66
5, 308444, Note_on_c, 0, 54, 0
5, 308444, Note_on_c, 0, 57, 0
5, 308528, Note_on_c, 0, 53, 66
5, 308544, Note_on_c, 0, 59, 66
5, 308544, Note_on_c, 0, 55, 66
5, 308620, Note_on_c, 0, 53, 0
5, 308636, Note_on_c, 0, 55, 0
5, 308636, Note_on_c, 0, 59, 0
5, 308736, Note_on_c, 0, 48, 66
5, 308736, Note_on_c, 0, 36, 66
5, 308736, Note_on_c, 0, 60, 66
5, 308736, Note_on_c, 0, 52, 66
5, 308780, Note_on_c, 0, 52, 0
5, 308780, Note_on_c, 0, 60, 0
5, 308832, Note_on_c, 0, 55, 66
5, 308924, Note_on_c, 0, 55, 0
5, 308928, Note_on_c, 0, 62, 66
5, 309020, Note_on_c, 0, 62, 0
5, 309024, Note_on_c, 0, 55, 66
5, 309116, Note_on_c, 0, 55, 0
5, 309116, Note_on_c, 0, 36, 0
5, 309116, Note_on_c, 0, 48, 0
5, 309120, Note_on_c, 0, 48, 66
5, 309120, Note_on_c, 0, 60, 66
5, 309120, Note_on_c, 0, 52, 66
5, 309308, Note_on_c, 0, 52, 0
5, 309308, Note_on_c, 0, 60, 0
5, 309308, Note_on_c, 0, 48, 0
5, 309312, Note_on_c, 0, 52, 66
5, 309312, Note_on_c, 0, 60, 66
5, 309404, Note_on_c, 0, 60, 0
5, 309404, Note_on_c, 0, 52, 0
5, 309504, Note_on_c, 0, 50, 66
5, 309504, Note_on_c, 0, 62, 66
5, 309504, Note_on_c, 0, 59, 66
5, 309596, Note_on_c, 0, 59, 0
5, 309596, Note_on_c, 0, 62, 0
5, 309596, Note_on_c, 0, 50, 0
5, 309696, Note_on_c, 0, 48, 66
5, 309696, Note_on_c, 0, 64, 66
5, 309696, Note_on_c, 0, 60, 66
5, 309788, Note_on_c, 0, 60, 0
5, 309788, Note_on_c, 0, 64, 0
5, 309788, Note_on_c, 0, 48, 0
5, 309888, Note_on_c, 0, 55, 66
5, 309888, Note_on_c, 0, 43, 66
5, 309888, Note_on_c, 0, 62, 66
5, 309888, Note_on_c, 0, 59, 66
5, 309932, Note_on_c, 0, 59, 0
5, 309932, Note_on_c, 0, 62, 0
5, 309984, Note_on_c, 0, 59, 66
5, 310076, Note_on_c, 0, 59, 0
5, 310080, Note_on_c, 0, 55, 66
5, 310172, Note_on_c, 0, 55, 0
5, 310176, Note_on_c, 0, 59, 66
5, 310268, Note_on_c, 0, 59, 0
5, 310268, Note_on_c, 0, 55, 0
5, 310268, Note_on_c, 0, 43, 0
5, 310272, Note_on_c, 0, 62, 67
5, 310460, Note_on_c, 0, 62, 0
5, 310464, Note_on_c, 0, 55, 67
5, 310556, Note_on_c, 0, 55, 0
5, 310640, Note_on_c, 0, 55, 69
5, 310656, Note_on_c, 0, 59, 69
5, 310732, Note_on_c, 0, 55, 0
5, 310748, Note_on_c, 0, 59, 0
5, 310848, Note_on_c, 0, 60, 70
5, 310848, Note_on_c, 0, 57, 70
5, 310940, Note_on_c, 0, 57, 0
5, 310940, Note_on_c, 0, 60, 0
5, 311040, Note_on_c, 0, 45, 71
5, 311040, Note_on_c, 0, 31, 71
5, 311040, Note_on_c, 0, 62, 71
5, 311040, Note_on_c, 0, 59, 71
5, 311040, Note_on_c, 0, 55, 71
5, 311084, Note_on_c, 0, 55, 0
5, 311084, Note_on_c, 0, 62, 0
5, 311084, Note_on_c, 0, 59, 0
5, 311136, Note_on_c, 0, 59, 71
5, 311228, Note_on_c, 0, 59, 0
5, 311232, Note_on_c, 0, 55, 72
5, 311324, Note_on_c, 0, 55, 0
5, 311328, Note_on_c, 0, 59, 72
5, 311420, Note_on_c, 0, 59, 0
5, 311420, Note_on_c, 0, 31, 0
5, 311420, Note_on_c, 0, 45, 0
5, 311424, Note_on_c, 0, 62, 73
5, 311612, Note_on_c, 0, 62, 0
5, 311616, Note_on_c, 0, 62, 74
5, 311616, Note_on_c, 0, 59, 74
5, 311616, Note_on_c, 0, 53, 74
5, 311708, Note_on_c, 0, 53, 0
5, 311708, Note_on_c, 0, 59, 0
5, 311708, Note_on_c, 0, 62, 0
5, 311808, Note_on_c, 0, 64, 74
5, 311808, Note_on_c, 0, 60, 74
5, 311808, Note_on_c, 0, 52, 74
5, 311900, Note_on_c, 0, 52, 0
5, 311900, Note_on_c, 0, 60, 0
5, 311900, Note_on_c, 0, 64, 0
5, 312000, Note_on_c, 0, 65, 76
5, 312000, Note_on_c, 0, 62, 76
5, 312000, Note_on_c, 0, 59, 76
5, 312092, Note_on_c, 0, 59, 0
5, 312092, Note_on_c, 0, 62, 0
5, 312092, Note_on_c, 0, 65, 0
5, 312192, Note_on_c, 0, 48, 77
5, 312192, Note_on_c, 0, 36, 77
5, 312192, Note_on_c, 0, 64, 77
5, 312192, Note_on_c, 0, 60, 77
5, 312236, Note_on_c, 0, 60, 0
5, 312236, Note_on_c, 0, 64, 0
5, 312288, Note_on_c, 0, 60, 78
5, 312380, Note_on_c, 0, 60, 0
5, 312384, Note_on_c, 0, 55, 78
5, 312476, Note_on_c, 0, 55, 0
5, 312480, Note_on_c, 0, 60, 78
5, 312572, Note_on_c, 0, 60, 0
5, 312572, Note_on_c, 0, 36, 0
5, 312572, Note_on_c, 0, 48, 0
5, 312576, Note_on_c, 0, 64, 79
5, 312576, Note_on_c, 0, 55, 79
5, 312956, Note_on_c, 0, 55, 0
5, 312956, Note_on_c, 0, 64, 0
5, 313344, Note_on_c, 0, 48, 80
5, 313344, Note_on_c, 0, 36, 80
5, 313724, Note_on_c, 0, 36, 0
5, 313724, Note_on_c, 0, 48, 0
5, 314496, Note_on_c, 0, 48, 80
5, 314496, Note_on_c, 0, 36, 80
5, 314876, Note_on_c, 0, 36, 0
5, 314876, Note_on_c, 0, 48, 0
5, 315936, Note_on_c, 0, 52, 87
5, 315936, Note_on_c, 0, 40, 87
5, 315980, Note_on_c, 0, 40, 0
5, 315980, Note_on_c, 0, 52, 0
5, 316032, Note_on_c, 0, 55, 87
5, 316032, Note_on_c, 0, 43, 87
5, 316220, Note_on_c, 0, 43, 0
5, 316220, Note_on_c, 0, 55, 0
5, 316416, Note_on_c, 0, 43, 87
5, 316416, Note_on_c, 0, 31, 87
5, 316604, Note_on_c, 0, 31, 0
5, 316604, Note_on_c, 0, 43, 0
5, 316800, Note_on_c, 0, 48, 87
5, 316800, Note_on_c, 0, 36, 87
5, 316988, Note_on_c, 0, 36, 0
5, 316988, Note_on_c, 0, 48, 0
5, 317952, Note_on_c, 0, 48, 66
5, 317952, Note_on_c, 0, 36, 66
5, 318332, Note_on_c, 0, 36, 0
5, 318332, Note_on_c, 0, 48, 0
5, 319104, Note_on_c, 0, 48, 70
5, 319104, Note_on_c, 0, 36, 70
5, 319484, Note_on_c, 0, 36, 0
5, 319484, Note_on_c, 0, 48, 0
5, 320544, Note_on_c, 0, 52, 82
5, 320544, Note_on_c, 0, 40, 82
5, 320636, Note_on_c, 0, 40, 0
5, 320636, Note_on_c, 0, 52, 0
5, 320640, Note_on_c, 0, 55, 82
5, 320640, Note_on_c, 0, 43, 82
5, 321020, Note_on_c, 0, 43, 0
5, 321020, Note_on_c, 0, 55, 0
5, 321024, Note_on_c, 0, 43, 85
5, 321024, Note_on_c, 0, 31, 85
5, 321404, Note_on_c, 0, 31, 0
5, 321404, Note_on_c, 0, 43, 0
5, 321408, Note_on_c, 0, 48, 87
5, 321408, Note_on_c, 0, 36, 87
5, 321788, Note_on_c, 0, 36, 0
5, 321788, Note_on_c, 0, 48, 0
5, 323712, Note_on_c, 0, 52, 66
5, 323996, Note_on_c, 0, 52, 0
5, 324000, Note_on_c, 0, 53, 66
5, 324092, Note_on_c, 0, 53, 0
5, 324096, Note_on_c, 0, 64, 66
5, 324096, Note_on_c, 0, 55, 66
5, 324284, Note_on_c, 0, 55, 0
5, 324284, Note_on_c, 0, 64, 0
5, 324480, Note_on_c, 0, 62, 66
5, 324480, Note_on_c, 0, 55, 66
5, 324860, Note_on_c, 0, 55, 0
5, 324860, Note_on_c, 0, 62, 0
5, 324864, Note_on_c, 0, 64, 66
5, 324864, Note_on_c, 0, 60, 66
5, 325244, Note_on_c, 0, 60, 0
5, 325244, Note_on_c, 0, 64, 0
5, 327168, Note_on_c, 0, 52, 66
5, 327168, Note_on_c, 0, 40, 66
5, 327452, Note_on_c, 0, 40, 0
5, 327452, Note_on_c, 0, 52, 0
5, 327456, Note_on_c, 0, 53, 66
5, 327456, Note_on_c, 0, 41, 66
5, 327548, Note_on_c, 0, 41, 0
5, 327548, Note_on_c, 0, 53, 0
5, 327552, Note_on_c, 0, 55, 66
5, 327552, Note_on_c, 0, 43, 66
5, 327740, Note_on_c, 0, 43, 0
5, 327740, Note_on_c, 0, 55, 0
5, 327936, Note_on_c, 0, 43, 66
5, 327936, Note_on_c, 0, 31, 66
5, 328124, Note_on_c, 0, 31, 0
5, 328124, Note_on_c, 0, 43, 0
5, 328320, Note_on_c, 0, 48, 66
5, 328320, Note_on_c, 0, 36, 66
5, 328508, Note_on_c, 0, 36, 0
5, 328508, Note_on_c, 0, 48, 0
5, 328512, Note_on_c, 0, 55, 66
5, 328700, Note_on_c, 0, 55, 0
5, 328704, Note_on_c, 0, 60, 66
5, 328704, Note_on_c, 0, 52, 66
5, 328892, Note_on_c, 0, 52, 0
5, 328892, Note_on_c, 0, 60, 0
5, 328896, Note_on_c, 0, 55, 66
5, 329084, Note_on_c, 0, 55, 0
5, 329088, Note_on_c, 0, 60, 66
5, 329088, Note_on_c, 0, 52, 66
5, 329276, Note_on_c, 0, 52, 0
5, 329276, Note_on_c, 0, 60, 0
5, 329280, Note_on_c, 0, 62, 66
5, 329280, Note_on_c, 0, 55, 66
5, 329468, Note_on_c, 0, 55, 0
5, 329468, Note_on_c, 0, 62, 0
5, 329472, Note_on_c, 0, 60, 67
5, 329472, Note_on_c, 0, 64, 67
5, 329852, Note_on_c, 0, 64, 0
5, 329852, Note_on_c, 0, 60, 0
5, 329856, Note_on_c, 0, 60, 73
5, 329856, Note_on_c, 0, 64, 73
5, 330236, Note_on_c, 0, 64, 0
5, 330236, Note_on_c, 0, 60, 0
5, 330240, Note_on_c, 0, 60, 80
5, 330240, Note_on_c, 0, 64, 80
5, 330428, Note_on_c, 0, 64, 0
5, 330428, Note_on_c, 0, 60, 0
5, 330432, Note_on_c, 0, 62, 83
5, 330432, Note_on_c, 0, 65, 83
5, 330620, Note_on_c, 0, 65, 0
5, 330620, Note_on_c, 0, 62, 0
5, 330624, Note_on_c, 0, 67, 87
5, 330624, Note_on_c, 0, 64, 87
5, 331004, Note_on_c, 0, 64, 0
5, 331004, Note_on_c, 0, 67, 0
5, 339456, Note_on_c, 0, 55, 87
5, 339836, Note_on_c, 0, 55, 0
5, 339840, Note_on_c, 0, 60, 87
5, 339840, Note_on_c, 0, 60, 87
5, 339964, Note_on_c, 0, 60, 0
5, 339968, Note_on_c, 0, 64, 87
5, 340092, Note_on_c, 0, 64, 0
5, 340096, Note_on_c, 0, 67, 87
5, 340220, Note_on_c, 0, 67, 0
5, 340220, Note_on_c, 0, 60, 0
5, 340224, Note_on_c, 0, 60, 87
5, 340224, Note_on_c, 0, 60, 87
5, 340348, Note_on_c, 0, 60, 0
5, 340352, Note_on_c, 0, 64, 87
5, 340476, Note_on_c, 0, 64, 0
5, 340480, Note_on_c, 0, 67, 87
5, 340604, Note_on_c, 0, 67, 0
5, 340604, Note_on_c, 0, 60, 0
5, 340608, Note_on_c, 0, 55, 87
5, 340608, Note_on_c, 0, 55, 87
5, 340732, Note_on_c, 0, 55, 0
5, 340736, Note_on_c, 0, 59, 87
5, 340860, Note_on_c, 0, 59, 0
5, 340864, Note_on_c, 0, 62, 87
5, 340988, Note_on_c, 0, 62, 0
5, 340988, Note_on_c, 0, 55, 0
5, 340992, Note_on_c, 0, 57, 87
5, 340992, Note_on_c, 0, 57, 87
5, 341116, Note_on_c, 0, 57, 0
5, 341120, Note_on_c, 0, 59, 87
5, 341244, Note_on_c, 0, 59, 0
5, 341248, Note_on_c, 0, 60, 87
5, 341372, Note_on_c, 0, 60, 0
5, 341372, Note_on_c, 0, 57, 0
5, 341376, Note_on_c, 0, 57, 87
5, 341500, Note_on_c, 0, 57, 0
5, 341504, Note_on_c, 0, 60, 87
5, 341628, Note_on_c, 0, 60, 0
5, 341632, Note_on_c, 0, 64, 87
5, 341756, Note_on_c, 0, 64, 0
5, 341760, Note_on_c, 0, 52, 87
5, 341760, Note_on_c, 0, 52, 87
5, 341884, Note_on_c, 0, 52, 0
5, 341888, Note_on_c, 0, 55, 87
5, 342012, Note_on_c, 0, 55, 0
5, 342016, Note_on_c, 0, 60, 87
5, 342140, Note_on_c, 0, 60, 0
5, 342140, Note_on_c, 0, 52, 0
5, 342144, Note_on_c, 0, 53, 87
5, 342144, Note_on_c, 0, 53, 87
5, 342268, Note_on_c, 0, 53, 0
5, 342272, Note_on_c, 0, 57, 87
5, 342396, Note_on_c, 0, 57, 0
5, 342400, Note_on_c, 0, 62, 87
5, 342524, Note_on_c, 0, 62, 0
5, 342524, Note_on_c, 0, 53, 0
5, 342528, Note_on_c, 0, 53, 87
5, 342652, Note_on_c, 0, 53, 0
5, 342656, Note_on_c, 0, 57, 87
5, 342780, Note_on_c, 0, 57, 0
5, 342784, Note_on_c, 0, 62, 87
5, 342908, Note_on_c, 0, 62, 0
5, 342912, Note_on_c, 0, 50, 87
5, 342912, Note_on_c, 0, 50, 87
5, 343036, Note_on_c, 0, 50, 0
5, 343040, Note_on_c, 0, 53, 87
5, 343164, Note_on_c, 0, 53, 0
5, 343168, Note_on_c, 0, 57, 87
5, 343292, Note_on_c, 0, 57, 0
5, 343292, Note_on_c, 0, 50, 0
5, 343296, Note_on_c, 0, 55, 87
5, 343296, Note_on_c, 0, 55, 87
5, 343420, Note_on_c, 0, 55, 0
5, 343424, Note_on_c, 0, 62, 87
5, 343548, Note_on_c, 0, 62, 0
5, 343548, Note_on_c, 0, 55, 0
5, 343552, Note_on_c, 0, 65, 87
5, 343676, Note_on_c, 0, 65, 0
5, 343680, Note_on_c, 0, 55, 87
5, 343804, Note_on_c, 0, 55, 0
5, 343808, Note_on_c, 0, 62, 87
5, 343932, Note_on_c, 0, 62, 0
5, 343936, Note_on_c, 0, 65, 87
5, 344060, Note_on_c, 0, 65, 0
5, 344064, Note_on_c, 0, 59, 87
5, 344064, Note_on_c, 0, 59, 87
5, 344188, Note_on_c, 0, 59, 0
5, 344192, Note_on_c, 0, 62, 87
5, 344316, Note_on_c, 0, 62, 0
5, 344316, Note_on_c, 0, 59, 0
5, 344320, Note_on_c, 0, 65, 87
5, 344444, Note_on_c, 0, 65, 0
5, 344448, Note_on_c, 0, 60, 87
5, 344448, Note_on_c, 0, 60, 87
5, 344572, Note_on_c, 0, 60, 0
5, 344576, Note_on_c, 0, 63, 87
5, 344700, Note_on_c, 0, 63, 0
5, 344704, Note_on_c, 0, 64, 87
5, 344828, Note_on_c, 0, 64, 0
5, 344828, Note_on_c, 0, 60, 0
5, 344832, Note_on_c, 0, 60, 87
5, 344956, Note_on_c, 0, 60, 0
5, 344960, Note_on_c, 0, 64, 87
5, 345084, Note_on_c, 0, 64, 0
5, 345088, Note_on_c, 0, 67, 87
5, 345212, Note_on_c, 0, 67, 0
5, 345216, Note_on_c, 0, 56, 87
5, 345216, Note_on_c, 0, 56, 87
5, 345340, Note_on_c, 0, 56, 0
5, 345344, Note_on_c, 0, 59, 87
5, 345468, Note_on_c, 0, 59, 0
5, 345472, Note_on_c, 0, 62, 87
5, 345596, Note_on_c, 0, 62, 0
5, 345596, Note_on_c, 0, 56, 0
5, 345600, Note_on_c, 0, 57, 87
5, 345600, Note_on_c, 0, 57, 87
5, 345724, Note_on_c, 0, 57, 0
5, 345728, Note_on_c, 0, 59, 87
5, 345852, Note_on_c, 0, 59, 0
5, 345856, Note_on_c, 0, 60, 87
5, 345980, Note_on_c, 0, 60, 0
5, 345980, Note_on_c, 0, 57, 0
5, 345984, Note_on_c, 0, 57, 87
5, 346108, Note_on_c, 0, 57, 0
5, 346112, Note_on_c, 0, 60, 87
5, 346236, Note_on_c, 0, 60, 0
5, 346240, Note_on_c, 0, 64, 87
5, 346364, Note_on_c, 0, 64, 0
5, 346368, Note_on_c, 0, 52, 87
5, 346368, Note_on_c, 0, 52, 87
5, 346492, Note_on_c, 0, 52, 0
5, 346496, Note_on_c, 0, 55, 87
5, 346620, Note_on_c, 0, 55, 0
5, 346624, Note_on_c, 0, 60, 87
5, 346748, Note_on_c, 0, 60, 0
5, 346748, Note_on_c, 0, 52, 0
5, 346752, Note_on_c, 0, 53, 87
5, 346752, Note_on_c, 0, 53, 87
5, 346876, Note_on_c, 0, 53, 0
5, 346880, Note_on_c, 0, 57, 87
5, 347004, Note_on_c, 0, 57, 0
5, 347008, Note_on_c, 0, 62, 87
5, 347132, Note_on_c, 0, 62, 0
5, 347132, Note_on_c, 0, 53, 0
5, 347136, Note_on_c, 0, 55, 87
5, 347136, Note_on_c, 0, 55, 87
5, 347260, Note_on_c, 0, 55, 0
5, 347264, Note_on_c, 0, 60, 87
5, 347388, Note_on_c, 0, 60, 0
5, 347392, Note_on_c, 0, 64, 87
5, 347516, Note_on_c, 0, 64, 0
5, 347516, Note_on_c, 0, 55, 0
5, 347520, Note_on_c, 0, 55, 87
5, 347520, Note_on_c, 0, 55, 87
5, 347644, Note_on_c, 0, 55, 0
5, 347648, Note_on_c, 0, 62, 87
5, 347772, Note_on_c, 0, 62, 0
5, 347776, Note_on_c, 0, 65, 87
5, 347900, Note_on_c, 0, 65, 0
5, 347900, Note_on_c, 0, 55, 0
5, 347904, Note_on_c, 0, 60, 87
5, 348028, Note_on_c, 0, 60, 0
5, 348032, Note_on_c, 0, 60, 87
5, 348156, Note_on_c, 0, 60, 0
5, 348160, Note_on_c, 0, 48, 87
5, 348284, Note_on_c, 0, 48, 0
5, 348288, Note_on_c, 0, 60, 87
5, 348668, Note_on_c, 0, 60, 0
5, 349056, Note_on_c, 0, 43, 87
5, 349056, Note_on_c, 0, 43, 87
5, 349180, Note_on_c, 0, 43, 0
5, 349184, Note_on_c, 0, 55, 87
5, 349308, Note_on_c, 0, 55, 0
5, 349312, Note_on_c, 0, 43, 87
5, 349436, Note_on_c, 0, 43, 0
5, 349436, Note_on_c, 0, 43, 0
5, 349440, Note_on_c, 0, 55, 87
5, 349564, Note_on_c, 0, 55, 0
5, 349568, Note_on_c, 0, 43, 87
5, 349692, Note_on_c, 0, 43, 0
5, 349696, Note_on_c, 0, 55, 87
5, 349820, Note_on_c, 0, 55, 0
5, 349824, Note_on_c, 0, 43, 87
5, 349948, Note_on_c, 0, 43, 0
5, 349952, Note_on_c, 0, 55, 87
5, 350076, Note_on_c, 0, 55, 0
5, 350080, Note_on_c, 0, 43, 87
5, 350204, Note_on_c, 0, 43, 0
5, 350208, Note_on_c, 0, 43, 87
5, 350208, Note_on_c, 0, 43, 87
5, 350332, Note_on_c, 0, 43, 0
5, 350336, Note_on_c, 0, 55, 87
5, 350460, Note_on_c, 0, 55, 0
5, 350464, Note_on_c, 0, 43, 87
5, 350588, Note_on_c, 0, 43, 0
5, 350588, Note_on_c, 0, 43, 0
5, 350592, Note_on_c, 0, 55, 87
5, 350716, Note_on_c, 0, 55, 0
5, 350720, Note_on_c, 0, 43, 87
5, 350844, Note_on_c, 0, 43, 0
5, 350848, Note_on_c, 0, 55, 87
5, 350972, Note_on_c, 0, 55, 0
5, 350976, Note_on_c, 0, 43, 87
5, 351100, Note_on_c, 0, 43, 0
5, 351104, Note_on_c, 0, 55, 87
5, 351228, Note_on_c, 0, 55, 0
5, 351232, Note_on_c, 0, 43, 87
5, 351356, Note_on_c, 0, 43, 0
5, 351360, Note_on_c, 0, 43, 87
5, 351360, Note_on_c, 0, 43, 87
5, 351484, Note_on_c, 0, 43, 0
5, 351488, Note_on_c, 0, 55, 87
5, 351612, Note_on_c, 0, 55, 0
5, 351616, Note_on_c, 0, 43, 87
5, 351740, Note_on_c, 0, 43, 0
5, 351740, Note_on_c, 0, 43, 0
5, 351744, Note_on_c, 0, 55, 87
5, 351868, Note_on_c, 0, 55, 0
5, 351872, Note_on_c, 0, 43, 87
5, 351996, Note_on_c, 0, 43, 0
5, 352000, Note_on_c, 0, 55, 87
5, 352124, Note_on_c, 0, 55, 0
5, 352128, Note_on_c, 0, 43, 87
5, 352252, Note_on_c, 0, 43, 0
5, 352256, Note_on_c, 0, 55, 87
5, 352380, Note_on_c, 0, 55, 0
5, 352384, Note_on_c, 0, 43, 87
5, 352508, Note_on_c, 0, 43, 0
5, 352512, Note_on_c, 0, 43, 87
5, 352512, Note_on_c, 0, 43, 87
5, 352636, Note_on_c, 0, 43, 0
5, 352640, Note_on_c, 0, 55, 87
5, 352764, Note_on_c, 0, 55, 0
5, 352768, Note_on_c, 0, 43, 89
5, 352892, Note_on_c, 0, 43, 0
5, 352892, Note_on_c, 0, 43, 0
5, 352896, Note_on_c, 0, 55, 89
5, 353020, Note_on_c, 0, 55, 0
5, 353024, Note_on_c, 0, 43, 89
5, 353148, Note_on_c, 0, 43, 0
5, 353152, Note_on_c, 0, 55, 90
5, 353276, Note_on_c, 0, 55, 0
5, 353280, Note_on_c, 0, 43, 92
5, 353404, Note_on_c, 0, 43, 0
5, 353408, Note_on_c, 0, 55, 92
5, 353532, Note_on_c, 0, 55, 0
5, 353536, Note_on_c, 0, 43, 93
5, 353660, Note_on_c, 0, 43, 0
5, 353664, Note_on_c, 0, 55, 87
5, 353664, Note_on_c, 0, 43, 87
5, 354044, Note_on_c, 0, 43, 0
5, 354044, Note_on_c, 0, 55, 0
5, 354816, Note_on_c, 0, 55, 87
5, 354816, Note_on_c, 0, 43, 87
5, 354940, Note_on_c, 0, 55, 0
5, 354944, Note_on_c, 0, 54, 87
5, 355068, Note_on_c, 0, 54, 0
5, 355072, Note_on_c, 0, 55, 87
5, 355196, Note_on_c, 0, 55, 0
5, 355196, Note_on_c, 0, 43, 0
5, 355200, Note_on_c, 0, 59, 87
5, 355200, Note_on_c, 0, 47, 87
5, 355324, Note_on_c, 0, 59, 0
5, 355328, Note_on_c, 0, 58, 87
5, 355452, Note_on_c, 0, 58, 0
5, 355456, Note_on_c, 0, 59, 87
5, 355580, Note_on_c, 0, 59, 0
5, 355580, Note_on_c, 0, 47, 0
5, 355584, Note_on_c, 0, 60, 87
5, 355584, Note_on_c, 0, 48, 87
5, 355708, Note_on_c, 0, 60, 0
5, 355712, Note_on_c, 0, 59, 87
5, 355836, Note_on_c, 0, 59, 0
5, 355840, Note_on_c, 0, 60, 87
5, 355964, Note_on_c, 0, 60, 0
5, 355964, Note_on_c, 0, 48, 0
5, 355968, Note_on_c, 0, 53, 87
5, 355968, Note_on_c, 0, 41, 87
5, 356348, Note_on_c, 0, 41, 0
5, 356348, Note_on_c, 0, 53, 0
5, 356352, Note_on_c, 0, 55, 87
5, 356352, Note_on_c, 0, 43, 87
5, 356732, Note_on_c, 0, 43, 0
5, 356732, Note_on_c, 0, 55, 0
5, 356736, Note_on_c, 0, 43, 87
5, 356736, Note_on_c, 0, 31, 87
5, 357116, Note_on_c, 0, 31, 0
5, 357116, Note_on_c, 0, 43, 0
5, 357120, Note_on_c, 0, 48, 87
5, 357120, Note_on_c, 0, 36, 87
5, 357500, Note_on_c, 0, 36, 0
5, 357500, Note_on_c, 0, 48, 0
5, 357504, Note_on_c, 0, 52, 87
5, 357692, Note_on_c, 0, 52, 0
5, 357872, Note_on_c, 0, 48, 87
5, 358060, Note_on_c, 0, 48, 0
5, 358272, Note_on_c, 0, 43, 87
5, 358396, Note_on_c, 0, 43, 0
5, 358400, Note_on_c, 0, 55, 87
5, 358524, Note_on_c, 0, 55, 0
5, 358528, Note_on_c, 0, 43, 87
5, 358652, Note_on_c, 0, 43, 0
5, 358656, Note_on_c, 0, 55, 87
5, 358780, Note_on_c, 0, 55, 0
5, 358784, Note_on_c, 0, 43, 87
5, 358908, Note_on_c, 0, 43, 0
5, 358912, Note_on_c, 0, 55, 87
5, 359036, Note_on_c, 0, 55, 0
5, 359040, Note_on_c, 0, 45, 87
5, 359164, Note_on_c, 0, 45, 0
5, 359168, Note_on_c, 0, 55, 87
5, 359292, Note_on_c, 0, 55, 0
5, 359296, Note_on_c, 0, 45, 87
5, 359420, Note_on_c, 0, 45, 0
5, 359424, Note_on_c, 0, 48, 87
5, 359424, Note_on_c, 0, 48, 87
5, 359804, Note_on_c, 0, 48, 0
5, 359804, Note_on_c, 0, 48, 0
5, 359808, Note_on_c, 0, 52, 87
5, 359996, Note_on_c, 0, 52, 0
5, 360192, Note_on_c, 0, 48, 87
5, 360380, Note_on_c, 0, 48, 0
5, 360576, Note_on_c, 0, 43, 87
5, 360700, Note_on_c, 0, 43, 0
5, 360704, Note_on_c, 0, 55, 87
5, 360828, Note_on_c, 0, 55, 0
5, 360832, Note_on_c, 0, 43, 87
5, 360956, Note_on_c, 0, 43, 0
5, 360960, Note_on_c, 0, 55, 87
5, 361084, Note_on_c, 0, 55, 0
5, 361088, Note_on_c, 0, 43, 87
5, 361212, Note_on_c, 0, 43, 0
5, 361216, Note_on_c, 0, 55, 87
5, 361340, Note_on_c, 0, 55, 0
5, 361344, Note_on_c, 0, 43, 87
5, 361468, Note_on_c, 0, 43, 0
5, 361472, Note_on_c, 0, 55, 87
5, 361596, Note_on_c, 0, 55, 0
5, 361600, Note_on_c, 0, 43, 87
5, 361724, Note_on_c, 0, 43, 0
5, 361728, Note_on_c, 0, 48, 87
5, 361728, Note_on_c, 0, 48, 87
5, 361852, Note_on_c, 0, 48, 0
5, 361856, Note_on_c, 0, 52, 87
5, 361980, Note_on_c, 0, 52, 0
5, 361984, Note_on_c, 0, 55, 87
5, 362108, Note_on_c, 0, 55, 0
5, 362108, Note_on_c, 0, 48, 0
5, 362112, Note_on_c, 0, 48, 87
5, 362236, Note_on_c, 0, 48, 0
5, 362240, Note_on_c, 0, 52, 87
5, 362364, Note_on_c, 0, 52, 0
5, 362368, Note_on_c, 0, 55, 87
5, 362492, Note_on_c, 0, 55, 0
5, 362496, Note_on_c, 0, 50, 87
5, 362496, Note_on_c, 0, 43, 87
5, 362620, Note_on_c, 0, 50, 0
5, 362624, Note_on_c, 0, 53, 87
5, 362748, Note_on_c, 0, 53, 0
5, 362752, Note_on_c, 0, 55, 87
5, 362876, Note_on_c, 0, 55, 0
5, 362876, Note_on_c, 0, 43, 0
5, 362880, Note_on_c, 0, 48, 87
5, 363004, Note_on_c, 0, 48, 0
5, 363008, Note_on_c, 0, 52, 87
5, 363132, Note_on_c, 0, 52, 0
5, 363136, Note_on_c, 0, 55, 87
5, 363260, Note_on_c, 0, 55, 0
5, 363264, Note_on_c, 0, 52, 87
5, 363388, Note_on_c, 0, 52, 0
5, 363392, Note_on_c, 0, 55, 87
5, 363516, Note_on_c, 0, 55, 0
5, 363520, Note_on_c, 0, 60, 87
5, 363644, Note_on_c, 0, 60, 0
5, 363648, Note_on_c, 0, 43, 87
5, 363772, Note_on_c, 0, 43, 0
5, 363776, Note_on_c, 0, 50, 87
5, 363900, Note_on_c, 0, 50, 0
5, 363904, Note_on_c, 0, 55, 87
5, 364028, Note_on_c, 0, 55, 0
5, 364032, Note_on_c, 0, 48, 87
5, 364032, Note_on_c, 0, 55, 87
5, 364412, Note_on_c, 0, 55, 0
5, 364412, Note_on_c, 0, 48, 0
5, 364416, Note_on_c, 0, 60, 94
5, 364416, Note_on_c, 0, 48, 94
5, 364796, Note_on_c, 0, 48, 0
5, 364796, Note_on_c, 0, 60, 0
5, 364800, Note_on_c, 0, 60, 94
5, 364800, Note_on_c, 0, 48, 94
5, 365180, Note_on_c, 0, 48, 0
5, 365180, Note_on_c, 0, 60, 0
5, 365184, Note_on_c, 0, 60, 94
5, 365184, Note_on_c, 0, 48, 94
5, 365564, Note_on_c, 0, 48, 0
5, 365564, Note_on_c, 0, 60, 0
5, 365564, End_track
0, 0, End_of_file
