0, 0, Header, 0, 1, 384
1, 0, Start_track
1, 0, Tempo, 512820
1, 0, Title_t, "Klaviersonate C-2. Satz"
1, 0, Program_c, 0, 0
1, 0, Control_c, 0, 7, 100
1, 3, Control_c, 0, 10, 64
1, 3, Control_c, 0, 91, 127
1, 3, Program_c, 0, 0
1, 6, Control_c, 0, 7, 100
1, 6, Control_c, 0, 10, 64
1, 6, Control_c, 0, 64, 0
1, 990, Control_c, 0, 91, 127
1, 990, Control_c, 0, 91, 127
1, 1495, Note_on_c, 0, 72, 50
1, 1554, Control_c, 0, 64, 127
1, 2000, Note_on_c, 0, 72, 0
1, 2000, Note_on_c, 0, 72, 50
1, 2504, Note_on_c, 0, 72, 0
1, 2504, Note_on_c, 0, 72, 50
1, 3009, Note_on_c, 0, 72, 0
1, 3009, Note_on_c, 0, 72, 52
1, 3009, Note_on_c, 0, 53, 30
1, 3012, Note_on_c, 0, 57, 30
1, 3012, Note_on_c, 0, 60, 34
1, 3012, Control_c, 0, 64, 0
1, 3090, Control_c, 0, 64, 127
1, 3253, Note_on_c, 0, 72, 0
1, 3253, Note_on_c, 0, 74, 47
1, 3334, Note_on_c, 0, 74, 0
1, 3334, Note_on_c, 0, 72, 46
1, 3415, Note_on_c, 0, 72, 0
1, 3415, Note_on_c, 0, 71, 46
1, 3496, Note_on_c, 0, 71, 0
1, 3496, Note_on_c, 0, 72, 52
1, 3518, Control_c, 0, 64, 0
1, 3584, Control_c, 0, 64, 127
1, 3730, Note_on_c, 0, 72, 0
1, 3730, Note_on_c, 0, 77, 40
1, 3964, Note_on_c, 0, 77, 0
1, 3964, Note_on_c, 0, 72, 44
1, 4043, Control_c, 0, 64, 0
1, 4201, Note_on_c, 0, 72, 0
1, 4437, Note_on_c, 0, 69, 43
1, 4942, Note_on_c, 0, 69, 0
1, 4942, Note_on_c, 0, 72, 48
1, 4942, Note_on_c, 0, 60, 0
1, 4945, Note_on_c, 0, 57, 0
1, 4945, Note_on_c, 0, 53, 0
1, 4945, Note_on_c, 0, 55, 27
1, 4948, Note_on_c, 0, 58, 30
1, 4948, Note_on_c, 0, 48, 27
1, 5007, Control_c, 0, 64, 127
1, 5447, Note_on_c, 0, 72, 0
1, 5447, Note_on_c, 0, 64, 44
1, 5975, Note_on_c, 0, 64, 0
1, 5975, Note_on_c, 0, 67, 53
1, 5975, Note_on_c, 0, 48, 0
1, 5978, Note_on_c, 0, 58, 0
1, 5978, Note_on_c, 0, 55, 0
1, 5978, Note_on_c, 0, 50, 37
1, 5981, Note_on_c, 0, 58, 37
1, 5981, Control_c, 0, 64, 0
1, 6184, Control_c, 0, 64, 127
1, 6985, Note_on_c, 0, 67, 0
1, 6985, Note_on_c, 0, 65, 48
1, 6985, Note_on_c, 0, 58, 0
1, 6988, Note_on_c, 0, 57, 37
1, 7010, Control_c, 0, 64, 0
1, 7341, Control_c, 0, 64, 127
1, 7490, Note_on_c, 0, 65, 0
1, 7490, Note_on_c, 0, 60, 40
1, 7490, Note_on_c, 0, 65, 73
1, 7493, Note_on_c, 0, 57, 0
1, 7493, Note_on_c, 0, 50, 0
1, 7493, Note_on_c, 0, 45, 57
1, 7496, Note_on_c, 0, 57, 57
1, 7981, Note_on_c, 0, 65, 0
1, 7981, Note_on_c, 0, 60, 0
1, 7981, Note_on_c, 0, 64, 51
1, 7984, Note_on_c, 0, 67, 75
1, 7984, Note_on_c, 0, 57, 0
1, 7984, Note_on_c, 0, 45, 0
1, 7987, Note_on_c, 0, 43, 59
1, 7987, Note_on_c, 0, 55, 59
1, 8004, Control_c, 0, 64, 0
1, 8213, Control_c, 0, 64, 127
1, 8473, Note_on_c, 0, 67, 0
1, 8473, Note_on_c, 0, 64, 0
1, 8473, Note_on_c, 0, 60, 40
1, 8476, Note_on_c, 0, 65, 52
1, 8476, Note_on_c, 0, 69, 76
1, 8476, Note_on_c, 0, 55, 0
1, 8479, Note_on_c, 0, 43, 0
1, 8479, Note_on_c, 0, 41, 57
1, 8479, Note_on_c, 0, 53, 57
1, 8497, Control_c, 0, 64, 0
1, 8675, Control_c, 0, 64, 127
1, 8964, Note_on_c, 0, 69, 0
1, 8964, Note_on_c, 0, 65, 0
1, 8964, Note_on_c, 0, 60, 0
1, 8967, Note_on_c, 0, 65, 63
1, 8967, Note_on_c, 0, 70, 77
1, 8967, Note_on_c, 0, 53, 0
1, 8970, Note_on_c, 0, 41, 0
1, 8970, Control_c, 0, 64, 0
1, 8970, Note_on_c, 0, 62, 56
1, 8973, Note_on_c, 0, 50, 49
1, 9087, Control_c, 0, 64, 127
1, 9455, Note_on_c, 0, 50, 0
1, 9455, Note_on_c, 0, 62, 0
1, 9455, Note_on_c, 0, 46, 44
1, 9458, Note_on_c, 0, 58, 44
1, 9697, Note_on_c, 0, 70, 0
1, 9697, Note_on_c, 0, 65, 0
1, 9697, Note_on_c, 0, 72, 61
1, 9804, Note_on_c, 0, 72, 0
1, 9804, Note_on_c, 0, 74, 57
1, 9830, Control_c, 0, 64, 0
1, 9913, Note_on_c, 0, 74, 0
1, 9913, Note_on_c, 0, 72, 55
1, 9913, Note_on_c, 0, 58, 0
1, 9916, Note_on_c, 0, 46, 0
1, 9916, Note_on_c, 0, 57, 27
1, 9916, Note_on_c, 0, 45, 19
1, 10169, Note_on_c, 0, 72, 0
1, 10169, Note_on_c, 0, 45, 0
1, 10169, Note_on_c, 0, 57, 0
1, 10424, Note_on_c, 0, 65, 46
1, 10906, Note_on_c, 0, 65, 0
1, 10906, Note_on_c, 0, 59, 25
1, 10906, Note_on_c, 0, 64, 52
1, 10909, Note_on_c, 0, 50, 29
1, 11023, Control_c, 0, 64, 127
1, 11408, Note_on_c, 0, 64, 0
1, 11408, Note_on_c, 0, 65, 46
1, 11953, Note_on_c, 0, 65, 0
1, 11953, Note_on_c, 0, 59, 0
1, 11953, Note_on_c, 0, 60, 32
1, 11956, Note_on_c, 0, 65, 32
1, 11956, Note_on_c, 0, 69, 47
1, 11956, Note_on_c, 0, 50, 0
1, 11959, Note_on_c, 0, 48, 27
1, 11963, Control_c, 0, 64, 0
1, 12053, Control_c, 0, 64, 127
1, 13000, Note_on_c, 0, 69, 0
1, 13000, Note_on_c, 0, 65, 0
1, 13000, Note_on_c, 0, 67, 46
1, 13003, Note_on_c, 0, 64, 21
1, 13031, Control_c, 0, 64, 0
1, 13107, Control_c, 0, 64, 127
1, 13524, Note_on_c, 0, 64, 0
1, 13524, Note_on_c, 0, 67, 0
1, 13524, Note_on_c, 0, 67, 54
1, 13548, Control_c, 0, 64, 0
1, 13672, Control_c, 0, 64, 127
1, 14006, Note_on_c, 0, 67, 0
1, 14006, Note_on_c, 0, 60, 0
1, 14006, Note_on_c, 0, 67, 59
1, 14009, Note_on_c, 0, 48, 0
1, 14009, Note_on_c, 0, 60, 39
1, 14009, Note_on_c, 0, 64, 39
1, 14488, Note_on_c, 0, 67, 0
1, 14488, Note_on_c, 0, 67, 65
1, 14753, Control_c, 0, 64, 0
1, 14850, Control_c, 0, 64, 127
1, 14859, Note_on_c, 0, 67, 0
1, 14859, Note_on_c, 0, 67, 66
1, 14988, Note_on_c, 0, 67, 0
1, 14988, Note_on_c, 0, 79, 74
1, 14988, Note_on_c, 0, 64, 0
1, 14991, Note_on_c, 0, 60, 0
1, 14991, Note_on_c, 0, 59, 51
1, 14991, Note_on_c, 0, 65, 51
1, 14994, Note_on_c, 0, 62, 51
1, 15711, Note_on_c, 0, 79, 0
1, 15711, Note_on_c, 0, 74, 50
1, 15832, Note_on_c, 0, 74, 0
1, 15832, Note_on_c, 0, 71, 46
1, 15952, Note_on_c, 0, 71, 0
1, 15952, Note_on_c, 0, 67, 48
1, 16435, Note_on_c, 0, 67, 0
1, 16435, Note_on_c, 0, 67, 55
1, 16455, Control_c, 0, 64, 0
1, 16533, Control_c, 0, 64, 127
1, 16917, Note_on_c, 0, 67, 0
1, 16917, Note_on_c, 0, 67, 63
1, 16917, Note_on_c, 0, 62, 0
1, 16920, Note_on_c, 0, 65, 0
1, 16920, Note_on_c, 0, 59, 0
1, 16920, Note_on_c, 0, 64, 43
1, 16923, Note_on_c, 0, 60, 43
1, 17399, Note_on_c, 0, 67, 0
1, 17399, Note_on_c, 0, 67, 69
1, 17719, Control_c, 0, 64, 0
1, 17780, Note_on_c, 0, 67, 0
1, 17780, Note_on_c, 0, 67, 68
1, 17801, Control_c, 0, 64, 127
1, 17919, Note_on_c, 0, 67, 0
1, 17919, Note_on_c, 0, 79, 73
1, 17919, Note_on_c, 0, 60, 0
1, 17922, Note_on_c, 0, 64, 0
1, 17922, Note_on_c, 0, 53, 52
1, 17922, Note_on_c, 0, 59, 52
1, 17925, Note_on_c, 0, 50, 52
1, 18809, Control_c, 0, 64, 0
1, 18884, Note_on_c, 0, 50, 0
1, 18884, Note_on_c, 0, 59, 0
1, 18884, Note_on_c, 0, 53, 0
1, 18887, Note_on_c, 0, 55, 37
1, 18887, Note_on_c, 0, 60, 37
1, 18887, Note_on_c, 0, 52, 37
1, 19272, Note_on_c, 0, 79, 0
1, 19272, Note_on_c, 0, 81, 56
1, 19337, Note_on_c, 0, 81, 0
1, 19337, Note_on_c, 0, 83, 49
1, 19401, Note_on_c, 0, 83, 0
1, 19401, Note_on_c, 0, 84, 55
1, 19660, Note_on_c, 0, 84, 0
1, 19660, Note_on_c, 0, 83, 49
1, 19919, Note_on_c, 0, 83, 0
1, 19919, Note_on_c, 0, 81, 55
1, 19919, Note_on_c, 0, 52, 0
1, 19922, Note_on_c, 0, 60, 0
1, 19922, Note_on_c, 0, 55, 0
1, 20163, Note_on_c, 0, 81, 0
1, 20163, Note_on_c, 0, 79, 46
1, 20406, Note_on_c, 0, 79, 0
1, 20406, Note_on_c, 0, 77, 51
1, 20650, Note_on_c, 0, 77, 0
1, 20650, Note_on_c, 0, 76, 47
1, 20893, Note_on_c, 0, 76, 0
1, 20893, Note_on_c, 0, 73, 52
1, 21147, Note_on_c, 0, 73, 0
1, 21147, Note_on_c, 0, 74, 48
1, 21400, Note_on_c, 0, 74, 0
1, 21400, Note_on_c, 0, 77, 49
1, 21400, Note_on_c, 0, 57, 30
1, 21403, Note_on_c, 0, 62, 30
1, 21403, Note_on_c, 0, 53, 30
1, 21449, Control_c, 0, 64, 127
1, 21654, Note_on_c, 0, 77, 0
1, 21654, Note_on_c, 0, 81, 46
1, 21927, Note_on_c, 0, 81, 0
1, 21927, Note_on_c, 0, 72, 54
1, 21927, Note_on_c, 0, 53, 0
1, 21930, Note_on_c, 0, 62, 0
1, 21930, Note_on_c, 0, 57, 0
1, 21930, Note_on_c, 0, 60, 24
1, 21933, Note_on_c, 0, 64, 27
1, 21933, Note_on_c, 0, 55, 25
1, 21940, Control_c, 0, 64, 0
1, 22265, Control_c, 0, 64, 127
1, 22941, Note_on_c, 0, 64, 0
1, 22941, Note_on_c, 0, 60, 0
1, 22941, Note_on_c, 0, 65, 26
1, 22944, Note_on_c, 0, 62, 23
1, 22971, Control_c, 0, 64, 0
1, 23123, Control_c, 0, 64, 127
1, 23448, Note_on_c, 0, 72, 0
1, 23448, Note_on_c, 0, 76, 48
1, 23448, Note_on_c, 0, 71, 37
1, 23702, Note_on_c, 0, 76, 0
1, 23702, Note_on_c, 0, 74, 47
1, 23955, Note_on_c, 0, 74, 0
1, 23955, Note_on_c, 0, 71, 0
1, 23955, Note_on_c, 0, 72, 47
1, 23958, Note_on_c, 0, 62, 0
1, 23958, Note_on_c, 0, 65, 0
1, 23958, Note_on_c, 0, 55, 0
1, 23961, Control_c, 0, 64, 0
1, 23961, Note_on_c, 0, 60, 30
1, 23961, Note_on_c, 0, 64, 34
1, 24403, Control_c, 0, 64, 127
1, 24970, Note_on_c, 0, 72, 0
1, 24970, Note_on_c, 0, 64, 0
1, 24970, Note_on_c, 0, 60, 0
1, 24973, Note_on_c, 0, 48, 26
1, 25164, Control_c, 0, 64, 0
1, 25517, Note_on_c, 0, 72, 50
1, 25517, Note_on_c, 0, 48, 0
1, 25577, Control_c, 0, 64, 127
1, 26024, Note_on_c, 0, 72, 0
1, 26024, Note_on_c, 0, 72, 50
1, 26529, Note_on_c, 0, 72, 0
1, 26529, Note_on_c, 0, 72, 50
1, 27034, Note_on_c, 0, 72, 0
1, 27034, Note_on_c, 0, 72, 52
1, 27034, Note_on_c, 0, 53, 30
1, 27037, Note_on_c, 0, 57, 30
1, 27037, Note_on_c, 0, 60, 34
1, 27074, Control_c, 0, 64, 0
1, 27137, Control_c, 0, 64, 127
1, 27277, Note_on_c, 0, 72, 0
1, 27277, Note_on_c, 0, 74, 47
1, 27358, Note_on_c, 0, 74, 0
1, 27358, Note_on_c, 0, 72, 46
1, 27440, Note_on_c, 0, 72, 0
1, 27440, Note_on_c, 0, 71, 46
1, 27521, Note_on_c, 0, 71, 0
1, 27521, Note_on_c, 0, 72, 52
1, 27540, Control_c, 0, 64, 0
1, 27618, Control_c, 0, 64, 127
1, 27750, Note_on_c, 0, 72, 0
1, 27750, Note_on_c, 0, 77, 43
1, 27979, Note_on_c, 0, 77, 0
1, 27979, Note_on_c, 0, 72, 47
1, 28060, Control_c, 0, 64, 0
1, 28221, Note_on_c, 0, 72, 0
1, 28462, Note_on_c, 0, 69, 47
1, 28967, Note_on_c, 0, 69, 0
1, 28967, Note_on_c, 0, 72, 48
1, 28967, Note_on_c, 0, 60, 0
1, 28970, Note_on_c, 0, 57, 0
1, 28970, Note_on_c, 0, 53, 0
1, 28970, Note_on_c, 0, 48, 27
1, 28973, Note_on_c, 0, 55, 27
1, 28973, Note_on_c, 0, 58, 30
1, 29032, Control_c, 0, 64, 127
1, 29472, Note_on_c, 0, 72, 0
1, 29472, Note_on_c, 0, 64, 45
1, 30001, Note_on_c, 0, 64, 0
1, 30001, Note_on_c, 0, 67, 54
1, 30001, Note_on_c, 0, 58, 0
1, 30004, Note_on_c, 0, 55, 0
1, 30004, Note_on_c, 0, 48, 0
1, 30004, Control_c, 0, 64, 0
1, 30007, Note_on_c, 0, 50, 37
1, 30007, Note_on_c, 0, 58, 37
1, 30209, Control_c, 0, 64, 127
1, 31010, Note_on_c, 0, 67, 0
1, 31010, Note_on_c, 0, 65, 48
1, 31010, Note_on_c, 0, 58, 0
1, 31013, Note_on_c, 0, 57, 37
1, 31036, Control_c, 0, 64, 0
1, 31307, Control_c, 0, 64, 127
1, 31515, Note_on_c, 0, 65, 0
1, 31515, Note_on_c, 0, 60, 40
1, 31515, Note_on_c, 0, 65, 73
1, 31518, Note_on_c, 0, 57, 0
1, 31518, Note_on_c, 0, 50, 0
1, 31518, Note_on_c, 0, 45, 57
1, 31521, Note_on_c, 0, 57, 57
1, 32006, Note_on_c, 0, 65, 0
1, 32006, Note_on_c, 0, 60, 0
1, 32006, Note_on_c, 0, 64, 51
1, 32009, Note_on_c, 0, 67, 75
1, 32009, Note_on_c, 0, 57, 0
1, 32009, Note_on_c, 0, 45, 0
1, 32012, Note_on_c, 0, 43, 59
1, 32012, Note_on_c, 0, 55, 59
1, 32027, Control_c, 0, 64, 0
1, 32180, Control_c, 0, 64, 127
1, 32498, Note_on_c, 0, 67, 0
1, 32498, Note_on_c, 0, 64, 0
1, 32498, Note_on_c, 0, 65, 52
1, 32501, Note_on_c, 0, 60, 40
1, 32501, Note_on_c, 0, 69, 76
1, 32501, Note_on_c, 0, 55, 0
1, 32504, Note_on_c, 0, 43, 0
1, 32504, Note_on_c, 0, 41, 57
1, 32504, Note_on_c, 0, 53, 57
1, 32512, Control_c, 0, 64, 0
1, 32651, Control_c, 0, 64, 127
1, 32989, Note_on_c, 0, 69, 0
1, 32989, Note_on_c, 0, 60, 0
1, 32989, Note_on_c, 0, 65, 0
1, 32992, Note_on_c, 0, 65, 63
1, 32992, Note_on_c, 0, 70, 77
1, 32992, Note_on_c, 0, 53, 0
1, 32995, Note_on_c, 0, 41, 0
1, 32995, Control_c, 0, 64, 0
1, 32995, Note_on_c, 0, 50, 49
1, 32998, Note_on_c, 0, 62, 56
1, 33120, Control_c, 0, 64, 127
1, 33480, Note_on_c, 0, 62, 0
1, 33480, Note_on_c, 0, 50, 0
1, 33480, Note_on_c, 0, 46, 45
1, 33483, Note_on_c, 0, 58, 45
1, 33713, Note_on_c, 0, 70, 0
1, 33713, Note_on_c, 0, 65, 0
1, 33713, Note_on_c, 0, 72, 59
1, 33819, Note_on_c, 0, 72, 0
1, 33819, Note_on_c, 0, 74, 56
1, 33844, Control_c, 0, 64, 0
1, 33926, Note_on_c, 0, 74, 0
1, 33926, Note_on_c, 0, 72, 56
1, 33926, Note_on_c, 0, 58, 0
1, 33929, Note_on_c, 0, 46, 0
1, 33929, Note_on_c, 0, 57, 29
1, 34178, Note_on_c, 0, 72, 0
1, 34178, Note_on_c, 0, 57, 0
1, 34431, Note_on_c, 0, 65, 47
1, 34913, Note_on_c, 0, 65, 0
1, 34913, Note_on_c, 0, 59, 31
1, 34913, Note_on_c, 0, 64, 52
1, 34916, Note_on_c, 0, 50, 34
1, 35030, Control_c, 0, 64, 127
1, 35415, Note_on_c, 0, 64, 0
1, 35415, Note_on_c, 0, 65, 45
1, 35959, Note_on_c, 0, 65, 0
1, 35959, Note_on_c, 0, 59, 0
1, 35959, Note_on_c, 0, 60, 32
1, 35962, Note_on_c, 0, 65, 32
1, 35962, Note_on_c, 0, 69, 47
1, 35962, Note_on_c, 0, 50, 0
1, 35965, Control_c, 0, 64, 0
1, 35965, Note_on_c, 0, 48, 27
1, 36151, Control_c, 0, 64, 127
1, 37007, Note_on_c, 0, 69, 0
1, 37007, Note_on_c, 0, 65, 0
1, 37007, Note_on_c, 0, 64, 31
1, 37010, Note_on_c, 0, 67, 46
1, 37037, Control_c, 0, 64, 0
1, 37107, Control_c, 0, 64, 127
1, 37530, Note_on_c, 0, 67, 0
1, 37530, Note_on_c, 0, 64, 0
1, 37530, Note_on_c, 0, 67, 54
1, 37552, Control_c, 0, 64, 0
1, 37693, Control_c, 0, 64, 127
1, 38013, Note_on_c, 0, 67, 0
1, 38013, Note_on_c, 0, 60, 0
1, 38013, Note_on_c, 0, 67, 59
1, 38016, Note_on_c, 0, 48, 0
1, 38016, Note_on_c, 0, 60, 39
1, 38016, Note_on_c, 0, 64, 39
1, 38495, Note_on_c, 0, 67, 0
1, 38495, Note_on_c, 0, 67, 65
1, 38759, Control_c, 0, 64, 0
1, 38857, Control_c, 0, 64, 127
1, 38865, Note_on_c, 0, 67, 0
1, 38865, Note_on_c, 0, 67, 66
1, 38995, Note_on_c, 0, 67, 0
1, 38995, Note_on_c, 0, 79, 74
1, 38995, Note_on_c, 0, 64, 0
1, 38998, Note_on_c, 0, 60, 0
1, 38998, Note_on_c, 0, 59, 51
1, 38998, Note_on_c, 0, 62, 51
1, 39001, Note_on_c, 0, 65, 51
1, 39718, Note_on_c, 0, 79, 0
1, 39718, Note_on_c, 0, 74, 50
1, 39838, Note_on_c, 0, 74, 0
1, 39838, Note_on_c, 0, 71, 46
1, 39959, Note_on_c, 0, 71, 0
1, 39959, Note_on_c, 0, 67, 51
1, 40441, Note_on_c, 0, 67, 0
1, 40441, Note_on_c, 0, 67, 59
1, 40463, Control_c, 0, 64, 0
1, 40544, Control_c, 0, 64, 127
1, 40923, Note_on_c, 0, 67, 0
1, 40923, Note_on_c, 0, 67, 63
1, 40923, Note_on_c, 0, 65, 0
1, 40926, Note_on_c, 0, 62, 0
1, 40926, Note_on_c, 0, 59, 0
1, 40926, Note_on_c, 0, 60, 43
1, 40929, Note_on_c, 0, 64, 43
1, 41405, Note_on_c, 0, 67, 0
1, 41405, Note_on_c, 0, 67, 69
1, 41726, Control_c, 0, 64, 0
1, 41786, Note_on_c, 0, 67, 0
1, 41786, Note_on_c, 0, 67, 68
1, 41807, Control_c, 0, 64, 127
1, 41926, Note_on_c, 0, 67, 0
1, 41926, Note_on_c, 0, 79, 73
1, 41926, Note_on_c, 0, 64, 0
1, 41929, Note_on_c, 0, 60, 0
1, 41929, Note_on_c, 0, 50, 52
1, 41929, Note_on_c, 0, 53, 52
1, 41932, Note_on_c, 0, 59, 52
1, 42816, Control_c, 0, 64, 0
1, 42890, Note_on_c, 0, 59, 0
1, 42890, Note_on_c, 0, 53, 0
1, 42890, Note_on_c, 0, 50, 0
1, 42893, Note_on_c, 0, 52, 37
1, 42893, Note_on_c, 0, 55, 37
1, 42893, Note_on_c, 0, 60, 37
1, 43279, Note_on_c, 0, 79, 0
1, 43279, Note_on_c, 0, 81, 56
1, 43343, Note_on_c, 0, 81, 0
1, 43343, Note_on_c, 0, 83, 49
1, 43408, Note_on_c, 0, 83, 0
1, 43408, Note_on_c, 0, 84, 53
1, 43667, Note_on_c, 0, 84, 0
1, 43667, Note_on_c, 0, 83, 49
1, 43926, Note_on_c, 0, 83, 0
1, 43926, Note_on_c, 0, 81, 52
1, 43926, Note_on_c, 0, 60, 0
1, 43929, Note_on_c, 0, 55, 0
1, 43929, Note_on_c, 0, 52, 0
1, 44169, Note_on_c, 0, 81, 0
1, 44169, Note_on_c, 0, 79, 49
1, 44413, Note_on_c, 0, 79, 0
1, 44413, Note_on_c, 0, 77, 51
1, 44656, Note_on_c, 0, 77, 0
1, 44656, Note_on_c, 0, 76, 50
1, 44900, Note_on_c, 0, 76, 0
1, 44900, Note_on_c, 0, 73, 52
1, 45153, Note_on_c, 0, 73, 0
1, 45153, Note_on_c, 0, 74, 48
1, 45407, Note_on_c, 0, 74, 0
1, 45407, Note_on_c, 0, 77, 49
1, 45407, Note_on_c, 0, 62, 30
1, 45410, Note_on_c, 0, 57, 30
1, 45410, Note_on_c, 0, 53, 30
1, 45455, Control_c, 0, 64, 127
1, 45660, Note_on_c, 0, 77, 0
1, 45660, Note_on_c, 0, 81, 48
1, 45934, Note_on_c, 0, 81, 0
1, 45934, Note_on_c, 0, 72, 54
1, 45934, Note_on_c, 0, 53, 0
1, 45937, Note_on_c, 0, 57, 0
1, 45937, Note_on_c, 0, 62, 0
1, 45937, Note_on_c, 0, 64, 27
1, 45940, Note_on_c, 0, 60, 24
1, 45940, Note_on_c, 0, 55, 24
1, 45957, Control_c, 0, 64, 0
1, 46200, Control_c, 0, 64, 127
1, 46948, Note_on_c, 0, 60, 0
1, 46948, Note_on_c, 0, 64, 0
1, 46948, Note_on_c, 0, 65, 26
1, 46951, Note_on_c, 0, 62, 23
1, 46973, Control_c, 0, 64, 0
1, 47129, Control_c, 0, 64, 127
1, 47455, Note_on_c, 0, 72, 0
1, 47455, Note_on_c, 0, 76, 48
1, 47455, Note_on_c, 0, 71, 43
1, 47708, Note_on_c, 0, 76, 0
1, 47708, Note_on_c, 0, 74, 47
1, 47962, Note_on_c, 0, 74, 0
1, 47962, Note_on_c, 0, 71, 0
1, 47962, Note_on_c, 0, 72, 47
1, 47965, Note_on_c, 0, 62, 0
1, 47965, Note_on_c, 0, 65, 0
1, 47965, Note_on_c, 0, 55, 0
1, 47968, Note_on_c, 0, 64, 34
1, 47968, Note_on_c, 0, 60, 30
1, 47985, Control_c, 0, 64, 0
1, 48260, Control_c, 0, 64, 127
1, 48976, Note_on_c, 0, 72, 0
1, 48976, Note_on_c, 0, 60, 0
1, 48976, Note_on_c, 0, 64, 0
1, 48979, Note_on_c, 0, 48, 27
1, 49161, Control_c, 0, 64, 0
1, 49499, Control_c, 0, 91, 127
1, 49499, Note_on_c, 0, 72, 50
1, 49499, Note_on_c, 0, 48, 0
1, 49502, Control_c, 0, 91, 127
1, 49982, Note_on_c, 0, 72, 0
1, 49982, Note_on_c, 0, 74, 54
1, 50223, Note_on_c, 0, 72, 50
1, 50243, Note_on_c, 0, 74, 0
1, 50465, Note_on_c, 0, 70, 55
1, 50485, Note_on_c, 0, 72, 0
1, 50706, Note_on_c, 0, 69, 49
1, 50728, Note_on_c, 0, 70, 0
1, 50972, Note_on_c, 0, 67, 61
1, 50972, Note_on_c, 0, 60, 42
1, 50972, Note_on_c, 0, 63, 46
1, 50993, Note_on_c, 0, 69, 0
1, 51060, Control_c, 0, 64, 127
1, 51971, Note_on_c, 0, 67, 0
1, 51971, Note_on_c, 0, 66, 51
1, 51979, Control_c, 0, 64, 0
1, 52098, Control_c, 0, 64, 127
1, 52449, Note_on_c, 0, 66, 0
1, 52449, Note_on_c, 0, 66, 63
1, 52449, Note_on_c, 0, 63, 0
1, 52452, Note_on_c, 0, 60, 0
1, 52452, Note_on_c, 0, 63, 46
1, 52452, Note_on_c, 0, 60, 46
1, 52921, Note_on_c, 0, 66, 0
1, 52921, Note_on_c, 0, 67, 65
1, 52921, Note_on_c, 0, 60, 0
1, 52924, Note_on_c, 0, 63, 0
1, 52924, Note_on_c, 0, 62, 47
1, 52924, Note_on_c, 0, 58, 47
1, 52945, Control_c, 0, 64, 0
1, 53012, Control_c, 0, 64, 127
1, 53394, Note_on_c, 0, 67, 0
1, 53394, Note_on_c, 0, 66, 52
1, 53394, Note_on_c, 0, 69, 66
1, 53397, Note_on_c, 0, 58, 0
1, 53397, Note_on_c, 0, 62, 0
1, 53397, Note_on_c, 0, 57, 47
1, 53400, Note_on_c, 0, 62, 47
1, 53400, Note_on_c, 0, 60, 47
1, 53418, Control_c, 0, 64, 0
1, 53508, Control_c, 0, 64, 127
1, 53782, Note_on_c, 0, 69, 0
1, 53782, Note_on_c, 0, 66, 0
1, 53911, Note_on_c, 0, 66, 51
1, 53911, Note_on_c, 0, 69, 65
1, 53911, Note_on_c, 0, 60, 0
1, 53914, Note_on_c, 0, 62, 0
1, 53914, Note_on_c, 0, 57, 0
1, 53914, Note_on_c, 0, 60, 50
1, 53917, Note_on_c, 0, 55, 50
1, 53917, Note_on_c, 0, 62, 50
1, 53923, Control_c, 0, 64, 0
1, 54034, Control_c, 0, 64, 127
1, 54898, Note_on_c, 0, 69, 0
1, 54898, Note_on_c, 0, 66, 0
1, 54898, Note_on_c, 0, 67, 45
1, 54901, Note_on_c, 0, 70, 56
1, 54901, Note_on_c, 0, 60, 0
1, 54901, Note_on_c, 0, 58, 48
1, 54923, Control_c, 0, 64, 0
1, 55044, Control_c, 0, 64, 127
1, 55392, Note_on_c, 0, 70, 0
1, 55392, Note_on_c, 0, 67, 0
1, 55392, Note_on_c, 0, 64, 51
1, 55395, Note_on_c, 0, 58, 0
1, 55395, Note_on_c, 0, 62, 0
1, 55395, Note_on_c, 0, 55, 0
1, 55398, Note_on_c, 0, 58, 44
1, 55398, Note_on_c, 0, 61, 44
1, 55414, Control_c, 0, 64, 0
1, 55561, Control_c, 0, 64, 127
1, 55870, Note_on_c, 0, 64, 0
1, 55870, Note_on_c, 0, 65, 55
1, 55870, Note_on_c, 0, 61, 0
1, 55873, Note_on_c, 0, 58, 0
1, 55873, Note_on_c, 0, 60, 48
1, 55873, Note_on_c, 0, 57, 48
1, 55890, Control_c, 0, 64, 0
1, 55989, Control_c, 0, 64, 127
1, 56348, Note_on_c, 0, 65, 0
1, 56348, Note_on_c, 0, 64, 53
1, 56348, Note_on_c, 0, 67, 53
1, 56351, Note_on_c, 0, 57, 0
1, 56351, Note_on_c, 0, 60, 0
1, 56351, Note_on_c, 0, 55, 45
1, 56354, Note_on_c, 0, 60, 45
1, 56354, Note_on_c, 0, 58, 45
1, 56354, Control_c, 0, 64, 0
1, 56418, Control_c, 0, 64, 127
1, 56706, Note_on_c, 0, 67, 0
1, 56706, Note_on_c, 0, 64, 0
1, 56826, Note_on_c, 0, 69, 61
1, 56826, Note_on_c, 0, 58, 0
1, 56826, Note_on_c, 0, 60, 0
1, 56829, Note_on_c, 0, 55, 0
1, 56829, Control_c, 0, 64, 0
1, 56829, Note_on_c, 0, 57, 48
1, 56832, Note_on_c, 0, 60, 48
1, 56832, Note_on_c, 0, 53, 48
1, 56963, Control_c, 0, 64, 127
1, 57292, Control_c, 0, 64, 0
1, 57304, Note_on_c, 0, 69, 0
1, 57304, Note_on_c, 0, 70, 68
1, 57304, Note_on_c, 0, 53, 0
1, 57307, Note_on_c, 0, 60, 0
1, 57307, Note_on_c, 0, 57, 0
1, 57307, Note_on_c, 0, 50, 50
1, 57393, Control_c, 0, 64, 127
1, 57782, Note_on_c, 0, 70, 0
1, 57782, Note_on_c, 0, 72, 67
1, 57782, Note_on_c, 0, 50, 0
1, 57785, Note_on_c, 0, 45, 54
1, 57812, Control_c, 0, 64, 0
1, 58021, Control_c, 0, 64, 127
1, 58260, Note_on_c, 0, 72, 0
1, 58260, Note_on_c, 0, 73, 70
1, 58738, Note_on_c, 0, 73, 0
1, 58738, Note_on_c, 0, 76, 72
1, 58738, Note_on_c, 0, 45, 0
1, 58741, Note_on_c, 0, 46, 49
1, 58760, Control_c, 0, 64, 0
1, 58831, Control_c, 0, 64, 127
1, 58982, Note_on_c, 0, 74, 58
1, 59002, Note_on_c, 0, 76, 0
1, 59226, Note_on_c, 0, 72, 65
1, 59226, Note_on_c, 0, 46, 0
1, 59226, Note_on_c, 0, 43, 46
1, 59246, Note_on_c, 0, 74, 0
1, 59250, Control_c, 0, 64, 0
1, 59364, Control_c, 0, 64, 127
1, 59470, Note_on_c, 0, 67, 55
1, 59470, Note_on_c, 0, 70, 55
1, 59470, Note_on_c, 0, 43, 0
1, 59492, Note_on_c, 0, 72, 0
1, 59736, Note_on_c, 0, 65, 46
1, 59736, Note_on_c, 0, 69, 57
1, 59736, Note_on_c, 0, 48, 43
1, 59744, Control_c, 0, 64, 0
1, 59757, Note_on_c, 0, 70, 0
1, 59757, Note_on_c, 0, 67, 0
1, 60146, Control_c, 0, 64, 127
1, 60734, Note_on_c, 0, 65, 0
1, 60734, Note_on_c, 0, 69, 0
1, 60734, Note_on_c, 0, 64, 40
1, 60737, Note_on_c, 0, 67, 51
1, 60757, Control_c, 0, 64, 0
1, 61234, Note_on_c, 0, 67, 0
1, 61234, Note_on_c, 0, 64, 0
1, 61234, Note_on_c, 0, 72, 65
1, 61348, Control_c, 0, 64, 127
1, 61722, Note_on_c, 0, 72, 0
1, 61722, Note_on_c, 0, 72, 66
1, 61722, Note_on_c, 0, 48, 0
1, 62210, Note_on_c, 0, 72, 0
1, 62210, Note_on_c, 0, 72, 72
1, 62727, Note_on_c, 0, 72, 0
1, 62727, Note_on_c, 0, 72, 81
1, 62727, Note_on_c, 0, 82, 81
1, 62730, Note_on_c, 0, 36, 53
1, 62730, Note_on_c, 0, 48, 64
1, 62741, Control_c, 0, 64, 0
1, 62885, Control_c, 0, 64, 127
1, 63459, Note_on_c, 0, 48, 0
1, 63459, Note_on_c, 0, 36, 0
1, 63459, Note_on_c, 0, 38, 51
1, 63462, Note_on_c, 0, 50, 60
1, 63703, Note_on_c, 0, 50, 0
1, 63703, Note_on_c, 0, 38, 0
1, 63703, Note_on_c, 0, 52, 64
1, 63706, Note_on_c, 0, 40, 53
1, 63724, Control_c, 0, 64, 0
1, 64070, Note_on_c, 0, 40, 0
1, 64070, Note_on_c, 0, 52, 0
1, 64178, Control_c, 0, 64, 0
1, 64192, Note_on_c, 0, 82, 0
1, 64192, Note_on_c, 0, 81, 69
1, 64192, Note_on_c, 0, 41, 40
1, 64195, Note_on_c, 0, 53, 48
1, 64269, Control_c, 0, 64, 127
1, 64550, Note_on_c, 0, 53, 0
1, 64550, Note_on_c, 0, 41, 0
1, 64670, Note_on_c, 0, 81, 0
1, 64670, Note_on_c, 0, 79, 70
1, 64670, Note_on_c, 0, 70, 58
1, 64673, Note_on_c, 0, 55, 53
1, 64673, Note_on_c, 0, 43, 45
1, 64694, Control_c, 0, 64, 0
1, 64825, Control_c, 0, 64, 127
1, 65028, Note_on_c, 0, 43, 0
1, 65028, Note_on_c, 0, 55, 0
1, 65148, Note_on_c, 0, 70, 0
1, 65148, Note_on_c, 0, 79, 0
1, 65148, Note_on_c, 0, 69, 56
1, 65151, Note_on_c, 0, 77, 66
1, 65151, Note_on_c, 0, 45, 42
1, 65151, Note_on_c, 0, 57, 50
1, 65154, Control_c, 0, 64, 0
1, 65258, Control_c, 0, 64, 127
1, 65522, Note_on_c, 0, 57, 0
1, 65522, Note_on_c, 0, 45, 0
1, 65647, Note_on_c, 0, 77, 0
1, 65647, Note_on_c, 0, 69, 0
1, 65647, Note_on_c, 0, 77, 66
1, 65650, Note_on_c, 0, 67, 55
1, 65650, Note_on_c, 0, 46, 45
1, 65650, Note_on_c, 0, 58, 53
1, 65653, Control_c, 0, 64, 0
1, 65819, Control_c, 0, 64, 127
1, 66679, Note_on_c, 0, 77, 0
1, 66679, Note_on_c, 0, 76, 56
1, 66686, Control_c, 0, 64, 0
1, 67202, Note_on_c, 0, 76, 0
1, 67202, Note_on_c, 0, 75, 51
1, 67416, Control_c, 0, 64, 127
1, 67701, Note_on_c, 0, 75, 0
1, 67701, Note_on_c, 0, 67, 0
1, 67701, Note_on_c, 0, 72, 0
1, 67704, Note_on_c, 0, 75, 48
1, 67704, Note_on_c, 0, 58, 0
1, 67704, Note_on_c, 0, 46, 0
1, 68200, Note_on_c, 0, 75, 0
1, 68200, Note_on_c, 0, 75, 47
1, 68695, Note_on_c, 0, 75, 0
1, 68695, Note_on_c, 0, 75, 39
1, 68695, Note_on_c, 0, 65, 43
1, 68698, Control_c, 0, 64, 0
1, 68698, Note_on_c, 0, 57, 37
1, 68698, Note_on_c, 0, 60, 37
1, 68746, Control_c, 0, 64, 127
1, 68750, Note_on_c, 0, 75, 0
1, 68750, Note_on_c, 0, 77, 40
1, 68804, Note_on_c, 0, 77, 0
1, 68804, Note_on_c, 0, 75, 42
1, 68858, Note_on_c, 0, 75, 0
1, 68858, Note_on_c, 0, 77, 42
1, 68912, Note_on_c, 0, 77, 0
1, 68912, Note_on_c, 0, 75, 42
1, 68965, Note_on_c, 0, 75, 0
1, 68965, Note_on_c, 0, 77, 42
1, 69018, Note_on_c, 0, 77, 0
1, 69018, Note_on_c, 0, 75, 39
1, 69073, Note_on_c, 0, 75, 0
1, 69073, Note_on_c, 0, 77, 38
1, 69125, Note_on_c, 0, 77, 0
1, 69125, Note_on_c, 0, 75, 46
1, 69361, Note_on_c, 0, 75, 0
1, 69361, Note_on_c, 0, 77, 50
1, 69616, Note_on_c, 0, 77, 0
1, 69616, Note_on_c, 0, 79, 55
1, 69616, Note_on_c, 0, 60, 0
1, 69619, Note_on_c, 0, 57, 0
1, 69619, Note_on_c, 0, 65, 0
1, 69619, Note_on_c, 0, 65, 43
1, 69622, Note_on_c, 0, 57, 37
1, 69622, Note_on_c, 0, 60, 37
1, 69639, Control_c, 0, 64, 0
1, 69716, Control_c, 0, 64, 127
1, 70127, Note_on_c, 0, 79, 0
1, 70127, Note_on_c, 0, 77, 54
1, 70382, Note_on_c, 0, 77, 0
1, 70382, Note_on_c, 0, 75, 51
1, 70637, Note_on_c, 0, 75, 0
1, 70637, Note_on_c, 0, 75, 53
1, 70637, Note_on_c, 0, 60, 0
1, 70640, Note_on_c, 0, 57, 0
1, 70640, Note_on_c, 0, 65, 0
1, 70640, Note_on_c, 0, 65, 37
1, 70643, Note_on_c, 0, 57, 33
1, 70643, Note_on_c, 0, 63, 33
1, 70661, Control_c, 0, 64, 0
1, 70720, Control_c, 0, 64, 127
1, 70892, Note_on_c, 0, 75, 0
1, 70892, Note_on_c, 0, 74, 49
1, 71148, Note_on_c, 0, 74, 0
1, 71148, Note_on_c, 0, 74, 52
1, 71167, Control_c, 0, 64, 0
1, 71222, Control_c, 0, 64, 127
1, 71403, Note_on_c, 0, 74, 0
1, 71403, Note_on_c, 0, 73, 50
1, 71633, Control_c, 0, 64, 0
1, 71697, Note_on_c, 0, 73, 0
1, 71697, Note_on_c, 0, 73, 55
1, 71697, Note_on_c, 0, 63, 0
1, 71700, Note_on_c, 0, 57, 0
1, 71700, Note_on_c, 0, 65, 0
1, 71700, Note_on_c, 0, 62, 22
1, 71703, Note_on_c, 0, 58, 22
1, 71703, Note_on_c, 0, 65, 28
1, 71891, Control_c, 0, 64, 127
1, 72653, Control_c, 0, 64, 0
1, 72712, Note_on_c, 0, 73, 0
1, 72712, Note_on_c, 0, 74, 50
1, 73211, Note_on_c, 0, 74, 0
1, 73211, Note_on_c, 0, 77, 54
1, 73453, Note_on_c, 0, 77, 0
1, 73453, Note_on_c, 0, 76, 51
1, 73695, Note_on_c, 0, 76, 0
1, 73695, Note_on_c, 0, 79, 59
1, 73695, Note_on_c, 0, 65, 0
1, 73698, Note_on_c, 0, 58, 0
1, 73698, Note_on_c, 0, 62, 0
1, 73936, Note_on_c, 0, 79, 0
1, 73936, Note_on_c, 0, 77, 53
1, 74178, Note_on_c, 0, 77, 0
1, 74178, Note_on_c, 0, 76, 54
1, 74445, Note_on_c, 0, 76, 0
1, 74445, Note_on_c, 0, 74, 49
1, 74729, Note_on_c, 0, 74, 0
1, 74729, Note_on_c, 0, 74, 49
1, 74729, Note_on_c, 0, 58, 28
1, 74732, Note_on_c, 0, 53, 28
1, 74732, Note_on_c, 0, 62, 35
1, 74818, Control_c, 0, 64, 127
1, 75739, Note_on_c, 0, 74, 0
1, 75739, Note_on_c, 0, 72, 48
1, 75739, Note_on_c, 0, 62, 0
1, 75742, Note_on_c, 0, 58, 0
1, 75742, Note_on_c, 0, 57, 26
1, 75742, Note_on_c, 0, 60, 33
1, 75764, Control_c, 0, 64, 0
1, 75939, Control_c, 0, 64, 127
1, 76244, Note_on_c, 0, 72, 0
1, 76244, Note_on_c, 0, 77, 57
1, 76362, Control_c, 0, 64, 0
1, 76407, Control_c, 0, 64, 127
1, 76585, Note_on_c, 0, 77, 0
1, 76585, Note_on_c, 0, 72, 51
1, 76703, Note_on_c, 0, 72, 0
1, 76703, Note_on_c, 0, 81, 65
1, 76703, Note_on_c, 0, 60, 0
1, 76706, Note_on_c, 0, 57, 0
1, 76706, Note_on_c, 0, 53, 0
1, 77043, Note_on_c, 0, 81, 0
1, 77043, Note_on_c, 0, 77, 58
1, 77162, Note_on_c, 0, 77, 0
1, 77162, Note_on_c, 0, 72, 66
1, 77516, Note_on_c, 0, 72, 0
1, 77516, Note_on_c, 0, 69, 57
1, 77635, Note_on_c, 0, 69, 0
1, 77635, Note_on_c, 0, 72, 69
1, 77635, Note_on_c, 0, 52, 43
1, 77638, Control_c, 0, 64, 0
1, 77638, Note_on_c, 0, 60, 43
1, 77638, Note_on_c, 0, 55, 43
1, 77777, Control_c, 0, 64, 127
1, 78214, Control_c, 0, 64, 0
1, 78329, Note_on_c, 0, 72, 0
1, 78329, Note_on_c, 0, 71, 55
1, 78561, Note_on_c, 0, 71, 0
1, 78561, Note_on_c, 0, 70, 55
1, 79024, Note_on_c, 0, 70, 0
1, 79024, Note_on_c, 0, 67, 75
1, 79024, Note_on_c, 0, 64, 67
1, 79027, Note_on_c, 0, 55, 0
1, 79027, Note_on_c, 0, 60, 0
1, 79027, Note_on_c, 0, 52, 0
1, 79030, Note_on_c, 0, 58, 48
1, 79030, Note_on_c, 0, 46, 42
1, 79097, Control_c, 0, 64, 127
1, 79367, Note_on_c, 0, 64, 0
1, 79367, Note_on_c, 0, 60, 64
1, 79485, Note_on_c, 0, 60, 0
1, 79485, Note_on_c, 0, 67, 0
1, 79485, Note_on_c, 0, 65, 69
1, 79488, Note_on_c, 0, 69, 76
1, 79488, Note_on_c, 0, 46, 0
1, 79488, Note_on_c, 0, 58, 0
1, 79491, Note_on_c, 0, 57, 50
1, 79491, Note_on_c, 0, 45, 44
1, 79494, Control_c, 0, 64, 0
1, 79544, Control_c, 0, 64, 127
1, 79824, Note_on_c, 0, 65, 0
1, 79824, Note_on_c, 0, 60, 65
1, 79942, Note_on_c, 0, 60, 0
1, 79942, Note_on_c, 0, 69, 0
1, 79942, Note_on_c, 0, 70, 78
1, 79945, Note_on_c, 0, 67, 70
1, 79945, Note_on_c, 0, 45, 0
1, 79945, Note_on_c, 0, 57, 0
1, 79948, Note_on_c, 0, 55, 50
1, 79948, Note_on_c, 0, 43, 44
1, 79951, Control_c, 0, 64, 0
1, 80001, Control_c, 0, 64, 127
1, 80278, Note_on_c, 0, 67, 0
1, 80278, Note_on_c, 0, 60, 69
1, 80278, Control_c, 0, 64, 0
1, 80394, Note_on_c, 0, 60, 0
1, 80394, Note_on_c, 0, 70, 0
1, 80394, Note_on_c, 0, 69, 70
1, 80397, Note_on_c, 0, 72, 80
1, 80397, Note_on_c, 0, 43, 0
1, 80397, Note_on_c, 0, 55, 0
1, 80400, Note_on_c, 0, 53, 54
1, 80400, Note_on_c, 0, 41, 49
1, 80658, Note_on_c, 0, 72, 0
1, 80658, Note_on_c, 0, 74, 53
1, 80910, Note_on_c, 0, 74, 0
1, 80910, Note_on_c, 0, 69, 0
1, 80910, Note_on_c, 0, 76, 54
1, 80913, Note_on_c, 0, 41, 0
1, 80913, Note_on_c, 0, 53, 0
1, 81163, Note_on_c, 0, 76, 0
1, 81163, Note_on_c, 0, 77, 47
1, 81415, Note_on_c, 0, 77, 0
1, 81415, Note_on_c, 0, 60, 38
1, 81415, Note_on_c, 0, 65, 49
1, 81418, Note_on_c, 0, 48, 33
1, 81418, Note_on_c, 0, 57, 38
1, 81458, Control_c, 0, 64, 127
1, 82403, Note_on_c, 0, 57, 0
1, 82403, Note_on_c, 0, 58, 32
1, 82427, Control_c, 0, 64, 0
1, 82621, Control_c, 0, 64, 127
1, 82896, Note_on_c, 0, 65, 0
1, 82896, Note_on_c, 0, 60, 0
1, 82896, Note_on_c, 0, 64, 37
1, 82899, Note_on_c, 0, 69, 47
1, 83159, Note_on_c, 0, 69, 0
1, 83159, Note_on_c, 0, 67, 44
1, 83431, Note_on_c, 0, 67, 0
1, 83431, Note_on_c, 0, 64, 0
1, 83431, Note_on_c, 0, 65, 47
1, 83434, Note_on_c, 0, 58, 0
1, 83434, Note_on_c, 0, 48, 0
1, 83434, Note_on_c, 0, 53, 28
1, 83437, Note_on_c, 0, 57, 34
1, 83441, Control_c, 0, 64, 0
1, 83592, Control_c, 0, 64, 127
1, 84424, Note_on_c, 0, 65, 0
1, 84424, Note_on_c, 0, 57, 0
1, 84424, Note_on_c, 0, 53, 0
1, 84427, Note_on_c, 0, 41, 28
1, 84701, Control_c, 0, 64, 0
1, 84921, Control_c, 0, 91, 127
1, 84921, Note_on_c, 0, 72, 50
1, 84921, Note_on_c, 0, 41, 0
1, 84924, Control_c, 0, 91, 127
1, 85404, Note_on_c, 0, 72, 0
1, 85404, Note_on_c, 0, 74, 54
1, 85645, Note_on_c, 0, 72, 50
1, 85665, Note_on_c, 0, 74, 0
1, 85887, Note_on_c, 0, 70, 55
1, 85907, Note_on_c, 0, 72, 0
1, 86128, Note_on_c, 0, 69, 49
1, 86151, Note_on_c, 0, 70, 0
1, 86394, Note_on_c, 0, 67, 61
1, 86394, Note_on_c, 0, 63, 46
1, 86394, Note_on_c, 0, 60, 46
1, 86415, Note_on_c, 0, 69, 0
1, 86482, Control_c, 0, 64, 127
1, 87393, Note_on_c, 0, 67, 0
1, 87393, Note_on_c, 0, 66, 51
1, 87407, Control_c, 0, 64, 0
1, 87512, Control_c, 0, 64, 127
1, 87871, Note_on_c, 0, 66, 0
1, 87871, Note_on_c, 0, 66, 63
1, 87871, Note_on_c, 0, 60, 0
1, 87874, Note_on_c, 0, 63, 0
1, 87874, Note_on_c, 0, 63, 46
1, 87874, Note_on_c, 0, 60, 46
1, 88344, Note_on_c, 0, 66, 0
1, 88344, Note_on_c, 0, 67, 65
1, 88344, Note_on_c, 0, 60, 0
1, 88347, Note_on_c, 0, 63, 0
1, 88347, Note_on_c, 0, 62, 47
1, 88347, Note_on_c, 0, 58, 47
1, 88363, Control_c, 0, 64, 0
1, 88476, Control_c, 0, 64, 127
1, 88817, Note_on_c, 0, 67, 0
1, 88817, Note_on_c, 0, 66, 52
1, 88817, Note_on_c, 0, 69, 66
1, 88820, Note_on_c, 0, 58, 0
1, 88820, Note_on_c, 0, 62, 0
1, 88820, Note_on_c, 0, 57, 47
1, 88823, Note_on_c, 0, 60, 47
1, 88823, Note_on_c, 0, 62, 47
1, 88840, Control_c, 0, 64, 0
1, 88931, Control_c, 0, 64, 127
1, 89204, Note_on_c, 0, 69, 0
1, 89204, Note_on_c, 0, 66, 0
1, 89333, Note_on_c, 0, 66, 51
1, 89333, Note_on_c, 0, 69, 65
1, 89333, Note_on_c, 0, 62, 0
1, 89336, Note_on_c, 0, 60, 0
1, 89336, Note_on_c, 0, 57, 0
1, 89336, Note_on_c, 0, 60, 50
1, 89339, Note_on_c, 0, 62, 50
1, 89339, Note_on_c, 0, 55, 50
1, 89358, Control_c, 0, 64, 0
1, 89479, Control_c, 0, 64, 127
1, 90320, Note_on_c, 0, 69, 0
1, 90320, Note_on_c, 0, 66, 0
1, 90320, Note_on_c, 0, 67, 45
1, 90323, Note_on_c, 0, 70, 56
1, 90323, Note_on_c, 0, 60, 0
1, 90323, Note_on_c, 0, 58, 48
1, 90349, Control_c, 0, 64, 0
1, 90466, Control_c, 0, 64, 127
1, 90814, Note_on_c, 0, 70, 0
1, 90814, Note_on_c, 0, 67, 0
1, 90814, Note_on_c, 0, 64, 51
1, 90817, Note_on_c, 0, 58, 0
1, 90817, Note_on_c, 0, 55, 0
1, 90817, Note_on_c, 0, 62, 0
1, 90820, Note_on_c, 0, 61, 44
1, 90820, Note_on_c, 0, 58, 44
1, 90838, Control_c, 0, 64, 0
1, 90942, Control_c, 0, 64, 127
1, 91292, Note_on_c, 0, 64, 0
1, 91292, Note_on_c, 0, 65, 55
1, 91292, Note_on_c, 0, 58, 0
1, 91295, Note_on_c, 0, 61, 0
1, 91295, Note_on_c, 0, 60, 48
1, 91295, Note_on_c, 0, 57, 48
1, 91312, Control_c, 0, 64, 0
1, 91420, Control_c, 0, 64, 127
1, 91770, Note_on_c, 0, 65, 0
1, 91770, Note_on_c, 0, 64, 53
1, 91770, Note_on_c, 0, 67, 53
1, 91773, Note_on_c, 0, 57, 0
1, 91773, Note_on_c, 0, 60, 0
1, 91773, Note_on_c, 0, 55, 45
1, 91776, Note_on_c, 0, 58, 45
1, 91776, Note_on_c, 0, 60, 45
1, 91794, Control_c, 0, 64, 0
1, 91862, Control_c, 0, 64, 127
1, 92129, Note_on_c, 0, 67, 0
1, 92129, Note_on_c, 0, 64, 0
1, 92248, Note_on_c, 0, 69, 61
1, 92248, Note_on_c, 0, 60, 0
1, 92248, Note_on_c, 0, 58, 0
1, 92251, Note_on_c, 0, 55, 0
1, 92251, Note_on_c, 0, 53, 48
1, 92251, Note_on_c, 0, 57, 48
1, 92254, Note_on_c, 0, 60, 48
1, 92254, Control_c, 0, 64, 0
1, 92340, Control_c, 0, 64, 127
1, 92726, Note_on_c, 0, 69, 0
1, 92726, Note_on_c, 0, 70, 68
1, 92726, Note_on_c, 0, 60, 0
1, 92729, Note_on_c, 0, 57, 0
1, 92729, Note_on_c, 0, 53, 0
1, 92729, Note_on_c, 0, 50, 50
1, 92736, Control_c, 0, 64, 0
1, 92873, Control_c, 0, 64, 127
1, 93204, Note_on_c, 0, 70, 0
1, 93204, Note_on_c, 0, 72, 70
1, 93204, Note_on_c, 0, 50, 0
1, 93207, Note_on_c, 0, 45, 54
1, 93228, Control_c, 0, 64, 0
1, 93363, Control_c, 0, 64, 127
1, 93682, Note_on_c, 0, 72, 0
1, 93682, Note_on_c, 0, 73, 70
1, 94160, Note_on_c, 0, 73, 0
1, 94160, Note_on_c, 0, 76, 70
1, 94160, Note_on_c, 0, 45, 0
1, 94163, Note_on_c, 0, 46, 53
1, 94186, Control_c, 0, 64, 0
1, 94310, Control_c, 0, 64, 127
1, 94404, Note_on_c, 0, 74, 58
1, 94424, Note_on_c, 0, 76, 0
1, 94648, Note_on_c, 0, 72, 65
1, 94648, Note_on_c, 0, 46, 0
1, 94648, Note_on_c, 0, 43, 46
1, 94669, Note_on_c, 0, 74, 0
1, 94669, Control_c, 0, 64, 0
1, 94787, Control_c, 0, 64, 127
1, 94892, Note_on_c, 0, 67, 55
1, 94892, Note_on_c, 0, 70, 55
1, 94892, Note_on_c, 0, 43, 0
1, 94913, Note_on_c, 0, 72, 0
1, 95137, Note_on_c, 0, 65, 46
1, 95137, Note_on_c, 0, 69, 57
1, 95137, Control_c, 0, 64, 0
1, 95140, Note_on_c, 0, 48, 43
1, 95157, Note_on_c, 0, 70, 0
1, 95157, Note_on_c, 0, 67, 0
1, 95372, Control_c, 0, 64, 127
1, 96135, Note_on_c, 0, 65, 0
1, 96135, Note_on_c, 0, 69, 0
1, 96135, Note_on_c, 0, 64, 40
1, 96138, Note_on_c, 0, 67, 51
1, 96156, Control_c, 0, 64, 0
1, 96634, Note_on_c, 0, 67, 0
1, 96634, Note_on_c, 0, 64, 0
1, 96634, Note_on_c, 0, 72, 65
1, 96748, Control_c, 0, 64, 127
1, 97122, Note_on_c, 0, 72, 0
1, 97122, Note_on_c, 0, 72, 66
1, 97122, Note_on_c, 0, 48, 0
1, 97611, Note_on_c, 0, 72, 0
1, 97611, Note_on_c, 0, 72, 72
1, 98127, Note_on_c, 0, 72, 0
1, 98127, Note_on_c, 0, 72, 81
1, 98127, Note_on_c, 0, 82, 81
1, 98130, Note_on_c, 0, 36, 53
1, 98130, Note_on_c, 0, 48, 64
1, 98178, Control_c, 0, 64, 0
1, 98286, Control_c, 0, 64, 127
1, 98860, Note_on_c, 0, 48, 0
1, 98860, Note_on_c, 0, 36, 0
1, 98860, Note_on_c, 0, 38, 51
1, 98863, Note_on_c, 0, 50, 60
1, 99104, Note_on_c, 0, 50, 0
1, 99104, Note_on_c, 0, 38, 0
1, 99104, Note_on_c, 0, 40, 53
1, 99107, Note_on_c, 0, 52, 64
1, 99124, Control_c, 0, 64, 0
1, 99470, Note_on_c, 0, 52, 0
1, 99470, Note_on_c, 0, 40, 0
1, 99592, Note_on_c, 0, 82, 0
1, 99592, Note_on_c, 0, 81, 69
1, 99592, Note_on_c, 0, 41, 40
1, 99595, Note_on_c, 0, 53, 48
1, 99670, Control_c, 0, 64, 127
1, 99951, Note_on_c, 0, 53, 0
1, 99951, Note_on_c, 0, 41, 0
1, 100070, Note_on_c, 0, 81, 0
1, 100070, Note_on_c, 0, 70, 58
1, 100070, Note_on_c, 0, 79, 70
1, 100073, Note_on_c, 0, 43, 45
1, 100073, Note_on_c, 0, 55, 53
1, 100094, Control_c, 0, 64, 0
1, 100162, Control_c, 0, 64, 127
1, 100429, Note_on_c, 0, 55, 0
1, 100429, Note_on_c, 0, 43, 0
1, 100548, Note_on_c, 0, 79, 0
1, 100548, Note_on_c, 0, 70, 0
1, 100548, Note_on_c, 0, 69, 56
1, 100551, Note_on_c, 0, 77, 66
1, 100551, Note_on_c, 0, 45, 42
1, 100551, Note_on_c, 0, 57, 50
1, 100563, Control_c, 0, 64, 0
1, 100615, Control_c, 0, 64, 127
1, 100923, Note_on_c, 0, 57, 0
1, 100923, Note_on_c, 0, 45, 0
1, 101047, Note_on_c, 0, 77, 0
1, 101047, Note_on_c, 0, 69, 0
1, 101047, Note_on_c, 0, 67, 60
1, 101050, Note_on_c, 0, 77, 60
1, 101050, Note_on_c, 0, 46, 45
1, 101050, Note_on_c, 0, 58, 53
1, 101058, Control_c, 0, 64, 0
1, 101368, Control_c, 0, 64, 127
1, 102056, Control_c, 0, 64, 0
1, 102080, Note_on_c, 0, 77, 0
1, 102080, Note_on_c, 0, 76, 56
1, 102602, Note_on_c, 0, 76, 0
1, 102602, Note_on_c, 0, 75, 51
1, 102816, Control_c, 0, 64, 127
1, 103101, Note_on_c, 0, 75, 0
1, 103101, Note_on_c, 0, 67, 0
1, 103101, Note_on_c, 0, 72, 0
1, 103104, Note_on_c, 0, 75, 50
1, 103104, Note_on_c, 0, 58, 0
1, 103104, Note_on_c, 0, 46, 0
1, 103601, Note_on_c, 0, 75, 0
1, 103601, Note_on_c, 0, 75, 46
1, 104093, Note_on_c, 0, 75, 0
1, 104093, Note_on_c, 0, 75, 40
1, 104093, Control_c, 0, 64, 0
1, 104096, Note_on_c, 0, 65, 43
1, 104096, Note_on_c, 0, 60, 37
1, 104096, Note_on_c, 0, 57, 37
1, 104143, Control_c, 0, 64, 127
1, 104148, Note_on_c, 0, 75, 0
1, 104148, Note_on_c, 0, 77, 42
1, 104203, Note_on_c, 0, 77, 0
1, 104203, Note_on_c, 0, 75, 43
1, 104256, Note_on_c, 0, 75, 0
1, 104256, Note_on_c, 0, 77, 45
1, 104309, Note_on_c, 0, 77, 0
1, 104309, Note_on_c, 0, 75, 45
1, 104361, Note_on_c, 0, 75, 0
1, 104361, Note_on_c, 0, 77, 45
1, 104415, Note_on_c, 0, 77, 0
1, 104415, Note_on_c, 0, 75, 43
1, 104470, Note_on_c, 0, 75, 0
1, 104470, Note_on_c, 0, 77, 42
1, 104524, Note_on_c, 0, 77, 0
1, 104524, Note_on_c, 0, 75, 47
1, 104764, Note_on_c, 0, 75, 0
1, 104764, Note_on_c, 0, 77, 47
1, 105019, Note_on_c, 0, 77, 0
1, 105019, Note_on_c, 0, 79, 54
1, 105019, Note_on_c, 0, 57, 0
1, 105022, Note_on_c, 0, 60, 0
1, 105022, Note_on_c, 0, 65, 0
1, 105022, Note_on_c, 0, 65, 43
1, 105025, Note_on_c, 0, 57, 37
1, 105025, Note_on_c, 0, 60, 37
1, 105030, Control_c, 0, 64, 0
1, 105098, Control_c, 0, 64, 127
1, 105530, Note_on_c, 0, 79, 0
1, 105530, Note_on_c, 0, 77, 54
1, 105785, Note_on_c, 0, 77, 0
1, 105785, Note_on_c, 0, 75, 51
1, 106040, Note_on_c, 0, 75, 0
1, 106040, Note_on_c, 0, 75, 54
1, 106040, Note_on_c, 0, 60, 0
1, 106043, Note_on_c, 0, 57, 0
1, 106043, Note_on_c, 0, 65, 0
1, 106043, Note_on_c, 0, 65, 37
1, 106046, Note_on_c, 0, 57, 33
1, 106046, Note_on_c, 0, 63, 33
1, 106058, Control_c, 0, 64, 0
1, 106162, Control_c, 0, 64, 127
1, 106296, Note_on_c, 0, 75, 0
1, 106296, Note_on_c, 0, 74, 49
1, 106551, Note_on_c, 0, 74, 0
1, 106551, Note_on_c, 0, 74, 53
1, 106564, Control_c, 0, 64, 0
1, 106634, Control_c, 0, 64, 127
1, 106806, Note_on_c, 0, 74, 0
1, 106806, Note_on_c, 0, 73, 49
1, 107085, Control_c, 0, 64, 0
1, 107116, Note_on_c, 0, 73, 0
1, 107116, Note_on_c, 0, 73, 55
1, 107116, Note_on_c, 0, 63, 0
1, 107119, Note_on_c, 0, 57, 0
1, 107119, Note_on_c, 0, 65, 0
1, 107119, Note_on_c, 0, 62, 22
1, 107122, Note_on_c, 0, 58, 22
1, 107122, Note_on_c, 0, 65, 28
1, 107315, Control_c, 0, 64, 127
1, 108095, Control_c, 0, 64, 0
1, 108155, Note_on_c, 0, 73, 0
1, 108155, Note_on_c, 0, 74, 50
1, 108654, Note_on_c, 0, 74, 0
1, 108654, Note_on_c, 0, 77, 56
1, 108896, Note_on_c, 0, 77, 0
1, 108896, Note_on_c, 0, 76, 53
1, 109138, Note_on_c, 0, 76, 0
1, 109138, Note_on_c, 0, 79, 59
1, 109138, Note_on_c, 0, 65, 0
1, 109141, Note_on_c, 0, 58, 0
1, 109141, Note_on_c, 0, 62, 0
1, 109379, Note_on_c, 0, 79, 0
1, 109379, Note_on_c, 0, 77, 53
1, 109621, Note_on_c, 0, 77, 0
1, 109621, Note_on_c, 0, 76, 54
1, 109888, Note_on_c, 0, 76, 0
1, 109888, Note_on_c, 0, 74, 50
1, 110167, Note_on_c, 0, 74, 0
1, 110167, Note_on_c, 0, 74, 49
1, 110167, Note_on_c, 0, 58, 28
1, 110170, Note_on_c, 0, 53, 28
1, 110170, Note_on_c, 0, 62, 35
1, 110256, Control_c, 0, 64, 127
1, 111177, Note_on_c, 0, 74, 0
1, 111177, Note_on_c, 0, 72, 48
1, 111177, Note_on_c, 0, 62, 0
1, 111180, Note_on_c, 0, 58, 0
1, 111180, Note_on_c, 0, 57, 26
1, 111180, Note_on_c, 0, 60, 33
1, 111192, Control_c, 0, 64, 0
1, 111311, Control_c, 0, 64, 127
1, 111682, Note_on_c, 0, 72, 0
1, 111682, Note_on_c, 0, 77, 57
1, 111755, Control_c, 0, 64, 0
1, 111820, Control_c, 0, 64, 127
1, 112025, Note_on_c, 0, 77, 0
1, 112025, Note_on_c, 0, 72, 51
1, 112143, Note_on_c, 0, 72, 0
1, 112143, Note_on_c, 0, 81, 65
1, 112143, Note_on_c, 0, 60, 0
1, 112146, Note_on_c, 0, 57, 0
1, 112146, Note_on_c, 0, 53, 0
1, 112488, Note_on_c, 0, 81, 0
1, 112488, Note_on_c, 0, 77, 58
1, 112606, Note_on_c, 0, 77, 0
1, 112606, Note_on_c, 0, 72, 66
1, 112961, Note_on_c, 0, 72, 0
1, 112961, Note_on_c, 0, 69, 57
1, 113079, Note_on_c, 0, 69, 0
1, 113079, Note_on_c, 0, 72, 69
1, 113079, Note_on_c, 0, 55, 43
1, 113082, Note_on_c, 0, 60, 43
1, 113082, Note_on_c, 0, 52, 43
1, 113106, Control_c, 0, 64, 0
1, 113222, Control_c, 0, 64, 127
1, 113658, Control_c, 0, 64, 0
1, 113774, Note_on_c, 0, 72, 0
1, 113774, Note_on_c, 0, 71, 65
1, 114005, Note_on_c, 0, 71, 0
1, 114005, Note_on_c, 0, 70, 65
1, 114469, Note_on_c, 0, 70, 0
1, 114469, Note_on_c, 0, 64, 67
1, 114469, Note_on_c, 0, 67, 75
1, 114472, Note_on_c, 0, 52, 0
1, 114472, Note_on_c, 0, 60, 0
1, 114472, Note_on_c, 0, 55, 0
1, 114475, Note_on_c, 0, 46, 42
1, 114475, Note_on_c, 0, 58, 48
1, 114498, Control_c, 0, 64, 127
1, 114808, Note_on_c, 0, 64, 0
1, 114808, Note_on_c, 0, 60, 64
1, 114925, Note_on_c, 0, 60, 0
1, 114925, Note_on_c, 0, 67, 0
1, 114925, Note_on_c, 0, 65, 69
1, 114928, Note_on_c, 0, 69, 76
1, 114928, Note_on_c, 0, 58, 0
1, 114928, Note_on_c, 0, 46, 0
1, 114931, Note_on_c, 0, 57, 50
1, 114931, Note_on_c, 0, 45, 44
1, 114944, Control_c, 0, 64, 0
1, 114984, Control_c, 0, 64, 127
1, 115264, Note_on_c, 0, 65, 0
1, 115264, Note_on_c, 0, 60, 65
1, 115381, Note_on_c, 0, 60, 0
1, 115381, Note_on_c, 0, 69, 0
1, 115381, Note_on_c, 0, 67, 71
1, 115384, Note_on_c, 0, 70, 78
1, 115384, Note_on_c, 0, 45, 0
1, 115384, Note_on_c, 0, 57, 0
1, 115387, Note_on_c, 0, 55, 50
1, 115387, Note_on_c, 0, 43, 44
1, 115400, Control_c, 0, 64, 0
1, 115441, Control_c, 0, 64, 127
1, 115723, Note_on_c, 0, 67, 0
1, 115723, Note_on_c, 0, 60, 69
1, 115723, Control_c, 0, 64, 0
1, 115840, Note_on_c, 0, 60, 0
1, 115840, Note_on_c, 0, 70, 0
1, 115840, Note_on_c, 0, 72, 80
1, 115843, Note_on_c, 0, 69, 71
1, 115843, Note_on_c, 0, 43, 0
1, 115843, Note_on_c, 0, 55, 0
1, 115846, Note_on_c, 0, 41, 49
1, 115846, Note_on_c, 0, 53, 54
1, 116104, Note_on_c, 0, 72, 0
1, 116104, Note_on_c, 0, 74, 51
1, 116357, Note_on_c, 0, 74, 0
1, 116357, Note_on_c, 0, 69, 0
1, 116357, Note_on_c, 0, 76, 54
1, 116360, Note_on_c, 0, 53, 0
1, 116360, Note_on_c, 0, 41, 0
1, 116609, Note_on_c, 0, 76, 0
1, 116609, Note_on_c, 0, 77, 47
1, 116862, Note_on_c, 0, 77, 0
1, 116862, Note_on_c, 0, 60, 38
1, 116862, Note_on_c, 0, 65, 49
1, 116865, Note_on_c, 0, 57, 37
1, 116865, Note_on_c, 0, 48, 29
1, 116905, Control_c, 0, 64, 127
1, 117849, Note_on_c, 0, 57, 0
1, 117849, Note_on_c, 0, 58, 28
1, 117872, Control_c, 0, 64, 0
1, 118081, Control_c, 0, 64, 127
1, 118343, Note_on_c, 0, 65, 0
1, 118343, Note_on_c, 0, 60, 0
1, 118343, Note_on_c, 0, 69, 47
1, 118346, Note_on_c, 0, 64, 37
1, 118595, Note_on_c, 0, 69, 0
1, 118595, Note_on_c, 0, 67, 44
1, 118848, Note_on_c, 0, 67, 0
1, 118848, Note_on_c, 0, 64, 0
1, 118848, Note_on_c, 0, 65, 47
1, 118851, Note_on_c, 0, 58, 0
1, 118851, Note_on_c, 0, 48, 0
1, 118851, Control_c, 0, 64, 0
1, 118854, Note_on_c, 0, 53, 32
1, 118854, Note_on_c, 0, 57, 32
1, 119012, Control_c, 0, 64, 127
1, 119857, Note_on_c, 0, 65, 0
1, 119857, Note_on_c, 0, 57, 0
1, 119857, Note_on_c, 0, 53, 0
1, 119860, Note_on_c, 0, 41, 26
1, 120139, Control_c, 0, 64, 0
1, 120362, Note_on_c, 0, 68, 37
1, 120362, Control_c, 0, 91, 127
1, 120362, Note_on_c, 0, 60, 37
1, 120365, Note_on_c, 0, 41, 0
1, 120365, Control_c, 0, 91, 127
1, 120530, Control_c, 0, 64, 127
1, 120867, Note_on_c, 0, 60, 0
1, 120867, Note_on_c, 0, 68, 0
1, 120867, Note_on_c, 0, 68, 37
1, 120870, Note_on_c, 0, 60, 37
1, 121372, Note_on_c, 0, 60, 0
1, 121372, Note_on_c, 0, 68, 0
1, 121372, Note_on_c, 0, 60, 37
1, 121375, Note_on_c, 0, 68, 37
1, 121906, Note_on_c, 0, 68, 0
1, 121906, Note_on_c, 0, 60, 0
1, 121906, Note_on_c, 0, 68, 40
1, 121909, Note_on_c, 0, 60, 40
1, 121909, Note_on_c, 0, 41, 40
1, 121909, Control_c, 0, 64, 0
1, 121990, Control_c, 0, 64, 127
1, 122145, Note_on_c, 0, 41, 0
1, 122145, Note_on_c, 0, 53, 26
1, 122387, Note_on_c, 0, 53, 0
1, 122387, Note_on_c, 0, 53, 28
1, 122632, Note_on_c, 0, 53, 0
1, 122632, Note_on_c, 0, 53, 26
1, 122875, Note_on_c, 0, 53, 0
1, 122875, Note_on_c, 0, 53, 24
1, 123118, Note_on_c, 0, 53, 0
1, 123118, Note_on_c, 0, 53, 22
1, 123358, Note_on_c, 0, 60, 0
1, 123358, Note_on_c, 0, 68, 0
1, 123358, Note_on_c, 0, 67, 37
1, 123361, Note_on_c, 0, 58, 37
1, 123361, Note_on_c, 0, 53, 0
1, 123361, Note_on_c, 0, 53, 25
1, 123377, Control_c, 0, 64, 0
1, 123500, Control_c, 0, 64, 127
1, 123601, Note_on_c, 0, 53, 0
1, 123601, Note_on_c, 0, 53, 22
1, 123841, Note_on_c, 0, 58, 0
1, 123841, Note_on_c, 0, 67, 0
1, 123841, Note_on_c, 0, 70, 37
1, 123844, Note_on_c, 0, 61, 37
1, 123844, Note_on_c, 0, 53, 0
1, 123844, Note_on_c, 0, 53, 29
1, 124085, Note_on_c, 0, 53, 0
1, 124085, Note_on_c, 0, 53, 25
1, 124325, Note_on_c, 0, 61, 0
1, 124325, Note_on_c, 0, 70, 0
1, 124325, Note_on_c, 0, 55, 37
1, 124328, Note_on_c, 0, 64, 37
1, 124328, Note_on_c, 0, 53, 0
1, 124328, Note_on_c, 0, 53, 27
1, 124338, Control_c, 0, 64, 0
1, 124431, Control_c, 0, 64, 127
1, 124584, Note_on_c, 0, 53, 0
1, 124584, Note_on_c, 0, 53, 25
1, 124842, Note_on_c, 0, 64, 0
1, 124842, Note_on_c, 0, 55, 0
1, 124842, Note_on_c, 0, 65, 42
1, 124845, Note_on_c, 0, 56, 42
1, 124845, Note_on_c, 0, 53, 0
1, 124845, Note_on_c, 0, 41, 34
1, 124848, Control_c, 0, 64, 0
1, 125082, Note_on_c, 0, 41, 0
1, 125082, Note_on_c, 0, 53, 24
1, 125096, Control_c, 0, 64, 127
1, 125327, Note_on_c, 0, 53, 0
1, 125327, Note_on_c, 0, 53, 26
1, 125569, Note_on_c, 0, 53, 0
1, 125569, Note_on_c, 0, 53, 23
1, 125810, Note_on_c, 0, 53, 0
1, 125810, Note_on_c, 0, 53, 25
1, 126041, Note_on_c, 0, 53, 0
1, 126041, Note_on_c, 0, 53, 22
1, 126275, Note_on_c, 0, 56, 0
1, 126275, Note_on_c, 0, 65, 0
1, 126275, Note_on_c, 0, 72, 42
1, 126278, Note_on_c, 0, 68, 42
1, 126278, Note_on_c, 0, 53, 0
1, 126278, Note_on_c, 0, 53, 25
1, 126303, Control_c, 0, 64, 0
1, 126429, Control_c, 0, 64, 127
1, 126514, Note_on_c, 0, 53, 0
1, 126514, Note_on_c, 0, 53, 22
1, 126752, Note_on_c, 0, 68, 0
1, 126752, Note_on_c, 0, 72, 0
1, 126752, Note_on_c, 0, 72, 44
1, 126755, Note_on_c, 0, 68, 44
1, 126755, Note_on_c, 0, 53, 0
1, 126755, Note_on_c, 0, 53, 28
1, 126997, Note_on_c, 0, 53, 0
1, 126997, Note_on_c, 0, 53, 25
1, 127240, Note_on_c, 0, 68, 0
1, 127240, Note_on_c, 0, 72, 0
1, 127240, Note_on_c, 0, 68, 40
1, 127243, Note_on_c, 0, 72, 40
1, 127243, Note_on_c, 0, 53, 0
1, 127243, Note_on_c, 0, 53, 28
1, 127510, Note_on_c, 0, 53, 0
1, 127510, Note_on_c, 0, 53, 27
1, 127781, Note_on_c, 0, 72, 0
1, 127781, Note_on_c, 0, 68, 0
1, 127781, Note_on_c, 0, 72, 50
1, 127784, Note_on_c, 0, 67, 50
1, 127784, Note_on_c, 0, 53, 0
1, 127784, Control_c, 0, 64, 0
1, 127787, Note_on_c, 0, 40, 33
1, 127956, Control_c, 0, 64, 127
1, 128020, Note_on_c, 0, 40, 0
1, 128020, Note_on_c, 0, 52, 29
1, 128261, Note_on_c, 0, 52, 0
1, 128261, Note_on_c, 0, 52, 27
1, 128504, Note_on_c, 0, 52, 0
1, 128504, Note_on_c, 0, 52, 24
1, 128749, Note_on_c, 0, 52, 0
1, 128749, Note_on_c, 0, 52, 29
1, 128983, Note_on_c, 0, 52, 0
1, 128983, Note_on_c, 0, 52, 23
1, 129215, Note_on_c, 0, 72, 0
1, 129215, Note_on_c, 0, 73, 51
1, 129215, Note_on_c, 0, 52, 0
1, 129218, Note_on_c, 0, 52, 25
1, 129221, Control_c, 0, 64, 0
1, 129321, Control_c, 0, 64, 127
1, 129456, Note_on_c, 0, 52, 0
1, 129456, Note_on_c, 0, 52, 22
1, 129697, Note_on_c, 0, 73, 0
1, 129697, Note_on_c, 0, 72, 50
1, 129697, Note_on_c, 0, 52, 0
1, 129700, Note_on_c, 0, 52, 29
1, 129707, Control_c, 0, 64, 0
1, 129763, Control_c, 0, 64, 127
1, 129942, Note_on_c, 0, 52, 0
1, 129942, Note_on_c, 0, 52, 27
1, 130187, Note_on_c, 0, 72, 0
1, 130187, Note_on_c, 0, 70, 48
1, 130187, Note_on_c, 0, 52, 0
1, 130190, Note_on_c, 0, 52, 29
1, 130429, Note_on_c, 0, 52, 0
1, 130429, Note_on_c, 0, 52, 26
1, 130558, Note_on_c, 0, 70, 0
1, 130558, Note_on_c, 0, 72, 46
1, 130684, Note_on_c, 0, 72, 0
1, 130684, Note_on_c, 0, 67, 0
1, 130684, Note_on_c, 0, 70, 53
1, 130687, Note_on_c, 0, 67, 53
1, 130687, Note_on_c, 0, 52, 0
1, 130687, Note_on_c, 0, 41, 29
1, 130690, Control_c, 0, 64, 0
1, 130852, Control_c, 0, 64, 127
1, 130922, Note_on_c, 0, 41, 0
1, 130922, Note_on_c, 0, 53, 28
1, 131169, Note_on_c, 0, 67, 0
1, 131169, Note_on_c, 0, 70, 0
1, 131169, Note_on_c, 0, 65, 44
1, 131172, Note_on_c, 0, 68, 44
1, 131172, Note_on_c, 0, 53, 0
1, 131172, Note_on_c, 0, 53, 29
1, 131183, Control_c, 0, 64, 0
1, 131296, Control_c, 0, 64, 127
1, 131410, Note_on_c, 0, 53, 0
1, 131410, Note_on_c, 0, 53, 26
1, 131652, Note_on_c, 0, 68, 0
1, 131652, Note_on_c, 0, 65, 0
1, 131652, Note_on_c, 0, 53, 0
1, 131655, Note_on_c, 0, 53, 32
1, 131783, Control_c, 0, 64, 0
1, 132133, Note_on_c, 0, 68, 53
1, 132611, Note_on_c, 0, 68, 0
1, 132611, Note_on_c, 0, 70, 58
1, 132611, Note_on_c, 0, 53, 0
1, 133089, Note_on_c, 0, 70, 0
1, 133089, Note_on_c, 0, 72, 53
1, 133567, Note_on_c, 0, 72, 0
1, 133567, Note_on_c, 0, 75, 61
1, 134050, Note_on_c, 0, 75, 0
1, 134050, Note_on_c, 0, 73, 57
1, 134050, Note_on_c, 0, 61, 33
1, 134053, Note_on_c, 0, 53, 33
1, 134053, Note_on_c, 0, 56, 33
1, 134149, Control_c, 0, 64, 127
1, 134533, Note_on_c, 0, 73, 0
1, 134533, Note_on_c, 0, 56, 0
1, 134533, Note_on_c, 0, 53, 0
1, 134536, Note_on_c, 0, 61, 0
1, 134536, Note_on_c, 0, 61, 36
1, 134536, Note_on_c, 0, 53, 36
1, 134539, Note_on_c, 0, 56, 36
1, 134956, Note_on_c, 0, 72, 60
1, 134966, Control_c, 0, 64, 0
1, 135016, Note_on_c, 0, 72, 0
1, 135016, Note_on_c, 0, 73, 74
1, 135016, Note_on_c, 0, 56, 0
1, 135019, Note_on_c, 0, 53, 0
1, 135019, Note_on_c, 0, 61, 0
1, 135019, Note_on_c, 0, 61, 40
1, 135022, Note_on_c, 0, 53, 40
1, 135022, Note_on_c, 0, 56, 40
1, 135108, Control_c, 0, 64, 127
1, 135436, Note_on_c, 0, 73, 0
1, 135436, Note_on_c, 0, 72, 64
1, 135446, Control_c, 0, 64, 0
1, 135497, Note_on_c, 0, 72, 0
1, 135497, Note_on_c, 0, 73, 80
1, 135497, Note_on_c, 0, 56, 0
1, 135500, Note_on_c, 0, 53, 0
1, 135500, Note_on_c, 0, 61, 0
1, 135500, Note_on_c, 0, 56, 46
1, 135503, Note_on_c, 0, 53, 46
1, 135503, Note_on_c, 0, 61, 46
1, 135582, Control_c, 0, 64, 127
1, 135935, Note_on_c, 0, 73, 0
1, 135935, Note_on_c, 0, 72, 68
1, 135969, Control_c, 0, 64, 0
1, 135999, Note_on_c, 0, 72, 0
1, 135999, Note_on_c, 0, 73, 89
1, 135999, Note_on_c, 0, 61, 0
1, 136002, Note_on_c, 0, 53, 0
1, 136002, Note_on_c, 0, 56, 0
1, 136002, Note_on_c, 0, 61, 49
1, 136005, Note_on_c, 0, 53, 49
1, 136005, Note_on_c, 0, 56, 49
1, 136079, Control_c, 0, 64, 127
1, 136547, Note_on_c, 0, 73, 0
1, 136547, Note_on_c, 0, 73, 90
1, 136547, Note_on_c, 0, 56, 0
1, 136550, Note_on_c, 0, 53, 0
1, 136550, Note_on_c, 0, 61, 0
1, 136550, Control_c, 0, 64, 0
1, 136553, Note_on_c, 0, 61, 49
1, 136553, Note_on_c, 0, 63, 58
1, 136553, Note_on_c, 0, 55, 49
1, 136556, Note_on_c, 0, 58, 49
1, 136660, Control_c, 0, 64, 127
1, 136797, Note_on_c, 0, 73, 0
1, 136797, Note_on_c, 0, 75, 64
1, 136871, Note_on_c, 0, 75, 0
1, 136871, Note_on_c, 0, 73, 57
1, 136944, Note_on_c, 0, 73, 0
1, 136944, Note_on_c, 0, 72, 64
1, 137019, Note_on_c, 0, 72, 0
1, 137019, Note_on_c, 0, 73, 64
1, 137258, Note_on_c, 0, 73, 0
1, 137258, Note_on_c, 0, 75, 56
1, 137525, Note_on_c, 0, 75, 0
1, 137525, Note_on_c, 0, 77, 47
1, 137554, Control_c, 0, 64, 0
1, 137674, Control_c, 0, 64, 127
1, 138513, Note_on_c, 0, 58, 0
1, 138513, Note_on_c, 0, 61, 0
1, 138513, Note_on_c, 0, 63, 0
1, 138516, Note_on_c, 0, 55, 0
1, 138811, Control_c, 0, 64, 0
1, 139007, Note_on_c, 0, 77, 0
1, 139007, Note_on_c, 0, 75, 47
1, 139253, Note_on_c, 0, 75, 0
1, 139253, Note_on_c, 0, 73, 47
1, 139500, Note_on_c, 0, 73, 0
1, 139500, Note_on_c, 0, 72, 51
1, 139500, Note_on_c, 0, 56, 34
1, 139558, Control_c, 0, 64, 127
1, 139747, Note_on_c, 0, 72, 0
1, 139747, Note_on_c, 0, 75, 47
1, 139994, Note_on_c, 0, 75, 0
1, 139994, Note_on_c, 0, 73, 47
1, 139994, Note_on_c, 0, 56, 0
1, 139997, Note_on_c, 0, 58, 30
1, 139997, Note_on_c, 0, 49, 30
1, 140010, Control_c, 0, 64, 0
1, 140084, Control_c, 0, 64, 127
1, 140241, Note_on_c, 0, 73, 0
1, 140241, Note_on_c, 0, 70, 47
1, 140488, Note_on_c, 0, 70, 0
1, 140488, Note_on_c, 0, 68, 53
1, 140488, Note_on_c, 0, 49, 0
1, 140491, Note_on_c, 0, 58, 0
1, 140491, Note_on_c, 0, 51, 34
1, 140491, Note_on_c, 0, 60, 34
1, 140512, Control_c, 0, 64, 0
1, 140763, Control_c, 0, 64, 127
1, 141475, Note_on_c, 0, 60, 0
1, 141475, Note_on_c, 0, 61, 24
1, 141506, Control_c, 0, 64, 0
1, 141722, Control_c, 0, 64, 127
1, 141969, Note_on_c, 0, 68, 0
1, 141969, Note_on_c, 0, 67, 43
1, 141969, Note_on_c, 0, 72, 43
1, 142218, Note_on_c, 0, 72, 0
1, 142218, Note_on_c, 0, 70, 43
1, 142468, Note_on_c, 0, 70, 0
1, 142468, Note_on_c, 0, 67, 0
1, 142468, Note_on_c, 0, 68, 47
1, 142471, Note_on_c, 0, 61, 0
1, 142471, Note_on_c, 0, 51, 0
1, 142471, Note_on_c, 0, 56, 29
1, 142474, Control_c, 0, 64, 0
1, 142474, Note_on_c, 0, 60, 34
1, 142616, Control_c, 0, 64, 127
1, 143466, Note_on_c, 0, 68, 0
1, 143466, Note_on_c, 0, 60, 0
1, 143466, Note_on_c, 0, 56, 0
1, 143469, Note_on_c, 0, 44, 27
1, 143530, Control_c, 0, 64, 0
1, 144014, Control_c, 0, 91, 127
1, 144014, Note_on_c, 0, 60, 37
1, 144014, Note_on_c, 0, 68, 37
1, 144017, Note_on_c, 0, 44, 0
1, 144017, Control_c, 0, 91, 127
1, 144183, Control_c, 0, 64, 127
1, 144519, Note_on_c, 0, 68, 0
1, 144519, Note_on_c, 0, 60, 0
1, 144519, Note_on_c, 0, 60, 37
1, 144522, Note_on_c, 0, 68, 37
1, 145024, Note_on_c, 0, 68, 0
1, 145024, Note_on_c, 0, 60, 0
1, 145024, Note_on_c, 0, 60, 37
1, 145027, Note_on_c, 0, 68, 37
1, 145549, Note_on_c, 0, 68, 0
1, 145549, Note_on_c, 0, 60, 0
1, 145549, Note_on_c, 0, 60, 40
1, 145552, Note_on_c, 0, 68, 40
1, 145552, Control_c, 0, 64, 0
1, 145552, Note_on_c, 0, 41, 40
1, 145633, Control_c, 0, 64, 127
1, 145788, Note_on_c, 0, 41, 0
1, 145788, Note_on_c, 0, 53, 26
1, 146030, Note_on_c, 0, 53, 0
1, 146030, Note_on_c, 0, 53, 29
1, 146275, Note_on_c, 0, 53, 0
1, 146275, Note_on_c, 0, 53, 26
1, 146518, Note_on_c, 0, 53, 0
1, 146518, Note_on_c, 0, 53, 27
1, 146760, Note_on_c, 0, 53, 0
1, 146760, Note_on_c, 0, 53, 23
1, 147000, Note_on_c, 0, 68, 0
1, 147000, Note_on_c, 0, 60, 0
1, 147000, Note_on_c, 0, 58, 37
1, 147003, Note_on_c, 0, 67, 37
1, 147003, Note_on_c, 0, 53, 0
1, 147003, Note_on_c, 0, 53, 26
1, 147024, Control_c, 0, 64, 0
1, 147139, Control_c, 0, 64, 127
1, 147234, Note_on_c, 0, 53, 0
1, 147234, Note_on_c, 0, 53, 23
1, 147474, Note_on_c, 0, 67, 0
1, 147474, Note_on_c, 0, 58, 0
1, 147474, Note_on_c, 0, 61, 37
1, 147477, Note_on_c, 0, 70, 37
1, 147477, Note_on_c, 0, 53, 0
1, 147477, Note_on_c, 0, 53, 29
1, 147718, Note_on_c, 0, 53, 0
1, 147718, Note_on_c, 0, 53, 25
1, 147959, Note_on_c, 0, 70, 0
1, 147959, Note_on_c, 0, 61, 0
1, 147959, Note_on_c, 0, 55, 37
1, 147962, Note_on_c, 0, 64, 37
1, 147962, Note_on_c, 0, 53, 0
1, 147962, Note_on_c, 0, 53, 27
1, 147974, Control_c, 0, 64, 0
1, 148140, Control_c, 0, 64, 127
1, 148217, Note_on_c, 0, 53, 0
1, 148217, Note_on_c, 0, 53, 26
1, 148475, Note_on_c, 0, 64, 0
1, 148475, Note_on_c, 0, 55, 0
1, 148475, Note_on_c, 0, 56, 42
1, 148478, Note_on_c, 0, 65, 42
1, 148478, Note_on_c, 0, 53, 0
1, 148478, Note_on_c, 0, 41, 34
1, 148517, Control_c, 0, 64, 0
1, 148716, Note_on_c, 0, 41, 0
1, 148716, Note_on_c, 0, 53, 26
1, 148730, Control_c, 0, 64, 127
1, 148960, Note_on_c, 0, 53, 0
1, 148960, Note_on_c, 0, 53, 27
1, 149204, Note_on_c, 0, 53, 0
1, 149204, Note_on_c, 0, 53, 23
1, 149445, Note_on_c, 0, 53, 0
1, 149445, Note_on_c, 0, 53, 26
1, 149677, Note_on_c, 0, 53, 0
1, 149677, Note_on_c, 0, 53, 23
1, 149908, Note_on_c, 0, 65, 0
1, 149908, Note_on_c, 0, 56, 0
1, 149908, Note_on_c, 0, 68, 42
1, 149911, Note_on_c, 0, 72, 42
1, 149911, Note_on_c, 0, 53, 0
1, 149911, Note_on_c, 0, 53, 25
1, 149934, Control_c, 0, 64, 0
1, 150105, Control_c, 0, 64, 127
1, 150147, Note_on_c, 0, 53, 0
1, 150147, Note_on_c, 0, 53, 23
1, 150385, Note_on_c, 0, 72, 0
1, 150385, Note_on_c, 0, 68, 0
1, 150385, Note_on_c, 0, 68, 44
1, 150388, Note_on_c, 0, 72, 44
1, 150388, Note_on_c, 0, 53, 0
1, 150388, Note_on_c, 0, 53, 28
1, 150629, Note_on_c, 0, 53, 0
1, 150629, Note_on_c, 0, 53, 26
1, 150872, Note_on_c, 0, 72, 0
1, 150872, Note_on_c, 0, 68, 0
1, 150872, Note_on_c, 0, 68, 40
1, 150875, Note_on_c, 0, 72, 40
1, 150875, Note_on_c, 0, 53, 0
1, 150875, Note_on_c, 0, 53, 28
1, 151143, Note_on_c, 0, 53, 0
1, 151143, Note_on_c, 0, 53, 26
1, 151413, Note_on_c, 0, 72, 0
1, 151413, Note_on_c, 0, 68, 0
1, 151413, Note_on_c, 0, 72, 50
1, 151416, Note_on_c, 0, 67, 50
1, 151416, Note_on_c, 0, 53, 0
1, 151416, Control_c, 0, 64, 0
1, 151419, Note_on_c, 0, 40, 33
1, 151588, Control_c, 0, 64, 127
1, 151652, Note_on_c, 0, 40, 0
1, 151652, Note_on_c, 0, 52, 29
1, 151894, Note_on_c, 0, 52, 0
1, 151894, Note_on_c, 0, 52, 27
1, 152138, Note_on_c, 0, 52, 0
1, 152138, Note_on_c, 0, 52, 27
1, 152380, Note_on_c, 0, 52, 0
1, 152380, Note_on_c, 0, 52, 28
1, 152614, Note_on_c, 0, 52, 0
1, 152614, Note_on_c, 0, 52, 23
1, 152846, Note_on_c, 0, 72, 0
1, 152846, Note_on_c, 0, 73, 51
1, 152846, Note_on_c, 0, 52, 0
1, 152849, Note_on_c, 0, 52, 26
1, 152852, Control_c, 0, 64, 0
1, 152972, Control_c, 0, 64, 127
1, 153087, Note_on_c, 0, 52, 0
1, 153087, Note_on_c, 0, 52, 24
1, 153328, Note_on_c, 0, 73, 0
1, 153328, Note_on_c, 0, 72, 50
1, 153328, Note_on_c, 0, 52, 0
1, 153331, Control_c, 0, 64, 0
1, 153331, Note_on_c, 0, 52, 29
1, 153393, Control_c, 0, 64, 127
1, 153573, Note_on_c, 0, 52, 0
1, 153573, Note_on_c, 0, 52, 27
1, 153818, Note_on_c, 0, 72, 0
1, 153818, Note_on_c, 0, 70, 48
1, 153818, Note_on_c, 0, 52, 0
1, 153821, Note_on_c, 0, 52, 29
1, 154059, Note_on_c, 0, 52, 0
1, 154059, Note_on_c, 0, 52, 26
1, 154188, Note_on_c, 0, 70, 0
1, 154188, Note_on_c, 0, 72, 46
1, 154315, Note_on_c, 0, 72, 0
1, 154315, Note_on_c, 0, 67, 0
1, 154315, Note_on_c, 0, 67, 53
1, 154318, Note_on_c, 0, 70, 53
1, 154318, Note_on_c, 0, 52, 0
1, 154318, Control_c, 0, 64, 0
1, 154321, Note_on_c, 0, 41, 29
1, 154455, Control_c, 0, 64, 127
1, 154552, Note_on_c, 0, 41, 0
1, 154552, Note_on_c, 0, 53, 27
1, 154799, Note_on_c, 0, 70, 0
1, 154799, Note_on_c, 0, 67, 0
1, 154799, Note_on_c, 0, 65, 44
1, 154802, Note_on_c, 0, 68, 44
1, 154802, Note_on_c, 0, 53, 0
1, 154802, Note_on_c, 0, 53, 29
1, 154813, Control_c, 0, 64, 0
1, 154927, Control_c, 0, 64, 127
1, 155040, Note_on_c, 0, 53, 0
1, 155040, Note_on_c, 0, 53, 28
1, 155283, Note_on_c, 0, 68, 0
1, 155283, Note_on_c, 0, 65, 0
1, 155283, Note_on_c, 0, 53, 0
1, 155286, Note_on_c, 0, 53, 33
1, 155413, Control_c, 0, 64, 0
1, 155764, Note_on_c, 0, 68, 53
1, 156242, Note_on_c, 0, 68, 0
1, 156242, Note_on_c, 0, 70, 58
1, 156242, Note_on_c, 0, 53, 0
1, 156720, Note_on_c, 0, 70, 0
1, 156720, Note_on_c, 0, 72, 53
1, 157198, Note_on_c, 0, 72, 0
1, 157198, Note_on_c, 0, 75, 61
1, 157681, Note_on_c, 0, 75, 0
1, 157681, Note_on_c, 0, 73, 57
1, 157681, Note_on_c, 0, 61, 33
1, 157684, Note_on_c, 0, 56, 33
1, 157684, Note_on_c, 0, 53, 33
1, 157780, Control_c, 0, 64, 127
1, 158164, Note_on_c, 0, 73, 0
1, 158164, Note_on_c, 0, 53, 0
1, 158164, Note_on_c, 0, 56, 0
1, 158167, Note_on_c, 0, 61, 0
1, 158167, Note_on_c, 0, 61, 36
1, 158167, Note_on_c, 0, 56, 36
1, 158170, Note_on_c, 0, 53, 36
1, 158548, Control_c, 0, 64, 0
1, 158587, Note_on_c, 0, 72, 57
1, 158647, Note_on_c, 0, 72, 0
1, 158647, Note_on_c, 0, 73, 72
1, 158647, Note_on_c, 0, 53, 0
1, 158650, Note_on_c, 0, 56, 0
1, 158650, Note_on_c, 0, 61, 0
1, 158650, Note_on_c, 0, 61, 40
1, 158653, Note_on_c, 0, 56, 40
1, 158653, Note_on_c, 0, 53, 40
1, 158739, Control_c, 0, 64, 127
1, 159066, Note_on_c, 0, 73, 0
1, 159066, Note_on_c, 0, 72, 63
1, 159084, Control_c, 0, 64, 0
1, 159126, Note_on_c, 0, 72, 0
1, 159126, Note_on_c, 0, 73, 78
1, 159126, Note_on_c, 0, 53, 0
1, 159129, Note_on_c, 0, 56, 0
1, 159129, Note_on_c, 0, 61, 0
1, 159129, Note_on_c, 0, 61, 46
1, 159132, Note_on_c, 0, 56, 46
1, 159132, Note_on_c, 0, 53, 46
1, 159211, Control_c, 0, 64, 127
1, 159566, Note_on_c, 0, 73, 0
1, 159566, Note_on_c, 0, 72, 69
1, 159601, Control_c, 0, 64, 0
1, 159632, Note_on_c, 0, 72, 0
1, 159632, Note_on_c, 0, 73, 86
1, 159632, Note_on_c, 0, 53, 0
1, 159635, Note_on_c, 0, 56, 0
1, 159635, Note_on_c, 0, 61, 0
1, 159635, Note_on_c, 0, 61, 49
1, 159638, Note_on_c, 0, 56, 49
1, 159638, Note_on_c, 0, 53, 49
1, 159712, Control_c, 0, 64, 127
1, 160180, Note_on_c, 0, 73, 0
1, 160180, Note_on_c, 0, 73, 95
1, 160180, Note_on_c, 0, 53, 0
1, 160183, Note_on_c, 0, 56, 0
1, 160183, Note_on_c, 0, 61, 0
1, 160183, Note_on_c, 0, 63, 57
1, 160186, Note_on_c, 0, 61, 48
1, 160186, Note_on_c, 0, 58, 48
1, 160186, Note_on_c, 0, 55, 48
1, 160207, Control_c, 0, 64, 0
1, 160294, Control_c, 0, 64, 127
1, 160432, Note_on_c, 0, 73, 0
1, 160432, Note_on_c, 0, 75, 60
1, 160507, Note_on_c, 0, 75, 0
1, 160507, Note_on_c, 0, 73, 56
1, 160579, Note_on_c, 0, 73, 0
1, 160579, Note_on_c, 0, 72, 60
1, 160654, Note_on_c, 0, 72, 0
1, 160654, Note_on_c, 0, 73, 61
1, 160886, Note_on_c, 0, 73, 0
1, 160886, Note_on_c, 0, 75, 53
1, 161153, Note_on_c, 0, 75, 0
1, 161153, Note_on_c, 0, 77, 47
1, 161182, Control_c, 0, 64, 0
1, 161283, Control_c, 0, 64, 127
1, 162141, Note_on_c, 0, 55, 0
1, 162141, Note_on_c, 0, 63, 0
1, 162141, Note_on_c, 0, 61, 0
1, 162144, Note_on_c, 0, 58, 0
1, 162439, Control_c, 0, 64, 0
1, 162634, Note_on_c, 0, 77, 0
1, 162634, Note_on_c, 0, 75, 47
1, 162881, Note_on_c, 0, 75, 0
1, 162881, Note_on_c, 0, 73, 44
1, 163128, Note_on_c, 0, 73, 0
1, 163128, Note_on_c, 0, 72, 51
1, 163128, Note_on_c, 0, 56, 34
1, 163186, Control_c, 0, 64, 127
1, 163375, Note_on_c, 0, 72, 0
1, 163375, Note_on_c, 0, 75, 44
1, 163593, Control_c, 0, 64, 0
1, 163622, Note_on_c, 0, 75, 0
1, 163622, Note_on_c, 0, 73, 47
1, 163622, Note_on_c, 0, 56, 0
1, 163625, Note_on_c, 0, 49, 30
1, 163625, Note_on_c, 0, 58, 30
1, 163679, Control_c, 0, 64, 127
1, 163869, Note_on_c, 0, 73, 0
1, 163869, Note_on_c, 0, 70, 46
1, 164115, Note_on_c, 0, 70, 0
1, 164115, Note_on_c, 0, 68, 53
1, 164115, Note_on_c, 0, 58, 0
1, 164118, Note_on_c, 0, 49, 0
1, 164118, Note_on_c, 0, 51, 34
1, 164118, Note_on_c, 0, 60, 34
1, 164140, Control_c, 0, 64, 0
1, 164362, Control_c, 0, 64, 127
1, 165103, Note_on_c, 0, 60, 0
1, 165103, Note_on_c, 0, 61, 23
1, 165123, Control_c, 0, 64, 0
1, 165218, Control_c, 0, 64, 127
1, 165597, Note_on_c, 0, 68, 0
1, 165597, Note_on_c, 0, 67, 43
1, 165597, Note_on_c, 0, 72, 43
1, 165846, Note_on_c, 0, 72, 0
1, 165846, Note_on_c, 0, 70, 43
1, 166096, Note_on_c, 0, 70, 0
1, 166096, Note_on_c, 0, 67, 0
1, 166096, Note_on_c, 0, 68, 47
1, 166099, Note_on_c, 0, 61, 0
1, 166099, Note_on_c, 0, 51, 0
1, 166099, Note_on_c, 0, 56, 29
1, 166102, Note_on_c, 0, 60, 34
1, 166117, Control_c, 0, 64, 0
1, 166254, Control_c, 0, 64, 127
1, 167094, Note_on_c, 0, 68, 0
1, 167094, Note_on_c, 0, 60, 0
1, 167094, Note_on_c, 0, 56, 0
1, 167097, Note_on_c, 0, 44, 30
1, 167150, Control_c, 0, 64, 0
1, 167572, Control_c, 0, 91, 127
1, 167572, Note_on_c, 0, 63, 53
1, 167572, Note_on_c, 0, 44, 0
1, 167575, Control_c, 0, 91, 127
1, 168035, Note_on_c, 0, 63, 0
1, 168035, Note_on_c, 0, 68, 53
1, 168485, Note_on_c, 0, 68, 0
1, 168485, Note_on_c, 0, 72, 51
1, 168938, Note_on_c, 0, 72, 0
1, 168938, Note_on_c, 0, 75, 58
1, 169379, Note_on_c, 0, 56, 43
1, 169811, Note_on_c, 0, 56, 0
1, 169811, Note_on_c, 0, 60, 45
1, 170235, Note_on_c, 0, 75, 0
1, 170235, Note_on_c, 0, 73, 50
1, 170235, Note_on_c, 0, 60, 0
1, 170238, Note_on_c, 0, 63, 45
1, 170466, Note_on_c, 0, 73, 0
1, 170466, Note_on_c, 0, 72, 47
1, 170698, Note_on_c, 0, 72, 0
1, 170698, Note_on_c, 0, 70, 50
1, 170698, Note_on_c, 0, 63, 0
1, 170701, Note_on_c, 0, 53, 47
1, 171143, Note_on_c, 0, 70, 0
1, 171143, Note_on_c, 0, 68, 47
1, 171143, Note_on_c, 0, 53, 0
1, 171146, Note_on_c, 0, 62, 43
1, 171505, Note_on_c, 0, 68, 0
1, 171626, Note_on_c, 0, 72, 53
1, 171626, Note_on_c, 0, 62, 0
1, 172080, Note_on_c, 0, 51, 40
1, 172533, Note_on_c, 0, 72, 0
1, 172533, Note_on_c, 0, 70, 49
1, 172533, Note_on_c, 0, 51, 0
1, 172536, Note_on_c, 0, 55, 40
1, 172961, Note_on_c, 0, 70, 0
1, 172961, Note_on_c, 0, 60, 67
1, 172961, Note_on_c, 0, 55, 0
1, 172964, Note_on_c, 0, 58, 58
1, 172964, Note_on_c, 0, 52, 58
1, 173398, Note_on_c, 0, 60, 0
1, 173398, Note_on_c, 0, 65, 69
1, 173398, Note_on_c, 0, 52, 0
1, 173401, Note_on_c, 0, 58, 0
1, 173401, Note_on_c, 0, 56, 58
1, 173401, Note_on_c, 0, 53, 58
1, 173830, Note_on_c, 0, 65, 0
1, 173830, Note_on_c, 0, 68, 67
1, 174274, Note_on_c, 0, 68, 0
1, 174274, Note_on_c, 0, 72, 71
1, 174274, Note_on_c, 0, 53, 0
1, 174277, Note_on_c, 0, 56, 0
1, 174698, Note_on_c, 0, 49, 54
1, 175126, Note_on_c, 0, 53, 52
1, 175568, Note_on_c, 0, 72, 0
1, 175568, Note_on_c, 0, 70, 53
1, 175568, Note_on_c, 0, 53, 0
1, 175571, Note_on_c, 0, 56, 45
1, 175786, Note_on_c, 0, 70, 0
1, 175786, Note_on_c, 0, 68, 50
1, 176004, Note_on_c, 0, 68, 0
1, 176004, Note_on_c, 0, 67, 53
1, 176004, Note_on_c, 0, 56, 0
1, 176007, Note_on_c, 0, 58, 45
1, 176440, Note_on_c, 0, 67, 0
1, 176440, Note_on_c, 0, 65, 44
1, 176440, Note_on_c, 0, 58, 0
1, 176443, Note_on_c, 0, 59, 42
1, 176806, Note_on_c, 0, 65, 0
1, 176928, Note_on_c, 0, 65, 49
1, 176928, Note_on_c, 0, 68, 49
1, 176928, Note_on_c, 0, 59, 0
1, 176931, Note_on_c, 0, 49, 0
1, 176931, Note_on_c, 0, 48, 37
1, 176931, Note_on_c, 0, 60, 37
1, 177151, Control_c, 0, 64, 127
1, 177864, Note_on_c, 0, 68, 0
1, 177864, Note_on_c, 0, 65, 0
1, 177864, Note_on_c, 0, 67, 46
1, 177867, Note_on_c, 0, 64, 46
1, 177875, Control_c, 0, 64, 0
1, 178027, Control_c, 0, 64, 127
1, 178292, Note_on_c, 0, 64, 0
1, 178292, Note_on_c, 0, 67, 0
1, 178292, Note_on_c, 0, 72, 60
1, 178295, Note_on_c, 0, 60, 0
1, 178295, Note_on_c, 0, 48, 0
1, 178394, Control_c, 0, 64, 0
1, 178720, Note_on_c, 0, 72, 0
1, 178720, Note_on_c, 0, 77, 60
1, 179144, Note_on_c, 0, 77, 0
1, 179144, Note_on_c, 0, 80, 59
1, 179144, Note_on_c, 0, 44, 49
1, 179568, Note_on_c, 0, 80, 0
1, 179568, Note_on_c, 0, 79, 66
1, 179568, Note_on_c, 0, 44, 0
1, 179571, Note_on_c, 0, 46, 53
1, 179992, Note_on_c, 0, 79, 0
1, 179992, Note_on_c, 0, 77, 65
1, 179992, Note_on_c, 0, 46, 0
1, 179995, Note_on_c, 0, 58, 51
1, 180396, Note_on_c, 0, 77, 0
1, 180396, Note_on_c, 0, 58, 0
1, 180396, Note_on_c, 0, 59, 53
1, 180818, Note_on_c, 0, 72, 66
1, 180818, Note_on_c, 0, 59, 0
1, 180818, Note_on_c, 0, 60, 51
1, 181242, Note_on_c, 0, 72, 0
1, 181242, Note_on_c, 0, 77, 68
1, 181242, Note_on_c, 0, 60, 0
1, 181658, Note_on_c, 0, 77, 0
1, 181658, Note_on_c, 0, 80, 66
1, 181658, Note_on_c, 0, 48, 56
1, 182074, Note_on_c, 0, 80, 0
1, 182074, Note_on_c, 0, 79, 72
1, 182074, Note_on_c, 0, 48, 0
1, 182077, Note_on_c, 0, 49, 58
1, 182502, Note_on_c, 0, 79, 0
1, 182502, Note_on_c, 0, 77, 69
1, 182502, Note_on_c, 0, 49, 0
1, 182505, Note_on_c, 0, 61, 58
1, 182930, Note_on_c, 0, 77, 0
1, 182930, Note_on_c, 0, 61, 0
1, 182930, Note_on_c, 0, 63, 65
1, 183349, Note_on_c, 0, 69, 61
1, 183349, Note_on_c, 0, 75, 72
1, 183349, Note_on_c, 0, 77, 72
1, 183352, Note_on_c, 0, 72, 61
1, 183352, Note_on_c, 0, 63, 0
1, 183352, Note_on_c, 0, 60, 61
1, 183355, Note_on_c, 0, 48, 51
1, 183443, Control_c, 0, 64, 127
1, 183799, Note_on_c, 0, 72, 0
1, 183799, Note_on_c, 0, 69, 0
1, 183799, Note_on_c, 0, 75, 0
1, 183802, Note_on_c, 0, 77, 0
1, 183802, Note_on_c, 0, 75, 73
1, 183802, Note_on_c, 0, 69, 61
1, 183805, Note_on_c, 0, 72, 61
1, 183805, Note_on_c, 0, 77, 73
1, 183805, Note_on_c, 0, 48, 0
1, 183808, Note_on_c, 0, 60, 0
1, 183808, Note_on_c, 0, 45, 50
1, 183808, Note_on_c, 0, 57, 59
1, 184257, Note_on_c, 0, 77, 0
1, 184257, Note_on_c, 0, 75, 0
1, 184257, Note_on_c, 0, 69, 0
1, 184260, Note_on_c, 0, 72, 0
1, 184260, Note_on_c, 0, 75, 72
1, 184260, Note_on_c, 0, 69, 60
1, 184263, Note_on_c, 0, 72, 60
1, 184263, Note_on_c, 0, 77, 72
1, 184263, Note_on_c, 0, 57, 0
1, 184266, Note_on_c, 0, 45, 0
1, 184266, Note_on_c, 0, 41, 50
1, 184266, Note_on_c, 0, 53, 59
1, 184729, Note_on_c, 0, 77, 0
1, 184729, Note_on_c, 0, 75, 0
1, 184729, Note_on_c, 0, 69, 0
1, 184732, Note_on_c, 0, 72, 0
1, 184732, Note_on_c, 0, 77, 63
1, 184732, Note_on_c, 0, 73, 63
1, 184735, Note_on_c, 0, 53, 0
1, 184735, Note_on_c, 0, 41, 0
1, 184735, Control_c, 0, 64, 0
1, 184738, Note_on_c, 0, 58, 46
1, 184738, Note_on_c, 0, 46, 46
1, 184796, Control_c, 0, 64, 127
1, 184958, Note_on_c, 0, 73, 0
1, 184958, Note_on_c, 0, 77, 0
1, 184958, Note_on_c, 0, 73, 55
1, 184961, Note_on_c, 0, 70, 55
1, 185199, Note_on_c, 0, 70, 0
1, 185199, Note_on_c, 0, 73, 0
1, 185199, Note_on_c, 0, 70, 53
1, 185202, Note_on_c, 0, 73, 53
1, 185431, Note_on_c, 0, 73, 0
1, 185431, Note_on_c, 0, 70, 0
1, 185431, Note_on_c, 0, 70, 48
1, 185434, Note_on_c, 0, 67, 48
1, 185672, Note_on_c, 0, 67, 0
1, 185672, Note_on_c, 0, 70, 0
1, 185672, Note_on_c, 0, 65, 46
1, 185675, Note_on_c, 0, 68, 46
1, 185675, Note_on_c, 0, 46, 0
1, 185675, Note_on_c, 0, 58, 0
1, 185678, Note_on_c, 0, 60, 37
1, 185678, Note_on_c, 0, 48, 37
1, 185678, Control_c, 0, 64, 0
1, 185743, Control_c, 0, 64, 127
1, 186518, Note_on_c, 0, 68, 0
1, 186518, Note_on_c, 0, 65, 0
1, 186518, Note_on_c, 0, 68, 46
1, 186638, Note_on_c, 0, 68, 0
1, 186638, Note_on_c, 0, 67, 49
1, 186638, Note_on_c, 0, 64, 49
1, 186641, Note_on_c, 0, 48, 0
1, 186641, Note_on_c, 0, 60, 0
1, 186641, Note_on_c, 0, 48, 37
1, 186644, Note_on_c, 0, 58, 37
1, 186650, Control_c, 0, 64, 0
1, 186835, Control_c, 0, 64, 127
1, 187109, Note_on_c, 0, 64, 0
1, 187109, Note_on_c, 0, 67, 0
1, 187109, Note_on_c, 0, 65, 46
1, 187353, Note_on_c, 0, 65, 0
1, 187353, Note_on_c, 0, 67, 43
1, 187608, Note_on_c, 0, 67, 0
1, 187608, Note_on_c, 0, 65, 49
1, 187608, Note_on_c, 0, 58, 0
1, 187611, Note_on_c, 0, 48, 0
1, 187611, Control_c, 0, 64, 0
1, 187611, Note_on_c, 0, 56, 37
1, 187614, Note_on_c, 0, 53, 37
1, 188119, Control_c, 0, 64, 127
1, 188630, Note_on_c, 0, 65, 0
1, 188630, Note_on_c, 0, 53, 0
1, 188630, Note_on_c, 0, 56, 0
1, 188633, Note_on_c, 0, 41, 30
1, 188916, Control_c, 0, 64, 0
1, 189118, Control_c, 0, 91, 127
1, 189118, Note_on_c, 0, 63, 53
1, 189118, Note_on_c, 0, 41, 0
1, 189121, Control_c, 0, 91, 127
1, 189576, Note_on_c, 0, 63, 0
1, 189576, Note_on_c, 0, 68, 53
1, 190013, Note_on_c, 0, 68, 0
1, 190013, Note_on_c, 0, 72, 51
1, 190462, Note_on_c, 0, 72, 0
1, 190462, Note_on_c, 0, 75, 58
1, 190890, Note_on_c, 0, 56, 45
1, 191322, Note_on_c, 0, 56, 0
1, 191322, Note_on_c, 0, 60, 48
1, 191746, Note_on_c, 0, 75, 0
1, 191746, Note_on_c, 0, 73, 50
1, 191746, Note_on_c, 0, 60, 0
1, 191749, Note_on_c, 0, 63, 45
1, 191977, Note_on_c, 0, 73, 0
1, 191977, Note_on_c, 0, 72, 47
1, 192209, Note_on_c, 0, 72, 0
1, 192209, Note_on_c, 0, 70, 50
1, 192209, Note_on_c, 0, 63, 0
1, 192212, Note_on_c, 0, 53, 49
1, 192654, Note_on_c, 0, 70, 0
1, 192654, Note_on_c, 0, 68, 47
1, 192654, Note_on_c, 0, 53, 0
1, 192657, Note_on_c, 0, 62, 43
1, 193016, Note_on_c, 0, 68, 0
1, 193137, Note_on_c, 0, 72, 53
1, 193137, Note_on_c, 0, 62, 0
1, 193590, Note_on_c, 0, 51, 40
1, 194044, Note_on_c, 0, 72, 0
1, 194044, Note_on_c, 0, 70, 49
1, 194044, Note_on_c, 0, 51, 0
1, 194047, Note_on_c, 0, 55, 40
1, 194472, Note_on_c, 0, 70, 0
1, 194472, Note_on_c, 0, 60, 67
1, 194472, Note_on_c, 0, 55, 0
1, 194475, Note_on_c, 0, 52, 58
1, 194475, Note_on_c, 0, 58, 58
1, 194908, Note_on_c, 0, 60, 0
1, 194908, Note_on_c, 0, 65, 69
1, 194908, Note_on_c, 0, 58, 0
1, 194911, Note_on_c, 0, 52, 0
1, 194911, Note_on_c, 0, 53, 58
1, 194911, Note_on_c, 0, 56, 58
1, 195340, Note_on_c, 0, 65, 0
1, 195340, Note_on_c, 0, 68, 67
1, 195785, Note_on_c, 0, 68, 0
1, 195785, Note_on_c, 0, 72, 71
1, 195785, Note_on_c, 0, 56, 0
1, 195788, Note_on_c, 0, 53, 0
1, 196209, Note_on_c, 0, 49, 54
1, 196637, Note_on_c, 0, 53, 52
1, 197078, Note_on_c, 0, 72, 0
1, 197078, Note_on_c, 0, 70, 53
1, 197078, Note_on_c, 0, 53, 0
1, 197081, Note_on_c, 0, 56, 45
1, 197297, Note_on_c, 0, 70, 0
1, 197297, Note_on_c, 0, 68, 50
1, 197515, Note_on_c, 0, 68, 0
1, 197515, Note_on_c, 0, 67, 53
1, 197515, Note_on_c, 0, 56, 0
1, 197518, Note_on_c, 0, 58, 45
1, 197951, Note_on_c, 0, 67, 0
1, 197951, Note_on_c, 0, 65, 47
1, 197951, Note_on_c, 0, 58, 0
1, 197954, Note_on_c, 0, 59, 39
1, 198317, Note_on_c, 0, 65, 0
1, 198439, Note_on_c, 0, 65, 49
1, 198439, Note_on_c, 0, 68, 49
1, 198439, Note_on_c, 0, 59, 0
1, 198442, Note_on_c, 0, 49, 0
1, 198442, Note_on_c, 0, 48, 37
1, 198442, Note_on_c, 0, 60, 37
1, 198661, Control_c, 0, 64, 127
1, 199375, Note_on_c, 0, 68, 0
1, 199375, Note_on_c, 0, 65, 0
1, 199375, Note_on_c, 0, 64, 46
1, 199378, Note_on_c, 0, 67, 46
1, 199397, Control_c, 0, 64, 0
1, 199619, Control_c, 0, 64, 127
1, 199803, Note_on_c, 0, 67, 0
1, 199803, Note_on_c, 0, 64, 0
1, 199803, Note_on_c, 0, 72, 60
1, 199806, Note_on_c, 0, 60, 0
1, 199806, Note_on_c, 0, 48, 0
1, 199905, Control_c, 0, 64, 0
1, 200231, Note_on_c, 0, 72, 0
1, 200231, Note_on_c, 0, 77, 60
1, 200655, Note_on_c, 0, 77, 0
1, 200655, Note_on_c, 0, 80, 59
1, 200655, Note_on_c, 0, 44, 49
1, 201079, Note_on_c, 0, 80, 0
1, 201079, Note_on_c, 0, 79, 66
1, 201079, Note_on_c, 0, 44, 0
1, 201082, Note_on_c, 0, 46, 53
1, 201503, Note_on_c, 0, 79, 0
1, 201503, Note_on_c, 0, 77, 65
1, 201503, Note_on_c, 0, 46, 0
1, 201506, Note_on_c, 0, 58, 51
1, 201907, Note_on_c, 0, 77, 0
1, 201907, Note_on_c, 0, 58, 0
1, 201907, Note_on_c, 0, 59, 53
1, 202329, Note_on_c, 0, 72, 66
1, 202329, Note_on_c, 0, 59, 0
1, 202329, Note_on_c, 0, 60, 51
1, 202753, Note_on_c, 0, 72, 0
1, 202753, Note_on_c, 0, 77, 68
1, 202753, Note_on_c, 0, 60, 0
1, 203169, Note_on_c, 0, 77, 0
1, 203169, Note_on_c, 0, 80, 66
1, 203169, Note_on_c, 0, 48, 56
1, 203585, Note_on_c, 0, 80, 0
1, 203585, Note_on_c, 0, 79, 72
1, 203585, Note_on_c, 0, 48, 0
1, 203588, Note_on_c, 0, 49, 58
1, 204013, Note_on_c, 0, 79, 0
1, 204013, Note_on_c, 0, 77, 69
1, 204013, Note_on_c, 0, 49, 0
1, 204016, Note_on_c, 0, 61, 58
1, 204440, Note_on_c, 0, 77, 0
1, 204440, Note_on_c, 0, 61, 0
1, 204440, Note_on_c, 0, 63, 65
1, 204860, Note_on_c, 0, 69, 61
1, 204860, Note_on_c, 0, 72, 61
1, 204860, Note_on_c, 0, 75, 72
1, 204863, Note_on_c, 0, 77, 72
1, 204863, Note_on_c, 0, 63, 0
1, 204863, Note_on_c, 0, 48, 51
1, 204866, Note_on_c, 0, 60, 61
1, 204954, Control_c, 0, 64, 127
1, 205310, Note_on_c, 0, 77, 0
1, 205310, Note_on_c, 0, 69, 0
1, 205310, Note_on_c, 0, 72, 0
1, 205313, Note_on_c, 0, 75, 0
1, 205313, Note_on_c, 0, 69, 61
1, 205313, Note_on_c, 0, 72, 61
1, 205316, Note_on_c, 0, 75, 73
1, 205316, Note_on_c, 0, 77, 73
1, 205316, Note_on_c, 0, 60, 0
1, 205319, Note_on_c, 0, 48, 0
1, 205319, Note_on_c, 0, 45, 50
1, 205319, Note_on_c, 0, 57, 59
1, 205768, Note_on_c, 0, 77, 0
1, 205768, Note_on_c, 0, 69, 0
1, 205768, Note_on_c, 0, 72, 0
1, 205771, Note_on_c, 0, 75, 0
1, 205771, Note_on_c, 0, 69, 60
1, 205771, Note_on_c, 0, 72, 60
1, 205774, Note_on_c, 0, 75, 72
1, 205774, Note_on_c, 0, 77, 72
1, 205774, Note_on_c, 0, 57, 0
1, 205777, Note_on_c, 0, 45, 0
1, 205777, Note_on_c, 0, 41, 50
1, 205777, Note_on_c, 0, 53, 59
1, 206254, Note_on_c, 0, 77, 0
1, 206254, Note_on_c, 0, 69, 0
1, 206254, Note_on_c, 0, 72, 0
1, 206257, Note_on_c, 0, 75, 0
1, 206257, Note_on_c, 0, 73, 63
1, 206257, Note_on_c, 0, 77, 63
1, 206260, Note_on_c, 0, 53, 0
1, 206260, Note_on_c, 0, 41, 0
1, 206260, Control_c, 0, 64, 0
1, 206263, Note_on_c, 0, 46, 46
1, 206263, Note_on_c, 0, 58, 46
1, 206316, Control_c, 0, 64, 127
1, 206486, Note_on_c, 0, 77, 0
1, 206486, Note_on_c, 0, 73, 0
1, 206486, Note_on_c, 0, 70, 55
1, 206489, Note_on_c, 0, 73, 55
1, 206725, Note_on_c, 0, 73, 0
1, 206725, Note_on_c, 0, 70, 0
1, 206725, Note_on_c, 0, 70, 53
1, 206728, Note_on_c, 0, 73, 53
1, 206952, Note_on_c, 0, 73, 0
1, 206952, Note_on_c, 0, 70, 0
1, 206952, Note_on_c, 0, 67, 48
1, 206955, Note_on_c, 0, 70, 48
1, 207193, Note_on_c, 0, 70, 0
1, 207193, Note_on_c, 0, 67, 0
1, 207193, Note_on_c, 0, 65, 46
1, 207196, Note_on_c, 0, 68, 46
1, 207196, Note_on_c, 0, 58, 0
1, 207196, Note_on_c, 0, 46, 0
1, 207199, Note_on_c, 0, 48, 37
1, 207199, Note_on_c, 0, 60, 37
1, 207199, Control_c, 0, 64, 0
1, 207264, Control_c, 0, 64, 127
1, 208039, Note_on_c, 0, 68, 0
1, 208039, Note_on_c, 0, 65, 0
1, 208039, Note_on_c, 0, 68, 46
1, 208159, Note_on_c, 0, 68, 0
1, 208159, Note_on_c, 0, 64, 49
1, 208159, Note_on_c, 0, 67, 49
1, 208162, Note_on_c, 0, 60, 0
1, 208162, Note_on_c, 0, 48, 0
1, 208162, Note_on_c, 0, 48, 37
1, 208165, Note_on_c, 0, 58, 37
1, 208184, Control_c, 0, 64, 0
1, 208350, Control_c, 0, 64, 127
1, 208630, Note_on_c, 0, 67, 0
1, 208630, Note_on_c, 0, 64, 0
1, 208630, Note_on_c, 0, 65, 46
1, 208874, Note_on_c, 0, 65, 0
1, 208874, Note_on_c, 0, 67, 43
1, 209129, Note_on_c, 0, 67, 0
1, 209129, Note_on_c, 0, 65, 49
1, 209129, Note_on_c, 0, 58, 0
1, 209132, Note_on_c, 0, 48, 0
1, 209132, Control_c, 0, 64, 0
1, 209132, Note_on_c, 0, 53, 37
1, 209135, Note_on_c, 0, 56, 37
1, 209248, Control_c, 0, 64, 127
1, 210150, Note_on_c, 0, 65, 0
1, 210150, Note_on_c, 0, 56, 0
1, 210150, Note_on_c, 0, 53, 0
1, 210153, Note_on_c, 0, 41, 28
1, 210450, Control_c, 0, 64, 0
1, 210661, Note_on_c, 0, 68, 37
1, 210661, Control_c, 0, 91, 127
1, 210661, Note_on_c, 0, 60, 37
1, 210664, Note_on_c, 0, 41, 0
1, 210664, Control_c, 0, 91, 127
1, 210931, Control_c, 0, 64, 127
1, 211172, Note_on_c, 0, 60, 0
1, 211172, Note_on_c, 0, 68, 0
1, 211172, Note_on_c, 0, 60, 37
1, 211175, Note_on_c, 0, 68, 37
1, 211682, Note_on_c, 0, 68, 0
1, 211682, Note_on_c, 0, 60, 0
1, 211682, Note_on_c, 0, 60, 35
1, 211685, Note_on_c, 0, 68, 35
1, 212193, Note_on_c, 0, 68, 0
1, 212193, Note_on_c, 0, 60, 0
1, 212193, Note_on_c, 0, 60, 40
1, 212196, Note_on_c, 0, 68, 40
1, 212196, Control_c, 0, 64, 0
1, 212196, Note_on_c, 0, 41, 40
1, 212277, Control_c, 0, 64, 127
1, 212434, Note_on_c, 0, 41, 0
1, 212434, Note_on_c, 0, 53, 27
1, 212678, Note_on_c, 0, 53, 0
1, 212678, Note_on_c, 0, 53, 29
1, 212920, Note_on_c, 0, 53, 0
1, 212920, Note_on_c, 0, 53, 28
1, 213162, Note_on_c, 0, 53, 0
1, 213162, Note_on_c, 0, 53, 29
1, 213407, Note_on_c, 0, 53, 0
1, 213407, Note_on_c, 0, 53, 25
1, 213649, Note_on_c, 0, 68, 0
1, 213649, Note_on_c, 0, 60, 0
1, 213649, Note_on_c, 0, 67, 37
1, 213652, Note_on_c, 0, 58, 37
1, 213652, Note_on_c, 0, 53, 0
1, 213652, Note_on_c, 0, 53, 28
1, 213663, Control_c, 0, 64, 0
1, 213888, Note_on_c, 0, 53, 0
1, 213888, Control_c, 0, 64, 127
1, 213888, Note_on_c, 0, 53, 26
1, 214132, Note_on_c, 0, 58, 0
1, 214132, Note_on_c, 0, 67, 0
1, 214132, Note_on_c, 0, 70, 39
1, 214135, Note_on_c, 0, 61, 39
1, 214135, Note_on_c, 0, 53, 0
1, 214135, Note_on_c, 0, 53, 29
1, 214373, Note_on_c, 0, 53, 0
1, 214373, Note_on_c, 0, 53, 27
1, 214615, Note_on_c, 0, 61, 0
1, 214615, Note_on_c, 0, 70, 0
1, 214615, Note_on_c, 0, 55, 37
1, 214618, Note_on_c, 0, 64, 37
1, 214618, Note_on_c, 0, 53, 0
1, 214618, Note_on_c, 0, 53, 29
1, 214870, Note_on_c, 0, 53, 0
1, 214870, Note_on_c, 0, 53, 27
1, 215123, Note_on_c, 0, 64, 0
1, 215123, Note_on_c, 0, 55, 0
1, 215123, Note_on_c, 0, 56, 42
1, 215126, Note_on_c, 0, 65, 42
1, 215126, Note_on_c, 0, 53, 0
1, 215126, Note_on_c, 0, 41, 34
1, 215129, Control_c, 0, 64, 0
1, 215252, Control_c, 0, 64, 127
1, 215367, Note_on_c, 0, 41, 0
1, 215367, Note_on_c, 0, 53, 26
1, 215609, Note_on_c, 0, 53, 0
1, 215609, Note_on_c, 0, 53, 28
1, 215850, Note_on_c, 0, 53, 0
1, 215850, Note_on_c, 0, 53, 26
1, 216095, Note_on_c, 0, 53, 0
1, 216095, Note_on_c, 0, 53, 25
1, 216336, Note_on_c, 0, 53, 0
1, 216336, Note_on_c, 0, 53, 23
1, 216577, Note_on_c, 0, 65, 0
1, 216577, Note_on_c, 0, 56, 0
1, 216577, Note_on_c, 0, 72, 34
1, 216580, Note_on_c, 0, 68, 34
1, 216580, Note_on_c, 0, 53, 0
1, 216580, Note_on_c, 0, 53, 26
1, 216584, Control_c, 0, 64, 0
1, 216736, Control_c, 0, 64, 127
1, 216824, Note_on_c, 0, 53, 0
1, 216824, Note_on_c, 0, 53, 23
1, 217071, Note_on_c, 0, 68, 0
1, 217071, Note_on_c, 0, 72, 0
1, 217071, Note_on_c, 0, 72, 35
1, 217074, Note_on_c, 0, 68, 35
1, 217074, Note_on_c, 0, 53, 0
1, 217074, Note_on_c, 0, 53, 28
1, 217321, Note_on_c, 0, 53, 0
1, 217321, Note_on_c, 0, 53, 27
1, 217568, Note_on_c, 0, 68, 0
1, 217568, Note_on_c, 0, 72, 0
1, 217568, Note_on_c, 0, 68, 34
1, 217571, Note_on_c, 0, 72, 34
1, 217571, Note_on_c, 0, 53, 0
1, 217571, Note_on_c, 0, 53, 28
1, 217856, Note_on_c, 0, 53, 0
1, 217856, Note_on_c, 0, 53, 27
1, 218138, Note_on_c, 0, 72, 0
1, 218138, Note_on_c, 0, 68, 0
1, 218138, Note_on_c, 0, 72, 38
1, 218141, Note_on_c, 0, 68, 38
1, 218141, Note_on_c, 0, 64, 38
1, 218141, Note_on_c, 0, 53, 0
1, 218144, Control_c, 0, 64, 0
1, 218144, Note_on_c, 0, 41, 33
1, 218325, Control_c, 0, 64, 127
1, 218382, Note_on_c, 0, 41, 0
1, 218382, Note_on_c, 0, 53, 22
1, 218626, Note_on_c, 0, 53, 0
1, 218626, Note_on_c, 0, 53, 26
1, 218869, Note_on_c, 0, 53, 0
1, 218869, Note_on_c, 0, 53, 24
1, 219114, Note_on_c, 0, 53, 0
1, 219114, Note_on_c, 0, 53, 26
1, 219357, Note_on_c, 0, 53, 0
1, 219357, Note_on_c, 0, 53, 23
1, 219601, Note_on_c, 0, 68, 0
1, 219601, Note_on_c, 0, 72, 0
1, 219601, Note_on_c, 0, 67, 34
1, 219604, Note_on_c, 0, 70, 34
1, 219604, Note_on_c, 0, 53, 0
1, 219604, Note_on_c, 0, 53, 26
1, 219624, Control_c, 0, 64, 0
1, 219799, Control_c, 0, 64, 127
1, 219860, Note_on_c, 0, 53, 0
1, 219860, Note_on_c, 0, 53, 23
1, 220120, Note_on_c, 0, 70, 0
1, 220120, Note_on_c, 0, 67, 0
1, 220120, Note_on_c, 0, 70, 37
1, 220123, Note_on_c, 0, 73, 37
1, 220123, Note_on_c, 0, 53, 0
1, 220123, Note_on_c, 0, 53, 24
1, 220379, Note_on_c, 0, 53, 0
1, 220379, Note_on_c, 0, 53, 22
1, 220640, Note_on_c, 0, 73, 0
1, 220640, Note_on_c, 0, 70, 0
1, 220640, Note_on_c, 0, 64, 0
1, 220643, Note_on_c, 0, 60, 32
1, 220643, Note_on_c, 0, 64, 32
1, 220643, Note_on_c, 0, 53, 0
1, 220646, Note_on_c, 0, 53, 24
1, 220659, Note_on_c, 0, 58, 32
1, 220659, Control_c, 0, 64, 0
1, 220804, Control_c, 0, 64, 127
1, 220952, Note_on_c, 0, 53, 0
1, 220952, Note_on_c, 0, 53, 23
1, 221283, Note_on_c, 0, 64, 0
1, 221283, Note_on_c, 0, 60, 0
1, 221283, Note_on_c, 0, 65, 32
1, 221286, Note_on_c, 0, 60, 32
1, 221286, Note_on_c, 0, 56, 32
1, 221286, Note_on_c, 0, 53, 0
1, 221289, Note_on_c, 0, 53, 30
1, 221289, Control_c, 0, 64, 0
1, 221300, Note_on_c, 0, 58, 0
1, 221600, Control_c, 0, 64, 127
1, 222418, Control_c, 0, 64, 0
1, 222481, Note_on_c, 0, 65, 0
1, 222481, Note_on_c, 0, 60, 0
1, 222481, Note_on_c, 0, 56, 0
1, 222484, Note_on_c, 0, 53, 0
1, 223080, Note_on_c, 0, 72, 50
1, 223139, Control_c, 0, 64, 127
1, 223587, Note_on_c, 0, 72, 0
1, 223587, Note_on_c, 0, 72, 50
1, 224091, Note_on_c, 0, 72, 0
1, 224091, Note_on_c, 0, 72, 50
1, 224596, Note_on_c, 0, 72, 0
1, 224596, Note_on_c, 0, 72, 52
1, 224596, Control_c, 0, 64, 0
1, 224599, Note_on_c, 0, 53, 34
1, 224599, Note_on_c, 0, 57, 34
1, 224599, Note_on_c, 0, 60, 34
1, 224689, Control_c, 0, 64, 127
1, 224840, Note_on_c, 0, 72, 0
1, 224840, Note_on_c, 0, 74, 47
1, 224921, Note_on_c, 0, 74, 0
1, 224921, Note_on_c, 0, 72, 46
1, 225002, Note_on_c, 0, 72, 0
1, 225002, Note_on_c, 0, 71, 46
1, 225083, Note_on_c, 0, 71, 0
1, 225083, Note_on_c, 0, 72, 52
1, 225093, Control_c, 0, 64, 0
1, 225168, Control_c, 0, 64, 127
1, 225310, Note_on_c, 0, 72, 0
1, 225310, Note_on_c, 0, 77, 49
1, 225542, Note_on_c, 0, 77, 0
1, 225542, Note_on_c, 0, 72, 47
1, 225622, Control_c, 0, 64, 0
1, 225783, Note_on_c, 0, 72, 0
1, 226025, Note_on_c, 0, 69, 47
1, 226530, Note_on_c, 0, 69, 0
1, 226530, Note_on_c, 0, 72, 48
1, 226530, Note_on_c, 0, 60, 0
1, 226533, Note_on_c, 0, 57, 0
1, 226533, Note_on_c, 0, 53, 0
1, 226533, Note_on_c, 0, 48, 30
1, 226536, Note_on_c, 0, 55, 30
1, 226536, Note_on_c, 0, 58, 30
1, 226595, Control_c, 0, 64, 127
1, 227034, Note_on_c, 0, 72, 0
1, 227034, Note_on_c, 0, 64, 47
1, 227563, Note_on_c, 0, 64, 0
1, 227563, Note_on_c, 0, 67, 54
1, 227563, Note_on_c, 0, 58, 0
1, 227566, Note_on_c, 0, 55, 0
1, 227566, Note_on_c, 0, 48, 0
1, 227566, Control_c, 0, 64, 0
1, 227569, Note_on_c, 0, 50, 37
1, 227569, Note_on_c, 0, 58, 37
1, 227889, Control_c, 0, 64, 127
1, 228573, Note_on_c, 0, 67, 0
1, 228573, Note_on_c, 0, 65, 48
1, 228573, Note_on_c, 0, 58, 0
1, 228576, Note_on_c, 0, 57, 37
1, 228602, Control_c, 0, 64, 0
1, 228869, Control_c, 0, 64, 127
1, 229078, Note_on_c, 0, 65, 0
1, 229078, Note_on_c, 0, 60, 40
1, 229078, Note_on_c, 0, 65, 73
1, 229081, Note_on_c, 0, 57, 0
1, 229081, Note_on_c, 0, 50, 0
1, 229081, Note_on_c, 0, 45, 57
1, 229084, Note_on_c, 0, 57, 57
1, 229569, Note_on_c, 0, 65, 0
1, 229569, Note_on_c, 0, 60, 0
1, 229569, Note_on_c, 0, 64, 51
1, 229572, Note_on_c, 0, 67, 75
1, 229572, Note_on_c, 0, 57, 0
1, 229572, Note_on_c, 0, 45, 0
1, 229575, Note_on_c, 0, 43, 59
1, 229575, Note_on_c, 0, 55, 59
1, 229593, Control_c, 0, 64, 0
1, 229784, Control_c, 0, 64, 127
1, 230060, Note_on_c, 0, 67, 0
1, 230060, Note_on_c, 0, 64, 0
1, 230060, Note_on_c, 0, 65, 52
1, 230063, Note_on_c, 0, 60, 40
1, 230063, Note_on_c, 0, 69, 76
1, 230063, Note_on_c, 0, 55, 0
1, 230066, Note_on_c, 0, 43, 0
1, 230066, Note_on_c, 0, 41, 57
1, 230066, Note_on_c, 0, 53, 57
1, 230085, Control_c, 0, 64, 0
1, 230320, Control_c, 0, 64, 127
1, 230552, Note_on_c, 0, 69, 0
1, 230552, Note_on_c, 0, 60, 0
1, 230552, Note_on_c, 0, 65, 0
1, 230555, Note_on_c, 0, 65, 63
1, 230555, Note_on_c, 0, 70, 77
1, 230555, Note_on_c, 0, 53, 0
1, 230558, Note_on_c, 0, 41, 0
1, 230558, Note_on_c, 0, 50, 49
1, 230558, Note_on_c, 0, 62, 56
1, 230576, Control_c, 0, 64, 0
1, 230697, Control_c, 0, 64, 127
1, 231043, Note_on_c, 0, 62, 0
1, 231043, Note_on_c, 0, 50, 0
1, 231043, Note_on_c, 0, 46, 48
1, 231046, Note_on_c, 0, 58, 54
1, 231271, Note_on_c, 0, 70, 0
1, 231271, Note_on_c, 0, 65, 0
1, 231271, Note_on_c, 0, 72, 63
1, 231374, Note_on_c, 0, 72, 0
1, 231374, Note_on_c, 0, 74, 57
1, 231486, Note_on_c, 0, 74, 0
1, 231486, Note_on_c, 0, 72, 56
1, 231486, Note_on_c, 0, 58, 0
1, 231489, Note_on_c, 0, 46, 0
1, 231489, Note_on_c, 0, 45, 24
1, 231489, Note_on_c, 0, 57, 29
1, 231492, Control_c, 0, 64, 0
1, 231736, Note_on_c, 0, 72, 0
1, 231736, Note_on_c, 0, 57, 0
1, 231736, Note_on_c, 0, 45, 0
1, 231986, Note_on_c, 0, 65, 51
1, 232468, Note_on_c, 0, 65, 0
1, 232468, Note_on_c, 0, 59, 36
1, 232468, Note_on_c, 0, 64, 52
1, 232471, Note_on_c, 0, 50, 34
1, 232585, Control_c, 0, 64, 127
1, 232970, Note_on_c, 0, 64, 0
1, 232970, Note_on_c, 0, 65, 45
1, 233514, Note_on_c, 0, 65, 0
1, 233514, Note_on_c, 0, 59, 0
1, 233514, Note_on_c, 0, 60, 32
1, 233517, Note_on_c, 0, 65, 32
1, 233517, Note_on_c, 0, 69, 47
1, 233517, Note_on_c, 0, 50, 0
1, 233520, Control_c, 0, 64, 0
1, 233520, Note_on_c, 0, 48, 27
1, 233614, Control_c, 0, 64, 127
1, 234562, Note_on_c, 0, 69, 0
1, 234562, Note_on_c, 0, 65, 0
1, 234562, Note_on_c, 0, 64, 31
1, 234565, Note_on_c, 0, 67, 46
1, 234583, Control_c, 0, 64, 0
1, 234708, Control_c, 0, 64, 127
1, 235085, Note_on_c, 0, 67, 0
1, 235085, Note_on_c, 0, 64, 0
1, 235085, Note_on_c, 0, 67, 54
1, 235567, Note_on_c, 0, 67, 0
1, 235567, Note_on_c, 0, 60, 0
1, 235567, Note_on_c, 0, 67, 59
1, 235570, Note_on_c, 0, 48, 0
1, 235570, Note_on_c, 0, 60, 39
1, 235570, Note_on_c, 0, 64, 39
1, 235578, Control_c, 0, 64, 0
1, 235652, Control_c, 0, 64, 127
1, 236050, Note_on_c, 0, 67, 0
1, 236050, Note_on_c, 0, 67, 65
1, 236314, Control_c, 0, 64, 0
1, 236412, Control_c, 0, 64, 127
1, 236420, Note_on_c, 0, 67, 0
1, 236420, Note_on_c, 0, 67, 65
1, 236550, Note_on_c, 0, 67, 0
1, 236550, Note_on_c, 0, 79, 73
1, 236550, Note_on_c, 0, 64, 0
1, 236553, Note_on_c, 0, 60, 0
1, 236553, Note_on_c, 0, 59, 51
1, 236553, Note_on_c, 0, 62, 51
1, 236556, Note_on_c, 0, 65, 51
1, 237273, Note_on_c, 0, 79, 0
1, 237273, Note_on_c, 0, 74, 50
1, 237393, Note_on_c, 0, 74, 0
1, 237393, Note_on_c, 0, 71, 46
1, 237514, Note_on_c, 0, 71, 0
1, 237514, Note_on_c, 0, 67, 49
1, 237996, Note_on_c, 0, 67, 0
1, 237996, Note_on_c, 0, 67, 59
1, 238478, Note_on_c, 0, 67, 0
1, 238478, Note_on_c, 0, 67, 63
1, 238478, Note_on_c, 0, 65, 0
1, 238481, Note_on_c, 0, 62, 0
1, 238481, Note_on_c, 0, 59, 0
1, 238481, Note_on_c, 0, 60, 43
1, 238484, Note_on_c, 0, 64, 43
1, 238490, Control_c, 0, 64, 0
1, 238587, Control_c, 0, 64, 127
1, 238960, Note_on_c, 0, 67, 0
1, 238960, Note_on_c, 0, 67, 69
1, 239281, Control_c, 0, 64, 0
1, 239341, Note_on_c, 0, 67, 0
1, 239341, Note_on_c, 0, 67, 67
1, 239362, Control_c, 0, 64, 127
1, 239481, Note_on_c, 0, 67, 0
1, 239481, Note_on_c, 0, 79, 72
1, 239481, Note_on_c, 0, 64, 0
1, 239484, Note_on_c, 0, 60, 0
1, 239484, Note_on_c, 0, 50, 51
1, 239484, Note_on_c, 0, 53, 51
1, 239487, Note_on_c, 0, 59, 51
1, 240371, Control_c, 0, 64, 0
1, 240445, Note_on_c, 0, 59, 0
1, 240445, Note_on_c, 0, 53, 0
1, 240445, Note_on_c, 0, 50, 0
1, 240448, Note_on_c, 0, 52, 37
1, 240448, Note_on_c, 0, 55, 37
1, 240448, Note_on_c, 0, 60, 37
1, 240834, Note_on_c, 0, 79, 0
1, 240834, Note_on_c, 0, 81, 56
1, 240898, Note_on_c, 0, 81, 0
1, 240898, Note_on_c, 0, 83, 49
1, 240963, Note_on_c, 0, 83, 0
1, 240963, Note_on_c, 0, 84, 58
1, 241222, Note_on_c, 0, 84, 0
1, 241222, Note_on_c, 0, 83, 51
1, 241481, Note_on_c, 0, 83, 0
1, 241481, Note_on_c, 0, 81, 56
1, 241481, Note_on_c, 0, 60, 0
1, 241484, Note_on_c, 0, 55, 0
1, 241484, Note_on_c, 0, 52, 0
1, 241724, Note_on_c, 0, 81, 0
1, 241724, Note_on_c, 0, 79, 50
1, 241968, Note_on_c, 0, 79, 0
1, 241968, Note_on_c, 0, 77, 54
1, 242211, Note_on_c, 0, 77, 0
1, 242211, Note_on_c, 0, 76, 52
1, 242455, Note_on_c, 0, 76, 0
1, 242455, Note_on_c, 0, 73, 54
1, 242708, Note_on_c, 0, 73, 0
1, 242708, Note_on_c, 0, 74, 49
1, 242962, Note_on_c, 0, 74, 0
1, 242962, Note_on_c, 0, 77, 49
1, 242962, Note_on_c, 0, 62, 30
1, 242965, Note_on_c, 0, 57, 30
1, 242965, Note_on_c, 0, 53, 30
1, 243010, Control_c, 0, 64, 127
1, 243215, Note_on_c, 0, 77, 0
1, 243215, Note_on_c, 0, 81, 48
1, 243489, Note_on_c, 0, 81, 0
1, 243489, Note_on_c, 0, 72, 54
1, 243489, Note_on_c, 0, 53, 0
1, 243492, Note_on_c, 0, 57, 0
1, 243492, Note_on_c, 0, 62, 0
1, 243492, Note_on_c, 0, 64, 27
1, 243495, Note_on_c, 0, 60, 21
1, 243495, Note_on_c, 0, 55, 21
1, 243499, Control_c, 0, 64, 0
1, 243814, Control_c, 0, 64, 127
1, 244503, Note_on_c, 0, 60, 0
1, 244503, Note_on_c, 0, 64, 0
1, 244503, Note_on_c, 0, 65, 29
1, 244506, Note_on_c, 0, 62, 23
1, 244528, Control_c, 0, 64, 0
1, 244684, Control_c, 0, 64, 127
1, 245010, Note_on_c, 0, 72, 0
1, 245010, Note_on_c, 0, 76, 48
1, 245010, Note_on_c, 0, 71, 48
1, 245263, Note_on_c, 0, 76, 0
1, 245263, Note_on_c, 0, 74, 47
1, 245517, Note_on_c, 0, 74, 0
1, 245517, Note_on_c, 0, 71, 0
1, 245517, Note_on_c, 0, 72, 47
1, 245520, Note_on_c, 0, 62, 0
1, 245520, Note_on_c, 0, 65, 0
1, 245520, Note_on_c, 0, 55, 0
1, 245523, Note_on_c, 0, 64, 34
1, 245523, Note_on_c, 0, 60, 27
1, 245527, Control_c, 0, 64, 0
1, 245785, Control_c, 0, 64, 127
1, 246531, Note_on_c, 0, 72, 0
1, 246531, Note_on_c, 0, 60, 0
1, 246531, Note_on_c, 0, 64, 0
1, 246534, Note_on_c, 0, 48, 29
1, 246716, Control_c, 0, 64, 0
1, 247053, Control_c, 0, 91, 127
1, 247053, Note_on_c, 0, 72, 50
1, 247053, Note_on_c, 0, 48, 0
1, 247056, Control_c, 0, 91, 127
1, 247537, Note_on_c, 0, 72, 0
1, 247537, Note_on_c, 0, 74, 54
1, 247778, Note_on_c, 0, 72, 50
1, 247798, Note_on_c, 0, 74, 0
1, 248020, Note_on_c, 0, 70, 55
1, 248040, Note_on_c, 0, 72, 0
1, 248261, Note_on_c, 0, 69, 49
1, 248281, Note_on_c, 0, 70, 0
1, 248503, Note_on_c, 0, 67, 61
1, 248503, Note_on_c, 0, 63, 46
1, 248503, Note_on_c, 0, 60, 46
1, 248524, Note_on_c, 0, 69, 0
1, 248590, Control_c, 0, 64, 127
1, 249501, Note_on_c, 0, 67, 0
1, 249501, Note_on_c, 0, 66, 51
1, 249531, Control_c, 0, 64, 0
1, 249649, Control_c, 0, 64, 127
1, 249979, Note_on_c, 0, 66, 0
1, 249979, Note_on_c, 0, 66, 63
1, 249979, Note_on_c, 0, 60, 0
1, 249982, Note_on_c, 0, 63, 0
1, 249982, Note_on_c, 0, 63, 46
1, 249982, Note_on_c, 0, 60, 46
1, 250452, Note_on_c, 0, 66, 0
1, 250452, Note_on_c, 0, 67, 65
1, 250452, Note_on_c, 0, 60, 0
1, 250455, Note_on_c, 0, 63, 0
1, 250455, Note_on_c, 0, 62, 47
1, 250455, Note_on_c, 0, 58, 47
1, 250482, Control_c, 0, 64, 0
1, 250557, Control_c, 0, 64, 127
1, 250925, Note_on_c, 0, 67, 0
1, 250925, Note_on_c, 0, 66, 52
1, 250925, Note_on_c, 0, 69, 66
1, 250928, Note_on_c, 0, 58, 0
1, 250928, Note_on_c, 0, 62, 0
1, 250928, Note_on_c, 0, 57, 47
1, 250931, Note_on_c, 0, 60, 47
1, 250931, Note_on_c, 0, 62, 47
1, 250949, Control_c, 0, 64, 0
1, 251039, Control_c, 0, 64, 127
1, 251312, Note_on_c, 0, 69, 0
1, 251312, Note_on_c, 0, 66, 0
1, 251441, Note_on_c, 0, 66, 51
1, 251441, Note_on_c, 0, 69, 65
1, 251441, Note_on_c, 0, 62, 0
1, 251444, Note_on_c, 0, 60, 0
1, 251444, Note_on_c, 0, 57, 0
1, 251444, Control_c, 0, 64, 0
1, 251447, Note_on_c, 0, 60, 50
1, 251447, Note_on_c, 0, 62, 50
1, 251447, Note_on_c, 0, 55, 50
1, 251507, Control_c, 0, 64, 127
1, 252429, Note_on_c, 0, 69, 0
1, 252429, Note_on_c, 0, 66, 0
1, 252429, Note_on_c, 0, 67, 45
1, 252432, Note_on_c, 0, 70, 56
1, 252432, Note_on_c, 0, 60, 0
1, 252432, Note_on_c, 0, 58, 48
1, 252454, Control_c, 0, 64, 0
1, 252575, Control_c, 0, 64, 127
1, 252923, Note_on_c, 0, 70, 0
1, 252923, Note_on_c, 0, 67, 0
1, 252923, Note_on_c, 0, 64, 51
1, 252926, Note_on_c, 0, 58, 0
1, 252926, Note_on_c, 0, 55, 0
1, 252926, Note_on_c, 0, 62, 0
1, 252929, Note_on_c, 0, 61, 44
1, 252929, Note_on_c, 0, 58, 44
1, 252933, Control_c, 0, 64, 0
1, 253042, Control_c, 0, 64, 127
1, 253401, Note_on_c, 0, 64, 0
1, 253401, Note_on_c, 0, 65, 55
1, 253401, Note_on_c, 0, 58, 0
1, 253404, Note_on_c, 0, 61, 0
1, 253404, Note_on_c, 0, 60, 48
1, 253404, Note_on_c, 0, 57, 48
1, 253414, Control_c, 0, 64, 0
1, 253484, Control_c, 0, 64, 127
1, 253878, Note_on_c, 0, 65, 0
1, 253878, Note_on_c, 0, 64, 53
1, 253878, Note_on_c, 0, 67, 53
1, 253881, Note_on_c, 0, 57, 0
1, 253881, Note_on_c, 0, 60, 0
1, 253881, Note_on_c, 0, 55, 45
1, 253884, Note_on_c, 0, 58, 45
1, 253884, Note_on_c, 0, 60, 45
1, 253892, Control_c, 0, 64, 0
1, 253962, Control_c, 0, 64, 127
1, 254237, Note_on_c, 0, 67, 0
1, 254237, Note_on_c, 0, 64, 0
1, 254356, Note_on_c, 0, 69, 61
1, 254356, Note_on_c, 0, 60, 0
1, 254356, Note_on_c, 0, 58, 0
1, 254359, Note_on_c, 0, 55, 0
1, 254359, Control_c, 0, 64, 0
1, 254359, Note_on_c, 0, 53, 48
1, 254362, Note_on_c, 0, 57, 48
1, 254362, Note_on_c, 0, 60, 48
1, 254482, Control_c, 0, 64, 127
1, 254834, Note_on_c, 0, 69, 0
1, 254834, Note_on_c, 0, 70, 68
1, 254834, Note_on_c, 0, 60, 0
1, 254837, Note_on_c, 0, 57, 0
1, 254837, Note_on_c, 0, 53, 0
1, 254837, Note_on_c, 0, 50, 50
1, 254844, Control_c, 0, 64, 0
1, 255004, Control_c, 0, 64, 127
1, 255312, Note_on_c, 0, 70, 0
1, 255312, Note_on_c, 0, 72, 67
1, 255312, Note_on_c, 0, 50, 0
1, 255315, Note_on_c, 0, 45, 56
1, 255322, Control_c, 0, 64, 0
1, 255551, Control_c, 0, 64, 127
1, 255790, Note_on_c, 0, 72, 0
1, 255790, Note_on_c, 0, 73, 70
1, 256268, Note_on_c, 0, 73, 0
1, 256268, Note_on_c, 0, 76, 72
1, 256268, Note_on_c, 0, 45, 0
1, 256271, Note_on_c, 0, 46, 53
1, 256297, Control_c, 0, 64, 0
1, 256466, Control_c, 0, 64, 127
1, 256512, Note_on_c, 0, 74, 65
1, 256533, Note_on_c, 0, 76, 0
1, 256757, Note_on_c, 0, 72, 64
1, 256757, Note_on_c, 0, 46, 0
1, 256757, Note_on_c, 0, 43, 46
1, 256776, Note_on_c, 0, 74, 0
1, 256776, Control_c, 0, 64, 0
1, 256867, Control_c, 0, 64, 127
1, 256989, Note_on_c, 0, 67, 47
1, 256989, Note_on_c, 0, 70, 58
1, 256989, Note_on_c, 0, 43, 0
1, 257011, Note_on_c, 0, 72, 0
1, 257249, Note_on_c, 0, 65, 46
1, 257249, Note_on_c, 0, 69, 57
1, 257249, Control_c, 0, 64, 0
1, 257252, Note_on_c, 0, 48, 43
1, 257270, Note_on_c, 0, 70, 0
1, 257270, Note_on_c, 0, 67, 0
1, 257513, Control_c, 0, 64, 127
1, 258248, Note_on_c, 0, 65, 0
1, 258248, Note_on_c, 0, 69, 0
1, 258248, Note_on_c, 0, 64, 40
1, 258251, Note_on_c, 0, 67, 51
1, 258251, Control_c, 0, 64, 0
1, 258747, Note_on_c, 0, 67, 0
1, 258747, Note_on_c, 0, 64, 0
1, 258747, Note_on_c, 0, 72, 65
1, 258861, Control_c, 0, 64, 127
1, 259235, Note_on_c, 0, 72, 0
1, 259235, Note_on_c, 0, 72, 66
1, 259235, Note_on_c, 0, 48, 0
1, 259723, Note_on_c, 0, 72, 0
1, 259723, Note_on_c, 0, 72, 72
1, 260240, Note_on_c, 0, 72, 0
1, 260240, Note_on_c, 0, 72, 81
1, 260240, Note_on_c, 0, 82, 81
1, 260243, Control_c, 0, 64, 0
1, 260243, Note_on_c, 0, 36, 53
1, 260243, Note_on_c, 0, 48, 64
1, 260348, Control_c, 0, 64, 127
1, 260915, Control_c, 0, 64, 0
1, 260972, Note_on_c, 0, 48, 0
1, 260972, Note_on_c, 0, 36, 0
1, 260972, Note_on_c, 0, 38, 51
1, 260975, Note_on_c, 0, 50, 60
1, 261217, Note_on_c, 0, 50, 0
1, 261217, Note_on_c, 0, 38, 0
1, 261217, Note_on_c, 0, 40, 53
1, 261220, Note_on_c, 0, 52, 64
1, 261583, Note_on_c, 0, 52, 0
1, 261583, Note_on_c, 0, 40, 0
1, 261705, Note_on_c, 0, 82, 0
1, 261705, Note_on_c, 0, 81, 69
1, 261705, Note_on_c, 0, 41, 40
1, 261708, Note_on_c, 0, 53, 48
1, 261783, Control_c, 0, 64, 127
1, 262063, Note_on_c, 0, 53, 0
1, 262063, Note_on_c, 0, 41, 0
1, 262183, Note_on_c, 0, 81, 0
1, 262183, Note_on_c, 0, 70, 58
1, 262183, Note_on_c, 0, 79, 70
1, 262186, Note_on_c, 0, 43, 45
1, 262186, Note_on_c, 0, 55, 53
1, 262207, Control_c, 0, 64, 0
1, 262275, Control_c, 0, 64, 127
1, 262541, Note_on_c, 0, 55, 0
1, 262541, Note_on_c, 0, 43, 0
1, 262661, Note_on_c, 0, 79, 0
1, 262661, Note_on_c, 0, 70, 0
1, 262661, Note_on_c, 0, 69, 56
1, 262664, Note_on_c, 0, 77, 66
1, 262664, Note_on_c, 0, 45, 42
1, 262664, Note_on_c, 0, 57, 50
1, 262667, Control_c, 0, 64, 0
1, 262763, Control_c, 0, 64, 127
1, 263035, Note_on_c, 0, 57, 0
1, 263035, Note_on_c, 0, 45, 0
1, 263160, Note_on_c, 0, 77, 0
1, 263160, Note_on_c, 0, 69, 0
1, 263160, Note_on_c, 0, 67, 55
1, 263163, Note_on_c, 0, 77, 66
1, 263163, Control_c, 0, 64, 0
1, 263163, Note_on_c, 0, 46, 45
1, 263166, Note_on_c, 0, 58, 53
1, 263554, Control_c, 0, 64, 127
1, 264192, Note_on_c, 0, 77, 0
1, 264192, Note_on_c, 0, 76, 56
1, 264225, Control_c, 0, 64, 0
1, 264715, Note_on_c, 0, 76, 0
1, 264715, Note_on_c, 0, 75, 51
1, 264929, Control_c, 0, 64, 127
1, 265214, Note_on_c, 0, 75, 0
1, 265214, Note_on_c, 0, 67, 0
1, 265214, Note_on_c, 0, 72, 0
1, 265217, Note_on_c, 0, 75, 50
1, 265217, Note_on_c, 0, 58, 0
1, 265217, Note_on_c, 0, 46, 0
1, 265713, Note_on_c, 0, 75, 0
1, 265713, Note_on_c, 0, 75, 47
1, 266205, Note_on_c, 0, 75, 0
1, 266205, Note_on_c, 0, 75, 39
1, 266205, Control_c, 0, 64, 0
1, 266208, Note_on_c, 0, 65, 43
1, 266208, Note_on_c, 0, 60, 37
1, 266208, Note_on_c, 0, 57, 37
1, 266254, Control_c, 0, 64, 127
1, 266260, Note_on_c, 0, 75, 0
1, 266260, Note_on_c, 0, 77, 39
1, 266314, Note_on_c, 0, 77, 0
1, 266314, Note_on_c, 0, 75, 39
1, 266367, Note_on_c, 0, 75, 0
1, 266367, Note_on_c, 0, 77, 40
1, 266420, Note_on_c, 0, 77, 0
1, 266420, Note_on_c, 0, 75, 42
1, 266472, Note_on_c, 0, 75, 0
1, 266472, Note_on_c, 0, 77, 40
1, 266525, Note_on_c, 0, 77, 0
1, 266525, Note_on_c, 0, 75, 40
1, 266580, Note_on_c, 0, 75, 0
1, 266580, Note_on_c, 0, 77, 40
1, 266634, Note_on_c, 0, 77, 0
1, 266634, Note_on_c, 0, 75, 42
1, 266818, Control_c, 0, 64, 0
1, 266869, Note_on_c, 0, 75, 0
1, 266869, Note_on_c, 0, 77, 47
1, 267124, Note_on_c, 0, 77, 0
1, 267124, Note_on_c, 0, 79, 58
1, 267124, Note_on_c, 0, 57, 0
1, 267127, Note_on_c, 0, 60, 0
1, 267127, Note_on_c, 0, 65, 0
1, 267127, Note_on_c, 0, 60, 37
1, 267130, Note_on_c, 0, 65, 43
1, 267130, Note_on_c, 0, 57, 37
1, 267152, Control_c, 0, 64, 127
1, 267635, Note_on_c, 0, 79, 0
1, 267635, Note_on_c, 0, 77, 54
1, 267890, Note_on_c, 0, 77, 0
1, 267890, Note_on_c, 0, 75, 51
1, 268145, Note_on_c, 0, 75, 0
1, 268145, Note_on_c, 0, 75, 54
1, 268145, Note_on_c, 0, 57, 0
1, 268148, Note_on_c, 0, 65, 0
1, 268148, Note_on_c, 0, 60, 0
1, 268148, Note_on_c, 0, 65, 37
1, 268151, Note_on_c, 0, 57, 33
1, 268151, Note_on_c, 0, 63, 37
1, 268160, Control_c, 0, 64, 0
1, 268252, Control_c, 0, 64, 127
1, 268400, Note_on_c, 0, 75, 0
1, 268400, Note_on_c, 0, 74, 51
1, 268656, Note_on_c, 0, 74, 0
1, 268656, Note_on_c, 0, 74, 53
1, 268666, Control_c, 0, 64, 0
1, 268741, Control_c, 0, 64, 127
1, 268911, Note_on_c, 0, 74, 0
1, 268911, Note_on_c, 0, 73, 51
1, 269141, Control_c, 0, 64, 0
1, 269205, Note_on_c, 0, 73, 0
1, 269205, Note_on_c, 0, 73, 55
1, 269205, Note_on_c, 0, 63, 0
1, 269208, Note_on_c, 0, 57, 0
1, 269208, Note_on_c, 0, 65, 0
1, 269208, Note_on_c, 0, 62, 28
1, 269211, Note_on_c, 0, 58, 28
1, 269211, Note_on_c, 0, 65, 36
1, 269399, Control_c, 0, 64, 127
1, 270161, Control_c, 0, 64, 0
1, 270220, Note_on_c, 0, 73, 0
1, 270220, Note_on_c, 0, 74, 51
1, 270714, Note_on_c, 0, 74, 0
1, 270714, Note_on_c, 0, 77, 56
1, 270956, Note_on_c, 0, 77, 0
1, 270956, Note_on_c, 0, 76, 53
1, 271198, Note_on_c, 0, 76, 0
1, 271198, Note_on_c, 0, 79, 58
1, 271198, Note_on_c, 0, 65, 0
1, 271201, Note_on_c, 0, 58, 0
1, 271201, Note_on_c, 0, 62, 0
1, 271439, Note_on_c, 0, 79, 0
1, 271439, Note_on_c, 0, 77, 53
1, 271681, Note_on_c, 0, 77, 0
1, 271681, Note_on_c, 0, 76, 52
1, 271948, Note_on_c, 0, 76, 0
1, 271948, Note_on_c, 0, 74, 49
1, 272232, Note_on_c, 0, 74, 0
1, 272232, Note_on_c, 0, 74, 49
1, 272232, Note_on_c, 0, 58, 28
1, 272235, Note_on_c, 0, 53, 28
1, 272235, Note_on_c, 0, 62, 35
1, 272321, Control_c, 0, 64, 127
1, 273242, Note_on_c, 0, 74, 0
1, 273242, Note_on_c, 0, 72, 48
1, 273242, Note_on_c, 0, 62, 0
1, 273245, Note_on_c, 0, 58, 0
1, 273245, Note_on_c, 0, 57, 26
1, 273245, Note_on_c, 0, 60, 33
1, 273272, Control_c, 0, 64, 0
1, 273406, Control_c, 0, 64, 127
1, 273747, Note_on_c, 0, 72, 0
1, 273747, Note_on_c, 0, 77, 57
1, 273793, Control_c, 0, 64, 0
1, 273819, Control_c, 0, 64, 127
1, 274088, Note_on_c, 0, 77, 0
1, 274088, Note_on_c, 0, 72, 51
1, 274206, Note_on_c, 0, 72, 0
1, 274206, Note_on_c, 0, 81, 65
1, 274206, Note_on_c, 0, 60, 0
1, 274209, Note_on_c, 0, 57, 0
1, 274209, Note_on_c, 0, 53, 0
1, 274546, Note_on_c, 0, 81, 0
1, 274546, Note_on_c, 0, 77, 58
1, 274665, Note_on_c, 0, 77, 0
1, 274665, Note_on_c, 0, 72, 66
1, 275019, Note_on_c, 0, 72, 0
1, 275019, Note_on_c, 0, 69, 57
1, 275138, Note_on_c, 0, 69, 0
1, 275138, Note_on_c, 0, 72, 69
1, 275138, Note_on_c, 0, 55, 43
1, 275141, Note_on_c, 0, 60, 43
1, 275141, Note_on_c, 0, 52, 43
1, 275159, Control_c, 0, 64, 0
1, 275280, Control_c, 0, 64, 127
1, 275717, Control_c, 0, 64, 0
1, 275832, Note_on_c, 0, 72, 0
1, 275832, Note_on_c, 0, 71, 65
1, 276064, Note_on_c, 0, 71, 0
1, 276064, Note_on_c, 0, 70, 65
1, 276527, Note_on_c, 0, 70, 0
1, 276527, Note_on_c, 0, 64, 67
1, 276527, Note_on_c, 0, 67, 75
1, 276530, Note_on_c, 0, 52, 0
1, 276530, Note_on_c, 0, 60, 0
1, 276530, Note_on_c, 0, 55, 0
1, 276533, Note_on_c, 0, 46, 42
1, 276533, Note_on_c, 0, 58, 48
1, 276600, Control_c, 0, 64, 127
1, 276870, Note_on_c, 0, 64, 0
1, 276870, Note_on_c, 0, 60, 64
1, 276988, Note_on_c, 0, 60, 0
1, 276988, Note_on_c, 0, 67, 0
1, 276988, Note_on_c, 0, 69, 75
1, 276991, Note_on_c, 0, 65, 67
1, 276991, Note_on_c, 0, 58, 0
1, 276991, Note_on_c, 0, 46, 0
1, 276994, Note_on_c, 0, 57, 50
1, 276994, Note_on_c, 0, 45, 44
1, 277012, Control_c, 0, 64, 0
1, 277085, Control_c, 0, 64, 127
1, 277327, Note_on_c, 0, 65, 0
1, 277327, Note_on_c, 0, 60, 63
1, 277445, Note_on_c, 0, 60, 0
1, 277445, Note_on_c, 0, 69, 0
1, 277445, Note_on_c, 0, 67, 67
1, 277448, Note_on_c, 0, 70, 75
1, 277448, Note_on_c, 0, 45, 0
1, 277448, Note_on_c, 0, 57, 0
1, 277451, Note_on_c, 0, 43, 44
1, 277451, Note_on_c, 0, 55, 50
1, 277451, Control_c, 0, 64, 0
1, 277504, Control_c, 0, 64, 127
1, 277781, Note_on_c, 0, 67, 0
1, 277781, Note_on_c, 0, 60, 64
1, 277781, Control_c, 0, 64, 0
1, 277897, Note_on_c, 0, 60, 0
1, 277897, Note_on_c, 0, 70, 0
1, 277897, Note_on_c, 0, 72, 76
1, 277900, Note_on_c, 0, 69, 61
1, 277900, Note_on_c, 0, 55, 0
1, 277900, Note_on_c, 0, 43, 0
1, 277903, Note_on_c, 0, 41, 49
1, 277903, Note_on_c, 0, 53, 54
1, 278161, Note_on_c, 0, 72, 0
1, 278161, Note_on_c, 0, 74, 53
1, 278413, Note_on_c, 0, 74, 0
1, 278413, Note_on_c, 0, 69, 0
1, 278413, Note_on_c, 0, 76, 57
1, 278416, Note_on_c, 0, 53, 0
1, 278416, Note_on_c, 0, 41, 0
1, 278666, Note_on_c, 0, 76, 0
1, 278666, Note_on_c, 0, 77, 53
1, 278918, Note_on_c, 0, 77, 0
1, 278918, Note_on_c, 0, 60, 38
1, 278918, Note_on_c, 0, 65, 49
1, 278921, Note_on_c, 0, 57, 37
1, 278921, Note_on_c, 0, 48, 29
1, 278961, Control_c, 0, 64, 127
1, 279906, Note_on_c, 0, 57, 0
1, 279906, Note_on_c, 0, 58, 29
1, 279930, Control_c, 0, 64, 0
1, 280072, Control_c, 0, 64, 127
1, 280399, Note_on_c, 0, 65, 0
1, 280399, Note_on_c, 0, 60, 0
1, 280399, Note_on_c, 0, 64, 37
1, 280402, Note_on_c, 0, 69, 47
1, 280652, Note_on_c, 0, 69, 0
1, 280652, Note_on_c, 0, 67, 44
1, 280904, Note_on_c, 0, 67, 0
1, 280904, Note_on_c, 0, 64, 0
1, 280904, Note_on_c, 0, 65, 47
1, 280907, Note_on_c, 0, 58, 0
1, 280907, Note_on_c, 0, 48, 0
1, 280907, Control_c, 0, 64, 0
1, 280910, Note_on_c, 0, 53, 33
1, 280910, Note_on_c, 0, 57, 33
1, 281201, Control_c, 0, 64, 127
1, 281914, Note_on_c, 0, 65, 0
1, 281914, Note_on_c, 0, 57, 0
1, 281914, Note_on_c, 0, 53, 0
1, 281917, Note_on_c, 0, 41, 29
1, 282221, Control_c, 0, 64, 0
1, 282436, Control_c, 0, 91, 127
1, 282436, Note_on_c, 0, 60, 33
1, 282436, Note_on_c, 0, 69, 37
1, 282439, Note_on_c, 0, 41, 0
1, 282439, Control_c, 0, 91, 127
1, 282703, Control_c, 0, 64, 127
1, 282941, Note_on_c, 0, 69, 0
1, 282941, Note_on_c, 0, 60, 0
1, 282941, Note_on_c, 0, 60, 36
1, 282944, Note_on_c, 0, 69, 40
1, 283446, Note_on_c, 0, 69, 0
1, 283446, Note_on_c, 0, 60, 0
1, 283446, Note_on_c, 0, 60, 33
1, 283449, Note_on_c, 0, 69, 37
1, 283951, Note_on_c, 0, 69, 0
1, 283951, Note_on_c, 0, 60, 0
1, 283951, Note_on_c, 0, 69, 40
1, 283954, Note_on_c, 0, 60, 36
1, 283954, Note_on_c, 0, 41, 40
1, 283954, Control_c, 0, 64, 0
1, 284022, Control_c, 0, 64, 127
1, 284195, Note_on_c, 0, 41, 0
1, 284195, Note_on_c, 0, 53, 28
1, 284439, Note_on_c, 0, 53, 0
1, 284439, Note_on_c, 0, 53, 29
1, 284683, Note_on_c, 0, 53, 0
1, 284683, Note_on_c, 0, 53, 28
1, 284927, Note_on_c, 0, 53, 0
1, 284927, Note_on_c, 0, 53, 32
1, 285172, Note_on_c, 0, 53, 0
1, 285172, Note_on_c, 0, 53, 29
1, 285416, Note_on_c, 0, 60, 0
1, 285416, Note_on_c, 0, 69, 0
1, 285416, Note_on_c, 0, 65, 42
1, 285419, Note_on_c, 0, 57, 37
1, 285419, Note_on_c, 0, 53, 0
1, 285419, Note_on_c, 0, 53, 29
1, 285660, Note_on_c, 0, 53, 0
1, 285660, Note_on_c, 0, 53, 28
1, 285904, Note_on_c, 0, 57, 0
1, 285904, Note_on_c, 0, 65, 0
1, 285904, Note_on_c, 0, 67, 39
1, 285907, Note_on_c, 0, 70, 45
1, 285907, Note_on_c, 0, 53, 0
1, 285907, Note_on_c, 0, 53, 32
1, 285941, Control_c, 0, 64, 0
1, 286148, Note_on_c, 0, 53, 0
1, 286148, Note_on_c, 0, 53, 29
1, 286177, Control_c, 0, 64, 127
1, 286392, Note_on_c, 0, 70, 0
1, 286392, Note_on_c, 0, 67, 0
1, 286392, Note_on_c, 0, 64, 37
1, 286395, Note_on_c, 0, 67, 42
1, 286395, Note_on_c, 0, 53, 0
1, 286395, Note_on_c, 0, 53, 30
1, 286637, Note_on_c, 0, 53, 0
1, 286637, Note_on_c, 0, 53, 28
1, 286881, Note_on_c, 0, 67, 0
1, 286881, Note_on_c, 0, 64, 0
1, 286881, Note_on_c, 0, 72, 49
1, 286884, Note_on_c, 0, 69, 44
1, 286884, Note_on_c, 0, 53, 0
1, 286884, Note_on_c, 0, 41, 40
1, 286897, Control_c, 0, 64, 0
1, 287044, Control_c, 0, 64, 127
1, 287125, Note_on_c, 0, 41, 0
1, 287125, Note_on_c, 0, 53, 28
1, 287369, Note_on_c, 0, 53, 0
1, 287369, Note_on_c, 0, 53, 31
1, 287613, Note_on_c, 0, 53, 0
1, 287613, Note_on_c, 0, 53, 28
1, 287857, Note_on_c, 0, 53, 0
1, 287857, Note_on_c, 0, 38, 48
1, 287880, Control_c, 0, 64, 0
1, 287961, Control_c, 0, 64, 127
1, 288102, Note_on_c, 0, 38, 0
1, 288102, Note_on_c, 0, 50, 33
1, 288346, Note_on_c, 0, 69, 0
1, 288346, Note_on_c, 0, 72, 0
1, 288346, Note_on_c, 0, 77, 54
1, 288349, Note_on_c, 0, 69, 48
1, 288349, Note_on_c, 0, 50, 0
1, 288349, Note_on_c, 0, 50, 37
1, 288595, Note_on_c, 0, 50, 0
1, 288595, Note_on_c, 0, 50, 33
1, 288845, Note_on_c, 0, 69, 0
1, 288845, Note_on_c, 0, 77, 0
1, 288845, Note_on_c, 0, 69, 50
1, 288848, Note_on_c, 0, 77, 56
1, 288848, Note_on_c, 0, 50, 0
1, 288848, Note_on_c, 0, 35, 50
1, 288866, Control_c, 0, 64, 0
1, 288972, Control_c, 0, 64, 127
1, 289095, Note_on_c, 0, 35, 0
1, 289095, Note_on_c, 0, 47, 38
1, 289344, Note_on_c, 0, 77, 0
1, 289344, Note_on_c, 0, 69, 0
1, 289344, Note_on_c, 0, 77, 53
1, 289347, Note_on_c, 0, 69, 47
1, 289347, Note_on_c, 0, 47, 0
1, 289347, Note_on_c, 0, 47, 42
1, 289612, Note_on_c, 0, 47, 0
1, 289612, Note_on_c, 0, 47, 38
1, 289913, Note_on_c, 0, 69, 0
1, 289913, Note_on_c, 0, 77, 0
1, 289913, Note_on_c, 0, 69, 47
1, 289916, Note_on_c, 0, 65, 42
1, 289916, Note_on_c, 0, 47, 0
1, 289916, Note_on_c, 0, 36, 33
1, 289919, Control_c, 0, 64, 0
1, 290075, Control_c, 0, 64, 127
1, 290161, Note_on_c, 0, 36, 0
1, 290161, Note_on_c, 0, 48, 26
1, 290410, Note_on_c, 0, 48, 0
1, 290410, Note_on_c, 0, 48, 28
1, 290658, Note_on_c, 0, 48, 0
1, 290658, Note_on_c, 0, 48, 26
1, 290906, Note_on_c, 0, 48, 0
1, 290906, Note_on_c, 0, 48, 30
1, 291155, Note_on_c, 0, 48, 0
1, 291155, Note_on_c, 0, 48, 22
1, 291403, Note_on_c, 0, 65, 0
1, 291403, Note_on_c, 0, 69, 0
1, 291403, Note_on_c, 0, 69, 30
1, 291406, Note_on_c, 0, 72, 34
1, 291406, Note_on_c, 0, 48, 0
1, 291406, Note_on_c, 0, 48, 25
1, 291409, Control_c, 0, 64, 0
1, 291570, Control_c, 0, 64, 127
1, 291664, Note_on_c, 0, 48, 0
1, 291664, Note_on_c, 0, 48, 23
1, 291880, Control_c, 0, 64, 0
1, 291925, Note_on_c, 0, 72, 0
1, 291925, Note_on_c, 0, 69, 0
1, 291925, Note_on_c, 0, 67, 29
1, 291928, Note_on_c, 0, 70, 33
1, 291928, Note_on_c, 0, 48, 0
1, 291928, Note_on_c, 0, 48, 28
1, 292003, Control_c, 0, 64, 127
1, 292191, Note_on_c, 0, 48, 0
1, 292191, Note_on_c, 0, 48, 24
1, 292457, Note_on_c, 0, 70, 0
1, 292457, Note_on_c, 0, 67, 0
1, 292457, Note_on_c, 0, 64, 30
1, 292460, Note_on_c, 0, 58, 27
1, 292460, Note_on_c, 0, 67, 30
1, 292460, Note_on_c, 0, 48, 0
1, 292463, Note_on_c, 0, 48, 26
1, 292795, Note_on_c, 0, 48, 0
1, 292795, Note_on_c, 0, 48, 24
1, 293240, Note_on_c, 0, 67, 0
1, 293240, Note_on_c, 0, 58, 0
1, 293240, Note_on_c, 0, 64, 0
1, 293243, Note_on_c, 0, 65, 30
1, 293243, Note_on_c, 0, 57, 27
1, 293243, Note_on_c, 0, 48, 0
1, 293246, Note_on_c, 0, 41, 28
1, 293246, Control_c, 0, 64, 0
1, 293945, Control_c, 0, 64, 127
1, 294297, Note_on_c, 0, 57, 0
1, 294297, Note_on_c, 0, 65, 0
1, 294297, Note_on_c, 0, 41, 0
1, 294826, Control_c, 0, 64, 0
1, 296324, End_track
0, 0, End_of_file
