0, 0, Header, 1, 2, 480
1, 0, Start_track
1, 0, Title_t, "untitled"
1, 0, Time_signature, 4, 2, 24, 8
1, 0, Key_signature, 0, "major"
1, 0, Tempo, 500000
1, 0, Marker_t, "Andante grazioso"
1, 433920, Marker_t, "Menuetto"
1, 660480, Marker_t, "Alla Turca: Allegretto"
1, 660480, End_track
2, 0, Start_track
2, 0, Title_t, "Mozart: Sonata in A Major"
2, 0, Program_c, 0, 0
2, 0, Control_c, 0, 7, 110
2, 0, Control_c, 0, 91, 127
2, 0, Control_c, 0, 64, 127
2, 0, Note_on_c, 0, 73, 32
2, 8, Note_on_c, 0, 64, 28
2, 38, Note_on_c, 0, 57, 21
2, 474, Note_on_c, 0, 57, 0
2, 514, Note_on_c, 0, 64, 0
2, 574, Note_on_c, 0, 74, 57
2, 596, Note_on_c, 0, 73, 0
2, 612, Note_on_c, 0, 59, 31
2, 736, Note_on_c, 0, 59, 0
2, 742, Note_on_c, 0, 73, 76
2, 756, Control_c, 0, 64, 0
2, 756, Note_on_c, 0, 57, 46
2, 788, Note_on_c, 0, 64, 42
2, 791, Note_on_c, 0, 74, 0
2, 916, Note_on_c, 0, 64, 0
2, 1016, Control_c, 0, 64, 127
2, 1140, Control_c, 0, 64, 0
2, 1160, Note_on_c, 0, 76, 57
2, 1176, Note_on_c, 0, 61, 31
2, 1182, Note_on_c, 0, 64, 38
2, 1188, Note_on_c, 0, 57, 0
2, 1202, Note_on_c, 0, 73, 0
2, 1484, Note_on_c, 0, 64, 0
2, 1508, Control_c, 0, 64, 127
2, 1536, Note_on_c, 0, 61, 0
2, 1586, Note_on_c, 0, 76, 0
2, 1892, Control_c, 0, 64, 0
2, 1932, Note_on_c, 0, 76, 45
2, 1944, Note_on_c, 0, 64, 31
2, 1948, Note_on_c, 0, 61, 29
2, 2104, Note_on_c, 0, 64, 0
2, 2108, Control_c, 0, 64, 127
2, 2152, Note_on_c, 0, 76, 0
2, 2174, Note_on_c, 0, 61, 0
2, 2384, Note_on_c, 0, 71, 68
2, 2400, Note_on_c, 0, 56, 28
2, 2410, Note_on_c, 0, 64, 33
2, 2554, Control_c, 0, 64, 0
2, 2798, Control_c, 0, 64, 127
2, 2808, Note_on_c, 0, 64, 0
2, 2862, Note_on_c, 0, 56, 0
2, 2934, Note_on_c, 0, 73, 51
2, 2936, Note_on_c, 0, 71, 0
2, 2954, Note_on_c, 0, 57, 31
2, 3074, Note_on_c, 0, 57, 0
2, 3106, Control_c, 0, 64, 0
2, 3128, Note_on_c, 0, 71, 68
2, 3130, Note_on_c, 0, 56, 40
2, 3136, Note_on_c, 0, 73, 0
2, 3160, Note_on_c, 0, 64, 37
2, 3300, Note_on_c, 0, 64, 0
2, 3398, Control_c, 0, 64, 127
2, 3536, Control_c, 0, 64, 0
2, 3574, Note_on_c, 0, 74, 52
2, 3582, Note_on_c, 0, 56, 0
2, 3594, Note_on_c, 0, 71, 0
2, 3602, Note_on_c, 0, 64, 36
2, 3628, Note_on_c, 0, 59, 23
2, 3910, Note_on_c, 0, 64, 0
2, 3920, Control_c, 0, 64, 127
2, 3936, Note_on_c, 0, 74, 0
2, 3968, Note_on_c, 0, 59, 0
2, 4376, Note_on_c, 0, 74, 42
2, 4410, Note_on_c, 0, 59, 17
2, 4412, Note_on_c, 0, 64, 24
2, 4412, Control_c, 0, 64, 0
2, 4544, Note_on_c, 0, 64, 0
2, 4598, Control_c, 0, 64, 127
2, 4676, Note_on_c, 0, 59, 0
2, 4800, Note_on_c, 0, 74, 0
2, 4842, Note_on_c, 0, 69, 44
2, 4882, Note_on_c, 0, 64, 37
2, 4882, Note_on_c, 0, 54, 28
2, 5088, Control_c, 0, 64, 0
2, 5254, Note_on_c, 0, 64, 0
2, 5288, Control_c, 0, 64, 127
2, 5304, Note_on_c, 0, 54, 0
2, 5374, Note_on_c, 0, 69, 0
2, 5628, Note_on_c, 0, 69, 55
2, 5638, Note_on_c, 0, 54, 41
2, 5664, Note_on_c, 0, 64, 24
2, 5740, Note_on_c, 0, 64, 0
2, 5774, Note_on_c, 0, 54, 0
2, 6048, Note_on_c, 0, 69, 0
2, 6048, Note_on_c, 0, 71, 77
2, 6082, Note_on_c, 0, 56, 32
2, 6082, Note_on_c, 0, 64, 37
2, 6180, Control_c, 0, 64, 0
2, 6386, Note_on_c, 0, 64, 0
2, 6486, Control_c, 0, 64, 127
2, 6512, Note_on_c, 0, 56, 0
2, 6586, Note_on_c, 0, 71, 0
2, 6758, Note_on_c, 0, 71, 70
2, 6778, Note_on_c, 0, 56, 38
2, 6800, Note_on_c, 0, 64, 33
2, 6882, Note_on_c, 0, 64, 0
2, 6936, Note_on_c, 0, 56, 0
2, 7200, Note_on_c, 0, 73, 60
2, 7236, Note_on_c, 0, 57, 29
2, 7236, Note_on_c, 0, 64, 33
2, 7300, Control_c, 0, 64, 0
2, 7314, Note_on_c, 0, 71, 0
2, 7638, Control_c, 0, 64, 127
2, 7742, Note_on_c, 0, 64, 0
2, 7966, Note_on_c, 0, 57, 0
2, 8012, Note_on_c, 0, 76, 40
2, 8026, Note_on_c, 0, 73, 0
2, 8034, Note_on_c, 0, 50, 30
2, 8038, Note_on_c, 0, 71, 23
2, 8084, Control_c, 0, 64, 0
2, 8236, Note_on_c, 0, 74, 67
2, 8254, Control_c, 0, 64, 127
2, 8268, Note_on_c, 0, 76, 0
2, 8310, Note_on_c, 0, 74, 0
2, 8372, Note_on_c, 0, 71, 0
2, 8454, Control_c, 0, 64, 0
2, 8490, Note_on_c, 0, 73, 53
2, 8495, Note_on_c, 0, 69, 26
2, 8508, Note_on_c, 0, 52, 30
2, 8518, Note_on_c, 0, 50, 0
2, 9130, Control_c, 0, 64, 127
2, 9390, Control_c, 0, 64, 0
2, 9416, Note_on_c, 0, 71, 38
2, 9419, Note_on_c, 0, 69, 0
2, 9422, Note_on_c, 0, 68, 16
2, 9462, Note_on_c, 0, 73, 0
2, 9652, Control_c, 0, 64, 127
2, 9658, Note_on_c, 0, 52, 0
2, 9698, Note_on_c, 0, 68, 0
2, 9704, Note_on_c, 0, 71, 0
2, 10012, Note_on_c, 0, 73, 55
2, 10052, Note_on_c, 0, 64, 30
2, 10058, Note_on_c, 0, 57, 24
2, 10236, Control_c, 0, 64, 0
2, 10496, Control_c, 0, 64, 127
2, 10560, Note_on_c, 0, 64, 0
2, 10600, Note_on_c, 0, 57, 0
2, 10628, Note_on_c, 0, 74, 59
2, 10668, Note_on_c, 0, 59, 34
2, 10684, Note_on_c, 0, 73, 0
2, 10788, Note_on_c, 0, 59, 0
2, 10820, Note_on_c, 0, 73, 77
2, 10858, Note_on_c, 0, 57, 40
2, 10861, Note_on_c, 0, 64, 36
2, 10878, Note_on_c, 0, 74, 0
2, 10882, Control_c, 0, 64, 0
2, 11050, Note_on_c, 0, 64, 0
2, 11112, Control_c, 0, 64, 127
2, 11252, Note_on_c, 0, 76, 68
2, 11280, Note_on_c, 0, 64, 36
2, 11290, Note_on_c, 0, 61, 28
2, 11298, Note_on_c, 0, 57, 0
2, 11316, Note_on_c, 0, 73, 0
2, 11434, Control_c, 0, 64, 0
2, 11614, Note_on_c, 0, 64, 0
2, 11680, Control_c, 0, 64, 127
2, 11754, Note_on_c, 0, 61, 0
2, 11814, Note_on_c, 0, 76, 0
2, 12072, Note_on_c, 0, 76, 52
2, 12082, Note_on_c, 0, 61, 32
2, 12092, Note_on_c, 0, 64, 28
2, 12224, Note_on_c, 0, 64, 0
2, 12366, Note_on_c, 0, 61, 0
2, 12538, Note_on_c, 0, 71, 76
2, 12558, Note_on_c, 0, 64, 38
2, 12562, Note_on_c, 0, 56, 32
2, 12602, Control_c, 0, 64, 0
2, 12622, Note_on_c, 0, 76, 0
2, 12900, Note_on_c, 0, 64, 0
2, 12924, Control_c, 0, 64, 127
2, 13118, Note_on_c, 0, 56, 0
2, 13150, Note_on_c, 0, 73, 52
2, 13158, Note_on_c, 0, 71, 0
2, 13200, Note_on_c, 0, 64, 22
2, 13204, Note_on_c, 0, 57, 18
2, 13268, Note_on_c, 0, 64, 0
2, 13336, Note_on_c, 0, 71, 70
2, 13344, Note_on_c, 0, 57, 0
2, 13354, Control_c, 0, 64, 0
2, 13360, Note_on_c, 0, 64, 51
2, 13364, Note_on_c, 0, 73, 0
2, 13370, Note_on_c, 0, 56, 45
2, 13560, Note_on_c, 0, 64, 0
2, 13600, Control_c, 0, 64, 127
2, 13806, Note_on_c, 0, 74, 57
2, 13816, Control_c, 0, 64, 0
2, 13830, Note_on_c, 0, 71, 0
2, 13834, Note_on_c, 0, 64, 38
2, 13846, Note_on_c, 0, 56, 0
2, 13858, Note_on_c, 0, 59, 19
2, 14118, Note_on_c, 0, 64, 0
2, 14138, Control_c, 0, 64, 127
2, 14320, Note_on_c, 0, 59, 0
2, 14414, Note_on_c, 0, 74, 0
2, 14636, Note_on_c, 0, 74, 53
2, 14672, Note_on_c, 0, 59, 24
2, 14675, Note_on_c, 0, 64, 16
2, 14808, Note_on_c, 0, 64, 0
2, 15134, Note_on_c, 0, 69, 48
2, 15168, Note_on_c, 0, 54, 40
2, 15184, Note_on_c, 0, 64, 28
2, 15218, Note_on_c, 0, 59, 0
2, 15236, Note_on_c, 0, 74, 0
2, 15338, Control_c, 0, 64, 0
2, 15584, Control_c, 0, 64, 127
2, 15610, Note_on_c, 0, 64, 0
2, 15928, Note_on_c, 0, 71, 65
2, 15942, Note_on_c, 0, 56, 41
2, 15968, Note_on_c, 0, 64, 39
2, 15970, Note_on_c, 0, 69, 0
2, 15998, Note_on_c, 0, 54, 0
2, 16014, Control_c, 0, 64, 0
2, 16156, Note_on_c, 0, 64, 0
2, 16212, Control_c, 0, 64, 127
2, 16370, Note_on_c, 0, 73, 47
2, 16400, Note_on_c, 0, 56, 0
2, 16408, Note_on_c, 0, 64, 32
2, 16408, Note_on_c, 0, 57, 21
2, 16412, Control_c, 0, 64, 0
2, 16414, Note_on_c, 0, 71, 0
2, 16674, Control_c, 0, 64, 127
2, 16704, Note_on_c, 0, 64, 0
2, 16798, Note_on_c, 0, 57, 0
2, 16830, Note_on_c, 0, 73, 0
2, 17246, Note_on_c, 0, 74, 87
2, 17248, Note_on_c, 0, 66, 54
2, 17258, Note_on_c, 0, 71, 60
2, 17268, Note_on_c, 0, 50, 56
2, 17366, Control_c, 0, 64, 0
2, 17564, Control_c, 0, 64, 127
2, 17602, Note_on_c, 0, 66, 0
2, 17708, Note_on_c, 0, 71, 0
2, 17738, Note_on_c, 0, 73, 62
2, 17760, Note_on_c, 0, 69, 30
2, 17762, Note_on_c, 0, 50, 0
2, 17770, Note_on_c, 0, 52, 46
2, 17770, Note_on_c, 0, 64, 36
2, 17796, Note_on_c, 0, 74, 0
2, 17810, Control_c, 0, 64, 0
2, 18118, Control_c, 0, 64, 127
2, 18158, Note_on_c, 0, 69, 0
2, 18270, Note_on_c, 0, 64, 0
2, 18346, Note_on_c, 0, 73, 0
2, 18574, Note_on_c, 0, 52, 0
2, 18670, Note_on_c, 0, 71, 44
2, 18674, Note_on_c, 0, 40, 51
2, 18684, Note_on_c, 0, 68, 26
2, 18696, Note_on_c, 0, 62, 33
2, 18702, Control_c, 0, 64, 0
2, 18712, Note_on_c, 0, 64, 33
2, 18918, Control_c, 0, 64, 127
2, 18928, Note_on_c, 0, 64, 0
2, 18938, Note_on_c, 0, 62, 0
2, 18984, Note_on_c, 0, 68, 0
2, 19190, Note_on_c, 0, 69, 34
2, 19202, Note_on_c, 0, 61, 40
2, 19214, Note_on_c, 0, 40, 0
2, 19224, Control_c, 0, 64, 0
2, 19234, Note_on_c, 0, 45, 21
2, 19254, Note_on_c, 0, 64, 32
2, 19294, Note_on_c, 0, 71, 0
2, 19686, Control_c, 0, 64, 127
2, 19780, Note_on_c, 0, 45, 0
2, 19780, Note_on_c, 0, 64, 0
2, 19783, Note_on_c, 0, 61, 0
2, 19812, Note_on_c, 0, 69, 0
2, 20316, Control_c, 0, 64, 0
2, 20728, Note_on_c, 0, 76, 54
2, 20744, Note_on_c, 0, 57, 25
2, 20852, Control_c, 0, 64, 127
2, 21106, Note_on_c, 0, 61, 30
2, 21130, Note_on_c, 0, 57, 0
2, 21304, Note_on_c, 0, 78, 72
2, 21354, Note_on_c, 0, 76, 0
2, 21504, Note_on_c, 0, 76, 82
2, 21516, Note_on_c, 0, 61, 0
2, 21524, Note_on_c, 0, 64, 38
2, 21582, Note_on_c, 0, 78, 0
2, 21840, Note_on_c, 0, 64, 0
2, 21932, Note_on_c, 0, 78, 71
2, 21980, Note_on_c, 0, 57, 25
2, 22006, Control_c, 0, 64, 0
2, 22054, Note_on_c, 0, 76, 0
2, 22384, Note_on_c, 0, 62, 28
2, 22482, Control_c, 0, 64, 127
2, 22530, Note_on_c, 0, 57, 0
2, 22612, Note_on_c, 0, 78, 0
2, 22698, Note_on_c, 0, 62, 0
2, 22730, Note_on_c, 0, 78, 84
2, 22758, Note_on_c, 0, 66, 34
2, 22854, Note_on_c, 0, 78, 0
2, 22928, Note_on_c, 0, 66, 0
2, 23156, Note_on_c, 0, 78, 75
2, 23174, Note_on_c, 0, 57, 28
2, 23254, Note_on_c, 0, 78, 0
2, 23257, Note_on_c, 0, 80, 54
2, 23264, Control_c, 0, 64, 0
2, 23368, Note_on_c, 0, 81, 79
2, 23371, Note_on_c, 0, 80, 0
2, 23712, Note_on_c, 0, 62, 32
2, 23726, Control_c, 0, 64, 127
2, 23930, Note_on_c, 0, 80, 68
2, 23944, Note_on_c, 0, 81, 0
2, 24122, Note_on_c, 0, 80, 0
2, 24125, Note_on_c, 0, 78, 71
2, 24132, Note_on_c, 0, 66, 28
2, 24156, Control_c, 0, 64, 0
2, 24264, Note_on_c, 0, 57, 0
2, 24306, Note_on_c, 0, 62, 0
2, 24326, Control_c, 0, 64, 127
2, 24370, Note_on_c, 0, 78, 0
2, 24412, Note_on_c, 0, 66, 0
2, 24570, Note_on_c, 0, 78, 59
2, 24604, Note_on_c, 0, 57, 22
2, 24802, Control_c, 0, 64, 0
2, 24956, Control_c, 0, 64, 127
2, 24976, Note_on_c, 0, 61, 26
2, 24986, Control_c, 0, 64, 0
2, 25000, Note_on_c, 0, 78, 0
2, 25002, Note_on_c, 0, 76, 41
2, 25232, Control_c, 0, 64, 127
2, 25240, Note_on_c, 0, 76, 0
2, 25402, Note_on_c, 0, 57, 0
2, 25406, Note_on_c, 0, 61, 0
2, 25426, Note_on_c, 0, 76, 30
2, 25450, Note_on_c, 0, 64, 17
2, 25502, Note_on_c, 0, 76, 0
2, 25564, Note_on_c, 0, 64, 0
2, 25846, Control_c, 0, 64, 0
2, 25890, Note_on_c, 0, 76, 52
2, 25900, Note_on_c, 0, 61, 30
2, 25924, Note_on_c, 0, 57, 33
2, 26292, Control_c, 0, 64, 127
2, 26302, Note_on_c, 0, 73, 49
2, 26354, Note_on_c, 0, 76, 0
2, 26376, Note_on_c, 0, 57, 0
2, 26430, Note_on_c, 0, 61, 0
2, 26684, Note_on_c, 0, 73, 0
2, 26694, Note_on_c, 0, 69, 39
2, 26722, Control_c, 0, 64, 0
2, 26916, Note_on_c, 0, 69, 0
2, 26952, Control_c, 0, 64, 127
2, 27030, Control_c, 0, 64, 0
2, 27134, Note_on_c, 0, 76, 69
2, 27144, Note_on_c, 0, 56, 32
2, 27146, Note_on_c, 0, 62, 39
2, 27444, Control_c, 0, 64, 127
2, 27554, Note_on_c, 0, 74, 82
2, 27602, Note_on_c, 0, 62, 0
2, 27614, Note_on_c, 0, 56, 0
2, 27730, Note_on_c, 0, 76, 0
2, 27946, Note_on_c, 0, 74, 0
2, 27958, Note_on_c, 0, 71, 79
2, 28028, Control_c, 0, 64, 0
2, 28150, Note_on_c, 0, 71, 0
2, 28260, Control_c, 0, 64, 127
2, 28320, Control_c, 0, 64, 0
2, 28378, Note_on_c, 0, 76, 77
2, 28388, Note_on_c, 0, 61, 38
2, 28414, Note_on_c, 0, 57, 30
2, 28674, Control_c, 0, 64, 127
2, 28886, Note_on_c, 0, 73, 54
2, 28950, Control_c, 0, 64, 0
2, 28954, Note_on_c, 0, 76, 0
2, 29100, Note_on_c, 0, 57, 0
2, 29120, Control_c, 0, 64, 127
2, 29136, Note_on_c, 0, 61, 0
2, 29156, Note_on_c, 0, 73, 0
2, 29288, Control_c, 0, 64, 0
2, 29304, Note_on_c, 0, 69, 52
2, 29324, Note_on_c, 0, 63, 46
2, 29348, Note_on_c, 0, 54, 30
2, 29520, Control_c, 0, 64, 127
2, 29556, Note_on_c, 0, 69, 0
2, 29588, Note_on_c, 0, 54, 0
2, 29626, Note_on_c, 0, 63, 0
2, 29796, Control_c, 0, 64, 0
2, 29876, Note_on_c, 0, 73, 57
2, 29898, Note_on_c, 0, 69, 36
2, 29914, Note_on_c, 0, 64, 38
2, 29930, Note_on_c, 0, 52, 34
2, 30348, Control_c, 0, 64, 127
2, 30948, Control_c, 0, 64, 0
2, 30958, Note_on_c, 0, 64, 0
2, 30964, Note_on_c, 0, 68, 28
2, 30970, Note_on_c, 0, 71, 34
2, 30972, Note_on_c, 0, 73, 0
2, 30982, Note_on_c, 0, 69, 0
2, 31194, Control_c, 0, 64, 127
2, 31222, Note_on_c, 0, 52, 0
2, 31230, Note_on_c, 0, 68, 0
2, 31274, Note_on_c, 0, 71, 0
2, 31698, Note_on_c, 0, 73, 49
2, 31715, Note_on_c, 0, 57, 23
2, 31724, Note_on_c, 0, 64, 29
2, 31732, Control_c, 0, 64, 0
2, 32116, Control_c, 0, 64, 127
2, 32194, Note_on_c, 0, 57, 0
2, 32199, Note_on_c, 0, 64, 0
2, 32348, Note_on_c, 0, 74, 53
2, 32362, Note_on_c, 0, 73, 0
2, 32376, Note_on_c, 0, 59, 11
2, 32420, Note_on_c, 0, 74, 0
2, 32470, Note_on_c, 0, 59, 0
2, 32500, Control_c, 0, 64, 0
2, 32516, Note_on_c, 0, 73, 64
2, 32534, Note_on_c, 0, 57, 26
2, 32538, Note_on_c, 0, 64, 32
2, 32724, Note_on_c, 0, 64, 0
2, 32776, Control_c, 0, 64, 127
2, 32946, Control_c, 0, 64, 0
2, 32976, Note_on_c, 0, 76, 49
2, 32992, Note_on_c, 0, 61, 26
2, 32998, Note_on_c, 0, 57, 0
2, 33002, Note_on_c, 0, 64, 37
2, 33010, Note_on_c, 0, 73, 0
2, 33230, Note_on_c, 0, 64, 0
2, 33284, Control_c, 0, 64, 127
2, 33340, Note_on_c, 0, 61, 0
2, 33444, Note_on_c, 0, 76, 0
2, 33776, Note_on_c, 0, 76, 48
2, 33796, Note_on_c, 0, 61, 22
2, 33808, Note_on_c, 0, 64, 18
2, 33918, Note_on_c, 0, 64, 0
2, 34012, Note_on_c, 0, 61, 0
2, 34246, Note_on_c, 0, 71, 69
2, 34262, Note_on_c, 0, 56, 32
2, 34276, Note_on_c, 0, 64, 36
2, 34298, Control_c, 0, 64, 0
2, 34326, Note_on_c, 0, 76, 0
2, 34602, Note_on_c, 0, 64, 0
2, 34605, Control_c, 0, 64, 127
2, 34800, Note_on_c, 0, 56, 0
2, 34852, Note_on_c, 0, 73, 52
2, 34854, Note_on_c, 0, 71, 0
2, 34878, Note_on_c, 0, 57, 30
2, 35032, Note_on_c, 0, 57, 0
2, 35035, Control_c, 0, 64, 0
2, 35040, Note_on_c, 0, 56, 45
2, 35042, Note_on_c, 0, 71, 59
2, 35054, Note_on_c, 0, 64, 32
2, 35096, Note_on_c, 0, 73, 0
2, 35184, Note_on_c, 0, 64, 0
2, 35266, Control_c, 0, 64, 127
2, 35434, Control_c, 0, 64, 0
2, 35440, Note_on_c, 0, 56, 0
2, 35478, Note_on_c, 0, 71, 0
2, 35478, Note_on_c, 0, 74, 53
2, 35504, Note_on_c, 0, 64, 34
2, 35512, Note_on_c, 0, 59, 30
2, 35896, Control_c, 0, 64, 127
2, 36038, Note_on_c, 0, 64, 0
2, 36100, Note_on_c, 0, 59, 0
2, 36106, Note_on_c, 0, 74, 0
2, 36344, Note_on_c, 0, 74, 45
2, 36388, Note_on_c, 0, 59, 26
2, 36388, Note_on_c, 0, 64, 13
2, 36534, Note_on_c, 0, 64, 0
2, 36718, Note_on_c, 0, 59, 0
2, 36832, Note_on_c, 0, 74, 0
2, 36836, Note_on_c, 0, 69, 42
2, 36854, Note_on_c, 0, 64, 39
2, 36872, Note_on_c, 0, 54, 39
2, 37078, Control_c, 0, 64, 0
2, 37278, Control_c, 0, 64, 127
2, 37314, Note_on_c, 0, 64, 0
2, 37622, Note_on_c, 0, 56, 45
2, 37638, Note_on_c, 0, 71, 68
2, 37652, Note_on_c, 0, 64, 33
2, 37706, Note_on_c, 0, 54, 0
2, 37734, Note_on_c, 0, 69, 0
2, 37786, Control_c, 0, 64, 0
2, 37902, Note_on_c, 0, 64, 0
2, 37938, Control_c, 0, 64, 127
2, 38070, Note_on_c, 0, 73, 62
2, 38096, Note_on_c, 0, 57, 39
2, 38096, Note_on_c, 0, 64, 34
2, 38102, Note_on_c, 0, 56, 0
2, 38152, Note_on_c, 0, 71, 0
2, 38308, Control_c, 0, 64, 0
2, 38492, Control_c, 0, 64, 127
2, 38494, Note_on_c, 0, 64, 0
2, 38628, Note_on_c, 0, 57, 0
2, 38642, Note_on_c, 0, 73, 0
2, 38886, Note_on_c, 0, 66, 63
2, 38890, Note_on_c, 0, 74, 91
2, 38890, Note_on_c, 0, 50, 77
2, 38894, Note_on_c, 0, 71, 70
2, 39014, Control_c, 0, 64, 0
2, 39184, Control_c, 0, 64, 127
2, 39244, Note_on_c, 0, 66, 0
2, 39260, Note_on_c, 0, 71, 0
2, 39376, Note_on_c, 0, 50, 0
2, 39396, Note_on_c, 0, 73, 69
2, 39425, Note_on_c, 0, 52, 49
2, 39432, Note_on_c, 0, 74, 0
2, 39432, Note_on_c, 0, 64, 42
2, 39432, Note_on_c, 0, 69, 40
2, 39522, Control_c, 0, 64, 0
2, 39874, Control_c, 0, 64, 127
2, 39940, Note_on_c, 0, 64, 0
2, 39996, Note_on_c, 0, 69, 0
2, 40272, Note_on_c, 0, 71, 70
2, 40286, Note_on_c, 0, 68, 32
2, 40298, Note_on_c, 0, 52, 0
2, 40312, Note_on_c, 0, 40, 55
2, 40322, Note_on_c, 0, 64, 36
2, 40362, Note_on_c, 0, 73, 0
2, 40365, Control_c, 0, 64, 0
2, 40520, Control_c, 0, 64, 127
2, 40556, Note_on_c, 0, 64, 0
2, 40558, Note_on_c, 0, 68, 0
2, 40580, Note_on_c, 0, 71, 0
2, 40734, Note_on_c, 0, 40, 0
2, 40748, Note_on_c, 0, 71, 67
2, 40751, Note_on_c, 0, 68, 47
2, 40770, Note_on_c, 0, 45, 30
2, 40774, Note_on_c, 0, 64, 47
2, 41104, Control_c, 0, 64, 0
2, 41442, Control_c, 0, 64, 127
2, 41600, Note_on_c, 0, 68, 0
2, 41642, Control_c, 0, 64, 0
2, 41658, Note_on_c, 0, 73, 38
2, 41668, Note_on_c, 0, 69, 30
2, 41678, Note_on_c, 0, 71, 0
2, 41804, Note_on_c, 0, 45, 0
2, 41842, Control_c, 0, 64, 127
2, 41864, Note_on_c, 0, 69, 0
2, 41938, Note_on_c, 0, 64, 0
2, 41980, Note_on_c, 0, 73, 0
2, 42194, Note_on_c, 0, 73, 103
2, 42200, Note_on_c, 0, 69, 77
2, 42206, Note_on_c, 0, 57, 75
2, 42208, Note_on_c, 0, 45, 80
2, 42208, Note_on_c, 0, 64, 80
2, 42756, Note_on_c, 0, 69, 0
2, 42780, Note_on_c, 0, 64, 0
2, 42828, Note_on_c, 0, 57, 0
2, 42834, Note_on_c, 0, 45, 0
2, 42984, Note_on_c, 0, 74, 110
2, 42996, Note_on_c, 0, 68, 69
2, 42998, Note_on_c, 0, 47, 77
2, 42998, Note_on_c, 0, 59, 68
2, 43001, Note_on_c, 0, 64, 70
2, 43040, Control_c, 0, 64, 0
2, 43058, Note_on_c, 0, 73, 0
2, 43210, Control_c, 0, 64, 127
2, 43246, Note_on_c, 0, 59, 0
2, 43280, Note_on_c, 0, 64, 0
2, 43290, Note_on_c, 0, 47, 0
2, 43316, Note_on_c, 0, 74, 0
2, 43338, Note_on_c, 0, 68, 0
2, 43424, Note_on_c, 0, 76, 108
2, 43436, Note_on_c, 0, 61, 74
2, 43446, Note_on_c, 0, 64, 57
2, 43450, Note_on_c, 0, 49, 56
2, 43450, Note_on_c, 0, 69, 51
2, 43562, Control_c, 0, 64, 0
2, 43900, Note_on_c, 0, 64, 0
2, 43916, Control_c, 0, 64, 127
2, 44026, Note_on_c, 0, 69, 0
2, 44192, Note_on_c, 0, 61, 0
2, 44210, Note_on_c, 0, 49, 0
2, 44244, Note_on_c, 0, 76, 0
2, 44384, Note_on_c, 0, 78, 100
2, 44430, Note_on_c, 0, 50, 42
2, 44434, Note_on_c, 0, 62, 24
2, 44484, Control_c, 0, 64, 0
2, 44684, Control_c, 0, 64, 127
2, 44756, Note_on_c, 0, 80, 87
2, 44784, Note_on_c, 0, 62, 0
2, 44846, Note_on_c, 0, 78, 0
2, 44898, Note_on_c, 0, 81, 88
2, 44952, Note_on_c, 0, 80, 0
2, 45056, Note_on_c, 0, 69, 77
2, 45068, Note_on_c, 0, 61, 41
2, 45070, Control_c, 0, 64, 0
2, 45094, Note_on_c, 0, 52, 33
2, 45116, Note_on_c, 0, 81, 0
2, 45202, Note_on_c, 0, 50, 0
2, 45622, Control_c, 0, 64, 127
2, 45702, Note_on_c, 0, 52, 0
2, 45798, Note_on_c, 0, 61, 0
2, 46014, Note_on_c, 0, 73, 59
2, 46022, Note_on_c, 0, 68, 37
2, 46052, Note_on_c, 0, 62, 29
2, 46066, Note_on_c, 0, 69, 0
2, 46074, Note_on_c, 0, 52, 36
2, 46082, Control_c, 0, 64, 0
2, 46316, Note_on_c, 0, 71, 57
2, 46380, Note_on_c, 0, 73, 0
2, 46648, Note_on_c, 0, 62, 0
2, 46668, Note_on_c, 0, 71, 0
2, 46672, Note_on_c, 0, 68, 0
2, 46672, Note_on_c, 0, 69, 37
2, 46688, Note_on_c, 0, 61, 26
2, 46730, Note_on_c, 0, 57, 9
2, 46782, Note_on_c, 0, 52, 0
2, 47250, Control_c, 0, 64, 127
2, 47908, Note_on_c, 0, 61, 0
2, 47922, Note_on_c, 0, 57, 0
2, 47948, Note_on_c, 0, 69, 0
2, 47972, Control_c, 0, 64, 0
2, 48620, Note_on_c, 0, 72, 45
2, 48874, Note_on_c, 0, 73, 38
2, 48892, Note_on_c, 0, 72, 0
2, 49090, Note_on_c, 0, 64, 39
2, 49092, Note_on_c, 0, 57, 33
2, 49144, Note_on_c, 0, 73, 0
2, 49156, Control_c, 0, 64, 127
2, 49300, Note_on_c, 0, 73, 67
2, 49400, Control_c, 0, 64, 0
2, 49474, Note_on_c, 0, 64, 0
2, 49526, Note_on_c, 0, 57, 0
2, 49529, Note_on_c, 0, 72, 79
2, 49582, Note_on_c, 0, 73, 0
2, 49730, Note_on_c, 0, 73, 76
2, 49796, Note_on_c, 0, 72, 0
2, 49944, Note_on_c, 0, 75, 68
2, 50002, Note_on_c, 0, 73, 0
2, 50206, Note_on_c, 0, 76, 46
2, 50227, Note_on_c, 0, 75, 0
2, 50436, Note_on_c, 0, 61, 32
2, 50446, Note_on_c, 0, 64, 41
2, 50480, Note_on_c, 0, 76, 0
2, 50492, Control_c, 0, 64, 127
2, 50658, Note_on_c, 0, 76, 74
2, 50746, Note_on_c, 0, 64, 0
2, 50794, Note_on_c, 0, 61, 0
2, 50846, Control_c, 0, 64, 0
2, 50874, Note_on_c, 0, 78, 71
2, 50906, Note_on_c, 0, 76, 0
2, 51088, Note_on_c, 0, 76, 68
2, 51092, Control_c, 0, 64, 127
2, 51118, Note_on_c, 0, 78, 0
2, 51204, Note_on_c, 0, 76, 0
2, 51310, Note_on_c, 0, 76, 40
2, 51368, Control_c, 0, 64, 0
2, 51624, Note_on_c, 0, 71, 40
2, 51668, Note_on_c, 0, 76, 0
2, 51884, Note_on_c, 0, 56, 26
2, 51894, Note_on_c, 0, 64, 36
2, 51928, Note_on_c, 0, 71, 0
2, 51936, Control_c, 0, 64, 127
2, 52110, Note_on_c, 0, 71, 61
2, 52244, Control_c, 0, 64, 0
2, 52266, Note_on_c, 0, 64, 0
2, 52308, Note_on_c, 0, 56, 0
2, 52334, Note_on_c, 0, 70, 57
2, 52372, Note_on_c, 0, 71, 0
2, 52550, Note_on_c, 0, 71, 65
2, 52586, Note_on_c, 0, 70, 0
2, 52792, Note_on_c, 0, 73, 54
2, 52816, Note_on_c, 0, 71, 0
2, 53060, Note_on_c, 0, 74, 40
2, 53086, Note_on_c, 0, 73, 0
2, 53318, Note_on_c, 0, 64, 33
2, 53324, Note_on_c, 0, 59, 29
2, 53338, Note_on_c, 0, 74, 0
2, 53380, Control_c, 0, 64, 127
2, 53524, Note_on_c, 0, 74, 72
2, 53612, Control_c, 0, 64, 0
2, 53622, Note_on_c, 0, 64, 0
2, 53760, Note_on_c, 0, 76, 60
2, 53774, Note_on_c, 0, 59, 0
2, 53782, Note_on_c, 0, 74, 0
2, 53980, Control_c, 0, 64, 127
2, 53988, Note_on_c, 0, 74, 67
2, 54022, Note_on_c, 0, 76, 0
2, 54086, Note_on_c, 0, 74, 0
2, 54236, Note_on_c, 0, 74, 67
2, 54256, Control_c, 0, 64, 0
2, 54488, Note_on_c, 0, 74, 0
2, 54496, Note_on_c, 0, 69, 30
2, 54756, Note_on_c, 0, 54, 39
2, 54770, Note_on_c, 0, 64, 29
2, 54780, Note_on_c, 0, 69, 0
2, 54840, Control_c, 0, 64, 127
2, 54988, Note_on_c, 0, 69, 54
2, 55120, Note_on_c, 0, 64, 0
2, 55132, Control_c, 0, 64, 0
2, 55194, Note_on_c, 0, 68, 67
2, 55198, Note_on_c, 0, 54, 0
2, 55240, Note_on_c, 0, 69, 0
2, 55408, Note_on_c, 0, 69, 56
2, 55442, Note_on_c, 0, 68, 0
2, 55644, Note_on_c, 0, 70, 52
2, 55672, Note_on_c, 0, 69, 0
2, 55892, Note_on_c, 0, 71, 41
2, 55894, Note_on_c, 0, 70, 0
2, 56120, Note_on_c, 0, 56, 31
2, 56140, Note_on_c, 0, 64, 38
2, 56176, Note_on_c, 0, 71, 0
2, 56346, Control_c, 0, 64, 127
2, 56364, Note_on_c, 0, 71, 86
2, 56470, Note_on_c, 0, 64, 0
2, 56522, Note_on_c, 0, 56, 0
2, 56568, Note_on_c, 0, 70, 77
2, 56606, Note_on_c, 0, 71, 0
2, 56638, Control_c, 0, 64, 0
2, 56788, Note_on_c, 0, 71, 85
2, 56832, Note_on_c, 0, 70, 0
2, 57022, Note_on_c, 0, 72, 90
2, 57048, Note_on_c, 0, 64, 38
2, 57051, Note_on_c, 0, 57, 31
2, 57076, Note_on_c, 0, 71, 0
2, 57230, Note_on_c, 0, 73, 67
2, 57288, Note_on_c, 0, 72, 0
2, 57472, Note_on_c, 0, 72, 75
2, 57506, Note_on_c, 0, 73, 0
2, 57700, Note_on_c, 0, 73, 72
2, 57728, Note_on_c, 0, 72, 0
2, 57922, Note_on_c, 0, 64, 0
2, 57930, Note_on_c, 0, 73, 0
2, 57932, Note_on_c, 0, 76, 55
2, 57944, Note_on_c, 0, 50, 44
2, 57950, Note_on_c, 0, 54, 39
2, 57980, Note_on_c, 0, 57, 0
2, 58154, Note_on_c, 0, 74, 60
2, 58180, Note_on_c, 0, 76, 0
2, 58230, Note_on_c, 0, 74, 0
2, 58364, Note_on_c, 0, 54, 0
2, 58370, Note_on_c, 0, 73, 53
2, 58386, Note_on_c, 0, 56, 32
2, 58402, Note_on_c, 0, 52, 41
2, 58410, Note_on_c, 0, 50, 0
2, 58596, Note_on_c, 0, 71, 61
2, 58616, Note_on_c, 0, 73, 0
2, 58814, Note_on_c, 0, 69, 47
2, 58824, Note_on_c, 0, 71, 0
2, 59028, Note_on_c, 0, 68, 53
2, 59036, Control_c, 0, 64, 127
2, 59108, Note_on_c, 0, 69, 0
2, 59128, Control_c, 0, 64, 0
2, 59250, Note_on_c, 0, 66, 53
2, 59260, Note_on_c, 0, 52, 0
2, 59262, Note_on_c, 0, 56, 0
2, 59288, Note_on_c, 0, 68, 0
2, 59460, Note_on_c, 0, 66, 0
2, 59463, Note_on_c, 0, 64, 74
2, 59540, Note_on_c, 0, 64, 0
2, 59700, Note_on_c, 0, 73, 110
2, 59702, Note_on_c, 0, 45, 107
2, 59702, Note_on_c, 0, 69, 95
2, 59706, Note_on_c, 0, 64, 110
2, 59742, Control_c, 0, 64, 127
2, 59894, Note_on_c, 0, 45, 0
2, 59906, Note_on_c, 0, 57, 79
2, 60002, Note_on_c, 0, 57, 0
2, 60034, Control_c, 0, 64, 0
2, 60118, Note_on_c, 0, 57, 62
2, 60206, Note_on_c, 0, 57, 0
2, 60352, Note_on_c, 0, 57, 77
2, 60398, Note_on_c, 0, 57, 0
2, 60518, Note_on_c, 0, 64, 0
2, 60550, Note_on_c, 0, 69, 0
2, 60556, Note_on_c, 0, 74, 110
2, 60560, Note_on_c, 0, 57, 88
2, 60566, Note_on_c, 0, 71, 101
2, 60608, Note_on_c, 0, 57, 0
2, 60628, Note_on_c, 0, 73, 0
2, 60774, Note_on_c, 0, 57, 72
2, 60802, Control_c, 0, 64, 127
2, 60828, Note_on_c, 0, 57, 0
2, 60844, Note_on_c, 0, 71, 0
2, 60872, Note_on_c, 0, 74, 0
2, 60986, Note_on_c, 0, 75, 108
2, 60988, Note_on_c, 0, 72, 103
2, 60998, Note_on_c, 0, 45, 86
2, 61078, Control_c, 0, 64, 0
2, 61210, Note_on_c, 0, 45, 0
2, 61210, Note_on_c, 0, 57, 85
2, 61330, Note_on_c, 0, 57, 0
2, 61418, Note_on_c, 0, 57, 49
2, 61428, Note_on_c, 0, 73, 48
2, 61436, Note_on_c, 0, 72, 0
2, 61438, Note_on_c, 0, 76, 64
2, 61460, Note_on_c, 0, 75, 0
2, 61488, Note_on_c, 0, 57, 0
2, 61638, Note_on_c, 0, 57, 72
2, 61696, Note_on_c, 0, 57, 0
2, 61776, Note_on_c, 0, 73, 0
2, 61776, Note_on_c, 0, 76, 0
2, 61846, Note_on_c, 0, 57, 77
2, 61892, Note_on_c, 0, 57, 0
2, 62020, Note_on_c, 0, 73, 98
2, 62028, Note_on_c, 0, 69, 79
2, 62044, Note_on_c, 0, 57, 94
2, 62084, Note_on_c, 0, 57, 0
2, 62226, Note_on_c, 0, 69, 0
2, 62240, Note_on_c, 0, 71, 116
2, 62240, Note_on_c, 0, 68, 77
2, 62240, Note_on_c, 0, 64, 106
2, 62246, Note_on_c, 0, 40, 126
2, 62284, Note_on_c, 0, 73, 0
2, 62352, Note_on_c, 0, 64, 0
2, 62398, Note_on_c, 0, 40, 0
2, 62398, Note_on_c, 0, 68, 0
2, 62418, Note_on_c, 0, 71, 0
2, 62448, Note_on_c, 0, 52, 100
2, 62498, Note_on_c, 0, 52, 0
2, 62644, Note_on_c, 0, 71, 116
2, 62644, Note_on_c, 0, 68, 87
2, 62648, Note_on_c, 0, 64, 106
2, 62652, Note_on_c, 0, 52, 108
2, 62692, Note_on_c, 0, 52, 0
2, 62698, Note_on_c, 0, 64, 0
2, 62732, Note_on_c, 0, 68, 0
2, 62774, Note_on_c, 0, 71, 0
2, 62856, Note_on_c, 0, 52, 98
2, 62910, Note_on_c, 0, 52, 0
2, 63050, Note_on_c, 0, 73, 101
2, 63056, Note_on_c, 0, 64, 101
2, 63060, Note_on_c, 0, 69, 84
2, 63070, Note_on_c, 0, 52, 101
2, 63104, Note_on_c, 0, 64, 0
2, 63114, Note_on_c, 0, 52, 0
2, 63138, Note_on_c, 0, 69, 0
2, 63180, Note_on_c, 0, 73, 0
2, 63268, Note_on_c, 0, 52, 102
2, 63314, Note_on_c, 0, 52, 0
2, 63474, Note_on_c, 0, 73, 100
2, 63482, Note_on_c, 0, 70, 75
2, 63484, Note_on_c, 0, 40, 110
2, 63484, Note_on_c, 0, 64, 92
2, 63614, Control_c, 0, 64, 127
2, 63660, Note_on_c, 0, 40, 0
2, 63696, Note_on_c, 0, 52, 78
2, 63758, Note_on_c, 0, 52, 0
2, 63860, Control_c, 0, 64, 0
2, 63902, Note_on_c, 0, 52, 70
2, 63918, Note_on_c, 0, 71, 69
2, 63918, Note_on_c, 0, 74, 80
2, 63936, Note_on_c, 0, 70, 0
2, 63956, Note_on_c, 0, 52, 0
2, 63959, Note_on_c, 0, 73, 0
2, 64120, Note_on_c, 0, 52, 84
2, 64168, Note_on_c, 0, 52, 0
2, 64216, Note_on_c, 0, 71, 0
2, 64342, Note_on_c, 0, 52, 78
2, 64362, Note_on_c, 0, 74, 0
2, 64388, Note_on_c, 0, 52, 0
2, 64404, Note_on_c, 0, 64, 0
2, 64540, Note_on_c, 0, 71, 87
2, 64543, Note_on_c, 0, 68, 61
2, 64556, Note_on_c, 0, 52, 85
2, 64596, Note_on_c, 0, 52, 0
2, 64626, Note_on_c, 0, 68, 0
2, 64726, Note_on_c, 0, 69, 77
2, 64742, Note_on_c, 0, 71, 0
2, 64745, Note_on_c, 0, 42, 76
2, 64866, Note_on_c, 0, 69, 0
2, 64882, Note_on_c, 0, 42, 0
2, 64924, Note_on_c, 0, 54, 77
2, 64990, Note_on_c, 0, 54, 0
2, 65118, Note_on_c, 0, 69, 70
2, 65126, Note_on_c, 0, 54, 70
2, 65182, Note_on_c, 0, 69, 0
2, 65184, Note_on_c, 0, 54, 0
2, 65318, Note_on_c, 0, 54, 87
2, 65370, Note_on_c, 0, 54, 0
2, 65502, Note_on_c, 0, 71, 94
2, 65520, Note_on_c, 0, 44, 85
2, 65542, Note_on_c, 0, 71, 0
2, 65552, Note_on_c, 0, 73, 74
2, 65574, Note_on_c, 0, 44, 0
2, 65602, Note_on_c, 0, 71, 85
2, 65604, Note_on_c, 0, 73, 0
2, 65694, Note_on_c, 0, 73, 60
2, 65702, Note_on_c, 0, 71, 0
2, 65712, Note_on_c, 0, 56, 57
2, 65760, Note_on_c, 0, 71, 59
2, 65788, Note_on_c, 0, 73, 0
2, 65804, Note_on_c, 0, 56, 0
2, 65807, Note_on_c, 0, 69, 68
2, 65810, Note_on_c, 0, 71, 0
2, 65866, Note_on_c, 0, 69, 0
2, 65882, Note_on_c, 0, 71, 68
2, 65944, Note_on_c, 0, 73, 83
2, 65944, Note_on_c, 0, 45, 62
2, 65974, Note_on_c, 0, 71, 0
2, 66084, Note_on_c, 0, 45, 0
2, 66130, Note_on_c, 0, 73, 0
2, 66154, Note_on_c, 0, 57, 53
2, 66208, Note_on_c, 0, 57, 0
2, 66348, Note_on_c, 0, 73, 67
2, 66351, Note_on_c, 0, 57, 52
2, 66412, Note_on_c, 0, 57, 0
2, 66502, Note_on_c, 0, 73, 0
2, 66566, Note_on_c, 0, 57, 47
2, 66632, Note_on_c, 0, 57, 0
2, 66746, Note_on_c, 0, 38, 88
2, 66751, Note_on_c, 0, 66, 48
2, 66751, Note_on_c, 0, 74, 85
2, 66754, Note_on_c, 0, 71, 71
2, 66862, Note_on_c, 0, 71, 0
2, 66876, Note_on_c, 0, 38, 0
2, 66958, Note_on_c, 0, 50, 82
2, 66964, Note_on_c, 0, 66, 0
2, 67020, Note_on_c, 0, 74, 0
2, 67032, Note_on_c, 0, 50, 0
2, 67148, Note_on_c, 0, 40, 111
2, 67156, Note_on_c, 0, 73, 70
2, 67162, Note_on_c, 0, 64, 76
2, 67168, Note_on_c, 0, 69, 49
2, 67280, Note_on_c, 0, 40, 0
2, 67300, Note_on_c, 0, 69, 0
2, 67336, Note_on_c, 0, 64, 0
2, 67338, Note_on_c, 0, 73, 0
2, 67354, Note_on_c, 0, 52, 83
2, 67404, Note_on_c, 0, 52, 0
2, 67552, Note_on_c, 0, 73, 76
2, 67568, Note_on_c, 0, 64, 79
2, 67568, Note_on_c, 0, 52, 92
2, 67571, Note_on_c, 0, 69, 62
2, 67622, Note_on_c, 0, 52, 0
2, 67692, Note_on_c, 0, 69, 0
2, 67736, Note_on_c, 0, 64, 0
2, 67764, Note_on_c, 0, 73, 0
2, 67778, Note_on_c, 0, 52, 95
2, 67830, Note_on_c, 0, 52, 0
2, 67982, Note_on_c, 0, 68, 60
2, 67984, Note_on_c, 0, 71, 87
2, 67984, Note_on_c, 0, 40, 98
2, 67990, Note_on_c, 0, 62, 63
2, 67994, Note_on_c, 0, 64, 57
2, 68038, Note_on_c, 0, 40, 0
2, 68114, Note_on_c, 0, 64, 0
2, 68132, Note_on_c, 0, 68, 0
2, 68158, Note_on_c, 0, 62, 0
2, 68206, Note_on_c, 0, 52, 86
2, 68226, Note_on_c, 0, 71, 0
2, 68248, Note_on_c, 0, 52, 0
2, 68454, Note_on_c, 0, 61, 62
2, 68458, Note_on_c, 0, 33, 63
2, 68466, Note_on_c, 0, 69, 62
2, 68488, Note_on_c, 0, 64, 57
2, 68792, Control_c, 0, 64, 127
2, 68868, Note_on_c, 0, 33, 0
2, 68968, Note_on_c, 0, 45, 45
2, 69152, Note_on_c, 0, 64, 0
2, 69156, Note_on_c, 0, 45, 0
2, 69158, Note_on_c, 0, 61, 0
2, 69236, Note_on_c, 0, 69, 0
2, 69530, Control_c, 0, 64, 0
2, 69924, Note_on_c, 0, 75, 37
2, 70164, Note_on_c, 0, 76, 36
2, 70169, Note_on_c, 0, 75, 0
2, 70380, Note_on_c, 0, 61, 34
2, 70396, Note_on_c, 0, 57, 28
2, 70399, Note_on_c, 0, 76, 0
2, 70406, Control_c, 0, 64, 127
2, 70578, Note_on_c, 0, 76, 57
2, 70604, Control_c, 0, 64, 0
2, 70638, Note_on_c, 0, 57, 0
2, 70656, Note_on_c, 0, 61, 0
2, 70784, Note_on_c, 0, 75, 75
2, 70818, Note_on_c, 0, 76, 0
2, 70986, Note_on_c, 0, 76, 64
2, 71022, Note_on_c, 0, 75, 0
2, 71212, Note_on_c, 0, 77, 62
2, 71222, Note_on_c, 0, 76, 0
2, 71442, Note_on_c, 0, 78, 42
2, 71456, Note_on_c, 0, 77, 0
2, 71644, Note_on_c, 0, 62, 33
2, 71644, Note_on_c, 0, 57, 31
2, 71680, Note_on_c, 0, 78, 0
2, 71726, Control_c, 0, 64, 127
2, 71852, Note_on_c, 0, 62, 0
2, 71870, Note_on_c, 0, 57, 0
2, 71870, Note_on_c, 0, 78, 70
2, 71988, Control_c, 0, 64, 0
2, 72072, Note_on_c, 0, 77, 82
2, 72080, Note_on_c, 0, 78, 0
2, 72264, Note_on_c, 0, 78, 95
2, 72294, Note_on_c, 0, 77, 0
2, 72472, Note_on_c, 0, 78, 0
2, 72476, Note_on_c, 0, 80, 86
2, 72498, Note_on_c, 0, 66, 33
2, 72506, Note_on_c, 0, 57, 28
2, 72664, Control_c, 0, 64, 127
2, 72682, Note_on_c, 0, 81, 85
2, 72686, Note_on_c, 0, 57, 0
2, 72700, Note_on_c, 0, 80, 0
2, 72734, Note_on_c, 0, 66, 0
2, 72736, Note_on_c, 0, 81, 0
2, 72894, Note_on_c, 0, 79, 97
2, 72912, Note_on_c, 0, 64, 41
2, 72926, Control_c, 0, 64, 0
2, 72926, Note_on_c, 0, 57, 38
2, 73094, Note_on_c, 0, 80, 88
2, 73106, Note_on_c, 0, 57, 0
2, 73124, Note_on_c, 0, 79, 0
2, 73124, Note_on_c, 0, 64, 0
2, 73156, Control_c, 0, 64, 127
2, 73204, Note_on_c, 0, 80, 0
2, 73310, Control_c, 0, 64, 0
2, 73313, Note_on_c, 0, 77, 75
2, 73336, Note_on_c, 0, 62, 37
2, 73362, Note_on_c, 0, 57, 18
2, 73512, Note_on_c, 0, 78, 65
2, 73536, Note_on_c, 0, 77, 0
2, 73539, Control_c, 0, 64, 127
2, 73556, Note_on_c, 0, 62, 0
2, 73580, Note_on_c, 0, 57, 0
2, 73604, Note_on_c, 0, 78, 0
2, 73710, Control_c, 0, 64, 0
2, 73718, Note_on_c, 0, 75, 62
2, 73960, Note_on_c, 0, 75, 0
2, 73974, Note_on_c, 0, 76, 38
2, 74178, Note_on_c, 0, 61, 26
2, 74196, Note_on_c, 0, 57, 29
2, 74210, Note_on_c, 0, 76, 0
2, 74292, Control_c, 0, 64, 127
2, 74416, Note_on_c, 0, 76, 92
2, 74476, Note_on_c, 0, 57, 0
2, 74490, Note_on_c, 0, 61, 0
2, 74516, Note_on_c, 0, 76, 0
2, 74554, Control_c, 0, 64, 0
2, 74598, Note_on_c, 0, 76, 79
2, 74688, Note_on_c, 0, 76, 0
2, 74816, Note_on_c, 0, 76, 77
2, 74860, Note_on_c, 0, 76, 0
2, 75038, Note_on_c, 0, 76, 61
2, 75066, Note_on_c, 0, 61, 30
2, 75070, Note_on_c, 0, 64, 34
2, 75078, Note_on_c, 0, 57, 23
2, 75122, Control_c, 0, 64, 127
2, 75262, Note_on_c, 0, 73, 49
2, 75286, Note_on_c, 0, 76, 0
2, 75348, Note_on_c, 0, 73, 0
2, 75476, Control_c, 0, 64, 0
2, 75496, Note_on_c, 0, 69, 28
2, 75690, Note_on_c, 0, 69, 0
2, 75730, Note_on_c, 0, 76, 99
2, 75838, Note_on_c, 0, 76, 0
2, 75934, Note_on_c, 0, 76, 72
2, 76022, Note_on_c, 0, 76, 0
2, 76054, Note_on_c, 0, 64, 0
2, 76152, Note_on_c, 0, 76, 77
2, 76210, Note_on_c, 0, 76, 0
2, 76246, Note_on_c, 0, 61, 0
2, 76378, Note_on_c, 0, 76, 56
2, 76402, Note_on_c, 0, 64, 34
2, 76412, Note_on_c, 0, 59, 29
2, 76428, Note_on_c, 0, 62, 37
2, 76440, Note_on_c, 0, 57, 0
2, 76618, Note_on_c, 0, 74, 53
2, 76628, Note_on_c, 0, 76, 0
2, 76698, Note_on_c, 0, 74, 0
2, 76862, Note_on_c, 0, 68, 33
2, 77084, Note_on_c, 0, 68, 0
2, 77098, Note_on_c, 0, 76, 53
2, 77204, Note_on_c, 0, 76, 0
2, 77288, Note_on_c, 0, 76, 68
2, 77354, Note_on_c, 0, 64, 0
2, 77388, Note_on_c, 0, 76, 0
2, 77490, Note_on_c, 0, 76, 72
2, 77542, Note_on_c, 0, 76, 0
2, 77696, Note_on_c, 0, 62, 0
2, 77734, Note_on_c, 0, 59, 0
2, 77734, Note_on_c, 0, 61, 37
2, 77740, Note_on_c, 0, 76, 71
2, 77756, Note_on_c, 0, 64, 32
2, 77972, Note_on_c, 0, 73, 60
2, 77986, Note_on_c, 0, 76, 0
2, 78072, Control_c, 0, 64, 127
2, 78170, Note_on_c, 0, 73, 0
2, 78192, Note_on_c, 0, 69, 55
2, 78278, Note_on_c, 0, 61, 0
2, 78356, Note_on_c, 0, 64, 0
2, 78406, Note_on_c, 0, 69, 0
2, 78416, Note_on_c, 0, 76, 64
2, 78628, Note_on_c, 0, 73, 65
2, 78638, Note_on_c, 0, 63, 41
2, 78642, Control_c, 0, 64, 0
2, 78656, Note_on_c, 0, 54, 33
2, 78680, Note_on_c, 0, 57, 25
2, 78686, Note_on_c, 0, 76, 0
2, 78830, Note_on_c, 0, 73, 0
2, 78866, Note_on_c, 0, 69, 55
2, 78872, Control_c, 0, 64, 127
2, 78938, Note_on_c, 0, 57, 0
2, 78972, Note_on_c, 0, 54, 0
2, 79018, Note_on_c, 0, 69, 0
2, 79054, Note_on_c, 0, 63, 0
2, 79178, Control_c, 0, 64, 0
2, 79188, Note_on_c, 0, 73, 59
2, 79210, Note_on_c, 0, 69, 33
2, 79212, Note_on_c, 0, 64, 44
2, 79212, Note_on_c, 0, 52, 30
2, 79824, Control_c, 0, 64, 127
2, 80272, Note_on_c, 0, 68, 30
2, 80280, Note_on_c, 0, 71, 46
2, 80298, Note_on_c, 0, 69, 0
2, 80300, Control_c, 0, 64, 0
2, 80318, Note_on_c, 0, 73, 0
2, 80444, Note_on_c, 0, 64, 0
2, 80500, Control_c, 0, 64, 127
2, 80542, Note_on_c, 0, 71, 0
2, 80546, Note_on_c, 0, 68, 0
2, 80660, Note_on_c, 0, 52, 0
2, 80970, Note_on_c, 0, 72, 47
2, 81068, Control_c, 0, 64, 0
2, 81248, Note_on_c, 0, 73, 34
2, 81276, Note_on_c, 0, 72, 0
2, 81480, Note_on_c, 0, 64, 37
2, 81486, Note_on_c, 0, 57, 29
2, 81494, Note_on_c, 0, 73, 0
2, 81544, Control_c, 0, 64, 127
2, 81692, Note_on_c, 0, 73, 55
2, 81744, Note_on_c, 0, 64, 0
2, 81760, Control_c, 0, 64, 0
2, 81820, Note_on_c, 0, 57, 0
2, 81900, Note_on_c, 0, 72, 67
2, 81928, Note_on_c, 0, 73, 0
2, 82092, Note_on_c, 0, 73, 69
2, 82122, Note_on_c, 0, 72, 0
2, 82328, Note_on_c, 0, 75, 69
2, 82354, Note_on_c, 0, 73, 0
2, 82570, Note_on_c, 0, 75, 0
2, 82574, Note_on_c, 0, 76, 48
2, 82756, Note_on_c, 0, 76, 0
2, 82790, Control_c, 0, 64, 127
2, 82793, Note_on_c, 0, 61, 37
2, 82800, Note_on_c, 0, 64, 29
2, 82984, Note_on_c, 0, 61, 0
2, 82998, Note_on_c, 0, 64, 0
2, 83010, Note_on_c, 0, 76, 74
2, 83066, Control_c, 0, 64, 0
2, 83228, Note_on_c, 0, 78, 68
2, 83256, Note_on_c, 0, 76, 0
2, 83446, Note_on_c, 0, 76, 67
2, 83464, Control_c, 0, 64, 127
2, 83469, Note_on_c, 0, 78, 0
2, 83576, Note_on_c, 0, 76, 0
2, 83646, Note_on_c, 0, 76, 69
2, 83712, Control_c, 0, 64, 0
2, 83902, Note_on_c, 0, 71, 52
2, 83926, Note_on_c, 0, 76, 0
2, 84132, Note_on_c, 0, 71, 0
2, 84144, Note_on_c, 0, 56, 29
2, 84170, Note_on_c, 0, 64, 26
2, 84326, Control_c, 0, 64, 127
2, 84374, Note_on_c, 0, 71, 57
2, 84494, Control_c, 0, 64, 0
2, 84508, Note_on_c, 0, 64, 0
2, 84566, Note_on_c, 0, 56, 0
2, 84576, Note_on_c, 0, 70, 59
2, 84600, Note_on_c, 0, 71, 0
2, 84782, Note_on_c, 0, 71, 70
2, 84812, Note_on_c, 0, 70, 0
2, 85020, Note_on_c, 0, 73, 53
2, 85024, Note_on_c, 0, 71, 0
2, 85252, Note_on_c, 0, 74, 45
2, 85258, Note_on_c, 0, 73, 0
2, 85492, Note_on_c, 0, 64, 32
2, 85498, Note_on_c, 0, 59, 26
2, 85504, Note_on_c, 0, 74, 0
2, 85540, Control_c, 0, 64, 127
2, 85692, Note_on_c, 0, 74, 69
2, 85724, Note_on_c, 0, 64, 0
2, 85786, Control_c, 0, 64, 0
2, 85812, Note_on_c, 0, 59, 0
2, 85922, Note_on_c, 0, 76, 65
2, 85928, Note_on_c, 0, 74, 0
2, 86156, Note_on_c, 0, 74, 56
2, 86174, Note_on_c, 0, 76, 0
2, 86200, Control_c, 0, 64, 127
2, 86234, Note_on_c, 0, 74, 0
2, 86418, Note_on_c, 0, 74, 47
2, 86462, Control_c, 0, 64, 0
2, 86690, Note_on_c, 0, 74, 0
2, 86698, Note_on_c, 0, 69, 28
2, 86936, Note_on_c, 0, 54, 41
2, 86954, Note_on_c, 0, 64, 36
2, 86964, Note_on_c, 0, 69, 0
2, 87076, Control_c, 0, 64, 127
2, 87134, Note_on_c, 0, 64, 0
2, 87136, Note_on_c, 0, 69, 53
2, 87168, Note_on_c, 0, 54, 0
2, 87352, Control_c, 0, 64, 0
2, 87362, Note_on_c, 0, 73, 61
2, 87384, Note_on_c, 0, 69, 0
2, 87394, Note_on_c, 0, 56, 34
2, 87414, Note_on_c, 0, 64, 48
2, 87574, Note_on_c, 0, 64, 0
2, 87600, Note_on_c, 0, 71, 77
2, 87622, Note_on_c, 0, 73, 0
2, 87644, Note_on_c, 0, 56, 0
2, 87644, Control_c, 0, 64, 127
2, 87792, Note_on_c, 0, 71, 0
2, 87818, Note_on_c, 0, 74, 76
2, 87844, Control_c, 0, 64, 0
2, 88052, Note_on_c, 0, 73, 49
2, 88076, Note_on_c, 0, 74, 0
2, 88280, Note_on_c, 0, 57, 37
2, 88280, Note_on_c, 0, 64, 46
2, 88332, Note_on_c, 0, 73, 0
2, 88428, Control_c, 0, 64, 127
2, 88472, Note_on_c, 0, 64, 0
2, 88480, Note_on_c, 0, 73, 64
2, 88530, Note_on_c, 0, 57, 0
2, 88658, Control_c, 0, 64, 0
2, 88698, Note_on_c, 0, 76, 62
2, 88714, Note_on_c, 0, 73, 0
2, 88718, Note_on_c, 0, 50, 38
2, 88726, Note_on_c, 0, 59, 42
2, 88892, Note_on_c, 0, 59, 0
2, 88924, Note_on_c, 0, 50, 0
2, 88930, Note_on_c, 0, 76, 0
2, 88932, Note_on_c, 0, 74, 68
2, 88935, Control_c, 0, 64, 127
2, 88994, Note_on_c, 0, 74, 0
2, 89172, Note_on_c, 0, 72, 64
2, 89180, Control_c, 0, 64, 0
2, 89416, Note_on_c, 0, 73, 31
2, 89421, Note_on_c, 0, 72, 0
2, 89644, Note_on_c, 0, 57, 39
2, 89670, Note_on_c, 0, 52, 33
2, 89706, Note_on_c, 0, 73, 0
2, 89780, Control_c, 0, 64, 127
2, 89842, Note_on_c, 0, 52, 0
2, 89874, Note_on_c, 0, 73, 70
2, 89890, Note_on_c, 0, 57, 0
2, 90088, Control_c, 0, 64, 0
2, 90114, Note_on_c, 0, 56, 42
2, 90116, Note_on_c, 0, 74, 77
2, 90130, Note_on_c, 0, 52, 49
2, 90138, Note_on_c, 0, 73, 0
2, 90328, Note_on_c, 0, 71, 88
2, 90334, Control_c, 0, 64, 127
2, 90337, Note_on_c, 0, 52, 0
2, 90362, Note_on_c, 0, 74, 0
2, 90380, Note_on_c, 0, 56, 0
2, 90436, Note_on_c, 0, 71, 0
2, 90596, Note_on_c, 0, 71, 77
2, 90596, Note_on_c, 0, 68, 59
2, 90626, Control_c, 0, 64, 0
2, 90629, Note_on_c, 0, 57, 41
2, 91110, Note_on_c, 0, 57, 0
2, 91118, Note_on_c, 0, 52, 49
2, 91328, Note_on_c, 0, 72, 61
2, 91372, Note_on_c, 0, 71, 0
2, 91604, Note_on_c, 0, 73, 52
2, 91606, Note_on_c, 0, 68, 0
2, 91609, Note_on_c, 0, 72, 0
2, 91609, Note_on_c, 0, 52, 0
2, 91613, Note_on_c, 0, 69, 47
2, 91613, Note_on_c, 0, 45, 44
2, 91840, Control_c, 0, 64, 127
2, 91856, Note_on_c, 0, 45, 0
2, 91894, Note_on_c, 0, 69, 0
2, 91914, Note_on_c, 0, 73, 0
2, 92156, Note_on_c, 0, 73, 97
2, 92160, Note_on_c, 0, 33, 114
2, 92164, Note_on_c, 0, 69, 72
2, 92168, Note_on_c, 0, 64, 87
2, 92328, Note_on_c, 0, 33, 0
2, 92380, Note_on_c, 0, 45, 90
2, 92392, Control_c, 0, 64, 0
2, 92394, Note_on_c, 0, 69, 0
2, 92436, Note_on_c, 0, 73, 0
2, 92452, Note_on_c, 0, 64, 0
2, 92482, Note_on_c, 0, 45, 0
2, 92592, Note_on_c, 0, 73, 98
2, 92596, Note_on_c, 0, 64, 98
2, 92600, Note_on_c, 0, 69, 77
2, 92600, Note_on_c, 0, 45, 82
2, 92692, Note_on_c, 0, 45, 0
2, 92796, Note_on_c, 0, 64, 0
2, 92814, Note_on_c, 0, 45, 94
2, 92844, Note_on_c, 0, 69, 0
2, 92920, Note_on_c, 0, 45, 0
2, 93028, Note_on_c, 0, 68, 88
2, 93034, Note_on_c, 0, 74, 113
2, 93036, Note_on_c, 0, 73, 0
2, 93036, Note_on_c, 0, 35, 120
2, 93036, Note_on_c, 0, 64, 101
2, 93130, Note_on_c, 0, 35, 0
2, 93146, Control_c, 0, 64, 127
2, 93250, Note_on_c, 0, 47, 93
2, 93326, Note_on_c, 0, 47, 0
2, 93326, Note_on_c, 0, 64, 0
2, 93348, Note_on_c, 0, 74, 0
2, 93370, Note_on_c, 0, 68, 0
2, 93406, Control_c, 0, 64, 0
2, 93474, Note_on_c, 0, 76, 105
2, 93482, Note_on_c, 0, 64, 88
2, 93482, Note_on_c, 0, 37, 103
2, 93488, Note_on_c, 0, 69, 72
2, 93702, Note_on_c, 0, 49, 78
2, 93710, Note_on_c, 0, 37, 0
2, 93714, Control_c, 0, 64, 127
2, 93780, Note_on_c, 0, 49, 0
2, 93783, Note_on_c, 0, 69, 0
2, 93810, Note_on_c, 0, 76, 0
2, 93892, Note_on_c, 0, 64, 0
2, 93936, Note_on_c, 0, 76, 100
2, 93938, Note_on_c, 0, 49, 83
2, 93940, Note_on_c, 0, 69, 67
2, 93944, Control_c, 0, 64, 0
2, 94050, Note_on_c, 0, 49, 0
2, 94130, Control_c, 0, 64, 127
2, 94133, Note_on_c, 0, 69, 0
2, 94172, Note_on_c, 0, 49, 60
2, 94202, Note_on_c, 0, 76, 0
2, 94234, Note_on_c, 0, 49, 0
2, 94282, Control_c, 0, 64, 0
2, 94374, Note_on_c, 0, 78, 101
2, 94384, Note_on_c, 0, 69, 62
2, 94390, Note_on_c, 0, 38, 69
2, 94512, Note_on_c, 0, 69, 0
2, 94548, Note_on_c, 0, 38, 0
2, 94560, Control_c, 0, 64, 127
2, 94638, Note_on_c, 0, 80, 82
2, 94652, Note_on_c, 0, 50, 48
2, 94658, Note_on_c, 0, 78, 0
2, 94740, Note_on_c, 0, 50, 0
2, 94758, Note_on_c, 0, 81, 65
2, 94778, Note_on_c, 0, 80, 0
2, 94808, Note_on_c, 0, 81, 0
2, 94998, Note_on_c, 0, 69, 68
2, 95002, Note_on_c, 0, 40, 51
2, 95006, Note_on_c, 0, 61, 60
2, 95020, Control_c, 0, 64, 0
2, 95028, Note_on_c, 0, 64, 49
2, 95216, Note_on_c, 0, 40, 0
2, 95266, Note_on_c, 0, 52, 63
2, 95280, Control_c, 0, 64, 127
2, 95286, Note_on_c, 0, 69, 0
2, 95294, Note_on_c, 0, 64, 0
2, 95294, Note_on_c, 0, 61, 0
2, 95324, Note_on_c, 0, 52, 0
2, 95436, Control_c, 0, 64, 0
2, 95470, Note_on_c, 0, 61, 61
2, 95472, Note_on_c, 0, 69, 78
2, 95490, Note_on_c, 0, 64, 68
2, 95498, Note_on_c, 0, 52, 70
2, 95542, Note_on_c, 0, 52, 0
2, 95680, Control_c, 0, 64, 127
2, 95706, Note_on_c, 0, 64, 0
2, 95708, Note_on_c, 0, 69, 0
2, 95722, Note_on_c, 0, 52, 75
2, 95728, Note_on_c, 0, 61, 0
2, 95770, Note_on_c, 0, 52, 0
2, 95866, Control_c, 0, 64, 0
2, 95948, Note_on_c, 0, 71, 77
2, 95952, Note_on_c, 0, 62, 71
2, 95958, Note_on_c, 0, 40, 77
2, 95960, Note_on_c, 0, 68, 51
2, 95976, Note_on_c, 0, 64, 59
2, 96086, Note_on_c, 0, 40, 0
2, 96158, Control_c, 0, 64, 127
2, 96188, Note_on_c, 0, 68, 0
2, 96194, Note_on_c, 0, 64, 0
2, 96206, Note_on_c, 0, 62, 0
2, 96216, Note_on_c, 0, 52, 69
2, 96274, Note_on_c, 0, 52, 0
2, 96292, Note_on_c, 0, 71, 0
2, 96342, Control_c, 0, 64, 0
2, 96500, Note_on_c, 0, 61, 60
2, 96508, Note_on_c, 0, 69, 56
2, 96526, Note_on_c, 0, 64, 55
2, 96540, Note_on_c, 0, 33, 46
2, 96878, Control_c, 0, 64, 127
2, 96886, Note_on_c, 0, 61, 0
2, 96898, Note_on_c, 0, 64, 0
2, 96922, Note_on_c, 0, 33, 0
2, 96926, Note_on_c, 0, 69, 0
2, 97110, Note_on_c, 0, 45, 39
2, 97172, Note_on_c, 0, 45, 0
2, 98292, Control_c, 0, 64, 0
2, 99336, Note_on_c, 0, 73, 45
2, 99362, Note_on_c, 0, 57, 31
2, 99502, Note_on_c, 0, 63, 40
2, 99548, Note_on_c, 0, 73, 0
2, 99580, Note_on_c, 0, 57, 0
2, 99618, Note_on_c, 0, 63, 0
2, 99646, Note_on_c, 0, 64, 45
2, 99746, Note_on_c, 0, 64, 0
2, 99774, Note_on_c, 0, 73, 65
2, 99806, Note_on_c, 0, 57, 42
2, 99940, Note_on_c, 0, 63, 44
2, 100006, Note_on_c, 0, 63, 0
2, 100024, Note_on_c, 0, 73, 0
2, 100060, Note_on_c, 0, 64, 44
2, 100134, Note_on_c, 0, 64, 0
2, 100137, Note_on_c, 0, 57, 0
2, 100194, Note_on_c, 0, 74, 63
2, 100232, Note_on_c, 0, 59, 36
2, 100242, Note_on_c, 0, 74, 0
2, 100242, Note_on_c, 0, 76, 72
2, 100286, Note_on_c, 0, 76, 0
2, 100316, Note_on_c, 0, 74, 76
2, 100368, Note_on_c, 0, 74, 0
2, 100374, Note_on_c, 0, 63, 36
2, 100382, Note_on_c, 0, 76, 37
2, 100448, Note_on_c, 0, 74, 71
2, 100451, Note_on_c, 0, 63, 0
2, 100472, Note_on_c, 0, 64, 48
2, 100504, Note_on_c, 0, 76, 0
2, 100532, Note_on_c, 0, 74, 0
2, 100546, Note_on_c, 0, 73, 76
2, 100598, Note_on_c, 0, 64, 0
2, 100618, Note_on_c, 0, 74, 77
2, 100620, Note_on_c, 0, 73, 0
2, 100720, Note_on_c, 0, 76, 74
2, 100720, Note_on_c, 0, 61, 51
2, 100726, Note_on_c, 0, 59, 0
2, 100742, Note_on_c, 0, 74, 0
2, 100908, Note_on_c, 0, 63, 48
2, 100966, Note_on_c, 0, 61, 0
2, 100982, Note_on_c, 0, 63, 0
2, 101038, Note_on_c, 0, 64, 46
2, 101128, Note_on_c, 0, 64, 0
2, 101166, Note_on_c, 0, 61, 54
2, 101222, Note_on_c, 0, 76, 0
2, 101300, Note_on_c, 0, 63, 48
2, 101366, Control_c, 0, 64, 127
2, 101374, Note_on_c, 0, 63, 0
2, 101422, Note_on_c, 0, 64, 37
2, 101450, Note_on_c, 0, 61, 0
2, 101518, Note_on_c, 0, 64, 0
2, 101638, Note_on_c, 0, 78, 57
2, 101656, Note_on_c, 0, 57, 37
2, 101658, Control_c, 0, 64, 0
2, 101744, Note_on_c, 0, 78, 0
2, 101766, Note_on_c, 0, 76, 48
2, 101806, Note_on_c, 0, 63, 42
2, 101826, Note_on_c, 0, 76, 0
2, 101856, Note_on_c, 0, 74, 56
2, 101856, Control_c, 0, 64, 127
2, 101859, Note_on_c, 0, 57, 0
2, 101922, Note_on_c, 0, 74, 0
2, 101925, Note_on_c, 0, 63, 0
2, 101942, Note_on_c, 0, 73, 55
2, 101950, Note_on_c, 0, 64, 37
2, 101980, Control_c, 0, 64, 0
2, 102004, Note_on_c, 0, 73, 0
2, 102054, Note_on_c, 0, 64, 0
2, 102057, Note_on_c, 0, 71, 72
2, 102057, Note_on_c, 0, 56, 52
2, 102200, Note_on_c, 0, 63, 57
2, 102202, Note_on_c, 0, 71, 0
2, 102226, Note_on_c, 0, 56, 0
2, 102308, Note_on_c, 0, 63, 0
2, 102340, Note_on_c, 0, 64, 62
2, 102472, Note_on_c, 0, 64, 0
2, 102482, Note_on_c, 0, 56, 56
2, 102492, Note_on_c, 0, 71, 79
2, 102594, Note_on_c, 0, 71, 0
2, 102632, Note_on_c, 0, 63, 59
2, 102664, Note_on_c, 0, 56, 0
2, 102746, Note_on_c, 0, 63, 0
2, 102778, Note_on_c, 0, 64, 60
2, 102866, Note_on_c, 0, 64, 0
2, 102900, Note_on_c, 0, 73, 72
2, 102936, Note_on_c, 0, 57, 39
2, 102944, Note_on_c, 0, 73, 0
2, 102964, Note_on_c, 0, 74, 77
2, 103008, Note_on_c, 0, 73, 61
2, 103010, Note_on_c, 0, 74, 0
2, 103070, Note_on_c, 0, 63, 47
2, 103086, Note_on_c, 0, 73, 0
2, 103086, Note_on_c, 0, 74, 72
2, 103150, Note_on_c, 0, 73, 83
2, 103168, Note_on_c, 0, 63, 0
2, 103182, Note_on_c, 0, 74, 0
2, 103192, Note_on_c, 0, 64, 57
2, 103240, Note_on_c, 0, 73, 0
2, 103242, Note_on_c, 0, 71, 67
2, 103306, Note_on_c, 0, 71, 0
2, 103308, Note_on_c, 0, 73, 71
2, 103338, Note_on_c, 0, 64, 0
2, 103342, Note_on_c, 0, 57, 0
2, 103392, Note_on_c, 0, 73, 0
2, 103404, Note_on_c, 0, 74, 87
2, 103414, Note_on_c, 0, 59, 38
2, 103566, Note_on_c, 0, 63, 55
2, 103632, Note_on_c, 0, 59, 0
2, 103700, Note_on_c, 0, 64, 63
2, 103703, Note_on_c, 0, 63, 0
2, 103814, Note_on_c, 0, 64, 0
2, 103852, Note_on_c, 0, 59, 52
2, 103854, Note_on_c, 0, 74, 0
2, 103994, Note_on_c, 0, 63, 56
2, 104040, Note_on_c, 0, 59, 0
2, 104154, Note_on_c, 0, 64, 54
2, 104164, Note_on_c, 0, 63, 0
2, 104286, Note_on_c, 0, 64, 0
2, 104330, Note_on_c, 0, 56, 42
2, 104332, Note_on_c, 0, 76, 54
2, 104396, Note_on_c, 0, 76, 0
2, 104454, Note_on_c, 0, 74, 47
2, 104482, Note_on_c, 0, 63, 44
2, 104508, Note_on_c, 0, 56, 0
2, 104514, Note_on_c, 0, 74, 0
2, 104532, Note_on_c, 0, 73, 53
2, 104600, Note_on_c, 0, 73, 0
2, 104630, Note_on_c, 0, 64, 51
2, 104633, Note_on_c, 0, 63, 0
2, 104640, Note_on_c, 0, 71, 61
2, 104696, Note_on_c, 0, 64, 0
2, 104716, Note_on_c, 0, 71, 0
2, 104744, Note_on_c, 0, 54, 57
2, 104746, Note_on_c, 0, 69, 49
2, 104844, Note_on_c, 0, 69, 0
2, 104888, Note_on_c, 0, 63, 52
2, 104892, Note_on_c, 0, 54, 0
2, 105018, Note_on_c, 0, 63, 0
2, 105038, Note_on_c, 0, 64, 60
2, 105178, Note_on_c, 0, 64, 0
2, 105192, Note_on_c, 0, 69, 47
2, 105214, Note_on_c, 0, 54, 54
2, 105354, Note_on_c, 0, 69, 0
2, 105368, Note_on_c, 0, 63, 45
2, 105402, Note_on_c, 0, 54, 0
2, 105512, Note_on_c, 0, 64, 53
2, 105518, Note_on_c, 0, 63, 0
2, 105608, Note_on_c, 0, 64, 0
2, 105614, Note_on_c, 0, 69, 67
2, 105662, Note_on_c, 0, 54, 54
2, 105668, Note_on_c, 0, 69, 0
2, 105674, Note_on_c, 0, 71, 74
2, 105722, Note_on_c, 0, 71, 0
2, 105724, Note_on_c, 0, 69, 82
2, 105794, Note_on_c, 0, 69, 0
2, 105800, Note_on_c, 0, 71, 65
2, 105810, Note_on_c, 0, 63, 53
2, 105848, Note_on_c, 0, 54, 0
2, 105862, Note_on_c, 0, 69, 65
2, 105900, Note_on_c, 0, 71, 0
2, 105940, Note_on_c, 0, 69, 0
2, 105952, Note_on_c, 0, 68, 84
2, 105968, Note_on_c, 0, 64, 32
2, 105978, Note_on_c, 0, 63, 0
2, 106024, Note_on_c, 0, 68, 0
2, 106024, Note_on_c, 0, 69, 71
2, 106044, Note_on_c, 0, 64, 0
2, 106104, Note_on_c, 0, 71, 106
2, 106104, Note_on_c, 0, 56, 48
2, 106142, Note_on_c, 0, 69, 0
2, 106232, Note_on_c, 0, 71, 0
2, 106268, Note_on_c, 0, 62, 49
2, 106314, Note_on_c, 0, 56, 0
2, 106402, Note_on_c, 0, 62, 0
2, 106410, Note_on_c, 0, 64, 57
2, 106504, Note_on_c, 0, 64, 0
2, 106534, Note_on_c, 0, 71, 82
2, 106546, Note_on_c, 0, 56, 45
2, 106628, Note_on_c, 0, 71, 0
2, 106690, Note_on_c, 0, 62, 46
2, 106742, Note_on_c, 0, 56, 0
2, 106784, Note_on_c, 0, 62, 0
2, 106806, Note_on_c, 0, 64, 51
2, 106888, Note_on_c, 0, 73, 69
2, 106902, Note_on_c, 0, 64, 0
2, 106936, Note_on_c, 0, 73, 0
2, 106964, Note_on_c, 0, 56, 47
2, 106974, Note_on_c, 0, 71, 36
2, 107008, Note_on_c, 0, 73, 62
2, 107068, Note_on_c, 0, 73, 0
2, 107124, Note_on_c, 0, 62, 42
2, 107138, Note_on_c, 0, 71, 0
2, 107168, Note_on_c, 0, 73, 40
2, 107202, Note_on_c, 0, 71, 101
2, 107206, Note_on_c, 0, 62, 0
2, 107240, Note_on_c, 0, 64, 52
2, 107250, Note_on_c, 0, 56, 0
2, 107250, Note_on_c, 0, 73, 0
2, 107270, Note_on_c, 0, 71, 0
2, 107278, Note_on_c, 0, 69, 62
2, 107350, Note_on_c, 0, 71, 88
2, 107353, Note_on_c, 0, 69, 0
2, 107404, Note_on_c, 0, 64, 0
2, 107448, Note_on_c, 0, 73, 91
2, 107458, Note_on_c, 0, 57, 41
2, 107474, Note_on_c, 0, 71, 0
2, 107612, Note_on_c, 0, 61, 63
2, 107638, Note_on_c, 0, 73, 0
2, 107692, Note_on_c, 0, 57, 0
2, 107754, Note_on_c, 0, 61, 0
2, 107758, Control_c, 0, 64, 127
2, 107762, Note_on_c, 0, 64, 54
2, 107846, Note_on_c, 0, 64, 0
2, 107876, Note_on_c, 0, 73, 83
2, 107912, Note_on_c, 0, 57, 53
2, 108040, Note_on_c, 0, 61, 57
2, 108046, Note_on_c, 0, 73, 0
2, 108052, Note_on_c, 0, 57, 0
2, 108156, Note_on_c, 0, 61, 0
2, 108176, Note_on_c, 0, 64, 68
2, 108222, Note_on_c, 0, 64, 0
2, 108296, Control_c, 0, 64, 0
2, 108316, Note_on_c, 0, 76, 72
2, 108319, Note_on_c, 0, 71, 70
2, 108340, Note_on_c, 0, 50, 63
2, 108436, Note_on_c, 0, 74, 85
2, 108439, Note_on_c, 0, 76, 0
2, 108474, Note_on_c, 0, 54, 61
2, 108526, Control_c, 0, 64, 127
2, 108590, Note_on_c, 0, 54, 0
2, 108592, Note_on_c, 0, 50, 0
2, 108632, Note_on_c, 0, 59, 53
2, 108636, Note_on_c, 0, 71, 0
2, 108660, Note_on_c, 0, 74, 0
2, 108694, Note_on_c, 0, 59, 0
2, 108766, Note_on_c, 0, 73, 67
2, 108768, Note_on_c, 0, 69, 54
2, 108788, Control_c, 0, 64, 0
2, 108808, Note_on_c, 0, 52, 37
2, 108964, Note_on_c, 0, 57, 42
2, 109012, Note_on_c, 0, 52, 0
2, 109064, Control_c, 0, 64, 127
2, 109074, Note_on_c, 0, 57, 0
2, 109078, Note_on_c, 0, 61, 47
2, 109190, Note_on_c, 0, 61, 0
2, 109262, Note_on_c, 0, 52, 51
2, 109328, Note_on_c, 0, 52, 0
2, 109380, Note_on_c, 0, 57, 47
2, 109462, Note_on_c, 0, 57, 0
2, 109516, Note_on_c, 0, 61, 44
2, 109592, Note_on_c, 0, 61, 0
2, 109632, Control_c, 0, 64, 0
2, 109696, Note_on_c, 0, 71, 64
2, 109704, Note_on_c, 0, 68, 30
2, 109710, Note_on_c, 0, 52, 47
2, 109722, Note_on_c, 0, 69, 0
2, 109726, Note_on_c, 0, 73, 0
2, 109832, Note_on_c, 0, 56, 45
2, 109872, Note_on_c, 0, 52, 0
2, 109922, Note_on_c, 0, 56, 0
2, 109956, Note_on_c, 0, 59, 53
2, 109998, Note_on_c, 0, 71, 0
2, 110006, Note_on_c, 0, 59, 0
2, 110056, Note_on_c, 0, 68, 0
2, 110094, Note_on_c, 0, 73, 88
2, 110102, Note_on_c, 0, 45, 113
2, 110154, Note_on_c, 0, 45, 0
2, 110248, Note_on_c, 0, 69, 67
2, 110280, Note_on_c, 0, 73, 0
2, 110386, Note_on_c, 0, 69, 0
2, 110389, Note_on_c, 0, 64, 60
2, 110458, Note_on_c, 0, 64, 0
2, 110508, Note_on_c, 0, 56, 80
2, 110528, Note_on_c, 0, 73, 76
2, 110534, Note_on_c, 0, 57, 101
2, 110554, Note_on_c, 0, 56, 0
2, 110578, Note_on_c, 0, 57, 0
2, 110692, Note_on_c, 0, 69, 49
2, 110720, Note_on_c, 0, 73, 0
2, 110800, Note_on_c, 0, 69, 0
2, 110820, Note_on_c, 0, 64, 62
2, 110904, Note_on_c, 0, 64, 0
2, 110968, Note_on_c, 0, 74, 70
2, 111114, Note_on_c, 0, 71, 77
2, 111122, Note_on_c, 0, 74, 0
2, 111252, Note_on_c, 0, 71, 0
2, 111252, Note_on_c, 0, 64, 72
2, 111348, Note_on_c, 0, 64, 0
2, 111380, Note_on_c, 0, 76, 90
2, 111383, Note_on_c, 0, 45, 97
2, 111480, Note_on_c, 0, 45, 0
2, 111530, Note_on_c, 0, 73, 60
2, 111558, Note_on_c, 0, 76, 0
2, 111648, Note_on_c, 0, 73, 0
2, 111670, Note_on_c, 0, 64, 67
2, 111738, Note_on_c, 0, 64, 0
2, 111784, Note_on_c, 0, 56, 53
2, 111808, Note_on_c, 0, 76, 64
2, 111816, Note_on_c, 0, 57, 71
2, 111846, Note_on_c, 0, 56, 0
2, 111890, Note_on_c, 0, 57, 0
2, 111926, Note_on_c, 0, 73, 59
2, 111940, Note_on_c, 0, 76, 0
2, 112072, Note_on_c, 0, 64, 60
2, 112078, Note_on_c, 0, 73, 0
2, 112120, Note_on_c, 0, 64, 0
2, 112228, Note_on_c, 0, 78, 82
2, 112348, Note_on_c, 0, 76, 69
2, 112408, Note_on_c, 0, 78, 0
2, 112458, Note_on_c, 0, 74, 84
2, 112492, Note_on_c, 0, 76, 0
2, 112558, Note_on_c, 0, 73, 72
2, 112568, Note_on_c, 0, 74, 0
2, 112652, Note_on_c, 0, 73, 0
2, 112652, Note_on_c, 0, 40, 109
2, 112655, Note_on_c, 0, 71, 97
2, 112708, Note_on_c, 0, 71, 0
2, 112716, Note_on_c, 0, 40, 0
2, 112778, Note_on_c, 0, 68, 78
2, 112934, Note_on_c, 0, 64, 77
2, 112950, Note_on_c, 0, 68, 0
2, 113016, Note_on_c, 0, 64, 0
2, 113048, Note_on_c, 0, 51, 77
2, 113078, Note_on_c, 0, 52, 109
2, 113088, Note_on_c, 0, 71, 82
2, 113108, Note_on_c, 0, 51, 0
2, 113122, Note_on_c, 0, 52, 0
2, 113218, Note_on_c, 0, 68, 65
2, 113246, Note_on_c, 0, 71, 0
2, 113326, Note_on_c, 0, 68, 0
2, 113354, Note_on_c, 0, 64, 75
2, 113452, Note_on_c, 0, 64, 0
2, 113510, Note_on_c, 0, 73, 65
2, 113654, Note_on_c, 0, 69, 44
2, 113662, Note_on_c, 0, 73, 0
2, 113774, Note_on_c, 0, 69, 0
2, 113796, Note_on_c, 0, 64, 62
2, 113874, Note_on_c, 0, 64, 0
2, 113944, Note_on_c, 0, 40, 92
2, 113944, Note_on_c, 0, 74, 64
2, 114050, Note_on_c, 0, 40, 0
2, 114092, Note_on_c, 0, 74, 0
2, 114106, Note_on_c, 0, 71, 54
2, 114210, Note_on_c, 0, 71, 0
2, 114228, Note_on_c, 0, 64, 48
2, 114302, Note_on_c, 0, 64, 0
2, 114354, Note_on_c, 0, 51, 71
2, 114376, Note_on_c, 0, 74, 68
2, 114406, Note_on_c, 0, 52, 70
2, 114440, Note_on_c, 0, 51, 0
2, 114485, Note_on_c, 0, 74, 0
2, 114512, Note_on_c, 0, 52, 0
2, 114544, Note_on_c, 0, 71, 41
2, 114640, Note_on_c, 0, 71, 0
2, 114646, Note_on_c, 0, 64, 49
2, 114712, Note_on_c, 0, 64, 0
2, 114794, Note_on_c, 0, 76, 79
2, 114894, Note_on_c, 0, 74, 78
2, 114942, Note_on_c, 0, 76, 0
2, 114992, Note_on_c, 0, 73, 71
2, 115014, Note_on_c, 0, 74, 0
2, 115056, Control_c, 0, 64, 127
2, 115094, Note_on_c, 0, 71, 79
2, 115114, Note_on_c, 0, 73, 0
2, 115142, Note_on_c, 0, 71, 0
2, 115164, Control_c, 0, 64, 0
2, 115232, Note_on_c, 0, 69, 90
2, 115246, Note_on_c, 0, 42, 82
2, 115296, Note_on_c, 0, 42, 0
2, 115412, Note_on_c, 0, 69, 0
2, 115415, Note_on_c, 0, 64, 64
2, 115472, Note_on_c, 0, 64, 0
2, 115510, Note_on_c, 0, 61, 76
2, 115574, Note_on_c, 0, 61, 0
2, 115640, Note_on_c, 0, 53, 107
2, 115643, Note_on_c, 0, 54, 102
2, 115656, Note_on_c, 0, 69, 71
2, 115682, Note_on_c, 0, 53, 0
2, 115724, Note_on_c, 0, 54, 0
2, 115800, Note_on_c, 0, 69, 0
2, 115810, Note_on_c, 0, 64, 61
2, 115890, Note_on_c, 0, 64, 0
2, 115902, Note_on_c, 0, 61, 62
2, 115974, Note_on_c, 0, 61, 0
2, 116058, Note_on_c, 0, 55, 65
2, 116074, Note_on_c, 0, 71, 100
2, 116082, Note_on_c, 0, 56, 75
2, 116110, Note_on_c, 0, 55, 0
2, 116132, Note_on_c, 0, 56, 0
2, 116222, Note_on_c, 0, 64, 74
2, 116234, Note_on_c, 0, 71, 0
2, 116344, Note_on_c, 0, 64, 0
2, 116347, Note_on_c, 0, 62, 72
2, 116396, Note_on_c, 0, 62, 0
2, 116478, Note_on_c, 0, 45, 79
2, 116480, Note_on_c, 0, 73, 94
2, 116544, Note_on_c, 0, 45, 0
2, 116616, Note_on_c, 0, 69, 68
2, 116619, Note_on_c, 0, 73, 0
2, 116746, Note_on_c, 0, 64, 70
2, 116766, Note_on_c, 0, 69, 0
2, 116828, Note_on_c, 0, 64, 0
2, 116868, Note_on_c, 0, 56, 85
2, 116886, Note_on_c, 0, 73, 83
2, 116898, Note_on_c, 0, 57, 105
2, 116922, Note_on_c, 0, 56, 0
2, 116972, Note_on_c, 0, 57, 0
2, 117040, Note_on_c, 0, 69, 54
2, 117052, Note_on_c, 0, 73, 0
2, 117142, Note_on_c, 0, 64, 65
2, 117148, Note_on_c, 0, 69, 0
2, 117204, Note_on_c, 0, 64, 0
2, 117274, Note_on_c, 0, 49, 78
2, 117304, Note_on_c, 0, 74, 86
2, 117306, Note_on_c, 0, 50, 107
2, 117318, Note_on_c, 0, 49, 0
2, 117370, Note_on_c, 0, 50, 0
2, 117436, Note_on_c, 0, 71, 87
2, 117454, Note_on_c, 0, 74, 0
2, 117560, Note_on_c, 0, 66, 68
2, 117570, Note_on_c, 0, 71, 0
2, 117632, Note_on_c, 0, 66, 0
2, 117688, Note_on_c, 0, 40, 126
2, 117700, Note_on_c, 0, 73, 84
2, 117768, Note_on_c, 0, 40, 0
2, 117836, Note_on_c, 0, 69, 70
2, 117866, Note_on_c, 0, 73, 0
2, 117952, Note_on_c, 0, 69, 0
2, 117966, Note_on_c, 0, 64, 77
2, 118086, Note_on_c, 0, 51, 76
2, 118092, Note_on_c, 0, 64, 0
2, 118106, Note_on_c, 0, 73, 79
2, 118114, Note_on_c, 0, 52, 100
2, 118158, Note_on_c, 0, 51, 0
2, 118160, Note_on_c, 0, 52, 0
2, 118244, Note_on_c, 0, 69, 61
2, 118300, Note_on_c, 0, 73, 0
2, 118350, Note_on_c, 0, 69, 0
2, 118368, Note_on_c, 0, 64, 74
2, 118464, Note_on_c, 0, 64, 0
2, 118470, Note_on_c, 0, 51, 68
2, 118514, Note_on_c, 0, 71, 85
2, 118520, Note_on_c, 0, 52, 95
2, 118526, Note_on_c, 0, 51, 0
2, 118560, Note_on_c, 0, 52, 0
2, 118640, Note_on_c, 0, 68, 59
2, 118646, Note_on_c, 0, 71, 0
2, 118758, Note_on_c, 0, 62, 71
2, 118764, Note_on_c, 0, 68, 0
2, 118892, Note_on_c, 0, 62, 0
2, 118900, Note_on_c, 0, 33, 92
2, 118900, Note_on_c, 0, 69, 74
2, 118998, Note_on_c, 0, 33, 0
2, 119068, Note_on_c, 0, 64, 67
2, 119071, Note_on_c, 0, 69, 0
2, 119188, Note_on_c, 0, 61, 74
2, 119206, Note_on_c, 0, 64, 0
2, 119298, Note_on_c, 0, 44, 68
2, 119350, Note_on_c, 0, 44, 0
2, 119354, Note_on_c, 0, 45, 67
2, 119362, Note_on_c, 0, 61, 0
2, 119364, Note_on_c, 0, 57, 80
2, 119496, Note_on_c, 0, 45, 0
2, 119528, Control_c, 0, 64, 127
2, 119684, Note_on_c, 0, 57, 0
2, 119850, Control_c, 0, 64, 0
2, 120280, Note_on_c, 0, 57, 26
2, 120288, Note_on_c, 0, 76, 79
2, 120424, Note_on_c, 0, 61, 44
2, 120480, Control_c, 0, 64, 127
2, 120522, Note_on_c, 0, 57, 0
2, 120560, Note_on_c, 0, 76, 0
2, 120606, Note_on_c, 0, 64, 36
2, 120610, Note_on_c, 0, 61, 0
2, 120694, Note_on_c, 0, 64, 0
2, 120712, Note_on_c, 0, 74, 93
2, 120742, Note_on_c, 0, 57, 41
2, 120818, Control_c, 0, 64, 0
2, 120880, Note_on_c, 0, 59, 40
2, 120906, Note_on_c, 0, 57, 0
2, 120970, Note_on_c, 0, 62, 56
2, 120998, Note_on_c, 0, 74, 0
2, 121002, Control_c, 0, 64, 127
2, 121058, Note_on_c, 0, 59, 0
2, 121122, Note_on_c, 0, 62, 0
2, 121128, Note_on_c, 0, 76, 78
2, 121144, Note_on_c, 0, 57, 40
2, 121202, Control_c, 0, 64, 0
2, 121276, Note_on_c, 0, 61, 48
2, 121330, Note_on_c, 0, 57, 0
2, 121386, Control_c, 0, 64, 127
2, 121404, Note_on_c, 0, 76, 0
2, 121416, Note_on_c, 0, 61, 0
2, 121416, Note_on_c, 0, 64, 41
2, 121520, Note_on_c, 0, 64, 0
2, 121572, Control_c, 0, 64, 0
2, 121582, Note_on_c, 0, 78, 64
2, 121606, Note_on_c, 0, 57, 39
2, 121792, Note_on_c, 0, 62, 28
2, 121822, Note_on_c, 0, 57, 0
2, 121864, Control_c, 0, 64, 127
2, 121902, Note_on_c, 0, 62, 0
2, 121910, Note_on_c, 0, 66, 29
2, 122000, Note_on_c, 0, 78, 0
2, 122003, Note_on_c, 0, 66, 0
2, 122078, Note_on_c, 0, 57, 30
2, 122164, Note_on_c, 0, 57, 0
2, 122216, Note_on_c, 0, 62, 40
2, 122296, Note_on_c, 0, 62, 0
2, 122352, Note_on_c, 0, 66, 39
2, 122446, Note_on_c, 0, 66, 0
2, 122490, Note_on_c, 0, 78, 80
2, 122536, Note_on_c, 0, 78, 0
2, 122544, Note_on_c, 0, 57, 31
2, 122548, Note_on_c, 0, 80, 77
2, 122590, Note_on_c, 0, 80, 0
2, 122596, Note_on_c, 0, 78, 79
2, 122636, Note_on_c, 0, 57, 0
2, 122654, Note_on_c, 0, 78, 0
2, 122666, Note_on_c, 0, 80, 67
2, 122684, Note_on_c, 0, 62, 42
2, 122738, Note_on_c, 0, 78, 90
2, 122754, Note_on_c, 0, 62, 0
2, 122792, Note_on_c, 0, 80, 0
2, 122818, Note_on_c, 0, 66, 31
2, 122822, Note_on_c, 0, 76, 77
2, 122848, Note_on_c, 0, 78, 0
2, 122902, Note_on_c, 0, 78, 95
2, 122910, Note_on_c, 0, 66, 0
2, 122942, Note_on_c, 0, 76, 0
2, 123002, Note_on_c, 0, 80, 92
2, 123024, Note_on_c, 0, 78, 0
2, 123092, Control_c, 0, 64, 0
2, 123098, Note_on_c, 0, 57, 32
2, 123102, Note_on_c, 0, 81, 102
2, 123126, Note_on_c, 0, 80, 0
2, 123274, Note_on_c, 0, 66, 34
2, 123320, Note_on_c, 0, 57, 0
2, 123352, Control_c, 0, 64, 127
2, 123378, Note_on_c, 0, 66, 0
2, 123418, Note_on_c, 0, 69, 32
2, 123496, Note_on_c, 0, 69, 0
2, 123560, Note_on_c, 0, 80, 80
2, 123620, Note_on_c, 0, 81, 0
2, 123620, Note_on_c, 0, 57, 29
2, 123660, Control_c, 0, 64, 0
2, 123780, Note_on_c, 0, 64, 31
2, 123800, Note_on_c, 0, 57, 0
2, 123830, Control_c, 0, 64, 127
2, 123848, Note_on_c, 0, 64, 0
2, 123870, Note_on_c, 0, 80, 0
2, 123878, Note_on_c, 0, 68, 32
2, 123956, Note_on_c, 0, 68, 0
2, 124006, Note_on_c, 0, 78, 55
2, 124080, Note_on_c, 0, 57, 21
2, 124136, Control_c, 0, 64, 0
2, 124222, Note_on_c, 0, 62, 33
2, 124294, Note_on_c, 0, 78, 0
2, 124300, Note_on_c, 0, 62, 0
2, 124308, Note_on_c, 0, 57, 0
2, 124326, Note_on_c, 0, 66, 29
2, 124336, Control_c, 0, 64, 127
2, 124422, Note_on_c, 0, 66, 0
2, 124512, Note_on_c, 0, 76, 40
2, 124532, Note_on_c, 0, 57, 18
2, 124628, Control_c, 0, 64, 0
2, 124674, Note_on_c, 0, 61, 30
2, 124796, Note_on_c, 0, 57, 0
2, 124812, Note_on_c, 0, 64, 34
2, 124828, Control_c, 0, 64, 127
2, 124884, Note_on_c, 0, 61, 0
2, 124918, Note_on_c, 0, 64, 0
2, 124972, Note_on_c, 0, 76, 0
2, 124996, Note_on_c, 0, 57, 36
2, 125072, Note_on_c, 0, 57, 0
2, 125112, Note_on_c, 0, 61, 40
2, 125206, Note_on_c, 0, 61, 0
2, 125256, Note_on_c, 0, 64, 39
2, 125364, Note_on_c, 0, 64, 0
2, 125420, Note_on_c, 0, 73, 74
2, 125426, Note_on_c, 0, 57, 30
2, 125472, Note_on_c, 0, 73, 0
2, 125492, Note_on_c, 0, 74, 68
2, 125530, Note_on_c, 0, 73, 82
2, 125536, Note_on_c, 0, 57, 0
2, 125538, Note_on_c, 0, 74, 0
2, 125584, Note_on_c, 0, 61, 34
2, 125589, Note_on_c, 0, 73, 0
2, 125610, Note_on_c, 0, 74, 68
2, 125670, Note_on_c, 0, 73, 72
2, 125673, Note_on_c, 0, 61, 0
2, 125692, Note_on_c, 0, 64, 40
2, 125704, Note_on_c, 0, 74, 0
2, 125726, Note_on_c, 0, 71, 92
2, 125754, Note_on_c, 0, 73, 0
2, 125798, Note_on_c, 0, 64, 0
2, 125812, Note_on_c, 0, 71, 0
2, 125814, Note_on_c, 0, 73, 85
2, 125858, Control_c, 0, 64, 0
2, 125884, Note_on_c, 0, 74, 95
2, 125886, Note_on_c, 0, 57, 42
2, 125902, Note_on_c, 0, 73, 0
2, 125998, Note_on_c, 0, 76, 95
2, 126042, Note_on_c, 0, 74, 0
2, 126108, Note_on_c, 0, 61, 41
2, 126180, Note_on_c, 0, 57, 0
2, 126212, Note_on_c, 0, 61, 0
2, 126226, Control_c, 0, 64, 127
2, 126278, Note_on_c, 0, 64, 39
2, 126380, Note_on_c, 0, 64, 0
2, 126438, Note_on_c, 0, 57, 42
2, 126476, Note_on_c, 0, 73, 55
2, 126504, Control_c, 0, 64, 0
2, 126507, Note_on_c, 0, 76, 0
2, 126624, Note_on_c, 0, 61, 41
2, 126644, Note_on_c, 0, 57, 0
2, 126696, Note_on_c, 0, 61, 0
2, 126702, Control_c, 0, 64, 127
2, 126710, Note_on_c, 0, 73, 0
2, 126760, Note_on_c, 0, 64, 41
2, 126856, Note_on_c, 0, 64, 0
2, 126904, Note_on_c, 0, 57, 41
2, 126964, Control_c, 0, 64, 0
2, 127052, Note_on_c, 0, 61, 48
2, 127174, Note_on_c, 0, 61, 0
2, 127180, Control_c, 0, 64, 127
2, 127206, Note_on_c, 0, 69, 57
2, 127212, Note_on_c, 0, 64, 48
2, 127268, Note_on_c, 0, 69, 0
2, 127286, Note_on_c, 0, 64, 0
2, 127318, Note_on_c, 0, 57, 0
2, 127332, Control_c, 0, 64, 0
2, 127356, Note_on_c, 0, 76, 56
2, 127372, Note_on_c, 0, 59, 30
2, 127528, Note_on_c, 0, 62, 48
2, 127600, Note_on_c, 0, 62, 0
2, 127602, Note_on_c, 0, 59, 0
2, 127626, Control_c, 0, 64, 127
2, 127676, Note_on_c, 0, 64, 37
2, 127764, Note_on_c, 0, 64, 0
2, 127816, Note_on_c, 0, 74, 61
2, 127822, Note_on_c, 0, 59, 30
2, 127854, Control_c, 0, 64, 0
2, 127864, Note_on_c, 0, 76, 0
2, 127968, Note_on_c, 0, 59, 0
2, 127968, Note_on_c, 0, 62, 36
2, 128050, Note_on_c, 0, 74, 0
2, 128056, Control_c, 0, 64, 127
2, 128092, Note_on_c, 0, 62, 0
2, 128094, Note_on_c, 0, 64, 41
2, 128190, Note_on_c, 0, 64, 0
2, 128266, Note_on_c, 0, 59, 41
2, 128414, Note_on_c, 0, 62, 42
2, 128480, Note_on_c, 0, 62, 0
2, 128496, Note_on_c, 0, 59, 0
2, 128534, Note_on_c, 0, 71, 83
2, 128572, Note_on_c, 0, 64, 37
2, 128592, Note_on_c, 0, 71, 0
2, 128652, Note_on_c, 0, 64, 0
2, 128692, Note_on_c, 0, 76, 83
2, 128700, Control_c, 0, 64, 0
2, 128702, Note_on_c, 0, 57, 41
2, 128848, Note_on_c, 0, 61, 52
2, 128930, Control_c, 0, 64, 127
2, 128970, Note_on_c, 0, 57, 0
2, 128980, Note_on_c, 0, 61, 0
2, 128992, Note_on_c, 0, 64, 57
2, 129054, Note_on_c, 0, 64, 0
2, 129104, Note_on_c, 0, 73, 88
2, 129136, Note_on_c, 0, 57, 55
2, 129218, Note_on_c, 0, 76, 0
2, 129274, Note_on_c, 0, 61, 59
2, 129292, Note_on_c, 0, 57, 0
2, 129398, Note_on_c, 0, 64, 48
2, 129432, Note_on_c, 0, 61, 0
2, 129536, Note_on_c, 0, 69, 69
2, 129538, Note_on_c, 0, 54, 69
2, 129544, Control_c, 0, 64, 0
2, 129564, Note_on_c, 0, 64, 0
2, 129602, Note_on_c, 0, 73, 0
2, 129726, Note_on_c, 0, 57, 51
2, 129792, Control_c, 0, 64, 127
2, 129804, Note_on_c, 0, 69, 0
2, 129812, Note_on_c, 0, 57, 0
2, 129868, Note_on_c, 0, 54, 0
2, 129886, Note_on_c, 0, 63, 59
2, 130020, Note_on_c, 0, 63, 0
2, 130132, Note_on_c, 0, 73, 64
2, 130144, Control_c, 0, 64, 0
2, 130160, Note_on_c, 0, 69, 31
2, 130170, Note_on_c, 0, 64, 41
2, 130178, Note_on_c, 0, 52, 41
2, 131196, Note_on_c, 0, 71, 48
2, 131196, Note_on_c, 0, 68, 30
2, 131228, Note_on_c, 0, 69, 0
2, 131234, Note_on_c, 0, 73, 0
2, 131376, Note_on_c, 0, 64, 0
2, 131450, Note_on_c, 0, 52, 0
2, 131452, Control_c, 0, 64, 127
2, 131686, Note_on_c, 0, 68, 0
2, 131798, Note_on_c, 0, 73, 46
2, 131822, Note_on_c, 0, 57, 30
2, 131824, Note_on_c, 0, 71, 0
2, 131834, Control_c, 0, 64, 0
2, 131972, Note_on_c, 0, 63, 44
2, 132002, Note_on_c, 0, 73, 0
2, 132044, Note_on_c, 0, 57, 0
2, 132068, Note_on_c, 0, 63, 0
2, 132114, Note_on_c, 0, 64, 48
2, 132238, Note_on_c, 0, 64, 0
2, 132272, Note_on_c, 0, 73, 60
2, 132276, Note_on_c, 0, 57, 45
2, 132428, Note_on_c, 0, 63, 49
2, 132434, Note_on_c, 0, 73, 0
2, 132492, Note_on_c, 0, 63, 0
2, 132562, Note_on_c, 0, 64, 48
2, 132634, Note_on_c, 0, 64, 0
2, 132652, Note_on_c, 0, 57, 0
2, 132700, Note_on_c, 0, 74, 87
2, 132728, Note_on_c, 0, 59, 40
2, 132740, Note_on_c, 0, 74, 0
2, 132768, Note_on_c, 0, 76, 51
2, 132804, Note_on_c, 0, 74, 87
2, 132822, Note_on_c, 0, 76, 0
2, 132880, Note_on_c, 0, 63, 41
2, 132886, Note_on_c, 0, 74, 0
2, 132896, Note_on_c, 0, 76, 64
2, 132964, Note_on_c, 0, 63, 0
2, 132964, Note_on_c, 0, 74, 76
2, 133002, Note_on_c, 0, 64, 51
2, 133010, Note_on_c, 0, 76, 0
2, 133042, Note_on_c, 0, 74, 0
2, 133072, Note_on_c, 0, 73, 64
2, 133128, Note_on_c, 0, 74, 68
2, 133142, Note_on_c, 0, 73, 0
2, 133158, Note_on_c, 0, 64, 0
2, 133236, Note_on_c, 0, 61, 38
2, 133248, Note_on_c, 0, 76, 75
2, 133266, Note_on_c, 0, 59, 0
2, 133269, Note_on_c, 0, 74, 0
2, 133424, Note_on_c, 0, 63, 54
2, 133532, Note_on_c, 0, 61, 0
2, 133560, Note_on_c, 0, 63, 0
2, 133563, Note_on_c, 0, 64, 52
2, 133654, Note_on_c, 0, 64, 0
2, 133710, Note_on_c, 0, 61, 53
2, 133732, Note_on_c, 0, 76, 0
2, 133874, Note_on_c, 0, 63, 45
2, 133944, Note_on_c, 0, 63, 0
2, 133986, Control_c, 0, 64, 127
2, 134010, Note_on_c, 0, 64, 44
2, 134042, Note_on_c, 0, 61, 0
2, 134100, Note_on_c, 0, 64, 0
2, 134204, Note_on_c, 0, 78, 60
2, 134236, Note_on_c, 0, 57, 36
2, 134248, Control_c, 0, 64, 0
2, 134352, Note_on_c, 0, 78, 0
2, 134356, Note_on_c, 0, 76, 40
2, 134386, Note_on_c, 0, 63, 41
2, 134400, Control_c, 0, 64, 127
2, 134416, Note_on_c, 0, 57, 0
2, 134418, Note_on_c, 0, 76, 0
2, 134454, Note_on_c, 0, 74, 38
2, 134522, Note_on_c, 0, 74, 0
2, 134532, Note_on_c, 0, 64, 41
2, 134537, Note_on_c, 0, 63, 0
2, 134548, Note_on_c, 0, 73, 53
2, 134604, Note_on_c, 0, 73, 0
2, 134616, Control_c, 0, 64, 0
2, 134620, Note_on_c, 0, 64, 0
2, 134664, Note_on_c, 0, 71, 72
2, 134672, Note_on_c, 0, 56, 39
2, 134770, Note_on_c, 0, 71, 0
2, 134834, Note_on_c, 0, 63, 46
2, 134876, Control_c, 0, 64, 127
2, 134894, Note_on_c, 0, 56, 0
2, 134924, Control_c, 0, 64, 0
2, 134938, Note_on_c, 0, 63, 0
2, 134988, Note_on_c, 0, 64, 40
2, 135070, Note_on_c, 0, 64, 0
2, 135102, Note_on_c, 0, 71, 79
2, 135120, Note_on_c, 0, 56, 48
2, 135260, Note_on_c, 0, 71, 0
2, 135276, Note_on_c, 0, 63, 45
2, 135352, Note_on_c, 0, 63, 0
2, 135372, Note_on_c, 0, 56, 0
2, 135380, Note_on_c, 0, 64, 52
2, 135498, Note_on_c, 0, 64, 0
2, 135518, Note_on_c, 0, 73, 64
2, 135544, Note_on_c, 0, 57, 42
2, 135566, Note_on_c, 0, 73, 0
2, 135596, Note_on_c, 0, 74, 64
2, 135630, Note_on_c, 0, 73, 65
2, 135640, Note_on_c, 0, 74, 0
2, 135716, Note_on_c, 0, 73, 0
2, 135718, Note_on_c, 0, 74, 67
2, 135730, Note_on_c, 0, 63, 29
2, 135798, Note_on_c, 0, 73, 57
2, 135812, Note_on_c, 0, 63, 0
2, 135824, Note_on_c, 0, 74, 0
2, 135840, Note_on_c, 0, 64, 41
2, 135854, Note_on_c, 0, 73, 0
2, 135874, Note_on_c, 0, 71, 72
2, 135946, Note_on_c, 0, 71, 0
2, 135946, Note_on_c, 0, 64, 0
2, 135962, Note_on_c, 0, 73, 34
2, 136038, Note_on_c, 0, 73, 0
2, 136046, Note_on_c, 0, 57, 0
2, 136052, Note_on_c, 0, 74, 68
2, 136070, Note_on_c, 0, 59, 26
2, 136226, Note_on_c, 0, 63, 47
2, 136320, Note_on_c, 0, 59, 0
2, 136352, Control_c, 0, 64, 127
2, 136360, Note_on_c, 0, 63, 0
2, 136376, Note_on_c, 0, 64, 46
2, 136426, Note_on_c, 0, 74, 0
2, 136446, Note_on_c, 0, 64, 0
2, 136522, Note_on_c, 0, 59, 42
2, 136584, Control_c, 0, 64, 0
2, 136664, Note_on_c, 0, 63, 51
2, 136760, Note_on_c, 0, 63, 0
2, 136812, Note_on_c, 0, 64, 48
2, 136828, Control_c, 0, 64, 127
2, 136858, Note_on_c, 0, 59, 0
2, 136942, Note_on_c, 0, 64, 0
2, 136996, Note_on_c, 0, 76, 65
2, 137018, Note_on_c, 0, 56, 39
2, 137044, Control_c, 0, 64, 0
2, 137106, Note_on_c, 0, 76, 0
2, 137126, Note_on_c, 0, 74, 52
2, 137174, Note_on_c, 0, 63, 37
2, 137188, Note_on_c, 0, 74, 0
2, 137212, Note_on_c, 0, 73, 47
2, 137244, Control_c, 0, 64, 127
2, 137270, Note_on_c, 0, 56, 0
2, 137272, Note_on_c, 0, 63, 0
2, 137284, Note_on_c, 0, 73, 0
2, 137316, Note_on_c, 0, 64, 46
2, 137334, Note_on_c, 0, 71, 55
2, 137386, Note_on_c, 0, 64, 0
2, 137398, Note_on_c, 0, 71, 0
2, 137398, Control_c, 0, 64, 0
2, 137444, Note_on_c, 0, 69, 63
2, 137460, Note_on_c, 0, 54, 48
2, 137528, Note_on_c, 0, 69, 0
2, 137596, Note_on_c, 0, 63, 49
2, 137628, Control_c, 0, 64, 127
2, 137674, Control_c, 0, 64, 0
2, 137698, Note_on_c, 0, 54, 0
2, 137742, Note_on_c, 0, 63, 0
2, 137744, Note_on_c, 0, 64, 54
2, 137836, Note_on_c, 0, 64, 0
2, 137874, Note_on_c, 0, 69, 46
2, 137896, Note_on_c, 0, 54, 54
2, 138038, Note_on_c, 0, 69, 0
2, 138038, Note_on_c, 0, 63, 56
2, 138132, Note_on_c, 0, 63, 0
2, 138180, Note_on_c, 0, 64, 46
2, 138252, Note_on_c, 0, 64, 0
2, 138276, Note_on_c, 0, 54, 0
2, 138308, Note_on_c, 0, 71, 82
2, 138322, Note_on_c, 0, 56, 53
2, 138354, Note_on_c, 0, 71, 0
2, 138366, Note_on_c, 0, 73, 65
2, 138412, Note_on_c, 0, 73, 0
2, 138414, Note_on_c, 0, 71, 87
2, 138480, Note_on_c, 0, 71, 0
2, 138494, Note_on_c, 0, 62, 37
2, 138500, Note_on_c, 0, 73, 47
2, 138556, Note_on_c, 0, 71, 87
2, 138578, Note_on_c, 0, 62, 0
2, 138610, Note_on_c, 0, 64, 53
2, 138613, Note_on_c, 0, 71, 0
2, 138626, Note_on_c, 0, 73, 0
2, 138634, Note_on_c, 0, 69, 63
2, 138712, Note_on_c, 0, 71, 71
2, 138715, Note_on_c, 0, 69, 0
2, 138746, Note_on_c, 0, 64, 0
2, 138788, Note_on_c, 0, 71, 0
2, 138798, Note_on_c, 0, 73, 80
2, 138822, Note_on_c, 0, 56, 0
2, 138830, Note_on_c, 0, 57, 52
2, 138962, Note_on_c, 0, 61, 52
2, 138964, Note_on_c, 0, 73, 0
2, 139094, Note_on_c, 0, 57, 0
2, 139100, Note_on_c, 0, 64, 51
2, 139128, Note_on_c, 0, 61, 0
2, 139204, Note_on_c, 0, 64, 0
2, 139248, Note_on_c, 0, 73, 60
2, 139266, Note_on_c, 0, 57, 51
2, 139410, Note_on_c, 0, 61, 52
2, 139434, Note_on_c, 0, 73, 0
2, 139502, Control_c, 0, 64, 127
2, 139530, Note_on_c, 0, 57, 0
2, 139542, Note_on_c, 0, 64, 53
2, 139556, Note_on_c, 0, 61, 0
2, 139596, Note_on_c, 0, 64, 0
2, 139690, Note_on_c, 0, 74, 65
2, 139706, Note_on_c, 0, 50, 57
2, 139730, Note_on_c, 0, 76, 77
2, 139738, Note_on_c, 0, 74, 0
2, 139776, Note_on_c, 0, 76, 0
2, 139778, Control_c, 0, 64, 0
2, 139812, Note_on_c, 0, 74, 74
2, 139834, Note_on_c, 0, 54, 64
2, 139856, Note_on_c, 0, 74, 0
2, 139868, Note_on_c, 0, 76, 53
2, 139938, Note_on_c, 0, 74, 59
2, 139948, Control_c, 0, 64, 127
2, 139982, Note_on_c, 0, 59, 56
2, 139988, Note_on_c, 0, 76, 0
2, 140008, Note_on_c, 0, 74, 0
2, 140020, Note_on_c, 0, 73, 78
2, 140032, Note_on_c, 0, 54, 0
2, 140054, Control_c, 0, 64, 0
2, 140078, Note_on_c, 0, 73, 0
2, 140100, Note_on_c, 0, 74, 77
2, 140170, Note_on_c, 0, 59, 0
2, 140173, Note_on_c, 0, 73, 80
2, 140180, Note_on_c, 0, 50, 0
2, 140194, Note_on_c, 0, 52, 67
2, 140212, Note_on_c, 0, 74, 0
2, 140326, Note_on_c, 0, 73, 0
2, 140350, Note_on_c, 0, 57, 59
2, 140408, Note_on_c, 0, 52, 0
2, 140424, Control_c, 0, 64, 127
2, 140478, Note_on_c, 0, 61, 70
2, 140516, Note_on_c, 0, 57, 0
2, 140608, Note_on_c, 0, 61, 0
2, 140610, Note_on_c, 0, 73, 72
2, 140644, Note_on_c, 0, 52, 83
2, 140776, Note_on_c, 0, 73, 0
2, 140786, Note_on_c, 0, 57, 61
2, 140792, Control_c, 0, 64, 0
2, 140820, Note_on_c, 0, 52, 0
2, 140886, Note_on_c, 0, 61, 67
2, 140932, Note_on_c, 0, 57, 0
2, 140992, Control_c, 0, 64, 127
2, 141000, Note_on_c, 0, 73, 57
2, 141026, Note_on_c, 0, 61, 0
2, 141052, Note_on_c, 0, 52, 70
2, 141058, Note_on_c, 0, 73, 0
2, 141066, Note_on_c, 0, 71, 82
2, 141114, Note_on_c, 0, 71, 0
2, 141116, Control_c, 0, 64, 0
2, 141128, Note_on_c, 0, 73, 70
2, 141188, Note_on_c, 0, 71, 68
2, 141194, Note_on_c, 0, 56, 57
2, 141262, Note_on_c, 0, 71, 0
2, 141264, Note_on_c, 0, 73, 0
2, 141292, Note_on_c, 0, 69, 64
2, 141330, Control_c, 0, 64, 127
2, 141350, Note_on_c, 0, 69, 0
2, 141358, Note_on_c, 0, 52, 0
2, 141362, Note_on_c, 0, 62, 53
2, 141392, Note_on_c, 0, 71, 103
2, 141428, Note_on_c, 0, 56, 0
2, 141430, Note_on_c, 0, 62, 0
2, 141442, Note_on_c, 0, 71, 0
2, 141566, Note_on_c, 0, 68, 70
2, 141576, Note_on_c, 0, 71, 103
2, 141606, Note_on_c, 0, 57, 33
2, 141614, Note_on_c, 0, 64, 29
2, 141622, Note_on_c, 0, 62, 48
2, 141854, Control_c, 0, 64, 0
2, 142142, Note_on_c, 0, 72, 76
2, 142204, Note_on_c, 0, 71, 0
2, 142528, Control_c, 0, 64, 127
2, 142664, Note_on_c, 0, 73, 40
2, 142666, Note_on_c, 0, 61, 32
2, 142668, Note_on_c, 0, 62, 0
2, 142668, Control_c, 0, 64, 0
2, 142700, Note_on_c, 0, 68, 0
2, 142708, Note_on_c, 0, 69, 19
2, 142726, Note_on_c, 0, 72, 0
2, 142908, Note_on_c, 0, 64, 0
2, 142914, Note_on_c, 0, 57, 0
2, 142928, Control_c, 0, 64, 127
2, 142952, Note_on_c, 0, 61, 0
2, 142994, Note_on_c, 0, 73, 0
2, 143134, Note_on_c, 0, 73, 95
2, 143144, Note_on_c, 0, 45, 109
2, 143166, Note_on_c, 0, 69, 0
2, 143176, Note_on_c, 0, 45, 0
2, 143298, Control_c, 0, 64, 0
2, 143304, Note_on_c, 0, 69, 49
2, 143344, Note_on_c, 0, 73, 0
2, 143436, Note_on_c, 0, 64, 67
2, 143452, Note_on_c, 0, 69, 0
2, 143576, Note_on_c, 0, 64, 0
2, 143578, Note_on_c, 0, 56, 99
2, 143586, Note_on_c, 0, 73, 84
2, 143590, Note_on_c, 0, 57, 107
2, 143618, Note_on_c, 0, 56, 0
2, 143636, Note_on_c, 0, 57, 0
2, 143754, Note_on_c, 0, 69, 70
2, 143786, Note_on_c, 0, 73, 0
2, 143894, Note_on_c, 0, 64, 70
2, 143902, Note_on_c, 0, 69, 0
2, 144012, Note_on_c, 0, 64, 0
2, 144034, Note_on_c, 0, 59, 109
2, 144034, Note_on_c, 0, 58, 54
2, 144034, Note_on_c, 0, 74, 101
2, 144096, Note_on_c, 0, 58, 0
2, 144120, Note_on_c, 0, 59, 0
2, 144190, Note_on_c, 0, 68, 77
2, 144250, Note_on_c, 0, 74, 0
2, 144326, Note_on_c, 0, 64, 91
2, 144338, Note_on_c, 0, 68, 0
2, 144444, Note_on_c, 0, 64, 0
2, 144464, Note_on_c, 0, 76, 99
2, 144470, Note_on_c, 0, 49, 106
2, 144588, Control_c, 0, 64, 127
2, 144598, Note_on_c, 0, 49, 0
2, 144614, Note_on_c, 0, 73, 76
2, 144634, Control_c, 0, 64, 0
2, 144674, Note_on_c, 0, 76, 0
2, 144744, Note_on_c, 0, 69, 74
2, 144764, Note_on_c, 0, 73, 0
2, 144896, Note_on_c, 0, 60, 93
2, 144899, Note_on_c, 0, 76, 98
2, 144904, Note_on_c, 0, 69, 0
2, 144910, Note_on_c, 0, 61, 113
2, 144938, Note_on_c, 0, 60, 0
2, 145002, Control_c, 0, 64, 127
2, 145018, Note_on_c, 0, 61, 0
2, 145048, Control_c, 0, 64, 0
2, 145058, Note_on_c, 0, 73, 76
2, 145086, Note_on_c, 0, 76, 0
2, 145186, Note_on_c, 0, 69, 72
2, 145244, Note_on_c, 0, 73, 0
2, 145316, Note_on_c, 0, 61, 68
2, 145350, Note_on_c, 0, 62, 106
2, 145353, Note_on_c, 0, 78, 95
2, 145357, Note_on_c, 0, 69, 0
2, 145364, Note_on_c, 0, 61, 0
2, 145416, Note_on_c, 0, 62, 0
2, 145432, Control_c, 0, 64, 127
2, 145478, Control_c, 0, 64, 0
2, 145518, Note_on_c, 0, 71, 82
2, 145556, Note_on_c, 0, 78, 0
2, 145654, Note_on_c, 0, 69, 83
2, 145668, Note_on_c, 0, 71, 0
2, 145780, Note_on_c, 0, 73, 98
2, 145784, Note_on_c, 0, 40, 127
2, 145788, Note_on_c, 0, 69, 0
2, 145836, Note_on_c, 0, 40, 0
2, 145848, Control_c, 0, 64, 127
2, 145942, Note_on_c, 0, 69, 72
2, 145972, Control_c, 0, 64, 0
2, 146004, Note_on_c, 0, 73, 0
2, 146058, Note_on_c, 0, 64, 91
2, 146090, Note_on_c, 0, 69, 0
2, 146174, Note_on_c, 0, 64, 0
2, 146216, Note_on_c, 0, 51, 97
2, 146224, Note_on_c, 0, 73, 84
2, 146234, Note_on_c, 0, 52, 116
2, 146262, Note_on_c, 0, 51, 0
2, 146300, Note_on_c, 0, 52, 0
2, 146308, Control_c, 0, 64, 127
2, 146356, Control_c, 0, 64, 0
2, 146386, Note_on_c, 0, 69, 76
2, 146424, Note_on_c, 0, 73, 0
2, 146508, Note_on_c, 0, 69, 0
2, 146510, Note_on_c, 0, 64, 91
2, 146638, Note_on_c, 0, 51, 88
2, 146650, Note_on_c, 0, 64, 0
2, 146666, Note_on_c, 0, 71, 105
2, 146668, Note_on_c, 0, 52, 118
2, 146686, Note_on_c, 0, 51, 0
2, 146732, Note_on_c, 0, 52, 0
2, 146754, Control_c, 0, 64, 127
2, 146816, Control_c, 0, 64, 0
2, 146820, Note_on_c, 0, 68, 80
2, 146852, Note_on_c, 0, 71, 0
2, 146958, Note_on_c, 0, 62, 95
2, 146964, Note_on_c, 0, 68, 0
2, 147108, Note_on_c, 0, 62, 0
2, 147108, Note_on_c, 0, 33, 116
2, 147111, Note_on_c, 0, 69, 91
2, 147262, Note_on_c, 0, 64, 95
2, 147276, Note_on_c, 0, 33, 0
2, 147280, Note_on_c, 0, 69, 0
2, 147354, Control_c, 0, 64, 127
2, 147404, Note_on_c, 0, 61, 90
2, 147414, Control_c, 0, 64, 0
2, 147438, Note_on_c, 0, 64, 0
2, 147520, Note_on_c, 0, 44, 76
2, 147568, Note_on_c, 0, 45, 92
2, 147586, Note_on_c, 0, 61, 0
2, 147590, Note_on_c, 0, 57, 87
2, 147594, Note_on_c, 0, 44, 0
2, 147664, Note_on_c, 0, 45, 0
2, 147692, Control_c, 0, 64, 127
2, 147968, Control_c, 0, 64, 0
2, 148022, Note_on_c, 0, 57, 0
2, 149754, Note_on_c, 0, 72, 47
2, 149784, Note_on_c, 0, 57, 19
2, 149966, Control_c, 0, 64, 127
2, 150074, Note_on_c, 0, 71, 62
2, 150120, Note_on_c, 0, 64, 30
2, 150170, Note_on_c, 0, 72, 0
2, 150242, Note_on_c, 0, 64, 0
2, 150308, Note_on_c, 0, 69, 62
2, 150340, Note_on_c, 0, 71, 0
2, 150368, Note_on_c, 0, 60, 22
2, 150400, Note_on_c, 0, 57, 0
2, 150482, Note_on_c, 0, 60, 0
2, 150530, Note_on_c, 0, 71, 97
2, 150578, Note_on_c, 0, 64, 37
2, 150592, Note_on_c, 0, 69, 0
2, 150690, Note_on_c, 0, 64, 0
2, 150740, Note_on_c, 0, 72, 85
2, 150766, Note_on_c, 0, 57, 40
2, 150784, Note_on_c, 0, 71, 0
2, 150842, Control_c, 0, 64, 0
2, 150956, Note_on_c, 0, 74, 93
2, 150988, Note_on_c, 0, 64, 52
2, 151000, Note_on_c, 0, 72, 0
2, 151003, Note_on_c, 0, 57, 0
2, 151010, Control_c, 0, 64, 127
2, 151178, Note_on_c, 0, 76, 79
2, 151184, Note_on_c, 0, 64, 0
2, 151200, Note_on_c, 0, 57, 33
2, 151242, Control_c, 0, 64, 0
2, 151252, Note_on_c, 0, 74, 0
2, 151392, Note_on_c, 0, 75, 75
2, 151440, Note_on_c, 0, 64, 26
2, 151470, Note_on_c, 0, 76, 0
2, 151486, Control_c, 0, 64, 127
2, 151606, Note_on_c, 0, 64, 0
2, 151608, Control_c, 0, 64, 0
2, 151626, Note_on_c, 0, 77, 56
2, 151668, Note_on_c, 0, 75, 0
2, 151676, Note_on_c, 0, 60, 26
2, 151862, Note_on_c, 0, 57, 0
2, 151868, Note_on_c, 0, 76, 48
2, 151870, Control_c, 0, 64, 127
2, 151896, Note_on_c, 0, 64, 34
2, 151934, Note_on_c, 0, 77, 0
2, 151942, Note_on_c, 0, 60, 0
2, 152022, Note_on_c, 0, 64, 0
2, 152106, Note_on_c, 0, 74, 62
2, 152132, Note_on_c, 0, 76, 0
2, 152144, Note_on_c, 0, 57, 15
2, 152286, Note_on_c, 0, 57, 0
2, 152322, Note_on_c, 0, 72, 60
2, 152324, Note_on_c, 0, 74, 0
2, 152362, Note_on_c, 0, 64, 39
2, 152446, Note_on_c, 0, 64, 0
2, 152544, Note_on_c, 0, 71, 72
2, 152562, Control_c, 0, 64, 0
2, 152570, Note_on_c, 0, 52, 39
2, 152608, Note_on_c, 0, 72, 0
2, 152760, Note_on_c, 0, 69, 61
2, 152780, Note_on_c, 0, 64, 33
2, 152824, Note_on_c, 0, 71, 0
2, 152870, Control_c, 0, 64, 127
2, 152952, Note_on_c, 0, 64, 0
2, 152972, Note_on_c, 0, 68, 72
2, 153010, Note_on_c, 0, 69, 0
2, 153020, Note_on_c, 0, 59, 33
2, 153124, Note_on_c, 0, 59, 0
2, 153138, Note_on_c, 0, 52, 0
2, 153206, Note_on_c, 0, 69, 76
2, 153234, Note_on_c, 0, 64, 46
2, 153254, Note_on_c, 0, 68, 0
2, 153348, Note_on_c, 0, 64, 0
2, 153426, Note_on_c, 0, 71, 86
2, 153448, Note_on_c, 0, 52, 51
2, 153468, Control_c, 0, 64, 0
2, 153484, Note_on_c, 0, 69, 0
2, 153626, Note_on_c, 0, 52, 0
2, 153626, Note_on_c, 0, 72, 79
2, 153638, Control_c, 0, 64, 127
2, 153658, Note_on_c, 0, 64, 42
2, 153708, Note_on_c, 0, 71, 0
2, 153806, Note_on_c, 0, 64, 0
2, 153838, Control_c, 0, 64, 0
2, 153850, Note_on_c, 0, 74, 79
2, 153866, Note_on_c, 0, 52, 55
2, 153884, Note_on_c, 0, 72, 0
2, 154060, Note_on_c, 0, 73, 67
2, 154090, Note_on_c, 0, 64, 36
2, 154104, Note_on_c, 0, 74, 0
2, 154130, Control_c, 0, 64, 127
2, 154230, Note_on_c, 0, 64, 0
2, 154238, Control_c, 0, 64, 0
2, 154280, Note_on_c, 0, 76, 59
2, 154314, Note_on_c, 0, 73, 0
2, 154320, Note_on_c, 0, 59, 36
2, 154428, Note_on_c, 0, 52, 0
2, 154482, Control_c, 0, 64, 127
2, 154496, Note_on_c, 0, 74, 60
2, 154544, Note_on_c, 0, 76, 0
2, 154552, Note_on_c, 0, 64, 37
2, 154644, Note_on_c, 0, 59, 0
2, 154656, Note_on_c, 0, 64, 0
2, 154714, Note_on_c, 0, 72, 52
2, 154726, Note_on_c, 0, 74, 0
2, 154750, Note_on_c, 0, 52, 48
2, 154876, Note_on_c, 0, 52, 0
2, 154942, Note_on_c, 0, 71, 63
2, 154954, Note_on_c, 0, 72, 0
2, 154978, Note_on_c, 0, 64, 29
2, 155106, Note_on_c, 0, 64, 0
2, 155174, Control_c, 0, 64, 0
2, 155184, Note_on_c, 0, 69, 46
2, 155214, Note_on_c, 0, 71, 0
2, 155228, Note_on_c, 0, 57, 26
2, 155416, Note_on_c, 0, 76, 64
2, 155446, Note_on_c, 0, 64, 37
2, 155454, Note_on_c, 0, 69, 0
2, 155588, Note_on_c, 0, 64, 0
2, 155624, Note_on_c, 0, 75, 78
2, 155664, Note_on_c, 0, 60, 34
2, 155672, Note_on_c, 0, 76, 0
2, 155712, Control_c, 0, 64, 127
2, 155750, Note_on_c, 0, 57, 0
2, 155854, Note_on_c, 0, 76, 83
2, 155890, Note_on_c, 0, 64, 41
2, 155994, Note_on_c, 0, 75, 0
2, 155996, Note_on_c, 0, 64, 0
2, 156076, Note_on_c, 0, 72, 74
2, 156082, Note_on_c, 0, 57, 34
2, 156156, Note_on_c, 0, 60, 0
2, 156186, Note_on_c, 0, 76, 0
2, 156292, Note_on_c, 0, 69, 74
2, 156328, Note_on_c, 0, 64, 33
2, 156340, Note_on_c, 0, 72, 0
2, 156436, Note_on_c, 0, 64, 0
2, 156520, Note_on_c, 0, 57, 0
2, 156542, Control_c, 0, 64, 0
2, 156545, Note_on_c, 0, 68, 69
2, 156560, Note_on_c, 0, 69, 0
2, 156592, Note_on_c, 0, 59, 19
2, 156728, Note_on_c, 0, 68, 0
2, 156742, Control_c, 0, 64, 127
2, 156798, Note_on_c, 0, 76, 94
2, 156836, Note_on_c, 0, 64, 34
2, 157022, Note_on_c, 0, 64, 0
2, 157060, Note_on_c, 0, 77, 84
2, 157078, Control_c, 0, 64, 0
2, 157094, Note_on_c, 0, 62, 33
2, 157102, Note_on_c, 0, 76, 0
2, 157266, Note_on_c, 0, 59, 0
2, 157278, Control_c, 0, 64, 127
2, 157304, Note_on_c, 0, 76, 71
2, 157330, Note_on_c, 0, 64, 40
2, 157386, Note_on_c, 0, 77, 0
2, 157422, Note_on_c, 0, 64, 0
2, 157536, Note_on_c, 0, 74, 71
2, 157552, Note_on_c, 0, 59, 37
2, 157600, Note_on_c, 0, 76, 0
2, 157618, Control_c, 0, 64, 0
2, 157624, Note_on_c, 0, 62, 0
2, 157724, Control_c, 0, 64, 127
2, 157752, Note_on_c, 0, 71, 86
2, 157754, Note_on_c, 0, 74, 0
2, 157768, Note_on_c, 0, 64, 41
2, 157872, Note_on_c, 0, 71, 0
2, 157928, Note_on_c, 0, 59, 0
2, 157960, Note_on_c, 0, 64, 0
2, 157976, Note_on_c, 0, 71, 68
2, 158012, Note_on_c, 0, 60, 41
2, 158094, Control_c, 0, 64, 0
2, 158216, Note_on_c, 0, 69, 59
2, 158224, Note_on_c, 0, 64, 45
2, 158260, Note_on_c, 0, 71, 0
2, 158338, Control_c, 0, 64, 127
2, 158388, Note_on_c, 0, 64, 0
2, 158434, Note_on_c, 0, 68, 60
2, 158458, Note_on_c, 0, 69, 0
2, 158472, Note_on_c, 0, 59, 36
2, 158538, Control_c, 0, 64, 0
2, 158576, Note_on_c, 0, 60, 0
2, 158664, Note_on_c, 0, 69, 63
2, 158692, Note_on_c, 0, 64, 40
2, 158694, Note_on_c, 0, 68, 0
2, 158738, Control_c, 0, 64, 127
2, 158794, Note_on_c, 0, 64, 0
2, 158890, Note_on_c, 0, 71, 61
2, 158893, Control_c, 0, 64, 0
2, 158914, Note_on_c, 0, 69, 0
2, 158942, Note_on_c, 0, 57, 24
2, 158946, Note_on_c, 0, 59, 0
2, 159108, Control_c, 0, 64, 127
2, 159126, Note_on_c, 0, 72, 54
2, 159146, Note_on_c, 0, 64, 46
2, 159164, Note_on_c, 0, 71, 0
2, 159172, Note_on_c, 0, 57, 0
2, 159230, Note_on_c, 0, 64, 0
2, 159274, Note_on_c, 0, 72, 0
2, 159408, Note_on_c, 0, 69, 46
2, 159428, Note_on_c, 0, 72, 48
2, 159446, Control_c, 0, 64, 0
2, 159458, Note_on_c, 0, 52, 36
2, 159632, Note_on_c, 0, 52, 0
2, 159646, Control_c, 0, 64, 127
2, 159680, Note_on_c, 0, 64, 33
2, 159866, Note_on_c, 0, 64, 0
2, 159892, Note_on_c, 0, 63, 46
2, 159968, Control_c, 0, 64, 0
2, 160112, Note_on_c, 0, 63, 0
2, 160136, Control_c, 0, 64, 127
2, 160154, Note_on_c, 0, 64, 49
2, 160350, Note_on_c, 0, 64, 0
2, 160442, Note_on_c, 0, 52, 44
2, 160444, Control_c, 0, 64, 0
2, 160446, Note_on_c, 0, 71, 44
2, 160458, Note_on_c, 0, 68, 29
2, 160472, Note_on_c, 0, 69, 0
2, 160498, Note_on_c, 0, 72, 0
2, 160638, Note_on_c, 0, 52, 0
2, 160674, Control_c, 0, 64, 127
2, 160686, Note_on_c, 0, 68, 0
2, 160692, Note_on_c, 0, 71, 0
2, 160730, Note_on_c, 0, 64, 37
2, 160916, Note_on_c, 0, 64, 0
2, 161074, Control_c, 0, 64, 0
2, 161082, Note_on_c, 0, 84, 83
2, 161094, Note_on_c, 0, 72, 48
2, 161098, Note_on_c, 0, 57, 39
2, 161228, Control_c, 0, 64, 127
2, 161270, Note_on_c, 0, 72, 0
2, 161274, Note_on_c, 0, 84, 0
2, 161366, Note_on_c, 0, 83, 118
2, 161372, Note_on_c, 0, 71, 85
2, 161418, Note_on_c, 0, 64, 28
2, 161444, Note_on_c, 0, 71, 0
2, 161460, Note_on_c, 0, 83, 0
2, 161550, Note_on_c, 0, 64, 0
2, 161598, Note_on_c, 0, 81, 95
2, 161604, Note_on_c, 0, 69, 70
2, 161642, Note_on_c, 0, 60, 36
2, 161668, Note_on_c, 0, 57, 0
2, 161671, Note_on_c, 0, 69, 0
2, 161730, Note_on_c, 0, 81, 0
2, 161812, Note_on_c, 0, 83, 127
2, 161822, Note_on_c, 0, 71, 93
2, 161860, Note_on_c, 0, 64, 36
2, 161884, Note_on_c, 0, 71, 0
2, 161922, Note_on_c, 0, 83, 0
2, 161954, Note_on_c, 0, 64, 0
2, 162036, Note_on_c, 0, 84, 115
2, 162042, Note_on_c, 0, 72, 85
2, 162076, Note_on_c, 0, 57, 34
2, 162124, Note_on_c, 0, 72, 0
2, 162164, Note_on_c, 0, 84, 0
2, 162188, Note_on_c, 0, 57, 0
2, 162250, Note_on_c, 0, 86, 103
2, 162252, Note_on_c, 0, 60, 0
2, 162258, Note_on_c, 0, 74, 91
2, 162292, Note_on_c, 0, 64, 44
2, 162324, Note_on_c, 0, 74, 0
2, 162370, Note_on_c, 0, 86, 0
2, 162406, Note_on_c, 0, 64, 0
2, 162470, Note_on_c, 0, 88, 99
2, 162482, Note_on_c, 0, 76, 83
2, 162492, Note_on_c, 0, 57, 45
2, 162578, Note_on_c, 0, 76, 0
2, 162690, Note_on_c, 0, 75, 88
2, 162692, Note_on_c, 0, 87, 97
2, 162736, Note_on_c, 0, 64, 39
2, 162744, Note_on_c, 0, 88, 0
2, 162794, Note_on_c, 0, 75, 0
2, 162884, Note_on_c, 0, 64, 0
2, 162934, Control_c, 0, 64, 0
2, 162946, Note_on_c, 0, 89, 97
2, 162950, Note_on_c, 0, 77, 74
2, 162978, Note_on_c, 0, 87, 0
2, 162980, Note_on_c, 0, 60, 40
2, 163082, Note_on_c, 0, 57, 0
2, 163088, Note_on_c, 0, 77, 0
2, 163090, Control_c, 0, 64, 127
2, 163100, Note_on_c, 0, 89, 0
2, 163190, Note_on_c, 0, 88, 91
2, 163204, Note_on_c, 0, 76, 56
2, 163210, Note_on_c, 0, 64, 39
2, 163242, Note_on_c, 0, 60, 0
2, 163264, Note_on_c, 0, 76, 0
2, 163288, Note_on_c, 0, 88, 0
2, 163300, Note_on_c, 0, 64, 0
2, 163394, Note_on_c, 0, 86, 80
2, 163404, Note_on_c, 0, 74, 70
2, 163438, Note_on_c, 0, 57, 31
2, 163466, Note_on_c, 0, 74, 0
2, 163504, Note_on_c, 0, 86, 0
2, 163566, Note_on_c, 0, 57, 0
2, 163616, Note_on_c, 0, 84, 90
2, 163618, Note_on_c, 0, 72, 69
2, 163664, Note_on_c, 0, 64, 40
2, 163676, Note_on_c, 0, 72, 0
2, 163684, Note_on_c, 0, 84, 0
2, 163760, Note_on_c, 0, 64, 0
2, 163850, Note_on_c, 0, 83, 99
2, 163850, Note_on_c, 0, 71, 70
2, 163870, Control_c, 0, 64, 0
2, 163872, Note_on_c, 0, 52, 52
2, 164000, Note_on_c, 0, 71, 0
2, 164002, Note_on_c, 0, 83, 0
2, 164008, Control_c, 0, 64, 127
2, 164092, Note_on_c, 0, 81, 84
2, 164102, Note_on_c, 0, 69, 56
2, 164104, Note_on_c, 0, 64, 44
2, 164166, Note_on_c, 0, 69, 0
2, 164280, Note_on_c, 0, 64, 0
2, 164306, Note_on_c, 0, 80, 87
2, 164308, Note_on_c, 0, 68, 69
2, 164314, Note_on_c, 0, 81, 0
2, 164358, Note_on_c, 0, 59, 34
2, 164444, Note_on_c, 0, 68, 0
2, 164446, Note_on_c, 0, 52, 0
2, 164454, Note_on_c, 0, 59, 0
2, 164536, Note_on_c, 0, 81, 100
2, 164539, Note_on_c, 0, 69, 83
2, 164548, Note_on_c, 0, 80, 0
2, 164566, Note_on_c, 0, 64, 45
2, 164636, Note_on_c, 0, 69, 0
2, 164674, Note_on_c, 0, 81, 0
2, 164690, Note_on_c, 0, 64, 0
2, 164740, Note_on_c, 0, 83, 127
2, 164748, Note_on_c, 0, 71, 100
2, 164762, Note_on_c, 0, 52, 57
2, 164836, Note_on_c, 0, 52, 0
2, 164860, Note_on_c, 0, 71, 0
2, 164870, Note_on_c, 0, 83, 0
2, 164954, Note_on_c, 0, 84, 111
2, 164960, Note_on_c, 0, 72, 88
2, 164976, Note_on_c, 0, 64, 55
2, 165056, Note_on_c, 0, 72, 0
2, 165076, Note_on_c, 0, 84, 0
2, 165142, Note_on_c, 0, 64, 0
2, 165180, Note_on_c, 0, 86, 109
2, 165183, Note_on_c, 0, 74, 99
2, 165204, Note_on_c, 0, 52, 56
2, 165260, Note_on_c, 0, 74, 0
2, 165392, Note_on_c, 0, 73, 90
2, 165398, Note_on_c, 0, 85, 98
2, 165428, Note_on_c, 0, 64, 48
2, 165456, Note_on_c, 0, 86, 0
2, 165484, Control_c, 0, 64, 0
2, 165530, Note_on_c, 0, 73, 0
2, 165614, Note_on_c, 0, 64, 0
2, 165630, Note_on_c, 0, 88, 101
2, 165633, Note_on_c, 0, 76, 88
2, 165652, Control_c, 0, 64, 127
2, 165672, Note_on_c, 0, 59, 32
2, 165677, Note_on_c, 0, 85, 0
2, 165732, Note_on_c, 0, 52, 0
2, 165735, Note_on_c, 0, 88, 0
2, 165746, Note_on_c, 0, 76, 0
2, 165844, Note_on_c, 0, 59, 0
2, 165854, Note_on_c, 0, 86, 92
2, 165858, Note_on_c, 0, 74, 78
2, 165888, Note_on_c, 0, 64, 48
2, 165916, Note_on_c, 0, 74, 0
2, 165919, Note_on_c, 0, 86, 0
2, 165972, Note_on_c, 0, 64, 0
2, 166064, Note_on_c, 0, 84, 101
2, 166067, Note_on_c, 0, 72, 77
2, 166096, Note_on_c, 0, 52, 51
2, 166134, Note_on_c, 0, 72, 0
2, 166158, Note_on_c, 0, 84, 0
2, 166166, Note_on_c, 0, 52, 0
2, 166274, Note_on_c, 0, 83, 122
2, 166280, Note_on_c, 0, 71, 83
2, 166302, Note_on_c, 0, 64, 37
2, 166342, Note_on_c, 0, 71, 0
2, 166346, Note_on_c, 0, 83, 0
2, 166390, Note_on_c, 0, 64, 0
2, 166520, Note_on_c, 0, 81, 91
2, 166523, Note_on_c, 0, 69, 75
2, 166528, Note_on_c, 0, 57, 38
2, 166544, Control_c, 0, 64, 0
2, 166668, Note_on_c, 0, 69, 0
2, 166728, Control_c, 0, 64, 127
2, 166746, Note_on_c, 0, 64, 34
2, 166778, Note_on_c, 0, 68, 59
2, 166782, Note_on_c, 0, 80, 84
2, 166816, Note_on_c, 0, 81, 0
2, 166864, Note_on_c, 0, 64, 0
2, 166896, Note_on_c, 0, 68, 0
2, 166976, Note_on_c, 0, 80, 0
2, 167004, Note_on_c, 0, 81, 83
2, 167010, Note_on_c, 0, 69, 61
2, 167044, Note_on_c, 0, 60, 42
2, 167068, Note_on_c, 0, 69, 0
2, 167078, Note_on_c, 0, 81, 0
2, 167180, Note_on_c, 0, 60, 0
2, 167214, Note_on_c, 0, 84, 100
2, 167218, Note_on_c, 0, 72, 75
2, 167242, Note_on_c, 0, 64, 49
2, 167250, Note_on_c, 0, 57, 0
2, 167256, Note_on_c, 0, 84, 0
2, 167282, Note_on_c, 0, 72, 0
2, 167376, Note_on_c, 0, 64, 0
2, 167430, Note_on_c, 0, 83, 121
2, 167434, Note_on_c, 0, 71, 90
2, 167440, Note_on_c, 0, 56, 69
2, 167486, Note_on_c, 0, 71, 0
2, 167544, Note_on_c, 0, 83, 0
2, 167644, Note_on_c, 0, 86, 110
2, 167647, Note_on_c, 0, 74, 94
2, 167660, Note_on_c, 0, 64, 59
2, 167694, Note_on_c, 0, 86, 0
2, 167697, Note_on_c, 0, 74, 0
2, 167762, Note_on_c, 0, 64, 0
2, 167822, Note_on_c, 0, 56, 0
2, 167870, Note_on_c, 0, 72, 94
2, 167872, Note_on_c, 0, 84, 106
2, 167876, Note_on_c, 0, 57, 72
2, 167882, Control_c, 0, 64, 0
2, 168010, Note_on_c, 0, 84, 0
2, 168010, Note_on_c, 0, 72, 0
2, 168050, Control_c, 0, 64, 127
2, 168098, Note_on_c, 0, 83, 122
2, 168100, Note_on_c, 0, 64, 54
2, 168102, Note_on_c, 0, 71, 94
2, 168156, Note_on_c, 0, 71, 0
2, 168210, Note_on_c, 0, 83, 0
2, 168218, Note_on_c, 0, 64, 0
2, 168318, Note_on_c, 0, 72, 94
2, 168320, Note_on_c, 0, 84, 109
2, 168354, Note_on_c, 0, 60, 62
2, 168372, Note_on_c, 0, 72, 0
2, 168412, Note_on_c, 0, 84, 0
2, 168500, Note_on_c, 0, 60, 0
2, 168530, Note_on_c, 0, 88, 113
2, 168536, Note_on_c, 0, 76, 88
2, 168560, Note_on_c, 0, 64, 57
2, 168606, Note_on_c, 0, 76, 0
2, 168624, Note_on_c, 0, 88, 0
2, 168720, Note_on_c, 0, 64, 0
2, 168756, Note_on_c, 0, 86, 108
2, 168760, Note_on_c, 0, 74, 101
2, 168766, Note_on_c, 0, 57, 0
2, 168772, Control_c, 0, 64, 0
2, 168780, Note_on_c, 0, 53, 97
2, 168856, Note_on_c, 0, 74, 0
2, 168888, Note_on_c, 0, 86, 0
2, 168910, Control_c, 0, 64, 127
2, 168978, Note_on_c, 0, 89, 106
2, 168982, Note_on_c, 0, 77, 86
2, 169004, Note_on_c, 0, 62, 46
2, 169032, Note_on_c, 0, 89, 0
2, 169034, Note_on_c, 0, 53, 0
2, 169060, Note_on_c, 0, 77, 0
2, 169162, Note_on_c, 0, 62, 0
2, 169246, Note_on_c, 0, 76, 78
2, 169249, Note_on_c, 0, 88, 61
2, 169258, Note_on_c, 0, 52, 63
2, 169294, Control_c, 0, 64, 0
2, 169432, Note_on_c, 0, 76, 0
2, 169518, Note_on_c, 0, 87, 78
2, 169522, Note_on_c, 0, 60, 33
2, 169528, Note_on_c, 0, 88, 0
2, 169528, Note_on_c, 0, 75, 82
2, 169540, Control_c, 0, 64, 127
2, 169634, Note_on_c, 0, 60, 0
2, 169650, Note_on_c, 0, 75, 0
2, 169726, Note_on_c, 0, 87, 0
2, 169752, Note_on_c, 0, 88, 88
2, 169758, Note_on_c, 0, 76, 82
2, 169792, Note_on_c, 0, 88, 0
2, 169802, Note_on_c, 0, 57, 37
2, 169808, Note_on_c, 0, 76, 0
2, 169868, Note_on_c, 0, 52, 0
2, 169902, Note_on_c, 0, 57, 0
2, 170008, Note_on_c, 0, 76, 83
2, 170016, Note_on_c, 0, 64, 83
2, 170044, Note_on_c, 0, 60, 40
2, 170058, Note_on_c, 0, 64, 0
2, 170092, Note_on_c, 0, 76, 0
2, 170220, Note_on_c, 0, 60, 0
2, 170248, Control_c, 0, 64, 0
2, 170251, Note_on_c, 0, 78, 79
2, 170254, Note_on_c, 0, 66, 59
2, 170270, Note_on_c, 0, 52, 63
2, 170334, Note_on_c, 0, 66, 0
2, 170380, Note_on_c, 0, 78, 0
2, 170432, Control_c, 0, 64, 127
2, 170472, Note_on_c, 0, 52, 0
2, 170475, Note_on_c, 0, 80, 71
2, 170478, Note_on_c, 0, 68, 59
2, 170520, Note_on_c, 0, 59, 44
2, 170550, Note_on_c, 0, 68, 0
2, 170594, Note_on_c, 0, 59, 0
2, 170634, Note_on_c, 0, 80, 0
2, 170662, Control_c, 0, 64, 0
2, 170710, Note_on_c, 0, 69, 48
2, 170712, Note_on_c, 0, 45, 63
2, 170718, Note_on_c, 0, 81, 60
2, 170782, Note_on_c, 0, 45, 0
2, 170938, Note_on_c, 0, 48, 68
2, 170996, Note_on_c, 0, 48, 0
2, 171174, Note_on_c, 0, 52, 77
2, 171230, Note_on_c, 0, 52, 0
2, 171418, Note_on_c, 0, 57, 54
2, 171486, Note_on_c, 0, 57, 0
2, 171732, Note_on_c, 0, 45, 37
2, 171784, Control_c, 0, 64, 127
2, 171806, Note_on_c, 0, 45, 0
2, 171850, Note_on_c, 0, 81, 0
2, 171920, Note_on_c, 0, 69, 0
2, 172752, Note_on_c, 0, 69, 44
2, 172770, Note_on_c, 0, 60, 26
2, 172810, Note_on_c, 0, 57, 15
2, 173004, Note_on_c, 0, 68, 57
2, 173054, Note_on_c, 0, 69, 0
2, 173234, Note_on_c, 0, 69, 52
2, 173264, Note_on_c, 0, 68, 0
2, 173468, Note_on_c, 0, 81, 72
2, 173476, Note_on_c, 0, 69, 0
2, 173694, Note_on_c, 0, 80, 76
2, 173697, Note_on_c, 0, 61, 49
2, 173722, Note_on_c, 0, 60, 0
2, 173756, Note_on_c, 0, 81, 0
2, 173900, Note_on_c, 0, 57, 0
2, 173928, Note_on_c, 0, 79, 88
2, 173972, Note_on_c, 0, 80, 0
2, 174030, Note_on_c, 0, 79, 0
2, 174040, Control_c, 0, 64, 127
2, 174146, Control_c, 0, 64, 0
2, 174148, Note_on_c, 0, 79, 78
2, 174174, Note_on_c, 0, 62, 33
2, 174182, Note_on_c, 0, 61, 0
2, 174202, Note_on_c, 0, 57, 29
2, 174390, Note_on_c, 0, 77, 67
2, 174440, Note_on_c, 0, 79, 0
2, 174616, Note_on_c, 0, 76, 49
2, 174619, Note_on_c, 0, 77, 0
2, 174850, Note_on_c, 0, 77, 42
2, 174860, Note_on_c, 0, 76, 0
2, 175088, Note_on_c, 0, 77, 0
2, 175091, Note_on_c, 0, 76, 45
2, 175300, Note_on_c, 0, 62, 0
2, 175308, Note_on_c, 0, 57, 0
2, 175324, Note_on_c, 0, 76, 0
2, 175340, Note_on_c, 0, 77, 47
2, 175343, Control_c, 0, 64, 127
2, 175612, Note_on_c, 0, 81, 54
2, 175630, Note_on_c, 0, 77, 0
2, 175632, Note_on_c, 0, 65, 32
2, 175660, Note_on_c, 0, 57, 24
2, 175866, Note_on_c, 0, 80, 68
2, 175876, Note_on_c, 0, 65, 0
2, 175904, Note_on_c, 0, 64, 61
2, 175906, Note_on_c, 0, 81, 0
2, 176082, Control_c, 0, 64, 0
2, 176102, Note_on_c, 0, 65, 60
2, 176104, Note_on_c, 0, 64, 0
2, 176104, Note_on_c, 0, 81, 88
2, 176136, Note_on_c, 0, 80, 0
2, 176302, Note_on_c, 0, 65, 0
2, 176305, Note_on_c, 0, 80, 82
2, 176328, Note_on_c, 0, 64, 68
2, 176348, Note_on_c, 0, 81, 0
2, 176538, Note_on_c, 0, 64, 0
2, 176562, Note_on_c, 0, 81, 64
2, 176568, Note_on_c, 0, 65, 47
2, 176594, Note_on_c, 0, 80, 0
2, 176756, Note_on_c, 0, 65, 0
2, 176774, Control_c, 0, 64, 127
2, 176814, Note_on_c, 0, 81, 0
2, 176817, Note_on_c, 0, 77, 65
2, 176826, Note_on_c, 0, 57, 0
2, 176838, Note_on_c, 0, 62, 47
2, 176892, Note_on_c, 0, 62, 0
2, 176898, Note_on_c, 0, 77, 0
2, 177052, Note_on_c, 0, 77, 69
2, 177058, Note_on_c, 0, 62, 48
2, 177068, Note_on_c, 0, 57, 31
2, 177098, Control_c, 0, 64, 0
2, 177246, Note_on_c, 0, 62, 0
2, 177286, Note_on_c, 0, 76, 60
2, 177292, Note_on_c, 0, 60, 46
2, 177298, Note_on_c, 0, 77, 0
2, 177502, Note_on_c, 0, 75, 55
2, 177506, Note_on_c, 0, 76, 0
2, 177508, Note_on_c, 0, 60, 0
2, 177516, Note_on_c, 0, 59, 42
2, 177728, Note_on_c, 0, 59, 0
2, 177736, Note_on_c, 0, 76, 48
2, 177742, Note_on_c, 0, 60, 44
2, 177754, Note_on_c, 0, 75, 0
2, 177952, Note_on_c, 0, 60, 0
2, 177968, Note_on_c, 0, 76, 0
2, 177976, Note_on_c, 0, 75, 47
2, 177990, Note_on_c, 0, 59, 32
2, 178220, Note_on_c, 0, 59, 0
2, 178246, Note_on_c, 0, 76, 40
2, 178266, Note_on_c, 0, 75, 0
2, 178266, Note_on_c, 0, 60, 44
2, 178280, Control_c, 0, 64, 127
2, 178288, Note_on_c, 0, 57, 0
2, 178340, Note_on_c, 0, 60, 0
2, 178360, Note_on_c, 0, 76, 0
2, 178508, Note_on_c, 0, 60, 53
2, 178520, Note_on_c, 0, 76, 68
2, 178530, Note_on_c, 0, 57, 39
2, 178638, Control_c, 0, 64, 0
2, 178740, Note_on_c, 0, 74, 74
2, 178756, Note_on_c, 0, 62, 67
2, 178778, Note_on_c, 0, 60, 0
2, 178796, Note_on_c, 0, 76, 0
2, 178956, Note_on_c, 0, 72, 74
2, 178974, Note_on_c, 0, 64, 74
2, 178984, Note_on_c, 0, 62, 0
2, 179000, Note_on_c, 0, 74, 0
2, 179172, Control_c, 0, 64, 127
2, 179190, Note_on_c, 0, 71, 91
2, 179198, Note_on_c, 0, 64, 0
2, 179200, Note_on_c, 0, 62, 71
2, 179228, Note_on_c, 0, 72, 0
2, 179396, Note_on_c, 0, 62, 0
2, 179416, Control_c, 0, 64, 0
2, 179424, Note_on_c, 0, 69, 77
2, 179432, Note_on_c, 0, 60, 55
2, 179434, Note_on_c, 0, 71, 0
2, 179602, Control_c, 0, 64, 127
2, 179616, Note_on_c, 0, 60, 0
2, 179620, Note_on_c, 0, 57, 0
2, 179660, Note_on_c, 0, 76, 84
2, 179682, Note_on_c, 0, 69, 0
2, 179910, Control_c, 0, 64, 0
2, 179926, Note_on_c, 0, 56, 55
2, 179929, Note_on_c, 0, 59, 59
2, 179938, Note_on_c, 0, 77, 77
2, 179982, Note_on_c, 0, 76, 0
2, 180168, Note_on_c, 0, 59, 0
2, 180186, Control_c, 0, 64, 127
2, 180196, Note_on_c, 0, 74, 79
2, 180202, Note_on_c, 0, 60, 64
2, 180205, Note_on_c, 0, 57, 53
2, 180210, Note_on_c, 0, 56, 0
2, 180254, Note_on_c, 0, 77, 0
2, 180260, Note_on_c, 0, 57, 0
2, 180378, Note_on_c, 0, 60, 0
2, 180410, Note_on_c, 0, 62, 84
2, 180413, Note_on_c, 0, 71, 85
2, 180426, Note_on_c, 0, 59, 68
2, 180440, Note_on_c, 0, 74, 0
2, 180568, Note_on_c, 0, 62, 0
2, 180616, Note_on_c, 0, 71, 0
2, 180619, Note_on_c, 0, 69, 74
2, 180623, Note_on_c, 0, 64, 85
2, 180634, Note_on_c, 0, 59, 0
2, 180634, Note_on_c, 0, 60, 77
2, 180736, Note_on_c, 0, 64, 0
2, 180848, Note_on_c, 0, 68, 76
2, 180866, Note_on_c, 0, 60, 0
2, 180874, Note_on_c, 0, 62, 69
2, 180876, Note_on_c, 0, 65, 72
2, 180892, Control_c, 0, 64, 0
2, 180914, Note_on_c, 0, 69, 0
2, 181090, Note_on_c, 0, 71, 100
2, 181120, Note_on_c, 0, 68, 0
2, 181124, Control_c, 0, 64, 127
2, 181158, Note_on_c, 0, 65, 0
2, 181202, Note_on_c, 0, 71, 0
2, 181302, Note_on_c, 0, 62, 0
2, 181314, Note_on_c, 0, 71, 87
2, 181328, Note_on_c, 0, 60, 59
2, 181346, Note_on_c, 0, 64, 56
2, 181430, Control_c, 0, 64, 0
2, 181550, Note_on_c, 0, 69, 80
2, 181588, Note_on_c, 0, 64, 0
2, 181588, Note_on_c, 0, 71, 0
2, 181646, Control_c, 0, 64, 127
2, 181676, Note_on_c, 0, 69, 0
2, 181774, Note_on_c, 0, 72, 95
2, 181794, Note_on_c, 0, 56, 68
2, 181794, Note_on_c, 0, 64, 67
2, 181802, Note_on_c, 0, 60, 0
2, 181922, Control_c, 0, 64, 0
2, 182016, Note_on_c, 0, 71, 105
2, 182062, Note_on_c, 0, 64, 0
2, 182080, Note_on_c, 0, 72, 0
2, 182122, Control_c, 0, 64, 127
2, 182146, Note_on_c, 0, 71, 0
2, 182278, Note_on_c, 0, 74, 98
2, 182286, Note_on_c, 0, 57, 71
2, 182296, Note_on_c, 0, 64, 61
2, 182310, Note_on_c, 0, 56, 0
2, 182336, Control_c, 0, 64, 0
2, 182540, Note_on_c, 0, 64, 0
2, 182564, Note_on_c, 0, 72, 92
2, 182566, Control_c, 0, 64, 127
2, 182604, Note_on_c, 0, 74, 0
2, 182640, Note_on_c, 0, 57, 0
2, 182726, Note_on_c, 0, 72, 0
2, 182874, Note_on_c, 0, 71, 95
2, 182892, Note_on_c, 0, 69, 53
2, 182906, Note_on_c, 0, 51, 56
2, 182998, Control_c, 0, 64, 0
2, 183044, Note_on_c, 0, 72, 70
2, 183072, Note_on_c, 0, 71, 0
2, 183180, Note_on_c, 0, 74, 70
2, 183188, Note_on_c, 0, 72, 0
2, 183342, Note_on_c, 0, 72, 70
2, 183384, Note_on_c, 0, 74, 0
2, 183872, Control_c, 0, 64, 127
2, 184300, Note_on_c, 0, 71, 41
2, 184302, Note_on_c, 0, 68, 22
2, 184328, Note_on_c, 0, 72, 0
2, 184334, Control_c, 0, 64, 0
2, 184370, Note_on_c, 0, 52, 31
2, 184380, Note_on_c, 0, 69, 0
2, 184422, Note_on_c, 0, 51, 0
2, 184596, Control_c, 0, 64, 127
2, 184706, Note_on_c, 0, 52, 0
2, 184734, Note_on_c, 0, 68, 0
2, 184788, Note_on_c, 0, 71, 0
2, 185134, Note_on_c, 0, 72, 40
2, 185170, Note_on_c, 0, 57, 19
2, 185302, Control_c, 0, 64, 0
2, 185402, Note_on_c, 0, 71, 54
2, 185430, Note_on_c, 0, 72, 0
2, 185458, Note_on_c, 0, 64, 22
2, 185548, Control_c, 0, 64, 127
2, 185618, Note_on_c, 0, 64, 0
2, 185648, Note_on_c, 0, 69, 48
2, 185676, Note_on_c, 0, 60, 39
2, 185682, Note_on_c, 0, 71, 0
2, 185778, Note_on_c, 0, 60, 0
2, 185834, Note_on_c, 0, 57, 0
2, 185882, Note_on_c, 0, 71, 87
2, 185910, Note_on_c, 0, 64, 47
2, 185922, Note_on_c, 0, 69, 0
2, 186072, Note_on_c, 0, 64, 0
2, 186108, Note_on_c, 0, 72, 76
2, 186134, Note_on_c, 0, 57, 36
2, 186150, Note_on_c, 0, 71, 0
2, 186238, Note_on_c, 0, 57, 0
2, 186334, Note_on_c, 0, 74, 91
2, 186360, Note_on_c, 0, 64, 42
2, 186372, Note_on_c, 0, 72, 0
2, 186516, Note_on_c, 0, 64, 0
2, 186552, Note_on_c, 0, 76, 75
2, 186564, Note_on_c, 0, 57, 39
2, 186578, Control_c, 0, 64, 0
2, 186581, Note_on_c, 0, 74, 0
2, 186772, Note_on_c, 0, 75, 76
2, 186790, Note_on_c, 0, 64, 34
2, 186822, Note_on_c, 0, 76, 0
2, 186900, Control_c, 0, 64, 127
2, 186976, Note_on_c, 0, 64, 0
2, 186992, Control_c, 0, 64, 0
2, 186996, Note_on_c, 0, 77, 70
2, 187018, Note_on_c, 0, 60, 38
2, 187022, Note_on_c, 0, 75, 0
2, 187184, Note_on_c, 0, 57, 0
2, 187210, Note_on_c, 0, 76, 55
2, 187224, Control_c, 0, 64, 127
2, 187248, Note_on_c, 0, 64, 41
2, 187264, Note_on_c, 0, 77, 0
2, 187348, Note_on_c, 0, 64, 0
2, 187432, Note_on_c, 0, 74, 55
2, 187448, Note_on_c, 0, 76, 0
2, 187458, Note_on_c, 0, 57, 33
2, 187472, Note_on_c, 0, 60, 0
2, 187484, Control_c, 0, 64, 0
2, 187666, Note_on_c, 0, 72, 48
2, 187668, Control_c, 0, 64, 127
2, 187680, Note_on_c, 0, 74, 0
2, 187690, Note_on_c, 0, 57, 0
2, 187698, Note_on_c, 0, 64, 34
2, 187820, Note_on_c, 0, 64, 0
2, 187884, Note_on_c, 0, 72, 0
2, 187890, Note_on_c, 0, 71, 59
2, 187898, Control_c, 0, 64, 0
2, 187910, Note_on_c, 0, 52, 44
2, 188102, Note_on_c, 0, 69, 49
2, 188138, Note_on_c, 0, 64, 22
2, 188176, Control_c, 0, 64, 127
2, 188179, Note_on_c, 0, 71, 0
2, 188264, Note_on_c, 0, 64, 0
2, 188282, Control_c, 0, 64, 0
2, 188324, Note_on_c, 0, 68, 51
2, 188346, Note_on_c, 0, 69, 0
2, 188354, Note_on_c, 0, 59, 28
2, 188450, Note_on_c, 0, 52, 0
2, 188514, Control_c, 0, 64, 127
2, 188554, Note_on_c, 0, 69, 59
2, 188566, Note_on_c, 0, 64, 39
2, 188582, Note_on_c, 0, 68, 0
2, 188684, Note_on_c, 0, 64, 0
2, 188744, Control_c, 0, 64, 0
2, 188764, Note_on_c, 0, 59, 0
2, 188768, Note_on_c, 0, 71, 75
2, 188786, Note_on_c, 0, 52, 42
2, 188790, Note_on_c, 0, 69, 0
2, 188960, Note_on_c, 0, 52, 0
2, 188960, Control_c, 0, 64, 127
2, 188974, Note_on_c, 0, 72, 72
2, 189010, Note_on_c, 0, 64, 39
2, 189026, Note_on_c, 0, 71, 0
2, 189136, Note_on_c, 0, 64, 0
2, 189198, Note_on_c, 0, 74, 77
2, 189212, Note_on_c, 0, 72, 0
2, 189215, Note_on_c, 0, 52, 59
2, 189220, Control_c, 0, 64, 0
2, 189408, Note_on_c, 0, 73, 69
2, 189426, Note_on_c, 0, 64, 42
2, 189442, Note_on_c, 0, 74, 0
2, 189466, Control_c, 0, 64, 127
2, 189596, Note_on_c, 0, 64, 0
2, 189632, Note_on_c, 0, 76, 63
2, 189634, Control_c, 0, 64, 0
2, 189650, Note_on_c, 0, 59, 45
2, 189661, Note_on_c, 0, 73, 0
2, 189694, Note_on_c, 0, 52, 0
2, 189854, Note_on_c, 0, 74, 64
2, 189874, Note_on_c, 0, 64, 44
2, 189880, Control_c, 0, 64, 127
2, 189896, Note_on_c, 0, 76, 0
2, 189896, Note_on_c, 0, 59, 0
2, 189956, Note_on_c, 0, 64, 0
2, 190018, Control_c, 0, 64, 0
2, 190066, Note_on_c, 0, 72, 56
2, 190076, Note_on_c, 0, 74, 0
2, 190100, Note_on_c, 0, 52, 48
2, 190194, Note_on_c, 0, 52, 0
2, 190264, Control_c, 0, 64, 127
2, 190286, Note_on_c, 0, 71, 60
2, 190292, Note_on_c, 0, 72, 0
2, 190302, Note_on_c, 0, 64, 25
2, 190464, Note_on_c, 0, 64, 0
2, 190502, Note_on_c, 0, 71, 0
2, 190505, Note_on_c, 0, 69, 42
2, 190516, Note_on_c, 0, 57, 30
2, 190572, Control_c, 0, 64, 0
2, 190720, Note_on_c, 0, 68, 46
2, 190722, Note_on_c, 0, 64, 44
2, 190748, Note_on_c, 0, 69, 0
2, 190834, Control_c, 0, 64, 127
2, 190850, Note_on_c, 0, 64, 0
2, 190858, Note_on_c, 0, 57, 0
2, 190910, Control_c, 0, 64, 0
2, 190950, Note_on_c, 0, 69, 44
2, 190968, Note_on_c, 0, 68, 0
2, 190972, Note_on_c, 0, 60, 34
2, 191126, Control_c, 0, 64, 127
2, 191162, Note_on_c, 0, 72, 51
2, 191192, Note_on_c, 0, 69, 0
2, 191204, Note_on_c, 0, 64, 30
2, 191230, Note_on_c, 0, 60, 0
2, 191294, Control_c, 0, 64, 0
2, 191296, Note_on_c, 0, 64, 0
2, 191386, Note_on_c, 0, 71, 53
2, 191392, Note_on_c, 0, 56, 34
2, 191406, Note_on_c, 0, 72, 0
2, 191510, Control_c, 0, 64, 127
2, 191578, Note_on_c, 0, 71, 0
2, 191581, Note_on_c, 0, 74, 65
2, 191602, Control_c, 0, 64, 0
2, 191605, Note_on_c, 0, 64, 47
2, 191722, Note_on_c, 0, 56, 0
2, 191770, Control_c, 0, 64, 127
2, 191772, Note_on_c, 0, 64, 0
2, 191790, Note_on_c, 0, 72, 64
2, 191806, Note_on_c, 0, 74, 0
2, 191820, Note_on_c, 0, 57, 34
2, 191864, Control_c, 0, 64, 0
2, 192002, Note_on_c, 0, 71, 79
2, 192028, Note_on_c, 0, 64, 44
2, 192046, Note_on_c, 0, 72, 0
2, 192062, Control_c, 0, 64, 127
2, 192124, Note_on_c, 0, 64, 0
2, 192216, Control_c, 0, 64, 0
2, 192220, Note_on_c, 0, 72, 75
2, 192232, Note_on_c, 0, 71, 0
2, 192262, Note_on_c, 0, 60, 40
2, 192386, Control_c, 0, 64, 127
2, 192430, Note_on_c, 0, 76, 74
2, 192454, Note_on_c, 0, 64, 49
2, 192464, Note_on_c, 0, 60, 0
2, 192468, Note_on_c, 0, 72, 0
2, 192556, Note_on_c, 0, 64, 0
2, 192636, Note_on_c, 0, 57, 0
2, 192646, Control_c, 0, 64, 0
2, 192651, Note_on_c, 0, 74, 78
2, 192676, Note_on_c, 0, 53, 71
2, 192702, Note_on_c, 0, 76, 0
2, 192830, Control_c, 0, 64, 127
2, 192858, Note_on_c, 0, 77, 77
2, 192876, Note_on_c, 0, 62, 48
2, 192879, Note_on_c, 0, 74, 0
2, 192892, Control_c, 0, 64, 0
2, 193046, Control_c, 0, 64, 127
2, 193048, Note_on_c, 0, 62, 0
2, 193072, Note_on_c, 0, 76, 84
2, 193098, Note_on_c, 0, 77, 0
2, 193101, Note_on_c, 0, 52, 59
2, 193106, Note_on_c, 0, 53, 0
2, 193122, Control_c, 0, 64, 0
2, 193286, Note_on_c, 0, 75, 84
2, 193292, Control_c, 0, 64, 127
2, 193306, Note_on_c, 0, 76, 0
2, 193312, Note_on_c, 0, 60, 41
2, 193430, Control_c, 0, 64, 0
2, 193468, Note_on_c, 0, 60, 0
2, 193510, Note_on_c, 0, 76, 83
2, 193522, Note_on_c, 0, 75, 0
2, 193538, Note_on_c, 0, 57, 39
2, 193660, Control_c, 0, 64, 127
2, 193714, Note_on_c, 0, 76, 0
2, 193720, Note_on_c, 0, 64, 95
2, 193730, Note_on_c, 0, 52, 0
2, 193742, Note_on_c, 0, 57, 0
2, 193756, Note_on_c, 0, 60, 44
2, 193936, Note_on_c, 0, 60, 0
2, 193936, Note_on_c, 0, 66, 78
2, 193962, Note_on_c, 0, 64, 0
2, 193966, Note_on_c, 0, 52, 69
2, 194014, Control_c, 0, 64, 0
2, 194148, Note_on_c, 0, 68, 79
2, 194180, Note_on_c, 0, 59, 53
2, 194188, Note_on_c, 0, 66, 0
2, 194202, Note_on_c, 0, 52, 0
2, 194214, Control_c, 0, 64, 127
2, 194240, Note_on_c, 0, 59, 0
2, 194384, Note_on_c, 0, 69, 72
2, 194414, Note_on_c, 0, 68, 0
2, 194424, Note_on_c, 0, 57, 30
2, 194436, Note_on_c, 0, 45, 30
2, 194444, Control_c, 0, 64, 0
2, 194628, Note_on_c, 0, 68, 82
2, 194668, Note_on_c, 0, 69, 0
2, 194766, Control_c, 0, 64, 127
2, 194876, Note_on_c, 0, 69, 62
2, 194924, Note_on_c, 0, 68, 0
2, 195074, Control_c, 0, 64, 0
2, 195104, Note_on_c, 0, 64, 74
2, 195114, Note_on_c, 0, 69, 0
2, 195320, Control_c, 0, 64, 127
2, 195326, Note_on_c, 0, 60, 71
2, 195334, Note_on_c, 0, 64, 0
2, 195444, Note_on_c, 0, 57, 0
2, 195470, Note_on_c, 0, 45, 0
2, 195500, Note_on_c, 0, 60, 0
2, 195594, Note_on_c, 0, 64, 84
2, 195634, Note_on_c, 0, 64, 0
2, 195874, Note_on_c, 0, 45, 71
2, 195876, Note_on_c, 0, 69, 83
2, 195876, Note_on_c, 0, 81, 100
2, 196024, Note_on_c, 0, 69, 0
2, 196120, Note_on_c, 0, 68, 88
2, 196122, Note_on_c, 0, 80, 95
2, 196156, Note_on_c, 0, 52, 69
2, 196162, Note_on_c, 0, 81, 0
2, 196240, Note_on_c, 0, 68, 0
2, 196318, Note_on_c, 0, 52, 0
2, 196321, Note_on_c, 0, 80, 0
2, 196344, Note_on_c, 0, 69, 86
2, 196347, Note_on_c, 0, 81, 102
2, 196372, Note_on_c, 0, 48, 54
2, 196390, Note_on_c, 0, 69, 0
2, 196458, Note_on_c, 0, 81, 0
2, 196562, Note_on_c, 0, 84, 115
2, 196565, Note_on_c, 0, 72, 91
2, 196582, Note_on_c, 0, 48, 0
2, 196588, Note_on_c, 0, 52, 65
2, 196624, Note_on_c, 0, 72, 0
2, 196624, Note_on_c, 0, 84, 0
2, 196724, Note_on_c, 0, 45, 0
2, 196752, Note_on_c, 0, 52, 0
2, 196782, Note_on_c, 0, 83, 127
2, 196784, Note_on_c, 0, 71, 109
2, 196794, Note_on_c, 0, 44, 82
2, 196828, Note_on_c, 0, 71, 0
2, 196890, Note_on_c, 0, 83, 0
2, 196988, Note_on_c, 0, 86, 114
2, 196996, Note_on_c, 0, 74, 95
2, 197010, Note_on_c, 0, 52, 83
2, 197060, Note_on_c, 0, 74, 0
2, 197060, Note_on_c, 0, 86, 0
2, 197150, Note_on_c, 0, 44, 0
2, 197178, Note_on_c, 0, 52, 0
2, 197216, Note_on_c, 0, 72, 98
2, 197216, Note_on_c, 0, 84, 110
2, 197226, Control_c, 0, 64, 0
2, 197226, Note_on_c, 0, 45, 86
2, 197372, Note_on_c, 0, 72, 0
2, 197384, Note_on_c, 0, 84, 0
2, 197384, Control_c, 0, 64, 127
2, 197450, Note_on_c, 0, 52, 71
2, 197464, Note_on_c, 0, 83, 125
2, 197464, Note_on_c, 0, 71, 105
2, 197512, Note_on_c, 0, 71, 0
2, 197558, Note_on_c, 0, 83, 0
2, 197624, Note_on_c, 0, 52, 0
2, 197684, Note_on_c, 0, 84, 109
2, 197687, Note_on_c, 0, 72, 86
2, 197712, Note_on_c, 0, 48, 60
2, 197734, Note_on_c, 0, 72, 0
2, 197788, Note_on_c, 0, 84, 0
2, 197902, Note_on_c, 0, 88, 111
2, 197906, Note_on_c, 0, 76, 86
2, 197930, Note_on_c, 0, 52, 84
2, 197968, Note_on_c, 0, 76, 0
2, 197976, Note_on_c, 0, 88, 0
2, 197994, Note_on_c, 0, 48, 0
2, 198058, Note_on_c, 0, 45, 0
2, 198118, Note_on_c, 0, 52, 0
2, 198132, Control_c, 0, 64, 0
2, 198140, Note_on_c, 0, 74, 107
2, 198142, Note_on_c, 0, 86, 102
2, 198156, Note_on_c, 0, 41, 87
2, 198242, Note_on_c, 0, 74, 0
2, 198272, Note_on_c, 0, 86, 0
2, 198286, Control_c, 0, 64, 127
2, 198372, Note_on_c, 0, 89, 107
2, 198377, Note_on_c, 0, 77, 90
2, 198406, Note_on_c, 0, 50, 72
2, 198420, Note_on_c, 0, 41, 0
2, 198444, Note_on_c, 0, 89, 0
2, 198456, Note_on_c, 0, 77, 0
2, 198586, Note_on_c, 0, 50, 0
2, 198622, Note_on_c, 0, 88, 106
2, 198632, Note_on_c, 0, 76, 84
2, 198647, Note_on_c, 0, 40, 80
2, 198686, Control_c, 0, 64, 0
2, 198752, Note_on_c, 0, 76, 0
2, 198892, Note_on_c, 0, 48, 44
2, 198892, Note_on_c, 0, 75, 75
2, 198895, Note_on_c, 0, 87, 78
2, 198900, Control_c, 0, 64, 127
2, 198926, Note_on_c, 0, 88, 0
2, 198998, Note_on_c, 0, 75, 0
2, 199070, Note_on_c, 0, 48, 0
2, 199074, Note_on_c, 0, 87, 0
2, 199132, Note_on_c, 0, 88, 71
2, 199132, Note_on_c, 0, 76, 70
2, 199160, Note_on_c, 0, 45, 47
2, 199174, Note_on_c, 0, 40, 0
2, 199178, Note_on_c, 0, 88, 0
2, 199182, Note_on_c, 0, 76, 0
2, 199280, Note_on_c, 0, 45, 0
2, 199398, Note_on_c, 0, 76, 80
2, 199401, Note_on_c, 0, 64, 86
2, 199408, Note_on_c, 0, 48, 36
2, 199442, Note_on_c, 0, 64, 0
2, 199452, Note_on_c, 0, 76, 0
2, 199630, Note_on_c, 0, 48, 0
2, 199668, Control_c, 0, 64, 0
2, 199672, Note_on_c, 0, 78, 76
2, 199674, Note_on_c, 0, 66, 60
2, 199702, Note_on_c, 0, 40, 55
2, 199826, Note_on_c, 0, 66, 0
2, 199858, Note_on_c, 0, 78, 0
2, 199868, Control_c, 0, 64, 127
2, 199944, Note_on_c, 0, 80, 71
2, 199948, Note_on_c, 0, 68, 56
2, 199966, Note_on_c, 0, 47, 42
2, 200004, Note_on_c, 0, 40, 0
2, 200036, Note_on_c, 0, 47, 0
2, 200086, Note_on_c, 0, 68, 0
2, 200166, Note_on_c, 0, 80, 0
2, 200190, Control_c, 0, 64, 0
2, 200198, Note_on_c, 0, 69, 59
2, 200201, Note_on_c, 0, 81, 71
2, 200210, Note_on_c, 0, 33, 97
2, 200308, Note_on_c, 0, 33, 0
2, 200444, Note_on_c, 0, 36, 90
2, 200520, Note_on_c, 0, 36, 0
2, 200714, Note_on_c, 0, 40, 92
2, 200808, Note_on_c, 0, 40, 0
2, 201016, Note_on_c, 0, 45, 56
2, 201154, Note_on_c, 0, 45, 0
2, 201492, Note_on_c, 0, 33, 52
2, 201834, Control_c, 0, 64, 127
2, 201854, Note_on_c, 0, 33, 0
2, 201884, Note_on_c, 0, 69, 0
2, 201894, Note_on_c, 0, 81, 0
2, 202080, Control_c, 0, 64, 0
2, 203272, Note_on_c, 0, 73, 31
2, 203302, Note_on_c, 0, 69, 16
2, 203312, Note_on_c, 0, 45, 19
2, 203320, Note_on_c, 0, 57, 16
2, 203432, Control_c, 0, 64, 127
2, 203458, Note_on_c, 0, 45, 0
2, 203502, Note_on_c, 0, 57, 0
2, 203580, Note_on_c, 0, 69, 0
2, 203584, Note_on_c, 0, 73, 0
2, 203736, Note_on_c, 0, 64, 23
2, 203828, Note_on_c, 0, 64, 0
2, 204026, Note_on_c, 0, 69, 19
2, 204038, Note_on_c, 0, 73, 36
2, 204042, Note_on_c, 0, 85, 41
2, 204062, Note_on_c, 0, 81, 38
2, 204128, Note_on_c, 0, 81, 0
2, 204168, Note_on_c, 0, 85, 0
2, 204171, Note_on_c, 0, 69, 0
2, 204270, Note_on_c, 0, 64, 39
2, 204300, Note_on_c, 0, 73, 0
2, 204345, Note_on_c, 0, 64, 0
2, 204462, Note_on_c, 0, 74, 64
2, 204464, Note_on_c, 0, 86, 83
2, 204466, Note_on_c, 0, 83, 71
2, 204472, Note_on_c, 0, 71, 46
2, 204544, Note_on_c, 0, 71, 0
2, 204662, Note_on_c, 0, 74, 0
2, 204684, Note_on_c, 0, 64, 59
2, 204702, Note_on_c, 0, 83, 0
2, 204750, Note_on_c, 0, 64, 0
2, 204792, Note_on_c, 0, 86, 0
2, 204862, Control_c, 0, 64, 0
2, 204868, Note_on_c, 0, 88, 91
2, 204884, Note_on_c, 0, 73, 46
2, 204884, Note_on_c, 0, 76, 60
2, 204898, Note_on_c, 0, 85, 56
2, 205074, Note_on_c, 0, 76, 0
2, 205077, Control_c, 0, 64, 127
2, 205110, Note_on_c, 0, 64, 33
2, 205200, Note_on_c, 0, 88, 0
2, 205212, Note_on_c, 0, 64, 0
2, 205222, Note_on_c, 0, 73, 0
2, 205250, Note_on_c, 0, 85, 0
2, 205312, Note_on_c, 0, 86, 40
2, 205316, Note_on_c, 0, 83, 67
2, 205318, Note_on_c, 0, 71, 30
2, 205322, Note_on_c, 0, 74, 54
2, 205478, Note_on_c, 0, 71, 0
2, 205496, Note_on_c, 0, 64, 40
2, 205516, Note_on_c, 0, 83, 0
2, 205586, Note_on_c, 0, 86, 0
2, 205589, Note_on_c, 0, 64, 0
2, 205710, Note_on_c, 0, 73, 46
2, 205714, Note_on_c, 0, 85, 54
2, 205732, Note_on_c, 0, 74, 0
2, 205734, Note_on_c, 0, 69, 24
2, 205764, Note_on_c, 0, 85, 0
2, 205862, Note_on_c, 0, 69, 0
2, 205914, Note_on_c, 0, 64, 54
2, 206016, Note_on_c, 0, 64, 0
2, 206138, Control_c, 0, 64, 0
2, 206162, Note_on_c, 0, 68, 44
2, 206168, Note_on_c, 0, 73, 0
2, 206182, Note_on_c, 0, 71, 48
2, 206190, Note_on_c, 0, 40, 63
2, 206206, Note_on_c, 0, 52, 45
2, 206262, Note_on_c, 0, 40, 0
2, 206270, Note_on_c, 0, 68, 0
2, 206294, Note_on_c, 0, 52, 0
2, 206322, Control_c, 0, 64, 127
2, 206372, Note_on_c, 0, 71, 0
2, 206414, Note_on_c, 0, 64, 56
2, 206618, Note_on_c, 0, 64, 0
2, 206668, Note_on_c, 0, 68, 42
2, 206672, Note_on_c, 0, 71, 65
2, 206672, Note_on_c, 0, 83, 121
2, 206674, Note_on_c, 0, 80, 61
2, 206812, Note_on_c, 0, 68, 0
2, 206884, Note_on_c, 0, 64, 49
2, 206970, Note_on_c, 0, 64, 0
2, 207022, Note_on_c, 0, 80, 0
2, 207056, Note_on_c, 0, 83, 0
2, 207056, Note_on_c, 0, 85, 98
2, 207066, Note_on_c, 0, 71, 0
2, 207074, Note_on_c, 0, 81, 76
2, 207079, Note_on_c, 0, 73, 79
2, 207104, Note_on_c, 0, 69, 29
2, 207218, Note_on_c, 0, 69, 0
2, 207288, Note_on_c, 0, 64, 47
2, 207360, Note_on_c, 0, 64, 0
2, 207426, Note_on_c, 0, 81, 0
2, 207458, Note_on_c, 0, 86, 91
2, 207464, Note_on_c, 0, 74, 65
2, 207466, Note_on_c, 0, 85, 0
2, 207468, Note_on_c, 0, 73, 0
2, 207482, Note_on_c, 0, 71, 44
2, 207492, Note_on_c, 0, 83, 90
2, 207504, Control_c, 0, 64, 0
2, 207668, Note_on_c, 0, 71, 0
2, 207676, Note_on_c, 0, 64, 48
2, 207704, Control_c, 0, 64, 127
2, 207820, Note_on_c, 0, 64, 0
2, 207844, Note_on_c, 0, 83, 0
2, 207884, Note_on_c, 0, 86, 0
2, 207896, Note_on_c, 0, 74, 0
2, 207896, Note_on_c, 0, 85, 56
2, 207904, Control_c, 0, 64, 0
2, 207906, Note_on_c, 0, 81, 45
2, 207912, Note_on_c, 0, 73, 55
2, 207920, Note_on_c, 0, 69, 14
2, 208070, Note_on_c, 0, 69, 0
2, 208086, Note_on_c, 0, 64, 48
2, 208088, Control_c, 0, 64, 127
2, 208118, Note_on_c, 0, 81, 0
2, 208164, Note_on_c, 0, 64, 0
2, 208196, Note_on_c, 0, 85, 0
2, 208304, Note_on_c, 0, 68, 31
2, 208307, Note_on_c, 0, 71, 59
2, 208332, Note_on_c, 0, 73, 0
2, 208370, Note_on_c, 0, 71, 0
2, 208396, Note_on_c, 0, 68, 0
2, 208488, Note_on_c, 0, 64, 51
2, 208592, Note_on_c, 0, 64, 0
2, 208702, Control_c, 0, 64, 0
2, 208710, Note_on_c, 0, 69, 55
2, 208722, Note_on_c, 0, 64, 39
2, 208736, Note_on_c, 0, 57, 48
2, 208740, Note_on_c, 0, 45, 45
2, 208822, Note_on_c, 0, 64, 0
2, 208842, Note_on_c, 0, 45, 0
2, 208858, Note_on_c, 0, 69, 0
2, 208876, Note_on_c, 0, 57, 0
2, 208876, Control_c, 0, 64, 127
2, 208902, Note_on_c, 0, 61, 59
2, 208982, Note_on_c, 0, 61, 0
2, 209190, Note_on_c, 0, 81, 78
2, 209192, Note_on_c, 0, 69, 40
2, 209234, Note_on_c, 0, 81, 0
2, 209254, Note_on_c, 0, 64, 10
2, 209350, Note_on_c, 0, 64, 0
2, 209388, Note_on_c, 0, 69, 0
2, 209391, Note_on_c, 0, 61, 53
2, 209494, Note_on_c, 0, 61, 0
2, 209620, Note_on_c, 0, 57, 47
2, 209632, Note_on_c, 0, 69, 49
2, 209636, Note_on_c, 0, 45, 46
2, 209640, Control_c, 0, 64, 0
2, 209650, Note_on_c, 0, 64, 47
2, 209732, Note_on_c, 0, 45, 0
2, 209740, Note_on_c, 0, 57, 0
2, 209778, Control_c, 0, 64, 127
2, 209788, Note_on_c, 0, 64, 0
2, 209824, Note_on_c, 0, 61, 59
2, 209830, Note_on_c, 0, 69, 0
2, 209940, Note_on_c, 0, 61, 0
2, 209994, Control_c, 0, 64, 0
2, 210044, Note_on_c, 0, 68, 56
2, 210048, Note_on_c, 0, 52, 68
2, 210052, Note_on_c, 0, 71, 61
2, 210052, Note_on_c, 0, 40, 75
2, 210104, Note_on_c, 0, 40, 0
2, 210170, Note_on_c, 0, 52, 0
2, 210194, Control_c, 0, 64, 127
2, 210204, Note_on_c, 0, 68, 0
2, 210220, Note_on_c, 0, 71, 0
2, 210234, Note_on_c, 0, 64, 59
2, 210424, Note_on_c, 0, 64, 0
2, 210454, Note_on_c, 0, 83, 122
2, 210456, Note_on_c, 0, 71, 75
2, 210462, Note_on_c, 0, 68, 46
2, 210490, Note_on_c, 0, 83, 0
2, 210626, Note_on_c, 0, 71, 0
2, 210646, Note_on_c, 0, 68, 0
2, 210676, Note_on_c, 0, 64, 59
2, 210842, Note_on_c, 0, 64, 0
2, 210900, Note_on_c, 0, 71, 87
2, 210908, Note_on_c, 0, 68, 59
2, 210916, Control_c, 0, 64, 0
2, 210922, Note_on_c, 0, 52, 65
2, 210922, Note_on_c, 0, 40, 75
2, 210966, Note_on_c, 0, 40, 0
2, 210998, Note_on_c, 0, 52, 0
2, 211054, Control_c, 0, 64, 127
2, 211074, Note_on_c, 0, 71, 0
2, 211106, Note_on_c, 0, 64, 78
2, 211144, Note_on_c, 0, 68, 0
2, 211338, Note_on_c, 0, 64, 0
2, 211412, Note_on_c, 0, 81, 90
2, 211414, Note_on_c, 0, 85, 82
2, 211418, Note_on_c, 0, 69, 30
2, 211428, Note_on_c, 0, 73, 60
2, 211606, Note_on_c, 0, 85, 0
2, 211644, Note_on_c, 0, 64, 59
2, 211730, Note_on_c, 0, 69, 0
2, 211735, Note_on_c, 0, 81, 0
2, 211823, Control_c, 0, 64, 0
2, 211826, Note_on_c, 0, 86, 103
2, 211831, Note_on_c, 0, 64, 0
2, 211838, Note_on_c, 0, 74, 70
2, 211844, Note_on_c, 0, 83, 108
2, 211850, Note_on_c, 0, 71, 64
2, 211870, Note_on_c, 0, 73, 0
2, 212038, Note_on_c, 0, 64, 62
2, 212068, Note_on_c, 0, 71, 0
2, 212068, Control_c, 0, 64, 127
2, 212154, Note_on_c, 0, 64, 0
2, 212158, Note_on_c, 0, 86, 0
2, 212194, Note_on_c, 0, 83, 0
2, 212228, Note_on_c, 0, 85, 84
2, 212234, Note_on_c, 0, 73, 63
2, 212246, Note_on_c, 0, 69, 41
2, 212248, Note_on_c, 0, 81, 72
2, 212262, Note_on_c, 0, 74, 0
2, 212284, Control_c, 0, 64, 0
2, 212414, Note_on_c, 0, 69, 0
2, 212444, Note_on_c, 0, 64, 62
2, 212498, Control_c, 0, 64, 127
2, 212522, Note_on_c, 0, 81, 0
2, 212552, Note_on_c, 0, 85, 0
2, 212572, Note_on_c, 0, 64, 0
2, 212622, Control_c, 0, 64, 0
2, 212644, Note_on_c, 0, 73, 0
2, 212648, Note_on_c, 0, 68, 41
2, 212648, Note_on_c, 0, 71, 68
2, 212652, Note_on_c, 0, 83, 94
2, 212660, Note_on_c, 0, 80, 53
2, 212764, Note_on_c, 0, 83, 0
2, 212772, Note_on_c, 0, 80, 0
2, 212790, Control_c, 0, 64, 127
2, 212854, Note_on_c, 0, 64, 64
2, 212910, Note_on_c, 0, 64, 0
2, 212916, Note_on_c, 0, 71, 0
2, 212918, Note_on_c, 0, 68, 0
2, 213052, Note_on_c, 0, 75, 75
2, 213090, Note_on_c, 0, 64, 65
2, 213266, Note_on_c, 0, 76, 78
2, 213272, Note_on_c, 0, 75, 0
2, 213438, Note_on_c, 0, 64, 0
2, 213464, Note_on_c, 0, 75, 80
2, 213466, Control_c, 0, 64, 0
2, 213468, Note_on_c, 0, 76, 0
2, 213476, Note_on_c, 0, 52, 98
2, 213620, Control_c, 0, 64, 127
2, 213656, Note_on_c, 0, 52, 0
2, 213682, Note_on_c, 0, 75, 0
2, 213685, Note_on_c, 0, 76, 92
2, 213866, Control_c, 0, 64, 0
2, 213908, Note_on_c, 0, 76, 0
2, 213924, Note_on_c, 0, 73, 78
2, 213930, Note_on_c, 0, 57, 62
2, 213930, Note_on_c, 0, 45, 68
2, 213932, Note_on_c, 0, 69, 55
2, 214052, Note_on_c, 0, 45, 0
2, 214086, Note_on_c, 0, 57, 0
2, 214096, Control_c, 0, 64, 127
2, 214161, Note_on_c, 0, 64, 67
2, 214168, Note_on_c, 0, 73, 0
2, 214198, Note_on_c, 0, 69, 0
2, 214352, Note_on_c, 0, 64, 0
2, 214440, Note_on_c, 0, 85, 86
2, 214446, Note_on_c, 0, 81, 82
2, 214449, Note_on_c, 0, 69, 38
2, 214458, Note_on_c, 0, 73, 65
2, 214670, Note_on_c, 0, 64, 54
2, 214720, Note_on_c, 0, 69, 0
2, 214794, Note_on_c, 0, 64, 0
2, 214804, Note_on_c, 0, 81, 0
2, 214808, Note_on_c, 0, 85, 0
2, 214838, Note_on_c, 0, 86, 99
2, 214846, Note_on_c, 0, 83, 107
2, 214862, Note_on_c, 0, 73, 0
2, 214862, Note_on_c, 0, 74, 68
2, 214862, Note_on_c, 0, 71, 63
2, 214894, Control_c, 0, 64, 0
2, 215064, Control_c, 0, 64, 127
2, 215074, Note_on_c, 0, 64, 64
2, 215090, Note_on_c, 0, 74, 0
2, 215108, Note_on_c, 0, 71, 0
2, 215166, Note_on_c, 0, 64, 0
2, 215198, Note_on_c, 0, 83, 0
2, 215232, Note_on_c, 0, 86, 0
2, 215246, Note_on_c, 0, 88, 95
2, 215256, Note_on_c, 0, 76, 62
2, 215259, Note_on_c, 0, 73, 48
2, 215268, Note_on_c, 0, 85, 60
2, 215294, Control_c, 0, 64, 0
2, 215464, Control_c, 0, 64, 127
2, 215470, Note_on_c, 0, 64, 51
2, 215472, Note_on_c, 0, 76, 0
2, 215628, Note_on_c, 0, 64, 0
2, 215638, Note_on_c, 0, 88, 0
2, 215640, Note_on_c, 0, 73, 0
2, 215660, Note_on_c, 0, 74, 63
2, 215662, Note_on_c, 0, 85, 0
2, 215665, Note_on_c, 0, 86, 77
2, 215682, Note_on_c, 0, 83, 80
2, 215682, Note_on_c, 0, 71, 47
2, 215694, Control_c, 0, 64, 0
2, 215788, Note_on_c, 0, 71, 0
2, 215848, Control_c, 0, 64, 127
2, 215868, Note_on_c, 0, 64, 57
2, 215960, Note_on_c, 0, 83, 0
2, 215986, Note_on_c, 0, 86, 0
2, 215992, Note_on_c, 0, 64, 0
2, 216032, Control_c, 0, 64, 0
2, 216062, Note_on_c, 0, 74, 0
2, 216076, Note_on_c, 0, 73, 54
2, 216080, Note_on_c, 0, 81, 47
2, 216088, Note_on_c, 0, 85, 59
2, 216091, Note_on_c, 0, 69, 38
2, 216140, Control_c, 0, 64, 127
2, 216188, Note_on_c, 0, 85, 0
2, 216204, Note_on_c, 0, 81, 0
2, 216310, Note_on_c, 0, 69, 0
2, 216318, Note_on_c, 0, 64, 41
2, 216438, Note_on_c, 0, 64, 0
2, 216492, Control_c, 0, 64, 0
2, 216536, Note_on_c, 0, 68, 41
2, 216540, Note_on_c, 0, 40, 83
2, 216540, Note_on_c, 0, 71, 60
2, 216542, Note_on_c, 0, 73, 0
2, 216552, Note_on_c, 0, 52, 57
2, 216584, Note_on_c, 0, 40, 0
2, 216610, Note_on_c, 0, 52, 0
2, 216662, Control_c, 0, 64, 127
2, 216742, Note_on_c, 0, 68, 0
2, 216768, Note_on_c, 0, 64, 68
2, 216770, Note_on_c, 0, 71, 0
2, 216966, Note_on_c, 0, 64, 0
2, 217004, Note_on_c, 0, 68, 54
2, 217009, Note_on_c, 0, 83, 121
2, 217009, Note_on_c, 0, 71, 80
2, 217012, Note_on_c, 0, 80, 75
2, 217210, Note_on_c, 0, 64, 60
2, 217224, Note_on_c, 0, 68, 0
2, 217318, Note_on_c, 0, 64, 0
2, 217398, Note_on_c, 0, 85, 100
2, 217401, Note_on_c, 0, 71, 0
2, 217401, Note_on_c, 0, 73, 82
2, 217406, Note_on_c, 0, 80, 0
2, 217414, Note_on_c, 0, 83, 0
2, 217414, Note_on_c, 0, 81, 85
2, 217426, Note_on_c, 0, 69, 48
2, 217429, Control_c, 0, 64, 0
2, 217534, Note_on_c, 0, 69, 0
2, 217614, Control_c, 0, 64, 127
2, 217619, Note_on_c, 0, 64, 61
2, 217730, Note_on_c, 0, 64, 0
2, 217752, Note_on_c, 0, 81, 0
2, 217796, Note_on_c, 0, 85, 0
2, 217806, Note_on_c, 0, 73, 0
2, 217816, Control_c, 0, 64, 0
2, 217816, Note_on_c, 0, 71, 54
2, 217822, Note_on_c, 0, 74, 68
2, 217824, Note_on_c, 0, 86, 80
2, 217842, Note_on_c, 0, 83, 87
2, 218030, Control_c, 0, 64, 127
2, 218033, Note_on_c, 0, 64, 49
2, 218048, Note_on_c, 0, 71, 0
2, 218196, Note_on_c, 0, 64, 0
2, 218196, Note_on_c, 0, 86, 0
2, 218215, Note_on_c, 0, 83, 0
2, 218246, Control_c, 0, 64, 0
2, 218246, Note_on_c, 0, 73, 52
2, 218256, Note_on_c, 0, 85, 59
2, 218262, Note_on_c, 0, 74, 0
2, 218262, Note_on_c, 0, 69, 32
2, 218284, Note_on_c, 0, 81, 47
2, 218368, Note_on_c, 0, 69, 0
2, 218430, Control_c, 0, 64, 127
2, 218454, Note_on_c, 0, 64, 49
2, 218528, Note_on_c, 0, 81, 0
2, 218548, Note_on_c, 0, 64, 0
2, 218586, Note_on_c, 0, 85, 0
2, 218628, Control_c, 0, 64, 0
2, 218672, Note_on_c, 0, 68, 44
2, 218690, Note_on_c, 0, 83, 94
2, 218696, Note_on_c, 0, 71, 60
2, 218698, Note_on_c, 0, 80, 53
2, 218708, Note_on_c, 0, 73, 0
2, 218736, Control_c, 0, 64, 127
2, 218766, Note_on_c, 0, 71, 0
2, 218802, Note_on_c, 0, 83, 0
2, 218810, Note_on_c, 0, 80, 0
2, 218816, Note_on_c, 0, 68, 0
2, 218876, Note_on_c, 0, 64, 60
2, 218932, Note_on_c, 0, 64, 0
2, 219090, Control_c, 0, 64, 0
2, 219106, Note_on_c, 0, 45, 55
2, 219112, Note_on_c, 0, 57, 55
2, 219112, Note_on_c, 0, 69, 46
2, 219136, Note_on_c, 0, 64, 45
2, 219166, Note_on_c, 0, 45, 0
2, 219182, Note_on_c, 0, 57, 0
2, 219228, Note_on_c, 0, 64, 0
2, 219258, Control_c, 0, 64, 127
2, 219300, Note_on_c, 0, 69, 0
2, 219306, Note_on_c, 0, 61, 39
2, 219380, Note_on_c, 0, 61, 0
2, 219578, Note_on_c, 0, 81, 80
2, 219581, Note_on_c, 0, 69, 44
2, 219594, Note_on_c, 0, 73, 48
2, 219608, Note_on_c, 0, 64, 36
2, 219680, Note_on_c, 0, 64, 0
2, 219774, Note_on_c, 0, 61, 49
2, 219842, Note_on_c, 0, 61, 0
2, 219872, Note_on_c, 0, 81, 0
2, 219878, Note_on_c, 0, 73, 0
2, 219892, Note_on_c, 0, 69, 0
2, 219974, Note_on_c, 0, 83, 106
2, 219980, Note_on_c, 0, 68, 47
2, 219984, Note_on_c, 0, 71, 67
2, 219992, Note_on_c, 0, 76, 62
2, 219996, Control_c, 0, 64, 0
2, 220150, Note_on_c, 0, 68, 0
2, 220150, Control_c, 0, 64, 127
2, 220160, Note_on_c, 0, 71, 0
2, 220182, Note_on_c, 0, 83, 0
2, 220202, Note_on_c, 0, 64, 49
2, 220260, Note_on_c, 0, 76, 0
2, 220284, Note_on_c, 0, 64, 0
2, 220358, Control_c, 0, 64, 0
2, 220372, Note_on_c, 0, 73, 62
2, 220392, Note_on_c, 0, 85, 85
2, 220402, Note_on_c, 0, 69, 41
2, 220420, Note_on_c, 0, 81, 68
2, 220488, Control_c, 0, 64, 127
2, 220490, Note_on_c, 0, 81, 0
2, 220494, Note_on_c, 0, 85, 0
2, 220590, Note_on_c, 0, 69, 0
2, 220628, Note_on_c, 0, 64, 65
2, 220648, Note_on_c, 0, 73, 0
2, 220760, Note_on_c, 0, 64, 0
2, 220836, Note_on_c, 0, 73, 69
2, 220838, Note_on_c, 0, 54, 86
2, 220850, Note_on_c, 0, 69, 53
2, 220852, Note_on_c, 0, 42, 53
2, 220970, Note_on_c, 0, 54, 0
2, 221042, Note_on_c, 0, 66, 49
2, 221116, Note_on_c, 0, 69, 0
2, 221174, Note_on_c, 0, 42, 0
2, 221210, Note_on_c, 0, 66, 0
2, 221250, Note_on_c, 0, 38, 74
2, 221258, Note_on_c, 0, 50, 74
2, 221262, Note_on_c, 0, 74, 85
2, 221268, Note_on_c, 0, 71, 76
2, 221270, Note_on_c, 0, 73, 0
2, 221302, Control_c, 0, 64, 0
2, 221438, Note_on_c, 0, 38, 0
2, 221450, Note_on_c, 0, 66, 60
2, 221466, Note_on_c, 0, 71, 0
2, 221470, Control_c, 0, 64, 127
2, 221492, Note_on_c, 0, 50, 0
2, 221564, Note_on_c, 0, 66, 0
2, 221626, Control_c, 0, 64, 0
2, 221660, Note_on_c, 0, 73, 78
2, 221662, Note_on_c, 0, 74, 0
2, 221662, Note_on_c, 0, 52, 87
2, 221664, Note_on_c, 0, 40, 92
2, 221672, Note_on_c, 0, 69, 56
2, 221702, Note_on_c, 0, 40, 0
2, 221720, Note_on_c, 0, 52, 0
2, 221778, Control_c, 0, 64, 127
2, 221824, Note_on_c, 0, 69, 0
2, 221854, Note_on_c, 0, 64, 61
2, 221860, Note_on_c, 0, 73, 0
2, 222058, Note_on_c, 0, 64, 0
2, 222106, Note_on_c, 0, 73, 67
2, 222116, Note_on_c, 0, 85, 85
2, 222120, Note_on_c, 0, 81, 68
2, 222142, Note_on_c, 0, 69, 29
2, 222162, Control_c, 0, 64, 0
2, 222316, Control_c, 0, 64, 127
2, 222360, Note_on_c, 0, 69, 0
2, 222362, Note_on_c, 0, 85, 0
2, 222368, Note_on_c, 0, 73, 0
2, 222370, Note_on_c, 0, 64, 36
2, 222426, Note_on_c, 0, 81, 0
2, 222452, Note_on_c, 0, 64, 0
2, 222548, Note_on_c, 0, 83, 107
2, 222550, Note_on_c, 0, 71, 75
2, 222552, Note_on_c, 0, 68, 46
2, 222562, Note_on_c, 0, 80, 48
2, 222578, Control_c, 0, 64, 0
2, 222778, Control_c, 0, 64, 127
2, 222790, Note_on_c, 0, 64, 59
2, 222810, Note_on_c, 0, 68, 0
2, 222878, Note_on_c, 0, 83, 0
2, 222926, Note_on_c, 0, 80, 0
2, 222978, Control_c, 0, 64, 0
2, 222990, Note_on_c, 0, 64, 0
2, 223010, Note_on_c, 0, 81, 67
2, 223020, Note_on_c, 0, 69, 51
2, 223042, Note_on_c, 0, 71, 0
2, 223162, Control_c, 0, 64, 127
2, 223166, Note_on_c, 0, 81, 0
2, 223270, Note_on_c, 0, 64, 62
2, 223328, Note_on_c, 0, 69, 0
2, 223450, Note_on_c, 0, 64, 0
2, 223488, Note_on_c, 0, 61, 54
2, 223494, Note_on_c, 0, 57, 31
2, 223712, Note_on_c, 0, 61, 0
2, 223728, Note_on_c, 0, 57, 0
2, 223772, Note_on_c, 0, 64, 41
2, 223850, Note_on_c, 0, 64, 0
2, 224008, Control_c, 0, 64, 0
2, 224036, Note_on_c, 0, 45, 30
2, 224039, Note_on_c, 0, 69, 36
2, 224190, Control_c, 0, 64, 127
2, 224208, Note_on_c, 0, 45, 0
2, 224286, Note_on_c, 0, 69, 0
2, 224808, Note_on_c, 0, 76, 63
2, 224834, Note_on_c, 0, 57, 24
2, 224882, Control_c, 0, 64, 0
2, 225066, Note_on_c, 0, 61, 40
2, 225174, Control_c, 0, 64, 127
2, 225268, Note_on_c, 0, 61, 0
2, 225310, Note_on_c, 0, 64, 44
2, 225544, Note_on_c, 0, 64, 0
2, 225602, Note_on_c, 0, 78, 69
2, 225612, Note_on_c, 0, 76, 0
2, 225615, Note_on_c, 0, 61, 33
2, 225738, Note_on_c, 0, 76, 65
2, 225772, Note_on_c, 0, 78, 0
2, 225818, Note_on_c, 0, 61, 0
2, 225880, Note_on_c, 0, 74, 82
2, 225883, Note_on_c, 0, 76, 0
2, 225888, Note_on_c, 0, 64, 38
2, 225992, Note_on_c, 0, 74, 0
2, 225992, Note_on_c, 0, 57, 0
2, 226002, Note_on_c, 0, 73, 76
2, 226068, Note_on_c, 0, 61, 46
2, 226084, Note_on_c, 0, 64, 0
2, 226120, Note_on_c, 0, 71, 88
2, 226132, Note_on_c, 0, 73, 0
2, 226194, Note_on_c, 0, 61, 0
2, 226200, Note_on_c, 0, 71, 0
2, 226210, Note_on_c, 0, 69, 85
2, 226250, Control_c, 0, 64, 0
2, 226368, Note_on_c, 0, 77, 109
2, 226380, Note_on_c, 0, 69, 0
2, 226390, Note_on_c, 0, 57, 38
2, 226700, Note_on_c, 0, 78, 87
2, 226738, Note_on_c, 0, 77, 0
2, 226760, Note_on_c, 0, 62, 28
2, 226906, Note_on_c, 0, 62, 0
2, 226910, Control_c, 0, 64, 127
2, 226932, Note_on_c, 0, 78, 0
2, 226984, Note_on_c, 0, 78, 90
2, 226987, Note_on_c, 0, 66, 26
2, 227190, Note_on_c, 0, 66, 0
2, 227216, Note_on_c, 0, 78, 0
2, 227254, Note_on_c, 0, 62, 34
2, 227274, Note_on_c, 0, 57, 0
2, 227370, Note_on_c, 0, 62, 0
2, 227460, Note_on_c, 0, 66, 39
2, 227666, Note_on_c, 0, 66, 0
2, 227740, Note_on_c, 0, 62, 33
2, 227840, Note_on_c, 0, 62, 0
2, 227988, Note_on_c, 0, 81, 86
2, 228028, Note_on_c, 0, 57, 26
2, 228238, Note_on_c, 0, 80, 101
2, 228262, Control_c, 0, 64, 0
2, 228278, Note_on_c, 0, 62, 42
2, 228296, Note_on_c, 0, 81, 0
2, 228386, Control_c, 0, 64, 127
2, 228480, Note_on_c, 0, 62, 0
2, 228498, Note_on_c, 0, 83, 115
2, 228508, Control_c, 0, 64, 0
2, 228532, Note_on_c, 0, 80, 0
2, 228544, Note_on_c, 0, 66, 33
2, 228692, Control_c, 0, 64, 127
2, 228768, Note_on_c, 0, 81, 94
2, 228774, Note_on_c, 0, 66, 0
2, 228818, Note_on_c, 0, 62, 36
2, 228848, Note_on_c, 0, 83, 0
2, 228898, Note_on_c, 0, 62, 0
2, 228956, Note_on_c, 0, 57, 0
2, 228994, Note_on_c, 0, 80, 94
2, 229022, Note_on_c, 0, 66, 33
2, 229064, Note_on_c, 0, 81, 0
2, 229148, Note_on_c, 0, 66, 0
2, 229222, Note_on_c, 0, 78, 85
2, 229262, Note_on_c, 0, 80, 0
2, 229286, Note_on_c, 0, 62, 28
2, 229378, Note_on_c, 0, 62, 0
2, 229478, Note_on_c, 0, 75, 67
2, 229498, Note_on_c, 0, 78, 0
2, 229532, Note_on_c, 0, 57, 32
2, 229568, Control_c, 0, 64, 0
2, 229776, Note_on_c, 0, 76, 48
2, 229798, Note_on_c, 0, 75, 0
2, 229798, Note_on_c, 0, 61, 38
2, 229892, Control_c, 0, 64, 127
2, 229974, Note_on_c, 0, 76, 0
2, 230000, Note_on_c, 0, 61, 0
2, 230058, Note_on_c, 0, 76, 46
2, 230106, Note_on_c, 0, 64, 32
2, 230138, Control_c, 0, 64, 0
2, 230312, Note_on_c, 0, 64, 0
2, 230314, Note_on_c, 0, 61, 44
2, 230322, Control_c, 0, 64, 127
2, 230502, Note_on_c, 0, 61, 0
2, 230584, Note_on_c, 0, 64, 40
2, 230598, Note_on_c, 0, 57, 0
2, 230606, Note_on_c, 0, 76, 0
2, 230664, Note_on_c, 0, 64, 0
2, 230850, Note_on_c, 0, 61, 44
2, 230918, Note_on_c, 0, 61, 0
2, 231090, Control_c, 0, 64, 0
2, 231152, Note_on_c, 0, 76, 105
2, 231154, Note_on_c, 0, 49, 101
2, 231166, Note_on_c, 0, 45, 80
2, 231192, Note_on_c, 0, 49, 0
2, 231210, Note_on_c, 0, 45, 0
2, 231258, Control_c, 0, 64, 127
2, 231444, Control_c, 0, 64, 0
2, 231710, Note_on_c, 0, 61, 46
2, 231728, Note_on_c, 0, 57, 56
2, 231782, Note_on_c, 0, 57, 0
2, 231820, Note_on_c, 0, 61, 0
2, 231842, Control_c, 0, 64, 127
2, 231934, Control_c, 0, 64, 0
2, 232018, Note_on_c, 0, 78, 65
2, 232022, Note_on_c, 0, 76, 0
2, 232120, Note_on_c, 0, 76, 45
2, 232166, Note_on_c, 0, 78, 0
2, 232242, Note_on_c, 0, 76, 0
2, 232272, Note_on_c, 0, 74, 64
2, 232370, Note_on_c, 0, 73, 34
2, 232382, Note_on_c, 0, 74, 0
2, 232488, Note_on_c, 0, 71, 87
2, 232568, Note_on_c, 0, 71, 0
2, 232596, Note_on_c, 0, 69, 71
2, 232650, Note_on_c, 0, 73, 0
2, 232730, Note_on_c, 0, 47, 64
2, 232734, Note_on_c, 0, 76, 84
2, 232740, Note_on_c, 0, 50, 44
2, 232762, Note_on_c, 0, 52, 30
2, 232802, Note_on_c, 0, 69, 0
2, 232824, Note_on_c, 0, 52, 0
2, 232928, Note_on_c, 0, 47, 0
2, 232930, Note_on_c, 0, 50, 0
2, 233002, Note_on_c, 0, 74, 71
2, 233106, Note_on_c, 0, 76, 0
2, 233290, Note_on_c, 0, 59, 56
2, 233292, Note_on_c, 0, 62, 48
2, 233474, Note_on_c, 0, 59, 0
2, 233479, Note_on_c, 0, 62, 0
2, 233666, Note_on_c, 0, 74, 0
2, 233672, Note_on_c, 0, 76, 61
2, 233748, Note_on_c, 0, 76, 0
2, 233792, Note_on_c, 0, 74, 57
2, 233892, Note_on_c, 0, 73, 71
2, 233894, Note_on_c, 0, 74, 0
2, 234020, Note_on_c, 0, 71, 72
2, 234036, Note_on_c, 0, 73, 0
2, 234124, Note_on_c, 0, 71, 0
2, 234134, Note_on_c, 0, 69, 54
2, 234234, Note_on_c, 0, 68, 83
2, 234270, Note_on_c, 0, 69, 0
2, 234414, Note_on_c, 0, 69, 77
2, 234422, Note_on_c, 0, 64, 39
2, 234424, Note_on_c, 0, 68, 0
2, 234430, Note_on_c, 0, 61, 34
2, 234700, Control_c, 0, 64, 127
2, 234770, Note_on_c, 0, 64, 0
2, 234914, Note_on_c, 0, 68, 70
2, 234918, Note_on_c, 0, 61, 0
2, 234938, Note_on_c, 0, 62, 45
2, 234954, Note_on_c, 0, 59, 31
2, 235014, Note_on_c, 0, 69, 0
2, 235040, Control_c, 0, 64, 0
2, 235238, Control_c, 0, 64, 127
2, 235252, Note_on_c, 0, 62, 0
2, 235422, Note_on_c, 0, 59, 0
2, 235438, Control_c, 0, 64, 0
2, 235450, Note_on_c, 0, 68, 0
2, 235462, Note_on_c, 0, 63, 46
2, 235466, Note_on_c, 0, 69, 55
2, 235478, Note_on_c, 0, 61, 38
2, 235494, Note_on_c, 0, 57, 25
2, 235700, Control_c, 0, 64, 127
2, 235772, Note_on_c, 0, 57, 0
2, 235816, Note_on_c, 0, 61, 0
2, 235926, Note_on_c, 0, 69, 0
2, 236012, Note_on_c, 0, 63, 0
2, 236226, Note_on_c, 0, 73, 40
2, 236242, Note_on_c, 0, 64, 41
2, 236250, Note_on_c, 0, 61, 24
2, 236262, Note_on_c, 0, 69, 29
2, 236270, Note_on_c, 0, 57, 19
2, 236282, Note_on_c, 0, 52, 31
2, 236298, Control_c, 0, 64, 0
2, 236944, Control_c, 0, 64, 127
2, 237064, Note_on_c, 0, 57, 0
2, 237102, Note_on_c, 0, 61, 0
2, 237306, Note_on_c, 0, 69, 0
2, 237742, Control_c, 0, 64, 0
2, 237747, Note_on_c, 0, 71, 40
2, 237764, Note_on_c, 0, 68, 25
2, 237768, Note_on_c, 0, 56, 11
2, 237776, Note_on_c, 0, 59, 24
2, 237812, Note_on_c, 0, 73, 0
2, 238050, Control_c, 0, 64, 127
2, 238126, Note_on_c, 0, 56, 0
2, 238136, Note_on_c, 0, 59, 0
2, 238138, Note_on_c, 0, 64, 0
2, 238140, Note_on_c, 0, 52, 0
2, 238182, Note_on_c, 0, 71, 0
2, 238204, Note_on_c, 0, 68, 0
2, 238526, Control_c, 0, 64, 0
2, 238532, Note_on_c, 0, 73, 40
2, 238562, Note_on_c, 0, 69, 24
2, 238568, Note_on_c, 0, 57, 23
2, 238584, Note_on_c, 0, 45, 18
2, 238720, Note_on_c, 0, 45, 0
2, 238756, Control_c, 0, 64, 127
2, 238760, Note_on_c, 0, 57, 0
2, 238826, Note_on_c, 0, 73, 0
2, 238860, Note_on_c, 0, 69, 0
2, 238864, Note_on_c, 0, 64, 33
2, 239066, Note_on_c, 0, 64, 0
2, 239130, Note_on_c, 0, 73, 31
2, 239134, Note_on_c, 0, 85, 59
2, 239160, Note_on_c, 0, 69, 13
2, 239178, Note_on_c, 0, 81, 34
2, 239372, Note_on_c, 0, 69, 0
2, 239390, Note_on_c, 0, 64, 37
2, 239518, Note_on_c, 0, 85, 0
2, 239520, Note_on_c, 0, 64, 0
2, 239532, Note_on_c, 0, 73, 0
2, 239552, Note_on_c, 0, 81, 0
2, 239624, Note_on_c, 0, 71, 46
2, 239624, Note_on_c, 0, 86, 77
2, 239627, Note_on_c, 0, 74, 53
2, 239652, Note_on_c, 0, 83, 72
2, 239740, Control_c, 0, 64, 0
2, 239864, Note_on_c, 0, 64, 57
2, 239886, Note_on_c, 0, 74, 0
2, 239908, Control_c, 0, 64, 127
2, 239944, Note_on_c, 0, 64, 0
2, 239956, Note_on_c, 0, 83, 0
2, 239960, Note_on_c, 0, 71, 0
2, 240006, Note_on_c, 0, 86, 0
2, 240068, Note_on_c, 0, 88, 82
2, 240086, Note_on_c, 0, 85, 45
2, 240088, Note_on_c, 0, 76, 55
2, 240096, Note_on_c, 0, 73, 39
2, 240124, Control_c, 0, 64, 0
2, 240316, Note_on_c, 0, 76, 0
2, 240324, Control_c, 0, 64, 127
2, 240340, Note_on_c, 0, 64, 56
2, 240472, Note_on_c, 0, 88, 0
2, 240500, Note_on_c, 0, 85, 0
2, 240504, Note_on_c, 0, 64, 0
2, 240524, Note_on_c, 0, 73, 0
2, 240530, Note_on_c, 0, 86, 64
2, 240546, Note_on_c, 0, 74, 64
2, 240549, Note_on_c, 0, 71, 40
2, 240552, Note_on_c, 0, 83, 71
2, 240646, Control_c, 0, 64, 0
2, 240660, Note_on_c, 0, 71, 0
2, 240772, Note_on_c, 0, 64, 48
2, 240816, Control_c, 0, 64, 127
2, 240866, Note_on_c, 0, 83, 0
2, 240900, Note_on_c, 0, 64, 0
2, 240900, Note_on_c, 0, 86, 0
2, 240974, Note_on_c, 0, 85, 69
2, 240978, Note_on_c, 0, 73, 56
2, 240994, Note_on_c, 0, 69, 36
2, 241002, Note_on_c, 0, 74, 0
2, 241016, Note_on_c, 0, 85, 0
2, 241192, Note_on_c, 0, 69, 0
2, 241212, Note_on_c, 0, 64, 56
2, 241314, Note_on_c, 0, 64, 0
2, 241384, Control_c, 0, 64, 0
2, 241440, Note_on_c, 0, 68, 54
2, 241450, Note_on_c, 0, 71, 71
2, 241452, Note_on_c, 0, 40, 55
2, 241460, Note_on_c, 0, 73, 0
2, 241460, Note_on_c, 0, 52, 51
2, 241504, Note_on_c, 0, 40, 0
2, 241518, Note_on_c, 0, 52, 0
2, 241568, Control_c, 0, 64, 127
2, 241618, Note_on_c, 0, 68, 0
2, 241646, Note_on_c, 0, 71, 0
2, 241674, Note_on_c, 0, 64, 56
2, 241890, Note_on_c, 0, 64, 0
2, 241988, Note_on_c, 0, 71, 75
2, 241998, Note_on_c, 0, 68, 41
2, 242004, Note_on_c, 0, 83, 91
2, 242012, Note_on_c, 0, 80, 30
2, 242228, Note_on_c, 0, 64, 62
2, 242270, Note_on_c, 0, 80, 0
2, 242320, Note_on_c, 0, 68, 0
2, 242362, Note_on_c, 0, 64, 0
2, 242388, Note_on_c, 0, 83, 0
2, 242448, Note_on_c, 0, 71, 0
2, 242464, Note_on_c, 0, 85, 88
2, 242482, Note_on_c, 0, 69, 39
2, 242484, Note_on_c, 0, 81, 60
2, 242494, Note_on_c, 0, 73, 68
2, 242592, Note_on_c, 0, 69, 0
2, 242614, Control_c, 0, 64, 0
2, 242690, Note_on_c, 0, 64, 65
2, 242752, Control_c, 0, 64, 127
2, 242782, Note_on_c, 0, 64, 0
2, 242798, Note_on_c, 0, 81, 0
2, 242856, Note_on_c, 0, 85, 0
2, 242918, Note_on_c, 0, 73, 0
2, 242922, Note_on_c, 0, 86, 90
2, 242922, Note_on_c, 0, 74, 67
2, 242932, Note_on_c, 0, 71, 53
2, 242936, Note_on_c, 0, 83, 79
2, 243044, Control_c, 0, 64, 0
2, 243150, Note_on_c, 0, 64, 59
2, 243196, Control_c, 0, 64, 127
2, 243244, Note_on_c, 0, 71, 0
2, 243304, Note_on_c, 0, 83, 0
2, 243354, Note_on_c, 0, 86, 0
2, 243357, Note_on_c, 0, 73, 59
2, 243368, Note_on_c, 0, 81, 49
2, 243370, Note_on_c, 0, 64, 0
2, 243370, Note_on_c, 0, 85, 61
2, 243384, Note_on_c, 0, 69, 24
2, 243388, Note_on_c, 0, 74, 0
2, 243398, Control_c, 0, 64, 0
2, 243566, Control_c, 0, 64, 127
2, 243584, Note_on_c, 0, 64, 53
2, 243602, Note_on_c, 0, 69, 0
2, 243618, Note_on_c, 0, 81, 0
2, 243680, Note_on_c, 0, 64, 0
2, 243722, Note_on_c, 0, 85, 0
2, 243750, Control_c, 0, 64, 0
2, 243812, Note_on_c, 0, 68, 45
2, 243826, Note_on_c, 0, 73, 0
2, 243828, Note_on_c, 0, 71, 61
2, 243840, Note_on_c, 0, 83, 82
2, 243846, Note_on_c, 0, 80, 28
2, 243874, Control_c, 0, 64, 127
2, 243884, Note_on_c, 0, 83, 0
2, 243906, Note_on_c, 0, 80, 0
2, 243922, Note_on_c, 0, 71, 0
2, 243970, Note_on_c, 0, 68, 0
2, 244012, Note_on_c, 0, 64, 70
2, 244084, Note_on_c, 0, 64, 0
2, 244226, Control_c, 0, 64, 0
2, 244240, Note_on_c, 0, 69, 55
2, 244245, Note_on_c, 0, 45, 55
2, 244245, Note_on_c, 0, 57, 51
2, 244270, Note_on_c, 0, 64, 52
2, 244302, Note_on_c, 0, 57, 0
2, 244304, Note_on_c, 0, 45, 0
2, 244358, Note_on_c, 0, 64, 0
2, 244380, Control_c, 0, 64, 127
2, 244428, Note_on_c, 0, 69, 0
2, 244432, Note_on_c, 0, 61, 53
2, 244524, Note_on_c, 0, 61, 0
2, 244708, Note_on_c, 0, 69, 48
2, 244710, Note_on_c, 0, 81, 84
2, 244728, Note_on_c, 0, 64, 42
2, 244750, Note_on_c, 0, 73, 23
2, 244802, Note_on_c, 0, 64, 0
2, 244900, Note_on_c, 0, 61, 59
2, 244972, Note_on_c, 0, 73, 0
2, 244980, Note_on_c, 0, 61, 0
2, 245032, Note_on_c, 0, 81, 0
2, 245036, Note_on_c, 0, 69, 0
2, 245120, Note_on_c, 0, 83, 123
2, 245122, Note_on_c, 0, 68, 62
2, 245136, Note_on_c, 0, 71, 85
2, 245136, Note_on_c, 0, 76, 72
2, 245148, Control_c, 0, 64, 0
2, 245318, Control_c, 0, 64, 127
2, 245342, Note_on_c, 0, 71, 0
2, 245352, Note_on_c, 0, 64, 64
2, 245360, Note_on_c, 0, 83, 0
2, 245384, Note_on_c, 0, 68, 0
2, 245424, Note_on_c, 0, 76, 0
2, 245500, Note_on_c, 0, 64, 0
2, 245532, Control_c, 0, 64, 0
2, 245564, Note_on_c, 0, 73, 67
2, 245574, Note_on_c, 0, 85, 95
2, 245580, Note_on_c, 0, 69, 48
2, 245594, Note_on_c, 0, 81, 76
2, 245680, Note_on_c, 0, 81, 0
2, 245680, Note_on_c, 0, 85, 0
2, 245686, Control_c, 0, 64, 127
2, 245786, Note_on_c, 0, 64, 59
2, 245791, Note_on_c, 0, 69, 0
2, 245814, Note_on_c, 0, 73, 0
2, 246026, Note_on_c, 0, 73, 70
2, 246029, Note_on_c, 0, 69, 57
2, 246038, Note_on_c, 0, 54, 83
2, 246052, Note_on_c, 0, 42, 56
2, 246116, Note_on_c, 0, 64, 0
2, 246194, Note_on_c, 0, 54, 0
2, 246270, Note_on_c, 0, 66, 52
2, 246278, Note_on_c, 0, 42, 0
2, 246354, Note_on_c, 0, 73, 0
2, 246364, Note_on_c, 0, 69, 0
2, 246464, Note_on_c, 0, 66, 0
2, 246474, Note_on_c, 0, 38, 70
2, 246474, Note_on_c, 0, 50, 72
2, 246482, Note_on_c, 0, 74, 87
2, 246486, Control_c, 0, 64, 0
2, 246488, Note_on_c, 0, 71, 67
2, 246670, Control_c, 0, 64, 127
2, 246682, Note_on_c, 0, 66, 60
2, 246702, Note_on_c, 0, 38, 0
2, 246716, Note_on_c, 0, 74, 0
2, 246744, Note_on_c, 0, 50, 0
2, 246856, Note_on_c, 0, 71, 0
2, 246870, Control_c, 0, 64, 0
2, 246894, Note_on_c, 0, 52, 87
2, 246898, Note_on_c, 0, 66, 0
2, 246900, Note_on_c, 0, 73, 71
2, 246908, Note_on_c, 0, 40, 80
2, 246912, Note_on_c, 0, 69, 46
2, 246948, Note_on_c, 0, 40, 0
2, 246988, Note_on_c, 0, 52, 0
2, 247054, Control_c, 0, 64, 127
2, 247104, Note_on_c, 0, 69, 0
2, 247126, Note_on_c, 0, 73, 0
2, 247130, Note_on_c, 0, 64, 60
2, 247372, Note_on_c, 0, 64, 0
2, 247376, Note_on_c, 0, 73, 68
2, 247382, Note_on_c, 0, 85, 93
2, 247398, Note_on_c, 0, 69, 41
2, 247408, Note_on_c, 0, 81, 65
2, 247596, Note_on_c, 0, 64, 57
2, 247700, Note_on_c, 0, 69, 0
2, 247730, Note_on_c, 0, 64, 0
2, 247752, Note_on_c, 0, 81, 0
2, 247824, Note_on_c, 0, 83, 120
2, 247826, Note_on_c, 0, 71, 78
2, 247826, Note_on_c, 0, 68, 46
2, 247838, Control_c, 0, 64, 0
2, 247856, Note_on_c, 0, 80, 47
2, 247884, Note_on_c, 0, 73, 0
2, 247906, Note_on_c, 0, 85, 0
2, 248038, Control_c, 0, 64, 127
2, 248048, Note_on_c, 0, 80, 0
2, 248066, Note_on_c, 0, 64, 55
2, 248082, Note_on_c, 0, 68, 0
2, 248098, Note_on_c, 0, 71, 0
2, 248106, Note_on_c, 0, 83, 0
2, 248224, Note_on_c, 0, 64, 0
2, 248302, Note_on_c, 0, 71, 72
2, 248312, Note_on_c, 0, 68, 39
2, 248316, Note_on_c, 0, 83, 108
2, 248340, Note_on_c, 0, 80, 47
2, 248420, Note_on_c, 0, 68, 0
2, 248420, Control_c, 0, 64, 0
2, 248594, Note_on_c, 0, 64, 53
2, 248636, Control_c, 0, 64, 127
2, 248762, Note_on_c, 0, 64, 0
2, 248820, Note_on_c, 0, 72, 55
2, 248826, Note_on_c, 0, 68, 39
2, 248828, Note_on_c, 0, 84, 71
2, 248836, Note_on_c, 0, 83, 0
2, 248848, Note_on_c, 0, 71, 0
2, 248866, Control_c, 0, 64, 0
2, 249068, Control_c, 0, 64, 127
2, 249068, Note_on_c, 0, 64, 44
2, 249108, Note_on_c, 0, 68, 0
2, 249196, Note_on_c, 0, 84, 0
2, 249218, Note_on_c, 0, 80, 0
2, 249252, Control_c, 0, 64, 0
2, 249278, Note_on_c, 0, 64, 0
2, 249298, Note_on_c, 0, 72, 0
2, 249310, Note_on_c, 0, 73, 37
2, 249322, Note_on_c, 0, 85, 41
2, 249322, Note_on_c, 0, 69, 26
2, 249352, Note_on_c, 0, 81, 40
2, 249420, Note_on_c, 0, 81, 0
2, 249428, Note_on_c, 0, 73, 0
2, 249434, Note_on_c, 0, 85, 0
2, 249436, Control_c, 0, 64, 127
2, 249458, Note_on_c, 0, 69, 0
2, 249588, Note_on_c, 0, 64, 45
2, 249768, Note_on_c, 0, 64, 0
2, 249834, Note_on_c, 0, 73, 60
2, 249834, Control_c, 0, 64, 0
2, 249844, Note_on_c, 0, 45, 44
2, 249849, Note_on_c, 0, 57, 39
2, 249852, Note_on_c, 0, 69, 39
2, 249908, Note_on_c, 0, 45, 0
2, 249922, Note_on_c, 0, 57, 0
2, 249958, Control_c, 0, 64, 127
2, 250028, Note_on_c, 0, 69, 0
2, 250066, Note_on_c, 0, 64, 57
2, 250092, Note_on_c, 0, 73, 0
2, 250190, Note_on_c, 0, 64, 0
2, 250336, Note_on_c, 0, 73, 64
2, 250340, Note_on_c, 0, 85, 97
2, 250350, Note_on_c, 0, 81, 86
2, 250362, Note_on_c, 0, 69, 37
2, 250484, Note_on_c, 0, 69, 0
2, 250574, Note_on_c, 0, 64, 51
2, 250654, Note_on_c, 0, 64, 0
2, 250682, Note_on_c, 0, 81, 0
2, 250732, Note_on_c, 0, 73, 0
2, 250746, Note_on_c, 0, 85, 0
2, 250788, Note_on_c, 0, 86, 92
2, 250790, Note_on_c, 0, 71, 74
2, 250800, Note_on_c, 0, 74, 77
2, 250804, Control_c, 0, 64, 0
2, 250806, Note_on_c, 0, 83, 97
2, 250972, Control_c, 0, 64, 127
2, 251012, Note_on_c, 0, 74, 0
2, 251022, Note_on_c, 0, 64, 63
2, 251098, Note_on_c, 0, 64, 0
2, 251114, Note_on_c, 0, 83, 0
2, 251124, Note_on_c, 0, 71, 0
2, 251138, Note_on_c, 0, 86, 0
2, 251172, Control_c, 0, 64, 0
2, 251218, Note_on_c, 0, 88, 80
2, 251220, Note_on_c, 0, 76, 70
2, 251220, Note_on_c, 0, 73, 55
2, 251232, Note_on_c, 0, 85, 71
2, 251258, Note_on_c, 0, 88, 0
2, 251276, Note_on_c, 0, 85, 0
2, 251280, Note_on_c, 0, 73, 0
2, 251310, Control_c, 0, 64, 127
2, 251432, Note_on_c, 0, 76, 0
2, 251434, Note_on_c, 0, 69, 36
2, 251624, Note_on_c, 0, 69, 0
2, 251668, Note_on_c, 0, 76, 75
2, 251684, Note_on_c, 0, 73, 47
2, 251689, Note_on_c, 0, 57, 46
2, 251704, Note_on_c, 0, 45, 38
2, 251754, Note_on_c, 0, 57, 0
2, 251780, Note_on_c, 0, 45, 0
2, 251914, Note_on_c, 0, 69, 33
2, 251932, Note_on_c, 0, 73, 0
2, 252032, Note_on_c, 0, 69, 0
2, 252120, Note_on_c, 0, 78, 63
2, 252122, Note_on_c, 0, 76, 0
2, 252125, Control_c, 0, 64, 0
2, 252142, Note_on_c, 0, 74, 46
2, 252152, Note_on_c, 0, 38, 33
2, 252164, Note_on_c, 0, 50, 21
2, 252228, Note_on_c, 0, 74, 0
2, 252310, Control_c, 0, 64, 127
2, 252318, Note_on_c, 0, 38, 0
2, 252344, Note_on_c, 0, 50, 0
2, 252360, Note_on_c, 0, 78, 0
2, 252366, Note_on_c, 0, 69, 30
2, 252466, Note_on_c, 0, 69, 0
2, 252572, Note_on_c, 0, 69, 41
2, 252586, Control_c, 0, 64, 0
2, 252592, Note_on_c, 0, 73, 41
2, 252594, Note_on_c, 0, 40, 63
2, 252618, Note_on_c, 0, 52, 24
2, 252664, Note_on_c, 0, 40, 0
2, 252684, Note_on_c, 0, 52, 0
2, 252740, Control_c, 0, 64, 127
2, 252760, Note_on_c, 0, 69, 0
2, 252830, Note_on_c, 0, 73, 0
2, 252830, Note_on_c, 0, 64, 40
2, 252952, Note_on_c, 0, 64, 0
2, 253126, Note_on_c, 0, 85, 57
2, 253136, Note_on_c, 0, 73, 54
2, 253138, Note_on_c, 0, 69, 23
2, 253142, Note_on_c, 0, 81, 44
2, 253184, Control_c, 0, 64, 0
2, 253352, Note_on_c, 0, 69, 0
2, 253354, Note_on_c, 0, 64, 37
2, 253368, Control_c, 0, 64, 127
2, 253406, Note_on_c, 0, 81, 0
2, 253440, Note_on_c, 0, 73, 0
2, 253456, Note_on_c, 0, 64, 0
2, 253480, Note_on_c, 0, 85, 0
2, 253586, Note_on_c, 0, 68, 29
2, 253591, Note_on_c, 0, 71, 52
2, 253600, Control_c, 0, 64, 0
2, 253606, Note_on_c, 0, 83, 67
2, 253634, Note_on_c, 0, 80, 24
2, 253784, Control_c, 0, 64, 127
2, 253830, Note_on_c, 0, 71, 0
2, 253848, Note_on_c, 0, 68, 0
2, 253862, Note_on_c, 0, 64, 40
2, 253900, Note_on_c, 0, 83, 0
2, 253936, Note_on_c, 0, 80, 0
2, 254030, Control_c, 0, 64, 0
2, 254070, Note_on_c, 0, 64, 0
2, 254080, Note_on_c, 0, 69, 34
2, 254094, Note_on_c, 0, 81, 32
2, 254192, Note_on_c, 0, 81, 0
2, 254214, Control_c, 0, 64, 127
2, 254310, Note_on_c, 0, 69, 0
2, 254346, Note_on_c, 0, 64, 40
2, 254446, Note_on_c, 0, 64, 0
2, 254568, Control_c, 0, 64, 0
2, 254594, Note_on_c, 0, 61, 46
2, 254608, Note_on_c, 0, 57, 36
2, 254780, Note_on_c, 0, 57, 0
2, 254782, Control_c, 0, 64, 127
2, 254874, Note_on_c, 0, 61, 0
2, 254904, Note_on_c, 0, 64, 40
2, 254920, Control_c, 0, 64, 0
2, 255160, Note_on_c, 0, 64, 0
2, 255296, Note_on_c, 0, 69, 26
2, 255322, Note_on_c, 0, 45, 23
2, 255526, Note_on_c, 0, 45, 0
2, 255534, Control_c, 0, 64, 127
2, 255550, Note_on_c, 0, 69, 0
2, 256458, Control_c, 0, 64, 0
2, 257654, Note_on_c, 0, 73, 54
2, 257676, Note_on_c, 0, 57, 21
2, 258018, Note_on_c, 0, 64, 26
2, 258200, Note_on_c, 0, 64, 0
2, 258280, Note_on_c, 0, 73, 0
2, 258282, Note_on_c, 0, 61, 25
2, 258334, Note_on_c, 0, 57, 0
2, 258422, Note_on_c, 0, 61, 0
2, 258534, Note_on_c, 0, 64, 32
2, 258674, Note_on_c, 0, 64, 0
2, 258750, Note_on_c, 0, 73, 65
2, 258780, Note_on_c, 0, 57, 30
2, 259018, Note_on_c, 0, 64, 34
2, 259134, Note_on_c, 0, 57, 0
2, 259162, Note_on_c, 0, 64, 0
2, 259222, Note_on_c, 0, 61, 33
2, 259458, Note_on_c, 0, 61, 0
2, 259458, Note_on_c, 0, 64, 38
2, 259560, Note_on_c, 0, 64, 0
2, 259680, Note_on_c, 0, 57, 25
2, 259838, Control_c, 0, 64, 0
2, 259940, Note_on_c, 0, 64, 40
2, 260006, Control_c, 0, 64, 127
2, 260050, Note_on_c, 0, 64, 0
2, 260144, Note_on_c, 0, 74, 79
2, 260172, Note_on_c, 0, 57, 0
2, 260178, Note_on_c, 0, 59, 25
2, 260228, Note_on_c, 0, 73, 0
2, 260284, Control_c, 0, 64, 0
2, 260390, Note_on_c, 0, 64, 46
2, 260452, Control_c, 0, 64, 127
2, 260552, Note_on_c, 0, 64, 0
2, 260604, Note_on_c, 0, 78, 68
2, 260624, Note_on_c, 0, 61, 40
2, 260636, Control_c, 0, 64, 0
2, 260658, Note_on_c, 0, 59, 0
2, 260660, Note_on_c, 0, 74, 0
2, 260858, Note_on_c, 0, 64, 44
2, 260928, Control_c, 0, 64, 127
2, 261002, Note_on_c, 0, 64, 0
2, 261060, Note_on_c, 0, 76, 40
2, 261082, Note_on_c, 0, 57, 26
2, 261082, Control_c, 0, 64, 0
2, 261108, Note_on_c, 0, 78, 0
2, 261126, Note_on_c, 0, 61, 0
2, 261308, Note_on_c, 0, 64, 42
2, 261342, Control_c, 0, 64, 127
2, 261402, Note_on_c, 0, 76, 0
2, 261518, Note_on_c, 0, 64, 0
2, 261544, Note_on_c, 0, 61, 47
2, 261546, Note_on_c, 0, 57, 0
2, 261796, Note_on_c, 0, 64, 42
2, 261906, Note_on_c, 0, 64, 0
2, 262042, Note_on_c, 0, 61, 0
2, 262052, Note_on_c, 0, 76, 87
2, 262082, Note_on_c, 0, 57, 18
2, 262276, Note_on_c, 0, 76, 0
2, 262308, Note_on_c, 0, 64, 30
2, 262546, Note_on_c, 0, 64, 0
2, 262596, Note_on_c, 0, 78, 83
2, 262624, Note_on_c, 0, 61, 31
2, 262664, Control_c, 0, 64, 0
2, 262768, Note_on_c, 0, 57, 0
2, 262848, Control_c, 0, 64, 127
2, 262864, Note_on_c, 0, 76, 79
2, 262874, Note_on_c, 0, 64, 37
2, 262924, Note_on_c, 0, 78, 0
2, 262984, Note_on_c, 0, 64, 0
2, 263070, Note_on_c, 0, 74, 91
2, 263082, Note_on_c, 0, 76, 0
2, 263100, Note_on_c, 0, 61, 0
2, 263110, Note_on_c, 0, 57, 21
2, 263278, Note_on_c, 0, 73, 85
2, 263304, Note_on_c, 0, 74, 0
2, 263326, Note_on_c, 0, 64, 28
2, 263410, Note_on_c, 0, 64, 0
2, 263410, Note_on_c, 0, 73, 0
2, 263514, Note_on_c, 0, 73, 61
2, 263532, Note_on_c, 0, 56, 29
2, 263538, Note_on_c, 0, 57, 0
2, 263602, Control_c, 0, 64, 0
2, 263800, Note_on_c, 0, 64, 28
2, 263970, Control_c, 0, 64, 127
2, 264000, Note_on_c, 0, 64, 0
2, 264062, Note_on_c, 0, 71, 63
2, 264098, Note_on_c, 0, 63, 28
2, 264140, Control_c, 0, 64, 0
2, 264152, Note_on_c, 0, 73, 0
2, 264324, Note_on_c, 0, 63, 0
2, 264340, Note_on_c, 0, 64, 38
2, 264340, Control_c, 0, 64, 127
2, 264343, Note_on_c, 0, 56, 0
2, 264410, Note_on_c, 0, 71, 0
2, 264444, Note_on_c, 0, 64, 0
2, 264566, Note_on_c, 0, 71, 60
2, 264598, Note_on_c, 0, 56, 31
2, 264754, Control_c, 0, 64, 0
2, 264822, Note_on_c, 0, 64, 37
2, 264908, Control_c, 0, 64, 127
2, 264952, Note_on_c, 0, 64, 0
2, 265022, Note_on_c, 0, 63, 38
2, 265086, Note_on_c, 0, 56, 0
2, 265226, Note_on_c, 0, 63, 0
2, 265266, Note_on_c, 0, 64, 33
2, 265442, Note_on_c, 0, 64, 0
2, 265474, Note_on_c, 0, 56, 41
2, 265554, Control_c, 0, 64, 0
2, 265748, Note_on_c, 0, 64, 46
2, 265752, Control_c, 0, 64, 127
2, 265906, Note_on_c, 0, 64, 0
2, 265918, Note_on_c, 0, 56, 0
2, 265934, Note_on_c, 0, 73, 72
2, 265966, Note_on_c, 0, 57, 23
2, 266014, Control_c, 0, 64, 0
2, 266038, Note_on_c, 0, 71, 0
2, 266182, Control_c, 0, 64, 127
2, 266204, Note_on_c, 0, 64, 42
2, 266308, Note_on_c, 0, 64, 0
2, 266398, Note_on_c, 0, 57, 0
2, 266420, Note_on_c, 0, 76, 55
2, 266426, Note_on_c, 0, 58, 28
2, 266430, Control_c, 0, 64, 0
2, 266506, Note_on_c, 0, 73, 0
2, 266680, Note_on_c, 0, 64, 32
2, 266824, Note_on_c, 0, 64, 0
2, 266884, Note_on_c, 0, 63, 39
2, 267012, Control_c, 0, 64, 127
2, 267094, Note_on_c, 0, 63, 0
2, 267136, Note_on_c, 0, 64, 33
2, 267328, Note_on_c, 0, 64, 0
2, 267380, Note_on_c, 0, 74, 38
2, 267408, Note_on_c, 0, 59, 28
2, 267426, Note_on_c, 0, 58, 0
2, 267428, Control_c, 0, 64, 0
2, 267466, Note_on_c, 0, 76, 0
2, 267646, Note_on_c, 0, 64, 38
2, 267748, Note_on_c, 0, 64, 0
2, 267750, Control_c, 0, 64, 127
2, 267770, Note_on_c, 0, 74, 0
2, 267868, Note_on_c, 0, 63, 36
2, 267980, Note_on_c, 0, 63, 0
2, 268054, Note_on_c, 0, 59, 0
2, 268074, Note_on_c, 0, 74, 86
2, 268106, Note_on_c, 0, 64, 48
2, 268212, Note_on_c, 0, 64, 0
2, 268320, Note_on_c, 0, 56, 36
2, 268334, Note_on_c, 0, 76, 79
2, 268346, Note_on_c, 0, 74, 0
2, 268380, Control_c, 0, 64, 0
2, 268552, Note_on_c, 0, 74, 85
2, 268590, Note_on_c, 0, 64, 29
2, 268596, Control_c, 0, 64, 127
2, 268626, Note_on_c, 0, 76, 0
2, 268684, Note_on_c, 0, 64, 0
2, 268754, Note_on_c, 0, 73, 70
2, 268780, Note_on_c, 0, 74, 0
2, 268798, Note_on_c, 0, 52, 45
2, 268842, Note_on_c, 0, 56, 0
2, 268894, Note_on_c, 0, 52, 0
2, 268962, Note_on_c, 0, 71, 85
2, 268988, Note_on_c, 0, 73, 0
2, 269018, Note_on_c, 0, 64, 44
2, 269090, Note_on_c, 0, 64, 0
2, 269100, Note_on_c, 0, 71, 0
2, 269188, Note_on_c, 0, 71, 59
2, 269236, Note_on_c, 0, 54, 45
2, 269256, Control_c, 0, 64, 0
2, 269454, Note_on_c, 0, 64, 39
2, 269598, Note_on_c, 0, 64, 0
2, 269664, Note_on_c, 0, 63, 39
2, 269666, Note_on_c, 0, 69, 42
2, 269724, Note_on_c, 0, 71, 0
2, 269842, Note_on_c, 0, 54, 0
2, 269912, Note_on_c, 0, 64, 48
2, 269928, Note_on_c, 0, 63, 0
2, 269962, Control_c, 0, 64, 127
2, 270140, Note_on_c, 0, 64, 0
2, 270168, Note_on_c, 0, 69, 0
2, 270208, Note_on_c, 0, 54, 41
2, 270472, Note_on_c, 0, 69, 60
2, 270562, Control_c, 0, 64, 0
2, 270674, Note_on_c, 0, 68, 82
2, 270720, Note_on_c, 0, 69, 0
2, 270762, Control_c, 0, 64, 127
2, 270798, Note_on_c, 0, 54, 0
2, 270872, Note_on_c, 0, 69, 76
2, 270886, Control_c, 0, 64, 0
2, 270928, Note_on_c, 0, 68, 0
2, 271102, Note_on_c, 0, 71, 84
2, 271146, Note_on_c, 0, 69, 0
2, 271318, Note_on_c, 0, 69, 67
2, 271354, Note_on_c, 0, 71, 0
2, 271534, Note_on_c, 0, 74, 71
2, 271546, Note_on_c, 0, 69, 0
2, 271750, Note_on_c, 0, 73, 59
2, 271764, Note_on_c, 0, 74, 0
2, 271868, Control_c, 0, 64, 127
2, 271978, Note_on_c, 0, 70, 53
2, 272008, Note_on_c, 0, 56, 28
2, 272016, Note_on_c, 0, 73, 0
2, 272022, Control_c, 0, 64, 0
2, 272212, Note_on_c, 0, 64, 41
2, 272344, Control_c, 0, 64, 127
2, 272374, Note_on_c, 0, 64, 0
2, 272422, Note_on_c, 0, 63, 38
2, 272440, Note_on_c, 0, 71, 46
2, 272468, Control_c, 0, 64, 0
2, 272488, Note_on_c, 0, 70, 0
2, 272510, Note_on_c, 0, 56, 0
2, 272652, Note_on_c, 0, 63, 0
2, 272664, Note_on_c, 0, 64, 41
2, 272790, Control_c, 0, 64, 127
2, 272892, Note_on_c, 0, 64, 0
2, 272942, Note_on_c, 0, 56, 36
2, 273014, Note_on_c, 0, 71, 0
2, 273182, Note_on_c, 0, 71, 67
2, 273362, Note_on_c, 0, 56, 0
2, 273390, Note_on_c, 0, 70, 61
2, 273408, Note_on_c, 0, 71, 0
2, 273598, Note_on_c, 0, 70, 0
2, 273601, Note_on_c, 0, 71, 85
2, 273605, Control_c, 0, 64, 0
2, 273814, Note_on_c, 0, 73, 83
2, 273842, Note_on_c, 0, 71, 0
2, 274028, Note_on_c, 0, 71, 95
2, 274086, Note_on_c, 0, 73, 0
2, 274256, Note_on_c, 0, 76, 72
2, 274266, Note_on_c, 0, 71, 0
2, 274464, Control_c, 0, 64, 127
2, 274470, Note_on_c, 0, 74, 70
2, 274496, Note_on_c, 0, 76, 0
2, 274554, Note_on_c, 0, 74, 0
2, 274704, Note_on_c, 0, 74, 63
2, 274706, Note_on_c, 0, 64, 34
2, 274726, Control_c, 0, 64, 0
2, 274734, Note_on_c, 0, 57, 23
2, 274926, Note_on_c, 0, 73, 55
2, 274958, Note_on_c, 0, 74, 0
2, 275150, Note_on_c, 0, 72, 55
2, 275176, Note_on_c, 0, 73, 0
2, 275302, Note_on_c, 0, 64, 0
2, 275330, Note_on_c, 0, 57, 0
2, 275356, Note_on_c, 0, 73, 57
2, 275356, Control_c, 0, 64, 127
2, 275388, Note_on_c, 0, 72, 0
2, 275568, Note_on_c, 0, 74, 76
2, 275572, Note_on_c, 0, 54, 52
2, 275586, Note_on_c, 0, 57, 34
2, 275614, Note_on_c, 0, 73, 0
2, 275782, Note_on_c, 0, 73, 72
2, 275862, Note_on_c, 0, 74, 0
2, 275894, Control_c, 0, 64, 0
2, 275986, Note_on_c, 0, 72, 77
2, 276000, Note_on_c, 0, 73, 0
2, 276160, Note_on_c, 0, 57, 0
2, 276170, Control_c, 0, 64, 127
2, 276180, Note_on_c, 0, 73, 77
2, 276184, Note_on_c, 0, 54, 0
2, 276200, Note_on_c, 0, 72, 0
2, 276384, Note_on_c, 0, 76, 74
2, 276396, Note_on_c, 0, 59, 37
2, 276410, Note_on_c, 0, 50, 45
2, 276413, Note_on_c, 0, 73, 0
2, 276432, Control_c, 0, 64, 0
2, 276606, Note_on_c, 0, 74, 69
2, 276648, Note_on_c, 0, 76, 0
2, 276802, Note_on_c, 0, 73, 64
2, 276822, Note_on_c, 0, 74, 0
2, 276992, Note_on_c, 0, 59, 0
2, 277026, Note_on_c, 0, 74, 72
2, 277032, Note_on_c, 0, 50, 0
2, 277032, Control_c, 0, 64, 127
2, 277040, Note_on_c, 0, 73, 0
2, 277242, Note_on_c, 0, 73, 63
2, 277270, Note_on_c, 0, 56, 30
2, 277288, Note_on_c, 0, 74, 0
2, 277291, Control_c, 0, 64, 0
2, 277294, Note_on_c, 0, 52, 46
2, 277458, Note_on_c, 0, 71, 78
2, 277480, Note_on_c, 0, 73, 0
2, 277522, Control_c, 0, 64, 127
2, 277630, Control_c, 0, 64, 0
2, 277664, Note_on_c, 0, 70, 61
2, 277686, Note_on_c, 0, 71, 0
2, 277830, Control_c, 0, 64, 127
2, 277888, Note_on_c, 0, 71, 69
2, 277906, Note_on_c, 0, 70, 0
2, 277906, Control_c, 0, 64, 0
2, 278104, Note_on_c, 0, 69, 55
2, 278112, Note_on_c, 0, 71, 0
2, 278300, Note_on_c, 0, 68, 54
2, 278328, Note_on_c, 0, 69, 0
2, 278514, Note_on_c, 0, 52, 0
2, 278532, Note_on_c, 0, 68, 0
2, 278532, Note_on_c, 0, 67, 52
2, 278540, Note_on_c, 0, 56, 0
2, 278742, Note_on_c, 0, 68, 48
2, 278748, Note_on_c, 0, 67, 0
2, 278956, Note_on_c, 0, 66, 42
2, 278968, Note_on_c, 0, 68, 0
2, 279170, Note_on_c, 0, 64, 45
2, 279180, Note_on_c, 0, 66, 0
2, 279368, Note_on_c, 0, 64, 0
2, 279378, Note_on_c, 0, 63, 53
2, 279568, Note_on_c, 0, 63, 0
2, 279604, Note_on_c, 0, 64, 52
2, 279794, Note_on_c, 0, 64, 0
2, 279806, Note_on_c, 0, 73, 91
2, 279810, Note_on_c, 0, 45, 100
2, 279814, Note_on_c, 0, 69, 77
2, 279920, Control_c, 0, 64, 127
2, 279924, Note_on_c, 0, 45, 0
2, 280000, Note_on_c, 0, 69, 0
2, 280008, Note_on_c, 0, 73, 0
2, 280008, Note_on_c, 0, 57, 87
2, 280106, Note_on_c, 0, 57, 0
2, 280220, Note_on_c, 0, 57, 77
2, 280230, Note_on_c, 0, 73, 91
2, 280232, Note_on_c, 0, 69, 79
2, 280242, Control_c, 0, 64, 0
2, 280310, Note_on_c, 0, 57, 0
2, 280440, Note_on_c, 0, 57, 78
2, 280490, Note_on_c, 0, 57, 0
2, 280648, Note_on_c, 0, 57, 79
2, 280700, Note_on_c, 0, 57, 0
2, 280862, Note_on_c, 0, 73, 0
2, 280862, Note_on_c, 0, 57, 54
2, 280922, Note_on_c, 0, 57, 0
2, 281074, Note_on_c, 0, 70, 62
2, 281074, Note_on_c, 0, 73, 70
2, 281077, Note_on_c, 0, 57, 51
2, 281128, Note_on_c, 0, 69, 0
2, 281134, Note_on_c, 0, 57, 0
2, 281316, Note_on_c, 0, 57, 45
2, 281376, Note_on_c, 0, 57, 0
2, 281512, Note_on_c, 0, 57, 45
2, 281522, Note_on_c, 0, 70, 0
2, 281526, Note_on_c, 0, 71, 54
2, 281534, Note_on_c, 0, 74, 54
2, 281564, Note_on_c, 0, 73, 0
2, 281576, Note_on_c, 0, 57, 0
2, 281742, Note_on_c, 0, 57, 56
2, 281800, Note_on_c, 0, 57, 0
2, 281952, Note_on_c, 0, 75, 57
2, 281956, Note_on_c, 0, 74, 0
2, 281960, Note_on_c, 0, 57, 40
2, 281970, Note_on_c, 0, 71, 0
2, 281982, Note_on_c, 0, 72, 30
2, 282030, Note_on_c, 0, 57, 0
2, 282162, Note_on_c, 0, 57, 36
2, 282228, Note_on_c, 0, 57, 0
2, 282338, Note_on_c, 0, 72, 0
2, 282390, Note_on_c, 0, 76, 34
2, 282390, Note_on_c, 0, 73, 40
2, 282394, Note_on_c, 0, 75, 0
2, 282412, Note_on_c, 0, 57, 31
2, 282492, Note_on_c, 0, 73, 0
2, 282586, Note_on_c, 0, 69, 39
2, 282604, Note_on_c, 0, 76, 0
2, 282686, Note_on_c, 0, 69, 0
2, 282796, Note_on_c, 0, 71, 69
2, 282832, Note_on_c, 0, 57, 0
2, 282854, Note_on_c, 0, 71, 0
2, 282990, Note_on_c, 0, 73, 70
2, 283050, Note_on_c, 0, 73, 0
2, 283206, Note_on_c, 0, 74, 65
2, 283266, Note_on_c, 0, 74, 0
2, 283414, Note_on_c, 0, 76, 63
2, 283474, Note_on_c, 0, 76, 0
2, 283606, Note_on_c, 0, 78, 68
2, 283662, Note_on_c, 0, 78, 0
2, 283806, Note_on_c, 0, 80, 80
2, 283858, Note_on_c, 0, 80, 0
2, 284036, Note_on_c, 0, 81, 67
2, 284268, Note_on_c, 0, 81, 0
2, 284278, Note_on_c, 0, 83, 63
2, 284434, Note_on_c, 0, 83, 0
2, 284580, Note_on_c, 0, 85, 40
2, 284714, Control_c, 0, 64, 127
2, 284750, Note_on_c, 0, 85, 0
2, 285142, Note_on_c, 0, 73, 97
2, 285142, Note_on_c, 0, 69, 84
2, 285156, Note_on_c, 0, 40, 113
2, 285332, Note_on_c, 0, 40, 0
2, 285374, Note_on_c, 0, 68, 83
2, 285380, Note_on_c, 0, 52, 88
2, 285386, Note_on_c, 0, 71, 102
2, 285416, Note_on_c, 0, 69, 0
2, 285438, Note_on_c, 0, 52, 0
2, 285442, Note_on_c, 0, 73, 0
2, 285476, Note_on_c, 0, 71, 0
2, 285502, Note_on_c, 0, 68, 0
2, 285558, Control_c, 0, 64, 0
2, 285596, Note_on_c, 0, 71, 94
2, 285598, Note_on_c, 0, 52, 98
2, 285598, Note_on_c, 0, 68, 49
2, 285658, Note_on_c, 0, 52, 0
2, 285812, Note_on_c, 0, 52, 100
2, 285862, Note_on_c, 0, 52, 0
2, 286022, Note_on_c, 0, 52, 94
2, 286080, Note_on_c, 0, 52, 0
2, 286246, Note_on_c, 0, 52, 77
2, 286298, Note_on_c, 0, 52, 0
2, 286328, Note_on_c, 0, 68, 0
2, 286352, Note_on_c, 0, 71, 0
2, 286438, Note_on_c, 0, 71, 72
2, 286450, Note_on_c, 0, 68, 52
2, 286464, Note_on_c, 0, 52, 78
2, 286510, Note_on_c, 0, 52, 0
2, 286684, Note_on_c, 0, 52, 59
2, 286734, Note_on_c, 0, 52, 0
2, 286866, Note_on_c, 0, 72, 60
2, 286869, Note_on_c, 0, 68, 0
2, 286876, Note_on_c, 0, 71, 0
2, 286878, Note_on_c, 0, 69, 40
2, 286906, Note_on_c, 0, 52, 44
2, 286970, Note_on_c, 0, 52, 0
2, 287088, Note_on_c, 0, 52, 51
2, 287146, Note_on_c, 0, 52, 0
2, 287300, Note_on_c, 0, 73, 46
2, 287310, Note_on_c, 0, 69, 0
2, 287310, Note_on_c, 0, 70, 33
2, 287322, Note_on_c, 0, 52, 33
2, 287354, Note_on_c, 0, 72, 0
2, 287384, Note_on_c, 0, 52, 0
2, 287516, Note_on_c, 0, 52, 39
2, 287598, Note_on_c, 0, 52, 0
2, 287694, Note_on_c, 0, 70, 0
2, 287748, Note_on_c, 0, 71, 47
2, 287760, Note_on_c, 0, 74, 44
2, 287762, Note_on_c, 0, 73, 0
2, 287804, Note_on_c, 0, 52, 30
2, 287834, Note_on_c, 0, 71, 0
2, 287994, Note_on_c, 0, 71, 80
2, 288022, Note_on_c, 0, 74, 0
2, 288080, Note_on_c, 0, 71, 0
2, 288202, Note_on_c, 0, 73, 80
2, 288214, Note_on_c, 0, 52, 0
2, 288300, Note_on_c, 0, 73, 0
2, 288404, Note_on_c, 0, 74, 95
2, 288472, Note_on_c, 0, 74, 0
2, 288602, Note_on_c, 0, 76, 84
2, 288700, Note_on_c, 0, 76, 0
2, 288800, Note_on_c, 0, 78, 80
2, 288918, Note_on_c, 0, 78, 0
2, 288998, Note_on_c, 0, 80, 80
2, 289054, Note_on_c, 0, 80, 0
2, 289198, Note_on_c, 0, 81, 80
2, 289254, Note_on_c, 0, 81, 0
2, 289428, Note_on_c, 0, 83, 94
2, 289662, Note_on_c, 0, 85, 48
2, 289694, Note_on_c, 0, 83, 0
2, 289914, Note_on_c, 0, 85, 0
2, 289940, Note_on_c, 0, 86, 47
2, 290106, Control_c, 0, 64, 127
2, 290120, Note_on_c, 0, 86, 0
2, 290522, Control_c, 0, 64, 0
2, 290616, Note_on_c, 0, 71, 56
2, 290914, Note_on_c, 0, 69, 49
2, 290920, Note_on_c, 0, 71, 0
2, 290982, Control_c, 0, 64, 127
2, 291048, Note_on_c, 0, 69, 0
2, 291146, Note_on_c, 0, 69, 28
2, 291244, Control_c, 0, 64, 0
2, 291674, Note_on_c, 0, 64, 33
2, 291686, Note_on_c, 0, 54, 38
2, 291796, Control_c, 0, 64, 127
2, 291818, Note_on_c, 0, 69, 0
2, 291896, Note_on_c, 0, 69, 52
2, 292126, Note_on_c, 0, 74, 85
2, 292178, Note_on_c, 0, 64, 0
2, 292202, Note_on_c, 0, 69, 0
2, 292272, Note_on_c, 0, 54, 0
2, 292332, Note_on_c, 0, 73, 86
2, 292390, Note_on_c, 0, 74, 0
2, 292552, Note_on_c, 0, 70, 80
2, 292562, Note_on_c, 0, 56, 33
2, 292565, Control_c, 0, 64, 0
2, 292578, Note_on_c, 0, 64, 38
2, 292620, Note_on_c, 0, 73, 0
2, 292772, Note_on_c, 0, 71, 90
2, 292836, Note_on_c, 0, 70, 0
2, 292996, Note_on_c, 0, 76, 80
2, 293036, Note_on_c, 0, 71, 0
2, 293054, Note_on_c, 0, 64, 0
2, 293102, Control_c, 0, 64, 127
2, 293104, Note_on_c, 0, 56, 0
2, 293194, Note_on_c, 0, 74, 92
2, 293258, Note_on_c, 0, 76, 0
2, 293412, Note_on_c, 0, 74, 0
2, 293412, Note_on_c, 0, 72, 78
2, 293448, Note_on_c, 0, 64, 30
2, 293456, Control_c, 0, 64, 0
2, 293468, Note_on_c, 0, 57, 15
2, 293622, Note_on_c, 0, 73, 71
2, 293642, Note_on_c, 0, 72, 0
2, 293824, Note_on_c, 0, 73, 0
2, 293850, Note_on_c, 0, 81, 64
2, 293930, Note_on_c, 0, 64, 0
2, 293934, Note_on_c, 0, 81, 0
2, 293996, Note_on_c, 0, 57, 0
2, 294034, Note_on_c, 0, 81, 67
2, 294160, Note_on_c, 0, 81, 0
2, 294250, Note_on_c, 0, 81, 60
2, 294328, Note_on_c, 0, 81, 0
2, 294454, Note_on_c, 0, 81, 72
2, 294510, Note_on_c, 0, 81, 0
2, 294660, Note_on_c, 0, 81, 71
2, 294714, Note_on_c, 0, 81, 0
2, 294864, Note_on_c, 0, 81, 85
2, 294910, Note_on_c, 0, 81, 0
2, 295116, Note_on_c, 0, 81, 65
2, 295122, Note_on_c, 0, 54, 38
2, 295130, Note_on_c, 0, 59, 31
2, 295132, Note_on_c, 0, 50, 30
2, 295364, Note_on_c, 0, 78, 61
2, 295418, Note_on_c, 0, 81, 0
2, 295576, Note_on_c, 0, 74, 56
2, 295584, Note_on_c, 0, 78, 0
2, 295698, Control_c, 0, 64, 127
2, 295708, Note_on_c, 0, 50, 0
2, 295726, Note_on_c, 0, 59, 0
2, 295744, Note_on_c, 0, 54, 0
2, 295750, Note_on_c, 0, 74, 0
2, 295778, Note_on_c, 0, 71, 70
2, 295992, Note_on_c, 0, 71, 0
2, 296000, Note_on_c, 0, 76, 70
2, 296006, Control_c, 0, 64, 0
2, 296018, Note_on_c, 0, 61, 44
2, 296040, Note_on_c, 0, 57, 29
2, 296042, Note_on_c, 0, 52, 42
2, 296280, Note_on_c, 0, 76, 0
2, 296296, Note_on_c, 0, 78, 54
2, 296330, Control_c, 0, 64, 127
2, 296350, Note_on_c, 0, 76, 64
2, 296378, Note_on_c, 0, 78, 0
2, 296428, Note_on_c, 0, 76, 0
2, 296450, Note_on_c, 0, 75, 57
2, 296498, Control_c, 0, 64, 0
2, 296540, Note_on_c, 0, 75, 0
2, 296556, Note_on_c, 0, 76, 44
2, 296806, Note_on_c, 0, 78, 62
2, 296860, Note_on_c, 0, 76, 0
2, 297128, Control_c, 0, 64, 127
2, 297178, Note_on_c, 0, 69, 51
2, 297202, Note_on_c, 0, 78, 0
2, 297558, Control_c, 0, 64, 0
2, 297790, Control_c, 0, 64, 127
2, 297922, Note_on_c, 0, 61, 0
2, 297942, Note_on_c, 0, 57, 0
2, 298262, Note_on_c, 0, 62, 25
2, 298284, Note_on_c, 0, 59, 16
2, 298510, Control_c, 0, 64, 0
2, 298794, Note_on_c, 0, 73, 40
2, 298812, Note_on_c, 0, 68, 21
2, 298830, Note_on_c, 0, 69, 0
2, 299080, Control_c, 0, 64, 127
2, 299142, Note_on_c, 0, 62, 0
2, 299142, Note_on_c, 0, 71, 56
2, 299176, Note_on_c, 0, 73, 0
2, 299254, Note_on_c, 0, 68, 0
2, 299257, Note_on_c, 0, 59, 0
2, 299270, Note_on_c, 0, 71, 0
2, 299526, Note_on_c, 0, 52, 0
2, 299570, Note_on_c, 0, 71, 62
2, 299600, Note_on_c, 0, 68, 23
2, 299606, Note_on_c, 0, 62, 21
2, 299628, Note_on_c, 0, 64, 21
2, 299636, Note_on_c, 0, 57, 10
2, 300048, Control_c, 0, 64, 0
2, 300324, Control_c, 0, 64, 127
2, 300554, Note_on_c, 0, 62, 0
2, 300884, Note_on_c, 0, 71, 0
2, 300908, Note_on_c, 0, 68, 0
2, 300926, Note_on_c, 0, 69, 24
2, 300952, Note_on_c, 0, 61, 25
2, 301000, Control_c, 0, 64, 0
2, 301262, Control_c, 0, 64, 127
2, 301362, Note_on_c, 0, 64, 0
2, 301376, Note_on_c, 0, 69, 0
2, 301400, Note_on_c, 0, 71, 44
2, 301486, Note_on_c, 0, 71, 0
2, 301498, Note_on_c, 0, 69, 23
2, 301572, Note_on_c, 0, 69, 0
2, 301580, Note_on_c, 0, 68, 54
2, 301690, Note_on_c, 0, 68, 0
2, 301700, Note_on_c, 0, 69, 48
2, 301752, Note_on_c, 0, 61, 0
2, 301764, Note_on_c, 0, 57, 0
2, 301892, Control_c, 0, 64, 0
2, 301942, Note_on_c, 0, 71, 82
2, 301978, Note_on_c, 0, 69, 0
2, 302178, Note_on_c, 0, 73, 63
2, 302208, Note_on_c, 0, 71, 0
2, 302430, Control_c, 0, 64, 127
2, 302462, Note_on_c, 0, 73, 0
2, 302488, Note_on_c, 0, 74, 59
2, 302560, Note_on_c, 0, 73, 40
2, 302594, Note_on_c, 0, 74, 0
2, 302664, Note_on_c, 0, 73, 0
2, 302674, Note_on_c, 0, 71, 57
2, 302750, Note_on_c, 0, 73, 55
2, 302768, Control_c, 0, 64, 0
2, 302776, Note_on_c, 0, 71, 0
2, 302998, Control_c, 0, 64, 127
2, 303022, Note_on_c, 0, 74, 54
2, 303080, Note_on_c, 0, 73, 0
2, 303122, Control_c, 0, 64, 0
2, 303306, Control_c, 0, 64, 127
2, 303476, Note_on_c, 0, 57, 19
2, 303482, Note_on_c, 0, 76, 47
2, 303500, Note_on_c, 0, 74, 0
2, 303690, Control_c, 0, 64, 0
2, 303830, Note_on_c, 0, 69, 22
2, 303890, Control_c, 0, 64, 127
2, 304050, Note_on_c, 0, 69, 0
2, 304086, Note_on_c, 0, 61, 40
2, 304134, Note_on_c, 0, 57, 0
2, 304282, Note_on_c, 0, 61, 0
2, 304356, Note_on_c, 0, 78, 59
2, 304359, Note_on_c, 0, 76, 0
2, 304400, Note_on_c, 0, 69, 23
2, 304506, Note_on_c, 0, 76, 54
2, 304522, Note_on_c, 0, 69, 0
2, 304528, Note_on_c, 0, 78, 0
2, 304650, Note_on_c, 0, 57, 31
2, 304672, Note_on_c, 0, 74, 72
2, 304748, Note_on_c, 0, 76, 0
2, 304796, Control_c, 0, 64, 0
2, 304912, Note_on_c, 0, 68, 39
2, 304964, Control_c, 0, 64, 127
2, 304994, Note_on_c, 0, 74, 0
2, 305122, Note_on_c, 0, 68, 0
2, 305160, Note_on_c, 0, 73, 79
2, 305222, Note_on_c, 0, 59, 31
2, 305280, Note_on_c, 0, 57, 0
2, 305420, Note_on_c, 0, 68, 44
2, 305444, Note_on_c, 0, 73, 0
2, 305464, Note_on_c, 0, 59, 0
2, 305570, Note_on_c, 0, 68, 0
2, 305630, Note_on_c, 0, 71, 95
2, 305658, Note_on_c, 0, 57, 36
2, 305892, Note_on_c, 0, 67, 45
2, 305910, Note_on_c, 0, 71, 0
2, 306102, Note_on_c, 0, 69, 77
2, 306107, Note_on_c, 0, 67, 0
2, 306124, Note_on_c, 0, 61, 48
2, 306210, Control_c, 0, 64, 0
2, 306378, Control_c, 0, 64, 127
2, 306384, Note_on_c, 0, 67, 55
2, 306414, Note_on_c, 0, 57, 0
2, 306520, Note_on_c, 0, 69, 0
2, 306598, Note_on_c, 0, 67, 0
2, 306686, Note_on_c, 0, 69, 78
2, 306710, Note_on_c, 0, 61, 0
2, 306720, Note_on_c, 0, 57, 37
2, 306968, Note_on_c, 0, 66, 30
2, 306978, Control_c, 0, 64, 0
2, 307192, Control_c, 0, 64, 127
2, 307250, Note_on_c, 0, 66, 0
2, 307290, Note_on_c, 0, 62, 33
2, 307546, Note_on_c, 0, 62, 0
2, 307568, Note_on_c, 0, 78, 76
2, 307580, Note_on_c, 0, 66, 33
2, 307618, Note_on_c, 0, 69, 0
2, 307750, Note_on_c, 0, 66, 0
2, 307808, Note_on_c, 0, 57, 0
2, 307818, Note_on_c, 0, 78, 0
2, 307900, Note_on_c, 0, 78, 62
2, 307922, Note_on_c, 0, 54, 44
2, 308038, Control_c, 0, 64, 0
2, 308200, Note_on_c, 0, 62, 44
2, 308205, Control_c, 0, 64, 127
2, 308302, Note_on_c, 0, 78, 0
2, 308324, Note_on_c, 0, 62, 0
2, 308420, Note_on_c, 0, 57, 45
2, 308538, Note_on_c, 0, 57, 0
2, 308674, Note_on_c, 0, 62, 38
2, 308738, Note_on_c, 0, 62, 0
2, 308884, Note_on_c, 0, 62, 101
2, 308924, Note_on_c, 0, 50, 44
2, 308944, Note_on_c, 0, 54, 0
2, 309134, Note_on_c, 0, 57, 47
2, 309358, Note_on_c, 0, 57, 0
2, 309402, Note_on_c, 0, 54, 59
2, 309500, Note_on_c, 0, 54, 0
2, 309564, Note_on_c, 0, 50, 0
2, 309652, Note_on_c, 0, 57, 55
2, 309778, Note_on_c, 0, 57, 0
2, 309828, Note_on_c, 0, 45, 80
2, 309968, Note_on_c, 0, 66, 68
2, 310040, Note_on_c, 0, 62, 0
2, 310088, Note_on_c, 0, 54, 68
2, 310118, Note_on_c, 0, 64, 85
2, 310172, Note_on_c, 0, 66, 0
2, 310232, Note_on_c, 0, 62, 87
2, 310238, Note_on_c, 0, 64, 0
2, 310308, Note_on_c, 0, 54, 0
2, 310356, Note_on_c, 0, 50, 59
2, 310359, Note_on_c, 0, 64, 85
2, 310384, Note_on_c, 0, 62, 0
2, 310476, Note_on_c, 0, 64, 0
2, 310479, Note_on_c, 0, 66, 83
2, 310534, Note_on_c, 0, 45, 0
2, 310568, Note_on_c, 0, 54, 67
2, 310590, Note_on_c, 0, 67, 94
2, 310616, Note_on_c, 0, 66, 0
2, 310686, Note_on_c, 0, 69, 95
2, 310722, Note_on_c, 0, 67, 0
2, 310738, Note_on_c, 0, 54, 0
2, 310768, Note_on_c, 0, 45, 62
2, 310794, Note_on_c, 0, 71, 108
2, 310820, Control_c, 0, 64, 0
2, 310823, Note_on_c, 0, 69, 0
2, 310868, Note_on_c, 0, 50, 0
2, 310902, Note_on_c, 0, 73, 88
2, 310940, Note_on_c, 0, 71, 0
2, 310988, Control_c, 0, 64, 127
2, 310994, Note_on_c, 0, 74, 101
2, 310994, Note_on_c, 0, 54, 68
2, 310997, Note_on_c, 0, 73, 0
2, 311098, Note_on_c, 0, 76, 106
2, 311142, Note_on_c, 0, 74, 0
2, 311142, Control_c, 0, 64, 0
2, 311210, Note_on_c, 0, 76, 0
2, 311216, Note_on_c, 0, 54, 0
2, 311220, Note_on_c, 0, 78, 103
2, 311238, Note_on_c, 0, 50, 63
2, 311316, Note_on_c, 0, 78, 0
2, 311382, Note_on_c, 0, 79, 116
2, 311428, Note_on_c, 0, 54, 69
2, 311476, Note_on_c, 0, 79, 0
2, 311488, Note_on_c, 0, 45, 0
2, 311536, Note_on_c, 0, 81, 107
2, 311598, Note_on_c, 0, 81, 0
2, 311654, Note_on_c, 0, 54, 0
2, 311696, Note_on_c, 0, 83, 127
2, 311706, Note_on_c, 0, 45, 63
2, 311754, Note_on_c, 0, 50, 0
2, 311780, Note_on_c, 0, 83, 0
2, 311932, Note_on_c, 0, 85, 100
2, 311940, Note_on_c, 0, 54, 64
2, 312030, Note_on_c, 0, 85, 0
2, 312152, Note_on_c, 0, 54, 0
2, 312214, Note_on_c, 0, 86, 82
2, 312230, Note_on_c, 0, 50, 44
2, 312432, Control_c, 0, 64, 127
2, 312542, Note_on_c, 0, 50, 0
2, 312586, Note_on_c, 0, 54, 42
2, 312616, Note_on_c, 0, 45, 0
2, 312692, Note_on_c, 0, 86, 0
2, 312704, Note_on_c, 0, 78, 84
2, 312768, Note_on_c, 0, 54, 0
2, 312924, Control_c, 0, 64, 0
2, 312942, Note_on_c, 0, 81, 80
2, 312960, Note_on_c, 0, 45, 40
2, 312966, Note_on_c, 0, 50, 39
2, 313024, Note_on_c, 0, 78, 0
2, 313446, Control_c, 0, 64, 127
2, 313642, Note_on_c, 0, 45, 0
2, 313728, Note_on_c, 0, 50, 0
2, 313926, Note_on_c, 0, 78, 42
2, 313962, Note_on_c, 0, 81, 0
2, 314108, Control_c, 0, 64, 0
2, 314134, Note_on_c, 0, 49, 23
2, 314146, Note_on_c, 0, 78, 0
2, 314146, Note_on_c, 0, 45, 24
2, 314149, Note_on_c, 0, 76, 40
2, 314414, Control_c, 0, 64, 127
2, 314440, Note_on_c, 0, 76, 0
2, 314584, Control_c, 0, 64, 0
2, 314608, Note_on_c, 0, 76, 54
2, 314748, Note_on_c, 0, 49, 0
2, 314792, Note_on_c, 0, 76, 0
2, 314795, Note_on_c, 0, 45, 0
2, 314798, Control_c, 0, 64, 127
2, 314982, Control_c, 0, 64, 0
2, 315042, Note_on_c, 0, 76, 60
2, 315198, Control_c, 0, 64, 127
2, 315240, Note_on_c, 0, 76, 0
2, 315460, Control_c, 0, 64, 0
2, 315474, Note_on_c, 0, 76, 69
2, 315642, Note_on_c, 0, 76, 0
2, 315644, Control_c, 0, 64, 127
2, 315898, Note_on_c, 0, 78, 67
2, 315924, Note_on_c, 0, 57, 19
2, 315936, Note_on_c, 0, 61, 24
2, 315944, Note_on_c, 0, 64, 31
2, 316118, Note_on_c, 0, 76, 54
2, 316150, Note_on_c, 0, 78, 0
2, 316180, Control_c, 0, 64, 0
2, 316322, Note_on_c, 0, 73, 54
2, 316350, Note_on_c, 0, 76, 0
2, 316538, Note_on_c, 0, 71, 52
2, 316552, Note_on_c, 0, 73, 0
2, 316746, Note_on_c, 0, 71, 0
2, 316764, Note_on_c, 0, 69, 38
2, 317134, Note_on_c, 0, 69, 0
2, 317198, Note_on_c, 0, 76, 28
2, 317410, Control_c, 0, 64, 127
2, 317446, Note_on_c, 0, 76, 0
2, 317666, Note_on_c, 0, 76, 61
2, 317672, Control_c, 0, 64, 0
2, 317840, Control_c, 0, 64, 127
2, 317890, Note_on_c, 0, 76, 0
2, 318088, Note_on_c, 0, 76, 78
2, 318096, Note_on_c, 0, 64, 0
2, 318174, Note_on_c, 0, 76, 0
2, 318210, Note_on_c, 0, 57, 0
2, 318246, Note_on_c, 0, 61, 0
2, 318526, Note_on_c, 0, 78, 76
2, 318566, Note_on_c, 0, 64, 42
2, 318584, Note_on_c, 0, 59, 32
2, 318592, Note_on_c, 0, 62, 31
2, 318592, Control_c, 0, 64, 0
2, 318770, Note_on_c, 0, 76, 47
2, 318814, Note_on_c, 0, 78, 0
2, 318962, Note_on_c, 0, 76, 0
2, 318972, Note_on_c, 0, 74, 46
2, 319136, Note_on_c, 0, 74, 0
2, 319190, Note_on_c, 0, 71, 48
2, 319380, Note_on_c, 0, 71, 0
2, 319412, Note_on_c, 0, 68, 39
2, 319878, Note_on_c, 0, 68, 0
2, 319898, Note_on_c, 0, 76, 36
2, 320100, Control_c, 0, 64, 127
2, 320140, Note_on_c, 0, 76, 0
2, 320372, Note_on_c, 0, 76, 47
2, 320422, Control_c, 0, 64, 0
2, 320484, Control_c, 0, 64, 127
2, 320572, Note_on_c, 0, 76, 0
2, 320788, Note_on_c, 0, 64, 0
2, 320824, Note_on_c, 0, 76, 57
2, 320836, Note_on_c, 0, 62, 0
2, 320862, Note_on_c, 0, 59, 0
2, 320910, Note_on_c, 0, 76, 0
2, 321282, Note_on_c, 0, 78, 52
2, 321284, Note_on_c, 0, 57, 18
2, 321308, Note_on_c, 0, 61, 24
2, 321310, Note_on_c, 0, 64, 24
2, 321542, Note_on_c, 0, 76, 53
2, 321590, Note_on_c, 0, 78, 0
2, 321728, Note_on_c, 0, 73, 63
2, 321790, Note_on_c, 0, 76, 0
2, 321862, Note_on_c, 0, 64, 0
2, 321890, Note_on_c, 0, 57, 0
2, 321910, Note_on_c, 0, 73, 0
2, 321932, Note_on_c, 0, 69, 72
2, 321964, Note_on_c, 0, 61, 0
2, 322154, Note_on_c, 0, 56, 41
2, 322156, Note_on_c, 0, 69, 0
2, 322156, Note_on_c, 0, 78, 85
2, 322172, Note_on_c, 0, 64, 47
2, 322174, Control_c, 0, 64, 0
2, 322198, Note_on_c, 0, 59, 32
2, 322384, Note_on_c, 0, 76, 72
2, 322494, Note_on_c, 0, 78, 0
2, 322548, Note_on_c, 0, 64, 0
2, 322558, Control_c, 0, 64, 127
2, 322580, Note_on_c, 0, 74, 85
2, 322632, Note_on_c, 0, 76, 0
2, 322660, Note_on_c, 0, 56, 0
2, 322663, Note_on_c, 0, 59, 0
2, 322764, Note_on_c, 0, 74, 0
2, 322778, Note_on_c, 0, 71, 95
2, 322988, Control_c, 0, 64, 0
2, 322998, Note_on_c, 0, 71, 0
2, 323008, Note_on_c, 0, 78, 84
2, 323008, Note_on_c, 0, 64, 42
2, 323016, Note_on_c, 0, 57, 34
2, 323024, Note_on_c, 0, 61, 38
2, 323248, Note_on_c, 0, 76, 65
2, 323316, Note_on_c, 0, 78, 0
2, 323326, Control_c, 0, 64, 127
2, 323404, Note_on_c, 0, 61, 0
2, 323436, Note_on_c, 0, 64, 0
2, 323458, Note_on_c, 0, 57, 0
2, 323474, Note_on_c, 0, 73, 52
2, 323516, Note_on_c, 0, 76, 0
2, 323606, Note_on_c, 0, 73, 0
2, 323708, Note_on_c, 0, 69, 53
2, 324046, Note_on_c, 0, 73, 54
2, 324046, Control_c, 0, 64, 0
2, 324075, Note_on_c, 0, 61, 38
2, 324096, Note_on_c, 0, 57, 25
2, 324110, Note_on_c, 0, 52, 36
2, 324136, Note_on_c, 0, 69, 0
2, 324554, Control_c, 0, 64, 127
2, 324674, Note_on_c, 0, 61, 0
2, 324684, Note_on_c, 0, 57, 0
2, 325200, Note_on_c, 0, 71, 36
2, 325206, Note_on_c, 0, 56, 17
2, 325246, Note_on_c, 0, 59, 16
2, 325262, Control_c, 0, 64, 0
2, 325288, Note_on_c, 0, 73, 0
2, 325494, Note_on_c, 0, 64, 41
2, 325598, Note_on_c, 0, 71, 0
2, 325660, Control_c, 0, 64, 127
2, 325750, Note_on_c, 0, 76, 55
2, 325754, Control_c, 0, 64, 0
2, 325760, Note_on_c, 0, 64, 0
2, 325922, Control_c, 0, 64, 127
2, 325968, Control_c, 0, 64, 0
2, 325988, Note_on_c, 0, 64, 36
2, 326106, Control_c, 0, 64, 127
2, 326112, Note_on_c, 0, 64, 0
2, 326194, Note_on_c, 0, 75, 54
2, 326230, Control_c, 0, 64, 0
2, 326270, Note_on_c, 0, 76, 0
2, 326284, Note_on_c, 0, 59, 0
2, 326334, Note_on_c, 0, 56, 0
2, 326344, Note_on_c, 0, 52, 0
2, 326352, Control_c, 0, 64, 127
2, 326438, Note_on_c, 0, 64, 24
2, 326618, Note_on_c, 0, 64, 0
2, 326694, Note_on_c, 0, 74, 48
2, 326710, Note_on_c, 0, 75, 0
2, 326768, Control_c, 0, 64, 0
2, 326968, Control_c, 0, 64, 127
2, 326992, Note_on_c, 0, 64, 34
2, 327216, Note_on_c, 0, 64, 0
2, 327386, Note_on_c, 0, 57, 24
2, 327392, Note_on_c, 0, 73, 57
2, 327490, Note_on_c, 0, 74, 0
2, 327688, Control_c, 0, 64, 0
2, 327766, Note_on_c, 0, 64, 29
2, 327920, Control_c, 0, 64, 127
2, 327976, Note_on_c, 0, 64, 0
2, 328024, Note_on_c, 0, 61, 28
2, 328040, Note_on_c, 0, 73, 0
2, 328074, Note_on_c, 0, 57, 0
2, 328210, Note_on_c, 0, 61, 0
2, 328318, Note_on_c, 0, 64, 25
2, 328426, Note_on_c, 0, 64, 0
2, 328502, Note_on_c, 0, 73, 60
2, 328532, Note_on_c, 0, 57, 22
2, 328722, Note_on_c, 0, 57, 0
2, 328758, Note_on_c, 0, 64, 32
2, 328878, Note_on_c, 0, 64, 0
2, 328944, Note_on_c, 0, 61, 40
2, 329180, Note_on_c, 0, 61, 0
2, 329194, Note_on_c, 0, 64, 44
2, 329292, Note_on_c, 0, 64, 0
2, 329424, Note_on_c, 0, 57, 32
2, 329558, Note_on_c, 0, 73, 0
2, 329662, Note_on_c, 0, 74, 72
2, 329718, Note_on_c, 0, 74, 0
2, 329718, Note_on_c, 0, 64, 32
2, 329732, Note_on_c, 0, 73, 63
2, 329806, Note_on_c, 0, 73, 0
2, 329806, Note_on_c, 0, 71, 63
2, 329840, Note_on_c, 0, 64, 0
2, 329904, Note_on_c, 0, 73, 64
2, 329932, Control_c, 0, 64, 0
2, 329944, Note_on_c, 0, 59, 31
2, 329954, Note_on_c, 0, 71, 0
2, 329978, Note_on_c, 0, 57, 0
2, 330136, Note_on_c, 0, 74, 87
2, 330148, Control_c, 0, 64, 127
2, 330168, Note_on_c, 0, 64, 40
2, 330176, Note_on_c, 0, 73, 0
2, 330338, Note_on_c, 0, 64, 0
2, 330398, Note_on_c, 0, 78, 84
2, 330426, Note_on_c, 0, 59, 0
2, 330426, Note_on_c, 0, 61, 31
2, 330438, Note_on_c, 0, 74, 0
2, 330516, Control_c, 0, 64, 0
2, 330666, Note_on_c, 0, 64, 39
2, 330746, Control_c, 0, 64, 127
2, 330812, Note_on_c, 0, 64, 0
2, 330854, Control_c, 0, 64, 0
2, 330864, Note_on_c, 0, 76, 68
2, 330890, Note_on_c, 0, 57, 30
2, 330896, Note_on_c, 0, 78, 0
2, 330924, Note_on_c, 0, 61, 0
2, 331024, Control_c, 0, 64, 127
2, 331056, Note_on_c, 0, 76, 0
2, 331158, Note_on_c, 0, 64, 33
2, 331284, Note_on_c, 0, 64, 0
2, 331346, Note_on_c, 0, 57, 0
2, 331420, Note_on_c, 0, 87, 70
2, 331462, Note_on_c, 0, 61, 33
2, 331516, Control_c, 0, 64, 0
2, 331724, Note_on_c, 0, 64, 37
2, 331776, Control_c, 0, 64, 127
2, 331916, Note_on_c, 0, 64, 0
2, 331946, Control_c, 0, 64, 0
2, 331978, Note_on_c, 0, 88, 44
2, 331988, Note_on_c, 0, 87, 0
2, 332022, Note_on_c, 0, 57, 21
2, 332036, Note_on_c, 0, 61, 0
2, 332098, Note_on_c, 0, 88, 0
2, 332114, Control_c, 0, 64, 127
2, 332258, Note_on_c, 0, 76, 79
2, 332314, Note_on_c, 0, 64, 26
2, 332372, Note_on_c, 0, 76, 0
2, 332422, Note_on_c, 0, 64, 0
2, 332498, Note_on_c, 0, 78, 97
2, 332518, Note_on_c, 0, 61, 34
2, 332572, Note_on_c, 0, 57, 0
2, 332730, Note_on_c, 0, 76, 101
2, 332802, Note_on_c, 0, 78, 0
2, 332802, Note_on_c, 0, 64, 31
2, 332908, Note_on_c, 0, 64, 0
2, 332958, Note_on_c, 0, 74, 103
2, 332970, Note_on_c, 0, 76, 0
2, 333006, Control_c, 0, 64, 0
2, 333009, Note_on_c, 0, 57, 26
2, 333020, Note_on_c, 0, 61, 0
2, 333114, Control_c, 0, 64, 127
2, 333162, Note_on_c, 0, 73, 91
2, 333180, Note_on_c, 0, 74, 0
2, 333246, Note_on_c, 0, 64, 34
2, 333288, Note_on_c, 0, 73, 0
2, 333336, Note_on_c, 0, 64, 0
2, 333414, Note_on_c, 0, 73, 82
2, 333418, Note_on_c, 0, 57, 0
2, 333420, Control_c, 0, 64, 0
2, 333456, Note_on_c, 0, 56, 30
2, 333722, Note_on_c, 0, 64, 31
2, 333820, Control_c, 0, 64, 127
2, 333898, Note_on_c, 0, 64, 0
2, 333960, Note_on_c, 0, 63, 31
2, 334004, Note_on_c, 0, 71, 75
2, 334066, Control_c, 0, 64, 0
2, 334072, Note_on_c, 0, 73, 0
2, 334246, Note_on_c, 0, 64, 44
2, 334264, Note_on_c, 0, 56, 0
2, 334296, Note_on_c, 0, 63, 0
2, 334312, Control_c, 0, 64, 127
2, 334382, Note_on_c, 0, 71, 0
2, 334414, Note_on_c, 0, 64, 0
2, 334510, Note_on_c, 0, 56, 38
2, 334782, Note_on_c, 0, 64, 23
2, 334878, Note_on_c, 0, 64, 0
2, 334952, Note_on_c, 0, 71, 65
2, 334962, Note_on_c, 0, 56, 0
2, 334990, Note_on_c, 0, 63, 38
2, 335148, Note_on_c, 0, 63, 0
2, 335214, Note_on_c, 0, 64, 39
2, 335324, Note_on_c, 0, 64, 0
2, 335436, Note_on_c, 0, 56, 34
2, 335514, Note_on_c, 0, 71, 0
2, 335682, Note_on_c, 0, 73, 47
2, 335714, Note_on_c, 0, 64, 34
2, 335760, Note_on_c, 0, 73, 0
2, 335762, Note_on_c, 0, 71, 69
2, 335816, Note_on_c, 0, 71, 0
2, 335824, Note_on_c, 0, 56, 0
2, 335830, Note_on_c, 0, 70, 52
2, 335836, Note_on_c, 0, 64, 0
2, 335890, Note_on_c, 0, 70, 0
2, 335906, Note_on_c, 0, 71, 72
2, 335910, Control_c, 0, 64, 0
2, 335912, Note_on_c, 0, 57, 42
2, 336124, Note_on_c, 0, 73, 72
2, 336138, Note_on_c, 0, 71, 0
2, 336138, Control_c, 0, 64, 127
2, 336152, Note_on_c, 0, 64, 41
2, 336260, Note_on_c, 0, 64, 0
2, 336310, Control_c, 0, 64, 0
2, 336356, Note_on_c, 0, 76, 68
2, 336390, Note_on_c, 0, 57, 0
2, 336396, Note_on_c, 0, 59, 32
2, 336398, Note_on_c, 0, 73, 0
2, 336620, Note_on_c, 0, 64, 36
2, 336770, Note_on_c, 0, 64, 0
2, 336834, Note_on_c, 0, 76, 0
2, 336834, Note_on_c, 0, 74, 53
2, 336848, Note_on_c, 0, 63, 32
2, 337012, Note_on_c, 0, 74, 0
2, 337015, Control_c, 0, 64, 127
2, 337062, Note_on_c, 0, 63, 0
2, 337096, Note_on_c, 0, 64, 30
2, 337194, Note_on_c, 0, 64, 0
2, 337216, Note_on_c, 0, 59, 0
2, 337414, Note_on_c, 0, 85, 56
2, 337414, Note_on_c, 0, 56, 23
2, 337554, Control_c, 0, 64, 0
2, 337706, Note_on_c, 0, 64, 34
2, 337754, Control_c, 0, 64, 127
2, 337906, Control_c, 0, 64, 0
2, 337934, Note_on_c, 0, 64, 0
2, 337962, Note_on_c, 0, 86, 61
2, 337964, Note_on_c, 0, 85, 0
2, 338010, Note_on_c, 0, 59, 14
2, 338058, Note_on_c, 0, 86, 0
2, 338061, Control_c, 0, 64, 127
2, 338230, Note_on_c, 0, 74, 79
2, 338248, Note_on_c, 0, 59, 0
2, 338276, Note_on_c, 0, 64, 24
2, 338336, Note_on_c, 0, 56, 0
2, 338362, Note_on_c, 0, 64, 0
2, 338462, Note_on_c, 0, 74, 0
2, 338488, Note_on_c, 0, 76, 80
2, 338524, Note_on_c, 0, 52, 39
2, 338568, Control_c, 0, 64, 0
2, 338724, Note_on_c, 0, 74, 84
2, 338752, Control_c, 0, 64, 127
2, 338759, Note_on_c, 0, 64, 31
2, 338806, Note_on_c, 0, 76, 0
2, 338864, Note_on_c, 0, 64, 0
2, 338938, Note_on_c, 0, 73, 76
2, 338954, Note_on_c, 0, 56, 33
2, 338966, Note_on_c, 0, 74, 0
2, 338974, Note_on_c, 0, 52, 0
2, 339156, Note_on_c, 0, 71, 85
2, 339172, Note_on_c, 0, 64, 26
2, 339174, Note_on_c, 0, 73, 0
2, 339272, Note_on_c, 0, 64, 0
2, 339272, Note_on_c, 0, 71, 0
2, 339382, Note_on_c, 0, 56, 0
2, 339410, Note_on_c, 0, 71, 85
2, 339430, Note_on_c, 0, 54, 32
2, 339490, Control_c, 0, 64, 0
2, 339696, Note_on_c, 0, 64, 46
2, 339842, Control_c, 0, 64, 127
2, 339860, Note_on_c, 0, 64, 0
2, 339892, Note_on_c, 0, 63, 46
2, 339932, Note_on_c, 0, 69, 45
2, 339954, Note_on_c, 0, 71, 0
2, 339966, Control_c, 0, 64, 0
2, 340152, Note_on_c, 0, 63, 0
2, 340160, Note_on_c, 0, 64, 55
2, 340176, Note_on_c, 0, 54, 0
2, 340288, Control_c, 0, 64, 127
2, 340372, Note_on_c, 0, 64, 0
2, 340412, Note_on_c, 0, 54, 56
2, 340526, Note_on_c, 0, 69, 0
2, 340634, Note_on_c, 0, 69, 55
2, 340660, Note_on_c, 0, 64, 55
2, 340812, Control_c, 0, 64, 0
2, 340844, Note_on_c, 0, 64, 0
2, 340854, Note_on_c, 0, 74, 93
2, 340866, Note_on_c, 0, 63, 65
2, 340888, Note_on_c, 0, 69, 0
2, 341066, Note_on_c, 0, 54, 0
2, 341070, Note_on_c, 0, 73, 95
2, 341088, Note_on_c, 0, 64, 55
2, 341102, Control_c, 0, 64, 127
2, 341104, Note_on_c, 0, 63, 0
2, 341138, Note_on_c, 0, 74, 0
2, 341270, Note_on_c, 0, 64, 0
2, 341288, Control_c, 0, 64, 0
2, 341296, Note_on_c, 0, 70, 82
2, 341306, Note_on_c, 0, 56, 45
2, 341362, Note_on_c, 0, 73, 0
2, 341526, Note_on_c, 0, 71, 98
2, 341562, Note_on_c, 0, 64, 46
2, 341572, Note_on_c, 0, 70, 0
2, 341722, Note_on_c, 0, 64, 0
2, 341748, Note_on_c, 0, 76, 84
2, 341764, Note_on_c, 0, 63, 60
2, 341780, Note_on_c, 0, 71, 0
2, 341876, Note_on_c, 0, 56, 0
2, 341936, Note_on_c, 0, 63, 0
2, 341976, Note_on_c, 0, 74, 90
2, 341996, Note_on_c, 0, 64, 38
2, 342052, Note_on_c, 0, 76, 0
2, 342218, Note_on_c, 0, 72, 82
2, 342226, Note_on_c, 0, 57, 33
2, 342236, Note_on_c, 0, 74, 0
2, 342268, Note_on_c, 0, 64, 0
2, 342440, Note_on_c, 0, 73, 75
2, 342458, Note_on_c, 0, 72, 0
2, 342640, Control_c, 0, 64, 127
2, 342664, Note_on_c, 0, 73, 0
2, 342684, Note_on_c, 0, 81, 61
2, 342766, Note_on_c, 0, 81, 0
2, 342829, Note_on_c, 0, 57, 0
2, 342870, Control_c, 0, 64, 0
2, 342900, Note_on_c, 0, 81, 69
2, 343010, Note_on_c, 0, 81, 0
2, 343074, Note_on_c, 0, 57, 15
2, 343106, Note_on_c, 0, 81, 78
2, 343144, Note_on_c, 0, 57, 0
2, 343192, Note_on_c, 0, 81, 0
2, 343310, Note_on_c, 0, 81, 88
2, 343416, Note_on_c, 0, 81, 0
2, 343516, Note_on_c, 0, 81, 88
2, 343580, Note_on_c, 0, 81, 0
2, 343726, Note_on_c, 0, 81, 92
2, 343792, Note_on_c, 0, 81, 0
2, 343976, Note_on_c, 0, 81, 64
2, 343990, Note_on_c, 0, 59, 33
2, 343990, Note_on_c, 0, 50, 37
2, 344002, Note_on_c, 0, 54, 37
2, 344006, Control_c, 0, 64, 127
2, 344224, Note_on_c, 0, 59, 0
2, 344242, Note_on_c, 0, 78, 63
2, 344262, Note_on_c, 0, 50, 0
2, 344280, Note_on_c, 0, 81, 0
2, 344380, Note_on_c, 0, 54, 0
2, 344480, Note_on_c, 0, 74, 57
2, 344494, Note_on_c, 0, 78, 0
2, 344592, Note_on_c, 0, 74, 0
2, 344710, Note_on_c, 0, 71, 68
2, 344898, Note_on_c, 0, 71, 0
2, 344940, Note_on_c, 0, 76, 77
2, 344944, Note_on_c, 0, 61, 41
2, 344944, Control_c, 0, 64, 0
2, 344956, Note_on_c, 0, 57, 32
2, 344974, Note_on_c, 0, 52, 31
2, 345198, Note_on_c, 0, 76, 0
2, 345214, Note_on_c, 0, 78, 60
2, 345220, Control_c, 0, 64, 127
2, 345282, Note_on_c, 0, 76, 46
2, 345322, Note_on_c, 0, 78, 0
2, 345356, Note_on_c, 0, 76, 0
2, 345368, Note_on_c, 0, 75, 68
2, 345426, Note_on_c, 0, 75, 0
2, 345464, Note_on_c, 0, 76, 63
2, 345512, Control_c, 0, 64, 0
2, 345694, Note_on_c, 0, 78, 62
2, 345718, Note_on_c, 0, 76, 0
2, 345896, Control_c, 0, 64, 127
2, 346056, Note_on_c, 0, 69, 55
2, 346082, Note_on_c, 0, 78, 0
2, 346342, Control_c, 0, 64, 0
2, 346620, Control_c, 0, 64, 127
2, 346772, Note_on_c, 0, 57, 0
2, 346886, Note_on_c, 0, 61, 0
2, 347038, Note_on_c, 0, 62, 40
2, 347050, Note_on_c, 0, 59, 33
2, 347372, Control_c, 0, 64, 0
2, 347522, Note_on_c, 0, 71, 80
2, 347540, Note_on_c, 0, 68, 39
2, 347594, Note_on_c, 0, 69, 0
2, 347742, Control_c, 0, 64, 127
2, 347808, Note_on_c, 0, 52, 0
2, 347814, Note_on_c, 0, 59, 0
2, 347838, Note_on_c, 0, 68, 0
2, 347842, Note_on_c, 0, 62, 0
2, 347852, Note_on_c, 0, 71, 0
2, 348214, Note_on_c, 0, 71, 61
2, 348230, Note_on_c, 0, 68, 34
2, 348278, Note_on_c, 0, 57, 15
2, 348278, Note_on_c, 0, 64, 21
2, 348281, Note_on_c, 0, 62, 23
2, 348938, Control_c, 0, 64, 0
2, 349154, Control_c, 0, 64, 127
2, 349610, Note_on_c, 0, 71, 0
2, 349622, Note_on_c, 0, 72, 45
2, 349708, Control_c, 0, 64, 0
2, 349922, Control_c, 0, 64, 127
2, 350110, Note_on_c, 0, 62, 0
2, 350226, Note_on_c, 0, 68, 0
2, 350244, Note_on_c, 0, 73, 31
2, 350260, Note_on_c, 0, 69, 18
2, 350270, Note_on_c, 0, 61, 24
2, 350336, Note_on_c, 0, 72, 0
2, 350336, Control_c, 0, 64, 0
2, 350670, Note_on_c, 0, 64, 0
2, 350676, Control_c, 0, 64, 127
2, 350704, Note_on_c, 0, 57, 0
2, 350742, Note_on_c, 0, 61, 0
2, 350858, Note_on_c, 0, 69, 0
2, 351112, Note_on_c, 0, 64, 56
2, 351118, Note_on_c, 0, 73, 0
2, 351202, Note_on_c, 0, 69, 57
2, 351280, Note_on_c, 0, 73, 98
2, 351286, Note_on_c, 0, 45, 75
2, 351576, Note_on_c, 0, 49, 64
2, 351794, Note_on_c, 0, 45, 0
2, 351844, Note_on_c, 0, 52, 76
2, 351926, Note_on_c, 0, 49, 0
2, 351986, Note_on_c, 0, 64, 0
2, 352064, Note_on_c, 0, 52, 0
2, 352070, Note_on_c, 0, 57, 80
2, 352122, Note_on_c, 0, 69, 0
2, 352258, Note_on_c, 0, 57, 0
2, 352296, Note_on_c, 0, 45, 84
2, 352532, Note_on_c, 0, 76, 79
2, 352536, Note_on_c, 0, 73, 0
2, 352620, Note_on_c, 0, 49, 61
2, 352694, Note_on_c, 0, 74, 98
2, 352762, Note_on_c, 0, 45, 0
2, 352764, Note_on_c, 0, 76, 0
2, 352836, Note_on_c, 0, 73, 92
2, 352864, Note_on_c, 0, 74, 0
2, 352866, Note_on_c, 0, 52, 80
2, 352868, Note_on_c, 0, 49, 0
2, 353010, Note_on_c, 0, 74, 110
2, 353042, Note_on_c, 0, 52, 0
2, 353060, Note_on_c, 0, 73, 0
2, 353070, Note_on_c, 0, 57, 78
2, 353142, Note_on_c, 0, 76, 100
2, 353176, Note_on_c, 0, 74, 0
2, 353270, Note_on_c, 0, 76, 0
2, 353302, Note_on_c, 0, 74, 97
2, 353302, Note_on_c, 0, 47, 86
2, 353320, Note_on_c, 0, 57, 0
2, 353440, Control_c, 0, 64, 0
2, 353480, Note_on_c, 0, 78, 102
2, 353520, Note_on_c, 0, 74, 0
2, 353558, Note_on_c, 0, 50, 80
2, 353648, Note_on_c, 0, 76, 97
2, 353686, Control_c, 0, 64, 127
2, 353718, Note_on_c, 0, 78, 0
2, 353804, Note_on_c, 0, 56, 69
2, 353807, Note_on_c, 0, 74, 105
2, 353842, Note_on_c, 0, 76, 0
2, 353872, Note_on_c, 0, 47, 0
2, 353964, Note_on_c, 0, 76, 82
2, 353994, Note_on_c, 0, 74, 0
2, 354008, Note_on_c, 0, 50, 0
2, 354046, Note_on_c, 0, 59, 62
2, 354094, Note_on_c, 0, 56, 0
2, 354110, Note_on_c, 0, 78, 95
2, 354130, Note_on_c, 0, 76, 0
2, 354152, Note_on_c, 0, 59, 0
2, 354264, Note_on_c, 0, 76, 87
2, 354264, Note_on_c, 0, 57, 64
2, 354272, Control_c, 0, 64, 0
2, 354280, Note_on_c, 0, 49, 52
2, 354298, Note_on_c, 0, 78, 0
2, 354392, Note_on_c, 0, 69, 69
2, 354394, Note_on_c, 0, 76, 0
2, 354502, Note_on_c, 0, 71, 90
2, 354530, Note_on_c, 0, 69, 0
2, 354610, Note_on_c, 0, 73, 75
2, 354632, Note_on_c, 0, 71, 0
2, 354722, Note_on_c, 0, 74, 90
2, 354725, Note_on_c, 0, 73, 0
2, 354832, Note_on_c, 0, 76, 88
2, 354856, Note_on_c, 0, 74, 0
2, 354946, Note_on_c, 0, 78, 94
2, 354972, Note_on_c, 0, 76, 0
2, 355064, Note_on_c, 0, 80, 91
2, 355108, Note_on_c, 0, 78, 0
2, 355180, Note_on_c, 0, 80, 0
2, 355194, Note_on_c, 0, 81, 97
2, 355318, Note_on_c, 0, 81, 0
2, 355318, Note_on_c, 0, 83, 113
2, 355422, Note_on_c, 0, 83, 0
2, 355430, Note_on_c, 0, 85, 70
2, 355574, Note_on_c, 0, 85, 0
2, 355576, Note_on_c, 0, 83, 97
2, 355688, Note_on_c, 0, 81, 62
2, 355702, Note_on_c, 0, 83, 0
2, 355790, Note_on_c, 0, 80, 68
2, 355820, Note_on_c, 0, 81, 0
2, 355838, Control_c, 0, 64, 127
2, 355910, Note_on_c, 0, 57, 0
2, 355913, Note_on_c, 0, 78, 71
2, 355960, Note_on_c, 0, 80, 0
2, 356000, Note_on_c, 0, 49, 0
2, 356048, Note_on_c, 0, 78, 0
2, 356048, Note_on_c, 0, 77, 63
2, 356170, Note_on_c, 0, 57, 24
2, 356186, Note_on_c, 0, 50, 38
2, 356198, Note_on_c, 0, 77, 0
2, 356200, Note_on_c, 0, 78, 68
2, 356206, Control_c, 0, 64, 0
2, 356318, Note_on_c, 0, 80, 69
2, 356348, Note_on_c, 0, 78, 0
2, 356438, Note_on_c, 0, 80, 0
2, 356452, Note_on_c, 0, 81, 74
2, 356588, Note_on_c, 0, 81, 0
2, 356591, Note_on_c, 0, 80, 68
2, 356726, Note_on_c, 0, 80, 0
2, 356732, Note_on_c, 0, 83, 85
2, 356852, Note_on_c, 0, 83, 0
2, 356856, Note_on_c, 0, 81, 72
2, 356898, Control_c, 0, 64, 127
2, 356980, Note_on_c, 0, 80, 76
2, 356996, Note_on_c, 0, 81, 0
2, 357002, Note_on_c, 0, 50, 0
2, 357104, Note_on_c, 0, 78, 65
2, 357116, Note_on_c, 0, 80, 0
2, 357190, Note_on_c, 0, 57, 0
2, 357222, Control_c, 0, 64, 0
2, 357230, Note_on_c, 0, 61, 32
2, 357236, Note_on_c, 0, 78, 0
2, 357250, Note_on_c, 0, 76, 57
2, 357276, Note_on_c, 0, 52, 29
2, 357492, Note_on_c, 0, 76, 0
2, 357548, Note_on_c, 0, 88, 57
2, 357804, Control_c, 0, 64, 127
2, 357838, Note_on_c, 0, 85, 62
2, 357854, Note_on_c, 0, 52, 0
2, 357880, Note_on_c, 0, 61, 0
2, 357892, Note_on_c, 0, 88, 0
2, 358092, Note_on_c, 0, 81, 74
2, 358116, Note_on_c, 0, 85, 0
2, 358296, Control_c, 0, 64, 0
2, 358310, Note_on_c, 0, 81, 0
2, 358326, Note_on_c, 0, 76, 61
2, 358329, Note_on_c, 0, 61, 40
2, 358354, Note_on_c, 0, 52, 42
2, 358544, Note_on_c, 0, 76, 0
2, 358588, Note_on_c, 0, 81, 74
2, 358758, Control_c, 0, 64, 127
2, 358786, Note_on_c, 0, 52, 0
2, 358860, Note_on_c, 0, 61, 0
2, 358868, Note_on_c, 0, 76, 63
2, 358886, Note_on_c, 0, 81, 0
2, 359130, Note_on_c, 0, 73, 52
2, 359142, Note_on_c, 0, 76, 0
2, 359388, Control_c, 0, 64, 0
2, 359416, Note_on_c, 0, 76, 47
2, 359428, Note_on_c, 0, 56, 25
2, 359434, Note_on_c, 0, 62, 23
2, 359448, Note_on_c, 0, 52, 31
2, 359454, Note_on_c, 0, 73, 0
2, 359766, Note_on_c, 0, 74, 33
2, 359782, Note_on_c, 0, 76, 0
2, 360058, Note_on_c, 0, 74, 0
2, 360064, Note_on_c, 0, 73, 31
2, 360412, Note_on_c, 0, 73, 0
2, 360462, Note_on_c, 0, 71, 40
2, 360464, Control_c, 0, 64, 127
2, 360524, Note_on_c, 0, 62, 0
2, 360526, Note_on_c, 0, 52, 0
2, 360554, Note_on_c, 0, 56, 0
2, 360618, Note_on_c, 0, 71, 0
2, 361090, Note_on_c, 0, 71, 40
2, 361102, Note_on_c, 0, 68, 19
2, 361120, Note_on_c, 0, 62, 17
2, 361136, Note_on_c, 0, 64, 26
2, 361150, Note_on_c, 0, 57, 14
2, 361708, Control_c, 0, 64, 0
2, 362506, Control_c, 0, 64, 127
2, 362878, Note_on_c, 0, 62, 0
2, 363034, Note_on_c, 0, 64, 0
2, 363124, Note_on_c, 0, 68, 0
2, 363146, Note_on_c, 0, 71, 0
2, 363712, Note_on_c, 0, 61, 11
2, 363720, Note_on_c, 0, 69, 15
2, 364028, Control_c, 0, 64, 0
2, 364472, Control_c, 0, 64, 127
2, 364586, Note_on_c, 0, 57, 0
2, 364646, Note_on_c, 0, 61, 0
2, 364664, Note_on_c, 0, 69, 0
2, 365826, Control_c, 0, 64, 0
2, 366670, Note_on_c, 0, 73, 64
2, 366680, Note_on_c, 0, 57, 36
2, 366734, Note_on_c, 0, 73, 0
2, 366768, Note_on_c, 0, 57, 0
2, 366872, Note_on_c, 0, 74, 84
2, 366910, Note_on_c, 0, 73, 70
2, 366928, Note_on_c, 0, 74, 0
2, 366936, Note_on_c, 0, 64, 32
2, 366966, Note_on_c, 0, 71, 88
2, 366974, Note_on_c, 0, 73, 0
2, 367026, Note_on_c, 0, 64, 0
2, 367040, Note_on_c, 0, 73, 86
2, 367050, Note_on_c, 0, 71, 0
2, 367074, Note_on_c, 0, 59, 46
2, 367142, Note_on_c, 0, 73, 0
2, 367166, Note_on_c, 0, 59, 0
2, 367230, Note_on_c, 0, 74, 102
2, 367270, Note_on_c, 0, 74, 0
2, 367278, Note_on_c, 0, 64, 39
2, 367382, Note_on_c, 0, 64, 0
2, 367438, Note_on_c, 0, 78, 101
2, 367450, Note_on_c, 0, 61, 42
2, 367632, Note_on_c, 0, 78, 0
2, 367635, Note_on_c, 0, 76, 69
2, 367656, Note_on_c, 0, 64, 36
2, 367681, Note_on_c, 0, 76, 0
2, 367708, Note_on_c, 0, 61, 0
2, 367758, Note_on_c, 0, 64, 0
2, 367818, Note_on_c, 0, 74, 82
2, 367862, Note_on_c, 0, 74, 0
2, 367862, Note_on_c, 0, 57, 28
2, 368010, Note_on_c, 0, 73, 63
2, 368024, Note_on_c, 0, 57, 0
2, 368058, Note_on_c, 0, 73, 0
2, 368072, Note_on_c, 0, 64, 31
2, 368148, Note_on_c, 0, 64, 0
2, 368208, Note_on_c, 0, 56, 56
2, 368210, Note_on_c, 0, 71, 101
2, 368262, Note_on_c, 0, 71, 0
2, 368380, Note_on_c, 0, 73, 78
2, 368400, Note_on_c, 0, 56, 0
2, 368426, Note_on_c, 0, 64, 47
2, 368426, Note_on_c, 0, 71, 86
2, 368484, Note_on_c, 0, 70, 80
2, 368487, Note_on_c, 0, 73, 0
2, 368512, Note_on_c, 0, 71, 0
2, 368524, Note_on_c, 0, 64, 0
2, 368562, Note_on_c, 0, 71, 75
2, 368576, Note_on_c, 0, 57, 40
2, 368580, Note_on_c, 0, 70, 0
2, 368606, Note_on_c, 0, 71, 0
2, 368758, Note_on_c, 0, 73, 75
2, 368786, Note_on_c, 0, 64, 40
2, 368802, Note_on_c, 0, 73, 0
2, 368876, Note_on_c, 0, 64, 0
2, 368958, Note_on_c, 0, 76, 78
2, 368960, Note_on_c, 0, 57, 0
2, 368992, Note_on_c, 0, 59, 39
2, 369158, Note_on_c, 0, 74, 68
2, 369166, Note_on_c, 0, 76, 0
2, 369166, Note_on_c, 0, 64, 41
2, 369204, Note_on_c, 0, 74, 0
2, 369234, Note_on_c, 0, 64, 0
2, 369340, Note_on_c, 0, 73, 70
2, 369350, Note_on_c, 0, 59, 0
2, 369386, Note_on_c, 0, 62, 32
2, 369390, Note_on_c, 0, 73, 0
2, 369474, Note_on_c, 0, 62, 0
2, 369542, Note_on_c, 0, 71, 63
2, 369568, Note_on_c, 0, 64, 32
2, 369598, Note_on_c, 0, 71, 0
2, 369658, Note_on_c, 0, 64, 0
2, 369734, Note_on_c, 0, 68, 82
2, 369746, Note_on_c, 0, 61, 44
2, 369882, Note_on_c, 0, 68, 0
2, 369910, Note_on_c, 0, 61, 0
2, 369918, Note_on_c, 0, 69, 55
2, 369950, Note_on_c, 0, 64, 46
2, 369982, Note_on_c, 0, 69, 0
2, 370046, Note_on_c, 0, 64, 0
2, 370134, Note_on_c, 0, 61, 42
2, 370234, Note_on_c, 0, 61, 0
2, 370304, Note_on_c, 0, 70, 61
2, 370312, Note_on_c, 0, 64, 49
2, 370386, Note_on_c, 0, 70, 0
2, 370440, Note_on_c, 0, 64, 0
2, 370494, Note_on_c, 0, 56, 59
2, 370664, Note_on_c, 0, 56, 0
2, 370698, Note_on_c, 0, 71, 87
2, 370706, Note_on_c, 0, 64, 60
2, 370764, Note_on_c, 0, 71, 0
2, 370852, Note_on_c, 0, 64, 0
2, 370874, Note_on_c, 0, 56, 64
2, 371026, Note_on_c, 0, 56, 0
2, 371062, Note_on_c, 0, 72, 102
2, 371074, Note_on_c, 0, 64, 55
2, 371106, Note_on_c, 0, 72, 0
2, 371150, Note_on_c, 0, 64, 0
2, 371234, Note_on_c, 0, 74, 97
2, 371250, Note_on_c, 0, 73, 101
2, 371262, Note_on_c, 0, 57, 61
2, 371276, Note_on_c, 0, 74, 0
2, 371340, Note_on_c, 0, 73, 0
2, 371404, Note_on_c, 0, 57, 0
2, 371430, Note_on_c, 0, 73, 72
2, 371460, Note_on_c, 0, 64, 40
2, 371478, Note_on_c, 0, 73, 0
2, 371530, Note_on_c, 0, 64, 0
2, 371600, Note_on_c, 0, 76, 72
2, 371612, Note_on_c, 0, 74, 86
2, 371632, Note_on_c, 0, 59, 48
2, 371648, Note_on_c, 0, 76, 0
2, 371652, Note_on_c, 0, 74, 0
2, 371686, Note_on_c, 0, 59, 0
2, 371810, Note_on_c, 0, 74, 91
2, 371822, Note_on_c, 0, 64, 45
2, 371846, Note_on_c, 0, 74, 0
2, 371882, Note_on_c, 0, 64, 0
2, 372024, Note_on_c, 0, 73, 92
2, 372032, Note_on_c, 0, 57, 63
2, 372034, Note_on_c, 0, 52, 71
2, 372382, Note_on_c, 0, 57, 0
2, 372396, Note_on_c, 0, 73, 0
2, 372400, Note_on_c, 0, 52, 0
2, 372426, Note_on_c, 0, 56, 79
2, 372432, Note_on_c, 0, 71, 78
2, 372470, Note_on_c, 0, 56, 0
2, 372498, Note_on_c, 0, 71, 0
2, 372814, Note_on_c, 0, 33, 100
2, 372836, Note_on_c, 0, 37, 110
2, 372858, Note_on_c, 0, 40, 127
2, 372870, Note_on_c, 0, 33, 0
2, 372872, Note_on_c, 0, 73, 99
2, 372875, Note_on_c, 0, 45, 115
2, 372902, Note_on_c, 0, 40, 0
2, 372918, Note_on_c, 0, 37, 0
2, 372930, Control_c, 0, 64, 127
2, 372940, Note_on_c, 0, 45, 0
2, 372954, Note_on_c, 0, 69, 69
2, 373038, Note_on_c, 0, 73, 0
2, 373041, Note_on_c, 0, 64, 87
2, 373058, Note_on_c, 0, 69, 0
2, 373140, Note_on_c, 0, 64, 0
2, 373140, Note_on_c, 0, 69, 57
2, 373206, Control_c, 0, 64, 0
2, 373248, Note_on_c, 0, 73, 87
2, 373256, Note_on_c, 0, 69, 0
2, 373346, Note_on_c, 0, 69, 53
2, 373356, Note_on_c, 0, 73, 0
2, 373402, Note_on_c, 0, 69, 0
2, 373438, Note_on_c, 0, 74, 87
2, 373484, Note_on_c, 0, 74, 0
2, 373528, Note_on_c, 0, 71, 95
2, 373582, Note_on_c, 0, 71, 0
2, 373588, Note_on_c, 0, 57, 64
2, 373596, Note_on_c, 0, 61, 85
2, 373630, Note_on_c, 0, 76, 92
2, 373633, Note_on_c, 0, 64, 93
2, 373656, Note_on_c, 0, 57, 0
2, 373656, Note_on_c, 0, 69, 107
2, 373684, Note_on_c, 0, 61, 0
2, 373687, Note_on_c, 0, 64, 0
2, 373722, Note_on_c, 0, 73, 83
2, 373728, Control_c, 0, 64, 127
2, 373734, Note_on_c, 0, 69, 0
2, 373742, Note_on_c, 0, 76, 0
2, 373824, Note_on_c, 0, 76, 74
2, 373840, Note_on_c, 0, 73, 0
2, 373924, Note_on_c, 0, 73, 72
2, 373946, Note_on_c, 0, 76, 0
2, 373974, Control_c, 0, 64, 0
2, 374038, Note_on_c, 0, 73, 0
2, 374040, Note_on_c, 0, 78, 94
2, 374146, Note_on_c, 0, 76, 77
2, 374202, Note_on_c, 0, 78, 0
2, 374242, Note_on_c, 0, 74, 84
2, 374264, Note_on_c, 0, 76, 0
2, 374324, Note_on_c, 0, 73, 78
2, 374350, Note_on_c, 0, 74, 0
2, 374364, Note_on_c, 0, 40, 102
2, 374390, Note_on_c, 0, 44, 100
2, 374426, Note_on_c, 0, 71, 88
2, 374426, Note_on_c, 0, 47, 117
2, 374432, Note_on_c, 0, 73, 0
2, 374444, Note_on_c, 0, 52, 127
2, 374472, Note_on_c, 0, 40, 0
2, 374475, Note_on_c, 0, 71, 0
2, 374478, Note_on_c, 0, 44, 0
2, 374482, Control_c, 0, 64, 127
2, 374504, Note_on_c, 0, 52, 0
2, 374508, Note_on_c, 0, 47, 0
2, 374518, Note_on_c, 0, 68, 78
2, 374640, Note_on_c, 0, 64, 98
2, 374645, Note_on_c, 0, 68, 0
2, 374728, Note_on_c, 0, 68, 62
2, 374752, Note_on_c, 0, 64, 0
2, 374788, Control_c, 0, 64, 0
2, 374840, Note_on_c, 0, 71, 93
2, 374848, Note_on_c, 0, 68, 0
2, 374910, Note_on_c, 0, 68, 76
2, 374914, Note_on_c, 0, 71, 0
2, 375014, Note_on_c, 0, 68, 0
2, 375036, Note_on_c, 0, 73, 87
2, 375104, Note_on_c, 0, 73, 0
2, 375122, Note_on_c, 0, 69, 77
2, 375134, Note_on_c, 0, 52, 98
2, 375154, Note_on_c, 0, 56, 95
2, 375206, Note_on_c, 0, 59, 91
2, 375222, Note_on_c, 0, 69, 0
2, 375238, Note_on_c, 0, 64, 123
2, 375240, Note_on_c, 0, 74, 114
2, 375250, Note_on_c, 0, 52, 0
2, 375262, Note_on_c, 0, 56, 0
2, 375290, Note_on_c, 0, 59, 0
2, 375296, Control_c, 0, 64, 127
2, 375310, Note_on_c, 0, 64, 0
2, 375334, Note_on_c, 0, 71, 110
2, 375350, Note_on_c, 0, 74, 0
2, 375428, Note_on_c, 0, 74, 95
2, 375450, Note_on_c, 0, 71, 0
2, 375522, Note_on_c, 0, 71, 95
2, 375548, Note_on_c, 0, 74, 0
2, 375620, Note_on_c, 0, 71, 0
2, 375634, Note_on_c, 0, 76, 99
2, 375664, Control_c, 0, 64, 0
2, 375732, Note_on_c, 0, 74, 98
2, 375758, Note_on_c, 0, 76, 0
2, 375826, Note_on_c, 0, 73, 85
2, 375844, Note_on_c, 0, 74, 0
2, 375926, Note_on_c, 0, 71, 90
2, 375966, Note_on_c, 0, 73, 0
2, 376024, Note_on_c, 0, 42, 108
2, 376032, Note_on_c, 0, 69, 74
2, 376040, Note_on_c, 0, 71, 0
2, 376060, Note_on_c, 0, 42, 0
2, 376108, Note_on_c, 0, 69, 0
2, 376128, Note_on_c, 0, 73, 69
2, 376224, Note_on_c, 0, 54, 84
2, 376234, Note_on_c, 0, 71, 91
2, 376260, Note_on_c, 0, 73, 0
2, 376270, Note_on_c, 0, 54, 0
2, 376304, Note_on_c, 0, 71, 0
2, 376334, Note_on_c, 0, 69, 57
2, 376416, Note_on_c, 0, 69, 0
2, 376422, Note_on_c, 0, 44, 101
2, 376446, Note_on_c, 0, 71, 95
2, 376464, Note_on_c, 0, 44, 0
2, 376510, Note_on_c, 0, 71, 0
2, 376528, Note_on_c, 0, 74, 80
2, 376606, Note_on_c, 0, 56, 80
2, 376622, Note_on_c, 0, 73, 85
2, 376651, Note_on_c, 0, 74, 0
2, 376655, Note_on_c, 0, 56, 0
2, 376714, Note_on_c, 0, 71, 99
2, 376728, Note_on_c, 0, 73, 0
2, 376820, Note_on_c, 0, 71, 0
2, 376820, Note_on_c, 0, 57, 101
2, 376823, Note_on_c, 0, 73, 88
2, 376878, Note_on_c, 0, 57, 0
2, 376928, Note_on_c, 0, 76, 103
2, 376946, Note_on_c, 0, 73, 0
2, 377018, Note_on_c, 0, 61, 85
2, 377026, Note_on_c, 0, 81, 92
2, 377046, Note_on_c, 0, 76, 0
2, 377066, Note_on_c, 0, 61, 0
2, 377118, Note_on_c, 0, 76, 80
2, 377154, Note_on_c, 0, 81, 0
2, 377218, Note_on_c, 0, 78, 97
2, 377226, Note_on_c, 0, 62, 68
2, 377258, Note_on_c, 0, 76, 0
2, 377276, Note_on_c, 0, 62, 0
2, 377340, Note_on_c, 0, 81, 63
2, 377362, Note_on_c, 0, 78, 0
2, 377388, Note_on_c, 0, 81, 0
2, 377416, Note_on_c, 0, 71, 92
2, 377422, Note_on_c, 0, 56, 68
2, 377465, Note_on_c, 0, 71, 0
2, 377470, Note_on_c, 0, 56, 0
2, 377514, Note_on_c, 0, 74, 90
2, 377614, Note_on_c, 0, 74, 0
2, 377620, Note_on_c, 0, 57, 69
2, 377624, Note_on_c, 0, 73, 75
2, 377670, Note_on_c, 0, 57, 0
2, 377710, Note_on_c, 0, 76, 72
2, 377720, Note_on_c, 0, 73, 0
2, 377772, Note_on_c, 0, 76, 0
2, 377810, Note_on_c, 0, 69, 47
2, 377810, Note_on_c, 0, 54, 91
2, 377852, Note_on_c, 0, 54, 0
2, 377880, Note_on_c, 0, 73, 54
2, 377886, Note_on_c, 0, 69, 0
2, 377986, Note_on_c, 0, 71, 84
2, 378002, Note_on_c, 0, 73, 0
2, 378005, Note_on_c, 0, 50, 75
2, 378044, Note_on_c, 0, 71, 0
2, 378054, Note_on_c, 0, 50, 0
2, 378082, Note_on_c, 0, 74, 83
2, 378138, Note_on_c, 0, 74, 0
2, 378182, Note_on_c, 0, 52, 90
2, 378192, Note_on_c, 0, 68, 65
2, 378224, Note_on_c, 0, 52, 0
2, 378258, Note_on_c, 0, 68, 0
2, 378288, Note_on_c, 0, 71, 86
2, 378364, Note_on_c, 0, 71, 0
2, 378367, Note_on_c, 0, 69, 79
2, 378376, Note_on_c, 0, 45, 67
2, 378414, Note_on_c, 0, 69, 0
2, 378424, Note_on_c, 0, 45, 0
2, 378464, Note_on_c, 0, 64, 68
2, 378562, Note_on_c, 0, 64, 0
2, 378566, Note_on_c, 0, 61, 76
2, 378658, Note_on_c, 0, 33, 98
2, 378666, Note_on_c, 0, 64, 76
2, 378674, Note_on_c, 0, 61, 0
2, 378692, Note_on_c, 0, 37, 85
2, 378730, Note_on_c, 0, 40, 116
2, 378744, Note_on_c, 0, 45, 110
2, 378758, Note_on_c, 0, 33, 0
2, 378770, Note_on_c, 0, 69, 98
2, 378780, Note_on_c, 0, 40, 0
2, 378782, Note_on_c, 0, 64, 0
2, 378796, Note_on_c, 0, 37, 0
2, 378806, Note_on_c, 0, 45, 0
2, 378814, Control_c, 0, 64, 127
2, 378974, Note_on_c, 0, 69, 0
2, 379244, Control_c, 0, 64, 0
2, 379380, Note_on_c, 0, 69, 65
2, 379400, Note_on_c, 0, 57, 40
2, 379470, Note_on_c, 0, 69, 0
2, 379490, Note_on_c, 0, 71, 74
2, 379576, Note_on_c, 0, 73, 71
2, 379580, Note_on_c, 0, 71, 0
2, 379624, Note_on_c, 0, 64, 41
2, 379686, Note_on_c, 0, 73, 0
2, 379686, Note_on_c, 0, 74, 88
2, 379786, Note_on_c, 0, 76, 87
2, 379796, Note_on_c, 0, 64, 0
2, 379808, Note_on_c, 0, 61, 52
2, 379830, Note_on_c, 0, 74, 0
2, 379872, Note_on_c, 0, 78, 100
2, 379916, Note_on_c, 0, 76, 0
2, 379980, Note_on_c, 0, 80, 95
2, 379988, Note_on_c, 0, 57, 0
2, 380022, Note_on_c, 0, 64, 53
2, 380050, Note_on_c, 0, 78, 0
2, 380070, Note_on_c, 0, 81, 100
2, 380106, Note_on_c, 0, 80, 0
2, 380146, Note_on_c, 0, 61, 0
2, 380170, Note_on_c, 0, 64, 0
2, 380182, Note_on_c, 0, 80, 87
2, 380190, Note_on_c, 0, 57, 41
2, 380254, Note_on_c, 0, 81, 0
2, 380294, Note_on_c, 0, 78, 92
2, 380382, Note_on_c, 0, 80, 0
2, 380398, Note_on_c, 0, 77, 88
2, 380408, Note_on_c, 0, 66, 38
2, 380418, Note_on_c, 0, 78, 0
2, 380482, Note_on_c, 0, 78, 83
2, 380500, Note_on_c, 0, 77, 0
2, 380538, Note_on_c, 0, 66, 0
2, 380586, Note_on_c, 0, 77, 79
2, 380592, Note_on_c, 0, 62, 41
2, 380600, Note_on_c, 0, 78, 0
2, 380690, Note_on_c, 0, 77, 0
2, 380694, Note_on_c, 0, 78, 64
2, 380770, Note_on_c, 0, 57, 0
2, 380784, Note_on_c, 0, 66, 40
2, 380790, Note_on_c, 0, 77, 61
2, 380800, Note_on_c, 0, 78, 0
2, 380884, Note_on_c, 0, 77, 0
2, 380898, Note_on_c, 0, 78, 67
2, 380922, Note_on_c, 0, 62, 0
2, 380960, Note_on_c, 0, 66, 0
2, 381002, Note_on_c, 0, 78, 0
2, 381010, Note_on_c, 0, 57, 41
2, 381018, Note_on_c, 0, 81, 79
2, 381106, Note_on_c, 0, 81, 0
2, 381118, Note_on_c, 0, 80, 77
2, 381188, Note_on_c, 0, 80, 0
2, 381208, Note_on_c, 0, 66, 39
2, 381211, Note_on_c, 0, 81, 65
2, 381302, Note_on_c, 0, 81, 0
2, 381318, Note_on_c, 0, 80, 76
2, 381376, Note_on_c, 0, 66, 0
2, 381386, Note_on_c, 0, 80, 0
2, 381432, Note_on_c, 0, 83, 110
2, 381444, Note_on_c, 0, 62, 36
2, 381532, Note_on_c, 0, 83, 0
2, 381540, Note_on_c, 0, 81, 78
2, 381594, Note_on_c, 0, 57, 0
2, 381630, Note_on_c, 0, 80, 82
2, 381638, Note_on_c, 0, 66, 37
2, 381642, Note_on_c, 0, 81, 0
2, 381720, Note_on_c, 0, 62, 0
2, 381736, Note_on_c, 0, 78, 85
2, 381739, Note_on_c, 0, 80, 0
2, 381776, Note_on_c, 0, 78, 0
2, 381800, Note_on_c, 0, 66, 0
2, 381846, Note_on_c, 0, 78, 76
2, 381876, Note_on_c, 0, 57, 34
2, 381960, Note_on_c, 0, 76, 68
2, 381998, Note_on_c, 0, 78, 0
2, 382022, Note_on_c, 0, 76, 0
2, 382062, Note_on_c, 0, 75, 69
2, 382072, Note_on_c, 0, 64, 41
2, 382126, Note_on_c, 0, 75, 0
2, 382160, Note_on_c, 0, 64, 0
2, 382164, Note_on_c, 0, 76, 75
2, 382224, Note_on_c, 0, 76, 0
2, 382274, Note_on_c, 0, 75, 67
2, 382292, Note_on_c, 0, 61, 45
2, 382340, Note_on_c, 0, 75, 0
2, 382350, Note_on_c, 0, 57, 0
2, 382365, Note_on_c, 0, 76, 76
2, 382384, Note_on_c, 0, 61, 0
2, 382438, Note_on_c, 0, 76, 0
2, 382484, Note_on_c, 0, 64, 40
2, 382496, Note_on_c, 0, 75, 54
2, 382548, Note_on_c, 0, 64, 0
2, 382560, Note_on_c, 0, 75, 0
2, 382566, Note_on_c, 0, 76, 57
2, 382614, Note_on_c, 0, 76, 0
2, 382672, Note_on_c, 0, 45, 85
2, 382686, Note_on_c, 0, 49, 101
2, 382716, Note_on_c, 0, 52, 116
2, 382724, Note_on_c, 0, 57, 117
2, 382728, Note_on_c, 0, 45, 0
2, 382742, Note_on_c, 0, 76, 102
2, 382756, Note_on_c, 0, 52, 0
2, 382762, Control_c, 0, 64, 127
2, 382794, Note_on_c, 0, 49, 0
2, 382828, Note_on_c, 0, 57, 0
2, 382856, Note_on_c, 0, 81, 97
2, 382900, Note_on_c, 0, 76, 0
2, 382942, Note_on_c, 0, 85, 87
2, 382958, Note_on_c, 0, 81, 0
2, 383044, Note_on_c, 0, 83, 122
2, 383100, Control_c, 0, 64, 0
2, 383120, Note_on_c, 0, 85, 0
2, 383146, Note_on_c, 0, 83, 0
2, 383154, Note_on_c, 0, 81, 88
2, 383252, Note_on_c, 0, 80, 95
2, 383290, Note_on_c, 0, 81, 0
2, 383348, Note_on_c, 0, 78, 98
2, 383412, Note_on_c, 0, 80, 0
2, 383460, Note_on_c, 0, 76, 95
2, 383460, Note_on_c, 0, 47, 83
2, 383480, Note_on_c, 0, 50, 92
2, 383498, Note_on_c, 0, 78, 0
2, 383520, Note_on_c, 0, 56, 94
2, 383558, Note_on_c, 0, 47, 0
2, 383558, Note_on_c, 0, 59, 123
2, 383568, Note_on_c, 0, 74, 115
2, 383570, Note_on_c, 0, 76, 0
2, 383594, Note_on_c, 0, 50, 0
2, 383594, Control_c, 0, 64, 127
2, 383618, Note_on_c, 0, 56, 0
2, 383644, Note_on_c, 0, 59, 0
2, 383686, Note_on_c, 0, 80, 98
2, 383742, Note_on_c, 0, 74, 0
2, 383784, Note_on_c, 0, 83, 127
2, 383808, Note_on_c, 0, 80, 0
2, 383870, Control_c, 0, 64, 0
2, 383892, Note_on_c, 0, 81, 107
2, 383978, Note_on_c, 0, 83, 0
2, 383984, Note_on_c, 0, 80, 99
2, 384030, Note_on_c, 0, 81, 0
2, 384092, Note_on_c, 0, 78, 97
2, 384180, Note_on_c, 0, 80, 0
2, 384198, Note_on_c, 0, 76, 85
2, 384226, Note_on_c, 0, 78, 0
2, 384282, Note_on_c, 0, 49, 61
2, 384292, Note_on_c, 0, 52, 76
2, 384296, Note_on_c, 0, 74, 110
2, 384330, Note_on_c, 0, 76, 0
2, 384344, Note_on_c, 0, 57, 72
2, 384388, Note_on_c, 0, 52, 0
2, 384396, Note_on_c, 0, 73, 101
2, 384404, Note_on_c, 0, 61, 100
2, 384408, Note_on_c, 0, 49, 0
2, 384408, Control_c, 0, 64, 127
2, 384410, Note_on_c, 0, 74, 0
2, 384458, Note_on_c, 0, 57, 0
2, 384502, Note_on_c, 0, 76, 62
2, 384518, Note_on_c, 0, 74, 59
2, 384534, Note_on_c, 0, 73, 0
2, 384546, Control_c, 0, 64, 0
2, 384550, Note_on_c, 0, 61, 0
2, 384564, Note_on_c, 0, 74, 0
2, 384594, Note_on_c, 0, 81, 101
2, 384624, Note_on_c, 0, 76, 0
2, 384684, Note_on_c, 0, 50, 80
2, 384712, Note_on_c, 0, 80, 94
2, 384724, Note_on_c, 0, 54, 77
2, 384750, Note_on_c, 0, 58, 37
2, 384772, Note_on_c, 0, 59, 97
2, 384784, Note_on_c, 0, 81, 0
2, 384787, Note_on_c, 0, 53, 51
2, 384790, Note_on_c, 0, 54, 0
2, 384804, Note_on_c, 0, 50, 0
2, 384804, Note_on_c, 0, 62, 105
2, 384812, Note_on_c, 0, 78, 99
2, 384823, Note_on_c, 0, 58, 0
2, 384838, Control_c, 0, 64, 127
2, 384850, Note_on_c, 0, 53, 0
2, 384874, Note_on_c, 0, 59, 0
2, 384884, Control_c, 0, 64, 0
2, 384886, Note_on_c, 0, 80, 0
2, 384916, Note_on_c, 0, 62, 0
2, 384924, Note_on_c, 0, 76, 88
2, 384984, Note_on_c, 0, 78, 0
2, 385022, Note_on_c, 0, 74, 82
2, 385044, Note_on_c, 0, 76, 0
2, 385052, Note_on_c, 0, 52, 92
2, 385082, Note_on_c, 0, 56, 80
2, 385118, Note_on_c, 0, 73, 82
2, 385144, Note_on_c, 0, 74, 0
2, 385150, Note_on_c, 0, 59, 75
2, 385170, Note_on_c, 0, 52, 0
2, 385178, Note_on_c, 0, 64, 109
2, 385214, Note_on_c, 0, 59, 0
2, 385217, Note_on_c, 0, 56, 0
2, 385220, Note_on_c, 0, 71, 106
2, 385242, Note_on_c, 0, 64, 0
2, 385252, Control_c, 0, 64, 127
2, 385278, Note_on_c, 0, 73, 0
2, 385314, Note_on_c, 0, 69, 79
2, 385328, Note_on_c, 0, 71, 0
2, 385376, Control_c, 0, 64, 0
2, 385402, Note_on_c, 0, 68, 86
2, 385440, Note_on_c, 0, 69, 0
2, 385504, Note_on_c, 0, 66, 83
2, 385542, Note_on_c, 0, 68, 0
2, 385600, Note_on_c, 0, 64, 95
2, 385624, Note_on_c, 0, 66, 0
2, 385642, Note_on_c, 0, 64, 0
2, 385678, Note_on_c, 0, 62, 61
2, 385766, Note_on_c, 0, 62, 0
2, 385778, Note_on_c, 0, 61, 52
2, 385888, Note_on_c, 0, 61, 0
2, 385896, Note_on_c, 0, 59, 37
2, 385968, Note_on_c, 0, 59, 0
2, 386004, Note_on_c, 0, 73, 65
2, 386036, Note_on_c, 0, 57, 45
2, 386116, Note_on_c, 0, 73, 0
2, 386228, Note_on_c, 0, 74, 70
2, 386250, Note_on_c, 0, 64, 41
2, 386260, Note_on_c, 0, 73, 68
2, 386270, Note_on_c, 0, 74, 0
2, 386318, Note_on_c, 0, 73, 0
2, 386321, Note_on_c, 0, 71, 85
2, 386330, Note_on_c, 0, 64, 0
2, 386386, Note_on_c, 0, 57, 0
2, 386394, Note_on_c, 0, 73, 75
2, 386398, Note_on_c, 0, 71, 0
2, 386436, Note_on_c, 0, 59, 33
2, 386470, Note_on_c, 0, 73, 0
2, 386604, Note_on_c, 0, 74, 91
2, 386624, Note_on_c, 0, 64, 45
2, 386642, Note_on_c, 0, 74, 0
2, 386726, Note_on_c, 0, 64, 0
2, 386816, Note_on_c, 0, 78, 83
2, 386832, Note_on_c, 0, 61, 33
2, 386962, Note_on_c, 0, 59, 0
2, 387036, Note_on_c, 0, 76, 64
2, 387046, Note_on_c, 0, 78, 0
2, 387066, Note_on_c, 0, 64, 31
2, 387086, Note_on_c, 0, 76, 0
2, 387166, Note_on_c, 0, 64, 0
2, 387238, Note_on_c, 0, 74, 64
2, 387250, Note_on_c, 0, 57, 25
2, 387280, Note_on_c, 0, 61, 0
2, 387288, Note_on_c, 0, 74, 0
2, 387446, Note_on_c, 0, 73, 48
2, 387456, Note_on_c, 0, 64, 44
2, 387506, Note_on_c, 0, 73, 0
2, 387562, Note_on_c, 0, 64, 0
2, 387642, Note_on_c, 0, 56, 41
2, 387648, Note_on_c, 0, 71, 65
2, 387666, Note_on_c, 0, 57, 0
2, 387708, Note_on_c, 0, 71, 0
2, 387848, Note_on_c, 0, 73, 52
2, 387872, Note_on_c, 0, 64, 40
2, 387880, Note_on_c, 0, 71, 68
2, 387904, Note_on_c, 0, 73, 0
2, 387940, Note_on_c, 0, 71, 0
2, 387940, Note_on_c, 0, 70, 65
2, 387962, Note_on_c, 0, 64, 0
2, 387998, Note_on_c, 0, 70, 0
2, 388040, Note_on_c, 0, 71, 70
2, 388058, Note_on_c, 0, 57, 42
2, 388084, Note_on_c, 0, 56, 0
2, 388104, Note_on_c, 0, 71, 0
2, 388246, Note_on_c, 0, 73, 62
2, 388262, Note_on_c, 0, 64, 39
2, 388292, Note_on_c, 0, 73, 0
2, 388348, Note_on_c, 0, 64, 0
2, 388456, Note_on_c, 0, 76, 72
2, 388490, Note_on_c, 0, 59, 29
2, 388495, Note_on_c, 0, 57, 0
2, 388662, Note_on_c, 0, 76, 0
2, 388674, Note_on_c, 0, 74, 54
2, 388680, Note_on_c, 0, 64, 38
2, 388726, Note_on_c, 0, 74, 0
2, 388762, Note_on_c, 0, 64, 0
2, 388870, Note_on_c, 0, 56, 34
2, 388874, Note_on_c, 0, 73, 44
2, 388934, Note_on_c, 0, 73, 0
2, 388952, Note_on_c, 0, 59, 0
2, 389070, Note_on_c, 0, 71, 62
2, 389082, Note_on_c, 0, 64, 39
2, 389122, Note_on_c, 0, 71, 0
2, 389164, Note_on_c, 0, 64, 0
2, 389258, Note_on_c, 0, 68, 72
2, 389286, Note_on_c, 0, 54, 45
2, 389296, Note_on_c, 0, 56, 0
2, 389446, Note_on_c, 0, 68, 0
2, 389456, Note_on_c, 0, 69, 56
2, 389506, Note_on_c, 0, 64, 28
2, 389516, Note_on_c, 0, 69, 0
2, 389608, Note_on_c, 0, 64, 0
2, 389680, Note_on_c, 0, 56, 47
2, 389690, Note_on_c, 0, 54, 0
2, 389876, Note_on_c, 0, 71, 88
2, 389908, Note_on_c, 0, 64, 28
2, 389922, Note_on_c, 0, 71, 0
2, 389992, Note_on_c, 0, 64, 0
2, 390102, Note_on_c, 0, 57, 39
2, 390150, Note_on_c, 0, 56, 0
2, 390258, Note_on_c, 0, 72, 59
2, 390296, Note_on_c, 0, 73, 56
2, 390310, Note_on_c, 0, 72, 0
2, 390322, Note_on_c, 0, 64, 33
2, 390356, Note_on_c, 0, 73, 0
2, 390392, Note_on_c, 0, 64, 0
2, 390508, Note_on_c, 0, 50, 53
2, 390560, Note_on_c, 0, 57, 0
2, 390662, Note_on_c, 0, 76, 47
2, 390702, Note_on_c, 0, 74, 69
2, 390708, Note_on_c, 0, 59, 45
2, 390726, Note_on_c, 0, 76, 0
2, 390750, Note_on_c, 0, 74, 0
2, 390890, Note_on_c, 0, 50, 0
2, 390895, Note_on_c, 0, 52, 70
2, 390910, Note_on_c, 0, 59, 0
2, 391080, Note_on_c, 0, 74, 69
2, 391092, Note_on_c, 0, 57, 64
2, 391102, Note_on_c, 0, 73, 76
2, 391138, Note_on_c, 0, 74, 0
2, 391144, Note_on_c, 0, 52, 0
2, 391236, Note_on_c, 0, 73, 0
2, 391304, Note_on_c, 0, 52, 88
2, 391308, Note_on_c, 0, 57, 0
2, 391430, Note_on_c, 0, 73, 64
2, 391478, Note_on_c, 0, 71, 100
2, 391484, Note_on_c, 0, 52, 0
2, 391484, Note_on_c, 0, 56, 74
2, 391534, Note_on_c, 0, 56, 0
2, 391538, Note_on_c, 0, 71, 0
2, 391544, Note_on_c, 0, 73, 0
2, 391712, Note_on_c, 0, 68, 63
2, 391718, Note_on_c, 0, 71, 85
2, 391738, Note_on_c, 0, 64, 55
2, 391738, Note_on_c, 0, 57, 45
2, 391741, Note_on_c, 0, 62, 48
2, 391982, Note_on_c, 0, 72, 57
2, 391992, Note_on_c, 0, 71, 0
2, 392216, Note_on_c, 0, 62, 0
2, 392224, Note_on_c, 0, 68, 0
2, 392246, Note_on_c, 0, 72, 0
2, 392258, Note_on_c, 0, 73, 37
2, 392268, Note_on_c, 0, 61, 26
2, 392274, Note_on_c, 0, 69, 25
2, 392414, Note_on_c, 0, 64, 0
2, 392478, Note_on_c, 0, 57, 0
2, 392516, Note_on_c, 0, 61, 0
2, 392520, Control_c, 0, 64, 127
2, 392564, Note_on_c, 0, 73, 0
2, 392604, Note_on_c, 0, 69, 0
2, 392694, Note_on_c, 0, 45, 113
2, 392700, Note_on_c, 0, 73, 102
2, 392776, Note_on_c, 0, 49, 98
2, 392782, Note_on_c, 0, 69, 87
2, 392842, Note_on_c, 0, 45, 0
2, 392854, Note_on_c, 0, 73, 0
2, 392898, Note_on_c, 0, 52, 90
2, 392906, Note_on_c, 0, 76, 90
2, 392926, Note_on_c, 0, 69, 0
2, 392934, Note_on_c, 0, 49, 0
2, 392986, Note_on_c, 0, 57, 70
2, 392992, Note_on_c, 0, 73, 95
2, 393000, Note_on_c, 0, 52, 0
2, 393030, Note_on_c, 0, 76, 0
2, 393096, Note_on_c, 0, 74, 116
2, 393100, Note_on_c, 0, 47, 116
2, 393104, Control_c, 0, 64, 0
2, 393120, Note_on_c, 0, 57, 0
2, 393148, Note_on_c, 0, 73, 0
2, 393176, Note_on_c, 0, 50, 106
2, 393186, Note_on_c, 0, 71, 106
2, 393206, Note_on_c, 0, 74, 0
2, 393248, Note_on_c, 0, 47, 0
2, 393288, Control_c, 0, 64, 127
2, 393300, Note_on_c, 0, 78, 101
2, 393304, Note_on_c, 0, 56, 84
2, 393328, Note_on_c, 0, 71, 0
2, 393350, Note_on_c, 0, 50, 0
2, 393382, Note_on_c, 0, 59, 79
2, 393402, Note_on_c, 0, 74, 95
2, 393430, Note_on_c, 0, 56, 0
2, 393458, Control_c, 0, 64, 0
2, 393462, Note_on_c, 0, 78, 0
2, 393486, Note_on_c, 0, 49, 111
2, 393494, Note_on_c, 0, 76, 100
2, 393504, Note_on_c, 0, 74, 0
2, 393532, Note_on_c, 0, 59, 0
2, 393572, Note_on_c, 0, 73, 95
2, 393590, Note_on_c, 0, 52, 110
2, 393598, Note_on_c, 0, 76, 0
2, 393642, Control_c, 0, 64, 127
2, 393654, Note_on_c, 0, 49, 0
2, 393670, Note_on_c, 0, 57, 80
2, 393672, Note_on_c, 0, 73, 0
2, 393686, Note_on_c, 0, 81, 102
2, 393734, Note_on_c, 0, 52, 0
2, 393740, Note_on_c, 0, 61, 88
2, 393776, Note_on_c, 0, 57, 0
2, 393778, Note_on_c, 0, 76, 84
2, 393814, Note_on_c, 0, 81, 0
2, 393840, Note_on_c, 0, 61, 0
2, 393858, Control_c, 0, 64, 0
2, 393866, Note_on_c, 0, 50, 109
2, 393872, Note_on_c, 0, 80, 106
2, 393902, Note_on_c, 0, 76, 0
2, 393956, Note_on_c, 0, 54, 86
2, 393956, Note_on_c, 0, 78, 101
2, 394032, Note_on_c, 0, 80, 0
2, 394037, Note_on_c, 0, 50, 0
2, 394046, Note_on_c, 0, 59, 91
2, 394056, Control_c, 0, 64, 127
2, 394062, Note_on_c, 0, 76, 92
2, 394126, Note_on_c, 0, 54, 0
2, 394136, Note_on_c, 0, 78, 0
2, 394152, Note_on_c, 0, 74, 107
2, 394160, Note_on_c, 0, 76, 0
2, 394170, Note_on_c, 0, 62, 85
2, 394186, Note_on_c, 0, 59, 0
2, 394256, Control_c, 0, 64, 0
2, 394260, Note_on_c, 0, 73, 105
2, 394274, Note_on_c, 0, 74, 0
2, 394274, Note_on_c, 0, 52, 114
2, 394277, Note_on_c, 0, 62, 0
2, 394360, Note_on_c, 0, 76, 92
2, 394380, Note_on_c, 0, 57, 98
2, 394424, Note_on_c, 0, 52, 0
2, 394424, Note_on_c, 0, 73, 0
2, 394458, Note_on_c, 0, 69, 85
2, 394458, Note_on_c, 0, 61, 83
2, 394472, Control_c, 0, 64, 127
2, 394502, Note_on_c, 0, 76, 0
2, 394504, Note_on_c, 0, 57, 0
2, 394518, Note_on_c, 0, 64, 90
2, 394534, Note_on_c, 0, 73, 61
2, 394558, Note_on_c, 0, 64, 0
2, 394561, Note_on_c, 0, 61, 0
2, 394598, Note_on_c, 0, 69, 0
2, 394656, Note_on_c, 0, 71, 114
2, 394668, Note_on_c, 0, 40, 127
2, 394708, Note_on_c, 0, 47, 33
2, 394710, Note_on_c, 0, 73, 0
2, 394750, Note_on_c, 0, 44, 77
2, 394754, Note_on_c, 0, 74, 99
2, 394774, Note_on_c, 0, 47, 0
2, 394790, Note_on_c, 0, 71, 0
2, 394842, Note_on_c, 0, 40, 0
2, 394842, Note_on_c, 0, 47, 95
2, 394872, Note_on_c, 0, 68, 88
2, 394878, Note_on_c, 0, 74, 0
2, 394916, Note_on_c, 0, 44, 0
2, 394916, Note_on_c, 0, 52, 88
2, 394942, Note_on_c, 0, 47, 0
2, 394974, Note_on_c, 0, 71, 98
2, 394992, Note_on_c, 0, 68, 0
2, 394994, Control_c, 0, 64, 0
2, 395034, Note_on_c, 0, 52, 0
2, 395052, Note_on_c, 0, 45, 111
2, 395068, Note_on_c, 0, 69, 93
2, 395130, Note_on_c, 0, 71, 0
2, 395152, Note_on_c, 0, 64, 102
2, 395162, Note_on_c, 0, 69, 0
2, 395164, Note_on_c, 0, 49, 94
2, 395208, Control_c, 0, 64, 127
2, 395256, Note_on_c, 0, 52, 103
2, 395264, Note_on_c, 0, 61, 101
2, 395282, Note_on_c, 0, 64, 0
2, 395298, Note_on_c, 0, 45, 0
2, 395366, Note_on_c, 0, 49, 0
2, 395372, Note_on_c, 0, 64, 94
2, 395372, Note_on_c, 0, 57, 85
2, 395406, Note_on_c, 0, 61, 0
2, 395424, Note_on_c, 0, 52, 0
2, 395480, Note_on_c, 0, 57, 0
2, 395496, Note_on_c, 0, 45, 109
2, 395504, Note_on_c, 0, 69, 103
2, 395512, Note_on_c, 0, 64, 0
2, 395544, Note_on_c, 0, 45, 0
2, 395668, Note_on_c, 0, 69, 0
2, 395870, Control_c, 0, 64, 0
2, 396072, Note_on_c, 0, 69, 62
2, 396075, Note_on_c, 0, 57, 53
2, 396162, Note_on_c, 0, 69, 0
2, 396174, Note_on_c, 0, 71, 72
2, 396272, Note_on_c, 0, 73, 67
2, 396274, Note_on_c, 0, 71, 0
2, 396312, Note_on_c, 0, 64, 39
2, 396332, Note_on_c, 0, 73, 0
2, 396370, Note_on_c, 0, 74, 86
2, 396420, Note_on_c, 0, 74, 0
2, 396444, Note_on_c, 0, 64, 0
2, 396480, Note_on_c, 0, 76, 82
2, 396486, Note_on_c, 0, 61, 49
2, 396564, Note_on_c, 0, 78, 95
2, 396582, Note_on_c, 0, 76, 0
2, 396644, Note_on_c, 0, 57, 0
2, 396676, Note_on_c, 0, 80, 92
2, 396700, Note_on_c, 0, 64, 60
2, 396740, Note_on_c, 0, 78, 0
2, 396758, Note_on_c, 0, 81, 101
2, 396790, Note_on_c, 0, 80, 0
2, 396838, Control_c, 0, 64, 127
2, 396864, Note_on_c, 0, 64, 0
2, 396880, Note_on_c, 0, 80, 84
2, 396896, Note_on_c, 0, 57, 53
2, 396914, Control_c, 0, 64, 0
2, 396924, Note_on_c, 0, 81, 0
2, 396988, Note_on_c, 0, 61, 0
2, 397006, Note_on_c, 0, 78, 86
2, 397084, Note_on_c, 0, 80, 0
2, 397110, Note_on_c, 0, 77, 87
2, 397116, Note_on_c, 0, 66, 32
2, 397118, Note_on_c, 0, 78, 0
2, 397190, Note_on_c, 0, 78, 78
2, 397194, Note_on_c, 0, 77, 0
2, 397272, Note_on_c, 0, 66, 0
2, 397292, Note_on_c, 0, 77, 82
2, 397302, Note_on_c, 0, 62, 48
2, 397312, Note_on_c, 0, 78, 0
2, 397390, Note_on_c, 0, 78, 83
2, 397398, Note_on_c, 0, 77, 0
2, 397488, Note_on_c, 0, 78, 0
2, 397488, Note_on_c, 0, 77, 80
2, 397498, Note_on_c, 0, 57, 0
2, 397498, Note_on_c, 0, 66, 45
2, 397596, Note_on_c, 0, 78, 87
2, 397599, Note_on_c, 0, 77, 0
2, 397662, Note_on_c, 0, 66, 0
2, 397708, Note_on_c, 0, 78, 0
2, 397708, Note_on_c, 0, 81, 102
2, 397730, Note_on_c, 0, 62, 0
2, 397730, Note_on_c, 0, 57, 44
2, 397812, Note_on_c, 0, 80, 94
2, 397826, Note_on_c, 0, 81, 0
2, 397904, Note_on_c, 0, 81, 83
2, 397914, Note_on_c, 0, 66, 44
2, 397932, Note_on_c, 0, 80, 0
2, 398006, Note_on_c, 0, 80, 74
2, 398046, Note_on_c, 0, 81, 0
2, 398070, Note_on_c, 0, 66, 0
2, 398140, Note_on_c, 0, 62, 36
2, 398142, Note_on_c, 0, 83, 102
2, 398146, Note_on_c, 0, 80, 0
2, 398226, Note_on_c, 0, 83, 0
2, 398256, Note_on_c, 0, 81, 61
2, 398320, Note_on_c, 0, 81, 0
2, 398328, Note_on_c, 0, 57, 0
2, 398338, Note_on_c, 0, 80, 80
2, 398362, Note_on_c, 0, 66, 26
2, 398408, Note_on_c, 0, 62, 0
2, 398416, Note_on_c, 0, 80, 0
2, 398436, Control_c, 0, 64, 127
2, 398448, Note_on_c, 0, 78, 79
2, 398492, Note_on_c, 0, 78, 0
2, 398502, Note_on_c, 0, 66, 0
2, 398558, Control_c, 0, 64, 0
2, 398568, Note_on_c, 0, 78, 62
2, 398598, Note_on_c, 0, 57, 31
2, 398686, Note_on_c, 0, 76, 62
2, 398716, Note_on_c, 0, 78, 0
2, 398764, Note_on_c, 0, 76, 0
2, 398784, Note_on_c, 0, 64, 34
2, 398790, Note_on_c, 0, 75, 67
2, 398848, Note_on_c, 0, 75, 0
2, 398898, Note_on_c, 0, 76, 57
2, 398920, Note_on_c, 0, 64, 0
2, 398962, Note_on_c, 0, 76, 0
2, 398994, Note_on_c, 0, 61, 41
2, 398997, Note_on_c, 0, 75, 63
2, 399056, Note_on_c, 0, 75, 0
2, 399080, Note_on_c, 0, 61, 0
2, 399086, Note_on_c, 0, 57, 0
2, 399094, Note_on_c, 0, 76, 67
2, 399180, Note_on_c, 0, 76, 0
2, 399214, Note_on_c, 0, 75, 59
2, 399304, Note_on_c, 0, 76, 62
2, 399308, Note_on_c, 0, 75, 0
2, 399350, Note_on_c, 0, 76, 0
2, 399380, Note_on_c, 0, 45, 97
2, 399398, Note_on_c, 0, 49, 108
2, 399426, Note_on_c, 0, 52, 123
2, 399442, Note_on_c, 0, 57, 125
2, 399445, Note_on_c, 0, 76, 74
2, 399464, Control_c, 0, 64, 127
2, 399476, Note_on_c, 0, 45, 0
2, 399486, Note_on_c, 0, 52, 0
2, 399490, Note_on_c, 0, 49, 0
2, 399532, Note_on_c, 0, 57, 0
2, 399554, Note_on_c, 0, 81, 100
2, 399602, Note_on_c, 0, 76, 0
2, 399644, Note_on_c, 0, 85, 95
2, 399676, Note_on_c, 0, 81, 0
2, 399746, Note_on_c, 0, 83, 121
2, 399756, Control_c, 0, 64, 0
2, 399840, Note_on_c, 0, 85, 0
2, 399850, Note_on_c, 0, 83, 0
2, 399864, Note_on_c, 0, 81, 90
2, 399954, Note_on_c, 0, 80, 92
2, 400000, Note_on_c, 0, 81, 0
2, 400058, Note_on_c, 0, 78, 85
2, 400122, Note_on_c, 0, 80, 0
2, 400166, Note_on_c, 0, 76, 77
2, 400172, Note_on_c, 0, 47, 92
2, 400188, Note_on_c, 0, 50, 80
2, 400212, Note_on_c, 0, 78, 0
2, 400228, Note_on_c, 0, 56, 102
2, 400254, Note_on_c, 0, 50, 0
2, 400256, Note_on_c, 0, 59, 123
2, 400258, Note_on_c, 0, 47, 0
2, 400262, Note_on_c, 0, 74, 118
2, 400276, Note_on_c, 0, 76, 0
2, 400294, Control_c, 0, 64, 127
2, 400316, Note_on_c, 0, 56, 0
2, 400334, Note_on_c, 0, 59, 0
2, 400368, Note_on_c, 0, 80, 105
2, 400420, Note_on_c, 0, 74, 0
2, 400472, Note_on_c, 0, 83, 126
2, 400506, Note_on_c, 0, 80, 0
2, 400556, Control_c, 0, 64, 0
2, 400580, Note_on_c, 0, 81, 109
2, 400668, Note_on_c, 0, 83, 0
2, 400671, Note_on_c, 0, 80, 95
2, 400740, Note_on_c, 0, 81, 0
2, 400778, Note_on_c, 0, 78, 98
2, 400864, Note_on_c, 0, 80, 0
2, 400874, Note_on_c, 0, 76, 88
2, 400896, Note_on_c, 0, 78, 0
2, 400958, Note_on_c, 0, 49, 75
2, 400978, Note_on_c, 0, 52, 85
2, 400980, Note_on_c, 0, 74, 99
2, 401022, Note_on_c, 0, 57, 76
2, 401048, Note_on_c, 0, 76, 0
2, 401054, Note_on_c, 0, 52, 0
2, 401062, Control_c, 0, 64, 127
2, 401066, Note_on_c, 0, 61, 117
2, 401078, Note_on_c, 0, 49, 0
2, 401081, Note_on_c, 0, 74, 0
2, 401081, Note_on_c, 0, 73, 101
2, 401116, Note_on_c, 0, 57, 0
2, 401164, Note_on_c, 0, 61, 0
2, 401182, Note_on_c, 0, 76, 92
2, 401202, Note_on_c, 0, 73, 0
2, 401202, Control_c, 0, 64, 0
2, 401266, Note_on_c, 0, 81, 101
2, 401290, Note_on_c, 0, 76, 0
2, 401352, Note_on_c, 0, 50, 84
2, 401388, Note_on_c, 0, 80, 101
2, 401388, Note_on_c, 0, 54, 103
2, 401438, Note_on_c, 0, 59, 98
2, 401454, Note_on_c, 0, 62, 120
2, 401457, Note_on_c, 0, 50, 0
2, 401460, Note_on_c, 0, 81, 0
2, 401478, Note_on_c, 0, 54, 0
2, 401478, Note_on_c, 0, 78, 99
2, 401478, Control_c, 0, 64, 127
2, 401490, Note_on_c, 0, 59, 0
2, 401538, Note_on_c, 0, 62, 0
2, 401540, Control_c, 0, 64, 0
2, 401556, Note_on_c, 0, 80, 0
2, 401582, Note_on_c, 0, 76, 95
2, 401652, Note_on_c, 0, 78, 0
2, 401680, Note_on_c, 0, 76, 0
2, 401686, Note_on_c, 0, 74, 95
2, 401718, Note_on_c, 0, 52, 98
2, 401756, Note_on_c, 0, 56, 88
2, 401780, Note_on_c, 0, 73, 94
2, 401810, Note_on_c, 0, 74, 0
2, 401816, Note_on_c, 0, 59, 97
2, 401824, Note_on_c, 0, 52, 0
2, 401856, Note_on_c, 0, 64, 121
2, 401876, Note_on_c, 0, 56, 0
2, 401876, Control_c, 0, 64, 127
2, 401888, Note_on_c, 0, 71, 113
2, 401896, Note_on_c, 0, 59, 0
2, 401896, Note_on_c, 0, 64, 0
2, 401946, Note_on_c, 0, 73, 0
2, 401972, Note_on_c, 0, 69, 94
2, 401992, Note_on_c, 0, 71, 0
2, 402046, Control_c, 0, 64, 0
2, 402068, Note_on_c, 0, 68, 94
2, 402116, Note_on_c, 0, 69, 0
2, 402168, Note_on_c, 0, 66, 94
2, 402234, Note_on_c, 0, 68, 0
2, 402282, Note_on_c, 0, 64, 98
2, 402294, Note_on_c, 0, 66, 0
2, 402318, Note_on_c, 0, 64, 0
2, 402372, Note_on_c, 0, 62, 68
2, 402438, Note_on_c, 0, 62, 0
2, 402478, Note_on_c, 0, 61, 61
2, 402542, Note_on_c, 0, 61, 0
2, 402586, Note_on_c, 0, 59, 45
2, 402652, Note_on_c, 0, 59, 0
2, 402668, Note_on_c, 0, 73, 57
2, 402720, Note_on_c, 0, 57, 41
2, 402790, Note_on_c, 0, 73, 0
2, 402878, Note_on_c, 0, 74, 68
2, 402916, Note_on_c, 0, 64, 39
2, 402924, Note_on_c, 0, 73, 62
2, 402930, Note_on_c, 0, 74, 0
2, 402984, Note_on_c, 0, 73, 0
2, 402996, Note_on_c, 0, 71, 71
2, 402999, Note_on_c, 0, 64, 0
2, 403058, Note_on_c, 0, 71, 0
2, 403058, Note_on_c, 0, 73, 77
2, 403086, Note_on_c, 0, 59, 41
2, 403092, Note_on_c, 0, 57, 0
2, 403126, Note_on_c, 0, 73, 0
2, 403272, Note_on_c, 0, 74, 87
2, 403292, Note_on_c, 0, 64, 40
2, 403310, Note_on_c, 0, 74, 0
2, 403400, Note_on_c, 0, 64, 0
2, 403490, Note_on_c, 0, 78, 84
2, 403520, Note_on_c, 0, 61, 34
2, 403642, Note_on_c, 0, 59, 0
2, 403704, Note_on_c, 0, 76, 60
2, 403732, Note_on_c, 0, 78, 0
2, 403748, Note_on_c, 0, 64, 26
2, 403766, Note_on_c, 0, 76, 0
2, 403840, Note_on_c, 0, 64, 0
2, 403910, Note_on_c, 0, 74, 61
2, 403920, Note_on_c, 0, 57, 32
2, 403944, Note_on_c, 0, 61, 0
2, 403958, Note_on_c, 0, 74, 0
2, 404114, Note_on_c, 0, 73, 44
2, 404144, Note_on_c, 0, 64, 37
2, 404174, Note_on_c, 0, 73, 0
2, 404246, Note_on_c, 0, 64, 0
2, 404294, Note_on_c, 0, 57, 0
2, 404322, Note_on_c, 0, 71, 71
2, 404324, Note_on_c, 0, 56, 36
2, 404394, Note_on_c, 0, 71, 0
2, 404516, Note_on_c, 0, 73, 67
2, 404566, Note_on_c, 0, 64, 41
2, 404566, Note_on_c, 0, 71, 72
2, 404574, Note_on_c, 0, 73, 0
2, 404624, Note_on_c, 0, 71, 0
2, 404630, Note_on_c, 0, 70, 64
2, 404662, Note_on_c, 0, 64, 0
2, 404686, Note_on_c, 0, 70, 0
2, 404710, Note_on_c, 0, 71, 80
2, 404748, Note_on_c, 0, 56, 0
2, 404748, Note_on_c, 0, 57, 34
2, 404776, Note_on_c, 0, 71, 0
2, 404914, Note_on_c, 0, 73, 75
2, 404938, Note_on_c, 0, 64, 39
2, 404956, Note_on_c, 0, 73, 0
2, 405018, Note_on_c, 0, 64, 0
2, 405124, Note_on_c, 0, 76, 69
2, 405154, Note_on_c, 0, 57, 0
2, 405160, Note_on_c, 0, 59, 25
2, 405322, Note_on_c, 0, 76, 0
2, 405350, Note_on_c, 0, 74, 54
2, 405360, Note_on_c, 0, 64, 31
2, 405404, Note_on_c, 0, 74, 0
2, 405444, Note_on_c, 0, 64, 0
2, 405536, Note_on_c, 0, 73, 54
2, 405552, Note_on_c, 0, 56, 32
2, 405594, Note_on_c, 0, 73, 0
2, 405658, Note_on_c, 0, 59, 0
2, 405738, Note_on_c, 0, 71, 48
2, 405776, Note_on_c, 0, 64, 31
2, 405810, Note_on_c, 0, 71, 0
2, 405852, Note_on_c, 0, 64, 0
2, 405936, Note_on_c, 0, 68, 74
2, 405964, Note_on_c, 0, 54, 49
2, 406040, Note_on_c, 0, 56, 0
2, 406126, Note_on_c, 0, 68, 0
2, 406136, Note_on_c, 0, 69, 56
2, 406196, Note_on_c, 0, 69, 0
2, 406196, Note_on_c, 0, 64, 33
2, 406282, Note_on_c, 0, 64, 0
2, 406342, Note_on_c, 0, 56, 52
2, 406354, Note_on_c, 0, 54, 0
2, 406556, Note_on_c, 0, 71, 72
2, 406560, Note_on_c, 0, 64, 40
2, 406610, Note_on_c, 0, 71, 0
2, 406674, Note_on_c, 0, 64, 0
2, 406722, Note_on_c, 0, 56, 0
2, 406766, Note_on_c, 0, 57, 40
2, 406918, Note_on_c, 0, 72, 63
2, 406944, Note_on_c, 0, 73, 65
2, 406968, Note_on_c, 0, 72, 0
2, 406990, Note_on_c, 0, 64, 41
2, 407004, Note_on_c, 0, 73, 0
2, 407050, Note_on_c, 0, 64, 0
2, 407106, Note_on_c, 0, 57, 0
2, 407144, Note_on_c, 0, 50, 56
2, 407316, Note_on_c, 0, 76, 54
2, 407368, Note_on_c, 0, 59, 45
2, 407378, Note_on_c, 0, 74, 47
2, 407382, Note_on_c, 0, 76, 0
2, 407434, Note_on_c, 0, 74, 0
2, 407486, Note_on_c, 0, 59, 0
2, 407526, Note_on_c, 0, 50, 0
2, 407574, Note_on_c, 0, 52, 53
2, 407696, Note_on_c, 0, 74, 64
2, 407752, Note_on_c, 0, 74, 0
2, 407752, Note_on_c, 0, 73, 62
2, 407758, Note_on_c, 0, 57, 51
2, 407814, Note_on_c, 0, 52, 0
2, 407820, Note_on_c, 0, 73, 0
2, 407970, Note_on_c, 0, 57, 0
2, 407972, Note_on_c, 0, 52, 55
2, 408068, Note_on_c, 0, 73, 64
2, 408146, Note_on_c, 0, 52, 0
2, 408149, Note_on_c, 0, 71, 75
2, 408158, Note_on_c, 0, 73, 0
2, 408160, Note_on_c, 0, 56, 52
2, 408216, Note_on_c, 0, 71, 0
2, 408222, Control_c, 0, 64, 127
2, 408226, Note_on_c, 0, 56, 0
2, 408392, Note_on_c, 0, 71, 91
2, 408404, Note_on_c, 0, 68, 40
2, 408414, Note_on_c, 0, 57, 34
2, 408426, Note_on_c, 0, 64, 40
2, 408438, Control_c, 0, 64, 0
2, 408454, Note_on_c, 0, 62, 48
2, 408538, Note_on_c, 0, 62, 0
2, 408640, Note_on_c, 0, 72, 72
2, 408656, Note_on_c, 0, 71, 0
2, 408666, Note_on_c, 0, 62, 7
2, 408868, Note_on_c, 0, 62, 0
2, 408868, Note_on_c, 0, 72, 0
2, 408882, Note_on_c, 0, 68, 0
2, 408884, Note_on_c, 0, 73, 41
2, 408922, Note_on_c, 0, 69, 30
2, 408922, Note_on_c, 0, 61, 32
2, 409022, Note_on_c, 0, 64, 0
2, 409068, Note_on_c, 0, 57, 0
2, 409098, Control_c, 0, 64, 127
2, 409128, Note_on_c, 0, 61, 0
2, 409172, Note_on_c, 0, 73, 0
2, 409292, Note_on_c, 0, 69, 0
2, 409348, Note_on_c, 0, 45, 115
2, 409354, Note_on_c, 0, 73, 101
2, 409416, Note_on_c, 0, 49, 95
2, 409432, Note_on_c, 0, 69, 98
2, 409504, Note_on_c, 0, 73, 0
2, 409507, Note_on_c, 0, 45, 0
2, 409528, Note_on_c, 0, 52, 93
2, 409546, Note_on_c, 0, 76, 88
2, 409586, Note_on_c, 0, 69, 0
2, 409590, Note_on_c, 0, 49, 0
2, 409618, Note_on_c, 0, 57, 78
2, 409640, Note_on_c, 0, 52, 0
2, 409640, Note_on_c, 0, 73, 93
2, 409692, Note_on_c, 0, 76, 0
2, 409698, Control_c, 0, 64, 0
2, 409746, Note_on_c, 0, 57, 0
2, 409756, Note_on_c, 0, 74, 113
2, 409759, Note_on_c, 0, 47, 123
2, 409808, Note_on_c, 0, 73, 0
2, 409828, Note_on_c, 0, 50, 102
2, 409844, Note_on_c, 0, 71, 107
2, 409852, Note_on_c, 0, 74, 0
2, 409910, Note_on_c, 0, 47, 0
2, 409913, Control_c, 0, 64, 127
2, 409940, Note_on_c, 0, 56, 94
2, 409958, Note_on_c, 0, 78, 103
2, 409986, Note_on_c, 0, 50, 0
2, 409994, Note_on_c, 0, 71, 0
2, 410032, Note_on_c, 0, 59, 85
2, 410054, Note_on_c, 0, 74, 99
2, 410066, Note_on_c, 0, 56, 0
2, 410112, Control_c, 0, 64, 0
2, 410118, Note_on_c, 0, 78, 0
2, 410138, Note_on_c, 0, 49, 109
2, 410152, Note_on_c, 0, 76, 109
2, 410166, Note_on_c, 0, 74, 0
2, 410182, Note_on_c, 0, 59, 0
2, 410242, Note_on_c, 0, 73, 95
2, 410248, Note_on_c, 0, 52, 105
2, 410292, Note_on_c, 0, 76, 0
2, 410308, Note_on_c, 0, 49, 0
2, 410311, Control_c, 0, 64, 127
2, 410322, Note_on_c, 0, 57, 69
2, 410336, Note_on_c, 0, 73, 0
2, 410350, Note_on_c, 0, 81, 107
2, 410366, Note_on_c, 0, 52, 0
2, 410400, Note_on_c, 0, 61, 79
2, 410414, Note_on_c, 0, 57, 0
2, 410444, Note_on_c, 0, 76, 90
2, 410470, Note_on_c, 0, 61, 0
2, 410482, Note_on_c, 0, 81, 0
2, 410512, Control_c, 0, 64, 0
2, 410528, Note_on_c, 0, 50, 110
2, 410548, Note_on_c, 0, 80, 108
2, 410576, Note_on_c, 0, 76, 0
2, 410626, Note_on_c, 0, 54, 94
2, 410644, Note_on_c, 0, 78, 101
2, 410720, Note_on_c, 0, 80, 0
2, 410723, Note_on_c, 0, 59, 77
2, 410726, Note_on_c, 0, 50, 0
2, 410728, Control_c, 0, 64, 127
2, 410754, Note_on_c, 0, 76, 98
2, 410794, Note_on_c, 0, 54, 0
2, 410824, Note_on_c, 0, 78, 0
2, 410832, Note_on_c, 0, 74, 103
2, 410840, Note_on_c, 0, 62, 76
2, 410844, Note_on_c, 0, 59, 0
2, 410876, Note_on_c, 0, 76, 0
2, 410926, Control_c, 0, 64, 0
2, 410946, Note_on_c, 0, 73, 101
2, 410954, Note_on_c, 0, 52, 106
2, 410956, Note_on_c, 0, 74, 0
2, 410982, Note_on_c, 0, 62, 0
2, 411034, Note_on_c, 0, 57, 71
2, 411052, Note_on_c, 0, 76, 82
2, 411118, Note_on_c, 0, 73, 0
2, 411128, Note_on_c, 0, 52, 0
2, 411138, Note_on_c, 0, 61, 78
2, 411148, Note_on_c, 0, 69, 84
2, 411188, Control_c, 0, 64, 127
2, 411194, Note_on_c, 0, 76, 0
2, 411214, Note_on_c, 0, 57, 0
2, 411230, Note_on_c, 0, 64, 77
2, 411230, Note_on_c, 0, 73, 64
2, 411280, Note_on_c, 0, 61, 0
2, 411288, Note_on_c, 0, 69, 0
2, 411318, Note_on_c, 0, 64, 0
2, 411338, Note_on_c, 0, 52, 103
2, 411338, Note_on_c, 0, 71, 105
2, 411341, Control_c, 0, 64, 0
2, 411388, Note_on_c, 0, 73, 0
2, 411394, Note_on_c, 0, 56, 68
2, 411450, Note_on_c, 0, 74, 79
2, 411452, Note_on_c, 0, 71, 0
2, 411506, Note_on_c, 0, 52, 0
2, 411532, Note_on_c, 0, 68, 77
2, 411534, Note_on_c, 0, 74, 0
2, 411534, Note_on_c, 0, 59, 52
2, 411541, Control_c, 0, 64, 127
2, 411580, Note_on_c, 0, 56, 0
2, 411585, Note_on_c, 0, 59, 0
2, 411585, Note_on_c, 0, 62, 71
2, 411626, Note_on_c, 0, 71, 91
2, 411650, Note_on_c, 0, 68, 0
2, 411674, Note_on_c, 0, 62, 0
2, 411680, Control_c, 0, 64, 0
2, 411734, Note_on_c, 0, 71, 0
2, 411748, Note_on_c, 0, 61, 72
2, 411750, Note_on_c, 0, 57, 63
2, 411752, Note_on_c, 0, 69, 63
2, 411828, Note_on_c, 0, 61, 0
2, 411852, Note_on_c, 0, 71, 91
2, 411858, Note_on_c, 0, 69, 0
2, 411928, Note_on_c, 0, 57, 0
2, 411952, Note_on_c, 0, 73, 72
2, 411956, Note_on_c, 0, 71, 0
2, 411976, Note_on_c, 0, 61, 51
2, 411979, Note_on_c, 0, 64, 62
2, 412028, Note_on_c, 0, 64, 0
2, 412028, Note_on_c, 0, 73, 0
2, 412040, Note_on_c, 0, 61, 0
2, 412060, Note_on_c, 0, 74, 76
2, 412172, Note_on_c, 0, 74, 0
2, 412176, Note_on_c, 0, 76, 70
2, 412190, Note_on_c, 0, 61, 68
2, 412212, Note_on_c, 0, 64, 41
2, 412242, Note_on_c, 0, 61, 0
2, 412250, Note_on_c, 0, 76, 0
2, 412274, Note_on_c, 0, 64, 0
2, 412274, Note_on_c, 0, 78, 82
2, 412394, Note_on_c, 0, 61, 79
2, 412394, Note_on_c, 0, 80, 82
2, 412397, Note_on_c, 0, 64, 60
2, 412428, Note_on_c, 0, 78, 0
2, 412438, Note_on_c, 0, 61, 0
2, 412442, Note_on_c, 0, 64, 0
2, 412488, Note_on_c, 0, 81, 85
2, 412508, Note_on_c, 0, 80, 0
2, 412598, Note_on_c, 0, 80, 80
2, 412598, Note_on_c, 0, 57, 86
2, 412640, Note_on_c, 0, 81, 0
2, 412706, Note_on_c, 0, 78, 84
2, 412734, Note_on_c, 0, 57, 0
2, 412770, Note_on_c, 0, 80, 0
2, 412810, Note_on_c, 0, 78, 0
2, 412810, Note_on_c, 0, 77, 82
2, 412820, Note_on_c, 0, 66, 52
2, 412840, Note_on_c, 0, 62, 51
2, 412872, Note_on_c, 0, 66, 0
2, 412886, Note_on_c, 0, 77, 0
2, 412896, Note_on_c, 0, 62, 0
2, 412904, Note_on_c, 0, 78, 64
2, 412988, Note_on_c, 0, 78, 0
2, 413026, Note_on_c, 0, 66, 60
2, 413032, Note_on_c, 0, 83, 97
2, 413058, Note_on_c, 0, 62, 42
2, 413086, Note_on_c, 0, 66, 0
2, 413106, Note_on_c, 0, 83, 0
2, 413116, Note_on_c, 0, 62, 0
2, 413118, Note_on_c, 0, 81, 82
2, 413200, Note_on_c, 0, 81, 0
2, 413214, Note_on_c, 0, 80, 82
2, 413230, Note_on_c, 0, 62, 40
2, 413236, Note_on_c, 0, 66, 56
2, 413288, Note_on_c, 0, 62, 0
2, 413292, Note_on_c, 0, 66, 0
2, 413314, Note_on_c, 0, 80, 0
2, 413320, Note_on_c, 0, 78, 84
2, 413360, Note_on_c, 0, 78, 0
2, 413426, Note_on_c, 0, 78, 78
2, 413442, Note_on_c, 0, 57, 60
2, 413542, Note_on_c, 0, 76, 71
2, 413582, Note_on_c, 0, 57, 0
2, 413592, Note_on_c, 0, 78, 0
2, 413610, Note_on_c, 0, 76, 0
2, 413638, Note_on_c, 0, 75, 76
2, 413652, Note_on_c, 0, 64, 56
2, 413668, Note_on_c, 0, 61, 41
2, 413696, Note_on_c, 0, 75, 0
2, 413704, Note_on_c, 0, 64, 0
2, 413732, Note_on_c, 0, 61, 0
2, 413768, Note_on_c, 0, 76, 45
2, 413830, Note_on_c, 0, 76, 0
2, 413838, Note_on_c, 0, 69, 72
2, 413864, Note_on_c, 0, 61, 34
2, 413874, Note_on_c, 0, 64, 49
2, 413900, Note_on_c, 0, 69, 0
2, 413930, Note_on_c, 0, 64, 0
2, 413932, Note_on_c, 0, 61, 0
2, 413952, Note_on_c, 0, 73, 71
2, 414014, Note_on_c, 0, 73, 0
2, 414054, Note_on_c, 0, 61, 45
2, 414056, Note_on_c, 0, 76, 72
2, 414068, Note_on_c, 0, 64, 41
2, 414106, Note_on_c, 0, 76, 0
2, 414116, Note_on_c, 0, 61, 0
2, 414122, Note_on_c, 0, 64, 0
2, 414148, Note_on_c, 0, 81, 71
2, 414268, Note_on_c, 0, 80, 87
2, 414276, Note_on_c, 0, 57, 57
2, 414290, Note_on_c, 0, 81, 0
2, 414364, Note_on_c, 0, 78, 82
2, 414388, Note_on_c, 0, 80, 0
2, 414396, Note_on_c, 0, 57, 0
2, 414450, Note_on_c, 0, 78, 0
2, 414464, Note_on_c, 0, 77, 80
2, 414470, Note_on_c, 0, 66, 42
2, 414478, Note_on_c, 0, 62, 48
2, 414522, Note_on_c, 0, 77, 0
2, 414532, Note_on_c, 0, 66, 0
2, 414534, Note_on_c, 0, 62, 0
2, 414566, Note_on_c, 0, 78, 70
2, 414640, Note_on_c, 0, 78, 0
2, 414682, Note_on_c, 0, 66, 56
2, 414690, Note_on_c, 0, 83, 92
2, 414724, Note_on_c, 0, 62, 29
2, 414736, Note_on_c, 0, 66, 0
2, 414756, Note_on_c, 0, 83, 0
2, 414784, Note_on_c, 0, 81, 64
2, 414787, Note_on_c, 0, 62, 0
2, 414860, Note_on_c, 0, 81, 0
2, 414876, Note_on_c, 0, 80, 71
2, 414884, Note_on_c, 0, 62, 42
2, 414908, Note_on_c, 0, 66, 34
2, 414940, Note_on_c, 0, 62, 0
2, 414974, Note_on_c, 0, 80, 0
2, 414984, Note_on_c, 0, 66, 0
2, 414986, Note_on_c, 0, 78, 63
2, 415060, Note_on_c, 0, 78, 0
2, 415114, Note_on_c, 0, 76, 64
2, 415124, Note_on_c, 0, 61, 42
2, 415130, Note_on_c, 0, 64, 47
2, 415138, Note_on_c, 0, 57, 40
2, 415230, Control_c, 0, 64, 127
2, 415236, Note_on_c, 0, 76, 0
2, 415356, Note_on_c, 0, 64, 0
2, 415382, Note_on_c, 0, 57, 0
2, 415390, Note_on_c, 0, 76, 59
2, 415398, Note_on_c, 0, 61, 0
2, 415438, Note_on_c, 0, 76, 0
2, 415448, Note_on_c, 0, 78, 78
2, 415474, Control_c, 0, 64, 0
2, 415506, Note_on_c, 0, 76, 61
2, 415568, Note_on_c, 0, 78, 0
2, 415572, Note_on_c, 0, 76, 0
2, 415590, Note_on_c, 0, 75, 34
2, 415652, Note_on_c, 0, 76, 76
2, 415658, Note_on_c, 0, 75, 0
2, 415758, Note_on_c, 0, 76, 0
2, 416038, Note_on_c, 0, 59, 61
2, 416040, Note_on_c, 0, 50, 67
2, 416212, Control_c, 0, 64, 127
2, 416254, Note_on_c, 0, 74, 53
2, 416306, Note_on_c, 0, 74, 0
2, 416316, Note_on_c, 0, 76, 69
2, 416350, Control_c, 0, 64, 0
2, 416370, Note_on_c, 0, 74, 82
2, 416380, Note_on_c, 0, 76, 0
2, 416380, Note_on_c, 0, 59, 0
2, 416383, Note_on_c, 0, 50, 0
2, 416430, Note_on_c, 0, 74, 0
2, 416458, Note_on_c, 0, 73, 44
2, 416518, Note_on_c, 0, 74, 79
2, 416522, Note_on_c, 0, 73, 0
2, 416696, Note_on_c, 0, 74, 0
2, 416932, Note_on_c, 0, 57, 52
2, 416942, Note_on_c, 0, 52, 54
2, 417094, Note_on_c, 0, 73, 61
2, 417146, Note_on_c, 0, 73, 0
2, 417146, Note_on_c, 0, 57, 0
2, 417164, Note_on_c, 0, 74, 69
2, 417180, Note_on_c, 0, 52, 0
2, 417224, Note_on_c, 0, 73, 52
2, 417227, Note_on_c, 0, 74, 0
2, 417282, Note_on_c, 0, 73, 0
2, 417292, Note_on_c, 0, 71, 67
2, 417352, Note_on_c, 0, 71, 0
2, 417352, Note_on_c, 0, 73, 57
2, 417618, Note_on_c, 0, 73, 0
2, 417798, Note_on_c, 0, 56, 41
2, 417810, Note_on_c, 0, 50, 44
2, 417930, Note_on_c, 0, 71, 42
2, 417982, Note_on_c, 0, 56, 0
2, 417982, Note_on_c, 0, 73, 68
2, 417992, Note_on_c, 0, 50, 0
2, 418002, Note_on_c, 0, 71, 0
2, 418064, Note_on_c, 0, 73, 0
2, 418092, Note_on_c, 0, 71, 33
2, 418154, Note_on_c, 0, 70, 39
2, 418218, Note_on_c, 0, 70, 0
2, 418482, Note_on_c, 0, 71, 0
2, 418488, Control_c, 0, 64, 127
2, 418628, Note_on_c, 0, 57, 38
2, 418642, Note_on_c, 0, 49, 30
2, 418702, Control_c, 0, 64, 0
2, 418754, Note_on_c, 0, 76, 61
2, 418822, Note_on_c, 0, 76, 0
2, 418858, Note_on_c, 0, 75, 64
2, 418962, Note_on_c, 0, 75, 0
2, 418976, Note_on_c, 0, 76, 68
2, 418979, Control_c, 0, 64, 127
2, 418982, Note_on_c, 0, 57, 0
2, 419010, Note_on_c, 0, 49, 0
2, 419046, Note_on_c, 0, 76, 0
2, 419070, Note_on_c, 0, 78, 65
2, 419148, Control_c, 0, 64, 0
2, 419170, Note_on_c, 0, 76, 64
2, 419208, Note_on_c, 0, 78, 0
2, 419242, Note_on_c, 0, 76, 0
2, 419282, Note_on_c, 0, 75, 59
2, 419352, Note_on_c, 0, 75, 0
2, 419418, Note_on_c, 0, 76, 41
2, 419480, Note_on_c, 0, 76, 0
2, 419510, Note_on_c, 0, 59, 61
2, 419513, Note_on_c, 0, 50, 59
2, 419644, Note_on_c, 0, 74, 57
2, 419670, Control_c, 0, 64, 127
2, 419724, Note_on_c, 0, 74, 0
2, 419724, Note_on_c, 0, 59, 0
2, 419732, Note_on_c, 0, 50, 0
2, 419738, Note_on_c, 0, 73, 67
2, 419850, Note_on_c, 0, 74, 79
2, 419870, Note_on_c, 0, 73, 0
2, 419954, Note_on_c, 0, 74, 0
2, 419954, Note_on_c, 0, 76, 88
2, 419992, Control_c, 0, 64, 0
2, 420068, Note_on_c, 0, 74, 76
2, 420106, Note_on_c, 0, 76, 0
2, 420158, Note_on_c, 0, 73, 71
2, 420168, Note_on_c, 0, 74, 0
2, 420250, Note_on_c, 0, 74, 86
2, 420292, Note_on_c, 0, 73, 0
2, 420330, Note_on_c, 0, 74, 0
2, 420342, Note_on_c, 0, 57, 72
2, 420354, Note_on_c, 0, 52, 75
2, 420448, Note_on_c, 0, 73, 82
2, 420498, Control_c, 0, 64, 127
2, 420530, Note_on_c, 0, 52, 0
2, 420532, Note_on_c, 0, 57, 0
2, 420552, Note_on_c, 0, 72, 94
2, 420572, Note_on_c, 0, 73, 0
2, 420664, Note_on_c, 0, 73, 69
2, 420720, Note_on_c, 0, 72, 0
2, 420788, Note_on_c, 0, 74, 98
2, 420791, Control_c, 0, 64, 0
2, 420808, Note_on_c, 0, 73, 0
2, 420874, Note_on_c, 0, 73, 76
2, 420938, Note_on_c, 0, 74, 0
2, 420980, Note_on_c, 0, 72, 92
2, 421008, Note_on_c, 0, 73, 0
2, 421082, Note_on_c, 0, 73, 79
2, 421112, Note_on_c, 0, 72, 0
2, 421182, Note_on_c, 0, 56, 63
2, 421185, Note_on_c, 0, 73, 0
2, 421192, Note_on_c, 0, 52, 70
2, 421282, Control_c, 0, 64, 127
2, 421302, Note_on_c, 0, 71, 82
2, 421346, Note_on_c, 0, 52, 0
2, 421364, Note_on_c, 0, 56, 0
2, 421398, Note_on_c, 0, 71, 0
2, 421400, Note_on_c, 0, 70, 75
2, 421498, Note_on_c, 0, 71, 92
2, 421530, Note_on_c, 0, 70, 0
2, 421574, Control_c, 0, 64, 0
2, 421608, Note_on_c, 0, 73, 88
2, 421634, Note_on_c, 0, 71, 0
2, 421700, Note_on_c, 0, 71, 91
2, 421772, Note_on_c, 0, 73, 0
2, 421812, Note_on_c, 0, 70, 83
2, 421824, Note_on_c, 0, 71, 0
2, 421900, Note_on_c, 0, 71, 90
2, 421932, Note_on_c, 0, 70, 0
2, 422014, Note_on_c, 0, 71, 0
2, 422030, Note_on_c, 0, 57, 69
2, 422030, Note_on_c, 0, 69, 76
2, 422112, Control_c, 0, 64, 127
2, 422164, Note_on_c, 0, 69, 0
2, 422220, Note_on_c, 0, 57, 0
2, 422256, Note_on_c, 0, 73, 76
2, 422342, Note_on_c, 0, 69, 67
2, 422344, Note_on_c, 0, 73, 0
2, 422358, Control_c, 0, 64, 0
2, 422408, Note_on_c, 0, 69, 0
2, 422454, Note_on_c, 0, 76, 78
2, 422504, Note_on_c, 0, 76, 0
2, 422526, Note_on_c, 0, 74, 79
2, 422584, Note_on_c, 0, 74, 0
2, 422662, Note_on_c, 0, 71, 46
2, 422718, Note_on_c, 0, 68, 65
2, 422726, Note_on_c, 0, 71, 0
2, 422802, Note_on_c, 0, 68, 0
2, 422852, Note_on_c, 0, 69, 69
2, 423108, Note_on_c, 0, 69, 0
2, 423172, Control_c, 0, 64, 127
2, 423250, Control_c, 0, 64, 0
2, 423284, Note_on_c, 0, 68, 92
2, 423286, Note_on_c, 0, 76, 108
2, 423290, Note_on_c, 0, 64, 114
2, 423292, Note_on_c, 0, 71, 114
2, 423298, Note_on_c, 0, 56, 78
2, 423302, Note_on_c, 0, 59, 95
2, 423308, Note_on_c, 0, 52, 82
2, 423380, Note_on_c, 0, 64, 0
2, 423408, Note_on_c, 0, 52, 0
2, 423411, Note_on_c, 0, 59, 0
2, 423420, Control_c, 0, 64, 127
2, 423426, Note_on_c, 0, 56, 0
2, 423430, Note_on_c, 0, 71, 0
2, 423446, Note_on_c, 0, 68, 0
2, 423474, Note_on_c, 0, 76, 0
2, 423604, Control_c, 0, 64, 0
2, 423706, Note_on_c, 0, 57, 114
2, 423706, Note_on_c, 0, 81, 121
2, 423709, Note_on_c, 0, 76, 106
2, 423709, Note_on_c, 0, 45, 105
2, 423709, Note_on_c, 0, 73, 98
2, 423713, Note_on_c, 0, 69, 98
2, 423716, Note_on_c, 0, 49, 99
2, 423720, Note_on_c, 0, 52, 116
2, 423748, Note_on_c, 0, 71, 61
2, 423788, Control_c, 0, 64, 127
2, 423792, Note_on_c, 0, 57, 0
2, 423800, Note_on_c, 0, 45, 0
2, 423804, Note_on_c, 0, 52, 0
2, 423810, Note_on_c, 0, 71, 0
2, 423810, Note_on_c, 0, 49, 0
2, 423822, Note_on_c, 0, 81, 0
2, 423840, Note_on_c, 0, 69, 0
2, 423856, Note_on_c, 0, 76, 0
2, 423882, Note_on_c, 0, 73, 0
2, 423968, Note_on_c, 0, 73, 76
2, 424002, Control_c, 0, 64, 0
2, 424068, Note_on_c, 0, 69, 77
2, 424098, Note_on_c, 0, 73, 0
2, 424148, Note_on_c, 0, 69, 0
2, 424192, Note_on_c, 0, 76, 93
2, 424256, Note_on_c, 0, 76, 0
2, 424268, Note_on_c, 0, 74, 95
2, 424350, Note_on_c, 0, 74, 0
2, 424388, Note_on_c, 0, 71, 82
2, 424458, Note_on_c, 0, 71, 0
2, 424496, Note_on_c, 0, 68, 74
2, 424552, Note_on_c, 0, 68, 0
2, 424616, Note_on_c, 0, 69, 100
2, 424842, Note_on_c, 0, 69, 0
2, 425102, Note_on_c, 0, 76, 114
2, 425104, Note_on_c, 0, 68, 100
2, 425108, Note_on_c, 0, 71, 120
2, 425114, Note_on_c, 0, 64, 116
2, 425120, Note_on_c, 0, 56, 83
2, 425122, Note_on_c, 0, 52, 105
2, 425122, Note_on_c, 0, 59, 95
2, 425242, Note_on_c, 0, 64, 0
2, 425260, Note_on_c, 0, 52, 0
2, 425278, Control_c, 0, 64, 127
2, 425280, Note_on_c, 0, 56, 0
2, 425282, Note_on_c, 0, 59, 0
2, 425308, Note_on_c, 0, 71, 0
2, 425311, Note_on_c, 0, 68, 0
2, 425340, Note_on_c, 0, 76, 0
2, 425386, Control_c, 0, 64, 0
2, 425678, Note_on_c, 0, 73, 102
2, 425680, Note_on_c, 0, 57, 103
2, 425682, Note_on_c, 0, 81, 118
2, 425682, Note_on_c, 0, 76, 108
2, 425682, Note_on_c, 0, 52, 111
2, 425684, Note_on_c, 0, 69, 101
2, 425688, Note_on_c, 0, 49, 92
2, 425688, Note_on_c, 0, 45, 102
2, 425832, Control_c, 0, 64, 127
2, 426154, Note_on_c, 0, 69, 0
2, 426166, Note_on_c, 0, 57, 0
2, 426188, Note_on_c, 0, 49, 0
2, 426214, Note_on_c, 0, 52, 0
2, 426250, Note_on_c, 0, 73, 0
2, 426260, Note_on_c, 0, 45, 0
2, 426338, Note_on_c, 0, 81, 0
2, 426354, Control_c, 0, 64, 0
2, 426370, Note_on_c, 0, 76, 0
2, 428160, Control_c, 0, 64, 0
2, 430080, Control_c, 0, 64, 0
2, 433980, Control_c, 0, 64, 127
2, 433980, Control_c, 0, 64, 0
2, 433980, Note_on_c, 0, 61, 59
2, 434060, Note_on_c, 0, 64, 75
2, 434098, Note_on_c, 0, 61, 0
2, 434108, Note_on_c, 0, 69, 100
2, 434110, Note_on_c, 0, 45, 76
2, 434114, Note_on_c, 0, 57, 77
2, 434180, Note_on_c, 0, 64, 0
2, 434636, Control_c, 0, 64, 127
2, 434674, Note_on_c, 0, 57, 0
2, 434806, Note_on_c, 0, 45, 0
2, 435066, Control_c, 0, 64, 0
2, 435066, Note_on_c, 0, 64, 90
2, 435070, Note_on_c, 0, 69, 0
2, 435086, Note_on_c, 0, 52, 78
2, 435086, Note_on_c, 0, 40, 79
2, 435186, Note_on_c, 0, 40, 0
2, 435186, Note_on_c, 0, 52, 0
2, 435234, Control_c, 0, 64, 127
2, 435270, Note_on_c, 0, 64, 0
2, 435536, Note_on_c, 0, 73, 91
2, 435539, Note_on_c, 0, 61, 91
2, 435546, Note_on_c, 0, 49, 80
2, 435664, Control_c, 0, 64, 0
2, 435832, Note_on_c, 0, 74, 85
2, 435850, Control_c, 0, 64, 127
2, 435853, Note_on_c, 0, 61, 0
2, 435870, Note_on_c, 0, 73, 0
2, 435934, Note_on_c, 0, 71, 88
2, 435956, Note_on_c, 0, 74, 0
2, 436018, Control_c, 0, 64, 0
2, 436054, Note_on_c, 0, 71, 0
2, 436060, Note_on_c, 0, 49, 0
2, 436066, Note_on_c, 0, 69, 69
2, 436076, Note_on_c, 0, 45, 36
2, 436084, Note_on_c, 0, 57, 34
2, 436362, Note_on_c, 0, 57, 0
2, 436432, Control_c, 0, 64, 127
2, 436454, Note_on_c, 0, 45, 0
2, 436506, Note_on_c, 0, 69, 0
2, 436570, Control_c, 0, 64, 0
2, 437076, Note_on_c, 0, 76, 41
2, 437364, Note_on_c, 0, 78, 52
2, 437386, Control_c, 0, 64, 127
2, 437408, Note_on_c, 0, 76, 0
2, 437458, Note_on_c, 0, 78, 0
2, 437478, Note_on_c, 0, 74, 70
2, 437536, Note_on_c, 0, 74, 0
2, 437594, Note_on_c, 0, 73, 75
2, 437708, Control_c, 0, 64, 0
2, 437938, Control_c, 0, 64, 127
2, 438066, Note_on_c, 0, 85, 78
2, 438076, Control_c, 0, 64, 0
2, 438084, Note_on_c, 0, 66, 23
2, 438092, Note_on_c, 0, 73, 0
2, 438110, Note_on_c, 0, 57, 18
2, 438242, Note_on_c, 0, 57, 0
2, 438260, Control_c, 0, 64, 127
2, 438342, Note_on_c, 0, 85, 0
2, 438344, Note_on_c, 0, 66, 0
2, 438606, Note_on_c, 0, 75, 69
2, 438622, Note_on_c, 0, 69, 23
2, 438642, Note_on_c, 0, 59, 28
2, 438860, Control_c, 0, 64, 0
2, 439122, Control_c, 0, 64, 127
2, 439220, Note_on_c, 0, 59, 0
2, 439238, Note_on_c, 0, 69, 0
2, 439244, Note_on_c, 0, 76, 41
2, 439272, Note_on_c, 0, 68, 22
2, 439275, Control_c, 0, 64, 0
2, 439284, Note_on_c, 0, 64, 24
2, 439292, Note_on_c, 0, 75, 0
2, 439720, Control_c, 0, 64, 127
2, 439748, Note_on_c, 0, 64, 0
2, 439768, Note_on_c, 0, 68, 0
2, 439998, Control_c, 0, 64, 0
2, 440320, Control_c, 0, 64, 127
2, 440370, Note_on_c, 0, 77, 38
2, 440438, Note_on_c, 0, 76, 0
2, 440490, Control_c, 0, 64, 0
2, 440686, Note_on_c, 0, 80, 45
2, 440696, Note_on_c, 0, 77, 0
2, 440934, Control_c, 0, 64, 127
2, 440944, Note_on_c, 0, 78, 52
2, 440996, Control_c, 0, 64, 0
2, 441032, Note_on_c, 0, 80, 0
2, 441150, Control_c, 0, 64, 127
2, 441178, Note_on_c, 0, 76, 51
2, 441206, Note_on_c, 0, 78, 0
2, 441212, Control_c, 0, 64, 0
2, 441380, Control_c, 0, 64, 127
2, 441408, Note_on_c, 0, 74, 53
2, 441448, Note_on_c, 0, 76, 0
2, 441656, Note_on_c, 0, 73, 42
2, 441658, Control_c, 0, 64, 0
2, 441700, Note_on_c, 0, 74, 0
2, 441826, Control_c, 0, 64, 127
2, 441884, Note_on_c, 0, 71, 62
2, 441888, Control_c, 0, 64, 0
2, 441902, Note_on_c, 0, 73, 0
2, 441996, Control_c, 0, 64, 127
2, 442130, Note_on_c, 0, 69, 47
2, 442133, Note_on_c, 0, 71, 0
2, 442156, Note_on_c, 0, 52, 34
2, 442194, Control_c, 0, 64, 0
2, 442368, Note_on_c, 0, 68, 55
2, 442374, Note_on_c, 0, 62, 59
2, 442422, Note_on_c, 0, 69, 0
2, 442600, Note_on_c, 0, 62, 0
2, 442610, Note_on_c, 0, 76, 57
2, 442632, Note_on_c, 0, 68, 0
2, 442640, Note_on_c, 0, 59, 46
2, 442842, Note_on_c, 0, 59, 0
2, 442842, Note_on_c, 0, 74, 62
2, 442856, Note_on_c, 0, 76, 0
2, 442862, Note_on_c, 0, 62, 46
2, 442952, Note_on_c, 0, 52, 0
2, 442962, Control_c, 0, 64, 127
2, 443014, Note_on_c, 0, 74, 0
2, 443032, Note_on_c, 0, 62, 0
2, 443084, Note_on_c, 0, 59, 47
2, 443286, Control_c, 0, 64, 0
2, 443290, Note_on_c, 0, 59, 0
2, 443296, Note_on_c, 0, 62, 56
2, 443532, Control_c, 0, 64, 127
2, 443535, Note_on_c, 0, 71, 92
2, 443570, Note_on_c, 0, 62, 0
2, 443578, Note_on_c, 0, 52, 51
2, 443640, Control_c, 0, 64, 0
2, 443770, Note_on_c, 0, 69, 80
2, 443782, Note_on_c, 0, 61, 52
2, 443810, Note_on_c, 0, 71, 0
2, 443990, Note_on_c, 0, 78, 83
2, 443996, Note_on_c, 0, 61, 0
2, 444018, Note_on_c, 0, 69, 0
2, 444028, Note_on_c, 0, 57, 44
2, 444224, Note_on_c, 0, 57, 0
2, 444229, Note_on_c, 0, 61, 44
2, 444236, Note_on_c, 0, 76, 72
2, 444254, Control_c, 0, 64, 127
2, 444257, Note_on_c, 0, 78, 0
2, 444420, Note_on_c, 0, 52, 0
2, 444432, Note_on_c, 0, 76, 0
2, 444444, Note_on_c, 0, 61, 0
2, 444476, Note_on_c, 0, 57, 44
2, 444654, Note_on_c, 0, 57, 0
2, 444678, Note_on_c, 0, 61, 56
2, 444928, Note_on_c, 0, 73, 93
2, 444942, Note_on_c, 0, 61, 0
2, 444946, Note_on_c, 0, 50, 61
2, 445022, Control_c, 0, 64, 0
2, 445174, Note_on_c, 0, 71, 110
2, 445210, Note_on_c, 0, 59, 52
2, 445244, Note_on_c, 0, 73, 0
2, 445462, Note_on_c, 0, 59, 0
2, 445462, Note_on_c, 0, 79, 100
2, 445474, Note_on_c, 0, 54, 51
2, 445480, Note_on_c, 0, 71, 0
2, 445738, Note_on_c, 0, 78, 82
2, 445756, Note_on_c, 0, 79, 0
2, 445774, Note_on_c, 0, 54, 0
2, 445782, Note_on_c, 0, 59, 42
2, 445962, Note_on_c, 0, 78, 0
2, 445965, Note_on_c, 0, 59, 0
2, 445974, Note_on_c, 0, 54, 52
2, 445976, Control_c, 0, 64, 127
2, 446058, Note_on_c, 0, 50, 0
2, 446236, Note_on_c, 0, 54, 0
2, 446236, Note_on_c, 0, 59, 42
2, 446558, Control_c, 0, 64, 0
2, 446596, Note_on_c, 0, 59, 0
2, 446596, Note_on_c, 0, 66, 39
2, 446614, Note_on_c, 0, 50, 30
2, 447072, Note_on_c, 0, 50, 0
2, 447126, Control_c, 0, 64, 127
2, 447138, Note_on_c, 0, 76, 30
2, 447158, Note_on_c, 0, 66, 0
2, 447172, Control_c, 0, 64, 0
2, 447382, Note_on_c, 0, 74, 46
2, 447394, Note_on_c, 0, 76, 0
2, 447602, Note_on_c, 0, 74, 0
2, 447614, Note_on_c, 0, 73, 40
2, 447844, Note_on_c, 0, 71, 55
2, 447866, Note_on_c, 0, 73, 0
2, 448108, Note_on_c, 0, 71, 0
2, 448116, Note_on_c, 0, 69, 36
2, 448120, Note_on_c, 0, 62, 34
2, 448144, Note_on_c, 0, 52, 23
2, 448374, Note_on_c, 0, 68, 40
2, 448394, Note_on_c, 0, 69, 0
2, 448554, Note_on_c, 0, 62, 0
2, 448612, Note_on_c, 0, 52, 0
2, 448684, Note_on_c, 0, 69, 37
2, 448696, Note_on_c, 0, 68, 0
2, 448696, Note_on_c, 0, 61, 30
2, 448716, Note_on_c, 0, 57, 15
2, 449124, Control_c, 0, 64, 127
2, 449130, Note_on_c, 0, 57, 0
2, 449130, Note_on_c, 0, 61, 0
2, 449190, Note_on_c, 0, 69, 0
2, 449324, Control_c, 0, 64, 0
2, 449680, Note_on_c, 0, 71, 59
2, 449738, Note_on_c, 0, 76, 61
2, 449804, Note_on_c, 0, 80, 78
2, 449862, Note_on_c, 0, 83, 127
2, 449864, Control_c, 0, 64, 127
2, 449874, Note_on_c, 0, 52, 111
2, 449916, Note_on_c, 0, 76, 0
2, 449950, Note_on_c, 0, 71, 0
2, 450004, Note_on_c, 0, 80, 0
2, 450078, Note_on_c, 0, 56, 84
2, 450110, Note_on_c, 0, 52, 0
2, 450230, Control_c, 0, 64, 0
2, 450310, Note_on_c, 0, 59, 83
2, 450320, Note_on_c, 0, 56, 0
2, 450518, Note_on_c, 0, 59, 0
2, 450538, Note_on_c, 0, 56, 65
2, 450748, Note_on_c, 0, 54, 85
2, 450766, Note_on_c, 0, 56, 0
2, 450900, Note_on_c, 0, 83, 0
2, 450984, Note_on_c, 0, 52, 90
2, 450992, Note_on_c, 0, 54, 0
2, 451224, Note_on_c, 0, 83, 127
2, 451228, Note_on_c, 0, 51, 75
2, 451236, Note_on_c, 0, 52, 0
2, 451330, Note_on_c, 0, 81, 88
2, 451400, Note_on_c, 0, 83, 0
2, 451440, Note_on_c, 0, 80, 87
2, 451458, Note_on_c, 0, 81, 0
2, 451460, Note_on_c, 0, 52, 77
2, 451462, Note_on_c, 0, 51, 0
2, 451550, Note_on_c, 0, 78, 85
2, 451580, Note_on_c, 0, 80, 0
2, 451594, Note_on_c, 0, 78, 0
2, 451616, Note_on_c, 0, 52, 0
2, 451662, Note_on_c, 0, 54, 67
2, 451670, Note_on_c, 0, 78, 85
2, 451798, Note_on_c, 0, 76, 71
2, 451816, Note_on_c, 0, 78, 0
2, 451908, Note_on_c, 0, 75, 87
2, 451914, Note_on_c, 0, 47, 44
2, 451924, Note_on_c, 0, 54, 0
2, 451928, Note_on_c, 0, 76, 0
2, 452016, Note_on_c, 0, 73, 79
2, 452054, Note_on_c, 0, 75, 0
2, 452130, Note_on_c, 0, 49, 57
2, 452136, Note_on_c, 0, 71, 98
2, 452164, Note_on_c, 0, 47, 0
2, 452182, Note_on_c, 0, 73, 0
2, 452230, Note_on_c, 0, 71, 0
2, 452238, Note_on_c, 0, 69, 82
2, 452352, Note_on_c, 0, 68, 87
2, 452360, Note_on_c, 0, 51, 62
2, 452372, Note_on_c, 0, 49, 0
2, 452375, Note_on_c, 0, 69, 0
2, 452464, Note_on_c, 0, 69, 59
2, 452478, Note_on_c, 0, 68, 0
2, 452566, Note_on_c, 0, 51, 0
2, 452569, Note_on_c, 0, 68, 78
2, 452584, Note_on_c, 0, 52, 63
2, 452596, Note_on_c, 0, 69, 0
2, 452668, Note_on_c, 0, 68, 0
2, 452682, Note_on_c, 0, 71, 109
2, 452766, Note_on_c, 0, 52, 0
2, 452792, Note_on_c, 0, 56, 45
2, 452804, Note_on_c, 0, 76, 83
2, 452818, Note_on_c, 0, 71, 0
2, 452910, Note_on_c, 0, 80, 85
2, 452918, Note_on_c, 0, 76, 0
2, 453012, Note_on_c, 0, 56, 0
2, 453040, Note_on_c, 0, 59, 48
2, 453052, Note_on_c, 0, 83, 103
2, 453092, Note_on_c, 0, 80, 0
2, 453292, Note_on_c, 0, 59, 0
2, 453294, Note_on_c, 0, 56, 53
2, 453528, Note_on_c, 0, 54, 57
2, 453531, Note_on_c, 0, 56, 0
2, 453764, Note_on_c, 0, 54, 0
2, 453800, Note_on_c, 0, 52, 53
2, 453842, Control_c, 0, 64, 127
2, 453860, Note_on_c, 0, 83, 0
2, 453950, Control_c, 0, 64, 0
2, 454004, Note_on_c, 0, 52, 0
2, 454018, Note_on_c, 0, 83, 106
2, 454026, Note_on_c, 0, 51, 53
2, 454102, Note_on_c, 0, 83, 0
2, 454130, Note_on_c, 0, 81, 56
2, 454226, Note_on_c, 0, 80, 72
2, 454238, Note_on_c, 0, 81, 0
2, 454264, Note_on_c, 0, 51, 0
2, 454270, Note_on_c, 0, 52, 57
2, 454340, Note_on_c, 0, 78, 76
2, 454352, Note_on_c, 0, 80, 0
2, 454382, Note_on_c, 0, 78, 0
2, 454446, Note_on_c, 0, 78, 70
2, 454448, Note_on_c, 0, 52, 0
2, 454466, Note_on_c, 0, 54, 53
2, 454572, Note_on_c, 0, 78, 0
2, 454572, Note_on_c, 0, 76, 67
2, 454686, Note_on_c, 0, 75, 74
2, 454691, Note_on_c, 0, 54, 0
2, 454704, Note_on_c, 0, 47, 36
2, 454710, Note_on_c, 0, 76, 0
2, 454800, Note_on_c, 0, 73, 65
2, 454834, Note_on_c, 0, 75, 0
2, 454920, Note_on_c, 0, 49, 44
2, 454922, Note_on_c, 0, 71, 79
2, 454930, Note_on_c, 0, 47, 0
2, 454936, Note_on_c, 0, 73, 0
2, 454980, Note_on_c, 0, 71, 0
2, 455020, Note_on_c, 0, 69, 64
2, 455134, Note_on_c, 0, 68, 71
2, 455160, Note_on_c, 0, 69, 0
2, 455160, Note_on_c, 0, 51, 42
2, 455166, Note_on_c, 0, 49, 0
2, 455242, Note_on_c, 0, 68, 0
2, 455245, Note_on_c, 0, 69, 45
2, 455354, Note_on_c, 0, 51, 0
2, 455366, Note_on_c, 0, 69, 0
2, 455376, Note_on_c, 0, 68, 54
2, 455413, Note_on_c, 0, 52, 42
2, 455460, Note_on_c, 0, 68, 0
2, 455504, Note_on_c, 0, 71, 63
2, 455610, Note_on_c, 0, 69, 53
2, 455613, Note_on_c, 0, 71, 0
2, 455704, Note_on_c, 0, 69, 0
2, 455712, Note_on_c, 0, 68, 64
2, 455834, Note_on_c, 0, 68, 0
2, 455840, Note_on_c, 0, 69, 68
2, 455914, Note_on_c, 0, 52, 0
2, 455944, Note_on_c, 0, 71, 87
2, 455946, Note_on_c, 0, 69, 0
2, 456050, Note_on_c, 0, 71, 0
2, 456050, Note_on_c, 0, 73, 82
2, 456164, Note_on_c, 0, 75, 86
2, 456204, Note_on_c, 0, 73, 0
2, 456252, Note_on_c, 0, 75, 0
2, 456268, Note_on_c, 0, 76, 82
2, 456374, Note_on_c, 0, 78, 88
2, 456406, Note_on_c, 0, 76, 0
2, 456486, Note_on_c, 0, 80, 94
2, 456526, Note_on_c, 0, 78, 0
2, 456586, Note_on_c, 0, 81, 94
2, 456608, Note_on_c, 0, 80, 0
2, 456704, Note_on_c, 0, 83, 117
2, 456718, Note_on_c, 0, 81, 0
2, 456810, Note_on_c, 0, 85, 83
2, 456840, Note_on_c, 0, 83, 0
2, 456918, Note_on_c, 0, 87, 77
2, 456946, Note_on_c, 0, 85, 0
2, 457034, Note_on_c, 0, 88, 85
2, 457060, Note_on_c, 0, 87, 0
2, 457152, Note_on_c, 0, 87, 60
2, 457198, Note_on_c, 0, 88, 0
2, 457272, Note_on_c, 0, 85, 68
2, 457294, Note_on_c, 0, 87, 0
2, 457372, Note_on_c, 0, 83, 90
2, 457404, Note_on_c, 0, 85, 0
2, 457464, Note_on_c, 0, 83, 0
2, 457498, Note_on_c, 0, 81, 52
2, 457582, Note_on_c, 0, 80, 67
2, 457598, Note_on_c, 0, 81, 0
2, 457702, Note_on_c, 0, 78, 71
2, 457786, Note_on_c, 0, 80, 0
2, 457818, Note_on_c, 0, 78, 0
2, 457828, Note_on_c, 0, 76, 44
2, 457898, Control_c, 0, 64, 127
2, 457910, Note_on_c, 0, 76, 0
2, 457920, Note_on_c, 0, 75, 54
2, 458036, Control_c, 0, 64, 0
2, 458068, Note_on_c, 0, 75, 0
2, 458078, Note_on_c, 0, 73, 46
2, 458102, Note_on_c, 0, 66, 17
2, 458112, Note_on_c, 0, 57, 29
2, 458266, Control_c, 0, 64, 127
2, 458270, Note_on_c, 0, 73, 0
2, 458300, Note_on_c, 0, 57, 0
2, 458496, Note_on_c, 0, 66, 0
2, 458550, Note_on_c, 0, 85, 64
2, 458682, Note_on_c, 0, 85, 0
2, 458686, Note_on_c, 0, 76, 61
2, 458692, Note_on_c, 0, 68, 33
2, 458726, Control_c, 0, 64, 0
2, 458736, Note_on_c, 0, 59, 30
2, 459066, Control_c, 0, 64, 127
2, 459184, Note_on_c, 0, 68, 0
2, 459234, Control_c, 0, 64, 0
2, 459246, Note_on_c, 0, 76, 0
2, 459248, Note_on_c, 0, 80, 45
2, 459254, Note_on_c, 0, 75, 34
2, 459268, Note_on_c, 0, 69, 17
2, 459514, Note_on_c, 0, 80, 0
2, 459546, Note_on_c, 0, 78, 37
2, 459708, Note_on_c, 0, 75, 0
2, 459756, Note_on_c, 0, 59, 0
2, 459764, Note_on_c, 0, 69, 0
2, 459838, Note_on_c, 0, 68, 28
2, 459838, Note_on_c, 0, 76, 42
2, 459846, Note_on_c, 0, 78, 0
2, 459860, Note_on_c, 0, 64, 28
2, 460064, Control_c, 0, 64, 127
2, 460110, Note_on_c, 0, 64, 0
2, 460202, Control_c, 0, 64, 0
2, 460510, Control_c, 0, 64, 127
2, 460588, Note_on_c, 0, 52, 28
2, 460668, Note_on_c, 0, 68, 0
2, 460802, Control_c, 0, 64, 0
2, 460919, Note_on_c, 0, 76, 0
2, 461082, Note_on_c, 0, 52, 0
2, 461598, Note_on_c, 0, 64, 61
2, 461750, Note_on_c, 0, 76, 82
2, 461950, Note_on_c, 0, 64, 0
2, 462030, Control_c, 0, 64, 127
2, 462252, Note_on_c, 0, 66, 53
2, 462276, Note_on_c, 0, 76, 0
2, 462346, Note_on_c, 0, 78, 98
2, 462492, Control_c, 0, 64, 0
2, 462592, Note_on_c, 0, 66, 0
2, 462676, Control_c, 0, 64, 127
2, 462748, Note_on_c, 0, 67, 72
2, 462846, Note_on_c, 0, 78, 0
2, 462892, Note_on_c, 0, 79, 101
2, 462952, Control_c, 0, 64, 0
2, 462976, Note_on_c, 0, 67, 0
2, 463136, Control_c, 0, 64, 127
2, 463238, Note_on_c, 0, 79, 0
2, 463380, Note_on_c, 0, 54, 33
2, 463420, Note_on_c, 0, 71, 88
2, 463612, Control_c, 0, 64, 0
2, 463702, Note_on_c, 0, 61, 55
2, 463804, Note_on_c, 0, 54, 0
2, 463932, Note_on_c, 0, 61, 0
2, 463932, Note_on_c, 0, 66, 45
2, 463958, Note_on_c, 0, 70, 45
2, 464002, Note_on_c, 0, 71, 0
2, 464206, Note_on_c, 0, 66, 0
2, 464210, Note_on_c, 0, 64, 60
2, 464304, Control_c, 0, 64, 127
2, 464392, Note_on_c, 0, 70, 0
2, 464408, Note_on_c, 0, 64, 0
2, 464428, Note_on_c, 0, 62, 61
2, 464534, Control_c, 0, 64, 0
2, 464652, Note_on_c, 0, 61, 52
2, 464654, Note_on_c, 0, 62, 0
2, 464732, Note_on_c, 0, 70, 76
2, 464880, Note_on_c, 0, 70, 0
2, 464880, Note_on_c, 0, 73, 64
2, 464882, Note_on_c, 0, 61, 0
2, 464912, Note_on_c, 0, 54, 49
2, 465142, Note_on_c, 0, 54, 0
2, 465160, Note_on_c, 0, 62, 47
2, 465342, Note_on_c, 0, 62, 0
2, 465374, Note_on_c, 0, 66, 32
2, 465386, Note_on_c, 0, 71, 62
2, 465456, Note_on_c, 0, 73, 0
2, 465650, Note_on_c, 0, 66, 0
2, 465652, Note_on_c, 0, 62, 41
2, 465804, Note_on_c, 0, 71, 0
2, 465882, Note_on_c, 0, 61, 41
2, 465894, Note_on_c, 0, 62, 0
2, 466142, Note_on_c, 0, 59, 41
2, 466158, Note_on_c, 0, 61, 0
2, 466194, Control_c, 0, 64, 127
2, 466242, Note_on_c, 0, 71, 67
2, 466244, Note_on_c, 0, 59, 0
2, 466388, Note_on_c, 0, 74, 76
2, 466396, Note_on_c, 0, 54, 51
2, 466416, Note_on_c, 0, 71, 0
2, 466456, Control_c, 0, 64, 0
2, 466620, Note_on_c, 0, 58, 44
2, 466646, Note_on_c, 0, 54, 0
2, 466764, Control_c, 0, 64, 127
2, 466856, Control_c, 0, 64, 0
2, 466859, Note_on_c, 0, 64, 41
2, 466859, Note_on_c, 0, 73, 40
2, 466863, Note_on_c, 0, 58, 0
2, 466884, Note_on_c, 0, 74, 0
2, 467090, Note_on_c, 0, 64, 0
2, 467102, Note_on_c, 0, 61, 41
2, 467162, Control_c, 0, 64, 127
2, 467176, Note_on_c, 0, 73, 0
2, 467316, Control_c, 0, 64, 0
2, 467340, Note_on_c, 0, 61, 0
2, 467352, Note_on_c, 0, 59, 29
2, 467562, Note_on_c, 0, 59, 0
2, 467570, Note_on_c, 0, 58, 29
2, 467592, Control_c, 0, 64, 127
2, 467656, Note_on_c, 0, 73, 57
2, 467730, Control_c, 0, 64, 0
2, 467744, Note_on_c, 0, 73, 0
2, 467826, Note_on_c, 0, 76, 67
2, 467864, Note_on_c, 0, 59, 40
2, 467870, Note_on_c, 0, 58, 0
2, 468052, Note_on_c, 0, 74, 78
2, 468070, Note_on_c, 0, 76, 0
2, 468146, Control_c, 0, 64, 127
2, 468188, Note_on_c, 0, 59, 0
2, 468234, Note_on_c, 0, 74, 0
2, 468288, Note_on_c, 0, 77, 86
2, 468362, Control_c, 0, 64, 0
2, 468534, Note_on_c, 0, 76, 85
2, 468560, Control_c, 0, 64, 127
2, 468562, Note_on_c, 0, 77, 0
2, 468662, Note_on_c, 0, 76, 0
2, 468854, Note_on_c, 0, 79, 67
2, 468914, Control_c, 0, 64, 0
2, 469114, Control_c, 0, 64, 127
2, 469142, Note_on_c, 0, 79, 0
2, 469160, Note_on_c, 0, 77, 51
2, 469242, Note_on_c, 0, 77, 0
2, 469506, Note_on_c, 0, 69, 40
2, 469528, Note_on_c, 0, 52, 29
2, 469668, Control_c, 0, 64, 0
2, 469822, Note_on_c, 0, 59, 28
2, 469864, Note_on_c, 0, 52, 0
2, 469882, Control_c, 0, 64, 127
2, 469928, Note_on_c, 0, 59, 0
2, 470050, Note_on_c, 0, 68, 38
2, 470062, Note_on_c, 0, 64, 38
2, 470072, Note_on_c, 0, 69, 0
2, 470128, Control_c, 0, 64, 0
2, 470298, Note_on_c, 0, 64, 0
2, 470320, Note_on_c, 0, 62, 41
2, 470358, Note_on_c, 0, 68, 0
2, 470358, Control_c, 0, 64, 127
2, 470528, Note_on_c, 0, 62, 0
2, 470554, Note_on_c, 0, 60, 38
2, 470604, Control_c, 0, 64, 0
2, 470798, Note_on_c, 0, 60, 0
2, 470801, Note_on_c, 0, 59, 36
2, 470834, Control_c, 0, 64, 127
2, 470876, Note_on_c, 0, 68, 57
2, 470996, Note_on_c, 0, 68, 0
2, 471004, Control_c, 0, 64, 0
2, 471044, Note_on_c, 0, 71, 67
2, 471047, Note_on_c, 0, 59, 0
2, 471066, Note_on_c, 0, 52, 44
2, 471294, Note_on_c, 0, 60, 55
2, 471318, Note_on_c, 0, 52, 0
2, 471358, Control_c, 0, 64, 127
2, 471530, Note_on_c, 0, 60, 0
2, 471536, Note_on_c, 0, 64, 60
2, 471540, Note_on_c, 0, 69, 36
2, 471542, Control_c, 0, 64, 0
2, 471576, Note_on_c, 0, 71, 0
2, 471744, Note_on_c, 0, 64, 0
2, 471772, Note_on_c, 0, 60, 57
2, 471802, Control_c, 0, 64, 127
2, 471874, Note_on_c, 0, 69, 0
2, 471982, Note_on_c, 0, 60, 0
2, 472010, Note_on_c, 0, 59, 53
2, 472034, Control_c, 0, 64, 0
2, 472208, Note_on_c, 0, 59, 0
2, 472226, Note_on_c, 0, 57, 47
2, 472278, Control_c, 0, 64, 127
2, 472300, Note_on_c, 0, 69, 64
2, 472444, Note_on_c, 0, 57, 0
2, 472447, Control_c, 0, 64, 0
2, 472452, Note_on_c, 0, 69, 0
2, 472466, Note_on_c, 0, 72, 76
2, 472478, Note_on_c, 0, 52, 54
2, 472688, Note_on_c, 0, 56, 55
2, 472712, Note_on_c, 0, 52, 0
2, 472848, Control_c, 0, 64, 127
2, 472894, Control_c, 0, 64, 0
2, 472928, Note_on_c, 0, 62, 45
2, 472931, Note_on_c, 0, 56, 0
2, 472958, Note_on_c, 0, 71, 55
2, 473034, Note_on_c, 0, 72, 0
2, 473144, Note_on_c, 0, 62, 0
2, 473178, Note_on_c, 0, 59, 41
2, 473278, Control_c, 0, 64, 127
2, 473324, Control_c, 0, 64, 0
2, 473392, Note_on_c, 0, 57, 44
2, 473395, Note_on_c, 0, 59, 0
2, 473504, Note_on_c, 0, 71, 0
2, 473614, Note_on_c, 0, 57, 0
2, 473616, Note_on_c, 0, 56, 48
2, 473724, Control_c, 0, 64, 127
2, 473732, Note_on_c, 0, 71, 72
2, 473882, Note_on_c, 0, 74, 83
2, 473892, Control_c, 0, 64, 0
2, 473894, Note_on_c, 0, 71, 0
2, 473894, Note_on_c, 0, 56, 0
2, 473908, Note_on_c, 0, 57, 44
2, 474136, Note_on_c, 0, 72, 87
2, 474184, Control_c, 0, 64, 127
2, 474200, Note_on_c, 0, 74, 0
2, 474338, Control_c, 0, 64, 0
2, 474366, Note_on_c, 0, 71, 105
2, 474388, Note_on_c, 0, 72, 0
2, 474522, Control_c, 0, 64, 127
2, 474540, Note_on_c, 0, 71, 0
2, 474608, Note_on_c, 0, 69, 62
2, 474614, Note_on_c, 0, 57, 0
2, 474844, Note_on_c, 0, 43, 52
2, 474844, Note_on_c, 0, 81, 95
2, 474844, Control_c, 0, 64, 0
2, 474847, Note_on_c, 0, 69, 0
2, 474860, Note_on_c, 0, 55, 49
2, 474996, Note_on_c, 0, 81, 0
2, 475030, Control_c, 0, 64, 127
2, 475068, Note_on_c, 0, 81, 95
2, 475126, Note_on_c, 0, 55, 0
2, 475206, Note_on_c, 0, 81, 0
2, 475264, Note_on_c, 0, 43, 0
2, 475304, Note_on_c, 0, 83, 127
2, 475320, Note_on_c, 0, 53, 91
2, 475322, Note_on_c, 0, 41, 70
2, 475368, Control_c, 0, 64, 0
2, 475552, Note_on_c, 0, 81, 114
2, 475644, Note_on_c, 0, 83, 0
2, 475660, Control_c, 0, 64, 127
2, 475796, Note_on_c, 0, 79, 113
2, 475860, Control_c, 0, 64, 0
2, 475876, Note_on_c, 0, 81, 0
2, 476022, Note_on_c, 0, 77, 105
2, 476070, Note_on_c, 0, 79, 0
2, 476073, Control_c, 0, 64, 127
2, 476098, Note_on_c, 0, 41, 0
2, 476156, Note_on_c, 0, 53, 0
2, 476244, Note_on_c, 0, 76, 102
2, 476250, Note_on_c, 0, 77, 0
2, 476468, Note_on_c, 0, 75, 102
2, 476516, Note_on_c, 0, 76, 0
2, 476714, Note_on_c, 0, 57, 67
2, 476724, Note_on_c, 0, 84, 103
2, 476730, Note_on_c, 0, 53, 84
2, 476734, Control_c, 0, 64, 0
2, 476760, Note_on_c, 0, 75, 0
2, 476956, Note_on_c, 0, 56, 70
2, 476996, Note_on_c, 0, 57, 0
2, 477206, Note_on_c, 0, 57, 74
2, 477280, Note_on_c, 0, 56, 0
2, 477446, Note_on_c, 0, 57, 0
2, 477464, Note_on_c, 0, 60, 62
2, 477720, Note_on_c, 0, 60, 0
2, 477730, Note_on_c, 0, 75, 69
2, 477742, Note_on_c, 0, 59, 42
2, 477800, Note_on_c, 0, 84, 0
2, 477960, Note_on_c, 0, 59, 0
2, 478008, Note_on_c, 0, 57, 45
2, 478164, Control_c, 0, 64, 127
2, 478212, Note_on_c, 0, 53, 0
2, 478378, Control_c, 0, 64, 0
2, 478410, Note_on_c, 0, 76, 49
2, 478420, Note_on_c, 0, 57, 0
2, 478420, Note_on_c, 0, 56, 29
2, 478436, Note_on_c, 0, 52, 36
2, 478458, Note_on_c, 0, 75, 0
2, 479056, Control_c, 0, 64, 127
2, 479168, Note_on_c, 0, 56, 0
2, 479294, Note_on_c, 0, 52, 0
2, 479468, Note_on_c, 0, 76, 0
2, 479474, Note_on_c, 0, 78, 62
2, 479600, Note_on_c, 0, 78, 0
2, 479622, Note_on_c, 0, 76, 30
2, 479692, Note_on_c, 0, 76, 0
2, 479732, Control_c, 0, 64, 0
2, 479764, Note_on_c, 0, 76, 74
2, 479868, Note_on_c, 0, 74, 84
2, 479888, Note_on_c, 0, 76, 0
2, 479934, Note_on_c, 0, 74, 0
2, 479976, Control_c, 0, 64, 127
2, 479990, Note_on_c, 0, 73, 71
2, 480082, Note_on_c, 0, 71, 100
2, 480120, Note_on_c, 0, 71, 0
2, 480123, Note_on_c, 0, 73, 0
2, 480254, Note_on_c, 0, 61, 91
2, 480336, Note_on_c, 0, 64, 77
2, 480384, Note_on_c, 0, 69, 98
2, 480384, Note_on_c, 0, 57, 64
2, 480387, Note_on_c, 0, 45, 54
2, 480392, Control_c, 0, 64, 0
2, 480408, Note_on_c, 0, 61, 0
2, 480488, Note_on_c, 0, 64, 0
2, 480730, Control_c, 0, 64, 127
2, 481064, Note_on_c, 0, 57, 0
2, 481184, Note_on_c, 0, 45, 0
2, 481390, Note_on_c, 0, 64, 109
2, 481392, Note_on_c, 0, 52, 109
2, 481400, Note_on_c, 0, 40, 106
2, 481420, Note_on_c, 0, 69, 0
2, 481482, Control_c, 0, 64, 0
2, 481592, Note_on_c, 0, 40, 0
2, 481616, Note_on_c, 0, 52, 0
2, 481666, Control_c, 0, 64, 127
2, 481836, Note_on_c, 0, 64, 0
2, 481852, Control_c, 0, 64, 0
2, 481874, Note_on_c, 0, 73, 103
2, 481876, Note_on_c, 0, 61, 106
2, 481884, Note_on_c, 0, 49, 97
2, 482142, Control_c, 0, 64, 127
2, 482188, Note_on_c, 0, 74, 94
2, 482210, Note_on_c, 0, 61, 0
2, 482252, Note_on_c, 0, 73, 0
2, 482290, Note_on_c, 0, 71, 99
2, 482312, Control_c, 0, 64, 0
2, 482332, Note_on_c, 0, 74, 0
2, 482434, Note_on_c, 0, 69, 77
2, 482444, Note_on_c, 0, 71, 0
2, 482444, Note_on_c, 0, 49, 0
2, 482456, Note_on_c, 0, 57, 46
2, 482470, Note_on_c, 0, 45, 46
2, 482752, Note_on_c, 0, 57, 0
2, 482758, Control_c, 0, 64, 127
2, 482800, Note_on_c, 0, 45, 0
2, 482862, Note_on_c, 0, 69, 0
2, 482926, Control_c, 0, 64, 0
2, 483428, Note_on_c, 0, 76, 56
2, 483728, Note_on_c, 0, 78, 54
2, 483770, Note_on_c, 0, 76, 0
2, 483852, Note_on_c, 0, 74, 78
2, 483858, Note_on_c, 0, 78, 0
2, 483896, Control_c, 0, 64, 127
2, 483936, Note_on_c, 0, 74, 0
2, 483986, Note_on_c, 0, 73, 76
2, 484064, Control_c, 0, 64, 0
2, 484294, Control_c, 0, 64, 127
2, 484418, Control_c, 0, 64, 0
2, 484440, Note_on_c, 0, 85, 78
2, 484446, Note_on_c, 0, 66, 32
2, 484462, Note_on_c, 0, 73, 0
2, 484480, Note_on_c, 0, 57, 29
2, 484632, Control_c, 0, 64, 127
2, 484674, Note_on_c, 0, 57, 0
2, 484726, Note_on_c, 0, 85, 0
2, 484736, Note_on_c, 0, 66, 0
2, 484976, Note_on_c, 0, 75, 53
2, 484992, Note_on_c, 0, 69, 21
2, 485038, Note_on_c, 0, 59, 14
2, 485078, Control_c, 0, 64, 0
2, 485400, Control_c, 0, 64, 127
2, 485568, Note_on_c, 0, 69, 0
2, 485606, Note_on_c, 0, 76, 36
2, 485654, Note_on_c, 0, 68, 10
2, 485662, Control_c, 0, 64, 0
2, 485666, Note_on_c, 0, 75, 0
2, 485688, Note_on_c, 0, 64, 15
2, 485694, Note_on_c, 0, 59, 0
2, 486082, Note_on_c, 0, 64, 0
2, 486114, Note_on_c, 0, 68, 0
2, 486138, Control_c, 0, 64, 127
2, 486278, Control_c, 0, 64, 0
2, 486584, Control_c, 0, 64, 127
2, 486638, Note_on_c, 0, 77, 44
2, 486734, Note_on_c, 0, 76, 0
2, 486964, Note_on_c, 0, 80, 48
2, 486984, Control_c, 0, 64, 0
2, 486987, Note_on_c, 0, 77, 0
2, 487184, Control_c, 0, 64, 127
2, 487230, Control_c, 0, 64, 0
2, 487238, Note_on_c, 0, 78, 48
2, 487304, Note_on_c, 0, 80, 0
2, 487430, Control_c, 0, 64, 127
2, 487480, Note_on_c, 0, 76, 54
2, 487504, Note_on_c, 0, 78, 0
2, 487698, Note_on_c, 0, 74, 67
2, 487700, Note_on_c, 0, 76, 0
2, 487928, Note_on_c, 0, 73, 56
2, 487984, Note_on_c, 0, 74, 0
2, 488168, Note_on_c, 0, 71, 64
2, 488196, Note_on_c, 0, 73, 0
2, 488382, Control_c, 0, 64, 0
2, 488412, Note_on_c, 0, 69, 41
2, 488436, Note_on_c, 0, 71, 0
2, 488458, Note_on_c, 0, 52, 38
2, 488659, Note_on_c, 0, 68, 52
2, 488702, Note_on_c, 0, 69, 0
2, 488730, Note_on_c, 0, 62, 28
2, 488916, Note_on_c, 0, 76, 47
2, 488932, Note_on_c, 0, 62, 0
2, 488932, Note_on_c, 0, 68, 0
2, 488980, Note_on_c, 0, 59, 31
2, 489184, Note_on_c, 0, 74, 42
2, 489189, Note_on_c, 0, 59, 0
2, 489189, Note_on_c, 0, 76, 0
2, 489198, Note_on_c, 0, 62, 39
2, 489258, Control_c, 0, 64, 127
2, 489366, Note_on_c, 0, 62, 0
2, 489372, Note_on_c, 0, 74, 0
2, 489442, Note_on_c, 0, 59, 37
2, 489602, Note_on_c, 0, 52, 0
2, 489662, Note_on_c, 0, 59, 0
2, 489674, Note_on_c, 0, 62, 37
2, 489892, Note_on_c, 0, 62, 0
2, 489932, Note_on_c, 0, 71, 64
2, 489950, Control_c, 0, 64, 0
2, 489960, Note_on_c, 0, 52, 45
2, 490170, Note_on_c, 0, 69, 60
2, 490176, Note_on_c, 0, 71, 0
2, 490182, Note_on_c, 0, 61, 39
2, 490408, Note_on_c, 0, 61, 0
2, 490416, Note_on_c, 0, 78, 64
2, 490436, Note_on_c, 0, 69, 0
2, 490460, Note_on_c, 0, 57, 26
2, 490648, Note_on_c, 0, 76, 48
2, 490656, Note_on_c, 0, 57, 0
2, 490656, Note_on_c, 0, 61, 40
2, 490672, Note_on_c, 0, 78, 0
2, 490848, Note_on_c, 0, 61, 0
2, 490870, Note_on_c, 0, 76, 0
2, 490906, Note_on_c, 0, 57, 41
2, 490932, Note_on_c, 0, 52, 0
2, 490932, Control_c, 0, 64, 127
2, 491084, Note_on_c, 0, 57, 0
2, 491112, Note_on_c, 0, 61, 44
2, 491330, Note_on_c, 0, 61, 0
2, 491372, Note_on_c, 0, 71, 92
2, 491374, Note_on_c, 0, 52, 51
2, 491440, Control_c, 0, 64, 0
2, 491630, Note_on_c, 0, 69, 84
2, 491648, Note_on_c, 0, 71, 0
2, 491664, Note_on_c, 0, 61, 46
2, 491884, Note_on_c, 0, 61, 0
2, 491890, Note_on_c, 0, 69, 0
2, 491896, Note_on_c, 0, 81, 90
2, 491931, Note_on_c, 0, 57, 33
2, 492162, Note_on_c, 0, 57, 0
2, 492162, Control_c, 0, 64, 127
2, 492172, Note_on_c, 0, 79, 85
2, 492176, Note_on_c, 0, 61, 41
2, 492218, Note_on_c, 0, 81, 0
2, 492254, Control_c, 0, 64, 0
2, 492394, Note_on_c, 0, 61, 0
2, 492422, Control_c, 0, 64, 127
2, 492424, Note_on_c, 0, 57, 41
2, 492444, Note_on_c, 0, 79, 0
2, 492630, Note_on_c, 0, 57, 0
2, 492646, Note_on_c, 0, 52, 0
2, 492668, Note_on_c, 0, 61, 53
2, 492766, Note_on_c, 0, 61, 0
2, 493038, Control_c, 0, 64, 0
2, 493041, Note_on_c, 0, 79, 64
2, 493060, Note_on_c, 0, 62, 22
2, 493062, Note_on_c, 0, 57, 24
2, 493068, Note_on_c, 0, 50, 22
2, 493308, Note_on_c, 0, 78, 64
2, 493376, Control_c, 0, 64, 127
2, 493400, Note_on_c, 0, 79, 0
2, 493406, Control_c, 0, 64, 0
2, 493552, Note_on_c, 0, 76, 63
2, 493578, Note_on_c, 0, 78, 0
2, 493622, Note_on_c, 0, 50, 0
2, 493630, Note_on_c, 0, 57, 0
2, 493634, Note_on_c, 0, 62, 0
2, 493776, Note_on_c, 0, 74, 77
2, 493782, Note_on_c, 0, 76, 0
2, 494036, Note_on_c, 0, 73, 70
2, 494056, Note_on_c, 0, 74, 0
2, 494262, Note_on_c, 0, 71, 86
2, 494284, Note_on_c, 0, 73, 0
2, 494556, Note_on_c, 0, 49, 45
2, 494564, Note_on_c, 0, 76, 64
2, 494614, Note_on_c, 0, 71, 0
2, 494650, Note_on_c, 0, 76, 0
2, 494690, Note_on_c, 0, 78, 61
2, 494742, Control_c, 0, 64, 127
2, 494746, Note_on_c, 0, 76, 45
2, 494776, Note_on_c, 0, 78, 0
2, 494816, Note_on_c, 0, 76, 0
2, 494838, Note_on_c, 0, 74, 64
2, 494896, Control_c, 0, 64, 0
2, 494918, Note_on_c, 0, 76, 44
2, 494948, Note_on_c, 0, 74, 0
2, 495080, Note_on_c, 0, 49, 0
2, 495090, Note_on_c, 0, 50, 34
2, 495130, Note_on_c, 0, 78, 63
2, 495142, Control_c, 0, 64, 127
2, 495144, Note_on_c, 0, 76, 0
2, 495280, Note_on_c, 0, 50, 0
2, 495282, Control_c, 0, 64, 0
2, 495292, Note_on_c, 0, 69, 55
2, 495292, Note_on_c, 0, 61, 39
2, 495302, Note_on_c, 0, 78, 0
2, 495352, Note_on_c, 0, 52, 37
2, 495666, Control_c, 0, 64, 127
2, 495730, Note_on_c, 0, 61, 0
2, 495938, Note_on_c, 0, 68, 47
2, 495970, Note_on_c, 0, 69, 0
2, 496002, Note_on_c, 0, 59, 26
2, 496050, Control_c, 0, 64, 0
2, 496202, Note_on_c, 0, 52, 0
2, 496218, Control_c, 0, 64, 127
2, 496286, Note_on_c, 0, 59, 0
2, 496286, Note_on_c, 0, 69, 62
2, 496348, Note_on_c, 0, 68, 0
2, 496360, Note_on_c, 0, 73, 71
2, 496406, Note_on_c, 0, 69, 0
2, 496418, Control_c, 0, 64, 0
2, 496440, Note_on_c, 0, 76, 93
2, 496440, Note_on_c, 0, 57, 47
2, 496490, Note_on_c, 0, 73, 0
2, 496702, Note_on_c, 0, 61, 54
2, 496724, Control_c, 0, 64, 127
2, 496728, Note_on_c, 0, 76, 0
2, 496742, Note_on_c, 0, 57, 0
2, 496944, Note_on_c, 0, 61, 0
2, 496950, Note_on_c, 0, 76, 82
2, 496968, Note_on_c, 0, 64, 55
2, 497062, Control_c, 0, 64, 0
2, 497178, Note_on_c, 0, 64, 0
2, 497192, Note_on_c, 0, 61, 64
2, 497278, Control_c, 0, 64, 127
2, 497424, Note_on_c, 0, 61, 0
2, 497432, Control_c, 0, 64, 0
2, 497438, Note_on_c, 0, 59, 56
2, 497658, Note_on_c, 0, 59, 0
2, 497661, Control_c, 0, 64, 127
2, 497670, Note_on_c, 0, 57, 53
2, 497772, Note_on_c, 0, 76, 0
2, 497912, Note_on_c, 0, 57, 0
2, 497917, Note_on_c, 0, 56, 45
2, 497928, Note_on_c, 0, 76, 72
2, 497938, Control_c, 0, 64, 0
2, 498066, Note_on_c, 0, 74, 67
2, 498078, Note_on_c, 0, 76, 0
2, 498174, Note_on_c, 0, 73, 64
2, 498192, Note_on_c, 0, 74, 0
2, 498192, Note_on_c, 0, 57, 41
2, 498210, Note_on_c, 0, 56, 0
2, 498262, Control_c, 0, 64, 127
2, 498298, Note_on_c, 0, 71, 94
2, 498324, Note_on_c, 0, 73, 0
2, 498338, Note_on_c, 0, 71, 0
2, 498420, Note_on_c, 0, 57, 0
2, 498434, Note_on_c, 0, 71, 63
2, 498454, Note_on_c, 0, 59, 40
2, 498550, Note_on_c, 0, 69, 67
2, 498580, Note_on_c, 0, 71, 0
2, 498600, Control_c, 0, 64, 0
2, 498658, Note_on_c, 0, 68, 70
2, 498686, Note_on_c, 0, 52, 60
2, 498698, Note_on_c, 0, 69, 0
2, 498736, Note_on_c, 0, 59, 0
2, 498782, Note_on_c, 0, 66, 60
2, 498814, Note_on_c, 0, 68, 0
2, 498898, Note_on_c, 0, 54, 68
2, 498912, Note_on_c, 0, 64, 72
2, 498922, Note_on_c, 0, 66, 0
2, 498922, Control_c, 0, 64, 127
2, 498925, Note_on_c, 0, 52, 0
2, 499016, Note_on_c, 0, 62, 80
2, 499040, Note_on_c, 0, 64, 0
2, 499118, Note_on_c, 0, 61, 82
2, 499136, Note_on_c, 0, 62, 0
2, 499136, Note_on_c, 0, 54, 0
2, 499136, Note_on_c, 0, 56, 49
2, 499216, Note_on_c, 0, 56, 0
2, 499218, Note_on_c, 0, 62, 77
2, 499238, Note_on_c, 0, 61, 0
2, 499340, Note_on_c, 0, 62, 0
2, 499340, Note_on_c, 0, 61, 76
2, 499352, Control_c, 0, 64, 0
2, 499378, Note_on_c, 0, 57, 61
2, 499466, Note_on_c, 0, 61, 0
2, 499476, Note_on_c, 0, 64, 91
2, 499602, Note_on_c, 0, 69, 79
2, 499607, Note_on_c, 0, 64, 0
2, 499628, Note_on_c, 0, 61, 61
2, 499662, Note_on_c, 0, 57, 0
2, 499724, Note_on_c, 0, 73, 82
2, 499748, Note_on_c, 0, 69, 0
2, 499876, Note_on_c, 0, 61, 0
2, 499898, Note_on_c, 0, 76, 79
2, 499901, Note_on_c, 0, 64, 56
2, 499934, Note_on_c, 0, 73, 0
2, 500140, Note_on_c, 0, 64, 0
2, 500156, Note_on_c, 0, 61, 52
2, 500388, Note_on_c, 0, 61, 0
2, 500410, Note_on_c, 0, 59, 45
2, 500598, Control_c, 0, 64, 127
2, 500604, Note_on_c, 0, 76, 0
2, 500622, Note_on_c, 0, 59, 0
2, 500652, Note_on_c, 0, 88, 72
2, 500664, Note_on_c, 0, 57, 42
2, 500780, Note_on_c, 0, 88, 0
2, 500894, Note_on_c, 0, 57, 0
2, 500904, Note_on_c, 0, 56, 45
2, 500912, Note_on_c, 0, 88, 84
2, 500950, Control_c, 0, 64, 0
2, 501034, Note_on_c, 0, 86, 79
2, 501050, Note_on_c, 0, 88, 0
2, 501148, Note_on_c, 0, 85, 82
2, 501158, Note_on_c, 0, 57, 45
2, 501168, Note_on_c, 0, 56, 0
2, 501176, Note_on_c, 0, 86, 0
2, 501280, Note_on_c, 0, 83, 101
2, 501300, Note_on_c, 0, 85, 0
2, 501320, Note_on_c, 0, 83, 0
2, 501358, Note_on_c, 0, 57, 0
2, 501386, Note_on_c, 0, 83, 74
2, 501408, Note_on_c, 0, 59, 45
2, 501490, Note_on_c, 0, 81, 31
2, 501508, Note_on_c, 0, 83, 0
2, 501636, Note_on_c, 0, 80, 74
2, 501638, Note_on_c, 0, 52, 61
2, 501650, Note_on_c, 0, 81, 0
2, 501672, Note_on_c, 0, 59, 0
2, 501770, Note_on_c, 0, 78, 70
2, 501790, Note_on_c, 0, 80, 0
2, 501842, Note_on_c, 0, 54, 60
2, 501888, Note_on_c, 0, 76, 67
2, 501891, Note_on_c, 0, 52, 0
2, 501896, Note_on_c, 0, 78, 0
2, 501996, Note_on_c, 0, 74, 84
2, 502022, Note_on_c, 0, 76, 0
2, 502090, Note_on_c, 0, 74, 0
2, 502106, Note_on_c, 0, 56, 46
2, 502112, Note_on_c, 0, 73, 69
2, 502122, Note_on_c, 0, 54, 0
2, 502212, Note_on_c, 0, 74, 76
2, 502230, Note_on_c, 0, 73, 0
2, 502326, Note_on_c, 0, 74, 0
2, 502336, Note_on_c, 0, 56, 0
2, 502344, Note_on_c, 0, 73, 60
2, 502368, Note_on_c, 0, 57, 33
2, 502472, Note_on_c, 0, 76, 75
2, 502478, Note_on_c, 0, 73, 0
2, 502572, Note_on_c, 0, 57, 0
2, 502594, Note_on_c, 0, 74, 85
2, 502616, Note_on_c, 0, 76, 0
2, 502674, Note_on_c, 0, 74, 0
2, 502680, Note_on_c, 0, 73, 80
2, 502798, Note_on_c, 0, 73, 0
2, 502810, Note_on_c, 0, 57, 54
2, 502814, Note_on_c, 0, 74, 105
2, 502820, Note_on_c, 0, 54, 53
2, 502938, Note_on_c, 0, 76, 90
2, 502970, Note_on_c, 0, 74, 0
2, 503010, Note_on_c, 0, 57, 0
2, 503048, Note_on_c, 0, 78, 99
2, 503066, Note_on_c, 0, 54, 0
2, 503080, Note_on_c, 0, 76, 0
2, 503170, Note_on_c, 0, 80, 97
2, 503210, Note_on_c, 0, 78, 0
2, 503280, Note_on_c, 0, 81, 105
2, 503283, Note_on_c, 0, 80, 0
2, 503286, Note_on_c, 0, 57, 63
2, 503290, Note_on_c, 0, 50, 63
2, 503294, Note_on_c, 0, 54, 68
2, 503380, Note_on_c, 0, 81, 0
2, 503410, Note_on_c, 0, 83, 127
2, 503470, Note_on_c, 0, 57, 0
2, 503524, Note_on_c, 0, 85, 101
2, 503532, Note_on_c, 0, 50, 0
2, 503534, Note_on_c, 0, 54, 0
2, 503552, Note_on_c, 0, 83, 0
2, 503644, Note_on_c, 0, 86, 102
2, 503704, Note_on_c, 0, 85, 0
2, 503772, Note_on_c, 0, 49, 42
2, 503774, Note_on_c, 0, 57, 42
2, 503774, Note_on_c, 0, 88, 101
2, 503790, Note_on_c, 0, 52, 46
2, 503804, Note_on_c, 0, 86, 0
2, 503906, Note_on_c, 0, 86, 77
2, 503958, Note_on_c, 0, 88, 0
2, 504026, Note_on_c, 0, 85, 84
2, 504050, Note_on_c, 0, 86, 0
2, 504054, Control_c, 0, 64, 127
2, 504154, Note_on_c, 0, 83, 105
2, 504170, Note_on_c, 0, 85, 0
2, 504218, Note_on_c, 0, 52, 0
2, 504224, Note_on_c, 0, 57, 0
2, 504256, Note_on_c, 0, 49, 0
2, 504266, Note_on_c, 0, 83, 0
2, 504278, Note_on_c, 0, 81, 74
2, 504300, Control_c, 0, 64, 0
2, 504390, Note_on_c, 0, 80, 75
2, 504418, Note_on_c, 0, 81, 0
2, 504498, Note_on_c, 0, 78, 76
2, 504530, Note_on_c, 0, 80, 0
2, 504642, Note_on_c, 0, 76, 61
2, 504666, Note_on_c, 0, 78, 0
2, 504746, Note_on_c, 0, 76, 0
2, 504754, Note_on_c, 0, 74, 68
2, 504862, Note_on_c, 0, 73, 68
2, 504884, Note_on_c, 0, 74, 0
2, 504982, Note_on_c, 0, 71, 74
2, 505006, Note_on_c, 0, 73, 0
2, 505082, Note_on_c, 0, 71, 0
2, 505098, Note_on_c, 0, 69, 54
2, 505284, Control_c, 0, 64, 127
2, 505304, Note_on_c, 0, 69, 0
2, 505350, Note_on_c, 0, 78, 55
2, 505374, Note_on_c, 0, 59, 33
2, 505388, Note_on_c, 0, 50, 31
2, 505412, Note_on_c, 0, 78, 0
2, 505434, Note_on_c, 0, 80, 72
2, 505498, Note_on_c, 0, 80, 0
2, 505512, Note_on_c, 0, 78, 44
2, 505584, Note_on_c, 0, 78, 0
2, 505584, Note_on_c, 0, 80, 64
2, 505648, Note_on_c, 0, 78, 76
2, 505708, Note_on_c, 0, 80, 0
2, 505744, Note_on_c, 0, 78, 0
2, 505746, Note_on_c, 0, 76, 62
2, 505778, Note_on_c, 0, 50, 0
2, 505804, Note_on_c, 0, 76, 0
2, 505810, Note_on_c, 0, 78, 80
2, 505892, Note_on_c, 0, 80, 80
2, 505932, Note_on_c, 0, 78, 0
2, 505974, Control_c, 0, 64, 0
2, 505996, Note_on_c, 0, 81, 79
2, 506012, Note_on_c, 0, 80, 0
2, 506086, Note_on_c, 0, 61, 24
2, 506100, Note_on_c, 0, 52, 41
2, 506122, Note_on_c, 0, 81, 0
2, 506132, Note_on_c, 0, 69, 61
2, 506186, Note_on_c, 0, 59, 0
2, 506622, Note_on_c, 0, 61, 0
2, 506668, Note_on_c, 0, 73, 49
2, 506678, Note_on_c, 0, 68, 40
2, 506692, Note_on_c, 0, 62, 31
2, 506702, Note_on_c, 0, 69, 0
2, 506976, Note_on_c, 0, 71, 52
2, 506984, Note_on_c, 0, 73, 0
2, 507162, Note_on_c, 0, 71, 0
2, 507168, Note_on_c, 0, 68, 0
2, 507184, Note_on_c, 0, 52, 0
2, 507222, Note_on_c, 0, 62, 0
2, 507276, Note_on_c, 0, 61, 23
2, 507282, Note_on_c, 0, 69, 28
2, 507288, Note_on_c, 0, 57, 22
2, 507512, Control_c, 0, 64, 127
2, 507586, Note_on_c, 0, 57, 0
2, 507788, Control_c, 0, 64, 0
2, 507956, Note_on_c, 0, 45, 23
2, 508002, Note_on_c, 0, 61, 0
2, 508064, Control_c, 0, 64, 127
2, 508068, Note_on_c, 0, 69, 0
2, 508118, Note_on_c, 0, 45, 0
2, 509186, Control_c, 0, 64, 0
2, 509740, Control_c, 0, 64, 127
2, 509740, Note_on_c, 0, 69, 24
2, 509742, Note_on_c, 0, 66, 30
2, 509754, Note_on_c, 0, 50, 15
2, 509778, Note_on_c, 0, 38, 28
2, 510006, Note_on_c, 0, 66, 0
2, 510026, Note_on_c, 0, 57, 26
2, 510208, Note_on_c, 0, 57, 0
2, 510264, Note_on_c, 0, 69, 0
2, 510266, Note_on_c, 0, 66, 45
2, 510280, Note_on_c, 0, 62, 34
2, 510526, Note_on_c, 0, 57, 37
2, 510616, Note_on_c, 0, 62, 0
2, 510676, Note_on_c, 0, 66, 0
2, 510676, Note_on_c, 0, 57, 0
2, 510760, Note_on_c, 0, 67, 44
2, 510774, Note_on_c, 0, 64, 38
2, 510830, Control_c, 0, 64, 0
2, 510968, Control_c, 0, 64, 127
2, 511008, Note_on_c, 0, 57, 34
2, 511026, Note_on_c, 0, 67, 0
2, 511116, Note_on_c, 0, 64, 0
2, 511138, Note_on_c, 0, 57, 0
2, 511264, Note_on_c, 0, 69, 36
2, 511276, Note_on_c, 0, 66, 23
2, 511322, Control_c, 0, 64, 0
2, 511506, Note_on_c, 0, 66, 0
2, 511508, Control_c, 0, 64, 127
2, 511520, Note_on_c, 0, 57, 29
2, 511612, Note_on_c, 0, 57, 0
2, 511706, Note_on_c, 0, 69, 0
2, 511764, Note_on_c, 0, 66, 38
2, 511798, Note_on_c, 0, 62, 30
2, 511916, Note_on_c, 0, 62, 0
2, 511926, Note_on_c, 0, 66, 0
2, 511996, Note_on_c, 0, 61, 55
2, 512014, Note_on_c, 0, 64, 54
2, 512134, Note_on_c, 0, 64, 0
2, 512166, Note_on_c, 0, 61, 0
2, 512216, Note_on_c, 0, 66, 56
2, 512256, Note_on_c, 0, 62, 36
2, 512298, Note_on_c, 0, 50, 0
2, 512306, Note_on_c, 0, 38, 0
2, 512336, Note_on_c, 0, 62, 0
2, 512440, Note_on_c, 0, 67, 68
2, 512446, Note_on_c, 0, 64, 63
2, 512458, Note_on_c, 0, 66, 0
2, 512490, Note_on_c, 0, 64, 0
2, 512514, Note_on_c, 0, 67, 0
2, 512682, Note_on_c, 0, 69, 67
2, 512702, Note_on_c, 0, 66, 40
2, 512736, Control_c, 0, 64, 0
2, 512930, Note_on_c, 0, 62, 49
2, 512990, Note_on_c, 0, 66, 0
2, 513012, Control_c, 0, 64, 127
2, 513152, Note_on_c, 0, 62, 0
2, 513178, Note_on_c, 0, 67, 51
2, 513186, Note_on_c, 0, 71, 84
2, 513198, Control_c, 0, 64, 0
2, 513206, Note_on_c, 0, 69, 0
2, 513362, Note_on_c, 0, 67, 0
2, 513366, Control_c, 0, 64, 127
2, 513414, Note_on_c, 0, 62, 42
2, 513474, Note_on_c, 0, 71, 0
2, 513486, Note_on_c, 0, 62, 0
2, 513634, Note_on_c, 0, 73, 64
2, 513654, Note_on_c, 0, 57, 32
2, 513656, Note_on_c, 0, 67, 51
2, 513690, Note_on_c, 0, 45, 30
2, 513756, Note_on_c, 0, 57, 0
2, 513770, Note_on_c, 0, 45, 0
2, 513846, Note_on_c, 0, 67, 0
2, 513886, Note_on_c, 0, 64, 44
2, 513974, Note_on_c, 0, 64, 0
2, 514094, Note_on_c, 0, 66, 42
2, 514100, Note_on_c, 0, 74, 77
2, 514102, Note_on_c, 0, 73, 0
2, 514104, Control_c, 0, 64, 0
2, 514110, Note_on_c, 0, 50, 49
2, 514134, Note_on_c, 0, 38, 24
2, 514230, Note_on_c, 0, 38, 0
2, 514242, Note_on_c, 0, 66, 0
2, 514272, Note_on_c, 0, 50, 0
2, 514272, Control_c, 0, 64, 127
2, 514280, Note_on_c, 0, 74, 0
2, 514332, Note_on_c, 0, 69, 33
2, 514404, Note_on_c, 0, 69, 0
2, 514630, Note_on_c, 0, 66, 48
2, 514642, Note_on_c, 0, 62, 54
2, 514645, Note_on_c, 0, 78, 68
2, 514708, Note_on_c, 0, 62, 0
2, 514720, Note_on_c, 0, 78, 0
2, 514796, Note_on_c, 0, 66, 0
2, 514862, Note_on_c, 0, 76, 70
2, 514872, Note_on_c, 0, 61, 55
2, 514890, Note_on_c, 0, 64, 49
2, 515058, Note_on_c, 0, 61, 0
2, 515072, Control_c, 0, 64, 0
2, 515080, Note_on_c, 0, 78, 91
2, 515094, Note_on_c, 0, 66, 63
2, 515096, Note_on_c, 0, 64, 0
2, 515116, Note_on_c, 0, 62, 54
2, 515138, Note_on_c, 0, 76, 0
2, 515194, Note_on_c, 0, 62, 0
2, 515256, Control_c, 0, 64, 127
2, 515302, Note_on_c, 0, 79, 100
2, 515322, Note_on_c, 0, 67, 62
2, 515328, Note_on_c, 0, 64, 53
2, 515336, Note_on_c, 0, 66, 0
2, 515376, Note_on_c, 0, 67, 0
2, 515379, Note_on_c, 0, 64, 0
2, 515396, Note_on_c, 0, 78, 0
2, 515548, Note_on_c, 0, 69, 54
2, 515548, Note_on_c, 0, 81, 88
2, 515551, Note_on_c, 0, 66, 39
2, 515570, Note_on_c, 0, 79, 0
2, 515594, Control_c, 0, 64, 0
2, 515800, Note_on_c, 0, 62, 49
2, 515808, Control_c, 0, 64, 127
2, 515898, Note_on_c, 0, 62, 0
2, 515901, Note_on_c, 0, 66, 0
2, 516024, Note_on_c, 0, 69, 0
2, 516026, Note_on_c, 0, 83, 102
2, 516038, Note_on_c, 0, 71, 53
2, 516040, Control_c, 0, 64, 0
2, 516056, Note_on_c, 0, 81, 0
2, 516078, Note_on_c, 0, 67, 16
2, 516254, Control_c, 0, 64, 127
2, 516276, Note_on_c, 0, 67, 0
2, 516284, Note_on_c, 0, 71, 0
2, 516298, Note_on_c, 0, 62, 49
2, 516358, Note_on_c, 0, 62, 0
2, 516508, Note_on_c, 0, 73, 54
2, 516516, Note_on_c, 0, 85, 62
2, 516528, Note_on_c, 0, 67, 41
2, 516540, Note_on_c, 0, 83, 0
2, 516578, Control_c, 0, 64, 0
2, 516734, Note_on_c, 0, 67, 0
2, 516764, Note_on_c, 0, 64, 42
2, 516808, Control_c, 0, 64, 127
2, 516866, Note_on_c, 0, 64, 0
2, 516908, Note_on_c, 0, 73, 0
2, 516990, Note_on_c, 0, 74, 48
2, 516992, Note_on_c, 0, 66, 29
2, 516998, Note_on_c, 0, 85, 0
2, 516998, Note_on_c, 0, 86, 57
2, 517054, Control_c, 0, 64, 0
2, 517238, Note_on_c, 0, 74, 0
2, 517272, Note_on_c, 0, 69, 26
2, 517346, Control_c, 0, 64, 127
2, 517364, Note_on_c, 0, 66, 0
2, 517504, Note_on_c, 0, 86, 0
2, 517512, Note_on_c, 0, 74, 59
2, 517515, Note_on_c, 0, 66, 30
2, 517522, Note_on_c, 0, 69, 0
2, 517584, Note_on_c, 0, 66, 0
2, 517728, Note_on_c, 0, 73, 75
2, 517740, Note_on_c, 0, 74, 0
2, 517758, Note_on_c, 0, 64, 46
2, 517798, Note_on_c, 0, 73, 0
2, 517818, Note_on_c, 0, 64, 0
2, 517956, Note_on_c, 0, 71, 86
2, 517964, Note_on_c, 0, 62, 72
2, 518026, Note_on_c, 0, 71, 0
2, 518160, Note_on_c, 0, 62, 0
2, 518166, Note_on_c, 0, 61, 76
2, 518169, Note_on_c, 0, 69, 76
2, 518256, Note_on_c, 0, 61, 0
2, 518418, Note_on_c, 0, 68, 67
2, 518438, Note_on_c, 0, 69, 0
2, 518438, Note_on_c, 0, 52, 74
2, 518441, Note_on_c, 0, 59, 54
2, 518468, Control_c, 0, 64, 0
2, 518684, Note_on_c, 0, 59, 0
2, 518690, Note_on_c, 0, 64, 48
2, 518728, Control_c, 0, 64, 127
2, 518784, Note_on_c, 0, 64, 0
2, 518890, Note_on_c, 0, 61, 71
2, 518896, Note_on_c, 0, 69, 75
2, 518910, Note_on_c, 0, 49, 67
2, 518912, Note_on_c, 0, 52, 0
2, 518915, Note_on_c, 0, 68, 0
2, 518974, Control_c, 0, 64, 0
2, 519134, Note_on_c, 0, 69, 0
2, 519158, Control_c, 0, 64, 127
2, 519182, Note_on_c, 0, 64, 33
2, 519244, Note_on_c, 0, 61, 0
2, 519300, Note_on_c, 0, 64, 0
2, 519350, Note_on_c, 0, 49, 0
2, 519388, Note_on_c, 0, 73, 62
2, 519396, Note_on_c, 0, 69, 38
2, 519406, Note_on_c, 0, 45, 42
2, 519436, Control_c, 0, 64, 0
2, 519570, Note_on_c, 0, 69, 0
2, 519648, Note_on_c, 0, 64, 53
2, 519650, Control_c, 0, 64, 127
2, 519742, Note_on_c, 0, 64, 0
2, 519844, Note_on_c, 0, 45, 0
2, 519868, Note_on_c, 0, 71, 64
2, 519876, Note_on_c, 0, 68, 39
2, 519880, Control_c, 0, 64, 0
2, 519888, Note_on_c, 0, 73, 0
2, 519891, Note_on_c, 0, 52, 46
2, 520062, Note_on_c, 0, 52, 0
2, 520096, Control_c, 0, 64, 127
2, 520102, Note_on_c, 0, 68, 0
2, 520108, Note_on_c, 0, 64, 44
2, 520168, Note_on_c, 0, 71, 0
2, 520202, Note_on_c, 0, 64, 0
2, 520422, Note_on_c, 0, 74, 49
2, 520422, Note_on_c, 0, 86, 92
2, 520448, Note_on_c, 0, 66, 25
2, 520542, Control_c, 0, 64, 0
2, 520574, Note_on_c, 0, 66, 0
2, 520694, Note_on_c, 0, 74, 0
2, 520694, Note_on_c, 0, 73, 65
2, 520694, Note_on_c, 0, 85, 79
2, 520697, Control_c, 0, 64, 127
2, 520718, Note_on_c, 0, 64, 34
2, 520724, Note_on_c, 0, 86, 0
2, 520750, Note_on_c, 0, 73, 0
2, 520784, Note_on_c, 0, 64, 0
2, 520872, Note_on_c, 0, 85, 0
2, 520916, Note_on_c, 0, 83, 99
2, 520922, Note_on_c, 0, 71, 77
2, 520938, Note_on_c, 0, 62, 48
2, 520978, Note_on_c, 0, 71, 0
2, 521036, Note_on_c, 0, 62, 0
2, 521072, Note_on_c, 0, 83, 0
2, 521144, Note_on_c, 0, 81, 76
2, 521146, Note_on_c, 0, 69, 51
2, 521152, Note_on_c, 0, 61, 60
2, 521186, Note_on_c, 0, 81, 0
2, 521212, Note_on_c, 0, 61, 0
2, 521258, Note_on_c, 0, 69, 0
2, 521368, Note_on_c, 0, 87, 68
2, 521436, Note_on_c, 0, 87, 0
2, 521448, Note_on_c, 0, 88, 74
2, 521448, Control_c, 0, 64, 0
2, 521460, Note_on_c, 0, 59, 56
2, 521462, Note_on_c, 0, 68, 59
2, 521664, Note_on_c, 0, 59, 0
2, 521678, Control_c, 0, 64, 127
2, 521688, Note_on_c, 0, 68, 0
2, 521720, Note_on_c, 0, 64, 51
2, 521738, Note_on_c, 0, 88, 0
2, 521792, Note_on_c, 0, 64, 0
2, 521892, Note_on_c, 0, 87, 39
2, 521926, Note_on_c, 0, 69, 38
2, 521928, Note_on_c, 0, 61, 37
2, 521940, Note_on_c, 0, 88, 75
2, 521954, Control_c, 0, 64, 0
2, 521959, Note_on_c, 0, 87, 0
2, 522090, Note_on_c, 0, 69, 0
2, 522124, Control_c, 0, 64, 127
2, 522160, Note_on_c, 0, 61, 0
2, 522186, Note_on_c, 0, 88, 0
2, 522200, Note_on_c, 0, 64, 38
2, 522268, Note_on_c, 0, 64, 0
2, 522322, Note_on_c, 0, 87, 31
2, 522356, Note_on_c, 0, 73, 37
2, 522384, Control_c, 0, 64, 0
2, 522392, Note_on_c, 0, 87, 0
2, 522406, Note_on_c, 0, 69, 19
2, 522408, Note_on_c, 0, 88, 39
2, 522576, Note_on_c, 0, 69, 0
2, 522586, Control_c, 0, 64, 127
2, 522642, Note_on_c, 0, 88, 0
2, 522642, Note_on_c, 0, 64, 45
2, 522722, Note_on_c, 0, 64, 0
2, 522800, Note_on_c, 0, 87, 24
2, 522862, Control_c, 0, 64, 0
2, 522874, Note_on_c, 0, 87, 0
2, 522906, Note_on_c, 0, 73, 0
2, 522906, Note_on_c, 0, 88, 24
2, 522909, Note_on_c, 0, 68, 28
2, 522912, Note_on_c, 0, 71, 41
2, 523062, Control_c, 0, 64, 127
2, 523065, Note_on_c, 0, 88, 0
2, 523228, Note_on_c, 0, 71, 0
2, 523234, Note_on_c, 0, 64, 45
2, 523310, Note_on_c, 0, 64, 0
2, 523392, Note_on_c, 0, 68, 0
2, 523488, Note_on_c, 0, 45, 63
2, 523506, Note_on_c, 0, 73, 70
2, 523520, Note_on_c, 0, 64, 56
2, 523716, Note_on_c, 0, 44, 83
2, 523721, Note_on_c, 0, 45, 0
2, 523742, Note_on_c, 0, 71, 95
2, 523776, Note_on_c, 0, 73, 0
2, 523952, Note_on_c, 0, 45, 88
2, 523958, Note_on_c, 0, 73, 88
2, 523974, Note_on_c, 0, 44, 0
2, 523998, Control_c, 0, 64, 0
2, 524036, Note_on_c, 0, 71, 0
2, 524184, Note_on_c, 0, 45, 0
2, 524184, Control_c, 0, 64, 127
2, 524192, Note_on_c, 0, 74, 94
2, 524198, Note_on_c, 0, 47, 83
2, 524228, Note_on_c, 0, 73, 0
2, 524336, Note_on_c, 0, 74, 0
2, 524420, Note_on_c, 0, 76, 88
2, 524436, Note_on_c, 0, 49, 79
2, 524444, Control_c, 0, 64, 0
2, 524456, Note_on_c, 0, 47, 0
2, 524668, Note_on_c, 0, 69, 42
2, 524752, Control_c, 0, 64, 127
2, 524786, Note_on_c, 0, 69, 0
2, 524916, Note_on_c, 0, 73, 76
2, 524922, Note_on_c, 0, 49, 0
2, 524926, Note_on_c, 0, 69, 42
2, 524928, Note_on_c, 0, 64, 0
2, 524934, Note_on_c, 0, 52, 71
2, 524966, Control_c, 0, 64, 0
2, 525008, Note_on_c, 0, 76, 0
2, 525178, Note_on_c, 0, 64, 63
2, 525206, Note_on_c, 0, 69, 0
2, 525228, Control_c, 0, 64, 127
2, 525354, Note_on_c, 0, 64, 0
2, 525386, Note_on_c, 0, 52, 0
2, 525396, Note_on_c, 0, 71, 90
2, 525396, Note_on_c, 0, 68, 60
2, 525408, Note_on_c, 0, 40, 70
2, 525444, Control_c, 0, 64, 0
2, 525462, Note_on_c, 0, 73, 0
2, 525644, Note_on_c, 0, 64, 56
2, 525702, Note_on_c, 0, 68, 0
2, 525704, Control_c, 0, 64, 127
2, 525794, Note_on_c, 0, 64, 0
2, 525808, Note_on_c, 0, 40, 0
2, 525872, Note_on_c, 0, 45, 49
2, 525872, Control_c, 0, 64, 0
2, 525880, Note_on_c, 0, 69, 72
2, 525916, Note_on_c, 0, 71, 0
2, 526010, Note_on_c, 0, 45, 0
2, 526058, Control_c, 0, 64, 127
2, 526126, Note_on_c, 0, 64, 44
2, 526138, Note_on_c, 0, 69, 0
2, 526184, Note_on_c, 0, 64, 0
2, 526348, Note_on_c, 0, 85, 59
2, 526366, Note_on_c, 0, 73, 47
2, 526382, Note_on_c, 0, 69, 29
2, 526426, Control_c, 0, 64, 0
2, 526594, Note_on_c, 0, 73, 0
2, 526606, Note_on_c, 0, 68, 45
2, 526608, Note_on_c, 0, 85, 0
2, 526620, Note_on_c, 0, 69, 0
2, 526624, Note_on_c, 0, 83, 71
2, 526644, Note_on_c, 0, 71, 52
2, 526764, Control_c, 0, 64, 127
2, 526818, Note_on_c, 0, 71, 0
2, 526834, Note_on_c, 0, 85, 85
2, 526840, Note_on_c, 0, 73, 55
2, 526840, Control_c, 0, 64, 0
2, 526856, Note_on_c, 0, 69, 32
2, 526862, Note_on_c, 0, 68, 0
2, 526878, Note_on_c, 0, 83, 0
2, 526970, Note_on_c, 0, 73, 0
2, 526978, Note_on_c, 0, 69, 0
2, 526996, Control_c, 0, 64, 127
2, 527048, Note_on_c, 0, 74, 61
2, 527060, Note_on_c, 0, 86, 93
2, 527076, Note_on_c, 0, 71, 41
2, 527106, Note_on_c, 0, 74, 0
2, 527138, Note_on_c, 0, 85, 0
2, 527146, Note_on_c, 0, 71, 0
2, 527318, Control_c, 0, 64, 0
2, 527318, Note_on_c, 0, 76, 38
2, 527321, Note_on_c, 0, 88, 72
2, 527332, Note_on_c, 0, 73, 34
2, 527338, Note_on_c, 0, 86, 0
2, 527402, Note_on_c, 0, 73, 0
2, 527548, Control_c, 0, 64, 127
2, 527570, Note_on_c, 0, 64, 33
2, 527704, Note_on_c, 0, 64, 0
2, 527794, Note_on_c, 0, 73, 39
2, 527808, Note_on_c, 0, 85, 48
2, 527820, Note_on_c, 0, 76, 0
2, 527822, Note_on_c, 0, 69, 16
2, 527868, Note_on_c, 0, 88, 0
2, 527978, Control_c, 0, 64, 0
2, 528040, Note_on_c, 0, 69, 0
2, 528058, Note_on_c, 0, 64, 33
2, 528178, Control_c, 0, 64, 127
2, 528192, Note_on_c, 0, 64, 0
2, 528308, Note_on_c, 0, 85, 0
2, 528316, Control_c, 0, 64, 0
2, 528320, Note_on_c, 0, 71, 37
2, 528322, Note_on_c, 0, 83, 59
2, 528326, Note_on_c, 0, 68, 37
2, 528332, Note_on_c, 0, 73, 0
2, 528540, Note_on_c, 0, 64, 44
2, 528546, Control_c, 0, 64, 127
2, 528630, Note_on_c, 0, 68, 0
2, 528688, Note_on_c, 0, 64, 0
2, 528720, Note_on_c, 0, 83, 0
2, 528774, Note_on_c, 0, 81, 46
2, 528792, Control_c, 0, 64, 0
2, 528794, Note_on_c, 0, 69, 41
2, 528796, Note_on_c, 0, 71, 0
2, 528872, Note_on_c, 0, 81, 0
2, 528884, Control_c, 0, 64, 127
2, 529024, Note_on_c, 0, 64, 48
2, 529040, Note_on_c, 0, 69, 0
2, 529238, Note_on_c, 0, 64, 0
2, 529246, Note_on_c, 0, 66, 49
2, 529272, Note_on_c, 0, 59, 46
2, 529284, Note_on_c, 0, 50, 39
2, 529314, Control_c, 0, 64, 0
2, 529438, Control_c, 0, 64, 127
2, 529498, Note_on_c, 0, 74, 72
2, 529518, Note_on_c, 0, 50, 0
2, 529540, Note_on_c, 0, 59, 0
2, 529548, Note_on_c, 0, 66, 0
2, 529728, Note_on_c, 0, 52, 63
2, 529730, Note_on_c, 0, 71, 94
2, 529760, Note_on_c, 0, 62, 44
2, 529808, Control_c, 0, 64, 0
2, 529840, Note_on_c, 0, 74, 0
2, 529958, Note_on_c, 0, 68, 82
2, 530006, Control_c, 0, 64, 127
2, 530028, Note_on_c, 0, 71, 0
2, 530074, Note_on_c, 0, 62, 0
2, 530086, Note_on_c, 0, 52, 0
2, 530174, Control_c, 0, 64, 0
2, 530182, Note_on_c, 0, 69, 68
2, 530186, Note_on_c, 0, 57, 36
2, 530196, Note_on_c, 0, 61, 51
2, 530246, Note_on_c, 0, 68, 0
2, 530376, Control_c, 0, 64, 127
2, 530388, Note_on_c, 0, 57, 0
2, 530392, Note_on_c, 0, 61, 0
2, 530412, Note_on_c, 0, 64, 72
2, 530442, Note_on_c, 0, 69, 0
2, 530606, Control_c, 0, 64, 0
2, 530628, Note_on_c, 0, 64, 0
2, 530636, Note_on_c, 0, 66, 46
2, 530666, Note_on_c, 0, 59, 44
2, 530668, Note_on_c, 0, 50, 46
2, 530836, Control_c, 0, 64, 127
2, 530850, Note_on_c, 0, 50, 0
2, 530858, Note_on_c, 0, 59, 0
2, 530888, Note_on_c, 0, 74, 53
2, 530891, Note_on_c, 0, 66, 0
2, 531098, Control_c, 0, 64, 0
2, 531126, Note_on_c, 0, 71, 56
2, 531136, Note_on_c, 0, 62, 33
2, 531142, Note_on_c, 0, 52, 34
2, 531152, Note_on_c, 0, 74, 0
2, 531350, Note_on_c, 0, 68, 49
2, 531368, Note_on_c, 0, 71, 0
2, 531388, Control_c, 0, 64, 127
2, 531411, Note_on_c, 0, 52, 0
2, 531432, Note_on_c, 0, 62, 0
2, 531604, Control_c, 0, 64, 0
2, 531616, Note_on_c, 0, 69, 33
2, 531634, Note_on_c, 0, 57, 21
2, 531634, Note_on_c, 0, 61, 36
2, 531640, Note_on_c, 0, 68, 0
2, 531874, Note_on_c, 0, 68, 55
2, 531880, Note_on_c, 0, 69, 0
2, 531942, Control_c, 0, 64, 127
2, 532076, Note_on_c, 0, 61, 0
2, 532108, Note_on_c, 0, 57, 0
2, 532108, Note_on_c, 0, 69, 54
2, 532142, Control_c, 0, 64, 0
2, 532158, Note_on_c, 0, 68, 0
2, 532382, Note_on_c, 0, 71, 51
2, 532406, Note_on_c, 0, 69, 0
2, 532450, Control_c, 0, 64, 127
2, 532556, Control_c, 0, 64, 0
2, 532652, Note_on_c, 0, 67, 39
2, 532744, Note_on_c, 0, 71, 0
2, 532894, Control_c, 0, 64, 127
2, 532950, Note_on_c, 0, 64, 42
2, 532964, Note_on_c, 0, 67, 0
2, 533280, Control_c, 0, 64, 0
2, 533320, Note_on_c, 0, 64, 0
2, 533338, Note_on_c, 0, 47, 23
2, 533342, Note_on_c, 0, 69, 31
2, 533348, Note_on_c, 0, 66, 31
2, 533352, Note_on_c, 0, 35, 34
2, 533644, Note_on_c, 0, 59, 33
2, 533648, Control_c, 0, 64, 127
2, 533660, Note_on_c, 0, 66, 0
2, 533826, Note_on_c, 0, 59, 0
2, 533908, Note_on_c, 0, 66, 40
2, 533914, Note_on_c, 0, 63, 46
2, 533942, Note_on_c, 0, 69, 0
2, 534170, Note_on_c, 0, 59, 42
2, 534202, Note_on_c, 0, 63, 0
2, 534250, Note_on_c, 0, 59, 0
2, 534384, Note_on_c, 0, 67, 57
2, 534386, Control_c, 0, 64, 0
2, 534394, Note_on_c, 0, 64, 49
2, 534424, Note_on_c, 0, 66, 0
2, 534600, Control_c, 0, 64, 127
2, 534630, Note_on_c, 0, 59, 46
2, 534744, Note_on_c, 0, 64, 0
2, 534770, Control_c, 0, 64, 0
2, 534820, Note_on_c, 0, 59, 0
2, 534830, Note_on_c, 0, 35, 0
2, 534856, Note_on_c, 0, 66, 47
2, 534856, Note_on_c, 0, 69, 60
2, 534876, Note_on_c, 0, 67, 0
2, 534904, Note_on_c, 0, 47, 0
2, 534938, Control_c, 0, 64, 127
2, 535064, Note_on_c, 0, 66, 0
2, 535098, Note_on_c, 0, 59, 39
2, 535330, Note_on_c, 0, 59, 0
2, 535376, Note_on_c, 0, 66, 33
2, 535392, Note_on_c, 0, 84, 79
2, 535400, Note_on_c, 0, 63, 31
2, 535422, Note_on_c, 0, 69, 0
2, 535566, Note_on_c, 0, 63, 0
2, 535608, Note_on_c, 0, 84, 0
2, 535624, Note_on_c, 0, 59, 39
2, 535632, Note_on_c, 0, 83, 106
2, 535770, Note_on_c, 0, 59, 0
2, 535840, Note_on_c, 0, 67, 54
2, 535844, Note_on_c, 0, 83, 0
2, 535848, Note_on_c, 0, 66, 0
2, 535848, Note_on_c, 0, 81, 84
2, 535860, Note_on_c, 0, 64, 45
2, 535876, Control_c, 0, 64, 0
2, 536000, Control_c, 0, 64, 127
2, 536072, Note_on_c, 0, 79, 88
2, 536077, Note_on_c, 0, 59, 48
2, 536100, Note_on_c, 0, 64, 0
2, 536108, Note_on_c, 0, 81, 0
2, 536168, Note_on_c, 0, 59, 0
2, 536258, Note_on_c, 0, 67, 0
2, 536274, Control_c, 0, 64, 0
2, 536308, Note_on_c, 0, 69, 32
2, 536316, Note_on_c, 0, 66, 29
2, 536322, Note_on_c, 0, 79, 0
2, 536334, Note_on_c, 0, 78, 68
2, 536504, Note_on_c, 0, 66, 0
2, 536536, Control_c, 0, 64, 127
2, 536548, Note_on_c, 0, 59, 42
2, 536606, Note_on_c, 0, 78, 0
2, 536662, Note_on_c, 0, 59, 0
2, 536770, Note_on_c, 0, 63, 55
2, 536773, Note_on_c, 0, 81, 59
2, 536776, Note_on_c, 0, 66, 44
2, 536782, Control_c, 0, 64, 0
2, 536790, Note_on_c, 0, 69, 0
2, 536994, Note_on_c, 0, 63, 0
2, 536997, Control_c, 0, 64, 127
2, 537024, Note_on_c, 0, 79, 67
2, 537026, Note_on_c, 0, 59, 39
2, 537036, Note_on_c, 0, 81, 0
2, 537040, Note_on_c, 0, 66, 0
2, 537043, Control_c, 0, 64, 0
2, 537230, Note_on_c, 0, 79, 0
2, 537234, Note_on_c, 0, 59, 0
2, 537234, Note_on_c, 0, 78, 61
2, 537252, Note_on_c, 0, 67, 38
2, 537255, Note_on_c, 0, 64, 40
2, 537462, Note_on_c, 0, 59, 32
2, 537480, Note_on_c, 0, 78, 0
2, 537486, Note_on_c, 0, 76, 47
2, 537502, Note_on_c, 0, 64, 0
2, 537610, Note_on_c, 0, 67, 0
2, 537628, Note_on_c, 0, 59, 0
2, 537652, Note_on_c, 0, 76, 0
2, 537720, Note_on_c, 0, 75, 53
2, 537722, Note_on_c, 0, 66, 31
2, 537734, Note_on_c, 0, 69, 32
2, 537822, Note_on_c, 0, 66, 0
2, 537828, Control_c, 0, 64, 127
2, 537830, Note_on_c, 0, 75, 0
2, 537834, Note_on_c, 0, 69, 0
2, 538246, Note_on_c, 0, 83, 127
2, 538250, Note_on_c, 0, 71, 125
2, 538252, Note_on_c, 0, 59, 101
2, 538260, Note_on_c, 0, 47, 84
2, 538324, Note_on_c, 0, 83, 0
2, 538338, Note_on_c, 0, 71, 0
2, 538346, Note_on_c, 0, 59, 0
2, 538366, Note_on_c, 0, 47, 0
2, 538460, Note_on_c, 0, 69, 102
2, 538462, Note_on_c, 0, 81, 111
2, 538468, Note_on_c, 0, 57, 91
2, 538470, Note_on_c, 0, 45, 92
2, 538534, Note_on_c, 0, 45, 0
2, 538534, Note_on_c, 0, 57, 0
2, 538534, Note_on_c, 0, 69, 0
2, 538537, Note_on_c, 0, 81, 0
2, 538610, Control_c, 0, 64, 0
2, 538654, Note_on_c, 0, 79, 120
2, 538662, Note_on_c, 0, 67, 107
2, 538670, Note_on_c, 0, 55, 110
2, 538670, Note_on_c, 0, 43, 109
2, 538712, Note_on_c, 0, 43, 0
2, 538726, Note_on_c, 0, 55, 0
2, 538752, Note_on_c, 0, 79, 0
2, 538758, Note_on_c, 0, 67, 0
2, 538856, Note_on_c, 0, 66, 103
2, 538859, Note_on_c, 0, 78, 107
2, 538864, Note_on_c, 0, 54, 114
2, 538872, Note_on_c, 0, 42, 103
2, 538908, Note_on_c, 0, 54, 0
2, 538911, Note_on_c, 0, 42, 0
2, 538934, Note_on_c, 0, 78, 0
2, 538970, Note_on_c, 0, 66, 0
2, 539102, Note_on_c, 0, 76, 107
2, 539112, Note_on_c, 0, 64, 98
2, 539112, Note_on_c, 0, 52, 123
2, 539112, Note_on_c, 0, 40, 125
2, 539174, Note_on_c, 0, 40, 0
2, 539206, Note_on_c, 0, 52, 0
2, 539212, Note_on_c, 0, 64, 0
2, 539226, Control_c, 0, 64, 127
2, 539234, Note_on_c, 0, 76, 0
2, 539256, Control_c, 0, 64, 0
2, 539556, Note_on_c, 0, 76, 111
2, 539560, Note_on_c, 0, 64, 110
2, 539562, Note_on_c, 0, 52, 120
2, 539566, Note_on_c, 0, 40, 116
2, 539606, Note_on_c, 0, 65, 37
2, 539630, Note_on_c, 0, 40, 0
2, 539640, Control_c, 0, 64, 127
2, 539656, Note_on_c, 0, 52, 0
2, 539659, Note_on_c, 0, 64, 0
2, 539670, Note_on_c, 0, 65, 0
2, 539708, Note_on_c, 0, 76, 0
2, 539778, Control_c, 0, 64, 0
2, 540020, Note_on_c, 0, 83, 127
2, 540028, Note_on_c, 0, 71, 109
2, 540030, Note_on_c, 0, 59, 102
2, 540032, Note_on_c, 0, 47, 99
2, 540080, Note_on_c, 0, 59, 0
2, 540096, Note_on_c, 0, 47, 0
2, 540096, Note_on_c, 0, 83, 0
2, 540102, Control_c, 0, 64, 127
2, 540144, Note_on_c, 0, 71, 0
2, 540208, Control_c, 0, 64, 0
2, 540472, Note_on_c, 0, 76, 91
2, 540480, Note_on_c, 0, 64, 88
2, 540486, Note_on_c, 0, 40, 83
2, 540488, Note_on_c, 0, 52, 79
2, 540518, Note_on_c, 0, 64, 0
2, 540528, Note_on_c, 0, 52, 0
2, 540528, Note_on_c, 0, 40, 0
2, 540548, Control_c, 0, 64, 127
2, 540596, Note_on_c, 0, 76, 0
2, 540730, Control_c, 0, 64, 0
2, 540942, Note_on_c, 0, 83, 123
2, 540945, Note_on_c, 0, 71, 98
2, 540952, Note_on_c, 0, 47, 83
2, 540954, Note_on_c, 0, 59, 76
2, 541002, Note_on_c, 0, 59, 0
2, 541005, Note_on_c, 0, 47, 0
2, 541024, Control_c, 0, 64, 127
2, 541027, Note_on_c, 0, 71, 0
2, 541036, Note_on_c, 0, 83, 0
2, 541142, Note_on_c, 0, 81, 109
2, 541142, Note_on_c, 0, 69, 91
2, 541148, Note_on_c, 0, 57, 79
2, 541152, Note_on_c, 0, 45, 85
2, 541200, Note_on_c, 0, 57, 0
2, 541208, Note_on_c, 0, 45, 0
2, 541230, Note_on_c, 0, 69, 0
2, 541254, Note_on_c, 0, 81, 0
2, 541270, Control_c, 0, 64, 0
2, 541338, Note_on_c, 0, 79, 118
2, 541341, Note_on_c, 0, 67, 106
2, 541348, Note_on_c, 0, 55, 101
2, 541350, Note_on_c, 0, 43, 102
2, 541426, Note_on_c, 0, 55, 0
2, 541428, Note_on_c, 0, 67, 0
2, 541434, Note_on_c, 0, 79, 0
2, 541466, Note_on_c, 0, 43, 0
2, 541536, Note_on_c, 0, 66, 101
2, 541539, Note_on_c, 0, 78, 107
2, 541544, Note_on_c, 0, 54, 95
2, 541554, Note_on_c, 0, 42, 80
2, 541596, Note_on_c, 0, 54, 0
2, 541632, Note_on_c, 0, 66, 0
2, 541640, Note_on_c, 0, 42, 0
2, 541656, Note_on_c, 0, 78, 0
2, 541772, Note_on_c, 0, 76, 113
2, 541775, Note_on_c, 0, 40, 115
2, 541778, Note_on_c, 0, 64, 110
2, 541778, Note_on_c, 0, 52, 110
2, 541880, Note_on_c, 0, 40, 0
2, 541882, Note_on_c, 0, 64, 0
2, 541884, Control_c, 0, 64, 127
2, 541886, Note_on_c, 0, 52, 0
2, 541910, Note_on_c, 0, 76, 0
2, 541944, Control_c, 0, 64, 0
2, 542234, Note_on_c, 0, 64, 95
2, 542236, Note_on_c, 0, 76, 97
2, 542236, Note_on_c, 0, 52, 106
2, 542239, Note_on_c, 0, 40, 105
2, 542278, Note_on_c, 0, 40, 0
2, 542306, Note_on_c, 0, 52, 0
2, 542322, Note_on_c, 0, 64, 0
2, 542344, Control_c, 0, 64, 127
2, 542384, Note_on_c, 0, 76, 0
2, 542420, Control_c, 0, 64, 0
2, 542700, Note_on_c, 0, 83, 117
2, 542703, Note_on_c, 0, 71, 85
2, 542706, Note_on_c, 0, 47, 92
2, 542708, Note_on_c, 0, 59, 88
2, 542744, Note_on_c, 0, 47, 0
2, 542747, Note_on_c, 0, 59, 0
2, 542756, Note_on_c, 0, 71, 0
2, 542768, Note_on_c, 0, 83, 0
2, 542790, Control_c, 0, 64, 127
2, 542914, Control_c, 0, 64, 0
2, 543164, Note_on_c, 0, 76, 84
2, 543176, Note_on_c, 0, 64, 70
2, 543190, Note_on_c, 0, 52, 68
2, 543193, Note_on_c, 0, 40, 79
2, 543278, Note_on_c, 0, 52, 0
2, 543280, Note_on_c, 0, 64, 0
2, 543282, Control_c, 0, 64, 127
2, 543316, Note_on_c, 0, 40, 0
2, 543374, Note_on_c, 0, 76, 0
2, 543450, Control_c, 0, 64, 0
2, 543650, Note_on_c, 0, 76, 57
2, 543734, Note_on_c, 0, 76, 0
2, 543836, Control_c, 0, 64, 127
2, 543878, Note_on_c, 0, 74, 75
2, 543936, Note_on_c, 0, 74, 0
2, 543958, Control_c, 0, 64, 0
2, 544090, Note_on_c, 0, 76, 77
2, 544220, Note_on_c, 0, 76, 0
2, 544320, Note_on_c, 0, 77, 79
2, 544456, Note_on_c, 0, 77, 0
2, 544548, Note_on_c, 0, 60, 39
2, 544572, Note_on_c, 0, 79, 86
2, 544804, Note_on_c, 0, 64, 49
2, 544818, Control_c, 0, 64, 127
2, 544870, Note_on_c, 0, 79, 0
2, 544892, Note_on_c, 0, 64, 0
2, 545032, Note_on_c, 0, 67, 40
2, 545034, Control_c, 0, 64, 0
2, 545040, Note_on_c, 0, 79, 72
2, 545226, Note_on_c, 0, 67, 0
2, 545248, Control_c, 0, 64, 127
2, 545252, Note_on_c, 0, 79, 0
2, 545260, Note_on_c, 0, 64, 51
2, 545396, Note_on_c, 0, 64, 0
2, 545464, Control_c, 0, 64, 0
2, 545467, Note_on_c, 0, 65, 44
2, 545474, Note_on_c, 0, 59, 48
2, 545496, Note_on_c, 0, 60, 0
2, 545684, Note_on_c, 0, 79, 102
2, 545706, Note_on_c, 0, 62, 44
2, 545708, Note_on_c, 0, 65, 0
2, 545818, Note_on_c, 0, 79, 0
2, 545864, Control_c, 0, 64, 127
2, 545902, Note_on_c, 0, 62, 0
2, 545924, Note_on_c, 0, 84, 85
2, 545946, Note_on_c, 0, 60, 37
2, 545970, Control_c, 0, 64, 0
2, 546010, Note_on_c, 0, 59, 0
2, 546156, Note_on_c, 0, 64, 44
2, 546350, Note_on_c, 0, 84, 0
2, 546352, Note_on_c, 0, 64, 0
2, 546370, Note_on_c, 0, 67, 44
2, 546382, Note_on_c, 0, 79, 51
2, 546616, Note_on_c, 0, 67, 0
2, 546632, Control_c, 0, 64, 127
2, 546652, Note_on_c, 0, 79, 0
2, 546652, Note_on_c, 0, 64, 34
2, 546738, Note_on_c, 0, 64, 0
2, 546842, Note_on_c, 0, 60, 0
2, 546852, Note_on_c, 0, 59, 37
2, 546868, Note_on_c, 0, 65, 21
2, 546922, Control_c, 0, 64, 0
2, 547078, Note_on_c, 0, 62, 36
2, 547146, Note_on_c, 0, 65, 0
2, 547288, Note_on_c, 0, 79, 92
2, 547302, Note_on_c, 0, 62, 0
2, 547308, Control_c, 0, 64, 127
2, 547328, Note_on_c, 0, 60, 33
2, 547334, Note_on_c, 0, 59, 0
2, 547446, Control_c, 0, 64, 0
2, 547526, Note_on_c, 0, 64, 51
2, 547608, Note_on_c, 0, 64, 0
2, 547624, Note_on_c, 0, 79, 0
2, 547646, Control_c, 0, 64, 127
2, 547730, Note_on_c, 0, 79, 83
2, 547739, Note_on_c, 0, 67, 47
2, 547876, Control_c, 0, 64, 0
2, 547980, Note_on_c, 0, 67, 0
2, 547998, Note_on_c, 0, 64, 39
2, 548076, Control_c, 0, 64, 127
2, 548164, Note_on_c, 0, 64, 0
2, 548214, Control_c, 0, 64, 0
2, 548228, Note_on_c, 0, 65, 32
2, 548236, Note_on_c, 0, 59, 37
2, 548238, Note_on_c, 0, 60, 0
2, 548364, Note_on_c, 0, 79, 0
2, 548384, Control_c, 0, 64, 127
2, 548426, Note_on_c, 0, 79, 109
2, 548484, Note_on_c, 0, 62, 36
2, 548490, Control_c, 0, 64, 0
2, 548568, Note_on_c, 0, 65, 0
2, 548630, Control_c, 0, 64, 127
2, 548658, Note_on_c, 0, 62, 0
2, 548666, Note_on_c, 0, 79, 0
2, 548668, Note_on_c, 0, 84, 88
2, 548676, Control_c, 0, 64, 0
2, 548688, Note_on_c, 0, 60, 46
2, 548698, Note_on_c, 0, 59, 0
2, 548906, Note_on_c, 0, 64, 54
2, 549018, Note_on_c, 0, 64, 0
2, 549114, Note_on_c, 0, 79, 61
2, 549138, Note_on_c, 0, 67, 33
2, 549140, Note_on_c, 0, 84, 0
2, 549367, Control_c, 0, 64, 127
2, 549374, Note_on_c, 0, 64, 44
2, 549388, Note_on_c, 0, 60, 0
2, 549516, Note_on_c, 0, 79, 0
2, 549538, Note_on_c, 0, 67, 0
2, 549556, Note_on_c, 0, 64, 0
2, 549590, Note_on_c, 0, 60, 53
2, 549674, Control_c, 0, 64, 0
2, 549822, Note_on_c, 0, 64, 55
2, 549858, Control_c, 0, 64, 127
2, 549892, Note_on_c, 0, 79, 107
2, 550030, Note_on_c, 0, 64, 0
2, 550068, Note_on_c, 0, 79, 0
2, 550088, Note_on_c, 0, 60, 0
2, 550108, Note_on_c, 0, 88, 87
2, 550108, Note_on_c, 0, 58, 37
2, 550181, Control_c, 0, 64, 0
2, 550358, Note_on_c, 0, 60, 54
2, 550488, Control_c, 0, 64, 127
2, 550608, Note_on_c, 0, 79, 60
2, 550614, Note_on_c, 0, 88, 0
2, 550618, Note_on_c, 0, 64, 36
2, 550628, Note_on_c, 0, 60, 0
2, 550808, Note_on_c, 0, 64, 0
2, 550840, Note_on_c, 0, 67, 49
2, 550850, Note_on_c, 0, 79, 0
2, 551014, Note_on_c, 0, 67, 0
2, 551068, Note_on_c, 0, 64, 60
2, 551202, Note_on_c, 0, 58, 0
2, 551268, Note_on_c, 0, 60, 54
2, 551314, Note_on_c, 0, 64, 0
2, 551338, Note_on_c, 0, 79, 110
2, 551502, Control_c, 0, 64, 0
2, 551512, Note_on_c, 0, 60, 0
2, 551514, Note_on_c, 0, 57, 49
2, 551534, Note_on_c, 0, 79, 0
2, 551536, Note_on_c, 0, 88, 103
2, 551762, Note_on_c, 0, 61, 64
2, 551932, Control_c, 0, 64, 127
2, 551978, Note_on_c, 0, 64, 67
2, 551988, Note_on_c, 0, 61, 0
2, 552044, Note_on_c, 0, 79, 95
2, 552046, Note_on_c, 0, 64, 0
2, 552058, Note_on_c, 0, 88, 0
2, 552206, Note_on_c, 0, 79, 0
2, 552212, Note_on_c, 0, 67, 63
2, 552298, Note_on_c, 0, 57, 0
2, 552388, Note_on_c, 0, 67, 0
2, 552450, Note_on_c, 0, 64, 78
2, 552654, Note_on_c, 0, 61, 72
2, 552672, Note_on_c, 0, 64, 0
2, 552764, Note_on_c, 0, 79, 110
2, 552804, Note_on_c, 0, 79, 0
2, 552870, Control_c, 0, 64, 0
2, 552902, Note_on_c, 0, 79, 82
2, 552904, Note_on_c, 0, 62, 70
2, 552918, Note_on_c, 0, 57, 47
2, 552946, Note_on_c, 0, 61, 0
2, 553170, Note_on_c, 0, 77, 80
2, 553238, Note_on_c, 0, 79, 0
2, 553284, Control_c, 0, 64, 127
2, 553386, Note_on_c, 0, 76, 78
2, 553391, Control_c, 0, 64, 0
2, 553412, Note_on_c, 0, 77, 0
2, 553562, Control_c, 0, 64, 127
2, 553614, Note_on_c, 0, 62, 0
2, 553618, Note_on_c, 0, 77, 78
2, 553652, Note_on_c, 0, 76, 0
2, 553704, Note_on_c, 0, 57, 0
2, 553822, Control_c, 0, 64, 0
2, 553834, Note_on_c, 0, 64, 39
2, 553852, Note_on_c, 0, 76, 57
2, 553852, Note_on_c, 0, 56, 39
2, 553884, Note_on_c, 0, 77, 0
2, 554006, Control_c, 0, 64, 127
2, 554042, Note_on_c, 0, 64, 0
2, 554064, Note_on_c, 0, 56, 0
2, 554076, Note_on_c, 0, 74, 64
2, 554096, Note_on_c, 0, 65, 38
2, 554104, Note_on_c, 0, 76, 0
2, 554172, Note_on_c, 0, 65, 0
2, 554310, Note_on_c, 0, 74, 0
2, 554318, Note_on_c, 0, 73, 47
2, 554334, Note_on_c, 0, 64, 41
2, 554346, Control_c, 0, 64, 0
2, 554376, Note_on_c, 0, 57, 22
2, 554540, Note_on_c, 0, 80, 56
2, 554588, Note_on_c, 0, 73, 0
2, 554784, Note_on_c, 0, 81, 65
2, 554808, Note_on_c, 0, 80, 0
2, 554834, Note_on_c, 0, 64, 0
2, 554918, Note_on_c, 0, 57, 0
2, 554996, Note_on_c, 0, 80, 91
2, 555038, Note_on_c, 0, 81, 0
2, 555238, Note_on_c, 0, 81, 99
2, 555270, Note_on_c, 0, 80, 0
2, 555468, Note_on_c, 0, 76, 92
2, 555504, Note_on_c, 0, 81, 0
2, 555698, Note_on_c, 0, 68, 55
2, 555706, Note_on_c, 0, 79, 93
2, 555714, Note_on_c, 0, 58, 39
2, 555742, Note_on_c, 0, 62, 41
2, 555748, Note_on_c, 0, 76, 0
2, 555938, Note_on_c, 0, 77, 86
2, 555984, Note_on_c, 0, 79, 0
2, 556166, Note_on_c, 0, 76, 67
2, 556176, Note_on_c, 0, 77, 0
2, 556400, Note_on_c, 0, 77, 55
2, 556416, Note_on_c, 0, 76, 0
2, 556622, Note_on_c, 0, 76, 65
2, 556628, Note_on_c, 0, 77, 0
2, 556772, Note_on_c, 0, 62, 0
2, 556804, Control_c, 0, 64, 127
2, 556848, Note_on_c, 0, 74, 60
2, 556852, Note_on_c, 0, 76, 0
2, 556906, Note_on_c, 0, 68, 0
2, 556920, Note_on_c, 0, 58, 0
2, 557050, Note_on_c, 0, 74, 0
2, 557076, Note_on_c, 0, 81, 61
2, 557080, Control_c, 0, 64, 0
2, 557082, Note_on_c, 0, 69, 24
2, 557098, Note_on_c, 0, 61, 30
2, 557106, Note_on_c, 0, 57, 22
2, 557302, Note_on_c, 0, 80, 80
2, 557322, Note_on_c, 0, 81, 0
2, 557400, Note_on_c, 0, 57, 0
2, 557403, Control_c, 0, 64, 127
2, 557406, Note_on_c, 0, 69, 0
2, 557478, Note_on_c, 0, 61, 0
2, 557534, Note_on_c, 0, 81, 83
2, 557580, Note_on_c, 0, 80, 0
2, 557634, Control_c, 0, 64, 0
2, 557752, Note_on_c, 0, 76, 78
2, 557772, Note_on_c, 0, 81, 0
2, 557992, Note_on_c, 0, 77, 75
2, 557995, Note_on_c, 0, 65, 29
2, 558004, Note_on_c, 0, 57, 30
2, 558010, Note_on_c, 0, 62, 34
2, 558030, Note_on_c, 0, 76, 0
2, 558190, Note_on_c, 0, 65, 0
2, 558193, Note_on_c, 0, 57, 0
2, 558196, Note_on_c, 0, 62, 0
2, 558216, Note_on_c, 0, 74, 77
2, 558218, Control_c, 0, 64, 127
2, 558230, Note_on_c, 0, 77, 0
2, 558294, Control_c, 0, 64, 0
2, 558418, Note_on_c, 0, 61, 51
2, 558420, Note_on_c, 0, 81, 69
2, 558424, Note_on_c, 0, 64, 61
2, 558432, Note_on_c, 0, 74, 0
2, 558442, Note_on_c, 0, 57, 49
2, 558648, Note_on_c, 0, 80, 83
2, 558692, Note_on_c, 0, 81, 0
2, 558708, Control_c, 0, 64, 127
2, 558718, Note_on_c, 0, 64, 0
2, 558721, Note_on_c, 0, 57, 0
2, 558776, Note_on_c, 0, 61, 0
2, 558896, Note_on_c, 0, 81, 86
2, 558938, Note_on_c, 0, 80, 0
2, 559000, Control_c, 0, 64, 0
2, 559120, Note_on_c, 0, 76, 70
2, 559144, Note_on_c, 0, 81, 0
2, 559368, Note_on_c, 0, 77, 54
2, 559370, Note_on_c, 0, 76, 0
2, 559384, Note_on_c, 0, 62, 34
2, 559386, Note_on_c, 0, 65, 28
2, 559388, Note_on_c, 0, 57, 29
2, 559582, Note_on_c, 0, 65, 0
2, 559582, Note_on_c, 0, 62, 0
2, 559585, Note_on_c, 0, 57, 0
2, 559585, Control_c, 0, 64, 127
2, 559620, Note_on_c, 0, 77, 0
2, 559626, Note_on_c, 0, 74, 59
2, 559814, Control_c, 0, 64, 0
2, 559856, Note_on_c, 0, 74, 0
2, 559872, Note_on_c, 0, 69, 41
2, 559878, Note_on_c, 0, 64, 34
2, 559890, Note_on_c, 0, 61, 25
2, 559902, Note_on_c, 0, 57, 30
2, 560092, Note_on_c, 0, 68, 60
2, 560104, Note_on_c, 0, 69, 0
2, 560168, Control_c, 0, 64, 127
2, 560300, Note_on_c, 0, 64, 0
2, 560326, Note_on_c, 0, 57, 0
2, 560330, Note_on_c, 0, 69, 52
2, 560336, Control_c, 0, 64, 0
2, 560356, Note_on_c, 0, 61, 0
2, 560358, Note_on_c, 0, 68, 0
2, 560564, Note_on_c, 0, 68, 55
2, 560582, Note_on_c, 0, 69, 0
2, 560782, Control_c, 0, 64, 127
2, 560830, Control_c, 0, 64, 0
2, 560846, Note_on_c, 0, 69, 28
2, 560878, Note_on_c, 0, 68, 0
2, 561074, Control_c, 0, 64, 127
2, 561118, Note_on_c, 0, 69, 0
2, 561134, Note_on_c, 0, 68, 21
2, 561474, Control_c, 0, 64, 0
2, 561544, Note_on_c, 0, 68, 0
2, 561558, Note_on_c, 0, 69, 26
2, 561568, Note_on_c, 0, 38, 32
2, 561568, Note_on_c, 0, 50, 28
2, 561586, Note_on_c, 0, 66, 15
2, 561812, Note_on_c, 0, 66, 0
2, 561812, Control_c, 0, 64, 127
2, 561888, Note_on_c, 0, 57, 21
2, 562074, Note_on_c, 0, 57, 0
2, 562158, Note_on_c, 0, 66, 31
2, 562168, Note_on_c, 0, 69, 0
2, 562178, Note_on_c, 0, 62, 23
2, 562410, Note_on_c, 0, 57, 32
2, 562423, Note_on_c, 0, 62, 0
2, 562504, Note_on_c, 0, 57, 0
2, 562586, Note_on_c, 0, 66, 0
2, 562634, Note_on_c, 0, 67, 52
2, 562668, Note_on_c, 0, 64, 44
2, 562688, Control_c, 0, 64, 0
2, 562858, Control_c, 0, 64, 127
2, 562886, Note_on_c, 0, 57, 54
2, 562910, Note_on_c, 0, 67, 0
2, 562966, Note_on_c, 0, 64, 0
2, 562974, Note_on_c, 0, 57, 0
2, 563112, Note_on_c, 0, 69, 52
2, 563124, Note_on_c, 0, 66, 48
2, 563164, Control_c, 0, 64, 0
2, 563334, Control_c, 0, 64, 127
2, 563346, Note_on_c, 0, 69, 0
2, 563360, Note_on_c, 0, 62, 67
2, 563368, Note_on_c, 0, 66, 0
2, 563428, Note_on_c, 0, 62, 0
2, 563454, Note_on_c, 0, 50, 0
2, 563604, Note_on_c, 0, 74, 82
2, 563626, Note_on_c, 0, 71, 57
2, 563748, Control_c, 0, 64, 0
2, 563792, Note_on_c, 0, 38, 0
2, 563842, Note_on_c, 0, 73, 74
2, 563850, Note_on_c, 0, 71, 0
2, 563856, Note_on_c, 0, 69, 53
2, 563888, Note_on_c, 0, 74, 0
2, 563948, Control_c, 0, 64, 127
2, 563994, Control_c, 0, 64, 0
2, 564051, Note_on_c, 0, 69, 0
2, 564086, Note_on_c, 0, 71, 80
2, 564100, Note_on_c, 0, 67, 42
2, 564114, Note_on_c, 0, 73, 0
2, 564136, Note_on_c, 0, 71, 0
2, 564148, Control_c, 0, 64, 127
2, 564294, Note_on_c, 0, 69, 67
2, 564302, Note_on_c, 0, 66, 46
2, 564324, Note_on_c, 0, 67, 0
2, 564442, Note_on_c, 0, 66, 0
2, 564556, Note_on_c, 0, 67, 70
2, 564572, Note_on_c, 0, 47, 68
2, 564578, Note_on_c, 0, 69, 0
2, 564608, Control_c, 0, 64, 0
2, 564814, Note_on_c, 0, 62, 45
2, 564886, Control_c, 0, 64, 127
2, 565000, Note_on_c, 0, 62, 0
2, 565004, Note_on_c, 0, 47, 0
2, 565042, Note_on_c, 0, 69, 54
2, 565048, Note_on_c, 0, 45, 56
2, 565052, Note_on_c, 0, 66, 36
2, 565062, Note_on_c, 0, 67, 0
2, 565070, Control_c, 0, 64, 0
2, 565312, Note_on_c, 0, 62, 42
2, 565346, Note_on_c, 0, 66, 0
2, 565362, Control_c, 0, 64, 127
2, 565398, Note_on_c, 0, 62, 0
2, 565516, Note_on_c, 0, 69, 0
2, 565518, Note_on_c, 0, 45, 0
2, 565520, Note_on_c, 0, 71, 54
2, 565530, Control_c, 0, 64, 0
2, 565540, Note_on_c, 0, 43, 47
2, 565540, Note_on_c, 0, 67, 29
2, 565768, Note_on_c, 0, 62, 36
2, 565808, Control_c, 0, 64, 127
2, 565884, Note_on_c, 0, 43, 0
2, 565902, Note_on_c, 0, 67, 0
2, 565922, Note_on_c, 0, 62, 0
2, 565950, Note_on_c, 0, 71, 0
2, 565976, Control_c, 0, 64, 0
2, 565984, Note_on_c, 0, 50, 47
2, 565990, Note_on_c, 0, 69, 39
2, 566010, Note_on_c, 0, 66, 19
2, 566156, Note_on_c, 0, 50, 0
2, 566176, Control_c, 0, 64, 127
2, 566206, Note_on_c, 0, 69, 0
2, 566228, Note_on_c, 0, 62, 49
2, 566254, Note_on_c, 0, 66, 0
2, 566288, Note_on_c, 0, 62, 0
2, 566542, Note_on_c, 0, 74, 46
2, 566545, Note_on_c, 0, 86, 77
2, 566554, Note_on_c, 0, 71, 32
2, 566576, Control_c, 0, 64, 0
2, 566668, Note_on_c, 0, 71, 0
2, 566784, Note_on_c, 0, 73, 64
2, 566794, Note_on_c, 0, 85, 83
2, 566820, Note_on_c, 0, 74, 0
2, 566820, Control_c, 0, 64, 127
2, 566823, Note_on_c, 0, 69, 37
2, 566834, Note_on_c, 0, 86, 0
2, 566936, Note_on_c, 0, 69, 0
2, 566986, Note_on_c, 0, 73, 0
2, 567014, Note_on_c, 0, 83, 114
2, 567016, Note_on_c, 0, 71, 56
2, 567024, Note_on_c, 0, 67, 49
2, 567038, Note_on_c, 0, 85, 0
2, 567080, Note_on_c, 0, 71, 0
2, 567188, Note_on_c, 0, 83, 0
2, 567226, Note_on_c, 0, 69, 57
2, 567229, Note_on_c, 0, 67, 0
2, 567236, Note_on_c, 0, 81, 84
2, 567248, Note_on_c, 0, 66, 36
2, 567320, Note_on_c, 0, 66, 0
2, 567496, Note_on_c, 0, 79, 90
2, 567512, Note_on_c, 0, 69, 0
2, 567516, Note_on_c, 0, 81, 0
2, 567516, Note_on_c, 0, 67, 52
2, 567542, Note_on_c, 0, 64, 36
2, 567574, Control_c, 0, 64, 0
2, 567754, Note_on_c, 0, 64, 0
2, 567774, Note_on_c, 0, 62, 30
2, 567836, Control_c, 0, 64, 127
2, 567902, Note_on_c, 0, 62, 0
2, 567966, Note_on_c, 0, 79, 0
2, 567980, Note_on_c, 0, 67, 0
2, 567983, Note_on_c, 0, 69, 44
2, 567990, Note_on_c, 0, 81, 71
2, 568004, Note_on_c, 0, 66, 23
2, 568004, Control_c, 0, 64, 0
2, 568234, Note_on_c, 0, 62, 37
2, 568242, Note_on_c, 0, 66, 0
2, 568296, Control_c, 0, 64, 127
2, 568380, Note_on_c, 0, 62, 0
2, 568390, Note_on_c, 0, 81, 0
2, 568444, Note_on_c, 0, 69, 0
2, 568458, Note_on_c, 0, 71, 46
2, 568464, Note_on_c, 0, 67, 37
2, 568464, Control_c, 0, 64, 0
2, 568472, Note_on_c, 0, 83, 88
2, 568726, Note_on_c, 0, 62, 33
2, 568728, Note_on_c, 0, 67, 0
2, 568758, Control_c, 0, 64, 127
2, 568834, Note_on_c, 0, 62, 0
2, 568900, Note_on_c, 0, 83, 0
2, 568976, Note_on_c, 0, 71, 0
2, 568994, Note_on_c, 0, 66, 19
2, 568999, Note_on_c, 0, 69, 28
2, 569004, Control_c, 0, 64, 0
2, 569007, Note_on_c, 0, 81, 55
2, 569280, Control_c, 0, 64, 127
2, 569286, Note_on_c, 0, 66, 0
2, 569286, Note_on_c, 0, 62, 26
2, 569404, Note_on_c, 0, 62, 0
2, 569458, Note_on_c, 0, 69, 0
2, 569486, Note_on_c, 0, 71, 45
2, 569508, Note_on_c, 0, 67, 23
2, 569538, Note_on_c, 0, 81, 0
2, 569626, Note_on_c, 0, 67, 0
2, 569678, Note_on_c, 0, 71, 0
2, 569706, Note_on_c, 0, 69, 41
2, 569720, Note_on_c, 0, 66, 28
2, 569756, Control_c, 0, 64, 0
2, 569910, Control_c, 0, 64, 127
2, 569916, Note_on_c, 0, 66, 0
2, 569928, Note_on_c, 0, 69, 0
2, 569948, Note_on_c, 0, 64, 48
2, 569954, Note_on_c, 0, 67, 37
2, 570030, Note_on_c, 0, 67, 0
2, 570160, Note_on_c, 0, 66, 64
2, 570182, Note_on_c, 0, 62, 46
2, 570196, Note_on_c, 0, 64, 0
2, 570248, Note_on_c, 0, 62, 0
2, 570436, Note_on_c, 0, 61, 48
2, 570448, Note_on_c, 0, 45, 38
2, 570454, Note_on_c, 0, 66, 0
2, 570456, Note_on_c, 0, 64, 63
2, 570540, Control_c, 0, 64, 0
2, 570696, Note_on_c, 0, 57, 51
2, 570778, Note_on_c, 0, 61, 0
2, 570800, Control_c, 0, 64, 127
2, 570856, Note_on_c, 0, 57, 0
2, 570938, Note_on_c, 0, 45, 0
2, 570938, Note_on_c, 0, 69, 47
2, 570941, Note_on_c, 0, 42, 55
2, 570956, Note_on_c, 0, 62, 46
2, 570964, Note_on_c, 0, 64, 0
2, 571032, Control_c, 0, 64, 0
2, 571176, Note_on_c, 0, 57, 38
2, 571188, Note_on_c, 0, 62, 0
2, 571276, Control_c, 0, 64, 127
2, 571334, Note_on_c, 0, 57, 0
2, 571406, Note_on_c, 0, 66, 46
2, 571408, Note_on_c, 0, 38, 48
2, 571420, Note_on_c, 0, 62, 41
2, 571434, Note_on_c, 0, 69, 0
2, 571444, Note_on_c, 0, 42, 0
2, 571462, Control_c, 0, 64, 0
2, 571656, Note_on_c, 0, 57, 39
2, 571659, Note_on_c, 0, 62, 0
2, 571754, Control_c, 0, 64, 127
2, 571776, Note_on_c, 0, 57, 0
2, 571848, Note_on_c, 0, 38, 0
2, 571876, Control_c, 0, 64, 0
2, 571880, Note_on_c, 0, 66, 0
2, 571894, Note_on_c, 0, 45, 39
2, 571897, Note_on_c, 0, 61, 40
2, 571926, Note_on_c, 0, 64, 41
2, 572088, Note_on_c, 0, 45, 0
2, 572106, Control_c, 0, 64, 127
2, 572130, Note_on_c, 0, 57, 52
2, 572184, Note_on_c, 0, 64, 0
2, 572194, Note_on_c, 0, 57, 0
2, 572204, Note_on_c, 0, 61, 0
2, 572480, Note_on_c, 0, 71, 45
2, 572484, Note_on_c, 0, 83, 90
2, 572486, Note_on_c, 0, 67, 41
2, 572564, Note_on_c, 0, 71, 0
2, 572704, Note_on_c, 0, 67, 0
2, 572710, Note_on_c, 0, 83, 0
2, 572730, Note_on_c, 0, 66, 41
2, 572733, Note_on_c, 0, 81, 79
2, 572733, Note_on_c, 0, 69, 55
2, 572768, Control_c, 0, 64, 0
2, 572864, Note_on_c, 0, 66, 0
2, 572952, Control_c, 0, 64, 127
2, 572968, Note_on_c, 0, 79, 87
2, 572976, Note_on_c, 0, 69, 0
2, 572984, Note_on_c, 0, 67, 48
2, 572998, Control_c, 0, 64, 0
2, 573006, Note_on_c, 0, 64, 41
2, 573008, Note_on_c, 0, 81, 0
2, 573080, Note_on_c, 0, 64, 0
2, 573154, Note_on_c, 0, 67, 0
2, 573188, Note_on_c, 0, 66, 56
2, 573198, Note_on_c, 0, 79, 0
2, 573198, Control_c, 0, 64, 127
2, 573200, Note_on_c, 0, 62, 49
2, 573206, Note_on_c, 0, 78, 60
2, 573244, Note_on_c, 0, 66, 0
2, 573374, Note_on_c, 0, 62, 0
2, 573378, Note_on_c, 0, 78, 0
2, 573390, Note_on_c, 0, 80, 53
2, 573438, Note_on_c, 0, 81, 69
2, 573438, Note_on_c, 0, 64, 55
2, 573440, Note_on_c, 0, 61, 45
2, 573444, Control_c, 0, 64, 0
2, 573450, Note_on_c, 0, 80, 0
2, 573638, Note_on_c, 0, 81, 0
2, 573658, Control_c, 0, 64, 127
2, 573664, Note_on_c, 0, 57, 52
2, 573702, Note_on_c, 0, 61, 0
2, 573760, Note_on_c, 0, 57, 0
2, 573812, Control_c, 0, 64, 0
2, 573856, Note_on_c, 0, 64, 0
2, 573859, Note_on_c, 0, 80, 60
2, 573904, Note_on_c, 0, 66, 23
2, 573907, Note_on_c, 0, 81, 70
2, 573912, Note_on_c, 0, 69, 32
2, 573922, Note_on_c, 0, 80, 0
2, 574048, Note_on_c, 0, 66, 0
2, 574104, Control_c, 0, 64, 127
2, 574106, Note_on_c, 0, 81, 0
2, 574126, Note_on_c, 0, 57, 36
2, 574274, Control_c, 0, 64, 0
2, 574294, Note_on_c, 0, 80, 40
2, 574304, Note_on_c, 0, 57, 0
2, 574346, Note_on_c, 0, 66, 39
2, 574360, Note_on_c, 0, 81, 54
2, 574362, Note_on_c, 0, 80, 0
2, 574366, Note_on_c, 0, 62, 38
2, 574378, Note_on_c, 0, 69, 0
2, 574570, Note_on_c, 0, 81, 0
2, 574586, Note_on_c, 0, 62, 0
2, 574586, Note_on_c, 0, 57, 40
2, 574596, Control_c, 0, 64, 127
2, 574720, Control_c, 0, 64, 0
2, 574738, Note_on_c, 0, 57, 0
2, 574746, Note_on_c, 0, 80, 28
2, 574800, Note_on_c, 0, 66, 0
2, 574818, Note_on_c, 0, 80, 0
2, 574818, Note_on_c, 0, 61, 42
2, 574828, Note_on_c, 0, 81, 36
2, 574852, Note_on_c, 0, 64, 37
2, 574978, Note_on_c, 0, 61, 0
2, 574984, Note_on_c, 0, 81, 0
2, 575010, Control_c, 0, 64, 127
2, 575024, Note_on_c, 0, 64, 0
2, 575142, Note_on_c, 0, 69, 31
2, 575218, Note_on_c, 0, 69, 0
2, 575420, Note_on_c, 0, 62, 49
2, 575426, Note_on_c, 0, 74, 69
2, 575452, Note_on_c, 0, 59, 29
2, 575488, Control_c, 0, 64, 0
2, 575636, Note_on_c, 0, 59, 0
2, 575654, Note_on_c, 0, 73, 71
2, 575662, Note_on_c, 0, 58, 45
2, 575670, Note_on_c, 0, 74, 0
2, 575718, Control_c, 0, 64, 127
2, 575842, Note_on_c, 0, 58, 0
2, 575870, Control_c, 0, 64, 0
2, 575882, Note_on_c, 0, 73, 0
2, 575884, Note_on_c, 0, 74, 91
2, 575894, Note_on_c, 0, 59, 55
2, 576040, Control_c, 0, 64, 127
2, 576042, Note_on_c, 0, 74, 0
2, 576068, Note_on_c, 0, 59, 0
2, 576104, Note_on_c, 0, 71, 85
2, 576118, Note_on_c, 0, 55, 63
2, 576150, Note_on_c, 0, 71, 0
2, 576298, Note_on_c, 0, 55, 0
2, 576318, Control_c, 0, 64, 0
2, 576328, Note_on_c, 0, 69, 63
2, 576344, Note_on_c, 0, 54, 60
2, 576400, Note_on_c, 0, 62, 0
2, 576532, Control_c, 0, 64, 127
2, 576568, Note_on_c, 0, 57, 60
2, 576571, Note_on_c, 0, 69, 0
2, 576674, Note_on_c, 0, 57, 0
2, 576796, Note_on_c, 0, 54, 0
2, 576802, Note_on_c, 0, 67, 70
2, 576816, Note_on_c, 0, 52, 61
2, 576824, Control_c, 0, 64, 0
2, 576826, Note_on_c, 0, 64, 52
2, 576898, Note_on_c, 0, 64, 0
2, 577050, Note_on_c, 0, 59, 57
2, 577070, Control_c, 0, 64, 127
2, 577184, Note_on_c, 0, 52, 0
2, 577224, Note_on_c, 0, 59, 0
2, 577270, Note_on_c, 0, 64, 84
2, 577272, Note_on_c, 0, 61, 63
2, 577274, Note_on_c, 0, 67, 0
2, 577276, Note_on_c, 0, 45, 44
2, 577300, Control_c, 0, 64, 0
2, 577516, Note_on_c, 0, 64, 0
2, 577526, Note_on_c, 0, 57, 62
2, 577546, Control_c, 0, 64, 127
2, 577594, Note_on_c, 0, 61, 0
2, 577702, Note_on_c, 0, 45, 0
2, 577738, Note_on_c, 0, 57, 0
2, 577758, Note_on_c, 0, 66, 60
2, 577758, Note_on_c, 0, 50, 64
2, 577761, Control_c, 0, 64, 0
2, 577784, Note_on_c, 0, 62, 47
2, 577878, Note_on_c, 0, 50, 0
2, 577902, Note_on_c, 0, 62, 0
2, 577930, Control_c, 0, 64, 127
2, 578006, Note_on_c, 0, 69, 67
2, 578054, Note_on_c, 0, 69, 0
2, 578058, Note_on_c, 0, 66, 0
2, 578314, Control_c, 0, 64, 0
2, 578317, Note_on_c, 0, 86, 67
2, 578322, Note_on_c, 0, 71, 52
2, 578328, Note_on_c, 0, 74, 75
2, 578530, Note_on_c, 0, 85, 84
2, 578536, Note_on_c, 0, 73, 76
2, 578540, Note_on_c, 0, 71, 0
2, 578544, Note_on_c, 0, 70, 53
2, 578574, Note_on_c, 0, 86, 0
2, 578586, Note_on_c, 0, 74, 0
2, 578652, Control_c, 0, 64, 127
2, 578738, Note_on_c, 0, 73, 0
2, 578746, Control_c, 0, 64, 0
2, 578774, Note_on_c, 0, 86, 86
2, 578778, Note_on_c, 0, 74, 68
2, 578780, Note_on_c, 0, 71, 60
2, 578788, Note_on_c, 0, 85, 0
2, 578810, Note_on_c, 0, 70, 0
2, 578892, Note_on_c, 0, 71, 0
2, 578960, Control_c, 0, 64, 127
2, 579004, Note_on_c, 0, 71, 69
2, 579006, Control_c, 0, 64, 0
2, 579018, Note_on_c, 0, 83, 115
2, 579021, Note_on_c, 0, 67, 47
2, 579036, Note_on_c, 0, 74, 0
2, 579056, Note_on_c, 0, 86, 0
2, 579098, Control_c, 0, 64, 127
2, 579208, Note_on_c, 0, 67, 0
2, 579236, Control_c, 0, 64, 0
2, 579250, Note_on_c, 0, 83, 0
2, 579272, Note_on_c, 0, 71, 0
2, 579276, Note_on_c, 0, 81, 86
2, 579284, Note_on_c, 0, 69, 46
2, 579314, Note_on_c, 0, 66, 24
2, 579420, Control_c, 0, 64, 127
2, 579474, Note_on_c, 0, 66, 0
2, 579480, Note_on_c, 0, 69, 0
2, 579508, Note_on_c, 0, 62, 55
2, 579652, Note_on_c, 0, 62, 0
2, 579688, Note_on_c, 0, 81, 0
2, 579720, Note_on_c, 0, 67, 56
2, 579726, Note_on_c, 0, 79, 77
2, 579728, Control_c, 0, 64, 0
2, 579752, Note_on_c, 0, 64, 46
2, 579838, Note_on_c, 0, 64, 0
2, 579896, Control_c, 0, 64, 127
2, 579954, Note_on_c, 0, 59, 42
2, 580112, Note_on_c, 0, 59, 0
2, 580166, Note_on_c, 0, 67, 0
2, 580168, Note_on_c, 0, 79, 0
2, 580182, Note_on_c, 0, 64, 57
2, 580187, Note_on_c, 0, 76, 48
2, 580196, Note_on_c, 0, 61, 39
2, 580234, Control_c, 0, 64, 0
2, 580404, Note_on_c, 0, 64, 0
2, 580420, Note_on_c, 0, 57, 41
2, 580450, Control_c, 0, 64, 127
2, 580464, Note_on_c, 0, 61, 0
2, 580602, Note_on_c, 0, 57, 0
2, 580620, Control_c, 0, 64, 0
2, 580624, Note_on_c, 0, 76, 0
2, 580652, Note_on_c, 0, 66, 40
2, 580655, Note_on_c, 0, 78, 42
2, 580700, Note_on_c, 0, 62, 31
2, 580802, Control_c, 0, 64, 127
2, 580810, Note_on_c, 0, 78, 0
2, 580864, Note_on_c, 0, 66, 0
2, 580886, Note_on_c, 0, 69, 44
2, 580966, Note_on_c, 0, 69, 0
2, 581136, Note_on_c, 0, 69, 51
2, 581148, Note_on_c, 0, 43, 45
2, 581156, Note_on_c, 0, 62, 0
2, 581158, Note_on_c, 0, 59, 44
2, 581188, Control_c, 0, 64, 0
2, 581380, Note_on_c, 0, 67, 62
2, 581388, Note_on_c, 0, 69, 0
2, 581388, Control_c, 0, 64, 127
2, 581406, Note_on_c, 0, 43, 0
2, 581602, Control_c, 0, 64, 0
2, 581622, Note_on_c, 0, 64, 74
2, 581628, Note_on_c, 0, 67, 0
2, 581628, Note_on_c, 0, 55, 53
2, 581631, Note_on_c, 0, 45, 45
2, 581642, Note_on_c, 0, 59, 0
2, 581848, Control_c, 0, 64, 127
2, 581850, Note_on_c, 0, 61, 79
2, 581864, Note_on_c, 0, 55, 0
2, 581902, Note_on_c, 0, 45, 0
2, 581908, Note_on_c, 0, 64, 0
2, 582076, Note_on_c, 0, 61, 0
2, 582080, Control_c, 0, 64, 0
2, 582088, Note_on_c, 0, 62, 85
2, 582102, Note_on_c, 0, 54, 49
2, 582118, Note_on_c, 0, 50, 46
2, 582334, Note_on_c, 0, 66, 65
2, 582354, Control_c, 0, 64, 127
2, 582364, Note_on_c, 0, 62, 0
2, 582370, Note_on_c, 0, 50, 0
2, 582388, Note_on_c, 0, 54, 0
2, 582504, Note_on_c, 0, 66, 0
2, 582570, Control_c, 0, 64, 0
2, 582602, Note_on_c, 0, 59, 51
2, 582602, Note_on_c, 0, 69, 49
2, 582629, Note_on_c, 0, 43, 47
2, 582828, Note_on_c, 0, 43, 0
2, 582832, Control_c, 0, 64, 127
2, 582866, Note_on_c, 0, 67, 49
2, 582880, Note_on_c, 0, 69, 0
2, 583010, Note_on_c, 0, 59, 0
2, 583032, Control_c, 0, 64, 0
2, 583035, Note_on_c, 0, 67, 0
2, 583110, Note_on_c, 0, 64, 56
2, 583126, Note_on_c, 0, 45, 30
2, 583134, Note_on_c, 0, 55, 39
2, 583280, Note_on_c, 0, 55, 0
2, 583306, Note_on_c, 0, 45, 0
2, 583342, Note_on_c, 0, 64, 0
2, 583390, Note_on_c, 0, 61, 40
2, 583670, Note_on_c, 0, 61, 0
2, 583706, Note_on_c, 0, 62, 37
2, 583730, Note_on_c, 0, 54, 36
2, 583750, Note_on_c, 0, 50, 30
2, 583930, Note_on_c, 0, 54, 0
2, 583938, Note_on_c, 0, 50, 0
2, 583954, Control_c, 0, 64, 127
2, 583984, Control_c, 0, 64, 0
2, 584160, Note_on_c, 0, 62, 0
2, 584426, Note_on_c, 0, 38, 36
2, 584492, Control_c, 0, 64, 127
2, 584558, Note_on_c, 0, 38, 0
2, 585120, Control_c, 0, 64, 0
2, 586212, Note_on_c, 0, 61, 54
2, 586272, Note_on_c, 0, 64, 77
2, 586330, Note_on_c, 0, 69, 92
2, 586334, Note_on_c, 0, 57, 72
2, 586342, Note_on_c, 0, 45, 64
2, 586356, Note_on_c, 0, 61, 0
2, 586440, Note_on_c, 0, 64, 0
2, 586902, Control_c, 0, 64, 127
2, 586916, Note_on_c, 0, 57, 0
2, 586962, Note_on_c, 0, 45, 0
2, 587272, Control_c, 0, 64, 0
2, 587284, Note_on_c, 0, 52, 70
2, 587286, Note_on_c, 0, 64, 98
2, 587286, Note_on_c, 0, 40, 75
2, 587294, Note_on_c, 0, 69, 0
2, 587448, Note_on_c, 0, 40, 0
2, 587456, Note_on_c, 0, 52, 0
2, 587456, Control_c, 0, 64, 127
2, 587756, Note_on_c, 0, 64, 0
2, 587756, Note_on_c, 0, 61, 71
2, 587762, Note_on_c, 0, 73, 85
2, 587774, Note_on_c, 0, 49, 55
2, 587810, Control_c, 0, 64, 0
2, 588054, Note_on_c, 0, 74, 74
2, 588070, Note_on_c, 0, 73, 0
2, 588073, Note_on_c, 0, 61, 0
2, 588152, Note_on_c, 0, 74, 0
2, 588156, Note_on_c, 0, 71, 76
2, 588272, Note_on_c, 0, 49, 0
2, 588286, Note_on_c, 0, 45, 30
2, 588286, Note_on_c, 0, 57, 18
2, 588289, Note_on_c, 0, 71, 0
2, 588292, Note_on_c, 0, 69, 47
2, 588690, Note_on_c, 0, 57, 0
2, 588716, Control_c, 0, 64, 127
2, 588724, Note_on_c, 0, 45, 0
2, 588756, Note_on_c, 0, 69, 0
2, 588794, Control_c, 0, 64, 0
2, 589172, Note_on_c, 0, 76, 51
2, 589458, Note_on_c, 0, 78, 52
2, 589518, Note_on_c, 0, 76, 0
2, 589544, Note_on_c, 0, 78, 0
2, 589576, Control_c, 0, 64, 127
2, 589590, Note_on_c, 0, 74, 46
2, 589702, Note_on_c, 0, 73, 54
2, 589720, Note_on_c, 0, 74, 0
2, 589792, Control_c, 0, 64, 0
2, 590114, Control_c, 0, 64, 127
2, 590146, Control_c, 0, 64, 0
2, 590168, Note_on_c, 0, 85, 69
2, 590192, Note_on_c, 0, 66, 24
2, 590200, Note_on_c, 0, 73, 0
2, 590202, Note_on_c, 0, 57, 36
2, 590376, Control_c, 0, 64, 127
2, 590408, Note_on_c, 0, 57, 0
2, 590448, Note_on_c, 0, 66, 0
2, 590456, Note_on_c, 0, 85, 0
2, 590674, Note_on_c, 0, 75, 49
2, 590684, Note_on_c, 0, 69, 21
2, 590720, Note_on_c, 0, 59, 22
2, 590790, Control_c, 0, 64, 0
2, 591066, Control_c, 0, 64, 127
2, 591174, Control_c, 0, 64, 0
2, 591200, Note_on_c, 0, 69, 0
2, 591224, Note_on_c, 0, 76, 34
2, 591252, Note_on_c, 0, 68, 25
2, 591260, Note_on_c, 0, 59, 0
2, 591278, Note_on_c, 0, 75, 0
2, 591281, Note_on_c, 0, 64, 24
2, 591744, Control_c, 0, 64, 127
2, 591894, Note_on_c, 0, 68, 0
2, 591928, Note_on_c, 0, 64, 0
2, 592142, Control_c, 0, 64, 0
2, 592144, Note_on_c, 0, 77, 62
2, 592246, Note_on_c, 0, 76, 0
2, 592413, Note_on_c, 0, 80, 64
2, 592448, Note_on_c, 0, 77, 0
2, 592652, Note_on_c, 0, 78, 60
2, 592680, Control_c, 0, 64, 127
2, 592730, Note_on_c, 0, 80, 0
2, 592886, Note_on_c, 0, 76, 60
2, 592924, Note_on_c, 0, 78, 0
2, 592927, Control_c, 0, 64, 0
2, 593110, Control_c, 0, 64, 127
2, 593126, Note_on_c, 0, 74, 53
2, 593158, Note_on_c, 0, 76, 0
2, 593356, Note_on_c, 0, 73, 48
2, 593424, Note_on_c, 0, 74, 0
2, 593590, Note_on_c, 0, 71, 69
2, 593634, Note_on_c, 0, 73, 0
2, 593838, Note_on_c, 0, 69, 44
2, 593860, Note_on_c, 0, 71, 0
2, 593872, Note_on_c, 0, 52, 40
2, 594080, Note_on_c, 0, 68, 55
2, 594094, Control_c, 0, 64, 0
2, 594128, Note_on_c, 0, 62, 32
2, 594164, Note_on_c, 0, 69, 0
2, 594314, Note_on_c, 0, 62, 0
2, 594316, Note_on_c, 0, 76, 54
2, 594354, Note_on_c, 0, 68, 0
2, 594358, Note_on_c, 0, 59, 32
2, 594572, Note_on_c, 0, 74, 47
2, 594580, Note_on_c, 0, 59, 0
2, 594586, Note_on_c, 0, 62, 37
2, 594602, Note_on_c, 0, 76, 0
2, 594786, Note_on_c, 0, 62, 0
2, 594812, Note_on_c, 0, 74, 0
2, 594828, Note_on_c, 0, 59, 47
2, 594846, Control_c, 0, 64, 127
2, 594994, Note_on_c, 0, 52, 0
2, 595046, Note_on_c, 0, 59, 0
2, 595056, Note_on_c, 0, 62, 44
2, 595278, Note_on_c, 0, 62, 0
2, 595290, Note_on_c, 0, 71, 76
2, 595320, Note_on_c, 0, 52, 45
2, 595323, Control_c, 0, 64, 0
2, 595518, Note_on_c, 0, 69, 70
2, 595534, Note_on_c, 0, 61, 45
2, 595552, Note_on_c, 0, 71, 0
2, 595554, Control_c, 0, 64, 127
2, 595744, Note_on_c, 0, 61, 0
2, 595754, Note_on_c, 0, 78, 70
2, 595766, Note_on_c, 0, 69, 0
2, 595784, Control_c, 0, 64, 0
2, 595788, Note_on_c, 0, 57, 30
2, 595972, Note_on_c, 0, 57, 0
2, 595978, Note_on_c, 0, 61, 44
2, 596008, Note_on_c, 0, 76, 56
2, 596020, Note_on_c, 0, 78, 0
2, 596044, Control_c, 0, 64, 127
2, 596138, Control_c, 0, 64, 0
2, 596208, Note_on_c, 0, 61, 0
2, 596242, Note_on_c, 0, 57, 51
2, 596254, Note_on_c, 0, 76, 0
2, 596322, Control_c, 0, 64, 127
2, 596386, Note_on_c, 0, 52, 0
2, 596458, Note_on_c, 0, 61, 57
2, 596472, Note_on_c, 0, 57, 0
2, 596704, Note_on_c, 0, 61, 0
2, 596710, Note_on_c, 0, 73, 76
2, 596732, Note_on_c, 0, 50, 51
2, 596814, Control_c, 0, 64, 0
2, 596964, Note_on_c, 0, 71, 101
2, 596972, Note_on_c, 0, 59, 54
2, 596998, Control_c, 0, 64, 127
2, 597028, Control_c, 0, 64, 0
2, 597034, Note_on_c, 0, 73, 0
2, 597184, Note_on_c, 0, 59, 0
2, 597200, Note_on_c, 0, 54, 61
2, 597214, Note_on_c, 0, 79, 101
2, 597228, Control_c, 0, 64, 127
2, 597236, Note_on_c, 0, 71, 0
2, 597274, Control_c, 0, 64, 0
2, 597438, Note_on_c, 0, 54, 0
2, 597454, Note_on_c, 0, 59, 57
2, 597486, Note_on_c, 0, 78, 78
2, 597500, Note_on_c, 0, 79, 0
2, 597644, Note_on_c, 0, 59, 0
2, 597674, Control_c, 0, 64, 127
2, 597674, Note_on_c, 0, 54, 64
2, 597677, Note_on_c, 0, 78, 0
2, 597730, Note_on_c, 0, 50, 0
2, 597902, Note_on_c, 0, 54, 0
2, 597905, Note_on_c, 0, 59, 52
2, 598072, Control_c, 0, 64, 0
2, 598184, Note_on_c, 0, 59, 0
2, 598204, Note_on_c, 0, 66, 60
2, 598214, Note_on_c, 0, 50, 48
2, 598566, Control_c, 0, 64, 127
2, 598692, Note_on_c, 0, 76, 53
2, 598697, Note_on_c, 0, 66, 0
2, 598752, Note_on_c, 0, 50, 0
2, 598856, Control_c, 0, 64, 0
2, 598938, Note_on_c, 0, 74, 59
2, 599006, Note_on_c, 0, 76, 0
2, 599156, Note_on_c, 0, 73, 53
2, 599172, Note_on_c, 0, 74, 0
2, 599364, Control_c, 0, 64, 127
2, 599384, Note_on_c, 0, 71, 61
2, 599396, Note_on_c, 0, 73, 0
2, 599580, Control_c, 0, 64, 0
2, 599622, Note_on_c, 0, 69, 52
2, 599636, Note_on_c, 0, 71, 0
2, 599642, Note_on_c, 0, 62, 28
2, 599648, Note_on_c, 0, 52, 30
2, 599890, Note_on_c, 0, 68, 33
2, 599900, Note_on_c, 0, 69, 0
2, 600052, Note_on_c, 0, 62, 0
2, 600134, Note_on_c, 0, 52, 0
2, 600178, Note_on_c, 0, 61, 33
2, 600182, Note_on_c, 0, 69, 30
2, 600202, Note_on_c, 0, 68, 0
2, 600220, Note_on_c, 0, 57, 18
2, 600594, Control_c, 0, 64, 127
2, 600606, Note_on_c, 0, 57, 0
2, 600609, Note_on_c, 0, 61, 0
2, 600754, Note_on_c, 0, 69, 0
2, 600854, Control_c, 0, 64, 0
2, 601128, Note_on_c, 0, 71, 83
2, 601190, Note_on_c, 0, 76, 65
2, 601246, Note_on_c, 0, 80, 90
2, 601288, Note_on_c, 0, 71, 0
2, 601306, Note_on_c, 0, 76, 0
2, 601322, Note_on_c, 0, 83, 127
2, 601330, Control_c, 0, 64, 127
2, 601334, Note_on_c, 0, 52, 84
2, 601398, Note_on_c, 0, 80, 0
2, 601408, Control_c, 0, 64, 0
2, 601566, Note_on_c, 0, 56, 72
2, 601622, Control_c, 0, 64, 127
2, 601732, Note_on_c, 0, 52, 0
2, 601784, Note_on_c, 0, 59, 70
2, 601806, Note_on_c, 0, 56, 0
2, 601838, Control_c, 0, 64, 0
2, 602022, Note_on_c, 0, 56, 62
2, 602042, Note_on_c, 0, 59, 0
2, 602252, Note_on_c, 0, 54, 64
2, 602268, Note_on_c, 0, 56, 0
2, 602464, Note_on_c, 0, 54, 0
2, 602490, Note_on_c, 0, 52, 65
2, 602528, Note_on_c, 0, 83, 0
2, 602702, Note_on_c, 0, 52, 0
2, 602706, Note_on_c, 0, 51, 62
2, 602734, Note_on_c, 0, 83, 102
2, 602806, Note_on_c, 0, 83, 0
2, 602840, Note_on_c, 0, 81, 61
2, 602912, Note_on_c, 0, 81, 0
2, 602932, Note_on_c, 0, 80, 77
2, 602936, Note_on_c, 0, 51, 0
2, 602936, Note_on_c, 0, 52, 60
2, 603008, Note_on_c, 0, 80, 0
2, 603040, Note_on_c, 0, 78, 79
2, 603084, Note_on_c, 0, 78, 0
2, 603106, Note_on_c, 0, 52, 0
2, 603140, Note_on_c, 0, 54, 65
2, 603156, Note_on_c, 0, 78, 79
2, 603286, Note_on_c, 0, 76, 64
2, 603289, Note_on_c, 0, 78, 0
2, 603352, Note_on_c, 0, 54, 0
2, 603378, Note_on_c, 0, 75, 80
2, 603392, Note_on_c, 0, 47, 42
2, 603410, Note_on_c, 0, 76, 0
2, 603482, Note_on_c, 0, 73, 78
2, 603510, Note_on_c, 0, 75, 0
2, 603588, Note_on_c, 0, 71, 95
2, 603600, Note_on_c, 0, 49, 56
2, 603630, Note_on_c, 0, 47, 0
2, 603638, Note_on_c, 0, 73, 0
2, 603668, Note_on_c, 0, 71, 0
2, 603686, Note_on_c, 0, 69, 79
2, 603794, Note_on_c, 0, 68, 86
2, 603804, Note_on_c, 0, 51, 63
2, 603826, Note_on_c, 0, 69, 0
2, 603826, Note_on_c, 0, 49, 0
2, 603894, Note_on_c, 0, 69, 76
2, 603918, Note_on_c, 0, 68, 0
2, 604008, Note_on_c, 0, 51, 0
2, 604008, Note_on_c, 0, 68, 80
2, 604016, Note_on_c, 0, 69, 0
2, 604030, Note_on_c, 0, 52, 74
2, 604116, Note_on_c, 0, 68, 0
2, 604128, Note_on_c, 0, 71, 90
2, 604212, Note_on_c, 0, 52, 0
2, 604216, Note_on_c, 0, 56, 67
2, 604240, Note_on_c, 0, 76, 83
2, 604272, Note_on_c, 0, 71, 0
2, 604346, Note_on_c, 0, 80, 85
2, 604354, Note_on_c, 0, 76, 0
2, 604446, Note_on_c, 0, 56, 0
2, 604464, Note_on_c, 0, 59, 62
2, 604480, Note_on_c, 0, 83, 100
2, 604488, Note_on_c, 0, 80, 0
2, 604718, Note_on_c, 0, 56, 52
2, 604724, Note_on_c, 0, 59, 0
2, 604948, Note_on_c, 0, 54, 54
2, 604954, Note_on_c, 0, 56, 0
2, 605180, Note_on_c, 0, 54, 0
2, 605184, Note_on_c, 0, 52, 61
2, 605278, Note_on_c, 0, 83, 0
2, 605414, Note_on_c, 0, 52, 0
2, 605414, Note_on_c, 0, 51, 68
2, 605422, Note_on_c, 0, 83, 113
2, 605530, Note_on_c, 0, 81, 77
2, 605558, Note_on_c, 0, 83, 0
2, 605632, Note_on_c, 0, 80, 85
2, 605644, Note_on_c, 0, 81, 0
2, 605644, Note_on_c, 0, 52, 79
2, 605656, Note_on_c, 0, 51, 0
2, 605744, Note_on_c, 0, 78, 85
2, 605749, Note_on_c, 0, 80, 0
2, 605788, Note_on_c, 0, 78, 0
2, 605830, Note_on_c, 0, 52, 0
2, 605862, Note_on_c, 0, 54, 68
2, 605865, Note_on_c, 0, 78, 76
2, 605988, Note_on_c, 0, 76, 70
2, 605993, Note_on_c, 0, 78, 0
2, 606084, Note_on_c, 0, 54, 0
2, 606096, Note_on_c, 0, 75, 83
2, 606096, Note_on_c, 0, 47, 47
2, 606128, Note_on_c, 0, 76, 0
2, 606196, Note_on_c, 0, 73, 74
2, 606224, Note_on_c, 0, 75, 0
2, 606310, Note_on_c, 0, 71, 85
2, 606313, Note_on_c, 0, 49, 54
2, 606318, Note_on_c, 0, 47, 0
2, 606356, Note_on_c, 0, 73, 0
2, 606406, Note_on_c, 0, 71, 0
2, 606416, Note_on_c, 0, 69, 64
2, 606518, Note_on_c, 0, 68, 83
2, 606521, Note_on_c, 0, 51, 51
2, 606534, Note_on_c, 0, 49, 0
2, 606548, Note_on_c, 0, 69, 0
2, 606620, Note_on_c, 0, 69, 63
2, 606632, Note_on_c, 0, 68, 0
2, 606716, Note_on_c, 0, 51, 0
2, 606740, Note_on_c, 0, 68, 59
2, 606758, Note_on_c, 0, 69, 0
2, 606768, Note_on_c, 0, 52, 56
2, 606862, Note_on_c, 0, 71, 75
2, 606874, Note_on_c, 0, 68, 0
2, 606954, Note_on_c, 0, 71, 0
2, 606974, Note_on_c, 0, 69, 67
2, 607066, Note_on_c, 0, 69, 0
2, 607076, Note_on_c, 0, 68, 69
2, 607202, Note_on_c, 0, 69, 75
2, 607208, Note_on_c, 0, 68, 0
2, 607274, Note_on_c, 0, 52, 0
2, 607304, Note_on_c, 0, 69, 0
2, 607304, Note_on_c, 0, 71, 87
2, 607406, Note_on_c, 0, 73, 83
2, 607420, Note_on_c, 0, 71, 0
2, 607518, Note_on_c, 0, 75, 84
2, 607564, Note_on_c, 0, 73, 0
2, 607610, Note_on_c, 0, 75, 0
2, 607624, Note_on_c, 0, 76, 88
2, 607728, Note_on_c, 0, 78, 87
2, 607752, Note_on_c, 0, 76, 0
2, 607834, Note_on_c, 0, 80, 94
2, 607870, Note_on_c, 0, 78, 0
2, 607938, Note_on_c, 0, 81, 86
2, 607952, Note_on_c, 0, 80, 0
2, 608032, Note_on_c, 0, 81, 0
2, 608050, Note_on_c, 0, 83, 117
2, 608158, Note_on_c, 0, 85, 77
2, 608186, Note_on_c, 0, 83, 0
2, 608264, Note_on_c, 0, 87, 69
2, 608312, Note_on_c, 0, 85, 0
2, 608374, Note_on_c, 0, 88, 82
2, 608404, Note_on_c, 0, 87, 0
2, 608482, Note_on_c, 0, 87, 67
2, 608534, Note_on_c, 0, 88, 0
2, 608596, Note_on_c, 0, 85, 76
2, 608616, Note_on_c, 0, 87, 0
2, 608724, Note_on_c, 0, 83, 98
2, 608730, Note_on_c, 0, 85, 0
2, 608848, Note_on_c, 0, 81, 55
2, 608856, Note_on_c, 0, 83, 0
2, 608942, Note_on_c, 0, 80, 51
2, 608962, Note_on_c, 0, 81, 0
2, 609070, Note_on_c, 0, 78, 59
2, 609112, Note_on_c, 0, 80, 0
2, 609194, Note_on_c, 0, 76, 33
2, 609216, Note_on_c, 0, 78, 0
2, 609282, Note_on_c, 0, 76, 0
2, 609284, Note_on_c, 0, 75, 59
2, 609448, Note_on_c, 0, 75, 0
2, 609452, Note_on_c, 0, 73, 52
2, 609464, Note_on_c, 0, 66, 32
2, 609486, Note_on_c, 0, 57, 31
2, 609612, Control_c, 0, 64, 127
2, 609626, Note_on_c, 0, 73, 0
2, 609782, Note_on_c, 0, 66, 0
2, 609890, Note_on_c, 0, 85, 71
2, 609968, Note_on_c, 0, 85, 0
2, 609986, Note_on_c, 0, 68, 40
2, 609996, Note_on_c, 0, 57, 0
2, 610006, Note_on_c, 0, 76, 79
2, 610030, Note_on_c, 0, 59, 37
2, 610090, Control_c, 0, 64, 0
2, 610318, Control_c, 0, 64, 127
2, 610474, Note_on_c, 0, 68, 0
2, 610516, Note_on_c, 0, 75, 52
2, 610520, Note_on_c, 0, 80, 68
2, 610526, Note_on_c, 0, 69, 33
2, 610534, Note_on_c, 0, 76, 0
2, 610550, Control_c, 0, 64, 0
2, 610752, Note_on_c, 0, 80, 0
2, 610776, Note_on_c, 0, 78, 48
2, 610858, Control_c, 0, 64, 127
2, 611010, Control_c, 0, 64, 0
2, 611030, Note_on_c, 0, 69, 0
2, 611050, Note_on_c, 0, 68, 33
2, 611060, Note_on_c, 0, 76, 46
2, 611076, Note_on_c, 0, 78, 0
2, 611076, Note_on_c, 0, 75, 0
2, 611084, Note_on_c, 0, 59, 0
2, 611098, Note_on_c, 0, 64, 21
2, 611318, Control_c, 0, 64, 127
2, 611336, Note_on_c, 0, 64, 0
2, 611748, Note_on_c, 0, 52, 25
2, 611786, Note_on_c, 0, 68, 0
2, 611978, Control_c, 0, 64, 0
2, 611992, Note_on_c, 0, 76, 0
2, 612164, Control_c, 0, 64, 127
2, 612210, Control_c, 0, 64, 0
2, 612216, Note_on_c, 0, 52, 0
2, 612684, Note_on_c, 0, 64, 68
2, 612850, Note_on_c, 0, 76, 85
2, 612934, Note_on_c, 0, 64, 0
2, 612946, Control_c, 0, 64, 127
2, 613274, Note_on_c, 0, 66, 68
2, 613286, Note_on_c, 0, 76, 0
2, 613390, Note_on_c, 0, 78, 87
2, 613424, Control_c, 0, 64, 0
2, 613638, Control_c, 0, 64, 127
2, 613648, Note_on_c, 0, 66, 0
2, 613770, Note_on_c, 0, 67, 63
2, 613928, Note_on_c, 0, 78, 0
2, 613938, Note_on_c, 0, 79, 97
2, 613992, Control_c, 0, 64, 0
2, 614164, Note_on_c, 0, 67, 0
2, 614176, Control_c, 0, 64, 127
2, 614254, Note_on_c, 0, 79, 0
2, 614426, Note_on_c, 0, 71, 85
2, 614439, Note_on_c, 0, 54, 44
2, 614590, Control_c, 0, 64, 0
2, 614700, Note_on_c, 0, 61, 59
2, 614810, Note_on_c, 0, 54, 0
2, 614928, Note_on_c, 0, 61, 0
2, 614930, Note_on_c, 0, 66, 47
2, 614952, Note_on_c, 0, 70, 53
2, 614990, Note_on_c, 0, 71, 0
2, 615178, Note_on_c, 0, 64, 71
2, 615216, Note_on_c, 0, 66, 0
2, 615268, Control_c, 0, 64, 127
2, 615318, Note_on_c, 0, 70, 0
2, 615406, Note_on_c, 0, 64, 0
2, 615406, Note_on_c, 0, 62, 72
2, 615574, Control_c, 0, 64, 0
2, 615644, Note_on_c, 0, 61, 59
2, 615652, Note_on_c, 0, 62, 0
2, 615720, Note_on_c, 0, 70, 82
2, 615858, Note_on_c, 0, 70, 0
2, 615870, Note_on_c, 0, 73, 72
2, 615888, Note_on_c, 0, 61, 0
2, 615891, Note_on_c, 0, 54, 59
2, 616124, Note_on_c, 0, 62, 64
2, 616146, Note_on_c, 0, 54, 0
2, 616250, Control_c, 0, 64, 127
2, 616326, Control_c, 0, 64, 0
2, 616334, Note_on_c, 0, 66, 30
2, 616340, Note_on_c, 0, 62, 0
2, 616358, Note_on_c, 0, 71, 71
2, 616398, Note_on_c, 0, 73, 0
2, 616600, Note_on_c, 0, 66, 0
2, 616602, Note_on_c, 0, 62, 53
2, 616650, Note_on_c, 0, 71, 0
2, 616666, Control_c, 0, 64, 127
2, 616800, Note_on_c, 0, 61, 62
2, 616805, Note_on_c, 0, 62, 0
2, 616958, Control_c, 0, 64, 0
2, 617038, Note_on_c, 0, 59, 59
2, 617092, Note_on_c, 0, 61, 0
2, 617136, Note_on_c, 0, 71, 90
2, 617142, Control_c, 0, 64, 127
2, 617280, Control_c, 0, 64, 0
2, 617292, Note_on_c, 0, 71, 0
2, 617296, Note_on_c, 0, 74, 95
2, 617320, Note_on_c, 0, 59, 0
2, 617320, Note_on_c, 0, 54, 61
2, 617536, Note_on_c, 0, 58, 54
2, 617586, Note_on_c, 0, 54, 0
2, 617618, Control_c, 0, 64, 127
2, 617752, Note_on_c, 0, 64, 61
2, 617757, Control_c, 0, 64, 0
2, 617770, Note_on_c, 0, 58, 0
2, 617798, Note_on_c, 0, 73, 42
2, 617828, Note_on_c, 0, 74, 0
2, 617998, Note_on_c, 0, 61, 48
2, 618036, Note_on_c, 0, 64, 0
2, 618078, Control_c, 0, 64, 127
2, 618102, Note_on_c, 0, 73, 0
2, 618234, Note_on_c, 0, 59, 40
2, 618240, Note_on_c, 0, 61, 0
2, 618248, Control_c, 0, 64, 0
2, 618452, Note_on_c, 0, 58, 41
2, 618458, Note_on_c, 0, 59, 0
2, 618540, Control_c, 0, 64, 127
2, 618572, Note_on_c, 0, 73, 62
2, 618632, Control_c, 0, 64, 0
2, 618692, Note_on_c, 0, 73, 0
2, 618736, Note_on_c, 0, 76, 62
2, 618764, Note_on_c, 0, 59, 38
2, 618776, Note_on_c, 0, 58, 0
2, 618976, Note_on_c, 0, 74, 77
2, 618986, Control_c, 0, 64, 127
2, 619006, Note_on_c, 0, 76, 0
2, 619164, Note_on_c, 0, 74, 0
2, 619206, Note_on_c, 0, 77, 85
2, 619216, Control_c, 0, 64, 0
2, 619272, Note_on_c, 0, 59, 0
2, 619432, Control_c, 0, 64, 127
2, 619440, Note_on_c, 0, 76, 88
2, 619470, Note_on_c, 0, 77, 0
2, 619562, Note_on_c, 0, 76, 0
2, 619676, Control_c, 0, 64, 0
2, 619692, Note_on_c, 0, 79, 85
2, 619892, Control_c, 0, 64, 127
2, 619974, Note_on_c, 0, 77, 77
2, 619982, Note_on_c, 0, 79, 0
2, 620068, Note_on_c, 0, 77, 0
2, 620266, Note_on_c, 0, 69, 44
2, 620300, Note_on_c, 0, 52, 32
2, 620352, Control_c, 0, 64, 0
2, 620530, Note_on_c, 0, 59, 48
2, 620630, Control_c, 0, 64, 127
2, 620638, Note_on_c, 0, 52, 0
2, 620744, Note_on_c, 0, 59, 0
2, 620784, Note_on_c, 0, 64, 47
2, 620787, Note_on_c, 0, 68, 37
2, 620798, Control_c, 0, 64, 0
2, 620836, Note_on_c, 0, 69, 0
2, 621012, Note_on_c, 0, 64, 0
2, 621020, Note_on_c, 0, 62, 53
2, 621044, Control_c, 0, 64, 127
2, 621164, Note_on_c, 0, 68, 0
2, 621216, Note_on_c, 0, 62, 0
2, 621252, Note_on_c, 0, 60, 44
2, 621306, Control_c, 0, 64, 0
2, 621488, Note_on_c, 0, 59, 46
2, 621490, Note_on_c, 0, 60, 0
2, 621536, Control_c, 0, 64, 127
2, 621558, Note_on_c, 0, 68, 70
2, 621662, Note_on_c, 0, 68, 0
2, 621708, Note_on_c, 0, 59, 0
2, 621734, Note_on_c, 0, 71, 72
2, 621734, Control_c, 0, 64, 0
2, 621752, Note_on_c, 0, 52, 56
2, 621974, Note_on_c, 0, 60, 60
2, 621980, Note_on_c, 0, 52, 0
2, 622058, Control_c, 0, 64, 127
2, 622184, Note_on_c, 0, 60, 0
2, 622190, Note_on_c, 0, 64, 55
2, 622198, Control_c, 0, 64, 0
2, 622244, Note_on_c, 0, 69, 45
2, 622278, Note_on_c, 0, 71, 0
2, 622386, Note_on_c, 0, 64, 0
2, 622430, Note_on_c, 0, 60, 49
2, 622442, Control_c, 0, 64, 127
2, 622530, Note_on_c, 0, 69, 0
2, 622614, Note_on_c, 0, 60, 0
2, 622656, Note_on_c, 0, 59, 45
2, 622704, Control_c, 0, 64, 0
2, 622854, Note_on_c, 0, 59, 0
2, 622868, Note_on_c, 0, 57, 39
2, 622934, Control_c, 0, 64, 127
2, 622958, Note_on_c, 0, 69, 47
2, 623038, Note_on_c, 0, 69, 0
2, 623088, Control_c, 0, 64, 0
2, 623114, Note_on_c, 0, 57, 0
2, 623114, Note_on_c, 0, 72, 47
2, 623142, Note_on_c, 0, 52, 48
2, 623372, Note_on_c, 0, 56, 41
2, 623375, Note_on_c, 0, 52, 0
2, 623472, Control_c, 0, 64, 127
2, 623580, Note_on_c, 0, 62, 45
2, 623626, Note_on_c, 0, 56, 0
2, 623634, Note_on_c, 0, 71, 52
2, 623656, Control_c, 0, 64, 0
2, 623702, Note_on_c, 0, 72, 0
2, 623794, Note_on_c, 0, 62, 0
2, 623840, Note_on_c, 0, 59, 44
2, 623918, Control_c, 0, 64, 127
2, 624010, Control_c, 0, 64, 0
2, 624056, Note_on_c, 0, 57, 49
2, 624072, Note_on_c, 0, 59, 0
2, 624084, Note_on_c, 0, 71, 0
2, 624208, Control_c, 0, 64, 127
2, 624256, Control_c, 0, 64, 0
2, 624288, Note_on_c, 0, 57, 0
2, 624294, Note_on_c, 0, 56, 49
2, 624368, Note_on_c, 0, 71, 77
2, 624534, Note_on_c, 0, 74, 84
2, 624536, Note_on_c, 0, 71, 0
2, 624548, Note_on_c, 0, 56, 0
2, 624568, Note_on_c, 0, 57, 39
2, 624768, Note_on_c, 0, 72, 80
2, 624794, Control_c, 0, 64, 127
2, 624824, Note_on_c, 0, 74, 0
2, 625000, Note_on_c, 0, 71, 97
2, 625008, Control_c, 0, 64, 0
2, 625042, Note_on_c, 0, 72, 0
2, 625208, Control_c, 0, 64, 127
2, 625220, Note_on_c, 0, 71, 0
2, 625220, Note_on_c, 0, 69, 90
2, 625276, Note_on_c, 0, 57, 0
2, 625440, Note_on_c, 0, 69, 0
2, 625456, Note_on_c, 0, 81, 102
2, 625476, Note_on_c, 0, 55, 57
2, 625480, Note_on_c, 0, 43, 48
2, 625546, Control_c, 0, 64, 0
2, 625552, Note_on_c, 0, 81, 0
2, 625678, Note_on_c, 0, 81, 101
2, 625768, Note_on_c, 0, 55, 0
2, 625776, Control_c, 0, 64, 127
2, 625806, Note_on_c, 0, 81, 0
2, 625918, Note_on_c, 0, 83, 127
2, 625930, Note_on_c, 0, 41, 82
2, 625932, Note_on_c, 0, 43, 0
2, 625934, Note_on_c, 0, 53, 102
2, 626160, Note_on_c, 0, 81, 114
2, 626284, Note_on_c, 0, 83, 0
2, 626388, Note_on_c, 0, 79, 116
2, 626422, Control_c, 0, 64, 0
2, 626476, Note_on_c, 0, 81, 0
2, 626608, Note_on_c, 0, 77, 111
2, 626636, Control_c, 0, 64, 127
2, 626638, Note_on_c, 0, 41, 0
2, 626644, Note_on_c, 0, 53, 0
2, 626674, Note_on_c, 0, 79, 0
2, 626826, Note_on_c, 0, 76, 105
2, 626838, Control_c, 0, 64, 0
2, 626856, Note_on_c, 0, 77, 0
2, 627048, Note_on_c, 0, 75, 110
2, 627102, Note_on_c, 0, 76, 0
2, 627114, Control_c, 0, 64, 127
2, 627300, Note_on_c, 0, 84, 109
2, 627312, Note_on_c, 0, 57, 61
2, 627316, Note_on_c, 0, 53, 88
2, 627356, Note_on_c, 0, 75, 0
2, 627436, Control_c, 0, 64, 0
2, 627520, Note_on_c, 0, 56, 65
2, 627550, Note_on_c, 0, 57, 0
2, 627698, Control_c, 0, 64, 127
2, 627774, Control_c, 0, 64, 0
2, 627777, Note_on_c, 0, 57, 72
2, 627794, Note_on_c, 0, 56, 0
2, 628042, Note_on_c, 0, 57, 0
2, 628052, Note_on_c, 0, 60, 53
2, 628302, Note_on_c, 0, 60, 0
2, 628310, Note_on_c, 0, 75, 63
2, 628334, Note_on_c, 0, 59, 47
2, 628394, Note_on_c, 0, 84, 0
2, 628536, Note_on_c, 0, 59, 0
2, 628582, Note_on_c, 0, 57, 41
2, 628710, Control_c, 0, 64, 127
2, 628804, Note_on_c, 0, 53, 0
2, 628880, Control_c, 0, 64, 0
2, 628950, Note_on_c, 0, 76, 53
2, 628966, Note_on_c, 0, 56, 29
2, 628990, Note_on_c, 0, 52, 51
2, 629000, Note_on_c, 0, 57, 0
2, 629016, Note_on_c, 0, 75, 0
2, 629618, Control_c, 0, 64, 127
2, 629788, Note_on_c, 0, 56, 0
2, 629932, Note_on_c, 0, 52, 0
2, 629990, Note_on_c, 0, 76, 0
2, 629990, Note_on_c, 0, 78, 62
2, 630136, Note_on_c, 0, 78, 0
2, 630136, Note_on_c, 0, 76, 57
2, 630188, Note_on_c, 0, 76, 0
2, 630256, Note_on_c, 0, 76, 70
2, 630262, Control_c, 0, 64, 0
2, 630386, Note_on_c, 0, 74, 91
2, 630418, Note_on_c, 0, 76, 0
2, 630464, Control_c, 0, 64, 127
2, 630506, Note_on_c, 0, 73, 64
2, 630511, Note_on_c, 0, 74, 0
2, 630576, Note_on_c, 0, 71, 98
2, 630612, Note_on_c, 0, 71, 0
2, 630612, Note_on_c, 0, 73, 0
2, 630744, Note_on_c, 0, 61, 95
2, 630788, Note_on_c, 0, 64, 80
2, 630840, Note_on_c, 0, 57, 64
2, 630840, Note_on_c, 0, 45, 55
2, 630842, Note_on_c, 0, 69, 98
2, 630866, Note_on_c, 0, 61, 0
2, 630878, Control_c, 0, 64, 0
2, 631060, Note_on_c, 0, 64, 0
2, 631462, Control_c, 0, 64, 127
2, 631514, Note_on_c, 0, 57, 0
2, 631620, Note_on_c, 0, 45, 0
2, 631824, Note_on_c, 0, 64, 92
2, 631840, Note_on_c, 0, 69, 0
2, 631840, Note_on_c, 0, 52, 79
2, 631846, Note_on_c, 0, 40, 82
2, 631846, Control_c, 0, 64, 0
2, 631998, Note_on_c, 0, 40, 0
2, 632016, Note_on_c, 0, 52, 0
2, 632016, Control_c, 0, 64, 127
2, 632302, Note_on_c, 0, 64, 0
2, 632308, Note_on_c, 0, 73, 99
2, 632316, Note_on_c, 0, 61, 71
2, 632320, Note_on_c, 0, 49, 71
2, 632338, Control_c, 0, 64, 0
2, 632584, Note_on_c, 0, 74, 90
2, 632614, Control_c, 0, 64, 127
2, 632616, Note_on_c, 0, 61, 0
2, 632630, Note_on_c, 0, 73, 0
2, 632688, Note_on_c, 0, 71, 90
2, 632706, Control_c, 0, 64, 0
2, 632728, Note_on_c, 0, 74, 0
2, 632798, Note_on_c, 0, 49, 0
2, 632806, Note_on_c, 0, 71, 0
2, 632806, Note_on_c, 0, 57, 31
2, 632816, Note_on_c, 0, 69, 75
2, 632828, Note_on_c, 0, 45, 34
2, 633194, Note_on_c, 0, 57, 0
2, 633214, Control_c, 0, 64, 127
2, 633234, Note_on_c, 0, 45, 0
2, 633282, Note_on_c, 0, 69, 0
2, 633336, Control_c, 0, 64, 0
2, 633722, Note_on_c, 0, 76, 52
2, 633936, Control_c, 0, 64, 127
2, 633998, Note_on_c, 0, 78, 46
2, 634052, Note_on_c, 0, 76, 0
2, 634082, Note_on_c, 0, 78, 0
2, 634102, Note_on_c, 0, 74, 64
2, 634224, Note_on_c, 0, 73, 76
2, 634234, Note_on_c, 0, 74, 0
2, 634288, Control_c, 0, 64, 0
2, 634550, Control_c, 0, 64, 127
2, 634672, Control_c, 0, 64, 0
2, 634712, Note_on_c, 0, 85, 77
2, 634756, Note_on_c, 0, 73, 0
2, 634756, Note_on_c, 0, 57, 34
2, 634756, Note_on_c, 0, 66, 25
2, 634920, Control_c, 0, 64, 127
2, 634978, Note_on_c, 0, 57, 0
2, 635002, Note_on_c, 0, 85, 0
2, 635202, Note_on_c, 0, 66, 0
2, 635214, Note_on_c, 0, 75, 68
2, 635230, Note_on_c, 0, 69, 29
2, 635274, Note_on_c, 0, 59, 26
2, 635396, Control_c, 0, 64, 0
2, 635640, Control_c, 0, 64, 127
2, 635734, Note_on_c, 0, 59, 0
2, 635734, Control_c, 0, 64, 0
2, 635776, Note_on_c, 0, 76, 44
2, 635778, Note_on_c, 0, 69, 0
2, 635800, Note_on_c, 0, 68, 18
2, 635822, Note_on_c, 0, 64, 26
2, 635842, Note_on_c, 0, 75, 0
2, 636286, Control_c, 0, 64, 127
2, 636298, Note_on_c, 0, 68, 0
2, 636350, Note_on_c, 0, 64, 0
2, 636680, Note_on_c, 0, 77, 48
2, 636732, Control_c, 0, 64, 0
2, 636748, Note_on_c, 0, 76, 0
2, 636992, Note_on_c, 0, 80, 40
2, 637010, Note_on_c, 0, 77, 0
2, 637224, Control_c, 0, 64, 127
2, 637240, Note_on_c, 0, 78, 53
2, 637270, Control_c, 0, 64, 0
2, 637308, Note_on_c, 0, 80, 0
2, 637408, Control_c, 0, 64, 127
2, 637478, Note_on_c, 0, 76, 47
2, 637500, Control_c, 0, 64, 0
2, 637504, Note_on_c, 0, 78, 0
2, 637622, Control_c, 0, 64, 127
2, 637698, Note_on_c, 0, 76, 0
2, 637700, Note_on_c, 0, 74, 55
2, 637702, Control_c, 0, 64, 0
2, 637824, Control_c, 0, 64, 127
2, 637918, Note_on_c, 0, 73, 49
2, 637930, Control_c, 0, 64, 0
2, 637974, Note_on_c, 0, 74, 0
2, 638068, Control_c, 0, 64, 127
2, 638142, Note_on_c, 0, 71, 63
2, 638160, Note_on_c, 0, 73, 0
2, 638176, Control_c, 0, 64, 0
2, 638300, Control_c, 0, 64, 127
2, 638376, Note_on_c, 0, 71, 0
2, 638381, Note_on_c, 0, 69, 45
2, 638422, Control_c, 0, 64, 0
2, 638444, Note_on_c, 0, 52, 31
2, 638614, Note_on_c, 0, 68, 51
2, 638630, Note_on_c, 0, 69, 0
2, 638676, Note_on_c, 0, 62, 36
2, 638836, Control_c, 0, 64, 127
2, 638860, Note_on_c, 0, 76, 48
2, 638878, Note_on_c, 0, 68, 0
2, 638882, Control_c, 0, 64, 0
2, 638904, Note_on_c, 0, 62, 0
2, 638940, Note_on_c, 0, 59, 32
2, 639074, Note_on_c, 0, 59, 0
2, 639098, Control_c, 0, 64, 127
2, 639114, Note_on_c, 0, 74, 48
2, 639130, Note_on_c, 0, 76, 0
2, 639174, Note_on_c, 0, 62, 30
2, 639282, Control_c, 0, 64, 0
2, 639288, Note_on_c, 0, 62, 0
2, 639368, Note_on_c, 0, 74, 0
2, 639394, Note_on_c, 0, 59, 34
2, 639422, Control_c, 0, 64, 127
2, 639578, Note_on_c, 0, 52, 0
2, 639620, Note_on_c, 0, 62, 45
2, 639632, Note_on_c, 0, 59, 0
2, 639856, Note_on_c, 0, 71, 77
2, 639874, Note_on_c, 0, 62, 0
2, 639908, Note_on_c, 0, 52, 44
2, 639912, Control_c, 0, 64, 0
2, 640088, Note_on_c, 0, 69, 62
2, 640096, Control_c, 0, 64, 127
2, 640101, Note_on_c, 0, 61, 46
2, 640116, Note_on_c, 0, 71, 0
2, 640158, Control_c, 0, 64, 0
2, 640312, Control_c, 0, 64, 127
2, 640320, Note_on_c, 0, 78, 74
2, 640326, Note_on_c, 0, 61, 0
2, 640328, Note_on_c, 0, 69, 0
2, 640340, Note_on_c, 0, 57, 53
2, 640358, Control_c, 0, 64, 0
2, 640546, Note_on_c, 0, 57, 0
2, 640551, Note_on_c, 0, 76, 62
2, 640555, Note_on_c, 0, 61, 49
2, 640558, Control_c, 0, 64, 127
2, 640562, Note_on_c, 0, 78, 0
2, 640646, Note_on_c, 0, 76, 0
2, 640730, Note_on_c, 0, 52, 0
2, 640748, Note_on_c, 0, 61, 0
2, 640784, Note_on_c, 0, 57, 55
2, 640896, Control_c, 0, 64, 0
2, 641002, Note_on_c, 0, 61, 57
2, 641056, Note_on_c, 0, 57, 0
2, 641142, Control_c, 0, 64, 127
2, 641234, Note_on_c, 0, 71, 90
2, 641250, Note_on_c, 0, 61, 0
2, 641268, Note_on_c, 0, 52, 75
2, 641480, Note_on_c, 0, 69, 91
2, 641494, Note_on_c, 0, 61, 63
2, 641496, Control_c, 0, 64, 0
2, 641510, Note_on_c, 0, 71, 0
2, 641680, Control_c, 0, 64, 127
2, 641736, Note_on_c, 0, 61, 0
2, 641758, Note_on_c, 0, 57, 52
2, 641761, Note_on_c, 0, 81, 99
2, 641772, Note_on_c, 0, 69, 0
2, 641772, Control_c, 0, 64, 0
2, 641986, Control_c, 0, 64, 127
2, 642006, Note_on_c, 0, 61, 56
2, 642016, Note_on_c, 0, 57, 0
2, 642048, Note_on_c, 0, 79, 94
2, 642116, Note_on_c, 0, 81, 0
2, 642140, Control_c, 0, 64, 0
2, 642252, Note_on_c, 0, 57, 60
2, 642255, Note_on_c, 0, 61, 0
2, 642294, Control_c, 0, 64, 127
2, 642300, Note_on_c, 0, 79, 0
2, 642382, Note_on_c, 0, 52, 0
2, 642464, Note_on_c, 0, 57, 0
2, 642484, Note_on_c, 0, 61, 61
2, 642616, Note_on_c, 0, 61, 0
2, 642770, Control_c, 0, 64, 0
2, 642818, Note_on_c, 0, 62, 30
2, 642826, Note_on_c, 0, 79, 78
2, 642834, Note_on_c, 0, 57, 30
2, 642852, Note_on_c, 0, 50, 31
2, 643098, Note_on_c, 0, 78, 70
2, 643124, Control_c, 0, 64, 127
2, 643142, Note_on_c, 0, 79, 0
2, 643170, Control_c, 0, 64, 0
2, 643328, Note_on_c, 0, 76, 78
2, 643370, Control_c, 0, 64, 127
2, 643373, Note_on_c, 0, 78, 0
2, 643538, Note_on_c, 0, 50, 0
2, 643554, Note_on_c, 0, 74, 90
2, 643560, Note_on_c, 0, 62, 0
2, 643562, Note_on_c, 0, 57, 0
2, 643574, Note_on_c, 0, 76, 0
2, 643600, Control_c, 0, 64, 0
2, 643790, Note_on_c, 0, 73, 78
2, 643823, Note_on_c, 0, 74, 0
2, 644020, Note_on_c, 0, 71, 92
2, 644044, Note_on_c, 0, 73, 0
2, 644286, Note_on_c, 0, 76, 65
2, 644292, Note_on_c, 0, 49, 45
2, 644348, Note_on_c, 0, 71, 0
2, 644416, Note_on_c, 0, 76, 0
2, 644432, Note_on_c, 0, 78, 63
2, 644492, Note_on_c, 0, 76, 64
2, 644530, Note_on_c, 0, 78, 0
2, 644600, Note_on_c, 0, 74, 63
2, 644614, Note_on_c, 0, 76, 0
2, 644666, Note_on_c, 0, 74, 0
2, 644680, Note_on_c, 0, 76, 91
2, 644768, Control_c, 0, 64, 127
2, 644828, Note_on_c, 0, 49, 0
2, 644888, Note_on_c, 0, 50, 53
2, 644894, Note_on_c, 0, 78, 63
2, 644906, Note_on_c, 0, 76, 0
2, 644956, Note_on_c, 0, 50, 0
2, 645102, Note_on_c, 0, 69, 52
2, 645114, Note_on_c, 0, 61, 52
2, 645128, Note_on_c, 0, 78, 0
2, 645144, Note_on_c, 0, 52, 53
2, 645228, Control_c, 0, 64, 0
2, 645568, Control_c, 0, 64, 127
2, 645658, Note_on_c, 0, 68, 55
2, 645684, Note_on_c, 0, 61, 0
2, 645690, Control_c, 0, 64, 0
2, 645692, Note_on_c, 0, 69, 0
2, 645698, Note_on_c, 0, 59, 36
2, 645874, Control_c, 0, 64, 127
2, 645902, Note_on_c, 0, 68, 0
2, 645944, Note_on_c, 0, 69, 68
2, 646028, Note_on_c, 0, 73, 72
2, 646080, Note_on_c, 0, 69, 0
2, 646102, Note_on_c, 0, 59, 0
2, 646110, Note_on_c, 0, 76, 99
2, 646120, Control_c, 0, 64, 0
2, 646132, Note_on_c, 0, 57, 45
2, 646148, Note_on_c, 0, 52, 0
2, 646166, Note_on_c, 0, 73, 0
2, 646318, Note_on_c, 0, 76, 0
2, 646372, Note_on_c, 0, 61, 59
2, 646596, Note_on_c, 0, 57, 0
2, 646612, Note_on_c, 0, 61, 0
2, 646616, Note_on_c, 0, 76, 61
2, 646638, Note_on_c, 0, 64, 45
2, 646816, Note_on_c, 0, 64, 0
2, 646826, Control_c, 0, 64, 127
2, 646864, Note_on_c, 0, 61, 45
2, 647056, Note_on_c, 0, 61, 0
2, 647088, Control_c, 0, 64, 0
2, 647091, Note_on_c, 0, 59, 34
2, 647308, Note_on_c, 0, 59, 0
2, 647322, Note_on_c, 0, 57, 41
2, 647334, Control_c, 0, 64, 127
2, 647364, Control_c, 0, 64, 0
2, 647386, Note_on_c, 0, 76, 0
2, 647540, Note_on_c, 0, 57, 0
2, 647545, Note_on_c, 0, 56, 44
2, 647556, Note_on_c, 0, 76, 72
2, 647678, Note_on_c, 0, 74, 77
2, 647700, Note_on_c, 0, 76, 0
2, 647736, Note_on_c, 0, 74, 0
2, 647772, Note_on_c, 0, 73, 65
2, 647808, Note_on_c, 0, 57, 40
2, 647816, Note_on_c, 0, 56, 0
2, 647892, Note_on_c, 0, 71, 84
2, 647898, Note_on_c, 0, 73, 0
2, 647902, Control_c, 0, 64, 127
2, 647936, Note_on_c, 0, 71, 0
2, 648008, Note_on_c, 0, 71, 83
2, 648034, Note_on_c, 0, 57, 0
2, 648050, Note_on_c, 0, 59, 46
2, 648056, Control_c, 0, 64, 0
2, 648128, Note_on_c, 0, 69, 68
2, 648156, Note_on_c, 0, 71, 0
2, 648218, Note_on_c, 0, 68, 70
2, 648252, Note_on_c, 0, 69, 0
2, 648270, Note_on_c, 0, 52, 68
2, 648298, Note_on_c, 0, 59, 0
2, 648336, Note_on_c, 0, 66, 70
2, 648374, Note_on_c, 0, 68, 0
2, 648452, Note_on_c, 0, 64, 76
2, 648456, Note_on_c, 0, 54, 71
2, 648460, Note_on_c, 0, 66, 0
2, 648484, Note_on_c, 0, 52, 0
2, 648556, Note_on_c, 0, 62, 93
2, 648572, Note_on_c, 0, 64, 0
2, 648658, Note_on_c, 0, 61, 91
2, 648674, Note_on_c, 0, 62, 0
2, 648694, Note_on_c, 0, 56, 65
2, 648712, Note_on_c, 0, 54, 0
2, 648768, Note_on_c, 0, 62, 80
2, 648784, Note_on_c, 0, 61, 0
2, 648880, Note_on_c, 0, 62, 0
2, 648888, Note_on_c, 0, 61, 87
2, 648891, Note_on_c, 0, 56, 0
2, 648924, Note_on_c, 0, 57, 54
2, 648986, Note_on_c, 0, 61, 0
2, 649008, Note_on_c, 0, 64, 87
2, 649114, Note_on_c, 0, 69, 77
2, 649124, Note_on_c, 0, 64, 0
2, 649124, Note_on_c, 0, 57, 0
2, 649134, Note_on_c, 0, 61, 57
2, 649226, Note_on_c, 0, 73, 74
2, 649240, Note_on_c, 0, 69, 0
2, 649334, Note_on_c, 0, 61, 0
2, 649358, Note_on_c, 0, 64, 61
2, 649358, Note_on_c, 0, 76, 92
2, 649390, Note_on_c, 0, 73, 0
2, 649574, Note_on_c, 0, 64, 0
2, 649584, Note_on_c, 0, 61, 64
2, 649812, Note_on_c, 0, 61, 0
2, 649822, Note_on_c, 0, 59, 63
2, 650000, Note_on_c, 0, 76, 0
2, 650042, Note_on_c, 0, 88, 97
2, 650050, Note_on_c, 0, 57, 55
2, 650056, Note_on_c, 0, 59, 0
2, 650144, Note_on_c, 0, 88, 0
2, 650278, Note_on_c, 0, 57, 0
2, 650278, Note_on_c, 0, 88, 113
2, 650280, Note_on_c, 0, 56, 57
2, 650392, Note_on_c, 0, 86, 97
2, 650450, Note_on_c, 0, 88, 0
2, 650502, Note_on_c, 0, 85, 91
2, 650524, Note_on_c, 0, 57, 55
2, 650530, Note_on_c, 0, 86, 0
2, 650534, Note_on_c, 0, 56, 0
2, 650624, Note_on_c, 0, 83, 117
2, 650644, Note_on_c, 0, 85, 0
2, 650658, Note_on_c, 0, 83, 0
2, 650746, Note_on_c, 0, 83, 99
2, 650750, Note_on_c, 0, 57, 0
2, 650764, Note_on_c, 0, 59, 52
2, 650872, Note_on_c, 0, 81, 84
2, 650908, Note_on_c, 0, 83, 0
2, 650972, Note_on_c, 0, 80, 85
2, 650992, Note_on_c, 0, 52, 72
2, 651002, Note_on_c, 0, 59, 0
2, 651006, Note_on_c, 0, 81, 0
2, 651088, Note_on_c, 0, 78, 83
2, 651124, Note_on_c, 0, 80, 0
2, 651200, Note_on_c, 0, 78, 0
2, 651200, Note_on_c, 0, 54, 72
2, 651208, Note_on_c, 0, 76, 65
2, 651212, Note_on_c, 0, 52, 0
2, 651322, Note_on_c, 0, 74, 90
2, 651334, Note_on_c, 0, 76, 0
2, 651442, Note_on_c, 0, 74, 0
2, 651442, Note_on_c, 0, 73, 79
2, 651442, Note_on_c, 0, 56, 51
2, 651448, Note_on_c, 0, 54, 0
2, 651552, Note_on_c, 0, 74, 80
2, 651562, Note_on_c, 0, 73, 0
2, 651674, Note_on_c, 0, 56, 0
2, 651688, Note_on_c, 0, 74, 0
2, 651688, Note_on_c, 0, 57, 56
2, 651688, Note_on_c, 0, 73, 79
2, 651800, Note_on_c, 0, 76, 78
2, 651808, Note_on_c, 0, 73, 0
2, 651898, Control_c, 0, 64, 127
2, 651924, Note_on_c, 0, 57, 0
2, 651926, Note_on_c, 0, 74, 82
2, 651928, Control_c, 0, 64, 0
2, 651932, Note_on_c, 0, 76, 0
2, 651998, Note_on_c, 0, 74, 0
2, 652018, Note_on_c, 0, 73, 70
2, 652138, Note_on_c, 0, 73, 0
2, 652138, Note_on_c, 0, 54, 84
2, 652144, Note_on_c, 0, 74, 101
2, 652148, Note_on_c, 0, 57, 56
2, 652270, Note_on_c, 0, 76, 77
2, 652272, Note_on_c, 0, 74, 0
2, 652312, Control_c, 0, 64, 127
2, 652340, Note_on_c, 0, 57, 0
2, 652368, Note_on_c, 0, 78, 92
2, 652376, Note_on_c, 0, 76, 0
2, 652404, Control_c, 0, 64, 0
2, 652414, Note_on_c, 0, 54, 0
2, 652482, Note_on_c, 0, 80, 94
2, 652520, Note_on_c, 0, 78, 0
2, 652594, Note_on_c, 0, 80, 0
2, 652594, Note_on_c, 0, 50, 87
2, 652600, Note_on_c, 0, 81, 102
2, 652608, Note_on_c, 0, 57, 41
2, 652634, Note_on_c, 0, 54, 54
2, 652716, Note_on_c, 0, 83, 121
2, 652722, Note_on_c, 0, 81, 0
2, 652732, Note_on_c, 0, 57, 0
2, 652742, Control_c, 0, 64, 127
2, 652828, Note_on_c, 0, 85, 95
2, 652834, Note_on_c, 0, 54, 0
2, 652846, Note_on_c, 0, 83, 0
2, 652866, Control_c, 0, 64, 0
2, 652906, Note_on_c, 0, 50, 0
2, 652944, Note_on_c, 0, 86, 101
2, 653000, Note_on_c, 0, 85, 0
2, 653066, Note_on_c, 0, 57, 59
2, 653070, Note_on_c, 0, 88, 100
2, 653082, Note_on_c, 0, 49, 49
2, 653096, Note_on_c, 0, 52, 57
2, 653101, Note_on_c, 0, 86, 0
2, 653204, Note_on_c, 0, 86, 74
2, 653254, Note_on_c, 0, 88, 0
2, 653316, Note_on_c, 0, 85, 86
2, 653326, Control_c, 0, 64, 127
2, 653336, Note_on_c, 0, 86, 0
2, 653432, Note_on_c, 0, 52, 0
2, 653444, Note_on_c, 0, 83, 114
2, 653458, Note_on_c, 0, 85, 0
2, 653462, Note_on_c, 0, 57, 0
2, 653506, Note_on_c, 0, 49, 0
2, 653550, Note_on_c, 0, 83, 0
2, 653556, Control_c, 0, 64, 0
2, 653568, Note_on_c, 0, 81, 78
2, 653670, Note_on_c, 0, 80, 83
2, 653698, Note_on_c, 0, 81, 0
2, 653790, Note_on_c, 0, 78, 82
2, 653828, Note_on_c, 0, 80, 0
2, 653926, Note_on_c, 0, 76, 69
2, 653966, Note_on_c, 0, 78, 0
2, 654046, Note_on_c, 0, 76, 0
2, 654052, Note_on_c, 0, 74, 70
2, 654184, Note_on_c, 0, 73, 59
2, 654190, Note_on_c, 0, 74, 0
2, 654328, Note_on_c, 0, 71, 69
2, 654376, Note_on_c, 0, 73, 0
2, 654394, Note_on_c, 0, 71, 0
2, 654421, Note_on_c, 0, 69, 69
2, 654548, Note_on_c, 0, 69, 0
2, 654558, Note_on_c, 0, 78, 97
2, 654560, Note_on_c, 0, 50, 52
2, 654564, Note_on_c, 0, 59, 47
2, 654636, Note_on_c, 0, 78, 0
2, 654652, Note_on_c, 0, 80, 85
2, 654722, Note_on_c, 0, 78, 80
2, 654748, Note_on_c, 0, 80, 0
2, 654818, Note_on_c, 0, 76, 74
2, 654840, Note_on_c, 0, 78, 0
2, 654878, Control_c, 0, 64, 127
2, 654896, Note_on_c, 0, 76, 0
2, 654896, Note_on_c, 0, 78, 94
2, 654928, Note_on_c, 0, 59, 0
2, 654982, Note_on_c, 0, 80, 94
2, 655046, Note_on_c, 0, 78, 0
2, 655086, Note_on_c, 0, 81, 84
2, 655122, Note_on_c, 0, 80, 0
2, 655172, Note_on_c, 0, 61, 38
2, 655186, Control_c, 0, 64, 0
2, 655212, Note_on_c, 0, 69, 76
2, 655214, Note_on_c, 0, 52, 40
2, 655216, Note_on_c, 0, 50, 0
2, 655222, Note_on_c, 0, 81, 0
2, 655630, Control_c, 0, 64, 127
2, 655680, Note_on_c, 0, 61, 0
2, 655732, Note_on_c, 0, 73, 55
2, 655740, Note_on_c, 0, 68, 47
2, 655754, Note_on_c, 0, 69, 0
2, 655768, Note_on_c, 0, 62, 39
2, 655784, Control_c, 0, 64, 0
2, 656034, Note_on_c, 0, 71, 68
2, 656044, Note_on_c, 0, 73, 0
2, 656332, Note_on_c, 0, 62, 0
2, 656350, Note_on_c, 0, 69, 46
2, 656350, Note_on_c, 0, 57, 31
2, 656362, Note_on_c, 0, 61, 53
2, 656380, Note_on_c, 0, 71, 0
2, 656420, Note_on_c, 0, 68, 0
2, 656420, Note_on_c, 0, 52, 0
2, 656692, Control_c, 0, 64, 127
2, 656730, Note_on_c, 0, 57, 0
2, 656968, Control_c, 0, 64, 0
2, 656986, Note_on_c, 0, 61, 0
2, 656994, Note_on_c, 0, 69, 0
2, 657196, Note_on_c, 0, 45, 36
2, 657490, Control_c, 0, 64, 127
2, 657600, Note_on_c, 0, 45, 0
2, 657874, Control_c, 0, 64, 0
2, 660480, Note_on_c, 0, 71, 53
2, 660544, Note_on_c, 0, 71, 0
2, 660554, Note_on_c, 0, 69, 47
2, 660626, Note_on_c, 0, 69, 0
2, 660650, Note_on_c, 0, 68, 61
2, 660700, Control_c, 0, 64, 127
2, 660718, Note_on_c, 0, 68, 0
2, 660732, Control_c, 0, 64, 0
2, 660736, Note_on_c, 0, 69, 52
2, 660858, Note_on_c, 0, 69, 0
2, 660862, Note_on_c, 0, 72, 63
2, 660886, Note_on_c, 0, 57, 31
2, 661028, Note_on_c, 0, 72, 0
2, 661070, Control_c, 0, 64, 127
2, 661073, Note_on_c, 0, 57, 0
2, 661088, Note_on_c, 0, 64, 45
2, 661090, Note_on_c, 0, 60, 36
2, 661116, Control_c, 0, 64, 0
2, 661148, Note_on_c, 0, 64, 0
2, 661168, Note_on_c, 0, 60, 0
2, 661282, Note_on_c, 0, 74, 80
2, 661312, Note_on_c, 0, 60, 32
2, 661316, Note_on_c, 0, 64, 42
2, 661370, Note_on_c, 0, 72, 76
2, 661372, Note_on_c, 0, 74, 0
2, 661388, Note_on_c, 0, 60, 0
2, 661398, Note_on_c, 0, 64, 0
2, 661460, Note_on_c, 0, 72, 0
2, 661474, Note_on_c, 0, 71, 79
2, 661480, Note_on_c, 0, 60, 48
2, 661504, Note_on_c, 0, 64, 67
2, 661534, Note_on_c, 0, 71, 0
2, 661554, Note_on_c, 0, 60, 0
2, 661556, Note_on_c, 0, 72, 77
2, 661580, Note_on_c, 0, 64, 0
2, 661676, Note_on_c, 0, 76, 79
2, 661684, Note_on_c, 0, 72, 0
2, 661686, Note_on_c, 0, 57, 55
2, 661780, Note_on_c, 0, 57, 0
2, 661802, Note_on_c, 0, 76, 0
2, 661838, Control_c, 0, 64, 127
2, 661876, Note_on_c, 0, 64, 68
2, 661882, Note_on_c, 0, 60, 61
2, 661884, Control_c, 0, 64, 0
2, 661938, Note_on_c, 0, 64, 0
2, 661944, Note_on_c, 0, 60, 0
2, 662076, Note_on_c, 0, 77, 91
2, 662096, Note_on_c, 0, 64, 68
2, 662110, Note_on_c, 0, 60, 47
2, 662150, Note_on_c, 0, 64, 0
2, 662158, Note_on_c, 0, 76, 78
2, 662176, Note_on_c, 0, 60, 0
2, 662198, Note_on_c, 0, 77, 0
2, 662256, Note_on_c, 0, 60, 53
2, 662262, Note_on_c, 0, 75, 79
2, 662266, Note_on_c, 0, 76, 0
2, 662269, Note_on_c, 0, 64, 53
2, 662316, Note_on_c, 0, 75, 0
2, 662324, Note_on_c, 0, 60, 0
2, 662326, Note_on_c, 0, 64, 0
2, 662340, Note_on_c, 0, 76, 82
2, 662452, Control_c, 0, 64, 127
2, 662458, Note_on_c, 0, 76, 0
2, 662464, Note_on_c, 0, 83, 126
2, 662464, Note_on_c, 0, 57, 60
2, 662498, Control_c, 0, 64, 0
2, 662526, Note_on_c, 0, 57, 0
2, 662550, Note_on_c, 0, 81, 92
2, 662584, Note_on_c, 0, 83, 0
2, 662640, Note_on_c, 0, 80, 92
2, 662656, Note_on_c, 0, 81, 0
2, 662660, Note_on_c, 0, 64, 60
2, 662672, Note_on_c, 0, 60, 47
2, 662714, Note_on_c, 0, 64, 0
2, 662738, Note_on_c, 0, 60, 0
2, 662746, Note_on_c, 0, 81, 86
2, 662764, Note_on_c, 0, 80, 0
2, 662842, Note_on_c, 0, 81, 0
2, 662846, Note_on_c, 0, 83, 120
2, 662856, Note_on_c, 0, 57, 63
2, 662912, Note_on_c, 0, 57, 0
2, 662936, Note_on_c, 0, 81, 88
2, 662956, Note_on_c, 0, 83, 0
2, 663028, Note_on_c, 0, 81, 0
2, 663034, Note_on_c, 0, 80, 88
2, 663056, Note_on_c, 0, 60, 60
2, 663062, Note_on_c, 0, 64, 52
2, 663112, Note_on_c, 0, 60, 0
2, 663115, Note_on_c, 0, 64, 0
2, 663130, Note_on_c, 0, 81, 84
2, 663166, Note_on_c, 0, 80, 0
2, 663258, Note_on_c, 0, 57, 54
2, 663262, Note_on_c, 0, 81, 0
2, 663268, Note_on_c, 0, 84, 84
2, 663388, Note_on_c, 0, 57, 0
2, 663388, Control_c, 0, 64, 127
2, 663480, Note_on_c, 0, 64, 48
2, 663490, Note_on_c, 0, 60, 36
2, 663544, Note_on_c, 0, 64, 0
2, 663566, Note_on_c, 0, 60, 0
2, 663666, Control_c, 0, 64, 0
2, 663672, Note_on_c, 0, 60, 39
2, 663674, Note_on_c, 0, 84, 0
2, 663674, Note_on_c, 0, 81, 76
2, 663688, Note_on_c, 0, 64, 56
2, 663722, Note_on_c, 0, 81, 0
2, 663746, Note_on_c, 0, 64, 0
2, 663746, Note_on_c, 0, 60, 0
2, 663864, Note_on_c, 0, 60, 55
2, 663872, Note_on_c, 0, 64, 47
2, 663874, Note_on_c, 0, 84, 86
2, 663912, Note_on_c, 0, 84, 0
2, 663916, Note_on_c, 0, 60, 0
2, 663924, Note_on_c, 0, 64, 0
2, 664034, Note_on_c, 0, 79, 77
2, 664048, Note_on_c, 0, 81, 75
2, 664076, Note_on_c, 0, 52, 88
2, 664094, Note_on_c, 0, 83, 107
2, 664110, Note_on_c, 0, 81, 0
2, 664122, Note_on_c, 0, 52, 0
2, 664130, Note_on_c, 0, 79, 0
2, 664142, Note_on_c, 0, 83, 0
2, 664268, Note_on_c, 0, 78, 79
2, 664278, Note_on_c, 0, 64, 68
2, 664280, Note_on_c, 0, 81, 72
2, 664304, Note_on_c, 0, 59, 49
2, 664322, Note_on_c, 0, 78, 0
2, 664330, Note_on_c, 0, 81, 0
2, 664332, Note_on_c, 0, 64, 0
2, 664356, Note_on_c, 0, 59, 0
2, 664466, Note_on_c, 0, 79, 90
2, 664472, Note_on_c, 0, 76, 59
2, 664492, Note_on_c, 0, 59, 41
2, 664494, Note_on_c, 0, 64, 56
2, 664514, Note_on_c, 0, 79, 0
2, 664522, Note_on_c, 0, 76, 0
2, 664546, Note_on_c, 0, 64, 0
2, 664548, Note_on_c, 0, 59, 0
2, 664654, Note_on_c, 0, 78, 80
2, 664657, Note_on_c, 0, 64, 52
2, 664657, Note_on_c, 0, 81, 87
2, 664672, Note_on_c, 0, 59, 48
2, 664700, Note_on_c, 0, 78, 0
2, 664702, Note_on_c, 0, 81, 0
2, 664714, Note_on_c, 0, 64, 0
2, 664722, Note_on_c, 0, 59, 0
2, 664828, Note_on_c, 0, 79, 103
2, 664844, Note_on_c, 0, 81, 100
2, 664856, Note_on_c, 0, 52, 97
2, 664882, Note_on_c, 0, 83, 126
2, 664888, Note_on_c, 0, 79, 0
2, 664912, Note_on_c, 0, 52, 0
2, 664932, Note_on_c, 0, 81, 0
2, 664970, Note_on_c, 0, 83, 0
2, 665058, Note_on_c, 0, 78, 74
2, 665060, Note_on_c, 0, 81, 91
2, 665072, Note_on_c, 0, 64, 61
2, 665078, Note_on_c, 0, 59, 54
2, 665108, Note_on_c, 0, 78, 0
2, 665116, Note_on_c, 0, 81, 0
2, 665124, Note_on_c, 0, 64, 0
2, 665130, Note_on_c, 0, 59, 0
2, 665244, Note_on_c, 0, 76, 76
2, 665244, Note_on_c, 0, 79, 103
2, 665260, Note_on_c, 0, 64, 62
2, 665262, Note_on_c, 0, 59, 55
2, 665290, Note_on_c, 0, 79, 0
2, 665293, Note_on_c, 0, 76, 0
2, 665314, Note_on_c, 0, 64, 0
2, 665316, Note_on_c, 0, 59, 0
2, 665426, Note_on_c, 0, 78, 91
2, 665436, Note_on_c, 0, 81, 84
2, 665444, Note_on_c, 0, 64, 53
2, 665456, Note_on_c, 0, 59, 52
2, 665470, Note_on_c, 0, 78, 0
2, 665480, Note_on_c, 0, 81, 0
2, 665496, Note_on_c, 0, 64, 0
2, 665510, Note_on_c, 0, 59, 0
2, 665564, Note_on_c, 0, 79, 100
2, 665600, Note_on_c, 0, 81, 72
2, 665634, Note_on_c, 0, 52, 95
2, 665652, Note_on_c, 0, 83, 120
2, 665680, Note_on_c, 0, 52, 0
2, 665680, Note_on_c, 0, 79, 0
2, 665696, Note_on_c, 0, 83, 0
2, 665708, Note_on_c, 0, 81, 0
2, 665825, Note_on_c, 0, 64, 62
2, 665830, Note_on_c, 0, 78, 67
2, 665832, Note_on_c, 0, 81, 65
2, 665844, Note_on_c, 0, 59, 56
2, 665872, Note_on_c, 0, 64, 0
2, 665878, Note_on_c, 0, 78, 0
2, 665890, Note_on_c, 0, 81, 0
2, 665896, Note_on_c, 0, 59, 0
2, 666024, Note_on_c, 0, 79, 86
2, 666034, Note_on_c, 0, 76, 54
2, 666034, Note_on_c, 0, 47, 63
2, 666068, Note_on_c, 0, 79, 0
2, 666084, Note_on_c, 0, 47, 0
2, 666084, Note_on_c, 0, 76, 0
2, 666216, Note_on_c, 0, 75, 72
2, 666222, Note_on_c, 0, 78, 71
2, 666240, Note_on_c, 0, 59, 40
2, 666266, Note_on_c, 0, 75, 0
2, 666284, Note_on_c, 0, 78, 0
2, 666302, Note_on_c, 0, 59, 0
2, 666428, Note_on_c, 0, 76, 72
2, 666460, Note_on_c, 0, 52, 46
2, 666524, Control_c, 0, 64, 127
2, 666562, Note_on_c, 0, 52, 0
2, 666562, Note_on_c, 0, 76, 0
2, 666818, Note_on_c, 0, 71, 57
2, 666832, Control_c, 0, 64, 0
2, 666890, Note_on_c, 0, 71, 0
2, 666908, Note_on_c, 0, 69, 49
2, 666974, Note_on_c, 0, 69, 0
2, 667000, Note_on_c, 0, 68, 53
2, 667070, Note_on_c, 0, 68, 0
2, 667084, Note_on_c, 0, 69, 38
2, 667188, Note_on_c, 0, 69, 0
2, 667200, Note_on_c, 0, 72, 61
2, 667254, Note_on_c, 0, 57, 39
2, 667308, Control_c, 0, 64, 127
2, 667356, Note_on_c, 0, 57, 0
2, 667382, Note_on_c, 0, 72, 0
2, 667382, Note_on_c, 0, 64, 48
2, 667390, Note_on_c, 0, 60, 46
2, 667442, Note_on_c, 0, 64, 0
2, 667445, Control_c, 0, 64, 0
2, 667452, Note_on_c, 0, 60, 0
2, 667592, Note_on_c, 0, 74, 80
2, 667606, Note_on_c, 0, 64, 55
2, 667608, Note_on_c, 0, 60, 40
2, 667660, Note_on_c, 0, 64, 0
2, 667660, Note_on_c, 0, 74, 0
2, 667680, Note_on_c, 0, 60, 0
2, 667688, Note_on_c, 0, 72, 68
2, 667746, Note_on_c, 0, 72, 0
2, 667784, Note_on_c, 0, 60, 36
2, 667784, Note_on_c, 0, 71, 79
2, 667798, Note_on_c, 0, 64, 40
2, 667834, Note_on_c, 0, 71, 0
2, 667852, Note_on_c, 0, 60, 0
2, 667855, Note_on_c, 0, 64, 0
2, 667872, Note_on_c, 0, 72, 76
2, 667940, Note_on_c, 0, 72, 0
2, 667992, Note_on_c, 0, 57, 47
2, 667994, Note_on_c, 0, 76, 63
2, 668064, Note_on_c, 0, 57, 0
2, 668076, Control_c, 0, 64, 127
2, 668140, Note_on_c, 0, 76, 0
2, 668190, Note_on_c, 0, 64, 57
2, 668198, Note_on_c, 0, 60, 51
2, 668214, Control_c, 0, 64, 0
2, 668250, Note_on_c, 0, 64, 0
2, 668260, Note_on_c, 0, 60, 0
2, 668384, Note_on_c, 0, 77, 78
2, 668406, Note_on_c, 0, 60, 36
2, 668409, Note_on_c, 0, 64, 61
2, 668460, Note_on_c, 0, 64, 0
2, 668472, Note_on_c, 0, 77, 0
2, 668475, Note_on_c, 0, 76, 72
2, 668480, Note_on_c, 0, 60, 0
2, 668522, Note_on_c, 0, 76, 0
2, 668550, Note_on_c, 0, 75, 82
2, 668562, Note_on_c, 0, 60, 63
2, 668576, Note_on_c, 0, 64, 36
2, 668604, Note_on_c, 0, 75, 0
2, 668620, Note_on_c, 0, 60, 0
2, 668640, Note_on_c, 0, 64, 0
2, 668652, Note_on_c, 0, 76, 74
2, 668730, Note_on_c, 0, 76, 0
2, 668758, Note_on_c, 0, 83, 125
2, 668761, Note_on_c, 0, 57, 63
2, 668814, Control_c, 0, 64, 127
2, 668820, Note_on_c, 0, 57, 0
2, 668844, Control_c, 0, 64, 0
2, 668852, Note_on_c, 0, 81, 99
2, 668876, Note_on_c, 0, 83, 0
2, 668934, Note_on_c, 0, 80, 92
2, 668950, Note_on_c, 0, 64, 68
2, 668960, Note_on_c, 0, 60, 59
2, 668964, Note_on_c, 0, 81, 0
2, 669000, Note_on_c, 0, 64, 0
2, 669014, Note_on_c, 0, 60, 0
2, 669040, Note_on_c, 0, 81, 84
2, 669070, Note_on_c, 0, 80, 0
2, 669136, Note_on_c, 0, 83, 121
2, 669146, Note_on_c, 0, 57, 68
2, 669160, Note_on_c, 0, 81, 0
2, 669194, Note_on_c, 0, 57, 0
2, 669224, Note_on_c, 0, 81, 98
2, 669254, Note_on_c, 0, 83, 0
2, 669328, Note_on_c, 0, 80, 87
2, 669338, Note_on_c, 0, 64, 60
2, 669341, Note_on_c, 0, 81, 0
2, 669348, Note_on_c, 0, 60, 47
2, 669386, Note_on_c, 0, 64, 0
2, 669406, Note_on_c, 0, 81, 94
2, 669418, Note_on_c, 0, 60, 0
2, 669452, Note_on_c, 0, 80, 0
2, 669534, Note_on_c, 0, 81, 0
2, 669536, Note_on_c, 0, 84, 87
2, 669544, Note_on_c, 0, 57, 57
2, 669616, Note_on_c, 0, 57, 0
2, 669628, Control_c, 0, 64, 127
2, 669762, Note_on_c, 0, 64, 49
2, 669778, Note_on_c, 0, 60, 37
2, 669816, Note_on_c, 0, 84, 0
2, 669819, Note_on_c, 0, 64, 0
2, 669850, Note_on_c, 0, 60, 0
2, 669936, Control_c, 0, 64, 0
2, 669942, Note_on_c, 0, 81, 82
2, 669948, Note_on_c, 0, 60, 42
2, 669958, Note_on_c, 0, 64, 52
2, 669992, Note_on_c, 0, 81, 0
2, 670010, Note_on_c, 0, 64, 0
2, 670012, Note_on_c, 0, 60, 0
2, 670132, Note_on_c, 0, 84, 95
2, 670148, Note_on_c, 0, 64, 48
2, 670168, Note_on_c, 0, 84, 0
2, 670168, Note_on_c, 0, 60, 55
2, 670200, Note_on_c, 0, 64, 0
2, 670232, Note_on_c, 0, 60, 0
2, 670300, Note_on_c, 0, 79, 88
2, 670310, Note_on_c, 0, 81, 85
2, 670344, Note_on_c, 0, 52, 95
2, 670344, Note_on_c, 0, 83, 125
2, 670354, Note_on_c, 0, 79, 0
2, 670382, Note_on_c, 0, 81, 0
2, 670385, Note_on_c, 0, 52, 0
2, 670385, Note_on_c, 0, 83, 0
2, 670396, Control_c, 0, 64, 127
2, 670458, Control_c, 0, 64, 0
2, 670526, Note_on_c, 0, 78, 65
2, 670526, Note_on_c, 0, 81, 78
2, 670542, Note_on_c, 0, 64, 61
2, 670576, Note_on_c, 0, 78, 0
2, 670579, Note_on_c, 0, 81, 0
2, 670594, Note_on_c, 0, 64, 0
2, 670714, Note_on_c, 0, 79, 85
2, 670714, Note_on_c, 0, 76, 61
2, 670717, Note_on_c, 0, 59, 57
2, 670732, Note_on_c, 0, 64, 49
2, 670764, Note_on_c, 0, 79, 0
2, 670766, Note_on_c, 0, 76, 0
2, 670772, Note_on_c, 0, 59, 0
2, 670784, Note_on_c, 0, 64, 0
2, 670910, Note_on_c, 0, 78, 75
2, 670914, Note_on_c, 0, 81, 78
2, 670924, Note_on_c, 0, 64, 41
2, 670950, Note_on_c, 0, 59, 34
2, 670956, Note_on_c, 0, 81, 0
2, 670956, Note_on_c, 0, 78, 0
2, 670982, Note_on_c, 0, 64, 0
2, 671016, Note_on_c, 0, 59, 0
2, 671100, Note_on_c, 0, 79, 76
2, 671108, Note_on_c, 0, 81, 70
2, 671116, Note_on_c, 0, 52, 85
2, 671156, Note_on_c, 0, 81, 0
2, 671156, Note_on_c, 0, 79, 0
2, 671156, Note_on_c, 0, 83, 103
2, 671161, Note_on_c, 0, 52, 0
2, 671196, Note_on_c, 0, 83, 0
2, 671318, Note_on_c, 0, 81, 70
2, 671320, Note_on_c, 0, 64, 61
2, 671320, Note_on_c, 0, 78, 69
2, 671330, Note_on_c, 0, 59, 53
2, 671370, Note_on_c, 0, 78, 0
2, 671373, Note_on_c, 0, 81, 0
2, 671373, Note_on_c, 0, 64, 0
2, 671382, Note_on_c, 0, 59, 0
2, 671506, Note_on_c, 0, 79, 94
2, 671516, Note_on_c, 0, 76, 53
2, 671520, Note_on_c, 0, 64, 55
2, 671532, Note_on_c, 0, 59, 52
2, 671552, Note_on_c, 0, 79, 0
2, 671568, Note_on_c, 0, 76, 0
2, 671572, Note_on_c, 0, 64, 0
2, 671584, Note_on_c, 0, 59, 0
2, 671692, Note_on_c, 0, 78, 84
2, 671698, Note_on_c, 0, 81, 80
2, 671704, Note_on_c, 0, 59, 54
2, 671728, Note_on_c, 0, 64, 32
2, 671736, Note_on_c, 0, 78, 0
2, 671742, Note_on_c, 0, 81, 0
2, 671752, Note_on_c, 0, 59, 0
2, 671794, Note_on_c, 0, 64, 0
2, 671824, Note_on_c, 0, 79, 97
2, 671866, Note_on_c, 0, 81, 70
2, 671894, Note_on_c, 0, 52, 79
2, 671928, Note_on_c, 0, 83, 110
2, 671936, Note_on_c, 0, 79, 0
2, 671941, Note_on_c, 0, 52, 0
2, 671964, Note_on_c, 0, 81, 0
2, 671968, Note_on_c, 0, 83, 0
2, 672094, Note_on_c, 0, 78, 74
2, 672096, Note_on_c, 0, 64, 68
2, 672106, Note_on_c, 0, 59, 68
2, 672112, Note_on_c, 0, 81, 71
2, 672142, Note_on_c, 0, 64, 0
2, 672144, Note_on_c, 0, 78, 0
2, 672152, Note_on_c, 0, 59, 0
2, 672158, Note_on_c, 0, 81, 0
2, 672286, Note_on_c, 0, 79, 87
2, 672304, Note_on_c, 0, 76, 49
2, 672308, Note_on_c, 0, 47, 49
2, 672330, Note_on_c, 0, 79, 0
2, 672358, Note_on_c, 0, 76, 0
2, 672372, Note_on_c, 0, 47, 0
2, 672474, Note_on_c, 0, 75, 76
2, 672484, Note_on_c, 0, 78, 78
2, 672496, Note_on_c, 0, 59, 55
2, 672526, Note_on_c, 0, 75, 0
2, 672550, Note_on_c, 0, 59, 0
2, 672550, Note_on_c, 0, 78, 0
2, 672704, Note_on_c, 0, 76, 72
2, 672726, Note_on_c, 0, 52, 57
2, 672840, Control_c, 0, 64, 127
2, 672914, Note_on_c, 0, 52, 0
2, 672970, Note_on_c, 0, 76, 0
2, 673124, Note_on_c, 0, 76, 65
2, 673130, Control_c, 0, 64, 0
2, 673134, Note_on_c, 0, 72, 47
2, 673176, Note_on_c, 0, 76, 0
2, 673194, Note_on_c, 0, 72, 0
2, 673312, Note_on_c, 0, 74, 88
2, 673312, Note_on_c, 0, 77, 95
2, 673348, Note_on_c, 0, 74, 0
2, 673362, Note_on_c, 0, 77, 0
2, 673516, Note_on_c, 0, 79, 114
2, 673519, Note_on_c, 0, 76, 92
2, 673522, Note_on_c, 0, 48, 90
2, 673564, Note_on_c, 0, 76, 0
2, 673568, Note_on_c, 0, 48, 0
2, 673626, Note_on_c, 0, 79, 0
2, 673716, Note_on_c, 0, 60, 85
2, 673722, Note_on_c, 0, 79, 87
2, 673730, Note_on_c, 0, 76, 77
2, 673772, Note_on_c, 0, 79, 0
2, 673775, Note_on_c, 0, 76, 0
2, 673775, Note_on_c, 0, 60, 0
2, 673922, Note_on_c, 0, 52, 106
2, 673924, Note_on_c, 0, 81, 94
2, 673960, Note_on_c, 0, 52, 0
2, 674010, Note_on_c, 0, 79, 100
2, 674036, Note_on_c, 0, 81, 0
2, 674104, Note_on_c, 0, 64, 77
2, 674107, Note_on_c, 0, 79, 0
2, 674112, Note_on_c, 0, 77, 85
2, 674146, Note_on_c, 0, 64, 0
2, 674174, Note_on_c, 0, 77, 0
2, 674198, Note_on_c, 0, 76, 69
2, 674250, Note_on_c, 0, 76, 0
2, 674310, Note_on_c, 0, 71, 106
2, 674310, Note_on_c, 0, 74, 105
2, 674313, Note_on_c, 0, 55, 93
2, 674512, Note_on_c, 0, 67, 98
2, 674536, Note_on_c, 0, 71, 0
2, 674544, Note_on_c, 0, 55, 0
2, 674544, Control_c, 0, 64, 127
2, 674560, Note_on_c, 0, 67, 0
2, 674578, Note_on_c, 0, 74, 0
2, 674698, Control_c, 0, 64, 0
2, 674726, Note_on_c, 0, 72, 64
2, 674736, Note_on_c, 0, 76, 61
2, 674774, Note_on_c, 0, 72, 0
2, 674782, Note_on_c, 0, 76, 0
2, 674920, Note_on_c, 0, 74, 87
2, 674922, Note_on_c, 0, 77, 84
2, 674958, Note_on_c, 0, 74, 0
2, 674970, Note_on_c, 0, 77, 0
2, 675118, Note_on_c, 0, 48, 65
2, 675122, Note_on_c, 0, 79, 97
2, 675126, Note_on_c, 0, 76, 70
2, 675168, Note_on_c, 0, 79, 0
2, 675171, Note_on_c, 0, 76, 0
2, 675178, Note_on_c, 0, 48, 0
2, 675314, Note_on_c, 0, 79, 84
2, 675316, Note_on_c, 0, 60, 61
2, 675328, Note_on_c, 0, 76, 61
2, 675364, Note_on_c, 0, 79, 0
2, 675372, Note_on_c, 0, 60, 0
2, 675374, Note_on_c, 0, 76, 0
2, 675508, Note_on_c, 0, 52, 79
2, 675516, Note_on_c, 0, 81, 70
2, 675554, Note_on_c, 0, 52, 0
2, 675580, Note_on_c, 0, 81, 0
2, 675602, Note_on_c, 0, 79, 57
2, 675670, Note_on_c, 0, 79, 0
2, 675688, Note_on_c, 0, 64, 53
2, 675698, Note_on_c, 0, 77, 59
2, 675744, Note_on_c, 0, 64, 0
2, 675747, Note_on_c, 0, 77, 0
2, 675788, Note_on_c, 0, 76, 49
2, 675854, Note_on_c, 0, 76, 0
2, 675918, Note_on_c, 0, 55, 48
2, 675918, Note_on_c, 0, 74, 62
2, 675930, Note_on_c, 0, 71, 38
2, 676112, Control_c, 0, 64, 127
2, 676132, Note_on_c, 0, 74, 0
2, 676132, Note_on_c, 0, 55, 0
2, 676158, Note_on_c, 0, 71, 0
2, 676280, Control_c, 0, 64, 0
2, 676298, Note_on_c, 0, 69, 69
2, 676300, Note_on_c, 0, 72, 87
2, 676352, Note_on_c, 0, 69, 0
2, 676364, Note_on_c, 0, 72, 0
2, 676492, Note_on_c, 0, 71, 114
2, 676498, Note_on_c, 0, 74, 107
2, 676534, Note_on_c, 0, 71, 0
2, 676596, Note_on_c, 0, 74, 0
2, 676686, Note_on_c, 0, 45, 116
2, 676690, Note_on_c, 0, 76, 113
2, 676692, Note_on_c, 0, 72, 109
2, 676764, Note_on_c, 0, 72, 0
2, 676790, Note_on_c, 0, 76, 0
2, 676792, Note_on_c, 0, 45, 0
2, 676888, Note_on_c, 0, 57, 86
2, 676890, Note_on_c, 0, 76, 72
2, 676898, Note_on_c, 0, 72, 95
2, 676942, Note_on_c, 0, 72, 0
2, 676958, Note_on_c, 0, 76, 0
2, 676958, Note_on_c, 0, 57, 0
2, 677080, Note_on_c, 0, 48, 94
2, 677086, Note_on_c, 0, 77, 99
2, 677146, Note_on_c, 0, 48, 0
2, 677168, Note_on_c, 0, 76, 88
2, 677188, Note_on_c, 0, 77, 0
2, 677262, Note_on_c, 0, 76, 0
2, 677264, Note_on_c, 0, 60, 86
2, 677270, Note_on_c, 0, 74, 83
2, 677316, Note_on_c, 0, 74, 0
2, 677322, Note_on_c, 0, 60, 0
2, 677342, Note_on_c, 0, 72, 76
2, 677394, Note_on_c, 0, 72, 0
2, 677462, Note_on_c, 0, 52, 108
2, 677466, Note_on_c, 0, 68, 95
2, 677468, Note_on_c, 0, 71, 106
2, 677646, Note_on_c, 0, 68, 0
2, 677676, Note_on_c, 0, 64, 99
2, 677680, Control_c, 0, 64, 127
2, 677690, Note_on_c, 0, 52, 0
2, 677700, Note_on_c, 0, 71, 0
2, 677724, Note_on_c, 0, 64, 0
2, 677848, Control_c, 0, 64, 0
2, 677874, Note_on_c, 0, 72, 87
2, 677877, Note_on_c, 0, 69, 72
2, 677922, Note_on_c, 0, 72, 0
2, 677927, Note_on_c, 0, 69, 0
2, 678072, Note_on_c, 0, 71, 98
2, 678078, Note_on_c, 0, 74, 98
2, 678110, Note_on_c, 0, 71, 0
2, 678134, Note_on_c, 0, 74, 0
2, 678274, Note_on_c, 0, 76, 85
2, 678279, Note_on_c, 0, 72, 78
2, 678279, Note_on_c, 0, 45, 69
2, 678328, Note_on_c, 0, 72, 0
2, 678332, Note_on_c, 0, 45, 0
2, 678332, Note_on_c, 0, 76, 0
2, 678476, Note_on_c, 0, 72, 74
2, 678478, Note_on_c, 0, 57, 56
2, 678478, Note_on_c, 0, 76, 74
2, 678522, Note_on_c, 0, 76, 0
2, 678532, Note_on_c, 0, 57, 0
2, 678532, Note_on_c, 0, 72, 0
2, 678660, Note_on_c, 0, 48, 62
2, 678684, Note_on_c, 0, 77, 65
2, 678712, Note_on_c, 0, 48, 0
2, 678750, Note_on_c, 0, 77, 0
2, 678794, Note_on_c, 0, 76, 44
2, 678864, Note_on_c, 0, 76, 0
2, 678864, Note_on_c, 0, 60, 56
2, 678886, Note_on_c, 0, 74, 49
2, 678932, Note_on_c, 0, 60, 0
2, 678940, Note_on_c, 0, 74, 0
2, 678970, Note_on_c, 0, 72, 60
2, 679032, Note_on_c, 0, 72, 0
2, 679126, Note_on_c, 0, 71, 45
2, 679132, Note_on_c, 0, 68, 34
2, 679142, Note_on_c, 0, 52, 44
2, 679338, Control_c, 0, 64, 127
2, 679408, Note_on_c, 0, 68, 0
2, 679411, Note_on_c, 0, 71, 0
2, 679440, Note_on_c, 0, 52, 0
2, 679568, Control_c, 0, 64, 0
2, 679574, Note_on_c, 0, 71, 67
2, 679628, Note_on_c, 0, 71, 0
2, 679646, Note_on_c, 0, 69, 49
2, 679714, Note_on_c, 0, 69, 0
2, 679726, Note_on_c, 0, 68, 60
2, 679788, Note_on_c, 0, 68, 0
2, 679816, Note_on_c, 0, 69, 41
2, 679944, Note_on_c, 0, 69, 0
2, 679960, Note_on_c, 0, 72, 64
2, 679972, Note_on_c, 0, 57, 38
2, 680106, Control_c, 0, 64, 127
2, 680144, Note_on_c, 0, 57, 0
2, 680156, Note_on_c, 0, 72, 0
2, 680160, Note_on_c, 0, 60, 48
2, 680166, Note_on_c, 0, 64, 53
2, 680214, Control_c, 0, 64, 0
2, 680226, Note_on_c, 0, 64, 0
2, 680228, Note_on_c, 0, 60, 0
2, 680382, Note_on_c, 0, 74, 69
2, 680396, Note_on_c, 0, 64, 55
2, 680402, Note_on_c, 0, 60, 47
2, 680454, Note_on_c, 0, 74, 0
2, 680456, Note_on_c, 0, 64, 0
2, 680470, Note_on_c, 0, 60, 0
2, 680476, Note_on_c, 0, 72, 63
2, 680544, Note_on_c, 0, 72, 0
2, 680572, Note_on_c, 0, 71, 74
2, 680580, Note_on_c, 0, 64, 47
2, 680582, Note_on_c, 0, 60, 36
2, 680636, Note_on_c, 0, 71, 0
2, 680639, Note_on_c, 0, 64, 0
2, 680652, Note_on_c, 0, 60, 0
2, 680664, Note_on_c, 0, 72, 72
2, 680778, Note_on_c, 0, 72, 0
2, 680778, Note_on_c, 0, 76, 77
2, 680786, Note_on_c, 0, 57, 49
2, 680888, Note_on_c, 0, 57, 0
2, 680920, Control_c, 0, 64, 127
2, 680958, Note_on_c, 0, 76, 0
2, 680978, Note_on_c, 0, 64, 54
2, 680982, Note_on_c, 0, 60, 52
2, 680998, Control_c, 0, 64, 0
2, 681038, Note_on_c, 0, 64, 0
2, 681046, Note_on_c, 0, 60, 0
2, 681174, Note_on_c, 0, 77, 87
2, 681206, Note_on_c, 0, 64, 64
2, 681209, Note_on_c, 0, 60, 48
2, 681256, Note_on_c, 0, 64, 0
2, 681270, Note_on_c, 0, 76, 71
2, 681276, Note_on_c, 0, 60, 0
2, 681300, Note_on_c, 0, 77, 0
2, 681336, Note_on_c, 0, 76, 0
2, 681352, Note_on_c, 0, 75, 80
2, 681376, Note_on_c, 0, 60, 46
2, 681388, Note_on_c, 0, 64, 32
2, 681424, Note_on_c, 0, 75, 0
2, 681442, Note_on_c, 0, 60, 0
2, 681448, Note_on_c, 0, 64, 0
2, 681454, Note_on_c, 0, 76, 85
2, 681562, Note_on_c, 0, 76, 0
2, 681565, Note_on_c, 0, 83, 126
2, 681565, Note_on_c, 0, 57, 62
2, 681622, Note_on_c, 0, 57, 0
2, 681648, Note_on_c, 0, 81, 95
2, 681678, Note_on_c, 0, 83, 0
2, 681738, Note_on_c, 0, 64, 55
2, 681741, Note_on_c, 0, 80, 94
2, 681756, Note_on_c, 0, 60, 54
2, 681772, Note_on_c, 0, 81, 0
2, 681800, Note_on_c, 0, 64, 0
2, 681814, Note_on_c, 0, 60, 0
2, 681846, Note_on_c, 0, 81, 90
2, 681874, Note_on_c, 0, 80, 0
2, 681944, Note_on_c, 0, 83, 118
2, 681948, Note_on_c, 0, 57, 70
2, 681972, Note_on_c, 0, 81, 0
2, 682002, Note_on_c, 0, 57, 0
2, 682030, Note_on_c, 0, 81, 102
2, 682058, Note_on_c, 0, 83, 0
2, 682130, Note_on_c, 0, 64, 61
2, 682130, Note_on_c, 0, 80, 101
2, 682138, Note_on_c, 0, 60, 62
2, 682153, Note_on_c, 0, 81, 0
2, 682180, Note_on_c, 0, 64, 0
2, 682194, Note_on_c, 0, 60, 0
2, 682224, Note_on_c, 0, 81, 85
2, 682258, Note_on_c, 0, 80, 0
2, 682344, Note_on_c, 0, 84, 116
2, 682354, Note_on_c, 0, 53, 124
2, 682368, Note_on_c, 0, 81, 0
2, 682442, Control_c, 0, 64, 127
2, 682498, Note_on_c, 0, 53, 0
2, 682552, Note_on_c, 0, 63, 69
2, 682564, Note_on_c, 0, 57, 56
2, 682614, Note_on_c, 0, 63, 0
2, 682622, Note_on_c, 0, 57, 0
2, 682734, Control_c, 0, 64, 0
2, 682756, Note_on_c, 0, 81, 109
2, 682764, Note_on_c, 0, 63, 86
2, 682778, Note_on_c, 0, 57, 83
2, 682794, Note_on_c, 0, 84, 0
2, 682830, Note_on_c, 0, 57, 0
2, 682830, Note_on_c, 0, 63, 0
2, 682860, Note_on_c, 0, 81, 0
2, 682960, Note_on_c, 0, 83, 127
2, 682963, Note_on_c, 0, 63, 82
2, 682986, Note_on_c, 0, 57, 67
2, 683018, Note_on_c, 0, 63, 0
2, 683042, Note_on_c, 0, 57, 0
2, 683044, Note_on_c, 0, 83, 0
2, 683180, Note_on_c, 0, 52, 92
2, 683184, Note_on_c, 0, 84, 116
2, 683234, Note_on_c, 0, 52, 0
2, 683278, Note_on_c, 0, 84, 0
2, 683384, Note_on_c, 0, 64, 74
2, 683390, Note_on_c, 0, 83, 121
2, 683404, Note_on_c, 0, 57, 53
2, 683430, Note_on_c, 0, 64, 0
2, 683460, Note_on_c, 0, 57, 0
2, 683464, Note_on_c, 0, 83, 0
2, 683582, Note_on_c, 0, 50, 87
2, 683584, Note_on_c, 0, 81, 94
2, 683640, Note_on_c, 0, 50, 0
2, 683692, Note_on_c, 0, 81, 0
2, 683780, Note_on_c, 0, 80, 94
2, 683783, Note_on_c, 0, 59, 62
2, 683808, Note_on_c, 0, 53, 60
2, 683838, Note_on_c, 0, 59, 0
2, 683860, Note_on_c, 0, 80, 0
2, 683866, Note_on_c, 0, 53, 0
2, 683976, Note_on_c, 0, 48, 69
2, 683994, Note_on_c, 0, 81, 74
2, 684046, Note_on_c, 0, 48, 0
2, 684068, Note_on_c, 0, 81, 0
2, 684176, Note_on_c, 0, 76, 77
2, 684178, Note_on_c, 0, 57, 54
2, 684198, Note_on_c, 0, 52, 52
2, 684228, Note_on_c, 0, 76, 0
2, 684242, Note_on_c, 0, 57, 0
2, 684252, Note_on_c, 0, 52, 0
2, 684384, Note_on_c, 0, 77, 78
2, 684384, Note_on_c, 0, 50, 56
2, 684428, Note_on_c, 0, 77, 0
2, 684444, Note_on_c, 0, 50, 0
2, 684562, Note_on_c, 0, 59, 53
2, 684572, Note_on_c, 0, 53, 76
2, 684574, Note_on_c, 0, 74, 72
2, 684614, Note_on_c, 0, 59, 0
2, 684622, Note_on_c, 0, 74, 0
2, 684624, Note_on_c, 0, 53, 0
2, 684772, Note_on_c, 0, 72, 77
2, 684778, Note_on_c, 0, 57, 67
2, 684792, Note_on_c, 0, 52, 71
2, 684834, Note_on_c, 0, 57, 0
2, 684836, Note_on_c, 0, 52, 0
2, 684984, Note_on_c, 0, 57, 57
2, 685024, Note_on_c, 0, 52, 28
2, 685042, Note_on_c, 0, 57, 0
2, 685045, Note_on_c, 0, 72, 0
2, 685082, Note_on_c, 0, 52, 0
2, 685144, Note_on_c, 0, 72, 56
2, 685168, Note_on_c, 0, 52, 68
2, 685176, Note_on_c, 0, 56, 69
2, 685200, Note_on_c, 0, 72, 0
2, 685212, Note_on_c, 0, 71, 71
2, 685228, Note_on_c, 0, 52, 0
2, 685240, Note_on_c, 0, 56, 0
2, 685260, Note_on_c, 0, 71, 0
2, 685264, Note_on_c, 0, 72, 80
2, 685318, Note_on_c, 0, 72, 0
2, 685321, Note_on_c, 0, 71, 84
2, 685388, Note_on_c, 0, 71, 0
2, 685388, Note_on_c, 0, 56, 54
2, 685398, Note_on_c, 0, 72, 53
2, 685424, Note_on_c, 0, 71, 46
2, 685444, Note_on_c, 0, 56, 0
2, 685458, Note_on_c, 0, 72, 0
2, 685494, Note_on_c, 0, 69, 54
2, 685506, Note_on_c, 0, 71, 0
2, 685552, Note_on_c, 0, 69, 0
2, 685568, Note_on_c, 0, 71, 100
2, 685648, Note_on_c, 0, 71, 0
2, 685654, Note_on_c, 0, 69, 44
2, 685660, Note_on_c, 0, 57, 38
2, 685680, Note_on_c, 0, 45, 26
2, 685822, Control_c, 0, 64, 127
2, 685922, Note_on_c, 0, 69, 0
2, 685974, Note_on_c, 0, 45, 0
2, 685980, Note_on_c, 0, 57, 0
2, 686118, Note_on_c, 0, 72, 59
2, 686126, Note_on_c, 0, 76, 61
2, 686160, Control_c, 0, 64, 0
2, 686170, Note_on_c, 0, 72, 0
2, 686175, Note_on_c, 0, 76, 0
2, 686326, Note_on_c, 0, 74, 77
2, 686334, Note_on_c, 0, 77, 68
2, 686366, Note_on_c, 0, 74, 0
2, 686380, Note_on_c, 0, 77, 0
2, 686528, Note_on_c, 0, 79, 92
2, 686534, Note_on_c, 0, 48, 62
2, 686540, Note_on_c, 0, 76, 57
2, 686580, Note_on_c, 0, 79, 0
2, 686585, Note_on_c, 0, 48, 0
2, 686592, Note_on_c, 0, 76, 0
2, 686732, Note_on_c, 0, 79, 83
2, 686738, Note_on_c, 0, 60, 60
2, 686746, Note_on_c, 0, 76, 51
2, 686780, Note_on_c, 0, 79, 0
2, 686794, Note_on_c, 0, 60, 0
2, 686798, Note_on_c, 0, 76, 0
2, 686932, Note_on_c, 0, 81, 67
2, 686942, Note_on_c, 0, 52, 55
2, 686998, Note_on_c, 0, 52, 0
2, 687006, Note_on_c, 0, 81, 0
2, 687040, Note_on_c, 0, 79, 61
2, 687104, Note_on_c, 0, 79, 0
2, 687120, Note_on_c, 0, 77, 64
2, 687150, Note_on_c, 0, 64, 16
2, 687170, Note_on_c, 0, 77, 0
2, 687212, Note_on_c, 0, 64, 0
2, 687215, Note_on_c, 0, 76, 46
2, 687274, Note_on_c, 0, 76, 0
2, 687334, Note_on_c, 0, 74, 37
2, 687338, Note_on_c, 0, 71, 64
2, 687340, Note_on_c, 0, 55, 48
2, 687462, Note_on_c, 0, 71, 0
2, 687481, Note_on_c, 0, 74, 0
2, 687498, Control_c, 0, 64, 127
2, 687548, Note_on_c, 0, 67, 75
2, 687556, Note_on_c, 0, 55, 0
2, 687596, Note_on_c, 0, 67, 0
2, 687728, Control_c, 0, 64, 0
2, 687760, Note_on_c, 0, 72, 74
2, 687764, Note_on_c, 0, 76, 69
2, 687808, Note_on_c, 0, 76, 0
2, 687808, Note_on_c, 0, 72, 0
2, 687972, Note_on_c, 0, 77, 83
2, 687984, Note_on_c, 0, 74, 52
2, 688020, Note_on_c, 0, 77, 0
2, 688040, Note_on_c, 0, 74, 0
2, 688166, Note_on_c, 0, 79, 98
2, 688166, Note_on_c, 0, 48, 57
2, 688178, Note_on_c, 0, 76, 67
2, 688224, Note_on_c, 0, 76, 0
2, 688224, Note_on_c, 0, 79, 0
2, 688230, Note_on_c, 0, 48, 0
2, 688382, Note_on_c, 0, 79, 82
2, 688382, Note_on_c, 0, 60, 63
2, 688385, Note_on_c, 0, 76, 64
2, 688426, Note_on_c, 0, 79, 0
2, 688434, Note_on_c, 0, 76, 0
2, 688438, Note_on_c, 0, 60, 0
2, 688568, Note_on_c, 0, 52, 82
2, 688580, Note_on_c, 0, 81, 75
2, 688610, Note_on_c, 0, 52, 0
2, 688638, Note_on_c, 0, 81, 0
2, 688668, Note_on_c, 0, 79, 70
2, 688732, Note_on_c, 0, 79, 0
2, 688750, Note_on_c, 0, 64, 57
2, 688760, Note_on_c, 0, 77, 62
2, 688800, Note_on_c, 0, 64, 0
2, 688808, Note_on_c, 0, 77, 0
2, 688846, Note_on_c, 0, 76, 57
2, 688900, Note_on_c, 0, 76, 0
2, 688976, Note_on_c, 0, 74, 72
2, 688990, Note_on_c, 0, 55, 44
2, 688993, Note_on_c, 0, 71, 42
2, 689172, Control_c, 0, 64, 127
2, 689274, Note_on_c, 0, 55, 0
2, 689292, Note_on_c, 0, 71, 0
2, 689320, Note_on_c, 0, 74, 0
2, 689386, Control_c, 0, 64, 0
2, 689391, Note_on_c, 0, 72, 84
2, 689398, Note_on_c, 0, 69, 54
2, 689446, Note_on_c, 0, 72, 0
2, 689460, Note_on_c, 0, 69, 0
2, 689590, Note_on_c, 0, 71, 106
2, 689594, Note_on_c, 0, 74, 105
2, 689634, Note_on_c, 0, 71, 0
2, 689680, Note_on_c, 0, 74, 0
2, 689794, Note_on_c, 0, 76, 99
2, 689797, Note_on_c, 0, 72, 94
2, 689802, Note_on_c, 0, 45, 78
2, 689848, Note_on_c, 0, 72, 0
2, 689858, Note_on_c, 0, 45, 0
2, 689898, Note_on_c, 0, 76, 0
2, 689992, Note_on_c, 0, 57, 75
2, 690000, Note_on_c, 0, 72, 80
2, 690000, Note_on_c, 0, 76, 78
2, 690046, Note_on_c, 0, 76, 0
2, 690052, Note_on_c, 0, 72, 0
2, 690058, Note_on_c, 0, 57, 0
2, 690188, Note_on_c, 0, 77, 99
2, 690193, Note_on_c, 0, 48, 65
2, 690250, Note_on_c, 0, 48, 0
2, 690284, Note_on_c, 0, 76, 78
2, 690318, Note_on_c, 0, 77, 0
2, 690346, Note_on_c, 0, 76, 0
2, 690362, Note_on_c, 0, 60, 64
2, 690378, Note_on_c, 0, 74, 82
2, 690418, Note_on_c, 0, 74, 0
2, 690422, Note_on_c, 0, 60, 0
2, 690458, Note_on_c, 0, 72, 72
2, 690506, Note_on_c, 0, 72, 0
2, 690584, Note_on_c, 0, 68, 76
2, 690587, Note_on_c, 0, 71, 85
2, 690596, Note_on_c, 0, 52, 68
2, 690790, Note_on_c, 0, 64, 94
2, 690816, Control_c, 0, 64, 127
2, 690818, Note_on_c, 0, 68, 0
2, 690840, Note_on_c, 0, 64, 0
2, 690858, Note_on_c, 0, 71, 0
2, 690868, Note_on_c, 0, 52, 0
2, 690970, Control_c, 0, 64, 0
2, 690998, Note_on_c, 0, 69, 77
2, 690998, Note_on_c, 0, 72, 86
2, 691050, Note_on_c, 0, 69, 0
2, 691060, Note_on_c, 0, 72, 0
2, 691198, Note_on_c, 0, 71, 105
2, 691201, Note_on_c, 0, 74, 100
2, 691238, Note_on_c, 0, 71, 0
2, 691254, Note_on_c, 0, 74, 0
2, 691398, Note_on_c, 0, 76, 92
2, 691400, Note_on_c, 0, 45, 70
2, 691404, Note_on_c, 0, 72, 87
2, 691452, Note_on_c, 0, 72, 0
2, 691458, Note_on_c, 0, 45, 0
2, 691468, Note_on_c, 0, 76, 0
2, 691610, Note_on_c, 0, 76, 78
2, 691612, Note_on_c, 0, 57, 61
2, 691612, Note_on_c, 0, 72, 67
2, 691654, Note_on_c, 0, 76, 0
2, 691668, Note_on_c, 0, 72, 0
2, 691671, Note_on_c, 0, 57, 0
2, 691804, Note_on_c, 0, 48, 52
2, 691818, Note_on_c, 0, 77, 70
2, 691870, Note_on_c, 0, 48, 0
2, 691880, Note_on_c, 0, 77, 0
2, 691920, Note_on_c, 0, 76, 41
2, 691992, Note_on_c, 0, 76, 0
2, 691995, Note_on_c, 0, 60, 48
2, 692020, Note_on_c, 0, 74, 55
2, 692062, Note_on_c, 0, 60, 0
2, 692066, Note_on_c, 0, 74, 0
2, 692106, Note_on_c, 0, 72, 49
2, 692222, Note_on_c, 0, 72, 0
2, 692260, Note_on_c, 0, 71, 60
2, 692266, Note_on_c, 0, 68, 40
2, 692278, Note_on_c, 0, 52, 45
2, 692582, Control_c, 0, 64, 127
2, 692680, Note_on_c, 0, 68, 0
2, 692696, Note_on_c, 0, 71, 0
2, 692742, Note_on_c, 0, 52, 0
2, 692778, Note_on_c, 0, 71, 72
2, 692784, Control_c, 0, 64, 0
2, 692890, Note_on_c, 0, 69, 47
2, 692892, Note_on_c, 0, 71, 0
2, 692956, Note_on_c, 0, 69, 0
2, 692962, Note_on_c, 0, 68, 65
2, 693014, Note_on_c, 0, 68, 0
2, 693042, Note_on_c, 0, 69, 48
2, 693150, Note_on_c, 0, 69, 0
2, 693164, Note_on_c, 0, 57, 40
2, 693168, Note_on_c, 0, 72, 72
2, 693288, Note_on_c, 0, 57, 0
2, 693306, Control_c, 0, 64, 127
2, 693374, Note_on_c, 0, 64, 38
2, 693377, Note_on_c, 0, 60, 34
2, 693382, Note_on_c, 0, 72, 0
2, 693398, Control_c, 0, 64, 0
2, 693438, Note_on_c, 0, 64, 0
2, 693448, Note_on_c, 0, 60, 0
2, 693578, Note_on_c, 0, 74, 74
2, 693586, Note_on_c, 0, 64, 48
2, 693588, Note_on_c, 0, 60, 22
2, 693640, Note_on_c, 0, 74, 0
2, 693644, Note_on_c, 0, 64, 0
2, 693668, Note_on_c, 0, 60, 0
2, 693670, Note_on_c, 0, 72, 57
2, 693734, Note_on_c, 0, 72, 0
2, 693760, Note_on_c, 0, 71, 77
2, 693768, Note_on_c, 0, 60, 44
2, 693796, Note_on_c, 0, 64, 38
2, 693816, Note_on_c, 0, 71, 0
2, 693836, Note_on_c, 0, 60, 0
2, 693864, Note_on_c, 0, 64, 0
2, 693867, Note_on_c, 0, 72, 62
2, 693950, Note_on_c, 0, 72, 0
2, 693966, Note_on_c, 0, 57, 55
2, 693970, Note_on_c, 0, 76, 77
2, 694090, Control_c, 0, 64, 127
2, 694100, Note_on_c, 0, 57, 0
2, 694132, Note_on_c, 0, 76, 0
2, 694162, Note_on_c, 0, 64, 60
2, 694168, Note_on_c, 0, 60, 56
2, 694216, Note_on_c, 0, 64, 0
2, 694226, Note_on_c, 0, 60, 0
2, 694226, Control_c, 0, 64, 0
2, 694380, Note_on_c, 0, 77, 91
2, 694380, Note_on_c, 0, 64, 57
2, 694404, Note_on_c, 0, 60, 51
2, 694436, Note_on_c, 0, 64, 0
2, 694470, Note_on_c, 0, 60, 0
2, 694476, Note_on_c, 0, 76, 70
2, 694498, Note_on_c, 0, 77, 0
2, 694550, Note_on_c, 0, 76, 0
2, 694568, Note_on_c, 0, 75, 80
2, 694571, Note_on_c, 0, 60, 37
2, 694588, Note_on_c, 0, 64, 46
2, 694626, Note_on_c, 0, 75, 0
2, 694638, Note_on_c, 0, 60, 0
2, 694642, Note_on_c, 0, 64, 0
2, 694670, Note_on_c, 0, 76, 78
2, 694734, Note_on_c, 0, 76, 0
2, 694780, Note_on_c, 0, 57, 54
2, 694792, Note_on_c, 0, 83, 113
2, 694848, Note_on_c, 0, 57, 0
2, 694884, Note_on_c, 0, 81, 87
2, 694888, Note_on_c, 0, 83, 0
2, 694972, Note_on_c, 0, 81, 0
2, 694976, Note_on_c, 0, 64, 57
2, 694978, Note_on_c, 0, 80, 85
2, 695000, Note_on_c, 0, 60, 40
2, 695030, Note_on_c, 0, 64, 0
2, 695072, Note_on_c, 0, 60, 0
2, 695094, Note_on_c, 0, 81, 80
2, 695116, Note_on_c, 0, 80, 0
2, 695150, Note_on_c, 0, 81, 0
2, 695174, Note_on_c, 0, 83, 114
2, 695184, Note_on_c, 0, 57, 68
2, 695236, Note_on_c, 0, 57, 0
2, 695268, Note_on_c, 0, 81, 86
2, 695292, Note_on_c, 0, 83, 0
2, 695360, Note_on_c, 0, 80, 94
2, 695366, Note_on_c, 0, 64, 68
2, 695376, Note_on_c, 0, 81, 0
2, 695382, Note_on_c, 0, 60, 59
2, 695414, Note_on_c, 0, 64, 0
2, 695440, Note_on_c, 0, 60, 0
2, 695452, Note_on_c, 0, 81, 91
2, 695474, Note_on_c, 0, 80, 0
2, 695566, Note_on_c, 0, 53, 122
2, 695568, Note_on_c, 0, 84, 114
2, 695598, Note_on_c, 0, 81, 0
2, 695672, Control_c, 0, 64, 127
2, 695742, Note_on_c, 0, 53, 0
2, 695796, Note_on_c, 0, 63, 72
2, 695806, Note_on_c, 0, 57, 54
2, 695862, Note_on_c, 0, 63, 0
2, 695868, Note_on_c, 0, 57, 0
2, 695948, Control_c, 0, 64, 0
2, 695976, Note_on_c, 0, 81, 110
2, 695996, Note_on_c, 0, 63, 84
2, 695999, Note_on_c, 0, 84, 0
2, 696006, Note_on_c, 0, 57, 55
2, 696058, Note_on_c, 0, 63, 0
2, 696068, Note_on_c, 0, 57, 0
2, 696082, Note_on_c, 0, 81, 0
2, 696182, Note_on_c, 0, 83, 127
2, 696184, Note_on_c, 0, 63, 85
2, 696194, Note_on_c, 0, 57, 55
2, 696238, Note_on_c, 0, 63, 0
2, 696258, Note_on_c, 0, 57, 0
2, 696260, Note_on_c, 0, 83, 0
2, 696390, Note_on_c, 0, 84, 117
2, 696402, Note_on_c, 0, 52, 91
2, 696458, Note_on_c, 0, 52, 0
2, 696482, Note_on_c, 0, 84, 0
2, 696600, Note_on_c, 0, 64, 74
2, 696604, Note_on_c, 0, 83, 123
2, 696620, Note_on_c, 0, 57, 57
2, 696646, Note_on_c, 0, 64, 0
2, 696672, Note_on_c, 0, 57, 0
2, 696674, Note_on_c, 0, 83, 0
2, 696800, Note_on_c, 0, 81, 97
2, 696802, Note_on_c, 0, 50, 82
2, 696854, Note_on_c, 0, 50, 0
2, 696888, Note_on_c, 0, 81, 0
2, 696998, Note_on_c, 0, 59, 67
2, 696998, Note_on_c, 0, 80, 92
2, 697020, Note_on_c, 0, 53, 72
2, 697050, Note_on_c, 0, 59, 0
2, 697074, Note_on_c, 0, 53, 0
2, 697076, Note_on_c, 0, 80, 0
2, 697208, Note_on_c, 0, 48, 70
2, 697210, Note_on_c, 0, 81, 86
2, 697266, Note_on_c, 0, 48, 0
2, 697276, Note_on_c, 0, 81, 0
2, 697406, Note_on_c, 0, 76, 79
2, 697406, Note_on_c, 0, 57, 55
2, 697434, Note_on_c, 0, 52, 44
2, 697464, Note_on_c, 0, 76, 0
2, 697474, Note_on_c, 0, 57, 0
2, 697492, Note_on_c, 0, 52, 0
2, 697600, Note_on_c, 0, 50, 67
2, 697610, Note_on_c, 0, 77, 74
2, 697656, Note_on_c, 0, 77, 0
2, 697660, Note_on_c, 0, 50, 0
2, 697800, Note_on_c, 0, 59, 52
2, 697800, Note_on_c, 0, 74, 72
2, 697810, Note_on_c, 0, 53, 71
2, 697848, Note_on_c, 0, 74, 0
2, 697850, Note_on_c, 0, 59, 0
2, 697862, Note_on_c, 0, 53, 0
2, 698000, Note_on_c, 0, 72, 74
2, 698002, Note_on_c, 0, 57, 67
2, 698016, Note_on_c, 0, 52, 70
2, 698068, Note_on_c, 0, 52, 0
2, 698068, Note_on_c, 0, 57, 0
2, 698222, Note_on_c, 0, 57, 68
2, 698250, Note_on_c, 0, 52, 67
2, 698274, Note_on_c, 0, 57, 0
2, 698288, Note_on_c, 0, 72, 0
2, 698298, Note_on_c, 0, 52, 0
2, 698394, Note_on_c, 0, 72, 53
2, 698406, Note_on_c, 0, 56, 74
2, 698444, Note_on_c, 0, 52, 44
2, 698446, Note_on_c, 0, 72, 0
2, 698456, Note_on_c, 0, 71, 72
2, 698484, Note_on_c, 0, 56, 0
2, 698506, Note_on_c, 0, 71, 0
2, 698506, Note_on_c, 0, 52, 0
2, 698509, Note_on_c, 0, 72, 75
2, 698558, Note_on_c, 0, 72, 0
2, 698572, Note_on_c, 0, 71, 79
2, 698622, Note_on_c, 0, 71, 0
2, 698626, Note_on_c, 0, 72, 67
2, 698628, Note_on_c, 0, 56, 59
2, 698658, Note_on_c, 0, 52, 38
2, 698688, Note_on_c, 0, 72, 0
2, 698694, Note_on_c, 0, 71, 72
2, 698702, Note_on_c, 0, 56, 0
2, 698716, Note_on_c, 0, 52, 0
2, 698746, Note_on_c, 0, 71, 0
2, 698756, Note_on_c, 0, 69, 57
2, 698814, Note_on_c, 0, 69, 0
2, 698816, Note_on_c, 0, 71, 78
2, 698898, Note_on_c, 0, 57, 45
2, 698910, Note_on_c, 0, 71, 0
2, 698918, Note_on_c, 0, 69, 46
2, 698918, Note_on_c, 0, 45, 39
2, 699128, Control_c, 0, 64, 127
2, 699264, Note_on_c, 0, 69, 0
2, 699280, Note_on_c, 0, 45, 0
2, 699288, Note_on_c, 0, 57, 0
2, 699362, Note_on_c, 0, 69, 79
2, 699368, Note_on_c, 0, 81, 103
2, 699420, Control_c, 0, 64, 0
2, 699452, Note_on_c, 0, 69, 0
2, 699466, Note_on_c, 0, 81, 0
2, 699564, Note_on_c, 0, 83, 127
2, 699568, Note_on_c, 0, 71, 110
2, 699598, Note_on_c, 0, 83, 0
2, 699604, Note_on_c, 0, 71, 0
2, 699804, Note_on_c, 0, 45, 95
2, 699814, Note_on_c, 0, 49, 87
2, 699816, Note_on_c, 0, 73, 120
2, 699816, Note_on_c, 0, 85, 124
2, 699819, Control_c, 0, 64, 127
2, 699826, Note_on_c, 0, 52, 106
2, 699838, Note_on_c, 0, 57, 107
2, 699876, Note_on_c, 0, 45, 0
2, 699914, Note_on_c, 0, 49, 0
2, 699916, Note_on_c, 0, 52, 0
2, 699960, Note_on_c, 0, 57, 0
2, 699972, Note_on_c, 0, 85, 0
2, 700008, Note_on_c, 0, 73, 0
2, 700070, Note_on_c, 0, 57, 42
2, 700134, Note_on_c, 0, 57, 0
2, 700258, Note_on_c, 0, 69, 101
2, 700262, Note_on_c, 0, 81, 120
2, 700272, Note_on_c, 0, 57, 108
2, 700282, Control_c, 0, 64, 0
2, 700330, Note_on_c, 0, 57, 0
2, 700338, Note_on_c, 0, 69, 0
2, 700356, Note_on_c, 0, 81, 0
2, 700476, Note_on_c, 0, 83, 127
2, 700478, Note_on_c, 0, 71, 121
2, 700488, Note_on_c, 0, 57, 88
2, 700514, Note_on_c, 0, 71, 0
2, 700524, Note_on_c, 0, 83, 0
2, 700538, Note_on_c, 0, 57, 0
2, 700696, Note_on_c, 0, 45, 105
2, 700704, Note_on_c, 0, 49, 93
2, 700706, Note_on_c, 0, 73, 123
2, 700708, Note_on_c, 0, 85, 126
2, 700712, Note_on_c, 0, 52, 102
2, 700732, Note_on_c, 0, 57, 123
2, 700758, Control_c, 0, 64, 127
2, 700780, Note_on_c, 0, 45, 0
2, 700788, Note_on_c, 0, 73, 0
2, 700798, Note_on_c, 0, 49, 0
2, 700798, Note_on_c, 0, 52, 0
2, 700824, Note_on_c, 0, 85, 0
2, 700850, Note_on_c, 0, 57, 0
2, 700926, Control_c, 0, 64, 0
2, 700928, Note_on_c, 0, 83, 123
2, 700934, Note_on_c, 0, 71, 85
2, 700934, Note_on_c, 0, 57, 69
2, 700972, Note_on_c, 0, 83, 0
2, 700978, Note_on_c, 0, 71, 0
2, 701026, Note_on_c, 0, 57, 0
2, 701124, Note_on_c, 0, 81, 110
2, 701124, Note_on_c, 0, 69, 101
2, 701134, Note_on_c, 0, 57, 90
2, 701172, Note_on_c, 0, 69, 0
2, 701172, Note_on_c, 0, 81, 0
2, 701200, Note_on_c, 0, 57, 0
2, 701332, Note_on_c, 0, 68, 103
2, 701334, Note_on_c, 0, 80, 111
2, 701338, Note_on_c, 0, 57, 94
2, 701378, Note_on_c, 0, 57, 0
2, 701402, Note_on_c, 0, 80, 0
2, 701402, Note_on_c, 0, 68, 0
2, 701534, Note_on_c, 0, 38, 114
2, 701542, Note_on_c, 0, 45, 106
2, 701544, Note_on_c, 0, 42, 102
2, 701550, Note_on_c, 0, 66, 108
2, 701552, Note_on_c, 0, 78, 113
2, 701566, Note_on_c, 0, 50, 114
2, 701590, Note_on_c, 0, 38, 0
2, 701602, Control_c, 0, 64, 127
2, 701628, Note_on_c, 0, 45, 0
2, 701633, Control_c, 0, 64, 0
2, 701640, Note_on_c, 0, 78, 0
2, 701648, Note_on_c, 0, 66, 0
2, 701648, Note_on_c, 0, 42, 0
2, 701658, Note_on_c, 0, 50, 0
2, 701758, Note_on_c, 0, 68, 98
2, 701760, Note_on_c, 0, 80, 108
2, 701768, Note_on_c, 0, 50, 83
2, 701816, Note_on_c, 0, 50, 0
2, 701842, Note_on_c, 0, 68, 0
2, 701852, Note_on_c, 0, 80, 0
2, 701936, Note_on_c, 0, 39, 90
2, 701960, Note_on_c, 0, 45, 67
2, 701966, Note_on_c, 0, 81, 117
2, 701966, Note_on_c, 0, 42, 67
2, 701969, Note_on_c, 0, 69, 82
2, 701974, Note_on_c, 0, 51, 108
2, 701998, Note_on_c, 0, 39, 0
2, 702014, Note_on_c, 0, 42, 0
2, 702017, Note_on_c, 0, 71, 30
2, 702024, Note_on_c, 0, 45, 0
2, 702026, Note_on_c, 0, 69, 0
2, 702026, Note_on_c, 0, 81, 0
2, 702062, Note_on_c, 0, 51, 0
2, 702074, Note_on_c, 0, 71, 0
2, 702166, Note_on_c, 0, 71, 82
2, 702166, Note_on_c, 0, 83, 125
2, 702172, Note_on_c, 0, 51, 83
2, 702200, Note_on_c, 0, 83, 0
2, 702218, Note_on_c, 0, 71, 0
2, 702232, Note_on_c, 0, 51, 0
2, 702338, Note_on_c, 0, 40, 103
2, 702358, Note_on_c, 0, 44, 76
2, 702388, Note_on_c, 0, 80, 109
2, 702394, Note_on_c, 0, 68, 78
2, 702396, Note_on_c, 0, 47, 63
2, 702414, Note_on_c, 0, 52, 106
2, 702424, Note_on_c, 0, 70, 30
2, 702426, Note_on_c, 0, 80, 0
2, 702430, Note_on_c, 0, 40, 0
2, 702442, Note_on_c, 0, 47, 0
2, 702448, Control_c, 0, 64, 127
2, 702456, Note_on_c, 0, 68, 0
2, 702476, Note_on_c, 0, 44, 0
2, 702488, Note_on_c, 0, 70, 0
2, 702498, Note_on_c, 0, 52, 0
2, 702608, Note_on_c, 0, 52, 88
2, 702614, Note_on_c, 0, 76, 69
2, 702614, Note_on_c, 0, 64, 80
2, 702658, Note_on_c, 0, 64, 0
2, 702658, Note_on_c, 0, 52, 0
2, 702662, Note_on_c, 0, 76, 0
2, 702662, Control_c, 0, 64, 0
2, 702812, Note_on_c, 0, 81, 114
2, 702814, Note_on_c, 0, 69, 87
2, 702816, Note_on_c, 0, 52, 99
2, 702848, Note_on_c, 0, 81, 0
2, 702862, Note_on_c, 0, 52, 0
2, 702862, Note_on_c, 0, 69, 0
2, 703022, Note_on_c, 0, 52, 100
2, 703022, Note_on_c, 0, 71, 101
2, 703025, Note_on_c, 0, 83, 125
2, 703060, Note_on_c, 0, 83, 0
2, 703060, Note_on_c, 0, 71, 0
2, 703063, Note_on_c, 0, 52, 0
2, 703234, Note_on_c, 0, 45, 80
2, 703244, Note_on_c, 0, 49, 76
2, 703256, Note_on_c, 0, 52, 68
2, 703266, Note_on_c, 0, 85, 125
2, 703268, Note_on_c, 0, 73, 120
2, 703282, Note_on_c, 0, 57, 101
2, 703288, Note_on_c, 0, 45, 0
2, 703292, Control_c, 0, 64, 127
2, 703324, Note_on_c, 0, 52, 0
2, 703334, Note_on_c, 0, 49, 0
2, 703388, Note_on_c, 0, 57, 0
2, 703454, Note_on_c, 0, 85, 0
2, 703476, Note_on_c, 0, 73, 0
2, 703482, Note_on_c, 0, 57, 54
2, 703556, Note_on_c, 0, 57, 0
2, 703662, Control_c, 0, 64, 0
2, 703692, Note_on_c, 0, 69, 86
2, 703698, Note_on_c, 0, 57, 91
2, 703698, Note_on_c, 0, 81, 110
2, 703752, Note_on_c, 0, 57, 0
2, 703752, Note_on_c, 0, 69, 0
2, 703782, Note_on_c, 0, 81, 0
2, 703896, Note_on_c, 0, 57, 97
2, 703908, Note_on_c, 0, 71, 106
2, 703908, Note_on_c, 0, 83, 127
2, 703942, Note_on_c, 0, 83, 0
2, 703944, Note_on_c, 0, 71, 0
2, 703958, Note_on_c, 0, 57, 0
2, 704090, Note_on_c, 0, 45, 85
2, 704094, Note_on_c, 0, 49, 82
2, 704118, Note_on_c, 0, 85, 121
2, 704120, Note_on_c, 0, 73, 114
2, 704120, Note_on_c, 0, 52, 90
2, 704148, Note_on_c, 0, 57, 110
2, 704160, Note_on_c, 0, 45, 0
2, 704168, Control_c, 0, 64, 127
2, 704204, Note_on_c, 0, 85, 0
2, 704207, Note_on_c, 0, 49, 0
2, 704214, Note_on_c, 0, 52, 0
2, 704219, Note_on_c, 0, 73, 0
2, 704250, Note_on_c, 0, 57, 0
2, 704332, Note_on_c, 0, 83, 127
2, 704334, Note_on_c, 0, 71, 110
2, 704336, Note_on_c, 0, 57, 68
2, 704338, Control_c, 0, 64, 0
2, 704374, Note_on_c, 0, 83, 0
2, 704382, Note_on_c, 0, 71, 0
2, 704392, Note_on_c, 0, 57, 0
2, 704530, Note_on_c, 0, 69, 79
2, 704530, Note_on_c, 0, 81, 105
2, 704536, Note_on_c, 0, 57, 90
2, 704570, Note_on_c, 0, 81, 0
2, 704584, Note_on_c, 0, 57, 0
2, 704584, Note_on_c, 0, 69, 0
2, 704732, Note_on_c, 0, 57, 91
2, 704732, Note_on_c, 0, 68, 95
2, 704734, Note_on_c, 0, 80, 106
2, 704772, Note_on_c, 0, 57, 0
2, 704774, Note_on_c, 0, 80, 0
2, 704790, Note_on_c, 0, 68, 0
2, 704928, Note_on_c, 0, 38, 105
2, 704934, Note_on_c, 0, 42, 94
2, 704936, Note_on_c, 0, 45, 86
2, 704944, Note_on_c, 0, 66, 100
2, 704946, Note_on_c, 0, 78, 108
2, 704966, Control_c, 0, 64, 127
2, 704968, Note_on_c, 0, 50, 117
2, 704971, Note_on_c, 0, 38, 0
2, 704996, Note_on_c, 0, 45, 0
2, 705002, Note_on_c, 0, 66, 0
2, 705018, Note_on_c, 0, 78, 0
2, 705034, Note_on_c, 0, 42, 0
2, 705060, Note_on_c, 0, 50, 0
2, 705060, Control_c, 0, 64, 0
2, 705150, Note_on_c, 0, 83, 127
2, 705156, Note_on_c, 0, 50, 72
2, 705156, Note_on_c, 0, 71, 105
2, 705180, Note_on_c, 0, 83, 0
2, 705196, Note_on_c, 0, 71, 0
2, 705220, Note_on_c, 0, 50, 0
2, 705326, Note_on_c, 0, 40, 101
2, 705342, Note_on_c, 0, 44, 83
2, 705350, Note_on_c, 0, 68, 103
2, 705352, Note_on_c, 0, 80, 109
2, 705364, Note_on_c, 0, 47, 77
2, 705376, Note_on_c, 0, 40, 0
2, 705376, Note_on_c, 0, 52, 123
2, 705402, Note_on_c, 0, 80, 0
2, 705426, Note_on_c, 0, 47, 0
2, 705432, Note_on_c, 0, 68, 0
2, 705458, Note_on_c, 0, 44, 0
2, 705476, Note_on_c, 0, 52, 0
2, 705568, Note_on_c, 0, 76, 98
2, 705571, Note_on_c, 0, 64, 101
2, 705576, Note_on_c, 0, 52, 86
2, 705606, Note_on_c, 0, 64, 0
2, 705608, Note_on_c, 0, 76, 0
2, 705622, Note_on_c, 0, 52, 0
2, 705796, Note_on_c, 0, 81, 117
2, 705796, Note_on_c, 0, 69, 90
2, 705804, Note_on_c, 0, 45, 92
2, 705846, Note_on_c, 0, 45, 0
2, 705904, Control_c, 0, 64, 127
2, 705970, Note_on_c, 0, 69, 0
2, 706018, Note_on_c, 0, 81, 0
2, 706196, Control_c, 0, 64, 0
2, 706216, Note_on_c, 0, 81, 105
2, 706216, Note_on_c, 0, 69, 79
2, 706258, Note_on_c, 0, 81, 0
2, 706268, Note_on_c, 0, 69, 0
2, 706428, Note_on_c, 0, 83, 127
2, 706428, Note_on_c, 0, 71, 102
2, 706460, Note_on_c, 0, 83, 0
2, 706468, Note_on_c, 0, 71, 0
2, 706618, Note_on_c, 0, 45, 75
2, 706648, Note_on_c, 0, 49, 78
2, 706660, Note_on_c, 0, 52, 53
2, 706682, Note_on_c, 0, 73, 106
2, 706686, Note_on_c, 0, 85, 116
2, 706698, Note_on_c, 0, 57, 114
2, 706704, Control_c, 0, 64, 127
2, 706728, Note_on_c, 0, 45, 0
2, 706746, Note_on_c, 0, 49, 0
2, 706758, Note_on_c, 0, 52, 0
2, 706794, Note_on_c, 0, 57, 0
2, 706836, Note_on_c, 0, 85, 0
2, 706884, Note_on_c, 0, 73, 0
2, 706884, Note_on_c, 0, 57, 60
2, 706986, Note_on_c, 0, 57, 0
2, 707072, Control_c, 0, 64, 0
2, 707096, Note_on_c, 0, 69, 80
2, 707096, Note_on_c, 0, 81, 105
2, 707108, Note_on_c, 0, 57, 70
2, 707150, Note_on_c, 0, 69, 0
2, 707164, Note_on_c, 0, 57, 0
2, 707170, Note_on_c, 0, 81, 0
2, 707310, Note_on_c, 0, 83, 126
2, 707312, Note_on_c, 0, 57, 87
2, 707312, Note_on_c, 0, 71, 97
2, 707344, Note_on_c, 0, 83, 0
2, 707354, Note_on_c, 0, 71, 0
2, 707378, Note_on_c, 0, 57, 0
2, 707488, Note_on_c, 0, 45, 84
2, 707514, Note_on_c, 0, 49, 76
2, 707546, Note_on_c, 0, 85, 110
2, 707546, Note_on_c, 0, 52, 97
2, 707546, Note_on_c, 0, 73, 103
2, 707568, Note_on_c, 0, 57, 108
2, 707594, Note_on_c, 0, 45, 0
2, 707594, Control_c, 0, 64, 127
2, 707604, Note_on_c, 0, 52, 0
2, 707616, Note_on_c, 0, 49, 0
2, 707636, Note_on_c, 0, 85, 0
2, 707652, Note_on_c, 0, 73, 0
2, 707668, Note_on_c, 0, 57, 0
2, 707748, Control_c, 0, 64, 0
2, 707756, Note_on_c, 0, 57, 61
2, 707762, Note_on_c, 0, 83, 123
2, 707764, Note_on_c, 0, 71, 109
2, 707806, Note_on_c, 0, 83, 0
2, 707810, Note_on_c, 0, 71, 0
2, 707828, Note_on_c, 0, 57, 0
2, 707964, Note_on_c, 0, 69, 85
2, 707964, Note_on_c, 0, 81, 103
2, 707976, Note_on_c, 0, 57, 82
2, 708002, Note_on_c, 0, 81, 0
2, 708016, Note_on_c, 0, 69, 0
2, 708024, Note_on_c, 0, 57, 0
2, 708164, Note_on_c, 0, 68, 93
2, 708167, Note_on_c, 0, 80, 99
2, 708182, Note_on_c, 0, 57, 65
2, 708208, Note_on_c, 0, 80, 0
2, 708214, Note_on_c, 0, 68, 0
2, 708236, Note_on_c, 0, 57, 0
2, 708368, Note_on_c, 0, 38, 108
2, 708380, Note_on_c, 0, 42, 95
2, 708380, Note_on_c, 0, 45, 90
2, 708386, Note_on_c, 0, 66, 101
2, 708388, Note_on_c, 0, 78, 106
2, 708404, Note_on_c, 0, 50, 120
2, 708424, Note_on_c, 0, 38, 0
2, 708460, Note_on_c, 0, 45, 0
2, 708470, Control_c, 0, 64, 127
2, 708478, Note_on_c, 0, 66, 0
2, 708486, Note_on_c, 0, 42, 0
2, 708494, Note_on_c, 0, 50, 0
2, 708498, Note_on_c, 0, 78, 0
2, 708516, Control_c, 0, 64, 0
2, 708594, Note_on_c, 0, 68, 85
2, 708597, Note_on_c, 0, 80, 94
2, 708606, Note_on_c, 0, 50, 70
2, 708648, Note_on_c, 0, 68, 0
2, 708660, Note_on_c, 0, 80, 0
2, 708662, Note_on_c, 0, 50, 0
2, 708760, Note_on_c, 0, 39, 100
2, 708786, Note_on_c, 0, 42, 85
2, 708789, Note_on_c, 0, 45, 74
2, 708804, Note_on_c, 0, 81, 116
2, 708807, Note_on_c, 0, 39, 0
2, 708807, Note_on_c, 0, 69, 94
2, 708822, Note_on_c, 0, 51, 114
2, 708828, Note_on_c, 0, 42, 0
2, 708850, Note_on_c, 0, 81, 0
2, 708856, Note_on_c, 0, 69, 0
2, 708862, Note_on_c, 0, 45, 0
2, 708870, Control_c, 0, 64, 127
2, 708900, Control_c, 0, 64, 0
2, 708916, Note_on_c, 0, 51, 0
2, 709004, Note_on_c, 0, 51, 84
2, 709006, Note_on_c, 0, 83, 127
2, 709008, Note_on_c, 0, 71, 109
2, 709040, Note_on_c, 0, 83, 0
2, 709050, Note_on_c, 0, 71, 0
2, 709074, Note_on_c, 0, 51, 0
2, 709156, Note_on_c, 0, 40, 108
2, 709176, Note_on_c, 0, 44, 87
2, 709214, Note_on_c, 0, 47, 76
2, 709218, Note_on_c, 0, 68, 110
2, 709218, Note_on_c, 0, 80, 114
2, 709238, Note_on_c, 0, 52, 117
2, 709246, Note_on_c, 0, 40, 0
2, 709254, Control_c, 0, 64, 127
2, 709262, Note_on_c, 0, 47, 0
2, 709296, Note_on_c, 0, 80, 0
2, 709302, Note_on_c, 0, 44, 0
2, 709308, Note_on_c, 0, 68, 0
2, 709334, Note_on_c, 0, 52, 0
2, 709424, Note_on_c, 0, 76, 106
2, 709429, Note_on_c, 0, 52, 91
2, 709429, Note_on_c, 0, 64, 101
2, 709454, Control_c, 0, 64, 0
2, 709466, Note_on_c, 0, 64, 0
2, 709468, Note_on_c, 0, 76, 0
2, 709482, Note_on_c, 0, 52, 0
2, 709628, Note_on_c, 0, 81, 116
2, 709634, Note_on_c, 0, 69, 87
2, 709640, Note_on_c, 0, 52, 87
2, 709666, Note_on_c, 0, 81, 0
2, 709680, Note_on_c, 0, 52, 0
2, 709682, Note_on_c, 0, 69, 0
2, 709828, Note_on_c, 0, 83, 127
2, 709836, Note_on_c, 0, 71, 105
2, 709846, Note_on_c, 0, 52, 99
2, 709876, Note_on_c, 0, 71, 0
2, 709882, Note_on_c, 0, 52, 0
2, 709896, Note_on_c, 0, 83, 0
2, 710006, Note_on_c, 0, 45, 90
2, 710036, Note_on_c, 0, 49, 98
2, 710070, Note_on_c, 0, 52, 83
2, 710098, Note_on_c, 0, 73, 116
2, 710098, Note_on_c, 0, 85, 121
2, 710098, Control_c, 0, 64, 127
2, 710106, Note_on_c, 0, 57, 118
2, 710118, Note_on_c, 0, 45, 0
2, 710164, Note_on_c, 0, 49, 0
2, 710178, Note_on_c, 0, 52, 0
2, 710218, Note_on_c, 0, 57, 0
2, 710284, Note_on_c, 0, 85, 0
2, 710326, Note_on_c, 0, 73, 0
2, 710340, Note_on_c, 0, 57, 64
2, 710396, Note_on_c, 0, 57, 0
2, 710514, Control_c, 0, 64, 0
2, 710520, Note_on_c, 0, 81, 108
2, 710522, Note_on_c, 0, 69, 88
2, 710540, Note_on_c, 0, 57, 94
2, 710574, Note_on_c, 0, 69, 0
2, 710582, Note_on_c, 0, 57, 0
2, 710632, Note_on_c, 0, 81, 0
2, 710732, Note_on_c, 0, 83, 127
2, 710736, Note_on_c, 0, 71, 100
2, 710736, Note_on_c, 0, 57, 95
2, 710764, Note_on_c, 0, 83, 0
2, 710776, Note_on_c, 0, 71, 0
2, 710780, Note_on_c, 0, 57, 0
2, 710902, Note_on_c, 0, 45, 95
2, 710918, Note_on_c, 0, 49, 94
2, 710952, Note_on_c, 0, 73, 109
2, 710954, Note_on_c, 0, 52, 105
2, 710954, Note_on_c, 0, 85, 116
2, 710986, Note_on_c, 0, 57, 109
2, 710989, Control_c, 0, 64, 127
2, 711004, Note_on_c, 0, 45, 0
2, 711026, Note_on_c, 0, 49, 0
2, 711042, Note_on_c, 0, 73, 0
2, 711050, Note_on_c, 0, 85, 0
2, 711058, Note_on_c, 0, 52, 0
2, 711106, Note_on_c, 0, 57, 0
2, 711176, Control_c, 0, 64, 0
2, 711176, Note_on_c, 0, 83, 127
2, 711179, Note_on_c, 0, 57, 71
2, 711182, Note_on_c, 0, 71, 97
2, 711212, Note_on_c, 0, 83, 0
2, 711232, Note_on_c, 0, 71, 0
2, 711256, Note_on_c, 0, 57, 0
2, 711368, Note_on_c, 0, 57, 71
2, 711382, Note_on_c, 0, 81, 109
2, 711384, Note_on_c, 0, 69, 82
2, 711418, Note_on_c, 0, 81, 0
2, 711426, Note_on_c, 0, 57, 0
2, 711434, Note_on_c, 0, 69, 0
2, 711570, Note_on_c, 0, 57, 93
2, 711578, Note_on_c, 0, 68, 100
2, 711580, Note_on_c, 0, 80, 107
2, 711610, Note_on_c, 0, 57, 0
2, 711622, Note_on_c, 0, 80, 0
2, 711636, Note_on_c, 0, 68, 0
2, 711760, Note_on_c, 0, 38, 113
2, 711770, Note_on_c, 0, 42, 97
2, 711780, Note_on_c, 0, 45, 82
2, 711792, Note_on_c, 0, 66, 98
2, 711796, Note_on_c, 0, 78, 106
2, 711820, Control_c, 0, 64, 127
2, 711828, Note_on_c, 0, 38, 0
2, 711828, Note_on_c, 0, 50, 114
2, 711842, Note_on_c, 0, 66, 0
2, 711870, Note_on_c, 0, 78, 0
2, 711882, Note_on_c, 0, 42, 0
2, 711885, Note_on_c, 0, 45, 0
2, 711928, Note_on_c, 0, 50, 0
2, 711942, Control_c, 0, 64, 0
2, 712000, Note_on_c, 0, 50, 87
2, 712005, Note_on_c, 0, 83, 103
2, 712028, Note_on_c, 0, 71, 32
2, 712044, Note_on_c, 0, 83, 0
2, 712080, Note_on_c, 0, 50, 0
2, 712086, Note_on_c, 0, 71, 0
2, 712174, Note_on_c, 0, 40, 113
2, 712184, Note_on_c, 0, 44, 88
2, 712194, Note_on_c, 0, 68, 103
2, 712194, Note_on_c, 0, 80, 107
2, 712196, Note_on_c, 0, 47, 70
2, 712216, Note_on_c, 0, 40, 0
2, 712236, Note_on_c, 0, 52, 121
2, 712248, Note_on_c, 0, 80, 0
2, 712258, Note_on_c, 0, 68, 0
2, 712280, Control_c, 0, 64, 127
2, 712302, Note_on_c, 0, 44, 0
2, 712310, Note_on_c, 0, 47, 0
2, 712310, Control_c, 0, 64, 0
2, 712336, Note_on_c, 0, 52, 0
2, 712416, Note_on_c, 0, 52, 100
2, 712416, Note_on_c, 0, 76, 106
2, 712422, Note_on_c, 0, 64, 100
2, 712452, Note_on_c, 0, 76, 0
2, 712458, Note_on_c, 0, 64, 0
2, 712466, Note_on_c, 0, 52, 0
2, 712636, Note_on_c, 0, 81, 117
2, 712640, Note_on_c, 0, 69, 100
2, 712644, Note_on_c, 0, 45, 92
2, 712684, Note_on_c, 0, 45, 0
2, 712726, Control_c, 0, 64, 127
2, 712760, Note_on_c, 0, 69, 0
2, 712810, Note_on_c, 0, 81, 0
2, 713126, Control_c, 0, 64, 0
2, 713202, Note_on_c, 0, 85, 71
2, 713276, Note_on_c, 0, 85, 0
2, 713330, Note_on_c, 0, 86, 56
2, 713402, Note_on_c, 0, 86, 0
2, 713418, Note_on_c, 0, 85, 68
2, 713504, Note_on_c, 0, 85, 0
2, 713522, Note_on_c, 0, 83, 90
2, 713604, Note_on_c, 0, 83, 0
2, 713620, Note_on_c, 0, 81, 62
2, 713636, Note_on_c, 0, 54, 31
2, 713692, Note_on_c, 0, 81, 0
2, 713704, Note_on_c, 0, 83, 105
2, 713808, Note_on_c, 0, 61, 42
2, 713818, Note_on_c, 0, 81, 77
2, 713824, Note_on_c, 0, 57, 39
2, 713838, Note_on_c, 0, 83, 0
2, 713878, Note_on_c, 0, 61, 0
2, 713892, Note_on_c, 0, 57, 0
2, 713920, Note_on_c, 0, 54, 0
2, 713922, Note_on_c, 0, 80, 87
2, 713958, Note_on_c, 0, 81, 0
2, 714018, Note_on_c, 0, 78, 88
2, 714026, Note_on_c, 0, 57, 30
2, 714040, Note_on_c, 0, 61, 40
2, 714052, Note_on_c, 0, 80, 0
2, 714098, Note_on_c, 0, 57, 0
2, 714108, Note_on_c, 0, 61, 0
2, 714118, Note_on_c, 0, 81, 83
2, 714144, Note_on_c, 0, 78, 0
2, 714186, Note_on_c, 0, 61, 53
2, 714200, Note_on_c, 0, 80, 86
2, 714216, Note_on_c, 0, 57, 25
2, 714238, Note_on_c, 0, 81, 0
2, 714262, Note_on_c, 0, 61, 0
2, 714286, Note_on_c, 0, 57, 0
2, 714312, Note_on_c, 0, 78, 82
2, 714332, Note_on_c, 0, 80, 0
2, 714402, Control_c, 0, 64, 127
2, 714402, Note_on_c, 0, 56, 52
2, 714420, Note_on_c, 0, 77, 79
2, 714422, Note_on_c, 0, 78, 0
2, 714464, Control_c, 0, 64, 0
2, 714494, Note_on_c, 0, 77, 0
2, 714498, Note_on_c, 0, 78, 71
2, 714586, Note_on_c, 0, 61, 59
2, 714612, Note_on_c, 0, 80, 80
2, 714614, Note_on_c, 0, 59, 54
2, 714634, Note_on_c, 0, 56, 0
2, 714640, Note_on_c, 0, 78, 0
2, 714660, Note_on_c, 0, 61, 0
2, 714670, Note_on_c, 0, 59, 0
2, 714712, Note_on_c, 0, 77, 76
2, 714730, Note_on_c, 0, 80, 0
2, 714766, Note_on_c, 0, 77, 0
2, 714800, Note_on_c, 0, 73, 76
2, 714818, Note_on_c, 0, 61, 52
2, 714842, Note_on_c, 0, 59, 48
2, 714888, Note_on_c, 0, 61, 0
2, 714896, Note_on_c, 0, 73, 0
2, 714896, Note_on_c, 0, 75, 72
2, 714904, Note_on_c, 0, 59, 0
2, 714988, Note_on_c, 0, 75, 0
2, 714991, Note_on_c, 0, 77, 87
2, 714994, Note_on_c, 0, 59, 56
2, 715010, Note_on_c, 0, 61, 41
2, 715052, Note_on_c, 0, 59, 0
2, 715076, Note_on_c, 0, 73, 74
2, 715082, Note_on_c, 0, 61, 0
2, 715100, Note_on_c, 0, 77, 0
2, 715138, Note_on_c, 0, 73, 0
2, 715182, Note_on_c, 0, 54, 71
2, 715188, Note_on_c, 0, 78, 86
2, 715278, Note_on_c, 0, 54, 0
2, 715278, Note_on_c, 0, 77, 79
2, 715284, Note_on_c, 0, 78, 0
2, 715350, Note_on_c, 0, 77, 0
2, 715350, Note_on_c, 0, 61, 56
2, 715364, Note_on_c, 0, 57, 53
2, 715370, Note_on_c, 0, 78, 75
2, 715428, Note_on_c, 0, 61, 0
2, 715432, Note_on_c, 0, 57, 0
2, 715450, Note_on_c, 0, 80, 91
2, 715488, Note_on_c, 0, 78, 0
2, 715550, Note_on_c, 0, 80, 0
2, 715564, Note_on_c, 0, 61, 60
2, 715572, Note_on_c, 0, 81, 79
2, 715586, Note_on_c, 0, 57, 44
2, 715626, Note_on_c, 0, 61, 0
2, 715638, Note_on_c, 0, 80, 78
2, 715648, Note_on_c, 0, 57, 0
2, 715692, Note_on_c, 0, 81, 0
2, 715754, Note_on_c, 0, 80, 0
2, 715754, Note_on_c, 0, 81, 97
2, 715754, Note_on_c, 0, 57, 33
2, 715768, Note_on_c, 0, 61, 45
2, 715836, Note_on_c, 0, 57, 0
2, 715838, Note_on_c, 0, 61, 0
2, 715846, Note_on_c, 0, 81, 0
2, 715864, Note_on_c, 0, 83, 109
2, 715928, Note_on_c, 0, 83, 0
2, 715948, Note_on_c, 0, 85, 85
2, 715956, Note_on_c, 0, 53, 86
2, 716044, Note_on_c, 0, 53, 0
2, 716056, Note_on_c, 0, 85, 0
2, 716066, Note_on_c, 0, 84, 91
2, 716122, Note_on_c, 0, 61, 54
2, 716128, Note_on_c, 0, 84, 0
2, 716142, Note_on_c, 0, 56, 49
2, 716144, Note_on_c, 0, 85, 70
2, 716198, Note_on_c, 0, 61, 0
2, 716210, Note_on_c, 0, 56, 0
2, 716246, Note_on_c, 0, 84, 76
2, 716250, Note_on_c, 0, 85, 0
2, 716306, Note_on_c, 0, 84, 0
2, 716340, Note_on_c, 0, 85, 72
2, 716354, Note_on_c, 0, 61, 46
2, 716357, Note_on_c, 0, 56, 45
2, 716422, Note_on_c, 0, 56, 0
2, 716426, Note_on_c, 0, 61, 0
2, 716446, Note_on_c, 0, 85, 0
2, 716456, Note_on_c, 0, 86, 68
2, 716542, Note_on_c, 0, 85, 62
2, 716554, Note_on_c, 0, 61, 40
2, 716562, Note_on_c, 0, 86, 0
2, 716570, Note_on_c, 0, 56, 40
2, 716628, Note_on_c, 0, 61, 0
2, 716636, Note_on_c, 0, 56, 0
2, 716652, Note_on_c, 0, 83, 95
2, 716666, Note_on_c, 0, 85, 0
2, 716720, Note_on_c, 0, 83, 0
2, 716748, Note_on_c, 0, 54, 70
2, 716762, Note_on_c, 0, 81, 67
2, 716810, Note_on_c, 0, 81, 0
2, 716832, Note_on_c, 0, 54, 0
2, 716852, Note_on_c, 0, 83, 98
2, 716936, Note_on_c, 0, 61, 46
2, 716950, Note_on_c, 0, 83, 0
2, 716958, Note_on_c, 0, 57, 41
2, 716962, Note_on_c, 0, 81, 59
2, 717008, Note_on_c, 0, 61, 0
2, 717026, Note_on_c, 0, 57, 0
2, 717028, Note_on_c, 0, 81, 0
2, 717032, Note_on_c, 0, 80, 82
2, 717130, Note_on_c, 0, 80, 0
2, 717150, Note_on_c, 0, 78, 65
2, 717162, Note_on_c, 0, 57, 33
2, 717166, Note_on_c, 0, 61, 46
2, 717222, Note_on_c, 0, 78, 0
2, 717230, Note_on_c, 0, 61, 0
2, 717230, Note_on_c, 0, 57, 0
2, 717254, Note_on_c, 0, 81, 70
2, 717320, Note_on_c, 0, 81, 0
2, 717342, Note_on_c, 0, 80, 69
2, 717358, Note_on_c, 0, 61, 33
2, 717361, Note_on_c, 0, 57, 25
2, 717432, Note_on_c, 0, 61, 0
2, 717434, Note_on_c, 0, 57, 0
2, 717452, Note_on_c, 0, 80, 0
2, 717454, Note_on_c, 0, 78, 65
2, 717532, Note_on_c, 0, 78, 0
2, 717542, Note_on_c, 0, 56, 71
2, 717558, Note_on_c, 0, 76, 57
2, 717612, Note_on_c, 0, 76, 0
2, 717638, Note_on_c, 0, 78, 62
2, 717648, Note_on_c, 0, 56, 0
2, 717736, Note_on_c, 0, 64, 63
2, 717736, Note_on_c, 0, 61, 62
2, 717746, Note_on_c, 0, 80, 61
2, 717756, Note_on_c, 0, 78, 0
2, 717790, Note_on_c, 0, 64, 0
2, 717796, Note_on_c, 0, 61, 0
2, 717814, Note_on_c, 0, 80, 0
2, 717840, Note_on_c, 0, 76, 62
2, 717892, Note_on_c, 0, 76, 0
2, 717930, Note_on_c, 0, 73, 63
2, 717952, Note_on_c, 0, 61, 63
2, 717960, Note_on_c, 0, 64, 63
2, 718014, Note_on_c, 0, 64, 0
2, 718020, Note_on_c, 0, 61, 0
2, 718034, Note_on_c, 0, 73, 0
2, 718040, Note_on_c, 0, 75, 61
2, 718104, Note_on_c, 0, 75, 0
2, 718138, Note_on_c, 0, 76, 71
2, 718144, Note_on_c, 0, 64, 49
2, 718146, Note_on_c, 0, 61, 47
2, 718204, Note_on_c, 0, 64, 0
2, 718207, Note_on_c, 0, 76, 0
2, 718210, Note_on_c, 0, 61, 0
2, 718232, Note_on_c, 0, 73, 59
2, 718312, Note_on_c, 0, 73, 0
2, 718328, Note_on_c, 0, 56, 62
2, 718338, Note_on_c, 0, 75, 68
2, 718402, Note_on_c, 0, 75, 0
2, 718428, Note_on_c, 0, 76, 64
2, 718440, Note_on_c, 0, 56, 0
2, 718510, Note_on_c, 0, 76, 0
2, 718528, Note_on_c, 0, 66, 47
2, 718540, Note_on_c, 0, 78, 64
2, 718548, Note_on_c, 0, 63, 53
2, 718588, Note_on_c, 0, 66, 0
2, 718600, Note_on_c, 0, 63, 0
2, 718614, Note_on_c, 0, 75, 71
2, 718618, Note_on_c, 0, 78, 0
2, 718666, Note_on_c, 0, 75, 0
2, 718726, Note_on_c, 0, 72, 56
2, 718746, Note_on_c, 0, 66, 51
2, 718754, Note_on_c, 0, 63, 37
2, 718784, Note_on_c, 0, 72, 0
2, 718814, Note_on_c, 0, 73, 63
2, 718818, Note_on_c, 0, 63, 0
2, 718832, Note_on_c, 0, 66, 0
2, 718872, Note_on_c, 0, 73, 0
2, 718908, Note_on_c, 0, 75, 72
2, 718910, Note_on_c, 0, 66, 51
2, 718918, Note_on_c, 0, 63, 37
2, 718960, Note_on_c, 0, 75, 0
2, 718982, Note_on_c, 0, 63, 0
2, 718996, Note_on_c, 0, 66, 0
2, 719010, Note_on_c, 0, 72, 53
2, 719066, Note_on_c, 0, 72, 0
2, 719140, Note_on_c, 0, 73, 59
2, 719164, Note_on_c, 0, 64, 61
2, 719172, Note_on_c, 0, 61, 39
2, 719226, Control_c, 0, 64, 127
2, 719276, Note_on_c, 0, 64, 0
2, 719284, Note_on_c, 0, 73, 0
2, 719306, Note_on_c, 0, 61, 0
2, 719610, Note_on_c, 0, 85, 80
2, 719672, Control_c, 0, 64, 0
2, 719726, Note_on_c, 0, 86, 64
2, 719734, Note_on_c, 0, 85, 0
2, 719812, Note_on_c, 0, 85, 78
2, 719838, Note_on_c, 0, 86, 0
2, 719924, Note_on_c, 0, 83, 98
2, 719946, Note_on_c, 0, 85, 0
2, 720010, Note_on_c, 0, 83, 0
2, 720028, Note_on_c, 0, 81, 69
2, 720036, Note_on_c, 0, 54, 55
2, 720112, Note_on_c, 0, 81, 0
2, 720122, Note_on_c, 0, 54, 0
2, 720122, Note_on_c, 0, 83, 92
2, 720218, Note_on_c, 0, 81, 61
2, 720221, Note_on_c, 0, 61, 53
2, 720244, Note_on_c, 0, 57, 40
2, 720254, Note_on_c, 0, 83, 0
2, 720286, Note_on_c, 0, 61, 0
2, 720308, Note_on_c, 0, 57, 0
2, 720314, Note_on_c, 0, 80, 85
2, 720338, Note_on_c, 0, 81, 0
2, 720432, Note_on_c, 0, 78, 65
2, 720438, Note_on_c, 0, 57, 23
2, 720442, Note_on_c, 0, 61, 47
2, 720452, Note_on_c, 0, 80, 0
2, 720504, Note_on_c, 0, 61, 0
2, 720510, Note_on_c, 0, 57, 0
2, 720512, Note_on_c, 0, 78, 0
2, 720522, Note_on_c, 0, 81, 71
2, 720600, Note_on_c, 0, 81, 0
2, 720608, Note_on_c, 0, 80, 79
2, 720624, Note_on_c, 0, 61, 36
2, 720627, Note_on_c, 0, 57, 29
2, 720692, Note_on_c, 0, 57, 0
2, 720692, Note_on_c, 0, 61, 0
2, 720722, Note_on_c, 0, 78, 82
2, 720746, Note_on_c, 0, 80, 0
2, 720822, Note_on_c, 0, 56, 60
2, 720825, Note_on_c, 0, 78, 0
2, 720828, Note_on_c, 0, 77, 76
2, 720884, Note_on_c, 0, 77, 0
2, 720898, Note_on_c, 0, 56, 0
2, 720912, Note_on_c, 0, 78, 64
2, 721008, Note_on_c, 0, 61, 59
2, 721020, Note_on_c, 0, 80, 69
2, 721030, Note_on_c, 0, 59, 53
2, 721046, Note_on_c, 0, 78, 0
2, 721076, Note_on_c, 0, 61, 0
2, 721086, Note_on_c, 0, 59, 0
2, 721120, Note_on_c, 0, 77, 62
2, 721126, Note_on_c, 0, 80, 0
2, 721170, Note_on_c, 0, 77, 0
2, 721210, Note_on_c, 0, 73, 57
2, 721236, Note_on_c, 0, 61, 55
2, 721246, Note_on_c, 0, 59, 44
2, 721288, Note_on_c, 0, 73, 0
2, 721298, Note_on_c, 0, 61, 0
2, 721306, Note_on_c, 0, 75, 61
2, 721308, Note_on_c, 0, 59, 0
2, 721376, Note_on_c, 0, 75, 0
2, 721402, Note_on_c, 0, 59, 57
2, 721402, Note_on_c, 0, 77, 76
2, 721436, Note_on_c, 0, 61, 32
2, 721466, Note_on_c, 0, 59, 0
2, 721482, Note_on_c, 0, 77, 0
2, 721488, Note_on_c, 0, 73, 59
2, 721510, Note_on_c, 0, 61, 0
2, 721552, Note_on_c, 0, 73, 0
2, 721608, Note_on_c, 0, 54, 78
2, 721614, Note_on_c, 0, 78, 79
2, 721686, Note_on_c, 0, 54, 0
2, 721691, Note_on_c, 0, 78, 0
2, 721702, Note_on_c, 0, 77, 80
2, 721760, Note_on_c, 0, 77, 0
2, 721786, Note_on_c, 0, 61, 64
2, 721796, Note_on_c, 0, 78, 67
2, 721798, Note_on_c, 0, 57, 64
2, 721862, Note_on_c, 0, 61, 0
2, 721866, Note_on_c, 0, 57, 0
2, 721874, Note_on_c, 0, 80, 84
2, 721882, Note_on_c, 0, 78, 0
2, 721958, Note_on_c, 0, 80, 0
2, 722000, Note_on_c, 0, 81, 71
2, 722004, Note_on_c, 0, 61, 69
2, 722026, Note_on_c, 0, 57, 63
2, 722076, Note_on_c, 0, 80, 84
2, 722082, Note_on_c, 0, 57, 0
2, 722082, Note_on_c, 0, 61, 0
2, 722120, Note_on_c, 0, 81, 0
2, 722166, Note_on_c, 0, 80, 0
2, 722184, Note_on_c, 0, 81, 94
2, 722187, Note_on_c, 0, 57, 39
2, 722187, Note_on_c, 0, 61, 51
2, 722256, Note_on_c, 0, 57, 0
2, 722264, Note_on_c, 0, 61, 0
2, 722296, Note_on_c, 0, 83, 120
2, 722326, Note_on_c, 0, 81, 0
2, 722380, Note_on_c, 0, 83, 0
2, 722396, Note_on_c, 0, 53, 91
2, 722396, Note_on_c, 0, 85, 92
2, 722498, Note_on_c, 0, 84, 102
2, 722508, Note_on_c, 0, 85, 0
2, 722556, Note_on_c, 0, 53, 0
2, 722570, Note_on_c, 0, 61, 62
2, 722578, Note_on_c, 0, 56, 60
2, 722588, Note_on_c, 0, 85, 88
2, 722620, Note_on_c, 0, 84, 0
2, 722640, Note_on_c, 0, 61, 0
2, 722640, Note_on_c, 0, 56, 0
2, 722690, Note_on_c, 0, 84, 94
2, 722700, Note_on_c, 0, 85, 0
2, 722788, Note_on_c, 0, 61, 60
2, 722792, Note_on_c, 0, 85, 79
2, 722794, Note_on_c, 0, 56, 56
2, 722804, Note_on_c, 0, 84, 0
2, 722850, Note_on_c, 0, 61, 0
2, 722852, Note_on_c, 0, 56, 0
2, 722902, Note_on_c, 0, 86, 82
2, 722907, Note_on_c, 0, 85, 0
2, 722982, Note_on_c, 0, 85, 68
2, 722994, Note_on_c, 0, 61, 46
2, 723000, Note_on_c, 0, 56, 46
2, 723022, Note_on_c, 0, 86, 0
2, 723058, Note_on_c, 0, 61, 0
2, 723062, Note_on_c, 0, 56, 0
2, 723100, Note_on_c, 0, 83, 98
2, 723124, Note_on_c, 0, 85, 0
2, 723160, Note_on_c, 0, 83, 0
2, 723188, Note_on_c, 0, 54, 68
2, 723200, Note_on_c, 0, 81, 68
2, 723254, Note_on_c, 0, 81, 0
2, 723260, Note_on_c, 0, 54, 0
2, 723286, Note_on_c, 0, 83, 94
2, 723374, Note_on_c, 0, 61, 47
2, 723386, Note_on_c, 0, 57, 47
2, 723394, Note_on_c, 0, 83, 0
2, 723404, Note_on_c, 0, 81, 63
2, 723440, Note_on_c, 0, 61, 0
2, 723448, Note_on_c, 0, 57, 0
2, 723466, Note_on_c, 0, 81, 0
2, 723468, Note_on_c, 0, 80, 76
2, 723562, Note_on_c, 0, 80, 0
2, 723592, Note_on_c, 0, 78, 64
2, 723598, Note_on_c, 0, 61, 49
2, 723600, Note_on_c, 0, 57, 38
2, 723654, Note_on_c, 0, 78, 0
2, 723658, Note_on_c, 0, 61, 0
2, 723666, Note_on_c, 0, 57, 0
2, 723682, Note_on_c, 0, 81, 67
2, 723744, Note_on_c, 0, 81, 0
2, 723764, Note_on_c, 0, 80, 74
2, 723780, Note_on_c, 0, 57, 28
2, 723782, Note_on_c, 0, 61, 40
2, 723850, Note_on_c, 0, 57, 0
2, 723853, Note_on_c, 0, 61, 0
2, 723872, Note_on_c, 0, 78, 69
2, 723875, Note_on_c, 0, 80, 0
2, 723956, Note_on_c, 0, 56, 79
2, 723974, Note_on_c, 0, 78, 0
2, 723984, Note_on_c, 0, 76, 59
2, 724046, Note_on_c, 0, 76, 0
2, 724058, Note_on_c, 0, 56, 0
2, 724060, Note_on_c, 0, 78, 60
2, 724164, Note_on_c, 0, 61, 64
2, 724167, Note_on_c, 0, 80, 64
2, 724167, Note_on_c, 0, 64, 64
2, 724204, Note_on_c, 0, 78, 0
2, 724218, Note_on_c, 0, 64, 0
2, 724222, Note_on_c, 0, 61, 0
2, 724226, Note_on_c, 0, 80, 0
2, 724248, Note_on_c, 0, 76, 65
2, 724366, Note_on_c, 0, 76, 0
2, 724366, Note_on_c, 0, 73, 69
2, 724385, Note_on_c, 0, 64, 67
2, 724388, Note_on_c, 0, 61, 55
2, 724434, Note_on_c, 0, 64, 0
2, 724446, Note_on_c, 0, 61, 0
2, 724468, Note_on_c, 0, 75, 67
2, 724490, Note_on_c, 0, 73, 0
2, 724556, Note_on_c, 0, 76, 52
2, 724560, Note_on_c, 0, 75, 0
2, 724566, Note_on_c, 0, 61, 49
2, 724590, Note_on_c, 0, 64, 46
2, 724624, Note_on_c, 0, 61, 0
2, 724642, Note_on_c, 0, 64, 0
2, 724654, Note_on_c, 0, 76, 0
2, 724676, Note_on_c, 0, 73, 59
2, 724752, Note_on_c, 0, 73, 0
2, 724766, Note_on_c, 0, 56, 64
2, 724778, Note_on_c, 0, 75, 60
2, 724872, Note_on_c, 0, 76, 49
2, 724882, Note_on_c, 0, 75, 0
2, 724908, Note_on_c, 0, 56, 0
2, 724946, Note_on_c, 0, 66, 54
2, 724966, Note_on_c, 0, 63, 59
2, 724984, Note_on_c, 0, 78, 57
2, 724986, Note_on_c, 0, 76, 0
2, 725010, Note_on_c, 0, 66, 0
2, 725013, Note_on_c, 0, 63, 0
2, 725050, Note_on_c, 0, 78, 0
2, 725053, Note_on_c, 0, 75, 63
2, 725122, Note_on_c, 0, 75, 0
2, 725156, Note_on_c, 0, 66, 54
2, 725166, Note_on_c, 0, 72, 51
2, 725190, Note_on_c, 0, 63, 48
2, 725218, Note_on_c, 0, 66, 0
2, 725234, Note_on_c, 0, 72, 0
2, 725242, Note_on_c, 0, 63, 0
2, 725262, Note_on_c, 0, 73, 51
2, 725332, Note_on_c, 0, 73, 0
2, 725356, Note_on_c, 0, 63, 41
2, 725366, Note_on_c, 0, 75, 54
2, 725374, Note_on_c, 0, 66, 42
2, 725422, Note_on_c, 0, 63, 0
2, 725428, Note_on_c, 0, 75, 0
2, 725438, Note_on_c, 0, 66, 0
2, 725454, Note_on_c, 0, 72, 49
2, 725524, Note_on_c, 0, 72, 0
2, 725594, Note_on_c, 0, 73, 57
2, 725604, Note_on_c, 0, 64, 51
2, 725608, Note_on_c, 0, 61, 34
2, 725740, Control_c, 0, 64, 127
2, 725788, Note_on_c, 0, 61, 0
2, 725798, Note_on_c, 0, 64, 0
2, 725810, Note_on_c, 0, 73, 0
2, 726032, Control_c, 0, 64, 0
2, 726080, Note_on_c, 0, 76, 68
2, 726214, Note_on_c, 0, 74, 46
2, 726224, Note_on_c, 0, 76, 0
2, 726274, Note_on_c, 0, 73, 65
2, 726276, Note_on_c, 0, 74, 0
2, 726392, Note_on_c, 0, 71, 69
2, 726408, Note_on_c, 0, 73, 0
2, 726448, Note_on_c, 0, 71, 0
2, 726492, Note_on_c, 0, 69, 54
2, 726514, Note_on_c, 0, 57, 44
2, 726562, Note_on_c, 0, 69, 0
2, 726602, Note_on_c, 0, 71, 68
2, 726658, Note_on_c, 0, 57, 0
2, 726660, Note_on_c, 0, 71, 0
2, 726668, Note_on_c, 0, 73, 72
2, 726708, Note_on_c, 0, 61, 41
2, 726712, Note_on_c, 0, 64, 41
2, 726724, Note_on_c, 0, 73, 0
2, 726772, Note_on_c, 0, 64, 0
2, 726772, Note_on_c, 0, 74, 80
2, 726775, Note_on_c, 0, 61, 0
2, 726842, Note_on_c, 0, 74, 0
2, 726882, Note_on_c, 0, 76, 78
2, 726894, Note_on_c, 0, 64, 49
2, 726904, Note_on_c, 0, 61, 39
2, 726952, Note_on_c, 0, 78, 80
2, 726954, Note_on_c, 0, 76, 0
2, 726956, Note_on_c, 0, 64, 0
2, 726974, Note_on_c, 0, 61, 0
2, 727050, Note_on_c, 0, 80, 85
2, 727088, Note_on_c, 0, 61, 54
2, 727110, Note_on_c, 0, 64, 52
2, 727118, Note_on_c, 0, 78, 0
2, 727150, Note_on_c, 0, 81, 93
2, 727152, Note_on_c, 0, 61, 0
2, 727164, Note_on_c, 0, 64, 0
2, 727190, Note_on_c, 0, 80, 0
2, 727192, Note_on_c, 0, 81, 0
2, 727268, Note_on_c, 0, 81, 83
2, 727282, Note_on_c, 0, 59, 65
2, 727362, Note_on_c, 0, 59, 0
2, 727380, Note_on_c, 0, 80, 87
2, 727400, Note_on_c, 0, 81, 0
2, 727476, Note_on_c, 0, 78, 84
2, 727479, Note_on_c, 0, 64, 56
2, 727496, Note_on_c, 0, 62, 46
2, 727536, Note_on_c, 0, 64, 0
2, 727542, Note_on_c, 0, 80, 0
2, 727554, Note_on_c, 0, 62, 0
2, 727564, Note_on_c, 0, 76, 79
2, 727574, Note_on_c, 0, 78, 0
2, 727604, Note_on_c, 0, 76, 0
2, 727660, Note_on_c, 0, 76, 88
2, 727668, Note_on_c, 0, 56, 62
2, 727736, Note_on_c, 0, 56, 0
2, 727768, Note_on_c, 0, 74, 83
2, 727770, Note_on_c, 0, 76, 0
2, 727854, Note_on_c, 0, 73, 82
2, 727868, Note_on_c, 0, 64, 54
2, 727884, Note_on_c, 0, 62, 49
2, 727892, Note_on_c, 0, 74, 0
2, 727920, Note_on_c, 0, 64, 0
2, 727938, Note_on_c, 0, 62, 0
2, 727952, Note_on_c, 0, 71, 91
2, 727990, Note_on_c, 0, 73, 0
2, 728020, Note_on_c, 0, 71, 0
2, 728046, Note_on_c, 0, 57, 62
2, 728046, Note_on_c, 0, 69, 71
2, 728136, Note_on_c, 0, 69, 0
2, 728148, Note_on_c, 0, 71, 78
2, 728168, Note_on_c, 0, 57, 0
2, 728208, Note_on_c, 0, 71, 0
2, 728222, Note_on_c, 0, 73, 83
2, 728236, Note_on_c, 0, 64, 55
2, 728236, Note_on_c, 0, 61, 62
2, 728292, Note_on_c, 0, 64, 0
2, 728295, Note_on_c, 0, 61, 0
2, 728326, Note_on_c, 0, 74, 86
2, 728366, Note_on_c, 0, 74, 0
2, 728366, Note_on_c, 0, 73, 0
2, 728420, Note_on_c, 0, 76, 84
2, 728452, Note_on_c, 0, 61, 68
2, 728460, Note_on_c, 0, 64, 55
2, 728508, Note_on_c, 0, 61, 0
2, 728511, Note_on_c, 0, 78, 93
2, 728514, Note_on_c, 0, 64, 0
2, 728520, Note_on_c, 0, 76, 0
2, 728626, Note_on_c, 0, 80, 91
2, 728650, Note_on_c, 0, 78, 0
2, 728654, Note_on_c, 0, 61, 28
2, 728662, Note_on_c, 0, 64, 55
2, 728696, Note_on_c, 0, 80, 0
2, 728716, Note_on_c, 0, 64, 0
2, 728716, Note_on_c, 0, 81, 83
2, 728722, Note_on_c, 0, 61, 0
2, 728792, Note_on_c, 0, 81, 0
2, 728854, Note_on_c, 0, 82, 77
2, 728868, Note_on_c, 0, 52, 64
2, 729114, Note_on_c, 0, 52, 0
2, 729136, Note_on_c, 0, 56, 45
2, 729142, Note_on_c, 0, 82, 0
2, 729156, Note_on_c, 0, 62, 46
2, 729156, Note_on_c, 0, 83, 105
2, 729228, Note_on_c, 0, 62, 0
2, 729228, Note_on_c, 0, 56, 0
2, 729228, Control_c, 0, 64, 127
2, 729240, Note_on_c, 0, 83, 0
2, 729386, Note_on_c, 0, 76, 84
2, 729388, Note_on_c, 0, 62, 62
2, 729398, Note_on_c, 0, 56, 55
2, 729412, Control_c, 0, 64, 0
2, 729454, Note_on_c, 0, 62, 0
2, 729460, Note_on_c, 0, 56, 0
2, 729476, Note_on_c, 0, 74, 83
2, 729520, Note_on_c, 0, 76, 0
2, 729564, Note_on_c, 0, 73, 84
2, 729598, Note_on_c, 0, 74, 0
2, 729601, Note_on_c, 0, 62, 51
2, 729614, Note_on_c, 0, 56, 33
2, 729658, Note_on_c, 0, 62, 0
2, 729666, Note_on_c, 0, 71, 99
2, 729680, Note_on_c, 0, 56, 0
2, 729704, Note_on_c, 0, 73, 0
2, 729780, Note_on_c, 0, 69, 80
2, 729780, Note_on_c, 0, 57, 75
2, 729786, Note_on_c, 0, 71, 0
2, 729874, Note_on_c, 0, 71, 83
2, 729878, Note_on_c, 0, 69, 0
2, 729964, Note_on_c, 0, 64, 65
2, 729970, Note_on_c, 0, 73, 90
2, 729972, Note_on_c, 0, 61, 64
2, 729988, Note_on_c, 0, 57, 0
2, 729991, Note_on_c, 0, 71, 0
2, 730020, Note_on_c, 0, 64, 0
2, 730028, Note_on_c, 0, 61, 0
2, 730070, Note_on_c, 0, 74, 95
2, 730120, Note_on_c, 0, 74, 0
2, 730120, Note_on_c, 0, 73, 0
2, 730174, Note_on_c, 0, 76, 91
2, 730178, Note_on_c, 0, 64, 75
2, 730186, Note_on_c, 0, 61, 67
2, 730232, Note_on_c, 0, 64, 0
2, 730248, Note_on_c, 0, 61, 0
2, 730268, Note_on_c, 0, 78, 95
2, 730314, Note_on_c, 0, 76, 0
2, 730374, Note_on_c, 0, 80, 91
2, 730388, Note_on_c, 0, 61, 67
2, 730398, Note_on_c, 0, 64, 59
2, 730414, Note_on_c, 0, 78, 0
2, 730448, Note_on_c, 0, 64, 0
2, 730448, Note_on_c, 0, 61, 0
2, 730470, Note_on_c, 0, 81, 91
2, 730510, Note_on_c, 0, 81, 0
2, 730518, Note_on_c, 0, 80, 0
2, 730582, Note_on_c, 0, 81, 74
2, 730592, Note_on_c, 0, 59, 70
2, 730668, Note_on_c, 0, 59, 0
2, 730698, Note_on_c, 0, 80, 82
2, 730764, Note_on_c, 0, 81, 0
2, 730792, Note_on_c, 0, 78, 80
2, 730796, Note_on_c, 0, 64, 59
2, 730820, Note_on_c, 0, 62, 38
2, 730848, Note_on_c, 0, 64, 0
2, 730848, Note_on_c, 0, 80, 0
2, 730890, Note_on_c, 0, 62, 0
2, 730890, Note_on_c, 0, 76, 69
2, 730900, Note_on_c, 0, 78, 0
2, 730934, Note_on_c, 0, 76, 0
2, 730982, Note_on_c, 0, 56, 76
2, 730985, Note_on_c, 0, 76, 94
2, 731058, Note_on_c, 0, 56, 0
2, 731088, Note_on_c, 0, 74, 80
2, 731108, Note_on_c, 0, 76, 0
2, 731180, Note_on_c, 0, 73, 74
2, 731186, Note_on_c, 0, 62, 82
2, 731190, Note_on_c, 0, 64, 54
2, 731208, Note_on_c, 0, 74, 0
2, 731228, Note_on_c, 0, 62, 0
2, 731242, Note_on_c, 0, 64, 0
2, 731264, Note_on_c, 0, 71, 95
2, 731284, Note_on_c, 0, 73, 0
2, 731334, Note_on_c, 0, 71, 0
2, 731386, Note_on_c, 0, 73, 74
2, 731390, Note_on_c, 0, 57, 94
2, 731448, Note_on_c, 0, 57, 0
2, 731476, Note_on_c, 0, 76, 80
2, 731502, Note_on_c, 0, 73, 0
2, 731596, Note_on_c, 0, 54, 94
2, 731598, Note_on_c, 0, 69, 59
2, 731614, Note_on_c, 0, 76, 0
2, 731642, Note_on_c, 0, 54, 0
2, 731660, Note_on_c, 0, 73, 64
2, 731678, Note_on_c, 0, 69, 0
2, 731792, Note_on_c, 0, 71, 83
2, 731795, Note_on_c, 0, 50, 91
2, 731804, Note_on_c, 0, 73, 0
2, 731840, Note_on_c, 0, 50, 0
2, 731866, Note_on_c, 0, 71, 0
2, 731894, Note_on_c, 0, 74, 79
2, 731952, Note_on_c, 0, 74, 0
2, 731994, Note_on_c, 0, 68, 68
2, 732000, Note_on_c, 0, 52, 77
2, 732042, Note_on_c, 0, 52, 0
2, 732066, Note_on_c, 0, 68, 0
2, 732094, Note_on_c, 0, 71, 80
2, 732166, Note_on_c, 0, 71, 0
2, 732208, Note_on_c, 0, 45, 84
2, 732222, Note_on_c, 0, 69, 70
2, 732362, Control_c, 0, 64, 127
2, 732392, Note_on_c, 0, 45, 0
2, 732452, Note_on_c, 0, 69, 0
2, 732486, Note_on_c, 0, 57, 87
2, 732626, Note_on_c, 0, 57, 0
2, 732746, Control_c, 0, 64, 0
2, 732828, Note_on_c, 0, 85, 62
2, 732900, Note_on_c, 0, 85, 0
2, 732936, Note_on_c, 0, 86, 59
2, 733024, Note_on_c, 0, 86, 0
2, 733036, Note_on_c, 0, 85, 62
2, 733118, Note_on_c, 0, 85, 0
2, 733146, Note_on_c, 0, 83, 87
2, 733218, Note_on_c, 0, 83, 0
2, 733238, Note_on_c, 0, 54, 42
2, 733256, Note_on_c, 0, 81, 54
2, 733322, Note_on_c, 0, 81, 0
2, 733330, Note_on_c, 0, 83, 87
2, 733426, Note_on_c, 0, 81, 44
2, 733436, Note_on_c, 0, 61, 46
2, 733438, Note_on_c, 0, 83, 0
2, 733450, Note_on_c, 0, 54, 0
2, 733452, Note_on_c, 0, 57, 38
2, 733502, Note_on_c, 0, 61, 0
2, 733516, Note_on_c, 0, 57, 0
2, 733516, Note_on_c, 0, 80, 69
2, 733519, Note_on_c, 0, 81, 0
2, 733596, Note_on_c, 0, 80, 0
2, 733624, Note_on_c, 0, 57, 41
2, 733626, Note_on_c, 0, 78, 68
2, 733634, Note_on_c, 0, 61, 44
2, 733692, Note_on_c, 0, 57, 0
2, 733695, Note_on_c, 0, 78, 0
2, 733698, Note_on_c, 0, 61, 0
2, 733740, Note_on_c, 0, 81, 63
2, 733810, Note_on_c, 0, 81, 0
2, 733828, Note_on_c, 0, 80, 60
2, 733836, Note_on_c, 0, 61, 37
2, 733860, Note_on_c, 0, 57, 41
2, 733908, Note_on_c, 0, 61, 0
2, 733922, Note_on_c, 0, 57, 0
2, 733926, Note_on_c, 0, 80, 0
2, 733936, Note_on_c, 0, 78, 64
2, 733998, Note_on_c, 0, 78, 0
2, 734040, Note_on_c, 0, 56, 53
2, 734042, Note_on_c, 0, 77, 61
2, 734092, Note_on_c, 0, 77, 0
2, 734142, Note_on_c, 0, 56, 0
2, 734146, Note_on_c, 0, 78, 67
2, 734228, Note_on_c, 0, 61, 55
2, 734232, Note_on_c, 0, 78, 0
2, 734250, Note_on_c, 0, 80, 55
2, 734274, Note_on_c, 0, 59, 30
2, 734294, Note_on_c, 0, 61, 0
2, 734326, Note_on_c, 0, 80, 0
2, 734340, Note_on_c, 0, 59, 0
2, 734346, Note_on_c, 0, 77, 55
2, 734398, Note_on_c, 0, 77, 0
2, 734440, Note_on_c, 0, 73, 52
2, 734443, Note_on_c, 0, 59, 36
2, 734446, Note_on_c, 0, 61, 61
2, 734506, Note_on_c, 0, 61, 0
2, 734508, Note_on_c, 0, 73, 0
2, 734520, Note_on_c, 0, 59, 0
2, 734532, Note_on_c, 0, 75, 60
2, 734602, Note_on_c, 0, 75, 0
2, 734638, Note_on_c, 0, 59, 49
2, 734638, Note_on_c, 0, 77, 71
2, 734646, Note_on_c, 0, 61, 44
2, 734690, Note_on_c, 0, 77, 0
2, 734692, Note_on_c, 0, 59, 0
2, 734708, Note_on_c, 0, 61, 0
2, 734718, Note_on_c, 0, 73, 70
2, 734772, Note_on_c, 0, 73, 0
2, 734828, Note_on_c, 0, 54, 79
2, 734828, Note_on_c, 0, 78, 79
2, 734904, Note_on_c, 0, 78, 0
2, 734928, Note_on_c, 0, 54, 0
2, 734928, Note_on_c, 0, 77, 80
2, 734976, Note_on_c, 0, 77, 0
2, 734996, Note_on_c, 0, 61, 63
2, 735022, Note_on_c, 0, 78, 67
2, 735022, Note_on_c, 0, 57, 60
2, 735064, Note_on_c, 0, 61, 0
2, 735082, Note_on_c, 0, 57, 0
2, 735106, Note_on_c, 0, 78, 0
2, 735108, Note_on_c, 0, 80, 80
2, 735166, Note_on_c, 0, 80, 0
2, 735216, Note_on_c, 0, 81, 70
2, 735220, Note_on_c, 0, 61, 68
2, 735248, Note_on_c, 0, 57, 54
2, 735292, Note_on_c, 0, 61, 0
2, 735304, Note_on_c, 0, 57, 0
2, 735304, Note_on_c, 0, 80, 86
2, 735342, Note_on_c, 0, 81, 0
2, 735388, Note_on_c, 0, 80, 0
2, 735410, Note_on_c, 0, 81, 80
2, 735422, Note_on_c, 0, 61, 53
2, 735422, Note_on_c, 0, 57, 29
2, 735480, Note_on_c, 0, 57, 0
2, 735484, Note_on_c, 0, 61, 0
2, 735522, Note_on_c, 0, 83, 107
2, 735536, Note_on_c, 0, 81, 0
2, 735572, Note_on_c, 0, 83, 0
2, 735612, Note_on_c, 0, 49, 77
2, 735620, Note_on_c, 0, 85, 80
2, 735692, Note_on_c, 0, 85, 0
2, 735716, Note_on_c, 0, 84, 97
2, 735728, Note_on_c, 0, 49, 0
2, 735796, Note_on_c, 0, 61, 63
2, 735806, Note_on_c, 0, 84, 0
2, 735809, Note_on_c, 0, 56, 62
2, 735824, Note_on_c, 0, 85, 93
2, 735866, Note_on_c, 0, 61, 0
2, 735874, Note_on_c, 0, 56, 0
2, 735910, Note_on_c, 0, 84, 80
2, 735928, Note_on_c, 0, 85, 0
2, 736016, Note_on_c, 0, 85, 86
2, 736024, Note_on_c, 0, 55, 64
2, 736026, Note_on_c, 0, 61, 53
2, 736040, Note_on_c, 0, 84, 0
2, 736084, Note_on_c, 0, 55, 0
2, 736087, Note_on_c, 0, 61, 0
2, 736114, Note_on_c, 0, 85, 0
2, 736114, Note_on_c, 0, 84, 108
2, 736204, Note_on_c, 0, 84, 0
2, 736220, Note_on_c, 0, 85, 74
2, 736228, Note_on_c, 0, 61, 53
2, 736232, Note_on_c, 0, 54, 65
2, 736280, Note_on_c, 0, 54, 0
2, 736286, Note_on_c, 0, 61, 0
2, 736314, Note_on_c, 0, 82, 80
2, 736322, Note_on_c, 0, 85, 0
2, 736362, Note_on_c, 0, 82, 0
2, 736408, Note_on_c, 0, 86, 101
2, 736424, Note_on_c, 0, 47, 75
2, 736508, Note_on_c, 0, 47, 0
2, 736512, Note_on_c, 0, 85, 90
2, 736518, Note_on_c, 0, 86, 0
2, 736594, Note_on_c, 0, 85, 0
2, 736610, Note_on_c, 0, 86, 94
2, 736620, Note_on_c, 0, 59, 67
2, 736623, Note_on_c, 0, 54, 76
2, 736674, Note_on_c, 0, 59, 0
2, 736677, Note_on_c, 0, 54, 0
2, 736722, Note_on_c, 0, 85, 93
2, 736728, Note_on_c, 0, 86, 0
2, 736798, Note_on_c, 0, 85, 0
2, 736808, Note_on_c, 0, 86, 90
2, 736836, Note_on_c, 0, 54, 70
2, 736836, Note_on_c, 0, 59, 67
2, 736884, Note_on_c, 0, 59, 0
2, 736887, Note_on_c, 0, 54, 0
2, 736920, Note_on_c, 0, 85, 90
2, 736922, Note_on_c, 0, 86, 0
2, 737008, Note_on_c, 0, 85, 0
2, 737008, Note_on_c, 0, 86, 85
2, 737032, Note_on_c, 0, 59, 45
2, 737036, Note_on_c, 0, 54, 69
2, 737084, Note_on_c, 0, 54, 0
2, 737084, Note_on_c, 0, 59, 0
2, 737120, Note_on_c, 0, 85, 87
2, 737134, Note_on_c, 0, 86, 0
2, 737218, Note_on_c, 0, 85, 0
2, 737230, Note_on_c, 0, 47, 80
2, 737235, Note_on_c, 0, 86, 78
2, 737328, Note_on_c, 0, 85, 67
2, 737340, Note_on_c, 0, 47, 0
2, 737340, Control_c, 0, 64, 127
2, 737370, Note_on_c, 0, 86, 0
2, 737372, Control_c, 0, 64, 0
2, 737406, Note_on_c, 0, 83, 116
2, 737432, Note_on_c, 0, 59, 62
2, 737432, Note_on_c, 0, 56, 68
2, 737446, Note_on_c, 0, 85, 0
2, 737464, Note_on_c, 0, 83, 0
2, 737492, Note_on_c, 0, 59, 0
2, 737492, Note_on_c, 0, 56, 0
2, 737528, Note_on_c, 0, 81, 68
2, 737590, Note_on_c, 0, 81, 0
2, 737622, Note_on_c, 0, 80, 82
2, 737642, Note_on_c, 0, 56, 63
2, 737646, Note_on_c, 0, 59, 61
2, 737700, Note_on_c, 0, 59, 0
2, 737703, Note_on_c, 0, 56, 0
2, 737734, Note_on_c, 0, 80, 0
2, 737734, Note_on_c, 0, 81, 85
2, 737808, Note_on_c, 0, 81, 0
2, 737832, Note_on_c, 0, 83, 97
2, 737850, Note_on_c, 0, 59, 53
2, 737880, Note_on_c, 0, 56, 32
2, 737904, Note_on_c, 0, 59, 0
2, 737908, Note_on_c, 0, 83, 0
2, 737930, Note_on_c, 0, 80, 82
2, 737948, Note_on_c, 0, 56, 0
2, 737992, Note_on_c, 0, 80, 0
2, 738018, Note_on_c, 0, 49, 76
2, 738034, Note_on_c, 0, 81, 79
2, 738084, Note_on_c, 0, 49, 0
2, 738154, Note_on_c, 0, 83, 91
2, 738196, Note_on_c, 0, 81, 0
2, 738222, Note_on_c, 0, 83, 0
2, 738222, Note_on_c, 0, 85, 77
2, 738225, Note_on_c, 0, 57, 57
2, 738242, Note_on_c, 0, 54, 54
2, 738290, Note_on_c, 0, 57, 0
2, 738300, Note_on_c, 0, 54, 0
2, 738324, Note_on_c, 0, 78, 61
2, 738360, Note_on_c, 0, 85, 0
2, 738390, Note_on_c, 0, 78, 0
2, 738420, Note_on_c, 0, 49, 63
2, 738432, Note_on_c, 0, 77, 62
2, 738486, Note_on_c, 0, 77, 0
2, 738486, Note_on_c, 0, 49, 0
2, 738556, Note_on_c, 0, 78, 38
2, 738626, Note_on_c, 0, 59, 51
2, 738628, Note_on_c, 0, 78, 0
2, 738628, Note_on_c, 0, 56, 39
2, 738630, Note_on_c, 0, 80, 62
2, 738696, Note_on_c, 0, 56, 0
2, 738698, Note_on_c, 0, 80, 0
2, 738700, Note_on_c, 0, 59, 0
2, 738738, Note_on_c, 0, 77, 54
2, 738796, Note_on_c, 0, 77, 0
2, 738870, Note_on_c, 0, 78, 65
2, 738890, Note_on_c, 0, 57, 32
2, 738890, Note_on_c, 0, 54, 30
2, 739046, Control_c, 0, 64, 127
2, 739084, Note_on_c, 0, 57, 0
2, 739084, Note_on_c, 0, 78, 0
2, 739120, Note_on_c, 0, 54, 0
2, 739344, Note_on_c, 0, 76, 72
2, 739400, Control_c, 0, 64, 0
2, 739448, Note_on_c, 0, 74, 87
2, 739482, Note_on_c, 0, 76, 0
2, 739548, Note_on_c, 0, 73, 84
2, 739590, Note_on_c, 0, 74, 0
2, 739646, Note_on_c, 0, 71, 90
2, 739694, Note_on_c, 0, 73, 0
2, 739762, Note_on_c, 0, 69, 83
2, 739768, Note_on_c, 0, 71, 0
2, 739770, Note_on_c, 0, 57, 69
2, 739862, Note_on_c, 0, 71, 79
2, 739888, Note_on_c, 0, 69, 0
2, 739962, Note_on_c, 0, 73, 84
2, 739968, Note_on_c, 0, 61, 61
2, 739974, Note_on_c, 0, 64, 59
2, 739992, Note_on_c, 0, 71, 0
2, 740030, Note_on_c, 0, 61, 0
2, 740030, Note_on_c, 0, 64, 0
2, 740048, Note_on_c, 0, 57, 0
2, 740060, Note_on_c, 0, 74, 88
2, 740100, Note_on_c, 0, 73, 0
2, 740103, Note_on_c, 0, 74, 0
2, 740168, Note_on_c, 0, 76, 92
2, 740184, Note_on_c, 0, 61, 67
2, 740196, Note_on_c, 0, 64, 63
2, 740244, Note_on_c, 0, 64, 0
2, 740248, Note_on_c, 0, 61, 0
2, 740260, Note_on_c, 0, 78, 99
2, 740294, Note_on_c, 0, 76, 0
2, 740378, Note_on_c, 0, 80, 92
2, 740394, Note_on_c, 0, 61, 67
2, 740402, Note_on_c, 0, 64, 40
2, 740410, Note_on_c, 0, 78, 0
2, 740450, Note_on_c, 0, 61, 0
2, 740458, Note_on_c, 0, 64, 0
2, 740474, Note_on_c, 0, 81, 88
2, 740508, Note_on_c, 0, 80, 0
2, 740514, Note_on_c, 0, 81, 0
2, 740584, Note_on_c, 0, 81, 71
2, 740602, Note_on_c, 0, 59, 69
2, 740682, Note_on_c, 0, 59, 0
2, 740696, Note_on_c, 0, 80, 86
2, 740762, Note_on_c, 0, 81, 0
2, 740796, Note_on_c, 0, 78, 72
2, 740806, Note_on_c, 0, 64, 59
2, 740828, Note_on_c, 0, 62, 44
2, 740858, Note_on_c, 0, 64, 0
2, 740861, Note_on_c, 0, 80, 0
2, 740882, Note_on_c, 0, 76, 65
2, 740892, Note_on_c, 0, 62, 0
2, 740894, Note_on_c, 0, 78, 0
2, 740928, Note_on_c, 0, 76, 0
2, 740980, Note_on_c, 0, 76, 94
2, 740986, Note_on_c, 0, 56, 72
2, 741062, Note_on_c, 0, 56, 0
2, 741094, Note_on_c, 0, 74, 83
2, 741104, Note_on_c, 0, 76, 0
2, 741176, Note_on_c, 0, 73, 68
2, 741180, Note_on_c, 0, 64, 71
2, 741186, Note_on_c, 0, 62, 72
2, 741198, Note_on_c, 0, 74, 0
2, 741224, Note_on_c, 0, 64, 0
2, 741230, Note_on_c, 0, 62, 0
2, 741268, Note_on_c, 0, 71, 84
2, 741310, Note_on_c, 0, 73, 0
2, 741372, Note_on_c, 0, 71, 0
2, 741382, Note_on_c, 0, 69, 84
2, 741394, Note_on_c, 0, 57, 78
2, 741484, Note_on_c, 0, 71, 79
2, 741496, Note_on_c, 0, 69, 0
2, 741562, Note_on_c, 0, 71, 0
2, 741562, Note_on_c, 0, 64, 69
2, 741570, Note_on_c, 0, 73, 77
2, 741588, Note_on_c, 0, 61, 61
2, 741612, Note_on_c, 0, 57, 0
2, 741618, Note_on_c, 0, 64, 0
2, 741642, Note_on_c, 0, 61, 0
2, 741670, Note_on_c, 0, 74, 88
2, 741694, Note_on_c, 0, 73, 0
2, 741708, Note_on_c, 0, 74, 0
2, 741774, Note_on_c, 0, 76, 84
2, 741774, Note_on_c, 0, 64, 72
2, 741782, Note_on_c, 0, 61, 63
2, 741830, Note_on_c, 0, 64, 0
2, 741836, Note_on_c, 0, 61, 0
2, 741864, Note_on_c, 0, 78, 93
2, 741902, Note_on_c, 0, 76, 0
2, 741984, Note_on_c, 0, 80, 87
2, 741996, Note_on_c, 0, 78, 0
2, 741998, Note_on_c, 0, 64, 57
2, 742004, Note_on_c, 0, 61, 59
2, 742046, Note_on_c, 0, 80, 0
2, 742050, Note_on_c, 0, 64, 0
2, 742062, Note_on_c, 0, 61, 0
2, 742074, Note_on_c, 0, 81, 88
2, 742158, Note_on_c, 0, 81, 0
2, 742210, Note_on_c, 0, 82, 87
2, 742226, Note_on_c, 0, 52, 67
2, 742474, Note_on_c, 0, 52, 0
2, 742498, Note_on_c, 0, 56, 47
2, 742512, Note_on_c, 0, 62, 53
2, 742520, Note_on_c, 0, 83, 102
2, 742532, Note_on_c, 0, 82, 0
2, 742588, Note_on_c, 0, 62, 0
2, 742598, Note_on_c, 0, 56, 0
2, 742646, Note_on_c, 0, 83, 0
2, 742658, Control_c, 0, 64, 127
2, 742762, Note_on_c, 0, 76, 95
2, 742768, Note_on_c, 0, 62, 57
2, 742780, Control_c, 0, 64, 0
2, 742790, Note_on_c, 0, 56, 37
2, 742826, Note_on_c, 0, 62, 0
2, 742856, Note_on_c, 0, 74, 92
2, 742862, Note_on_c, 0, 56, 0
2, 742880, Note_on_c, 0, 76, 0
2, 742946, Note_on_c, 0, 73, 82
2, 742949, Note_on_c, 0, 56, 52
2, 742964, Note_on_c, 0, 74, 0
2, 742982, Note_on_c, 0, 62, 38
2, 743004, Note_on_c, 0, 56, 0
2, 743042, Note_on_c, 0, 71, 94
2, 743048, Note_on_c, 0, 62, 0
2, 743082, Note_on_c, 0, 73, 0
2, 743156, Note_on_c, 0, 69, 86
2, 743158, Note_on_c, 0, 57, 90
2, 743168, Note_on_c, 0, 71, 0
2, 743272, Note_on_c, 0, 71, 85
2, 743296, Note_on_c, 0, 69, 0
2, 743362, Note_on_c, 0, 57, 0
2, 743368, Note_on_c, 0, 73, 84
2, 743370, Note_on_c, 0, 61, 74
2, 743376, Note_on_c, 0, 64, 63
2, 743378, Note_on_c, 0, 71, 0
2, 743428, Note_on_c, 0, 64, 0
2, 743432, Note_on_c, 0, 61, 0
2, 743470, Note_on_c, 0, 74, 91
2, 743518, Note_on_c, 0, 74, 0
2, 743522, Note_on_c, 0, 73, 0
2, 743576, Note_on_c, 0, 76, 98
2, 743594, Note_on_c, 0, 61, 64
2, 743597, Note_on_c, 0, 64, 70
2, 743644, Note_on_c, 0, 64, 0
2, 743650, Note_on_c, 0, 61, 0
2, 743672, Note_on_c, 0, 78, 99
2, 743708, Note_on_c, 0, 76, 0
2, 743786, Note_on_c, 0, 80, 92
2, 743802, Note_on_c, 0, 61, 71
2, 743814, Note_on_c, 0, 78, 0
2, 743822, Note_on_c, 0, 64, 55
2, 743852, Note_on_c, 0, 61, 0
2, 743872, Note_on_c, 0, 64, 0
2, 743886, Note_on_c, 0, 81, 94
2, 743926, Note_on_c, 0, 81, 0
2, 743932, Note_on_c, 0, 80, 0
2, 744008, Note_on_c, 0, 59, 80
2, 744010, Note_on_c, 0, 81, 69
2, 744070, Note_on_c, 0, 59, 0
2, 744124, Note_on_c, 0, 80, 72
2, 744180, Note_on_c, 0, 81, 0
2, 744210, Note_on_c, 0, 64, 71
2, 744210, Note_on_c, 0, 78, 75
2, 744222, Note_on_c, 0, 62, 64
2, 744262, Note_on_c, 0, 64, 0
2, 744270, Note_on_c, 0, 80, 0
2, 744270, Note_on_c, 0, 62, 0
2, 744308, Note_on_c, 0, 76, 67
2, 744322, Note_on_c, 0, 78, 0
2, 744352, Note_on_c, 0, 76, 0
2, 744406, Note_on_c, 0, 76, 97
2, 744412, Note_on_c, 0, 56, 78
2, 744478, Note_on_c, 0, 56, 0
2, 744520, Note_on_c, 0, 74, 84
2, 744572, Note_on_c, 0, 76, 0
2, 744604, Note_on_c, 0, 73, 76
2, 744604, Note_on_c, 0, 64, 68
2, 744607, Note_on_c, 0, 62, 80
2, 744650, Note_on_c, 0, 62, 0
2, 744650, Note_on_c, 0, 74, 0
2, 744652, Note_on_c, 0, 64, 0
2, 744692, Note_on_c, 0, 71, 95
2, 744714, Note_on_c, 0, 73, 0
2, 744760, Note_on_c, 0, 71, 0
2, 744814, Note_on_c, 0, 57, 98
2, 744817, Note_on_c, 0, 73, 71
2, 744876, Note_on_c, 0, 57, 0
2, 744908, Note_on_c, 0, 76, 78
2, 744948, Note_on_c, 0, 73, 0
2, 745026, Note_on_c, 0, 69, 67
2, 745026, Note_on_c, 0, 54, 101
2, 745038, Note_on_c, 0, 76, 0
2, 745068, Note_on_c, 0, 54, 0
2, 745104, Note_on_c, 0, 73, 62
2, 745112, Note_on_c, 0, 69, 0
2, 745222, Note_on_c, 0, 71, 92
2, 745236, Note_on_c, 0, 50, 94
2, 745244, Note_on_c, 0, 73, 0
2, 745278, Note_on_c, 0, 50, 0
2, 745336, Note_on_c, 0, 74, 87
2, 745352, Note_on_c, 0, 71, 0
2, 745414, Note_on_c, 0, 74, 0
2, 745444, Note_on_c, 0, 52, 101
2, 745447, Note_on_c, 0, 68, 75
2, 745478, Note_on_c, 0, 52, 0
2, 745548, Note_on_c, 0, 71, 90
2, 745560, Note_on_c, 0, 68, 0
2, 745658, Note_on_c, 0, 71, 0
2, 745664, Note_on_c, 0, 45, 86
2, 745676, Note_on_c, 0, 69, 86
2, 745838, Control_c, 0, 64, 127
2, 745858, Note_on_c, 0, 45, 0
2, 745914, Note_on_c, 0, 69, 0
2, 745972, Note_on_c, 0, 57, 94
2, 746068, Note_on_c, 0, 57, 0
2, 746252, Control_c, 0, 64, 0
2, 746318, Note_on_c, 0, 85, 76
2, 746426, Note_on_c, 0, 86, 75
2, 746438, Note_on_c, 0, 85, 0
2, 746516, Note_on_c, 0, 85, 62
2, 746570, Note_on_c, 0, 86, 0
2, 746644, Note_on_c, 0, 83, 87
2, 746652, Note_on_c, 0, 85, 0
2, 746720, Note_on_c, 0, 54, 61
2, 746736, Note_on_c, 0, 83, 0
2, 746756, Note_on_c, 0, 81, 55
2, 746798, Note_on_c, 0, 54, 0
2, 746810, Note_on_c, 0, 81, 0
2, 746832, Note_on_c, 0, 83, 90
2, 746938, Note_on_c, 0, 61, 49
2, 746941, Note_on_c, 0, 81, 48
2, 746948, Note_on_c, 0, 83, 0
2, 746950, Note_on_c, 0, 57, 45
2, 747002, Note_on_c, 0, 61, 0
2, 747012, Note_on_c, 0, 57, 0
2, 747028, Note_on_c, 0, 81, 0
2, 747032, Note_on_c, 0, 80, 69
2, 747108, Note_on_c, 0, 80, 0
2, 747136, Note_on_c, 0, 78, 71
2, 747156, Note_on_c, 0, 61, 45
2, 747172, Note_on_c, 0, 57, 23
2, 747196, Note_on_c, 0, 78, 0
2, 747220, Note_on_c, 0, 61, 0
2, 747242, Note_on_c, 0, 81, 61
2, 747245, Note_on_c, 0, 57, 0
2, 747308, Note_on_c, 0, 81, 0
2, 747320, Note_on_c, 0, 61, 38
2, 747322, Note_on_c, 0, 57, 54
2, 747328, Note_on_c, 0, 80, 63
2, 747390, Note_on_c, 0, 57, 0
2, 747390, Note_on_c, 0, 61, 0
2, 747418, Note_on_c, 0, 80, 0
2, 747430, Note_on_c, 0, 78, 60
2, 747514, Note_on_c, 0, 78, 0
2, 747548, Note_on_c, 0, 77, 63
2, 747560, Note_on_c, 0, 56, 52
2, 747600, Note_on_c, 0, 77, 0
2, 747642, Note_on_c, 0, 56, 0
2, 747642, Note_on_c, 0, 78, 48
2, 747734, Note_on_c, 0, 80, 60
2, 747737, Note_on_c, 0, 61, 45
2, 747750, Note_on_c, 0, 78, 0
2, 747766, Note_on_c, 0, 59, 49
2, 747804, Note_on_c, 0, 61, 0
2, 747818, Note_on_c, 0, 59, 0
2, 747840, Note_on_c, 0, 77, 52
2, 747854, Note_on_c, 0, 80, 0
2, 747890, Note_on_c, 0, 77, 0
2, 747932, Note_on_c, 0, 73, 54
2, 747954, Note_on_c, 0, 61, 59
2, 747996, Note_on_c, 0, 59, 22
2, 748008, Note_on_c, 0, 73, 0
2, 748016, Note_on_c, 0, 61, 0
2, 748036, Note_on_c, 0, 75, 55
2, 748066, Note_on_c, 0, 59, 0
2, 748102, Note_on_c, 0, 75, 0
2, 748140, Note_on_c, 0, 59, 69
2, 748148, Note_on_c, 0, 77, 75
2, 748162, Note_on_c, 0, 61, 48
2, 748190, Note_on_c, 0, 59, 0
2, 748200, Note_on_c, 0, 77, 0
2, 748218, Note_on_c, 0, 73, 67
2, 748226, Note_on_c, 0, 61, 0
2, 748280, Note_on_c, 0, 73, 0
2, 748336, Note_on_c, 0, 78, 76
2, 748339, Note_on_c, 0, 54, 75
2, 748420, Note_on_c, 0, 54, 0
2, 748428, Note_on_c, 0, 78, 0
2, 748430, Note_on_c, 0, 77, 82
2, 748480, Note_on_c, 0, 77, 0
2, 748516, Note_on_c, 0, 61, 61
2, 748530, Note_on_c, 0, 78, 57
2, 748536, Note_on_c, 0, 57, 55
2, 748588, Note_on_c, 0, 61, 0
2, 748594, Note_on_c, 0, 57, 0
2, 748610, Note_on_c, 0, 80, 78
2, 748620, Note_on_c, 0, 78, 0
2, 748666, Note_on_c, 0, 80, 0
2, 748718, Note_on_c, 0, 81, 68
2, 748736, Note_on_c, 0, 61, 68
2, 748762, Note_on_c, 0, 57, 60
2, 748810, Note_on_c, 0, 80, 78
2, 748812, Note_on_c, 0, 61, 0
2, 748814, Note_on_c, 0, 57, 0
2, 748822, Note_on_c, 0, 81, 0
2, 748868, Note_on_c, 0, 80, 0
2, 748908, Note_on_c, 0, 81, 67
2, 748934, Note_on_c, 0, 61, 53
2, 748940, Note_on_c, 0, 57, 36
2, 748996, Note_on_c, 0, 57, 0
2, 748996, Note_on_c, 0, 61, 0
2, 749016, Note_on_c, 0, 83, 108
2, 749040, Note_on_c, 0, 81, 0
2, 749068, Note_on_c, 0, 83, 0
2, 749116, Note_on_c, 0, 49, 85
2, 749119, Note_on_c, 0, 85, 84
2, 749176, Note_on_c, 0, 49, 0
2, 749188, Note_on_c, 0, 85, 0
2, 749228, Note_on_c, 0, 84, 93
2, 749294, Note_on_c, 0, 61, 74
2, 749310, Note_on_c, 0, 84, 0
2, 749320, Note_on_c, 0, 56, 63
2, 749328, Note_on_c, 0, 85, 83
2, 749360, Note_on_c, 0, 61, 0
2, 749376, Note_on_c, 0, 56, 0
2, 749422, Note_on_c, 0, 85, 0
2, 749434, Note_on_c, 0, 84, 79
2, 749502, Note_on_c, 0, 84, 0
2, 749514, Note_on_c, 0, 61, 64
2, 749538, Note_on_c, 0, 55, 64
2, 749538, Note_on_c, 0, 85, 76
2, 749592, Note_on_c, 0, 55, 0
2, 749602, Note_on_c, 0, 61, 0
2, 749624, Note_on_c, 0, 85, 0
2, 749632, Note_on_c, 0, 84, 75
2, 749686, Note_on_c, 0, 84, 0
2, 749740, Note_on_c, 0, 85, 80
2, 749748, Note_on_c, 0, 61, 64
2, 749764, Note_on_c, 0, 54, 49
2, 749800, Note_on_c, 0, 61, 0
2, 749828, Note_on_c, 0, 54, 0
2, 749844, Note_on_c, 0, 82, 74
2, 749854, Note_on_c, 0, 85, 0
2, 749904, Note_on_c, 0, 82, 0
2, 749956, Note_on_c, 0, 86, 91
2, 749968, Note_on_c, 0, 47, 69
2, 750050, Note_on_c, 0, 86, 0
2, 750066, Note_on_c, 0, 47, 0
2, 750066, Note_on_c, 0, 85, 79
2, 750150, Note_on_c, 0, 85, 0
2, 750168, Note_on_c, 0, 54, 72
2, 750171, Note_on_c, 0, 59, 52
2, 750178, Note_on_c, 0, 86, 94
2, 750220, Note_on_c, 0, 54, 0
2, 750226, Note_on_c, 0, 59, 0
2, 750238, Note_on_c, 0, 86, 0
2, 750272, Note_on_c, 0, 85, 78
2, 750364, Note_on_c, 0, 85, 0
2, 750370, Note_on_c, 0, 86, 102
2, 750382, Note_on_c, 0, 54, 72
2, 750384, Note_on_c, 0, 59, 68
2, 750432, Note_on_c, 0, 59, 0
2, 750434, Note_on_c, 0, 54, 0
2, 750464, Note_on_c, 0, 86, 0
2, 750474, Note_on_c, 0, 85, 75
2, 750568, Note_on_c, 0, 85, 0
2, 750576, Note_on_c, 0, 86, 100
2, 750586, Note_on_c, 0, 54, 92
2, 750594, Note_on_c, 0, 59, 71
2, 750628, Note_on_c, 0, 54, 0
2, 750640, Note_on_c, 0, 59, 0
2, 750686, Note_on_c, 0, 85, 88
2, 750692, Note_on_c, 0, 86, 0
2, 750756, Note_on_c, 0, 85, 0
2, 750790, Note_on_c, 0, 86, 95
2, 750794, Note_on_c, 0, 47, 92
2, 750892, Note_on_c, 0, 47, 0
2, 750904, Note_on_c, 0, 85, 83
2, 750938, Note_on_c, 0, 86, 0
2, 750982, Note_on_c, 0, 59, 70
2, 750994, Note_on_c, 0, 83, 116
2, 751000, Note_on_c, 0, 56, 71
2, 751038, Note_on_c, 0, 85, 0
2, 751054, Note_on_c, 0, 59, 0
2, 751060, Note_on_c, 0, 56, 0
2, 751088, Note_on_c, 0, 83, 0
2, 751096, Note_on_c, 0, 81, 85
2, 751202, Note_on_c, 0, 80, 91
2, 751206, Note_on_c, 0, 81, 0
2, 751212, Note_on_c, 0, 59, 71
2, 751212, Note_on_c, 0, 56, 65
2, 751270, Note_on_c, 0, 56, 0
2, 751270, Note_on_c, 0, 59, 0
2, 751318, Note_on_c, 0, 81, 71
2, 751334, Note_on_c, 0, 80, 0
2, 751420, Note_on_c, 0, 83, 103
2, 751422, Note_on_c, 0, 56, 63
2, 751428, Note_on_c, 0, 81, 0
2, 751432, Note_on_c, 0, 59, 60
2, 751480, Note_on_c, 0, 56, 0
2, 751484, Note_on_c, 0, 59, 0
2, 751518, Note_on_c, 0, 83, 0
2, 751518, Note_on_c, 0, 80, 84
2, 751590, Note_on_c, 0, 80, 0
2, 751632, Note_on_c, 0, 81, 83
2, 751634, Note_on_c, 0, 49, 78
2, 751684, Note_on_c, 0, 49, 0
2, 751750, Note_on_c, 0, 83, 93
2, 751776, Note_on_c, 0, 81, 0
2, 751812, Note_on_c, 0, 83, 0
2, 751828, Note_on_c, 0, 85, 74
2, 751834, Note_on_c, 0, 57, 56
2, 751848, Note_on_c, 0, 54, 68
2, 751898, Note_on_c, 0, 54, 0
2, 751900, Note_on_c, 0, 57, 0
2, 751928, Note_on_c, 0, 78, 69
2, 751931, Note_on_c, 0, 85, 0
2, 751998, Note_on_c, 0, 78, 0
2, 752032, Note_on_c, 0, 49, 71
2, 752046, Note_on_c, 0, 77, 60
2, 752088, Note_on_c, 0, 49, 0
2, 752102, Note_on_c, 0, 77, 0
2, 752148, Note_on_c, 0, 78, 60
2, 752222, Note_on_c, 0, 78, 0
2, 752232, Note_on_c, 0, 59, 53
2, 752242, Note_on_c, 0, 56, 41
2, 752256, Note_on_c, 0, 80, 63
2, 752290, Note_on_c, 0, 59, 0
2, 752310, Note_on_c, 0, 56, 0
2, 752318, Note_on_c, 0, 80, 0
2, 752392, Note_on_c, 0, 77, 52
2, 752458, Note_on_c, 0, 77, 0
2, 752518, Note_on_c, 0, 57, 30
2, 752526, Note_on_c, 0, 54, 37
2, 752530, Note_on_c, 0, 78, 60
2, 752782, Control_c, 0, 64, 127
2, 752934, Note_on_c, 0, 57, 0
2, 753006, Note_on_c, 0, 54, 0
2, 753026, Note_on_c, 0, 81, 94
2, 753030, Control_c, 0, 64, 0
2, 753034, Note_on_c, 0, 69, 64
2, 753048, Note_on_c, 0, 78, 0
2, 753088, Note_on_c, 0, 69, 0
2, 753100, Note_on_c, 0, 81, 0
2, 753246, Note_on_c, 0, 83, 125
2, 753256, Note_on_c, 0, 71, 84
2, 753280, Note_on_c, 0, 83, 0
2, 753304, Note_on_c, 0, 71, 0
2, 753510, Note_on_c, 0, 45, 98
2, 753512, Note_on_c, 0, 85, 124
2, 753514, Note_on_c, 0, 49, 92
2, 753516, Note_on_c, 0, 73, 114
2, 753516, Note_on_c, 0, 57, 106
2, 753520, Control_c, 0, 64, 127
2, 753526, Note_on_c, 0, 52, 88
2, 753558, Note_on_c, 0, 45, 0
2, 753594, Note_on_c, 0, 52, 0
2, 753596, Note_on_c, 0, 49, 0
2, 753634, Note_on_c, 0, 57, 0
2, 753668, Note_on_c, 0, 85, 0
2, 753704, Note_on_c, 0, 73, 0
2, 753744, Note_on_c, 0, 57, 63
2, 753810, Note_on_c, 0, 57, 0
2, 753936, Control_c, 0, 64, 0
2, 753946, Note_on_c, 0, 69, 92
2, 753948, Note_on_c, 0, 81, 113
2, 753960, Note_on_c, 0, 57, 94
2, 754008, Note_on_c, 0, 69, 0
2, 754048, Note_on_c, 0, 57, 0
2, 754060, Note_on_c, 0, 81, 0
2, 754168, Note_on_c, 0, 83, 127
2, 754172, Note_on_c, 0, 71, 101
2, 754188, Note_on_c, 0, 57, 75
2, 754206, Note_on_c, 0, 83, 0
2, 754212, Note_on_c, 0, 71, 0
2, 754238, Note_on_c, 0, 57, 0
2, 754388, Note_on_c, 0, 45, 87
2, 754400, Note_on_c, 0, 85, 121
2, 754402, Note_on_c, 0, 73, 114
2, 754404, Note_on_c, 0, 49, 84
2, 754408, Note_on_c, 0, 52, 94
2, 754420, Note_on_c, 0, 57, 106
2, 754426, Control_c, 0, 64, 127
2, 754462, Note_on_c, 0, 45, 0
2, 754476, Note_on_c, 0, 52, 0
2, 754476, Note_on_c, 0, 49, 0
2, 754494, Note_on_c, 0, 85, 0
2, 754504, Note_on_c, 0, 73, 0
2, 754524, Note_on_c, 0, 57, 0
2, 754596, Control_c, 0, 64, 0
2, 754622, Note_on_c, 0, 83, 121
2, 754624, Note_on_c, 0, 57, 60
2, 754627, Note_on_c, 0, 71, 108
2, 754664, Note_on_c, 0, 83, 0
2, 754666, Note_on_c, 0, 71, 0
2, 754706, Note_on_c, 0, 57, 0
2, 754828, Note_on_c, 0, 81, 115
2, 754834, Note_on_c, 0, 69, 90
2, 754848, Note_on_c, 0, 57, 74
2, 754878, Note_on_c, 0, 81, 0
2, 754888, Note_on_c, 0, 69, 0
2, 754906, Note_on_c, 0, 57, 0
2, 755044, Note_on_c, 0, 68, 93
2, 755046, Note_on_c, 0, 80, 101
2, 755050, Note_on_c, 0, 57, 91
2, 755090, Note_on_c, 0, 57, 0
2, 755090, Note_on_c, 0, 80, 0
2, 755098, Note_on_c, 0, 68, 0
2, 755262, Note_on_c, 0, 38, 106
2, 755266, Note_on_c, 0, 42, 100
2, 755270, Note_on_c, 0, 45, 97
2, 755272, Note_on_c, 0, 66, 106
2, 755274, Note_on_c, 0, 78, 113
2, 755276, Note_on_c, 0, 50, 121
2, 755302, Note_on_c, 0, 38, 0
2, 755352, Note_on_c, 0, 45, 0
2, 755360, Note_on_c, 0, 66, 0
2, 755362, Note_on_c, 0, 78, 0
2, 755364, Control_c, 0, 64, 127
2, 755372, Note_on_c, 0, 42, 0
2, 755394, Note_on_c, 0, 50, 0
2, 755426, Control_c, 0, 64, 0
2, 755488, Note_on_c, 0, 80, 103
2, 755488, Note_on_c, 0, 68, 91
2, 755496, Note_on_c, 0, 50, 77
2, 755538, Note_on_c, 0, 68, 0
2, 755558, Note_on_c, 0, 50, 0
2, 755558, Note_on_c, 0, 80, 0
2, 755656, Note_on_c, 0, 39, 108
2, 755680, Note_on_c, 0, 45, 90
2, 755680, Note_on_c, 0, 42, 93
2, 755702, Note_on_c, 0, 39, 0
2, 755705, Note_on_c, 0, 81, 121
2, 755714, Note_on_c, 0, 69, 94
2, 755720, Note_on_c, 0, 51, 121
2, 755738, Note_on_c, 0, 42, 0
2, 755748, Note_on_c, 0, 81, 0
2, 755758, Note_on_c, 0, 69, 0
2, 755764, Control_c, 0, 64, 127
2, 755778, Note_on_c, 0, 45, 0
2, 755818, Note_on_c, 0, 51, 0
2, 755826, Control_c, 0, 64, 0
2, 755918, Note_on_c, 0, 83, 127
2, 755918, Note_on_c, 0, 51, 90
2, 755921, Note_on_c, 0, 71, 105
2, 755954, Note_on_c, 0, 83, 0
2, 755966, Note_on_c, 0, 71, 0
2, 756014, Note_on_c, 0, 51, 0
2, 756078, Note_on_c, 0, 40, 121
2, 756094, Note_on_c, 0, 44, 100
2, 756124, Note_on_c, 0, 47, 94
2, 756128, Note_on_c, 0, 80, 116
2, 756128, Note_on_c, 0, 68, 106
2, 756150, Note_on_c, 0, 52, 127
2, 756178, Note_on_c, 0, 40, 0
2, 756178, Control_c, 0, 64, 127
2, 756188, Note_on_c, 0, 44, 0
2, 756206, Note_on_c, 0, 80, 0
2, 756214, Note_on_c, 0, 47, 0
2, 756228, Note_on_c, 0, 68, 0
2, 756238, Note_on_c, 0, 52, 0
2, 756332, Control_c, 0, 64, 0
2, 756350, Note_on_c, 0, 76, 108
2, 756354, Note_on_c, 0, 64, 107
2, 756360, Note_on_c, 0, 52, 100
2, 756388, Note_on_c, 0, 64, 0
2, 756388, Note_on_c, 0, 76, 0
2, 756398, Note_on_c, 0, 52, 0
2, 756552, Note_on_c, 0, 81, 120
2, 756555, Note_on_c, 0, 69, 91
2, 756558, Note_on_c, 0, 52, 108
2, 756588, Note_on_c, 0, 81, 0
2, 756600, Note_on_c, 0, 52, 0
2, 756602, Note_on_c, 0, 69, 0
2, 756760, Note_on_c, 0, 83, 127
2, 756765, Note_on_c, 0, 52, 105
2, 756770, Note_on_c, 0, 71, 105
2, 756808, Note_on_c, 0, 71, 0
2, 756808, Note_on_c, 0, 52, 0
2, 756832, Note_on_c, 0, 83, 0
2, 756930, Note_on_c, 0, 45, 105
2, 756976, Note_on_c, 0, 52, 97
2, 756984, Note_on_c, 0, 50, 77
2, 757006, Note_on_c, 0, 85, 123
2, 757010, Note_on_c, 0, 73, 115
2, 757016, Note_on_c, 0, 57, 121
2, 757025, Control_c, 0, 64, 127
2, 757032, Note_on_c, 0, 50, 0
2, 757034, Note_on_c, 0, 45, 0
2, 757072, Note_on_c, 0, 52, 0
2, 757100, Note_on_c, 0, 57, 0
2, 757184, Note_on_c, 0, 85, 0
2, 757242, Note_on_c, 0, 57, 101
2, 757245, Note_on_c, 0, 73, 0
2, 757282, Note_on_c, 0, 57, 0
2, 757284, Control_c, 0, 64, 0
2, 757420, Note_on_c, 0, 69, 94
2, 757424, Note_on_c, 0, 81, 110
2, 757434, Note_on_c, 0, 57, 95
2, 757480, Note_on_c, 0, 57, 0
2, 757482, Note_on_c, 0, 69, 0
2, 757520, Note_on_c, 0, 81, 0
2, 757630, Note_on_c, 0, 57, 90
2, 757630, Note_on_c, 0, 83, 127
2, 757633, Note_on_c, 0, 71, 107
2, 757672, Note_on_c, 0, 71, 0
2, 757672, Note_on_c, 0, 83, 0
2, 757692, Note_on_c, 0, 57, 0
2, 757760, Note_on_c, 0, 45, 100
2, 757792, Note_on_c, 0, 49, 101
2, 757842, Note_on_c, 0, 52, 110
2, 757850, Note_on_c, 0, 85, 116
2, 757852, Note_on_c, 0, 73, 106
2, 757876, Note_on_c, 0, 57, 117
2, 757884, Control_c, 0, 64, 127
2, 757896, Note_on_c, 0, 45, 0
2, 757920, Note_on_c, 0, 49, 0
2, 757924, Note_on_c, 0, 52, 0
2, 757944, Note_on_c, 0, 85, 0
2, 757954, Note_on_c, 0, 73, 0
2, 757998, Note_on_c, 0, 57, 0
2, 758022, Control_c, 0, 64, 0
2, 758058, Note_on_c, 0, 83, 127
2, 758060, Note_on_c, 0, 71, 113
2, 758068, Note_on_c, 0, 57, 69
2, 758112, Note_on_c, 0, 71, 0
2, 758117, Note_on_c, 0, 83, 0
2, 758158, Note_on_c, 0, 57, 0
2, 758256, Note_on_c, 0, 57, 74
2, 758262, Note_on_c, 0, 81, 116
2, 758264, Note_on_c, 0, 69, 93
2, 758304, Note_on_c, 0, 81, 0
2, 758318, Note_on_c, 0, 69, 0
2, 758332, Note_on_c, 0, 57, 0
2, 758464, Note_on_c, 0, 57, 90
2, 758472, Note_on_c, 0, 68, 97
2, 758474, Note_on_c, 0, 80, 106
2, 758504, Note_on_c, 0, 57, 0
2, 758512, Note_on_c, 0, 80, 0
2, 758522, Note_on_c, 0, 68, 0
2, 758634, Note_on_c, 0, 38, 113
2, 758636, Control_c, 0, 64, 127
2, 758656, Note_on_c, 0, 42, 90
2, 758659, Note_on_c, 0, 45, 77
2, 758678, Note_on_c, 0, 38, 0
2, 758678, Note_on_c, 0, 66, 99
2, 758681, Note_on_c, 0, 78, 109
2, 758698, Note_on_c, 0, 50, 118
2, 758728, Note_on_c, 0, 66, 0
2, 758754, Note_on_c, 0, 78, 0
2, 758757, Note_on_c, 0, 45, 0
2, 758764, Note_on_c, 0, 42, 0
2, 758776, Control_c, 0, 64, 0
2, 758792, Note_on_c, 0, 50, 0
2, 758876, Note_on_c, 0, 83, 127
2, 758878, Note_on_c, 0, 50, 84
2, 758881, Note_on_c, 0, 71, 108
2, 758906, Note_on_c, 0, 83, 0
2, 758924, Note_on_c, 0, 71, 0
2, 758978, Note_on_c, 0, 50, 0
2, 759036, Note_on_c, 0, 40, 113
2, 759054, Note_on_c, 0, 44, 84
2, 759076, Note_on_c, 0, 47, 78
2, 759080, Note_on_c, 0, 68, 101
2, 759082, Note_on_c, 0, 80, 105
2, 759084, Note_on_c, 0, 40, 0
2, 759118, Note_on_c, 0, 52, 116
2, 759121, Note_on_c, 0, 80, 0
2, 759128, Note_on_c, 0, 68, 0
2, 759170, Note_on_c, 0, 44, 0
2, 759176, Note_on_c, 0, 47, 0
2, 759190, Note_on_c, 0, 52, 0
2, 759284, Note_on_c, 0, 76, 111
2, 759292, Note_on_c, 0, 64, 94
2, 759295, Note_on_c, 0, 52, 99
2, 759320, Note_on_c, 0, 76, 0
2, 759330, Note_on_c, 0, 64, 0
2, 759372, Note_on_c, 0, 52, 0
2, 759512, Note_on_c, 0, 81, 123
2, 759514, Control_c, 0, 64, 127
2, 759516, Note_on_c, 0, 69, 102
2, 759524, Note_on_c, 0, 45, 102
2, 759562, Note_on_c, 0, 45, 0
2, 759724, Note_on_c, 0, 69, 0
2, 759764, Note_on_c, 0, 81, 0
2, 759912, Control_c, 0, 64, 0
2, 759934, Note_on_c, 0, 81, 117
2, 759938, Note_on_c, 0, 69, 93
2, 759988, Note_on_c, 0, 69, 0
2, 760024, Note_on_c, 0, 81, 0
2, 760150, Note_on_c, 0, 83, 127
2, 760150, Note_on_c, 0, 71, 110
2, 760184, Note_on_c, 0, 83, 0
2, 760188, Note_on_c, 0, 71, 0
2, 760312, Control_c, 0, 64, 127
2, 760382, Note_on_c, 0, 45, 114
2, 760398, Note_on_c, 0, 49, 93
2, 760416, Note_on_c, 0, 52, 101
2, 760426, Note_on_c, 0, 85, 122
2, 760430, Note_on_c, 0, 73, 117
2, 760446, Note_on_c, 0, 57, 118
2, 760484, Note_on_c, 0, 45, 0
2, 760494, Note_on_c, 0, 49, 0
2, 760514, Note_on_c, 0, 52, 0
2, 760554, Note_on_c, 0, 57, 0
2, 760558, Note_on_c, 0, 85, 0
2, 760610, Note_on_c, 0, 73, 0
2, 760666, Note_on_c, 0, 57, 64
2, 760746, Note_on_c, 0, 57, 0
2, 760836, Note_on_c, 0, 69, 88
2, 760839, Note_on_c, 0, 81, 110
2, 760878, Note_on_c, 0, 57, 92
2, 760896, Control_c, 0, 64, 0
2, 760900, Note_on_c, 0, 69, 0
2, 760926, Note_on_c, 0, 57, 0
2, 760948, Note_on_c, 0, 81, 0
2, 761050, Note_on_c, 0, 83, 127
2, 761054, Note_on_c, 0, 71, 93
2, 761070, Note_on_c, 0, 57, 83
2, 761086, Note_on_c, 0, 83, 0
2, 761098, Note_on_c, 0, 71, 0
2, 761124, Note_on_c, 0, 57, 0
2, 761214, Note_on_c, 0, 45, 91
2, 761238, Note_on_c, 0, 49, 95
2, 761260, Note_on_c, 0, 52, 100
2, 761280, Control_c, 0, 64, 127
2, 761280, Note_on_c, 0, 73, 111
2, 761282, Note_on_c, 0, 85, 116
2, 761308, Note_on_c, 0, 57, 118
2, 761326, Note_on_c, 0, 45, 0
2, 761362, Note_on_c, 0, 49, 0
2, 761366, Note_on_c, 0, 85, 0
2, 761370, Note_on_c, 0, 73, 0
2, 761376, Note_on_c, 0, 52, 0
2, 761428, Note_on_c, 0, 57, 0
2, 761496, Note_on_c, 0, 83, 127
2, 761500, Note_on_c, 0, 71, 111
2, 761504, Note_on_c, 0, 57, 70
2, 761526, Control_c, 0, 64, 0
2, 761544, Note_on_c, 0, 83, 0
2, 761547, Note_on_c, 0, 71, 0
2, 761566, Note_on_c, 0, 57, 0
2, 761690, Note_on_c, 0, 81, 120
2, 761692, Note_on_c, 0, 69, 99
2, 761704, Note_on_c, 0, 57, 87
2, 761746, Note_on_c, 0, 81, 0
2, 761748, Note_on_c, 0, 57, 0
2, 761764, Note_on_c, 0, 69, 0
2, 761890, Note_on_c, 0, 68, 99
2, 761894, Note_on_c, 0, 80, 103
2, 761900, Note_on_c, 0, 57, 88
2, 761940, Note_on_c, 0, 80, 0
2, 761942, Note_on_c, 0, 57, 0
2, 761960, Note_on_c, 0, 68, 0
2, 762076, Note_on_c, 0, 38, 124
2, 762096, Note_on_c, 0, 45, 91
2, 762098, Note_on_c, 0, 42, 98
2, 762110, Note_on_c, 0, 66, 101
2, 762112, Note_on_c, 0, 78, 107
2, 762142, Note_on_c, 0, 50, 125
2, 762164, Note_on_c, 0, 38, 0
2, 762170, Control_c, 0, 64, 127
2, 762196, Note_on_c, 0, 66, 0
2, 762206, Note_on_c, 0, 45, 0
2, 762212, Note_on_c, 0, 78, 0
2, 762218, Note_on_c, 0, 42, 0
2, 762248, Control_c, 0, 64, 0
2, 762251, Note_on_c, 0, 50, 0
2, 762324, Note_on_c, 0, 68, 86
2, 762326, Note_on_c, 0, 80, 100
2, 762332, Note_on_c, 0, 50, 87
2, 762378, Note_on_c, 0, 68, 0
2, 762392, Note_on_c, 0, 50, 0
2, 762414, Note_on_c, 0, 80, 0
2, 762456, Note_on_c, 0, 39, 103
2, 762492, Note_on_c, 0, 42, 99
2, 762512, Note_on_c, 0, 45, 91
2, 762524, Note_on_c, 0, 81, 118
2, 762524, Note_on_c, 0, 69, 94
2, 762556, Note_on_c, 0, 51, 120
2, 762568, Note_on_c, 0, 39, 0
2, 762574, Note_on_c, 0, 69, 0
2, 762586, Control_c, 0, 64, 127
2, 762590, Note_on_c, 0, 42, 0
2, 762596, Note_on_c, 0, 81, 0
2, 762604, Note_on_c, 0, 45, 0
2, 762664, Note_on_c, 0, 51, 0
2, 762678, Control_c, 0, 64, 0
2, 762720, Note_on_c, 0, 83, 127
2, 762722, Note_on_c, 0, 71, 114
2, 762739, Note_on_c, 0, 51, 94
2, 762768, Note_on_c, 0, 83, 0
2, 762776, Note_on_c, 0, 71, 0
2, 762842, Note_on_c, 0, 51, 0
2, 762862, Note_on_c, 0, 40, 120
2, 762890, Note_on_c, 0, 44, 94
2, 762930, Note_on_c, 0, 68, 109
2, 762934, Note_on_c, 0, 80, 114
2, 762938, Note_on_c, 0, 47, 83
2, 762964, Note_on_c, 0, 52, 127
2, 762970, Note_on_c, 0, 40, 0
2, 762986, Control_c, 0, 64, 127
2, 763018, Note_on_c, 0, 44, 0
2, 763030, Note_on_c, 0, 47, 0
2, 763036, Note_on_c, 0, 68, 0
2, 763044, Note_on_c, 0, 80, 0
2, 763082, Note_on_c, 0, 52, 0
2, 763138, Note_on_c, 0, 76, 110
2, 763146, Note_on_c, 0, 64, 88
2, 763146, Note_on_c, 0, 52, 109
2, 763178, Note_on_c, 0, 76, 0
2, 763188, Note_on_c, 0, 64, 0
2, 763216, Control_c, 0, 64, 0
2, 763226, Note_on_c, 0, 52, 0
2, 763332, Note_on_c, 0, 81, 121
2, 763338, Note_on_c, 0, 52, 108
2, 763338, Note_on_c, 0, 69, 92
2, 763386, Note_on_c, 0, 69, 0
2, 763420, Note_on_c, 0, 52, 0
2, 763430, Note_on_c, 0, 81, 0
2, 763542, Note_on_c, 0, 52, 107
2, 763545, Note_on_c, 0, 71, 110
2, 763545, Note_on_c, 0, 83, 127
2, 763582, Note_on_c, 0, 71, 0
2, 763584, Note_on_c, 0, 83, 0
2, 763606, Note_on_c, 0, 52, 0
2, 763696, Note_on_c, 0, 45, 99
2, 763714, Note_on_c, 0, 49, 101
2, 763738, Control_c, 0, 64, 127
2, 763752, Note_on_c, 0, 52, 103
2, 763780, Note_on_c, 0, 85, 122
2, 763780, Note_on_c, 0, 73, 116
2, 763792, Note_on_c, 0, 57, 120
2, 763806, Note_on_c, 0, 45, 0
2, 763838, Note_on_c, 0, 49, 0
2, 763860, Note_on_c, 0, 52, 0
2, 763894, Note_on_c, 0, 57, 0
2, 763938, Note_on_c, 0, 85, 0
2, 763998, Note_on_c, 0, 73, 0
2, 764022, Note_on_c, 0, 57, 84
2, 764072, Note_on_c, 0, 57, 0
2, 764192, Note_on_c, 0, 69, 98
2, 764195, Note_on_c, 0, 81, 110
2, 764208, Note_on_c, 0, 57, 90
2, 764230, Control_c, 0, 64, 0
2, 764264, Note_on_c, 0, 69, 0
2, 764267, Note_on_c, 0, 57, 0
2, 764280, Note_on_c, 0, 81, 0
2, 764406, Note_on_c, 0, 57, 95
2, 764406, Note_on_c, 0, 83, 127
2, 764409, Note_on_c, 0, 71, 110
2, 764446, Note_on_c, 0, 71, 0
2, 764460, Note_on_c, 0, 83, 0
2, 764460, Note_on_c, 0, 57, 0
2, 764534, Note_on_c, 0, 45, 97
2, 764564, Note_on_c, 0, 49, 90
2, 764608, Note_on_c, 0, 52, 101
2, 764630, Note_on_c, 0, 85, 111
2, 764632, Note_on_c, 0, 73, 110
2, 764644, Note_on_c, 0, 45, 0
2, 764644, Note_on_c, 0, 57, 120
2, 764644, Control_c, 0, 64, 127
2, 764682, Note_on_c, 0, 49, 0
2, 764690, Note_on_c, 0, 52, 0
2, 764726, Note_on_c, 0, 85, 0
2, 764732, Note_on_c, 0, 73, 0
2, 764766, Note_on_c, 0, 57, 0
2, 764838, Note_on_c, 0, 83, 127
2, 764844, Note_on_c, 0, 71, 107
2, 764846, Control_c, 0, 64, 0
2, 764860, Note_on_c, 0, 57, 53
2, 764886, Note_on_c, 0, 71, 0
2, 764890, Note_on_c, 0, 83, 0
2, 764924, Note_on_c, 0, 57, 0
2, 765028, Note_on_c, 0, 57, 70
2, 765028, Note_on_c, 0, 81, 117
2, 765031, Note_on_c, 0, 69, 92
2, 765078, Note_on_c, 0, 71, 31
2, 765090, Note_on_c, 0, 57, 0
2, 765102, Note_on_c, 0, 69, 0
2, 765104, Note_on_c, 0, 81, 0
2, 765134, Note_on_c, 0, 71, 0
2, 765218, Note_on_c, 0, 57, 90
2, 765232, Note_on_c, 0, 68, 100
2, 765234, Note_on_c, 0, 80, 108
2, 765258, Note_on_c, 0, 57, 0
2, 765296, Note_on_c, 0, 68, 0
2, 765306, Note_on_c, 0, 80, 0
2, 765390, Note_on_c, 0, 38, 111
2, 765404, Note_on_c, 0, 42, 92
2, 765412, Control_c, 0, 64, 127
2, 765420, Note_on_c, 0, 45, 71
2, 765436, Note_on_c, 0, 38, 0
2, 765438, Note_on_c, 0, 66, 95
2, 765440, Note_on_c, 0, 78, 107
2, 765460, Note_on_c, 0, 50, 121
2, 765486, Note_on_c, 0, 66, 0
2, 765506, Note_on_c, 0, 42, 0
2, 765528, Note_on_c, 0, 78, 0
2, 765534, Note_on_c, 0, 45, 0
2, 765550, Control_c, 0, 64, 0
2, 765566, Note_on_c, 0, 50, 0
2, 765628, Note_on_c, 0, 50, 102
2, 765631, Note_on_c, 0, 83, 127
2, 765650, Note_on_c, 0, 71, 59
2, 765664, Note_on_c, 0, 83, 0
2, 765704, Note_on_c, 0, 50, 0
2, 765716, Note_on_c, 0, 71, 0
2, 765790, Note_on_c, 0, 40, 101
2, 765796, Note_on_c, 0, 44, 78
2, 765820, Note_on_c, 0, 47, 51
2, 765830, Note_on_c, 0, 68, 100
2, 765832, Note_on_c, 0, 80, 105
2, 765834, Note_on_c, 0, 40, 0
2, 765858, Note_on_c, 0, 52, 113
2, 765870, Note_on_c, 0, 80, 0
2, 765874, Note_on_c, 0, 68, 0
2, 765908, Note_on_c, 0, 44, 0
2, 765911, Note_on_c, 0, 47, 0
2, 765914, Note_on_c, 0, 52, 0
2, 766020, Note_on_c, 0, 76, 109
2, 766028, Note_on_c, 0, 64, 84
2, 766036, Note_on_c, 0, 52, 94
2, 766056, Note_on_c, 0, 76, 0
2, 766070, Note_on_c, 0, 64, 0
2, 766088, Note_on_c, 0, 52, 0
2, 766276, Note_on_c, 0, 45, 97
2, 766282, Note_on_c, 0, 81, 120
2, 766288, Note_on_c, 0, 69, 102
2, 766318, Note_on_c, 0, 45, 0
2, 766318, Control_c, 0, 64, 127
2, 766366, Note_on_c, 0, 81, 0
2, 766444, Note_on_c, 0, 69, 0
2, 766780, Control_c, 0, 64, 0
2, 766966, Note_on_c, 0, 71, 45
2, 767038, Note_on_c, 0, 71, 0
2, 767054, Note_on_c, 0, 69, 48
2, 767124, Note_on_c, 0, 69, 0
2, 767140, Note_on_c, 0, 68, 68
2, 767210, Note_on_c, 0, 68, 0
2, 767252, Note_on_c, 0, 69, 53
2, 767362, Note_on_c, 0, 57, 46
2, 767378, Note_on_c, 0, 72, 80
2, 767382, Note_on_c, 0, 69, 0
2, 767528, Note_on_c, 0, 57, 0
2, 767560, Note_on_c, 0, 72, 0
2, 767586, Note_on_c, 0, 64, 44
2, 767602, Note_on_c, 0, 60, 30
2, 767644, Note_on_c, 0, 64, 0
2, 767676, Note_on_c, 0, 60, 0
2, 767774, Note_on_c, 0, 60, 36
2, 767777, Note_on_c, 0, 74, 71
2, 767802, Note_on_c, 0, 64, 32
2, 767842, Note_on_c, 0, 74, 0
2, 767842, Note_on_c, 0, 60, 0
2, 767860, Note_on_c, 0, 72, 56
2, 767866, Note_on_c, 0, 64, 0
2, 767936, Note_on_c, 0, 72, 0
2, 767956, Note_on_c, 0, 71, 69
2, 767960, Note_on_c, 0, 64, 48
2, 767992, Note_on_c, 0, 60, 17
2, 768016, Note_on_c, 0, 71, 0
2, 768020, Note_on_c, 0, 64, 0
2, 768054, Note_on_c, 0, 72, 55
2, 768076, Note_on_c, 0, 60, 0
2, 768140, Note_on_c, 0, 72, 0
2, 768176, Note_on_c, 0, 76, 61
2, 768194, Note_on_c, 0, 57, 31
2, 768276, Note_on_c, 0, 57, 0
2, 768378, Note_on_c, 0, 64, 47
2, 768381, Note_on_c, 0, 76, 0
2, 768384, Note_on_c, 0, 60, 38
2, 768437, Note_on_c, 0, 64, 0
2, 768456, Note_on_c, 0, 60, 0
2, 768576, Note_on_c, 0, 77, 72
2, 768598, Note_on_c, 0, 60, 30
2, 768604, Note_on_c, 0, 64, 36
2, 768632, Note_on_c, 0, 77, 0
2, 768658, Note_on_c, 0, 76, 64
2, 768666, Note_on_c, 0, 64, 0
2, 768680, Note_on_c, 0, 60, 0
2, 768722, Note_on_c, 0, 76, 0
2, 768752, Note_on_c, 0, 75, 78
2, 768766, Note_on_c, 0, 64, 42
2, 768776, Note_on_c, 0, 60, 47
2, 768828, Note_on_c, 0, 64, 0
2, 768830, Note_on_c, 0, 75, 0
2, 768842, Note_on_c, 0, 60, 0
2, 768868, Note_on_c, 0, 76, 78
2, 768928, Note_on_c, 0, 76, 0
2, 768978, Note_on_c, 0, 83, 116
2, 768980, Note_on_c, 0, 57, 53
2, 769044, Note_on_c, 0, 57, 0
2, 769068, Note_on_c, 0, 81, 86
2, 769104, Note_on_c, 0, 83, 0
2, 769160, Note_on_c, 0, 81, 0
2, 769166, Note_on_c, 0, 80, 82
2, 769178, Note_on_c, 0, 64, 51
2, 769184, Note_on_c, 0, 60, 48
2, 769234, Note_on_c, 0, 64, 0
2, 769246, Note_on_c, 0, 60, 0
2, 769276, Note_on_c, 0, 81, 72
2, 769306, Note_on_c, 0, 80, 0
2, 769340, Note_on_c, 0, 81, 0
2, 769368, Note_on_c, 0, 83, 107
2, 769378, Note_on_c, 0, 57, 54
2, 769438, Note_on_c, 0, 57, 0
2, 769472, Note_on_c, 0, 81, 74
2, 769482, Note_on_c, 0, 83, 0
2, 769542, Note_on_c, 0, 81, 0
2, 769556, Note_on_c, 0, 80, 78
2, 769604, Note_on_c, 0, 64, 22
2, 769612, Note_on_c, 0, 60, 15
2, 769664, Note_on_c, 0, 60, 0
2, 769667, Note_on_c, 0, 81, 74
2, 769671, Note_on_c, 0, 64, 0
2, 769686, Note_on_c, 0, 80, 0
2, 769760, Note_on_c, 0, 81, 0
2, 769786, Note_on_c, 0, 84, 83
2, 769794, Note_on_c, 0, 57, 41
2, 769914, Note_on_c, 0, 57, 0
2, 769984, Note_on_c, 0, 64, 42
2, 770000, Note_on_c, 0, 60, 34
2, 770006, Control_c, 0, 64, 127
2, 770048, Note_on_c, 0, 64, 0
2, 770076, Note_on_c, 0, 60, 0
2, 770130, Control_c, 0, 64, 0
2, 770146, Note_on_c, 0, 84, 0
2, 770194, Note_on_c, 0, 60, 38
2, 770208, Note_on_c, 0, 81, 59
2, 770220, Note_on_c, 0, 64, 32
2, 770258, Note_on_c, 0, 60, 0
2, 770264, Note_on_c, 0, 81, 0
2, 770282, Note_on_c, 0, 64, 0
2, 770404, Note_on_c, 0, 84, 75
2, 770404, Note_on_c, 0, 64, 36
2, 770414, Note_on_c, 0, 60, 46
2, 770446, Note_on_c, 0, 84, 0
2, 770468, Note_on_c, 0, 64, 0
2, 770482, Note_on_c, 0, 60, 0
2, 770568, Note_on_c, 0, 79, 72
2, 770586, Note_on_c, 0, 81, 63
2, 770610, Note_on_c, 0, 52, 91
2, 770616, Note_on_c, 0, 83, 111
2, 770636, Note_on_c, 0, 79, 0
2, 770642, Note_on_c, 0, 81, 0
2, 770658, Note_on_c, 0, 83, 0
2, 770662, Note_on_c, 0, 52, 0
2, 770790, Note_on_c, 0, 78, 68
2, 770798, Note_on_c, 0, 81, 65
2, 770804, Note_on_c, 0, 64, 63
2, 770820, Note_on_c, 0, 59, 45
2, 770842, Note_on_c, 0, 78, 0
2, 770858, Note_on_c, 0, 81, 0
2, 770858, Note_on_c, 0, 64, 0
2, 770876, Note_on_c, 0, 59, 0
2, 771004, Note_on_c, 0, 79, 82
2, 771010, Note_on_c, 0, 76, 46
2, 771026, Note_on_c, 0, 64, 57
2, 771052, Note_on_c, 0, 79, 0
2, 771060, Note_on_c, 0, 59, 26
2, 771068, Note_on_c, 0, 76, 0
2, 771078, Note_on_c, 0, 64, 0
2, 771126, Note_on_c, 0, 59, 0
2, 771200, Note_on_c, 0, 78, 71
2, 771206, Note_on_c, 0, 59, 60
2, 771210, Note_on_c, 0, 81, 71
2, 771212, Note_on_c, 0, 64, 37
2, 771248, Note_on_c, 0, 78, 0
2, 771254, Note_on_c, 0, 81, 0
2, 771258, Note_on_c, 0, 59, 0
2, 771270, Note_on_c, 0, 64, 0
2, 771380, Note_on_c, 0, 79, 80
2, 771386, Note_on_c, 0, 81, 62
2, 771410, Note_on_c, 0, 52, 84
2, 771438, Note_on_c, 0, 83, 116
2, 771456, Note_on_c, 0, 79, 0
2, 771459, Note_on_c, 0, 52, 0
2, 771486, Note_on_c, 0, 81, 0
2, 771486, Note_on_c, 0, 83, 0
2, 771602, Note_on_c, 0, 78, 71
2, 771616, Note_on_c, 0, 81, 63
2, 771622, Note_on_c, 0, 64, 48
2, 771626, Note_on_c, 0, 59, 51
2, 771658, Note_on_c, 0, 78, 0
2, 771670, Note_on_c, 0, 81, 0
2, 771680, Note_on_c, 0, 64, 0
2, 771682, Note_on_c, 0, 59, 0
2, 771808, Note_on_c, 0, 79, 92
2, 771812, Note_on_c, 0, 76, 59
2, 771826, Note_on_c, 0, 64, 53
2, 771838, Note_on_c, 0, 59, 49
2, 771856, Note_on_c, 0, 79, 0
2, 771866, Note_on_c, 0, 76, 0
2, 771882, Note_on_c, 0, 64, 0
2, 771890, Note_on_c, 0, 59, 0
2, 772000, Note_on_c, 0, 78, 88
2, 772010, Note_on_c, 0, 64, 42
2, 772020, Note_on_c, 0, 81, 78
2, 772023, Note_on_c, 0, 59, 41
2, 772064, Note_on_c, 0, 78, 0
2, 772066, Note_on_c, 0, 81, 0
2, 772070, Note_on_c, 0, 64, 0
2, 772080, Note_on_c, 0, 59, 0
2, 772172, Note_on_c, 0, 79, 102
2, 772198, Note_on_c, 0, 52, 87
2, 772220, Note_on_c, 0, 81, 94
2, 772244, Note_on_c, 0, 52, 0
2, 772292, Note_on_c, 0, 83, 92
2, 772300, Note_on_c, 0, 79, 0
2, 772304, Note_on_c, 0, 81, 0
2, 772336, Note_on_c, 0, 83, 0
2, 772400, Note_on_c, 0, 78, 76
2, 772410, Note_on_c, 0, 64, 54
2, 772410, Note_on_c, 0, 81, 62
2, 772412, Note_on_c, 0, 59, 68
2, 772460, Note_on_c, 0, 59, 0
2, 772460, Note_on_c, 0, 64, 0
2, 772464, Note_on_c, 0, 81, 0
2, 772468, Note_on_c, 0, 78, 0
2, 772604, Note_on_c, 0, 47, 87
2, 772606, Note_on_c, 0, 76, 15
2, 772610, Note_on_c, 0, 79, 76
2, 772650, Note_on_c, 0, 47, 0
2, 772654, Note_on_c, 0, 76, 0
2, 772658, Note_on_c, 0, 79, 0
2, 772796, Note_on_c, 0, 75, 55
2, 772798, Note_on_c, 0, 78, 62
2, 772808, Note_on_c, 0, 59, 60
2, 772850, Note_on_c, 0, 75, 0
2, 772858, Note_on_c, 0, 59, 0
2, 772860, Note_on_c, 0, 78, 0
2, 773022, Note_on_c, 0, 76, 55
2, 773062, Note_on_c, 0, 52, 44
2, 773130, Note_on_c, 0, 52, 0
2, 773156, Control_c, 0, 64, 127
2, 773166, Note_on_c, 0, 76, 0
2, 773602, Control_c, 0, 64, 0
2, 773670, Note_on_c, 0, 71, 53
2, 773712, Note_on_c, 0, 69, 64
2, 773724, Note_on_c, 0, 71, 0
2, 773776, Note_on_c, 0, 69, 0
2, 773822, Note_on_c, 0, 68, 64
2, 773890, Note_on_c, 0, 68, 0
2, 773912, Note_on_c, 0, 69, 60
2, 774026, Note_on_c, 0, 69, 0
2, 774048, Note_on_c, 0, 72, 67
2, 774050, Note_on_c, 0, 57, 40
2, 774142, Note_on_c, 0, 57, 0
2, 774224, Note_on_c, 0, 72, 0
2, 774250, Note_on_c, 0, 64, 48
2, 774256, Note_on_c, 0, 60, 39
2, 774306, Note_on_c, 0, 64, 0
2, 774328, Note_on_c, 0, 60, 0
2, 774436, Note_on_c, 0, 74, 74
2, 774454, Note_on_c, 0, 60, 37
2, 774468, Note_on_c, 0, 64, 40
2, 774494, Note_on_c, 0, 74, 0
2, 774522, Note_on_c, 0, 60, 0
2, 774528, Note_on_c, 0, 64, 0
2, 774536, Note_on_c, 0, 72, 52
2, 774596, Note_on_c, 0, 72, 0
2, 774618, Note_on_c, 0, 71, 77
2, 774626, Note_on_c, 0, 60, 41
2, 774629, Note_on_c, 0, 64, 45
2, 774680, Note_on_c, 0, 71, 0
2, 774696, Note_on_c, 0, 64, 0
2, 774698, Note_on_c, 0, 60, 0
2, 774714, Note_on_c, 0, 72, 52
2, 774820, Note_on_c, 0, 72, 0
2, 774824, Note_on_c, 0, 76, 91
2, 774836, Note_on_c, 0, 57, 56
2, 774912, Note_on_c, 0, 57, 0
2, 774981, Note_on_c, 0, 76, 0
2, 775020, Note_on_c, 0, 64, 64
2, 775034, Note_on_c, 0, 60, 56
2, 775076, Note_on_c, 0, 64, 0
2, 775092, Note_on_c, 0, 60, 0
2, 775212, Note_on_c, 0, 77, 99
2, 775236, Note_on_c, 0, 64, 64
2, 775262, Note_on_c, 0, 60, 46
2, 775288, Note_on_c, 0, 64, 0
2, 775304, Note_on_c, 0, 76, 83
2, 775320, Note_on_c, 0, 77, 0
2, 775332, Note_on_c, 0, 60, 0
2, 775396, Note_on_c, 0, 75, 87
2, 775418, Note_on_c, 0, 76, 0
2, 775418, Note_on_c, 0, 60, 61
2, 775426, Note_on_c, 0, 64, 39
2, 775480, Note_on_c, 0, 60, 0
2, 775484, Note_on_c, 0, 64, 0
2, 775486, Note_on_c, 0, 76, 87
2, 775502, Note_on_c, 0, 75, 0
2, 775600, Note_on_c, 0, 57, 62
2, 775608, Note_on_c, 0, 76, 0
2, 775608, Note_on_c, 0, 83, 125
2, 775662, Note_on_c, 0, 57, 0
2, 775694, Note_on_c, 0, 81, 92
2, 775720, Note_on_c, 0, 83, 0
2, 775786, Note_on_c, 0, 80, 94
2, 775800, Note_on_c, 0, 64, 51
2, 775810, Note_on_c, 0, 60, 60
2, 775824, Note_on_c, 0, 81, 0
2, 775858, Note_on_c, 0, 64, 0
2, 775866, Note_on_c, 0, 60, 0
2, 775892, Note_on_c, 0, 81, 85
2, 775932, Note_on_c, 0, 80, 0
2, 775992, Note_on_c, 0, 83, 117
2, 776008, Note_on_c, 0, 57, 62
2, 776022, Note_on_c, 0, 81, 0
2, 776062, Note_on_c, 0, 57, 0
2, 776084, Note_on_c, 0, 81, 94
2, 776120, Note_on_c, 0, 83, 0
2, 776174, Note_on_c, 0, 80, 94
2, 776192, Note_on_c, 0, 64, 60
2, 776198, Note_on_c, 0, 81, 0
2, 776204, Note_on_c, 0, 60, 59
2, 776250, Note_on_c, 0, 64, 0
2, 776260, Note_on_c, 0, 60, 0
2, 776272, Note_on_c, 0, 81, 91
2, 776292, Note_on_c, 0, 80, 0
2, 776408, Note_on_c, 0, 84, 113
2, 776411, Note_on_c, 0, 57, 68
2, 776428, Note_on_c, 0, 81, 0
2, 776594, Note_on_c, 0, 57, 0
2, 776614, Note_on_c, 0, 64, 61
2, 776622, Note_on_c, 0, 60, 52
2, 776630, Control_c, 0, 64, 127
2, 776670, Note_on_c, 0, 64, 0
2, 776682, Note_on_c, 0, 60, 0
2, 776730, Note_on_c, 0, 84, 0
2, 776798, Control_c, 0, 64, 0
2, 776818, Note_on_c, 0, 81, 85
2, 776830, Note_on_c, 0, 64, 63
2, 776858, Note_on_c, 0, 60, 36
2, 776878, Note_on_c, 0, 81, 0
2, 776881, Note_on_c, 0, 64, 0
2, 776928, Note_on_c, 0, 60, 0
2, 777014, Note_on_c, 0, 60, 56
2, 777024, Note_on_c, 0, 84, 87
2, 777036, Note_on_c, 0, 64, 48
2, 777064, Note_on_c, 0, 84, 0
2, 777078, Note_on_c, 0, 60, 0
2, 777088, Note_on_c, 0, 64, 0
2, 777208, Note_on_c, 0, 79, 72
2, 777214, Note_on_c, 0, 81, 75
2, 777228, Note_on_c, 0, 52, 84
2, 777246, Note_on_c, 0, 83, 114
2, 777266, Note_on_c, 0, 79, 0
2, 777274, Note_on_c, 0, 81, 0
2, 777280, Note_on_c, 0, 52, 0
2, 777294, Note_on_c, 0, 83, 0
2, 777430, Note_on_c, 0, 81, 68
2, 777433, Note_on_c, 0, 78, 60
2, 777448, Note_on_c, 0, 64, 55
2, 777464, Note_on_c, 0, 59, 40
2, 777486, Note_on_c, 0, 78, 0
2, 777489, Note_on_c, 0, 81, 0
2, 777504, Note_on_c, 0, 64, 0
2, 777522, Note_on_c, 0, 59, 0
2, 777634, Note_on_c, 0, 76, 49
2, 777638, Note_on_c, 0, 79, 70
2, 777656, Note_on_c, 0, 59, 41
2, 777664, Note_on_c, 0, 64, 34
2, 777692, Note_on_c, 0, 79, 0
2, 777694, Note_on_c, 0, 76, 0
2, 777712, Note_on_c, 0, 59, 0
2, 777726, Note_on_c, 0, 64, 0
2, 777834, Note_on_c, 0, 78, 59
2, 777842, Note_on_c, 0, 64, 41
2, 777846, Note_on_c, 0, 81, 62
2, 777892, Note_on_c, 0, 78, 0
2, 777895, Note_on_c, 0, 81, 0
2, 777904, Note_on_c, 0, 64, 0
2, 778028, Note_on_c, 0, 79, 80
2, 778058, Note_on_c, 0, 52, 80
2, 778062, Note_on_c, 0, 81, 76
2, 778090, Note_on_c, 0, 79, 0
2, 778098, Note_on_c, 0, 83, 100
2, 778106, Note_on_c, 0, 81, 0
2, 778106, Note_on_c, 0, 52, 0
2, 778144, Note_on_c, 0, 83, 0
2, 778264, Note_on_c, 0, 78, 65
2, 778267, Note_on_c, 0, 64, 55
2, 778274, Note_on_c, 0, 81, 63
2, 778284, Note_on_c, 0, 59, 47
2, 778322, Note_on_c, 0, 78, 0
2, 778328, Note_on_c, 0, 64, 0
2, 778328, Note_on_c, 0, 81, 0
2, 778340, Note_on_c, 0, 59, 0
2, 778466, Note_on_c, 0, 79, 85
2, 778469, Note_on_c, 0, 76, 48
2, 778488, Note_on_c, 0, 64, 53
2, 778494, Note_on_c, 0, 59, 49
2, 778516, Note_on_c, 0, 79, 0
2, 778526, Note_on_c, 0, 76, 0
2, 778542, Note_on_c, 0, 64, 0
2, 778548, Note_on_c, 0, 59, 0
2, 778654, Note_on_c, 0, 78, 85
2, 778664, Note_on_c, 0, 81, 83
2, 778666, Note_on_c, 0, 64, 45
2, 778680, Note_on_c, 0, 59, 49
2, 778708, Note_on_c, 0, 81, 0
2, 778708, Note_on_c, 0, 78, 0
2, 778728, Note_on_c, 0, 64, 0
2, 778732, Note_on_c, 0, 59, 0
2, 778816, Note_on_c, 0, 79, 95
2, 778848, Note_on_c, 0, 81, 91
2, 778864, Note_on_c, 0, 52, 92
2, 778898, Note_on_c, 0, 83, 110
2, 778910, Note_on_c, 0, 81, 0
2, 778912, Note_on_c, 0, 52, 0
2, 778928, Note_on_c, 0, 79, 0
2, 778954, Note_on_c, 0, 83, 0
2, 779060, Note_on_c, 0, 81, 83
2, 779062, Note_on_c, 0, 78, 76
2, 779068, Note_on_c, 0, 64, 64
2, 779088, Note_on_c, 0, 59, 62
2, 779112, Note_on_c, 0, 78, 0
2, 779116, Note_on_c, 0, 64, 0
2, 779120, Note_on_c, 0, 81, 0
2, 779134, Note_on_c, 0, 59, 0
2, 779264, Note_on_c, 0, 79, 83
2, 779270, Note_on_c, 0, 47, 80
2, 779272, Note_on_c, 0, 76, 61
2, 779306, Note_on_c, 0, 79, 0
2, 779312, Note_on_c, 0, 47, 0
2, 779324, Note_on_c, 0, 76, 0
2, 779464, Note_on_c, 0, 75, 59
2, 779466, Note_on_c, 0, 78, 69
2, 779486, Note_on_c, 0, 59, 42
2, 779518, Note_on_c, 0, 75, 0
2, 779534, Note_on_c, 0, 78, 0
2, 779544, Note_on_c, 0, 59, 0
2, 779694, Note_on_c, 0, 76, 57
2, 779720, Note_on_c, 0, 52, 52
2, 779888, Control_c, 0, 64, 127
2, 779976, Note_on_c, 0, 76, 0
2, 779992, Note_on_c, 0, 52, 0
2, 780128, Note_on_c, 0, 72, 55
2, 780130, Note_on_c, 0, 76, 67
2, 780178, Control_c, 0, 64, 0
2, 780182, Note_on_c, 0, 76, 0
2, 780187, Note_on_c, 0, 72, 0
2, 780324, Note_on_c, 0, 74, 85
2, 780326, Note_on_c, 0, 77, 85
2, 780364, Note_on_c, 0, 74, 0
2, 780402, Note_on_c, 0, 77, 0
2, 780526, Note_on_c, 0, 79, 109
2, 780532, Note_on_c, 0, 76, 84
2, 780540, Note_on_c, 0, 48, 90
2, 780578, Note_on_c, 0, 76, 0
2, 780618, Note_on_c, 0, 79, 0
2, 780626, Note_on_c, 0, 48, 0
2, 780728, Note_on_c, 0, 76, 84
2, 780730, Note_on_c, 0, 60, 71
2, 780738, Note_on_c, 0, 79, 98
2, 780784, Note_on_c, 0, 79, 0
2, 780798, Note_on_c, 0, 76, 0
2, 780800, Note_on_c, 0, 60, 0
2, 780934, Note_on_c, 0, 81, 98
2, 780942, Note_on_c, 0, 52, 91
2, 780988, Note_on_c, 0, 52, 0
2, 781018, Note_on_c, 0, 79, 98
2, 781044, Note_on_c, 0, 81, 0
2, 781118, Note_on_c, 0, 77, 80
2, 781130, Note_on_c, 0, 64, 64
2, 781152, Note_on_c, 0, 79, 0
2, 781182, Note_on_c, 0, 64, 0
2, 781187, Note_on_c, 0, 77, 0
2, 781198, Note_on_c, 0, 76, 76
2, 781248, Note_on_c, 0, 76, 0
2, 781326, Note_on_c, 0, 74, 105
2, 781330, Note_on_c, 0, 71, 92
2, 781334, Note_on_c, 0, 55, 83
2, 781470, Control_c, 0, 64, 127
2, 781480, Note_on_c, 0, 74, 0
2, 781514, Note_on_c, 0, 71, 0
2, 781526, Note_on_c, 0, 55, 0
2, 781528, Note_on_c, 0, 67, 87
2, 781576, Note_on_c, 0, 67, 0
2, 781670, Control_c, 0, 64, 0
2, 781728, Note_on_c, 0, 72, 88
2, 781730, Note_on_c, 0, 76, 90
2, 781784, Note_on_c, 0, 76, 0
2, 781790, Note_on_c, 0, 72, 0
2, 781932, Note_on_c, 0, 77, 103
2, 781940, Note_on_c, 0, 74, 91
2, 781978, Note_on_c, 0, 74, 0
2, 782046, Note_on_c, 0, 77, 0
2, 782134, Note_on_c, 0, 79, 113
2, 782140, Note_on_c, 0, 76, 84
2, 782144, Note_on_c, 0, 48, 84
2, 782188, Note_on_c, 0, 76, 0
2, 782196, Note_on_c, 0, 48, 0
2, 782200, Note_on_c, 0, 79, 0
2, 782346, Note_on_c, 0, 76, 72
2, 782346, Note_on_c, 0, 60, 62
2, 782346, Note_on_c, 0, 79, 91
2, 782390, Note_on_c, 0, 79, 0
2, 782400, Note_on_c, 0, 76, 0
2, 782403, Note_on_c, 0, 60, 0
2, 782536, Note_on_c, 0, 81, 70
2, 782536, Note_on_c, 0, 52, 67
2, 782596, Note_on_c, 0, 52, 0
2, 782602, Note_on_c, 0, 81, 0
2, 782628, Note_on_c, 0, 79, 55
2, 782698, Note_on_c, 0, 79, 0
2, 782722, Note_on_c, 0, 77, 61
2, 782772, Note_on_c, 0, 77, 0
2, 782810, Note_on_c, 0, 76, 60
2, 782866, Note_on_c, 0, 76, 0
2, 782952, Note_on_c, 0, 55, 34
2, 782954, Note_on_c, 0, 71, 37
2, 782962, Note_on_c, 0, 74, 45
2, 783128, Control_c, 0, 64, 127
2, 783200, Note_on_c, 0, 55, 0
2, 783220, Note_on_c, 0, 71, 0
2, 783226, Note_on_c, 0, 74, 0
2, 783344, Control_c, 0, 64, 0
2, 783364, Note_on_c, 0, 69, 47
2, 783372, Note_on_c, 0, 72, 46
2, 783430, Note_on_c, 0, 69, 0
2, 783433, Note_on_c, 0, 72, 0
2, 783566, Note_on_c, 0, 74, 83
2, 783584, Note_on_c, 0, 71, 55
2, 783620, Note_on_c, 0, 74, 0
2, 783646, Note_on_c, 0, 71, 0
2, 783756, Note_on_c, 0, 45, 70
2, 783764, Note_on_c, 0, 76, 84
2, 783764, Note_on_c, 0, 72, 79
2, 783816, Note_on_c, 0, 72, 0
2, 783818, Note_on_c, 0, 45, 0
2, 783828, Note_on_c, 0, 76, 0
2, 783968, Note_on_c, 0, 72, 70
2, 783970, Note_on_c, 0, 76, 77
2, 783972, Note_on_c, 0, 57, 53
2, 784020, Note_on_c, 0, 76, 0
2, 784023, Note_on_c, 0, 72, 0
2, 784030, Note_on_c, 0, 57, 0
2, 784152, Note_on_c, 0, 48, 64
2, 784168, Note_on_c, 0, 77, 71
2, 784208, Note_on_c, 0, 48, 0
2, 784244, Note_on_c, 0, 77, 0
2, 784270, Note_on_c, 0, 76, 40
2, 784350, Note_on_c, 0, 76, 0
2, 784352, Note_on_c, 0, 74, 68
2, 784362, Note_on_c, 0, 60, 48
2, 784398, Note_on_c, 0, 74, 0
2, 784430, Note_on_c, 0, 60, 0
2, 784442, Note_on_c, 0, 72, 60
2, 784494, Note_on_c, 0, 72, 0
2, 784558, Note_on_c, 0, 68, 61
2, 784574, Note_on_c, 0, 71, 57
2, 784584, Note_on_c, 0, 52, 55
2, 784712, Control_c, 0, 64, 127
2, 784726, Note_on_c, 0, 68, 0
2, 784750, Note_on_c, 0, 52, 0
2, 784776, Note_on_c, 0, 64, 80
2, 784820, Note_on_c, 0, 64, 0
2, 784854, Note_on_c, 0, 71, 0
2, 784958, Control_c, 0, 64, 0
2, 784968, Note_on_c, 0, 69, 78
2, 784976, Note_on_c, 0, 72, 77
2, 785028, Note_on_c, 0, 69, 0
2, 785030, Note_on_c, 0, 72, 0
2, 785180, Note_on_c, 0, 71, 94
2, 785184, Note_on_c, 0, 74, 87
2, 785220, Note_on_c, 0, 71, 0
2, 785228, Note_on_c, 0, 74, 0
2, 785380, Note_on_c, 0, 76, 84
2, 785382, Note_on_c, 0, 72, 76
2, 785388, Note_on_c, 0, 45, 53
2, 785432, Note_on_c, 0, 72, 0
2, 785440, Note_on_c, 0, 76, 0
2, 785452, Note_on_c, 0, 45, 0
2, 785586, Note_on_c, 0, 72, 72
2, 785592, Note_on_c, 0, 76, 63
2, 785596, Note_on_c, 0, 57, 53
2, 785640, Note_on_c, 0, 76, 0
2, 785640, Note_on_c, 0, 72, 0
2, 785654, Note_on_c, 0, 57, 0
2, 785780, Note_on_c, 0, 48, 56
2, 785796, Note_on_c, 0, 77, 67
2, 785838, Note_on_c, 0, 48, 0
2, 785864, Note_on_c, 0, 77, 0
2, 785926, Note_on_c, 0, 76, 34
2, 785996, Note_on_c, 0, 76, 0
2, 785996, Note_on_c, 0, 60, 46
2, 786010, Note_on_c, 0, 74, 61
2, 786058, Note_on_c, 0, 74, 0
2, 786060, Note_on_c, 0, 60, 0
2, 786100, Note_on_c, 0, 72, 55
2, 786166, Note_on_c, 0, 72, 0
2, 786264, Note_on_c, 0, 68, 30
2, 786278, Note_on_c, 0, 71, 21
2, 786282, Note_on_c, 0, 52, 42
2, 786510, Control_c, 0, 64, 127
2, 786594, Note_on_c, 0, 68, 0
2, 786614, Note_on_c, 0, 52, 0
2, 786622, Note_on_c, 0, 71, 0
2, 786800, Control_c, 0, 64, 0
2, 786808, Note_on_c, 0, 71, 57
2, 786880, Note_on_c, 0, 71, 0
2, 786910, Note_on_c, 0, 69, 44
2, 786988, Note_on_c, 0, 69, 0
2, 787008, Note_on_c, 0, 68, 61
2, 787088, Note_on_c, 0, 68, 0
2, 787110, Note_on_c, 0, 69, 45
2, 787202, Note_on_c, 0, 69, 0
2, 787232, Note_on_c, 0, 72, 68
2, 787240, Note_on_c, 0, 57, 38
2, 787340, Note_on_c, 0, 57, 0
2, 787386, Control_c, 0, 64, 127
2, 787416, Note_on_c, 0, 72, 0
2, 787432, Note_on_c, 0, 60, 46
2, 787435, Note_on_c, 0, 64, 38
2, 787446, Control_c, 0, 64, 0
2, 787492, Note_on_c, 0, 60, 0
2, 787494, Note_on_c, 0, 64, 0
2, 787646, Note_on_c, 0, 74, 64
2, 787656, Note_on_c, 0, 64, 41
2, 787686, Note_on_c, 0, 60, 24
2, 787712, Note_on_c, 0, 64, 0
2, 787730, Note_on_c, 0, 74, 0
2, 787736, Note_on_c, 0, 72, 61
2, 787746, Note_on_c, 0, 60, 0
2, 787804, Note_on_c, 0, 72, 0
2, 787838, Note_on_c, 0, 71, 80
2, 787841, Note_on_c, 0, 60, 48
2, 787850, Note_on_c, 0, 64, 41
2, 787888, Note_on_c, 0, 71, 0
2, 787904, Note_on_c, 0, 60, 0
2, 787914, Note_on_c, 0, 64, 0
2, 787934, Note_on_c, 0, 72, 85
2, 788046, Note_on_c, 0, 72, 0
2, 788058, Note_on_c, 0, 76, 84
2, 788060, Note_on_c, 0, 57, 64
2, 788136, Note_on_c, 0, 57, 0
2, 788139, Control_c, 0, 64, 127
2, 788208, Note_on_c, 0, 76, 0
2, 788246, Control_c, 0, 64, 0
2, 788249, Note_on_c, 0, 64, 70
2, 788268, Note_on_c, 0, 60, 53
2, 788306, Note_on_c, 0, 64, 0
2, 788326, Note_on_c, 0, 60, 0
2, 788460, Note_on_c, 0, 77, 94
2, 788466, Note_on_c, 0, 64, 64
2, 788490, Note_on_c, 0, 60, 47
2, 788520, Note_on_c, 0, 64, 0
2, 788546, Note_on_c, 0, 76, 82
2, 788554, Note_on_c, 0, 60, 0
2, 788588, Note_on_c, 0, 77, 0
2, 788638, Note_on_c, 0, 76, 0
2, 788644, Note_on_c, 0, 75, 88
2, 788650, Note_on_c, 0, 60, 47
2, 788682, Note_on_c, 0, 64, 40
2, 788712, Note_on_c, 0, 75, 0
2, 788718, Note_on_c, 0, 60, 0
2, 788740, Note_on_c, 0, 64, 0
2, 788742, Note_on_c, 0, 76, 79
2, 788838, Note_on_c, 0, 76, 0
2, 788854, Note_on_c, 0, 57, 69
2, 788862, Note_on_c, 0, 83, 124
2, 788906, Note_on_c, 0, 57, 0
2, 788956, Note_on_c, 0, 81, 90
2, 788980, Note_on_c, 0, 83, 0
2, 789050, Note_on_c, 0, 80, 93
2, 789054, Note_on_c, 0, 64, 70
2, 789064, Note_on_c, 0, 60, 67
2, 789074, Note_on_c, 0, 81, 0
2, 789104, Note_on_c, 0, 64, 0
2, 789116, Note_on_c, 0, 60, 0
2, 789160, Note_on_c, 0, 81, 82
2, 789188, Note_on_c, 0, 80, 0
2, 789262, Note_on_c, 0, 83, 114
2, 789268, Note_on_c, 0, 81, 0
2, 789272, Note_on_c, 0, 57, 62
2, 789324, Note_on_c, 0, 57, 0
2, 789356, Note_on_c, 0, 81, 84
2, 789404, Note_on_c, 0, 83, 0
2, 789460, Note_on_c, 0, 80, 94
2, 789464, Note_on_c, 0, 81, 0
2, 789464, Note_on_c, 0, 64, 56
2, 789468, Note_on_c, 0, 60, 57
2, 789516, Note_on_c, 0, 64, 0
2, 789528, Note_on_c, 0, 60, 0
2, 789552, Note_on_c, 0, 81, 82
2, 789578, Note_on_c, 0, 80, 0
2, 789674, Note_on_c, 0, 53, 105
2, 789684, Note_on_c, 0, 81, 0
2, 789686, Note_on_c, 0, 84, 69
2, 789798, Control_c, 0, 64, 127
2, 789836, Note_on_c, 0, 53, 0
2, 789896, Note_on_c, 0, 63, 59
2, 789904, Note_on_c, 0, 57, 51
2, 789962, Note_on_c, 0, 63, 0
2, 789968, Note_on_c, 0, 57, 0
2, 790090, Control_c, 0, 64, 0
2, 790100, Note_on_c, 0, 81, 101
2, 790112, Note_on_c, 0, 63, 87
2, 790132, Note_on_c, 0, 57, 60
2, 790158, Note_on_c, 0, 84, 0
2, 790174, Note_on_c, 0, 63, 0
2, 790188, Note_on_c, 0, 57, 0
2, 790208, Note_on_c, 0, 81, 0
2, 790296, Note_on_c, 0, 83, 127
2, 790306, Note_on_c, 0, 63, 78
2, 790314, Note_on_c, 0, 57, 44
2, 790374, Note_on_c, 0, 63, 0
2, 790382, Note_on_c, 0, 57, 0
2, 790384, Note_on_c, 0, 83, 0
2, 790428, Note_on_c, 0, 81, 88
2, 790488, Note_on_c, 0, 83, 115
2, 790528, Note_on_c, 0, 52, 92
2, 790532, Note_on_c, 0, 84, 116
2, 790572, Note_on_c, 0, 81, 0
2, 790578, Note_on_c, 0, 52, 0
2, 790586, Note_on_c, 0, 83, 0
2, 790648, Note_on_c, 0, 84, 0
2, 790724, Note_on_c, 0, 64, 75
2, 790732, Note_on_c, 0, 83, 125
2, 790750, Note_on_c, 0, 57, 57
2, 790772, Note_on_c, 0, 64, 0
2, 790804, Note_on_c, 0, 57, 0
2, 790852, Note_on_c, 0, 83, 0
2, 790934, Note_on_c, 0, 81, 100
2, 790938, Note_on_c, 0, 50, 76
2, 790990, Note_on_c, 0, 50, 0
2, 791020, Note_on_c, 0, 81, 0
2, 791126, Note_on_c, 0, 80, 95
2, 791129, Note_on_c, 0, 59, 68
2, 791164, Note_on_c, 0, 53, 64
2, 791182, Note_on_c, 0, 59, 0
2, 791220, Note_on_c, 0, 53, 0
2, 791226, Note_on_c, 0, 80, 0
2, 791342, Note_on_c, 0, 81, 90
2, 791342, Note_on_c, 0, 48, 71
2, 791398, Note_on_c, 0, 48, 0
2, 791424, Note_on_c, 0, 81, 0
2, 791534, Note_on_c, 0, 76, 82
2, 791537, Note_on_c, 0, 57, 57
2, 791582, Note_on_c, 0, 52, 21
2, 791592, Note_on_c, 0, 76, 0
2, 791616, Note_on_c, 0, 57, 0
2, 791634, Note_on_c, 0, 52, 0
2, 791738, Note_on_c, 0, 50, 67
2, 791754, Note_on_c, 0, 77, 68
2, 791796, Note_on_c, 0, 50, 0
2, 791802, Note_on_c, 0, 77, 0
2, 791924, Note_on_c, 0, 59, 67
2, 791942, Note_on_c, 0, 74, 77
2, 791954, Note_on_c, 0, 53, 62
2, 791976, Note_on_c, 0, 59, 0
2, 791986, Note_on_c, 0, 74, 0
2, 792010, Note_on_c, 0, 53, 0
2, 792144, Note_on_c, 0, 57, 70
2, 792148, Note_on_c, 0, 72, 72
2, 792168, Note_on_c, 0, 52, 60
2, 792204, Note_on_c, 0, 57, 0
2, 792218, Note_on_c, 0, 52, 0
2, 792356, Note_on_c, 0, 57, 70
2, 792414, Note_on_c, 0, 52, 28
2, 792416, Note_on_c, 0, 72, 0
2, 792424, Note_on_c, 0, 57, 0
2, 792470, Note_on_c, 0, 52, 0
2, 792542, Note_on_c, 0, 72, 55
2, 792556, Note_on_c, 0, 52, 75
2, 792558, Note_on_c, 0, 56, 79
2, 792592, Note_on_c, 0, 71, 75
2, 792594, Note_on_c, 0, 72, 0
2, 792612, Note_on_c, 0, 52, 0
2, 792628, Note_on_c, 0, 56, 0
2, 792640, Note_on_c, 0, 71, 0
2, 792652, Note_on_c, 0, 72, 87
2, 792722, Note_on_c, 0, 72, 0
2, 792722, Note_on_c, 0, 71, 54
2, 792778, Note_on_c, 0, 56, 54
2, 792786, Note_on_c, 0, 71, 0
2, 792789, Note_on_c, 0, 52, 57
2, 792808, Note_on_c, 0, 72, 53
2, 792838, Note_on_c, 0, 56, 0
2, 792842, Note_on_c, 0, 52, 0
2, 792866, Note_on_c, 0, 72, 0
2, 792866, Note_on_c, 0, 71, 59
2, 792906, Note_on_c, 0, 69, 68
2, 792928, Note_on_c, 0, 71, 0
2, 792962, Note_on_c, 0, 69, 0
2, 792996, Note_on_c, 0, 71, 91
2, 793038, Note_on_c, 0, 71, 0
2, 793064, Note_on_c, 0, 45, 72
2, 793067, Note_on_c, 0, 57, 70
2, 793076, Note_on_c, 0, 69, 87
2, 793110, Note_on_c, 0, 45, 0
2, 793120, Note_on_c, 0, 57, 0
2, 793178, Control_c, 0, 64, 127
2, 793460, Note_on_c, 0, 69, 0
2, 793540, Control_c, 0, 64, 127
2, 793540, Note_on_c, 0, 69, 72
2, 793654, Note_on_c, 0, 69, 0
2, 793664, Note_on_c, 0, 81, 82
2, 793758, Note_on_c, 0, 81, 0
2, 793770, Note_on_c, 0, 71, 102
2, 793870, Note_on_c, 0, 71, 0
2, 793873, Note_on_c, 0, 83, 109
2, 793922, Note_on_c, 0, 83, 0
2, 793930, Control_c, 0, 64, 0
2, 793956, Note_on_c, 0, 45, 74
2, 793982, Note_on_c, 0, 49, 75
2, 794016, Note_on_c, 0, 73, 108
2, 794032, Note_on_c, 0, 52, 83
2, 794066, Note_on_c, 0, 57, 84
2, 794128, Note_on_c, 0, 45, 0
2, 794146, Note_on_c, 0, 85, 105
2, 794160, Control_c, 0, 64, 127
2, 794170, Note_on_c, 0, 49, 0
2, 794192, Note_on_c, 0, 52, 0
2, 794208, Note_on_c, 0, 57, 0
2, 794254, Note_on_c, 0, 73, 0
2, 794270, Note_on_c, 0, 85, 0
2, 794304, Note_on_c, 0, 57, 60
2, 794416, Note_on_c, 0, 57, 0
2, 794483, Note_on_c, 0, 69, 91
2, 794496, Note_on_c, 0, 57, 65
2, 794578, Note_on_c, 0, 81, 100
2, 794592, Note_on_c, 0, 69, 0
2, 794594, Note_on_c, 0, 57, 0
2, 794674, Note_on_c, 0, 81, 0
2, 794698, Note_on_c, 0, 71, 115
2, 794704, Note_on_c, 0, 57, 62
2, 794714, Control_c, 0, 64, 0
2, 794762, Note_on_c, 0, 57, 0
2, 794782, Note_on_c, 0, 83, 124
2, 794802, Note_on_c, 0, 71, 0
2, 794862, Note_on_c, 0, 83, 0
2, 794862, Note_on_c, 0, 45, 64
2, 794868, Note_on_c, 0, 49, 76
2, 794904, Note_on_c, 0, 52, 86
2, 794918, Note_on_c, 0, 73, 113
2, 794952, Note_on_c, 0, 57, 102
2, 794978, Note_on_c, 0, 45, 0
2, 794998, Note_on_c, 0, 49, 0
2, 794998, Note_on_c, 0, 85, 91
2, 795006, Control_c, 0, 64, 127
2, 795012, Note_on_c, 0, 52, 0
2, 795044, Note_on_c, 0, 57, 0
2, 795047, Note_on_c, 0, 73, 0
2, 795120, Note_on_c, 0, 85, 0
2, 795142, Note_on_c, 0, 71, 106
2, 795142, Note_on_c, 0, 57, 59
2, 795224, Note_on_c, 0, 83, 121
2, 795232, Note_on_c, 0, 57, 0
2, 795236, Note_on_c, 0, 71, 0
2, 795314, Note_on_c, 0, 83, 0
2, 795356, Note_on_c, 0, 69, 82
2, 795370, Note_on_c, 0, 57, 75
2, 795410, Note_on_c, 0, 81, 100
2, 795444, Note_on_c, 0, 69, 0
2, 795452, Note_on_c, 0, 57, 0
2, 795492, Note_on_c, 0, 81, 0
2, 795544, Control_c, 0, 64, 0
2, 795552, Note_on_c, 0, 68, 100
2, 795566, Note_on_c, 0, 57, 70
2, 795610, Note_on_c, 0, 57, 0
2, 795634, Note_on_c, 0, 80, 101
2, 795654, Note_on_c, 0, 68, 0
2, 795708, Note_on_c, 0, 80, 0
2, 795754, Note_on_c, 0, 66, 101
2, 795762, Note_on_c, 0, 42, 95
2, 795766, Note_on_c, 0, 38, 68
2, 795786, Note_on_c, 0, 45, 62
2, 795808, Note_on_c, 0, 50, 107
2, 795814, Note_on_c, 0, 38, 0
2, 795836, Note_on_c, 0, 78, 99
2, 795840, Note_on_c, 0, 45, 0
2, 795848, Note_on_c, 0, 66, 0
2, 795850, Control_c, 0, 64, 127
2, 795858, Note_on_c, 0, 50, 0
2, 795866, Note_on_c, 0, 42, 0
2, 795930, Note_on_c, 0, 78, 0
2, 795960, Note_on_c, 0, 68, 92
2, 795974, Control_c, 0, 64, 0
2, 795990, Note_on_c, 0, 50, 92
2, 796036, Note_on_c, 0, 80, 91
2, 796068, Note_on_c, 0, 50, 0
2, 796086, Note_on_c, 0, 68, 0
2, 796144, Note_on_c, 0, 39, 79
2, 796166, Note_on_c, 0, 45, 53
2, 796168, Note_on_c, 0, 80, 0
2, 796170, Note_on_c, 0, 42, 65
2, 796186, Note_on_c, 0, 69, 99
2, 796190, Note_on_c, 0, 39, 0
2, 796212, Note_on_c, 0, 51, 109
2, 796222, Note_on_c, 0, 42, 0
2, 796242, Note_on_c, 0, 45, 0
2, 796284, Note_on_c, 0, 81, 99
2, 796290, Note_on_c, 0, 69, 0
2, 796296, Control_c, 0, 64, 127
2, 796312, Note_on_c, 0, 51, 0
2, 796354, Note_on_c, 0, 81, 0
2, 796382, Note_on_c, 0, 51, 88
2, 796396, Note_on_c, 0, 71, 111
2, 796420, Control_c, 0, 64, 0
2, 796458, Note_on_c, 0, 83, 121
2, 796480, Note_on_c, 0, 51, 0
2, 796494, Note_on_c, 0, 71, 0
2, 796498, Note_on_c, 0, 83, 0
2, 796544, Note_on_c, 0, 40, 107
2, 796560, Note_on_c, 0, 44, 82
2, 796598, Note_on_c, 0, 47, 61
2, 796606, Note_on_c, 0, 68, 106
2, 796644, Note_on_c, 0, 40, 0
2, 796646, Note_on_c, 0, 52, 107
2, 796660, Note_on_c, 0, 47, 0
2, 796680, Note_on_c, 0, 80, 90
2, 796688, Note_on_c, 0, 44, 0
2, 796696, Note_on_c, 0, 52, 0
2, 796696, Control_c, 0, 64, 127
2, 796716, Note_on_c, 0, 68, 0
2, 796730, Note_on_c, 0, 80, 0
2, 796816, Note_on_c, 0, 52, 87
2, 796834, Note_on_c, 0, 64, 100
2, 796886, Note_on_c, 0, 64, 0
2, 796904, Note_on_c, 0, 52, 0
2, 796906, Note_on_c, 0, 76, 87
2, 796942, Note_on_c, 0, 76, 0
2, 797030, Note_on_c, 0, 52, 86
2, 797033, Control_c, 0, 64, 0
2, 797036, Note_on_c, 0, 69, 102
2, 797078, Note_on_c, 0, 52, 0
2, 797124, Note_on_c, 0, 81, 100
2, 797132, Note_on_c, 0, 69, 0
2, 797210, Note_on_c, 0, 81, 0
2, 797232, Note_on_c, 0, 52, 106
2, 797235, Note_on_c, 0, 71, 113
2, 797266, Note_on_c, 0, 52, 0
2, 797302, Note_on_c, 0, 83, 126
2, 797308, Note_on_c, 0, 71, 0
2, 797384, Note_on_c, 0, 83, 0
2, 797396, Note_on_c, 0, 45, 86
2, 797402, Note_on_c, 0, 49, 98
2, 797450, Note_on_c, 0, 52, 76
2, 797456, Note_on_c, 0, 45, 0
2, 797480, Note_on_c, 0, 73, 116
2, 797500, Note_on_c, 0, 57, 106
2, 797510, Control_c, 0, 64, 127
2, 797516, Note_on_c, 0, 49, 0
2, 797546, Note_on_c, 0, 52, 0
2, 797572, Note_on_c, 0, 85, 120
2, 797596, Note_on_c, 0, 57, 0
2, 797658, Note_on_c, 0, 73, 0
2, 797668, Note_on_c, 0, 85, 0
2, 797704, Note_on_c, 0, 57, 72
2, 797772, Note_on_c, 0, 57, 0
2, 797894, Control_c, 0, 64, 0
2, 797912, Note_on_c, 0, 69, 98
2, 797915, Note_on_c, 0, 57, 94
2, 798010, Note_on_c, 0, 57, 0
2, 798016, Note_on_c, 0, 81, 101
2, 798024, Note_on_c, 0, 69, 0
2, 798066, Note_on_c, 0, 81, 0
2, 798122, Note_on_c, 0, 57, 77
2, 798125, Note_on_c, 0, 71, 113
2, 798174, Note_on_c, 0, 57, 0
2, 798208, Note_on_c, 0, 71, 0
2, 798211, Note_on_c, 0, 83, 126
2, 798258, Note_on_c, 0, 83, 0
2, 798298, Note_on_c, 0, 45, 85
2, 798310, Note_on_c, 0, 49, 78
2, 798338, Note_on_c, 0, 52, 86
2, 798338, Note_on_c, 0, 73, 115
2, 798370, Note_on_c, 0, 57, 101
2, 798382, Note_on_c, 0, 45, 0
2, 798384, Note_on_c, 0, 52, 0
2, 798388, Note_on_c, 0, 49, 0
2, 798416, Control_c, 0, 64, 127
2, 798430, Note_on_c, 0, 85, 99
2, 798440, Note_on_c, 0, 73, 0
2, 798456, Note_on_c, 0, 57, 0
2, 798532, Note_on_c, 0, 85, 0
2, 798556, Note_on_c, 0, 57, 65
2, 798556, Note_on_c, 0, 71, 101
2, 798616, Control_c, 0, 64, 0
2, 798618, Note_on_c, 0, 57, 0
2, 798642, Note_on_c, 0, 83, 122
2, 798660, Note_on_c, 0, 71, 0
2, 798682, Note_on_c, 0, 83, 0
2, 798736, Note_on_c, 0, 57, 61
2, 798754, Note_on_c, 0, 69, 77
2, 798808, Note_on_c, 0, 81, 102
2, 798824, Note_on_c, 0, 57, 0
2, 798862, Note_on_c, 0, 69, 0
2, 798878, Note_on_c, 0, 81, 0
2, 798934, Note_on_c, 0, 57, 69
2, 798950, Note_on_c, 0, 68, 92
2, 798980, Note_on_c, 0, 57, 0
2, 799028, Note_on_c, 0, 80, 70
2, 799062, Note_on_c, 0, 68, 0
2, 799096, Note_on_c, 0, 80, 0
2, 799128, Note_on_c, 0, 42, 87
2, 799134, Note_on_c, 0, 38, 55
2, 799142, Note_on_c, 0, 66, 99
2, 799186, Note_on_c, 0, 50, 100
2, 799189, Note_on_c, 0, 38, 0
2, 799208, Note_on_c, 0, 42, 0
2, 799218, Note_on_c, 0, 78, 83
2, 799240, Note_on_c, 0, 50, 0
2, 799246, Control_c, 0, 64, 127
2, 799248, Note_on_c, 0, 66, 0
2, 799262, Note_on_c, 0, 78, 0
2, 799336, Note_on_c, 0, 50, 83
2, 799346, Note_on_c, 0, 71, 114
2, 799354, Control_c, 0, 64, 0
2, 799416, Note_on_c, 0, 83, 120
2, 799434, Note_on_c, 0, 71, 0
2, 799438, Note_on_c, 0, 50, 0
2, 799456, Note_on_c, 0, 83, 0
2, 799490, Note_on_c, 0, 40, 103
2, 799508, Note_on_c, 0, 44, 70
2, 799532, Note_on_c, 0, 47, 44
2, 799536, Note_on_c, 0, 40, 0
2, 799552, Note_on_c, 0, 68, 103
2, 799572, Note_on_c, 0, 52, 105
2, 799590, Note_on_c, 0, 47, 0
2, 799598, Note_on_c, 0, 44, 0
2, 799616, Note_on_c, 0, 52, 0
2, 799620, Note_on_c, 0, 80, 97
2, 799646, Control_c, 0, 64, 127
2, 799662, Note_on_c, 0, 80, 0
2, 799670, Note_on_c, 0, 68, 0
2, 799692, Control_c, 0, 64, 0
2, 799744, Note_on_c, 0, 52, 87
2, 799756, Note_on_c, 0, 64, 102
2, 799792, Note_on_c, 0, 64, 0
2, 799792, Note_on_c, 0, 52, 0
2, 799798, Note_on_c, 0, 76, 80
2, 799838, Note_on_c, 0, 76, 0
2, 799866, Note_on_c, 0, 45, 97
2, 799898, Note_on_c, 0, 49, 87
2, 799938, Note_on_c, 0, 52, 83
2, 799996, Note_on_c, 0, 57, 103
2, 799998, Note_on_c, 0, 81, 117
2, 800004, Note_on_c, 0, 69, 95
2, 800012, Note_on_c, 0, 45, 0
2, 800030, Note_on_c, 0, 81, 0
2, 800030, Note_on_c, 0, 49, 0
2, 800042, Note_on_c, 0, 52, 0
2, 800044, Note_on_c, 0, 69, 0
2, 800060, Control_c, 0, 64, 127
2, 800102, Note_on_c, 0, 57, 0
2, 800208, Note_on_c, 0, 57, 59
2, 800282, Note_on_c, 0, 57, 0
2, 800408, Note_on_c, 0, 85, 123
2, 800411, Note_on_c, 0, 73, 111
2, 800424, Note_on_c, 0, 57, 99
2, 800450, Note_on_c, 0, 73, 0
2, 800466, Note_on_c, 0, 57, 0
2, 800478, Note_on_c, 0, 85, 0
2, 800636, Note_on_c, 0, 57, 79
2, 800722, Control_c, 0, 64, 0
2, 800725, Note_on_c, 0, 57, 0
2, 800740, Note_on_c, 0, 85, 103
2, 800743, Note_on_c, 0, 73, 88
2, 800794, Note_on_c, 0, 73, 0
2, 800794, Note_on_c, 0, 85, 0
2, 800794, Note_on_c, 0, 45, 68
2, 800826, Note_on_c, 0, 49, 65
2, 800870, Note_on_c, 0, 73, 87
2, 800874, Note_on_c, 0, 52, 65
2, 800876, Note_on_c, 0, 85, 113
2, 800884, Note_on_c, 0, 57, 97
2, 800884, Note_on_c, 0, 76, 101
2, 800886, Note_on_c, 0, 81, 101
2, 800914, Note_on_c, 0, 45, 0
2, 800920, Note_on_c, 0, 52, 0
2, 800924, Note_on_c, 0, 49, 0
2, 800966, Control_c, 0, 64, 127
2, 800984, Note_on_c, 0, 57, 0
2, 801060, Note_on_c, 0, 73, 0
2, 801100, Note_on_c, 0, 57, 40
2, 801164, Note_on_c, 0, 76, 0
2, 801186, Note_on_c, 0, 57, 0
2, 801322, Note_on_c, 0, 57, 70
2, 801378, Note_on_c, 0, 57, 0
2, 801394, Note_on_c, 0, 81, 0
2, 801472, Note_on_c, 0, 85, 0
2, 801534, Note_on_c, 0, 57, 88
2, 801604, Note_on_c, 0, 57, 0
2, 801628, Control_c, 0, 64, 0
2, 801706, Note_on_c, 0, 45, 68
2, 801724, Note_on_c, 0, 49, 68
2, 801740, Note_on_c, 0, 52, 75
2, 801750, Note_on_c, 0, 85, 118
2, 801750, Note_on_c, 0, 73, 100
2, 801753, Note_on_c, 0, 81, 103
2, 801764, Note_on_c, 0, 76, 84
2, 801767, Note_on_c, 0, 45, 0
2, 801767, Note_on_c, 0, 57, 102
2, 801784, Note_on_c, 0, 52, 0
2, 801790, Note_on_c, 0, 49, 0
2, 801858, Control_c, 0, 64, 127
2, 801868, Note_on_c, 0, 57, 0
2, 801922, Note_on_c, 0, 73, 0
2, 801984, Note_on_c, 0, 57, 46
2, 802036, Note_on_c, 0, 76, 0
2, 802054, Note_on_c, 0, 57, 0
2, 802168, Note_on_c, 0, 81, 0
2, 802202, Note_on_c, 0, 57, 79
2, 802274, Note_on_c, 0, 57, 0
2, 802328, Note_on_c, 0, 85, 0
2, 802414, Note_on_c, 0, 57, 70
2, 802470, Note_on_c, 0, 57, 0
2, 802520, Control_c, 0, 64, 0
2, 802578, Note_on_c, 0, 45, 82
2, 802600, Note_on_c, 0, 49, 65
2, 802626, Note_on_c, 0, 52, 84
2, 802629, Note_on_c, 0, 86, 120
2, 802656, Note_on_c, 0, 57, 106
2, 802660, Note_on_c, 0, 45, 0
2, 802664, Note_on_c, 0, 49, 0
2, 802672, Note_on_c, 0, 52, 0
2, 802734, Control_c, 0, 64, 127
2, 802746, Note_on_c, 0, 85, 91
2, 802764, Note_on_c, 0, 57, 0
2, 802820, Note_on_c, 0, 86, 0
2, 802826, Note_on_c, 0, 57, 74
2, 802832, Note_on_c, 0, 83, 121
2, 802870, Note_on_c, 0, 85, 0
2, 802926, Note_on_c, 0, 57, 0
2, 802940, Note_on_c, 0, 85, 82
2, 802974, Note_on_c, 0, 83, 0
2, 803046, Note_on_c, 0, 86, 105
2, 803049, Note_on_c, 0, 57, 69
2, 803074, Note_on_c, 0, 85, 0
2, 803106, Note_on_c, 0, 57, 0
2, 803132, Note_on_c, 0, 85, 87
2, 803232, Note_on_c, 0, 83, 114
2, 803240, Note_on_c, 0, 86, 0
2, 803256, Note_on_c, 0, 57, 77
2, 803272, Control_c, 0, 64, 0
2, 803282, Note_on_c, 0, 85, 0
2, 803304, Note_on_c, 0, 57, 0
2, 803344, Note_on_c, 0, 85, 90
2, 803422, Note_on_c, 0, 83, 0
2, 803450, Note_on_c, 0, 38, 110
2, 803474, Note_on_c, 0, 42, 95
2, 803477, Note_on_c, 0, 86, 121
2, 803488, Note_on_c, 0, 81, 95
2, 803490, Note_on_c, 0, 78, 94
2, 803496, Note_on_c, 0, 45, 62
2, 803504, Note_on_c, 0, 50, 117
2, 803534, Note_on_c, 0, 38, 0
2, 803552, Note_on_c, 0, 85, 0
2, 803566, Note_on_c, 0, 45, 0
2, 803584, Note_on_c, 0, 42, 0
2, 803624, Note_on_c, 0, 50, 0
2, 803624, Control_c, 0, 64, 127
2, 803698, Note_on_c, 0, 50, 79
2, 803776, Note_on_c, 0, 50, 0
2, 803922, Note_on_c, 0, 50, 105
2, 803968, Note_on_c, 0, 50, 0
2, 804040, Note_on_c, 0, 81, 0
2, 804070, Note_on_c, 0, 78, 0
2, 804088, Note_on_c, 0, 86, 0
2, 804122, Note_on_c, 0, 50, 94
2, 804170, Note_on_c, 0, 50, 0
2, 804178, Control_c, 0, 64, 0
2, 804276, Note_on_c, 0, 45, 82
2, 804318, Note_on_c, 0, 49, 80
2, 804320, Note_on_c, 0, 86, 122
2, 804320, Note_on_c, 0, 52, 78
2, 804334, Note_on_c, 0, 76, 111
2, 804342, Note_on_c, 0, 85, 113
2, 804342, Note_on_c, 0, 81, 100
2, 804362, Note_on_c, 0, 57, 99
2, 804380, Note_on_c, 0, 81, 0
2, 804406, Note_on_c, 0, 45, 0
2, 804408, Note_on_c, 0, 86, 0
2, 804410, Control_c, 0, 64, 127
2, 804426, Note_on_c, 0, 76, 0
2, 804446, Note_on_c, 0, 52, 0
2, 804460, Note_on_c, 0, 49, 0
2, 804472, Note_on_c, 0, 57, 0
2, 804475, Note_on_c, 0, 85, 0
2, 804516, Control_c, 0, 64, 0
2, 804542, Note_on_c, 0, 86, 113
2, 804544, Note_on_c, 0, 57, 72
2, 804548, Note_on_c, 0, 85, 91
2, 804556, Note_on_c, 0, 76, 92
2, 804562, Note_on_c, 0, 81, 84
2, 804604, Note_on_c, 0, 81, 0
2, 804607, Note_on_c, 0, 76, 0
2, 804618, Note_on_c, 0, 86, 0
2, 804656, Note_on_c, 0, 57, 0
2, 804670, Note_on_c, 0, 85, 0
2, 804742, Note_on_c, 0, 86, 117
2, 804745, Note_on_c, 0, 57, 61
2, 804748, Note_on_c, 0, 85, 92
2, 804754, Note_on_c, 0, 76, 100
2, 804756, Note_on_c, 0, 81, 94
2, 804796, Note_on_c, 0, 81, 0
2, 804808, Note_on_c, 0, 76, 0
2, 804854, Note_on_c, 0, 86, 0
2, 804856, Note_on_c, 0, 57, 0
2, 804872, Note_on_c, 0, 85, 0
2, 804948, Note_on_c, 0, 86, 97
2, 804958, Note_on_c, 0, 57, 78
2, 804962, Note_on_c, 0, 85, 95
2, 804966, Note_on_c, 0, 76, 103
2, 804978, Note_on_c, 0, 81, 83
2, 805004, Note_on_c, 0, 57, 0
2, 805012, Note_on_c, 0, 76, 0
2, 805018, Note_on_c, 0, 81, 0
2, 805048, Note_on_c, 0, 86, 0
2, 805136, Note_on_c, 0, 85, 0
2, 805156, Note_on_c, 0, 40, 117
2, 805168, Note_on_c, 0, 44, 88
2, 805174, Note_on_c, 0, 83, 127
2, 805178, Note_on_c, 0, 80, 98
2, 805182, Note_on_c, 0, 76, 95
2, 805198, Note_on_c, 0, 47, 44
2, 805210, Note_on_c, 0, 40, 0
2, 805210, Note_on_c, 0, 52, 120
2, 805254, Control_c, 0, 64, 127
2, 805260, Note_on_c, 0, 47, 0
2, 805263, Note_on_c, 0, 44, 0
2, 805314, Note_on_c, 0, 52, 0
2, 805402, Note_on_c, 0, 52, 76
2, 805482, Note_on_c, 0, 52, 0
2, 805566, Note_on_c, 0, 80, 0
2, 805580, Note_on_c, 0, 76, 0
2, 805618, Note_on_c, 0, 52, 114
2, 805664, Note_on_c, 0, 52, 0
2, 805720, Note_on_c, 0, 83, 0
2, 805826, Note_on_c, 0, 88, 116
2, 805836, Note_on_c, 0, 52, 102
2, 805864, Note_on_c, 0, 88, 0
2, 805868, Control_c, 0, 64, 0
2, 805874, Note_on_c, 0, 52, 0
2, 806030, Note_on_c, 0, 45, 87
2, 806048, Note_on_c, 0, 49, 76
2, 806076, Note_on_c, 0, 73, 88
2, 806084, Note_on_c, 0, 85, 121
2, 806086, Note_on_c, 0, 81, 108
2, 806088, Note_on_c, 0, 45, 0
2, 806090, Note_on_c, 0, 76, 99
2, 806093, Note_on_c, 0, 52, 63
2, 806104, Note_on_c, 0, 57, 101
2, 806107, Note_on_c, 0, 49, 0
2, 806140, Note_on_c, 0, 52, 0
2, 806160, Control_c, 0, 64, 127
2, 806206, Note_on_c, 0, 57, 0
2, 806232, Note_on_c, 0, 73, 0
2, 806234, Note_on_c, 0, 76, 0
2, 806324, Note_on_c, 0, 57, 55
2, 806382, Note_on_c, 0, 57, 0
2, 806450, Note_on_c, 0, 81, 0
2, 806494, Note_on_c, 0, 85, 0
2, 806534, Note_on_c, 0, 57, 82
2, 806610, Note_on_c, 0, 57, 0
2, 806754, Note_on_c, 0, 57, 85
2, 806802, Note_on_c, 0, 57, 0
2, 806805, Control_c, 0, 64, 0
2, 806904, Note_on_c, 0, 45, 77
2, 806928, Note_on_c, 0, 49, 78
2, 806962, Note_on_c, 0, 85, 120
2, 806964, Note_on_c, 0, 73, 103
2, 806964, Note_on_c, 0, 52, 75
2, 806970, Note_on_c, 0, 81, 102
2, 806972, Note_on_c, 0, 57, 107
2, 806976, Note_on_c, 0, 76, 86
2, 806992, Note_on_c, 0, 45, 0
2, 806998, Note_on_c, 0, 49, 0
2, 807008, Note_on_c, 0, 52, 0
2, 807052, Control_c, 0, 64, 127
2, 807066, Note_on_c, 0, 57, 0
2, 807170, Note_on_c, 0, 73, 0
2, 807184, Note_on_c, 0, 57, 55
2, 807248, Note_on_c, 0, 57, 0
2, 807306, Note_on_c, 0, 76, 0
2, 807414, Note_on_c, 0, 57, 87
2, 807472, Note_on_c, 0, 57, 0
2, 807472, Note_on_c, 0, 81, 0
2, 807572, Note_on_c, 0, 85, 0
2, 807626, Note_on_c, 0, 57, 83
2, 807692, Note_on_c, 0, 57, 0
2, 807728, Control_c, 0, 64, 0
2, 807780, Note_on_c, 0, 45, 83
2, 807810, Note_on_c, 0, 49, 83
2, 807838, Note_on_c, 0, 52, 86
2, 807856, Note_on_c, 0, 86, 125
2, 807888, Note_on_c, 0, 57, 97
2, 807900, Note_on_c, 0, 45, 0
2, 807914, Note_on_c, 0, 52, 0
2, 807932, Note_on_c, 0, 49, 0
2, 807970, Note_on_c, 0, 85, 103
2, 807990, Control_c, 0, 64, 127
2, 808012, Note_on_c, 0, 57, 0
2, 808048, Note_on_c, 0, 86, 0
2, 808064, Note_on_c, 0, 83, 116
2, 808076, Note_on_c, 0, 57, 85
2, 808092, Note_on_c, 0, 85, 0
2, 808128, Control_c, 0, 64, 0
2, 808164, Note_on_c, 0, 85, 77
2, 808166, Note_on_c, 0, 57, 0
2, 808206, Note_on_c, 0, 83, 0
2, 808256, Note_on_c, 0, 57, 77
2, 808266, Note_on_c, 0, 86, 109
2, 808288, Note_on_c, 0, 85, 0
2, 808353, Note_on_c, 0, 85, 80
2, 808364, Note_on_c, 0, 57, 0
2, 808436, Note_on_c, 0, 83, 117
2, 808452, Note_on_c, 0, 57, 68
2, 808458, Note_on_c, 0, 86, 0
2, 808486, Note_on_c, 0, 85, 0
2, 808496, Note_on_c, 0, 57, 0
2, 808554, Note_on_c, 0, 85, 87
2, 808606, Note_on_c, 0, 83, 0
2, 808648, Note_on_c, 0, 38, 110
2, 808670, Note_on_c, 0, 86, 125
2, 808670, Note_on_c, 0, 42, 83
2, 808676, Note_on_c, 0, 78, 102
2, 808688, Note_on_c, 0, 38, 0
2, 808688, Note_on_c, 0, 45, 60
2, 808688, Note_on_c, 0, 81, 93
2, 808700, Note_on_c, 0, 50, 117
2, 808724, Note_on_c, 0, 42, 0
2, 808738, Note_on_c, 0, 85, 0
2, 808742, Control_c, 0, 64, 127
2, 808748, Note_on_c, 0, 45, 0
2, 808808, Note_on_c, 0, 50, 0
2, 808888, Note_on_c, 0, 50, 77
2, 808974, Note_on_c, 0, 50, 0
2, 809122, Note_on_c, 0, 50, 95
2, 809162, Note_on_c, 0, 81, 0
2, 809168, Note_on_c, 0, 50, 0
2, 809258, Note_on_c, 0, 78, 0
2, 809278, Note_on_c, 0, 86, 0
2, 809324, Note_on_c, 0, 50, 94
2, 809372, Control_c, 0, 64, 0
2, 809374, Note_on_c, 0, 50, 0
2, 809500, Note_on_c, 0, 45, 82
2, 809532, Note_on_c, 0, 49, 85
2, 809532, Note_on_c, 0, 86, 125
2, 809550, Note_on_c, 0, 76, 111
2, 809550, Note_on_c, 0, 85, 122
2, 809550, Note_on_c, 0, 52, 95
2, 809553, Note_on_c, 0, 81, 106
2, 809566, Note_on_c, 0, 45, 0
2, 809582, Note_on_c, 0, 57, 101
2, 809596, Note_on_c, 0, 81, 0
2, 809628, Note_on_c, 0, 49, 0
2, 809628, Note_on_c, 0, 86, 0
2, 809634, Note_on_c, 0, 52, 0
2, 809664, Control_c, 0, 64, 127
2, 809700, Note_on_c, 0, 57, 0
2, 809774, Note_on_c, 0, 57, 70
2, 809806, Note_on_c, 0, 81, 7
2, 809860, Note_on_c, 0, 57, 0
2, 809990, Note_on_c, 0, 57, 68
2, 810058, Note_on_c, 0, 57, 0
2, 810084, Note_on_c, 0, 81, 0
2, 810098, Note_on_c, 0, 76, 0
2, 810132, Note_on_c, 0, 85, 0
2, 810194, Note_on_c, 0, 57, 90
2, 810242, Note_on_c, 0, 57, 0
2, 810376, Note_on_c, 0, 40, 114
2, 810381, Note_on_c, 0, 85, 111
2, 810392, Note_on_c, 0, 44, 85
2, 810394, Note_on_c, 0, 47, 74
2, 810400, Control_c, 0, 64, 0
2, 810405, Note_on_c, 0, 76, 105
2, 810418, Note_on_c, 0, 83, 126
2, 810420, Note_on_c, 0, 80, 87
2, 810430, Note_on_c, 0, 52, 117
2, 810482, Note_on_c, 0, 40, 0
2, 810510, Note_on_c, 0, 76, 0
2, 810512, Note_on_c, 0, 44, 0
2, 810528, Note_on_c, 0, 52, 0
2, 810528, Note_on_c, 0, 47, 0
2, 810531, Note_on_c, 0, 85, 0
2, 810542, Note_on_c, 0, 80, 0
2, 810554, Note_on_c, 0, 83, 0
2, 810594, Note_on_c, 0, 85, 100
2, 810618, Note_on_c, 0, 80, 69
2, 810620, Note_on_c, 0, 83, 117
2, 810622, Note_on_c, 0, 52, 85
2, 810624, Note_on_c, 0, 76, 85
2, 810672, Note_on_c, 0, 76, 0
2, 810698, Note_on_c, 0, 52, 0
2, 810720, Note_on_c, 0, 85, 0
2, 810730, Note_on_c, 0, 80, 0
2, 810746, Note_on_c, 0, 83, 0
2, 810802, Note_on_c, 0, 85, 92
2, 810816, Note_on_c, 0, 83, 127
2, 810822, Note_on_c, 0, 80, 70
2, 810822, Note_on_c, 0, 52, 101
2, 810824, Note_on_c, 0, 76, 95
2, 810872, Note_on_c, 0, 76, 0
2, 810880, Note_on_c, 0, 52, 0
2, 810922, Note_on_c, 0, 85, 0
2, 810932, Note_on_c, 0, 80, 0
2, 810940, Note_on_c, 0, 83, 0
2, 811002, Note_on_c, 0, 85, 95
2, 811016, Note_on_c, 0, 83, 127
2, 811019, Note_on_c, 0, 76, 102
2, 811024, Note_on_c, 0, 80, 61
2, 811026, Note_on_c, 0, 52, 94
2, 811066, Note_on_c, 0, 52, 0
2, 811080, Note_on_c, 0, 76, 0
2, 811086, Note_on_c, 0, 80, 0
2, 811148, Note_on_c, 0, 83, 0
2, 811164, Note_on_c, 0, 85, 0
2, 811228, Note_on_c, 0, 81, 120
2, 811256, Note_on_c, 0, 57, 44
2, 811324, Control_c, 0, 64, 127
2, 811327, Note_on_c, 0, 57, 0
2, 811362, Note_on_c, 0, 64, 55
2, 811416, Note_on_c, 0, 64, 0
2, 811438, Note_on_c, 0, 61, 48
2, 811460, Note_on_c, 0, 81, 0
2, 811504, Note_on_c, 0, 61, 0
2, 811522, Control_c, 0, 64, 0
2, 811550, Note_on_c, 0, 64, 33
2, 811552, Note_on_c, 0, 76, 64
2, 811614, Note_on_c, 0, 76, 0
2, 811625, Note_on_c, 0, 81, 63
2, 811632, Note_on_c, 0, 64, 0
2, 811670, Note_on_c, 0, 57, 53
2, 811682, Note_on_c, 0, 85, 88
2, 811686, Note_on_c, 0, 81, 0
2, 811746, Note_on_c, 0, 57, 0
2, 811806, Note_on_c, 0, 64, 46
2, 811830, Control_c, 0, 64, 127
2, 811868, Note_on_c, 0, 64, 0
2, 811872, Note_on_c, 0, 85, 0
2, 811886, Note_on_c, 0, 61, 54
2, 811960, Note_on_c, 0, 85, 88
2, 811966, Note_on_c, 0, 61, 0
2, 812012, Note_on_c, 0, 64, 39
2, 812066, Note_on_c, 0, 85, 0
2, 812076, Note_on_c, 0, 76, 64
2, 812076, Control_c, 0, 64, 0
2, 812082, Note_on_c, 0, 64, 0
2, 812110, Note_on_c, 0, 81, 90
2, 812124, Note_on_c, 0, 85, 106
2, 812130, Note_on_c, 0, 57, 53
2, 812172, Note_on_c, 0, 76, 0
2, 812178, Note_on_c, 0, 81, 0
2, 812234, Note_on_c, 0, 57, 0
2, 812264, Note_on_c, 0, 64, 49
2, 812320, Note_on_c, 0, 64, 0
2, 812322, Control_c, 0, 64, 127
2, 812336, Note_on_c, 0, 61, 51
2, 812402, Note_on_c, 0, 61, 0
2, 812434, Note_on_c, 0, 64, 41
2, 812506, Note_on_c, 0, 64, 0
2, 812544, Note_on_c, 0, 57, 54
2, 812600, Note_on_c, 0, 57, 0
2, 812644, Note_on_c, 0, 64, 63
2, 812710, Note_on_c, 0, 64, 0
2, 812756, Note_on_c, 0, 61, 49
2, 812832, Note_on_c, 0, 61, 0
2, 812864, Note_on_c, 0, 64, 55
2, 812880, Note_on_c, 0, 85, 0
2, 812900, Note_on_c, 0, 76, 57
2, 812906, Control_c, 0, 64, 0
2, 812926, Note_on_c, 0, 64, 0
2, 812954, Note_on_c, 0, 81, 83
2, 812968, Note_on_c, 0, 76, 0
2, 812982, Note_on_c, 0, 57, 53
2, 812982, Note_on_c, 0, 85, 84
2, 813004, Note_on_c, 0, 81, 0
2, 813050, Note_on_c, 0, 57, 0
2, 813112, Note_on_c, 0, 64, 36
2, 813136, Control_c, 0, 64, 127
2, 813178, Note_on_c, 0, 64, 0
2, 813184, Note_on_c, 0, 61, 56
2, 813260, Note_on_c, 0, 61, 0
2, 813294, Note_on_c, 0, 64, 42
2, 813368, Note_on_c, 0, 64, 0
2, 813418, Note_on_c, 0, 57, 40
2, 813482, Note_on_c, 0, 57, 0
2, 813510, Note_on_c, 0, 64, 47
2, 813574, Note_on_c, 0, 64, 0
2, 813606, Note_on_c, 0, 61, 52
2, 813674, Note_on_c, 0, 61, 0
2, 813716, Note_on_c, 0, 85, 0
2, 813716, Note_on_c, 0, 64, 48
2, 813778, Note_on_c, 0, 64, 0
2, 813812, Control_c, 0, 64, 0
2, 813822, Note_on_c, 0, 86, 100
2, 813836, Note_on_c, 0, 57, 56
2, 813896, Note_on_c, 0, 57, 0
2, 813934, Note_on_c, 0, 85, 85
2, 813956, Note_on_c, 0, 64, 45
2, 813966, Note_on_c, 0, 86, 0
2, 814014, Note_on_c, 0, 64, 0
2, 814020, Note_on_c, 0, 61, 64
2, 814034, Note_on_c, 0, 83, 102
2, 814040, Note_on_c, 0, 85, 0
2, 814090, Note_on_c, 0, 61, 0
2, 814092, Note_on_c, 0, 83, 0
2, 814114, Note_on_c, 0, 85, 80
2, 814124, Note_on_c, 0, 64, 46
2, 814208, Note_on_c, 0, 64, 0
2, 814211, Note_on_c, 0, 85, 0
2, 814226, Note_on_c, 0, 86, 102
2, 814244, Note_on_c, 0, 57, 60
2, 814298, Note_on_c, 0, 57, 0
2, 814328, Note_on_c, 0, 64, 62
2, 814330, Note_on_c, 0, 85, 84
2, 814364, Note_on_c, 0, 86, 0
2, 814394, Note_on_c, 0, 64, 0
2, 814424, Note_on_c, 0, 61, 63
2, 814444, Note_on_c, 0, 85, 0
2, 814447, Note_on_c, 0, 83, 108
2, 814518, Note_on_c, 0, 61, 0
2, 814520, Note_on_c, 0, 64, 54
2, 814522, Note_on_c, 0, 85, 70
2, 814546, Note_on_c, 0, 83, 0
2, 814578, Note_on_c, 0, 64, 0
2, 814610, Note_on_c, 0, 85, 0
2, 814636, Note_on_c, 0, 86, 109
2, 814654, Note_on_c, 0, 57, 47
2, 814728, Note_on_c, 0, 57, 0
2, 814758, Note_on_c, 0, 66, 53
2, 814796, Control_c, 0, 64, 127
2, 814814, Note_on_c, 0, 66, 0
2, 814860, Note_on_c, 0, 62, 54
2, 814922, Note_on_c, 0, 62, 0
2, 814968, Note_on_c, 0, 66, 53
2, 815036, Note_on_c, 0, 66, 0
2, 815068, Note_on_c, 0, 57, 45
2, 815130, Note_on_c, 0, 57, 0
2, 815154, Note_on_c, 0, 66, 48
2, 815228, Note_on_c, 0, 66, 0
2, 815280, Note_on_c, 0, 62, 40
2, 815310, Note_on_c, 0, 86, 0
2, 815344, Note_on_c, 0, 62, 0
2, 815354, Note_on_c, 0, 66, 45
2, 815418, Note_on_c, 0, 66, 0
2, 815452, Note_on_c, 0, 86, 94
2, 815455, Control_c, 0, 64, 0
2, 815470, Note_on_c, 0, 85, 87
2, 815490, Note_on_c, 0, 57, 40
2, 815516, Note_on_c, 0, 86, 0
2, 815532, Note_on_c, 0, 85, 0
2, 815564, Note_on_c, 0, 64, 61
2, 815566, Note_on_c, 0, 57, 0
2, 815628, Note_on_c, 0, 64, 0
2, 815660, Note_on_c, 0, 86, 86
2, 815676, Note_on_c, 0, 61, 56
2, 815698, Note_on_c, 0, 85, 74
2, 815722, Note_on_c, 0, 86, 0
2, 815744, Note_on_c, 0, 85, 0
2, 815748, Note_on_c, 0, 61, 0
2, 815772, Note_on_c, 0, 64, 56
2, 815830, Note_on_c, 0, 64, 0
2, 815862, Note_on_c, 0, 86, 99
2, 815872, Note_on_c, 0, 57, 53
2, 815890, Note_on_c, 0, 85, 95
2, 815932, Note_on_c, 0, 85, 0
2, 815944, Note_on_c, 0, 57, 0
2, 815952, Note_on_c, 0, 64, 49
2, 815955, Note_on_c, 0, 86, 0
2, 816026, Note_on_c, 0, 64, 0
2, 816060, Note_on_c, 0, 86, 95
2, 816066, Note_on_c, 0, 61, 56
2, 816072, Note_on_c, 0, 85, 100
2, 816144, Note_on_c, 0, 86, 0
2, 816147, Note_on_c, 0, 61, 0
2, 816154, Note_on_c, 0, 64, 57
2, 816186, Note_on_c, 0, 85, 0
2, 816222, Note_on_c, 0, 64, 0
2, 816278, Note_on_c, 0, 83, 127
2, 816296, Note_on_c, 0, 52, 71
2, 816350, Note_on_c, 0, 52, 0
2, 816394, Control_c, 0, 64, 127
2, 816394, Note_on_c, 0, 64, 61
2, 816462, Note_on_c, 0, 64, 0
2, 816509, Note_on_c, 0, 59, 49
2, 816572, Note_on_c, 0, 59, 0
2, 816592, Note_on_c, 0, 64, 57
2, 816668, Note_on_c, 0, 64, 0
2, 816714, Note_on_c, 0, 52, 86
2, 816762, Note_on_c, 0, 52, 0
2, 816830, Note_on_c, 0, 64, 53
2, 816838, Note_on_c, 0, 83, 0
2, 816884, Note_on_c, 0, 64, 0
2, 816902, Note_on_c, 0, 88, 100
2, 816916, Control_c, 0, 64, 0
2, 816924, Note_on_c, 0, 59, 65
2, 816940, Note_on_c, 0, 88, 0
2, 816974, Note_on_c, 0, 59, 0
2, 816974, Note_on_c, 0, 64, 69
2, 817018, Note_on_c, 0, 64, 0
2, 817184, Note_on_c, 0, 85, 120
2, 817184, Note_on_c, 0, 73, 108
2, 817190, Note_on_c, 0, 81, 106
2, 817190, Note_on_c, 0, 76, 101
2, 817196, Note_on_c, 0, 45, 102
2, 817198, Note_on_c, 0, 49, 103
2, 817204, Note_on_c, 0, 57, 113
2, 817208, Note_on_c, 0, 52, 105
2, 817238, Note_on_c, 0, 45, 0
2, 817244, Note_on_c, 0, 52, 0
2, 817254, Control_c, 0, 64, 127
2, 817282, Note_on_c, 0, 49, 0
2, 817328, Note_on_c, 0, 57, 0
2, 817420, Note_on_c, 0, 57, 55
2, 817514, Note_on_c, 0, 73, 0
2, 817534, Note_on_c, 0, 57, 0
2, 817642, Note_on_c, 0, 57, 62
2, 817690, Note_on_c, 0, 81, 0
2, 817704, Note_on_c, 0, 85, 0
2, 817714, Note_on_c, 0, 76, 0
2, 817718, Note_on_c, 0, 57, 0
2, 817866, Note_on_c, 0, 57, 86
2, 817930, Control_c, 0, 64, 0
2, 817960, Note_on_c, 0, 57, 0
2, 818038, Note_on_c, 0, 45, 90
2, 818068, Note_on_c, 0, 49, 79
2, 818071, Note_on_c, 0, 52, 90
2, 818092, Note_on_c, 0, 73, 108
2, 818092, Note_on_c, 0, 85, 123
2, 818095, Note_on_c, 0, 76, 101
2, 818100, Note_on_c, 0, 81, 105
2, 818110, Note_on_c, 0, 57, 107
2, 818140, Note_on_c, 0, 45, 0
2, 818142, Note_on_c, 0, 49, 0
2, 818150, Note_on_c, 0, 52, 0
2, 818192, Control_c, 0, 64, 127
2, 818212, Note_on_c, 0, 57, 0
2, 818256, Note_on_c, 0, 73, 0
2, 818326, Note_on_c, 0, 57, 60
2, 818348, Note_on_c, 0, 76, 0
2, 818412, Note_on_c, 0, 57, 0
2, 818506, Note_on_c, 0, 81, 0
2, 818546, Note_on_c, 0, 57, 87
2, 818620, Note_on_c, 0, 57, 0
2, 818628, Note_on_c, 0, 85, 0
2, 818750, Note_on_c, 0, 57, 92
2, 818818, Note_on_c, 0, 57, 0
2, 818882, Control_c, 0, 64, 0
2, 818886, Note_on_c, 0, 45, 91
2, 818920, Note_on_c, 0, 49, 86
2, 818954, Note_on_c, 0, 52, 82
2, 818992, Note_on_c, 0, 86, 120
2, 818998, Note_on_c, 0, 57, 113
2, 819016, Note_on_c, 0, 45, 0
2, 819042, Note_on_c, 0, 49, 0
2, 819062, Note_on_c, 0, 52, 0
2, 819104, Note_on_c, 0, 85, 98
2, 819116, Note_on_c, 0, 57, 0
2, 819128, Control_c, 0, 64, 127
2, 819146, Note_on_c, 0, 86, 0
2, 819182, Note_on_c, 0, 57, 77
2, 819198, Note_on_c, 0, 83, 117
2, 819210, Note_on_c, 0, 85, 0
2, 819292, Note_on_c, 0, 57, 0
2, 819300, Note_on_c, 0, 85, 77
2, 819320, Note_on_c, 0, 83, 0
2, 819376, Control_c, 0, 64, 0
2, 819379, Note_on_c, 0, 57, 64
2, 819394, Note_on_c, 0, 86, 101
2, 819414, Note_on_c, 0, 85, 0
2, 819478, Note_on_c, 0, 57, 0
2, 819482, Note_on_c, 0, 85, 79
2, 819576, Note_on_c, 0, 83, 120
2, 819579, Note_on_c, 0, 57, 62
2, 819582, Note_on_c, 0, 86, 0
2, 819612, Note_on_c, 0, 85, 0
2, 819620, Note_on_c, 0, 57, 0
2, 819684, Note_on_c, 0, 85, 85
2, 819750, Note_on_c, 0, 83, 0
2, 819772, Note_on_c, 0, 38, 113
2, 819786, Note_on_c, 0, 42, 98
2, 819789, Note_on_c, 0, 86, 125
2, 819798, Note_on_c, 0, 45, 76
2, 819800, Note_on_c, 0, 78, 106
2, 819802, Note_on_c, 0, 81, 103
2, 819814, Note_on_c, 0, 50, 123
2, 819852, Note_on_c, 0, 45, 0
2, 819858, Note_on_c, 0, 38, 0
2, 819866, Control_c, 0, 64, 127
2, 819870, Note_on_c, 0, 85, 0
2, 819894, Note_on_c, 0, 42, 0
2, 819940, Note_on_c, 0, 50, 0
2, 820026, Note_on_c, 0, 50, 74
2, 820102, Note_on_c, 0, 50, 0
2, 820238, Note_on_c, 0, 50, 93
2, 820250, Note_on_c, 0, 81, 0
2, 820302, Note_on_c, 0, 50, 0
2, 820326, Note_on_c, 0, 86, 0
2, 820338, Note_on_c, 0, 78, 0
2, 820444, Note_on_c, 0, 50, 99
2, 820500, Note_on_c, 0, 50, 0
2, 820512, Control_c, 0, 64, 0
2, 820622, Note_on_c, 0, 45, 95
2, 820654, Note_on_c, 0, 86, 121
2, 820659, Note_on_c, 0, 49, 87
2, 820678, Note_on_c, 0, 76, 109
2, 820680, Note_on_c, 0, 52, 83
2, 820680, Note_on_c, 0, 85, 118
2, 820684, Note_on_c, 0, 81, 103
2, 820692, Note_on_c, 0, 57, 106
2, 820738, Note_on_c, 0, 45, 0
2, 820772, Note_on_c, 0, 86, 0
2, 820782, Note_on_c, 0, 49, 0
2, 820788, Note_on_c, 0, 52, 0
2, 820804, Control_c, 0, 64, 127
2, 820810, Note_on_c, 0, 57, 0
2, 820918, Note_on_c, 0, 57, 63
2, 821024, Note_on_c, 0, 57, 0
2, 821148, Note_on_c, 0, 57, 83
2, 821188, Note_on_c, 0, 81, 0
2, 821220, Note_on_c, 0, 57, 0
2, 821254, Note_on_c, 0, 76, 0
2, 821324, Note_on_c, 0, 85, 0
2, 821360, Note_on_c, 0, 57, 95
2, 821402, Note_on_c, 0, 57, 0
2, 821534, Note_on_c, 0, 40, 124
2, 821546, Note_on_c, 0, 85, 110
2, 821546, Note_on_c, 0, 47, 62
2, 821560, Note_on_c, 0, 44, 79
2, 821572, Note_on_c, 0, 76, 100
2, 821576, Note_on_c, 0, 83, 127
2, 821582, Note_on_c, 0, 80, 85
2, 821604, Note_on_c, 0, 52, 117
2, 821634, Control_c, 0, 64, 0
2, 821652, Note_on_c, 0, 40, 0
2, 821672, Note_on_c, 0, 76, 0
2, 821682, Note_on_c, 0, 85, 0
2, 821684, Note_on_c, 0, 44, 0
2, 821692, Note_on_c, 0, 47, 0
2, 821698, Note_on_c, 0, 52, 0
2, 821704, Note_on_c, 0, 80, 0
2, 821716, Note_on_c, 0, 83, 0
2, 821756, Note_on_c, 0, 85, 83
2, 821774, Note_on_c, 0, 52, 108
2, 821774, Note_on_c, 0, 83, 125
2, 821774, Note_on_c, 0, 80, 72
2, 821784, Note_on_c, 0, 76, 82
2, 821834, Note_on_c, 0, 76, 0
2, 821876, Note_on_c, 0, 85, 0
2, 821884, Note_on_c, 0, 52, 0
2, 821888, Note_on_c, 0, 80, 0
2, 821904, Note_on_c, 0, 83, 0
2, 821962, Note_on_c, 0, 85, 87
2, 821974, Note_on_c, 0, 83, 117
2, 821978, Note_on_c, 0, 52, 102
2, 821982, Note_on_c, 0, 76, 92
2, 821990, Note_on_c, 0, 80, 51
2, 822040, Note_on_c, 0, 76, 0
2, 822050, Note_on_c, 0, 52, 0
2, 822074, Note_on_c, 0, 80, 0
2, 822086, Note_on_c, 0, 85, 0
2, 822112, Note_on_c, 0, 83, 0
2, 822170, Note_on_c, 0, 85, 88
2, 822180, Note_on_c, 0, 83, 121
2, 822192, Note_on_c, 0, 76, 79
2, 822196, Note_on_c, 0, 52, 98
2, 822212, Note_on_c, 0, 80, 56
2, 822228, Note_on_c, 0, 83, 0
2, 822236, Note_on_c, 0, 52, 0
2, 822238, Note_on_c, 0, 76, 0
2, 822258, Note_on_c, 0, 85, 0
2, 822261, Note_on_c, 0, 80, 0
2, 822378, Note_on_c, 0, 45, 69
2, 822404, Note_on_c, 0, 49, 62
2, 822426, Note_on_c, 0, 81, 120
2, 822434, Note_on_c, 0, 52, 70
2, 822436, Note_on_c, 0, 69, 88
2, 822446, Note_on_c, 0, 73, 62
2, 822449, Note_on_c, 0, 76, 56
2, 822464, Note_on_c, 0, 57, 80
2, 822480, Note_on_c, 0, 45, 0
2, 822483, Note_on_c, 0, 52, 0
2, 822486, Note_on_c, 0, 49, 0
2, 822524, Control_c, 0, 64, 127
2, 822532, Note_on_c, 0, 57, 0
2, 822668, Note_on_c, 0, 57, 67
2, 822702, Note_on_c, 0, 76, 0
2, 822718, Note_on_c, 0, 81, 0
2, 822718, Note_on_c, 0, 57, 0
2, 822734, Note_on_c, 0, 69, 0
2, 822734, Note_on_c, 0, 73, 0
2, 822852, Note_on_c, 0, 57, 83
2, 822916, Note_on_c, 0, 57, 0
2, 822986, Control_c, 0, 64, 0
2, 823056, Note_on_c, 0, 85, 114
2, 823062, Note_on_c, 0, 57, 88
2, 823064, Note_on_c, 0, 73, 103
2, 823114, Note_on_c, 0, 73, 0
2, 823117, Note_on_c, 0, 57, 0
2, 823128, Note_on_c, 0, 85, 0
2, 823216, Note_on_c, 0, 45, 75
2, 823228, Note_on_c, 0, 49, 75
2, 823250, Note_on_c, 0, 52, 84
2, 823290, Note_on_c, 0, 81, 117
2, 823290, Note_on_c, 0, 69, 102
2, 823298, Note_on_c, 0, 57, 91
2, 823318, Note_on_c, 0, 45, 0
2, 823332, Note_on_c, 0, 49, 0
2, 823334, Note_on_c, 0, 52, 0
2, 823334, Control_c, 0, 64, 127
2, 823396, Note_on_c, 0, 57, 0
2, 823464, Note_on_c, 0, 69, 0
2, 823494, Note_on_c, 0, 57, 56
2, 823538, Note_on_c, 0, 81, 0
2, 823566, Note_on_c, 0, 57, 0
2, 823712, Note_on_c, 0, 57, 88
2, 823770, Note_on_c, 0, 57, 0
2, 823784, Control_c, 0, 64, 0
2, 823890, Note_on_c, 0, 88, 123
2, 823898, Note_on_c, 0, 76, 111
2, 823910, Note_on_c, 0, 57, 85
2, 823928, Note_on_c, 0, 88, 0
2, 823936, Note_on_c, 0, 76, 0
2, 823960, Note_on_c, 0, 57, 0
2, 824070, Note_on_c, 0, 45, 78
2, 824080, Note_on_c, 0, 49, 74
2, 824108, Note_on_c, 0, 52, 90
2, 824122, Note_on_c, 0, 81, 126
2, 824124, Note_on_c, 0, 69, 114
2, 824132, Note_on_c, 0, 45, 0
2, 824146, Note_on_c, 0, 57, 103
2, 824166, Note_on_c, 0, 52, 0
2, 824188, Note_on_c, 0, 49, 0
2, 824198, Control_c, 0, 64, 127
2, 824236, Note_on_c, 0, 57, 0
2, 824326, Note_on_c, 0, 57, 64
2, 824374, Note_on_c, 0, 69, 0
2, 824408, Note_on_c, 0, 57, 0
2, 824436, Note_on_c, 0, 81, 0
2, 824550, Note_on_c, 0, 57, 95
2, 824568, Control_c, 0, 64, 0
2, 824600, Note_on_c, 0, 57, 0
2, 824754, Note_on_c, 0, 57, 72
2, 824757, Note_on_c, 0, 85, 103
2, 824764, Note_on_c, 0, 73, 92
2, 824796, Note_on_c, 0, 85, 0
2, 824804, Note_on_c, 0, 57, 0
2, 824812, Note_on_c, 0, 73, 0
2, 824916, Note_on_c, 0, 45, 69
2, 824934, Note_on_c, 0, 49, 61
2, 824950, Note_on_c, 0, 52, 77
2, 824972, Note_on_c, 0, 69, 100
2, 824972, Note_on_c, 0, 81, 116
2, 824986, Note_on_c, 0, 57, 90
2, 824992, Note_on_c, 0, 45, 0
2, 825006, Note_on_c, 0, 49, 0
2, 825014, Note_on_c, 0, 52, 0
2, 825020, Note_on_c, 0, 69, 0
2, 825042, Note_on_c, 0, 81, 0
2, 825044, Control_c, 0, 64, 127
2, 825048, Note_on_c, 0, 57, 0
2, 825136, Control_c, 0, 64, 0
2, 825182, Note_on_c, 0, 85, 115
2, 825182, Note_on_c, 0, 73, 106
2, 825194, Note_on_c, 0, 57, 80
2, 825222, Note_on_c, 0, 85, 0
2, 825232, Note_on_c, 0, 73, 0
2, 825242, Note_on_c, 0, 57, 0
2, 825336, Note_on_c, 0, 45, 82
2, 825348, Note_on_c, 0, 49, 78
2, 825372, Note_on_c, 0, 52, 86
2, 825382, Note_on_c, 0, 81, 124
2, 825386, Note_on_c, 0, 69, 103
2, 825388, Note_on_c, 0, 45, 0
2, 825410, Note_on_c, 0, 57, 90
2, 825420, Note_on_c, 0, 69, 0
2, 825424, Note_on_c, 0, 52, 0
2, 825438, Note_on_c, 0, 49, 0
2, 825444, Control_c, 0, 64, 127
2, 825456, Note_on_c, 0, 81, 0
2, 825474, Note_on_c, 0, 57, 0
2, 825522, Control_c, 0, 64, 0
2, 825592, Note_on_c, 0, 88, 125
2, 825602, Note_on_c, 0, 76, 103
2, 825605, Note_on_c, 0, 57, 76
2, 825620, Note_on_c, 0, 88, 0
2, 825638, Note_on_c, 0, 76, 0
2, 825660, Note_on_c, 0, 57, 0
2, 825806, Note_on_c, 0, 69, 110
2, 825808, Note_on_c, 0, 81, 120
2, 825812, Note_on_c, 0, 57, 114
2, 825820, Note_on_c, 0, 45, 98
2, 825860, Note_on_c, 0, 45, 0
2, 825863, Note_on_c, 0, 57, 0
2, 825874, Control_c, 0, 64, 127
2, 825886, Note_on_c, 0, 69, 0
2, 825916, Note_on_c, 0, 81, 0
2, 825982, Control_c, 0, 64, 0
2, 826270, Note_on_c, 0, 69, 110
2, 826274, Note_on_c, 0, 81, 122
2, 826274, Note_on_c, 0, 73, 101
2, 826278, Note_on_c, 0, 76, 111
2, 826278, Note_on_c, 0, 57, 110
2, 826280, Note_on_c, 0, 45, 110
2, 826286, Note_on_c, 0, 49, 94
2, 826286, Note_on_c, 0, 52, 105
2, 826328, Note_on_c, 0, 52, 0
2, 826382, Control_c, 0, 64, 127
2, 826385, Note_on_c, 0, 45, 0
2, 826388, Note_on_c, 0, 57, 0
2, 826392, Note_on_c, 0, 69, 0
2, 826406, Note_on_c, 0, 49, 0
2, 826412, Note_on_c, 0, 81, 0
2, 826438, Note_on_c, 0, 76, 0
2, 826444, Note_on_c, 0, 73, 0
2, 826566, Control_c, 0, 64, 0
2, 826862, Note_on_c, 0, 69, 109
2, 826865, Note_on_c, 0, 81, 123
2, 826865, Note_on_c, 0, 73, 103
2, 826868, Note_on_c, 0, 76, 110
2, 826874, Note_on_c, 0, 57, 113
2, 826880, Note_on_c, 0, 45, 102
2, 826882, Note_on_c, 0, 49, 94
2, 826888, Note_on_c, 0, 52, 99
2, 826918, Control_c, 0, 64, 127
2, 826922, Note_on_c, 0, 57, 0
2, 826924, Note_on_c, 0, 52, 0
2, 826927, Note_on_c, 0, 45, 0
2, 826950, Note_on_c, 0, 49, 0
2, 826972, Note_on_c, 0, 69, 0
2, 827000, Note_on_c, 0, 81, 0
2, 827020, Note_on_c, 0, 76, 0
2, 827024, Note_on_c, 0, 73, 0
2, 827672, Control_c, 0, 64, 0
2, 829440, Control_c, 0, 64, 0
2, 829440, End_track
0, 0, End_of_file
