0, 0, Header, 1, 5, 384
1, 0, Start_track
1, 0, Title_t, "        "
1, 0, Sequencer_specific, 3, 0, 0, 65
1, 0, Time_signature, 2, 2, 24, 8
1, 0, Key_signature, 0, "major"
1, 0, Tempo, 405405
1, 344064, Tempo, 750000
1, 344448, Tempo, 428571
1, 344832, Time_signature, 4, 2, 24, 8
1, 349440, Tempo, 447761
1, 372480, Tempo, 483871
1, 384768, Time_signature, 2, 2, 24, 8
1, 384768, Tempo, 405405
1, 384768, End_track
2, 0, Start_track
2, 0, Title_t, "Mozart Piano Concerto"
2, 0, Control_c, 0, 0, 0
2, 0, Control_c, 0, 7, 110
2, 0, Control_c, 0, 10, 89
2, 0, Control_c, 0, 91, 67
2, 0, Control_c, 0, 93, 34
2, 0, Control_c, 0, 121, 0
2, 0, Control_c, 0, 32, 0
2, 1, Program_c, 0, 0
2, 384, Control_c, 0, 10, 83
2, 480, Control_c, 0, 91, 63
2, 576, Control_c, 0, 93, 40
2, 672, Program_c, 0, 0
2, 21504, Note_on_c, 0, 79, 112
2, 22268, Note_on_c, 0, 79, 0
2, 23808, Note_on_c, 0, 62, 112
2, 23900, Note_on_c, 0, 62, 0
2, 24000, Note_on_c, 0, 64, 112
2, 24060, Note_on_c, 0, 64, 0
2, 24064, Note_on_c, 0, 62, 112
2, 24124, Note_on_c, 0, 62, 0
2, 24128, Note_on_c, 0, 61, 112
2, 24188, Note_on_c, 0, 61, 0
2, 24192, Note_on_c, 0, 62, 112
2, 24284, Note_on_c, 0, 62, 0
2, 24384, Note_on_c, 0, 64, 112
2, 24476, Note_on_c, 0, 64, 0
2, 24576, Note_on_c, 0, 65, 112
2, 24668, Note_on_c, 0, 65, 0
2, 24768, Note_on_c, 0, 67, 112
2, 24828, Note_on_c, 0, 67, 0
2, 24832, Note_on_c, 0, 65, 112
2, 24892, Note_on_c, 0, 65, 0
2, 24896, Note_on_c, 0, 64, 112
2, 24956, Note_on_c, 0, 64, 0
2, 24960, Note_on_c, 0, 65, 112
2, 25052, Note_on_c, 0, 65, 0
2, 25152, Note_on_c, 0, 66, 112
2, 25244, Note_on_c, 0, 66, 0
2, 25344, Note_on_c, 0, 67, 103
2, 25468, Note_on_c, 0, 67, 0
2, 25472, Note_on_c, 0, 69, 103
2, 25596, Note_on_c, 0, 69, 0
2, 25600, Note_on_c, 0, 70, 103
2, 25724, Note_on_c, 0, 70, 0
2, 25728, Note_on_c, 0, 71, 103
2, 25852, Note_on_c, 0, 71, 0
2, 25856, Note_on_c, 0, 72, 103
2, 25980, Note_on_c, 0, 72, 0
2, 25984, Note_on_c, 0, 73, 103
2, 26108, Note_on_c, 0, 73, 0
2, 26112, Note_on_c, 0, 74, 103
2, 26236, Note_on_c, 0, 74, 0
2, 26240, Note_on_c, 0, 76, 103
2, 26364, Note_on_c, 0, 76, 0
2, 26368, Note_on_c, 0, 78, 103
2, 26492, Note_on_c, 0, 78, 0
2, 26496, Note_on_c, 0, 79, 103
2, 26620, Note_on_c, 0, 79, 0
2, 26624, Note_on_c, 0, 80, 103
2, 26748, Note_on_c, 0, 80, 0
2, 26752, Note_on_c, 0, 81, 103
2, 26876, Note_on_c, 0, 81, 0
2, 26880, Note_on_c, 0, 83, 103
2, 26972, Note_on_c, 0, 83, 0
2, 27072, Note_on_c, 0, 81, 100
2, 27164, Note_on_c, 0, 81, 0
2, 27264, Note_on_c, 0, 80, 100
2, 27356, Note_on_c, 0, 80, 0
2, 27456, Note_on_c, 0, 79, 97
2, 27548, Note_on_c, 0, 79, 0
2, 27648, Note_on_c, 0, 78, 96
2, 27740, Note_on_c, 0, 78, 0
2, 27840, Note_on_c, 0, 77, 93
2, 27932, Note_on_c, 0, 77, 0
2, 28032, Note_on_c, 0, 76, 92
2, 28124, Note_on_c, 0, 76, 0
2, 28224, Note_on_c, 0, 75, 91
2, 28316, Note_on_c, 0, 75, 0
2, 28416, Note_on_c, 0, 76, 89
2, 28508, Note_on_c, 0, 76, 0
2, 28608, Note_on_c, 0, 77, 89
2, 28700, Note_on_c, 0, 77, 0
2, 28800, Note_on_c, 0, 78, 89
2, 28892, Note_on_c, 0, 78, 0
2, 28992, Note_on_c, 0, 79, 89
2, 29084, Note_on_c, 0, 79, 0
2, 29184, Note_on_c, 0, 81, 89
2, 29372, Note_on_c, 0, 81, 0
2, 29376, Note_on_c, 0, 79, 89
2, 29564, Note_on_c, 0, 79, 0
2, 29568, Note_on_c, 0, 77, 89
2, 29660, Note_on_c, 0, 77, 0
2, 29760, Note_on_c, 0, 76, 89
2, 29852, Note_on_c, 0, 76, 0
2, 29952, Note_on_c, 0, 74, 89
2, 30096, Note_on_c, 0, 76, 89
2, 30140, Note_on_c, 0, 76, 0
2, 30140, Note_on_c, 0, 74, 0
2, 30144, Note_on_c, 0, 74, 89
2, 30236, Note_on_c, 0, 74, 0
2, 30240, Note_on_c, 0, 72, 89
2, 30332, Note_on_c, 0, 72, 0
2, 30336, Note_on_c, 0, 74, 89
2, 30524, Note_on_c, 0, 74, 0
2, 30528, Note_on_c, 0, 74, 89
2, 30620, Note_on_c, 0, 74, 0
2, 30720, Note_on_c, 0, 74, 89
2, 30908, Note_on_c, 0, 74, 0
2, 30912, Note_on_c, 0, 75, 89
2, 31100, Note_on_c, 0, 75, 0
2, 31104, Note_on_c, 0, 76, 89
2, 31292, Note_on_c, 0, 76, 0
2, 31296, Note_on_c, 0, 72, 89
2, 31484, Note_on_c, 0, 72, 0
2, 31488, Note_on_c, 0, 76, 89
2, 31580, Note_on_c, 0, 76, 0
2, 31680, Note_on_c, 0, 77, 89
2, 31772, Note_on_c, 0, 77, 0
2, 31872, Note_on_c, 0, 78, 89
2, 31964, Note_on_c, 0, 78, 0
2, 32064, Note_on_c, 0, 79, 89
2, 32156, Note_on_c, 0, 79, 0
2, 32256, Note_on_c, 0, 81, 89
2, 32444, Note_on_c, 0, 81, 0
2, 32448, Note_on_c, 0, 79, 89
2, 32636, Note_on_c, 0, 79, 0
2, 32640, Note_on_c, 0, 77, 89
2, 32732, Note_on_c, 0, 77, 0
2, 32832, Note_on_c, 0, 76, 89
2, 32924, Note_on_c, 0, 76, 0
2, 33024, Note_on_c, 0, 74, 89
2, 33168, Note_on_c, 0, 76, 89
2, 33212, Note_on_c, 0, 76, 0
2, 33212, Note_on_c, 0, 74, 0
2, 33216, Note_on_c, 0, 74, 89
2, 33308, Note_on_c, 0, 74, 0
2, 33312, Note_on_c, 0, 72, 89
2, 33404, Note_on_c, 0, 72, 0
2, 33408, Note_on_c, 0, 74, 89
2, 33596, Note_on_c, 0, 74, 0
2, 33600, Note_on_c, 0, 76, 89
2, 33692, Note_on_c, 0, 76, 0
2, 33792, Note_on_c, 0, 72, 89
2, 34172, Note_on_c, 0, 72, 0
2, 56832, Note_on_c, 0, 60, 112
2, 56924, Note_on_c, 0, 60, 0
2, 56928, Note_on_c, 0, 72, 112
2, 57592, Note_on_c, 0, 72, 0
2, 57600, Note_on_c, 0, 64, 112
2, 57692, Note_on_c, 0, 64, 0
2, 57696, Note_on_c, 0, 76, 112
2, 58360, Note_on_c, 0, 76, 0
2, 58368, Note_on_c, 0, 67, 112
2, 58460, Note_on_c, 0, 67, 0
2, 58464, Note_on_c, 0, 79, 112
2, 59328, Note_on_c, 0, 81, 112
2, 59420, Note_on_c, 0, 81, 0
2, 59420, Note_on_c, 0, 79, 0
2, 59424, Note_on_c, 0, 79, 112
2, 59516, Note_on_c, 0, 79, 0
2, 59520, Note_on_c, 0, 77, 112
2, 59612, Note_on_c, 0, 77, 0
2, 59616, Note_on_c, 0, 76, 112
2, 59708, Note_on_c, 0, 76, 0
2, 59712, Note_on_c, 0, 74, 112
2, 59804, Note_on_c, 0, 74, 0
2, 59808, Note_on_c, 0, 72, 112
2, 59900, Note_on_c, 0, 72, 0
2, 59904, Note_on_c, 0, 71, 112
2, 59996, Note_on_c, 0, 71, 0
2, 60000, Note_on_c, 0, 74, 112
2, 60092, Note_on_c, 0, 74, 0
2, 60096, Note_on_c, 0, 72, 112
2, 60188, Note_on_c, 0, 72, 0
2, 60192, Note_on_c, 0, 76, 112
2, 60284, Note_on_c, 0, 76, 0
2, 60288, Note_on_c, 0, 74, 112
2, 60380, Note_on_c, 0, 74, 0
2, 60384, Note_on_c, 0, 77, 112
2, 60476, Note_on_c, 0, 77, 0
2, 60480, Note_on_c, 0, 76, 112
2, 60572, Note_on_c, 0, 76, 0
2, 60576, Note_on_c, 0, 79, 112
2, 60668, Note_on_c, 0, 79, 0
2, 60672, Note_on_c, 0, 77, 112
2, 60764, Note_on_c, 0, 77, 0
2, 60768, Note_on_c, 0, 81, 112
2, 60860, Note_on_c, 0, 81, 0
2, 60864, Note_on_c, 0, 79, 112
2, 60956, Note_on_c, 0, 79, 0
2, 60960, Note_on_c, 0, 83, 112
2, 61052, Note_on_c, 0, 83, 0
2, 61056, Note_on_c, 0, 81, 112
2, 61148, Note_on_c, 0, 81, 0
2, 61152, Note_on_c, 0, 84, 112
2, 61244, Note_on_c, 0, 84, 0
2, 61248, Note_on_c, 0, 83, 112
2, 61340, Note_on_c, 0, 83, 0
2, 61344, Note_on_c, 0, 86, 112
2, 61436, Note_on_c, 0, 86, 0
2, 61440, Note_on_c, 0, 84, 112
2, 61532, Note_on_c, 0, 84, 0
2, 61632, Note_on_c, 0, 79, 112
2, 61724, Note_on_c, 0, 79, 0
2, 61824, Note_on_c, 0, 79, 112
2, 62396, Note_on_c, 0, 79, 0
2, 62400, Note_on_c, 0, 81, 112
2, 62492, Note_on_c, 0, 81, 0
2, 62496, Note_on_c, 0, 79, 112
2, 62588, Note_on_c, 0, 79, 0
2, 62592, Note_on_c, 0, 77, 112
2, 62684, Note_on_c, 0, 77, 0
2, 62688, Note_on_c, 0, 76, 112
2, 62780, Note_on_c, 0, 76, 0
2, 62784, Note_on_c, 0, 74, 112
2, 62876, Note_on_c, 0, 74, 0
2, 62880, Note_on_c, 0, 72, 112
2, 62972, Note_on_c, 0, 72, 0
2, 62976, Note_on_c, 0, 71, 112
2, 63068, Note_on_c, 0, 71, 0
2, 63072, Note_on_c, 0, 74, 112
2, 63164, Note_on_c, 0, 74, 0
2, 63168, Note_on_c, 0, 72, 112
2, 63260, Note_on_c, 0, 72, 0
2, 63264, Note_on_c, 0, 76, 112
2, 63356, Note_on_c, 0, 76, 0
2, 63360, Note_on_c, 0, 74, 112
2, 63452, Note_on_c, 0, 74, 0
2, 63456, Note_on_c, 0, 77, 112
2, 63548, Note_on_c, 0, 77, 0
2, 63552, Note_on_c, 0, 76, 112
2, 63644, Note_on_c, 0, 76, 0
2, 63648, Note_on_c, 0, 79, 112
2, 63740, Note_on_c, 0, 79, 0
2, 63744, Note_on_c, 0, 77, 112
2, 63836, Note_on_c, 0, 77, 0
2, 63840, Note_on_c, 0, 81, 112
2, 63932, Note_on_c, 0, 81, 0
2, 63936, Note_on_c, 0, 79, 112
2, 64028, Note_on_c, 0, 79, 0
2, 64032, Note_on_c, 0, 83, 112
2, 64124, Note_on_c, 0, 83, 0
2, 64128, Note_on_c, 0, 81, 112
2, 64220, Note_on_c, 0, 81, 0
2, 64224, Note_on_c, 0, 84, 112
2, 64316, Note_on_c, 0, 84, 0
2, 64320, Note_on_c, 0, 83, 112
2, 64412, Note_on_c, 0, 83, 0
2, 64416, Note_on_c, 0, 86, 112
2, 64508, Note_on_c, 0, 86, 0
2, 64512, Note_on_c, 0, 84, 112
2, 64604, Note_on_c, 0, 84, 0
2, 64608, Note_on_c, 0, 86, 112
2, 64700, Note_on_c, 0, 86, 0
2, 64704, Note_on_c, 0, 88, 112
2, 64796, Note_on_c, 0, 88, 0
2, 64800, Note_on_c, 0, 86, 112
2, 64892, Note_on_c, 0, 86, 0
2, 64896, Note_on_c, 0, 84, 112
2, 64988, Note_on_c, 0, 84, 0
2, 64992, Note_on_c, 0, 83, 112
2, 65084, Note_on_c, 0, 83, 0
2, 65088, Note_on_c, 0, 81, 112
2, 65180, Note_on_c, 0, 81, 0
2, 65184, Note_on_c, 0, 80, 112
2, 65276, Note_on_c, 0, 80, 0
2, 65280, Note_on_c, 0, 81, 112
2, 65372, Note_on_c, 0, 81, 0
2, 65376, Note_on_c, 0, 83, 112
2, 65468, Note_on_c, 0, 83, 0
2, 65472, Note_on_c, 0, 84, 112
2, 65564, Note_on_c, 0, 84, 0
2, 65568, Note_on_c, 0, 83, 112
2, 65660, Note_on_c, 0, 83, 0
2, 65664, Note_on_c, 0, 81, 112
2, 65756, Note_on_c, 0, 81, 0
2, 65760, Note_on_c, 0, 79, 112
2, 65852, Note_on_c, 0, 79, 0
2, 65856, Note_on_c, 0, 77, 112
2, 65948, Note_on_c, 0, 77, 0
2, 65952, Note_on_c, 0, 76, 112
2, 66044, Note_on_c, 0, 76, 0
2, 66048, Note_on_c, 0, 77, 112
2, 66140, Note_on_c, 0, 77, 0
2, 66144, Note_on_c, 0, 79, 112
2, 66236, Note_on_c, 0, 79, 0
2, 66240, Note_on_c, 0, 81, 112
2, 66332, Note_on_c, 0, 81, 0
2, 66336, Note_on_c, 0, 79, 112
2, 66428, Note_on_c, 0, 79, 0
2, 66432, Note_on_c, 0, 77, 112
2, 66524, Note_on_c, 0, 77, 0
2, 66528, Note_on_c, 0, 76, 112
2, 66620, Note_on_c, 0, 76, 0
2, 66624, Note_on_c, 0, 74, 112
2, 66716, Note_on_c, 0, 74, 0
2, 66720, Note_on_c, 0, 73, 112
2, 66812, Note_on_c, 0, 73, 0
2, 66816, Note_on_c, 0, 74, 112
2, 66908, Note_on_c, 0, 74, 0
2, 66912, Note_on_c, 0, 76, 112
2, 67004, Note_on_c, 0, 76, 0
2, 67008, Note_on_c, 0, 77, 112
2, 67100, Note_on_c, 0, 77, 0
2, 67104, Note_on_c, 0, 76, 112
2, 67196, Note_on_c, 0, 76, 0
2, 67200, Note_on_c, 0, 79, 112
2, 67292, Note_on_c, 0, 79, 0
2, 67296, Note_on_c, 0, 77, 112
2, 67388, Note_on_c, 0, 77, 0
2, 67392, Note_on_c, 0, 76, 112
2, 67484, Note_on_c, 0, 76, 0
2, 67488, Note_on_c, 0, 74, 112
2, 67580, Note_on_c, 0, 74, 0
2, 67584, Note_on_c, 0, 79, 112
2, 67676, Note_on_c, 0, 79, 0
2, 67776, Note_on_c, 0, 78, 112
2, 67868, Note_on_c, 0, 78, 0
2, 67968, Note_on_c, 0, 77, 112
2, 68060, Note_on_c, 0, 77, 0
2, 68160, Note_on_c, 0, 76, 112
2, 68252, Note_on_c, 0, 76, 0
2, 68352, Note_on_c, 0, 76, 112
2, 68540, Note_on_c, 0, 76, 0
2, 68544, Note_on_c, 0, 74, 112
2, 68732, Note_on_c, 0, 74, 0
2, 68736, Note_on_c, 0, 77, 112
2, 68828, Note_on_c, 0, 77, 0
2, 68928, Note_on_c, 0, 71, 112
2, 69020, Note_on_c, 0, 71, 0
2, 69120, Note_on_c, 0, 72, 112
2, 69500, Note_on_c, 0, 72, 0
2, 75456, Note_on_c, 0, 71, 96
2, 75548, Note_on_c, 0, 71, 0
2, 75648, Note_on_c, 0, 72, 92
2, 75740, Note_on_c, 0, 72, 0
2, 75840, Note_on_c, 0, 74, 89
2, 75932, Note_on_c, 0, 74, 0
2, 76032, Note_on_c, 0, 76, 89
2, 76124, Note_on_c, 0, 76, 0
2, 76224, Note_on_c, 0, 77, 89
2, 76316, Note_on_c, 0, 77, 0
2, 76416, Note_on_c, 0, 78, 89
2, 76508, Note_on_c, 0, 78, 0
2, 76608, Note_on_c, 0, 79, 89
2, 76700, Note_on_c, 0, 79, 0
2, 76800, Note_on_c, 0, 81, 89
2, 76988, Note_on_c, 0, 81, 0
2, 76992, Note_on_c, 0, 79, 89
2, 77180, Note_on_c, 0, 79, 0
2, 77184, Note_on_c, 0, 77, 89
2, 77276, Note_on_c, 0, 77, 0
2, 77376, Note_on_c, 0, 76, 89
2, 77468, Note_on_c, 0, 76, 0
2, 77568, Note_on_c, 0, 76, 89
2, 77568, Note_on_c, 0, 60, 89
2, 77712, Note_on_c, 0, 77, 89
2, 77756, Note_on_c, 0, 77, 0
2, 77756, Note_on_c, 0, 60, 0
2, 77756, Note_on_c, 0, 76, 0
2, 77760, Note_on_c, 0, 76, 89
2, 77760, Note_on_c, 0, 67, 89
2, 77852, Note_on_c, 0, 76, 0
2, 77856, Note_on_c, 0, 74, 89
2, 77948, Note_on_c, 0, 74, 0
2, 77948, Note_on_c, 0, 67, 0
2, 77952, Note_on_c, 0, 76, 89
2, 77952, Note_on_c, 0, 64, 89
2, 78140, Note_on_c, 0, 64, 0
2, 78140, Note_on_c, 0, 76, 0
2, 78144, Note_on_c, 0, 77, 89
2, 78144, Note_on_c, 0, 67, 89
2, 78236, Note_on_c, 0, 77, 0
2, 78332, Note_on_c, 0, 67, 0
2, 78336, Note_on_c, 0, 76, 89
2, 78336, Note_on_c, 0, 59, 89
2, 78524, Note_on_c, 0, 59, 0
2, 78524, Note_on_c, 0, 76, 0
2, 78528, Note_on_c, 0, 75, 89
2, 78528, Note_on_c, 0, 68, 89
2, 78716, Note_on_c, 0, 68, 0
2, 78716, Note_on_c, 0, 75, 0
2, 78720, Note_on_c, 0, 74, 89
2, 78720, Note_on_c, 0, 64, 89
2, 78908, Note_on_c, 0, 64, 0
2, 78908, Note_on_c, 0, 74, 0
2, 78912, Note_on_c, 0, 74, 89
2, 78912, Note_on_c, 0, 68, 89
2, 79004, Note_on_c, 0, 74, 0
2, 79100, Note_on_c, 0, 68, 0
2, 79104, Note_on_c, 0, 74, 89
2, 79104, Note_on_c, 0, 59, 89
2, 79292, Note_on_c, 0, 59, 0
2, 79292, Note_on_c, 0, 74, 0
2, 79296, Note_on_c, 0, 86, 89
2, 79296, Note_on_c, 0, 68, 89
2, 79484, Note_on_c, 0, 68, 0
2, 79484, Note_on_c, 0, 86, 0
2, 79488, Note_on_c, 0, 84, 89
2, 79488, Note_on_c, 0, 64, 89
2, 79580, Note_on_c, 0, 84, 0
2, 79676, Note_on_c, 0, 64, 0
2, 79680, Note_on_c, 0, 83, 89
2, 79680, Note_on_c, 0, 68, 89
2, 79772, Note_on_c, 0, 83, 0
2, 79868, Note_on_c, 0, 68, 0
2, 79872, Note_on_c, 0, 81, 89
2, 79964, Note_on_c, 0, 81, 0
2, 80064, Note_on_c, 0, 80, 89
2, 80156, Note_on_c, 0, 80, 0
2, 80256, Note_on_c, 0, 79, 89
2, 80348, Note_on_c, 0, 79, 0
2, 80448, Note_on_c, 0, 78, 89
2, 80540, Note_on_c, 0, 78, 0
2, 80640, Note_on_c, 0, 77, 89
2, 80732, Note_on_c, 0, 77, 0
2, 80832, Note_on_c, 0, 76, 89
2, 80924, Note_on_c, 0, 76, 0
2, 81024, Note_on_c, 0, 75, 89
2, 81116, Note_on_c, 0, 75, 0
2, 81216, Note_on_c, 0, 74, 89
2, 81308, Note_on_c, 0, 74, 0
2, 81408, Note_on_c, 0, 74, 89
2, 81596, Note_on_c, 0, 74, 0
2, 81600, Note_on_c, 0, 73, 89
2, 81788, Note_on_c, 0, 73, 0
2, 81792, Note_on_c, 0, 72, 89
2, 81980, Note_on_c, 0, 72, 0
2, 81984, Note_on_c, 0, 71, 89
2, 82076, Note_on_c, 0, 71, 0
2, 82176, Note_on_c, 0, 72, 89
2, 82364, Note_on_c, 0, 72, 0
2, 82368, Note_on_c, 0, 84, 89
2, 82556, Note_on_c, 0, 84, 0
2, 82560, Note_on_c, 0, 82, 89
2, 82652, Note_on_c, 0, 82, 0
2, 82752, Note_on_c, 0, 81, 89
2, 82844, Note_on_c, 0, 81, 0
2, 82944, Note_on_c, 0, 79, 89
2, 83036, Note_on_c, 0, 79, 0
2, 83136, Note_on_c, 0, 78, 89
2, 83228, Note_on_c, 0, 78, 0
2, 83328, Note_on_c, 0, 77, 89
2, 83420, Note_on_c, 0, 77, 0
2, 83520, Note_on_c, 0, 76, 89
2, 83612, Note_on_c, 0, 76, 0
2, 83712, Note_on_c, 0, 76, 89
2, 83804, Note_on_c, 0, 76, 0
2, 83904, Note_on_c, 0, 74, 89
2, 83996, Note_on_c, 0, 74, 0
2, 84096, Note_on_c, 0, 73, 89
2, 84188, Note_on_c, 0, 73, 0
2, 84288, Note_on_c, 0, 72, 89
2, 84380, Note_on_c, 0, 72, 0
2, 84480, Note_on_c, 0, 72, 89
2, 84668, Note_on_c, 0, 72, 0
2, 84672, Note_on_c, 0, 71, 89
2, 84860, Note_on_c, 0, 71, 0
2, 84864, Note_on_c, 0, 70, 89
2, 85052, Note_on_c, 0, 70, 0
2, 85056, Note_on_c, 0, 71, 89
2, 85148, Note_on_c, 0, 71, 0
2, 85248, Note_on_c, 0, 70, 89
2, 85340, Note_on_c, 0, 70, 0
2, 85392, Note_on_c, 0, 81, 89
2, 85436, Note_on_c, 0, 81, 0
2, 85440, Note_on_c, 0, 79, 89
2, 85532, Note_on_c, 0, 79, 0
2, 85536, Note_on_c, 0, 78, 89
2, 85628, Note_on_c, 0, 78, 0
2, 85632, Note_on_c, 0, 79, 89
2, 85820, Note_on_c, 0, 79, 0
2, 85824, Note_on_c, 0, 79, 89
2, 85916, Note_on_c, 0, 79, 0
2, 86016, Note_on_c, 0, 82, 89
2, 86588, Note_on_c, 0, 82, 0
2, 86592, Note_on_c, 0, 79, 89
2, 86780, Note_on_c, 0, 79, 0
2, 86928, Note_on_c, 0, 81, 89
2, 86972, Note_on_c, 0, 81, 0
2, 86976, Note_on_c, 0, 79, 89
2, 87068, Note_on_c, 0, 79, 0
2, 87072, Note_on_c, 0, 78, 89
2, 87164, Note_on_c, 0, 78, 0
2, 87168, Note_on_c, 0, 79, 89
2, 87356, Note_on_c, 0, 79, 0
2, 87360, Note_on_c, 0, 79, 89
2, 87452, Note_on_c, 0, 79, 0
2, 87552, Note_on_c, 0, 82, 89
2, 88124, Note_on_c, 0, 82, 0
2, 88128, Note_on_c, 0, 79, 89
2, 88316, Note_on_c, 0, 79, 0
2, 88464, Note_on_c, 0, 81, 89
2, 88508, Note_on_c, 0, 81, 0
2, 88512, Note_on_c, 0, 79, 89
2, 88604, Note_on_c, 0, 79, 0
2, 88608, Note_on_c, 0, 78, 89
2, 88700, Note_on_c, 0, 78, 0
2, 88704, Note_on_c, 0, 79, 89
2, 88892, Note_on_c, 0, 79, 0
2, 88896, Note_on_c, 0, 79, 89
2, 88988, Note_on_c, 0, 79, 0
2, 89088, Note_on_c, 0, 82, 112
2, 89180, Note_on_c, 0, 82, 0
2, 89184, Note_on_c, 0, 81, 112
2, 89276, Note_on_c, 0, 81, 0
2, 89280, Note_on_c, 0, 79, 112
2, 89372, Note_on_c, 0, 79, 0
2, 89376, Note_on_c, 0, 78, 112
2, 89468, Note_on_c, 0, 78, 0
2, 89472, Note_on_c, 0, 79, 112
2, 89564, Note_on_c, 0, 79, 0
2, 89568, Note_on_c, 0, 82, 112
2, 89660, Note_on_c, 0, 82, 0
2, 89664, Note_on_c, 0, 81, 112
2, 89756, Note_on_c, 0, 81, 0
2, 89760, Note_on_c, 0, 84, 112
2, 89852, Note_on_c, 0, 84, 0
2, 89856, Note_on_c, 0, 82, 112
2, 89948, Note_on_c, 0, 82, 0
2, 89952, Note_on_c, 0, 81, 112
2, 90044, Note_on_c, 0, 81, 0
2, 90048, Note_on_c, 0, 79, 112
2, 90140, Note_on_c, 0, 79, 0
2, 90144, Note_on_c, 0, 78, 112
2, 90236, Note_on_c, 0, 78, 0
2, 90240, Note_on_c, 0, 79, 112
2, 90332, Note_on_c, 0, 79, 0
2, 90336, Note_on_c, 0, 82, 112
2, 90428, Note_on_c, 0, 82, 0
2, 90432, Note_on_c, 0, 81, 112
2, 90524, Note_on_c, 0, 81, 0
2, 90528, Note_on_c, 0, 84, 112
2, 90620, Note_on_c, 0, 84, 0
2, 90624, Note_on_c, 0, 84, 112
2, 90812, Note_on_c, 0, 84, 0
2, 90816, Note_on_c, 0, 82, 112
2, 91004, Note_on_c, 0, 82, 0
2, 91008, Note_on_c, 0, 81, 112
2, 91196, Note_on_c, 0, 81, 0
2, 91200, Note_on_c, 0, 79, 112
2, 91388, Note_on_c, 0, 79, 0
2, 91392, Note_on_c, 0, 77, 112
2, 91392, Note_on_c, 0, 63, 112
2, 91392, Note_on_c, 0, 67, 112
2, 91580, Note_on_c, 0, 77, 0
2, 91584, Note_on_c, 0, 75, 112
2, 91772, Note_on_c, 0, 75, 0
2, 91776, Note_on_c, 0, 74, 112
2, 91964, Note_on_c, 0, 74, 0
2, 91968, Note_on_c, 0, 73, 112
2, 92156, Note_on_c, 0, 73, 0
2, 92156, Note_on_c, 0, 67, 0
2, 92156, Note_on_c, 0, 63, 0
2, 92160, Note_on_c, 0, 74, 112
2, 92160, Note_on_c, 0, 66, 112
2, 92348, Note_on_c, 0, 66, 0
2, 92348, Note_on_c, 0, 74, 0
2, 92352, Note_on_c, 0, 62, 112
2, 92540, Note_on_c, 0, 62, 0
2, 92544, Note_on_c, 0, 74, 112
2, 92544, Note_on_c, 0, 66, 112
2, 92636, Note_on_c, 0, 74, 0
2, 92640, Note_on_c, 0, 77, 112
2, 92732, Note_on_c, 0, 77, 0
2, 92732, Note_on_c, 0, 66, 0
2, 92736, Note_on_c, 0, 81, 112
2, 92736, Note_on_c, 0, 62, 112
2, 92828, Note_on_c, 0, 81, 0
2, 92832, Note_on_c, 0, 86, 112
2, 92924, Note_on_c, 0, 86, 0
2, 92924, Note_on_c, 0, 62, 0
2, 92928, Note_on_c, 0, 82, 112
2, 92928, Note_on_c, 0, 67, 112
2, 93116, Note_on_c, 0, 67, 0
2, 93116, Note_on_c, 0, 82, 0
2, 93120, Note_on_c, 0, 62, 112
2, 93308, Note_on_c, 0, 62, 0
2, 93312, Note_on_c, 0, 82, 112
2, 93312, Note_on_c, 0, 67, 112
2, 93404, Note_on_c, 0, 82, 0
2, 93408, Note_on_c, 0, 79, 112
2, 93500, Note_on_c, 0, 79, 0
2, 93500, Note_on_c, 0, 67, 0
2, 93504, Note_on_c, 0, 75, 112
2, 93504, Note_on_c, 0, 62, 112
2, 93596, Note_on_c, 0, 75, 0
2, 93600, Note_on_c, 0, 73, 112
2, 93692, Note_on_c, 0, 73, 0
2, 93692, Note_on_c, 0, 62, 0
2, 93696, Note_on_c, 0, 74, 112
2, 93696, Note_on_c, 0, 66, 112
2, 93884, Note_on_c, 0, 66, 0
2, 93884, Note_on_c, 0, 74, 0
2, 93888, Note_on_c, 0, 62, 112
2, 94076, Note_on_c, 0, 62, 0
2, 94080, Note_on_c, 0, 74, 112
2, 94080, Note_on_c, 0, 66, 112
2, 94172, Note_on_c, 0, 74, 0
2, 94176, Note_on_c, 0, 78, 112
2, 94268, Note_on_c, 0, 78, 0
2, 94268, Note_on_c, 0, 66, 0
2, 94272, Note_on_c, 0, 81, 112
2, 94272, Note_on_c, 0, 62, 112
2, 94364, Note_on_c, 0, 81, 0
2, 94368, Note_on_c, 0, 86, 112
2, 94460, Note_on_c, 0, 86, 0
2, 94460, Note_on_c, 0, 62, 0
2, 94464, Note_on_c, 0, 84, 112
2, 94464, Note_on_c, 0, 67, 112
2, 94556, Note_on_c, 0, 84, 0
2, 94560, Note_on_c, 0, 82, 112
2, 94652, Note_on_c, 0, 82, 0
2, 94652, Note_on_c, 0, 67, 0
2, 94656, Note_on_c, 0, 81, 112
2, 94656, Note_on_c, 0, 62, 112
2, 94748, Note_on_c, 0, 81, 0
2, 94752, Note_on_c, 0, 79, 112
2, 94844, Note_on_c, 0, 79, 0
2, 94844, Note_on_c, 0, 62, 0
2, 94848, Note_on_c, 0, 77, 112
2, 94848, Note_on_c, 0, 67, 112
2, 94940, Note_on_c, 0, 77, 0
2, 94944, Note_on_c, 0, 75, 112
2, 95036, Note_on_c, 0, 75, 0
2, 95036, Note_on_c, 0, 67, 0
2, 95040, Note_on_c, 0, 74, 112
2, 95040, Note_on_c, 0, 62, 112
2, 95132, Note_on_c, 0, 74, 0
2, 95136, Note_on_c, 0, 73, 112
2, 95228, Note_on_c, 0, 73, 0
2, 95228, Note_on_c, 0, 62, 0
2, 95232, Note_on_c, 0, 74, 112
2, 95232, Note_on_c, 0, 66, 112
2, 95232, Note_on_c, 0, 62, 112
2, 95324, Note_on_c, 0, 74, 0
2, 95328, Note_on_c, 0, 78, 112
2, 95420, Note_on_c, 0, 78, 0
2, 95424, Note_on_c, 0, 81, 112
2, 95516, Note_on_c, 0, 81, 0
2, 95520, Note_on_c, 0, 88, 112
2, 95612, Note_on_c, 0, 88, 0
2, 95612, Note_on_c, 0, 62, 0
2, 95612, Note_on_c, 0, 66, 0
2, 95616, Note_on_c, 0, 74, 112
2, 95708, Note_on_c, 0, 74, 0
2, 95712, Note_on_c, 0, 86, 112
2, 95804, Note_on_c, 0, 86, 0
2, 95808, Note_on_c, 0, 74, 112
2, 95900, Note_on_c, 0, 74, 0
2, 95904, Note_on_c, 0, 86, 112
2, 95996, Note_on_c, 0, 86, 0
2, 96000, Note_on_c, 0, 74, 112
2, 96380, Note_on_c, 0, 74, 0
2, 105024, Note_on_c, 0, 79, 89
2, 105068, Note_on_c, 0, 79, 0
2, 105072, Note_on_c, 0, 81, 89
2, 105116, Note_on_c, 0, 81, 0
2, 105120, Note_on_c, 0, 79, 89
2, 105164, Note_on_c, 0, 79, 0
2, 105168, Note_on_c, 0, 81, 89
2, 105212, Note_on_c, 0, 81, 0
2, 105216, Note_on_c, 0, 83, 89
2, 105404, Note_on_c, 0, 83, 0
2, 105408, Note_on_c, 0, 83, 89
2, 105500, Note_on_c, 0, 83, 0
2, 105792, Note_on_c, 0, 79, 89
2, 105980, Note_on_c, 0, 79, 0
2, 105984, Note_on_c, 0, 76, 89
2, 106172, Note_on_c, 0, 76, 0
2, 106176, Note_on_c, 0, 76, 89
2, 106268, Note_on_c, 0, 76, 0
2, 106560, Note_on_c, 0, 84, 89
2, 106604, Note_on_c, 0, 84, 0
2, 106608, Note_on_c, 0, 86, 89
2, 106652, Note_on_c, 0, 86, 0
2, 106656, Note_on_c, 0, 84, 89
2, 106700, Note_on_c, 0, 84, 0
2, 106704, Note_on_c, 0, 86, 89
2, 106748, Note_on_c, 0, 86, 0
2, 106752, Note_on_c, 0, 88, 89
2, 106940, Note_on_c, 0, 88, 0
2, 106944, Note_on_c, 0, 88, 89
2, 107036, Note_on_c, 0, 88, 0
2, 107328, Note_on_c, 0, 84, 89
2, 107516, Note_on_c, 0, 84, 0
2, 107520, Note_on_c, 0, 83, 89
2, 107708, Note_on_c, 0, 83, 0
2, 107712, Note_on_c, 0, 83, 89
2, 107804, Note_on_c, 0, 83, 0
2, 108096, Note_on_c, 0, 79, 89
2, 108284, Note_on_c, 0, 79, 0
2, 108288, Note_on_c, 0, 78, 89
2, 108476, Note_on_c, 0, 78, 0
2, 108480, Note_on_c, 0, 78, 89
2, 108572, Note_on_c, 0, 78, 0
2, 108864, Note_on_c, 0, 79, 89
2, 109052, Note_on_c, 0, 79, 0
2, 109056, Note_on_c, 0, 78, 89
2, 109244, Note_on_c, 0, 78, 0
2, 109248, Note_on_c, 0, 78, 89
2, 109340, Note_on_c, 0, 78, 0
2, 109632, Note_on_c, 0, 79, 89
2, 109820, Note_on_c, 0, 79, 0
2, 109824, Note_on_c, 0, 78, 89
2, 109824, Note_on_c, 0, 81, 89
2, 110012, Note_on_c, 0, 81, 0
2, 110012, Note_on_c, 0, 78, 0
2, 110016, Note_on_c, 0, 78, 89
2, 110016, Note_on_c, 0, 81, 89
2, 110108, Note_on_c, 0, 81, 0
2, 110108, Note_on_c, 0, 78, 0
2, 110400, Note_on_c, 0, 79, 89
2, 110400, Note_on_c, 0, 83, 89
2, 110588, Note_on_c, 0, 83, 0
2, 110588, Note_on_c, 0, 79, 0
2, 110592, Note_on_c, 0, 84, 89
2, 110684, Note_on_c, 0, 84, 0
2, 110688, Note_on_c, 0, 83, 89
2, 110780, Note_on_c, 0, 83, 0
2, 110784, Note_on_c, 0, 81, 89
2, 110876, Note_on_c, 0, 81, 0
2, 110880, Note_on_c, 0, 79, 89
2, 110972, Note_on_c, 0, 79, 0
2, 110976, Note_on_c, 0, 78, 89
2, 111068, Note_on_c, 0, 78, 0
2, 111072, Note_on_c, 0, 76, 89
2, 111164, Note_on_c, 0, 76, 0
2, 111168, Note_on_c, 0, 74, 89
2, 111260, Note_on_c, 0, 74, 0
2, 111264, Note_on_c, 0, 72, 89
2, 111356, Note_on_c, 0, 72, 0
2, 111360, Note_on_c, 0, 71, 89
2, 111452, Note_on_c, 0, 71, 0
2, 111456, Note_on_c, 0, 72, 89
2, 111548, Note_on_c, 0, 72, 0
2, 111552, Note_on_c, 0, 74, 89
2, 111644, Note_on_c, 0, 74, 0
2, 111648, Note_on_c, 0, 76, 89
2, 111740, Note_on_c, 0, 76, 0
2, 111744, Note_on_c, 0, 78, 89
2, 111836, Note_on_c, 0, 78, 0
2, 111840, Note_on_c, 0, 79, 89
2, 111932, Note_on_c, 0, 79, 0
2, 111936, Note_on_c, 0, 81, 89
2, 112028, Note_on_c, 0, 81, 0
2, 112032, Note_on_c, 0, 83, 89
2, 112124, Note_on_c, 0, 83, 0
2, 112128, Note_on_c, 0, 84, 89
2, 112220, Note_on_c, 0, 84, 0
2, 112224, Note_on_c, 0, 83, 89
2, 112316, Note_on_c, 0, 83, 0
2, 112320, Note_on_c, 0, 81, 89
2, 112412, Note_on_c, 0, 81, 0
2, 112416, Note_on_c, 0, 79, 89
2, 112508, Note_on_c, 0, 79, 0
2, 112512, Note_on_c, 0, 78, 89
2, 112604, Note_on_c, 0, 78, 0
2, 112608, Note_on_c, 0, 76, 89
2, 112700, Note_on_c, 0, 76, 0
2, 112704, Note_on_c, 0, 74, 89
2, 112796, Note_on_c, 0, 74, 0
2, 112800, Note_on_c, 0, 72, 89
2, 112892, Note_on_c, 0, 72, 0
2, 112896, Note_on_c, 0, 71, 89
2, 112988, Note_on_c, 0, 71, 0
2, 112992, Note_on_c, 0, 74, 89
2, 113084, Note_on_c, 0, 74, 0
2, 113088, Note_on_c, 0, 76, 89
2, 113180, Note_on_c, 0, 76, 0
2, 113184, Note_on_c, 0, 78, 89
2, 113276, Note_on_c, 0, 78, 0
2, 113280, Note_on_c, 0, 79, 89
2, 113372, Note_on_c, 0, 79, 0
2, 113376, Note_on_c, 0, 81, 89
2, 113468, Note_on_c, 0, 81, 0
2, 113472, Note_on_c, 0, 83, 89
2, 113564, Note_on_c, 0, 83, 0
2, 113568, Note_on_c, 0, 84, 89
2, 113660, Note_on_c, 0, 84, 0
2, 113664, Note_on_c, 0, 86, 89
2, 113756, Note_on_c, 0, 86, 0
2, 113760, Note_on_c, 0, 84, 89
2, 113852, Note_on_c, 0, 84, 0
2, 113856, Note_on_c, 0, 83, 89
2, 113948, Note_on_c, 0, 83, 0
2, 113952, Note_on_c, 0, 81, 89
2, 114044, Note_on_c, 0, 81, 0
2, 114048, Note_on_c, 0, 79, 89
2, 114140, Note_on_c, 0, 79, 0
2, 114144, Note_on_c, 0, 77, 89
2, 114236, Note_on_c, 0, 77, 0
2, 114240, Note_on_c, 0, 76, 89
2, 114332, Note_on_c, 0, 76, 0
2, 114336, Note_on_c, 0, 74, 89
2, 114428, Note_on_c, 0, 74, 0
2, 114432, Note_on_c, 0, 76, 89
2, 114524, Note_on_c, 0, 76, 0
2, 114528, Note_on_c, 0, 79, 89
2, 114620, Note_on_c, 0, 79, 0
2, 114624, Note_on_c, 0, 77, 89
2, 114716, Note_on_c, 0, 77, 0
2, 114720, Note_on_c, 0, 76, 89
2, 114812, Note_on_c, 0, 76, 0
2, 114816, Note_on_c, 0, 77, 89
2, 114908, Note_on_c, 0, 77, 0
2, 114912, Note_on_c, 0, 79, 89
2, 115004, Note_on_c, 0, 79, 0
2, 115008, Note_on_c, 0, 81, 89
2, 115100, Note_on_c, 0, 81, 0
2, 115104, Note_on_c, 0, 83, 89
2, 115196, Note_on_c, 0, 83, 0
2, 115200, Note_on_c, 0, 84, 89
2, 115292, Note_on_c, 0, 84, 0
2, 115296, Note_on_c, 0, 86, 89
2, 115388, Note_on_c, 0, 86, 0
2, 115392, Note_on_c, 0, 84, 89
2, 115484, Note_on_c, 0, 84, 0
2, 115488, Note_on_c, 0, 83, 89
2, 115580, Note_on_c, 0, 83, 0
2, 115584, Note_on_c, 0, 81, 89
2, 115676, Note_on_c, 0, 81, 0
2, 115680, Note_on_c, 0, 79, 89
2, 115772, Note_on_c, 0, 79, 0
2, 115776, Note_on_c, 0, 78, 89
2, 115868, Note_on_c, 0, 78, 0
2, 115872, Note_on_c, 0, 76, 89
2, 115964, Note_on_c, 0, 76, 0
2, 115968, Note_on_c, 0, 75, 89
2, 116060, Note_on_c, 0, 75, 0
2, 116064, Note_on_c, 0, 78, 89
2, 116156, Note_on_c, 0, 78, 0
2, 116160, Note_on_c, 0, 76, 89
2, 116252, Note_on_c, 0, 76, 0
2, 116256, Note_on_c, 0, 75, 89
2, 116348, Note_on_c, 0, 75, 0
2, 116352, Note_on_c, 0, 76, 89
2, 116444, Note_on_c, 0, 76, 0
2, 116448, Note_on_c, 0, 78, 89
2, 116540, Note_on_c, 0, 78, 0
2, 116544, Note_on_c, 0, 80, 89
2, 116636, Note_on_c, 0, 80, 0
2, 116640, Note_on_c, 0, 81, 89
2, 116732, Note_on_c, 0, 81, 0
2, 116736, Note_on_c, 0, 83, 89
2, 116828, Note_on_c, 0, 83, 0
2, 116832, Note_on_c, 0, 84, 89
2, 116924, Note_on_c, 0, 84, 0
2, 116928, Note_on_c, 0, 83, 89
2, 117020, Note_on_c, 0, 83, 0
2, 117024, Note_on_c, 0, 81, 89
2, 117116, Note_on_c, 0, 81, 0
2, 117120, Note_on_c, 0, 80, 89
2, 117212, Note_on_c, 0, 80, 0
2, 117216, Note_on_c, 0, 77, 89
2, 117308, Note_on_c, 0, 77, 0
2, 117312, Note_on_c, 0, 76, 89
2, 117404, Note_on_c, 0, 76, 0
2, 117408, Note_on_c, 0, 74, 89
2, 117500, Note_on_c, 0, 74, 0
2, 117504, Note_on_c, 0, 72, 89
2, 117596, Note_on_c, 0, 72, 0
2, 117600, Note_on_c, 0, 76, 89
2, 117692, Note_on_c, 0, 76, 0
2, 117696, Note_on_c, 0, 74, 89
2, 117788, Note_on_c, 0, 74, 0
2, 117792, Note_on_c, 0, 72, 89
2, 117884, Note_on_c, 0, 72, 0
2, 117888, Note_on_c, 0, 74, 89
2, 117980, Note_on_c, 0, 74, 0
2, 117984, Note_on_c, 0, 76, 89
2, 118076, Note_on_c, 0, 76, 0
2, 118080, Note_on_c, 0, 78, 89
2, 118172, Note_on_c, 0, 78, 0
2, 118176, Note_on_c, 0, 79, 89
2, 118268, Note_on_c, 0, 79, 0
2, 118272, Note_on_c, 0, 81, 89
2, 118364, Note_on_c, 0, 81, 0
2, 118368, Note_on_c, 0, 83, 89
2, 118460, Note_on_c, 0, 83, 0
2, 118464, Note_on_c, 0, 81, 89
2, 118556, Note_on_c, 0, 81, 0
2, 118560, Note_on_c, 0, 79, 89
2, 118652, Note_on_c, 0, 79, 0
2, 118672, Note_on_c, 0, 78, 89
2, 118752, Note_on_c, 0, 76, 89
2, 118764, Note_on_c, 0, 78, 0
2, 118844, Note_on_c, 0, 76, 0
2, 118848, Note_on_c, 0, 74, 89
2, 118940, Note_on_c, 0, 74, 0
2, 118944, Note_on_c, 0, 72, 89
2, 119036, Note_on_c, 0, 72, 0
2, 119040, Note_on_c, 0, 71, 89
2, 119132, Note_on_c, 0, 71, 0
2, 119136, Note_on_c, 0, 75, 89
2, 119228, Note_on_c, 0, 75, 0
2, 119232, Note_on_c, 0, 73, 89
2, 119324, Note_on_c, 0, 73, 0
2, 119328, Note_on_c, 0, 71, 89
2, 119420, Note_on_c, 0, 71, 0
2, 119424, Note_on_c, 0, 73, 89
2, 119516, Note_on_c, 0, 73, 0
2, 119520, Note_on_c, 0, 75, 89
2, 119612, Note_on_c, 0, 75, 0
2, 119616, Note_on_c, 0, 76, 89
2, 119708, Note_on_c, 0, 76, 0
2, 119712, Note_on_c, 0, 78, 89
2, 119804, Note_on_c, 0, 78, 0
2, 119808, Note_on_c, 0, 79, 89
2, 119900, Note_on_c, 0, 79, 0
2, 119904, Note_on_c, 0, 81, 89
2, 119996, Note_on_c, 0, 81, 0
2, 120000, Note_on_c, 0, 79, 89
2, 120092, Note_on_c, 0, 79, 0
2, 120096, Note_on_c, 0, 78, 89
2, 120188, Note_on_c, 0, 78, 0
2, 120192, Note_on_c, 0, 76, 89
2, 120284, Note_on_c, 0, 76, 0
2, 120288, Note_on_c, 0, 74, 89
2, 120380, Note_on_c, 0, 74, 0
2, 120384, Note_on_c, 0, 72, 89
2, 120476, Note_on_c, 0, 72, 0
2, 120480, Note_on_c, 0, 71, 89
2, 120572, Note_on_c, 0, 71, 0
2, 120576, Note_on_c, 0, 69, 112
2, 120668, Note_on_c, 0, 69, 0
2, 120672, Note_on_c, 0, 64, 112
2, 120764, Note_on_c, 0, 64, 0
2, 120768, Note_on_c, 0, 66, 112
2, 120860, Note_on_c, 0, 66, 0
2, 120864, Note_on_c, 0, 68, 112
2, 120956, Note_on_c, 0, 68, 0
2, 120960, Note_on_c, 0, 69, 112
2, 121052, Note_on_c, 0, 69, 0
2, 121056, Note_on_c, 0, 71, 112
2, 121148, Note_on_c, 0, 71, 0
2, 121152, Note_on_c, 0, 72, 112
2, 121244, Note_on_c, 0, 72, 0
2, 121248, Note_on_c, 0, 74, 112
2, 121340, Note_on_c, 0, 74, 0
2, 121344, Note_on_c, 0, 76, 112
2, 121436, Note_on_c, 0, 76, 0
2, 121440, Note_on_c, 0, 78, 112
2, 121532, Note_on_c, 0, 78, 0
2, 121536, Note_on_c, 0, 80, 112
2, 121628, Note_on_c, 0, 80, 0
2, 121632, Note_on_c, 0, 81, 112
2, 121724, Note_on_c, 0, 81, 0
2, 121728, Note_on_c, 0, 83, 112
2, 121820, Note_on_c, 0, 83, 0
2, 121824, Note_on_c, 0, 84, 112
2, 121916, Note_on_c, 0, 84, 0
2, 121920, Note_on_c, 0, 86, 112
2, 122012, Note_on_c, 0, 86, 0
2, 122016, Note_on_c, 0, 88, 112
2, 122108, Note_on_c, 0, 88, 0
2, 122112, Note_on_c, 0, 78, 112
2, 122112, Note_on_c, 0, 66, 112
2, 122300, Note_on_c, 0, 66, 0
2, 122300, Note_on_c, 0, 78, 0
2, 122304, Note_on_c, 0, 79, 112
2, 122304, Note_on_c, 0, 67, 112
2, 122492, Note_on_c, 0, 67, 0
2, 122492, Note_on_c, 0, 79, 0
2, 122496, Note_on_c, 0, 81, 112
2, 122496, Note_on_c, 0, 69, 112
2, 122684, Note_on_c, 0, 69, 0
2, 122684, Note_on_c, 0, 81, 0
2, 122688, Note_on_c, 0, 83, 112
2, 122688, Note_on_c, 0, 71, 112
2, 122876, Note_on_c, 0, 71, 0
2, 122876, Note_on_c, 0, 83, 0
2, 122880, Note_on_c, 0, 84, 112
2, 122880, Note_on_c, 0, 72, 112
2, 123068, Note_on_c, 0, 72, 0
2, 123068, Note_on_c, 0, 84, 0
2, 123072, Note_on_c, 0, 86, 112
2, 123072, Note_on_c, 0, 74, 112
2, 123260, Note_on_c, 0, 74, 0
2, 123260, Note_on_c, 0, 86, 0
2, 123264, Note_on_c, 0, 88, 112
2, 123264, Note_on_c, 0, 76, 112
2, 123452, Note_on_c, 0, 76, 0
2, 123452, Note_on_c, 0, 88, 0
2, 123552, Note_on_c, 0, 78, 85
2, 123644, Note_on_c, 0, 78, 0
2, 123648, Note_on_c, 0, 81, 89
2, 123692, Note_on_c, 0, 81, 0
2, 123696, Note_on_c, 0, 79, 89
2, 123836, Note_on_c, 0, 79, 0
2, 123840, Note_on_c, 0, 78, 89
2, 123932, Note_on_c, 0, 78, 0
2, 123936, Note_on_c, 0, 79, 89
2, 124028, Note_on_c, 0, 79, 0
2, 124032, Note_on_c, 0, 78, 89
2, 124076, Note_on_c, 0, 78, 0
2, 124080, Note_on_c, 0, 76, 89
2, 124220, Note_on_c, 0, 76, 0
2, 124224, Note_on_c, 0, 74, 89
2, 124316, Note_on_c, 0, 74, 0
2, 124320, Note_on_c, 0, 72, 89
2, 124412, Note_on_c, 0, 72, 0
2, 124416, Note_on_c, 0, 71, 89
2, 124508, Note_on_c, 0, 71, 0
2, 124512, Note_on_c, 0, 72, 89
2, 124604, Note_on_c, 0, 72, 0
2, 124608, Note_on_c, 0, 73, 89
2, 124700, Note_on_c, 0, 73, 0
2, 124704, Note_on_c, 0, 74, 89
2, 124796, Note_on_c, 0, 74, 0
2, 124800, Note_on_c, 0, 74, 89
2, 124892, Note_on_c, 0, 74, 0
2, 124896, Note_on_c, 0, 72, 89
2, 124988, Note_on_c, 0, 72, 0
2, 124992, Note_on_c, 0, 71, 89
2, 125084, Note_on_c, 0, 71, 0
2, 125088, Note_on_c, 0, 69, 89
2, 125180, Note_on_c, 0, 69, 0
2, 125184, Note_on_c, 0, 69, 112
2, 125276, Note_on_c, 0, 69, 0
2, 125280, Note_on_c, 0, 64, 112
2, 125372, Note_on_c, 0, 64, 0
2, 125376, Note_on_c, 0, 66, 112
2, 125468, Note_on_c, 0, 66, 0
2, 125472, Note_on_c, 0, 68, 112
2, 125564, Note_on_c, 0, 68, 0
2, 125568, Note_on_c, 0, 69, 112
2, 125660, Note_on_c, 0, 69, 0
2, 125664, Note_on_c, 0, 71, 112
2, 125756, Note_on_c, 0, 71, 0
2, 125760, Note_on_c, 0, 73, 112
2, 125852, Note_on_c, 0, 73, 0
2, 125856, Note_on_c, 0, 74, 112
2, 125948, Note_on_c, 0, 74, 0
2, 125952, Note_on_c, 0, 76, 112
2, 126044, Note_on_c, 0, 76, 0
2, 126048, Note_on_c, 0, 78, 112
2, 126140, Note_on_c, 0, 78, 0
2, 126144, Note_on_c, 0, 80, 112
2, 126236, Note_on_c, 0, 80, 0
2, 126240, Note_on_c, 0, 81, 112
2, 126332, Note_on_c, 0, 81, 0
2, 126336, Note_on_c, 0, 83, 112
2, 126428, Note_on_c, 0, 83, 0
2, 126432, Note_on_c, 0, 85, 112
2, 126524, Note_on_c, 0, 85, 0
2, 126528, Note_on_c, 0, 86, 112
2, 126620, Note_on_c, 0, 86, 0
2, 126624, Note_on_c, 0, 88, 112
2, 126716, Note_on_c, 0, 88, 0
2, 126720, Note_on_c, 0, 78, 112
2, 126720, Note_on_c, 0, 66, 112
2, 126908, Note_on_c, 0, 66, 0
2, 126908, Note_on_c, 0, 78, 0
2, 126912, Note_on_c, 0, 79, 112
2, 126912, Note_on_c, 0, 67, 112
2, 127100, Note_on_c, 0, 67, 0
2, 127100, Note_on_c, 0, 79, 0
2, 127104, Note_on_c, 0, 81, 112
2, 127104, Note_on_c, 0, 69, 112
2, 127292, Note_on_c, 0, 69, 0
2, 127292, Note_on_c, 0, 81, 0
2, 127296, Note_on_c, 0, 82, 112
2, 127296, Note_on_c, 0, 70, 112
2, 127484, Note_on_c, 0, 70, 0
2, 127484, Note_on_c, 0, 82, 0
2, 127488, Note_on_c, 0, 84, 112
2, 127488, Note_on_c, 0, 72, 112
2, 127676, Note_on_c, 0, 72, 0
2, 127676, Note_on_c, 0, 84, 0
2, 127680, Note_on_c, 0, 86, 112
2, 127680, Note_on_c, 0, 74, 112
2, 127868, Note_on_c, 0, 74, 0
2, 127868, Note_on_c, 0, 86, 0
2, 127872, Note_on_c, 0, 87, 112
2, 127872, Note_on_c, 0, 75, 112
2, 128060, Note_on_c, 0, 75, 0
2, 128060, Note_on_c, 0, 87, 0
2, 128160, Note_on_c, 0, 78, 89
2, 128252, Note_on_c, 0, 78, 0
2, 128256, Note_on_c, 0, 79, 89
2, 128348, Note_on_c, 0, 79, 0
2, 128352, Note_on_c, 0, 83, 89
2, 128444, Note_on_c, 0, 83, 0
2, 128448, Note_on_c, 0, 79, 89
2, 128540, Note_on_c, 0, 79, 0
2, 128544, Note_on_c, 0, 74, 89
2, 128636, Note_on_c, 0, 74, 0
2, 128640, Note_on_c, 0, 76, 89
2, 128732, Note_on_c, 0, 76, 0
2, 128736, Note_on_c, 0, 79, 89
2, 128828, Note_on_c, 0, 79, 0
2, 128832, Note_on_c, 0, 76, 89
2, 128924, Note_on_c, 0, 76, 0
2, 128928, Note_on_c, 0, 72, 89
2, 129020, Note_on_c, 0, 72, 0
2, 129024, Note_on_c, 0, 71, 89
2, 129116, Note_on_c, 0, 71, 0
2, 129120, Note_on_c, 0, 74, 89
2, 129212, Note_on_c, 0, 74, 0
2, 129216, Note_on_c, 0, 71, 89
2, 129308, Note_on_c, 0, 71, 0
2, 129312, Note_on_c, 0, 67, 89
2, 129404, Note_on_c, 0, 67, 0
2, 129408, Note_on_c, 0, 69, 89
2, 129500, Note_on_c, 0, 69, 0
2, 129504, Note_on_c, 0, 72, 89
2, 129596, Note_on_c, 0, 72, 0
2, 129600, Note_on_c, 0, 69, 89
2, 129692, Note_on_c, 0, 69, 0
2, 129696, Note_on_c, 0, 66, 89
2, 129788, Note_on_c, 0, 66, 0
2, 129792, Note_on_c, 0, 67, 89
2, 130172, Note_on_c, 0, 67, 0
2, 130560, Note_on_c, 0, 76, 89
2, 130560, Note_on_c, 0, 67, 89
2, 130560, Note_on_c, 0, 61, 89
2, 130940, Note_on_c, 0, 61, 0
2, 130940, Note_on_c, 0, 67, 0
2, 130940, Note_on_c, 0, 76, 0
2, 130944, Note_on_c, 0, 69, 89
2, 130944, Note_on_c, 0, 66, 89
2, 130944, Note_on_c, 0, 60, 89
2, 131132, Note_on_c, 0, 60, 0
2, 131132, Note_on_c, 0, 66, 0
2, 131132, Note_on_c, 0, 69, 0
2, 131328, Note_on_c, 0, 74, 89
2, 131328, Note_on_c, 0, 67, 89
2, 131328, Note_on_c, 0, 59, 89
2, 131708, Note_on_c, 0, 59, 0
2, 131708, Note_on_c, 0, 67, 0
2, 131708, Note_on_c, 0, 74, 0
2, 131712, Note_on_c, 0, 79, 89
2, 131712, Note_on_c, 0, 62, 89
2, 131712, Note_on_c, 0, 59, 89
2, 131900, Note_on_c, 0, 59, 0
2, 131900, Note_on_c, 0, 62, 0
2, 131900, Note_on_c, 0, 79, 0
2, 132096, Note_on_c, 0, 76, 89
2, 132096, Note_on_c, 0, 67, 89
2, 132096, Note_on_c, 0, 61, 89
2, 132476, Note_on_c, 0, 61, 0
2, 132476, Note_on_c, 0, 67, 0
2, 132476, Note_on_c, 0, 76, 0
2, 132480, Note_on_c, 0, 69, 89
2, 132480, Note_on_c, 0, 66, 89
2, 132480, Note_on_c, 0, 60, 89
2, 132668, Note_on_c, 0, 60, 0
2, 132668, Note_on_c, 0, 66, 0
2, 132668, Note_on_c, 0, 69, 0
2, 132864, Note_on_c, 0, 74, 89
2, 132864, Note_on_c, 0, 67, 89
2, 132864, Note_on_c, 0, 59, 89
2, 133244, Note_on_c, 0, 59, 0
2, 133244, Note_on_c, 0, 67, 0
2, 133244, Note_on_c, 0, 74, 0
2, 133248, Note_on_c, 0, 79, 89
2, 133248, Note_on_c, 0, 62, 89
2, 133248, Note_on_c, 0, 59, 89
2, 133436, Note_on_c, 0, 59, 0
2, 133436, Note_on_c, 0, 62, 0
2, 133436, Note_on_c, 0, 79, 0
2, 133632, Note_on_c, 0, 76, 89
2, 133632, Note_on_c, 0, 67, 89
2, 133632, Note_on_c, 0, 61, 89
2, 134012, Note_on_c, 0, 61, 0
2, 134012, Note_on_c, 0, 67, 0
2, 134012, Note_on_c, 0, 76, 0
2, 134016, Note_on_c, 0, 69, 89
2, 134016, Note_on_c, 0, 66, 89
2, 134016, Note_on_c, 0, 60, 89
2, 134204, Note_on_c, 0, 60, 0
2, 134204, Note_on_c, 0, 66, 0
2, 134204, Note_on_c, 0, 69, 0
2, 134400, Note_on_c, 0, 67, 89
2, 134400, Note_on_c, 0, 59, 89
2, 134400, Note_on_c, 0, 74, 89
2, 134588, Note_on_c, 0, 74, 0
2, 134592, Note_on_c, 0, 79, 89
2, 134684, Note_on_c, 0, 79, 0
2, 134780, Note_on_c, 0, 59, 0
2, 134780, Note_on_c, 0, 67, 0
2, 134784, Note_on_c, 0, 67, 89
2, 134784, Note_on_c, 0, 60, 89
2, 134784, Note_on_c, 0, 76, 89
2, 134972, Note_on_c, 0, 76, 0
2, 134976, Note_on_c, 0, 72, 89
2, 135068, Note_on_c, 0, 72, 0
2, 135164, Note_on_c, 0, 60, 0
2, 135164, Note_on_c, 0, 67, 0
2, 135168, Note_on_c, 0, 71, 89
2, 135168, Note_on_c, 0, 67, 89
2, 135168, Note_on_c, 0, 62, 89
2, 135356, Note_on_c, 0, 71, 0
2, 135360, Note_on_c, 0, 74, 89
2, 135548, Note_on_c, 0, 74, 0
2, 135548, Note_on_c, 0, 62, 0
2, 135548, Note_on_c, 0, 67, 0
2, 135552, Note_on_c, 0, 69, 89
2, 135552, Note_on_c, 0, 66, 89
2, 135552, Note_on_c, 0, 62, 89
2, 135740, Note_on_c, 0, 69, 0
2, 135744, Note_on_c, 0, 74, 89
2, 135932, Note_on_c, 0, 74, 0
2, 135932, Note_on_c, 0, 62, 0
2, 135932, Note_on_c, 0, 66, 0
2, 135936, Note_on_c, 0, 72, 89
2, 135936, Note_on_c, 0, 69, 89
2, 135936, Note_on_c, 0, 66, 89
2, 135936, Note_on_c, 0, 55, 89
2, 136316, Note_on_c, 0, 66, 0
2, 136316, Note_on_c, 0, 72, 0
2, 136316, Note_on_c, 0, 69, 0
2, 136320, Note_on_c, 0, 71, 89
2, 136320, Note_on_c, 0, 67, 89
2, 136508, Note_on_c, 0, 67, 0
2, 136508, Note_on_c, 0, 71, 0
2, 136700, Note_on_c, 0, 55, 0
2, 136832, Note_on_c, 0, 81, 89
2, 136956, Note_on_c, 0, 81, 0
2, 136960, Note_on_c, 0, 80, 89
2, 137084, Note_on_c, 0, 80, 0
2, 137088, Note_on_c, 0, 81, 89
2, 137212, Note_on_c, 0, 81, 0
2, 137216, Note_on_c, 0, 78, 89
2, 137340, Note_on_c, 0, 78, 0
2, 137344, Note_on_c, 0, 74, 89
2, 137468, Note_on_c, 0, 74, 0
2, 137600, Note_on_c, 0, 79, 89
2, 137724, Note_on_c, 0, 79, 0
2, 137728, Note_on_c, 0, 78, 89
2, 137852, Note_on_c, 0, 78, 0
2, 137856, Note_on_c, 0, 79, 89
2, 137980, Note_on_c, 0, 79, 0
2, 137984, Note_on_c, 0, 83, 89
2, 138108, Note_on_c, 0, 83, 0
2, 138112, Note_on_c, 0, 86, 89
2, 138236, Note_on_c, 0, 86, 0
2, 138368, Note_on_c, 0, 81, 89
2, 138492, Note_on_c, 0, 81, 0
2, 138496, Note_on_c, 0, 80, 89
2, 138620, Note_on_c, 0, 80, 0
2, 138624, Note_on_c, 0, 81, 89
2, 138748, Note_on_c, 0, 81, 0
2, 138752, Note_on_c, 0, 78, 89
2, 138876, Note_on_c, 0, 78, 0
2, 138880, Note_on_c, 0, 74, 89
2, 139004, Note_on_c, 0, 74, 0
2, 139136, Note_on_c, 0, 79, 89
2, 139260, Note_on_c, 0, 79, 0
2, 139264, Note_on_c, 0, 78, 89
2, 139388, Note_on_c, 0, 78, 0
2, 139392, Note_on_c, 0, 79, 89
2, 139516, Note_on_c, 0, 79, 0
2, 139520, Note_on_c, 0, 83, 89
2, 139644, Note_on_c, 0, 83, 0
2, 139648, Note_on_c, 0, 86, 89
2, 139772, Note_on_c, 0, 86, 0
2, 139904, Note_on_c, 0, 81, 89
2, 140028, Note_on_c, 0, 81, 0
2, 140032, Note_on_c, 0, 80, 89
2, 140156, Note_on_c, 0, 80, 0
2, 140160, Note_on_c, 0, 81, 89
2, 140284, Note_on_c, 0, 81, 0
2, 140288, Note_on_c, 0, 78, 89
2, 140412, Note_on_c, 0, 78, 0
2, 140416, Note_on_c, 0, 74, 89
2, 140540, Note_on_c, 0, 74, 0
2, 140544, Note_on_c, 0, 79, 89
2, 140668, Note_on_c, 0, 79, 0
2, 140672, Note_on_c, 0, 83, 89
2, 140796, Note_on_c, 0, 83, 0
2, 140800, Note_on_c, 0, 74, 89
2, 140924, Note_on_c, 0, 74, 0
2, 140928, Note_on_c, 0, 76, 89
2, 141052, Note_on_c, 0, 76, 0
2, 141056, Note_on_c, 0, 79, 89
2, 141180, Note_on_c, 0, 79, 0
2, 141184, Note_on_c, 0, 72, 89
2, 141308, Note_on_c, 0, 72, 0
2, 141312, Note_on_c, 0, 71, 89
2, 141436, Note_on_c, 0, 71, 0
2, 141440, Note_on_c, 0, 74, 89
2, 141564, Note_on_c, 0, 74, 0
2, 141568, Note_on_c, 0, 67, 89
2, 141692, Note_on_c, 0, 67, 0
2, 141696, Note_on_c, 0, 69, 89
2, 141820, Note_on_c, 0, 69, 0
2, 141824, Note_on_c, 0, 72, 89
2, 141948, Note_on_c, 0, 72, 0
2, 141952, Note_on_c, 0, 66, 89
2, 142076, Note_on_c, 0, 66, 0
2, 142080, Note_on_c, 0, 67, 89
2, 142268, Note_on_c, 0, 67, 0
2, 142272, Note_on_c, 0, 69, 89
2, 142364, Note_on_c, 0, 69, 0
2, 142368, Note_on_c, 0, 71, 89
2, 142460, Note_on_c, 0, 71, 0
2, 142464, Note_on_c, 0, 72, 89
2, 142556, Note_on_c, 0, 72, 0
2, 142560, Note_on_c, 0, 74, 89
2, 142652, Note_on_c, 0, 74, 0
2, 142656, Note_on_c, 0, 76, 89
2, 142748, Note_on_c, 0, 76, 0
2, 142752, Note_on_c, 0, 78, 89
2, 142844, Note_on_c, 0, 78, 0
2, 142848, Note_on_c, 0, 79, 89
2, 143228, Note_on_c, 0, 79, 0
2, 143616, Note_on_c, 0, 69, 89
2, 143804, Note_on_c, 0, 69, 0
2, 143808, Note_on_c, 0, 71, 89
2, 143900, Note_on_c, 0, 71, 0
2, 143904, Note_on_c, 0, 72, 89
2, 143996, Note_on_c, 0, 72, 0
2, 144000, Note_on_c, 0, 74, 89
2, 144092, Note_on_c, 0, 74, 0
2, 144096, Note_on_c, 0, 76, 89
2, 144188, Note_on_c, 0, 76, 0
2, 144192, Note_on_c, 0, 78, 89
2, 144284, Note_on_c, 0, 78, 0
2, 144288, Note_on_c, 0, 79, 89
2, 144380, Note_on_c, 0, 79, 0
2, 144384, Note_on_c, 0, 81, 89
2, 144764, Note_on_c, 0, 81, 0
2, 145152, Note_on_c, 0, 71, 91
2, 145244, Note_on_c, 0, 71, 0
2, 145248, Note_on_c, 0, 72, 91
2, 145340, Note_on_c, 0, 72, 0
2, 145344, Note_on_c, 0, 74, 91
2, 145436, Note_on_c, 0, 74, 0
2, 145440, Note_on_c, 0, 76, 92
2, 145532, Note_on_c, 0, 76, 0
2, 145536, Note_on_c, 0, 77, 92
2, 145628, Note_on_c, 0, 77, 0
2, 145632, Note_on_c, 0, 79, 93
2, 145724, Note_on_c, 0, 79, 0
2, 145728, Note_on_c, 0, 81, 93
2, 145820, Note_on_c, 0, 81, 0
2, 145824, Note_on_c, 0, 83, 96
2, 145916, Note_on_c, 0, 83, 0
2, 145920, Note_on_c, 0, 72, 96
2, 146012, Note_on_c, 0, 72, 0
2, 146016, Note_on_c, 0, 74, 96
2, 146108, Note_on_c, 0, 74, 0
2, 146112, Note_on_c, 0, 76, 97
2, 146204, Note_on_c, 0, 76, 0
2, 146208, Note_on_c, 0, 77, 97
2, 146300, Note_on_c, 0, 77, 0
2, 146304, Note_on_c, 0, 79, 99
2, 146396, Note_on_c, 0, 79, 0
2, 146400, Note_on_c, 0, 81, 99
2, 146492, Note_on_c, 0, 81, 0
2, 146496, Note_on_c, 0, 83, 100
2, 146588, Note_on_c, 0, 83, 0
2, 146592, Note_on_c, 0, 84, 100
2, 146684, Note_on_c, 0, 84, 0
2, 146688, Note_on_c, 0, 74, 100
2, 146780, Note_on_c, 0, 74, 0
2, 146784, Note_on_c, 0, 76, 103
2, 146876, Note_on_c, 0, 76, 0
2, 146880, Note_on_c, 0, 77, 103
2, 146972, Note_on_c, 0, 77, 0
2, 146976, Note_on_c, 0, 79, 104
2, 147068, Note_on_c, 0, 79, 0
2, 147072, Note_on_c, 0, 81, 104
2, 147164, Note_on_c, 0, 81, 0
2, 147168, Note_on_c, 0, 83, 105
2, 147260, Note_on_c, 0, 83, 0
2, 147264, Note_on_c, 0, 84, 105
2, 147356, Note_on_c, 0, 84, 0
2, 147360, Note_on_c, 0, 86, 105
2, 147452, Note_on_c, 0, 86, 0
2, 147456, Note_on_c, 0, 76, 107
2, 147548, Note_on_c, 0, 76, 0
2, 147552, Note_on_c, 0, 77, 107
2, 147644, Note_on_c, 0, 77, 0
2, 147648, Note_on_c, 0, 79, 109
2, 147740, Note_on_c, 0, 79, 0
2, 147744, Note_on_c, 0, 81, 109
2, 147836, Note_on_c, 0, 81, 0
2, 147840, Note_on_c, 0, 83, 111
2, 147932, Note_on_c, 0, 83, 0
2, 147952, Note_on_c, 0, 84, 111
2, 148032, Note_on_c, 0, 86, 112
2, 148044, Note_on_c, 0, 84, 0
2, 148124, Note_on_c, 0, 86, 0
2, 148128, Note_on_c, 0, 88, 112
2, 148220, Note_on_c, 0, 88, 0
2, 148224, Note_on_c, 0, 89, 112
2, 148988, Note_on_c, 0, 89, 0
2, 150240, Note_on_c, 0, 67, 112
2, 150332, Note_on_c, 0, 67, 0
2, 150336, Note_on_c, 0, 71, 112
2, 150428, Note_on_c, 0, 71, 0
2, 150432, Note_on_c, 0, 74, 112
2, 150524, Note_on_c, 0, 74, 0
2, 150528, Note_on_c, 0, 77, 112
2, 150620, Note_on_c, 0, 77, 0
2, 151392, Note_on_c, 0, 69, 112
2, 151484, Note_on_c, 0, 69, 0
2, 151488, Note_on_c, 0, 71, 112
2, 151580, Note_on_c, 0, 71, 0
2, 151584, Note_on_c, 0, 74, 112
2, 151676, Note_on_c, 0, 74, 0
2, 151680, Note_on_c, 0, 77, 112
2, 151772, Note_on_c, 0, 77, 0
2, 151776, Note_on_c, 0, 83, 112
2, 151868, Note_on_c, 0, 83, 0
2, 151872, Note_on_c, 0, 86, 112
2, 151964, Note_on_c, 0, 86, 0
2, 152064, Note_on_c, 0, 89, 111
2, 152156, Note_on_c, 0, 89, 0
2, 152160, Note_on_c, 0, 88, 109
2, 152252, Note_on_c, 0, 88, 0
2, 152256, Note_on_c, 0, 86, 107
2, 152348, Note_on_c, 0, 86, 0
2, 152352, Note_on_c, 0, 84, 105
2, 152444, Note_on_c, 0, 84, 0
2, 152448, Note_on_c, 0, 83, 104
2, 152540, Note_on_c, 0, 83, 0
2, 152544, Note_on_c, 0, 81, 100
2, 152636, Note_on_c, 0, 81, 0
2, 152640, Note_on_c, 0, 79, 99
2, 152732, Note_on_c, 0, 79, 0
2, 152736, Note_on_c, 0, 78, 97
2, 152828, Note_on_c, 0, 78, 0
2, 152832, Note_on_c, 0, 77, 96
2, 152924, Note_on_c, 0, 77, 0
2, 152928, Note_on_c, 0, 76, 93
2, 153020, Note_on_c, 0, 76, 0
2, 153024, Note_on_c, 0, 74, 91
2, 153116, Note_on_c, 0, 74, 0
2, 153120, Note_on_c, 0, 72, 89
2, 153212, Note_on_c, 0, 72, 0
2, 153216, Note_on_c, 0, 71, 87
2, 153308, Note_on_c, 0, 71, 0
2, 153312, Note_on_c, 0, 69, 85
2, 153404, Note_on_c, 0, 69, 0
2, 153408, Note_on_c, 0, 67, 84
2, 153500, Note_on_c, 0, 67, 0
2, 153504, Note_on_c, 0, 66, 83
2, 153596, Note_on_c, 0, 66, 0
2, 153600, Note_on_c, 0, 67, 84
2, 153692, Note_on_c, 0, 67, 0
2, 153792, Note_on_c, 0, 69, 87
2, 153884, Note_on_c, 0, 69, 0
2, 153984, Note_on_c, 0, 70, 91
2, 154076, Note_on_c, 0, 70, 0
2, 154176, Note_on_c, 0, 71, 93
2, 154268, Note_on_c, 0, 71, 0
2, 154368, Note_on_c, 0, 72, 99
2, 154460, Note_on_c, 0, 72, 0
2, 154560, Note_on_c, 0, 73, 103
2, 154652, Note_on_c, 0, 73, 0
2, 154752, Note_on_c, 0, 74, 107
2, 154844, Note_on_c, 0, 74, 0
2, 154944, Note_on_c, 0, 75, 112
2, 155036, Note_on_c, 0, 75, 0
2, 155136, Note_on_c, 0, 76, 89
2, 155228, Note_on_c, 0, 76, 0
2, 155328, Note_on_c, 0, 77, 89
2, 155420, Note_on_c, 0, 77, 0
2, 155520, Note_on_c, 0, 78, 89
2, 155612, Note_on_c, 0, 78, 0
2, 155712, Note_on_c, 0, 79, 89
2, 155804, Note_on_c, 0, 79, 0
2, 155904, Note_on_c, 0, 81, 89
2, 156092, Note_on_c, 0, 81, 0
2, 156096, Note_on_c, 0, 79, 89
2, 156284, Note_on_c, 0, 79, 0
2, 156288, Note_on_c, 0, 77, 89
2, 156380, Note_on_c, 0, 77, 0
2, 156480, Note_on_c, 0, 76, 89
2, 156572, Note_on_c, 0, 76, 0
2, 156672, Note_on_c, 0, 74, 89
2, 156816, Note_on_c, 0, 76, 89
2, 156860, Note_on_c, 0, 76, 0
2, 156860, Note_on_c, 0, 74, 0
2, 156864, Note_on_c, 0, 74, 89
2, 156956, Note_on_c, 0, 74, 0
2, 156960, Note_on_c, 0, 72, 89
2, 157052, Note_on_c, 0, 72, 0
2, 157056, Note_on_c, 0, 74, 89
2, 157244, Note_on_c, 0, 74, 0
2, 157248, Note_on_c, 0, 74, 89
2, 157340, Note_on_c, 0, 74, 0
2, 157440, Note_on_c, 0, 74, 89
2, 157628, Note_on_c, 0, 74, 0
2, 157632, Note_on_c, 0, 75, 89
2, 157820, Note_on_c, 0, 75, 0
2, 157824, Note_on_c, 0, 76, 89
2, 158012, Note_on_c, 0, 76, 0
2, 158016, Note_on_c, 0, 72, 89
2, 158204, Note_on_c, 0, 72, 0
2, 158208, Note_on_c, 0, 76, 89
2, 158300, Note_on_c, 0, 76, 0
2, 158400, Note_on_c, 0, 77, 89
2, 158492, Note_on_c, 0, 77, 0
2, 158592, Note_on_c, 0, 78, 89
2, 158684, Note_on_c, 0, 78, 0
2, 158784, Note_on_c, 0, 79, 89
2, 158876, Note_on_c, 0, 79, 0
2, 158976, Note_on_c, 0, 81, 89
2, 159164, Note_on_c, 0, 81, 0
2, 159168, Note_on_c, 0, 79, 89
2, 159356, Note_on_c, 0, 79, 0
2, 159360, Note_on_c, 0, 77, 89
2, 159452, Note_on_c, 0, 77, 0
2, 159552, Note_on_c, 0, 76, 89
2, 159644, Note_on_c, 0, 76, 0
2, 159744, Note_on_c, 0, 74, 89
2, 159888, Note_on_c, 0, 76, 89
2, 159932, Note_on_c, 0, 76, 0
2, 159932, Note_on_c, 0, 74, 0
2, 159936, Note_on_c, 0, 74, 89
2, 160028, Note_on_c, 0, 74, 0
2, 160032, Note_on_c, 0, 72, 89
2, 160124, Note_on_c, 0, 72, 0
2, 160128, Note_on_c, 0, 74, 89
2, 160316, Note_on_c, 0, 74, 0
2, 160320, Note_on_c, 0, 76, 89
2, 160508, Note_on_c, 0, 76, 0
2, 160512, Note_on_c, 0, 72, 89
2, 160892, Note_on_c, 0, 72, 0
2, 167424, Note_on_c, 0, 74, 89
2, 167516, Note_on_c, 0, 74, 0
2, 167616, Note_on_c, 0, 75, 89
2, 167708, Note_on_c, 0, 75, 0
2, 167808, Note_on_c, 0, 76, 89
2, 167900, Note_on_c, 0, 76, 0
2, 168000, Note_on_c, 0, 77, 89
2, 168092, Note_on_c, 0, 77, 0
2, 168192, Note_on_c, 0, 79, 89
2, 168380, Note_on_c, 0, 79, 0
2, 168384, Note_on_c, 0, 77, 89
2, 168572, Note_on_c, 0, 77, 0
2, 168576, Note_on_c, 0, 74, 89
2, 168764, Note_on_c, 0, 74, 0
2, 168768, Note_on_c, 0, 77, 89
2, 168768, Note_on_c, 0, 74, 89
2, 168768, Note_on_c, 0, 67, 89
2, 168956, Note_on_c, 0, 67, 0
2, 168956, Note_on_c, 0, 74, 0
2, 168956, Note_on_c, 0, 77, 0
2, 168960, Note_on_c, 0, 79, 89
2, 168960, Note_on_c, 0, 76, 89
2, 168960, Note_on_c, 0, 66, 89
2, 169148, Note_on_c, 0, 66, 0
2, 169148, Note_on_c, 0, 76, 0
2, 169148, Note_on_c, 0, 79, 0
2, 169152, Note_on_c, 0, 77, 89
2, 169152, Note_on_c, 0, 74, 89
2, 169152, Note_on_c, 0, 67, 89
2, 169340, Note_on_c, 0, 67, 0
2, 169340, Note_on_c, 0, 74, 0
2, 169340, Note_on_c, 0, 77, 0
2, 169344, Note_on_c, 0, 74, 89
2, 169344, Note_on_c, 0, 71, 89
2, 169532, Note_on_c, 0, 71, 0
2, 169532, Note_on_c, 0, 74, 0
2, 169536, Note_on_c, 0, 77, 89
2, 169536, Note_on_c, 0, 74, 89
2, 169536, Note_on_c, 0, 67, 89
2, 169724, Note_on_c, 0, 67, 0
2, 169724, Note_on_c, 0, 74, 0
2, 169724, Note_on_c, 0, 77, 0
2, 169728, Note_on_c, 0, 79, 89
2, 169728, Note_on_c, 0, 76, 89
2, 169728, Note_on_c, 0, 66, 89
2, 169916, Note_on_c, 0, 66, 0
2, 169916, Note_on_c, 0, 76, 0
2, 169916, Note_on_c, 0, 79, 0
2, 169920, Note_on_c, 0, 77, 89
2, 169920, Note_on_c, 0, 74, 89
2, 169920, Note_on_c, 0, 67, 89
2, 170108, Note_on_c, 0, 67, 0
2, 170108, Note_on_c, 0, 74, 0
2, 170108, Note_on_c, 0, 77, 0
2, 170112, Note_on_c, 0, 74, 89
2, 170112, Note_on_c, 0, 71, 89
2, 170300, Note_on_c, 0, 71, 0
2, 170300, Note_on_c, 0, 74, 0
2, 170304, Note_on_c, 0, 74, 89
2, 170304, Note_on_c, 0, 59, 89
2, 170492, Note_on_c, 0, 59, 0
2, 170492, Note_on_c, 0, 74, 0
2, 170496, Note_on_c, 0, 75, 89
2, 170496, Note_on_c, 0, 60, 89
2, 170684, Note_on_c, 0, 60, 0
2, 170684, Note_on_c, 0, 75, 0
2, 170688, Note_on_c, 0, 76, 89
2, 170688, Note_on_c, 0, 61, 89
2, 170876, Note_on_c, 0, 61, 0
2, 170876, Note_on_c, 0, 76, 0
2, 170880, Note_on_c, 0, 77, 89
2, 170880, Note_on_c, 0, 62, 89
2, 171068, Note_on_c, 0, 62, 0
2, 171068, Note_on_c, 0, 77, 0
2, 171072, Note_on_c, 0, 78, 89
2, 171072, Note_on_c, 0, 63, 89
2, 171260, Note_on_c, 0, 63, 0
2, 171260, Note_on_c, 0, 78, 0
2, 171264, Note_on_c, 0, 81, 89
2, 171264, Note_on_c, 0, 65, 89
2, 171452, Note_on_c, 0, 65, 0
2, 171452, Note_on_c, 0, 81, 0
2, 171456, Note_on_c, 0, 79, 89
2, 171456, Note_on_c, 0, 64, 89
2, 171644, Note_on_c, 0, 64, 0
2, 171644, Note_on_c, 0, 79, 0
2, 171648, Note_on_c, 0, 76, 89
2, 171648, Note_on_c, 0, 60, 89
2, 171836, Note_on_c, 0, 60, 0
2, 171836, Note_on_c, 0, 76, 0
2, 171840, Note_on_c, 0, 79, 89
2, 171840, Note_on_c, 0, 76, 89
2, 171840, Note_on_c, 0, 72, 89
2, 172028, Note_on_c, 0, 72, 0
2, 172028, Note_on_c, 0, 76, 0
2, 172028, Note_on_c, 0, 79, 0
2, 172032, Note_on_c, 0, 81, 89
2, 172032, Note_on_c, 0, 77, 89
2, 172032, Note_on_c, 0, 71, 89
2, 172220, Note_on_c, 0, 71, 0
2, 172220, Note_on_c, 0, 77, 0
2, 172220, Note_on_c, 0, 81, 0
2, 172224, Note_on_c, 0, 79, 89
2, 172224, Note_on_c, 0, 76, 89
2, 172224, Note_on_c, 0, 72, 89
2, 172412, Note_on_c, 0, 72, 0
2, 172412, Note_on_c, 0, 76, 0
2, 172412, Note_on_c, 0, 79, 0
2, 172416, Note_on_c, 0, 76, 89
2, 172416, Note_on_c, 0, 72, 89
2, 172604, Note_on_c, 0, 72, 0
2, 172604, Note_on_c, 0, 76, 0
2, 172608, Note_on_c, 0, 79, 89
2, 172608, Note_on_c, 0, 76, 89
2, 172608, Note_on_c, 0, 72, 89
2, 172796, Note_on_c, 0, 72, 0
2, 172796, Note_on_c, 0, 76, 0
2, 172796, Note_on_c, 0, 79, 0
2, 172800, Note_on_c, 0, 81, 89
2, 172800, Note_on_c, 0, 77, 89
2, 172800, Note_on_c, 0, 71, 89
2, 172988, Note_on_c, 0, 71, 0
2, 172988, Note_on_c, 0, 77, 0
2, 172988, Note_on_c, 0, 81, 0
2, 172992, Note_on_c, 0, 79, 89
2, 172992, Note_on_c, 0, 76, 89
2, 172992, Note_on_c, 0, 72, 89
2, 173180, Note_on_c, 0, 72, 0
2, 173180, Note_on_c, 0, 76, 0
2, 173180, Note_on_c, 0, 79, 0
2, 173184, Note_on_c, 0, 76, 89
2, 173184, Note_on_c, 0, 72, 89
2, 173372, Note_on_c, 0, 72, 0
2, 173372, Note_on_c, 0, 76, 0
2, 173376, Note_on_c, 0, 79, 89
2, 173468, Note_on_c, 0, 79, 0
2, 173568, Note_on_c, 0, 81, 89
2, 173568, Note_on_c, 0, 69, 89
2, 173568, Note_on_c, 0, 65, 89
2, 173660, Note_on_c, 0, 81, 0
2, 173756, Note_on_c, 0, 65, 0
2, 173760, Note_on_c, 0, 82, 89
2, 173760, Note_on_c, 0, 60, 89
2, 173852, Note_on_c, 0, 82, 0
2, 173948, Note_on_c, 0, 60, 0
2, 173952, Note_on_c, 0, 83, 89
2, 173952, Note_on_c, 0, 65, 89
2, 174044, Note_on_c, 0, 83, 0
2, 174140, Note_on_c, 0, 65, 0
2, 174144, Note_on_c, 0, 84, 89
2, 174144, Note_on_c, 0, 60, 89
2, 174236, Note_on_c, 0, 84, 0
2, 174332, Note_on_c, 0, 60, 0
2, 174332, Note_on_c, 0, 69, 0
2, 174336, Note_on_c, 0, 86, 89
2, 174336, Note_on_c, 0, 67, 89
2, 174336, Note_on_c, 0, 64, 89
2, 174524, Note_on_c, 0, 64, 0
2, 174524, Note_on_c, 0, 86, 0
2, 174528, Note_on_c, 0, 84, 89
2, 174528, Note_on_c, 0, 60, 89
2, 174716, Note_on_c, 0, 60, 0
2, 174716, Note_on_c, 0, 84, 0
2, 174720, Note_on_c, 0, 64, 89
2, 174908, Note_on_c, 0, 64, 0
2, 174912, Note_on_c, 0, 79, 89
2, 174912, Note_on_c, 0, 60, 89
2, 175004, Note_on_c, 0, 79, 0
2, 175100, Note_on_c, 0, 60, 0
2, 175100, Note_on_c, 0, 67, 0
2, 175104, Note_on_c, 0, 81, 89
2, 175104, Note_on_c, 0, 69, 89
2, 175104, Note_on_c, 0, 65, 89
2, 175196, Note_on_c, 0, 81, 0
2, 175292, Note_on_c, 0, 65, 0
2, 175296, Note_on_c, 0, 82, 89
2, 175296, Note_on_c, 0, 60, 89
2, 175388, Note_on_c, 0, 82, 0
2, 175484, Note_on_c, 0, 60, 0
2, 175488, Note_on_c, 0, 83, 89
2, 175488, Note_on_c, 0, 65, 89
2, 175580, Note_on_c, 0, 83, 0
2, 175676, Note_on_c, 0, 65, 0
2, 175680, Note_on_c, 0, 84, 89
2, 175680, Note_on_c, 0, 60, 89
2, 175772, Note_on_c, 0, 84, 0
2, 175868, Note_on_c, 0, 60, 0
2, 175868, Note_on_c, 0, 69, 0
2, 175872, Note_on_c, 0, 86, 89
2, 175872, Note_on_c, 0, 64, 89
2, 175872, Note_on_c, 0, 67, 89
2, 176060, Note_on_c, 0, 64, 0
2, 176060, Note_on_c, 0, 86, 0
2, 176064, Note_on_c, 0, 84, 89
2, 176064, Note_on_c, 0, 60, 89
2, 176252, Note_on_c, 0, 60, 0
2, 176252, Note_on_c, 0, 84, 0
2, 176256, Note_on_c, 0, 64, 89
2, 176444, Note_on_c, 0, 64, 0
2, 176448, Note_on_c, 0, 79, 89
2, 176448, Note_on_c, 0, 60, 89
2, 176540, Note_on_c, 0, 79, 0
2, 176636, Note_on_c, 0, 60, 0
2, 176636, Note_on_c, 0, 67, 0
2, 176640, Note_on_c, 0, 81, 89
2, 176640, Note_on_c, 0, 65, 89
2, 176640, Note_on_c, 0, 69, 89
2, 176732, Note_on_c, 0, 81, 0
2, 176828, Note_on_c, 0, 65, 0
2, 176832, Note_on_c, 0, 82, 89
2, 176832, Note_on_c, 0, 60, 89
2, 176924, Note_on_c, 0, 82, 0
2, 177020, Note_on_c, 0, 60, 0
2, 177024, Note_on_c, 0, 83, 89
2, 177024, Note_on_c, 0, 65, 89
2, 177116, Note_on_c, 0, 83, 0
2, 177212, Note_on_c, 0, 65, 0
2, 177216, Note_on_c, 0, 84, 89
2, 177216, Note_on_c, 0, 60, 89
2, 177308, Note_on_c, 0, 84, 0
2, 177404, Note_on_c, 0, 60, 0
2, 177404, Note_on_c, 0, 69, 0
2, 177408, Note_on_c, 0, 86, 89
2, 177408, Note_on_c, 0, 64, 89
2, 177408, Note_on_c, 0, 60, 89
2, 177500, Note_on_c, 0, 86, 0
2, 177504, Note_on_c, 0, 84, 89
2, 177596, Note_on_c, 0, 84, 0
2, 177600, Note_on_c, 0, 88, 89
2, 177692, Note_on_c, 0, 88, 0
2, 177696, Note_on_c, 0, 86, 89
2, 177788, Note_on_c, 0, 86, 0
2, 177788, Note_on_c, 0, 60, 0
2, 177788, Note_on_c, 0, 64, 0
2, 177792, Note_on_c, 0, 84, 89
2, 177884, Note_on_c, 0, 84, 0
2, 177888, Note_on_c, 0, 83, 89
2, 177980, Note_on_c, 0, 83, 0
2, 177984, Note_on_c, 0, 81, 89
2, 178076, Note_on_c, 0, 81, 0
2, 178080, Note_on_c, 0, 79, 89
2, 178172, Note_on_c, 0, 79, 0
2, 178176, Note_on_c, 0, 79, 89
2, 178268, Note_on_c, 0, 79, 0
2, 178272, Note_on_c, 0, 77, 89
2, 178364, Note_on_c, 0, 77, 0
2, 178368, Note_on_c, 0, 86, 89
2, 178460, Note_on_c, 0, 86, 0
2, 178464, Note_on_c, 0, 84, 89
2, 178556, Note_on_c, 0, 84, 0
2, 178560, Note_on_c, 0, 83, 89
2, 178652, Note_on_c, 0, 83, 0
2, 178656, Note_on_c, 0, 81, 89
2, 178748, Note_on_c, 0, 81, 0
2, 178752, Note_on_c, 0, 79, 89
2, 178844, Note_on_c, 0, 79, 0
2, 178848, Note_on_c, 0, 77, 89
2, 178940, Note_on_c, 0, 77, 0
2, 178944, Note_on_c, 0, 77, 89
2, 179036, Note_on_c, 0, 77, 0
2, 179040, Note_on_c, 0, 76, 89
2, 179132, Note_on_c, 0, 76, 0
2, 179136, Note_on_c, 0, 84, 89
2, 179228, Note_on_c, 0, 84, 0
2, 179232, Note_on_c, 0, 83, 89
2, 179324, Note_on_c, 0, 83, 0
2, 179328, Note_on_c, 0, 81, 89
2, 179420, Note_on_c, 0, 81, 0
2, 179424, Note_on_c, 0, 79, 89
2, 179516, Note_on_c, 0, 79, 0
2, 179520, Note_on_c, 0, 77, 89
2, 179612, Note_on_c, 0, 77, 0
2, 179616, Note_on_c, 0, 76, 89
2, 179708, Note_on_c, 0, 76, 0
2, 179712, Note_on_c, 0, 76, 89
2, 179804, Note_on_c, 0, 76, 0
2, 179808, Note_on_c, 0, 74, 89
2, 179900, Note_on_c, 0, 74, 0
2, 179904, Note_on_c, 0, 83, 89
2, 179996, Note_on_c, 0, 83, 0
2, 180000, Note_on_c, 0, 81, 89
2, 180092, Note_on_c, 0, 81, 0
2, 180096, Note_on_c, 0, 79, 89
2, 180188, Note_on_c, 0, 79, 0
2, 180192, Note_on_c, 0, 77, 89
2, 180284, Note_on_c, 0, 77, 0
2, 180288, Note_on_c, 0, 76, 89
2, 180380, Note_on_c, 0, 76, 0
2, 180384, Note_on_c, 0, 74, 89
2, 180476, Note_on_c, 0, 74, 0
2, 180480, Note_on_c, 0, 74, 89
2, 180572, Note_on_c, 0, 74, 0
2, 180576, Note_on_c, 0, 72, 89
2, 180668, Note_on_c, 0, 72, 0
2, 180672, Note_on_c, 0, 81, 89
2, 180764, Note_on_c, 0, 81, 0
2, 180768, Note_on_c, 0, 79, 89
2, 180860, Note_on_c, 0, 79, 0
2, 180864, Note_on_c, 0, 77, 89
2, 180956, Note_on_c, 0, 77, 0
2, 180960, Note_on_c, 0, 76, 89
2, 181052, Note_on_c, 0, 76, 0
2, 181056, Note_on_c, 0, 74, 89
2, 181148, Note_on_c, 0, 74, 0
2, 181152, Note_on_c, 0, 72, 89
2, 181244, Note_on_c, 0, 72, 0
2, 181248, Note_on_c, 0, 72, 89
2, 181340, Note_on_c, 0, 72, 0
2, 181344, Note_on_c, 0, 71, 89
2, 181436, Note_on_c, 0, 71, 0
2, 181440, Note_on_c, 0, 79, 89
2, 181532, Note_on_c, 0, 79, 0
2, 181536, Note_on_c, 0, 77, 89
2, 181628, Note_on_c, 0, 77, 0
2, 181632, Note_on_c, 0, 76, 89
2, 181724, Note_on_c, 0, 76, 0
2, 181728, Note_on_c, 0, 74, 89
2, 181820, Note_on_c, 0, 74, 0
2, 181824, Note_on_c, 0, 72, 89
2, 181916, Note_on_c, 0, 72, 0
2, 181920, Note_on_c, 0, 71, 89
2, 182012, Note_on_c, 0, 71, 0
2, 182016, Note_on_c, 0, 72, 89
2, 182396, Note_on_c, 0, 72, 0
2, 202752, Note_on_c, 0, 73, 89
2, 202940, Note_on_c, 0, 73, 0
2, 202944, Note_on_c, 0, 74, 89
2, 203132, Note_on_c, 0, 74, 0
2, 203136, Note_on_c, 0, 75, 89
2, 203324, Note_on_c, 0, 75, 0
2, 203328, Note_on_c, 0, 76, 89
2, 203516, Note_on_c, 0, 76, 0
2, 203520, Note_on_c, 0, 78, 89
2, 203708, Note_on_c, 0, 78, 0
2, 203712, Note_on_c, 0, 76, 89
2, 203900, Note_on_c, 0, 76, 0
2, 203904, Note_on_c, 0, 74, 89
2, 204092, Note_on_c, 0, 74, 0
2, 204096, Note_on_c, 0, 73, 89
2, 204284, Note_on_c, 0, 73, 0
2, 204288, Note_on_c, 0, 71, 89
2, 204432, Note_on_c, 0, 73, 89
2, 204476, Note_on_c, 0, 73, 0
2, 204476, Note_on_c, 0, 71, 0
2, 204480, Note_on_c, 0, 71, 89
2, 204572, Note_on_c, 0, 71, 0
2, 204576, Note_on_c, 0, 69, 89
2, 204668, Note_on_c, 0, 69, 0
2, 204672, Note_on_c, 0, 71, 89
2, 204860, Note_on_c, 0, 71, 0
2, 204864, Note_on_c, 0, 71, 89
2, 204956, Note_on_c, 0, 71, 0
2, 205056, Note_on_c, 0, 71, 89
2, 205244, Note_on_c, 0, 71, 0
2, 205248, Note_on_c, 0, 72, 89
2, 205436, Note_on_c, 0, 72, 0
2, 205440, Note_on_c, 0, 73, 89
2, 205628, Note_on_c, 0, 73, 0
2, 205632, Note_on_c, 0, 69, 89
2, 205724, Note_on_c, 0, 69, 0
2, 205824, Note_on_c, 0, 73, 89
2, 206012, Note_on_c, 0, 73, 0
2, 206016, Note_on_c, 0, 74, 89
2, 206204, Note_on_c, 0, 74, 0
2, 206208, Note_on_c, 0, 75, 89
2, 206396, Note_on_c, 0, 75, 0
2, 206400, Note_on_c, 0, 76, 89
2, 206588, Note_on_c, 0, 76, 0
2, 206592, Note_on_c, 0, 77, 89
2, 206780, Note_on_c, 0, 77, 0
2, 206784, Note_on_c, 0, 78, 89
2, 206972, Note_on_c, 0, 78, 0
2, 206976, Note_on_c, 0, 79, 89
2, 207164, Note_on_c, 0, 79, 0
2, 207168, Note_on_c, 0, 80, 89
2, 207356, Note_on_c, 0, 80, 0
2, 207360, Note_on_c, 0, 83, 89
2, 207548, Note_on_c, 0, 83, 0
2, 207552, Note_on_c, 0, 81, 89
2, 207740, Note_on_c, 0, 81, 0
2, 207744, Note_on_c, 0, 78, 89
2, 207932, Note_on_c, 0, 78, 0
2, 207936, Note_on_c, 0, 74, 89
2, 208124, Note_on_c, 0, 74, 0
2, 208128, Note_on_c, 0, 73, 89
2, 208508, Note_on_c, 0, 73, 0
2, 208512, Note_on_c, 0, 71, 89
2, 208700, Note_on_c, 0, 71, 0
2, 211968, Note_on_c, 0, 74, 89
2, 211968, Note_on_c, 0, 66, 89
2, 212112, Note_on_c, 0, 76, 89
2, 212156, Note_on_c, 0, 76, 0
2, 212156, Note_on_c, 0, 66, 0
2, 212156, Note_on_c, 0, 74, 0
2, 212160, Note_on_c, 0, 74, 89
2, 212160, Note_on_c, 0, 69, 89
2, 212252, Note_on_c, 0, 74, 0
2, 212256, Note_on_c, 0, 73, 89
2, 212348, Note_on_c, 0, 73, 0
2, 212348, Note_on_c, 0, 69, 0
2, 212352, Note_on_c, 0, 74, 89
2, 212352, Note_on_c, 0, 66, 89
2, 212540, Note_on_c, 0, 66, 0
2, 212540, Note_on_c, 0, 74, 0
2, 212544, Note_on_c, 0, 76, 89
2, 212544, Note_on_c, 0, 61, 89
2, 212732, Note_on_c, 0, 61, 0
2, 212732, Note_on_c, 0, 76, 0
2, 212736, Note_on_c, 0, 79, 89
2, 212736, Note_on_c, 0, 69, 89
2, 212736, Note_on_c, 0, 62, 89
2, 213116, Note_on_c, 0, 79, 0
2, 213120, Note_on_c, 0, 78, 89
2, 213308, Note_on_c, 0, 78, 0
2, 213500, Note_on_c, 0, 62, 0
2, 213500, Note_on_c, 0, 69, 0
2, 213504, Note_on_c, 0, 78, 89
2, 213504, Note_on_c, 0, 62, 89
2, 213648, Note_on_c, 0, 79, 89
2, 213692, Note_on_c, 0, 79, 0
2, 213692, Note_on_c, 0, 62, 0
2, 213692, Note_on_c, 0, 78, 0
2, 213696, Note_on_c, 0, 78, 89
2, 213696, Note_on_c, 0, 66, 89
2, 213788, Note_on_c, 0, 78, 0
2, 213792, Note_on_c, 0, 76, 89
2, 213884, Note_on_c, 0, 76, 0
2, 213884, Note_on_c, 0, 66, 0
2, 213888, Note_on_c, 0, 78, 89
2, 213888, Note_on_c, 0, 59, 89
2, 214076, Note_on_c, 0, 59, 0
2, 214076, Note_on_c, 0, 78, 0
2, 214080, Note_on_c, 0, 80, 89
2, 214080, Note_on_c, 0, 62, 89
2, 214172, Note_on_c, 0, 80, 0
2, 214268, Note_on_c, 0, 62, 0
2, 214272, Note_on_c, 0, 83, 89
2, 214272, Note_on_c, 0, 61, 89
2, 214460, Note_on_c, 0, 83, 0
2, 214464, Note_on_c, 0, 81, 89
2, 214652, Note_on_c, 0, 81, 0
2, 214652, Note_on_c, 0, 61, 0
2, 214656, Note_on_c, 0, 78, 89
2, 214656, Note_on_c, 0, 62, 89
2, 214748, Note_on_c, 0, 78, 0
2, 214848, Note_on_c, 0, 74, 89
2, 214940, Note_on_c, 0, 74, 0
2, 215036, Note_on_c, 0, 62, 0
2, 215040, Note_on_c, 0, 73, 89
2, 215040, Note_on_c, 0, 69, 89
2, 215040, Note_on_c, 0, 64, 89
2, 215228, Note_on_c, 0, 73, 0
2, 215232, Note_on_c, 0, 76, 89
2, 215420, Note_on_c, 0, 76, 0
2, 215420, Note_on_c, 0, 69, 0
2, 215424, Note_on_c, 0, 74, 89
2, 215424, Note_on_c, 0, 68, 89
2, 215612, Note_on_c, 0, 74, 0
2, 215616, Note_on_c, 0, 71, 89
2, 215804, Note_on_c, 0, 71, 0
2, 215804, Note_on_c, 0, 68, 0
2, 215804, Note_on_c, 0, 64, 0
2, 215808, Note_on_c, 0, 69, 89
2, 215808, Note_on_c, 0, 57, 89
2, 216188, Note_on_c, 0, 57, 0
2, 216188, Note_on_c, 0, 69, 0
2, 216576, Note_on_c, 0, 73, 89
2, 216764, Note_on_c, 0, 73, 0
2, 216768, Note_on_c, 0, 74, 89
2, 216956, Note_on_c, 0, 74, 0
2, 216960, Note_on_c, 0, 75, 89
2, 217148, Note_on_c, 0, 75, 0
2, 217152, Note_on_c, 0, 76, 89
2, 217340, Note_on_c, 0, 76, 0
2, 217344, Note_on_c, 0, 78, 89
2, 217532, Note_on_c, 0, 78, 0
2, 217536, Note_on_c, 0, 76, 89
2, 217724, Note_on_c, 0, 76, 0
2, 217728, Note_on_c, 0, 74, 89
2, 217916, Note_on_c, 0, 74, 0
2, 217920, Note_on_c, 0, 73, 89
2, 218108, Note_on_c, 0, 73, 0
2, 218112, Note_on_c, 0, 71, 89
2, 218256, Note_on_c, 0, 73, 89
2, 218300, Note_on_c, 0, 73, 0
2, 218300, Note_on_c, 0, 71, 0
2, 218304, Note_on_c, 0, 71, 89
2, 218396, Note_on_c, 0, 71, 0
2, 218400, Note_on_c, 0, 69, 89
2, 218492, Note_on_c, 0, 69, 0
2, 218496, Note_on_c, 0, 71, 89
2, 218684, Note_on_c, 0, 71, 0
2, 218688, Note_on_c, 0, 76, 89
2, 218876, Note_on_c, 0, 76, 0
2, 218880, Note_on_c, 0, 69, 89
2, 219260, Note_on_c, 0, 69, 0
2, 222720, Note_on_c, 0, 71, 89
2, 222864, Note_on_c, 0, 72, 89
2, 222908, Note_on_c, 0, 72, 0
2, 222908, Note_on_c, 0, 71, 0
2, 222912, Note_on_c, 0, 71, 89
2, 223004, Note_on_c, 0, 71, 0
2, 223008, Note_on_c, 0, 69, 89
2, 223100, Note_on_c, 0, 69, 0
2, 223104, Note_on_c, 0, 71, 89
2, 223292, Note_on_c, 0, 71, 0
2, 223296, Note_on_c, 0, 76, 89
2, 223388, Note_on_c, 0, 76, 0
2, 223488, Note_on_c, 0, 69, 89
2, 223868, Note_on_c, 0, 69, 0
2, 225024, Note_on_c, 0, 69, 89
2, 225168, Note_on_c, 0, 71, 89
2, 225212, Note_on_c, 0, 71, 0
2, 225212, Note_on_c, 0, 69, 0
2, 225216, Note_on_c, 0, 69, 89
2, 225308, Note_on_c, 0, 69, 0
2, 225312, Note_on_c, 0, 68, 89
2, 225404, Note_on_c, 0, 68, 0
2, 225408, Note_on_c, 0, 69, 89
2, 225596, Note_on_c, 0, 69, 0
2, 225600, Note_on_c, 0, 71, 89
2, 225692, Note_on_c, 0, 71, 0
2, 225792, Note_on_c, 0, 72, 89
2, 226172, Note_on_c, 0, 72, 0
2, 226560, Note_on_c, 0, 72, 89
2, 226704, Note_on_c, 0, 74, 89
2, 226748, Note_on_c, 0, 74, 0
2, 226748, Note_on_c, 0, 72, 0
2, 226752, Note_on_c, 0, 72, 89
2, 226844, Note_on_c, 0, 72, 0
2, 226848, Note_on_c, 0, 71, 89
2, 226940, Note_on_c, 0, 71, 0
2, 226944, Note_on_c, 0, 72, 89
2, 227132, Note_on_c, 0, 72, 0
2, 227136, Note_on_c, 0, 74, 89
2, 227324, Note_on_c, 0, 74, 0
2, 227328, Note_on_c, 0, 76, 89
2, 227708, Note_on_c, 0, 76, 0
2, 228096, Note_on_c, 0, 76, 89
2, 228188, Note_on_c, 0, 76, 0
2, 228240, Note_on_c, 0, 77, 89
2, 228284, Note_on_c, 0, 77, 0
2, 228288, Note_on_c, 0, 76, 89
2, 228380, Note_on_c, 0, 76, 0
2, 228384, Note_on_c, 0, 74, 89
2, 228476, Note_on_c, 0, 74, 0
2, 228480, Note_on_c, 0, 76, 89
2, 228668, Note_on_c, 0, 76, 0
2, 228672, Note_on_c, 0, 77, 89
2, 228764, Note_on_c, 0, 77, 0
2, 228864, Note_on_c, 0, 79, 89
2, 228956, Note_on_c, 0, 79, 0
2, 229008, Note_on_c, 0, 81, 89
2, 229052, Note_on_c, 0, 81, 0
2, 229056, Note_on_c, 0, 79, 89
2, 229148, Note_on_c, 0, 79, 0
2, 229152, Note_on_c, 0, 77, 89
2, 229244, Note_on_c, 0, 77, 0
2, 229248, Note_on_c, 0, 79, 91
2, 229436, Note_on_c, 0, 79, 0
2, 229440, Note_on_c, 0, 81, 92
2, 229532, Note_on_c, 0, 81, 0
2, 229632, Note_on_c, 0, 82, 96
2, 229724, Note_on_c, 0, 82, 0
2, 229776, Note_on_c, 0, 84, 96
2, 229820, Note_on_c, 0, 84, 0
2, 229824, Note_on_c, 0, 82, 97
2, 229916, Note_on_c, 0, 82, 0
2, 229920, Note_on_c, 0, 81, 97
2, 230012, Note_on_c, 0, 81, 0
2, 230016, Note_on_c, 0, 82, 99
2, 230204, Note_on_c, 0, 82, 0
2, 230208, Note_on_c, 0, 84, 100
2, 230300, Note_on_c, 0, 84, 0
2, 230400, Note_on_c, 0, 86, 104
2, 230780, Note_on_c, 0, 86, 0
2, 230784, Note_on_c, 0, 64, 107
2, 231164, Note_on_c, 0, 64, 0
2, 231168, Note_on_c, 0, 65, 112
2, 231260, Note_on_c, 0, 65, 0
2, 231264, Note_on_c, 0, 72, 112
2, 231356, Note_on_c, 0, 72, 0
2, 231360, Note_on_c, 0, 69, 112
2, 231452, Note_on_c, 0, 69, 0
2, 231456, Note_on_c, 0, 72, 112
2, 231548, Note_on_c, 0, 72, 0
2, 231552, Note_on_c, 0, 65, 112
2, 231644, Note_on_c, 0, 65, 0
2, 231648, Note_on_c, 0, 72, 112
2, 231740, Note_on_c, 0, 72, 0
2, 231744, Note_on_c, 0, 69, 112
2, 231836, Note_on_c, 0, 69, 0
2, 231840, Note_on_c, 0, 72, 112
2, 231932, Note_on_c, 0, 72, 0
2, 231936, Note_on_c, 0, 69, 112
2, 232028, Note_on_c, 0, 69, 0
2, 232032, Note_on_c, 0, 77, 112
2, 232124, Note_on_c, 0, 77, 0
2, 232128, Note_on_c, 0, 72, 112
2, 232220, Note_on_c, 0, 72, 0
2, 232224, Note_on_c, 0, 77, 112
2, 232316, Note_on_c, 0, 77, 0
2, 232320, Note_on_c, 0, 69, 112
2, 232412, Note_on_c, 0, 69, 0
2, 232416, Note_on_c, 0, 77, 112
2, 232508, Note_on_c, 0, 77, 0
2, 232512, Note_on_c, 0, 72, 112
2, 232604, Note_on_c, 0, 72, 0
2, 232608, Note_on_c, 0, 77, 112
2, 232700, Note_on_c, 0, 77, 0
2, 232704, Note_on_c, 0, 67, 112
2, 232796, Note_on_c, 0, 67, 0
2, 232800, Note_on_c, 0, 77, 112
2, 232892, Note_on_c, 0, 77, 0
2, 232896, Note_on_c, 0, 72, 112
2, 232988, Note_on_c, 0, 72, 0
2, 232992, Note_on_c, 0, 77, 112
2, 233084, Note_on_c, 0, 77, 0
2, 233088, Note_on_c, 0, 67, 112
2, 233180, Note_on_c, 0, 67, 0
2, 233184, Note_on_c, 0, 76, 112
2, 233276, Note_on_c, 0, 76, 0
2, 233280, Note_on_c, 0, 72, 112
2, 233372, Note_on_c, 0, 72, 0
2, 233376, Note_on_c, 0, 76, 112
2, 233468, Note_on_c, 0, 76, 0
2, 233472, Note_on_c, 0, 67, 112
2, 233564, Note_on_c, 0, 67, 0
2, 233568, Note_on_c, 0, 75, 112
2, 233660, Note_on_c, 0, 75, 0
2, 233664, Note_on_c, 0, 72, 112
2, 233756, Note_on_c, 0, 72, 0
2, 233760, Note_on_c, 0, 75, 112
2, 233852, Note_on_c, 0, 75, 0
2, 233856, Note_on_c, 0, 67, 112
2, 233948, Note_on_c, 0, 67, 0
2, 233952, Note_on_c, 0, 75, 112
2, 234044, Note_on_c, 0, 75, 0
2, 234048, Note_on_c, 0, 72, 112
2, 234140, Note_on_c, 0, 72, 0
2, 234144, Note_on_c, 0, 75, 112
2, 234236, Note_on_c, 0, 75, 0
2, 234240, Note_on_c, 0, 67, 112
2, 234332, Note_on_c, 0, 67, 0
2, 234336, Note_on_c, 0, 74, 112
2, 234428, Note_on_c, 0, 74, 0
2, 234432, Note_on_c, 0, 72, 112
2, 234524, Note_on_c, 0, 72, 0
2, 234528, Note_on_c, 0, 74, 112
2, 234620, Note_on_c, 0, 74, 0
2, 234624, Note_on_c, 0, 67, 112
2, 234716, Note_on_c, 0, 67, 0
2, 234720, Note_on_c, 0, 74, 112
2, 234812, Note_on_c, 0, 74, 0
2, 234816, Note_on_c, 0, 71, 112
2, 234908, Note_on_c, 0, 71, 0
2, 234912, Note_on_c, 0, 74, 112
2, 235004, Note_on_c, 0, 74, 0
2, 235008, Note_on_c, 0, 70, 112
2, 235100, Note_on_c, 0, 70, 0
2, 235104, Note_on_c, 0, 79, 112
2, 235196, Note_on_c, 0, 79, 0
2, 235200, Note_on_c, 0, 74, 112
2, 235292, Note_on_c, 0, 74, 0
2, 235296, Note_on_c, 0, 79, 112
2, 235388, Note_on_c, 0, 79, 0
2, 235392, Note_on_c, 0, 70, 112
2, 235484, Note_on_c, 0, 70, 0
2, 235488, Note_on_c, 0, 79, 112
2, 235580, Note_on_c, 0, 79, 0
2, 235584, Note_on_c, 0, 74, 112
2, 235676, Note_on_c, 0, 74, 0
2, 235680, Note_on_c, 0, 79, 112
2, 235772, Note_on_c, 0, 79, 0
2, 235776, Note_on_c, 0, 69, 112
2, 235868, Note_on_c, 0, 69, 0
2, 235872, Note_on_c, 0, 79, 112
2, 235964, Note_on_c, 0, 79, 0
2, 235968, Note_on_c, 0, 74, 112
2, 236060, Note_on_c, 0, 74, 0
2, 236064, Note_on_c, 0, 79, 112
2, 236156, Note_on_c, 0, 79, 0
2, 236160, Note_on_c, 0, 69, 112
2, 236252, Note_on_c, 0, 69, 0
2, 236256, Note_on_c, 0, 78, 112
2, 236348, Note_on_c, 0, 78, 0
2, 236352, Note_on_c, 0, 74, 112
2, 236444, Note_on_c, 0, 74, 0
2, 236448, Note_on_c, 0, 78, 112
2, 236540, Note_on_c, 0, 78, 0
2, 236544, Note_on_c, 0, 69, 112
2, 236636, Note_on_c, 0, 69, 0
2, 236640, Note_on_c, 0, 77, 112
2, 236732, Note_on_c, 0, 77, 0
2, 236736, Note_on_c, 0, 74, 112
2, 236828, Note_on_c, 0, 74, 0
2, 236832, Note_on_c, 0, 77, 112
2, 236924, Note_on_c, 0, 77, 0
2, 236928, Note_on_c, 0, 69, 112
2, 237020, Note_on_c, 0, 69, 0
2, 237024, Note_on_c, 0, 77, 112
2, 237116, Note_on_c, 0, 77, 0
2, 237120, Note_on_c, 0, 74, 112
2, 237212, Note_on_c, 0, 74, 0
2, 237216, Note_on_c, 0, 77, 112
2, 237308, Note_on_c, 0, 77, 0
2, 237312, Note_on_c, 0, 69, 112
2, 237404, Note_on_c, 0, 69, 0
2, 237408, Note_on_c, 0, 76, 112
2, 237500, Note_on_c, 0, 76, 0
2, 237504, Note_on_c, 0, 74, 112
2, 237596, Note_on_c, 0, 74, 0
2, 237600, Note_on_c, 0, 76, 112
2, 237692, Note_on_c, 0, 76, 0
2, 237696, Note_on_c, 0, 69, 112
2, 237788, Note_on_c, 0, 69, 0
2, 237792, Note_on_c, 0, 76, 112
2, 237884, Note_on_c, 0, 76, 0
2, 237888, Note_on_c, 0, 73, 112
2, 237980, Note_on_c, 0, 73, 0
2, 237984, Note_on_c, 0, 76, 112
2, 238076, Note_on_c, 0, 76, 0
2, 238080, Note_on_c, 0, 72, 112
2, 238172, Note_on_c, 0, 72, 0
2, 238176, Note_on_c, 0, 81, 112
2, 238268, Note_on_c, 0, 81, 0
2, 238272, Note_on_c, 0, 76, 112
2, 238364, Note_on_c, 0, 76, 0
2, 238368, Note_on_c, 0, 81, 112
2, 238460, Note_on_c, 0, 81, 0
2, 238464, Note_on_c, 0, 72, 112
2, 238556, Note_on_c, 0, 72, 0
2, 238560, Note_on_c, 0, 81, 112
2, 238652, Note_on_c, 0, 81, 0
2, 238656, Note_on_c, 0, 76, 112
2, 238748, Note_on_c, 0, 76, 0
2, 238752, Note_on_c, 0, 81, 112
2, 238844, Note_on_c, 0, 81, 0
2, 238848, Note_on_c, 0, 71, 112
2, 238940, Note_on_c, 0, 71, 0
2, 238944, Note_on_c, 0, 81, 112
2, 239036, Note_on_c, 0, 81, 0
2, 239040, Note_on_c, 0, 76, 112
2, 239132, Note_on_c, 0, 76, 0
2, 239136, Note_on_c, 0, 81, 112
2, 239228, Note_on_c, 0, 81, 0
2, 239232, Note_on_c, 0, 71, 112
2, 239324, Note_on_c, 0, 71, 0
2, 239328, Note_on_c, 0, 80, 112
2, 239420, Note_on_c, 0, 80, 0
2, 239424, Note_on_c, 0, 76, 112
2, 239516, Note_on_c, 0, 76, 0
2, 239520, Note_on_c, 0, 80, 112
2, 239612, Note_on_c, 0, 80, 0
2, 239616, Note_on_c, 0, 71, 112
2, 239708, Note_on_c, 0, 71, 0
2, 239712, Note_on_c, 0, 79, 112
2, 239804, Note_on_c, 0, 79, 0
2, 239808, Note_on_c, 0, 76, 112
2, 239900, Note_on_c, 0, 76, 0
2, 239904, Note_on_c, 0, 79, 112
2, 239996, Note_on_c, 0, 79, 0
2, 240000, Note_on_c, 0, 71, 112
2, 240092, Note_on_c, 0, 71, 0
2, 240096, Note_on_c, 0, 79, 112
2, 240188, Note_on_c, 0, 79, 0
2, 240192, Note_on_c, 0, 76, 112
2, 240284, Note_on_c, 0, 76, 0
2, 240288, Note_on_c, 0, 79, 112
2, 240380, Note_on_c, 0, 79, 0
2, 240384, Note_on_c, 0, 76, 112
2, 240476, Note_on_c, 0, 76, 0
2, 240480, Note_on_c, 0, 78, 112
2, 240572, Note_on_c, 0, 78, 0
2, 240576, Note_on_c, 0, 75, 112
2, 240668, Note_on_c, 0, 75, 0
2, 240672, Note_on_c, 0, 78, 112
2, 240764, Note_on_c, 0, 78, 0
2, 240768, Note_on_c, 0, 74, 112
2, 240860, Note_on_c, 0, 74, 0
2, 240864, Note_on_c, 0, 83, 112
2, 240956, Note_on_c, 0, 83, 0
2, 240960, Note_on_c, 0, 74, 112
2, 241052, Note_on_c, 0, 74, 0
2, 241056, Note_on_c, 0, 83, 112
2, 241148, Note_on_c, 0, 83, 0
2, 241152, Note_on_c, 0, 73, 112
2, 241244, Note_on_c, 0, 73, 0
2, 241248, Note_on_c, 0, 76, 112
2, 241340, Note_on_c, 0, 76, 0
2, 241344, Note_on_c, 0, 73, 112
2, 241436, Note_on_c, 0, 73, 0
2, 241440, Note_on_c, 0, 76, 112
2, 241532, Note_on_c, 0, 76, 0
2, 241536, Note_on_c, 0, 72, 112
2, 241628, Note_on_c, 0, 72, 0
2, 241632, Note_on_c, 0, 81, 112
2, 241724, Note_on_c, 0, 81, 0
2, 241728, Note_on_c, 0, 72, 112
2, 241820, Note_on_c, 0, 72, 0
2, 241824, Note_on_c, 0, 81, 112
2, 241916, Note_on_c, 0, 81, 0
2, 241920, Note_on_c, 0, 71, 112
2, 242012, Note_on_c, 0, 71, 0
2, 242016, Note_on_c, 0, 74, 112
2, 242108, Note_on_c, 0, 74, 0
2, 242112, Note_on_c, 0, 71, 112
2, 242204, Note_on_c, 0, 71, 0
2, 242208, Note_on_c, 0, 74, 112
2, 242300, Note_on_c, 0, 74, 0
2, 242304, Note_on_c, 0, 70, 112
2, 242396, Note_on_c, 0, 70, 0
2, 242400, Note_on_c, 0, 79, 112
2, 242492, Note_on_c, 0, 79, 0
2, 242496, Note_on_c, 0, 70, 112
2, 242588, Note_on_c, 0, 70, 0
2, 242592, Note_on_c, 0, 79, 112
2, 242684, Note_on_c, 0, 79, 0
2, 242688, Note_on_c, 0, 69, 112
2, 242780, Note_on_c, 0, 69, 0
2, 242784, Note_on_c, 0, 72, 112
2, 242876, Note_on_c, 0, 72, 0
2, 242880, Note_on_c, 0, 69, 112
2, 242972, Note_on_c, 0, 69, 0
2, 242976, Note_on_c, 0, 72, 112
2, 243068, Note_on_c, 0, 72, 0
2, 243072, Note_on_c, 0, 69, 112
2, 243164, Note_on_c, 0, 69, 0
2, 243168, Note_on_c, 0, 77, 112
2, 243260, Note_on_c, 0, 77, 0
2, 243264, Note_on_c, 0, 69, 112
2, 243356, Note_on_c, 0, 69, 0
2, 243360, Note_on_c, 0, 77, 112
2, 243452, Note_on_c, 0, 77, 0
2, 243456, Note_on_c, 0, 68, 112
2, 243548, Note_on_c, 0, 68, 0
2, 243552, Note_on_c, 0, 71, 112
2, 243644, Note_on_c, 0, 71, 0
2, 243648, Note_on_c, 0, 68, 112
2, 243740, Note_on_c, 0, 68, 0
2, 243744, Note_on_c, 0, 71, 112
2, 243836, Note_on_c, 0, 71, 0
2, 243840, Note_on_c, 0, 67, 112
2, 243932, Note_on_c, 0, 67, 0
2, 243936, Note_on_c, 0, 76, 112
2, 244028, Note_on_c, 0, 76, 0
2, 244032, Note_on_c, 0, 67, 112
2, 244124, Note_on_c, 0, 67, 0
2, 244128, Note_on_c, 0, 76, 112
2, 244220, Note_on_c, 0, 76, 0
2, 244224, Note_on_c, 0, 66, 112
2, 244316, Note_on_c, 0, 66, 0
2, 244320, Note_on_c, 0, 69, 112
2, 244412, Note_on_c, 0, 69, 0
2, 244416, Note_on_c, 0, 66, 112
2, 244508, Note_on_c, 0, 66, 0
2, 244512, Note_on_c, 0, 69, 112
2, 244604, Note_on_c, 0, 69, 0
2, 244608, Note_on_c, 0, 65, 112
2, 244700, Note_on_c, 0, 65, 0
2, 244704, Note_on_c, 0, 74, 112
2, 244796, Note_on_c, 0, 74, 0
2, 244800, Note_on_c, 0, 65, 112
2, 244892, Note_on_c, 0, 65, 0
2, 244896, Note_on_c, 0, 74, 112
2, 244988, Note_on_c, 0, 74, 0
2, 244992, Note_on_c, 0, 64, 112
2, 245084, Note_on_c, 0, 64, 0
2, 245088, Note_on_c, 0, 67, 112
2, 245180, Note_on_c, 0, 67, 0
2, 245184, Note_on_c, 0, 72, 112
2, 245276, Note_on_c, 0, 72, 0
2, 245280, Note_on_c, 0, 67, 112
2, 245372, Note_on_c, 0, 67, 0
2, 245376, Note_on_c, 0, 64, 112
2, 245468, Note_on_c, 0, 64, 0
2, 245472, Note_on_c, 0, 67, 112
2, 245564, Note_on_c, 0, 67, 0
2, 245568, Note_on_c, 0, 72, 112
2, 245660, Note_on_c, 0, 72, 0
2, 245664, Note_on_c, 0, 67, 112
2, 245756, Note_on_c, 0, 67, 0
2, 245760, Note_on_c, 0, 63, 112
2, 245852, Note_on_c, 0, 63, 0
2, 245856, Note_on_c, 0, 66, 112
2, 245948, Note_on_c, 0, 66, 0
2, 245952, Note_on_c, 0, 72, 112
2, 246044, Note_on_c, 0, 72, 0
2, 246048, Note_on_c, 0, 66, 112
2, 246140, Note_on_c, 0, 66, 0
2, 246144, Note_on_c, 0, 63, 112
2, 246236, Note_on_c, 0, 63, 0
2, 246240, Note_on_c, 0, 67, 112
2, 246332, Note_on_c, 0, 67, 0
2, 246336, Note_on_c, 0, 72, 112
2, 246428, Note_on_c, 0, 72, 0
2, 246432, Note_on_c, 0, 67, 112
2, 246524, Note_on_c, 0, 67, 0
2, 246624, Note_on_c, 0, 60, 112
2, 246716, Note_on_c, 0, 60, 0
2, 246720, Note_on_c, 0, 63, 112
2, 246812, Note_on_c, 0, 63, 0
2, 246816, Note_on_c, 0, 66, 112
2, 246908, Note_on_c, 0, 66, 0
2, 246912, Note_on_c, 0, 69, 112
2, 247004, Note_on_c, 0, 69, 0
2, 247008, Note_on_c, 0, 63, 112
2, 247100, Note_on_c, 0, 63, 0
2, 247104, Note_on_c, 0, 66, 112
2, 247196, Note_on_c, 0, 66, 0
2, 247200, Note_on_c, 0, 69, 112
2, 247292, Note_on_c, 0, 69, 0
2, 247296, Note_on_c, 0, 72, 112
2, 247388, Note_on_c, 0, 72, 0
2, 247392, Note_on_c, 0, 66, 112
2, 247484, Note_on_c, 0, 66, 0
2, 247488, Note_on_c, 0, 69, 112
2, 247580, Note_on_c, 0, 69, 0
2, 247584, Note_on_c, 0, 72, 112
2, 247676, Note_on_c, 0, 72, 0
2, 247680, Note_on_c, 0, 75, 112
2, 247772, Note_on_c, 0, 75, 0
2, 247776, Note_on_c, 0, 69, 112
2, 247868, Note_on_c, 0, 69, 0
2, 247872, Note_on_c, 0, 72, 112
2, 247964, Note_on_c, 0, 72, 0
2, 247968, Note_on_c, 0, 75, 112
2, 248060, Note_on_c, 0, 75, 0
2, 248064, Note_on_c, 0, 78, 112
2, 248156, Note_on_c, 0, 78, 0
2, 248160, Note_on_c, 0, 72, 112
2, 248252, Note_on_c, 0, 72, 0
2, 248256, Note_on_c, 0, 75, 112
2, 248348, Note_on_c, 0, 75, 0
2, 248352, Note_on_c, 0, 78, 112
2, 248444, Note_on_c, 0, 78, 0
2, 248448, Note_on_c, 0, 81, 112
2, 248540, Note_on_c, 0, 81, 0
2, 248544, Note_on_c, 0, 75, 112
2, 248636, Note_on_c, 0, 75, 0
2, 248640, Note_on_c, 0, 78, 112
2, 248732, Note_on_c, 0, 78, 0
2, 248736, Note_on_c, 0, 81, 112
2, 248828, Note_on_c, 0, 81, 0
2, 248832, Note_on_c, 0, 84, 112
2, 248924, Note_on_c, 0, 84, 0
2, 248928, Note_on_c, 0, 81, 112
2, 249020, Note_on_c, 0, 81, 0
2, 249024, Note_on_c, 0, 78, 112
2, 249116, Note_on_c, 0, 78, 0
2, 249120, Note_on_c, 0, 75, 112
2, 249212, Note_on_c, 0, 75, 0
2, 249216, Note_on_c, 0, 81, 112
2, 249308, Note_on_c, 0, 81, 0
2, 249312, Note_on_c, 0, 78, 112
2, 249404, Note_on_c, 0, 78, 0
2, 249408, Note_on_c, 0, 75, 112
2, 249500, Note_on_c, 0, 75, 0
2, 249504, Note_on_c, 0, 74, 112
2, 249596, Note_on_c, 0, 74, 0
2, 249600, Note_on_c, 0, 71, 112
2, 249692, Note_on_c, 0, 71, 0
2, 249696, Note_on_c, 0, 79, 112
2, 249788, Note_on_c, 0, 79, 0
2, 249792, Note_on_c, 0, 74, 112
2, 249884, Note_on_c, 0, 74, 0
2, 249888, Note_on_c, 0, 71, 112
2, 249980, Note_on_c, 0, 71, 0
2, 249984, Note_on_c, 0, 67, 112
2, 250076, Note_on_c, 0, 67, 0
2, 250080, Note_on_c, 0, 79, 112
2, 250172, Note_on_c, 0, 79, 0
2, 250176, Note_on_c, 0, 67, 112
2, 250268, Note_on_c, 0, 67, 0
2, 250272, Note_on_c, 0, 79, 112
2, 250364, Note_on_c, 0, 79, 0
2, 250368, Note_on_c, 0, 79, 112
2, 250368, Note_on_c, 0, 67, 112
2, 250556, Note_on_c, 0, 67, 0
2, 250556, Note_on_c, 0, 79, 0
2, 250560, Note_on_c, 0, 80, 112
2, 250560, Note_on_c, 0, 68, 112
2, 250748, Note_on_c, 0, 68, 0
2, 250748, Note_on_c, 0, 80, 0
2, 250752, Note_on_c, 0, 79, 112
2, 250752, Note_on_c, 0, 67, 112
2, 250940, Note_on_c, 0, 67, 0
2, 250940, Note_on_c, 0, 79, 0
2, 250944, Note_on_c, 0, 78, 112
2, 250944, Note_on_c, 0, 66, 112
2, 251132, Note_on_c, 0, 66, 0
2, 251132, Note_on_c, 0, 78, 0
2, 251136, Note_on_c, 0, 67, 112
2, 251228, Note_on_c, 0, 67, 0
2, 251232, Note_on_c, 0, 79, 112
2, 251324, Note_on_c, 0, 79, 0
2, 251328, Note_on_c, 0, 74, 112
2, 251420, Note_on_c, 0, 74, 0
2, 251424, Note_on_c, 0, 71, 112
2, 251516, Note_on_c, 0, 71, 0
2, 251520, Note_on_c, 0, 67, 112
2, 251612, Note_on_c, 0, 67, 0
2, 251616, Note_on_c, 0, 79, 112
2, 251708, Note_on_c, 0, 79, 0
2, 251712, Note_on_c, 0, 67, 112
2, 251804, Note_on_c, 0, 67, 0
2, 251808, Note_on_c, 0, 79, 112
2, 251900, Note_on_c, 0, 79, 0
2, 251904, Note_on_c, 0, 79, 112
2, 251904, Note_on_c, 0, 67, 112
2, 252092, Note_on_c, 0, 67, 0
2, 252092, Note_on_c, 0, 79, 0
2, 252096, Note_on_c, 0, 80, 112
2, 252096, Note_on_c, 0, 68, 112
2, 252284, Note_on_c, 0, 68, 0
2, 252284, Note_on_c, 0, 80, 0
2, 252288, Note_on_c, 0, 79, 112
2, 252288, Note_on_c, 0, 67, 112
2, 252476, Note_on_c, 0, 67, 0
2, 252476, Note_on_c, 0, 79, 0
2, 252480, Note_on_c, 0, 78, 112
2, 252480, Note_on_c, 0, 66, 112
2, 252668, Note_on_c, 0, 66, 0
2, 252668, Note_on_c, 0, 78, 0
2, 252672, Note_on_c, 0, 79, 112
2, 252672, Note_on_c, 0, 67, 112
2, 252860, Note_on_c, 0, 67, 0
2, 252860, Note_on_c, 0, 79, 0
2, 252864, Note_on_c, 0, 80, 112
2, 252864, Note_on_c, 0, 68, 112
2, 253052, Note_on_c, 0, 68, 0
2, 253052, Note_on_c, 0, 80, 0
2, 253056, Note_on_c, 0, 79, 112
2, 253056, Note_on_c, 0, 67, 112
2, 253244, Note_on_c, 0, 67, 0
2, 253244, Note_on_c, 0, 79, 0
2, 253248, Note_on_c, 0, 78, 112
2, 253248, Note_on_c, 0, 66, 112
2, 253436, Note_on_c, 0, 66, 0
2, 253436, Note_on_c, 0, 78, 0
2, 253440, Note_on_c, 0, 79, 112
2, 253440, Note_on_c, 0, 67, 112
2, 253628, Note_on_c, 0, 67, 0
2, 253628, Note_on_c, 0, 79, 0
2, 253632, Note_on_c, 0, 80, 112
2, 253632, Note_on_c, 0, 68, 112
2, 253820, Note_on_c, 0, 68, 0
2, 253820, Note_on_c, 0, 80, 0
2, 253824, Note_on_c, 0, 79, 112
2, 253824, Note_on_c, 0, 67, 112
2, 254012, Note_on_c, 0, 67, 0
2, 254012, Note_on_c, 0, 79, 0
2, 254016, Note_on_c, 0, 78, 112
2, 254016, Note_on_c, 0, 66, 112
2, 254204, Note_on_c, 0, 66, 0
2, 254204, Note_on_c, 0, 78, 0
2, 254208, Note_on_c, 0, 79, 112
2, 254208, Note_on_c, 0, 67, 112
2, 254588, Note_on_c, 0, 67, 0
2, 254588, Note_on_c, 0, 79, 0
2, 259584, Note_on_c, 0, 76, 89
2, 259676, Note_on_c, 0, 76, 0
2, 259776, Note_on_c, 0, 77, 89
2, 259868, Note_on_c, 0, 77, 0
2, 259968, Note_on_c, 0, 78, 89
2, 260060, Note_on_c, 0, 78, 0
2, 260160, Note_on_c, 0, 79, 89
2, 260252, Note_on_c, 0, 79, 0
2, 260352, Note_on_c, 0, 81, 89
2, 260540, Note_on_c, 0, 81, 0
2, 260544, Note_on_c, 0, 79, 89
2, 260732, Note_on_c, 0, 79, 0
2, 260736, Note_on_c, 0, 77, 89
2, 260828, Note_on_c, 0, 77, 0
2, 260928, Note_on_c, 0, 76, 89
2, 261020, Note_on_c, 0, 76, 0
2, 261120, Note_on_c, 0, 74, 89
2, 261264, Note_on_c, 0, 76, 89
2, 261308, Note_on_c, 0, 76, 0
2, 261308, Note_on_c, 0, 74, 0
2, 261312, Note_on_c, 0, 74, 89
2, 261404, Note_on_c, 0, 74, 0
2, 261408, Note_on_c, 0, 72, 89
2, 261500, Note_on_c, 0, 72, 0
2, 261504, Note_on_c, 0, 74, 89
2, 261692, Note_on_c, 0, 74, 0
2, 261696, Note_on_c, 0, 74, 89
2, 261788, Note_on_c, 0, 74, 0
2, 261888, Note_on_c, 0, 74, 89
2, 262076, Note_on_c, 0, 74, 0
2, 262080, Note_on_c, 0, 74, 89
2, 262268, Note_on_c, 0, 74, 0
2, 262272, Note_on_c, 0, 76, 89
2, 262460, Note_on_c, 0, 76, 0
2, 262464, Note_on_c, 0, 72, 89
2, 262652, Note_on_c, 0, 72, 0
2, 262656, Note_on_c, 0, 76, 89
2, 262748, Note_on_c, 0, 76, 0
2, 262848, Note_on_c, 0, 77, 89
2, 262940, Note_on_c, 0, 77, 0
2, 263040, Note_on_c, 0, 78, 89
2, 263132, Note_on_c, 0, 78, 0
2, 263232, Note_on_c, 0, 79, 89
2, 263324, Note_on_c, 0, 79, 0
2, 263424, Note_on_c, 0, 81, 89
2, 263612, Note_on_c, 0, 81, 0
2, 263616, Note_on_c, 0, 79, 89
2, 263804, Note_on_c, 0, 79, 0
2, 263808, Note_on_c, 0, 77, 89
2, 263900, Note_on_c, 0, 77, 0
2, 264000, Note_on_c, 0, 76, 89
2, 264092, Note_on_c, 0, 76, 0
2, 264192, Note_on_c, 0, 74, 89
2, 264336, Note_on_c, 0, 76, 89
2, 264380, Note_on_c, 0, 76, 0
2, 264380, Note_on_c, 0, 74, 0
2, 264384, Note_on_c, 0, 74, 89
2, 264476, Note_on_c, 0, 74, 0
2, 264480, Note_on_c, 0, 72, 89
2, 264572, Note_on_c, 0, 72, 0
2, 264576, Note_on_c, 0, 74, 89
2, 264764, Note_on_c, 0, 74, 0
2, 264768, Note_on_c, 0, 76, 89
2, 264860, Note_on_c, 0, 76, 0
2, 264960, Note_on_c, 0, 72, 89
2, 265340, Note_on_c, 0, 72, 0
2, 274176, Note_on_c, 0, 60, 119
2, 274268, Note_on_c, 0, 60, 0
2, 274272, Note_on_c, 0, 72, 119
2, 274944, Note_on_c, 0, 72, 0
2, 274944, Note_on_c, 0, 64, 116
2, 275036, Note_on_c, 0, 64, 0
2, 275040, Note_on_c, 0, 76, 116
2, 275712, Note_on_c, 0, 76, 0
2, 275712, Note_on_c, 0, 67, 112
2, 275804, Note_on_c, 0, 67, 0
2, 275808, Note_on_c, 0, 79, 112
2, 276672, Note_on_c, 0, 81, 112
2, 276764, Note_on_c, 0, 81, 0
2, 276764, Note_on_c, 0, 79, 0
2, 276768, Note_on_c, 0, 79, 112
2, 276860, Note_on_c, 0, 79, 0
2, 276864, Note_on_c, 0, 77, 112
2, 276956, Note_on_c, 0, 77, 0
2, 276960, Note_on_c, 0, 76, 112
2, 277052, Note_on_c, 0, 76, 0
2, 277056, Note_on_c, 0, 74, 112
2, 277148, Note_on_c, 0, 74, 0
2, 277152, Note_on_c, 0, 72, 112
2, 277244, Note_on_c, 0, 72, 0
2, 277248, Note_on_c, 0, 71, 112
2, 277340, Note_on_c, 0, 71, 0
2, 277344, Note_on_c, 0, 74, 112
2, 277436, Note_on_c, 0, 74, 0
2, 277440, Note_on_c, 0, 72, 112
2, 277532, Note_on_c, 0, 72, 0
2, 277536, Note_on_c, 0, 76, 112
2, 277628, Note_on_c, 0, 76, 0
2, 277632, Note_on_c, 0, 74, 112
2, 277724, Note_on_c, 0, 74, 0
2, 277728, Note_on_c, 0, 77, 112
2, 277820, Note_on_c, 0, 77, 0
2, 277824, Note_on_c, 0, 76, 112
2, 277916, Note_on_c, 0, 76, 0
2, 277920, Note_on_c, 0, 79, 112
2, 278012, Note_on_c, 0, 79, 0
2, 278016, Note_on_c, 0, 77, 112
2, 278108, Note_on_c, 0, 77, 0
2, 278112, Note_on_c, 0, 81, 112
2, 278204, Note_on_c, 0, 81, 0
2, 278208, Note_on_c, 0, 79, 112
2, 278300, Note_on_c, 0, 79, 0
2, 278304, Note_on_c, 0, 83, 112
2, 278396, Note_on_c, 0, 83, 0
2, 278400, Note_on_c, 0, 81, 112
2, 278492, Note_on_c, 0, 81, 0
2, 278496, Note_on_c, 0, 84, 112
2, 278588, Note_on_c, 0, 84, 0
2, 278592, Note_on_c, 0, 83, 112
2, 278684, Note_on_c, 0, 83, 0
2, 278688, Note_on_c, 0, 86, 112
2, 278780, Note_on_c, 0, 86, 0
2, 278784, Note_on_c, 0, 84, 112
2, 278876, Note_on_c, 0, 84, 0
2, 278976, Note_on_c, 0, 76, 112
2, 279068, Note_on_c, 0, 76, 0
2, 279168, Note_on_c, 0, 76, 112
2, 279740, Note_on_c, 0, 76, 0
2, 279744, Note_on_c, 0, 77, 112
2, 279836, Note_on_c, 0, 77, 0
2, 279840, Note_on_c, 0, 76, 112
2, 279932, Note_on_c, 0, 76, 0
2, 279936, Note_on_c, 0, 74, 112
2, 280028, Note_on_c, 0, 74, 0
2, 280032, Note_on_c, 0, 72, 112
2, 280124, Note_on_c, 0, 72, 0
2, 280128, Note_on_c, 0, 71, 112
2, 280220, Note_on_c, 0, 71, 0
2, 280224, Note_on_c, 0, 69, 112
2, 280316, Note_on_c, 0, 69, 0
2, 280320, Note_on_c, 0, 68, 112
2, 280412, Note_on_c, 0, 68, 0
2, 280416, Note_on_c, 0, 71, 112
2, 280508, Note_on_c, 0, 71, 0
2, 280512, Note_on_c, 0, 69, 112
2, 280604, Note_on_c, 0, 69, 0
2, 280608, Note_on_c, 0, 72, 112
2, 280700, Note_on_c, 0, 72, 0
2, 280704, Note_on_c, 0, 71, 112
2, 280796, Note_on_c, 0, 71, 0
2, 280800, Note_on_c, 0, 74, 112
2, 280892, Note_on_c, 0, 74, 0
2, 280896, Note_on_c, 0, 72, 112
2, 280988, Note_on_c, 0, 72, 0
2, 280992, Note_on_c, 0, 76, 112
2, 281084, Note_on_c, 0, 76, 0
2, 281088, Note_on_c, 0, 74, 112
2, 281180, Note_on_c, 0, 74, 0
2, 281184, Note_on_c, 0, 78, 112
2, 281276, Note_on_c, 0, 78, 0
2, 281280, Note_on_c, 0, 76, 112
2, 281372, Note_on_c, 0, 76, 0
2, 281376, Note_on_c, 0, 80, 112
2, 281468, Note_on_c, 0, 80, 0
2, 281472, Note_on_c, 0, 78, 112
2, 281564, Note_on_c, 0, 78, 0
2, 281568, Note_on_c, 0, 81, 112
2, 281660, Note_on_c, 0, 81, 0
2, 281664, Note_on_c, 0, 80, 112
2, 281756, Note_on_c, 0, 80, 0
2, 281760, Note_on_c, 0, 83, 112
2, 281852, Note_on_c, 0, 83, 0
2, 281856, Note_on_c, 0, 81, 112
2, 281948, Note_on_c, 0, 81, 0
2, 282048, Note_on_c, 0, 72, 112
2, 282140, Note_on_c, 0, 72, 0
2, 282240, Note_on_c, 0, 72, 112
2, 282812, Note_on_c, 0, 72, 0
2, 282816, Note_on_c, 0, 74, 112
2, 282908, Note_on_c, 0, 74, 0
2, 282912, Note_on_c, 0, 72, 112
2, 283004, Note_on_c, 0, 72, 0
2, 283008, Note_on_c, 0, 70, 112
2, 283100, Note_on_c, 0, 70, 0
2, 283104, Note_on_c, 0, 69, 112
2, 283196, Note_on_c, 0, 69, 0
2, 283200, Note_on_c, 0, 67, 112
2, 283292, Note_on_c, 0, 67, 0
2, 283296, Note_on_c, 0, 65, 112
2, 283388, Note_on_c, 0, 65, 0
2, 283392, Note_on_c, 0, 64, 112
2, 283484, Note_on_c, 0, 64, 0
2, 283488, Note_on_c, 0, 67, 112
2, 283580, Note_on_c, 0, 67, 0
2, 283584, Note_on_c, 0, 65, 112
2, 283676, Note_on_c, 0, 65, 0
2, 283680, Note_on_c, 0, 69, 112
2, 283772, Note_on_c, 0, 69, 0
2, 283776, Note_on_c, 0, 67, 112
2, 283868, Note_on_c, 0, 67, 0
2, 283872, Note_on_c, 0, 70, 112
2, 283964, Note_on_c, 0, 70, 0
2, 283968, Note_on_c, 0, 69, 112
2, 284060, Note_on_c, 0, 69, 0
2, 284064, Note_on_c, 0, 72, 112
2, 284156, Note_on_c, 0, 72, 0
2, 284160, Note_on_c, 0, 70, 112
2, 284252, Note_on_c, 0, 70, 0
2, 284256, Note_on_c, 0, 74, 112
2, 284348, Note_on_c, 0, 74, 0
2, 284352, Note_on_c, 0, 72, 112
2, 284444, Note_on_c, 0, 72, 0
2, 284448, Note_on_c, 0, 76, 112
2, 284540, Note_on_c, 0, 76, 0
2, 284544, Note_on_c, 0, 74, 112
2, 284636, Note_on_c, 0, 74, 0
2, 284640, Note_on_c, 0, 77, 112
2, 284732, Note_on_c, 0, 77, 0
2, 284736, Note_on_c, 0, 76, 112
2, 284828, Note_on_c, 0, 76, 0
2, 284832, Note_on_c, 0, 79, 112
2, 284924, Note_on_c, 0, 79, 0
2, 284928, Note_on_c, 0, 77, 112
2, 285020, Note_on_c, 0, 77, 0
2, 285024, Note_on_c, 0, 79, 112
2, 285116, Note_on_c, 0, 79, 0
2, 285120, Note_on_c, 0, 81, 112
2, 285212, Note_on_c, 0, 81, 0
2, 285216, Note_on_c, 0, 79, 112
2, 285308, Note_on_c, 0, 79, 0
2, 285312, Note_on_c, 0, 77, 112
2, 285404, Note_on_c, 0, 77, 0
2, 285408, Note_on_c, 0, 76, 112
2, 285500, Note_on_c, 0, 76, 0
2, 285504, Note_on_c, 0, 74, 112
2, 285596, Note_on_c, 0, 74, 0
2, 285600, Note_on_c, 0, 73, 112
2, 285692, Note_on_c, 0, 73, 0
2, 285696, Note_on_c, 0, 74, 112
2, 285788, Note_on_c, 0, 74, 0
2, 285792, Note_on_c, 0, 76, 112
2, 285884, Note_on_c, 0, 76, 0
2, 285888, Note_on_c, 0, 77, 112
2, 285980, Note_on_c, 0, 77, 0
2, 285984, Note_on_c, 0, 79, 112
2, 286076, Note_on_c, 0, 79, 0
2, 286080, Note_on_c, 0, 81, 112
2, 286172, Note_on_c, 0, 81, 0
2, 286176, Note_on_c, 0, 82, 112
2, 286268, Note_on_c, 0, 82, 0
2, 286272, Note_on_c, 0, 84, 112
2, 286364, Note_on_c, 0, 84, 0
2, 286368, Note_on_c, 0, 83, 112
2, 286460, Note_on_c, 0, 83, 0
2, 286464, Note_on_c, 0, 81, 112
2, 286556, Note_on_c, 0, 81, 0
2, 286560, Note_on_c, 0, 82, 112
2, 286652, Note_on_c, 0, 82, 0
2, 286656, Note_on_c, 0, 81, 112
2, 286748, Note_on_c, 0, 81, 0
2, 286752, Note_on_c, 0, 79, 112
2, 286844, Note_on_c, 0, 79, 0
2, 286848, Note_on_c, 0, 77, 112
2, 286940, Note_on_c, 0, 77, 0
2, 286944, Note_on_c, 0, 76, 112
2, 287036, Note_on_c, 0, 76, 0
2, 287040, Note_on_c, 0, 74, 112
2, 287132, Note_on_c, 0, 74, 0
2, 287136, Note_on_c, 0, 73, 112
2, 287228, Note_on_c, 0, 73, 0
2, 287232, Note_on_c, 0, 74, 112
2, 287324, Note_on_c, 0, 74, 0
2, 287328, Note_on_c, 0, 76, 112
2, 287420, Note_on_c, 0, 76, 0
2, 287424, Note_on_c, 0, 77, 112
2, 287516, Note_on_c, 0, 77, 0
2, 287520, Note_on_c, 0, 79, 112
2, 287612, Note_on_c, 0, 79, 0
2, 287616, Note_on_c, 0, 81, 112
2, 287708, Note_on_c, 0, 81, 0
2, 287712, Note_on_c, 0, 82, 112
2, 287804, Note_on_c, 0, 82, 0
2, 287808, Note_on_c, 0, 84, 112
2, 287900, Note_on_c, 0, 84, 0
2, 287904, Note_on_c, 0, 83, 112
2, 287996, Note_on_c, 0, 83, 0
2, 288000, Note_on_c, 0, 80, 112
2, 288188, Note_on_c, 0, 80, 0
2, 288192, Note_on_c, 0, 81, 112
2, 288380, Note_on_c, 0, 81, 0
2, 288384, Note_on_c, 0, 79, 112
2, 288572, Note_on_c, 0, 79, 0
2, 288576, Note_on_c, 0, 77, 112
2, 288764, Note_on_c, 0, 77, 0
2, 288768, Note_on_c, 0, 76, 112
2, 288956, Note_on_c, 0, 76, 0
2, 288960, Note_on_c, 0, 75, 112
2, 289148, Note_on_c, 0, 75, 0
2, 289152, Note_on_c, 0, 74, 112
2, 289340, Note_on_c, 0, 74, 0
2, 289344, Note_on_c, 0, 72, 112
2, 289532, Note_on_c, 0, 72, 0
2, 289536, Note_on_c, 0, 71, 112
2, 289724, Note_on_c, 0, 71, 0
2, 289920, Note_on_c, 0, 67, 112
2, 290012, Note_on_c, 0, 67, 0
2, 290016, Note_on_c, 0, 71, 112
2, 290108, Note_on_c, 0, 71, 0
2, 290112, Note_on_c, 0, 74, 112
2, 290204, Note_on_c, 0, 74, 0
2, 290208, Note_on_c, 0, 79, 112
2, 290300, Note_on_c, 0, 79, 0
2, 290304, Note_on_c, 0, 75, 112
2, 290492, Note_on_c, 0, 75, 0
2, 290688, Note_on_c, 0, 72, 112
2, 290780, Note_on_c, 0, 72, 0
2, 290784, Note_on_c, 0, 75, 112
2, 290876, Note_on_c, 0, 75, 0
2, 290880, Note_on_c, 0, 78, 112
2, 290972, Note_on_c, 0, 78, 0
2, 290976, Note_on_c, 0, 84, 112
2, 291068, Note_on_c, 0, 84, 0
2, 291072, Note_on_c, 0, 83, 112
2, 291164, Note_on_c, 0, 83, 0
2, 291456, Note_on_c, 0, 74, 112
2, 291548, Note_on_c, 0, 74, 0
2, 291552, Note_on_c, 0, 79, 112
2, 291644, Note_on_c, 0, 79, 0
2, 291648, Note_on_c, 0, 83, 112
2, 291740, Note_on_c, 0, 83, 0
2, 291744, Note_on_c, 0, 86, 112
2, 291836, Note_on_c, 0, 86, 0
2, 291840, Note_on_c, 0, 89, 112
2, 291932, Note_on_c, 0, 89, 0
2, 291936, Note_on_c, 0, 87, 112
2, 292028, Note_on_c, 0, 87, 0
2, 292032, Note_on_c, 0, 86, 112
2, 292124, Note_on_c, 0, 86, 0
2, 292128, Note_on_c, 0, 84, 112
2, 292220, Note_on_c, 0, 84, 0
2, 292224, Note_on_c, 0, 82, 112
2, 292316, Note_on_c, 0, 82, 0
2, 292320, Note_on_c, 0, 80, 112
2, 292412, Note_on_c, 0, 80, 0
2, 292416, Note_on_c, 0, 79, 112
2, 292508, Note_on_c, 0, 79, 0
2, 292512, Note_on_c, 0, 78, 112
2, 292604, Note_on_c, 0, 78, 0
2, 292608, Note_on_c, 0, 79, 112
2, 292700, Note_on_c, 0, 79, 0
2, 292704, Note_on_c, 0, 67, 112
2, 292796, Note_on_c, 0, 67, 0
2, 292800, Note_on_c, 0, 71, 112
2, 292892, Note_on_c, 0, 71, 0
2, 292896, Note_on_c, 0, 74, 112
2, 292988, Note_on_c, 0, 74, 0
2, 292992, Note_on_c, 0, 79, 112
2, 293084, Note_on_c, 0, 79, 0
2, 293088, Note_on_c, 0, 83, 112
2, 293180, Note_on_c, 0, 83, 0
2, 293184, Note_on_c, 0, 86, 112
2, 293276, Note_on_c, 0, 86, 0
2, 293280, Note_on_c, 0, 83, 112
2, 293372, Note_on_c, 0, 83, 0
2, 293376, Note_on_c, 0, 79, 112
2, 293756, Note_on_c, 0, 79, 0
2, 296256, Note_on_c, 0, 72, 89
2, 296256, Note_on_c, 0, 64, 89
2, 296444, Note_on_c, 0, 64, 0
2, 296444, Note_on_c, 0, 72, 0
2, 296448, Note_on_c, 0, 76, 89
2, 296448, Note_on_c, 0, 67, 89
2, 296636, Note_on_c, 0, 67, 0
2, 296636, Note_on_c, 0, 76, 0
2, 296640, Note_on_c, 0, 76, 89
2, 296640, Note_on_c, 0, 67, 89
2, 296732, Note_on_c, 0, 67, 0
2, 296732, Note_on_c, 0, 76, 0
2, 297024, Note_on_c, 0, 72, 89
2, 297024, Note_on_c, 0, 64, 89
2, 297212, Note_on_c, 0, 64, 0
2, 297212, Note_on_c, 0, 72, 0
2, 297216, Note_on_c, 0, 69, 89
2, 297216, Note_on_c, 0, 65, 89
2, 297404, Note_on_c, 0, 65, 0
2, 297404, Note_on_c, 0, 69, 0
2, 297408, Note_on_c, 0, 69, 89
2, 297408, Note_on_c, 0, 65, 89
2, 297500, Note_on_c, 0, 65, 0
2, 297500, Note_on_c, 0, 69, 0
2, 297792, Note_on_c, 0, 77, 89
2, 297792, Note_on_c, 0, 69, 89
2, 297980, Note_on_c, 0, 69, 0
2, 297980, Note_on_c, 0, 77, 0
2, 297984, Note_on_c, 0, 81, 89
2, 297984, Note_on_c, 0, 71, 89
2, 298172, Note_on_c, 0, 71, 0
2, 298172, Note_on_c, 0, 81, 0
2, 298176, Note_on_c, 0, 81, 89
2, 298176, Note_on_c, 0, 71, 89
2, 298268, Note_on_c, 0, 71, 0
2, 298268, Note_on_c, 0, 81, 0
2, 298560, Note_on_c, 0, 71, 89
2, 298560, Note_on_c, 0, 77, 89
2, 298748, Note_on_c, 0, 71, 0
2, 298752, Note_on_c, 0, 76, 89
2, 298752, Note_on_c, 0, 72, 89
2, 298756, Note_on_c, 0, 77, 0
2, 298940, Note_on_c, 0, 72, 0
2, 298940, Note_on_c, 0, 76, 0
2, 298944, Note_on_c, 0, 76, 89
2, 298944, Note_on_c, 0, 72, 89
2, 299036, Note_on_c, 0, 72, 0
2, 299036, Note_on_c, 0, 76, 0
2, 299328, Note_on_c, 0, 72, 89
2, 299516, Note_on_c, 0, 72, 0
2, 299520, Note_on_c, 0, 71, 89
2, 299708, Note_on_c, 0, 71, 0
2, 299712, Note_on_c, 0, 71, 89
2, 299900, Note_on_c, 0, 71, 0
2, 300096, Note_on_c, 0, 72, 89
2, 300284, Note_on_c, 0, 72, 0
2, 300288, Note_on_c, 0, 74, 89
2, 300288, Note_on_c, 0, 71, 89
2, 300476, Note_on_c, 0, 71, 0
2, 300476, Note_on_c, 0, 74, 0
2, 300480, Note_on_c, 0, 74, 89
2, 300480, Note_on_c, 0, 71, 89
2, 300572, Note_on_c, 0, 71, 0
2, 300572, Note_on_c, 0, 74, 0
2, 300864, Note_on_c, 0, 76, 89
2, 300864, Note_on_c, 0, 72, 89
2, 301052, Note_on_c, 0, 72, 0
2, 301052, Note_on_c, 0, 76, 0
2, 301248, Note_on_c, 0, 79, 89
2, 301248, Note_on_c, 0, 74, 89
2, 301436, Note_on_c, 0, 74, 0
2, 301436, Note_on_c, 0, 79, 0
2, 301632, Note_on_c, 0, 76, 89
2, 301632, Note_on_c, 0, 72, 89
2, 301820, Note_on_c, 0, 72, 0
2, 301820, Note_on_c, 0, 76, 0
2, 301824, Note_on_c, 0, 74, 89
2, 301824, Note_on_c, 0, 71, 89
2, 302012, Note_on_c, 0, 71, 0
2, 302012, Note_on_c, 0, 74, 0
2, 302016, Note_on_c, 0, 74, 89
2, 302016, Note_on_c, 0, 71, 89
2, 302108, Note_on_c, 0, 71, 0
2, 302108, Note_on_c, 0, 74, 0
2, 303360, Note_on_c, 0, 72, 89
2, 303548, Note_on_c, 0, 72, 0
2, 303552, Note_on_c, 0, 74, 89
2, 303644, Note_on_c, 0, 74, 0
2, 303648, Note_on_c, 0, 76, 89
2, 303740, Note_on_c, 0, 76, 0
2, 303744, Note_on_c, 0, 77, 89
2, 303836, Note_on_c, 0, 77, 0
2, 303840, Note_on_c, 0, 79, 89
2, 303932, Note_on_c, 0, 79, 0
2, 303936, Note_on_c, 0, 81, 89
2, 304028, Note_on_c, 0, 81, 0
2, 304032, Note_on_c, 0, 83, 89
2, 304124, Note_on_c, 0, 83, 0
2, 304128, Note_on_c, 0, 84, 89
2, 304220, Note_on_c, 0, 84, 0
2, 304224, Note_on_c, 0, 86, 89
2, 304316, Note_on_c, 0, 86, 0
2, 304320, Note_on_c, 0, 88, 89
2, 304412, Note_on_c, 0, 88, 0
2, 304416, Note_on_c, 0, 86, 89
2, 304508, Note_on_c, 0, 86, 0
2, 304512, Note_on_c, 0, 84, 89
2, 304604, Note_on_c, 0, 84, 0
2, 304608, Note_on_c, 0, 82, 89
2, 304700, Note_on_c, 0, 82, 0
2, 304704, Note_on_c, 0, 81, 89
2, 304796, Note_on_c, 0, 81, 0
2, 304800, Note_on_c, 0, 80, 89
2, 304892, Note_on_c, 0, 80, 0
2, 304896, Note_on_c, 0, 82, 89
2, 304988, Note_on_c, 0, 82, 0
2, 304992, Note_on_c, 0, 81, 89
2, 305084, Note_on_c, 0, 81, 0
2, 305088, Note_on_c, 0, 80, 89
2, 305180, Note_on_c, 0, 80, 0
2, 305184, Note_on_c, 0, 81, 89
2, 305276, Note_on_c, 0, 81, 0
2, 305280, Note_on_c, 0, 79, 89
2, 305372, Note_on_c, 0, 79, 0
2, 305376, Note_on_c, 0, 77, 89
2, 305468, Note_on_c, 0, 77, 0
2, 305472, Note_on_c, 0, 76, 89
2, 305564, Note_on_c, 0, 76, 0
2, 305568, Note_on_c, 0, 77, 89
2, 305660, Note_on_c, 0, 77, 0
2, 305664, Note_on_c, 0, 76, 89
2, 305756, Note_on_c, 0, 76, 0
2, 305760, Note_on_c, 0, 74, 89
2, 305852, Note_on_c, 0, 74, 0
2, 305856, Note_on_c, 0, 73, 89
2, 305948, Note_on_c, 0, 73, 0
2, 305952, Note_on_c, 0, 74, 89
2, 306044, Note_on_c, 0, 74, 0
2, 306048, Note_on_c, 0, 79, 89
2, 306140, Note_on_c, 0, 79, 0
2, 306144, Note_on_c, 0, 77, 89
2, 306236, Note_on_c, 0, 77, 0
2, 306240, Note_on_c, 0, 76, 89
2, 306332, Note_on_c, 0, 76, 0
2, 306336, Note_on_c, 0, 77, 89
2, 306428, Note_on_c, 0, 77, 0
2, 306432, Note_on_c, 0, 76, 89
2, 306524, Note_on_c, 0, 76, 0
2, 306528, Note_on_c, 0, 77, 89
2, 306620, Note_on_c, 0, 77, 0
2, 306624, Note_on_c, 0, 78, 89
2, 306716, Note_on_c, 0, 78, 0
2, 306720, Note_on_c, 0, 79, 89
2, 306812, Note_on_c, 0, 79, 0
2, 306816, Note_on_c, 0, 77, 89
2, 306908, Note_on_c, 0, 77, 0
2, 306912, Note_on_c, 0, 76, 89
2, 307004, Note_on_c, 0, 76, 0
2, 307008, Note_on_c, 0, 74, 89
2, 307100, Note_on_c, 0, 74, 0
2, 307104, Note_on_c, 0, 72, 89
2, 307196, Note_on_c, 0, 72, 0
2, 307200, Note_on_c, 0, 71, 89
2, 307200, Note_on_c, 0, 65, 89
2, 307292, Note_on_c, 0, 71, 0
2, 307296, Note_on_c, 0, 79, 89
2, 307388, Note_on_c, 0, 79, 0
2, 307388, Note_on_c, 0, 65, 0
2, 307392, Note_on_c, 0, 74, 89
2, 307392, Note_on_c, 0, 67, 89
2, 307484, Note_on_c, 0, 74, 0
2, 307488, Note_on_c, 0, 71, 89
2, 307580, Note_on_c, 0, 71, 0
2, 307580, Note_on_c, 0, 67, 0
2, 307584, Note_on_c, 0, 72, 89
2, 307584, Note_on_c, 0, 64, 89
2, 307676, Note_on_c, 0, 72, 0
2, 307680, Note_on_c, 0, 79, 89
2, 307772, Note_on_c, 0, 79, 0
2, 307772, Note_on_c, 0, 64, 0
2, 307776, Note_on_c, 0, 76, 89
2, 307776, Note_on_c, 0, 67, 89
2, 307868, Note_on_c, 0, 76, 0
2, 307872, Note_on_c, 0, 72, 89
2, 307964, Note_on_c, 0, 72, 0
2, 307964, Note_on_c, 0, 67, 0
2, 307968, Note_on_c, 0, 71, 89
2, 307968, Note_on_c, 0, 65, 89
2, 308060, Note_on_c, 0, 71, 0
2, 308064, Note_on_c, 0, 79, 89
2, 308156, Note_on_c, 0, 79, 0
2, 308156, Note_on_c, 0, 65, 0
2, 308160, Note_on_c, 0, 74, 89
2, 308160, Note_on_c, 0, 67, 89
2, 308252, Note_on_c, 0, 74, 0
2, 308256, Note_on_c, 0, 71, 89
2, 308348, Note_on_c, 0, 71, 0
2, 308348, Note_on_c, 0, 67, 0
2, 308352, Note_on_c, 0, 72, 89
2, 308352, Note_on_c, 0, 64, 89
2, 308444, Note_on_c, 0, 72, 0
2, 308448, Note_on_c, 0, 79, 89
2, 308540, Note_on_c, 0, 79, 0
2, 308540, Note_on_c, 0, 64, 0
2, 308544, Note_on_c, 0, 76, 89
2, 308544, Note_on_c, 0, 67, 89
2, 308636, Note_on_c, 0, 76, 0
2, 308640, Note_on_c, 0, 72, 89
2, 308732, Note_on_c, 0, 72, 0
2, 308732, Note_on_c, 0, 67, 0
2, 308736, Note_on_c, 0, 74, 89
2, 308736, Note_on_c, 0, 62, 89
2, 308828, Note_on_c, 0, 74, 0
2, 308832, Note_on_c, 0, 79, 89
2, 308924, Note_on_c, 0, 79, 0
2, 308924, Note_on_c, 0, 62, 0
2, 308928, Note_on_c, 0, 77, 89
2, 308928, Note_on_c, 0, 67, 89
2, 309020, Note_on_c, 0, 77, 0
2, 309024, Note_on_c, 0, 74, 89
2, 309116, Note_on_c, 0, 74, 0
2, 309116, Note_on_c, 0, 67, 0
2, 309120, Note_on_c, 0, 76, 89
2, 309120, Note_on_c, 0, 60, 89
2, 309212, Note_on_c, 0, 76, 0
2, 309216, Note_on_c, 0, 84, 89
2, 309308, Note_on_c, 0, 84, 0
2, 309308, Note_on_c, 0, 60, 0
2, 309312, Note_on_c, 0, 79, 89
2, 309312, Note_on_c, 0, 67, 89
2, 309404, Note_on_c, 0, 79, 0
2, 309408, Note_on_c, 0, 76, 89
2, 309500, Note_on_c, 0, 76, 0
2, 309500, Note_on_c, 0, 67, 0
2, 309504, Note_on_c, 0, 77, 89
2, 309596, Note_on_c, 0, 77, 0
2, 309600, Note_on_c, 0, 83, 89
2, 309692, Note_on_c, 0, 83, 0
2, 309696, Note_on_c, 0, 86, 89
2, 309788, Note_on_c, 0, 86, 0
2, 309792, Note_on_c, 0, 84, 89
2, 309884, Note_on_c, 0, 84, 0
2, 309888, Note_on_c, 0, 83, 89
2, 309980, Note_on_c, 0, 83, 0
2, 309984, Note_on_c, 0, 81, 89
2, 310076, Note_on_c, 0, 81, 0
2, 310080, Note_on_c, 0, 79, 89
2, 310172, Note_on_c, 0, 79, 0
2, 310176, Note_on_c, 0, 77, 89
2, 310268, Note_on_c, 0, 77, 0
2, 310272, Note_on_c, 0, 76, 89
2, 310364, Note_on_c, 0, 76, 0
2, 310368, Note_on_c, 0, 79, 89
2, 310460, Note_on_c, 0, 79, 0
2, 310464, Note_on_c, 0, 84, 89
2, 310556, Note_on_c, 0, 84, 0
2, 310560, Note_on_c, 0, 83, 89
2, 310652, Note_on_c, 0, 83, 0
2, 310656, Note_on_c, 0, 81, 89
2, 310748, Note_on_c, 0, 81, 0
2, 310752, Note_on_c, 0, 79, 89
2, 310844, Note_on_c, 0, 79, 0
2, 310848, Note_on_c, 0, 77, 89
2, 310940, Note_on_c, 0, 77, 0
2, 310944, Note_on_c, 0, 76, 89
2, 311036, Note_on_c, 0, 76, 0
2, 311040, Note_on_c, 0, 74, 89
2, 311132, Note_on_c, 0, 74, 0
2, 311136, Note_on_c, 0, 80, 89
2, 311228, Note_on_c, 0, 80, 0
2, 311232, Note_on_c, 0, 83, 89
2, 311324, Note_on_c, 0, 83, 0
2, 311328, Note_on_c, 0, 81, 89
2, 311420, Note_on_c, 0, 81, 0
2, 311424, Note_on_c, 0, 79, 89
2, 311516, Note_on_c, 0, 79, 0
2, 311520, Note_on_c, 0, 77, 89
2, 311612, Note_on_c, 0, 77, 0
2, 311616, Note_on_c, 0, 76, 89
2, 311708, Note_on_c, 0, 76, 0
2, 311712, Note_on_c, 0, 74, 89
2, 311804, Note_on_c, 0, 74, 0
2, 311808, Note_on_c, 0, 72, 89
2, 311900, Note_on_c, 0, 72, 0
2, 311904, Note_on_c, 0, 76, 89
2, 311996, Note_on_c, 0, 76, 0
2, 312000, Note_on_c, 0, 81, 89
2, 312092, Note_on_c, 0, 81, 0
2, 312096, Note_on_c, 0, 79, 89
2, 312188, Note_on_c, 0, 79, 0
2, 312192, Note_on_c, 0, 77, 89
2, 312284, Note_on_c, 0, 77, 0
2, 312288, Note_on_c, 0, 76, 89
2, 312380, Note_on_c, 0, 76, 0
2, 312384, Note_on_c, 0, 74, 89
2, 312476, Note_on_c, 0, 74, 0
2, 312480, Note_on_c, 0, 72, 89
2, 312572, Note_on_c, 0, 72, 0
2, 312576, Note_on_c, 0, 70, 89
2, 312668, Note_on_c, 0, 70, 0
2, 312672, Note_on_c, 0, 76, 89
2, 312764, Note_on_c, 0, 76, 0
2, 312768, Note_on_c, 0, 79, 89
2, 312860, Note_on_c, 0, 79, 0
2, 312864, Note_on_c, 0, 77, 89
2, 312956, Note_on_c, 0, 77, 0
2, 312960, Note_on_c, 0, 76, 89
2, 313052, Note_on_c, 0, 76, 0
2, 313056, Note_on_c, 0, 74, 89
2, 313148, Note_on_c, 0, 74, 0
2, 313152, Note_on_c, 0, 72, 89
2, 313244, Note_on_c, 0, 72, 0
2, 313248, Note_on_c, 0, 70, 89
2, 313340, Note_on_c, 0, 70, 0
2, 313344, Note_on_c, 0, 69, 89
2, 313436, Note_on_c, 0, 69, 0
2, 313440, Note_on_c, 0, 72, 89
2, 313532, Note_on_c, 0, 72, 0
2, 313536, Note_on_c, 0, 77, 89
2, 313628, Note_on_c, 0, 77, 0
2, 313632, Note_on_c, 0, 72, 89
2, 313724, Note_on_c, 0, 72, 0
2, 313728, Note_on_c, 0, 81, 89
2, 313820, Note_on_c, 0, 81, 0
2, 313824, Note_on_c, 0, 77, 89
2, 313916, Note_on_c, 0, 77, 0
2, 313920, Note_on_c, 0, 84, 89
2, 314012, Note_on_c, 0, 84, 0
2, 314016, Note_on_c, 0, 81, 89
2, 314108, Note_on_c, 0, 81, 0
2, 314112, Note_on_c, 0, 89, 89
2, 314112, Note_on_c, 0, 62, 89
2, 314204, Note_on_c, 0, 89, 0
2, 314208, Note_on_c, 0, 77, 89
2, 314300, Note_on_c, 0, 77, 0
2, 314304, Note_on_c, 0, 89, 89
2, 314396, Note_on_c, 0, 89, 0
2, 314400, Note_on_c, 0, 88, 89
2, 314492, Note_on_c, 0, 88, 0
2, 314492, Note_on_c, 0, 62, 0
2, 314496, Note_on_c, 0, 86, 89
2, 314588, Note_on_c, 0, 86, 0
2, 314592, Note_on_c, 0, 84, 89
2, 314684, Note_on_c, 0, 84, 0
2, 314688, Note_on_c, 0, 83, 89
2, 314780, Note_on_c, 0, 83, 0
2, 314784, Note_on_c, 0, 81, 89
2, 314876, Note_on_c, 0, 81, 0
2, 314880, Note_on_c, 0, 79, 89
2, 314880, Note_on_c, 0, 65, 89
2, 314972, Note_on_c, 0, 79, 0
2, 314976, Note_on_c, 0, 83, 89
2, 315068, Note_on_c, 0, 83, 0
2, 315072, Note_on_c, 0, 81, 89
2, 315164, Note_on_c, 0, 81, 0
2, 315168, Note_on_c, 0, 79, 89
2, 315260, Note_on_c, 0, 79, 0
2, 315260, Note_on_c, 0, 65, 0
2, 315264, Note_on_c, 0, 81, 89
2, 315356, Note_on_c, 0, 81, 0
2, 315360, Note_on_c, 0, 83, 89
2, 315452, Note_on_c, 0, 83, 0
2, 315456, Note_on_c, 0, 84, 89
2, 315548, Note_on_c, 0, 84, 0
2, 315552, Note_on_c, 0, 86, 89
2, 315644, Note_on_c, 0, 86, 0
2, 315648, Note_on_c, 0, 88, 89
2, 315648, Note_on_c, 0, 61, 89
2, 315740, Note_on_c, 0, 88, 0
2, 315744, Note_on_c, 0, 76, 89
2, 315836, Note_on_c, 0, 76, 0
2, 315840, Note_on_c, 0, 88, 89
2, 315932, Note_on_c, 0, 88, 0
2, 315936, Note_on_c, 0, 86, 89
2, 316028, Note_on_c, 0, 86, 0
2, 316028, Note_on_c, 0, 61, 0
2, 316032, Note_on_c, 0, 85, 89
2, 316124, Note_on_c, 0, 85, 0
2, 316128, Note_on_c, 0, 82, 89
2, 316220, Note_on_c, 0, 82, 0
2, 316224, Note_on_c, 0, 81, 89
2, 316316, Note_on_c, 0, 81, 0
2, 316320, Note_on_c, 0, 79, 89
2, 316412, Note_on_c, 0, 79, 0
2, 316416, Note_on_c, 0, 78, 89
2, 316416, Note_on_c, 0, 62, 89
2, 316508, Note_on_c, 0, 78, 0
2, 316512, Note_on_c, 0, 81, 89
2, 316604, Note_on_c, 0, 81, 0
2, 316608, Note_on_c, 0, 79, 89
2, 316700, Note_on_c, 0, 79, 0
2, 316704, Note_on_c, 0, 78, 89
2, 316796, Note_on_c, 0, 78, 0
2, 316796, Note_on_c, 0, 62, 0
2, 316800, Note_on_c, 0, 79, 89
2, 316892, Note_on_c, 0, 79, 0
2, 316896, Note_on_c, 0, 81, 89
2, 316988, Note_on_c, 0, 81, 0
2, 316992, Note_on_c, 0, 83, 89
2, 317084, Note_on_c, 0, 83, 0
2, 317088, Note_on_c, 0, 85, 89
2, 317180, Note_on_c, 0, 85, 0
2, 317184, Note_on_c, 0, 86, 91
2, 317184, Note_on_c, 0, 59, 91
2, 317276, Note_on_c, 0, 86, 0
2, 317280, Note_on_c, 0, 74, 91
2, 317372, Note_on_c, 0, 74, 0
2, 317376, Note_on_c, 0, 86, 92
2, 317468, Note_on_c, 0, 86, 0
2, 317472, Note_on_c, 0, 84, 92
2, 317564, Note_on_c, 0, 84, 0
2, 317564, Note_on_c, 0, 59, 0
2, 317568, Note_on_c, 0, 83, 93
2, 317660, Note_on_c, 0, 83, 0
2, 317664, Note_on_c, 0, 81, 93
2, 317756, Note_on_c, 0, 81, 0
2, 317760, Note_on_c, 0, 79, 96
2, 317852, Note_on_c, 0, 79, 0
2, 317856, Note_on_c, 0, 77, 96
2, 317948, Note_on_c, 0, 77, 0
2, 317952, Note_on_c, 0, 76, 97
2, 317952, Note_on_c, 0, 56, 97
2, 318044, Note_on_c, 0, 76, 0
2, 318048, Note_on_c, 0, 80, 97
2, 318140, Note_on_c, 0, 80, 0
2, 318144, Note_on_c, 0, 77, 99
2, 318236, Note_on_c, 0, 77, 0
2, 318240, Note_on_c, 0, 76, 99
2, 318332, Note_on_c, 0, 76, 0
2, 318332, Note_on_c, 0, 56, 0
2, 318336, Note_on_c, 0, 78, 100
2, 318428, Note_on_c, 0, 78, 0
2, 318432, Note_on_c, 0, 80, 103
2, 318524, Note_on_c, 0, 80, 0
2, 318528, Note_on_c, 0, 81, 103
2, 318620, Note_on_c, 0, 81, 0
2, 318624, Note_on_c, 0, 83, 104
2, 318716, Note_on_c, 0, 83, 0
2, 318720, Note_on_c, 0, 84, 104
2, 318720, Note_on_c, 0, 57, 104
2, 318812, Note_on_c, 0, 84, 0
2, 318816, Note_on_c, 0, 72, 105
2, 318908, Note_on_c, 0, 72, 0
2, 318912, Note_on_c, 0, 84, 105
2, 319004, Note_on_c, 0, 84, 0
2, 319008, Note_on_c, 0, 83, 107
2, 319100, Note_on_c, 0, 83, 0
2, 319100, Note_on_c, 0, 57, 0
2, 319104, Note_on_c, 0, 81, 107
2, 319196, Note_on_c, 0, 81, 0
2, 319200, Note_on_c, 0, 79, 109
2, 319292, Note_on_c, 0, 79, 0
2, 319296, Note_on_c, 0, 77, 109
2, 319388, Note_on_c, 0, 77, 0
2, 319392, Note_on_c, 0, 76, 111
2, 319484, Note_on_c, 0, 76, 0
2, 319488, Note_on_c, 0, 74, 112
2, 319580, Note_on_c, 0, 74, 0
2, 319584, Note_on_c, 0, 69, 112
2, 319664, Note_on_c, 0, 71, 112
2, 319676, Note_on_c, 0, 69, 0
2, 319756, Note_on_c, 0, 71, 0
2, 319776, Note_on_c, 0, 73, 112
2, 319868, Note_on_c, 0, 73, 0
2, 319872, Note_on_c, 0, 74, 112
2, 319964, Note_on_c, 0, 74, 0
2, 319968, Note_on_c, 0, 76, 112
2, 320060, Note_on_c, 0, 76, 0
2, 320064, Note_on_c, 0, 77, 112
2, 320156, Note_on_c, 0, 77, 0
2, 320160, Note_on_c, 0, 79, 112
2, 320252, Note_on_c, 0, 79, 0
2, 320256, Note_on_c, 0, 81, 112
2, 320348, Note_on_c, 0, 81, 0
2, 320352, Note_on_c, 0, 82, 112
2, 320444, Note_on_c, 0, 82, 0
2, 320448, Note_on_c, 0, 81, 112
2, 320540, Note_on_c, 0, 81, 0
2, 320544, Note_on_c, 0, 79, 112
2, 320636, Note_on_c, 0, 79, 0
2, 320640, Note_on_c, 0, 77, 112
2, 320732, Note_on_c, 0, 77, 0
2, 320736, Note_on_c, 0, 76, 112
2, 320828, Note_on_c, 0, 76, 0
2, 320832, Note_on_c, 0, 74, 112
2, 320924, Note_on_c, 0, 74, 0
2, 320928, Note_on_c, 0, 72, 112
2, 321020, Note_on_c, 0, 72, 0
2, 321024, Note_on_c, 0, 83, 112
2, 321024, Note_on_c, 0, 71, 112
2, 321212, Note_on_c, 0, 71, 0
2, 321212, Note_on_c, 0, 83, 0
2, 321216, Note_on_c, 0, 81, 112
2, 321216, Note_on_c, 0, 69, 112
2, 321404, Note_on_c, 0, 69, 0
2, 321404, Note_on_c, 0, 81, 0
2, 321408, Note_on_c, 0, 83, 112
2, 321408, Note_on_c, 0, 71, 112
2, 321596, Note_on_c, 0, 71, 0
2, 321596, Note_on_c, 0, 83, 0
2, 321600, Note_on_c, 0, 84, 112
2, 321600, Note_on_c, 0, 72, 112
2, 321788, Note_on_c, 0, 72, 0
2, 321788, Note_on_c, 0, 84, 0
2, 321792, Note_on_c, 0, 86, 112
2, 321792, Note_on_c, 0, 74, 112
2, 321980, Note_on_c, 0, 74, 0
2, 321980, Note_on_c, 0, 86, 0
2, 321984, Note_on_c, 0, 76, 112
2, 321984, Note_on_c, 0, 88, 112
2, 322172, Note_on_c, 0, 88, 0
2, 322172, Note_on_c, 0, 76, 0
2, 322176, Note_on_c, 0, 89, 112
2, 322176, Note_on_c, 0, 77, 112
2, 322364, Note_on_c, 0, 77, 0
2, 322364, Note_on_c, 0, 89, 0
2, 322464, Note_on_c, 0, 83, 89
2, 322556, Note_on_c, 0, 83, 0
2, 322560, Note_on_c, 0, 86, 89
2, 322624, Note_on_c, 0, 86, 0
2, 322624, Note_on_c, 0, 84, 89
2, 322752, Note_on_c, 0, 84, 0
2, 322752, Note_on_c, 0, 83, 89
2, 322844, Note_on_c, 0, 83, 0
2, 322848, Note_on_c, 0, 84, 89
2, 322940, Note_on_c, 0, 84, 0
2, 322944, Note_on_c, 0, 83, 89
2, 323008, Note_on_c, 0, 83, 0
2, 323008, Note_on_c, 0, 81, 89
2, 323136, Note_on_c, 0, 81, 0
2, 323136, Note_on_c, 0, 79, 89
2, 323228, Note_on_c, 0, 79, 0
2, 323232, Note_on_c, 0, 77, 89
2, 323324, Note_on_c, 0, 77, 0
2, 323328, Note_on_c, 0, 76, 89
2, 323420, Note_on_c, 0, 76, 0
2, 323424, Note_on_c, 0, 77, 89
2, 323516, Note_on_c, 0, 77, 0
2, 323520, Note_on_c, 0, 77, 89
2, 323612, Note_on_c, 0, 77, 0
2, 323616, Note_on_c, 0, 79, 89
2, 323708, Note_on_c, 0, 79, 0
2, 323712, Note_on_c, 0, 79, 89
2, 323776, Note_on_c, 0, 79, 0
2, 323776, Note_on_c, 0, 77, 89
2, 323904, Note_on_c, 0, 77, 0
2, 323904, Note_on_c, 0, 76, 89
2, 323996, Note_on_c, 0, 76, 0
2, 324000, Note_on_c, 0, 74, 89
2, 324092, Note_on_c, 0, 74, 0
2, 324096, Note_on_c, 0, 62, 112
2, 324284, Note_on_c, 0, 62, 0
2, 324288, Note_on_c, 0, 64, 112
2, 324380, Note_on_c, 0, 64, 0
2, 324384, Note_on_c, 0, 66, 112
2, 324476, Note_on_c, 0, 66, 0
2, 324480, Note_on_c, 0, 67, 112
2, 324572, Note_on_c, 0, 67, 0
2, 324576, Note_on_c, 0, 69, 112
2, 324668, Note_on_c, 0, 69, 0
2, 324672, Note_on_c, 0, 71, 112
2, 324764, Note_on_c, 0, 71, 0
2, 324768, Note_on_c, 0, 73, 112
2, 324860, Note_on_c, 0, 73, 0
2, 324864, Note_on_c, 0, 74, 112
2, 324956, Note_on_c, 0, 74, 0
2, 324960, Note_on_c, 0, 76, 112
2, 325052, Note_on_c, 0, 76, 0
2, 325056, Note_on_c, 0, 78, 112
2, 325148, Note_on_c, 0, 78, 0
2, 325152, Note_on_c, 0, 79, 112
2, 325244, Note_on_c, 0, 79, 0
2, 325248, Note_on_c, 0, 81, 112
2, 325340, Note_on_c, 0, 81, 0
2, 325344, Note_on_c, 0, 83, 112
2, 325436, Note_on_c, 0, 83, 0
2, 325440, Note_on_c, 0, 85, 112
2, 325532, Note_on_c, 0, 85, 0
2, 325536, Note_on_c, 0, 86, 112
2, 325628, Note_on_c, 0, 86, 0
2, 325632, Note_on_c, 0, 79, 112
2, 325632, Note_on_c, 0, 67, 112
2, 325820, Note_on_c, 0, 67, 0
2, 325820, Note_on_c, 0, 79, 0
2, 325824, Note_on_c, 0, 81, 112
2, 325824, Note_on_c, 0, 69, 112
2, 326012, Note_on_c, 0, 69, 0
2, 326012, Note_on_c, 0, 81, 0
2, 326016, Note_on_c, 0, 83, 112
2, 326016, Note_on_c, 0, 71, 112
2, 326204, Note_on_c, 0, 71, 0
2, 326204, Note_on_c, 0, 83, 0
2, 326208, Note_on_c, 0, 84, 112
2, 326208, Note_on_c, 0, 72, 112
2, 326396, Note_on_c, 0, 72, 0
2, 326396, Note_on_c, 0, 84, 0
2, 326400, Note_on_c, 0, 86, 112
2, 326400, Note_on_c, 0, 74, 112
2, 326588, Note_on_c, 0, 74, 0
2, 326588, Note_on_c, 0, 86, 0
2, 326592, Note_on_c, 0, 88, 112
2, 326592, Note_on_c, 0, 76, 112
2, 326780, Note_on_c, 0, 76, 0
2, 326780, Note_on_c, 0, 88, 0
2, 326784, Note_on_c, 0, 89, 112
2, 326784, Note_on_c, 0, 77, 112
2, 326972, Note_on_c, 0, 77, 0
2, 326972, Note_on_c, 0, 89, 0
2, 327072, Note_on_c, 0, 83, 89
2, 327164, Note_on_c, 0, 83, 0
2, 327168, Note_on_c, 0, 84, 89
2, 327260, Note_on_c, 0, 84, 0
2, 327264, Note_on_c, 0, 88, 89
2, 327356, Note_on_c, 0, 88, 0
2, 327360, Note_on_c, 0, 84, 89
2, 327452, Note_on_c, 0, 84, 0
2, 327456, Note_on_c, 0, 79, 89
2, 327548, Note_on_c, 0, 79, 0
2, 327552, Note_on_c, 0, 81, 89
2, 327644, Note_on_c, 0, 81, 0
2, 327648, Note_on_c, 0, 84, 89
2, 327740, Note_on_c, 0, 84, 0
2, 327744, Note_on_c, 0, 81, 89
2, 327836, Note_on_c, 0, 81, 0
2, 327840, Note_on_c, 0, 77, 89
2, 327932, Note_on_c, 0, 77, 0
2, 327936, Note_on_c, 0, 76, 89
2, 328028, Note_on_c, 0, 76, 0
2, 328032, Note_on_c, 0, 79, 89
2, 328124, Note_on_c, 0, 79, 0
2, 328128, Note_on_c, 0, 76, 89
2, 328220, Note_on_c, 0, 76, 0
2, 328224, Note_on_c, 0, 72, 89
2, 328316, Note_on_c, 0, 72, 0
2, 328320, Note_on_c, 0, 76, 89
2, 328412, Note_on_c, 0, 76, 0
2, 328416, Note_on_c, 0, 79, 89
2, 328508, Note_on_c, 0, 79, 0
2, 328512, Note_on_c, 0, 76, 89
2, 328604, Note_on_c, 0, 76, 0
2, 328608, Note_on_c, 0, 72, 89
2, 328700, Note_on_c, 0, 72, 0
2, 328704, Note_on_c, 0, 72, 89
2, 329084, Note_on_c, 0, 72, 0
2, 329472, Note_on_c, 0, 69, 89
2, 329852, Note_on_c, 0, 69, 0
2, 329856, Note_on_c, 0, 62, 89
2, 330044, Note_on_c, 0, 62, 0
2, 330240, Note_on_c, 0, 67, 89
2, 330620, Note_on_c, 0, 67, 0
2, 330624, Note_on_c, 0, 72, 89
2, 330812, Note_on_c, 0, 72, 0
2, 331008, Note_on_c, 0, 81, 89
2, 331008, Note_on_c, 0, 72, 89
2, 331008, Note_on_c, 0, 66, 89
2, 331388, Note_on_c, 0, 66, 0
2, 331388, Note_on_c, 0, 72, 0
2, 331388, Note_on_c, 0, 81, 0
2, 331392, Note_on_c, 0, 74, 89
2, 331392, Note_on_c, 0, 71, 89
2, 331392, Note_on_c, 0, 65, 89
2, 331580, Note_on_c, 0, 65, 0
2, 331580, Note_on_c, 0, 71, 0
2, 331580, Note_on_c, 0, 74, 0
2, 331776, Note_on_c, 0, 79, 89
2, 331776, Note_on_c, 0, 72, 89
2, 331776, Note_on_c, 0, 65, 89
2, 331964, Note_on_c, 0, 79, 0
2, 331968, Note_on_c, 0, 84, 89
2, 332060, Note_on_c, 0, 84, 0
2, 332156, Note_on_c, 0, 72, 0
2, 332160, Note_on_c, 0, 79, 89
2, 332160, Note_on_c, 0, 67, 89
2, 332348, Note_on_c, 0, 79, 0
2, 332352, Note_on_c, 0, 85, 89
2, 332444, Note_on_c, 0, 85, 0
2, 332540, Note_on_c, 0, 67, 0
2, 332540, Note_on_c, 0, 65, 0
2, 332544, Note_on_c, 0, 79, 89
2, 332544, Note_on_c, 0, 67, 89
2, 332544, Note_on_c, 0, 59, 89
2, 332732, Note_on_c, 0, 79, 0
2, 332736, Note_on_c, 0, 86, 89
2, 332828, Note_on_c, 0, 86, 0
2, 332928, Note_on_c, 0, 79, 89
2, 333116, Note_on_c, 0, 79, 0
2, 333120, Note_on_c, 0, 87, 89
2, 333212, Note_on_c, 0, 87, 0
2, 333308, Note_on_c, 0, 59, 0
2, 333308, Note_on_c, 0, 67, 0
2, 333312, Note_on_c, 0, 88, 89
2, 333312, Note_on_c, 0, 67, 89
2, 333312, Note_on_c, 0, 60, 89
2, 333500, Note_on_c, 0, 60, 0
2, 333500, Note_on_c, 0, 67, 0
2, 333500, Note_on_c, 0, 88, 0
2, 333504, Note_on_c, 0, 84, 89
2, 333596, Note_on_c, 0, 84, 0
2, 333696, Note_on_c, 0, 81, 89
2, 333696, Note_on_c, 0, 69, 89
2, 333696, Note_on_c, 0, 65, 89
2, 333884, Note_on_c, 0, 65, 0
2, 333884, Note_on_c, 0, 69, 0
2, 333884, Note_on_c, 0, 81, 0
2, 333888, Note_on_c, 0, 77, 89
2, 333980, Note_on_c, 0, 77, 0
2, 334080, Note_on_c, 0, 76, 89
2, 334080, Note_on_c, 0, 72, 89
2, 334080, Note_on_c, 0, 67, 89
2, 334268, Note_on_c, 0, 76, 0
2, 334272, Note_on_c, 0, 79, 89
2, 334460, Note_on_c, 0, 79, 0
2, 334460, Note_on_c, 0, 72, 0
2, 334464, Note_on_c, 0, 74, 89
2, 334464, Note_on_c, 0, 71, 89
2, 334652, Note_on_c, 0, 74, 0
2, 334656, Note_on_c, 0, 79, 89
2, 334844, Note_on_c, 0, 79, 0
2, 334844, Note_on_c, 0, 71, 0
2, 334844, Note_on_c, 0, 67, 0
2, 334848, Note_on_c, 0, 77, 89
2, 334848, Note_on_c, 0, 74, 89
2, 334848, Note_on_c, 0, 71, 89
2, 334848, Note_on_c, 0, 60, 89
2, 335228, Note_on_c, 0, 71, 0
2, 335228, Note_on_c, 0, 77, 0
2, 335228, Note_on_c, 0, 74, 0
2, 335232, Note_on_c, 0, 76, 89
2, 335232, Note_on_c, 0, 72, 89
2, 335420, Note_on_c, 0, 72, 0
2, 335420, Note_on_c, 0, 76, 0
2, 335612, Note_on_c, 0, 60, 0
2, 335712, Note_on_c, 0, 74, 89
2, 335804, Note_on_c, 0, 74, 0
2, 335808, Note_on_c, 0, 76, 89
2, 335900, Note_on_c, 0, 76, 0
2, 335904, Note_on_c, 0, 77, 89
2, 335996, Note_on_c, 0, 77, 0
2, 336000, Note_on_c, 0, 78, 89
2, 336092, Note_on_c, 0, 78, 0
2, 336096, Note_on_c, 0, 79, 89
2, 336188, Note_on_c, 0, 79, 0
2, 336192, Note_on_c, 0, 81, 89
2, 336284, Note_on_c, 0, 81, 0
2, 336288, Note_on_c, 0, 83, 89
2, 336380, Note_on_c, 0, 83, 0
2, 336480, Note_on_c, 0, 84, 89
2, 336572, Note_on_c, 0, 84, 0
2, 336576, Note_on_c, 0, 88, 89
2, 336668, Note_on_c, 0, 88, 0
2, 336672, Note_on_c, 0, 86, 89
2, 336764, Note_on_c, 0, 86, 0
2, 336768, Note_on_c, 0, 84, 89
2, 336860, Note_on_c, 0, 84, 0
2, 336864, Note_on_c, 0, 83, 89
2, 336956, Note_on_c, 0, 83, 0
2, 336960, Note_on_c, 0, 81, 89
2, 337052, Note_on_c, 0, 81, 0
2, 337056, Note_on_c, 0, 79, 89
2, 337148, Note_on_c, 0, 79, 0
2, 337248, Note_on_c, 0, 74, 89
2, 337340, Note_on_c, 0, 74, 0
2, 337344, Note_on_c, 0, 76, 89
2, 337436, Note_on_c, 0, 76, 0
2, 337440, Note_on_c, 0, 77, 89
2, 337532, Note_on_c, 0, 77, 0
2, 337536, Note_on_c, 0, 78, 89
2, 337628, Note_on_c, 0, 78, 0
2, 337632, Note_on_c, 0, 79, 89
2, 337724, Note_on_c, 0, 79, 0
2, 337728, Note_on_c, 0, 81, 89
2, 337820, Note_on_c, 0, 81, 0
2, 337824, Note_on_c, 0, 83, 89
2, 337916, Note_on_c, 0, 83, 0
2, 338016, Note_on_c, 0, 84, 89
2, 338108, Note_on_c, 0, 84, 0
2, 338112, Note_on_c, 0, 88, 89
2, 338204, Note_on_c, 0, 88, 0
2, 338208, Note_on_c, 0, 86, 89
2, 338300, Note_on_c, 0, 86, 0
2, 338304, Note_on_c, 0, 84, 89
2, 338396, Note_on_c, 0, 84, 0
2, 338400, Note_on_c, 0, 83, 89
2, 338492, Note_on_c, 0, 83, 0
2, 338496, Note_on_c, 0, 81, 89
2, 338588, Note_on_c, 0, 81, 0
2, 338592, Note_on_c, 0, 79, 89
2, 338684, Note_on_c, 0, 79, 0
2, 338688, Note_on_c, 0, 77, 89
2, 338780, Note_on_c, 0, 77, 0
2, 338784, Note_on_c, 0, 76, 89
2, 338876, Note_on_c, 0, 76, 0
2, 338880, Note_on_c, 0, 74, 89
2, 338972, Note_on_c, 0, 74, 0
2, 338976, Note_on_c, 0, 72, 89
2, 339068, Note_on_c, 0, 72, 0
2, 339072, Note_on_c, 0, 71, 89
2, 339164, Note_on_c, 0, 71, 0
2, 339168, Note_on_c, 0, 69, 89
2, 339260, Note_on_c, 0, 69, 0
2, 339264, Note_on_c, 0, 67, 89
2, 339356, Note_on_c, 0, 67, 0
2, 339360, Note_on_c, 0, 65, 89
2, 339452, Note_on_c, 0, 65, 0
2, 339456, Note_on_c, 0, 64, 89
2, 339836, Note_on_c, 0, 64, 0
2, 344064, Note_on_c, 0, 76, 89
2, 344064, Note_on_c, 0, 72, 89
2, 344064, Note_on_c, 0, 67, 89
2, 344596, Note_on_c, 0, 67, 0
2, 344636, Note_on_c, 0, 72, 0
2, 344636, Note_on_c, 0, 76, 0
2, 344640, Note_on_c, 0, 72, 103
2, 344640, Note_on_c, 0, 64, 103
2, 344828, Note_on_c, 0, 64, 0
2, 344828, Note_on_c, 0, 72, 0
2, 344832, Note_on_c, 0, 76, 104
2, 344832, Note_on_c, 0, 67, 104
2, 344924, Note_on_c, 0, 67, 0
2, 344924, Note_on_c, 0, 76, 0
2, 345024, Note_on_c, 0, 76, 104
2, 345024, Note_on_c, 0, 67, 104
2, 345116, Note_on_c, 0, 67, 0
2, 345116, Note_on_c, 0, 76, 0
2, 345408, Note_on_c, 0, 72, 104
2, 345408, Note_on_c, 0, 64, 104
2, 345596, Note_on_c, 0, 64, 0
2, 345596, Note_on_c, 0, 72, 0
2, 345600, Note_on_c, 0, 65, 105
2, 345600, Note_on_c, 0, 69, 105
2, 345692, Note_on_c, 0, 69, 0
2, 345692, Note_on_c, 0, 65, 0
2, 345792, Note_on_c, 0, 65, 105
2, 345792, Note_on_c, 0, 69, 105
2, 345884, Note_on_c, 0, 69, 0
2, 345884, Note_on_c, 0, 65, 0
2, 346176, Note_on_c, 0, 65, 105
2, 346176, Note_on_c, 0, 74, 105
2, 346364, Note_on_c, 0, 74, 0
2, 346364, Note_on_c, 0, 65, 0
2, 346368, Note_on_c, 0, 77, 107
2, 346368, Note_on_c, 0, 69, 107
2, 346460, Note_on_c, 0, 69, 0
2, 346460, Note_on_c, 0, 77, 0
2, 346560, Note_on_c, 0, 77, 107
2, 346560, Note_on_c, 0, 69, 107
2, 346652, Note_on_c, 0, 69, 0
2, 346652, Note_on_c, 0, 77, 0
2, 346944, Note_on_c, 0, 74, 107
2, 346944, Note_on_c, 0, 66, 107
2, 347132, Note_on_c, 0, 66, 0
2, 347132, Note_on_c, 0, 74, 0
2, 347136, Note_on_c, 0, 71, 109
2, 347136, Note_on_c, 0, 67, 109
2, 347228, Note_on_c, 0, 67, 0
2, 347228, Note_on_c, 0, 71, 0
2, 347328, Note_on_c, 0, 71, 109
2, 347328, Note_on_c, 0, 67, 109
2, 347420, Note_on_c, 0, 67, 0
2, 347420, Note_on_c, 0, 71, 0
2, 347712, Note_on_c, 0, 76, 111
2, 347712, Note_on_c, 0, 67, 111
2, 347900, Note_on_c, 0, 67, 0
2, 347900, Note_on_c, 0, 76, 0
2, 347904, Note_on_c, 0, 79, 111
2, 347904, Note_on_c, 0, 71, 111
2, 347996, Note_on_c, 0, 71, 0
2, 347996, Note_on_c, 0, 79, 0
2, 348096, Note_on_c, 0, 79, 111
2, 348096, Note_on_c, 0, 71, 111
2, 348188, Note_on_c, 0, 71, 0
2, 348188, Note_on_c, 0, 79, 0
2, 348480, Note_on_c, 0, 76, 112
2, 348480, Note_on_c, 0, 68, 112
2, 348668, Note_on_c, 0, 68, 0
2, 348668, Note_on_c, 0, 76, 0
2, 348672, Note_on_c, 0, 72, 112
2, 348672, Note_on_c, 0, 69, 112
2, 348764, Note_on_c, 0, 69, 0
2, 348764, Note_on_c, 0, 72, 0
2, 348864, Note_on_c, 0, 72, 112
2, 348864, Note_on_c, 0, 69, 112
2, 348956, Note_on_c, 0, 69, 0
2, 348956, Note_on_c, 0, 72, 0
2, 349248, Note_on_c, 0, 77, 113
2, 349248, Note_on_c, 0, 69, 113
2, 349436, Note_on_c, 0, 69, 0
2, 349436, Note_on_c, 0, 77, 0
2, 349440, Note_on_c, 0, 81, 113
2, 349440, Note_on_c, 0, 72, 113
2, 349532, Note_on_c, 0, 72, 0
2, 349532, Note_on_c, 0, 81, 0
2, 349632, Note_on_c, 0, 81, 113
2, 349632, Note_on_c, 0, 72, 113
2, 349724, Note_on_c, 0, 72, 0
2, 349724, Note_on_c, 0, 81, 0
2, 350016, Note_on_c, 0, 77, 92
2, 350016, Note_on_c, 0, 69, 92
2, 350204, Note_on_c, 0, 69, 0
2, 350204, Note_on_c, 0, 77, 0
2, 350236, Note_on_c, 0, 65, 89
2, 350252, Note_on_c, 0, 74, 89
2, 351000, Note_on_c, 0, 65, 0
2, 351016, Note_on_c, 0, 74, 0
2, 351360, Note_on_c, 0, 58, 83
2, 351452, Note_on_c, 0, 58, 0
2, 351456, Note_on_c, 0, 64, 83
2, 351548, Note_on_c, 0, 64, 0
2, 351552, Note_on_c, 0, 62, 83
2, 351644, Note_on_c, 0, 62, 0
2, 351648, Note_on_c, 0, 68, 83
2, 351740, Note_on_c, 0, 68, 0
2, 351744, Note_on_c, 0, 70, 83
2, 351836, Note_on_c, 0, 70, 0
2, 351840, Note_on_c, 0, 76, 83
2, 351932, Note_on_c, 0, 76, 0
2, 351936, Note_on_c, 0, 74, 83
2, 352028, Note_on_c, 0, 74, 0
2, 352032, Note_on_c, 0, 80, 83
2, 352124, Note_on_c, 0, 80, 0
2, 352128, Note_on_c, 0, 82, 83
2, 352220, Note_on_c, 0, 82, 0
2, 352224, Note_on_c, 0, 88, 83
2, 352316, Note_on_c, 0, 88, 0
2, 352320, Note_on_c, 0, 86, 83
2, 352412, Note_on_c, 0, 86, 0
2, 352416, Note_on_c, 0, 92, 83
2, 352508, Note_on_c, 0, 92, 0
2, 352512, Note_on_c, 0, 93, 84
2, 352604, Note_on_c, 0, 93, 0
2, 352608, Note_on_c, 0, 88, 85
2, 352700, Note_on_c, 0, 88, 0
2, 352704, Note_on_c, 0, 86, 87
2, 352796, Note_on_c, 0, 86, 0
2, 352800, Note_on_c, 0, 81, 89
2, 352892, Note_on_c, 0, 81, 0
2, 352896, Note_on_c, 0, 81, 91
2, 352988, Note_on_c, 0, 81, 0
2, 352992, Note_on_c, 0, 76, 92
2, 353084, Note_on_c, 0, 76, 0
2, 353088, Note_on_c, 0, 75, 93
2, 353180, Note_on_c, 0, 75, 0
2, 353184, Note_on_c, 0, 69, 96
2, 353276, Note_on_c, 0, 69, 0
2, 353280, Note_on_c, 0, 81, 97
2, 353372, Note_on_c, 0, 81, 0
2, 353376, Note_on_c, 0, 76, 99
2, 353468, Note_on_c, 0, 76, 0
2, 353472, Note_on_c, 0, 72, 100
2, 353564, Note_on_c, 0, 72, 0
2, 353568, Note_on_c, 0, 69, 103
2, 353660, Note_on_c, 0, 69, 0
2, 353664, Note_on_c, 0, 69, 104
2, 353756, Note_on_c, 0, 69, 0
2, 353760, Note_on_c, 0, 64, 105
2, 353852, Note_on_c, 0, 64, 0
2, 353856, Note_on_c, 0, 61, 107
2, 353948, Note_on_c, 0, 61, 0
2, 353952, Note_on_c, 0, 57, 109
2, 354044, Note_on_c, 0, 57, 0
2, 354048, Note_on_c, 0, 62, 112
2, 354140, Note_on_c, 0, 62, 0
2, 354192, Note_on_c, 0, 64, 112
2, 354236, Note_on_c, 0, 64, 0
2, 354240, Note_on_c, 0, 62, 112
2, 354332, Note_on_c, 0, 62, 0
2, 354336, Note_on_c, 0, 61, 112
2, 354428, Note_on_c, 0, 61, 0
2, 354432, Note_on_c, 0, 62, 112
2, 354524, Note_on_c, 0, 62, 0
2, 354624, Note_on_c, 0, 64, 112
2, 354716, Note_on_c, 0, 64, 0
2, 354816, Note_on_c, 0, 65, 112
2, 354908, Note_on_c, 0, 65, 0
2, 354960, Note_on_c, 0, 67, 112
2, 355004, Note_on_c, 0, 67, 0
2, 355008, Note_on_c, 0, 65, 112
2, 355100, Note_on_c, 0, 65, 0
2, 355104, Note_on_c, 0, 64, 112
2, 355196, Note_on_c, 0, 64, 0
2, 355200, Note_on_c, 0, 65, 112
2, 355292, Note_on_c, 0, 65, 0
2, 355392, Note_on_c, 0, 68, 119
2, 355392, Note_on_c, 0, 62, 119
2, 355392, Note_on_c, 0, 59, 119
2, 355484, Note_on_c, 0, 59, 0
2, 355484, Note_on_c, 0, 62, 0
2, 355484, Note_on_c, 0, 68, 0
2, 355584, Note_on_c, 0, 69, 119
2, 355584, Note_on_c, 0, 64, 119
2, 355584, Note_on_c, 0, 60, 119
2, 355728, Note_on_c, 0, 71, 112
2, 355772, Note_on_c, 0, 71, 0
2, 355772, Note_on_c, 0, 69, 0
2, 355772, Note_on_c, 0, 64, 0
2, 355772, Note_on_c, 0, 60, 0
2, 355776, Note_on_c, 0, 69, 112
2, 355868, Note_on_c, 0, 69, 0
2, 355872, Note_on_c, 0, 68, 112
2, 355964, Note_on_c, 0, 68, 0
2, 355968, Note_on_c, 0, 69, 112
2, 356060, Note_on_c, 0, 69, 0
2, 356160, Note_on_c, 0, 71, 112
2, 356160, Note_on_c, 0, 64, 112
2, 356252, Note_on_c, 0, 64, 0
2, 356252, Note_on_c, 0, 71, 0
2, 356352, Note_on_c, 0, 72, 112
2, 356352, Note_on_c, 0, 69, 112
2, 356444, Note_on_c, 0, 69, 0
2, 356444, Note_on_c, 0, 72, 0
2, 356496, Note_on_c, 0, 74, 112
2, 356496, Note_on_c, 0, 71, 112
2, 356540, Note_on_c, 0, 71, 0
2, 356540, Note_on_c, 0, 74, 0
2, 356544, Note_on_c, 0, 72, 112
2, 356544, Note_on_c, 0, 69, 112
2, 356636, Note_on_c, 0, 69, 0
2, 356636, Note_on_c, 0, 72, 0
2, 356640, Note_on_c, 0, 71, 112
2, 356640, Note_on_c, 0, 68, 112
2, 356732, Note_on_c, 0, 68, 0
2, 356732, Note_on_c, 0, 71, 0
2, 356736, Note_on_c, 0, 72, 112
2, 356736, Note_on_c, 0, 69, 112
2, 356828, Note_on_c, 0, 69, 0
2, 356828, Note_on_c, 0, 72, 0
2, 356928, Note_on_c, 0, 75, 119
2, 356928, Note_on_c, 0, 69, 119
2, 356928, Note_on_c, 0, 66, 119
2, 357020, Note_on_c, 0, 66, 0
2, 357020, Note_on_c, 0, 69, 0
2, 357020, Note_on_c, 0, 75, 0
2, 357120, Note_on_c, 0, 76, 119
2, 357120, Note_on_c, 0, 67, 119
2, 357120, Note_on_c, 0, 64, 119
2, 357212, Note_on_c, 0, 64, 0
2, 357212, Note_on_c, 0, 67, 0
2, 357212, Note_on_c, 0, 76, 0
2, 357264, Note_on_c, 0, 66, 112
2, 357308, Note_on_c, 0, 66, 0
2, 357312, Note_on_c, 0, 64, 112
2, 357404, Note_on_c, 0, 64, 0
2, 357408, Note_on_c, 0, 63, 112
2, 357500, Note_on_c, 0, 63, 0
2, 357504, Note_on_c, 0, 64, 112
2, 357596, Note_on_c, 0, 64, 0
2, 357696, Note_on_c, 0, 66, 112
2, 357788, Note_on_c, 0, 66, 0
2, 357888, Note_on_c, 0, 67, 112
2, 357980, Note_on_c, 0, 67, 0
2, 358032, Note_on_c, 0, 69, 112
2, 358076, Note_on_c, 0, 69, 0
2, 358080, Note_on_c, 0, 67, 112
2, 358172, Note_on_c, 0, 67, 0
2, 358176, Note_on_c, 0, 66, 112
2, 358268, Note_on_c, 0, 66, 0
2, 358272, Note_on_c, 0, 67, 112
2, 358364, Note_on_c, 0, 67, 0
2, 358464, Note_on_c, 0, 70, 119
2, 358464, Note_on_c, 0, 64, 119
2, 358464, Note_on_c, 0, 61, 119
2, 358556, Note_on_c, 0, 61, 0
2, 358556, Note_on_c, 0, 64, 0
2, 358556, Note_on_c, 0, 70, 0
2, 358656, Note_on_c, 0, 71, 119
2, 358656, Note_on_c, 0, 66, 119
2, 358656, Note_on_c, 0, 62, 119
2, 358748, Note_on_c, 0, 62, 0
2, 358748, Note_on_c, 0, 66, 0
2, 358748, Note_on_c, 0, 71, 0
2, 358800, Note_on_c, 0, 73, 112
2, 358844, Note_on_c, 0, 73, 0
2, 358848, Note_on_c, 0, 71, 112
2, 358940, Note_on_c, 0, 71, 0
2, 358944, Note_on_c, 0, 70, 112
2, 359036, Note_on_c, 0, 70, 0
2, 359040, Note_on_c, 0, 71, 112
2, 359132, Note_on_c, 0, 71, 0
2, 359232, Note_on_c, 0, 73, 112
2, 359232, Note_on_c, 0, 66, 112
2, 359324, Note_on_c, 0, 66, 0
2, 359324, Note_on_c, 0, 73, 0
2, 359424, Note_on_c, 0, 74, 112
2, 359424, Note_on_c, 0, 71, 112
2, 359516, Note_on_c, 0, 71, 0
2, 359516, Note_on_c, 0, 74, 0
2, 359568, Note_on_c, 0, 76, 112
2, 359568, Note_on_c, 0, 73, 112
2, 359612, Note_on_c, 0, 73, 0
2, 359612, Note_on_c, 0, 76, 0
2, 359616, Note_on_c, 0, 74, 112
2, 359616, Note_on_c, 0, 71, 112
2, 359708, Note_on_c, 0, 71, 0
2, 359708, Note_on_c, 0, 74, 0
2, 359712, Note_on_c, 0, 73, 112
2, 359712, Note_on_c, 0, 70, 112
2, 359804, Note_on_c, 0, 70, 0
2, 359804, Note_on_c, 0, 73, 0
2, 359808, Note_on_c, 0, 74, 112
2, 359808, Note_on_c, 0, 71, 112
2, 359900, Note_on_c, 0, 71, 0
2, 359900, Note_on_c, 0, 74, 0
2, 360000, Note_on_c, 0, 76, 119
2, 360000, Note_on_c, 0, 73, 119
2, 360000, Note_on_c, 0, 64, 119
2, 360092, Note_on_c, 0, 64, 0
2, 360092, Note_on_c, 0, 73, 0
2, 360092, Note_on_c, 0, 76, 0
2, 360192, Note_on_c, 0, 77, 112
2, 360284, Note_on_c, 0, 77, 0
2, 360288, Note_on_c, 0, 71, 83
2, 360380, Note_on_c, 0, 71, 0
2, 360384, Note_on_c, 0, 74, 83
2, 360476, Note_on_c, 0, 74, 0
2, 360480, Note_on_c, 0, 65, 83
2, 360572, Note_on_c, 0, 65, 0
2, 360576, Note_on_c, 0, 77, 83
2, 360668, Note_on_c, 0, 77, 0
2, 360672, Note_on_c, 0, 71, 83
2, 360764, Note_on_c, 0, 71, 0
2, 360768, Note_on_c, 0, 74, 83
2, 360860, Note_on_c, 0, 74, 0
2, 360864, Note_on_c, 0, 65, 83
2, 360956, Note_on_c, 0, 65, 0
2, 360960, Note_on_c, 0, 77, 83
2, 360960, Note_on_c, 0, 83, 112
2, 361052, Note_on_c, 0, 83, 0
2, 361052, Note_on_c, 0, 77, 0
2, 361056, Note_on_c, 0, 71, 83
2, 361148, Note_on_c, 0, 71, 0
2, 361152, Note_on_c, 0, 74, 83
2, 361152, Note_on_c, 0, 84, 116
2, 361244, Note_on_c, 0, 84, 0
2, 361244, Note_on_c, 0, 74, 0
2, 361248, Note_on_c, 0, 65, 83
2, 361340, Note_on_c, 0, 65, 0
2, 361344, Note_on_c, 0, 77, 83
2, 361344, Note_on_c, 0, 85, 119
2, 361436, Note_on_c, 0, 85, 0
2, 361436, Note_on_c, 0, 77, 0
2, 361440, Note_on_c, 0, 71, 83
2, 361532, Note_on_c, 0, 71, 0
2, 361536, Note_on_c, 0, 74, 83
2, 361536, Note_on_c, 0, 86, 123
2, 361628, Note_on_c, 0, 86, 0
2, 361628, Note_on_c, 0, 74, 0
2, 361632, Note_on_c, 0, 65, 83
2, 361724, Note_on_c, 0, 65, 0
2, 361728, Note_on_c, 0, 83, 83
2, 361728, Note_on_c, 0, 88, 119
2, 361820, Note_on_c, 0, 83, 0
2, 361824, Note_on_c, 0, 74, 83
2, 361916, Note_on_c, 0, 74, 0
2, 361916, Note_on_c, 0, 88, 0
2, 361920, Note_on_c, 0, 77, 83
2, 361920, Note_on_c, 0, 86, 116
2, 362012, Note_on_c, 0, 77, 0
2, 362016, Note_on_c, 0, 71, 83
2, 362108, Note_on_c, 0, 71, 0
2, 362108, Note_on_c, 0, 86, 0
2, 362112, Note_on_c, 0, 83, 83
2, 362112, Note_on_c, 0, 86, 112
2, 362204, Note_on_c, 0, 86, 0
2, 362204, Note_on_c, 0, 83, 0
2, 362208, Note_on_c, 0, 74, 83
2, 362300, Note_on_c, 0, 74, 0
2, 362304, Note_on_c, 0, 77, 83
2, 362396, Note_on_c, 0, 77, 0
2, 362400, Note_on_c, 0, 71, 83
2, 362492, Note_on_c, 0, 71, 0
2, 362496, Note_on_c, 0, 77, 83
2, 362588, Note_on_c, 0, 77, 0
2, 362592, Note_on_c, 0, 71, 83
2, 362684, Note_on_c, 0, 71, 0
2, 362688, Note_on_c, 0, 74, 83
2, 362780, Note_on_c, 0, 74, 0
2, 362784, Note_on_c, 0, 65, 83
2, 362876, Note_on_c, 0, 65, 0
2, 362880, Note_on_c, 0, 77, 83
2, 362972, Note_on_c, 0, 77, 0
2, 362976, Note_on_c, 0, 71, 83
2, 363068, Note_on_c, 0, 71, 0
2, 363072, Note_on_c, 0, 74, 83
2, 363164, Note_on_c, 0, 74, 0
2, 363168, Note_on_c, 0, 65, 83
2, 363260, Note_on_c, 0, 65, 0
2, 363264, Note_on_c, 0, 78, 83
2, 363356, Note_on_c, 0, 78, 0
2, 363360, Note_on_c, 0, 72, 83
2, 363452, Note_on_c, 0, 72, 0
2, 363456, Note_on_c, 0, 75, 83
2, 363548, Note_on_c, 0, 75, 0
2, 363552, Note_on_c, 0, 66, 83
2, 363644, Note_on_c, 0, 66, 0
2, 363648, Note_on_c, 0, 78, 83
2, 363740, Note_on_c, 0, 78, 0
2, 363744, Note_on_c, 0, 72, 83
2, 363836, Note_on_c, 0, 72, 0
2, 363840, Note_on_c, 0, 75, 83
2, 363932, Note_on_c, 0, 75, 0
2, 363936, Note_on_c, 0, 66, 83
2, 364028, Note_on_c, 0, 66, 0
2, 364032, Note_on_c, 0, 78, 83
2, 364032, Note_on_c, 0, 84, 112
2, 364124, Note_on_c, 0, 84, 0
2, 364124, Note_on_c, 0, 78, 0
2, 364128, Note_on_c, 0, 72, 83
2, 364220, Note_on_c, 0, 72, 0
2, 364224, Note_on_c, 0, 75, 83
2, 364224, Note_on_c, 0, 85, 116
2, 364316, Note_on_c, 0, 85, 0
2, 364316, Note_on_c, 0, 75, 0
2, 364320, Note_on_c, 0, 66, 83
2, 364412, Note_on_c, 0, 66, 0
2, 364416, Note_on_c, 0, 78, 83
2, 364416, Note_on_c, 0, 86, 119
2, 364508, Note_on_c, 0, 86, 0
2, 364508, Note_on_c, 0, 78, 0
2, 364512, Note_on_c, 0, 72, 83
2, 364604, Note_on_c, 0, 72, 0
2, 364608, Note_on_c, 0, 75, 83
2, 364608, Note_on_c, 0, 87, 123
2, 364700, Note_on_c, 0, 87, 0
2, 364700, Note_on_c, 0, 75, 0
2, 364704, Note_on_c, 0, 66, 83
2, 364796, Note_on_c, 0, 66, 0
2, 364800, Note_on_c, 0, 84, 83
2, 364800, Note_on_c, 0, 92, 119
2, 364892, Note_on_c, 0, 84, 0
2, 364896, Note_on_c, 0, 75, 83
2, 364988, Note_on_c, 0, 75, 0
2, 364988, Note_on_c, 0, 92, 0
2, 364992, Note_on_c, 0, 78, 83
2, 364992, Note_on_c, 0, 90, 116
2, 365084, Note_on_c, 0, 78, 0
2, 365088, Note_on_c, 0, 72, 83
2, 365180, Note_on_c, 0, 72, 0
2, 365180, Note_on_c, 0, 90, 0
2, 365184, Note_on_c, 0, 84, 83
2, 365184, Note_on_c, 0, 90, 112
2, 365276, Note_on_c, 0, 90, 0
2, 365276, Note_on_c, 0, 84, 0
2, 365280, Note_on_c, 0, 75, 83
2, 365372, Note_on_c, 0, 75, 0
2, 365376, Note_on_c, 0, 78, 83
2, 365468, Note_on_c, 0, 78, 0
2, 365472, Note_on_c, 0, 72, 83
2, 365564, Note_on_c, 0, 72, 0
2, 365568, Note_on_c, 0, 78, 83
2, 365660, Note_on_c, 0, 78, 0
2, 365664, Note_on_c, 0, 72, 83
2, 365756, Note_on_c, 0, 72, 0
2, 365760, Note_on_c, 0, 75, 83
2, 365852, Note_on_c, 0, 75, 0
2, 365856, Note_on_c, 0, 66, 83
2, 365948, Note_on_c, 0, 66, 0
2, 365952, Note_on_c, 0, 78, 83
2, 366044, Note_on_c, 0, 78, 0
2, 366048, Note_on_c, 0, 72, 83
2, 366140, Note_on_c, 0, 72, 0
2, 366144, Note_on_c, 0, 75, 83
2, 366236, Note_on_c, 0, 75, 0
2, 366240, Note_on_c, 0, 66, 83
2, 366332, Note_on_c, 0, 66, 0
2, 366336, Note_on_c, 0, 79, 83
2, 366428, Note_on_c, 0, 79, 0
2, 366432, Note_on_c, 0, 72, 83
2, 366524, Note_on_c, 0, 72, 0
2, 366528, Note_on_c, 0, 76, 83
2, 366620, Note_on_c, 0, 76, 0
2, 366624, Note_on_c, 0, 67, 83
2, 366716, Note_on_c, 0, 67, 0
2, 366720, Note_on_c, 0, 84, 112
2, 366720, Note_on_c, 0, 84, 112
2, 366812, Note_on_c, 0, 84, 0
2, 366816, Note_on_c, 0, 75, 112
2, 366908, Note_on_c, 0, 75, 0
2, 366912, Note_on_c, 0, 78, 112
2, 367004, Note_on_c, 0, 78, 0
2, 367008, Note_on_c, 0, 72, 112
2, 367100, Note_on_c, 0, 72, 0
2, 367100, Note_on_c, 0, 84, 0
2, 367104, Note_on_c, 0, 83, 112
2, 367104, Note_on_c, 0, 83, 112
2, 367196, Note_on_c, 0, 83, 0
2, 367200, Note_on_c, 0, 74, 112
2, 367292, Note_on_c, 0, 74, 0
2, 367296, Note_on_c, 0, 79, 112
2, 367388, Note_on_c, 0, 79, 0
2, 367392, Note_on_c, 0, 71, 112
2, 367484, Note_on_c, 0, 71, 0
2, 367484, Note_on_c, 0, 83, 0
2, 367488, Note_on_c, 0, 82, 112
2, 367488, Note_on_c, 0, 82, 112
2, 367580, Note_on_c, 0, 82, 0
2, 367584, Note_on_c, 0, 76, 112
2, 367676, Note_on_c, 0, 76, 0
2, 367680, Note_on_c, 0, 79, 112
2, 367772, Note_on_c, 0, 79, 0
2, 367776, Note_on_c, 0, 70, 112
2, 367868, Note_on_c, 0, 70, 0
2, 367868, Note_on_c, 0, 82, 0
2, 367872, Note_on_c, 0, 81, 112
2, 367964, Note_on_c, 0, 81, 0
2, 367968, Note_on_c, 0, 74, 112
2, 368060, Note_on_c, 0, 74, 0
2, 368064, Note_on_c, 0, 78, 112
2, 368156, Note_on_c, 0, 78, 0
2, 368160, Note_on_c, 0, 69, 112
2, 368252, Note_on_c, 0, 69, 0
2, 368256, Note_on_c, 0, 80, 112
2, 368256, Note_on_c, 0, 80, 112
2, 368348, Note_on_c, 0, 80, 0
2, 368352, Note_on_c, 0, 74, 111
2, 368444, Note_on_c, 0, 74, 0
2, 368448, Note_on_c, 0, 77, 109
2, 368540, Note_on_c, 0, 77, 0
2, 368544, Note_on_c, 0, 68, 109
2, 368636, Note_on_c, 0, 68, 0
2, 368636, Note_on_c, 0, 80, 0
2, 368640, Note_on_c, 0, 79, 105
2, 368640, Note_on_c, 0, 79, 105
2, 368732, Note_on_c, 0, 79, 0
2, 368736, Note_on_c, 0, 72, 104
2, 368828, Note_on_c, 0, 72, 0
2, 368832, Note_on_c, 0, 76, 103
2, 368924, Note_on_c, 0, 76, 0
2, 368928, Note_on_c, 0, 67, 100
2, 369020, Note_on_c, 0, 67, 0
2, 369020, Note_on_c, 0, 79, 0
2, 369024, Note_on_c, 0, 78, 99
2, 369024, Note_on_c, 0, 78, 99
2, 369116, Note_on_c, 0, 78, 0
2, 369120, Note_on_c, 0, 72, 97
2, 369212, Note_on_c, 0, 72, 0
2, 369216, Note_on_c, 0, 75, 96
2, 369308, Note_on_c, 0, 75, 0
2, 369312, Note_on_c, 0, 66, 93
2, 369404, Note_on_c, 0, 66, 0
2, 369404, Note_on_c, 0, 78, 0
2, 369408, Note_on_c, 0, 77, 92
2, 369500, Note_on_c, 0, 77, 0
2, 369504, Note_on_c, 0, 70, 91
2, 369596, Note_on_c, 0, 70, 0
2, 369600, Note_on_c, 0, 74, 89
2, 369692, Note_on_c, 0, 74, 0
2, 369696, Note_on_c, 0, 65, 87
2, 369788, Note_on_c, 0, 65, 0
2, 369888, Note_on_c, 0, 64, 83
2, 369980, Note_on_c, 0, 64, 0
2, 369984, Note_on_c, 0, 73, 83
2, 370076, Note_on_c, 0, 73, 0
2, 370080, Note_on_c, 0, 76, 83
2, 370172, Note_on_c, 0, 76, 0
2, 370272, Note_on_c, 0, 63, 83
2, 370364, Note_on_c, 0, 63, 0
2, 370368, Note_on_c, 0, 72, 83
2, 370460, Note_on_c, 0, 72, 0
2, 370464, Note_on_c, 0, 75, 83
2, 370556, Note_on_c, 0, 75, 0
2, 370656, Note_on_c, 0, 62, 83
2, 370748, Note_on_c, 0, 62, 0
2, 370752, Note_on_c, 0, 71, 83
2, 370844, Note_on_c, 0, 71, 0
2, 370848, Note_on_c, 0, 74, 83
2, 370940, Note_on_c, 0, 74, 0
2, 371040, Note_on_c, 0, 61, 87
2, 371132, Note_on_c, 0, 61, 0
2, 371136, Note_on_c, 0, 70, 89
2, 371228, Note_on_c, 0, 70, 0
2, 371232, Note_on_c, 0, 73, 91
2, 371324, Note_on_c, 0, 73, 0
2, 371424, Note_on_c, 0, 60, 93
2, 371516, Note_on_c, 0, 60, 0
2, 371520, Note_on_c, 0, 69, 96
2, 371612, Note_on_c, 0, 69, 0
2, 371616, Note_on_c, 0, 72, 97
2, 371708, Note_on_c, 0, 72, 0
2, 371808, Note_on_c, 0, 59, 100
2, 371900, Note_on_c, 0, 59, 0
2, 371904, Note_on_c, 0, 68, 103
2, 371996, Note_on_c, 0, 68, 0
2, 372000, Note_on_c, 0, 71, 104
2, 372092, Note_on_c, 0, 71, 0
2, 372192, Note_on_c, 0, 60, 107
2, 372284, Note_on_c, 0, 60, 0
2, 372288, Note_on_c, 0, 67, 109
2, 372380, Note_on_c, 0, 67, 0
2, 372384, Note_on_c, 0, 72, 111
2, 372476, Note_on_c, 0, 72, 0
2, 372480, Note_on_c, 0, 62, 112
2, 372524, Note_on_c, 0, 62, 0
2, 372528, Note_on_c, 0, 60, 112
2, 372572, Note_on_c, 0, 60, 0
2, 372576, Note_on_c, 0, 62, 112
2, 372620, Note_on_c, 0, 62, 0
2, 372624, Note_on_c, 0, 60, 112
2, 372668, Note_on_c, 0, 60, 0
2, 372672, Note_on_c, 0, 62, 112
2, 372716, Note_on_c, 0, 62, 0
2, 372720, Note_on_c, 0, 60, 112
2, 372764, Note_on_c, 0, 60, 0
2, 372768, Note_on_c, 0, 62, 112
2, 372812, Note_on_c, 0, 62, 0
2, 372816, Note_on_c, 0, 60, 112
2, 372860, Note_on_c, 0, 60, 0
2, 372864, Note_on_c, 0, 62, 112
2, 372908, Note_on_c, 0, 62, 0
2, 372912, Note_on_c, 0, 60, 112
2, 372956, Note_on_c, 0, 60, 0
2, 372960, Note_on_c, 0, 62, 112
2, 373004, Note_on_c, 0, 62, 0
2, 373008, Note_on_c, 0, 60, 112
2, 373052, Note_on_c, 0, 60, 0
2, 373056, Note_on_c, 0, 62, 112
2, 373100, Note_on_c, 0, 62, 0
2, 373104, Note_on_c, 0, 60, 112
2, 373148, Note_on_c, 0, 60, 0
2, 373152, Note_on_c, 0, 62, 112
2, 373196, Note_on_c, 0, 62, 0
2, 373200, Note_on_c, 0, 60, 112
2, 373244, Note_on_c, 0, 60, 0
2, 373248, Note_on_c, 0, 66, 112
2, 373248, Note_on_c, 0, 62, 112
2, 373248, Note_on_c, 0, 74, 112
2, 373292, Note_on_c, 0, 74, 0
2, 373296, Note_on_c, 0, 72, 112
2, 373340, Note_on_c, 0, 72, 0
2, 373340, Note_on_c, 0, 62, 0
2, 373340, Note_on_c, 0, 66, 0
2, 373344, Note_on_c, 0, 74, 112
2, 373388, Note_on_c, 0, 74, 0
2, 373392, Note_on_c, 0, 72, 112
2, 373436, Note_on_c, 0, 72, 0
2, 373440, Note_on_c, 0, 67, 116
2, 373440, Note_on_c, 0, 64, 116
2, 373440, Note_on_c, 0, 74, 112
2, 373484, Note_on_c, 0, 74, 0
2, 373488, Note_on_c, 0, 72, 112
2, 373532, Note_on_c, 0, 72, 0
2, 373532, Note_on_c, 0, 64, 0
2, 373532, Note_on_c, 0, 67, 0
2, 373536, Note_on_c, 0, 74, 112
2, 373580, Note_on_c, 0, 74, 0
2, 373584, Note_on_c, 0, 72, 112
2, 373628, Note_on_c, 0, 72, 0
2, 373632, Note_on_c, 0, 65, 119
2, 373632, Note_on_c, 0, 68, 119
2, 373632, Note_on_c, 0, 74, 112
2, 373676, Note_on_c, 0, 74, 0
2, 373680, Note_on_c, 0, 72, 112
2, 373724, Note_on_c, 0, 72, 0
2, 373724, Note_on_c, 0, 68, 0
2, 373724, Note_on_c, 0, 65, 0
2, 373728, Note_on_c, 0, 74, 112
2, 373772, Note_on_c, 0, 74, 0
2, 373776, Note_on_c, 0, 72, 112
2, 373820, Note_on_c, 0, 72, 0
2, 373824, Note_on_c, 0, 69, 123
2, 373824, Note_on_c, 0, 66, 123
2, 373824, Note_on_c, 0, 74, 112
2, 373868, Note_on_c, 0, 74, 0
2, 373872, Note_on_c, 0, 72, 112
2, 373916, Note_on_c, 0, 72, 0
2, 373916, Note_on_c, 0, 66, 0
2, 373916, Note_on_c, 0, 69, 0
2, 373920, Note_on_c, 0, 74, 112
2, 373964, Note_on_c, 0, 74, 0
2, 373968, Note_on_c, 0, 72, 112
2, 374012, Note_on_c, 0, 72, 0
2, 374016, Note_on_c, 0, 71, 119
2, 374016, Note_on_c, 0, 67, 119
2, 374016, Note_on_c, 0, 86, 112
2, 374060, Note_on_c, 0, 86, 0
2, 374064, Note_on_c, 0, 84, 112
2, 374108, Note_on_c, 0, 84, 0
2, 374112, Note_on_c, 0, 86, 112
2, 374156, Note_on_c, 0, 86, 0
2, 374160, Note_on_c, 0, 84, 112
2, 374204, Note_on_c, 0, 84, 0
2, 374204, Note_on_c, 0, 67, 0
2, 374204, Note_on_c, 0, 71, 0
2, 374208, Note_on_c, 0, 69, 116
2, 374208, Note_on_c, 0, 66, 116
2, 374208, Note_on_c, 0, 86, 112
2, 374252, Note_on_c, 0, 86, 0
2, 374256, Note_on_c, 0, 84, 112
2, 374300, Note_on_c, 0, 84, 0
2, 374300, Note_on_c, 0, 66, 0
2, 374300, Note_on_c, 0, 69, 0
2, 374304, Note_on_c, 0, 86, 112
2, 374348, Note_on_c, 0, 86, 0
2, 374352, Note_on_c, 0, 84, 112
2, 374396, Note_on_c, 0, 84, 0
2, 374400, Note_on_c, 0, 69, 112
2, 374400, Note_on_c, 0, 66, 112
2, 374400, Note_on_c, 0, 86, 112
2, 374444, Note_on_c, 0, 86, 0
2, 374448, Note_on_c, 0, 84, 112
2, 374492, Note_on_c, 0, 84, 0
2, 374492, Note_on_c, 0, 66, 0
2, 374492, Note_on_c, 0, 69, 0
2, 374496, Note_on_c, 0, 86, 112
2, 374540, Note_on_c, 0, 86, 0
2, 374544, Note_on_c, 0, 84, 112
2, 374588, Note_on_c, 0, 84, 0
2, 374592, Note_on_c, 0, 86, 112
2, 374636, Note_on_c, 0, 86, 0
2, 374640, Note_on_c, 0, 84, 112
2, 374684, Note_on_c, 0, 84, 0
2, 374688, Note_on_c, 0, 86, 112
2, 374732, Note_on_c, 0, 86, 0
2, 374736, Note_on_c, 0, 84, 112
2, 374780, Note_on_c, 0, 84, 0
2, 374784, Note_on_c, 0, 86, 116
2, 374784, Note_on_c, 0, 84, 116
2, 374784, Note_on_c, 0, 74, 112
2, 374828, Note_on_c, 0, 74, 0
2, 374832, Note_on_c, 0, 72, 112
2, 374876, Note_on_c, 0, 72, 0
2, 374876, Note_on_c, 0, 84, 0
2, 374876, Note_on_c, 0, 86, 0
2, 374880, Note_on_c, 0, 74, 112
2, 374924, Note_on_c, 0, 74, 0
2, 374928, Note_on_c, 0, 72, 112
2, 374972, Note_on_c, 0, 72, 0
2, 374976, Note_on_c, 0, 74, 112
2, 375020, Note_on_c, 0, 74, 0
2, 375024, Note_on_c, 0, 72, 112
2, 375068, Note_on_c, 0, 72, 0
2, 375072, Note_on_c, 0, 74, 112
2, 375116, Note_on_c, 0, 74, 0
2, 375120, Note_on_c, 0, 72, 112
2, 375164, Note_on_c, 0, 72, 0
2, 375168, Note_on_c, 0, 74, 112
2, 375212, Note_on_c, 0, 74, 0
2, 375216, Note_on_c, 0, 72, 112
2, 375260, Note_on_c, 0, 72, 0
2, 375264, Note_on_c, 0, 74, 112
2, 375308, Note_on_c, 0, 74, 0
2, 375312, Note_on_c, 0, 72, 112
2, 375356, Note_on_c, 0, 72, 0
2, 375360, Note_on_c, 0, 74, 112
2, 375404, Note_on_c, 0, 74, 0
2, 375408, Note_on_c, 0, 72, 112
2, 375452, Note_on_c, 0, 72, 0
2, 375456, Note_on_c, 0, 74, 112
2, 375500, Note_on_c, 0, 74, 0
2, 375504, Note_on_c, 0, 72, 112
2, 375548, Note_on_c, 0, 72, 0
2, 375552, Note_on_c, 0, 62, 112
2, 375596, Note_on_c, 0, 62, 0
2, 375600, Note_on_c, 0, 60, 112
2, 375644, Note_on_c, 0, 60, 0
2, 375648, Note_on_c, 0, 62, 112
2, 375692, Note_on_c, 0, 62, 0
2, 375696, Note_on_c, 0, 60, 112
2, 375740, Note_on_c, 0, 60, 0
2, 375744, Note_on_c, 0, 62, 112
2, 375788, Note_on_c, 0, 62, 0
2, 375792, Note_on_c, 0, 60, 112
2, 375836, Note_on_c, 0, 60, 0
2, 375840, Note_on_c, 0, 62, 112
2, 375884, Note_on_c, 0, 62, 0
2, 375888, Note_on_c, 0, 60, 112
2, 375932, Note_on_c, 0, 60, 0
2, 375936, Note_on_c, 0, 62, 112
2, 375980, Note_on_c, 0, 62, 0
2, 375984, Note_on_c, 0, 60, 112
2, 376028, Note_on_c, 0, 60, 0
2, 376032, Note_on_c, 0, 62, 112
2, 376076, Note_on_c, 0, 62, 0
2, 376080, Note_on_c, 0, 60, 112
2, 376124, Note_on_c, 0, 60, 0
2, 376128, Note_on_c, 0, 62, 112
2, 376172, Note_on_c, 0, 62, 0
2, 376176, Note_on_c, 0, 60, 112
2, 376220, Note_on_c, 0, 60, 0
2, 376224, Note_on_c, 0, 62, 112
2, 376268, Note_on_c, 0, 62, 0
2, 376272, Note_on_c, 0, 60, 112
2, 376316, Note_on_c, 0, 60, 0
2, 376320, Note_on_c, 0, 65, 112
2, 376320, Note_on_c, 0, 62, 112
2, 376320, Note_on_c, 0, 74, 112
2, 376364, Note_on_c, 0, 74, 0
2, 376368, Note_on_c, 0, 72, 112
2, 376412, Note_on_c, 0, 72, 0
2, 376412, Note_on_c, 0, 62, 0
2, 376412, Note_on_c, 0, 65, 0
2, 376416, Note_on_c, 0, 74, 112
2, 376460, Note_on_c, 0, 74, 0
2, 376464, Note_on_c, 0, 72, 112
2, 376508, Note_on_c, 0, 72, 0
2, 376512, Note_on_c, 0, 66, 116
2, 376512, Note_on_c, 0, 63, 116
2, 376512, Note_on_c, 0, 74, 112
2, 376556, Note_on_c, 0, 74, 0
2, 376560, Note_on_c, 0, 72, 112
2, 376604, Note_on_c, 0, 72, 0
2, 376604, Note_on_c, 0, 63, 0
2, 376604, Note_on_c, 0, 66, 0
2, 376608, Note_on_c, 0, 74, 112
2, 376652, Note_on_c, 0, 74, 0
2, 376656, Note_on_c, 0, 72, 112
2, 376700, Note_on_c, 0, 72, 0
2, 376704, Note_on_c, 0, 67, 119
2, 376704, Note_on_c, 0, 64, 119
2, 376704, Note_on_c, 0, 74, 112
2, 376748, Note_on_c, 0, 74, 0
2, 376752, Note_on_c, 0, 72, 112
2, 376796, Note_on_c, 0, 72, 0
2, 376796, Note_on_c, 0, 64, 0
2, 376796, Note_on_c, 0, 67, 0
2, 376800, Note_on_c, 0, 74, 112
2, 376844, Note_on_c, 0, 74, 0
2, 376848, Note_on_c, 0, 72, 112
2, 376892, Note_on_c, 0, 72, 0
2, 376896, Note_on_c, 0, 68, 123
2, 376896, Note_on_c, 0, 65, 123
2, 376896, Note_on_c, 0, 74, 112
2, 376940, Note_on_c, 0, 74, 0
2, 376944, Note_on_c, 0, 72, 112
2, 376988, Note_on_c, 0, 72, 0
2, 376988, Note_on_c, 0, 65, 0
2, 376988, Note_on_c, 0, 68, 0
2, 376992, Note_on_c, 0, 74, 112
2, 377036, Note_on_c, 0, 74, 0
2, 377040, Note_on_c, 0, 72, 112
2, 377084, Note_on_c, 0, 72, 0
2, 377088, Note_on_c, 0, 70, 119
2, 377088, Note_on_c, 0, 67, 119
2, 377088, Note_on_c, 0, 86, 112
2, 377132, Note_on_c, 0, 86, 0
2, 377136, Note_on_c, 0, 84, 112
2, 377180, Note_on_c, 0, 84, 0
2, 377184, Note_on_c, 0, 86, 112
2, 377228, Note_on_c, 0, 86, 0
2, 377232, Note_on_c, 0, 84, 112
2, 377276, Note_on_c, 0, 84, 0
2, 377276, Note_on_c, 0, 67, 0
2, 377276, Note_on_c, 0, 70, 0
2, 377280, Note_on_c, 0, 68, 116
2, 377280, Note_on_c, 0, 65, 116
2, 377280, Note_on_c, 0, 86, 112
2, 377324, Note_on_c, 0, 86, 0
2, 377328, Note_on_c, 0, 84, 112
2, 377372, Note_on_c, 0, 84, 0
2, 377376, Note_on_c, 0, 86, 112
2, 377420, Note_on_c, 0, 86, 0
2, 377424, Note_on_c, 0, 84, 112
2, 377468, Note_on_c, 0, 84, 0
2, 377468, Note_on_c, 0, 65, 0
2, 377468, Note_on_c, 0, 68, 0
2, 377472, Note_on_c, 0, 65, 112
2, 377472, Note_on_c, 0, 68, 112
2, 377472, Note_on_c, 0, 86, 112
2, 377516, Note_on_c, 0, 86, 0
2, 377520, Note_on_c, 0, 84, 112
2, 377564, Note_on_c, 0, 84, 0
2, 377564, Note_on_c, 0, 68, 0
2, 377564, Note_on_c, 0, 65, 0
2, 377568, Note_on_c, 0, 86, 112
2, 377612, Note_on_c, 0, 86, 0
2, 377616, Note_on_c, 0, 84, 112
2, 377660, Note_on_c, 0, 84, 0
2, 377664, Note_on_c, 0, 86, 112
2, 377708, Note_on_c, 0, 86, 0
2, 377712, Note_on_c, 0, 84, 112
2, 377756, Note_on_c, 0, 84, 0
2, 377760, Note_on_c, 0, 86, 112
2, 377804, Note_on_c, 0, 86, 0
2, 377808, Note_on_c, 0, 84, 112
2, 377852, Note_on_c, 0, 84, 0
2, 377856, Note_on_c, 0, 86, 116
2, 377856, Note_on_c, 0, 84, 116
2, 377856, Note_on_c, 0, 74, 112
2, 377900, Note_on_c, 0, 74, 0
2, 377904, Note_on_c, 0, 72, 112
2, 377948, Note_on_c, 0, 72, 0
2, 377948, Note_on_c, 0, 84, 0
2, 377948, Note_on_c, 0, 86, 0
2, 377952, Note_on_c, 0, 74, 112
2, 377996, Note_on_c, 0, 74, 0
2, 378000, Note_on_c, 0, 72, 112
2, 378044, Note_on_c, 0, 72, 0
2, 378048, Note_on_c, 0, 74, 112
2, 378092, Note_on_c, 0, 74, 0
2, 378096, Note_on_c, 0, 72, 112
2, 378140, Note_on_c, 0, 72, 0
2, 378144, Note_on_c, 0, 74, 112
2, 378188, Note_on_c, 0, 74, 0
2, 378192, Note_on_c, 0, 72, 112
2, 378236, Note_on_c, 0, 72, 0
2, 378240, Note_on_c, 0, 74, 112
2, 378284, Note_on_c, 0, 74, 0
2, 378288, Note_on_c, 0, 72, 112
2, 378332, Note_on_c, 0, 72, 0
2, 378336, Note_on_c, 0, 74, 112
2, 378380, Note_on_c, 0, 74, 0
2, 378384, Note_on_c, 0, 72, 112
2, 378428, Note_on_c, 0, 72, 0
2, 378432, Note_on_c, 0, 74, 112
2, 378476, Note_on_c, 0, 74, 0
2, 378480, Note_on_c, 0, 72, 112
2, 378524, Note_on_c, 0, 72, 0
2, 378528, Note_on_c, 0, 74, 112
2, 378572, Note_on_c, 0, 74, 0
2, 378576, Note_on_c, 0, 72, 112
2, 378620, Note_on_c, 0, 72, 0
2, 378624, Note_on_c, 0, 62, 112
2, 378668, Note_on_c, 0, 62, 0
2, 378672, Note_on_c, 0, 60, 112
2, 378716, Note_on_c, 0, 60, 0
2, 378720, Note_on_c, 0, 62, 112
2, 378764, Note_on_c, 0, 62, 0
2, 378768, Note_on_c, 0, 60, 112
2, 378812, Note_on_c, 0, 60, 0
2, 378816, Note_on_c, 0, 62, 112
2, 378860, Note_on_c, 0, 62, 0
2, 378864, Note_on_c, 0, 60, 112
2, 378908, Note_on_c, 0, 60, 0
2, 378912, Note_on_c, 0, 62, 112
2, 378956, Note_on_c, 0, 62, 0
2, 378960, Note_on_c, 0, 60, 112
2, 379004, Note_on_c, 0, 60, 0
2, 379008, Note_on_c, 0, 62, 112
2, 379052, Note_on_c, 0, 62, 0
2, 379056, Note_on_c, 0, 60, 112
2, 379100, Note_on_c, 0, 60, 0
2, 379104, Note_on_c, 0, 62, 112
2, 379136, Note_on_c, 0, 60, 112
2, 379148, Note_on_c, 0, 62, 0
2, 379180, Note_on_c, 0, 60, 0
2, 379200, Note_on_c, 0, 61, 112
2, 379292, Note_on_c, 0, 61, 0
2, 379296, Note_on_c, 0, 62, 112
2, 379388, Note_on_c, 0, 62, 0
2, 379392, Note_on_c, 0, 64, 112
2, 379484, Note_on_c, 0, 64, 0
2, 379488, Note_on_c, 0, 65, 112
2, 379580, Note_on_c, 0, 65, 0
2, 379584, Note_on_c, 0, 67, 112
2, 379676, Note_on_c, 0, 67, 0
2, 379680, Note_on_c, 0, 69, 112
2, 379772, Note_on_c, 0, 69, 0
2, 379776, Note_on_c, 0, 71, 112
2, 379868, Note_on_c, 0, 71, 0
2, 379872, Note_on_c, 0, 72, 112
2, 379964, Note_on_c, 0, 72, 0
2, 379968, Note_on_c, 0, 74, 112
2, 380060, Note_on_c, 0, 74, 0
2, 380064, Note_on_c, 0, 76, 112
2, 380156, Note_on_c, 0, 76, 0
2, 380160, Note_on_c, 0, 74, 113
2, 380204, Note_on_c, 0, 74, 0
2, 380208, Note_on_c, 0, 72, 113
2, 380252, Note_on_c, 0, 72, 0
2, 380256, Note_on_c, 0, 74, 113
2, 380300, Note_on_c, 0, 74, 0
2, 380304, Note_on_c, 0, 72, 113
2, 380348, Note_on_c, 0, 72, 0
2, 380352, Note_on_c, 0, 74, 113
2, 380396, Note_on_c, 0, 74, 0
2, 380400, Note_on_c, 0, 72, 113
2, 380444, Note_on_c, 0, 72, 0
2, 380448, Note_on_c, 0, 74, 113
2, 380492, Note_on_c, 0, 74, 0
2, 380496, Note_on_c, 0, 72, 116
2, 380540, Note_on_c, 0, 72, 0
2, 380544, Note_on_c, 0, 74, 116
2, 380588, Note_on_c, 0, 74, 0
2, 380592, Note_on_c, 0, 72, 116
2, 380636, Note_on_c, 0, 72, 0
2, 380640, Note_on_c, 0, 74, 116
2, 380684, Note_on_c, 0, 74, 0
2, 380688, Note_on_c, 0, 72, 116
2, 380732, Note_on_c, 0, 72, 0
2, 380736, Note_on_c, 0, 73, 116
2, 380828, Note_on_c, 0, 73, 0
2, 380832, Note_on_c, 0, 74, 117
2, 380924, Note_on_c, 0, 74, 0
2, 380928, Note_on_c, 0, 76, 117
2, 381020, Note_on_c, 0, 76, 0
2, 381024, Note_on_c, 0, 77, 117
2, 381116, Note_on_c, 0, 77, 0
2, 381120, Note_on_c, 0, 79, 119
2, 381212, Note_on_c, 0, 79, 0
2, 381216, Note_on_c, 0, 81, 119
2, 381308, Note_on_c, 0, 81, 0
2, 381312, Note_on_c, 0, 83, 119
2, 381404, Note_on_c, 0, 83, 0
2, 381408, Note_on_c, 0, 84, 120
2, 381500, Note_on_c, 0, 84, 0
2, 381504, Note_on_c, 0, 86, 120
2, 381596, Note_on_c, 0, 86, 0
2, 381600, Note_on_c, 0, 88, 120
2, 381692, Note_on_c, 0, 88, 0
2, 381696, Note_on_c, 0, 77, 127
2, 381696, Note_on_c, 0, 81, 127
2, 381696, Note_on_c, 0, 86, 123
2, 381740, Note_on_c, 0, 86, 0
2, 381744, Note_on_c, 0, 84, 123
2, 381788, Note_on_c, 0, 84, 0
2, 381792, Note_on_c, 0, 86, 123
2, 381836, Note_on_c, 0, 86, 0
2, 381840, Note_on_c, 0, 84, 123
2, 381884, Note_on_c, 0, 84, 0
2, 381888, Note_on_c, 0, 86, 123
2, 381932, Note_on_c, 0, 86, 0
2, 381936, Note_on_c, 0, 84, 123
2, 381980, Note_on_c, 0, 84, 0
2, 381984, Note_on_c, 0, 86, 123
2, 382028, Note_on_c, 0, 86, 0
2, 382032, Note_on_c, 0, 84, 123
2, 382076, Note_on_c, 0, 84, 0
2, 382080, Note_on_c, 0, 86, 123
2, 382124, Note_on_c, 0, 86, 0
2, 382128, Note_on_c, 0, 84, 123
2, 382172, Note_on_c, 0, 84, 0
2, 382176, Note_on_c, 0, 86, 123
2, 382220, Note_on_c, 0, 86, 0
2, 382224, Note_on_c, 0, 84, 123
2, 382268, Note_on_c, 0, 84, 0
2, 382272, Note_on_c, 0, 86, 123
2, 382316, Note_on_c, 0, 86, 0
2, 382320, Note_on_c, 0, 84, 123
2, 382364, Note_on_c, 0, 84, 0
2, 382368, Note_on_c, 0, 86, 123
2, 382412, Note_on_c, 0, 86, 0
2, 382416, Note_on_c, 0, 84, 123
2, 382460, Note_on_c, 0, 84, 0
2, 382464, Note_on_c, 0, 67, 127
2, 382464, Note_on_c, 0, 86, 123
2, 382508, Note_on_c, 0, 86, 0
2, 382512, Note_on_c, 0, 84, 123
2, 382556, Note_on_c, 0, 84, 0
2, 382560, Note_on_c, 0, 86, 123
2, 382604, Note_on_c, 0, 86, 0
2, 382608, Note_on_c, 0, 84, 123
2, 382652, Note_on_c, 0, 84, 0
2, 382652, Note_on_c, 0, 67, 0
2, 382656, Note_on_c, 0, 86, 123
2, 382700, Note_on_c, 0, 86, 0
2, 382704, Note_on_c, 0, 84, 123
2, 382748, Note_on_c, 0, 84, 0
2, 382752, Note_on_c, 0, 86, 123
2, 382796, Note_on_c, 0, 86, 0
2, 382800, Note_on_c, 0, 84, 123
2, 382844, Note_on_c, 0, 84, 0
2, 382848, Note_on_c, 0, 86, 123
2, 382892, Note_on_c, 0, 86, 0
2, 382896, Note_on_c, 0, 84, 123
2, 382940, Note_on_c, 0, 84, 0
2, 382944, Note_on_c, 0, 86, 123
2, 382988, Note_on_c, 0, 86, 0
2, 382992, Note_on_c, 0, 84, 123
2, 383036, Note_on_c, 0, 84, 0
2, 383040, Note_on_c, 0, 86, 123
2, 383084, Note_on_c, 0, 86, 0
2, 383088, Note_on_c, 0, 84, 123
2, 383132, Note_on_c, 0, 84, 0
2, 383136, Note_on_c, 0, 86, 123
2, 383180, Note_on_c, 0, 86, 0
2, 383184, Note_on_c, 0, 84, 123
2, 383228, Note_on_c, 0, 84, 0
2, 383232, Note_on_c, 0, 55, 127
2, 383232, Note_on_c, 0, 86, 123
2, 383276, Note_on_c, 0, 86, 0
2, 383280, Note_on_c, 0, 84, 123
2, 383324, Note_on_c, 0, 84, 0
2, 383328, Note_on_c, 0, 86, 123
2, 383372, Note_on_c, 0, 86, 0
2, 383376, Note_on_c, 0, 84, 123
2, 383420, Note_on_c, 0, 84, 0
2, 383420, Note_on_c, 0, 55, 0
2, 383424, Note_on_c, 0, 86, 123
2, 383468, Note_on_c, 0, 86, 0
2, 383472, Note_on_c, 0, 84, 123
2, 383516, Note_on_c, 0, 84, 0
2, 383520, Note_on_c, 0, 86, 123
2, 383564, Note_on_c, 0, 86, 0
2, 383568, Note_on_c, 0, 84, 123
2, 383612, Note_on_c, 0, 84, 0
2, 383616, Note_on_c, 0, 86, 123
2, 383660, Note_on_c, 0, 86, 0
2, 383664, Note_on_c, 0, 84, 123
2, 383708, Note_on_c, 0, 84, 0
2, 383712, Note_on_c, 0, 86, 123
2, 383756, Note_on_c, 0, 86, 0
2, 383760, Note_on_c, 0, 84, 123
2, 383804, Note_on_c, 0, 84, 0
2, 383808, Note_on_c, 0, 86, 123
2, 383852, Note_on_c, 0, 86, 0
2, 383856, Note_on_c, 0, 84, 123
2, 383900, Note_on_c, 0, 84, 0
2, 383904, Note_on_c, 0, 86, 123
2, 383948, Note_on_c, 0, 86, 0
2, 383952, Note_on_c, 0, 84, 123
2, 383996, Note_on_c, 0, 84, 0
2, 383996, Note_on_c, 0, 81, 0
2, 383996, Note_on_c, 0, 77, 0
2, 384000, Note_on_c, 0, 83, 127
2, 384000, Note_on_c, 0, 77, 127
2, 384000, Note_on_c, 0, 86, 123
2, 384044, Note_on_c, 0, 86, 0
2, 384048, Note_on_c, 0, 88, 123
2, 384092, Note_on_c, 0, 88, 0
2, 384096, Note_on_c, 0, 86, 123
2, 384140, Note_on_c, 0, 86, 0
2, 384144, Note_on_c, 0, 88, 123
2, 384188, Note_on_c, 0, 88, 0
2, 384192, Note_on_c, 0, 86, 123
2, 384236, Note_on_c, 0, 86, 0
2, 384240, Note_on_c, 0, 88, 123
2, 384284, Note_on_c, 0, 88, 0
2, 384288, Note_on_c, 0, 86, 123
2, 384332, Note_on_c, 0, 86, 0
2, 384336, Note_on_c, 0, 88, 123
2, 384380, Note_on_c, 0, 88, 0
2, 384384, Note_on_c, 0, 86, 123
2, 384428, Note_on_c, 0, 86, 0
2, 384432, Note_on_c, 0, 88, 123
2, 384476, Note_on_c, 0, 88, 0
2, 384480, Note_on_c, 0, 86, 123
2, 384524, Note_on_c, 0, 86, 0
2, 384528, Note_on_c, 0, 88, 123
2, 384572, Note_on_c, 0, 88, 0
2, 384576, Note_on_c, 0, 84, 123
2, 384668, Note_on_c, 0, 84, 0
2, 384672, Note_on_c, 0, 86, 123
2, 384764, Note_on_c, 0, 86, 0
2, 384764, Note_on_c, 0, 77, 0
2, 384764, Note_on_c, 0, 83, 0
2, 384768, Note_on_c, 0, 84, 123
2, 384768, Note_on_c, 0, 76, 123
2, 385148, Note_on_c, 0, 76, 0
2, 385148, Note_on_c, 0, 84, 0
2, 385536, Note_on_c, 0, 76, 89
2, 385536, Note_on_c, 0, 64, 89
2, 385628, Note_on_c, 0, 64, 0
2, 385628, Note_on_c, 0, 76, 0
2, 385728, Note_on_c, 0, 77, 89
2, 385728, Note_on_c, 0, 65, 89
2, 385820, Note_on_c, 0, 65, 0
2, 385820, Note_on_c, 0, 77, 0
2, 385920, Note_on_c, 0, 78, 89
2, 385920, Note_on_c, 0, 66, 89
2, 386012, Note_on_c, 0, 66, 0
2, 386012, Note_on_c, 0, 78, 0
2, 386112, Note_on_c, 0, 79, 89
2, 386112, Note_on_c, 0, 67, 89
2, 386204, Note_on_c, 0, 67, 0
2, 386204, Note_on_c, 0, 79, 0
2, 386304, Note_on_c, 0, 81, 89
2, 386304, Note_on_c, 0, 69, 89
2, 386492, Note_on_c, 0, 69, 0
2, 386492, Note_on_c, 0, 81, 0
2, 386496, Note_on_c, 0, 79, 89
2, 386496, Note_on_c, 0, 67, 89
2, 386684, Note_on_c, 0, 67, 0
2, 386684, Note_on_c, 0, 79, 0
2, 386688, Note_on_c, 0, 77, 89
2, 386688, Note_on_c, 0, 65, 89
2, 386780, Note_on_c, 0, 65, 0
2, 386780, Note_on_c, 0, 77, 0
2, 386880, Note_on_c, 0, 76, 89
2, 386880, Note_on_c, 0, 64, 89
2, 386972, Note_on_c, 0, 64, 0
2, 386972, Note_on_c, 0, 76, 0
2, 387072, Note_on_c, 0, 74, 89
2, 387072, Note_on_c, 0, 62, 89
2, 387216, Note_on_c, 0, 76, 89
2, 387216, Note_on_c, 0, 64, 89
2, 387260, Note_on_c, 0, 64, 0
2, 387260, Note_on_c, 0, 74, 0
2, 387260, Note_on_c, 0, 62, 0
2, 387260, Note_on_c, 0, 76, 0
2, 387264, Note_on_c, 0, 74, 89
2, 387264, Note_on_c, 0, 62, 89
2, 387356, Note_on_c, 0, 62, 0
2, 387356, Note_on_c, 0, 74, 0
2, 387360, Note_on_c, 0, 72, 89
2, 387360, Note_on_c, 0, 60, 89
2, 387452, Note_on_c, 0, 60, 0
2, 387452, Note_on_c, 0, 72, 0
2, 387456, Note_on_c, 0, 74, 89
2, 387456, Note_on_c, 0, 62, 89
2, 387644, Note_on_c, 0, 62, 0
2, 387644, Note_on_c, 0, 74, 0
2, 387648, Note_on_c, 0, 62, 89
2, 387648, Note_on_c, 0, 74, 89
2, 387740, Note_on_c, 0, 74, 0
2, 387740, Note_on_c, 0, 62, 0
2, 387840, Note_on_c, 0, 74, 89
2, 387840, Note_on_c, 0, 62, 89
2, 388028, Note_on_c, 0, 62, 0
2, 388028, Note_on_c, 0, 74, 0
2, 388032, Note_on_c, 0, 75, 89
2, 388032, Note_on_c, 0, 63, 89
2, 388220, Note_on_c, 0, 63, 0
2, 388220, Note_on_c, 0, 75, 0
2, 388224, Note_on_c, 0, 76, 89
2, 388224, Note_on_c, 0, 64, 89
2, 388412, Note_on_c, 0, 64, 0
2, 388412, Note_on_c, 0, 76, 0
2, 388416, Note_on_c, 0, 72, 89
2, 388416, Note_on_c, 0, 60, 89
2, 388508, Note_on_c, 0, 60, 0
2, 388508, Note_on_c, 0, 72, 0
2, 388608, Note_on_c, 0, 76, 89
2, 388608, Note_on_c, 0, 64, 89
2, 388700, Note_on_c, 0, 64, 0
2, 388700, Note_on_c, 0, 76, 0
2, 388800, Note_on_c, 0, 77, 89
2, 388800, Note_on_c, 0, 65, 89
2, 388892, Note_on_c, 0, 65, 0
2, 388892, Note_on_c, 0, 77, 0
2, 388992, Note_on_c, 0, 78, 89
2, 388992, Note_on_c, 0, 66, 89
2, 389084, Note_on_c, 0, 66, 0
2, 389084, Note_on_c, 0, 78, 0
2, 389184, Note_on_c, 0, 79, 89
2, 389184, Note_on_c, 0, 67, 89
2, 389276, Note_on_c, 0, 67, 0
2, 389276, Note_on_c, 0, 79, 0
2, 389376, Note_on_c, 0, 81, 89
2, 389376, Note_on_c, 0, 69, 89
2, 389564, Note_on_c, 0, 69, 0
2, 389564, Note_on_c, 0, 81, 0
2, 389568, Note_on_c, 0, 79, 89
2, 389568, Note_on_c, 0, 67, 89
2, 389756, Note_on_c, 0, 67, 0
2, 389756, Note_on_c, 0, 79, 0
2, 389760, Note_on_c, 0, 77, 89
2, 389760, Note_on_c, 0, 65, 89
2, 389852, Note_on_c, 0, 65, 0
2, 389852, Note_on_c, 0, 77, 0
2, 389952, Note_on_c, 0, 76, 89
2, 389952, Note_on_c, 0, 64, 89
2, 390044, Note_on_c, 0, 64, 0
2, 390044, Note_on_c, 0, 76, 0
2, 390144, Note_on_c, 0, 74, 89
2, 390144, Note_on_c, 0, 62, 89
2, 390288, Note_on_c, 0, 76, 89
2, 390288, Note_on_c, 0, 64, 89
2, 390332, Note_on_c, 0, 64, 0
2, 390332, Note_on_c, 0, 74, 0
2, 390332, Note_on_c, 0, 62, 0
2, 390332, Note_on_c, 0, 76, 0
2, 390336, Note_on_c, 0, 74, 89
2, 390336, Note_on_c, 0, 62, 89
2, 390428, Note_on_c, 0, 62, 0
2, 390428, Note_on_c, 0, 74, 0
2, 390432, Note_on_c, 0, 72, 89
2, 390432, Note_on_c, 0, 60, 89
2, 390524, Note_on_c, 0, 60, 0
2, 390524, Note_on_c, 0, 72, 0
2, 390528, Note_on_c, 0, 74, 89
2, 390528, Note_on_c, 0, 62, 89
2, 390716, Note_on_c, 0, 62, 0
2, 390716, Note_on_c, 0, 74, 0
2, 390720, Note_on_c, 0, 76, 89
2, 390720, Note_on_c, 0, 64, 89
2, 390812, Note_on_c, 0, 64, 0
2, 390812, Note_on_c, 0, 76, 0
2, 390912, Note_on_c, 0, 60, 103
2, 390912, Note_on_c, 0, 72, 103
2, 391004, Note_on_c, 0, 72, 0
2, 391008, Note_on_c, 0, 76, 103
2, 391100, Note_on_c, 0, 76, 0
2, 391104, Note_on_c, 0, 79, 103
2, 391196, Note_on_c, 0, 79, 0
2, 391200, Note_on_c, 0, 76, 103
2, 391292, Note_on_c, 0, 76, 0
2, 391292, Note_on_c, 0, 60, 0
2, 391296, Note_on_c, 0, 72, 103
2, 391388, Note_on_c, 0, 72, 0
2, 391392, Note_on_c, 0, 76, 103
2, 391484, Note_on_c, 0, 76, 0
2, 391488, Note_on_c, 0, 67, 103
2, 391580, Note_on_c, 0, 67, 0
2, 391584, Note_on_c, 0, 72, 103
2, 391676, Note_on_c, 0, 72, 0
2, 391680, Note_on_c, 0, 64, 103
2, 391772, Note_on_c, 0, 64, 0
2, 391776, Note_on_c, 0, 67, 103
2, 391868, Note_on_c, 0, 67, 0
2, 391872, Note_on_c, 0, 72, 103
2, 391964, Note_on_c, 0, 72, 0
2, 391968, Note_on_c, 0, 67, 103
2, 392060, Note_on_c, 0, 67, 0
2, 392064, Note_on_c, 0, 64, 103
2, 392156, Note_on_c, 0, 64, 0
2, 392160, Note_on_c, 0, 67, 103
2, 392252, Note_on_c, 0, 67, 0
2, 392256, Note_on_c, 0, 60, 103
2, 392348, Note_on_c, 0, 60, 0
2, 392352, Note_on_c, 0, 64, 103
2, 392444, Note_on_c, 0, 64, 0
2, 392448, Note_on_c, 0, 55, 103
2, 392540, Note_on_c, 0, 55, 0
2, 392544, Note_on_c, 0, 60, 103
2, 392624, Note_on_c, 0, 64, 103
2, 392636, Note_on_c, 0, 60, 0
2, 392716, Note_on_c, 0, 64, 0
2, 392736, Note_on_c, 0, 60, 103
2, 392828, Note_on_c, 0, 60, 0
2, 392832, Note_on_c, 0, 67, 103
2, 392924, Note_on_c, 0, 67, 0
2, 392928, Note_on_c, 0, 64, 103
2, 393020, Note_on_c, 0, 64, 0
2, 393024, Note_on_c, 0, 60, 103
2, 393116, Note_on_c, 0, 60, 0
2, 393120, Note_on_c, 0, 64, 103
2, 393212, Note_on_c, 0, 64, 0
2, 393216, Note_on_c, 0, 55, 103
2, 393308, Note_on_c, 0, 55, 0
2, 393312, Note_on_c, 0, 62, 103
2, 393404, Note_on_c, 0, 62, 0
2, 393408, Note_on_c, 0, 65, 103
2, 393500, Note_on_c, 0, 65, 0
2, 393504, Note_on_c, 0, 62, 103
2, 393596, Note_on_c, 0, 62, 0
2, 393600, Note_on_c, 0, 67, 103
2, 393692, Note_on_c, 0, 67, 0
2, 393696, Note_on_c, 0, 65, 103
2, 393788, Note_on_c, 0, 65, 0
2, 393792, Note_on_c, 0, 62, 103
2, 393884, Note_on_c, 0, 62, 0
2, 393888, Note_on_c, 0, 65, 103
2, 393980, Note_on_c, 0, 65, 0
2, 393984, Note_on_c, 0, 67, 103
2, 394076, Note_on_c, 0, 67, 0
2, 394080, Note_on_c, 0, 65, 103
2, 394172, Note_on_c, 0, 65, 0
2, 394176, Note_on_c, 0, 62, 103
2, 394268, Note_on_c, 0, 62, 0
2, 394272, Note_on_c, 0, 65, 103
2, 394364, Note_on_c, 0, 65, 0
2, 394368, Note_on_c, 0, 64, 103
2, 394460, Note_on_c, 0, 64, 0
2, 394464, Note_on_c, 0, 67, 103
2, 394556, Note_on_c, 0, 67, 0
2, 394560, Note_on_c, 0, 72, 103
2, 394652, Note_on_c, 0, 72, 0
2, 394656, Note_on_c, 0, 67, 103
2, 394748, Note_on_c, 0, 67, 0
2, 394752, Note_on_c, 0, 64, 103
2, 394844, Note_on_c, 0, 64, 0
2, 394848, Note_on_c, 0, 67, 103
2, 394940, Note_on_c, 0, 67, 0
2, 394944, Note_on_c, 0, 72, 103
2, 395036, Note_on_c, 0, 72, 0
2, 395040, Note_on_c, 0, 67, 103
2, 395132, Note_on_c, 0, 67, 0
2, 395136, Note_on_c, 0, 64, 103
2, 395228, Note_on_c, 0, 64, 0
2, 395232, Note_on_c, 0, 67, 103
2, 395324, Note_on_c, 0, 67, 0
2, 395328, Note_on_c, 0, 60, 103
2, 395420, Note_on_c, 0, 60, 0
2, 395424, Note_on_c, 0, 64, 103
2, 395516, Note_on_c, 0, 64, 0
2, 398592, Note_on_c, 0, 60, 112
2, 398592, Note_on_c, 0, 48, 112
2, 398684, Note_on_c, 0, 48, 0
2, 398684, Note_on_c, 0, 60, 0
2, 398688, Note_on_c, 0, 62, 112
2, 398688, Note_on_c, 0, 50, 112
2, 398780, Note_on_c, 0, 50, 0
2, 398780, Note_on_c, 0, 62, 0
2, 398784, Note_on_c, 0, 64, 112
2, 398784, Note_on_c, 0, 52, 112
2, 398876, Note_on_c, 0, 52, 0
2, 398876, Note_on_c, 0, 64, 0
2, 398880, Note_on_c, 0, 65, 112
2, 398880, Note_on_c, 0, 53, 112
2, 398972, Note_on_c, 0, 53, 0
2, 398972, Note_on_c, 0, 65, 0
2, 398976, Note_on_c, 0, 67, 112
2, 398976, Note_on_c, 0, 55, 112
2, 399068, Note_on_c, 0, 55, 0
2, 399068, Note_on_c, 0, 67, 0
2, 399072, Note_on_c, 0, 69, 112
2, 399072, Note_on_c, 0, 57, 112
2, 399164, Note_on_c, 0, 57, 0
2, 399164, Note_on_c, 0, 69, 0
2, 399168, Note_on_c, 0, 71, 112
2, 399168, Note_on_c, 0, 59, 112
2, 399260, Note_on_c, 0, 59, 0
2, 399260, Note_on_c, 0, 71, 0
2, 399264, Note_on_c, 0, 72, 112
2, 399264, Note_on_c, 0, 60, 112
2, 399356, Note_on_c, 0, 60, 0
2, 399356, Note_on_c, 0, 72, 0
2, 399360, Note_on_c, 0, 67, 112
2, 399360, Note_on_c, 0, 55, 112
2, 399452, Note_on_c, 0, 55, 0
2, 399452, Note_on_c, 0, 67, 0
2, 399456, Note_on_c, 0, 69, 112
2, 399456, Note_on_c, 0, 57, 112
2, 399548, Note_on_c, 0, 57, 0
2, 399548, Note_on_c, 0, 69, 0
2, 399552, Note_on_c, 0, 71, 112
2, 399552, Note_on_c, 0, 59, 112
2, 399644, Note_on_c, 0, 59, 0
2, 399644, Note_on_c, 0, 71, 0
2, 399648, Note_on_c, 0, 72, 112
2, 399648, Note_on_c, 0, 60, 112
2, 399740, Note_on_c, 0, 60, 0
2, 399740, Note_on_c, 0, 72, 0
2, 399744, Note_on_c, 0, 74, 112
2, 399744, Note_on_c, 0, 62, 112
2, 399836, Note_on_c, 0, 62, 0
2, 399836, Note_on_c, 0, 74, 0
2, 399840, Note_on_c, 0, 76, 112
2, 399840, Note_on_c, 0, 64, 112
2, 399932, Note_on_c, 0, 64, 0
2, 399932, Note_on_c, 0, 76, 0
2, 399936, Note_on_c, 0, 77, 112
2, 399936, Note_on_c, 0, 65, 112
2, 400028, Note_on_c, 0, 65, 0
2, 400028, Note_on_c, 0, 77, 0
2, 400032, Note_on_c, 0, 79, 112
2, 400032, Note_on_c, 0, 67, 112
2, 400124, Note_on_c, 0, 67, 0
2, 400124, Note_on_c, 0, 79, 0
2, 400128, Note_on_c, 0, 72, 112
2, 400128, Note_on_c, 0, 60, 112
2, 400220, Note_on_c, 0, 60, 0
2, 400220, Note_on_c, 0, 72, 0
2, 400224, Note_on_c, 0, 74, 112
2, 400224, Note_on_c, 0, 62, 112
2, 400316, Note_on_c, 0, 62, 0
2, 400316, Note_on_c, 0, 74, 0
2, 400320, Note_on_c, 0, 76, 112
2, 400320, Note_on_c, 0, 64, 112
2, 400412, Note_on_c, 0, 64, 0
2, 400412, Note_on_c, 0, 76, 0
2, 400416, Note_on_c, 0, 77, 112
2, 400416, Note_on_c, 0, 65, 112
2, 400508, Note_on_c, 0, 65, 0
2, 400508, Note_on_c, 0, 77, 0
2, 400512, Note_on_c, 0, 79, 112
2, 400512, Note_on_c, 0, 67, 112
2, 400604, Note_on_c, 0, 67, 0
2, 400604, Note_on_c, 0, 79, 0
2, 400608, Note_on_c, 0, 81, 112
2, 400608, Note_on_c, 0, 69, 112
2, 400700, Note_on_c, 0, 69, 0
2, 400700, Note_on_c, 0, 81, 0
2, 400704, Note_on_c, 0, 83, 112
2, 400704, Note_on_c, 0, 71, 112
2, 400796, Note_on_c, 0, 71, 0
2, 400796, Note_on_c, 0, 83, 0
2, 400800, Note_on_c, 0, 84, 112
2, 400800, Note_on_c, 0, 72, 112
2, 400892, Note_on_c, 0, 72, 0
2, 400892, Note_on_c, 0, 84, 0
2, 400896, Note_on_c, 0, 79, 119
2, 400896, Note_on_c, 0, 67, 119
2, 400896, Note_on_c, 0, 83, 119
2, 400896, Note_on_c, 0, 71, 119
2, 401276, Note_on_c, 0, 71, 0
2, 401276, Note_on_c, 0, 79, 0
2, 401276, Note_on_c, 0, 67, 0
2, 401276, Note_on_c, 0, 83, 0
2, 401280, Note_on_c, 0, 83, 119
2, 401280, Note_on_c, 0, 79, 119
2, 401280, Note_on_c, 0, 71, 119
2, 401280, Note_on_c, 0, 67, 119
2, 401660, Note_on_c, 0, 67, 0
2, 401660, Note_on_c, 0, 83, 0
2, 401660, Note_on_c, 0, 79, 0
2, 401660, Note_on_c, 0, 71, 0
2, 401664, Note_on_c, 0, 84, 119
2, 401664, Note_on_c, 0, 79, 119
2, 401664, Note_on_c, 0, 76, 119
2, 401664, Note_on_c, 0, 72, 119
2, 402044, Note_on_c, 0, 72, 0
2, 402044, Note_on_c, 0, 84, 0
2, 402044, Note_on_c, 0, 79, 0
2, 402044, Note_on_c, 0, 76, 0
2, 402044, End_track
3, 0, Start_track
3, 0, Title_t, "K467c - #21"
3, 0, Control_c, 0, 0, 0
3, 0, Control_c, 0, 7, 110
3, 0, Control_c, 0, 10, 38
3, 0, Control_c, 0, 91, 63
3, 0, Control_c, 0, 93, 38
3, 0, Control_c, 0, 121, 0
3, 0, Control_c, 0, 32, 0
3, 1, Program_c, 0, 0
3, 392, Control_c, 0, 10, 83
3, 480, Control_c, 0, 91, 63
3, 576, Control_c, 0, 93, 40
3, 672, Program_c, 0, 0
3, 21504, Note_on_c, 0, 55, 112
3, 21504, Note_on_c, 0, 43, 112
3, 21884, Note_on_c, 0, 43, 0
3, 21884, Note_on_c, 0, 55, 0
3, 22272, Note_on_c, 0, 55, 112
3, 22364, Note_on_c, 0, 55, 0
3, 22464, Note_on_c, 0, 57, 112
3, 22524, Note_on_c, 0, 57, 0
3, 22528, Note_on_c, 0, 55, 112
3, 22588, Note_on_c, 0, 55, 0
3, 22592, Note_on_c, 0, 54, 112
3, 22652, Note_on_c, 0, 54, 0
3, 22656, Note_on_c, 0, 55, 112
3, 22748, Note_on_c, 0, 55, 0
3, 22848, Note_on_c, 0, 57, 112
3, 22940, Note_on_c, 0, 57, 0
3, 23040, Note_on_c, 0, 59, 112
3, 23132, Note_on_c, 0, 59, 0
3, 23232, Note_on_c, 0, 60, 112
3, 23292, Note_on_c, 0, 60, 0
3, 23296, Note_on_c, 0, 59, 112
3, 23356, Note_on_c, 0, 59, 0
3, 23360, Note_on_c, 0, 57, 112
3, 23420, Note_on_c, 0, 57, 0
3, 23424, Note_on_c, 0, 59, 112
3, 23516, Note_on_c, 0, 59, 0
3, 23616, Note_on_c, 0, 60, 112
3, 23708, Note_on_c, 0, 60, 0
3, 28416, Note_on_c, 0, 60, 89
3, 28508, Note_on_c, 0, 60, 0
3, 28608, Note_on_c, 0, 62, 89
3, 28700, Note_on_c, 0, 62, 0
3, 28800, Note_on_c, 0, 63, 89
3, 28892, Note_on_c, 0, 63, 0
3, 28992, Note_on_c, 0, 64, 89
3, 29084, Note_on_c, 0, 64, 0
3, 29184, Note_on_c, 0, 65, 89
3, 29372, Note_on_c, 0, 65, 0
3, 29376, Note_on_c, 0, 64, 89
3, 29564, Note_on_c, 0, 64, 0
3, 29568, Note_on_c, 0, 62, 89
3, 29660, Note_on_c, 0, 62, 0
3, 29760, Note_on_c, 0, 60, 89
3, 29852, Note_on_c, 0, 60, 0
3, 29952, Note_on_c, 0, 59, 89
3, 30096, Note_on_c, 0, 60, 89
3, 30140, Note_on_c, 0, 60, 0
3, 30140, Note_on_c, 0, 59, 0
3, 30144, Note_on_c, 0, 59, 89
3, 30236, Note_on_c, 0, 59, 0
3, 30240, Note_on_c, 0, 57, 89
3, 30332, Note_on_c, 0, 57, 0
3, 30336, Note_on_c, 0, 59, 89
3, 30524, Note_on_c, 0, 59, 0
3, 30528, Note_on_c, 0, 59, 89
3, 30620, Note_on_c, 0, 59, 0
3, 30720, Note_on_c, 0, 59, 89
3, 31100, Note_on_c, 0, 59, 0
3, 31104, Note_on_c, 0, 60, 89
3, 31292, Note_on_c, 0, 60, 0
3, 31488, Note_on_c, 0, 60, 89
3, 31580, Note_on_c, 0, 60, 0
3, 31680, Note_on_c, 0, 62, 89
3, 31772, Note_on_c, 0, 62, 0
3, 31872, Note_on_c, 0, 63, 89
3, 31964, Note_on_c, 0, 63, 0
3, 32064, Note_on_c, 0, 64, 89
3, 32156, Note_on_c, 0, 64, 0
3, 32256, Note_on_c, 0, 65, 89
3, 32444, Note_on_c, 0, 65, 0
3, 32448, Note_on_c, 0, 64, 89
3, 32636, Note_on_c, 0, 64, 0
3, 32640, Note_on_c, 0, 62, 89
3, 32732, Note_on_c, 0, 62, 0
3, 32832, Note_on_c, 0, 60, 89
3, 32924, Note_on_c, 0, 60, 0
3, 33024, Note_on_c, 0, 59, 89
3, 33168, Note_on_c, 0, 60, 89
3, 33212, Note_on_c, 0, 60, 0
3, 33212, Note_on_c, 0, 59, 0
3, 33216, Note_on_c, 0, 59, 89
3, 33308, Note_on_c, 0, 59, 0
3, 33312, Note_on_c, 0, 55, 89
3, 33404, Note_on_c, 0, 55, 0
3, 33408, Note_on_c, 0, 59, 89
3, 33596, Note_on_c, 0, 59, 0
3, 33600, Note_on_c, 0, 55, 89
3, 33692, Note_on_c, 0, 55, 0
3, 33792, Note_on_c, 0, 60, 89
3, 34172, Note_on_c, 0, 60, 0
3, 58368, Note_on_c, 0, 64, 112
3, 58368, Note_on_c, 0, 60, 112
3, 58556, Note_on_c, 0, 60, 0
3, 58556, Note_on_c, 0, 64, 0
3, 58560, Note_on_c, 0, 55, 112
3, 58748, Note_on_c, 0, 55, 0
3, 58752, Note_on_c, 0, 64, 112
3, 58752, Note_on_c, 0, 60, 112
3, 58940, Note_on_c, 0, 60, 0
3, 58940, Note_on_c, 0, 64, 0
3, 58944, Note_on_c, 0, 55, 112
3, 59132, Note_on_c, 0, 55, 0
3, 59136, Note_on_c, 0, 60, 112
3, 59136, Note_on_c, 0, 64, 112
3, 59324, Note_on_c, 0, 64, 0
3, 59324, Note_on_c, 0, 60, 0
3, 59328, Note_on_c, 0, 55, 112
3, 59516, Note_on_c, 0, 55, 0
3, 59520, Note_on_c, 0, 60, 112
3, 59520, Note_on_c, 0, 64, 112
3, 59708, Note_on_c, 0, 64, 0
3, 59708, Note_on_c, 0, 60, 0
3, 59712, Note_on_c, 0, 55, 112
3, 59900, Note_on_c, 0, 55, 0
3, 59904, Note_on_c, 0, 65, 112
3, 59904, Note_on_c, 0, 62, 112
3, 60092, Note_on_c, 0, 62, 0
3, 60092, Note_on_c, 0, 65, 0
3, 60096, Note_on_c, 0, 55, 112
3, 60284, Note_on_c, 0, 55, 0
3, 60288, Note_on_c, 0, 65, 112
3, 60288, Note_on_c, 0, 62, 112
3, 60476, Note_on_c, 0, 62, 0
3, 60476, Note_on_c, 0, 65, 0
3, 60480, Note_on_c, 0, 55, 112
3, 60668, Note_on_c, 0, 55, 0
3, 60672, Note_on_c, 0, 65, 112
3, 60672, Note_on_c, 0, 62, 112
3, 60860, Note_on_c, 0, 62, 0
3, 60860, Note_on_c, 0, 65, 0
3, 60864, Note_on_c, 0, 55, 112
3, 61052, Note_on_c, 0, 55, 0
3, 61056, Note_on_c, 0, 65, 112
3, 61056, Note_on_c, 0, 62, 112
3, 61244, Note_on_c, 0, 62, 0
3, 61244, Note_on_c, 0, 65, 0
3, 61248, Note_on_c, 0, 55, 112
3, 61440, Note_on_c, 0, 64, 112
3, 61440, Note_on_c, 0, 60, 112
3, 61444, Note_on_c, 0, 55, 0
3, 61628, Note_on_c, 0, 60, 0
3, 61628, Note_on_c, 0, 64, 0
3, 61632, Note_on_c, 0, 55, 112
3, 61820, Note_on_c, 0, 55, 0
3, 61824, Note_on_c, 0, 64, 112
3, 61824, Note_on_c, 0, 60, 112
3, 62012, Note_on_c, 0, 60, 0
3, 62012, Note_on_c, 0, 64, 0
3, 62016, Note_on_c, 0, 55, 112
3, 62204, Note_on_c, 0, 55, 0
3, 62208, Note_on_c, 0, 64, 112
3, 62208, Note_on_c, 0, 60, 112
3, 62396, Note_on_c, 0, 60, 0
3, 62396, Note_on_c, 0, 64, 0
3, 62400, Note_on_c, 0, 55, 112
3, 62588, Note_on_c, 0, 55, 0
3, 62592, Note_on_c, 0, 64, 112
3, 62592, Note_on_c, 0, 60, 112
3, 62780, Note_on_c, 0, 60, 0
3, 62780, Note_on_c, 0, 64, 0
3, 62784, Note_on_c, 0, 55, 112
3, 62972, Note_on_c, 0, 55, 0
3, 62976, Note_on_c, 0, 65, 112
3, 62976, Note_on_c, 0, 62, 112
3, 63164, Note_on_c, 0, 62, 0
3, 63164, Note_on_c, 0, 65, 0
3, 63168, Note_on_c, 0, 55, 112
3, 63356, Note_on_c, 0, 55, 0
3, 63360, Note_on_c, 0, 65, 112
3, 63360, Note_on_c, 0, 62, 112
3, 63548, Note_on_c, 0, 62, 0
3, 63548, Note_on_c, 0, 65, 0
3, 63552, Note_on_c, 0, 55, 112
3, 63740, Note_on_c, 0, 55, 0
3, 63744, Note_on_c, 0, 65, 112
3, 63744, Note_on_c, 0, 62, 112
3, 63932, Note_on_c, 0, 62, 0
3, 63932, Note_on_c, 0, 65, 0
3, 63936, Note_on_c, 0, 55, 112
3, 64124, Note_on_c, 0, 55, 0
3, 64128, Note_on_c, 0, 65, 112
3, 64128, Note_on_c, 0, 62, 112
3, 64316, Note_on_c, 0, 62, 0
3, 64316, Note_on_c, 0, 65, 0
3, 64320, Note_on_c, 0, 55, 112
3, 64508, Note_on_c, 0, 55, 0
3, 64512, Note_on_c, 0, 64, 112
3, 64512, Note_on_c, 0, 60, 112
3, 64892, Note_on_c, 0, 60, 0
3, 64892, Note_on_c, 0, 64, 0
3, 65280, Note_on_c, 0, 60, 112
3, 65280, Note_on_c, 0, 53, 112
3, 65660, Note_on_c, 0, 53, 0
3, 65660, Note_on_c, 0, 60, 0
3, 66048, Note_on_c, 0, 60, 112
3, 66048, Note_on_c, 0, 57, 112
3, 66428, Note_on_c, 0, 57, 0
3, 66428, Note_on_c, 0, 60, 0
3, 66816, Note_on_c, 0, 57, 112
3, 66816, Note_on_c, 0, 53, 112
3, 67196, Note_on_c, 0, 53, 0
3, 67196, Note_on_c, 0, 57, 0
3, 67584, Note_on_c, 0, 64, 112
3, 67584, Note_on_c, 0, 55, 112
3, 68348, Note_on_c, 0, 55, 0
3, 68348, Note_on_c, 0, 64, 0
3, 68352, Note_on_c, 0, 65, 112
3, 68352, Note_on_c, 0, 55, 112
3, 69116, Note_on_c, 0, 55, 0
3, 69116, Note_on_c, 0, 65, 0
3, 69120, Note_on_c, 0, 60, 112
3, 69120, Note_on_c, 0, 64, 112
3, 69500, Note_on_c, 0, 64, 0
3, 69500, Note_on_c, 0, 60, 0
3, 75456, Note_on_c, 0, 55, 96
3, 75548, Note_on_c, 0, 55, 0
3, 75648, Note_on_c, 0, 57, 92
3, 75740, Note_on_c, 0, 57, 0
3, 75840, Note_on_c, 0, 59, 89
3, 75932, Note_on_c, 0, 59, 0
3, 76032, Note_on_c, 0, 60, 89
3, 76124, Note_on_c, 0, 60, 0
3, 76224, Note_on_c, 0, 62, 89
3, 76316, Note_on_c, 0, 62, 0
3, 76416, Note_on_c, 0, 63, 89
3, 76508, Note_on_c, 0, 63, 0
3, 76608, Note_on_c, 0, 64, 89
3, 76700, Note_on_c, 0, 64, 0
3, 76800, Note_on_c, 0, 65, 89
3, 76988, Note_on_c, 0, 65, 0
3, 76992, Note_on_c, 0, 64, 89
3, 77180, Note_on_c, 0, 64, 0
3, 77184, Note_on_c, 0, 62, 89
3, 77276, Note_on_c, 0, 62, 0
3, 77376, Note_on_c, 0, 60, 89
3, 77468, Note_on_c, 0, 60, 0
3, 79872, Note_on_c, 0, 52, 89
3, 80060, Note_on_c, 0, 52, 0
3, 80064, Note_on_c, 0, 62, 89
3, 80252, Note_on_c, 0, 62, 0
3, 80256, Note_on_c, 0, 59, 89
3, 80444, Note_on_c, 0, 59, 0
3, 80448, Note_on_c, 0, 62, 89
3, 80636, Note_on_c, 0, 62, 0
3, 80640, Note_on_c, 0, 52, 89
3, 80828, Note_on_c, 0, 52, 0
3, 80832, Note_on_c, 0, 59, 89
3, 81020, Note_on_c, 0, 59, 0
3, 81024, Note_on_c, 0, 56, 89
3, 81212, Note_on_c, 0, 56, 0
3, 81216, Note_on_c, 0, 59, 89
3, 81404, Note_on_c, 0, 59, 0
3, 81408, Note_on_c, 0, 52, 89
3, 81596, Note_on_c, 0, 52, 0
3, 81600, Note_on_c, 0, 64, 89
3, 81788, Note_on_c, 0, 64, 0
3, 81792, Note_on_c, 0, 57, 89
3, 81980, Note_on_c, 0, 57, 0
3, 81984, Note_on_c, 0, 64, 89
3, 82172, Note_on_c, 0, 64, 0
3, 82176, Note_on_c, 0, 51, 89
3, 82364, Note_on_c, 0, 51, 0
3, 82368, Note_on_c, 0, 60, 89
3, 82556, Note_on_c, 0, 60, 0
3, 82560, Note_on_c, 0, 55, 89
3, 82748, Note_on_c, 0, 55, 0
3, 82752, Note_on_c, 0, 60, 89
3, 82940, Note_on_c, 0, 60, 0
3, 82944, Note_on_c, 0, 50, 89
3, 83132, Note_on_c, 0, 50, 0
3, 83136, Note_on_c, 0, 60, 89
3, 83324, Note_on_c, 0, 60, 0
3, 83328, Note_on_c, 0, 57, 89
3, 83516, Note_on_c, 0, 57, 0
3, 83520, Note_on_c, 0, 60, 89
3, 83708, Note_on_c, 0, 60, 0
3, 83712, Note_on_c, 0, 50, 89
3, 83900, Note_on_c, 0, 50, 0
3, 83904, Note_on_c, 0, 57, 89
3, 84092, Note_on_c, 0, 57, 0
3, 84096, Note_on_c, 0, 54, 89
3, 84284, Note_on_c, 0, 54, 0
3, 84288, Note_on_c, 0, 57, 89
3, 84476, Note_on_c, 0, 57, 0
3, 84480, Note_on_c, 0, 50, 89
3, 84668, Note_on_c, 0, 50, 0
3, 84672, Note_on_c, 0, 62, 89
3, 84860, Note_on_c, 0, 62, 0
3, 84864, Note_on_c, 0, 55, 89
3, 85052, Note_on_c, 0, 55, 0
3, 85056, Note_on_c, 0, 62, 89
3, 85244, Note_on_c, 0, 62, 0
3, 85248, Note_on_c, 0, 50, 89
3, 85436, Note_on_c, 0, 50, 0
3, 85440, Note_on_c, 0, 58, 89
3, 85628, Note_on_c, 0, 58, 0
3, 85632, Note_on_c, 0, 55, 89
3, 85820, Note_on_c, 0, 55, 0
3, 85824, Note_on_c, 0, 58, 89
3, 86012, Note_on_c, 0, 58, 0
3, 86016, Note_on_c, 0, 51, 89
3, 86204, Note_on_c, 0, 51, 0
3, 86208, Note_on_c, 0, 58, 89
3, 86396, Note_on_c, 0, 58, 0
3, 86400, Note_on_c, 0, 55, 89
3, 86588, Note_on_c, 0, 55, 0
3, 86592, Note_on_c, 0, 58, 89
3, 86780, Note_on_c, 0, 58, 0
3, 86784, Note_on_c, 0, 50, 89
3, 86972, Note_on_c, 0, 50, 0
3, 86976, Note_on_c, 0, 58, 89
3, 87164, Note_on_c, 0, 58, 0
3, 87168, Note_on_c, 0, 55, 89
3, 87356, Note_on_c, 0, 55, 0
3, 87360, Note_on_c, 0, 58, 89
3, 87548, Note_on_c, 0, 58, 0
3, 87552, Note_on_c, 0, 49, 89
3, 87740, Note_on_c, 0, 49, 0
3, 87744, Note_on_c, 0, 58, 89
3, 87932, Note_on_c, 0, 58, 0
3, 87936, Note_on_c, 0, 55, 89
3, 88124, Note_on_c, 0, 55, 0
3, 88128, Note_on_c, 0, 58, 89
3, 88316, Note_on_c, 0, 58, 0
3, 88320, Note_on_c, 0, 50, 89
3, 88508, Note_on_c, 0, 50, 0
3, 88512, Note_on_c, 0, 58, 89
3, 88700, Note_on_c, 0, 58, 0
3, 88704, Note_on_c, 0, 55, 89
3, 88892, Note_on_c, 0, 55, 0
3, 88896, Note_on_c, 0, 58, 89
3, 89084, Note_on_c, 0, 58, 0
3, 89088, Note_on_c, 0, 55, 112
3, 89088, Note_on_c, 0, 51, 112
3, 91388, Note_on_c, 0, 51, 0
3, 91388, Note_on_c, 0, 55, 0
3, 96000, Note_on_c, 0, 50, 116
3, 96092, Note_on_c, 0, 50, 0
3, 96096, Note_on_c, 0, 62, 116
3, 96188, Note_on_c, 0, 62, 0
3, 96192, Note_on_c, 0, 48, 116
3, 96284, Note_on_c, 0, 48, 0
3, 96288, Note_on_c, 0, 60, 116
3, 96380, Note_on_c, 0, 60, 0
3, 96384, Note_on_c, 0, 47, 116
3, 96476, Note_on_c, 0, 47, 0
3, 96480, Note_on_c, 0, 59, 116
3, 96572, Note_on_c, 0, 59, 0
3, 96576, Note_on_c, 0, 45, 116
3, 96668, Note_on_c, 0, 45, 0
3, 96672, Note_on_c, 0, 57, 116
3, 96764, Note_on_c, 0, 57, 0
3, 96768, Note_on_c, 0, 43, 119
3, 97148, Note_on_c, 0, 43, 0
3, 104448, Note_on_c, 0, 55, 89
3, 104636, Note_on_c, 0, 55, 0
3, 104640, Note_on_c, 0, 59, 89
3, 104828, Note_on_c, 0, 59, 0
3, 104832, Note_on_c, 0, 62, 89
3, 105020, Note_on_c, 0, 62, 0
3, 105024, Note_on_c, 0, 59, 89
3, 105212, Note_on_c, 0, 59, 0
3, 105216, Note_on_c, 0, 55, 89
3, 105404, Note_on_c, 0, 55, 0
3, 105408, Note_on_c, 0, 59, 89
3, 105596, Note_on_c, 0, 59, 0
3, 105600, Note_on_c, 0, 62, 89
3, 105788, Note_on_c, 0, 62, 0
3, 105792, Note_on_c, 0, 59, 89
3, 105980, Note_on_c, 0, 59, 0
3, 105984, Note_on_c, 0, 55, 89
3, 106172, Note_on_c, 0, 55, 0
3, 106176, Note_on_c, 0, 60, 89
3, 106364, Note_on_c, 0, 60, 0
3, 106368, Note_on_c, 0, 64, 89
3, 106556, Note_on_c, 0, 64, 0
3, 106560, Note_on_c, 0, 60, 89
3, 106748, Note_on_c, 0, 60, 0
3, 106752, Note_on_c, 0, 55, 89
3, 106940, Note_on_c, 0, 55, 0
3, 106944, Note_on_c, 0, 57, 89
3, 107132, Note_on_c, 0, 57, 0
3, 107136, Note_on_c, 0, 66, 89
3, 107324, Note_on_c, 0, 66, 0
3, 107328, Note_on_c, 0, 57, 89
3, 107516, Note_on_c, 0, 57, 0
3, 107520, Note_on_c, 0, 55, 89
3, 107708, Note_on_c, 0, 55, 0
3, 107712, Note_on_c, 0, 59, 89
3, 107900, Note_on_c, 0, 59, 0
3, 107904, Note_on_c, 0, 67, 89
3, 108092, Note_on_c, 0, 67, 0
3, 108096, Note_on_c, 0, 59, 89
3, 108284, Note_on_c, 0, 59, 0
3, 108288, Note_on_c, 0, 60, 89
3, 108476, Note_on_c, 0, 60, 0
3, 108480, Note_on_c, 0, 62, 89
3, 108668, Note_on_c, 0, 62, 0
3, 108672, Note_on_c, 0, 59, 89
3, 108860, Note_on_c, 0, 59, 0
3, 108864, Note_on_c, 0, 62, 89
3, 109052, Note_on_c, 0, 62, 0
3, 109056, Note_on_c, 0, 60, 89
3, 109244, Note_on_c, 0, 60, 0
3, 109248, Note_on_c, 0, 62, 89
3, 109436, Note_on_c, 0, 62, 0
3, 109440, Note_on_c, 0, 59, 89
3, 109628, Note_on_c, 0, 59, 0
3, 109632, Note_on_c, 0, 62, 89
3, 109820, Note_on_c, 0, 62, 0
3, 109824, Note_on_c, 0, 57, 89
3, 110012, Note_on_c, 0, 57, 0
3, 110016, Note_on_c, 0, 62, 89
3, 110204, Note_on_c, 0, 62, 0
3, 110208, Note_on_c, 0, 55, 89
3, 110396, Note_on_c, 0, 55, 0
3, 110400, Note_on_c, 0, 62, 89
3, 110588, Note_on_c, 0, 62, 0
3, 110592, Note_on_c, 0, 54, 89
3, 110972, Note_on_c, 0, 54, 0
3, 111360, Note_on_c, 0, 55, 89
3, 111740, Note_on_c, 0, 55, 0
3, 112128, Note_on_c, 0, 54, 89
3, 112508, Note_on_c, 0, 54, 0
3, 112896, Note_on_c, 0, 55, 89
3, 113276, Note_on_c, 0, 55, 0
3, 113664, Note_on_c, 0, 59, 89
3, 114044, Note_on_c, 0, 59, 0
3, 114432, Note_on_c, 0, 60, 89
3, 114812, Note_on_c, 0, 60, 0
3, 115200, Note_on_c, 0, 57, 89
3, 115580, Note_on_c, 0, 57, 0
3, 115968, Note_on_c, 0, 59, 89
3, 116348, Note_on_c, 0, 59, 0
3, 116736, Note_on_c, 0, 56, 89
3, 117116, Note_on_c, 0, 56, 0
3, 117504, Note_on_c, 0, 57, 89
3, 117884, Note_on_c, 0, 57, 0
3, 118272, Note_on_c, 0, 54, 89
3, 118652, Note_on_c, 0, 54, 0
3, 119040, Note_on_c, 0, 51, 89
3, 119420, Note_on_c, 0, 51, 0
3, 119808, Note_on_c, 0, 52, 89
3, 120188, Note_on_c, 0, 52, 0
3, 120576, Note_on_c, 0, 57, 112
3, 120576, Note_on_c, 0, 48, 112
3, 120576, Note_on_c, 0, 52, 112
3, 122108, Note_on_c, 0, 52, 0
3, 122108, Note_on_c, 0, 48, 0
3, 122108, Note_on_c, 0, 57, 0
3, 122112, Note_on_c, 0, 57, 112
3, 122112, Note_on_c, 0, 54, 112
3, 122112, Note_on_c, 0, 50, 112
3, 122112, Note_on_c, 0, 48, 112
3, 123260, Note_on_c, 0, 48, 0
3, 123260, Note_on_c, 0, 57, 0
3, 123260, Note_on_c, 0, 54, 0
3, 123260, Note_on_c, 0, 50, 0
3, 123648, Note_on_c, 0, 59, 89
3, 124028, Note_on_c, 0, 59, 0
3, 124032, Note_on_c, 0, 60, 89
3, 124412, Note_on_c, 0, 60, 0
3, 124416, Note_on_c, 0, 62, 89
3, 124796, Note_on_c, 0, 62, 0
3, 124800, Note_on_c, 0, 50, 89
3, 125180, Note_on_c, 0, 50, 0
3, 125184, Note_on_c, 0, 57, 112
3, 125184, Note_on_c, 0, 55, 112
3, 125184, Note_on_c, 0, 52, 112
3, 125184, Note_on_c, 0, 49, 112
3, 126716, Note_on_c, 0, 49, 0
3, 126716, Note_on_c, 0, 57, 0
3, 126716, Note_on_c, 0, 55, 0
3, 126716, Note_on_c, 0, 52, 0
3, 126720, Note_on_c, 0, 57, 112
3, 126720, Note_on_c, 0, 54, 112
3, 126720, Note_on_c, 0, 51, 112
3, 126720, Note_on_c, 0, 48, 112
3, 127868, Note_on_c, 0, 48, 0
3, 127868, Note_on_c, 0, 57, 0
3, 127868, Note_on_c, 0, 54, 0
3, 127868, Note_on_c, 0, 51, 0
3, 128256, Note_on_c, 0, 59, 89
3, 128636, Note_on_c, 0, 59, 0
3, 128640, Note_on_c, 0, 60, 89
3, 129020, Note_on_c, 0, 60, 0
3, 129024, Note_on_c, 0, 62, 89
3, 129404, Note_on_c, 0, 62, 0
3, 129408, Note_on_c, 0, 50, 89
3, 129788, Note_on_c, 0, 50, 0
3, 129792, Note_on_c, 0, 55, 89
3, 130172, Note_on_c, 0, 55, 0
3, 140544, Note_on_c, 0, 59, 89
3, 140924, Note_on_c, 0, 59, 0
3, 140928, Note_on_c, 0, 60, 89
3, 141308, Note_on_c, 0, 60, 0
3, 141312, Note_on_c, 0, 62, 89
3, 141692, Note_on_c, 0, 62, 0
3, 141696, Note_on_c, 0, 50, 89
3, 142076, Note_on_c, 0, 50, 0
3, 142080, Note_on_c, 0, 55, 89
3, 142460, Note_on_c, 0, 55, 0
3, 143616, Note_on_c, 0, 55, 89
3, 143996, Note_on_c, 0, 55, 0
3, 145152, Note_on_c, 0, 65, 91
3, 145152, Note_on_c, 0, 55, 91
3, 145916, Note_on_c, 0, 55, 0
3, 145916, Note_on_c, 0, 65, 0
3, 145920, Note_on_c, 0, 55, 96
3, 145920, Note_on_c, 0, 64, 96
3, 146684, Note_on_c, 0, 55, 0
3, 146688, Note_on_c, 0, 62, 100
3, 146688, Note_on_c, 0, 55, 100
3, 146692, Note_on_c, 0, 64, 0
3, 147452, Note_on_c, 0, 55, 0
3, 147452, Note_on_c, 0, 62, 0
3, 147456, Note_on_c, 0, 60, 107
3, 147456, Note_on_c, 0, 55, 107
3, 148220, Note_on_c, 0, 55, 0
3, 148220, Note_on_c, 0, 60, 0
3, 148224, Note_on_c, 0, 59, 117
3, 148224, Note_on_c, 0, 55, 117
3, 148988, Note_on_c, 0, 55, 0
3, 148988, Note_on_c, 0, 59, 0
3, 149088, Note_on_c, 0, 31, 112
3, 149180, Note_on_c, 0, 31, 0
3, 149184, Note_on_c, 0, 35, 112
3, 149276, Note_on_c, 0, 35, 0
3, 149280, Note_on_c, 0, 38, 112
3, 149372, Note_on_c, 0, 38, 0
3, 149376, Note_on_c, 0, 41, 112
3, 149468, Note_on_c, 0, 41, 0
3, 149472, Note_on_c, 0, 43, 112
3, 149564, Note_on_c, 0, 43, 0
3, 149568, Note_on_c, 0, 47, 112
3, 149660, Note_on_c, 0, 47, 0
3, 149664, Note_on_c, 0, 50, 112
3, 149756, Note_on_c, 0, 50, 0
3, 149760, Note_on_c, 0, 53, 112
3, 149852, Note_on_c, 0, 53, 0
3, 149856, Note_on_c, 0, 55, 112
3, 149948, Note_on_c, 0, 55, 0
3, 149952, Note_on_c, 0, 59, 112
3, 150044, Note_on_c, 0, 59, 0
3, 150048, Note_on_c, 0, 62, 112
3, 150140, Note_on_c, 0, 62, 0
3, 150144, Note_on_c, 0, 65, 112
3, 150236, Note_on_c, 0, 65, 0
3, 150624, Note_on_c, 0, 43, 112
3, 150716, Note_on_c, 0, 43, 0
3, 150720, Note_on_c, 0, 47, 112
3, 150812, Note_on_c, 0, 47, 0
3, 150816, Note_on_c, 0, 50, 112
3, 150908, Note_on_c, 0, 50, 0
3, 150912, Note_on_c, 0, 53, 112
3, 151004, Note_on_c, 0, 53, 0
3, 151008, Note_on_c, 0, 55, 112
3, 151100, Note_on_c, 0, 55, 0
3, 151104, Note_on_c, 0, 59, 112
3, 151196, Note_on_c, 0, 59, 0
3, 151200, Note_on_c, 0, 62, 112
3, 151292, Note_on_c, 0, 62, 0
3, 151296, Note_on_c, 0, 65, 112
3, 151388, Note_on_c, 0, 65, 0
3, 155136, Note_on_c, 0, 60, 89
3, 155228, Note_on_c, 0, 60, 0
3, 155328, Note_on_c, 0, 62, 89
3, 155420, Note_on_c, 0, 62, 0
3, 155520, Note_on_c, 0, 63, 89
3, 155612, Note_on_c, 0, 63, 0
3, 155712, Note_on_c, 0, 64, 89
3, 155804, Note_on_c, 0, 64, 0
3, 155904, Note_on_c, 0, 65, 89
3, 156092, Note_on_c, 0, 65, 0
3, 156096, Note_on_c, 0, 64, 89
3, 156284, Note_on_c, 0, 64, 0
3, 156288, Note_on_c, 0, 62, 89
3, 156380, Note_on_c, 0, 62, 0
3, 156480, Note_on_c, 0, 60, 89
3, 156572, Note_on_c, 0, 60, 0
3, 156672, Note_on_c, 0, 59, 89
3, 156816, Note_on_c, 0, 60, 89
3, 156860, Note_on_c, 0, 60, 0
3, 156860, Note_on_c, 0, 59, 0
3, 156864, Note_on_c, 0, 59, 89
3, 156956, Note_on_c, 0, 59, 0
3, 156960, Note_on_c, 0, 57, 89
3, 157052, Note_on_c, 0, 57, 0
3, 157056, Note_on_c, 0, 59, 89
3, 157244, Note_on_c, 0, 59, 0
3, 157248, Note_on_c, 0, 59, 89
3, 157340, Note_on_c, 0, 59, 0
3, 157440, Note_on_c, 0, 59, 89
3, 157820, Note_on_c, 0, 59, 0
3, 157824, Note_on_c, 0, 60, 89
3, 158012, Note_on_c, 0, 60, 0
3, 158208, Note_on_c, 0, 60, 89
3, 158300, Note_on_c, 0, 60, 0
3, 158400, Note_on_c, 0, 62, 89
3, 158492, Note_on_c, 0, 62, 0
3, 158592, Note_on_c, 0, 63, 89
3, 158684, Note_on_c, 0, 63, 0
3, 158784, Note_on_c, 0, 64, 89
3, 158876, Note_on_c, 0, 64, 0
3, 158976, Note_on_c, 0, 65, 89
3, 159164, Note_on_c, 0, 65, 0
3, 159168, Note_on_c, 0, 64, 89
3, 159356, Note_on_c, 0, 64, 0
3, 159360, Note_on_c, 0, 62, 89
3, 159452, Note_on_c, 0, 62, 0
3, 159552, Note_on_c, 0, 60, 89
3, 159644, Note_on_c, 0, 60, 0
3, 159744, Note_on_c, 0, 59, 89
3, 159888, Note_on_c, 0, 60, 89
3, 159932, Note_on_c, 0, 60, 0
3, 159932, Note_on_c, 0, 59, 0
3, 159936, Note_on_c, 0, 59, 89
3, 160028, Note_on_c, 0, 59, 0
3, 160032, Note_on_c, 0, 57, 89
3, 160124, Note_on_c, 0, 57, 0
3, 160128, Note_on_c, 0, 59, 89
3, 160316, Note_on_c, 0, 59, 0
3, 160320, Note_on_c, 0, 55, 89
3, 160508, Note_on_c, 0, 55, 0
3, 160512, Note_on_c, 0, 60, 89
3, 160892, Note_on_c, 0, 60, 0
3, 167424, Note_on_c, 0, 59, 89
3, 167516, Note_on_c, 0, 59, 0
3, 167616, Note_on_c, 0, 60, 89
3, 167708, Note_on_c, 0, 60, 0
3, 167808, Note_on_c, 0, 61, 89
3, 167900, Note_on_c, 0, 61, 0
3, 168000, Note_on_c, 0, 62, 89
3, 168092, Note_on_c, 0, 62, 0
3, 168192, Note_on_c, 0, 64, 89
3, 168380, Note_on_c, 0, 64, 0
3, 168384, Note_on_c, 0, 62, 89
3, 168572, Note_on_c, 0, 62, 0
3, 168576, Note_on_c, 0, 59, 89
3, 168764, Note_on_c, 0, 59, 0
3, 178176, Note_on_c, 0, 62, 89
3, 178176, Note_on_c, 0, 59, 89
3, 178176, Note_on_c, 0, 55, 89
3, 178556, Note_on_c, 0, 55, 0
3, 178556, Note_on_c, 0, 59, 0
3, 178556, Note_on_c, 0, 62, 0
3, 178944, Note_on_c, 0, 60, 89
3, 178944, Note_on_c, 0, 57, 89
3, 179324, Note_on_c, 0, 57, 0
3, 179324, Note_on_c, 0, 60, 0
3, 179712, Note_on_c, 0, 62, 89
3, 179712, Note_on_c, 0, 57, 89
3, 179712, Note_on_c, 0, 53, 89
3, 180092, Note_on_c, 0, 53, 0
3, 180092, Note_on_c, 0, 57, 0
3, 180092, Note_on_c, 0, 62, 0
3, 180480, Note_on_c, 0, 64, 89
3, 180480, Note_on_c, 0, 60, 89
3, 180480, Note_on_c, 0, 55, 89
3, 180860, Note_on_c, 0, 55, 0
3, 180860, Note_on_c, 0, 60, 0
3, 180860, Note_on_c, 0, 64, 0
3, 181248, Note_on_c, 0, 65, 89
3, 181248, Note_on_c, 0, 62, 89
3, 181248, Note_on_c, 0, 55, 89
3, 181628, Note_on_c, 0, 55, 0
3, 181628, Note_on_c, 0, 62, 0
3, 181628, Note_on_c, 0, 65, 0
3, 182016, Note_on_c, 0, 64, 89
3, 182016, Note_on_c, 0, 60, 89
3, 182396, Note_on_c, 0, 60, 0
3, 182396, Note_on_c, 0, 64, 0
3, 201984, Note_on_c, 0, 57, 85
3, 202172, Note_on_c, 0, 57, 0
3, 202176, Note_on_c, 0, 64, 85
3, 202364, Note_on_c, 0, 64, 0
3, 202368, Note_on_c, 0, 61, 85
3, 202556, Note_on_c, 0, 61, 0
3, 202560, Note_on_c, 0, 64, 85
3, 202748, Note_on_c, 0, 64, 0
3, 202752, Note_on_c, 0, 57, 89
3, 202940, Note_on_c, 0, 57, 0
3, 202944, Note_on_c, 0, 64, 89
3, 203132, Note_on_c, 0, 64, 0
3, 203136, Note_on_c, 0, 61, 89
3, 203324, Note_on_c, 0, 61, 0
3, 203328, Note_on_c, 0, 64, 89
3, 203516, Note_on_c, 0, 64, 0
3, 203520, Note_on_c, 0, 57, 89
3, 203708, Note_on_c, 0, 57, 0
3, 203712, Note_on_c, 0, 64, 89
3, 203900, Note_on_c, 0, 64, 0
3, 203904, Note_on_c, 0, 61, 89
3, 204092, Note_on_c, 0, 61, 0
3, 204096, Note_on_c, 0, 64, 89
3, 204284, Note_on_c, 0, 64, 0
3, 204288, Note_on_c, 0, 52, 89
3, 204476, Note_on_c, 0, 52, 0
3, 204480, Note_on_c, 0, 62, 89
3, 204668, Note_on_c, 0, 62, 0
3, 204672, Note_on_c, 0, 56, 89
3, 204860, Note_on_c, 0, 56, 0
3, 204864, Note_on_c, 0, 62, 89
3, 205052, Note_on_c, 0, 62, 0
3, 205056, Note_on_c, 0, 57, 89
3, 205244, Note_on_c, 0, 57, 0
3, 205248, Note_on_c, 0, 64, 89
3, 205436, Note_on_c, 0, 64, 0
3, 205440, Note_on_c, 0, 61, 89
3, 205628, Note_on_c, 0, 61, 0
3, 205632, Note_on_c, 0, 64, 89
3, 205820, Note_on_c, 0, 64, 0
3, 205824, Note_on_c, 0, 57, 89
3, 206204, Note_on_c, 0, 57, 0
3, 207744, Note_on_c, 0, 57, 89
3, 207744, Note_on_c, 0, 54, 89
3, 208124, Note_on_c, 0, 54, 0
3, 208124, Note_on_c, 0, 57, 0
3, 208128, Note_on_c, 0, 57, 89
3, 208128, Note_on_c, 0, 52, 89
3, 208508, Note_on_c, 0, 52, 0
3, 208508, Note_on_c, 0, 57, 0
3, 208512, Note_on_c, 0, 56, 89
3, 208512, Note_on_c, 0, 52, 89
3, 208700, Note_on_c, 0, 52, 0
3, 208700, Note_on_c, 0, 56, 0
3, 217344, Note_on_c, 0, 61, 89
3, 217344, Note_on_c, 0, 64, 89
3, 217344, Note_on_c, 0, 57, 89
3, 217724, Note_on_c, 0, 57, 0
3, 217724, Note_on_c, 0, 64, 0
3, 217724, Note_on_c, 0, 61, 0
3, 218112, Note_on_c, 0, 62, 89
3, 218112, Note_on_c, 0, 56, 89
3, 218112, Note_on_c, 0, 52, 89
3, 218492, Note_on_c, 0, 52, 0
3, 218492, Note_on_c, 0, 56, 0
3, 218492, Note_on_c, 0, 62, 0
3, 218880, Note_on_c, 0, 61, 89
3, 218880, Note_on_c, 0, 57, 89
3, 219260, Note_on_c, 0, 57, 0
3, 219260, Note_on_c, 0, 61, 0
3, 222720, Note_on_c, 0, 62, 89
3, 222720, Note_on_c, 0, 56, 89
3, 222720, Note_on_c, 0, 52, 89
3, 223484, Note_on_c, 0, 52, 0
3, 223484, Note_on_c, 0, 56, 0
3, 223484, Note_on_c, 0, 62, 0
3, 223488, Note_on_c, 0, 60, 89
3, 223488, Note_on_c, 0, 57, 89
3, 223868, Note_on_c, 0, 57, 0
3, 223868, Note_on_c, 0, 60, 0
3, 225024, Note_on_c, 0, 64, 89
3, 225024, Note_on_c, 0, 60, 89
3, 225024, Note_on_c, 0, 57, 89
3, 225404, Note_on_c, 0, 57, 0
3, 225404, Note_on_c, 0, 60, 0
3, 225404, Note_on_c, 0, 64, 0
3, 225984, Note_on_c, 0, 64, 89
3, 225984, Note_on_c, 0, 60, 89
3, 225984, Note_on_c, 0, 57, 89
3, 226172, Note_on_c, 0, 57, 0
3, 226172, Note_on_c, 0, 60, 0
3, 226172, Note_on_c, 0, 64, 0
3, 226176, Note_on_c, 0, 64, 89
3, 226176, Note_on_c, 0, 60, 89
3, 226176, Note_on_c, 0, 57, 89
3, 226364, Note_on_c, 0, 57, 0
3, 226364, Note_on_c, 0, 60, 0
3, 226364, Note_on_c, 0, 64, 0
3, 226368, Note_on_c, 0, 64, 89
3, 226368, Note_on_c, 0, 60, 89
3, 226368, Note_on_c, 0, 57, 89
3, 226556, Note_on_c, 0, 57, 0
3, 226556, Note_on_c, 0, 60, 0
3, 226556, Note_on_c, 0, 64, 0
3, 226560, Note_on_c, 0, 64, 89
3, 226560, Note_on_c, 0, 60, 89
3, 226560, Note_on_c, 0, 57, 89
3, 226940, Note_on_c, 0, 57, 0
3, 226940, Note_on_c, 0, 60, 0
3, 226940, Note_on_c, 0, 64, 0
3, 227520, Note_on_c, 0, 64, 89
3, 227520, Note_on_c, 0, 60, 89
3, 227520, Note_on_c, 0, 57, 89
3, 227708, Note_on_c, 0, 57, 0
3, 227708, Note_on_c, 0, 60, 0
3, 227708, Note_on_c, 0, 64, 0
3, 227712, Note_on_c, 0, 64, 89
3, 227712, Note_on_c, 0, 60, 89
3, 227712, Note_on_c, 0, 57, 89
3, 227900, Note_on_c, 0, 57, 0
3, 227900, Note_on_c, 0, 60, 0
3, 227900, Note_on_c, 0, 64, 0
3, 227904, Note_on_c, 0, 64, 89
3, 227904, Note_on_c, 0, 60, 89
3, 227904, Note_on_c, 0, 57, 89
3, 228092, Note_on_c, 0, 57, 0
3, 228092, Note_on_c, 0, 60, 0
3, 228092, Note_on_c, 0, 64, 0
3, 228096, Note_on_c, 0, 64, 89
3, 228096, Note_on_c, 0, 60, 89
3, 228096, Note_on_c, 0, 58, 89
3, 228096, Note_on_c, 0, 55, 89
3, 230012, Note_on_c, 0, 55, 0
3, 230012, Note_on_c, 0, 64, 0
3, 230012, Note_on_c, 0, 60, 0
3, 230012, Note_on_c, 0, 58, 0
3, 231936, Note_on_c, 0, 57, 112
3, 231936, Note_on_c, 0, 45, 112
3, 232028, Note_on_c, 0, 45, 0
3, 232028, Note_on_c, 0, 57, 0
3, 232128, Note_on_c, 0, 58, 112
3, 232128, Note_on_c, 0, 46, 112
3, 232220, Note_on_c, 0, 46, 0
3, 232220, Note_on_c, 0, 58, 0
3, 232320, Note_on_c, 0, 59, 112
3, 232320, Note_on_c, 0, 47, 112
3, 232412, Note_on_c, 0, 47, 0
3, 232412, Note_on_c, 0, 59, 0
3, 232512, Note_on_c, 0, 60, 112
3, 232512, Note_on_c, 0, 48, 112
3, 232604, Note_on_c, 0, 48, 0
3, 232604, Note_on_c, 0, 60, 0
3, 232704, Note_on_c, 0, 62, 112
3, 232704, Note_on_c, 0, 50, 112
3, 232892, Note_on_c, 0, 50, 0
3, 232892, Note_on_c, 0, 62, 0
3, 232896, Note_on_c, 0, 60, 112
3, 232896, Note_on_c, 0, 48, 112
3, 233084, Note_on_c, 0, 48, 0
3, 233084, Note_on_c, 0, 60, 0
3, 235008, Note_on_c, 0, 58, 112
3, 235008, Note_on_c, 0, 46, 112
3, 235100, Note_on_c, 0, 46, 0
3, 235100, Note_on_c, 0, 58, 0
3, 235200, Note_on_c, 0, 60, 112
3, 235200, Note_on_c, 0, 48, 112
3, 235292, Note_on_c, 0, 48, 0
3, 235292, Note_on_c, 0, 60, 0
3, 235392, Note_on_c, 0, 61, 112
3, 235392, Note_on_c, 0, 49, 112
3, 235484, Note_on_c, 0, 49, 0
3, 235484, Note_on_c, 0, 61, 0
3, 235584, Note_on_c, 0, 62, 112
3, 235584, Note_on_c, 0, 50, 112
3, 235676, Note_on_c, 0, 50, 0
3, 235676, Note_on_c, 0, 62, 0
3, 235776, Note_on_c, 0, 63, 112
3, 235776, Note_on_c, 0, 51, 112
3, 235964, Note_on_c, 0, 51, 0
3, 235964, Note_on_c, 0, 63, 0
3, 235968, Note_on_c, 0, 62, 112
3, 235968, Note_on_c, 0, 50, 112
3, 236156, Note_on_c, 0, 50, 0
3, 236156, Note_on_c, 0, 62, 0
3, 238080, Note_on_c, 0, 60, 112
3, 238080, Note_on_c, 0, 48, 112
3, 238172, Note_on_c, 0, 48, 0
3, 238172, Note_on_c, 0, 60, 0
3, 238272, Note_on_c, 0, 61, 112
3, 238272, Note_on_c, 0, 49, 112
3, 238364, Note_on_c, 0, 49, 0
3, 238364, Note_on_c, 0, 61, 0
3, 238464, Note_on_c, 0, 62, 112
3, 238464, Note_on_c, 0, 50, 112
3, 238556, Note_on_c, 0, 50, 0
3, 238556, Note_on_c, 0, 62, 0
3, 238656, Note_on_c, 0, 63, 112
3, 238656, Note_on_c, 0, 51, 112
3, 238748, Note_on_c, 0, 51, 0
3, 238748, Note_on_c, 0, 63, 0
3, 238848, Note_on_c, 0, 65, 112
3, 238848, Note_on_c, 0, 53, 112
3, 239036, Note_on_c, 0, 53, 0
3, 239036, Note_on_c, 0, 65, 0
3, 239040, Note_on_c, 0, 64, 112
3, 239040, Note_on_c, 0, 52, 112
3, 239228, Note_on_c, 0, 52, 0
3, 239228, Note_on_c, 0, 64, 0
3, 240768, Note_on_c, 0, 54, 112
3, 240768, Note_on_c, 0, 42, 112
3, 240860, Note_on_c, 0, 42, 0
3, 240860, Note_on_c, 0, 54, 0
3, 240960, Note_on_c, 0, 44, 112
3, 240960, Note_on_c, 0, 56, 112
3, 241052, Note_on_c, 0, 56, 0
3, 241052, Note_on_c, 0, 44, 0
3, 241152, Note_on_c, 0, 59, 112
3, 241152, Note_on_c, 0, 47, 112
3, 241340, Note_on_c, 0, 47, 0
3, 241340, Note_on_c, 0, 59, 0
3, 241344, Note_on_c, 0, 57, 112
3, 241344, Note_on_c, 0, 45, 112
3, 241532, Note_on_c, 0, 45, 0
3, 241532, Note_on_c, 0, 57, 0
3, 242304, Note_on_c, 0, 50, 112
3, 242304, Note_on_c, 0, 38, 112
3, 242396, Note_on_c, 0, 38, 0
3, 242396, Note_on_c, 0, 50, 0
3, 242496, Note_on_c, 0, 52, 112
3, 242496, Note_on_c, 0, 40, 112
3, 242588, Note_on_c, 0, 40, 0
3, 242588, Note_on_c, 0, 52, 0
3, 242688, Note_on_c, 0, 55, 112
3, 242688, Note_on_c, 0, 43, 112
3, 242876, Note_on_c, 0, 43, 0
3, 242876, Note_on_c, 0, 55, 0
3, 242880, Note_on_c, 0, 53, 112
3, 242880, Note_on_c, 0, 41, 112
3, 243068, Note_on_c, 0, 41, 0
3, 243068, Note_on_c, 0, 53, 0
3, 243840, Note_on_c, 0, 47, 112
3, 243840, Note_on_c, 0, 35, 112
3, 243932, Note_on_c, 0, 35, 0
3, 243932, Note_on_c, 0, 47, 0
3, 244032, Note_on_c, 0, 49, 112
3, 244032, Note_on_c, 0, 37, 112
3, 244124, Note_on_c, 0, 37, 0
3, 244124, Note_on_c, 0, 49, 0
3, 244224, Note_on_c, 0, 52, 112
3, 244224, Note_on_c, 0, 40, 112
3, 244412, Note_on_c, 0, 40, 0
3, 244412, Note_on_c, 0, 52, 0
3, 244416, Note_on_c, 0, 50, 112
3, 244416, Note_on_c, 0, 38, 112
3, 244604, Note_on_c, 0, 38, 0
3, 244604, Note_on_c, 0, 50, 0
3, 244608, Note_on_c, 0, 45, 112
3, 244608, Note_on_c, 0, 33, 112
3, 244700, Note_on_c, 0, 33, 0
3, 244700, Note_on_c, 0, 45, 0
3, 244800, Note_on_c, 0, 47, 112
3, 244800, Note_on_c, 0, 35, 112
3, 244892, Note_on_c, 0, 35, 0
3, 244892, Note_on_c, 0, 47, 0
3, 244992, Note_on_c, 0, 48, 112
3, 244992, Note_on_c, 0, 36, 112
3, 245372, Note_on_c, 0, 36, 0
3, 245372, Note_on_c, 0, 48, 0
3, 245376, Note_on_c, 0, 46, 112
3, 245376, Note_on_c, 0, 34, 112
3, 245756, Note_on_c, 0, 34, 0
3, 245756, Note_on_c, 0, 46, 0
3, 245760, Note_on_c, 0, 44, 112
3, 245760, Note_on_c, 0, 32, 112
3, 246140, Note_on_c, 0, 32, 0
3, 246140, Note_on_c, 0, 44, 0
3, 246144, Note_on_c, 0, 43, 112
3, 246144, Note_on_c, 0, 31, 112
3, 246524, Note_on_c, 0, 31, 0
3, 246524, Note_on_c, 0, 43, 0
3, 246528, Note_on_c, 0, 42, 112
3, 246528, Note_on_c, 0, 30, 112
3, 248444, Note_on_c, 0, 30, 0
3, 248444, Note_on_c, 0, 42, 0
3, 249600, Note_on_c, 0, 62, 112
3, 249600, Note_on_c, 0, 59, 112
3, 249600, Note_on_c, 0, 55, 112
3, 250364, Note_on_c, 0, 59, 0
3, 250364, Note_on_c, 0, 62, 0
3, 250368, Note_on_c, 0, 63, 112
3, 250368, Note_on_c, 0, 60, 112
3, 251132, Note_on_c, 0, 60, 0
3, 251132, Note_on_c, 0, 63, 0
3, 251132, Note_on_c, 0, 55, 0
3, 251136, Note_on_c, 0, 62, 112
3, 251136, Note_on_c, 0, 59, 112
3, 251136, Note_on_c, 0, 55, 112
3, 251900, Note_on_c, 0, 59, 0
3, 251900, Note_on_c, 0, 62, 0
3, 251904, Note_on_c, 0, 63, 112
3, 251904, Note_on_c, 0, 60, 112
3, 252668, Note_on_c, 0, 60, 0
3, 252668, Note_on_c, 0, 63, 0
3, 252668, Note_on_c, 0, 55, 0
3, 252672, Note_on_c, 0, 55, 112
3, 252672, Note_on_c, 0, 62, 112
3, 252672, Note_on_c, 0, 59, 112
3, 253052, Note_on_c, 0, 59, 0
3, 253052, Note_on_c, 0, 62, 0
3, 253056, Note_on_c, 0, 63, 112
3, 253056, Note_on_c, 0, 60, 112
3, 253436, Note_on_c, 0, 63, 0
3, 253440, Note_on_c, 0, 62, 112
3, 253440, Note_on_c, 0, 59, 112
3, 253444, Note_on_c, 0, 60, 0
3, 253820, Note_on_c, 0, 59, 0
3, 253820, Note_on_c, 0, 62, 0
3, 253824, Note_on_c, 0, 63, 112
3, 253824, Note_on_c, 0, 60, 112
3, 254204, Note_on_c, 0, 60, 0
3, 254204, Note_on_c, 0, 63, 0
3, 254204, Note_on_c, 0, 55, 0
3, 254208, Note_on_c, 0, 62, 112
3, 254208, Note_on_c, 0, 59, 112
3, 254208, Note_on_c, 0, 55, 112
3, 254588, Note_on_c, 0, 55, 0
3, 254588, Note_on_c, 0, 59, 0
3, 254588, Note_on_c, 0, 62, 0
3, 259584, Note_on_c, 0, 60, 89
3, 259676, Note_on_c, 0, 60, 0
3, 259776, Note_on_c, 0, 62, 89
3, 259868, Note_on_c, 0, 62, 0
3, 259968, Note_on_c, 0, 63, 89
3, 260060, Note_on_c, 0, 63, 0
3, 260160, Note_on_c, 0, 64, 89
3, 260252, Note_on_c, 0, 64, 0
3, 260352, Note_on_c, 0, 65, 89
3, 260540, Note_on_c, 0, 65, 0
3, 260544, Note_on_c, 0, 64, 89
3, 260732, Note_on_c, 0, 64, 0
3, 260736, Note_on_c, 0, 62, 89
3, 260828, Note_on_c, 0, 62, 0
3, 260928, Note_on_c, 0, 60, 89
3, 261020, Note_on_c, 0, 60, 0
3, 261120, Note_on_c, 0, 59, 89
3, 261264, Note_on_c, 0, 60, 89
3, 261308, Note_on_c, 0, 60, 0
3, 261308, Note_on_c, 0, 59, 0
3, 261312, Note_on_c, 0, 59, 89
3, 261404, Note_on_c, 0, 59, 0
3, 261408, Note_on_c, 0, 57, 89
3, 261500, Note_on_c, 0, 57, 0
3, 261504, Note_on_c, 0, 59, 89
3, 261692, Note_on_c, 0, 59, 0
3, 261696, Note_on_c, 0, 59, 89
3, 261788, Note_on_c, 0, 59, 0
3, 261888, Note_on_c, 0, 59, 89
3, 262268, Note_on_c, 0, 59, 0
3, 262272, Note_on_c, 0, 60, 89
3, 262460, Note_on_c, 0, 60, 0
3, 262656, Note_on_c, 0, 60, 89
3, 262748, Note_on_c, 0, 60, 0
3, 262848, Note_on_c, 0, 62, 89
3, 262940, Note_on_c, 0, 62, 0
3, 263040, Note_on_c, 0, 63, 89
3, 263132, Note_on_c, 0, 63, 0
3, 263232, Note_on_c, 0, 64, 89
3, 263324, Note_on_c, 0, 64, 0
3, 263424, Note_on_c, 0, 65, 89
3, 263612, Note_on_c, 0, 65, 0
3, 263616, Note_on_c, 0, 64, 89
3, 263804, Note_on_c, 0, 64, 0
3, 263808, Note_on_c, 0, 62, 89
3, 263900, Note_on_c, 0, 62, 0
3, 264000, Note_on_c, 0, 60, 89
3, 264092, Note_on_c, 0, 60, 0
3, 264192, Note_on_c, 0, 59, 89
3, 264336, Note_on_c, 0, 60, 89
3, 264380, Note_on_c, 0, 60, 0
3, 264380, Note_on_c, 0, 59, 0
3, 264384, Note_on_c, 0, 59, 89
3, 264476, Note_on_c, 0, 59, 0
3, 264480, Note_on_c, 0, 57, 89
3, 264572, Note_on_c, 0, 57, 0
3, 264576, Note_on_c, 0, 59, 89
3, 264764, Note_on_c, 0, 59, 0
3, 264768, Note_on_c, 0, 55, 89
3, 264860, Note_on_c, 0, 55, 0
3, 264960, Note_on_c, 0, 60, 89
3, 265340, Note_on_c, 0, 60, 0
3, 275712, Note_on_c, 0, 64, 112
3, 275712, Note_on_c, 0, 60, 112
3, 275900, Note_on_c, 0, 60, 0
3, 275900, Note_on_c, 0, 64, 0
3, 275904, Note_on_c, 0, 55, 112
3, 276092, Note_on_c, 0, 55, 0
3, 276096, Note_on_c, 0, 64, 112
3, 276096, Note_on_c, 0, 60, 112
3, 276284, Note_on_c, 0, 60, 0
3, 276284, Note_on_c, 0, 64, 0
3, 276288, Note_on_c, 0, 55, 112
3, 276476, Note_on_c, 0, 55, 0
3, 276480, Note_on_c, 0, 60, 112
3, 276480, Note_on_c, 0, 64, 112
3, 276668, Note_on_c, 0, 64, 0
3, 276668, Note_on_c, 0, 60, 0
3, 276672, Note_on_c, 0, 55, 112
3, 276860, Note_on_c, 0, 55, 0
3, 276864, Note_on_c, 0, 60, 112
3, 276864, Note_on_c, 0, 64, 112
3, 277052, Note_on_c, 0, 64, 0
3, 277052, Note_on_c, 0, 60, 0
3, 277056, Note_on_c, 0, 55, 112
3, 277244, Note_on_c, 0, 55, 0
3, 277248, Note_on_c, 0, 62, 112
3, 277248, Note_on_c, 0, 65, 112
3, 277436, Note_on_c, 0, 65, 0
3, 277436, Note_on_c, 0, 62, 0
3, 277440, Note_on_c, 0, 55, 112
3, 277628, Note_on_c, 0, 55, 0
3, 277632, Note_on_c, 0, 62, 112
3, 277632, Note_on_c, 0, 65, 112
3, 277820, Note_on_c, 0, 65, 0
3, 277820, Note_on_c, 0, 62, 0
3, 277824, Note_on_c, 0, 55, 112
3, 278012, Note_on_c, 0, 55, 0
3, 278016, Note_on_c, 0, 62, 112
3, 278016, Note_on_c, 0, 65, 112
3, 278204, Note_on_c, 0, 65, 0
3, 278204, Note_on_c, 0, 62, 0
3, 278208, Note_on_c, 0, 55, 112
3, 278396, Note_on_c, 0, 55, 0
3, 278400, Note_on_c, 0, 62, 112
3, 278400, Note_on_c, 0, 65, 112
3, 278588, Note_on_c, 0, 65, 0
3, 278588, Note_on_c, 0, 62, 0
3, 278592, Note_on_c, 0, 55, 112
3, 278780, Note_on_c, 0, 55, 0
3, 278784, Note_on_c, 0, 64, 112
3, 278784, Note_on_c, 0, 60, 112
3, 278972, Note_on_c, 0, 60, 0
3, 278972, Note_on_c, 0, 64, 0
3, 278976, Note_on_c, 0, 55, 112
3, 279164, Note_on_c, 0, 55, 0
3, 279168, Note_on_c, 0, 62, 112
3, 279168, Note_on_c, 0, 56, 112
3, 279356, Note_on_c, 0, 56, 0
3, 279356, Note_on_c, 0, 62, 0
3, 279360, Note_on_c, 0, 52, 112
3, 279548, Note_on_c, 0, 52, 0
3, 279552, Note_on_c, 0, 60, 112
3, 279552, Note_on_c, 0, 57, 112
3, 279740, Note_on_c, 0, 57, 0
3, 279740, Note_on_c, 0, 60, 0
3, 279744, Note_on_c, 0, 52, 112
3, 279932, Note_on_c, 0, 52, 0
3, 279936, Note_on_c, 0, 57, 112
3, 279936, Note_on_c, 0, 60, 112
3, 280124, Note_on_c, 0, 60, 0
3, 280124, Note_on_c, 0, 57, 0
3, 280128, Note_on_c, 0, 52, 112
3, 280316, Note_on_c, 0, 52, 0
3, 280320, Note_on_c, 0, 59, 112
3, 280320, Note_on_c, 0, 62, 112
3, 280508, Note_on_c, 0, 62, 0
3, 280508, Note_on_c, 0, 59, 0
3, 280512, Note_on_c, 0, 52, 112
3, 280700, Note_on_c, 0, 52, 0
3, 280704, Note_on_c, 0, 59, 112
3, 280704, Note_on_c, 0, 62, 112
3, 280892, Note_on_c, 0, 62, 0
3, 280892, Note_on_c, 0, 59, 0
3, 280896, Note_on_c, 0, 52, 112
3, 281084, Note_on_c, 0, 52, 0
3, 281088, Note_on_c, 0, 59, 112
3, 281088, Note_on_c, 0, 62, 112
3, 281276, Note_on_c, 0, 62, 0
3, 281276, Note_on_c, 0, 59, 0
3, 281280, Note_on_c, 0, 52, 112
3, 281468, Note_on_c, 0, 52, 0
3, 281472, Note_on_c, 0, 59, 112
3, 281472, Note_on_c, 0, 62, 112
3, 281660, Note_on_c, 0, 62, 0
3, 281660, Note_on_c, 0, 59, 0
3, 281664, Note_on_c, 0, 52, 112
3, 281852, Note_on_c, 0, 52, 0
3, 281856, Note_on_c, 0, 60, 112
3, 281856, Note_on_c, 0, 57, 112
3, 282044, Note_on_c, 0, 57, 0
3, 282044, Note_on_c, 0, 60, 0
3, 282048, Note_on_c, 0, 52, 112
3, 282236, Note_on_c, 0, 52, 0
3, 282240, Note_on_c, 0, 58, 112
3, 282240, Note_on_c, 0, 52, 112
3, 282428, Note_on_c, 0, 52, 0
3, 282428, Note_on_c, 0, 58, 0
3, 282432, Note_on_c, 0, 48, 112
3, 282620, Note_on_c, 0, 48, 0
3, 282624, Note_on_c, 0, 57, 112
3, 282624, Note_on_c, 0, 53, 112
3, 282812, Note_on_c, 0, 53, 0
3, 282812, Note_on_c, 0, 57, 0
3, 282816, Note_on_c, 0, 48, 112
3, 283004, Note_on_c, 0, 48, 0
3, 283008, Note_on_c, 0, 57, 112
3, 283008, Note_on_c, 0, 53, 112
3, 283196, Note_on_c, 0, 53, 0
3, 283196, Note_on_c, 0, 57, 0
3, 283200, Note_on_c, 0, 48, 112
3, 283388, Note_on_c, 0, 48, 0
3, 283392, Note_on_c, 0, 58, 112
3, 283392, Note_on_c, 0, 55, 112
3, 283580, Note_on_c, 0, 55, 0
3, 283580, Note_on_c, 0, 58, 0
3, 283584, Note_on_c, 0, 48, 112
3, 283772, Note_on_c, 0, 48, 0
3, 283776, Note_on_c, 0, 58, 112
3, 283776, Note_on_c, 0, 55, 112
3, 283964, Note_on_c, 0, 55, 0
3, 283964, Note_on_c, 0, 58, 0
3, 283968, Note_on_c, 0, 48, 112
3, 284156, Note_on_c, 0, 48, 0
3, 284160, Note_on_c, 0, 58, 112
3, 284160, Note_on_c, 0, 55, 112
3, 284348, Note_on_c, 0, 55, 0
3, 284348, Note_on_c, 0, 58, 0
3, 284352, Note_on_c, 0, 48, 112
3, 284540, Note_on_c, 0, 48, 0
3, 284544, Note_on_c, 0, 58, 112
3, 284544, Note_on_c, 0, 55, 112
3, 284732, Note_on_c, 0, 55, 0
3, 284732, Note_on_c, 0, 58, 0
3, 284736, Note_on_c, 0, 48, 112
3, 284924, Note_on_c, 0, 48, 0
3, 284928, Note_on_c, 0, 57, 112
3, 284928, Note_on_c, 0, 53, 112
3, 285308, Note_on_c, 0, 53, 0
3, 285308, Note_on_c, 0, 57, 0
3, 285504, Note_on_c, 0, 58, 112
3, 285504, Note_on_c, 0, 55, 112
3, 285692, Note_on_c, 0, 55, 0
3, 285692, Note_on_c, 0, 58, 0
3, 285696, Note_on_c, 0, 57, 112
3, 285696, Note_on_c, 0, 53, 112
3, 286076, Note_on_c, 0, 53, 0
3, 286076, Note_on_c, 0, 57, 0
3, 286272, Note_on_c, 0, 61, 112
3, 286272, Note_on_c, 0, 52, 112
3, 286460, Note_on_c, 0, 52, 0
3, 286460, Note_on_c, 0, 61, 0
3, 286464, Note_on_c, 0, 62, 112
3, 286464, Note_on_c, 0, 53, 112
3, 286844, Note_on_c, 0, 53, 0
3, 286844, Note_on_c, 0, 62, 0
3, 287040, Note_on_c, 0, 58, 112
3, 287040, Note_on_c, 0, 55, 112
3, 287228, Note_on_c, 0, 55, 0
3, 287228, Note_on_c, 0, 58, 0
3, 287232, Note_on_c, 0, 57, 112
3, 287232, Note_on_c, 0, 53, 112
3, 287612, Note_on_c, 0, 53, 0
3, 287612, Note_on_c, 0, 57, 0
3, 287808, Note_on_c, 0, 61, 112
3, 287808, Note_on_c, 0, 52, 112
3, 287996, Note_on_c, 0, 52, 0
3, 287996, Note_on_c, 0, 61, 0
3, 288000, Note_on_c, 0, 62, 112
3, 288000, Note_on_c, 0, 53, 112
3, 288764, Note_on_c, 0, 53, 0
3, 288764, Note_on_c, 0, 62, 0
3, 288768, Note_on_c, 0, 57, 112
3, 288768, Note_on_c, 0, 54, 112
3, 289532, Note_on_c, 0, 54, 0
3, 289532, Note_on_c, 0, 57, 0
3, 289536, Note_on_c, 0, 55, 112
3, 289724, Note_on_c, 0, 55, 0
3, 289728, Note_on_c, 0, 55, 112
3, 289916, Note_on_c, 0, 55, 0
3, 289920, Note_on_c, 0, 59, 112
3, 290108, Note_on_c, 0, 59, 0
3, 290112, Note_on_c, 0, 55, 112
3, 290300, Note_on_c, 0, 55, 0
3, 290304, Note_on_c, 0, 60, 112
3, 290492, Note_on_c, 0, 60, 0
3, 290496, Note_on_c, 0, 55, 112
3, 290684, Note_on_c, 0, 55, 0
3, 290688, Note_on_c, 0, 63, 112
3, 290876, Note_on_c, 0, 63, 0
3, 290880, Note_on_c, 0, 55, 112
3, 291068, Note_on_c, 0, 55, 0
3, 291072, Note_on_c, 0, 62, 112
3, 291260, Note_on_c, 0, 62, 0
3, 291264, Note_on_c, 0, 55, 112
3, 291452, Note_on_c, 0, 55, 0
3, 291456, Note_on_c, 0, 59, 112
3, 291644, Note_on_c, 0, 59, 0
3, 291648, Note_on_c, 0, 55, 112
3, 291836, Note_on_c, 0, 55, 0
3, 291840, Note_on_c, 0, 60, 112
3, 292028, Note_on_c, 0, 60, 0
3, 292032, Note_on_c, 0, 55, 112
3, 292220, Note_on_c, 0, 55, 0
3, 292224, Note_on_c, 0, 60, 112
3, 292412, Note_on_c, 0, 60, 0
3, 292416, Note_on_c, 0, 55, 112
3, 292604, Note_on_c, 0, 55, 0
3, 292608, Note_on_c, 0, 59, 112
3, 292608, Note_on_c, 0, 55, 112
3, 292988, Note_on_c, 0, 55, 0
3, 292988, Note_on_c, 0, 59, 0
3, 293376, Note_on_c, 0, 55, 112
3, 293468, Note_on_c, 0, 55, 0
3, 293472, Note_on_c, 0, 43, 112
3, 293564, Note_on_c, 0, 43, 0
3, 293568, Note_on_c, 0, 47, 112
3, 293660, Note_on_c, 0, 47, 0
3, 293664, Note_on_c, 0, 50, 112
3, 293756, Note_on_c, 0, 50, 0
3, 293760, Note_on_c, 0, 55, 112
3, 293852, Note_on_c, 0, 55, 0
3, 293856, Note_on_c, 0, 59, 112
3, 293948, Note_on_c, 0, 59, 0
3, 293952, Note_on_c, 0, 62, 112
3, 294044, Note_on_c, 0, 62, 0
3, 294048, Note_on_c, 0, 59, 112
3, 294140, Note_on_c, 0, 59, 0
3, 294144, Note_on_c, 0, 55, 112
3, 294524, Note_on_c, 0, 55, 0
3, 295680, Note_on_c, 0, 48, 89
3, 295868, Note_on_c, 0, 48, 0
3, 295872, Note_on_c, 0, 52, 89
3, 296060, Note_on_c, 0, 52, 0
3, 296064, Note_on_c, 0, 55, 89
3, 296252, Note_on_c, 0, 55, 0
3, 296256, Note_on_c, 0, 52, 89
3, 296444, Note_on_c, 0, 52, 0
3, 296448, Note_on_c, 0, 50, 89
3, 296636, Note_on_c, 0, 50, 0
3, 296640, Note_on_c, 0, 52, 89
3, 296828, Note_on_c, 0, 52, 0
3, 296832, Note_on_c, 0, 55, 89
3, 297020, Note_on_c, 0, 55, 0
3, 297024, Note_on_c, 0, 52, 89
3, 297212, Note_on_c, 0, 52, 0
3, 297216, Note_on_c, 0, 48, 89
3, 297404, Note_on_c, 0, 48, 0
3, 297408, Note_on_c, 0, 53, 89
3, 297596, Note_on_c, 0, 53, 0
3, 297600, Note_on_c, 0, 57, 89
3, 297788, Note_on_c, 0, 57, 0
3, 297792, Note_on_c, 0, 53, 89
3, 297980, Note_on_c, 0, 53, 0
3, 297984, Note_on_c, 0, 48, 89
3, 298172, Note_on_c, 0, 48, 0
3, 298176, Note_on_c, 0, 50, 89
3, 298364, Note_on_c, 0, 50, 0
3, 298368, Note_on_c, 0, 53, 89
3, 298556, Note_on_c, 0, 53, 0
3, 298560, Note_on_c, 0, 50, 89
3, 298748, Note_on_c, 0, 50, 0
3, 298752, Note_on_c, 0, 48, 89
3, 298940, Note_on_c, 0, 48, 0
3, 298944, Note_on_c, 0, 60, 89
3, 299036, Note_on_c, 0, 60, 0
3, 299136, Note_on_c, 0, 65, 89
3, 299228, Note_on_c, 0, 65, 0
3, 299328, Note_on_c, 0, 60, 89
3, 299420, Note_on_c, 0, 60, 0
3, 299520, Note_on_c, 0, 65, 89
3, 299708, Note_on_c, 0, 65, 0
3, 299712, Note_on_c, 0, 67, 89
3, 299900, Note_on_c, 0, 67, 0
3, 299904, Note_on_c, 0, 64, 89
3, 300092, Note_on_c, 0, 64, 0
3, 300096, Note_on_c, 0, 67, 89
3, 300284, Note_on_c, 0, 67, 0
3, 300288, Note_on_c, 0, 62, 89
3, 300476, Note_on_c, 0, 62, 0
3, 300480, Note_on_c, 0, 67, 89
3, 300668, Note_on_c, 0, 67, 0
3, 300672, Note_on_c, 0, 60, 89
3, 300860, Note_on_c, 0, 60, 0
3, 300864, Note_on_c, 0, 67, 89
3, 301052, Note_on_c, 0, 67, 0
3, 301056, Note_on_c, 0, 59, 89
3, 301244, Note_on_c, 0, 59, 0
3, 301248, Note_on_c, 0, 67, 89
3, 301436, Note_on_c, 0, 67, 0
3, 301440, Note_on_c, 0, 60, 89
3, 301628, Note_on_c, 0, 60, 0
3, 301632, Note_on_c, 0, 67, 89
3, 301820, Note_on_c, 0, 67, 0
3, 301824, Note_on_c, 0, 55, 89
3, 302204, Note_on_c, 0, 55, 0
3, 303360, Note_on_c, 0, 48, 89
3, 303740, Note_on_c, 0, 48, 0
3, 309504, Note_on_c, 0, 59, 89
3, 309884, Note_on_c, 0, 59, 0
3, 310272, Note_on_c, 0, 60, 89
3, 310652, Note_on_c, 0, 60, 0
3, 311040, Note_on_c, 0, 56, 89
3, 311420, Note_on_c, 0, 56, 0
3, 311808, Note_on_c, 0, 57, 89
3, 312188, Note_on_c, 0, 57, 0
3, 312576, Note_on_c, 0, 52, 89
3, 312956, Note_on_c, 0, 52, 0
3, 313344, Note_on_c, 0, 53, 89
3, 313724, Note_on_c, 0, 53, 0
3, 319488, Note_on_c, 0, 62, 112
3, 319488, Note_on_c, 0, 53, 112
3, 319488, Note_on_c, 0, 57, 112
3, 321020, Note_on_c, 0, 57, 0
3, 321020, Note_on_c, 0, 53, 0
3, 321020, Note_on_c, 0, 62, 0
3, 321024, Note_on_c, 0, 62, 112
3, 321024, Note_on_c, 0, 59, 112
3, 321024, Note_on_c, 0, 55, 112
3, 321024, Note_on_c, 0, 53, 112
3, 322172, Note_on_c, 0, 53, 0
3, 322172, Note_on_c, 0, 62, 0
3, 322172, Note_on_c, 0, 59, 0
3, 322172, Note_on_c, 0, 55, 0
3, 322560, Note_on_c, 0, 64, 89
3, 322940, Note_on_c, 0, 64, 0
3, 322944, Note_on_c, 0, 65, 89
3, 323324, Note_on_c, 0, 65, 0
3, 323328, Note_on_c, 0, 67, 89
3, 323708, Note_on_c, 0, 67, 0
3, 323712, Note_on_c, 0, 55, 89
3, 324092, Note_on_c, 0, 55, 0
3, 324096, Note_on_c, 0, 50, 112
3, 324096, Note_on_c, 0, 48, 112
3, 324096, Note_on_c, 0, 45, 112
3, 324096, Note_on_c, 0, 42, 112
3, 325628, Note_on_c, 0, 42, 0
3, 325628, Note_on_c, 0, 50, 0
3, 325628, Note_on_c, 0, 48, 0
3, 325628, Note_on_c, 0, 45, 0
3, 325632, Note_on_c, 0, 50, 112
3, 325632, Note_on_c, 0, 47, 112
3, 325632, Note_on_c, 0, 43, 112
3, 325632, Note_on_c, 0, 41, 112
3, 326780, Note_on_c, 0, 41, 0
3, 326780, Note_on_c, 0, 50, 0
3, 326780, Note_on_c, 0, 47, 0
3, 326780, Note_on_c, 0, 43, 0
3, 327168, Note_on_c, 0, 52, 89
3, 327548, Note_on_c, 0, 52, 0
3, 327552, Note_on_c, 0, 53, 89
3, 327932, Note_on_c, 0, 53, 0
3, 327936, Note_on_c, 0, 55, 89
3, 328316, Note_on_c, 0, 55, 0
3, 328320, Note_on_c, 0, 43, 89
3, 328700, Note_on_c, 0, 43, 0
3, 328704, Note_on_c, 0, 48, 89
3, 329084, Note_on_c, 0, 48, 0
3, 329472, Note_on_c, 0, 60, 89
3, 329472, Note_on_c, 0, 54, 89
3, 329852, Note_on_c, 0, 54, 0
3, 329852, Note_on_c, 0, 60, 0
3, 329856, Note_on_c, 0, 59, 89
3, 329856, Note_on_c, 0, 53, 89
3, 330044, Note_on_c, 0, 53, 0
3, 330044, Note_on_c, 0, 59, 0
3, 330240, Note_on_c, 0, 60, 89
3, 330240, Note_on_c, 0, 52, 89
3, 330620, Note_on_c, 0, 52, 0
3, 330620, Note_on_c, 0, 60, 0
3, 330624, Note_on_c, 0, 60, 89
3, 330624, Note_on_c, 0, 52, 89
3, 330812, Note_on_c, 0, 52, 0
3, 330812, Note_on_c, 0, 60, 0
3, 344064, Note_on_c, 0, 55, 89
3, 344064, Note_on_c, 0, 43, 89
3, 344636, Note_on_c, 0, 43, 0
3, 344636, Note_on_c, 0, 55, 0
3, 345024, Note_on_c, 0, 60, 104
3, 345024, Note_on_c, 0, 52, 104
3, 345212, Note_on_c, 0, 52, 0
3, 345212, Note_on_c, 0, 60, 0
3, 345216, Note_on_c, 0, 64, 104
3, 345216, Note_on_c, 0, 55, 104
3, 345308, Note_on_c, 0, 55, 0
3, 345308, Note_on_c, 0, 64, 0
3, 345408, Note_on_c, 0, 55, 104
3, 345500, Note_on_c, 0, 55, 0
3, 345792, Note_on_c, 0, 60, 105
3, 345792, Note_on_c, 0, 52, 105
3, 345980, Note_on_c, 0, 52, 0
3, 345980, Note_on_c, 0, 60, 0
3, 345984, Note_on_c, 0, 57, 105
3, 345984, Note_on_c, 0, 53, 105
3, 346076, Note_on_c, 0, 53, 0
3, 346076, Note_on_c, 0, 57, 0
3, 346176, Note_on_c, 0, 57, 105
3, 346176, Note_on_c, 0, 53, 105
3, 346268, Note_on_c, 0, 53, 0
3, 346268, Note_on_c, 0, 57, 0
3, 346560, Note_on_c, 0, 62, 107
3, 346560, Note_on_c, 0, 53, 107
3, 346748, Note_on_c, 0, 53, 0
3, 346748, Note_on_c, 0, 62, 0
3, 346752, Note_on_c, 0, 65, 107
3, 346752, Note_on_c, 0, 57, 107
3, 346844, Note_on_c, 0, 57, 0
3, 346844, Note_on_c, 0, 65, 0
3, 346944, Note_on_c, 0, 57, 107
3, 347036, Note_on_c, 0, 57, 0
3, 347328, Note_on_c, 0, 62, 109
3, 347328, Note_on_c, 0, 54, 109
3, 347516, Note_on_c, 0, 54, 0
3, 347516, Note_on_c, 0, 62, 0
3, 347520, Note_on_c, 0, 59, 109
3, 347520, Note_on_c, 0, 55, 109
3, 347612, Note_on_c, 0, 55, 0
3, 347612, Note_on_c, 0, 59, 0
3, 347712, Note_on_c, 0, 59, 111
3, 347712, Note_on_c, 0, 55, 111
3, 347804, Note_on_c, 0, 55, 0
3, 347804, Note_on_c, 0, 59, 0
3, 348096, Note_on_c, 0, 64, 111
3, 348096, Note_on_c, 0, 55, 111
3, 348284, Note_on_c, 0, 55, 0
3, 348284, Note_on_c, 0, 64, 0
3, 348288, Note_on_c, 0, 67, 111
3, 348288, Note_on_c, 0, 59, 111
3, 348380, Note_on_c, 0, 59, 0
3, 348380, Note_on_c, 0, 67, 0
3, 348480, Note_on_c, 0, 59, 112
3, 348572, Note_on_c, 0, 59, 0
3, 348864, Note_on_c, 0, 64, 112
3, 348864, Note_on_c, 0, 56, 112
3, 349052, Note_on_c, 0, 56, 0
3, 349052, Note_on_c, 0, 64, 0
3, 349056, Note_on_c, 0, 60, 112
3, 349056, Note_on_c, 0, 57, 112
3, 349148, Note_on_c, 0, 57, 0
3, 349148, Note_on_c, 0, 60, 0
3, 349248, Note_on_c, 0, 60, 113
3, 349248, Note_on_c, 0, 57, 113
3, 349340, Note_on_c, 0, 57, 0
3, 349340, Note_on_c, 0, 60, 0
3, 349632, Note_on_c, 0, 57, 113
3, 349632, Note_on_c, 0, 65, 113
3, 349820, Note_on_c, 0, 65, 0
3, 349820, Note_on_c, 0, 57, 0
3, 349824, Note_on_c, 0, 69, 103
3, 349824, Note_on_c, 0, 60, 103
3, 350012, Note_on_c, 0, 60, 0
3, 350012, Note_on_c, 0, 69, 0
3, 350016, Note_on_c, 0, 60, 92
3, 350016, Note_on_c, 0, 57, 92
3, 350204, Note_on_c, 0, 57, 0
3, 350204, Note_on_c, 0, 60, 0
3, 350208, Note_on_c, 0, 58, 89
3, 350220, Note_on_c, 0, 62, 89
3, 350972, Note_on_c, 0, 58, 0
3, 350976, Note_on_c, 0, 46, 89
3, 350984, Note_on_c, 0, 62, 0
3, 351068, Note_on_c, 0, 46, 0
3, 351072, Note_on_c, 0, 52, 87
3, 351164, Note_on_c, 0, 52, 0
3, 351168, Note_on_c, 0, 50, 85
3, 351260, Note_on_c, 0, 50, 0
3, 351264, Note_on_c, 0, 56, 84
3, 351356, Note_on_c, 0, 56, 0
3, 352512, Note_on_c, 0, 45, 89
3, 352512, Note_on_c, 0, 52, 89
3, 352604, Note_on_c, 0, 52, 0
3, 352704, Note_on_c, 0, 54, 92
3, 352796, Note_on_c, 0, 54, 0
3, 352896, Note_on_c, 0, 56, 96
3, 352988, Note_on_c, 0, 56, 0
3, 353088, Note_on_c, 0, 57, 99
3, 353180, Note_on_c, 0, 57, 0
3, 353280, Note_on_c, 0, 57, 103
3, 353372, Note_on_c, 0, 57, 0
3, 353472, Note_on_c, 0, 55, 105
3, 353564, Note_on_c, 0, 55, 0
3, 353660, Note_on_c, 0, 45, 0
3, 353664, Note_on_c, 0, 53, 109
3, 353756, Note_on_c, 0, 53, 0
3, 353856, Note_on_c, 0, 52, 112
3, 353948, Note_on_c, 0, 52, 0
3, 354048, Note_on_c, 0, 50, 112
3, 354048, Note_on_c, 0, 38, 112
3, 354188, Note_on_c, 0, 38, 0
3, 354188, Note_on_c, 0, 50, 0
3, 354624, Note_on_c, 0, 57, 112
3, 354716, Note_on_c, 0, 57, 0
3, 354816, Note_on_c, 0, 62, 113
3, 354908, Note_on_c, 0, 62, 0
3, 354960, Note_on_c, 0, 64, 116
3, 355004, Note_on_c, 0, 64, 0
3, 355008, Note_on_c, 0, 62, 113
3, 355100, Note_on_c, 0, 62, 0
3, 355104, Note_on_c, 0, 61, 112
3, 355196, Note_on_c, 0, 61, 0
3, 355200, Note_on_c, 0, 62, 113
3, 355292, Note_on_c, 0, 62, 0
3, 355392, Note_on_c, 0, 52, 119
3, 355392, Note_on_c, 0, 40, 119
3, 355484, Note_on_c, 0, 40, 0
3, 355484, Note_on_c, 0, 52, 0
3, 355584, Note_on_c, 0, 45, 119
3, 355584, Note_on_c, 0, 33, 119
3, 355676, Note_on_c, 0, 33, 0
3, 355676, Note_on_c, 0, 45, 0
3, 356928, Note_on_c, 0, 59, 119
3, 356928, Note_on_c, 0, 47, 119
3, 357116, Note_on_c, 0, 47, 0
3, 357116, Note_on_c, 0, 59, 0
3, 357120, Note_on_c, 0, 52, 119
3, 357120, Note_on_c, 0, 40, 119
3, 357212, Note_on_c, 0, 40, 0
3, 357212, Note_on_c, 0, 52, 0
3, 357696, Note_on_c, 0, 59, 112
3, 357788, Note_on_c, 0, 59, 0
3, 357888, Note_on_c, 0, 64, 112
3, 357980, Note_on_c, 0, 64, 0
3, 358032, Note_on_c, 0, 66, 112
3, 358076, Note_on_c, 0, 66, 0
3, 358080, Note_on_c, 0, 64, 112
3, 358172, Note_on_c, 0, 64, 0
3, 358176, Note_on_c, 0, 63, 112
3, 358268, Note_on_c, 0, 63, 0
3, 358272, Note_on_c, 0, 64, 112
3, 358364, Note_on_c, 0, 64, 0
3, 358464, Note_on_c, 0, 54, 119
3, 358464, Note_on_c, 0, 42, 119
3, 358556, Note_on_c, 0, 42, 0
3, 358556, Note_on_c, 0, 54, 0
3, 358656, Note_on_c, 0, 47, 119
3, 358656, Note_on_c, 0, 35, 119
3, 358748, Note_on_c, 0, 35, 0
3, 358748, Note_on_c, 0, 47, 0
3, 360000, Note_on_c, 0, 57, 119
3, 360000, Note_on_c, 0, 45, 119
3, 360092, Note_on_c, 0, 45, 0
3, 360092, Note_on_c, 0, 57, 0
3, 360192, Note_on_c, 0, 56, 112
3, 360192, Note_on_c, 0, 44, 112
3, 360956, Note_on_c, 0, 44, 0
3, 360956, Note_on_c, 0, 56, 0
3, 362496, Note_on_c, 0, 59, 103
3, 362588, Note_on_c, 0, 59, 0
3, 362688, Note_on_c, 0, 60, 105
3, 362780, Note_on_c, 0, 60, 0
3, 362880, Note_on_c, 0, 61, 109
3, 362972, Note_on_c, 0, 61, 0
3, 363072, Note_on_c, 0, 62, 112
3, 363164, Note_on_c, 0, 62, 0
3, 363264, Note_on_c, 0, 65, 109
3, 363452, Note_on_c, 0, 65, 0
3, 363456, Note_on_c, 0, 63, 105
3, 363644, Note_on_c, 0, 63, 0
3, 363648, Note_on_c, 0, 63, 103
3, 363648, Note_on_c, 0, 56, 103
3, 363740, Note_on_c, 0, 56, 0
3, 363740, Note_on_c, 0, 63, 0
3, 365568, Note_on_c, 0, 60, 103
3, 365660, Note_on_c, 0, 60, 0
3, 365760, Note_on_c, 0, 61, 103
3, 365852, Note_on_c, 0, 61, 0
3, 365952, Note_on_c, 0, 62, 103
3, 365952, Note_on_c, 0, 56, 103
3, 366044, Note_on_c, 0, 62, 0
3, 366140, Note_on_c, 0, 56, 0
3, 366144, Note_on_c, 0, 63, 103
3, 366236, Note_on_c, 0, 63, 0
3, 366336, Note_on_c, 0, 55, 103
3, 366336, Note_on_c, 0, 64, 103
3, 366428, Note_on_c, 0, 64, 0
3, 366912, Note_on_c, 0, 69, 119
3, 367100, Note_on_c, 0, 69, 0
3, 367104, Note_on_c, 0, 62, 116
3, 367196, Note_on_c, 0, 62, 0
3, 367296, Note_on_c, 0, 62, 112
3, 367388, Note_on_c, 0, 62, 0
3, 367680, Note_on_c, 0, 64, 112
3, 367680, Note_on_c, 0, 61, 112
3, 367868, Note_on_c, 0, 61, 0
3, 367868, Note_on_c, 0, 64, 0
3, 367872, Note_on_c, 0, 62, 112
3, 367872, Note_on_c, 0, 66, 112
3, 367964, Note_on_c, 0, 66, 0
3, 367964, Note_on_c, 0, 62, 0
3, 368064, Note_on_c, 0, 66, 112
3, 368064, Note_on_c, 0, 62, 112
3, 368156, Note_on_c, 0, 62, 0
3, 368156, Note_on_c, 0, 66, 0
3, 368448, Note_on_c, 0, 65, 109
3, 368448, Note_on_c, 0, 59, 109
3, 368636, Note_on_c, 0, 59, 0
3, 368636, Note_on_c, 0, 65, 0
3, 368640, Note_on_c, 0, 60, 105
3, 368640, Note_on_c, 0, 64, 105
3, 368732, Note_on_c, 0, 64, 0
3, 368732, Note_on_c, 0, 60, 0
3, 368832, Note_on_c, 0, 60, 103
3, 368832, Note_on_c, 0, 64, 103
3, 368924, Note_on_c, 0, 64, 0
3, 368924, Note_on_c, 0, 60, 0
3, 369020, Note_on_c, 0, 55, 0
3, 369216, Note_on_c, 0, 57, 96
3, 369216, Note_on_c, 0, 63, 96
3, 369404, Note_on_c, 0, 63, 0
3, 369404, Note_on_c, 0, 57, 0
3, 369408, Note_on_c, 0, 62, 92
3, 369408, Note_on_c, 0, 58, 92
3, 369500, Note_on_c, 0, 58, 0
3, 369500, Note_on_c, 0, 62, 0
3, 369600, Note_on_c, 0, 62, 89
3, 369600, Note_on_c, 0, 58, 89
3, 369788, Note_on_c, 0, 58, 0
3, 369788, Note_on_c, 0, 62, 0
3, 369792, Note_on_c, 0, 61, 83
3, 369792, Note_on_c, 0, 55, 83
3, 370172, Note_on_c, 0, 55, 0
3, 370172, Note_on_c, 0, 61, 0
3, 370176, Note_on_c, 0, 60, 83
3, 370176, Note_on_c, 0, 56, 83
3, 370556, Note_on_c, 0, 56, 0
3, 370556, Note_on_c, 0, 60, 0
3, 370560, Note_on_c, 0, 59, 83
3, 370560, Note_on_c, 0, 53, 83
3, 370940, Note_on_c, 0, 53, 0
3, 370940, Note_on_c, 0, 59, 0
3, 370944, Note_on_c, 0, 58, 87
3, 370944, Note_on_c, 0, 54, 87
3, 371324, Note_on_c, 0, 54, 0
3, 371324, Note_on_c, 0, 58, 0
3, 371328, Note_on_c, 0, 57, 92
3, 371328, Note_on_c, 0, 51, 92
3, 371708, Note_on_c, 0, 51, 0
3, 371708, Note_on_c, 0, 57, 0
3, 371712, Note_on_c, 0, 56, 99
3, 371712, Note_on_c, 0, 50, 99
3, 372092, Note_on_c, 0, 50, 0
3, 372092, Note_on_c, 0, 56, 0
3, 372096, Note_on_c, 0, 55, 105
3, 372096, Note_on_c, 0, 52, 105
3, 372476, Note_on_c, 0, 52, 0
3, 372476, Note_on_c, 0, 55, 0
3, 375552, Note_on_c, 0, 57, 112
3, 375552, Note_on_c, 0, 50, 112
3, 375552, Note_on_c, 0, 42, 112
3, 376316, Note_on_c, 0, 42, 0
3, 376316, Note_on_c, 0, 50, 0
3, 376316, Note_on_c, 0, 57, 0
3, 377088, Note_on_c, 0, 56, 112
3, 377088, Note_on_c, 0, 50, 112
3, 377088, Note_on_c, 0, 41, 112
3, 377852, Note_on_c, 0, 41, 0
3, 377852, Note_on_c, 0, 50, 0
3, 377852, Note_on_c, 0, 56, 0
3, 378624, Note_on_c, 0, 53, 112
3, 378624, Note_on_c, 0, 43, 112
3, 378624, Note_on_c, 0, 31, 112
3, 379772, Note_on_c, 0, 31, 0
3, 379772, Note_on_c, 0, 43, 0
3, 379772, Note_on_c, 0, 53, 0
3, 379776, Note_on_c, 0, 43, 112
3, 379964, Note_on_c, 0, 43, 0
3, 380160, Note_on_c, 0, 65, 113
3, 381308, Note_on_c, 0, 65, 0
3, 381312, Note_on_c, 0, 43, 119
3, 381500, Note_on_c, 0, 43, 0
3, 384000, Note_on_c, 0, 43, 123
3, 384000, Note_on_c, 0, 31, 123
3, 384188, Note_on_c, 0, 31, 0
3, 384188, Note_on_c, 0, 43, 0
3, 384768, Note_on_c, 0, 36, 123
3, 384768, Note_on_c, 0, 24, 123
3, 385148, Note_on_c, 0, 24, 0
3, 385148, Note_on_c, 0, 36, 0
3, 392448, Note_on_c, 0, 48, 103
3, 392448, Note_on_c, 0, 36, 103
3, 393212, Note_on_c, 0, 36, 0
3, 393212, Note_on_c, 0, 48, 0
3, 393216, Note_on_c, 0, 43, 103
3, 393216, Note_on_c, 0, 31, 103
3, 393980, Note_on_c, 0, 31, 0
3, 393980, Note_on_c, 0, 43, 0
3, 393984, Note_on_c, 0, 48, 103
3, 393984, Note_on_c, 0, 36, 103
3, 394364, Note_on_c, 0, 36, 0
3, 394364, Note_on_c, 0, 48, 0
3, 395520, Note_on_c, 0, 57, 103
3, 395520, Note_on_c, 0, 48, 103
3, 395520, Note_on_c, 0, 36, 103
3, 395612, Note_on_c, 0, 57, 0
3, 395616, Note_on_c, 0, 60, 103
3, 395708, Note_on_c, 0, 60, 0
3, 395712, Note_on_c, 0, 64, 103
3, 395804, Note_on_c, 0, 64, 0
3, 395808, Note_on_c, 0, 60, 103
3, 395900, Note_on_c, 0, 60, 0
3, 395904, Note_on_c, 0, 55, 103
3, 395996, Note_on_c, 0, 55, 0
3, 396000, Note_on_c, 0, 60, 103
3, 396092, Note_on_c, 0, 60, 0
3, 396096, Note_on_c, 0, 52, 103
3, 396188, Note_on_c, 0, 52, 0
3, 396192, Note_on_c, 0, 55, 103
3, 396284, Note_on_c, 0, 55, 0
3, 396284, Note_on_c, 0, 36, 0
3, 396284, Note_on_c, 0, 48, 0
3, 396288, Note_on_c, 0, 43, 103
3, 396288, Note_on_c, 0, 31, 103
3, 396288, Note_on_c, 0, 53, 103
3, 396380, Note_on_c, 0, 53, 0
3, 396384, Note_on_c, 0, 55, 103
3, 396476, Note_on_c, 0, 55, 0
3, 396480, Note_on_c, 0, 59, 103
3, 396572, Note_on_c, 0, 59, 0
3, 396576, Note_on_c, 0, 55, 103
3, 396668, Note_on_c, 0, 55, 0
3, 396672, Note_on_c, 0, 53, 103
3, 396764, Note_on_c, 0, 53, 0
3, 396768, Note_on_c, 0, 55, 103
3, 396860, Note_on_c, 0, 55, 0
3, 396864, Note_on_c, 0, 59, 103
3, 396956, Note_on_c, 0, 59, 0
3, 396960, Note_on_c, 0, 55, 103
3, 397052, Note_on_c, 0, 55, 0
3, 397052, Note_on_c, 0, 31, 0
3, 397052, Note_on_c, 0, 43, 0
3, 397056, Note_on_c, 0, 48, 112
3, 397056, Note_on_c, 0, 36, 112
3, 397148, Note_on_c, 0, 36, 0
3, 397148, Note_on_c, 0, 48, 0
3, 397152, Note_on_c, 0, 50, 112
3, 397152, Note_on_c, 0, 38, 112
3, 397244, Note_on_c, 0, 38, 0
3, 397244, Note_on_c, 0, 50, 0
3, 397248, Note_on_c, 0, 52, 112
3, 397248, Note_on_c, 0, 40, 112
3, 397340, Note_on_c, 0, 40, 0
3, 397340, Note_on_c, 0, 52, 0
3, 397344, Note_on_c, 0, 53, 112
3, 397344, Note_on_c, 0, 41, 112
3, 397436, Note_on_c, 0, 41, 0
3, 397436, Note_on_c, 0, 53, 0
3, 397440, Note_on_c, 0, 55, 112
3, 397440, Note_on_c, 0, 43, 112
3, 397532, Note_on_c, 0, 43, 0
3, 397532, Note_on_c, 0, 55, 0
3, 397536, Note_on_c, 0, 57, 112
3, 397536, Note_on_c, 0, 45, 112
3, 397628, Note_on_c, 0, 45, 0
3, 397628, Note_on_c, 0, 57, 0
3, 397632, Note_on_c, 0, 59, 112
3, 397632, Note_on_c, 0, 47, 112
3, 397724, Note_on_c, 0, 47, 0
3, 397724, Note_on_c, 0, 59, 0
3, 397728, Note_on_c, 0, 60, 112
3, 397728, Note_on_c, 0, 48, 112
3, 397820, Note_on_c, 0, 48, 0
3, 397820, Note_on_c, 0, 60, 0
3, 397824, Note_on_c, 0, 55, 112
3, 397824, Note_on_c, 0, 43, 112
3, 397916, Note_on_c, 0, 43, 0
3, 397916, Note_on_c, 0, 55, 0
3, 397920, Note_on_c, 0, 57, 112
3, 397920, Note_on_c, 0, 45, 112
3, 398012, Note_on_c, 0, 45, 0
3, 398012, Note_on_c, 0, 57, 0
3, 398016, Note_on_c, 0, 59, 112
3, 398016, Note_on_c, 0, 47, 112
3, 398108, Note_on_c, 0, 47, 0
3, 398108, Note_on_c, 0, 59, 0
3, 398112, Note_on_c, 0, 60, 112
3, 398112, Note_on_c, 0, 48, 112
3, 398204, Note_on_c, 0, 48, 0
3, 398204, Note_on_c, 0, 60, 0
3, 398208, Note_on_c, 0, 62, 112
3, 398208, Note_on_c, 0, 50, 112
3, 398300, Note_on_c, 0, 50, 0
3, 398300, Note_on_c, 0, 62, 0
3, 398304, Note_on_c, 0, 64, 112
3, 398304, Note_on_c, 0, 52, 112
3, 398396, Note_on_c, 0, 52, 0
3, 398396, Note_on_c, 0, 64, 0
3, 398400, Note_on_c, 0, 65, 112
3, 398400, Note_on_c, 0, 53, 112
3, 398492, Note_on_c, 0, 53, 0
3, 398492, Note_on_c, 0, 65, 0
3, 398496, Note_on_c, 0, 67, 112
3, 398496, Note_on_c, 0, 55, 112
3, 398588, Note_on_c, 0, 55, 0
3, 398588, Note_on_c, 0, 67, 0
3, 400896, Note_on_c, 0, 55, 119
3, 400896, Note_on_c, 0, 43, 119
3, 401276, Note_on_c, 0, 43, 0
3, 401276, Note_on_c, 0, 55, 0
3, 401280, Note_on_c, 0, 55, 119
3, 401280, Note_on_c, 0, 43, 119
3, 401660, Note_on_c, 0, 43, 0
3, 401660, Note_on_c, 0, 55, 0
3, 401664, Note_on_c, 0, 60, 119
3, 401664, Note_on_c, 0, 48, 119
3, 402044, Note_on_c, 0, 48, 0
3, 402044, Note_on_c, 0, 60, 0
3, 402044, End_track
4, 0, Start_track
4, 0, Title_t, "Piano"
4, 0, Control_c, 0, 0, 0
4, 0, Control_c, 0, 7, 110
4, 0, Control_c, 0, 10, 83
4, 0, Control_c, 0, 91, 63
4, 0, Control_c, 0, 93, 30
4, 0, Control_c, 0, 121, 0
4, 0, Control_c, 0, 32, 0
4, 1, Program_c, 0, 0
4, 384, Control_c, 0, 10, 43
4, 480, Control_c, 0, 91, 63
4, 576, Control_c, 0, 93, 40
4, 672, Program_c, 0, 0
4, 768, Note_on_c, 0, 76, 89
4, 860, Note_on_c, 0, 76, 0
4, 960, Note_on_c, 0, 77, 89
4, 1052, Note_on_c, 0, 77, 0
4, 1152, Note_on_c, 0, 78, 89
4, 1244, Note_on_c, 0, 78, 0
4, 1344, Note_on_c, 0, 79, 89
4, 1436, Note_on_c, 0, 79, 0
4, 1536, Note_on_c, 0, 81, 89
4, 1724, Note_on_c, 0, 81, 0
4, 1728, Note_on_c, 0, 79, 89
4, 1916, Note_on_c, 0, 79, 0
4, 1920, Note_on_c, 0, 77, 89
4, 2012, Note_on_c, 0, 77, 0
4, 2112, Note_on_c, 0, 76, 89
4, 2204, Note_on_c, 0, 76, 0
4, 2304, Note_on_c, 0, 65, 89
4, 2304, Note_on_c, 0, 74, 89
4, 2448, Note_on_c, 0, 76, 89
4, 2492, Note_on_c, 0, 76, 0
4, 2492, Note_on_c, 0, 74, 0
4, 2496, Note_on_c, 0, 74, 89
4, 2588, Note_on_c, 0, 74, 0
4, 2592, Note_on_c, 0, 72, 89
4, 2684, Note_on_c, 0, 72, 0
4, 2684, Note_on_c, 0, 65, 0
4, 2688, Note_on_c, 0, 74, 89
4, 2688, Note_on_c, 0, 65, 89
4, 2876, Note_on_c, 0, 65, 0
4, 2876, Note_on_c, 0, 74, 0
4, 2880, Note_on_c, 0, 74, 89
4, 2880, Note_on_c, 0, 65, 89
4, 2972, Note_on_c, 0, 65, 0
4, 2972, Note_on_c, 0, 74, 0
4, 3072, Note_on_c, 0, 74, 89
4, 3072, Note_on_c, 0, 65, 89
4, 3452, Note_on_c, 0, 65, 0
4, 3452, Note_on_c, 0, 74, 0
4, 3456, Note_on_c, 0, 76, 89
4, 3456, Note_on_c, 0, 64, 89
4, 3644, Note_on_c, 0, 64, 0
4, 3644, Note_on_c, 0, 76, 0
4, 3648, Note_on_c, 0, 72, 89
4, 3836, Note_on_c, 0, 72, 0
4, 3840, Note_on_c, 0, 76, 89
4, 3932, Note_on_c, 0, 76, 0
4, 4032, Note_on_c, 0, 77, 89
4, 4124, Note_on_c, 0, 77, 0
4, 4224, Note_on_c, 0, 78, 89
4, 4316, Note_on_c, 0, 78, 0
4, 4416, Note_on_c, 0, 79, 89
4, 4508, Note_on_c, 0, 79, 0
4, 4608, Note_on_c, 0, 81, 89
4, 4796, Note_on_c, 0, 81, 0
4, 4800, Note_on_c, 0, 79, 89
4, 4988, Note_on_c, 0, 79, 0
4, 4992, Note_on_c, 0, 77, 89
4, 5084, Note_on_c, 0, 77, 0
4, 5184, Note_on_c, 0, 76, 89
4, 5276, Note_on_c, 0, 76, 0
4, 5376, Note_on_c, 0, 74, 89
4, 5376, Note_on_c, 0, 65, 89
4, 5520, Note_on_c, 0, 76, 89
4, 5564, Note_on_c, 0, 76, 0
4, 5564, Note_on_c, 0, 74, 0
4, 5568, Note_on_c, 0, 74, 89
4, 5660, Note_on_c, 0, 74, 0
4, 5664, Note_on_c, 0, 72, 89
4, 5756, Note_on_c, 0, 72, 0
4, 5756, Note_on_c, 0, 65, 0
4, 5760, Note_on_c, 0, 74, 89
4, 5760, Note_on_c, 0, 65, 89
4, 5948, Note_on_c, 0, 65, 0
4, 5948, Note_on_c, 0, 74, 0
4, 5952, Note_on_c, 0, 76, 89
4, 5952, Note_on_c, 0, 64, 89
4, 6044, Note_on_c, 0, 64, 0
4, 6044, Note_on_c, 0, 76, 0
4, 6144, Note_on_c, 0, 72, 89
4, 6144, Note_on_c, 0, 65, 89
4, 6524, Note_on_c, 0, 65, 0
4, 6524, Note_on_c, 0, 72, 0
4, 6912, Note_on_c, 0, 76, 89
4, 7004, Note_on_c, 0, 76, 0
4, 7104, Note_on_c, 0, 77, 89
4, 7196, Note_on_c, 0, 77, 0
4, 7296, Note_on_c, 0, 78, 89
4, 7388, Note_on_c, 0, 78, 0
4, 7488, Note_on_c, 0, 79, 89
4, 7580, Note_on_c, 0, 79, 0
4, 7680, Note_on_c, 0, 81, 89
4, 7868, Note_on_c, 0, 81, 0
4, 7872, Note_on_c, 0, 79, 89
4, 8060, Note_on_c, 0, 79, 0
4, 8064, Note_on_c, 0, 77, 89
4, 8156, Note_on_c, 0, 77, 0
4, 8256, Note_on_c, 0, 76, 89
4, 8348, Note_on_c, 0, 76, 0
4, 8448, Note_on_c, 0, 65, 89
4, 8448, Note_on_c, 0, 74, 89
4, 8592, Note_on_c, 0, 76, 89
4, 8636, Note_on_c, 0, 76, 0
4, 8636, Note_on_c, 0, 74, 0
4, 8640, Note_on_c, 0, 74, 89
4, 8732, Note_on_c, 0, 74, 0
4, 8736, Note_on_c, 0, 72, 89
4, 8828, Note_on_c, 0, 72, 0
4, 8828, Note_on_c, 0, 65, 0
4, 8832, Note_on_c, 0, 74, 89
4, 8832, Note_on_c, 0, 65, 89
4, 9020, Note_on_c, 0, 65, 0
4, 9020, Note_on_c, 0, 74, 0
4, 9024, Note_on_c, 0, 74, 89
4, 9024, Note_on_c, 0, 65, 89
4, 9116, Note_on_c, 0, 65, 0
4, 9116, Note_on_c, 0, 74, 0
4, 9216, Note_on_c, 0, 74, 89
4, 9216, Note_on_c, 0, 65, 89
4, 9596, Note_on_c, 0, 65, 0
4, 9596, Note_on_c, 0, 74, 0
4, 9600, Note_on_c, 0, 76, 89
4, 9600, Note_on_c, 0, 64, 89
4, 9788, Note_on_c, 0, 64, 0
4, 9788, Note_on_c, 0, 76, 0
4, 9792, Note_on_c, 0, 72, 89
4, 9980, Note_on_c, 0, 72, 0
4, 9984, Note_on_c, 0, 76, 89
4, 10076, Note_on_c, 0, 76, 0
4, 10176, Note_on_c, 0, 77, 89
4, 10268, Note_on_c, 0, 77, 0
4, 10368, Note_on_c, 0, 78, 89
4, 10460, Note_on_c, 0, 78, 0
4, 10560, Note_on_c, 0, 79, 89
4, 10652, Note_on_c, 0, 79, 0
4, 10752, Note_on_c, 0, 81, 89
4, 10940, Note_on_c, 0, 81, 0
4, 10944, Note_on_c, 0, 79, 89
4, 11132, Note_on_c, 0, 79, 0
4, 11136, Note_on_c, 0, 77, 89
4, 11228, Note_on_c, 0, 77, 0
4, 11328, Note_on_c, 0, 76, 89
4, 11420, Note_on_c, 0, 76, 0
4, 11520, Note_on_c, 0, 74, 89
4, 11520, Note_on_c, 0, 65, 89
4, 11664, Note_on_c, 0, 76, 89
4, 11708, Note_on_c, 0, 76, 0
4, 11708, Note_on_c, 0, 74, 0
4, 11712, Note_on_c, 0, 74, 89
4, 11804, Note_on_c, 0, 74, 0
4, 11808, Note_on_c, 0, 72, 89
4, 11900, Note_on_c, 0, 72, 0
4, 11900, Note_on_c, 0, 65, 0
4, 11904, Note_on_c, 0, 74, 89
4, 11904, Note_on_c, 0, 65, 89
4, 12092, Note_on_c, 0, 65, 0
4, 12092, Note_on_c, 0, 74, 0
4, 12096, Note_on_c, 0, 76, 89
4, 12096, Note_on_c, 0, 64, 89
4, 12188, Note_on_c, 0, 64, 0
4, 12188, Note_on_c, 0, 76, 0
4, 12288, Note_on_c, 0, 72, 89
4, 12288, Note_on_c, 0, 65, 89
4, 12668, Note_on_c, 0, 65, 0
4, 12668, Note_on_c, 0, 72, 0
4, 13056, Note_on_c, 0, 74, 89
4, 13148, Note_on_c, 0, 74, 0
4, 13248, Note_on_c, 0, 75, 89
4, 13340, Note_on_c, 0, 75, 0
4, 13440, Note_on_c, 0, 76, 89
4, 13532, Note_on_c, 0, 76, 0
4, 13632, Note_on_c, 0, 77, 89
4, 13724, Note_on_c, 0, 77, 0
4, 13824, Note_on_c, 0, 79, 89
4, 14012, Note_on_c, 0, 79, 0
4, 14016, Note_on_c, 0, 79, 89
4, 14016, Note_on_c, 0, 77, 89
4, 14204, Note_on_c, 0, 77, 0
4, 14204, Note_on_c, 0, 79, 0
4, 14208, Note_on_c, 0, 78, 89
4, 14208, Note_on_c, 0, 74, 89
4, 14396, Note_on_c, 0, 74, 0
4, 14396, Note_on_c, 0, 78, 0
4, 14400, Note_on_c, 0, 79, 89
4, 14400, Note_on_c, 0, 77, 89
4, 14400, Note_on_c, 0, 74, 89
4, 14588, Note_on_c, 0, 74, 0
4, 14588, Note_on_c, 0, 77, 0
4, 14588, Note_on_c, 0, 79, 0
4, 14592, Note_on_c, 0, 79, 89
4, 14592, Note_on_c, 0, 76, 89
4, 14780, Note_on_c, 0, 76, 0
4, 14780, Note_on_c, 0, 79, 0
4, 14784, Note_on_c, 0, 79, 89
4, 14784, Note_on_c, 0, 77, 89
4, 14784, Note_on_c, 0, 74, 89
4, 14972, Note_on_c, 0, 74, 0
4, 14972, Note_on_c, 0, 77, 0
4, 14972, Note_on_c, 0, 79, 0
4, 14976, Note_on_c, 0, 78, 89
4, 14976, Note_on_c, 0, 74, 89
4, 14976, Note_on_c, 0, 71, 89
4, 15164, Note_on_c, 0, 71, 0
4, 15164, Note_on_c, 0, 74, 0
4, 15164, Note_on_c, 0, 78, 0
4, 15168, Note_on_c, 0, 79, 89
4, 15168, Note_on_c, 0, 77, 89
4, 15168, Note_on_c, 0, 74, 89
4, 15356, Note_on_c, 0, 74, 0
4, 15356, Note_on_c, 0, 77, 0
4, 15356, Note_on_c, 0, 79, 0
4, 15360, Note_on_c, 0, 79, 89
4, 15360, Note_on_c, 0, 76, 89
4, 15548, Note_on_c, 0, 76, 0
4, 15548, Note_on_c, 0, 79, 0
4, 15552, Note_on_c, 0, 79, 89
4, 15552, Note_on_c, 0, 77, 89
4, 15552, Note_on_c, 0, 74, 89
4, 15740, Note_on_c, 0, 74, 0
4, 15740, Note_on_c, 0, 77, 0
4, 15740, Note_on_c, 0, 79, 0
4, 15744, Note_on_c, 0, 78, 89
4, 15744, Note_on_c, 0, 74, 89
4, 15744, Note_on_c, 0, 71, 89
4, 15932, Note_on_c, 0, 71, 0
4, 15932, Note_on_c, 0, 74, 0
4, 15932, Note_on_c, 0, 78, 0
4, 15936, Note_on_c, 0, 79, 89
4, 15936, Note_on_c, 0, 74, 89
4, 16124, Note_on_c, 0, 74, 0
4, 16124, Note_on_c, 0, 79, 0
4, 16128, Note_on_c, 0, 75, 89
4, 16220, Note_on_c, 0, 75, 0
4, 16320, Note_on_c, 0, 76, 89
4, 16412, Note_on_c, 0, 76, 0
4, 16512, Note_on_c, 0, 77, 89
4, 16604, Note_on_c, 0, 77, 0
4, 16704, Note_on_c, 0, 78, 89
4, 16796, Note_on_c, 0, 78, 0
4, 16896, Note_on_c, 0, 81, 89
4, 17084, Note_on_c, 0, 81, 0
4, 17088, Note_on_c, 0, 79, 89
4, 17088, Note_on_c, 0, 84, 89
4, 17276, Note_on_c, 0, 84, 0
4, 17276, Note_on_c, 0, 79, 0
4, 17280, Note_on_c, 0, 76, 89
4, 17280, Note_on_c, 0, 83, 89
4, 17468, Note_on_c, 0, 83, 0
4, 17468, Note_on_c, 0, 76, 0
4, 17472, Note_on_c, 0, 76, 89
4, 17472, Note_on_c, 0, 79, 89
4, 17472, Note_on_c, 0, 84, 89
4, 17660, Note_on_c, 0, 84, 0
4, 17660, Note_on_c, 0, 79, 0
4, 17660, Note_on_c, 0, 76, 0
4, 17664, Note_on_c, 0, 77, 89
4, 17664, Note_on_c, 0, 81, 89
4, 17852, Note_on_c, 0, 81, 0
4, 17852, Note_on_c, 0, 77, 0
4, 17856, Note_on_c, 0, 76, 89
4, 17856, Note_on_c, 0, 79, 89
4, 17856, Note_on_c, 0, 84, 89
4, 18044, Note_on_c, 0, 84, 0
4, 18044, Note_on_c, 0, 79, 0
4, 18044, Note_on_c, 0, 76, 0
4, 18048, Note_on_c, 0, 76, 89
4, 18048, Note_on_c, 0, 72, 89
4, 18048, Note_on_c, 0, 83, 89
4, 18236, Note_on_c, 0, 83, 0
4, 18236, Note_on_c, 0, 72, 0
4, 18236, Note_on_c, 0, 76, 0
4, 18240, Note_on_c, 0, 79, 89
4, 18240, Note_on_c, 0, 76, 89
4, 18240, Note_on_c, 0, 84, 89
4, 18428, Note_on_c, 0, 84, 0
4, 18428, Note_on_c, 0, 76, 0
4, 18428, Note_on_c, 0, 79, 0
4, 18432, Note_on_c, 0, 81, 89
4, 18432, Note_on_c, 0, 77, 89
4, 18620, Note_on_c, 0, 77, 0
4, 18620, Note_on_c, 0, 81, 0
4, 18624, Note_on_c, 0, 79, 89
4, 18624, Note_on_c, 0, 84, 89
4, 18624, Note_on_c, 0, 76, 89
4, 18812, Note_on_c, 0, 76, 0
4, 18812, Note_on_c, 0, 84, 0
4, 18812, Note_on_c, 0, 79, 0
4, 18816, Note_on_c, 0, 76, 89
4, 18816, Note_on_c, 0, 72, 89
4, 18816, Note_on_c, 0, 83, 89
4, 19004, Note_on_c, 0, 83, 0
4, 19004, Note_on_c, 0, 72, 0
4, 19004, Note_on_c, 0, 76, 0
4, 19008, Note_on_c, 0, 79, 89
4, 19008, Note_on_c, 0, 84, 89
4, 19196, Note_on_c, 0, 84, 0
4, 19196, Note_on_c, 0, 79, 0
4, 19200, Note_on_c, 0, 84, 112
4, 19200, Note_on_c, 0, 72, 112
4, 19388, Note_on_c, 0, 72, 0
4, 19388, Note_on_c, 0, 84, 0
4, 19392, Note_on_c, 0, 83, 112
4, 19392, Note_on_c, 0, 71, 112
4, 19580, Note_on_c, 0, 71, 0
4, 19580, Note_on_c, 0, 83, 0
4, 19584, Note_on_c, 0, 81, 112
4, 19584, Note_on_c, 0, 69, 112
4, 19584, Note_on_c, 0, 72, 112
4, 19772, Note_on_c, 0, 69, 0
4, 19772, Note_on_c, 0, 81, 0
4, 19776, Note_on_c, 0, 80, 112
4, 19776, Note_on_c, 0, 68, 112
4, 19868, Note_on_c, 0, 72, 0
4, 19872, Note_on_c, 0, 72, 112
4, 19964, Note_on_c, 0, 72, 0
4, 19964, Note_on_c, 0, 68, 0
4, 19964, Note_on_c, 0, 80, 0
4, 19968, Note_on_c, 0, 81, 112
4, 19968, Note_on_c, 0, 69, 112
4, 19968, Note_on_c, 0, 72, 112
4, 20060, Note_on_c, 0, 69, 0
4, 20060, Note_on_c, 0, 81, 0
4, 20160, Note_on_c, 0, 79, 112
4, 20160, Note_on_c, 0, 67, 112
4, 20252, Note_on_c, 0, 67, 0
4, 20252, Note_on_c, 0, 79, 0
4, 20348, Note_on_c, 0, 72, 0
4, 20352, Note_on_c, 0, 77, 112
4, 20352, Note_on_c, 0, 65, 112
4, 20352, Note_on_c, 0, 72, 112
4, 20444, Note_on_c, 0, 65, 0
4, 20444, Note_on_c, 0, 77, 0
4, 20544, Note_on_c, 0, 76, 112
4, 20544, Note_on_c, 0, 64, 112
4, 20636, Note_on_c, 0, 64, 0
4, 20636, Note_on_c, 0, 76, 0
4, 20732, Note_on_c, 0, 72, 0
4, 20736, Note_on_c, 0, 77, 112
4, 20736, Note_on_c, 0, 65, 112
4, 20736, Note_on_c, 0, 72, 112
4, 20828, Note_on_c, 0, 65, 0
4, 20828, Note_on_c, 0, 77, 0
4, 20928, Note_on_c, 0, 76, 112
4, 20928, Note_on_c, 0, 64, 112
4, 21020, Note_on_c, 0, 64, 0
4, 21020, Note_on_c, 0, 76, 0
4, 21116, Note_on_c, 0, 72, 0
4, 21120, Note_on_c, 0, 74, 112
4, 21120, Note_on_c, 0, 62, 112
4, 21120, Note_on_c, 0, 72, 112
4, 21212, Note_on_c, 0, 62, 0
4, 21212, Note_on_c, 0, 74, 0
4, 21312, Note_on_c, 0, 72, 112
4, 21312, Note_on_c, 0, 60, 112
4, 21404, Note_on_c, 0, 60, 0
4, 21404, Note_on_c, 0, 72, 0
4, 21500, Note_on_c, 0, 72, 0
4, 21504, Note_on_c, 0, 79, 112
4, 21504, Note_on_c, 0, 74, 112
4, 21504, Note_on_c, 0, 71, 112
4, 21504, Note_on_c, 0, 67, 112
4, 21884, Note_on_c, 0, 67, 0
4, 21884, Note_on_c, 0, 79, 0
4, 21884, Note_on_c, 0, 74, 0
4, 21884, Note_on_c, 0, 71, 0
4, 29184, Note_on_c, 0, 67, 83
4, 29184, Note_on_c, 0, 64, 83
4, 29564, Note_on_c, 0, 64, 0
4, 29564, Note_on_c, 0, 67, 0
4, 29952, Note_on_c, 0, 71, 83
4, 29952, Note_on_c, 0, 65, 83
4, 29952, Note_on_c, 0, 62, 83
4, 30332, Note_on_c, 0, 62, 0
4, 30332, Note_on_c, 0, 65, 0
4, 30332, Note_on_c, 0, 71, 0
4, 30720, Note_on_c, 0, 71, 83
4, 30720, Note_on_c, 0, 65, 83
4, 30720, Note_on_c, 0, 67, 83
4, 31100, Note_on_c, 0, 65, 0
4, 31100, Note_on_c, 0, 71, 0
4, 31292, Note_on_c, 0, 67, 0
4, 31296, Note_on_c, 0, 72, 83
4, 31296, Note_on_c, 0, 64, 83
4, 31484, Note_on_c, 0, 64, 0
4, 31484, Note_on_c, 0, 72, 0
4, 32256, Note_on_c, 0, 67, 83
4, 32256, Note_on_c, 0, 64, 83
4, 32636, Note_on_c, 0, 64, 0
4, 32636, Note_on_c, 0, 67, 0
4, 33024, Note_on_c, 0, 71, 83
4, 33024, Note_on_c, 0, 65, 83
4, 33024, Note_on_c, 0, 62, 83
4, 33404, Note_on_c, 0, 62, 0
4, 33404, Note_on_c, 0, 65, 0
4, 33404, Note_on_c, 0, 71, 0
4, 33792, Note_on_c, 0, 84, 112
4, 33792, Note_on_c, 0, 79, 112
4, 33792, Note_on_c, 0, 76, 112
4, 33792, Note_on_c, 0, 72, 112
4, 34556, Note_on_c, 0, 72, 0
4, 34556, Note_on_c, 0, 84, 0
4, 34556, Note_on_c, 0, 79, 0
4, 34556, Note_on_c, 0, 76, 0
4, 34560, Note_on_c, 0, 84, 112
4, 34560, Note_on_c, 0, 81, 112
4, 34560, Note_on_c, 0, 77, 112
4, 34560, Note_on_c, 0, 72, 112
4, 34940, Note_on_c, 0, 72, 0
4, 34940, Note_on_c, 0, 84, 0
4, 34940, Note_on_c, 0, 81, 0
4, 34940, Note_on_c, 0, 77, 0
4, 34944, Note_on_c, 0, 81, 112
4, 34944, Note_on_c, 0, 72, 112
4, 34944, Note_on_c, 0, 77, 112
4, 35324, Note_on_c, 0, 77, 0
4, 35324, Note_on_c, 0, 72, 0
4, 35324, Note_on_c, 0, 81, 0
4, 35328, Note_on_c, 0, 79, 112
4, 35328, Note_on_c, 0, 76, 112
4, 35328, Note_on_c, 0, 72, 112
4, 35900, Note_on_c, 0, 72, 0
4, 35900, Note_on_c, 0, 76, 0
4, 35900, Note_on_c, 0, 79, 0
4, 35904, Note_on_c, 0, 76, 112
4, 35996, Note_on_c, 0, 76, 0
4, 36000, Note_on_c, 0, 72, 112
4, 36092, Note_on_c, 0, 72, 0
4, 36096, Note_on_c, 0, 84, 112
4, 36096, Note_on_c, 0, 81, 112
4, 36096, Note_on_c, 0, 77, 112
4, 36096, Note_on_c, 0, 72, 112
4, 36476, Note_on_c, 0, 72, 0
4, 36476, Note_on_c, 0, 84, 0
4, 36476, Note_on_c, 0, 81, 0
4, 36476, Note_on_c, 0, 77, 0
4, 36480, Note_on_c, 0, 81, 112
4, 36480, Note_on_c, 0, 77, 112
4, 36480, Note_on_c, 0, 72, 112
4, 36860, Note_on_c, 0, 72, 0
4, 36860, Note_on_c, 0, 77, 0
4, 36860, Note_on_c, 0, 81, 0
4, 36864, Note_on_c, 0, 79, 112
4, 36864, Note_on_c, 0, 76, 112
4, 36864, Note_on_c, 0, 72, 112
4, 37436, Note_on_c, 0, 72, 0
4, 37436, Note_on_c, 0, 76, 0
4, 37436, Note_on_c, 0, 79, 0
4, 37440, Note_on_c, 0, 76, 112
4, 37532, Note_on_c, 0, 76, 0
4, 37536, Note_on_c, 0, 72, 112
4, 37628, Note_on_c, 0, 72, 0
4, 37632, Note_on_c, 0, 84, 112
4, 37632, Note_on_c, 0, 81, 112
4, 37632, Note_on_c, 0, 77, 112
4, 37632, Note_on_c, 0, 72, 112
4, 38012, Note_on_c, 0, 72, 0
4, 38012, Note_on_c, 0, 84, 0
4, 38012, Note_on_c, 0, 81, 0
4, 38012, Note_on_c, 0, 77, 0
4, 38016, Note_on_c, 0, 81, 112
4, 38016, Note_on_c, 0, 77, 112
4, 38016, Note_on_c, 0, 72, 112
4, 38396, Note_on_c, 0, 72, 0
4, 38396, Note_on_c, 0, 77, 0
4, 38396, Note_on_c, 0, 81, 0
4, 38400, Note_on_c, 0, 79, 112
4, 38400, Note_on_c, 0, 76, 112
4, 38400, Note_on_c, 0, 72, 112
4, 38588, Note_on_c, 0, 72, 0
4, 38588, Note_on_c, 0, 76, 0
4, 38588, Note_on_c, 0, 79, 0
4, 38592, Note_on_c, 0, 79, 112
4, 38684, Note_on_c, 0, 79, 0
4, 38784, Note_on_c, 0, 88, 112
4, 38972, Note_on_c, 0, 88, 0
4, 38976, Note_on_c, 0, 88, 112
4, 38976, Note_on_c, 0, 79, 112
4, 38976, Note_on_c, 0, 76, 112
4, 39164, Note_on_c, 0, 76, 0
4, 39164, Note_on_c, 0, 79, 0
4, 39164, Note_on_c, 0, 88, 0
4, 39168, Note_on_c, 0, 86, 112
4, 39168, Note_on_c, 0, 77, 112
4, 39168, Note_on_c, 0, 74, 112
4, 39360, Note_on_c, 0, 77, 112
4, 39452, Note_on_c, 0, 77, 0
4, 39548, Note_on_c, 0, 86, 0
4, 39548, Note_on_c, 0, 74, 0
4, 39548, Note_on_c, 0, 77, 0
4, 39552, Note_on_c, 0, 86, 112
4, 39740, Note_on_c, 0, 86, 0
4, 39744, Note_on_c, 0, 86, 112
4, 39744, Note_on_c, 0, 77, 112
4, 39744, Note_on_c, 0, 74, 112
4, 39932, Note_on_c, 0, 74, 0
4, 39932, Note_on_c, 0, 77, 0
4, 39932, Note_on_c, 0, 86, 0
4, 39936, Note_on_c, 0, 84, 112
4, 39936, Note_on_c, 0, 76, 112
4, 39936, Note_on_c, 0, 72, 112
4, 40128, Note_on_c, 0, 76, 112
4, 40220, Note_on_c, 0, 76, 0
4, 40316, Note_on_c, 0, 84, 0
4, 40316, Note_on_c, 0, 72, 0
4, 40316, Note_on_c, 0, 76, 0
4, 40320, Note_on_c, 0, 84, 112
4, 40508, Note_on_c, 0, 84, 0
4, 40512, Note_on_c, 0, 84, 112
4, 40512, Note_on_c, 0, 76, 112
4, 40512, Note_on_c, 0, 72, 112
4, 40700, Note_on_c, 0, 72, 0
4, 40700, Note_on_c, 0, 76, 0
4, 40700, Note_on_c, 0, 84, 0
4, 40704, Note_on_c, 0, 89, 112
4, 40704, Note_on_c, 0, 86, 112
4, 40704, Note_on_c, 0, 77, 112
4, 40896, Note_on_c, 0, 77, 112
4, 41084, Note_on_c, 0, 77, 0
4, 41084, Note_on_c, 0, 89, 0
4, 41084, Note_on_c, 0, 86, 0
4, 41084, Note_on_c, 0, 77, 0
4, 41088, Note_on_c, 0, 81, 112
4, 41280, Note_on_c, 0, 89, 112
4, 41280, Note_on_c, 0, 86, 112
4, 41280, Note_on_c, 0, 77, 112
4, 41468, Note_on_c, 0, 77, 0
4, 41468, Note_on_c, 0, 81, 0
4, 41468, Note_on_c, 0, 89, 0
4, 41468, Note_on_c, 0, 86, 0
4, 41472, Note_on_c, 0, 77, 112
4, 41472, Note_on_c, 0, 84, 112
4, 41472, Note_on_c, 0, 88, 112
4, 41664, Note_on_c, 0, 76, 112
4, 41852, Note_on_c, 0, 76, 0
4, 41852, Note_on_c, 0, 77, 0
4, 41852, Note_on_c, 0, 84, 0
4, 41852, Note_on_c, 0, 88, 0
4, 41856, Note_on_c, 0, 79, 112
4, 42048, Note_on_c, 0, 88, 112
4, 42048, Note_on_c, 0, 84, 112
4, 42048, Note_on_c, 0, 76, 112
4, 42236, Note_on_c, 0, 76, 0
4, 42236, Note_on_c, 0, 79, 0
4, 42236, Note_on_c, 0, 88, 0
4, 42236, Note_on_c, 0, 84, 0
4, 42240, Note_on_c, 0, 86, 112
4, 42240, Note_on_c, 0, 83, 112
4, 42240, Note_on_c, 0, 74, 112
4, 42432, Note_on_c, 0, 74, 112
4, 42620, Note_on_c, 0, 74, 0
4, 42620, Note_on_c, 0, 86, 0
4, 42620, Note_on_c, 0, 83, 0
4, 42620, Note_on_c, 0, 74, 0
4, 42624, Note_on_c, 0, 77, 112
4, 42812, Note_on_c, 0, 77, 0
4, 42816, Note_on_c, 0, 71, 112
4, 43004, Note_on_c, 0, 71, 0
4, 43008, Note_on_c, 0, 72, 112
4, 43388, Note_on_c, 0, 72, 0
4, 43776, Note_on_c, 0, 53, 89
4, 43776, Note_on_c, 0, 81, 89
4, 43788, Note_on_c, 0, 69, 89
4, 43804, Note_on_c, 0, 72, 89
4, 43964, Note_on_c, 0, 81, 0
4, 43968, Note_on_c, 0, 60, 89
4, 43968, Note_on_c, 0, 82, 89
4, 44156, Note_on_c, 0, 82, 0
4, 44156, Note_on_c, 0, 53, 0
4, 44156, Note_on_c, 0, 60, 0
4, 44160, Note_on_c, 0, 57, 89
4, 44160, Note_on_c, 0, 60, 89
4, 44160, Note_on_c, 0, 83, 89
4, 44160, Note_on_c, 0, 65, 89
4, 44160, Note_on_c, 0, 69, 89
4, 44168, Note_on_c, 0, 69, 0
4, 44184, Note_on_c, 0, 72, 0
4, 44348, Note_on_c, 0, 60, 0
4, 44348, Note_on_c, 0, 83, 0
4, 44352, Note_on_c, 0, 60, 89
4, 44352, Note_on_c, 0, 84, 89
4, 44540, Note_on_c, 0, 84, 0
4, 44540, Note_on_c, 0, 65, 0
4, 44540, Note_on_c, 0, 57, 0
4, 44540, Note_on_c, 0, 69, 0
4, 44540, Note_on_c, 0, 60, 0
4, 44544, Note_on_c, 0, 67, 89
4, 44544, Note_on_c, 0, 64, 89
4, 44544, Note_on_c, 0, 60, 89
4, 44544, Note_on_c, 0, 76, 89
4, 44544, Note_on_c, 0, 86, 89
4, 44732, Note_on_c, 0, 86, 0
4, 44732, Note_on_c, 0, 60, 0
4, 44732, Note_on_c, 0, 76, 0
4, 44736, Note_on_c, 0, 60, 89
4, 44736, Note_on_c, 0, 77, 89
4, 44736, Note_on_c, 0, 84, 89
4, 44924, Note_on_c, 0, 84, 0
4, 44924, Note_on_c, 0, 60, 0
4, 44924, Note_on_c, 0, 77, 0
4, 44928, Note_on_c, 0, 60, 89
4, 44928, Note_on_c, 0, 78, 89
4, 44928, Note_on_c, 0, 75, 89
4, 45116, Note_on_c, 0, 75, 0
4, 45116, Note_on_c, 0, 60, 0
4, 45116, Note_on_c, 0, 67, 0
4, 45116, Note_on_c, 0, 64, 0
4, 45116, Note_on_c, 0, 78, 0
4, 45120, Note_on_c, 0, 60, 89
4, 45120, Note_on_c, 0, 79, 89
4, 45120, Note_on_c, 0, 76, 89
4, 45120, Note_on_c, 0, 64, 89
4, 45308, Note_on_c, 0, 64, 0
4, 45308, Note_on_c, 0, 60, 0
4, 45308, Note_on_c, 0, 79, 0
4, 45308, Note_on_c, 0, 76, 0
4, 45312, Note_on_c, 0, 53, 89
4, 45312, Note_on_c, 0, 81, 89
4, 45312, Note_on_c, 0, 77, 89
4, 45324, Note_on_c, 0, 69, 89
4, 45340, Note_on_c, 0, 72, 89
4, 45500, Note_on_c, 0, 81, 0
4, 45504, Note_on_c, 0, 60, 89
4, 45504, Note_on_c, 0, 82, 89
4, 45692, Note_on_c, 0, 82, 0
4, 45692, Note_on_c, 0, 77, 0
4, 45692, Note_on_c, 0, 53, 0
4, 45692, Note_on_c, 0, 60, 0
4, 45696, Note_on_c, 0, 57, 89
4, 45696, Note_on_c, 0, 65, 89
4, 45696, Note_on_c, 0, 69, 89
4, 45696, Note_on_c, 0, 83, 89
4, 45696, Note_on_c, 0, 60, 89
4, 45704, Note_on_c, 0, 69, 0
4, 45720, Note_on_c, 0, 72, 0
4, 45884, Note_on_c, 0, 83, 0
4, 45884, Note_on_c, 0, 60, 0
4, 45888, Note_on_c, 0, 60, 89
4, 45888, Note_on_c, 0, 84, 89
4, 46076, Note_on_c, 0, 84, 0
4, 46076, Note_on_c, 0, 65, 0
4, 46076, Note_on_c, 0, 57, 0
4, 46076, Note_on_c, 0, 69, 0
4, 46076, Note_on_c, 0, 60, 0
4, 46080, Note_on_c, 0, 64, 89
4, 46080, Note_on_c, 0, 67, 89
4, 46080, Note_on_c, 0, 60, 89
4, 46080, Note_on_c, 0, 76, 89
4, 46080, Note_on_c, 0, 86, 89
4, 46268, Note_on_c, 0, 86, 0
4, 46268, Note_on_c, 0, 60, 0
4, 46268, Note_on_c, 0, 76, 0
4, 46272, Note_on_c, 0, 60, 89
4, 46272, Note_on_c, 0, 77, 89
4, 46272, Note_on_c, 0, 84, 89
4, 46460, Note_on_c, 0, 84, 0
4, 46460, Note_on_c, 0, 60, 0
4, 46460, Note_on_c, 0, 77, 0
4, 46464, Note_on_c, 0, 60, 89
4, 46464, Note_on_c, 0, 78, 89
4, 46464, Note_on_c, 0, 75, 89
4, 46652, Note_on_c, 0, 75, 0
4, 46652, Note_on_c, 0, 60, 0
4, 46652, Note_on_c, 0, 64, 0
4, 46652, Note_on_c, 0, 67, 0
4, 46652, Note_on_c, 0, 78, 0
4, 46656, Note_on_c, 0, 60, 89
4, 46656, Note_on_c, 0, 64, 89
4, 46656, Note_on_c, 0, 79, 89
4, 46656, Note_on_c, 0, 76, 89
4, 46844, Note_on_c, 0, 76, 0
4, 46844, Note_on_c, 0, 60, 0
4, 46844, Note_on_c, 0, 64, 0
4, 46844, Note_on_c, 0, 79, 0
4, 46848, Note_on_c, 0, 53, 89
4, 46848, Note_on_c, 0, 77, 89
4, 46848, Note_on_c, 0, 81, 89
4, 46860, Note_on_c, 0, 69, 89
4, 46876, Note_on_c, 0, 72, 89
4, 47036, Note_on_c, 0, 81, 0
4, 47040, Note_on_c, 0, 60, 89
4, 47040, Note_on_c, 0, 82, 89
4, 47228, Note_on_c, 0, 82, 0
4, 47228, Note_on_c, 0, 77, 0
4, 47228, Note_on_c, 0, 53, 0
4, 47228, Note_on_c, 0, 60, 0
4, 47232, Note_on_c, 0, 60, 89
4, 47232, Note_on_c, 0, 69, 89
4, 47232, Note_on_c, 0, 65, 89
4, 47232, Note_on_c, 0, 57, 89
4, 47232, Note_on_c, 0, 83, 89
4, 47240, Note_on_c, 0, 69, 0
4, 47256, Note_on_c, 0, 72, 0
4, 47420, Note_on_c, 0, 60, 0
4, 47420, Note_on_c, 0, 83, 0
4, 47424, Note_on_c, 0, 60, 89
4, 47424, Note_on_c, 0, 84, 89
4, 47612, Note_on_c, 0, 84, 0
4, 47612, Note_on_c, 0, 69, 0
4, 47612, Note_on_c, 0, 57, 0
4, 47612, Note_on_c, 0, 65, 0
4, 47612, Note_on_c, 0, 60, 0
4, 47616, Note_on_c, 0, 60, 112
4, 47616, Note_on_c, 0, 48, 112
4, 47616, Note_on_c, 0, 86, 112
4, 47708, Note_on_c, 0, 48, 0
4, 47708, Note_on_c, 0, 60, 0
4, 47712, Note_on_c, 0, 67, 112
4, 47712, Note_on_c, 0, 64, 112
4, 47804, Note_on_c, 0, 86, 0
4, 47808, Note_on_c, 0, 79, 112
4, 47808, Note_on_c, 0, 76, 112
4, 47808, Note_on_c, 0, 84, 112
4, 47900, Note_on_c, 0, 76, 0
4, 47900, Note_on_c, 0, 79, 0
4, 47996, Note_on_c, 0, 67, 0
4, 47996, Note_on_c, 0, 64, 0
4, 47996, Note_on_c, 0, 84, 0
4, 48000, Note_on_c, 0, 67, 112
4, 48000, Note_on_c, 0, 64, 112
4, 48000, Note_on_c, 0, 79, 112
4, 48000, Note_on_c, 0, 76, 112
4, 48092, Note_on_c, 0, 76, 0
4, 48092, Note_on_c, 0, 67, 0
4, 48092, Note_on_c, 0, 64, 0
4, 48092, Note_on_c, 0, 79, 0
4, 48192, Note_on_c, 0, 67, 112
4, 48192, Note_on_c, 0, 64, 112
4, 48192, Note_on_c, 0, 79, 112
4, 48192, Note_on_c, 0, 76, 112
4, 48284, Note_on_c, 0, 76, 0
4, 48284, Note_on_c, 0, 67, 0
4, 48284, Note_on_c, 0, 64, 0
4, 48284, Note_on_c, 0, 79, 0
4, 48384, Note_on_c, 0, 79, 112
4, 48384, Note_on_c, 0, 76, 112
4, 48428, Note_on_c, 0, 79, 0
4, 48432, Note_on_c, 0, 81, 112
4, 48476, Note_on_c, 0, 81, 0
4, 48480, Note_on_c, 0, 79, 112
4, 48524, Note_on_c, 0, 79, 0
4, 48528, Note_on_c, 0, 81, 112
4, 48572, Note_on_c, 0, 81, 0
4, 48572, Note_on_c, 0, 76, 0
4, 48576, Note_on_c, 0, 77, 112
4, 48576, Note_on_c, 0, 74, 112
4, 48764, Note_on_c, 0, 74, 0
4, 48764, Note_on_c, 0, 77, 0
4, 48768, Note_on_c, 0, 74, 112
4, 48768, Note_on_c, 0, 77, 112
4, 48860, Note_on_c, 0, 77, 0
4, 48860, Note_on_c, 0, 74, 0
4, 48960, Note_on_c, 0, 77, 112
4, 48960, Note_on_c, 0, 74, 112
4, 49052, Note_on_c, 0, 74, 0
4, 49052, Note_on_c, 0, 77, 0
4, 49152, Note_on_c, 0, 77, 112
4, 49152, Note_on_c, 0, 74, 112
4, 49196, Note_on_c, 0, 77, 0
4, 49200, Note_on_c, 0, 79, 112
4, 49244, Note_on_c, 0, 79, 0
4, 49248, Note_on_c, 0, 77, 112
4, 49292, Note_on_c, 0, 77, 0
4, 49296, Note_on_c, 0, 79, 112
4, 49340, Note_on_c, 0, 79, 0
4, 49340, Note_on_c, 0, 74, 0
4, 49344, Note_on_c, 0, 76, 112
4, 49344, Note_on_c, 0, 88, 112
4, 49436, Note_on_c, 0, 88, 0
4, 49532, Note_on_c, 0, 76, 0
4, 49536, Note_on_c, 0, 79, 112
4, 49536, Note_on_c, 0, 88, 112
4, 49628, Note_on_c, 0, 88, 0
4, 49628, Note_on_c, 0, 79, 0
4, 49728, Note_on_c, 0, 79, 112
4, 49728, Note_on_c, 0, 88, 112
4, 49820, Note_on_c, 0, 88, 0
4, 49820, Note_on_c, 0, 79, 0
4, 49920, Note_on_c, 0, 88, 112
4, 49920, Note_on_c, 0, 79, 112
4, 49964, Note_on_c, 0, 88, 0
4, 49968, Note_on_c, 0, 89, 112
4, 50012, Note_on_c, 0, 89, 0
4, 50016, Note_on_c, 0, 88, 112
4, 50060, Note_on_c, 0, 88, 0
4, 50064, Note_on_c, 0, 89, 112
4, 50108, Note_on_c, 0, 89, 0
4, 50108, Note_on_c, 0, 79, 0
4, 50112, Note_on_c, 0, 86, 112
4, 50112, Note_on_c, 0, 77, 112
4, 50300, Note_on_c, 0, 77, 0
4, 50300, Note_on_c, 0, 86, 0
4, 50304, Note_on_c, 0, 77, 112
4, 50304, Note_on_c, 0, 86, 112
4, 50396, Note_on_c, 0, 86, 0
4, 50396, Note_on_c, 0, 77, 0
4, 50496, Note_on_c, 0, 86, 112
4, 50496, Note_on_c, 0, 77, 112
4, 50588, Note_on_c, 0, 77, 0
4, 50588, Note_on_c, 0, 86, 0
4, 50688, Note_on_c, 0, 86, 112
4, 50688, Note_on_c, 0, 77, 112
4, 50732, Note_on_c, 0, 86, 0
4, 50736, Note_on_c, 0, 88, 112
4, 50780, Note_on_c, 0, 88, 0
4, 50784, Note_on_c, 0, 86, 112
4, 50828, Note_on_c, 0, 86, 0
4, 50832, Note_on_c, 0, 88, 112
4, 50876, Note_on_c, 0, 88, 0
4, 50876, Note_on_c, 0, 77, 0
4, 50880, Note_on_c, 0, 84, 112
4, 50880, Note_on_c, 0, 76, 112
4, 51068, Note_on_c, 0, 76, 0
4, 51068, Note_on_c, 0, 84, 0
4, 51072, Note_on_c, 0, 84, 112
4, 51072, Note_on_c, 0, 76, 112
4, 51164, Note_on_c, 0, 76, 0
4, 51164, Note_on_c, 0, 84, 0
4, 51264, Note_on_c, 0, 84, 112
4, 51264, Note_on_c, 0, 76, 112
4, 51356, Note_on_c, 0, 76, 0
4, 51356, Note_on_c, 0, 84, 0
4, 51456, Note_on_c, 0, 84, 112
4, 51456, Note_on_c, 0, 76, 112
4, 51500, Note_on_c, 0, 84, 0
4, 51504, Note_on_c, 0, 86, 112
4, 51548, Note_on_c, 0, 86, 0
4, 51552, Note_on_c, 0, 84, 112
4, 51596, Note_on_c, 0, 84, 0
4, 51600, Note_on_c, 0, 86, 112
4, 51644, Note_on_c, 0, 86, 0
4, 51644, Note_on_c, 0, 76, 0
4, 51648, Note_on_c, 0, 83, 112
4, 51648, Note_on_c, 0, 74, 112
4, 51836, Note_on_c, 0, 74, 0
4, 51836, Note_on_c, 0, 83, 0
4, 51840, Note_on_c, 0, 83, 112
4, 51840, Note_on_c, 0, 74, 112
4, 51932, Note_on_c, 0, 74, 0
4, 51932, Note_on_c, 0, 83, 0
4, 52032, Note_on_c, 0, 83, 112
4, 52032, Note_on_c, 0, 74, 112
4, 52124, Note_on_c, 0, 74, 0
4, 52124, Note_on_c, 0, 83, 0
4, 52224, Note_on_c, 0, 84, 112
4, 52224, Note_on_c, 0, 72, 112
4, 52412, Note_on_c, 0, 72, 0
4, 52412, Note_on_c, 0, 84, 0
4, 52416, Note_on_c, 0, 84, 112
4, 52416, Note_on_c, 0, 72, 112
4, 52604, Note_on_c, 0, 72, 0
4, 52604, Note_on_c, 0, 84, 0
4, 52608, Note_on_c, 0, 84, 112
4, 52608, Note_on_c, 0, 72, 112
4, 52608, Note_on_c, 0, 72, 112
4, 52700, Note_on_c, 0, 72, 0
4, 52704, Note_on_c, 0, 74, 112
4, 52796, Note_on_c, 0, 74, 0
4, 52796, Note_on_c, 0, 72, 0
4, 52796, Note_on_c, 0, 84, 0
4, 52800, Note_on_c, 0, 76, 112
4, 52892, Note_on_c, 0, 76, 0
4, 52896, Note_on_c, 0, 77, 112
4, 52988, Note_on_c, 0, 77, 0
4, 52992, Note_on_c, 0, 79, 112
4, 52992, Note_on_c, 0, 67, 112
4, 53180, Note_on_c, 0, 67, 0
4, 53180, Note_on_c, 0, 79, 0
4, 53184, Note_on_c, 0, 79, 112
4, 53184, Note_on_c, 0, 67, 112
4, 53372, Note_on_c, 0, 67, 0
4, 53372, Note_on_c, 0, 79, 0
4, 53376, Note_on_c, 0, 79, 112
4, 53376, Note_on_c, 0, 67, 112
4, 53564, Note_on_c, 0, 67, 0
4, 53564, Note_on_c, 0, 79, 0
4, 53568, Note_on_c, 0, 81, 112
4, 53660, Note_on_c, 0, 81, 0
4, 53664, Note_on_c, 0, 83, 112
4, 53756, Note_on_c, 0, 83, 0
4, 53760, Note_on_c, 0, 84, 112
4, 53760, Note_on_c, 0, 72, 112
4, 53948, Note_on_c, 0, 72, 0
4, 53948, Note_on_c, 0, 84, 0
4, 53952, Note_on_c, 0, 84, 112
4, 53952, Note_on_c, 0, 72, 112
4, 54140, Note_on_c, 0, 72, 0
4, 54140, Note_on_c, 0, 84, 0
4, 54144, Note_on_c, 0, 84, 112
4, 54144, Note_on_c, 0, 72, 112
4, 54332, Note_on_c, 0, 72, 0
4, 54332, Note_on_c, 0, 84, 0
4, 54336, Note_on_c, 0, 83, 112
4, 54428, Note_on_c, 0, 83, 0
4, 54432, Note_on_c, 0, 81, 112
4, 54524, Note_on_c, 0, 81, 0
4, 54528, Note_on_c, 0, 91, 112
4, 54528, Note_on_c, 0, 79, 112
4, 54716, Note_on_c, 0, 79, 0
4, 54716, Note_on_c, 0, 91, 0
4, 54720, Note_on_c, 0, 91, 112
4, 54720, Note_on_c, 0, 79, 112
4, 54908, Note_on_c, 0, 79, 0
4, 54908, Note_on_c, 0, 91, 0
4, 54912, Note_on_c, 0, 91, 112
4, 54912, Note_on_c, 0, 79, 112
4, 54912, Note_on_c, 0, 79, 112
4, 55004, Note_on_c, 0, 79, 0
4, 55008, Note_on_c, 0, 77, 112
4, 55100, Note_on_c, 0, 77, 0
4, 55100, Note_on_c, 0, 79, 0
4, 55100, Note_on_c, 0, 91, 0
4, 55104, Note_on_c, 0, 76, 112
4, 55196, Note_on_c, 0, 76, 0
4, 55200, Note_on_c, 0, 74, 112
4, 55292, Note_on_c, 0, 74, 0
4, 55296, Note_on_c, 0, 84, 112
4, 55296, Note_on_c, 0, 72, 112
4, 55676, Note_on_c, 0, 72, 0
4, 55676, Note_on_c, 0, 84, 0
4, 55680, Note_on_c, 0, 84, 112
4, 55680, Note_on_c, 0, 72, 112
4, 55868, Note_on_c, 0, 72, 0
4, 55868, Note_on_c, 0, 84, 0
4, 55968, Note_on_c, 0, 84, 112
4, 55968, Note_on_c, 0, 72, 112
4, 56060, Note_on_c, 0, 72, 0
4, 56060, Note_on_c, 0, 84, 0
4, 56064, Note_on_c, 0, 84, 112
4, 56064, Note_on_c, 0, 72, 112
4, 56444, Note_on_c, 0, 72, 0
4, 56444, Note_on_c, 0, 84, 0
4, 69312, Note_on_c, 0, 71, 89
4, 69404, Note_on_c, 0, 71, 0
4, 69504, Note_on_c, 0, 72, 89
4, 69596, Note_on_c, 0, 72, 0
4, 69696, Note_on_c, 0, 74, 89
4, 69788, Note_on_c, 0, 74, 0
4, 69888, Note_on_c, 0, 76, 89
4, 69980, Note_on_c, 0, 76, 0
4, 70080, Note_on_c, 0, 77, 89
4, 70172, Note_on_c, 0, 77, 0
4, 70272, Note_on_c, 0, 78, 89
4, 70364, Note_on_c, 0, 78, 0
4, 70464, Note_on_c, 0, 79, 89
4, 70556, Note_on_c, 0, 79, 0
4, 70656, Note_on_c, 0, 81, 89
4, 70844, Note_on_c, 0, 81, 0
4, 70848, Note_on_c, 0, 79, 89
4, 71036, Note_on_c, 0, 79, 0
4, 71040, Note_on_c, 0, 77, 89
4, 71132, Note_on_c, 0, 77, 0
4, 71232, Note_on_c, 0, 76, 89
4, 71324, Note_on_c, 0, 76, 0
4, 71424, Note_on_c, 0, 74, 89
4, 71424, Note_on_c, 0, 67, 89
4, 71568, Note_on_c, 0, 76, 89
4, 71612, Note_on_c, 0, 76, 0
4, 71612, Note_on_c, 0, 74, 0
4, 71616, Note_on_c, 0, 74, 89
4, 71708, Note_on_c, 0, 74, 0
4, 71712, Note_on_c, 0, 72, 89
4, 71804, Note_on_c, 0, 72, 0
4, 71804, Note_on_c, 0, 67, 0
4, 71808, Note_on_c, 0, 74, 89
4, 71996, Note_on_c, 0, 74, 0
4, 72000, Note_on_c, 0, 76, 89
4, 72092, Note_on_c, 0, 76, 0
4, 72192, Note_on_c, 0, 72, 89
4, 72192, Note_on_c, 0, 64, 89
4, 72380, Note_on_c, 0, 64, 0
4, 72380, Note_on_c, 0, 72, 0
4, 72384, Note_on_c, 0, 71, 89
4, 72476, Note_on_c, 0, 71, 0
4, 72576, Note_on_c, 0, 72, 89
4, 72668, Note_on_c, 0, 72, 0
4, 72768, Note_on_c, 0, 74, 89
4, 72860, Note_on_c, 0, 74, 0
4, 72960, Note_on_c, 0, 76, 89
4, 73052, Note_on_c, 0, 76, 0
4, 73152, Note_on_c, 0, 77, 89
4, 73244, Note_on_c, 0, 77, 0
4, 73344, Note_on_c, 0, 78, 89
4, 73436, Note_on_c, 0, 78, 0
4, 73536, Note_on_c, 0, 79, 89
4, 73628, Note_on_c, 0, 79, 0
4, 73728, Note_on_c, 0, 81, 89
4, 73916, Note_on_c, 0, 81, 0
4, 73920, Note_on_c, 0, 79, 89
4, 74108, Note_on_c, 0, 79, 0
4, 74112, Note_on_c, 0, 77, 89
4, 74204, Note_on_c, 0, 77, 0
4, 74304, Note_on_c, 0, 76, 89
4, 74396, Note_on_c, 0, 76, 0
4, 74496, Note_on_c, 0, 74, 89
4, 74640, Note_on_c, 0, 76, 89
4, 74684, Note_on_c, 0, 76, 0
4, 74684, Note_on_c, 0, 74, 0
4, 74688, Note_on_c, 0, 74, 89
4, 74780, Note_on_c, 0, 74, 0
4, 74784, Note_on_c, 0, 72, 89
4, 74876, Note_on_c, 0, 72, 0
4, 74880, Note_on_c, 0, 74, 89
4, 75068, Note_on_c, 0, 74, 0
4, 75072, Note_on_c, 0, 76, 89
4, 75164, Note_on_c, 0, 76, 0
4, 75264, Note_on_c, 0, 72, 89
4, 75644, Note_on_c, 0, 72, 0
4, 77568, Note_on_c, 0, 76, 83
4, 77568, Note_on_c, 0, 67, 83
4, 78332, Note_on_c, 0, 67, 0
4, 78332, Note_on_c, 0, 76, 0
4, 78336, Note_on_c, 0, 68, 83
4, 78336, Note_on_c, 0, 64, 83
4, 78336, Note_on_c, 0, 74, 83
4, 79868, Note_on_c, 0, 68, 0
4, 79872, Note_on_c, 0, 71, 83
4, 80636, Note_on_c, 0, 71, 0
4, 80636, Note_on_c, 0, 74, 0
4, 80636, Note_on_c, 0, 64, 0
4, 80640, Note_on_c, 0, 64, 83
4, 80640, Note_on_c, 0, 59, 83
4, 80640, Note_on_c, 0, 56, 83
4, 81404, Note_on_c, 0, 56, 0
4, 81404, Note_on_c, 0, 59, 0
4, 81408, Note_on_c, 0, 57, 83
4, 82172, Note_on_c, 0, 64, 0
4, 82176, Note_on_c, 0, 72, 83
4, 82176, Note_on_c, 0, 67, 83
4, 82940, Note_on_c, 0, 67, 0
4, 82944, Note_on_c, 0, 66, 83
4, 83708, Note_on_c, 0, 66, 0
4, 83708, Note_on_c, 0, 72, 0
4, 83708, Note_on_c, 0, 57, 0
4, 83712, Note_on_c, 0, 62, 83
4, 83712, Note_on_c, 0, 57, 83
4, 83712, Note_on_c, 0, 54, 83
4, 84476, Note_on_c, 0, 54, 0
4, 84476, Note_on_c, 0, 57, 0
4, 84480, Note_on_c, 0, 55, 83
4, 85244, Note_on_c, 0, 55, 0
4, 85244, Note_on_c, 0, 62, 0
4, 85248, Note_on_c, 0, 70, 83
4, 85248, Note_on_c, 0, 67, 83
4, 85248, Note_on_c, 0, 62, 83
4, 86012, Note_on_c, 0, 62, 0
4, 86016, Note_on_c, 0, 61, 83
4, 86780, Note_on_c, 0, 61, 0
4, 86784, Note_on_c, 0, 62, 83
4, 87548, Note_on_c, 0, 62, 0
4, 87552, Note_on_c, 0, 64, 83
4, 88316, Note_on_c, 0, 64, 0
4, 88320, Note_on_c, 0, 62, 83
4, 89084, Note_on_c, 0, 62, 0
4, 89088, Note_on_c, 0, 61, 83
4, 91004, Note_on_c, 0, 61, 0
4, 91004, Note_on_c, 0, 67, 0
4, 91004, Note_on_c, 0, 70, 0
4, 92160, Note_on_c, 0, 74, 83
4, 92160, Note_on_c, 0, 69, 83
4, 92160, Note_on_c, 0, 66, 83
4, 92540, Note_on_c, 0, 74, 0
4, 92544, Note_on_c, 0, 72, 83
4, 92924, Note_on_c, 0, 72, 0
4, 92924, Note_on_c, 0, 66, 0
4, 92924, Note_on_c, 0, 69, 0
4, 92928, Note_on_c, 0, 70, 83
4, 92928, Note_on_c, 0, 67, 83
4, 93308, Note_on_c, 0, 70, 0
4, 93312, Note_on_c, 0, 73, 83
4, 93692, Note_on_c, 0, 73, 0
4, 93692, Note_on_c, 0, 67, 0
4, 93696, Note_on_c, 0, 69, 83
4, 93696, Note_on_c, 0, 66, 83
4, 93696, Note_on_c, 0, 74, 83
4, 94076, Note_on_c, 0, 74, 0
4, 94080, Note_on_c, 0, 72, 83
4, 94460, Note_on_c, 0, 72, 0
4, 94460, Note_on_c, 0, 66, 0
4, 94460, Note_on_c, 0, 69, 0
4, 94464, Note_on_c, 0, 67, 83
4, 94464, Note_on_c, 0, 70, 83
4, 94844, Note_on_c, 0, 70, 0
4, 94848, Note_on_c, 0, 73, 83
4, 95228, Note_on_c, 0, 73, 0
4, 95228, Note_on_c, 0, 67, 0
4, 95232, Note_on_c, 0, 74, 83
4, 95232, Note_on_c, 0, 69, 83
4, 95232, Note_on_c, 0, 66, 83
4, 95612, Note_on_c, 0, 66, 0
4, 95612, Note_on_c, 0, 69, 0
4, 95612, Note_on_c, 0, 74, 0
4, 97344, Note_on_c, 0, 79, 89
4, 97344, Note_on_c, 0, 71, 89
4, 97532, Note_on_c, 0, 71, 0
4, 97532, Note_on_c, 0, 79, 0
4, 97536, Note_on_c, 0, 83, 89
4, 97536, Note_on_c, 0, 74, 89
4, 97724, Note_on_c, 0, 74, 0
4, 97724, Note_on_c, 0, 83, 0
4, 97728, Note_on_c, 0, 83, 89
4, 97728, Note_on_c, 0, 74, 89
4, 97820, Note_on_c, 0, 74, 0
4, 97820, Note_on_c, 0, 83, 0
4, 98112, Note_on_c, 0, 79, 89
4, 98112, Note_on_c, 0, 71, 89
4, 98300, Note_on_c, 0, 71, 0
4, 98300, Note_on_c, 0, 79, 0
4, 98304, Note_on_c, 0, 76, 89
4, 98304, Note_on_c, 0, 72, 89
4, 98492, Note_on_c, 0, 72, 0
4, 98492, Note_on_c, 0, 76, 0
4, 98496, Note_on_c, 0, 76, 89
4, 98496, Note_on_c, 0, 72, 89
4, 98588, Note_on_c, 0, 72, 0
4, 98588, Note_on_c, 0, 76, 0
4, 98880, Note_on_c, 0, 84, 89
4, 98880, Note_on_c, 0, 76, 89
4, 99068, Note_on_c, 0, 76, 0
4, 99068, Note_on_c, 0, 84, 0
4, 99072, Note_on_c, 0, 88, 89
4, 99072, Note_on_c, 0, 81, 89
4, 99072, Note_on_c, 0, 78, 89
4, 99260, Note_on_c, 0, 78, 0
4, 99260, Note_on_c, 0, 81, 0
4, 99260, Note_on_c, 0, 88, 0
4, 99264, Note_on_c, 0, 88, 89
4, 99264, Note_on_c, 0, 81, 89
4, 99264, Note_on_c, 0, 78, 89
4, 99356, Note_on_c, 0, 78, 0
4, 99356, Note_on_c, 0, 81, 0
4, 99356, Note_on_c, 0, 88, 0
4, 99648, Note_on_c, 0, 84, 89
4, 99648, Note_on_c, 0, 77, 89
4, 99836, Note_on_c, 0, 77, 0
4, 99836, Note_on_c, 0, 84, 0
4, 99840, Note_on_c, 0, 79, 89
4, 99840, Note_on_c, 0, 83, 89
4, 100028, Note_on_c, 0, 83, 0
4, 100028, Note_on_c, 0, 79, 0
4, 100032, Note_on_c, 0, 79, 89
4, 100032, Note_on_c, 0, 83, 89
4, 100124, Note_on_c, 0, 83, 0
4, 100124, Note_on_c, 0, 79, 0
4, 100416, Note_on_c, 0, 79, 89
4, 100416, Note_on_c, 0, 67, 89
4, 100416, Note_on_c, 0, 74, 89
4, 100604, Note_on_c, 0, 67, 0
4, 100604, Note_on_c, 0, 79, 0
4, 100608, Note_on_c, 0, 78, 89
4, 100608, Note_on_c, 0, 69, 89
4, 100796, Note_on_c, 0, 69, 0
4, 100796, Note_on_c, 0, 78, 0
4, 100796, Note_on_c, 0, 74, 0
4, 100800, Note_on_c, 0, 78, 89
4, 100800, Note_on_c, 0, 74, 89
4, 100800, Note_on_c, 0, 69, 89
4, 100892, Note_on_c, 0, 69, 0
4, 100892, Note_on_c, 0, 74, 0
4, 100892, Note_on_c, 0, 78, 0
4, 101184, Note_on_c, 0, 79, 89
4, 101184, Note_on_c, 0, 74, 89
4, 101184, Note_on_c, 0, 71, 89
4, 101372, Note_on_c, 0, 71, 0
4, 101372, Note_on_c, 0, 74, 0
4, 101372, Note_on_c, 0, 79, 0
4, 101376, Note_on_c, 0, 81, 89
4, 101376, Note_on_c, 0, 78, 89
4, 101376, Note_on_c, 0, 72, 89
4, 101564, Note_on_c, 0, 72, 0
4, 101564, Note_on_c, 0, 78, 0
4, 101564, Note_on_c, 0, 81, 0
4, 101568, Note_on_c, 0, 81, 89
4, 101568, Note_on_c, 0, 78, 89
4, 101568, Note_on_c, 0, 72, 89
4, 101660, Note_on_c, 0, 72, 0
4, 101660, Note_on_c, 0, 78, 0
4, 101660, Note_on_c, 0, 81, 0
4, 101952, Note_on_c, 0, 83, 89
4, 101952, Note_on_c, 0, 79, 89
4, 101952, Note_on_c, 0, 74, 89
4, 102140, Note_on_c, 0, 74, 0
4, 102140, Note_on_c, 0, 79, 0
4, 102140, Note_on_c, 0, 83, 0
4, 102336, Note_on_c, 0, 84, 89
4, 102336, Note_on_c, 0, 81, 89
4, 102336, Note_on_c, 0, 74, 89
4, 102524, Note_on_c, 0, 74, 0
4, 102524, Note_on_c, 0, 81, 0
4, 102524, Note_on_c, 0, 84, 0
4, 102720, Note_on_c, 0, 83, 89
4, 102720, Note_on_c, 0, 79, 89
4, 102720, Note_on_c, 0, 74, 89
4, 102908, Note_on_c, 0, 74, 0
4, 102908, Note_on_c, 0, 79, 0
4, 102908, Note_on_c, 0, 83, 0
4, 102912, Note_on_c, 0, 81, 89
4, 102912, Note_on_c, 0, 78, 89
4, 102912, Note_on_c, 0, 74, 89
4, 103100, Note_on_c, 0, 74, 0
4, 103100, Note_on_c, 0, 78, 0
4, 103100, Note_on_c, 0, 81, 0
4, 103104, Note_on_c, 0, 81, 89
4, 103104, Note_on_c, 0, 78, 89
4, 103104, Note_on_c, 0, 74, 89
4, 103292, Note_on_c, 0, 74, 0
4, 103292, Note_on_c, 0, 78, 0
4, 103292, Note_on_c, 0, 81, 0
4, 103488, Note_on_c, 0, 74, 89
4, 103676, Note_on_c, 0, 74, 0
4, 103680, Note_on_c, 0, 73, 89
4, 103868, Note_on_c, 0, 73, 0
4, 103872, Note_on_c, 0, 74, 89
4, 104060, Note_on_c, 0, 74, 0
4, 104064, Note_on_c, 0, 72, 89
4, 104252, Note_on_c, 0, 72, 0
4, 104256, Note_on_c, 0, 69, 89
4, 104444, Note_on_c, 0, 69, 0
4, 104448, Note_on_c, 0, 74, 83
4, 104448, Note_on_c, 0, 71, 83
4, 104448, Note_on_c, 0, 79, 83
4, 104448, Note_on_c, 0, 67, 83
4, 104636, Note_on_c, 0, 67, 0
4, 104640, Note_on_c, 0, 67, 83
4, 104828, Note_on_c, 0, 67, 0
4, 105980, Note_on_c, 0, 71, 0
4, 105980, Note_on_c, 0, 74, 0
4, 105984, Note_on_c, 0, 76, 83
4, 105984, Note_on_c, 0, 72, 83
4, 106748, Note_on_c, 0, 72, 0
4, 106748, Note_on_c, 0, 76, 0
4, 106748, Note_on_c, 0, 79, 0
4, 106752, Note_on_c, 0, 78, 83
4, 106752, Note_on_c, 0, 72, 83
4, 106752, Note_on_c, 0, 69, 83
4, 107516, Note_on_c, 0, 69, 0
4, 107516, Note_on_c, 0, 72, 0
4, 107516, Note_on_c, 0, 78, 0
4, 107520, Note_on_c, 0, 79, 83
4, 107520, Note_on_c, 0, 71, 83
4, 107520, Note_on_c, 0, 67, 83
4, 107900, Note_on_c, 0, 67, 0
4, 107900, Note_on_c, 0, 71, 0
4, 107900, Note_on_c, 0, 79, 0
4, 107904, Note_on_c, 0, 71, 83
4, 107904, Note_on_c, 0, 55, 83
4, 107904, Note_on_c, 0, 62, 83
4, 108284, Note_on_c, 0, 55, 0
4, 108284, Note_on_c, 0, 71, 0
4, 108288, Note_on_c, 0, 66, 83
4, 108288, Note_on_c, 0, 57, 83
4, 108668, Note_on_c, 0, 57, 0
4, 108668, Note_on_c, 0, 66, 0
4, 108668, Note_on_c, 0, 62, 0
4, 108672, Note_on_c, 0, 67, 83
4, 108672, Note_on_c, 0, 55, 83
4, 108672, Note_on_c, 0, 62, 83
4, 109052, Note_on_c, 0, 55, 0
4, 109052, Note_on_c, 0, 67, 0
4, 109056, Note_on_c, 0, 66, 83
4, 109056, Note_on_c, 0, 57, 83
4, 109436, Note_on_c, 0, 57, 0
4, 109436, Note_on_c, 0, 66, 0
4, 109436, Note_on_c, 0, 62, 0
4, 109440, Note_on_c, 0, 67, 83
4, 109440, Note_on_c, 0, 62, 83
4, 109440, Note_on_c, 0, 55, 83
4, 109820, Note_on_c, 0, 55, 0
4, 109820, Note_on_c, 0, 62, 0
4, 109820, Note_on_c, 0, 67, 0
4, 109824, Note_on_c, 0, 69, 83
4, 109824, Note_on_c, 0, 66, 83
4, 109824, Note_on_c, 0, 60, 83
4, 110204, Note_on_c, 0, 60, 0
4, 110204, Note_on_c, 0, 66, 0
4, 110204, Note_on_c, 0, 69, 0
4, 110208, Note_on_c, 0, 71, 83
4, 110208, Note_on_c, 0, 67, 83
4, 110208, Note_on_c, 0, 59, 83
4, 110588, Note_on_c, 0, 59, 0
4, 110588, Note_on_c, 0, 67, 0
4, 110588, Note_on_c, 0, 71, 0
4, 110592, Note_on_c, 0, 74, 83
4, 110592, Note_on_c, 0, 72, 83
4, 110592, Note_on_c, 0, 69, 83
4, 110592, Note_on_c, 0, 62, 83
4, 110780, Note_on_c, 0, 69, 0
4, 110780, Note_on_c, 0, 74, 0
4, 110780, Note_on_c, 0, 72, 0
4, 110784, Note_on_c, 0, 74, 83
4, 110784, Note_on_c, 0, 72, 83
4, 110784, Note_on_c, 0, 69, 83
4, 110972, Note_on_c, 0, 69, 0
4, 110972, Note_on_c, 0, 62, 0
4, 110972, Note_on_c, 0, 74, 0
4, 110972, Note_on_c, 0, 72, 0
4, 111168, Note_on_c, 0, 74, 83
4, 111168, Note_on_c, 0, 72, 83
4, 111168, Note_on_c, 0, 69, 83
4, 111356, Note_on_c, 0, 69, 0
4, 111356, Note_on_c, 0, 72, 0
4, 111356, Note_on_c, 0, 74, 0
4, 111360, Note_on_c, 0, 74, 83
4, 111360, Note_on_c, 0, 71, 83
4, 111360, Note_on_c, 0, 67, 83
4, 111360, Note_on_c, 0, 62, 83
4, 111548, Note_on_c, 0, 67, 0
4, 111548, Note_on_c, 0, 74, 0
4, 111548, Note_on_c, 0, 71, 0
4, 111552, Note_on_c, 0, 74, 83
4, 111552, Note_on_c, 0, 71, 83
4, 111552, Note_on_c, 0, 67, 83
4, 111740, Note_on_c, 0, 67, 0
4, 111740, Note_on_c, 0, 62, 0
4, 111740, Note_on_c, 0, 74, 0
4, 111740, Note_on_c, 0, 71, 0
4, 111936, Note_on_c, 0, 74, 83
4, 111936, Note_on_c, 0, 71, 83
4, 111936, Note_on_c, 0, 67, 83
4, 112124, Note_on_c, 0, 67, 0
4, 112124, Note_on_c, 0, 71, 0
4, 112124, Note_on_c, 0, 74, 0
4, 112128, Note_on_c, 0, 74, 83
4, 112128, Note_on_c, 0, 72, 83
4, 112128, Note_on_c, 0, 69, 83
4, 112128, Note_on_c, 0, 62, 83
4, 112316, Note_on_c, 0, 69, 0
4, 112316, Note_on_c, 0, 74, 0
4, 112316, Note_on_c, 0, 72, 0
4, 112320, Note_on_c, 0, 74, 83
4, 112320, Note_on_c, 0, 72, 83
4, 112320, Note_on_c, 0, 69, 83
4, 112508, Note_on_c, 0, 69, 0
4, 112508, Note_on_c, 0, 62, 0
4, 112508, Note_on_c, 0, 74, 0
4, 112508, Note_on_c, 0, 72, 0
4, 112704, Note_on_c, 0, 74, 83
4, 112704, Note_on_c, 0, 72, 83
4, 112704, Note_on_c, 0, 69, 83
4, 112892, Note_on_c, 0, 69, 0
4, 112892, Note_on_c, 0, 72, 0
4, 112892, Note_on_c, 0, 74, 0
4, 112896, Note_on_c, 0, 74, 83
4, 112896, Note_on_c, 0, 71, 83
4, 112896, Note_on_c, 0, 67, 83
4, 112896, Note_on_c, 0, 62, 83
4, 113084, Note_on_c, 0, 67, 0
4, 113084, Note_on_c, 0, 74, 0
4, 113084, Note_on_c, 0, 71, 0
4, 113088, Note_on_c, 0, 74, 83
4, 113088, Note_on_c, 0, 71, 83
4, 113088, Note_on_c, 0, 67, 83
4, 113276, Note_on_c, 0, 67, 0
4, 113276, Note_on_c, 0, 62, 0
4, 113276, Note_on_c, 0, 74, 0
4, 113276, Note_on_c, 0, 71, 0
4, 113472, Note_on_c, 0, 83, 83
4, 113472, Note_on_c, 0, 79, 83
4, 113472, Note_on_c, 0, 74, 83
4, 113472, Note_on_c, 0, 71, 83
4, 113660, Note_on_c, 0, 71, 0
4, 113660, Note_on_c, 0, 83, 0
4, 113660, Note_on_c, 0, 79, 0
4, 113660, Note_on_c, 0, 74, 0
4, 113664, Note_on_c, 0, 86, 83
4, 113664, Note_on_c, 0, 79, 83
4, 113664, Note_on_c, 0, 77, 83
4, 113664, Note_on_c, 0, 74, 83
4, 113852, Note_on_c, 0, 74, 0
4, 113852, Note_on_c, 0, 86, 0
4, 113852, Note_on_c, 0, 79, 0
4, 113852, Note_on_c, 0, 77, 0
4, 113856, Note_on_c, 0, 86, 83
4, 113856, Note_on_c, 0, 79, 83
4, 113856, Note_on_c, 0, 77, 83
4, 113856, Note_on_c, 0, 74, 83
4, 114044, Note_on_c, 0, 74, 0
4, 114044, Note_on_c, 0, 86, 0
4, 114044, Note_on_c, 0, 79, 0
4, 114044, Note_on_c, 0, 77, 0
4, 114240, Note_on_c, 0, 86, 83
4, 114240, Note_on_c, 0, 79, 83
4, 114240, Note_on_c, 0, 77, 83
4, 114240, Note_on_c, 0, 74, 83
4, 114428, Note_on_c, 0, 74, 0
4, 114428, Note_on_c, 0, 86, 0
4, 114428, Note_on_c, 0, 79, 0
4, 114428, Note_on_c, 0, 77, 0
4, 114432, Note_on_c, 0, 86, 83
4, 114432, Note_on_c, 0, 79, 83
4, 114432, Note_on_c, 0, 76, 83
4, 114432, Note_on_c, 0, 74, 83
4, 114620, Note_on_c, 0, 74, 0
4, 114620, Note_on_c, 0, 86, 0
4, 114620, Note_on_c, 0, 79, 0
4, 114620, Note_on_c, 0, 76, 0
4, 114624, Note_on_c, 0, 86, 83
4, 114624, Note_on_c, 0, 79, 83
4, 114624, Note_on_c, 0, 76, 83
4, 114624, Note_on_c, 0, 74, 83
4, 114812, Note_on_c, 0, 74, 0
4, 114812, Note_on_c, 0, 86, 0
4, 114812, Note_on_c, 0, 79, 0
4, 114812, Note_on_c, 0, 76, 0
4, 115008, Note_on_c, 0, 86, 83
4, 115008, Note_on_c, 0, 79, 83
4, 115008, Note_on_c, 0, 76, 83
4, 115008, Note_on_c, 0, 74, 83
4, 115196, Note_on_c, 0, 74, 0
4, 115196, Note_on_c, 0, 86, 0
4, 115196, Note_on_c, 0, 79, 0
4, 115196, Note_on_c, 0, 76, 0
4, 115200, Note_on_c, 0, 84, 83
4, 115200, Note_on_c, 0, 78, 83
4, 115200, Note_on_c, 0, 76, 83
4, 115200, Note_on_c, 0, 72, 83
4, 115388, Note_on_c, 0, 72, 0
4, 115388, Note_on_c, 0, 84, 0
4, 115388, Note_on_c, 0, 78, 0
4, 115388, Note_on_c, 0, 76, 0
4, 115392, Note_on_c, 0, 84, 83
4, 115392, Note_on_c, 0, 78, 83
4, 115392, Note_on_c, 0, 76, 83
4, 115392, Note_on_c, 0, 72, 83
4, 115580, Note_on_c, 0, 72, 0
4, 115580, Note_on_c, 0, 84, 0
4, 115580, Note_on_c, 0, 78, 0
4, 115580, Note_on_c, 0, 76, 0
4, 115776, Note_on_c, 0, 84, 83
4, 115776, Note_on_c, 0, 78, 83
4, 115776, Note_on_c, 0, 76, 83
4, 115776, Note_on_c, 0, 72, 83
4, 115964, Note_on_c, 0, 72, 0
4, 115964, Note_on_c, 0, 84, 0
4, 115964, Note_on_c, 0, 78, 0
4, 115964, Note_on_c, 0, 76, 0
4, 115968, Note_on_c, 0, 84, 83
4, 115968, Note_on_c, 0, 78, 83
4, 115968, Note_on_c, 0, 75, 83
4, 115968, Note_on_c, 0, 72, 83
4, 116156, Note_on_c, 0, 72, 0
4, 116156, Note_on_c, 0, 84, 0
4, 116156, Note_on_c, 0, 78, 0
4, 116156, Note_on_c, 0, 75, 0
4, 116160, Note_on_c, 0, 84, 83
4, 116160, Note_on_c, 0, 78, 83
4, 116160, Note_on_c, 0, 75, 83
4, 116160, Note_on_c, 0, 72, 83
4, 116348, Note_on_c, 0, 72, 0
4, 116348, Note_on_c, 0, 84, 0
4, 116348, Note_on_c, 0, 78, 0
4, 116348, Note_on_c, 0, 75, 0
4, 116544, Note_on_c, 0, 84, 83
4, 116544, Note_on_c, 0, 78, 83
4, 116544, Note_on_c, 0, 75, 83
4, 116544, Note_on_c, 0, 72, 83
4, 116732, Note_on_c, 0, 72, 0
4, 116732, Note_on_c, 0, 84, 0
4, 116732, Note_on_c, 0, 78, 0
4, 116732, Note_on_c, 0, 75, 0
4, 116736, Note_on_c, 0, 83, 83
4, 116736, Note_on_c, 0, 77, 83
4, 116736, Note_on_c, 0, 74, 83
4, 116736, Note_on_c, 0, 71, 83
4, 116924, Note_on_c, 0, 71, 0
4, 116924, Note_on_c, 0, 83, 0
4, 116924, Note_on_c, 0, 77, 0
4, 116924, Note_on_c, 0, 74, 0
4, 116928, Note_on_c, 0, 83, 83
4, 116928, Note_on_c, 0, 77, 83
4, 116928, Note_on_c, 0, 74, 83
4, 116928, Note_on_c, 0, 71, 83
4, 117116, Note_on_c, 0, 71, 0
4, 117116, Note_on_c, 0, 83, 0
4, 117116, Note_on_c, 0, 77, 0
4, 117116, Note_on_c, 0, 74, 0
4, 117312, Note_on_c, 0, 83, 83
4, 117312, Note_on_c, 0, 77, 83
4, 117312, Note_on_c, 0, 74, 83
4, 117312, Note_on_c, 0, 71, 83
4, 117500, Note_on_c, 0, 71, 0
4, 117500, Note_on_c, 0, 83, 0
4, 117500, Note_on_c, 0, 77, 0
4, 117500, Note_on_c, 0, 74, 0
4, 117504, Note_on_c, 0, 83, 83
4, 117504, Note_on_c, 0, 76, 83
4, 117504, Note_on_c, 0, 73, 83
4, 117504, Note_on_c, 0, 71, 83
4, 117692, Note_on_c, 0, 71, 0
4, 117692, Note_on_c, 0, 83, 0
4, 117692, Note_on_c, 0, 76, 0
4, 117692, Note_on_c, 0, 73, 0
4, 117696, Note_on_c, 0, 83, 83
4, 117696, Note_on_c, 0, 76, 83
4, 117696, Note_on_c, 0, 73, 83
4, 117696, Note_on_c, 0, 71, 83
4, 117884, Note_on_c, 0, 71, 0
4, 117884, Note_on_c, 0, 83, 0
4, 117884, Note_on_c, 0, 76, 0
4, 117884, Note_on_c, 0, 73, 0
4, 118080, Note_on_c, 0, 83, 83
4, 118080, Note_on_c, 0, 76, 83
4, 118080, Note_on_c, 0, 73, 83
4, 118080, Note_on_c, 0, 71, 83
4, 118268, Note_on_c, 0, 71, 0
4, 118268, Note_on_c, 0, 83, 0
4, 118268, Note_on_c, 0, 76, 0
4, 118268, Note_on_c, 0, 73, 0
4, 118272, Note_on_c, 0, 81, 83
4, 118272, Note_on_c, 0, 75, 83
4, 118272, Note_on_c, 0, 72, 83
4, 118272, Note_on_c, 0, 69, 83
4, 118460, Note_on_c, 0, 69, 0
4, 118460, Note_on_c, 0, 81, 0
4, 118460, Note_on_c, 0, 75, 0
4, 118460, Note_on_c, 0, 72, 0
4, 118464, Note_on_c, 0, 81, 83
4, 118464, Note_on_c, 0, 75, 83
4, 118464, Note_on_c, 0, 72, 83
4, 118464, Note_on_c, 0, 69, 83
4, 118652, Note_on_c, 0, 69, 0
4, 118652, Note_on_c, 0, 81, 0
4, 118652, Note_on_c, 0, 75, 0
4, 118652, Note_on_c, 0, 72, 0
4, 118848, Note_on_c, 0, 81, 83
4, 118848, Note_on_c, 0, 75, 83
4, 118848, Note_on_c, 0, 72, 83
4, 118848, Note_on_c, 0, 69, 83
4, 119036, Note_on_c, 0, 69, 0
4, 119036, Note_on_c, 0, 81, 0
4, 119036, Note_on_c, 0, 75, 0
4, 119036, Note_on_c, 0, 72, 0
4, 119040, Note_on_c, 0, 81, 83
4, 119040, Note_on_c, 0, 78, 83
4, 119040, Note_on_c, 0, 71, 83
4, 119040, Note_on_c, 0, 69, 83
4, 119228, Note_on_c, 0, 69, 0
4, 119228, Note_on_c, 0, 81, 0
4, 119228, Note_on_c, 0, 78, 0
4, 119228, Note_on_c, 0, 71, 0
4, 119232, Note_on_c, 0, 81, 83
4, 119232, Note_on_c, 0, 78, 83
4, 119232, Note_on_c, 0, 71, 83
4, 119232, Note_on_c, 0, 69, 83
4, 119420, Note_on_c, 0, 69, 0
4, 119420, Note_on_c, 0, 81, 0
4, 119420, Note_on_c, 0, 78, 0
4, 119420, Note_on_c, 0, 71, 0
4, 119616, Note_on_c, 0, 81, 83
4, 119616, Note_on_c, 0, 78, 83
4, 119616, Note_on_c, 0, 71, 83
4, 119616, Note_on_c, 0, 69, 83
4, 119804, Note_on_c, 0, 69, 0
4, 119804, Note_on_c, 0, 81, 0
4, 119804, Note_on_c, 0, 78, 0
4, 119804, Note_on_c, 0, 71, 0
4, 119808, Note_on_c, 0, 79, 83
4, 119808, Note_on_c, 0, 76, 83
4, 119808, Note_on_c, 0, 71, 83
4, 119808, Note_on_c, 0, 67, 83
4, 119996, Note_on_c, 0, 67, 0
4, 119996, Note_on_c, 0, 79, 0
4, 119996, Note_on_c, 0, 76, 0
4, 119996, Note_on_c, 0, 71, 0
4, 120000, Note_on_c, 0, 79, 83
4, 120000, Note_on_c, 0, 76, 83
4, 120000, Note_on_c, 0, 71, 83
4, 120000, Note_on_c, 0, 67, 83
4, 120188, Note_on_c, 0, 67, 0
4, 120188, Note_on_c, 0, 79, 0
4, 120188, Note_on_c, 0, 76, 0
4, 120188, Note_on_c, 0, 71, 0
4, 120384, Note_on_c, 0, 79, 83
4, 120384, Note_on_c, 0, 76, 83
4, 120384, Note_on_c, 0, 71, 83
4, 120384, Note_on_c, 0, 67, 83
4, 120572, Note_on_c, 0, 67, 0
4, 120572, Note_on_c, 0, 79, 0
4, 120572, Note_on_c, 0, 76, 0
4, 120572, Note_on_c, 0, 71, 0
4, 120576, Note_on_c, 0, 67, 83
4, 120576, Note_on_c, 0, 64, 83
4, 120576, Note_on_c, 0, 69, 83
4, 122108, Note_on_c, 0, 64, 0
4, 122108, Note_on_c, 0, 67, 0
4, 122112, Note_on_c, 0, 66, 83
4, 122112, Note_on_c, 0, 62, 83
4, 123260, Note_on_c, 0, 62, 0
4, 123260, Note_on_c, 0, 66, 0
4, 123260, Note_on_c, 0, 69, 0
4, 125184, Note_on_c, 0, 67, 83
4, 125184, Note_on_c, 0, 64, 83
4, 125184, Note_on_c, 0, 69, 83
4, 126716, Note_on_c, 0, 64, 0
4, 126716, Note_on_c, 0, 67, 0
4, 126720, Note_on_c, 0, 63, 83
4, 126720, Note_on_c, 0, 66, 83
4, 127868, Note_on_c, 0, 66, 0
4, 127868, Note_on_c, 0, 63, 0
4, 127868, Note_on_c, 0, 69, 0
4, 128256, Note_on_c, 0, 74, 83
4, 128256, Note_on_c, 0, 71, 83
4, 128256, Note_on_c, 0, 62, 83
4, 128444, Note_on_c, 0, 62, 0
4, 128444, Note_on_c, 0, 71, 0
4, 128444, Note_on_c, 0, 74, 0
4, 128448, Note_on_c, 0, 74, 83
4, 128448, Note_on_c, 0, 71, 83
4, 128448, Note_on_c, 0, 62, 83
4, 128636, Note_on_c, 0, 62, 0
4, 128636, Note_on_c, 0, 71, 0
4, 128636, Note_on_c, 0, 74, 0
4, 128640, Note_on_c, 0, 72, 83
4, 128640, Note_on_c, 0, 69, 83
4, 128640, Note_on_c, 0, 64, 83
4, 128828, Note_on_c, 0, 64, 0
4, 128828, Note_on_c, 0, 69, 0
4, 128828, Note_on_c, 0, 72, 0
4, 128832, Note_on_c, 0, 72, 83
4, 128832, Note_on_c, 0, 69, 83
4, 128832, Note_on_c, 0, 64, 83
4, 129020, Note_on_c, 0, 64, 0
4, 129020, Note_on_c, 0, 69, 0
4, 129020, Note_on_c, 0, 72, 0
4, 129024, Note_on_c, 0, 71, 83
4, 129024, Note_on_c, 0, 67, 83
4, 129024, Note_on_c, 0, 62, 83
4, 129212, Note_on_c, 0, 62, 0
4, 129212, Note_on_c, 0, 67, 0
4, 129212, Note_on_c, 0, 71, 0
4, 129216, Note_on_c, 0, 71, 83
4, 129216, Note_on_c, 0, 67, 83
4, 129216, Note_on_c, 0, 62, 83
4, 129404, Note_on_c, 0, 62, 0
4, 129404, Note_on_c, 0, 67, 0
4, 129404, Note_on_c, 0, 71, 0
4, 129408, Note_on_c, 0, 69, 83
4, 129408, Note_on_c, 0, 66, 83
4, 129408, Note_on_c, 0, 60, 83
4, 129596, Note_on_c, 0, 60, 0
4, 129596, Note_on_c, 0, 66, 0
4, 129596, Note_on_c, 0, 69, 0
4, 129600, Note_on_c, 0, 69, 83
4, 129600, Note_on_c, 0, 66, 83
4, 129600, Note_on_c, 0, 60, 83
4, 129788, Note_on_c, 0, 60, 0
4, 129788, Note_on_c, 0, 66, 0
4, 129788, Note_on_c, 0, 69, 0
4, 129792, Note_on_c, 0, 67, 83
4, 129792, Note_on_c, 0, 59, 83
4, 130172, Note_on_c, 0, 59, 0
4, 130172, Note_on_c, 0, 67, 0
4, 136704, Note_on_c, 0, 88, 83
4, 136704, Note_on_c, 0, 79, 83
4, 136704, Note_on_c, 0, 76, 83
4, 137084, Note_on_c, 0, 76, 0
4, 137084, Note_on_c, 0, 79, 0
4, 137084, Note_on_c, 0, 88, 0
4, 137088, Note_on_c, 0, 81, 83
4, 137088, Note_on_c, 0, 78, 83
4, 137088, Note_on_c, 0, 69, 83
4, 137276, Note_on_c, 0, 69, 0
4, 137276, Note_on_c, 0, 78, 0
4, 137276, Note_on_c, 0, 81, 0
4, 137472, Note_on_c, 0, 86, 83
4, 137472, Note_on_c, 0, 79, 83
4, 137472, Note_on_c, 0, 74, 83
4, 137852, Note_on_c, 0, 74, 0
4, 137852, Note_on_c, 0, 79, 0
4, 137852, Note_on_c, 0, 86, 0
4, 137856, Note_on_c, 0, 91, 83
4, 137856, Note_on_c, 0, 79, 83
4, 138044, Note_on_c, 0, 79, 0
4, 138044, Note_on_c, 0, 91, 0
4, 138240, Note_on_c, 0, 88, 83
4, 138240, Note_on_c, 0, 79, 83
4, 138240, Note_on_c, 0, 76, 83
4, 138620, Note_on_c, 0, 76, 0
4, 138620, Note_on_c, 0, 79, 0
4, 138620, Note_on_c, 0, 88, 0
4, 138624, Note_on_c, 0, 81, 83
4, 138624, Note_on_c, 0, 78, 83
4, 138624, Note_on_c, 0, 69, 83
4, 138812, Note_on_c, 0, 69, 0
4, 138812, Note_on_c, 0, 78, 0
4, 138812, Note_on_c, 0, 81, 0
4, 139008, Note_on_c, 0, 86, 83
4, 139008, Note_on_c, 0, 79, 83
4, 139008, Note_on_c, 0, 74, 83
4, 139388, Note_on_c, 0, 74, 0
4, 139388, Note_on_c, 0, 79, 0
4, 139388, Note_on_c, 0, 86, 0
4, 139392, Note_on_c, 0, 91, 83
4, 139392, Note_on_c, 0, 79, 83
4, 139580, Note_on_c, 0, 79, 0
4, 139580, Note_on_c, 0, 91, 0
4, 139776, Note_on_c, 0, 88, 83
4, 139776, Note_on_c, 0, 79, 83
4, 139776, Note_on_c, 0, 76, 83
4, 140156, Note_on_c, 0, 76, 0
4, 140156, Note_on_c, 0, 79, 0
4, 140156, Note_on_c, 0, 88, 0
4, 140160, Note_on_c, 0, 81, 83
4, 140160, Note_on_c, 0, 78, 83
4, 140160, Note_on_c, 0, 69, 83
4, 140348, Note_on_c, 0, 69, 0
4, 140348, Note_on_c, 0, 78, 0
4, 140348, Note_on_c, 0, 81, 0
4, 140544, Note_on_c, 0, 83, 83
4, 140544, Note_on_c, 0, 86, 83
4, 140544, Note_on_c, 0, 74, 83
4, 140924, Note_on_c, 0, 74, 0
4, 140924, Note_on_c, 0, 86, 0
4, 140924, Note_on_c, 0, 83, 0
4, 140928, Note_on_c, 0, 84, 83
4, 140928, Note_on_c, 0, 81, 83
4, 140928, Note_on_c, 0, 72, 83
4, 141308, Note_on_c, 0, 72, 0
4, 141308, Note_on_c, 0, 81, 0
4, 141308, Note_on_c, 0, 84, 0
4, 141312, Note_on_c, 0, 83, 83
4, 141312, Note_on_c, 0, 79, 83
4, 141312, Note_on_c, 0, 71, 83
4, 141692, Note_on_c, 0, 71, 0
4, 141692, Note_on_c, 0, 79, 0
4, 141692, Note_on_c, 0, 83, 0
4, 141696, Note_on_c, 0, 81, 83
4, 141696, Note_on_c, 0, 78, 83
4, 141696, Note_on_c, 0, 69, 83
4, 142076, Note_on_c, 0, 69, 0
4, 142076, Note_on_c, 0, 78, 0
4, 142076, Note_on_c, 0, 81, 0
4, 142080, Note_on_c, 0, 79, 83
4, 142080, Note_on_c, 0, 71, 83
4, 143036, Note_on_c, 0, 71, 0
4, 143036, Note_on_c, 0, 79, 0
4, 143040, Note_on_c, 0, 79, 83
4, 143040, Note_on_c, 0, 71, 83
4, 143228, Note_on_c, 0, 71, 0
4, 143228, Note_on_c, 0, 79, 0
4, 143232, Note_on_c, 0, 79, 83
4, 143232, Note_on_c, 0, 71, 83
4, 143420, Note_on_c, 0, 71, 0
4, 143420, Note_on_c, 0, 79, 0
4, 143424, Note_on_c, 0, 79, 83
4, 143424, Note_on_c, 0, 71, 83
4, 143612, Note_on_c, 0, 71, 0
4, 143612, Note_on_c, 0, 79, 0
4, 143616, Note_on_c, 0, 72, 83
4, 143616, Note_on_c, 0, 78, 83
4, 144572, Note_on_c, 0, 78, 0
4, 144572, Note_on_c, 0, 72, 0
4, 144576, Note_on_c, 0, 78, 83
4, 144576, Note_on_c, 0, 72, 83
4, 144764, Note_on_c, 0, 72, 0
4, 144764, Note_on_c, 0, 78, 0
4, 144768, Note_on_c, 0, 78, 83
4, 144768, Note_on_c, 0, 72, 83
4, 144956, Note_on_c, 0, 72, 0
4, 144956, Note_on_c, 0, 78, 0
4, 144960, Note_on_c, 0, 78, 83
4, 144960, Note_on_c, 0, 72, 83
4, 145148, Note_on_c, 0, 72, 0
4, 145148, Note_on_c, 0, 78, 0
4, 145152, Note_on_c, 0, 77, 84
4, 145152, Note_on_c, 0, 71, 84
4, 145916, Note_on_c, 0, 71, 0
4, 145916, Note_on_c, 0, 77, 0
4, 145920, Note_on_c, 0, 76, 91
4, 145920, Note_on_c, 0, 72, 91
4, 146684, Note_on_c, 0, 72, 0
4, 146684, Note_on_c, 0, 76, 0
4, 146688, Note_on_c, 0, 74, 99
4, 146688, Note_on_c, 0, 65, 99
4, 147452, Note_on_c, 0, 65, 0
4, 147452, Note_on_c, 0, 74, 0
4, 147456, Note_on_c, 0, 72, 105
4, 147456, Note_on_c, 0, 64, 105
4, 148220, Note_on_c, 0, 64, 0
4, 148220, Note_on_c, 0, 72, 0
4, 148224, Note_on_c, 0, 71, 112
4, 148224, Note_on_c, 0, 65, 112
4, 148224, Note_on_c, 0, 62, 112
4, 148988, Note_on_c, 0, 62, 0
4, 148988, Note_on_c, 0, 65, 0
4, 148988, Note_on_c, 0, 71, 0
4, 155904, Note_on_c, 0, 67, 83
4, 155904, Note_on_c, 0, 64, 83
4, 156284, Note_on_c, 0, 64, 0
4, 156284, Note_on_c, 0, 67, 0
4, 156672, Note_on_c, 0, 71, 83
4, 156672, Note_on_c, 0, 65, 83
4, 156672, Note_on_c, 0, 62, 83
4, 157052, Note_on_c, 0, 62, 0
4, 157052, Note_on_c, 0, 65, 0
4, 157052, Note_on_c, 0, 71, 0
4, 157440, Note_on_c, 0, 71, 83
4, 157440, Note_on_c, 0, 65, 83
4, 157440, Note_on_c, 0, 67, 83
4, 157820, Note_on_c, 0, 65, 0
4, 157820, Note_on_c, 0, 71, 0
4, 157824, Note_on_c, 0, 72, 83
4, 157824, Note_on_c, 0, 64, 83
4, 158012, Note_on_c, 0, 64, 0
4, 158012, Note_on_c, 0, 72, 0
4, 158012, Note_on_c, 0, 67, 0
4, 158976, Note_on_c, 0, 67, 83
4, 158976, Note_on_c, 0, 64, 83
4, 159356, Note_on_c, 0, 64, 0
4, 159356, Note_on_c, 0, 67, 0
4, 159744, Note_on_c, 0, 71, 83
4, 159744, Note_on_c, 0, 67, 83
4, 159744, Note_on_c, 0, 65, 83
4, 160124, Note_on_c, 0, 65, 0
4, 160124, Note_on_c, 0, 67, 0
4, 160124, Note_on_c, 0, 71, 0
4, 160512, Note_on_c, 0, 72, 83
4, 160512, Note_on_c, 0, 67, 83
4, 160512, Note_on_c, 0, 64, 83
4, 160892, Note_on_c, 0, 64, 0
4, 160892, Note_on_c, 0, 67, 0
4, 160892, Note_on_c, 0, 72, 0
4, 161280, Note_on_c, 0, 76, 83
4, 161372, Note_on_c, 0, 76, 0
4, 161472, Note_on_c, 0, 77, 89
4, 161564, Note_on_c, 0, 77, 0
4, 161664, Note_on_c, 0, 78, 89
4, 161756, Note_on_c, 0, 78, 0
4, 161856, Note_on_c, 0, 79, 89
4, 161948, Note_on_c, 0, 79, 0
4, 162048, Note_on_c, 0, 81, 89
4, 162236, Note_on_c, 0, 81, 0
4, 162240, Note_on_c, 0, 79, 89
4, 162428, Note_on_c, 0, 79, 0
4, 162432, Note_on_c, 0, 77, 89
4, 162524, Note_on_c, 0, 77, 0
4, 162624, Note_on_c, 0, 76, 89
4, 162716, Note_on_c, 0, 76, 0
4, 162816, Note_on_c, 0, 74, 89
4, 162816, Note_on_c, 0, 65, 89
4, 162960, Note_on_c, 0, 76, 89
4, 163004, Note_on_c, 0, 76, 0
4, 163004, Note_on_c, 0, 74, 0
4, 163008, Note_on_c, 0, 74, 89
4, 163100, Note_on_c, 0, 74, 0
4, 163104, Note_on_c, 0, 72, 89
4, 163196, Note_on_c, 0, 72, 0
4, 163196, Note_on_c, 0, 65, 0
4, 163200, Note_on_c, 0, 74, 89
4, 163200, Note_on_c, 0, 65, 89
4, 163388, Note_on_c, 0, 65, 0
4, 163388, Note_on_c, 0, 74, 0
4, 163392, Note_on_c, 0, 74, 89
4, 163392, Note_on_c, 0, 65, 89
4, 163484, Note_on_c, 0, 74, 0
4, 163580, Note_on_c, 0, 65, 0
4, 163584, Note_on_c, 0, 74, 89
4, 163584, Note_on_c, 0, 65, 89
4, 163964, Note_on_c, 0, 65, 0
4, 163964, Note_on_c, 0, 74, 0
4, 163968, Note_on_c, 0, 76, 89
4, 163968, Note_on_c, 0, 64, 89
4, 164156, Note_on_c, 0, 64, 0
4, 164156, Note_on_c, 0, 76, 0
4, 164160, Note_on_c, 0, 72, 89
4, 164348, Note_on_c, 0, 72, 0
4, 164352, Note_on_c, 0, 76, 89
4, 164444, Note_on_c, 0, 76, 0
4, 164544, Note_on_c, 0, 77, 89
4, 164636, Note_on_c, 0, 77, 0
4, 164736, Note_on_c, 0, 78, 89
4, 164828, Note_on_c, 0, 78, 0
4, 164928, Note_on_c, 0, 79, 89
4, 165020, Note_on_c, 0, 79, 0
4, 165120, Note_on_c, 0, 81, 89
4, 165308, Note_on_c, 0, 81, 0
4, 165312, Note_on_c, 0, 79, 89
4, 165500, Note_on_c, 0, 79, 0
4, 165504, Note_on_c, 0, 77, 89
4, 165596, Note_on_c, 0, 77, 0
4, 165696, Note_on_c, 0, 76, 89
4, 165788, Note_on_c, 0, 76, 0
4, 165888, Note_on_c, 0, 74, 89
4, 165888, Note_on_c, 0, 65, 89
4, 166032, Note_on_c, 0, 76, 89
4, 166076, Note_on_c, 0, 76, 0
4, 166076, Note_on_c, 0, 74, 0
4, 166080, Note_on_c, 0, 74, 89
4, 166172, Note_on_c, 0, 74, 0
4, 166176, Note_on_c, 0, 72, 89
4, 166268, Note_on_c, 0, 72, 0
4, 166268, Note_on_c, 0, 65, 0
4, 166272, Note_on_c, 0, 65, 89
4, 166272, Note_on_c, 0, 74, 89
4, 166460, Note_on_c, 0, 74, 0
4, 166460, Note_on_c, 0, 65, 0
4, 166464, Note_on_c, 0, 64, 89
4, 166464, Note_on_c, 0, 76, 89
4, 166556, Note_on_c, 0, 76, 0
4, 166652, Note_on_c, 0, 64, 0
4, 166656, Note_on_c, 0, 72, 89
4, 166656, Note_on_c, 0, 67, 89
4, 166656, Note_on_c, 0, 64, 89
4, 167036, Note_on_c, 0, 64, 0
4, 167036, Note_on_c, 0, 67, 0
4, 167036, Note_on_c, 0, 72, 0
4, 168960, Note_on_c, 0, 67, 83
4, 168960, Note_on_c, 0, 55, 83
4, 169724, Note_on_c, 0, 55, 0
4, 169724, Note_on_c, 0, 67, 0
4, 169728, Note_on_c, 0, 67, 83
4, 169728, Note_on_c, 0, 55, 83
4, 170492, Note_on_c, 0, 55, 0
4, 170492, Note_on_c, 0, 67, 0
4, 172032, Note_on_c, 0, 72, 83
4, 172032, Note_on_c, 0, 60, 83
4, 172796, Note_on_c, 0, 60, 0
4, 172796, Note_on_c, 0, 72, 0
4, 172800, Note_on_c, 0, 72, 83
4, 172800, Note_on_c, 0, 60, 83
4, 173564, Note_on_c, 0, 60, 0
4, 173564, Note_on_c, 0, 72, 0
4, 177600, Note_on_c, 0, 79, 83
4, 177600, Note_on_c, 0, 76, 83
4, 177600, Note_on_c, 0, 72, 83
4, 177788, Note_on_c, 0, 72, 0
4, 177788, Note_on_c, 0, 76, 0
4, 177788, Note_on_c, 0, 79, 0
4, 177792, Note_on_c, 0, 88, 83
4, 177792, Note_on_c, 0, 79, 83
4, 177792, Note_on_c, 0, 76, 83
4, 178172, Note_on_c, 0, 76, 0
4, 178172, Note_on_c, 0, 79, 0
4, 178172, Note_on_c, 0, 88, 0
4, 178368, Note_on_c, 0, 79, 83
4, 178368, Note_on_c, 0, 76, 83
4, 178368, Note_on_c, 0, 72, 83
4, 178556, Note_on_c, 0, 72, 0
4, 178556, Note_on_c, 0, 76, 0
4, 178556, Note_on_c, 0, 79, 0
4, 178560, Note_on_c, 0, 86, 83
4, 178560, Note_on_c, 0, 83, 83
4, 178560, Note_on_c, 0, 77, 83
4, 178940, Note_on_c, 0, 77, 0
4, 178940, Note_on_c, 0, 83, 0
4, 178940, Note_on_c, 0, 86, 0
4, 180096, Note_on_c, 0, 81, 83
4, 180096, Note_on_c, 0, 77, 83
4, 180096, Note_on_c, 0, 74, 83
4, 180476, Note_on_c, 0, 74, 0
4, 180476, Note_on_c, 0, 77, 0
4, 180476, Note_on_c, 0, 81, 0
4, 180672, Note_on_c, 0, 72, 83
4, 180672, Note_on_c, 0, 67, 83
4, 180860, Note_on_c, 0, 67, 0
4, 180860, Note_on_c, 0, 72, 0
4, 180864, Note_on_c, 0, 79, 83
4, 180864, Note_on_c, 0, 76, 83
4, 180864, Note_on_c, 0, 72, 83
4, 181244, Note_on_c, 0, 72, 0
4, 181244, Note_on_c, 0, 76, 0
4, 181244, Note_on_c, 0, 79, 0
4, 181440, Note_on_c, 0, 74, 83
4, 181440, Note_on_c, 0, 71, 83
4, 181440, Note_on_c, 0, 65, 83
4, 181628, Note_on_c, 0, 65, 0
4, 181628, Note_on_c, 0, 71, 0
4, 181628, Note_on_c, 0, 74, 0
4, 181632, Note_on_c, 0, 77, 83
4, 181632, Note_on_c, 0, 74, 83
4, 181820, Note_on_c, 0, 74, 0
4, 181820, Note_on_c, 0, 77, 0
4, 181824, Note_on_c, 0, 71, 83
4, 181824, Note_on_c, 0, 65, 83
4, 182012, Note_on_c, 0, 65, 0
4, 182012, Note_on_c, 0, 71, 0
4, 182016, Note_on_c, 0, 72, 83
4, 182016, Note_on_c, 0, 64, 83
4, 182396, Note_on_c, 0, 64, 0
4, 182396, Note_on_c, 0, 72, 0
4, 182400, Note_on_c, 0, 84, 83
4, 182400, Note_on_c, 0, 79, 83
4, 182400, Note_on_c, 0, 76, 83
4, 182780, Note_on_c, 0, 76, 0
4, 182780, Note_on_c, 0, 79, 0
4, 182780, Note_on_c, 0, 84, 0
4, 182784, Note_on_c, 0, 84, 83
4, 182784, Note_on_c, 0, 81, 83
4, 182784, Note_on_c, 0, 77, 83
4, 182784, Note_on_c, 0, 72, 83
4, 183164, Note_on_c, 0, 72, 0
4, 183164, Note_on_c, 0, 84, 0
4, 183164, Note_on_c, 0, 81, 0
4, 183164, Note_on_c, 0, 77, 0
4, 183168, Note_on_c, 0, 81, 83
4, 183168, Note_on_c, 0, 72, 83
4, 183168, Note_on_c, 0, 77, 83
4, 183548, Note_on_c, 0, 77, 0
4, 183548, Note_on_c, 0, 72, 0
4, 183548, Note_on_c, 0, 81, 0
4, 183552, Note_on_c, 0, 79, 83
4, 183552, Note_on_c, 0, 76, 83
4, 183552, Note_on_c, 0, 72, 83
4, 184124, Note_on_c, 0, 72, 0
4, 184124, Note_on_c, 0, 76, 0
4, 184124, Note_on_c, 0, 79, 0
4, 184128, Note_on_c, 0, 76, 83
4, 184220, Note_on_c, 0, 76, 0
4, 184224, Note_on_c, 0, 72, 83
4, 184316, Note_on_c, 0, 72, 0
4, 184320, Note_on_c, 0, 84, 83
4, 184320, Note_on_c, 0, 81, 83
4, 184320, Note_on_c, 0, 77, 83
4, 184336, Note_on_c, 0, 72, 83
4, 184700, Note_on_c, 0, 77, 0
4, 184700, Note_on_c, 0, 84, 0
4, 184700, Note_on_c, 0, 81, 0
4, 184704, Note_on_c, 0, 81, 83
4, 184704, Note_on_c, 0, 77, 83
4, 184704, Note_on_c, 0, 72, 83
4, 184716, Note_on_c, 0, 72, 0
4, 185084, Note_on_c, 0, 81, 0
4, 185084, Note_on_c, 0, 77, 0
4, 185084, Note_on_c, 0, 72, 0
4, 185088, Note_on_c, 0, 79, 83
4, 185088, Note_on_c, 0, 76, 83
4, 185088, Note_on_c, 0, 72, 83
4, 185660, Note_on_c, 0, 72, 0
4, 185660, Note_on_c, 0, 76, 0
4, 185660, Note_on_c, 0, 79, 0
4, 185664, Note_on_c, 0, 76, 83
4, 185756, Note_on_c, 0, 76, 0
4, 185760, Note_on_c, 0, 72, 83
4, 185852, Note_on_c, 0, 72, 0
4, 185856, Note_on_c, 0, 84, 83
4, 185856, Note_on_c, 0, 81, 83
4, 185856, Note_on_c, 0, 77, 83
4, 185856, Note_on_c, 0, 72, 83
4, 186236, Note_on_c, 0, 72, 0
4, 186236, Note_on_c, 0, 84, 0
4, 186236, Note_on_c, 0, 81, 0
4, 186236, Note_on_c, 0, 77, 0
4, 186240, Note_on_c, 0, 81, 83
4, 186240, Note_on_c, 0, 77, 83
4, 186240, Note_on_c, 0, 72, 83
4, 186620, Note_on_c, 0, 72, 0
4, 186620, Note_on_c, 0, 77, 0
4, 186620, Note_on_c, 0, 81, 0
4, 186624, Note_on_c, 0, 79, 83
4, 186624, Note_on_c, 0, 76, 83
4, 186624, Note_on_c, 0, 72, 83
4, 186716, Note_on_c, 0, 72, 0
4, 186716, Note_on_c, 0, 76, 0
4, 186716, Note_on_c, 0, 79, 0
4, 186816, Note_on_c, 0, 79, 83
4, 186908, Note_on_c, 0, 79, 0
4, 187008, Note_on_c, 0, 88, 83
4, 187200, Note_on_c, 0, 88, 83
4, 187200, Note_on_c, 0, 79, 83
4, 187200, Note_on_c, 0, 76, 83
4, 187388, Note_on_c, 0, 76, 0
4, 187388, Note_on_c, 0, 88, 0
4, 187388, Note_on_c, 0, 88, 0
4, 187388, Note_on_c, 0, 79, 0
4, 187392, Note_on_c, 0, 86, 83
4, 187392, Note_on_c, 0, 77, 83
4, 187392, Note_on_c, 0, 74, 83
4, 187584, Note_on_c, 0, 77, 83
4, 187676, Note_on_c, 0, 77, 0
4, 187772, Note_on_c, 0, 86, 0
4, 187772, Note_on_c, 0, 74, 0
4, 187772, Note_on_c, 0, 77, 0
4, 187776, Note_on_c, 0, 86, 83
4, 187968, Note_on_c, 0, 86, 83
4, 187968, Note_on_c, 0, 77, 83
4, 187968, Note_on_c, 0, 74, 83
4, 188156, Note_on_c, 0, 74, 0
4, 188156, Note_on_c, 0, 86, 0
4, 188156, Note_on_c, 0, 86, 0
4, 188156, Note_on_c, 0, 77, 0
4, 188160, Note_on_c, 0, 84, 83
4, 188160, Note_on_c, 0, 76, 83
4, 188160, Note_on_c, 0, 72, 83
4, 188352, Note_on_c, 0, 76, 83
4, 188540, Note_on_c, 0, 76, 0
4, 188540, Note_on_c, 0, 84, 0
4, 188540, Note_on_c, 0, 76, 0
4, 188540, Note_on_c, 0, 72, 0
4, 188544, Note_on_c, 0, 84, 83
4, 188924, Note_on_c, 0, 84, 0
4, 189888, Note_on_c, 0, 76, 85
4, 190076, Note_on_c, 0, 76, 0
4, 190080, Note_on_c, 0, 84, 85
4, 190460, Note_on_c, 0, 84, 0
4, 190656, Note_on_c, 0, 74, 85
4, 190844, Note_on_c, 0, 74, 0
4, 190848, Note_on_c, 0, 83, 85
4, 191228, Note_on_c, 0, 83, 0
4, 191424, Note_on_c, 0, 72, 85
4, 191612, Note_on_c, 0, 72, 0
4, 191616, Note_on_c, 0, 81, 85
4, 191996, Note_on_c, 0, 81, 0
4, 192960, Note_on_c, 0, 72, 85
4, 192960, Note_on_c, 0, 69, 85
4, 193148, Note_on_c, 0, 69, 0
4, 193148, Note_on_c, 0, 72, 0
4, 193152, Note_on_c, 0, 81, 85
4, 193152, Note_on_c, 0, 72, 85
4, 193532, Note_on_c, 0, 72, 0
4, 193532, Note_on_c, 0, 81, 0
4, 193728, Note_on_c, 0, 70, 85
4, 193728, Note_on_c, 0, 67, 85
4, 193916, Note_on_c, 0, 67, 0
4, 193916, Note_on_c, 0, 70, 0
4, 193920, Note_on_c, 0, 79, 85
4, 193920, Note_on_c, 0, 70, 85
4, 194300, Note_on_c, 0, 70, 0
4, 194300, Note_on_c, 0, 79, 0
4, 194496, Note_on_c, 0, 69, 89
4, 194496, Note_on_c, 0, 65, 89
4, 194684, Note_on_c, 0, 65, 0
4, 194684, Note_on_c, 0, 69, 0
4, 194688, Note_on_c, 0, 77, 89
4, 194688, Note_on_c, 0, 69, 89
4, 195452, Note_on_c, 0, 69, 0
4, 195452, Note_on_c, 0, 77, 0
4, 195456, Note_on_c, 0, 76, 89
4, 195456, Note_on_c, 0, 68, 89
4, 195836, Note_on_c, 0, 68, 0
4, 195836, Note_on_c, 0, 76, 0
4, 195840, Note_on_c, 0, 69, 89
4, 195840, Note_on_c, 0, 76, 89
4, 196028, Note_on_c, 0, 76, 0
4, 196032, Note_on_c, 0, 75, 89
4, 196220, Note_on_c, 0, 75, 0
4, 196220, Note_on_c, 0, 69, 0
4, 196224, Note_on_c, 0, 72, 89
4, 196224, Note_on_c, 0, 75, 89
4, 196604, Note_on_c, 0, 72, 0
4, 196608, Note_on_c, 0, 71, 89
4, 196988, Note_on_c, 0, 71, 0
4, 196988, Note_on_c, 0, 75, 0
4, 196992, Note_on_c, 0, 75, 89
4, 196992, Note_on_c, 0, 69, 89
4, 197372, Note_on_c, 0, 69, 0
4, 197372, Note_on_c, 0, 75, 0
4, 197376, Note_on_c, 0, 76, 89
4, 197376, Note_on_c, 0, 76, 89
4, 197376, Note_on_c, 0, 68, 89
4, 197756, Note_on_c, 0, 68, 0
4, 197756, Note_on_c, 0, 76, 0
4, 198140, Note_on_c, 0, 76, 0
4, 198144, Note_on_c, 0, 74, 89
4, 198144, Note_on_c, 0, 76, 89
4, 198144, Note_on_c, 0, 76, 89
4, 198144, Note_on_c, 0, 64, 89
4, 198332, Note_on_c, 0, 64, 0
4, 198332, Note_on_c, 0, 76, 0
4, 198336, Note_on_c, 0, 78, 89
4, 198336, Note_on_c, 0, 66, 89
4, 198524, Note_on_c, 0, 66, 0
4, 198524, Note_on_c, 0, 78, 0
4, 198528, Note_on_c, 0, 79, 89
4, 198528, Note_on_c, 0, 67, 89
4, 198716, Note_on_c, 0, 67, 0
4, 198716, Note_on_c, 0, 79, 0
4, 198720, Note_on_c, 0, 80, 89
4, 198720, Note_on_c, 0, 68, 89
4, 198908, Note_on_c, 0, 68, 0
4, 198908, Note_on_c, 0, 80, 0
4, 198908, Note_on_c, 0, 74, 0
4, 198912, Note_on_c, 0, 73, 89
4, 198912, Note_on_c, 0, 64, 89
4, 198912, Note_on_c, 0, 83, 89
4, 198912, Note_on_c, 0, 71, 89
4, 199100, Note_on_c, 0, 71, 0
4, 199100, Note_on_c, 0, 83, 0
4, 199104, Note_on_c, 0, 81, 89
4, 199104, Note_on_c, 0, 69, 89
4, 199292, Note_on_c, 0, 69, 0
4, 199292, Note_on_c, 0, 81, 0
4, 199676, Note_on_c, 0, 64, 0
4, 199676, Note_on_c, 0, 73, 0
4, 199676, Note_on_c, 0, 76, 0
4, 199680, Note_on_c, 0, 74, 89
4, 199680, Note_on_c, 0, 71, 89
4, 199680, Note_on_c, 0, 64, 89
4, 199680, Note_on_c, 0, 64, 89
4, 199868, Note_on_c, 0, 64, 0
4, 199872, Note_on_c, 0, 66, 89
4, 200060, Note_on_c, 0, 66, 0
4, 200064, Note_on_c, 0, 67, 89
4, 200252, Note_on_c, 0, 67, 0
4, 200256, Note_on_c, 0, 68, 89
4, 200444, Note_on_c, 0, 68, 0
4, 200444, Note_on_c, 0, 64, 0
4, 200444, Note_on_c, 0, 71, 0
4, 200444, Note_on_c, 0, 74, 0
4, 200448, Note_on_c, 0, 73, 89
4, 200448, Note_on_c, 0, 71, 89
4, 200448, Note_on_c, 0, 64, 89
4, 200636, Note_on_c, 0, 71, 0
4, 200640, Note_on_c, 0, 69, 89
4, 200640, Note_on_c, 0, 69, 89
4, 200828, Note_on_c, 0, 69, 0
4, 201212, Note_on_c, 0, 69, 0
4, 201212, Note_on_c, 0, 73, 0
4, 201216, Note_on_c, 0, 71, 89
4, 201216, Note_on_c, 0, 62, 89
4, 201980, Note_on_c, 0, 62, 0
4, 201980, Note_on_c, 0, 71, 0
4, 201984, Note_on_c, 0, 69, 89
4, 201984, Note_on_c, 0, 61, 89
4, 202364, Note_on_c, 0, 61, 0
4, 202364, Note_on_c, 0, 69, 0
4, 202364, Note_on_c, 0, 64, 0
4, 208896, Note_on_c, 0, 85, 85
4, 208896, Note_on_c, 0, 73, 85
4, 208988, Note_on_c, 0, 73, 0
4, 208988, Note_on_c, 0, 85, 0
4, 209088, Note_on_c, 0, 86, 89
4, 209088, Note_on_c, 0, 74, 89
4, 209180, Note_on_c, 0, 74, 0
4, 209180, Note_on_c, 0, 86, 0
4, 209280, Note_on_c, 0, 87, 89
4, 209280, Note_on_c, 0, 75, 89
4, 209372, Note_on_c, 0, 75, 0
4, 209372, Note_on_c, 0, 87, 0
4, 209472, Note_on_c, 0, 88, 89
4, 209472, Note_on_c, 0, 76, 89
4, 209564, Note_on_c, 0, 76, 0
4, 209564, Note_on_c, 0, 88, 0
4, 209664, Note_on_c, 0, 90, 89
4, 209664, Note_on_c, 0, 78, 89
4, 209664, Note_on_c, 0, 61, 89
4, 209664, Note_on_c, 0, 57, 89
4, 209852, Note_on_c, 0, 57, 0
4, 209852, Note_on_c, 0, 90, 0
4, 209852, Note_on_c, 0, 78, 0
4, 209852, Note_on_c, 0, 61, 0
4, 209856, Note_on_c, 0, 88, 89
4, 209856, Note_on_c, 0, 76, 89
4, 209856, Note_on_c, 0, 69, 89
4, 210044, Note_on_c, 0, 69, 0
4, 210044, Note_on_c, 0, 76, 0
4, 210044, Note_on_c, 0, 88, 0
4, 210048, Note_on_c, 0, 86, 89
4, 210048, Note_on_c, 0, 74, 89
4, 210048, Note_on_c, 0, 64, 89
4, 210048, Note_on_c, 0, 61, 89
4, 210140, Note_on_c, 0, 74, 0
4, 210140, Note_on_c, 0, 86, 0
4, 210236, Note_on_c, 0, 64, 0
4, 210236, Note_on_c, 0, 61, 0
4, 210240, Note_on_c, 0, 85, 89
4, 210240, Note_on_c, 0, 73, 89
4, 210240, Note_on_c, 0, 69, 89
4, 210332, Note_on_c, 0, 73, 0
4, 210332, Note_on_c, 0, 85, 0
4, 210428, Note_on_c, 0, 69, 0
4, 210432, Note_on_c, 0, 83, 89
4, 210432, Note_on_c, 0, 71, 89
4, 210432, Note_on_c, 0, 59, 89
4, 210432, Note_on_c, 0, 56, 89
4, 210432, Note_on_c, 0, 52, 89
4, 210524, Note_on_c, 0, 71, 0
4, 210524, Note_on_c, 0, 83, 0
4, 210576, Note_on_c, 0, 85, 89
4, 210620, Note_on_c, 0, 85, 0
4, 210620, Note_on_c, 0, 52, 0
4, 210620, Note_on_c, 0, 59, 0
4, 210620, Note_on_c, 0, 56, 0
4, 210624, Note_on_c, 0, 83, 89
4, 210624, Note_on_c, 0, 62, 89
4, 210716, Note_on_c, 0, 83, 0
4, 210720, Note_on_c, 0, 81, 89
4, 210812, Note_on_c, 0, 81, 0
4, 210812, Note_on_c, 0, 62, 0
4, 210816, Note_on_c, 0, 83, 89
4, 210816, Note_on_c, 0, 64, 89
4, 210816, Note_on_c, 0, 55, 89
4, 211004, Note_on_c, 0, 55, 0
4, 211004, Note_on_c, 0, 64, 0
4, 211004, Note_on_c, 0, 83, 0
4, 211008, Note_on_c, 0, 85, 89
4, 211008, Note_on_c, 0, 73, 89
4, 211008, Note_on_c, 0, 69, 89
4, 211100, Note_on_c, 0, 73, 0
4, 211100, Note_on_c, 0, 85, 0
4, 211196, Note_on_c, 0, 69, 0
4, 211200, Note_on_c, 0, 88, 89
4, 211200, Note_on_c, 0, 76, 89
4, 211200, Note_on_c, 0, 62, 89
4, 211200, Note_on_c, 0, 54, 89
4, 211388, Note_on_c, 0, 62, 0
4, 211392, Note_on_c, 0, 69, 89
4, 211580, Note_on_c, 0, 69, 0
4, 211580, Note_on_c, 0, 88, 0
4, 211580, Note_on_c, 0, 76, 0
4, 211584, Note_on_c, 0, 66, 89
4, 211584, Note_on_c, 0, 86, 89
4, 211584, Note_on_c, 0, 69, 89
4, 211584, Note_on_c, 0, 74, 89
4, 211772, Note_on_c, 0, 74, 0
4, 211772, Note_on_c, 0, 86, 0
4, 211772, Note_on_c, 0, 69, 0
4, 211772, Note_on_c, 0, 66, 0
4, 211964, Note_on_c, 0, 54, 0
4, 219648, Note_on_c, 0, 85, 89
4, 219648, Note_on_c, 0, 73, 89
4, 219740, Note_on_c, 0, 73, 0
4, 219740, Note_on_c, 0, 85, 0
4, 219840, Note_on_c, 0, 86, 89
4, 219840, Note_on_c, 0, 74, 89
4, 219932, Note_on_c, 0, 74, 0
4, 219932, Note_on_c, 0, 86, 0
4, 220032, Note_on_c, 0, 87, 89
4, 220032, Note_on_c, 0, 75, 89
4, 220124, Note_on_c, 0, 75, 0
4, 220124, Note_on_c, 0, 87, 0
4, 220224, Note_on_c, 0, 88, 89
4, 220224, Note_on_c, 0, 76, 89
4, 220316, Note_on_c, 0, 76, 0
4, 220316, Note_on_c, 0, 88, 0
4, 220416, Note_on_c, 0, 90, 89
4, 220416, Note_on_c, 0, 78, 89
4, 220604, Note_on_c, 0, 78, 0
4, 220604, Note_on_c, 0, 90, 0
4, 220608, Note_on_c, 0, 88, 89
4, 220608, Note_on_c, 0, 76, 89
4, 220796, Note_on_c, 0, 76, 0
4, 220796, Note_on_c, 0, 88, 0
4, 220800, Note_on_c, 0, 86, 89
4, 220800, Note_on_c, 0, 74, 89
4, 220892, Note_on_c, 0, 74, 0
4, 220892, Note_on_c, 0, 86, 0
4, 220992, Note_on_c, 0, 85, 89
4, 220992, Note_on_c, 0, 73, 89
4, 221084, Note_on_c, 0, 73, 0
4, 221084, Note_on_c, 0, 85, 0
4, 221184, Note_on_c, 0, 83, 89
4, 221184, Note_on_c, 0, 71, 89
4, 221276, Note_on_c, 0, 71, 0
4, 221276, Note_on_c, 0, 83, 0
4, 221328, Note_on_c, 0, 85, 89
4, 221372, Note_on_c, 0, 85, 0
4, 221376, Note_on_c, 0, 83, 89
4, 221468, Note_on_c, 0, 83, 0
4, 221472, Note_on_c, 0, 81, 89
4, 221564, Note_on_c, 0, 81, 0
4, 221568, Note_on_c, 0, 83, 89
4, 221756, Note_on_c, 0, 83, 0
4, 221760, Note_on_c, 0, 88, 89
4, 221760, Note_on_c, 0, 76, 89
4, 221948, Note_on_c, 0, 76, 0
4, 221948, Note_on_c, 0, 88, 0
4, 221952, Note_on_c, 0, 81, 89
4, 221952, Note_on_c, 0, 69, 89
4, 222332, Note_on_c, 0, 69, 0
4, 222332, Note_on_c, 0, 81, 0
4, 224256, Note_on_c, 0, 83, 89
4, 224256, Note_on_c, 0, 71, 89
4, 224348, Note_on_c, 0, 71, 0
4, 224348, Note_on_c, 0, 83, 0
4, 224400, Note_on_c, 0, 84, 89
4, 224444, Note_on_c, 0, 84, 0
4, 224448, Note_on_c, 0, 83, 89
4, 224540, Note_on_c, 0, 83, 0
4, 224544, Note_on_c, 0, 81, 89
4, 224636, Note_on_c, 0, 81, 0
4, 224640, Note_on_c, 0, 83, 89
4, 224828, Note_on_c, 0, 83, 0
4, 224832, Note_on_c, 0, 88, 89
4, 224832, Note_on_c, 0, 76, 89
4, 224924, Note_on_c, 0, 76, 0
4, 224924, Note_on_c, 0, 88, 0
4, 225024, Note_on_c, 0, 81, 89
4, 225024, Note_on_c, 0, 69, 89
4, 225404, Note_on_c, 0, 69, 0
4, 225404, Note_on_c, 0, 81, 0
4, 229632, Note_on_c, 0, 70, 89
4, 229632, Note_on_c, 0, 67, 89
4, 229632, Note_on_c, 0, 64, 89
4, 231164, Note_on_c, 0, 64, 0
4, 231164, Note_on_c, 0, 67, 0
4, 231164, Note_on_c, 0, 70, 0
4, 233472, Note_on_c, 0, 63, 89
4, 233564, Note_on_c, 0, 63, 0
4, 233664, Note_on_c, 0, 65, 89
4, 233756, Note_on_c, 0, 65, 0
4, 233856, Note_on_c, 0, 66, 89
4, 233948, Note_on_c, 0, 66, 0
4, 234048, Note_on_c, 0, 67, 89
4, 234140, Note_on_c, 0, 67, 0
4, 234240, Note_on_c, 0, 68, 89
4, 234428, Note_on_c, 0, 68, 0
4, 234432, Note_on_c, 0, 67, 89
4, 234620, Note_on_c, 0, 67, 0
4, 236544, Note_on_c, 0, 65, 89
4, 236636, Note_on_c, 0, 65, 0
4, 236736, Note_on_c, 0, 67, 89
4, 236828, Note_on_c, 0, 67, 0
4, 236928, Note_on_c, 0, 68, 89
4, 237020, Note_on_c, 0, 68, 0
4, 237120, Note_on_c, 0, 69, 89
4, 237212, Note_on_c, 0, 69, 0
4, 237312, Note_on_c, 0, 70, 89
4, 237500, Note_on_c, 0, 70, 0
4, 237504, Note_on_c, 0, 69, 89
4, 237692, Note_on_c, 0, 69, 0
4, 239616, Note_on_c, 0, 67, 89
4, 239708, Note_on_c, 0, 67, 0
4, 239808, Note_on_c, 0, 69, 89
4, 239900, Note_on_c, 0, 69, 0
4, 240000, Note_on_c, 0, 70, 89
4, 240092, Note_on_c, 0, 70, 0
4, 240192, Note_on_c, 0, 71, 89
4, 240284, Note_on_c, 0, 71, 0
4, 240384, Note_on_c, 0, 72, 89
4, 240572, Note_on_c, 0, 72, 0
4, 240576, Note_on_c, 0, 71, 89
4, 240764, Note_on_c, 0, 71, 0
4, 241536, Note_on_c, 0, 64, 89
4, 241628, Note_on_c, 0, 64, 0
4, 241728, Note_on_c, 0, 66, 89
4, 241820, Note_on_c, 0, 66, 0
4, 241920, Note_on_c, 0, 69, 89
4, 242108, Note_on_c, 0, 69, 0
4, 242112, Note_on_c, 0, 67, 89
4, 242300, Note_on_c, 0, 67, 0
4, 243072, Note_on_c, 0, 60, 89
4, 243164, Note_on_c, 0, 60, 0
4, 243264, Note_on_c, 0, 62, 89
4, 243356, Note_on_c, 0, 62, 0
4, 243456, Note_on_c, 0, 65, 89
4, 243644, Note_on_c, 0, 65, 0
4, 243648, Note_on_c, 0, 64, 89
4, 243836, Note_on_c, 0, 64, 0
4, 244992, Note_on_c, 0, 76, 89
4, 244992, Note_on_c, 0, 72, 89
4, 244992, Note_on_c, 0, 67, 89
4, 245756, Note_on_c, 0, 67, 0
4, 245756, Note_on_c, 0, 72, 0
4, 245756, Note_on_c, 0, 76, 0
4, 245760, Note_on_c, 0, 78, 89
4, 245760, Note_on_c, 0, 75, 89
4, 245760, Note_on_c, 0, 72, 89
4, 246140, Note_on_c, 0, 78, 0
4, 246144, Note_on_c, 0, 79, 89
4, 246524, Note_on_c, 0, 79, 0
4, 246528, Note_on_c, 0, 81, 89
4, 247292, Note_on_c, 0, 81, 0
4, 247296, Note_on_c, 0, 84, 89
4, 248060, Note_on_c, 0, 84, 0
4, 248064, Note_on_c, 0, 87, 89
4, 248828, Note_on_c, 0, 87, 0
4, 248828, Note_on_c, 0, 72, 0
4, 248828, Note_on_c, 0, 75, 0
4, 248832, Note_on_c, 0, 75, 89
4, 248832, Note_on_c, 0, 72, 89
4, 248832, Note_on_c, 0, 69, 89
4, 249596, Note_on_c, 0, 69, 0
4, 249596, Note_on_c, 0, 72, 0
4, 249596, Note_on_c, 0, 75, 0
4, 249600, Note_on_c, 0, 67, 89
4, 249600, Note_on_c, 0, 74, 89
4, 249600, Note_on_c, 0, 71, 89
4, 249980, Note_on_c, 0, 71, 0
4, 249980, Note_on_c, 0, 74, 0
4, 250556, Note_on_c, 0, 67, 0
4, 250560, Note_on_c, 0, 68, 89
4, 250748, Note_on_c, 0, 68, 0
4, 250752, Note_on_c, 0, 67, 89
4, 250940, Note_on_c, 0, 67, 0
4, 250944, Note_on_c, 0, 66, 89
4, 251132, Note_on_c, 0, 66, 0
4, 251136, Note_on_c, 0, 67, 89
4, 252092, Note_on_c, 0, 67, 0
4, 252096, Note_on_c, 0, 68, 89
4, 252284, Note_on_c, 0, 68, 0
4, 252288, Note_on_c, 0, 67, 89
4, 252476, Note_on_c, 0, 67, 0
4, 252480, Note_on_c, 0, 66, 89
4, 252668, Note_on_c, 0, 66, 0
4, 252672, Note_on_c, 0, 67, 89
4, 252860, Note_on_c, 0, 67, 0
4, 252864, Note_on_c, 0, 68, 89
4, 253052, Note_on_c, 0, 68, 0
4, 253056, Note_on_c, 0, 67, 89
4, 253244, Note_on_c, 0, 67, 0
4, 253248, Note_on_c, 0, 66, 89
4, 253436, Note_on_c, 0, 66, 0
4, 253440, Note_on_c, 0, 67, 89
4, 253628, Note_on_c, 0, 67, 0
4, 253632, Note_on_c, 0, 68, 89
4, 253820, Note_on_c, 0, 68, 0
4, 253824, Note_on_c, 0, 67, 89
4, 254012, Note_on_c, 0, 67, 0
4, 254016, Note_on_c, 0, 66, 89
4, 254204, Note_on_c, 0, 66, 0
4, 254208, Note_on_c, 0, 79, 89
4, 254208, Note_on_c, 0, 67, 89
4, 254588, Note_on_c, 0, 67, 0
4, 254972, Note_on_c, 0, 79, 0
4, 254976, Note_on_c, 0, 79, 89
4, 254976, Note_on_c, 0, 77, 89
4, 254976, Note_on_c, 0, 79, 89
4, 254976, Note_on_c, 0, 67, 89
4, 255164, Note_on_c, 0, 67, 0
4, 255164, Note_on_c, 0, 79, 0
4, 255168, Note_on_c, 0, 81, 89
4, 255168, Note_on_c, 0, 69, 89
4, 255356, Note_on_c, 0, 69, 0
4, 255356, Note_on_c, 0, 81, 0
4, 255360, Note_on_c, 0, 82, 89
4, 255360, Note_on_c, 0, 70, 89
4, 255548, Note_on_c, 0, 70, 0
4, 255548, Note_on_c, 0, 82, 0
4, 255552, Note_on_c, 0, 83, 89
4, 255552, Note_on_c, 0, 71, 89
4, 255740, Note_on_c, 0, 71, 0
4, 255740, Note_on_c, 0, 83, 0
4, 255740, Note_on_c, 0, 77, 0
4, 255744, Note_on_c, 0, 76, 89
4, 255744, Note_on_c, 0, 86, 89
4, 255744, Note_on_c, 0, 74, 89
4, 255744, Note_on_c, 0, 67, 89
4, 255932, Note_on_c, 0, 67, 0
4, 255932, Note_on_c, 0, 86, 0
4, 255932, Note_on_c, 0, 74, 0
4, 255936, Note_on_c, 0, 84, 89
4, 255936, Note_on_c, 0, 72, 89
4, 256124, Note_on_c, 0, 72, 0
4, 256124, Note_on_c, 0, 84, 0
4, 256508, Note_on_c, 0, 76, 0
4, 256508, Note_on_c, 0, 79, 0
4, 256512, Note_on_c, 0, 77, 89
4, 256512, Note_on_c, 0, 74, 89
4, 256512, Note_on_c, 0, 67, 89
4, 256512, Note_on_c, 0, 67, 89
4, 256512, Note_on_c, 0, 67, 89
4, 256700, Note_on_c, 0, 67, 0
4, 256700, Note_on_c, 0, 67, 0
4, 256704, Note_on_c, 0, 69, 89
4, 256892, Note_on_c, 0, 69, 0
4, 256896, Note_on_c, 0, 70, 89
4, 257084, Note_on_c, 0, 70, 0
4, 257088, Note_on_c, 0, 71, 89
4, 257276, Note_on_c, 0, 71, 0
4, 257276, Note_on_c, 0, 77, 0
4, 257276, Note_on_c, 0, 74, 0
4, 257280, Note_on_c, 0, 76, 89
4, 257280, Note_on_c, 0, 74, 89
4, 257468, Note_on_c, 0, 74, 0
4, 257472, Note_on_c, 0, 72, 89
4, 257660, Note_on_c, 0, 72, 0
4, 258044, Note_on_c, 0, 76, 0
4, 258048, Note_on_c, 0, 74, 89
4, 258048, Note_on_c, 0, 65, 89
4, 258812, Note_on_c, 0, 65, 0
4, 258812, Note_on_c, 0, 74, 0
4, 258812, Note_on_c, 0, 67, 0
4, 258816, Note_on_c, 0, 72, 85
4, 258816, Note_on_c, 0, 67, 85
4, 258816, Note_on_c, 0, 64, 85
4, 259004, Note_on_c, 0, 64, 0
4, 259004, Note_on_c, 0, 67, 0
4, 259004, Note_on_c, 0, 72, 0
4, 259008, Note_on_c, 0, 72, 89
4, 259196, Note_on_c, 0, 72, 0
4, 259200, Note_on_c, 0, 67, 89
4, 259200, Note_on_c, 0, 64, 89
4, 259388, Note_on_c, 0, 64, 0
4, 259388, Note_on_c, 0, 67, 0
4, 259392, Note_on_c, 0, 72, 89
4, 259580, Note_on_c, 0, 72, 0
4, 259584, Note_on_c, 0, 60, 89
4, 259772, Note_on_c, 0, 60, 0
4, 259776, Note_on_c, 0, 72, 89
4, 259964, Note_on_c, 0, 72, 0
4, 259968, Note_on_c, 0, 67, 89
4, 259968, Note_on_c, 0, 64, 89
4, 260156, Note_on_c, 0, 64, 0
4, 260156, Note_on_c, 0, 67, 0
4, 260160, Note_on_c, 0, 72, 89
4, 260348, Note_on_c, 0, 72, 0
4, 260352, Note_on_c, 0, 60, 89
4, 260540, Note_on_c, 0, 60, 0
4, 260544, Note_on_c, 0, 72, 89
4, 260732, Note_on_c, 0, 72, 0
4, 260736, Note_on_c, 0, 67, 89
4, 260736, Note_on_c, 0, 64, 89
4, 260924, Note_on_c, 0, 64, 0
4, 260924, Note_on_c, 0, 67, 0
4, 260928, Note_on_c, 0, 72, 89
4, 261116, Note_on_c, 0, 72, 0
4, 261120, Note_on_c, 0, 62, 89
4, 261308, Note_on_c, 0, 62, 0
4, 261312, Note_on_c, 0, 71, 89
4, 261500, Note_on_c, 0, 71, 0
4, 261504, Note_on_c, 0, 67, 89
4, 261504, Note_on_c, 0, 65, 89
4, 261692, Note_on_c, 0, 65, 0
4, 261692, Note_on_c, 0, 67, 0
4, 261696, Note_on_c, 0, 71, 89
4, 261884, Note_on_c, 0, 71, 0
4, 261888, Note_on_c, 0, 65, 89
4, 261888, Note_on_c, 0, 62, 89
4, 262076, Note_on_c, 0, 62, 0
4, 262076, Note_on_c, 0, 65, 0
4, 262080, Note_on_c, 0, 71, 89
4, 262268, Note_on_c, 0, 71, 0
4, 262272, Note_on_c, 0, 64, 89
4, 262272, Note_on_c, 0, 60, 89
4, 262460, Note_on_c, 0, 60, 0
4, 262460, Note_on_c, 0, 64, 0
4, 262464, Note_on_c, 0, 72, 89
4, 262652, Note_on_c, 0, 72, 0
4, 262656, Note_on_c, 0, 60, 89
4, 262844, Note_on_c, 0, 60, 0
4, 262848, Note_on_c, 0, 72, 89
4, 263036, Note_on_c, 0, 72, 0
4, 263040, Note_on_c, 0, 67, 89
4, 263040, Note_on_c, 0, 64, 89
4, 263228, Note_on_c, 0, 64, 0
4, 263228, Note_on_c, 0, 67, 0
4, 263232, Note_on_c, 0, 72, 89
4, 263420, Note_on_c, 0, 72, 0
4, 263424, Note_on_c, 0, 60, 89
4, 263612, Note_on_c, 0, 60, 0
4, 263616, Note_on_c, 0, 72, 89
4, 263804, Note_on_c, 0, 72, 0
4, 263808, Note_on_c, 0, 67, 89
4, 263808, Note_on_c, 0, 64, 89
4, 263996, Note_on_c, 0, 64, 0
4, 263996, Note_on_c, 0, 67, 0
4, 264000, Note_on_c, 0, 72, 89
4, 264188, Note_on_c, 0, 72, 0
4, 264192, Note_on_c, 0, 62, 89
4, 264380, Note_on_c, 0, 62, 0
4, 264384, Note_on_c, 0, 71, 89
4, 264572, Note_on_c, 0, 71, 0
4, 264576, Note_on_c, 0, 67, 89
4, 264576, Note_on_c, 0, 65, 89
4, 264764, Note_on_c, 0, 65, 0
4, 264764, Note_on_c, 0, 67, 0
4, 264768, Note_on_c, 0, 71, 89
4, 264956, Note_on_c, 0, 71, 0
4, 264960, Note_on_c, 0, 72, 112
4, 264960, Note_on_c, 0, 67, 112
4, 264960, Note_on_c, 0, 64, 112
4, 265148, Note_on_c, 0, 64, 0
4, 265148, Note_on_c, 0, 67, 0
4, 265148, Note_on_c, 0, 72, 0
4, 265152, Note_on_c, 0, 79, 112
4, 265244, Note_on_c, 0, 79, 0
4, 265344, Note_on_c, 0, 88, 112
4, 265536, Note_on_c, 0, 88, 112
4, 265536, Note_on_c, 0, 79, 112
4, 265536, Note_on_c, 0, 76, 112
4, 265724, Note_on_c, 0, 76, 0
4, 265724, Note_on_c, 0, 88, 0
4, 265724, Note_on_c, 0, 88, 0
4, 265724, Note_on_c, 0, 79, 0
4, 265728, Note_on_c, 0, 86, 112
4, 265728, Note_on_c, 0, 77, 112
4, 265728, Note_on_c, 0, 74, 112
4, 265920, Note_on_c, 0, 77, 112
4, 266108, Note_on_c, 0, 77, 0
4, 266108, Note_on_c, 0, 86, 0
4, 266108, Note_on_c, 0, 77, 0
4, 266108, Note_on_c, 0, 74, 0
4, 266112, Note_on_c, 0, 86, 112
4, 266304, Note_on_c, 0, 86, 112
4, 266304, Note_on_c, 0, 77, 112
4, 266304, Note_on_c, 0, 74, 112
4, 266492, Note_on_c, 0, 74, 0
4, 266492, Note_on_c, 0, 86, 0
4, 266492, Note_on_c, 0, 86, 0
4, 266492, Note_on_c, 0, 77, 0
4, 266496, Note_on_c, 0, 84, 112
4, 266496, Note_on_c, 0, 76, 112
4, 266496, Note_on_c, 0, 72, 112
4, 266688, Note_on_c, 0, 76, 112
4, 266876, Note_on_c, 0, 76, 0
4, 266876, Note_on_c, 0, 84, 0
4, 266876, Note_on_c, 0, 76, 0
4, 266876, Note_on_c, 0, 72, 0
4, 266880, Note_on_c, 0, 84, 112
4, 267072, Note_on_c, 0, 84, 112
4, 267072, Note_on_c, 0, 76, 112
4, 267072, Note_on_c, 0, 72, 112
4, 267260, Note_on_c, 0, 72, 0
4, 267260, Note_on_c, 0, 84, 0
4, 267260, Note_on_c, 0, 84, 0
4, 267260, Note_on_c, 0, 76, 0
4, 267264, Note_on_c, 0, 89, 112
4, 267264, Note_on_c, 0, 86, 112
4, 267264, Note_on_c, 0, 77, 112
4, 267456, Note_on_c, 0, 77, 112
4, 267644, Note_on_c, 0, 77, 0
4, 267644, Note_on_c, 0, 89, 0
4, 267644, Note_on_c, 0, 86, 0
4, 267644, Note_on_c, 0, 77, 0
4, 267648, Note_on_c, 0, 81, 112
4, 267840, Note_on_c, 0, 77, 112
4, 267840, Note_on_c, 0, 86, 112
4, 267840, Note_on_c, 0, 89, 112
4, 268028, Note_on_c, 0, 89, 0
4, 268028, Note_on_c, 0, 81, 0
4, 268028, Note_on_c, 0, 77, 0
4, 268028, Note_on_c, 0, 86, 0
4, 268032, Note_on_c, 0, 76, 112
4, 268032, Note_on_c, 0, 84, 112
4, 268032, Note_on_c, 0, 88, 112
4, 268224, Note_on_c, 0, 77, 112
4, 268412, Note_on_c, 0, 77, 0
4, 268412, Note_on_c, 0, 76, 0
4, 268412, Note_on_c, 0, 84, 0
4, 268412, Note_on_c, 0, 88, 0
4, 268416, Note_on_c, 0, 81, 112
4, 268608, Note_on_c, 0, 76, 112
4, 268608, Note_on_c, 0, 84, 112
4, 268608, Note_on_c, 0, 88, 112
4, 268796, Note_on_c, 0, 88, 0
4, 268796, Note_on_c, 0, 81, 0
4, 268796, Note_on_c, 0, 76, 0
4, 268796, Note_on_c, 0, 84, 0
4, 268800, Note_on_c, 0, 74, 112
4, 268800, Note_on_c, 0, 83, 112
4, 268800, Note_on_c, 0, 86, 112
4, 268992, Note_on_c, 0, 74, 112
4, 269180, Note_on_c, 0, 74, 0
4, 269180, Note_on_c, 0, 74, 0
4, 269180, Note_on_c, 0, 83, 0
4, 269180, Note_on_c, 0, 86, 0
4, 269184, Note_on_c, 0, 77, 112
4, 269376, Note_on_c, 0, 74, 112
4, 269564, Note_on_c, 0, 74, 0
4, 269564, Note_on_c, 0, 77, 0
4, 269568, Note_on_c, 0, 84, 112
4, 269568, Note_on_c, 0, 72, 112
4, 269756, Note_on_c, 0, 72, 0
4, 269756, Note_on_c, 0, 84, 0
4, 269760, Note_on_c, 0, 79, 112
4, 269760, Note_on_c, 0, 76, 112
4, 269948, Note_on_c, 0, 76, 0
4, 269948, Note_on_c, 0, 79, 0
4, 269952, Note_on_c, 0, 79, 112
4, 269952, Note_on_c, 0, 76, 112
4, 270044, Note_on_c, 0, 76, 0
4, 270044, Note_on_c, 0, 79, 0
4, 270144, Note_on_c, 0, 79, 112
4, 270144, Note_on_c, 0, 76, 112
4, 270236, Note_on_c, 0, 76, 0
4, 270236, Note_on_c, 0, 79, 0
4, 270336, Note_on_c, 0, 79, 112
4, 270336, Note_on_c, 0, 76, 112
4, 270380, Note_on_c, 0, 79, 0
4, 270384, Note_on_c, 0, 81, 112
4, 270428, Note_on_c, 0, 81, 0
4, 270432, Note_on_c, 0, 79, 112
4, 270476, Note_on_c, 0, 79, 0
4, 270480, Note_on_c, 0, 81, 112
4, 270524, Note_on_c, 0, 81, 0
4, 270524, Note_on_c, 0, 76, 0
4, 270528, Note_on_c, 0, 77, 112
4, 270528, Note_on_c, 0, 74, 112
4, 270716, Note_on_c, 0, 74, 0
4, 270716, Note_on_c, 0, 77, 0
4, 270720, Note_on_c, 0, 74, 112
4, 270720, Note_on_c, 0, 77, 112
4, 270812, Note_on_c, 0, 77, 0
4, 270812, Note_on_c, 0, 74, 0
4, 270912, Note_on_c, 0, 74, 112
4, 270912, Note_on_c, 0, 77, 112
4, 271004, Note_on_c, 0, 77, 0
4, 271004, Note_on_c, 0, 74, 0
4, 271104, Note_on_c, 0, 77, 112
4, 271104, Note_on_c, 0, 74, 112
4, 271148, Note_on_c, 0, 77, 0
4, 271152, Note_on_c, 0, 79, 112
4, 271196, Note_on_c, 0, 79, 0
4, 271200, Note_on_c, 0, 77, 112
4, 271244, Note_on_c, 0, 77, 0
4, 271248, Note_on_c, 0, 79, 112
4, 271292, Note_on_c, 0, 79, 0
4, 271292, Note_on_c, 0, 74, 0
4, 271296, Note_on_c, 0, 76, 112
4, 271296, Note_on_c, 0, 88, 112
4, 271388, Note_on_c, 0, 88, 0
4, 271484, Note_on_c, 0, 76, 0
4, 271488, Note_on_c, 0, 79, 112
4, 271488, Note_on_c, 0, 88, 112
4, 271580, Note_on_c, 0, 88, 0
4, 271676, Note_on_c, 0, 79, 0
4, 271680, Note_on_c, 0, 79, 112
4, 271680, Note_on_c, 0, 88, 112
4, 271772, Note_on_c, 0, 88, 0
4, 271868, Note_on_c, 0, 79, 0
4, 271872, Note_on_c, 0, 88, 112
4, 271872, Note_on_c, 0, 79, 112
4, 271916, Note_on_c, 0, 88, 0
4, 271920, Note_on_c, 0, 89, 112
4, 271952, Note_on_c, 0, 88, 112
4, 271964, Note_on_c, 0, 89, 0
4, 271996, Note_on_c, 0, 88, 0
4, 272016, Note_on_c, 0, 89, 112
4, 272060, Note_on_c, 0, 89, 0
4, 272060, Note_on_c, 0, 79, 0
4, 272064, Note_on_c, 0, 77, 112
4, 272064, Note_on_c, 0, 86, 112
4, 272252, Note_on_c, 0, 86, 0
4, 272252, Note_on_c, 0, 77, 0
4, 272256, Note_on_c, 0, 77, 112
4, 272256, Note_on_c, 0, 86, 112
4, 272348, Note_on_c, 0, 86, 0
4, 272348, Note_on_c, 0, 77, 0
4, 272448, Note_on_c, 0, 77, 112
4, 272448, Note_on_c, 0, 86, 112
4, 272540, Note_on_c, 0, 86, 0
4, 272540, Note_on_c, 0, 77, 0
4, 272640, Note_on_c, 0, 86, 112
4, 272640, Note_on_c, 0, 77, 112
4, 272684, Note_on_c, 0, 86, 0
4, 272688, Note_on_c, 0, 88, 112
4, 272732, Note_on_c, 0, 88, 0
4, 272736, Note_on_c, 0, 86, 112
4, 272780, Note_on_c, 0, 86, 0
4, 272784, Note_on_c, 0, 88, 112
4, 272828, Note_on_c, 0, 88, 0
4, 272828, Note_on_c, 0, 77, 0
4, 272832, Note_on_c, 0, 76, 112
4, 272832, Note_on_c, 0, 84, 112
4, 273020, Note_on_c, 0, 84, 0
4, 273020, Note_on_c, 0, 76, 0
4, 273024, Note_on_c, 0, 76, 112
4, 273024, Note_on_c, 0, 84, 112
4, 273116, Note_on_c, 0, 84, 0
4, 273116, Note_on_c, 0, 76, 0
4, 273216, Note_on_c, 0, 76, 112
4, 273216, Note_on_c, 0, 84, 112
4, 273308, Note_on_c, 0, 84, 0
4, 273308, Note_on_c, 0, 76, 0
4, 273408, Note_on_c, 0, 84, 112
4, 273408, Note_on_c, 0, 76, 112
4, 273452, Note_on_c, 0, 84, 0
4, 273456, Note_on_c, 0, 86, 112
4, 273500, Note_on_c, 0, 86, 0
4, 273504, Note_on_c, 0, 84, 112
4, 273548, Note_on_c, 0, 84, 0
4, 273552, Note_on_c, 0, 86, 112
4, 273596, Note_on_c, 0, 86, 0
4, 273596, Note_on_c, 0, 76, 0
4, 273600, Note_on_c, 0, 74, 112
4, 273600, Note_on_c, 0, 83, 112
4, 273788, Note_on_c, 0, 83, 0
4, 273788, Note_on_c, 0, 74, 0
4, 273792, Note_on_c, 0, 74, 112
4, 273792, Note_on_c, 0, 83, 112
4, 273884, Note_on_c, 0, 83, 0
4, 273884, Note_on_c, 0, 74, 0
4, 273984, Note_on_c, 0, 74, 112
4, 273984, Note_on_c, 0, 83, 112
4, 274076, Note_on_c, 0, 83, 0
4, 274076, Note_on_c, 0, 74, 0
4, 274176, Note_on_c, 0, 84, 112
4, 274176, Note_on_c, 0, 72, 112
4, 274556, Note_on_c, 0, 72, 0
4, 274556, Note_on_c, 0, 84, 0
4, 278784, Note_on_c, 0, 60, 83
4, 279164, Note_on_c, 0, 60, 0
4, 279168, Note_on_c, 0, 64, 83
4, 279548, Note_on_c, 0, 64, 0
4, 279552, Note_on_c, 0, 69, 83
4, 279932, Note_on_c, 0, 69, 0
4, 281856, Note_on_c, 0, 57, 83
4, 282236, Note_on_c, 0, 57, 0
4, 282240, Note_on_c, 0, 60, 83
4, 282620, Note_on_c, 0, 60, 0
4, 282624, Note_on_c, 0, 65, 83
4, 283004, Note_on_c, 0, 65, 0
4, 289536, Note_on_c, 0, 67, 83
4, 289916, Note_on_c, 0, 67, 0
4, 289920, Note_on_c, 0, 65, 83
4, 290300, Note_on_c, 0, 65, 0
4, 290304, Note_on_c, 0, 63, 83
4, 290684, Note_on_c, 0, 63, 0
4, 290688, Note_on_c, 0, 66, 83
4, 291068, Note_on_c, 0, 66, 0
4, 291072, Note_on_c, 0, 69, 83
4, 291452, Note_on_c, 0, 69, 0
4, 291456, Note_on_c, 0, 77, 83
4, 291456, Note_on_c, 0, 74, 83
4, 291836, Note_on_c, 0, 74, 0
4, 291836, Note_on_c, 0, 77, 0
4, 291840, Note_on_c, 0, 75, 83
4, 292220, Note_on_c, 0, 75, 0
4, 292224, Note_on_c, 0, 78, 83
4, 292604, Note_on_c, 0, 78, 0
4, 294144, Note_on_c, 0, 79, 89
4, 294428, Note_on_c, 0, 79, 0
4, 294432, Note_on_c, 0, 81, 89
4, 294524, Note_on_c, 0, 81, 0
4, 294528, Note_on_c, 0, 79, 89
4, 294812, Note_on_c, 0, 79, 0
4, 294816, Note_on_c, 0, 79, 89
4, 294912, Note_on_c, 0, 76, 89
4, 294912, Note_on_c, 0, 72, 89
4, 295196, Note_on_c, 0, 72, 0
4, 295196, Note_on_c, 0, 76, 0
4, 295200, Note_on_c, 0, 77, 89
4, 295292, Note_on_c, 0, 77, 0
4, 295292, Note_on_c, 0, 79, 0
4, 295296, Note_on_c, 0, 74, 89
4, 295296, Note_on_c, 0, 79, 89
4, 295580, Note_on_c, 0, 79, 0
4, 295580, Note_on_c, 0, 74, 0
4, 295584, Note_on_c, 0, 76, 89
4, 295584, Note_on_c, 0, 81, 89
4, 295628, Note_on_c, 0, 81, 0
4, 295632, Note_on_c, 0, 83, 89
4, 295676, Note_on_c, 0, 83, 0
4, 295676, Note_on_c, 0, 76, 0
4, 295680, Note_on_c, 0, 84, 89
4, 295680, Note_on_c, 0, 72, 89
4, 296060, Note_on_c, 0, 72, 0
4, 296060, Note_on_c, 0, 84, 0
4, 296448, Note_on_c, 0, 60, 85
4, 296448, Note_on_c, 0, 67, 85
4, 296448, Note_on_c, 0, 64, 85
4, 297212, Note_on_c, 0, 64, 0
4, 297212, Note_on_c, 0, 67, 0
4, 297216, Note_on_c, 0, 69, 85
4, 297216, Note_on_c, 0, 65, 85
4, 297980, Note_on_c, 0, 65, 0
4, 297980, Note_on_c, 0, 69, 0
4, 297980, Note_on_c, 0, 60, 0
4, 297984, Note_on_c, 0, 65, 85
4, 297984, Note_on_c, 0, 62, 85
4, 297984, Note_on_c, 0, 59, 85
4, 298748, Note_on_c, 0, 59, 0
4, 298748, Note_on_c, 0, 62, 0
4, 298748, Note_on_c, 0, 65, 0
4, 298752, Note_on_c, 0, 64, 85
4, 298752, Note_on_c, 0, 60, 85
4, 299132, Note_on_c, 0, 60, 0
4, 299132, Note_on_c, 0, 64, 0
4, 302400, Note_on_c, 0, 67, 89
4, 302588, Note_on_c, 0, 67, 0
4, 302592, Note_on_c, 0, 66, 89
4, 302780, Note_on_c, 0, 66, 0
4, 302784, Note_on_c, 0, 67, 89
4, 302972, Note_on_c, 0, 67, 0
4, 302976, Note_on_c, 0, 65, 89
4, 303164, Note_on_c, 0, 65, 0
4, 303168, Note_on_c, 0, 62, 89
4, 303356, Note_on_c, 0, 62, 0
4, 303360, Note_on_c, 0, 60, 85
4, 303452, Note_on_c, 0, 60, 0
4, 303552, Note_on_c, 0, 60, 85
4, 303644, Note_on_c, 0, 60, 0
4, 303936, Note_on_c, 0, 72, 85
4, 303936, Note_on_c, 0, 64, 85
4, 304124, Note_on_c, 0, 64, 0
4, 304124, Note_on_c, 0, 72, 0
4, 304128, Note_on_c, 0, 76, 85
4, 304128, Note_on_c, 0, 67, 85
4, 304316, Note_on_c, 0, 67, 0
4, 304316, Note_on_c, 0, 76, 0
4, 304320, Note_on_c, 0, 76, 85
4, 304320, Note_on_c, 0, 67, 85
4, 304412, Note_on_c, 0, 67, 0
4, 304412, Note_on_c, 0, 76, 0
4, 304704, Note_on_c, 0, 72, 85
4, 304704, Note_on_c, 0, 64, 85
4, 304892, Note_on_c, 0, 64, 0
4, 304892, Note_on_c, 0, 72, 0
4, 304896, Note_on_c, 0, 69, 85
4, 304896, Note_on_c, 0, 65, 85
4, 305084, Note_on_c, 0, 65, 0
4, 305084, Note_on_c, 0, 69, 0
4, 305088, Note_on_c, 0, 69, 85
4, 305088, Note_on_c, 0, 65, 85
4, 305180, Note_on_c, 0, 65, 0
4, 305180, Note_on_c, 0, 69, 0
4, 305472, Note_on_c, 0, 77, 85
4, 305472, Note_on_c, 0, 72, 85
4, 305472, Note_on_c, 0, 69, 85
4, 305660, Note_on_c, 0, 69, 0
4, 305660, Note_on_c, 0, 72, 0
4, 305660, Note_on_c, 0, 77, 0
4, 305664, Note_on_c, 0, 81, 85
4, 305664, Note_on_c, 0, 77, 85
4, 305664, Note_on_c, 0, 71, 85
4, 305852, Note_on_c, 0, 71, 0
4, 305852, Note_on_c, 0, 77, 0
4, 305852, Note_on_c, 0, 81, 0
4, 305856, Note_on_c, 0, 81, 85
4, 305856, Note_on_c, 0, 77, 85
4, 305856, Note_on_c, 0, 71, 85
4, 305948, Note_on_c, 0, 71, 0
4, 305948, Note_on_c, 0, 77, 0
4, 305948, Note_on_c, 0, 81, 0
4, 306240, Note_on_c, 0, 77, 85
4, 306240, Note_on_c, 0, 74, 85
4, 306240, Note_on_c, 0, 71, 85
4, 306428, Note_on_c, 0, 71, 0
4, 306428, Note_on_c, 0, 74, 0
4, 306428, Note_on_c, 0, 77, 0
4, 306432, Note_on_c, 0, 76, 85
4, 306432, Note_on_c, 0, 72, 85
4, 306620, Note_on_c, 0, 72, 0
4, 306620, Note_on_c, 0, 76, 0
4, 306624, Note_on_c, 0, 76, 85
4, 306624, Note_on_c, 0, 72, 85
4, 306624, Note_on_c, 0, 67, 85
4, 306716, Note_on_c, 0, 67, 0
4, 306716, Note_on_c, 0, 72, 0
4, 306716, Note_on_c, 0, 76, 0
4, 309504, Note_on_c, 0, 77, 85
4, 309504, Note_on_c, 0, 74, 85
4, 309504, Note_on_c, 0, 67, 85
4, 309692, Note_on_c, 0, 67, 0
4, 309692, Note_on_c, 0, 74, 0
4, 309692, Note_on_c, 0, 77, 0
4, 309696, Note_on_c, 0, 77, 85
4, 309696, Note_on_c, 0, 74, 85
4, 309696, Note_on_c, 0, 67, 85
4, 309884, Note_on_c, 0, 67, 0
4, 309884, Note_on_c, 0, 74, 0
4, 309884, Note_on_c, 0, 77, 0
4, 310080, Note_on_c, 0, 77, 85
4, 310080, Note_on_c, 0, 74, 85
4, 310080, Note_on_c, 0, 67, 85
4, 310268, Note_on_c, 0, 67, 0
4, 310268, Note_on_c, 0, 74, 0
4, 310268, Note_on_c, 0, 77, 0
4, 310272, Note_on_c, 0, 76, 85
4, 310272, Note_on_c, 0, 72, 85
4, 310272, Note_on_c, 0, 67, 85
4, 310460, Note_on_c, 0, 67, 0
4, 310460, Note_on_c, 0, 72, 0
4, 310460, Note_on_c, 0, 76, 0
4, 310464, Note_on_c, 0, 76, 85
4, 310464, Note_on_c, 0, 72, 85
4, 310464, Note_on_c, 0, 67, 85
4, 310652, Note_on_c, 0, 67, 0
4, 310652, Note_on_c, 0, 72, 0
4, 310652, Note_on_c, 0, 76, 0
4, 310848, Note_on_c, 0, 72, 85
4, 310848, Note_on_c, 0, 67, 85
4, 310848, Note_on_c, 0, 76, 85
4, 311036, Note_on_c, 0, 76, 0
4, 311036, Note_on_c, 0, 67, 0
4, 311036, Note_on_c, 0, 72, 0
4, 311040, Note_on_c, 0, 74, 85
4, 311040, Note_on_c, 0, 71, 85
4, 311040, Note_on_c, 0, 64, 85
4, 311228, Note_on_c, 0, 64, 0
4, 311228, Note_on_c, 0, 71, 0
4, 311228, Note_on_c, 0, 74, 0
4, 311232, Note_on_c, 0, 74, 85
4, 311232, Note_on_c, 0, 71, 85
4, 311232, Note_on_c, 0, 64, 85
4, 311420, Note_on_c, 0, 64, 0
4, 311420, Note_on_c, 0, 71, 0
4, 311420, Note_on_c, 0, 74, 0
4, 311616, Note_on_c, 0, 74, 85
4, 311616, Note_on_c, 0, 71, 85
4, 311616, Note_on_c, 0, 64, 85
4, 311804, Note_on_c, 0, 64, 0
4, 311804, Note_on_c, 0, 71, 0
4, 311804, Note_on_c, 0, 74, 0
4, 311808, Note_on_c, 0, 72, 85
4, 311808, Note_on_c, 0, 69, 85
4, 311808, Note_on_c, 0, 64, 85
4, 311996, Note_on_c, 0, 64, 0
4, 311996, Note_on_c, 0, 69, 0
4, 311996, Note_on_c, 0, 72, 0
4, 312000, Note_on_c, 0, 72, 85
4, 312000, Note_on_c, 0, 69, 85
4, 312000, Note_on_c, 0, 64, 85
4, 312188, Note_on_c, 0, 64, 0
4, 312188, Note_on_c, 0, 69, 0
4, 312188, Note_on_c, 0, 72, 0
4, 312384, Note_on_c, 0, 72, 85
4, 312384, Note_on_c, 0, 69, 85
4, 312384, Note_on_c, 0, 64, 85
4, 312572, Note_on_c, 0, 64, 0
4, 312572, Note_on_c, 0, 69, 0
4, 312572, Note_on_c, 0, 72, 0
4, 312576, Note_on_c, 0, 71, 85
4, 312576, Note_on_c, 0, 67, 85
4, 312576, Note_on_c, 0, 60, 85
4, 312764, Note_on_c, 0, 60, 0
4, 312764, Note_on_c, 0, 67, 0
4, 312764, Note_on_c, 0, 71, 0
4, 312768, Note_on_c, 0, 71, 85
4, 312768, Note_on_c, 0, 67, 85
4, 312768, Note_on_c, 0, 60, 85
4, 312956, Note_on_c, 0, 60, 0
4, 312956, Note_on_c, 0, 67, 0
4, 312956, Note_on_c, 0, 71, 0
4, 313152, Note_on_c, 0, 72, 85
4, 313152, Note_on_c, 0, 71, 85
4, 313152, Note_on_c, 0, 67, 85
4, 313340, Note_on_c, 0, 67, 0
4, 313340, Note_on_c, 0, 71, 0
4, 313340, Note_on_c, 0, 72, 0
4, 313344, Note_on_c, 0, 81, 85
4, 313344, Note_on_c, 0, 69, 85
4, 313532, Note_on_c, 0, 69, 0
4, 313532, Note_on_c, 0, 81, 0
4, 313536, Note_on_c, 0, 81, 85
4, 313536, Note_on_c, 0, 72, 85
4, 313628, Note_on_c, 0, 72, 0
4, 313628, Note_on_c, 0, 81, 0
4, 314112, Note_on_c, 0, 89, 85
4, 314112, Note_on_c, 0, 83, 85
4, 314112, Note_on_c, 0, 81, 85
4, 314300, Note_on_c, 0, 81, 0
4, 314300, Note_on_c, 0, 83, 0
4, 314300, Note_on_c, 0, 89, 0
4, 314304, Note_on_c, 0, 89, 85
4, 314304, Note_on_c, 0, 83, 85
4, 314304, Note_on_c, 0, 81, 85
4, 314396, Note_on_c, 0, 81, 0
4, 314396, Note_on_c, 0, 83, 0
4, 314396, Note_on_c, 0, 89, 0
4, 314688, Note_on_c, 0, 89, 85
4, 314688, Note_on_c, 0, 83, 85
4, 314688, Note_on_c, 0, 81, 85
4, 314876, Note_on_c, 0, 81, 0
4, 314876, Note_on_c, 0, 83, 0
4, 314876, Note_on_c, 0, 89, 0
4, 314880, Note_on_c, 0, 89, 85
4, 314880, Note_on_c, 0, 83, 85
4, 314880, Note_on_c, 0, 80, 85
4, 315068, Note_on_c, 0, 80, 0
4, 315068, Note_on_c, 0, 83, 0
4, 315068, Note_on_c, 0, 89, 0
4, 315072, Note_on_c, 0, 83, 85
4, 315072, Note_on_c, 0, 80, 85
4, 315072, Note_on_c, 0, 89, 85
4, 315260, Note_on_c, 0, 89, 0
4, 315260, Note_on_c, 0, 80, 0
4, 315260, Note_on_c, 0, 83, 0
4, 315456, Note_on_c, 0, 89, 85
4, 315456, Note_on_c, 0, 83, 85
4, 315456, Note_on_c, 0, 80, 85
4, 315644, Note_on_c, 0, 80, 0
4, 315644, Note_on_c, 0, 83, 0
4, 315644, Note_on_c, 0, 89, 0
4, 315648, Note_on_c, 0, 88, 85
4, 315648, Note_on_c, 0, 82, 85
4, 315648, Note_on_c, 0, 79, 85
4, 315836, Note_on_c, 0, 79, 0
4, 315836, Note_on_c, 0, 82, 0
4, 315836, Note_on_c, 0, 88, 0
4, 315840, Note_on_c, 0, 88, 85
4, 315840, Note_on_c, 0, 82, 85
4, 315840, Note_on_c, 0, 79, 85
4, 316028, Note_on_c, 0, 79, 0
4, 316028, Note_on_c, 0, 82, 0
4, 316028, Note_on_c, 0, 88, 0
4, 316224, Note_on_c, 0, 88, 85
4, 316224, Note_on_c, 0, 82, 85
4, 316224, Note_on_c, 0, 79, 85
4, 316412, Note_on_c, 0, 79, 0
4, 316412, Note_on_c, 0, 82, 0
4, 316412, Note_on_c, 0, 88, 0
4, 316416, Note_on_c, 0, 88, 85
4, 316416, Note_on_c, 0, 81, 85
4, 316416, Note_on_c, 0, 78, 85
4, 316604, Note_on_c, 0, 78, 0
4, 316604, Note_on_c, 0, 81, 0
4, 316604, Note_on_c, 0, 88, 0
4, 316608, Note_on_c, 0, 88, 85
4, 316608, Note_on_c, 0, 81, 85
4, 316608, Note_on_c, 0, 78, 85
4, 316796, Note_on_c, 0, 78, 0
4, 316796, Note_on_c, 0, 81, 0
4, 316796, Note_on_c, 0, 88, 0
4, 316992, Note_on_c, 0, 88, 85
4, 316992, Note_on_c, 0, 81, 85
4, 316992, Note_on_c, 0, 78, 85
4, 317180, Note_on_c, 0, 78, 0
4, 317180, Note_on_c, 0, 81, 0
4, 317180, Note_on_c, 0, 88, 0
4, 317184, Note_on_c, 0, 86, 85
4, 317184, Note_on_c, 0, 79, 85
4, 317184, Note_on_c, 0, 77, 85
4, 317372, Note_on_c, 0, 77, 0
4, 317372, Note_on_c, 0, 79, 0
4, 317372, Note_on_c, 0, 86, 0
4, 317376, Note_on_c, 0, 86, 85
4, 317376, Note_on_c, 0, 79, 85
4, 317376, Note_on_c, 0, 77, 85
4, 317564, Note_on_c, 0, 77, 0
4, 317564, Note_on_c, 0, 79, 0
4, 317564, Note_on_c, 0, 86, 0
4, 317760, Note_on_c, 0, 86, 85
4, 317760, Note_on_c, 0, 79, 85
4, 317760, Note_on_c, 0, 77, 85
4, 317948, Note_on_c, 0, 77, 0
4, 317948, Note_on_c, 0, 79, 0
4, 317948, Note_on_c, 0, 86, 0
4, 317952, Note_on_c, 0, 86, 85
4, 317952, Note_on_c, 0, 83, 85
4, 317952, Note_on_c, 0, 76, 85
4, 318140, Note_on_c, 0, 76, 0
4, 318140, Note_on_c, 0, 83, 0
4, 318140, Note_on_c, 0, 86, 0
4, 318144, Note_on_c, 0, 86, 85
4, 318144, Note_on_c, 0, 83, 85
4, 318144, Note_on_c, 0, 76, 85
4, 318332, Note_on_c, 0, 76, 0
4, 318332, Note_on_c, 0, 83, 0
4, 318332, Note_on_c, 0, 86, 0
4, 318528, Note_on_c, 0, 86, 85
4, 318528, Note_on_c, 0, 83, 85
4, 318528, Note_on_c, 0, 76, 85
4, 318716, Note_on_c, 0, 76, 0
4, 318716, Note_on_c, 0, 83, 0
4, 318716, Note_on_c, 0, 86, 0
4, 318720, Note_on_c, 0, 84, 85
4, 318720, Note_on_c, 0, 81, 85
4, 318720, Note_on_c, 0, 76, 85
4, 318908, Note_on_c, 0, 76, 0
4, 318908, Note_on_c, 0, 81, 0
4, 318908, Note_on_c, 0, 84, 0
4, 318912, Note_on_c, 0, 84, 85
4, 318912, Note_on_c, 0, 81, 85
4, 318912, Note_on_c, 0, 76, 85
4, 319100, Note_on_c, 0, 76, 0
4, 319100, Note_on_c, 0, 81, 0
4, 319100, Note_on_c, 0, 84, 0
4, 319296, Note_on_c, 0, 84, 85
4, 319296, Note_on_c, 0, 81, 85
4, 319296, Note_on_c, 0, 76, 85
4, 319484, Note_on_c, 0, 76, 0
4, 319484, Note_on_c, 0, 81, 0
4, 319484, Note_on_c, 0, 84, 0
4, 319488, Note_on_c, 0, 62, 85
4, 319488, Note_on_c, 0, 57, 85
4, 319488, Note_on_c, 0, 60, 85
4, 321020, Note_on_c, 0, 60, 0
4, 321020, Note_on_c, 0, 57, 0
4, 321024, Note_on_c, 0, 59, 85
4, 321024, Note_on_c, 0, 55, 85
4, 322172, Note_on_c, 0, 55, 0
4, 322172, Note_on_c, 0, 59, 0
4, 322172, Note_on_c, 0, 62, 0
4, 324096, Note_on_c, 0, 72, 89
4, 324096, Note_on_c, 0, 69, 89
4, 324096, Note_on_c, 0, 62, 89
4, 325628, Note_on_c, 0, 69, 0
4, 325628, Note_on_c, 0, 72, 0
4, 325632, Note_on_c, 0, 71, 89
4, 325632, Note_on_c, 0, 67, 89
4, 326780, Note_on_c, 0, 67, 0
4, 326780, Note_on_c, 0, 71, 0
4, 326780, Note_on_c, 0, 62, 0
4, 327168, Note_on_c, 0, 79, 89
4, 327168, Note_on_c, 0, 76, 89
4, 327168, Note_on_c, 0, 67, 89
4, 327356, Note_on_c, 0, 67, 0
4, 327356, Note_on_c, 0, 76, 0
4, 327356, Note_on_c, 0, 79, 0
4, 327360, Note_on_c, 0, 79, 89
4, 327360, Note_on_c, 0, 76, 89
4, 327360, Note_on_c, 0, 67, 89
4, 327548, Note_on_c, 0, 67, 0
4, 327548, Note_on_c, 0, 76, 0
4, 327548, Note_on_c, 0, 79, 0
4, 327552, Note_on_c, 0, 79, 89
4, 327552, Note_on_c, 0, 76, 89
4, 327552, Note_on_c, 0, 69, 89
4, 327740, Note_on_c, 0, 69, 0
4, 327740, Note_on_c, 0, 76, 0
4, 327740, Note_on_c, 0, 79, 0
4, 327744, Note_on_c, 0, 79, 89
4, 327744, Note_on_c, 0, 76, 89
4, 327744, Note_on_c, 0, 69, 89
4, 327932, Note_on_c, 0, 69, 0
4, 327932, Note_on_c, 0, 76, 0
4, 327932, Note_on_c, 0, 79, 0
4, 327936, Note_on_c, 0, 76, 89
4, 327936, Note_on_c, 0, 72, 89
4, 327936, Note_on_c, 0, 67, 89
4, 328124, Note_on_c, 0, 67, 0
4, 328124, Note_on_c, 0, 72, 0
4, 328124, Note_on_c, 0, 76, 0
4, 328128, Note_on_c, 0, 76, 89
4, 328128, Note_on_c, 0, 72, 89
4, 328128, Note_on_c, 0, 67, 89
4, 328316, Note_on_c, 0, 67, 0
4, 328316, Note_on_c, 0, 72, 0
4, 328316, Note_on_c, 0, 76, 0
4, 328320, Note_on_c, 0, 74, 89
4, 328320, Note_on_c, 0, 71, 89
4, 328320, Note_on_c, 0, 65, 89
4, 328508, Note_on_c, 0, 65, 0
4, 328508, Note_on_c, 0, 71, 0
4, 328508, Note_on_c, 0, 74, 0
4, 328512, Note_on_c, 0, 74, 89
4, 328512, Note_on_c, 0, 71, 89
4, 328512, Note_on_c, 0, 65, 89
4, 328700, Note_on_c, 0, 65, 0
4, 328700, Note_on_c, 0, 71, 0
4, 328700, Note_on_c, 0, 74, 0
4, 328704, Note_on_c, 0, 72, 89
4, 328704, Note_on_c, 0, 64, 89
4, 329084, Note_on_c, 0, 64, 0
4, 329084, Note_on_c, 0, 72, 0
4, 335616, Note_on_c, 0, 86, 89
4, 335616, Note_on_c, 0, 80, 89
4, 335616, Note_on_c, 0, 74, 89
4, 335996, Note_on_c, 0, 74, 0
4, 335996, Note_on_c, 0, 80, 0
4, 335996, Note_on_c, 0, 86, 0
4, 336000, Note_on_c, 0, 79, 89
4, 336000, Note_on_c, 0, 74, 89
4, 336000, Note_on_c, 0, 67, 89
4, 336188, Note_on_c, 0, 67, 0
4, 336188, Note_on_c, 0, 74, 0
4, 336188, Note_on_c, 0, 79, 0
4, 336384, Note_on_c, 0, 79, 89
4, 336384, Note_on_c, 0, 76, 89
4, 336384, Note_on_c, 0, 67, 89
4, 336764, Note_on_c, 0, 67, 0
4, 336764, Note_on_c, 0, 76, 0
4, 336764, Note_on_c, 0, 79, 0
4, 336768, Note_on_c, 0, 79, 89
4, 336768, Note_on_c, 0, 84, 89
4, 336768, Note_on_c, 0, 72, 89
4, 336956, Note_on_c, 0, 72, 0
4, 336956, Note_on_c, 0, 84, 0
4, 336956, Note_on_c, 0, 79, 0
4, 337152, Note_on_c, 0, 86, 89
4, 337152, Note_on_c, 0, 80, 89
4, 337152, Note_on_c, 0, 74, 89
4, 337532, Note_on_c, 0, 74, 0
4, 337532, Note_on_c, 0, 80, 0
4, 337532, Note_on_c, 0, 86, 0
4, 337536, Note_on_c, 0, 79, 89
4, 337536, Note_on_c, 0, 74, 89
4, 337536, Note_on_c, 0, 67, 89
4, 337724, Note_on_c, 0, 67, 0
4, 337724, Note_on_c, 0, 74, 0
4, 337724, Note_on_c, 0, 79, 0
4, 337920, Note_on_c, 0, 79, 89
4, 337920, Note_on_c, 0, 76, 89
4, 337920, Note_on_c, 0, 67, 89
4, 338300, Note_on_c, 0, 67, 0
4, 338300, Note_on_c, 0, 76, 0
4, 338300, Note_on_c, 0, 79, 0
4, 338304, Note_on_c, 0, 84, 89
4, 338304, Note_on_c, 0, 79, 89
4, 338304, Note_on_c, 0, 72, 89
4, 338492, Note_on_c, 0, 72, 0
4, 338492, Note_on_c, 0, 79, 0
4, 338492, Note_on_c, 0, 84, 0
4, 338688, Note_on_c, 0, 79, 89
4, 338688, Note_on_c, 0, 77, 89
4, 338688, Note_on_c, 0, 67, 89
4, 339068, Note_on_c, 0, 67, 0
4, 339068, Note_on_c, 0, 77, 0
4, 339068, Note_on_c, 0, 79, 0
4, 339072, Note_on_c, 0, 86, 89
4, 339072, Note_on_c, 0, 77, 89
4, 339072, Note_on_c, 0, 74, 89
4, 339260, Note_on_c, 0, 74, 0
4, 339260, Note_on_c, 0, 77, 0
4, 339260, Note_on_c, 0, 86, 0
4, 339456, Note_on_c, 0, 72, 89
4, 339456, Note_on_c, 0, 67, 89
4, 339456, Note_on_c, 0, 64, 89
4, 339548, Note_on_c, 0, 64, 0
4, 339548, Note_on_c, 0, 67, 0
4, 339548, Note_on_c, 0, 72, 0
4, 339552, Note_on_c, 0, 76, 89
4, 339644, Note_on_c, 0, 76, 0
4, 339648, Note_on_c, 0, 72, 89
4, 339648, Note_on_c, 0, 67, 89
4, 339648, Note_on_c, 0, 64, 89
4, 339740, Note_on_c, 0, 64, 0
4, 339740, Note_on_c, 0, 67, 0
4, 339740, Note_on_c, 0, 72, 0
4, 339744, Note_on_c, 0, 76, 89
4, 339836, Note_on_c, 0, 76, 0
4, 339840, Note_on_c, 0, 72, 89
4, 339840, Note_on_c, 0, 67, 89
4, 339840, Note_on_c, 0, 64, 89
4, 339932, Note_on_c, 0, 64, 0
4, 339932, Note_on_c, 0, 67, 0
4, 339932, Note_on_c, 0, 72, 0
4, 339936, Note_on_c, 0, 76, 89
4, 340028, Note_on_c, 0, 76, 0
4, 340032, Note_on_c, 0, 72, 89
4, 340092, Note_on_c, 0, 72, 0
4, 340096, Note_on_c, 0, 74, 89
4, 340156, Note_on_c, 0, 74, 0
4, 340160, Note_on_c, 0, 76, 89
4, 340220, Note_on_c, 0, 76, 0
4, 340224, Note_on_c, 0, 72, 89
4, 340224, Note_on_c, 0, 65, 89
4, 340316, Note_on_c, 0, 65, 0
4, 340316, Note_on_c, 0, 72, 0
4, 340320, Note_on_c, 0, 77, 89
4, 340412, Note_on_c, 0, 77, 0
4, 340416, Note_on_c, 0, 72, 89
4, 340416, Note_on_c, 0, 65, 89
4, 340508, Note_on_c, 0, 65, 0
4, 340508, Note_on_c, 0, 72, 0
4, 340512, Note_on_c, 0, 77, 89
4, 340604, Note_on_c, 0, 77, 0
4, 340608, Note_on_c, 0, 72, 89
4, 340608, Note_on_c, 0, 69, 89
4, 340700, Note_on_c, 0, 69, 0
4, 340700, Note_on_c, 0, 72, 0
4, 340704, Note_on_c, 0, 78, 89
4, 340796, Note_on_c, 0, 78, 0
4, 340800, Note_on_c, 0, 72, 89
4, 340800, Note_on_c, 0, 69, 89
4, 340892, Note_on_c, 0, 69, 0
4, 340892, Note_on_c, 0, 72, 0
4, 340896, Note_on_c, 0, 78, 89
4, 340988, Note_on_c, 0, 78, 0
4, 340992, Note_on_c, 0, 72, 89
4, 340992, Note_on_c, 0, 70, 89
4, 341084, Note_on_c, 0, 70, 0
4, 341084, Note_on_c, 0, 72, 0
4, 341088, Note_on_c, 0, 79, 89
4, 341180, Note_on_c, 0, 79, 0
4, 341184, Note_on_c, 0, 72, 89
4, 341184, Note_on_c, 0, 70, 89
4, 341276, Note_on_c, 0, 70, 0
4, 341276, Note_on_c, 0, 72, 0
4, 341280, Note_on_c, 0, 79, 89
4, 341372, Note_on_c, 0, 79, 0
4, 341376, Note_on_c, 0, 72, 89
4, 341376, Note_on_c, 0, 70, 89
4, 341468, Note_on_c, 0, 70, 0
4, 341468, Note_on_c, 0, 72, 0
4, 341472, Note_on_c, 0, 80, 89
4, 341564, Note_on_c, 0, 80, 0
4, 341568, Note_on_c, 0, 72, 89
4, 341568, Note_on_c, 0, 70, 89
4, 341660, Note_on_c, 0, 70, 0
4, 341660, Note_on_c, 0, 72, 0
4, 341664, Note_on_c, 0, 80, 89
4, 341756, Note_on_c, 0, 80, 0
4, 341760, Note_on_c, 0, 72, 89
4, 341760, Note_on_c, 0, 69, 89
4, 341852, Note_on_c, 0, 69, 0
4, 341852, Note_on_c, 0, 72, 0
4, 341856, Note_on_c, 0, 81, 89
4, 341948, Note_on_c, 0, 81, 0
4, 341952, Note_on_c, 0, 72, 89
4, 341952, Note_on_c, 0, 69, 89
4, 342044, Note_on_c, 0, 69, 0
4, 342044, Note_on_c, 0, 72, 0
4, 342048, Note_on_c, 0, 81, 89
4, 342140, Note_on_c, 0, 81, 0
4, 342144, Note_on_c, 0, 79, 89
4, 342144, Note_on_c, 0, 77, 89
4, 342144, Note_on_c, 0, 71, 89
4, 342236, Note_on_c, 0, 71, 0
4, 342236, Note_on_c, 0, 77, 0
4, 342236, Note_on_c, 0, 79, 0
4, 342240, Note_on_c, 0, 83, 89
4, 342320, Note_on_c, 0, 77, 89
4, 342332, Note_on_c, 0, 83, 0
4, 342336, Note_on_c, 0, 79, 89
4, 342336, Note_on_c, 0, 71, 89
4, 342412, Note_on_c, 0, 77, 0
4, 342428, Note_on_c, 0, 71, 0
4, 342428, Note_on_c, 0, 79, 0
4, 342432, Note_on_c, 0, 83, 89
4, 342524, Note_on_c, 0, 83, 0
4, 342528, Note_on_c, 0, 84, 89
4, 342528, Note_on_c, 0, 76, 89
4, 342528, Note_on_c, 0, 72, 89
4, 342716, Note_on_c, 0, 72, 0
4, 342716, Note_on_c, 0, 76, 0
4, 342716, Note_on_c, 0, 84, 0
4, 342720, Note_on_c, 0, 84, 89
4, 342720, Note_on_c, 0, 76, 89
4, 342720, Note_on_c, 0, 72, 89
4, 343100, Note_on_c, 0, 72, 0
4, 343100, Note_on_c, 0, 76, 0
4, 343100, Note_on_c, 0, 84, 0
4, 343104, Note_on_c, 0, 76, 89
4, 343104, Note_on_c, 0, 72, 89
4, 343104, Note_on_c, 0, 84, 89
4, 343484, Note_on_c, 0, 84, 0
4, 343484, Note_on_c, 0, 72, 0
4, 343484, Note_on_c, 0, 76, 0
4, 343488, Note_on_c, 0, 76, 89
4, 343488, Note_on_c, 0, 72, 89
4, 343488, Note_on_c, 0, 84, 89
4, 343868, Note_on_c, 0, 84, 0
4, 343868, Note_on_c, 0, 72, 0
4, 343868, Note_on_c, 0, 76, 0
4, 343872, Note_on_c, 0, 84, 89
4, 343872, Note_on_c, 0, 76, 89
4, 343872, Note_on_c, 0, 72, 89
4, 344060, Note_on_c, 0, 72, 0
4, 344060, Note_on_c, 0, 76, 0
4, 344060, Note_on_c, 0, 84, 0
4, 344064, Note_on_c, 0, 84, 89
4, 344064, Note_on_c, 0, 88, 89
4, 344064, Note_on_c, 0, 79, 89
4, 344064, Note_on_c, 0, 76, 89
4, 344636, Note_on_c, 0, 76, 0
4, 344636, Note_on_c, 0, 84, 0
4, 344636, Note_on_c, 0, 88, 0
4, 344636, Note_on_c, 0, 79, 0
4, 384768, Note_on_c, 0, 67, 83
4, 384768, Note_on_c, 0, 64, 83
4, 384768, Note_on_c, 0, 60, 83
4, 384956, Note_on_c, 0, 60, 0
4, 384956, Note_on_c, 0, 64, 0
4, 384956, Note_on_c, 0, 67, 0
4, 384960, Note_on_c, 0, 67, 83
4, 384960, Note_on_c, 0, 64, 83
4, 384960, Note_on_c, 0, 60, 83
4, 385148, Note_on_c, 0, 60, 0
4, 385148, Note_on_c, 0, 64, 0
4, 385148, Note_on_c, 0, 67, 0
4, 385152, Note_on_c, 0, 67, 83
4, 385152, Note_on_c, 0, 64, 83
4, 385152, Note_on_c, 0, 60, 83
4, 385340, Note_on_c, 0, 60, 0
4, 385340, Note_on_c, 0, 64, 0
4, 385340, Note_on_c, 0, 67, 0
4, 385344, Note_on_c, 0, 67, 83
4, 385344, Note_on_c, 0, 64, 83
4, 385344, Note_on_c, 0, 60, 83
4, 385532, Note_on_c, 0, 60, 0
4, 385532, Note_on_c, 0, 64, 0
4, 385532, Note_on_c, 0, 67, 0
4, 385536, Note_on_c, 0, 67, 83
4, 385536, Note_on_c, 0, 64, 83
4, 385536, Note_on_c, 0, 60, 83
4, 385724, Note_on_c, 0, 60, 0
4, 385724, Note_on_c, 0, 64, 0
4, 385724, Note_on_c, 0, 67, 0
4, 385728, Note_on_c, 0, 67, 83
4, 385728, Note_on_c, 0, 64, 83
4, 385728, Note_on_c, 0, 60, 83
4, 385916, Note_on_c, 0, 60, 0
4, 385916, Note_on_c, 0, 64, 0
4, 385916, Note_on_c, 0, 67, 0
4, 385920, Note_on_c, 0, 67, 83
4, 385920, Note_on_c, 0, 64, 83
4, 385920, Note_on_c, 0, 60, 83
4, 386108, Note_on_c, 0, 60, 0
4, 386108, Note_on_c, 0, 64, 0
4, 386108, Note_on_c, 0, 67, 0
4, 386112, Note_on_c, 0, 67, 83
4, 386112, Note_on_c, 0, 64, 83
4, 386112, Note_on_c, 0, 60, 83
4, 386300, Note_on_c, 0, 60, 0
4, 386300, Note_on_c, 0, 64, 0
4, 386300, Note_on_c, 0, 67, 0
4, 386304, Note_on_c, 0, 67, 83
4, 386304, Note_on_c, 0, 64, 83
4, 386304, Note_on_c, 0, 60, 83
4, 386492, Note_on_c, 0, 60, 0
4, 386492, Note_on_c, 0, 64, 0
4, 386492, Note_on_c, 0, 67, 0
4, 386496, Note_on_c, 0, 67, 83
4, 386496, Note_on_c, 0, 64, 83
4, 386496, Note_on_c, 0, 60, 83
4, 386684, Note_on_c, 0, 60, 0
4, 386684, Note_on_c, 0, 64, 0
4, 386684, Note_on_c, 0, 67, 0
4, 386688, Note_on_c, 0, 67, 83
4, 386688, Note_on_c, 0, 64, 83
4, 386688, Note_on_c, 0, 60, 83
4, 386876, Note_on_c, 0, 60, 0
4, 386876, Note_on_c, 0, 64, 0
4, 386876, Note_on_c, 0, 67, 0
4, 386880, Note_on_c, 0, 67, 83
4, 386880, Note_on_c, 0, 64, 83
4, 386880, Note_on_c, 0, 60, 83
4, 387068, Note_on_c, 0, 60, 0
4, 387068, Note_on_c, 0, 64, 0
4, 387068, Note_on_c, 0, 67, 0
4, 387072, Note_on_c, 0, 67, 83
4, 387072, Note_on_c, 0, 65, 83
4, 387072, Note_on_c, 0, 59, 83
4, 387260, Note_on_c, 0, 59, 0
4, 387260, Note_on_c, 0, 65, 0
4, 387260, Note_on_c, 0, 67, 0
4, 387264, Note_on_c, 0, 67, 83
4, 387264, Note_on_c, 0, 65, 83
4, 387264, Note_on_c, 0, 59, 83
4, 387452, Note_on_c, 0, 59, 0
4, 387452, Note_on_c, 0, 65, 0
4, 387452, Note_on_c, 0, 67, 0
4, 387456, Note_on_c, 0, 67, 83
4, 387456, Note_on_c, 0, 65, 83
4, 387456, Note_on_c, 0, 59, 83
4, 387644, Note_on_c, 0, 59, 0
4, 387644, Note_on_c, 0, 65, 0
4, 387644, Note_on_c, 0, 67, 0
4, 387648, Note_on_c, 0, 67, 83
4, 387648, Note_on_c, 0, 65, 83
4, 387648, Note_on_c, 0, 59, 83
4, 387836, Note_on_c, 0, 59, 0
4, 387836, Note_on_c, 0, 65, 0
4, 387836, Note_on_c, 0, 67, 0
4, 387840, Note_on_c, 0, 67, 83
4, 387840, Note_on_c, 0, 65, 83
4, 387840, Note_on_c, 0, 59, 83
4, 388028, Note_on_c, 0, 59, 0
4, 388028, Note_on_c, 0, 65, 0
4, 388028, Note_on_c, 0, 67, 0
4, 388032, Note_on_c, 0, 65, 83
4, 388032, Note_on_c, 0, 59, 83
4, 388032, Note_on_c, 0, 67, 83
4, 388220, Note_on_c, 0, 67, 0
4, 388220, Note_on_c, 0, 59, 0
4, 388220, Note_on_c, 0, 65, 0
4, 388224, Note_on_c, 0, 67, 83
4, 388224, Note_on_c, 0, 64, 83
4, 388224, Note_on_c, 0, 60, 83
4, 388412, Note_on_c, 0, 60, 0
4, 388412, Note_on_c, 0, 64, 0
4, 388412, Note_on_c, 0, 67, 0
4, 388416, Note_on_c, 0, 67, 83
4, 388416, Note_on_c, 0, 64, 83
4, 388416, Note_on_c, 0, 60, 83
4, 388604, Note_on_c, 0, 60, 0
4, 388604, Note_on_c, 0, 64, 0
4, 388604, Note_on_c, 0, 67, 0
4, 388608, Note_on_c, 0, 67, 83
4, 388608, Note_on_c, 0, 64, 83
4, 388608, Note_on_c, 0, 60, 83
4, 388796, Note_on_c, 0, 60, 0
4, 388796, Note_on_c, 0, 64, 0
4, 388796, Note_on_c, 0, 67, 0
4, 388800, Note_on_c, 0, 67, 83
4, 388800, Note_on_c, 0, 64, 83
4, 388800, Note_on_c, 0, 60, 83
4, 388988, Note_on_c, 0, 60, 0
4, 388988, Note_on_c, 0, 64, 0
4, 388988, Note_on_c, 0, 67, 0
4, 388992, Note_on_c, 0, 67, 83
4, 388992, Note_on_c, 0, 64, 83
4, 388992, Note_on_c, 0, 60, 83
4, 389180, Note_on_c, 0, 60, 0
4, 389180, Note_on_c, 0, 64, 0
4, 389180, Note_on_c, 0, 67, 0
4, 389184, Note_on_c, 0, 67, 83
4, 389184, Note_on_c, 0, 64, 83
4, 389184, Note_on_c, 0, 60, 83
4, 389372, Note_on_c, 0, 60, 0
4, 389372, Note_on_c, 0, 64, 0
4, 389372, Note_on_c, 0, 67, 0
4, 389376, Note_on_c, 0, 67, 83
4, 389376, Note_on_c, 0, 64, 83
4, 389376, Note_on_c, 0, 60, 83
4, 389564, Note_on_c, 0, 60, 0
4, 389564, Note_on_c, 0, 64, 0
4, 389564, Note_on_c, 0, 67, 0
4, 389568, Note_on_c, 0, 67, 83
4, 389568, Note_on_c, 0, 64, 83
4, 389568, Note_on_c, 0, 60, 83
4, 389756, Note_on_c, 0, 60, 0
4, 389756, Note_on_c, 0, 64, 0
4, 389756, Note_on_c, 0, 67, 0
4, 389760, Note_on_c, 0, 67, 83
4, 389760, Note_on_c, 0, 64, 83
4, 389760, Note_on_c, 0, 60, 83
4, 389948, Note_on_c, 0, 60, 0
4, 389948, Note_on_c, 0, 64, 0
4, 389948, Note_on_c, 0, 67, 0
4, 389952, Note_on_c, 0, 67, 83
4, 389952, Note_on_c, 0, 64, 83
4, 389952, Note_on_c, 0, 60, 83
4, 390140, Note_on_c, 0, 60, 0
4, 390140, Note_on_c, 0, 64, 0
4, 390140, Note_on_c, 0, 67, 0
4, 390144, Note_on_c, 0, 67, 83
4, 390144, Note_on_c, 0, 65, 83
4, 390144, Note_on_c, 0, 59, 83
4, 390332, Note_on_c, 0, 59, 0
4, 390332, Note_on_c, 0, 65, 0
4, 390332, Note_on_c, 0, 67, 0
4, 390336, Note_on_c, 0, 67, 83
4, 390336, Note_on_c, 0, 65, 83
4, 390336, Note_on_c, 0, 59, 83
4, 390524, Note_on_c, 0, 59, 0
4, 390524, Note_on_c, 0, 65, 0
4, 390524, Note_on_c, 0, 67, 0
4, 390528, Note_on_c, 0, 67, 83
4, 390528, Note_on_c, 0, 65, 83
4, 390528, Note_on_c, 0, 59, 83
4, 390716, Note_on_c, 0, 59, 0
4, 390716, Note_on_c, 0, 65, 0
4, 390716, Note_on_c, 0, 67, 0
4, 390720, Note_on_c, 0, 67, 83
4, 390720, Note_on_c, 0, 64, 83
4, 390720, Note_on_c, 0, 60, 83
4, 390908, Note_on_c, 0, 60, 0
4, 390908, Note_on_c, 0, 64, 0
4, 390908, Note_on_c, 0, 67, 0
4, 390912, Note_on_c, 0, 67, 83
4, 390912, Note_on_c, 0, 64, 83
4, 390912, Note_on_c, 0, 60, 83
4, 391292, Note_on_c, 0, 60, 0
4, 391292, Note_on_c, 0, 64, 0
4, 391292, Note_on_c, 0, 67, 0
4, 391680, Note_on_c, 0, 76, 89
4, 391772, Note_on_c, 0, 76, 0
4, 391872, Note_on_c, 0, 77, 89
4, 391964, Note_on_c, 0, 77, 0
4, 392064, Note_on_c, 0, 78, 89
4, 392156, Note_on_c, 0, 78, 0
4, 392256, Note_on_c, 0, 79, 89
4, 392348, Note_on_c, 0, 79, 0
4, 392448, Note_on_c, 0, 81, 89
4, 392636, Note_on_c, 0, 81, 0
4, 392640, Note_on_c, 0, 79, 89
4, 392828, Note_on_c, 0, 79, 0
4, 392832, Note_on_c, 0, 77, 89
4, 392924, Note_on_c, 0, 77, 0
4, 393024, Note_on_c, 0, 76, 89
4, 393116, Note_on_c, 0, 76, 0
4, 393216, Note_on_c, 0, 74, 89
4, 393216, Note_on_c, 0, 65, 89
4, 393360, Note_on_c, 0, 76, 89
4, 393404, Note_on_c, 0, 76, 0
4, 393404, Note_on_c, 0, 74, 0
4, 393408, Note_on_c, 0, 74, 89
4, 393500, Note_on_c, 0, 74, 0
4, 393504, Note_on_c, 0, 72, 89
4, 393596, Note_on_c, 0, 72, 0
4, 393596, Note_on_c, 0, 65, 0
4, 393600, Note_on_c, 0, 74, 89
4, 393600, Note_on_c, 0, 65, 89
4, 393788, Note_on_c, 0, 65, 0
4, 393788, Note_on_c, 0, 74, 0
4, 393792, Note_on_c, 0, 65, 89
4, 393792, Note_on_c, 0, 74, 89
4, 393884, Note_on_c, 0, 74, 0
4, 393980, Note_on_c, 0, 65, 0
4, 393984, Note_on_c, 0, 74, 89
4, 393984, Note_on_c, 0, 65, 89
4, 394364, Note_on_c, 0, 65, 0
4, 394364, Note_on_c, 0, 74, 0
4, 394368, Note_on_c, 0, 76, 89
4, 394368, Note_on_c, 0, 64, 89
4, 394556, Note_on_c, 0, 64, 0
4, 394556, Note_on_c, 0, 76, 0
4, 394560, Note_on_c, 0, 72, 89
4, 394748, Note_on_c, 0, 72, 0
4, 394752, Note_on_c, 0, 76, 89
4, 394844, Note_on_c, 0, 76, 0
4, 394944, Note_on_c, 0, 77, 89
4, 395036, Note_on_c, 0, 77, 0
4, 395136, Note_on_c, 0, 78, 89
4, 395228, Note_on_c, 0, 78, 0
4, 395328, Note_on_c, 0, 79, 89
4, 395420, Note_on_c, 0, 79, 0
4, 395520, Note_on_c, 0, 81, 89
4, 395708, Note_on_c, 0, 81, 0
4, 395712, Note_on_c, 0, 79, 89
4, 395900, Note_on_c, 0, 79, 0
4, 395904, Note_on_c, 0, 77, 89
4, 395996, Note_on_c, 0, 77, 0
4, 396096, Note_on_c, 0, 76, 89
4, 396188, Note_on_c, 0, 76, 0
4, 396288, Note_on_c, 0, 74, 89
4, 396288, Note_on_c, 0, 65, 89
4, 396432, Note_on_c, 0, 76, 89
4, 396476, Note_on_c, 0, 76, 0
4, 396476, Note_on_c, 0, 74, 0
4, 396480, Note_on_c, 0, 74, 89
4, 396572, Note_on_c, 0, 74, 0
4, 396576, Note_on_c, 0, 72, 89
4, 396668, Note_on_c, 0, 72, 0
4, 396668, Note_on_c, 0, 65, 0
4, 396672, Note_on_c, 0, 74, 89
4, 396672, Note_on_c, 0, 65, 89
4, 396860, Note_on_c, 0, 65, 0
4, 396860, Note_on_c, 0, 74, 0
4, 396864, Note_on_c, 0, 64, 89
4, 396864, Note_on_c, 0, 76, 89
4, 396956, Note_on_c, 0, 76, 0
4, 397052, Note_on_c, 0, 64, 0
4, 397056, Note_on_c, 0, 72, 89
4, 397056, Note_on_c, 0, 64, 89
4, 397436, Note_on_c, 0, 64, 0
4, 397436, Note_on_c, 0, 72, 0
4, 397824, Note_on_c, 0, 74, 103
4, 397968, Note_on_c, 0, 76, 103
4, 398012, Note_on_c, 0, 76, 0
4, 398012, Note_on_c, 0, 74, 0
4, 398016, Note_on_c, 0, 74, 103
4, 398108, Note_on_c, 0, 74, 0
4, 398112, Note_on_c, 0, 72, 103
4, 398204, Note_on_c, 0, 72, 0
4, 398208, Note_on_c, 0, 74, 103
4, 398396, Note_on_c, 0, 74, 0
4, 398400, Note_on_c, 0, 76, 103
4, 398588, Note_on_c, 0, 76, 0
4, 398592, Note_on_c, 0, 72, 103
4, 398592, Note_on_c, 0, 64, 103
4, 398780, Note_on_c, 0, 64, 0
4, 398780, Note_on_c, 0, 72, 0
4, 399360, Note_on_c, 0, 86, 103
4, 399360, Note_on_c, 0, 83, 103
4, 399360, Note_on_c, 0, 74, 103
4, 399504, Note_on_c, 0, 88, 103
4, 399548, Note_on_c, 0, 88, 0
4, 399548, Note_on_c, 0, 86, 0
4, 399548, Note_on_c, 0, 83, 0
4, 399548, Note_on_c, 0, 74, 0
4, 399552, Note_on_c, 0, 86, 103
4, 399644, Note_on_c, 0, 86, 0
4, 399648, Note_on_c, 0, 84, 103
4, 399740, Note_on_c, 0, 84, 0
4, 399744, Note_on_c, 0, 86, 103
4, 399744, Note_on_c, 0, 83, 103
4, 399744, Note_on_c, 0, 77, 103
4, 399932, Note_on_c, 0, 77, 0
4, 399932, Note_on_c, 0, 83, 0
4, 399932, Note_on_c, 0, 86, 0
4, 399936, Note_on_c, 0, 88, 103
4, 399936, Note_on_c, 0, 84, 103
4, 399936, Note_on_c, 0, 76, 103
4, 400124, Note_on_c, 0, 76, 0
4, 400124, Note_on_c, 0, 84, 0
4, 400124, Note_on_c, 0, 88, 0
4, 400128, Note_on_c, 0, 88, 103
4, 400128, Note_on_c, 0, 79, 103
4, 400128, Note_on_c, 0, 72, 103
4, 400508, Note_on_c, 0, 72, 0
4, 400508, Note_on_c, 0, 79, 0
4, 400508, Note_on_c, 0, 88, 0
4, 400896, Note_on_c, 0, 83, 112
4, 400896, Note_on_c, 0, 79, 112
4, 400896, Note_on_c, 0, 74, 112
4, 400896, Note_on_c, 0, 71, 112
4, 401276, Note_on_c, 0, 71, 0
4, 401276, Note_on_c, 0, 83, 0
4, 401276, Note_on_c, 0, 79, 0
4, 401276, Note_on_c, 0, 74, 0
4, 401280, Note_on_c, 0, 83, 112
4, 401280, Note_on_c, 0, 79, 112
4, 401280, Note_on_c, 0, 74, 112
4, 401280, Note_on_c, 0, 71, 112
4, 401660, Note_on_c, 0, 71, 0
4, 401660, Note_on_c, 0, 83, 0
4, 401660, Note_on_c, 0, 79, 0
4, 401660, Note_on_c, 0, 74, 0
4, 401664, Note_on_c, 0, 84, 112
4, 401664, Note_on_c, 0, 79, 112
4, 401664, Note_on_c, 0, 76, 112
4, 401664, Note_on_c, 0, 72, 112
4, 402044, Note_on_c, 0, 72, 0
4, 402044, Note_on_c, 0, 84, 0
4, 402044, Note_on_c, 0, 79, 0
4, 402044, Note_on_c, 0, 76, 0
4, 402044, End_track
5, 0, Start_track
5, 0, Title_t, "Piano"
5, 0, Control_c, 0, 0, 0
5, 0, Control_c, 0, 7, 110
5, 0, Control_c, 0, 10, 44
5, 0, Control_c, 0, 91, 63
5, 0, Control_c, 0, 93, 38
5, 0, Control_c, 0, 121, 0
5, 0, Control_c, 0, 32, 0
5, 1, Program_c, 0, 0
5, 384, Control_c, 0, 10, 43
5, 480, Control_c, 0, 91, 63
5, 576, Control_c, 0, 93, 40
5, 672, Program_c, 0, 0
5, 768, Note_on_c, 0, 60, 89
5, 860, Note_on_c, 0, 60, 0
5, 960, Note_on_c, 0, 62, 89
5, 1052, Note_on_c, 0, 62, 0
5, 1152, Note_on_c, 0, 63, 89
5, 1244, Note_on_c, 0, 63, 0
5, 1344, Note_on_c, 0, 64, 89
5, 1436, Note_on_c, 0, 64, 0
5, 1536, Note_on_c, 0, 60, 89
5, 1536, Note_on_c, 0, 65, 89
5, 1724, Note_on_c, 0, 65, 0
5, 1728, Note_on_c, 0, 64, 89
5, 1916, Note_on_c, 0, 64, 0
5, 1916, Note_on_c, 0, 60, 0
5, 1920, Note_on_c, 0, 62, 89
5, 2012, Note_on_c, 0, 62, 0
5, 2112, Note_on_c, 0, 60, 89
5, 2204, Note_on_c, 0, 60, 0
5, 2304, Note_on_c, 0, 59, 89
5, 2304, Note_on_c, 0, 55, 89
5, 2448, Note_on_c, 0, 60, 89
5, 2492, Note_on_c, 0, 60, 0
5, 2492, Note_on_c, 0, 59, 0
5, 2496, Note_on_c, 0, 59, 89
5, 2588, Note_on_c, 0, 59, 0
5, 2592, Note_on_c, 0, 57, 89
5, 2684, Note_on_c, 0, 57, 0
5, 2684, Note_on_c, 0, 55, 0
5, 2688, Note_on_c, 0, 59, 89
5, 2688, Note_on_c, 0, 55, 89
5, 2876, Note_on_c, 0, 55, 0
5, 2876, Note_on_c, 0, 59, 0
5, 2880, Note_on_c, 0, 59, 89
5, 2880, Note_on_c, 0, 55, 89
5, 2972, Note_on_c, 0, 55, 0
5, 2972, Note_on_c, 0, 59, 0
5, 3072, Note_on_c, 0, 59, 89
5, 3072, Note_on_c, 0, 55, 89
5, 3072, Note_on_c, 0, 48, 89
5, 3452, Note_on_c, 0, 48, 0
5, 3452, Note_on_c, 0, 55, 0
5, 3452, Note_on_c, 0, 59, 0
5, 3456, Note_on_c, 0, 60, 89
5, 3644, Note_on_c, 0, 60, 0
5, 3840, Note_on_c, 0, 60, 89
5, 3932, Note_on_c, 0, 60, 0
5, 4032, Note_on_c, 0, 62, 89
5, 4124, Note_on_c, 0, 62, 0
5, 4224, Note_on_c, 0, 63, 89
5, 4316, Note_on_c, 0, 63, 0
5, 4416, Note_on_c, 0, 64, 89
5, 4508, Note_on_c, 0, 64, 0
5, 4608, Note_on_c, 0, 65, 89
5, 4608, Note_on_c, 0, 60, 89
5, 4796, Note_on_c, 0, 65, 0
5, 4800, Note_on_c, 0, 64, 89
5, 4988, Note_on_c, 0, 64, 0
5, 4988, Note_on_c, 0, 60, 0
5, 4992, Note_on_c, 0, 62, 89
5, 5084, Note_on_c, 0, 62, 0
5, 5184, Note_on_c, 0, 60, 89
5, 5276, Note_on_c, 0, 60, 0
5, 5376, Note_on_c, 0, 59, 89
5, 5376, Note_on_c, 0, 55, 89
5, 5520, Note_on_c, 0, 60, 89
5, 5564, Note_on_c, 0, 60, 0
5, 5564, Note_on_c, 0, 59, 0
5, 5568, Note_on_c, 0, 59, 89
5, 5660, Note_on_c, 0, 59, 0
5, 5664, Note_on_c, 0, 57, 89
5, 5756, Note_on_c, 0, 57, 0
5, 5756, Note_on_c, 0, 55, 0
5, 5760, Note_on_c, 0, 59, 89
5, 5760, Note_on_c, 0, 55, 89
5, 5948, Note_on_c, 0, 55, 0
5, 5948, Note_on_c, 0, 59, 0
5, 5952, Note_on_c, 0, 60, 89
5, 5952, Note_on_c, 0, 55, 89
5, 6044, Note_on_c, 0, 55, 0
5, 6044, Note_on_c, 0, 60, 0
5, 6144, Note_on_c, 0, 60, 89
5, 6144, Note_on_c, 0, 55, 89
5, 6144, Note_on_c, 0, 48, 89
5, 6524, Note_on_c, 0, 48, 0
5, 6524, Note_on_c, 0, 55, 0
5, 6524, Note_on_c, 0, 60, 0
5, 6912, Note_on_c, 0, 60, 89
5, 7004, Note_on_c, 0, 60, 0
5, 7104, Note_on_c, 0, 62, 89
5, 7196, Note_on_c, 0, 62, 0
5, 7296, Note_on_c, 0, 63, 89
5, 7388, Note_on_c, 0, 63, 0
5, 7488, Note_on_c, 0, 64, 89
5, 7580, Note_on_c, 0, 64, 0
5, 7680, Note_on_c, 0, 60, 89
5, 7680, Note_on_c, 0, 65, 89
5, 7868, Note_on_c, 0, 65, 0
5, 7872, Note_on_c, 0, 64, 89
5, 8060, Note_on_c, 0, 64, 0
5, 8060, Note_on_c, 0, 60, 0
5, 8064, Note_on_c, 0, 62, 89
5, 8156, Note_on_c, 0, 62, 0
5, 8256, Note_on_c, 0, 60, 89
5, 8348, Note_on_c, 0, 60, 0
5, 8448, Note_on_c, 0, 59, 89
5, 8448, Note_on_c, 0, 55, 89
5, 8592, Note_on_c, 0, 60, 89
5, 8636, Note_on_c, 0, 60, 0
5, 8636, Note_on_c, 0, 59, 0
5, 8640, Note_on_c, 0, 59, 89
5, 8732, Note_on_c, 0, 59, 0
5, 8736, Note_on_c, 0, 57, 89
5, 8828, Note_on_c, 0, 57, 0
5, 8828, Note_on_c, 0, 55, 0
5, 8832, Note_on_c, 0, 59, 89
5, 8832, Note_on_c, 0, 55, 89
5, 9020, Note_on_c, 0, 55, 0
5, 9020, Note_on_c, 0, 59, 0
5, 9024, Note_on_c, 0, 59, 89
5, 9024, Note_on_c, 0, 55, 89
5, 9116, Note_on_c, 0, 55, 0
5, 9116, Note_on_c, 0, 59, 0
5, 9216, Note_on_c, 0, 59, 89
5, 9216, Note_on_c, 0, 55, 89
5, 9216, Note_on_c, 0, 48, 89
5, 9596, Note_on_c, 0, 48, 0
5, 9596, Note_on_c, 0, 55, 0
5, 9596, Note_on_c, 0, 59, 0
5, 9600, Note_on_c, 0, 60, 89
5, 9788, Note_on_c, 0, 60, 0
5, 9984, Note_on_c, 0, 60, 89
5, 10076, Note_on_c, 0, 60, 0
5, 10176, Note_on_c, 0, 62, 89
5, 10268, Note_on_c, 0, 62, 0
5, 10368, Note_on_c, 0, 63, 89
5, 10460, Note_on_c, 0, 63, 0
5, 10560, Note_on_c, 0, 64, 89
5, 10652, Note_on_c, 0, 64, 0
5, 10752, Note_on_c, 0, 65, 89
5, 10752, Note_on_c, 0, 60, 89
5, 10940, Note_on_c, 0, 65, 0
5, 10944, Note_on_c, 0, 64, 89
5, 11132, Note_on_c, 0, 64, 0
5, 11132, Note_on_c, 0, 60, 0
5, 11136, Note_on_c, 0, 62, 89
5, 11228, Note_on_c, 0, 62, 0
5, 11328, Note_on_c, 0, 60, 89
5, 11420, Note_on_c, 0, 60, 0
5, 11520, Note_on_c, 0, 59, 89
5, 11520, Note_on_c, 0, 55, 89
5, 11664, Note_on_c, 0, 60, 89
5, 11708, Note_on_c, 0, 60, 0
5, 11708, Note_on_c, 0, 59, 0
5, 11712, Note_on_c, 0, 59, 89
5, 11804, Note_on_c, 0, 59, 0
5, 11808, Note_on_c, 0, 57, 89
5, 11900, Note_on_c, 0, 57, 0
5, 11900, Note_on_c, 0, 55, 0
5, 11904, Note_on_c, 0, 59, 89
5, 11904, Note_on_c, 0, 55, 89
5, 12092, Note_on_c, 0, 55, 0
5, 12092, Note_on_c, 0, 59, 0
5, 12096, Note_on_c, 0, 60, 89
5, 12096, Note_on_c, 0, 55, 89
5, 12188, Note_on_c, 0, 55, 0
5, 12188, Note_on_c, 0, 60, 0
5, 12288, Note_on_c, 0, 60, 89
5, 12288, Note_on_c, 0, 55, 89
5, 12288, Note_on_c, 0, 48, 89
5, 12668, Note_on_c, 0, 48, 0
5, 12668, Note_on_c, 0, 55, 0
5, 12668, Note_on_c, 0, 60, 0
5, 13056, Note_on_c, 0, 59, 89
5, 13148, Note_on_c, 0, 59, 0
5, 13248, Note_on_c, 0, 60, 89
5, 13340, Note_on_c, 0, 60, 0
5, 13440, Note_on_c, 0, 61, 89
5, 13532, Note_on_c, 0, 61, 0
5, 13632, Note_on_c, 0, 62, 89
5, 13724, Note_on_c, 0, 62, 0
5, 13824, Note_on_c, 0, 64, 89
5, 13824, Note_on_c, 0, 55, 89
5, 14012, Note_on_c, 0, 64, 0
5, 14016, Note_on_c, 0, 62, 89
5, 14204, Note_on_c, 0, 62, 0
5, 14204, Note_on_c, 0, 55, 0
5, 14208, Note_on_c, 0, 59, 89
5, 14396, Note_on_c, 0, 59, 0
5, 14592, Note_on_c, 0, 58, 89
5, 14592, Note_on_c, 0, 61, 89
5, 14592, Note_on_c, 0, 55, 89
5, 14780, Note_on_c, 0, 61, 0
5, 14780, Note_on_c, 0, 58, 0
5, 14784, Note_on_c, 0, 59, 89
5, 14784, Note_on_c, 0, 62, 89
5, 14972, Note_on_c, 0, 62, 0
5, 14972, Note_on_c, 0, 59, 0
5, 14976, Note_on_c, 0, 62, 89
5, 14976, Note_on_c, 0, 65, 89
5, 15164, Note_on_c, 0, 65, 0
5, 15164, Note_on_c, 0, 62, 0
5, 15356, Note_on_c, 0, 55, 0
5, 15360, Note_on_c, 0, 58, 89
5, 15360, Note_on_c, 0, 61, 89
5, 15360, Note_on_c, 0, 55, 89
5, 15548, Note_on_c, 0, 61, 0
5, 15548, Note_on_c, 0, 58, 0
5, 15552, Note_on_c, 0, 59, 89
5, 15552, Note_on_c, 0, 62, 89
5, 15740, Note_on_c, 0, 62, 0
5, 15740, Note_on_c, 0, 59, 0
5, 15744, Note_on_c, 0, 62, 89
5, 15744, Note_on_c, 0, 65, 89
5, 15932, Note_on_c, 0, 65, 0
5, 15932, Note_on_c, 0, 62, 0
5, 15936, Note_on_c, 0, 59, 89
5, 16124, Note_on_c, 0, 59, 0
5, 16124, Note_on_c, 0, 55, 0
5, 16128, Note_on_c, 0, 60, 89
5, 16220, Note_on_c, 0, 60, 0
5, 16320, Note_on_c, 0, 61, 89
5, 16412, Note_on_c, 0, 61, 0
5, 16512, Note_on_c, 0, 62, 89
5, 16604, Note_on_c, 0, 62, 0
5, 16704, Note_on_c, 0, 63, 89
5, 16796, Note_on_c, 0, 63, 0
5, 16896, Note_on_c, 0, 60, 89
5, 16896, Note_on_c, 0, 65, 89
5, 17084, Note_on_c, 0, 65, 0
5, 17084, Note_on_c, 0, 60, 0
5, 17088, Note_on_c, 0, 64, 89
5, 17276, Note_on_c, 0, 64, 0
5, 17280, Note_on_c, 0, 60, 89
5, 17468, Note_on_c, 0, 60, 0
5, 17664, Note_on_c, 0, 59, 89
5, 17664, Note_on_c, 0, 62, 89
5, 17664, Note_on_c, 0, 48, 89
5, 17852, Note_on_c, 0, 62, 0
5, 17852, Note_on_c, 0, 59, 0
5, 17856, Note_on_c, 0, 60, 89
5, 17856, Note_on_c, 0, 64, 89
5, 18044, Note_on_c, 0, 64, 0
5, 18044, Note_on_c, 0, 60, 0
5, 18048, Note_on_c, 0, 64, 89
5, 18048, Note_on_c, 0, 67, 89
5, 18236, Note_on_c, 0, 67, 0
5, 18236, Note_on_c, 0, 64, 0
5, 18428, Note_on_c, 0, 48, 0
5, 18432, Note_on_c, 0, 59, 89
5, 18432, Note_on_c, 0, 62, 89
5, 18432, Note_on_c, 0, 48, 89
5, 18620, Note_on_c, 0, 62, 0
5, 18620, Note_on_c, 0, 59, 0
5, 18624, Note_on_c, 0, 60, 89
5, 18624, Note_on_c, 0, 64, 89
5, 18812, Note_on_c, 0, 64, 0
5, 18812, Note_on_c, 0, 60, 0
5, 18816, Note_on_c, 0, 64, 89
5, 18816, Note_on_c, 0, 67, 89
5, 19004, Note_on_c, 0, 67, 0
5, 19004, Note_on_c, 0, 64, 0
5, 19004, Note_on_c, 0, 48, 0
5, 19008, Note_on_c, 0, 55, 89
5, 19008, Note_on_c, 0, 43, 89
5, 19196, Note_on_c, 0, 43, 0
5, 19196, Note_on_c, 0, 55, 0
5, 19200, Note_on_c, 0, 60, 112
5, 19200, Note_on_c, 0, 48, 112
5, 19388, Note_on_c, 0, 48, 0
5, 19388, Note_on_c, 0, 60, 0
5, 19392, Note_on_c, 0, 59, 112
5, 19392, Note_on_c, 0, 47, 112
5, 19580, Note_on_c, 0, 47, 0
5, 19580, Note_on_c, 0, 59, 0
5, 19584, Note_on_c, 0, 57, 112
5, 19584, Note_on_c, 0, 45, 112
5, 19584, Note_on_c, 0, 48, 112
5, 19772, Note_on_c, 0, 45, 0
5, 19772, Note_on_c, 0, 57, 0
5, 19776, Note_on_c, 0, 56, 112
5, 19776, Note_on_c, 0, 44, 112
5, 19868, Note_on_c, 0, 48, 0
5, 19872, Note_on_c, 0, 48, 112
5, 19964, Note_on_c, 0, 48, 0
5, 19964, Note_on_c, 0, 44, 0
5, 19964, Note_on_c, 0, 56, 0
5, 19968, Note_on_c, 0, 57, 112
5, 19968, Note_on_c, 0, 45, 112
5, 19968, Note_on_c, 0, 48, 112
5, 20060, Note_on_c, 0, 45, 0
5, 20060, Note_on_c, 0, 57, 0
5, 20160, Note_on_c, 0, 55, 112
5, 20160, Note_on_c, 0, 43, 112
5, 20252, Note_on_c, 0, 43, 0
5, 20252, Note_on_c, 0, 55, 0
5, 20348, Note_on_c, 0, 48, 0
5, 20352, Note_on_c, 0, 53, 112
5, 20352, Note_on_c, 0, 41, 112
5, 20352, Note_on_c, 0, 48, 112
5, 20444, Note_on_c, 0, 41, 0
5, 20444, Note_on_c, 0, 53, 0
5, 20544, Note_on_c, 0, 52, 112
5, 20544, Note_on_c, 0, 40, 112
5, 20636, Note_on_c, 0, 40, 0
5, 20636, Note_on_c, 0, 52, 0
5, 20732, Note_on_c, 0, 48, 0
5, 20736, Note_on_c, 0, 53, 112
5, 20736, Note_on_c, 0, 41, 112
5, 20736, Note_on_c, 0, 48, 112
5, 20828, Note_on_c, 0, 41, 0
5, 20828, Note_on_c, 0, 53, 0
5, 20928, Note_on_c, 0, 52, 112
5, 20928, Note_on_c, 0, 40, 112
5, 21020, Note_on_c, 0, 40, 0
5, 21020, Note_on_c, 0, 52, 0
5, 21116, Note_on_c, 0, 48, 0
5, 21120, Note_on_c, 0, 50, 112
5, 21120, Note_on_c, 0, 38, 112
5, 21120, Note_on_c, 0, 48, 112
5, 21212, Note_on_c, 0, 38, 0
5, 21212, Note_on_c, 0, 50, 0
5, 21312, Note_on_c, 0, 48, 112
5, 21312, Note_on_c, 0, 36, 112
5, 21404, Note_on_c, 0, 36, 0
5, 21404, Note_on_c, 0, 48, 0
5, 21500, Note_on_c, 0, 48, 0
5, 21504, Note_on_c, 0, 55, 112
5, 21504, Note_on_c, 0, 43, 112
5, 21884, Note_on_c, 0, 43, 0
5, 21884, Note_on_c, 0, 55, 0
5, 29184, Note_on_c, 0, 60, 83
5, 29184, Note_on_c, 0, 48, 83
5, 29564, Note_on_c, 0, 48, 0
5, 29564, Note_on_c, 0, 60, 0
5, 29952, Note_on_c, 0, 55, 83
5, 29952, Note_on_c, 0, 43, 83
5, 30332, Note_on_c, 0, 43, 0
5, 30332, Note_on_c, 0, 55, 0
5, 30720, Note_on_c, 0, 48, 83
5, 30720, Note_on_c, 0, 36, 83
5, 31100, Note_on_c, 0, 36, 0
5, 31100, Note_on_c, 0, 48, 0
5, 32256, Note_on_c, 0, 60, 83
5, 32256, Note_on_c, 0, 48, 83
5, 32636, Note_on_c, 0, 48, 0
5, 32636, Note_on_c, 0, 60, 0
5, 33024, Note_on_c, 0, 55, 83
5, 33024, Note_on_c, 0, 43, 83
5, 33404, Note_on_c, 0, 43, 0
5, 33404, Note_on_c, 0, 55, 0
5, 33792, Note_on_c, 0, 55, 112
5, 33792, Note_on_c, 0, 52, 112
5, 33792, Note_on_c, 0, 48, 112
5, 33884, Note_on_c, 0, 48, 0
5, 33884, Note_on_c, 0, 52, 0
5, 33884, Note_on_c, 0, 55, 0
5, 33888, Note_on_c, 0, 60, 112
5, 33980, Note_on_c, 0, 60, 0
5, 33984, Note_on_c, 0, 55, 112
5, 33984, Note_on_c, 0, 52, 112
5, 33984, Note_on_c, 0, 48, 112
5, 34076, Note_on_c, 0, 48, 0
5, 34076, Note_on_c, 0, 52, 0
5, 34076, Note_on_c, 0, 55, 0
5, 34080, Note_on_c, 0, 60, 112
5, 34172, Note_on_c, 0, 60, 0
5, 34176, Note_on_c, 0, 55, 112
5, 34176, Note_on_c, 0, 52, 112
5, 34176, Note_on_c, 0, 48, 112
5, 34268, Note_on_c, 0, 48, 0
5, 34268, Note_on_c, 0, 52, 0
5, 34268, Note_on_c, 0, 55, 0
5, 34272, Note_on_c, 0, 60, 112
5, 34364, Note_on_c, 0, 60, 0
5, 34368, Note_on_c, 0, 55, 112
5, 34368, Note_on_c, 0, 52, 112
5, 34368, Note_on_c, 0, 48, 112
5, 34460, Note_on_c, 0, 48, 0
5, 34460, Note_on_c, 0, 52, 0
5, 34460, Note_on_c, 0, 55, 0
5, 34464, Note_on_c, 0, 60, 112
5, 34556, Note_on_c, 0, 60, 0
5, 34560, Note_on_c, 0, 48, 112
5, 34560, Note_on_c, 0, 57, 112
5, 34560, Note_on_c, 0, 53, 112
5, 34652, Note_on_c, 0, 53, 0
5, 34652, Note_on_c, 0, 57, 0
5, 34652, Note_on_c, 0, 48, 0
5, 34656, Note_on_c, 0, 60, 112
5, 34736, Note_on_c, 0, 57, 112
5, 34748, Note_on_c, 0, 60, 0
5, 34752, Note_on_c, 0, 48, 112
5, 34752, Note_on_c, 0, 53, 112
5, 34828, Note_on_c, 0, 57, 0
5, 34844, Note_on_c, 0, 53, 0
5, 34844, Note_on_c, 0, 48, 0
5, 34848, Note_on_c, 0, 60, 112
5, 34940, Note_on_c, 0, 60, 0
5, 34944, Note_on_c, 0, 48, 112
5, 34944, Note_on_c, 0, 57, 112
5, 34944, Note_on_c, 0, 53, 112
5, 35036, Note_on_c, 0, 53, 0
5, 35036, Note_on_c, 0, 57, 0
5, 35036, Note_on_c, 0, 48, 0
5, 35040, Note_on_c, 0, 60, 112
5, 35132, Note_on_c, 0, 60, 0
5, 35136, Note_on_c, 0, 48, 112
5, 35136, Note_on_c, 0, 57, 112
5, 35136, Note_on_c, 0, 53, 112
5, 35228, Note_on_c, 0, 53, 0
5, 35228, Note_on_c, 0, 57, 0
5, 35228, Note_on_c, 0, 48, 0
5, 35232, Note_on_c, 0, 60, 112
5, 35324, Note_on_c, 0, 60, 0
5, 35328, Note_on_c, 0, 55, 112
5, 35328, Note_on_c, 0, 52, 112
5, 35328, Note_on_c, 0, 48, 112
5, 35420, Note_on_c, 0, 48, 0
5, 35420, Note_on_c, 0, 52, 0
5, 35420, Note_on_c, 0, 55, 0
5, 35424, Note_on_c, 0, 60, 112
5, 35516, Note_on_c, 0, 60, 0
5, 35520, Note_on_c, 0, 55, 112
5, 35520, Note_on_c, 0, 52, 112
5, 35520, Note_on_c, 0, 48, 112
5, 35612, Note_on_c, 0, 48, 0
5, 35612, Note_on_c, 0, 52, 0
5, 35612, Note_on_c, 0, 55, 0
5, 35616, Note_on_c, 0, 60, 112
5, 35708, Note_on_c, 0, 60, 0
5, 35712, Note_on_c, 0, 55, 112
5, 35712, Note_on_c, 0, 52, 112
5, 35712, Note_on_c, 0, 48, 112
5, 35804, Note_on_c, 0, 48, 0
5, 35804, Note_on_c, 0, 52, 0
5, 35804, Note_on_c, 0, 55, 0
5, 35808, Note_on_c, 0, 60, 112
5, 35900, Note_on_c, 0, 60, 0
5, 35904, Note_on_c, 0, 55, 112
5, 35904, Note_on_c, 0, 52, 112
5, 35904, Note_on_c, 0, 48, 112
5, 35996, Note_on_c, 0, 48, 0
5, 35996, Note_on_c, 0, 52, 0
5, 35996, Note_on_c, 0, 55, 0
5, 36000, Note_on_c, 0, 60, 112
5, 36092, Note_on_c, 0, 60, 0
5, 36096, Note_on_c, 0, 48, 112
5, 36096, Note_on_c, 0, 57, 112
5, 36096, Note_on_c, 0, 53, 112
5, 36188, Note_on_c, 0, 53, 0
5, 36188, Note_on_c, 0, 57, 0
5, 36188, Note_on_c, 0, 48, 0
5, 36192, Note_on_c, 0, 60, 112
5, 36284, Note_on_c, 0, 60, 0
5, 36288, Note_on_c, 0, 57, 112
5, 36288, Note_on_c, 0, 53, 112
5, 36288, Note_on_c, 0, 48, 112
5, 36380, Note_on_c, 0, 48, 0
5, 36380, Note_on_c, 0, 53, 0
5, 36380, Note_on_c, 0, 57, 0
5, 36384, Note_on_c, 0, 60, 112
5, 36476, Note_on_c, 0, 60, 0
5, 36480, Note_on_c, 0, 48, 112
5, 36480, Note_on_c, 0, 57, 112
5, 36480, Note_on_c, 0, 53, 112
5, 36572, Note_on_c, 0, 53, 0
5, 36572, Note_on_c, 0, 57, 0
5, 36572, Note_on_c, 0, 48, 0
5, 36576, Note_on_c, 0, 60, 112
5, 36668, Note_on_c, 0, 60, 0
5, 36672, Note_on_c, 0, 48, 112
5, 36672, Note_on_c, 0, 57, 112
5, 36672, Note_on_c, 0, 53, 112
5, 36764, Note_on_c, 0, 53, 0
5, 36764, Note_on_c, 0, 57, 0
5, 36764, Note_on_c, 0, 48, 0
5, 36768, Note_on_c, 0, 60, 112
5, 36860, Note_on_c, 0, 60, 0
5, 36864, Note_on_c, 0, 55, 112
5, 36864, Note_on_c, 0, 52, 112
5, 36864, Note_on_c, 0, 48, 112
5, 36956, Note_on_c, 0, 48, 0
5, 36956, Note_on_c, 0, 52, 0
5, 36956, Note_on_c, 0, 55, 0
5, 36960, Note_on_c, 0, 60, 112
5, 37052, Note_on_c, 0, 60, 0
5, 37056, Note_on_c, 0, 55, 112
5, 37056, Note_on_c, 0, 52, 112
5, 37056, Note_on_c, 0, 48, 112
5, 37148, Note_on_c, 0, 48, 0
5, 37148, Note_on_c, 0, 52, 0
5, 37148, Note_on_c, 0, 55, 0
5, 37152, Note_on_c, 0, 60, 112
5, 37244, Note_on_c, 0, 60, 0
5, 37248, Note_on_c, 0, 55, 112
5, 37248, Note_on_c, 0, 52, 112
5, 37248, Note_on_c, 0, 48, 112
5, 37340, Note_on_c, 0, 48, 0
5, 37340, Note_on_c, 0, 52, 0
5, 37340, Note_on_c, 0, 55, 0
5, 37344, Note_on_c, 0, 60, 112
5, 37436, Note_on_c, 0, 60, 0
5, 37440, Note_on_c, 0, 55, 112
5, 37440, Note_on_c, 0, 52, 112
5, 37440, Note_on_c, 0, 48, 112
5, 37532, Note_on_c, 0, 48, 0
5, 37532, Note_on_c, 0, 52, 0
5, 37532, Note_on_c, 0, 55, 0
5, 37536, Note_on_c, 0, 60, 112
5, 37628, Note_on_c, 0, 60, 0
5, 37632, Note_on_c, 0, 48, 112
5, 37632, Note_on_c, 0, 57, 112
5, 37632, Note_on_c, 0, 53, 112
5, 37724, Note_on_c, 0, 53, 0
5, 37724, Note_on_c, 0, 57, 0
5, 37724, Note_on_c, 0, 48, 0
5, 37728, Note_on_c, 0, 60, 112
5, 37820, Note_on_c, 0, 60, 0
5, 37824, Note_on_c, 0, 48, 112
5, 37824, Note_on_c, 0, 57, 112
5, 37824, Note_on_c, 0, 53, 112
5, 37916, Note_on_c, 0, 53, 0
5, 37916, Note_on_c, 0, 57, 0
5, 37916, Note_on_c, 0, 48, 0
5, 37920, Note_on_c, 0, 60, 112
5, 38012, Note_on_c, 0, 60, 0
5, 38016, Note_on_c, 0, 48, 112
5, 38016, Note_on_c, 0, 57, 112
5, 38016, Note_on_c, 0, 53, 112
5, 38108, Note_on_c, 0, 53, 0
5, 38108, Note_on_c, 0, 57, 0
5, 38108, Note_on_c, 0, 48, 0
5, 38112, Note_on_c, 0, 60, 112
5, 38204, Note_on_c, 0, 60, 0
5, 38208, Note_on_c, 0, 48, 112
5, 38208, Note_on_c, 0, 57, 112
5, 38208, Note_on_c, 0, 53, 112
5, 38300, Note_on_c, 0, 53, 0
5, 38300, Note_on_c, 0, 57, 0
5, 38300, Note_on_c, 0, 48, 0
5, 38304, Note_on_c, 0, 60, 112
5, 38396, Note_on_c, 0, 60, 0
5, 38400, Note_on_c, 0, 48, 112
5, 38492, Note_on_c, 0, 48, 0
5, 38496, Note_on_c, 0, 67, 112
5, 38588, Note_on_c, 0, 67, 0
5, 38592, Note_on_c, 0, 64, 112
5, 38684, Note_on_c, 0, 64, 0
5, 38688, Note_on_c, 0, 67, 112
5, 38780, Note_on_c, 0, 67, 0
5, 38784, Note_on_c, 0, 64, 112
5, 38876, Note_on_c, 0, 64, 0
5, 38880, Note_on_c, 0, 67, 112
5, 38972, Note_on_c, 0, 67, 0
5, 38976, Note_on_c, 0, 60, 112
5, 39068, Note_on_c, 0, 60, 0
5, 39072, Note_on_c, 0, 67, 112
5, 39164, Note_on_c, 0, 67, 0
5, 39168, Note_on_c, 0, 55, 112
5, 39260, Note_on_c, 0, 55, 0
5, 39264, Note_on_c, 0, 67, 112
5, 39356, Note_on_c, 0, 67, 0
5, 39360, Note_on_c, 0, 59, 112
5, 39360, Note_on_c, 0, 62, 112
5, 39452, Note_on_c, 0, 62, 0
5, 39452, Note_on_c, 0, 59, 0
5, 39456, Note_on_c, 0, 67, 112
5, 39548, Note_on_c, 0, 67, 0
5, 39552, Note_on_c, 0, 62, 112
5, 39552, Note_on_c, 0, 59, 112
5, 39644, Note_on_c, 0, 59, 0
5, 39644, Note_on_c, 0, 62, 0
5, 39648, Note_on_c, 0, 67, 112
5, 39740, Note_on_c, 0, 67, 0
5, 39744, Note_on_c, 0, 55, 112
5, 39836, Note_on_c, 0, 55, 0
5, 39840, Note_on_c, 0, 67, 112
5, 39932, Note_on_c, 0, 67, 0
5, 39936, Note_on_c, 0, 57, 112
5, 40028, Note_on_c, 0, 57, 0
5, 40032, Note_on_c, 0, 64, 112
5, 40124, Note_on_c, 0, 64, 0
5, 40128, Note_on_c, 0, 60, 112
5, 40220, Note_on_c, 0, 60, 0
5, 40224, Note_on_c, 0, 64, 112
5, 40316, Note_on_c, 0, 64, 0
5, 40320, Note_on_c, 0, 60, 112
5, 40412, Note_on_c, 0, 60, 0
5, 40416, Note_on_c, 0, 64, 112
5, 40508, Note_on_c, 0, 64, 0
5, 40512, Note_on_c, 0, 57, 112
5, 40604, Note_on_c, 0, 57, 0
5, 40608, Note_on_c, 0, 64, 112
5, 40700, Note_on_c, 0, 64, 0
5, 40704, Note_on_c, 0, 53, 112
5, 40796, Note_on_c, 0, 53, 0
5, 40800, Note_on_c, 0, 65, 112
5, 40892, Note_on_c, 0, 65, 0
5, 40896, Note_on_c, 0, 62, 112
5, 40988, Note_on_c, 0, 62, 0
5, 40992, Note_on_c, 0, 65, 112
5, 41084, Note_on_c, 0, 65, 0
5, 41088, Note_on_c, 0, 62, 112
5, 41180, Note_on_c, 0, 62, 0
5, 41184, Note_on_c, 0, 65, 112
5, 41276, Note_on_c, 0, 65, 0
5, 41280, Note_on_c, 0, 53, 112
5, 41372, Note_on_c, 0, 53, 0
5, 41376, Note_on_c, 0, 65, 112
5, 41468, Note_on_c, 0, 65, 0
5, 41472, Note_on_c, 0, 55, 112
5, 41564, Note_on_c, 0, 55, 0
5, 41568, Note_on_c, 0, 64, 112
5, 41660, Note_on_c, 0, 64, 0
5, 41664, Note_on_c, 0, 60, 112
5, 41756, Note_on_c, 0, 60, 0
5, 41760, Note_on_c, 0, 64, 112
5, 41852, Note_on_c, 0, 64, 0
5, 41856, Note_on_c, 0, 60, 112
5, 41948, Note_on_c, 0, 60, 0
5, 41952, Note_on_c, 0, 64, 112
5, 42044, Note_on_c, 0, 64, 0
5, 42048, Note_on_c, 0, 55, 112
5, 42140, Note_on_c, 0, 55, 0
5, 42144, Note_on_c, 0, 64, 112
5, 42236, Note_on_c, 0, 64, 0
5, 42240, Note_on_c, 0, 43, 112
5, 42332, Note_on_c, 0, 43, 0
5, 42336, Note_on_c, 0, 59, 112
5, 42428, Note_on_c, 0, 59, 0
5, 42432, Note_on_c, 0, 53, 112
5, 42432, Note_on_c, 0, 50, 112
5, 42524, Note_on_c, 0, 50, 0
5, 42524, Note_on_c, 0, 53, 0
5, 42528, Note_on_c, 0, 59, 112
5, 42620, Note_on_c, 0, 59, 0
5, 42624, Note_on_c, 0, 53, 112
5, 42624, Note_on_c, 0, 50, 112
5, 42716, Note_on_c, 0, 50, 0
5, 42716, Note_on_c, 0, 53, 0
5, 42720, Note_on_c, 0, 59, 112
5, 42812, Note_on_c, 0, 59, 0
5, 42816, Note_on_c, 0, 43, 112
5, 42908, Note_on_c, 0, 43, 0
5, 42912, Note_on_c, 0, 59, 112
5, 43004, Note_on_c, 0, 59, 0
5, 43008, Note_on_c, 0, 60, 112
5, 43008, Note_on_c, 0, 52, 112
5, 43008, Note_on_c, 0, 48, 112
5, 43196, Note_on_c, 0, 48, 0
5, 43196, Note_on_c, 0, 52, 0
5, 43196, Note_on_c, 0, 60, 0
5, 43200, Note_on_c, 0, 60, 89
5, 43388, Note_on_c, 0, 60, 0
5, 43392, Note_on_c, 0, 60, 89
5, 43580, Note_on_c, 0, 60, 0
5, 43584, Note_on_c, 0, 60, 89
5, 43772, Note_on_c, 0, 60, 0
5, 48384, Note_on_c, 0, 55, 112
5, 48384, Note_on_c, 0, 43, 112
5, 48572, Note_on_c, 0, 43, 0
5, 48572, Note_on_c, 0, 55, 0
5, 48576, Note_on_c, 0, 62, 112
5, 48576, Note_on_c, 0, 65, 112
5, 48764, Note_on_c, 0, 65, 0
5, 48764, Note_on_c, 0, 62, 0
5, 48768, Note_on_c, 0, 62, 112
5, 48768, Note_on_c, 0, 65, 112
5, 48956, Note_on_c, 0, 65, 0
5, 48956, Note_on_c, 0, 62, 0
5, 48960, Note_on_c, 0, 62, 112
5, 48960, Note_on_c, 0, 65, 112
5, 49148, Note_on_c, 0, 65, 0
5, 49148, Note_on_c, 0, 62, 0
5, 49152, Note_on_c, 0, 60, 112
5, 49152, Note_on_c, 0, 48, 112
5, 49340, Note_on_c, 0, 48, 0
5, 49340, Note_on_c, 0, 60, 0
5, 49344, Note_on_c, 0, 64, 112
5, 49344, Note_on_c, 0, 60, 112
5, 49532, Note_on_c, 0, 60, 0
5, 49532, Note_on_c, 0, 64, 0
5, 49536, Note_on_c, 0, 64, 112
5, 49536, Note_on_c, 0, 60, 112
5, 49724, Note_on_c, 0, 60, 0
5, 49724, Note_on_c, 0, 64, 0
5, 49728, Note_on_c, 0, 64, 112
5, 49728, Note_on_c, 0, 60, 112
5, 49916, Note_on_c, 0, 60, 0
5, 49916, Note_on_c, 0, 64, 0
5, 49920, Note_on_c, 0, 53, 112
5, 49920, Note_on_c, 0, 41, 112
5, 50108, Note_on_c, 0, 41, 0
5, 50108, Note_on_c, 0, 53, 0
5, 50112, Note_on_c, 0, 53, 112
5, 50112, Note_on_c, 0, 62, 112
5, 50300, Note_on_c, 0, 62, 0
5, 50300, Note_on_c, 0, 53, 0
5, 50304, Note_on_c, 0, 53, 112
5, 50304, Note_on_c, 0, 62, 112
5, 50492, Note_on_c, 0, 62, 0
5, 50492, Note_on_c, 0, 53, 0
5, 50496, Note_on_c, 0, 53, 112
5, 50496, Note_on_c, 0, 62, 112
5, 50684, Note_on_c, 0, 62, 0
5, 50684, Note_on_c, 0, 53, 0
5, 50688, Note_on_c, 0, 55, 112
5, 50688, Note_on_c, 0, 43, 112
5, 50876, Note_on_c, 0, 43, 0
5, 50876, Note_on_c, 0, 55, 0
5, 50880, Note_on_c, 0, 60, 112
5, 50880, Note_on_c, 0, 52, 112
5, 51068, Note_on_c, 0, 52, 0
5, 51068, Note_on_c, 0, 60, 0
5, 51072, Note_on_c, 0, 60, 112
5, 51072, Note_on_c, 0, 52, 112
5, 51260, Note_on_c, 0, 52, 0
5, 51260, Note_on_c, 0, 60, 0
5, 51264, Note_on_c, 0, 60, 112
5, 51264, Note_on_c, 0, 52, 112
5, 51452, Note_on_c, 0, 52, 0
5, 51452, Note_on_c, 0, 60, 0
5, 51456, Note_on_c, 0, 55, 112
5, 51456, Note_on_c, 0, 43, 112
5, 51644, Note_on_c, 0, 43, 0
5, 51644, Note_on_c, 0, 55, 0
5, 51648, Note_on_c, 0, 59, 112
5, 51648, Note_on_c, 0, 50, 112
5, 51836, Note_on_c, 0, 50, 0
5, 51836, Note_on_c, 0, 59, 0
5, 51840, Note_on_c, 0, 59, 112
5, 51840, Note_on_c, 0, 50, 112
5, 52028, Note_on_c, 0, 50, 0
5, 52028, Note_on_c, 0, 59, 0
5, 52032, Note_on_c, 0, 59, 112
5, 52032, Note_on_c, 0, 50, 112
5, 52220, Note_on_c, 0, 50, 0
5, 52220, Note_on_c, 0, 59, 0
5, 52224, Note_on_c, 0, 60, 112
5, 52224, Note_on_c, 0, 48, 112
5, 52604, Note_on_c, 0, 48, 0
5, 52604, Note_on_c, 0, 60, 0
5, 52608, Note_on_c, 0, 48, 112
5, 52608, Note_on_c, 0, 60, 112
5, 52608, Note_on_c, 0, 48, 112
5, 52700, Note_on_c, 0, 48, 0
5, 52704, Note_on_c, 0, 50, 112
5, 52796, Note_on_c, 0, 50, 0
5, 52800, Note_on_c, 0, 52, 112
5, 52892, Note_on_c, 0, 52, 0
5, 52896, Note_on_c, 0, 53, 112
5, 52988, Note_on_c, 0, 53, 0
5, 52988, Note_on_c, 0, 48, 0
5, 52988, Note_on_c, 0, 60, 0
5, 52992, Note_on_c, 0, 55, 112
5, 52992, Note_on_c, 0, 43, 112
5, 53564, Note_on_c, 0, 43, 0
5, 53564, Note_on_c, 0, 55, 0
5, 53568, Note_on_c, 0, 57, 112
5, 53660, Note_on_c, 0, 57, 0
5, 53664, Note_on_c, 0, 59, 112
5, 53756, Note_on_c, 0, 59, 0
5, 53760, Note_on_c, 0, 60, 112
5, 53760, Note_on_c, 0, 48, 112
5, 54332, Note_on_c, 0, 48, 0
5, 54332, Note_on_c, 0, 60, 0
5, 54336, Note_on_c, 0, 59, 112
5, 54428, Note_on_c, 0, 59, 0
5, 54432, Note_on_c, 0, 57, 112
5, 54524, Note_on_c, 0, 57, 0
5, 54528, Note_on_c, 0, 55, 112
5, 54528, Note_on_c, 0, 43, 112
5, 54908, Note_on_c, 0, 43, 0
5, 54908, Note_on_c, 0, 55, 0
5, 54912, Note_on_c, 0, 55, 112
5, 54912, Note_on_c, 0, 55, 112
5, 54912, Note_on_c, 0, 43, 112
5, 54912, Note_on_c, 0, 55, 112
5, 55004, Note_on_c, 0, 55, 0
5, 55008, Note_on_c, 0, 53, 112
5, 55100, Note_on_c, 0, 53, 0
5, 55104, Note_on_c, 0, 52, 112
5, 55196, Note_on_c, 0, 52, 0
5, 55200, Note_on_c, 0, 50, 112
5, 55292, Note_on_c, 0, 50, 0
5, 55292, Note_on_c, 0, 55, 0
5, 55292, Note_on_c, 0, 43, 0
5, 55292, Note_on_c, 0, 55, 0
5, 55296, Note_on_c, 0, 48, 112
5, 55296, Note_on_c, 0, 36, 112
5, 55676, Note_on_c, 0, 36, 0
5, 55676, Note_on_c, 0, 48, 0
5, 55680, Note_on_c, 0, 48, 112
5, 55680, Note_on_c, 0, 36, 112
5, 55868, Note_on_c, 0, 36, 0
5, 55868, Note_on_c, 0, 48, 0
5, 55968, Note_on_c, 0, 48, 112
5, 55968, Note_on_c, 0, 36, 112
5, 56060, Note_on_c, 0, 36, 0
5, 56060, Note_on_c, 0, 48, 0
5, 56064, Note_on_c, 0, 48, 112
5, 56064, Note_on_c, 0, 36, 112
5, 56444, Note_on_c, 0, 36, 0
5, 56444, Note_on_c, 0, 48, 0
5, 58368, Note_on_c, 0, 60, 89
5, 58368, Note_on_c, 0, 48, 89
5, 59132, Note_on_c, 0, 48, 0
5, 59132, Note_on_c, 0, 60, 0
5, 59136, Note_on_c, 0, 64, 89
5, 59136, Note_on_c, 0, 52, 89
5, 59900, Note_on_c, 0, 52, 0
5, 59900, Note_on_c, 0, 64, 0
5, 59904, Note_on_c, 0, 67, 89
5, 59904, Note_on_c, 0, 55, 89
5, 60284, Note_on_c, 0, 55, 0
5, 60284, Note_on_c, 0, 67, 0
5, 61440, Note_on_c, 0, 60, 89
5, 61440, Note_on_c, 0, 48, 89
5, 62204, Note_on_c, 0, 48, 0
5, 62204, Note_on_c, 0, 60, 0
5, 62208, Note_on_c, 0, 64, 89
5, 62208, Note_on_c, 0, 52, 89
5, 62972, Note_on_c, 0, 52, 0
5, 62972, Note_on_c, 0, 64, 0
5, 62976, Note_on_c, 0, 67, 89
5, 62976, Note_on_c, 0, 55, 89
5, 63356, Note_on_c, 0, 55, 0
5, 63356, Note_on_c, 0, 67, 0
5, 69312, Note_on_c, 0, 55, 89
5, 69404, Note_on_c, 0, 55, 0
5, 69504, Note_on_c, 0, 57, 89
5, 69596, Note_on_c, 0, 57, 0
5, 69696, Note_on_c, 0, 59, 89
5, 69788, Note_on_c, 0, 59, 0
5, 69888, Note_on_c, 0, 60, 89
5, 69980, Note_on_c, 0, 60, 0
5, 70080, Note_on_c, 0, 62, 89
5, 70172, Note_on_c, 0, 62, 0
5, 70272, Note_on_c, 0, 63, 89
5, 70364, Note_on_c, 0, 63, 0
5, 70464, Note_on_c, 0, 64, 89
5, 70556, Note_on_c, 0, 64, 0
5, 70656, Note_on_c, 0, 65, 89
5, 70656, Note_on_c, 0, 60, 89
5, 70844, Note_on_c, 0, 65, 0
5, 70848, Note_on_c, 0, 64, 89
5, 71036, Note_on_c, 0, 64, 0
5, 71036, Note_on_c, 0, 60, 0
5, 71040, Note_on_c, 0, 62, 89
5, 71132, Note_on_c, 0, 62, 0
5, 71232, Note_on_c, 0, 60, 89
5, 71324, Note_on_c, 0, 60, 0
5, 71424, Note_on_c, 0, 59, 89
5, 71424, Note_on_c, 0, 55, 89
5, 71568, Note_on_c, 0, 60, 89
5, 71612, Note_on_c, 0, 60, 0
5, 71612, Note_on_c, 0, 59, 0
5, 71616, Note_on_c, 0, 59, 89
5, 71708, Note_on_c, 0, 59, 0
5, 71712, Note_on_c, 0, 55, 89
5, 71804, Note_on_c, 0, 55, 0
5, 71804, Note_on_c, 0, 55, 0
5, 71808, Note_on_c, 0, 59, 89
5, 71996, Note_on_c, 0, 59, 0
5, 72000, Note_on_c, 0, 55, 89
5, 72092, Note_on_c, 0, 55, 0
5, 72192, Note_on_c, 0, 60, 89
5, 72192, Note_on_c, 0, 48, 89
5, 72380, Note_on_c, 0, 48, 0
5, 72380, Note_on_c, 0, 60, 0
5, 72384, Note_on_c, 0, 55, 89
5, 72476, Note_on_c, 0, 55, 0
5, 72576, Note_on_c, 0, 57, 89
5, 72668, Note_on_c, 0, 57, 0
5, 72768, Note_on_c, 0, 59, 89
5, 72860, Note_on_c, 0, 59, 0
5, 72960, Note_on_c, 0, 60, 89
5, 73052, Note_on_c, 0, 60, 0
5, 73152, Note_on_c, 0, 62, 89
5, 73244, Note_on_c, 0, 62, 0
5, 73344, Note_on_c, 0, 63, 89
5, 73436, Note_on_c, 0, 63, 0
5, 73536, Note_on_c, 0, 64, 89
5, 73628, Note_on_c, 0, 64, 0
5, 73728, Note_on_c, 0, 65, 89
5, 73728, Note_on_c, 0, 60, 89
5, 73916, Note_on_c, 0, 65, 0
5, 73920, Note_on_c, 0, 64, 89
5, 74108, Note_on_c, 0, 64, 0
5, 74108, Note_on_c, 0, 60, 0
5, 74112, Note_on_c, 0, 62, 89
5, 74204, Note_on_c, 0, 62, 0
5, 74304, Note_on_c, 0, 60, 89
5, 74396, Note_on_c, 0, 60, 0
5, 74496, Note_on_c, 0, 59, 89
5, 74640, Note_on_c, 0, 60, 89
5, 74684, Note_on_c, 0, 60, 0
5, 74684, Note_on_c, 0, 59, 0
5, 74688, Note_on_c, 0, 59, 89
5, 74780, Note_on_c, 0, 59, 0
5, 74784, Note_on_c, 0, 57, 89
5, 74876, Note_on_c, 0, 57, 0
5, 74880, Note_on_c, 0, 59, 89
5, 75068, Note_on_c, 0, 59, 0
5, 75072, Note_on_c, 0, 55, 89
5, 75164, Note_on_c, 0, 55, 0
5, 75264, Note_on_c, 0, 60, 89
5, 75264, Note_on_c, 0, 48, 89
5, 75644, Note_on_c, 0, 48, 0
5, 75644, Note_on_c, 0, 60, 0
5, 76800, Note_on_c, 0, 60, 83
5, 76800, Note_on_c, 0, 48, 83
5, 78332, Note_on_c, 0, 48, 0
5, 78332, Note_on_c, 0, 60, 0
5, 78336, Note_on_c, 0, 59, 83
5, 78336, Note_on_c, 0, 47, 83
5, 79868, Note_on_c, 0, 47, 0
5, 79868, Note_on_c, 0, 59, 0
5, 79872, Note_on_c, 0, 52, 83
5, 79872, Note_on_c, 0, 40, 83
5, 82172, Note_on_c, 0, 40, 0
5, 82172, Note_on_c, 0, 52, 0
5, 82176, Note_on_c, 0, 51, 83
5, 82176, Note_on_c, 0, 39, 83
5, 82940, Note_on_c, 0, 39, 0
5, 82940, Note_on_c, 0, 51, 0
5, 82944, Note_on_c, 0, 50, 83
5, 82944, Note_on_c, 0, 38, 83
5, 86012, Note_on_c, 0, 38, 0
5, 86012, Note_on_c, 0, 50, 0
5, 86016, Note_on_c, 0, 51, 83
5, 86016, Note_on_c, 0, 39, 83
5, 86780, Note_on_c, 0, 39, 0
5, 86780, Note_on_c, 0, 51, 0
5, 86784, Note_on_c, 0, 50, 83
5, 86784, Note_on_c, 0, 38, 83
5, 87548, Note_on_c, 0, 38, 0
5, 87548, Note_on_c, 0, 50, 0
5, 87552, Note_on_c, 0, 49, 83
5, 87552, Note_on_c, 0, 37, 83
5, 88316, Note_on_c, 0, 37, 0
5, 88316, Note_on_c, 0, 49, 0
5, 88320, Note_on_c, 0, 50, 83
5, 88320, Note_on_c, 0, 38, 83
5, 89084, Note_on_c, 0, 38, 0
5, 89084, Note_on_c, 0, 50, 0
5, 89088, Note_on_c, 0, 51, 83
5, 89088, Note_on_c, 0, 39, 83
5, 91004, Note_on_c, 0, 39, 0
5, 91004, Note_on_c, 0, 51, 0
5, 92160, Note_on_c, 0, 62, 83
5, 95612, Note_on_c, 0, 62, 0
5, 96768, Note_on_c, 0, 55, 83
5, 96768, Note_on_c, 0, 55, 83
5, 96860, Note_on_c, 0, 55, 0
5, 96960, Note_on_c, 0, 59, 89
5, 97052, Note_on_c, 0, 59, 0
5, 97152, Note_on_c, 0, 62, 89
5, 97244, Note_on_c, 0, 62, 0
5, 97344, Note_on_c, 0, 59, 89
5, 97436, Note_on_c, 0, 59, 0
5, 97536, Note_on_c, 0, 55, 89
5, 97628, Note_on_c, 0, 55, 0
5, 97728, Note_on_c, 0, 59, 89
5, 97820, Note_on_c, 0, 59, 0
5, 97920, Note_on_c, 0, 62, 89
5, 98012, Note_on_c, 0, 62, 0
5, 98112, Note_on_c, 0, 59, 89
5, 98204, Note_on_c, 0, 59, 0
5, 98304, Note_on_c, 0, 55, 89
5, 98396, Note_on_c, 0, 55, 0
5, 98496, Note_on_c, 0, 60, 89
5, 98588, Note_on_c, 0, 60, 0
5, 98688, Note_on_c, 0, 64, 89
5, 98780, Note_on_c, 0, 64, 0
5, 98880, Note_on_c, 0, 60, 89
5, 98972, Note_on_c, 0, 60, 0
5, 99072, Note_on_c, 0, 55, 89
5, 99164, Note_on_c, 0, 55, 0
5, 99264, Note_on_c, 0, 57, 89
5, 99356, Note_on_c, 0, 57, 0
5, 99456, Note_on_c, 0, 60, 89
5, 99548, Note_on_c, 0, 60, 0
5, 99648, Note_on_c, 0, 57, 89
5, 99740, Note_on_c, 0, 57, 0
5, 99840, Note_on_c, 0, 55, 89
5, 99932, Note_on_c, 0, 55, 0
5, 100032, Note_on_c, 0, 59, 89
5, 100124, Note_on_c, 0, 59, 0
5, 100220, Note_on_c, 0, 55, 0
5, 100224, Note_on_c, 0, 60, 89
5, 100316, Note_on_c, 0, 60, 0
5, 100416, Note_on_c, 0, 59, 89
5, 100508, Note_on_c, 0, 59, 0
5, 100608, Note_on_c, 0, 60, 89
5, 100700, Note_on_c, 0, 60, 0
5, 100800, Note_on_c, 0, 62, 89
5, 100892, Note_on_c, 0, 62, 0
5, 100992, Note_on_c, 0, 59, 89
5, 101084, Note_on_c, 0, 59, 0
5, 101184, Note_on_c, 0, 62, 89
5, 101276, Note_on_c, 0, 62, 0
5, 101376, Note_on_c, 0, 57, 89
5, 101468, Note_on_c, 0, 57, 0
5, 101568, Note_on_c, 0, 62, 89
5, 101660, Note_on_c, 0, 62, 0
5, 101760, Note_on_c, 0, 55, 89
5, 101852, Note_on_c, 0, 55, 0
5, 101952, Note_on_c, 0, 62, 89
5, 102144, Note_on_c, 0, 54, 89
5, 102332, Note_on_c, 0, 54, 0
5, 102528, Note_on_c, 0, 55, 89
5, 102716, Note_on_c, 0, 55, 0
5, 102912, Note_on_c, 0, 50, 89
5, 103292, Note_on_c, 0, 50, 0
5, 103292, Note_on_c, 0, 62, 0
5, 103488, Note_on_c, 0, 62, 89
5, 103488, Note_on_c, 0, 50, 89
5, 103676, Note_on_c, 0, 50, 0
5, 103676, Note_on_c, 0, 62, 0
5, 103680, Note_on_c, 0, 61, 89
5, 103680, Note_on_c, 0, 49, 89
5, 103868, Note_on_c, 0, 49, 0
5, 103868, Note_on_c, 0, 61, 0
5, 103872, Note_on_c, 0, 62, 89
5, 103872, Note_on_c, 0, 50, 89
5, 104048, Note_on_c, 0, 48, 89
5, 104060, Note_on_c, 0, 50, 0
5, 104060, Note_on_c, 0, 62, 0
5, 104064, Note_on_c, 0, 60, 89
5, 104236, Note_on_c, 0, 48, 0
5, 104252, Note_on_c, 0, 60, 0
5, 104256, Note_on_c, 0, 57, 89
5, 104256, Note_on_c, 0, 45, 89
5, 104444, Note_on_c, 0, 45, 0
5, 104444, Note_on_c, 0, 57, 0
5, 104448, Note_on_c, 0, 55, 83
5, 104448, Note_on_c, 0, 43, 83
5, 107900, Note_on_c, 0, 43, 0
5, 107900, Note_on_c, 0, 55, 0
5, 107904, Note_on_c, 0, 59, 83
5, 107904, Note_on_c, 0, 47, 83
5, 108284, Note_on_c, 0, 47, 0
5, 108284, Note_on_c, 0, 59, 0
5, 108288, Note_on_c, 0, 60, 83
5, 108288, Note_on_c, 0, 48, 83
5, 108668, Note_on_c, 0, 48, 0
5, 108668, Note_on_c, 0, 60, 0
5, 108672, Note_on_c, 0, 59, 83
5, 108672, Note_on_c, 0, 47, 83
5, 109052, Note_on_c, 0, 47, 0
5, 109052, Note_on_c, 0, 59, 0
5, 109056, Note_on_c, 0, 60, 83
5, 109056, Note_on_c, 0, 48, 83
5, 109436, Note_on_c, 0, 48, 0
5, 109436, Note_on_c, 0, 60, 0
5, 109440, Note_on_c, 0, 59, 83
5, 109440, Note_on_c, 0, 47, 83
5, 109820, Note_on_c, 0, 47, 0
5, 109820, Note_on_c, 0, 59, 0
5, 109824, Note_on_c, 0, 57, 83
5, 109824, Note_on_c, 0, 45, 83
5, 110204, Note_on_c, 0, 45, 0
5, 110204, Note_on_c, 0, 57, 0
5, 110208, Note_on_c, 0, 55, 83
5, 110208, Note_on_c, 0, 43, 83
5, 110588, Note_on_c, 0, 43, 0
5, 110588, Note_on_c, 0, 55, 0
5, 110592, Note_on_c, 0, 54, 83
5, 110592, Note_on_c, 0, 42, 83
5, 110972, Note_on_c, 0, 42, 0
5, 110972, Note_on_c, 0, 54, 0
5, 111360, Note_on_c, 0, 55, 83
5, 111360, Note_on_c, 0, 43, 83
5, 111740, Note_on_c, 0, 43, 0
5, 111740, Note_on_c, 0, 55, 0
5, 112128, Note_on_c, 0, 54, 83
5, 112128, Note_on_c, 0, 42, 83
5, 112508, Note_on_c, 0, 42, 0
5, 112508, Note_on_c, 0, 54, 0
5, 112896, Note_on_c, 0, 55, 83
5, 112896, Note_on_c, 0, 43, 83
5, 113084, Note_on_c, 0, 43, 0
5, 113084, Note_on_c, 0, 55, 0
5, 114048, Note_on_c, 0, 59, 83
5, 114048, Note_on_c, 0, 47, 83
5, 114428, Note_on_c, 0, 47, 0
5, 114428, Note_on_c, 0, 59, 0
5, 114816, Note_on_c, 0, 60, 83
5, 114816, Note_on_c, 0, 48, 83
5, 115196, Note_on_c, 0, 48, 0
5, 115196, Note_on_c, 0, 60, 0
5, 115584, Note_on_c, 0, 57, 83
5, 115584, Note_on_c, 0, 45, 83
5, 115964, Note_on_c, 0, 45, 0
5, 115964, Note_on_c, 0, 57, 0
5, 116352, Note_on_c, 0, 59, 83
5, 116352, Note_on_c, 0, 47, 83
5, 116732, Note_on_c, 0, 47, 0
5, 116732, Note_on_c, 0, 59, 0
5, 117120, Note_on_c, 0, 56, 83
5, 117120, Note_on_c, 0, 44, 83
5, 117308, Note_on_c, 0, 44, 0
5, 117308, Note_on_c, 0, 56, 0
5, 117888, Note_on_c, 0, 57, 83
5, 117888, Note_on_c, 0, 45, 83
5, 118268, Note_on_c, 0, 45, 0
5, 118268, Note_on_c, 0, 57, 0
5, 118656, Note_on_c, 0, 54, 83
5, 118656, Note_on_c, 0, 42, 83
5, 119036, Note_on_c, 0, 42, 0
5, 119036, Note_on_c, 0, 54, 0
5, 119424, Note_on_c, 0, 51, 83
5, 119424, Note_on_c, 0, 39, 83
5, 119804, Note_on_c, 0, 39, 0
5, 119804, Note_on_c, 0, 51, 0
5, 120192, Note_on_c, 0, 52, 83
5, 120192, Note_on_c, 0, 40, 83
5, 120572, Note_on_c, 0, 40, 0
5, 120572, Note_on_c, 0, 52, 0
5, 120576, Note_on_c, 0, 48, 83
5, 120576, Note_on_c, 0, 36, 83
5, 123260, Note_on_c, 0, 36, 0
5, 123260, Note_on_c, 0, 48, 0
5, 125184, Note_on_c, 0, 49, 83
5, 125184, Note_on_c, 0, 37, 83
5, 126716, Note_on_c, 0, 37, 0
5, 126716, Note_on_c, 0, 49, 0
5, 126720, Note_on_c, 0, 48, 83
5, 126720, Note_on_c, 0, 36, 83
5, 127868, Note_on_c, 0, 36, 0
5, 127868, Note_on_c, 0, 48, 0
5, 128256, Note_on_c, 0, 47, 83
5, 128256, Note_on_c, 0, 35, 83
5, 128636, Note_on_c, 0, 35, 0
5, 128636, Note_on_c, 0, 47, 0
5, 128640, Note_on_c, 0, 48, 83
5, 128640, Note_on_c, 0, 36, 83
5, 129020, Note_on_c, 0, 36, 0
5, 129020, Note_on_c, 0, 48, 0
5, 129024, Note_on_c, 0, 50, 83
5, 129024, Note_on_c, 0, 38, 83
5, 129404, Note_on_c, 0, 38, 0
5, 129404, Note_on_c, 0, 50, 0
5, 129408, Note_on_c, 0, 50, 83
5, 129408, Note_on_c, 0, 38, 83
5, 129788, Note_on_c, 0, 38, 0
5, 129788, Note_on_c, 0, 50, 0
5, 129792, Note_on_c, 0, 43, 83
5, 129792, Note_on_c, 0, 31, 83
5, 130172, Note_on_c, 0, 31, 0
5, 130172, Note_on_c, 0, 43, 0
5, 136704, Note_on_c, 0, 61, 83
5, 136704, Note_on_c, 0, 49, 83
5, 137084, Note_on_c, 0, 49, 0
5, 137084, Note_on_c, 0, 61, 0
5, 137088, Note_on_c, 0, 60, 83
5, 137088, Note_on_c, 0, 48, 83
5, 137276, Note_on_c, 0, 48, 0
5, 137276, Note_on_c, 0, 60, 0
5, 137472, Note_on_c, 0, 59, 83
5, 137472, Note_on_c, 0, 47, 83
5, 138044, Note_on_c, 0, 47, 0
5, 138044, Note_on_c, 0, 59, 0
5, 138240, Note_on_c, 0, 61, 83
5, 138240, Note_on_c, 0, 49, 83
5, 138620, Note_on_c, 0, 49, 0
5, 138620, Note_on_c, 0, 61, 0
5, 138624, Note_on_c, 0, 60, 83
5, 138624, Note_on_c, 0, 48, 83
5, 138812, Note_on_c, 0, 48, 0
5, 138812, Note_on_c, 0, 60, 0
5, 139008, Note_on_c, 0, 47, 83
5, 139008, Note_on_c, 0, 59, 83
5, 139580, Note_on_c, 0, 59, 0
5, 139580, Note_on_c, 0, 47, 0
5, 139776, Note_on_c, 0, 61, 83
5, 139776, Note_on_c, 0, 49, 83
5, 140156, Note_on_c, 0, 49, 0
5, 140156, Note_on_c, 0, 61, 0
5, 140160, Note_on_c, 0, 60, 83
5, 140160, Note_on_c, 0, 48, 83
5, 140348, Note_on_c, 0, 48, 0
5, 140348, Note_on_c, 0, 60, 0
5, 140544, Note_on_c, 0, 59, 83
5, 140544, Note_on_c, 0, 47, 83
5, 140924, Note_on_c, 0, 47, 0
5, 140924, Note_on_c, 0, 59, 0
5, 140928, Note_on_c, 0, 60, 83
5, 140928, Note_on_c, 0, 48, 83
5, 141308, Note_on_c, 0, 48, 0
5, 141308, Note_on_c, 0, 60, 0
5, 141312, Note_on_c, 0, 62, 83
5, 141312, Note_on_c, 0, 50, 83
5, 141692, Note_on_c, 0, 62, 0
5, 141696, Note_on_c, 0, 50, 83
5, 142076, Note_on_c, 0, 50, 0
5, 142076, Note_on_c, 0, 50, 0
5, 142080, Note_on_c, 0, 55, 83
5, 142080, Note_on_c, 0, 62, 83
5, 143036, Note_on_c, 0, 62, 0
5, 143036, Note_on_c, 0, 55, 0
5, 143040, Note_on_c, 0, 62, 83
5, 143040, Note_on_c, 0, 55, 83
5, 143228, Note_on_c, 0, 55, 0
5, 143228, Note_on_c, 0, 62, 0
5, 143232, Note_on_c, 0, 62, 83
5, 143232, Note_on_c, 0, 55, 83
5, 143420, Note_on_c, 0, 55, 0
5, 143420, Note_on_c, 0, 62, 0
5, 143424, Note_on_c, 0, 62, 83
5, 143424, Note_on_c, 0, 55, 83
5, 143612, Note_on_c, 0, 55, 0
5, 143612, Note_on_c, 0, 62, 0
5, 143616, Note_on_c, 0, 62, 83
5, 143616, Note_on_c, 0, 55, 83
5, 144572, Note_on_c, 0, 55, 0
5, 144572, Note_on_c, 0, 62, 0
5, 144576, Note_on_c, 0, 62, 83
5, 144576, Note_on_c, 0, 55, 83
5, 144764, Note_on_c, 0, 55, 0
5, 144764, Note_on_c, 0, 62, 0
5, 144768, Note_on_c, 0, 62, 83
5, 144768, Note_on_c, 0, 55, 83
5, 144956, Note_on_c, 0, 55, 0
5, 144956, Note_on_c, 0, 62, 0
5, 144960, Note_on_c, 0, 62, 83
5, 144960, Note_on_c, 0, 55, 83
5, 145148, Note_on_c, 0, 55, 0
5, 145148, Note_on_c, 0, 62, 0
5, 145152, Note_on_c, 0, 62, 84
5, 145152, Note_on_c, 0, 55, 84
5, 145916, Note_on_c, 0, 62, 0
5, 145920, Note_on_c, 0, 60, 92
5, 146684, Note_on_c, 0, 60, 0
5, 146688, Note_on_c, 0, 59, 100
5, 147452, Note_on_c, 0, 59, 0
5, 147456, Note_on_c, 0, 60, 105
5, 148220, Note_on_c, 0, 60, 0
5, 148220, Note_on_c, 0, 55, 0
5, 148224, Note_on_c, 0, 43, 112
5, 148988, Note_on_c, 0, 43, 0
5, 155904, Note_on_c, 0, 60, 83
5, 155904, Note_on_c, 0, 48, 83
5, 156284, Note_on_c, 0, 48, 0
5, 156284, Note_on_c, 0, 60, 0
5, 156672, Note_on_c, 0, 55, 83
5, 156672, Note_on_c, 0, 43, 83
5, 157052, Note_on_c, 0, 43, 0
5, 157052, Note_on_c, 0, 55, 0
5, 157440, Note_on_c, 0, 48, 83
5, 157440, Note_on_c, 0, 36, 83
5, 157820, Note_on_c, 0, 36, 0
5, 157820, Note_on_c, 0, 48, 0
5, 158976, Note_on_c, 0, 60, 83
5, 158976, Note_on_c, 0, 48, 83
5, 159356, Note_on_c, 0, 48, 0
5, 159356, Note_on_c, 0, 60, 0
5, 159744, Note_on_c, 0, 55, 83
5, 159744, Note_on_c, 0, 43, 83
5, 160124, Note_on_c, 0, 43, 0
5, 160124, Note_on_c, 0, 55, 0
5, 160512, Note_on_c, 0, 48, 83
5, 160512, Note_on_c, 0, 36, 83
5, 160892, Note_on_c, 0, 36, 0
5, 160892, Note_on_c, 0, 48, 0
5, 161280, Note_on_c, 0, 60, 83
5, 161372, Note_on_c, 0, 60, 0
5, 161472, Note_on_c, 0, 62, 89
5, 161564, Note_on_c, 0, 62, 0
5, 161664, Note_on_c, 0, 63, 89
5, 161756, Note_on_c, 0, 63, 0
5, 161856, Note_on_c, 0, 64, 89
5, 161948, Note_on_c, 0, 64, 0
5, 162048, Note_on_c, 0, 65, 89
5, 162048, Note_on_c, 0, 60, 89
5, 162236, Note_on_c, 0, 65, 0
5, 162240, Note_on_c, 0, 64, 89
5, 162428, Note_on_c, 0, 64, 0
5, 162428, Note_on_c, 0, 60, 0
5, 162432, Note_on_c, 0, 62, 89
5, 162524, Note_on_c, 0, 62, 0
5, 162624, Note_on_c, 0, 60, 89
5, 162716, Note_on_c, 0, 60, 0
5, 162816, Note_on_c, 0, 59, 89
5, 162816, Note_on_c, 0, 55, 89
5, 162960, Note_on_c, 0, 60, 89
5, 163004, Note_on_c, 0, 60, 0
5, 163004, Note_on_c, 0, 59, 0
5, 163008, Note_on_c, 0, 59, 89
5, 163100, Note_on_c, 0, 59, 0
5, 163104, Note_on_c, 0, 57, 89
5, 163196, Note_on_c, 0, 57, 0
5, 163196, Note_on_c, 0, 55, 0
5, 163200, Note_on_c, 0, 59, 89
5, 163200, Note_on_c, 0, 55, 89
5, 163388, Note_on_c, 0, 55, 0
5, 163388, Note_on_c, 0, 59, 0
5, 163392, Note_on_c, 0, 59, 89
5, 163392, Note_on_c, 0, 55, 89
5, 163484, Note_on_c, 0, 59, 0
5, 163580, Note_on_c, 0, 55, 0
5, 163584, Note_on_c, 0, 59, 89
5, 163584, Note_on_c, 0, 55, 89
5, 163584, Note_on_c, 0, 48, 89
5, 163964, Note_on_c, 0, 48, 0
5, 163964, Note_on_c, 0, 55, 0
5, 163964, Note_on_c, 0, 59, 0
5, 163968, Note_on_c, 0, 60, 89
5, 164156, Note_on_c, 0, 60, 0
5, 164352, Note_on_c, 0, 60, 89
5, 164444, Note_on_c, 0, 60, 0
5, 164544, Note_on_c, 0, 62, 89
5, 164636, Note_on_c, 0, 62, 0
5, 164736, Note_on_c, 0, 63, 89
5, 164828, Note_on_c, 0, 63, 0
5, 164928, Note_on_c, 0, 64, 89
5, 165020, Note_on_c, 0, 64, 0
5, 165120, Note_on_c, 0, 65, 89
5, 165120, Note_on_c, 0, 60, 89
5, 165308, Note_on_c, 0, 65, 0
5, 165312, Note_on_c, 0, 64, 89
5, 165500, Note_on_c, 0, 64, 0
5, 165500, Note_on_c, 0, 60, 0
5, 165504, Note_on_c, 0, 62, 89
5, 165596, Note_on_c, 0, 62, 0
5, 165696, Note_on_c, 0, 60, 89
5, 165788, Note_on_c, 0, 60, 0
5, 165888, Note_on_c, 0, 59, 89
5, 165888, Note_on_c, 0, 55, 89
5, 166032, Note_on_c, 0, 60, 89
5, 166076, Note_on_c, 0, 60, 0
5, 166076, Note_on_c, 0, 59, 0
5, 166080, Note_on_c, 0, 59, 89
5, 166172, Note_on_c, 0, 59, 0
5, 166176, Note_on_c, 0, 57, 89
5, 166268, Note_on_c, 0, 57, 0
5, 166268, Note_on_c, 0, 55, 0
5, 166272, Note_on_c, 0, 59, 89
5, 166272, Note_on_c, 0, 55, 89
5, 166460, Note_on_c, 0, 55, 0
5, 166460, Note_on_c, 0, 59, 0
5, 166464, Note_on_c, 0, 55, 89
5, 166464, Note_on_c, 0, 60, 89
5, 166556, Note_on_c, 0, 60, 0
5, 166652, Note_on_c, 0, 55, 0
5, 166656, Note_on_c, 0, 60, 89
5, 166656, Note_on_c, 0, 55, 89
5, 166656, Note_on_c, 0, 48, 89
5, 167036, Note_on_c, 0, 48, 0
5, 167036, Note_on_c, 0, 55, 0
5, 167036, Note_on_c, 0, 60, 0
5, 168192, Note_on_c, 0, 55, 83
5, 168192, Note_on_c, 0, 43, 83
5, 168956, Note_on_c, 0, 43, 0
5, 168956, Note_on_c, 0, 55, 0
5, 171264, Note_on_c, 0, 60, 83
5, 171264, Note_on_c, 0, 48, 83
5, 172028, Note_on_c, 0, 48, 0
5, 172028, Note_on_c, 0, 60, 0
5, 177408, Note_on_c, 0, 64, 83
5, 177408, Note_on_c, 0, 60, 83
5, 177408, Note_on_c, 0, 57, 83
5, 177788, Note_on_c, 0, 57, 0
5, 177984, Note_on_c, 0, 60, 83
5, 178172, Note_on_c, 0, 60, 0
5, 178172, Note_on_c, 0, 60, 0
5, 178172, Note_on_c, 0, 64, 0
5, 178176, Note_on_c, 0, 55, 83
5, 178176, Note_on_c, 0, 59, 83
5, 178176, Note_on_c, 0, 62, 83
5, 178176, Note_on_c, 0, 65, 83
5, 178556, Note_on_c, 0, 59, 0
5, 178556, Note_on_c, 0, 55, 0
5, 178752, Note_on_c, 0, 55, 83
5, 178752, Note_on_c, 0, 59, 83
5, 178940, Note_on_c, 0, 59, 0
5, 178940, Note_on_c, 0, 65, 0
5, 178940, Note_on_c, 0, 62, 0
5, 178940, Note_on_c, 0, 55, 0
5, 178944, Note_on_c, 0, 57, 83
5, 178944, Note_on_c, 0, 64, 83
5, 178944, Note_on_c, 0, 60, 83
5, 179324, Note_on_c, 0, 57, 0
5, 179708, Note_on_c, 0, 60, 0
5, 179708, Note_on_c, 0, 64, 0
5, 179712, Note_on_c, 0, 57, 83
5, 179712, Note_on_c, 0, 53, 83
5, 179712, Note_on_c, 0, 65, 83
5, 179712, Note_on_c, 0, 62, 83
5, 180092, Note_on_c, 0, 53, 0
5, 180092, Note_on_c, 0, 57, 0
5, 180288, Note_on_c, 0, 57, 83
5, 180288, Note_on_c, 0, 53, 83
5, 180476, Note_on_c, 0, 53, 0
5, 180476, Note_on_c, 0, 62, 0
5, 180476, Note_on_c, 0, 65, 0
5, 180476, Note_on_c, 0, 57, 0
5, 180480, Note_on_c, 0, 55, 83
5, 180480, Note_on_c, 0, 60, 83
5, 180480, Note_on_c, 0, 64, 83
5, 180860, Note_on_c, 0, 55, 0
5, 181056, Note_on_c, 0, 55, 83
5, 181244, Note_on_c, 0, 55, 0
5, 181244, Note_on_c, 0, 64, 0
5, 181244, Note_on_c, 0, 60, 0
5, 181248, Note_on_c, 0, 62, 83
5, 181248, Note_on_c, 0, 55, 83
5, 181820, Note_on_c, 0, 55, 0
5, 181820, Note_on_c, 0, 62, 0
5, 181824, Note_on_c, 0, 62, 83
5, 181824, Note_on_c, 0, 55, 83
5, 182012, Note_on_c, 0, 55, 0
5, 182012, Note_on_c, 0, 62, 0
5, 182016, Note_on_c, 0, 55, 83
5, 182016, Note_on_c, 0, 52, 83
5, 182016, Note_on_c, 0, 48, 83
5, 182108, Note_on_c, 0, 48, 0
5, 182108, Note_on_c, 0, 52, 0
5, 182108, Note_on_c, 0, 55, 0
5, 182112, Note_on_c, 0, 60, 83
5, 182204, Note_on_c, 0, 60, 0
5, 182208, Note_on_c, 0, 55, 83
5, 182208, Note_on_c, 0, 52, 83
5, 182208, Note_on_c, 0, 48, 83
5, 182300, Note_on_c, 0, 48, 0
5, 182300, Note_on_c, 0, 52, 0
5, 182300, Note_on_c, 0, 55, 0
5, 182304, Note_on_c, 0, 60, 83
5, 182396, Note_on_c, 0, 60, 0
5, 182400, Note_on_c, 0, 52, 83
5, 182400, Note_on_c, 0, 48, 83
5, 182492, Note_on_c, 0, 48, 0
5, 182492, Note_on_c, 0, 52, 0
5, 182496, Note_on_c, 0, 60, 83
5, 182588, Note_on_c, 0, 60, 0
5, 182592, Note_on_c, 0, 55, 83
5, 182592, Note_on_c, 0, 52, 83
5, 182592, Note_on_c, 0, 48, 83
5, 182684, Note_on_c, 0, 48, 0
5, 182684, Note_on_c, 0, 52, 0
5, 182684, Note_on_c, 0, 55, 0
5, 182688, Note_on_c, 0, 60, 83
5, 182780, Note_on_c, 0, 60, 0
5, 182784, Note_on_c, 0, 57, 83
5, 182784, Note_on_c, 0, 53, 83
5, 182784, Note_on_c, 0, 48, 83
5, 182876, Note_on_c, 0, 48, 0
5, 182876, Note_on_c, 0, 53, 0
5, 182876, Note_on_c, 0, 57, 0
5, 182880, Note_on_c, 0, 60, 83
5, 182960, Note_on_c, 0, 48, 83
5, 182972, Note_on_c, 0, 60, 0
5, 182976, Note_on_c, 0, 57, 83
5, 182976, Note_on_c, 0, 53, 83
5, 183052, Note_on_c, 0, 48, 0
5, 183068, Note_on_c, 0, 53, 0
5, 183068, Note_on_c, 0, 57, 0
5, 183072, Note_on_c, 0, 60, 83
5, 183164, Note_on_c, 0, 60, 0
5, 183168, Note_on_c, 0, 57, 83
5, 183168, Note_on_c, 0, 53, 83
5, 183168, Note_on_c, 0, 48, 83
5, 183260, Note_on_c, 0, 48, 0
5, 183260, Note_on_c, 0, 53, 0
5, 183260, Note_on_c, 0, 57, 0
5, 183264, Note_on_c, 0, 60, 83
5, 183356, Note_on_c, 0, 60, 0
5, 183360, Note_on_c, 0, 57, 83
5, 183360, Note_on_c, 0, 53, 83
5, 183360, Note_on_c, 0, 48, 83
5, 183452, Note_on_c, 0, 48, 0
5, 183452, Note_on_c, 0, 53, 0
5, 183452, Note_on_c, 0, 57, 0
5, 183456, Note_on_c, 0, 60, 83
5, 183548, Note_on_c, 0, 60, 0
5, 183552, Note_on_c, 0, 55, 83
5, 183552, Note_on_c, 0, 52, 83
5, 183552, Note_on_c, 0, 48, 83
5, 183644, Note_on_c, 0, 48, 0
5, 183644, Note_on_c, 0, 52, 0
5, 183644, Note_on_c, 0, 55, 0
5, 183648, Note_on_c, 0, 60, 83
5, 183740, Note_on_c, 0, 60, 0
5, 183744, Note_on_c, 0, 55, 83
5, 183744, Note_on_c, 0, 52, 83
5, 183744, Note_on_c, 0, 48, 83
5, 183836, Note_on_c, 0, 48, 0
5, 183836, Note_on_c, 0, 52, 0
5, 183836, Note_on_c, 0, 55, 0
5, 183840, Note_on_c, 0, 60, 83
5, 183932, Note_on_c, 0, 60, 0
5, 183936, Note_on_c, 0, 55, 83
5, 183936, Note_on_c, 0, 52, 83
5, 183936, Note_on_c, 0, 48, 83
5, 184028, Note_on_c, 0, 48, 0
5, 184028, Note_on_c, 0, 52, 0
5, 184028, Note_on_c, 0, 55, 0
5, 184032, Note_on_c, 0, 60, 83
5, 184124, Note_on_c, 0, 60, 0
5, 184128, Note_on_c, 0, 55, 83
5, 184128, Note_on_c, 0, 52, 83
5, 184128, Note_on_c, 0, 48, 83
5, 184220, Note_on_c, 0, 48, 0
5, 184220, Note_on_c, 0, 52, 0
5, 184220, Note_on_c, 0, 55, 0
5, 184224, Note_on_c, 0, 60, 83
5, 184316, Note_on_c, 0, 60, 0
5, 184320, Note_on_c, 0, 57, 83
5, 184320, Note_on_c, 0, 53, 83
5, 184320, Note_on_c, 0, 48, 83
5, 184412, Note_on_c, 0, 48, 0
5, 184412, Note_on_c, 0, 53, 0
5, 184412, Note_on_c, 0, 57, 0
5, 184416, Note_on_c, 0, 60, 83
5, 184496, Note_on_c, 0, 48, 83
5, 184508, Note_on_c, 0, 60, 0
5, 184512, Note_on_c, 0, 57, 83
5, 184512, Note_on_c, 0, 53, 83
5, 184588, Note_on_c, 0, 48, 0
5, 184604, Note_on_c, 0, 53, 0
5, 184604, Note_on_c, 0, 57, 0
5, 184608, Note_on_c, 0, 60, 83
5, 184700, Note_on_c, 0, 60, 0
5, 184704, Note_on_c, 0, 57, 83
5, 184704, Note_on_c, 0, 53, 83
5, 184704, Note_on_c, 0, 48, 83
5, 184796, Note_on_c, 0, 48, 0
5, 184796, Note_on_c, 0, 53, 0
5, 184796, Note_on_c, 0, 57, 0
5, 184800, Note_on_c, 0, 60, 83
5, 184892, Note_on_c, 0, 60, 0
5, 184896, Note_on_c, 0, 57, 83
5, 184896, Note_on_c, 0, 53, 83
5, 184896, Note_on_c, 0, 48, 83
5, 184988, Note_on_c, 0, 48, 0
5, 184988, Note_on_c, 0, 53, 0
5, 184988, Note_on_c, 0, 57, 0
5, 184992, Note_on_c, 0, 60, 83
5, 185084, Note_on_c, 0, 60, 0
5, 185088, Note_on_c, 0, 55, 83
5, 185088, Note_on_c, 0, 52, 83
5, 185088, Note_on_c, 0, 48, 83
5, 185180, Note_on_c, 0, 48, 0
5, 185180, Note_on_c, 0, 52, 0
5, 185180, Note_on_c, 0, 55, 0
5, 185184, Note_on_c, 0, 60, 83
5, 185276, Note_on_c, 0, 60, 0
5, 185280, Note_on_c, 0, 55, 83
5, 185280, Note_on_c, 0, 52, 83
5, 185280, Note_on_c, 0, 48, 83
5, 185372, Note_on_c, 0, 48, 0
5, 185372, Note_on_c, 0, 52, 0
5, 185372, Note_on_c, 0, 55, 0
5, 185376, Note_on_c, 0, 60, 83
5, 185468, Note_on_c, 0, 60, 0
5, 185472, Note_on_c, 0, 55, 83
5, 185472, Note_on_c, 0, 52, 83
5, 185472, Note_on_c, 0, 48, 83
5, 185564, Note_on_c, 0, 48, 0
5, 185564, Note_on_c, 0, 52, 0
5, 185564, Note_on_c, 0, 55, 0
5, 185568, Note_on_c, 0, 60, 83
5, 185660, Note_on_c, 0, 60, 0
5, 185664, Note_on_c, 0, 55, 83
5, 185664, Note_on_c, 0, 52, 83
5, 185664, Note_on_c, 0, 48, 83
5, 185756, Note_on_c, 0, 48, 0
5, 185756, Note_on_c, 0, 52, 0
5, 185756, Note_on_c, 0, 55, 0
5, 185760, Note_on_c, 0, 60, 83
5, 185852, Note_on_c, 0, 60, 0
5, 185856, Note_on_c, 0, 57, 83
5, 185856, Note_on_c, 0, 53, 83
5, 185856, Note_on_c, 0, 48, 83
5, 185948, Note_on_c, 0, 48, 0
5, 185948, Note_on_c, 0, 53, 0
5, 185948, Note_on_c, 0, 57, 0
5, 185952, Note_on_c, 0, 60, 83
5, 186044, Note_on_c, 0, 60, 0
5, 186048, Note_on_c, 0, 57, 83
5, 186048, Note_on_c, 0, 53, 83
5, 186048, Note_on_c, 0, 48, 83
5, 186140, Note_on_c, 0, 48, 0
5, 186140, Note_on_c, 0, 53, 0
5, 186140, Note_on_c, 0, 57, 0
5, 186144, Note_on_c, 0, 60, 83
5, 186236, Note_on_c, 0, 60, 0
5, 186240, Note_on_c, 0, 57, 83
5, 186240, Note_on_c, 0, 53, 83
5, 186240, Note_on_c, 0, 48, 83
5, 186332, Note_on_c, 0, 48, 0
5, 186332, Note_on_c, 0, 53, 0
5, 186332, Note_on_c, 0, 57, 0
5, 186336, Note_on_c, 0, 60, 83
5, 186428, Note_on_c, 0, 60, 0
5, 186432, Note_on_c, 0, 57, 83
5, 186432, Note_on_c, 0, 53, 83
5, 186432, Note_on_c, 0, 48, 83
5, 186524, Note_on_c, 0, 48, 0
5, 186524, Note_on_c, 0, 53, 0
5, 186524, Note_on_c, 0, 57, 0
5, 186528, Note_on_c, 0, 60, 83
5, 186620, Note_on_c, 0, 60, 0
5, 186624, Note_on_c, 0, 48, 83
5, 186716, Note_on_c, 0, 48, 0
5, 186720, Note_on_c, 0, 67, 83
5, 186812, Note_on_c, 0, 67, 0
5, 186816, Note_on_c, 0, 64, 83
5, 186908, Note_on_c, 0, 64, 0
5, 186912, Note_on_c, 0, 67, 83
5, 187004, Note_on_c, 0, 67, 0
5, 187008, Note_on_c, 0, 64, 83
5, 187100, Note_on_c, 0, 64, 0
5, 187104, Note_on_c, 0, 67, 83
5, 187196, Note_on_c, 0, 67, 0
5, 187200, Note_on_c, 0, 60, 83
5, 187292, Note_on_c, 0, 60, 0
5, 187296, Note_on_c, 0, 67, 83
5, 187388, Note_on_c, 0, 67, 0
5, 187392, Note_on_c, 0, 55, 83
5, 187484, Note_on_c, 0, 55, 0
5, 187488, Note_on_c, 0, 67, 83
5, 187580, Note_on_c, 0, 67, 0
5, 187584, Note_on_c, 0, 59, 83
5, 187584, Note_on_c, 0, 62, 83
5, 187676, Note_on_c, 0, 62, 0
5, 187676, Note_on_c, 0, 59, 0
5, 187680, Note_on_c, 0, 67, 83
5, 187772, Note_on_c, 0, 67, 0
5, 187776, Note_on_c, 0, 59, 83
5, 187776, Note_on_c, 0, 62, 83
5, 187868, Note_on_c, 0, 62, 0
5, 187868, Note_on_c, 0, 59, 0
5, 187872, Note_on_c, 0, 67, 83
5, 187964, Note_on_c, 0, 67, 0
5, 187968, Note_on_c, 0, 55, 83
5, 188060, Note_on_c, 0, 55, 0
5, 188064, Note_on_c, 0, 67, 83
5, 188156, Note_on_c, 0, 67, 0
5, 188160, Note_on_c, 0, 57, 83
5, 188252, Note_on_c, 0, 57, 0
5, 188256, Note_on_c, 0, 60, 83
5, 188348, Note_on_c, 0, 60, 0
5, 188352, Note_on_c, 0, 64, 83
5, 188444, Note_on_c, 0, 64, 0
5, 188448, Note_on_c, 0, 60, 83
5, 188540, Note_on_c, 0, 60, 0
5, 188544, Note_on_c, 0, 64, 83
5, 188732, Note_on_c, 0, 64, 0
5, 189696, Note_on_c, 0, 57, 85
5, 189788, Note_on_c, 0, 57, 0
5, 189792, Note_on_c, 0, 64, 85
5, 189884, Note_on_c, 0, 64, 0
5, 189888, Note_on_c, 0, 60, 85
5, 189980, Note_on_c, 0, 60, 0
5, 189984, Note_on_c, 0, 64, 85
5, 190076, Note_on_c, 0, 64, 0
5, 190080, Note_on_c, 0, 60, 85
5, 190172, Note_on_c, 0, 60, 0
5, 190176, Note_on_c, 0, 64, 85
5, 190268, Note_on_c, 0, 64, 0
5, 190272, Note_on_c, 0, 57, 85
5, 190364, Note_on_c, 0, 57, 0
5, 190368, Note_on_c, 0, 64, 85
5, 190460, Note_on_c, 0, 64, 0
5, 190464, Note_on_c, 0, 52, 85
5, 190556, Note_on_c, 0, 52, 0
5, 190560, Note_on_c, 0, 64, 85
5, 190652, Note_on_c, 0, 64, 0
5, 190656, Note_on_c, 0, 59, 85
5, 190656, Note_on_c, 0, 56, 85
5, 190748, Note_on_c, 0, 56, 0
5, 190748, Note_on_c, 0, 59, 0
5, 190752, Note_on_c, 0, 64, 85
5, 190844, Note_on_c, 0, 64, 0
5, 190848, Note_on_c, 0, 59, 85
5, 190848, Note_on_c, 0, 56, 85
5, 190940, Note_on_c, 0, 56, 0
5, 190940, Note_on_c, 0, 59, 0
5, 190944, Note_on_c, 0, 64, 85
5, 191036, Note_on_c, 0, 64, 0
5, 191040, Note_on_c, 0, 52, 85
5, 191132, Note_on_c, 0, 52, 0
5, 191136, Note_on_c, 0, 64, 85
5, 191228, Note_on_c, 0, 64, 0
5, 191232, Note_on_c, 0, 53, 85
5, 191324, Note_on_c, 0, 53, 0
5, 191328, Note_on_c, 0, 57, 85
5, 191420, Note_on_c, 0, 57, 0
5, 191424, Note_on_c, 0, 60, 85
5, 191516, Note_on_c, 0, 60, 0
5, 191520, Note_on_c, 0, 57, 85
5, 191612, Note_on_c, 0, 57, 0
5, 191616, Note_on_c, 0, 60, 85
5, 191804, Note_on_c, 0, 60, 0
5, 192768, Note_on_c, 0, 57, 85
5, 192768, Note_on_c, 0, 53, 85
5, 193148, Note_on_c, 0, 53, 0
5, 193148, Note_on_c, 0, 57, 0
5, 193344, Note_on_c, 0, 60, 85
5, 193344, Note_on_c, 0, 53, 85
5, 193532, Note_on_c, 0, 53, 0
5, 193532, Note_on_c, 0, 60, 0
5, 193536, Note_on_c, 0, 64, 85
5, 193536, Note_on_c, 0, 49, 85
5, 193916, Note_on_c, 0, 49, 0
5, 193916, Note_on_c, 0, 64, 0
5, 194112, Note_on_c, 0, 64, 85
5, 194112, Note_on_c, 0, 49, 85
5, 194300, Note_on_c, 0, 49, 0
5, 194300, Note_on_c, 0, 64, 0
5, 194304, Note_on_c, 0, 65, 85
5, 194304, Note_on_c, 0, 50, 85
5, 194684, Note_on_c, 0, 50, 0
5, 194684, Note_on_c, 0, 65, 0
5, 194688, Note_on_c, 0, 50, 89
5, 194688, Note_on_c, 0, 62, 89
5, 195452, Note_on_c, 0, 62, 0
5, 195452, Note_on_c, 0, 50, 0
5, 195456, Note_on_c, 0, 59, 89
5, 195456, Note_on_c, 0, 52, 89
5, 195836, Note_on_c, 0, 52, 0
5, 195836, Note_on_c, 0, 59, 0
5, 195840, Note_on_c, 0, 57, 89
5, 195840, Note_on_c, 0, 53, 89
5, 196604, Note_on_c, 0, 53, 0
5, 196604, Note_on_c, 0, 57, 0
5, 196608, Note_on_c, 0, 56, 89
5, 196608, Note_on_c, 0, 53, 89
5, 196988, Note_on_c, 0, 56, 0
5, 196992, Note_on_c, 0, 57, 89
5, 197372, Note_on_c, 0, 57, 0
5, 197372, Note_on_c, 0, 53, 0
5, 197376, Note_on_c, 0, 59, 89
5, 197376, Note_on_c, 0, 52, 89
5, 197756, Note_on_c, 0, 52, 0
5, 197756, Note_on_c, 0, 59, 0
5, 199680, Note_on_c, 0, 52, 89
5, 199868, Note_on_c, 0, 52, 0
5, 199872, Note_on_c, 0, 54, 89
5, 200060, Note_on_c, 0, 54, 0
5, 200064, Note_on_c, 0, 55, 89
5, 200252, Note_on_c, 0, 55, 0
5, 200256, Note_on_c, 0, 56, 89
5, 200444, Note_on_c, 0, 56, 0
5, 200448, Note_on_c, 0, 59, 89
5, 200636, Note_on_c, 0, 59, 0
5, 200640, Note_on_c, 0, 57, 89
5, 200828, Note_on_c, 0, 57, 0
5, 201216, Note_on_c, 0, 52, 89
5, 201216, Note_on_c, 0, 40, 89
5, 201404, Note_on_c, 0, 40, 0
5, 201404, Note_on_c, 0, 52, 0
5, 201408, Note_on_c, 0, 54, 89
5, 201408, Note_on_c, 0, 42, 89
5, 201596, Note_on_c, 0, 42, 0
5, 201596, Note_on_c, 0, 54, 0
5, 201600, Note_on_c, 0, 55, 89
5, 201600, Note_on_c, 0, 43, 89
5, 201788, Note_on_c, 0, 43, 0
5, 201788, Note_on_c, 0, 55, 0
5, 201792, Note_on_c, 0, 56, 89
5, 201792, Note_on_c, 0, 44, 89
5, 201980, Note_on_c, 0, 44, 0
5, 201980, Note_on_c, 0, 56, 0
5, 201984, Note_on_c, 0, 59, 89
5, 201984, Note_on_c, 0, 47, 89
5, 202172, Note_on_c, 0, 47, 0
5, 202172, Note_on_c, 0, 59, 0
5, 202176, Note_on_c, 0, 57, 89
5, 202176, Note_on_c, 0, 45, 89
5, 202364, Note_on_c, 0, 45, 0
5, 202364, Note_on_c, 0, 57, 0
5, 221184, Note_on_c, 0, 62, 89
5, 221184, Note_on_c, 0, 59, 89
5, 221184, Note_on_c, 0, 56, 89
5, 221184, Note_on_c, 0, 52, 89
5, 221564, Note_on_c, 0, 52, 0
5, 221564, Note_on_c, 0, 62, 0
5, 221564, Note_on_c, 0, 59, 0
5, 221564, Note_on_c, 0, 56, 0
5, 221952, Note_on_c, 0, 45, 89
5, 221964, Note_on_c, 0, 57, 89
5, 221980, Note_on_c, 0, 61, 89
5, 222332, Note_on_c, 0, 45, 0
5, 222344, Note_on_c, 0, 57, 0
5, 222360, Note_on_c, 0, 61, 0
5, 224256, Note_on_c, 0, 59, 85
5, 224256, Note_on_c, 0, 62, 85
5, 224256, Note_on_c, 0, 56, 85
5, 224256, Note_on_c, 0, 52, 85
5, 225020, Note_on_c, 0, 52, 0
5, 225020, Note_on_c, 0, 59, 0
5, 225020, Note_on_c, 0, 62, 0
5, 225020, Note_on_c, 0, 56, 0
5, 225024, Note_on_c, 0, 60, 85
5, 225024, Note_on_c, 0, 57, 85
5, 225404, Note_on_c, 0, 57, 0
5, 225404, Note_on_c, 0, 60, 0
5, 229632, Note_on_c, 0, 48, 85
5, 229632, Note_on_c, 0, 36, 85
5, 231164, Note_on_c, 0, 36, 0
5, 231164, Note_on_c, 0, 48, 0
5, 233472, Note_on_c, 0, 51, 89
5, 233472, Note_on_c, 0, 39, 89
5, 233564, Note_on_c, 0, 39, 0
5, 233564, Note_on_c, 0, 51, 0
5, 233664, Note_on_c, 0, 53, 89
5, 233664, Note_on_c, 0, 41, 89
5, 233756, Note_on_c, 0, 41, 0
5, 233756, Note_on_c, 0, 53, 0
5, 233856, Note_on_c, 0, 54, 89
5, 233856, Note_on_c, 0, 42, 89
5, 233948, Note_on_c, 0, 42, 0
5, 233948, Note_on_c, 0, 54, 0
5, 234048, Note_on_c, 0, 55, 89
5, 234048, Note_on_c, 0, 43, 89
5, 234140, Note_on_c, 0, 43, 0
5, 234140, Note_on_c, 0, 55, 0
5, 234240, Note_on_c, 0, 56, 89
5, 234240, Note_on_c, 0, 44, 89
5, 234428, Note_on_c, 0, 44, 0
5, 234428, Note_on_c, 0, 56, 0
5, 234432, Note_on_c, 0, 55, 89
5, 234432, Note_on_c, 0, 43, 89
5, 234620, Note_on_c, 0, 43, 0
5, 234620, Note_on_c, 0, 55, 0
5, 236544, Note_on_c, 0, 53, 89
5, 236544, Note_on_c, 0, 41, 89
5, 236636, Note_on_c, 0, 41, 0
5, 236636, Note_on_c, 0, 53, 0
5, 236736, Note_on_c, 0, 55, 89
5, 236736, Note_on_c, 0, 43, 89
5, 236828, Note_on_c, 0, 43, 0
5, 236828, Note_on_c, 0, 55, 0
5, 236928, Note_on_c, 0, 56, 89
5, 236928, Note_on_c, 0, 44, 89
5, 237020, Note_on_c, 0, 44, 0
5, 237020, Note_on_c, 0, 56, 0
5, 237120, Note_on_c, 0, 57, 89
5, 237120, Note_on_c, 0, 45, 89
5, 237212, Note_on_c, 0, 45, 0
5, 237212, Note_on_c, 0, 57, 0
5, 237312, Note_on_c, 0, 58, 89
5, 237312, Note_on_c, 0, 46, 89
5, 237500, Note_on_c, 0, 46, 0
5, 237500, Note_on_c, 0, 58, 0
5, 237504, Note_on_c, 0, 57, 89
5, 237504, Note_on_c, 0, 45, 89
5, 237692, Note_on_c, 0, 45, 0
5, 237692, Note_on_c, 0, 57, 0
5, 239616, Note_on_c, 0, 55, 89
5, 239616, Note_on_c, 0, 43, 89
5, 239708, Note_on_c, 0, 43, 0
5, 239708, Note_on_c, 0, 55, 0
5, 239808, Note_on_c, 0, 57, 89
5, 239808, Note_on_c, 0, 45, 89
5, 239900, Note_on_c, 0, 45, 0
5, 239900, Note_on_c, 0, 57, 0
5, 240000, Note_on_c, 0, 58, 89
5, 240000, Note_on_c, 0, 46, 89
5, 240092, Note_on_c, 0, 46, 0
5, 240092, Note_on_c, 0, 58, 0
5, 240192, Note_on_c, 0, 59, 89
5, 240192, Note_on_c, 0, 47, 89
5, 240284, Note_on_c, 0, 47, 0
5, 240284, Note_on_c, 0, 59, 0
5, 240384, Note_on_c, 0, 60, 89
5, 240384, Note_on_c, 0, 48, 89
5, 240572, Note_on_c, 0, 48, 0
5, 240572, Note_on_c, 0, 60, 0
5, 240576, Note_on_c, 0, 59, 89
5, 240576, Note_on_c, 0, 47, 89
5, 240764, Note_on_c, 0, 47, 0
5, 240764, Note_on_c, 0, 59, 0
5, 241536, Note_on_c, 0, 52, 89
5, 241536, Note_on_c, 0, 40, 89
5, 241628, Note_on_c, 0, 40, 0
5, 241628, Note_on_c, 0, 52, 0
5, 241728, Note_on_c, 0, 54, 89
5, 241728, Note_on_c, 0, 42, 89
5, 241820, Note_on_c, 0, 42, 0
5, 241820, Note_on_c, 0, 54, 0
5, 241920, Note_on_c, 0, 57, 89
5, 241920, Note_on_c, 0, 45, 89
5, 242108, Note_on_c, 0, 45, 0
5, 242108, Note_on_c, 0, 57, 0
5, 242112, Note_on_c, 0, 55, 89
5, 242112, Note_on_c, 0, 43, 89
5, 242300, Note_on_c, 0, 43, 0
5, 242300, Note_on_c, 0, 55, 0
5, 243072, Note_on_c, 0, 48, 89
5, 243072, Note_on_c, 0, 36, 89
5, 243164, Note_on_c, 0, 36, 0
5, 243164, Note_on_c, 0, 48, 0
5, 243264, Note_on_c, 0, 50, 89
5, 243264, Note_on_c, 0, 38, 89
5, 243356, Note_on_c, 0, 38, 0
5, 243356, Note_on_c, 0, 50, 0
5, 243456, Note_on_c, 0, 53, 89
5, 243456, Note_on_c, 0, 41, 89
5, 243644, Note_on_c, 0, 41, 0
5, 243644, Note_on_c, 0, 53, 0
5, 243648, Note_on_c, 0, 52, 89
5, 243648, Note_on_c, 0, 40, 89
5, 243836, Note_on_c, 0, 40, 0
5, 243836, Note_on_c, 0, 52, 0
5, 244608, Note_on_c, 0, 57, 89
5, 244608, Note_on_c, 0, 45, 89
5, 244796, Note_on_c, 0, 45, 0
5, 244796, Note_on_c, 0, 57, 0
5, 244800, Note_on_c, 0, 59, 89
5, 244800, Note_on_c, 0, 47, 89
5, 244988, Note_on_c, 0, 47, 0
5, 244988, Note_on_c, 0, 59, 0
5, 244992, Note_on_c, 0, 60, 89
5, 244992, Note_on_c, 0, 48, 89
5, 245372, Note_on_c, 0, 48, 0
5, 245372, Note_on_c, 0, 60, 0
5, 246528, Note_on_c, 0, 57, 89
5, 246528, Note_on_c, 0, 54, 89
5, 248828, Note_on_c, 0, 57, 0
5, 248832, Note_on_c, 0, 60, 89
5, 249596, Note_on_c, 0, 60, 0
5, 249596, Note_on_c, 0, 54, 0
5, 249600, Note_on_c, 0, 62, 89
5, 249600, Note_on_c, 0, 59, 89
5, 249600, Note_on_c, 0, 55, 89
5, 250364, Note_on_c, 0, 59, 0
5, 250364, Note_on_c, 0, 62, 0
5, 250368, Note_on_c, 0, 60, 89
5, 250368, Note_on_c, 0, 63, 89
5, 251132, Note_on_c, 0, 63, 0
5, 251132, Note_on_c, 0, 60, 0
5, 251136, Note_on_c, 0, 59, 89
5, 251136, Note_on_c, 0, 62, 89
5, 251900, Note_on_c, 0, 62, 0
5, 251900, Note_on_c, 0, 59, 0
5, 251904, Note_on_c, 0, 60, 89
5, 251904, Note_on_c, 0, 63, 89
5, 252668, Note_on_c, 0, 63, 0
5, 252668, Note_on_c, 0, 60, 0
5, 252672, Note_on_c, 0, 59, 89
5, 252672, Note_on_c, 0, 62, 89
5, 253052, Note_on_c, 0, 62, 0
5, 253052, Note_on_c, 0, 59, 0
5, 253056, Note_on_c, 0, 63, 89
5, 253056, Note_on_c, 0, 60, 89
5, 253436, Note_on_c, 0, 60, 0
5, 253436, Note_on_c, 0, 63, 0
5, 253440, Note_on_c, 0, 59, 89
5, 253440, Note_on_c, 0, 62, 89
5, 253820, Note_on_c, 0, 62, 0
5, 253820, Note_on_c, 0, 59, 0
5, 253824, Note_on_c, 0, 63, 89
5, 253824, Note_on_c, 0, 60, 89
5, 254204, Note_on_c, 0, 60, 0
5, 254204, Note_on_c, 0, 63, 0
5, 254208, Note_on_c, 0, 59, 89
5, 254208, Note_on_c, 0, 62, 89
5, 254588, Note_on_c, 0, 62, 0
5, 254588, Note_on_c, 0, 59, 0
5, 254588, Note_on_c, 0, 55, 0
5, 256512, Note_on_c, 0, 55, 89
5, 256700, Note_on_c, 0, 55, 0
5, 256704, Note_on_c, 0, 57, 89
5, 256892, Note_on_c, 0, 57, 0
5, 256896, Note_on_c, 0, 58, 89
5, 257084, Note_on_c, 0, 58, 0
5, 257088, Note_on_c, 0, 59, 89
5, 257276, Note_on_c, 0, 59, 0
5, 257280, Note_on_c, 0, 62, 89
5, 257468, Note_on_c, 0, 62, 0
5, 257472, Note_on_c, 0, 60, 89
5, 257660, Note_on_c, 0, 60, 0
5, 258048, Note_on_c, 0, 55, 85
5, 258048, Note_on_c, 0, 43, 85
5, 258236, Note_on_c, 0, 43, 0
5, 258236, Note_on_c, 0, 55, 0
5, 258240, Note_on_c, 0, 57, 85
5, 258240, Note_on_c, 0, 45, 85
5, 258428, Note_on_c, 0, 45, 0
5, 258428, Note_on_c, 0, 57, 0
5, 258432, Note_on_c, 0, 58, 85
5, 258432, Note_on_c, 0, 46, 85
5, 258620, Note_on_c, 0, 46, 0
5, 258620, Note_on_c, 0, 58, 0
5, 258624, Note_on_c, 0, 59, 85
5, 258624, Note_on_c, 0, 47, 85
5, 258812, Note_on_c, 0, 47, 0
5, 258812, Note_on_c, 0, 59, 0
5, 258816, Note_on_c, 0, 62, 85
5, 258816, Note_on_c, 0, 50, 85
5, 259004, Note_on_c, 0, 50, 0
5, 259004, Note_on_c, 0, 62, 0
5, 259008, Note_on_c, 0, 60, 89
5, 259008, Note_on_c, 0, 48, 89
5, 259196, Note_on_c, 0, 48, 0
5, 259196, Note_on_c, 0, 60, 0
5, 260352, Note_on_c, 0, 60, 89
5, 260352, Note_on_c, 0, 48, 89
5, 260732, Note_on_c, 0, 48, 0
5, 260732, Note_on_c, 0, 60, 0
5, 261120, Note_on_c, 0, 55, 89
5, 261120, Note_on_c, 0, 43, 89
5, 261500, Note_on_c, 0, 43, 0
5, 261500, Note_on_c, 0, 55, 0
5, 261888, Note_on_c, 0, 48, 89
5, 261888, Note_on_c, 0, 36, 89
5, 262268, Note_on_c, 0, 36, 0
5, 262268, Note_on_c, 0, 48, 0
5, 263424, Note_on_c, 0, 60, 89
5, 263424, Note_on_c, 0, 48, 89
5, 263804, Note_on_c, 0, 48, 0
5, 263804, Note_on_c, 0, 60, 0
5, 264192, Note_on_c, 0, 55, 89
5, 264192, Note_on_c, 0, 43, 89
5, 264572, Note_on_c, 0, 43, 0
5, 264572, Note_on_c, 0, 55, 0
5, 264960, Note_on_c, 0, 48, 112
5, 265052, Note_on_c, 0, 48, 0
5, 265056, Note_on_c, 0, 67, 112
5, 265148, Note_on_c, 0, 67, 0
5, 265152, Note_on_c, 0, 64, 112
5, 265244, Note_on_c, 0, 64, 0
5, 265248, Note_on_c, 0, 67, 112
5, 265340, Note_on_c, 0, 67, 0
5, 265344, Note_on_c, 0, 64, 112
5, 265436, Note_on_c, 0, 64, 0
5, 265440, Note_on_c, 0, 67, 112
5, 265532, Note_on_c, 0, 67, 0
5, 265536, Note_on_c, 0, 60, 112
5, 265628, Note_on_c, 0, 60, 0
5, 265632, Note_on_c, 0, 67, 112
5, 265724, Note_on_c, 0, 67, 0
5, 265728, Note_on_c, 0, 55, 112
5, 265820, Note_on_c, 0, 55, 0
5, 265824, Note_on_c, 0, 67, 112
5, 265916, Note_on_c, 0, 67, 0
5, 265920, Note_on_c, 0, 59, 112
5, 265920, Note_on_c, 0, 62, 112
5, 266012, Note_on_c, 0, 62, 0
5, 266012, Note_on_c, 0, 59, 0
5, 266016, Note_on_c, 0, 67, 112
5, 266108, Note_on_c, 0, 67, 0
5, 266112, Note_on_c, 0, 59, 112
5, 266112, Note_on_c, 0, 62, 112
5, 266204, Note_on_c, 0, 62, 0
5, 266204, Note_on_c, 0, 59, 0
5, 266208, Note_on_c, 0, 67, 112
5, 266300, Note_on_c, 0, 67, 0
5, 266304, Note_on_c, 0, 55, 112
5, 266396, Note_on_c, 0, 55, 0
5, 266400, Note_on_c, 0, 67, 112
5, 266492, Note_on_c, 0, 67, 0
5, 266496, Note_on_c, 0, 57, 112
5, 266588, Note_on_c, 0, 57, 0
5, 266592, Note_on_c, 0, 64, 112
5, 266684, Note_on_c, 0, 64, 0
5, 266688, Note_on_c, 0, 60, 112
5, 266780, Note_on_c, 0, 60, 0
5, 266784, Note_on_c, 0, 64, 112
5, 266876, Note_on_c, 0, 64, 0
5, 266880, Note_on_c, 0, 60, 112
5, 266972, Note_on_c, 0, 60, 0
5, 266976, Note_on_c, 0, 64, 112
5, 267068, Note_on_c, 0, 64, 0
5, 267072, Note_on_c, 0, 57, 112
5, 267164, Note_on_c, 0, 57, 0
5, 267168, Note_on_c, 0, 64, 112
5, 267260, Note_on_c, 0, 64, 0
5, 267264, Note_on_c, 0, 53, 112
5, 267356, Note_on_c, 0, 53, 0
5, 267360, Note_on_c, 0, 65, 112
5, 267452, Note_on_c, 0, 65, 0
5, 267456, Note_on_c, 0, 62, 112
5, 267548, Note_on_c, 0, 62, 0
5, 267552, Note_on_c, 0, 65, 112
5, 267644, Note_on_c, 0, 65, 0
5, 267648, Note_on_c, 0, 62, 112
5, 267740, Note_on_c, 0, 62, 0
5, 267744, Note_on_c, 0, 65, 112
5, 267836, Note_on_c, 0, 65, 0
5, 267840, Note_on_c, 0, 53, 112
5, 267932, Note_on_c, 0, 53, 0
5, 267936, Note_on_c, 0, 65, 112
5, 268028, Note_on_c, 0, 65, 0
5, 268032, Note_on_c, 0, 55, 112
5, 268124, Note_on_c, 0, 55, 0
5, 268128, Note_on_c, 0, 64, 112
5, 268220, Note_on_c, 0, 64, 0
5, 268224, Note_on_c, 0, 60, 112
5, 268316, Note_on_c, 0, 60, 0
5, 268320, Note_on_c, 0, 64, 112
5, 268412, Note_on_c, 0, 64, 0
5, 268416, Note_on_c, 0, 60, 112
5, 268508, Note_on_c, 0, 60, 0
5, 268512, Note_on_c, 0, 64, 112
5, 268604, Note_on_c, 0, 64, 0
5, 268608, Note_on_c, 0, 55, 112
5, 268700, Note_on_c, 0, 55, 0
5, 268704, Note_on_c, 0, 64, 112
5, 268796, Note_on_c, 0, 64, 0
5, 268800, Note_on_c, 0, 43, 112
5, 268892, Note_on_c, 0, 43, 0
5, 268896, Note_on_c, 0, 59, 112
5, 268988, Note_on_c, 0, 59, 0
5, 268992, Note_on_c, 0, 53, 112
5, 268992, Note_on_c, 0, 50, 112
5, 269084, Note_on_c, 0, 50, 0
5, 269084, Note_on_c, 0, 53, 0
5, 269088, Note_on_c, 0, 59, 112
5, 269180, Note_on_c, 0, 59, 0
5, 269184, Note_on_c, 0, 53, 112
5, 269184, Note_on_c, 0, 50, 112
5, 269276, Note_on_c, 0, 50, 0
5, 269276, Note_on_c, 0, 53, 0
5, 269280, Note_on_c, 0, 59, 112
5, 269372, Note_on_c, 0, 59, 0
5, 269376, Note_on_c, 0, 43, 112
5, 269468, Note_on_c, 0, 43, 0
5, 269472, Note_on_c, 0, 59, 112
5, 269564, Note_on_c, 0, 59, 0
5, 269568, Note_on_c, 0, 60, 112
5, 269568, Note_on_c, 0, 52, 112
5, 269568, Note_on_c, 0, 48, 112
5, 269948, Note_on_c, 0, 48, 0
5, 269948, Note_on_c, 0, 52, 0
5, 269948, Note_on_c, 0, 60, 0
5, 269952, Note_on_c, 0, 67, 112
5, 269952, Note_on_c, 0, 64, 112
5, 270140, Note_on_c, 0, 64, 0
5, 270140, Note_on_c, 0, 67, 0
5, 270144, Note_on_c, 0, 67, 112
5, 270144, Note_on_c, 0, 64, 112
5, 270332, Note_on_c, 0, 64, 0
5, 270332, Note_on_c, 0, 67, 0
5, 270336, Note_on_c, 0, 55, 112
5, 270336, Note_on_c, 0, 43, 112
5, 270524, Note_on_c, 0, 43, 0
5, 270524, Note_on_c, 0, 55, 0
5, 270528, Note_on_c, 0, 62, 112
5, 270528, Note_on_c, 0, 65, 112
5, 270716, Note_on_c, 0, 65, 0
5, 270716, Note_on_c, 0, 62, 0
5, 270720, Note_on_c, 0, 62, 112
5, 270720, Note_on_c, 0, 65, 112
5, 270908, Note_on_c, 0, 65, 0
5, 270908, Note_on_c, 0, 62, 0
5, 270912, Note_on_c, 0, 62, 112
5, 270912, Note_on_c, 0, 65, 112
5, 271100, Note_on_c, 0, 65, 0
5, 271100, Note_on_c, 0, 62, 0
5, 271104, Note_on_c, 0, 60, 112
5, 271104, Note_on_c, 0, 48, 112
5, 271292, Note_on_c, 0, 48, 0
5, 271292, Note_on_c, 0, 60, 0
5, 271296, Note_on_c, 0, 60, 112
5, 271296, Note_on_c, 0, 64, 112
5, 271484, Note_on_c, 0, 64, 0
5, 271484, Note_on_c, 0, 60, 0
5, 271488, Note_on_c, 0, 55, 112
5, 271488, Note_on_c, 0, 64, 112
5, 271676, Note_on_c, 0, 64, 0
5, 271676, Note_on_c, 0, 55, 0
5, 271680, Note_on_c, 0, 55, 112
5, 271680, Note_on_c, 0, 64, 112
5, 271868, Note_on_c, 0, 64, 0
5, 271868, Note_on_c, 0, 55, 0
5, 271872, Note_on_c, 0, 53, 112
5, 271872, Note_on_c, 0, 41, 112
5, 272060, Note_on_c, 0, 41, 0
5, 272060, Note_on_c, 0, 53, 0
5, 272064, Note_on_c, 0, 62, 112
5, 272064, Note_on_c, 0, 53, 112
5, 272240, Note_on_c, 0, 53, 112
5, 272252, Note_on_c, 0, 53, 0
5, 272252, Note_on_c, 0, 62, 0
5, 272256, Note_on_c, 0, 62, 112
5, 272428, Note_on_c, 0, 53, 0
5, 272444, Note_on_c, 0, 62, 0
5, 272448, Note_on_c, 0, 62, 112
5, 272448, Note_on_c, 0, 53, 112
5, 272636, Note_on_c, 0, 53, 0
5, 272636, Note_on_c, 0, 62, 0
5, 272640, Note_on_c, 0, 55, 112
5, 272640, Note_on_c, 0, 43, 112
5, 272828, Note_on_c, 0, 43, 0
5, 272828, Note_on_c, 0, 55, 0
5, 272832, Note_on_c, 0, 60, 112
5, 272832, Note_on_c, 0, 52, 112
5, 273020, Note_on_c, 0, 52, 0
5, 273020, Note_on_c, 0, 60, 0
5, 273024, Note_on_c, 0, 60, 112
5, 273024, Note_on_c, 0, 52, 112
5, 273212, Note_on_c, 0, 52, 0
5, 273212, Note_on_c, 0, 60, 0
5, 273216, Note_on_c, 0, 60, 112
5, 273216, Note_on_c, 0, 52, 112
5, 273404, Note_on_c, 0, 52, 0
5, 273404, Note_on_c, 0, 60, 0
5, 273408, Note_on_c, 0, 55, 112
5, 273408, Note_on_c, 0, 43, 112
5, 273596, Note_on_c, 0, 43, 0
5, 273596, Note_on_c, 0, 55, 0
5, 273600, Note_on_c, 0, 59, 112
5, 273600, Note_on_c, 0, 50, 112
5, 273788, Note_on_c, 0, 50, 0
5, 273788, Note_on_c, 0, 59, 0
5, 273792, Note_on_c, 0, 59, 112
5, 273792, Note_on_c, 0, 50, 112
5, 273980, Note_on_c, 0, 50, 0
5, 273980, Note_on_c, 0, 59, 0
5, 273984, Note_on_c, 0, 59, 112
5, 273984, Note_on_c, 0, 50, 112
5, 274172, Note_on_c, 0, 50, 0
5, 274172, Note_on_c, 0, 59, 0
5, 274176, Note_on_c, 0, 60, 112
5, 274176, Note_on_c, 0, 52, 112
5, 274176, Note_on_c, 0, 48, 112
5, 274556, Note_on_c, 0, 48, 0
5, 274556, Note_on_c, 0, 52, 0
5, 274556, Note_on_c, 0, 60, 0
5, 275712, Note_on_c, 0, 60, 83
5, 275712, Note_on_c, 0, 48, 83
5, 276476, Note_on_c, 0, 48, 0
5, 276476, Note_on_c, 0, 60, 0
5, 276480, Note_on_c, 0, 60, 83
5, 276480, Note_on_c, 0, 52, 83
5, 277244, Note_on_c, 0, 52, 0
5, 277244, Note_on_c, 0, 60, 0
5, 277248, Note_on_c, 0, 67, 83
5, 277248, Note_on_c, 0, 55, 83
5, 277628, Note_on_c, 0, 55, 0
5, 277628, Note_on_c, 0, 67, 0
5, 278784, Note_on_c, 0, 48, 83
5, 278784, Note_on_c, 0, 36, 83
5, 279164, Note_on_c, 0, 36, 0
5, 279164, Note_on_c, 0, 48, 0
5, 279168, Note_on_c, 0, 52, 83
5, 279168, Note_on_c, 0, 40, 83
5, 279548, Note_on_c, 0, 40, 0
5, 279548, Note_on_c, 0, 52, 0
5, 279552, Note_on_c, 0, 57, 83
5, 279552, Note_on_c, 0, 45, 83
5, 279932, Note_on_c, 0, 45, 0
5, 279932, Note_on_c, 0, 57, 0
5, 279936, Note_on_c, 0, 60, 83
5, 279936, Note_on_c, 0, 48, 83
5, 280316, Note_on_c, 0, 48, 0
5, 280316, Note_on_c, 0, 60, 0
5, 280320, Note_on_c, 0, 64, 83
5, 280320, Note_on_c, 0, 52, 83
5, 281852, Note_on_c, 0, 52, 0
5, 281852, Note_on_c, 0, 64, 0
5, 281856, Note_on_c, 0, 45, 83
5, 281856, Note_on_c, 0, 33, 83
5, 282236, Note_on_c, 0, 33, 0
5, 282236, Note_on_c, 0, 45, 0
5, 282240, Note_on_c, 0, 48, 83
5, 282240, Note_on_c, 0, 36, 83
5, 282620, Note_on_c, 0, 36, 0
5, 282620, Note_on_c, 0, 48, 0
5, 282624, Note_on_c, 0, 53, 83
5, 282624, Note_on_c, 0, 41, 83
5, 283004, Note_on_c, 0, 41, 0
5, 283004, Note_on_c, 0, 53, 0
5, 283008, Note_on_c, 0, 57, 83
5, 283008, Note_on_c, 0, 45, 83
5, 283388, Note_on_c, 0, 45, 0
5, 283388, Note_on_c, 0, 57, 0
5, 283392, Note_on_c, 0, 60, 83
5, 283392, Note_on_c, 0, 48, 83
5, 284924, Note_on_c, 0, 48, 0
5, 284924, Note_on_c, 0, 60, 0
5, 284928, Note_on_c, 0, 53, 83
5, 285308, Note_on_c, 0, 53, 0
5, 289536, Note_on_c, 0, 62, 83
5, 289536, Note_on_c, 0, 59, 83
5, 289536, Note_on_c, 0, 55, 83
5, 290300, Note_on_c, 0, 59, 0
5, 290300, Note_on_c, 0, 62, 0
5, 290304, Note_on_c, 0, 60, 83
5, 290304, Note_on_c, 0, 60, 83
5, 290684, Note_on_c, 0, 60, 0
5, 290688, Note_on_c, 0, 57, 83
5, 291068, Note_on_c, 0, 57, 0
5, 291068, Note_on_c, 0, 60, 0
5, 291072, Note_on_c, 0, 59, 83
5, 291072, Note_on_c, 0, 62, 83
5, 291452, Note_on_c, 0, 62, 0
5, 291452, Note_on_c, 0, 59, 0
5, 291456, Note_on_c, 0, 67, 83
5, 291836, Note_on_c, 0, 67, 0
5, 291840, Note_on_c, 0, 67, 83
5, 292220, Note_on_c, 0, 67, 0
5, 292224, Note_on_c, 0, 63, 83
5, 292604, Note_on_c, 0, 63, 0
5, 292604, Note_on_c, 0, 55, 0
5, 294144, Note_on_c, 0, 67, 89
5, 294144, Note_on_c, 0, 59, 89
5, 294144, Note_on_c, 0, 55, 89
5, 294524, Note_on_c, 0, 59, 0
5, 294524, Note_on_c, 0, 67, 0
5, 294528, Note_on_c, 0, 65, 89
5, 294528, Note_on_c, 0, 62, 89
5, 294908, Note_on_c, 0, 62, 0
5, 294908, Note_on_c, 0, 65, 0
5, 294912, Note_on_c, 0, 60, 89
5, 294912, Note_on_c, 0, 64, 89
5, 295292, Note_on_c, 0, 64, 0
5, 295292, Note_on_c, 0, 60, 0
5, 295296, Note_on_c, 0, 59, 89
5, 295296, Note_on_c, 0, 62, 89
5, 295676, Note_on_c, 0, 62, 0
5, 295676, Note_on_c, 0, 59, 0
5, 295676, Note_on_c, 0, 55, 0
5, 295680, Note_on_c, 0, 48, 89
5, 295680, Note_on_c, 0, 36, 89
5, 296444, Note_on_c, 0, 36, 0
5, 296444, Note_on_c, 0, 48, 0
5, 296448, Note_on_c, 0, 48, 85
5, 296448, Note_on_c, 0, 36, 85
5, 299132, Note_on_c, 0, 36, 0
5, 299132, Note_on_c, 0, 48, 0
5, 302400, Note_on_c, 0, 55, 89
5, 302400, Note_on_c, 0, 43, 89
5, 302588, Note_on_c, 0, 43, 0
5, 302588, Note_on_c, 0, 55, 0
5, 302592, Note_on_c, 0, 54, 89
5, 302592, Note_on_c, 0, 42, 89
5, 302780, Note_on_c, 0, 42, 0
5, 302780, Note_on_c, 0, 54, 0
5, 302784, Note_on_c, 0, 55, 89
5, 302784, Note_on_c, 0, 43, 89
5, 302972, Note_on_c, 0, 43, 0
5, 302972, Note_on_c, 0, 55, 0
5, 302976, Note_on_c, 0, 41, 89
5, 302976, Note_on_c, 0, 53, 89
5, 303164, Note_on_c, 0, 53, 0
5, 303164, Note_on_c, 0, 41, 0
5, 303168, Note_on_c, 0, 50, 89
5, 303168, Note_on_c, 0, 38, 89
5, 303356, Note_on_c, 0, 38, 0
5, 303356, Note_on_c, 0, 50, 0
5, 303360, Note_on_c, 0, 48, 85
5, 303360, Note_on_c, 0, 36, 85
5, 303360, Note_on_c, 0, 48, 85
5, 303360, Note_on_c, 0, 48, 85
5, 303452, Note_on_c, 0, 48, 0
5, 303548, Note_on_c, 0, 48, 0
5, 303552, Note_on_c, 0, 52, 85
5, 303644, Note_on_c, 0, 52, 0
5, 303740, Note_on_c, 0, 36, 0
5, 303744, Note_on_c, 0, 55, 85
5, 303836, Note_on_c, 0, 55, 0
5, 303936, Note_on_c, 0, 52, 85
5, 304028, Note_on_c, 0, 52, 0
5, 304128, Note_on_c, 0, 48, 85
5, 304220, Note_on_c, 0, 48, 0
5, 304320, Note_on_c, 0, 52, 85
5, 304412, Note_on_c, 0, 52, 0
5, 304512, Note_on_c, 0, 55, 85
5, 304604, Note_on_c, 0, 55, 0
5, 304704, Note_on_c, 0, 52, 85
5, 304796, Note_on_c, 0, 52, 0
5, 304896, Note_on_c, 0, 48, 85
5, 304988, Note_on_c, 0, 48, 0
5, 305088, Note_on_c, 0, 53, 85
5, 305180, Note_on_c, 0, 53, 0
5, 305280, Note_on_c, 0, 57, 85
5, 305372, Note_on_c, 0, 57, 0
5, 305472, Note_on_c, 0, 53, 85
5, 305564, Note_on_c, 0, 53, 0
5, 305664, Note_on_c, 0, 48, 85
5, 305756, Note_on_c, 0, 48, 0
5, 305856, Note_on_c, 0, 50, 85
5, 305948, Note_on_c, 0, 50, 0
5, 306048, Note_on_c, 0, 53, 85
5, 306140, Note_on_c, 0, 53, 0
5, 306240, Note_on_c, 0, 50, 85
5, 306332, Note_on_c, 0, 50, 0
5, 306432, Note_on_c, 0, 48, 85
5, 306524, Note_on_c, 0, 48, 0
5, 306624, Note_on_c, 0, 52, 85
5, 306716, Note_on_c, 0, 52, 0
5, 306816, Note_on_c, 0, 55, 85
5, 306908, Note_on_c, 0, 55, 0
5, 307008, Note_on_c, 0, 60, 85
5, 307100, Note_on_c, 0, 60, 0
5, 307196, Note_on_c, 0, 48, 0
5, 309504, Note_on_c, 0, 59, 85
5, 309504, Note_on_c, 0, 47, 85
5, 309884, Note_on_c, 0, 47, 0
5, 309884, Note_on_c, 0, 59, 0
5, 310272, Note_on_c, 0, 60, 85
5, 310272, Note_on_c, 0, 48, 85
5, 310652, Note_on_c, 0, 48, 0
5, 310652, Note_on_c, 0, 60, 0
5, 311040, Note_on_c, 0, 56, 85
5, 311040, Note_on_c, 0, 44, 85
5, 311420, Note_on_c, 0, 44, 0
5, 311420, Note_on_c, 0, 56, 0
5, 311808, Note_on_c, 0, 57, 85
5, 311808, Note_on_c, 0, 45, 85
5, 312188, Note_on_c, 0, 45, 0
5, 312188, Note_on_c, 0, 57, 0
5, 312576, Note_on_c, 0, 52, 85
5, 312576, Note_on_c, 0, 40, 85
5, 312956, Note_on_c, 0, 40, 0
5, 312956, Note_on_c, 0, 52, 0
5, 313728, Note_on_c, 0, 53, 85
5, 313728, Note_on_c, 0, 41, 85
5, 314108, Note_on_c, 0, 41, 0
5, 314108, Note_on_c, 0, 53, 0
5, 314496, Note_on_c, 0, 50, 85
5, 314496, Note_on_c, 0, 38, 85
5, 314876, Note_on_c, 0, 38, 0
5, 314876, Note_on_c, 0, 50, 0
5, 315264, Note_on_c, 0, 52, 85
5, 315264, Note_on_c, 0, 40, 85
5, 315644, Note_on_c, 0, 40, 0
5, 315644, Note_on_c, 0, 52, 0
5, 316032, Note_on_c, 0, 49, 85
5, 316032, Note_on_c, 0, 37, 85
5, 316412, Note_on_c, 0, 37, 0
5, 316412, Note_on_c, 0, 49, 0
5, 316800, Note_on_c, 0, 50, 85
5, 316800, Note_on_c, 0, 38, 85
5, 317180, Note_on_c, 0, 38, 0
5, 317180, Note_on_c, 0, 50, 0
5, 317568, Note_on_c, 0, 47, 85
5, 317568, Note_on_c, 0, 35, 85
5, 317948, Note_on_c, 0, 35, 0
5, 317948, Note_on_c, 0, 47, 0
5, 318336, Note_on_c, 0, 44, 85
5, 318336, Note_on_c, 0, 32, 85
5, 318716, Note_on_c, 0, 32, 0
5, 318716, Note_on_c, 0, 44, 0
5, 319104, Note_on_c, 0, 45, 85
5, 319104, Note_on_c, 0, 33, 85
5, 319484, Note_on_c, 0, 33, 0
5, 319484, Note_on_c, 0, 45, 0
5, 319488, Note_on_c, 0, 41, 85
5, 319488, Note_on_c, 0, 33, 85
5, 322172, Note_on_c, 0, 33, 0
5, 322172, Note_on_c, 0, 41, 0
5, 324096, Note_on_c, 0, 54, 89
5, 324096, Note_on_c, 0, 42, 89
5, 325628, Note_on_c, 0, 42, 0
5, 325628, Note_on_c, 0, 54, 0
5, 325632, Note_on_c, 0, 53, 89
5, 325632, Note_on_c, 0, 41, 89
5, 326780, Note_on_c, 0, 41, 0
5, 326780, Note_on_c, 0, 53, 0
5, 327168, Note_on_c, 0, 52, 89
5, 327168, Note_on_c, 0, 40, 89
5, 327548, Note_on_c, 0, 40, 0
5, 327548, Note_on_c, 0, 52, 0
5, 327552, Note_on_c, 0, 52, 89
5, 327552, Note_on_c, 0, 41, 89
5, 327932, Note_on_c, 0, 41, 0
5, 327932, Note_on_c, 0, 52, 0
5, 327936, Note_on_c, 0, 55, 89
5, 327936, Note_on_c, 0, 43, 89
5, 328316, Note_on_c, 0, 43, 0
5, 328316, Note_on_c, 0, 55, 0
5, 328320, Note_on_c, 0, 55, 89
5, 328320, Note_on_c, 0, 43, 89
5, 328700, Note_on_c, 0, 43, 0
5, 328700, Note_on_c, 0, 55, 0
5, 328704, Note_on_c, 0, 48, 89
5, 328704, Note_on_c, 0, 36, 89
5, 329084, Note_on_c, 0, 36, 0
5, 329084, Note_on_c, 0, 48, 0
5, 335616, Note_on_c, 0, 59, 89
5, 335616, Note_on_c, 0, 55, 89
5, 336188, Note_on_c, 0, 55, 0
5, 336188, Note_on_c, 0, 59, 0
5, 336384, Note_on_c, 0, 60, 89
5, 336384, Note_on_c, 0, 52, 89
5, 336764, Note_on_c, 0, 52, 0
5, 336764, Note_on_c, 0, 60, 0
5, 336768, Note_on_c, 0, 55, 89
5, 336768, Note_on_c, 0, 52, 89
5, 336956, Note_on_c, 0, 52, 0
5, 336956, Note_on_c, 0, 55, 0
5, 337152, Note_on_c, 0, 59, 89
5, 337152, Note_on_c, 0, 53, 89
5, 337724, Note_on_c, 0, 53, 0
5, 337724, Note_on_c, 0, 59, 0
5, 337920, Note_on_c, 0, 60, 89
5, 337920, Note_on_c, 0, 52, 89
5, 338300, Note_on_c, 0, 52, 0
5, 338300, Note_on_c, 0, 60, 0
5, 338304, Note_on_c, 0, 55, 89
5, 338304, Note_on_c, 0, 52, 89
5, 338492, Note_on_c, 0, 52, 0
5, 338492, Note_on_c, 0, 55, 0
5, 338688, Note_on_c, 0, 62, 89
5, 338688, Note_on_c, 0, 47, 89
5, 339068, Note_on_c, 0, 47, 0
5, 339068, Note_on_c, 0, 62, 0
5, 339072, Note_on_c, 0, 55, 89
5, 339072, Note_on_c, 0, 47, 89
5, 339260, Note_on_c, 0, 47, 0
5, 339260, Note_on_c, 0, 55, 0
5, 339456, Note_on_c, 0, 48, 89
5, 339456, Note_on_c, 0, 36, 89
5, 339644, Note_on_c, 0, 36, 0
5, 339644, Note_on_c, 0, 48, 0
5, 339648, Note_on_c, 0, 60, 89
5, 339648, Note_on_c, 0, 48, 89
5, 339836, Note_on_c, 0, 48, 0
5, 339836, Note_on_c, 0, 60, 0
5, 339840, Note_on_c, 0, 58, 89
5, 339840, Note_on_c, 0, 46, 89
5, 340028, Note_on_c, 0, 46, 0
5, 340028, Note_on_c, 0, 58, 0
5, 340032, Note_on_c, 0, 60, 89
5, 340032, Note_on_c, 0, 48, 89
5, 340220, Note_on_c, 0, 48, 0
5, 340220, Note_on_c, 0, 60, 0
5, 340224, Note_on_c, 0, 57, 89
5, 340224, Note_on_c, 0, 45, 89
5, 340412, Note_on_c, 0, 45, 0
5, 340412, Note_on_c, 0, 57, 0
5, 340416, Note_on_c, 0, 60, 89
5, 340416, Note_on_c, 0, 48, 89
5, 340604, Note_on_c, 0, 48, 0
5, 340604, Note_on_c, 0, 60, 0
5, 340608, Note_on_c, 0, 57, 89
5, 340608, Note_on_c, 0, 45, 89
5, 340796, Note_on_c, 0, 45, 0
5, 340796, Note_on_c, 0, 57, 0
5, 340800, Note_on_c, 0, 60, 89
5, 340800, Note_on_c, 0, 48, 89
5, 340988, Note_on_c, 0, 48, 0
5, 340988, Note_on_c, 0, 60, 0
5, 340992, Note_on_c, 0, 52, 89
5, 340992, Note_on_c, 0, 40, 89
5, 341180, Note_on_c, 0, 40, 0
5, 341180, Note_on_c, 0, 52, 0
5, 341184, Note_on_c, 0, 60, 89
5, 341184, Note_on_c, 0, 48, 89
5, 341372, Note_on_c, 0, 48, 0
5, 341372, Note_on_c, 0, 60, 0
5, 341376, Note_on_c, 0, 52, 89
5, 341376, Note_on_c, 0, 40, 89
5, 341564, Note_on_c, 0, 40, 0
5, 341564, Note_on_c, 0, 52, 0
5, 341568, Note_on_c, 0, 60, 89
5, 341568, Note_on_c, 0, 48, 89
5, 341756, Note_on_c, 0, 48, 0
5, 341756, Note_on_c, 0, 60, 0
5, 341760, Note_on_c, 0, 53, 89
5, 341760, Note_on_c, 0, 41, 89
5, 341948, Note_on_c, 0, 41, 0
5, 341948, Note_on_c, 0, 53, 0
5, 341952, Note_on_c, 0, 60, 89
5, 341952, Note_on_c, 0, 48, 89
5, 342140, Note_on_c, 0, 48, 0
5, 342140, Note_on_c, 0, 60, 0
5, 342144, Note_on_c, 0, 50, 89
5, 342144, Note_on_c, 0, 38, 89
5, 342332, Note_on_c, 0, 38, 0
5, 342332, Note_on_c, 0, 50, 0
5, 342336, Note_on_c, 0, 57, 89
5, 342336, Note_on_c, 0, 43, 89
5, 342524, Note_on_c, 0, 43, 0
5, 342524, Note_on_c, 0, 57, 0
5, 342528, Note_on_c, 0, 48, 89
5, 342528, Note_on_c, 0, 36, 89
5, 342716, Note_on_c, 0, 36, 0
5, 342716, Note_on_c, 0, 48, 0
5, 342720, Note_on_c, 0, 60, 89
5, 342720, Note_on_c, 0, 48, 89
5, 342908, Note_on_c, 0, 48, 0
5, 342908, Note_on_c, 0, 60, 0
5, 342912, Note_on_c, 0, 57, 89
5, 342912, Note_on_c, 0, 45, 89
5, 343100, Note_on_c, 0, 45, 0
5, 343100, Note_on_c, 0, 57, 0
5, 343104, Note_on_c, 0, 60, 89
5, 343104, Note_on_c, 0, 48, 89
5, 343292, Note_on_c, 0, 48, 0
5, 343292, Note_on_c, 0, 60, 0
5, 343296, Note_on_c, 0, 55, 89
5, 343296, Note_on_c, 0, 43, 89
5, 343484, Note_on_c, 0, 43, 0
5, 343484, Note_on_c, 0, 55, 0
5, 343488, Note_on_c, 0, 60, 89
5, 343488, Note_on_c, 0, 48, 89
5, 343676, Note_on_c, 0, 48, 0
5, 343676, Note_on_c, 0, 60, 0
5, 343680, Note_on_c, 0, 53, 89
5, 343680, Note_on_c, 0, 41, 89
5, 343868, Note_on_c, 0, 41, 0
5, 343868, Note_on_c, 0, 53, 0
5, 343872, Note_on_c, 0, 60, 89
5, 343872, Note_on_c, 0, 48, 89
5, 344060, Note_on_c, 0, 48, 0
5, 344060, Note_on_c, 0, 60, 0
5, 344064, Note_on_c, 0, 55, 89
5, 344064, Note_on_c, 0, 43, 89
5, 344636, Note_on_c, 0, 43, 0
5, 344636, Note_on_c, 0, 55, 0
5, 384768, Note_on_c, 0, 48, 83
5, 384768, Note_on_c, 0, 36, 83
5, 385148, Note_on_c, 0, 36, 0
5, 385148, Note_on_c, 0, 48, 0
5, 386304, Note_on_c, 0, 60, 83
5, 386304, Note_on_c, 0, 48, 83
5, 386684, Note_on_c, 0, 48, 0
5, 386684, Note_on_c, 0, 60, 0
5, 387072, Note_on_c, 0, 55, 83
5, 387072, Note_on_c, 0, 45, 83
5, 387452, Note_on_c, 0, 45, 0
5, 387452, Note_on_c, 0, 55, 0
5, 387840, Note_on_c, 0, 48, 83
5, 387840, Note_on_c, 0, 36, 83
5, 388220, Note_on_c, 0, 36, 0
5, 388220, Note_on_c, 0, 48, 0
5, 389376, Note_on_c, 0, 60, 83
5, 389376, Note_on_c, 0, 48, 83
5, 389756, Note_on_c, 0, 48, 0
5, 389756, Note_on_c, 0, 60, 0
5, 390144, Note_on_c, 0, 55, 83
5, 390144, Note_on_c, 0, 43, 83
5, 390524, Note_on_c, 0, 43, 0
5, 390524, Note_on_c, 0, 55, 0
5, 390912, Note_on_c, 0, 48, 83
5, 390912, Note_on_c, 0, 36, 83
5, 391292, Note_on_c, 0, 36, 0
5, 391292, Note_on_c, 0, 48, 0
5, 391680, Note_on_c, 0, 60, 89
5, 391772, Note_on_c, 0, 60, 0
5, 391872, Note_on_c, 0, 62, 89
5, 391964, Note_on_c, 0, 62, 0
5, 392064, Note_on_c, 0, 63, 89
5, 392156, Note_on_c, 0, 63, 0
5, 392256, Note_on_c, 0, 64, 89
5, 392348, Note_on_c, 0, 64, 0
5, 392448, Note_on_c, 0, 65, 89
5, 392448, Note_on_c, 0, 60, 89
5, 392636, Note_on_c, 0, 65, 0
5, 392640, Note_on_c, 0, 64, 89
5, 392828, Note_on_c, 0, 64, 0
5, 392828, Note_on_c, 0, 60, 0
5, 392832, Note_on_c, 0, 62, 89
5, 392924, Note_on_c, 0, 62, 0
5, 393024, Note_on_c, 0, 60, 89
5, 393116, Note_on_c, 0, 60, 0
5, 393216, Note_on_c, 0, 59, 89
5, 393216, Note_on_c, 0, 55, 89
5, 393360, Note_on_c, 0, 60, 89
5, 393404, Note_on_c, 0, 60, 0
5, 393404, Note_on_c, 0, 59, 0
5, 393408, Note_on_c, 0, 59, 89
5, 393500, Note_on_c, 0, 59, 0
5, 393504, Note_on_c, 0, 57, 89
5, 393596, Note_on_c, 0, 57, 0
5, 393596, Note_on_c, 0, 55, 0
5, 393600, Note_on_c, 0, 59, 89
5, 393600, Note_on_c, 0, 55, 89
5, 393788, Note_on_c, 0, 55, 0
5, 393788, Note_on_c, 0, 59, 0
5, 393792, Note_on_c, 0, 55, 89
5, 393792, Note_on_c, 0, 59, 89
5, 393884, Note_on_c, 0, 59, 0
5, 393980, Note_on_c, 0, 55, 0
5, 393984, Note_on_c, 0, 59, 89
5, 393984, Note_on_c, 0, 55, 89
5, 393984, Note_on_c, 0, 48, 89
5, 394364, Note_on_c, 0, 48, 0
5, 394364, Note_on_c, 0, 55, 0
5, 394364, Note_on_c, 0, 59, 0
5, 394368, Note_on_c, 0, 60, 89
5, 394556, Note_on_c, 0, 60, 0
5, 394752, Note_on_c, 0, 60, 89
5, 394844, Note_on_c, 0, 60, 0
5, 394944, Note_on_c, 0, 62, 89
5, 395036, Note_on_c, 0, 62, 0
5, 395136, Note_on_c, 0, 63, 89
5, 395228, Note_on_c, 0, 63, 0
5, 395328, Note_on_c, 0, 64, 89
5, 395420, Note_on_c, 0, 64, 0
5, 395520, Note_on_c, 0, 65, 89
5, 395708, Note_on_c, 0, 65, 0
5, 395712, Note_on_c, 0, 64, 89
5, 395900, Note_on_c, 0, 64, 0
5, 395904, Note_on_c, 0, 62, 89
5, 395996, Note_on_c, 0, 62, 0
5, 396096, Note_on_c, 0, 60, 89
5, 396188, Note_on_c, 0, 60, 0
5, 396288, Note_on_c, 0, 59, 89
5, 396288, Note_on_c, 0, 55, 89
5, 396432, Note_on_c, 0, 60, 89
5, 396476, Note_on_c, 0, 60, 0
5, 396476, Note_on_c, 0, 59, 0
5, 396480, Note_on_c, 0, 59, 89
5, 396572, Note_on_c, 0, 59, 0
5, 396576, Note_on_c, 0, 57, 89
5, 396668, Note_on_c, 0, 57, 0
5, 396668, Note_on_c, 0, 55, 0
5, 396672, Note_on_c, 0, 59, 89
5, 396672, Note_on_c, 0, 55, 89
5, 396860, Note_on_c, 0, 55, 0
5, 396860, Note_on_c, 0, 59, 0
5, 396864, Note_on_c, 0, 55, 89
5, 396864, Note_on_c, 0, 60, 89
5, 396956, Note_on_c, 0, 60, 0
5, 397052, Note_on_c, 0, 55, 0
5, 397056, Note_on_c, 0, 60, 89
5, 397056, Note_on_c, 0, 55, 89
5, 397056, Note_on_c, 0, 48, 89
5, 397436, Note_on_c, 0, 48, 0
5, 397436, Note_on_c, 0, 55, 0
5, 397436, Note_on_c, 0, 60, 0
5, 397824, Note_on_c, 0, 59, 103
5, 397824, Note_on_c, 0, 55, 103
5, 398204, Note_on_c, 0, 55, 0
5, 398204, Note_on_c, 0, 59, 0
5, 398208, Note_on_c, 0, 59, 103
5, 398208, Note_on_c, 0, 55, 103
5, 398396, Note_on_c, 0, 55, 0
5, 398396, Note_on_c, 0, 59, 0
5, 398400, Note_on_c, 0, 55, 103
5, 398492, Note_on_c, 0, 55, 0
5, 398592, Note_on_c, 0, 60, 103
5, 398592, Note_on_c, 0, 48, 103
5, 398780, Note_on_c, 0, 48, 0
5, 398780, Note_on_c, 0, 60, 0
5, 399360, Note_on_c, 0, 55, 103
5, 399360, Note_on_c, 0, 43, 103
5, 399740, Note_on_c, 0, 43, 0
5, 399740, Note_on_c, 0, 55, 0
5, 399744, Note_on_c, 0, 62, 103
5, 399744, Note_on_c, 0, 55, 103
5, 399932, Note_on_c, 0, 55, 0
5, 399932, Note_on_c, 0, 62, 0
5, 399936, Note_on_c, 0, 64, 103
5, 399936, Note_on_c, 0, 55, 103
5, 400124, Note_on_c, 0, 55, 0
5, 400124, Note_on_c, 0, 64, 0
5, 400128, Note_on_c, 0, 60, 103
5, 400128, Note_on_c, 0, 52, 103
5, 400128, Note_on_c, 0, 48, 103
5, 400508, Note_on_c, 0, 48, 0
5, 400508, Note_on_c, 0, 52, 0
5, 400508, Note_on_c, 0, 60, 0
5, 400896, Note_on_c, 0, 55, 112
5, 400896, Note_on_c, 0, 43, 112
5, 401276, Note_on_c, 0, 43, 0
5, 401276, Note_on_c, 0, 55, 0
5, 401280, Note_on_c, 0, 55, 112
5, 401280, Note_on_c, 0, 43, 112
5, 401660, Note_on_c, 0, 43, 0
5, 401660, Note_on_c, 0, 55, 0
5, 401664, Note_on_c, 0, 48, 112
5, 401664, Note_on_c, 0, 36, 112
5, 402044, Note_on_c, 0, 36, 0
5, 402044, Note_on_c, 0, 48, 0
5, 402044, End_track
0, 0, End_of_file
