0, 0, Header, 0, 1, 384
1, 0, Start_track
1, 0, Tempo, 512820
1, 0, Title_t, ""
1, 0, Control_c, 0, 64, 0
1, 748, Control_c, 0, 64, 127
1, 748, Note_on_c, 0, 71, 69
1, 781, Note_on_c, 0, 55, 18
1, 1020, Note_on_c, 0, 62, 17
1, 1137, Note_off_c, 0, 55, 64
1, 1174, Note_off_c, 0, 62, 64
1, 1210, Note_on_c, 0, 59, 15
1, 1357, Note_off_c, 0, 59, 64
1, 1364, Note_on_c, 0, 62, 36
1, 1502, Note_off_c, 0, 62, 64
1, 1530, Note_on_c, 0, 55, 33
1, 1705, Note_on_c, 0, 62, 31
1, 1812, Note_off_c, 0, 62, 64
1, 1823, Note_off_c, 0, 55, 64
1, 1872, Note_on_c, 0, 59, 33
1, 2037, Note_off_c, 0, 59, 64
1, 2049, Note_on_c, 0, 62, 37
1, 2213, Note_off_c, 0, 62, 64
1, 2243, Note_on_c, 0, 74, 55
1, 2260, Control_c, 0, 64, 0
1, 2269, Note_on_c, 0, 57, 18
1, 2325, Note_off_c, 0, 71, 64
1, 2442, Note_on_c, 0, 72, 69
1, 2469, Note_on_c, 0, 62, 29
1, 2522, Note_off_c, 0, 74, 64
1, 2603, Note_on_c, 0, 71, 85
1, 2612, Note_off_c, 0, 62, 64
1, 2620, Control_c, 0, 64, 127
1, 2628, Note_on_c, 0, 60, 33
1, 2655, Note_off_c, 0, 72, 64
1, 2712, Note_off_c, 0, 60, 64
1, 2765, Note_on_c, 0, 72, 81
1, 2790, Note_on_c, 0, 62, 29
1, 2823, Note_off_c, 0, 71, 64
1, 2900, Note_off_c, 0, 62, 64
1, 2943, Control_c, 0, 64, 0
1, 2949, Note_off_c, 0, 57, 64
1, 2956, Note_on_c, 0, 74, 68
1, 2993, Note_on_c, 0, 55, 23
1, 3007, Note_off_c, 0, 72, 64
1, 3162, Note_on_c, 0, 62, 30
1, 3296, Note_off_c, 0, 62, 64
1, 3314, Control_c, 0, 64, 127
1, 3338, Note_on_c, 0, 59, 25
1, 3433, Note_off_c, 0, 55, 64
1, 3478, Note_on_c, 0, 71, 51
1, 3538, Note_on_c, 0, 62, 24
1, 3548, Note_off_c, 0, 74, 64
1, 3573, Note_off_c, 0, 59, 64
1, 3616, Note_off_c, 0, 62, 64
1, 3639, Control_c, 0, 64, 0
1, 3662, Note_on_c, 0, 67, 41
1, 3694, Note_on_c, 0, 55, 28
1, 3733, Note_off_c, 0, 71, 64
1, 3848, Note_on_c, 0, 62, 33
1, 3988, Note_off_c, 0, 62, 64
1, 4010, Note_off_c, 0, 55, 64
1, 4010, Control_c, 0, 64, 127
1, 4020, Note_on_c, 0, 59, 25
1, 4191, Note_on_c, 0, 62, 32
1, 4205, Note_off_c, 0, 59, 64
1, 4299, Note_off_c, 0, 62, 64
1, 4371, Note_on_c, 0, 55, 28
1, 4430, Note_off_c, 0, 67, 64
1, 4489, Control_c, 0, 64, 0
1, 4528, Note_on_c, 0, 62, 29
1, 4676, Note_off_c, 0, 62, 64
1, 4701, Note_on_c, 0, 59, 21
1, 4753, Control_c, 0, 64, 127
1, 4772, Note_off_c, 0, 55, 64
1, 4867, Note_off_c, 0, 59, 64
1, 4879, Note_on_c, 0, 62, 27
1, 5023, Note_off_c, 0, 62, 64
1, 5118, Note_on_c, 0, 55, 20
1, 5123, Note_on_c, 0, 79, 55
1, 5160, Control_c, 0, 64, 0
1, 5338, Note_on_c, 0, 64, 30
1, 5469, Note_off_c, 0, 64, 64
1, 5472, Control_c, 0, 64, 127
1, 5520, Note_on_c, 0, 60, 21
1, 5547, Note_off_c, 0, 55, 64
1, 5704, Note_on_c, 0, 64, 29
1, 5722, Note_off_c, 0, 60, 64
1, 5820, Note_off_c, 0, 64, 64
1, 5876, Note_on_c, 0, 55, 29
1, 6035, Note_on_c, 0, 64, 34
1, 6130, Note_off_c, 0, 64, 64
1, 6157, Note_off_c, 0, 55, 64
1, 6235, Note_on_c, 0, 81, 61
1, 6249, Note_on_c, 0, 60, 20
1, 6269, Note_off_c, 0, 79, 64
1, 6411, Note_off_c, 0, 60, 64
1, 6414, Note_on_c, 0, 79, 84
1, 6422, Note_on_c, 0, 64, 33
1, 6481, Note_off_c, 0, 81, 64
1, 6595, Note_off_c, 0, 64, 64
1, 6598, Note_on_c, 0, 78, 72
1, 6620, Note_on_c, 0, 55, 32
1, 6665, Note_off_c, 0, 79, 64
1, 6683, Control_c, 0, 64, 0
1, 6775, Note_on_c, 0, 76, 66
1, 6789, Note_on_c, 0, 61, 40
1, 6829, Note_off_c, 0, 78, 64
1, 6874, Control_c, 0, 64, 127
1, 6909, Note_off_c, 0, 61, 64
1, 6935, Note_on_c, 0, 74, 76
1, 6948, Note_on_c, 0, 58, 27
1, 6956, Note_off_c, 0, 76, 64
1, 7018, Note_off_c, 0, 55, 64
1, 7074, Note_off_c, 0, 58, 64
1, 7091, Note_on_c, 0, 73, 71
1, 7115, Note_on_c, 0, 61, 36
1, 7130, Note_off_c, 0, 74, 64
1, 7261, Note_off_c, 0, 61, 64
1, 7305, Control_c, 0, 64, 0
1, 7313, Note_on_c, 0, 74, 60
1, 7331, Note_on_c, 0, 55, 23
1, 7377, Note_off_c, 0, 73, 64
1, 7541, Note_on_c, 0, 62, 27
1, 7653, Control_c, 0, 64, 127
1, 7697, Note_off_c, 0, 62, 64
1, 7760, Note_on_c, 0, 59, 20
1, 7760, Note_off_c, 0, 55, 64
1, 7892, Note_off_c, 0, 59, 64
1, 7927, Note_on_c, 0, 71, 49
1, 7960, Note_on_c, 0, 62, 22
1, 7993, Note_off_c, 0, 74, 64
1, 8073, Control_c, 0, 64, 0
1, 8082, Note_off_c, 0, 62, 64
1, 8126, Note_on_c, 0, 67, 39
1, 8154, Note_on_c, 0, 55, 27
1, 8177, Note_off_c, 0, 71, 64
1, 8321, Note_on_c, 0, 62, 30
1, 8358, Note_off_c, 0, 55, 64
1, 8397, Control_c, 0, 64, 127
1, 8450, Note_off_c, 0, 62, 64
1, 8494, Note_on_c, 0, 59, 26
1, 8578, Note_off_c, 0, 59, 64
1, 8665, Note_on_c, 0, 62, 26
1, 8812, Note_off_c, 0, 62, 64
1, 8843, Note_on_c, 0, 55, 27
1, 8854, Note_off_c, 0, 67, 64
1, 8899, Control_c, 0, 64, 0
1, 8999, Note_on_c, 0, 62, 29
1, 9077, Note_off_c, 0, 62, 64
1, 9140, Control_c, 0, 64, 127
1, 9180, Note_on_c, 0, 59, 18
1, 9289, Note_off_c, 0, 59, 64
1, 9358, Note_on_c, 0, 62, 22
1, 9492, Note_off_c, 0, 62, 64
1, 9522, Note_off_c, 0, 55, 64
1, 9562, Note_on_c, 0, 72, 37
1, 9570, Control_c, 0, 64, 0
1, 9581, Note_on_c, 0, 57, 14
1, 9784, Note_on_c, 0, 62, 30
1, 9926, Note_off_c, 0, 62, 64
1, 9943, Control_c, 0, 64, 127
1, 9966, Note_on_c, 0, 60, 24
1, 10038, Note_off_c, 0, 57, 64
1, 10119, Note_off_c, 0, 60, 64
1, 10119, Note_on_c, 0, 69, 34
1, 10149, Note_on_c, 0, 62, 25
1, 10154, Note_off_c, 0, 72, 64
1, 10249, Note_off_c, 0, 62, 64
1, 10249, Note_off_c, 0, 69, 64
1, 10266, Control_c, 0, 64, 0
1, 10281, Note_on_c, 0, 66, 34
1, 10305, Note_on_c, 0, 57, 26
1, 10458, Note_off_c, 0, 66, 64
1, 10458, Control_c, 0, 64, 127
1, 10473, Note_on_c, 0, 62, 32
1, 10542, Note_off_c, 0, 62, 64
1, 10553, Control_c, 0, 64, 0
1, 10609, Note_on_c, 0, 69, 45
1, 10640, Note_on_c, 0, 60, 25
1, 10687, Note_off_c, 0, 57, 64
1, 10768, Control_c, 0, 64, 127
1, 10774, Note_off_c, 0, 69, 64
1, 10798, Note_on_c, 0, 62, 29
1, 10857, Note_off_c, 0, 60, 64
1, 10873, Note_off_c, 0, 62, 64
1, 10890, Control_c, 0, 64, 0
1, 10924, Note_on_c, 0, 71, 65
1, 10951, Note_on_c, 0, 57, 26
1, 11066, Note_off_c, 0, 71, 64
1, 11093, Control_c, 0, 64, 127
1, 11100, Note_on_c, 0, 62, 36
1, 11199, Note_off_c, 0, 62, 64
1, 11213, Control_c, 0, 64, 0
1, 11244, Note_on_c, 0, 72, 57
1, 11267, Note_on_c, 0, 60, 32
1, 11403, Note_off_c, 0, 72, 64
1, 11426, Note_on_c, 0, 62, 30
1, 11426, Control_c, 0, 64, 127
1, 11470, Note_off_c, 0, 60, 64
1, 11510, Note_off_c, 0, 62, 64
1, 11542, Note_off_c, 0, 57, 64
1, 11548, Control_c, 0, 64, 0
1, 11573, Note_on_c, 0, 74, 62
1, 11609, Note_on_c, 0, 55, 20
1, 11754, Note_on_c, 0, 62, 28
1, 11865, Note_off_c, 0, 62, 64
1, 11930, Note_on_c, 0, 59, 21
1, 11968, Control_c, 0, 64, 127
1, 12083, Note_on_c, 0, 71, 51
1, 12094, Note_off_c, 0, 59, 64
1, 12094, Note_off_c, 0, 74, 64
1, 12107, Note_on_c, 0, 62, 29
1, 12141, Note_off_c, 0, 55, 64
1, 12206, Note_off_c, 0, 62, 64
1, 12267, Control_c, 0, 64, 0
1, 12288, Note_off_c, 0, 71, 64
1, 12291, Note_on_c, 0, 79, 57
1, 12305, Note_on_c, 0, 52, 43
1, 12453, Note_on_c, 0, 59, 33
1, 12592, Note_off_c, 0, 59, 64
1, 12620, Note_on_c, 0, 55, 38
1, 12651, Control_c, 0, 64, 127
1, 12720, Note_off_c, 0, 52, 64
1, 12782, Note_off_c, 0, 55, 64
1, 12807, Note_on_c, 0, 59, 38
1, 12921, Note_off_c, 0, 59, 64
1, 12980, Note_on_c, 0, 47, 39
1, 13033, Control_c, 0, 64, 0
1, 13061, Note_off_c, 0, 79, 64
1, 13142, Note_on_c, 0, 55, 46
1, 13305, Note_off_c, 0, 55, 64
1, 13320, Note_on_c, 0, 50, 47
1, 13345, Control_c, 0, 64, 127
1, 13397, Note_off_c, 0, 50, 64
1, 13490, Note_on_c, 0, 55, 47
1, 13657, Note_off_c, 0, 55, 64
1, 13706, Control_c, 0, 64, 0
1, 13740, Note_on_c, 0, 81, 56
1, 13740, Note_on_c, 0, 48, 27
1, 13751, Note_on_c, 0, 52, 41
1, 13804, Note_off_c, 0, 47, 64
1, 13941, Note_on_c, 0, 79, 74
1, 13999, Note_off_c, 0, 81, 64
1, 14100, Note_on_c, 0, 78, 73
1, 14125, Control_c, 0, 64, 127
1, 14128, Note_off_c, 0, 79, 64
1, 14233, Control_c, 0, 64, 0
1, 14259, Note_on_c, 0, 79, 81
1, 14283, Note_off_c, 0, 78, 64
1, 14431, Note_on_c, 0, 55, 38
1, 14431, Note_on_c, 0, 78, 73
1, 14468, Note_off_c, 0, 79, 64
1, 14503, Note_off_c, 0, 52, 64
1, 14593, Note_on_c, 0, 76, 66
1, 14618, Note_off_c, 0, 78, 64
1, 14737, Control_c, 0, 64, 127
1, 14751, Note_on_c, 0, 75, 62
1, 14760, Control_c, 0, 64, 0
1, 14773, Note_off_c, 0, 76, 64
1, 14904, Control_c, 0, 64, 127
1, 14904, Note_on_c, 0, 76, 61
1, 14927, Note_off_c, 0, 75, 64
1, 14940, Control_c, 0, 64, 0
1, 15096, Note_on_c, 0, 74, 54
1, 15119, Note_on_c, 0, 52, 35
1, 15119, Note_off_c, 0, 76, 64
1, 15230, Note_off_c, 0, 48, 64
1, 15263, Note_on_c, 0, 72, 46
1, 15263, Note_off_c, 0, 74, 64
1, 15415, Note_off_c, 0, 72, 64
1, 15422, Note_on_c, 0, 71, 56
1, 15573, Note_off_c, 0, 55, 64
1, 15593, Note_on_c, 0, 72, 56
1, 15607, Note_off_c, 0, 71, 64
1, 15610, Control_c, 0, 64, 127
1, 15791, Control_c, 0, 64, 0
1, 15848, Note_on_c, 0, 71, 52
1, 15858, Note_off_c, 0, 52, 64
1, 15861, Note_on_c, 0, 55, 23
1, 15869, Note_on_c, 0, 50, 22
1, 15933, Note_off_c, 0, 72, 64
1, 16390, Control_c, 0, 64, 127
1, 16493, Note_off_c, 0, 71, 64
1, 16520, Note_on_c, 0, 72, 25
1, 16595, Note_off_c, 0, 72, 64
1, 16609, Note_on_c, 0, 71, 28
1, 16726, Control_c, 0, 64, 0
1, 16738, Note_off_c, 0, 71, 64
1, 16766, Note_on_c, 0, 54, 22
1, 16766, Note_off_c, 0, 55, 64
1, 16771, Note_on_c, 0, 69, 17
1, 17110, Control_c, 0, 64, 127
1, 17172, Note_on_c, 0, 74, 38
1, 17203, Note_off_c, 0, 69, 64
1, 17228, Control_c, 0, 64, 0
1, 17397, Control_c, 0, 64, 127
1, 17518, Note_on_c, 0, 73, 30
1, 17535, Note_off_c, 0, 50, 64
1, 17556, Note_off_c, 0, 54, 64
1, 17564, Note_off_c, 0, 74, 64
1, 17637, Control_c, 0, 64, 0
1, 17827, Control_c, 0, 64, 127
1, 17963, Note_on_c, 0, 72, 22
1, 17975, Note_off_c, 0, 73, 64
1, 18044, Control_c, 0, 64, 0
1, 18236, Control_c, 0, 64, 127
1, 18478, Note_on_c, 0, 71, 29
1, 18481, Note_off_c, 0, 72, 64
1, 18490, Note_on_c, 0, 55, 19
1, 18510, Control_c, 0, 64, 0
1, 18755, Note_on_c, 0, 62, 18
1, 18787, Control_c, 0, 64, 127
1, 18874, Note_off_c, 0, 62, 64
1, 18946, Note_on_c, 0, 59, 17
1, 18966, Note_off_c, 0, 55, 64
1, 19124, Note_off_c, 0, 59, 64
1, 19136, Note_on_c, 0, 62, 22
1, 19244, Note_off_c, 0, 62, 64
1, 19317, Note_on_c, 0, 55, 32
1, 19339, Control_c, 0, 64, 0
1, 19482, Note_on_c, 0, 67, 39
1, 19495, Control_c, 0, 64, 127
1, 19504, Note_on_c, 0, 62, 25
1, 19504, Note_off_c, 0, 71, 64
1, 19616, Note_off_c, 0, 62, 64
1, 19654, Note_on_c, 0, 71, 63
1, 19682, Note_off_c, 0, 67, 64
1, 19690, Note_on_c, 0, 59, 21
1, 19794, Note_off_c, 0, 59, 64
1, 19818, Note_on_c, 0, 74, 70
1, 19840, Note_off_c, 0, 71, 64
1, 19846, Note_on_c, 0, 62, 30
1, 19935, Note_off_c, 0, 62, 64
1, 19980, Note_off_c, 0, 55, 64
1, 19985, Note_on_c, 0, 72, 60
1, 20007, Note_on_c, 0, 57, 20
1, 20021, Control_c, 0, 64, 0
1, 20035, Note_off_c, 0, 74, 64
1, 20141, Note_on_c, 0, 69, 51
1, 20170, Note_on_c, 0, 62, 29
1, 20189, Note_off_c, 0, 72, 64
1, 20312, Note_off_c, 0, 62, 64
1, 20312, Note_on_c, 0, 72, 55
1, 20350, Note_on_c, 0, 60, 21
1, 20361, Note_off_c, 0, 69, 64
1, 20479, Note_on_c, 0, 76, 49
1, 20496, Note_off_c, 0, 72, 64
1, 20510, Note_on_c, 0, 62, 28
1, 20601, Note_off_c, 0, 60, 64
1, 20648, Note_off_c, 0, 62, 64
1, 20688, Note_on_c, 0, 74, 55
1, 20705, Note_off_c, 0, 57, 64
1, 20721, Note_on_c, 0, 55, 18
1, 20737, Note_off_c, 0, 76, 64
1, 20894, Note_on_c, 0, 62, 23
1, 21039, Note_off_c, 0, 62, 64
1, 21084, Note_on_c, 0, 59, 19
1, 21217, Note_off_c, 0, 55, 64
1, 21217, Control_c, 0, 64, 127
1, 21262, Note_on_c, 0, 71, 38
1, 21267, Note_off_c, 0, 74, 64
1, 21297, Note_on_c, 0, 62, 19
1, 21373, Note_off_c, 0, 62, 64
1, 21373, Control_c, 0, 64, 0
1, 21389, Note_off_c, 0, 71, 64
1, 21429, Note_on_c, 0, 67, 40
1, 21453, Note_off_c, 0, 59, 64
1, 21453, Note_on_c, 0, 55, 32
1, 21493, Note_off_c, 0, 67, 64
1, 21601, Note_on_c, 0, 67, 49
1, 21630, Note_on_c, 0, 62, 23
1, 21652, Note_off_c, 0, 67, 64
1, 21713, Note_off_c, 0, 62, 64
1, 21751, Note_on_c, 0, 69, 54
1, 21790, Note_on_c, 0, 59, 25
1, 21816, Note_off_c, 0, 69, 64
1, 21866, Note_off_c, 0, 55, 64
1, 21905, Note_on_c, 0, 71, 82
1, 21941, Note_on_c, 0, 62, 32
1, 21958, Note_off_c, 0, 71, 64
1, 22010, Note_off_c, 0, 62, 64
1, 22052, Note_on_c, 0, 72, 75
1, 22084, Note_on_c, 0, 55, 33
1, 22102, Note_off_c, 0, 59, 64
1, 22151, Note_off_c, 0, 72, 64
1, 22209, Note_on_c, 0, 74, 84
1, 22226, Note_on_c, 0, 62, 36
1, 22300, Note_off_c, 0, 74, 64
1, 22337, Note_off_c, 0, 62, 64
1, 22353, Note_on_c, 0, 76, 78
1, 22364, Note_on_c, 0, 59, 36
1, 22448, Note_off_c, 0, 76, 64
1, 22501, Note_on_c, 0, 78, 84
1, 22506, Note_off_c, 0, 55, 64
1, 22518, Note_on_c, 0, 62, 36
1, 22582, Note_off_c, 0, 78, 64
1, 22621, Note_off_c, 0, 59, 64
1, 22669, Note_on_c, 0, 79, 92
1, 22677, Note_off_c, 0, 62, 64
1, 22693, Note_on_c, 0, 55, 37
1, 22836, Note_on_c, 0, 78, 84
1, 22864, Note_off_c, 0, 79, 64
1, 22869, Note_on_c, 0, 64, 31
1, 22969, Control_c, 0, 64, 127
1, 23000, Note_off_c, 0, 64, 64
1, 23008, Note_on_c, 0, 79, 95
1, 23017, Control_c, 0, 64, 0
1, 23036, Note_on_c, 0, 60, 32
1, 23052, Note_off_c, 0, 78, 64
1, 23161, Note_on_c, 0, 78, 81
1, 23186, Control_c, 0, 64, 127
1, 23194, Note_off_c, 0, 55, 64
1, 23203, Note_on_c, 0, 64, 28
1, 23211, Note_off_c, 0, 79, 64
1, 23289, Note_off_c, 0, 64, 64
1, 23329, Control_c, 0, 64, 0
1, 23345, Note_on_c, 0, 81, 62
1, 23368, Note_on_c, 0, 55, 17
1, 23376, Note_off_c, 0, 78, 64
1, 23396, Note_off_c, 0, 60, 64
1, 23543, Note_on_c, 0, 79, 64
1, 23549, Note_on_c, 0, 64, 28
1, 23568, Note_off_c, 0, 81, 64
1, 23616, Control_c, 0, 64, 127
1, 23683, Note_off_c, 0, 64, 64
1, 23705, Note_on_c, 0, 78, 55
1, 23721, Note_off_c, 0, 79, 64
1, 23738, Note_on_c, 0, 60, 22
1, 23808, Control_c, 0, 64, 0
1, 23858, Note_off_c, 0, 55, 64
1, 23868, Control_c, 0, 64, 127
1, 23877, Note_on_c, 0, 79, 53
1, 23888, Note_off_c, 0, 78, 64
1, 23903, Note_on_c, 0, 64, 26
1, 23949, Note_off_c, 0, 60, 64
1, 24025, Control_c, 0, 64, 0
1, 24041, Note_on_c, 0, 78, 52
1, 24056, Note_off_c, 0, 79, 64
1, 24062, Note_on_c, 0, 55, 14
1, 24087, Note_off_c, 0, 64, 64
1, 24201, Note_on_c, 0, 76, 45
1, 24214, Note_on_c, 0, 61, 26
1, 24219, Note_off_c, 0, 78, 64
1, 24276, Control_c, 0, 64, 127
1, 24336, Control_c, 0, 64, 0
1, 24359, Note_off_c, 0, 76, 64
1, 24362, Note_on_c, 0, 74, 48
1, 24367, Note_off_c, 0, 61, 64
1, 24367, Note_on_c, 0, 58, 23
1, 24456, Control_c, 0, 64, 127
1, 24485, Note_off_c, 0, 55, 64
1, 24523, Note_on_c, 0, 73, 46
1, 24538, Note_off_c, 0, 74, 64
1, 24559, Note_on_c, 0, 61, 23
1, 24647, Control_c, 0, 64, 0
1, 24710, Note_on_c, 0, 74, 43
1, 24716, Note_off_c, 0, 58, 64
1, 24724, Note_off_c, 0, 73, 64
1, 24732, Note_on_c, 0, 55, 28
1, 24738, Note_off_c, 0, 61, 64
1, 24886, Note_off_c, 0, 74, 64
1, 24894, Note_on_c, 0, 71, 40
1, 24931, Note_on_c, 0, 62, 24
1, 25034, Note_off_c, 0, 62, 64
1, 25064, Note_off_c, 0, 71, 64
1, 25072, Note_on_c, 0, 74, 47
1, 25112, Note_on_c, 0, 59, 18
1, 25264, Note_off_c, 0, 74, 64
1, 25264, Note_off_c, 0, 55, 64
1, 25267, Note_on_c, 0, 71, 44
1, 25301, Note_on_c, 0, 62, 23
1, 25318, Control_c, 0, 64, 127
1, 25382, Note_off_c, 0, 62, 64
1, 25462, Note_off_c, 0, 71, 64
1, 25474, Control_c, 0, 64, 0
1, 25481, Note_on_c, 0, 67, 23
1, 25491, Note_off_c, 0, 59, 64
1, 25506, Note_on_c, 0, 55, 24
1, 25685, Note_on_c, 0, 62, 21
1, 25750, Control_c, 0, 64, 127
1, 25800, Note_off_c, 0, 62, 64
1, 25869, Note_on_c, 0, 59, 13
1, 25939, Note_off_c, 0, 55, 64
1, 26037, Note_on_c, 0, 62, 22
1, 26062, Note_off_c, 0, 59, 64
1, 26123, Note_off_c, 0, 62, 64
1, 26211, Note_on_c, 0, 55, 22
1, 26323, Note_off_c, 0, 67, 64
1, 26363, Note_on_c, 0, 62, 24
1, 26459, Note_off_c, 0, 62, 64
1, 26538, Note_on_c, 0, 59, 17
1, 26674, Note_off_c, 0, 59, 64
1, 26711, Note_on_c, 0, 62, 22
1, 26816, Note_off_c, 0, 62, 64
1, 26877, Control_c, 0, 64, 0
1, 26894, Note_on_c, 0, 57, 15
1, 26894, Note_on_c, 0, 72, 31
1, 26952, Note_off_c, 0, 55, 64
1, 27075, Note_on_c, 0, 69, 30
1, 27081, Note_on_c, 0, 62, 26
1, 27086, Note_off_c, 0, 72, 64
1, 27229, Note_off_c, 0, 62, 64
1, 27250, Note_on_c, 0, 72, 49
1, 27250, Note_off_c, 0, 69, 64
1, 27261, Control_c, 0, 64, 127
1, 27261, Note_on_c, 0, 60, 25
1, 27373, Note_off_c, 0, 57, 64
1, 27395, Note_off_c, 0, 72, 64
1, 27395, Note_off_c, 0, 60, 64
1, 27395, Note_on_c, 0, 69, 42
1, 27433, Note_on_c, 0, 62, 24
1, 27538, Note_off_c, 0, 69, 64
1, 27548, Note_off_c, 0, 62, 64
1, 27576, Note_on_c, 0, 66, 40
1, 27601, Note_on_c, 0, 57, 22
1, 27643, Note_off_c, 0, 66, 64
1, 27714, Control_c, 0, 64, 0
1, 27750, Note_on_c, 0, 69, 52
1, 27774, Note_on_c, 0, 62, 31
1, 27850, Note_off_c, 0, 62, 64
1, 27908, Note_on_c, 0, 68, 60
1, 27925, Note_off_c, 0, 69, 64
1, 27948, Note_on_c, 0, 60, 24
1, 28003, Control_c, 0, 64, 127
1, 28028, Note_off_c, 0, 57, 64
1, 28078, Note_on_c, 0, 69, 64
1, 28103, Note_on_c, 0, 62, 29
1, 28136, Note_off_c, 0, 68, 64
1, 28176, Note_off_c, 0, 62, 64
1, 28189, Note_off_c, 0, 60, 64
1, 28228, Note_on_c, 0, 70, 65
1, 28264, Note_off_c, 0, 69, 64
1, 28267, Note_on_c, 0, 57, 24
1, 28303, Control_c, 0, 64, 0
1, 28391, Note_on_c, 0, 71, 83
1, 28413, Note_on_c, 0, 62, 33
1, 28445, Note_off_c, 0, 70, 64
1, 28513, Note_off_c, 0, 62, 64
1, 28543, Control_c, 0, 64, 127
1, 28551, Note_on_c, 0, 72, 87
1, 28577, Note_on_c, 0, 60, 34
1, 28601, Note_off_c, 0, 71, 64
1, 28711, Note_on_c, 0, 73, 83
1, 28739, Note_on_c, 0, 62, 31
1, 28750, Note_off_c, 0, 72, 64
1, 28814, Note_off_c, 0, 62, 64
1, 28839, Note_off_c, 0, 60, 64
1, 28888, Note_on_c, 0, 74, 87
1, 28899, Note_off_c, 0, 57, 64
1, 28914, Control_c, 0, 64, 0
1, 28914, Note_off_c, 0, 73, 64
1, 28917, Note_on_c, 0, 55, 32
1, 29045, Note_on_c, 0, 71, 88
1, 29054, Note_on_c, 0, 62, 36
1, 29095, Note_off_c, 0, 74, 64
1, 29214, Note_on_c, 0, 74, 89
1, 29226, Note_off_c, 0, 62, 64
1, 29248, Note_on_c, 0, 59, 33
1, 29254, Note_off_c, 0, 71, 64
1, 29382, Note_on_c, 0, 71, 83
1, 29404, Note_off_c, 0, 74, 64
1, 29418, Control_c, 0, 64, 127
1, 29426, Note_on_c, 0, 62, 31
1, 29504, Note_off_c, 0, 59, 64
1, 29593, Note_off_c, 0, 55, 64
1, 29599, Note_off_c, 0, 62, 64
1, 29621, Control_c, 0, 64, 0
1, 29621, Note_on_c, 0, 79, 78
1, 29660, Note_on_c, 0, 52, 26
1, 29675, Note_off_c, 0, 71, 64
1, 29814, Note_on_c, 0, 59, 35
1, 29944, Control_c, 0, 64, 127
1, 29969, Note_off_c, 0, 59, 64
1, 30005, Note_on_c, 0, 55, 44
1, 30171, Note_off_c, 0, 52, 64
1, 30174, Note_off_c, 0, 55, 64
1, 30190, Note_off_c, 0, 79, 64
1, 30193, Note_on_c, 0, 59, 38
1, 30346, Note_off_c, 0, 59, 64
1, 30374, Note_on_c, 0, 47, 49
1, 30448, Control_c, 0, 64, 0
1, 30586, Note_on_c, 0, 83, 89
1, 30594, Note_on_c, 0, 55, 39
1, 30777, Note_off_c, 0, 55, 64
1, 30808, Control_c, 0, 64, 127
1, 30808, Note_on_c, 0, 78, 75
1, 30828, Note_on_c, 0, 50, 36
1, 30833, Note_off_c, 0, 83, 64
1, 30980, Note_off_c, 0, 47, 64
1, 31001, Note_on_c, 0, 79, 83
1, 31012, Note_on_c, 0, 55, 38
1, 31020, Note_off_c, 0, 78, 64
1, 31020, Note_off_c, 0, 50, 64
1, 31160, Note_off_c, 0, 55, 64
1, 31171, Note_on_c, 0, 75, 65
1, 31179, Control_c, 0, 64, 0
1, 31190, Note_on_c, 0, 48, 30
1, 31198, Note_off_c, 0, 79, 64
1, 31374, Note_on_c, 0, 57, 29
1, 31374, Note_on_c, 0, 76, 45
1, 31405, Note_off_c, 0, 75, 64
1, 31541, Note_off_c, 0, 57, 64
1, 31560, Note_on_c, 0, 72, 38
1, 31590, Note_off_c, 0, 76, 64
1, 31608, Note_on_c, 0, 52, 19
1, 31722, Note_off_c, 0, 52, 64
1, 31750, Note_on_c, 0, 69, 36
1, 31767, Note_on_c, 0, 57, 26
1, 31767, Note_off_c, 0, 72, 64
1, 31778, Control_c, 0, 64, 127
1, 31905, Note_off_c, 0, 57, 64
1, 32000, Note_on_c, 0, 67, 37
1, 32015, Note_on_c, 0, 50, 33
1, 32018, Control_c, 0, 64, 0
1, 32022, Note_off_c, 0, 69, 64
1, 32040, Note_off_c, 0, 48, 64
1, 32235, Note_on_c, 0, 59, 28
1, 32369, Note_off_c, 0, 67, 64
1, 32377, Control_c, 0, 64, 127
1, 32377, Note_off_c, 0, 59, 64
1, 32416, Note_on_c, 0, 55, 42
1, 32502, Note_off_c, 0, 50, 64
1, 32568, Note_on_c, 0, 67, 65
1, 32600, Note_on_c, 0, 59, 31
1, 32652, Note_off_c, 0, 55, 64
1, 32725, Control_c, 0, 64, 0
1, 32753, Note_off_c, 0, 59, 64
1, 32769, Note_on_c, 0, 71, 63
1, 32775, Note_off_c, 0, 67, 64
1, 32788, Note_on_c, 0, 66, 19
1, 32800, Note_on_c, 0, 50, 33
1, 32965, Note_on_c, 0, 69, 43
1, 32990, Note_on_c, 0, 60, 16
1, 32995, Note_off_c, 0, 71, 64
1, 33137, Note_off_c, 0, 60, 64
1, 33184, Note_off_c, 0, 69, 64
1, 33188, Note_on_c, 0, 67, 35
1, 33191, Note_on_c, 0, 57, 22
1, 33385, Note_off_c, 0, 67, 64
1, 33405, Note_off_c, 0, 57, 64
1, 33418, Note_on_c, 0, 69, 31
1, 33438, Note_on_c, 0, 60, 22
1, 33480, Control_c, 0, 64, 127
1, 33555, Note_off_c, 0, 60, 64
1, 33555, Note_off_c, 0, 66, 64
1, 33569, Note_off_c, 0, 69, 64
1, 33764, Note_on_c, 0, 69, 29
1, 33788, Note_on_c, 0, 60, 19
1, 33791, Note_on_c, 0, 66, 8
1, 33805, Control_c, 0, 64, 0
1, 33811, Note_on_c, 0, 55, 20
1, 33958, Note_off_c, 0, 50, 64
1, 34366, Control_c, 0, 64, 127
1, 34724, Note_off_c, 0, 60, 64
1, 34828, Note_on_c, 0, 67, 12
1, 34841, Note_on_c, 0, 59, 12
1, 34847, Control_c, 0, 64, 0
1, 34889, Note_off_c, 0, 66, 64
1, 34964, Note_off_c, 0, 69, 64
1, 35349, Control_c, 0, 64, 127
1, 35465, Note_off_c, 0, 55, 64
1, 35510, Note_off_c, 0, 59, 64
1, 35561, Note_off_c, 0, 67, 64
1, 35948, Control_c, 0, 64, 0
1, 36296, Control_c, 0, 64, 127
1, 36318, Note_on_c, 0, 74, 41
1, 36357, Note_on_c, 0, 62, 15
1, 36561, Note_on_c, 0, 69, 14
1, 36616, Note_off_c, 0, 62, 64
1, 36714, Note_off_c, 0, 69, 64
1, 36772, Note_on_c, 0, 66, 16
1, 36951, Note_on_c, 0, 69, 19
1, 36965, Note_off_c, 0, 66, 64
1, 37067, Note_off_c, 0, 69, 64
1, 37129, Note_on_c, 0, 62, 24
1, 37148, Control_c, 0, 64, 0
1, 37333, Note_on_c, 0, 69, 19
1, 37336, Note_on_c, 0, 73, 48
1, 37376, Control_c, 0, 64, 127
1, 37391, Note_off_c, 0, 74, 64
1, 37496, Control_c, 0, 64, 0
1, 37510, Note_off_c, 0, 69, 64
1, 37516, Note_on_c, 0, 76, 68
1, 37528, Note_on_c, 0, 66, 27
1, 37552, Note_off_c, 0, 73, 64
1, 37639, Control_c, 0, 64, 127
1, 37680, Note_off_c, 0, 62, 64
1, 37684, Note_on_c, 0, 74, 81
1, 37702, Note_off_c, 0, 76, 64
1, 37705, Note_on_c, 0, 69, 27
1, 37806, Control_c, 0, 64, 0
1, 37811, Note_off_c, 0, 69, 64
1, 37847, Note_on_c, 0, 79, 80
1, 37870, Note_off_c, 0, 74, 64
1, 37881, Note_on_c, 0, 62, 28
1, 37928, Note_off_c, 0, 66, 64
1, 38020, Note_on_c, 0, 78, 73
1, 38049, Note_on_c, 0, 69, 25
1, 38060, Note_off_c, 0, 79, 64
1, 38154, Control_c, 0, 64, 127
1, 38160, Note_off_c, 0, 69, 64
1, 38182, Note_on_c, 0, 76, 68
1, 38198, Note_on_c, 0, 66, 24
1, 38224, Note_off_c, 0, 78, 64
1, 38349, Note_on_c, 0, 74, 74
1, 38355, Note_off_c, 0, 66, 64
1, 38363, Note_off_c, 0, 76, 64
1, 38377, Note_on_c, 0, 69, 17
1, 38469, Note_off_c, 0, 69, 64
1, 38538, Note_on_c, 0, 73, 57
1, 38538, Control_c, 0, 64, 0
1, 38570, Note_on_c, 0, 64, 17
1, 38570, Note_off_c, 0, 62, 64
1, 38589, Note_off_c, 0, 74, 64
1, 38733, Note_on_c, 0, 69, 27
1, 38912, Note_off_c, 0, 69, 64
1, 38945, Control_c, 0, 64, 127
1, 38949, Note_on_c, 0, 67, 26
1, 39095, Note_off_c, 0, 64, 64
1, 39143, Note_on_c, 0, 74, 50
1, 39163, Note_off_c, 0, 67, 64
1, 39168, Note_on_c, 0, 69, 11
1, 39215, Note_off_c, 0, 73, 64
1, 39280, Note_off_c, 0, 69, 64
1, 39316, Control_c, 0, 64, 0
1, 39357, Note_on_c, 0, 76, 37
1, 39363, Note_on_c, 0, 64, 24
1, 39380, Note_off_c, 0, 74, 64
1, 39513, Note_on_c, 0, 69, 21
1, 39628, Control_c, 0, 64, 127
1, 39653, Note_off_c, 0, 69, 64
1, 39705, Note_off_c, 0, 64, 64
1, 39705, Note_on_c, 0, 67, 25
1, 39882, Note_off_c, 0, 67, 64
1, 39882, Note_on_c, 0, 69, 22
1, 40003, Note_off_c, 0, 69, 64
1, 40071, Note_on_c, 0, 64, 29
1, 40096, Control_c, 0, 64, 0
1, 40177, Note_off_c, 0, 76, 64
1, 40237, Note_on_c, 0, 69, 22
1, 40311, Control_c, 0, 64, 127
1, 40363, Note_off_c, 0, 69, 64
1, 40419, Note_on_c, 0, 67, 15
1, 40496, Note_off_c, 0, 64, 64
1, 40594, Note_off_c, 0, 67, 64
1, 40608, Note_on_c, 0, 69, 21
1, 40705, Note_off_c, 0, 69, 64
1, 40837, Note_on_c, 0, 76, 44
1, 40868, Note_on_c, 0, 61, 23
1, 40982, Control_c, 0, 64, 0
1, 41070, Note_on_c, 0, 69, 17
1, 41163, Control_c, 0, 64, 127
1, 41202, Note_off_c, 0, 69, 64
1, 41255, Note_on_c, 0, 67, 19
1, 41276, Note_off_c, 0, 61, 64
1, 41393, Note_off_c, 0, 67, 64
1, 41426, Note_on_c, 0, 69, 20
1, 41550, Note_off_c, 0, 69, 64
1, 41602, Note_on_c, 0, 61, 29
1, 41789, Note_on_c, 0, 75, 58
1, 41811, Note_on_c, 0, 69, 19
1, 41850, Note_off_c, 0, 76, 64
1, 41957, Note_on_c, 0, 78, 75
1, 41971, Note_off_c, 0, 69, 64
1, 41978, Control_c, 0, 64, 0
1, 41999, Note_off_c, 0, 75, 64
1, 41999, Note_on_c, 0, 67, 24
1, 42088, Note_off_c, 0, 61, 64
1, 42110, Control_c, 0, 64, 127
1, 42143, Note_on_c, 0, 76, 71
1, 42166, Note_off_c, 0, 78, 64
1, 42176, Note_on_c, 0, 69, 15
1, 42299, Note_off_c, 0, 69, 64
1, 42349, Control_c, 0, 64, 0
1, 42349, Note_on_c, 0, 81, 57
1, 42355, Note_off_c, 0, 67, 64
1, 42361, Note_off_c, 0, 76, 64
1, 42385, Note_on_c, 0, 61, 24
1, 42578, Note_on_c, 0, 79, 57
1, 42592, Note_on_c, 0, 69, 14
1, 42630, Note_off_c, 0, 81, 64
1, 42636, Control_c, 0, 64, 127
1, 42723, Note_off_c, 0, 69, 64
1, 42756, Note_on_c, 0, 78, 47
1, 42798, Note_off_c, 0, 79, 64
1, 42807, Note_on_c, 0, 67, 15
1, 42923, Note_off_c, 0, 67, 64
1, 42939, Note_on_c, 0, 76, 43
1, 42946, Note_off_c, 0, 78, 64
1, 42974, Note_on_c, 0, 69, 16
1, 43098, Note_off_c, 0, 69, 64
1, 43152, Control_c, 0, 64, 0
1, 43177, Note_on_c, 0, 74, 51
1, 43208, Note_on_c, 0, 62, 17
1, 43215, Note_off_c, 0, 76, 64
1, 43266, Note_off_c, 0, 61, 64
1, 43431, Note_on_c, 0, 69, 18
1, 43559, Control_c, 0, 64, 127
1, 43584, Note_off_c, 0, 69, 64
1, 43612, Note_on_c, 0, 66, 24
1, 43775, Note_on_c, 0, 76, 45
1, 43809, Note_on_c, 0, 69, 18
1, 43887, Note_off_c, 0, 74, 64
1, 43912, Note_off_c, 0, 69, 64
1, 44002, Note_off_c, 0, 62, 64
1, 44006, Note_on_c, 0, 78, 42
1, 44030, Note_off_c, 0, 66, 64
1, 44030, Note_on_c, 0, 61, 31
1, 44073, Note_off_c, 0, 76, 64
1, 44123, Control_c, 0, 64, 0
1, 44186, Note_on_c, 0, 69, 22
1, 44327, Control_c, 0, 64, 127
1, 44352, Note_off_c, 0, 69, 64
1, 44364, Note_on_c, 0, 62, 41
1, 44447, Control_c, 0, 64, 0
1, 44455, Note_off_c, 0, 61, 64
1, 44542, Note_on_c, 0, 69, 21
1, 44601, Control_c, 0, 64, 127
1, 44678, Note_off_c, 0, 69, 64
1, 44704, Note_on_c, 0, 59, 52
1, 44722, Note_off_c, 0, 62, 64
1, 44874, Note_on_c, 0, 67, 35
1, 44881, Note_off_c, 0, 78, 64
1, 45035, Note_off_c, 0, 67, 64
1, 45051, Note_on_c, 0, 62, 41
1, 45082, Control_c, 0, 64, 0
1, 45222, Note_on_c, 0, 67, 38
1, 45236, Control_c, 0, 64, 127
1, 45272, Note_off_c, 0, 62, 64
1, 45346, Note_off_c, 0, 59, 64
1, 45346, Note_off_c, 0, 67, 64
1, 45403, Note_on_c, 0, 78, 79
1, 45431, Note_on_c, 0, 57, 21
1, 45566, Note_on_c, 0, 66, 36
1, 45609, Control_c, 0, 64, 0
1, 45756, Note_off_c, 0, 66, 64
1, 45776, Control_c, 0, 64, 127
1, 45782, Note_on_c, 0, 62, 33
1, 45904, Note_off_c, 0, 62, 64
1, 45937, Note_on_c, 0, 66, 41
1, 46048, Note_off_c, 0, 57, 64
1, 46062, Note_off_c, 0, 66, 64
1, 46121, Note_on_c, 0, 55, 43
1, 46275, Note_on_c, 0, 76, 64
1, 46302, Note_on_c, 0, 64, 31
1, 46342, Note_off_c, 0, 78, 64
1, 46411, Control_c, 0, 64, 0
1, 46438, Note_on_c, 0, 79, 94
1, 46447, Note_off_c, 0, 64, 64
1, 46466, Note_on_c, 0, 61, 47
1, 46503, Note_off_c, 0, 76, 64
1, 46556, Control_c, 0, 64, 127
1, 46589, Note_off_c, 0, 55, 64
1, 46589, Note_on_c, 0, 78, 89
1, 46617, Note_on_c, 0, 64, 42
1, 46622, Note_off_c, 0, 79, 64
1, 46742, Note_off_c, 0, 64, 64
1, 46767, Note_on_c, 0, 83, 103
1, 46771, Note_on_c, 0, 54, 49
1, 46801, Note_off_c, 0, 61, 64
1, 46806, Note_off_c, 0, 78, 64
1, 46806, Control_c, 0, 64, 0
1, 46937, Note_on_c, 0, 81, 83
1, 46937, Note_on_c, 0, 62, 42
1, 47023, Control_c, 0, 64, 127
1, 47026, Note_off_c, 0, 83, 64
1, 47048, Note_off_c, 0, 62, 64
1, 47090, Note_on_c, 0, 79, 91
1, 47107, Note_on_c, 0, 57, 38
1, 47138, Note_off_c, 0, 54, 64
1, 47147, Note_off_c, 0, 81, 64
1, 47179, Note_off_c, 0, 57, 64
1, 47244, Note_on_c, 0, 78, 76
1, 47274, Note_on_c, 0, 62, 43
1, 47296, Note_off_c, 0, 79, 64
1, 47316, Note_off_c, 0, 62, 64
1, 47434, Note_on_c, 0, 76, 62
1, 47444, Note_on_c, 0, 59, 60
1, 47478, Control_c, 0, 64, 0
1, 47497, Note_off_c, 0, 78, 64
1, 47601, Note_on_c, 0, 67, 45
1, 47760, Note_off_c, 0, 67, 64
1, 47790, Note_on_c, 0, 64, 41
1, 47803, Control_c, 0, 64, 127
1, 47955, Note_on_c, 0, 67, 37
1, 48038, Note_off_c, 0, 64, 64
1, 48107, Note_off_c, 0, 67, 64
1, 48113, Note_off_c, 0, 59, 64
1, 48183, Note_on_c, 0, 57, 31
1, 48347, Note_on_c, 0, 75, 61
1, 48356, Note_on_c, 0, 66, 32
1, 48389, Control_c, 0, 64, 0
1, 48402, Note_off_c, 0, 76, 64
1, 48522, Note_on_c, 0, 78, 73
1, 48533, Note_off_c, 0, 66, 64
1, 48553, Note_on_c, 0, 63, 41
1, 48573, Note_off_c, 0, 75, 64
1, 48593, Control_c, 0, 64, 127
1, 48645, Note_off_c, 0, 57, 64
1, 48692, Note_on_c, 0, 76, 75
1, 48707, Note_on_c, 0, 66, 26
1, 48729, Note_off_c, 0, 78, 64
1, 48774, Note_off_c, 0, 63, 64
1, 48774, Note_off_c, 0, 66, 64
1, 48868, Note_on_c, 0, 81, 60
1, 48876, Note_on_c, 0, 55, 36
1, 48882, Note_off_c, 0, 76, 64
1, 48904, Control_c, 0, 64, 0
1, 49070, Note_on_c, 0, 64, 33
1, 49070, Note_on_c, 0, 79, 67
1, 49121, Note_off_c, 0, 81, 64
1, 49171, Note_off_c, 0, 64, 64
1, 49180, Control_c, 0, 64, 127
1, 49238, Note_on_c, 0, 78, 66
1, 49283, Note_off_c, 0, 79, 64
1, 49283, Note_on_c, 0, 59, 19
1, 49297, Note_off_c, 0, 55, 64
1, 49389, Note_off_c, 0, 59, 64
1, 49414, Note_off_c, 0, 78, 64
1, 49422, Note_on_c, 0, 76, 64
1, 49444, Note_on_c, 0, 64, 36
1, 49506, Note_off_c, 0, 64, 64
1, 49519, Note_off_c, 0, 76, 64
1, 49622, Note_on_c, 0, 76, 42
1, 49622, Control_c, 0, 64, 0
1, 49650, Note_on_c, 0, 57, 15
1, 49870, Note_on_c, 0, 74, 40
1, 49870, Note_on_c, 0, 66, 24
1, 49882, Note_off_c, 0, 76, 64
1, 49971, Control_c, 0, 64, 127
1, 50015, Note_off_c, 0, 74, 64
1, 50063, Note_off_c, 0, 66, 64
1, 50077, Note_on_c, 0, 74, 50
1, 50139, Note_on_c, 0, 62, 14
1, 50139, Control_c, 0, 64, 0
1, 50278, Note_off_c, 0, 57, 64
1, 50289, Note_on_c, 0, 66, 26
1, 50294, Control_c, 0, 64, 127
1, 50327, Note_off_c, 0, 62, 64
1, 50436, Note_off_c, 0, 66, 64
1, 50515, Note_on_c, 0, 57, 23
1, 50699, Note_on_c, 0, 69, 44
1, 50714, Note_on_c, 0, 66, 27
1, 50718, Note_off_c, 0, 74, 64
1, 50862, Note_off_c, 0, 66, 64
1, 50891, Note_on_c, 0, 74, 76
1, 50921, Note_off_c, 0, 69, 64
1, 50921, Note_on_c, 0, 62, 26
1, 50954, Note_off_c, 0, 57, 64
1, 51057, Note_off_c, 0, 62, 64
1, 51068, Note_on_c, 0, 78, 74
1, 51077, Note_on_c, 0, 66, 19
1, 51094, Note_off_c, 0, 74, 64
1, 51174, Note_off_c, 0, 78, 64
1, 51219, Note_off_c, 0, 66, 64
1, 51274, Note_on_c, 0, 78, 56
1, 51274, Control_c, 0, 64, 0
1, 51281, Note_on_c, 0, 73, 32
1, 51284, Note_on_c, 0, 57, 21
1, 51473, Note_on_c, 0, 67, 27
1, 51473, Note_on_c, 0, 76, 49
1, 51504, Control_c, 0, 64, 127
1, 51514, Note_off_c, 0, 78, 64
1, 51553, Control_c, 0, 64, 0
1, 51668, Note_off_c, 0, 67, 64
1, 51681, Note_on_c, 0, 74, 59
1, 51701, Note_on_c, 0, 64, 30
1, 51709, Note_off_c, 0, 76, 64
1, 51924, Note_off_c, 0, 74, 64
1, 51924, Note_on_c, 0, 76, 59
1, 51933, Note_on_c, 0, 67, 33
1, 51937, Note_off_c, 0, 64, 64
1, 51996, Control_c, 0, 64, 127
1, 52063, Note_off_c, 0, 73, 64
1, 52063, Note_off_c, 0, 67, 64
1, 52103, Note_off_c, 0, 76, 64
1, 52275, Note_on_c, 0, 76, 43
1, 52283, Note_on_c, 0, 73, 24
1, 52291, Note_on_c, 0, 67, 27
1, 52330, Note_on_c, 0, 62, 15
1, 52392, Control_c, 0, 64, 0
1, 52408, Note_off_c, 0, 57, 64
1, 52871, Control_c, 0, 64, 127
1, 53406, Note_on_c, 0, 74, 36
1, 53433, Note_off_c, 0, 67, 64
1, 53433, Note_on_c, 0, 66, 16
1, 53447, Note_off_c, 0, 73, 64
1, 53459, Control_c, 0, 64, 0
1, 53595, Note_off_c, 0, 76, 64
1, 53663, Note_on_c, 0, 75, 43
1, 53715, Note_off_c, 0, 74, 64
1, 53805, Control_c, 0, 64, 127
1, 53830, Control_c, 0, 64, 0
1, 53876, Note_on_c, 0, 76, 38
1, 53901, Note_off_c, 0, 75, 64
1, 54050, Note_on_c, 0, 75, 40
1, 54074, Note_off_c, 0, 76, 64
1, 54191, Control_c, 0, 64, 127
1, 54286, Control_c, 0, 64, 0
1, 54286, Note_on_c, 0, 78, 31
1, 54309, Note_off_c, 0, 75, 64
1, 54378, Note_off_c, 0, 66, 64
1, 54378, Note_off_c, 0, 62, 64
1, 54465, Control_c, 0, 64, 127
1, 54579, Note_on_c, 0, 76, 25
1, 54640, Note_off_c, 0, 78, 64
1, 54777, Control_c, 0, 64, 0
1, 54821, Note_on_c, 0, 74, 27
1, 54849, Note_off_c, 0, 76, 64
1, 54921, Control_c, 0, 64, 127
1, 55055, Note_on_c, 0, 72, 32
1, 55083, Note_off_c, 0, 74, 64
1, 55406, Note_on_c, 0, 71, 34
1, 55426, Note_on_c, 0, 55, 16
1, 55503, Note_off_c, 0, 72, 64
1, 55604, Control_c, 0, 64, 0
1, 55718, Note_on_c, 0, 62, 20
1, 55809, Control_c, 0, 64, 127
1, 55907, Note_off_c, 0, 62, 64
1, 55932, Note_off_c, 0, 55, 64
1, 55947, Note_on_c, 0, 59, 24
1, 56128, Note_off_c, 0, 59, 64
1, 56153, Note_on_c, 0, 62, 24
1, 56267, Note_off_c, 0, 62, 64
1, 56358, Note_on_c, 0, 55, 19
1, 56576, Note_on_c, 0, 62, 18
1, 56584, Note_on_c, 0, 67, 27
1, 56593, Note_off_c, 0, 71, 64
1, 56724, Note_off_c, 0, 62, 64
1, 56768, Note_off_c, 0, 67, 64
1, 56773, Note_on_c, 0, 71, 57
1, 56794, Note_on_c, 0, 59, 22
1, 56894, Note_off_c, 0, 59, 64
1, 56946, Note_on_c, 0, 74, 64
1, 56963, Note_off_c, 0, 71, 64
1, 56963, Note_on_c, 0, 62, 27
1, 57108, Note_off_c, 0, 62, 64
1, 57125, Control_c, 0, 64, 0
1, 57134, Note_on_c, 0, 72, 55
1, 57159, Note_on_c, 0, 57, 16
1, 57192, Note_off_c, 0, 74, 64
1, 57200, Note_off_c, 0, 55, 64
1, 57308, Note_on_c, 0, 69, 44
1, 57347, Note_on_c, 0, 62, 29
1, 57356, Note_off_c, 0, 72, 64
1, 57490, Note_off_c, 0, 62, 64
1, 57510, Note_on_c, 0, 72, 44
1, 57532, Note_off_c, 0, 69, 64
1, 57532, Note_on_c, 0, 60, 23
1, 57688, Control_c, 0, 64, 127
1, 57696, Note_on_c, 0, 76, 39
1, 57704, Note_off_c, 0, 72, 64
1, 57727, Note_off_c, 0, 60, 64
1, 57730, Note_on_c, 0, 62, 23
1, 57880, Note_off_c, 0, 62, 64
1, 57907, Note_off_c, 0, 57, 64
1, 57929, Control_c, 0, 64, 0
1, 57946, Note_on_c, 0, 74, 44
1, 57974, Note_on_c, 0, 55, 16
1, 58019, Note_off_c, 0, 76, 64
1, 58172, Note_on_c, 0, 62, 19
1, 58326, Note_off_c, 0, 62, 64
1, 58368, Note_on_c, 0, 59, 15
1, 58468, Control_c, 0, 64, 127
1, 58475, Note_off_c, 0, 55, 64
1, 58523, Note_off_c, 0, 74, 64
1, 58531, Note_on_c, 0, 71, 36
1, 58553, Note_on_c, 0, 62, 22
1, 58652, Note_off_c, 0, 62, 64
1, 58674, Note_off_c, 0, 71, 64
1, 58716, Note_on_c, 0, 67, 37
1, 58719, Control_c, 0, 64, 0
1, 58737, Note_off_c, 0, 59, 64
1, 58741, Note_on_c, 0, 55, 26
1, 58791, Note_off_c, 0, 67, 64
1, 58875, Note_on_c, 0, 67, 44
1, 58910, Note_on_c, 0, 62, 26
1, 58968, Note_off_c, 0, 67, 64
1, 59016, Note_off_c, 0, 62, 64
1, 59050, Note_on_c, 0, 69, 50
1, 59077, Note_on_c, 0, 59, 25
1, 59106, Note_off_c, 0, 69, 64
1, 59222, Note_on_c, 0, 71, 76
1, 59234, Note_on_c, 0, 62, 33
1, 59248, Note_off_c, 0, 55, 64
1, 59290, Note_off_c, 0, 71, 64
1, 59359, Note_off_c, 0, 62, 64
1, 59386, Note_on_c, 0, 72, 63
1, 59403, Note_on_c, 0, 55, 31
1, 59448, Note_off_c, 0, 59, 64
1, 59490, Note_off_c, 0, 72, 64
1, 59559, Note_on_c, 0, 74, 79
1, 59570, Note_on_c, 0, 62, 39
1, 59640, Note_off_c, 0, 74, 64
1, 59685, Note_off_c, 0, 62, 64
1, 59719, Note_on_c, 0, 76, 72
1, 59735, Note_on_c, 0, 59, 38
1, 59816, Note_off_c, 0, 76, 64
1, 59885, Note_on_c, 0, 78, 79
1, 59897, Note_on_c, 0, 62, 37
1, 59914, Note_off_c, 0, 55, 64
1, 59969, Note_off_c, 0, 78, 64
1, 60061, Note_on_c, 0, 79, 82
1, 60072, Note_off_c, 0, 59, 64
1, 60078, Note_on_c, 0, 55, 35
1, 60083, Note_off_c, 0, 62, 64
1, 60237, Note_on_c, 0, 78, 81
1, 60267, Note_on_c, 0, 64, 29
1, 60273, Note_off_c, 0, 79, 64
1, 60398, Note_off_c, 0, 64, 64
1, 60407, Note_on_c, 0, 79, 94
1, 60431, Note_on_c, 0, 60, 29
1, 60456, Note_off_c, 0, 78, 64
1, 60566, Note_on_c, 0, 78, 79
1, 60576, Note_off_c, 0, 55, 64
1, 60576, Control_c, 0, 64, 127
1, 60595, Note_on_c, 0, 64, 34
1, 60613, Note_off_c, 0, 79, 64
1, 60741, Note_off_c, 0, 64, 64
1, 60745, Control_c, 0, 64, 0
1, 60777, Note_on_c, 0, 81, 62
1, 60777, Note_on_c, 0, 55, 29
1, 60799, Note_off_c, 0, 78, 64
1, 60811, Note_off_c, 0, 60, 64
1, 60999, Note_on_c, 0, 64, 25
1, 61006, Note_on_c, 0, 79, 59
1, 61038, Note_off_c, 0, 81, 64
1, 61153, Note_off_c, 0, 64, 64
1, 61173, Note_on_c, 0, 78, 58
1, 61191, Note_off_c, 0, 79, 64
1, 61211, Note_on_c, 0, 60, 28
1, 61297, Control_c, 0, 64, 127
1, 61359, Note_on_c, 0, 79, 64
1, 61365, Note_off_c, 0, 78, 64
1, 61376, Note_off_c, 0, 55, 64
1, 61382, Note_on_c, 0, 64, 32
1, 61506, Note_off_c, 0, 60, 64
1, 61523, Note_off_c, 0, 64, 64
1, 61543, Note_on_c, 0, 78, 53
1, 61566, Note_off_c, 0, 79, 64
1, 61566, Note_on_c, 0, 55, 24
1, 61584, Control_c, 0, 64, 0
1, 61716, Note_on_c, 0, 61, 36
1, 61721, Note_on_c, 0, 76, 50
1, 61755, Note_off_c, 0, 78, 64
1, 61811, Control_c, 0, 64, 127
1, 61860, Control_c, 0, 64, 0
1, 61878, Note_off_c, 0, 61, 64
1, 61891, Note_on_c, 0, 74, 55
1, 61891, Note_off_c, 0, 76, 64
1, 61910, Note_on_c, 0, 58, 23
1, 61985, Note_off_c, 0, 55, 64
1, 61992, Control_c, 0, 64, 127
1, 62059, Note_on_c, 0, 73, 57
1, 62073, Note_on_c, 0, 61, 27
1, 62084, Note_off_c, 0, 74, 64
1, 62195, Control_c, 0, 64, 0
1, 62222, Note_off_c, 0, 61, 64
1, 62253, Note_on_c, 0, 74, 44
1, 62264, Note_on_c, 0, 55, 27
1, 62276, Note_off_c, 0, 73, 64
1, 62295, Note_off_c, 0, 58, 64
1, 62426, Note_on_c, 0, 71, 38
1, 62426, Note_off_c, 0, 74, 64
1, 62445, Note_on_c, 0, 62, 20
1, 62580, Note_off_c, 0, 62, 64
1, 62607, Note_off_c, 0, 71, 64
1, 62616, Note_on_c, 0, 74, 50
1, 62626, Note_on_c, 0, 59, 24
1, 62758, Control_c, 0, 64, 127
1, 62793, Note_on_c, 0, 71, 46
1, 62796, Note_off_c, 0, 74, 64
1, 62802, Note_off_c, 0, 59, 64
1, 62813, Note_on_c, 0, 62, 26
1, 62816, Note_off_c, 0, 55, 64
1, 62936, Note_off_c, 0, 62, 64
1, 63005, Note_off_c, 0, 71, 64
1, 63011, Note_on_c, 0, 67, 28
1, 63022, Note_on_c, 0, 55, 22
1, 63022, Control_c, 0, 64, 0
1, 63197, Note_on_c, 0, 62, 30
1, 63286, Control_c, 0, 64, 127
1, 63314, Note_off_c, 0, 62, 64
1, 63401, Note_on_c, 0, 59, 16
1, 63457, Note_off_c, 0, 55, 64
1, 63568, Note_on_c, 0, 62, 20
1, 63596, Note_off_c, 0, 59, 64
1, 63690, Note_off_c, 0, 62, 64
1, 63752, Note_off_c, 0, 67, 64
1, 63761, Note_on_c, 0, 55, 23
1, 63927, Note_on_c, 0, 62, 23
1, 64020, Note_off_c, 0, 62, 64
1, 64109, Note_on_c, 0, 59, 19
1, 64125, Control_c, 0, 64, 0
1, 64259, Note_off_c, 0, 59, 64
1, 64276, Note_on_c, 0, 62, 30
1, 64340, Control_c, 0, 64, 127
1, 64431, Note_off_c, 0, 62, 64
1, 64473, Note_on_c, 0, 72, 36
1, 64484, Note_off_c, 0, 55, 64
1, 64484, Note_on_c, 0, 57, 16
1, 64510, Control_c, 0, 64, 0
1, 64654, Note_on_c, 0, 69, 35
1, 64661, Note_on_c, 0, 62, 22
1, 64661, Note_off_c, 0, 72, 64
1, 64747, Control_c, 0, 64, 127
1, 64789, Note_off_c, 0, 62, 64
1, 64796, Control_c, 0, 64, 0
1, 64847, Note_on_c, 0, 72, 48
1, 64847, Note_off_c, 0, 69, 64
1, 64847, Note_on_c, 0, 60, 23
1, 64969, Note_off_c, 0, 57, 64
1, 64975, Control_c, 0, 64, 127
1, 65012, Note_on_c, 0, 69, 48
1, 65012, Note_off_c, 0, 72, 64
1, 65039, Note_on_c, 0, 62, 25
1, 65128, Note_off_c, 0, 62, 64
1, 65156, Note_off_c, 0, 69, 64
1, 65156, Control_c, 0, 64, 0
1, 65159, Note_off_c, 0, 60, 64
1, 65186, Note_on_c, 0, 66, 38
1, 65209, Note_on_c, 0, 57, 22
1, 65289, Note_off_c, 0, 66, 64
1, 65312, Control_c, 0, 64, 127
1, 65359, Note_on_c, 0, 69, 46
1, 65378, Note_on_c, 0, 62, 32
1, 65395, Control_c, 0, 64, 0
1, 65468, Note_off_c, 0, 62, 64
1, 65529, Note_on_c, 0, 68, 52
1, 65557, Note_off_c, 0, 69, 64
1, 65563, Control_c, 0, 64, 127
1, 65563, Note_on_c, 0, 60, 25
1, 65686, Note_off_c, 0, 57, 64
1, 65702, Note_on_c, 0, 69, 63
1, 65733, Note_on_c, 0, 62, 25
1, 65746, Note_off_c, 0, 68, 64
1, 65805, Note_off_c, 0, 62, 64
1, 65866, Note_on_c, 0, 70, 62
1, 65878, Note_off_c, 0, 60, 64
1, 65897, Note_on_c, 0, 57, 26
1, 65902, Note_off_c, 0, 69, 64
1, 65922, Control_c, 0, 64, 0
1, 66039, Note_on_c, 0, 71, 76
1, 66053, Note_on_c, 0, 62, 34
1, 66078, Control_c, 0, 64, 127
1, 66078, Note_off_c, 0, 70, 64
1, 66193, Note_off_c, 0, 62, 64
1, 66204, Note_on_c, 0, 72, 79
1, 66236, Note_on_c, 0, 60, 32
1, 66246, Note_off_c, 0, 71, 64
1, 66257, Control_c, 0, 64, 0
1, 66374, Note_on_c, 0, 73, 75
1, 66401, Control_c, 0, 64, 127
1, 66401, Note_on_c, 0, 62, 37
1, 66426, Note_off_c, 0, 72, 64
1, 66490, Note_off_c, 0, 62, 64
1, 66552, Note_off_c, 0, 60, 64
1, 66565, Note_on_c, 0, 74, 81
1, 66582, Note_on_c, 0, 55, 38
1, 66605, Note_off_c, 0, 73, 64
1, 66624, Note_off_c, 0, 57, 64
1, 66677, Control_c, 0, 64, 0
1, 66736, Note_on_c, 0, 71, 79
1, 66753, Note_on_c, 0, 62, 37
1, 66780, Note_off_c, 0, 74, 64
1, 66894, Control_c, 0, 64, 127
1, 66909, Note_off_c, 0, 62, 64
1, 66909, Note_on_c, 0, 74, 78
1, 66936, Note_on_c, 0, 59, 36
1, 66950, Note_off_c, 0, 71, 64
1, 67090, Note_on_c, 0, 71, 86
1, 67109, Note_off_c, 0, 74, 64
1, 67122, Note_on_c, 0, 62, 37
1, 67139, Note_off_c, 0, 59, 64
1, 67289, Note_off_c, 0, 62, 64
1, 67315, Note_off_c, 0, 55, 64
1, 67318, Note_on_c, 0, 79, 73
1, 67324, Note_on_c, 0, 52, 57
1, 67360, Control_c, 0, 64, 0
1, 67370, Note_off_c, 0, 71, 64
1, 67515, Note_on_c, 0, 59, 38
1, 67660, Control_c, 0, 64, 127
1, 67677, Note_off_c, 0, 59, 64
1, 67713, Note_on_c, 0, 55, 47
1, 67906, Note_on_c, 0, 59, 48
1, 67911, Note_off_c, 0, 55, 64
1, 67937, Note_off_c, 0, 52, 64
1, 67966, Note_off_c, 0, 79, 64
1, 68065, Note_off_c, 0, 59, 64
1, 68081, Note_on_c, 0, 47, 58
1, 68259, Control_c, 0, 64, 0
1, 68279, Note_on_c, 0, 55, 42
1, 68282, Note_on_c, 0, 83, 88
1, 68487, Note_off_c, 0, 55, 64
1, 68504, Note_on_c, 0, 78, 78
1, 68533, Note_on_c, 0, 50, 42
1, 68533, Control_c, 0, 64, 127
1, 68538, Note_off_c, 0, 83, 64
1, 68675, Note_off_c, 0, 47, 64
1, 68705, Note_on_c, 0, 79, 81
1, 68705, Note_on_c, 0, 55, 41
1, 68742, Note_off_c, 0, 78, 64
1, 68867, Note_off_c, 0, 55, 64
1, 68889, Note_on_c, 0, 75, 67
1, 68889, Note_off_c, 0, 50, 64
1, 68895, Note_on_c, 0, 48, 29
1, 68927, Note_off_c, 0, 79, 64
1, 68930, Control_c, 0, 64, 0
1, 69123, Note_on_c, 0, 76, 46
1, 69132, Note_on_c, 0, 57, 26
1, 69157, Note_off_c, 0, 75, 64
1, 69307, Note_off_c, 0, 57, 64
1, 69320, Note_on_c, 0, 72, 45
1, 69345, Note_on_c, 0, 52, 29
1, 69365, Note_off_c, 0, 76, 64
1, 69398, Control_c, 0, 64, 127
1, 69476, Note_off_c, 0, 48, 64
1, 69513, Note_on_c, 0, 69, 38
1, 69519, Note_on_c, 0, 57, 22
1, 69524, Note_off_c, 0, 72, 64
1, 69686, Note_off_c, 0, 57, 64
1, 69691, Note_off_c, 0, 52, 64
1, 69716, Note_on_c, 0, 50, 31
1, 69716, Note_on_c, 0, 67, 41
1, 69732, Note_off_c, 0, 69, 64
1, 69758, Control_c, 0, 64, 0
1, 69912, Note_on_c, 0, 59, 29
1, 70045, Note_off_c, 0, 59, 64
1, 70092, Note_on_c, 0, 55, 38
1, 70092, Control_c, 0, 64, 127
1, 70107, Note_off_c, 0, 67, 64
1, 70184, Note_off_c, 0, 50, 64
1, 70287, Note_on_c, 0, 67, 59
1, 70299, Note_on_c, 0, 59, 31
1, 70348, Note_off_c, 0, 55, 64
1, 70466, Note_off_c, 0, 59, 64
1, 70496, Note_on_c, 0, 50, 38
1, 70501, Control_c, 0, 64, 0
1, 70501, Note_on_c, 0, 71, 54
1, 70501, Note_on_c, 0, 66, 33
1, 70511, Note_off_c, 0, 67, 64
1, 70696, Note_on_c, 0, 69, 42
1, 70716, Note_on_c, 0, 60, 23
1, 70736, Note_off_c, 0, 71, 64
1, 70870, Note_off_c, 0, 60, 64
1, 70897, Control_c, 0, 64, 127
1, 70916, Note_on_c, 0, 67, 46
1, 70922, Note_on_c, 0, 57, 21
1, 70925, Note_off_c, 0, 69, 64
1, 70933, Control_c, 0, 64, 0
1, 71123, Note_off_c, 0, 57, 64
1, 71148, Control_c, 0, 64, 127
1, 71153, Note_on_c, 0, 69, 38
1, 71170, Note_off_c, 0, 67, 64
1, 71173, Note_on_c, 0, 60, 25
1, 71206, Note_off_c, 0, 66, 64
1, 71260, Note_off_c, 0, 69, 64
1, 71355, Note_off_c, 0, 60, 64
1, 71501, Note_off_c, 0, 50, 64
1, 71507, Control_c, 0, 64, 0
1, 71510, Note_on_c, 0, 69, 37
1, 71530, Note_on_c, 0, 55, 28
1, 71533, Note_on_c, 0, 60, 28
1, 71533, Note_on_c, 0, 66, 10
1, 71951, Control_c, 0, 64, 127
1, 72568, Note_off_c, 0, 60, 64
1, 72610, Control_c, 0, 64, 0
1, 72616, Note_on_c, 0, 67, 21
1, 72650, Note_on_c, 0, 59, 11
1, 72660, Note_off_c, 0, 69, 64
1, 72683, Note_off_c, 0, 66, 64
1, 72820, Note_off_c, 0, 55, 64
1, 72847, Note_off_c, 0, 59, 64
1, 72850, Control_c, 0, 64, 127
1, 73045, Note_off_c, 0, 67, 64
1, 73820, Control_c, 0, 64, 0
1, 74335, Note_on_c, 0, 70, 31
1, 74367, Note_on_c, 0, 55, 27
1, 74468, Control_c, 0, 64, 127
1, 74610, Note_on_c, 0, 62, 13
1, 74713, Note_off_c, 0, 55, 64
1, 74713, Note_off_c, 0, 62, 64
1, 74787, Note_on_c, 0, 58, 15
1, 74887, Note_off_c, 0, 58, 64
1, 74997, Note_on_c, 0, 62, 21
1, 75082, Note_off_c, 0, 62, 64
1, 75224, Note_on_c, 0, 55, 27
1, 75390, Note_on_c, 0, 69, 38
1, 75436, Note_on_c, 0, 62, 18
1, 75439, Note_off_c, 0, 70, 64
1, 75527, Note_off_c, 0, 62, 64
1, 75571, Note_on_c, 0, 72, 58
1, 75589, Note_off_c, 0, 69, 64
1, 75603, Note_on_c, 0, 58, 15
1, 75719, Note_off_c, 0, 58, 64
1, 75734, Note_on_c, 0, 70, 64
1, 75758, Note_off_c, 0, 72, 64
1, 75773, Note_on_c, 0, 62, 20
1, 75822, Note_off_c, 0, 70, 64
1, 75861, Note_off_c, 0, 62, 64
1, 75904, Note_on_c, 0, 70, 44
1, 75939, Note_on_c, 0, 57, 17
1, 75939, Note_off_c, 0, 55, 64
1, 75939, Control_c, 0, 64, 0
1, 76115, Note_on_c, 0, 69, 38
1, 76121, Note_on_c, 0, 62, 22
1, 76176, Note_off_c, 0, 70, 64
1, 76284, Note_on_c, 0, 67, 40
1, 76299, Note_off_c, 0, 62, 64
1, 76324, Note_on_c, 0, 60, 22
1, 76333, Note_off_c, 0, 69, 64
1, 76466, Note_on_c, 0, 66, 39
1, 76502, Note_off_c, 0, 67, 64
1, 76513, Note_on_c, 0, 62, 26
1, 76535, Note_off_c, 0, 60, 64
1, 76541, Control_c, 0, 64, 127
1, 76599, Note_off_c, 0, 62, 64
1, 76653, Note_off_c, 0, 57, 64
1, 76686, Note_on_c, 0, 67, 37
1, 76703, Note_on_c, 0, 55, 22
1, 76720, Control_c, 0, 64, 0
1, 76780, Note_off_c, 0, 66, 64
1, 76901, Note_on_c, 0, 62, 18
1, 77051, Note_off_c, 0, 62, 64
1, 77063, Note_on_c, 0, 58, 17
1, 77176, Control_c, 0, 64, 127
1, 77252, Note_off_c, 0, 55, 64
1, 77277, Note_on_c, 0, 70, 28
1, 77321, Note_on_c, 0, 62, 14
1, 77346, Note_off_c, 0, 58, 64
1, 77372, Note_off_c, 0, 67, 64
1, 77404, Note_off_c, 0, 62, 64
1, 77505, Note_on_c, 0, 74, 36
1, 77519, Note_on_c, 0, 55, 19
1, 77524, Control_c, 0, 64, 0
1, 77554, Note_off_c, 0, 70, 64
1, 77695, Note_on_c, 0, 62, 27
1, 77800, Control_c, 0, 64, 127
1, 77850, Note_off_c, 0, 62, 64
1, 77876, Note_on_c, 0, 58, 20
1, 77876, Note_off_c, 0, 55, 64
1, 78071, Note_on_c, 0, 62, 22
1, 78098, Note_off_c, 0, 58, 64
1, 78159, Note_off_c, 0, 62, 64
1, 78244, Note_on_c, 0, 55, 32
1, 78282, Note_off_c, 0, 74, 64
1, 78432, Note_on_c, 0, 62, 26
1, 78538, Note_off_c, 0, 62, 64
1, 78603, Note_on_c, 0, 58, 21
1, 78803, Note_on_c, 0, 62, 24
1, 78828, Note_off_c, 0, 58, 64
1, 78890, Note_off_c, 0, 62, 64
1, 78940, Note_off_c, 0, 55, 64
1, 79034, Note_on_c, 0, 74, 53
1, 79046, Note_on_c, 0, 54, 34
1, 79166, Control_c, 0, 64, 0
1, 79265, Note_on_c, 0, 62, 25
1, 79397, Note_off_c, 0, 62, 64
1, 79418, Control_c, 0, 64, 127
1, 79436, Note_on_c, 0, 57, 25
1, 79563, Note_off_c, 0, 54, 64
1, 79619, Note_on_c, 0, 62, 25
1, 79701, Note_off_c, 0, 62, 64
1, 79787, Note_on_c, 0, 54, 33
1, 79797, Note_off_c, 0, 57, 64
1, 79981, Note_on_c, 0, 73, 50
1, 80015, Note_on_c, 0, 62, 28
1, 80040, Note_off_c, 0, 74, 64
1, 80190, Note_on_c, 0, 75, 63
1, 80196, Note_off_c, 0, 62, 64
1, 80238, Note_on_c, 0, 57, 24
1, 80238, Note_off_c, 0, 73, 64
1, 80311, Note_off_c, 0, 57, 64
1, 80372, Note_on_c, 0, 74, 82
1, 80408, Note_on_c, 0, 62, 27
1, 80428, Note_off_c, 0, 75, 64
1, 80469, Note_off_c, 0, 74, 64
1, 80485, Note_off_c, 0, 62, 64
1, 80549, Note_on_c, 0, 74, 54
1, 80573, Note_on_c, 0, 50, 30
1, 80603, Control_c, 0, 64, 0
1, 80650, Note_off_c, 0, 54, 64
1, 80736, Note_on_c, 0, 72, 60
1, 80761, Note_on_c, 0, 62, 29
1, 80784, Control_c, 0, 64, 127
1, 80817, Note_off_c, 0, 74, 64
1, 80864, Note_off_c, 0, 62, 64
1, 80901, Note_on_c, 0, 70, 55
1, 80924, Note_on_c, 0, 54, 40
1, 80959, Note_off_c, 0, 72, 64
1, 81040, Note_off_c, 0, 50, 64
1, 81070, Note_on_c, 0, 69, 65
1, 81081, Note_on_c, 0, 62, 33
1, 81110, Note_off_c, 0, 70, 64
1, 81119, Note_off_c, 0, 54, 64
1, 81221, Note_off_c, 0, 62, 64
1, 81290, Note_on_c, 0, 70, 66
1, 81322, Note_on_c, 0, 55, 34
1, 81322, Control_c, 0, 64, 0
1, 81360, Note_off_c, 0, 69, 64
1, 81492, Note_on_c, 0, 62, 30
1, 81633, Note_off_c, 0, 62, 64
1, 81658, Control_c, 0, 64, 127
1, 81670, Note_on_c, 0, 58, 26
1, 81767, Note_off_c, 0, 55, 64
1, 81848, Note_on_c, 0, 74, 66
1, 81867, Note_on_c, 0, 62, 31
1, 81875, Note_off_c, 0, 58, 64
1, 81974, Note_off_c, 0, 70, 64
1, 81987, Note_off_c, 0, 62, 64
1, 82096, Note_on_c, 0, 79, 75
1, 82121, Note_on_c, 0, 55, 27
1, 82174, Note_off_c, 0, 74, 64
1, 82222, Control_c, 0, 64, 0
1, 82299, Note_on_c, 0, 62, 37
1, 82402, Control_c, 0, 64, 127
1, 82450, Note_off_c, 0, 62, 64
1, 82463, Note_on_c, 0, 58, 33
1, 82533, Note_off_c, 0, 55, 64
1, 82633, Note_off_c, 0, 58, 64
1, 82653, Note_on_c, 0, 62, 43
1, 82792, Note_off_c, 0, 62, 64
1, 82846, Note_on_c, 0, 55, 42
1, 82968, Note_off_c, 0, 79, 64
1, 82998, Note_on_c, 0, 63, 47
1, 83085, Control_c, 0, 64, 0
1, 83188, Note_on_c, 0, 58, 42
1, 83201, Note_off_c, 0, 63, 64
1, 83252, Control_c, 0, 64, 127
1, 83289, Note_off_c, 0, 55, 64
1, 83363, Note_on_c, 0, 63, 64
1, 83371, Note_off_c, 0, 58, 64
1, 83502, Note_off_c, 0, 63, 64
1, 83614, Note_on_c, 0, 77, 83
1, 83617, Note_on_c, 0, 57, 31
1, 83779, Control_c, 0, 64, 0
1, 83825, Note_on_c, 0, 65, 38
1, 83984, Control_c, 0, 64, 127
1, 84012, Note_off_c, 0, 65, 64
1, 84016, Note_on_c, 0, 60, 41
1, 84101, Note_off_c, 0, 57, 64
1, 84193, Note_off_c, 0, 60, 64
1, 84193, Note_on_c, 0, 65, 46
1, 84342, Note_off_c, 0, 65, 64
1, 84364, Note_on_c, 0, 57, 41
1, 84594, Note_on_c, 0, 81, 85
1, 84611, Note_on_c, 0, 65, 36
1, 84654, Control_c, 0, 64, 0
1, 84665, Note_off_c, 0, 77, 64
1, 84820, Note_off_c, 0, 65, 64
1, 84823, Control_c, 0, 64, 127
1, 84840, Note_on_c, 0, 84, 78
1, 84846, Note_on_c, 0, 60, 25
1, 84870, Control_c, 0, 64, 0
1, 84878, Note_off_c, 0, 81, 64
1, 85015, Control_c, 0, 64, 127
1, 85037, Note_off_c, 0, 57, 64
1, 85051, Note_on_c, 0, 82, 61
1, 85079, Note_on_c, 0, 65, 22
1, 85133, Note_off_c, 0, 84, 64
1, 85160, Note_off_c, 0, 60, 64
1, 85177, Note_off_c, 0, 65, 64
1, 85246, Note_on_c, 0, 81, 59
1, 85264, Note_on_c, 0, 57, 19
1, 85322, Note_off_c, 0, 82, 64
1, 85433, Note_on_c, 0, 79, 71
1, 85453, Note_on_c, 0, 65, 23
1, 85481, Control_c, 0, 64, 0
1, 85481, Note_off_c, 0, 81, 64
1, 85603, Note_on_c, 0, 77, 68
1, 85606, Note_off_c, 0, 65, 64
1, 85614, Control_c, 0, 64, 127
1, 85634, Note_on_c, 0, 60, 25
1, 85640, Note_off_c, 0, 79, 64
1, 85739, Note_off_c, 0, 60, 64
1, 85779, Note_on_c, 0, 75, 66
1, 85817, Note_on_c, 0, 65, 26
1, 85843, Note_off_c, 0, 77, 64
1, 85890, Note_off_c, 0, 65, 64
1, 85941, Note_off_c, 0, 57, 64
1, 85985, Note_on_c, 0, 74, 69
1, 85985, Note_on_c, 0, 58, 29
1, 86090, Note_off_c, 0, 75, 64
1, 86090, Control_c, 0, 64, 0
1, 86179, Note_on_c, 0, 65, 34
1, 86350, Note_off_c, 0, 65, 64
1, 86356, Control_c, 0, 64, 127
1, 86383, Note_on_c, 0, 62, 27
1, 86547, Note_off_c, 0, 62, 64
1, 86578, Note_on_c, 0, 65, 36
1, 86698, Note_off_c, 0, 65, 64
1, 86720, Note_off_c, 0, 58, 64
1, 86754, Note_on_c, 0, 55, 40
1, 86940, Note_on_c, 0, 79, 80
1, 86940, Note_on_c, 0, 62, 36
1, 86994, Note_off_c, 0, 74, 64
1, 87141, Note_off_c, 0, 62, 64
1, 87160, Control_c, 0, 64, 0
1, 87166, Note_on_c, 0, 82, 53
1, 87185, Note_on_c, 0, 58, 21
1, 87214, Note_off_c, 0, 79, 64
1, 87367, Note_off_c, 0, 55, 64
1, 87375, Control_c, 0, 64, 127
1, 87381, Note_on_c, 0, 81, 55
1, 87403, Note_on_c, 0, 62, 28
1, 87408, Note_off_c, 0, 58, 64
1, 87459, Note_off_c, 0, 82, 64
1, 87469, Note_off_c, 0, 62, 64
1, 87578, Note_on_c, 0, 79, 64
1, 87598, Note_on_c, 0, 50, 39
1, 87629, Note_off_c, 0, 81, 64
1, 87768, Note_on_c, 0, 77, 60
1, 87774, Note_on_c, 0, 58, 27
1, 87787, Note_off_c, 0, 79, 64
1, 87926, Control_c, 0, 64, 0
1, 87938, Note_on_c, 0, 75, 64
1, 87955, Note_off_c, 0, 58, 64
1, 87984, Note_on_c, 0, 53, 54
1, 87991, Note_off_c, 0, 77, 64
1, 88107, Control_c, 0, 64, 127
1, 88124, Note_on_c, 0, 74, 76
1, 88141, Note_on_c, 0, 58, 25
1, 88150, Note_off_c, 0, 53, 64
1, 88177, Note_off_c, 0, 75, 64
1, 88306, Note_on_c, 0, 71, 68
1, 88331, Note_off_c, 0, 50, 64
1, 88335, Control_c, 0, 64, 0
1, 88335, Note_off_c, 0, 74, 64
1, 88344, Note_off_c, 0, 58, 64
1, 88380, Note_on_c, 0, 51, 35
1, 88503, Note_on_c, 0, 72, 67
1, 88536, Note_on_c, 0, 60, 27
1, 88548, Note_off_c, 0, 71, 64
1, 88682, Note_off_c, 0, 60, 64
1, 88693, Control_c, 0, 64, 127
1, 88700, Note_on_c, 0, 75, 49
1, 88718, Control_c, 0, 64, 0
1, 88728, Note_on_c, 0, 55, 24
1, 88732, Note_off_c, 0, 72, 64
1, 88916, Note_on_c, 0, 79, 54
1, 88937, Note_off_c, 0, 75, 64
1, 88941, Note_off_c, 0, 55, 64
1, 88946, Note_on_c, 0, 60, 22
1, 89030, Control_c, 0, 64, 127
1, 89146, Note_off_c, 0, 60, 64
1, 89160, Note_on_c, 0, 70, 42
1, 89171, Note_on_c, 0, 53, 44
1, 89224, Note_off_c, 0, 79, 64
1, 89244, Control_c, 0, 64, 0
1, 89285, Note_off_c, 0, 51, 64
1, 89394, Note_on_c, 0, 62, 27
1, 89545, Control_c, 0, 64, 127
1, 89550, Note_off_c, 0, 62, 64
1, 89606, Note_on_c, 0, 58, 23
1, 89620, Note_off_c, 0, 70, 64
1, 89626, Note_off_c, 0, 53, 64
1, 89770, Note_off_c, 0, 58, 64
1, 89781, Note_on_c, 0, 70, 59
1, 89809, Note_on_c, 0, 62, 25
1, 89894, Note_off_c, 0, 62, 64
1, 90002, Note_on_c, 0, 74, 61
1, 90011, Control_c, 0, 64, 0
1, 90029, Note_on_c, 0, 53, 32
1, 90032, Note_off_c, 0, 70, 64
1, 90194, Note_on_c, 0, 63, 35
1, 90202, Note_on_c, 0, 72, 61
1, 90252, Note_off_c, 0, 74, 64
1, 90263, Control_c, 0, 64, 127
1, 90381, Note_off_c, 0, 63, 64
1, 90411, Note_on_c, 0, 70, 52
1, 90444, Control_c, 0, 64, 0
1, 90453, Note_on_c, 0, 60, 21
1, 90459, Note_off_c, 0, 72, 64
1, 90598, Control_c, 0, 64, 127
1, 90660, Note_on_c, 0, 72, 56
1, 90665, Note_off_c, 0, 60, 64
1, 90671, Note_on_c, 0, 63, 40
1, 90679, Note_off_c, 0, 70, 64
1, 90682, Note_off_c, 0, 53, 64
1, 90790, Note_off_c, 0, 63, 64
1, 90812, Note_off_c, 0, 72, 64
1, 91029, Note_on_c, 0, 72, 50
1, 91041, Note_on_c, 0, 69, 26
1, 91055, Note_on_c, 0, 63, 37
1, 91060, Note_on_c, 0, 58, 14
1, 91066, Control_c, 0, 64, 0
1, 91606, Control_c, 0, 64, 127
1, 92021, Note_on_c, 0, 70, 28
1, 92035, Note_off_c, 0, 63, 64
1, 92035, Note_off_c, 0, 69, 64
1, 92079, Note_on_c, 0, 62, 16
1, 92097, Control_c, 0, 64, 0
1, 92105, Note_off_c, 0, 72, 64
1, 92263, Note_on_c, 0, 69, 37
1, 92361, Note_off_c, 0, 70, 64
1, 92361, Control_c, 0, 64, 127
1, 92445, Control_c, 0, 64, 0
1, 92467, Note_on_c, 0, 72, 52
1, 92517, Note_off_c, 0, 69, 64
1, 92576, Control_c, 0, 64, 127
1, 92624, Control_c, 0, 64, 0
1, 92642, Note_on_c, 0, 70, 59
1, 92693, Note_off_c, 0, 72, 64
1, 92713, Note_off_c, 0, 62, 64
1, 92735, Note_off_c, 0, 58, 64
1, 92756, Control_c, 0, 64, 127
1, 92804, Control_c, 0, 64, 0
1, 92826, Note_on_c, 0, 74, 66
1, 92869, Note_off_c, 0, 70, 64
1, 92972, Control_c, 0, 64, 127
1, 92993, Note_on_c, 0, 72, 60
1, 93021, Control_c, 0, 64, 0
1, 93027, Note_off_c, 0, 74, 64
1, 93164, Control_c, 0, 64, 127
1, 93181, Note_on_c, 0, 75, 53
1, 93200, Control_c, 0, 64, 0
1, 93231, Note_off_c, 0, 72, 64
1, 93344, Control_c, 0, 64, 127
1, 93390, Note_on_c, 0, 74, 60
1, 93440, Note_off_c, 0, 75, 64
1, 93718, Note_on_c, 0, 56, 27
1, 93726, Note_on_c, 0, 77, 53
1, 93763, Control_c, 0, 64, 0
1, 93780, Note_off_c, 0, 74, 64
1, 94008, Note_on_c, 0, 65, 17
1, 94147, Control_c, 0, 64, 127
1, 94175, Note_off_c, 0, 65, 64
1, 94214, Note_on_c, 0, 60, 25
1, 94394, Note_off_c, 0, 60, 64
1, 94440, Note_on_c, 0, 65, 21
1, 94500, Note_off_c, 0, 65, 64
1, 94526, Note_off_c, 0, 56, 64
1, 94628, Note_on_c, 0, 55, 34
1, 94821, Note_on_c, 0, 80, 58
1, 94843, Note_on_c, 0, 62, 27
1, 94866, Control_c, 0, 64, 0
1, 94879, Note_off_c, 0, 77, 64
1, 95004, Note_off_c, 0, 62, 64
1, 95022, Note_on_c, 0, 79, 73
1, 95038, Note_on_c, 0, 59, 33
1, 95046, Control_c, 0, 64, 127
1, 95092, Note_off_c, 0, 80, 64
1, 95195, Note_on_c, 0, 77, 72
1, 95213, Note_off_c, 0, 79, 64
1, 95225, Note_on_c, 0, 62, 31
1, 95230, Note_off_c, 0, 59, 64
1, 95311, Note_off_c, 0, 62, 64
1, 95351, Note_off_c, 0, 55, 64
1, 95361, Note_on_c, 0, 75, 69
1, 95393, Note_on_c, 0, 53, 54
1, 95423, Note_off_c, 0, 77, 64
1, 95465, Control_c, 0, 64, 0
1, 95545, Note_on_c, 0, 74, 74
1, 95567, Note_on_c, 0, 62, 41
1, 95613, Note_off_c, 0, 75, 64
1, 95632, Control_c, 0, 64, 127
1, 95657, Note_off_c, 0, 62, 64
1, 95715, Note_on_c, 0, 72, 69
1, 95740, Note_off_c, 0, 74, 64
1, 95746, Note_on_c, 0, 55, 42
1, 95815, Note_off_c, 0, 55, 64
1, 95893, Note_on_c, 0, 71, 85
1, 95918, Note_off_c, 0, 72, 64
1, 95925, Note_on_c, 0, 62, 36
1, 95950, Note_off_c, 0, 53, 64
1, 96041, Note_off_c, 0, 62, 64
1, 96103, Note_on_c, 0, 72, 78
1, 96111, Note_on_c, 0, 51, 44
1, 96150, Note_off_c, 0, 71, 64
1, 96184, Control_c, 0, 64, 0
1, 96289, Note_on_c, 0, 60, 43
1, 96448, Note_off_c, 0, 60, 64
1, 96448, Control_c, 0, 64, 127
1, 96495, Note_on_c, 0, 55, 47
1, 96699, Note_off_c, 0, 55, 64
1, 96707, Note_on_c, 0, 75, 64
1, 96732, Note_on_c, 0, 60, 35
1, 96829, Note_off_c, 0, 72, 64
1, 96871, Note_off_c, 0, 60, 64
1, 96922, Note_on_c, 0, 79, 73
1, 96925, Note_on_c, 0, 50, 49
1, 96975, Control_c, 0, 64, 0
1, 96978, Note_off_c, 0, 51, 64
1, 97003, Note_off_c, 0, 75, 64
1, 97103, Note_on_c, 0, 59, 39
1, 97239, Control_c, 0, 64, 127
1, 97269, Note_off_c, 0, 59, 64
1, 97294, Note_on_c, 0, 53, 63
1, 97464, Note_off_c, 0, 53, 64
1, 97473, Note_on_c, 0, 59, 51
1, 97596, Note_off_c, 0, 50, 64
1, 97612, Note_off_c, 0, 59, 64
1, 97632, Note_off_c, 0, 79, 64
1, 97632, Note_on_c, 0, 48, 44
1, 97718, Control_c, 0, 64, 0
1, 97805, Note_on_c, 0, 60, 49
1, 97996, Note_on_c, 0, 51, 46
1, 98003, Note_off_c, 0, 60, 64
1, 98017, Control_c, 0, 64, 127
1, 98170, Note_on_c, 0, 60, 52
1, 98186, Note_off_c, 0, 51, 64
1, 98255, Note_off_c, 0, 60, 64
1, 98295, Note_off_c, 0, 48, 64
1, 98395, Note_on_c, 0, 79, 91
1, 98404, Note_on_c, 0, 49, 52
1, 98591, Note_on_c, 0, 58, 32
1, 98591, Control_c, 0, 64, 0
1, 98783, Note_off_c, 0, 58, 64
1, 98793, Note_on_c, 0, 52, 58
1, 98793, Control_c, 0, 64, 127
1, 98969, Note_on_c, 0, 58, 44
1, 98972, Note_off_c, 0, 52, 64
1, 99130, Note_off_c, 0, 58, 64
1, 99156, Note_on_c, 0, 50, 57
1, 99205, Control_c, 0, 64, 0
1, 99212, Note_off_c, 0, 49, 64
1, 99333, Note_on_c, 0, 78, 76
1, 99339, Note_on_c, 0, 58, 39
1, 99406, Note_off_c, 0, 79, 64
1, 99406, Control_c, 0, 64, 127
1, 99548, Note_off_c, 0, 58, 64
1, 99548, Note_on_c, 0, 81, 80
1, 99568, Note_on_c, 0, 55, 49
1, 99599, Note_off_c, 0, 78, 64
1, 99746, Note_on_c, 0, 79, 93
1, 99754, Note_on_c, 0, 58, 35
1, 99754, Note_off_c, 0, 55, 64
1, 99824, Note_off_c, 0, 81, 64
1, 99921, Note_off_c, 0, 58, 64
1, 99947, Note_off_c, 0, 50, 64
1, 99953, Note_on_c, 0, 82, 73
1, 99978, Note_on_c, 0, 51, 51
1, 99992, Note_off_c, 0, 79, 64
1, 100019, Control_c, 0, 64, 0
1, 100133, Note_on_c, 0, 73, 59
1, 100152, Note_on_c, 0, 58, 33
1, 100195, Note_off_c, 0, 82, 64
1, 100259, Control_c, 0, 64, 127
1, 100336, Note_off_c, 0, 58, 64
1, 100345, Note_on_c, 0, 82, 68
1, 100350, Note_off_c, 0, 73, 64
1, 100367, Control_c, 0, 64, 0
1, 100381, Note_on_c, 0, 55, 29
1, 100523, Control_c, 0, 64, 127
1, 100579, Note_off_c, 0, 55, 64
1, 100579, Note_on_c, 0, 73, 62
1, 100591, Note_on_c, 0, 58, 21
1, 100613, Note_off_c, 0, 82, 64
1, 100740, Note_off_c, 0, 73, 64
1, 100740, Note_off_c, 0, 58, 64
1, 100838, Note_off_c, 0, 51, 64
1, 100875, Note_on_c, 0, 73, 54
1, 100910, Note_on_c, 0, 50, 24
1, 101038, Control_c, 0, 64, 0
1, 101116, Note_on_c, 0, 58, 22
1, 101301, Control_c, 0, 64, 127
1, 101320, Note_off_c, 0, 58, 64
1, 101368, Note_on_c, 0, 55, 24
1, 101437, Note_off_c, 0, 50, 64
1, 101577, Note_off_c, 0, 55, 64
1, 101594, Note_on_c, 0, 58, 21
1, 101743, Note_off_c, 0, 58, 64
1, 101821, Note_on_c, 0, 74, 41
1, 101828, Control_c, 0, 64, 0
1, 101850, Note_on_c, 0, 50, 21
1, 101917, Note_off_c, 0, 73, 64
1, 102025, Note_on_c, 0, 57, 25
1, 102128, Control_c, 0, 64, 127
1, 102181, Note_off_c, 0, 57, 64
1, 102212, Note_on_c, 0, 54, 33
1, 102231, Note_off_c, 0, 50, 64
1, 102382, Note_off_c, 0, 54, 64
1, 102418, Note_on_c, 0, 57, 26
1, 102541, Note_off_c, 0, 57, 64
1, 102599, Note_on_c, 0, 50, 34
1, 102613, Note_off_c, 0, 74, 64
1, 102782, Note_on_c, 0, 57, 26
1, 102916, Note_off_c, 0, 57, 64
1, 102963, Note_on_c, 0, 54, 37
1, 103144, Note_off_c, 0, 54, 64
1, 103159, Note_on_c, 0, 57, 36
1, 103298, Note_off_c, 0, 57, 64
1, 103381, Note_on_c, 0, 75, 62
1, 103393, Note_on_c, 0, 48, 30
1, 103424, Note_off_c, 0, 50, 64
1, 103495, Control_c, 0, 64, 0
1, 103598, Note_on_c, 0, 57, 30
1, 103722, Control_c, 0, 64, 127
1, 103768, Note_off_c, 0, 57, 64
1, 103788, Note_on_c, 0, 54, 34
1, 103877, Note_off_c, 0, 48, 64
1, 103967, Note_on_c, 0, 57, 38
1, 104083, Note_off_c, 0, 54, 64
1, 104108, Note_off_c, 0, 57, 64
1, 104154, Note_on_c, 0, 48, 39
1, 104201, Control_c, 0, 64, 0
1, 104351, Note_on_c, 0, 72, 68
1, 104351, Note_on_c, 0, 57, 29
1, 104370, Control_c, 0, 64, 127
1, 104406, Note_off_c, 0, 75, 64
1, 104534, Note_off_c, 0, 57, 64
1, 104548, Note_on_c, 0, 81, 84
1, 104565, Note_on_c, 0, 54, 41
1, 104594, Note_off_c, 0, 72, 64
1, 104672, Note_off_c, 0, 48, 64
1, 104708, Note_on_c, 0, 78, 86
1, 104732, Note_on_c, 0, 57, 32
1, 104764, Note_off_c, 0, 81, 64
1, 104878, Note_off_c, 0, 57, 64
1, 104903, Note_on_c, 0, 84, 98
1, 104911, Note_on_c, 0, 48, 32
1, 104915, Note_off_c, 0, 78, 64
1, 104918, Note_off_c, 0, 54, 64
1, 104964, Control_c, 0, 64, 0
1, 105087, Note_on_c, 0, 81, 91
1, 105109, Note_on_c, 0, 57, 33
1, 105112, Control_c, 0, 64, 127
1, 105123, Note_off_c, 0, 84, 64
1, 105310, Note_off_c, 0, 57, 64
1, 105332, Note_on_c, 0, 87, 78
1, 105353, Control_c, 0, 64, 0
1, 105353, Note_off_c, 0, 81, 64
1, 105357, Note_on_c, 0, 54, 35
1, 105509, Control_c, 0, 64, 127
1, 105555, Note_on_c, 0, 78, 79
1, 105569, Note_off_c, 0, 48, 64
1, 105593, Note_on_c, 0, 57, 28
1, 105618, Note_off_c, 0, 54, 64
1, 105627, Note_off_c, 0, 87, 64
1, 105766, Note_off_c, 0, 57, 64
1, 105813, Note_on_c, 0, 86, 83
1, 105821, Note_on_c, 0, 46, 35
1, 105847, Note_off_c, 0, 78, 64
1, 105855, Control_c, 0, 64, 0
1, 106055, Note_on_c, 0, 55, 45
1, 106108, Control_c, 0, 64, 127
1, 106232, Note_off_c, 0, 55, 64
1, 106259, Note_on_c, 0, 50, 44
1, 106359, Note_off_c, 0, 46, 64
1, 106465, Note_on_c, 0, 55, 45
1, 106493, Note_off_c, 0, 50, 64
1, 106593, Note_off_c, 0, 55, 64
1, 106647, Note_on_c, 0, 46, 47
1, 106853, Note_on_c, 0, 81, 77
1, 106872, Note_on_c, 0, 55, 34
1, 106917, Note_off_c, 0, 86, 64
1, 106986, Note_off_c, 0, 55, 64
1, 107079, Note_on_c, 0, 82, 65
1, 107098, Note_on_c, 0, 50, 36
1, 107126, Note_off_c, 0, 81, 64
1, 107214, Note_off_c, 0, 46, 64
1, 107279, Note_on_c, 0, 78, 68
1, 107292, Note_on_c, 0, 55, 34
1, 107303, Note_off_c, 0, 82, 64
1, 107315, Note_off_c, 0, 50, 64
1, 107366, Note_off_c, 0, 55, 64
1, 107482, Note_on_c, 0, 46, 33
1, 107488, Note_on_c, 0, 79, 70
1, 107493, Note_off_c, 0, 78, 64
1, 107668, Note_on_c, 0, 73, 62
1, 107696, Note_on_c, 0, 55, 43
1, 107707, Note_off_c, 0, 79, 64
1, 107825, Note_off_c, 0, 55, 64
1, 107861, Note_on_c, 0, 74, 79
1, 107892, Note_on_c, 0, 50, 39
1, 107897, Note_off_c, 0, 73, 64
1, 107984, Note_off_c, 0, 50, 64
1, 108036, Note_on_c, 0, 70, 63
1, 108044, Note_off_c, 0, 74, 64
1, 108073, Note_on_c, 0, 55, 42
1, 108159, Note_off_c, 0, 70, 64
1, 108253, Note_on_c, 0, 70, 62
1, 108259, Note_off_c, 0, 55, 64
1, 108259, Note_on_c, 0, 48, 35
1, 108310, Note_off_c, 0, 46, 64
1, 108409, Control_c, 0, 64, 0
1, 108459, Note_on_c, 0, 69, 63
1, 108473, Note_on_c, 0, 57, 35
1, 108518, Note_off_c, 0, 70, 64
1, 108636, Control_c, 0, 64, 127
1, 108653, Note_off_c, 0, 57, 64
1, 108653, Note_on_c, 0, 72, 70
1, 108669, Note_on_c, 0, 51, 39
1, 108669, Control_c, 0, 64, 0
1, 108700, Note_off_c, 0, 69, 64
1, 108841, Control_c, 0, 64, 127
1, 108883, Note_on_c, 0, 75, 65
1, 108900, Note_on_c, 0, 57, 31
1, 108900, Note_off_c, 0, 51, 64
1, 108923, Control_c, 0, 64, 0
1, 108927, Note_off_c, 0, 72, 64
1, 109056, Control_c, 0, 64, 127
1, 109128, Note_off_c, 0, 57, 64
1, 109146, Note_off_c, 0, 48, 64
1, 109149, Note_on_c, 0, 67, 49
1, 109178, Note_on_c, 0, 50, 28
1, 109212, Control_c, 0, 64, 0
1, 109254, Note_off_c, 0, 75, 64
1, 109366, Note_on_c, 0, 58, 28
1, 109487, Control_c, 0, 64, 127
1, 109563, Note_off_c, 0, 58, 64
1, 109625, Note_on_c, 0, 55, 22
1, 109635, Note_off_c, 0, 50, 64
1, 109664, Note_off_c, 0, 67, 64
1, 109792, Note_on_c, 0, 67, 51
1, 109797, Note_off_c, 0, 55, 64
1, 109806, Note_on_c, 0, 58, 25
1, 109965, Note_off_c, 0, 58, 64
1, 110004, Note_on_c, 0, 70, 42
1, 110015, Control_c, 0, 64, 0
1, 110028, Note_on_c, 0, 50, 30
1, 110056, Note_off_c, 0, 67, 64
1, 110218, Control_c, 0, 64, 127
1, 110221, Note_on_c, 0, 69, 43
1, 110242, Control_c, 0, 64, 0
1, 110248, Note_on_c, 0, 60, 21
1, 110288, Note_off_c, 0, 70, 64
1, 110438, Note_off_c, 0, 60, 64
1, 110446, Control_c, 0, 64, 127
1, 110469, Note_on_c, 0, 67, 43
1, 110482, Control_c, 0, 64, 0
1, 110486, Note_on_c, 0, 57, 23
1, 110522, Note_off_c, 0, 69, 64
1, 110650, Control_c, 0, 64, 127
1, 110710, Control_c, 0, 64, 0
1, 110739, Note_on_c, 0, 69, 38
1, 110753, Note_off_c, 0, 67, 64
1, 110763, Note_on_c, 0, 60, 24
1, 110784, Note_off_c, 0, 57, 64
1, 110889, Control_c, 0, 64, 127
1, 110925, Note_off_c, 0, 60, 64
1, 110944, Note_off_c, 0, 69, 64
1, 110975, Note_off_c, 0, 50, 64
1, 111115, Note_on_c, 0, 69, 35
1, 111135, Note_on_c, 0, 66, 18
1, 111156, Note_on_c, 0, 60, 22
1, 111181, Note_on_c, 0, 55, 9
1, 111549, Control_c, 0, 64, 0
1, 111741, Control_c, 0, 64, 127
1, 112252, Note_off_c, 0, 60, 64
1, 112252, Note_on_c, 0, 58, 11
1, 112257, Note_off_c, 0, 66, 64
1, 112257, Note_on_c, 0, 67, 18
1, 112302, Note_off_c, 0, 69, 64
1, 112327, Control_c, 0, 64, 0
1, 112580, Control_c, 0, 64, 127
1, 112619, Note_on_c, 0, 66, 29
1, 112666, Note_off_c, 0, 67, 64
1, 112887, Note_on_c, 0, 67, 36
1, 112892, Control_c, 0, 64, 0
1, 112934, Note_off_c, 0, 66, 64
1, 113023, Control_c, 0, 64, 127
1, 113059, Control_c, 0, 64, 0
1, 113096, Note_on_c, 0, 68, 40
1, 113096, Note_off_c, 0, 58, 64
1, 113106, Note_off_c, 0, 55, 64
1, 113129, Note_off_c, 0, 67, 64
1, 113190, Control_c, 0, 64, 127
1, 113215, Control_c, 0, 64, 0
1, 113337, Note_on_c, 0, 69, 36
1, 113366, Note_off_c, 0, 68, 64
1, 113479, Control_c, 0, 64, 127
1, 113571, Note_on_c, 0, 68, 26
1, 113574, Control_c, 0, 64, 0
1, 113605, Note_off_c, 0, 69, 64
1, 113717, Control_c, 0, 64, 127
1, 113742, Control_c, 0, 64, 0
1, 113837, Control_c, 0, 64, 127
1, 113847, Note_on_c, 0, 69, 20
1, 113873, Control_c, 0, 64, 0
1, 113884, Note_off_c, 0, 68, 64
1, 114006, Control_c, 0, 64, 127
1, 114145, Note_on_c, 0, 70, 21
1, 114174, Control_c, 0, 64, 0
1, 114192, Note_off_c, 0, 69, 64
1, 114341, Control_c, 0, 64, 127
1, 114660, Note_on_c, 0, 71, 36
1, 114660, Note_off_c, 0, 70, 64
1, 114678, Note_on_c, 0, 55, 13
1, 114987, Note_on_c, 0, 62, 19
1, 115012, Control_c, 0, 64, 0
1, 115185, Note_off_c, 0, 62, 64
1, 115191, Control_c, 0, 64, 127
1, 115229, Note_on_c, 0, 59, 14
1, 115262, Note_off_c, 0, 55, 64
1, 115388, Note_off_c, 0, 59, 64
1, 115438, Note_on_c, 0, 62, 16
1, 115521, Note_off_c, 0, 62, 64
1, 115647, Note_on_c, 0, 55, 13
1, 115776, Note_off_c, 0, 55, 64
1, 115847, Note_on_c, 0, 62, 12
1, 115939, Note_off_c, 0, 62, 64
1, 116059, Note_on_c, 0, 59, 7
1, 116249, Note_off_c, 0, 59, 64
1, 116258, Note_on_c, 0, 62, 17
1, 116413, Note_off_c, 0, 62, 64
1, 116464, Note_on_c, 0, 74, 32
1, 116471, Note_on_c, 0, 57, 13
1, 116508, Note_off_c, 0, 71, 64
1, 116535, Control_c, 0, 64, 0
1, 116687, Note_on_c, 0, 72, 36
1, 116714, Note_on_c, 0, 62, 13
1, 116733, Note_off_c, 0, 74, 64
1, 116739, Control_c, 0, 64, 127
1, 116845, Note_off_c, 0, 62, 64
1, 116878, Note_on_c, 0, 71, 47
1, 116900, Note_off_c, 0, 72, 64
1, 116917, Note_on_c, 0, 60, 13
1, 117023, Note_off_c, 0, 60, 64
1, 117060, Note_on_c, 0, 72, 50
1, 117085, Note_off_c, 0, 57, 64
1, 117085, Note_off_c, 0, 71, 64
1, 117092, Note_on_c, 0, 62, 22
1, 117182, Note_off_c, 0, 62, 64
1, 117276, Note_on_c, 0, 74, 44
1, 117280, Note_on_c, 0, 55, 22
1, 117311, Note_off_c, 0, 72, 64
1, 117311, Control_c, 0, 64, 0
1, 117488, Note_on_c, 0, 62, 18
1, 117620, Note_off_c, 0, 62, 64
1, 117625, Control_c, 0, 64, 127
1, 117673, Note_on_c, 0, 59, 13
1, 117748, Note_off_c, 0, 55, 64
1, 117848, Note_on_c, 0, 71, 37
1, 117848, Note_off_c, 0, 59, 64
1, 117876, Note_on_c, 0, 62, 17
1, 117906, Note_off_c, 0, 74, 64
1, 118009, Note_off_c, 0, 62, 64
1, 118059, Note_on_c, 0, 67, 29
1, 118067, Note_off_c, 0, 71, 64
1, 118079, Note_on_c, 0, 55, 23
1, 118079, Control_c, 0, 64, 0
1, 118269, Note_on_c, 0, 62, 21
1, 118318, Note_off_c, 0, 55, 64
1, 118321, Control_c, 0, 64, 127
1, 118375, Note_off_c, 0, 67, 64
1, 118411, Note_off_c, 0, 62, 64
1, 118478, Note_on_c, 0, 59, 13
1, 118569, Note_off_c, 0, 59, 64
1, 118655, Note_on_c, 0, 62, 16
1, 118770, Note_off_c, 0, 62, 64
1, 118848, Note_on_c, 0, 55, 30
1, 118895, Control_c, 0, 64, 0
1, 119057, Note_on_c, 0, 62, 29
1, 119099, Control_c, 0, 64, 127
1, 119208, Note_off_c, 0, 62, 64
1, 119226, Note_off_c, 0, 55, 64
1, 119276, Note_on_c, 0, 59, 10
1, 119375, Note_off_c, 0, 59, 64
1, 119455, Note_on_c, 0, 62, 27
1, 119534, Note_off_c, 0, 62, 64
1, 119708, Note_on_c, 0, 79, 73
1, 119711, Note_on_c, 0, 55, 27
1, 119747, Control_c, 0, 64, 0
1, 119939, Note_on_c, 0, 64, 22
1, 120077, Note_off_c, 0, 64, 64
1, 120082, Control_c, 0, 64, 127
1, 120123, Note_on_c, 0, 60, 25
1, 120151, Note_off_c, 0, 55, 64
1, 120276, Note_off_c, 0, 60, 64
1, 120307, Note_on_c, 0, 64, 32
1, 120416, Note_off_c, 0, 64, 64
1, 120488, Note_on_c, 0, 55, 36
1, 120561, Control_c, 0, 64, 0
1, 120684, Note_on_c, 0, 64, 24
1, 120704, Control_c, 0, 64, 127
1, 120772, Note_off_c, 0, 64, 64
1, 120857, Note_on_c, 0, 81, 53
1, 120884, Note_on_c, 0, 60, 24
1, 120884, Note_off_c, 0, 79, 64
1, 120906, Note_off_c, 0, 55, 64
1, 120993, Note_off_c, 0, 60, 64
1, 121060, Note_on_c, 0, 79, 78
1, 121080, Note_on_c, 0, 64, 22
1, 121133, Note_off_c, 0, 81, 64
1, 121174, Note_off_c, 0, 64, 64
1, 121236, Note_on_c, 0, 78, 64
1, 121261, Note_on_c, 0, 55, 25
1, 121268, Control_c, 0, 64, 0
1, 121305, Note_off_c, 0, 79, 64
1, 121425, Note_on_c, 0, 76, 55
1, 121428, Note_on_c, 0, 61, 35
1, 121491, Note_off_c, 0, 78, 64
1, 121581, Note_off_c, 0, 61, 64
1, 121592, Control_c, 0, 64, 127
1, 121605, Note_on_c, 0, 74, 64
1, 121616, Control_c, 0, 64, 0
1, 121616, Note_on_c, 0, 58, 20
1, 121631, Note_off_c, 0, 76, 64
1, 121712, Note_off_c, 0, 55, 64
1, 121736, Control_c, 0, 64, 127
1, 121778, Note_on_c, 0, 73, 58
1, 121809, Note_on_c, 0, 61, 25
1, 121809, Note_off_c, 0, 74, 64
1, 121818, Note_off_c, 0, 58, 64
1, 121945, Note_off_c, 0, 61, 64
1, 121987, Control_c, 0, 64, 0
1, 122004, Note_on_c, 0, 74, 49
1, 122035, Note_on_c, 0, 55, 24
1, 122060, Note_off_c, 0, 73, 64
1, 122216, Note_on_c, 0, 62, 27
1, 122394, Note_off_c, 0, 62, 64
1, 122442, Control_c, 0, 64, 127
1, 122458, Note_on_c, 0, 59, 15
1, 122550, Note_off_c, 0, 55, 64
1, 122654, Note_off_c, 0, 59, 64
1, 122669, Note_on_c, 0, 71, 37
1, 122708, Note_on_c, 0, 62, 10
1, 122725, Note_off_c, 0, 74, 64
1, 122807, Note_off_c, 0, 62, 64
1, 122874, Control_c, 0, 64, 0
1, 122881, Note_on_c, 0, 67, 29
1, 122901, Note_on_c, 0, 55, 24
1, 122935, Note_off_c, 0, 71, 64
1, 123073, Note_on_c, 0, 62, 25
1, 123143, Note_off_c, 0, 55, 64
1, 123172, Control_c, 0, 64, 127
1, 123216, Note_off_c, 0, 62, 64
1, 123277, Note_on_c, 0, 59, 21
1, 123455, Note_off_c, 0, 59, 64
1, 123469, Note_on_c, 0, 62, 19
1, 123525, Note_off_c, 0, 67, 64
1, 123576, Note_off_c, 0, 62, 64
1, 123656, Note_on_c, 0, 55, 24
1, 123843, Note_on_c, 0, 62, 23
1, 123849, Note_off_c, 0, 55, 64
1, 123977, Note_off_c, 0, 62, 64
1, 124021, Note_on_c, 0, 59, 23
1, 124213, Note_on_c, 0, 62, 25
1, 124216, Note_off_c, 0, 59, 64
1, 124367, Note_off_c, 0, 62, 64
1, 124441, Note_on_c, 0, 57, 15
1, 124441, Note_on_c, 0, 72, 37
1, 124480, Control_c, 0, 64, 0
1, 124654, Note_on_c, 0, 62, 19
1, 124767, Control_c, 0, 64, 127
1, 124801, Note_off_c, 0, 57, 64
1, 124818, Note_off_c, 0, 62, 64
1, 124860, Note_on_c, 0, 60, 18
1, 125038, Note_on_c, 0, 69, 23
1, 125041, Note_off_c, 0, 60, 64
1, 125044, Note_on_c, 0, 62, 25
1, 125069, Note_off_c, 0, 72, 64
1, 125150, Note_off_c, 0, 62, 64
1, 125158, Note_off_c, 0, 69, 64
1, 125224, Note_on_c, 0, 66, 23
1, 125228, Note_on_c, 0, 57, 24
1, 125235, Control_c, 0, 64, 0
1, 125414, Control_c, 0, 64, 127
1, 125425, Note_off_c, 0, 66, 64
1, 125425, Note_on_c, 0, 62, 20
1, 125544, Note_off_c, 0, 62, 64
1, 125617, Note_on_c, 0, 69, 37
1, 125640, Note_on_c, 0, 60, 19
1, 125654, Control_c, 0, 64, 0
1, 125712, Note_off_c, 0, 57, 64
1, 125787, Control_c, 0, 64, 127
1, 125812, Note_off_c, 0, 69, 64
1, 125817, Note_on_c, 0, 62, 21
1, 125835, Note_off_c, 0, 60, 64
1, 125901, Note_off_c, 0, 62, 64
1, 125973, Note_on_c, 0, 71, 60
1, 125999, Note_on_c, 0, 57, 20
1, 126074, Control_c, 0, 64, 0
1, 126166, Note_off_c, 0, 71, 64
1, 126175, Note_on_c, 0, 62, 32
1, 126205, Control_c, 0, 64, 127
1, 126271, Note_off_c, 0, 62, 64
1, 126328, Note_on_c, 0, 72, 58
1, 126350, Note_on_c, 0, 60, 27
1, 126374, Control_c, 0, 64, 0
1, 126517, Control_c, 0, 64, 127
1, 126520, Note_off_c, 0, 72, 64
1, 126530, Note_on_c, 0, 62, 27
1, 126569, Note_off_c, 0, 60, 64
1, 126611, Note_off_c, 0, 62, 64
1, 126664, Note_off_c, 0, 57, 64
1, 126673, Control_c, 0, 64, 0
1, 126693, Note_on_c, 0, 74, 65
1, 126731, Note_on_c, 0, 55, 25
1, 126899, Note_on_c, 0, 62, 32
1, 126924, Control_c, 0, 64, 127
1, 127016, Note_off_c, 0, 62, 64
1, 127085, Note_on_c, 0, 59, 32
1, 127232, Note_off_c, 0, 59, 64
1, 127241, Note_on_c, 0, 71, 62
1, 127256, Note_off_c, 0, 55, 64
1, 127264, Note_on_c, 0, 62, 31
1, 127271, Note_off_c, 0, 74, 64
1, 127377, Note_off_c, 0, 62, 64
1, 127428, Control_c, 0, 64, 0
1, 127442, Note_on_c, 0, 79, 69
1, 127446, Note_on_c, 0, 52, 46
1, 127480, Note_off_c, 0, 71, 64
1, 127618, Note_on_c, 0, 59, 39
1, 127757, Note_off_c, 0, 59, 64
1, 127776, Control_c, 0, 64, 127
1, 127813, Note_on_c, 0, 55, 35
1, 127919, Note_off_c, 0, 52, 64
1, 127983, Note_off_c, 0, 55, 64
1, 127991, Note_on_c, 0, 59, 41
1, 128097, Note_off_c, 0, 59, 64
1, 128155, Note_on_c, 0, 47, 38
1, 128197, Note_off_c, 0, 79, 64
1, 128278, Control_c, 0, 64, 0
1, 128336, Note_on_c, 0, 55, 43
1, 128520, Note_off_c, 0, 55, 64
1, 128528, Note_on_c, 0, 50, 53
1, 128698, Control_c, 0, 64, 127
1, 128717, Note_on_c, 0, 55, 58
1, 128723, Note_off_c, 0, 50, 64
1, 128894, Note_off_c, 0, 55, 64
1, 128929, Note_on_c, 0, 81, 72
1, 128951, Note_on_c, 0, 48, 44
1, 128957, Note_on_c, 0, 52, 35
1, 128963, Control_c, 0, 64, 0
1, 128993, Note_off_c, 0, 47, 64
1, 129127, Note_on_c, 0, 79, 81
1, 129205, Note_off_c, 0, 81, 64
1, 129274, Control_c, 0, 64, 127
1, 129297, Note_on_c, 0, 78, 79
1, 129333, Note_off_c, 0, 79, 64
1, 129465, Control_c, 0, 64, 0
1, 129469, Note_on_c, 0, 79, 83
1, 129497, Note_off_c, 0, 78, 64
1, 129609, Control_c, 0, 64, 127
1, 129648, Note_on_c, 0, 78, 74
1, 129673, Note_on_c, 0, 55, 36
1, 129699, Note_off_c, 0, 79, 64
1, 129759, Note_off_c, 0, 52, 64
1, 129788, Control_c, 0, 64, 0
1, 129832, Note_on_c, 0, 76, 68
1, 129885, Note_off_c, 0, 78, 64
1, 129944, Control_c, 0, 64, 127
1, 130011, Note_on_c, 0, 75, 54
1, 130040, Note_off_c, 0, 76, 64
1, 130052, Control_c, 0, 64, 0
1, 130199, Note_on_c, 0, 76, 45
1, 130215, Note_off_c, 0, 75, 64
1, 130269, Control_c, 0, 64, 127
1, 130391, Note_on_c, 0, 74, 41
1, 130411, Note_off_c, 0, 76, 64
1, 130411, Note_on_c, 0, 52, 32
1, 130472, Control_c, 0, 64, 0
1, 130472, Note_off_c, 0, 55, 64
1, 130573, Note_on_c, 0, 72, 48
1, 130600, Note_off_c, 0, 74, 64
1, 130640, Control_c, 0, 64, 127
1, 130762, Note_on_c, 0, 71, 53
1, 130779, Note_off_c, 0, 72, 64
1, 130832, Control_c, 0, 64, 0
1, 130960, Note_on_c, 0, 72, 46
1, 130968, Note_off_c, 0, 71, 64
1, 131107, Control_c, 0, 64, 127
1, 131216, Control_c, 0, 64, 0
1, 131225, Note_on_c, 0, 71, 46
1, 131230, Note_on_c, 0, 50, 25
1, 131234, Note_off_c, 0, 48, 64
1, 131234, Note_off_c, 0, 52, 64
1, 131253, Note_on_c, 0, 55, 25
1, 131289, Note_off_c, 0, 72, 64
1, 131802, Control_c, 0, 64, 127
1, 131947, Note_off_c, 0, 71, 64
1, 131983, Note_on_c, 0, 72, 20
1, 132078, Note_off_c, 0, 72, 64
1, 132085, Note_on_c, 0, 71, 42
1, 132210, Control_c, 0, 64, 0
1, 132230, Note_off_c, 0, 71, 64
1, 132238, Note_off_c, 0, 55, 64
1, 132238, Note_on_c, 0, 69, 32
1, 132250, Note_on_c, 0, 54, 22
1, 132570, Control_c, 0, 64, 127
1, 132648, Note_on_c, 0, 74, 44
1, 132678, Control_c, 0, 64, 0
1, 132678, Note_off_c, 0, 69, 64
1, 132869, Control_c, 0, 64, 127
1, 133019, Note_on_c, 0, 73, 26
1, 133019, Note_off_c, 0, 74, 64
1, 133097, Control_c, 0, 64, 0
1, 133097, Note_off_c, 0, 50, 64
1, 133136, Note_off_c, 0, 54, 64
1, 133264, Control_c, 0, 64, 127
1, 133429, Note_on_c, 0, 72, 20
1, 133481, Control_c, 0, 64, 0
1, 133495, Note_off_c, 0, 73, 64
1, 133721, Control_c, 0, 64, 127
1, 133929, Note_on_c, 0, 71, 32
1, 133944, Note_on_c, 0, 55, 22
1, 133947, Control_c, 0, 64, 0
1, 134050, Note_off_c, 0, 72, 64
1, 134217, Note_on_c, 0, 62, 23
1, 134295, Control_c, 0, 64, 127
1, 134387, Note_off_c, 0, 62, 64
1, 134406, Note_off_c, 0, 55, 64
1, 134426, Note_on_c, 0, 59, 19
1, 134598, Note_off_c, 0, 59, 64
1, 134632, Note_on_c, 0, 62, 19
1, 134734, Note_off_c, 0, 62, 64
1, 134832, Note_on_c, 0, 55, 21
1, 135005, Note_off_c, 0, 71, 64
1, 135013, Note_off_c, 0, 55, 64
1, 135016, Note_on_c, 0, 67, 34
1, 135028, Note_on_c, 0, 62, 18
1, 135119, Note_off_c, 0, 62, 64
1, 135200, Note_on_c, 0, 71, 66
1, 135203, Note_off_c, 0, 67, 64
1, 135220, Note_on_c, 0, 59, 24
1, 135367, Note_off_c, 0, 59, 64
1, 135379, Note_on_c, 0, 74, 69
1, 135401, Note_off_c, 0, 71, 64
1, 135407, Note_on_c, 0, 62, 16
1, 135493, Note_off_c, 0, 62, 64
1, 135559, Note_on_c, 0, 72, 63
1, 135592, Note_on_c, 0, 57, 12
1, 135603, Note_off_c, 0, 74, 64
1, 135626, Control_c, 0, 64, 0
1, 135737, Note_on_c, 0, 69, 50
1, 135773, Note_on_c, 0, 62, 22
1, 135773, Note_off_c, 0, 72, 64
1, 135866, Note_off_c, 0, 62, 64
1, 135929, Note_on_c, 0, 72, 54
1, 135949, Note_on_c, 0, 60, 22
1, 135961, Note_off_c, 0, 69, 64
1, 136092, Control_c, 0, 64, 127
1, 136109, Note_on_c, 0, 76, 50
1, 136120, Note_off_c, 0, 72, 64
1, 136136, Note_on_c, 0, 62, 24
1, 136144, Note_off_c, 0, 60, 64
1, 136241, Note_off_c, 0, 62, 64
1, 136253, Note_off_c, 0, 57, 64
1, 136331, Note_on_c, 0, 74, 46
1, 136345, Control_c, 0, 64, 0
1, 136370, Note_on_c, 0, 55, 19
1, 136375, Note_off_c, 0, 76, 64
1, 136556, Note_on_c, 0, 62, 19
1, 136646, Note_off_c, 0, 62, 64
1, 136729, Control_c, 0, 64, 127
1, 136735, Note_on_c, 0, 59, 13
1, 136752, Note_off_c, 0, 55, 64
1, 136907, Note_off_c, 0, 74, 64
1, 136918, Note_on_c, 0, 71, 32
1, 136924, Note_on_c, 0, 62, 21
1, 136988, Note_off_c, 0, 71, 64
1, 136997, Note_off_c, 0, 59, 64
1, 137003, Note_off_c, 0, 62, 64
1, 137028, Control_c, 0, 64, 0
1, 137092, Note_on_c, 0, 67, 34
1, 137122, Note_on_c, 0, 55, 27
1, 137172, Note_off_c, 0, 67, 64
1, 137172, Control_c, 0, 64, 127
1, 137244, Control_c, 0, 64, 0
1, 137261, Note_on_c, 0, 67, 41
1, 137297, Note_on_c, 0, 62, 25
1, 137356, Note_off_c, 0, 67, 64
1, 137370, Note_off_c, 0, 62, 64
1, 137429, Note_on_c, 0, 69, 56
1, 137464, Note_on_c, 0, 59, 24
1, 137509, Note_off_c, 0, 69, 64
1, 137593, Note_on_c, 0, 71, 80
1, 137604, Note_off_c, 0, 55, 64
1, 137624, Note_on_c, 0, 62, 30
1, 137648, Note_off_c, 0, 71, 64
1, 137737, Note_off_c, 0, 62, 64
1, 137752, Note_on_c, 0, 72, 71
1, 137768, Note_on_c, 0, 55, 27
1, 137776, Note_off_c, 0, 59, 64
1, 137836, Note_off_c, 0, 72, 64
1, 137916, Note_on_c, 0, 74, 78
1, 137936, Note_on_c, 0, 62, 34
1, 137991, Note_off_c, 0, 74, 64
1, 138014, Note_off_c, 0, 62, 64
1, 138077, Note_on_c, 0, 76, 73
1, 138102, Note_on_c, 0, 59, 34
1, 138158, Note_off_c, 0, 76, 64
1, 138236, Note_on_c, 0, 78, 80
1, 138261, Note_off_c, 0, 55, 64
1, 138265, Note_on_c, 0, 62, 35
1, 138322, Note_off_c, 0, 78, 64
1, 138396, Note_off_c, 0, 59, 64
1, 138412, Note_on_c, 0, 79, 85
1, 138421, Note_off_c, 0, 62, 64
1, 138435, Note_on_c, 0, 55, 31
1, 138591, Note_on_c, 0, 78, 83
1, 138615, Note_on_c, 0, 64, 32
1, 138621, Note_off_c, 0, 79, 64
1, 138729, Control_c, 0, 64, 127
1, 138752, Note_off_c, 0, 64, 64
1, 138752, Note_on_c, 0, 79, 89
1, 138752, Control_c, 0, 64, 0
1, 138783, Note_on_c, 0, 60, 30
1, 138800, Note_off_c, 0, 78, 64
1, 138897, Control_c, 0, 64, 127
1, 138911, Note_on_c, 0, 78, 81
1, 138925, Note_off_c, 0, 55, 64
1, 138956, Note_off_c, 0, 79, 64
1, 138961, Note_on_c, 0, 64, 32
1, 139045, Note_off_c, 0, 60, 64
1, 139061, Note_off_c, 0, 64, 64
1, 139095, Note_on_c, 0, 81, 70
1, 139102, Control_c, 0, 64, 0
1, 139139, Note_off_c, 0, 78, 64
1, 139139, Note_on_c, 0, 55, 28
1, 139289, Note_on_c, 0, 79, 80
1, 139318, Note_on_c, 0, 64, 24
1, 139331, Note_off_c, 0, 81, 64
1, 139365, Control_c, 0, 64, 127
1, 139401, Note_off_c, 0, 64, 64
1, 139462, Note_on_c, 0, 78, 70
1, 139492, Note_off_c, 0, 79, 64
1, 139498, Note_on_c, 0, 60, 27
1, 139585, Note_off_c, 0, 60, 64
1, 139605, Note_off_c, 0, 55, 64
1, 139638, Note_on_c, 0, 79, 83
1, 139658, Note_off_c, 0, 78, 64
1, 139674, Note_on_c, 0, 64, 29
1, 139832, Note_off_c, 0, 64, 64
1, 139838, Note_on_c, 0, 78, 71
1, 139877, Note_on_c, 0, 55, 29
1, 139891, Note_off_c, 0, 79, 64
1, 140017, Control_c, 0, 64, 0
1, 140041, Note_on_c, 0, 76, 60
1, 140072, Note_on_c, 0, 61, 29
1, 140097, Note_off_c, 0, 78, 64
1, 140108, Control_c, 0, 64, 127
1, 140144, Control_c, 0, 64, 0
1, 140153, Note_off_c, 0, 61, 64
1, 140214, Note_on_c, 0, 74, 73
1, 140234, Note_off_c, 0, 76, 64
1, 140234, Note_on_c, 0, 58, 20
1, 140287, Control_c, 0, 64, 127
1, 140320, Note_off_c, 0, 55, 64
1, 140387, Note_on_c, 0, 73, 67
1, 140407, Note_on_c, 0, 61, 28
1, 140424, Note_off_c, 0, 74, 64
1, 140540, Control_c, 0, 64, 0
1, 140559, Note_off_c, 0, 61, 64
1, 140563, Note_off_c, 0, 58, 64
1, 140590, Note_on_c, 0, 74, 57
1, 140610, Note_off_c, 0, 73, 64
1, 140610, Note_on_c, 0, 55, 25
1, 140786, Note_on_c, 0, 71, 52
1, 140796, Note_off_c, 0, 74, 64
1, 140802, Note_on_c, 0, 62, 25
1, 140899, Control_c, 0, 64, 127
1, 140930, Note_off_c, 0, 62, 64
1, 140980, Note_off_c, 0, 71, 64
1, 140980, Control_c, 0, 64, 0
1, 140985, Note_on_c, 0, 74, 51
1, 141006, Note_on_c, 0, 59, 19
1, 141136, Note_off_c, 0, 55, 64
1, 141136, Control_c, 0, 64, 127
1, 141190, Note_off_c, 0, 74, 64
1, 141190, Note_off_c, 0, 59, 64
1, 141197, Note_on_c, 0, 71, 38
1, 141211, Note_on_c, 0, 62, 14
1, 141312, Note_off_c, 0, 62, 64
1, 141409, Note_on_c, 0, 67, 34
1, 141412, Note_off_c, 0, 71, 64
1, 141442, Note_on_c, 0, 55, 25
1, 141462, Control_c, 0, 64, 0
1, 141616, Note_on_c, 0, 62, 22
1, 141702, Control_c, 0, 64, 127
1, 141735, Note_off_c, 0, 62, 64
1, 141749, Note_off_c, 0, 55, 64
1, 141793, Note_on_c, 0, 59, 22
1, 141925, Note_off_c, 0, 59, 64
1, 142002, Note_on_c, 0, 62, 16
1, 142139, Note_off_c, 0, 62, 64
1, 142197, Note_on_c, 0, 55, 17
1, 142276, Control_c, 0, 64, 0
1, 142345, Note_off_c, 0, 67, 64
1, 142376, Note_on_c, 0, 62, 24
1, 142434, Control_c, 0, 64, 127
1, 142507, Note_off_c, 0, 62, 64
1, 142573, Note_on_c, 0, 59, 17
1, 142654, Note_off_c, 0, 55, 64
1, 142700, Note_off_c, 0, 59, 64
1, 142747, Note_on_c, 0, 62, 23
1, 142888, Note_off_c, 0, 62, 64
1, 142951, Note_on_c, 0, 57, 19
1, 142951, Note_on_c, 0, 72, 28
1, 142997, Control_c, 0, 64, 0
1, 143144, Note_off_c, 0, 72, 64
1, 143148, Note_on_c, 0, 69, 22
1, 143161, Note_on_c, 0, 62, 27
1, 143323, Note_off_c, 0, 62, 64
1, 143334, Note_on_c, 0, 72, 49
1, 143340, Note_off_c, 0, 69, 64
1, 143359, Note_on_c, 0, 60, 23
1, 143415, Control_c, 0, 64, 127
1, 143457, Note_off_c, 0, 57, 64
1, 143495, Note_on_c, 0, 69, 53
1, 143509, Note_off_c, 0, 72, 64
1, 143541, Note_on_c, 0, 62, 23
1, 143571, Note_off_c, 0, 60, 64
1, 143615, Note_off_c, 0, 62, 64
1, 143677, Note_on_c, 0, 66, 48
1, 143686, Note_off_c, 0, 69, 64
1, 143691, Control_c, 0, 64, 0
1, 143708, Note_on_c, 0, 57, 20
1, 143811, Note_off_c, 0, 66, 64
1, 143847, Control_c, 0, 64, 127
1, 143863, Note_on_c, 0, 69, 60
1, 143886, Note_on_c, 0, 62, 21
1, 143931, Control_c, 0, 64, 0
1, 144027, Note_off_c, 0, 62, 64
1, 144041, Note_on_c, 0, 68, 60
1, 144067, Note_off_c, 0, 69, 64
1, 144067, Note_on_c, 0, 60, 25
1, 144075, Control_c, 0, 64, 127
1, 144164, Note_off_c, 0, 57, 64
1, 144215, Note_on_c, 0, 69, 65
1, 144246, Note_on_c, 0, 62, 25
1, 144256, Note_off_c, 0, 60, 64
1, 144265, Note_off_c, 0, 68, 64
1, 144321, Note_off_c, 0, 62, 64
1, 144396, Note_on_c, 0, 70, 52
1, 144410, Control_c, 0, 64, 0
1, 144423, Note_on_c, 0, 57, 22
1, 144423, Note_off_c, 0, 69, 64
1, 144593, Note_on_c, 0, 71, 61
1, 144602, Control_c, 0, 64, 127
1, 144605, Note_on_c, 0, 62, 26
1, 144632, Note_off_c, 0, 70, 64
1, 144727, Note_off_c, 0, 62, 64
1, 144763, Note_on_c, 0, 72, 70
1, 144782, Note_on_c, 0, 60, 29
1, 144800, Note_off_c, 0, 71, 64
1, 144830, Control_c, 0, 64, 0
1, 144931, Note_on_c, 0, 73, 72
1, 144950, Control_c, 0, 64, 127
1, 144956, Note_on_c, 0, 62, 28
1, 144977, Note_off_c, 0, 72, 64
1, 145044, Note_off_c, 0, 62, 64
1, 145092, Note_off_c, 0, 60, 64
1, 145128, Note_on_c, 0, 74, 69
1, 145128, Control_c, 0, 64, 0
1, 145142, Note_off_c, 0, 57, 64
1, 145145, Note_on_c, 0, 55, 29
1, 145167, Note_off_c, 0, 73, 64
1, 145318, Note_on_c, 0, 71, 70
1, 145322, Control_c, 0, 64, 127
1, 145335, Note_on_c, 0, 62, 22
1, 145343, Note_off_c, 0, 74, 64
1, 145459, Note_off_c, 0, 62, 64
1, 145513, Note_on_c, 0, 74, 75
1, 145513, Control_c, 0, 64, 0
1, 145524, Note_off_c, 0, 71, 64
1, 145537, Note_on_c, 0, 59, 27
1, 145657, Control_c, 0, 64, 127
1, 145694, Note_on_c, 0, 71, 85
1, 145722, Note_off_c, 0, 74, 64
1, 145728, Note_on_c, 0, 62, 36
1, 145739, Note_off_c, 0, 59, 64
1, 145911, Note_off_c, 0, 62, 64
1, 145925, Note_off_c, 0, 55, 64
1, 145959, Note_on_c, 0, 79, 67
1, 145984, Note_on_c, 0, 52, 52
1, 146028, Control_c, 0, 64, 0
1, 146028, Note_off_c, 0, 71, 64
1, 146170, Note_on_c, 0, 59, 42
1, 146292, Control_c, 0, 64, 127
1, 146345, Note_off_c, 0, 59, 64
1, 146368, Note_on_c, 0, 55, 45
1, 146533, Note_off_c, 0, 52, 64
1, 146565, Note_on_c, 0, 59, 40
1, 146565, Note_off_c, 0, 55, 64
1, 146663, Note_off_c, 0, 79, 64
1, 146750, Note_off_c, 0, 59, 64
1, 146766, Note_on_c, 0, 47, 44
1, 146927, Control_c, 0, 64, 0
1, 146986, Note_on_c, 0, 83, 88
1, 146986, Note_on_c, 0, 55, 44
1, 147192, Note_off_c, 0, 55, 64
1, 147203, Control_c, 0, 64, 127
1, 147206, Note_on_c, 0, 78, 74
1, 147237, Note_off_c, 0, 83, 64
1, 147237, Note_on_c, 0, 50, 36
1, 147385, Note_off_c, 0, 50, 64
1, 147393, Note_off_c, 0, 47, 64
1, 147404, Note_on_c, 0, 79, 83
1, 147420, Note_on_c, 0, 55, 41
1, 147446, Note_off_c, 0, 78, 64
1, 147569, Note_off_c, 0, 55, 64
1, 147614, Note_on_c, 0, 75, 62
1, 147641, Note_on_c, 0, 48, 24
1, 147641, Note_off_c, 0, 79, 64
1, 147658, Control_c, 0, 64, 0
1, 147848, Note_on_c, 0, 76, 42
1, 147866, Note_on_c, 0, 57, 23
1, 147873, Control_c, 0, 64, 127
1, 147891, Note_off_c, 0, 75, 64
1, 148029, Control_c, 0, 64, 0
1, 148054, Note_off_c, 0, 57, 64
1, 148070, Note_on_c, 0, 72, 35
1, 148089, Note_on_c, 0, 52, 27
1, 148122, Note_off_c, 0, 76, 64
1, 148185, Control_c, 0, 64, 127
1, 148271, Note_off_c, 0, 48, 64
1, 148293, Note_on_c, 0, 69, 34
1, 148296, Note_off_c, 0, 72, 64
1, 148301, Note_off_c, 0, 52, 64
1, 148309, Note_on_c, 0, 57, 22
1, 148429, Note_off_c, 0, 57, 64
1, 148561, Note_on_c, 0, 67, 34
1, 148569, Control_c, 0, 64, 0
1, 148575, Note_on_c, 0, 50, 20
1, 148582, Note_off_c, 0, 69, 64
1, 148797, Note_on_c, 0, 59, 23
1, 148881, Control_c, 0, 64, 127
1, 148942, Note_off_c, 0, 59, 64
1, 148986, Note_on_c, 0, 55, 35
1, 149008, Note_off_c, 0, 67, 64
1, 149008, Note_off_c, 0, 50, 64
1, 149092, Note_off_c, 0, 55, 64
1, 149167, Note_on_c, 0, 67, 51
1, 149195, Note_on_c, 0, 59, 29
1, 149293, Note_off_c, 0, 59, 64
1, 149385, Note_on_c, 0, 71, 55
1, 149402, Note_off_c, 0, 67, 64
1, 149405, Note_on_c, 0, 66, 17
1, 149413, Note_on_c, 0, 50, 30
1, 149421, Control_c, 0, 64, 0
1, 149596, Note_on_c, 0, 69, 34
1, 149622, Note_off_c, 0, 71, 64
1, 149625, Note_on_c, 0, 60, 17
1, 149685, Control_c, 0, 64, 127
1, 149780, Note_off_c, 0, 60, 64
1, 149828, Note_on_c, 0, 67, 34
1, 149839, Control_c, 0, 64, 0
1, 149842, Note_off_c, 0, 69, 64
1, 149842, Note_on_c, 0, 57, 19
1, 149995, Control_c, 0, 64, 127
1, 150031, Control_c, 0, 64, 0
1, 150061, Note_off_c, 0, 57, 64
1, 150079, Note_off_c, 0, 67, 64
1, 150087, Note_on_c, 0, 69, 24
1, 150087, Note_on_c, 0, 60, 25
1, 150187, Control_c, 0, 64, 127
1, 150199, Note_off_c, 0, 60, 64
1, 150391, Note_off_c, 0, 66, 64
1, 150402, Note_off_c, 0, 50, 64
1, 150402, Note_on_c, 0, 67, 21
1, 150407, Note_off_c, 0, 69, 64
1, 150412, Note_on_c, 0, 59, 20
1, 150427, Note_on_c, 0, 55, 19
1, 150438, Control_c, 0, 64, 0
1, 150661, Note_on_c, 0, 66, 29
1, 150680, Note_off_c, 0, 67, 64
1, 150856, Note_on_c, 0, 69, 36
1, 150912, Note_off_c, 0, 66, 64
1, 151040, Note_on_c, 0, 67, 43
1, 151061, Note_off_c, 0, 69, 64
1, 151215, Note_on_c, 0, 71, 52
1, 151238, Note_off_c, 0, 67, 64
1, 151249, Note_off_c, 0, 59, 64
1, 151252, Note_off_c, 0, 55, 64
1, 151383, Note_on_c, 0, 69, 44
1, 151418, Note_off_c, 0, 71, 64
1, 151560, Note_on_c, 0, 72, 54
1, 151578, Note_off_c, 0, 69, 64
1, 151589, Control_c, 0, 64, 127
1, 151638, Control_c, 0, 64, 0
1, 151727, Note_on_c, 0, 71, 53
1, 151755, Note_off_c, 0, 72, 64
1, 151769, Control_c, 0, 64, 127
1, 151792, Control_c, 0, 64, 0
1, 151892, Note_on_c, 0, 74, 55
1, 151914, Note_off_c, 0, 71, 64
1, 152057, Note_on_c, 0, 72, 55
1, 152082, Note_off_c, 0, 74, 64
1, 152224, Control_c, 0, 64, 127
1, 152249, Control_c, 0, 64, 0
1, 152252, Note_on_c, 0, 76, 41
1, 152268, Note_off_c, 0, 72, 64
1, 152393, Control_c, 0, 64, 127
1, 152429, Control_c, 0, 64, 0
1, 152458, Note_on_c, 0, 74, 43
1, 152465, Note_off_c, 0, 76, 64
1, 152572, Control_c, 0, 64, 127
1, 152747, Note_off_c, 0, 74, 64
1, 152752, Control_c, 0, 64, 0
1, 152786, Note_on_c, 0, 77, 41
1, 152816, Note_on_c, 0, 57, 15
1, 153039, Control_c, 0, 64, 127
1, 153076, Note_on_c, 0, 65, 7
1, 153199, Note_off_c, 0, 65, 64
1, 153246, Note_off_c, 0, 57, 64
1, 153282, Note_on_c, 0, 60, 6
1, 153450, Note_off_c, 0, 60, 64
1, 153483, Note_on_c, 0, 65, 20
1, 153624, Note_off_c, 0, 65, 64
1, 153702, Note_on_c, 0, 57, 28
1, 153942, Note_on_c, 0, 65, 17
1, 154062, Note_off_c, 0, 65, 64
1, 154138, Note_on_c, 0, 79, 60
1, 154149, Note_off_c, 0, 57, 64
1, 154173, Note_on_c, 0, 60, 30
1, 154198, Note_off_c, 0, 77, 64
1, 154329, Note_on_c, 0, 81, 74
1, 154352, Note_off_c, 0, 79, 64
1, 154360, Note_on_c, 0, 65, 23
1, 154427, Note_off_c, 0, 60, 64
1, 154485, Note_off_c, 0, 65, 64
1, 154527, Note_on_c, 0, 79, 83
1, 154557, Note_on_c, 0, 59, 23
1, 154597, Control_c, 0, 64, 0
1, 154642, Note_off_c, 0, 81, 64
1, 154714, Note_on_c, 0, 77, 75
1, 154725, Note_on_c, 0, 67, 28
1, 154773, Note_off_c, 0, 79, 64
1, 154789, Control_c, 0, 64, 127
1, 154856, Note_off_c, 0, 67, 64
1, 154898, Note_on_c, 0, 76, 67
1, 154909, Control_c, 0, 64, 0
1, 154926, Note_on_c, 0, 62, 24
1, 154945, Note_off_c, 0, 77, 64
1, 155065, Control_c, 0, 64, 127
1, 155076, Note_on_c, 0, 74, 73
1, 155093, Note_off_c, 0, 62, 64
1, 155104, Note_off_c, 0, 76, 64
1, 155120, Note_on_c, 0, 67, 17
1, 155215, Note_off_c, 0, 67, 64
1, 155297, Note_on_c, 0, 75, 61
1, 155336, Note_off_c, 0, 59, 64
1, 155336, Note_on_c, 0, 60, 23
1, 155339, Control_c, 0, 64, 0
1, 155360, Note_off_c, 0, 74, 64
1, 155524, Note_on_c, 0, 67, 26
1, 155639, Control_c, 0, 64, 127
1, 155683, Note_off_c, 0, 67, 64
1, 155727, Note_on_c, 0, 64, 33
1, 155875, Note_off_c, 0, 60, 64
1, 155932, Note_off_c, 0, 64, 64
1, 155942, Note_on_c, 0, 67, 25
1, 156095, Note_off_c, 0, 67, 64
1, 156131, Note_on_c, 0, 76, 41
1, 156140, Note_on_c, 0, 60, 21
1, 156168, Control_c, 0, 64, 0
1, 156207, Note_off_c, 0, 75, 64
1, 156340, Note_on_c, 0, 67, 22
1, 156407, Control_c, 0, 64, 127
1, 156491, Note_off_c, 0, 67, 64
1, 156544, Note_on_c, 0, 64, 23
1, 156555, Note_off_c, 0, 60, 64
1, 156652, Note_off_c, 0, 76, 64
1, 156680, Note_off_c, 0, 64, 64
1, 156736, Note_on_c, 0, 67, 22
1, 156898, Note_off_c, 0, 67, 64
1, 156944, Note_on_c, 0, 60, 24
1, 157148, Note_on_c, 0, 79, 47
1, 157185, Note_on_c, 0, 67, 19
1, 157319, Note_off_c, 0, 67, 64
1, 157352, Note_on_c, 0, 78, 52
1, 157394, Note_on_c, 0, 64, 26
1, 157407, Note_off_c, 0, 79, 64
1, 157463, Note_off_c, 0, 64, 64
1, 157538, Note_on_c, 0, 76, 50
1, 157574, Note_off_c, 0, 78, 64
1, 157574, Note_on_c, 0, 67, 34
1, 157658, Note_off_c, 0, 60, 64
1, 157697, Note_off_c, 0, 67, 64
1, 157728, Note_on_c, 0, 74, 53
1, 157756, Note_off_c, 0, 76, 64
1, 157761, Control_c, 0, 64, 0
1, 157767, Note_on_c, 0, 59, 25
1, 157910, Note_off_c, 0, 74, 64
1, 157918, Note_on_c, 0, 71, 60
1, 157934, Note_on_c, 0, 62, 29
1, 157954, Control_c, 0, 64, 127
1, 158095, Note_off_c, 0, 62, 64
1, 158099, Note_off_c, 0, 59, 64
1, 158105, Note_on_c, 0, 69, 46
1, 158120, Note_off_c, 0, 71, 64
1, 158120, Note_on_c, 0, 60, 28
1, 158144, Control_c, 0, 64, 0
1, 158290, Control_c, 0, 64, 127
1, 158302, Note_off_c, 0, 60, 64
1, 158318, Note_on_c, 0, 76, 33
1, 158321, Note_on_c, 0, 64, 32
1, 158336, Note_off_c, 0, 69, 64
1, 158371, Note_off_c, 0, 64, 64
1, 158577, Note_on_c, 0, 67, 43
1, 158583, Note_on_c, 0, 50, 29
1, 158612, Control_c, 0, 64, 0
1, 158667, Note_off_c, 0, 76, 64
1, 158793, Note_on_c, 0, 59, 25
1, 158889, Control_c, 0, 64, 127
1, 158943, Note_off_c, 0, 59, 64
1, 158993, Note_on_c, 0, 55, 31
1, 159018, Note_off_c, 0, 67, 64
1, 159026, Note_off_c, 0, 50, 64
1, 159174, Note_on_c, 0, 67, 56
1, 159182, Note_off_c, 0, 55, 64
1, 159197, Note_on_c, 0, 59, 27
1, 159299, Note_off_c, 0, 59, 64
1, 159368, Note_on_c, 0, 71, 55
1, 159378, Note_on_c, 0, 66, 24
1, 159381, Note_off_c, 0, 67, 64
1, 159386, Note_on_c, 0, 50, 33
1, 159391, Control_c, 0, 64, 0
1, 159572, Note_on_c, 0, 69, 41
1, 159580, Note_on_c, 0, 60, 23
1, 159608, Note_off_c, 0, 71, 64
1, 159655, Control_c, 0, 64, 127
1, 159747, Note_off_c, 0, 60, 64
1, 159767, Note_on_c, 0, 67, 45
1, 159772, Note_off_c, 0, 69, 64
1, 159784, Note_on_c, 0, 57, 27
1, 159846, Control_c, 0, 64, 0
1, 159949, Note_off_c, 0, 67, 64
1, 159949, Note_off_c, 0, 57, 64
1, 159959, Note_on_c, 0, 69, 37
1, 159985, Note_on_c, 0, 60, 25
1, 160015, Control_c, 0, 64, 127
1, 160024, Note_off_c, 0, 66, 64
1, 160043, Note_off_c, 0, 60, 64
1, 160191, Note_on_c, 0, 67, 23
1, 160194, Note_on_c, 0, 59, 21
1, 160207, Note_off_c, 0, 50, 64
1, 160216, Note_off_c, 0, 69, 64
1, 160226, Note_on_c, 0, 55, 10
1, 160255, Control_c, 0, 64, 0
1, 160383, Note_on_c, 0, 66, 33
1, 160403, Note_off_c, 0, 67, 64
1, 160566, Note_on_c, 0, 69, 32
1, 160623, Note_off_c, 0, 66, 64
1, 160709, Control_c, 0, 64, 127
1, 160726, Note_on_c, 0, 67, 50
1, 160734, Control_c, 0, 64, 0
1, 160758, Note_off_c, 0, 69, 64
1, 160865, Control_c, 0, 64, 127
1, 160917, Note_on_c, 0, 71, 58
1, 160926, Control_c, 0, 64, 0
1, 160974, Note_off_c, 0, 67, 64
1, 161057, Control_c, 0, 64, 127
1, 161085, Note_on_c, 0, 69, 55
1, 161104, Note_off_c, 0, 59, 64
1, 161104, Control_c, 0, 64, 0
1, 161109, Note_off_c, 0, 55, 64
1, 161135, Note_off_c, 0, 71, 64
1, 161236, Control_c, 0, 64, 127
1, 161263, Note_on_c, 0, 72, 62
1, 161285, Control_c, 0, 64, 0
1, 161296, Note_off_c, 0, 69, 64
1, 161430, Note_on_c, 0, 71, 79
1, 161441, Control_c, 0, 64, 127
1, 161472, Note_off_c, 0, 72, 64
1, 161612, Note_on_c, 0, 74, 83
1, 161656, Note_off_c, 0, 71, 64
1, 161740, Control_c, 0, 64, 0
1, 161776, Note_on_c, 0, 72, 84
1, 161829, Note_off_c, 0, 74, 64
1, 161884, Control_c, 0, 64, 127
1, 161952, Note_on_c, 0, 76, 76
1, 161987, Note_off_c, 0, 72, 64
1, 162140, Note_on_c, 0, 74, 84
1, 162147, Note_off_c, 0, 76, 64
1, 162400, Note_on_c, 0, 77, 80
1, 162411, Note_on_c, 0, 45, 57
1, 162461, Note_off_c, 0, 74, 64
1, 162483, Control_c, 0, 64, 0
1, 162654, Note_on_c, 0, 53, 72
1, 162784, Control_c, 0, 64, 127
1, 162837, Note_off_c, 0, 53, 64
1, 162859, Note_on_c, 0, 48, 50
1, 163027, Note_off_c, 0, 48, 64
1, 163055, Note_on_c, 0, 53, 71
1, 163124, Note_off_c, 0, 53, 64
1, 163219, Note_on_c, 0, 47, 66
1, 163286, Control_c, 0, 64, 0
1, 163308, Note_off_c, 0, 45, 64
1, 163416, Note_on_c, 0, 55, 58
1, 163514, Control_c, 0, 64, 127
1, 163551, Note_off_c, 0, 55, 64
1, 163598, Note_on_c, 0, 79, 90
1, 163629, Note_on_c, 0, 50, 42
1, 163662, Note_off_c, 0, 77, 64
1, 163804, Note_on_c, 0, 81, 88
1, 163810, Note_off_c, 0, 50, 64
1, 163817, Note_on_c, 0, 55, 54
1, 163843, Note_off_c, 0, 79, 64
1, 163920, Note_off_c, 0, 55, 64
1, 164002, Note_on_c, 0, 79, 95
1, 164005, Note_on_c, 0, 43, 57
1, 164016, Note_off_c, 0, 47, 64
1, 164083, Note_off_c, 0, 81, 64
1, 164180, Note_on_c, 0, 77, 83
1, 164194, Note_on_c, 0, 55, 44
1, 164210, Control_c, 0, 64, 0
1, 164241, Note_off_c, 0, 79, 64
1, 164274, Note_off_c, 0, 55, 64
1, 164330, Control_c, 0, 64, 127
1, 164355, Note_on_c, 0, 76, 70
1, 164367, Note_off_c, 0, 77, 64
1, 164377, Note_on_c, 0, 47, 46
1, 164526, Note_on_c, 0, 74, 84
1, 164537, Note_on_c, 0, 55, 47
1, 164559, Note_off_c, 0, 76, 64
1, 164590, Note_off_c, 0, 55, 64
1, 164614, Note_off_c, 0, 47, 64
1, 164748, Note_on_c, 0, 76, 80
1, 164748, Note_on_c, 0, 48, 53
1, 164793, Note_off_c, 0, 43, 64
1, 164818, Note_off_c, 0, 74, 64
1, 164832, Control_c, 0, 64, 0
1, 164963, Note_on_c, 0, 55, 42
1, 165060, Control_c, 0, 64, 127
1, 165122, Note_off_c, 0, 55, 64
1, 165172, Note_on_c, 0, 52, 49
1, 165244, Note_off_c, 0, 52, 64
1, 165336, Note_off_c, 0, 48, 64
1, 165358, Note_on_c, 0, 55, 49
1, 165476, Note_off_c, 0, 55, 64
1, 165547, Note_on_c, 0, 78, 82
1, 165559, Note_on_c, 0, 48, 64
1, 165659, Note_off_c, 0, 76, 64
1, 165739, Note_on_c, 0, 57, 42
1, 165743, Control_c, 0, 64, 0
1, 165899, Control_c, 0, 64, 127
1, 165923, Note_off_c, 0, 57, 64
1, 165935, Note_on_c, 0, 51, 52
1, 166094, Note_off_c, 0, 51, 64
1, 166124, Note_on_c, 0, 57, 48
1, 166225, Note_off_c, 0, 48, 64
1, 166263, Note_off_c, 0, 57, 64
1, 166364, Note_on_c, 0, 79, 92
1, 166372, Note_on_c, 0, 49, 58
1, 166476, Note_off_c, 0, 78, 64
1, 166486, Control_c, 0, 64, 0
1, 166581, Note_on_c, 0, 58, 38
1, 166749, Control_c, 0, 64, 127
1, 166768, Note_off_c, 0, 58, 64
1, 166801, Note_on_c, 0, 52, 50
1, 166966, Note_off_c, 0, 49, 64
1, 166973, Note_off_c, 0, 79, 64
1, 166983, Note_off_c, 0, 52, 64
1, 167040, Note_on_c, 0, 58, 35
1, 167242, Note_off_c, 0, 58, 64
1, 167359, Note_on_c, 0, 67, 54
1, 167387, Note_on_c, 0, 50, 36
1, 167445, Control_c, 0, 64, 0
1, 167636, Note_on_c, 0, 59, 27
1, 167685, Control_c, 0, 64, 127
1, 167810, Note_off_c, 0, 59, 64
1, 167851, Note_off_c, 0, 50, 64
1, 167857, Note_on_c, 0, 55, 27
1, 168027, Note_off_c, 0, 55, 64
1, 168066, Note_on_c, 0, 59, 23
1, 168166, Note_off_c, 0, 59, 64
1, 168242, Note_on_c, 0, 50, 29
1, 168464, Note_on_c, 0, 59, 21
1, 168609, Note_off_c, 0, 59, 64
1, 168654, Note_off_c, 0, 67, 64
1, 168660, Note_on_c, 0, 69, 21
1, 168689, Note_on_c, 0, 55, 22
1, 168742, Note_off_c, 0, 50, 64
1, 168779, Note_off_c, 0, 69, 64
1, 168790, Note_on_c, 0, 67, 36
1, 168857, Note_off_c, 0, 67, 64
1, 168876, Note_on_c, 0, 66, 38
1, 168879, Note_off_c, 0, 55, 64
1, 168884, Note_on_c, 0, 59, 25
1, 168979, Note_off_c, 0, 66, 64
1, 168988, Note_on_c, 0, 67, 49
1, 169102, Note_off_c, 0, 59, 64
1, 169164, Note_on_c, 0, 71, 56
1, 169171, Control_c, 0, 64, 0
1, 169175, Note_on_c, 0, 50, 28
1, 169175, Note_on_c, 0, 66, 20
1, 169183, Note_off_c, 0, 67, 64
1, 169417, Note_on_c, 0, 60, 20
1, 169495, Control_c, 0, 64, 127
1, 169609, Note_off_c, 0, 60, 64
1, 169640, Note_on_c, 0, 69, 30
1, 169665, Note_on_c, 0, 57, 17
1, 169692, Note_off_c, 0, 71, 64
1, 169699, Control_c, 0, 64, 0
1, 169838, Note_off_c, 0, 57, 64
1, 169876, Note_on_c, 0, 60, 24
1, 169890, Control_c, 0, 64, 127
1, 169979, Note_off_c, 0, 60, 64
1, 170199, Note_on_c, 0, 59, 20
1, 170199, Note_off_c, 0, 50, 64
1, 170208, Note_on_c, 0, 67, 30
1, 170219, Note_off_c, 0, 69, 64
1, 170219, Note_on_c, 0, 55, 21
1, 170225, Control_c, 0, 64, 0
1, 170250, Note_off_c, 0, 66, 64
1, 170444, Note_on_c, 0, 62, 36
1, 170504, Note_off_c, 0, 67, 64
1, 170626, Note_off_c, 0, 62, 64
1, 170649, Note_on_c, 0, 71, 46
1, 170706, Note_off_c, 0, 71, 64
1, 170827, Note_on_c, 0, 71, 58
1, 170888, Note_off_c, 0, 71, 64
1, 171018, Note_on_c, 0, 71, 58
1, 171197, Note_on_c, 0, 67, 52
1, 171208, Note_off_c, 0, 71, 64
1, 171256, Control_c, 0, 64, 127
1, 171294, Note_off_c, 0, 55, 64
1, 171308, Note_off_c, 0, 59, 64
1, 171334, Note_off_c, 0, 67, 64
1, 171353, Control_c, 0, 64, 0
1, 171387, Note_on_c, 0, 74, 62
1, 171429, Note_off_c, 0, 74, 64
1, 171567, Note_on_c, 0, 74, 63
1, 171618, Note_off_c, 0, 74, 64
1, 171770, Note_on_c, 0, 74, 47
1, 171968, Note_on_c, 0, 71, 45
1, 171975, Note_off_c, 0, 74, 64
1, 172163, Note_off_c, 0, 71, 64
1, 172163, Note_on_c, 0, 69, 19
1, 172167, Note_on_c, 0, 60, 33
1, 172183, Note_on_c, 0, 50, 30
1, 172362, Note_off_c, 0, 69, 64
1, 172372, Note_on_c, 0, 71, 36
1, 172395, Note_off_c, 0, 60, 64
1, 172395, Control_c, 0, 64, 127
1, 172570, Note_off_c, 0, 71, 64
1, 172570, Note_on_c, 0, 67, 35
1, 172575, Control_c, 0, 64, 0
1, 172589, Note_on_c, 0, 59, 17
1, 172599, Note_off_c, 0, 50, 64
1, 172599, Note_on_c, 0, 55, 22
1, 172762, Note_on_c, 0, 62, 43
1, 172807, Note_off_c, 0, 67, 64
1, 172922, Note_off_c, 0, 62, 64
1, 172969, Note_on_c, 0, 71, 45
1, 173021, Note_off_c, 0, 71, 64
1, 173153, Note_on_c, 0, 71, 44
1, 173205, Note_off_c, 0, 71, 64
1, 173319, Note_off_c, 0, 59, 64
1, 173323, Note_off_c, 0, 55, 64
1, 173342, Note_on_c, 0, 71, 48
1, 173521, Note_on_c, 0, 67, 38
1, 173534, Note_off_c, 0, 71, 64
1, 173662, Note_off_c, 0, 67, 64
1, 173716, Note_on_c, 0, 74, 35
1, 173762, Note_off_c, 0, 74, 64
1, 173904, Note_on_c, 0, 74, 48
1, 173955, Note_off_c, 0, 74, 64
1, 174145, Note_on_c, 0, 74, 35
1, 174331, Note_off_c, 0, 74, 64
1, 174353, Note_on_c, 0, 71, 33
1, 174568, Note_off_c, 0, 71, 64
1, 174582, Note_on_c, 0, 69, 16
1, 174596, Note_on_c, 0, 60, 25
1, 174596, Note_on_c, 0, 50, 17
1, 174829, Note_on_c, 0, 71, 30
1, 174836, Note_off_c, 0, 69, 64
1, 175008, Control_c, 0, 64, 127
1, 175155, Note_off_c, 0, 60, 64
1, 175192, Note_on_c, 0, 67, 15
1, 175198, Note_on_c, 0, 59, 6
1, 175203, Note_on_c, 0, 55, 21
1, 175223, Control_c, 0, 64, 0
1, 175237, Note_off_c, 0, 71, 64
1, 175276, Note_off_c, 0, 50, 64
1, 175602, Note_off_c, 0, 55, 64
1, 175615, Note_off_c, 0, 59, 64
1, 175654, Note_off_c, 0, 67, 64
1, 176002, Control_c, 0, 64, 127
1, 176682, Note_on_c, 0, 67, 12
1, 176685, Note_on_c, 0, 43, 13
1, 176689, Note_on_c, 0, 59, 15
1, 177749, Note_off_c, 0, 59, 64
1, 177785, Note_off_c, 0, 43, 64
1, 177905, Note_off_c, 0, 67, 64
1, 177905, Control_c, 0, 64, 0
1, 178963, Control_c, 0, 64, 0
1, 180461, End_track
0, 0, End_of_file
