0, 0, Header, 0, 1, 384
1, 0, Start_track
1, 0, Tempo, 512820
1, 0, Title_t, ""
1, 0, Note_on_c, 0, 79, 36
1, 0, Note_on_c, 0, 76, 18
1, 52, Note_off_c, 0, 79, 64
1, 58, Note_off_c, 0, 76, 64
1, 192, Note_on_c, 0, 79, 55
1, 197, Note_on_c, 0, 76, 50
1, 234, Note_off_c, 0, 79, 64
1, 239, Note_off_c, 0, 76, 64
1, 381, Note_on_c, 0, 57, 35
1, 381, Note_on_c, 0, 76, 30
1, 384, Note_on_c, 0, 60, 45
1, 384, Note_on_c, 0, 72, 50
1, 429, Note_off_c, 0, 57, 64
1, 429, Note_off_c, 0, 76, 64
1, 437, Note_off_c, 0, 72, 64
1, 440, Note_off_c, 0, 60, 64
1, 570, Note_on_c, 0, 60, 48
1, 576, Note_on_c, 0, 57, 50
1, 615, Note_off_c, 0, 60, 64
1, 615, Note_off_c, 0, 57, 64
1, 762, Note_on_c, 0, 57, 47
1, 762, Note_on_c, 0, 77, 69
1, 768, Note_on_c, 0, 74, 66
1, 773, Note_on_c, 0, 53, 66
1, 804, Note_off_c, 0, 74, 64
1, 810, Note_off_c, 0, 57, 64
1, 815, Note_off_c, 0, 77, 64
1, 815, Note_off_c, 0, 53, 64
1, 952, Note_on_c, 0, 77, 66
1, 955, Note_on_c, 0, 74, 61
1, 991, Note_off_c, 0, 77, 64
1, 991, Note_off_c, 0, 74, 64
1, 1136, Note_on_c, 0, 71, 73
1, 1139, Note_on_c, 0, 74, 70
1, 1139, Note_on_c, 0, 59, 43
1, 1143, Note_on_c, 0, 55, 51
1, 1181, Note_off_c, 0, 71, 64
1, 1187, Note_off_c, 0, 59, 64
1, 1187, Note_off_c, 0, 74, 64
1, 1191, Note_off_c, 0, 55, 64
1, 1325, Note_on_c, 0, 59, 50
1, 1328, Note_on_c, 0, 55, 59
1, 1367, Note_off_c, 0, 59, 64
1, 1367, Note_off_c, 0, 55, 64
1, 1506, Note_on_c, 0, 52, 46
1, 1506, Note_on_c, 0, 55, 46
1, 1506, Note_on_c, 0, 72, 60
1, 1561, Note_off_c, 0, 52, 64
1, 1561, Note_off_c, 0, 55, 64
1, 1574, Note_off_c, 0, 72, 64
1, 1598, Note_on_c, 0, 74, 66
1, 1682, Note_on_c, 0, 76, 60
1, 1685, Note_off_c, 0, 74, 64
1, 1760, Note_off_c, 0, 76, 64
1, 1765, Note_on_c, 0, 72, 63
1, 1850, Note_off_c, 0, 72, 64
1, 1860, Note_on_c, 0, 69, 56
1, 1860, Note_on_c, 0, 53, 84
1, 1952, Note_off_c, 0, 69, 64
1, 1952, Note_on_c, 0, 71, 70
1, 2041, Note_on_c, 0, 72, 65
1, 2077, Note_off_c, 0, 71, 64
1, 2120, Note_on_c, 0, 73, 62
1, 2136, Note_off_c, 0, 72, 64
1, 2205, Note_on_c, 0, 74, 74
1, 2214, Note_off_c, 0, 73, 64
1, 2287, Note_on_c, 0, 76, 74
1, 2287, Note_off_c, 0, 74, 64
1, 2340, Note_off_c, 0, 53, 64
1, 2359, Note_on_c, 0, 50, 52
1, 2376, Note_off_c, 0, 76, 64
1, 2376, Note_on_c, 0, 77, 79
1, 2457, Note_on_c, 0, 74, 65
1, 2467, Note_off_c, 0, 77, 64
1, 2512, Note_off_c, 0, 50, 64
1, 2552, Note_on_c, 0, 72, 73
1, 2559, Note_off_c, 0, 74, 64
1, 2559, Note_on_c, 0, 55, 49
1, 2640, Note_on_c, 0, 71, 74
1, 2668, Note_off_c, 0, 72, 64
1, 2712, Note_on_c, 0, 69, 57
1, 2716, Note_off_c, 0, 71, 64
1, 2719, Note_off_c, 0, 55, 64
1, 2762, Note_off_c, 0, 69, 64
1, 2788, Note_on_c, 0, 67, 69
1, 2832, Note_off_c, 0, 67, 64
1, 2882, Note_on_c, 0, 79, 88
1, 2882, Note_on_c, 0, 76, 73
1, 2914, Note_off_c, 0, 76, 64
1, 2917, Note_off_c, 0, 79, 64
1, 3072, Note_on_c, 0, 79, 87
1, 3084, Note_on_c, 0, 76, 58
1, 3120, Note_off_c, 0, 76, 64
1, 3128, Note_off_c, 0, 79, 64
1, 3262, Note_on_c, 0, 76, 58
1, 3262, Note_on_c, 0, 72, 59
1, 3262, Note_on_c, 0, 60, 42
1, 3270, Note_on_c, 0, 57, 40
1, 3304, Note_off_c, 0, 72, 64
1, 3312, Note_off_c, 0, 60, 64
1, 3315, Note_off_c, 0, 57, 64
1, 3315, Note_off_c, 0, 76, 64
1, 3445, Note_on_c, 0, 60, 51
1, 3451, Note_on_c, 0, 57, 42
1, 3492, Note_off_c, 0, 60, 64
1, 3492, Note_off_c, 0, 57, 64
1, 3627, Note_on_c, 0, 81, 70
1, 3632, Note_on_c, 0, 77, 65
1, 3643, Note_on_c, 0, 53, 62
1, 3643, Note_on_c, 0, 50, 43
1, 3668, Note_off_c, 0, 77, 64
1, 3683, Note_off_c, 0, 81, 64
1, 3683, Note_off_c, 0, 53, 64
1, 3702, Note_off_c, 0, 50, 64
1, 3815, Note_on_c, 0, 81, 73
1, 3815, Note_on_c, 0, 77, 63
1, 3857, Note_off_c, 0, 77, 64
1, 3872, Note_off_c, 0, 81, 64
1, 3997, Note_on_c, 0, 59, 48
1, 3997, Note_on_c, 0, 74, 69
1, 4002, Note_on_c, 0, 55, 50
1, 4002, Note_on_c, 0, 71, 68
1, 4038, Note_off_c, 0, 59, 64
1, 4042, Note_off_c, 0, 55, 64
1, 4047, Note_off_c, 0, 71, 64
1, 4050, Note_off_c, 0, 74, 64
1, 4186, Note_on_c, 0, 55, 63
1, 4186, Note_on_c, 0, 59, 60
1, 4220, Note_off_c, 0, 59, 64
1, 4223, Note_off_c, 0, 55, 64
1, 4378, Note_on_c, 0, 81, 83
1, 4382, Note_on_c, 0, 48, 44
1, 4387, Note_on_c, 0, 52, 49
1, 4432, Note_off_c, 0, 52, 64
1, 4449, Note_off_c, 0, 48, 64
1, 4465, Note_on_c, 0, 79, 86
1, 4487, Note_off_c, 0, 81, 64
1, 4543, Note_on_c, 0, 77, 67
1, 4552, Note_off_c, 0, 79, 64
1, 4599, Note_off_c, 0, 77, 64
1, 4624, Note_on_c, 0, 76, 57
1, 4718, Note_on_c, 0, 57, 51
1, 4718, Note_on_c, 0, 73, 75
1, 4729, Note_on_c, 0, 53, 63
1, 4743, Note_off_c, 0, 76, 64
1, 4807, Note_on_c, 0, 74, 79
1, 4813, Note_off_c, 0, 73, 64
1, 4892, Note_on_c, 0, 76, 68
1, 4897, Note_off_c, 0, 74, 64
1, 4983, Note_on_c, 0, 77, 73
1, 4988, Note_off_c, 0, 76, 64
1, 5064, Note_on_c, 0, 69, 46
1, 5072, Note_off_c, 0, 77, 64
1, 5123, Note_off_c, 0, 53, 64
1, 5126, Note_off_c, 0, 57, 64
1, 5126, Control_c, 0, 64, 127
1, 5137, Note_off_c, 0, 69, 64
1, 5147, Note_on_c, 0, 72, 66
1, 5200, Note_off_c, 0, 72, 64
1, 5200, Control_c, 0, 64, 0
1, 5236, Note_on_c, 0, 65, 51
1, 5236, Note_on_c, 0, 55, 62
1, 5245, Note_on_c, 0, 71, 66
1, 5278, Note_off_c, 0, 65, 64
1, 5286, Note_off_c, 0, 55, 64
1, 5301, Note_off_c, 0, 71, 64
1, 5323, Note_on_c, 0, 74, 66
1, 5406, Note_off_c, 0, 74, 64
1, 5417, Note_on_c, 0, 64, 63
1, 5423, Note_on_c, 0, 60, 59
1, 5423, Note_on_c, 0, 72, 58
1, 5450, Note_off_c, 0, 64, 64
1, 5462, Note_off_c, 0, 60, 64
1, 5621, Note_off_c, 0, 72, 64
1, 5627, Note_on_c, 0, 48, 60
1, 5719, Note_off_c, 0, 48, 64
1, 5804, Note_on_c, 0, 79, 57
1, 5804, Note_on_c, 0, 76, 49
1, 5842, Note_off_c, 0, 79, 64
1, 5842, Note_off_c, 0, 76, 64
1, 6003, Note_on_c, 0, 76, 36
1, 6008, Note_on_c, 0, 79, 54
1, 6047, Note_off_c, 0, 76, 64
1, 6053, Note_off_c, 0, 79, 64
1, 6198, Note_on_c, 0, 60, 31
1, 6198, Note_on_c, 0, 76, 31
1, 6201, Note_on_c, 0, 57, 30
1, 6208, Note_on_c, 0, 72, 28
1, 6253, Note_off_c, 0, 57, 64
1, 6253, Note_off_c, 0, 60, 64
1, 6259, Note_off_c, 0, 76, 64
1, 6267, Note_off_c, 0, 72, 64
1, 6396, Note_on_c, 0, 57, 38
1, 6396, Note_on_c, 0, 60, 35
1, 6440, Note_off_c, 0, 57, 64
1, 6448, Note_off_c, 0, 60, 64
1, 6577, Note_on_c, 0, 77, 50
1, 6580, Note_on_c, 0, 74, 44
1, 6580, Note_on_c, 0, 57, 33
1, 6583, Note_on_c, 0, 53, 35
1, 6616, Note_off_c, 0, 77, 64
1, 6621, Note_off_c, 0, 74, 64
1, 6629, Note_off_c, 0, 57, 64
1, 6635, Note_off_c, 0, 53, 64
1, 6769, Note_on_c, 0, 74, 46
1, 6780, Note_on_c, 0, 77, 48
1, 6814, Note_off_c, 0, 74, 64
1, 6817, Note_off_c, 0, 77, 64
1, 6941, Note_on_c, 0, 59, 33
1, 6941, Note_on_c, 0, 55, 49
1, 6941, Note_on_c, 0, 71, 46
1, 6947, Note_on_c, 0, 74, 55
1, 6986, Note_off_c, 0, 55, 64
1, 6986, Note_off_c, 0, 59, 64
1, 6995, Note_off_c, 0, 74, 64
1, 6995, Note_off_c, 0, 71, 64
1, 7144, Note_on_c, 0, 55, 40
1, 7144, Note_on_c, 0, 59, 41
1, 7186, Note_off_c, 0, 59, 64
1, 7186, Note_off_c, 0, 55, 64
1, 7326, Note_on_c, 0, 72, 45
1, 7331, Note_on_c, 0, 55, 45
1, 7339, Note_on_c, 0, 52, 39
1, 7379, Note_off_c, 0, 72, 64
1, 7393, Note_off_c, 0, 55, 64
1, 7418, Note_on_c, 0, 74, 57
1, 7446, Note_off_c, 0, 52, 64
1, 7501, Note_off_c, 0, 74, 64
1, 7519, Note_on_c, 0, 76, 45
1, 7576, Note_off_c, 0, 76, 64
1, 7596, Note_on_c, 0, 72, 54
1, 7663, Note_off_c, 0, 72, 64
1, 7693, Note_on_c, 0, 53, 64
1, 7704, Note_on_c, 0, 69, 41
1, 7768, Note_off_c, 0, 69, 64
1, 7797, Note_on_c, 0, 71, 57
1, 7872, Note_off_c, 0, 71, 64
1, 7883, Note_on_c, 0, 72, 53
1, 7948, Note_off_c, 0, 72, 64
1, 7964, Note_on_c, 0, 73, 56
1, 8061, Note_on_c, 0, 74, 64
1, 8064, Note_off_c, 0, 73, 64
1, 8150, Note_on_c, 0, 76, 59
1, 8162, Note_off_c, 0, 74, 64
1, 8181, Note_off_c, 0, 53, 64
1, 8212, Note_off_c, 0, 76, 64
1, 8225, Note_on_c, 0, 50, 48
1, 8234, Note_on_c, 0, 77, 67
1, 8284, Note_off_c, 0, 77, 64
1, 8309, Note_on_c, 0, 74, 56
1, 8332, Note_off_c, 0, 50, 64
1, 8360, Note_off_c, 0, 74, 64
1, 8406, Note_on_c, 0, 72, 62
1, 8421, Note_on_c, 0, 55, 38
1, 8463, Note_off_c, 0, 72, 64
1, 8501, Note_on_c, 0, 71, 54
1, 8546, Note_off_c, 0, 71, 64
1, 8566, Note_on_c, 0, 69, 51
1, 8576, Note_off_c, 0, 55, 64
1, 8613, Note_off_c, 0, 69, 64
1, 8641, Note_on_c, 0, 67, 57
1, 8686, Note_off_c, 0, 67, 64
1, 8730, Note_on_c, 0, 79, 86
1, 8730, Note_on_c, 0, 76, 68
1, 8767, Note_off_c, 0, 76, 64
1, 8783, Note_off_c, 0, 79, 64
1, 8920, Note_on_c, 0, 79, 83
1, 8923, Note_on_c, 0, 76, 61
1, 8959, Note_off_c, 0, 76, 64
1, 8962, Note_off_c, 0, 79, 64
1, 9108, Note_on_c, 0, 60, 54
1, 9108, Note_on_c, 0, 57, 34
1, 9108, Note_on_c, 0, 72, 55
1, 9112, Note_on_c, 0, 76, 64
1, 9153, Note_off_c, 0, 60, 64
1, 9153, Note_off_c, 0, 57, 64
1, 9162, Note_off_c, 0, 72, 64
1, 9176, Note_off_c, 0, 76, 64
1, 9299, Note_on_c, 0, 60, 46
1, 9299, Note_on_c, 0, 57, 39
1, 9342, Note_off_c, 0, 60, 64
1, 9346, Note_off_c, 0, 57, 64
1, 9484, Note_on_c, 0, 81, 70
1, 9491, Note_on_c, 0, 77, 61
1, 9491, Note_on_c, 0, 50, 51
1, 9502, Note_on_c, 0, 53, 68
1, 9529, Note_off_c, 0, 77, 64
1, 9552, Note_off_c, 0, 53, 64
1, 9574, Note_off_c, 0, 81, 64
1, 9663, Note_off_c, 0, 50, 64
1, 9675, Note_on_c, 0, 77, 55
1, 9678, Note_on_c, 0, 81, 57
1, 9714, Note_off_c, 0, 77, 64
1, 9717, Note_off_c, 0, 81, 64
1, 9852, Note_on_c, 0, 59, 65
1, 9852, Note_on_c, 0, 55, 67
1, 9858, Note_on_c, 0, 74, 72
1, 9858, Note_on_c, 0, 71, 71
1, 9889, Note_off_c, 0, 59, 64
1, 9894, Note_off_c, 0, 55, 64
1, 9945, Note_off_c, 0, 71, 64
1, 9959, Note_off_c, 0, 74, 64
1, 10044, Note_on_c, 0, 55, 65
1, 10047, Note_on_c, 0, 59, 61
1, 10081, Note_off_c, 0, 55, 64
1, 10081, Note_off_c, 0, 59, 64
1, 10242, Note_on_c, 0, 48, 58
1, 10242, Note_on_c, 0, 81, 88
1, 10250, Note_on_c, 0, 52, 74
1, 10303, Note_off_c, 0, 52, 64
1, 10335, Note_off_c, 0, 81, 64
1, 10338, Note_on_c, 0, 79, 78
1, 10367, Note_off_c, 0, 48, 64
1, 10420, Note_on_c, 0, 77, 72
1, 10434, Note_off_c, 0, 79, 64
1, 10479, Note_off_c, 0, 77, 64
1, 10499, Note_on_c, 0, 76, 51
1, 10599, Note_on_c, 0, 73, 69
1, 10604, Note_on_c, 0, 57, 49
1, 10610, Note_off_c, 0, 76, 64
1, 10616, Note_on_c, 0, 53, 63
1, 10688, Note_on_c, 0, 74, 71
1, 10707, Note_off_c, 0, 73, 64
1, 10778, Note_on_c, 0, 76, 63
1, 10789, Note_off_c, 0, 74, 64
1, 10872, Note_on_c, 0, 77, 61
1, 10872, Note_off_c, 0, 76, 64
1, 10962, Note_on_c, 0, 69, 47
1, 10969, Note_off_c, 0, 77, 64
1, 11019, Note_off_c, 0, 57, 64
1, 11019, Note_off_c, 0, 53, 64
1, 11023, Control_c, 0, 64, 127
1, 11029, Note_off_c, 0, 69, 64
1, 11050, Note_on_c, 0, 72, 50
1, 11103, Note_off_c, 0, 72, 64
1, 11120, Control_c, 0, 64, 0
1, 11137, Note_on_c, 0, 55, 54
1, 11146, Note_on_c, 0, 65, 32
1, 11151, Note_on_c, 0, 71, 57
1, 11187, Note_off_c, 0, 55, 64
1, 11195, Note_off_c, 0, 65, 64
1, 11198, Note_off_c, 0, 71, 64
1, 11226, Note_on_c, 0, 74, 58
1, 11279, Note_off_c, 0, 74, 64
1, 11337, Note_on_c, 0, 60, 50
1, 11340, Note_on_c, 0, 64, 50
1, 11348, Note_on_c, 0, 72, 52
1, 11376, Note_off_c, 0, 64, 64
1, 11380, Note_off_c, 0, 60, 64
1, 11430, Control_c, 0, 64, 127
1, 11510, Note_off_c, 0, 72, 64
1, 11535, Note_on_c, 0, 48, 67
1, 11566, Note_off_c, 0, 48, 64
1, 11611, Control_c, 0, 64, 0
1, 11749, Note_on_c, 0, 60, 47
1, 11749, Note_on_c, 0, 76, 66
1, 11844, Note_on_c, 0, 67, 39
1, 11844, Note_on_c, 0, 78, 65
1, 11861, Note_off_c, 0, 76, 64
1, 11895, Note_off_c, 0, 67, 64
1, 11941, Note_on_c, 0, 64, 42
1, 11945, Note_on_c, 0, 79, 81
1, 11973, Note_off_c, 0, 78, 64
1, 11981, Note_off_c, 0, 79, 64
1, 11981, Note_off_c, 0, 64, 64
1, 12028, Note_on_c, 0, 67, 38
1, 12039, Note_on_c, 0, 79, 75
1, 12072, Note_off_c, 0, 60, 64
1, 12090, Note_off_c, 0, 79, 64
1, 12090, Note_off_c, 0, 67, 64
1, 12150, Note_on_c, 0, 81, 67
1, 12150, Note_on_c, 0, 59, 34
1, 12237, Note_on_c, 0, 79, 67
1, 12254, Note_on_c, 0, 67, 21
1, 12254, Note_off_c, 0, 81, 64
1, 12287, Note_off_c, 0, 79, 64
1, 12318, Note_on_c, 0, 78, 61
1, 12318, Note_off_c, 0, 67, 64
1, 12335, Note_on_c, 0, 62, 32
1, 12370, Note_off_c, 0, 59, 64
1, 12384, Note_off_c, 0, 62, 64
1, 12409, Note_off_c, 0, 78, 64
1, 12409, Note_on_c, 0, 67, 29
1, 12424, Note_on_c, 0, 76, 50
1, 12468, Note_off_c, 0, 67, 64
1, 12499, Note_off_c, 0, 76, 64
1, 12522, Note_on_c, 0, 74, 63
1, 12535, Note_on_c, 0, 54, 43
1, 12563, Note_off_c, 0, 74, 64
1, 12614, Note_on_c, 0, 74, 83
1, 12628, Note_on_c, 0, 62, 44
1, 12641, Note_off_c, 0, 74, 64
1, 12675, Note_off_c, 0, 62, 64
1, 12705, Note_on_c, 0, 74, 50
1, 12710, Note_on_c, 0, 57, 38
1, 12744, Note_off_c, 0, 74, 64
1, 12755, Note_off_c, 0, 57, 64
1, 12799, Note_on_c, 0, 74, 69
1, 12809, Note_on_c, 0, 62, 45
1, 12820, Note_off_c, 0, 54, 64
1, 12841, Note_off_c, 0, 74, 64
1, 12853, Note_off_c, 0, 62, 64
1, 12900, Note_on_c, 0, 76, 62
1, 12900, Note_on_c, 0, 55, 60
1, 12958, Note_off_c, 0, 76, 64
1, 12995, Note_on_c, 0, 74, 73
1, 13003, Note_on_c, 0, 62, 34
1, 13039, Note_off_c, 0, 74, 64
1, 13051, Note_off_c, 0, 62, 64
1, 13054, Note_off_c, 0, 55, 64
1, 13073, Note_on_c, 0, 59, 43
1, 13084, Note_on_c, 0, 72, 64
1, 13114, Note_off_c, 0, 59, 64
1, 13143, Note_off_c, 0, 72, 64
1, 13165, Note_on_c, 0, 71, 72
1, 13175, Note_on_c, 0, 62, 39
1, 13198, Note_off_c, 0, 71, 64
1, 13221, Note_off_c, 0, 62, 64
1, 13309, Note_on_c, 0, 88, 87
1, 13309, Note_on_c, 0, 47, 63
1, 13396, Note_on_c, 0, 86, 68
1, 13410, Note_on_c, 0, 55, 44
1, 13437, Note_off_c, 0, 88, 64
1, 13462, Note_off_c, 0, 55, 64
1, 13485, Note_on_c, 0, 84, 81
1, 13501, Note_off_c, 0, 86, 64
1, 13501, Note_on_c, 0, 50, 46
1, 13549, Note_off_c, 0, 50, 64
1, 13569, Note_on_c, 0, 83, 98
1, 13575, Note_off_c, 0, 84, 64
1, 13594, Note_off_c, 0, 47, 64
1, 13594, Note_on_c, 0, 55, 55
1, 13641, Note_off_c, 0, 55, 64
1, 13655, Note_off_c, 0, 83, 64
1, 13666, Note_on_c, 0, 80, 83
1, 13675, Note_on_c, 0, 48, 53
1, 13761, Note_on_c, 0, 57, 47
1, 13761, Note_on_c, 0, 81, 83
1, 13766, Note_off_c, 0, 80, 64
1, 13819, Note_off_c, 0, 57, 64
1, 13858, Note_on_c, 0, 83, 100
1, 13858, Note_on_c, 0, 52, 52
1, 13878, Note_off_c, 0, 81, 64
1, 13905, Note_off_c, 0, 52, 64
1, 13947, Note_on_c, 0, 57, 46
1, 13950, Note_on_c, 0, 84, 88
1, 13967, Note_off_c, 0, 83, 64
1, 13972, Note_off_c, 0, 48, 64
1, 14003, Note_off_c, 0, 57, 64
1, 14036, Note_off_c, 0, 84, 64
1, 14042, Note_on_c, 0, 76, 60
1, 14048, Note_on_c, 0, 49, 48
1, 14125, Note_on_c, 0, 78, 70
1, 14129, Note_off_c, 0, 76, 64
1, 14134, Note_on_c, 0, 57, 36
1, 14170, Note_off_c, 0, 49, 64
1, 14184, Note_off_c, 0, 57, 64
1, 14212, Note_on_c, 0, 52, 45
1, 14224, Note_on_c, 0, 79, 75
1, 14242, Note_off_c, 0, 78, 64
1, 14257, Note_off_c, 0, 52, 64
1, 14307, Note_on_c, 0, 81, 69
1, 14307, Note_on_c, 0, 57, 32
1, 14323, Note_off_c, 0, 79, 64
1, 14359, Note_off_c, 0, 81, 64
1, 14362, Note_off_c, 0, 57, 64
1, 14419, Note_on_c, 0, 79, 51
1, 14422, Note_on_c, 0, 50, 40
1, 14491, Note_off_c, 0, 79, 64
1, 14516, Note_on_c, 0, 78, 40
1, 14593, Note_off_c, 0, 78, 64
1, 14614, Note_on_c, 0, 76, 35
1, 14661, Note_off_c, 0, 76, 64
1, 14680, Note_off_c, 0, 50, 64
1, 14691, Note_on_c, 0, 74, 50
1, 14728, Note_off_c, 0, 74, 64
1, 14780, Note_on_c, 0, 86, 65
1, 14783, Note_on_c, 0, 83, 78
1, 14814, Note_off_c, 0, 83, 64
1, 14819, Note_off_c, 0, 86, 64
1, 14975, Note_on_c, 0, 86, 76
1, 14990, Note_on_c, 0, 83, 87
1, 15020, Note_off_c, 0, 83, 64
1, 15032, Note_off_c, 0, 86, 64
1, 15167, Note_on_c, 0, 83, 91
1, 15167, Note_on_c, 0, 79, 71
1, 15170, Note_on_c, 0, 67, 51
1, 15184, Note_on_c, 0, 64, 42
1, 15213, Note_off_c, 0, 79, 64
1, 15213, Note_off_c, 0, 67, 64
1, 15223, Note_off_c, 0, 64, 64
1, 15279, Note_off_c, 0, 83, 64
1, 15355, Note_on_c, 0, 67, 56
1, 15371, Note_on_c, 0, 64, 46
1, 15402, Note_off_c, 0, 67, 64
1, 15410, Note_off_c, 0, 64, 64
1, 15550, Note_on_c, 0, 84, 73
1, 15555, Note_on_c, 0, 81, 60
1, 15560, Note_on_c, 0, 64, 47
1, 15566, Note_on_c, 0, 60, 43
1, 15591, Note_off_c, 0, 81, 64
1, 15625, Note_off_c, 0, 84, 64
1, 15633, Note_off_c, 0, 64, 64
1, 15656, Note_off_c, 0, 60, 64
1, 15747, Note_on_c, 0, 84, 74
1, 15752, Note_on_c, 0, 81, 57
1, 15784, Note_off_c, 0, 84, 64
1, 15787, Note_off_c, 0, 81, 64
1, 15934, Note_on_c, 0, 66, 35
1, 15934, Note_on_c, 0, 81, 44
1, 15939, Note_on_c, 0, 78, 50
1, 15942, Note_on_c, 0, 62, 27
1, 15993, Note_off_c, 0, 62, 64
1, 15993, Note_off_c, 0, 66, 64
1, 15996, Note_off_c, 0, 81, 64
1, 15996, Note_off_c, 0, 78, 64
1, 16138, Note_on_c, 0, 66, 39
1, 16146, Note_on_c, 0, 62, 41
1, 16188, Note_off_c, 0, 62, 64
1, 16193, Note_off_c, 0, 66, 64
1, 16323, Note_on_c, 0, 79, 74
1, 16338, Note_on_c, 0, 62, 34
1, 16338, Note_on_c, 0, 59, 35
1, 16415, Note_off_c, 0, 79, 64
1, 16415, Note_off_c, 0, 62, 64
1, 16422, Note_on_c, 0, 81, 55
1, 16443, Note_off_c, 0, 59, 64
1, 16510, Note_on_c, 0, 83, 88
1, 16518, Note_off_c, 0, 81, 64
1, 16597, Note_off_c, 0, 83, 64
1, 16605, Note_on_c, 0, 79, 65
1, 16660, Note_off_c, 0, 79, 64
1, 16699, Note_on_c, 0, 55, 47
1, 16699, Note_on_c, 0, 75, 57
1, 16703, Note_on_c, 0, 48, 29
1, 16797, Note_on_c, 0, 76, 58
1, 16802, Note_off_c, 0, 75, 64
1, 16861, Note_off_c, 0, 76, 64
1, 16879, Note_on_c, 0, 79, 65
1, 16936, Note_off_c, 0, 79, 64
1, 16981, Note_on_c, 0, 76, 50
1, 17029, Note_off_c, 0, 76, 64
1, 17059, Note_on_c, 0, 50, 38
1, 17070, Note_on_c, 0, 74, 58
1, 17070, Note_off_c, 0, 48, 64
1, 17145, Note_off_c, 0, 74, 64
1, 17149, Note_on_c, 0, 71, 61
1, 17226, Note_off_c, 0, 71, 64
1, 17246, Note_off_c, 0, 55, 64
1, 17270, Note_on_c, 0, 72, 61
1, 17270, Note_on_c, 0, 54, 47
1, 17346, Note_off_c, 0, 72, 64
1, 17363, Note_on_c, 0, 69, 61
1, 17414, Note_off_c, 0, 50, 64
1, 17436, Note_off_c, 0, 54, 64
1, 17440, Note_off_c, 0, 69, 64
1, 17455, Note_on_c, 0, 67, 46
1, 17469, Note_on_c, 0, 55, 52
1, 17525, Note_off_c, 0, 55, 64
1, 17574, Note_off_c, 0, 67, 64
1, 17658, Note_on_c, 0, 43, 56
1, 17769, Note_off_c, 0, 43, 64
1, 17851, Note_on_c, 0, 67, 47
1, 17943, Note_on_c, 0, 69, 33
1, 17943, Note_off_c, 0, 67, 64
1, 18009, Note_off_c, 0, 69, 64
1, 18018, Note_on_c, 0, 71, 57
1, 18110, Note_on_c, 0, 72, 54
1, 18124, Note_off_c, 0, 71, 64
1, 18206, Note_off_c, 0, 72, 64
1, 18216, Note_on_c, 0, 74, 55
1, 18229, Note_on_c, 0, 59, 36
1, 18229, Note_on_c, 0, 55, 33
1, 18277, Note_off_c, 0, 55, 64
1, 18287, Note_off_c, 0, 59, 64
1, 18361, Note_off_c, 0, 74, 64
1, 18435, Note_on_c, 0, 43, 38
1, 18536, Note_off_c, 0, 43, 64
1, 18633, Note_on_c, 0, 71, 62
1, 18728, Note_off_c, 0, 71, 64
1, 18734, Note_on_c, 0, 72, 49
1, 18798, Note_on_c, 0, 74, 72
1, 18803, Note_off_c, 0, 72, 64
1, 18887, Note_on_c, 0, 76, 65
1, 18890, Note_off_c, 0, 74, 64
1, 18981, Note_on_c, 0, 77, 71
1, 18981, Note_on_c, 0, 59, 45
1, 18981, Note_on_c, 0, 55, 49
1, 18987, Note_off_c, 0, 76, 64
1, 19037, Note_off_c, 0, 55, 64
1, 19053, Note_off_c, 0, 59, 64
1, 19129, Note_off_c, 0, 77, 64
1, 19202, Note_on_c, 0, 43, 64
1, 19307, Note_off_c, 0, 43, 64
1, 19394, Note_on_c, 0, 74, 82
1, 19489, Note_on_c, 0, 76, 71
1, 19508, Note_off_c, 0, 74, 64
1, 19569, Note_on_c, 0, 77, 82
1, 19589, Note_off_c, 0, 76, 64
1, 19645, Note_on_c, 0, 79, 87
1, 19658, Note_off_c, 0, 77, 64
1, 19737, Note_off_c, 0, 79, 64
1, 19744, Note_on_c, 0, 81, 77
1, 19819, Note_off_c, 0, 81, 64
1, 19965, Note_on_c, 0, 80, 58
1, 20060, Note_off_c, 0, 80, 64
1, 20209, Note_on_c, 0, 79, 53
1, 20294, Note_off_c, 0, 79, 64
1, 20482, Note_on_c, 0, 78, 37
1, 20592, Note_off_c, 0, 78, 64
1, 20870, Note_on_c, 0, 77, 29
1, 21163, Note_off_c, 0, 77, 64
1, 21485, Note_on_c, 0, 79, 48
1, 21491, Note_on_c, 0, 76, 12
1, 21531, Note_off_c, 0, 79, 64
1, 21549, Note_off_c, 0, 76, 64
1, 21694, Note_on_c, 0, 76, 26
1, 21694, Note_on_c, 0, 79, 53
1, 21744, Note_off_c, 0, 76, 64
1, 21744, Note_off_c, 0, 79, 64
1, 21875, Note_on_c, 0, 72, 41
1, 21875, Note_on_c, 0, 76, 45
1, 21878, Note_on_c, 0, 60, 28
1, 21886, Note_on_c, 0, 57, 24
1, 21931, Note_off_c, 0, 72, 64
1, 21940, Note_off_c, 0, 60, 64
1, 21940, Note_off_c, 0, 76, 64
1, 21943, Note_off_c, 0, 57, 64
1, 22076, Note_on_c, 0, 60, 42
1, 22079, Note_on_c, 0, 57, 47
1, 22126, Note_off_c, 0, 57, 64
1, 22129, Note_off_c, 0, 60, 64
1, 22255, Note_on_c, 0, 77, 51
1, 22260, Note_on_c, 0, 74, 61
1, 22268, Note_on_c, 0, 57, 36
1, 22282, Note_on_c, 0, 53, 58
1, 22301, Note_off_c, 0, 74, 64
1, 22324, Note_off_c, 0, 57, 64
1, 22324, Note_off_c, 0, 77, 64
1, 22330, Note_off_c, 0, 53, 64
1, 22456, Note_on_c, 0, 77, 50
1, 22456, Note_on_c, 0, 74, 58
1, 22494, Note_off_c, 0, 77, 64
1, 22500, Note_off_c, 0, 74, 64
1, 22623, Note_on_c, 0, 74, 56
1, 22628, Note_on_c, 0, 59, 41
1, 22628, Note_on_c, 0, 71, 57
1, 22633, Note_on_c, 0, 55, 45
1, 22675, Note_off_c, 0, 59, 64
1, 22675, Note_off_c, 0, 71, 64
1, 22675, Note_off_c, 0, 55, 64
1, 22692, Note_off_c, 0, 74, 64
1, 22806, Note_on_c, 0, 59, 46
1, 22809, Note_on_c, 0, 55, 57
1, 22846, Note_off_c, 0, 59, 64
1, 22849, Note_off_c, 0, 55, 64
1, 22981, Note_on_c, 0, 72, 66
1, 22992, Note_on_c, 0, 55, 42
1, 23003, Note_on_c, 0, 52, 48
1, 23026, Note_off_c, 0, 72, 64
1, 23041, Note_off_c, 0, 55, 64
1, 23046, Note_off_c, 0, 52, 64
1, 23070, Note_on_c, 0, 74, 66
1, 23157, Note_on_c, 0, 76, 64
1, 23171, Note_off_c, 0, 74, 64
1, 23247, Note_on_c, 0, 72, 57
1, 23252, Note_off_c, 0, 76, 64
1, 23310, Note_off_c, 0, 72, 64
1, 23341, Note_on_c, 0, 69, 54
1, 23347, Note_on_c, 0, 53, 65
1, 23396, Note_off_c, 0, 69, 64
1, 23436, Note_on_c, 0, 71, 63
1, 23506, Note_off_c, 0, 71, 64
1, 23514, Note_on_c, 0, 72, 58
1, 23598, Note_off_c, 0, 72, 64
1, 23598, Note_on_c, 0, 73, 62
1, 23687, Note_off_c, 0, 73, 64
1, 23697, Note_on_c, 0, 74, 74
1, 23756, Note_off_c, 0, 74, 64
1, 23778, Note_on_c, 0, 76, 69
1, 23846, Note_off_c, 0, 53, 64
1, 23846, Note_off_c, 0, 76, 64
1, 23862, Note_on_c, 0, 50, 47
1, 23868, Note_on_c, 0, 77, 74
1, 23918, Note_off_c, 0, 77, 64
1, 23945, Note_on_c, 0, 74, 57
1, 23976, Note_off_c, 0, 50, 64
1, 24001, Note_off_c, 0, 74, 64
1, 24037, Note_on_c, 0, 72, 66
1, 24048, Note_on_c, 0, 55, 41
1, 24132, Note_on_c, 0, 71, 63
1, 24135, Note_off_c, 0, 72, 64
1, 24187, Note_off_c, 0, 71, 64
1, 24205, Note_off_c, 0, 55, 64
1, 24210, Note_on_c, 0, 69, 42
1, 24265, Note_off_c, 0, 69, 64
1, 24280, Note_on_c, 0, 67, 46
1, 24327, Note_off_c, 0, 67, 64
1, 24380, Note_on_c, 0, 76, 61
1, 24380, Note_on_c, 0, 79, 70
1, 24416, Note_off_c, 0, 76, 64
1, 24421, Note_off_c, 0, 79, 64
1, 24569, Note_on_c, 0, 79, 69
1, 24583, Note_on_c, 0, 76, 48
1, 24606, Note_off_c, 0, 79, 64
1, 24620, Note_off_c, 0, 76, 64
1, 24753, Note_on_c, 0, 76, 42
1, 24761, Note_on_c, 0, 72, 42
1, 24765, Note_on_c, 0, 60, 34
1, 24765, Note_on_c, 0, 57, 33
1, 24812, Note_off_c, 0, 72, 64
1, 24817, Note_off_c, 0, 57, 64
1, 24817, Note_off_c, 0, 60, 64
1, 24821, Note_off_c, 0, 76, 64
1, 24948, Note_on_c, 0, 57, 44
1, 24970, Note_on_c, 0, 60, 19
1, 24990, Note_off_c, 0, 57, 64
1, 25018, Note_off_c, 0, 60, 64
1, 25112, Note_on_c, 0, 81, 71
1, 25119, Note_on_c, 0, 77, 58
1, 25123, Note_on_c, 0, 53, 77
1, 25135, Note_on_c, 0, 50, 38
1, 25158, Note_off_c, 0, 77, 64
1, 25169, Note_off_c, 0, 53, 64
1, 25193, Note_off_c, 0, 81, 64
1, 25193, Note_off_c, 0, 50, 64
1, 25300, Note_on_c, 0, 77, 65
1, 25311, Note_on_c, 0, 81, 59
1, 25346, Note_off_c, 0, 77, 64
1, 25346, Note_off_c, 0, 81, 64
1, 25488, Note_on_c, 0, 59, 50
1, 25491, Note_on_c, 0, 71, 63
1, 25494, Note_on_c, 0, 74, 58
1, 25500, Note_on_c, 0, 55, 49
1, 25528, Note_off_c, 0, 59, 64
1, 25539, Note_off_c, 0, 71, 64
1, 25539, Note_off_c, 0, 74, 64
1, 25539, Note_off_c, 0, 55, 64
1, 25662, Note_on_c, 0, 59, 49
1, 25676, Note_on_c, 0, 55, 63
1, 25706, Note_off_c, 0, 59, 64
1, 25712, Note_off_c, 0, 55, 64
1, 25848, Note_on_c, 0, 81, 75
1, 25854, Note_on_c, 0, 48, 51
1, 25854, Note_on_c, 0, 52, 67
1, 25898, Note_off_c, 0, 52, 64
1, 25909, Note_off_c, 0, 48, 64
1, 25923, Note_on_c, 0, 79, 73
1, 25956, Note_off_c, 0, 81, 64
1, 26010, Note_on_c, 0, 77, 74
1, 26029, Note_off_c, 0, 79, 64
1, 26079, Note_off_c, 0, 77, 64
1, 26090, Note_on_c, 0, 76, 54
1, 26196, Note_on_c, 0, 73, 62
1, 26196, Note_off_c, 0, 76, 64
1, 26202, Note_on_c, 0, 57, 41
1, 26218, Note_on_c, 0, 53, 51
1, 26282, Note_on_c, 0, 74, 68
1, 26310, Note_off_c, 0, 73, 64
1, 26363, Note_on_c, 0, 76, 59
1, 26396, Note_off_c, 0, 74, 64
1, 26455, Note_on_c, 0, 77, 66
1, 26464, Note_off_c, 0, 76, 64
1, 26541, Note_off_c, 0, 77, 64
1, 26551, Note_on_c, 0, 69, 49
1, 26598, Note_off_c, 0, 53, 64
1, 26603, Note_off_c, 0, 57, 64
1, 26619, Note_off_c, 0, 69, 64
1, 26631, Note_on_c, 0, 72, 55
1, 26690, Note_off_c, 0, 72, 64
1, 26720, Note_on_c, 0, 65, 27
1, 26720, Note_on_c, 0, 55, 43
1, 26728, Note_on_c, 0, 71, 58
1, 26771, Note_off_c, 0, 65, 64
1, 26771, Note_off_c, 0, 55, 64
1, 26774, Note_off_c, 0, 71, 64
1, 26796, Note_on_c, 0, 74, 59
1, 26843, Note_off_c, 0, 74, 64
1, 26915, Note_on_c, 0, 72, 48
1, 26915, Note_on_c, 0, 60, 37
1, 26918, Note_on_c, 0, 64, 43
1, 26957, Note_off_c, 0, 64, 64
1, 26970, Note_off_c, 0, 60, 64
1, 26976, Control_c, 0, 64, 127
1, 27102, Note_on_c, 0, 48, 51
1, 27132, Control_c, 0, 64, 0
1, 27143, Note_off_c, 0, 48, 64
1, 27172, Note_off_c, 0, 72, 64
1, 27291, Note_on_c, 0, 64, 78
1, 27302, Note_on_c, 0, 60, 65
1, 27353, Note_off_c, 0, 60, 64
1, 27363, Note_off_c, 0, 64, 64
1, 27491, Note_on_c, 0, 64, 73
1, 27502, Note_on_c, 0, 60, 61
1, 27528, Note_off_c, 0, 64, 64
1, 27539, Note_off_c, 0, 60, 64
1, 27700, Note_on_c, 0, 60, 54
1, 27704, Note_on_c, 0, 76, 41
1, 27704, Note_on_c, 0, 57, 41
1, 27760, Note_off_c, 0, 76, 64
1, 27773, Note_off_c, 0, 60, 64
1, 27793, Note_on_c, 0, 75, 42
1, 27796, Note_off_c, 0, 57, 64
1, 27870, Note_off_c, 0, 75, 64
1, 27887, Note_on_c, 0, 77, 42
1, 27934, Note_off_c, 0, 77, 64
1, 27970, Note_on_c, 0, 76, 32
1, 28035, Note_off_c, 0, 76, 64
1, 28058, Note_on_c, 0, 62, 70
1, 28074, Note_on_c, 0, 59, 44
1, 28104, Note_off_c, 0, 62, 64
1, 28118, Note_off_c, 0, 59, 64
1, 28252, Note_on_c, 0, 59, 49
1, 28258, Note_on_c, 0, 62, 55
1, 28291, Note_off_c, 0, 59, 64
1, 28300, Note_off_c, 0, 62, 64
1, 28430, Note_on_c, 0, 76, 72
1, 28458, Note_on_c, 0, 59, 35
1, 28458, Note_on_c, 0, 56, 39
1, 28512, Note_off_c, 0, 76, 64
1, 28523, Note_on_c, 0, 75, 57
1, 28542, Note_off_c, 0, 59, 64
1, 28567, Note_off_c, 0, 56, 64
1, 28614, Note_on_c, 0, 77, 62
1, 28633, Note_off_c, 0, 75, 64
1, 28700, Note_off_c, 0, 77, 64
1, 28700, Note_on_c, 0, 76, 46
1, 28743, Note_off_c, 0, 76, 64
1, 28789, Note_on_c, 0, 84, 98
1, 28792, Note_on_c, 0, 76, 63
1, 28832, Note_off_c, 0, 76, 64
1, 28862, Note_off_c, 0, 84, 64
1, 28979, Note_on_c, 0, 84, 90
1, 28979, Note_on_c, 0, 76, 76
1, 29037, Note_off_c, 0, 76, 64
1, 29055, Note_off_c, 0, 84, 64
1, 29182, Note_on_c, 0, 72, 61
1, 29182, Note_on_c, 0, 81, 63
1, 29188, Note_on_c, 0, 64, 51
1, 29228, Note_off_c, 0, 64, 64
1, 29235, Note_off_c, 0, 72, 64
1, 29275, Note_on_c, 0, 63, 54
1, 29285, Note_off_c, 0, 81, 64
1, 29339, Note_off_c, 0, 63, 64
1, 29367, Note_on_c, 0, 65, 36
1, 29414, Note_off_c, 0, 65, 64
1, 29464, Note_on_c, 0, 64, 42
1, 29523, Note_off_c, 0, 64, 64
1, 29551, Note_on_c, 0, 83, 95
1, 29556, Note_on_c, 0, 74, 66
1, 29595, Note_off_c, 0, 74, 64
1, 29611, Note_off_c, 0, 83, 64
1, 29737, Note_on_c, 0, 83, 85
1, 29746, Note_on_c, 0, 74, 60
1, 29779, Note_off_c, 0, 83, 64
1, 29782, Note_off_c, 0, 74, 64
1, 29921, Note_on_c, 0, 64, 54
1, 29921, Note_on_c, 0, 80, 66
1, 29934, Note_on_c, 0, 71, 52
1, 29987, Note_off_c, 0, 64, 64
1, 30002, Note_off_c, 0, 71, 64
1, 30007, Note_off_c, 0, 80, 64
1, 30007, Note_on_c, 0, 63, 48
1, 30060, Note_off_c, 0, 63, 64
1, 30099, Note_on_c, 0, 65, 26
1, 30154, Note_off_c, 0, 65, 64
1, 30180, Note_on_c, 0, 64, 55
1, 30216, Note_off_c, 0, 64, 64
1, 30306, Note_on_c, 0, 81, 65
1, 30319, Note_on_c, 0, 64, 35
1, 30325, Note_on_c, 0, 60, 37
1, 30409, Note_off_c, 0, 81, 64
1, 30414, Note_on_c, 0, 76, 48
1, 30473, Note_off_c, 0, 76, 64
1, 30512, Note_on_c, 0, 72, 42
1, 30561, Note_off_c, 0, 72, 64
1, 30593, Note_on_c, 0, 69, 44
1, 30642, Note_off_c, 0, 69, 64
1, 30687, Note_on_c, 0, 72, 58
1, 30696, Note_off_c, 0, 64, 64
1, 30703, Note_off_c, 0, 60, 64
1, 30703, Note_on_c, 0, 62, 50
1, 30709, Note_on_c, 0, 65, 35
1, 30785, Note_off_c, 0, 72, 64
1, 30793, Note_on_c, 0, 70, 66
1, 30834, Note_off_c, 0, 70, 64
1, 30891, Note_on_c, 0, 70, 52
1, 30937, Note_off_c, 0, 70, 64
1, 30982, Note_on_c, 0, 70, 62
1, 31036, Note_off_c, 0, 70, 64
1, 31085, Note_on_c, 0, 74, 76
1, 31091, Note_off_c, 0, 65, 64
1, 31096, Note_on_c, 0, 67, 46
1, 31100, Note_off_c, 0, 62, 64
1, 31105, Note_on_c, 0, 64, 50
1, 31175, Note_on_c, 0, 73, 67
1, 31175, Note_off_c, 0, 74, 64
1, 31235, Note_off_c, 0, 73, 64
1, 31277, Note_on_c, 0, 73, 76
1, 31313, Note_off_c, 0, 73, 64
1, 31369, Note_on_c, 0, 73, 63
1, 31430, Note_off_c, 0, 73, 64
1, 31450, Note_off_c, 0, 67, 64
1, 31472, Note_off_c, 0, 64, 64
1, 31487, Note_on_c, 0, 76, 56
1, 31490, Note_on_c, 0, 65, 41
1, 31495, Note_on_c, 0, 69, 34
1, 31562, Note_off_c, 0, 76, 64
1, 31576, Note_on_c, 0, 74, 67
1, 31607, Note_off_c, 0, 74, 64
1, 31659, Note_off_c, 0, 65, 64
1, 31671, Note_on_c, 0, 77, 80
1, 31678, Note_on_c, 0, 61, 47
1, 31762, Note_off_c, 0, 77, 64
1, 31768, Note_on_c, 0, 76, 57
1, 31806, Note_off_c, 0, 76, 64
1, 31855, Note_off_c, 0, 61, 64
1, 31865, Note_on_c, 0, 79, 91
1, 31885, Note_on_c, 0, 62, 36
1, 31957, Note_on_c, 0, 77, 78
1, 31976, Note_off_c, 0, 79, 64
1, 31987, Note_off_c, 0, 77, 64
1, 32052, Note_off_c, 0, 62, 64
1, 32052, Note_on_c, 0, 77, 63
1, 32063, Note_on_c, 0, 64, 42
1, 32143, Note_on_c, 0, 76, 84
1, 32149, Note_off_c, 0, 69, 64
1, 32161, Note_off_c, 0, 77, 64
1, 32177, Note_off_c, 0, 76, 64
1, 32256, Note_off_c, 0, 64, 64
1, 32260, Note_on_c, 0, 76, 80
1, 32270, Note_on_c, 0, 69, 31
1, 32289, Note_on_c, 0, 65, 24
1, 32353, Note_off_c, 0, 76, 64
1, 32353, Note_on_c, 0, 75, 79
1, 32523, Note_off_c, 0, 75, 64
1, 32536, Note_on_c, 0, 84, 81
1, 32565, Note_off_c, 0, 69, 64
1, 32593, Note_off_c, 0, 65, 64
1, 32779, Note_on_c, 0, 69, 34
1, 32793, Note_on_c, 0, 65, 23
1, 32932, Control_c, 0, 64, 127
1, 32955, Note_off_c, 0, 69, 64
1, 32980, Note_on_c, 0, 75, 50
1, 32983, Note_off_c, 0, 84, 64
1, 32983, Note_off_c, 0, 65, 64
1, 33027, Control_c, 0, 64, 0
1, 33214, Note_on_c, 0, 76, 43
1, 33231, Note_on_c, 0, 52, 52
1, 33239, Note_off_c, 0, 75, 64
1, 33323, Note_on_c, 0, 64, 49
1, 33373, Note_off_c, 0, 64, 64
1, 33392, Note_off_c, 0, 52, 64
1, 33419, Note_on_c, 0, 56, 42
1, 33481, Note_off_c, 0, 56, 64
1, 33526, Note_on_c, 0, 64, 22
1, 33567, Control_c, 0, 64, 127
1, 33584, Note_off_c, 0, 64, 64
1, 33587, Note_off_c, 0, 76, 64
1, 33625, Note_on_c, 0, 83, 94
1, 33628, Note_on_c, 0, 59, 16
1, 33688, Note_off_c, 0, 59, 64
1, 33717, Note_on_c, 0, 80, 66
1, 33717, Note_on_c, 0, 64, 22
1, 33726, Note_off_c, 0, 83, 64
1, 33774, Note_off_c, 0, 64, 64
1, 33799, Note_on_c, 0, 56, 27
1, 33809, Note_on_c, 0, 76, 57
1, 33824, Note_off_c, 0, 80, 64
1, 33865, Note_off_c, 0, 56, 64
1, 33893, Note_on_c, 0, 74, 70
1, 33901, Note_off_c, 0, 76, 64
1, 33905, Note_on_c, 0, 64, 25
1, 33951, Control_c, 0, 64, 0
1, 33963, Note_off_c, 0, 64, 64
1, 34001, Note_on_c, 0, 72, 75
1, 34001, Note_off_c, 0, 74, 64
1, 34001, Note_on_c, 0, 52, 44
1, 34082, Note_off_c, 0, 72, 64
1, 34093, Note_on_c, 0, 76, 73
1, 34107, Note_on_c, 0, 64, 34
1, 34119, Note_off_c, 0, 52, 64
1, 34161, Note_off_c, 0, 64, 64
1, 34166, Control_c, 0, 64, 127
1, 34175, Note_on_c, 0, 81, 75
1, 34188, Note_off_c, 0, 76, 64
1, 34194, Note_on_c, 0, 57, 28
1, 34256, Note_off_c, 0, 57, 64
1, 34267, Note_on_c, 0, 80, 75
1, 34288, Note_off_c, 0, 81, 64
1, 34288, Note_on_c, 0, 64, 18
1, 34322, Control_c, 0, 64, 0
1, 34348, Note_off_c, 0, 64, 64
1, 34362, Note_on_c, 0, 60, 43
1, 34378, Note_on_c, 0, 81, 58
1, 34387, Note_off_c, 0, 80, 64
1, 34423, Note_off_c, 0, 60, 64
1, 34440, Note_on_c, 0, 64, 28
1, 34464, Note_on_c, 0, 76, 58
1, 34469, Note_off_c, 0, 81, 64
1, 34512, Note_off_c, 0, 64, 64
1, 34525, Note_off_c, 0, 76, 64
1, 34550, Note_on_c, 0, 72, 56
1, 34550, Note_on_c, 0, 57, 33
1, 34609, Note_off_c, 0, 72, 64
1, 34614, Note_off_c, 0, 57, 64
1, 34634, Note_on_c, 0, 69, 55
1, 34657, Note_on_c, 0, 64, 39
1, 34712, Note_off_c, 0, 69, 64
1, 34712, Note_off_c, 0, 64, 64
1, 34732, Note_on_c, 0, 68, 62
1, 34745, Note_on_c, 0, 52, 44
1, 34829, Note_on_c, 0, 71, 76
1, 34834, Note_off_c, 0, 68, 64
1, 34846, Note_on_c, 0, 64, 41
1, 34877, Note_off_c, 0, 52, 64
1, 34901, Note_off_c, 0, 64, 64
1, 34910, Note_on_c, 0, 56, 47
1, 34930, Note_on_c, 0, 76, 65
1, 34944, Note_off_c, 0, 71, 64
1, 34968, Note_off_c, 0, 56, 64
1, 34996, Note_on_c, 0, 64, 37
1, 35004, Note_on_c, 0, 80, 75
1, 35018, Note_off_c, 0, 76, 64
1, 35061, Note_off_c, 0, 64, 64
1, 35091, Note_on_c, 0, 59, 51
1, 35105, Note_on_c, 0, 83, 104
1, 35127, Note_off_c, 0, 80, 64
1, 35139, Note_off_c, 0, 59, 64
1, 35178, Note_on_c, 0, 64, 43
1, 35183, Note_on_c, 0, 80, 64
1, 35228, Note_off_c, 0, 83, 64
1, 35244, Note_off_c, 0, 64, 64
1, 35264, Note_on_c, 0, 56, 50
1, 35277, Note_on_c, 0, 76, 72
1, 35302, Note_off_c, 0, 80, 64
1, 35339, Note_off_c, 0, 56, 64
1, 35356, Note_on_c, 0, 74, 83
1, 35362, Note_off_c, 0, 76, 64
1, 35372, Note_on_c, 0, 64, 58
1, 35415, Note_off_c, 0, 64, 64
1, 35458, Note_on_c, 0, 72, 83
1, 35465, Note_on_c, 0, 52, 57
1, 35468, Note_off_c, 0, 74, 64
1, 35542, Note_off_c, 0, 72, 64
1, 35553, Note_on_c, 0, 76, 78
1, 35567, Note_on_c, 0, 64, 48
1, 35578, Note_off_c, 0, 52, 64
1, 35620, Note_off_c, 0, 64, 64
1, 35631, Note_on_c, 0, 81, 77
1, 35645, Note_off_c, 0, 76, 64
1, 35645, Note_on_c, 0, 57, 44
1, 35702, Note_off_c, 0, 57, 64
1, 35721, Note_on_c, 0, 80, 75
1, 35743, Note_off_c, 0, 81, 64
1, 35743, Note_on_c, 0, 64, 32
1, 35793, Note_off_c, 0, 64, 64
1, 35810, Note_on_c, 0, 60, 45
1, 35819, Note_on_c, 0, 81, 50
1, 35819, Note_off_c, 0, 80, 64
1, 35866, Note_off_c, 0, 60, 64
1, 35887, Note_on_c, 0, 64, 32
1, 35904, Note_off_c, 0, 81, 64
1, 35911, Note_on_c, 0, 76, 49
1, 35941, Note_off_c, 0, 64, 64
1, 35957, Note_off_c, 0, 76, 64
1, 35983, Note_on_c, 0, 57, 36
1, 35991, Note_on_c, 0, 72, 46
1, 36038, Note_off_c, 0, 57, 64
1, 36038, Note_off_c, 0, 72, 64
1, 36075, Note_on_c, 0, 69, 49
1, 36163, Note_off_c, 0, 69, 64
1, 36183, Note_on_c, 0, 64, 63
1, 36188, Note_on_c, 0, 52, 51
1, 36347, Note_off_c, 0, 64, 64
1, 36347, Control_c, 0, 64, 127
1, 36351, Note_off_c, 0, 52, 64
1, 36431, Control_c, 0, 64, 0
1, 36609, Note_on_c, 0, 72, 57
1, 36612, Note_on_c, 0, 76, 46
1, 36651, Note_off_c, 0, 72, 64
1, 36663, Note_off_c, 0, 76, 64
1, 36798, Note_on_c, 0, 76, 56
1, 36798, Note_on_c, 0, 72, 62
1, 36844, Note_off_c, 0, 72, 64
1, 36851, Note_off_c, 0, 76, 64
1, 37002, Note_on_c, 0, 64, 57
1, 37002, Note_on_c, 0, 72, 48
1, 37002, Note_on_c, 0, 69, 36
1, 37063, Note_off_c, 0, 64, 64
1, 37074, Note_off_c, 0, 69, 64
1, 37091, Note_on_c, 0, 63, 52
1, 37175, Note_on_c, 0, 65, 49
1, 37181, Note_off_c, 0, 63, 64
1, 37184, Note_off_c, 0, 72, 64
1, 37244, Note_off_c, 0, 65, 64
1, 37291, Note_on_c, 0, 64, 42
1, 37345, Note_off_c, 0, 64, 64
1, 37376, Note_on_c, 0, 74, 68
1, 37376, Note_on_c, 0, 71, 70
1, 37418, Note_off_c, 0, 71, 64
1, 37423, Note_off_c, 0, 74, 64
1, 37584, Note_on_c, 0, 74, 64
1, 37584, Note_on_c, 0, 71, 49
1, 37620, Note_off_c, 0, 74, 64
1, 37629, Note_off_c, 0, 71, 64
1, 37762, Note_on_c, 0, 71, 57
1, 37771, Note_on_c, 0, 64, 59
1, 37776, Note_on_c, 0, 68, 34
1, 37829, Note_off_c, 0, 64, 64
1, 37855, Note_off_c, 0, 68, 64
1, 37855, Note_on_c, 0, 63, 59
1, 37910, Note_off_c, 0, 63, 64
1, 37921, Note_off_c, 0, 71, 64
1, 37935, Note_on_c, 0, 65, 43
1, 37979, Note_off_c, 0, 65, 64
1, 38022, Note_on_c, 0, 64, 52
1, 38061, Note_off_c, 0, 64, 64
1, 38149, Note_on_c, 0, 60, 94
1, 38153, Note_on_c, 0, 52, 98
1, 38181, Note_off_c, 0, 52, 64
1, 38195, Note_off_c, 0, 60, 64
1, 38345, Note_on_c, 0, 60, 88
1, 38358, Note_on_c, 0, 52, 85
1, 38389, Note_off_c, 0, 52, 64
1, 38429, Note_off_c, 0, 60, 64
1, 38548, Note_on_c, 0, 57, 78
1, 38557, Note_on_c, 0, 64, 70
1, 38560, Note_on_c, 0, 48, 61
1, 38635, Note_on_c, 0, 63, 70
1, 38640, Note_off_c, 0, 64, 64
1, 38691, Note_off_c, 0, 48, 64
1, 38696, Note_off_c, 0, 57, 64
1, 38737, Note_on_c, 0, 65, 49
1, 38741, Note_off_c, 0, 63, 64
1, 38804, Note_off_c, 0, 65, 64
1, 38835, Note_on_c, 0, 64, 52
1, 38877, Note_off_c, 0, 64, 64
1, 38924, Note_on_c, 0, 50, 89
1, 38924, Note_on_c, 0, 59, 90
1, 38971, Note_off_c, 0, 50, 64
1, 39008, Note_off_c, 0, 59, 64
1, 39125, Note_on_c, 0, 59, 86
1, 39134, Note_on_c, 0, 50, 87
1, 39183, Note_off_c, 0, 50, 64
1, 39197, Note_off_c, 0, 59, 64
1, 39336, Note_on_c, 0, 88, 83
1, 39336, Note_on_c, 0, 56, 81
1, 39351, Note_on_c, 0, 47, 63
1, 39434, Note_off_c, 0, 47, 64
1, 39434, Note_on_c, 0, 87, 67
1, 39448, Note_off_c, 0, 88, 64
1, 39460, Note_off_c, 0, 56, 64
1, 39532, Note_on_c, 0, 89, 75
1, 39543, Note_off_c, 0, 87, 64
1, 39609, Note_on_c, 0, 88, 82
1, 39629, Note_off_c, 0, 89, 64
1, 39648, Note_off_c, 0, 88, 64
1, 39719, Note_on_c, 0, 86, 93
1, 39727, Note_on_c, 0, 56, 46
1, 39727, Note_on_c, 0, 59, 59
1, 39805, Note_on_c, 0, 85, 76
1, 39830, Note_off_c, 0, 86, 64
1, 39914, Note_on_c, 0, 88, 72
1, 39933, Note_off_c, 0, 85, 64
1, 39999, Note_on_c, 0, 86, 83
1, 40025, Note_off_c, 0, 88, 64
1, 40031, Note_off_c, 0, 86, 64
1, 40039, Note_off_c, 0, 56, 64
1, 40050, Note_off_c, 0, 59, 64
1, 40106, Note_on_c, 0, 86, 67
1, 40119, Note_on_c, 0, 60, 49
1, 40128, Note_on_c, 0, 57, 31
1, 40183, Note_off_c, 0, 57, 64
1, 40208, Note_on_c, 0, 84, 79
1, 40219, Note_off_c, 0, 86, 64
1, 40239, Note_off_c, 0, 84, 64
1, 40242, Control_c, 0, 64, 127
1, 40267, Control_c, 0, 64, 0
1, 40283, Note_off_c, 0, 60, 64
1, 40312, Note_on_c, 0, 84, 61
1, 40333, Note_on_c, 0, 62, 43
1, 40347, Note_on_c, 0, 59, 25
1, 40406, Note_off_c, 0, 84, 64
1, 40406, Note_on_c, 0, 83, 82
1, 40439, Note_off_c, 0, 83, 64
1, 40446, Control_c, 0, 64, 127
1, 40460, Note_off_c, 0, 59, 64
1, 40476, Note_off_c, 0, 62, 64
1, 40482, Control_c, 0, 64, 0
1, 40501, Note_on_c, 0, 83, 83
1, 40524, Note_on_c, 0, 64, 45
1, 40535, Note_on_c, 0, 60, 30
1, 40584, Note_off_c, 0, 60, 64
1, 40598, Note_off_c, 0, 83, 64
1, 40598, Note_on_c, 0, 81, 65
1, 40615, Control_c, 0, 64, 127
1, 40630, Note_off_c, 0, 81, 64
1, 40662, Control_c, 0, 64, 0
1, 40691, Note_on_c, 0, 81, 57
1, 40713, Note_on_c, 0, 61, 45
1, 40743, Note_off_c, 0, 64, 64
1, 40785, Note_on_c, 0, 79, 73
1, 40785, Note_off_c, 0, 61, 64
1, 40794, Control_c, 0, 64, 127
1, 40797, Note_off_c, 0, 81, 64
1, 40818, Note_off_c, 0, 79, 64
1, 40854, Control_c, 0, 64, 0
1, 40872, Note_on_c, 0, 79, 71
1, 40872, Note_on_c, 0, 69, 55
1, 40896, Note_on_c, 0, 62, 48
1, 40969, Note_on_c, 0, 77, 70
1, 40985, Note_off_c, 0, 79, 64
1, 40999, Note_off_c, 0, 77, 64
1, 41010, Control_c, 0, 64, 127
1, 41058, Control_c, 0, 64, 0
1, 41058, Note_on_c, 0, 77, 66
1, 41081, Note_off_c, 0, 62, 64
1, 41081, Note_on_c, 0, 64, 63
1, 41148, Note_on_c, 0, 76, 69
1, 41164, Note_off_c, 0, 77, 64
1, 41180, Note_off_c, 0, 76, 64
1, 41189, Control_c, 0, 64, 127
1, 41200, Note_off_c, 0, 64, 64
1, 41225, Control_c, 0, 64, 0
1, 41245, Note_on_c, 0, 76, 59
1, 41258, Note_on_c, 0, 65, 51
1, 41340, Note_on_c, 0, 74, 77
1, 41356, Note_off_c, 0, 76, 64
1, 41368, Note_off_c, 0, 74, 64
1, 41368, Control_c, 0, 64, 127
1, 41406, Control_c, 0, 64, 0
1, 41410, Note_off_c, 0, 65, 64
1, 41428, Note_on_c, 0, 74, 58
1, 41442, Note_on_c, 0, 64, 45
1, 41504, Note_off_c, 0, 69, 64
1, 41504, Note_off_c, 0, 74, 64
1, 41504, Note_on_c, 0, 72, 76
1, 41604, Note_off_c, 0, 64, 64
1, 41621, Note_on_c, 0, 70, 67
1, 41634, Note_off_c, 0, 72, 64
1, 41638, Note_on_c, 0, 65, 30
1, 41651, Note_on_c, 0, 62, 29
1, 41721, Note_on_c, 0, 77, 73
1, 41727, Note_off_c, 0, 70, 64
1, 41811, Note_on_c, 0, 74, 72
1, 41811, Note_off_c, 0, 77, 64
1, 41827, Note_off_c, 0, 65, 64
1, 41836, Control_c, 0, 64, 127
1, 41844, Note_off_c, 0, 62, 64
1, 41900, Note_on_c, 0, 70, 60
1, 41928, Note_off_c, 0, 74, 64
1, 42017, Note_on_c, 0, 69, 59
1, 42028, Note_on_c, 0, 60, 47
1, 42033, Note_off_c, 0, 70, 64
1, 42053, Control_c, 0, 64, 0
1, 42056, Note_on_c, 0, 52, 25
1, 42242, Note_on_c, 0, 68, 52
1, 42248, Note_off_c, 0, 60, 64
1, 42256, Note_on_c, 0, 59, 45
1, 42270, Note_off_c, 0, 69, 64
1, 42437, Note_off_c, 0, 59, 64
1, 42471, Note_on_c, 0, 57, 34
1, 42479, Note_on_c, 0, 69, 40
1, 42490, Note_off_c, 0, 68, 64
1, 42527, Note_off_c, 0, 52, 64
1, 42576, Note_on_c, 0, 60, 51
1, 42643, Note_off_c, 0, 60, 64
1, 42669, Note_on_c, 0, 64, 46
1, 42738, Note_off_c, 0, 69, 64
1, 42754, Note_off_c, 0, 64, 64
1, 42772, Note_on_c, 0, 60, 45
1, 42819, Note_off_c, 0, 60, 64
1, 42839, Note_on_c, 0, 68, 60
1, 42842, Note_on_c, 0, 52, 65
1, 42868, Control_c, 0, 64, 127
1, 42893, Note_off_c, 0, 57, 64
1, 42903, Control_c, 0, 64, 0
1, 42936, Note_on_c, 0, 74, 70
1, 42936, Note_on_c, 0, 59, 47
1, 42942, Note_off_c, 0, 68, 64
1, 42992, Note_off_c, 0, 59, 64
1, 43014, Note_on_c, 0, 62, 54
1, 43024, Note_on_c, 0, 71, 73
1, 43044, Note_off_c, 0, 74, 64
1, 43083, Control_c, 0, 64, 127
1, 43106, Note_on_c, 0, 68, 70
1, 43127, Note_off_c, 0, 62, 64
1, 43127, Note_on_c, 0, 59, 50
1, 43153, Note_off_c, 0, 71, 64
1, 43167, Control_c, 0, 64, 0
1, 43187, Note_off_c, 0, 59, 64
1, 43214, Note_on_c, 0, 69, 71
1, 43219, Note_off_c, 0, 52, 64
1, 43219, Note_on_c, 0, 57, 52
1, 43223, Note_off_c, 0, 68, 64
1, 43320, Note_on_c, 0, 60, 53
1, 43371, Control_c, 0, 64, 127
1, 43374, Note_off_c, 0, 69, 64
1, 43385, Note_off_c, 0, 60, 64
1, 43401, Note_on_c, 0, 64, 53
1, 43456, Note_off_c, 0, 64, 64
1, 43467, Control_c, 0, 64, 0
1, 43481, Note_on_c, 0, 60, 43
1, 43535, Note_off_c, 0, 60, 64
1, 43574, Note_on_c, 0, 52, 64
1, 43587, Note_on_c, 0, 68, 54
1, 43595, Note_off_c, 0, 57, 64
1, 43676, Note_on_c, 0, 59, 45
1, 43676, Note_off_c, 0, 68, 64
1, 43690, Note_on_c, 0, 74, 50
1, 43729, Note_off_c, 0, 59, 64
1, 43752, Note_on_c, 0, 62, 43
1, 43765, Note_off_c, 0, 74, 64
1, 43772, Note_on_c, 0, 71, 65
1, 43833, Note_off_c, 0, 62, 64
1, 43857, Note_on_c, 0, 68, 51
1, 43863, Note_on_c, 0, 59, 38
1, 43867, Note_off_c, 0, 71, 64
1, 43872, Note_off_c, 0, 52, 64
1, 43910, Note_off_c, 0, 59, 64
1, 43935, Note_off_c, 0, 68, 64
1, 43944, Note_on_c, 0, 57, 30
1, 43958, Note_on_c, 0, 69, 48
1, 44047, Note_on_c, 0, 60, 50
1, 44097, Note_off_c, 0, 60, 64
1, 44125, Note_on_c, 0, 64, 44
1, 44125, Note_off_c, 0, 69, 64
1, 44178, Note_off_c, 0, 64, 64
1, 44234, Note_on_c, 0, 60, 50
1, 44284, Note_off_c, 0, 60, 64
1, 44284, Note_on_c, 0, 68, 47
1, 44306, Note_on_c, 0, 52, 51
1, 44312, Note_off_c, 0, 57, 64
1, 44362, Note_off_c, 0, 68, 64
1, 44392, Note_on_c, 0, 74, 63
1, 44404, Note_on_c, 0, 59, 30
1, 44451, Note_off_c, 0, 59, 64
1, 44470, Note_on_c, 0, 62, 43
1, 44470, Note_on_c, 0, 71, 74
1, 44476, Note_off_c, 0, 74, 64
1, 44507, Note_off_c, 0, 52, 64
1, 44554, Note_on_c, 0, 68, 70
1, 44554, Note_on_c, 0, 59, 33
1, 44565, Note_off_c, 0, 62, 64
1, 44571, Note_off_c, 0, 71, 64
1, 44616, Note_off_c, 0, 59, 64
1, 44644, Note_on_c, 0, 57, 55
1, 44657, Note_on_c, 0, 69, 73
1, 44669, Note_off_c, 0, 68, 64
1, 44752, Note_on_c, 0, 60, 50
1, 44752, Note_on_c, 0, 76, 75
1, 44775, Note_off_c, 0, 69, 64
1, 44808, Note_off_c, 0, 60, 64
1, 44832, Note_on_c, 0, 64, 54
1, 44844, Note_on_c, 0, 72, 78
1, 44892, Note_off_c, 0, 76, 64
1, 44908, Note_off_c, 0, 64, 64
1, 44930, Note_on_c, 0, 60, 55
1, 44930, Note_on_c, 0, 69, 78
1, 44950, Note_off_c, 0, 72, 64
1, 44950, Control_c, 0, 64, 127
1, 44989, Control_c, 0, 64, 0
1, 44989, Note_off_c, 0, 60, 64
1, 44995, Note_off_c, 0, 57, 64
1, 45023, Note_on_c, 0, 55, 65
1, 45034, Note_on_c, 0, 71, 96
1, 45069, Note_off_c, 0, 69, 64
1, 45128, Note_on_c, 0, 77, 85
1, 45134, Note_on_c, 0, 62, 59
1, 45154, Note_off_c, 0, 71, 64
1, 45186, Note_off_c, 0, 62, 64
1, 45234, Note_on_c, 0, 65, 40
1, 45242, Note_on_c, 0, 74, 78
1, 45253, Control_c, 0, 64, 127
1, 45253, Note_off_c, 0, 77, 64
1, 45320, Note_off_c, 0, 65, 64
1, 45337, Note_off_c, 0, 74, 64
1, 45337, Note_on_c, 0, 71, 71
1, 45350, Note_off_c, 0, 55, 64
1, 45356, Note_on_c, 0, 62, 44
1, 45463, Note_off_c, 0, 62, 64
1, 45468, Control_c, 0, 64, 0
1, 45482, Note_off_c, 0, 71, 64
1, 46304, Note_on_c, 0, 79, 57
1, 46309, Note_on_c, 0, 76, 39
1, 46345, Note_off_c, 0, 79, 64
1, 46349, Note_off_c, 0, 76, 64
1, 46501, Note_on_c, 0, 76, 49
1, 46507, Note_on_c, 0, 79, 67
1, 46538, Note_off_c, 0, 76, 64
1, 46544, Note_off_c, 0, 79, 64
1, 46688, Note_on_c, 0, 60, 39
1, 46693, Note_on_c, 0, 57, 37
1, 46693, Note_on_c, 0, 72, 49
1, 46696, Note_on_c, 0, 76, 45
1, 46738, Note_off_c, 0, 57, 64
1, 46738, Note_off_c, 0, 72, 64
1, 46743, Note_off_c, 0, 76, 64
1, 46747, Note_off_c, 0, 60, 64
1, 46885, Note_on_c, 0, 60, 46
1, 46891, Note_on_c, 0, 57, 39
1, 46934, Note_off_c, 0, 57, 64
1, 46937, Note_off_c, 0, 60, 64
1, 47078, Note_on_c, 0, 77, 61
1, 47078, Note_on_c, 0, 57, 41
1, 47078, Note_on_c, 0, 74, 60
1, 47081, Note_on_c, 0, 53, 53
1, 47114, Note_off_c, 0, 74, 64
1, 47123, Note_off_c, 0, 77, 64
1, 47131, Note_off_c, 0, 57, 64
1, 47136, Note_off_c, 0, 53, 64
1, 47273, Note_on_c, 0, 74, 59
1, 47279, Note_on_c, 0, 77, 61
1, 47309, Note_off_c, 0, 74, 64
1, 47315, Note_off_c, 0, 77, 64
1, 47465, Note_on_c, 0, 74, 51
1, 47465, Note_on_c, 0, 71, 55
1, 47470, Note_on_c, 0, 55, 44
1, 47470, Note_on_c, 0, 59, 39
1, 47512, Note_off_c, 0, 71, 64
1, 47518, Note_off_c, 0, 74, 64
1, 47518, Note_off_c, 0, 55, 64
1, 47518, Note_off_c, 0, 59, 64
1, 47657, Note_on_c, 0, 55, 55
1, 47657, Note_on_c, 0, 59, 48
1, 47697, Note_off_c, 0, 55, 64
1, 47700, Note_off_c, 0, 59, 64
1, 47849, Note_on_c, 0, 55, 37
1, 47856, Note_on_c, 0, 72, 50
1, 47861, Note_on_c, 0, 52, 43
1, 47908, Note_off_c, 0, 72, 64
1, 47908, Note_off_c, 0, 55, 64
1, 47917, Note_off_c, 0, 52, 64
1, 47950, Note_on_c, 0, 74, 50
1, 48016, Note_off_c, 0, 74, 64
1, 48037, Note_on_c, 0, 76, 55
1, 48086, Note_off_c, 0, 76, 64
1, 48115, Note_on_c, 0, 72, 57
1, 48181, Note_off_c, 0, 72, 64
1, 48209, Note_on_c, 0, 69, 46
1, 48214, Note_on_c, 0, 53, 75
1, 48265, Note_off_c, 0, 69, 64
1, 48298, Note_on_c, 0, 71, 63
1, 48352, Note_off_c, 0, 71, 64
1, 48379, Note_on_c, 0, 72, 39
1, 48449, Note_off_c, 0, 72, 64
1, 48462, Note_on_c, 0, 73, 59
1, 48551, Note_on_c, 0, 74, 68
1, 48551, Note_off_c, 0, 73, 64
1, 48611, Note_off_c, 0, 74, 64
1, 48635, Note_on_c, 0, 76, 56
1, 48699, Note_off_c, 0, 53, 64
1, 48702, Note_off_c, 0, 76, 64
1, 48721, Note_on_c, 0, 77, 68
1, 48728, Note_on_c, 0, 50, 44
1, 48786, Note_off_c, 0, 77, 64
1, 48802, Note_on_c, 0, 74, 58
1, 48863, Note_off_c, 0, 50, 64
1, 48892, Note_off_c, 0, 74, 64
1, 48902, Note_on_c, 0, 72, 71
1, 48913, Note_on_c, 0, 55, 44
1, 48994, Note_on_c, 0, 71, 68
1, 49001, Note_off_c, 0, 72, 64
1, 49045, Note_off_c, 0, 71, 64
1, 49067, Note_off_c, 0, 55, 64
1, 49070, Note_on_c, 0, 69, 53
1, 49120, Note_off_c, 0, 69, 64
1, 49143, Note_on_c, 0, 67, 63
1, 49190, Note_off_c, 0, 67, 64
1, 49249, Note_on_c, 0, 79, 71
1, 49252, Note_on_c, 0, 76, 51
1, 49288, Note_off_c, 0, 79, 64
1, 49288, Note_off_c, 0, 76, 64
1, 49445, Note_on_c, 0, 79, 61
1, 49445, Note_on_c, 0, 76, 48
1, 49485, Note_off_c, 0, 79, 64
1, 49485, Note_off_c, 0, 76, 64
1, 49625, Note_on_c, 0, 60, 41
1, 49633, Note_on_c, 0, 72, 49
1, 49633, Note_on_c, 0, 76, 46
1, 49633, Note_on_c, 0, 57, 31
1, 49682, Note_off_c, 0, 60, 64
1, 49682, Note_off_c, 0, 72, 64
1, 49682, Note_off_c, 0, 57, 64
1, 49688, Note_off_c, 0, 76, 64
1, 49811, Note_on_c, 0, 60, 53
1, 49817, Note_on_c, 0, 57, 44
1, 49863, Note_off_c, 0, 60, 64
1, 49863, Note_off_c, 0, 57, 64
1, 49994, Note_on_c, 0, 81, 77
1, 50001, Note_on_c, 0, 77, 67
1, 50006, Note_on_c, 0, 50, 59
1, 50011, Note_on_c, 0, 53, 75
1, 50044, Note_off_c, 0, 77, 64
1, 50053, Note_off_c, 0, 53, 64
1, 50065, Note_off_c, 0, 50, 64
1, 50087, Note_off_c, 0, 81, 64
1, 50192, Note_on_c, 0, 77, 65
1, 50192, Note_on_c, 0, 81, 67
1, 50229, Note_off_c, 0, 77, 64
1, 50229, Note_off_c, 0, 81, 64
1, 50370, Note_on_c, 0, 59, 54
1, 50379, Note_on_c, 0, 55, 52
1, 50384, Note_on_c, 0, 74, 66
1, 50384, Note_on_c, 0, 71, 69
1, 50413, Note_off_c, 0, 59, 64
1, 50421, Note_off_c, 0, 55, 64
1, 50426, Note_off_c, 0, 74, 64
1, 50426, Note_off_c, 0, 71, 64
1, 50561, Note_on_c, 0, 55, 63
1, 50566, Note_on_c, 0, 59, 57
1, 50602, Note_off_c, 0, 55, 64
1, 50602, Note_off_c, 0, 59, 64
1, 50753, Note_on_c, 0, 52, 75
1, 50756, Note_on_c, 0, 48, 54
1, 50756, Note_on_c, 0, 81, 80
1, 50799, Note_off_c, 0, 52, 64
1, 50845, Note_on_c, 0, 79, 81
1, 50845, Note_off_c, 0, 48, 64
1, 50856, Note_off_c, 0, 81, 64
1, 50922, Note_on_c, 0, 77, 73
1, 50934, Note_off_c, 0, 79, 64
1, 50986, Note_off_c, 0, 77, 64
1, 51006, Note_on_c, 0, 76, 57
1, 51104, Note_on_c, 0, 73, 68
1, 51112, Note_off_c, 0, 76, 64
1, 51112, Note_on_c, 0, 53, 65
1, 51112, Note_on_c, 0, 57, 38
1, 51193, Note_on_c, 0, 74, 69
1, 51217, Note_off_c, 0, 73, 64
1, 51276, Note_on_c, 0, 76, 64
1, 51307, Note_off_c, 0, 74, 64
1, 51376, Note_on_c, 0, 77, 63
1, 51376, Note_off_c, 0, 76, 64
1, 51457, Note_on_c, 0, 69, 54
1, 51462, Note_off_c, 0, 77, 64
1, 51510, Note_off_c, 0, 57, 64
1, 51516, Note_off_c, 0, 53, 64
1, 51524, Note_off_c, 0, 69, 64
1, 51532, Control_c, 0, 64, 127
1, 51541, Note_on_c, 0, 72, 62
1, 51599, Note_off_c, 0, 72, 64
1, 51604, Control_c, 0, 64, 0
1, 51633, Note_on_c, 0, 65, 37
1, 51633, Note_on_c, 0, 71, 72
1, 51641, Note_on_c, 0, 55, 44
1, 51682, Note_off_c, 0, 65, 64
1, 51697, Note_off_c, 0, 71, 64
1, 51697, Note_off_c, 0, 55, 64
1, 51722, Note_on_c, 0, 74, 63
1, 51797, Note_off_c, 0, 74, 64
1, 51839, Note_on_c, 0, 64, 47
1, 51839, Note_on_c, 0, 72, 56
1, 51844, Note_on_c, 0, 60, 49
1, 51877, Note_off_c, 0, 64, 64
1, 51889, Note_off_c, 0, 60, 64
1, 51916, Control_c, 0, 64, 127
1, 52008, Note_off_c, 0, 72, 64
1, 52039, Note_on_c, 0, 48, 55
1, 52082, Note_off_c, 0, 48, 64
1, 52179, Control_c, 0, 64, 0
1, 52238, Note_on_c, 0, 71, 61
1, 52242, Note_on_c, 0, 53, 63
1, 52302, Note_off_c, 0, 71, 64
1, 52326, Note_on_c, 0, 59, 28
1, 52341, Note_on_c, 0, 77, 47
1, 52382, Note_off_c, 0, 59, 64
1, 52421, Note_off_c, 0, 77, 64
1, 52421, Note_on_c, 0, 55, 36
1, 52426, Note_on_c, 0, 74, 66
1, 52480, Note_off_c, 0, 74, 64
1, 52491, Note_off_c, 0, 55, 64
1, 52504, Note_on_c, 0, 71, 68
1, 52521, Note_on_c, 0, 59, 29
1, 52538, Note_off_c, 0, 53, 64
1, 52547, Note_off_c, 0, 71, 64
1, 52572, Note_off_c, 0, 59, 64
1, 52599, Note_on_c, 0, 81, 79
1, 52604, Note_on_c, 0, 52, 52
1, 52689, Note_on_c, 0, 79, 80
1, 52692, Note_on_c, 0, 60, 23
1, 52697, Note_off_c, 0, 81, 64
1, 52759, Note_off_c, 0, 60, 64
1, 52772, Note_on_c, 0, 55, 46
1, 52777, Note_on_c, 0, 77, 77
1, 52789, Note_off_c, 0, 79, 64
1, 52823, Note_off_c, 0, 55, 64
1, 52841, Note_on_c, 0, 60, 26
1, 52852, Note_off_c, 0, 77, 64
1, 52852, Note_on_c, 0, 76, 67
1, 52886, Note_off_c, 0, 52, 64
1, 52903, Note_off_c, 0, 60, 64
1, 52926, Note_off_c, 0, 76, 64
1, 52942, Note_on_c, 0, 53, 76
1, 52945, Note_on_c, 0, 74, 85
1, 53014, Note_off_c, 0, 74, 64
1, 53029, Note_on_c, 0, 77, 81
1, 53037, Note_on_c, 0, 59, 48
1, 53086, Note_off_c, 0, 59, 64
1, 53123, Note_on_c, 0, 74, 84
1, 53129, Note_off_c, 0, 77, 64
1, 53137, Note_on_c, 0, 55, 39
1, 53190, Note_off_c, 0, 55, 64
1, 53190, Note_on_c, 0, 71, 84
1, 53207, Note_on_c, 0, 59, 51
1, 53218, Note_off_c, 0, 74, 64
1, 53256, Note_off_c, 0, 59, 64
1, 53256, Note_off_c, 0, 71, 64
1, 53291, Note_on_c, 0, 81, 88
1, 53298, Note_off_c, 0, 53, 64
1, 53301, Note_on_c, 0, 52, 62
1, 53363, Note_on_c, 0, 60, 51
1, 53373, Note_on_c, 0, 79, 88
1, 53401, Note_off_c, 0, 81, 64
1, 53424, Note_off_c, 0, 60, 64
1, 53457, Note_on_c, 0, 77, 83
1, 53457, Note_on_c, 0, 55, 47
1, 53466, Note_off_c, 0, 79, 64
1, 53480, Note_off_c, 0, 52, 64
1, 53505, Note_off_c, 0, 55, 64
1, 53527, Note_on_c, 0, 76, 74
1, 53532, Note_on_c, 0, 60, 43
1, 53549, Note_off_c, 0, 77, 64
1, 53566, Note_off_c, 0, 76, 64
1, 53588, Note_off_c, 0, 60, 64
1, 53624, Note_on_c, 0, 86, 103
1, 53641, Note_on_c, 0, 53, 68
1, 53706, Note_on_c, 0, 84, 91
1, 53711, Note_on_c, 0, 62, 55
1, 53752, Note_off_c, 0, 86, 64
1, 53755, Note_off_c, 0, 62, 64
1, 53777, Note_off_c, 0, 53, 64
1, 53794, Note_on_c, 0, 83, 107
1, 53805, Note_on_c, 0, 57, 36
1, 53827, Note_off_c, 0, 84, 64
1, 53861, Note_off_c, 0, 57, 64
1, 53875, Note_on_c, 0, 81, 81
1, 53875, Note_off_c, 0, 83, 64
1, 53886, Note_on_c, 0, 62, 43
1, 53911, Note_off_c, 0, 81, 64
1, 53933, Note_off_c, 0, 62, 64
1, 53967, Note_on_c, 0, 81, 82
1, 53978, Note_on_c, 0, 55, 47
1, 54050, Note_on_c, 0, 64, 50
1, 54062, Note_on_c, 0, 79, 85
1, 54073, Note_off_c, 0, 55, 64
1, 54085, Note_off_c, 0, 81, 64
1, 54092, Note_off_c, 0, 64, 64
1, 54143, Note_off_c, 0, 79, 64
1, 54143, Note_on_c, 0, 77, 72
1, 54146, Note_on_c, 0, 60, 31
1, 54199, Note_off_c, 0, 77, 64
1, 54199, Note_off_c, 0, 60, 64
1, 54220, Note_on_c, 0, 76, 55
1, 54220, Note_on_c, 0, 64, 47
1, 54254, Note_off_c, 0, 76, 64
1, 54262, Note_off_c, 0, 64, 64
1, 54302, Note_on_c, 0, 76, 64
1, 54318, Note_on_c, 0, 55, 47
1, 54369, Note_off_c, 0, 55, 64
1, 54394, Note_on_c, 0, 65, 43
1, 54394, Note_on_c, 0, 74, 64
1, 54410, Note_off_c, 0, 76, 64
1, 54436, Note_off_c, 0, 65, 64
1, 54449, Note_off_c, 0, 74, 64
1, 54472, Note_on_c, 0, 72, 56
1, 54486, Note_on_c, 0, 62, 44
1, 54514, Note_off_c, 0, 72, 64
1, 54529, Note_off_c, 0, 62, 64
1, 54541, Note_on_c, 0, 71, 67
1, 54571, Note_on_c, 0, 65, 40
1, 54588, Note_off_c, 0, 71, 64
1, 54616, Note_off_c, 0, 65, 64
1, 54650, Note_on_c, 0, 74, 62
1, 54660, Note_on_c, 0, 60, 49
1, 54744, Note_on_c, 0, 67, 44
1, 54791, Note_off_c, 0, 67, 64
1, 54809, Note_off_c, 0, 60, 64
1, 54825, Note_on_c, 0, 64, 42
1, 54831, Note_off_c, 0, 74, 64
1, 54842, Note_on_c, 0, 72, 51
1, 54865, Note_off_c, 0, 64, 64
1, 54883, Note_off_c, 0, 72, 64
1, 54897, Note_on_c, 0, 67, 44
1, 54911, Control_c, 0, 64, 127
1, 54945, Note_off_c, 0, 67, 64
1, 54984, Control_c, 0, 64, 0
1, 55042, Note_on_c, 0, 53, 73
1, 55045, Note_on_c, 0, 71, 51
1, 55098, Note_off_c, 0, 71, 64
1, 55121, Note_on_c, 0, 77, 57
1, 55137, Note_on_c, 0, 59, 30
1, 55137, Note_off_c, 0, 53, 64
1, 55179, Note_off_c, 0, 77, 64
1, 55179, Note_off_c, 0, 59, 64
1, 55202, Note_on_c, 0, 55, 48
1, 55209, Note_on_c, 0, 74, 59
1, 55251, Note_off_c, 0, 74, 64
1, 55251, Note_off_c, 0, 55, 64
1, 55287, Note_on_c, 0, 71, 63
1, 55295, Note_on_c, 0, 59, 40
1, 55330, Note_off_c, 0, 71, 64
1, 55343, Note_off_c, 0, 59, 64
1, 55388, Note_on_c, 0, 52, 65
1, 55388, Note_on_c, 0, 81, 75
1, 55438, Note_off_c, 0, 52, 64
1, 55465, Note_on_c, 0, 60, 45
1, 55471, Note_on_c, 0, 79, 69
1, 55483, Note_off_c, 0, 81, 64
1, 55519, Note_off_c, 0, 60, 64
1, 55543, Note_off_c, 0, 79, 64
1, 55558, Note_on_c, 0, 55, 42
1, 55558, Note_on_c, 0, 77, 63
1, 55606, Note_off_c, 0, 55, 64
1, 55614, Note_off_c, 0, 77, 64
1, 55628, Note_on_c, 0, 60, 36
1, 55646, Note_on_c, 0, 76, 51
1, 55678, Note_off_c, 0, 60, 64
1, 55699, Note_off_c, 0, 76, 64
1, 55733, Note_on_c, 0, 53, 69
1, 55745, Note_on_c, 0, 74, 62
1, 55784, Note_off_c, 0, 74, 64
1, 55820, Note_on_c, 0, 59, 45
1, 55820, Note_off_c, 0, 53, 64
1, 55826, Note_on_c, 0, 77, 54
1, 55865, Note_off_c, 0, 59, 64
1, 55886, Note_off_c, 0, 77, 64
1, 55911, Note_on_c, 0, 74, 64
1, 55922, Note_on_c, 0, 55, 29
1, 55950, Note_off_c, 0, 74, 64
1, 55976, Note_off_c, 0, 55, 64
1, 55986, Note_on_c, 0, 71, 63
1, 55995, Note_on_c, 0, 59, 51
1, 56026, Note_off_c, 0, 71, 64
1, 56035, Note_off_c, 0, 59, 64
1, 56082, Note_on_c, 0, 52, 69
1, 56085, Note_on_c, 0, 81, 73
1, 56123, Note_off_c, 0, 52, 64
1, 56156, Note_off_c, 0, 81, 64
1, 56160, Note_on_c, 0, 60, 42
1, 56163, Note_on_c, 0, 79, 76
1, 56212, Note_off_c, 0, 60, 64
1, 56227, Note_off_c, 0, 79, 64
1, 56246, Note_on_c, 0, 55, 45
1, 56246, Note_on_c, 0, 77, 72
1, 56291, Note_off_c, 0, 55, 64
1, 56291, Note_off_c, 0, 77, 64
1, 56319, Note_on_c, 0, 76, 61
1, 56319, Note_on_c, 0, 60, 40
1, 56354, Note_off_c, 0, 76, 64
1, 56374, Note_off_c, 0, 60, 64
1, 56413, Note_on_c, 0, 86, 94
1, 56418, Note_on_c, 0, 53, 87
1, 56482, Control_c, 0, 64, 127
1, 56499, Note_on_c, 0, 84, 87
1, 56502, Note_on_c, 0, 62, 50
1, 56521, Note_off_c, 0, 53, 64
1, 56542, Note_off_c, 0, 86, 64
1, 56547, Note_off_c, 0, 62, 64
1, 56580, Note_on_c, 0, 57, 46
1, 56586, Note_on_c, 0, 83, 102
1, 56614, Control_c, 0, 64, 0
1, 56620, Note_off_c, 0, 84, 64
1, 56631, Note_off_c, 0, 57, 64
1, 56663, Note_off_c, 0, 83, 64
1, 56663, Note_on_c, 0, 81, 79
1, 56677, Note_on_c, 0, 62, 50
1, 56697, Note_off_c, 0, 81, 64
1, 56719, Note_off_c, 0, 62, 64
1, 56748, Note_on_c, 0, 81, 84
1, 56756, Note_on_c, 0, 55, 70
1, 56814, Note_off_c, 0, 55, 64
1, 56839, Note_on_c, 0, 79, 91
1, 56839, Note_on_c, 0, 64, 45
1, 56842, Control_c, 0, 64, 127
1, 56875, Note_off_c, 0, 81, 64
1, 56881, Note_off_c, 0, 64, 64
1, 56914, Control_c, 0, 64, 0
1, 56914, Note_on_c, 0, 60, 48
1, 56925, Note_on_c, 0, 77, 83
1, 56934, Note_off_c, 0, 79, 64
1, 56971, Note_off_c, 0, 60, 64
1, 56993, Note_on_c, 0, 64, 51
1, 57001, Note_on_c, 0, 76, 66
1, 57007, Note_off_c, 0, 77, 64
1, 57032, Note_off_c, 0, 64, 64
1, 57037, Note_off_c, 0, 76, 64
1, 57085, Note_on_c, 0, 76, 73
1, 57085, Note_on_c, 0, 55, 62
1, 57131, Note_off_c, 0, 55, 64
1, 57149, Note_on_c, 0, 65, 57
1, 57174, Note_on_c, 0, 74, 73
1, 57190, Note_off_c, 0, 76, 64
1, 57190, Note_off_c, 0, 65, 64
1, 57229, Note_on_c, 0, 62, 55
1, 57246, Note_on_c, 0, 72, 77
1, 57266, Note_off_c, 0, 74, 64
1, 57273, Note_off_c, 0, 62, 64
1, 57305, Note_on_c, 0, 65, 58
1, 57318, Note_off_c, 0, 72, 64
1, 57322, Note_on_c, 0, 71, 64
1, 57344, Note_off_c, 0, 65, 64
1, 57360, Note_off_c, 0, 71, 64
1, 57405, Note_on_c, 0, 72, 92
1, 57415, Note_on_c, 0, 60, 72
1, 57480, Note_on_c, 0, 64, 55
1, 57491, Note_off_c, 0, 60, 64
1, 57499, Note_on_c, 0, 76, 71
1, 57514, Note_off_c, 0, 72, 64
1, 57525, Note_off_c, 0, 64, 64
1, 57552, Note_off_c, 0, 76, 64
1, 57571, Note_on_c, 0, 67, 76
1, 57574, Note_on_c, 0, 55, 80
1, 57617, Note_off_c, 0, 55, 64
1, 57639, Note_off_c, 0, 67, 64
1, 57663, Note_on_c, 0, 72, 72
1, 57669, Note_on_c, 0, 60, 47
1, 57712, Note_off_c, 0, 72, 64
1, 57719, Note_off_c, 0, 60, 64
1, 57752, Note_on_c, 0, 52, 92
1, 57752, Note_on_c, 0, 64, 84
1, 57814, Note_off_c, 0, 64, 64
1, 57834, Note_off_c, 0, 52, 64
1, 57840, Note_on_c, 0, 67, 66
1, 57847, Note_on_c, 0, 55, 70
1, 57886, Note_off_c, 0, 55, 64
1, 57900, Note_off_c, 0, 67, 64
1, 57931, Note_on_c, 0, 48, 54
1, 57931, Note_on_c, 0, 60, 64
1, 57971, Note_off_c, 0, 60, 64
1, 58001, Note_off_c, 0, 48, 64
1, 58007, Note_on_c, 0, 52, 88
1, 58042, Note_off_c, 0, 52, 64
1, 58113, Note_on_c, 0, 67, 85
1, 58120, Note_on_c, 0, 55, 93
1, 58199, Note_off_c, 0, 67, 64
1, 58216, Note_on_c, 0, 72, 80
1, 58251, Note_off_c, 0, 72, 64
1, 58302, Note_off_c, 0, 55, 64
1, 58307, Note_on_c, 0, 72, 45
1, 58307, Note_on_c, 0, 76, 70
1, 58338, Note_off_c, 0, 76, 64
1, 58351, Note_off_c, 0, 72, 64
1, 58399, Note_on_c, 0, 79, 63
1, 58402, Note_on_c, 0, 76, 70
1, 58439, Note_off_c, 0, 79, 64
1, 58439, Note_off_c, 0, 76, 64
1, 58499, Note_on_c, 0, 79, 100
1, 58499, Note_on_c, 0, 76, 80
1, 58511, Note_on_c, 0, 43, 65
1, 58597, Note_on_c, 0, 74, 85
1, 58602, Note_off_c, 0, 76, 64
1, 58602, Note_on_c, 0, 77, 72
1, 58648, Note_off_c, 0, 79, 64
1, 58655, Note_off_c, 0, 43, 64
1, 58680, Note_off_c, 0, 74, 64
1, 58680, Note_on_c, 0, 72, 65
1, 58684, Note_on_c, 0, 76, 80
1, 58709, Note_off_c, 0, 77, 64
1, 58712, Note_off_c, 0, 76, 64
1, 58717, Note_off_c, 0, 72, 64
1, 58789, Note_on_c, 0, 71, 87
1, 58789, Note_on_c, 0, 74, 78
1, 58820, Note_off_c, 0, 71, 64
1, 58829, Note_off_c, 0, 74, 64
1, 58881, Note_on_c, 0, 72, 85
1, 58893, Note_on_c, 0, 60, 65
1, 58959, Note_on_c, 0, 76, 79
1, 58959, Note_off_c, 0, 72, 64
1, 58973, Note_on_c, 0, 64, 61
1, 58982, Note_off_c, 0, 60, 64
1, 59007, Note_off_c, 0, 64, 64
1, 59021, Note_off_c, 0, 76, 64
1, 59048, Note_on_c, 0, 67, 74
1, 59068, Note_on_c, 0, 55, 69
1, 59092, Note_off_c, 0, 67, 64
1, 59106, Note_off_c, 0, 55, 64
1, 59143, Note_on_c, 0, 60, 58
1, 59143, Note_on_c, 0, 72, 62
1, 59187, Note_off_c, 0, 60, 64
1, 59202, Note_off_c, 0, 72, 64
1, 59226, Note_on_c, 0, 52, 81
1, 59226, Note_on_c, 0, 64, 71
1, 59283, Note_off_c, 0, 52, 64
1, 59296, Note_off_c, 0, 64, 64
1, 59302, Note_on_c, 0, 67, 68
1, 59302, Note_on_c, 0, 55, 77
1, 59341, Note_off_c, 0, 55, 64
1, 59391, Note_off_c, 0, 67, 64
1, 59391, Note_on_c, 0, 48, 56
1, 59391, Note_on_c, 0, 60, 47
1, 59439, Note_off_c, 0, 60, 64
1, 59458, Note_on_c, 0, 64, 71
1, 59458, Note_off_c, 0, 48, 64
1, 59458, Note_on_c, 0, 52, 83
1, 59488, Note_off_c, 0, 64, 64
1, 59499, Note_off_c, 0, 52, 64
1, 59567, Note_on_c, 0, 55, 84
1, 59567, Note_on_c, 0, 67, 74
1, 59633, Note_off_c, 0, 67, 64
1, 59656, Note_on_c, 0, 72, 81
1, 59687, Note_off_c, 0, 72, 64
1, 59739, Note_off_c, 0, 55, 64
1, 59739, Note_on_c, 0, 76, 81
1, 59775, Note_off_c, 0, 76, 64
1, 59839, Note_on_c, 0, 76, 69
1, 59843, Note_on_c, 0, 79, 95
1, 59872, Note_off_c, 0, 76, 64
1, 59872, Note_off_c, 0, 79, 64
1, 59932, Note_on_c, 0, 79, 82
1, 59937, Note_on_c, 0, 76, 58
1, 59943, Note_on_c, 0, 43, 60
1, 60023, Note_off_c, 0, 76, 64
1, 60028, Note_on_c, 0, 74, 84
1, 60031, Note_on_c, 0, 77, 73
1, 60071, Note_off_c, 0, 79, 64
1, 60084, Note_off_c, 0, 43, 64
1, 60099, Note_off_c, 0, 74, 64
1, 60132, Note_off_c, 0, 77, 64
1, 60138, Note_on_c, 0, 72, 67
1, 60138, Note_on_c, 0, 76, 70
1, 60168, Note_off_c, 0, 76, 64
1, 60176, Note_off_c, 0, 72, 64
1, 60227, Note_on_c, 0, 74, 83
1, 60237, Note_on_c, 0, 71, 95
1, 60266, Note_off_c, 0, 71, 64
1, 60269, Note_off_c, 0, 74, 64
1, 60330, Note_on_c, 0, 72, 98
1, 60330, Note_on_c, 0, 48, 83
1, 60338, Note_on_c, 0, 36, 85
1, 60366, Note_off_c, 0, 36, 64
1, 60391, Note_off_c, 0, 48, 64
1, 60471, Note_off_c, 0, 72, 64
1, 60561, Note_on_c, 0, 76, 78
1, 60561, Note_on_c, 0, 52, 93
1, 60564, Note_on_c, 0, 84, 94
1, 60564, Note_on_c, 0, 40, 94
1, 60570, Note_on_c, 0, 79, 78
1, 60591, Note_off_c, 0, 40, 64
1, 60598, Note_off_c, 0, 84, 64
1, 60598, Note_off_c, 0, 76, 64
1, 60598, Note_off_c, 0, 79, 64
1, 60613, Note_off_c, 0, 52, 64
1, 60811, Note_on_c, 0, 72, 89
1, 60815, Note_on_c, 0, 64, 85
1, 60815, Note_on_c, 0, 55, 91
1, 60825, Note_on_c, 0, 43, 75
1, 60854, Note_off_c, 0, 55, 64
1, 60857, Note_off_c, 0, 43, 64
1, 60861, Note_off_c, 0, 64, 64
1, 60889, Note_off_c, 0, 72, 64
1, 61065, Note_on_c, 0, 72, 84
1, 61065, Note_on_c, 0, 52, 91
1, 61068, Note_on_c, 0, 40, 95
1, 61068, Note_on_c, 0, 64, 80
1, 61124, Note_off_c, 0, 64, 64
1, 61135, Note_off_c, 0, 40, 64
1, 61152, Note_off_c, 0, 52, 64
1, 61160, Note_off_c, 0, 72, 64
1, 61453, Note_on_c, 0, 48, 69
1, 61453, Note_on_c, 0, 72, 84
1, 61453, Note_on_c, 0, 36, 80
1, 61460, Note_on_c, 0, 64, 83
1, 62171, Note_off_c, 0, 48, 64
1, 62180, Note_off_c, 0, 64, 64
1, 62202, Note_off_c, 0, 36, 64
1, 62213, Note_off_c, 0, 72, 64
1, 64397, Control_c, 0, 64, 0
1, 65895, End_track
0, 0, End_of_file
