0, 0, Header, 1, 2, 240
1, 0, Start_track
1, 0, Title_t, "Mozart\201@Piano Sonate A dur  K.331 \221æ\202Q\212y\217Í"
1, 0, Text_t, "CVS Ver5.05 Created\012"
1, 0, Text_t, "\203\202\201[\203c\203@\203\213\203g\215ì\213È\012"
1, 0, Text_t, "(1756\201`1791)\012"
1, 0, Text_t, "Piano\201@Sonate  A dur\012"
1, 0, Text_t, "\221æ\202Q\212y\217Í\012"
1, 0, Text_t, "\211\211\221t\201@\217¬\214I\201@\215\216\226¤\012"
1, 0, Text_t, "\201i\203\212\203A\203\213\203^\203C\203\200\230^\211¹\201j\012"
1, 0, Text_t, "<RESET>\012"
1, 0, Text_t, "<Master Volume>\012"
1, 0, System_exclusive, 10, 65, 16, 66, 18, 64, 0, 127, 0, 65, 247
1, 1, System_exclusive, 10, 65, 16, 66, 18, 64, 0, 4, 100, 88, 247
1, 2, System_exclusive, 10, 65, 16, 66, 18, 64, 1, 48, 3, 12, 247
1, 2, System_exclusive, 10, 65, 16, 66, 18, 64, 1, 51, 60, 80, 247
1, 2, System_exclusive, 10, 65, 16, 66, 18, 64, 1, 52, 60, 79, 247
1, 2, Time_signature, 4, 2, 24, 8
1, 2, Key_signature, 3, "major"
1, 2, Tempo, 500000
1, 2, End_track
2, 0, Start_track
2, 0, Title_t, "PIANO"
2, 96, Text_t, "<Master Reverve>"
2, 240, Control_c, 0, 0, 0
2, 240, Control_c, 0, 32, 1
2, 241, Program_c, 0, 0
2, 241, Control_c, 0, 7, 105
2, 241, Control_c, 0, 10, 64
2, 241, Control_c, 0, 91, 90
2, 486, Control_c, 0, 11, 127
2, 678, Control_c, 0, 1, 0
2, 678, Text_t, "<part reverve>"
2, 727, Control_c, 0, 99, 1
2, 728, Control_c, 0, 98, 32
2, 729, Control_c, 0, 6, 62
2, 730, Control_c, 0, 38, 0
2, 733, Control_c, 0, 99, 1
2, 734, Control_c, 0, 98, 33
2, 735, Control_c, 0, 6, 54
2, 736, Control_c, 0, 38, 0
2, 739, Control_c, 0, 99, 1
2, 740, Control_c, 0, 98, 99
2, 741, Control_c, 0, 6, 62
2, 742, Control_c, 0, 38, 0
2, 745, Control_c, 0, 99, 1
2, 746, Control_c, 0, 98, 100
2, 747, Control_c, 0, 6, 60
2, 748, Control_c, 0, 38, 0
2, 751, Control_c, 0, 99, 1
2, 752, Control_c, 0, 98, 102
2, 753, Control_c, 0, 6, 70
2, 754, Control_c, 0, 38, 0
2, 1633, Control_c, 0, 67, 0
2, 2189, Note_on_c, 0, 61, 88
2, 2215, Control_c, 0, 64, 127
2, 2218, Note_on_c, 0, 64, 97
2, 2227, Note_on_c, 0, 57, 116
2, 2229, Note_on_c, 0, 45, 104
2, 2229, Note_on_c, 0, 69, 106
2, 2240, Note_on_c, 0, 61, 0
2, 2271, Note_on_c, 0, 64, 0
2, 2419, Note_on_c, 0, 69, 0
2, 2423, Note_on_c, 0, 57, 0
2, 2467, Note_on_c, 0, 45, 0
2, 2637, Note_on_c, 0, 64, 109
2, 2641, Note_on_c, 0, 52, 103
2, 2646, Note_on_c, 0, 40, 103
2, 2649, Control_c, 0, 64, 63
2, 2652, Control_c, 0, 64, 0
2, 2706, Control_c, 0, 64, 63
2, 2711, Control_c, 0, 64, 127
2, 2722, Note_on_c, 0, 40, 0
2, 2745, Note_on_c, 0, 64, 0
2, 2746, Note_on_c, 0, 52, 0
2, 2859, Note_on_c, 0, 73, 121
2, 2860, Note_on_c, 0, 61, 109
2, 2866, Note_on_c, 0, 49, 100
2, 2875, Control_c, 0, 64, 63
2, 2884, Control_c, 0, 64, 0
2, 2918, Control_c, 0, 64, 63
2, 2927, Control_c, 0, 64, 127
2, 2942, Note_on_c, 0, 61, 0
2, 2947, Note_on_c, 0, 49, 0
2, 2981, Note_on_c, 0, 73, 0
2, 2988, Note_on_c, 0, 74, 98
2, 3033, Note_on_c, 0, 71, 94
2, 3044, Note_on_c, 0, 74, 0
2, 3080, Note_on_c, 0, 69, 86
2, 3081, Note_on_c, 0, 57, 89
2, 3082, Control_c, 0, 64, 63
2, 3088, Note_on_c, 0, 45, 80
2, 3089, Note_on_c, 0, 71, 0
2, 3091, Control_c, 0, 64, 0
2, 3185, Control_c, 0, 64, 63
2, 3193, Control_c, 0, 64, 127
2, 3300, Control_c, 0, 64, 63
2, 3302, Note_on_c, 0, 69, 0
2, 3307, Control_c, 0, 64, 0
2, 3313, Note_on_c, 0, 45, 0
2, 3322, Note_on_c, 0, 57, 0
2, 3517, Control_c, 0, 64, 63
2, 3518, Note_on_c, 0, 76, 83
2, 3528, Control_c, 0, 64, 127
2, 3640, Note_on_c, 0, 78, 86
2, 3659, Note_on_c, 0, 76, 0
2, 3666, Control_c, 0, 64, 63
2, 3685, Note_on_c, 0, 74, 71
2, 3686, Control_c, 0, 64, 0
2, 3690, Note_on_c, 0, 78, 0
2, 3737, Note_on_c, 0, 74, 0
2, 3738, Note_on_c, 0, 73, 98
2, 3945, Note_on_c, 0, 85, 83
2, 3948, Note_on_c, 0, 57, 42
2, 3948, Control_c, 0, 64, 63
2, 3949, Note_on_c, 0, 66, 66
2, 3966, Note_on_c, 0, 73, 0
2, 3969, Control_c, 0, 64, 0
2, 3989, Note_on_c, 0, 85, 0
2, 4000, Note_on_c, 0, 57, 0
2, 4009, Note_on_c, 0, 66, 0
2, 4167, Note_on_c, 0, 59, 54
2, 4168, Note_on_c, 0, 69, 50
2, 4170, Note_on_c, 0, 75, 84
2, 4173, Control_c, 0, 64, 63
2, 4216, Control_c, 0, 64, 127
2, 4280, Note_on_c, 0, 59, 0
2, 4388, Control_c, 0, 64, 63
2, 4395, Note_on_c, 0, 76, 66
2, 4395, Note_on_c, 0, 68, 60
2, 4398, Note_on_c, 0, 75, 0
2, 4406, Note_on_c, 0, 64, 50
2, 4419, Control_c, 0, 64, 0
2, 4429, Note_on_c, 0, 69, 0
2, 4653, Control_c, 0, 64, 63
2, 4668, Control_c, 0, 64, 127
2, 4737, Note_on_c, 0, 77, 75
2, 4751, Note_on_c, 0, 76, 0
2, 4798, Control_c, 0, 64, 63
2, 4843, Note_on_c, 0, 80, 80
2, 4847, Note_on_c, 0, 68, 0
2, 4853, Note_on_c, 0, 64, 0
2, 4872, Note_on_c, 0, 77, 0
2, 4880, Control_c, 0, 64, 0
2, 4954, Note_on_c, 0, 78, 80
2, 4980, Note_on_c, 0, 80, 0
2, 5062, Note_on_c, 0, 76, 71
2, 5080, Note_on_c, 0, 78, 0
2, 5097, Control_c, 0, 64, 63
2, 5164, Note_on_c, 0, 76, 0
2, 5165, Note_on_c, 0, 74, 55
2, 5194, Control_c, 0, 64, 127
2, 5263, Note_on_c, 0, 73, 76
2, 5268, Note_on_c, 0, 74, 0
2, 5364, Note_on_c, 0, 71, 68
2, 5366, Control_c, 0, 64, 63
2, 5372, Note_on_c, 0, 73, 0
2, 5411, Control_c, 0, 64, 0
2, 5475, Note_on_c, 0, 69, 59
2, 5476, Note_on_c, 0, 71, 0
2, 5481, Note_on_c, 0, 52, 44
2, 5492, Control_c, 0, 64, 63
2, 5525, Control_c, 0, 64, 127
2, 5578, Note_on_c, 0, 68, 83
2, 5588, Note_on_c, 0, 69, 0
2, 5592, Note_on_c, 0, 62, 41
2, 5649, Control_c, 0, 64, 63
2, 5686, Note_on_c, 0, 68, 0
2, 5693, Note_on_c, 0, 76, 79
2, 5701, Note_on_c, 0, 59, 41
2, 5702, Note_on_c, 0, 62, 0
2, 5722, Control_c, 0, 64, 0
2, 5781, Note_on_c, 0, 52, 0
2, 5789, Control_c, 0, 64, 63
2, 5799, Note_on_c, 0, 74, 63
2, 5801, Note_on_c, 0, 62, 35
2, 5803, Note_on_c, 0, 59, 0
2, 5814, Note_on_c, 0, 76, 0
2, 5838, Control_c, 0, 64, 127
2, 5910, Control_c, 0, 64, 63
2, 5916, Note_on_c, 0, 62, 0
2, 5916, Note_on_c, 0, 59, 46
2, 5941, Note_on_c, 0, 74, 0
2, 5951, Control_c, 0, 64, 0
2, 6014, Note_on_c, 0, 62, 53
2, 6015, Note_on_c, 0, 59, 0
2, 6086, Control_c, 0, 64, 63
2, 6109, Control_c, 0, 64, 127
2, 6117, Note_on_c, 0, 71, 80
2, 6120, Note_on_c, 0, 52, 59
2, 6143, Note_on_c, 0, 62, 0
2, 6171, Control_c, 0, 64, 63
2, 6219, Note_on_c, 0, 61, 83
2, 6226, Note_on_c, 0, 69, 79
2, 6230, Note_on_c, 0, 71, 0
2, 6279, Control_c, 0, 64, 127
2, 6327, Note_on_c, 0, 78, 91
2, 6330, Note_on_c, 0, 61, 0
2, 6331, Note_on_c, 0, 57, 47
2, 6339, Note_on_c, 0, 52, 0
2, 6346, Note_on_c, 0, 69, 0
2, 6353, Control_c, 0, 64, 63
2, 6392, Control_c, 0, 64, 0
2, 6427, Note_on_c, 0, 61, 52
2, 6430, Note_on_c, 0, 78, 0
2, 6432, Note_on_c, 0, 76, 69
2, 6447, Note_on_c, 0, 57, 0
2, 6524, Note_on_c, 0, 61, 0
2, 6532, Note_on_c, 0, 57, 50
2, 6584, Note_on_c, 0, 76, 0
2, 6623, Note_on_c, 0, 61, 72
2, 6642, Note_on_c, 0, 57, 0
2, 6717, Note_on_c, 0, 61, 0
2, 6734, Note_on_c, 0, 50, 77
2, 6735, Note_on_c, 0, 73, 97
2, 6788, Control_c, 0, 64, 63
2, 6798, Control_c, 0, 64, 127
2, 6836, Note_on_c, 0, 59, 76
2, 6838, Note_on_c, 0, 71, 99
2, 6872, Note_on_c, 0, 73, 0
2, 6948, Note_on_c, 0, 79, 94
2, 6952, Note_on_c, 0, 54, 76
2, 6965, Note_on_c, 0, 71, 0
2, 6969, Note_on_c, 0, 59, 0
2, 7003, Control_c, 0, 64, 63
2, 7012, Control_c, 0, 64, 0
2, 7046, Note_on_c, 0, 78, 91
2, 7050, Note_on_c, 0, 59, 57
2, 7067, Note_on_c, 0, 54, 0
2, 7074, Note_on_c, 0, 79, 0
2, 7082, Control_c, 0, 64, 63
2, 7091, Control_c, 0, 64, 127
2, 7156, Note_on_c, 0, 54, 72
2, 7161, Note_on_c, 0, 78, 0
2, 7170, Note_on_c, 0, 59, 0
2, 7182, Note_on_c, 0, 50, 0
2, 7209, Control_c, 0, 64, 63
2, 7215, Control_c, 0, 64, 0
2, 7260, Note_on_c, 0, 59, 65
2, 7265, Note_on_c, 0, 54, 0
2, 7364, Note_on_c, 0, 59, 0
2, 7384, Note_on_c, 0, 50, 70
2, 7387, Control_c, 0, 64, 63
2, 7388, Control_c, 0, 64, 127
2, 7388, Note_on_c, 0, 66, 98
2, 7417, Note_on_c, 0, 50, 0
2, 7432, Note_on_c, 0, 66, 0
2, 7595, Note_on_c, 0, 76, 89
2, 7700, Note_on_c, 0, 74, 97
2, 7730, Note_on_c, 0, 76, 0
2, 7733, Control_c, 0, 64, 63
2, 7741, Control_c, 0, 64, 0
2, 7808, Note_on_c, 0, 73, 105
2, 7847, Note_on_c, 0, 74, 0
2, 7901, Note_on_c, 0, 71, 94
2, 7935, Note_on_c, 0, 73, 0
2, 8015, Note_on_c, 0, 62, 76
2, 8017, Note_on_c, 0, 52, 72
2, 8018, Note_on_c, 0, 69, 73
2, 8023, Note_on_c, 0, 71, 0
2, 8025, Control_c, 0, 64, 63
2, 8029, Control_c, 0, 64, 127
2, 8075, Note_on_c, 0, 52, 0
2, 8119, Note_on_c, 0, 68, 88
2, 8137, Note_on_c, 0, 69, 0
2, 8142, Control_c, 0, 64, 63
2, 8149, Control_c, 0, 64, 0
2, 8230, Note_on_c, 0, 62, 0
2, 8234, Note_on_c, 0, 68, 0
2, 8235, Note_on_c, 0, 57, 42
2, 8238, Note_on_c, 0, 61, 60
2, 8238, Note_on_c, 0, 69, 65
2, 8272, Control_c, 0, 64, 63
2, 8274, Control_c, 0, 64, 127
2, 8414, Note_on_c, 0, 69, 0
2, 8437, Note_on_c, 0, 61, 0
2, 8448, Control_c, 0, 64, 63
2, 8450, Control_c, 0, 64, 0
2, 8458, Note_on_c, 0, 57, 0
2, 8602, Note_on_c, 0, 71, 78
2, 8628, Note_on_c, 0, 76, 82
2, 8638, Control_c, 0, 64, 127
2, 8644, Note_on_c, 0, 80, 112
2, 8649, Note_on_c, 0, 71, 0
2, 8662, Note_on_c, 0, 83, 111
2, 8669, Note_on_c, 0, 76, 0
2, 8673, Note_on_c, 0, 52, 103
2, 8688, Note_on_c, 0, 80, 0
2, 8784, Note_on_c, 0, 56, 94
2, 8877, Note_on_c, 0, 59, 100
2, 8894, Note_on_c, 0, 83, 0
2, 8898, Note_on_c, 0, 56, 0
2, 8978, Note_on_c, 0, 56, 106
2, 8992, Note_on_c, 0, 52, 0
2, 9010, Note_on_c, 0, 59, 0
2, 9079, Note_on_c, 0, 54, 107
2, 9107, Note_on_c, 0, 56, 0
2, 9167, Note_on_c, 0, 52, 101
2, 9180, Note_on_c, 0, 54, 0
2, 9272, Control_c, 0, 64, 63
2, 9279, Note_on_c, 0, 83, 106
2, 9283, Control_c, 0, 64, 0
2, 9287, Note_on_c, 0, 51, 75
2, 9302, Note_on_c, 0, 52, 0
2, 9327, Note_on_c, 0, 81, 91
2, 9334, Control_c, 0, 64, 63
2, 9345, Control_c, 0, 64, 127
2, 9357, Note_on_c, 0, 83, 0
2, 9381, Note_on_c, 0, 80, 86
2, 9389, Note_on_c, 0, 52, 81
2, 9396, Note_on_c, 0, 81, 0
2, 9412, Note_on_c, 0, 51, 0
2, 9434, Note_on_c, 0, 78, 63
2, 9435, Note_on_c, 0, 80, 0
2, 9454, Note_on_c, 0, 78, 0
2, 9476, Control_c, 0, 64, 63
2, 9479, Note_on_c, 0, 54, 89
2, 9483, Note_on_c, 0, 52, 0
2, 9486, Note_on_c, 0, 78, 88
2, 9488, Control_c, 0, 64, 0
2, 9524, Control_c, 0, 64, 63
2, 9530, Note_on_c, 0, 78, 0
2, 9535, Note_on_c, 0, 76, 91
2, 9537, Control_c, 0, 64, 127
2, 9553, Note_on_c, 0, 54, 0
2, 9569, Note_on_c, 0, 47, 70
2, 9577, Note_on_c, 0, 76, 0
2, 9581, Note_on_c, 0, 75, 100
2, 9627, Note_on_c, 0, 73, 103
2, 9634, Note_on_c, 0, 75, 0
2, 9662, Control_c, 0, 64, 63
2, 9665, Note_on_c, 0, 49, 87
2, 9672, Note_on_c, 0, 71, 71
2, 9673, Note_on_c, 0, 73, 0
2, 9676, Control_c, 0, 64, 0
2, 9689, Note_on_c, 0, 47, 0
2, 9716, Note_on_c, 0, 71, 0
2, 9718, Note_on_c, 0, 69, 93
2, 9738, Control_c, 0, 64, 63
2, 9751, Control_c, 0, 64, 127
2, 9764, Note_on_c, 0, 51, 83
2, 9770, Note_on_c, 0, 68, 98
2, 9771, Note_on_c, 0, 69, 0
2, 9803, Note_on_c, 0, 49, 0
2, 9816, Note_on_c, 0, 68, 0
2, 9816, Note_on_c, 0, 69, 84
2, 9817, Control_c, 0, 64, 63
2, 9839, Control_c, 0, 64, 0
2, 9867, Note_on_c, 0, 68, 107
2, 9868, Note_on_c, 0, 69, 0
2, 9872, Note_on_c, 0, 52, 91
2, 9881, Note_on_c, 0, 51, 0
2, 9895, Note_on_c, 0, 68, 0
2, 9916, Note_on_c, 0, 71, 86
2, 9963, Note_on_c, 0, 76, 103
2, 9965, Note_on_c, 0, 71, 0
2, 9967, Note_on_c, 0, 56, 98
2, 9980, Note_on_c, 0, 52, 0
2, 10014, Note_on_c, 0, 76, 0
2, 10015, Note_on_c, 0, 80, 106
2, 10059, Note_on_c, 0, 80, 0
2, 10066, Note_on_c, 0, 59, 92
2, 10074, Note_on_c, 0, 56, 0
2, 10076, Note_on_c, 0, 83, 114
2, 10080, Control_c, 0, 64, 63
2, 10081, Control_c, 0, 64, 127
2, 10158, Note_on_c, 0, 83, 0
2, 10178, Note_on_c, 0, 56, 82
2, 10283, Note_on_c, 0, 54, 99
2, 10300, Note_on_c, 0, 59, 0
2, 10309, Note_on_c, 0, 56, 0
2, 10373, Note_on_c, 0, 52, 92
2, 10388, Note_on_c, 0, 54, 0
2, 10482, Note_on_c, 0, 83, 107
2, 10486, Note_on_c, 0, 51, 91
2, 10487, Control_c, 0, 64, 63
2, 10493, Control_c, 0, 64, 0
2, 10510, Note_on_c, 0, 52, 0
2, 10528, Note_on_c, 0, 81, 93
2, 10539, Control_c, 0, 64, 63
2, 10546, Control_c, 0, 64, 127
2, 10554, Note_on_c, 0, 83, 0
2, 10574, Note_on_c, 0, 80, 88
2, 10584, Note_on_c, 0, 52, 72
2, 10591, Note_on_c, 0, 81, 0
2, 10602, Note_on_c, 0, 51, 0
2, 10623, Note_on_c, 0, 78, 81
2, 10629, Note_on_c, 0, 80, 0
2, 10644, Note_on_c, 0, 78, 0
2, 10673, Note_on_c, 0, 54, 87
2, 10679, Note_on_c, 0, 52, 0
2, 10680, Control_c, 0, 64, 63
2, 10680, Note_on_c, 0, 78, 92
2, 10687, Control_c, 0, 64, 0
2, 10721, Note_on_c, 0, 78, 0
2, 10726, Note_on_c, 0, 76, 84
2, 10754, Control_c, 0, 64, 63
2, 10757, Control_c, 0, 64, 127
2, 10768, Note_on_c, 0, 47, 68
2, 10771, Note_on_c, 0, 76, 0
2, 10772, Note_on_c, 0, 54, 0
2, 10772, Note_on_c, 0, 75, 99
2, 10825, Note_on_c, 0, 73, 104
2, 10827, Note_on_c, 0, 75, 0
2, 10859, Note_on_c, 0, 49, 81
2, 10863, Note_on_c, 0, 71, 71
2, 10866, Note_on_c, 0, 73, 0
2, 10877, Control_c, 0, 64, 63
2, 10884, Control_c, 0, 64, 0
2, 10887, Note_on_c, 0, 47, 0
2, 10910, Note_on_c, 0, 71, 0
2, 10912, Note_on_c, 0, 69, 92
2, 10947, Note_on_c, 0, 51, 86
2, 10956, Note_on_c, 0, 69, 0
2, 10962, Note_on_c, 0, 68, 100
2, 10989, Note_on_c, 0, 49, 0
2, 11001, Note_on_c, 0, 69, 84
2, 11006, Note_on_c, 0, 68, 0
2, 11054, Note_on_c, 0, 68, 101
2, 11054, Note_on_c, 0, 52, 69
2, 11059, Note_on_c, 0, 69, 0
2, 11061, Note_on_c, 0, 51, 0
2, 11104, Note_on_c, 0, 71, 97
2, 11108, Note_on_c, 0, 68, 0
2, 11156, Note_on_c, 0, 69, 82
2, 11161, Note_on_c, 0, 71, 0
2, 11194, Note_on_c, 0, 68, 100
2, 11210, Note_on_c, 0, 69, 0
2, 11244, Note_on_c, 0, 68, 0
2, 11247, Note_on_c, 0, 69, 80
2, 11297, Note_on_c, 0, 71, 100
2, 11305, Note_on_c, 0, 69, 0
2, 11345, Note_on_c, 0, 73, 104
2, 11352, Note_on_c, 0, 52, 0
2, 11356, Note_on_c, 0, 71, 0
2, 11391, Note_on_c, 0, 75, 101
2, 11405, Note_on_c, 0, 73, 0
2, 11434, Note_on_c, 0, 75, 0
2, 11440, Note_on_c, 0, 76, 91
2, 11487, Note_on_c, 0, 78, 108
2, 11492, Note_on_c, 0, 76, 0
2, 11527, Note_on_c, 0, 80, 107
2, 11546, Note_on_c, 0, 78, 0
2, 11575, Note_on_c, 0, 81, 101
2, 11580, Note_on_c, 0, 80, 0
2, 11626, Note_on_c, 0, 83, 102
2, 11631, Note_on_c, 0, 81, 0
2, 11671, Note_on_c, 0, 85, 109
2, 11694, Note_on_c, 0, 83, 0
2, 11729, Note_on_c, 0, 87, 94
2, 11746, Note_on_c, 0, 85, 0
2, 11771, Note_on_c, 0, 88, 98
2, 11781, Note_on_c, 0, 87, 0
2, 11814, Note_on_c, 0, 87, 87
2, 11839, Note_on_c, 0, 88, 0
2, 11860, Note_on_c, 0, 85, 95
2, 11877, Note_on_c, 0, 87, 0
2, 11911, Note_on_c, 0, 83, 92
2, 11933, Note_on_c, 0, 85, 0
2, 11957, Note_on_c, 0, 83, 0
2, 11962, Note_on_c, 0, 81, 81
2, 12006, Note_on_c, 0, 81, 0
2, 12012, Note_on_c, 0, 80, 94
2, 12063, Note_on_c, 0, 78, 90
2, 12064, Note_on_c, 0, 80, 0
2, 12102, Note_on_c, 0, 78, 0
2, 12105, Note_on_c, 0, 76, 65
2, 12137, Note_on_c, 0, 76, 0
2, 12153, Note_on_c, 0, 75, 94
2, 12191, Note_on_c, 0, 75, 0
2, 12220, Note_on_c, 0, 73, 100
2, 12224, Note_on_c, 0, 66, 70
2, 12228, Note_on_c, 0, 57, 47
2, 12251, Control_c, 0, 64, 63
2, 12251, Control_c, 0, 64, 127
2, 12273, Note_on_c, 0, 73, 0
2, 12285, Note_on_c, 0, 66, 0
2, 12289, Note_on_c, 0, 57, 0
2, 12382, Control_c, 0, 64, 63
2, 12384, Control_c, 0, 64, 0
2, 12389, Note_on_c, 0, 85, 88
2, 12429, Note_on_c, 0, 76, 79
2, 12435, Note_on_c, 0, 85, 0
2, 12440, Note_on_c, 0, 68, 53
2, 12445, Note_on_c, 0, 59, 51
2, 12450, Control_c, 0, 64, 63
2, 12452, Control_c, 0, 64, 127
2, 12544, Note_on_c, 0, 76, 0
2, 12586, Note_on_c, 0, 68, 0
2, 12662, Note_on_c, 0, 80, 90
2, 12671, Note_on_c, 0, 75, 85
2, 12672, Note_on_c, 0, 69, 47
2, 12685, Note_on_c, 0, 78, 84
2, 12698, Control_c, 0, 64, 63
2, 12704, Control_c, 0, 64, 0
2, 12713, Note_on_c, 0, 80, 0
2, 12751, Control_c, 0, 64, 63
2, 12757, Control_c, 0, 64, 127
2, 12779, Note_on_c, 0, 59, 0
2, 12865, Note_on_c, 0, 75, 0
2, 12890, Note_on_c, 0, 78, 0
2, 12899, Note_on_c, 0, 68, 58
2, 12900, Note_on_c, 0, 76, 82
2, 12917, Note_on_c, 0, 69, 0
2, 12918, Note_on_c, 0, 64, 39
2, 12928, Control_c, 0, 64, 63
2, 12933, Control_c, 0, 64, 0
2, 13004, Control_c, 0, 64, 63
2, 13008, Control_c, 0, 64, 127
2, 13019, Note_on_c, 0, 68, 0
2, 13049, Note_on_c, 0, 64, 0
2, 13155, Note_on_c, 0, 52, 68
2, 13193, Note_on_c, 0, 52, 0
2, 13424, Control_c, 0, 64, 63
2, 13425, Note_on_c, 0, 76, 0
2, 13432, Control_c, 0, 64, 0
2, 13650, Control_c, 0, 64, 63
2, 13654, Control_c, 0, 64, 127
2, 13665, Note_on_c, 0, 64, 91
2, 13707, Note_on_c, 0, 76, 104
2, 13852, Note_on_c, 0, 76, 0
2, 13914, Note_on_c, 0, 66, 116
2, 13937, Note_on_c, 0, 64, 0
2, 13950, Note_on_c, 0, 78, 114
2, 13983, Control_c, 0, 64, 63
2, 13994, Control_c, 0, 64, 0
2, 14040, Control_c, 0, 64, 63
2, 14045, Control_c, 0, 64, 127
2, 14145, Note_on_c, 0, 78, 0
2, 14151, Note_on_c, 0, 67, 93
2, 14181, Note_on_c, 0, 66, 0
2, 14182, Note_on_c, 0, 79, 101
2, 14221, Control_c, 0, 64, 63
2, 14227, Control_c, 0, 64, 0
2, 14279, Control_c, 0, 64, 63
2, 14285, Control_c, 0, 64, 127
2, 14331, Note_on_c, 0, 79, 0
2, 14331, Note_on_c, 0, 67, 0
2, 14461, Note_on_c, 0, 54, 58
2, 14497, Note_on_c, 0, 71, 80
2, 14545, Control_c, 0, 64, 63
2, 14552, Control_c, 0, 64, 0
2, 14606, Control_c, 0, 64, 63
2, 14614, Control_c, 0, 64, 127
2, 14622, Note_on_c, 0, 61, 64
2, 14674, Note_on_c, 0, 54, 0
2, 14712, Note_on_c, 0, 61, 0
2, 14718, Note_on_c, 0, 66, 60
2, 14726, Note_on_c, 0, 70, 81
2, 14734, Note_on_c, 0, 71, 0
2, 14796, Note_on_c, 0, 66, 0
2, 14830, Note_on_c, 0, 64, 55
2, 14940, Note_on_c, 0, 64, 0
2, 14950, Note_on_c, 0, 62, 50
2, 14961, Note_on_c, 0, 70, 0
2, 15017, Control_c, 0, 64, 63
2, 15050, Note_on_c, 0, 61, 70
2, 15051, Control_c, 0, 64, 127
2, 15058, Note_on_c, 0, 62, 0
2, 15093, Note_on_c, 0, 70, 84
2, 15094, Note_on_c, 0, 61, 0
2, 15135, Note_on_c, 0, 73, 90
2, 15153, Note_on_c, 0, 70, 0
2, 15162, Note_on_c, 0, 54, 54
2, 15167, Control_c, 0, 64, 63
2, 15172, Control_c, 0, 64, 0
2, 15229, Control_c, 0, 64, 63
2, 15233, Control_c, 0, 64, 127
2, 15276, Note_on_c, 0, 62, 54
2, 15373, Note_on_c, 0, 71, 76
2, 15379, Note_on_c, 0, 66, 63
2, 15386, Note_on_c, 0, 73, 0
2, 15397, Note_on_c, 0, 62, 0
2, 15464, Note_on_c, 0, 54, 0
2, 15488, Note_on_c, 0, 66, 0
2, 15497, Note_on_c, 0, 62, 42
2, 15592, Note_on_c, 0, 71, 0
2, 15593, Note_on_c, 0, 62, 0
2, 15593, Note_on_c, 0, 61, 81
2, 15686, Control_c, 0, 64, 63
2, 15690, Note_on_c, 0, 59, 77
2, 15692, Note_on_c, 0, 61, 0
2, 15692, Control_c, 0, 64, 0
2, 15730, Control_c, 0, 64, 63
2, 15738, Control_c, 0, 64, 127
2, 15741, Note_on_c, 0, 71, 88
2, 15794, Note_on_c, 0, 74, 99
2, 15801, Note_on_c, 0, 54, 55
2, 15802, Note_on_c, 0, 71, 0
2, 15820, Note_on_c, 0, 59, 0
2, 15864, Control_c, 0, 64, 63
2, 15878, Control_c, 0, 64, 0
2, 15908, Note_on_c, 0, 58, 82
2, 15917, Control_c, 0, 64, 63
2, 15927, Control_c, 0, 64, 127
2, 16010, Note_on_c, 0, 73, 98
2, 16025, Note_on_c, 0, 64, 35
2, 16042, Note_on_c, 0, 58, 0
2, 16046, Note_on_c, 0, 74, 0
2, 16058, Control_c, 0, 64, 63
2, 16072, Control_c, 0, 64, 0
2, 16117, Note_on_c, 0, 61, 75
2, 16121, Control_c, 0, 64, 63
2, 16130, Control_c, 0, 64, 127
2, 16200, Note_on_c, 0, 54, 0
2, 16209, Note_on_c, 0, 73, 0
2, 16229, Note_on_c, 0, 64, 0
2, 16232, Note_on_c, 0, 59, 60
2, 16256, Note_on_c, 0, 61, 0
2, 16320, Control_c, 0, 64, 63
2, 16329, Control_c, 0, 64, 0
2, 16337, Note_on_c, 0, 58, 80
2, 16375, Note_on_c, 0, 73, 90
2, 16377, Note_on_c, 0, 59, 0
2, 16440, Note_on_c, 0, 76, 91
2, 16449, Note_on_c, 0, 59, 81
2, 16463, Note_on_c, 0, 73, 0
2, 16497, Note_on_c, 0, 58, 0
2, 16553, Note_on_c, 0, 74, 84
2, 16578, Note_on_c, 0, 76, 0
2, 16659, Note_on_c, 0, 74, 0
2, 16661, Note_on_c, 0, 77, 101
2, 16761, Note_on_c, 0, 76, 100
2, 16806, Note_on_c, 0, 77, 0
2, 16826, Note_on_c, 0, 59, 0
2, 16877, Note_on_c, 0, 79, 83
2, 16897, Note_on_c, 0, 76, 0
2, 16981, Note_on_c, 0, 77, 68
2, 16995, Note_on_c, 0, 79, 0
2, 17109, Note_on_c, 0, 77, 0
2, 17114, Note_on_c, 0, 69, 67
2, 17115, Note_on_c, 0, 52, 36
2, 17195, Control_c, 0, 64, 63
2, 17200, Control_c, 0, 64, 127
2, 17221, Note_on_c, 0, 59, 60
2, 17300, Note_on_c, 0, 52, 0
2, 17334, Note_on_c, 0, 59, 0
2, 17338, Note_on_c, 0, 68, 76
2, 17343, Note_on_c, 0, 64, 31
2, 17352, Note_on_c, 0, 69, 0
2, 17442, Note_on_c, 0, 62, 54
2, 17450, Note_on_c, 0, 64, 0
2, 17518, Control_c, 0, 64, 63
2, 17550, Control_c, 0, 64, 127
2, 17555, Note_on_c, 0, 68, 0
2, 17560, Note_on_c, 0, 60, 61
2, 17565, Note_on_c, 0, 62, 0
2, 17659, Note_on_c, 0, 59, 59
2, 17682, Note_on_c, 0, 60, 0
2, 17705, Note_on_c, 0, 68, 78
2, 17710, Note_on_c, 0, 59, 0
2, 17767, Note_on_c, 0, 71, 76
2, 17787, Note_on_c, 0, 68, 0
2, 17798, Note_on_c, 0, 52, 15
2, 17823, Control_c, 0, 64, 63
2, 17838, Control_c, 0, 64, 0
2, 17894, Note_on_c, 0, 60, 50
2, 17894, Control_c, 0, 64, 63
2, 17911, Control_c, 0, 64, 127
2, 17993, Note_on_c, 0, 52, 0
2, 17998, Note_on_c, 0, 69, 68
2, 18002, Note_on_c, 0, 71, 0
2, 18008, Note_on_c, 0, 64, 31
2, 18021, Note_on_c, 0, 60, 0
2, 18101, Note_on_c, 0, 64, 0
2, 18108, Note_on_c, 0, 60, 48
2, 18152, Note_on_c, 0, 69, 0
2, 18208, Note_on_c, 0, 60, 0
2, 18210, Note_on_c, 0, 59, 53
2, 18234, Control_c, 0, 64, 63
2, 18251, Control_c, 0, 64, 0
2, 18278, Control_c, 0, 64, 63
2, 18298, Control_c, 0, 64, 127
2, 18311, Note_on_c, 0, 57, 60
2, 18323, Note_on_c, 0, 59, 0
2, 18366, Note_on_c, 0, 69, 83
2, 18427, Note_on_c, 0, 52, 52
2, 18431, Note_on_c, 0, 72, 82
2, 18434, Note_on_c, 0, 57, 0
2, 18438, Control_c, 0, 64, 63
2, 18448, Note_on_c, 0, 69, 0
2, 18454, Control_c, 0, 64, 0
2, 18508, Control_c, 0, 64, 63
2, 18520, Control_c, 0, 64, 127
2, 18542, Note_on_c, 0, 56, 67
2, 18653, Note_on_c, 0, 71, 82
2, 18655, Note_on_c, 0, 62, 50
2, 18668, Control_c, 0, 64, 63
2, 18686, Control_c, 0, 64, 0
2, 18688, Note_on_c, 0, 56, 0
2, 18698, Note_on_c, 0, 72, 0
2, 18751, Control_c, 0, 64, 63
2, 18755, Note_on_c, 0, 59, 68
2, 18764, Control_c, 0, 64, 127
2, 18813, Note_on_c, 0, 62, 0
2, 18839, Note_on_c, 0, 52, 0
2, 18849, Note_on_c, 0, 71, 0
2, 18868, Note_on_c, 0, 57, 68
2, 18901, Note_on_c, 0, 59, 0
2, 18977, Note_on_c, 0, 56, 96
2, 19015, Note_on_c, 0, 57, 0
2, 19042, Note_on_c, 0, 71, 88
2, 19095, Note_on_c, 0, 57, 69
2, 19099, Note_on_c, 0, 56, 0
2, 19100, Note_on_c, 0, 74, 99
2, 19118, Note_on_c, 0, 71, 0
2, 19129, Control_c, 0, 64, 63
2, 19136, Control_c, 0, 64, 0
2, 19220, Note_on_c, 0, 72, 102
2, 19239, Control_c, 0, 64, 63
2, 19240, Control_c, 0, 64, 127
2, 19255, Note_on_c, 0, 74, 0
2, 19326, Note_on_c, 0, 71, 108
2, 19358, Note_on_c, 0, 72, 0
2, 19402, Note_on_c, 0, 57, 0
2, 19425, Note_on_c, 0, 69, 107
2, 19430, Note_on_c, 0, 71, 0
2, 19532, Note_on_c, 0, 81, 108
2, 19534, Note_on_c, 0, 55, 97
2, 19538, Control_c, 0, 64, 63
2, 19541, Note_on_c, 0, 43, 84
2, 19542, Control_c, 0, 64, 0
2, 19544, Note_on_c, 0, 69, 0
2, 19617, Note_on_c, 0, 81, 0
2, 19619, Control_c, 0, 64, 63
2, 19621, Control_c, 0, 64, 127
2, 19642, Note_on_c, 0, 81, 109
2, 19702, Note_on_c, 0, 55, 0
2, 19763, Note_on_c, 0, 83, 103
2, 19765, Note_on_c, 0, 53, 102
2, 19769, Note_on_c, 0, 41, 101
2, 19801, Note_on_c, 0, 43, 0
2, 19803, Note_on_c, 0, 81, 0
2, 19815, Control_c, 0, 64, 63
2, 19822, Control_c, 0, 64, 0
2, 19880, Note_on_c, 0, 81, 107
2, 19912, Note_on_c, 0, 83, 0
2, 19970, Control_c, 0, 64, 127
2, 19991, Note_on_c, 0, 79, 103
2, 20030, Note_on_c, 0, 81, 0
2, 20092, Note_on_c, 0, 77, 111
2, 20123, Note_on_c, 0, 79, 0
2, 20154, Note_on_c, 0, 41, 0
2, 20200, Note_on_c, 0, 76, 106
2, 20216, Note_on_c, 0, 77, 0
2, 20218, Note_on_c, 0, 53, 0
2, 20296, Note_on_c, 0, 75, 119
2, 20322, Note_on_c, 0, 76, 0
2, 20343, Control_c, 0, 64, 63
2, 20348, Control_c, 0, 64, 0
2, 20373, Control_c, 0, 64, 63
2, 20379, Control_c, 0, 64, 127
2, 20427, Note_on_c, 0, 75, 0
2, 20435, Note_on_c, 0, 57, 86
2, 20437, Note_on_c, 0, 53, 79
2, 20448, Note_on_c, 0, 84, 113
2, 20471, Control_c, 0, 64, 63
2, 20474, Control_c, 0, 64, 0
2, 20514, Control_c, 0, 64, 63
2, 20519, Control_c, 0, 64, 127
2, 20577, Note_on_c, 0, 56, 93
2, 20608, Note_on_c, 0, 57, 0
2, 20683, Note_on_c, 0, 57, 99
2, 20707, Note_on_c, 0, 56, 0
2, 20786, Note_on_c, 0, 60, 102
2, 20809, Note_on_c, 0, 57, 0
2, 20902, Note_on_c, 0, 59, 93
2, 20906, Note_on_c, 0, 75, 100
2, 20909, Note_on_c, 0, 84, 0
2, 20934, Note_on_c, 0, 60, 0
2, 20953, Control_c, 0, 64, 63
2, 20964, Control_c, 0, 64, 0
2, 21009, Control_c, 0, 64, 63
2, 21012, Note_on_c, 0, 57, 91
2, 21018, Control_c, 0, 64, 127
2, 21032, Note_on_c, 0, 53, 0
2, 21043, Note_on_c, 0, 59, 0
2, 21146, Note_on_c, 0, 75, 0
2, 21165, Note_on_c, 0, 76, 82
2, 21170, Note_on_c, 0, 52, 53
2, 21171, Note_on_c, 0, 56, 80
2, 21193, Note_on_c, 0, 57, 0
2, 21213, Control_c, 0, 64, 63
2, 21223, Control_c, 0, 64, 0
2, 21391, Control_c, 0, 64, 127
2, 21476, Note_on_c, 0, 76, 0
2, 21517, Control_c, 0, 64, 63
2, 21519, Control_c, 0, 64, 0
2, 21539, Note_on_c, 0, 78, 104
2, 21551, Control_c, 0, 64, 63
2, 21556, Control_c, 0, 64, 127
2, 21563, Note_on_c, 0, 56, 0
2, 21580, Note_on_c, 0, 52, 0
2, 21589, Note_on_c, 0, 76, 91
2, 21592, Note_on_c, 0, 78, 0
2, 21610, Note_on_c, 0, 76, 0
2, 21650, Control_c, 0, 64, 63
2, 21652, Note_on_c, 0, 76, 91
2, 21673, Control_c, 0, 64, 127
2, 21708, Note_on_c, 0, 74, 84
2, 21729, Note_on_c, 0, 76, 0
2, 21754, Note_on_c, 0, 73, 87
2, 21775, Note_on_c, 0, 74, 0
2, 21798, Note_on_c, 0, 71, 98
2, 21810, Note_on_c, 0, 73, 0
2, 21832, Note_on_c, 0, 71, 0
2, 21908, Control_c, 0, 64, 63
2, 21912, Control_c, 0, 64, 0
2, 21931, Note_on_c, 0, 61, 99
2, 21939, Note_on_c, 0, 45, 82
2, 21946, Note_on_c, 0, 64, 90
2, 21948, Note_on_c, 0, 57, 103
2, 21953, Control_c, 0, 64, 63
2, 21956, Control_c, 0, 64, 127
2, 21959, Note_on_c, 0, 69, 103
2, 21970, Note_on_c, 0, 61, 0
2, 21991, Note_on_c, 0, 57, 0
2, 21994, Note_on_c, 0, 64, 0
2, 22000, Note_on_c, 0, 45, 0
2, 22125, Note_on_c, 0, 69, 0
2, 22386, Control_c, 0, 64, 63
2, 22388, Note_on_c, 0, 64, 109
2, 22391, Control_c, 0, 64, 0
2, 22393, Note_on_c, 0, 40, 98
2, 22394, Note_on_c, 0, 52, 100
2, 22431, Control_c, 0, 64, 63
2, 22437, Control_c, 0, 64, 127
2, 22448, Note_on_c, 0, 40, 0
2, 22473, Note_on_c, 0, 52, 0
2, 22484, Note_on_c, 0, 64, 0
2, 22608, Control_c, 0, 64, 63
2, 22611, Note_on_c, 0, 73, 120
2, 22612, Note_on_c, 0, 61, 110
2, 22616, Note_on_c, 0, 49, 101
2, 22616, Control_c, 0, 64, 0
2, 22643, Control_c, 0, 64, 63
2, 22651, Control_c, 0, 64, 127
2, 22665, Note_on_c, 0, 61, 0
2, 22678, Note_on_c, 0, 49, 0
2, 22718, Note_on_c, 0, 73, 0
2, 22743, Note_on_c, 0, 74, 87
2, 22784, Note_on_c, 0, 71, 91
2, 22793, Note_on_c, 0, 74, 0
2, 22821, Control_c, 0, 64, 63
2, 22828, Control_c, 0, 64, 0
2, 22833, Note_on_c, 0, 69, 84
2, 22836, Note_on_c, 0, 71, 0
2, 22838, Note_on_c, 0, 57, 91
2, 22845, Note_on_c, 0, 45, 84
2, 22947, Control_c, 0, 64, 63
2, 22954, Control_c, 0, 64, 127
2, 23057, Note_on_c, 0, 69, 0
2, 23061, Note_on_c, 0, 45, 0
2, 23064, Note_on_c, 0, 57, 0
2, 23076, Control_c, 0, 64, 63
2, 23086, Control_c, 0, 64, 0
2, 23260, Control_c, 0, 64, 63
2, 23272, Control_c, 0, 64, 127
2, 23287, Note_on_c, 0, 76, 82
2, 23405, Note_on_c, 0, 78, 86
2, 23424, Note_on_c, 0, 76, 0
2, 23427, Control_c, 0, 64, 63
2, 23447, Control_c, 0, 64, 0
2, 23447, Note_on_c, 0, 74, 77
2, 23453, Note_on_c, 0, 78, 0
2, 23501, Note_on_c, 0, 73, 103
2, 23503, Note_on_c, 0, 74, 0
2, 23718, Note_on_c, 0, 73, 0
2, 23719, Control_c, 0, 64, 63
2, 23719, Note_on_c, 0, 85, 76
2, 23723, Note_on_c, 0, 66, 59
2, 23727, Note_on_c, 0, 57, 40
2, 23745, Control_c, 0, 64, 0
2, 23765, Note_on_c, 0, 85, 0
2, 23772, Note_on_c, 0, 66, 0
2, 23782, Note_on_c, 0, 57, 0
2, 23947, Note_on_c, 0, 75, 74
2, 23951, Note_on_c, 0, 59, 54
2, 23953, Control_c, 0, 64, 63
2, 23954, Note_on_c, 0, 69, 44
2, 23975, Control_c, 0, 64, 127
2, 24017, Note_on_c, 0, 59, 0
2, 24132, Note_on_c, 0, 75, 0
2, 24159, Note_on_c, 0, 69, 0
2, 24180, Note_on_c, 0, 76, 59
2, 24181, Note_on_c, 0, 68, 44
2, 24189, Note_on_c, 0, 64, 48
2, 24200, Control_c, 0, 64, 63
2, 24227, Control_c, 0, 64, 0
2, 24326, Control_c, 0, 64, 63
2, 24362, Control_c, 0, 64, 0
2, 24516, Note_on_c, 0, 77, 72
2, 24528, Note_on_c, 0, 76, 0
2, 24555, Control_c, 0, 64, 63
2, 24565, Control_c, 0, 64, 127
2, 24615, Note_on_c, 0, 68, 0
2, 24616, Note_on_c, 0, 64, 0
2, 24623, Note_on_c, 0, 80, 81
2, 24639, Note_on_c, 0, 77, 0
2, 24726, Note_on_c, 0, 78, 94
2, 24756, Note_on_c, 0, 80, 0
2, 24835, Note_on_c, 0, 76, 88
2, 24852, Control_c, 0, 64, 63
2, 24861, Note_on_c, 0, 78, 0
2, 24875, Control_c, 0, 64, 0
2, 24936, Note_on_c, 0, 74, 78
2, 24949, Note_on_c, 0, 76, 0
2, 25007, Control_c, 0, 64, 63
2, 25025, Control_c, 0, 64, 127
2, 25044, Note_on_c, 0, 73, 85
2, 25055, Note_on_c, 0, 74, 0
2, 25142, Note_on_c, 0, 71, 79
2, 25150, Note_on_c, 0, 73, 0
2, 25155, Control_c, 0, 64, 63
2, 25181, Control_c, 0, 64, 0
2, 25253, Note_on_c, 0, 69, 62
2, 25254, Note_on_c, 0, 71, 0
2, 25257, Note_on_c, 0, 52, 37
2, 25292, Control_c, 0, 64, 63
2, 25309, Control_c, 0, 64, 127
2, 25356, Note_on_c, 0, 68, 76
2, 25359, Note_on_c, 0, 62, 53
2, 25375, Note_on_c, 0, 69, 0
2, 25452, Note_on_c, 0, 68, 0
2, 25461, Control_c, 0, 64, 63
2, 25462, Note_on_c, 0, 76, 76
2, 25463, Note_on_c, 0, 52, 0
2, 25477, Note_on_c, 0, 62, 0
2, 25478, Note_on_c, 0, 59, 39
2, 25488, Control_c, 0, 64, 0
2, 25565, Note_on_c, 0, 74, 65
2, 25566, Control_c, 0, 64, 63
2, 25578, Note_on_c, 0, 59, 0
2, 25581, Note_on_c, 0, 62, 38
2, 25583, Note_on_c, 0, 76, 0
2, 25593, Control_c, 0, 64, 127
2, 25679, Control_c, 0, 64, 63
2, 25687, Note_on_c, 0, 62, 0
2, 25695, Note_on_c, 0, 59, 49
2, 25700, Note_on_c, 0, 74, 0
2, 25715, Control_c, 0, 64, 0
2, 25784, Note_on_c, 0, 62, 51
2, 25786, Note_on_c, 0, 59, 0
2, 25865, Control_c, 0, 64, 63
2, 25886, Control_c, 0, 64, 127
2, 25888, Note_on_c, 0, 71, 84
2, 25891, Note_on_c, 0, 52, 56
2, 25902, Note_on_c, 0, 62, 0
2, 25997, Note_on_c, 0, 69, 84
2, 25997, Note_on_c, 0, 61, 76
2, 26001, Note_on_c, 0, 71, 0
2, 26083, Control_c, 0, 64, 63
2, 26100, Control_c, 0, 64, 0
2, 26101, Note_on_c, 0, 78, 88
2, 26111, Note_on_c, 0, 61, 0
2, 26112, Note_on_c, 0, 57, 46
2, 26113, Note_on_c, 0, 69, 0
2, 26150, Note_on_c, 0, 52, 0
2, 26178, Control_c, 0, 64, 63
2, 26193, Control_c, 0, 64, 127
2, 26207, Note_on_c, 0, 78, 0
2, 26209, Note_on_c, 0, 76, 68
2, 26213, Note_on_c, 0, 61, 51
2, 26233, Note_on_c, 0, 57, 0
2, 26319, Note_on_c, 0, 61, 0
2, 26331, Note_on_c, 0, 57, 36
2, 26342, Control_c, 0, 64, 63
2, 26356, Note_on_c, 0, 76, 0
2, 26357, Control_c, 0, 64, 0
2, 26422, Note_on_c, 0, 61, 70
2, 26454, Note_on_c, 0, 57, 0
2, 26483, Control_c, 0, 64, 63
2, 26495, Control_c, 0, 64, 127
2, 26539, Note_on_c, 0, 71, 99
2, 26540, Note_on_c, 0, 52, 59
2, 26579, Note_on_c, 0, 61, 0
2, 26649, Note_on_c, 0, 69, 101
2, 26652, Note_on_c, 0, 61, 89
2, 26656, Note_on_c, 0, 71, 0
2, 26772, Note_on_c, 0, 81, 107
2, 26779, Note_on_c, 0, 57, 68
2, 26809, Note_on_c, 0, 69, 0
2, 26818, Note_on_c, 0, 61, 0
2, 26846, Control_c, 0, 64, 63
2, 26855, Control_c, 0, 64, 0
2, 26876, Note_on_c, 0, 79, 98
2, 26891, Note_on_c, 0, 61, 60
2, 26906, Control_c, 0, 64, 63
2, 26911, Control_c, 0, 64, 127
2, 26916, Note_on_c, 0, 81, 0
2, 26925, Note_on_c, 0, 57, 0
2, 26998, Note_on_c, 0, 57, 68
2, 27008, Note_on_c, 0, 61, 0
2, 27014, Note_on_c, 0, 79, 0
2, 27045, Note_on_c, 0, 52, 0
2, 27088, Note_on_c, 0, 61, 90
2, 27103, Note_on_c, 0, 57, 0
2, 27179, Note_on_c, 0, 61, 0
2, 27224, Note_on_c, 0, 79, 76
2, 27233, Note_on_c, 0, 50, 25
2, 27234, Note_on_c, 0, 62, 48
2, 27237, Note_on_c, 0, 57, 23
2, 27270, Control_c, 0, 64, 63
2, 27279, Control_c, 0, 64, 0
2, 27350, Note_on_c, 0, 78, 76
2, 27383, Note_on_c, 0, 79, 0
2, 27425, Control_c, 0, 64, 63
2, 27429, Control_c, 0, 64, 127
2, 27461, Note_on_c, 0, 76, 84
2, 27490, Note_on_c, 0, 78, 0
2, 27562, Note_on_c, 0, 74, 72
2, 27567, Note_on_c, 0, 76, 0
2, 27626, Control_c, 0, 64, 63
2, 27631, Note_on_c, 0, 62, 0
2, 27637, Control_c, 0, 64, 0
2, 27640, Note_on_c, 0, 74, 0
2, 27668, Note_on_c, 0, 73, 78
2, 27686, Note_on_c, 0, 57, 0
2, 27691, Control_c, 0, 64, 63
2, 27700, Control_c, 0, 64, 127
2, 27722, Note_on_c, 0, 50, 0
2, 27762, Note_on_c, 0, 73, 0
2, 27767, Note_on_c, 0, 71, 72
2, 27813, Note_on_c, 0, 71, 0
2, 27813, Control_c, 0, 64, 63
2, 27826, Control_c, 0, 64, 0
2, 27856, Control_c, 0, 64, 63
2, 27875, Control_c, 0, 64, 127
2, 27880, Note_on_c, 0, 49, 99
2, 27882, Note_on_c, 0, 76, 96
2, 27896, Note_on_c, 0, 49, 0
2, 27912, Note_on_c, 0, 78, 80
2, 27916, Note_on_c, 0, 76, 0
2, 27944, Note_on_c, 0, 78, 0
2, 27953, Note_on_c, 0, 76, 61
2, 27981, Note_on_c, 0, 76, 0
2, 27985, Note_on_c, 0, 74, 78
2, 28030, Note_on_c, 0, 76, 51
2, 28032, Note_on_c, 0, 74, 0
2, 28042, Note_on_c, 0, 50, 65
2, 28063, Note_on_c, 0, 78, 96
2, 28066, Control_c, 0, 64, 63
2, 28071, Note_on_c, 0, 76, 0
2, 28071, Control_c, 0, 64, 0
2, 28098, Note_on_c, 0, 50, 0
2, 28103, Note_on_c, 0, 78, 0
2, 28106, Note_on_c, 0, 61, 98
2, 28111, Note_on_c, 0, 69, 98
2, 28114, Note_on_c, 0, 52, 73
2, 28138, Control_c, 0, 64, 63
2, 28143, Control_c, 0, 64, 127
2, 28281, Note_on_c, 0, 61, 0
2, 28307, Control_c, 0, 64, 63
2, 28313, Control_c, 0, 64, 0
2, 28330, Note_on_c, 0, 68, 88
2, 28350, Note_on_c, 0, 59, 44
2, 28360, Note_on_c, 0, 69, 0
2, 28363, Control_c, 0, 64, 63
2, 28370, Control_c, 0, 64, 127
2, 28405, Note_on_c, 0, 68, 0
2, 28423, Note_on_c, 0, 52, 0
2, 28456, Control_c, 0, 64, 63
2, 28461, Control_c, 0, 64, 0
2, 28466, Note_on_c, 0, 59, 0
2, 28520, Note_on_c, 0, 69, 71
2, 28529, Note_on_c, 0, 73, 98
2, 28542, Note_on_c, 0, 57, 63
2, 28544, Note_on_c, 0, 76, 108
2, 28559, Note_on_c, 0, 73, 0
2, 28559, Note_on_c, 0, 69, 0
2, 28572, Note_on_c, 0, 76, 0
2, 28639, Note_on_c, 0, 61, 73
2, 28749, Note_on_c, 0, 76, 116
2, 28754, Note_on_c, 0, 64, 77
2, 28768, Note_on_c, 0, 61, 0
2, 28770, Control_c, 0, 64, 63
2, 28771, Control_c, 0, 64, 127
2, 28842, Note_on_c, 0, 61, 80
2, 28849, Note_on_c, 0, 64, 0
2, 28905, Note_on_c, 0, 57, 0
2, 28946, Note_on_c, 0, 59, 87
2, 28952, Note_on_c, 0, 61, 0
2, 28982, Note_on_c, 0, 76, 0
2, 29038, Note_on_c, 0, 59, 0
2, 29049, Note_on_c, 0, 57, 87
2, 29129, Control_c, 0, 64, 63
2, 29135, Control_c, 0, 64, 0
2, 29156, Note_on_c, 0, 76, 96
2, 29159, Note_on_c, 0, 56, 82
2, 29167, Note_on_c, 0, 57, 0
2, 29183, Control_c, 0, 64, 63
2, 29189, Control_c, 0, 64, 127
2, 29212, Note_on_c, 0, 74, 84
2, 29234, Note_on_c, 0, 76, 0
2, 29247, Note_on_c, 0, 73, 85
2, 29263, Note_on_c, 0, 74, 0
2, 29282, Note_on_c, 0, 56, 0
2, 29282, Note_on_c, 0, 57, 62
2, 29285, Note_on_c, 0, 71, 92
2, 29291, Note_on_c, 0, 73, 0
2, 29315, Note_on_c, 0, 71, 0
2, 29343, Control_c, 0, 64, 63
2, 29348, Note_on_c, 0, 59, 85
2, 29348, Control_c, 0, 64, 0
2, 29354, Note_on_c, 0, 57, 0
2, 29355, Note_on_c, 0, 71, 86
2, 29397, Note_on_c, 0, 69, 79
2, 29412, Note_on_c, 0, 71, 0
2, 29443, Note_on_c, 0, 68, 89
2, 29449, Note_on_c, 0, 52, 76
2, 29451, Note_on_c, 0, 69, 0
2, 29452, Note_on_c, 0, 59, 0
2, 29491, Note_on_c, 0, 66, 97
2, 29507, Note_on_c, 0, 68, 0
2, 29529, Note_on_c, 0, 66, 0
2, 29540, Note_on_c, 0, 64, 64
2, 29550, Note_on_c, 0, 54, 82
2, 29560, Note_on_c, 0, 52, 0
2, 29565, Note_on_c, 0, 64, 0
2, 29588, Note_on_c, 0, 62, 84
2, 29632, Note_on_c, 0, 62, 0
2, 29646, Note_on_c, 0, 61, 91
2, 29649, Note_on_c, 0, 56, 79
2, 29675, Note_on_c, 0, 54, 0
2, 29681, Note_on_c, 0, 61, 0
2, 29686, Note_on_c, 0, 62, 80
2, 29729, Note_on_c, 0, 62, 0
2, 29730, Note_on_c, 0, 61, 101
2, 29749, Note_on_c, 0, 56, 0
2, 29752, Note_on_c, 0, 57, 59
2, 29762, Note_on_c, 0, 61, 0
2, 29786, Note_on_c, 0, 64, 69
2, 29830, Note_on_c, 0, 64, 0
2, 29831, Note_on_c, 0, 69, 94
2, 29846, Note_on_c, 0, 61, 94
2, 29853, Note_on_c, 0, 57, 0
2, 29877, Note_on_c, 0, 69, 0
2, 29880, Note_on_c, 0, 73, 105
2, 29918, Note_on_c, 0, 73, 0
2, 29929, Note_on_c, 0, 61, 0
2, 29933, Control_c, 0, 64, 127
2, 29936, Note_on_c, 0, 76, 109
2, 29942, Note_on_c, 0, 64, 80
2, 29971, Note_on_c, 0, 76, 0
2, 30046, Note_on_c, 0, 64, 0
2, 30050, Note_on_c, 0, 61, 75
2, 30132, Note_on_c, 0, 61, 0
2, 30150, Note_on_c, 0, 59, 82
2, 30241, Control_c, 0, 64, 63
2, 30245, Control_c, 0, 64, 0
2, 30248, Note_on_c, 0, 57, 83
2, 30253, Note_on_c, 0, 88, 88
2, 30270, Note_on_c, 0, 59, 0
2, 30287, Note_on_c, 0, 88, 0
2, 30362, Note_on_c, 0, 56, 96
2, 30366, Note_on_c, 0, 88, 111
2, 30367, Control_c, 0, 64, 127
2, 30374, Note_on_c, 0, 57, 0
2, 30411, Note_on_c, 0, 86, 97
2, 30436, Note_on_c, 0, 88, 0
2, 30463, Note_on_c, 0, 85, 97
2, 30482, Note_on_c, 0, 86, 0
2, 30484, Note_on_c, 0, 57, 62
2, 30485, Note_on_c, 0, 56, 0
2, 30502, Note_on_c, 0, 83, 93
2, 30512, Note_on_c, 0, 85, 0
2, 30535, Note_on_c, 0, 83, 0
2, 30546, Note_on_c, 0, 59, 84
2, 30547, Note_on_c, 0, 57, 0
2, 30567, Note_on_c, 0, 83, 86
2, 30612, Control_c, 0, 64, 63
2, 30616, Control_c, 0, 64, 0
2, 30621, Note_on_c, 0, 81, 86
2, 30647, Note_on_c, 0, 83, 0
2, 30654, Note_on_c, 0, 52, 71
2, 30663, Note_on_c, 0, 80, 94
2, 30683, Note_on_c, 0, 81, 0
2, 30699, Note_on_c, 0, 59, 0
2, 30707, Note_on_c, 0, 78, 101
2, 30733, Note_on_c, 0, 80, 0
2, 30748, Note_on_c, 0, 54, 91
2, 30748, Note_on_c, 0, 76, 79
2, 30754, Note_on_c, 0, 78, 0
2, 30776, Note_on_c, 0, 52, 0
2, 30788, Note_on_c, 0, 76, 0
2, 30801, Note_on_c, 0, 74, 90
2, 30842, Note_on_c, 0, 56, 90
2, 30846, Note_on_c, 0, 74, 0
2, 30846, Note_on_c, 0, 73, 106
2, 30876, Note_on_c, 0, 54, 0
2, 30892, Note_on_c, 0, 74, 94
2, 30894, Note_on_c, 0, 73, 0
2, 30937, Note_on_c, 0, 57, 97
2, 30947, Note_on_c, 0, 73, 105
2, 30948, Note_on_c, 0, 56, 0
2, 30954, Note_on_c, 0, 74, 0
2, 30976, Note_on_c, 0, 57, 0
2, 30995, Note_on_c, 0, 76, 98
2, 30999, Note_on_c, 0, 73, 0
2, 31042, Note_on_c, 0, 74, 96
2, 31057, Note_on_c, 0, 76, 0
2, 31085, Note_on_c, 0, 73, 101
2, 31105, Note_on_c, 0, 74, 0
2, 31134, Note_on_c, 0, 74, 84
2, 31136, Note_on_c, 0, 73, 0
2, 31140, Note_on_c, 0, 57, 108
2, 31143, Note_on_c, 0, 54, 112
2, 31173, Note_on_c, 0, 57, 0
2, 31175, Note_on_c, 0, 54, 0
2, 31191, Note_on_c, 0, 76, 99
2, 31196, Note_on_c, 0, 74, 0
2, 31240, Note_on_c, 0, 78, 106
2, 31258, Note_on_c, 0, 76, 0
2, 31286, Note_on_c, 0, 80, 96
2, 31308, Note_on_c, 0, 78, 0
2, 31338, Note_on_c, 0, 80, 0
2, 31339, Note_on_c, 0, 50, 114
2, 31340, Note_on_c, 0, 81, 89
2, 31343, Note_on_c, 0, 57, 101
2, 31343, Note_on_c, 0, 54, 109
2, 31363, Note_on_c, 0, 57, 0
2, 31371, Note_on_c, 0, 54, 0
2, 31382, Note_on_c, 0, 50, 0
2, 31395, Note_on_c, 0, 83, 101
2, 31400, Note_on_c, 0, 81, 0
2, 31447, Note_on_c, 0, 85, 112
2, 31471, Note_on_c, 0, 83, 0
2, 31497, Note_on_c, 0, 86, 97
2, 31529, Note_on_c, 0, 85, 0
2, 31546, Note_on_c, 0, 88, 104
2, 31549, Note_on_c, 0, 49, 106
2, 31549, Note_on_c, 0, 57, 100
2, 31550, Note_on_c, 0, 52, 102
2, 31566, Note_on_c, 0, 86, 0
2, 31601, Note_on_c, 0, 86, 88
2, 31602, Control_c, 0, 64, 63
2, 31605, Control_c, 0, 64, 127
2, 31629, Note_on_c, 0, 88, 0
2, 31650, Note_on_c, 0, 85, 99
2, 31670, Note_on_c, 0, 86, 0
2, 31697, Note_on_c, 0, 83, 91
2, 31711, Note_on_c, 0, 85, 0
2, 31746, Note_on_c, 0, 81, 84
2, 31750, Note_on_c, 0, 83, 0
2, 31757, Control_c, 0, 64, 63
2, 31761, Control_c, 0, 64, 0
2, 31799, Note_on_c, 0, 80, 101
2, 31809, Note_on_c, 0, 81, 0
2, 31842, Note_on_c, 0, 78, 95
2, 31858, Note_on_c, 0, 80, 0
2, 31888, Control_c, 0, 64, 63
2, 31896, Note_on_c, 0, 76, 93
2, 31900, Control_c, 0, 64, 127
2, 31905, Note_on_c, 0, 78, 0
2, 31935, Note_on_c, 0, 57, 0
2, 31942, Note_on_c, 0, 49, 0
2, 31942, Note_on_c, 0, 74, 85
2, 31947, Note_on_c, 0, 76, 0
2, 31953, Note_on_c, 0, 52, 0
2, 31977, Control_c, 0, 64, 63
2, 31990, Control_c, 0, 64, 0
2, 31993, Note_on_c, 0, 74, 0
2, 31994, Note_on_c, 0, 73, 97
2, 32046, Note_on_c, 0, 71, 96
2, 32056, Note_on_c, 0, 73, 0
2, 32092, Note_on_c, 0, 69, 76
2, 32095, Note_on_c, 0, 71, 0
2, 32132, Note_on_c, 0, 69, 0
2, 32170, Control_c, 0, 64, 63
2, 32171, Control_c, 0, 64, 127
2, 32187, Note_on_c, 0, 50, 87
2, 32188, Note_on_c, 0, 59, 76
2, 32195, Note_on_c, 0, 78, 101
2, 32225, Note_on_c, 0, 50, 0
2, 32228, Note_on_c, 0, 80, 91
2, 32233, Note_on_c, 0, 78, 0
2, 32234, Note_on_c, 0, 59, 0
2, 32267, Note_on_c, 0, 78, 60
2, 32268, Note_on_c, 0, 80, 0
2, 32288, Note_on_c, 0, 78, 0
2, 32288, Note_on_c, 0, 77, 93
2, 32324, Note_on_c, 0, 78, 84
2, 32339, Note_on_c, 0, 77, 0
2, 32364, Note_on_c, 0, 80, 89
2, 32376, Note_on_c, 0, 78, 0
2, 32402, Note_on_c, 0, 81, 85
2, 32413, Note_on_c, 0, 80, 0
2, 32436, Note_on_c, 0, 81, 0
2, 32443, Note_on_c, 0, 61, 75
2, 32446, Note_on_c, 0, 69, 81
2, 32451, Control_c, 0, 64, 63
2, 32455, Note_on_c, 0, 52, 60
2, 32458, Control_c, 0, 64, 0
2, 32524, Control_c, 0, 64, 63
2, 32531, Control_c, 0, 64, 127
2, 32639, Note_on_c, 0, 69, 0
2, 32644, Note_on_c, 0, 61, 0
2, 32662, Note_on_c, 0, 73, 83
2, 32673, Note_on_c, 0, 68, 76
2, 32681, Control_c, 0, 64, 63
2, 32687, Note_on_c, 0, 62, 52
2, 32690, Control_c, 0, 64, 0
2, 32690, Note_on_c, 0, 71, 75
2, 32714, Note_on_c, 0, 73, 0
2, 32775, Note_on_c, 0, 52, 0
2, 32782, Control_c, 0, 64, 63
2, 32797, Control_c, 0, 64, 127
2, 32899, Note_on_c, 0, 68, 0
2, 32932, Note_on_c, 0, 69, 76
2, 32938, Note_on_c, 0, 61, 61
2, 32950, Note_on_c, 0, 57, 40
2, 32958, Control_c, 0, 64, 63
2, 32963, Note_on_c, 0, 62, 0
2, 32963, Note_on_c, 0, 71, 0
2, 32966, Control_c, 0, 64, 0
2, 33033, Control_c, 0, 64, 63
2, 33041, Control_c, 0, 64, 127
2, 33060, Note_on_c, 0, 61, 0
2, 33083, Note_on_c, 0, 57, 0
2, 33249, Note_on_c, 0, 45, 48
2, 33273, Note_on_c, 0, 45, 0
2, 33651, Note_on_c, 0, 69, 0
2, 33657, Control_c, 0, 64, 63
2, 33687, Control_c, 0, 64, 0
2, 33927, Control_c, 0, 64, 63
2, 33940, Control_c, 0, 64, 127
2, 34031, Note_on_c, 0, 69, 62
2, 34043, Note_on_c, 0, 66, 44
2, 34045, Note_on_c, 0, 50, 23
2, 34052, Note_on_c, 0, 38, 23
2, 34186, Note_on_c, 0, 66, 0
2, 34198, Note_on_c, 0, 69, 0
2, 34199, Note_on_c, 0, 57, 29
2, 34335, Note_on_c, 0, 57, 0
2, 34337, Note_on_c, 0, 66, 91
2, 34345, Note_on_c, 0, 62, 65
2, 34445, Note_on_c, 0, 57, 52
2, 34536, Note_on_c, 0, 62, 0
2, 34541, Note_on_c, 0, 66, 0
2, 34566, Note_on_c, 0, 67, 93
2, 34570, Note_on_c, 0, 64, 83
2, 34577, Note_on_c, 0, 57, 0
2, 34613, Control_c, 0, 64, 63
2, 34652, Control_c, 0, 64, 127
2, 34666, Note_on_c, 0, 57, 62
2, 34687, Note_on_c, 0, 64, 0
2, 34723, Note_on_c, 0, 67, 0
2, 34788, Note_on_c, 0, 69, 84
2, 34792, Note_on_c, 0, 66, 81
2, 34801, Note_on_c, 0, 57, 0
2, 34853, Control_c, 0, 64, 63
2, 34862, Control_c, 0, 64, 0
2, 34906, Control_c, 0, 64, 63
2, 34912, Control_c, 0, 64, 127
2, 34924, Note_on_c, 0, 57, 48
2, 34959, Note_on_c, 0, 66, 0
2, 35001, Note_on_c, 0, 69, 0
2, 35016, Note_on_c, 0, 57, 0
2, 35072, Note_on_c, 0, 62, 64
2, 35072, Note_on_c, 0, 66, 82
2, 35156, Note_on_c, 0, 66, 0
2, 35187, Note_on_c, 0, 64, 84
2, 35194, Note_on_c, 0, 61, 77
2, 35197, Note_on_c, 0, 62, 0
2, 35268, Note_on_c, 0, 61, 0
2, 35282, Note_on_c, 0, 66, 95
2, 35289, Note_on_c, 0, 64, 0
2, 35292, Note_on_c, 0, 62, 84
2, 35311, Control_c, 0, 64, 63
2, 35343, Control_c, 0, 64, 127
2, 35382, Note_on_c, 0, 66, 0
2, 35391, Note_on_c, 0, 67, 87
2, 35398, Note_on_c, 0, 64, 77
2, 35410, Note_on_c, 0, 62, 0
2, 35442, Note_on_c, 0, 64, 0
2, 35457, Note_on_c, 0, 67, 0
2, 35509, Note_on_c, 0, 69, 54
2, 35509, Note_on_c, 0, 66, 81
2, 35518, Control_c, 0, 64, 63
2, 35531, Control_c, 0, 64, 0
2, 35569, Control_c, 0, 64, 63
2, 35577, Note_on_c, 0, 38, 0
2, 35581, Control_c, 0, 64, 127
2, 35612, Note_on_c, 0, 62, 68
2, 35639, Note_on_c, 0, 50, 0
2, 35657, Note_on_c, 0, 69, 0
2, 35661, Note_on_c, 0, 66, 0
2, 35704, Note_on_c, 0, 62, 0
2, 35722, Note_on_c, 0, 71, 89
2, 35729, Note_on_c, 0, 67, 75
2, 35768, Control_c, 0, 64, 63
2, 35804, Control_c, 0, 64, 127
2, 35822, Note_on_c, 0, 62, 69
2, 35836, Note_on_c, 0, 67, 0
2, 35866, Note_on_c, 0, 71, 0
2, 35880, Note_on_c, 0, 62, 0
2, 35942, Note_on_c, 0, 73, 96
2, 35942, Note_on_c, 0, 67, 63
2, 35943, Note_on_c, 0, 57, 50
2, 35949, Control_c, 0, 64, 63
2, 35952, Note_on_c, 0, 45, 40
2, 35961, Control_c, 0, 64, 0
2, 35989, Control_c, 0, 64, 63
2, 35999, Control_c, 0, 64, 127
2, 36002, Note_on_c, 0, 57, 0
2, 36028, Note_on_c, 0, 45, 0
2, 36042, Note_on_c, 0, 64, 54
2, 36070, Note_on_c, 0, 67, 0
2, 36117, Note_on_c, 0, 73, 0
2, 36143, Note_on_c, 0, 64, 0
2, 36163, Control_c, 0, 64, 63
2, 36163, Note_on_c, 0, 66, 79
2, 36168, Control_c, 0, 64, 0
2, 36171, Note_on_c, 0, 74, 76
2, 36176, Note_on_c, 0, 50, 38
2, 36178, Note_on_c, 0, 38, 63
2, 36211, Control_c, 0, 64, 63
2, 36215, Control_c, 0, 64, 127
2, 36233, Note_on_c, 0, 38, 0
2, 36256, Note_on_c, 0, 74, 0
2, 36263, Note_on_c, 0, 50, 0
2, 36307, Note_on_c, 0, 69, 51
2, 36329, Note_on_c, 0, 66, 0
2, 36338, Note_on_c, 0, 69, 0
2, 36447, Note_on_c, 0, 78, 85
2, 36450, Note_on_c, 0, 66, 88
2, 36457, Note_on_c, 0, 62, 57
2, 36483, Note_on_c, 0, 62, 0
2, 36547, Note_on_c, 0, 66, 0
2, 36560, Note_on_c, 0, 78, 0
2, 36561, Note_on_c, 0, 76, 84
2, 36571, Note_on_c, 0, 61, 73
2, 36582, Note_on_c, 0, 64, 66
2, 36631, Note_on_c, 0, 61, 0
2, 36665, Note_on_c, 0, 78, 104
2, 36679, Note_on_c, 0, 66, 94
2, 36690, Note_on_c, 0, 62, 54
2, 36692, Note_on_c, 0, 76, 0
2, 36706, Note_on_c, 0, 64, 0
2, 36739, Note_on_c, 0, 62, 0
2, 36762, Note_on_c, 0, 79, 102
2, 36778, Note_on_c, 0, 67, 91
2, 36780, Note_on_c, 0, 64, 89
2, 36791, Note_on_c, 0, 78, 0
2, 36808, Note_on_c, 0, 66, 0
2, 36884, Note_on_c, 0, 69, 84
2, 36888, Note_on_c, 0, 66, 88
2, 36888, Note_on_c, 0, 81, 102
2, 36895, Note_on_c, 0, 79, 0
2, 36899, Note_on_c, 0, 67, 0
2, 36909, Control_c, 0, 64, 63
2, 36918, Control_c, 0, 64, 0
2, 36919, Note_on_c, 0, 64, 0
2, 36975, Control_c, 0, 64, 63
2, 36979, Control_c, 0, 64, 127
2, 36995, Note_on_c, 0, 62, 77
2, 37029, Note_on_c, 0, 69, 0
2, 37059, Note_on_c, 0, 66, 0
2, 37096, Note_on_c, 0, 83, 97
2, 37102, Note_on_c, 0, 71, 84
2, 37104, Note_on_c, 0, 67, 76
2, 37109, Note_on_c, 0, 62, 0
2, 37123, Note_on_c, 0, 81, 0
2, 37134, Control_c, 0, 64, 63
2, 37151, Control_c, 0, 64, 0
2, 37171, Control_c, 0, 64, 63
2, 37186, Control_c, 0, 64, 127
2, 37189, Note_on_c, 0, 67, 0
2, 37203, Note_on_c, 0, 71, 0
2, 37203, Note_on_c, 0, 62, 46
2, 37262, Note_on_c, 0, 62, 0
2, 37315, Note_on_c, 0, 85, 97
2, 37321, Note_on_c, 0, 83, 0
2, 37325, Note_on_c, 0, 73, 91
2, 37333, Control_c, 0, 64, 63
2, 37336, Note_on_c, 0, 67, 59
2, 37353, Control_c, 0, 64, 0
2, 37373, Control_c, 0, 64, 63
2, 37387, Control_c, 0, 64, 127
2, 37422, Note_on_c, 0, 64, 48
2, 37423, Note_on_c, 0, 67, 0
2, 37470, Note_on_c, 0, 73, 0
2, 37508, Note_on_c, 0, 64, 0
2, 37532, Note_on_c, 0, 66, 83
2, 37539, Note_on_c, 0, 74, 78
2, 37542, Note_on_c, 0, 86, 76
2, 37544, Control_c, 0, 64, 63
2, 37550, Note_on_c, 0, 85, 0
2, 37551, Control_c, 0, 64, 0
2, 37609, Control_c, 0, 64, 63
2, 37613, Control_c, 0, 64, 127
2, 37658, Note_on_c, 0, 69, 56
2, 37668, Note_on_c, 0, 74, 0
2, 37681, Note_on_c, 0, 66, 0
2, 37720, Note_on_c, 0, 86, 0
2, 37753, Note_on_c, 0, 69, 0
2, 37782, Note_on_c, 0, 66, 78
2, 37789, Note_on_c, 0, 74, 64
2, 37846, Note_on_c, 0, 66, 0
2, 37893, Note_on_c, 0, 74, 0
2, 37897, Note_on_c, 0, 73, 90
2, 37909, Note_on_c, 0, 64, 71
2, 37945, Note_on_c, 0, 73, 0
2, 37955, Note_on_c, 0, 64, 0
2, 38004, Note_on_c, 0, 71, 89
2, 38006, Note_on_c, 0, 62, 90
2, 38041, Note_on_c, 0, 62, 0
2, 38096, Note_on_c, 0, 71, 0
2, 38100, Note_on_c, 0, 61, 83
2, 38102, Note_on_c, 0, 69, 73
2, 38160, Note_on_c, 0, 61, 0
2, 38170, Note_on_c, 0, 69, 0
2, 38210, Note_on_c, 0, 68, 95
2, 38216, Note_on_c, 0, 59, 66
2, 38221, Note_on_c, 0, 52, 45
2, 38248, Control_c, 0, 64, 63
2, 38253, Control_c, 0, 64, 0
2, 38312, Control_c, 0, 64, 63
2, 38317, Control_c, 0, 64, 127
2, 38340, Note_on_c, 0, 64, 46
2, 38373, Note_on_c, 0, 59, 0
2, 38382, Note_on_c, 0, 68, 0
2, 38392, Note_on_c, 0, 64, 0
2, 38438, Note_on_c, 0, 69, 84
2, 38440, Note_on_c, 0, 49, 65
2, 38446, Note_on_c, 0, 61, 68
2, 38457, Control_c, 0, 64, 63
2, 38464, Control_c, 0, 64, 0
2, 38489, Control_c, 0, 64, 63
2, 38497, Control_c, 0, 64, 127
2, 38522, Note_on_c, 0, 69, 0
2, 38538, Note_on_c, 0, 64, 81
2, 38542, Note_on_c, 0, 61, 0
2, 38554, Note_on_c, 0, 49, 0
2, 38605, Note_on_c, 0, 64, 0
2, 38648, Note_on_c, 0, 73, 89
2, 38655, Note_on_c, 0, 45, 45
2, 38658, Note_on_c, 0, 52, 0
2, 38659, Note_on_c, 0, 69, 60
2, 38667, Control_c, 0, 64, 63
2, 38670, Control_c, 0, 64, 0
2, 38708, Control_c, 0, 64, 63
2, 38714, Control_c, 0, 64, 127
2, 38759, Note_on_c, 0, 64, 50
2, 38824, Note_on_c, 0, 69, 0
2, 38840, Note_on_c, 0, 73, 0
2, 38842, Note_on_c, 0, 64, 0
2, 38864, Note_on_c, 0, 68, 70
2, 38867, Control_c, 0, 64, 63
2, 38869, Note_on_c, 0, 52, 51
2, 38870, Note_on_c, 0, 71, 68
2, 38872, Control_c, 0, 64, 0
2, 38905, Control_c, 0, 64, 63
2, 38910, Control_c, 0, 64, 127
2, 38912, Note_on_c, 0, 45, 0
2, 38933, Note_on_c, 0, 52, 0
2, 38979, Note_on_c, 0, 68, 0
2, 38996, Note_on_c, 0, 71, 0
2, 39125, Note_on_c, 0, 74, 74
2, 39130, Note_on_c, 0, 66, 60
2, 39133, Note_on_c, 0, 86, 69
2, 39186, Note_on_c, 0, 66, 0
2, 39205, Note_on_c, 0, 74, 0
2, 39232, Note_on_c, 0, 73, 89
2, 39236, Note_on_c, 0, 85, 90
2, 39252, Note_on_c, 0, 86, 0
2, 39254, Note_on_c, 0, 64, 41
2, 39283, Note_on_c, 0, 73, 0
2, 39295, Note_on_c, 0, 64, 0
2, 39334, Note_on_c, 0, 83, 90
2, 39337, Note_on_c, 0, 85, 0
2, 39343, Note_on_c, 0, 71, 84
2, 39349, Note_on_c, 0, 62, 76
2, 39388, Note_on_c, 0, 62, 0
2, 39410, Note_on_c, 0, 71, 0
2, 39419, Note_on_c, 0, 83, 0
2, 39434, Note_on_c, 0, 81, 72
2, 39441, Note_on_c, 0, 69, 79
2, 39457, Note_on_c, 0, 61, 74
2, 39496, Note_on_c, 0, 61, 0
2, 39501, Note_on_c, 0, 69, 0
2, 39501, Note_on_c, 0, 81, 0
2, 39572, Note_on_c, 0, 87, 84
2, 39577, Note_on_c, 0, 68, 75
2, 39583, Note_on_c, 0, 88, 84
2, 39585, Note_on_c, 0, 59, 76
2, 39593, Note_on_c, 0, 87, 0
2, 39613, Control_c, 0, 64, 63
2, 39621, Control_c, 0, 64, 0
2, 39677, Control_c, 0, 64, 63
2, 39685, Control_c, 0, 64, 127
2, 39723, Note_on_c, 0, 64, 69
2, 39726, Note_on_c, 0, 59, 0
2, 39746, Note_on_c, 0, 68, 0
2, 39765, Note_on_c, 0, 88, 0
2, 39793, Note_on_c, 0, 87, 77
2, 39795, Note_on_c, 0, 64, 0
2, 39813, Note_on_c, 0, 88, 101
2, 39816, Note_on_c, 0, 69, 83
2, 39821, Note_on_c, 0, 61, 89
2, 39846, Note_on_c, 0, 87, 0
2, 39918, Note_on_c, 0, 61, 0
2, 39921, Note_on_c, 0, 64, 72
2, 39925, Note_on_c, 0, 69, 0
2, 39957, Note_on_c, 0, 64, 0
2, 39990, Note_on_c, 0, 88, 0
2, 40008, Note_on_c, 0, 87, 93
2, 40034, Note_on_c, 0, 88, 101
2, 40040, Note_on_c, 0, 73, 83
2, 40049, Note_on_c, 0, 69, 46
2, 40053, Control_c, 0, 64, 63
2, 40060, Control_c, 0, 64, 0
2, 40072, Note_on_c, 0, 87, 0
2, 40112, Control_c, 0, 64, 63
2, 40120, Control_c, 0, 64, 127
2, 40146, Note_on_c, 0, 64, 54
2, 40189, Note_on_c, 0, 69, 0
2, 40220, Note_on_c, 0, 88, 0
2, 40237, Note_on_c, 0, 87, 72
2, 40244, Note_on_c, 0, 64, 0
2, 40253, Note_on_c, 0, 68, 77
2, 40258, Note_on_c, 0, 71, 76
2, 40262, Note_on_c, 0, 73, 0
2, 40272, Control_c, 0, 64, 63
2, 40272, Note_on_c, 0, 88, 81
2, 40278, Control_c, 0, 64, 0
2, 40295, Note_on_c, 0, 87, 0
2, 40315, Control_c, 0, 64, 63
2, 40322, Control_c, 0, 64, 127
2, 40335, Note_on_c, 0, 88, 0
2, 40399, Note_on_c, 0, 64, 49
2, 40420, Note_on_c, 0, 71, 0
2, 40429, Note_on_c, 0, 68, 0
2, 40466, Note_on_c, 0, 64, 0
2, 40562, Note_on_c, 0, 73, 78
2, 40563, Note_on_c, 0, 45, 46
2, 40643, Control_c, 0, 64, 63
2, 40651, Control_c, 0, 64, 0
2, 40677, Note_on_c, 0, 71, 76
2, 40678, Note_on_c, 0, 73, 0
2, 40680, Note_on_c, 0, 44, 72
2, 40691, Note_on_c, 0, 64, 5
2, 40705, Note_on_c, 0, 45, 0
2, 40707, Control_c, 0, 64, 63
2, 40714, Control_c, 0, 64, 127
2, 40785, Note_on_c, 0, 73, 106
2, 40792, Note_on_c, 0, 45, 79
2, 40833, Note_on_c, 0, 44, 0
2, 40838, Note_on_c, 0, 71, 0
2, 40886, Note_on_c, 0, 47, 93
2, 40887, Note_on_c, 0, 74, 100
2, 40900, Note_on_c, 0, 45, 0
2, 40957, Note_on_c, 0, 73, 0
2, 40969, Note_on_c, 0, 74, 0
2, 41008, Note_on_c, 0, 49, 80
2, 41010, Note_on_c, 0, 76, 103
2, 41035, Note_on_c, 0, 64, 0
2, 41035, Note_on_c, 0, 47, 0
2, 41036, Control_c, 0, 64, 63
2, 41047, Control_c, 0, 64, 0
2, 41083, Control_c, 0, 64, 63
2, 41091, Control_c, 0, 64, 127
2, 41131, Note_on_c, 0, 64, 27
2, 41155, Note_on_c, 0, 76, 0
2, 41240, Note_on_c, 0, 64, 0
2, 41240, Note_on_c, 0, 49, 0
2, 41243, Note_on_c, 0, 52, 65
2, 41246, Note_on_c, 0, 73, 97
2, 41251, Note_on_c, 0, 69, 75
2, 41268, Control_c, 0, 64, 63
2, 41279, Control_c, 0, 64, 0
2, 41309, Control_c, 0, 64, 63
2, 41319, Control_c, 0, 64, 127
2, 41350, Note_on_c, 0, 64, 57
2, 41383, Note_on_c, 0, 69, 0
2, 41449, Note_on_c, 0, 64, 0
2, 41455, Note_on_c, 0, 73, 0
2, 41459, Note_on_c, 0, 68, 81
2, 41459, Note_on_c, 0, 71, 70
2, 41462, Note_on_c, 0, 40, 54
2, 41464, Note_on_c, 0, 52, 0
2, 41466, Control_c, 0, 64, 63
2, 41473, Control_c, 0, 64, 0
2, 41507, Control_c, 0, 64, 63
2, 41516, Control_c, 0, 64, 127
2, 41562, Note_on_c, 0, 71, 0
2, 41582, Note_on_c, 0, 64, 42
2, 41617, Note_on_c, 0, 68, 0
2, 41662, Control_c, 0, 64, 63
2, 41667, Control_c, 0, 64, 0
2, 41686, Note_on_c, 0, 69, 64
2, 41692, Note_on_c, 0, 45, 60
2, 41697, Control_c, 0, 64, 63
2, 41703, Note_on_c, 0, 64, 0
2, 41704, Note_on_c, 0, 40, 0
2, 41704, Control_c, 0, 64, 127
2, 41737, Note_on_c, 0, 45, 0
2, 41774, Note_on_c, 0, 69, 0
2, 41925, Note_on_c, 0, 85, 66
2, 41932, Note_on_c, 0, 69, 56
2, 41936, Note_on_c, 0, 73, 63
2, 41998, Note_on_c, 0, 73, 0
2, 42016, Note_on_c, 0, 69, 0
2, 42020, Note_on_c, 0, 71, 72
2, 42024, Note_on_c, 0, 83, 71
2, 42029, Note_on_c, 0, 68, 67
2, 42034, Note_on_c, 0, 85, 0
2, 42102, Note_on_c, 0, 68, 0
2, 42130, Note_on_c, 0, 85, 96
2, 42132, Note_on_c, 0, 73, 92
2, 42137, Note_on_c, 0, 71, 0
2, 42138, Note_on_c, 0, 69, 78
2, 42160, Note_on_c, 0, 83, 0
2, 42222, Note_on_c, 0, 86, 99
2, 42224, Note_on_c, 0, 69, 0
2, 42225, Note_on_c, 0, 73, 0
2, 42235, Note_on_c, 0, 74, 83
2, 42246, Note_on_c, 0, 71, 51
2, 42250, Note_on_c, 0, 73, 60
2, 42260, Note_on_c, 0, 85, 0
2, 42291, Note_on_c, 0, 73, 0
2, 42295, Note_on_c, 0, 71, 0
2, 42305, Note_on_c, 0, 74, 0
2, 42344, Note_on_c, 0, 88, 102
2, 42351, Note_on_c, 0, 86, 0
2, 42351, Note_on_c, 0, 73, 88
2, 42353, Note_on_c, 0, 76, 79
2, 42380, Control_c, 0, 64, 63
2, 42395, Control_c, 0, 64, 0
2, 42408, Control_c, 0, 64, 63
2, 42426, Control_c, 0, 64, 127
2, 42443, Note_on_c, 0, 73, 0
2, 42455, Note_on_c, 0, 64, 44
2, 42537, Note_on_c, 0, 76, 0
2, 42561, Note_on_c, 0, 64, 0
2, 42571, Note_on_c, 0, 85, 87
2, 42577, Note_on_c, 0, 73, 88
2, 42578, Note_on_c, 0, 69, 68
2, 42600, Control_c, 0, 64, 63
2, 42612, Note_on_c, 0, 88, 0
2, 42614, Control_c, 0, 64, 0
2, 42649, Control_c, 0, 64, 63
2, 42658, Control_c, 0, 64, 127
2, 42678, Note_on_c, 0, 64, 56
2, 42709, Note_on_c, 0, 69, 0
2, 42769, Note_on_c, 0, 64, 0
2, 42769, Note_on_c, 0, 73, 0
2, 42788, Note_on_c, 0, 71, 64
2, 42793, Note_on_c, 0, 68, 74
2, 42801, Note_on_c, 0, 83, 60
2, 42807, Control_c, 0, 64, 63
2, 42809, Note_on_c, 0, 85, 0
2, 42834, Control_c, 0, 64, 0
2, 42839, Control_c, 0, 64, 63
2, 42863, Control_c, 0, 64, 127
2, 42899, Note_on_c, 0, 71, 0
2, 42912, Note_on_c, 0, 64, 42
2, 42934, Note_on_c, 0, 68, 0
2, 43011, Control_c, 0, 64, 63
2, 43019, Note_on_c, 0, 69, 63
2, 43022, Control_c, 0, 64, 0
2, 43024, Note_on_c, 0, 64, 0
2, 43027, Note_on_c, 0, 81, 65
2, 43051, Control_c, 0, 64, 63
2, 43059, Note_on_c, 0, 83, 0
2, 43062, Control_c, 0, 64, 127
2, 43072, Note_on_c, 0, 81, 0
2, 43118, Note_on_c, 0, 69, 0
2, 43132, Note_on_c, 0, 64, 45
2, 43236, Note_on_c, 0, 64, 0
2, 43238, Note_on_c, 0, 66, 77
2, 43249, Note_on_c, 0, 59, 60
2, 43260, Note_on_c, 0, 50, 46
2, 43272, Control_c, 0, 64, 63
2, 43279, Control_c, 0, 64, 0
2, 43345, Note_on_c, 0, 74, 78
2, 43358, Note_on_c, 0, 66, 0
2, 43397, Note_on_c, 0, 59, 0
2, 43430, Control_c, 0, 64, 63
2, 43438, Control_c, 0, 64, 127
2, 43453, Note_on_c, 0, 50, 0
2, 43462, Note_on_c, 0, 62, 79
2, 43463, Note_on_c, 0, 74, 0
2, 43464, Note_on_c, 0, 71, 74
2, 43470, Note_on_c, 0, 52, 64
2, 43527, Note_on_c, 0, 52, 0
2, 43554, Note_on_c, 0, 68, 70
2, 43575, Note_on_c, 0, 71, 0
2, 43577, Control_c, 0, 64, 63
2, 43586, Control_c, 0, 64, 0
2, 43664, Note_on_c, 0, 68, 0
2, 43670, Note_on_c, 0, 69, 58
2, 43674, Note_on_c, 0, 61, 57
2, 43682, Note_on_c, 0, 62, 0
2, 43682, Note_on_c, 0, 57, 43
2, 43708, Control_c, 0, 64, 63
2, 43714, Control_c, 0, 64, 127
2, 43754, Note_on_c, 0, 69, 0
2, 43755, Note_on_c, 0, 61, 0
2, 43767, Note_on_c, 0, 57, 0
2, 43772, Note_on_c, 0, 64, 45
2, 43867, Control_c, 0, 64, 63
2, 43874, Note_on_c, 0, 64, 0
2, 43875, Control_c, 0, 64, 0
2, 43884, Note_on_c, 0, 66, 78
2, 43888, Note_on_c, 0, 59, 52
2, 43900, Note_on_c, 0, 50, 39
2, 43945, Control_c, 0, 64, 63
2, 43954, Control_c, 0, 64, 127
2, 43977, Note_on_c, 0, 66, 0
2, 43980, Note_on_c, 0, 74, 59
2, 44006, Note_on_c, 0, 59, 0
2, 44081, Note_on_c, 0, 50, 0
2, 44095, Note_on_c, 0, 74, 0
2, 44105, Note_on_c, 0, 71, 58
2, 44107, Note_on_c, 0, 62, 55
2, 44109, Note_on_c, 0, 52, 59
2, 44112, Control_c, 0, 64, 63
2, 44125, Control_c, 0, 64, 0
2, 44175, Note_on_c, 0, 52, 0
2, 44195, Note_on_c, 0, 68, 72
2, 44206, Note_on_c, 0, 71, 0
2, 44312, Note_on_c, 0, 68, 0
2, 44315, Note_on_c, 0, 69, 60
2, 44319, Note_on_c, 0, 57, 30
2, 44322, Note_on_c, 0, 61, 41
2, 44325, Note_on_c, 0, 62, 0
2, 44336, Control_c, 0, 64, 63
2, 44352, Control_c, 0, 64, 127
2, 44430, Note_on_c, 0, 68, 60
2, 44441, Note_on_c, 0, 69, 0
2, 44488, Note_on_c, 0, 61, 0
2, 44492, Note_on_c, 0, 57, 0
2, 44547, Note_on_c, 0, 68, 0
2, 44552, Note_on_c, 0, 69, 47
2, 44642, Note_on_c, 0, 69, 0
2, 44652, Note_on_c, 0, 71, 51
2, 44689, Control_c, 0, 64, 63
2, 44717, Control_c, 0, 64, 0
2, 44759, Control_c, 0, 64, 63
2, 44780, Control_c, 0, 64, 127
2, 44783, Note_on_c, 0, 67, 32
2, 44789, Note_on_c, 0, 71, 0
2, 44894, Note_on_c, 0, 67, 0
2, 44917, Note_on_c, 0, 64, 21
2, 45053, Note_on_c, 0, 64, 0
2, 45074, Note_on_c, 0, 66, 53
2, 45088, Note_on_c, 0, 47, 27
2, 45093, Note_on_c, 0, 69, 43
2, 45105, Note_on_c, 0, 35, 32
2, 45136, Control_c, 0, 64, 63
2, 45156, Control_c, 0, 64, 0
2, 45177, Control_c, 0, 64, 63
2, 45201, Control_c, 0, 64, 127
2, 45235, Note_on_c, 0, 59, 46
2, 45238, Note_on_c, 0, 66, 0
2, 45305, Note_on_c, 0, 59, 0
2, 45312, Note_on_c, 0, 69, 0
2, 45362, Note_on_c, 0, 66, 87
2, 45374, Note_on_c, 0, 63, 57
2, 45462, Note_on_c, 0, 59, 49
2, 45485, Note_on_c, 0, 63, 0
2, 45558, Note_on_c, 0, 66, 0
2, 45580, Note_on_c, 0, 67, 86
2, 45586, Note_on_c, 0, 64, 79
2, 45593, Note_on_c, 0, 59, 0
2, 45648, Control_c, 0, 64, 63
2, 45658, Control_c, 0, 64, 0
2, 45676, Note_on_c, 0, 59, 68
2, 45680, Control_c, 0, 64, 63
2, 45691, Control_c, 0, 64, 127
2, 45716, Note_on_c, 0, 64, 0
2, 45731, Note_on_c, 0, 35, 0
2, 45735, Note_on_c, 0, 67, 0
2, 45753, Note_on_c, 0, 47, 0
2, 45787, Note_on_c, 0, 59, 0
2, 45800, Note_on_c, 0, 69, 76
2, 45803, Note_on_c, 0, 66, 79
2, 45861, Note_on_c, 0, 66, 0
2, 45904, Note_on_c, 0, 59, 54
2, 45924, Note_on_c, 0, 69, 0
2, 46021, Note_on_c, 0, 84, 75
2, 46030, Note_on_c, 0, 66, 78
2, 46031, Note_on_c, 0, 63, 65
2, 46039, Note_on_c, 0, 59, 0
2, 46049, Control_c, 0, 64, 63
2, 46068, Control_c, 0, 64, 0
2, 46077, Control_c, 0, 64, 63
2, 46099, Control_c, 0, 64, 127
2, 46129, Note_on_c, 0, 59, 65
2, 46136, Note_on_c, 0, 83, 77
2, 46149, Note_on_c, 0, 63, 0
2, 46160, Note_on_c, 0, 84, 0
2, 46188, Note_on_c, 0, 66, 0
2, 46240, Note_on_c, 0, 81, 97
2, 46245, Note_on_c, 0, 59, 0
2, 46250, Note_on_c, 0, 67, 59
2, 46254, Note_on_c, 0, 83, 0
2, 46261, Note_on_c, 0, 64, 37
2, 46327, Note_on_c, 0, 67, 0
2, 46338, Note_on_c, 0, 79, 99
2, 46341, Note_on_c, 0, 64, 0
2, 46345, Note_on_c, 0, 59, 71
2, 46357, Note_on_c, 0, 81, 0
2, 46459, Note_on_c, 0, 78, 108
2, 46466, Note_on_c, 0, 69, 63
2, 46469, Control_c, 0, 64, 63
2, 46471, Note_on_c, 0, 66, 62
2, 46481, Note_on_c, 0, 59, 0
2, 46484, Control_c, 0, 64, 0
2, 46485, Note_on_c, 0, 79, 0
2, 46533, Control_c, 0, 64, 63
2, 46543, Control_c, 0, 64, 127
2, 46560, Note_on_c, 0, 69, 0
2, 46568, Note_on_c, 0, 59, 68
2, 46578, Note_on_c, 0, 66, 0
2, 46615, Note_on_c, 0, 78, 0
2, 46664, Note_on_c, 0, 59, 0
2, 46682, Note_on_c, 0, 81, 99
2, 46693, Note_on_c, 0, 66, 85
2, 46697, Note_on_c, 0, 63, 69
2, 46714, Control_c, 0, 64, 63
2, 46741, Control_c, 0, 64, 0
2, 46759, Control_c, 0, 64, 63
2, 46779, Control_c, 0, 64, 127
2, 46780, Note_on_c, 0, 59, 76
2, 46788, Note_on_c, 0, 79, 79
2, 46804, Note_on_c, 0, 81, 0
2, 46807, Note_on_c, 0, 63, 0
2, 46827, Note_on_c, 0, 66, 0
2, 46878, Note_on_c, 0, 79, 0
2, 46888, Note_on_c, 0, 78, 110
2, 46895, Control_c, 0, 64, 63
2, 46899, Note_on_c, 0, 67, 82
2, 46900, Note_on_c, 0, 64, 80
2, 46908, Control_c, 0, 64, 0
2, 46922, Note_on_c, 0, 59, 0
2, 46942, Control_c, 0, 64, 63
2, 46952, Control_c, 0, 64, 127
2, 46982, Note_on_c, 0, 64, 0
2, 46982, Note_on_c, 0, 76, 106
2, 46989, Note_on_c, 0, 67, 0
2, 46993, Note_on_c, 0, 59, 90
2, 46997, Note_on_c, 0, 78, 0
2, 47034, Control_c, 0, 64, 63
2, 47039, Control_c, 0, 64, 0
2, 47095, Note_on_c, 0, 59, 0
2, 47096, Control_c, 0, 64, 63
2, 47099, Control_c, 0, 64, 127
2, 47104, Note_on_c, 0, 75, 113
2, 47107, Note_on_c, 0, 69, 93
2, 47109, Note_on_c, 0, 66, 95
2, 47132, Note_on_c, 0, 76, 0
2, 47139, Note_on_c, 0, 75, 0
2, 47143, Note_on_c, 0, 66, 0
2, 47156, Note_on_c, 0, 69, 0
2, 47341, Note_on_c, 0, 83, 102
2, 47344, Note_on_c, 0, 71, 97
2, 47348, Note_on_c, 0, 59, 109
2, 47350, Note_on_c, 0, 47, 100
2, 47353, Control_c, 0, 64, 63
2, 47357, Control_c, 0, 64, 0
2, 47375, Note_on_c, 0, 71, 0
2, 47379, Note_on_c, 0, 59, 0
2, 47381, Note_on_c, 0, 47, 0
2, 47382, Note_on_c, 0, 83, 0
2, 47444, Note_on_c, 0, 57, 99
2, 47446, Note_on_c, 0, 45, 97
2, 47448, Note_on_c, 0, 81, 98
2, 47456, Note_on_c, 0, 69, 58
2, 47467, Note_on_c, 0, 57, 0
2, 47469, Note_on_c, 0, 81, 0
2, 47475, Note_on_c, 0, 45, 0
2, 47483, Note_on_c, 0, 69, 0
2, 47545, Note_on_c, 0, 55, 106
2, 47548, Note_on_c, 0, 43, 107
2, 47559, Note_on_c, 0, 67, 105
2, 47561, Note_on_c, 0, 79, 102
2, 47574, Note_on_c, 0, 55, 0
2, 47581, Note_on_c, 0, 43, 0
2, 47585, Note_on_c, 0, 67, 0
2, 47586, Note_on_c, 0, 79, 0
2, 47641, Note_on_c, 0, 78, 108
2, 47642, Note_on_c, 0, 66, 110
2, 47645, Note_on_c, 0, 54, 116
2, 47649, Note_on_c, 0, 42, 109
2, 47669, Note_on_c, 0, 66, 0
2, 47674, Note_on_c, 0, 42, 0
2, 47678, Note_on_c, 0, 54, 0
2, 47679, Note_on_c, 0, 78, 0
2, 47756, Note_on_c, 0, 76, 108
2, 47757, Note_on_c, 0, 52, 112
2, 47759, Note_on_c, 0, 40, 108
2, 47759, Note_on_c, 0, 64, 100
2, 47775, Note_on_c, 0, 64, 0
2, 47785, Note_on_c, 0, 76, 0
2, 47786, Note_on_c, 0, 52, 0
2, 47787, Note_on_c, 0, 40, 0
2, 47975, Note_on_c, 0, 76, 106
2, 47977, Note_on_c, 0, 64, 100
2, 47977, Note_on_c, 0, 40, 99
2, 47978, Note_on_c, 0, 52, 113
2, 48006, Note_on_c, 0, 64, 0
2, 48007, Note_on_c, 0, 40, 0
2, 48012, Note_on_c, 0, 76, 0
2, 48012, Note_on_c, 0, 52, 0
2, 48182, Note_on_c, 0, 83, 102
2, 48183, Note_on_c, 0, 71, 103
2, 48184, Note_on_c, 0, 47, 100
2, 48185, Note_on_c, 0, 59, 113
2, 48191, Control_c, 0, 64, 127
2, 48212, Note_on_c, 0, 59, 0
2, 48212, Note_on_c, 0, 71, 0
2, 48213, Note_on_c, 0, 83, 0
2, 48220, Note_on_c, 0, 47, 0
2, 48235, Control_c, 0, 64, 63
2, 48241, Control_c, 0, 64, 0
2, 48396, Note_on_c, 0, 76, 108
2, 48397, Note_on_c, 0, 40, 100
2, 48398, Note_on_c, 0, 64, 104
2, 48399, Note_on_c, 0, 52, 117
2, 48409, Control_c, 0, 64, 127
2, 48426, Note_on_c, 0, 64, 0
2, 48427, Note_on_c, 0, 40, 0
2, 48429, Note_on_c, 0, 52, 0
2, 48443, Note_on_c, 0, 76, 0
2, 48614, Control_c, 0, 64, 63
2, 48617, Control_c, 0, 64, 0
2, 48621, Note_on_c, 0, 71, 101
2, 48622, Note_on_c, 0, 83, 101
2, 48623, Note_on_c, 0, 59, 109
2, 48624, Note_on_c, 0, 47, 103
2, 48652, Note_on_c, 0, 71, 0
2, 48656, Note_on_c, 0, 83, 0
2, 48657, Note_on_c, 0, 59, 0
2, 48661, Note_on_c, 0, 47, 0
2, 48718, Note_on_c, 0, 81, 103
2, 48719, Note_on_c, 0, 57, 106
2, 48721, Note_on_c, 0, 69, 98
2, 48723, Note_on_c, 0, 45, 97
2, 48747, Note_on_c, 0, 69, 0
2, 48749, Note_on_c, 0, 45, 0
2, 48753, Note_on_c, 0, 57, 0
2, 48756, Note_on_c, 0, 81, 0
2, 48820, Note_on_c, 0, 55, 100
2, 48820, Note_on_c, 0, 43, 107
2, 48830, Note_on_c, 0, 79, 96
2, 48830, Note_on_c, 0, 67, 83
2, 48845, Note_on_c, 0, 79, 0
2, 48849, Note_on_c, 0, 67, 0
2, 48850, Note_on_c, 0, 55, 0
2, 48859, Note_on_c, 0, 43, 0
2, 48915, Note_on_c, 0, 78, 106
2, 48916, Note_on_c, 0, 66, 110
2, 48923, Note_on_c, 0, 54, 113
2, 48927, Note_on_c, 0, 42, 110
2, 48947, Note_on_c, 0, 66, 0
2, 48955, Note_on_c, 0, 78, 0
2, 48955, Note_on_c, 0, 54, 0
2, 48960, Note_on_c, 0, 42, 0
2, 49029, Note_on_c, 0, 76, 107
2, 49030, Note_on_c, 0, 64, 102
2, 49030, Note_on_c, 0, 52, 113
2, 49032, Note_on_c, 0, 40, 111
2, 49047, Note_on_c, 0, 64, 0
2, 49050, Note_on_c, 0, 76, 0
2, 49058, Note_on_c, 0, 52, 0
2, 49058, Note_on_c, 0, 40, 0
2, 49251, Note_on_c, 0, 52, 116
2, 49252, Note_on_c, 0, 76, 104
2, 49252, Note_on_c, 0, 40, 111
2, 49253, Note_on_c, 0, 64, 94
2, 49271, Note_on_c, 0, 64, 0
2, 49279, Note_on_c, 0, 40, 0
2, 49282, Note_on_c, 0, 52, 0
2, 49284, Note_on_c, 0, 76, 0
2, 49455, Note_on_c, 0, 83, 100
2, 49457, Note_on_c, 0, 59, 114
2, 49457, Note_on_c, 0, 47, 106
2, 49459, Note_on_c, 0, 71, 99
2, 49486, Note_on_c, 0, 71, 0
2, 49486, Note_on_c, 0, 83, 0
2, 49487, Note_on_c, 0, 59, 0
2, 49492, Note_on_c, 0, 47, 0
2, 49675, Note_on_c, 0, 76, 109
2, 49675, Note_on_c, 0, 52, 114
2, 49676, Note_on_c, 0, 40, 107
2, 49676, Note_on_c, 0, 64, 103
2, 49693, Control_c, 0, 64, 127
2, 49704, Note_on_c, 0, 40, 0
2, 49705, Note_on_c, 0, 52, 0
2, 49750, Note_on_c, 0, 64, 0
2, 49805, Note_on_c, 0, 76, 0
2, 49957, Note_on_c, 0, 76, 69
2, 50025, Note_on_c, 0, 76, 0
2, 50025, Control_c, 0, 64, 63
2, 50060, Control_c, 0, 64, 0
2, 50082, Note_on_c, 0, 74, 65
2, 50154, Note_on_c, 0, 74, 0
2, 50192, Note_on_c, 0, 76, 65
2, 50279, Note_on_c, 0, 76, 0
2, 50310, Note_on_c, 0, 77, 81
2, 50440, Note_on_c, 0, 77, 0
2, 50471, Note_on_c, 0, 79, 72
2, 50480, Note_on_c, 0, 60, 37
2, 50570, Control_c, 0, 64, 63
2, 50580, Control_c, 0, 64, 127
2, 50631, Note_on_c, 0, 64, 33
2, 50679, Note_on_c, 0, 79, 0
2, 50762, Note_on_c, 0, 64, 0
2, 50772, Note_on_c, 0, 79, 61
2, 50775, Note_on_c, 0, 67, 18
2, 50882, Note_on_c, 0, 67, 0
2, 50894, Note_on_c, 0, 64, 17
2, 51007, Note_on_c, 0, 59, 51
2, 51011, Note_on_c, 0, 60, 0
2, 51017, Note_on_c, 0, 65, 21
2, 51023, Control_c, 0, 64, 63
2, 51053, Note_on_c, 0, 64, 0
2, 51057, Control_c, 0, 64, 127
2, 51096, Note_on_c, 0, 79, 0
2, 51133, Note_on_c, 0, 79, 86
2, 51140, Note_on_c, 0, 62, 57
2, 51182, Note_on_c, 0, 65, 0
2, 51265, Note_on_c, 0, 59, 0
2, 51272, Note_on_c, 0, 60, 39
2, 51275, Note_on_c, 0, 84, 83
2, 51291, Note_on_c, 0, 79, 0
2, 51309, Note_on_c, 0, 62, 0
2, 51314, Control_c, 0, 64, 63
2, 51325, Control_c, 0, 64, 0
2, 51408, Note_on_c, 0, 64, 42
2, 51473, Control_c, 0, 64, 63
2, 51487, Control_c, 0, 64, 127
2, 51525, Note_on_c, 0, 79, 57
2, 51533, Note_on_c, 0, 67, 32
2, 51549, Note_on_c, 0, 84, 0
2, 51550, Note_on_c, 0, 64, 0
2, 51636, Note_on_c, 0, 67, 0
2, 51651, Note_on_c, 0, 64, 19
2, 51736, Note_on_c, 0, 79, 0
2, 51747, Note_on_c, 0, 59, 50
2, 51753, Note_on_c, 0, 60, 0
2, 51760, Note_on_c, 0, 65, 32
2, 51762, Note_on_c, 0, 64, 0
2, 51874, Note_on_c, 0, 62, 49
2, 51906, Note_on_c, 0, 65, 0
2, 51984, Note_on_c, 0, 59, 0
2, 51985, Note_on_c, 0, 79, 71
2, 51990, Note_on_c, 0, 60, 46
2, 52017, Control_c, 0, 64, 63
2, 52021, Note_on_c, 0, 62, 0
2, 52033, Control_c, 0, 64, 0
2, 52085, Control_c, 0, 64, 63
2, 52100, Control_c, 0, 64, 127
2, 52101, Note_on_c, 0, 64, 65
2, 52163, Note_on_c, 0, 79, 0
2, 52217, Note_on_c, 0, 64, 0
2, 52218, Note_on_c, 0, 67, 37
2, 52220, Note_on_c, 0, 79, 96
2, 52302, Note_on_c, 0, 67, 0
2, 52313, Note_on_c, 0, 64, 50
2, 52410, Control_c, 0, 64, 63
2, 52418, Note_on_c, 0, 59, 69
2, 52425, Control_c, 0, 64, 0
2, 52428, Note_on_c, 0, 65, 60
2, 52430, Note_on_c, 0, 60, 0
2, 52454, Note_on_c, 0, 64, 0
2, 52460, Control_c, 0, 64, 63
2, 52472, Note_on_c, 0, 79, 0
2, 52473, Control_c, 0, 64, 127
2, 52535, Note_on_c, 0, 62, 76
2, 52537, Note_on_c, 0, 79, 96
2, 52546, Note_on_c, 0, 65, 0
2, 52637, Note_on_c, 0, 59, 0
2, 52648, Note_on_c, 0, 84, 94
2, 52648, Note_on_c, 0, 60, 58
2, 52679, Note_on_c, 0, 62, 0
2, 52687, Note_on_c, 0, 79, 0
2, 52714, Control_c, 0, 64, 63
2, 52723, Control_c, 0, 64, 0
2, 52761, Note_on_c, 0, 64, 77
2, 52813, Control_c, 0, 64, 63
2, 52820, Control_c, 0, 64, 127
2, 52870, Note_on_c, 0, 79, 92
2, 52873, Note_on_c, 0, 67, 51
2, 52893, Note_on_c, 0, 64, 0
2, 52902, Note_on_c, 0, 84, 0
2, 52961, Note_on_c, 0, 67, 0
2, 52971, Note_on_c, 0, 64, 64
2, 53009, Note_on_c, 0, 60, 0
2, 53082, Note_on_c, 0, 60, 87
2, 53099, Control_c, 0, 64, 63
2, 53104, Control_c, 0, 64, 0
2, 53126, Note_on_c, 0, 64, 0
2, 53151, Control_c, 0, 64, 63
2, 53155, Control_c, 0, 64, 127
2, 53200, Note_on_c, 0, 79, 0
2, 53212, Note_on_c, 0, 64, 70
2, 53261, Note_on_c, 0, 79, 91
2, 53346, Note_on_c, 0, 88, 100
2, 53355, Note_on_c, 0, 58, 78
2, 53363, Note_on_c, 0, 79, 0
2, 53388, Note_on_c, 0, 60, 0
2, 53402, Control_c, 0, 64, 63
2, 53410, Control_c, 0, 64, 0
2, 53456, Control_c, 0, 64, 63
2, 53462, Control_c, 0, 64, 127
2, 53468, Note_on_c, 0, 64, 0
2, 53492, Note_on_c, 0, 60, 73
2, 53604, Note_on_c, 0, 64, 63
2, 53610, Note_on_c, 0, 79, 89
2, 53660, Note_on_c, 0, 88, 0
2, 53707, Note_on_c, 0, 67, 74
2, 53736, Note_on_c, 0, 64, 0
2, 53808, Note_on_c, 0, 79, 0
2, 53815, Note_on_c, 0, 60, 0
2, 53819, Note_on_c, 0, 58, 0
2, 53819, Note_on_c, 0, 64, 79
2, 53830, Note_on_c, 0, 67, 0
2, 53919, Note_on_c, 0, 60, 90
2, 53974, Note_on_c, 0, 79, 100
2, 54030, Note_on_c, 0, 57, 84
2, 54042, Note_on_c, 0, 88, 108
2, 54057, Control_c, 0, 64, 63
2, 54062, Control_c, 0, 64, 0
2, 54067, Note_on_c, 0, 60, 0
2, 54082, Note_on_c, 0, 79, 0
2, 54116, Note_on_c, 0, 64, 0
2, 54144, Control_c, 0, 64, 63
2, 54145, Control_c, 0, 64, 127
2, 54157, Note_on_c, 0, 61, 95
2, 54266, Note_on_c, 0, 79, 94
2, 54271, Note_on_c, 0, 64, 70
2, 54298, Note_on_c, 0, 88, 0
2, 54370, Note_on_c, 0, 67, 82
2, 54378, Note_on_c, 0, 61, 0
2, 54398, Note_on_c, 0, 64, 0
2, 54465, Note_on_c, 0, 79, 0
2, 54475, Note_on_c, 0, 64, 82
2, 54497, Note_on_c, 0, 67, 0
2, 54574, Note_on_c, 0, 61, 104
2, 54606, Note_on_c, 0, 64, 0
2, 54617, Note_on_c, 0, 57, 0
2, 54644, Note_on_c, 0, 79, 106
2, 54691, Note_on_c, 0, 79, 0
2, 54715, Note_on_c, 0, 79, 91
2, 54721, Note_on_c, 0, 62, 74
2, 54723, Note_on_c, 0, 57, 51
2, 54748, Note_on_c, 0, 61, 0
2, 54833, Control_c, 0, 64, 63
2, 54841, Control_c, 0, 64, 0
2, 54848, Note_on_c, 0, 77, 88
2, 54906, Note_on_c, 0, 79, 0
2, 54937, Control_c, 0, 64, 63
2, 54944, Control_c, 0, 64, 127
2, 54960, Note_on_c, 0, 76, 97
2, 55006, Note_on_c, 0, 77, 0
2, 55031, Note_on_c, 0, 57, 0
2, 55056, Note_on_c, 0, 77, 101
2, 55090, Note_on_c, 0, 76, 0
2, 55158, Note_on_c, 0, 64, 84
2, 55158, Note_on_c, 0, 56, 76
2, 55165, Note_on_c, 0, 76, 99
2, 55168, Control_c, 0, 64, 63
2, 55169, Note_on_c, 0, 62, 0
2, 55178, Control_c, 0, 64, 0
2, 55204, Note_on_c, 0, 77, 0
2, 55239, Control_c, 0, 64, 63
2, 55248, Control_c, 0, 64, 127
2, 55257, Note_on_c, 0, 56, 0
2, 55269, Note_on_c, 0, 65, 85
2, 55271, Note_on_c, 0, 74, 89
2, 55280, Note_on_c, 0, 76, 0
2, 55300, Note_on_c, 0, 64, 0
2, 55380, Note_on_c, 0, 73, 100
2, 55389, Note_on_c, 0, 64, 55
2, 55393, Note_on_c, 0, 57, 32
2, 55395, Note_on_c, 0, 74, 0
2, 55398, Control_c, 0, 64, 63
2, 55409, Control_c, 0, 64, 0
2, 55418, Note_on_c, 0, 65, 0
2, 55457, Control_c, 0, 64, 63
2, 55468, Control_c, 0, 64, 127
2, 55489, Note_on_c, 0, 73, 0
2, 55494, Note_on_c, 0, 80, 89
2, 55589, Control_c, 0, 64, 63
2, 55600, Control_c, 0, 64, 0
2, 55600, Note_on_c, 0, 81, 90
2, 55625, Note_on_c, 0, 80, 0
2, 55705, Note_on_c, 0, 80, 100
2, 55729, Note_on_c, 0, 81, 0
2, 55753, Note_on_c, 0, 57, 0
2, 55773, Note_on_c, 0, 64, 0
2, 55808, Note_on_c, 0, 81, 91
2, 55847, Note_on_c, 0, 80, 0
2, 55916, Note_on_c, 0, 76, 99
2, 55931, Note_on_c, 0, 81, 0
2, 56044, Note_on_c, 0, 68, 103
2, 56050, Note_on_c, 0, 58, 86
2, 56051, Note_on_c, 0, 79, 89
2, 56056, Note_on_c, 0, 62, 83
2, 56075, Note_on_c, 0, 76, 0
2, 56170, Note_on_c, 0, 77, 87
2, 56216, Note_on_c, 0, 79, 0
2, 56276, Note_on_c, 0, 76, 87
2, 56324, Note_on_c, 0, 77, 0
2, 56383, Note_on_c, 0, 77, 83
2, 56406, Note_on_c, 0, 76, 0
2, 56497, Note_on_c, 0, 76, 84
2, 56528, Note_on_c, 0, 77, 0
2, 56552, Control_c, 0, 64, 63
2, 56557, Control_c, 0, 64, 127
2, 56591, Note_on_c, 0, 62, 0
2, 56605, Note_on_c, 0, 74, 79
2, 56614, Note_on_c, 0, 76, 0
2, 56636, Note_on_c, 0, 58, 0
2, 56649, Note_on_c, 0, 68, 0
2, 56716, Note_on_c, 0, 81, 64
2, 56723, Note_on_c, 0, 74, 0
2, 56723, Note_on_c, 0, 57, 28
2, 56724, Note_on_c, 0, 69, 51
2, 56729, Note_on_c, 0, 61, 59
2, 56751, Control_c, 0, 64, 63
2, 56758, Control_c, 0, 64, 0
2, 56809, Control_c, 0, 64, 63
2, 56817, Control_c, 0, 64, 127
2, 56841, Note_on_c, 0, 80, 79
2, 56855, Note_on_c, 0, 81, 0
2, 56916, Control_c, 0, 64, 63
2, 56922, Control_c, 0, 64, 0
2, 56934, Note_on_c, 0, 69, 0
2, 56947, Note_on_c, 0, 81, 68
2, 56948, Note_on_c, 0, 61, 0
2, 56949, Note_on_c, 0, 57, 0
2, 56958, Note_on_c, 0, 80, 0
2, 57042, Note_on_c, 0, 81, 0
2, 57042, Note_on_c, 0, 76, 74
2, 57154, Note_on_c, 0, 65, 61
2, 57154, Note_on_c, 0, 62, 62
2, 57155, Note_on_c, 0, 77, 73
2, 57156, Note_on_c, 0, 76, 0
2, 57161, Note_on_c, 0, 57, 35
2, 57167, Control_c, 0, 64, 63
2, 57173, Control_c, 0, 64, 127
2, 57262, Note_on_c, 0, 74, 71
2, 57267, Note_on_c, 0, 65, 0
2, 57281, Note_on_c, 0, 57, 0
2, 57282, Note_on_c, 0, 77, 0
2, 57291, Note_on_c, 0, 62, 0
2, 57359, Note_on_c, 0, 74, 0
2, 57367, Control_c, 0, 64, 63
2, 57375, Control_c, 0, 64, 0
2, 57378, Note_on_c, 0, 61, 55
2, 57379, Note_on_c, 0, 64, 41
2, 57379, Note_on_c, 0, 81, 59
2, 57385, Note_on_c, 0, 57, 30
2, 57477, Control_c, 0, 64, 63
2, 57482, Note_on_c, 0, 80, 76
2, 57483, Control_c, 0, 64, 127
2, 57490, Note_on_c, 0, 81, 0
2, 57588, Note_on_c, 0, 81, 70
2, 57589, Control_c, 0, 64, 63
2, 57593, Control_c, 0, 64, 0
2, 57594, Note_on_c, 0, 80, 0
2, 57602, Note_on_c, 0, 64, 0
2, 57608, Note_on_c, 0, 61, 0
2, 57608, Note_on_c, 0, 57, 0
2, 57687, Note_on_c, 0, 76, 59
2, 57688, Note_on_c, 0, 81, 0
2, 57795, Note_on_c, 0, 65, 46
2, 57799, Control_c, 0, 64, 63
2, 57799, Note_on_c, 0, 57, 36
2, 57801, Note_on_c, 0, 62, 46
2, 57802, Control_c, 0, 64, 127
2, 57805, Note_on_c, 0, 77, 54
2, 57806, Note_on_c, 0, 76, 0
2, 57884, Note_on_c, 0, 62, 0
2, 57884, Note_on_c, 0, 65, 0
2, 57892, Note_on_c, 0, 57, 0
2, 57915, Note_on_c, 0, 77, 0
2, 57915, Note_on_c, 0, 74, 63
2, 57941, Note_on_c, 0, 74, 0
2, 58031, Note_on_c, 0, 61, 38
2, 58033, Note_on_c, 0, 69, 68
2, 58035, Note_on_c, 0, 57, 22
2, 58037, Note_on_c, 0, 64, 16
2, 58062, Control_c, 0, 64, 63
2, 58069, Control_c, 0, 64, 0
2, 58123, Control_c, 0, 64, 63
2, 58130, Control_c, 0, 64, 127
2, 58148, Note_on_c, 0, 68, 71
2, 58170, Note_on_c, 0, 69, 0
2, 58261, Note_on_c, 0, 68, 0
2, 58264, Note_on_c, 0, 69, 47
2, 58290, Control_c, 0, 64, 63
2, 58307, Control_c, 0, 64, 0
2, 58366, Control_c, 0, 64, 63
2, 58374, Note_on_c, 0, 68, 65
2, 58378, Control_c, 0, 64, 127
2, 58411, Note_on_c, 0, 69, 0
2, 58432, Note_on_c, 0, 64, 0
2, 58455, Note_on_c, 0, 57, 0
2, 58457, Note_on_c, 0, 61, 0
2, 58485, Control_c, 0, 64, 63
2, 58499, Control_c, 0, 64, 0
2, 58503, Note_on_c, 0, 68, 0
2, 58505, Note_on_c, 0, 69, 45
2, 58524, Control_c, 0, 64, 63
2, 58541, Control_c, 0, 64, 127
2, 58639, Note_on_c, 0, 68, 57
2, 58660, Note_on_c, 0, 69, 0
2, 58690, Note_on_c, 0, 68, 0
2, 58821, Note_on_c, 0, 69, 68
2, 58831, Note_on_c, 0, 50, 20
2, 58834, Note_on_c, 0, 38, 31
2, 58834, Note_on_c, 0, 66, 68
2, 58850, Control_c, 0, 64, 63
2, 58861, Control_c, 0, 64, 0
2, 58893, Control_c, 0, 64, 63
2, 58903, Control_c, 0, 64, 127
2, 58979, Note_on_c, 0, 66, 0
2, 58979, Note_on_c, 0, 57, 21
2, 58982, Note_on_c, 0, 69, 0
2, 59082, Note_on_c, 0, 57, 0
2, 59103, Note_on_c, 0, 66, 85
2, 59111, Note_on_c, 0, 62, 61
2, 59206, Note_on_c, 0, 57, 51
2, 59249, Note_on_c, 0, 66, 0
2, 59283, Note_on_c, 0, 62, 0
2, 59318, Note_on_c, 0, 67, 89
2, 59319, Note_on_c, 0, 57, 0
2, 59322, Note_on_c, 0, 64, 79
2, 59361, Control_c, 0, 64, 63
2, 59378, Control_c, 0, 64, 0
2, 59389, Control_c, 0, 64, 63
2, 59406, Note_on_c, 0, 57, 71
2, 59409, Control_c, 0, 64, 127
2, 59443, Note_on_c, 0, 64, 0
2, 59465, Note_on_c, 0, 67, 0
2, 59489, Note_on_c, 0, 57, 0
2, 59540, Note_on_c, 0, 69, 72
2, 59546, Note_on_c, 0, 66, 83
2, 59586, Control_c, 0, 64, 63
2, 59598, Control_c, 0, 64, 0
2, 59635, Control_c, 0, 64, 63
2, 59644, Control_c, 0, 64, 127
2, 59657, Note_on_c, 0, 69, 0
2, 59664, Note_on_c, 0, 62, 83
2, 59668, Note_on_c, 0, 66, 0
2, 59741, Note_on_c, 0, 62, 0
2, 59784, Note_on_c, 0, 74, 79
2, 59790, Note_on_c, 0, 71, 69
2, 59845, Note_on_c, 0, 71, 0
2, 59879, Control_c, 0, 64, 63
2, 59889, Control_c, 0, 64, 0
2, 59892, Note_on_c, 0, 69, 66
2, 59899, Note_on_c, 0, 73, 90
2, 59923, Note_on_c, 0, 74, 0
2, 59939, Control_c, 0, 64, 63
2, 59942, Note_on_c, 0, 38, 0
2, 59948, Control_c, 0, 64, 127
2, 59996, Note_on_c, 0, 71, 78
2, 60003, Note_on_c, 0, 69, 0
2, 60007, Note_on_c, 0, 67, 72
2, 60010, Note_on_c, 0, 73, 0
2, 60027, Note_on_c, 0, 50, 0
2, 60041, Note_on_c, 0, 71, 0
2, 60082, Note_on_c, 0, 67, 0
2, 60105, Note_on_c, 0, 69, 69
2, 60108, Note_on_c, 0, 66, 72
2, 60209, Note_on_c, 0, 67, 89
2, 60211, Note_on_c, 0, 66, 0
2, 60222, Control_c, 0, 64, 63
2, 60227, Note_on_c, 0, 47, 54
2, 60230, Control_c, 0, 64, 0
2, 60233, Note_on_c, 0, 69, 0
2, 60294, Control_c, 0, 64, 63
2, 60303, Control_c, 0, 64, 127
2, 60310, Note_on_c, 0, 62, 68
2, 60416, Note_on_c, 0, 66, 90
2, 60417, Note_on_c, 0, 67, 0
2, 60422, Note_on_c, 0, 69, 91
2, 60428, Note_on_c, 0, 62, 0
2, 60432, Control_c, 0, 64, 63
2, 60435, Note_on_c, 0, 45, 71
2, 60444, Control_c, 0, 64, 0
2, 60461, Note_on_c, 0, 47, 0
2, 60490, Control_c, 0, 64, 63
2, 60503, Control_c, 0, 64, 127
2, 60524, Note_on_c, 0, 62, 82
2, 60564, Note_on_c, 0, 66, 0
2, 60635, Note_on_c, 0, 43, 83
2, 60636, Note_on_c, 0, 71, 94
2, 60638, Note_on_c, 0, 67, 90
2, 60640, Control_c, 0, 64, 63
2, 60643, Note_on_c, 0, 62, 0
2, 60652, Control_c, 0, 64, 0
2, 60653, Note_on_c, 0, 69, 0
2, 60659, Note_on_c, 0, 45, 0
2, 60699, Control_c, 0, 64, 63
2, 60709, Control_c, 0, 64, 127
2, 60733, Note_on_c, 0, 62, 81
2, 60800, Note_on_c, 0, 67, 0
2, 60826, Note_on_c, 0, 62, 0
2, 60826, Control_c, 0, 64, 63
2, 60829, Control_c, 0, 64, 0
2, 60853, Note_on_c, 0, 71, 0
2, 60857, Note_on_c, 0, 50, 94
2, 60857, Note_on_c, 0, 69, 83
2, 60857, Note_on_c, 0, 66, 90
2, 60865, Note_on_c, 0, 43, 0
2, 60890, Control_c, 0, 64, 63
2, 60893, Control_c, 0, 64, 127
2, 60918, Note_on_c, 0, 50, 0
2, 60942, Note_on_c, 0, 69, 0
2, 60954, Note_on_c, 0, 62, 65
2, 60956, Note_on_c, 0, 66, 0
2, 60983, Note_on_c, 0, 62, 0
2, 61094, Note_on_c, 0, 86, 81
2, 61096, Note_on_c, 0, 74, 75
2, 61097, Note_on_c, 0, 71, 67
2, 61146, Note_on_c, 0, 71, 0
2, 61198, Note_on_c, 0, 73, 92
2, 61200, Note_on_c, 0, 85, 98
2, 61207, Note_on_c, 0, 69, 74
2, 61210, Note_on_c, 0, 86, 0
2, 61215, Note_on_c, 0, 74, 0
2, 61290, Note_on_c, 0, 69, 0
2, 61296, Note_on_c, 0, 83, 89
2, 61297, Note_on_c, 0, 85, 0
2, 61306, Note_on_c, 0, 71, 80
2, 61310, Note_on_c, 0, 73, 0
2, 61311, Note_on_c, 0, 67, 80
2, 61347, Note_on_c, 0, 71, 0
2, 61371, Note_on_c, 0, 67, 0
2, 61373, Note_on_c, 0, 83, 0
2, 61393, Note_on_c, 0, 81, 82
2, 61404, Note_on_c, 0, 69, 84
2, 61409, Note_on_c, 0, 66, 89
2, 61465, Note_on_c, 0, 69, 0
2, 61472, Note_on_c, 0, 66, 0
2, 61505, Note_on_c, 0, 79, 94
2, 61506, Note_on_c, 0, 67, 87
2, 61515, Note_on_c, 0, 64, 76
2, 61522, Note_on_c, 0, 81, 0
2, 61556, Control_c, 0, 64, 63
2, 61568, Control_c, 0, 64, 0
2, 61622, Note_on_c, 0, 64, 0
2, 61622, Note_on_c, 0, 62, 59
2, 61631, Control_c, 0, 64, 63
2, 61641, Control_c, 0, 64, 127
2, 61709, Note_on_c, 0, 67, 0
2, 61721, Control_c, 0, 64, 63
2, 61722, Note_on_c, 0, 81, 99
2, 61728, Note_on_c, 0, 69, 74
2, 61728, Note_on_c, 0, 66, 86
2, 61734, Control_c, 0, 64, 0
2, 61737, Note_on_c, 0, 62, 0
2, 61758, Note_on_c, 0, 79, 0
2, 61796, Control_c, 0, 64, 63
2, 61808, Control_c, 0, 64, 127
2, 61827, Note_on_c, 0, 69, 0
2, 61829, Note_on_c, 0, 62, 68
2, 61877, Note_on_c, 0, 66, 0
2, 61936, Note_on_c, 0, 83, 82
2, 61941, Note_on_c, 0, 81, 0
2, 61943, Note_on_c, 0, 71, 64
2, 61944, Note_on_c, 0, 62, 0
2, 61945, Control_c, 0, 64, 63
2, 61946, Note_on_c, 0, 67, 55
2, 61957, Control_c, 0, 64, 0
2, 62011, Control_c, 0, 64, 63
2, 62023, Control_c, 0, 64, 127
2, 62040, Note_on_c, 0, 62, 63
2, 62079, Note_on_c, 0, 67, 0
2, 62148, Note_on_c, 0, 66, 69
2, 62155, Note_on_c, 0, 62, 0
2, 62156, Note_on_c, 0, 69, 71
2, 62165, Note_on_c, 0, 71, 0
2, 62167, Note_on_c, 0, 83, 0
2, 62169, Note_on_c, 0, 81, 56
2, 62201, Control_c, 0, 64, 63
2, 62210, Control_c, 0, 64, 0
2, 62269, Note_on_c, 0, 62, 42
2, 62275, Note_on_c, 0, 66, 0
2, 62376, Note_on_c, 0, 69, 0
2, 62382, Control_c, 0, 64, 63
2, 62382, Control_c, 0, 64, 127
2, 62383, Note_on_c, 0, 71, 54
2, 62385, Note_on_c, 0, 67, 55
2, 62394, Note_on_c, 0, 62, 0
2, 62414, Note_on_c, 0, 81, 0
2, 62480, Note_on_c, 0, 67, 0
2, 62491, Note_on_c, 0, 66, 63
2, 62497, Note_on_c, 0, 69, 67
2, 62501, Note_on_c, 0, 71, 0
2, 62587, Note_on_c, 0, 66, 0
2, 62600, Note_on_c, 0, 64, 72
2, 62605, Note_on_c, 0, 67, 78
2, 62631, Note_on_c, 0, 69, 0
2, 62649, Note_on_c, 0, 64, 0
2, 62694, Note_on_c, 0, 66, 92
2, 62697, Note_on_c, 0, 62, 77
2, 62710, Note_on_c, 0, 67, 0
2, 62735, Note_on_c, 0, 66, 0
2, 62739, Note_on_c, 0, 62, 0
2, 62799, Note_on_c, 0, 45, 82
2, 62800, Note_on_c, 0, 61, 91
2, 62808, Note_on_c, 0, 64, 65
2, 62834, Control_c, 0, 64, 63
2, 62843, Control_c, 0, 64, 0
2, 62894, Control_c, 0, 64, 63
2, 62902, Control_c, 0, 64, 127
2, 62906, Note_on_c, 0, 57, 76
2, 62943, Note_on_c, 0, 61, 0
2, 62953, Note_on_c, 0, 64, 0
2, 62998, Note_on_c, 0, 57, 0
2, 63018, Note_on_c, 0, 69, 96
2, 63023, Note_on_c, 0, 62, 81
2, 63028, Note_on_c, 0, 42, 88
2, 63032, Control_c, 0, 64, 63
2, 63045, Control_c, 0, 64, 0
2, 63058, Note_on_c, 0, 45, 0
2, 63073, Control_c, 0, 64, 63
2, 63090, Control_c, 0, 64, 127
2, 63125, Note_on_c, 0, 57, 25
2, 63139, Note_on_c, 0, 62, 0
2, 63210, Note_on_c, 0, 69, 0
2, 63242, Control_c, 0, 64, 63
2, 63249, Note_on_c, 0, 38, 49
2, 63249, Note_on_c, 0, 66, 88
2, 63255, Note_on_c, 0, 62, 68
2, 63257, Control_c, 0, 64, 0
2, 63258, Note_on_c, 0, 57, 0
2, 63259, Note_on_c, 0, 42, 0
2, 63283, Control_c, 0, 64, 63
2, 63301, Control_c, 0, 64, 127
2, 63343, Note_on_c, 0, 62, 0
2, 63346, Note_on_c, 0, 57, 46
2, 63427, Control_c, 0, 64, 63
2, 63434, Control_c, 0, 64, 0
2, 63444, Note_on_c, 0, 57, 0
2, 63455, Note_on_c, 0, 66, 0
2, 63465, Note_on_c, 0, 45, 59
2, 63474, Note_on_c, 0, 38, 0
2, 63474, Note_on_c, 0, 64, 65
2, 63475, Note_on_c, 0, 61, 67
2, 63478, Control_c, 0, 64, 63
2, 63484, Control_c, 0, 64, 127
2, 63500, Note_on_c, 0, 45, 0
2, 63551, Note_on_c, 0, 64, 0
2, 63565, Note_on_c, 0, 61, 0
2, 63576, Note_on_c, 0, 57, 36
2, 63603, Note_on_c, 0, 57, 0
2, 63727, Note_on_c, 0, 83, 69
2, 63730, Note_on_c, 0, 71, 48
2, 63746, Note_on_c, 0, 67, 30
2, 63794, Note_on_c, 0, 67, 0
2, 63828, Note_on_c, 0, 71, 0
2, 63828, Note_on_c, 0, 66, 86
2, 63833, Note_on_c, 0, 69, 76
2, 63842, Note_on_c, 0, 81, 63
2, 63848, Note_on_c, 0, 83, 0
2, 63933, Note_on_c, 0, 66, 0
2, 63939, Note_on_c, 0, 79, 88
2, 63941, Note_on_c, 0, 67, 78
2, 63954, Note_on_c, 0, 64, 29
2, 63955, Note_on_c, 0, 81, 0
2, 63961, Note_on_c, 0, 69, 0
2, 63988, Note_on_c, 0, 64, 0
2, 64019, Note_on_c, 0, 67, 0
2, 64022, Note_on_c, 0, 78, 106
2, 64033, Note_on_c, 0, 66, 87
2, 64047, Note_on_c, 0, 79, 0
2, 64070, Note_on_c, 0, 66, 0
2, 64127, Note_on_c, 0, 80, 74
2, 64141, Note_on_c, 0, 61, 89
2, 64141, Note_on_c, 0, 64, 76
2, 64142, Note_on_c, 0, 81, 93
2, 64147, Note_on_c, 0, 78, 0
2, 64154, Control_c, 0, 64, 63
2, 64163, Control_c, 0, 64, 0
2, 64173, Note_on_c, 0, 80, 0
2, 64208, Control_c, 0, 64, 63
2, 64216, Control_c, 0, 64, 127
2, 64233, Note_on_c, 0, 64, 0
2, 64242, Note_on_c, 0, 57, 53
2, 64244, Note_on_c, 0, 61, 0
2, 64329, Note_on_c, 0, 57, 0
2, 64333, Note_on_c, 0, 81, 0
2, 64343, Note_on_c, 0, 80, 79
2, 64356, Note_on_c, 0, 69, 76
2, 64357, Note_on_c, 0, 66, 85
2, 64370, Note_on_c, 0, 81, 94
2, 64389, Control_c, 0, 64, 63
2, 64405, Note_on_c, 0, 80, 0
2, 64429, Note_on_c, 0, 69, 0
2, 64442, Control_c, 0, 64, 127
2, 64469, Note_on_c, 0, 57, 57
2, 64501, Note_on_c, 0, 66, 0
2, 64556, Note_on_c, 0, 81, 0
2, 64558, Note_on_c, 0, 80, 76
2, 64570, Control_c, 0, 64, 63
2, 64577, Control_c, 0, 64, 0
2, 64579, Note_on_c, 0, 66, 87
2, 64590, Note_on_c, 0, 81, 84
2, 64592, Note_on_c, 0, 62, 65
2, 64607, Note_on_c, 0, 57, 0
2, 64614, Note_on_c, 0, 80, 0
2, 64622, Control_c, 0, 64, 63
2, 64631, Control_c, 0, 64, 127
2, 64690, Note_on_c, 0, 62, 0
2, 64692, Note_on_c, 0, 57, 48
2, 64756, Note_on_c, 0, 66, 0
2, 64762, Note_on_c, 0, 81, 0
2, 64768, Control_c, 0, 64, 63
2, 64777, Note_on_c, 0, 80, 53
2, 64779, Control_c, 0, 64, 0
2, 64801, Note_on_c, 0, 64, 67
2, 64802, Note_on_c, 0, 81, 77
2, 64804, Note_on_c, 0, 61, 70
2, 64807, Note_on_c, 0, 57, 0
2, 64810, Control_c, 0, 64, 63
2, 64814, Note_on_c, 0, 80, 0
2, 64822, Control_c, 0, 64, 127
2, 64857, Note_on_c, 0, 81, 0
2, 64927, Note_on_c, 0, 61, 0
2, 64928, Note_on_c, 0, 64, 0
2, 64945, Note_on_c, 0, 69, 39
2, 64972, Note_on_c, 0, 69, 0
2, 65097, Note_on_c, 0, 59, 57
2, 65112, Note_on_c, 0, 74, 82
2, 65116, Note_on_c, 0, 62, 69
2, 65131, Control_c, 0, 64, 63
2, 65150, Control_c, 0, 64, 0
2, 65173, Control_c, 0, 64, 63
2, 65187, Control_c, 0, 64, 127
2, 65230, Note_on_c, 0, 73, 103
2, 65233, Note_on_c, 0, 58, 75
2, 65254, Note_on_c, 0, 74, 0
2, 65263, Note_on_c, 0, 59, 0
2, 65338, Note_on_c, 0, 59, 82
2, 65339, Note_on_c, 0, 74, 102
2, 65342, Note_on_c, 0, 58, 0
2, 65363, Note_on_c, 0, 73, 0
2, 65409, Note_on_c, 0, 74, 0
2, 65438, Note_on_c, 0, 71, 99
2, 65442, Note_on_c, 0, 55, 90
2, 65446, Note_on_c, 0, 59, 0
2, 65494, Note_on_c, 0, 71, 0
2, 65560, Note_on_c, 0, 69, 98
2, 65563, Note_on_c, 0, 62, 0
2, 65567, Note_on_c, 0, 54, 84
2, 65586, Control_c, 0, 64, 63
2, 65601, Note_on_c, 0, 55, 0
2, 65626, Control_c, 0, 64, 127
2, 65653, Note_on_c, 0, 69, 0
2, 65671, Note_on_c, 0, 54, 0
2, 65674, Note_on_c, 0, 57, 69
2, 65764, Note_on_c, 0, 57, 0
2, 65790, Note_on_c, 0, 67, 86
2, 65794, Note_on_c, 0, 64, 85
2, 65799, Note_on_c, 0, 52, 71
2, 65826, Control_c, 0, 64, 63
2, 65847, Control_c, 0, 64, 0
2, 65853, Control_c, 0, 64, 63
2, 65877, Control_c, 0, 64, 127
2, 65901, Note_on_c, 0, 59, 73
2, 65906, Note_on_c, 0, 64, 0
2, 65995, Note_on_c, 0, 67, 0
2, 66006, Note_on_c, 0, 59, 0
2, 66009, Note_on_c, 0, 64, 94
2, 66016, Note_on_c, 0, 61, 88
2, 66019, Note_on_c, 0, 45, 68
2, 66025, Control_c, 0, 64, 63
2, 66034, Control_c, 0, 64, 0
2, 66038, Note_on_c, 0, 52, 0
2, 66059, Control_c, 0, 64, 63
2, 66072, Control_c, 0, 64, 127
2, 66116, Note_on_c, 0, 57, 80
2, 66136, Note_on_c, 0, 64, 0
2, 66145, Note_on_c, 0, 61, 0
2, 66221, Note_on_c, 0, 57, 0
2, 66225, Note_on_c, 0, 66, 100
2, 66232, Note_on_c, 0, 62, 81
2, 66234, Note_on_c, 0, 45, 0
2, 66239, Control_c, 0, 64, 63
2, 66241, Note_on_c, 0, 50, 70
2, 66245, Control_c, 0, 64, 0
2, 66286, Control_c, 0, 64, 63
2, 66291, Control_c, 0, 64, 127
2, 66320, Note_on_c, 0, 50, 0
2, 66347, Note_on_c, 0, 69, 78
2, 66358, Note_on_c, 0, 62, 0
2, 66359, Note_on_c, 0, 66, 0
2, 66385, Note_on_c, 0, 69, 0
2, 66502, Note_on_c, 0, 86, 79
2, 66505, Note_on_c, 0, 74, 84
2, 66509, Note_on_c, 0, 71, 72
2, 66569, Note_on_c, 0, 71, 0
2, 66585, Control_c, 0, 64, 63
2, 66613, Control_c, 0, 64, 127
2, 66618, Note_on_c, 0, 85, 99
2, 66627, Note_on_c, 0, 73, 93
2, 66628, Note_on_c, 0, 70, 87
2, 66655, Note_on_c, 0, 74, 0
2, 66655, Note_on_c, 0, 86, 0
2, 66723, Note_on_c, 0, 86, 98
2, 66728, Note_on_c, 0, 70, 0
2, 66735, Note_on_c, 0, 74, 94
2, 66738, Note_on_c, 0, 71, 90
2, 66742, Note_on_c, 0, 85, 0
2, 66759, Note_on_c, 0, 73, 0
2, 66794, Note_on_c, 0, 71, 0
2, 66804, Note_on_c, 0, 86, 0
2, 66828, Note_on_c, 0, 71, 87
2, 66834, Note_on_c, 0, 83, 72
2, 66838, Note_on_c, 0, 67, 88
2, 66853, Note_on_c, 0, 74, 0
2, 66871, Note_on_c, 0, 71, 0
2, 66890, Note_on_c, 0, 67, 0
2, 66946, Note_on_c, 0, 81, 85
2, 66948, Note_on_c, 0, 69, 81
2, 66949, Note_on_c, 0, 83, 0
2, 66957, Note_on_c, 0, 66, 70
2, 66986, Control_c, 0, 64, 63
2, 66996, Control_c, 0, 64, 0
2, 67042, Control_c, 0, 64, 63
2, 67050, Control_c, 0, 64, 127
2, 67059, Note_on_c, 0, 62, 66
2, 67077, Note_on_c, 0, 66, 0
2, 67107, Note_on_c, 0, 69, 0
2, 67135, Note_on_c, 0, 62, 0
2, 67171, Note_on_c, 0, 67, 76
2, 67171, Note_on_c, 0, 79, 82
2, 67175, Control_c, 0, 64, 63
2, 67181, Note_on_c, 0, 64, 54
2, 67184, Note_on_c, 0, 81, 0
2, 67225, Control_c, 0, 64, 127
2, 67259, Note_on_c, 0, 64, 0
2, 67277, Note_on_c, 0, 59, 54
2, 67354, Note_on_c, 0, 59, 0
2, 67368, Note_on_c, 0, 67, 0
2, 67382, Control_c, 0, 64, 63
2, 67387, Note_on_c, 0, 64, 68
2, 67387, Note_on_c, 0, 76, 77
2, 67392, Note_on_c, 0, 61, 65
2, 67398, Control_c, 0, 64, 0
2, 67412, Note_on_c, 0, 79, 0
2, 67428, Control_c, 0, 64, 63
2, 67446, Control_c, 0, 64, 127
2, 67490, Note_on_c, 0, 57, 56
2, 67496, Note_on_c, 0, 61, 0
2, 67502, Note_on_c, 0, 64, 0
2, 67572, Control_c, 0, 64, 63
2, 67588, Control_c, 0, 64, 0
2, 67603, Note_on_c, 0, 57, 0
2, 67608, Note_on_c, 0, 66, 79
2, 67611, Note_on_c, 0, 78, 64
2, 67617, Control_c, 0, 64, 63
2, 67622, Note_on_c, 0, 62, 50
2, 67626, Note_on_c, 0, 76, 0
2, 67631, Control_c, 0, 64, 127
2, 67655, Note_on_c, 0, 78, 0
2, 67711, Note_on_c, 0, 69, 70
2, 67724, Note_on_c, 0, 66, 0
2, 67732, Note_on_c, 0, 62, 0
2, 67775, Note_on_c, 0, 69, 0
2, 67839, Note_on_c, 0, 69, 68
2, 67843, Note_on_c, 0, 59, 52
2, 67844, Note_on_c, 0, 43, 59
2, 67857, Control_c, 0, 64, 63
2, 67870, Control_c, 0, 64, 0
2, 67908, Control_c, 0, 64, 63
2, 67921, Control_c, 0, 64, 127
2, 67938, Note_on_c, 0, 67, 70
2, 67957, Note_on_c, 0, 69, 0
2, 68035, Note_on_c, 0, 43, 0
2, 68040, Note_on_c, 0, 67, 0
2, 68048, Control_c, 0, 64, 63
2, 68051, Note_on_c, 0, 45, 67
2, 68054, Note_on_c, 0, 59, 0
2, 68055, Note_on_c, 0, 55, 53
2, 68077, Note_on_c, 0, 64, 63
2, 68097, Control_c, 0, 64, 127
2, 68115, Note_on_c, 0, 45, 0
2, 68150, Note_on_c, 0, 64, 0
2, 68157, Note_on_c, 0, 61, 72
2, 68266, Note_on_c, 0, 54, 50
2, 68267, Note_on_c, 0, 61, 0
2, 68270, Note_on_c, 0, 50, 43
2, 68273, Note_on_c, 0, 55, 0
2, 68274, Control_c, 0, 64, 63
2, 68275, Note_on_c, 0, 62, 67
2, 68289, Control_c, 0, 64, 0
2, 68324, Control_c, 0, 64, 63
2, 68337, Note_on_c, 0, 54, 0
2, 68343, Control_c, 0, 64, 127
2, 68351, Note_on_c, 0, 50, 0
2, 68368, Note_on_c, 0, 62, 0
2, 68387, Note_on_c, 0, 66, 67
2, 68481, Control_c, 0, 64, 63
2, 68485, Note_on_c, 0, 66, 0
2, 68498, Control_c, 0, 64, 0
2, 68508, Note_on_c, 0, 69, 51
2, 68510, Note_on_c, 0, 43, 38
2, 68513, Note_on_c, 0, 59, 40
2, 68517, Control_c, 0, 64, 63
2, 68540, Control_c, 0, 64, 127
2, 68577, Note_on_c, 0, 43, 0
2, 68618, Note_on_c, 0, 67, 56
2, 68627, Note_on_c, 0, 69, 0
2, 68721, Note_on_c, 0, 67, 0
2, 68730, Control_c, 0, 64, 63
2, 68745, Note_on_c, 0, 45, 34
2, 68751, Note_on_c, 0, 55, 23
2, 68751, Note_on_c, 0, 64, 55
2, 68752, Note_on_c, 0, 59, 0
2, 68786, Control_c, 0, 64, 127
2, 68788, Note_on_c, 0, 45, 0
2, 68853, Note_on_c, 0, 55, 0
2, 68872, Note_on_c, 0, 61, 68
2, 68898, Note_on_c, 0, 64, 0
2, 69009, Note_on_c, 0, 61, 0
2, 69009, Control_c, 0, 64, 63
2, 69015, Note_on_c, 0, 62, 68
2, 69015, Note_on_c, 0, 54, 50
2, 69018, Note_on_c, 0, 50, 50
2, 69022, Control_c, 0, 64, 0
2, 69048, Control_c, 0, 64, 63
2, 69062, Note_on_c, 0, 54, 0
2, 69068, Control_c, 0, 64, 127
2, 69072, Note_on_c, 0, 50, 0
2, 69119, Control_c, 0, 64, 63
2, 69135, Control_c, 0, 64, 0
2, 69331, Note_on_c, 0, 38, 50
2, 69342, Control_c, 0, 64, 63
2, 69344, Control_c, 0, 64, 127
2, 69352, Note_on_c, 0, 38, 0
2, 69655, Control_c, 0, 64, 63
2, 69658, Control_c, 0, 64, 0
2, 69688, Note_on_c, 0, 62, 0
2, 70024, Note_on_c, 0, 61, 97
2, 70038, Note_on_c, 0, 64, 100
2, 70043, Control_c, 0, 64, 127
2, 70048, Note_on_c, 0, 69, 104
2, 70049, Note_on_c, 0, 45, 101
2, 70050, Note_on_c, 0, 57, 113
2, 70072, Note_on_c, 0, 61, 0
2, 70101, Note_on_c, 0, 64, 0
2, 70230, Note_on_c, 0, 69, 0
2, 70240, Note_on_c, 0, 57, 0
2, 70281, Note_on_c, 0, 45, 0
2, 70512, Note_on_c, 0, 64, 111
2, 70513, Note_on_c, 0, 52, 112
2, 70513, Note_on_c, 0, 40, 104
2, 70525, Control_c, 0, 64, 63
2, 70530, Control_c, 0, 64, 0
2, 70566, Control_c, 0, 64, 63
2, 70573, Control_c, 0, 64, 127
2, 70580, Note_on_c, 0, 40, 0
2, 70599, Note_on_c, 0, 64, 0
2, 70604, Note_on_c, 0, 52, 0
2, 70716, Control_c, 0, 64, 63
2, 70726, Control_c, 0, 64, 0
2, 70734, Note_on_c, 0, 61, 119
2, 70737, Note_on_c, 0, 49, 109
2, 70738, Note_on_c, 0, 73, 120
2, 70753, Control_c, 0, 64, 63
2, 70764, Control_c, 0, 64, 127
2, 70780, Note_on_c, 0, 61, 0
2, 70794, Note_on_c, 0, 49, 0
2, 70814, Note_on_c, 0, 73, 0
2, 70870, Note_on_c, 0, 74, 101
2, 70908, Note_on_c, 0, 71, 96
2, 70910, Control_c, 0, 64, 63
2, 70915, Note_on_c, 0, 74, 0
2, 70916, Control_c, 0, 64, 0
2, 70954, Note_on_c, 0, 57, 108
2, 70954, Note_on_c, 0, 69, 101
2, 70956, Note_on_c, 0, 45, 107
2, 70966, Note_on_c, 0, 71, 0
2, 71037, Control_c, 0, 64, 63
2, 71041, Control_c, 0, 64, 127
2, 71162, Note_on_c, 0, 69, 0
2, 71170, Note_on_c, 0, 45, 0
2, 71180, Note_on_c, 0, 57, 0
2, 71182, Control_c, 0, 64, 63
2, 71185, Control_c, 0, 64, 0
2, 71403, Control_c, 0, 64, 63
2, 71404, Note_on_c, 0, 76, 100
2, 71408, Control_c, 0, 64, 127
2, 71524, Note_on_c, 0, 78, 83
2, 71540, Note_on_c, 0, 76, 0
2, 71552, Control_c, 0, 64, 63
2, 71561, Note_on_c, 0, 74, 85
2, 71562, Control_c, 0, 64, 0
2, 71574, Note_on_c, 0, 78, 0
2, 71615, Note_on_c, 0, 73, 104
2, 71620, Note_on_c, 0, 74, 0
2, 71835, Note_on_c, 0, 66, 63
2, 71835, Note_on_c, 0, 85, 77
2, 71839, Note_on_c, 0, 57, 46
2, 71844, Note_on_c, 0, 73, 0
2, 71880, Note_on_c, 0, 85, 0
2, 71884, Note_on_c, 0, 66, 0
2, 71891, Note_on_c, 0, 57, 0
2, 72052, Note_on_c, 0, 69, 48
2, 72053, Note_on_c, 0, 59, 55
2, 72058, Note_on_c, 0, 75, 80
2, 72156, Control_c, 0, 64, 63
2, 72161, Control_c, 0, 64, 127
2, 72191, Note_on_c, 0, 59, 0
2, 72278, Note_on_c, 0, 76, 78
2, 72278, Note_on_c, 0, 68, 68
2, 72280, Note_on_c, 0, 75, 0
2, 72283, Note_on_c, 0, 64, 60
2, 72295, Control_c, 0, 64, 63
2, 72307, Control_c, 0, 64, 0
2, 72310, Note_on_c, 0, 69, 0
2, 72444, Control_c, 0, 64, 63
2, 72451, Control_c, 0, 64, 127
2, 72549, Note_on_c, 0, 64, 0
2, 72566, Note_on_c, 0, 68, 0
2, 72610, Note_on_c, 0, 76, 0
2, 72630, Note_on_c, 0, 77, 89
2, 72748, Note_on_c, 0, 80, 93
2, 72777, Note_on_c, 0, 77, 0
2, 72845, Control_c, 0, 64, 63
2, 72854, Note_on_c, 0, 78, 94
2, 72872, Control_c, 0, 64, 0
2, 72893, Note_on_c, 0, 80, 0
2, 72965, Note_on_c, 0, 76, 77
2, 72983, Control_c, 0, 64, 63
2, 72990, Note_on_c, 0, 78, 0
2, 72999, Control_c, 0, 64, 127
2, 73064, Note_on_c, 0, 74, 57
2, 73067, Note_on_c, 0, 76, 0
2, 73130, Control_c, 0, 64, 63
2, 73132, Control_c, 0, 64, 127
2, 73175, Note_on_c, 0, 73, 75
2, 73182, Note_on_c, 0, 74, 0
2, 73236, Control_c, 0, 64, 63
2, 73257, Control_c, 0, 64, 0
2, 73277, Note_on_c, 0, 71, 72
2, 73292, Note_on_c, 0, 73, 0
2, 73390, Note_on_c, 0, 69, 54
2, 73392, Note_on_c, 0, 71, 0
2, 73402, Note_on_c, 0, 52, 33
2, 73497, Note_on_c, 0, 68, 70
2, 73514, Note_on_c, 0, 62, 30
2, 73521, Note_on_c, 0, 69, 0
2, 73607, Note_on_c, 0, 68, 0
2, 73611, Note_on_c, 0, 76, 71
2, 73623, Note_on_c, 0, 62, 0
2, 73628, Note_on_c, 0, 59, 35
2, 73719, Note_on_c, 0, 74, 57
2, 73729, Note_on_c, 0, 76, 0
2, 73729, Note_on_c, 0, 62, 37
2, 73756, Note_on_c, 0, 59, 0
2, 73838, Note_on_c, 0, 59, 47
2, 73839, Note_on_c, 0, 74, 0
2, 73843, Note_on_c, 0, 62, 0
2, 73922, Note_on_c, 0, 52, 0
2, 73939, Note_on_c, 0, 62, 63
2, 73951, Note_on_c, 0, 59, 0
2, 74023, Control_c, 0, 64, 63
2, 74044, Note_on_c, 0, 71, 76
2, 74049, Note_on_c, 0, 52, 45
2, 74061, Note_on_c, 0, 62, 0
2, 74148, Note_on_c, 0, 69, 77
2, 74150, Note_on_c, 0, 71, 0
2, 74156, Note_on_c, 0, 61, 63
2, 74257, Note_on_c, 0, 78, 80
2, 74262, Note_on_c, 0, 61, 0
2, 74273, Note_on_c, 0, 57, 37
2, 74288, Note_on_c, 0, 69, 0
2, 74355, Note_on_c, 0, 78, 0
2, 74360, Note_on_c, 0, 61, 52
2, 74373, Note_on_c, 0, 76, 58
2, 74390, Note_on_c, 0, 57, 0
2, 74473, Note_on_c, 0, 61, 0
2, 74481, Note_on_c, 0, 57, 43
2, 74505, Note_on_c, 0, 76, 0
2, 74566, Note_on_c, 0, 52, 0
2, 74576, Note_on_c, 0, 61, 68
2, 74579, Control_c, 0, 64, 0
2, 74594, Note_on_c, 0, 57, 0
2, 74684, Note_on_c, 0, 61, 0
2, 74688, Note_on_c, 0, 50, 78
2, 74689, Note_on_c, 0, 73, 101
2, 74726, Control_c, 0, 64, 63
2, 74727, Control_c, 0, 64, 127
2, 74794, Note_on_c, 0, 59, 85
2, 74798, Note_on_c, 0, 71, 98
2, 74841, Note_on_c, 0, 73, 0
2, 74907, Note_on_c, 0, 79, 94
2, 74911, Note_on_c, 0, 54, 76
2, 74929, Note_on_c, 0, 71, 0
2, 74933, Note_on_c, 0, 59, 0
2, 74987, Control_c, 0, 64, 63
2, 74994, Control_c, 0, 64, 0
2, 75004, Note_on_c, 0, 59, 59
2, 75011, Note_on_c, 0, 78, 90
2, 75036, Note_on_c, 0, 79, 0
2, 75044, Note_on_c, 0, 54, 0
2, 75063, Control_c, 0, 64, 63
2, 75068, Control_c, 0, 64, 127
2, 75120, Note_on_c, 0, 54, 71
2, 75122, Note_on_c, 0, 78, 0
2, 75132, Note_on_c, 0, 59, 0
2, 75174, Control_c, 0, 64, 63
2, 75181, Control_c, 0, 64, 0
2, 75190, Note_on_c, 0, 50, 0
2, 75223, Note_on_c, 0, 59, 57
2, 75237, Note_on_c, 0, 54, 0
2, 75348, Note_on_c, 0, 50, 43
2, 75349, Note_on_c, 0, 59, 0
2, 75351, Note_on_c, 0, 66, 72
2, 75393, Control_c, 0, 64, 63
2, 75405, Control_c, 0, 64, 127
2, 75546, Note_on_c, 0, 66, 0
2, 75575, Note_on_c, 0, 50, 0
2, 75575, Note_on_c, 0, 76, 71
2, 75625, Control_c, 0, 64, 63
2, 75635, Control_c, 0, 64, 0
2, 75680, Note_on_c, 0, 74, 80
2, 75699, Note_on_c, 0, 76, 0
2, 75794, Note_on_c, 0, 73, 82
2, 75818, Note_on_c, 0, 74, 0
2, 75892, Note_on_c, 0, 71, 70
2, 75910, Note_on_c, 0, 73, 0
2, 75996, Note_on_c, 0, 52, 59
2, 75999, Note_on_c, 0, 69, 58
2, 76001, Note_on_c, 0, 62, 45
2, 76008, Note_on_c, 0, 71, 0
2, 76024, Control_c, 0, 64, 63
2, 76035, Control_c, 0, 64, 127
2, 76067, Note_on_c, 0, 52, 0
2, 76101, Control_c, 0, 64, 63
2, 76102, Note_on_c, 0, 68, 83
2, 76120, Note_on_c, 0, 69, 0
2, 76124, Control_c, 0, 64, 0
2, 76213, Note_on_c, 0, 68, 0
2, 76214, Note_on_c, 0, 62, 0
2, 76218, Note_on_c, 0, 61, 57
2, 76221, Note_on_c, 0, 69, 57
2, 76221, Note_on_c, 0, 57, 42
2, 76268, Control_c, 0, 64, 63
2, 76278, Control_c, 0, 64, 127
2, 76394, Note_on_c, 0, 69, 0
2, 76413, Control_c, 0, 64, 63
2, 76416, Control_c, 0, 64, 0
2, 76418, Note_on_c, 0, 61, 0
2, 76439, Note_on_c, 0, 57, 0
2, 76575, Note_on_c, 0, 71, 73
2, 76604, Note_on_c, 0, 76, 83
2, 76620, Control_c, 0, 64, 127
2, 76623, Note_on_c, 0, 80, 109
2, 76633, Note_on_c, 0, 71, 0
2, 76643, Note_on_c, 0, 83, 109
2, 76655, Note_on_c, 0, 76, 0
2, 76655, Note_on_c, 0, 52, 108
2, 76679, Note_on_c, 0, 80, 0
2, 76777, Note_on_c, 0, 56, 83
2, 76878, Note_on_c, 0, 59, 97
2, 76908, Note_on_c, 0, 56, 0
2, 76979, Note_on_c, 0, 56, 106
2, 76982, Note_on_c, 0, 83, 0
2, 77016, Note_on_c, 0, 52, 0
2, 77017, Note_on_c, 0, 59, 0
2, 77080, Note_on_c, 0, 54, 109
2, 77112, Note_on_c, 0, 56, 0
2, 77170, Note_on_c, 0, 52, 102
2, 77196, Note_on_c, 0, 54, 0
2, 77264, Control_c, 0, 64, 63
2, 77272, Control_c, 0, 64, 0
2, 77288, Note_on_c, 0, 51, 80
2, 77291, Note_on_c, 0, 83, 106
2, 77300, Note_on_c, 0, 52, 0
2, 77324, Control_c, 0, 64, 63
2, 77332, Control_c, 0, 64, 127
2, 77345, Note_on_c, 0, 81, 91
2, 77373, Note_on_c, 0, 83, 0
2, 77389, Note_on_c, 0, 80, 89
2, 77393, Note_on_c, 0, 52, 80
2, 77411, Note_on_c, 0, 81, 0
2, 77420, Note_on_c, 0, 51, 0
2, 77443, Note_on_c, 0, 78, 75
2, 77444, Note_on_c, 0, 80, 0
2, 77464, Note_on_c, 0, 78, 0
2, 77485, Note_on_c, 0, 54, 94
2, 77492, Note_on_c, 0, 78, 92
2, 77495, Note_on_c, 0, 52, 0
2, 77538, Note_on_c, 0, 78, 0
2, 77540, Note_on_c, 0, 76, 82
2, 77556, Note_on_c, 0, 54, 0
2, 77577, Note_on_c, 0, 76, 0
2, 77577, Note_on_c, 0, 47, 77
2, 77589, Note_on_c, 0, 75, 98
2, 77634, Note_on_c, 0, 73, 106
2, 77639, Note_on_c, 0, 75, 0
2, 77650, Control_c, 0, 64, 63
2, 77657, Control_c, 0, 64, 0
2, 77675, Note_on_c, 0, 71, 60
2, 77677, Note_on_c, 0, 73, 0
2, 77679, Note_on_c, 0, 49, 94
2, 77708, Note_on_c, 0, 71, 0
2, 77720, Note_on_c, 0, 69, 91
2, 77729, Control_c, 0, 64, 63
2, 77735, Control_c, 0, 64, 127
2, 77757, Note_on_c, 0, 47, 0
2, 77775, Note_on_c, 0, 68, 100
2, 77777, Note_on_c, 0, 69, 0
2, 77777, Note_on_c, 0, 51, 88
2, 77812, Note_on_c, 0, 69, 79
2, 77817, Note_on_c, 0, 68, 0
2, 77825, Note_on_c, 0, 49, 0
2, 77859, Control_c, 0, 64, 63
2, 77863, Note_on_c, 0, 68, 109
2, 77868, Control_c, 0, 64, 0
2, 77870, Note_on_c, 0, 69, 0
2, 77881, Note_on_c, 0, 52, 94
2, 77891, Note_on_c, 0, 51, 0
2, 77904, Note_on_c, 0, 68, 0
2, 77925, Note_on_c, 0, 71, 95
2, 77963, Note_on_c, 0, 76, 103
2, 77969, Note_on_c, 0, 71, 0
2, 77973, Note_on_c, 0, 56, 101
2, 77987, Note_on_c, 0, 52, 0
2, 78016, Note_on_c, 0, 80, 108
2, 78019, Note_on_c, 0, 76, 0
2, 78063, Note_on_c, 0, 80, 0
2, 78068, Note_on_c, 0, 59, 96
2, 78070, Note_on_c, 0, 83, 113
2, 78071, Control_c, 0, 64, 127
2, 78078, Note_on_c, 0, 56, 0
2, 78181, Note_on_c, 0, 56, 86
2, 78205, Note_on_c, 0, 83, 0
2, 78288, Note_on_c, 0, 54, 103
2, 78314, Note_on_c, 0, 56, 0
2, 78318, Note_on_c, 0, 59, 0
2, 78377, Note_on_c, 0, 52, 96
2, 78384, Note_on_c, 0, 54, 0
2, 78477, Control_c, 0, 64, 63
2, 78484, Control_c, 0, 64, 0
2, 78489, Note_on_c, 0, 51, 90
2, 78490, Note_on_c, 0, 83, 106
2, 78518, Note_on_c, 0, 52, 0
2, 78531, Control_c, 0, 64, 63
2, 78537, Control_c, 0, 64, 127
2, 78540, Note_on_c, 0, 81, 93
2, 78565, Note_on_c, 0, 83, 0
2, 78583, Note_on_c, 0, 80, 91
2, 78590, Note_on_c, 0, 52, 76
2, 78602, Note_on_c, 0, 81, 0
2, 78608, Note_on_c, 0, 51, 0
2, 78629, Note_on_c, 0, 78, 87
2, 78635, Note_on_c, 0, 80, 0
2, 78649, Note_on_c, 0, 78, 0
2, 78672, Control_c, 0, 64, 63
2, 78676, Control_c, 0, 64, 0
2, 78680, Note_on_c, 0, 54, 96
2, 78683, Note_on_c, 0, 52, 0
2, 78683, Note_on_c, 0, 78, 100
2, 78726, Note_on_c, 0, 78, 0
2, 78732, Note_on_c, 0, 76, 84
2, 78754, Control_c, 0, 64, 63
2, 78756, Control_c, 0, 64, 127
2, 78769, Note_on_c, 0, 54, 0
2, 78773, Note_on_c, 0, 47, 78
2, 78774, Note_on_c, 0, 76, 0
2, 78777, Note_on_c, 0, 75, 100
2, 78824, Note_on_c, 0, 75, 0
2, 78827, Note_on_c, 0, 73, 107
2, 78850, Control_c, 0, 64, 63
2, 78854, Control_c, 0, 64, 0
2, 78860, Note_on_c, 0, 49, 88
2, 78870, Note_on_c, 0, 73, 0
2, 78871, Note_on_c, 0, 71, 71
2, 78879, Note_on_c, 0, 47, 0
2, 78906, Note_on_c, 0, 71, 0
2, 78917, Note_on_c, 0, 69, 84
2, 78955, Note_on_c, 0, 51, 80
2, 78964, Note_on_c, 0, 69, 0
2, 78968, Note_on_c, 0, 68, 99
2, 78984, Note_on_c, 0, 49, 0
2, 79011, Note_on_c, 0, 69, 88
2, 79013, Note_on_c, 0, 68, 0
2, 79056, Note_on_c, 0, 51, 0
2, 79056, Note_on_c, 0, 52, 66
2, 79063, Note_on_c, 0, 69, 0
2, 79064, Note_on_c, 0, 68, 98
2, 79112, Note_on_c, 0, 68, 0
2, 79115, Note_on_c, 0, 71, 88
2, 79169, Note_on_c, 0, 69, 76
2, 79176, Note_on_c, 0, 71, 0
2, 79210, Note_on_c, 0, 68, 95
2, 79222, Note_on_c, 0, 69, 0
2, 79250, Note_on_c, 0, 69, 76
2, 79255, Note_on_c, 0, 68, 0
2, 79310, Note_on_c, 0, 71, 97
2, 79316, Note_on_c, 0, 69, 0
2, 79336, Control_c, 0, 64, 63
2, 79341, Control_c, 0, 64, 127
2, 79356, Note_on_c, 0, 73, 106
2, 79371, Note_on_c, 0, 71, 0
2, 79396, Note_on_c, 0, 52, 0
2, 79401, Note_on_c, 0, 75, 103
2, 79422, Note_on_c, 0, 73, 0
2, 79449, Note_on_c, 0, 75, 0
2, 79451, Note_on_c, 0, 76, 97
2, 79476, Control_c, 0, 64, 63
2, 79485, Control_c, 0, 64, 0
2, 79496, Note_on_c, 0, 78, 108
2, 79505, Note_on_c, 0, 76, 0
2, 79538, Note_on_c, 0, 80, 109
2, 79559, Note_on_c, 0, 78, 0
2, 79583, Note_on_c, 0, 81, 102
2, 79591, Note_on_c, 0, 80, 0
2, 79635, Note_on_c, 0, 83, 103
2, 79648, Note_on_c, 0, 81, 0
2, 79680, Note_on_c, 0, 85, 112
2, 79703, Note_on_c, 0, 83, 0
2, 79732, Note_on_c, 0, 87, 103
2, 79760, Note_on_c, 0, 85, 0
2, 79782, Note_on_c, 0, 88, 97
2, 79794, Note_on_c, 0, 87, 0
2, 79827, Note_on_c, 0, 87, 85
2, 79855, Note_on_c, 0, 88, 0
2, 79874, Note_on_c, 0, 85, 100
2, 79894, Note_on_c, 0, 87, 0
2, 79917, Note_on_c, 0, 83, 98
2, 79941, Note_on_c, 0, 85, 0
2, 79967, Note_on_c, 0, 81, 90
2, 79968, Note_on_c, 0, 83, 0
2, 80014, Note_on_c, 0, 81, 0
2, 80017, Note_on_c, 0, 80, 98
2, 80065, Note_on_c, 0, 78, 100
2, 80069, Note_on_c, 0, 80, 0
2, 80109, Note_on_c, 0, 78, 0
2, 80110, Note_on_c, 0, 76, 85
2, 80150, Note_on_c, 0, 76, 0
2, 80156, Note_on_c, 0, 75, 98
2, 80196, Note_on_c, 0, 75, 0
2, 80218, Note_on_c, 0, 73, 110
2, 80231, Note_on_c, 0, 57, 53
2, 80235, Note_on_c, 0, 66, 65
2, 80295, Control_c, 0, 64, 63
2, 80297, Control_c, 0, 64, 127
2, 80363, Note_on_c, 0, 73, 0
2, 80364, Note_on_c, 0, 66, 0
2, 80376, Note_on_c, 0, 57, 0
2, 80399, Note_on_c, 0, 85, 89
2, 80438, Note_on_c, 0, 76, 97
2, 80446, Note_on_c, 0, 85, 0
2, 80446, Note_on_c, 0, 68, 84
2, 80449, Control_c, 0, 64, 63
2, 80452, Control_c, 0, 64, 0
2, 80461, Note_on_c, 0, 59, 62
2, 80517, Control_c, 0, 64, 63
2, 80521, Control_c, 0, 64, 127
2, 80583, Note_on_c, 0, 76, 0
2, 80602, Note_on_c, 0, 68, 0
2, 80647, Note_on_c, 0, 80, 88
2, 80655, Note_on_c, 0, 75, 90
2, 80667, Note_on_c, 0, 69, 50
2, 80671, Note_on_c, 0, 78, 80
2, 80687, Control_c, 0, 64, 63
2, 80695, Control_c, 0, 64, 0
2, 80709, Note_on_c, 0, 80, 0
2, 80750, Control_c, 0, 64, 63
2, 80754, Note_on_c, 0, 59, 0
2, 80759, Control_c, 0, 64, 127
2, 80875, Note_on_c, 0, 75, 0
2, 80878, Note_on_c, 0, 68, 51
2, 80882, Note_on_c, 0, 78, 0
2, 80889, Note_on_c, 0, 76, 71
2, 80894, Note_on_c, 0, 64, 55
2, 80913, Note_on_c, 0, 69, 0
2, 80923, Control_c, 0, 64, 63
2, 80931, Control_c, 0, 64, 0
2, 80989, Control_c, 0, 64, 63
2, 80994, Control_c, 0, 64, 127
2, 81024, Note_on_c, 0, 68, 0
2, 81047, Note_on_c, 0, 64, 0
2, 81139, Note_on_c, 0, 52, 57
2, 81175, Note_on_c, 0, 52, 0
2, 81192, Note_on_c, 0, 76, 0
2, 81418, Control_c, 0, 64, 63
2, 81428, Control_c, 0, 64, 0
2, 81647, Control_c, 0, 64, 63
2, 81652, Control_c, 0, 64, 127
2, 81684, Note_on_c, 0, 64, 80
2, 81717, Note_on_c, 0, 76, 96
2, 81860, Note_on_c, 0, 76, 0
2, 81928, Note_on_c, 0, 66, 115
2, 81954, Note_on_c, 0, 64, 0
2, 81954, Note_on_c, 0, 78, 113
2, 81988, Control_c, 0, 64, 63
2, 81999, Control_c, 0, 64, 0
2, 82030, Control_c, 0, 64, 63
2, 82039, Control_c, 0, 64, 127
2, 82145, Note_on_c, 0, 78, 0
2, 82146, Note_on_c, 0, 67, 97
2, 82174, Note_on_c, 0, 79, 109
2, 82176, Note_on_c, 0, 66, 0
2, 82206, Control_c, 0, 64, 63
2, 82214, Control_c, 0, 64, 0
2, 82242, Control_c, 0, 64, 63
2, 82252, Control_c, 0, 64, 127
2, 82302, Note_on_c, 0, 79, 0
2, 82316, Note_on_c, 0, 67, 0
2, 82439, Note_on_c, 0, 54, 60
2, 82468, Note_on_c, 0, 71, 96
2, 82551, Control_c, 0, 64, 63
2, 82559, Control_c, 0, 64, 0
2, 82606, Note_on_c, 0, 61, 66
2, 82630, Control_c, 0, 64, 63
2, 82635, Control_c, 0, 64, 127
2, 82678, Note_on_c, 0, 54, 0
2, 82709, Note_on_c, 0, 61, 0
2, 82709, Note_on_c, 0, 66, 61
2, 82712, Note_on_c, 0, 70, 84
2, 82714, Note_on_c, 0, 71, 0
2, 82764, Note_on_c, 0, 66, 0
2, 82824, Note_on_c, 0, 64, 57
2, 82939, Note_on_c, 0, 62, 58
2, 82942, Control_c, 0, 64, 63
2, 82943, Note_on_c, 0, 64, 0
2, 82955, Control_c, 0, 64, 0
2, 82988, Note_on_c, 0, 70, 0
2, 82990, Control_c, 0, 64, 63
2, 83003, Control_c, 0, 64, 127
2, 83047, Note_on_c, 0, 61, 65
2, 83051, Note_on_c, 0, 62, 0
2, 83080, Note_on_c, 0, 61, 0
2, 83097, Note_on_c, 0, 70, 81
2, 83128, Control_c, 0, 64, 63
2, 83138, Control_c, 0, 64, 0
2, 83144, Note_on_c, 0, 73, 86
2, 83158, Note_on_c, 0, 54, 65
2, 83159, Note_on_c, 0, 70, 0
2, 83227, Control_c, 0, 64, 63
2, 83232, Control_c, 0, 64, 127
2, 83266, Note_on_c, 0, 62, 71
2, 83366, Note_on_c, 0, 73, 0
2, 83371, Note_on_c, 0, 71, 83
2, 83378, Note_on_c, 0, 66, 66
2, 83393, Note_on_c, 0, 62, 0
2, 83481, Note_on_c, 0, 66, 0
2, 83490, Note_on_c, 0, 62, 49
2, 83537, Note_on_c, 0, 71, 0
2, 83583, Note_on_c, 0, 54, 0
2, 83589, Note_on_c, 0, 61, 88
2, 83603, Note_on_c, 0, 62, 0
2, 83626, Control_c, 0, 64, 63
2, 83634, Control_c, 0, 64, 0
2, 83676, Control_c, 0, 64, 63
2, 83683, Note_on_c, 0, 59, 76
2, 83686, Control_c, 0, 64, 127
2, 83716, Note_on_c, 0, 61, 0
2, 83729, Note_on_c, 0, 71, 91
2, 83781, Note_on_c, 0, 74, 107
2, 83793, Note_on_c, 0, 54, 68
2, 83807, Note_on_c, 0, 71, 0
2, 83818, Note_on_c, 0, 59, 0
2, 83820, Control_c, 0, 64, 63
2, 83872, Control_c, 0, 64, 127
2, 83903, Note_on_c, 0, 58, 76
2, 84014, Note_on_c, 0, 64, 48
2, 84017, Note_on_c, 0, 73, 97
2, 84031, Note_on_c, 0, 58, 0
2, 84045, Note_on_c, 0, 74, 0
2, 84052, Control_c, 0, 64, 63
2, 84070, Control_c, 0, 64, 0
2, 84110, Note_on_c, 0, 61, 72
2, 84111, Control_c, 0, 64, 63
2, 84124, Control_c, 0, 64, 127
2, 84196, Note_on_c, 0, 54, 0
2, 84210, Note_on_c, 0, 73, 0
2, 84219, Note_on_c, 0, 64, 0
2, 84224, Note_on_c, 0, 59, 54
2, 84253, Note_on_c, 0, 61, 0
2, 84328, Note_on_c, 0, 58, 63
2, 84359, Note_on_c, 0, 59, 0
2, 84380, Note_on_c, 0, 73, 90
2, 84389, Control_c, 0, 64, 63
2, 84402, Control_c, 0, 64, 0
2, 84440, Note_on_c, 0, 76, 74
2, 84449, Note_on_c, 0, 58, 0
2, 84452, Note_on_c, 0, 59, 56
2, 84458, Note_on_c, 0, 73, 0
2, 84553, Control_c, 0, 64, 63
2, 84557, Control_c, 0, 64, 127
2, 84559, Note_on_c, 0, 74, 84
2, 84568, Note_on_c, 0, 76, 0
2, 84609, Note_on_c, 0, 74, 0
2, 84661, Note_on_c, 0, 77, 103
2, 84728, Control_c, 0, 64, 63
2, 84742, Control_c, 0, 64, 0
2, 84765, Note_on_c, 0, 76, 109
2, 84789, Note_on_c, 0, 59, 0
2, 84792, Control_c, 0, 64, 63
2, 84800, Control_c, 0, 64, 127
2, 84808, Note_on_c, 0, 77, 0
2, 84854, Note_on_c, 0, 76, 0
2, 84875, Note_on_c, 0, 79, 104
2, 84894, Control_c, 0, 64, 63
2, 84908, Control_c, 0, 64, 0
2, 84982, Note_on_c, 0, 77, 96
2, 84994, Control_c, 0, 64, 63
2, 85003, Control_c, 0, 64, 127
2, 85019, Note_on_c, 0, 79, 0
2, 85057, Control_c, 0, 64, 63
2, 85078, Control_c, 0, 64, 0
2, 85114, Note_on_c, 0, 77, 0
2, 85115, Note_on_c, 0, 69, 84
2, 85115, Note_on_c, 0, 52, 63
2, 85228, Note_on_c, 0, 59, 69
2, 85245, Control_c, 0, 64, 63
2, 85253, Control_c, 0, 64, 127
2, 85318, Note_on_c, 0, 52, 0
2, 85338, Note_on_c, 0, 68, 80
2, 85353, Note_on_c, 0, 64, 35
2, 85357, Note_on_c, 0, 59, 0
2, 85362, Note_on_c, 0, 69, 0
2, 85456, Note_on_c, 0, 62, 62
2, 85459, Note_on_c, 0, 64, 0
2, 85523, Control_c, 0, 64, 63
2, 85532, Control_c, 0, 64, 0
2, 85568, Note_on_c, 0, 60, 65
2, 85592, Note_on_c, 0, 62, 0
2, 85593, Note_on_c, 0, 68, 0
2, 85599, Control_c, 0, 64, 63
2, 85611, Control_c, 0, 64, 127
2, 85666, Note_on_c, 0, 59, 67
2, 85688, Note_on_c, 0, 60, 0
2, 85710, Note_on_c, 0, 68, 77
2, 85718, Note_on_c, 0, 59, 0
2, 85775, Note_on_c, 0, 71, 89
2, 85779, Control_c, 0, 64, 63
2, 85781, Note_on_c, 0, 52, 65
2, 85784, Control_c, 0, 64, 0
2, 85803, Note_on_c, 0, 68, 0
2, 85892, Note_on_c, 0, 60, 72
2, 85970, Control_c, 0, 64, 63
2, 85979, Control_c, 0, 64, 127
2, 86002, Note_on_c, 0, 69, 77
2, 86004, Note_on_c, 0, 64, 55
2, 86008, Note_on_c, 0, 71, 0
2, 86027, Note_on_c, 0, 60, 0
2, 86104, Note_on_c, 0, 60, 70
2, 86107, Note_on_c, 0, 64, 0
2, 86178, Note_on_c, 0, 69, 0
2, 86208, Note_on_c, 0, 60, 0
2, 86209, Note_on_c, 0, 59, 68
2, 86252, Control_c, 0, 64, 63
2, 86262, Control_c, 0, 64, 0
2, 86307, Note_on_c, 0, 57, 80
2, 86313, Control_c, 0, 64, 63
2, 86325, Control_c, 0, 64, 127
2, 86340, Note_on_c, 0, 59, 0
2, 86342, Note_on_c, 0, 52, 0
2, 86367, Note_on_c, 0, 69, 102
2, 86385, Control_c, 0, 64, 63
2, 86392, Control_c, 0, 64, 0
2, 86420, Note_on_c, 0, 52, 63
2, 86429, Note_on_c, 0, 72, 99
2, 86458, Note_on_c, 0, 69, 0
2, 86464, Note_on_c, 0, 57, 0
2, 86489, Control_c, 0, 64, 63
2, 86497, Control_c, 0, 64, 127
2, 86533, Note_on_c, 0, 56, 91
2, 86641, Note_on_c, 0, 62, 76
2, 86647, Note_on_c, 0, 71, 97
2, 86673, Control_c, 0, 64, 63
2, 86685, Control_c, 0, 64, 0
2, 86686, Note_on_c, 0, 72, 0
2, 86694, Note_on_c, 0, 56, 0
2, 86724, Control_c, 0, 64, 63
2, 86734, Control_c, 0, 64, 127
2, 86753, Note_on_c, 0, 59, 62
2, 86795, Note_on_c, 0, 62, 0
2, 86815, Note_on_c, 0, 71, 0
2, 86863, Note_on_c, 0, 57, 83
2, 86864, Note_on_c, 0, 52, 0
2, 86896, Note_on_c, 0, 59, 0
2, 86930, Control_c, 0, 64, 63
2, 86935, Control_c, 0, 64, 0
2, 86968, Note_on_c, 0, 56, 99
2, 86999, Note_on_c, 0, 57, 0
2, 87017, Note_on_c, 0, 71, 103
2, 87069, Note_on_c, 0, 56, 0
2, 87069, Note_on_c, 0, 57, 96
2, 87070, Note_on_c, 0, 74, 113
2, 87088, Note_on_c, 0, 71, 0
2, 87111, Control_c, 0, 64, 127
2, 87191, Note_on_c, 0, 72, 108
2, 87226, Note_on_c, 0, 74, 0
2, 87299, Note_on_c, 0, 71, 112
2, 87304, Control_c, 0, 64, 63
2, 87306, Control_c, 0, 64, 0
2, 87329, Note_on_c, 0, 72, 0
2, 87329, Note_on_c, 0, 57, 0
2, 87392, Note_on_c, 0, 69, 103
2, 87400, Note_on_c, 0, 71, 0
2, 87494, Note_on_c, 0, 69, 0
2, 87499, Note_on_c, 0, 55, 113
2, 87500, Note_on_c, 0, 81, 111
2, 87503, Note_on_c, 0, 43, 108
2, 87536, Control_c, 0, 64, 127
2, 87571, Note_on_c, 0, 81, 0
2, 87606, Note_on_c, 0, 81, 112
2, 87670, Note_on_c, 0, 55, 0
2, 87737, Note_on_c, 0, 53, 114
2, 87738, Note_on_c, 0, 83, 108
2, 87739, Note_on_c, 0, 41, 111
2, 87750, Control_c, 0, 64, 63
2, 87752, Control_c, 0, 64, 0
2, 87762, Note_on_c, 0, 43, 0
2, 87783, Note_on_c, 0, 81, 0
2, 87863, Note_on_c, 0, 81, 106
2, 87894, Note_on_c, 0, 83, 0
2, 87975, Note_on_c, 0, 79, 102
2, 88012, Note_on_c, 0, 81, 0
2, 88073, Note_on_c, 0, 77, 107
2, 88103, Control_c, 0, 64, 127
2, 88105, Note_on_c, 0, 79, 0
2, 88145, Note_on_c, 0, 41, 0
2, 88183, Note_on_c, 0, 76, 106
2, 88205, Note_on_c, 0, 77, 0
2, 88212, Note_on_c, 0, 53, 0
2, 88286, Note_on_c, 0, 75, 119
2, 88299, Control_c, 0, 64, 63
2, 88313, Note_on_c, 0, 76, 0
2, 88323, Control_c, 0, 64, 127
2, 88406, Note_on_c, 0, 75, 0
2, 88430, Note_on_c, 0, 53, 83
2, 88430, Note_on_c, 0, 57, 86
2, 88433, Note_on_c, 0, 84, 117
2, 88438, Control_c, 0, 64, 63
2, 88440, Control_c, 0, 64, 0
2, 88529, Control_c, 0, 64, 127
2, 88568, Note_on_c, 0, 56, 92
2, 88599, Note_on_c, 0, 57, 0
2, 88676, Note_on_c, 0, 56, 0
2, 88679, Note_on_c, 0, 57, 94
2, 88787, Note_on_c, 0, 60, 101
2, 88827, Note_on_c, 0, 57, 0
2, 88898, Note_on_c, 0, 75, 104
2, 88901, Note_on_c, 0, 84, 0
2, 88905, Note_on_c, 0, 59, 84
2, 88936, Note_on_c, 0, 60, 0
2, 88955, Control_c, 0, 64, 63
2, 88967, Control_c, 0, 64, 0
2, 89011, Control_c, 0, 64, 63
2, 89018, Note_on_c, 0, 57, 84
2, 89021, Control_c, 0, 64, 127
2, 89046, Note_on_c, 0, 53, 0
2, 89064, Note_on_c, 0, 59, 0
2, 89137, Note_on_c, 0, 75, 0
2, 89167, Note_on_c, 0, 76, 90
2, 89170, Note_on_c, 0, 52, 59
2, 89174, Note_on_c, 0, 56, 83
2, 89193, Control_c, 0, 64, 63
2, 89199, Control_c, 0, 64, 0
2, 89201, Note_on_c, 0, 57, 0
2, 89409, Control_c, 0, 64, 127
2, 89430, Note_on_c, 0, 76, 0
2, 89441, Note_on_c, 0, 52, 0
2, 89444, Note_on_c, 0, 56, 0
2, 89542, Control_c, 0, 64, 63
2, 89548, Note_on_c, 0, 78, 98
2, 89567, Control_c, 0, 64, 127
2, 89583, Note_on_c, 0, 76, 97
2, 89593, Note_on_c, 0, 78, 0
2, 89614, Note_on_c, 0, 76, 0
2, 89629, Control_c, 0, 64, 63
2, 89637, Control_c, 0, 64, 0
2, 89649, Note_on_c, 0, 76, 94
2, 89656, Control_c, 0, 64, 63
2, 89664, Control_c, 0, 64, 127
2, 89703, Note_on_c, 0, 74, 87
2, 89724, Note_on_c, 0, 76, 0
2, 89744, Note_on_c, 0, 73, 91
2, 89767, Note_on_c, 0, 74, 0
2, 89790, Note_on_c, 0, 71, 92
2, 89802, Note_on_c, 0, 73, 0
2, 89824, Note_on_c, 0, 71, 0
2, 89872, Control_c, 0, 64, 63
2, 89875, Control_c, 0, 64, 0
2, 89915, Control_c, 0, 64, 63
2, 89918, Control_c, 0, 64, 127
2, 89923, Note_on_c, 0, 61, 101
2, 89928, Note_on_c, 0, 45, 84
2, 89933, Note_on_c, 0, 57, 106
2, 89934, Note_on_c, 0, 64, 92
2, 89948, Note_on_c, 0, 69, 99
2, 89955, Note_on_c, 0, 61, 0
2, 89963, Note_on_c, 0, 45, 0
2, 89966, Note_on_c, 0, 57, 0
2, 89976, Note_on_c, 0, 64, 0
2, 90108, Note_on_c, 0, 69, 0
2, 90389, Note_on_c, 0, 40, 98
2, 90389, Note_on_c, 0, 52, 98
2, 90394, Note_on_c, 0, 64, 108
2, 90398, Control_c, 0, 64, 63
2, 90401, Control_c, 0, 64, 0
2, 90442, Control_c, 0, 64, 63
2, 90448, Control_c, 0, 64, 127
2, 90466, Note_on_c, 0, 40, 0
2, 90493, Note_on_c, 0, 52, 0
2, 90496, Note_on_c, 0, 64, 0
2, 90612, Note_on_c, 0, 73, 120
2, 90613, Note_on_c, 0, 61, 114
2, 90617, Control_c, 0, 64, 63
2, 90620, Note_on_c, 0, 49, 104
2, 90625, Control_c, 0, 64, 0
2, 90653, Control_c, 0, 64, 63
2, 90662, Control_c, 0, 64, 127
2, 90679, Note_on_c, 0, 61, 0
2, 90689, Note_on_c, 0, 49, 0
2, 90726, Note_on_c, 0, 73, 0
2, 90737, Note_on_c, 0, 74, 89
2, 90775, Note_on_c, 0, 71, 93
2, 90795, Note_on_c, 0, 74, 0
2, 90815, Control_c, 0, 64, 63
2, 90820, Note_on_c, 0, 69, 83
2, 90822, Control_c, 0, 64, 0
2, 90831, Note_on_c, 0, 57, 97
2, 90839, Note_on_c, 0, 45, 89
2, 90842, Note_on_c, 0, 71, 0
2, 90927, Control_c, 0, 64, 63
2, 90931, Control_c, 0, 64, 127
2, 91037, Note_on_c, 0, 69, 0
2, 91044, Note_on_c, 0, 45, 0
2, 91059, Control_c, 0, 64, 63
2, 91061, Note_on_c, 0, 57, 0
2, 91064, Control_c, 0, 64, 0
2, 91266, Control_c, 0, 64, 63
2, 91275, Control_c, 0, 64, 127
2, 91280, Note_on_c, 0, 76, 86
2, 91382, Note_on_c, 0, 76, 0
2, 91398, Note_on_c, 0, 78, 76
2, 91433, Control_c, 0, 64, 63
2, 91439, Note_on_c, 0, 74, 77
2, 91442, Note_on_c, 0, 78, 0
2, 91444, Control_c, 0, 64, 0
2, 91490, Note_on_c, 0, 74, 0
2, 91492, Note_on_c, 0, 73, 92
2, 91713, Note_on_c, 0, 85, 79
2, 91717, Note_on_c, 0, 66, 65
2, 91722, Note_on_c, 0, 57, 48
2, 91723, Note_on_c, 0, 73, 0
2, 91752, Note_on_c, 0, 85, 0
2, 91766, Note_on_c, 0, 66, 0
2, 91767, Note_on_c, 0, 57, 0
2, 91932, Control_c, 0, 64, 63
2, 91937, Note_on_c, 0, 59, 57
2, 91941, Note_on_c, 0, 75, 79
2, 91944, Note_on_c, 0, 69, 43
2, 91961, Control_c, 0, 64, 127
2, 92050, Note_on_c, 0, 59, 0
2, 92067, Control_c, 0, 64, 63
2, 92154, Control_c, 0, 64, 127
2, 92167, Note_on_c, 0, 68, 60
2, 92169, Note_on_c, 0, 76, 63
2, 92173, Note_on_c, 0, 75, 0
2, 92180, Control_c, 0, 64, 63
2, 92186, Note_on_c, 0, 64, 47
2, 92199, Note_on_c, 0, 69, 0
2, 92222, Control_c, 0, 64, 0
2, 92378, Control_c, 0, 64, 63
2, 92389, Control_c, 0, 64, 127
2, 92536, Note_on_c, 0, 77, 81
2, 92550, Note_on_c, 0, 76, 0
2, 92634, Note_on_c, 0, 64, 0
2, 92639, Note_on_c, 0, 80, 87
2, 92644, Note_on_c, 0, 68, 0
2, 92683, Note_on_c, 0, 77, 0
2, 92756, Note_on_c, 0, 78, 89
2, 92797, Note_on_c, 0, 80, 0
2, 92867, Note_on_c, 0, 76, 73
2, 92868, Control_c, 0, 64, 63
2, 92890, Control_c, 0, 64, 0
2, 92894, Note_on_c, 0, 78, 0
2, 92974, Note_on_c, 0, 74, 68
2, 92981, Note_on_c, 0, 76, 0
2, 93003, Control_c, 0, 64, 63
2, 93021, Control_c, 0, 64, 127
2, 93090, Note_on_c, 0, 73, 73
2, 93095, Note_on_c, 0, 74, 0
2, 93193, Note_on_c, 0, 71, 65
2, 93208, Control_c, 0, 64, 63
2, 93215, Note_on_c, 0, 73, 0
2, 93273, Control_c, 0, 64, 0
2, 93310, Note_on_c, 0, 69, 52
2, 93314, Note_on_c, 0, 71, 0
2, 93330, Note_on_c, 0, 52, 18
2, 93380, Control_c, 0, 64, 63
2, 93396, Control_c, 0, 64, 127
2, 93416, Note_on_c, 0, 68, 80
2, 93430, Note_on_c, 0, 62, 41
2, 93431, Note_on_c, 0, 69, 0
2, 93508, Note_on_c, 0, 68, 0
2, 93526, Note_on_c, 0, 76, 72
2, 93543, Note_on_c, 0, 59, 48
2, 93544, Note_on_c, 0, 62, 0
2, 93554, Control_c, 0, 64, 63
2, 93589, Control_c, 0, 64, 0
2, 93614, Control_c, 0, 64, 63
2, 93634, Note_on_c, 0, 74, 59
2, 93647, Note_on_c, 0, 62, 38
2, 93653, Control_c, 0, 64, 127
2, 93654, Note_on_c, 0, 59, 0
2, 93662, Note_on_c, 0, 76, 0
2, 93756, Note_on_c, 0, 74, 0
2, 93762, Note_on_c, 0, 59, 59
2, 93763, Note_on_c, 0, 62, 0
2, 93764, Control_c, 0, 64, 63
2, 93789, Note_on_c, 0, 52, 0
2, 93819, Control_c, 0, 64, 0
2, 93859, Note_on_c, 0, 59, 0
2, 93859, Note_on_c, 0, 62, 54
2, 93933, Control_c, 0, 64, 63
2, 93957, Control_c, 0, 64, 127
2, 93961, Note_on_c, 0, 71, 82
2, 93964, Note_on_c, 0, 52, 54
2, 93983, Note_on_c, 0, 62, 0
2, 94070, Note_on_c, 0, 61, 72
2, 94072, Note_on_c, 0, 69, 83
2, 94084, Note_on_c, 0, 71, 0
2, 94182, Note_on_c, 0, 61, 0
2, 94182, Note_on_c, 0, 78, 84
2, 94188, Note_on_c, 0, 57, 49
2, 94205, Note_on_c, 0, 69, 0
2, 94233, Control_c, 0, 64, 63
2, 94254, Control_c, 0, 64, 0
2, 94290, Note_on_c, 0, 76, 75
2, 94294, Note_on_c, 0, 61, 51
2, 94303, Note_on_c, 0, 78, 0
2, 94311, Control_c, 0, 64, 63
2, 94321, Note_on_c, 0, 57, 0
2, 94329, Control_c, 0, 64, 127
2, 94409, Note_on_c, 0, 61, 0
2, 94410, Note_on_c, 0, 57, 59
2, 94419, Note_on_c, 0, 76, 0
2, 94468, Control_c, 0, 64, 63
2, 94478, Control_c, 0, 64, 0
2, 94487, Note_on_c, 0, 52, 0
2, 94502, Note_on_c, 0, 61, 85
2, 94569, Control_c, 0, 64, 63
2, 94577, Control_c, 0, 64, 127
2, 94607, Note_on_c, 0, 71, 103
2, 94608, Note_on_c, 0, 52, 77
2, 94668, Note_on_c, 0, 61, 0
2, 94719, Note_on_c, 0, 69, 106
2, 94722, Note_on_c, 0, 61, 91
2, 94739, Note_on_c, 0, 71, 0
2, 94752, Note_on_c, 0, 57, 0
2, 94839, Note_on_c, 0, 81, 101
2, 94851, Note_on_c, 0, 57, 65
2, 94868, Note_on_c, 0, 69, 0
2, 94876, Note_on_c, 0, 61, 0
2, 94942, Note_on_c, 0, 79, 96
2, 94943, Control_c, 0, 64, 63
2, 94953, Control_c, 0, 64, 0
2, 94957, Note_on_c, 0, 61, 67
2, 94987, Note_on_c, 0, 81, 0
2, 94988, Note_on_c, 0, 57, 0
2, 95004, Control_c, 0, 64, 63
2, 95012, Control_c, 0, 64, 127
2, 95068, Note_on_c, 0, 57, 65
2, 95075, Note_on_c, 0, 61, 0
2, 95092, Note_on_c, 0, 79, 0
2, 95120, Note_on_c, 0, 52, 0
2, 95163, Note_on_c, 0, 61, 69
2, 95174, Note_on_c, 0, 57, 0
2, 95204, Note_on_c, 0, 61, 0
2, 95289, Note_on_c, 0, 62, 48
2, 95295, Note_on_c, 0, 79, 63
2, 95296, Note_on_c, 0, 57, 32
2, 95314, Note_on_c, 0, 50, 24
2, 95336, Control_c, 0, 64, 63
2, 95350, Control_c, 0, 64, 0
2, 95415, Note_on_c, 0, 78, 72
2, 95445, Note_on_c, 0, 79, 0
2, 95528, Note_on_c, 0, 76, 75
2, 95553, Note_on_c, 0, 78, 0
2, 95599, Note_on_c, 0, 62, 0
2, 95630, Note_on_c, 0, 74, 75
2, 95632, Note_on_c, 0, 50, 0
2, 95634, Note_on_c, 0, 76, 0
2, 95638, Note_on_c, 0, 57, 0
2, 95737, Note_on_c, 0, 74, 0
2, 95737, Note_on_c, 0, 73, 82
2, 95830, Note_on_c, 0, 73, 0
2, 95833, Note_on_c, 0, 71, 65
2, 95879, Note_on_c, 0, 71, 0
2, 95932, Control_c, 0, 64, 127
2, 95943, Note_on_c, 0, 76, 99
2, 95944, Note_on_c, 0, 49, 99
2, 95961, Note_on_c, 0, 49, 0
2, 95978, Note_on_c, 0, 76, 0
2, 95984, Note_on_c, 0, 78, 79
2, 96018, Note_on_c, 0, 76, 56
2, 96027, Note_on_c, 0, 78, 0
2, 96056, Note_on_c, 0, 76, 0
2, 96057, Note_on_c, 0, 74, 76
2, 96096, Note_on_c, 0, 76, 57
2, 96102, Note_on_c, 0, 74, 0
2, 96116, Note_on_c, 0, 50, 57
2, 96127, Note_on_c, 0, 78, 89
2, 96134, Control_c, 0, 64, 63
2, 96138, Note_on_c, 0, 76, 0
2, 96139, Control_c, 0, 64, 0
2, 96164, Note_on_c, 0, 61, 87
2, 96169, Note_on_c, 0, 78, 0
2, 96173, Note_on_c, 0, 50, 0
2, 96175, Note_on_c, 0, 69, 91
2, 96181, Control_c, 0, 64, 63
2, 96186, Control_c, 0, 64, 127
2, 96194, Note_on_c, 0, 52, 51
2, 96350, Control_c, 0, 64, 63
2, 96354, Control_c, 0, 64, 0
2, 96358, Note_on_c, 0, 61, 0
2, 96399, Note_on_c, 0, 59, 55
2, 96400, Note_on_c, 0, 68, 83
2, 96413, Control_c, 0, 64, 63
2, 96416, Control_c, 0, 64, 127
2, 96435, Note_on_c, 0, 69, 0
2, 96466, Note_on_c, 0, 68, 0
2, 96496, Note_on_c, 0, 52, 0
2, 96529, Note_on_c, 0, 59, 0
2, 96529, Control_c, 0, 64, 63
2, 96534, Control_c, 0, 64, 0
2, 96596, Note_on_c, 0, 69, 85
2, 96612, Note_on_c, 0, 73, 105
2, 96616, Control_c, 0, 64, 63
2, 96618, Control_c, 0, 64, 127
2, 96627, Note_on_c, 0, 57, 59
2, 96629, Note_on_c, 0, 76, 104
2, 96633, Note_on_c, 0, 69, 0
2, 96648, Note_on_c, 0, 73, 0
2, 96665, Note_on_c, 0, 76, 0
2, 96677, Control_c, 0, 64, 63
2, 96682, Control_c, 0, 64, 0
2, 96726, Note_on_c, 0, 61, 96
2, 96825, Note_on_c, 0, 76, 118
2, 96833, Note_on_c, 0, 64, 84
2, 96841, Control_c, 0, 64, 63
2, 96842, Control_c, 0, 64, 127
2, 96852, Note_on_c, 0, 61, 0
2, 96940, Note_on_c, 0, 61, 74
2, 96951, Note_on_c, 0, 64, 0
2, 97008, Note_on_c, 0, 57, 0
2, 97046, Note_on_c, 0, 59, 84
2, 97049, Note_on_c, 0, 61, 0
2, 97117, Note_on_c, 0, 76, 0
2, 97140, Note_on_c, 0, 57, 86
2, 97150, Note_on_c, 0, 59, 0
2, 97228, Control_c, 0, 64, 63
2, 97233, Control_c, 0, 64, 0
2, 97253, Note_on_c, 0, 76, 108
2, 97255, Note_on_c, 0, 56, 86
2, 97262, Note_on_c, 0, 57, 0
2, 97281, Control_c, 0, 64, 63
2, 97287, Control_c, 0, 64, 127
2, 97310, Note_on_c, 0, 74, 89
2, 97339, Note_on_c, 0, 76, 0
2, 97346, Note_on_c, 0, 73, 88
2, 97371, Note_on_c, 0, 74, 0
2, 97375, Note_on_c, 0, 57, 67
2, 97379, Note_on_c, 0, 56, 0
2, 97390, Note_on_c, 0, 71, 93
2, 97400, Note_on_c, 0, 73, 0
2, 97427, Note_on_c, 0, 71, 0
2, 97444, Note_on_c, 0, 59, 88
2, 97452, Note_on_c, 0, 57, 0
2, 97455, Note_on_c, 0, 71, 81
2, 97468, Control_c, 0, 64, 63
2, 97473, Control_c, 0, 64, 0
2, 97506, Note_on_c, 0, 69, 83
2, 97528, Note_on_c, 0, 71, 0
2, 97544, Control_c, 0, 64, 63
2, 97547, Control_c, 0, 64, 127
2, 97548, Note_on_c, 0, 68, 89
2, 97554, Note_on_c, 0, 52, 76
2, 97560, Note_on_c, 0, 59, 0
2, 97563, Note_on_c, 0, 69, 0
2, 97597, Note_on_c, 0, 66, 99
2, 97616, Note_on_c, 0, 68, 0
2, 97638, Note_on_c, 0, 66, 0
2, 97640, Note_on_c, 0, 64, 68
2, 97653, Note_on_c, 0, 54, 90
2, 97669, Note_on_c, 0, 52, 0
2, 97685, Note_on_c, 0, 62, 99
2, 97686, Note_on_c, 0, 64, 0
2, 97690, Control_c, 0, 64, 63
2, 97695, Control_c, 0, 64, 0
2, 97732, Note_on_c, 0, 62, 0
2, 97745, Note_on_c, 0, 61, 99
2, 97762, Note_on_c, 0, 56, 94
2, 97779, Control_c, 0, 64, 63
2, 97782, Control_c, 0, 64, 127
2, 97784, Note_on_c, 0, 62, 90
2, 97785, Note_on_c, 0, 61, 0
2, 97797, Note_on_c, 0, 54, 0
2, 97833, Note_on_c, 0, 61, 99
2, 97834, Note_on_c, 0, 62, 0
2, 97857, Note_on_c, 0, 57, 99
2, 97865, Note_on_c, 0, 56, 0
2, 97870, Note_on_c, 0, 61, 0
2, 97886, Control_c, 0, 64, 63
2, 97891, Control_c, 0, 64, 0
2, 97893, Note_on_c, 0, 64, 71
2, 97933, Note_on_c, 0, 64, 0
2, 97935, Note_on_c, 0, 69, 94
2, 97952, Note_on_c, 0, 61, 107
2, 97968, Note_on_c, 0, 57, 0
2, 97985, Note_on_c, 0, 69, 0
2, 97988, Note_on_c, 0, 73, 108
2, 98026, Control_c, 0, 64, 63
2, 98027, Note_on_c, 0, 73, 0
2, 98027, Control_c, 0, 64, 127
2, 98039, Note_on_c, 0, 61, 0
2, 98042, Note_on_c, 0, 76, 114
2, 98044, Note_on_c, 0, 64, 98
2, 98076, Note_on_c, 0, 76, 0
2, 98154, Note_on_c, 0, 61, 87
2, 98156, Note_on_c, 0, 64, 0
2, 98254, Note_on_c, 0, 59, 100
2, 98255, Note_on_c, 0, 61, 0
2, 98342, Control_c, 0, 64, 63
2, 98346, Control_c, 0, 64, 0
2, 98360, Note_on_c, 0, 57, 87
2, 98361, Note_on_c, 0, 88, 79
2, 98379, Note_on_c, 0, 88, 0
2, 98401, Note_on_c, 0, 59, 0
2, 98472, Note_on_c, 0, 56, 101
2, 98473, Note_on_c, 0, 88, 113
2, 98477, Control_c, 0, 64, 127
2, 98522, Note_on_c, 0, 86, 98
2, 98549, Note_on_c, 0, 88, 0
2, 98549, Note_on_c, 0, 57, 0
2, 98569, Note_on_c, 0, 85, 93
2, 98576, Note_on_c, 0, 57, 67
2, 98593, Note_on_c, 0, 86, 0
2, 98602, Note_on_c, 0, 56, 0
2, 98607, Note_on_c, 0, 83, 97
2, 98625, Note_on_c, 0, 85, 0
2, 98642, Note_on_c, 0, 83, 0
2, 98663, Note_on_c, 0, 59, 96
2, 98670, Note_on_c, 0, 83, 86
2, 98678, Note_on_c, 0, 57, 0
2, 98723, Note_on_c, 0, 81, 88
2, 98762, Note_on_c, 0, 80, 92
2, 98767, Note_on_c, 0, 83, 0
2, 98775, Note_on_c, 0, 52, 93
2, 98783, Note_on_c, 0, 81, 0
2, 98808, Note_on_c, 0, 78, 100
2, 98812, Note_on_c, 0, 59, 0
2, 98836, Note_on_c, 0, 80, 0
2, 98852, Note_on_c, 0, 76, 77
2, 98856, Note_on_c, 0, 78, 0
2, 98866, Note_on_c, 0, 54, 88
2, 98895, Note_on_c, 0, 52, 0
2, 98896, Note_on_c, 0, 76, 0
2, 98901, Note_on_c, 0, 74, 96
2, 98952, Note_on_c, 0, 73, 109
2, 98955, Note_on_c, 0, 74, 0
2, 98961, Note_on_c, 0, 56, 86
2, 98992, Note_on_c, 0, 54, 0
2, 99005, Note_on_c, 0, 73, 0
2, 99005, Note_on_c, 0, 74, 94
2, 99038, Control_c, 0, 64, 63
2, 99043, Control_c, 0, 64, 0
2, 99047, Note_on_c, 0, 57, 99
2, 99057, Note_on_c, 0, 73, 108
2, 99061, Note_on_c, 0, 56, 0
2, 99066, Note_on_c, 0, 74, 0
2, 99083, Note_on_c, 0, 57, 0
2, 99104, Note_on_c, 0, 76, 96
2, 99110, Note_on_c, 0, 73, 0
2, 99156, Note_on_c, 0, 74, 96
2, 99180, Note_on_c, 0, 76, 0
2, 99198, Note_on_c, 0, 73, 107
2, 99221, Note_on_c, 0, 74, 0
2, 99245, Note_on_c, 0, 57, 107
2, 99249, Note_on_c, 0, 54, 115
2, 99250, Note_on_c, 0, 73, 0
2, 99250, Note_on_c, 0, 74, 88
2, 99280, Note_on_c, 0, 57, 0
2, 99282, Note_on_c, 0, 54, 0
2, 99304, Note_on_c, 0, 76, 106
2, 99317, Note_on_c, 0, 74, 0
2, 99354, Note_on_c, 0, 78, 106
2, 99375, Note_on_c, 0, 76, 0
2, 99402, Note_on_c, 0, 80, 100
2, 99425, Note_on_c, 0, 78, 0
2, 99450, Note_on_c, 0, 50, 117
2, 99451, Note_on_c, 0, 80, 0
2, 99451, Note_on_c, 0, 57, 116
2, 99452, Note_on_c, 0, 54, 116
2, 99455, Note_on_c, 0, 81, 100
2, 99478, Note_on_c, 0, 57, 0
2, 99479, Note_on_c, 0, 54, 0
2, 99490, Note_on_c, 0, 50, 0
2, 99511, Note_on_c, 0, 83, 101
2, 99514, Note_on_c, 0, 81, 0
2, 99556, Note_on_c, 0, 85, 112
2, 99584, Note_on_c, 0, 83, 0
2, 99606, Note_on_c, 0, 86, 100
2, 99635, Note_on_c, 0, 85, 0
2, 99657, Note_on_c, 0, 49, 110
2, 99657, Note_on_c, 0, 57, 109
2, 99658, Note_on_c, 0, 52, 107
2, 99660, Note_on_c, 0, 88, 112
2, 99685, Note_on_c, 0, 86, 0
2, 99697, Control_c, 0, 64, 127
2, 99712, Note_on_c, 0, 86, 92
2, 99744, Note_on_c, 0, 88, 0
2, 99761, Note_on_c, 0, 85, 98
2, 99784, Note_on_c, 0, 86, 0
2, 99809, Note_on_c, 0, 83, 94
2, 99828, Note_on_c, 0, 85, 0
2, 99855, Control_c, 0, 64, 63
2, 99860, Control_c, 0, 64, 0
2, 99863, Note_on_c, 0, 81, 88
2, 99864, Note_on_c, 0, 83, 0
2, 99915, Note_on_c, 0, 80, 101
2, 99922, Note_on_c, 0, 81, 0
2, 99962, Note_on_c, 0, 78, 92
2, 99978, Note_on_c, 0, 80, 0
2, 99990, Note_on_c, 0, 57, 0
2, 100006, Note_on_c, 0, 52, 0
2, 100014, Note_on_c, 0, 49, 0
2, 100014, Note_on_c, 0, 76, 91
2, 100020, Note_on_c, 0, 78, 0
2, 100061, Note_on_c, 0, 74, 86
2, 100067, Note_on_c, 0, 76, 0
2, 100115, Note_on_c, 0, 74, 0
2, 100117, Note_on_c, 0, 73, 97
2, 100169, Note_on_c, 0, 71, 89
2, 100174, Note_on_c, 0, 73, 0
2, 100217, Note_on_c, 0, 69, 80
2, 100219, Note_on_c, 0, 71, 0
2, 100261, Note_on_c, 0, 69, 0
2, 100318, Note_on_c, 0, 50, 83
2, 100321, Note_on_c, 0, 59, 74
2, 100323, Control_c, 0, 64, 127
2, 100326, Note_on_c, 0, 78, 98
2, 100347, Note_on_c, 0, 50, 0
2, 100355, Note_on_c, 0, 59, 0
2, 100358, Note_on_c, 0, 80, 86
2, 100364, Note_on_c, 0, 78, 0
2, 100389, Note_on_c, 0, 80, 0
2, 100423, Note_on_c, 0, 77, 84
2, 100456, Note_on_c, 0, 78, 88
2, 100470, Note_on_c, 0, 77, 0
2, 100499, Note_on_c, 0, 80, 92
2, 100508, Note_on_c, 0, 78, 0
2, 100542, Note_on_c, 0, 81, 73
2, 100546, Note_on_c, 0, 80, 0
2, 100565, Note_on_c, 0, 81, 0
2, 100581, Note_on_c, 0, 69, 84
2, 100593, Control_c, 0, 64, 63
2, 100595, Note_on_c, 0, 61, 72
2, 100598, Control_c, 0, 64, 0
2, 100600, Note_on_c, 0, 52, 52
2, 100681, Control_c, 0, 64, 63
2, 100684, Control_c, 0, 64, 127
2, 100767, Note_on_c, 0, 61, 0
2, 100779, Note_on_c, 0, 69, 0
2, 100830, Note_on_c, 0, 73, 87
2, 100844, Note_on_c, 0, 68, 70
2, 100854, Note_on_c, 0, 62, 49
2, 100856, Control_c, 0, 64, 63
2, 100861, Control_c, 0, 64, 0
2, 100865, Note_on_c, 0, 71, 76
2, 100887, Note_on_c, 0, 73, 0
2, 100918, Control_c, 0, 64, 63
2, 100924, Control_c, 0, 64, 127
2, 100945, Note_on_c, 0, 52, 0
2, 101041, Note_on_c, 0, 71, 0
2, 101043, Note_on_c, 0, 68, 0
2, 101091, Note_on_c, 0, 71, 5
2, 101123, Note_on_c, 0, 62, 0
2, 101139, Note_on_c, 0, 69, 73
2, 101143, Note_on_c, 0, 71, 0
2, 101143, Note_on_c, 0, 61, 47
2, 101149, Note_on_c, 0, 57, 31
2, 101155, Control_c, 0, 64, 63
2, 101162, Control_c, 0, 64, 0
2, 101220, Control_c, 0, 64, 63
2, 101229, Control_c, 0, 64, 127
2, 101262, Note_on_c, 0, 61, 0
2, 101291, Note_on_c, 0, 57, 0
2, 101543, Note_on_c, 0, 45, 45
2, 101568, Note_on_c, 0, 45, 0
2, 102017, Note_on_c, 0, 69, 0
2, 102104, Control_c, 0, 64, 63
2, 102120, Control_c, 0, 64, 0
2, 102120, End_track
0, 0, End_of_file
