0, 0, Header, 0, 1, 384
1, 0, Start_track
1, 0, Tempo, 512820
1, 0, Title_t, "Klaviersonate Nr. 12 KV 331 1. S"
1, 0, Program_c, 0, 0
1, 0, Control_c, 0, 7, 100
1, 3, Control_c, 0, 10, 64
1, 748, Note_on_c, 0, 69, 60
1, 748, Note_on_c, 0, 74, 73
1, 748, Control_c, 0, 91, 127
1, 751, Note_on_c, 0, 66, 60
1, 751, Program_c, 0, 0
1, 751, Control_c, 0, 7, 100
1, 754, Control_c, 0, 10, 64
1, 754, Note_on_c, 0, 45, 57
1, 754, Note_on_c, 0, 38, 57
1, 757, Note_on_c, 0, 50, 69
1, 757, Program_c, 0, 0
1, 757, Control_c, 0, 64, 127
1, 1047, Control_c, 0, 64, 0
1, 1065, Note_on_c, 0, 66, 0
1, 1065, Note_on_c, 0, 74, 0
1, 1065, Note_on_c, 0, 69, 0
1, 1068, Note_on_c, 0, 50, 0
1, 1068, Note_on_c, 0, 38, 0
1, 1068, Note_on_c, 0, 45, 0
1, 1382, Note_on_c, 0, 79, 66
1, 1382, Note_on_c, 0, 66, 45
1, 1382, Note_on_c, 0, 62, 37
1, 1458, Note_on_c, 0, 78, 55
1, 1465, Note_on_c, 0, 79, 0
1, 1534, Note_on_c, 0, 76, 54
1, 1541, Note_on_c, 0, 78, 0
1, 1610, Note_on_c, 0, 78, 54
1, 1617, Note_on_c, 0, 76, 0
1, 1686, Note_on_c, 0, 81, 65
1, 1686, Note_on_c, 0, 62, 0
1, 1686, Note_on_c, 0, 66, 0
1, 1689, Note_on_c, 0, 64, 37
1, 1689, Note_on_c, 0, 67, 45
1, 1693, Note_on_c, 0, 78, 0
1, 1762, Note_on_c, 0, 79, 55
1, 1769, Note_on_c, 0, 81, 0
1, 1838, Note_on_c, 0, 78, 55
1, 1846, Note_on_c, 0, 79, 0
1, 1920, Note_on_c, 0, 79, 55
1, 1929, Note_on_c, 0, 78, 0
1, 2003, Note_on_c, 0, 81, 62
1, 2003, Note_on_c, 0, 67, 0
1, 2003, Note_on_c, 0, 64, 0
1, 2006, Note_on_c, 0, 69, 45
1, 2006, Note_on_c, 0, 66, 37
1, 2011, Note_on_c, 0, 79, 0
1, 2305, Note_on_c, 0, 81, 0
1, 2305, Note_on_c, 0, 66, 0
1, 2305, Note_on_c, 0, 69, 0
1, 2611, Note_on_c, 0, 81, 50
1, 2649, Note_on_c, 0, 81, 0
1, 2762, Note_on_c, 0, 83, 45
1, 2800, Note_on_c, 0, 83, 0
1, 2913, Note_on_c, 0, 85, 45
1, 2951, Note_on_c, 0, 85, 0
1, 3064, Note_on_c, 0, 86, 45
1, 3103, Note_on_c, 0, 86, 0
1, 3220, Note_on_c, 0, 81, 54
1, 3220, Note_on_c, 0, 54, 38
1, 3220, Control_c, 0, 64, 127
1, 3371, Note_on_c, 0, 54, 0
1, 3371, Note_on_c, 0, 62, 32
1, 3522, Note_on_c, 0, 81, 0
1, 3522, Note_on_c, 0, 78, 45
1, 3522, Note_on_c, 0, 62, 0
1, 3525, Note_on_c, 0, 50, 38
1, 3673, Note_on_c, 0, 50, 0
1, 3673, Note_on_c, 0, 62, 33
1, 3824, Note_on_c, 0, 78, 0
1, 3824, Note_on_c, 0, 81, 50
1, 3824, Note_on_c, 0, 62, 0
1, 3827, Note_on_c, 0, 52, 37
1, 3827, Control_c, 0, 64, 0
1, 3899, Note_on_c, 0, 81, 0
1, 3899, Note_on_c, 0, 79, 44
1, 3975, Note_on_c, 0, 79, 0
1, 3975, Note_on_c, 0, 78, 44
1, 3975, Note_on_c, 0, 52, 0
1, 3978, Note_on_c, 0, 62, 32
1, 4050, Note_on_c, 0, 78, 0
1, 4050, Note_on_c, 0, 79, 44
1, 4126, Note_on_c, 0, 79, 0
1, 4126, Note_on_c, 0, 81, 49
1, 4126, Note_on_c, 0, 62, 0
1, 4129, Note_on_c, 0, 57, 37
1, 4163, Note_on_c, 0, 81, 0
1, 4163, Note_on_c, 0, 57, 0
1, 4277, Note_on_c, 0, 79, 46
1, 4277, Note_on_c, 0, 61, 30
1, 4317, Note_on_c, 0, 79, 0
1, 4317, Note_on_c, 0, 61, 0
1, 4438, Note_on_c, 0, 77, 54
1, 4438, Note_on_c, 0, 50, 42
1, 4438, Note_on_c, 0, 62, 42
1, 4595, Note_on_c, 0, 77, 0
1, 4595, Note_on_c, 0, 78, 45
1, 4744, Note_on_c, 0, 78, 0
1, 4744, Note_on_c, 0, 62, 0
1, 4744, Note_on_c, 0, 50, 0
1, 5055, Note_on_c, 0, 79, 66
1, 5055, Note_on_c, 0, 62, 37
1, 5055, Note_on_c, 0, 66, 45
1, 5131, Note_on_c, 0, 78, 55
1, 5138, Note_on_c, 0, 79, 0
1, 5207, Note_on_c, 0, 76, 54
1, 5214, Note_on_c, 0, 78, 0
1, 5283, Note_on_c, 0, 78, 54
1, 5290, Note_on_c, 0, 76, 0
1, 5359, Note_on_c, 0, 81, 65
1, 5359, Note_on_c, 0, 66, 0
1, 5359, Note_on_c, 0, 62, 0
1, 5362, Note_on_c, 0, 64, 37
1, 5362, Note_on_c, 0, 67, 45
1, 5366, Note_on_c, 0, 78, 0
1, 5435, Note_on_c, 0, 79, 55
1, 5442, Note_on_c, 0, 81, 0
1, 5511, Note_on_c, 0, 78, 55
1, 5519, Note_on_c, 0, 79, 0
1, 5593, Note_on_c, 0, 79, 55
1, 5601, Note_on_c, 0, 78, 0
1, 5676, Note_on_c, 0, 81, 62
1, 5676, Note_on_c, 0, 67, 0
1, 5676, Note_on_c, 0, 64, 0
1, 5679, Note_on_c, 0, 66, 37
1, 5679, Note_on_c, 0, 69, 45
1, 5683, Note_on_c, 0, 79, 0
1, 5978, Note_on_c, 0, 81, 0
1, 5978, Note_on_c, 0, 69, 0
1, 5978, Note_on_c, 0, 66, 0
1, 6284, Note_on_c, 0, 81, 50
1, 6322, Note_on_c, 0, 81, 0
1, 6435, Note_on_c, 0, 83, 45
1, 6472, Note_on_c, 0, 83, 0
1, 6586, Note_on_c, 0, 85, 45
1, 6623, Note_on_c, 0, 85, 0
1, 6737, Note_on_c, 0, 86, 45
1, 6776, Note_on_c, 0, 86, 0
1, 6893, Note_on_c, 0, 81, 54
1, 6893, Note_on_c, 0, 54, 38
1, 6893, Control_c, 0, 64, 127
1, 7044, Note_on_c, 0, 54, 0
1, 7044, Note_on_c, 0, 62, 32
1, 7195, Note_on_c, 0, 81, 0
1, 7195, Note_on_c, 0, 78, 45
1, 7195, Note_on_c, 0, 62, 0
1, 7198, Note_on_c, 0, 50, 38
1, 7346, Note_on_c, 0, 50, 0
1, 7346, Note_on_c, 0, 62, 33
1, 7497, Note_on_c, 0, 78, 0
1, 7497, Note_on_c, 0, 81, 50
1, 7497, Note_on_c, 0, 62, 0
1, 7500, Note_on_c, 0, 52, 37
1, 7500, Control_c, 0, 64, 0
1, 7572, Note_on_c, 0, 81, 0
1, 7572, Note_on_c, 0, 79, 44
1, 7647, Note_on_c, 0, 79, 0
1, 7647, Note_on_c, 0, 78, 44
1, 7647, Note_on_c, 0, 52, 0
1, 7650, Note_on_c, 0, 62, 32
1, 7723, Note_on_c, 0, 78, 0
1, 7723, Note_on_c, 0, 79, 44
1, 7798, Note_on_c, 0, 79, 0
1, 7798, Note_on_c, 0, 81, 50
1, 7798, Note_on_c, 0, 62, 0
1, 7801, Note_on_c, 0, 57, 37
1, 7874, Note_on_c, 0, 81, 0
1, 7874, Note_on_c, 0, 79, 44
1, 7949, Note_on_c, 0, 79, 0
1, 7949, Note_on_c, 0, 78, 44
1, 7949, Note_on_c, 0, 57, 0
1, 7952, Note_on_c, 0, 61, 32
1, 8027, Note_on_c, 0, 78, 0
1, 8027, Note_on_c, 0, 76, 44
1, 8106, Note_on_c, 0, 76, 0
1, 8106, Note_on_c, 0, 74, 50
1, 8106, Note_on_c, 0, 61, 0
1, 8109, Note_on_c, 0, 62, 37
1, 8184, Note_on_c, 0, 74, 0
1, 8184, Note_on_c, 0, 62, 0
1, 8262, Note_on_c, 0, 66, 26
1, 8337, Note_on_c, 0, 66, 0
1, 8412, Note_on_c, 0, 69, 42
1, 8412, Note_on_c, 0, 62, 35
1, 8487, Note_on_c, 0, 69, 0
1, 8487, Note_on_c, 0, 62, 0
1, 8562, Note_on_c, 0, 66, 28
1, 8637, Note_on_c, 0, 66, 0
1, 8713, Note_on_c, 0, 78, 47
1, 8713, Note_on_c, 0, 62, 36
1, 8766, Note_on_c, 0, 79, 43
1, 8771, Note_on_c, 0, 78, 0
1, 8792, Note_on_c, 0, 62, 0
1, 8818, Note_on_c, 0, 78, 48
1, 8823, Note_on_c, 0, 79, 0
1, 8869, Note_on_c, 0, 79, 43
1, 8869, Note_on_c, 0, 66, 26
1, 8874, Note_on_c, 0, 78, 0
1, 8919, Note_on_c, 0, 78, 48
1, 8924, Note_on_c, 0, 79, 0
1, 8945, Note_on_c, 0, 66, 0
1, 8969, Note_on_c, 0, 79, 44
1, 8974, Note_on_c, 0, 78, 0
1, 9018, Note_on_c, 0, 78, 48
1, 9018, Note_on_c, 0, 62, 35
1, 9023, Note_on_c, 0, 79, 0
1, 9067, Note_on_c, 0, 79, 44
1, 9072, Note_on_c, 0, 78, 0
1, 9093, Note_on_c, 0, 62, 0
1, 9116, Note_on_c, 0, 78, 44
1, 9121, Note_on_c, 0, 79, 0
1, 9167, Note_on_c, 0, 76, 48
1, 9167, Note_on_c, 0, 66, 30
1, 9171, Note_on_c, 0, 78, 0
1, 9242, Note_on_c, 0, 74, 44
1, 9242, Note_on_c, 0, 66, 0
1, 9250, Note_on_c, 0, 76, 0
1, 9317, Note_on_c, 0, 73, 50
1, 9317, Note_on_c, 0, 64, 37
1, 9325, Note_on_c, 0, 74, 0
1, 9392, Note_on_c, 0, 73, 0
1, 9392, Note_on_c, 0, 64, 0
1, 9467, Note_on_c, 0, 67, 29
1, 9542, Note_on_c, 0, 67, 0
1, 9617, Note_on_c, 0, 69, 42
1, 9617, Note_on_c, 0, 64, 37
1, 9692, Note_on_c, 0, 69, 0
1, 9692, Note_on_c, 0, 64, 0
1, 9767, Note_on_c, 0, 67, 29
1, 9842, Note_on_c, 0, 67, 0
1, 9917, Note_on_c, 0, 76, 50
1, 9917, Note_on_c, 0, 64, 43
1, 9992, Note_on_c, 0, 76, 0
1, 9992, Note_on_c, 0, 66, 38
1, 10000, Note_on_c, 0, 64, 0
1, 10068, Note_on_c, 0, 67, 38
1, 10075, Note_on_c, 0, 66, 0
1, 10143, Note_on_c, 0, 66, 38
1, 10150, Note_on_c, 0, 67, 0
1, 10218, Note_on_c, 0, 64, 38
1, 10225, Note_on_c, 0, 66, 0
1, 10292, Note_on_c, 0, 62, 40
1, 10300, Note_on_c, 0, 64, 0
1, 10368, Note_on_c, 0, 61, 40
1, 10375, Note_on_c, 0, 62, 0
1, 10444, Note_on_c, 0, 59, 40
1, 10451, Note_on_c, 0, 61, 0
1, 10521, Note_on_c, 0, 76, 50
1, 10521, Note_on_c, 0, 57, 37
1, 10529, Note_on_c, 0, 59, 0
1, 10599, Note_on_c, 0, 76, 0
1, 10599, Note_on_c, 0, 57, 0
1, 10677, Note_on_c, 0, 61, 26
1, 10752, Note_on_c, 0, 61, 0
1, 10827, Note_on_c, 0, 69, 42
1, 10827, Note_on_c, 0, 57, 35
1, 10902, Note_on_c, 0, 69, 0
1, 10902, Note_on_c, 0, 57, 0
1, 10977, Note_on_c, 0, 61, 28
1, 11052, Note_on_c, 0, 61, 0
1, 11128, Note_on_c, 0, 79, 47
1, 11128, Note_on_c, 0, 57, 36
1, 11181, Note_on_c, 0, 81, 43
1, 11187, Note_on_c, 0, 79, 0
1, 11208, Note_on_c, 0, 57, 0
1, 11233, Note_on_c, 0, 79, 48
1, 11239, Note_on_c, 0, 81, 0
1, 11284, Note_on_c, 0, 81, 43
1, 11284, Note_on_c, 0, 61, 26
1, 11289, Note_on_c, 0, 79, 0
1, 11335, Note_on_c, 0, 79, 48
1, 11340, Note_on_c, 0, 81, 0
1, 11360, Note_on_c, 0, 61, 0
1, 11384, Note_on_c, 0, 81, 44
1, 11389, Note_on_c, 0, 79, 0
1, 11434, Note_on_c, 0, 79, 48
1, 11434, Note_on_c, 0, 55, 35
1, 11439, Note_on_c, 0, 81, 0
1, 11482, Note_on_c, 0, 81, 44
1, 11488, Note_on_c, 0, 79, 0
1, 11508, Note_on_c, 0, 55, 0
1, 11532, Note_on_c, 0, 79, 44
1, 11537, Note_on_c, 0, 81, 0
1, 11582, Note_on_c, 0, 78, 48
1, 11582, Note_on_c, 0, 61, 30
1, 11586, Note_on_c, 0, 79, 0
1, 11657, Note_on_c, 0, 76, 44
1, 11657, Note_on_c, 0, 61, 0
1, 11665, Note_on_c, 0, 78, 0
1, 11732, Note_on_c, 0, 74, 50
1, 11732, Note_on_c, 0, 54, 37
1, 11740, Note_on_c, 0, 76, 0
1, 11807, Note_on_c, 0, 74, 0
1, 11807, Note_on_c, 0, 54, 0
1, 11882, Note_on_c, 0, 62, 29
1, 11957, Note_on_c, 0, 62, 0
1, 12032, Note_on_c, 0, 69, 42
1, 12032, Note_on_c, 0, 54, 37
1, 12107, Note_on_c, 0, 69, 0
1, 12107, Note_on_c, 0, 54, 0
1, 12182, Note_on_c, 0, 62, 29
1, 12257, Note_on_c, 0, 62, 0
1, 12332, Note_on_c, 0, 78, 50
1, 12332, Note_on_c, 0, 54, 43
1, 12408, Note_on_c, 0, 78, 0
1, 12408, Note_on_c, 0, 50, 36
1, 12415, Note_on_c, 0, 54, 0
1, 12483, Note_on_c, 0, 52, 37
1, 12491, Note_on_c, 0, 50, 0
1, 12558, Note_on_c, 0, 54, 38
1, 12566, Note_on_c, 0, 52, 0
1, 12633, Note_on_c, 0, 55, 39
1, 12640, Note_on_c, 0, 54, 0
1, 12708, Note_on_c, 0, 57, 40
1, 12715, Note_on_c, 0, 55, 0
1, 12783, Note_on_c, 0, 59, 41
1, 12791, Note_on_c, 0, 57, 0
1, 12859, Note_on_c, 0, 61, 42
1, 12867, Note_on_c, 0, 59, 0
1, 12936, Note_on_c, 0, 78, 54
1, 12936, Note_on_c, 0, 62, 44
1, 12944, Note_on_c, 0, 61, 0
1, 13014, Note_on_c, 0, 78, 0
1, 13014, Note_on_c, 0, 74, 47
1, 13092, Note_on_c, 0, 76, 48
1, 13100, Note_on_c, 0, 74, 0
1, 13170, Note_on_c, 0, 78, 49
1, 13177, Note_on_c, 0, 76, 0
1, 13247, Note_on_c, 0, 79, 50
1, 13247, Note_on_c, 0, 62, 0
1, 13254, Note_on_c, 0, 78, 0
1, 13324, Note_on_c, 0, 81, 51
1, 13331, Note_on_c, 0, 79, 0
1, 13400, Note_on_c, 0, 83, 52
1, 13408, Note_on_c, 0, 81, 0
1, 13476, Note_on_c, 0, 85, 53
1, 13484, Note_on_c, 0, 83, 0
1, 13552, Note_on_c, 0, 86, 55
1, 13559, Note_on_c, 0, 85, 0
1, 13626, Note_on_c, 0, 85, 56
1, 13633, Note_on_c, 0, 86, 0
1, 13700, Note_on_c, 0, 83, 56
1, 13700, Note_on_c, 0, 57, 37
1, 13700, Note_on_c, 0, 54, 31
1, 13707, Note_on_c, 0, 85, 0
1, 13775, Note_on_c, 0, 81, 56
1, 13775, Note_on_c, 0, 54, 0
1, 13775, Note_on_c, 0, 57, 0
1, 13782, Note_on_c, 0, 83, 0
1, 13850, Note_on_c, 0, 79, 56
1, 13850, Note_on_c, 0, 54, 31
1, 13850, Note_on_c, 0, 57, 37
1, 13857, Note_on_c, 0, 81, 0
1, 13925, Note_on_c, 0, 78, 55
1, 13925, Note_on_c, 0, 57, 0
1, 13925, Note_on_c, 0, 54, 0
1, 13933, Note_on_c, 0, 79, 0
1, 14001, Note_on_c, 0, 76, 50
1, 14001, Note_on_c, 0, 57, 37
1, 14001, Note_on_c, 0, 54, 31
1, 14009, Note_on_c, 0, 78, 0
1, 14078, Note_on_c, 0, 74, 49
1, 14078, Note_on_c, 0, 54, 0
1, 14078, Note_on_c, 0, 57, 0
1, 14085, Note_on_c, 0, 76, 0
1, 14154, Note_on_c, 0, 76, 51
1, 14154, Note_on_c, 0, 55, 37
1, 14154, Note_on_c, 0, 59, 44
1, 14162, Note_on_c, 0, 74, 0
1, 14231, Note_on_c, 0, 78, 48
1, 14239, Note_on_c, 0, 76, 0
1, 14308, Note_on_c, 0, 76, 45
1, 14316, Note_on_c, 0, 78, 0
1, 14385, Note_on_c, 0, 75, 43
1, 14393, Note_on_c, 0, 76, 0
1, 14462, Note_on_c, 0, 76, 45
1, 14462, Note_on_c, 0, 59, 0
1, 14462, Note_on_c, 0, 55, 0
1, 14469, Note_on_c, 0, 75, 0
1, 14538, Note_on_c, 0, 78, 47
1, 14546, Note_on_c, 0, 76, 0
1, 14614, Note_on_c, 0, 79, 49
1, 14622, Note_on_c, 0, 78, 0
1, 14690, Note_on_c, 0, 81, 51
1, 14698, Note_on_c, 0, 79, 0
1, 14766, Note_on_c, 0, 83, 53
1, 14774, Note_on_c, 0, 81, 0
1, 14842, Note_on_c, 0, 81, 54
1, 14849, Note_on_c, 0, 83, 0
1, 14917, Note_on_c, 0, 79, 53
1, 14917, Note_on_c, 0, 55, 30
1, 14917, Note_on_c, 0, 59, 36
1, 14925, Note_on_c, 0, 81, 0
1, 14993, Note_on_c, 0, 78, 51
1, 14993, Note_on_c, 0, 59, 0
1, 14993, Note_on_c, 0, 55, 0
1, 15000, Note_on_c, 0, 79, 0
1, 15069, Note_on_c, 0, 76, 49
1, 15069, Note_on_c, 0, 59, 36
1, 15069, Note_on_c, 0, 55, 30
1, 15076, Note_on_c, 0, 78, 0
1, 15145, Note_on_c, 0, 74, 48
1, 15145, Note_on_c, 0, 55, 0
1, 15145, Note_on_c, 0, 59, 0
1, 15152, Note_on_c, 0, 76, 0
1, 15221, Note_on_c, 0, 73, 46
1, 15221, Note_on_c, 0, 59, 36
1, 15221, Note_on_c, 0, 56, 30
1, 15229, Note_on_c, 0, 74, 0
1, 15298, Note_on_c, 0, 71, 44
1, 15298, Note_on_c, 0, 56, 0
1, 15298, Note_on_c, 0, 59, 0
1, 15305, Note_on_c, 0, 73, 0
1, 15375, Note_on_c, 0, 73, 50
1, 15375, Note_on_c, 0, 57, 46
1, 15382, Note_on_c, 0, 71, 0
1, 15450, Note_on_c, 0, 74, 42
1, 15458, Note_on_c, 0, 73, 0
1, 15525, Note_on_c, 0, 73, 42
1, 15525, Note_on_c, 0, 57, 0
1, 15525, Note_on_c, 0, 55, 40
1, 15533, Note_on_c, 0, 74, 0
1, 15601, Note_on_c, 0, 69, 40
1, 15609, Note_on_c, 0, 73, 0
1, 15683, Note_on_c, 0, 74, 47
1, 15683, Note_on_c, 0, 55, 0
1, 15683, Note_on_c, 0, 54, 40
1, 15691, Note_on_c, 0, 69, 0
1, 15759, Note_on_c, 0, 74, 0
1, 15759, Note_on_c, 0, 54, 0
1, 15834, Note_on_c, 0, 50, 40
1, 15913, Note_on_c, 0, 50, 0
1, 15991, Note_on_c, 0, 79, 55
1, 15991, Note_on_c, 0, 49, 50
1, 16067, Note_on_c, 0, 81, 46
1, 16074, Note_on_c, 0, 79, 0
1, 16142, Note_on_c, 0, 79, 46
1, 16142, Note_on_c, 0, 49, 0
1, 16142, Note_on_c, 0, 45, 44
1, 16150, Note_on_c, 0, 81, 0
1, 16218, Note_on_c, 0, 76, 46
1, 16225, Note_on_c, 0, 79, 0
1, 16293, Note_on_c, 0, 79, 56
1, 16293, Note_on_c, 0, 45, 0
1, 16293, Note_on_c, 0, 50, 44
1, 16301, Note_on_c, 0, 76, 0
1, 16369, Note_on_c, 0, 78, 47
1, 16369, Note_on_c, 0, 50, 0
1, 16376, Note_on_c, 0, 79, 0
1, 16444, Note_on_c, 0, 76, 48
1, 16444, Note_on_c, 0, 54, 44
1, 16452, Note_on_c, 0, 78, 0
1, 16520, Note_on_c, 0, 74, 48
1, 16520, Note_on_c, 0, 54, 0
1, 16528, Note_on_c, 0, 76, 0
1, 16602, Note_on_c, 0, 73, 57
1, 16602, Note_on_c, 0, 57, 51
1, 16610, Note_on_c, 0, 74, 0
1, 16677, Note_on_c, 0, 74, 44
1, 16685, Note_on_c, 0, 73, 0
1, 16752, Note_on_c, 0, 73, 44
1, 16752, Note_on_c, 0, 57, 0
1, 16752, Note_on_c, 0, 55, 44
1, 16760, Note_on_c, 0, 74, 0
1, 16827, Note_on_c, 0, 69, 44
1, 16835, Note_on_c, 0, 73, 0
1, 16902, Note_on_c, 0, 74, 57
1, 16902, Note_on_c, 0, 55, 0
1, 16902, Note_on_c, 0, 54, 45
1, 16910, Note_on_c, 0, 69, 0
1, 16977, Note_on_c, 0, 74, 0
1, 16977, Note_on_c, 0, 54, 0
1, 17052, Note_on_c, 0, 50, 45
1, 17131, Note_on_c, 0, 50, 0
1, 17210, Note_on_c, 0, 79, 65
1, 17210, Note_on_c, 0, 49, 54
1, 17286, Note_on_c, 0, 81, 54
1, 17293, Note_on_c, 0, 79, 0
1, 17361, Note_on_c, 0, 79, 54
1, 17361, Note_on_c, 0, 49, 0
1, 17361, Note_on_c, 0, 45, 47
1, 17369, Note_on_c, 0, 81, 0
1, 17437, Note_on_c, 0, 76, 56
1, 17444, Note_on_c, 0, 79, 0
1, 17512, Note_on_c, 0, 79, 69
1, 17512, Note_on_c, 0, 45, 0
1, 17512, Note_on_c, 0, 50, 48
1, 17520, Note_on_c, 0, 76, 0
1, 17588, Note_on_c, 0, 78, 56
1, 17588, Note_on_c, 0, 50, 0
1, 17595, Note_on_c, 0, 79, 0
1, 17663, Note_on_c, 0, 76, 56
1, 17663, Note_on_c, 0, 54, 48
1, 17671, Note_on_c, 0, 78, 0
1, 17741, Note_on_c, 0, 74, 59
1, 17741, Note_on_c, 0, 54, 0
1, 17749, Note_on_c, 0, 76, 0
1, 17819, Note_on_c, 0, 73, 79
1, 17819, Note_on_c, 0, 52, 50
1, 17819, Note_on_c, 0, 57, 60
1, 17822, Note_on_c, 0, 45, 50
1, 17827, Note_on_c, 0, 74, 0
1, 17894, Note_on_c, 0, 73, 0
1, 17894, Note_on_c, 0, 76, 63
1, 17969, Note_on_c, 0, 76, 0
1, 17969, Note_on_c, 0, 73, 63
1, 17969, Note_on_c, 0, 45, 0
1, 17972, Note_on_c, 0, 57, 0
1, 17972, Note_on_c, 0, 52, 0
1, 18044, Note_on_c, 0, 73, 0
1, 18044, Note_on_c, 0, 69, 63
1, 18125, Note_on_c, 0, 69, 0
1, 18125, Note_on_c, 0, 78, 74
1, 18125, Note_on_c, 0, 50, 51
1, 18128, Note_on_c, 0, 57, 60
1, 18128, Note_on_c, 0, 54, 51
1, 18200, Note_on_c, 0, 78, 0
1, 18200, Note_on_c, 0, 81, 64
1, 18275, Note_on_c, 0, 81, 0
1, 18275, Note_on_c, 0, 78, 64
1, 18275, Note_on_c, 0, 54, 0
1, 18278, Note_on_c, 0, 57, 0
1, 18278, Note_on_c, 0, 50, 0
1, 18355, Note_on_c, 0, 78, 0
1, 18355, Note_on_c, 0, 74, 64
1, 18435, Note_on_c, 0, 74, 0
1, 18435, Note_on_c, 0, 73, 77
1, 18435, Note_on_c, 0, 57, 61
1, 18438, Note_on_c, 0, 52, 51
1, 18438, Note_on_c, 0, 45, 51
1, 18511, Note_on_c, 0, 73, 0
1, 18511, Note_on_c, 0, 76, 64
1, 18587, Note_on_c, 0, 76, 0
1, 18587, Note_on_c, 0, 73, 64
1, 18587, Note_on_c, 0, 45, 0
1, 18590, Note_on_c, 0, 52, 0
1, 18590, Note_on_c, 0, 57, 0
1, 18663, Note_on_c, 0, 73, 0
1, 18663, Note_on_c, 0, 69, 64
1, 18743, Note_on_c, 0, 69, 0
1, 18743, Note_on_c, 0, 78, 77
1, 18743, Note_on_c, 0, 50, 52
1, 18746, Note_on_c, 0, 54, 52
1, 18746, Note_on_c, 0, 57, 62
1, 18819, Note_on_c, 0, 78, 0
1, 18819, Note_on_c, 0, 81, 64
1, 18895, Note_on_c, 0, 81, 0
1, 18895, Note_on_c, 0, 78, 64
1, 18895, Note_on_c, 0, 57, 0
1, 18898, Note_on_c, 0, 54, 0
1, 18898, Note_on_c, 0, 50, 0
1, 18975, Note_on_c, 0, 78, 0
1, 18975, Note_on_c, 0, 74, 64
1, 19056, Note_on_c, 0, 74, 0
1, 19056, Note_on_c, 0, 73, 69
1, 19056, Note_on_c, 0, 76, 84
1, 19113, Note_on_c, 0, 76, 0
1, 19113, Note_on_c, 0, 73, 0
1, 19210, Note_on_c, 0, 81, 74
1, 19210, Note_on_c, 0, 73, 60
1, 19210, Note_on_c, 0, 76, 60
1, 19213, Note_on_c, 0, 45, 45
1, 19213, Note_on_c, 0, 57, 55
1, 19213, Note_on_c, 0, 52, 45
1, 19216, Note_on_c, 0, 49, 45
1, 19267, Note_on_c, 0, 76, 0
1, 19267, Note_on_c, 0, 73, 0
1, 19267, Note_on_c, 0, 81, 0
1, 19270, Note_on_c, 0, 49, 0
1, 19270, Note_on_c, 0, 45, 0
1, 19270, Note_on_c, 0, 57, 0
1, 19273, Note_on_c, 0, 52, 0
1, 19364, Note_on_c, 0, 76, 60
1, 19364, Note_on_c, 0, 73, 60
1, 19364, Note_on_c, 0, 81, 74
1, 19367, Note_on_c, 0, 52, 45
1, 19367, Note_on_c, 0, 49, 45
1, 19367, Note_on_c, 0, 45, 45
1, 19370, Note_on_c, 0, 57, 55
1, 19421, Note_on_c, 0, 81, 0
1, 19421, Note_on_c, 0, 73, 0
1, 19421, Note_on_c, 0, 76, 0
1, 19424, Note_on_c, 0, 57, 0
1, 19424, Note_on_c, 0, 52, 0
1, 19424, Note_on_c, 0, 49, 0
1, 19427, Note_on_c, 0, 45, 0
1, 19518, Note_on_c, 0, 76, 60
1, 19518, Note_on_c, 0, 73, 60
1, 19518, Note_on_c, 0, 81, 74
1, 19521, Note_on_c, 0, 45, 45
1, 19521, Note_on_c, 0, 52, 45
1, 19521, Note_on_c, 0, 49, 45
1, 19524, Note_on_c, 0, 57, 55
1, 19575, Note_on_c, 0, 81, 0
1, 19575, Note_on_c, 0, 73, 0
1, 19575, Note_on_c, 0, 76, 0
1, 19578, Note_on_c, 0, 57, 0
1, 19578, Note_on_c, 0, 45, 0
1, 19578, Note_on_c, 0, 52, 0
1, 19581, Note_on_c, 0, 49, 0
1, 19672, Note_on_c, 0, 73, 60
1, 19672, Note_on_c, 0, 81, 74
1, 19672, Note_on_c, 0, 76, 60
1, 19675, Note_on_c, 0, 49, 49
1, 19675, Note_on_c, 0, 57, 58
1, 19675, Note_on_c, 0, 52, 49
1, 19678, Note_on_c, 0, 45, 49
1, 19990, Note_on_c, 0, 76, 0
1, 19990, Note_on_c, 0, 81, 0
1, 19990, Note_on_c, 0, 73, 0
1, 19993, Note_on_c, 0, 74, 41
1, 19993, Note_on_c, 0, 45, 0
1, 19993, Note_on_c, 0, 49, 0
1, 19996, Note_on_c, 0, 57, 0
1, 19996, Note_on_c, 0, 52, 0
1, 20029, Note_on_c, 0, 74, 0
1, 20029, Note_on_c, 0, 73, 42
1, 20106, Note_on_c, 0, 73, 0
1, 20106, Note_on_c, 0, 71, 40
1, 20184, Note_on_c, 0, 71, 0
1, 20184, Note_on_c, 0, 73, 40
1, 20261, Note_on_c, 0, 73, 0
1, 20261, Note_on_c, 0, 74, 40
1, 20348, Note_on_c, 0, 74, 0
1, 20348, Note_on_c, 0, 75, 45
1, 20348, Note_on_c, 0, 57, 34
1, 20377, Control_c, 0, 64, 127
1, 20507, Note_on_c, 0, 75, 0
1, 20507, Note_on_c, 0, 76, 42
1, 20507, Note_on_c, 0, 57, 0
1, 20510, Note_on_c, 0, 61, 27
1, 20544, Control_c, 0, 64, 0
1, 20662, Note_on_c, 0, 76, 0
1, 20662, Note_on_c, 0, 61, 0
1, 20662, Note_on_c, 0, 59, 30
1, 20825, Note_on_c, 0, 76, 40
1, 20825, Note_on_c, 0, 59, 0
1, 20825, Note_on_c, 0, 62, 27
1, 20979, Note_on_c, 0, 76, 0
1, 20979, Note_on_c, 0, 81, 46
1, 20979, Note_on_c, 0, 62, 0
1, 20982, Note_on_c, 0, 61, 32
1, 21046, Control_c, 0, 64, 127
1, 21134, Note_on_c, 0, 81, 0
1, 21134, Note_on_c, 0, 80, 42
1, 21134, Note_on_c, 0, 61, 0
1, 21137, Note_on_c, 0, 64, 26
1, 21140, Control_c, 0, 64, 0
1, 21288, Note_on_c, 0, 80, 0
1, 21288, Note_on_c, 0, 78, 44
1, 21288, Note_on_c, 0, 64, 0
1, 21291, Note_on_c, 0, 57, 29
1, 21442, Note_on_c, 0, 78, 0
1, 21442, Note_on_c, 0, 76, 42
1, 21442, Note_on_c, 0, 57, 0
1, 21445, Note_on_c, 0, 61, 26
1, 21605, Note_on_c, 0, 76, 0
1, 21605, Note_on_c, 0, 73, 48
1, 21605, Note_on_c, 0, 61, 0
1, 21608, Note_on_c, 0, 59, 34
1, 21636, Control_c, 0, 64, 127
1, 21762, Note_on_c, 0, 73, 0
1, 21762, Note_on_c, 0, 74, 42
1, 21762, Note_on_c, 0, 59, 0
1, 21765, Note_on_c, 0, 66, 28
1, 21771, Control_c, 0, 64, 0
1, 21914, Note_on_c, 0, 74, 0
1, 21914, Note_on_c, 0, 66, 0
1, 21914, Note_on_c, 0, 62, 32
1, 22077, Note_on_c, 0, 74, 40
1, 22077, Note_on_c, 0, 62, 0
1, 22077, Note_on_c, 0, 59, 28
1, 22231, Note_on_c, 0, 74, 0
1, 22231, Note_on_c, 0, 76, 45
1, 22231, Note_on_c, 0, 59, 0
1, 22234, Note_on_c, 0, 56, 34
1, 22385, Note_on_c, 0, 76, 0
1, 22385, Note_on_c, 0, 74, 42
1, 22385, Note_on_c, 0, 56, 0
1, 22388, Note_on_c, 0, 59, 29
1, 22539, Note_on_c, 0, 74, 0
1, 22539, Note_on_c, 0, 73, 45
1, 22539, Note_on_c, 0, 59, 0
1, 22542, Note_on_c, 0, 52, 30
1, 22693, Note_on_c, 0, 73, 0
1, 22693, Note_on_c, 0, 71, 42
1, 22693, Note_on_c, 0, 52, 0
1, 22696, Note_on_c, 0, 62, 28
1, 22857, Note_on_c, 0, 71, 0
1, 22857, Note_on_c, 0, 68, 48
1, 22857, Note_on_c, 0, 62, 0
1, 22860, Note_on_c, 0, 61, 34
1, 22884, Control_c, 0, 64, 127
1, 23012, Note_on_c, 0, 68, 0
1, 23012, Note_on_c, 0, 69, 44
1, 23012, Note_on_c, 0, 61, 0
1, 23015, Note_on_c, 0, 64, 28
1, 23015, Control_c, 0, 64, 0
1, 23164, Note_on_c, 0, 69, 0
1, 23164, Note_on_c, 0, 64, 0
1, 23164, Note_on_c, 0, 56, 30
1, 23316, Note_on_c, 0, 71, 45
1, 23316, Note_on_c, 0, 56, 0
1, 23316, Note_on_c, 0, 64, 28
1, 23476, Note_on_c, 0, 71, 0
1, 23476, Note_on_c, 0, 72, 50
1, 23476, Note_on_c, 0, 64, 0
1, 23479, Note_on_c, 0, 57, 34
1, 23509, Control_c, 0, 64, 127
1, 23631, Note_on_c, 0, 72, 0
1, 23631, Note_on_c, 0, 73, 46
1, 23631, Note_on_c, 0, 57, 0
1, 23634, Note_on_c, 0, 64, 26
1, 23639, Control_c, 0, 64, 0
1, 23782, Note_on_c, 0, 73, 0
1, 23782, Note_on_c, 0, 64, 0
1, 23782, Note_on_c, 0, 54, 29
1, 23895, Note_on_c, 0, 76, 42
1, 23933, Note_on_c, 0, 76, 0
1, 23933, Note_on_c, 0, 74, 47
1, 23933, Note_on_c, 0, 54, 0
1, 23936, Note_on_c, 0, 57, 26
1, 24094, Note_on_c, 0, 74, 0
1, 24094, Note_on_c, 0, 73, 51
1, 24094, Note_on_c, 0, 57, 0
1, 24097, Note_on_c, 0, 52, 34
1, 24139, Control_c, 0, 64, 127
1, 24253, Note_on_c, 0, 52, 0
1, 24253, Note_on_c, 0, 57, 27
1, 24411, Note_on_c, 0, 57, 0
1, 24411, Note_on_c, 0, 61, 30
1, 24570, Note_on_c, 0, 73, 0
1, 24570, Note_on_c, 0, 74, 44
1, 24570, Note_on_c, 0, 61, 0
1, 24573, Note_on_c, 0, 57, 27
1, 24649, Note_on_c, 0, 74, 0
1, 24649, Note_on_c, 0, 73, 42
1, 24728, Note_on_c, 0, 73, 0
1, 24728, Note_on_c, 0, 71, 47
1, 24728, Note_on_c, 0, 57, 0
1, 24731, Note_on_c, 0, 52, 33
1, 24731, Note_on_c, 0, 56, 33
1, 24736, Control_c, 0, 64, 0
1, 24886, Note_on_c, 0, 71, 0
1, 24886, Note_on_c, 0, 73, 42
1, 24966, Note_on_c, 0, 73, 0
1, 25046, Note_on_c, 0, 74, 44
1, 25046, Note_on_c, 0, 56, 0
1, 25046, Note_on_c, 0, 52, 0
1, 25128, Note_on_c, 0, 74, 0
1, 25210, Note_on_c, 0, 75, 47
1, 25294, Note_on_c, 0, 75, 0
1, 25378, Note_on_c, 0, 75, 43
1, 25378, Note_on_c, 0, 57, 34
1, 25378, Control_c, 0, 64, 127
1, 25537, Note_on_c, 0, 75, 0
1, 25537, Note_on_c, 0, 76, 42
1, 25537, Note_on_c, 0, 57, 0
1, 25540, Note_on_c, 0, 61, 27
1, 25545, Control_c, 0, 64, 0
1, 25692, Note_on_c, 0, 76, 0
1, 25692, Note_on_c, 0, 61, 0
1, 25692, Note_on_c, 0, 59, 30
1, 25708, Control_c, 0, 64, 127
1, 25855, Note_on_c, 0, 78, 40
1, 25855, Note_on_c, 0, 59, 0
1, 25855, Note_on_c, 0, 62, 27
1, 25855, Control_c, 0, 64, 0
1, 25894, Note_on_c, 0, 78, 0
1, 25894, Note_on_c, 0, 76, 37
1, 25932, Note_on_c, 0, 76, 0
1, 25932, Note_on_c, 0, 75, 37
1, 25971, Note_on_c, 0, 75, 0
1, 25971, Note_on_c, 0, 76, 37
1, 26009, Note_on_c, 0, 76, 0
1, 26009, Note_on_c, 0, 81, 46
1, 26009, Note_on_c, 0, 62, 0
1, 26012, Note_on_c, 0, 61, 32
1, 26063, Control_c, 0, 64, 127
1, 26086, Note_on_c, 0, 81, 0
1, 26163, Note_on_c, 0, 80, 42
1, 26163, Note_on_c, 0, 61, 0
1, 26163, Note_on_c, 0, 64, 26
1, 26190, Control_c, 0, 64, 0
1, 26240, Note_on_c, 0, 80, 0
1, 26240, Note_on_c, 0, 64, 0
1, 26317, Note_on_c, 0, 78, 44
1, 26317, Note_on_c, 0, 57, 29
1, 26394, Note_on_c, 0, 78, 0
1, 26471, Note_on_c, 0, 76, 42
1, 26471, Note_on_c, 0, 57, 0
1, 26471, Note_on_c, 0, 61, 26
1, 26553, Note_on_c, 0, 76, 0
1, 26553, Note_on_c, 0, 61, 0
1, 26634, Note_on_c, 0, 73, 48
1, 26634, Note_on_c, 0, 59, 34
1, 26634, Control_c, 0, 64, 127
1, 26792, Note_on_c, 0, 73, 0
1, 26792, Note_on_c, 0, 74, 42
1, 26792, Note_on_c, 0, 59, 0
1, 26795, Note_on_c, 0, 66, 28
1, 26816, Control_c, 0, 64, 0
1, 26944, Note_on_c, 0, 74, 0
1, 26944, Note_on_c, 0, 66, 0
1, 26944, Note_on_c, 0, 62, 32
1, 26950, Control_c, 0, 64, 127
1, 27102, Control_c, 0, 64, 0
1, 27107, Note_on_c, 0, 76, 40
1, 27107, Note_on_c, 0, 62, 0
1, 27107, Note_on_c, 0, 59, 28
1, 27145, Note_on_c, 0, 76, 0
1, 27145, Note_on_c, 0, 74, 37
1, 27184, Note_on_c, 0, 74, 0
1, 27184, Note_on_c, 0, 73, 37
1, 27222, Note_on_c, 0, 73, 0
1, 27222, Note_on_c, 0, 74, 37
1, 27261, Note_on_c, 0, 74, 0
1, 27261, Note_on_c, 0, 76, 45
1, 27261, Note_on_c, 0, 59, 0
1, 27264, Note_on_c, 0, 56, 34
1, 27288, Control_c, 0, 64, 127
1, 27338, Note_on_c, 0, 76, 0
1, 27415, Note_on_c, 0, 74, 42
1, 27415, Note_on_c, 0, 56, 0
1, 27415, Note_on_c, 0, 59, 29
1, 27421, Control_c, 0, 64, 0
1, 27492, Note_on_c, 0, 74, 0
1, 27492, Note_on_c, 0, 59, 0
1, 27569, Note_on_c, 0, 73, 45
1, 27569, Note_on_c, 0, 52, 30
1, 27646, Note_on_c, 0, 73, 0
1, 27723, Note_on_c, 0, 71, 42
1, 27723, Note_on_c, 0, 52, 0
1, 27723, Note_on_c, 0, 56, 28
1, 27805, Note_on_c, 0, 71, 0
1, 27805, Note_on_c, 0, 56, 0
1, 27887, Note_on_c, 0, 73, 45
1, 27887, Note_on_c, 0, 57, 30
1, 27887, Control_c, 0, 64, 127
1, 28133, Note_on_c, 0, 73, 0
1, 28133, Note_on_c, 0, 76, 42
1, 28215, Note_on_c, 0, 76, 0
1, 28215, Note_on_c, 0, 66, 45
1, 28215, Note_on_c, 0, 57, 0
1, 28218, Note_on_c, 0, 62, 30
1, 28218, Note_on_c, 0, 50, 30
1, 28223, Control_c, 0, 64, 0
1, 28272, Control_c, 0, 64, 127
1, 28461, Note_on_c, 0, 66, 0
1, 28461, Note_on_c, 0, 71, 41
1, 28544, Note_on_c, 0, 71, 0
1, 28544, Note_on_c, 0, 69, 45
1, 28544, Note_on_c, 0, 50, 0
1, 28547, Note_on_c, 0, 62, 0
1, 28547, Note_on_c, 0, 61, 30
1, 28547, Note_on_c, 0, 52, 30
1, 28547, Control_c, 0, 64, 0
1, 28594, Control_c, 0, 64, 127
1, 28872, Note_on_c, 0, 69, 0
1, 28872, Note_on_c, 0, 68, 43
1, 28872, Note_on_c, 0, 61, 0
1, 28875, Note_on_c, 0, 59, 30
1, 28881, Control_c, 0, 64, 0
1, 28905, Control_c, 0, 64, 127
1, 28913, Note_on_c, 0, 68, 0
1, 28913, Note_on_c, 0, 69, 39
1, 28954, Note_on_c, 0, 69, 0
1, 28954, Note_on_c, 0, 68, 43
1, 28995, Note_on_c, 0, 68, 0
1, 28995, Note_on_c, 0, 69, 40
1, 29036, Note_on_c, 0, 69, 0
1, 29036, Note_on_c, 0, 68, 43
1, 29091, Note_on_c, 0, 68, 0
1, 29091, Note_on_c, 0, 66, 40
1, 29146, Note_on_c, 0, 66, 0
1, 29146, Note_on_c, 0, 68, 40
1, 29200, Note_on_c, 0, 68, 0
1, 29200, Note_on_c, 0, 69, 46
1, 29200, Note_on_c, 0, 59, 0
1, 29203, Note_on_c, 0, 52, 0
1, 29203, Note_on_c, 0, 57, 38
1, 29203, Control_c, 0, 64, 0
1, 29283, Note_on_c, 0, 69, 0
1, 29283, Note_on_c, 0, 76, 44
1, 29366, Note_on_c, 0, 76, 0
1, 29366, Note_on_c, 0, 75, 47
1, 29443, Note_on_c, 0, 75, 0
1, 29443, Note_on_c, 0, 76, 43
1, 29520, Note_on_c, 0, 76, 0
1, 29520, Note_on_c, 0, 78, 50
1, 29520, Note_on_c, 0, 57, 0
1, 29597, Note_on_c, 0, 78, 0
1, 29597, Note_on_c, 0, 76, 47
1, 29674, Note_on_c, 0, 76, 0
1, 29674, Note_on_c, 0, 75, 51
1, 29674, Note_on_c, 0, 69, 49
1, 29756, Note_on_c, 0, 75, 0
1, 29756, Note_on_c, 0, 76, 51
1, 29756, Note_on_c, 0, 69, 0
1, 29838, Note_on_c, 0, 76, 0
1, 29838, Note_on_c, 0, 74, 59
1, 29838, Note_on_c, 0, 71, 55
1, 29917, Note_on_c, 0, 74, 0
1, 29917, Note_on_c, 0, 76, 50
1, 29917, Note_on_c, 0, 71, 0
1, 29995, Note_on_c, 0, 76, 0
1, 29995, Note_on_c, 0, 74, 52
1, 29995, Note_on_c, 0, 69, 49
1, 30072, Note_on_c, 0, 74, 0
1, 30072, Note_on_c, 0, 76, 50
1, 30072, Note_on_c, 0, 69, 0
1, 30149, Note_on_c, 0, 76, 0
1, 30149, Note_on_c, 0, 74, 62
1, 30149, Note_on_c, 0, 68, 56
1, 30226, Note_on_c, 0, 74, 0
1, 30226, Note_on_c, 0, 76, 49
1, 30226, Note_on_c, 0, 68, 0
1, 30303, Note_on_c, 0, 76, 0
1, 30303, Note_on_c, 0, 74, 52
1, 30303, Note_on_c, 0, 64, 48
1, 30385, Note_on_c, 0, 74, 0
1, 30385, Note_on_c, 0, 76, 49
1, 30385, Note_on_c, 0, 64, 0
1, 30466, Note_on_c, 0, 76, 0
1, 30466, Note_on_c, 0, 73, 50
1, 30466, Note_on_c, 0, 69, 55
1, 30469, Control_c, 0, 64, 0
1, 30549, Note_on_c, 0, 73, 0
1, 30549, Note_on_c, 0, 76, 44
1, 30632, Note_on_c, 0, 76, 0
1, 30632, Note_on_c, 0, 75, 47
1, 30708, Note_on_c, 0, 75, 0
1, 30708, Note_on_c, 0, 76, 43
1, 30785, Note_on_c, 0, 76, 0
1, 30785, Note_on_c, 0, 78, 50
1, 30785, Note_on_c, 0, 69, 0
1, 30861, Note_on_c, 0, 78, 0
1, 30861, Note_on_c, 0, 76, 47
1, 30938, Note_on_c, 0, 76, 0
1, 30938, Note_on_c, 0, 75, 51
1, 30938, Note_on_c, 0, 57, 50
1, 31020, Note_on_c, 0, 75, 0
1, 31020, Note_on_c, 0, 76, 51
1, 31020, Note_on_c, 0, 57, 0
1, 31102, Note_on_c, 0, 76, 0
1, 31102, Note_on_c, 0, 74, 59
1, 31102, Note_on_c, 0, 59, 56
1, 31181, Note_on_c, 0, 74, 0
1, 31181, Note_on_c, 0, 76, 50
1, 31181, Note_on_c, 0, 59, 0
1, 31260, Note_on_c, 0, 76, 0
1, 31260, Note_on_c, 0, 74, 52
1, 31260, Note_on_c, 0, 57, 50
1, 31337, Note_on_c, 0, 74, 0
1, 31337, Note_on_c, 0, 76, 50
1, 31337, Note_on_c, 0, 57, 0
1, 31414, Note_on_c, 0, 76, 0
1, 31414, Note_on_c, 0, 74, 62
1, 31414, Note_on_c, 0, 56, 56
1, 31491, Note_on_c, 0, 74, 0
1, 31491, Note_on_c, 0, 76, 49
1, 31491, Note_on_c, 0, 56, 0
1, 31568, Note_on_c, 0, 76, 0
1, 31568, Note_on_c, 0, 74, 52
1, 31568, Note_on_c, 0, 52, 51
1, 31650, Note_on_c, 0, 74, 0
1, 31650, Note_on_c, 0, 76, 49
1, 31650, Note_on_c, 0, 52, 0
1, 31731, Note_on_c, 0, 76, 0
1, 31731, Note_on_c, 0, 69, 41
1, 31731, Note_on_c, 0, 57, 45
1, 31814, Note_on_c, 0, 57, 0
1, 31814, Note_on_c, 0, 64, 35
1, 31897, Note_on_c, 0, 64, 0
1, 31897, Note_on_c, 0, 63, 37
1, 31974, Note_on_c, 0, 63, 0
1, 31974, Note_on_c, 0, 64, 34
1, 32051, Note_on_c, 0, 69, 0
1, 32051, Note_on_c, 0, 64, 0
1, 32051, Note_on_c, 0, 66, 40
1, 32129, Note_on_c, 0, 66, 0
1, 32129, Note_on_c, 0, 64, 37
1, 32207, Note_on_c, 0, 81, 57
1, 32207, Note_on_c, 0, 64, 0
1, 32207, Note_on_c, 0, 63, 40
1, 32287, Note_on_c, 0, 81, 0
1, 32287, Note_on_c, 0, 63, 0
1, 32287, Note_on_c, 0, 64, 40
1, 32367, Note_on_c, 0, 83, 63
1, 32367, Note_on_c, 0, 64, 0
1, 32367, Note_on_c, 0, 62, 47
1, 32446, Note_on_c, 0, 83, 0
1, 32446, Note_on_c, 0, 62, 0
1, 32446, Note_on_c, 0, 64, 39
1, 32524, Note_on_c, 0, 81, 58
1, 32524, Note_on_c, 0, 64, 0
1, 32524, Note_on_c, 0, 62, 41
1, 32601, Note_on_c, 0, 81, 0
1, 32601, Note_on_c, 0, 62, 0
1, 32601, Note_on_c, 0, 64, 39
1, 32678, Note_on_c, 0, 80, 63
1, 32678, Note_on_c, 0, 64, 0
1, 32678, Note_on_c, 0, 62, 49
1, 32755, Note_on_c, 0, 80, 0
1, 32755, Note_on_c, 0, 62, 0
1, 32755, Note_on_c, 0, 64, 39
1, 32832, Note_on_c, 0, 76, 58
1, 32832, Note_on_c, 0, 64, 0
1, 32832, Note_on_c, 0, 62, 41
1, 32914, Note_on_c, 0, 76, 0
1, 32914, Note_on_c, 0, 62, 0
1, 32914, Note_on_c, 0, 64, 39
1, 32995, Note_on_c, 0, 81, 60
1, 32995, Note_on_c, 0, 64, 0
1, 32995, Note_on_c, 0, 61, 39
1, 33078, Note_on_c, 0, 61, 0
1, 33078, Note_on_c, 0, 64, 35
1, 33161, Note_on_c, 0, 64, 0
1, 33161, Note_on_c, 0, 63, 37
1, 33238, Note_on_c, 0, 63, 0
1, 33238, Note_on_c, 0, 64, 34
1, 33315, Note_on_c, 0, 81, 0
1, 33315, Note_on_c, 0, 64, 0
1, 33315, Note_on_c, 0, 66, 40
1, 33392, Note_on_c, 0, 66, 0
1, 33392, Note_on_c, 0, 64, 37
1, 33469, Note_on_c, 0, 45, 57
1, 33469, Note_on_c, 0, 64, 0
1, 33469, Note_on_c, 0, 63, 40
1, 33551, Note_on_c, 0, 45, 0
1, 33551, Note_on_c, 0, 63, 0
1, 33551, Note_on_c, 0, 64, 40
1, 33633, Note_on_c, 0, 47, 63
1, 33633, Note_on_c, 0, 64, 0
1, 33633, Note_on_c, 0, 62, 47
1, 33713, Note_on_c, 0, 47, 0
1, 33713, Note_on_c, 0, 62, 0
1, 33713, Note_on_c, 0, 64, 39
1, 33794, Note_on_c, 0, 45, 58
1, 33794, Note_on_c, 0, 64, 0
1, 33794, Note_on_c, 0, 62, 41
1, 33871, Note_on_c, 0, 45, 0
1, 33871, Note_on_c, 0, 62, 0
1, 33871, Note_on_c, 0, 64, 39
1, 33948, Note_on_c, 0, 44, 60
1, 33948, Note_on_c, 0, 64, 0
1, 33948, Note_on_c, 0, 62, 49
1, 34025, Note_on_c, 0, 44, 0
1, 34025, Note_on_c, 0, 62, 0
1, 34025, Note_on_c, 0, 64, 39
1, 34102, Note_on_c, 0, 40, 58
1, 34102, Note_on_c, 0, 64, 0
1, 34102, Note_on_c, 0, 62, 41
1, 34183, Note_on_c, 0, 40, 0
1, 34183, Note_on_c, 0, 62, 0
1, 34183, Note_on_c, 0, 64, 39
1, 34264, Note_on_c, 0, 45, 60
1, 34264, Note_on_c, 0, 64, 0
1, 34264, Note_on_c, 0, 61, 41
1, 34590, Note_on_c, 0, 45, 0
1, 34590, Note_on_c, 0, 76, 50
1, 34590, Note_on_c, 0, 61, 0
1, 34593, Note_on_c, 0, 61, 35
1, 34627, Control_c, 0, 64, 127
1, 34670, Note_on_c, 0, 61, 0
1, 34670, Note_on_c, 0, 69, 29
1, 34749, Note_on_c, 0, 69, 0
1, 34749, Note_on_c, 0, 61, 29
1, 34828, Note_on_c, 0, 61, 0
1, 34828, Note_on_c, 0, 69, 29
1, 34907, Note_on_c, 0, 76, 0
1, 34907, Note_on_c, 0, 74, 47
1, 34907, Note_on_c, 0, 69, 0
1, 34910, Note_on_c, 0, 59, 35
1, 34915, Control_c, 0, 64, 0
1, 34988, Note_on_c, 0, 59, 0
1, 34988, Note_on_c, 0, 69, 30
1, 34992, Control_c, 0, 64, 127
1, 35068, Note_on_c, 0, 69, 0
1, 35068, Note_on_c, 0, 59, 30
1, 35148, Note_on_c, 0, 59, 0
1, 35148, Note_on_c, 0, 69, 30
1, 35229, Note_on_c, 0, 74, 0
1, 35229, Note_on_c, 0, 73, 46
1, 35229, Note_on_c, 0, 69, 0
1, 35232, Note_on_c, 0, 57, 35
1, 35237, Control_c, 0, 64, 0
1, 35312, Note_on_c, 0, 57, 0
1, 35312, Note_on_c, 0, 69, 31
1, 35322, Control_c, 0, 64, 127
1, 35396, Note_on_c, 0, 69, 0
1, 35396, Note_on_c, 0, 57, 31
1, 35480, Note_on_c, 0, 57, 0
1, 35480, Note_on_c, 0, 69, 31
1, 35564, Note_on_c, 0, 73, 0
1, 35564, Note_on_c, 0, 78, 50
1, 35564, Note_on_c, 0, 69, 0
1, 35567, Note_on_c, 0, 62, 35
1, 35567, Control_c, 0, 64, 0
1, 35586, Control_c, 0, 64, 127
1, 35645, Note_on_c, 0, 62, 0
1, 35645, Note_on_c, 0, 69, 30
1, 35726, Note_on_c, 0, 69, 0
1, 35726, Note_on_c, 0, 68, 30
1, 35807, Note_on_c, 0, 78, 0
1, 35807, Note_on_c, 0, 80, 45
1, 35807, Note_on_c, 0, 68, 0
1, 35810, Note_on_c, 0, 69, 30
1, 35837, Note_on_c, 0, 80, 0
1, 35837, Note_on_c, 0, 78, 45
1, 35866, Note_on_c, 0, 78, 0
1, 35866, Note_on_c, 0, 76, 45
1, 35896, Note_on_c, 0, 78, 50
1, 35896, Note_on_c, 0, 76, 0
1, 35896, Note_on_c, 0, 69, 0
1, 35899, Note_on_c, 0, 62, 35
1, 35899, Control_c, 0, 64, 0
1, 35977, Note_on_c, 0, 78, 0
1, 35977, Note_on_c, 0, 62, 0
1, 35977, Note_on_c, 0, 69, 30
1, 36057, Note_on_c, 0, 80, 47
1, 36057, Note_on_c, 0, 69, 0
1, 36057, Note_on_c, 0, 68, 30
1, 36141, Note_on_c, 0, 80, 0
1, 36141, Note_on_c, 0, 68, 0
1, 36141, Note_on_c, 0, 69, 30
1, 36225, Note_on_c, 0, 83, 50
1, 36225, Note_on_c, 0, 69, 0
1, 36225, Note_on_c, 0, 62, 30
1, 36238, Control_c, 0, 64, 127
1, 36304, Note_on_c, 0, 62, 0
1, 36304, Note_on_c, 0, 69, 32
1, 36384, Note_on_c, 0, 83, 0
1, 36384, Note_on_c, 0, 81, 45
1, 36384, Note_on_c, 0, 69, 0
1, 36387, Note_on_c, 0, 68, 32
1, 36392, Control_c, 0, 64, 0
1, 36424, Control_c, 0, 64, 127
1, 36464, Note_on_c, 0, 68, 0
1, 36464, Note_on_c, 0, 69, 32
1, 36544, Note_on_c, 0, 81, 0
1, 36544, Note_on_c, 0, 80, 47
1, 36544, Note_on_c, 0, 69, 0
1, 36547, Note_on_c, 0, 62, 34
1, 36550, Control_c, 0, 64, 0
1, 36584, Control_c, 0, 64, 127
1, 36624, Note_on_c, 0, 62, 0
1, 36624, Note_on_c, 0, 69, 30
1, 36703, Note_on_c, 0, 80, 0
1, 36703, Note_on_c, 0, 78, 45
1, 36703, Note_on_c, 0, 69, 0
1, 36706, Note_on_c, 0, 68, 30
1, 36711, Control_c, 0, 64, 0
1, 36745, Control_c, 0, 64, 127
1, 36790, Note_on_c, 0, 68, 0
1, 36790, Note_on_c, 0, 69, 30
1, 36876, Note_on_c, 0, 78, 0
1, 36876, Note_on_c, 0, 76, 50
1, 36876, Note_on_c, 0, 69, 0
1, 36879, Note_on_c, 0, 61, 37
1, 36879, Control_c, 0, 64, 0
1, 36961, Note_on_c, 0, 61, 0
1, 36961, Note_on_c, 0, 69, 37
1, 37047, Note_on_c, 0, 76, 0
1, 37047, Note_on_c, 0, 69, 0
1, 37047, Note_on_c, 0, 68, 28
1, 37132, Note_on_c, 0, 68, 0
1, 37132, Note_on_c, 0, 69, 28
1, 37217, Note_on_c, 0, 76, 60
1, 37217, Note_on_c, 0, 69, 0
1, 37217, Note_on_c, 0, 61, 45
1, 37254, Control_c, 0, 64, 127
1, 37296, Note_on_c, 0, 61, 0
1, 37296, Note_on_c, 0, 69, 37
1, 37375, Note_on_c, 0, 69, 0
1, 37375, Note_on_c, 0, 61, 37
1, 37455, Note_on_c, 0, 61, 0
1, 37455, Note_on_c, 0, 69, 37
1, 37534, Note_on_c, 0, 76, 0
1, 37534, Note_on_c, 0, 74, 60
1, 37534, Note_on_c, 0, 69, 0
1, 37537, Note_on_c, 0, 59, 45
1, 37542, Control_c, 0, 64, 0
1, 37614, Note_on_c, 0, 59, 0
1, 37614, Note_on_c, 0, 69, 39
1, 37619, Control_c, 0, 64, 127
1, 37695, Note_on_c, 0, 69, 0
1, 37695, Note_on_c, 0, 59, 39
1, 37775, Note_on_c, 0, 59, 0
1, 37775, Note_on_c, 0, 69, 39
1, 37855, Note_on_c, 0, 74, 0
1, 37855, Note_on_c, 0, 73, 59
1, 37855, Note_on_c, 0, 69, 0
1, 37858, Note_on_c, 0, 57, 45
1, 37864, Control_c, 0, 64, 0
1, 37939, Note_on_c, 0, 57, 0
1, 37939, Note_on_c, 0, 69, 40
1, 37949, Control_c, 0, 64, 127
1, 38023, Note_on_c, 0, 69, 0
1, 38023, Note_on_c, 0, 57, 40
1, 38107, Note_on_c, 0, 57, 0
1, 38107, Note_on_c, 0, 69, 40
1, 38191, Note_on_c, 0, 73, 0
1, 38191, Note_on_c, 0, 71, 68
1, 38191, Note_on_c, 0, 69, 0
1, 38194, Note_on_c, 0, 50, 45
1, 38194, Control_c, 0, 64, 0
1, 38213, Control_c, 0, 64, 127
1, 38272, Note_on_c, 0, 50, 0
1, 38272, Note_on_c, 0, 59, 39
1, 38353, Note_on_c, 0, 59, 0
1, 38353, Note_on_c, 0, 54, 39
1, 38434, Note_on_c, 0, 71, 0
1, 38434, Note_on_c, 0, 78, 53
1, 38434, Note_on_c, 0, 54, 0
1, 38437, Note_on_c, 0, 59, 39
1, 38523, Note_on_c, 0, 78, 0
1, 38523, Note_on_c, 0, 76, 60
1, 38523, Note_on_c, 0, 59, 0
1, 38526, Note_on_c, 0, 50, 45
1, 38526, Control_c, 0, 64, 0
1, 38554, Control_c, 0, 64, 127
1, 38603, Note_on_c, 0, 76, 0
1, 38603, Note_on_c, 0, 74, 58
1, 38603, Note_on_c, 0, 50, 0
1, 38606, Note_on_c, 0, 59, 39
1, 38684, Note_on_c, 0, 74, 0
1, 38684, Note_on_c, 0, 73, 58
1, 38684, Note_on_c, 0, 59, 0
1, 38687, Note_on_c, 0, 54, 39
1, 38767, Note_on_c, 0, 73, 0
1, 38767, Note_on_c, 0, 71, 58
1, 38767, Note_on_c, 0, 54, 0
1, 38770, Note_on_c, 0, 59, 39
1, 38851, Note_on_c, 0, 71, 0
1, 38851, Note_on_c, 0, 69, 63
1, 38851, Note_on_c, 0, 59, 0
1, 38854, Note_on_c, 0, 52, 39
1, 38859, Control_c, 0, 64, 0
1, 38905, Control_c, 0, 64, 127
1, 38931, Note_on_c, 0, 52, 0
1, 38931, Note_on_c, 0, 61, 41
1, 39011, Note_on_c, 0, 61, 0
1, 39011, Note_on_c, 0, 57, 41
1, 39091, Note_on_c, 0, 57, 0
1, 39091, Note_on_c, 0, 61, 41
1, 39170, Note_on_c, 0, 69, 0
1, 39170, Note_on_c, 0, 71, 55
1, 39170, Note_on_c, 0, 61, 0
1, 39173, Note_on_c, 0, 52, 44
1, 39177, Control_c, 0, 64, 0
1, 39211, Note_on_c, 0, 71, 0
1, 39211, Note_on_c, 0, 73, 49
1, 39211, Control_c, 0, 64, 127
1, 39253, Note_on_c, 0, 73, 0
1, 39253, Note_on_c, 0, 71, 56
1, 39253, Note_on_c, 0, 52, 0
1, 39256, Note_on_c, 0, 62, 39
1, 39295, Note_on_c, 0, 71, 0
1, 39295, Note_on_c, 0, 73, 50
1, 39336, Note_on_c, 0, 73, 0
1, 39336, Note_on_c, 0, 71, 56
1, 39336, Note_on_c, 0, 62, 0
1, 39339, Note_on_c, 0, 56, 39
1, 39391, Note_on_c, 0, 71, 0
1, 39391, Note_on_c, 0, 69, 48
1, 39420, Note_on_c, 0, 56, 0
1, 39420, Note_on_c, 0, 62, 39
1, 39449, Note_on_c, 0, 69, 0
1, 39449, Note_on_c, 0, 71, 48
1, 39506, Note_on_c, 0, 71, 0
1, 39506, Note_on_c, 0, 69, 66
1, 39506, Note_on_c, 0, 62, 0
1, 39509, Note_on_c, 0, 57, 48
1, 39509, Control_c, 0, 64, 0
1, 39586, Note_on_c, 0, 57, 0
1, 39586, Note_on_c, 0, 64, 42
1, 39666, Note_on_c, 0, 69, 0
1, 39666, Note_on_c, 0, 64, 0
1, 39666, Note_on_c, 0, 61, 36
1, 39749, Note_on_c, 0, 61, 0
1, 39749, Note_on_c, 0, 64, 36
1, 39851, Note_on_c, 0, 76, 50
1, 39851, Note_on_c, 0, 64, 0
1, 39851, Note_on_c, 0, 61, 35
1, 39887, Control_c, 0, 64, 127
1, 39930, Note_on_c, 0, 61, 0
1, 39930, Note_on_c, 0, 69, 29
1, 40009, Note_on_c, 0, 69, 0
1, 40009, Note_on_c, 0, 61, 29
1, 40088, Note_on_c, 0, 61, 0
1, 40088, Note_on_c, 0, 69, 29
1, 40167, Note_on_c, 0, 76, 0
1, 40167, Note_on_c, 0, 74, 47
1, 40167, Note_on_c, 0, 69, 0
1, 40170, Note_on_c, 0, 59, 35
1, 40175, Control_c, 0, 64, 0
1, 40248, Note_on_c, 0, 59, 0
1, 40248, Note_on_c, 0, 69, 30
1, 40252, Control_c, 0, 64, 127
1, 40328, Note_on_c, 0, 69, 0
1, 40328, Note_on_c, 0, 59, 30
1, 40408, Note_on_c, 0, 59, 0
1, 40408, Note_on_c, 0, 69, 30
1, 40489, Note_on_c, 0, 74, 0
1, 40489, Note_on_c, 0, 73, 46
1, 40489, Note_on_c, 0, 69, 0
1, 40492, Note_on_c, 0, 57, 35
1, 40497, Control_c, 0, 64, 0
1, 40573, Note_on_c, 0, 57, 0
1, 40573, Note_on_c, 0, 69, 31
1, 40582, Control_c, 0, 64, 127
1, 40656, Note_on_c, 0, 69, 0
1, 40656, Note_on_c, 0, 57, 31
1, 40740, Note_on_c, 0, 57, 0
1, 40740, Note_on_c, 0, 69, 31
1, 40824, Note_on_c, 0, 73, 0
1, 40824, Note_on_c, 0, 78, 50
1, 40824, Note_on_c, 0, 69, 0
1, 40827, Note_on_c, 0, 62, 35
1, 40827, Control_c, 0, 64, 0
1, 40847, Control_c, 0, 64, 127
1, 40905, Note_on_c, 0, 62, 0
1, 40905, Note_on_c, 0, 69, 30
1, 40986, Note_on_c, 0, 69, 0
1, 40986, Note_on_c, 0, 68, 30
1, 41067, Note_on_c, 0, 78, 0
1, 41067, Note_on_c, 0, 80, 45
1, 41067, Note_on_c, 0, 68, 0
1, 41070, Note_on_c, 0, 69, 30
1, 41097, Note_on_c, 0, 80, 0
1, 41097, Note_on_c, 0, 78, 45
1, 41127, Note_on_c, 0, 78, 0
1, 41127, Note_on_c, 0, 76, 45
1, 41156, Note_on_c, 0, 78, 50
1, 41156, Note_on_c, 0, 76, 0
1, 41156, Note_on_c, 0, 69, 0
1, 41159, Note_on_c, 0, 62, 35
1, 41159, Control_c, 0, 64, 0
1, 41237, Note_on_c, 0, 78, 0
1, 41237, Note_on_c, 0, 62, 0
1, 41237, Note_on_c, 0, 69, 30
1, 41317, Note_on_c, 0, 80, 47
1, 41317, Note_on_c, 0, 69, 0
1, 41317, Note_on_c, 0, 68, 30
1, 41401, Note_on_c, 0, 80, 0
1, 41401, Note_on_c, 0, 68, 0
1, 41401, Note_on_c, 0, 69, 30
1, 41485, Note_on_c, 0, 83, 50
1, 41485, Note_on_c, 0, 69, 0
1, 41485, Note_on_c, 0, 62, 30
1, 41498, Control_c, 0, 64, 127
1, 41565, Note_on_c, 0, 62, 0
1, 41565, Note_on_c, 0, 69, 32
1, 41644, Note_on_c, 0, 83, 0
1, 41644, Note_on_c, 0, 81, 45
1, 41644, Note_on_c, 0, 69, 0
1, 41647, Note_on_c, 0, 68, 32
1, 41652, Control_c, 0, 64, 0
1, 41684, Control_c, 0, 64, 127
1, 41724, Note_on_c, 0, 68, 0
1, 41724, Note_on_c, 0, 69, 32
1, 41804, Note_on_c, 0, 81, 0
1, 41804, Note_on_c, 0, 80, 47
1, 41804, Note_on_c, 0, 69, 0
1, 41807, Note_on_c, 0, 62, 34
1, 41810, Control_c, 0, 64, 0
1, 41844, Control_c, 0, 64, 127
1, 41884, Note_on_c, 0, 62, 0
1, 41884, Note_on_c, 0, 69, 30
1, 41963, Note_on_c, 0, 80, 0
1, 41963, Note_on_c, 0, 78, 45
1, 41963, Note_on_c, 0, 69, 0
1, 41966, Note_on_c, 0, 68, 30
1, 41971, Control_c, 0, 64, 0
1, 42005, Control_c, 0, 64, 127
1, 42050, Note_on_c, 0, 68, 0
1, 42050, Note_on_c, 0, 69, 30
1, 42136, Note_on_c, 0, 78, 0
1, 42136, Note_on_c, 0, 76, 50
1, 42136, Note_on_c, 0, 69, 0
1, 42139, Note_on_c, 0, 61, 37
1, 42139, Control_c, 0, 64, 0
1, 42222, Note_on_c, 0, 61, 0
1, 42222, Note_on_c, 0, 69, 37
1, 42307, Note_on_c, 0, 76, 0
1, 42307, Note_on_c, 0, 69, 0
1, 42307, Note_on_c, 0, 68, 28
1, 42392, Note_on_c, 0, 68, 0
1, 42392, Note_on_c, 0, 69, 28
1, 42477, Note_on_c, 0, 76, 60
1, 42477, Note_on_c, 0, 69, 0
1, 42477, Note_on_c, 0, 61, 45
1, 42514, Control_c, 0, 64, 127
1, 42556, Note_on_c, 0, 61, 0
1, 42556, Note_on_c, 0, 69, 37
1, 42636, Note_on_c, 0, 69, 0
1, 42636, Note_on_c, 0, 61, 37
1, 42715, Note_on_c, 0, 61, 0
1, 42715, Note_on_c, 0, 69, 37
1, 42794, Note_on_c, 0, 76, 0
1, 42794, Note_on_c, 0, 74, 60
1, 42794, Note_on_c, 0, 69, 0
1, 42797, Note_on_c, 0, 59, 45
1, 42802, Control_c, 0, 64, 0
1, 42874, Note_on_c, 0, 59, 0
1, 42874, Note_on_c, 0, 69, 39
1, 42879, Control_c, 0, 64, 127
1, 42955, Note_on_c, 0, 69, 0
1, 42955, Note_on_c, 0, 59, 39
1, 43035, Note_on_c, 0, 59, 0
1, 43035, Note_on_c, 0, 69, 39
1, 43115, Note_on_c, 0, 74, 0
1, 43115, Note_on_c, 0, 73, 59
1, 43115, Note_on_c, 0, 69, 0
1, 43118, Note_on_c, 0, 57, 45
1, 43124, Control_c, 0, 64, 0
1, 43199, Note_on_c, 0, 57, 0
1, 43199, Note_on_c, 0, 69, 40
1, 43209, Control_c, 0, 64, 127
1, 43283, Note_on_c, 0, 69, 0
1, 43283, Note_on_c, 0, 57, 40
1, 43367, Note_on_c, 0, 57, 0
1, 43367, Note_on_c, 0, 69, 40
1, 43451, Note_on_c, 0, 73, 0
1, 43451, Note_on_c, 0, 71, 68
1, 43451, Note_on_c, 0, 69, 0
1, 43454, Note_on_c, 0, 50, 45
1, 43454, Control_c, 0, 64, 0
1, 43473, Control_c, 0, 64, 127
1, 43532, Note_on_c, 0, 50, 0
1, 43532, Note_on_c, 0, 59, 39
1, 43613, Note_on_c, 0, 59, 0
1, 43613, Note_on_c, 0, 54, 39
1, 43694, Note_on_c, 0, 71, 0
1, 43694, Note_on_c, 0, 78, 53
1, 43694, Note_on_c, 0, 54, 0
1, 43697, Note_on_c, 0, 59, 39
1, 43783, Note_on_c, 0, 78, 0
1, 43783, Note_on_c, 0, 76, 60
1, 43783, Note_on_c, 0, 59, 0
1, 43786, Note_on_c, 0, 50, 45
1, 43786, Control_c, 0, 64, 0
1, 43814, Control_c, 0, 64, 127
1, 43863, Note_on_c, 0, 76, 0
1, 43863, Note_on_c, 0, 74, 58
1, 43863, Note_on_c, 0, 50, 0
1, 43866, Note_on_c, 0, 59, 39
1, 43944, Note_on_c, 0, 74, 0
1, 43944, Note_on_c, 0, 73, 58
1, 43944, Note_on_c, 0, 59, 0
1, 43947, Note_on_c, 0, 54, 39
1, 44028, Note_on_c, 0, 73, 0
1, 44028, Note_on_c, 0, 71, 58
1, 44028, Note_on_c, 0, 54, 0
1, 44031, Note_on_c, 0, 59, 39
1, 44111, Note_on_c, 0, 71, 0
1, 44111, Note_on_c, 0, 69, 63
1, 44111, Note_on_c, 0, 59, 0
1, 44114, Note_on_c, 0, 52, 39
1, 44119, Control_c, 0, 64, 0
1, 44165, Control_c, 0, 64, 127
1, 44191, Note_on_c, 0, 52, 0
1, 44191, Note_on_c, 0, 61, 41
1, 44271, Note_on_c, 0, 61, 0
1, 44271, Note_on_c, 0, 57, 41
1, 44351, Note_on_c, 0, 57, 0
1, 44351, Note_on_c, 0, 61, 41
1, 44430, Note_on_c, 0, 69, 0
1, 44430, Note_on_c, 0, 71, 55
1, 44430, Note_on_c, 0, 61, 0
1, 44433, Note_on_c, 0, 52, 44
1, 44437, Control_c, 0, 64, 0
1, 44471, Note_on_c, 0, 71, 0
1, 44471, Note_on_c, 0, 73, 49
1, 44471, Control_c, 0, 64, 127
1, 44513, Note_on_c, 0, 73, 0
1, 44513, Note_on_c, 0, 71, 56
1, 44513, Note_on_c, 0, 52, 0
1, 44516, Note_on_c, 0, 62, 39
1, 44555, Note_on_c, 0, 71, 0
1, 44555, Note_on_c, 0, 73, 50
1, 44596, Note_on_c, 0, 73, 0
1, 44596, Note_on_c, 0, 71, 56
1, 44596, Note_on_c, 0, 62, 0
1, 44599, Note_on_c, 0, 56, 39
1, 44651, Note_on_c, 0, 71, 0
1, 44651, Note_on_c, 0, 69, 48
1, 44680, Note_on_c, 0, 56, 0
1, 44680, Note_on_c, 0, 62, 39
1, 44709, Note_on_c, 0, 69, 0
1, 44709, Note_on_c, 0, 71, 48
1, 44766, Note_on_c, 0, 71, 0
1, 44766, Note_on_c, 0, 69, 66
1, 44766, Note_on_c, 0, 62, 0
1, 44769, Note_on_c, 0, 61, 54
1, 44769, Note_on_c, 0, 57, 45
1, 44769, Control_c, 0, 64, 0
1, 44815, Control_c, 0, 64, 127
1, 44846, Note_on_c, 0, 69, 0
1, 44846, Note_on_c, 0, 64, 59
1, 44927, Note_on_c, 0, 64, 0
1, 44927, Note_on_c, 0, 69, 66
1, 45007, Note_on_c, 0, 69, 0
1, 45007, Note_on_c, 0, 73, 58
1, 45087, Note_on_c, 0, 73, 0
1, 45087, Note_on_c, 0, 76, 66
1, 45087, Note_on_c, 0, 57, 0
1, 45090, Note_on_c, 0, 61, 0
1, 45168, Note_on_c, 0, 76, 0
1, 45168, Note_on_c, 0, 73, 60
1, 45248, Note_on_c, 0, 73, 0
1, 45248, Note_on_c, 0, 74, 66
1, 45248, Note_on_c, 0, 52, 46
1, 45251, Note_on_c, 0, 56, 46
1, 45251, Note_on_c, 0, 59, 55
1, 45260, Control_c, 0, 64, 0
1, 45332, Note_on_c, 0, 74, 0
1, 45332, Note_on_c, 0, 71, 59
1, 45332, Note_on_c, 0, 59, 0
1, 45335, Note_on_c, 0, 56, 0
1, 45335, Note_on_c, 0, 52, 0
1, 45417, Note_on_c, 0, 71, 0
1, 45417, Note_on_c, 0, 69, 66
1, 45417, Note_on_c, 0, 57, 45
1, 45420, Note_on_c, 0, 61, 54
1, 45424, Control_c, 0, 64, 0
1, 45474, Control_c, 0, 64, 127
1, 45497, Note_on_c, 0, 69, 0
1, 45497, Note_on_c, 0, 64, 59
1, 45578, Note_on_c, 0, 64, 0
1, 45578, Note_on_c, 0, 69, 66
1, 45658, Note_on_c, 0, 69, 0
1, 45658, Note_on_c, 0, 73, 58
1, 45738, Note_on_c, 0, 73, 0
1, 45738, Note_on_c, 0, 76, 66
1, 45738, Note_on_c, 0, 61, 0
1, 45741, Note_on_c, 0, 57, 0
1, 45819, Note_on_c, 0, 76, 0
1, 45819, Note_on_c, 0, 73, 60
1, 45903, Note_on_c, 0, 73, 0
1, 45903, Note_on_c, 0, 74, 66
1, 45903, Note_on_c, 0, 52, 46
1, 45906, Note_on_c, 0, 59, 55
1, 45906, Note_on_c, 0, 56, 46
1, 45923, Control_c, 0, 64, 0
1, 45988, Note_on_c, 0, 74, 0
1, 45988, Note_on_c, 0, 71, 59
1, 45988, Note_on_c, 0, 56, 0
1, 45991, Note_on_c, 0, 59, 0
1, 45991, Note_on_c, 0, 52, 0
1, 46072, Note_on_c, 0, 71, 0
1, 46072, Note_on_c, 0, 69, 75
1, 46072, Note_on_c, 0, 61, 63
1, 46075, Note_on_c, 0, 57, 52
1, 46075, Control_c, 0, 64, 127
1, 46217, Control_c, 0, 64, 0
1, 46251, Note_on_c, 0, 69, 0
1, 46251, Note_on_c, 0, 57, 0
1, 46251, Note_on_c, 0, 61, 0
1, 46429, Note_on_c, 0, 80, 75
1, 46429, Note_on_c, 0, 71, 64
1, 46429, Note_on_c, 0, 74, 64
1, 46432, Note_on_c, 0, 41, 52
1, 46432, Note_on_c, 0, 53, 63
1, 46492, Control_c, 0, 64, 127
1, 46617, Note_on_c, 0, 74, 0
1, 46617, Note_on_c, 0, 71, 0
1, 46617, Note_on_c, 0, 80, 0
1, 46620, Note_on_c, 0, 53, 0
1, 46620, Note_on_c, 0, 41, 0
1, 46643, Control_c, 0, 64, 0
1, 46804, Note_on_c, 0, 81, 75
1, 46804, Note_on_c, 0, 73, 64
1, 46804, Note_on_c, 0, 69, 64
1, 46807, Note_on_c, 0, 42, 52
1, 46807, Note_on_c, 0, 54, 63
1, 46885, Control_c, 0, 64, 127
1, 46992, Note_on_c, 0, 69, 0
1, 46992, Note_on_c, 0, 73, 0
1, 46992, Note_on_c, 0, 81, 0
1, 46995, Note_on_c, 0, 54, 0
1, 46995, Note_on_c, 0, 42, 0
1, 47063, Control_c, 0, 64, 0
1, 47554, Note_on_c, 0, 66, 39
1, 47554, Note_on_c, 0, 74, 47
1, 47554, Note_on_c, 0, 50, 40
1, 47557, Control_c, 0, 64, 127
1, 47720, Note_on_c, 0, 74, 0
1, 47720, Note_on_c, 0, 66, 0
1, 47720, Note_on_c, 0, 64, 36
1, 47723, Note_on_c, 0, 73, 43
1, 47728, Control_c, 0, 64, 0
1, 47808, Note_on_c, 0, 73, 0
1, 47808, Note_on_c, 0, 64, 0
1, 47897, Note_on_c, 0, 73, 47
1, 47897, Note_on_c, 0, 64, 39
1, 47904, Control_c, 0, 64, 127
1, 48066, Note_on_c, 0, 64, 0
1, 48066, Note_on_c, 0, 73, 0
1, 48066, Note_on_c, 0, 62, 35
1, 48069, Note_on_c, 0, 71, 42
1, 48077, Control_c, 0, 64, 0
1, 48157, Note_on_c, 0, 71, 0
1, 48157, Note_on_c, 0, 62, 0
1, 48249, Note_on_c, 0, 71, 47
1, 48249, Note_on_c, 0, 62, 39
1, 48249, Note_on_c, 0, 50, 0
1, 48252, Note_on_c, 0, 52, 40
1, 48257, Control_c, 0, 64, 127
1, 48422, Note_on_c, 0, 62, 0
1, 48422, Note_on_c, 0, 71, 0
1, 48422, Note_on_c, 0, 61, 34
1, 48425, Note_on_c, 0, 69, 41
1, 48431, Control_c, 0, 64, 0
1, 48519, Note_on_c, 0, 69, 0
1, 48519, Note_on_c, 0, 61, 0
1, 48616, Note_on_c, 0, 61, 39
1, 48616, Note_on_c, 0, 69, 47
1, 48647, Control_c, 0, 64, 127
1, 48802, Note_on_c, 0, 69, 0
1, 48802, Note_on_c, 0, 61, 0
1, 48802, Note_on_c, 0, 68, 41
1, 48805, Note_on_c, 0, 59, 34
1, 48813, Control_c, 0, 64, 0
1, 48909, Note_on_c, 0, 59, 0
1, 48909, Note_on_c, 0, 68, 0
1, 49016, Note_on_c, 0, 62, 45
1, 49016, Note_on_c, 0, 59, 37
1, 49016, Note_on_c, 0, 68, 54
1, 49019, Note_on_c, 0, 52, 0
1, 49019, Note_on_c, 0, 57, 39
1, 49019, Control_c, 0, 64, 127
1, 49425, Note_on_c, 0, 57, 0
1, 49425, Note_on_c, 0, 52, 39
1, 49894, Note_on_c, 0, 68, 0
1, 49894, Note_on_c, 0, 59, 0
1, 49894, Note_on_c, 0, 62, 0
1, 49897, Note_on_c, 0, 61, 35
1, 49897, Note_on_c, 0, 69, 42
1, 49897, Note_on_c, 0, 52, 0
1, 49900, Note_on_c, 0, 45, 35
1, 49921, Control_c, 0, 64, 0
1, 50322, Note_on_c, 0, 69, 0
1, 50322, Note_on_c, 0, 61, 0
1, 50322, Note_on_c, 0, 45, 0
1, 50751, Note_on_c, 0, 66, 60
1, 50751, Note_on_c, 0, 69, 60
1, 50751, Note_on_c, 0, 74, 73
1, 50754, Control_c, 0, 91, 127
1, 50754, Note_on_c, 0, 38, 57
1, 50754, Note_on_c, 0, 50, 69
1, 50757, Note_on_c, 0, 45, 57
1, 50757, Control_c, 0, 64, 127
1, 51049, Control_c, 0, 64, 0
1, 51068, Note_on_c, 0, 74, 0
1, 51068, Note_on_c, 0, 69, 0
1, 51068, Note_on_c, 0, 66, 0
1, 51071, Note_on_c, 0, 45, 0
1, 51071, Note_on_c, 0, 50, 0
1, 51071, Note_on_c, 0, 38, 0
1, 51384, Note_on_c, 0, 79, 66
1, 51384, Note_on_c, 0, 66, 45
1, 51384, Note_on_c, 0, 62, 37
1, 51461, Note_on_c, 0, 78, 55
1, 51469, Note_on_c, 0, 79, 0
1, 51538, Note_on_c, 0, 76, 54
1, 51546, Note_on_c, 0, 78, 0
1, 51615, Note_on_c, 0, 78, 54
1, 51623, Note_on_c, 0, 76, 0
1, 51692, Note_on_c, 0, 81, 65
1, 51692, Note_on_c, 0, 62, 0
1, 51692, Note_on_c, 0, 66, 0
1, 51695, Note_on_c, 0, 67, 45
1, 51695, Note_on_c, 0, 64, 37
1, 51700, Note_on_c, 0, 78, 0
1, 51768, Note_on_c, 0, 79, 55
1, 51776, Note_on_c, 0, 81, 0
1, 51844, Note_on_c, 0, 78, 55
1, 51852, Note_on_c, 0, 79, 0
1, 51927, Note_on_c, 0, 79, 55
1, 51935, Note_on_c, 0, 78, 0
1, 52009, Note_on_c, 0, 81, 62
1, 52009, Note_on_c, 0, 64, 0
1, 52009, Note_on_c, 0, 67, 0
1, 52012, Note_on_c, 0, 66, 37
1, 52012, Note_on_c, 0, 69, 45
1, 52017, Note_on_c, 0, 79, 0
1, 52311, Note_on_c, 0, 81, 0
1, 52311, Note_on_c, 0, 69, 0
1, 52311, Note_on_c, 0, 66, 0
1, 52617, Note_on_c, 0, 81, 50
1, 52655, Note_on_c, 0, 81, 0
1, 52768, Note_on_c, 0, 83, 45
1, 52806, Note_on_c, 0, 83, 0
1, 52919, Note_on_c, 0, 85, 45
1, 52957, Note_on_c, 0, 85, 0
1, 53070, Note_on_c, 0, 86, 45
1, 53109, Note_on_c, 0, 86, 0
1, 53226, Note_on_c, 0, 81, 54
1, 53226, Note_on_c, 0, 54, 38
1, 53226, Control_c, 0, 64, 127
1, 53377, Note_on_c, 0, 54, 0
1, 53377, Note_on_c, 0, 62, 32
1, 53528, Note_on_c, 0, 81, 0
1, 53528, Note_on_c, 0, 78, 45
1, 53528, Note_on_c, 0, 62, 0
1, 53531, Note_on_c, 0, 50, 38
1, 53679, Note_on_c, 0, 50, 0
1, 53679, Note_on_c, 0, 62, 33
1, 53830, Note_on_c, 0, 78, 0
1, 53830, Note_on_c, 0, 81, 50
1, 53830, Note_on_c, 0, 62, 0
1, 53833, Note_on_c, 0, 52, 37
1, 53833, Control_c, 0, 64, 0
1, 53905, Note_on_c, 0, 81, 0
1, 53905, Note_on_c, 0, 79, 44
1, 53981, Note_on_c, 0, 79, 0
1, 53981, Note_on_c, 0, 78, 44
1, 53981, Note_on_c, 0, 52, 0
1, 53984, Note_on_c, 0, 62, 32
1, 54056, Note_on_c, 0, 78, 0
1, 54056, Note_on_c, 0, 79, 44
1, 54132, Note_on_c, 0, 79, 0
1, 54132, Note_on_c, 0, 81, 49
1, 54132, Note_on_c, 0, 62, 0
1, 54135, Note_on_c, 0, 57, 37
1, 54170, Note_on_c, 0, 81, 0
1, 54170, Note_on_c, 0, 57, 0
1, 54283, Note_on_c, 0, 79, 46
1, 54283, Note_on_c, 0, 61, 30
1, 54323, Note_on_c, 0, 79, 0
1, 54323, Note_on_c, 0, 61, 0
1, 54445, Note_on_c, 0, 77, 54
1, 54445, Note_on_c, 0, 62, 42
1, 54445, Note_on_c, 0, 50, 42
1, 54601, Note_on_c, 0, 77, 0
1, 54601, Note_on_c, 0, 78, 45
1, 54751, Note_on_c, 0, 78, 0
1, 54751, Note_on_c, 0, 50, 0
1, 54751, Note_on_c, 0, 62, 0
1, 55077, Note_on_c, 0, 79, 66
1, 55077, Note_on_c, 0, 62, 37
1, 55077, Note_on_c, 0, 66, 45
1, 55153, Note_on_c, 0, 78, 55
1, 55160, Note_on_c, 0, 79, 0
1, 55229, Note_on_c, 0, 76, 54
1, 55236, Note_on_c, 0, 78, 0
1, 55305, Note_on_c, 0, 78, 54
1, 55312, Note_on_c, 0, 76, 0
1, 55381, Note_on_c, 0, 81, 65
1, 55381, Note_on_c, 0, 66, 0
1, 55381, Note_on_c, 0, 62, 0
1, 55384, Note_on_c, 0, 67, 45
1, 55384, Note_on_c, 0, 64, 37
1, 55388, Note_on_c, 0, 78, 0
1, 55457, Note_on_c, 0, 79, 55
1, 55464, Note_on_c, 0, 81, 0
1, 55533, Note_on_c, 0, 78, 55
1, 55541, Note_on_c, 0, 79, 0
1, 55615, Note_on_c, 0, 79, 55
1, 55623, Note_on_c, 0, 78, 0
1, 55698, Note_on_c, 0, 81, 62
1, 55698, Note_on_c, 0, 64, 0
1, 55698, Note_on_c, 0, 67, 0
1, 55701, Note_on_c, 0, 69, 45
1, 55701, Note_on_c, 0, 66, 37
1, 55705, Note_on_c, 0, 79, 0
1, 56000, Note_on_c, 0, 81, 0
1, 56000, Note_on_c, 0, 66, 0
1, 56000, Note_on_c, 0, 69, 0
1, 56306, Note_on_c, 0, 81, 50
1, 56343, Note_on_c, 0, 81, 0
1, 56457, Note_on_c, 0, 83, 45
1, 56494, Note_on_c, 0, 83, 0
1, 56608, Note_on_c, 0, 85, 45
1, 56645, Note_on_c, 0, 85, 0
1, 56759, Note_on_c, 0, 86, 45
1, 56798, Note_on_c, 0, 86, 0
1, 56915, Note_on_c, 0, 81, 54
1, 56915, Note_on_c, 0, 54, 38
1, 56915, Control_c, 0, 64, 127
1, 57066, Note_on_c, 0, 54, 0
1, 57066, Note_on_c, 0, 62, 32
1, 57217, Note_on_c, 0, 81, 0
1, 57217, Note_on_c, 0, 78, 45
1, 57217, Note_on_c, 0, 62, 0
1, 57220, Note_on_c, 0, 50, 38
1, 57368, Note_on_c, 0, 50, 0
1, 57368, Note_on_c, 0, 62, 33
1, 57519, Note_on_c, 0, 78, 0
1, 57519, Note_on_c, 0, 81, 50
1, 57519, Note_on_c, 0, 62, 0
1, 57522, Note_on_c, 0, 52, 37
1, 57522, Control_c, 0, 64, 0
1, 57594, Note_on_c, 0, 81, 0
1, 57594, Note_on_c, 0, 79, 44
1, 57669, Note_on_c, 0, 79, 0
1, 57669, Note_on_c, 0, 78, 44
1, 57669, Note_on_c, 0, 52, 0
1, 57672, Note_on_c, 0, 62, 32
1, 57745, Note_on_c, 0, 78, 0
1, 57745, Note_on_c, 0, 79, 44
1, 57820, Note_on_c, 0, 79, 0
1, 57820, Note_on_c, 0, 81, 50
1, 57820, Note_on_c, 0, 62, 0
1, 57823, Note_on_c, 0, 57, 37
1, 57896, Note_on_c, 0, 81, 0
1, 57896, Note_on_c, 0, 79, 44
1, 57971, Note_on_c, 0, 79, 0
1, 57971, Note_on_c, 0, 78, 44
1, 57971, Note_on_c, 0, 57, 0
1, 57974, Note_on_c, 0, 61, 32
1, 58049, Note_on_c, 0, 78, 0
1, 58049, Note_on_c, 0, 76, 44
1, 58127, Note_on_c, 0, 76, 0
1, 58127, Note_on_c, 0, 74, 50
1, 58127, Note_on_c, 0, 61, 0
1, 58130, Note_on_c, 0, 62, 37
1, 58206, Note_on_c, 0, 74, 0
1, 58206, Note_on_c, 0, 62, 0
1, 58284, Note_on_c, 0, 66, 26
1, 58359, Note_on_c, 0, 66, 0
1, 58434, Note_on_c, 0, 69, 42
1, 58434, Note_on_c, 0, 62, 35
1, 58509, Note_on_c, 0, 69, 0
1, 58509, Note_on_c, 0, 62, 0
1, 58584, Note_on_c, 0, 66, 28
1, 58659, Note_on_c, 0, 66, 0
1, 58735, Note_on_c, 0, 78, 47
1, 58735, Note_on_c, 0, 62, 36
1, 58788, Note_on_c, 0, 79, 43
1, 58793, Note_on_c, 0, 78, 0
1, 58814, Note_on_c, 0, 62, 0
1, 58840, Note_on_c, 0, 78, 48
1, 58845, Note_on_c, 0, 79, 0
1, 58891, Note_on_c, 0, 79, 43
1, 58891, Note_on_c, 0, 66, 26
1, 58896, Note_on_c, 0, 78, 0
1, 58941, Note_on_c, 0, 78, 48
1, 58946, Note_on_c, 0, 79, 0
1, 58967, Note_on_c, 0, 66, 0
1, 58991, Note_on_c, 0, 79, 44
1, 58996, Note_on_c, 0, 78, 0
1, 59040, Note_on_c, 0, 78, 48
1, 59040, Note_on_c, 0, 62, 35
1, 59045, Note_on_c, 0, 79, 0
1, 59089, Note_on_c, 0, 79, 44
1, 59094, Note_on_c, 0, 78, 0
1, 59115, Note_on_c, 0, 62, 0
1, 59138, Note_on_c, 0, 78, 44
1, 59143, Note_on_c, 0, 79, 0
1, 59189, Note_on_c, 0, 76, 48
1, 59189, Note_on_c, 0, 66, 30
1, 59193, Note_on_c, 0, 78, 0
1, 59264, Note_on_c, 0, 74, 44
1, 59264, Note_on_c, 0, 66, 0
1, 59272, Note_on_c, 0, 76, 0
1, 59339, Note_on_c, 0, 73, 50
1, 59339, Note_on_c, 0, 64, 37
1, 59347, Note_on_c, 0, 74, 0
1, 59414, Note_on_c, 0, 73, 0
1, 59414, Note_on_c, 0, 64, 0
1, 59489, Note_on_c, 0, 67, 29
1, 59564, Note_on_c, 0, 67, 0
1, 59639, Note_on_c, 0, 69, 42
1, 59639, Note_on_c, 0, 64, 37
1, 59714, Note_on_c, 0, 69, 0
1, 59714, Note_on_c, 0, 64, 0
1, 59789, Note_on_c, 0, 67, 29
1, 59864, Note_on_c, 0, 67, 0
1, 59939, Note_on_c, 0, 76, 50
1, 59939, Note_on_c, 0, 64, 43
1, 60014, Note_on_c, 0, 76, 0
1, 60014, Note_on_c, 0, 66, 38
1, 60022, Note_on_c, 0, 64, 0
1, 60090, Note_on_c, 0, 67, 38
1, 60097, Note_on_c, 0, 66, 0
1, 60165, Note_on_c, 0, 66, 38
1, 60172, Note_on_c, 0, 67, 0
1, 60240, Note_on_c, 0, 64, 38
1, 60247, Note_on_c, 0, 66, 0
1, 60314, Note_on_c, 0, 62, 40
1, 60322, Note_on_c, 0, 64, 0
1, 60390, Note_on_c, 0, 61, 40
1, 60397, Note_on_c, 0, 62, 0
1, 60466, Note_on_c, 0, 59, 40
1, 60473, Note_on_c, 0, 61, 0
1, 60543, Note_on_c, 0, 76, 50
1, 60543, Note_on_c, 0, 57, 37
1, 60551, Note_on_c, 0, 59, 0
1, 60621, Note_on_c, 0, 76, 0
1, 60621, Note_on_c, 0, 57, 0
1, 60699, Note_on_c, 0, 61, 26
1, 60774, Note_on_c, 0, 61, 0
1, 60849, Note_on_c, 0, 69, 42
1, 60849, Note_on_c, 0, 57, 35
1, 60924, Note_on_c, 0, 69, 0
1, 60924, Note_on_c, 0, 57, 0
1, 60999, Note_on_c, 0, 61, 28
1, 61074, Note_on_c, 0, 61, 0
1, 61150, Note_on_c, 0, 79, 47
1, 61150, Note_on_c, 0, 57, 36
1, 61203, Note_on_c, 0, 81, 43
1, 61209, Note_on_c, 0, 79, 0
1, 61230, Note_on_c, 0, 57, 0
1, 61255, Note_on_c, 0, 79, 48
1, 61261, Note_on_c, 0, 81, 0
1, 61306, Note_on_c, 0, 81, 43
1, 61306, Note_on_c, 0, 61, 26
1, 61311, Note_on_c, 0, 79, 0
1, 61357, Note_on_c, 0, 79, 48
1, 61362, Note_on_c, 0, 81, 0
1, 61382, Note_on_c, 0, 61, 0
1, 61406, Note_on_c, 0, 81, 44
1, 61411, Note_on_c, 0, 79, 0
1, 61456, Note_on_c, 0, 79, 48
1, 61456, Note_on_c, 0, 55, 35
1, 61461, Note_on_c, 0, 81, 0
1, 61504, Note_on_c, 0, 81, 44
1, 61510, Note_on_c, 0, 79, 0
1, 61530, Note_on_c, 0, 55, 0
1, 61554, Note_on_c, 0, 79, 44
1, 61559, Note_on_c, 0, 81, 0
1, 61604, Note_on_c, 0, 78, 48
1, 61604, Note_on_c, 0, 61, 30
1, 61608, Note_on_c, 0, 79, 0
1, 61679, Note_on_c, 0, 76, 44
1, 61679, Note_on_c, 0, 61, 0
1, 61687, Note_on_c, 0, 78, 0
1, 61754, Note_on_c, 0, 74, 50
1, 61754, Note_on_c, 0, 54, 37
1, 61762, Note_on_c, 0, 76, 0
1, 61829, Note_on_c, 0, 74, 0
1, 61829, Note_on_c, 0, 54, 0
1, 61904, Note_on_c, 0, 62, 29
1, 61979, Note_on_c, 0, 62, 0
1, 62054, Note_on_c, 0, 69, 42
1, 62054, Note_on_c, 0, 54, 37
1, 62129, Note_on_c, 0, 69, 0
1, 62129, Note_on_c, 0, 54, 0
1, 62204, Note_on_c, 0, 62, 29
1, 62279, Note_on_c, 0, 62, 0
1, 62354, Note_on_c, 0, 78, 50
1, 62354, Note_on_c, 0, 54, 43
1, 62430, Note_on_c, 0, 78, 0
1, 62430, Note_on_c, 0, 50, 36
1, 62437, Note_on_c, 0, 54, 0
1, 62505, Note_on_c, 0, 52, 37
1, 62513, Note_on_c, 0, 50, 0
1, 62580, Note_on_c, 0, 54, 38
1, 62587, Note_on_c, 0, 52, 0
1, 62655, Note_on_c, 0, 55, 39
1, 62662, Note_on_c, 0, 54, 0
1, 62730, Note_on_c, 0, 57, 40
1, 62737, Note_on_c, 0, 55, 0
1, 62805, Note_on_c, 0, 59, 41
1, 62812, Note_on_c, 0, 57, 0
1, 62881, Note_on_c, 0, 61, 42
1, 62889, Note_on_c, 0, 59, 0
1, 62958, Note_on_c, 0, 78, 54
1, 62958, Note_on_c, 0, 62, 44
1, 62966, Note_on_c, 0, 61, 0
1, 63036, Note_on_c, 0, 78, 0
1, 63036, Note_on_c, 0, 74, 47
1, 63114, Note_on_c, 0, 76, 48
1, 63122, Note_on_c, 0, 74, 0
1, 63192, Note_on_c, 0, 78, 49
1, 63199, Note_on_c, 0, 76, 0
1, 63269, Note_on_c, 0, 79, 50
1, 63269, Note_on_c, 0, 62, 0
1, 63276, Note_on_c, 0, 78, 0
1, 63346, Note_on_c, 0, 81, 51
1, 63353, Note_on_c, 0, 79, 0
1, 63422, Note_on_c, 0, 83, 52
1, 63430, Note_on_c, 0, 81, 0
1, 63498, Note_on_c, 0, 85, 53
1, 63506, Note_on_c, 0, 83, 0
1, 63574, Note_on_c, 0, 86, 55
1, 63581, Note_on_c, 0, 85, 0
1, 63648, Note_on_c, 0, 85, 56
1, 63655, Note_on_c, 0, 86, 0
1, 63722, Note_on_c, 0, 83, 56
1, 63722, Note_on_c, 0, 57, 37
1, 63722, Note_on_c, 0, 54, 31
1, 63729, Note_on_c, 0, 85, 0
1, 63797, Note_on_c, 0, 81, 56
1, 63797, Note_on_c, 0, 54, 0
1, 63797, Note_on_c, 0, 57, 0
1, 63804, Note_on_c, 0, 83, 0
1, 63872, Note_on_c, 0, 79, 56
1, 63872, Note_on_c, 0, 57, 37
1, 63872, Note_on_c, 0, 54, 31
1, 63879, Note_on_c, 0, 81, 0
1, 63946, Note_on_c, 0, 78, 55
1, 63946, Note_on_c, 0, 54, 0
1, 63946, Note_on_c, 0, 57, 0
1, 63954, Note_on_c, 0, 79, 0
1, 64022, Note_on_c, 0, 76, 50
1, 64022, Note_on_c, 0, 57, 37
1, 64022, Note_on_c, 0, 54, 31
1, 64030, Note_on_c, 0, 78, 0
1, 64099, Note_on_c, 0, 74, 49
1, 64099, Note_on_c, 0, 54, 0
1, 64099, Note_on_c, 0, 57, 0
1, 64107, Note_on_c, 0, 76, 0
1, 64176, Note_on_c, 0, 76, 51
1, 64176, Note_on_c, 0, 59, 44
1, 64176, Note_on_c, 0, 55, 37
1, 64184, Note_on_c, 0, 74, 0
1, 64253, Note_on_c, 0, 78, 48
1, 64261, Note_on_c, 0, 76, 0
1, 64330, Note_on_c, 0, 76, 45
1, 64338, Note_on_c, 0, 78, 0
1, 64407, Note_on_c, 0, 75, 43
1, 64415, Note_on_c, 0, 76, 0
1, 64484, Note_on_c, 0, 76, 45
1, 64484, Note_on_c, 0, 55, 0
1, 64484, Note_on_c, 0, 59, 0
1, 64491, Note_on_c, 0, 75, 0
1, 64560, Note_on_c, 0, 78, 47
1, 64568, Note_on_c, 0, 76, 0
1, 64636, Note_on_c, 0, 79, 49
1, 64644, Note_on_c, 0, 78, 0
1, 64712, Note_on_c, 0, 81, 51
1, 64720, Note_on_c, 0, 79, 0
1, 64788, Note_on_c, 0, 83, 53
1, 64796, Note_on_c, 0, 81, 0
1, 64864, Note_on_c, 0, 81, 54
1, 64871, Note_on_c, 0, 83, 0
1, 64939, Note_on_c, 0, 79, 53
1, 64939, Note_on_c, 0, 59, 36
1, 64939, Note_on_c, 0, 55, 30
1, 64947, Note_on_c, 0, 81, 0
1, 65015, Note_on_c, 0, 78, 51
1, 65015, Note_on_c, 0, 55, 0
1, 65015, Note_on_c, 0, 59, 0
1, 65022, Note_on_c, 0, 79, 0
1, 65091, Note_on_c, 0, 76, 49
1, 65091, Note_on_c, 0, 59, 36
1, 65091, Note_on_c, 0, 55, 30
1, 65098, Note_on_c, 0, 78, 0
1, 65167, Note_on_c, 0, 74, 48
1, 65167, Note_on_c, 0, 55, 0
1, 65167, Note_on_c, 0, 59, 0
1, 65174, Note_on_c, 0, 76, 0
1, 65243, Note_on_c, 0, 73, 46
1, 65243, Note_on_c, 0, 56, 30
1, 65243, Note_on_c, 0, 59, 36
1, 65251, Note_on_c, 0, 74, 0
1, 65320, Note_on_c, 0, 71, 44
1, 65320, Note_on_c, 0, 59, 0
1, 65320, Note_on_c, 0, 56, 0
1, 65327, Note_on_c, 0, 73, 0
1, 65397, Note_on_c, 0, 73, 50
1, 65397, Note_on_c, 0, 57, 46
1, 65404, Note_on_c, 0, 71, 0
1, 65472, Note_on_c, 0, 74, 42
1, 65480, Note_on_c, 0, 73, 0
1, 65547, Note_on_c, 0, 73, 42
1, 65547, Note_on_c, 0, 57, 0
1, 65547, Note_on_c, 0, 55, 40
1, 65555, Note_on_c, 0, 74, 0
1, 65623, Note_on_c, 0, 69, 40
1, 65631, Note_on_c, 0, 73, 0
1, 65705, Note_on_c, 0, 74, 47
1, 65705, Note_on_c, 0, 55, 0
1, 65705, Note_on_c, 0, 54, 40
1, 65713, Note_on_c, 0, 69, 0
1, 65780, Note_on_c, 0, 74, 0
1, 65780, Note_on_c, 0, 54, 0
1, 65856, Note_on_c, 0, 50, 40
1, 65938, Note_on_c, 0, 50, 0
1, 66020, Note_on_c, 0, 79, 55
1, 66020, Note_on_c, 0, 49, 50
1, 66096, Note_on_c, 0, 81, 46
1, 66103, Note_on_c, 0, 79, 0
1, 66171, Note_on_c, 0, 79, 46
1, 66171, Note_on_c, 0, 49, 0
1, 66171, Note_on_c, 0, 45, 44
1, 66179, Note_on_c, 0, 81, 0
1, 66247, Note_on_c, 0, 76, 46
1, 66254, Note_on_c, 0, 79, 0
1, 66322, Note_on_c, 0, 79, 56
1, 66322, Note_on_c, 0, 45, 0
1, 66322, Note_on_c, 0, 50, 44
1, 66330, Note_on_c, 0, 76, 0
1, 66397, Note_on_c, 0, 78, 47
1, 66397, Note_on_c, 0, 50, 0
1, 66405, Note_on_c, 0, 79, 0
1, 66473, Note_on_c, 0, 76, 48
1, 66473, Note_on_c, 0, 54, 44
1, 66480, Note_on_c, 0, 78, 0
1, 66548, Note_on_c, 0, 74, 48
1, 66548, Note_on_c, 0, 54, 0
1, 66557, Note_on_c, 0, 76, 0
1, 66631, Note_on_c, 0, 73, 57
1, 66631, Note_on_c, 0, 57, 51
1, 66639, Note_on_c, 0, 74, 0
1, 66706, Note_on_c, 0, 74, 47
1, 66714, Note_on_c, 0, 73, 0
1, 66781, Note_on_c, 0, 73, 47
1, 66781, Note_on_c, 0, 57, 0
1, 66781, Note_on_c, 0, 55, 44
1, 66789, Note_on_c, 0, 74, 0
1, 66856, Note_on_c, 0, 69, 47
1, 66863, Note_on_c, 0, 73, 0
1, 66931, Note_on_c, 0, 74, 57
1, 66931, Note_on_c, 0, 55, 0
1, 66931, Note_on_c, 0, 54, 45
1, 66938, Note_on_c, 0, 69, 0
1, 67006, Note_on_c, 0, 74, 0
1, 67006, Note_on_c, 0, 54, 0
1, 67081, Note_on_c, 0, 50, 45
1, 67162, Note_on_c, 0, 50, 0
1, 67242, Note_on_c, 0, 79, 65
1, 67242, Note_on_c, 0, 49, 54
1, 67318, Note_on_c, 0, 81, 54
1, 67326, Note_on_c, 0, 79, 0
1, 67393, Note_on_c, 0, 79, 54
1, 67393, Note_on_c, 0, 49, 0
1, 67393, Note_on_c, 0, 45, 47
1, 67401, Note_on_c, 0, 81, 0
1, 67469, Note_on_c, 0, 76, 56
1, 67476, Note_on_c, 0, 79, 0
1, 67544, Note_on_c, 0, 79, 70
1, 67544, Note_on_c, 0, 45, 0
1, 67544, Note_on_c, 0, 50, 48
1, 67552, Note_on_c, 0, 76, 0
1, 67620, Note_on_c, 0, 78, 56
1, 67620, Note_on_c, 0, 50, 0
1, 67627, Note_on_c, 0, 79, 0
1, 67695, Note_on_c, 0, 76, 56
1, 67695, Note_on_c, 0, 54, 48
1, 67703, Note_on_c, 0, 78, 0
1, 67773, Note_on_c, 0, 74, 59
1, 67773, Note_on_c, 0, 54, 0
1, 67781, Note_on_c, 0, 76, 0
1, 67851, Note_on_c, 0, 73, 79
1, 67851, Note_on_c, 0, 45, 50
1, 67851, Note_on_c, 0, 57, 60
1, 67854, Note_on_c, 0, 52, 50
1, 67859, Note_on_c, 0, 74, 0
1, 67926, Note_on_c, 0, 73, 0
1, 67926, Note_on_c, 0, 76, 63
1, 68001, Note_on_c, 0, 76, 0
1, 68001, Note_on_c, 0, 73, 63
1, 68001, Note_on_c, 0, 52, 0
1, 68004, Note_on_c, 0, 57, 0
1, 68004, Note_on_c, 0, 45, 0
1, 68076, Note_on_c, 0, 73, 0
1, 68076, Note_on_c, 0, 69, 63
1, 68157, Note_on_c, 0, 69, 0
1, 68157, Note_on_c, 0, 78, 74
1, 68157, Note_on_c, 0, 54, 51
1, 68160, Note_on_c, 0, 50, 51
1, 68160, Note_on_c, 0, 57, 60
1, 68232, Note_on_c, 0, 78, 0
1, 68232, Note_on_c, 0, 81, 64
1, 68307, Note_on_c, 0, 81, 0
1, 68307, Note_on_c, 0, 78, 64
1, 68307, Note_on_c, 0, 57, 0
1, 68310, Note_on_c, 0, 50, 0
1, 68310, Note_on_c, 0, 54, 0
1, 68387, Note_on_c, 0, 78, 0
1, 68387, Note_on_c, 0, 74, 64
1, 68467, Note_on_c, 0, 74, 0
1, 68467, Note_on_c, 0, 73, 77
1, 68467, Note_on_c, 0, 52, 51
1, 68470, Note_on_c, 0, 45, 51
1, 68470, Note_on_c, 0, 57, 61
1, 68543, Note_on_c, 0, 73, 0
1, 68543, Note_on_c, 0, 76, 62
1, 68619, Note_on_c, 0, 76, 0
1, 68619, Note_on_c, 0, 73, 62
1, 68619, Note_on_c, 0, 57, 0
1, 68622, Note_on_c, 0, 45, 0
1, 68622, Note_on_c, 0, 52, 0
1, 68695, Note_on_c, 0, 73, 0
1, 68695, Note_on_c, 0, 69, 62
1, 68775, Note_on_c, 0, 69, 0
1, 68775, Note_on_c, 0, 78, 77
1, 68775, Note_on_c, 0, 50, 52
1, 68778, Note_on_c, 0, 54, 52
1, 68778, Note_on_c, 0, 57, 62
1, 68851, Note_on_c, 0, 78, 0
1, 68851, Note_on_c, 0, 81, 64
1, 68927, Note_on_c, 0, 81, 0
1, 68927, Note_on_c, 0, 78, 64
1, 68927, Note_on_c, 0, 57, 0
1, 68930, Note_on_c, 0, 54, 0
1, 68930, Note_on_c, 0, 50, 0
1, 69007, Note_on_c, 0, 78, 0
1, 69007, Note_on_c, 0, 74, 64
1, 69088, Note_on_c, 0, 74, 0
1, 69088, Note_on_c, 0, 73, 69
1, 69088, Note_on_c, 0, 76, 84
1, 69145, Note_on_c, 0, 76, 0
1, 69145, Note_on_c, 0, 73, 0
1, 69242, Note_on_c, 0, 73, 60
1, 69242, Note_on_c, 0, 81, 74
1, 69242, Note_on_c, 0, 76, 60
1, 69245, Note_on_c, 0, 45, 45
1, 69245, Note_on_c, 0, 49, 45
1, 69245, Note_on_c, 0, 57, 55
1, 69248, Note_on_c, 0, 52, 45
1, 69299, Note_on_c, 0, 76, 0
1, 69299, Note_on_c, 0, 81, 0
1, 69299, Note_on_c, 0, 73, 0
1, 69302, Note_on_c, 0, 52, 0
1, 69302, Note_on_c, 0, 45, 0
1, 69302, Note_on_c, 0, 49, 0
1, 69305, Note_on_c, 0, 57, 0
1, 69396, Note_on_c, 0, 81, 74
1, 69396, Note_on_c, 0, 73, 60
1, 69396, Note_on_c, 0, 76, 60
1, 69399, Note_on_c, 0, 49, 45
1, 69399, Note_on_c, 0, 57, 55
1, 69399, Note_on_c, 0, 52, 45
1, 69402, Note_on_c, 0, 45, 45
1, 69453, Note_on_c, 0, 76, 0
1, 69453, Note_on_c, 0, 73, 0
1, 69453, Note_on_c, 0, 81, 0
1, 69456, Note_on_c, 0, 45, 0
1, 69456, Note_on_c, 0, 49, 0
1, 69456, Note_on_c, 0, 57, 0
1, 69459, Note_on_c, 0, 52, 0
1, 69550, Note_on_c, 0, 76, 60
1, 69550, Note_on_c, 0, 73, 60
1, 69550, Note_on_c, 0, 81, 74
1, 69553, Note_on_c, 0, 49, 45
1, 69553, Note_on_c, 0, 52, 45
1, 69553, Note_on_c, 0, 57, 55
1, 69556, Note_on_c, 0, 45, 45
1, 69607, Note_on_c, 0, 81, 0
1, 69607, Note_on_c, 0, 73, 0
1, 69607, Note_on_c, 0, 76, 0
1, 69610, Note_on_c, 0, 45, 0
1, 69610, Note_on_c, 0, 49, 0
1, 69610, Note_on_c, 0, 52, 0
1, 69613, Note_on_c, 0, 57, 0
1, 69704, Note_on_c, 0, 81, 74
1, 69704, Note_on_c, 0, 73, 60
1, 69704, Note_on_c, 0, 76, 60
1, 69707, Note_on_c, 0, 52, 49
1, 69707, Note_on_c, 0, 57, 58
1, 69707, Note_on_c, 0, 49, 49
1, 69710, Note_on_c, 0, 45, 49
1, 70036, Note_on_c, 0, 76, 0
1, 70036, Note_on_c, 0, 73, 0
1, 70036, Note_on_c, 0, 81, 0
1, 70039, Note_on_c, 0, 74, 41
1, 70039, Note_on_c, 0, 45, 0
1, 70039, Note_on_c, 0, 52, 0
1, 70042, Note_on_c, 0, 57, 0
1, 70042, Note_on_c, 0, 49, 0
1, 70075, Note_on_c, 0, 74, 0
1, 70075, Note_on_c, 0, 73, 42
1, 70152, Note_on_c, 0, 73, 0
1, 70152, Note_on_c, 0, 71, 40
1, 70230, Note_on_c, 0, 71, 0
1, 70230, Note_on_c, 0, 73, 40
1, 70307, Note_on_c, 0, 73, 0
1, 70307, Note_on_c, 0, 74, 40
1, 70394, Note_on_c, 0, 74, 0
1, 70394, Note_on_c, 0, 75, 45
1, 70394, Note_on_c, 0, 57, 34
1, 70423, Control_c, 0, 64, 127
1, 70553, Note_on_c, 0, 75, 0
1, 70553, Note_on_c, 0, 76, 42
1, 70553, Note_on_c, 0, 57, 0
1, 70556, Note_on_c, 0, 61, 27
1, 70590, Control_c, 0, 64, 0
1, 70709, Note_on_c, 0, 76, 0
1, 70709, Note_on_c, 0, 61, 0
1, 70709, Note_on_c, 0, 59, 30
1, 70872, Note_on_c, 0, 76, 40
1, 70872, Note_on_c, 0, 59, 0
1, 70872, Note_on_c, 0, 62, 27
1, 71026, Note_on_c, 0, 76, 0
1, 71026, Note_on_c, 0, 81, 46
1, 71026, Note_on_c, 0, 62, 0
1, 71029, Note_on_c, 0, 61, 32
1, 71092, Control_c, 0, 64, 127
1, 71180, Note_on_c, 0, 81, 0
1, 71180, Note_on_c, 0, 80, 42
1, 71180, Note_on_c, 0, 61, 0
1, 71183, Note_on_c, 0, 64, 26
1, 71186, Control_c, 0, 64, 0
1, 71334, Note_on_c, 0, 80, 0
1, 71334, Note_on_c, 0, 78, 44
1, 71334, Note_on_c, 0, 64, 0
1, 71337, Note_on_c, 0, 57, 29
1, 71488, Note_on_c, 0, 78, 0
1, 71488, Note_on_c, 0, 76, 42
1, 71488, Note_on_c, 0, 57, 0
1, 71491, Note_on_c, 0, 61, 26
1, 71651, Note_on_c, 0, 76, 0
1, 71651, Note_on_c, 0, 73, 48
1, 71651, Note_on_c, 0, 61, 0
1, 71654, Note_on_c, 0, 59, 34
1, 71682, Control_c, 0, 64, 127
1, 71808, Note_on_c, 0, 73, 0
1, 71808, Note_on_c, 0, 74, 42
1, 71808, Note_on_c, 0, 59, 0
1, 71811, Note_on_c, 0, 66, 28
1, 71817, Control_c, 0, 64, 0
1, 71960, Note_on_c, 0, 74, 0
1, 71960, Note_on_c, 0, 66, 0
1, 71960, Note_on_c, 0, 62, 32
1, 72123, Note_on_c, 0, 74, 40
1, 72123, Note_on_c, 0, 62, 0
1, 72123, Note_on_c, 0, 59, 28
1, 72277, Note_on_c, 0, 74, 0
1, 72277, Note_on_c, 0, 76, 45
1, 72277, Note_on_c, 0, 59, 0
1, 72280, Note_on_c, 0, 56, 34
1, 72431, Note_on_c, 0, 76, 0
1, 72431, Note_on_c, 0, 74, 42
1, 72431, Note_on_c, 0, 56, 0
1, 72434, Note_on_c, 0, 59, 29
1, 72585, Note_on_c, 0, 74, 0
1, 72585, Note_on_c, 0, 73, 45
1, 72585, Note_on_c, 0, 59, 0
1, 72588, Note_on_c, 0, 52, 30
1, 72739, Note_on_c, 0, 73, 0
1, 72739, Note_on_c, 0, 71, 42
1, 72739, Note_on_c, 0, 52, 0
1, 72742, Note_on_c, 0, 62, 28
1, 72903, Note_on_c, 0, 71, 0
1, 72903, Note_on_c, 0, 68, 48
1, 72903, Note_on_c, 0, 62, 0
1, 72906, Note_on_c, 0, 61, 34
1, 72930, Control_c, 0, 64, 127
1, 73058, Note_on_c, 0, 68, 0
1, 73058, Note_on_c, 0, 69, 44
1, 73058, Note_on_c, 0, 61, 0
1, 73061, Note_on_c, 0, 64, 28
1, 73061, Control_c, 0, 64, 0
1, 73210, Note_on_c, 0, 69, 0
1, 73210, Note_on_c, 0, 64, 0
1, 73210, Note_on_c, 0, 56, 30
1, 73362, Note_on_c, 0, 71, 45
1, 73362, Note_on_c, 0, 56, 0
1, 73362, Note_on_c, 0, 64, 28
1, 73522, Note_on_c, 0, 71, 0
1, 73522, Note_on_c, 0, 72, 50
1, 73522, Note_on_c, 0, 64, 0
1, 73525, Note_on_c, 0, 57, 34
1, 73555, Control_c, 0, 64, 127
1, 73677, Note_on_c, 0, 72, 0
1, 73677, Note_on_c, 0, 73, 46
1, 73677, Note_on_c, 0, 57, 0
1, 73680, Note_on_c, 0, 64, 26
1, 73685, Control_c, 0, 64, 0
1, 73828, Note_on_c, 0, 73, 0
1, 73828, Note_on_c, 0, 64, 0
1, 73828, Note_on_c, 0, 54, 29
1, 73941, Note_on_c, 0, 76, 42
1, 73979, Note_on_c, 0, 76, 0
1, 73979, Note_on_c, 0, 74, 47
1, 73979, Note_on_c, 0, 54, 0
1, 73982, Note_on_c, 0, 57, 26
1, 74141, Note_on_c, 0, 74, 0
1, 74141, Note_on_c, 0, 73, 51
1, 74141, Note_on_c, 0, 57, 0
1, 74144, Note_on_c, 0, 52, 34
1, 74185, Control_c, 0, 64, 127
1, 74299, Note_on_c, 0, 52, 0
1, 74299, Note_on_c, 0, 57, 27
1, 74457, Note_on_c, 0, 57, 0
1, 74457, Note_on_c, 0, 61, 30
1, 74616, Note_on_c, 0, 73, 0
1, 74616, Note_on_c, 0, 74, 44
1, 74616, Note_on_c, 0, 61, 0
1, 74619, Note_on_c, 0, 57, 27
1, 74695, Note_on_c, 0, 74, 0
1, 74695, Note_on_c, 0, 73, 42
1, 74774, Note_on_c, 0, 73, 0
1, 74774, Note_on_c, 0, 71, 47
1, 74774, Note_on_c, 0, 57, 0
1, 74777, Note_on_c, 0, 56, 33
1, 74777, Note_on_c, 0, 52, 33
1, 74782, Control_c, 0, 64, 0
1, 74933, Note_on_c, 0, 71, 0
1, 74933, Note_on_c, 0, 73, 42
1, 75012, Note_on_c, 0, 73, 0
1, 75091, Note_on_c, 0, 74, 44
1, 75091, Note_on_c, 0, 52, 0
1, 75091, Note_on_c, 0, 56, 0
1, 75173, Note_on_c, 0, 74, 0
1, 75255, Note_on_c, 0, 75, 47
1, 75341, Note_on_c, 0, 75, 0
1, 75426, Note_on_c, 0, 75, 45
1, 75426, Note_on_c, 0, 57, 34
1, 75426, Control_c, 0, 64, 127
1, 75586, Note_on_c, 0, 75, 0
1, 75586, Note_on_c, 0, 76, 42
1, 75586, Note_on_c, 0, 57, 0
1, 75589, Note_on_c, 0, 61, 27
1, 75594, Control_c, 0, 64, 0
1, 75741, Note_on_c, 0, 76, 0
1, 75741, Note_on_c, 0, 61, 0
1, 75741, Note_on_c, 0, 59, 30
1, 75757, Control_c, 0, 64, 127
1, 75904, Note_on_c, 0, 78, 40
1, 75904, Note_on_c, 0, 59, 0
1, 75904, Note_on_c, 0, 62, 27
1, 75904, Control_c, 0, 64, 0
1, 75942, Note_on_c, 0, 78, 0
1, 75942, Note_on_c, 0, 76, 37
1, 75981, Note_on_c, 0, 76, 0
1, 75981, Note_on_c, 0, 75, 37
1, 76019, Note_on_c, 0, 75, 0
1, 76019, Note_on_c, 0, 76, 37
1, 76058, Note_on_c, 0, 76, 0
1, 76058, Note_on_c, 0, 81, 46
1, 76058, Note_on_c, 0, 62, 0
1, 76061, Note_on_c, 0, 61, 32
1, 76112, Control_c, 0, 64, 127
1, 76135, Note_on_c, 0, 81, 0
1, 76212, Note_on_c, 0, 80, 42
1, 76212, Note_on_c, 0, 61, 0
1, 76212, Note_on_c, 0, 64, 26
1, 76239, Control_c, 0, 64, 0
1, 76289, Note_on_c, 0, 80, 0
1, 76289, Note_on_c, 0, 64, 0
1, 76366, Note_on_c, 0, 78, 44
1, 76366, Note_on_c, 0, 57, 29
1, 76443, Note_on_c, 0, 78, 0
1, 76520, Note_on_c, 0, 76, 42
1, 76520, Note_on_c, 0, 57, 0
1, 76520, Note_on_c, 0, 61, 26
1, 76602, Note_on_c, 0, 76, 0
1, 76602, Note_on_c, 0, 61, 0
1, 76683, Note_on_c, 0, 73, 48
1, 76683, Note_on_c, 0, 59, 34
1, 76683, Control_c, 0, 64, 127
1, 76840, Note_on_c, 0, 73, 0
1, 76840, Note_on_c, 0, 74, 42
1, 76840, Note_on_c, 0, 59, 0
1, 76843, Note_on_c, 0, 66, 28
1, 76865, Control_c, 0, 64, 0
1, 76992, Note_on_c, 0, 74, 0
1, 76992, Note_on_c, 0, 66, 0
1, 76992, Note_on_c, 0, 62, 32
1, 76999, Control_c, 0, 64, 127
1, 77151, Control_c, 0, 64, 0
1, 77155, Note_on_c, 0, 76, 40
1, 77155, Note_on_c, 0, 62, 0
1, 77155, Note_on_c, 0, 59, 28
1, 77194, Note_on_c, 0, 76, 0
1, 77194, Note_on_c, 0, 74, 37
1, 77232, Note_on_c, 0, 74, 0
1, 77232, Note_on_c, 0, 73, 37
1, 77271, Note_on_c, 0, 73, 0
1, 77271, Note_on_c, 0, 74, 37
1, 77309, Note_on_c, 0, 74, 0
1, 77309, Note_on_c, 0, 76, 45
1, 77309, Note_on_c, 0, 59, 0
1, 77312, Note_on_c, 0, 56, 34
1, 77336, Control_c, 0, 64, 127
1, 77386, Note_on_c, 0, 76, 0
1, 77463, Note_on_c, 0, 74, 42
1, 77463, Note_on_c, 0, 56, 0
1, 77463, Note_on_c, 0, 59, 29
1, 77470, Control_c, 0, 64, 0
1, 77540, Note_on_c, 0, 74, 0
1, 77540, Note_on_c, 0, 59, 0
1, 77617, Note_on_c, 0, 73, 45
1, 77617, Note_on_c, 0, 52, 30
1, 77694, Note_on_c, 0, 73, 0
1, 77771, Note_on_c, 0, 71, 42
1, 77771, Note_on_c, 0, 52, 0
1, 77771, Note_on_c, 0, 56, 28
1, 77854, Note_on_c, 0, 71, 0
1, 77854, Note_on_c, 0, 56, 0
1, 77936, Note_on_c, 0, 73, 45
1, 77936, Note_on_c, 0, 57, 30
1, 77936, Control_c, 0, 64, 127
1, 78182, Note_on_c, 0, 73, 0
1, 78182, Note_on_c, 0, 76, 42
1, 78264, Note_on_c, 0, 76, 0
1, 78264, Note_on_c, 0, 66, 45
1, 78264, Note_on_c, 0, 57, 0
1, 78267, Note_on_c, 0, 62, 30
1, 78267, Note_on_c, 0, 50, 30
1, 78272, Control_c, 0, 64, 0
1, 78321, Control_c, 0, 64, 127
1, 78510, Note_on_c, 0, 66, 0
1, 78510, Note_on_c, 0, 71, 41
1, 78592, Note_on_c, 0, 71, 0
1, 78592, Note_on_c, 0, 69, 45
1, 78592, Note_on_c, 0, 50, 0
1, 78595, Note_on_c, 0, 62, 0
1, 78595, Note_on_c, 0, 52, 30
1, 78595, Note_on_c, 0, 61, 30
1, 78595, Control_c, 0, 64, 0
1, 78643, Control_c, 0, 64, 127
1, 78921, Note_on_c, 0, 69, 0
1, 78921, Note_on_c, 0, 68, 43
1, 78921, Note_on_c, 0, 61, 0
1, 78924, Note_on_c, 0, 59, 30
1, 78930, Control_c, 0, 64, 0
1, 78954, Control_c, 0, 64, 127
1, 78962, Note_on_c, 0, 68, 0
1, 78962, Note_on_c, 0, 69, 39
1, 79003, Note_on_c, 0, 69, 0
1, 79003, Note_on_c, 0, 68, 43
1, 79044, Note_on_c, 0, 68, 0
1, 79044, Note_on_c, 0, 69, 40
1, 79085, Note_on_c, 0, 69, 0
1, 79085, Note_on_c, 0, 68, 43
1, 79140, Note_on_c, 0, 68, 0
1, 79140, Note_on_c, 0, 66, 40
1, 79194, Note_on_c, 0, 66, 0
1, 79194, Note_on_c, 0, 68, 40
1, 79249, Note_on_c, 0, 68, 0
1, 79249, Note_on_c, 0, 69, 46
1, 79249, Note_on_c, 0, 59, 0
1, 79252, Note_on_c, 0, 52, 0
1, 79252, Note_on_c, 0, 57, 38
1, 79252, Control_c, 0, 64, 0
1, 79332, Note_on_c, 0, 69, 0
1, 79332, Note_on_c, 0, 76, 44
1, 79414, Note_on_c, 0, 76, 0
1, 79414, Note_on_c, 0, 75, 47
1, 79491, Note_on_c, 0, 75, 0
1, 79491, Note_on_c, 0, 76, 43
1, 79568, Note_on_c, 0, 76, 0
1, 79568, Note_on_c, 0, 78, 50
1, 79568, Note_on_c, 0, 57, 0
1, 79647, Note_on_c, 0, 78, 0
1, 79647, Note_on_c, 0, 76, 47
1, 79726, Note_on_c, 0, 76, 0
1, 79726, Note_on_c, 0, 75, 51
1, 79726, Note_on_c, 0, 69, 51
1, 79808, Note_on_c, 0, 75, 0
1, 79808, Note_on_c, 0, 76, 51
1, 79808, Note_on_c, 0, 69, 0
1, 79890, Note_on_c, 0, 76, 0
1, 79890, Note_on_c, 0, 74, 59
1, 79890, Note_on_c, 0, 71, 55
1, 79968, Note_on_c, 0, 74, 0
1, 79968, Note_on_c, 0, 76, 50
1, 79968, Note_on_c, 0, 71, 0
1, 80047, Note_on_c, 0, 76, 0
1, 80047, Note_on_c, 0, 74, 52
1, 80047, Note_on_c, 0, 69, 51
1, 80124, Note_on_c, 0, 74, 0
1, 80124, Note_on_c, 0, 76, 50
1, 80124, Note_on_c, 0, 69, 0
1, 80201, Note_on_c, 0, 76, 0
1, 80201, Note_on_c, 0, 74, 62
1, 80201, Note_on_c, 0, 68, 58
1, 80278, Note_on_c, 0, 74, 0
1, 80278, Note_on_c, 0, 76, 49
1, 80278, Note_on_c, 0, 68, 0
1, 80355, Note_on_c, 0, 76, 0
1, 80355, Note_on_c, 0, 74, 52
1, 80355, Note_on_c, 0, 64, 53
1, 80437, Note_on_c, 0, 74, 0
1, 80437, Note_on_c, 0, 76, 49
1, 80437, Note_on_c, 0, 64, 0
1, 80518, Note_on_c, 0, 76, 0
1, 80518, Note_on_c, 0, 73, 50
1, 80518, Note_on_c, 0, 69, 55
1, 80521, Control_c, 0, 64, 0
1, 80601, Note_on_c, 0, 73, 0
1, 80601, Note_on_c, 0, 76, 44
1, 80683, Note_on_c, 0, 76, 0
1, 80683, Note_on_c, 0, 75, 47
1, 80760, Note_on_c, 0, 75, 0
1, 80760, Note_on_c, 0, 76, 43
1, 80836, Note_on_c, 0, 76, 0
1, 80836, Note_on_c, 0, 78, 50
1, 80836, Note_on_c, 0, 69, 0
1, 80913, Note_on_c, 0, 78, 0
1, 80913, Note_on_c, 0, 76, 47
1, 80989, Note_on_c, 0, 76, 0
1, 80989, Note_on_c, 0, 75, 51
1, 80989, Note_on_c, 0, 57, 52
1, 81072, Note_on_c, 0, 75, 0
1, 81072, Note_on_c, 0, 76, 51
1, 81072, Note_on_c, 0, 57, 0
1, 81154, Note_on_c, 0, 76, 0
1, 81154, Note_on_c, 0, 74, 59
1, 81154, Note_on_c, 0, 59, 57
1, 81233, Note_on_c, 0, 74, 0
1, 81233, Note_on_c, 0, 76, 50
1, 81233, Note_on_c, 0, 59, 0
1, 81312, Note_on_c, 0, 76, 0
1, 81312, Note_on_c, 0, 74, 52
1, 81312, Note_on_c, 0, 57, 51
1, 81389, Note_on_c, 0, 74, 0
1, 81389, Note_on_c, 0, 76, 50
1, 81389, Note_on_c, 0, 57, 0
1, 81466, Note_on_c, 0, 76, 0
1, 81466, Note_on_c, 0, 74, 62
1, 81466, Note_on_c, 0, 56, 57
1, 81543, Note_on_c, 0, 74, 0
1, 81543, Note_on_c, 0, 76, 49
1, 81543, Note_on_c, 0, 56, 0
1, 81620, Note_on_c, 0, 76, 0
1, 81620, Note_on_c, 0, 74, 52
1, 81620, Note_on_c, 0, 52, 53
1, 81702, Note_on_c, 0, 74, 0
1, 81702, Note_on_c, 0, 76, 49
1, 81702, Note_on_c, 0, 52, 0
1, 81783, Note_on_c, 0, 76, 0
1, 81783, Note_on_c, 0, 69, 41
1, 81783, Note_on_c, 0, 57, 56
1, 81866, Note_on_c, 0, 57, 0
1, 81866, Note_on_c, 0, 64, 35
1, 81948, Note_on_c, 0, 64, 0
1, 81948, Note_on_c, 0, 63, 37
1, 82025, Note_on_c, 0, 63, 0
1, 82025, Note_on_c, 0, 64, 34
1, 82103, Note_on_c, 0, 69, 0
1, 82103, Note_on_c, 0, 64, 0
1, 82103, Note_on_c, 0, 66, 40
1, 82181, Note_on_c, 0, 66, 0
1, 82181, Note_on_c, 0, 64, 37
1, 82260, Note_on_c, 0, 81, 57
1, 82260, Note_on_c, 0, 64, 0
1, 82260, Note_on_c, 0, 63, 40
1, 82340, Note_on_c, 0, 81, 0
1, 82340, Note_on_c, 0, 63, 0
1, 82340, Note_on_c, 0, 64, 40
1, 82421, Note_on_c, 0, 83, 63
1, 82421, Note_on_c, 0, 64, 0
1, 82421, Note_on_c, 0, 62, 47
1, 82500, Note_on_c, 0, 83, 0
1, 82500, Note_on_c, 0, 62, 0
1, 82500, Note_on_c, 0, 64, 39
1, 82578, Note_on_c, 0, 81, 58
1, 82578, Note_on_c, 0, 64, 0
1, 82578, Note_on_c, 0, 62, 41
1, 82656, Note_on_c, 0, 81, 0
1, 82656, Note_on_c, 0, 62, 0
1, 82656, Note_on_c, 0, 64, 39
1, 82733, Note_on_c, 0, 80, 63
1, 82733, Note_on_c, 0, 64, 0
1, 82733, Note_on_c, 0, 62, 49
1, 82810, Note_on_c, 0, 80, 0
1, 82810, Note_on_c, 0, 62, 0
1, 82810, Note_on_c, 0, 64, 39
1, 82887, Note_on_c, 0, 76, 58
1, 82887, Note_on_c, 0, 64, 0
1, 82887, Note_on_c, 0, 62, 41
1, 82968, Note_on_c, 0, 76, 0
1, 82968, Note_on_c, 0, 62, 0
1, 82968, Note_on_c, 0, 64, 39
1, 83050, Note_on_c, 0, 81, 60
1, 83050, Note_on_c, 0, 64, 0
1, 83050, Note_on_c, 0, 61, 39
1, 83132, Note_on_c, 0, 61, 0
1, 83132, Note_on_c, 0, 64, 35
1, 83215, Note_on_c, 0, 64, 0
1, 83215, Note_on_c, 0, 63, 37
1, 83292, Note_on_c, 0, 63, 0
1, 83292, Note_on_c, 0, 64, 34
1, 83369, Note_on_c, 0, 81, 0
1, 83369, Note_on_c, 0, 64, 0
1, 83369, Note_on_c, 0, 66, 40
1, 83448, Note_on_c, 0, 66, 0
1, 83448, Note_on_c, 0, 64, 37
1, 83527, Note_on_c, 0, 45, 57
1, 83527, Note_on_c, 0, 64, 0
1, 83527, Note_on_c, 0, 63, 40
1, 83608, Note_on_c, 0, 45, 0
1, 83608, Note_on_c, 0, 63, 0
1, 83608, Note_on_c, 0, 64, 40
1, 83689, Note_on_c, 0, 47, 63
1, 83689, Note_on_c, 0, 64, 0
1, 83689, Note_on_c, 0, 62, 47
1, 83769, Note_on_c, 0, 47, 0
1, 83769, Note_on_c, 0, 62, 0
1, 83769, Note_on_c, 0, 64, 39
1, 83849, Note_on_c, 0, 45, 58
1, 83849, Note_on_c, 0, 64, 0
1, 83849, Note_on_c, 0, 62, 41
1, 83927, Note_on_c, 0, 45, 0
1, 83927, Note_on_c, 0, 62, 0
1, 83927, Note_on_c, 0, 64, 39
1, 84005, Note_on_c, 0, 44, 60
1, 84005, Note_on_c, 0, 64, 0
1, 84005, Note_on_c, 0, 62, 49
1, 84083, Note_on_c, 0, 44, 0
1, 84083, Note_on_c, 0, 62, 0
1, 84083, Note_on_c, 0, 64, 39
1, 84161, Note_on_c, 0, 40, 58
1, 84161, Note_on_c, 0, 64, 0
1, 84161, Note_on_c, 0, 62, 41
1, 84243, Note_on_c, 0, 40, 0
1, 84243, Note_on_c, 0, 62, 0
1, 84243, Note_on_c, 0, 64, 39
1, 84324, Note_on_c, 0, 45, 60
1, 84324, Note_on_c, 0, 64, 0
1, 84324, Note_on_c, 0, 61, 41
1, 84650, Note_on_c, 0, 45, 0
1, 84650, Note_on_c, 0, 76, 50
1, 84650, Note_on_c, 0, 61, 0
1, 84653, Note_on_c, 0, 61, 35
1, 84687, Control_c, 0, 64, 127
1, 84730, Note_on_c, 0, 61, 0
1, 84730, Note_on_c, 0, 69, 29
1, 84809, Note_on_c, 0, 69, 0
1, 84809, Note_on_c, 0, 61, 29
1, 84888, Note_on_c, 0, 61, 0
1, 84888, Note_on_c, 0, 69, 29
1, 84967, Note_on_c, 0, 76, 0
1, 84967, Note_on_c, 0, 74, 47
1, 84967, Note_on_c, 0, 69, 0
1, 84970, Note_on_c, 0, 59, 35
1, 84975, Control_c, 0, 64, 0
1, 85048, Note_on_c, 0, 59, 0
1, 85048, Note_on_c, 0, 69, 30
1, 85052, Control_c, 0, 64, 127
1, 85128, Note_on_c, 0, 69, 0
1, 85128, Note_on_c, 0, 59, 30
1, 85208, Note_on_c, 0, 59, 0
1, 85208, Note_on_c, 0, 69, 30
1, 85288, Note_on_c, 0, 74, 0
1, 85288, Note_on_c, 0, 73, 46
1, 85288, Note_on_c, 0, 69, 0
1, 85291, Note_on_c, 0, 57, 35
1, 85297, Control_c, 0, 64, 0
1, 85372, Note_on_c, 0, 57, 0
1, 85372, Note_on_c, 0, 69, 31
1, 85382, Control_c, 0, 64, 127
1, 85456, Note_on_c, 0, 69, 0
1, 85456, Note_on_c, 0, 57, 31
1, 85540, Note_on_c, 0, 57, 0
1, 85540, Note_on_c, 0, 69, 31
1, 85624, Note_on_c, 0, 73, 0
1, 85624, Note_on_c, 0, 78, 50
1, 85624, Note_on_c, 0, 69, 0
1, 85627, Note_on_c, 0, 62, 35
1, 85627, Control_c, 0, 64, 0
1, 85646, Control_c, 0, 64, 127
1, 85705, Note_on_c, 0, 62, 0
1, 85705, Note_on_c, 0, 69, 30
1, 85786, Note_on_c, 0, 69, 0
1, 85786, Note_on_c, 0, 68, 30
1, 85867, Note_on_c, 0, 78, 0
1, 85867, Note_on_c, 0, 80, 45
1, 85867, Note_on_c, 0, 68, 0
1, 85870, Note_on_c, 0, 69, 30
1, 85897, Note_on_c, 0, 80, 0
1, 85897, Note_on_c, 0, 78, 45
1, 85926, Note_on_c, 0, 78, 0
1, 85926, Note_on_c, 0, 76, 45
1, 85956, Note_on_c, 0, 78, 50
1, 85956, Note_on_c, 0, 76, 0
1, 85956, Note_on_c, 0, 69, 0
1, 85959, Note_on_c, 0, 62, 35
1, 85959, Control_c, 0, 64, 0
1, 86036, Note_on_c, 0, 78, 0
1, 86036, Note_on_c, 0, 62, 0
1, 86036, Note_on_c, 0, 69, 30
1, 86117, Note_on_c, 0, 80, 47
1, 86117, Note_on_c, 0, 69, 0
1, 86117, Note_on_c, 0, 68, 30
1, 86201, Note_on_c, 0, 80, 0
1, 86201, Note_on_c, 0, 68, 0
1, 86201, Note_on_c, 0, 69, 30
1, 86285, Note_on_c, 0, 83, 50
1, 86285, Note_on_c, 0, 69, 0
1, 86285, Note_on_c, 0, 62, 30
1, 86298, Control_c, 0, 64, 127
1, 86364, Note_on_c, 0, 62, 0
1, 86364, Note_on_c, 0, 69, 32
1, 86444, Note_on_c, 0, 83, 0
1, 86444, Note_on_c, 0, 81, 45
1, 86444, Note_on_c, 0, 69, 0
1, 86447, Note_on_c, 0, 68, 32
1, 86452, Control_c, 0, 64, 0
1, 86484, Control_c, 0, 64, 127
1, 86524, Note_on_c, 0, 68, 0
1, 86524, Note_on_c, 0, 69, 32
1, 86604, Note_on_c, 0, 81, 0
1, 86604, Note_on_c, 0, 80, 47
1, 86604, Note_on_c, 0, 69, 0
1, 86607, Note_on_c, 0, 62, 34
1, 86610, Control_c, 0, 64, 0
1, 86644, Control_c, 0, 64, 127
1, 86683, Note_on_c, 0, 62, 0
1, 86683, Note_on_c, 0, 69, 30
1, 86763, Note_on_c, 0, 80, 0
1, 86763, Note_on_c, 0, 78, 45
1, 86763, Note_on_c, 0, 69, 0
1, 86766, Note_on_c, 0, 68, 30
1, 86771, Control_c, 0, 64, 0
1, 86805, Control_c, 0, 64, 127
1, 86850, Note_on_c, 0, 68, 0
1, 86850, Note_on_c, 0, 69, 30
1, 86936, Note_on_c, 0, 78, 0
1, 86936, Note_on_c, 0, 76, 50
1, 86936, Note_on_c, 0, 69, 0
1, 86939, Note_on_c, 0, 61, 37
1, 86939, Control_c, 0, 64, 0
1, 87021, Note_on_c, 0, 61, 0
1, 87021, Note_on_c, 0, 69, 37
1, 87107, Note_on_c, 0, 76, 0
1, 87107, Note_on_c, 0, 69, 0
1, 87107, Note_on_c, 0, 68, 28
1, 87192, Note_on_c, 0, 68, 0
1, 87192, Note_on_c, 0, 69, 28
1, 87277, Note_on_c, 0, 76, 60
1, 87277, Note_on_c, 0, 69, 0
1, 87277, Note_on_c, 0, 61, 45
1, 87314, Control_c, 0, 64, 127
1, 87356, Note_on_c, 0, 61, 0
1, 87356, Note_on_c, 0, 69, 37
1, 87435, Note_on_c, 0, 69, 0
1, 87435, Note_on_c, 0, 61, 37
1, 87515, Note_on_c, 0, 61, 0
1, 87515, Note_on_c, 0, 69, 37
1, 87594, Note_on_c, 0, 76, 0
1, 87594, Note_on_c, 0, 74, 60
1, 87594, Note_on_c, 0, 69, 0
1, 87597, Note_on_c, 0, 59, 45
1, 87602, Control_c, 0, 64, 0
1, 87674, Note_on_c, 0, 59, 0
1, 87674, Note_on_c, 0, 69, 39
1, 87679, Control_c, 0, 64, 127
1, 87754, Note_on_c, 0, 69, 0
1, 87754, Note_on_c, 0, 59, 39
1, 87835, Note_on_c, 0, 59, 0
1, 87835, Note_on_c, 0, 69, 39
1, 87915, Note_on_c, 0, 74, 0
1, 87915, Note_on_c, 0, 73, 59
1, 87915, Note_on_c, 0, 69, 0
1, 87918, Note_on_c, 0, 57, 45
1, 87924, Control_c, 0, 64, 0
1, 87999, Note_on_c, 0, 57, 0
1, 87999, Note_on_c, 0, 69, 40
1, 88009, Control_c, 0, 64, 127
1, 88083, Note_on_c, 0, 69, 0
1, 88083, Note_on_c, 0, 57, 40
1, 88167, Note_on_c, 0, 57, 0
1, 88167, Note_on_c, 0, 69, 40
1, 88251, Note_on_c, 0, 73, 0
1, 88251, Note_on_c, 0, 71, 68
1, 88251, Note_on_c, 0, 69, 0
1, 88254, Note_on_c, 0, 50, 45
1, 88254, Control_c, 0, 64, 0
1, 88273, Control_c, 0, 64, 127
1, 88332, Note_on_c, 0, 50, 0
1, 88332, Note_on_c, 0, 59, 39
1, 88413, Note_on_c, 0, 59, 0
1, 88413, Note_on_c, 0, 54, 39
1, 88494, Note_on_c, 0, 71, 0
1, 88494, Note_on_c, 0, 78, 53
1, 88494, Note_on_c, 0, 54, 0
1, 88497, Note_on_c, 0, 59, 39
1, 88583, Note_on_c, 0, 78, 0
1, 88583, Note_on_c, 0, 76, 60
1, 88583, Note_on_c, 0, 59, 0
1, 88586, Note_on_c, 0, 50, 45
1, 88586, Control_c, 0, 64, 0
1, 88614, Control_c, 0, 64, 127
1, 88663, Note_on_c, 0, 76, 0
1, 88663, Note_on_c, 0, 74, 58
1, 88663, Note_on_c, 0, 50, 0
1, 88666, Note_on_c, 0, 59, 39
1, 88743, Note_on_c, 0, 74, 0
1, 88743, Note_on_c, 0, 73, 58
1, 88743, Note_on_c, 0, 59, 0
1, 88746, Note_on_c, 0, 54, 39
1, 88827, Note_on_c, 0, 73, 0
1, 88827, Note_on_c, 0, 71, 58
1, 88827, Note_on_c, 0, 54, 0
1, 88830, Note_on_c, 0, 59, 39
1, 88911, Note_on_c, 0, 71, 0
1, 88911, Note_on_c, 0, 69, 63
1, 88911, Note_on_c, 0, 59, 0
1, 88914, Note_on_c, 0, 52, 39
1, 88919, Control_c, 0, 64, 0
1, 88965, Control_c, 0, 64, 127
1, 88991, Note_on_c, 0, 52, 0
1, 88991, Note_on_c, 0, 61, 41
1, 89071, Note_on_c, 0, 61, 0
1, 89071, Note_on_c, 0, 57, 41
1, 89151, Note_on_c, 0, 57, 0
1, 89151, Note_on_c, 0, 61, 41
1, 89230, Note_on_c, 0, 69, 0
1, 89230, Note_on_c, 0, 71, 55
1, 89230, Note_on_c, 0, 61, 0
1, 89233, Note_on_c, 0, 52, 44
1, 89237, Control_c, 0, 64, 0
1, 89271, Note_on_c, 0, 71, 0
1, 89271, Note_on_c, 0, 73, 49
1, 89271, Control_c, 0, 64, 127
1, 89313, Note_on_c, 0, 73, 0
1, 89313, Note_on_c, 0, 71, 56
1, 89313, Note_on_c, 0, 52, 0
1, 89316, Note_on_c, 0, 62, 39
1, 89355, Note_on_c, 0, 71, 0
1, 89355, Note_on_c, 0, 73, 50
1, 89396, Note_on_c, 0, 73, 0
1, 89396, Note_on_c, 0, 71, 56
1, 89396, Note_on_c, 0, 62, 0
1, 89399, Note_on_c, 0, 56, 39
1, 89451, Note_on_c, 0, 71, 0
1, 89451, Note_on_c, 0, 69, 48
1, 89480, Note_on_c, 0, 56, 0
1, 89480, Note_on_c, 0, 62, 39
1, 89509, Note_on_c, 0, 69, 0
1, 89509, Note_on_c, 0, 71, 48
1, 89566, Note_on_c, 0, 71, 0
1, 89566, Note_on_c, 0, 69, 66
1, 89566, Note_on_c, 0, 62, 0
1, 89569, Note_on_c, 0, 57, 48
1, 89569, Control_c, 0, 64, 0
1, 89646, Note_on_c, 0, 57, 0
1, 89646, Note_on_c, 0, 64, 42
1, 89726, Note_on_c, 0, 69, 0
1, 89726, Note_on_c, 0, 64, 0
1, 89726, Note_on_c, 0, 61, 36
1, 89809, Note_on_c, 0, 61, 0
1, 89809, Note_on_c, 0, 64, 36
1, 89910, Note_on_c, 0, 76, 50
1, 89910, Note_on_c, 0, 64, 0
1, 89910, Note_on_c, 0, 61, 35
1, 89947, Control_c, 0, 64, 127
1, 89990, Note_on_c, 0, 61, 0
1, 89990, Note_on_c, 0, 69, 29
1, 90069, Note_on_c, 0, 69, 0
1, 90069, Note_on_c, 0, 61, 29
1, 90148, Note_on_c, 0, 61, 0
1, 90148, Note_on_c, 0, 69, 29
1, 90227, Note_on_c, 0, 76, 0
1, 90227, Note_on_c, 0, 74, 47
1, 90227, Note_on_c, 0, 69, 0
1, 90230, Note_on_c, 0, 59, 35
1, 90235, Control_c, 0, 64, 0
1, 90308, Note_on_c, 0, 59, 0
1, 90308, Note_on_c, 0, 69, 30
1, 90312, Control_c, 0, 64, 127
1, 90388, Note_on_c, 0, 69, 0
1, 90388, Note_on_c, 0, 59, 30
1, 90468, Note_on_c, 0, 59, 0
1, 90468, Note_on_c, 0, 69, 30
1, 90549, Note_on_c, 0, 74, 0
1, 90549, Note_on_c, 0, 73, 46
1, 90549, Note_on_c, 0, 69, 0
1, 90552, Note_on_c, 0, 57, 35
1, 90557, Control_c, 0, 64, 0
1, 90632, Note_on_c, 0, 57, 0
1, 90632, Note_on_c, 0, 69, 31
1, 90642, Control_c, 0, 64, 127
1, 90716, Note_on_c, 0, 69, 0
1, 90716, Note_on_c, 0, 57, 31
1, 90800, Note_on_c, 0, 57, 0
1, 90800, Note_on_c, 0, 69, 31
1, 90884, Note_on_c, 0, 73, 0
1, 90884, Note_on_c, 0, 78, 50
1, 90884, Note_on_c, 0, 69, 0
1, 90887, Note_on_c, 0, 62, 35
1, 90887, Control_c, 0, 64, 0
1, 90907, Control_c, 0, 64, 127
1, 90965, Note_on_c, 0, 62, 0
1, 90965, Note_on_c, 0, 69, 30
1, 91046, Note_on_c, 0, 69, 0
1, 91046, Note_on_c, 0, 68, 30
1, 91127, Note_on_c, 0, 78, 0
1, 91127, Note_on_c, 0, 80, 45
1, 91127, Note_on_c, 0, 68, 0
1, 91130, Note_on_c, 0, 69, 30
1, 91157, Note_on_c, 0, 80, 0
1, 91157, Note_on_c, 0, 78, 45
1, 91186, Note_on_c, 0, 78, 0
1, 91186, Note_on_c, 0, 76, 45
1, 91216, Note_on_c, 0, 78, 50
1, 91216, Note_on_c, 0, 76, 0
1, 91216, Note_on_c, 0, 69, 0
1, 91219, Note_on_c, 0, 62, 35
1, 91219, Control_c, 0, 64, 0
1, 91297, Note_on_c, 0, 78, 0
1, 91297, Note_on_c, 0, 62, 0
1, 91297, Note_on_c, 0, 69, 30
1, 91377, Note_on_c, 0, 80, 47
1, 91377, Note_on_c, 0, 69, 0
1, 91377, Note_on_c, 0, 68, 30
1, 91461, Note_on_c, 0, 80, 0
1, 91461, Note_on_c, 0, 68, 0
1, 91461, Note_on_c, 0, 69, 30
1, 91545, Note_on_c, 0, 83, 50
1, 91545, Note_on_c, 0, 69, 0
1, 91545, Note_on_c, 0, 62, 30
1, 91558, Control_c, 0, 64, 127
1, 91625, Note_on_c, 0, 62, 0
1, 91625, Note_on_c, 0, 69, 32
1, 91704, Note_on_c, 0, 83, 0
1, 91704, Note_on_c, 0, 81, 45
1, 91704, Note_on_c, 0, 69, 0
1, 91707, Note_on_c, 0, 68, 32
1, 91712, Control_c, 0, 64, 0
1, 91744, Control_c, 0, 64, 127
1, 91784, Note_on_c, 0, 68, 0
1, 91784, Note_on_c, 0, 69, 32
1, 91864, Note_on_c, 0, 81, 0
1, 91864, Note_on_c, 0, 80, 47
1, 91864, Note_on_c, 0, 69, 0
1, 91867, Note_on_c, 0, 62, 34
1, 91870, Control_c, 0, 64, 0
1, 91904, Control_c, 0, 64, 127
1, 91944, Note_on_c, 0, 62, 0
1, 91944, Note_on_c, 0, 69, 30
1, 92023, Note_on_c, 0, 80, 0
1, 92023, Note_on_c, 0, 78, 45
1, 92023, Note_on_c, 0, 69, 0
1, 92026, Note_on_c, 0, 68, 30
1, 92031, Control_c, 0, 64, 0
1, 92065, Control_c, 0, 64, 127
1, 92110, Note_on_c, 0, 68, 0
1, 92110, Note_on_c, 0, 69, 30
1, 92196, Note_on_c, 0, 78, 0
1, 92196, Note_on_c, 0, 76, 50
1, 92196, Note_on_c, 0, 69, 0
1, 92199, Note_on_c, 0, 61, 37
1, 92199, Control_c, 0, 64, 0
1, 92282, Note_on_c, 0, 61, 0
1, 92282, Note_on_c, 0, 69, 37
1, 92367, Note_on_c, 0, 76, 0
1, 92367, Note_on_c, 0, 69, 0
1, 92367, Note_on_c, 0, 68, 28
1, 92452, Note_on_c, 0, 68, 0
1, 92452, Note_on_c, 0, 69, 28
1, 92537, Note_on_c, 0, 76, 60
1, 92537, Note_on_c, 0, 69, 0
1, 92537, Note_on_c, 0, 61, 45
1, 92574, Control_c, 0, 64, 127
1, 92616, Note_on_c, 0, 61, 0
1, 92616, Note_on_c, 0, 69, 37
1, 92696, Note_on_c, 0, 69, 0
1, 92696, Note_on_c, 0, 61, 37
1, 92775, Note_on_c, 0, 61, 0
1, 92775, Note_on_c, 0, 69, 37
1, 92854, Note_on_c, 0, 76, 0
1, 92854, Note_on_c, 0, 74, 60
1, 92854, Note_on_c, 0, 69, 0
1, 92857, Note_on_c, 0, 59, 45
1, 92862, Control_c, 0, 64, 0
1, 92934, Note_on_c, 0, 59, 0
1, 92934, Note_on_c, 0, 69, 39
1, 92939, Control_c, 0, 64, 127
1, 93015, Note_on_c, 0, 69, 0
1, 93015, Note_on_c, 0, 59, 39
1, 93095, Note_on_c, 0, 59, 0
1, 93095, Note_on_c, 0, 69, 39
1, 93175, Note_on_c, 0, 74, 0
1, 93175, Note_on_c, 0, 73, 59
1, 93175, Note_on_c, 0, 69, 0
1, 93178, Note_on_c, 0, 57, 45
1, 93184, Control_c, 0, 64, 0
1, 93259, Note_on_c, 0, 57, 0
1, 93259, Note_on_c, 0, 69, 40
1, 93269, Control_c, 0, 64, 127
1, 93343, Note_on_c, 0, 69, 0
1, 93343, Note_on_c, 0, 57, 40
1, 93427, Note_on_c, 0, 57, 0
1, 93427, Note_on_c, 0, 69, 40
1, 93511, Note_on_c, 0, 73, 0
1, 93511, Note_on_c, 0, 71, 68
1, 93511, Note_on_c, 0, 69, 0
1, 93514, Note_on_c, 0, 50, 45
1, 93514, Control_c, 0, 64, 0
1, 93533, Control_c, 0, 64, 127
1, 93592, Note_on_c, 0, 50, 0
1, 93592, Note_on_c, 0, 59, 39
1, 93673, Note_on_c, 0, 59, 0
1, 93673, Note_on_c, 0, 54, 39
1, 93754, Note_on_c, 0, 71, 0
1, 93754, Note_on_c, 0, 78, 53
1, 93754, Note_on_c, 0, 54, 0
1, 93757, Note_on_c, 0, 59, 39
1, 93843, Note_on_c, 0, 78, 0
1, 93843, Note_on_c, 0, 76, 60
1, 93843, Note_on_c, 0, 59, 0
1, 93846, Note_on_c, 0, 50, 45
1, 93846, Control_c, 0, 64, 0
1, 93874, Control_c, 0, 64, 127
1, 93923, Note_on_c, 0, 76, 0
1, 93923, Note_on_c, 0, 74, 58
1, 93923, Note_on_c, 0, 50, 0
1, 93926, Note_on_c, 0, 59, 39
1, 94004, Note_on_c, 0, 74, 0
1, 94004, Note_on_c, 0, 73, 58
1, 94004, Note_on_c, 0, 59, 0
1, 94007, Note_on_c, 0, 54, 39
1, 94087, Note_on_c, 0, 73, 0
1, 94087, Note_on_c, 0, 71, 58
1, 94087, Note_on_c, 0, 54, 0
1, 94090, Note_on_c, 0, 59, 39
1, 94171, Note_on_c, 0, 71, 0
1, 94171, Note_on_c, 0, 69, 63
1, 94171, Note_on_c, 0, 59, 0
1, 94174, Note_on_c, 0, 52, 39
1, 94179, Control_c, 0, 64, 0
1, 94225, Control_c, 0, 64, 127
1, 94251, Note_on_c, 0, 52, 0
1, 94251, Note_on_c, 0, 61, 41
1, 94331, Note_on_c, 0, 61, 0
1, 94331, Note_on_c, 0, 57, 41
1, 94411, Note_on_c, 0, 57, 0
1, 94411, Note_on_c, 0, 61, 41
1, 94490, Note_on_c, 0, 69, 0
1, 94490, Note_on_c, 0, 71, 55
1, 94490, Note_on_c, 0, 61, 0
1, 94493, Note_on_c, 0, 52, 44
1, 94497, Control_c, 0, 64, 0
1, 94531, Note_on_c, 0, 71, 0
1, 94531, Note_on_c, 0, 73, 49
1, 94531, Control_c, 0, 64, 127
1, 94573, Note_on_c, 0, 73, 0
1, 94573, Note_on_c, 0, 71, 56
1, 94573, Note_on_c, 0, 52, 0
1, 94576, Note_on_c, 0, 62, 39
1, 94615, Note_on_c, 0, 71, 0
1, 94615, Note_on_c, 0, 73, 50
1, 94656, Note_on_c, 0, 73, 0
1, 94656, Note_on_c, 0, 71, 56
1, 94656, Note_on_c, 0, 62, 0
1, 94659, Note_on_c, 0, 56, 39
1, 94711, Note_on_c, 0, 71, 0
1, 94711, Note_on_c, 0, 69, 48
1, 94740, Note_on_c, 0, 56, 0
1, 94740, Note_on_c, 0, 62, 39
1, 94769, Note_on_c, 0, 69, 0
1, 94769, Note_on_c, 0, 71, 48
1, 94826, Note_on_c, 0, 71, 0
1, 94826, Note_on_c, 0, 69, 66
1, 94826, Note_on_c, 0, 62, 0
1, 94829, Note_on_c, 0, 57, 45
1, 94829, Note_on_c, 0, 61, 54
1, 94829, Control_c, 0, 64, 0
1, 94875, Control_c, 0, 64, 127
1, 94906, Note_on_c, 0, 69, 0
1, 94906, Note_on_c, 0, 64, 59
1, 94987, Note_on_c, 0, 64, 0
1, 94987, Note_on_c, 0, 69, 66
1, 95067, Note_on_c, 0, 69, 0
1, 95067, Note_on_c, 0, 73, 58
1, 95147, Note_on_c, 0, 73, 0
1, 95147, Note_on_c, 0, 76, 66
1, 95147, Note_on_c, 0, 61, 0
1, 95150, Note_on_c, 0, 57, 0
1, 95228, Note_on_c, 0, 76, 0
1, 95228, Note_on_c, 0, 73, 60
1, 95308, Note_on_c, 0, 73, 0
1, 95308, Note_on_c, 0, 74, 66
1, 95308, Note_on_c, 0, 56, 46
1, 95311, Note_on_c, 0, 52, 46
1, 95311, Note_on_c, 0, 59, 55
1, 95320, Control_c, 0, 64, 0
1, 95392, Note_on_c, 0, 74, 0
1, 95392, Note_on_c, 0, 71, 59
1, 95392, Note_on_c, 0, 59, 0
1, 95395, Note_on_c, 0, 52, 0
1, 95395, Note_on_c, 0, 56, 0
1, 95477, Note_on_c, 0, 71, 0
1, 95477, Note_on_c, 0, 69, 66
1, 95477, Note_on_c, 0, 57, 45
1, 95480, Note_on_c, 0, 61, 54
1, 95484, Control_c, 0, 64, 0
1, 95534, Control_c, 0, 64, 127
1, 95557, Note_on_c, 0, 69, 0
1, 95557, Note_on_c, 0, 64, 59
1, 95638, Note_on_c, 0, 64, 0
1, 95638, Note_on_c, 0, 69, 66
1, 95718, Note_on_c, 0, 69, 0
1, 95718, Note_on_c, 0, 73, 58
1, 95798, Note_on_c, 0, 73, 0
1, 95798, Note_on_c, 0, 76, 66
1, 95798, Note_on_c, 0, 61, 0
1, 95801, Note_on_c, 0, 57, 0
1, 95879, Note_on_c, 0, 76, 0
1, 95879, Note_on_c, 0, 73, 60
1, 95963, Note_on_c, 0, 73, 0
1, 95963, Note_on_c, 0, 74, 66
1, 95963, Note_on_c, 0, 52, 46
1, 95966, Note_on_c, 0, 59, 55
1, 95966, Note_on_c, 0, 56, 46
1, 95983, Control_c, 0, 64, 0
1, 96048, Note_on_c, 0, 74, 0
1, 96048, Note_on_c, 0, 71, 59
1, 96048, Note_on_c, 0, 56, 0
1, 96051, Note_on_c, 0, 59, 0
1, 96051, Note_on_c, 0, 52, 0
1, 96132, Note_on_c, 0, 71, 0
1, 96132, Note_on_c, 0, 69, 75
1, 96132, Note_on_c, 0, 57, 52
1, 96135, Note_on_c, 0, 61, 63
1, 96135, Control_c, 0, 64, 127
1, 96277, Control_c, 0, 64, 0
1, 96311, Note_on_c, 0, 69, 0
1, 96311, Note_on_c, 0, 61, 0
1, 96311, Note_on_c, 0, 57, 0
1, 96489, Note_on_c, 0, 71, 64
1, 96489, Note_on_c, 0, 80, 75
1, 96489, Note_on_c, 0, 74, 64
1, 96492, Note_on_c, 0, 41, 52
1, 96492, Note_on_c, 0, 53, 63
1, 96552, Control_c, 0, 64, 127
1, 96677, Note_on_c, 0, 74, 0
1, 96677, Note_on_c, 0, 80, 0
1, 96677, Note_on_c, 0, 71, 0
1, 96680, Note_on_c, 0, 53, 0
1, 96680, Note_on_c, 0, 41, 0
1, 96703, Control_c, 0, 64, 0
1, 96864, Note_on_c, 0, 73, 64
1, 96864, Note_on_c, 0, 69, 64
1, 96864, Note_on_c, 0, 81, 75
1, 96867, Note_on_c, 0, 42, 52
1, 96867, Note_on_c, 0, 54, 63
1, 96945, Control_c, 0, 64, 127
1, 97052, Note_on_c, 0, 81, 0
1, 97052, Note_on_c, 0, 69, 0
1, 97052, Note_on_c, 0, 73, 0
1, 97055, Note_on_c, 0, 54, 0
1, 97055, Note_on_c, 0, 42, 0
1, 97123, Control_c, 0, 64, 0
1, 97614, Note_on_c, 0, 66, 39
1, 97614, Note_on_c, 0, 74, 47
1, 97614, Note_on_c, 0, 50, 40
1, 97617, Control_c, 0, 64, 127
1, 97779, Note_on_c, 0, 74, 0
1, 97779, Note_on_c, 0, 66, 0
1, 97779, Note_on_c, 0, 73, 43
1, 97782, Note_on_c, 0, 64, 36
1, 97788, Control_c, 0, 64, 0
1, 97868, Note_on_c, 0, 64, 0
1, 97868, Note_on_c, 0, 73, 0
1, 97957, Note_on_c, 0, 73, 47
1, 97957, Note_on_c, 0, 64, 39
1, 97964, Control_c, 0, 64, 127
1, 98126, Note_on_c, 0, 64, 0
1, 98126, Note_on_c, 0, 73, 0
1, 98126, Note_on_c, 0, 71, 42
1, 98129, Note_on_c, 0, 62, 35
1, 98137, Control_c, 0, 64, 0
1, 98217, Note_on_c, 0, 62, 0
1, 98217, Note_on_c, 0, 71, 0
1, 98309, Note_on_c, 0, 62, 39
1, 98309, Note_on_c, 0, 71, 47
1, 98309, Note_on_c, 0, 50, 0
1, 98312, Note_on_c, 0, 52, 40
1, 98317, Control_c, 0, 64, 127
1, 98482, Note_on_c, 0, 71, 0
1, 98482, Note_on_c, 0, 62, 0
1, 98482, Note_on_c, 0, 61, 34
1, 98485, Note_on_c, 0, 69, 41
1, 98491, Control_c, 0, 64, 0
1, 98579, Note_on_c, 0, 69, 0
1, 98579, Note_on_c, 0, 61, 0
1, 98676, Note_on_c, 0, 61, 39
1, 98676, Note_on_c, 0, 69, 47
1, 98707, Control_c, 0, 64, 127
1, 98861, Note_on_c, 0, 69, 0
1, 98861, Note_on_c, 0, 61, 0
1, 98861, Note_on_c, 0, 59, 34
1, 98864, Note_on_c, 0, 68, 41
1, 98873, Control_c, 0, 64, 0
1, 98969, Note_on_c, 0, 68, 0
1, 98969, Note_on_c, 0, 59, 0
1, 99076, Note_on_c, 0, 59, 37
1, 99076, Note_on_c, 0, 68, 54
1, 99076, Note_on_c, 0, 62, 45
1, 99079, Note_on_c, 0, 52, 0
1, 99079, Note_on_c, 0, 57, 39
1, 99079, Control_c, 0, 64, 127
1, 99485, Note_on_c, 0, 57, 0
1, 99485, Note_on_c, 0, 52, 39
1, 99954, Note_on_c, 0, 62, 0
1, 99954, Note_on_c, 0, 68, 0
1, 99954, Note_on_c, 0, 59, 0
1, 99957, Note_on_c, 0, 61, 35
1, 99957, Note_on_c, 0, 69, 42
1, 99957, Note_on_c, 0, 52, 0
1, 99960, Note_on_c, 0, 45, 35
1, 99980, Control_c, 0, 64, 0
1, 100382, Note_on_c, 0, 69, 0
1, 100382, Note_on_c, 0, 61, 0
1, 100382, Note_on_c, 0, 45, 0
1, 100811, Note_on_c, 0, 81, 47
1, 100967, Note_on_c, 0, 81, 0
1, 100967, Note_on_c, 0, 79, 43
1, 101049, Note_on_c, 0, 79, 0
1, 101131, Note_on_c, 0, 79, 47
1, 101287, Note_on_c, 0, 79, 0
1, 101287, Note_on_c, 0, 78, 42
1, 101369, Note_on_c, 0, 78, 0
1, 101452, Note_on_c, 0, 78, 51
1, 101608, Note_on_c, 0, 78, 0
1, 101608, Note_on_c, 0, 76, 45
1, 101690, Note_on_c, 0, 76, 0
1, 101772, Note_on_c, 0, 76, 55
1, 101929, Note_on_c, 0, 76, 0
1, 101929, Note_on_c, 0, 75, 50
1, 102014, Note_on_c, 0, 75, 0
1, 102100, Note_on_c, 0, 72, 62
1, 102100, Note_on_c, 0, 75, 62
1, 102100, Note_on_c, 0, 47, 44
1, 102103, Note_on_c, 0, 59, 44
1, 102252, Note_on_c, 0, 72, 0
1, 102252, Note_on_c, 0, 71, 55
1, 102334, Note_on_c, 0, 71, 0
1, 102416, Note_on_c, 0, 71, 61
1, 102569, Note_on_c, 0, 71, 0
1, 102569, Note_on_c, 0, 69, 53
1, 102651, Note_on_c, 0, 69, 0
1, 102734, Note_on_c, 0, 69, 58
1, 102888, Note_on_c, 0, 69, 0
1, 102888, Note_on_c, 0, 67, 49
1, 102971, Note_on_c, 0, 67, 0
1, 103055, Note_on_c, 0, 67, 58
1, 103212, Note_on_c, 0, 67, 0
1, 103212, Note_on_c, 0, 66, 44
1, 103295, Note_on_c, 0, 66, 0
1, 103377, Note_on_c, 0, 75, 0
1, 103377, Note_on_c, 0, 75, 47
1, 103377, Note_on_c, 0, 59, 0
1, 103380, Note_on_c, 0, 47, 0
1, 103540, Note_on_c, 0, 75, 0
1, 103540, Note_on_c, 0, 76, 43
1, 103616, Note_on_c, 0, 76, 0
1, 103692, Note_on_c, 0, 71, 43
1, 103692, Note_on_c, 0, 67, 36
1, 103854, Note_on_c, 0, 79, 43
1, 103854, Note_on_c, 0, 67, 0
1, 103854, Note_on_c, 0, 71, 0
1, 104015, Note_on_c, 0, 79, 0
1, 104015, Note_on_c, 0, 77, 47
1, 104180, Note_on_c, 0, 77, 0
1, 104180, Note_on_c, 0, 78, 43
1, 104258, Note_on_c, 0, 78, 0
1, 104336, Note_on_c, 0, 63, 36
1, 104336, Note_on_c, 0, 71, 43
1, 104497, Note_on_c, 0, 81, 43
1, 104497, Note_on_c, 0, 71, 0
1, 104497, Note_on_c, 0, 63, 0
1, 104658, Note_on_c, 0, 81, 0
1, 104658, Note_on_c, 0, 78, 57
1, 104658, Note_on_c, 0, 75, 57
1, 104661, Note_on_c, 0, 47, 69
1, 104811, Note_on_c, 0, 47, 0
1, 104811, Note_on_c, 0, 45, 62
1, 104895, Note_on_c, 0, 45, 0
1, 104979, Note_on_c, 0, 45, 67
1, 105132, Note_on_c, 0, 45, 0
1, 105132, Note_on_c, 0, 43, 59
1, 105215, Note_on_c, 0, 43, 0
1, 105298, Note_on_c, 0, 75, 0
1, 105298, Note_on_c, 0, 78, 0
1, 105298, Note_on_c, 0, 76, 51
1, 105301, Note_on_c, 0, 79, 51
1, 105301, Note_on_c, 0, 43, 61
1, 105455, Note_on_c, 0, 43, 0
1, 105455, Note_on_c, 0, 42, 52
1, 105538, Note_on_c, 0, 42, 0
1, 105621, Note_on_c, 0, 79, 0
1, 105621, Note_on_c, 0, 76, 0
1, 105621, Note_on_c, 0, 42, 51
1, 105777, Note_on_c, 0, 42, 0
1, 105777, Note_on_c, 0, 40, 45
1, 105861, Note_on_c, 0, 40, 0
1, 105945, Note_on_c, 0, 79, 47
1, 106096, Note_on_c, 0, 79, 0
1, 106096, Note_on_c, 0, 78, 43
1, 106177, Note_on_c, 0, 78, 0
1, 106259, Note_on_c, 0, 78, 47
1, 106412, Note_on_c, 0, 78, 0
1, 106412, Note_on_c, 0, 76, 42
1, 106493, Note_on_c, 0, 76, 0
1, 106575, Note_on_c, 0, 76, 51
1, 106728, Note_on_c, 0, 76, 0
1, 106728, Note_on_c, 0, 74, 45
1, 106810, Note_on_c, 0, 74, 0
1, 106892, Note_on_c, 0, 74, 55
1, 107048, Note_on_c, 0, 74, 0
1, 107048, Note_on_c, 0, 73, 50
1, 107133, Note_on_c, 0, 73, 0
1, 107217, Note_on_c, 0, 73, 62
1, 107217, Note_on_c, 0, 70, 68
1, 107217, Note_on_c, 0, 45, 44
1, 107220, Note_on_c, 0, 57, 44
1, 107372, Note_on_c, 0, 70, 0
1, 107372, Note_on_c, 0, 69, 60
1, 107455, Note_on_c, 0, 69, 0
1, 107537, Note_on_c, 0, 69, 67
1, 107693, Note_on_c, 0, 69, 0
1, 107693, Note_on_c, 0, 67, 58
1, 107775, Note_on_c, 0, 67, 0
1, 107857, Note_on_c, 0, 67, 63
1, 108014, Note_on_c, 0, 67, 0
1, 108014, Note_on_c, 0, 66, 53
1, 108096, Note_on_c, 0, 66, 0
1, 108178, Note_on_c, 0, 66, 63
1, 108335, Note_on_c, 0, 66, 0
1, 108335, Note_on_c, 0, 64, 48
1, 108419, Note_on_c, 0, 64, 0
1, 108503, Note_on_c, 0, 73, 0
1, 108503, Note_on_c, 0, 73, 47
1, 108503, Note_on_c, 0, 57, 0
1, 108506, Note_on_c, 0, 45, 0
1, 108666, Note_on_c, 0, 73, 0
1, 108666, Note_on_c, 0, 74, 43
1, 108742, Note_on_c, 0, 74, 0
1, 108818, Note_on_c, 0, 66, 36
1, 108818, Note_on_c, 0, 69, 43
1, 108980, Note_on_c, 0, 78, 43
1, 108980, Note_on_c, 0, 69, 0
1, 108980, Note_on_c, 0, 66, 0
1, 109140, Note_on_c, 0, 78, 0
1, 109140, Note_on_c, 0, 75, 47
1, 109306, Note_on_c, 0, 75, 0
1, 109306, Note_on_c, 0, 76, 43
1, 109382, Note_on_c, 0, 76, 0
1, 109459, Note_on_c, 0, 69, 43
1, 109459, Note_on_c, 0, 61, 36
1, 109619, Note_on_c, 0, 79, 43
1, 109619, Note_on_c, 0, 61, 0
1, 109619, Note_on_c, 0, 69, 0
1, 109780, Note_on_c, 0, 79, 0
1, 109780, Note_on_c, 0, 76, 57
1, 109780, Note_on_c, 0, 73, 57
1, 109783, Note_on_c, 0, 45, 69
1, 109932, Note_on_c, 0, 45, 0
1, 109932, Note_on_c, 0, 43, 62
1, 110014, Note_on_c, 0, 43, 0
1, 110096, Note_on_c, 0, 43, 67
1, 110250, Note_on_c, 0, 43, 0
1, 110250, Note_on_c, 0, 42, 59
1, 110332, Note_on_c, 0, 42, 0
1, 110414, Note_on_c, 0, 73, 0
1, 110414, Note_on_c, 0, 76, 0
1, 110414, Note_on_c, 0, 74, 51
1, 110417, Note_on_c, 0, 78, 51
1, 110417, Note_on_c, 0, 42, 61
1, 110569, Note_on_c, 0, 42, 0
1, 110569, Note_on_c, 0, 40, 52
1, 110652, Note_on_c, 0, 40, 0
1, 110734, Note_on_c, 0, 78, 0
1, 110734, Note_on_c, 0, 74, 0
1, 110734, Note_on_c, 0, 40, 51
1, 110891, Note_on_c, 0, 40, 0
1, 110891, Note_on_c, 0, 38, 45
1, 110976, Note_on_c, 0, 38, 0
1, 111061, Note_on_c, 0, 78, 47
1, 111061, Note_on_c, 0, 62, 47
1, 111093, Control_c, 0, 64, 127
1, 111140, Note_on_c, 0, 78, 0
1, 111140, Note_on_c, 0, 86, 44
1, 111219, Note_on_c, 0, 86, 0
1, 111219, Note_on_c, 0, 78, 48
1, 111219, Note_on_c, 0, 62, 0
1, 111222, Note_on_c, 0, 61, 42
1, 111301, Note_on_c, 0, 78, 0
1, 111301, Note_on_c, 0, 86, 44
1, 111301, Note_on_c, 0, 61, 0
1, 111328, Control_c, 0, 64, 0
1, 111383, Note_on_c, 0, 86, 0
1, 111383, Note_on_c, 0, 78, 51
1, 111383, Note_on_c, 0, 61, 53
1, 111435, Control_c, 0, 64, 127
1, 111461, Note_on_c, 0, 78, 0
1, 111461, Note_on_c, 0, 86, 47
1, 111540, Note_on_c, 0, 86, 0
1, 111540, Note_on_c, 0, 78, 52
1, 111540, Note_on_c, 0, 61, 0
1, 111543, Note_on_c, 0, 59, 46
1, 111622, Note_on_c, 0, 78, 0
1, 111622, Note_on_c, 0, 86, 47
1, 111622, Note_on_c, 0, 59, 0
1, 111650, Control_c, 0, 64, 0
1, 111704, Note_on_c, 0, 86, 0
1, 111704, Note_on_c, 0, 78, 55
1, 111704, Note_on_c, 0, 59, 58
1, 111753, Control_c, 0, 64, 127
1, 111783, Note_on_c, 0, 78, 0
1, 111783, Note_on_c, 0, 86, 50
1, 111862, Note_on_c, 0, 86, 0
1, 111862, Note_on_c, 0, 78, 57
1, 111862, Note_on_c, 0, 59, 0
1, 111865, Note_on_c, 0, 57, 50
1, 111944, Note_on_c, 0, 78, 0
1, 111944, Note_on_c, 0, 86, 51
1, 111944, Note_on_c, 0, 57, 0
1, 111972, Control_c, 0, 64, 0
1, 112027, Note_on_c, 0, 86, 0
1, 112027, Note_on_c, 0, 78, 58
1, 112027, Note_on_c, 0, 57, 60
1, 112080, Control_c, 0, 64, 127
1, 112107, Note_on_c, 0, 78, 0
1, 112107, Note_on_c, 0, 86, 55
1, 112186, Note_on_c, 0, 86, 0
1, 112186, Note_on_c, 0, 78, 60
1, 112186, Note_on_c, 0, 57, 0
1, 112189, Note_on_c, 0, 56, 52
1, 112272, Note_on_c, 0, 78, 0
1, 112272, Note_on_c, 0, 86, 55
1, 112272, Note_on_c, 0, 56, 0
1, 112357, Note_on_c, 0, 86, 0
1, 112357, Note_on_c, 0, 76, 64
1, 112357, Note_on_c, 0, 56, 66
1, 112360, Note_on_c, 0, 44, 56
1, 112360, Control_c, 0, 64, 0
1, 112406, Control_c, 0, 64, 127
1, 112440, Note_on_c, 0, 76, 0
1, 112440, Note_on_c, 0, 86, 57
1, 112524, Note_on_c, 0, 86, 0
1, 112524, Note_on_c, 0, 76, 63
1, 112608, Note_on_c, 0, 76, 0
1, 112608, Note_on_c, 0, 86, 57
1, 112691, Note_on_c, 0, 86, 0
1, 112691, Note_on_c, 0, 76, 63
1, 112774, Note_on_c, 0, 76, 0
1, 112774, Note_on_c, 0, 86, 57
1, 112855, Note_on_c, 0, 86, 0
1, 112855, Note_on_c, 0, 76, 63
1, 112936, Note_on_c, 0, 76, 0
1, 112936, Note_on_c, 0, 86, 57
1, 113018, Note_on_c, 0, 86, 0
1, 113018, Note_on_c, 0, 76, 63
1, 113018, Note_on_c, 0, 44, 0
1, 113021, Note_on_c, 0, 56, 0
1, 113021, Note_on_c, 0, 58, 61
1, 113021, Note_on_c, 0, 46, 51
1, 113021, Control_c, 0, 64, 0
1, 113080, Control_c, 0, 64, 127
1, 113099, Note_on_c, 0, 76, 0
1, 113099, Note_on_c, 0, 85, 57
1, 113180, Note_on_c, 0, 85, 0
1, 113180, Note_on_c, 0, 76, 62
1, 113262, Note_on_c, 0, 76, 0
1, 113262, Note_on_c, 0, 85, 57
1, 113343, Note_on_c, 0, 85, 0
1, 113343, Note_on_c, 0, 76, 60
1, 113425, Note_on_c, 0, 76, 0
1, 113425, Note_on_c, 0, 85, 55
1, 113506, Note_on_c, 0, 85, 0
1, 113506, Note_on_c, 0, 76, 59
1, 113588, Note_on_c, 0, 76, 0
1, 113588, Note_on_c, 0, 85, 52
1, 113629, Control_c, 0, 64, 0
1, 113669, Note_on_c, 0, 85, 0
1, 113669, Note_on_c, 0, 74, 47
1, 113669, Note_on_c, 0, 46, 0
1, 113672, Note_on_c, 0, 58, 0
1, 113672, Note_on_c, 0, 59, 47
1, 113720, Control_c, 0, 64, 127
1, 113748, Note_on_c, 0, 74, 0
1, 113748, Note_on_c, 0, 85, 44
1, 113826, Note_on_c, 0, 85, 0
1, 113826, Note_on_c, 0, 74, 48
1, 113826, Note_on_c, 0, 57, 42
1, 113830, Note_on_c, 0, 59, 0
1, 113908, Note_on_c, 0, 74, 0
1, 113908, Note_on_c, 0, 85, 44
1, 113908, Note_on_c, 0, 57, 0
1, 113936, Control_c, 0, 64, 0
1, 113991, Note_on_c, 0, 85, 0
1, 113991, Note_on_c, 0, 74, 51
1, 113991, Note_on_c, 0, 57, 53
1, 114043, Control_c, 0, 64, 127
1, 114070, Note_on_c, 0, 74, 0
1, 114070, Note_on_c, 0, 85, 47
1, 114148, Note_on_c, 0, 85, 0
1, 114148, Note_on_c, 0, 74, 52
1, 114148, Note_on_c, 0, 57, 0
1, 114151, Note_on_c, 0, 55, 46
1, 114230, Note_on_c, 0, 74, 0
1, 114230, Note_on_c, 0, 85, 47
1, 114230, Note_on_c, 0, 55, 0
1, 114256, Control_c, 0, 64, 0
1, 114312, Note_on_c, 0, 85, 0
1, 114312, Note_on_c, 0, 74, 55
1, 114312, Note_on_c, 0, 55, 58
1, 114361, Control_c, 0, 64, 127
1, 114391, Note_on_c, 0, 74, 0
1, 114391, Note_on_c, 0, 83, 50
1, 114470, Note_on_c, 0, 83, 0
1, 114470, Note_on_c, 0, 74, 57
1, 114470, Note_on_c, 0, 55, 0
1, 114473, Note_on_c, 0, 54, 50
1, 114552, Note_on_c, 0, 74, 0
1, 114552, Note_on_c, 0, 83, 51
1, 114552, Note_on_c, 0, 54, 0
1, 114580, Control_c, 0, 64, 0
1, 114635, Note_on_c, 0, 83, 0
1, 114635, Note_on_c, 0, 74, 58
1, 114635, Note_on_c, 0, 54, 60
1, 114688, Control_c, 0, 64, 127
1, 114715, Note_on_c, 0, 74, 0
1, 114715, Note_on_c, 0, 83, 55
1, 114795, Note_on_c, 0, 83, 0
1, 114795, Note_on_c, 0, 74, 60
1, 114795, Note_on_c, 0, 54, 0
1, 114798, Note_on_c, 0, 53, 52
1, 114880, Note_on_c, 0, 74, 0
1, 114880, Note_on_c, 0, 83, 55
1, 114880, Note_on_c, 0, 53, 0
1, 114965, Note_on_c, 0, 83, 0
1, 114965, Note_on_c, 0, 73, 64
1, 114965, Note_on_c, 0, 41, 56
1, 114968, Note_on_c, 0, 53, 66
1, 114968, Control_c, 0, 64, 0
1, 115047, Note_on_c, 0, 73, 0
1, 115047, Note_on_c, 0, 83, 57
1, 115047, Control_c, 0, 64, 127
1, 115129, Note_on_c, 0, 83, 0
1, 115129, Note_on_c, 0, 73, 63
1, 115210, Note_on_c, 0, 73, 0
1, 115210, Note_on_c, 0, 83, 57
1, 115291, Note_on_c, 0, 83, 0
1, 115291, Note_on_c, 0, 73, 63
1, 115372, Note_on_c, 0, 73, 0
1, 115372, Note_on_c, 0, 83, 57
1, 115452, Note_on_c, 0, 83, 0
1, 115452, Note_on_c, 0, 73, 63
1, 115535, Note_on_c, 0, 73, 0
1, 115535, Note_on_c, 0, 83, 57
1, 115617, Note_on_c, 0, 83, 0
1, 115617, Note_on_c, 0, 73, 63
1, 115617, Note_on_c, 0, 53, 0
1, 115620, Note_on_c, 0, 41, 0
1, 115620, Note_on_c, 0, 42, 51
1, 115620, Note_on_c, 0, 54, 61
1, 115620, Control_c, 0, 64, 0
1, 115679, Control_c, 0, 64, 127
1, 115699, Note_on_c, 0, 73, 0
1, 115699, Note_on_c, 0, 81, 57
1, 115780, Note_on_c, 0, 81, 0
1, 115780, Note_on_c, 0, 73, 62
1, 115861, Note_on_c, 0, 73, 0
1, 115861, Note_on_c, 0, 81, 57
1, 115943, Note_on_c, 0, 81, 0
1, 115943, Note_on_c, 0, 73, 60
1, 116024, Note_on_c, 0, 73, 0
1, 116024, Note_on_c, 0, 81, 55
1, 116106, Note_on_c, 0, 81, 0
1, 116106, Note_on_c, 0, 73, 59
1, 116187, Note_on_c, 0, 73, 0
1, 116187, Note_on_c, 0, 81, 52
1, 116269, Note_on_c, 0, 81, 0
1, 116269, Note_on_c, 0, 81, 51
1, 116269, Note_on_c, 0, 71, 41
1, 116272, Note_on_c, 0, 54, 0
1, 116272, Note_on_c, 0, 42, 0
1, 116272, Note_on_c, 0, 55, 41
1, 116275, Control_c, 0, 64, 0
1, 116315, Control_c, 0, 64, 127
1, 116348, Note_on_c, 0, 55, 0
1, 116348, Note_on_c, 0, 62, 36
1, 116426, Note_on_c, 0, 81, 0
1, 116426, Note_on_c, 0, 79, 47
1, 116426, Note_on_c, 0, 62, 0
1, 116429, Note_on_c, 0, 59, 41
1, 116508, Note_on_c, 0, 59, 0
1, 116508, Note_on_c, 0, 62, 35
1, 116549, Note_on_c, 0, 79, 0
1, 116590, Note_on_c, 0, 71, 0
1, 116590, Note_on_c, 0, 79, 51
1, 116590, Note_on_c, 0, 62, 0
1, 116593, Note_on_c, 0, 55, 41
1, 116604, Control_c, 0, 64, 0
1, 116647, Control_c, 0, 64, 127
1, 116669, Note_on_c, 0, 55, 0
1, 116669, Note_on_c, 0, 62, 36
1, 116748, Note_on_c, 0, 79, 0
1, 116748, Note_on_c, 0, 78, 46
1, 116748, Note_on_c, 0, 62, 0
1, 116751, Note_on_c, 0, 59, 41
1, 116835, Note_on_c, 0, 59, 0
1, 116835, Note_on_c, 0, 62, 35
1, 116878, Note_on_c, 0, 78, 0
1, 116922, Note_on_c, 0, 86, 51
1, 116922, Note_on_c, 0, 77, 40
1, 116922, Note_on_c, 0, 62, 0
1, 116925, Note_on_c, 0, 55, 41
1, 116925, Control_c, 0, 64, 0
1, 116968, Control_c, 0, 64, 127
1, 117000, Note_on_c, 0, 55, 0
1, 117000, Note_on_c, 0, 62, 36
1, 117078, Note_on_c, 0, 86, 0
1, 117078, Note_on_c, 0, 85, 47
1, 117078, Note_on_c, 0, 62, 0
1, 117081, Note_on_c, 0, 59, 41
1, 117162, Note_on_c, 0, 59, 0
1, 117162, Note_on_c, 0, 62, 35
1, 117203, Note_on_c, 0, 85, 0
1, 117245, Note_on_c, 0, 77, 0
1, 117245, Note_on_c, 0, 85, 51
1, 117245, Note_on_c, 0, 62, 0
1, 117248, Note_on_c, 0, 55, 41
1, 117259, Control_c, 0, 64, 0
1, 117301, Control_c, 0, 64, 127
1, 117323, Note_on_c, 0, 55, 0
1, 117323, Note_on_c, 0, 62, 36
1, 117402, Note_on_c, 0, 85, 0
1, 117402, Note_on_c, 0, 83, 46
1, 117402, Note_on_c, 0, 62, 0
1, 117405, Note_on_c, 0, 59, 41
1, 117486, Note_on_c, 0, 59, 0
1, 117486, Note_on_c, 0, 62, 35
1, 117528, Note_on_c, 0, 83, 0
1, 117570, Note_on_c, 0, 79, 59
1, 117570, Note_on_c, 0, 82, 59
1, 117570, Note_on_c, 0, 62, 0
1, 117573, Note_on_c, 0, 54, 45
1, 117573, Control_c, 0, 64, 0
1, 117616, Control_c, 0, 64, 127
1, 117649, Note_on_c, 0, 54, 0
1, 117649, Note_on_c, 0, 61, 39
1, 117727, Note_on_c, 0, 79, 0
1, 117727, Note_on_c, 0, 78, 52
1, 117727, Note_on_c, 0, 61, 0
1, 117730, Note_on_c, 0, 58, 45
1, 117810, Note_on_c, 0, 58, 0
1, 117810, Note_on_c, 0, 61, 38
1, 117851, Note_on_c, 0, 78, 0
1, 117893, Note_on_c, 0, 78, 59
1, 117893, Note_on_c, 0, 61, 0
1, 117893, Note_on_c, 0, 54, 45
1, 117906, Control_c, 0, 64, 0
1, 117949, Control_c, 0, 64, 127
1, 117971, Note_on_c, 0, 54, 0
1, 117971, Note_on_c, 0, 61, 39
1, 118050, Note_on_c, 0, 78, 0
1, 118050, Note_on_c, 0, 76, 51
1, 118050, Note_on_c, 0, 61, 0
1, 118053, Note_on_c, 0, 58, 45
1, 118134, Note_on_c, 0, 58, 0
1, 118134, Note_on_c, 0, 61, 38
1, 118176, Note_on_c, 0, 76, 0
1, 118218, Note_on_c, 0, 82, 0
1, 118218, Note_on_c, 0, 74, 61
1, 118218, Note_on_c, 0, 83, 61
1, 118221, Note_on_c, 0, 61, 0
1, 118221, Note_on_c, 0, 53, 45
1, 118221, Control_c, 0, 64, 0
1, 118264, Control_c, 0, 64, 127
1, 118296, Note_on_c, 0, 53, 0
1, 118296, Note_on_c, 0, 62, 39
1, 118375, Note_on_c, 0, 74, 0
1, 118375, Note_on_c, 0, 73, 51
1, 118375, Note_on_c, 0, 62, 0
1, 118378, Note_on_c, 0, 56, 45
1, 118458, Note_on_c, 0, 56, 0
1, 118458, Note_on_c, 0, 62, 38
1, 118500, Note_on_c, 0, 73, 0
1, 118542, Note_on_c, 0, 73, 61
1, 118542, Note_on_c, 0, 62, 0
1, 118542, Note_on_c, 0, 53, 45
1, 118555, Control_c, 0, 64, 0
1, 118598, Control_c, 0, 64, 127
1, 118620, Note_on_c, 0, 53, 0
1, 118620, Note_on_c, 0, 62, 39
1, 118699, Note_on_c, 0, 73, 0
1, 118699, Note_on_c, 0, 71, 55
1, 118699, Note_on_c, 0, 62, 0
1, 118702, Note_on_c, 0, 56, 45
1, 118782, Note_on_c, 0, 56, 0
1, 118782, Note_on_c, 0, 62, 38
1, 118824, Note_on_c, 0, 71, 0
1, 118866, Note_on_c, 0, 83, 0
1, 118866, Note_on_c, 0, 67, 39
1, 118866, Note_on_c, 0, 76, 47
1, 118869, Note_on_c, 0, 62, 0
1, 118869, Note_on_c, 0, 54, 40
1, 118869, Control_c, 0, 64, 0
1, 118917, Control_c, 0, 64, 127
1, 119027, Note_on_c, 0, 76, 0
1, 119027, Note_on_c, 0, 67, 0
1, 119027, Note_on_c, 0, 74, 43
1, 119030, Note_on_c, 0, 66, 36
1, 119036, Control_c, 0, 64, 0
1, 119113, Note_on_c, 0, 66, 0
1, 119113, Note_on_c, 0, 74, 0
1, 119198, Note_on_c, 0, 66, 39
1, 119198, Note_on_c, 0, 74, 47
1, 119205, Control_c, 0, 64, 127
1, 119361, Note_on_c, 0, 74, 0
1, 119361, Note_on_c, 0, 66, 0
1, 119361, Note_on_c, 0, 73, 42
1, 119364, Note_on_c, 0, 64, 35
1, 119371, Control_c, 0, 64, 0
1, 119446, Note_on_c, 0, 64, 0
1, 119446, Note_on_c, 0, 73, 0
1, 119531, Note_on_c, 0, 73, 47
1, 119531, Note_on_c, 0, 64, 39
1, 119531, Note_on_c, 0, 54, 0
1, 119534, Note_on_c, 0, 42, 40
1, 119539, Control_c, 0, 64, 127
1, 119695, Note_on_c, 0, 64, 0
1, 119695, Note_on_c, 0, 73, 0
1, 119695, Note_on_c, 0, 71, 41
1, 119698, Note_on_c, 0, 62, 34
1, 119704, Control_c, 0, 64, 0
1, 119785, Note_on_c, 0, 62, 0
1, 119785, Note_on_c, 0, 71, 0
1, 119875, Note_on_c, 0, 71, 47
1, 119875, Note_on_c, 0, 62, 39
1, 119903, Control_c, 0, 64, 127
1, 120043, Note_on_c, 0, 62, 0
1, 120043, Note_on_c, 0, 71, 0
1, 120043, Note_on_c, 0, 61, 34
1, 120046, Note_on_c, 0, 70, 41
1, 120053, Control_c, 0, 64, 0
1, 120132, Note_on_c, 0, 70, 0
1, 120132, Note_on_c, 0, 61, 0
1, 120220, Note_on_c, 0, 64, 45
1, 120220, Note_on_c, 0, 70, 54
1, 120220, Note_on_c, 0, 61, 37
1, 120223, Note_on_c, 0, 42, 0
1, 120223, Note_on_c, 0, 47, 39
1, 120223, Control_c, 0, 64, 127
1, 120595, Note_on_c, 0, 47, 0
1, 120595, Note_on_c, 0, 42, 39
1, 121004, Note_on_c, 0, 61, 0
1, 121004, Note_on_c, 0, 70, 0
1, 121004, Note_on_c, 0, 64, 0
1, 121007, Note_on_c, 0, 62, 35
1, 121007, Note_on_c, 0, 71, 42
1, 121007, Note_on_c, 0, 42, 0
1, 121010, Note_on_c, 0, 35, 35
1, 121028, Control_c, 0, 64, 0
1, 121379, Note_on_c, 0, 71, 0
1, 121379, Note_on_c, 0, 62, 0
1, 121379, Note_on_c, 0, 35, 0
1, 121754, Note_on_c, 0, 71, 68
1, 121754, Note_on_c, 0, 66, 57
1, 121754, Note_on_c, 0, 62, 57
1, 121757, Note_on_c, 0, 47, 54
1, 121757, Note_on_c, 0, 59, 65
1, 121757, Control_c, 0, 64, 127
1, 122504, Note_on_c, 0, 62, 0
1, 122504, Note_on_c, 0, 66, 0
1, 122504, Note_on_c, 0, 71, 0
1, 122507, Note_on_c, 0, 62, 51
1, 122507, Note_on_c, 0, 66, 51
1, 122507, Note_on_c, 0, 72, 61
1, 122510, Note_on_c, 0, 59, 0
1, 122510, Note_on_c, 0, 47, 0
1, 122510, Note_on_c, 0, 45, 49
1, 122513, Note_on_c, 0, 57, 58
1, 122513, Control_c, 0, 64, 0
1, 122879, Note_on_c, 0, 72, 0
1, 122879, Note_on_c, 0, 66, 0
1, 122879, Note_on_c, 0, 62, 0
1, 122882, Note_on_c, 0, 57, 0
1, 122882, Note_on_c, 0, 45, 0
1, 123254, Note_on_c, 0, 71, 39
1, 123254, Note_on_c, 0, 74, 46
1, 123254, Note_on_c, 0, 55, 38
1, 123257, Note_on_c, 0, 43, 32
1, 123316, Control_c, 0, 64, 127
1, 123816, Note_on_c, 0, 74, 0
1, 123816, Note_on_c, 0, 75, 40
1, 124017, Note_on_c, 0, 75, 0
1, 124017, Note_on_c, 0, 71, 0
1, 124017, Note_on_c, 0, 72, 39
1, 124020, Note_on_c, 0, 76, 46
1, 124020, Note_on_c, 0, 43, 0
1, 124020, Note_on_c, 0, 55, 0
1, 124023, Note_on_c, 0, 54, 38
1, 124023, Note_on_c, 0, 42, 32
1, 124023, Control_c, 0, 64, 0
1, 124419, Note_on_c, 0, 76, 0
1, 124419, Note_on_c, 0, 72, 0
1, 124419, Note_on_c, 0, 42, 0
1, 124422, Note_on_c, 0, 54, 0
1, 125222, Note_on_c, 0, 74, 60
1, 125222, Note_on_c, 0, 59, 42
1, 125259, Control_c, 0, 64, 127
1, 125302, Note_on_c, 0, 59, 0
1, 125302, Note_on_c, 0, 67, 34
1, 125381, Note_on_c, 0, 67, 0
1, 125381, Note_on_c, 0, 59, 34
1, 125460, Note_on_c, 0, 59, 0
1, 125460, Note_on_c, 0, 67, 34
1, 125539, Note_on_c, 0, 74, 0
1, 125539, Note_on_c, 0, 72, 56
1, 125539, Note_on_c, 0, 67, 0
1, 125542, Note_on_c, 0, 57, 42
1, 125547, Control_c, 0, 64, 0
1, 125619, Note_on_c, 0, 57, 0
1, 125619, Note_on_c, 0, 67, 36
1, 125624, Control_c, 0, 64, 127
1, 125700, Note_on_c, 0, 67, 0
1, 125700, Note_on_c, 0, 57, 36
1, 125780, Note_on_c, 0, 57, 0
1, 125780, Note_on_c, 0, 67, 36
1, 125860, Note_on_c, 0, 72, 0
1, 125860, Note_on_c, 0, 71, 55
1, 125860, Note_on_c, 0, 67, 0
1, 125863, Note_on_c, 0, 55, 42
1, 125869, Control_c, 0, 64, 0
1, 125944, Note_on_c, 0, 55, 0
1, 125944, Note_on_c, 0, 67, 37
1, 125954, Control_c, 0, 64, 127
1, 126028, Note_on_c, 0, 67, 0
1, 126028, Note_on_c, 0, 55, 37
1, 126112, Note_on_c, 0, 55, 0
1, 126112, Note_on_c, 0, 67, 37
1, 126196, Note_on_c, 0, 71, 0
1, 126196, Note_on_c, 0, 76, 60
1, 126196, Note_on_c, 0, 67, 0
1, 126199, Note_on_c, 0, 60, 42
1, 126199, Control_c, 0, 64, 0
1, 126218, Control_c, 0, 64, 127
1, 126277, Note_on_c, 0, 60, 0
1, 126277, Note_on_c, 0, 67, 36
1, 126358, Note_on_c, 0, 67, 0
1, 126358, Note_on_c, 0, 66, 36
1, 126439, Note_on_c, 0, 76, 0
1, 126439, Note_on_c, 0, 78, 54
1, 126439, Note_on_c, 0, 66, 0
1, 126442, Note_on_c, 0, 67, 36
1, 126469, Note_on_c, 0, 78, 0
1, 126469, Note_on_c, 0, 76, 54
1, 126498, Note_on_c, 0, 76, 0
1, 126498, Note_on_c, 0, 74, 54
1, 126528, Note_on_c, 0, 76, 60
1, 126528, Note_on_c, 0, 74, 0
1, 126528, Note_on_c, 0, 67, 0
1, 126531, Note_on_c, 0, 60, 42
1, 126531, Control_c, 0, 64, 0
1, 126608, Note_on_c, 0, 76, 0
1, 126608, Note_on_c, 0, 60, 0
1, 126608, Note_on_c, 0, 67, 36
1, 126689, Note_on_c, 0, 78, 56
1, 126689, Note_on_c, 0, 67, 0
1, 126689, Note_on_c, 0, 66, 36
1, 126773, Note_on_c, 0, 78, 0
1, 126773, Note_on_c, 0, 66, 0
1, 126773, Note_on_c, 0, 67, 36
1, 126857, Note_on_c, 0, 81, 60
1, 126857, Note_on_c, 0, 67, 0
1, 126857, Note_on_c, 0, 60, 36
1, 126870, Control_c, 0, 64, 127
1, 126936, Note_on_c, 0, 60, 0
1, 126936, Note_on_c, 0, 67, 38
1, 127016, Note_on_c, 0, 81, 0
1, 127016, Note_on_c, 0, 79, 54
1, 127016, Note_on_c, 0, 67, 0
1, 127019, Note_on_c, 0, 66, 38
1, 127024, Control_c, 0, 64, 0
1, 127056, Control_c, 0, 64, 127
1, 127096, Note_on_c, 0, 79, 0
1, 127096, Note_on_c, 0, 66, 0
1, 127096, Note_on_c, 0, 67, 38
1, 127176, Note_on_c, 0, 78, 56
1, 127176, Note_on_c, 0, 67, 0
1, 127176, Note_on_c, 0, 60, 40
1, 127182, Control_c, 0, 64, 0
1, 127216, Control_c, 0, 64, 127
1, 127255, Note_on_c, 0, 60, 0
1, 127255, Note_on_c, 0, 67, 36
1, 127335, Note_on_c, 0, 78, 0
1, 127335, Note_on_c, 0, 76, 54
1, 127335, Note_on_c, 0, 67, 0
1, 127338, Note_on_c, 0, 66, 36
1, 127343, Control_c, 0, 64, 0
1, 127377, Control_c, 0, 64, 127
1, 127422, Note_on_c, 0, 76, 0
1, 127422, Note_on_c, 0, 66, 0
1, 127422, Note_on_c, 0, 67, 36
1, 127508, Note_on_c, 0, 74, 60
1, 127508, Note_on_c, 0, 67, 0
1, 127508, Note_on_c, 0, 59, 44
1, 127511, Control_c, 0, 64, 0
1, 127593, Note_on_c, 0, 59, 0
1, 127593, Note_on_c, 0, 67, 44
1, 127679, Note_on_c, 0, 74, 0
1, 127679, Note_on_c, 0, 67, 0
1, 127679, Note_on_c, 0, 66, 33
1, 127764, Note_on_c, 0, 66, 0
1, 127764, Note_on_c, 0, 67, 33
1, 127849, Note_on_c, 0, 74, 49
1, 127849, Note_on_c, 0, 67, 0
1, 127849, Note_on_c, 0, 59, 37
1, 127886, Control_c, 0, 64, 127
1, 127928, Note_on_c, 0, 59, 0
1, 127928, Note_on_c, 0, 67, 30
1, 128007, Note_on_c, 0, 67, 0
1, 128007, Note_on_c, 0, 59, 30
1, 128087, Note_on_c, 0, 59, 0
1, 128087, Note_on_c, 0, 67, 30
1, 128166, Note_on_c, 0, 74, 0
1, 128166, Note_on_c, 0, 72, 49
1, 128166, Note_on_c, 0, 67, 0
1, 128169, Note_on_c, 0, 57, 37
1, 128174, Control_c, 0, 64, 0
1, 128246, Note_on_c, 0, 57, 0
1, 128246, Note_on_c, 0, 67, 32
1, 128251, Control_c, 0, 64, 127
1, 128326, Note_on_c, 0, 67, 0
1, 128326, Note_on_c, 0, 57, 32
1, 128407, Note_on_c, 0, 57, 0
1, 128407, Note_on_c, 0, 67, 32
1, 128487, Note_on_c, 0, 72, 0
1, 128487, Note_on_c, 0, 71, 48
1, 128487, Note_on_c, 0, 67, 0
1, 128490, Note_on_c, 0, 55, 37
1, 128495, Control_c, 0, 64, 0
1, 128571, Note_on_c, 0, 55, 0
1, 128571, Note_on_c, 0, 67, 33
1, 128581, Control_c, 0, 64, 127
1, 128655, Note_on_c, 0, 67, 0
1, 128655, Note_on_c, 0, 55, 33
1, 128739, Note_on_c, 0, 55, 0
1, 128739, Note_on_c, 0, 67, 33
1, 128823, Note_on_c, 0, 71, 0
1, 128823, Note_on_c, 0, 69, 56
1, 128823, Note_on_c, 0, 67, 0
1, 128826, Note_on_c, 0, 48, 37
1, 128826, Control_c, 0, 64, 0
1, 128845, Control_c, 0, 64, 127
1, 128904, Note_on_c, 0, 48, 0
1, 128904, Note_on_c, 0, 57, 32
1, 128985, Note_on_c, 0, 57, 0
1, 128985, Note_on_c, 0, 52, 32
1, 129066, Note_on_c, 0, 69, 0
1, 129066, Note_on_c, 0, 76, 43
1, 129066, Note_on_c, 0, 52, 0
1, 129069, Note_on_c, 0, 57, 32
1, 129155, Note_on_c, 0, 76, 0
1, 129155, Note_on_c, 0, 74, 49
1, 129155, Note_on_c, 0, 57, 0
1, 129158, Note_on_c, 0, 48, 37
1, 129158, Control_c, 0, 64, 0
1, 129186, Control_c, 0, 64, 127
1, 129235, Note_on_c, 0, 74, 0
1, 129235, Note_on_c, 0, 72, 48
1, 129235, Note_on_c, 0, 48, 0
1, 129238, Note_on_c, 0, 57, 32
1, 129315, Note_on_c, 0, 72, 0
1, 129315, Note_on_c, 0, 71, 48
1, 129315, Note_on_c, 0, 57, 0
1, 129318, Note_on_c, 0, 52, 32
1, 129399, Note_on_c, 0, 71, 0
1, 129399, Note_on_c, 0, 69, 48
1, 129399, Note_on_c, 0, 52, 0
1, 129402, Note_on_c, 0, 57, 32
1, 129483, Note_on_c, 0, 69, 0
1, 129483, Note_on_c, 0, 67, 52
1, 129483, Note_on_c, 0, 57, 0
1, 129486, Note_on_c, 0, 50, 32
1, 129491, Control_c, 0, 64, 0
1, 129537, Control_c, 0, 64, 127
1, 129563, Note_on_c, 0, 50, 0
1, 129563, Note_on_c, 0, 59, 34
1, 129643, Note_on_c, 0, 59, 0
1, 129643, Note_on_c, 0, 55, 34
1, 129723, Note_on_c, 0, 55, 0
1, 129723, Note_on_c, 0, 59, 34
1, 129802, Note_on_c, 0, 67, 0
1, 129802, Note_on_c, 0, 69, 45
1, 129802, Note_on_c, 0, 59, 0
1, 129805, Note_on_c, 0, 50, 36
1, 129809, Control_c, 0, 64, 0
1, 129843, Note_on_c, 0, 69, 0
1, 129843, Note_on_c, 0, 71, 40
1, 129843, Control_c, 0, 64, 127
1, 129885, Note_on_c, 0, 71, 0
1, 129885, Note_on_c, 0, 69, 46
1, 129885, Note_on_c, 0, 50, 0
1, 129888, Note_on_c, 0, 60, 32
1, 129927, Note_on_c, 0, 69, 0
1, 129927, Note_on_c, 0, 71, 41
1, 129968, Note_on_c, 0, 71, 0
1, 129968, Note_on_c, 0, 69, 46
1, 129968, Note_on_c, 0, 60, 0
1, 129971, Note_on_c, 0, 54, 32
1, 130023, Note_on_c, 0, 69, 0
1, 130023, Note_on_c, 0, 67, 39
1, 130052, Note_on_c, 0, 54, 0
1, 130052, Note_on_c, 0, 60, 32
1, 130081, Note_on_c, 0, 67, 0
1, 130081, Note_on_c, 0, 69, 39
1, 130138, Note_on_c, 0, 69, 0
1, 130138, Note_on_c, 0, 67, 54
1, 130138, Note_on_c, 0, 60, 0
1, 130141, Note_on_c, 0, 55, 39
1, 130141, Control_c, 0, 64, 0
1, 130204, Control_c, 0, 64, 127
1, 130218, Note_on_c, 0, 55, 0
1, 130218, Note_on_c, 0, 62, 34
1, 130298, Note_on_c, 0, 67, 0
1, 130298, Note_on_c, 0, 62, 0
1, 130298, Note_on_c, 0, 59, 29
1, 130381, Note_on_c, 0, 59, 0
1, 130381, Note_on_c, 0, 62, 29
1, 130482, Note_on_c, 0, 74, 60
1, 130482, Note_on_c, 0, 62, 0
1, 130482, Note_on_c, 0, 59, 42
1, 130487, Control_c, 0, 64, 0
1, 130562, Note_on_c, 0, 59, 0
1, 130562, Note_on_c, 0, 67, 34
1, 130562, Control_c, 0, 64, 127
1, 130641, Note_on_c, 0, 67, 0
1, 130641, Note_on_c, 0, 59, 34
1, 130720, Note_on_c, 0, 59, 0
1, 130720, Note_on_c, 0, 67, 34
1, 130799, Note_on_c, 0, 74, 0
1, 130799, Note_on_c, 0, 72, 56
1, 130799, Note_on_c, 0, 67, 0
1, 130802, Note_on_c, 0, 57, 42
1, 130807, Control_c, 0, 64, 0
1, 130880, Note_on_c, 0, 57, 0
1, 130880, Note_on_c, 0, 67, 36
1, 130884, Control_c, 0, 64, 127
1, 130960, Note_on_c, 0, 67, 0
1, 130960, Note_on_c, 0, 57, 36
1, 131040, Note_on_c, 0, 57, 0
1, 131040, Note_on_c, 0, 67, 36
1, 131121, Note_on_c, 0, 72, 0
1, 131121, Note_on_c, 0, 71, 55
1, 131121, Note_on_c, 0, 67, 0
1, 131124, Note_on_c, 0, 55, 42
1, 131129, Control_c, 0, 64, 0
1, 131204, Note_on_c, 0, 55, 0
1, 131204, Note_on_c, 0, 67, 37
1, 131214, Control_c, 0, 64, 127
1, 131288, Note_on_c, 0, 67, 0
1, 131288, Note_on_c, 0, 55, 37
1, 131372, Note_on_c, 0, 55, 0
1, 131372, Note_on_c, 0, 67, 37
1, 131456, Note_on_c, 0, 71, 0
1, 131456, Note_on_c, 0, 76, 60
1, 131456, Note_on_c, 0, 67, 0
1, 131459, Note_on_c, 0, 60, 42
1, 131459, Control_c, 0, 64, 0
1, 131478, Control_c, 0, 64, 127
1, 131537, Note_on_c, 0, 60, 0
1, 131537, Note_on_c, 0, 67, 36
1, 131618, Note_on_c, 0, 67, 0
1, 131618, Note_on_c, 0, 66, 36
1, 131699, Note_on_c, 0, 76, 0
1, 131699, Note_on_c, 0, 78, 54
1, 131699, Note_on_c, 0, 66, 0
1, 131702, Note_on_c, 0, 67, 36
1, 131729, Note_on_c, 0, 78, 0
1, 131729, Note_on_c, 0, 76, 54
1, 131758, Note_on_c, 0, 76, 0
1, 131758, Note_on_c, 0, 74, 54
1, 131788, Note_on_c, 0, 76, 60
1, 131788, Note_on_c, 0, 74, 0
1, 131788, Note_on_c, 0, 67, 0
1, 131791, Note_on_c, 0, 60, 42
1, 131791, Control_c, 0, 64, 0
1, 131869, Note_on_c, 0, 76, 0
1, 131869, Note_on_c, 0, 60, 0
1, 131869, Note_on_c, 0, 67, 36
1, 131949, Note_on_c, 0, 78, 56
1, 131949, Note_on_c, 0, 67, 0
1, 131949, Note_on_c, 0, 66, 36
1, 132033, Note_on_c, 0, 78, 0
1, 132033, Note_on_c, 0, 66, 0
1, 132033, Note_on_c, 0, 67, 36
1, 132117, Note_on_c, 0, 81, 60
1, 132117, Note_on_c, 0, 67, 0
1, 132117, Note_on_c, 0, 60, 36
1, 132130, Control_c, 0, 64, 127
1, 132196, Note_on_c, 0, 60, 0
1, 132196, Note_on_c, 0, 67, 38
1, 132275, Note_on_c, 0, 81, 0
1, 132275, Note_on_c, 0, 79, 54
1, 132275, Note_on_c, 0, 67, 0
1, 132278, Note_on_c, 0, 66, 38
1, 132283, Control_c, 0, 64, 0
1, 132315, Control_c, 0, 64, 127
1, 132354, Note_on_c, 0, 79, 0
1, 132354, Note_on_c, 0, 66, 0
1, 132354, Note_on_c, 0, 67, 38
1, 132434, Note_on_c, 0, 78, 56
1, 132434, Note_on_c, 0, 67, 0
1, 132434, Note_on_c, 0, 60, 40
1, 132441, Control_c, 0, 64, 0
1, 132474, Control_c, 0, 64, 127
1, 132514, Note_on_c, 0, 60, 0
1, 132514, Note_on_c, 0, 67, 36
1, 132593, Note_on_c, 0, 78, 0
1, 132593, Note_on_c, 0, 76, 54
1, 132593, Note_on_c, 0, 67, 0
1, 132596, Note_on_c, 0, 66, 36
1, 132601, Control_c, 0, 64, 0
1, 132635, Control_c, 0, 64, 127
1, 132680, Note_on_c, 0, 76, 0
1, 132680, Note_on_c, 0, 66, 0
1, 132680, Note_on_c, 0, 67, 36
1, 132766, Note_on_c, 0, 74, 60
1, 132766, Note_on_c, 0, 67, 0
1, 132766, Note_on_c, 0, 59, 44
1, 132769, Control_c, 0, 64, 0
1, 132852, Note_on_c, 0, 59, 0
1, 132852, Note_on_c, 0, 67, 44
1, 132937, Note_on_c, 0, 74, 0
1, 132937, Note_on_c, 0, 67, 0
1, 132937, Note_on_c, 0, 66, 33
1, 133022, Note_on_c, 0, 66, 0
1, 133022, Note_on_c, 0, 67, 33
1, 133107, Note_on_c, 0, 74, 49
1, 133107, Note_on_c, 0, 67, 0
1, 133107, Note_on_c, 0, 59, 37
1, 133144, Control_c, 0, 64, 127
1, 133186, Note_on_c, 0, 59, 0
1, 133186, Note_on_c, 0, 67, 30
1, 133266, Note_on_c, 0, 67, 0
1, 133266, Note_on_c, 0, 59, 30
1, 133345, Note_on_c, 0, 59, 0
1, 133345, Note_on_c, 0, 67, 30
1, 133424, Note_on_c, 0, 74, 0
1, 133424, Note_on_c, 0, 72, 49
1, 133424, Note_on_c, 0, 67, 0
1, 133427, Note_on_c, 0, 57, 37
1, 133432, Control_c, 0, 64, 0
1, 133504, Note_on_c, 0, 57, 0
1, 133504, Note_on_c, 0, 67, 32
1, 133509, Control_c, 0, 64, 127
1, 133585, Note_on_c, 0, 67, 0
1, 133585, Note_on_c, 0, 57, 32
1, 133665, Note_on_c, 0, 57, 0
1, 133665, Note_on_c, 0, 67, 32
1, 133745, Note_on_c, 0, 72, 0
1, 133745, Note_on_c, 0, 71, 48
1, 133745, Note_on_c, 0, 67, 0
1, 133748, Note_on_c, 0, 55, 37
1, 133754, Control_c, 0, 64, 0
1, 133829, Note_on_c, 0, 55, 0
1, 133829, Note_on_c, 0, 67, 33
1, 133839, Control_c, 0, 64, 127
1, 133913, Note_on_c, 0, 67, 0
1, 133913, Note_on_c, 0, 55, 33
1, 133997, Note_on_c, 0, 55, 0
1, 133997, Note_on_c, 0, 67, 33
1, 134081, Note_on_c, 0, 71, 0
1, 134081, Note_on_c, 0, 69, 56
1, 134081, Note_on_c, 0, 67, 0
1, 134084, Note_on_c, 0, 48, 37
1, 134084, Control_c, 0, 64, 0
1, 134103, Control_c, 0, 64, 127
1, 134162, Note_on_c, 0, 48, 0
1, 134162, Note_on_c, 0, 57, 32
1, 134243, Note_on_c, 0, 57, 0
1, 134243, Note_on_c, 0, 52, 32
1, 134324, Note_on_c, 0, 69, 0
1, 134324, Note_on_c, 0, 76, 43
1, 134324, Note_on_c, 0, 52, 0
1, 134327, Note_on_c, 0, 57, 32
1, 134413, Note_on_c, 0, 76, 0
1, 134413, Note_on_c, 0, 74, 49
1, 134413, Note_on_c, 0, 57, 0
1, 134416, Note_on_c, 0, 48, 37
1, 134416, Control_c, 0, 64, 0
1, 134444, Control_c, 0, 64, 127
1, 134493, Note_on_c, 0, 74, 0
1, 134493, Note_on_c, 0, 72, 48
1, 134493, Note_on_c, 0, 48, 0
1, 134496, Note_on_c, 0, 57, 32
1, 134574, Note_on_c, 0, 72, 0
1, 134574, Note_on_c, 0, 71, 48
1, 134574, Note_on_c, 0, 57, 0
1, 134577, Note_on_c, 0, 52, 32
1, 134658, Note_on_c, 0, 71, 0
1, 134658, Note_on_c, 0, 69, 48
1, 134658, Note_on_c, 0, 52, 0
1, 134661, Note_on_c, 0, 57, 32
1, 134741, Note_on_c, 0, 69, 0
1, 134741, Note_on_c, 0, 67, 52
1, 134741, Note_on_c, 0, 57, 0
1, 134744, Note_on_c, 0, 50, 32
1, 134749, Control_c, 0, 64, 0
1, 134795, Control_c, 0, 64, 127
1, 134821, Note_on_c, 0, 50, 0
1, 134821, Note_on_c, 0, 59, 34
1, 134901, Note_on_c, 0, 59, 0
1, 134901, Note_on_c, 0, 55, 34
1, 134981, Note_on_c, 0, 55, 0
1, 134981, Note_on_c, 0, 59, 34
1, 135060, Note_on_c, 0, 67, 0
1, 135060, Note_on_c, 0, 69, 45
1, 135060, Note_on_c, 0, 59, 0
1, 135063, Note_on_c, 0, 50, 36
1, 135067, Control_c, 0, 64, 0
1, 135101, Note_on_c, 0, 69, 0
1, 135101, Note_on_c, 0, 71, 40
1, 135101, Control_c, 0, 64, 127
1, 135143, Note_on_c, 0, 71, 0
1, 135143, Note_on_c, 0, 69, 46
1, 135143, Note_on_c, 0, 50, 0
1, 135146, Note_on_c, 0, 60, 32
1, 135185, Note_on_c, 0, 69, 0
1, 135185, Note_on_c, 0, 71, 41
1, 135226, Note_on_c, 0, 71, 0
1, 135226, Note_on_c, 0, 69, 46
1, 135226, Note_on_c, 0, 60, 0
1, 135229, Note_on_c, 0, 54, 32
1, 135281, Note_on_c, 0, 69, 0
1, 135281, Note_on_c, 0, 67, 39
1, 135310, Note_on_c, 0, 54, 0
1, 135310, Note_on_c, 0, 60, 32
1, 135339, Note_on_c, 0, 67, 0
1, 135339, Note_on_c, 0, 69, 39
1, 135396, Note_on_c, 0, 69, 0
1, 135396, Note_on_c, 0, 67, 59
1, 135396, Note_on_c, 0, 60, 0
1, 135399, Note_on_c, 0, 59, 52
1, 135399, Note_on_c, 0, 55, 44
1, 135399, Control_c, 0, 64, 0
1, 135402, Control_c, 0, 64, 0
1, 135474, Note_on_c, 0, 67, 0
1, 135474, Note_on_c, 0, 69, 53
1, 135552, Note_on_c, 0, 69, 0
1, 135552, Note_on_c, 0, 67, 59
1, 135630, Note_on_c, 0, 67, 0
1, 135630, Note_on_c, 0, 66, 52
1, 135708, Note_on_c, 0, 66, 0
1, 135708, Note_on_c, 0, 67, 59
1, 135708, Note_on_c, 0, 55, 0
1, 135711, Note_on_c, 0, 59, 0
1, 135786, Note_on_c, 0, 67, 0
1, 135786, Note_on_c, 0, 71, 54
1, 135864, Note_on_c, 0, 71, 0
1, 135864, Note_on_c, 0, 69, 59
1, 135864, Note_on_c, 0, 54, 40
1, 135867, Note_on_c, 0, 62, 48
1, 135947, Note_on_c, 0, 69, 0
1, 135947, Note_on_c, 0, 72, 53
1, 135947, Note_on_c, 0, 62, 0
1, 135950, Note_on_c, 0, 54, 0
1, 136029, Note_on_c, 0, 72, 0
1, 136029, Note_on_c, 0, 71, 59
1, 136029, Note_on_c, 0, 62, 52
1, 136032, Note_on_c, 0, 55, 44
1, 136107, Note_on_c, 0, 71, 0
1, 136107, Note_on_c, 0, 69, 53
1, 136185, Note_on_c, 0, 69, 0
1, 136185, Note_on_c, 0, 67, 59
1, 136263, Note_on_c, 0, 67, 0
1, 136263, Note_on_c, 0, 66, 52
1, 136341, Note_on_c, 0, 66, 0
1, 136341, Note_on_c, 0, 67, 59
1, 136341, Note_on_c, 0, 55, 0
1, 136344, Note_on_c, 0, 62, 0
1, 136419, Note_on_c, 0, 67, 0
1, 136419, Note_on_c, 0, 71, 54
1, 136501, Note_on_c, 0, 71, 0
1, 136501, Note_on_c, 0, 69, 59
1, 136501, Note_on_c, 0, 54, 39
1, 136504, Note_on_c, 0, 62, 47
1, 136582, Note_on_c, 0, 69, 0
1, 136582, Note_on_c, 0, 72, 53
1, 136582, Note_on_c, 0, 62, 0
1, 136585, Note_on_c, 0, 54, 0
1, 136664, Note_on_c, 0, 72, 0
1, 136664, Note_on_c, 0, 71, 59
1, 136664, Note_on_c, 0, 55, 43
1, 136667, Note_on_c, 0, 62, 51
1, 136667, Control_c, 0, 64, 0
1, 136667, Control_c, 0, 64, 0
1, 136742, Note_on_c, 0, 71, 0
1, 136742, Note_on_c, 0, 69, 53
1, 136820, Note_on_c, 0, 69, 0
1, 136820, Note_on_c, 0, 67, 59
1, 136898, Note_on_c, 0, 67, 0
1, 136898, Note_on_c, 0, 66, 52
1, 136976, Note_on_c, 0, 66, 0
1, 136976, Note_on_c, 0, 67, 59
1, 136976, Note_on_c, 0, 62, 0
1, 136979, Note_on_c, 0, 55, 0
1, 137054, Note_on_c, 0, 67, 0
1, 137054, Note_on_c, 0, 71, 54
1, 137132, Note_on_c, 0, 71, 0
1, 137132, Note_on_c, 0, 69, 59
1, 137132, Note_on_c, 0, 62, 46
1, 137135, Note_on_c, 0, 54, 39
1, 137213, Note_on_c, 0, 69, 0
1, 137213, Note_on_c, 0, 72, 53
1, 137213, Note_on_c, 0, 54, 0
1, 137216, Note_on_c, 0, 62, 0
1, 137294, Note_on_c, 0, 72, 0
1, 137294, Note_on_c, 0, 71, 59
1, 137294, Note_on_c, 0, 62, 50
1, 137297, Note_on_c, 0, 55, 42
1, 137373, Note_on_c, 0, 71, 0
1, 137373, Note_on_c, 0, 74, 53
1, 137373, Note_on_c, 0, 55, 0
1, 137376, Note_on_c, 0, 62, 0
1, 137451, Note_on_c, 0, 74, 0
1, 137451, Note_on_c, 0, 72, 59
1, 137451, Note_on_c, 0, 62, 46
1, 137454, Note_on_c, 0, 54, 39
1, 137530, Note_on_c, 0, 72, 0
1, 137530, Note_on_c, 0, 69, 52
1, 137530, Note_on_c, 0, 54, 0
1, 137533, Note_on_c, 0, 62, 0
1, 137609, Note_on_c, 0, 69, 0
1, 137609, Note_on_c, 0, 71, 59
1, 137609, Note_on_c, 0, 62, 46
1, 137612, Note_on_c, 0, 55, 39
1, 137689, Note_on_c, 0, 71, 0
1, 137689, Note_on_c, 0, 74, 54
1, 137689, Note_on_c, 0, 55, 0
1, 137692, Note_on_c, 0, 62, 0
1, 137771, Note_on_c, 0, 74, 0
1, 137771, Note_on_c, 0, 73, 59
1, 137771, Note_on_c, 0, 55, 46
1, 137774, Note_on_c, 0, 52, 39
1, 137854, Note_on_c, 0, 73, 0
1, 137854, Note_on_c, 0, 76, 53
1, 137854, Note_on_c, 0, 52, 0
1, 137857, Note_on_c, 0, 55, 0
1, 137936, Note_on_c, 0, 76, 0
1, 137936, Note_on_c, 0, 74, 59
1, 137936, Note_on_c, 0, 57, 50
1, 137939, Note_on_c, 0, 54, 42
1, 137939, Control_c, 0, 64, 0
1, 137939, Control_c, 0, 64, 0
1, 138014, Note_on_c, 0, 74, 0
1, 138014, Note_on_c, 0, 76, 53
1, 138092, Note_on_c, 0, 76, 0
1, 138092, Note_on_c, 0, 74, 59
1, 138171, Note_on_c, 0, 74, 0
1, 138171, Note_on_c, 0, 73, 52
1, 138249, Note_on_c, 0, 73, 0
1, 138249, Note_on_c, 0, 74, 59
1, 138249, Note_on_c, 0, 54, 0
1, 138252, Note_on_c, 0, 57, 0
1, 138327, Note_on_c, 0, 74, 0
1, 138327, Note_on_c, 0, 78, 54
1, 138405, Note_on_c, 0, 78, 0
1, 138405, Note_on_c, 0, 76, 59
1, 138405, Note_on_c, 0, 49, 42
1, 138408, Note_on_c, 0, 57, 50
1, 138487, Note_on_c, 0, 76, 0
1, 138487, Note_on_c, 0, 79, 53
1, 138487, Note_on_c, 0, 57, 0
1, 138490, Note_on_c, 0, 49, 0
1, 138569, Note_on_c, 0, 79, 0
1, 138569, Note_on_c, 0, 78, 59
1, 138569, Note_on_c, 0, 57, 52
1, 138572, Note_on_c, 0, 50, 44
1, 138647, Note_on_c, 0, 78, 0
1, 138647, Note_on_c, 0, 76, 53
1, 138725, Note_on_c, 0, 76, 0
1, 138725, Note_on_c, 0, 74, 59
1, 138803, Note_on_c, 0, 74, 0
1, 138803, Note_on_c, 0, 73, 52
1, 138881, Note_on_c, 0, 73, 0
1, 138881, Note_on_c, 0, 74, 59
1, 138881, Note_on_c, 0, 50, 0
1, 138884, Note_on_c, 0, 57, 0
1, 138959, Note_on_c, 0, 74, 0
1, 138959, Note_on_c, 0, 78, 54
1, 139042, Note_on_c, 0, 78, 0
1, 139042, Note_on_c, 0, 76, 59
1, 139042, Note_on_c, 0, 57, 50
1, 139045, Note_on_c, 0, 49, 42
1, 139124, Note_on_c, 0, 76, 0
1, 139124, Note_on_c, 0, 79, 53
1, 139124, Note_on_c, 0, 49, 0
1, 139127, Note_on_c, 0, 57, 0
1, 139206, Note_on_c, 0, 79, 0
1, 139206, Note_on_c, 0, 78, 59
1, 139206, Note_on_c, 0, 50, 45
1, 139209, Note_on_c, 0, 57, 54
1, 139209, Control_c, 0, 64, 0
1, 139209, Control_c, 0, 64, 0
1, 139283, Note_on_c, 0, 78, 0
1, 139283, Note_on_c, 0, 76, 53
1, 139361, Note_on_c, 0, 76, 0
1, 139361, Note_on_c, 0, 74, 59
1, 139438, Note_on_c, 0, 74, 0
1, 139438, Note_on_c, 0, 73, 52
1, 139516, Note_on_c, 0, 73, 0
1, 139516, Note_on_c, 0, 74, 59
1, 139516, Note_on_c, 0, 57, 0
1, 139519, Note_on_c, 0, 50, 0
1, 139593, Note_on_c, 0, 74, 0
1, 139593, Note_on_c, 0, 76, 54
1, 139671, Note_on_c, 0, 76, 0
1, 139671, Note_on_c, 0, 78, 64
1, 139671, Note_on_c, 0, 51, 45
1, 139674, Note_on_c, 0, 59, 54
1, 139752, Note_on_c, 0, 78, 0
1, 139752, Note_on_c, 0, 81, 58
1, 139752, Note_on_c, 0, 59, 0
1, 139755, Note_on_c, 0, 51, 0
1, 139833, Note_on_c, 0, 81, 0
1, 139833, Note_on_c, 0, 79, 64
1, 139833, Note_on_c, 0, 59, 56
1, 139836, Note_on_c, 0, 52, 47
1, 139910, Note_on_c, 0, 79, 0
1, 139910, Note_on_c, 0, 78, 58
1, 139988, Note_on_c, 0, 78, 0
1, 139988, Note_on_c, 0, 76, 64
1, 140066, Note_on_c, 0, 76, 0
1, 140066, Note_on_c, 0, 75, 57
1, 140143, Note_on_c, 0, 75, 0
1, 140143, Note_on_c, 0, 76, 64
1, 140143, Note_on_c, 0, 52, 0
1, 140146, Note_on_c, 0, 59, 0
1, 140221, Note_on_c, 0, 76, 0
1, 140221, Note_on_c, 0, 78, 59
1, 140302, Note_on_c, 0, 78, 0
1, 140302, Note_on_c, 0, 79, 64
1, 140302, Note_on_c, 0, 59, 53
1, 140305, Note_on_c, 0, 51, 45
1, 140382, Note_on_c, 0, 79, 0
1, 140382, Note_on_c, 0, 81, 58
1, 140382, Note_on_c, 0, 51, 0
1, 140385, Note_on_c, 0, 59, 0
1, 140463, Note_on_c, 0, 81, 0
1, 140463, Note_on_c, 0, 79, 69
1, 140463, Note_on_c, 0, 52, 51
1, 140466, Note_on_c, 0, 59, 60
1, 140466, Control_c, 0, 64, 0
1, 140466, Control_c, 0, 64, 0
1, 140541, Note_on_c, 0, 79, 0
1, 140541, Note_on_c, 0, 78, 67
1, 140620, Note_on_c, 0, 78, 0
1, 140620, Note_on_c, 0, 76, 65
1, 140698, Note_on_c, 0, 76, 0
1, 140698, Note_on_c, 0, 75, 62
1, 140776, Note_on_c, 0, 75, 0
1, 140776, Note_on_c, 0, 76, 64
1, 140776, Note_on_c, 0, 59, 0
1, 140779, Note_on_c, 0, 52, 0
1, 140854, Note_on_c, 0, 76, 0
1, 140854, Note_on_c, 0, 78, 65
1, 140932, Note_on_c, 0, 78, 0
1, 140932, Note_on_c, 0, 79, 67
1, 140932, Note_on_c, 0, 61, 55
1, 140935, Note_on_c, 0, 52, 46
1, 141013, Note_on_c, 0, 79, 0
1, 141013, Note_on_c, 0, 83, 60
1, 141013, Note_on_c, 0, 52, 0
1, 141016, Note_on_c, 0, 61, 0
1, 141095, Note_on_c, 0, 83, 0
1, 141095, Note_on_c, 0, 81, 67
1, 141095, Note_on_c, 0, 62, 62
1, 141098, Note_on_c, 0, 54, 52
1, 141172, Note_on_c, 0, 81, 0
1, 141172, Note_on_c, 0, 79, 60
1, 141250, Note_on_c, 0, 79, 0
1, 141250, Note_on_c, 0, 78, 67
1, 141328, Note_on_c, 0, 78, 0
1, 141328, Note_on_c, 0, 76, 59
1, 141405, Note_on_c, 0, 76, 0
1, 141405, Note_on_c, 0, 78, 67
1, 141405, Note_on_c, 0, 54, 0
1, 141408, Note_on_c, 0, 62, 0
1, 141483, Note_on_c, 0, 78, 0
1, 141483, Note_on_c, 0, 79, 61
1, 141564, Note_on_c, 0, 79, 0
1, 141564, Note_on_c, 0, 81, 67
1, 141564, Note_on_c, 0, 52, 48
1, 141567, Note_on_c, 0, 61, 57
1, 141646, Note_on_c, 0, 81, 0
1, 141646, Note_on_c, 0, 83, 60
1, 141646, Note_on_c, 0, 61, 0
1, 141649, Note_on_c, 0, 52, 0
1, 141727, Note_on_c, 0, 83, 0
1, 141727, Note_on_c, 0, 81, 67
1, 141727, Note_on_c, 0, 54, 52
1, 141730, Note_on_c, 0, 62, 62
1, 141730, Control_c, 0, 64, 0
1, 141730, Control_c, 0, 64, 0
1, 141804, Note_on_c, 0, 81, 0
1, 141804, Note_on_c, 0, 79, 66
1, 141881, Note_on_c, 0, 79, 0
1, 141881, Note_on_c, 0, 78, 65
1, 141958, Note_on_c, 0, 78, 0
1, 141958, Note_on_c, 0, 76, 64
1, 142035, Note_on_c, 0, 76, 0
1, 142035, Note_on_c, 0, 78, 67
1, 142035, Note_on_c, 0, 62, 0
1, 142038, Note_on_c, 0, 54, 0
1, 142119, Note_on_c, 0, 78, 0
1, 142119, Note_on_c, 0, 79, 61
1, 142203, Note_on_c, 0, 79, 0
1, 142203, Note_on_c, 0, 81, 67
1, 142203, Note_on_c, 0, 66, 54
1, 142285, Note_on_c, 0, 81, 0
1, 142285, Note_on_c, 0, 84, 60
1, 142285, Note_on_c, 0, 66, 0
1, 142366, Note_on_c, 0, 84, 0
1, 142366, Note_on_c, 0, 83, 67
1, 142366, Note_on_c, 0, 67, 62
1, 142445, Note_on_c, 0, 83, 0
1, 142445, Note_on_c, 0, 86, 57
1, 142445, Note_on_c, 0, 67, 0
1, 142524, Note_on_c, 0, 86, 0
1, 142524, Note_on_c, 0, 81, 62
1, 142524, Note_on_c, 0, 66, 56
1, 142600, Note_on_c, 0, 81, 0
1, 142600, Note_on_c, 0, 86, 57
1, 142600, Note_on_c, 0, 66, 0
1, 142676, Note_on_c, 0, 86, 0
1, 142676, Note_on_c, 0, 83, 67
1, 142676, Note_on_c, 0, 67, 61
1, 142752, Note_on_c, 0, 83, 0
1, 142752, Note_on_c, 0, 86, 56
1, 142752, Note_on_c, 0, 67, 0
1, 142828, Note_on_c, 0, 86, 0
1, 142828, Note_on_c, 0, 78, 62
1, 142828, Note_on_c, 0, 63, 53
1, 142907, Note_on_c, 0, 78, 0
1, 142907, Note_on_c, 0, 83, 56
1, 142907, Note_on_c, 0, 63, 0
1, 142986, Note_on_c, 0, 83, 0
1, 142986, Note_on_c, 0, 79, 67
1, 142986, Note_on_c, 0, 64, 62
1, 143064, Note_on_c, 0, 79, 0
1, 143064, Note_on_c, 0, 83, 57
1, 143064, Note_on_c, 0, 64, 0
1, 143141, Note_on_c, 0, 83, 0
1, 143141, Note_on_c, 0, 78, 62
1, 143141, Note_on_c, 0, 63, 56
1, 143217, Note_on_c, 0, 78, 0
1, 143217, Note_on_c, 0, 83, 57
1, 143217, Note_on_c, 0, 63, 0
1, 143292, Note_on_c, 0, 83, 0
1, 143292, Note_on_c, 0, 79, 67
1, 143292, Note_on_c, 0, 64, 64
1, 143368, Note_on_c, 0, 79, 0
1, 143368, Note_on_c, 0, 83, 58
1, 143368, Note_on_c, 0, 64, 0
1, 143443, Note_on_c, 0, 83, 0
1, 143443, Note_on_c, 0, 76, 62
1, 143443, Note_on_c, 0, 61, 56
1, 143521, Note_on_c, 0, 76, 0
1, 143521, Note_on_c, 0, 81, 57
1, 143521, Note_on_c, 0, 61, 0
1, 143598, Note_on_c, 0, 81, 0
1, 143598, Note_on_c, 0, 78, 67
1, 143598, Note_on_c, 0, 62, 66
1, 143673, Note_on_c, 0, 78, 0
1, 143673, Note_on_c, 0, 81, 57
1, 143673, Note_on_c, 0, 62, 0
1, 143748, Note_on_c, 0, 81, 0
1, 143748, Note_on_c, 0, 76, 62
1, 143748, Note_on_c, 0, 61, 57
1, 143823, Note_on_c, 0, 76, 0
1, 143823, Note_on_c, 0, 81, 57
1, 143823, Note_on_c, 0, 61, 0
1, 143898, Note_on_c, 0, 81, 0
1, 143898, Note_on_c, 0, 78, 67
1, 143898, Note_on_c, 0, 62, 66
1, 143976, Note_on_c, 0, 78, 0
1, 143976, Note_on_c, 0, 81, 57
1, 143976, Note_on_c, 0, 62, 0
1, 144053, Note_on_c, 0, 81, 0
1, 144053, Note_on_c, 0, 73, 62
1, 144053, Note_on_c, 0, 58, 57
1, 144131, Note_on_c, 0, 73, 0
1, 144131, Note_on_c, 0, 78, 57
1, 144131, Note_on_c, 0, 58, 0
1, 144208, Note_on_c, 0, 78, 0
1, 144208, Note_on_c, 0, 74, 67
1, 144208, Note_on_c, 0, 59, 66
1, 144283, Note_on_c, 0, 74, 0
1, 144283, Note_on_c, 0, 78, 59
1, 144283, Note_on_c, 0, 59, 0
1, 144357, Note_on_c, 0, 78, 0
1, 144357, Note_on_c, 0, 73, 61
1, 144357, Note_on_c, 0, 58, 57
1, 144435, Note_on_c, 0, 73, 0
1, 144435, Note_on_c, 0, 78, 58
1, 144435, Note_on_c, 0, 58, 0
1, 144513, Note_on_c, 0, 78, 0
1, 144513, Note_on_c, 0, 74, 67
1, 144513, Note_on_c, 0, 59, 63
1, 144588, Note_on_c, 0, 74, 0
1, 144588, Note_on_c, 0, 78, 59
1, 144588, Note_on_c, 0, 59, 0
1, 144662, Note_on_c, 0, 78, 0
1, 144662, Note_on_c, 0, 75, 62
1, 144662, Note_on_c, 0, 60, 57
1, 144665, Note_on_c, 0, 57, 57
1, 144740, Note_on_c, 0, 75, 0
1, 144740, Note_on_c, 0, 78, 59
1, 144740, Note_on_c, 0, 57, 0
1, 144743, Note_on_c, 0, 60, 0
1, 144819, Note_on_c, 0, 78, 0
1, 144819, Note_on_c, 0, 76, 67
1, 144819, Note_on_c, 0, 59, 64
1, 144822, Note_on_c, 0, 55, 53
1, 144893, Note_on_c, 0, 76, 0
1, 144893, Note_on_c, 0, 75, 61
1, 144967, Note_on_c, 0, 75, 0
1, 144967, Note_on_c, 0, 76, 65
1, 145042, Note_on_c, 0, 76, 0
1, 145042, Note_on_c, 0, 78, 60
1, 145116, Note_on_c, 0, 78, 0
1, 145116, Note_on_c, 0, 79, 70
1, 145116, Note_on_c, 0, 55, 0
1, 145119, Note_on_c, 0, 59, 0
1, 145191, Note_on_c, 0, 79, 0
1, 145191, Note_on_c, 0, 78, 60
1, 145265, Note_on_c, 0, 78, 0
1, 145265, Note_on_c, 0, 79, 65
1, 145341, Note_on_c, 0, 79, 0
1, 145341, Note_on_c, 0, 81, 60
1, 145421, Note_on_c, 0, 81, 0
1, 145421, Note_on_c, 0, 83, 59
1, 145421, Note_on_c, 0, 64, 50
1, 145424, Note_on_c, 0, 55, 42
1, 145503, Note_on_c, 0, 85, 60
1, 145503, Note_on_c, 0, 55, 0
1, 145503, Note_on_c, 0, 64, 0
1, 145511, Note_on_c, 0, 83, 0
1, 145581, Note_on_c, 0, 86, 61
1, 145581, Note_on_c, 0, 55, 34
1, 145581, Note_on_c, 0, 64, 40
1, 145589, Note_on_c, 0, 85, 0
1, 145658, Note_on_c, 0, 85, 64
1, 145658, Note_on_c, 0, 64, 0
1, 145658, Note_on_c, 0, 55, 0
1, 145666, Note_on_c, 0, 86, 0
1, 145734, Note_on_c, 0, 83, 65
1, 145734, Note_on_c, 0, 64, 40
1, 145734, Note_on_c, 0, 55, 34
1, 145742, Note_on_c, 0, 85, 0
1, 145811, Note_on_c, 0, 81, 66
1, 145811, Note_on_c, 0, 55, 0
1, 145811, Note_on_c, 0, 64, 0
1, 145819, Note_on_c, 0, 83, 0
1, 145887, Note_on_c, 0, 79, 66
1, 145887, Note_on_c, 0, 55, 34
1, 145887, Note_on_c, 0, 64, 40
1, 145895, Note_on_c, 0, 81, 0
1, 145963, Note_on_c, 0, 78, 65
1, 145963, Note_on_c, 0, 64, 0
1, 145963, Note_on_c, 0, 55, 0
1, 145971, Note_on_c, 0, 79, 0
1, 146039, Note_on_c, 0, 76, 63
1, 146039, Note_on_c, 0, 64, 50
1, 146039, Note_on_c, 0, 55, 42
1, 146046, Note_on_c, 0, 78, 0
1, 146114, Note_on_c, 0, 78, 64
1, 146114, Note_on_c, 0, 55, 0
1, 146114, Note_on_c, 0, 64, 0
1, 146122, Note_on_c, 0, 76, 0
1, 146190, Note_on_c, 0, 79, 67
1, 146190, Note_on_c, 0, 64, 40
1, 146190, Note_on_c, 0, 55, 34
1, 146197, Note_on_c, 0, 78, 0
1, 146265, Note_on_c, 0, 78, 70
1, 146265, Note_on_c, 0, 55, 0
1, 146265, Note_on_c, 0, 64, 0
1, 146273, Note_on_c, 0, 79, 0
1, 146341, Note_on_c, 0, 76, 68
1, 146341, Note_on_c, 0, 56, 34
1, 146341, Note_on_c, 0, 64, 40
1, 146349, Note_on_c, 0, 78, 0
1, 146417, Note_on_c, 0, 74, 67
1, 146417, Note_on_c, 0, 64, 0
1, 146417, Note_on_c, 0, 56, 0
1, 146425, Note_on_c, 0, 76, 0
1, 146494, Note_on_c, 0, 73, 65
1, 146494, Note_on_c, 0, 64, 40
1, 146494, Note_on_c, 0, 56, 34
1, 146502, Note_on_c, 0, 74, 0
1, 146570, Note_on_c, 0, 71, 64
1, 146570, Note_on_c, 0, 56, 0
1, 146570, Note_on_c, 0, 64, 0
1, 146578, Note_on_c, 0, 73, 0
1, 146647, Note_on_c, 0, 73, 67
1, 146647, Note_on_c, 0, 57, 48
1, 146655, Note_on_c, 0, 71, 0
1, 146723, Note_on_c, 0, 74, 67
1, 146730, Note_on_c, 0, 73, 0
1, 146798, Note_on_c, 0, 73, 57
1, 146798, Note_on_c, 0, 57, 0
1, 146798, Note_on_c, 0, 55, 42
1, 146806, Note_on_c, 0, 74, 0
1, 146874, Note_on_c, 0, 69, 57
1, 146882, Note_on_c, 0, 73, 0
1, 146956, Note_on_c, 0, 74, 66
1, 146956, Note_on_c, 0, 55, 0
1, 146956, Note_on_c, 0, 54, 42
1, 146963, Note_on_c, 0, 69, 0
1, 147031, Note_on_c, 0, 74, 0
1, 147031, Note_on_c, 0, 54, 0
1, 147107, Note_on_c, 0, 50, 42
1, 147185, Note_on_c, 0, 50, 0
1, 147264, Note_on_c, 0, 79, 66
1, 147264, Note_on_c, 0, 49, 52
1, 147339, Note_on_c, 0, 81, 56
1, 147347, Note_on_c, 0, 79, 0
1, 147415, Note_on_c, 0, 79, 56
1, 147415, Note_on_c, 0, 49, 0
1, 147415, Note_on_c, 0, 45, 46
1, 147422, Note_on_c, 0, 81, 0
1, 147490, Note_on_c, 0, 76, 56
1, 147498, Note_on_c, 0, 79, 0
1, 147566, Note_on_c, 0, 79, 66
1, 147566, Note_on_c, 0, 45, 0
1, 147566, Note_on_c, 0, 50, 46
1, 147573, Note_on_c, 0, 76, 0
1, 147641, Note_on_c, 0, 78, 57
1, 147641, Note_on_c, 0, 50, 0
1, 147649, Note_on_c, 0, 79, 0
1, 147717, Note_on_c, 0, 76, 57
1, 147717, Note_on_c, 0, 54, 46
1, 147724, Note_on_c, 0, 78, 0
1, 147792, Note_on_c, 0, 74, 57
1, 147792, Note_on_c, 0, 54, 0
1, 147800, Note_on_c, 0, 76, 0
1, 147875, Note_on_c, 0, 73, 68
1, 147875, Note_on_c, 0, 57, 53
1, 147882, Note_on_c, 0, 74, 0
1, 147950, Note_on_c, 0, 74, 56
1, 147957, Note_on_c, 0, 73, 0
1, 148025, Note_on_c, 0, 73, 55
1, 148025, Note_on_c, 0, 57, 0
1, 148025, Note_on_c, 0, 55, 46
1, 148032, Note_on_c, 0, 74, 0
1, 148100, Note_on_c, 0, 69, 55
1, 148107, Note_on_c, 0, 73, 0
1, 148175, Note_on_c, 0, 74, 68
1, 148175, Note_on_c, 0, 55, 0
1, 148175, Note_on_c, 0, 54, 47
1, 148182, Note_on_c, 0, 69, 0
1, 148250, Note_on_c, 0, 74, 0
1, 148250, Note_on_c, 0, 54, 0
1, 148325, Note_on_c, 0, 50, 47
1, 148404, Note_on_c, 0, 50, 0
1, 148483, Note_on_c, 0, 79, 68
1, 148483, Note_on_c, 0, 49, 56
1, 148559, Note_on_c, 0, 81, 56
1, 148566, Note_on_c, 0, 79, 0
1, 148634, Note_on_c, 0, 79, 56
1, 148634, Note_on_c, 0, 49, 0
1, 148634, Note_on_c, 0, 45, 49
1, 148642, Note_on_c, 0, 81, 0
1, 148709, Note_on_c, 0, 76, 58
1, 148717, Note_on_c, 0, 79, 0
1, 148785, Note_on_c, 0, 79, 73
1, 148785, Note_on_c, 0, 45, 0
1, 148785, Note_on_c, 0, 50, 50
1, 148792, Note_on_c, 0, 76, 0
1, 148860, Note_on_c, 0, 78, 58
1, 148860, Note_on_c, 0, 50, 0
1, 148868, Note_on_c, 0, 79, 0
1, 148936, Note_on_c, 0, 76, 58
1, 148936, Note_on_c, 0, 54, 50
1, 148944, Note_on_c, 0, 78, 0
1, 149014, Note_on_c, 0, 74, 61
1, 149014, Note_on_c, 0, 54, 0
1, 149022, Note_on_c, 0, 76, 0
1, 149092, Note_on_c, 0, 73, 79
1, 149092, Note_on_c, 0, 57, 60
1, 149092, Note_on_c, 0, 45, 50
1, 149095, Note_on_c, 0, 52, 50
1, 149100, Note_on_c, 0, 74, 0
1, 149167, Note_on_c, 0, 73, 0
1, 149167, Note_on_c, 0, 76, 63
1, 149242, Note_on_c, 0, 76, 0
1, 149242, Note_on_c, 0, 73, 63
1, 149242, Note_on_c, 0, 52, 0
1, 149245, Note_on_c, 0, 45, 0
1, 149245, Note_on_c, 0, 57, 0
1, 149317, Note_on_c, 0, 73, 0
1, 149317, Note_on_c, 0, 69, 63
1, 149397, Note_on_c, 0, 69, 0
1, 149397, Note_on_c, 0, 78, 74
1, 149397, Note_on_c, 0, 57, 60
1, 149400, Note_on_c, 0, 50, 51
1, 149400, Note_on_c, 0, 54, 51
1, 149472, Note_on_c, 0, 78, 0
1, 149472, Note_on_c, 0, 81, 64
1, 149547, Note_on_c, 0, 81, 0
1, 149547, Note_on_c, 0, 78, 64
1, 149547, Note_on_c, 0, 54, 0
1, 149550, Note_on_c, 0, 50, 0
1, 149550, Note_on_c, 0, 57, 0
1, 149628, Note_on_c, 0, 78, 0
1, 149628, Note_on_c, 0, 74, 64
1, 149708, Note_on_c, 0, 74, 0
1, 149708, Note_on_c, 0, 73, 77
1, 149708, Note_on_c, 0, 57, 61
1, 149711, Note_on_c, 0, 45, 51
1, 149711, Note_on_c, 0, 52, 51
1, 149784, Note_on_c, 0, 73, 0
1, 149784, Note_on_c, 0, 76, 59
1, 149860, Note_on_c, 0, 76, 0
1, 149860, Note_on_c, 0, 73, 60
1, 149860, Note_on_c, 0, 52, 0
1, 149863, Note_on_c, 0, 45, 0
1, 149863, Note_on_c, 0, 57, 0
1, 149936, Note_on_c, 0, 73, 0
1, 149936, Note_on_c, 0, 69, 60
1, 150016, Note_on_c, 0, 69, 0
1, 150016, Note_on_c, 0, 78, 77
1, 150016, Note_on_c, 0, 54, 52
1, 150019, Note_on_c, 0, 50, 52
1, 150019, Note_on_c, 0, 57, 62
1, 150092, Note_on_c, 0, 78, 0
1, 150092, Note_on_c, 0, 81, 64
1, 150167, Note_on_c, 0, 81, 0
1, 150167, Note_on_c, 0, 78, 64
1, 150167, Note_on_c, 0, 57, 0
1, 150170, Note_on_c, 0, 50, 0
1, 150170, Note_on_c, 0, 54, 0
1, 150248, Note_on_c, 0, 78, 0
1, 150248, Note_on_c, 0, 74, 64
1, 150328, Note_on_c, 0, 74, 0
1, 150328, Note_on_c, 0, 76, 84
1, 150328, Note_on_c, 0, 73, 69
1, 150386, Note_on_c, 0, 73, 0
1, 150386, Note_on_c, 0, 76, 0
1, 150482, Note_on_c, 0, 76, 60
1, 150482, Note_on_c, 0, 81, 74
1, 150482, Note_on_c, 0, 73, 60
1, 150485, Note_on_c, 0, 52, 45
1, 150485, Note_on_c, 0, 45, 45
1, 150485, Note_on_c, 0, 49, 45
1, 150488, Note_on_c, 0, 57, 55
1, 150540, Note_on_c, 0, 73, 0
1, 150540, Note_on_c, 0, 81, 0
1, 150540, Note_on_c, 0, 76, 0
1, 150543, Note_on_c, 0, 57, 0
1, 150543, Note_on_c, 0, 52, 0
1, 150543, Note_on_c, 0, 45, 0
1, 150546, Note_on_c, 0, 49, 0
1, 150636, Note_on_c, 0, 81, 74
1, 150636, Note_on_c, 0, 73, 60
1, 150636, Note_on_c, 0, 76, 60
1, 150639, Note_on_c, 0, 52, 45
1, 150639, Note_on_c, 0, 49, 45
1, 150639, Note_on_c, 0, 45, 45
1, 150642, Note_on_c, 0, 57, 55
1, 150694, Note_on_c, 0, 76, 0
1, 150694, Note_on_c, 0, 73, 0
1, 150694, Note_on_c, 0, 81, 0
1, 150697, Note_on_c, 0, 57, 0
1, 150697, Note_on_c, 0, 52, 0
1, 150697, Note_on_c, 0, 49, 0
1, 150700, Note_on_c, 0, 45, 0
1, 150790, Note_on_c, 0, 73, 60
1, 150790, Note_on_c, 0, 76, 60
1, 150790, Note_on_c, 0, 81, 74
1, 150793, Note_on_c, 0, 52, 45
1, 150793, Note_on_c, 0, 49, 45
1, 150793, Note_on_c, 0, 45, 45
1, 150796, Note_on_c, 0, 57, 55
1, 150848, Note_on_c, 0, 81, 0
1, 150848, Note_on_c, 0, 76, 0
1, 150848, Note_on_c, 0, 73, 0
1, 150851, Note_on_c, 0, 57, 0
1, 150851, Note_on_c, 0, 52, 0
1, 150851, Note_on_c, 0, 49, 0
1, 150854, Note_on_c, 0, 45, 0
1, 150944, Note_on_c, 0, 81, 74
1, 150944, Note_on_c, 0, 73, 60
1, 150944, Note_on_c, 0, 76, 60
1, 150947, Note_on_c, 0, 49, 49
1, 150947, Note_on_c, 0, 57, 58
1, 150947, Note_on_c, 0, 45, 49
1, 150950, Note_on_c, 0, 52, 49
1, 151274, Note_on_c, 0, 76, 0
1, 151274, Note_on_c, 0, 73, 0
1, 151274, Note_on_c, 0, 81, 0
1, 151277, Note_on_c, 0, 79, 41
1, 151277, Note_on_c, 0, 52, 0
1, 151277, Note_on_c, 0, 49, 0
1, 151280, Note_on_c, 0, 57, 0
1, 151280, Note_on_c, 0, 45, 0
1, 151312, Note_on_c, 0, 79, 0
1, 151312, Note_on_c, 0, 78, 42
1, 151390, Note_on_c, 0, 78, 0
1, 151390, Note_on_c, 0, 76, 40
1, 151467, Note_on_c, 0, 76, 0
1, 151467, Note_on_c, 0, 78, 40
1, 151545, Note_on_c, 0, 78, 0
1, 151545, Note_on_c, 0, 79, 40
1, 151632, Note_on_c, 0, 79, 0
1, 151632, Note_on_c, 0, 80, 45
1, 151632, Note_on_c, 0, 62, 30
1, 151661, Control_c, 0, 64, 127
1, 151791, Note_on_c, 0, 80, 0
1, 151791, Note_on_c, 0, 81, 42
1, 151791, Note_on_c, 0, 62, 0
1, 151794, Note_on_c, 0, 66, 23
1, 151828, Control_c, 0, 64, 0
1, 151946, Note_on_c, 0, 81, 0
1, 151946, Note_on_c, 0, 66, 0
1, 151946, Note_on_c, 0, 64, 30
1, 152109, Note_on_c, 0, 81, 40
1, 152109, Note_on_c, 0, 64, 0
1, 152109, Note_on_c, 0, 67, 27
1, 152263, Note_on_c, 0, 81, 0
1, 152263, Note_on_c, 0, 86, 46
1, 152263, Note_on_c, 0, 67, 0
1, 152266, Note_on_c, 0, 66, 32
1, 152329, Control_c, 0, 64, 127
1, 152417, Note_on_c, 0, 86, 0
1, 152417, Note_on_c, 0, 85, 42
1, 152417, Note_on_c, 0, 66, 0
1, 152420, Note_on_c, 0, 69, 26
1, 152424, Control_c, 0, 64, 0
1, 152571, Note_on_c, 0, 85, 0
1, 152571, Note_on_c, 0, 83, 44
1, 152571, Note_on_c, 0, 69, 0
1, 152574, Note_on_c, 0, 62, 29
1, 152725, Note_on_c, 0, 83, 0
1, 152725, Note_on_c, 0, 81, 42
1, 152725, Note_on_c, 0, 62, 0
1, 152728, Note_on_c, 0, 66, 26
1, 152888, Note_on_c, 0, 81, 0
1, 152888, Note_on_c, 0, 78, 48
1, 152888, Note_on_c, 0, 66, 0
1, 152891, Note_on_c, 0, 64, 34
1, 152920, Control_c, 0, 64, 127
1, 153046, Note_on_c, 0, 78, 0
1, 153046, Note_on_c, 0, 79, 42
1, 153046, Note_on_c, 0, 64, 0
1, 153049, Note_on_c, 0, 71, 28
1, 153055, Control_c, 0, 64, 0
1, 153198, Note_on_c, 0, 79, 0
1, 153198, Note_on_c, 0, 71, 0
1, 153198, Note_on_c, 0, 67, 32
1, 153360, Note_on_c, 0, 79, 40
1, 153360, Note_on_c, 0, 67, 0
1, 153360, Note_on_c, 0, 64, 28
1, 153515, Note_on_c, 0, 79, 0
1, 153515, Note_on_c, 0, 81, 45
1, 153515, Note_on_c, 0, 64, 0
1, 153518, Note_on_c, 0, 61, 34
1, 153669, Note_on_c, 0, 81, 0
1, 153669, Note_on_c, 0, 79, 42
1, 153669, Note_on_c, 0, 61, 0
1, 153672, Note_on_c, 0, 64, 29
1, 153823, Note_on_c, 0, 79, 0
1, 153823, Note_on_c, 0, 78, 45
1, 153823, Note_on_c, 0, 64, 0
1, 153826, Note_on_c, 0, 57, 30
1, 153977, Note_on_c, 0, 78, 0
1, 153977, Note_on_c, 0, 76, 42
1, 153977, Note_on_c, 0, 57, 0
1, 153980, Note_on_c, 0, 67, 28
1, 154141, Note_on_c, 0, 76, 0
1, 154141, Note_on_c, 0, 73, 48
1, 154141, Note_on_c, 0, 67, 0
1, 154144, Note_on_c, 0, 66, 34
1, 154168, Control_c, 0, 64, 127
1, 154296, Note_on_c, 0, 73, 0
1, 154296, Note_on_c, 0, 74, 44
1, 154296, Note_on_c, 0, 66, 0
1, 154299, Note_on_c, 0, 69, 28
1, 154299, Control_c, 0, 64, 0
1, 154448, Note_on_c, 0, 74, 0
1, 154448, Note_on_c, 0, 69, 0
1, 154448, Note_on_c, 0, 61, 30
1, 154600, Note_on_c, 0, 76, 45
1, 154600, Note_on_c, 0, 61, 0
1, 154600, Note_on_c, 0, 69, 28
1, 154759, Note_on_c, 0, 76, 0
1, 154759, Note_on_c, 0, 77, 50
1, 154759, Note_on_c, 0, 69, 0
1, 154762, Note_on_c, 0, 62, 34
1, 154793, Control_c, 0, 64, 127
1, 154914, Note_on_c, 0, 77, 0
1, 154914, Note_on_c, 0, 78, 46
1, 154914, Note_on_c, 0, 62, 0
1, 154917, Note_on_c, 0, 69, 26
1, 154923, Control_c, 0, 64, 0
1, 155065, Note_on_c, 0, 78, 0
1, 155065, Note_on_c, 0, 69, 0
1, 155065, Note_on_c, 0, 59, 29
1, 155179, Note_on_c, 0, 81, 42
1, 155216, Note_on_c, 0, 81, 0
1, 155216, Note_on_c, 0, 79, 47
1, 155216, Note_on_c, 0, 59, 0
1, 155219, Note_on_c, 0, 62, 26
1, 155378, Note_on_c, 0, 79, 0
1, 155378, Note_on_c, 0, 78, 51
1, 155378, Note_on_c, 0, 62, 0
1, 155381, Note_on_c, 0, 57, 34
1, 155423, Control_c, 0, 64, 127
1, 155537, Note_on_c, 0, 57, 0
1, 155537, Note_on_c, 0, 62, 27
1, 155695, Note_on_c, 0, 62, 0
1, 155695, Note_on_c, 0, 66, 30
1, 155853, Note_on_c, 0, 78, 0
1, 155853, Note_on_c, 0, 79, 44
1, 155853, Note_on_c, 0, 66, 0
1, 155856, Note_on_c, 0, 62, 27
1, 155933, Note_on_c, 0, 79, 0
1, 155933, Note_on_c, 0, 78, 42
1, 156012, Note_on_c, 0, 78, 0
1, 156012, Note_on_c, 0, 76, 47
1, 156012, Note_on_c, 0, 62, 0
1, 156015, Note_on_c, 0, 61, 33
1, 156015, Note_on_c, 0, 57, 33
1, 156020, Control_c, 0, 64, 0
1, 156179, Note_on_c, 0, 76, 0
1, 156179, Note_on_c, 0, 78, 42
1, 156259, Note_on_c, 0, 78, 0
1, 156339, Note_on_c, 0, 79, 44
1, 156339, Note_on_c, 0, 57, 0
1, 156339, Note_on_c, 0, 61, 0
1, 156419, Note_on_c, 0, 79, 0
1, 156499, Note_on_c, 0, 80, 47
1, 156583, Note_on_c, 0, 80, 0
1, 156667, Note_on_c, 0, 80, 45
1, 156667, Note_on_c, 0, 62, 34
1, 156667, Control_c, 0, 64, 127
1, 156831, Note_on_c, 0, 80, 0
1, 156831, Note_on_c, 0, 81, 42
1, 156831, Note_on_c, 0, 62, 0
1, 156834, Note_on_c, 0, 65, 27
1, 156839, Control_c, 0, 64, 0
1, 156987, Note_on_c, 0, 81, 0
1, 156987, Note_on_c, 0, 65, 0
1, 156987, Note_on_c, 0, 64, 30
1, 157003, Control_c, 0, 64, 127
1, 157150, Note_on_c, 0, 81, 40
1, 157150, Note_on_c, 0, 64, 0
1, 157150, Note_on_c, 0, 67, 27
1, 157150, Control_c, 0, 64, 0
1, 157304, Note_on_c, 0, 81, 0
1, 157304, Note_on_c, 0, 86, 46
1, 157304, Note_on_c, 0, 67, 0
1, 157307, Note_on_c, 0, 65, 32
1, 157358, Control_c, 0, 64, 127
1, 157381, Note_on_c, 0, 86, 0
1, 157458, Note_on_c, 0, 84, 42
1, 157458, Note_on_c, 0, 65, 0
1, 157458, Note_on_c, 0, 69, 26
1, 157485, Control_c, 0, 64, 0
1, 157535, Note_on_c, 0, 84, 0
1, 157535, Note_on_c, 0, 69, 0
1, 157612, Note_on_c, 0, 82, 44
1, 157612, Note_on_c, 0, 62, 29
1, 157689, Note_on_c, 0, 82, 0
1, 157766, Note_on_c, 0, 81, 42
1, 157766, Note_on_c, 0, 62, 0
1, 157766, Note_on_c, 0, 65, 26
1, 157848, Note_on_c, 0, 81, 0
1, 157848, Note_on_c, 0, 65, 0
1, 157929, Note_on_c, 0, 78, 48
1, 157929, Note_on_c, 0, 64, 34
1, 157957, Control_c, 0, 64, 127
1, 158086, Note_on_c, 0, 78, 0
1, 158086, Note_on_c, 0, 79, 42
1, 158086, Note_on_c, 0, 64, 0
1, 158089, Note_on_c, 0, 70, 28
1, 158111, Control_c, 0, 64, 0
1, 158238, Note_on_c, 0, 79, 0
1, 158238, Note_on_c, 0, 70, 0
1, 158238, Note_on_c, 0, 67, 32
1, 158245, Control_c, 0, 64, 127
1, 158397, Control_c, 0, 64, 0
1, 158401, Note_on_c, 0, 81, 40
1, 158401, Note_on_c, 0, 67, 0
1, 158401, Note_on_c, 0, 64, 28
1, 158440, Note_on_c, 0, 81, 0
1, 158440, Note_on_c, 0, 79, 37
1, 158478, Note_on_c, 0, 79, 0
1, 158478, Note_on_c, 0, 78, 37
1, 158517, Note_on_c, 0, 78, 0
1, 158517, Note_on_c, 0, 79, 37
1, 158555, Note_on_c, 0, 79, 0
1, 158555, Note_on_c, 0, 81, 45
1, 158555, Note_on_c, 0, 64, 0
1, 158558, Note_on_c, 0, 61, 34
1, 158582, Control_c, 0, 64, 127
1, 158632, Note_on_c, 0, 81, 0
1, 158709, Note_on_c, 0, 79, 42
1, 158709, Note_on_c, 0, 61, 0
1, 158709, Note_on_c, 0, 64, 29
1, 158716, Control_c, 0, 64, 0
1, 158786, Note_on_c, 0, 79, 0
1, 158786, Note_on_c, 0, 64, 0
1, 158863, Note_on_c, 0, 77, 45
1, 158863, Note_on_c, 0, 57, 30
1, 158940, Note_on_c, 0, 77, 0
1, 159017, Note_on_c, 0, 76, 42
1, 159017, Note_on_c, 0, 57, 0
1, 159017, Note_on_c, 0, 61, 28
1, 159100, Note_on_c, 0, 76, 0
1, 159100, Note_on_c, 0, 61, 0
1, 159182, Note_on_c, 0, 79, 45
1, 159182, Note_on_c, 0, 62, 34
1, 159227, Control_c, 0, 64, 127
1, 159341, Note_on_c, 0, 79, 0
1, 159341, Note_on_c, 0, 77, 42
1, 159341, Note_on_c, 0, 62, 0
1, 159344, Note_on_c, 0, 69, 27
1, 159350, Control_c, 0, 64, 0
1, 159496, Note_on_c, 0, 77, 0
1, 159496, Note_on_c, 0, 69, 0
1, 159496, Note_on_c, 0, 60, 30
1, 159513, Control_c, 0, 64, 127
1, 159659, Note_on_c, 0, 76, 40
1, 159659, Note_on_c, 0, 60, 0
1, 159659, Note_on_c, 0, 69, 27
1, 159659, Control_c, 0, 64, 0
1, 159813, Note_on_c, 0, 76, 0
1, 159813, Note_on_c, 0, 73, 46
1, 159813, Note_on_c, 0, 69, 0
1, 159816, Note_on_c, 0, 58, 32
1, 159867, Control_c, 0, 64, 127
1, 159967, Note_on_c, 0, 73, 0
1, 159967, Note_on_c, 0, 74, 42
1, 159967, Note_on_c, 0, 58, 0
1, 159970, Note_on_c, 0, 65, 26
1, 159994, Control_c, 0, 64, 0
1, 160121, Note_on_c, 0, 74, 0
1, 160121, Note_on_c, 0, 65, 0
1, 160121, Note_on_c, 0, 64, 29
1, 160275, Note_on_c, 0, 80, 46
1, 160275, Note_on_c, 0, 64, 0
1, 160275, Note_on_c, 0, 62, 26
1, 160438, Note_on_c, 0, 80, 0
1, 160438, Note_on_c, 0, 80, 49
1, 160438, Note_on_c, 0, 62, 0
1, 160441, Note_on_c, 0, 57, 33
1, 160539, Control_c, 0, 64, 127
1, 160601, Note_on_c, 0, 57, 0
1, 160601, Note_on_c, 0, 62, 22
1, 160764, Note_on_c, 0, 62, 0
1, 160764, Note_on_c, 0, 65, 28
1, 160927, Note_on_c, 0, 65, 0
1, 160927, Note_on_c, 0, 62, 24
1, 161090, Note_on_c, 0, 80, 0
1, 161090, Note_on_c, 0, 81, 42
1, 161090, Note_on_c, 0, 62, 0
1, 161093, Note_on_c, 0, 61, 31
1, 161093, Note_on_c, 0, 57, 24
1, 161113, Control_c, 0, 64, 0
1, 161253, Note_on_c, 0, 81, 0
1, 161253, Note_on_c, 0, 57, 0
1, 161253, Note_on_c, 0, 61, 0
1, 161256, Note_on_c, 0, 43, 45
1, 161256, Note_on_c, 0, 55, 53
1, 161335, Note_on_c, 0, 55, 0
1, 161335, Note_on_c, 0, 43, 0
1, 161416, Note_on_c, 0, 42, 48
1, 161416, Note_on_c, 0, 54, 57
1, 161498, Note_on_c, 0, 54, 0
1, 161498, Note_on_c, 0, 42, 0
1, 161579, Note_on_c, 0, 52, 61
1, 161579, Note_on_c, 0, 40, 51
1, 161661, Note_on_c, 0, 40, 0
1, 161661, Note_on_c, 0, 52, 0
1, 161742, Note_on_c, 0, 78, 46
1, 161742, Note_on_c, 0, 50, 65
1, 161742, Note_on_c, 0, 38, 55
1, 161745, Control_c, 0, 64, 0
1, 161825, Note_on_c, 0, 78, 0
1, 161825, Note_on_c, 0, 81, 44
1, 161908, Note_on_c, 0, 81, 0
1, 161908, Note_on_c, 0, 80, 47
1, 161985, Note_on_c, 0, 80, 0
1, 161985, Note_on_c, 0, 81, 43
1, 162062, Note_on_c, 0, 81, 0
1, 162062, Note_on_c, 0, 83, 50
1, 162062, Note_on_c, 0, 38, 0
1, 162065, Note_on_c, 0, 50, 0
1, 162139, Note_on_c, 0, 83, 0
1, 162139, Note_on_c, 0, 81, 47
1, 162216, Note_on_c, 0, 81, 0
1, 162216, Note_on_c, 0, 80, 53
1, 162216, Note_on_c, 0, 74, 49
1, 162298, Note_on_c, 0, 80, 0
1, 162298, Note_on_c, 0, 81, 53
1, 162298, Note_on_c, 0, 74, 0
1, 162380, Note_on_c, 0, 81, 0
1, 162380, Note_on_c, 0, 79, 62
1, 162380, Note_on_c, 0, 76, 55
1, 162459, Note_on_c, 0, 79, 0
1, 162459, Note_on_c, 0, 81, 53
1, 162459, Note_on_c, 0, 76, 0
1, 162537, Note_on_c, 0, 81, 0
1, 162537, Note_on_c, 0, 79, 55
1, 162537, Note_on_c, 0, 74, 49
1, 162614, Note_on_c, 0, 79, 0
1, 162614, Note_on_c, 0, 81, 52
1, 162614, Note_on_c, 0, 74, 0
1, 162691, Note_on_c, 0, 81, 0
1, 162691, Note_on_c, 0, 79, 64
1, 162691, Note_on_c, 0, 73, 58
1, 162768, Note_on_c, 0, 79, 0
1, 162768, Note_on_c, 0, 81, 51
1, 162768, Note_on_c, 0, 73, 0
1, 162845, Note_on_c, 0, 81, 0
1, 162845, Note_on_c, 0, 79, 55
1, 162845, Note_on_c, 0, 69, 48
1, 162927, Note_on_c, 0, 79, 0
1, 162927, Note_on_c, 0, 81, 49
1, 162927, Note_on_c, 0, 69, 0
1, 163008, Note_on_c, 0, 81, 0
1, 163008, Note_on_c, 0, 78, 56
1, 163008, Note_on_c, 0, 74, 54
1, 163011, Control_c, 0, 64, 0
1, 163091, Note_on_c, 0, 78, 0
1, 163091, Note_on_c, 0, 81, 49
1, 163174, Note_on_c, 0, 81, 0
1, 163174, Note_on_c, 0, 80, 51
1, 163250, Note_on_c, 0, 80, 0
1, 163250, Note_on_c, 0, 81, 47
1, 163327, Note_on_c, 0, 81, 0
1, 163327, Note_on_c, 0, 83, 54
1, 163327, Note_on_c, 0, 74, 0
1, 163403, Note_on_c, 0, 83, 0
1, 163403, Note_on_c, 0, 81, 47
1, 163480, Note_on_c, 0, 81, 0
1, 163480, Note_on_c, 0, 80, 51
1, 163480, Note_on_c, 0, 62, 49
1, 163560, Note_on_c, 0, 80, 0
1, 163560, Note_on_c, 0, 81, 53
1, 163560, Note_on_c, 0, 62, 0
1, 163641, Note_on_c, 0, 81, 0
1, 163641, Note_on_c, 0, 79, 59
1, 163641, Note_on_c, 0, 64, 55
1, 163720, Note_on_c, 0, 79, 0
1, 163720, Note_on_c, 0, 81, 50
1, 163720, Note_on_c, 0, 64, 0
1, 163800, Note_on_c, 0, 81, 0
1, 163800, Note_on_c, 0, 79, 55
1, 163800, Note_on_c, 0, 62, 48
1, 163877, Note_on_c, 0, 79, 0
1, 163877, Note_on_c, 0, 81, 52
1, 163877, Note_on_c, 0, 62, 0
1, 163954, Note_on_c, 0, 81, 0
1, 163954, Note_on_c, 0, 79, 62
1, 163954, Note_on_c, 0, 61, 54
1, 164031, Note_on_c, 0, 79, 0
1, 164031, Note_on_c, 0, 81, 49
1, 164031, Note_on_c, 0, 61, 0
1, 164108, Note_on_c, 0, 81, 0
1, 164108, Note_on_c, 0, 79, 55
1, 164108, Note_on_c, 0, 57, 47
1, 164189, Note_on_c, 0, 79, 0
1, 164189, Note_on_c, 0, 81, 49
1, 164189, Note_on_c, 0, 57, 0
1, 164271, Note_on_c, 0, 81, 0
1, 164271, Note_on_c, 0, 74, 41
1, 164271, Note_on_c, 0, 62, 52
1, 164350, Note_on_c, 0, 62, 0
1, 164350, Note_on_c, 0, 69, 35
1, 164430, Note_on_c, 0, 69, 0
1, 164430, Note_on_c, 0, 68, 42
1, 164507, Note_on_c, 0, 68, 0
1, 164507, Note_on_c, 0, 69, 38
1, 164584, Note_on_c, 0, 74, 0
1, 164584, Note_on_c, 0, 69, 0
1, 164584, Note_on_c, 0, 71, 47
1, 164661, Note_on_c, 0, 71, 0
1, 164661, Note_on_c, 0, 69, 39
1, 164738, Note_on_c, 0, 86, 57
1, 164738, Note_on_c, 0, 69, 0
1, 164738, Note_on_c, 0, 68, 44
1, 164817, Note_on_c, 0, 86, 0
1, 164817, Note_on_c, 0, 68, 0
1, 164817, Note_on_c, 0, 69, 40
1, 164896, Note_on_c, 0, 88, 63
1, 164896, Note_on_c, 0, 69, 0
1, 164896, Note_on_c, 0, 67, 47
1, 164975, Note_on_c, 0, 88, 0
1, 164975, Note_on_c, 0, 67, 0
1, 164975, Note_on_c, 0, 69, 39
1, 165054, Note_on_c, 0, 86, 58
1, 165054, Note_on_c, 0, 69, 0
1, 165054, Note_on_c, 0, 67, 41
1, 165131, Note_on_c, 0, 86, 0
1, 165131, Note_on_c, 0, 67, 0
1, 165131, Note_on_c, 0, 69, 39
1, 165208, Note_on_c, 0, 85, 63
1, 165208, Note_on_c, 0, 69, 0
1, 165208, Note_on_c, 0, 67, 49
1, 165285, Note_on_c, 0, 85, 0
1, 165285, Note_on_c, 0, 67, 0
1, 165285, Note_on_c, 0, 69, 39
1, 165362, Note_on_c, 0, 81, 58
1, 165362, Note_on_c, 0, 69, 0
1, 165362, Note_on_c, 0, 67, 44
1, 165443, Note_on_c, 0, 81, 0
1, 165443, Note_on_c, 0, 67, 0
1, 165443, Note_on_c, 0, 69, 39
1, 165525, Note_on_c, 0, 86, 60
1, 165525, Note_on_c, 0, 69, 0
1, 165525, Note_on_c, 0, 66, 39
1, 165607, Note_on_c, 0, 66, 0
1, 165607, Note_on_c, 0, 69, 38
1, 165690, Note_on_c, 0, 69, 0
1, 165690, Note_on_c, 0, 68, 41
1, 165767, Note_on_c, 0, 68, 0
1, 165767, Note_on_c, 0, 69, 37
1, 165844, Note_on_c, 0, 86, 0
1, 165844, Note_on_c, 0, 69, 0
1, 165844, Note_on_c, 0, 71, 40
1, 165921, Note_on_c, 0, 71, 0
1, 165921, Note_on_c, 0, 69, 37
1, 165998, Note_on_c, 0, 50, 57
1, 165998, Note_on_c, 0, 69, 0
1, 165998, Note_on_c, 0, 68, 44
1, 166078, Note_on_c, 0, 50, 0
1, 166078, Note_on_c, 0, 68, 0
1, 166078, Note_on_c, 0, 69, 40
1, 166159, Note_on_c, 0, 52, 63
1, 166159, Note_on_c, 0, 69, 0
1, 166159, Note_on_c, 0, 67, 47
1, 166239, Note_on_c, 0, 52, 0
1, 166239, Note_on_c, 0, 67, 0
1, 166239, Note_on_c, 0, 69, 42
1, 166319, Note_on_c, 0, 50, 58
1, 166319, Note_on_c, 0, 69, 0
1, 166319, Note_on_c, 0, 67, 44
1, 166396, Note_on_c, 0, 50, 0
1, 166396, Note_on_c, 0, 67, 0
1, 166396, Note_on_c, 0, 69, 39
1, 166472, Note_on_c, 0, 49, 60
1, 166472, Note_on_c, 0, 69, 0
1, 166472, Note_on_c, 0, 67, 49
1, 166549, Note_on_c, 0, 49, 0
1, 166549, Note_on_c, 0, 67, 0
1, 166549, Note_on_c, 0, 69, 43
1, 166625, Note_on_c, 0, 45, 58
1, 166625, Note_on_c, 0, 69, 0
1, 166625, Note_on_c, 0, 67, 47
1, 166707, Note_on_c, 0, 45, 0
1, 166707, Note_on_c, 0, 67, 0
1, 166707, Note_on_c, 0, 69, 39
1, 166788, Note_on_c, 0, 50, 60
1, 166788, Note_on_c, 0, 69, 0
1, 166788, Note_on_c, 0, 66, 41
1, 167114, Note_on_c, 0, 50, 0
1, 167114, Note_on_c, 0, 81, 50
1, 167114, Note_on_c, 0, 66, 0
1, 167117, Note_on_c, 0, 66, 35
1, 167151, Control_c, 0, 64, 127
1, 167193, Note_on_c, 0, 66, 0
1, 167193, Note_on_c, 0, 74, 29
1, 167273, Note_on_c, 0, 74, 0
1, 167273, Note_on_c, 0, 66, 29
1, 167352, Note_on_c, 0, 66, 0
1, 167352, Note_on_c, 0, 74, 29
1, 167431, Note_on_c, 0, 81, 0
1, 167431, Note_on_c, 0, 79, 47
1, 167431, Note_on_c, 0, 74, 0
1, 167434, Note_on_c, 0, 64, 35
1, 167439, Control_c, 0, 64, 0
1, 167511, Note_on_c, 0, 64, 0
1, 167511, Note_on_c, 0, 74, 30
1, 167516, Control_c, 0, 64, 127
1, 167592, Note_on_c, 0, 74, 0
1, 167592, Note_on_c, 0, 64, 30
1, 167672, Note_on_c, 0, 64, 0
1, 167672, Note_on_c, 0, 74, 30
1, 167752, Note_on_c, 0, 79, 0
1, 167752, Note_on_c, 0, 78, 46
1, 167752, Note_on_c, 0, 74, 0
1, 167755, Note_on_c, 0, 62, 35
1, 167761, Control_c, 0, 64, 0
1, 167836, Note_on_c, 0, 62, 0
1, 167836, Note_on_c, 0, 74, 31
1, 167846, Control_c, 0, 64, 127
1, 167920, Note_on_c, 0, 74, 0
1, 167920, Note_on_c, 0, 62, 31
1, 168004, Note_on_c, 0, 62, 0
1, 168004, Note_on_c, 0, 74, 31
1, 168088, Note_on_c, 0, 78, 0
1, 168088, Note_on_c, 0, 83, 50
1, 168088, Note_on_c, 0, 74, 0
1, 168091, Note_on_c, 0, 67, 35
1, 168091, Control_c, 0, 64, 0
1, 168110, Control_c, 0, 64, 127
1, 168169, Note_on_c, 0, 67, 0
1, 168169, Note_on_c, 0, 74, 30
1, 168250, Note_on_c, 0, 74, 0
1, 168250, Note_on_c, 0, 73, 30
1, 168331, Note_on_c, 0, 83, 0
1, 168331, Note_on_c, 0, 85, 45
1, 168331, Note_on_c, 0, 73, 0
1, 168334, Note_on_c, 0, 74, 30
1, 168360, Note_on_c, 0, 85, 0
1, 168360, Note_on_c, 0, 83, 45
1, 168390, Note_on_c, 0, 83, 0
1, 168390, Note_on_c, 0, 81, 45
1, 168420, Note_on_c, 0, 83, 50
1, 168420, Note_on_c, 0, 81, 0
1, 168420, Note_on_c, 0, 74, 0
1, 168423, Note_on_c, 0, 67, 35
1, 168423, Control_c, 0, 64, 0
1, 168500, Note_on_c, 0, 83, 0
1, 168500, Note_on_c, 0, 67, 0
1, 168500, Note_on_c, 0, 74, 30
1, 168581, Note_on_c, 0, 85, 47
1, 168581, Note_on_c, 0, 74, 0
1, 168581, Note_on_c, 0, 73, 30
1, 168665, Note_on_c, 0, 85, 0
1, 168665, Note_on_c, 0, 73, 0
1, 168665, Note_on_c, 0, 74, 30
1, 168748, Note_on_c, 0, 88, 50
1, 168748, Note_on_c, 0, 74, 0
1, 168748, Note_on_c, 0, 67, 30
1, 168762, Control_c, 0, 64, 127
1, 168828, Note_on_c, 0, 67, 0
1, 168828, Note_on_c, 0, 74, 32
1, 168908, Note_on_c, 0, 88, 0
1, 168908, Note_on_c, 0, 86, 45
1, 168908, Note_on_c, 0, 74, 0
1, 168911, Note_on_c, 0, 73, 32
1, 168916, Control_c, 0, 64, 0
1, 168948, Control_c, 0, 64, 127
1, 168988, Note_on_c, 0, 86, 0
1, 168988, Note_on_c, 0, 73, 0
1, 168988, Note_on_c, 0, 74, 32
1, 169067, Note_on_c, 0, 85, 47
1, 169067, Note_on_c, 0, 74, 0
1, 169067, Note_on_c, 0, 67, 34
1, 169074, Control_c, 0, 64, 0
1, 169107, Control_c, 0, 64, 127
1, 169147, Note_on_c, 0, 67, 0
1, 169147, Note_on_c, 0, 74, 30
1, 169227, Note_on_c, 0, 85, 0
1, 169227, Note_on_c, 0, 83, 45
1, 169227, Note_on_c, 0, 74, 0
1, 169230, Note_on_c, 0, 73, 30
1, 169235, Control_c, 0, 64, 0
1, 169269, Control_c, 0, 64, 127
1, 169313, Note_on_c, 0, 83, 0
1, 169313, Note_on_c, 0, 73, 0
1, 169313, Note_on_c, 0, 74, 30
1, 169400, Note_on_c, 0, 81, 50
1, 169400, Note_on_c, 0, 74, 0
1, 169400, Note_on_c, 0, 66, 37
1, 169403, Control_c, 0, 64, 0
1, 169485, Note_on_c, 0, 66, 0
1, 169485, Note_on_c, 0, 74, 37
1, 169570, Note_on_c, 0, 81, 0
1, 169570, Note_on_c, 0, 74, 0
1, 169570, Note_on_c, 0, 73, 28
1, 169656, Note_on_c, 0, 73, 0
1, 169656, Note_on_c, 0, 74, 28
1, 169741, Note_on_c, 0, 81, 60
1, 169741, Note_on_c, 0, 74, 0
1, 169741, Note_on_c, 0, 66, 45
1, 169778, Control_c, 0, 64, 127
1, 169820, Note_on_c, 0, 66, 0
1, 169820, Note_on_c, 0, 74, 37
1, 169899, Note_on_c, 0, 74, 0
1, 169899, Note_on_c, 0, 66, 37
1, 169978, Note_on_c, 0, 66, 0
1, 169978, Note_on_c, 0, 74, 37
1, 170058, Note_on_c, 0, 81, 0
1, 170058, Note_on_c, 0, 79, 60
1, 170058, Note_on_c, 0, 74, 0
1, 170061, Note_on_c, 0, 64, 45
1, 170066, Control_c, 0, 64, 0
1, 170138, Note_on_c, 0, 64, 0
1, 170138, Note_on_c, 0, 74, 39
1, 170143, Control_c, 0, 64, 127
1, 170218, Note_on_c, 0, 74, 0
1, 170218, Note_on_c, 0, 64, 39
1, 170299, Note_on_c, 0, 64, 0
1, 170299, Note_on_c, 0, 74, 39
1, 170379, Note_on_c, 0, 79, 0
1, 170379, Note_on_c, 0, 78, 59
1, 170379, Note_on_c, 0, 74, 0
1, 170382, Note_on_c, 0, 62, 45
1, 170387, Control_c, 0, 64, 0
1, 170463, Note_on_c, 0, 62, 0
1, 170463, Note_on_c, 0, 74, 40
1, 170473, Control_c, 0, 64, 127
1, 170547, Note_on_c, 0, 74, 0
1, 170547, Note_on_c, 0, 62, 40
1, 170631, Note_on_c, 0, 62, 0
1, 170631, Note_on_c, 0, 74, 40
1, 170715, Note_on_c, 0, 78, 0
1, 170715, Note_on_c, 0, 76, 68
1, 170715, Note_on_c, 0, 74, 0
1, 170718, Note_on_c, 0, 55, 45
1, 170718, Control_c, 0, 64, 0
1, 170737, Control_c, 0, 64, 127
1, 170795, Note_on_c, 0, 55, 0
1, 170795, Note_on_c, 0, 64, 39
1, 170876, Note_on_c, 0, 64, 0
1, 170876, Note_on_c, 0, 59, 39
1, 170957, Note_on_c, 0, 76, 0
1, 170957, Note_on_c, 0, 83, 53
1, 170957, Note_on_c, 0, 59, 0
1, 170960, Note_on_c, 0, 64, 39
1, 171047, Note_on_c, 0, 83, 0
1, 171047, Note_on_c, 0, 81, 60
1, 171047, Note_on_c, 0, 64, 0
1, 171050, Note_on_c, 0, 55, 45
1, 171050, Control_c, 0, 64, 0
1, 171077, Control_c, 0, 64, 127
1, 171127, Note_on_c, 0, 81, 0
1, 171127, Note_on_c, 0, 79, 58
1, 171127, Note_on_c, 0, 55, 0
1, 171130, Note_on_c, 0, 64, 39
1, 171207, Note_on_c, 0, 79, 0
1, 171207, Note_on_c, 0, 78, 58
1, 171207, Note_on_c, 0, 64, 0
1, 171210, Note_on_c, 0, 59, 39
1, 171291, Note_on_c, 0, 78, 0
1, 171291, Note_on_c, 0, 76, 58
1, 171291, Note_on_c, 0, 59, 0
1, 171294, Note_on_c, 0, 64, 39
1, 171375, Note_on_c, 0, 76, 0
1, 171375, Note_on_c, 0, 74, 63
1, 171375, Note_on_c, 0, 64, 0
1, 171378, Note_on_c, 0, 57, 39
1, 171383, Control_c, 0, 64, 0
1, 171429, Control_c, 0, 64, 127
1, 171455, Note_on_c, 0, 57, 0
1, 171455, Note_on_c, 0, 66, 41
1, 171535, Note_on_c, 0, 66, 0
1, 171535, Note_on_c, 0, 62, 41
1, 171614, Note_on_c, 0, 62, 0
1, 171614, Note_on_c, 0, 66, 41
1, 171694, Note_on_c, 0, 74, 0
1, 171694, Note_on_c, 0, 76, 55
1, 171694, Note_on_c, 0, 66, 0
1, 171697, Note_on_c, 0, 57, 44
1, 171701, Control_c, 0, 64, 0
1, 171735, Note_on_c, 0, 76, 0
1, 171735, Note_on_c, 0, 78, 49
1, 171735, Control_c, 0, 64, 127
1, 171777, Note_on_c, 0, 78, 0
1, 171777, Note_on_c, 0, 76, 56
1, 171777, Note_on_c, 0, 57, 0
1, 171780, Note_on_c, 0, 67, 39
1, 171819, Note_on_c, 0, 76, 0
1, 171819, Note_on_c, 0, 78, 50
1, 171860, Note_on_c, 0, 78, 0
1, 171860, Note_on_c, 0, 76, 56
1, 171860, Note_on_c, 0, 67, 0
1, 171863, Note_on_c, 0, 61, 39
1, 171915, Note_on_c, 0, 76, 0
1, 171915, Note_on_c, 0, 74, 48
1, 171944, Note_on_c, 0, 61, 0
1, 171944, Note_on_c, 0, 67, 39
1, 171972, Note_on_c, 0, 74, 0
1, 171972, Note_on_c, 0, 76, 48
1, 172030, Note_on_c, 0, 76, 0
1, 172030, Note_on_c, 0, 74, 66
1, 172030, Note_on_c, 0, 67, 0
1, 172033, Note_on_c, 0, 62, 48
1, 172033, Control_c, 0, 64, 0
1, 172110, Note_on_c, 0, 62, 0
1, 172110, Note_on_c, 0, 69, 42
1, 172190, Note_on_c, 0, 74, 0
1, 172190, Note_on_c, 0, 69, 0
1, 172190, Note_on_c, 0, 66, 36
1, 172273, Note_on_c, 0, 66, 0
1, 172273, Note_on_c, 0, 69, 36
1, 172374, Note_on_c, 0, 69, 50
1, 172374, Note_on_c, 0, 69, 0
1, 172374, Note_on_c, 0, 54, 35
1, 172411, Control_c, 0, 64, 127
1, 172453, Note_on_c, 0, 54, 0
1, 172453, Note_on_c, 0, 62, 29
1, 172533, Note_on_c, 0, 62, 0
1, 172533, Note_on_c, 0, 54, 29
1, 172612, Note_on_c, 0, 54, 0
1, 172612, Note_on_c, 0, 62, 29
1, 172691, Note_on_c, 0, 69, 0
1, 172691, Note_on_c, 0, 67, 47
1, 172691, Note_on_c, 0, 62, 0
1, 172694, Note_on_c, 0, 52, 35
1, 172699, Control_c, 0, 64, 0
1, 172771, Note_on_c, 0, 52, 0
1, 172771, Note_on_c, 0, 62, 30
1, 172776, Control_c, 0, 64, 127
1, 172852, Note_on_c, 0, 62, 0
1, 172852, Note_on_c, 0, 52, 30
1, 172932, Note_on_c, 0, 52, 0
1, 172932, Note_on_c, 0, 62, 30
1, 173012, Note_on_c, 0, 67, 0
1, 173012, Note_on_c, 0, 66, 46
1, 173012, Note_on_c, 0, 62, 0
1, 173015, Note_on_c, 0, 50, 35
1, 173021, Control_c, 0, 64, 0
1, 173096, Note_on_c, 0, 50, 0
1, 173096, Note_on_c, 0, 62, 31
1, 173106, Control_c, 0, 64, 127
1, 173180, Note_on_c, 0, 62, 0
1, 173180, Note_on_c, 0, 50, 31
1, 173264, Note_on_c, 0, 50, 0
1, 173264, Note_on_c, 0, 62, 31
1, 173348, Note_on_c, 0, 66, 0
1, 173348, Note_on_c, 0, 71, 50
1, 173348, Note_on_c, 0, 62, 0
1, 173351, Note_on_c, 0, 55, 35
1, 173351, Control_c, 0, 64, 0
1, 173370, Control_c, 0, 64, 127
1, 173429, Note_on_c, 0, 55, 0
1, 173429, Note_on_c, 0, 62, 30
1, 173510, Note_on_c, 0, 62, 0
1, 173510, Note_on_c, 0, 61, 30
1, 173591, Note_on_c, 0, 71, 0
1, 173591, Note_on_c, 0, 73, 45
1, 173591, Note_on_c, 0, 61, 0
1, 173594, Note_on_c, 0, 62, 30
1, 173620, Note_on_c, 0, 73, 0
1, 173620, Note_on_c, 0, 71, 45
1, 173650, Note_on_c, 0, 71, 0
1, 173650, Note_on_c, 0, 69, 45
1, 173680, Note_on_c, 0, 71, 50
1, 173680, Note_on_c, 0, 69, 0
1, 173680, Note_on_c, 0, 62, 0
1, 173683, Note_on_c, 0, 55, 35
1, 173683, Control_c, 0, 64, 0
1, 173760, Note_on_c, 0, 71, 0
1, 173760, Note_on_c, 0, 55, 0
1, 173760, Note_on_c, 0, 62, 30
1, 173841, Note_on_c, 0, 73, 47
1, 173841, Note_on_c, 0, 62, 0
1, 173841, Note_on_c, 0, 61, 30
1, 173925, Note_on_c, 0, 73, 0
1, 173925, Note_on_c, 0, 61, 0
1, 173925, Note_on_c, 0, 62, 30
1, 174009, Note_on_c, 0, 76, 50
1, 174009, Note_on_c, 0, 62, 0
1, 174009, Note_on_c, 0, 55, 30
1, 174022, Control_c, 0, 64, 127
1, 174088, Note_on_c, 0, 55, 0
1, 174088, Note_on_c, 0, 62, 32
1, 174168, Note_on_c, 0, 76, 0
1, 174168, Note_on_c, 0, 74, 45
1, 174168, Note_on_c, 0, 62, 0
1, 174171, Note_on_c, 0, 61, 32
1, 174176, Control_c, 0, 64, 0
1, 174208, Control_c, 0, 64, 127
1, 174248, Note_on_c, 0, 61, 0
1, 174248, Note_on_c, 0, 62, 32
1, 174328, Note_on_c, 0, 74, 0
1, 174328, Note_on_c, 0, 73, 47
1, 174328, Note_on_c, 0, 62, 0
1, 174331, Note_on_c, 0, 55, 34
1, 174334, Control_c, 0, 64, 0
1, 174367, Control_c, 0, 64, 127
1, 174407, Note_on_c, 0, 55, 0
1, 174407, Note_on_c, 0, 62, 30
1, 174487, Note_on_c, 0, 73, 0
1, 174487, Note_on_c, 0, 71, 45
1, 174487, Note_on_c, 0, 62, 0
1, 174490, Note_on_c, 0, 61, 30
1, 174495, Control_c, 0, 64, 0
1, 174529, Control_c, 0, 64, 127
1, 174574, Note_on_c, 0, 61, 0
1, 174574, Note_on_c, 0, 62, 30
1, 174660, Note_on_c, 0, 71, 0
1, 174660, Note_on_c, 0, 69, 50
1, 174660, Note_on_c, 0, 62, 0
1, 174663, Note_on_c, 0, 54, 37
1, 174663, Control_c, 0, 64, 0
1, 174745, Note_on_c, 0, 54, 0
1, 174745, Note_on_c, 0, 62, 37
1, 174830, Note_on_c, 0, 69, 0
1, 174830, Note_on_c, 0, 62, 0
1, 174830, Note_on_c, 0, 61, 28
1, 174916, Note_on_c, 0, 61, 0
1, 174916, Note_on_c, 0, 62, 28
1, 175001, Note_on_c, 0, 69, 56
1, 175001, Note_on_c, 0, 81, 66
1, 175001, Note_on_c, 0, 62, 0
1, 175004, Note_on_c, 0, 42, 49
1, 175038, Control_c, 0, 64, 127
1, 175080, Note_on_c, 0, 42, 0
1, 175080, Note_on_c, 0, 50, 40
1, 175159, Note_on_c, 0, 50, 0
1, 175159, Note_on_c, 0, 42, 40
1, 175238, Note_on_c, 0, 42, 0
1, 175238, Note_on_c, 0, 50, 40
1, 175318, Note_on_c, 0, 81, 0
1, 175318, Note_on_c, 0, 69, 0
1, 175318, Note_on_c, 0, 79, 66
1, 175321, Note_on_c, 0, 67, 56
1, 175321, Note_on_c, 0, 50, 0
1, 175321, Note_on_c, 0, 40, 49
1, 175326, Control_c, 0, 64, 0
1, 175398, Note_on_c, 0, 40, 0
1, 175398, Note_on_c, 0, 50, 42
1, 175403, Control_c, 0, 64, 127
1, 175478, Note_on_c, 0, 50, 0
1, 175478, Note_on_c, 0, 40, 42
1, 175559, Note_on_c, 0, 40, 0
1, 175559, Note_on_c, 0, 50, 42
1, 175639, Note_on_c, 0, 67, 0
1, 175639, Note_on_c, 0, 79, 0
1, 175639, Note_on_c, 0, 66, 55
1, 175642, Note_on_c, 0, 78, 64
1, 175642, Note_on_c, 0, 50, 0
1, 175642, Note_on_c, 0, 38, 49
1, 175647, Control_c, 0, 64, 0
1, 175723, Note_on_c, 0, 38, 0
1, 175723, Note_on_c, 0, 50, 44
1, 175733, Control_c, 0, 64, 127
1, 175807, Note_on_c, 0, 50, 0
1, 175807, Note_on_c, 0, 38, 44
1, 175891, Note_on_c, 0, 38, 0
1, 175891, Note_on_c, 0, 50, 44
1, 175975, Note_on_c, 0, 78, 0
1, 175975, Note_on_c, 0, 66, 0
1, 175975, Note_on_c, 0, 64, 57
1, 175978, Note_on_c, 0, 76, 70
1, 175978, Note_on_c, 0, 50, 0
1, 175978, Note_on_c, 0, 43, 49
1, 175981, Control_c, 0, 64, 0
1, 175997, Control_c, 0, 64, 127
1, 176056, Note_on_c, 0, 43, 0
1, 176056, Note_on_c, 0, 52, 42
1, 176136, Note_on_c, 0, 52, 0
1, 176136, Note_on_c, 0, 47, 42
1, 176217, Note_on_c, 0, 76, 0
1, 176217, Note_on_c, 0, 64, 0
1, 176217, Note_on_c, 0, 83, 58
1, 176220, Note_on_c, 0, 47, 0
1, 176220, Note_on_c, 0, 52, 42
1, 176307, Note_on_c, 0, 83, 0
1, 176307, Note_on_c, 0, 81, 66
1, 176307, Note_on_c, 0, 52, 0
1, 176310, Note_on_c, 0, 43, 49
1, 176310, Control_c, 0, 64, 0
1, 176337, Control_c, 0, 64, 127
1, 176387, Note_on_c, 0, 81, 0
1, 176387, Note_on_c, 0, 79, 63
1, 176387, Note_on_c, 0, 43, 0
1, 176390, Note_on_c, 0, 52, 42
1, 176467, Note_on_c, 0, 79, 0
1, 176467, Note_on_c, 0, 78, 63
1, 176467, Note_on_c, 0, 52, 0
1, 176470, Note_on_c, 0, 47, 42
1, 176551, Note_on_c, 0, 78, 0
1, 176551, Note_on_c, 0, 76, 63
1, 176551, Note_on_c, 0, 47, 0
1, 176554, Note_on_c, 0, 52, 42
1, 176635, Note_on_c, 0, 76, 0
1, 176635, Note_on_c, 0, 74, 69
1, 176635, Note_on_c, 0, 52, 0
1, 176638, Note_on_c, 0, 45, 42
1, 176643, Control_c, 0, 64, 0
1, 176689, Control_c, 0, 64, 127
1, 176715, Note_on_c, 0, 45, 0
1, 176715, Note_on_c, 0, 54, 45
1, 176795, Note_on_c, 0, 54, 0
1, 176795, Note_on_c, 0, 50, 45
1, 176874, Note_on_c, 0, 50, 0
1, 176874, Note_on_c, 0, 54, 45
1, 176954, Note_on_c, 0, 74, 0
1, 176954, Note_on_c, 0, 76, 60
1, 176954, Note_on_c, 0, 54, 0
1, 176957, Note_on_c, 0, 45, 48
1, 176961, Control_c, 0, 64, 0
1, 176995, Note_on_c, 0, 76, 0
1, 176995, Note_on_c, 0, 78, 53
1, 176995, Control_c, 0, 64, 127
1, 177037, Note_on_c, 0, 78, 0
1, 177037, Note_on_c, 0, 76, 61
1, 177037, Note_on_c, 0, 45, 0
1, 177040, Note_on_c, 0, 55, 42
1, 177079, Note_on_c, 0, 76, 0
1, 177079, Note_on_c, 0, 78, 55
1, 177120, Note_on_c, 0, 78, 0
1, 177120, Note_on_c, 0, 76, 61
1, 177120, Note_on_c, 0, 55, 0
1, 177123, Note_on_c, 0, 49, 42
1, 177175, Note_on_c, 0, 76, 0
1, 177175, Note_on_c, 0, 74, 52
1, 177204, Note_on_c, 0, 49, 0
1, 177204, Note_on_c, 0, 55, 42
1, 177232, Note_on_c, 0, 74, 0
1, 177232, Note_on_c, 0, 76, 52
1, 177290, Note_on_c, 0, 76, 0
1, 177290, Note_on_c, 0, 69, 62
1, 177290, Note_on_c, 0, 74, 74
1, 177293, Note_on_c, 0, 66, 62
1, 177293, Control_c, 0, 91, 127
1, 177293, Note_on_c, 0, 55, 0
1, 177296, Note_on_c, 0, 38, 59
1, 177296, Note_on_c, 0, 50, 70
1, 177296, Note_on_c, 0, 45, 59
1, 177299, Control_c, 0, 64, 0
1, 177373, Control_c, 0, 64, 127
1, 177588, Control_c, 0, 64, 0
1, 177606, Note_on_c, 0, 66, 0
1, 177606, Note_on_c, 0, 74, 0
1, 177606, Note_on_c, 0, 69, 0
1, 177609, Note_on_c, 0, 45, 0
1, 177609, Note_on_c, 0, 50, 0
1, 177609, Note_on_c, 0, 38, 0
1, 177923, Note_on_c, 0, 79, 66
1, 177923, Note_on_c, 0, 62, 37
1, 177923, Note_on_c, 0, 66, 45
1, 177999, Note_on_c, 0, 78, 55
1, 178007, Note_on_c, 0, 79, 0
1, 178075, Note_on_c, 0, 76, 54
1, 178083, Note_on_c, 0, 78, 0
1, 178151, Note_on_c, 0, 78, 54
1, 178159, Note_on_c, 0, 76, 0
1, 178227, Note_on_c, 0, 81, 65
1, 178227, Note_on_c, 0, 66, 0
1, 178227, Note_on_c, 0, 62, 0
1, 178230, Note_on_c, 0, 64, 37
1, 178230, Note_on_c, 0, 67, 45
1, 178235, Note_on_c, 0, 78, 0
1, 178303, Note_on_c, 0, 79, 55
1, 178311, Note_on_c, 0, 81, 0
1, 178379, Note_on_c, 0, 78, 55
1, 178387, Note_on_c, 0, 79, 0
1, 178462, Note_on_c, 0, 79, 55
1, 178470, Note_on_c, 0, 78, 0
1, 178544, Note_on_c, 0, 81, 62
1, 178544, Note_on_c, 0, 67, 0
1, 178544, Note_on_c, 0, 64, 0
1, 178547, Note_on_c, 0, 69, 45
1, 178547, Note_on_c, 0, 66, 37
1, 178552, Note_on_c, 0, 79, 0
1, 178846, Note_on_c, 0, 81, 0
1, 178846, Note_on_c, 0, 66, 0
1, 178846, Note_on_c, 0, 69, 0
1, 179152, Note_on_c, 0, 81, 50
1, 179190, Note_on_c, 0, 81, 0
1, 179303, Note_on_c, 0, 83, 45
1, 179341, Note_on_c, 0, 83, 0
1, 179454, Note_on_c, 0, 85, 45
1, 179492, Note_on_c, 0, 85, 0
1, 179605, Note_on_c, 0, 86, 45
1, 179644, Note_on_c, 0, 86, 0
1, 179761, Note_on_c, 0, 81, 54
1, 179761, Note_on_c, 0, 54, 38
1, 179761, Control_c, 0, 64, 127
1, 179912, Note_on_c, 0, 54, 0
1, 179912, Note_on_c, 0, 62, 32
1, 180063, Note_on_c, 0, 81, 0
1, 180063, Note_on_c, 0, 78, 45
1, 180063, Note_on_c, 0, 62, 0
1, 180066, Note_on_c, 0, 50, 38
1, 180214, Note_on_c, 0, 50, 0
1, 180214, Note_on_c, 0, 62, 33
1, 180365, Note_on_c, 0, 78, 0
1, 180365, Note_on_c, 0, 81, 50
1, 180365, Note_on_c, 0, 62, 0
1, 180368, Note_on_c, 0, 52, 37
1, 180368, Control_c, 0, 64, 0
1, 180441, Note_on_c, 0, 81, 0
1, 180441, Note_on_c, 0, 79, 44
1, 180516, Note_on_c, 0, 79, 0
1, 180516, Note_on_c, 0, 78, 44
1, 180516, Note_on_c, 0, 52, 0
1, 180519, Note_on_c, 0, 62, 32
1, 180591, Note_on_c, 0, 78, 0
1, 180591, Note_on_c, 0, 79, 44
1, 180667, Note_on_c, 0, 79, 0
1, 180667, Note_on_c, 0, 81, 49
1, 180667, Note_on_c, 0, 62, 0
1, 180670, Note_on_c, 0, 57, 37
1, 180705, Note_on_c, 0, 81, 0
1, 180705, Note_on_c, 0, 57, 0
1, 180818, Note_on_c, 0, 79, 46
1, 180818, Note_on_c, 0, 61, 30
1, 180858, Note_on_c, 0, 79, 0
1, 180858, Note_on_c, 0, 61, 0
1, 180980, Note_on_c, 0, 77, 54
1, 180980, Note_on_c, 0, 62, 42
1, 180980, Note_on_c, 0, 50, 42
1, 181136, Note_on_c, 0, 77, 0
1, 181136, Note_on_c, 0, 78, 45
1, 181286, Note_on_c, 0, 78, 0
1, 181286, Note_on_c, 0, 50, 0
1, 181286, Note_on_c, 0, 62, 0
1, 181586, Note_on_c, 0, 79, 66
1, 181586, Note_on_c, 0, 62, 37
1, 181586, Note_on_c, 0, 66, 45
1, 181662, Note_on_c, 0, 78, 55
1, 181662, Note_on_c, 0, 66, 0
1, 181662, Note_on_c, 0, 62, 0
1, 181669, Note_on_c, 0, 79, 0
1, 181738, Note_on_c, 0, 76, 54
1, 181738, Note_on_c, 0, 62, 31
1, 181738, Note_on_c, 0, 66, 38
1, 181745, Note_on_c, 0, 78, 0
1, 181814, Note_on_c, 0, 78, 54
1, 181814, Note_on_c, 0, 66, 0
1, 181814, Note_on_c, 0, 62, 0
1, 181821, Note_on_c, 0, 76, 0
1, 181890, Note_on_c, 0, 81, 65
1, 181890, Note_on_c, 0, 64, 37
1, 181890, Note_on_c, 0, 67, 45
1, 181897, Note_on_c, 0, 78, 0
1, 181966, Note_on_c, 0, 79, 55
1, 181966, Note_on_c, 0, 67, 0
1, 181966, Note_on_c, 0, 64, 0
1, 181973, Note_on_c, 0, 81, 0
1, 182042, Note_on_c, 0, 78, 55
1, 182042, Note_on_c, 0, 67, 38
1, 182042, Note_on_c, 0, 64, 31
1, 182050, Note_on_c, 0, 79, 0
1, 182124, Note_on_c, 0, 79, 55
1, 182124, Note_on_c, 0, 64, 0
1, 182124, Note_on_c, 0, 67, 0
1, 182132, Note_on_c, 0, 78, 0
1, 182207, Note_on_c, 0, 81, 62
1, 182207, Note_on_c, 0, 66, 37
1, 182207, Note_on_c, 0, 69, 45
1, 182214, Note_on_c, 0, 79, 0
1, 182509, Note_on_c, 0, 81, 0
1, 182509, Note_on_c, 0, 69, 0
1, 182509, Note_on_c, 0, 66, 0
1, 182815, Note_on_c, 0, 81, 50
1, 182852, Note_on_c, 0, 81, 0
1, 182966, Note_on_c, 0, 83, 45
1, 183003, Note_on_c, 0, 83, 0
1, 183117, Note_on_c, 0, 85, 45
1, 183154, Note_on_c, 0, 85, 0
1, 183268, Note_on_c, 0, 86, 45
1, 183307, Note_on_c, 0, 86, 0
1, 183424, Note_on_c, 0, 81, 54
1, 183424, Note_on_c, 0, 54, 38
1, 183424, Control_c, 0, 64, 127
1, 183575, Note_on_c, 0, 54, 0
1, 183575, Note_on_c, 0, 62, 32
1, 183726, Note_on_c, 0, 81, 0
1, 183726, Note_on_c, 0, 78, 45
1, 183726, Note_on_c, 0, 62, 0
1, 183729, Note_on_c, 0, 50, 38
1, 183877, Note_on_c, 0, 50, 0
1, 183877, Note_on_c, 0, 62, 33
1, 184028, Note_on_c, 0, 78, 0
1, 184028, Note_on_c, 0, 81, 50
1, 184028, Note_on_c, 0, 62, 0
1, 184031, Note_on_c, 0, 52, 37
1, 184031, Control_c, 0, 64, 0
1, 184103, Note_on_c, 0, 81, 0
1, 184103, Note_on_c, 0, 79, 44
1, 184178, Note_on_c, 0, 79, 0
1, 184178, Note_on_c, 0, 78, 44
1, 184178, Note_on_c, 0, 52, 0
1, 184181, Note_on_c, 0, 62, 32
1, 184254, Note_on_c, 0, 78, 0
1, 184254, Note_on_c, 0, 79, 44
1, 184329, Note_on_c, 0, 79, 0
1, 184329, Note_on_c, 0, 81, 50
1, 184329, Note_on_c, 0, 62, 0
1, 184332, Note_on_c, 0, 57, 37
1, 184405, Note_on_c, 0, 81, 0
1, 184405, Note_on_c, 0, 79, 44
1, 184480, Note_on_c, 0, 79, 0
1, 184480, Note_on_c, 0, 78, 44
1, 184480, Note_on_c, 0, 57, 0
1, 184483, Note_on_c, 0, 61, 32
1, 184558, Note_on_c, 0, 78, 0
1, 184558, Note_on_c, 0, 76, 44
1, 184636, Note_on_c, 0, 76, 0
1, 184636, Note_on_c, 0, 74, 45
1, 184636, Note_on_c, 0, 61, 0
1, 184639, Note_on_c, 0, 54, 47
1, 184713, Note_on_c, 0, 74, 0
1, 184713, Note_on_c, 0, 76, 46
1, 184713, Note_on_c, 0, 54, 0
1, 184716, Note_on_c, 0, 62, 39
1, 184789, Note_on_c, 0, 76, 0
1, 184789, Note_on_c, 0, 78, 48
1, 184789, Note_on_c, 0, 62, 0
1, 184792, Note_on_c, 0, 57, 39
1, 184865, Note_on_c, 0, 78, 0
1, 184865, Note_on_c, 0, 79, 49
1, 184865, Note_on_c, 0, 57, 0
1, 184868, Note_on_c, 0, 62, 39
1, 184941, Note_on_c, 0, 79, 0
1, 184941, Note_on_c, 0, 81, 50
1, 184941, Note_on_c, 0, 62, 0
1, 184944, Note_on_c, 0, 54, 48
1, 185017, Note_on_c, 0, 81, 0
1, 185017, Note_on_c, 0, 83, 51
1, 185017, Note_on_c, 0, 54, 0
1, 185020, Note_on_c, 0, 62, 40
1, 185091, Note_on_c, 0, 83, 0
1, 185091, Note_on_c, 0, 85, 53
1, 185091, Note_on_c, 0, 62, 0
1, 185094, Note_on_c, 0, 57, 40
1, 185166, Note_on_c, 0, 85, 0
1, 185166, Note_on_c, 0, 86, 54
1, 185166, Note_on_c, 0, 57, 0
1, 185169, Note_on_c, 0, 62, 40
1, 185250, Note_on_c, 0, 86, 0
1, 185250, Note_on_c, 0, 86, 58
1, 185250, Note_on_c, 0, 62, 0
1, 185253, Note_on_c, 0, 55, 48
1, 185272, Control_c, 0, 64, 127
1, 185326, Note_on_c, 0, 55, 0
1, 185326, Note_on_c, 0, 62, 40
1, 185401, Note_on_c, 0, 62, 0
1, 185401, Note_on_c, 0, 59, 40
1, 185477, Note_on_c, 0, 59, 0
1, 185477, Note_on_c, 0, 62, 40
1, 185552, Note_on_c, 0, 86, 0
1, 185552, Note_on_c, 0, 83, 49
1, 185552, Note_on_c, 0, 62, 0
1, 185555, Note_on_c, 0, 55, 49
1, 185628, Note_on_c, 0, 83, 0
1, 185628, Note_on_c, 0, 55, 0
1, 185628, Note_on_c, 0, 62, 40
1, 185703, Note_on_c, 0, 62, 0
1, 185703, Note_on_c, 0, 59, 40
1, 185779, Note_on_c, 0, 79, 54
1, 185779, Note_on_c, 0, 59, 0
1, 185779, Note_on_c, 0, 62, 40
1, 185860, Note_on_c, 0, 79, 0
1, 185860, Note_on_c, 0, 78, 59
1, 185860, Note_on_c, 0, 62, 0
1, 185863, Note_on_c, 0, 57, 47
1, 185863, Control_c, 0, 64, 0
1, 185935, Note_on_c, 0, 57, 0
1, 185935, Note_on_c, 0, 66, 38
1, 185939, Control_c, 0, 64, 127
1, 186010, Note_on_c, 0, 66, 0
1, 186010, Note_on_c, 0, 62, 38
1, 186085, Note_on_c, 0, 62, 0
1, 186085, Note_on_c, 0, 66, 38
1, 186160, Note_on_c, 0, 78, 0
1, 186160, Note_on_c, 0, 81, 54
1, 186160, Note_on_c, 0, 66, 0
1, 186163, Note_on_c, 0, 57, 48
1, 186235, Note_on_c, 0, 57, 0
1, 186235, Note_on_c, 0, 66, 40
1, 186310, Note_on_c, 0, 81, 0
1, 186310, Note_on_c, 0, 66, 0
1, 186310, Note_on_c, 0, 62, 40
1, 186385, Note_on_c, 0, 74, 54
1, 186385, Note_on_c, 0, 62, 0
1, 186385, Note_on_c, 0, 66, 40
1, 186465, Note_on_c, 0, 74, 0
1, 186465, Note_on_c, 0, 76, 59
1, 186465, Note_on_c, 0, 66, 0
1, 186468, Note_on_c, 0, 57, 48
1, 186473, Control_c, 0, 64, 0
1, 186536, Control_c, 0, 64, 127
1, 186540, Note_on_c, 0, 57, 0
1, 186540, Note_on_c, 0, 67, 39
1, 186615, Note_on_c, 0, 67, 0
1, 186615, Note_on_c, 0, 64, 39
1, 186690, Note_on_c, 0, 64, 0
1, 186690, Note_on_c, 0, 67, 39
1, 186765, Note_on_c, 0, 76, 0
1, 186765, Note_on_c, 0, 79, 54
1, 186765, Note_on_c, 0, 67, 0
1, 186768, Note_on_c, 0, 57, 49
1, 186840, Note_on_c, 0, 57, 0
1, 186840, Note_on_c, 0, 67, 40
1, 186915, Note_on_c, 0, 79, 0
1, 186915, Note_on_c, 0, 67, 0
1, 186915, Note_on_c, 0, 64, 40
1, 186990, Note_on_c, 0, 73, 54
1, 186990, Note_on_c, 0, 64, 0
1, 186990, Note_on_c, 0, 67, 40
1, 187071, Note_on_c, 0, 73, 0
1, 187071, Note_on_c, 0, 74, 53
1, 187071, Note_on_c, 0, 67, 0
1, 187074, Note_on_c, 0, 54, 47
1, 187074, Control_c, 0, 64, 0
1, 187149, Note_on_c, 0, 74, 0
1, 187149, Note_on_c, 0, 76, 53
1, 187149, Note_on_c, 0, 54, 0
1, 187152, Note_on_c, 0, 62, 39
1, 187227, Note_on_c, 0, 76, 0
1, 187227, Note_on_c, 0, 78, 54
1, 187227, Note_on_c, 0, 62, 0
1, 187230, Note_on_c, 0, 57, 41
1, 187305, Note_on_c, 0, 78, 0
1, 187305, Note_on_c, 0, 79, 55
1, 187305, Note_on_c, 0, 57, 0
1, 187308, Note_on_c, 0, 62, 42
1, 187382, Note_on_c, 0, 79, 0
1, 187382, Note_on_c, 0, 81, 56
1, 187382, Note_on_c, 0, 62, 0
1, 187385, Note_on_c, 0, 54, 48
1, 187459, Note_on_c, 0, 81, 0
1, 187459, Note_on_c, 0, 83, 56
1, 187459, Note_on_c, 0, 54, 0
1, 187462, Note_on_c, 0, 62, 41
1, 187535, Note_on_c, 0, 83, 0
1, 187535, Note_on_c, 0, 85, 57
1, 187535, Note_on_c, 0, 62, 0
1, 187538, Note_on_c, 0, 57, 42
1, 187611, Note_on_c, 0, 85, 0
1, 187611, Note_on_c, 0, 86, 60
1, 187611, Note_on_c, 0, 57, 0
1, 187614, Note_on_c, 0, 62, 44
1, 187694, Note_on_c, 0, 86, 0
1, 187694, Note_on_c, 0, 88, 63
1, 187694, Note_on_c, 0, 62, 0
1, 187697, Note_on_c, 0, 55, 52
1, 187773, Note_on_c, 0, 88, 0
1, 187773, Note_on_c, 0, 86, 55
1, 187773, Note_on_c, 0, 55, 0
1, 187776, Note_on_c, 0, 62, 43
1, 187848, Note_on_c, 0, 86, 0
1, 187848, Note_on_c, 0, 85, 55
1, 187848, Note_on_c, 0, 62, 0
1, 187851, Note_on_c, 0, 59, 43
1, 187923, Note_on_c, 0, 85, 0
1, 187923, Note_on_c, 0, 86, 55
1, 187923, Note_on_c, 0, 59, 0
1, 187926, Note_on_c, 0, 62, 43
1, 187999, Note_on_c, 0, 86, 0
1, 187999, Note_on_c, 0, 85, 63
1, 187999, Note_on_c, 0, 62, 0
1, 188002, Note_on_c, 0, 55, 49
1, 188074, Note_on_c, 0, 85, 0
1, 188074, Note_on_c, 0, 83, 51
1, 188074, Note_on_c, 0, 55, 0
1, 188077, Note_on_c, 0, 62, 40
1, 188150, Note_on_c, 0, 83, 0
1, 188150, Note_on_c, 0, 81, 54
1, 188150, Note_on_c, 0, 62, 0
1, 188153, Note_on_c, 0, 59, 40
1, 188225, Note_on_c, 0, 81, 0
1, 188225, Note_on_c, 0, 79, 54
1, 188225, Note_on_c, 0, 59, 0
1, 188228, Note_on_c, 0, 62, 40
1, 188306, Note_on_c, 0, 79, 0
1, 188306, Note_on_c, 0, 78, 61
1, 188306, Note_on_c, 0, 62, 0
1, 188309, Note_on_c, 0, 57, 47
1, 188386, Note_on_c, 0, 78, 0
1, 188386, Note_on_c, 0, 79, 51
1, 188386, Note_on_c, 0, 57, 0
1, 188389, Note_on_c, 0, 66, 37
1, 188461, Note_on_c, 0, 79, 0
1, 188461, Note_on_c, 0, 80, 54
1, 188461, Note_on_c, 0, 66, 0
1, 188464, Note_on_c, 0, 62, 37
1, 188537, Note_on_c, 0, 80, 0
1, 188537, Note_on_c, 0, 81, 54
1, 188537, Note_on_c, 0, 62, 0
1, 188540, Note_on_c, 0, 66, 37
1, 188612, Note_on_c, 0, 81, 0
1, 188612, Note_on_c, 0, 79, 58
1, 188612, Note_on_c, 0, 66, 0
1, 188615, Note_on_c, 0, 57, 48
1, 188688, Note_on_c, 0, 79, 0
1, 188688, Note_on_c, 0, 78, 51
1, 188688, Note_on_c, 0, 57, 0
1, 188691, Note_on_c, 0, 66, 39
1, 188763, Note_on_c, 0, 78, 0
1, 188763, Note_on_c, 0, 76, 54
1, 188763, Note_on_c, 0, 66, 0
1, 188766, Note_on_c, 0, 62, 39
1, 188839, Note_on_c, 0, 76, 0
1, 188839, Note_on_c, 0, 74, 50
1, 188839, Note_on_c, 0, 62, 0
1, 188842, Note_on_c, 0, 66, 39
1, 188920, Note_on_c, 0, 74, 0
1, 188920, Note_on_c, 0, 75, 59
1, 188920, Note_on_c, 0, 66, 0
1, 188923, Note_on_c, 0, 57, 47
1, 188998, Note_on_c, 0, 75, 0
1, 188998, Note_on_c, 0, 76, 51
1, 188998, Note_on_c, 0, 57, 0
1, 189001, Note_on_c, 0, 67, 37
1, 189074, Note_on_c, 0, 76, 0
1, 189074, Note_on_c, 0, 78, 54
1, 189074, Note_on_c, 0, 67, 0
1, 189077, Note_on_c, 0, 64, 37
1, 189149, Note_on_c, 0, 78, 0
1, 189149, Note_on_c, 0, 79, 54
1, 189149, Note_on_c, 0, 64, 0
1, 189152, Note_on_c, 0, 67, 37
1, 189225, Note_on_c, 0, 79, 0
1, 189225, Note_on_c, 0, 78, 57
1, 189225, Note_on_c, 0, 67, 0
1, 189228, Note_on_c, 0, 57, 48
1, 189300, Note_on_c, 0, 78, 0
1, 189300, Note_on_c, 0, 76, 53
1, 189300, Note_on_c, 0, 57, 0
1, 189303, Note_on_c, 0, 67, 38
1, 189376, Note_on_c, 0, 76, 0
1, 189376, Note_on_c, 0, 74, 56
1, 189376, Note_on_c, 0, 67, 0
1, 189379, Note_on_c, 0, 64, 38
1, 189451, Note_on_c, 0, 74, 0
1, 189451, Note_on_c, 0, 73, 54
1, 189451, Note_on_c, 0, 64, 0
1, 189454, Note_on_c, 0, 67, 38
1, 189533, Note_on_c, 0, 73, 0
1, 189533, Note_on_c, 0, 74, 66
1, 189533, Note_on_c, 0, 67, 0
1, 189536, Note_on_c, 0, 62, 45
1, 189536, Note_on_c, 0, 66, 54
1, 189536, Control_c, 0, 64, 0
1, 189583, Control_c, 0, 64, 127
1, 189614, Note_on_c, 0, 74, 0
1, 189614, Note_on_c, 0, 69, 59
1, 189694, Note_on_c, 0, 69, 0
1, 189694, Note_on_c, 0, 74, 66
1, 189774, Note_on_c, 0, 74, 0
1, 189774, Note_on_c, 0, 78, 58
1, 189855, Note_on_c, 0, 78, 0
1, 189855, Note_on_c, 0, 81, 66
1, 189855, Note_on_c, 0, 66, 0
1, 189858, Note_on_c, 0, 62, 0
1, 189935, Note_on_c, 0, 81, 0
1, 189935, Note_on_c, 0, 78, 60
1, 190015, Note_on_c, 0, 78, 0
1, 190015, Note_on_c, 0, 79, 66
1, 190015, Note_on_c, 0, 57, 46
1, 190018, Note_on_c, 0, 64, 55
1, 190027, Control_c, 0, 64, 0
1, 190100, Note_on_c, 0, 79, 0
1, 190100, Note_on_c, 0, 76, 59
1, 190100, Note_on_c, 0, 64, 0
1, 190103, Note_on_c, 0, 57, 0
1, 190184, Note_on_c, 0, 76, 0
1, 190184, Note_on_c, 0, 74, 66
1, 190184, Note_on_c, 0, 62, 45
1, 190187, Note_on_c, 0, 66, 54
1, 190192, Control_c, 0, 64, 0
1, 190241, Control_c, 0, 64, 127
1, 190265, Note_on_c, 0, 74, 0
1, 190265, Note_on_c, 0, 69, 59
1, 190345, Note_on_c, 0, 69, 0
1, 190345, Note_on_c, 0, 74, 66
1, 190425, Note_on_c, 0, 74, 0
1, 190425, Note_on_c, 0, 78, 58
1, 190506, Note_on_c, 0, 78, 0
1, 190506, Note_on_c, 0, 81, 66
1, 190506, Note_on_c, 0, 66, 0
1, 190509, Note_on_c, 0, 62, 0
1, 190586, Note_on_c, 0, 81, 0
1, 190586, Note_on_c, 0, 78, 60
1, 190671, Note_on_c, 0, 78, 0
1, 190671, Note_on_c, 0, 79, 66
1, 190671, Note_on_c, 0, 57, 46
1, 190674, Note_on_c, 0, 64, 55
1, 190690, Control_c, 0, 64, 0
1, 190755, Note_on_c, 0, 79, 0
1, 190755, Note_on_c, 0, 76, 59
1, 190755, Note_on_c, 0, 64, 0
1, 190758, Note_on_c, 0, 57, 0
1, 190840, Note_on_c, 0, 76, 0
1, 190840, Note_on_c, 0, 74, 75
1, 190840, Note_on_c, 0, 66, 63
1, 190843, Note_on_c, 0, 62, 52
1, 190843, Control_c, 0, 64, 127
1, 190984, Control_c, 0, 64, 0
1, 191018, Note_on_c, 0, 74, 0
1, 191018, Note_on_c, 0, 62, 0
1, 191018, Note_on_c, 0, 66, 0
1, 191197, Note_on_c, 0, 85, 75
1, 191197, Note_on_c, 0, 79, 64
1, 191197, Note_on_c, 0, 76, 64
1, 191200, Note_on_c, 0, 46, 52
1, 191200, Note_on_c, 0, 58, 63
1, 191259, Control_c, 0, 64, 127
1, 191384, Note_on_c, 0, 76, 0
1, 191384, Note_on_c, 0, 79, 0
1, 191384, Note_on_c, 0, 85, 0
1, 191387, Note_on_c, 0, 58, 0
1, 191387, Note_on_c, 0, 46, 0
1, 191411, Control_c, 0, 64, 0
1, 191572, Note_on_c, 0, 78, 64
1, 191572, Note_on_c, 0, 86, 75
1, 191572, Note_on_c, 0, 74, 64
1, 191575, Note_on_c, 0, 47, 52
1, 191575, Note_on_c, 0, 59, 63
1, 191652, Control_c, 0, 64, 127
1, 191759, Note_on_c, 0, 74, 0
1, 191759, Note_on_c, 0, 86, 0
1, 191759, Note_on_c, 0, 78, 0
1, 191762, Note_on_c, 0, 59, 0
1, 191762, Note_on_c, 0, 47, 0
1, 191830, Control_c, 0, 64, 0
1, 192322, Note_on_c, 0, 79, 47
1, 192322, Note_on_c, 0, 71, 39
1, 192322, Note_on_c, 0, 43, 40
1, 192325, Note_on_c, 0, 55, 40
1, 192325, Control_c, 0, 64, 127
1, 192487, Note_on_c, 0, 71, 0
1, 192487, Note_on_c, 0, 79, 0
1, 192487, Note_on_c, 0, 69, 36
1, 192490, Note_on_c, 0, 78, 43
1, 192496, Control_c, 0, 64, 0
1, 192575, Note_on_c, 0, 78, 0
1, 192575, Note_on_c, 0, 69, 0
1, 192664, Note_on_c, 0, 69, 39
1, 192664, Note_on_c, 0, 78, 47
1, 192672, Control_c, 0, 64, 127
1, 192833, Note_on_c, 0, 78, 0
1, 192833, Note_on_c, 0, 69, 0
1, 192833, Note_on_c, 0, 76, 42
1, 192836, Note_on_c, 0, 67, 35
1, 192845, Control_c, 0, 64, 0
1, 192925, Note_on_c, 0, 67, 0
1, 192925, Note_on_c, 0, 76, 0
1, 193016, Note_on_c, 0, 76, 47
1, 193016, Note_on_c, 0, 67, 39
1, 193016, Note_on_c, 0, 55, 0
1, 193019, Note_on_c, 0, 43, 0
1, 193019, Note_on_c, 0, 45, 40
1, 193019, Note_on_c, 0, 57, 40
1, 193024, Control_c, 0, 64, 127
1, 193189, Note_on_c, 0, 67, 0
1, 193189, Note_on_c, 0, 76, 0
1, 193189, Note_on_c, 0, 74, 41
1, 193192, Note_on_c, 0, 66, 34
1, 193199, Control_c, 0, 64, 0
1, 193286, Note_on_c, 0, 66, 0
1, 193286, Note_on_c, 0, 74, 0
1, 193383, Note_on_c, 0, 66, 39
1, 193383, Note_on_c, 0, 74, 47
1, 193414, Control_c, 0, 64, 127
1, 193569, Note_on_c, 0, 74, 0
1, 193569, Note_on_c, 0, 66, 0
1, 193569, Note_on_c, 0, 64, 34
1, 193572, Note_on_c, 0, 73, 41
1, 193581, Control_c, 0, 64, 0
1, 193676, Note_on_c, 0, 73, 0
1, 193676, Note_on_c, 0, 64, 0
1, 193783, Note_on_c, 0, 67, 45
1, 193783, Note_on_c, 0, 73, 54
1, 193783, Note_on_c, 0, 64, 37
1, 193786, Note_on_c, 0, 57, 0
1, 193786, Note_on_c, 0, 45, 0
1, 193786, Note_on_c, 0, 50, 39
1, 193789, Control_c, 0, 64, 127
1, 194192, Note_on_c, 0, 50, 0
1, 194192, Note_on_c, 0, 45, 39
1, 194661, Note_on_c, 0, 64, 0
1, 194661, Note_on_c, 0, 73, 0
1, 194661, Note_on_c, 0, 67, 0
1, 194664, Note_on_c, 0, 66, 35
1, 194664, Note_on_c, 0, 74, 42
1, 194664, Note_on_c, 0, 45, 0
1, 194667, Note_on_c, 0, 38, 35
1, 194688, Control_c, 0, 64, 0
1, 195090, Note_on_c, 0, 74, 0
1, 195090, Note_on_c, 0, 66, 0
1, 195090, Note_on_c, 0, 38, 0
1, 196588, End_track
0, 0, End_of_file
