0, 0, Header, 0, 1, 384
1, 0, Start_track
1, 0, Tempo, 512820
1, 0, Title_t, "Klaviersonate Nr. 12 KV 332 2. S"
1, 0, Program_c, 0, 0
1, 0, Control_c, 0, 7, 100
1, 3, Control_c, 0, 10, 64
1, 748, Note_on_c, 0, 70, 50
1, 748, Control_c, 0, 91, 127
1, 748, Program_c, 0, 0
1, 751, Control_c, 0, 7, 100
1, 751, Control_c, 0, 10, 64
1, 751, Note_on_c, 0, 58, 36
1, 754, Program_c, 0, 0
1, 797, Control_c, 0, 64, 127
1, 1049, Note_on_c, 0, 58, 0
1, 1049, Note_on_c, 0, 65, 27
1, 1350, Note_on_c, 0, 65, 0
1, 1350, Note_on_c, 0, 62, 27
1, 1651, Note_on_c, 0, 62, 0
1, 1651, Note_on_c, 0, 65, 27
1, 1952, Note_on_c, 0, 70, 0
1, 1952, Note_on_c, 0, 74, 50
1, 1952, Note_on_c, 0, 65, 0
1, 1955, Note_on_c, 0, 58, 36
1, 1973, Control_c, 0, 64, 0
1, 2031, Control_c, 0, 64, 127
1, 2253, Note_on_c, 0, 74, 0
1, 2253, Note_on_c, 0, 75, 46
1, 2253, Note_on_c, 0, 58, 0
1, 2256, Note_on_c, 0, 65, 28
1, 2348, Note_on_c, 0, 75, 0
1, 2348, Note_on_c, 0, 74, 41
1, 2444, Note_on_c, 0, 74, 0
1, 2444, Note_on_c, 0, 72, 42
1, 2539, Note_on_c, 0, 72, 0
1, 2539, Note_on_c, 0, 74, 50
1, 2539, Note_on_c, 0, 65, 0
1, 2542, Note_on_c, 0, 62, 28
1, 2552, Control_c, 0, 64, 0
1, 2626, Control_c, 0, 64, 127
1, 2837, Note_on_c, 0, 74, 0
1, 2837, Note_on_c, 0, 75, 50
1, 2837, Note_on_c, 0, 62, 0
1, 2840, Note_on_c, 0, 65, 28
1, 3160, Note_on_c, 0, 75, 0
1, 3160, Note_on_c, 0, 76, 55
1, 3160, Note_on_c, 0, 65, 0
1, 3163, Note_on_c, 0, 57, 36
1, 3174, Control_c, 0, 64, 0
1, 3230, Control_c, 0, 64, 127
1, 3461, Note_on_c, 0, 57, 0
1, 3461, Note_on_c, 0, 65, 25
1, 3762, Note_on_c, 0, 65, 0
1, 3762, Note_on_c, 0, 60, 27
1, 4063, Note_on_c, 0, 76, 0
1, 4063, Note_on_c, 0, 77, 49
1, 4063, Note_on_c, 0, 60, 0
1, 4066, Note_on_c, 0, 65, 24
1, 4388, Note_on_c, 0, 77, 0
1, 4388, Note_on_c, 0, 72, 42
1, 4388, Note_on_c, 0, 65, 0
1, 4391, Note_on_c, 0, 57, 30
1, 4403, Control_c, 0, 64, 0
1, 4516, Control_c, 0, 64, 127
1, 4689, Note_on_c, 0, 72, 0
1, 4689, Note_on_c, 0, 57, 0
1, 4689, Note_on_c, 0, 65, 22
1, 4990, Note_on_c, 0, 65, 0
1, 4990, Note_on_c, 0, 60, 27
1, 5291, Note_on_c, 0, 60, 0
1, 5291, Note_on_c, 0, 65, 23
1, 5609, Note_on_c, 0, 75, 50
1, 5609, Note_on_c, 0, 65, 0
1, 5609, Note_on_c, 0, 55, 36
1, 5635, Control_c, 0, 64, 0
1, 5685, Control_c, 0, 64, 127
1, 5913, Note_on_c, 0, 75, 0
1, 5913, Note_on_c, 0, 77, 46
1, 5913, Note_on_c, 0, 55, 0
1, 5916, Note_on_c, 0, 63, 32
1, 6015, Note_on_c, 0, 77, 0
1, 6015, Note_on_c, 0, 75, 42
1, 6111, Note_on_c, 0, 75, 0
1, 6111, Note_on_c, 0, 74, 44
1, 6206, Note_on_c, 0, 74, 0
1, 6206, Note_on_c, 0, 75, 50
1, 6206, Note_on_c, 0, 63, 0
1, 6209, Note_on_c, 0, 58, 32
1, 6224, Control_c, 0, 64, 0
1, 6268, Control_c, 0, 64, 127
1, 6511, Note_on_c, 0, 75, 0
1, 6511, Note_on_c, 0, 77, 50
1, 6511, Note_on_c, 0, 58, 0
1, 6514, Note_on_c, 0, 63, 32
1, 6815, Note_on_c, 0, 77, 0
1, 6815, Note_on_c, 0, 79, 52
1, 6815, Note_on_c, 0, 63, 0
1, 6818, Note_on_c, 0, 51, 36
1, 6831, Control_c, 0, 64, 0
1, 6936, Control_c, 0, 64, 127
1, 7120, Note_on_c, 0, 79, 0
1, 7120, Note_on_c, 0, 81, 49
1, 7120, Note_on_c, 0, 51, 0
1, 7123, Note_on_c, 0, 58, 33
1, 7215, Note_on_c, 0, 81, 0
1, 7215, Note_on_c, 0, 79, 49
1, 7309, Note_on_c, 0, 79, 0
1, 7309, Note_on_c, 0, 77, 49
1, 7403, Note_on_c, 0, 77, 0
1, 7403, Note_on_c, 0, 79, 57
1, 7403, Note_on_c, 0, 58, 0
1, 7406, Note_on_c, 0, 55, 35
1, 7406, Control_c, 0, 64, 0
1, 7475, Control_c, 0, 64, 127
1, 7708, Note_on_c, 0, 79, 0
1, 7708, Note_on_c, 0, 81, 59
1, 7708, Note_on_c, 0, 55, 0
1, 7711, Note_on_c, 0, 58, 36
1, 8024, Note_on_c, 0, 81, 0
1, 8024, Note_on_c, 0, 81, 68
1, 8024, Note_on_c, 0, 58, 0
1, 8027, Note_on_c, 0, 50, 41
1, 8038, Control_c, 0, 64, 0
1, 8104, Control_c, 0, 64, 127
1, 8328, Note_on_c, 0, 50, 0
1, 8328, Note_on_c, 0, 58, 30
1, 8625, Note_on_c, 0, 58, 0
1, 8625, Note_on_c, 0, 53, 35
1, 8922, Note_on_c, 0, 81, 0
1, 8922, Note_on_c, 0, 82, 54
1, 8922, Note_on_c, 0, 53, 0
1, 8925, Note_on_c, 0, 58, 28
1, 9239, Note_on_c, 0, 82, 0
1, 9239, Note_on_c, 0, 77, 54
1, 9239, Note_on_c, 0, 58, 0
1, 9242, Note_on_c, 0, 50, 36
1, 9253, Control_c, 0, 64, 0
1, 9333, Control_c, 0, 64, 127
1, 9544, Note_on_c, 0, 77, 0
1, 9544, Note_on_c, 0, 50, 0
1, 9544, Note_on_c, 0, 58, 26
1, 9848, Note_on_c, 0, 58, 0
1, 9848, Note_on_c, 0, 53, 31
1, 10153, Note_on_c, 0, 53, 0
1, 10153, Note_on_c, 0, 58, 27
1, 10474, Note_on_c, 0, 79, 59
1, 10474, Note_on_c, 0, 58, 0
1, 10474, Note_on_c, 0, 51, 36
1, 10488, Control_c, 0, 64, 0
1, 10568, Control_c, 0, 64, 127
1, 10779, Note_on_c, 0, 51, 0
1, 10779, Note_on_c, 0, 55, 27
1, 11079, Note_on_c, 0, 55, 0
1, 11079, Note_on_c, 0, 51, 31
1, 11380, Note_on_c, 0, 79, 0
1, 11380, Note_on_c, 0, 80, 50
1, 11380, Note_on_c, 0, 51, 0
1, 11383, Note_on_c, 0, 59, 27
1, 11532, Note_on_c, 0, 80, 0
1, 11532, Note_on_c, 0, 79, 50
1, 11684, Note_on_c, 0, 79, 0
1, 11684, Note_on_c, 0, 77, 55
1, 11684, Note_on_c, 0, 59, 0
1, 11687, Note_on_c, 0, 51, 34
1, 11700, Control_c, 0, 64, 0
1, 11819, Control_c, 0, 64, 127
1, 11997, Note_on_c, 0, 77, 0
1, 11997, Note_on_c, 0, 75, 52
1, 11997, Note_on_c, 0, 51, 0
1, 12000, Note_on_c, 0, 60, 27
1, 12302, Note_on_c, 0, 75, 0
1, 12302, Note_on_c, 0, 74, 48
1, 12302, Note_on_c, 0, 60, 0
1, 12305, Note_on_c, 0, 51, 27
1, 12606, Note_on_c, 0, 74, 0
1, 12606, Note_on_c, 0, 72, 48
1, 12606, Note_on_c, 0, 51, 0
1, 12609, Note_on_c, 0, 63, 27
1, 12929, Note_on_c, 0, 72, 0
1, 12929, Note_on_c, 0, 76, 58
1, 12929, Note_on_c, 0, 63, 0
1, 12932, Note_on_c, 0, 50, 36
1, 12944, Control_c, 0, 64, 0
1, 13046, Control_c, 0, 64, 127
1, 13237, Note_on_c, 0, 76, 0
1, 13237, Note_on_c, 0, 77, 51
1, 13237, Note_on_c, 0, 50, 0
1, 13240, Note_on_c, 0, 53, 29
1, 13243, Control_c, 0, 64, 0
1, 13376, Control_c, 0, 64, 127
1, 13546, Note_on_c, 0, 53, 0
1, 13546, Note_on_c, 0, 50, 33
1, 13855, Note_on_c, 0, 77, 0
1, 13855, Note_on_c, 0, 79, 55
1, 13855, Note_on_c, 0, 50, 0
1, 13858, Note_on_c, 0, 57, 33
1, 14000, Note_on_c, 0, 79, 0
1, 14000, Note_on_c, 0, 77, 52
1, 14145, Note_on_c, 0, 77, 0
1, 14145, Note_on_c, 0, 75, 54
1, 14145, Note_on_c, 0, 57, 0
1, 14148, Note_on_c, 0, 50, 36
1, 14167, Control_c, 0, 64, 0
1, 14249, Control_c, 0, 64, 127
1, 14458, Note_on_c, 0, 75, 0
1, 14458, Note_on_c, 0, 74, 55
1, 14458, Note_on_c, 0, 50, 0
1, 14461, Note_on_c, 0, 58, 30
1, 14696, Note_on_c, 0, 74, 0
1, 14755, Note_on_c, 0, 72, 56
1, 14755, Note_on_c, 0, 58, 0
1, 14755, Note_on_c, 0, 50, 31
1, 15002, Note_on_c, 0, 72, 0
1, 15064, Note_on_c, 0, 70, 59
1, 15064, Note_on_c, 0, 50, 0
1, 15064, Note_on_c, 0, 62, 33
1, 15331, Note_on_c, 0, 70, 0
1, 15398, Note_on_c, 0, 77, 66
1, 15398, Note_on_c, 0, 62, 0
1, 15398, Note_on_c, 0, 53, 36
1, 15401, Control_c, 0, 64, 0
1, 15539, Control_c, 0, 64, 127
1, 15698, Note_on_c, 0, 77, 0
1, 15698, Note_on_c, 0, 75, 54
1, 15698, Note_on_c, 0, 53, 0
1, 15701, Note_on_c, 0, 65, 30
1, 16003, Note_on_c, 0, 65, 0
1, 16003, Note_on_c, 0, 60, 30
1, 16311, Note_on_c, 0, 75, 0
1, 16311, Note_on_c, 0, 72, 51
1, 16311, Note_on_c, 0, 60, 0
1, 16314, Note_on_c, 0, 65, 25
1, 16636, Note_on_c, 0, 72, 0
1, 16636, Note_on_c, 0, 75, 65
1, 16636, Note_on_c, 0, 65, 0
1, 16639, Note_on_c, 0, 58, 36
1, 16652, Control_c, 0, 64, 0
1, 16818, Control_c, 0, 64, 127
1, 16945, Note_on_c, 0, 75, 0
1, 16945, Note_on_c, 0, 74, 54
1, 16945, Note_on_c, 0, 58, 0
1, 16948, Note_on_c, 0, 65, 28
1, 17253, Note_on_c, 0, 65, 0
1, 17253, Note_on_c, 0, 62, 31
1, 17562, Note_on_c, 0, 74, 0
1, 17562, Note_on_c, 0, 70, 54
1, 17562, Note_on_c, 0, 62, 0
1, 17565, Note_on_c, 0, 65, 30
1, 17887, Note_on_c, 0, 70, 0
1, 17887, Note_on_c, 0, 74, 59
1, 17887, Note_on_c, 0, 65, 0
1, 17890, Note_on_c, 0, 53, 36
1, 17902, Control_c, 0, 64, 0
1, 18032, Control_c, 0, 64, 127
1, 18196, Note_on_c, 0, 53, 0
1, 18196, Note_on_c, 0, 62, 25
1, 18504, Note_on_c, 0, 62, 0
1, 18504, Note_on_c, 0, 58, 25
1, 18813, Note_on_c, 0, 74, 0
1, 18813, Note_on_c, 0, 75, 43
1, 18813, Note_on_c, 0, 58, 0
1, 18816, Note_on_c, 0, 62, 25
1, 18967, Note_on_c, 0, 75, 0
1, 18967, Note_on_c, 0, 74, 43
1, 19121, Note_on_c, 0, 74, 0
1, 19121, Note_on_c, 0, 72, 50
1, 19121, Note_on_c, 0, 62, 0
1, 19124, Note_on_c, 0, 53, 36
1, 19124, Note_on_c, 0, 60, 36
1, 19124, Note_on_c, 0, 57, 36
1, 19137, Control_c, 0, 64, 0
1, 19341, Control_c, 0, 64, 127
1, 19446, Note_on_c, 0, 72, 0
1, 19446, Note_on_c, 0, 77, 53
1, 19755, Note_on_c, 0, 77, 0
1, 19755, Note_on_c, 0, 75, 49
1, 19755, Note_on_c, 0, 57, 0
1, 19758, Note_on_c, 0, 60, 0
1, 19758, Note_on_c, 0, 53, 0
1, 20063, Note_on_c, 0, 75, 0
1, 20063, Note_on_c, 0, 72, 47
1, 20372, Note_on_c, 0, 72, 0
1, 20372, Note_on_c, 0, 70, 50
1, 20372, Note_on_c, 0, 58, 36
1, 20375, Control_c, 0, 64, 0
1, 20444, Control_c, 0, 64, 127
1, 20680, Note_on_c, 0, 70, 0
1, 20680, Note_on_c, 0, 72, 43
1, 20680, Note_on_c, 0, 58, 0
1, 20683, Note_on_c, 0, 65, 31
1, 20778, Note_on_c, 0, 72, 0
1, 20778, Note_on_c, 0, 70, 38
1, 20876, Note_on_c, 0, 70, 0
1, 20876, Note_on_c, 0, 69, 38
1, 20974, Note_on_c, 0, 69, 0
1, 20974, Note_on_c, 0, 70, 45
1, 20974, Note_on_c, 0, 65, 0
1, 20977, Note_on_c, 0, 61, 31
1, 20977, Control_c, 0, 64, 0
1, 21009, Control_c, 0, 64, 127
1, 21279, Note_on_c, 0, 70, 0
1, 21279, Note_on_c, 0, 72, 50
1, 21279, Note_on_c, 0, 61, 0
1, 21282, Note_on_c, 0, 65, 31
1, 21583, Note_on_c, 0, 72, 0
1, 21583, Note_on_c, 0, 73, 50
1, 21583, Note_on_c, 0, 65, 0
1, 21586, Note_on_c, 0, 58, 36
1, 21596, Control_c, 0, 64, 0
1, 21651, Control_c, 0, 64, 127
1, 21888, Note_on_c, 0, 73, 0
1, 21888, Note_on_c, 0, 75, 44
1, 21888, Note_on_c, 0, 58, 0
1, 21891, Note_on_c, 0, 65, 31
1, 21985, Note_on_c, 0, 75, 0
1, 21985, Note_on_c, 0, 73, 40
1, 22081, Note_on_c, 0, 73, 0
1, 22081, Note_on_c, 0, 72, 41
1, 22178, Note_on_c, 0, 72, 0
1, 22178, Note_on_c, 0, 73, 50
1, 22178, Note_on_c, 0, 65, 0
1, 22181, Note_on_c, 0, 61, 31
1, 22191, Control_c, 0, 64, 0
1, 22245, Control_c, 0, 64, 127
1, 22483, Note_on_c, 0, 73, 0
1, 22483, Note_on_c, 0, 75, 50
1, 22483, Note_on_c, 0, 61, 0
1, 22486, Note_on_c, 0, 65, 31
1, 22817, Note_on_c, 0, 75, 0
1, 22817, Note_on_c, 0, 76, 55
1, 22817, Note_on_c, 0, 65, 0
1, 22820, Note_on_c, 0, 56, 36
1, 22831, Control_c, 0, 64, 0
1, 23066, Control_c, 0, 64, 127
1, 23125, Note_on_c, 0, 56, 0
1, 23125, Note_on_c, 0, 65, 27
1, 23426, Note_on_c, 0, 65, 0
1, 23426, Note_on_c, 0, 60, 29
1, 23726, Note_on_c, 0, 76, 0
1, 23726, Note_on_c, 0, 77, 49
1, 23726, Note_on_c, 0, 60, 0
1, 23729, Note_on_c, 0, 65, 27
1, 24047, Note_on_c, 0, 77, 0
1, 24047, Note_on_c, 0, 72, 49
1, 24047, Note_on_c, 0, 65, 0
1, 24050, Note_on_c, 0, 56, 36
1, 24061, Control_c, 0, 64, 0
1, 24267, Control_c, 0, 64, 127
1, 24356, Note_on_c, 0, 72, 0
1, 24356, Note_on_c, 0, 56, 0
1, 24356, Note_on_c, 0, 65, 27
1, 24652, Note_on_c, 0, 65, 0
1, 24652, Note_on_c, 0, 60, 30
1, 24949, Note_on_c, 0, 60, 0
1, 24949, Note_on_c, 0, 65, 26
1, 25278, Note_on_c, 0, 75, 55
1, 25278, Note_on_c, 0, 65, 0
1, 25278, Note_on_c, 0, 54, 36
1, 25290, Control_c, 0, 64, 0
1, 25366, Control_c, 0, 64, 127
1, 25587, Note_on_c, 0, 75, 0
1, 25587, Note_on_c, 0, 77, 49
1, 25587, Note_on_c, 0, 54, 0
1, 25590, Note_on_c, 0, 63, 32
1, 25684, Note_on_c, 0, 77, 0
1, 25684, Note_on_c, 0, 75, 44
1, 25780, Note_on_c, 0, 75, 0
1, 25780, Note_on_c, 0, 74, 44
1, 25877, Note_on_c, 0, 74, 0
1, 25877, Note_on_c, 0, 75, 59
1, 25877, Note_on_c, 0, 63, 0
1, 25880, Note_on_c, 0, 58, 32
1, 25887, Control_c, 0, 64, 0
1, 25939, Control_c, 0, 64, 127
1, 26186, Note_on_c, 0, 75, 0
1, 26186, Note_on_c, 0, 77, 53
1, 26186, Note_on_c, 0, 58, 0
1, 26189, Note_on_c, 0, 63, 32
1, 26494, Note_on_c, 0, 77, 0
1, 26494, Note_on_c, 0, 78, 56
1, 26494, Note_on_c, 0, 63, 0
1, 26497, Note_on_c, 0, 51, 39
1, 26497, Control_c, 0, 64, 0
1, 26549, Control_c, 0, 64, 127
1, 26803, Note_on_c, 0, 78, 0
1, 26803, Note_on_c, 0, 80, 55
1, 26803, Note_on_c, 0, 51, 0
1, 26806, Note_on_c, 0, 58, 33
1, 26899, Note_on_c, 0, 80, 0
1, 26899, Note_on_c, 0, 78, 56
1, 26996, Note_on_c, 0, 78, 0
1, 26996, Note_on_c, 0, 77, 56
1, 27093, Note_on_c, 0, 77, 0
1, 27093, Note_on_c, 0, 78, 63
1, 27093, Note_on_c, 0, 58, 0
1, 27096, Note_on_c, 0, 54, 36
1, 27099, Control_c, 0, 64, 0
1, 27147, Control_c, 0, 64, 127
1, 27398, Note_on_c, 0, 78, 0
1, 27398, Note_on_c, 0, 80, 61
1, 27398, Note_on_c, 0, 54, 0
1, 27401, Note_on_c, 0, 58, 36
1, 27718, Note_on_c, 0, 80, 0
1, 27718, Note_on_c, 0, 81, 68
1, 27718, Note_on_c, 0, 58, 0
1, 27721, Note_on_c, 0, 50, 44
1, 27731, Control_c, 0, 64, 0
1, 27794, Control_c, 0, 64, 127
1, 28023, Note_on_c, 0, 50, 0
1, 28023, Note_on_c, 0, 58, 35
1, 28328, Note_on_c, 0, 58, 0
1, 28328, Note_on_c, 0, 53, 42
1, 28639, Note_on_c, 0, 81, 0
1, 28639, Note_on_c, 0, 82, 64
1, 28639, Note_on_c, 0, 53, 0
1, 28642, Note_on_c, 0, 58, 40
1, 28964, Note_on_c, 0, 82, 0
1, 28964, Note_on_c, 0, 77, 59
1, 28964, Note_on_c, 0, 58, 0
1, 28967, Note_on_c, 0, 49, 46
1, 28977, Control_c, 0, 64, 0
1, 29058, Control_c, 0, 64, 127
1, 29269, Note_on_c, 0, 77, 0
1, 29269, Note_on_c, 0, 49, 0
1, 29269, Note_on_c, 0, 58, 45
1, 29574, Note_on_c, 0, 58, 0
1, 29574, Note_on_c, 0, 53, 50
1, 29878, Note_on_c, 0, 53, 0
1, 29878, Note_on_c, 0, 58, 45
1, 30031, Note_on_c, 0, 76, 69
1, 30199, Note_on_c, 0, 76, 0
1, 30199, Note_on_c, 0, 85, 94
1, 30199, Note_on_c, 0, 58, 0
1, 30202, Note_on_c, 0, 48, 54
1, 30213, Control_c, 0, 64, 0
1, 30285, Control_c, 0, 64, 127
1, 30504, Note_on_c, 0, 48, 0
1, 30504, Note_on_c, 0, 58, 36
1, 30808, Note_on_c, 0, 58, 0
1, 30808, Note_on_c, 0, 55, 36
1, 31113, Note_on_c, 0, 55, 0
1, 31113, Note_on_c, 0, 58, 36
1, 31418, Note_on_c, 0, 58, 0
1, 31418, Note_on_c, 0, 48, 37
1, 31433, Control_c, 0, 64, 0
1, 31504, Control_c, 0, 64, 127
1, 31722, Note_on_c, 0, 85, 0
1, 31722, Note_on_c, 0, 84, 60
1, 31722, Note_on_c, 0, 48, 0
1, 31725, Note_on_c, 0, 58, 24
1, 31873, Note_on_c, 0, 84, 0
1, 31873, Note_on_c, 0, 82, 55
1, 32023, Note_on_c, 0, 82, 0
1, 32023, Note_on_c, 0, 80, 57
1, 32023, Note_on_c, 0, 58, 0
1, 32026, Note_on_c, 0, 55, 27
1, 32173, Note_on_c, 0, 80, 0
1, 32173, Note_on_c, 0, 79, 51
1, 32323, Note_on_c, 0, 79, 0
1, 32323, Note_on_c, 0, 77, 54
1, 32323, Note_on_c, 0, 55, 0
1, 32326, Note_on_c, 0, 58, 23
1, 32474, Note_on_c, 0, 77, 0
1, 32474, Note_on_c, 0, 76, 50
1, 32645, Note_on_c, 0, 76, 0
1, 32645, Note_on_c, 0, 79, 57
1, 32645, Note_on_c, 0, 58, 0
1, 32648, Note_on_c, 0, 49, 34
1, 32654, Control_c, 0, 64, 0
1, 32725, Control_c, 0, 64, 127
1, 32949, Note_on_c, 0, 49, 0
1, 32949, Note_on_c, 0, 56, 22
1, 33254, Note_on_c, 0, 79, 0
1, 33254, Note_on_c, 0, 77, 62
1, 33254, Note_on_c, 0, 56, 0
1, 33257, Note_on_c, 0, 53, 27
1, 33268, Control_c, 0, 64, 0
1, 33340, Control_c, 0, 64, 127
1, 33559, Note_on_c, 0, 53, 0
1, 33559, Note_on_c, 0, 56, 23
1, 33855, Note_on_c, 0, 56, 0
1, 33855, Note_on_c, 0, 46, 29
1, 34152, Note_on_c, 0, 77, 0
1, 34152, Note_on_c, 0, 75, 55
1, 34152, Note_on_c, 0, 46, 0
1, 34155, Note_on_c, 0, 55, 22
1, 34161, Control_c, 0, 64, 0
1, 34251, Control_c, 0, 64, 127
1, 34449, Note_on_c, 0, 55, 0
1, 34449, Note_on_c, 0, 49, 23
1, 34745, Note_on_c, 0, 75, 0
1, 34745, Note_on_c, 0, 73, 56
1, 34745, Note_on_c, 0, 49, 0
1, 34748, Note_on_c, 0, 55, 22
1, 34752, Control_c, 0, 64, 0
1, 34812, Control_c, 0, 64, 127
1, 35058, Note_on_c, 0, 73, 0
1, 35058, Note_on_c, 0, 72, 50
1, 35058, Note_on_c, 0, 55, 0
1, 35061, Note_on_c, 0, 48, 30
1, 35061, Control_c, 0, 64, 0
1, 35130, Control_c, 0, 64, 127
1, 35367, Note_on_c, 0, 72, 0
1, 35367, Note_on_c, 0, 73, 43
1, 35367, Note_on_c, 0, 48, 0
1, 35370, Note_on_c, 0, 56, 26
1, 35465, Note_on_c, 0, 73, 0
1, 35465, Note_on_c, 0, 72, 44
1, 35563, Note_on_c, 0, 72, 0
1, 35563, Note_on_c, 0, 70, 44
1, 35661, Note_on_c, 0, 70, 0
1, 35661, Note_on_c, 0, 72, 45
1, 35661, Note_on_c, 0, 56, 0
1, 35664, Note_on_c, 0, 53, 26
1, 35664, Control_c, 0, 64, 0
1, 35696, Control_c, 0, 64, 127
1, 35965, Note_on_c, 0, 72, 0
1, 35965, Note_on_c, 0, 73, 50
1, 35965, Note_on_c, 0, 53, 0
1, 35968, Note_on_c, 0, 56, 26
1, 36270, Note_on_c, 0, 73, 0
1, 36270, Note_on_c, 0, 65, 50
1, 36270, Note_on_c, 0, 56, 0
1, 36273, Note_on_c, 0, 48, 30
1, 36283, Control_c, 0, 64, 0
1, 36337, Control_c, 0, 64, 127
1, 36575, Note_on_c, 0, 48, 0
1, 36575, Note_on_c, 0, 58, 26
1, 36865, Note_on_c, 0, 65, 0
1, 36865, Note_on_c, 0, 68, 50
1, 36865, Note_on_c, 0, 64, 50
1, 36868, Note_on_c, 0, 58, 0
1, 36868, Note_on_c, 0, 55, 26
1, 36877, Control_c, 0, 64, 0
1, 36932, Control_c, 0, 64, 127
1, 37169, Note_on_c, 0, 68, 0
1, 37169, Note_on_c, 0, 67, 46
1, 37169, Note_on_c, 0, 55, 0
1, 37172, Note_on_c, 0, 58, 26
1, 37503, Note_on_c, 0, 67, 0
1, 37503, Note_on_c, 0, 64, 0
1, 37503, Note_on_c, 0, 65, 53
1, 37506, Note_on_c, 0, 58, 0
1, 37506, Note_on_c, 0, 53, 27
1, 37506, Note_on_c, 0, 57, 38
1, 37516, Control_c, 0, 64, 0
1, 37757, Control_c, 0, 64, 127
1, 37812, Note_on_c, 0, 57, 0
1, 37812, Note_on_c, 0, 60, 30
1, 37962, Note_on_c, 0, 60, 0
1, 38112, Note_on_c, 0, 53, 0
1, 38112, Note_on_c, 0, 60, 30
1, 38263, Note_on_c, 0, 60, 0
1, 38413, Note_on_c, 0, 60, 30
1, 38573, Note_on_c, 0, 60, 0
1, 38734, Note_on_c, 0, 65, 0
1, 38734, Note_on_c, 0, 53, 32
1, 38734, Note_on_c, 0, 57, 38
1, 38751, Control_c, 0, 64, 0
1, 38888, Control_c, 0, 64, 127
1, 39042, Note_on_c, 0, 57, 0
1, 39042, Note_on_c, 0, 60, 28
1, 39339, Note_on_c, 0, 60, 0
1, 39339, Note_on_c, 0, 53, 0
1, 39339, Note_on_c, 0, 58, 28
1, 39342, Note_on_c, 0, 55, 23
1, 39353, Control_c, 0, 64, 0
1, 39470, Control_c, 0, 64, 127
1, 39636, Note_on_c, 0, 58, 0
1, 39636, Note_on_c, 0, 60, 28
1, 39965, Note_on_c, 0, 70, 45
1, 39965, Note_on_c, 0, 60, 0
1, 39965, Note_on_c, 0, 55, 0
1, 39968, Note_on_c, 0, 52, 29
1, 39968, Note_on_c, 0, 55, 35
1, 39968, Control_c, 0, 64, 0
1, 40073, Control_c, 0, 64, 127
1, 40274, Note_on_c, 0, 55, 0
1, 40274, Note_on_c, 0, 60, 30
1, 40424, Note_on_c, 0, 60, 0
1, 40574, Note_on_c, 0, 70, 0
1, 40574, Note_on_c, 0, 52, 0
1, 40574, Note_on_c, 0, 60, 30
1, 40725, Note_on_c, 0, 60, 0
1, 40875, Note_on_c, 0, 60, 30
1, 41035, Note_on_c, 0, 60, 0
1, 41196, Note_on_c, 0, 67, 45
1, 41196, Note_on_c, 0, 48, 28
1, 41196, Note_on_c, 0, 52, 34
1, 41202, Control_c, 0, 64, 0
1, 41332, Control_c, 0, 64, 127
1, 41504, Note_on_c, 0, 67, 0
1, 41504, Note_on_c, 0, 52, 0
1, 41504, Note_on_c, 0, 60, 31
1, 41801, Note_on_c, 0, 64, 42
1, 41801, Note_on_c, 0, 60, 0
1, 41801, Note_on_c, 0, 48, 0
1, 41804, Note_on_c, 0, 58, 31
1, 41804, Note_on_c, 0, 55, 26
1, 41814, Control_c, 0, 64, 0
1, 41940, Control_c, 0, 64, 127
1, 42097, Note_on_c, 0, 64, 0
1, 42097, Note_on_c, 0, 58, 0
1, 42097, Note_on_c, 0, 60, 31
1, 42427, Note_on_c, 0, 72, 53
1, 42427, Note_on_c, 0, 60, 0
1, 42427, Note_on_c, 0, 55, 0
1, 42430, Note_on_c, 0, 53, 32
1, 42430, Note_on_c, 0, 57, 38
1, 42440, Control_c, 0, 64, 0
1, 42535, Control_c, 0, 64, 127
1, 42735, Note_on_c, 0, 57, 0
1, 42735, Note_on_c, 0, 60, 30
1, 42886, Note_on_c, 0, 72, 0
1, 42886, Note_on_c, 0, 69, 49
1, 42886, Note_on_c, 0, 60, 0
1, 43036, Note_on_c, 0, 69, 0
1, 43036, Note_on_c, 0, 72, 53
1, 43036, Note_on_c, 0, 53, 0
1, 43039, Note_on_c, 0, 60, 30
1, 43186, Note_on_c, 0, 60, 0
1, 43337, Note_on_c, 0, 72, 0
1, 43337, Note_on_c, 0, 60, 30
1, 43497, Note_on_c, 0, 60, 0
1, 43657, Note_on_c, 0, 57, 38
1, 43657, Note_on_c, 0, 53, 32
1, 43674, Control_c, 0, 64, 0
1, 43738, Control_c, 0, 64, 127
1, 43966, Note_on_c, 0, 57, 0
1, 43966, Note_on_c, 0, 60, 28
1, 44263, Note_on_c, 0, 60, 0
1, 44263, Note_on_c, 0, 53, 0
1, 44263, Note_on_c, 0, 55, 23
1, 44266, Note_on_c, 0, 58, 28
1, 44275, Control_c, 0, 64, 0
1, 44349, Control_c, 0, 64, 127
1, 44559, Note_on_c, 0, 58, 0
1, 44559, Note_on_c, 0, 60, 28
1, 44889, Note_on_c, 0, 70, 45
1, 44889, Note_on_c, 0, 60, 0
1, 44889, Note_on_c, 0, 55, 0
1, 44892, Note_on_c, 0, 55, 35
1, 44892, Note_on_c, 0, 52, 29
1, 44892, Control_c, 0, 64, 0
1, 44997, Control_c, 0, 64, 127
1, 45197, Note_on_c, 0, 55, 0
1, 45197, Note_on_c, 0, 60, 30
1, 45348, Note_on_c, 0, 60, 0
1, 45498, Note_on_c, 0, 70, 0
1, 45498, Note_on_c, 0, 52, 0
1, 45498, Note_on_c, 0, 60, 30
1, 45648, Note_on_c, 0, 60, 0
1, 45798, Note_on_c, 0, 60, 30
1, 45959, Note_on_c, 0, 60, 0
1, 46119, Note_on_c, 0, 67, 45
1, 46119, Note_on_c, 0, 48, 28
1, 46119, Note_on_c, 0, 52, 34
1, 46126, Control_c, 0, 64, 0
1, 46255, Control_c, 0, 64, 127
1, 46428, Note_on_c, 0, 67, 0
1, 46428, Note_on_c, 0, 52, 0
1, 46428, Note_on_c, 0, 60, 31
1, 46724, Note_on_c, 0, 64, 42
1, 46724, Note_on_c, 0, 60, 0
1, 46724, Note_on_c, 0, 48, 0
1, 46727, Note_on_c, 0, 55, 26
1, 46727, Note_on_c, 0, 58, 31
1, 46738, Control_c, 0, 64, 0
1, 46864, Control_c, 0, 64, 127
1, 47021, Note_on_c, 0, 64, 0
1, 47021, Note_on_c, 0, 58, 0
1, 47021, Note_on_c, 0, 60, 31
1, 47351, Note_on_c, 0, 72, 53
1, 47351, Note_on_c, 0, 60, 0
1, 47351, Note_on_c, 0, 55, 0
1, 47354, Note_on_c, 0, 57, 38
1, 47354, Note_on_c, 0, 53, 32
1, 47363, Control_c, 0, 64, 0
1, 47458, Control_c, 0, 64, 127
1, 47809, Note_on_c, 0, 72, 0
1, 47809, Note_on_c, 0, 69, 50
1, 47960, Note_on_c, 0, 69, 0
1, 47960, Note_on_c, 0, 72, 53
1, 47960, Note_on_c, 0, 53, 0
1, 47963, Note_on_c, 0, 57, 0
1, 48251, Control_c, 0, 64, 0
1, 48260, Note_on_c, 0, 72, 0
1, 48581, Note_on_c, 0, 77, 59
1, 48581, Note_on_c, 0, 81, 70
1, 48680, Control_c, 0, 64, 127
1, 48890, Note_on_c, 0, 81, 0
1, 48890, Note_on_c, 0, 77, 0
1, 48890, Note_on_c, 0, 79, 64
1, 48893, Note_on_c, 0, 76, 54
1, 49186, Note_on_c, 0, 76, 0
1, 49186, Note_on_c, 0, 79, 0
1, 49186, Note_on_c, 0, 74, 48
1, 49189, Note_on_c, 0, 77, 57
1, 49194, Control_c, 0, 64, 0
1, 49453, Note_on_c, 0, 77, 0
1, 49453, Note_on_c, 0, 74, 0
1, 49483, Note_on_c, 0, 73, 48
1, 49483, Note_on_c, 0, 76, 57
1, 49761, Note_on_c, 0, 76, 0
1, 49761, Note_on_c, 0, 73, 0
1, 49792, Note_on_c, 0, 77, 70
1, 49792, Note_on_c, 0, 74, 59
1, 49910, Control_c, 0, 64, 127
1, 50105, Note_on_c, 0, 74, 0
1, 50105, Note_on_c, 0, 77, 0
1, 50105, Note_on_c, 0, 72, 54
1, 50108, Note_on_c, 0, 76, 64
1, 50405, Note_on_c, 0, 76, 0
1, 50405, Note_on_c, 0, 72, 0
1, 50405, Note_on_c, 0, 70, 50
1, 50408, Note_on_c, 0, 74, 59
1, 50419, Control_c, 0, 64, 0
1, 50676, Note_on_c, 0, 74, 0
1, 50676, Note_on_c, 0, 70, 0
1, 50706, Note_on_c, 0, 73, 59
1, 50706, Note_on_c, 0, 69, 50
1, 50988, Note_on_c, 0, 69, 0
1, 50988, Note_on_c, 0, 73, 0
1, 51019, Note_on_c, 0, 70, 59
1, 51019, Note_on_c, 0, 74, 70
1, 51141, Control_c, 0, 64, 127
1, 51332, Note_on_c, 0, 74, 0
1, 51332, Note_on_c, 0, 70, 0
1, 51332, Note_on_c, 0, 69, 53
1, 51335, Note_on_c, 0, 72, 63
1, 51637, Note_on_c, 0, 72, 0
1, 51637, Note_on_c, 0, 69, 0
1, 51637, Note_on_c, 0, 67, 50
1, 51640, Note_on_c, 0, 70, 59
1, 51651, Control_c, 0, 64, 0
1, 51911, Note_on_c, 0, 70, 0
1, 51911, Note_on_c, 0, 67, 0
1, 51942, Note_on_c, 0, 69, 58
1, 51942, Note_on_c, 0, 66, 49
1, 52216, Note_on_c, 0, 66, 0
1, 52216, Note_on_c, 0, 69, 0
1, 52246, Note_on_c, 0, 62, 49
1, 52246, Note_on_c, 0, 66, 58
1, 52246, Note_on_c, 0, 69, 58
1, 52249, Note_on_c, 0, 54, 27
1, 52249, Note_on_c, 0, 50, 27
1, 52249, Note_on_c, 0, 60, 32
1, 52252, Note_on_c, 0, 57, 27
1, 52353, Control_c, 0, 64, 127
1, 53465, Note_on_c, 0, 69, 0
1, 53465, Note_on_c, 0, 66, 0
1, 53465, Note_on_c, 0, 70, 49
1, 53468, Note_on_c, 0, 67, 41
1, 53468, Note_on_c, 0, 57, 0
1, 53468, Note_on_c, 0, 54, 0
1, 53471, Note_on_c, 0, 50, 0
1, 53471, Note_on_c, 0, 60, 0
1, 53471, Note_on_c, 0, 55, 35
1, 53474, Note_on_c, 0, 58, 42
1, 53474, Control_c, 0, 64, 0
1, 53770, Note_on_c, 0, 67, 0
1, 53770, Note_on_c, 0, 62, 0
1, 53922, Note_on_c, 0, 70, 0
1, 53922, Note_on_c, 0, 74, 45
1, 53973, Note_on_c, 0, 74, 0
1, 53973, Note_on_c, 0, 72, 45
1, 54024, Note_on_c, 0, 72, 0
1, 54024, Note_on_c, 0, 70, 45
1, 54075, Note_on_c, 0, 70, 0
1, 54075, Note_on_c, 0, 72, 50
1, 54075, Note_on_c, 0, 58, 0
1, 54078, Note_on_c, 0, 64, 44
1, 54175, Control_c, 0, 64, 127
1, 54379, Note_on_c, 0, 72, 0
1, 54379, Note_on_c, 0, 74, 48
1, 54684, Note_on_c, 0, 74, 0
1, 54684, Note_on_c, 0, 72, 49
1, 54684, Note_on_c, 0, 64, 0
1, 54687, Note_on_c, 0, 55, 0
1, 54687, Note_on_c, 0, 57, 40
1, 54687, Note_on_c, 0, 65, 48
1, 54697, Control_c, 0, 64, 0
1, 54830, Control_c, 0, 64, 127
1, 54878, Note_on_c, 0, 72, 0
1, 54878, Note_on_c, 0, 70, 45
1, 55077, Note_on_c, 0, 70, 0
1, 55077, Note_on_c, 0, 69, 45
1, 55279, Note_on_c, 0, 69, 0
1, 55279, Note_on_c, 0, 67, 48
1, 55279, Note_on_c, 0, 65, 0
1, 55282, Note_on_c, 0, 57, 0
1, 55282, Note_on_c, 0, 58, 38
1, 55282, Note_on_c, 0, 62, 45
1, 55303, Control_c, 0, 64, 0
1, 55453, Control_c, 0, 64, 127
1, 55476, Note_on_c, 0, 67, 0
1, 55476, Note_on_c, 0, 70, 45
1, 55677, Note_on_c, 0, 70, 0
1, 55677, Note_on_c, 0, 74, 45
1, 55882, Note_on_c, 0, 74, 0
1, 55882, Note_on_c, 0, 65, 50
1, 55882, Note_on_c, 0, 62, 0
1, 55885, Note_on_c, 0, 58, 0
1, 55885, Note_on_c, 0, 57, 44
1, 55885, Note_on_c, 0, 48, 37
1, 55894, Control_c, 0, 64, 0
1, 56008, Control_c, 0, 64, 127
1, 56490, Note_on_c, 0, 65, 0
1, 56490, Note_on_c, 0, 64, 38
1, 56490, Note_on_c, 0, 67, 45
1, 56493, Note_on_c, 0, 57, 0
1, 56493, Note_on_c, 0, 58, 40
1, 56502, Control_c, 0, 64, 0
1, 56641, Control_c, 0, 64, 127
1, 57110, Note_on_c, 0, 67, 0
1, 57110, Note_on_c, 0, 64, 0
1, 57110, Note_on_c, 0, 67, 48
1, 57113, Note_on_c, 0, 64, 40
1, 57113, Note_on_c, 0, 58, 0
1, 57113, Note_on_c, 0, 48, 0
1, 57116, Note_on_c, 0, 57, 38
1, 57116, Note_on_c, 0, 53, 32
1, 57116, Control_c, 0, 64, 0
1, 57212, Control_c, 0, 64, 127
1, 57418, Note_on_c, 0, 57, 0
1, 57418, Note_on_c, 0, 60, 30
1, 57568, Note_on_c, 0, 67, 0
1, 57568, Note_on_c, 0, 68, 35
1, 57568, Note_on_c, 0, 60, 0
1, 57719, Note_on_c, 0, 68, 0
1, 57719, Note_on_c, 0, 64, 0
1, 57719, Note_on_c, 0, 69, 44
1, 57722, Note_on_c, 0, 65, 38
1, 57722, Note_on_c, 0, 53, 0
1, 57722, Note_on_c, 0, 60, 30
1, 57731, Control_c, 0, 64, 0
1, 57869, Note_on_c, 0, 60, 0
1, 57869, Control_c, 0, 64, 127
1, 58019, Note_on_c, 0, 60, 30
1, 58180, Note_on_c, 0, 60, 0
1, 58340, Note_on_c, 0, 65, 0
1, 58340, Note_on_c, 0, 69, 0
1, 58340, Note_on_c, 0, 53, 28
1, 58343, Note_on_c, 0, 57, 33
1, 58353, Control_c, 0, 64, 0
1, 58449, Control_c, 0, 64, 127
1, 58649, Note_on_c, 0, 57, 0
1, 58649, Note_on_c, 0, 60, 27
1, 58945, Note_on_c, 0, 60, 0
1, 58945, Note_on_c, 0, 53, 0
1, 58945, Note_on_c, 0, 58, 27
1, 58948, Note_on_c, 0, 55, 22
1, 58958, Control_c, 0, 64, 0
1, 59023, Control_c, 0, 64, 127
1, 59242, Note_on_c, 0, 58, 0
1, 59242, Note_on_c, 0, 60, 27
1, 59571, Note_on_c, 0, 70, 45
1, 59571, Note_on_c, 0, 60, 0
1, 59571, Note_on_c, 0, 55, 0
1, 59574, Note_on_c, 0, 52, 29
1, 59574, Note_on_c, 0, 55, 35
1, 59574, Control_c, 0, 64, 0
1, 59679, Control_c, 0, 64, 127
1, 59880, Note_on_c, 0, 55, 0
1, 59880, Note_on_c, 0, 60, 30
1, 60030, Note_on_c, 0, 60, 0
1, 60181, Note_on_c, 0, 70, 0
1, 60181, Note_on_c, 0, 52, 0
1, 60181, Note_on_c, 0, 60, 30
1, 60331, Note_on_c, 0, 60, 0
1, 60481, Note_on_c, 0, 60, 30
1, 60641, Note_on_c, 0, 60, 0
1, 60802, Note_on_c, 0, 67, 45
1, 60802, Note_on_c, 0, 48, 28
1, 60802, Note_on_c, 0, 52, 34
1, 60808, Control_c, 0, 64, 0
1, 60938, Control_c, 0, 64, 127
1, 61110, Note_on_c, 0, 67, 0
1, 61110, Note_on_c, 0, 52, 0
1, 61110, Note_on_c, 0, 60, 31
1, 61407, Note_on_c, 0, 64, 42
1, 61407, Note_on_c, 0, 60, 0
1, 61407, Note_on_c, 0, 48, 0
1, 61410, Note_on_c, 0, 58, 31
1, 61410, Note_on_c, 0, 55, 26
1, 61421, Control_c, 0, 64, 0
1, 61547, Control_c, 0, 64, 127
1, 61704, Note_on_c, 0, 64, 0
1, 61704, Note_on_c, 0, 58, 0
1, 61704, Note_on_c, 0, 60, 31
1, 62033, Note_on_c, 0, 72, 53
1, 62033, Note_on_c, 0, 60, 0
1, 62033, Note_on_c, 0, 55, 0
1, 62036, Note_on_c, 0, 53, 32
1, 62036, Note_on_c, 0, 57, 38
1, 62046, Control_c, 0, 64, 0
1, 62141, Control_c, 0, 64, 127
1, 62342, Note_on_c, 0, 57, 0
1, 62342, Note_on_c, 0, 60, 30
1, 62492, Note_on_c, 0, 72, 0
1, 62492, Note_on_c, 0, 69, 49
1, 62492, Note_on_c, 0, 60, 0
1, 62642, Note_on_c, 0, 69, 0
1, 62642, Note_on_c, 0, 72, 53
1, 62642, Note_on_c, 0, 53, 0
1, 62645, Note_on_c, 0, 60, 30
1, 62793, Note_on_c, 0, 60, 0
1, 62943, Note_on_c, 0, 72, 0
1, 62943, Note_on_c, 0, 60, 30
1, 63103, Note_on_c, 0, 60, 0
1, 63264, Note_on_c, 0, 53, 32
1, 63264, Note_on_c, 0, 57, 38
1, 63280, Control_c, 0, 64, 0
1, 63345, Control_c, 0, 64, 127
1, 63572, Note_on_c, 0, 57, 0
1, 63572, Note_on_c, 0, 60, 28
1, 63869, Note_on_c, 0, 60, 0
1, 63869, Note_on_c, 0, 53, 0
1, 63869, Note_on_c, 0, 58, 28
1, 63872, Note_on_c, 0, 55, 23
1, 63881, Control_c, 0, 64, 0
1, 63955, Control_c, 0, 64, 127
1, 64165, Note_on_c, 0, 58, 0
1, 64165, Note_on_c, 0, 60, 28
1, 64495, Note_on_c, 0, 70, 45
1, 64495, Note_on_c, 0, 60, 0
1, 64495, Note_on_c, 0, 55, 0
1, 64498, Note_on_c, 0, 52, 29
1, 64498, Note_on_c, 0, 55, 35
1, 64498, Control_c, 0, 64, 0
1, 64603, Control_c, 0, 64, 127
1, 64803, Note_on_c, 0, 55, 0
1, 64803, Note_on_c, 0, 60, 30
1, 64954, Note_on_c, 0, 60, 0
1, 65104, Note_on_c, 0, 70, 0
1, 65104, Note_on_c, 0, 52, 0
1, 65104, Note_on_c, 0, 60, 30
1, 65254, Note_on_c, 0, 60, 0
1, 65405, Note_on_c, 0, 60, 30
1, 65565, Note_on_c, 0, 60, 0
1, 65725, Note_on_c, 0, 67, 45
1, 65725, Note_on_c, 0, 48, 28
1, 65725, Note_on_c, 0, 52, 34
1, 65732, Control_c, 0, 64, 0
1, 65862, Control_c, 0, 64, 127
1, 66034, Note_on_c, 0, 67, 0
1, 66034, Note_on_c, 0, 52, 0
1, 66034, Note_on_c, 0, 60, 31
1, 66331, Note_on_c, 0, 64, 42
1, 66331, Note_on_c, 0, 60, 0
1, 66331, Note_on_c, 0, 48, 0
1, 66334, Note_on_c, 0, 55, 26
1, 66334, Note_on_c, 0, 58, 31
1, 66344, Control_c, 0, 64, 0
1, 66470, Control_c, 0, 64, 127
1, 66627, Note_on_c, 0, 64, 0
1, 66627, Note_on_c, 0, 58, 0
1, 66627, Note_on_c, 0, 60, 31
1, 66957, Note_on_c, 0, 72, 53
1, 66957, Note_on_c, 0, 60, 0
1, 66957, Note_on_c, 0, 55, 0
1, 66960, Note_on_c, 0, 53, 32
1, 66960, Note_on_c, 0, 57, 38
1, 66970, Control_c, 0, 64, 0
1, 67065, Control_c, 0, 64, 127
1, 67416, Note_on_c, 0, 72, 0
1, 67416, Note_on_c, 0, 77, 50
1, 67566, Note_on_c, 0, 77, 0
1, 67566, Note_on_c, 0, 72, 53
1, 67566, Note_on_c, 0, 57, 0
1, 67569, Note_on_c, 0, 53, 0
1, 67858, Control_c, 0, 64, 0
1, 67866, Note_on_c, 0, 72, 0
1, 68187, Note_on_c, 0, 81, 70
1, 68187, Note_on_c, 0, 77, 59
1, 68286, Control_c, 0, 64, 127
1, 68496, Note_on_c, 0, 77, 0
1, 68496, Note_on_c, 0, 81, 0
1, 68496, Note_on_c, 0, 76, 54
1, 68499, Note_on_c, 0, 79, 64
1, 68792, Note_on_c, 0, 79, 0
1, 68792, Note_on_c, 0, 76, 0
1, 68792, Note_on_c, 0, 74, 48
1, 68795, Note_on_c, 0, 77, 57
1, 68800, Control_c, 0, 64, 0
1, 69059, Note_on_c, 0, 77, 0
1, 69059, Note_on_c, 0, 74, 0
1, 69089, Note_on_c, 0, 73, 48
1, 69089, Note_on_c, 0, 76, 57
1, 69367, Note_on_c, 0, 76, 0
1, 69367, Note_on_c, 0, 73, 0
1, 69398, Note_on_c, 0, 74, 59
1, 69398, Note_on_c, 0, 77, 70
1, 69517, Control_c, 0, 64, 127
1, 69711, Note_on_c, 0, 77, 0
1, 69711, Note_on_c, 0, 74, 0
1, 69711, Note_on_c, 0, 72, 54
1, 69714, Note_on_c, 0, 76, 64
1, 70012, Note_on_c, 0, 76, 0
1, 70012, Note_on_c, 0, 72, 0
1, 70012, Note_on_c, 0, 70, 50
1, 70015, Note_on_c, 0, 74, 59
1, 70025, Control_c, 0, 64, 0
1, 70282, Note_on_c, 0, 74, 0
1, 70282, Note_on_c, 0, 70, 0
1, 70312, Note_on_c, 0, 73, 59
1, 70312, Note_on_c, 0, 69, 50
1, 70594, Note_on_c, 0, 69, 0
1, 70594, Note_on_c, 0, 73, 0
1, 70625, Note_on_c, 0, 70, 59
1, 70625, Note_on_c, 0, 74, 70
1, 70747, Control_c, 0, 64, 127
1, 70939, Note_on_c, 0, 74, 0
1, 70939, Note_on_c, 0, 70, 0
1, 70939, Note_on_c, 0, 72, 63
1, 70942, Note_on_c, 0, 69, 53
1, 71243, Note_on_c, 0, 69, 0
1, 71243, Note_on_c, 0, 72, 0
1, 71243, Note_on_c, 0, 70, 59
1, 71246, Note_on_c, 0, 67, 50
1, 71257, Control_c, 0, 64, 0
1, 71518, Note_on_c, 0, 67, 0
1, 71518, Note_on_c, 0, 70, 0
1, 71548, Note_on_c, 0, 66, 49
1, 71548, Note_on_c, 0, 69, 58
1, 71853, Note_on_c, 0, 69, 0
1, 71853, Note_on_c, 0, 66, 0
1, 71889, Note_on_c, 0, 69, 58
1, 71889, Note_on_c, 0, 62, 49
1, 71889, Note_on_c, 0, 66, 58
1, 71892, Note_on_c, 0, 60, 34
1, 71892, Note_on_c, 0, 54, 29
1, 71892, Note_on_c, 0, 57, 29
1, 71895, Note_on_c, 0, 50, 29
1, 71995, Control_c, 0, 64, 127
1, 73107, Note_on_c, 0, 66, 0
1, 73107, Note_on_c, 0, 69, 0
1, 73107, Note_on_c, 0, 67, 41
1, 73110, Note_on_c, 0, 70, 49
1, 73110, Note_on_c, 0, 50, 0
1, 73110, Note_on_c, 0, 60, 0
1, 73113, Note_on_c, 0, 54, 0
1, 73113, Note_on_c, 0, 57, 0
1, 73113, Note_on_c, 0, 55, 35
1, 73116, Note_on_c, 0, 58, 42
1, 73116, Control_c, 0, 64, 0
1, 73412, Note_on_c, 0, 67, 0
1, 73412, Note_on_c, 0, 62, 0
1, 73564, Note_on_c, 0, 70, 0
1, 73564, Note_on_c, 0, 74, 45
1, 73615, Note_on_c, 0, 74, 0
1, 73615, Note_on_c, 0, 72, 45
1, 73666, Note_on_c, 0, 72, 0
1, 73666, Note_on_c, 0, 70, 45
1, 73717, Note_on_c, 0, 70, 0
1, 73717, Note_on_c, 0, 72, 50
1, 73717, Note_on_c, 0, 58, 0
1, 73720, Note_on_c, 0, 64, 44
1, 73817, Control_c, 0, 64, 127
1, 74021, Note_on_c, 0, 72, 0
1, 74021, Note_on_c, 0, 74, 48
1, 74326, Note_on_c, 0, 74, 0
1, 74326, Note_on_c, 0, 72, 49
1, 74326, Note_on_c, 0, 64, 0
1, 74329, Note_on_c, 0, 55, 0
1, 74329, Note_on_c, 0, 65, 48
1, 74329, Note_on_c, 0, 57, 40
1, 74340, Control_c, 0, 64, 0
1, 74431, Control_c, 0, 64, 127
1, 74526, Note_on_c, 0, 72, 0
1, 74526, Note_on_c, 0, 77, 45
1, 74727, Note_on_c, 0, 77, 0
1, 74727, Note_on_c, 0, 69, 42
1, 74927, Note_on_c, 0, 69, 0
1, 74927, Note_on_c, 0, 67, 48
1, 74927, Note_on_c, 0, 57, 0
1, 74930, Note_on_c, 0, 65, 0
1, 74930, Note_on_c, 0, 62, 45
1, 74930, Note_on_c, 0, 58, 38
1, 74951, Control_c, 0, 64, 0
1, 75106, Control_c, 0, 64, 127
1, 75130, Note_on_c, 0, 67, 0
1, 75130, Note_on_c, 0, 70, 45
1, 75333, Note_on_c, 0, 70, 0
1, 75333, Note_on_c, 0, 74, 43
1, 75555, Note_on_c, 0, 74, 0
1, 75555, Note_on_c, 0, 65, 50
1, 75555, Note_on_c, 0, 58, 0
1, 75558, Note_on_c, 0, 62, 0
1, 75558, Note_on_c, 0, 57, 42
1, 75558, Note_on_c, 0, 48, 33
1, 75566, Control_c, 0, 64, 0
1, 75681, Control_c, 0, 64, 127
1, 76164, Note_on_c, 0, 65, 0
1, 76164, Note_on_c, 0, 64, 45
1, 76164, Note_on_c, 0, 57, 0
1, 76167, Note_on_c, 0, 55, 40
1, 76177, Control_c, 0, 64, 0
1, 76317, Control_c, 0, 64, 127
1, 76736, Note_on_c, 0, 64, 0
1, 76736, Note_on_c, 0, 69, 56
1, 76742, Control_c, 0, 64, 0
1, 76753, Control_c, 0, 64, 127
1, 76774, Note_on_c, 0, 69, 0
1, 76774, Note_on_c, 0, 81, 73
1, 76774, Note_on_c, 0, 55, 0
1, 76777, Note_on_c, 0, 48, 0
1, 77083, Note_on_c, 0, 53, 50
1, 77392, Note_on_c, 0, 53, 0
1, 77392, Note_on_c, 0, 57, 54
1, 77623, Note_on_c, 0, 81, 0
1, 77623, Note_on_c, 0, 77, 49
1, 77700, Note_on_c, 0, 77, 0
1, 77700, Note_on_c, 0, 77, 53
1, 77700, Note_on_c, 0, 57, 0
1, 77703, Note_on_c, 0, 62, 50
1, 77760, Note_on_c, 0, 77, 0
1, 77760, Note_on_c, 0, 79, 50
1, 77819, Note_on_c, 0, 79, 0
1, 77819, Note_on_c, 0, 77, 54
1, 77878, Note_on_c, 0, 77, 0
1, 77878, Note_on_c, 0, 76, 52
1, 77938, Note_on_c, 0, 76, 0
1, 77938, Note_on_c, 0, 77, 54
1, 77997, Note_on_c, 0, 77, 0
1, 77997, Note_on_c, 0, 70, 60
1, 77997, Note_on_c, 0, 62, 0
1, 78004, Control_c, 0, 64, 0
1, 78036, Note_on_c, 0, 82, 74
1, 78064, Control_c, 0, 64, 127
1, 78075, Note_on_c, 0, 70, 0
1, 78310, Note_on_c, 0, 55, 50
1, 78623, Note_on_c, 0, 55, 0
1, 78623, Note_on_c, 0, 58, 54
1, 78858, Note_on_c, 0, 82, 0
1, 78858, Note_on_c, 0, 79, 56
1, 78937, Note_on_c, 0, 79, 0
1, 78937, Note_on_c, 0, 79, 56
1, 78937, Note_on_c, 0, 58, 0
1, 78940, Note_on_c, 0, 64, 50
1, 78995, Note_on_c, 0, 79, 0
1, 78995, Note_on_c, 0, 81, 52
1, 79054, Note_on_c, 0, 81, 0
1, 79054, Note_on_c, 0, 79, 56
1, 79112, Note_on_c, 0, 79, 0
1, 79112, Note_on_c, 0, 78, 54
1, 79171, Note_on_c, 0, 78, 0
1, 79171, Note_on_c, 0, 79, 56
1, 79229, Note_on_c, 0, 79, 0
1, 79229, Note_on_c, 0, 84, 74
1, 79229, Note_on_c, 0, 64, 0
1, 79242, Control_c, 0, 64, 0
1, 79327, Control_c, 0, 64, 127
1, 79526, Note_on_c, 0, 57, 50
1, 79683, Note_on_c, 0, 84, 0
1, 79683, Note_on_c, 0, 81, 61
1, 79839, Note_on_c, 0, 81, 0
1, 79839, Note_on_c, 0, 77, 69
1, 79839, Note_on_c, 0, 57, 0
1, 79842, Note_on_c, 0, 60, 54
1, 80152, Note_on_c, 0, 60, 0
1, 80152, Note_on_c, 0, 65, 45
1, 80449, Note_on_c, 0, 57, 49
1, 80462, Control_c, 0, 64, 0
1, 80595, Control_c, 0, 64, 127
1, 80758, Note_on_c, 0, 77, 0
1, 80758, Note_on_c, 0, 75, 62
1, 81067, Note_on_c, 0, 75, 0
1, 81067, Note_on_c, 0, 74, 67
1, 81067, Note_on_c, 0, 65, 0
1, 81070, Note_on_c, 0, 63, 47
1, 81081, Control_c, 0, 64, 0
1, 81194, Control_c, 0, 64, 127
1, 81376, Note_on_c, 0, 74, 0
1, 81376, Note_on_c, 0, 73, 62
1, 81685, Note_on_c, 0, 73, 0
1, 81685, Note_on_c, 0, 74, 69
1, 81685, Note_on_c, 0, 63, 0
1, 81688, Note_on_c, 0, 57, 0
1, 81688, Note_on_c, 0, 65, 48
1, 81688, Note_on_c, 0, 62, 40
1, 81691, Note_on_c, 0, 58, 40
1, 81691, Control_c, 0, 64, 0
1, 81790, Control_c, 0, 64, 127
1, 82002, Note_on_c, 0, 74, 0
1, 82002, Note_on_c, 0, 76, 62
1, 82015, Control_c, 0, 64, 0
1, 82078, Note_on_c, 0, 76, 0
1, 82154, Note_on_c, 0, 78, 63
1, 82231, Note_on_c, 0, 78, 0
1, 82307, Note_on_c, 0, 79, 64
1, 82307, Note_on_c, 0, 58, 0
1, 82307, Note_on_c, 0, 62, 0
1, 82310, Note_on_c, 0, 65, 0
1, 82383, Note_on_c, 0, 79, 0
1, 82459, Note_on_c, 0, 81, 65
1, 82535, Note_on_c, 0, 81, 0
1, 82612, Note_on_c, 0, 82, 66
1, 82686, Note_on_c, 0, 82, 0
1, 82761, Note_on_c, 0, 85, 67
1, 82911, Note_on_c, 0, 86, 68
1, 82911, Note_on_c, 0, 62, 40
1, 82911, Note_on_c, 0, 67, 48
1, 82914, Note_on_c, 0, 58, 40
1, 82924, Note_on_c, 0, 85, 0
1, 82987, Note_on_c, 0, 86, 0
1, 83063, Note_on_c, 0, 84, 66
1, 83216, Note_on_c, 0, 82, 65
1, 83228, Note_on_c, 0, 84, 0
1, 83292, Note_on_c, 0, 82, 0
1, 83368, Note_on_c, 0, 81, 64
1, 83520, Note_on_c, 0, 79, 63
1, 83520, Note_on_c, 0, 58, 0
1, 83520, Note_on_c, 0, 67, 0
1, 83523, Note_on_c, 0, 62, 0
1, 83533, Note_on_c, 0, 81, 0
1, 83597, Note_on_c, 0, 79, 0
1, 83673, Note_on_c, 0, 77, 62
1, 83825, Note_on_c, 0, 76, 61
1, 83838, Note_on_c, 0, 77, 0
1, 83901, Note_on_c, 0, 76, 0
1, 83977, Note_on_c, 0, 74, 60
1, 84138, Note_on_c, 0, 74, 0
1, 84138, Note_on_c, 0, 72, 60
1, 84138, Note_on_c, 0, 48, 50
1, 84141, Control_c, 0, 64, 127
1, 84441, Note_on_c, 0, 48, 0
1, 84441, Note_on_c, 0, 57, 43
1, 84745, Note_on_c, 0, 72, 0
1, 84745, Note_on_c, 0, 84, 64
1, 84745, Note_on_c, 0, 57, 0
1, 84748, Note_on_c, 0, 53, 50
1, 85049, Note_on_c, 0, 53, 0
1, 85049, Note_on_c, 0, 57, 38
1, 85352, Note_on_c, 0, 57, 0
1, 85352, Note_on_c, 0, 48, 43
1, 85361, Control_c, 0, 64, 0
1, 85414, Control_c, 0, 64, 127
1, 85555, Note_on_c, 0, 84, 0
1, 85555, Note_on_c, 0, 81, 55
1, 85656, Note_on_c, 0, 48, 0
1, 85656, Note_on_c, 0, 57, 31
1, 85757, Note_on_c, 0, 81, 0
1, 85757, Note_on_c, 0, 77, 51
1, 85959, Note_on_c, 0, 77, 0
1, 85959, Note_on_c, 0, 72, 58
1, 85959, Note_on_c, 0, 57, 0
1, 85962, Note_on_c, 0, 53, 35
1, 86111, Note_on_c, 0, 72, 0
1, 86111, Note_on_c, 0, 69, 51
1, 86263, Note_on_c, 0, 69, 0
1, 86263, Note_on_c, 0, 77, 56
1, 86263, Note_on_c, 0, 53, 0
1, 86266, Note_on_c, 0, 57, 33
1, 86415, Note_on_c, 0, 77, 0
1, 86491, Note_on_c, 0, 65, 44
1, 86569, Note_on_c, 0, 65, 0
1, 86569, Note_on_c, 0, 67, 44
1, 86569, Note_on_c, 0, 57, 0
1, 86572, Note_on_c, 0, 48, 38
1, 86572, Control_c, 0, 64, 0
1, 86630, Control_c, 0, 64, 127
1, 86635, Note_on_c, 0, 67, 0
1, 86635, Note_on_c, 0, 69, 41
1, 86702, Note_on_c, 0, 69, 0
1, 86702, Note_on_c, 0, 67, 44
1, 86767, Note_on_c, 0, 69, 39
1, 86767, Note_on_c, 0, 67, 0
1, 86831, Note_on_c, 0, 69, 0
1, 86831, Note_on_c, 0, 67, 44
1, 86881, Note_on_c, 0, 48, 0
1, 86881, Note_on_c, 0, 58, 31
1, 86896, Note_on_c, 0, 67, 0
1, 86896, Note_on_c, 0, 69, 39
1, 86959, Note_on_c, 0, 69, 0
1, 86959, Note_on_c, 0, 67, 44
1, 87023, Note_on_c, 0, 67, 0
1, 87023, Note_on_c, 0, 69, 39
1, 87086, Note_on_c, 0, 67, 44
1, 87086, Note_on_c, 0, 69, 0
1, 87147, Note_on_c, 0, 67, 0
1, 87147, Note_on_c, 0, 69, 39
1, 87180, Note_on_c, 0, 58, 0
1, 87180, Note_on_c, 0, 52, 33
1, 87209, Note_on_c, 0, 69, 0
1, 87209, Note_on_c, 0, 67, 44
1, 87269, Note_on_c, 0, 67, 0
1, 87269, Note_on_c, 0, 69, 38
1, 87329, Note_on_c, 0, 69, 0
1, 87329, Note_on_c, 0, 67, 44
1, 87388, Note_on_c, 0, 69, 38
1, 87388, Note_on_c, 0, 67, 0
1, 87447, Note_on_c, 0, 69, 0
1, 87447, Note_on_c, 0, 67, 44
1, 87464, Note_on_c, 0, 52, 0
1, 87464, Note_on_c, 0, 58, 31
1, 87506, Note_on_c, 0, 67, 0
1, 87506, Note_on_c, 0, 69, 38
1, 87565, Note_on_c, 0, 69, 0
1, 87565, Note_on_c, 0, 67, 43
1, 87624, Note_on_c, 0, 67, 0
1, 87624, Note_on_c, 0, 69, 38
1, 87681, Note_on_c, 0, 67, 43
1, 87681, Note_on_c, 0, 69, 0
1, 87739, Note_on_c, 0, 67, 0
1, 87739, Note_on_c, 0, 69, 36
1, 87743, Note_on_c, 0, 58, 0
1, 87743, Note_on_c, 0, 48, 37
1, 87798, Note_on_c, 0, 69, 0
1, 87798, Note_on_c, 0, 67, 42
1, 87856, Note_on_c, 0, 67, 0
1, 87856, Note_on_c, 0, 69, 36
1, 87915, Note_on_c, 0, 69, 0
1, 87915, Note_on_c, 0, 67, 42
1, 87973, Note_on_c, 0, 69, 36
1, 87973, Note_on_c, 0, 67, 0
1, 88020, Note_on_c, 0, 67, 42
1, 88020, Note_on_c, 0, 48, 0
1, 88020, Note_on_c, 0, 58, 32
1, 88030, Note_on_c, 0, 69, 0
1, 88085, Note_on_c, 0, 67, 0
1, 88085, Note_on_c, 0, 69, 36
1, 88151, Note_on_c, 0, 69, 0
1, 88151, Note_on_c, 0, 67, 42
1, 88217, Note_on_c, 0, 67, 0
1, 88217, Note_on_c, 0, 69, 37
1, 88283, Note_on_c, 0, 69, 0
1, 88283, Note_on_c, 0, 67, 42
1, 88283, Note_on_c, 0, 58, 0
1, 88286, Note_on_c, 0, 52, 32
1, 88348, Note_on_c, 0, 67, 0
1, 88348, Note_on_c, 0, 69, 36
1, 88415, Note_on_c, 0, 69, 0
1, 88415, Note_on_c, 0, 67, 42
1, 88484, Note_on_c, 0, 67, 0
1, 88484, Note_on_c, 0, 69, 37
1, 88558, Note_on_c, 0, 69, 0
1, 88558, Note_on_c, 0, 67, 38
1, 88558, Note_on_c, 0, 52, 0
1, 88561, Note_on_c, 0, 58, 32
1, 88661, Note_on_c, 0, 67, 0
1, 88661, Note_on_c, 0, 65, 48
1, 88772, Note_on_c, 0, 65, 0
1, 88772, Note_on_c, 0, 67, 42
1, 88881, Note_on_c, 0, 67, 0
1, 88881, Note_on_c, 0, 65, 53
1, 88881, Note_on_c, 0, 58, 0
1, 88884, Note_on_c, 0, 53, 37
1, 88943, Control_c, 0, 64, 0
1, 88988, Control_c, 0, 64, 127
1, 89185, Note_on_c, 0, 60, 35
1, 89490, Note_on_c, 0, 65, 0
1, 89490, Note_on_c, 0, 60, 0
1, 89490, Note_on_c, 0, 65, 39
1, 89718, Note_on_c, 0, 77, 49
1, 89795, Note_on_c, 0, 77, 0
1, 89795, Note_on_c, 0, 77, 50
1, 89795, Note_on_c, 0, 65, 0
1, 89798, Note_on_c, 0, 63, 35
1, 89855, Note_on_c, 0, 77, 0
1, 89855, Note_on_c, 0, 79, 48
1, 89913, Note_on_c, 0, 79, 0
1, 89913, Note_on_c, 0, 77, 51
1, 89971, Note_on_c, 0, 77, 0
1, 89971, Note_on_c, 0, 76, 50
1, 90027, Note_on_c, 0, 76, 0
1, 90027, Note_on_c, 0, 77, 54
1, 90084, Note_on_c, 0, 77, 0
1, 90084, Note_on_c, 0, 84, 63
1, 90084, Note_on_c, 0, 63, 0
1, 90087, Note_on_c, 0, 62, 37
1, 90096, Control_c, 0, 64, 0
1, 90164, Control_c, 0, 64, 127
1, 90388, Note_on_c, 0, 84, 0
1, 90388, Note_on_c, 0, 82, 58
1, 90693, Note_on_c, 0, 82, 0
1, 90693, Note_on_c, 0, 81, 53
1, 90693, Note_on_c, 0, 62, 0
1, 90696, Note_on_c, 0, 60, 34
1, 90708, Control_c, 0, 64, 0
1, 90783, Control_c, 0, 64, 127
1, 90998, Note_on_c, 0, 81, 0
1, 90998, Note_on_c, 0, 79, 53
1, 91302, Note_on_c, 0, 79, 0
1, 91302, Note_on_c, 0, 79, 62
1, 91302, Note_on_c, 0, 60, 0
1, 91305, Note_on_c, 0, 53, 0
1, 91305, Note_on_c, 0, 57, 35
1, 91305, Note_on_c, 0, 53, 37
1, 91365, Control_c, 0, 64, 0
1, 91410, Control_c, 0, 64, 127
1, 91607, Note_on_c, 0, 79, 0
1, 91607, Note_on_c, 0, 77, 51
1, 91607, Note_on_c, 0, 57, 0
1, 91610, Note_on_c, 0, 60, 35
1, 91912, Note_on_c, 0, 77, 0
1, 91912, Note_on_c, 0, 60, 0
1, 91912, Note_on_c, 0, 65, 39
1, 92140, Note_on_c, 0, 77, 49
1, 92217, Note_on_c, 0, 77, 0
1, 92217, Note_on_c, 0, 77, 50
1, 92217, Note_on_c, 0, 65, 0
1, 92220, Note_on_c, 0, 63, 35
1, 92277, Note_on_c, 0, 77, 0
1, 92277, Note_on_c, 0, 79, 48
1, 92335, Note_on_c, 0, 79, 0
1, 92335, Note_on_c, 0, 77, 51
1, 92393, Note_on_c, 0, 77, 0
1, 92393, Note_on_c, 0, 76, 51
1, 92449, Note_on_c, 0, 76, 0
1, 92449, Note_on_c, 0, 77, 54
1, 92506, Note_on_c, 0, 77, 0
1, 92506, Note_on_c, 0, 84, 63
1, 92506, Note_on_c, 0, 63, 0
1, 92509, Note_on_c, 0, 62, 37
1, 92518, Control_c, 0, 64, 0
1, 92586, Control_c, 0, 64, 127
1, 92810, Note_on_c, 0, 84, 0
1, 92810, Note_on_c, 0, 82, 58
1, 93115, Note_on_c, 0, 82, 0
1, 93115, Note_on_c, 0, 81, 53
1, 93115, Note_on_c, 0, 62, 0
1, 93118, Note_on_c, 0, 58, 34
1, 93130, Control_c, 0, 64, 0
1, 93205, Control_c, 0, 64, 127
1, 93420, Note_on_c, 0, 81, 0
1, 93420, Note_on_c, 0, 79, 53
1, 93724, Note_on_c, 0, 79, 0
1, 93724, Note_on_c, 0, 79, 56
1, 93724, Note_on_c, 0, 58, 0
1, 93727, Note_on_c, 0, 53, 0
1, 93727, Note_on_c, 0, 53, 41
1, 93727, Note_on_c, 0, 57, 41
1, 93730, Control_c, 0, 64, 0
1, 93867, Control_c, 0, 64, 127
1, 94025, Note_on_c, 0, 79, 0
1, 94025, Note_on_c, 0, 77, 50
1, 94025, Note_on_c, 0, 57, 0
1, 94028, Note_on_c, 0, 55, 37
1, 94028, Note_on_c, 0, 58, 37
1, 94332, Note_on_c, 0, 77, 0
1, 94332, Note_on_c, 0, 77, 53
1, 94332, Note_on_c, 0, 58, 0
1, 94335, Note_on_c, 0, 55, 0
1, 94335, Note_on_c, 0, 60, 40
1, 94335, Note_on_c, 0, 57, 40
1, 94342, Control_c, 0, 64, 0
1, 94454, Control_c, 0, 64, 127
1, 94654, Note_on_c, 0, 77, 0
1, 94654, Note_on_c, 0, 57, 0
1, 94654, Note_on_c, 0, 60, 0
1, 94657, Note_on_c, 0, 62, 37
1, 94657, Note_on_c, 0, 58, 37
1, 94979, Note_on_c, 0, 77, 53
1, 94979, Note_on_c, 0, 58, 0
1, 94979, Note_on_c, 0, 62, 0
1, 94982, Note_on_c, 0, 63, 38
1, 94982, Note_on_c, 0, 60, 38
1, 94994, Control_c, 0, 64, 0
1, 95130, Control_c, 0, 64, 127
1, 95300, Note_on_c, 0, 77, 0
1, 95300, Note_on_c, 0, 60, 0
1, 95300, Note_on_c, 0, 63, 0
1, 95303, Note_on_c, 0, 62, 41
1, 95303, Note_on_c, 0, 59, 41
1, 95633, Note_on_c, 0, 77, 62
1, 95633, Note_on_c, 0, 59, 0
1, 95633, Note_on_c, 0, 62, 0
1, 95636, Note_on_c, 0, 60, 44
1, 95636, Note_on_c, 0, 63, 44
1, 95649, Control_c, 0, 64, 0
1, 95778, Control_c, 0, 64, 127
1, 95988, Note_on_c, 0, 77, 0
1, 95988, Note_on_c, 0, 63, 0
1, 95988, Note_on_c, 0, 60, 0
1, 95991, Note_on_c, 0, 59, 47
1, 95991, Note_on_c, 0, 62, 47
1, 96402, Note_on_c, 0, 77, 65
1, 96402, Note_on_c, 0, 62, 0
1, 96402, Note_on_c, 0, 59, 0
1, 96405, Note_on_c, 0, 60, 53
1, 96405, Note_on_c, 0, 63, 53
1, 96405, Control_c, 0, 64, 0
1, 96551, Control_c, 0, 64, 127
1, 97881, Note_on_c, 0, 77, 0
1, 97881, Note_on_c, 0, 76, 55
1, 97881, Note_on_c, 0, 63, 0
1, 97884, Note_on_c, 0, 60, 0
1, 97884, Note_on_c, 0, 53, 0
1, 97892, Control_c, 0, 64, 0
1, 98045, Note_on_c, 0, 77, 53
1, 98058, Note_on_c, 0, 76, 0
1, 98208, Note_on_c, 0, 79, 56
1, 98222, Note_on_c, 0, 77, 0
1, 98372, Note_on_c, 0, 77, 51
1, 98385, Note_on_c, 0, 79, 0
1, 98528, Note_on_c, 0, 77, 0
1, 98535, Note_on_c, 0, 77, 55
1, 98694, Note_on_c, 0, 75, 49
1, 98707, Note_on_c, 0, 77, 0
1, 98853, Note_on_c, 0, 74, 50
1, 98866, Note_on_c, 0, 75, 0
1, 99023, Note_on_c, 0, 72, 47
1, 99038, Note_on_c, 0, 74, 0
1, 99205, Note_on_c, 0, 72, 0
1, 99205, Note_on_c, 0, 70, 50
1, 99205, Note_on_c, 0, 58, 36
1, 99280, Control_c, 0, 64, 127
1, 99506, Note_on_c, 0, 70, 0
1, 99506, Note_on_c, 0, 72, 46
1, 99506, Note_on_c, 0, 58, 0
1, 99509, Note_on_c, 0, 65, 27
1, 99606, Note_on_c, 0, 72, 0
1, 99606, Note_on_c, 0, 70, 46
1, 99706, Note_on_c, 0, 70, 0
1, 99706, Note_on_c, 0, 69, 46
1, 99807, Note_on_c, 0, 69, 0
1, 99807, Note_on_c, 0, 70, 50
1, 99807, Note_on_c, 0, 65, 0
1, 99810, Note_on_c, 0, 62, 27
1, 99821, Control_c, 0, 64, 0
1, 99891, Control_c, 0, 64, 127
1, 100108, Note_on_c, 0, 70, 0
1, 100108, Note_on_c, 0, 72, 50
1, 100108, Note_on_c, 0, 62, 0
1, 100111, Note_on_c, 0, 65, 27
1, 100409, Note_on_c, 0, 72, 0
1, 100409, Note_on_c, 0, 74, 50
1, 100409, Note_on_c, 0, 65, 0
1, 100412, Note_on_c, 0, 58, 36
1, 100430, Control_c, 0, 64, 0
1, 100488, Control_c, 0, 64, 127
1, 100709, Note_on_c, 0, 74, 0
1, 100709, Note_on_c, 0, 75, 46
1, 100709, Note_on_c, 0, 58, 0
1, 100712, Note_on_c, 0, 65, 28
1, 100805, Note_on_c, 0, 75, 0
1, 100805, Note_on_c, 0, 74, 46
1, 100901, Note_on_c, 0, 74, 0
1, 100901, Note_on_c, 0, 72, 46
1, 100996, Note_on_c, 0, 72, 0
1, 100996, Note_on_c, 0, 74, 50
1, 100996, Note_on_c, 0, 65, 0
1, 100999, Note_on_c, 0, 62, 28
1, 101009, Control_c, 0, 64, 0
1, 101083, Control_c, 0, 64, 127
1, 101293, Note_on_c, 0, 74, 0
1, 101293, Note_on_c, 0, 75, 50
1, 101293, Note_on_c, 0, 62, 0
1, 101296, Note_on_c, 0, 65, 28
1, 101617, Note_on_c, 0, 75, 0
1, 101617, Note_on_c, 0, 76, 55
1, 101617, Note_on_c, 0, 65, 0
1, 101620, Note_on_c, 0, 57, 36
1, 101631, Control_c, 0, 64, 0
1, 101687, Control_c, 0, 64, 127
1, 101918, Note_on_c, 0, 57, 0
1, 101918, Note_on_c, 0, 65, 25
1, 102219, Note_on_c, 0, 65, 0
1, 102219, Note_on_c, 0, 60, 27
1, 102520, Note_on_c, 0, 76, 0
1, 102520, Note_on_c, 0, 77, 49
1, 102520, Note_on_c, 0, 60, 0
1, 102523, Note_on_c, 0, 65, 24
1, 102845, Note_on_c, 0, 77, 0
1, 102845, Note_on_c, 0, 72, 49
1, 102845, Note_on_c, 0, 65, 0
1, 102848, Note_on_c, 0, 57, 36
1, 102860, Control_c, 0, 64, 0
1, 102972, Control_c, 0, 64, 127
1, 103145, Note_on_c, 0, 72, 0
1, 103145, Note_on_c, 0, 57, 0
1, 103145, Note_on_c, 0, 65, 23
1, 103446, Note_on_c, 0, 65, 0
1, 103446, Note_on_c, 0, 60, 29
1, 103747, Note_on_c, 0, 60, 0
1, 103747, Note_on_c, 0, 65, 23
1, 104065, Note_on_c, 0, 75, 50
1, 104065, Note_on_c, 0, 65, 0
1, 104065, Note_on_c, 0, 55, 36
1, 104092, Control_c, 0, 64, 0
1, 104142, Control_c, 0, 64, 127
1, 104370, Note_on_c, 0, 75, 0
1, 104370, Note_on_c, 0, 77, 46
1, 104370, Note_on_c, 0, 55, 0
1, 104373, Note_on_c, 0, 63, 32
1, 104472, Note_on_c, 0, 77, 0
1, 104472, Note_on_c, 0, 75, 44
1, 104567, Note_on_c, 0, 75, 0
1, 104567, Note_on_c, 0, 74, 43
1, 104663, Note_on_c, 0, 74, 0
1, 104663, Note_on_c, 0, 75, 50
1, 104663, Note_on_c, 0, 63, 0
1, 104666, Note_on_c, 0, 58, 32
1, 104681, Control_c, 0, 64, 0
1, 104725, Control_c, 0, 64, 127
1, 104967, Note_on_c, 0, 75, 0
1, 104967, Note_on_c, 0, 77, 50
1, 104967, Note_on_c, 0, 58, 0
1, 104970, Note_on_c, 0, 63, 32
1, 105272, Note_on_c, 0, 77, 0
1, 105272, Note_on_c, 0, 79, 52
1, 105272, Note_on_c, 0, 63, 0
1, 105275, Note_on_c, 0, 51, 36
1, 105287, Control_c, 0, 64, 0
1, 105393, Control_c, 0, 64, 127
1, 105577, Note_on_c, 0, 79, 0
1, 105577, Note_on_c, 0, 81, 49
1, 105577, Note_on_c, 0, 51, 0
1, 105580, Note_on_c, 0, 58, 33
1, 105671, Note_on_c, 0, 81, 0
1, 105671, Note_on_c, 0, 79, 46
1, 105766, Note_on_c, 0, 79, 0
1, 105766, Note_on_c, 0, 77, 44
1, 105860, Note_on_c, 0, 77, 0
1, 105860, Note_on_c, 0, 79, 57
1, 105860, Note_on_c, 0, 58, 0
1, 105863, Note_on_c, 0, 55, 35
1, 105863, Control_c, 0, 64, 0
1, 105931, Control_c, 0, 64, 127
1, 106165, Note_on_c, 0, 79, 0
1, 106165, Note_on_c, 0, 81, 59
1, 106165, Note_on_c, 0, 55, 0
1, 106168, Note_on_c, 0, 58, 36
1, 106480, Note_on_c, 0, 81, 0
1, 106480, Note_on_c, 0, 81, 68
1, 106480, Note_on_c, 0, 58, 0
1, 106483, Note_on_c, 0, 50, 41
1, 106494, Control_c, 0, 64, 0
1, 106560, Control_c, 0, 64, 127
1, 106785, Note_on_c, 0, 50, 0
1, 106785, Note_on_c, 0, 58, 30
1, 107082, Note_on_c, 0, 58, 0
1, 107082, Note_on_c, 0, 53, 35
1, 107378, Note_on_c, 0, 81, 0
1, 107378, Note_on_c, 0, 82, 54
1, 107378, Note_on_c, 0, 53, 0
1, 107381, Note_on_c, 0, 58, 28
1, 107696, Note_on_c, 0, 82, 0
1, 107696, Note_on_c, 0, 77, 52
1, 107696, Note_on_c, 0, 58, 0
1, 107699, Note_on_c, 0, 50, 36
1, 107710, Control_c, 0, 64, 0
1, 107790, Control_c, 0, 64, 127
1, 108001, Note_on_c, 0, 77, 0
1, 108001, Note_on_c, 0, 50, 0
1, 108001, Note_on_c, 0, 58, 25
1, 108305, Note_on_c, 0, 58, 0
1, 108305, Note_on_c, 0, 53, 29
1, 108610, Note_on_c, 0, 53, 0
1, 108610, Note_on_c, 0, 58, 26
1, 108931, Note_on_c, 0, 78, 56
1, 108931, Note_on_c, 0, 58, 0
1, 108931, Note_on_c, 0, 51, 36
1, 108945, Control_c, 0, 64, 0
1, 109025, Control_c, 0, 64, 127
1, 109235, Note_on_c, 0, 78, 0
1, 109235, Note_on_c, 0, 79, 59
1, 109235, Note_on_c, 0, 51, 0
1, 109238, Note_on_c, 0, 55, 27
1, 109244, Control_c, 0, 64, 0
1, 109319, Control_c, 0, 64, 127
1, 109536, Note_on_c, 0, 55, 0
1, 109536, Note_on_c, 0, 51, 31
1, 109837, Note_on_c, 0, 79, 0
1, 109837, Note_on_c, 0, 80, 50
1, 109837, Note_on_c, 0, 51, 0
1, 109840, Note_on_c, 0, 59, 27
1, 109989, Note_on_c, 0, 80, 0
1, 109989, Note_on_c, 0, 79, 50
1, 110141, Note_on_c, 0, 79, 0
1, 110141, Note_on_c, 0, 77, 55
1, 110141, Note_on_c, 0, 59, 0
1, 110144, Note_on_c, 0, 51, 34
1, 110157, Control_c, 0, 64, 0
1, 110275, Control_c, 0, 64, 127
1, 110454, Note_on_c, 0, 77, 0
1, 110454, Note_on_c, 0, 75, 52
1, 110454, Note_on_c, 0, 51, 0
1, 110457, Note_on_c, 0, 60, 27
1, 110697, Note_on_c, 0, 75, 0
1, 110758, Note_on_c, 0, 74, 53
1, 110758, Note_on_c, 0, 60, 0
1, 110758, Note_on_c, 0, 51, 27
1, 111002, Note_on_c, 0, 74, 0
1, 111063, Note_on_c, 0, 72, 53
1, 111063, Note_on_c, 0, 51, 0
1, 111063, Note_on_c, 0, 63, 27
1, 111321, Note_on_c, 0, 72, 0
1, 111385, Note_on_c, 0, 79, 59
1, 111385, Note_on_c, 0, 63, 0
1, 111385, Note_on_c, 0, 50, 36
1, 111401, Control_c, 0, 64, 0
1, 111502, Control_c, 0, 64, 127
1, 111694, Note_on_c, 0, 79, 0
1, 111694, Note_on_c, 0, 77, 54
1, 111694, Note_on_c, 0, 50, 0
1, 111697, Note_on_c, 0, 53, 31
1, 111697, Control_c, 0, 64, 0
1, 111833, Control_c, 0, 64, 127
1, 112003, Note_on_c, 0, 53, 0
1, 112003, Note_on_c, 0, 50, 33
1, 112312, Note_on_c, 0, 77, 0
1, 112312, Note_on_c, 0, 79, 55
1, 112312, Note_on_c, 0, 50, 0
1, 112315, Note_on_c, 0, 57, 33
1, 112457, Note_on_c, 0, 79, 0
1, 112457, Note_on_c, 0, 77, 52
1, 112602, Note_on_c, 0, 77, 0
1, 112602, Note_on_c, 0, 77, 54
1, 112602, Note_on_c, 0, 57, 0
1, 112605, Note_on_c, 0, 50, 36
1, 112624, Control_c, 0, 64, 0
1, 112706, Control_c, 0, 64, 127
1, 112758, Note_on_c, 0, 77, 0
1, 112758, Note_on_c, 0, 75, 51
1, 112914, Note_on_c, 0, 75, 0
1, 112914, Note_on_c, 0, 75, 55
1, 112914, Note_on_c, 0, 50, 0
1, 112917, Note_on_c, 0, 58, 30
1, 113063, Note_on_c, 0, 75, 0
1, 113063, Note_on_c, 0, 74, 50
1, 113212, Note_on_c, 0, 74, 0
1, 113212, Note_on_c, 0, 74, 56
1, 113212, Note_on_c, 0, 58, 0
1, 113215, Note_on_c, 0, 50, 31
1, 113366, Note_on_c, 0, 74, 0
1, 113366, Note_on_c, 0, 72, 53
1, 113520, Note_on_c, 0, 72, 0
1, 113520, Note_on_c, 0, 72, 59
1, 113520, Note_on_c, 0, 50, 0
1, 113523, Note_on_c, 0, 62, 33
1, 113676, Note_on_c, 0, 72, 0
1, 113676, Note_on_c, 0, 70, 59
1, 113832, Note_on_c, 0, 70, 0
1, 113832, Note_on_c, 0, 77, 58
1, 113832, Note_on_c, 0, 62, 0
1, 113835, Note_on_c, 0, 53, 36
1, 113835, Control_c, 0, 64, 0
1, 113907, Note_on_c, 0, 77, 0
1, 113983, Note_on_c, 0, 76, 56
1, 114058, Note_on_c, 0, 76, 0
1, 114125, Control_c, 0, 64, 127
1, 114133, Note_on_c, 0, 75, 59
1, 114133, Note_on_c, 0, 53, 0
1, 114133, Note_on_c, 0, 65, 30
1, 114438, Note_on_c, 0, 65, 0
1, 114438, Note_on_c, 0, 60, 30
1, 114746, Note_on_c, 0, 75, 0
1, 114746, Note_on_c, 0, 72, 51
1, 114746, Note_on_c, 0, 60, 0
1, 114749, Note_on_c, 0, 65, 30
1, 115050, Note_on_c, 0, 72, 0
1, 115050, Note_on_c, 0, 75, 58
1, 115050, Note_on_c, 0, 65, 0
1, 115053, Note_on_c, 0, 58, 36
1, 115065, Control_c, 0, 64, 0
1, 115127, Note_on_c, 0, 75, 0
1, 115204, Note_on_c, 0, 73, 55
1, 115281, Note_on_c, 0, 73, 0
1, 115358, Note_on_c, 0, 74, 58
1, 115358, Note_on_c, 0, 58, 0
1, 115358, Note_on_c, 0, 65, 30
1, 115372, Control_c, 0, 64, 127
1, 115667, Note_on_c, 0, 65, 0
1, 115667, Note_on_c, 0, 62, 31
1, 115975, Note_on_c, 0, 74, 0
1, 115975, Note_on_c, 0, 70, 54
1, 115975, Note_on_c, 0, 62, 0
1, 115978, Note_on_c, 0, 65, 30
1, 116300, Note_on_c, 0, 70, 0
1, 116300, Note_on_c, 0, 74, 59
1, 116300, Note_on_c, 0, 65, 0
1, 116303, Note_on_c, 0, 53, 36
1, 116316, Control_c, 0, 64, 0
1, 116446, Control_c, 0, 64, 127
1, 116609, Note_on_c, 0, 53, 0
1, 116609, Note_on_c, 0, 62, 25
1, 116917, Note_on_c, 0, 62, 0
1, 116917, Note_on_c, 0, 58, 25
1, 117226, Note_on_c, 0, 74, 0
1, 117226, Note_on_c, 0, 75, 43
1, 117226, Note_on_c, 0, 58, 0
1, 117229, Note_on_c, 0, 62, 25
1, 117380, Note_on_c, 0, 75, 0
1, 117380, Note_on_c, 0, 74, 43
1, 117534, Note_on_c, 0, 74, 0
1, 117534, Note_on_c, 0, 72, 50
1, 117534, Note_on_c, 0, 62, 0
1, 117537, Note_on_c, 0, 60, 36
1, 117537, Note_on_c, 0, 57, 36
1, 117537, Note_on_c, 0, 53, 36
1, 117551, Control_c, 0, 64, 0
1, 117697, Note_on_c, 0, 72, 0
1, 117751, Note_on_c, 0, 77, 45
1, 117754, Control_c, 0, 64, 127
1, 117912, Note_on_c, 0, 77, 0
1, 117964, Note_on_c, 0, 75, 42
1, 118121, Note_on_c, 0, 75, 0
1, 118173, Note_on_c, 0, 75, 50
1, 118173, Note_on_c, 0, 53, 0
1, 118173, Note_on_c, 0, 57, 0
1, 118176, Note_on_c, 0, 60, 0
1, 118189, Control_c, 0, 64, 0
1, 118289, Control_c, 0, 64, 127
1, 118332, Note_on_c, 0, 75, 0
1, 118332, Note_on_c, 0, 74, 43
1, 118491, Note_on_c, 0, 74, 0
1, 118491, Note_on_c, 0, 75, 40
1, 118650, Note_on_c, 0, 75, 0
1, 118650, Note_on_c, 0, 72, 41
1, 118826, Note_on_c, 0, 72, 0
1, 118826, Note_on_c, 0, 70, 50
1, 118826, Note_on_c, 0, 58, 36
1, 118829, Control_c, 0, 64, 0
1, 118898, Control_c, 0, 64, 127
1, 119135, Note_on_c, 0, 70, 0
1, 119135, Note_on_c, 0, 72, 43
1, 119135, Note_on_c, 0, 58, 0
1, 119138, Note_on_c, 0, 65, 31
1, 119233, Note_on_c, 0, 72, 0
1, 119233, Note_on_c, 0, 70, 44
1, 119331, Note_on_c, 0, 70, 0
1, 119331, Note_on_c, 0, 69, 41
1, 119429, Note_on_c, 0, 69, 0
1, 119429, Note_on_c, 0, 70, 45
1, 119429, Note_on_c, 0, 65, 0
1, 119432, Note_on_c, 0, 61, 35
1, 119432, Control_c, 0, 64, 0
1, 119465, Control_c, 0, 64, 127
1, 119734, Note_on_c, 0, 70, 0
1, 119734, Note_on_c, 0, 72, 50
1, 119734, Note_on_c, 0, 61, 0
1, 119737, Note_on_c, 0, 65, 31
1, 120038, Note_on_c, 0, 72, 0
1, 120038, Note_on_c, 0, 73, 53
1, 120038, Note_on_c, 0, 65, 0
1, 120041, Note_on_c, 0, 58, 40
1, 120051, Control_c, 0, 64, 0
1, 120106, Control_c, 0, 64, 127
1, 120343, Note_on_c, 0, 73, 0
1, 120343, Note_on_c, 0, 75, 44
1, 120343, Note_on_c, 0, 58, 0
1, 120346, Note_on_c, 0, 65, 36
1, 120440, Note_on_c, 0, 75, 0
1, 120440, Note_on_c, 0, 73, 44
1, 120536, Note_on_c, 0, 73, 0
1, 120536, Note_on_c, 0, 72, 41
1, 120633, Note_on_c, 0, 72, 0
1, 120633, Note_on_c, 0, 73, 51
1, 120633, Note_on_c, 0, 65, 0
1, 120636, Note_on_c, 0, 61, 38
1, 120646, Control_c, 0, 64, 0
1, 120700, Control_c, 0, 64, 127
1, 120938, Note_on_c, 0, 73, 0
1, 120938, Note_on_c, 0, 75, 52
1, 120938, Note_on_c, 0, 61, 0
1, 120941, Note_on_c, 0, 65, 31
1, 121252, Control_c, 0, 64, 0
1, 121272, Note_on_c, 0, 75, 0
1, 121272, Note_on_c, 0, 76, 61
1, 121272, Note_on_c, 0, 65, 0
1, 121275, Note_on_c, 0, 56, 46
1, 121308, Control_c, 0, 64, 127
1, 121580, Note_on_c, 0, 56, 0
1, 121580, Note_on_c, 0, 65, 36
1, 121881, Note_on_c, 0, 65, 0
1, 121881, Note_on_c, 0, 60, 41
1, 122182, Note_on_c, 0, 76, 0
1, 122182, Note_on_c, 0, 77, 56
1, 122182, Note_on_c, 0, 60, 0
1, 122185, Note_on_c, 0, 65, 31
1, 122502, Note_on_c, 0, 77, 0
1, 122502, Note_on_c, 0, 72, 56
1, 122502, Note_on_c, 0, 65, 0
1, 122505, Note_on_c, 0, 56, 41
1, 122519, Control_c, 0, 64, 0
1, 122592, Control_c, 0, 64, 127
1, 122811, Note_on_c, 0, 72, 0
1, 122811, Note_on_c, 0, 56, 0
1, 122811, Note_on_c, 0, 65, 31
1, 123107, Note_on_c, 0, 65, 0
1, 123107, Note_on_c, 0, 60, 40
1, 123404, Note_on_c, 0, 60, 0
1, 123404, Note_on_c, 0, 65, 32
1, 123734, Note_on_c, 0, 63, 73
1, 123734, Note_on_c, 0, 65, 0
1, 123734, Note_on_c, 0, 54, 36
1, 123763, Control_c, 0, 64, 0
1, 123821, Control_c, 0, 64, 127
1, 124042, Note_on_c, 0, 54, 0
1, 124042, Note_on_c, 0, 58, 32
1, 124332, Note_on_c, 0, 58, 0
1, 124332, Note_on_c, 0, 54, 39
1, 124343, Control_c, 0, 64, 0
1, 124394, Control_c, 0, 64, 127
1, 124420, Note_on_c, 0, 63, 0
1, 124420, Note_on_c, 0, 65, 45
1, 124510, Note_on_c, 0, 65, 0
1, 124510, Note_on_c, 0, 63, 46
1, 124597, Note_on_c, 0, 62, 47
1, 124597, Note_on_c, 0, 63, 0
1, 124641, Note_on_c, 0, 54, 0
1, 124641, Note_on_c, 0, 58, 38
1, 124683, Note_on_c, 0, 62, 0
1, 124683, Note_on_c, 0, 63, 47
1, 124769, Note_on_c, 0, 63, 0
1, 124769, Note_on_c, 0, 64, 48
1, 124853, Note_on_c, 0, 65, 49
1, 124853, Note_on_c, 0, 64, 0
1, 124939, Note_on_c, 0, 65, 0
1, 124939, Note_on_c, 0, 66, 49
1, 124939, Note_on_c, 0, 58, 0
1, 124942, Note_on_c, 0, 51, 53
1, 124942, Control_c, 0, 64, 0
1, 124991, Control_c, 0, 64, 127
1, 125012, Note_on_c, 0, 66, 0
1, 125012, Note_on_c, 0, 67, 51
1, 125084, Note_on_c, 0, 67, 0
1, 125084, Note_on_c, 0, 68, 52
1, 125156, Note_on_c, 0, 68, 0
1, 125156, Note_on_c, 0, 69, 53
1, 125227, Note_on_c, 0, 69, 0
1, 125227, Note_on_c, 0, 70, 55
1, 125227, Note_on_c, 0, 51, 0
1, 125230, Note_on_c, 0, 58, 45
1, 125300, Note_on_c, 0, 70, 0
1, 125300, Note_on_c, 0, 71, 56
1, 125372, Note_on_c, 0, 71, 0
1, 125372, Note_on_c, 0, 72, 57
1, 125445, Note_on_c, 0, 72, 0
1, 125445, Note_on_c, 0, 73, 58
1, 125517, Note_on_c, 0, 73, 0
1, 125517, Note_on_c, 0, 74, 60
1, 125517, Note_on_c, 0, 58, 0
1, 125520, Note_on_c, 0, 54, 57
1, 125524, Control_c, 0, 64, 0
1, 125572, Control_c, 0, 64, 127
1, 125593, Note_on_c, 0, 74, 0
1, 125593, Note_on_c, 0, 75, 61
1, 125670, Note_on_c, 0, 75, 0
1, 125670, Note_on_c, 0, 76, 62
1, 125746, Note_on_c, 0, 76, 0
1, 125746, Note_on_c, 0, 77, 64
1, 125822, Note_on_c, 0, 77, 0
1, 125822, Note_on_c, 0, 78, 65
1, 125822, Note_on_c, 0, 54, 0
1, 125825, Note_on_c, 0, 58, 52
1, 125902, Note_on_c, 0, 78, 0
1, 125902, Note_on_c, 0, 79, 66
1, 125982, Note_on_c, 0, 79, 0
1, 125982, Note_on_c, 0, 80, 67
1, 126063, Note_on_c, 0, 80, 0
1, 126063, Note_on_c, 0, 81, 69
1, 126143, Note_on_c, 0, 81, 0
1, 126143, Note_on_c, 0, 81, 73
1, 126143, Note_on_c, 0, 58, 0
1, 126146, Note_on_c, 0, 50, 63
1, 126155, Control_c, 0, 64, 0
1, 126219, Control_c, 0, 64, 127
1, 126447, Note_on_c, 0, 81, 0
1, 126447, Note_on_c, 0, 82, 63
1, 126447, Note_on_c, 0, 50, 0
1, 126450, Note_on_c, 0, 58, 54
1, 126549, Note_on_c, 0, 82, 0
1, 126549, Note_on_c, 0, 81, 61
1, 126651, Note_on_c, 0, 81, 0
1, 126651, Note_on_c, 0, 79, 61
1, 126752, Note_on_c, 0, 79, 0
1, 126752, Note_on_c, 0, 81, 60
1, 126752, Note_on_c, 0, 58, 0
1, 126755, Note_on_c, 0, 53, 60
1, 127064, Note_on_c, 0, 81, 0
1, 127064, Note_on_c, 0, 82, 64
1, 127064, Note_on_c, 0, 53, 0
1, 127067, Note_on_c, 0, 58, 51
1, 127389, Note_on_c, 0, 82, 0
1, 127389, Note_on_c, 0, 77, 59
1, 127389, Note_on_c, 0, 58, 0
1, 127392, Note_on_c, 0, 49, 63
1, 127401, Control_c, 0, 64, 0
1, 127483, Control_c, 0, 64, 127
1, 127693, Note_on_c, 0, 77, 0
1, 127693, Note_on_c, 0, 49, 0
1, 127693, Note_on_c, 0, 58, 55
1, 127998, Note_on_c, 0, 58, 0
1, 127998, Note_on_c, 0, 53, 62
1, 128303, Note_on_c, 0, 53, 0
1, 128303, Note_on_c, 0, 58, 57
1, 128455, Note_on_c, 0, 76, 69
1, 128623, Note_on_c, 0, 76, 0
1, 128623, Note_on_c, 0, 85, 93
1, 128623, Note_on_c, 0, 58, 0
1, 128626, Note_on_c, 0, 48, 69
1, 128637, Control_c, 0, 64, 0
1, 128710, Control_c, 0, 64, 127
1, 128928, Note_on_c, 0, 48, 0
1, 128928, Note_on_c, 0, 58, 53
1, 129233, Note_on_c, 0, 58, 0
1, 129233, Note_on_c, 0, 55, 62
1, 129537, Note_on_c, 0, 55, 0
1, 129537, Note_on_c, 0, 58, 48
1, 129842, Note_on_c, 0, 58, 0
1, 129842, Note_on_c, 0, 48, 44
1, 129857, Control_c, 0, 64, 0
1, 129928, Control_c, 0, 64, 127
1, 130147, Note_on_c, 0, 85, 0
1, 130147, Note_on_c, 0, 84, 60
1, 130147, Note_on_c, 0, 48, 0
1, 130150, Note_on_c, 0, 58, 29
1, 130297, Note_on_c, 0, 84, 0
1, 130297, Note_on_c, 0, 82, 58
1, 130447, Note_on_c, 0, 82, 0
1, 130447, Note_on_c, 0, 80, 57
1, 130447, Note_on_c, 0, 58, 0
1, 130450, Note_on_c, 0, 55, 32
1, 130598, Note_on_c, 0, 80, 0
1, 130598, Note_on_c, 0, 79, 56
1, 130748, Note_on_c, 0, 79, 0
1, 130748, Note_on_c, 0, 77, 54
1, 130748, Note_on_c, 0, 55, 0
1, 130751, Note_on_c, 0, 58, 28
1, 130898, Note_on_c, 0, 77, 0
1, 130898, Note_on_c, 0, 76, 50
1, 131069, Note_on_c, 0, 76, 0
1, 131069, Note_on_c, 0, 79, 57
1, 131069, Note_on_c, 0, 58, 0
1, 131072, Note_on_c, 0, 49, 41
1, 131078, Control_c, 0, 64, 0
1, 131149, Control_c, 0, 64, 127
1, 131374, Note_on_c, 0, 49, 0
1, 131374, Note_on_c, 0, 56, 27
1, 131678, Note_on_c, 0, 79, 0
1, 131678, Note_on_c, 0, 77, 62
1, 131678, Note_on_c, 0, 56, 0
1, 131681, Note_on_c, 0, 53, 32
1, 131692, Control_c, 0, 64, 0
1, 131765, Control_c, 0, 64, 127
1, 131983, Note_on_c, 0, 53, 0
1, 131983, Note_on_c, 0, 56, 28
1, 132280, Note_on_c, 0, 56, 0
1, 132280, Note_on_c, 0, 46, 36
1, 132576, Note_on_c, 0, 46, 0
1, 132576, Note_on_c, 0, 55, 27
1, 132725, Note_on_c, 0, 77, 0
1, 132725, Note_on_c, 0, 76, 53
1, 132873, Note_on_c, 0, 76, 0
1, 132873, Note_on_c, 0, 75, 55
1, 132873, Note_on_c, 0, 55, 0
1, 132876, Note_on_c, 0, 49, 28
1, 132884, Control_c, 0, 64, 0
1, 132926, Control_c, 0, 64, 127
1, 133071, Note_on_c, 0, 75, 0
1, 133071, Note_on_c, 0, 74, 52
1, 133170, Note_on_c, 0, 49, 0
1, 133170, Note_on_c, 0, 55, 27
1, 133176, Control_c, 0, 64, 0
1, 133236, Control_c, 0, 64, 127
1, 133274, Note_on_c, 0, 74, 0
1, 133274, Note_on_c, 0, 73, 52
1, 133483, Note_on_c, 0, 73, 0
1, 133483, Note_on_c, 0, 72, 50
1, 133483, Note_on_c, 0, 55, 0
1, 133486, Note_on_c, 0, 48, 36
1, 133486, Control_c, 0, 64, 0
1, 133555, Control_c, 0, 64, 127
1, 133791, Note_on_c, 0, 72, 0
1, 133791, Note_on_c, 0, 73, 43
1, 133791, Note_on_c, 0, 48, 0
1, 133794, Note_on_c, 0, 56, 31
1, 133889, Note_on_c, 0, 73, 0
1, 133889, Note_on_c, 0, 72, 44
1, 133987, Note_on_c, 0, 72, 0
1, 133987, Note_on_c, 0, 70, 44
1, 134085, Note_on_c, 0, 70, 0
1, 134085, Note_on_c, 0, 72, 45
1, 134085, Note_on_c, 0, 56, 0
1, 134088, Note_on_c, 0, 53, 31
1, 134088, Control_c, 0, 64, 0
1, 134121, Control_c, 0, 64, 127
1, 134390, Note_on_c, 0, 72, 0
1, 134390, Note_on_c, 0, 73, 50
1, 134390, Note_on_c, 0, 53, 0
1, 134393, Note_on_c, 0, 56, 31
1, 134694, Note_on_c, 0, 73, 0
1, 134694, Note_on_c, 0, 65, 50
1, 134694, Note_on_c, 0, 56, 0
1, 134697, Note_on_c, 0, 48, 36
1, 134707, Control_c, 0, 64, 0
1, 134762, Control_c, 0, 64, 127
1, 134999, Note_on_c, 0, 48, 0
1, 134999, Note_on_c, 0, 58, 31
1, 135331, Note_on_c, 0, 65, 0
1, 135331, Note_on_c, 0, 68, 50
1, 135331, Note_on_c, 0, 64, 44
1, 135334, Note_on_c, 0, 58, 0
1, 135334, Note_on_c, 0, 55, 31
1, 135344, Control_c, 0, 64, 0
1, 135401, Control_c, 0, 64, 127
1, 135649, Note_on_c, 0, 68, 0
1, 135649, Note_on_c, 0, 67, 50
1, 135649, Note_on_c, 0, 55, 0
1, 135652, Note_on_c, 0, 58, 31
1, 136019, Note_on_c, 0, 67, 0
1, 136019, Note_on_c, 0, 64, 0
1, 136019, Note_on_c, 0, 65, 53
1, 136022, Note_on_c, 0, 58, 0
1, 136022, Note_on_c, 0, 57, 38
1, 136022, Note_on_c, 0, 53, 32
1, 136032, Control_c, 0, 64, 0
1, 136273, Control_c, 0, 64, 127
1, 136325, Note_on_c, 0, 65, 0
1, 136328, Note_on_c, 0, 57, 0
1, 136328, Note_on_c, 0, 65, 30
1, 136478, Note_on_c, 0, 65, 0
1, 136628, Note_on_c, 0, 53, 0
1, 136628, Note_on_c, 0, 65, 30
1, 136779, Note_on_c, 0, 65, 0
1, 136929, Note_on_c, 0, 65, 30
1, 137089, Note_on_c, 0, 65, 0
1, 137250, Note_on_c, 0, 62, 38
1, 137250, Note_on_c, 0, 58, 32
1, 137267, Control_c, 0, 64, 0
1, 137404, Control_c, 0, 64, 127
1, 137558, Note_on_c, 0, 62, 0
1, 137558, Note_on_c, 0, 65, 28
1, 137855, Note_on_c, 0, 65, 0
1, 137855, Note_on_c, 0, 58, 0
1, 137855, Note_on_c, 0, 63, 28
1, 137858, Note_on_c, 0, 60, 23
1, 137869, Control_c, 0, 64, 0
1, 137986, Control_c, 0, 64, 127
1, 138152, Note_on_c, 0, 63, 0
1, 138152, Note_on_c, 0, 65, 28
1, 138481, Note_on_c, 0, 75, 45
1, 138481, Note_on_c, 0, 65, 0
1, 138481, Note_on_c, 0, 60, 0
1, 138484, Note_on_c, 0, 57, 29
1, 138484, Note_on_c, 0, 60, 35
1, 138484, Control_c, 0, 64, 0
1, 138589, Control_c, 0, 64, 127
1, 138790, Note_on_c, 0, 60, 0
1, 138790, Note_on_c, 0, 65, 30
1, 138940, Note_on_c, 0, 65, 0
1, 139090, Note_on_c, 0, 75, 0
1, 139090, Note_on_c, 0, 57, 0
1, 139090, Note_on_c, 0, 65, 28
1, 139241, Note_on_c, 0, 65, 0
1, 139391, Note_on_c, 0, 65, 28
1, 139551, Note_on_c, 0, 65, 0
1, 139712, Note_on_c, 0, 72, 45
1, 139712, Note_on_c, 0, 57, 34
1, 139712, Note_on_c, 0, 53, 28
1, 139718, Control_c, 0, 64, 0
1, 139848, Control_c, 0, 64, 127
1, 140020, Note_on_c, 0, 72, 0
1, 140020, Note_on_c, 0, 57, 0
1, 140020, Note_on_c, 0, 65, 31
1, 140317, Note_on_c, 0, 69, 42
1, 140317, Note_on_c, 0, 65, 0
1, 140317, Note_on_c, 0, 53, 0
1, 140320, Note_on_c, 0, 60, 27
1, 140320, Note_on_c, 0, 63, 27
1, 140330, Control_c, 0, 64, 0
1, 140456, Control_c, 0, 64, 127
1, 140613, Note_on_c, 0, 69, 0
1, 140613, Note_on_c, 0, 63, 0
1, 140613, Note_on_c, 0, 65, 27
1, 140955, Note_on_c, 0, 77, 53
1, 140955, Note_on_c, 0, 65, 0
1, 140955, Note_on_c, 0, 60, 0
1, 140958, Note_on_c, 0, 58, 32
1, 140958, Note_on_c, 0, 62, 38
1, 140968, Control_c, 0, 64, 0
1, 141063, Control_c, 0, 64, 127
1, 141264, Note_on_c, 0, 62, 0
1, 141264, Note_on_c, 0, 65, 30
1, 141414, Note_on_c, 0, 77, 0
1, 141414, Note_on_c, 0, 74, 49
1, 141414, Note_on_c, 0, 65, 0
1, 141565, Note_on_c, 0, 74, 0
1, 141565, Note_on_c, 0, 77, 53
1, 141565, Note_on_c, 0, 58, 0
1, 141568, Note_on_c, 0, 65, 29
1, 141715, Note_on_c, 0, 65, 0
1, 141865, Note_on_c, 0, 77, 0
1, 141865, Note_on_c, 0, 65, 30
1, 142026, Note_on_c, 0, 65, 0
1, 142186, Note_on_c, 0, 62, 38
1, 142186, Note_on_c, 0, 58, 32
1, 142203, Control_c, 0, 64, 0
1, 142267, Control_c, 0, 64, 127
1, 142495, Note_on_c, 0, 62, 0
1, 142495, Note_on_c, 0, 65, 28
1, 142791, Note_on_c, 0, 65, 0
1, 142791, Note_on_c, 0, 58, 0
1, 142791, Note_on_c, 0, 63, 28
1, 142794, Note_on_c, 0, 60, 23
1, 142804, Control_c, 0, 64, 0
1, 142878, Control_c, 0, 64, 127
1, 143088, Note_on_c, 0, 63, 0
1, 143088, Note_on_c, 0, 65, 28
1, 143417, Note_on_c, 0, 77, 49
1, 143417, Note_on_c, 0, 65, 0
1, 143417, Note_on_c, 0, 60, 0
1, 143420, Note_on_c, 0, 60, 35
1, 143420, Note_on_c, 0, 57, 29
1, 143420, Control_c, 0, 64, 0
1, 143525, Control_c, 0, 64, 127
1, 143726, Note_on_c, 0, 77, 0
1, 143726, Note_on_c, 0, 75, 45
1, 143726, Note_on_c, 0, 60, 0
1, 143729, Note_on_c, 0, 65, 30
1, 143876, Note_on_c, 0, 65, 0
1, 144026, Note_on_c, 0, 75, 0
1, 144026, Note_on_c, 0, 57, 0
1, 144026, Note_on_c, 0, 65, 27
1, 144177, Note_on_c, 0, 65, 0
1, 144327, Note_on_c, 0, 65, 27
1, 144487, Note_on_c, 0, 65, 0
1, 144648, Note_on_c, 0, 74, 45
1, 144648, Note_on_c, 0, 53, 28
1, 144648, Note_on_c, 0, 57, 34
1, 144654, Control_c, 0, 64, 0
1, 144784, Control_c, 0, 64, 127
1, 144956, Note_on_c, 0, 74, 0
1, 144956, Note_on_c, 0, 72, 41
1, 144956, Note_on_c, 0, 57, 0
1, 144959, Note_on_c, 0, 65, 31
1, 145105, Note_on_c, 0, 72, 0
1, 145253, Note_on_c, 0, 70, 42
1, 145253, Note_on_c, 0, 65, 0
1, 145253, Note_on_c, 0, 53, 0
1, 145256, Note_on_c, 0, 60, 29
1, 145256, Note_on_c, 0, 63, 29
1, 145267, Control_c, 0, 64, 0
1, 145393, Control_c, 0, 64, 127
1, 145550, Note_on_c, 0, 70, 0
1, 145550, Note_on_c, 0, 69, 39
1, 145550, Note_on_c, 0, 63, 0
1, 145553, Note_on_c, 0, 65, 29
1, 145714, Note_on_c, 0, 69, 0
1, 145879, Note_on_c, 0, 77, 53
1, 145879, Note_on_c, 0, 65, 0
1, 145879, Note_on_c, 0, 60, 0
1, 145882, Note_on_c, 0, 62, 38
1, 145882, Note_on_c, 0, 58, 32
1, 145892, Control_c, 0, 64, 0
1, 145987, Control_c, 0, 64, 127
1, 146338, Note_on_c, 0, 77, 0
1, 146338, Note_on_c, 0, 74, 50
1, 146488, Note_on_c, 0, 74, 0
1, 146488, Note_on_c, 0, 77, 53
1, 146488, Note_on_c, 0, 58, 0
1, 146491, Note_on_c, 0, 62, 0
1, 146780, Control_c, 0, 64, 0
1, 146789, Note_on_c, 0, 77, 0
1, 147110, Note_on_c, 0, 82, 59
1, 147110, Note_on_c, 0, 86, 70
1, 147110, Note_on_c, 0, 70, 47
1, 147113, Note_on_c, 0, 74, 56
1, 147209, Control_c, 0, 64, 127
1, 147418, Note_on_c, 0, 86, 0
1, 147418, Note_on_c, 0, 82, 0
1, 147418, Note_on_c, 0, 81, 54
1, 147421, Note_on_c, 0, 84, 64
1, 147421, Note_on_c, 0, 74, 0
1, 147421, Note_on_c, 0, 70, 0
1, 147424, Note_on_c, 0, 69, 43
1, 147424, Note_on_c, 0, 72, 51
1, 147715, Note_on_c, 0, 84, 0
1, 147715, Note_on_c, 0, 81, 0
1, 147715, Note_on_c, 0, 79, 48
1, 147718, Note_on_c, 0, 82, 57
1, 147718, Note_on_c, 0, 72, 0
1, 147718, Note_on_c, 0, 69, 0
1, 147721, Note_on_c, 0, 70, 45
1, 147721, Note_on_c, 0, 67, 38
1, 147721, Control_c, 0, 64, 0
1, 147982, Note_on_c, 0, 82, 0
1, 147982, Note_on_c, 0, 79, 0
1, 147982, Note_on_c, 0, 67, 0
1, 147985, Note_on_c, 0, 70, 0
1, 148011, Note_on_c, 0, 81, 57
1, 148011, Note_on_c, 0, 78, 48
1, 148011, Note_on_c, 0, 66, 38
1, 148014, Note_on_c, 0, 69, 45
1, 148289, Note_on_c, 0, 78, 0
1, 148289, Note_on_c, 0, 81, 0
1, 148289, Note_on_c, 0, 69, 0
1, 148292, Note_on_c, 0, 66, 0
1, 148320, Note_on_c, 0, 79, 59
1, 148320, Note_on_c, 0, 82, 70
1, 148320, Note_on_c, 0, 67, 47
1, 148323, Note_on_c, 0, 70, 56
1, 148439, Control_c, 0, 64, 127
1, 148633, Note_on_c, 0, 82, 0
1, 148633, Note_on_c, 0, 79, 0
1, 148633, Note_on_c, 0, 77, 54
1, 148636, Note_on_c, 0, 81, 64
1, 148636, Note_on_c, 0, 70, 0
1, 148636, Note_on_c, 0, 67, 0
1, 148639, Note_on_c, 0, 65, 43
1, 148639, Note_on_c, 0, 69, 51
1, 148934, Note_on_c, 0, 81, 0
1, 148934, Note_on_c, 0, 77, 0
1, 148934, Note_on_c, 0, 79, 59
1, 148937, Note_on_c, 0, 75, 50
1, 148937, Note_on_c, 0, 69, 0
1, 148937, Note_on_c, 0, 65, 0
1, 148940, Note_on_c, 0, 63, 40
1, 148940, Note_on_c, 0, 67, 47
1, 148948, Control_c, 0, 64, 0
1, 149205, Note_on_c, 0, 75, 0
1, 149205, Note_on_c, 0, 79, 0
1, 149205, Note_on_c, 0, 67, 0
1, 149208, Note_on_c, 0, 63, 0
1, 149235, Note_on_c, 0, 78, 59
1, 149235, Note_on_c, 0, 74, 50
1, 149235, Note_on_c, 0, 66, 47
1, 149238, Note_on_c, 0, 62, 40
1, 149516, Note_on_c, 0, 74, 0
1, 149516, Note_on_c, 0, 78, 0
1, 149516, Note_on_c, 0, 62, 0
1, 149519, Note_on_c, 0, 66, 0
1, 149548, Note_on_c, 0, 75, 59
1, 149548, Note_on_c, 0, 79, 70
1, 149548, Note_on_c, 0, 63, 47
1, 149551, Note_on_c, 0, 67, 56
1, 149669, Control_c, 0, 64, 127
1, 149861, Note_on_c, 0, 79, 0
1, 149861, Note_on_c, 0, 75, 0
1, 149861, Note_on_c, 0, 77, 63
1, 149864, Note_on_c, 0, 74, 53
1, 149864, Note_on_c, 0, 67, 0
1, 149864, Note_on_c, 0, 63, 0
1, 149867, Note_on_c, 0, 62, 42
1, 149867, Note_on_c, 0, 65, 50
1, 150166, Note_on_c, 0, 74, 0
1, 150166, Note_on_c, 0, 77, 0
1, 150166, Note_on_c, 0, 72, 50
1, 150169, Note_on_c, 0, 75, 59
1, 150169, Note_on_c, 0, 65, 0
1, 150169, Note_on_c, 0, 62, 0
1, 150172, Note_on_c, 0, 60, 40
1, 150172, Note_on_c, 0, 63, 47
1, 150180, Control_c, 0, 64, 0
1, 150440, Note_on_c, 0, 75, 0
1, 150440, Note_on_c, 0, 72, 0
1, 150440, Note_on_c, 0, 63, 0
1, 150443, Note_on_c, 0, 60, 0
1, 150470, Note_on_c, 0, 74, 58
1, 150470, Note_on_c, 0, 71, 49
1, 150470, Note_on_c, 0, 62, 46
1, 150473, Note_on_c, 0, 59, 39
1, 150772, Note_on_c, 0, 71, 0
1, 150772, Note_on_c, 0, 74, 0
1, 150772, Note_on_c, 0, 59, 0
1, 150775, Note_on_c, 0, 62, 0
1, 150806, Note_on_c, 0, 67, 49
1, 150806, Note_on_c, 0, 74, 67
1, 150806, Note_on_c, 0, 71, 49
1, 150809, Note_on_c, 0, 62, 33
1, 150809, Note_on_c, 0, 65, 39
1, 150809, Note_on_c, 0, 55, 30
1, 150812, Note_on_c, 0, 59, 33
1, 150912, Control_c, 0, 64, 127
1, 152020, Note_on_c, 0, 71, 0
1, 152020, Note_on_c, 0, 74, 0
1, 152020, Note_on_c, 0, 75, 49
1, 152023, Note_on_c, 0, 72, 41
1, 152023, Note_on_c, 0, 59, 0
1, 152023, Note_on_c, 0, 62, 0
1, 152026, Note_on_c, 0, 65, 0
1, 152026, Note_on_c, 0, 55, 0
1, 152026, Note_on_c, 0, 60, 35
1, 152029, Note_on_c, 0, 63, 42
1, 152029, Control_c, 0, 64, 0
1, 152323, Note_on_c, 0, 72, 0
1, 152323, Note_on_c, 0, 67, 0
1, 152475, Note_on_c, 0, 75, 0
1, 152475, Note_on_c, 0, 79, 45
1, 152526, Note_on_c, 0, 79, 0
1, 152526, Note_on_c, 0, 77, 45
1, 152576, Note_on_c, 0, 77, 0
1, 152576, Note_on_c, 0, 75, 45
1, 152627, Note_on_c, 0, 75, 0
1, 152627, Note_on_c, 0, 77, 50
1, 152627, Note_on_c, 0, 63, 0
1, 152630, Note_on_c, 0, 69, 44
1, 152727, Control_c, 0, 64, 127
1, 152931, Note_on_c, 0, 77, 0
1, 152931, Note_on_c, 0, 79, 48
1, 153234, Note_on_c, 0, 79, 0
1, 153234, Note_on_c, 0, 79, 49
1, 153234, Note_on_c, 0, 69, 0
1, 153237, Note_on_c, 0, 60, 0
1, 153237, Note_on_c, 0, 70, 44
1, 153237, Note_on_c, 0, 62, 33
1, 153244, Control_c, 0, 64, 0
1, 153357, Control_c, 0, 64, 127
1, 153386, Note_on_c, 0, 79, 0
1, 153386, Note_on_c, 0, 77, 45
1, 153538, Note_on_c, 0, 77, 0
1, 153538, Note_on_c, 0, 75, 45
1, 153690, Note_on_c, 0, 75, 0
1, 153690, Note_on_c, 0, 74, 45
1, 153841, Note_on_c, 0, 74, 0
1, 153841, Note_on_c, 0, 71, 49
1, 153841, Note_on_c, 0, 62, 0
1, 153844, Note_on_c, 0, 70, 0
1, 153844, Note_on_c, 0, 63, 35
1, 153844, Note_on_c, 0, 67, 43
1, 153865, Control_c, 0, 64, 0
1, 153993, Note_on_c, 0, 71, 0
1, 153993, Note_on_c, 0, 72, 42
1, 154020, Control_c, 0, 64, 127
1, 154145, Note_on_c, 0, 72, 0
1, 154145, Note_on_c, 0, 75, 42
1, 154297, Note_on_c, 0, 75, 0
1, 154297, Note_on_c, 0, 79, 42
1, 154464, Note_on_c, 0, 79, 0
1, 154464, Note_on_c, 0, 70, 50
1, 154464, Note_on_c, 0, 67, 0
1, 154467, Note_on_c, 0, 63, 0
1, 154467, Note_on_c, 0, 62, 44
1, 154467, Note_on_c, 0, 53, 37
1, 154476, Control_c, 0, 64, 0
1, 154597, Control_c, 0, 64, 127
1, 155106, Note_on_c, 0, 70, 0
1, 155106, Note_on_c, 0, 72, 45
1, 155106, Note_on_c, 0, 69, 38
1, 155109, Note_on_c, 0, 62, 0
1, 155109, Note_on_c, 0, 63, 36
1, 155119, Control_c, 0, 64, 0
1, 155258, Control_c, 0, 64, 127
1, 155713, Note_on_c, 0, 69, 0
1, 155713, Note_on_c, 0, 72, 0
1, 155713, Note_on_c, 0, 72, 48
1, 155716, Note_on_c, 0, 69, 38
1, 155716, Note_on_c, 0, 63, 0
1, 155716, Note_on_c, 0, 53, 0
1, 155719, Note_on_c, 0, 62, 38
1, 155719, Note_on_c, 0, 58, 30
1, 155719, Control_c, 0, 64, 0
1, 155816, Control_c, 0, 64, 127
1, 156022, Note_on_c, 0, 62, 0
1, 156022, Note_on_c, 0, 65, 30
1, 156172, Note_on_c, 0, 72, 0
1, 156172, Note_on_c, 0, 73, 35
1, 156172, Note_on_c, 0, 65, 0
1, 156322, Note_on_c, 0, 73, 0
1, 156322, Note_on_c, 0, 69, 0
1, 156322, Note_on_c, 0, 74, 44
1, 156325, Note_on_c, 0, 70, 38
1, 156325, Note_on_c, 0, 58, 0
1, 156325, Note_on_c, 0, 65, 30
1, 156335, Control_c, 0, 64, 0
1, 156473, Note_on_c, 0, 65, 0
1, 156473, Control_c, 0, 64, 127
1, 156623, Note_on_c, 0, 65, 30
1, 156783, Note_on_c, 0, 65, 0
1, 156944, Note_on_c, 0, 70, 0
1, 156944, Note_on_c, 0, 74, 0
1, 156944, Note_on_c, 0, 58, 28
1, 156947, Note_on_c, 0, 62, 33
1, 156957, Control_c, 0, 64, 0
1, 157053, Control_c, 0, 64, 127
1, 157252, Note_on_c, 0, 62, 0
1, 157252, Note_on_c, 0, 65, 27
1, 157549, Note_on_c, 0, 65, 0
1, 157549, Note_on_c, 0, 58, 0
1, 157549, Note_on_c, 0, 63, 27
1, 157552, Note_on_c, 0, 60, 22
1, 157561, Control_c, 0, 64, 0
1, 157627, Control_c, 0, 64, 127
1, 157846, Note_on_c, 0, 63, 0
1, 157846, Note_on_c, 0, 65, 27
1, 158175, Note_on_c, 0, 77, 45
1, 158175, Note_on_c, 0, 65, 0
1, 158175, Note_on_c, 0, 60, 0
1, 158178, Note_on_c, 0, 60, 33
1, 158178, Note_on_c, 0, 57, 33
1, 158178, Control_c, 0, 64, 0
1, 158283, Control_c, 0, 64, 127
1, 158484, Note_on_c, 0, 77, 0
1, 158484, Note_on_c, 0, 75, 45
1, 158484, Note_on_c, 0, 60, 0
1, 158487, Note_on_c, 0, 65, 26
1, 158634, Note_on_c, 0, 65, 0
1, 158784, Note_on_c, 0, 75, 0
1, 158784, Note_on_c, 0, 57, 0
1, 158784, Note_on_c, 0, 65, 30
1, 158934, Note_on_c, 0, 65, 0
1, 159085, Note_on_c, 0, 65, 26
1, 159245, Note_on_c, 0, 65, 0
1, 159406, Note_on_c, 0, 74, 45
1, 159406, Note_on_c, 0, 53, 28
1, 159406, Note_on_c, 0, 57, 34
1, 159412, Control_c, 0, 64, 0
1, 159542, Control_c, 0, 64, 127
1, 159714, Note_on_c, 0, 74, 0
1, 159714, Note_on_c, 0, 72, 43
1, 159714, Note_on_c, 0, 57, 0
1, 159717, Note_on_c, 0, 65, 31
1, 160011, Note_on_c, 0, 72, 0
1, 160011, Note_on_c, 0, 70, 42
1, 160011, Note_on_c, 0, 65, 0
1, 160014, Note_on_c, 0, 53, 0
1, 160014, Note_on_c, 0, 63, 31
1, 160014, Note_on_c, 0, 60, 26
1, 160024, Control_c, 0, 64, 0
1, 160150, Control_c, 0, 64, 127
1, 160307, Note_on_c, 0, 70, 0
1, 160307, Note_on_c, 0, 69, 40
1, 160307, Note_on_c, 0, 63, 0
1, 160310, Note_on_c, 0, 65, 31
1, 160637, Note_on_c, 0, 69, 0
1, 160637, Note_on_c, 0, 77, 53
1, 160637, Note_on_c, 0, 65, 0
1, 160640, Note_on_c, 0, 60, 0
1, 160640, Note_on_c, 0, 62, 38
1, 160640, Note_on_c, 0, 58, 32
1, 160650, Control_c, 0, 64, 0
1, 160745, Control_c, 0, 64, 127
1, 160945, Note_on_c, 0, 62, 0
1, 160945, Note_on_c, 0, 65, 30
1, 161096, Note_on_c, 0, 77, 0
1, 161096, Note_on_c, 0, 74, 49
1, 161096, Note_on_c, 0, 65, 0
1, 161246, Note_on_c, 0, 74, 0
1, 161246, Note_on_c, 0, 77, 53
1, 161246, Note_on_c, 0, 58, 0
1, 161249, Note_on_c, 0, 65, 30
1, 161396, Note_on_c, 0, 65, 0
1, 161547, Note_on_c, 0, 77, 0
1, 161547, Note_on_c, 0, 65, 30
1, 161707, Note_on_c, 0, 65, 0
1, 161867, Note_on_c, 0, 62, 38
1, 161867, Note_on_c, 0, 58, 32
1, 161884, Control_c, 0, 64, 0
1, 161948, Control_c, 0, 64, 127
1, 162176, Note_on_c, 0, 62, 0
1, 162176, Note_on_c, 0, 65, 28
1, 162472, Note_on_c, 0, 65, 0
1, 162472, Note_on_c, 0, 58, 0
1, 162472, Note_on_c, 0, 63, 28
1, 162475, Note_on_c, 0, 60, 23
1, 162485, Control_c, 0, 64, 0
1, 162559, Control_c, 0, 64, 127
1, 162769, Note_on_c, 0, 63, 0
1, 162769, Note_on_c, 0, 65, 28
1, 163099, Note_on_c, 0, 77, 50
1, 163099, Note_on_c, 0, 65, 0
1, 163099, Note_on_c, 0, 60, 0
1, 163102, Note_on_c, 0, 60, 35
1, 163102, Note_on_c, 0, 57, 29
1, 163102, Control_c, 0, 64, 0
1, 163176, Note_on_c, 0, 77, 0
1, 163253, Note_on_c, 0, 76, 48
1, 163330, Note_on_c, 0, 76, 0
1, 163407, Note_on_c, 0, 75, 45
1, 163407, Note_on_c, 0, 60, 0
1, 163407, Note_on_c, 0, 65, 28
1, 163504, Control_c, 0, 64, 127
1, 163557, Note_on_c, 0, 65, 0
1, 163708, Note_on_c, 0, 75, 0
1, 163708, Note_on_c, 0, 57, 0
1, 163708, Note_on_c, 0, 65, 30
1, 163858, Note_on_c, 0, 65, 0
1, 164008, Note_on_c, 0, 65, 26
1, 164152, Note_on_c, 0, 65, 0
1, 164296, Note_on_c, 0, 74, 49
1, 164296, Note_on_c, 0, 57, 34
1, 164296, Note_on_c, 0, 53, 28
1, 164302, Control_c, 0, 64, 0
1, 164369, Note_on_c, 0, 74, 0
1, 164425, Control_c, 0, 64, 127
1, 164442, Note_on_c, 0, 74, 43
1, 164588, Note_on_c, 0, 74, 0
1, 164588, Note_on_c, 0, 75, 45
1, 164588, Note_on_c, 0, 57, 0
1, 164591, Note_on_c, 0, 65, 25
1, 164736, Note_on_c, 0, 75, 0
1, 164736, Note_on_c, 0, 72, 40
1, 164885, Note_on_c, 0, 72, 0
1, 164885, Note_on_c, 0, 70, 47
1, 164885, Note_on_c, 0, 65, 0
1, 164888, Note_on_c, 0, 53, 0
1, 164888, Note_on_c, 0, 63, 31
1, 164888, Note_on_c, 0, 60, 26
1, 164898, Control_c, 0, 64, 0
1, 164959, Note_on_c, 0, 70, 0
1, 165024, Control_c, 0, 64, 127
1, 165033, Note_on_c, 0, 70, 41
1, 165181, Note_on_c, 0, 70, 0
1, 165181, Note_on_c, 0, 72, 46
1, 165181, Note_on_c, 0, 63, 0
1, 165184, Note_on_c, 0, 65, 26
1, 165346, Note_on_c, 0, 72, 0
1, 165346, Note_on_c, 0, 69, 40
1, 165515, Note_on_c, 0, 69, 0
1, 165515, Note_on_c, 0, 77, 53
1, 165515, Note_on_c, 0, 65, 0
1, 165518, Note_on_c, 0, 60, 0
1, 165518, Note_on_c, 0, 62, 38
1, 165518, Note_on_c, 0, 58, 32
1, 165527, Control_c, 0, 64, 0
1, 165592, Note_on_c, 0, 77, 0
1, 165592, Note_on_c, 0, 79, 47
1, 165623, Control_c, 0, 64, 127
1, 165669, Note_on_c, 0, 79, 0
1, 165669, Note_on_c, 0, 77, 47
1, 165746, Note_on_c, 0, 77, 0
1, 165746, Note_on_c, 0, 76, 46
1, 165823, Note_on_c, 0, 76, 0
1, 165823, Note_on_c, 0, 77, 53
1, 165973, Note_on_c, 0, 77, 0
1, 165973, Note_on_c, 0, 82, 50
1, 166124, Note_on_c, 0, 82, 0
1, 166124, Note_on_c, 0, 77, 53
1, 166124, Note_on_c, 0, 58, 0
1, 166127, Note_on_c, 0, 62, 0
1, 166166, Control_c, 0, 64, 0
1, 166424, Note_on_c, 0, 77, 0
1, 166745, Note_on_c, 0, 74, 56
1, 166745, Note_on_c, 0, 70, 47
1, 166844, Control_c, 0, 64, 127
1, 166899, Note_on_c, 0, 82, 50
1, 166899, Note_on_c, 0, 86, 59
1, 167054, Note_on_c, 0, 70, 0
1, 167054, Note_on_c, 0, 74, 0
1, 167054, Note_on_c, 0, 72, 51
1, 167057, Note_on_c, 0, 69, 43
1, 167202, Note_on_c, 0, 86, 0
1, 167202, Note_on_c, 0, 82, 0
1, 167202, Note_on_c, 0, 84, 54
1, 167205, Note_on_c, 0, 81, 45
1, 167350, Note_on_c, 0, 69, 0
1, 167350, Note_on_c, 0, 72, 0
1, 167350, Note_on_c, 0, 67, 38
1, 167353, Note_on_c, 0, 70, 45
1, 167358, Control_c, 0, 64, 0
1, 167499, Note_on_c, 0, 81, 0
1, 167499, Note_on_c, 0, 84, 0
1, 167499, Note_on_c, 0, 82, 48
1, 167502, Note_on_c, 0, 79, 40
1, 167647, Note_on_c, 0, 70, 0
1, 167647, Note_on_c, 0, 67, 0
1, 167647, Note_on_c, 0, 69, 45
1, 167650, Note_on_c, 0, 66, 38
1, 167801, Note_on_c, 0, 79, 0
1, 167801, Note_on_c, 0, 82, 0
1, 167801, Note_on_c, 0, 81, 48
1, 167804, Note_on_c, 0, 78, 40
1, 167956, Note_on_c, 0, 66, 0
1, 167956, Note_on_c, 0, 69, 0
1, 167956, Note_on_c, 0, 67, 47
1, 167959, Note_on_c, 0, 70, 56
1, 168074, Control_c, 0, 64, 127
1, 168112, Note_on_c, 0, 78, 0
1, 168112, Note_on_c, 0, 81, 0
1, 168112, Note_on_c, 0, 79, 50
1, 168115, Note_on_c, 0, 82, 59
1, 168269, Note_on_c, 0, 70, 0
1, 168269, Note_on_c, 0, 67, 0
1, 168269, Note_on_c, 0, 65, 43
1, 168272, Note_on_c, 0, 69, 51
1, 168419, Note_on_c, 0, 82, 0
1, 168419, Note_on_c, 0, 79, 0
1, 168419, Note_on_c, 0, 81, 54
1, 168422, Note_on_c, 0, 77, 45
1, 168570, Note_on_c, 0, 69, 0
1, 168570, Note_on_c, 0, 65, 0
1, 168570, Note_on_c, 0, 63, 40
1, 168573, Note_on_c, 0, 67, 47
1, 168583, Control_c, 0, 64, 0
1, 168720, Note_on_c, 0, 77, 0
1, 168720, Note_on_c, 0, 81, 0
1, 168720, Note_on_c, 0, 75, 42
1, 168723, Note_on_c, 0, 79, 50
1, 168870, Note_on_c, 0, 67, 0
1, 168870, Note_on_c, 0, 63, 0
1, 168870, Note_on_c, 0, 66, 47
1, 168873, Note_on_c, 0, 62, 40
1, 169027, Note_on_c, 0, 79, 0
1, 169027, Note_on_c, 0, 75, 0
1, 169027, Note_on_c, 0, 74, 42
1, 169030, Note_on_c, 0, 78, 50
1, 169183, Note_on_c, 0, 62, 0
1, 169183, Note_on_c, 0, 66, 0
1, 169183, Note_on_c, 0, 63, 47
1, 169186, Note_on_c, 0, 67, 56
1, 169305, Control_c, 0, 64, 127
1, 169340, Note_on_c, 0, 78, 0
1, 169340, Note_on_c, 0, 74, 0
1, 169340, Note_on_c, 0, 75, 50
1, 169343, Note_on_c, 0, 79, 59
1, 169496, Note_on_c, 0, 67, 0
1, 169496, Note_on_c, 0, 63, 0
1, 169496, Note_on_c, 0, 65, 50
1, 169499, Note_on_c, 0, 62, 42
1, 169649, Note_on_c, 0, 79, 0
1, 169649, Note_on_c, 0, 75, 0
1, 169649, Note_on_c, 0, 74, 45
1, 169652, Note_on_c, 0, 77, 53
1, 169801, Note_on_c, 0, 62, 0
1, 169801, Note_on_c, 0, 65, 0
1, 169801, Note_on_c, 0, 60, 40
1, 169804, Note_on_c, 0, 63, 47
1, 169815, Control_c, 0, 64, 0
1, 169953, Note_on_c, 0, 77, 0
1, 169953, Note_on_c, 0, 74, 0
1, 169953, Note_on_c, 0, 75, 50
1, 169956, Note_on_c, 0, 72, 42
1, 170106, Note_on_c, 0, 63, 0
1, 170106, Note_on_c, 0, 60, 0
1, 170106, Note_on_c, 0, 62, 46
1, 170109, Note_on_c, 0, 59, 39
1, 170269, Note_on_c, 0, 72, 0
1, 170269, Note_on_c, 0, 75, 0
1, 170269, Note_on_c, 0, 71, 41
1, 170272, Note_on_c, 0, 74, 49
1, 170455, Note_on_c, 0, 74, 0
1, 170455, Note_on_c, 0, 71, 0
1, 170455, Note_on_c, 0, 74, 58
1, 170458, Note_on_c, 0, 67, 49
1, 170458, Note_on_c, 0, 71, 49
1, 170458, Note_on_c, 0, 59, 0
1, 170461, Note_on_c, 0, 62, 0
1, 170461, Note_on_c, 0, 65, 46
1, 170461, Note_on_c, 0, 59, 35
1, 170464, Note_on_c, 0, 62, 36
1, 170464, Note_on_c, 0, 55, 33
1, 170561, Control_c, 0, 64, 127
1, 171673, Note_on_c, 0, 71, 0
1, 171673, Note_on_c, 0, 74, 0
1, 171673, Note_on_c, 0, 75, 49
1, 171676, Note_on_c, 0, 72, 41
1, 171676, Note_on_c, 0, 55, 0
1, 171676, Note_on_c, 0, 65, 0
1, 171679, Note_on_c, 0, 59, 0
1, 171679, Note_on_c, 0, 62, 0
1, 171679, Note_on_c, 0, 60, 35
1, 171682, Note_on_c, 0, 63, 42
1, 171682, Control_c, 0, 64, 0
1, 171978, Note_on_c, 0, 72, 0
1, 171978, Note_on_c, 0, 67, 0
1, 172130, Note_on_c, 0, 75, 0
1, 172130, Note_on_c, 0, 79, 45
1, 172181, Note_on_c, 0, 79, 0
1, 172181, Note_on_c, 0, 77, 41
1, 172232, Note_on_c, 0, 77, 0
1, 172232, Note_on_c, 0, 75, 41
1, 172283, Note_on_c, 0, 75, 0
1, 172283, Note_on_c, 0, 77, 50
1, 172283, Note_on_c, 0, 63, 0
1, 172286, Note_on_c, 0, 69, 44
1, 172383, Control_c, 0, 64, 127
1, 172587, Note_on_c, 0, 77, 0
1, 172587, Note_on_c, 0, 79, 48
1, 172906, Note_on_c, 0, 79, 0
1, 172906, Note_on_c, 0, 77, 49
1, 172906, Note_on_c, 0, 69, 0
1, 172909, Note_on_c, 0, 60, 0
1, 172909, Note_on_c, 0, 70, 48
1, 172909, Note_on_c, 0, 62, 40
1, 172914, Control_c, 0, 64, 0
1, 173039, Control_c, 0, 64, 127
1, 173106, Note_on_c, 0, 77, 0
1, 173106, Note_on_c, 0, 82, 45
1, 173307, Note_on_c, 0, 82, 0
1, 173307, Note_on_c, 0, 74, 45
1, 173507, Note_on_c, 0, 74, 0
1, 173507, Note_on_c, 0, 72, 48
1, 173507, Note_on_c, 0, 62, 0
1, 173510, Note_on_c, 0, 70, 0
1, 173510, Note_on_c, 0, 63, 38
1, 173510, Note_on_c, 0, 67, 45
1, 173532, Control_c, 0, 64, 0
1, 173686, Control_c, 0, 64, 127
1, 173711, Note_on_c, 0, 72, 0
1, 173711, Note_on_c, 0, 75, 45
1, 173914, Note_on_c, 0, 75, 0
1, 173914, Note_on_c, 0, 79, 45
1, 174135, Note_on_c, 0, 79, 0
1, 174135, Note_on_c, 0, 70, 50
1, 174135, Note_on_c, 0, 67, 0
1, 174138, Note_on_c, 0, 63, 0
1, 174138, Note_on_c, 0, 53, 37
1, 174138, Note_on_c, 0, 62, 44
1, 174147, Control_c, 0, 64, 0
1, 174261, Control_c, 0, 64, 127
1, 174745, Note_on_c, 0, 70, 0
1, 174745, Note_on_c, 0, 69, 45
1, 174745, Note_on_c, 0, 62, 0
1, 174748, Note_on_c, 0, 60, 40
1, 174758, Control_c, 0, 64, 0
1, 174901, Control_c, 0, 64, 127
1, 175332, Note_on_c, 0, 69, 0
1, 175332, Note_on_c, 0, 62, 56
1, 175339, Control_c, 0, 64, 0
1, 175351, Control_c, 0, 64, 127
1, 175372, Note_on_c, 0, 62, 0
1, 175372, Note_on_c, 0, 74, 73
1, 175372, Note_on_c, 0, 60, 0
1, 175375, Note_on_c, 0, 53, 0
1, 175677, Note_on_c, 0, 46, 50
1, 175982, Note_on_c, 0, 46, 0
1, 175982, Note_on_c, 0, 50, 54
1, 176210, Note_on_c, 0, 74, 0
1, 176210, Note_on_c, 0, 70, 49
1, 176287, Note_on_c, 0, 70, 0
1, 176287, Note_on_c, 0, 70, 53
1, 176287, Note_on_c, 0, 50, 0
1, 176290, Note_on_c, 0, 55, 50
1, 176346, Note_on_c, 0, 70, 0
1, 176346, Note_on_c, 0, 72, 50
1, 176405, Note_on_c, 0, 72, 0
1, 176405, Note_on_c, 0, 70, 54
1, 176465, Note_on_c, 0, 70, 0
1, 176465, Note_on_c, 0, 69, 51
1, 176524, Note_on_c, 0, 69, 0
1, 176524, Note_on_c, 0, 70, 54
1, 176583, Note_on_c, 0, 70, 0
1, 176583, Note_on_c, 0, 63, 60
1, 176583, Note_on_c, 0, 55, 0
1, 176590, Control_c, 0, 64, 0
1, 176622, Note_on_c, 0, 75, 74
1, 176650, Control_c, 0, 64, 127
1, 176662, Note_on_c, 0, 63, 0
1, 176896, Note_on_c, 0, 48, 50
1, 177210, Note_on_c, 0, 48, 0
1, 177210, Note_on_c, 0, 51, 54
1, 177444, Note_on_c, 0, 75, 0
1, 177444, Note_on_c, 0, 72, 53
1, 177523, Note_on_c, 0, 72, 0
1, 177523, Note_on_c, 0, 72, 56
1, 177523, Note_on_c, 0, 51, 0
1, 177526, Note_on_c, 0, 57, 50
1, 177581, Note_on_c, 0, 72, 0
1, 177581, Note_on_c, 0, 74, 54
1, 177640, Note_on_c, 0, 74, 0
1, 177640, Note_on_c, 0, 72, 56
1, 177698, Note_on_c, 0, 72, 0
1, 177698, Note_on_c, 0, 71, 53
1, 177757, Note_on_c, 0, 71, 0
1, 177757, Note_on_c, 0, 72, 56
1, 177816, Note_on_c, 0, 72, 0
1, 177816, Note_on_c, 0, 77, 74
1, 177816, Note_on_c, 0, 57, 0
1, 177828, Control_c, 0, 64, 0
1, 177913, Control_c, 0, 64, 127
1, 178112, Note_on_c, 0, 50, 50
1, 178269, Note_on_c, 0, 77, 0
1, 178269, Note_on_c, 0, 74, 61
1, 178425, Note_on_c, 0, 74, 0
1, 178425, Note_on_c, 0, 82, 69
1, 178425, Note_on_c, 0, 50, 0
1, 178428, Note_on_c, 0, 53, 54
1, 178739, Note_on_c, 0, 53, 0
1, 178739, Note_on_c, 0, 58, 45
1, 179035, Note_on_c, 0, 50, 49
1, 179048, Control_c, 0, 64, 0
1, 179181, Control_c, 0, 64, 127
1, 179344, Note_on_c, 0, 82, 0
1, 179344, Note_on_c, 0, 80, 62
1, 179653, Note_on_c, 0, 80, 0
1, 179653, Note_on_c, 0, 79, 67
1, 179653, Note_on_c, 0, 58, 0
1, 179656, Note_on_c, 0, 56, 47
1, 179667, Control_c, 0, 64, 0
1, 179780, Control_c, 0, 64, 127
1, 179962, Note_on_c, 0, 79, 0
1, 179962, Note_on_c, 0, 78, 62
1, 180271, Note_on_c, 0, 56, 0
1, 180271, Note_on_c, 0, 50, 0
1, 180271, Note_on_c, 0, 55, 40
1, 180274, Note_on_c, 0, 51, 40
1, 180274, Note_on_c, 0, 58, 48
1, 180274, Control_c, 0, 64, 0
1, 180377, Control_c, 0, 64, 127
1, 180430, Note_on_c, 0, 78, 0
1, 180430, Note_on_c, 0, 79, 69
1, 180588, Note_on_c, 0, 79, 0
1, 180588, Note_on_c, 0, 82, 62
1, 180601, Control_c, 0, 64, 0
1, 180741, Note_on_c, 0, 82, 0
1, 180741, Note_on_c, 0, 79, 63
1, 180893, Note_on_c, 0, 79, 0
1, 180893, Note_on_c, 0, 74, 64
1, 180893, Note_on_c, 0, 58, 0
1, 180896, Note_on_c, 0, 51, 0
1, 180896, Note_on_c, 0, 55, 0
1, 181045, Note_on_c, 0, 74, 0
1, 181045, Note_on_c, 0, 75, 60
1, 181198, Note_on_c, 0, 75, 0
1, 181198, Note_on_c, 0, 79, 60
1, 181356, Note_on_c, 0, 79, 0
1, 181356, Note_on_c, 0, 75, 60
1, 181519, Note_on_c, 0, 71, 68
1, 181519, Note_on_c, 0, 51, 40
1, 181519, Note_on_c, 0, 55, 40
1, 181522, Note_on_c, 0, 60, 48
1, 181532, Note_on_c, 0, 75, 0
1, 181671, Note_on_c, 0, 71, 0
1, 181671, Note_on_c, 0, 72, 60
1, 181824, Note_on_c, 0, 75, 60
1, 181836, Note_on_c, 0, 72, 0
1, 181976, Note_on_c, 0, 75, 0
1, 181976, Note_on_c, 0, 74, 60
1, 182128, Note_on_c, 0, 77, 63
1, 182128, Note_on_c, 0, 60, 0
1, 182128, Note_on_c, 0, 55, 0
1, 182131, Note_on_c, 0, 51, 0
1, 182141, Note_on_c, 0, 74, 0
1, 182281, Note_on_c, 0, 77, 0
1, 182281, Note_on_c, 0, 75, 62
1, 182433, Note_on_c, 0, 74, 60
1, 182446, Note_on_c, 0, 75, 0
1, 182585, Note_on_c, 0, 74, 0
1, 182585, Note_on_c, 0, 72, 58
1, 182662, Note_on_c, 0, 72, 0
1, 182662, Note_on_c, 0, 65, 46
1, 182738, Note_on_c, 0, 65, 0
1, 182738, Note_on_c, 0, 77, 60
1, 182738, Note_on_c, 0, 53, 50
1, 182787, Control_c, 0, 64, 127
1, 183042, Note_on_c, 0, 77, 0
1, 183042, Note_on_c, 0, 77, 60
1, 183042, Note_on_c, 0, 53, 0
1, 183045, Note_on_c, 0, 62, 43
1, 183347, Note_on_c, 0, 62, 0
1, 183347, Note_on_c, 0, 58, 50
1, 183652, Note_on_c, 0, 77, 0
1, 183652, Note_on_c, 0, 77, 64
1, 183652, Note_on_c, 0, 58, 0
1, 183655, Note_on_c, 0, 62, 38
1, 183956, Note_on_c, 0, 62, 0
1, 183956, Note_on_c, 0, 53, 43
1, 183965, Control_c, 0, 64, 0
1, 184019, Control_c, 0, 64, 127
1, 184109, Note_on_c, 0, 77, 0
1, 184109, Note_on_c, 0, 75, 60
1, 184261, Note_on_c, 0, 75, 0
1, 184261, Note_on_c, 0, 74, 60
1, 184261, Note_on_c, 0, 53, 0
1, 184264, Note_on_c, 0, 62, 35
1, 184413, Note_on_c, 0, 74, 0
1, 184413, Note_on_c, 0, 75, 60
1, 184566, Note_on_c, 0, 75, 0
1, 184566, Note_on_c, 0, 77, 60
1, 184566, Note_on_c, 0, 62, 0
1, 184569, Note_on_c, 0, 58, 35
1, 184718, Note_on_c, 0, 77, 0
1, 184718, Note_on_c, 0, 79, 61
1, 184870, Note_on_c, 0, 79, 0
1, 184870, Note_on_c, 0, 81, 62
1, 184870, Note_on_c, 0, 58, 0
1, 184873, Note_on_c, 0, 62, 35
1, 185023, Note_on_c, 0, 81, 0
1, 185023, Note_on_c, 0, 82, 63
1, 185105, Note_on_c, 0, 82, 0
1, 185105, Note_on_c, 0, 70, 44
1, 185154, Note_on_c, 0, 70, 0
1, 185154, Note_on_c, 0, 72, 44
1, 185181, Note_on_c, 0, 72, 0
1, 185181, Note_on_c, 0, 74, 44
1, 185208, Note_on_c, 0, 74, 0
1, 185208, Note_on_c, 0, 72, 44
1, 185208, Note_on_c, 0, 62, 0
1, 185211, Note_on_c, 0, 53, 38
1, 185211, Control_c, 0, 64, 0
1, 185270, Control_c, 0, 64, 127
1, 185276, Note_on_c, 0, 72, 0
1, 185276, Note_on_c, 0, 74, 41
1, 185343, Note_on_c, 0, 74, 0
1, 185343, Note_on_c, 0, 72, 44
1, 185408, Note_on_c, 0, 74, 39
1, 185408, Note_on_c, 0, 72, 0
1, 185472, Note_on_c, 0, 74, 0
1, 185472, Note_on_c, 0, 72, 44
1, 185520, Note_on_c, 0, 53, 0
1, 185520, Note_on_c, 0, 63, 33
1, 185535, Note_on_c, 0, 72, 0
1, 185535, Note_on_c, 0, 74, 39
1, 185597, Note_on_c, 0, 74, 0
1, 185597, Note_on_c, 0, 72, 44
1, 185659, Note_on_c, 0, 72, 0
1, 185659, Note_on_c, 0, 74, 39
1, 185718, Note_on_c, 0, 72, 44
1, 185718, Note_on_c, 0, 74, 0
1, 185777, Note_on_c, 0, 72, 0
1, 185777, Note_on_c, 0, 74, 39
1, 185809, Note_on_c, 0, 63, 0
1, 185809, Note_on_c, 0, 57, 33
1, 185837, Note_on_c, 0, 74, 0
1, 185837, Note_on_c, 0, 72, 44
1, 185896, Note_on_c, 0, 72, 0
1, 185896, Note_on_c, 0, 74, 38
1, 185955, Note_on_c, 0, 74, 0
1, 185955, Note_on_c, 0, 72, 44
1, 186014, Note_on_c, 0, 74, 38
1, 186014, Note_on_c, 0, 72, 0
1, 186072, Note_on_c, 0, 74, 0
1, 186072, Note_on_c, 0, 72, 44
1, 186090, Note_on_c, 0, 57, 0
1, 186090, Note_on_c, 0, 63, 33
1, 186132, Note_on_c, 0, 72, 0
1, 186132, Note_on_c, 0, 74, 38
1, 186189, Note_on_c, 0, 74, 0
1, 186189, Note_on_c, 0, 72, 43
1, 186248, Note_on_c, 0, 72, 0
1, 186248, Note_on_c, 0, 74, 38
1, 186306, Note_on_c, 0, 72, 43
1, 186306, Note_on_c, 0, 74, 0
1, 186364, Note_on_c, 0, 72, 0
1, 186364, Note_on_c, 0, 74, 36
1, 186368, Note_on_c, 0, 63, 0
1, 186368, Note_on_c, 0, 53, 37
1, 186424, Note_on_c, 0, 74, 0
1, 186424, Note_on_c, 0, 72, 42
1, 186484, Note_on_c, 0, 72, 0
1, 186484, Note_on_c, 0, 74, 36
1, 186544, Note_on_c, 0, 74, 0
1, 186544, Note_on_c, 0, 72, 42
1, 186603, Note_on_c, 0, 74, 36
1, 186603, Note_on_c, 0, 72, 0
1, 186652, Note_on_c, 0, 72, 42
1, 186652, Note_on_c, 0, 53, 0
1, 186652, Note_on_c, 0, 63, 32
1, 186662, Note_on_c, 0, 74, 0
1, 186718, Note_on_c, 0, 72, 0
1, 186718, Note_on_c, 0, 74, 40
1, 186785, Note_on_c, 0, 74, 0
1, 186785, Note_on_c, 0, 72, 42
1, 186852, Note_on_c, 0, 72, 0
1, 186852, Note_on_c, 0, 74, 39
1, 186919, Note_on_c, 0, 74, 0
1, 186919, Note_on_c, 0, 72, 42
1, 186919, Note_on_c, 0, 63, 0
1, 186922, Note_on_c, 0, 57, 32
1, 186985, Note_on_c, 0, 72, 0
1, 186985, Note_on_c, 0, 74, 36
1, 187055, Note_on_c, 0, 74, 0
1, 187055, Note_on_c, 0, 72, 42
1, 187125, Note_on_c, 0, 72, 0
1, 187125, Note_on_c, 0, 74, 37
1, 187197, Note_on_c, 0, 74, 0
1, 187197, Note_on_c, 0, 72, 38
1, 187197, Note_on_c, 0, 57, 0
1, 187200, Note_on_c, 0, 63, 32
1, 187300, Note_on_c, 0, 72, 0
1, 187300, Note_on_c, 0, 70, 48
1, 187410, Note_on_c, 0, 70, 0
1, 187410, Note_on_c, 0, 72, 42
1, 187519, Note_on_c, 0, 72, 0
1, 187519, Note_on_c, 0, 70, 53
1, 187519, Note_on_c, 0, 63, 0
1, 187522, Note_on_c, 0, 58, 37
1, 187532, Control_c, 0, 64, 0
1, 187671, Control_c, 0, 64, 127
1, 187824, Note_on_c, 0, 62, 35
1, 188128, Note_on_c, 0, 70, 0
1, 188128, Note_on_c, 0, 62, 0
1, 188128, Note_on_c, 0, 65, 39
1, 188357, Note_on_c, 0, 70, 49
1, 188434, Note_on_c, 0, 70, 0
1, 188434, Note_on_c, 0, 70, 50
1, 188434, Note_on_c, 0, 65, 0
1, 188437, Note_on_c, 0, 68, 35
1, 188493, Note_on_c, 0, 70, 0
1, 188493, Note_on_c, 0, 72, 51
1, 188552, Note_on_c, 0, 72, 0
1, 188552, Note_on_c, 0, 70, 51
1, 188609, Note_on_c, 0, 70, 0
1, 188609, Note_on_c, 0, 69, 54
1, 188666, Note_on_c, 0, 69, 0
1, 188666, Note_on_c, 0, 70, 54
1, 188722, Note_on_c, 0, 70, 0
1, 188722, Note_on_c, 0, 77, 63
1, 188722, Note_on_c, 0, 68, 0
1, 188725, Note_on_c, 0, 67, 37
1, 188735, Control_c, 0, 64, 0
1, 188802, Control_c, 0, 64, 127
1, 189027, Note_on_c, 0, 77, 0
1, 189027, Note_on_c, 0, 75, 58
1, 189332, Note_on_c, 0, 75, 0
1, 189332, Note_on_c, 0, 74, 53
1, 189332, Note_on_c, 0, 67, 0
1, 189335, Note_on_c, 0, 63, 34
1, 189347, Control_c, 0, 64, 0
1, 189422, Control_c, 0, 64, 127
1, 189636, Note_on_c, 0, 74, 0
1, 189636, Note_on_c, 0, 72, 53
1, 189941, Note_on_c, 0, 72, 0
1, 189941, Note_on_c, 0, 72, 62
1, 189941, Note_on_c, 0, 63, 0
1, 189944, Note_on_c, 0, 58, 0
1, 189944, Note_on_c, 0, 62, 35
1, 189944, Note_on_c, 0, 58, 37
1, 189954, Control_c, 0, 64, 0
1, 190049, Control_c, 0, 64, 127
1, 190246, Note_on_c, 0, 72, 0
1, 190246, Note_on_c, 0, 70, 51
1, 190246, Note_on_c, 0, 62, 0
1, 190249, Note_on_c, 0, 65, 35
1, 190550, Note_on_c, 0, 70, 0
1, 190550, Note_on_c, 0, 65, 0
1, 190550, Note_on_c, 0, 68, 39
1, 190779, Note_on_c, 0, 70, 49
1, 190855, Note_on_c, 0, 70, 0
1, 190855, Note_on_c, 0, 70, 50
1, 190855, Note_on_c, 0, 68, 0
1, 190858, Note_on_c, 0, 66, 35
1, 190915, Note_on_c, 0, 70, 0
1, 190915, Note_on_c, 0, 72, 51
1, 190974, Note_on_c, 0, 72, 0
1, 190974, Note_on_c, 0, 70, 51
1, 191031, Note_on_c, 0, 70, 0
1, 191031, Note_on_c, 0, 69, 54
1, 191088, Note_on_c, 0, 69, 0
1, 191088, Note_on_c, 0, 70, 54
1, 191144, Note_on_c, 0, 70, 0
1, 191144, Note_on_c, 0, 77, 63
1, 191144, Note_on_c, 0, 66, 0
1, 191147, Note_on_c, 0, 67, 37
1, 191157, Control_c, 0, 64, 0
1, 191224, Control_c, 0, 64, 127
1, 191449, Note_on_c, 0, 77, 0
1, 191449, Note_on_c, 0, 75, 58
1, 191753, Note_on_c, 0, 75, 0
1, 191753, Note_on_c, 0, 74, 53
1, 191753, Note_on_c, 0, 67, 0
1, 191756, Note_on_c, 0, 63, 34
1, 191769, Control_c, 0, 64, 0
1, 191844, Control_c, 0, 64, 127
1, 192058, Note_on_c, 0, 74, 0
1, 192058, Note_on_c, 0, 72, 53
1, 192362, Note_on_c, 0, 72, 0
1, 192362, Note_on_c, 0, 70, 59
1, 192362, Note_on_c, 0, 63, 0
1, 192365, Note_on_c, 0, 58, 0
1, 192365, Note_on_c, 0, 58, 32
1, 192365, Control_c, 0, 64, 0
1, 192459, Control_c, 0, 64, 127
1, 192664, Note_on_c, 0, 70, 0
1, 192664, Note_on_c, 0, 62, 26
1, 192664, Note_on_c, 0, 65, 35
1, 192970, Note_on_c, 0, 75, 48
1, 192970, Note_on_c, 0, 65, 0
1, 192970, Note_on_c, 0, 62, 0
1, 192973, Note_on_c, 0, 58, 0
1, 192973, Note_on_c, 0, 67, 40
1, 192973, Note_on_c, 0, 63, 32
1, 192983, Control_c, 0, 64, 0
1, 193098, Control_c, 0, 64, 127
1, 193282, Note_on_c, 0, 63, 0
1, 193282, Note_on_c, 0, 67, 0
1, 193282, Note_on_c, 0, 63, 37
1, 193285, Note_on_c, 0, 60, 29
1, 193439, Note_on_c, 0, 75, 0
1, 193439, Note_on_c, 0, 69, 50
1, 193598, Note_on_c, 0, 69, 0
1, 193598, Note_on_c, 0, 70, 56
1, 193598, Note_on_c, 0, 60, 0
1, 193601, Note_on_c, 0, 63, 0
1, 193601, Note_on_c, 0, 58, 32
1, 193601, Note_on_c, 0, 62, 38
1, 193611, Control_c, 0, 64, 0
1, 193699, Control_c, 0, 64, 127
1, 193915, Note_on_c, 0, 70, 0
1, 193915, Note_on_c, 0, 62, 0
1, 193915, Note_on_c, 0, 65, 36
1, 193918, Note_on_c, 0, 62, 28
1, 194246, Note_on_c, 0, 79, 64
1, 194246, Note_on_c, 0, 62, 0
1, 194246, Note_on_c, 0, 65, 0
1, 194249, Note_on_c, 0, 58, 0
1, 194249, Note_on_c, 0, 67, 40
1, 194249, Note_on_c, 0, 63, 32
1, 194261, Control_c, 0, 64, 0
1, 194376, Control_c, 0, 64, 127
1, 194597, Note_on_c, 0, 63, 0
1, 194597, Note_on_c, 0, 67, 0
1, 194597, Note_on_c, 0, 63, 30
1, 194600, Note_on_c, 0, 60, 24
1, 194784, Note_on_c, 0, 79, 0
1, 194784, Note_on_c, 0, 69, 45
1, 195029, Note_on_c, 0, 60, 0
1, 195040, Note_on_c, 0, 69, 0
1, 195040, Note_on_c, 0, 60, 36
1, 195040, Note_on_c, 0, 65, 36
1, 195043, Note_on_c, 0, 63, 36
1, 195043, Note_on_c, 0, 69, 45
1, 195043, Note_on_c, 0, 63, 0
1, 195046, Note_on_c, 0, 58, 27
1, 195046, Note_on_c, 0, 46, 21
1, 195046, Control_c, 0, 64, 0
1, 195598, Control_c, 0, 64, 127
1, 196589, Note_on_c, 0, 69, 0
1, 196589, Note_on_c, 0, 60, 0
1, 196589, Note_on_c, 0, 65, 0
1, 196592, Note_on_c, 0, 63, 0
1, 196592, Note_on_c, 0, 62, 24
1, 196592, Note_on_c, 0, 70, 31
1, 196595, Note_on_c, 0, 65, 24
1, 196621, Control_c, 0, 64, 0
1, 197106, Control_c, 0, 64, 127
1, 197968, Note_on_c, 0, 65, 0
1, 197968, Note_on_c, 0, 70, 0
1, 197968, Note_on_c, 0, 62, 0
1, 197971, Note_on_c, 0, 46, 0
1, 197971, Note_on_c, 0, 58, 0
1, 199347, Control_c, 0, 64, 0
1, 200845, End_track
0, 0, End_of_file
