0, 0, Header, 0, 1, 384
1, 0, Start_track
1, 0, Tempo, 512820
1, 0, Title_t, "Klaviersonate KV 545 2. Satz"
1, 0, Program_c, 0, 0
1, 748, Note_on_c, 0, 71, 50
1, 748, Program_c, 0, 0
1, 748, Note_on_c, 0, 55, 40
1, 751, Program_c, 0, 0
1, 854, Control_c, 0, 64, 127
1, 953, Note_on_c, 0, 55, 0
1, 953, Note_on_c, 0, 62, 22
1, 1157, Note_on_c, 0, 62, 0
1, 1157, Note_on_c, 0, 59, 25
1, 1362, Note_on_c, 0, 59, 0
1, 1362, Note_on_c, 0, 62, 24
1, 1566, Note_on_c, 0, 62, 0
1, 1566, Note_on_c, 0, 55, 40
1, 1771, Note_on_c, 0, 55, 0
1, 1771, Note_on_c, 0, 62, 29
1, 1975, Note_on_c, 0, 62, 0
1, 1975, Note_on_c, 0, 59, 35
1, 2180, Note_on_c, 0, 59, 0
1, 2180, Note_on_c, 0, 62, 30
1, 2384, Note_on_c, 0, 71, 0
1, 2384, Note_on_c, 0, 74, 50
1, 2384, Note_on_c, 0, 62, 0
1, 2387, Note_on_c, 0, 57, 40
1, 2387, Control_c, 0, 64, 0
1, 2491, Control_c, 0, 64, 127
1, 2589, Note_on_c, 0, 74, 0
1, 2589, Note_on_c, 0, 72, 46
1, 2589, Note_on_c, 0, 57, 0
1, 2592, Note_on_c, 0, 62, 32
1, 2793, Note_on_c, 0, 72, 0
1, 2793, Note_on_c, 0, 71, 46
1, 2793, Note_on_c, 0, 62, 0
1, 2796, Note_on_c, 0, 60, 40
1, 2998, Note_on_c, 0, 71, 0
1, 2998, Note_on_c, 0, 72, 48
1, 2998, Note_on_c, 0, 60, 0
1, 3001, Note_on_c, 0, 62, 35
1, 3227, Note_on_c, 0, 72, 0
1, 3227, Note_on_c, 0, 74, 54
1, 3227, Note_on_c, 0, 62, 0
1, 3230, Note_on_c, 0, 55, 43
1, 3230, Control_c, 0, 64, 0
1, 3333, Control_c, 0, 64, 127
1, 3430, Note_on_c, 0, 55, 0
1, 3430, Note_on_c, 0, 62, 28
1, 3632, Note_on_c, 0, 62, 0
1, 3632, Note_on_c, 0, 59, 32
1, 3835, Note_on_c, 0, 74, 0
1, 3835, Note_on_c, 0, 71, 47
1, 3835, Note_on_c, 0, 59, 0
1, 3838, Note_on_c, 0, 62, 28
1, 4047, Note_on_c, 0, 71, 0
1, 4047, Note_on_c, 0, 67, 47
1, 4047, Note_on_c, 0, 62, 0
1, 4050, Note_on_c, 0, 55, 40
1, 4250, Note_on_c, 0, 55, 0
1, 4250, Note_on_c, 0, 62, 29
1, 4452, Note_on_c, 0, 62, 0
1, 4452, Note_on_c, 0, 59, 39
1, 4655, Note_on_c, 0, 59, 0
1, 4655, Note_on_c, 0, 62, 36
1, 4858, Note_on_c, 0, 67, 0
1, 4858, Note_on_c, 0, 62, 0
1, 4858, Note_on_c, 0, 55, 48
1, 4873, Control_c, 0, 64, 0
1, 4978, Control_c, 0, 64, 127
1, 5060, Note_on_c, 0, 55, 0
1, 5060, Note_on_c, 0, 62, 38
1, 5263, Note_on_c, 0, 62, 0
1, 5263, Note_on_c, 0, 59, 48
1, 5466, Note_on_c, 0, 59, 0
1, 5466, Note_on_c, 0, 62, 45
1, 5688, Note_on_c, 0, 79, 67
1, 5688, Note_on_c, 0, 62, 0
1, 5688, Note_on_c, 0, 55, 53
1, 5691, Control_c, 0, 64, 0
1, 5793, Control_c, 0, 64, 127
1, 5891, Note_on_c, 0, 55, 0
1, 5891, Note_on_c, 0, 64, 37
1, 6094, Note_on_c, 0, 64, 0
1, 6094, Note_on_c, 0, 60, 47
1, 6296, Note_on_c, 0, 60, 0
1, 6296, Note_on_c, 0, 64, 41
1, 6499, Note_on_c, 0, 64, 0
1, 6499, Note_on_c, 0, 55, 44
1, 6702, Note_on_c, 0, 55, 0
1, 6702, Note_on_c, 0, 64, 34
1, 6916, Note_on_c, 0, 79, 0
1, 6916, Note_on_c, 0, 81, 62
1, 6916, Note_on_c, 0, 64, 0
1, 6919, Note_on_c, 0, 60, 39
1, 7118, Note_on_c, 0, 81, 0
1, 7118, Note_on_c, 0, 79, 55
1, 7118, Note_on_c, 0, 60, 0
1, 7121, Note_on_c, 0, 64, 34
1, 7321, Note_on_c, 0, 79, 0
1, 7321, Note_on_c, 0, 78, 57
1, 7321, Note_on_c, 0, 64, 0
1, 7324, Note_on_c, 0, 55, 40
1, 7324, Control_c, 0, 64, 0
1, 7427, Control_c, 0, 64, 127
1, 7524, Note_on_c, 0, 78, 0
1, 7524, Note_on_c, 0, 76, 46
1, 7524, Note_on_c, 0, 55, 0
1, 7527, Note_on_c, 0, 61, 26
1, 7726, Note_on_c, 0, 76, 0
1, 7726, Note_on_c, 0, 74, 51
1, 7726, Note_on_c, 0, 61, 0
1, 7729, Note_on_c, 0, 58, 34
1, 7929, Note_on_c, 0, 74, 0
1, 7929, Note_on_c, 0, 73, 46
1, 7929, Note_on_c, 0, 58, 0
1, 7932, Note_on_c, 0, 61, 27
1, 8145, Note_on_c, 0, 73, 0
1, 8145, Note_on_c, 0, 74, 53
1, 8145, Note_on_c, 0, 61, 0
1, 8148, Note_on_c, 0, 55, 40
1, 8148, Control_c, 0, 64, 0
1, 8252, Control_c, 0, 64, 127
1, 8348, Note_on_c, 0, 55, 0
1, 8348, Note_on_c, 0, 62, 26
1, 8551, Note_on_c, 0, 62, 0
1, 8551, Note_on_c, 0, 59, 31
1, 8753, Note_on_c, 0, 74, 0
1, 8753, Note_on_c, 0, 71, 47
1, 8753, Note_on_c, 0, 59, 0
1, 8756, Note_on_c, 0, 62, 27
1, 8965, Note_on_c, 0, 71, 0
1, 8965, Note_on_c, 0, 67, 45
1, 8965, Note_on_c, 0, 62, 0
1, 8968, Note_on_c, 0, 55, 40
1, 9168, Note_on_c, 0, 55, 0
1, 9168, Note_on_c, 0, 62, 26
1, 9371, Note_on_c, 0, 62, 0
1, 9371, Note_on_c, 0, 59, 30
1, 9573, Note_on_c, 0, 59, 0
1, 9573, Note_on_c, 0, 62, 27
1, 9776, Note_on_c, 0, 67, 0
1, 9776, Note_on_c, 0, 62, 0
1, 9776, Note_on_c, 0, 55, 41
1, 9791, Control_c, 0, 64, 0
1, 9895, Control_c, 0, 64, 127
1, 9977, Note_on_c, 0, 55, 0
1, 9977, Note_on_c, 0, 62, 25
1, 10178, Note_on_c, 0, 62, 0
1, 10178, Note_on_c, 0, 59, 30
1, 10378, Note_on_c, 0, 59, 0
1, 10378, Note_on_c, 0, 62, 25
1, 10579, Note_on_c, 0, 72, 50
1, 10579, Note_on_c, 0, 62, 0
1, 10579, Note_on_c, 0, 57, 40
1, 10661, Control_c, 0, 64, 0
1, 10784, Note_on_c, 0, 57, 0
1, 10784, Note_on_c, 0, 62, 27
1, 10784, Control_c, 0, 64, 127
1, 10988, Note_on_c, 0, 62, 0
1, 10988, Note_on_c, 0, 60, 32
1, 11189, Note_on_c, 0, 72, 0
1, 11189, Note_on_c, 0, 69, 47
1, 11189, Note_on_c, 0, 60, 0
1, 11192, Note_on_c, 0, 62, 27
1, 11390, Note_on_c, 0, 69, 0
1, 11390, Note_on_c, 0, 66, 52
1, 11390, Note_on_c, 0, 62, 0
1, 11393, Note_on_c, 0, 57, 40
1, 11426, Control_c, 0, 64, 0
1, 11585, Note_on_c, 0, 66, 0
1, 11585, Note_on_c, 0, 57, 0
1, 11585, Note_on_c, 0, 62, 30
1, 11781, Note_on_c, 0, 69, 47
1, 11781, Note_on_c, 0, 62, 0
1, 11781, Note_on_c, 0, 60, 33
1, 11977, Note_on_c, 0, 69, 0
1, 11977, Note_on_c, 0, 60, 0
1, 11977, Note_on_c, 0, 62, 28
1, 12172, Note_on_c, 0, 71, 51
1, 12172, Note_on_c, 0, 62, 0
1, 12172, Note_on_c, 0, 57, 44
1, 12371, Note_on_c, 0, 71, 0
1, 12371, Note_on_c, 0, 57, 0
1, 12371, Note_on_c, 0, 62, 33
1, 12574, Note_on_c, 0, 72, 52
1, 12574, Note_on_c, 0, 62, 0
1, 12574, Note_on_c, 0, 60, 40
1, 12776, Note_on_c, 0, 72, 0
1, 12776, Note_on_c, 0, 60, 0
1, 12776, Note_on_c, 0, 62, 33
1, 12995, Note_on_c, 0, 74, 57
1, 12995, Note_on_c, 0, 62, 0
1, 12995, Note_on_c, 0, 55, 46
1, 12998, Control_c, 0, 64, 0
1, 13101, Control_c, 0, 64, 127
1, 13197, Note_on_c, 0, 55, 0
1, 13197, Note_on_c, 0, 62, 33
1, 13400, Note_on_c, 0, 62, 0
1, 13400, Note_on_c, 0, 59, 40
1, 13603, Note_on_c, 0, 74, 0
1, 13603, Note_on_c, 0, 71, 61
1, 13603, Note_on_c, 0, 59, 0
1, 13606, Note_on_c, 0, 62, 37
1, 13805, Note_on_c, 0, 71, 0
1, 13805, Note_on_c, 0, 79, 65
1, 13805, Note_on_c, 0, 62, 0
1, 13808, Note_on_c, 0, 52, 46
1, 14004, Note_on_c, 0, 52, 0
1, 14004, Note_on_c, 0, 59, 38
1, 14203, Note_on_c, 0, 59, 0
1, 14203, Note_on_c, 0, 55, 42
1, 14402, Note_on_c, 0, 55, 0
1, 14402, Note_on_c, 0, 59, 38
1, 14601, Note_on_c, 0, 79, 0
1, 14601, Note_on_c, 0, 59, 0
1, 14601, Note_on_c, 0, 47, 53
1, 14616, Control_c, 0, 64, 0
1, 14719, Control_c, 0, 64, 127
1, 14801, Note_on_c, 0, 47, 0
1, 14801, Note_on_c, 0, 55, 44
1, 15003, Note_on_c, 0, 55, 0
1, 15003, Note_on_c, 0, 50, 48
1, 15206, Note_on_c, 0, 50, 0
1, 15206, Note_on_c, 0, 55, 39
1, 15429, Note_on_c, 0, 81, 68
1, 15429, Note_on_c, 0, 55, 0
1, 15429, Note_on_c, 0, 48, 49
1, 15432, Note_on_c, 0, 52, 58
1, 15432, Control_c, 0, 64, 0
1, 15629, Note_on_c, 0, 79, 59
1, 15649, Note_on_c, 0, 81, 0
1, 15830, Note_on_c, 0, 78, 64
1, 15850, Note_on_c, 0, 79, 0
1, 16031, Note_on_c, 0, 79, 58
1, 16051, Note_on_c, 0, 78, 0
1, 16232, Note_on_c, 0, 79, 0
1, 16232, Note_on_c, 0, 78, 64
1, 16232, Note_on_c, 0, 52, 0
1, 16235, Note_on_c, 0, 55, 34
1, 16433, Note_on_c, 0, 76, 54
1, 16453, Note_on_c, 0, 78, 0
1, 16633, Note_on_c, 0, 75, 59
1, 16654, Note_on_c, 0, 76, 0
1, 16834, Note_on_c, 0, 76, 53
1, 16854, Note_on_c, 0, 75, 0
1, 17035, Note_on_c, 0, 76, 0
1, 17035, Note_on_c, 0, 74, 62
1, 17035, Note_on_c, 0, 48, 0
1, 17038, Note_on_c, 0, 52, 34
1, 17236, Note_on_c, 0, 72, 53
1, 17256, Note_on_c, 0, 74, 0
1, 17437, Note_on_c, 0, 71, 56
1, 17457, Note_on_c, 0, 72, 0
1, 17638, Note_on_c, 0, 72, 53
1, 17659, Note_on_c, 0, 71, 0
1, 17852, Note_on_c, 0, 72, 0
1, 17852, Note_on_c, 0, 71, 59
1, 17852, Note_on_c, 0, 52, 0
1, 17855, Note_on_c, 0, 55, 0
1, 17855, Note_on_c, 0, 50, 36
1, 17855, Note_on_c, 0, 55, 36
1, 17943, Control_c, 0, 64, 127
1, 18460, Note_on_c, 0, 71, 0
1, 18460, Note_on_c, 0, 72, 50
1, 18561, Note_on_c, 0, 72, 0
1, 18561, Note_on_c, 0, 71, 50
1, 18662, Note_on_c, 0, 71, 0
1, 18662, Note_on_c, 0, 69, 57
1, 18662, Note_on_c, 0, 55, 0
1, 18665, Note_on_c, 0, 54, 28
1, 18668, Control_c, 0, 64, 0
1, 19083, Note_on_c, 0, 69, 0
1, 19083, Note_on_c, 0, 74, 54
1, 19503, Note_on_c, 0, 73, 52
1, 19503, Note_on_c, 0, 54, 0
1, 19503, Note_on_c, 0, 50, 0
1, 19521, Note_on_c, 0, 74, 0
1, 19924, Note_on_c, 0, 72, 50
1, 19941, Note_on_c, 0, 73, 0
1, 20344, Note_on_c, 0, 72, 0
1, 20344, Note_on_c, 0, 71, 50
1, 20344, Note_on_c, 0, 55, 40
1, 20450, Control_c, 0, 64, 127
1, 20549, Note_on_c, 0, 55, 0
1, 20549, Note_on_c, 0, 62, 25
1, 20753, Note_on_c, 0, 62, 0
1, 20753, Note_on_c, 0, 59, 31
1, 20958, Note_on_c, 0, 59, 0
1, 20958, Note_on_c, 0, 62, 26
1, 21162, Note_on_c, 0, 62, 0
1, 21162, Note_on_c, 0, 55, 40
1, 21361, Note_on_c, 0, 71, 0
1, 21361, Note_on_c, 0, 67, 46
1, 21361, Note_on_c, 0, 55, 0
1, 21364, Note_on_c, 0, 62, 27
1, 21548, Note_on_c, 0, 71, 48
1, 21560, Note_on_c, 0, 67, 0
1, 21560, Note_on_c, 0, 62, 0
1, 21560, Note_on_c, 0, 59, 31
1, 21746, Note_on_c, 0, 71, 0
1, 21746, Note_on_c, 0, 74, 46
1, 21757, Note_on_c, 0, 59, 0
1, 21757, Note_on_c, 0, 62, 26
1, 21945, Note_on_c, 0, 74, 0
1, 21956, Note_on_c, 0, 72, 54
1, 21956, Note_on_c, 0, 62, 0
1, 21956, Note_on_c, 0, 57, 40
1, 21961, Control_c, 0, 64, 0
1, 22061, Control_c, 0, 64, 127
1, 22155, Note_on_c, 0, 72, 0
1, 22155, Note_on_c, 0, 69, 46
1, 22155, Note_on_c, 0, 57, 0
1, 22158, Note_on_c, 0, 62, 31
1, 22355, Note_on_c, 0, 69, 0
1, 22355, Note_on_c, 0, 72, 54
1, 22355, Note_on_c, 0, 62, 0
1, 22358, Note_on_c, 0, 60, 36
1, 22554, Note_on_c, 0, 72, 0
1, 22554, Note_on_c, 0, 76, 51
1, 22554, Note_on_c, 0, 60, 0
1, 22557, Note_on_c, 0, 62, 30
1, 22783, Note_on_c, 0, 76, 0
1, 22783, Note_on_c, 0, 74, 58
1, 22783, Note_on_c, 0, 62, 0
1, 22786, Note_on_c, 0, 55, 40
1, 22786, Control_c, 0, 64, 0
1, 22889, Control_c, 0, 64, 127
1, 22984, Note_on_c, 0, 55, 0
1, 22984, Note_on_c, 0, 62, 28
1, 23185, Note_on_c, 0, 62, 0
1, 23185, Note_on_c, 0, 59, 32
1, 23386, Note_on_c, 0, 74, 0
1, 23386, Note_on_c, 0, 71, 47
1, 23386, Note_on_c, 0, 59, 0
1, 23389, Note_on_c, 0, 62, 28
1, 23590, Note_on_c, 0, 71, 0
1, 23590, Note_on_c, 0, 67, 47
1, 23590, Note_on_c, 0, 62, 0
1, 23593, Note_on_c, 0, 55, 40
1, 23647, Control_c, 0, 64, 0
1, 23688, Note_on_c, 0, 67, 0
1, 23786, Note_on_c, 0, 67, 46
1, 23786, Note_on_c, 0, 55, 0
1, 23786, Note_on_c, 0, 62, 33
1, 23883, Note_on_c, 0, 67, 0
1, 23981, Note_on_c, 0, 69, 47
1, 23981, Note_on_c, 0, 62, 0
1, 23981, Note_on_c, 0, 59, 37
1, 24079, Note_on_c, 0, 69, 0
1, 24177, Note_on_c, 0, 71, 48
1, 24177, Note_on_c, 0, 59, 0
1, 24177, Note_on_c, 0, 62, 30
1, 24275, Note_on_c, 0, 71, 0
1, 24372, Note_on_c, 0, 72, 49
1, 24372, Note_on_c, 0, 62, 0
1, 24372, Note_on_c, 0, 55, 47
1, 24469, Note_on_c, 0, 72, 0
1, 24566, Note_on_c, 0, 74, 50
1, 24566, Note_on_c, 0, 55, 0
1, 24566, Note_on_c, 0, 62, 38
1, 24663, Note_on_c, 0, 74, 0
1, 24761, Note_on_c, 0, 76, 51
1, 24761, Note_on_c, 0, 62, 0
1, 24761, Note_on_c, 0, 59, 44
1, 24860, Note_on_c, 0, 76, 0
1, 24960, Note_on_c, 0, 78, 53
1, 24960, Note_on_c, 0, 59, 0
1, 24960, Note_on_c, 0, 62, 42
1, 25067, Note_on_c, 0, 78, 0
1, 25174, Note_on_c, 0, 79, 57
1, 25174, Note_on_c, 0, 62, 0
1, 25174, Note_on_c, 0, 55, 43
1, 25177, Control_c, 0, 64, 0
1, 25277, Control_c, 0, 64, 127
1, 25373, Note_on_c, 0, 79, 0
1, 25373, Note_on_c, 0, 78, 50
1, 25373, Note_on_c, 0, 55, 0
1, 25376, Note_on_c, 0, 64, 34
1, 25572, Note_on_c, 0, 78, 0
1, 25572, Note_on_c, 0, 79, 56
1, 25572, Note_on_c, 0, 64, 0
1, 25575, Note_on_c, 0, 60, 38
1, 25771, Note_on_c, 0, 79, 0
1, 25771, Note_on_c, 0, 78, 52
1, 25771, Note_on_c, 0, 60, 0
1, 25774, Note_on_c, 0, 64, 34
1, 25970, Note_on_c, 0, 78, 0
1, 25970, Note_on_c, 0, 81, 59
1, 25970, Note_on_c, 0, 64, 0
1, 25973, Note_on_c, 0, 55, 44
1, 26169, Note_on_c, 0, 81, 0
1, 26169, Note_on_c, 0, 79, 57
1, 26169, Note_on_c, 0, 55, 0
1, 26172, Note_on_c, 0, 64, 34
1, 26368, Note_on_c, 0, 79, 0
1, 26368, Note_on_c, 0, 78, 54
1, 26368, Note_on_c, 0, 64, 0
1, 26371, Note_on_c, 0, 60, 39
1, 26567, Note_on_c, 0, 78, 0
1, 26567, Note_on_c, 0, 79, 49
1, 26567, Note_on_c, 0, 60, 0
1, 26570, Note_on_c, 0, 64, 34
1, 26766, Note_on_c, 0, 79, 0
1, 26766, Note_on_c, 0, 78, 52
1, 26766, Note_on_c, 0, 64, 0
1, 26769, Note_on_c, 0, 55, 40
1, 26769, Control_c, 0, 64, 0
1, 26873, Control_c, 0, 64, 127
1, 26969, Note_on_c, 0, 78, 0
1, 26969, Note_on_c, 0, 76, 50
1, 26969, Note_on_c, 0, 55, 0
1, 26972, Note_on_c, 0, 61, 26
1, 27171, Note_on_c, 0, 76, 0
1, 27171, Note_on_c, 0, 74, 48
1, 27171, Note_on_c, 0, 61, 0
1, 27174, Note_on_c, 0, 58, 34
1, 27374, Note_on_c, 0, 74, 0
1, 27374, Note_on_c, 0, 73, 46
1, 27374, Note_on_c, 0, 58, 0
1, 27377, Note_on_c, 0, 61, 27
1, 27590, Note_on_c, 0, 73, 0
1, 27590, Note_on_c, 0, 74, 50
1, 27590, Note_on_c, 0, 61, 0
1, 27593, Note_on_c, 0, 55, 40
1, 27593, Control_c, 0, 64, 0
1, 27695, Control_c, 0, 64, 127
1, 27789, Note_on_c, 0, 74, 0
1, 27789, Note_on_c, 0, 71, 43
1, 27789, Note_on_c, 0, 55, 0
1, 27792, Note_on_c, 0, 62, 24
1, 27988, Note_on_c, 0, 71, 0
1, 27988, Note_on_c, 0, 74, 47
1, 27988, Note_on_c, 0, 62, 0
1, 27991, Note_on_c, 0, 59, 31
1, 28187, Note_on_c, 0, 74, 0
1, 28187, Note_on_c, 0, 71, 43
1, 28187, Note_on_c, 0, 59, 0
1, 28190, Note_on_c, 0, 62, 27
1, 28400, Note_on_c, 0, 71, 0
1, 28400, Note_on_c, 0, 67, 47
1, 28400, Note_on_c, 0, 62, 0
1, 28403, Note_on_c, 0, 55, 40
1, 28602, Note_on_c, 0, 55, 0
1, 28602, Note_on_c, 0, 62, 26
1, 28805, Note_on_c, 0, 62, 0
1, 28805, Note_on_c, 0, 59, 33
1, 29008, Note_on_c, 0, 59, 0
1, 29008, Note_on_c, 0, 62, 27
1, 29210, Note_on_c, 0, 67, 0
1, 29210, Note_on_c, 0, 62, 0
1, 29210, Note_on_c, 0, 55, 41
1, 29225, Control_c, 0, 64, 0
1, 29330, Control_c, 0, 64, 127
1, 29413, Note_on_c, 0, 55, 0
1, 29413, Note_on_c, 0, 62, 30
1, 29615, Note_on_c, 0, 62, 0
1, 29615, Note_on_c, 0, 59, 33
1, 29818, Note_on_c, 0, 59, 0
1, 29818, Note_on_c, 0, 62, 29
1, 30021, Note_on_c, 0, 72, 50
1, 30021, Note_on_c, 0, 62, 0
1, 30021, Note_on_c, 0, 57, 40
1, 30101, Control_c, 0, 64, 0
1, 30222, Note_on_c, 0, 72, 0
1, 30222, Note_on_c, 0, 69, 46
1, 30222, Note_on_c, 0, 57, 0
1, 30225, Note_on_c, 0, 62, 27
1, 30225, Control_c, 0, 64, 127
1, 30422, Note_on_c, 0, 69, 0
1, 30422, Note_on_c, 0, 72, 46
1, 30422, Note_on_c, 0, 62, 0
1, 30425, Note_on_c, 0, 60, 32
1, 30623, Note_on_c, 0, 72, 0
1, 30623, Note_on_c, 0, 69, 43
1, 30623, Note_on_c, 0, 60, 0
1, 30626, Note_on_c, 0, 62, 27
1, 30823, Note_on_c, 0, 69, 0
1, 30823, Note_on_c, 0, 66, 50
1, 30823, Note_on_c, 0, 62, 0
1, 30826, Note_on_c, 0, 57, 40
1, 30859, Control_c, 0, 64, 0
1, 30922, Note_on_c, 0, 66, 0
1, 31022, Note_on_c, 0, 69, 46
1, 31022, Note_on_c, 0, 57, 0
1, 31022, Note_on_c, 0, 62, 30
1, 31221, Note_on_c, 0, 69, 0
1, 31221, Note_on_c, 0, 68, 49
1, 31221, Note_on_c, 0, 62, 0
1, 31224, Note_on_c, 0, 60, 33
1, 31420, Note_on_c, 0, 68, 0
1, 31420, Note_on_c, 0, 69, 51
1, 31420, Note_on_c, 0, 60, 0
1, 31423, Note_on_c, 0, 62, 28
1, 31618, Note_on_c, 0, 69, 0
1, 31618, Note_on_c, 0, 70, 54
1, 31618, Note_on_c, 0, 62, 0
1, 31621, Note_on_c, 0, 57, 40
1, 31816, Note_on_c, 0, 70, 0
1, 31816, Note_on_c, 0, 71, 51
1, 31816, Note_on_c, 0, 57, 0
1, 31819, Note_on_c, 0, 62, 31
1, 32015, Note_on_c, 0, 71, 0
1, 32015, Note_on_c, 0, 72, 54
1, 32015, Note_on_c, 0, 62, 0
1, 32018, Note_on_c, 0, 60, 38
1, 32214, Note_on_c, 0, 72, 0
1, 32214, Note_on_c, 0, 73, 56
1, 32214, Note_on_c, 0, 60, 0
1, 32217, Note_on_c, 0, 62, 33
1, 32406, Note_on_c, 0, 73, 0
1, 32406, Note_on_c, 0, 74, 59
1, 32406, Note_on_c, 0, 62, 0
1, 32409, Note_on_c, 0, 55, 40
1, 32409, Control_c, 0, 64, 0
1, 32508, Control_c, 0, 64, 127
1, 32600, Note_on_c, 0, 74, 0
1, 32600, Note_on_c, 0, 71, 51
1, 32600, Note_on_c, 0, 55, 0
1, 32603, Note_on_c, 0, 62, 38
1, 32799, Note_on_c, 0, 71, 0
1, 32799, Note_on_c, 0, 74, 54
1, 32799, Note_on_c, 0, 62, 0
1, 32802, Note_on_c, 0, 59, 42
1, 32998, Note_on_c, 0, 74, 0
1, 32998, Note_on_c, 0, 71, 51
1, 32998, Note_on_c, 0, 59, 0
1, 33001, Note_on_c, 0, 62, 35
1, 33197, Note_on_c, 0, 71, 0
1, 33197, Note_on_c, 0, 79, 63
1, 33197, Note_on_c, 0, 62, 0
1, 33200, Note_on_c, 0, 52, 51
1, 33396, Note_on_c, 0, 52, 0
1, 33396, Note_on_c, 0, 59, 46
1, 33595, Note_on_c, 0, 59, 0
1, 33595, Note_on_c, 0, 55, 50
1, 33794, Note_on_c, 0, 55, 0
1, 33794, Note_on_c, 0, 59, 47
1, 33993, Note_on_c, 0, 79, 0
1, 33993, Note_on_c, 0, 59, 0
1, 33993, Note_on_c, 0, 47, 54
1, 34009, Control_c, 0, 64, 0
1, 34115, Control_c, 0, 64, 127
1, 34200, Note_on_c, 0, 83, 67
1, 34200, Note_on_c, 0, 47, 0
1, 34200, Note_on_c, 0, 55, 42
1, 34402, Note_on_c, 0, 83, 0
1, 34402, Note_on_c, 0, 78, 62
1, 34402, Note_on_c, 0, 55, 0
1, 34405, Note_on_c, 0, 50, 47
1, 34605, Note_on_c, 0, 78, 0
1, 34605, Note_on_c, 0, 79, 56
1, 34605, Note_on_c, 0, 50, 0
1, 34608, Note_on_c, 0, 55, 34
1, 34828, Note_on_c, 0, 79, 0
1, 34828, Note_on_c, 0, 75, 58
1, 34828, Note_on_c, 0, 55, 0
1, 34831, Note_on_c, 0, 48, 40
1, 34831, Control_c, 0, 64, 0
1, 35030, Note_on_c, 0, 75, 0
1, 35030, Note_on_c, 0, 76, 49
1, 35030, Note_on_c, 0, 48, 0
1, 35033, Note_on_c, 0, 57, 26
1, 35033, Control_c, 0, 64, 127
1, 35233, Note_on_c, 0, 76, 0
1, 35233, Note_on_c, 0, 72, 53
1, 35233, Note_on_c, 0, 57, 0
1, 35236, Note_on_c, 0, 52, 33
1, 35435, Note_on_c, 0, 72, 0
1, 35435, Note_on_c, 0, 69, 46
1, 35435, Note_on_c, 0, 52, 0
1, 35438, Note_on_c, 0, 57, 29
1, 35663, Note_on_c, 0, 69, 0
1, 35663, Note_on_c, 0, 67, 53
1, 35663, Note_on_c, 0, 57, 0
1, 35666, Note_on_c, 0, 50, 39
1, 35680, Control_c, 0, 64, 0
1, 35770, Control_c, 0, 64, 127
1, 35867, Note_on_c, 0, 50, 0
1, 35867, Note_on_c, 0, 59, 27
1, 36072, Note_on_c, 0, 59, 0
1, 36072, Note_on_c, 0, 55, 33
1, 36276, Note_on_c, 0, 67, 0
1, 36276, Note_on_c, 0, 67, 44
1, 36276, Note_on_c, 0, 55, 0
1, 36279, Note_on_c, 0, 59, 28
1, 36481, Note_on_c, 0, 67, 0
1, 36481, Note_on_c, 0, 66, 47
1, 36481, Note_on_c, 0, 71, 55
1, 36484, Note_on_c, 0, 59, 0
1, 36484, Note_on_c, 0, 50, 39
1, 36500, Control_c, 0, 64, 0
1, 36622, Control_c, 0, 64, 127
1, 36693, Note_on_c, 0, 71, 0
1, 36693, Note_on_c, 0, 69, 44
1, 36693, Note_on_c, 0, 50, 0
1, 36696, Note_on_c, 0, 60, 27
1, 36905, Note_on_c, 0, 69, 0
1, 36905, Note_on_c, 0, 67, 49
1, 36905, Note_on_c, 0, 60, 0
1, 36908, Note_on_c, 0, 57, 32
1, 37117, Note_on_c, 0, 67, 0
1, 37117, Note_on_c, 0, 69, 42
1, 37117, Note_on_c, 0, 57, 0
1, 37120, Note_on_c, 0, 60, 27
1, 37373, Note_on_c, 0, 69, 0
1, 37373, Note_on_c, 0, 66, 0
1, 37373, Note_on_c, 0, 66, 42
1, 37376, Note_on_c, 0, 69, 53
1, 37376, Note_on_c, 0, 60, 0
1, 37376, Note_on_c, 0, 55, 27
1, 37379, Note_on_c, 0, 60, 36
1, 37379, Control_c, 0, 64, 0
1, 37752, Control_c, 0, 64, 127
1, 38351, Note_on_c, 0, 69, 0
1, 38351, Note_on_c, 0, 66, 0
1, 38351, Note_on_c, 0, 67, 48
1, 38354, Note_on_c, 0, 60, 0
1, 38354, Note_on_c, 0, 59, 28
1, 38459, Control_c, 0, 64, 0
1, 39113, Note_on_c, 0, 67, 0
1, 39113, Note_on_c, 0, 59, 0
1, 39113, Note_on_c, 0, 55, 0
1, 39876, Note_on_c, 0, 71, 50
1, 39876, Note_on_c, 0, 55, 40
1, 39982, Control_c, 0, 64, 127
1, 40080, Note_on_c, 0, 55, 0
1, 40080, Note_on_c, 0, 62, 22
1, 40285, Note_on_c, 0, 62, 0
1, 40285, Note_on_c, 0, 59, 25
1, 40489, Note_on_c, 0, 59, 0
1, 40489, Note_on_c, 0, 62, 24
1, 40694, Note_on_c, 0, 62, 0
1, 40694, Note_on_c, 0, 55, 40
1, 40898, Note_on_c, 0, 55, 0
1, 40898, Note_on_c, 0, 62, 29
1, 41103, Note_on_c, 0, 62, 0
1, 41103, Note_on_c, 0, 59, 35
1, 41307, Note_on_c, 0, 59, 0
1, 41307, Note_on_c, 0, 62, 30
1, 41512, Note_on_c, 0, 71, 0
1, 41512, Note_on_c, 0, 74, 50
1, 41512, Note_on_c, 0, 62, 0
1, 41515, Note_on_c, 0, 57, 40
1, 41515, Control_c, 0, 64, 0
1, 41619, Control_c, 0, 64, 127
1, 41716, Note_on_c, 0, 74, 0
1, 41716, Note_on_c, 0, 72, 46
1, 41716, Note_on_c, 0, 57, 0
1, 41719, Note_on_c, 0, 62, 32
1, 41921, Note_on_c, 0, 72, 0
1, 41921, Note_on_c, 0, 71, 46
1, 41921, Note_on_c, 0, 62, 0
1, 41924, Note_on_c, 0, 60, 40
1, 42125, Note_on_c, 0, 71, 0
1, 42125, Note_on_c, 0, 72, 48
1, 42125, Note_on_c, 0, 60, 0
1, 42128, Note_on_c, 0, 62, 35
1, 42355, Note_on_c, 0, 72, 0
1, 42355, Note_on_c, 0, 74, 54
1, 42355, Note_on_c, 0, 62, 0
1, 42358, Note_on_c, 0, 55, 43
1, 42358, Control_c, 0, 64, 0
1, 42461, Control_c, 0, 64, 127
1, 42557, Note_on_c, 0, 55, 0
1, 42557, Note_on_c, 0, 62, 28
1, 42760, Note_on_c, 0, 62, 0
1, 42760, Note_on_c, 0, 59, 32
1, 42963, Note_on_c, 0, 74, 0
1, 42963, Note_on_c, 0, 71, 47
1, 42963, Note_on_c, 0, 59, 0
1, 42966, Note_on_c, 0, 62, 28
1, 43175, Note_on_c, 0, 71, 0
1, 43175, Note_on_c, 0, 67, 47
1, 43175, Note_on_c, 0, 62, 0
1, 43178, Note_on_c, 0, 55, 40
1, 43377, Note_on_c, 0, 55, 0
1, 43377, Note_on_c, 0, 62, 29
1, 43580, Note_on_c, 0, 62, 0
1, 43580, Note_on_c, 0, 59, 39
1, 43783, Note_on_c, 0, 59, 0
1, 43783, Note_on_c, 0, 62, 36
1, 43985, Note_on_c, 0, 67, 0
1, 43985, Note_on_c, 0, 62, 0
1, 43985, Note_on_c, 0, 55, 48
1, 44000, Control_c, 0, 64, 0
1, 44103, Control_c, 0, 64, 127
1, 44184, Note_on_c, 0, 55, 0
1, 44184, Note_on_c, 0, 62, 38
1, 44383, Note_on_c, 0, 62, 0
1, 44383, Note_on_c, 0, 59, 48
1, 44582, Note_on_c, 0, 59, 0
1, 44582, Note_on_c, 0, 62, 45
1, 44805, Note_on_c, 0, 79, 67
1, 44805, Note_on_c, 0, 62, 0
1, 44805, Note_on_c, 0, 55, 53
1, 44808, Control_c, 0, 64, 0
1, 44910, Control_c, 0, 64, 127
1, 45008, Note_on_c, 0, 55, 0
1, 45008, Note_on_c, 0, 64, 37
1, 45210, Note_on_c, 0, 64, 0
1, 45210, Note_on_c, 0, 60, 47
1, 45413, Note_on_c, 0, 60, 0
1, 45413, Note_on_c, 0, 64, 41
1, 45616, Note_on_c, 0, 64, 0
1, 45616, Note_on_c, 0, 55, 44
1, 45818, Note_on_c, 0, 55, 0
1, 45818, Note_on_c, 0, 64, 34
1, 46033, Note_on_c, 0, 79, 0
1, 46033, Note_on_c, 0, 81, 62
1, 46033, Note_on_c, 0, 64, 0
1, 46036, Note_on_c, 0, 60, 39
1, 46235, Note_on_c, 0, 81, 0
1, 46235, Note_on_c, 0, 79, 55
1, 46235, Note_on_c, 0, 60, 0
1, 46238, Note_on_c, 0, 64, 34
1, 46438, Note_on_c, 0, 79, 0
1, 46438, Note_on_c, 0, 78, 57
1, 46438, Note_on_c, 0, 64, 0
1, 46441, Note_on_c, 0, 55, 40
1, 46441, Control_c, 0, 64, 0
1, 46544, Control_c, 0, 64, 127
1, 46640, Note_on_c, 0, 78, 0
1, 46640, Note_on_c, 0, 76, 46
1, 46640, Note_on_c, 0, 55, 0
1, 46643, Note_on_c, 0, 61, 26
1, 46843, Note_on_c, 0, 76, 0
1, 46843, Note_on_c, 0, 74, 51
1, 46843, Note_on_c, 0, 61, 0
1, 46846, Note_on_c, 0, 58, 34
1, 47046, Note_on_c, 0, 74, 0
1, 47046, Note_on_c, 0, 73, 46
1, 47046, Note_on_c, 0, 58, 0
1, 47049, Note_on_c, 0, 61, 27
1, 47262, Note_on_c, 0, 73, 0
1, 47262, Note_on_c, 0, 74, 53
1, 47262, Note_on_c, 0, 61, 0
1, 47265, Note_on_c, 0, 55, 40
1, 47265, Control_c, 0, 64, 0
1, 47368, Control_c, 0, 64, 127
1, 47465, Note_on_c, 0, 55, 0
1, 47465, Note_on_c, 0, 62, 26
1, 47667, Note_on_c, 0, 62, 0
1, 47667, Note_on_c, 0, 59, 31
1, 47870, Note_on_c, 0, 74, 0
1, 47870, Note_on_c, 0, 71, 47
1, 47870, Note_on_c, 0, 59, 0
1, 47873, Note_on_c, 0, 62, 27
1, 48082, Note_on_c, 0, 71, 0
1, 48082, Note_on_c, 0, 67, 45
1, 48082, Note_on_c, 0, 62, 0
1, 48085, Note_on_c, 0, 55, 40
1, 48285, Note_on_c, 0, 55, 0
1, 48285, Note_on_c, 0, 62, 26
1, 48487, Note_on_c, 0, 62, 0
1, 48487, Note_on_c, 0, 59, 30
1, 48690, Note_on_c, 0, 59, 0
1, 48690, Note_on_c, 0, 62, 27
1, 48893, Note_on_c, 0, 67, 0
1, 48893, Note_on_c, 0, 62, 0
1, 48893, Note_on_c, 0, 55, 41
1, 48908, Control_c, 0, 64, 0
1, 49010, Control_c, 0, 64, 127
1, 49092, Note_on_c, 0, 55, 0
1, 49092, Note_on_c, 0, 62, 25
1, 49291, Note_on_c, 0, 62, 0
1, 49291, Note_on_c, 0, 59, 30
1, 49490, Note_on_c, 0, 59, 0
1, 49490, Note_on_c, 0, 62, 25
1, 49689, Note_on_c, 0, 72, 50
1, 49689, Note_on_c, 0, 62, 0
1, 49689, Note_on_c, 0, 57, 40
1, 49771, Control_c, 0, 64, 0
1, 49893, Note_on_c, 0, 57, 0
1, 49893, Note_on_c, 0, 62, 27
1, 49893, Control_c, 0, 64, 127
1, 50098, Note_on_c, 0, 62, 0
1, 50098, Note_on_c, 0, 60, 32
1, 50299, Note_on_c, 0, 72, 0
1, 50299, Note_on_c, 0, 69, 47
1, 50299, Note_on_c, 0, 60, 0
1, 50302, Note_on_c, 0, 62, 27
1, 50499, Note_on_c, 0, 69, 0
1, 50499, Note_on_c, 0, 66, 52
1, 50499, Note_on_c, 0, 62, 0
1, 50502, Note_on_c, 0, 57, 40
1, 50535, Control_c, 0, 64, 0
1, 50695, Note_on_c, 0, 66, 0
1, 50695, Note_on_c, 0, 57, 0
1, 50695, Note_on_c, 0, 62, 30
1, 50891, Note_on_c, 0, 69, 47
1, 50891, Note_on_c, 0, 62, 0
1, 50891, Note_on_c, 0, 60, 33
1, 51086, Note_on_c, 0, 69, 0
1, 51086, Note_on_c, 0, 60, 0
1, 51086, Note_on_c, 0, 62, 28
1, 51282, Note_on_c, 0, 71, 51
1, 51282, Note_on_c, 0, 62, 0
1, 51282, Note_on_c, 0, 57, 44
1, 51481, Note_on_c, 0, 71, 0
1, 51481, Note_on_c, 0, 57, 0
1, 51481, Note_on_c, 0, 62, 33
1, 51683, Note_on_c, 0, 72, 52
1, 51683, Note_on_c, 0, 62, 0
1, 51683, Note_on_c, 0, 60, 40
1, 51886, Note_on_c, 0, 72, 0
1, 51886, Note_on_c, 0, 60, 0
1, 51886, Note_on_c, 0, 62, 33
1, 52100, Note_on_c, 0, 74, 57
1, 52100, Note_on_c, 0, 62, 0
1, 52100, Note_on_c, 0, 55, 46
1, 52103, Control_c, 0, 64, 0
1, 52207, Control_c, 0, 64, 127
1, 52303, Note_on_c, 0, 55, 0
1, 52303, Note_on_c, 0, 62, 33
1, 52506, Note_on_c, 0, 62, 0
1, 52506, Note_on_c, 0, 59, 40
1, 52708, Note_on_c, 0, 74, 0
1, 52708, Note_on_c, 0, 71, 61
1, 52708, Note_on_c, 0, 59, 0
1, 52711, Note_on_c, 0, 62, 37
1, 52911, Note_on_c, 0, 71, 0
1, 52911, Note_on_c, 0, 79, 65
1, 52911, Note_on_c, 0, 62, 0
1, 52914, Note_on_c, 0, 52, 46
1, 53110, Note_on_c, 0, 52, 0
1, 53110, Note_on_c, 0, 59, 38
1, 53309, Note_on_c, 0, 59, 0
1, 53309, Note_on_c, 0, 55, 42
1, 53508, Note_on_c, 0, 55, 0
1, 53508, Note_on_c, 0, 59, 38
1, 53707, Note_on_c, 0, 79, 0
1, 53707, Note_on_c, 0, 59, 0
1, 53707, Note_on_c, 0, 47, 53
1, 53722, Control_c, 0, 64, 0
1, 53825, Control_c, 0, 64, 127
1, 53906, Note_on_c, 0, 47, 0
1, 53906, Note_on_c, 0, 55, 44
1, 54109, Note_on_c, 0, 55, 0
1, 54109, Note_on_c, 0, 50, 48
1, 54311, Note_on_c, 0, 50, 0
1, 54311, Note_on_c, 0, 55, 39
1, 54534, Note_on_c, 0, 81, 68
1, 54534, Note_on_c, 0, 55, 0
1, 54534, Note_on_c, 0, 48, 49
1, 54537, Note_on_c, 0, 52, 58
1, 54537, Control_c, 0, 64, 0
1, 54735, Note_on_c, 0, 79, 59
1, 54755, Note_on_c, 0, 81, 0
1, 54936, Note_on_c, 0, 78, 64
1, 54956, Note_on_c, 0, 79, 0
1, 55137, Note_on_c, 0, 79, 58
1, 55157, Note_on_c, 0, 78, 0
1, 55337, Note_on_c, 0, 79, 0
1, 55337, Note_on_c, 0, 78, 64
1, 55337, Note_on_c, 0, 52, 0
1, 55340, Note_on_c, 0, 55, 34
1, 55538, Note_on_c, 0, 76, 54
1, 55558, Note_on_c, 0, 78, 0
1, 55739, Note_on_c, 0, 75, 59
1, 55759, Note_on_c, 0, 76, 0
1, 55940, Note_on_c, 0, 76, 53
1, 55960, Note_on_c, 0, 75, 0
1, 56141, Note_on_c, 0, 76, 0
1, 56141, Note_on_c, 0, 74, 62
1, 56141, Note_on_c, 0, 48, 0
1, 56144, Note_on_c, 0, 52, 34
1, 56341, Note_on_c, 0, 72, 53
1, 56362, Note_on_c, 0, 74, 0
1, 56542, Note_on_c, 0, 71, 56
1, 56562, Note_on_c, 0, 72, 0
1, 56743, Note_on_c, 0, 72, 53
1, 56765, Note_on_c, 0, 71, 0
1, 56957, Note_on_c, 0, 72, 0
1, 56957, Note_on_c, 0, 71, 59
1, 56957, Note_on_c, 0, 52, 0
1, 56960, Note_on_c, 0, 55, 0
1, 56960, Note_on_c, 0, 50, 36
1, 56960, Note_on_c, 0, 55, 36
1, 57049, Control_c, 0, 64, 127
1, 57565, Note_on_c, 0, 71, 0
1, 57565, Note_on_c, 0, 72, 50
1, 57667, Note_on_c, 0, 72, 0
1, 57667, Note_on_c, 0, 71, 50
1, 57768, Note_on_c, 0, 71, 0
1, 57768, Note_on_c, 0, 69, 57
1, 57768, Note_on_c, 0, 55, 0
1, 57771, Note_on_c, 0, 54, 28
1, 57771, Control_c, 0, 64, 0
1, 58188, Note_on_c, 0, 69, 0
1, 58188, Note_on_c, 0, 74, 54
1, 58609, Note_on_c, 0, 73, 52
1, 58609, Note_on_c, 0, 54, 0
1, 58609, Note_on_c, 0, 50, 0
1, 58626, Note_on_c, 0, 74, 0
1, 59029, Note_on_c, 0, 72, 50
1, 59047, Note_on_c, 0, 73, 0
1, 59450, Note_on_c, 0, 72, 0
1, 59450, Note_on_c, 0, 71, 50
1, 59450, Note_on_c, 0, 55, 40
1, 59555, Control_c, 0, 64, 127
1, 59654, Note_on_c, 0, 55, 0
1, 59654, Note_on_c, 0, 62, 25
1, 59859, Note_on_c, 0, 62, 0
1, 59859, Note_on_c, 0, 59, 31
1, 60063, Note_on_c, 0, 59, 0
1, 60063, Note_on_c, 0, 62, 26
1, 60268, Note_on_c, 0, 62, 0
1, 60268, Note_on_c, 0, 55, 40
1, 60467, Note_on_c, 0, 71, 0
1, 60467, Note_on_c, 0, 67, 46
1, 60467, Note_on_c, 0, 55, 0
1, 60470, Note_on_c, 0, 62, 27
1, 60654, Note_on_c, 0, 71, 48
1, 60666, Note_on_c, 0, 67, 0
1, 60666, Note_on_c, 0, 62, 0
1, 60666, Note_on_c, 0, 59, 31
1, 60851, Note_on_c, 0, 71, 0
1, 60851, Note_on_c, 0, 74, 46
1, 60863, Note_on_c, 0, 59, 0
1, 60863, Note_on_c, 0, 62, 26
1, 61050, Note_on_c, 0, 74, 0
1, 61062, Note_on_c, 0, 72, 54
1, 61062, Note_on_c, 0, 62, 0
1, 61062, Note_on_c, 0, 57, 40
1, 61067, Control_c, 0, 64, 0
1, 61166, Control_c, 0, 64, 127
1, 61261, Note_on_c, 0, 72, 0
1, 61261, Note_on_c, 0, 69, 46
1, 61261, Note_on_c, 0, 57, 0
1, 61264, Note_on_c, 0, 62, 31
1, 61460, Note_on_c, 0, 69, 0
1, 61460, Note_on_c, 0, 72, 54
1, 61460, Note_on_c, 0, 62, 0
1, 61463, Note_on_c, 0, 60, 36
1, 61659, Note_on_c, 0, 72, 0
1, 61659, Note_on_c, 0, 76, 51
1, 61659, Note_on_c, 0, 60, 0
1, 61662, Note_on_c, 0, 62, 30
1, 61889, Note_on_c, 0, 76, 0
1, 61889, Note_on_c, 0, 74, 58
1, 61889, Note_on_c, 0, 62, 0
1, 61892, Note_on_c, 0, 55, 40
1, 61892, Control_c, 0, 64, 0
1, 61994, Control_c, 0, 64, 127
1, 62089, Note_on_c, 0, 55, 0
1, 62089, Note_on_c, 0, 62, 28
1, 62290, Note_on_c, 0, 62, 0
1, 62290, Note_on_c, 0, 59, 32
1, 62491, Note_on_c, 0, 74, 0
1, 62491, Note_on_c, 0, 71, 47
1, 62491, Note_on_c, 0, 59, 0
1, 62494, Note_on_c, 0, 62, 28
1, 62696, Note_on_c, 0, 71, 0
1, 62696, Note_on_c, 0, 67, 47
1, 62696, Note_on_c, 0, 62, 0
1, 62699, Note_on_c, 0, 55, 40
1, 62753, Control_c, 0, 64, 0
1, 62793, Note_on_c, 0, 67, 0
1, 62891, Note_on_c, 0, 67, 46
1, 62891, Note_on_c, 0, 55, 0
1, 62891, Note_on_c, 0, 62, 33
1, 62989, Note_on_c, 0, 67, 0
1, 63087, Note_on_c, 0, 69, 47
1, 63087, Note_on_c, 0, 62, 0
1, 63087, Note_on_c, 0, 59, 37
1, 63184, Note_on_c, 0, 69, 0
1, 63281, Note_on_c, 0, 71, 48
1, 63281, Note_on_c, 0, 59, 0
1, 63281, Note_on_c, 0, 62, 30
1, 63378, Note_on_c, 0, 71, 0
1, 63475, Note_on_c, 0, 72, 49
1, 63475, Note_on_c, 0, 62, 0
1, 63475, Note_on_c, 0, 55, 47
1, 63572, Note_on_c, 0, 72, 0
1, 63671, Note_on_c, 0, 74, 50
1, 63671, Note_on_c, 0, 55, 0
1, 63671, Note_on_c, 0, 62, 38
1, 63770, Note_on_c, 0, 74, 0
1, 63869, Note_on_c, 0, 76, 51
1, 63869, Note_on_c, 0, 62, 0
1, 63869, Note_on_c, 0, 59, 44
1, 63970, Note_on_c, 0, 76, 0
1, 64069, Note_on_c, 0, 78, 53
1, 64069, Note_on_c, 0, 59, 0
1, 64069, Note_on_c, 0, 62, 42
1, 64177, Note_on_c, 0, 78, 0
1, 64284, Note_on_c, 0, 79, 57
1, 64284, Note_on_c, 0, 62, 0
1, 64284, Note_on_c, 0, 55, 43
1, 64287, Control_c, 0, 64, 0
1, 64386, Control_c, 0, 64, 127
1, 64483, Note_on_c, 0, 79, 0
1, 64483, Note_on_c, 0, 78, 50
1, 64483, Note_on_c, 0, 55, 0
1, 64486, Note_on_c, 0, 64, 34
1, 64682, Note_on_c, 0, 78, 0
1, 64682, Note_on_c, 0, 79, 56
1, 64682, Note_on_c, 0, 64, 0
1, 64685, Note_on_c, 0, 60, 38
1, 64881, Note_on_c, 0, 79, 0
1, 64881, Note_on_c, 0, 78, 52
1, 64881, Note_on_c, 0, 60, 0
1, 64884, Note_on_c, 0, 64, 34
1, 65080, Note_on_c, 0, 78, 0
1, 65080, Note_on_c, 0, 81, 59
1, 65080, Note_on_c, 0, 64, 0
1, 65083, Note_on_c, 0, 55, 44
1, 65279, Note_on_c, 0, 81, 0
1, 65279, Note_on_c, 0, 79, 57
1, 65279, Note_on_c, 0, 55, 0
1, 65282, Note_on_c, 0, 64, 34
1, 65478, Note_on_c, 0, 79, 0
1, 65478, Note_on_c, 0, 78, 54
1, 65478, Note_on_c, 0, 64, 0
1, 65481, Note_on_c, 0, 60, 39
1, 65677, Note_on_c, 0, 78, 0
1, 65677, Note_on_c, 0, 79, 49
1, 65677, Note_on_c, 0, 60, 0
1, 65680, Note_on_c, 0, 64, 34
1, 65876, Note_on_c, 0, 79, 0
1, 65876, Note_on_c, 0, 78, 52
1, 65876, Note_on_c, 0, 64, 0
1, 65879, Note_on_c, 0, 55, 40
1, 65879, Control_c, 0, 64, 0
1, 65982, Control_c, 0, 64, 127
1, 66079, Note_on_c, 0, 78, 0
1, 66079, Note_on_c, 0, 76, 50
1, 66079, Note_on_c, 0, 55, 0
1, 66082, Note_on_c, 0, 61, 26
1, 66281, Note_on_c, 0, 76, 0
1, 66281, Note_on_c, 0, 74, 48
1, 66281, Note_on_c, 0, 61, 0
1, 66284, Note_on_c, 0, 58, 34
1, 66484, Note_on_c, 0, 74, 0
1, 66484, Note_on_c, 0, 73, 46
1, 66484, Note_on_c, 0, 58, 0
1, 66487, Note_on_c, 0, 61, 27
1, 66700, Note_on_c, 0, 73, 0
1, 66700, Note_on_c, 0, 74, 50
1, 66700, Note_on_c, 0, 61, 0
1, 66703, Note_on_c, 0, 55, 40
1, 66703, Control_c, 0, 64, 0
1, 66805, Control_c, 0, 64, 127
1, 66899, Note_on_c, 0, 74, 0
1, 66899, Note_on_c, 0, 71, 43
1, 66899, Note_on_c, 0, 55, 0
1, 66902, Note_on_c, 0, 62, 24
1, 67098, Note_on_c, 0, 71, 0
1, 67098, Note_on_c, 0, 74, 47
1, 67098, Note_on_c, 0, 62, 0
1, 67101, Note_on_c, 0, 59, 31
1, 67297, Note_on_c, 0, 74, 0
1, 67297, Note_on_c, 0, 71, 43
1, 67297, Note_on_c, 0, 59, 0
1, 67300, Note_on_c, 0, 62, 27
1, 67510, Note_on_c, 0, 71, 0
1, 67510, Note_on_c, 0, 67, 47
1, 67510, Note_on_c, 0, 62, 0
1, 67513, Note_on_c, 0, 55, 40
1, 67712, Note_on_c, 0, 55, 0
1, 67712, Note_on_c, 0, 62, 26
1, 67915, Note_on_c, 0, 62, 0
1, 67915, Note_on_c, 0, 59, 33
1, 68117, Note_on_c, 0, 59, 0
1, 68117, Note_on_c, 0, 62, 27
1, 68320, Note_on_c, 0, 67, 0
1, 68320, Note_on_c, 0, 62, 0
1, 68320, Note_on_c, 0, 55, 41
1, 68335, Control_c, 0, 64, 0
1, 68440, Control_c, 0, 64, 127
1, 68523, Note_on_c, 0, 55, 0
1, 68523, Note_on_c, 0, 62, 30
1, 68725, Note_on_c, 0, 62, 0
1, 68725, Note_on_c, 0, 59, 33
1, 68928, Note_on_c, 0, 59, 0
1, 68928, Note_on_c, 0, 62, 29
1, 69131, Note_on_c, 0, 72, 50
1, 69131, Note_on_c, 0, 62, 0
1, 69131, Note_on_c, 0, 57, 40
1, 69211, Control_c, 0, 64, 0
1, 69331, Note_on_c, 0, 72, 0
1, 69331, Note_on_c, 0, 69, 46
1, 69331, Note_on_c, 0, 57, 0
1, 69334, Note_on_c, 0, 62, 27
1, 69334, Control_c, 0, 64, 127
1, 69532, Note_on_c, 0, 69, 0
1, 69532, Note_on_c, 0, 72, 46
1, 69532, Note_on_c, 0, 62, 0
1, 69535, Note_on_c, 0, 60, 32
1, 69733, Note_on_c, 0, 72, 0
1, 69733, Note_on_c, 0, 69, 43
1, 69733, Note_on_c, 0, 60, 0
1, 69736, Note_on_c, 0, 62, 27
1, 69933, Note_on_c, 0, 69, 0
1, 69933, Note_on_c, 0, 66, 50
1, 69933, Note_on_c, 0, 62, 0
1, 69936, Note_on_c, 0, 57, 40
1, 69969, Control_c, 0, 64, 0
1, 70032, Note_on_c, 0, 66, 0
1, 70132, Note_on_c, 0, 69, 46
1, 70132, Note_on_c, 0, 57, 0
1, 70132, Note_on_c, 0, 62, 30
1, 70331, Note_on_c, 0, 69, 0
1, 70331, Note_on_c, 0, 68, 49
1, 70331, Note_on_c, 0, 62, 0
1, 70334, Note_on_c, 0, 60, 33
1, 70530, Note_on_c, 0, 68, 0
1, 70530, Note_on_c, 0, 69, 51
1, 70530, Note_on_c, 0, 60, 0
1, 70533, Note_on_c, 0, 62, 28
1, 70728, Note_on_c, 0, 69, 0
1, 70728, Note_on_c, 0, 70, 54
1, 70728, Note_on_c, 0, 62, 0
1, 70731, Note_on_c, 0, 57, 40
1, 70926, Note_on_c, 0, 70, 0
1, 70926, Note_on_c, 0, 71, 51
1, 70926, Note_on_c, 0, 57, 0
1, 70929, Note_on_c, 0, 62, 31
1, 71125, Note_on_c, 0, 71, 0
1, 71125, Note_on_c, 0, 72, 54
1, 71125, Note_on_c, 0, 62, 0
1, 71128, Note_on_c, 0, 60, 38
1, 71324, Note_on_c, 0, 72, 0
1, 71324, Note_on_c, 0, 73, 56
1, 71324, Note_on_c, 0, 60, 0
1, 71327, Note_on_c, 0, 62, 33
1, 71516, Note_on_c, 0, 73, 0
1, 71516, Note_on_c, 0, 74, 59
1, 71516, Note_on_c, 0, 62, 0
1, 71519, Note_on_c, 0, 55, 40
1, 71519, Control_c, 0, 64, 0
1, 71618, Control_c, 0, 64, 127
1, 71710, Note_on_c, 0, 74, 0
1, 71710, Note_on_c, 0, 71, 51
1, 71710, Note_on_c, 0, 55, 0
1, 71713, Note_on_c, 0, 62, 38
1, 71909, Note_on_c, 0, 71, 0
1, 71909, Note_on_c, 0, 74, 54
1, 71909, Note_on_c, 0, 62, 0
1, 71912, Note_on_c, 0, 59, 42
1, 72108, Note_on_c, 0, 74, 0
1, 72108, Note_on_c, 0, 71, 51
1, 72108, Note_on_c, 0, 59, 0
1, 72111, Note_on_c, 0, 62, 35
1, 72307, Note_on_c, 0, 71, 0
1, 72307, Note_on_c, 0, 79, 63
1, 72307, Note_on_c, 0, 62, 0
1, 72310, Note_on_c, 0, 52, 51
1, 72506, Note_on_c, 0, 52, 0
1, 72506, Note_on_c, 0, 59, 46
1, 72705, Note_on_c, 0, 59, 0
1, 72705, Note_on_c, 0, 55, 50
1, 72904, Note_on_c, 0, 55, 0
1, 72904, Note_on_c, 0, 59, 47
1, 73103, Note_on_c, 0, 79, 0
1, 73103, Note_on_c, 0, 59, 0
1, 73103, Note_on_c, 0, 47, 54
1, 73119, Control_c, 0, 64, 0
1, 73225, Control_c, 0, 64, 127
1, 73309, Note_on_c, 0, 83, 67
1, 73309, Note_on_c, 0, 47, 0
1, 73309, Note_on_c, 0, 55, 42
1, 73512, Note_on_c, 0, 83, 0
1, 73512, Note_on_c, 0, 78, 62
1, 73512, Note_on_c, 0, 55, 0
1, 73515, Note_on_c, 0, 50, 47
1, 73715, Note_on_c, 0, 78, 0
1, 73715, Note_on_c, 0, 79, 56
1, 73715, Note_on_c, 0, 50, 0
1, 73718, Note_on_c, 0, 55, 34
1, 73937, Note_on_c, 0, 79, 0
1, 73937, Note_on_c, 0, 75, 58
1, 73937, Note_on_c, 0, 55, 0
1, 73940, Note_on_c, 0, 48, 40
1, 73940, Control_c, 0, 64, 0
1, 74140, Note_on_c, 0, 75, 0
1, 74140, Note_on_c, 0, 76, 49
1, 74140, Note_on_c, 0, 48, 0
1, 74143, Note_on_c, 0, 57, 26
1, 74143, Control_c, 0, 64, 127
1, 74343, Note_on_c, 0, 76, 0
1, 74343, Note_on_c, 0, 72, 53
1, 74343, Note_on_c, 0, 57, 0
1, 74346, Note_on_c, 0, 52, 33
1, 74545, Note_on_c, 0, 72, 0
1, 74545, Note_on_c, 0, 69, 46
1, 74545, Note_on_c, 0, 52, 0
1, 74548, Note_on_c, 0, 57, 29
1, 74773, Note_on_c, 0, 69, 0
1, 74773, Note_on_c, 0, 67, 53
1, 74773, Note_on_c, 0, 57, 0
1, 74776, Note_on_c, 0, 50, 39
1, 74790, Control_c, 0, 64, 0
1, 74880, Control_c, 0, 64, 127
1, 74977, Note_on_c, 0, 50, 0
1, 74977, Note_on_c, 0, 59, 27
1, 75182, Note_on_c, 0, 59, 0
1, 75182, Note_on_c, 0, 55, 33
1, 75386, Note_on_c, 0, 67, 0
1, 75386, Note_on_c, 0, 67, 44
1, 75386, Note_on_c, 0, 55, 0
1, 75389, Note_on_c, 0, 59, 28
1, 75591, Note_on_c, 0, 67, 0
1, 75591, Note_on_c, 0, 66, 47
1, 75591, Note_on_c, 0, 71, 55
1, 75594, Note_on_c, 0, 59, 0
1, 75594, Note_on_c, 0, 50, 39
1, 75610, Control_c, 0, 64, 0
1, 75732, Control_c, 0, 64, 127
1, 75803, Note_on_c, 0, 71, 0
1, 75803, Note_on_c, 0, 69, 44
1, 75803, Note_on_c, 0, 50, 0
1, 75806, Note_on_c, 0, 60, 27
1, 76015, Note_on_c, 0, 69, 0
1, 76015, Note_on_c, 0, 67, 49
1, 76015, Note_on_c, 0, 60, 0
1, 76018, Note_on_c, 0, 57, 32
1, 76227, Note_on_c, 0, 67, 0
1, 76227, Note_on_c, 0, 69, 42
1, 76227, Note_on_c, 0, 57, 0
1, 76230, Note_on_c, 0, 60, 27
1, 76483, Note_on_c, 0, 69, 0
1, 76483, Note_on_c, 0, 66, 0
1, 76483, Note_on_c, 0, 66, 42
1, 76486, Note_on_c, 0, 69, 53
1, 76486, Note_on_c, 0, 60, 0
1, 76486, Note_on_c, 0, 55, 27
1, 76489, Note_on_c, 0, 60, 36
1, 76489, Control_c, 0, 64, 0
1, 76862, Control_c, 0, 64, 127
1, 77461, Note_on_c, 0, 69, 0
1, 77461, Note_on_c, 0, 66, 0
1, 77461, Note_on_c, 0, 67, 48
1, 77464, Note_on_c, 0, 60, 0
1, 77464, Note_on_c, 0, 59, 28
1, 77569, Control_c, 0, 64, 0
1, 78223, Note_on_c, 0, 67, 0
1, 78223, Note_on_c, 0, 59, 0
1, 78223, Note_on_c, 0, 55, 0
1, 78986, Note_on_c, 0, 74, 50
1, 78986, Note_on_c, 0, 62, 40
1, 79087, Control_c, 0, 64, 127
1, 79181, Note_on_c, 0, 62, 0
1, 79181, Note_on_c, 0, 69, 25
1, 79377, Note_on_c, 0, 69, 0
1, 79377, Note_on_c, 0, 66, 31
1, 79573, Note_on_c, 0, 66, 0
1, 79573, Note_on_c, 0, 69, 26
1, 79768, Note_on_c, 0, 69, 0
1, 79768, Note_on_c, 0, 62, 40
1, 79967, Note_on_c, 0, 74, 0
1, 79967, Note_on_c, 0, 73, 46
1, 79967, Note_on_c, 0, 62, 0
1, 79970, Note_on_c, 0, 69, 27
1, 80166, Note_on_c, 0, 73, 0
1, 80166, Note_on_c, 0, 76, 49
1, 80166, Note_on_c, 0, 69, 0
1, 80169, Note_on_c, 0, 66, 31
1, 80363, Note_on_c, 0, 76, 0
1, 80363, Note_on_c, 0, 74, 46
1, 80363, Note_on_c, 0, 66, 0
1, 80372, Note_on_c, 0, 69, 26
1, 80563, Note_on_c, 0, 74, 0
1, 80563, Note_on_c, 0, 79, 52
1, 80563, Note_on_c, 0, 62, 40
1, 80571, Note_on_c, 0, 69, 0
1, 80576, Control_c, 0, 64, 0
1, 80667, Control_c, 0, 64, 127
1, 80762, Note_on_c, 0, 79, 0
1, 80762, Note_on_c, 0, 78, 46
1, 80762, Note_on_c, 0, 62, 0
1, 80765, Note_on_c, 0, 69, 26
1, 80961, Note_on_c, 0, 78, 0
1, 80961, Note_on_c, 0, 76, 49
1, 80961, Note_on_c, 0, 69, 0
1, 80964, Note_on_c, 0, 66, 32
1, 81160, Note_on_c, 0, 76, 0
1, 81160, Note_on_c, 0, 74, 46
1, 81160, Note_on_c, 0, 66, 0
1, 81163, Note_on_c, 0, 69, 27
1, 81374, Note_on_c, 0, 74, 0
1, 81374, Note_on_c, 0, 73, 50
1, 81374, Note_on_c, 0, 69, 0
1, 81377, Note_on_c, 0, 64, 40
1, 81377, Control_c, 0, 64, 0
1, 81477, Control_c, 0, 64, 127
1, 81569, Note_on_c, 0, 64, 0
1, 81569, Note_on_c, 0, 69, 28
1, 81765, Note_on_c, 0, 69, 0
1, 81765, Note_on_c, 0, 67, 32
1, 81961, Note_on_c, 0, 73, 0
1, 81961, Note_on_c, 0, 74, 49
1, 81961, Note_on_c, 0, 67, 0
1, 81964, Note_on_c, 0, 69, 28
1, 82165, Note_on_c, 0, 74, 0
1, 82165, Note_on_c, 0, 76, 53
1, 82165, Note_on_c, 0, 69, 0
1, 82168, Note_on_c, 0, 64, 36
1, 82188, Control_c, 0, 64, 0
1, 82326, Control_c, 0, 64, 127
1, 82361, Note_on_c, 0, 64, 0
1, 82361, Note_on_c, 0, 69, 28
1, 82556, Note_on_c, 0, 69, 0
1, 82556, Note_on_c, 0, 67, 37
1, 82752, Note_on_c, 0, 67, 0
1, 82752, Note_on_c, 0, 69, 29
1, 82947, Note_on_c, 0, 76, 0
1, 82947, Note_on_c, 0, 69, 0
1, 82947, Note_on_c, 0, 64, 41
1, 82970, Control_c, 0, 64, 0
1, 83130, Control_c, 0, 64, 127
1, 83141, Note_on_c, 0, 64, 0
1, 83141, Note_on_c, 0, 69, 36
1, 83338, Note_on_c, 0, 69, 0
1, 83338, Note_on_c, 0, 67, 38
1, 83536, Note_on_c, 0, 67, 0
1, 83536, Note_on_c, 0, 69, 29
1, 83750, Note_on_c, 0, 76, 54
1, 83750, Note_on_c, 0, 69, 0
1, 83750, Note_on_c, 0, 61, 42
1, 83753, Control_c, 0, 64, 0
1, 83852, Control_c, 0, 64, 127
1, 83948, Note_on_c, 0, 61, 0
1, 83948, Note_on_c, 0, 69, 26
1, 84143, Note_on_c, 0, 69, 0
1, 84143, Note_on_c, 0, 67, 32
1, 84339, Note_on_c, 0, 67, 0
1, 84339, Note_on_c, 0, 69, 27
1, 84535, Note_on_c, 0, 69, 0
1, 84535, Note_on_c, 0, 61, 42
1, 84730, Note_on_c, 0, 76, 0
1, 84730, Note_on_c, 0, 75, 46
1, 84730, Note_on_c, 0, 61, 0
1, 84733, Note_on_c, 0, 69, 28
1, 84926, Note_on_c, 0, 75, 0
1, 84926, Note_on_c, 0, 78, 50
1, 84926, Note_on_c, 0, 69, 0
1, 84929, Note_on_c, 0, 67, 32
1, 85123, Note_on_c, 0, 78, 0
1, 85123, Note_on_c, 0, 76, 46
1, 85123, Note_on_c, 0, 67, 0
1, 85131, Note_on_c, 0, 69, 27
1, 85322, Note_on_c, 0, 76, 0
1, 85322, Note_on_c, 0, 81, 54
1, 85322, Note_on_c, 0, 61, 42
1, 85330, Note_on_c, 0, 69, 0
1, 85335, Control_c, 0, 64, 0
1, 85425, Control_c, 0, 64, 127
1, 85518, Note_on_c, 0, 81, 0
1, 85518, Note_on_c, 0, 79, 46
1, 85518, Note_on_c, 0, 61, 0
1, 85521, Note_on_c, 0, 69, 27
1, 85713, Note_on_c, 0, 79, 0
1, 85713, Note_on_c, 0, 78, 49
1, 85713, Note_on_c, 0, 69, 0
1, 85716, Note_on_c, 0, 67, 33
1, 85909, Note_on_c, 0, 78, 0
1, 85909, Note_on_c, 0, 76, 49
1, 85909, Note_on_c, 0, 67, 0
1, 85912, Note_on_c, 0, 69, 28
1, 86123, Note_on_c, 0, 76, 0
1, 86123, Note_on_c, 0, 74, 54
1, 86123, Note_on_c, 0, 69, 0
1, 86126, Note_on_c, 0, 62, 42
1, 86126, Control_c, 0, 64, 0
1, 86228, Control_c, 0, 64, 127
1, 86324, Note_on_c, 0, 62, 0
1, 86324, Note_on_c, 0, 69, 29
1, 86525, Note_on_c, 0, 69, 0
1, 86525, Note_on_c, 0, 66, 33
1, 86720, Note_on_c, 0, 74, 0
1, 86720, Note_on_c, 0, 76, 52
1, 86720, Note_on_c, 0, 66, 0
1, 86723, Note_on_c, 0, 69, 29
1, 86921, Note_on_c, 0, 76, 0
1, 86921, Note_on_c, 0, 78, 57
1, 86921, Note_on_c, 0, 69, 0
1, 86924, Note_on_c, 0, 61, 46
1, 86944, Control_c, 0, 64, 0
1, 87081, Control_c, 0, 64, 127
1, 87115, Note_on_c, 0, 61, 0
1, 87115, Note_on_c, 0, 69, 36
1, 87309, Note_on_c, 0, 69, 0
1, 87309, Note_on_c, 0, 62, 42
1, 87503, Note_on_c, 0, 62, 0
1, 87503, Note_on_c, 0, 69, 38
1, 87697, Note_on_c, 0, 78, 0
1, 87697, Note_on_c, 0, 69, 0
1, 87697, Note_on_c, 0, 59, 46
1, 87719, Control_c, 0, 64, 0
1, 87879, Control_c, 0, 64, 127
1, 87890, Note_on_c, 0, 59, 0
1, 87890, Note_on_c, 0, 67, 44
1, 88087, Note_on_c, 0, 67, 0
1, 88087, Note_on_c, 0, 62, 49
1, 88285, Note_on_c, 0, 62, 0
1, 88285, Note_on_c, 0, 67, 45
1, 88484, Note_on_c, 0, 78, 70
1, 88484, Note_on_c, 0, 67, 0
1, 88484, Note_on_c, 0, 57, 51
1, 88489, Control_c, 0, 64, 0
1, 88585, Control_c, 0, 64, 127
1, 88678, Note_on_c, 0, 57, 0
1, 88678, Note_on_c, 0, 66, 44
1, 88872, Note_on_c, 0, 66, 0
1, 88872, Note_on_c, 0, 62, 47
1, 89066, Note_on_c, 0, 62, 0
1, 89066, Note_on_c, 0, 66, 40
1, 89260, Note_on_c, 0, 66, 0
1, 89260, Note_on_c, 0, 55, 50
1, 89459, Note_on_c, 0, 78, 0
1, 89459, Note_on_c, 0, 76, 57
1, 89459, Note_on_c, 0, 55, 0
1, 89462, Note_on_c, 0, 64, 41
1, 89658, Note_on_c, 0, 76, 0
1, 89658, Note_on_c, 0, 79, 61
1, 89658, Note_on_c, 0, 64, 0
1, 89661, Note_on_c, 0, 61, 49
1, 89855, Note_on_c, 0, 79, 0
1, 89855, Note_on_c, 0, 78, 55
1, 89855, Note_on_c, 0, 61, 0
1, 89858, Note_on_c, 0, 64, 41
1, 90054, Note_on_c, 0, 78, 0
1, 90054, Note_on_c, 0, 83, 65
1, 90054, Note_on_c, 0, 64, 0
1, 90057, Note_on_c, 0, 54, 46
1, 90067, Control_c, 0, 64, 0
1, 90156, Control_c, 0, 64, 127
1, 90248, Note_on_c, 0, 83, 0
1, 90248, Note_on_c, 0, 81, 53
1, 90248, Note_on_c, 0, 54, 0
1, 90251, Note_on_c, 0, 62, 33
1, 90442, Note_on_c, 0, 81, 0
1, 90442, Note_on_c, 0, 79, 59
1, 90442, Note_on_c, 0, 62, 0
1, 90445, Note_on_c, 0, 59, 42
1, 90636, Note_on_c, 0, 79, 0
1, 90636, Note_on_c, 0, 78, 53
1, 90636, Note_on_c, 0, 59, 0
1, 90639, Note_on_c, 0, 62, 34
1, 90842, Note_on_c, 0, 78, 0
1, 90842, Note_on_c, 0, 76, 64
1, 90842, Note_on_c, 0, 62, 0
1, 90845, Note_on_c, 0, 59, 46
1, 90876, Control_c, 0, 64, 0
1, 91017, Control_c, 0, 64, 127
1, 91036, Note_on_c, 0, 59, 0
1, 91036, Note_on_c, 0, 67, 33
1, 91230, Note_on_c, 0, 67, 0
1, 91230, Note_on_c, 0, 64, 41
1, 91424, Note_on_c, 0, 64, 0
1, 91424, Note_on_c, 0, 67, 32
1, 91618, Note_on_c, 0, 67, 0
1, 91618, Note_on_c, 0, 57, 40
1, 91817, Note_on_c, 0, 76, 0
1, 91817, Note_on_c, 0, 75, 55
1, 91817, Note_on_c, 0, 57, 0
1, 91820, Note_on_c, 0, 66, 30
1, 92016, Note_on_c, 0, 75, 0
1, 92016, Note_on_c, 0, 78, 60
1, 92016, Note_on_c, 0, 66, 0
1, 92019, Note_on_c, 0, 63, 40
1, 92213, Note_on_c, 0, 78, 0
1, 92213, Note_on_c, 0, 76, 52
1, 92213, Note_on_c, 0, 63, 0
1, 92216, Note_on_c, 0, 66, 30
1, 92412, Note_on_c, 0, 76, 0
1, 92412, Note_on_c, 0, 81, 62
1, 92412, Note_on_c, 0, 66, 0
1, 92415, Note_on_c, 0, 55, 42
1, 92426, Control_c, 0, 64, 0
1, 92517, Control_c, 0, 64, 127
1, 92612, Note_on_c, 0, 81, 0
1, 92612, Note_on_c, 0, 79, 51
1, 92612, Note_on_c, 0, 55, 0
1, 92615, Note_on_c, 0, 64, 29
1, 92811, Note_on_c, 0, 79, 0
1, 92811, Note_on_c, 0, 78, 59
1, 92811, Note_on_c, 0, 64, 0
1, 92814, Note_on_c, 0, 60, 35
1, 93010, Note_on_c, 0, 78, 0
1, 93010, Note_on_c, 0, 76, 53
1, 93010, Note_on_c, 0, 60, 0
1, 93013, Note_on_c, 0, 64, 30
1, 93224, Note_on_c, 0, 76, 0
1, 93224, Note_on_c, 0, 76, 63
1, 93224, Note_on_c, 0, 64, 0
1, 93227, Note_on_c, 0, 57, 40
1, 93227, Control_c, 0, 64, 0
1, 93426, Note_on_c, 0, 76, 0
1, 93426, Note_on_c, 0, 74, 49
1, 93426, Note_on_c, 0, 57, 0
1, 93429, Note_on_c, 0, 66, 26
1, 93429, Control_c, 0, 64, 127
1, 93629, Note_on_c, 0, 74, 0
1, 93629, Note_on_c, 0, 74, 55
1, 93629, Note_on_c, 0, 66, 0
1, 93632, Note_on_c, 0, 62, 33
1, 93832, Note_on_c, 0, 62, 0
1, 93832, Note_on_c, 0, 66, 29
1, 94046, Note_on_c, 0, 66, 0
1, 94046, Note_on_c, 0, 57, 39
1, 94063, Control_c, 0, 64, 0
1, 94151, Control_c, 0, 64, 127
1, 94237, Note_on_c, 0, 69, 44
1, 94247, Note_on_c, 0, 74, 0
1, 94247, Note_on_c, 0, 57, 0
1, 94255, Note_on_c, 0, 66, 29
1, 94438, Note_on_c, 0, 69, 0
1, 94448, Note_on_c, 0, 74, 46
1, 94448, Note_on_c, 0, 62, 37
1, 94456, Note_on_c, 0, 66, 0
1, 94648, Note_on_c, 0, 74, 0
1, 94648, Note_on_c, 0, 78, 43
1, 94648, Note_on_c, 0, 62, 0
1, 94651, Note_on_c, 0, 66, 29
1, 94849, Note_on_c, 0, 78, 0
1, 94849, Note_on_c, 0, 73, 49
1, 94849, Note_on_c, 0, 78, 58
1, 94852, Note_on_c, 0, 66, 0
1, 94852, Note_on_c, 0, 57, 39
1, 94869, Control_c, 0, 64, 0
1, 94991, Control_c, 0, 64, 127
1, 95061, Note_on_c, 0, 78, 0
1, 95061, Note_on_c, 0, 76, 44
1, 95061, Note_on_c, 0, 57, 0
1, 95064, Note_on_c, 0, 67, 30
1, 95274, Note_on_c, 0, 76, 0
1, 95274, Note_on_c, 0, 74, 53
1, 95274, Note_on_c, 0, 67, 0
1, 95277, Note_on_c, 0, 64, 36
1, 95486, Note_on_c, 0, 74, 0
1, 95486, Note_on_c, 0, 76, 45
1, 95486, Note_on_c, 0, 64, 0
1, 95489, Note_on_c, 0, 67, 29
1, 95742, Note_on_c, 0, 76, 0
1, 95742, Note_on_c, 0, 73, 0
1, 95742, Note_on_c, 0, 73, 51
1, 95745, Note_on_c, 0, 76, 61
1, 95745, Note_on_c, 0, 67, 0
1, 95745, Note_on_c, 0, 62, 34
1, 95748, Note_on_c, 0, 67, 40
1, 95748, Control_c, 0, 64, 0
1, 96121, Control_c, 0, 64, 127
1, 96720, Note_on_c, 0, 76, 0
1, 96720, Note_on_c, 0, 73, 0
1, 96720, Note_on_c, 0, 74, 53
1, 96723, Note_on_c, 0, 67, 0
1, 96723, Note_on_c, 0, 66, 28
1, 96839, Control_c, 0, 64, 0
1, 96912, Note_on_c, 0, 74, 0
1, 96930, Note_on_c, 0, 75, 43
1, 97140, Note_on_c, 0, 76, 48
1, 97161, Note_on_c, 0, 75, 0
1, 97350, Note_on_c, 0, 75, 42
1, 97371, Note_on_c, 0, 76, 0
1, 97561, Note_on_c, 0, 78, 51
1, 97561, Note_on_c, 0, 66, 0
1, 97561, Note_on_c, 0, 62, 0
1, 97582, Note_on_c, 0, 75, 0
1, 97773, Note_on_c, 0, 76, 48
1, 97794, Note_on_c, 0, 78, 0
1, 97985, Note_on_c, 0, 74, 46
1, 98006, Note_on_c, 0, 76, 0
1, 98197, Note_on_c, 0, 72, 44
1, 98221, Note_on_c, 0, 74, 0
1, 98434, Note_on_c, 0, 71, 48
1, 98434, Note_on_c, 0, 55, 35
1, 98454, Note_on_c, 0, 72, 0
1, 98540, Control_c, 0, 64, 127
1, 98639, Note_on_c, 0, 55, 0
1, 98639, Note_on_c, 0, 62, 23
1, 98843, Note_on_c, 0, 62, 0
1, 98843, Note_on_c, 0, 59, 31
1, 99047, Note_on_c, 0, 59, 0
1, 99047, Note_on_c, 0, 62, 23
1, 99252, Note_on_c, 0, 62, 0
1, 99252, Note_on_c, 0, 55, 40
1, 99451, Note_on_c, 0, 71, 0
1, 99451, Note_on_c, 0, 67, 44
1, 99451, Note_on_c, 0, 55, 0
1, 99454, Note_on_c, 0, 62, 26
1, 99638, Note_on_c, 0, 71, 44
1, 99650, Note_on_c, 0, 67, 0
1, 99650, Note_on_c, 0, 62, 0
1, 99650, Note_on_c, 0, 59, 32
1, 99836, Note_on_c, 0, 71, 0
1, 99836, Note_on_c, 0, 74, 44
1, 99847, Note_on_c, 0, 59, 0
1, 99847, Note_on_c, 0, 62, 26
1, 100035, Note_on_c, 0, 74, 0
1, 100046, Note_on_c, 0, 72, 50
1, 100046, Note_on_c, 0, 62, 0
1, 100046, Note_on_c, 0, 57, 40
1, 100051, Control_c, 0, 64, 0
1, 100151, Control_c, 0, 64, 127
1, 100245, Note_on_c, 0, 72, 0
1, 100245, Note_on_c, 0, 69, 44
1, 100245, Note_on_c, 0, 57, 0
1, 100248, Note_on_c, 0, 62, 26
1, 100444, Note_on_c, 0, 69, 0
1, 100444, Note_on_c, 0, 72, 44
1, 100444, Note_on_c, 0, 62, 0
1, 100447, Note_on_c, 0, 60, 32
1, 100643, Note_on_c, 0, 72, 0
1, 100643, Note_on_c, 0, 76, 44
1, 100643, Note_on_c, 0, 60, 0
1, 100646, Note_on_c, 0, 62, 27
1, 100873, Note_on_c, 0, 76, 0
1, 100873, Note_on_c, 0, 74, 50
1, 100873, Note_on_c, 0, 62, 0
1, 100876, Note_on_c, 0, 55, 40
1, 100876, Control_c, 0, 64, 0
1, 100978, Control_c, 0, 64, 127
1, 101074, Note_on_c, 0, 55, 0
1, 101074, Note_on_c, 0, 62, 28
1, 101275, Note_on_c, 0, 62, 0
1, 101275, Note_on_c, 0, 59, 32
1, 101476, Note_on_c, 0, 74, 0
1, 101476, Note_on_c, 0, 71, 47
1, 101476, Note_on_c, 0, 59, 0
1, 101479, Note_on_c, 0, 62, 28
1, 101680, Note_on_c, 0, 71, 0
1, 101680, Note_on_c, 0, 67, 47
1, 101680, Note_on_c, 0, 62, 0
1, 101683, Note_on_c, 0, 55, 40
1, 101737, Control_c, 0, 64, 0
1, 101778, Note_on_c, 0, 67, 0
1, 101876, Note_on_c, 0, 67, 46
1, 101876, Note_on_c, 0, 55, 0
1, 101876, Note_on_c, 0, 62, 29
1, 101973, Note_on_c, 0, 67, 0
1, 102071, Note_on_c, 0, 69, 47
1, 102071, Note_on_c, 0, 62, 0
1, 102071, Note_on_c, 0, 59, 33
1, 102169, Note_on_c, 0, 69, 0
1, 102267, Note_on_c, 0, 71, 48
1, 102267, Note_on_c, 0, 59, 0
1, 102267, Note_on_c, 0, 62, 30
1, 102365, Note_on_c, 0, 71, 0
1, 102462, Note_on_c, 0, 72, 48
1, 102462, Note_on_c, 0, 62, 0
1, 102462, Note_on_c, 0, 55, 41
1, 102559, Note_on_c, 0, 72, 0
1, 102656, Note_on_c, 0, 74, 51
1, 102656, Note_on_c, 0, 55, 0
1, 102656, Note_on_c, 0, 62, 30
1, 102753, Note_on_c, 0, 74, 0
1, 102851, Note_on_c, 0, 76, 52
1, 102851, Note_on_c, 0, 62, 0
1, 102851, Note_on_c, 0, 59, 33
1, 102950, Note_on_c, 0, 76, 0
1, 103049, Note_on_c, 0, 78, 54
1, 103049, Note_on_c, 0, 59, 0
1, 103049, Note_on_c, 0, 62, 29
1, 103157, Note_on_c, 0, 78, 0
1, 103264, Note_on_c, 0, 79, 56
1, 103264, Note_on_c, 0, 62, 0
1, 103264, Note_on_c, 0, 55, 43
1, 103267, Control_c, 0, 64, 0
1, 103367, Control_c, 0, 64, 127
1, 103463, Note_on_c, 0, 79, 0
1, 103463, Note_on_c, 0, 78, 50
1, 103463, Note_on_c, 0, 55, 0
1, 103466, Note_on_c, 0, 64, 29
1, 103662, Note_on_c, 0, 78, 0
1, 103662, Note_on_c, 0, 79, 56
1, 103662, Note_on_c, 0, 64, 0
1, 103665, Note_on_c, 0, 60, 34
1, 103861, Note_on_c, 0, 79, 0
1, 103861, Note_on_c, 0, 78, 52
1, 103861, Note_on_c, 0, 60, 0
1, 103864, Note_on_c, 0, 64, 30
1, 104060, Note_on_c, 0, 78, 0
1, 104060, Note_on_c, 0, 81, 56
1, 104060, Note_on_c, 0, 64, 0
1, 104063, Note_on_c, 0, 55, 44
1, 104259, Note_on_c, 0, 81, 0
1, 104259, Note_on_c, 0, 79, 54
1, 104259, Note_on_c, 0, 55, 0
1, 104262, Note_on_c, 0, 64, 34
1, 104458, Note_on_c, 0, 79, 0
1, 104458, Note_on_c, 0, 78, 53
1, 104458, Note_on_c, 0, 64, 0
1, 104461, Note_on_c, 0, 60, 39
1, 104657, Note_on_c, 0, 78, 0
1, 104657, Note_on_c, 0, 79, 49
1, 104657, Note_on_c, 0, 60, 0
1, 104660, Note_on_c, 0, 64, 34
1, 104856, Note_on_c, 0, 79, 0
1, 104856, Note_on_c, 0, 78, 52
1, 104856, Note_on_c, 0, 64, 0
1, 104859, Note_on_c, 0, 55, 40
1, 104859, Control_c, 0, 64, 0
1, 104962, Control_c, 0, 64, 127
1, 105059, Note_on_c, 0, 78, 0
1, 105059, Note_on_c, 0, 76, 50
1, 105059, Note_on_c, 0, 55, 0
1, 105062, Note_on_c, 0, 61, 26
1, 105261, Note_on_c, 0, 76, 0
1, 105261, Note_on_c, 0, 74, 48
1, 105261, Note_on_c, 0, 61, 0
1, 105264, Note_on_c, 0, 58, 34
1, 105464, Note_on_c, 0, 74, 0
1, 105464, Note_on_c, 0, 73, 46
1, 105464, Note_on_c, 0, 58, 0
1, 105467, Note_on_c, 0, 61, 27
1, 105680, Note_on_c, 0, 73, 0
1, 105680, Note_on_c, 0, 74, 50
1, 105680, Note_on_c, 0, 61, 0
1, 105683, Note_on_c, 0, 55, 40
1, 105683, Control_c, 0, 64, 0
1, 105785, Control_c, 0, 64, 127
1, 105879, Note_on_c, 0, 74, 0
1, 105879, Note_on_c, 0, 71, 43
1, 105879, Note_on_c, 0, 55, 0
1, 105882, Note_on_c, 0, 62, 24
1, 106078, Note_on_c, 0, 71, 0
1, 106078, Note_on_c, 0, 74, 47
1, 106078, Note_on_c, 0, 62, 0
1, 106081, Note_on_c, 0, 59, 31
1, 106277, Note_on_c, 0, 74, 0
1, 106277, Note_on_c, 0, 71, 43
1, 106277, Note_on_c, 0, 59, 0
1, 106280, Note_on_c, 0, 62, 27
1, 106490, Note_on_c, 0, 71, 0
1, 106490, Note_on_c, 0, 67, 47
1, 106490, Note_on_c, 0, 62, 0
1, 106493, Note_on_c, 0, 55, 40
1, 106692, Note_on_c, 0, 55, 0
1, 106692, Note_on_c, 0, 62, 26
1, 106895, Note_on_c, 0, 62, 0
1, 106895, Note_on_c, 0, 59, 33
1, 107097, Note_on_c, 0, 59, 0
1, 107097, Note_on_c, 0, 62, 27
1, 107300, Note_on_c, 0, 67, 0
1, 107300, Note_on_c, 0, 62, 0
1, 107300, Note_on_c, 0, 55, 41
1, 107315, Control_c, 0, 64, 0
1, 107420, Control_c, 0, 64, 127
1, 107503, Note_on_c, 0, 55, 0
1, 107503, Note_on_c, 0, 62, 30
1, 107705, Note_on_c, 0, 62, 0
1, 107705, Note_on_c, 0, 59, 33
1, 107908, Note_on_c, 0, 59, 0
1, 107908, Note_on_c, 0, 62, 29
1, 108111, Note_on_c, 0, 72, 50
1, 108111, Note_on_c, 0, 62, 0
1, 108111, Note_on_c, 0, 57, 40
1, 108191, Control_c, 0, 64, 0
1, 108311, Note_on_c, 0, 72, 0
1, 108311, Note_on_c, 0, 69, 46
1, 108311, Note_on_c, 0, 57, 0
1, 108314, Note_on_c, 0, 62, 27
1, 108314, Control_c, 0, 64, 127
1, 108512, Note_on_c, 0, 69, 0
1, 108512, Note_on_c, 0, 72, 46
1, 108512, Note_on_c, 0, 62, 0
1, 108515, Note_on_c, 0, 60, 32
1, 108713, Note_on_c, 0, 72, 0
1, 108713, Note_on_c, 0, 69, 43
1, 108713, Note_on_c, 0, 60, 0
1, 108716, Note_on_c, 0, 62, 27
1, 108913, Note_on_c, 0, 69, 0
1, 108913, Note_on_c, 0, 66, 50
1, 108913, Note_on_c, 0, 62, 0
1, 108916, Note_on_c, 0, 57, 40
1, 108949, Control_c, 0, 64, 0
1, 109012, Note_on_c, 0, 66, 0
1, 109112, Note_on_c, 0, 69, 45
1, 109112, Note_on_c, 0, 57, 0
1, 109112, Note_on_c, 0, 62, 30
1, 109311, Note_on_c, 0, 69, 0
1, 109311, Note_on_c, 0, 68, 47
1, 109311, Note_on_c, 0, 62, 0
1, 109314, Note_on_c, 0, 60, 33
1, 109510, Note_on_c, 0, 68, 0
1, 109510, Note_on_c, 0, 69, 49
1, 109510, Note_on_c, 0, 60, 0
1, 109513, Note_on_c, 0, 62, 28
1, 109708, Note_on_c, 0, 69, 0
1, 109708, Note_on_c, 0, 70, 50
1, 109708, Note_on_c, 0, 62, 0
1, 109711, Note_on_c, 0, 57, 40
1, 109906, Note_on_c, 0, 70, 0
1, 109906, Note_on_c, 0, 71, 50
1, 109906, Note_on_c, 0, 57, 0
1, 109909, Note_on_c, 0, 62, 26
1, 110105, Note_on_c, 0, 71, 0
1, 110105, Note_on_c, 0, 72, 53
1, 110105, Note_on_c, 0, 62, 0
1, 110108, Note_on_c, 0, 60, 34
1, 110304, Note_on_c, 0, 72, 0
1, 110304, Note_on_c, 0, 73, 55
1, 110304, Note_on_c, 0, 60, 0
1, 110307, Note_on_c, 0, 62, 27
1, 110496, Note_on_c, 0, 73, 0
1, 110496, Note_on_c, 0, 74, 58
1, 110496, Note_on_c, 0, 62, 0
1, 110499, Note_on_c, 0, 55, 40
1, 110499, Control_c, 0, 64, 0
1, 110598, Control_c, 0, 64, 127
1, 110690, Note_on_c, 0, 74, 0
1, 110690, Note_on_c, 0, 71, 51
1, 110690, Note_on_c, 0, 55, 0
1, 110693, Note_on_c, 0, 62, 28
1, 110889, Note_on_c, 0, 71, 0
1, 110889, Note_on_c, 0, 74, 54
1, 110889, Note_on_c, 0, 62, 0
1, 110892, Note_on_c, 0, 59, 36
1, 111088, Note_on_c, 0, 74, 0
1, 111088, Note_on_c, 0, 71, 51
1, 111088, Note_on_c, 0, 59, 0
1, 111091, Note_on_c, 0, 62, 33
1, 111287, Note_on_c, 0, 71, 0
1, 111287, Note_on_c, 0, 79, 61
1, 111287, Note_on_c, 0, 62, 0
1, 111290, Note_on_c, 0, 52, 46
1, 111486, Note_on_c, 0, 52, 0
1, 111486, Note_on_c, 0, 59, 42
1, 111685, Note_on_c, 0, 59, 0
1, 111685, Note_on_c, 0, 55, 48
1, 111884, Note_on_c, 0, 55, 0
1, 111884, Note_on_c, 0, 59, 44
1, 112083, Note_on_c, 0, 79, 0
1, 112083, Note_on_c, 0, 59, 0
1, 112083, Note_on_c, 0, 47, 51
1, 112099, Control_c, 0, 64, 0
1, 112205, Control_c, 0, 64, 127
1, 112290, Note_on_c, 0, 83, 62
1, 112290, Note_on_c, 0, 47, 0
1, 112290, Note_on_c, 0, 55, 39
1, 112492, Note_on_c, 0, 83, 0
1, 112492, Note_on_c, 0, 78, 59
1, 112492, Note_on_c, 0, 55, 0
1, 112495, Note_on_c, 0, 50, 47
1, 112695, Note_on_c, 0, 78, 0
1, 112695, Note_on_c, 0, 79, 56
1, 112695, Note_on_c, 0, 50, 0
1, 112698, Note_on_c, 0, 55, 34
1, 112917, Note_on_c, 0, 79, 0
1, 112917, Note_on_c, 0, 75, 58
1, 112917, Note_on_c, 0, 55, 0
1, 112920, Note_on_c, 0, 48, 40
1, 112920, Control_c, 0, 64, 0
1, 113120, Note_on_c, 0, 75, 0
1, 113120, Note_on_c, 0, 76, 49
1, 113120, Note_on_c, 0, 48, 0
1, 113123, Note_on_c, 0, 57, 26
1, 113123, Control_c, 0, 64, 127
1, 113323, Note_on_c, 0, 76, 0
1, 113323, Note_on_c, 0, 72, 53
1, 113323, Note_on_c, 0, 57, 0
1, 113326, Note_on_c, 0, 52, 33
1, 113525, Note_on_c, 0, 72, 0
1, 113525, Note_on_c, 0, 69, 46
1, 113525, Note_on_c, 0, 52, 0
1, 113528, Note_on_c, 0, 57, 25
1, 113753, Note_on_c, 0, 69, 0
1, 113753, Note_on_c, 0, 67, 53
1, 113753, Note_on_c, 0, 57, 0
1, 113756, Note_on_c, 0, 50, 39
1, 113770, Control_c, 0, 64, 0
1, 113860, Control_c, 0, 64, 127
1, 113957, Note_on_c, 0, 50, 0
1, 113957, Note_on_c, 0, 59, 27
1, 114162, Note_on_c, 0, 59, 0
1, 114162, Note_on_c, 0, 55, 32
1, 114366, Note_on_c, 0, 67, 0
1, 114366, Note_on_c, 0, 67, 44
1, 114366, Note_on_c, 0, 55, 0
1, 114369, Note_on_c, 0, 59, 27
1, 114571, Note_on_c, 0, 67, 0
1, 114571, Note_on_c, 0, 66, 47
1, 114571, Note_on_c, 0, 71, 55
1, 114574, Note_on_c, 0, 59, 0
1, 114574, Note_on_c, 0, 50, 39
1, 114590, Control_c, 0, 64, 0
1, 114712, Control_c, 0, 64, 127
1, 114783, Note_on_c, 0, 71, 0
1, 114783, Note_on_c, 0, 69, 44
1, 114783, Note_on_c, 0, 50, 0
1, 114786, Note_on_c, 0, 60, 27
1, 114995, Note_on_c, 0, 69, 0
1, 114995, Note_on_c, 0, 67, 49
1, 114995, Note_on_c, 0, 60, 0
1, 114998, Note_on_c, 0, 57, 33
1, 115207, Note_on_c, 0, 67, 0
1, 115207, Note_on_c, 0, 69, 42
1, 115207, Note_on_c, 0, 57, 0
1, 115210, Note_on_c, 0, 60, 29
1, 115463, Note_on_c, 0, 69, 0
1, 115463, Note_on_c, 0, 66, 0
1, 115463, Note_on_c, 0, 66, 42
1, 115466, Note_on_c, 0, 69, 53
1, 115466, Note_on_c, 0, 60, 0
1, 115466, Note_on_c, 0, 55, 27
1, 115469, Note_on_c, 0, 60, 36
1, 115469, Control_c, 0, 64, 0
1, 115842, Control_c, 0, 64, 127
1, 116441, Note_on_c, 0, 69, 0
1, 116441, Note_on_c, 0, 66, 0
1, 116441, Note_on_c, 0, 67, 48
1, 116444, Note_on_c, 0, 60, 0
1, 116444, Note_on_c, 0, 59, 28
1, 116549, Control_c, 0, 64, 0
1, 117203, Note_on_c, 0, 67, 0
1, 117203, Note_on_c, 0, 59, 0
1, 117203, Note_on_c, 0, 55, 0
1, 117966, Note_on_c, 0, 74, 50
1, 117966, Note_on_c, 0, 62, 40
1, 118067, Control_c, 0, 64, 127
1, 118161, Note_on_c, 0, 62, 0
1, 118161, Note_on_c, 0, 69, 25
1, 118357, Note_on_c, 0, 69, 0
1, 118357, Note_on_c, 0, 66, 31
1, 118553, Note_on_c, 0, 66, 0
1, 118553, Note_on_c, 0, 69, 26
1, 118748, Note_on_c, 0, 69, 0
1, 118748, Note_on_c, 0, 62, 40
1, 118947, Note_on_c, 0, 74, 0
1, 118947, Note_on_c, 0, 73, 46
1, 118947, Note_on_c, 0, 62, 0
1, 118950, Note_on_c, 0, 69, 27
1, 119146, Note_on_c, 0, 73, 0
1, 119146, Note_on_c, 0, 76, 49
1, 119146, Note_on_c, 0, 69, 0
1, 119149, Note_on_c, 0, 66, 31
1, 119344, Note_on_c, 0, 76, 0
1, 119344, Note_on_c, 0, 74, 46
1, 119344, Note_on_c, 0, 66, 0
1, 119352, Note_on_c, 0, 69, 26
1, 119543, Note_on_c, 0, 74, 0
1, 119543, Note_on_c, 0, 79, 52
1, 119543, Note_on_c, 0, 62, 40
1, 119551, Note_on_c, 0, 69, 0
1, 119556, Control_c, 0, 64, 0
1, 119647, Control_c, 0, 64, 127
1, 119742, Note_on_c, 0, 79, 0
1, 119742, Note_on_c, 0, 78, 46
1, 119742, Note_on_c, 0, 62, 0
1, 119745, Note_on_c, 0, 69, 26
1, 119941, Note_on_c, 0, 78, 0
1, 119941, Note_on_c, 0, 76, 49
1, 119941, Note_on_c, 0, 69, 0
1, 119944, Note_on_c, 0, 66, 32
1, 120140, Note_on_c, 0, 76, 0
1, 120140, Note_on_c, 0, 74, 46
1, 120140, Note_on_c, 0, 66, 0
1, 120143, Note_on_c, 0, 69, 27
1, 120354, Note_on_c, 0, 74, 0
1, 120354, Note_on_c, 0, 73, 50
1, 120354, Note_on_c, 0, 69, 0
1, 120357, Note_on_c, 0, 64, 40
1, 120357, Control_c, 0, 64, 0
1, 120457, Control_c, 0, 64, 127
1, 120549, Note_on_c, 0, 64, 0
1, 120549, Note_on_c, 0, 69, 28
1, 120745, Note_on_c, 0, 69, 0
1, 120745, Note_on_c, 0, 67, 32
1, 120941, Note_on_c, 0, 73, 0
1, 120941, Note_on_c, 0, 74, 49
1, 120941, Note_on_c, 0, 67, 0
1, 120944, Note_on_c, 0, 69, 28
1, 121145, Note_on_c, 0, 74, 0
1, 121145, Note_on_c, 0, 76, 53
1, 121145, Note_on_c, 0, 69, 0
1, 121148, Note_on_c, 0, 64, 36
1, 121168, Control_c, 0, 64, 0
1, 121306, Control_c, 0, 64, 127
1, 121341, Note_on_c, 0, 64, 0
1, 121341, Note_on_c, 0, 69, 28
1, 121536, Note_on_c, 0, 69, 0
1, 121536, Note_on_c, 0, 67, 37
1, 121732, Note_on_c, 0, 67, 0
1, 121732, Note_on_c, 0, 69, 29
1, 121927, Note_on_c, 0, 76, 0
1, 121927, Note_on_c, 0, 69, 0
1, 121927, Note_on_c, 0, 64, 41
1, 121950, Control_c, 0, 64, 0
1, 122110, Control_c, 0, 64, 127
1, 122121, Note_on_c, 0, 64, 0
1, 122121, Note_on_c, 0, 69, 36
1, 122318, Note_on_c, 0, 69, 0
1, 122318, Note_on_c, 0, 67, 38
1, 122516, Note_on_c, 0, 67, 0
1, 122516, Note_on_c, 0, 69, 29
1, 122731, Note_on_c, 0, 76, 54
1, 122731, Note_on_c, 0, 69, 0
1, 122731, Note_on_c, 0, 61, 42
1, 122734, Control_c, 0, 64, 0
1, 122832, Control_c, 0, 64, 127
1, 122928, Note_on_c, 0, 61, 0
1, 122928, Note_on_c, 0, 69, 26
1, 123123, Note_on_c, 0, 69, 0
1, 123123, Note_on_c, 0, 67, 32
1, 123319, Note_on_c, 0, 67, 0
1, 123319, Note_on_c, 0, 69, 27
1, 123515, Note_on_c, 0, 69, 0
1, 123515, Note_on_c, 0, 61, 42
1, 123710, Note_on_c, 0, 76, 0
1, 123710, Note_on_c, 0, 75, 46
1, 123710, Note_on_c, 0, 61, 0
1, 123713, Note_on_c, 0, 69, 28
1, 123906, Note_on_c, 0, 75, 0
1, 123906, Note_on_c, 0, 78, 50
1, 123906, Note_on_c, 0, 69, 0
1, 123909, Note_on_c, 0, 67, 32
1, 124103, Note_on_c, 0, 78, 0
1, 124103, Note_on_c, 0, 76, 46
1, 124103, Note_on_c, 0, 67, 0
1, 124111, Note_on_c, 0, 69, 27
1, 124302, Note_on_c, 0, 76, 0
1, 124302, Note_on_c, 0, 81, 54
1, 124302, Note_on_c, 0, 61, 42
1, 124310, Note_on_c, 0, 69, 0
1, 124315, Control_c, 0, 64, 0
1, 124405, Control_c, 0, 64, 127
1, 124498, Note_on_c, 0, 81, 0
1, 124498, Note_on_c, 0, 79, 46
1, 124498, Note_on_c, 0, 61, 0
1, 124501, Note_on_c, 0, 69, 27
1, 124693, Note_on_c, 0, 79, 0
1, 124693, Note_on_c, 0, 78, 49
1, 124693, Note_on_c, 0, 69, 0
1, 124696, Note_on_c, 0, 67, 33
1, 124889, Note_on_c, 0, 78, 0
1, 124889, Note_on_c, 0, 76, 49
1, 124889, Note_on_c, 0, 67, 0
1, 124892, Note_on_c, 0, 69, 28
1, 125103, Note_on_c, 0, 76, 0
1, 125103, Note_on_c, 0, 74, 54
1, 125103, Note_on_c, 0, 69, 0
1, 125106, Note_on_c, 0, 62, 42
1, 125106, Control_c, 0, 64, 0
1, 125208, Control_c, 0, 64, 127
1, 125304, Note_on_c, 0, 62, 0
1, 125304, Note_on_c, 0, 69, 29
1, 125505, Note_on_c, 0, 69, 0
1, 125505, Note_on_c, 0, 66, 33
1, 125700, Note_on_c, 0, 74, 0
1, 125700, Note_on_c, 0, 76, 52
1, 125700, Note_on_c, 0, 66, 0
1, 125703, Note_on_c, 0, 69, 29
1, 125901, Note_on_c, 0, 76, 0
1, 125901, Note_on_c, 0, 78, 57
1, 125901, Note_on_c, 0, 69, 0
1, 125904, Note_on_c, 0, 61, 46
1, 125924, Control_c, 0, 64, 0
1, 126061, Control_c, 0, 64, 127
1, 126095, Note_on_c, 0, 61, 0
1, 126095, Note_on_c, 0, 69, 36
1, 126289, Note_on_c, 0, 69, 0
1, 126289, Note_on_c, 0, 62, 42
1, 126483, Note_on_c, 0, 62, 0
1, 126483, Note_on_c, 0, 69, 38
1, 126677, Note_on_c, 0, 78, 0
1, 126677, Note_on_c, 0, 69, 0
1, 126677, Note_on_c, 0, 59, 46
1, 126700, Control_c, 0, 64, 0
1, 126859, Control_c, 0, 64, 127
1, 126870, Note_on_c, 0, 59, 0
1, 126870, Note_on_c, 0, 67, 44
1, 127067, Note_on_c, 0, 67, 0
1, 127067, Note_on_c, 0, 62, 49
1, 127265, Note_on_c, 0, 62, 0
1, 127265, Note_on_c, 0, 67, 45
1, 127465, Note_on_c, 0, 78, 70
1, 127465, Note_on_c, 0, 67, 0
1, 127465, Note_on_c, 0, 57, 51
1, 127469, Control_c, 0, 64, 0
1, 127565, Control_c, 0, 64, 127
1, 127658, Note_on_c, 0, 57, 0
1, 127658, Note_on_c, 0, 66, 44
1, 127852, Note_on_c, 0, 66, 0
1, 127852, Note_on_c, 0, 62, 47
1, 128046, Note_on_c, 0, 62, 0
1, 128046, Note_on_c, 0, 66, 40
1, 128240, Note_on_c, 0, 66, 0
1, 128240, Note_on_c, 0, 55, 50
1, 128436, Note_on_c, 0, 78, 0
1, 128436, Note_on_c, 0, 76, 57
1, 128436, Note_on_c, 0, 55, 0
1, 128439, Note_on_c, 0, 64, 41
1, 128631, Note_on_c, 0, 76, 0
1, 128631, Note_on_c, 0, 79, 61
1, 128631, Note_on_c, 0, 64, 0
1, 128634, Note_on_c, 0, 61, 49
1, 128829, Note_on_c, 0, 79, 0
1, 128829, Note_on_c, 0, 78, 55
1, 128829, Note_on_c, 0, 61, 0
1, 128832, Note_on_c, 0, 64, 41
1, 129028, Note_on_c, 0, 78, 0
1, 129028, Note_on_c, 0, 83, 65
1, 129028, Note_on_c, 0, 64, 0
1, 129031, Note_on_c, 0, 54, 46
1, 129040, Control_c, 0, 64, 0
1, 129129, Control_c, 0, 64, 127
1, 129221, Note_on_c, 0, 83, 0
1, 129221, Note_on_c, 0, 81, 53
1, 129221, Note_on_c, 0, 54, 0
1, 129224, Note_on_c, 0, 62, 33
1, 129415, Note_on_c, 0, 81, 0
1, 129415, Note_on_c, 0, 79, 59
1, 129415, Note_on_c, 0, 62, 0
1, 129418, Note_on_c, 0, 59, 42
1, 129613, Note_on_c, 0, 79, 0
1, 129613, Note_on_c, 0, 78, 53
1, 129613, Note_on_c, 0, 59, 0
1, 129616, Note_on_c, 0, 62, 34
1, 129819, Note_on_c, 0, 78, 0
1, 129819, Note_on_c, 0, 76, 64
1, 129819, Note_on_c, 0, 62, 0
1, 129822, Note_on_c, 0, 59, 46
1, 129853, Control_c, 0, 64, 0
1, 129993, Control_c, 0, 64, 127
1, 130013, Note_on_c, 0, 59, 0
1, 130013, Note_on_c, 0, 67, 33
1, 130207, Note_on_c, 0, 67, 0
1, 130207, Note_on_c, 0, 64, 41
1, 130401, Note_on_c, 0, 64, 0
1, 130401, Note_on_c, 0, 67, 32
1, 130595, Note_on_c, 0, 67, 0
1, 130595, Note_on_c, 0, 57, 40
1, 130794, Note_on_c, 0, 76, 0
1, 130794, Note_on_c, 0, 75, 55
1, 130794, Note_on_c, 0, 57, 0
1, 130797, Note_on_c, 0, 66, 30
1, 130993, Note_on_c, 0, 75, 0
1, 130993, Note_on_c, 0, 78, 60
1, 130993, Note_on_c, 0, 66, 0
1, 130996, Note_on_c, 0, 63, 40
1, 131190, Note_on_c, 0, 78, 0
1, 131190, Note_on_c, 0, 76, 52
1, 131190, Note_on_c, 0, 63, 0
1, 131193, Note_on_c, 0, 66, 30
1, 131389, Note_on_c, 0, 76, 0
1, 131389, Note_on_c, 0, 81, 62
1, 131389, Note_on_c, 0, 66, 0
1, 131392, Note_on_c, 0, 55, 42
1, 131402, Control_c, 0, 64, 0
1, 131493, Control_c, 0, 64, 127
1, 131586, Note_on_c, 0, 81, 0
1, 131586, Note_on_c, 0, 79, 51
1, 131586, Note_on_c, 0, 55, 0
1, 131589, Note_on_c, 0, 64, 29
1, 131789, Note_on_c, 0, 79, 0
1, 131789, Note_on_c, 0, 78, 59
1, 131789, Note_on_c, 0, 64, 0
1, 131792, Note_on_c, 0, 60, 35
1, 131992, Note_on_c, 0, 78, 0
1, 131992, Note_on_c, 0, 76, 53
1, 131992, Note_on_c, 0, 60, 0
1, 131995, Note_on_c, 0, 64, 30
1, 132206, Note_on_c, 0, 76, 0
1, 132206, Note_on_c, 0, 76, 63
1, 132206, Note_on_c, 0, 64, 0
1, 132209, Note_on_c, 0, 57, 40
1, 132209, Control_c, 0, 64, 0
1, 132408, Note_on_c, 0, 76, 0
1, 132408, Note_on_c, 0, 74, 49
1, 132408, Note_on_c, 0, 57, 0
1, 132411, Note_on_c, 0, 66, 26
1, 132411, Control_c, 0, 64, 127
1, 132611, Note_on_c, 0, 74, 0
1, 132611, Note_on_c, 0, 74, 55
1, 132611, Note_on_c, 0, 66, 0
1, 132614, Note_on_c, 0, 62, 33
1, 132814, Note_on_c, 0, 62, 0
1, 132814, Note_on_c, 0, 66, 29
1, 133028, Note_on_c, 0, 66, 0
1, 133028, Note_on_c, 0, 57, 39
1, 133045, Control_c, 0, 64, 0
1, 133133, Control_c, 0, 64, 127
1, 133219, Note_on_c, 0, 69, 44
1, 133229, Note_on_c, 0, 74, 0
1, 133229, Note_on_c, 0, 57, 0
1, 133237, Note_on_c, 0, 66, 29
1, 133420, Note_on_c, 0, 69, 0
1, 133430, Note_on_c, 0, 74, 46
1, 133430, Note_on_c, 0, 62, 37
1, 133438, Note_on_c, 0, 66, 0
1, 133630, Note_on_c, 0, 74, 0
1, 133630, Note_on_c, 0, 78, 43
1, 133630, Note_on_c, 0, 62, 0
1, 133633, Note_on_c, 0, 66, 29
1, 133831, Note_on_c, 0, 78, 0
1, 133831, Note_on_c, 0, 73, 49
1, 133831, Note_on_c, 0, 78, 58
1, 133834, Note_on_c, 0, 66, 0
1, 133834, Note_on_c, 0, 57, 39
1, 133851, Control_c, 0, 64, 0
1, 133973, Control_c, 0, 64, 127
1, 134043, Note_on_c, 0, 78, 0
1, 134043, Note_on_c, 0, 76, 44
1, 134043, Note_on_c, 0, 57, 0
1, 134046, Note_on_c, 0, 67, 30
1, 134256, Note_on_c, 0, 76, 0
1, 134256, Note_on_c, 0, 74, 53
1, 134256, Note_on_c, 0, 67, 0
1, 134259, Note_on_c, 0, 64, 36
1, 134468, Note_on_c, 0, 74, 0
1, 134468, Note_on_c, 0, 76, 45
1, 134468, Note_on_c, 0, 64, 0
1, 134471, Note_on_c, 0, 67, 29
1, 134723, Note_on_c, 0, 76, 0
1, 134723, Note_on_c, 0, 73, 0
1, 134723, Note_on_c, 0, 73, 51
1, 134726, Note_on_c, 0, 76, 61
1, 134726, Note_on_c, 0, 67, 0
1, 134726, Note_on_c, 0, 62, 34
1, 134729, Note_on_c, 0, 67, 40
1, 134729, Control_c, 0, 64, 0
1, 135103, Control_c, 0, 64, 127
1, 135702, Note_on_c, 0, 76, 0
1, 135702, Note_on_c, 0, 73, 0
1, 135702, Note_on_c, 0, 74, 53
1, 135705, Note_on_c, 0, 67, 0
1, 135705, Note_on_c, 0, 66, 28
1, 135824, Control_c, 0, 64, 0
1, 135900, Note_on_c, 0, 74, 0
1, 135918, Note_on_c, 0, 75, 43
1, 136134, Note_on_c, 0, 76, 48
1, 136155, Note_on_c, 0, 75, 0
1, 136346, Note_on_c, 0, 75, 42
1, 136368, Note_on_c, 0, 76, 0
1, 136559, Note_on_c, 0, 78, 51
1, 136559, Note_on_c, 0, 66, 0
1, 136559, Note_on_c, 0, 62, 0
1, 136580, Note_on_c, 0, 75, 0
1, 136771, Note_on_c, 0, 76, 48
1, 136792, Note_on_c, 0, 78, 0
1, 136985, Note_on_c, 0, 74, 46
1, 137007, Note_on_c, 0, 76, 0
1, 137199, Note_on_c, 0, 72, 44
1, 137223, Note_on_c, 0, 74, 0
1, 137436, Note_on_c, 0, 71, 48
1, 137436, Note_on_c, 0, 55, 35
1, 137457, Note_on_c, 0, 72, 0
1, 137542, Control_c, 0, 64, 127
1, 137641, Note_on_c, 0, 55, 0
1, 137641, Note_on_c, 0, 62, 23
1, 137845, Note_on_c, 0, 62, 0
1, 137845, Note_on_c, 0, 59, 31
1, 138050, Note_on_c, 0, 59, 0
1, 138050, Note_on_c, 0, 62, 23
1, 138254, Note_on_c, 0, 62, 0
1, 138254, Note_on_c, 0, 55, 40
1, 138453, Note_on_c, 0, 71, 0
1, 138453, Note_on_c, 0, 67, 44
1, 138453, Note_on_c, 0, 55, 0
1, 138456, Note_on_c, 0, 62, 26
1, 138641, Note_on_c, 0, 71, 44
1, 138652, Note_on_c, 0, 67, 0
1, 138652, Note_on_c, 0, 62, 0
1, 138652, Note_on_c, 0, 59, 32
1, 138838, Note_on_c, 0, 71, 0
1, 138838, Note_on_c, 0, 74, 44
1, 138849, Note_on_c, 0, 59, 0
1, 138849, Note_on_c, 0, 62, 26
1, 139037, Note_on_c, 0, 74, 0
1, 139048, Note_on_c, 0, 72, 50
1, 139048, Note_on_c, 0, 62, 0
1, 139048, Note_on_c, 0, 57, 40
1, 139053, Control_c, 0, 64, 0
1, 139153, Control_c, 0, 64, 127
1, 139248, Note_on_c, 0, 72, 0
1, 139248, Note_on_c, 0, 69, 44
1, 139248, Note_on_c, 0, 57, 0
1, 139251, Note_on_c, 0, 62, 26
1, 139447, Note_on_c, 0, 69, 0
1, 139447, Note_on_c, 0, 72, 44
1, 139447, Note_on_c, 0, 62, 0
1, 139450, Note_on_c, 0, 60, 32
1, 139646, Note_on_c, 0, 72, 0
1, 139646, Note_on_c, 0, 76, 44
1, 139646, Note_on_c, 0, 60, 0
1, 139649, Note_on_c, 0, 62, 27
1, 139875, Note_on_c, 0, 76, 0
1, 139875, Note_on_c, 0, 74, 50
1, 139875, Note_on_c, 0, 62, 0
1, 139878, Note_on_c, 0, 55, 40
1, 139878, Control_c, 0, 64, 0
1, 139981, Control_c, 0, 64, 127
1, 140076, Note_on_c, 0, 55, 0
1, 140076, Note_on_c, 0, 62, 28
1, 140277, Note_on_c, 0, 62, 0
1, 140277, Note_on_c, 0, 59, 32
1, 140478, Note_on_c, 0, 74, 0
1, 140478, Note_on_c, 0, 71, 47
1, 140478, Note_on_c, 0, 59, 0
1, 140481, Note_on_c, 0, 62, 28
1, 140682, Note_on_c, 0, 71, 0
1, 140682, Note_on_c, 0, 67, 47
1, 140682, Note_on_c, 0, 62, 0
1, 140685, Note_on_c, 0, 55, 40
1, 140739, Control_c, 0, 64, 0
1, 140780, Note_on_c, 0, 67, 0
1, 140878, Note_on_c, 0, 67, 46
1, 140878, Note_on_c, 0, 55, 0
1, 140878, Note_on_c, 0, 62, 29
1, 140975, Note_on_c, 0, 67, 0
1, 141073, Note_on_c, 0, 69, 47
1, 141073, Note_on_c, 0, 62, 0
1, 141073, Note_on_c, 0, 59, 33
1, 141171, Note_on_c, 0, 69, 0
1, 141269, Note_on_c, 0, 71, 48
1, 141269, Note_on_c, 0, 59, 0
1, 141269, Note_on_c, 0, 62, 30
1, 141367, Note_on_c, 0, 71, 0
1, 141464, Note_on_c, 0, 72, 48
1, 141464, Note_on_c, 0, 62, 0
1, 141464, Note_on_c, 0, 55, 41
1, 141563, Note_on_c, 0, 72, 0
1, 141662, Note_on_c, 0, 74, 51
1, 141662, Note_on_c, 0, 55, 0
1, 141662, Note_on_c, 0, 62, 30
1, 141762, Note_on_c, 0, 74, 0
1, 141862, Note_on_c, 0, 76, 52
1, 141862, Note_on_c, 0, 62, 0
1, 141862, Note_on_c, 0, 59, 33
1, 141963, Note_on_c, 0, 76, 0
1, 142063, Note_on_c, 0, 78, 54
1, 142063, Note_on_c, 0, 59, 0
1, 142063, Note_on_c, 0, 62, 29
1, 142170, Note_on_c, 0, 78, 0
1, 142277, Note_on_c, 0, 79, 56
1, 142277, Note_on_c, 0, 62, 0
1, 142277, Note_on_c, 0, 55, 43
1, 142280, Control_c, 0, 64, 0
1, 142380, Control_c, 0, 64, 127
1, 142476, Note_on_c, 0, 79, 0
1, 142476, Note_on_c, 0, 78, 50
1, 142476, Note_on_c, 0, 55, 0
1, 142479, Note_on_c, 0, 64, 29
1, 142675, Note_on_c, 0, 78, 0
1, 142675, Note_on_c, 0, 79, 56
1, 142675, Note_on_c, 0, 64, 0
1, 142678, Note_on_c, 0, 60, 34
1, 142875, Note_on_c, 0, 79, 0
1, 142875, Note_on_c, 0, 78, 52
1, 142875, Note_on_c, 0, 60, 0
1, 142878, Note_on_c, 0, 64, 30
1, 143074, Note_on_c, 0, 78, 0
1, 143074, Note_on_c, 0, 81, 56
1, 143074, Note_on_c, 0, 64, 0
1, 143077, Note_on_c, 0, 55, 44
1, 143273, Note_on_c, 0, 81, 0
1, 143273, Note_on_c, 0, 79, 54
1, 143273, Note_on_c, 0, 55, 0
1, 143276, Note_on_c, 0, 64, 34
1, 143472, Note_on_c, 0, 79, 0
1, 143472, Note_on_c, 0, 78, 53
1, 143472, Note_on_c, 0, 64, 0
1, 143475, Note_on_c, 0, 60, 39
1, 143671, Note_on_c, 0, 78, 0
1, 143671, Note_on_c, 0, 79, 49
1, 143671, Note_on_c, 0, 60, 0
1, 143674, Note_on_c, 0, 64, 34
1, 143870, Note_on_c, 0, 79, 0
1, 143870, Note_on_c, 0, 78, 52
1, 143870, Note_on_c, 0, 64, 0
1, 143873, Note_on_c, 0, 55, 40
1, 143873, Control_c, 0, 64, 0
1, 143976, Control_c, 0, 64, 127
1, 144072, Note_on_c, 0, 78, 0
1, 144072, Note_on_c, 0, 76, 50
1, 144072, Note_on_c, 0, 55, 0
1, 144075, Note_on_c, 0, 61, 26
1, 144275, Note_on_c, 0, 76, 0
1, 144275, Note_on_c, 0, 74, 48
1, 144275, Note_on_c, 0, 61, 0
1, 144278, Note_on_c, 0, 58, 34
1, 144478, Note_on_c, 0, 74, 0
1, 144478, Note_on_c, 0, 73, 46
1, 144478, Note_on_c, 0, 58, 0
1, 144481, Note_on_c, 0, 61, 27
1, 144694, Note_on_c, 0, 73, 0
1, 144694, Note_on_c, 0, 74, 50
1, 144694, Note_on_c, 0, 61, 0
1, 144697, Note_on_c, 0, 55, 40
1, 144697, Control_c, 0, 64, 0
1, 144798, Control_c, 0, 64, 127
1, 144893, Note_on_c, 0, 74, 0
1, 144893, Note_on_c, 0, 71, 43
1, 144893, Note_on_c, 0, 55, 0
1, 144896, Note_on_c, 0, 62, 24
1, 145092, Note_on_c, 0, 71, 0
1, 145092, Note_on_c, 0, 74, 47
1, 145092, Note_on_c, 0, 62, 0
1, 145095, Note_on_c, 0, 59, 31
1, 145291, Note_on_c, 0, 74, 0
1, 145291, Note_on_c, 0, 71, 43
1, 145291, Note_on_c, 0, 59, 0
1, 145294, Note_on_c, 0, 62, 27
1, 145503, Note_on_c, 0, 71, 0
1, 145503, Note_on_c, 0, 67, 47
1, 145503, Note_on_c, 0, 62, 0
1, 145506, Note_on_c, 0, 55, 40
1, 145706, Note_on_c, 0, 55, 0
1, 145706, Note_on_c, 0, 62, 26
1, 145909, Note_on_c, 0, 62, 0
1, 145909, Note_on_c, 0, 59, 33
1, 146109, Note_on_c, 0, 59, 0
1, 146109, Note_on_c, 0, 62, 27
1, 146310, Note_on_c, 0, 67, 0
1, 146310, Note_on_c, 0, 62, 0
1, 146310, Note_on_c, 0, 55, 41
1, 146325, Control_c, 0, 64, 0
1, 146429, Control_c, 0, 64, 127
1, 146511, Note_on_c, 0, 55, 0
1, 146511, Note_on_c, 0, 62, 30
1, 146712, Note_on_c, 0, 62, 0
1, 146712, Note_on_c, 0, 59, 33
1, 146911, Note_on_c, 0, 59, 0
1, 146911, Note_on_c, 0, 62, 29
1, 147117, Note_on_c, 0, 72, 50
1, 147117, Note_on_c, 0, 62, 0
1, 147117, Note_on_c, 0, 57, 40
1, 147198, Control_c, 0, 64, 0
1, 147318, Note_on_c, 0, 72, 0
1, 147318, Note_on_c, 0, 69, 46
1, 147318, Note_on_c, 0, 57, 0
1, 147321, Note_on_c, 0, 62, 27
1, 147321, Control_c, 0, 64, 127
1, 147519, Note_on_c, 0, 69, 0
1, 147519, Note_on_c, 0, 72, 46
1, 147519, Note_on_c, 0, 62, 0
1, 147522, Note_on_c, 0, 60, 32
1, 147720, Note_on_c, 0, 72, 0
1, 147720, Note_on_c, 0, 69, 43
1, 147720, Note_on_c, 0, 60, 0
1, 147723, Note_on_c, 0, 62, 27
1, 147919, Note_on_c, 0, 69, 0
1, 147919, Note_on_c, 0, 66, 50
1, 147919, Note_on_c, 0, 62, 0
1, 147922, Note_on_c, 0, 57, 40
1, 147956, Control_c, 0, 64, 0
1, 148019, Note_on_c, 0, 66, 0
1, 148118, Note_on_c, 0, 69, 45
1, 148118, Note_on_c, 0, 57, 0
1, 148118, Note_on_c, 0, 62, 30
1, 148317, Note_on_c, 0, 69, 0
1, 148317, Note_on_c, 0, 68, 47
1, 148317, Note_on_c, 0, 62, 0
1, 148320, Note_on_c, 0, 60, 33
1, 148516, Note_on_c, 0, 68, 0
1, 148516, Note_on_c, 0, 69, 49
1, 148516, Note_on_c, 0, 60, 0
1, 148519, Note_on_c, 0, 62, 28
1, 148715, Note_on_c, 0, 69, 0
1, 148715, Note_on_c, 0, 70, 50
1, 148715, Note_on_c, 0, 62, 0
1, 148718, Note_on_c, 0, 57, 40
1, 148912, Note_on_c, 0, 70, 0
1, 148912, Note_on_c, 0, 71, 50
1, 148912, Note_on_c, 0, 57, 0
1, 148915, Note_on_c, 0, 62, 26
1, 149111, Note_on_c, 0, 71, 0
1, 149111, Note_on_c, 0, 72, 53
1, 149111, Note_on_c, 0, 62, 0
1, 149114, Note_on_c, 0, 60, 34
1, 149310, Note_on_c, 0, 72, 0
1, 149310, Note_on_c, 0, 73, 55
1, 149310, Note_on_c, 0, 60, 0
1, 149313, Note_on_c, 0, 62, 27
1, 149515, Note_on_c, 0, 73, 0
1, 149515, Note_on_c, 0, 74, 58
1, 149515, Note_on_c, 0, 62, 0
1, 149518, Note_on_c, 0, 55, 40
1, 149518, Control_c, 0, 64, 0
1, 149617, Control_c, 0, 64, 127
1, 149709, Note_on_c, 0, 74, 0
1, 149709, Note_on_c, 0, 71, 51
1, 149709, Note_on_c, 0, 55, 0
1, 149712, Note_on_c, 0, 62, 28
1, 149908, Note_on_c, 0, 71, 0
1, 149908, Note_on_c, 0, 74, 54
1, 149908, Note_on_c, 0, 62, 0
1, 149911, Note_on_c, 0, 59, 36
1, 150107, Note_on_c, 0, 74, 0
1, 150107, Note_on_c, 0, 71, 51
1, 150107, Note_on_c, 0, 59, 0
1, 150110, Note_on_c, 0, 62, 33
1, 150306, Note_on_c, 0, 71, 0
1, 150306, Note_on_c, 0, 79, 61
1, 150306, Note_on_c, 0, 62, 0
1, 150309, Note_on_c, 0, 52, 46
1, 150505, Note_on_c, 0, 52, 0
1, 150505, Note_on_c, 0, 59, 42
1, 150704, Note_on_c, 0, 59, 0
1, 150704, Note_on_c, 0, 55, 48
1, 150903, Note_on_c, 0, 55, 0
1, 150903, Note_on_c, 0, 59, 44
1, 151102, Note_on_c, 0, 79, 0
1, 151102, Note_on_c, 0, 59, 0
1, 151102, Note_on_c, 0, 47, 51
1, 151117, Control_c, 0, 64, 0
1, 151224, Control_c, 0, 64, 127
1, 151308, Note_on_c, 0, 83, 62
1, 151308, Note_on_c, 0, 47, 0
1, 151308, Note_on_c, 0, 55, 39
1, 151511, Note_on_c, 0, 83, 0
1, 151511, Note_on_c, 0, 78, 59
1, 151511, Note_on_c, 0, 55, 0
1, 151514, Note_on_c, 0, 50, 47
1, 151714, Note_on_c, 0, 78, 0
1, 151714, Note_on_c, 0, 79, 56
1, 151714, Note_on_c, 0, 50, 0
1, 151717, Note_on_c, 0, 55, 34
1, 151936, Note_on_c, 0, 79, 0
1, 151936, Note_on_c, 0, 75, 58
1, 151936, Note_on_c, 0, 55, 0
1, 151939, Note_on_c, 0, 48, 40
1, 151939, Control_c, 0, 64, 0
1, 152139, Note_on_c, 0, 75, 0
1, 152139, Note_on_c, 0, 76, 49
1, 152139, Note_on_c, 0, 48, 0
1, 152142, Note_on_c, 0, 57, 26
1, 152142, Control_c, 0, 64, 127
1, 152342, Note_on_c, 0, 76, 0
1, 152342, Note_on_c, 0, 72, 53
1, 152342, Note_on_c, 0, 57, 0
1, 152345, Note_on_c, 0, 52, 33
1, 152544, Note_on_c, 0, 72, 0
1, 152544, Note_on_c, 0, 69, 46
1, 152544, Note_on_c, 0, 52, 0
1, 152547, Note_on_c, 0, 57, 25
1, 152771, Note_on_c, 0, 69, 0
1, 152771, Note_on_c, 0, 67, 53
1, 152771, Note_on_c, 0, 57, 0
1, 152774, Note_on_c, 0, 50, 39
1, 152789, Control_c, 0, 64, 0
1, 152879, Control_c, 0, 64, 127
1, 152976, Note_on_c, 0, 50, 0
1, 152976, Note_on_c, 0, 59, 27
1, 153180, Note_on_c, 0, 59, 0
1, 153180, Note_on_c, 0, 55, 32
1, 153385, Note_on_c, 0, 67, 0
1, 153385, Note_on_c, 0, 67, 44
1, 153385, Note_on_c, 0, 55, 0
1, 153388, Note_on_c, 0, 59, 27
1, 153589, Note_on_c, 0, 67, 0
1, 153589, Note_on_c, 0, 66, 47
1, 153589, Note_on_c, 0, 71, 55
1, 153592, Note_on_c, 0, 59, 0
1, 153592, Note_on_c, 0, 50, 39
1, 153609, Control_c, 0, 64, 0
1, 153731, Control_c, 0, 64, 127
1, 153802, Note_on_c, 0, 71, 0
1, 153802, Note_on_c, 0, 69, 44
1, 153802, Note_on_c, 0, 50, 0
1, 153805, Note_on_c, 0, 60, 27
1, 154014, Note_on_c, 0, 69, 0
1, 154014, Note_on_c, 0, 67, 49
1, 154014, Note_on_c, 0, 60, 0
1, 154017, Note_on_c, 0, 57, 33
1, 154226, Note_on_c, 0, 67, 0
1, 154226, Note_on_c, 0, 69, 42
1, 154226, Note_on_c, 0, 57, 0
1, 154229, Note_on_c, 0, 60, 29
1, 154482, Note_on_c, 0, 69, 0
1, 154482, Note_on_c, 0, 66, 0
1, 154482, Note_on_c, 0, 66, 42
1, 154485, Note_on_c, 0, 69, 53
1, 154485, Note_on_c, 0, 60, 0
1, 154485, Note_on_c, 0, 55, 27
1, 154488, Note_on_c, 0, 60, 36
1, 154488, Control_c, 0, 64, 0
1, 154861, Control_c, 0, 64, 127
1, 155460, Note_on_c, 0, 69, 0
1, 155460, Note_on_c, 0, 66, 0
1, 155460, Note_on_c, 0, 67, 48
1, 155463, Note_on_c, 0, 60, 0
1, 155463, Note_on_c, 0, 59, 28
1, 155568, Control_c, 0, 64, 0
1, 156222, Note_on_c, 0, 67, 0
1, 156222, Note_on_c, 0, 59, 0
1, 156222, Note_on_c, 0, 55, 0
1, 156985, Note_on_c, 0, 70, 50
1, 156985, Note_on_c, 0, 55, 40
1, 157089, Control_c, 0, 64, 127
1, 157089, Control_c, 0, 64, 127
1, 157187, Note_on_c, 0, 55, 0
1, 157187, Note_on_c, 0, 62, 25
1, 157390, Note_on_c, 0, 62, 0
1, 157390, Note_on_c, 0, 58, 31
1, 157593, Note_on_c, 0, 58, 0
1, 157593, Note_on_c, 0, 62, 26
1, 157795, Note_on_c, 0, 62, 0
1, 157795, Note_on_c, 0, 55, 40
1, 157994, Note_on_c, 0, 70, 0
1, 157994, Note_on_c, 0, 69, 46
1, 157994, Note_on_c, 0, 55, 0
1, 157997, Note_on_c, 0, 62, 27
1, 158193, Note_on_c, 0, 69, 0
1, 158193, Note_on_c, 0, 72, 46
1, 158193, Note_on_c, 0, 62, 0
1, 158196, Note_on_c, 0, 58, 31
1, 158391, Note_on_c, 0, 72, 0
1, 158391, Note_on_c, 0, 70, 46
1, 158391, Note_on_c, 0, 58, 0
1, 158394, Note_on_c, 0, 62, 26
1, 158590, Note_on_c, 0, 70, 0
1, 158590, Note_on_c, 0, 70, 50
1, 158590, Note_on_c, 0, 62, 0
1, 158593, Note_on_c, 0, 57, 40
1, 158593, Control_c, 0, 64, 0
1, 158593, Control_c, 0, 64, 0
1, 158694, Control_c, 0, 64, 127
1, 158694, Control_c, 0, 64, 127
1, 158789, Note_on_c, 0, 70, 0
1, 158789, Note_on_c, 0, 69, 46
1, 158789, Note_on_c, 0, 57, 0
1, 158792, Note_on_c, 0, 62, 26
1, 158988, Note_on_c, 0, 69, 0
1, 158988, Note_on_c, 0, 67, 46
1, 158988, Note_on_c, 0, 62, 0
1, 158991, Note_on_c, 0, 60, 32
1, 159187, Note_on_c, 0, 67, 0
1, 159187, Note_on_c, 0, 66, 46
1, 159187, Note_on_c, 0, 60, 0
1, 159190, Note_on_c, 0, 62, 27
1, 159401, Note_on_c, 0, 66, 0
1, 159401, Note_on_c, 0, 67, 50
1, 159401, Note_on_c, 0, 62, 0
1, 159404, Note_on_c, 0, 55, 40
1, 159404, Control_c, 0, 64, 0
1, 159506, Control_c, 0, 64, 127
1, 159602, Note_on_c, 0, 55, 0
1, 159602, Note_on_c, 0, 62, 31
1, 159803, Note_on_c, 0, 62, 0
1, 159803, Note_on_c, 0, 58, 35
1, 160003, Note_on_c, 0, 67, 0
1, 160003, Note_on_c, 0, 70, 56
1, 160003, Note_on_c, 0, 58, 0
1, 160006, Note_on_c, 0, 62, 28
1, 160208, Note_on_c, 0, 70, 0
1, 160208, Note_on_c, 0, 74, 62
1, 160208, Note_on_c, 0, 62, 0
1, 160211, Note_on_c, 0, 55, 47
1, 160403, Note_on_c, 0, 55, 0
1, 160403, Note_on_c, 0, 62, 37
1, 160599, Note_on_c, 0, 62, 0
1, 160599, Note_on_c, 0, 58, 41
1, 160795, Note_on_c, 0, 58, 0
1, 160795, Note_on_c, 0, 62, 39
1, 160990, Note_on_c, 0, 74, 0
1, 160990, Note_on_c, 0, 62, 0
1, 160990, Note_on_c, 0, 55, 51
1, 161005, Control_c, 0, 64, 0
1, 161105, Control_c, 0, 64, 127
1, 161184, Note_on_c, 0, 55, 0
1, 161184, Note_on_c, 0, 62, 43
1, 161380, Note_on_c, 0, 62, 0
1, 161380, Note_on_c, 0, 58, 46
1, 161579, Note_on_c, 0, 58, 0
1, 161579, Note_on_c, 0, 62, 41
1, 161793, Note_on_c, 0, 74, 64
1, 161793, Note_on_c, 0, 62, 0
1, 161793, Note_on_c, 0, 54, 47
1, 161796, Control_c, 0, 64, 0
1, 161899, Control_c, 0, 64, 127
1, 161899, Control_c, 0, 64, 127
1, 161899, Control_c, 0, 64, 127
1, 161998, Note_on_c, 0, 54, 0
1, 161998, Note_on_c, 0, 62, 31
1, 162195, Note_on_c, 0, 62, 0
1, 162195, Note_on_c, 0, 57, 40
1, 162392, Note_on_c, 0, 57, 0
1, 162392, Note_on_c, 0, 62, 33
1, 162590, Note_on_c, 0, 62, 0
1, 162590, Note_on_c, 0, 54, 40
1, 162789, Note_on_c, 0, 74, 0
1, 162789, Note_on_c, 0, 73, 57
1, 162789, Note_on_c, 0, 54, 0
1, 162792, Note_on_c, 0, 62, 31
1, 162988, Note_on_c, 0, 73, 0
1, 162988, Note_on_c, 0, 75, 59
1, 162988, Note_on_c, 0, 62, 0
1, 162991, Note_on_c, 0, 57, 37
1, 163185, Note_on_c, 0, 75, 0
1, 163185, Note_on_c, 0, 74, 55
1, 163185, Note_on_c, 0, 57, 0
1, 163188, Note_on_c, 0, 62, 31
1, 163384, Note_on_c, 0, 74, 0
1, 163384, Note_on_c, 0, 74, 62
1, 163384, Note_on_c, 0, 62, 0
1, 163387, Note_on_c, 0, 50, 40
1, 163387, Control_c, 0, 64, 0
1, 163387, Control_c, 0, 64, 0
1, 163489, Control_c, 0, 64, 127
1, 163489, Control_c, 0, 64, 127
1, 163583, Note_on_c, 0, 74, 0
1, 163583, Note_on_c, 0, 72, 50
1, 163583, Note_on_c, 0, 50, 0
1, 163586, Note_on_c, 0, 62, 30
1, 163782, Note_on_c, 0, 72, 0
1, 163782, Note_on_c, 0, 70, 60
1, 163782, Note_on_c, 0, 62, 0
1, 163785, Note_on_c, 0, 54, 36
1, 163981, Note_on_c, 0, 70, 0
1, 163981, Note_on_c, 0, 69, 54
1, 163981, Note_on_c, 0, 54, 0
1, 163984, Note_on_c, 0, 62, 30
1, 164195, Note_on_c, 0, 69, 0
1, 164195, Note_on_c, 0, 70, 64
1, 164195, Note_on_c, 0, 62, 0
1, 164198, Note_on_c, 0, 55, 40
1, 164198, Control_c, 0, 64, 0
1, 164301, Control_c, 0, 64, 127
1, 164396, Note_on_c, 0, 55, 0
1, 164396, Note_on_c, 0, 62, 35
1, 164597, Note_on_c, 0, 62, 0
1, 164597, Note_on_c, 0, 58, 40
1, 164793, Note_on_c, 0, 70, 0
1, 164793, Note_on_c, 0, 74, 64
1, 164793, Note_on_c, 0, 58, 0
1, 164796, Note_on_c, 0, 62, 37
1, 164994, Note_on_c, 0, 74, 0
1, 164994, Note_on_c, 0, 79, 72
1, 164994, Note_on_c, 0, 62, 0
1, 164997, Note_on_c, 0, 55, 48
1, 165189, Note_on_c, 0, 55, 0
1, 165189, Note_on_c, 0, 62, 39
1, 165385, Note_on_c, 0, 62, 0
1, 165385, Note_on_c, 0, 58, 47
1, 165580, Note_on_c, 0, 58, 0
1, 165580, Note_on_c, 0, 62, 35
1, 165776, Note_on_c, 0, 79, 0
1, 165776, Note_on_c, 0, 62, 0
1, 165776, Note_on_c, 0, 55, 55
1, 165791, Control_c, 0, 64, 0
1, 165890, Control_c, 0, 64, 127
1, 165970, Note_on_c, 0, 55, 0
1, 165970, Note_on_c, 0, 63, 48
1, 166166, Note_on_c, 0, 63, 0
1, 166166, Note_on_c, 0, 58, 50
1, 166365, Note_on_c, 0, 58, 0
1, 166365, Note_on_c, 0, 63, 43
1, 166564, Note_on_c, 0, 77, 69
1, 166564, Note_on_c, 0, 63, 0
1, 166564, Note_on_c, 0, 57, 57
1, 166577, Control_c, 0, 64, 0
1, 166664, Control_c, 0, 64, 127
1, 166758, Note_on_c, 0, 57, 0
1, 166758, Note_on_c, 0, 65, 39
1, 166952, Note_on_c, 0, 65, 0
1, 166952, Note_on_c, 0, 60, 50
1, 167145, Note_on_c, 0, 60, 0
1, 167145, Note_on_c, 0, 65, 40
1, 167339, Note_on_c, 0, 65, 0
1, 167339, Note_on_c, 0, 57, 48
1, 167535, Note_on_c, 0, 77, 0
1, 167535, Note_on_c, 0, 81, 63
1, 167535, Note_on_c, 0, 57, 0
1, 167538, Note_on_c, 0, 65, 40
1, 167730, Note_on_c, 0, 81, 0
1, 167730, Note_on_c, 0, 84, 71
1, 167730, Note_on_c, 0, 65, 0
1, 167733, Note_on_c, 0, 60, 48
1, 167926, Note_on_c, 0, 84, 0
1, 167926, Note_on_c, 0, 82, 64
1, 167926, Note_on_c, 0, 60, 0
1, 167929, Note_on_c, 0, 65, 39
1, 168125, Note_on_c, 0, 82, 0
1, 168125, Note_on_c, 0, 81, 67
1, 168125, Note_on_c, 0, 65, 0
1, 168128, Note_on_c, 0, 57, 48
1, 168138, Control_c, 0, 64, 0
1, 168227, Control_c, 0, 64, 127
1, 168319, Note_on_c, 0, 81, 0
1, 168319, Note_on_c, 0, 79, 53
1, 168319, Note_on_c, 0, 57, 0
1, 168322, Note_on_c, 0, 65, 36
1, 168513, Note_on_c, 0, 79, 0
1, 168513, Note_on_c, 0, 77, 65
1, 168513, Note_on_c, 0, 65, 0
1, 168516, Note_on_c, 0, 60, 42
1, 168707, Note_on_c, 0, 77, 0
1, 168707, Note_on_c, 0, 75, 56
1, 168707, Note_on_c, 0, 60, 0
1, 168710, Note_on_c, 0, 65, 38
1, 168913, Note_on_c, 0, 75, 0
1, 168913, Note_on_c, 0, 74, 63
1, 168913, Note_on_c, 0, 65, 0
1, 168916, Note_on_c, 0, 58, 46
1, 168947, Control_c, 0, 64, 0
1, 169088, Control_c, 0, 64, 127
1, 169107, Note_on_c, 0, 58, 0
1, 169107, Note_on_c, 0, 65, 29
1, 169301, Note_on_c, 0, 65, 0
1, 169301, Note_on_c, 0, 62, 34
1, 169495, Note_on_c, 0, 62, 0
1, 169495, Note_on_c, 0, 65, 26
1, 169689, Note_on_c, 0, 65, 0
1, 169689, Note_on_c, 0, 55, 40
1, 169886, Note_on_c, 0, 74, 0
1, 169886, Note_on_c, 0, 79, 49
1, 169886, Note_on_c, 0, 55, 0
1, 169889, Note_on_c, 0, 62, 30
1, 170083, Note_on_c, 0, 79, 0
1, 170083, Note_on_c, 0, 82, 54
1, 170083, Note_on_c, 0, 62, 0
1, 170086, Note_on_c, 0, 58, 40
1, 170277, Note_on_c, 0, 82, 0
1, 170277, Note_on_c, 0, 81, 46
1, 170277, Note_on_c, 0, 58, 0
1, 170280, Note_on_c, 0, 62, 30
1, 170476, Note_on_c, 0, 81, 0
1, 170476, Note_on_c, 0, 79, 55
1, 170476, Note_on_c, 0, 62, 0
1, 170479, Note_on_c, 0, 50, 42
1, 170489, Control_c, 0, 64, 0
1, 170580, Control_c, 0, 64, 127
1, 170673, Note_on_c, 0, 79, 0
1, 170673, Note_on_c, 0, 77, 46
1, 170673, Note_on_c, 0, 50, 0
1, 170676, Note_on_c, 0, 58, 29
1, 170871, Note_on_c, 0, 77, 0
1, 170871, Note_on_c, 0, 75, 51
1, 170871, Note_on_c, 0, 58, 0
1, 170874, Note_on_c, 0, 53, 35
1, 171068, Note_on_c, 0, 75, 0
1, 171068, Note_on_c, 0, 74, 46
1, 171068, Note_on_c, 0, 53, 0
1, 171071, Note_on_c, 0, 58, 30
1, 171282, Note_on_c, 0, 74, 0
1, 171282, Note_on_c, 0, 70, 57
1, 171282, Note_on_c, 0, 58, 0
1, 171285, Note_on_c, 0, 51, 37
1, 171285, Control_c, 0, 64, 0
1, 171485, Note_on_c, 0, 70, 0
1, 171485, Note_on_c, 0, 72, 49
1, 171485, Note_on_c, 0, 51, 0
1, 171488, Note_on_c, 0, 60, 26
1, 171488, Control_c, 0, 64, 127
1, 171688, Note_on_c, 0, 72, 0
1, 171688, Note_on_c, 0, 75, 46
1, 171688, Note_on_c, 0, 60, 0
1, 171691, Note_on_c, 0, 55, 33
1, 171890, Note_on_c, 0, 75, 0
1, 171890, Note_on_c, 0, 79, 46
1, 171890, Note_on_c, 0, 55, 0
1, 171893, Note_on_c, 0, 60, 29
1, 172104, Note_on_c, 0, 79, 0
1, 172104, Note_on_c, 0, 70, 53
1, 172104, Note_on_c, 0, 60, 0
1, 172107, Note_on_c, 0, 53, 39
1, 172121, Control_c, 0, 64, 0
1, 172209, Control_c, 0, 64, 127
1, 172303, Note_on_c, 0, 53, 0
1, 172303, Note_on_c, 0, 62, 26
1, 172503, Note_on_c, 0, 62, 0
1, 172503, Note_on_c, 0, 58, 35
1, 172702, Note_on_c, 0, 70, 0
1, 172702, Note_on_c, 0, 70, 46
1, 172702, Note_on_c, 0, 58, 0
1, 172705, Note_on_c, 0, 62, 28
1, 172901, Note_on_c, 0, 70, 0
1, 172901, Note_on_c, 0, 74, 53
1, 172901, Note_on_c, 0, 62, 0
1, 172904, Note_on_c, 0, 53, 39
1, 172920, Control_c, 0, 64, 0
1, 173039, Control_c, 0, 64, 127
1, 173109, Note_on_c, 0, 74, 0
1, 173109, Note_on_c, 0, 72, 44
1, 173109, Note_on_c, 0, 53, 0
1, 173112, Note_on_c, 0, 63, 30
1, 173317, Note_on_c, 0, 72, 0
1, 173317, Note_on_c, 0, 70, 52
1, 173317, Note_on_c, 0, 63, 0
1, 173320, Note_on_c, 0, 60, 36
1, 173525, Note_on_c, 0, 70, 0
1, 173525, Note_on_c, 0, 72, 45
1, 173525, Note_on_c, 0, 60, 0
1, 173528, Note_on_c, 0, 63, 29
1, 173781, Note_on_c, 0, 72, 0
1, 173781, Note_on_c, 0, 69, 51
1, 173781, Note_on_c, 0, 72, 61
1, 173784, Note_on_c, 0, 63, 0
1, 173784, Note_on_c, 0, 58, 34
1, 173784, Note_on_c, 0, 63, 40
1, 173787, Control_c, 0, 64, 0
1, 174160, Control_c, 0, 64, 127
1, 174759, Note_on_c, 0, 72, 0
1, 174759, Note_on_c, 0, 69, 0
1, 174759, Note_on_c, 0, 70, 53
1, 174762, Note_on_c, 0, 63, 0
1, 174762, Note_on_c, 0, 62, 28
1, 174873, Control_c, 0, 64, 0
1, 174960, Note_on_c, 0, 69, 43
1, 174980, Note_on_c, 0, 70, 0
1, 175161, Note_on_c, 0, 72, 48
1, 175181, Note_on_c, 0, 69, 0
1, 175358, Note_on_c, 0, 70, 42
1, 175378, Note_on_c, 0, 72, 0
1, 175555, Note_on_c, 0, 74, 48
1, 175555, Note_on_c, 0, 62, 0
1, 175555, Note_on_c, 0, 58, 0
1, 175576, Note_on_c, 0, 70, 0
1, 175756, Note_on_c, 0, 72, 47
1, 175777, Note_on_c, 0, 74, 0
1, 175961, Note_on_c, 0, 75, 50
1, 175981, Note_on_c, 0, 72, 0
1, 176165, Note_on_c, 0, 74, 53
1, 176188, Note_on_c, 0, 75, 0
1, 176393, Note_on_c, 0, 77, 68
1, 176393, Note_on_c, 0, 56, 47
1, 176413, Note_on_c, 0, 74, 0
1, 176498, Control_c, 0, 64, 127
1, 176498, Control_c, 0, 64, 127
1, 176597, Note_on_c, 0, 56, 0
1, 176597, Note_on_c, 0, 65, 32
1, 176801, Note_on_c, 0, 65, 0
1, 176801, Note_on_c, 0, 60, 38
1, 177006, Note_on_c, 0, 60, 0
1, 177006, Note_on_c, 0, 65, 31
1, 177210, Note_on_c, 0, 65, 0
1, 177210, Note_on_c, 0, 55, 40
1, 177225, Control_c, 0, 64, 0
1, 177361, Control_c, 0, 64, 127
1, 177409, Note_on_c, 0, 77, 0
1, 177409, Note_on_c, 0, 80, 56
1, 177409, Note_on_c, 0, 55, 0
1, 177412, Note_on_c, 0, 62, 32
1, 177609, Note_on_c, 0, 80, 0
1, 177609, Note_on_c, 0, 79, 62
1, 177609, Note_on_c, 0, 62, 0
1, 177612, Note_on_c, 0, 59, 37
1, 177806, Note_on_c, 0, 79, 0
1, 177806, Note_on_c, 0, 77, 57
1, 177806, Note_on_c, 0, 59, 0
1, 177809, Note_on_c, 0, 62, 31
1, 178005, Note_on_c, 0, 77, 0
1, 178005, Note_on_c, 0, 75, 63
1, 178005, Note_on_c, 0, 62, 0
1, 178008, Note_on_c, 0, 53, 40
1, 178008, Control_c, 0, 64, 0
1, 178008, Control_c, 0, 64, 0
1, 178109, Control_c, 0, 64, 127
1, 178109, Control_c, 0, 64, 127
1, 178204, Note_on_c, 0, 75, 0
1, 178204, Note_on_c, 0, 74, 46
1, 178204, Note_on_c, 0, 53, 0
1, 178207, Note_on_c, 0, 62, 32
1, 178403, Note_on_c, 0, 74, 0
1, 178403, Note_on_c, 0, 72, 57
1, 178403, Note_on_c, 0, 62, 0
1, 178406, Note_on_c, 0, 55, 37
1, 178602, Note_on_c, 0, 72, 0
1, 178602, Note_on_c, 0, 71, 44
1, 178602, Note_on_c, 0, 55, 0
1, 178605, Note_on_c, 0, 62, 32
1, 178816, Note_on_c, 0, 71, 0
1, 178816, Note_on_c, 0, 72, 60
1, 178816, Note_on_c, 0, 62, 0
1, 178819, Note_on_c, 0, 51, 40
1, 178819, Control_c, 0, 64, 0
1, 178922, Control_c, 0, 64, 127
1, 179017, Note_on_c, 0, 51, 0
1, 179017, Note_on_c, 0, 60, 33
1, 179218, Note_on_c, 0, 60, 0
1, 179218, Note_on_c, 0, 55, 40
1, 179419, Note_on_c, 0, 72, 0
1, 179419, Note_on_c, 0, 75, 62
1, 179419, Note_on_c, 0, 55, 0
1, 179422, Note_on_c, 0, 60, 28
1, 179623, Note_on_c, 0, 75, 0
1, 179623, Note_on_c, 0, 79, 67
1, 179623, Note_on_c, 0, 60, 0
1, 179626, Note_on_c, 0, 50, 44
1, 179639, Control_c, 0, 64, 0
1, 179744, Control_c, 0, 64, 127
1, 179819, Note_on_c, 0, 50, 0
1, 179819, Note_on_c, 0, 59, 36
1, 180014, Note_on_c, 0, 59, 0
1, 180014, Note_on_c, 0, 53, 42
1, 180210, Note_on_c, 0, 53, 0
1, 180210, Note_on_c, 0, 59, 33
1, 180405, Note_on_c, 0, 79, 0
1, 180405, Note_on_c, 0, 59, 0
1, 180405, Note_on_c, 0, 48, 49
1, 180420, Control_c, 0, 64, 0
1, 180520, Control_c, 0, 64, 127
1, 180599, Note_on_c, 0, 48, 0
1, 180599, Note_on_c, 0, 60, 41
1, 180796, Note_on_c, 0, 60, 0
1, 180796, Note_on_c, 0, 51, 49
1, 180994, Note_on_c, 0, 51, 0
1, 180994, Note_on_c, 0, 60, 43
1, 181209, Note_on_c, 0, 79, 74
1, 181209, Note_on_c, 0, 60, 0
1, 181209, Note_on_c, 0, 49, 62
1, 181212, Control_c, 0, 64, 0
1, 181314, Control_c, 0, 64, 127
1, 181314, Control_c, 0, 64, 127
1, 181314, Control_c, 0, 64, 127
1, 181413, Note_on_c, 0, 49, 0
1, 181413, Note_on_c, 0, 58, 45
1, 181610, Note_on_c, 0, 58, 0
1, 181610, Note_on_c, 0, 52, 53
1, 181808, Note_on_c, 0, 52, 0
1, 181808, Note_on_c, 0, 58, 39
1, 182005, Note_on_c, 0, 58, 0
1, 182005, Note_on_c, 0, 50, 53
1, 182020, Control_c, 0, 64, 0
1, 182138, Control_c, 0, 64, 127
1, 182204, Note_on_c, 0, 79, 0
1, 182204, Note_on_c, 0, 78, 64
1, 182204, Note_on_c, 0, 50, 0
1, 182207, Note_on_c, 0, 58, 41
1, 182403, Note_on_c, 0, 78, 0
1, 182403, Note_on_c, 0, 81, 70
1, 182403, Note_on_c, 0, 58, 0
1, 182406, Note_on_c, 0, 55, 48
1, 182600, Note_on_c, 0, 81, 0
1, 182600, Note_on_c, 0, 79, 62
1, 182600, Note_on_c, 0, 55, 0
1, 182603, Note_on_c, 0, 58, 41
1, 182799, Note_on_c, 0, 79, 0
1, 182799, Note_on_c, 0, 82, 70
1, 182799, Note_on_c, 0, 58, 0
1, 182802, Note_on_c, 0, 51, 50
1, 182802, Control_c, 0, 64, 0
1, 182802, Control_c, 0, 64, 0
1, 182802, Control_c, 0, 64, 0
1, 182904, Control_c, 0, 64, 127
1, 182904, Control_c, 0, 64, 127
1, 182904, Control_c, 0, 64, 127
1, 182998, Note_on_c, 0, 82, 0
1, 182998, Note_on_c, 0, 73, 64
1, 182998, Note_on_c, 0, 51, 0
1, 183001, Note_on_c, 0, 58, 33
1, 183197, Note_on_c, 0, 73, 0
1, 183197, Note_on_c, 0, 82, 67
1, 183197, Note_on_c, 0, 58, 0
1, 183200, Note_on_c, 0, 55, 46
1, 183396, Note_on_c, 0, 82, 0
1, 183396, Note_on_c, 0, 73, 50
1, 183396, Note_on_c, 0, 55, 0
1, 183399, Note_on_c, 0, 58, 40
1, 183611, Note_on_c, 0, 73, 0
1, 183611, Note_on_c, 0, 73, 65
1, 183611, Note_on_c, 0, 58, 0
1, 183614, Note_on_c, 0, 50, 51
1, 183614, Control_c, 0, 64, 0
1, 183614, Control_c, 0, 64, 0
1, 183716, Control_c, 0, 64, 127
1, 183716, Control_c, 0, 64, 127
1, 183812, Note_on_c, 0, 50, 0
1, 183812, Note_on_c, 0, 58, 32
1, 184012, Note_on_c, 0, 58, 0
1, 184012, Note_on_c, 0, 55, 36
1, 184208, Note_on_c, 0, 55, 0
1, 184208, Note_on_c, 0, 58, 32
1, 184409, Note_on_c, 0, 73, 0
1, 184409, Note_on_c, 0, 74, 65
1, 184409, Note_on_c, 0, 58, 0
1, 184412, Note_on_c, 0, 50, 48
1, 184427, Control_c, 0, 64, 0
1, 184577, Control_c, 0, 64, 127
1, 184604, Note_on_c, 0, 50, 0
1, 184604, Note_on_c, 0, 57, 39
1, 184800, Note_on_c, 0, 57, 0
1, 184800, Note_on_c, 0, 54, 49
1, 184995, Note_on_c, 0, 54, 0
1, 184995, Note_on_c, 0, 57, 42
1, 185191, Note_on_c, 0, 74, 0
1, 185191, Note_on_c, 0, 57, 0
1, 185191, Note_on_c, 0, 50, 55
1, 185206, Control_c, 0, 64, 0
1, 185305, Control_c, 0, 64, 127
1, 185385, Note_on_c, 0, 50, 0
1, 185385, Note_on_c, 0, 57, 46
1, 185581, Note_on_c, 0, 57, 0
1, 185581, Note_on_c, 0, 54, 53
1, 185780, Note_on_c, 0, 54, 0
1, 185780, Note_on_c, 0, 57, 46
1, 185979, Note_on_c, 0, 75, 73
1, 185979, Note_on_c, 0, 57, 0
1, 185979, Note_on_c, 0, 48, 63
1, 185982, Control_c, 0, 64, 0
1, 185992, Control_c, 0, 64, 0
1, 186079, Control_c, 0, 64, 127
1, 186079, Control_c, 0, 64, 127
1, 186173, Note_on_c, 0, 48, 0
1, 186173, Note_on_c, 0, 57, 47
1, 186367, Note_on_c, 0, 57, 0
1, 186367, Note_on_c, 0, 54, 55
1, 186561, Note_on_c, 0, 54, 0
1, 186561, Note_on_c, 0, 57, 49
1, 186755, Note_on_c, 0, 57, 0
1, 186755, Note_on_c, 0, 48, 58
1, 186950, Note_on_c, 0, 75, 0
1, 186950, Note_on_c, 0, 72, 65
1, 186950, Note_on_c, 0, 48, 0
1, 186953, Note_on_c, 0, 57, 44
1, 187146, Note_on_c, 0, 72, 0
1, 187146, Note_on_c, 0, 81, 74
1, 187146, Note_on_c, 0, 57, 0
1, 187149, Note_on_c, 0, 54, 54
1, 187341, Note_on_c, 0, 81, 0
1, 187341, Note_on_c, 0, 78, 71
1, 187341, Note_on_c, 0, 54, 0
1, 187344, Note_on_c, 0, 57, 47
1, 187540, Note_on_c, 0, 78, 0
1, 187540, Note_on_c, 0, 84, 76
1, 187540, Note_on_c, 0, 57, 0
1, 187543, Note_on_c, 0, 48, 59
1, 187734, Note_on_c, 0, 84, 0
1, 187734, Note_on_c, 0, 81, 73
1, 187734, Note_on_c, 0, 48, 0
1, 187737, Note_on_c, 0, 57, 43
1, 187928, Note_on_c, 0, 81, 0
1, 187928, Note_on_c, 0, 87, 81
1, 187928, Note_on_c, 0, 57, 0
1, 187931, Note_on_c, 0, 54, 50
1, 188122, Note_on_c, 0, 87, 0
1, 188122, Note_on_c, 0, 78, 75
1, 188122, Note_on_c, 0, 54, 0
1, 188125, Note_on_c, 0, 57, 34
1, 188328, Note_on_c, 0, 78, 0
1, 188328, Note_on_c, 0, 86, 85
1, 188328, Note_on_c, 0, 57, 0
1, 188331, Note_on_c, 0, 46, 57
1, 188362, Control_c, 0, 64, 0
1, 188503, Control_c, 0, 64, 127
1, 188522, Note_on_c, 0, 46, 0
1, 188522, Note_on_c, 0, 55, 44
1, 188716, Note_on_c, 0, 55, 0
1, 188716, Note_on_c, 0, 50, 50
1, 188910, Note_on_c, 0, 50, 0
1, 188910, Note_on_c, 0, 55, 42
1, 189104, Note_on_c, 0, 55, 0
1, 189104, Note_on_c, 0, 46, 50
1, 189301, Note_on_c, 0, 86, 0
1, 189301, Note_on_c, 0, 81, 64
1, 189301, Note_on_c, 0, 46, 0
1, 189304, Note_on_c, 0, 55, 38
1, 189498, Note_on_c, 0, 81, 0
1, 189498, Note_on_c, 0, 82, 70
1, 189498, Note_on_c, 0, 55, 0
1, 189501, Note_on_c, 0, 50, 46
1, 189692, Note_on_c, 0, 82, 0
1, 189692, Note_on_c, 0, 78, 59
1, 189692, Note_on_c, 0, 50, 0
1, 189695, Note_on_c, 0, 55, 37
1, 189891, Note_on_c, 0, 78, 0
1, 189891, Note_on_c, 0, 79, 66
1, 189891, Note_on_c, 0, 55, 0
1, 189894, Note_on_c, 0, 46, 42
1, 189905, Control_c, 0, 64, 0
1, 189995, Control_c, 0, 64, 127
1, 190089, Note_on_c, 0, 79, 0
1, 190089, Note_on_c, 0, 73, 54
1, 190089, Note_on_c, 0, 46, 0
1, 190092, Note_on_c, 0, 55, 29
1, 190286, Note_on_c, 0, 73, 0
1, 190286, Note_on_c, 0, 74, 60
1, 190286, Note_on_c, 0, 55, 0
1, 190289, Note_on_c, 0, 50, 35
1, 190483, Note_on_c, 0, 74, 0
1, 190483, Note_on_c, 0, 70, 46
1, 190483, Note_on_c, 0, 50, 0
1, 190486, Note_on_c, 0, 55, 30
1, 190698, Note_on_c, 0, 70, 0
1, 190698, Note_on_c, 0, 70, 57
1, 190698, Note_on_c, 0, 55, 0
1, 190701, Note_on_c, 0, 48, 37
1, 190701, Control_c, 0, 64, 0
1, 190900, Note_on_c, 0, 70, 0
1, 190900, Note_on_c, 0, 69, 49
1, 190900, Note_on_c, 0, 48, 0
1, 190903, Note_on_c, 0, 57, 26
1, 190903, Control_c, 0, 64, 127
1, 191103, Note_on_c, 0, 69, 0
1, 191103, Note_on_c, 0, 72, 46
1, 191103, Note_on_c, 0, 57, 0
1, 191106, Note_on_c, 0, 51, 33
1, 191305, Note_on_c, 0, 72, 0
1, 191305, Note_on_c, 0, 75, 46
1, 191305, Note_on_c, 0, 51, 0
1, 191308, Note_on_c, 0, 57, 29
1, 191520, Note_on_c, 0, 75, 0
1, 191520, Note_on_c, 0, 67, 53
1, 191520, Note_on_c, 0, 57, 0
1, 191523, Note_on_c, 0, 50, 39
1, 191536, Control_c, 0, 64, 0
1, 191624, Control_c, 0, 64, 127
1, 191719, Note_on_c, 0, 50, 0
1, 191719, Note_on_c, 0, 58, 29
1, 191918, Note_on_c, 0, 58, 0
1, 191918, Note_on_c, 0, 55, 37
1, 192117, Note_on_c, 0, 67, 0
1, 192117, Note_on_c, 0, 67, 46
1, 192117, Note_on_c, 0, 55, 0
1, 192120, Note_on_c, 0, 58, 29
1, 192316, Note_on_c, 0, 67, 0
1, 192316, Note_on_c, 0, 70, 53
1, 192316, Note_on_c, 0, 58, 0
1, 192319, Note_on_c, 0, 50, 39
1, 192335, Control_c, 0, 64, 0
1, 192455, Control_c, 0, 64, 127
1, 192524, Note_on_c, 0, 70, 0
1, 192524, Note_on_c, 0, 69, 44
1, 192524, Note_on_c, 0, 50, 0
1, 192527, Note_on_c, 0, 60, 30
1, 192732, Note_on_c, 0, 69, 0
1, 192732, Note_on_c, 0, 67, 52
1, 192732, Note_on_c, 0, 60, 0
1, 192735, Note_on_c, 0, 57, 36
1, 192941, Note_on_c, 0, 67, 0
1, 192941, Note_on_c, 0, 69, 45
1, 192941, Note_on_c, 0, 57, 0
1, 192944, Note_on_c, 0, 60, 29
1, 193196, Note_on_c, 0, 69, 0
1, 193196, Note_on_c, 0, 66, 51
1, 193196, Note_on_c, 0, 69, 61
1, 193199, Note_on_c, 0, 60, 0
1, 193199, Note_on_c, 0, 55, 34
1, 193199, Note_on_c, 0, 60, 40
1, 193202, Control_c, 0, 64, 0
1, 193575, Control_c, 0, 64, 127
1, 194174, Note_on_c, 0, 69, 0
1, 194174, Note_on_c, 0, 66, 0
1, 194174, Note_on_c, 0, 67, 53
1, 194177, Note_on_c, 0, 60, 0
1, 194177, Note_on_c, 0, 58, 28
1, 194293, Control_c, 0, 64, 0
1, 194383, Note_on_c, 0, 66, 43
1, 194404, Note_on_c, 0, 67, 0
1, 194591, Note_on_c, 0, 67, 48
1, 194611, Note_on_c, 0, 66, 0
1, 194794, Note_on_c, 0, 68, 42
1, 194814, Note_on_c, 0, 67, 0
1, 194996, Note_on_c, 0, 69, 48
1, 194996, Note_on_c, 0, 58, 0
1, 194996, Note_on_c, 0, 55, 0
1, 195017, Note_on_c, 0, 68, 0
1, 195205, Note_on_c, 0, 68, 46
1, 195226, Note_on_c, 0, 69, 0
1, 195417, Note_on_c, 0, 69, 43
1, 195438, Note_on_c, 0, 68, 0
1, 195629, Note_on_c, 0, 70, 41
1, 195653, Note_on_c, 0, 69, 0
1, 195866, Note_on_c, 0, 71, 48
1, 195866, Note_on_c, 0, 55, 36
1, 195886, Note_on_c, 0, 70, 0
1, 195971, Control_c, 0, 64, 127
1, 196070, Note_on_c, 0, 55, 0
1, 196070, Note_on_c, 0, 62, 22
1, 196275, Note_on_c, 0, 62, 0
1, 196275, Note_on_c, 0, 59, 25
1, 196479, Note_on_c, 0, 59, 0
1, 196479, Note_on_c, 0, 62, 24
1, 196684, Note_on_c, 0, 62, 0
1, 196684, Note_on_c, 0, 55, 40
1, 196888, Note_on_c, 0, 55, 0
1, 196888, Note_on_c, 0, 62, 29
1, 197093, Note_on_c, 0, 62, 0
1, 197093, Note_on_c, 0, 59, 35
1, 197297, Note_on_c, 0, 59, 0
1, 197297, Note_on_c, 0, 62, 30
1, 197502, Note_on_c, 0, 71, 0
1, 197502, Note_on_c, 0, 74, 50
1, 197502, Note_on_c, 0, 62, 0
1, 197505, Note_on_c, 0, 57, 40
1, 197505, Control_c, 0, 64, 0
1, 197609, Control_c, 0, 64, 127
1, 197706, Note_on_c, 0, 74, 0
1, 197706, Note_on_c, 0, 72, 46
1, 197706, Note_on_c, 0, 57, 0
1, 197709, Note_on_c, 0, 62, 32
1, 197911, Note_on_c, 0, 72, 0
1, 197911, Note_on_c, 0, 71, 46
1, 197911, Note_on_c, 0, 62, 0
1, 197914, Note_on_c, 0, 60, 40
1, 198115, Note_on_c, 0, 71, 0
1, 198115, Note_on_c, 0, 72, 48
1, 198115, Note_on_c, 0, 60, 0
1, 198118, Note_on_c, 0, 62, 35
1, 198345, Note_on_c, 0, 72, 0
1, 198345, Note_on_c, 0, 74, 54
1, 198345, Note_on_c, 0, 62, 0
1, 198348, Note_on_c, 0, 55, 43
1, 198348, Control_c, 0, 64, 0
1, 198451, Control_c, 0, 64, 127
1, 198547, Note_on_c, 0, 55, 0
1, 198547, Note_on_c, 0, 62, 28
1, 198750, Note_on_c, 0, 62, 0
1, 198750, Note_on_c, 0, 59, 32
1, 198953, Note_on_c, 0, 74, 0
1, 198953, Note_on_c, 0, 71, 47
1, 198953, Note_on_c, 0, 59, 0
1, 198956, Note_on_c, 0, 62, 28
1, 199165, Note_on_c, 0, 71, 0
1, 199165, Note_on_c, 0, 67, 47
1, 199165, Note_on_c, 0, 62, 0
1, 199168, Note_on_c, 0, 55, 40
1, 199367, Note_on_c, 0, 55, 0
1, 199367, Note_on_c, 0, 62, 29
1, 199570, Note_on_c, 0, 62, 0
1, 199570, Note_on_c, 0, 59, 39
1, 199773, Note_on_c, 0, 59, 0
1, 199773, Note_on_c, 0, 62, 36
1, 199975, Note_on_c, 0, 67, 0
1, 199975, Note_on_c, 0, 62, 0
1, 199975, Note_on_c, 0, 55, 48
1, 199990, Control_c, 0, 64, 0
1, 200095, Control_c, 0, 64, 127
1, 200178, Note_on_c, 0, 55, 0
1, 200178, Note_on_c, 0, 62, 38
1, 200381, Note_on_c, 0, 62, 0
1, 200381, Note_on_c, 0, 59, 48
1, 200583, Note_on_c, 0, 59, 0
1, 200583, Note_on_c, 0, 62, 45
1, 200806, Note_on_c, 0, 79, 67
1, 200806, Note_on_c, 0, 62, 0
1, 200806, Note_on_c, 0, 55, 53
1, 200809, Control_c, 0, 64, 0
1, 200911, Control_c, 0, 64, 127
1, 201009, Note_on_c, 0, 55, 0
1, 201009, Note_on_c, 0, 64, 37
1, 201211, Note_on_c, 0, 64, 0
1, 201211, Note_on_c, 0, 60, 47
1, 201414, Note_on_c, 0, 60, 0
1, 201414, Note_on_c, 0, 64, 41
1, 201616, Note_on_c, 0, 64, 0
1, 201616, Note_on_c, 0, 55, 44
1, 201819, Note_on_c, 0, 55, 0
1, 201819, Note_on_c, 0, 64, 34
1, 202033, Note_on_c, 0, 79, 0
1, 202033, Note_on_c, 0, 81, 62
1, 202033, Note_on_c, 0, 64, 0
1, 202036, Note_on_c, 0, 60, 39
1, 202236, Note_on_c, 0, 81, 0
1, 202236, Note_on_c, 0, 79, 55
1, 202236, Note_on_c, 0, 60, 0
1, 202239, Note_on_c, 0, 64, 34
1, 202439, Note_on_c, 0, 79, 0
1, 202439, Note_on_c, 0, 78, 57
1, 202439, Note_on_c, 0, 64, 0
1, 202442, Note_on_c, 0, 55, 40
1, 202442, Control_c, 0, 64, 0
1, 202545, Control_c, 0, 64, 127
1, 202641, Note_on_c, 0, 78, 0
1, 202641, Note_on_c, 0, 76, 46
1, 202641, Note_on_c, 0, 55, 0
1, 202644, Note_on_c, 0, 61, 26
1, 202844, Note_on_c, 0, 76, 0
1, 202844, Note_on_c, 0, 74, 51
1, 202844, Note_on_c, 0, 61, 0
1, 202847, Note_on_c, 0, 58, 34
1, 203046, Note_on_c, 0, 74, 0
1, 203046, Note_on_c, 0, 73, 46
1, 203046, Note_on_c, 0, 58, 0
1, 203049, Note_on_c, 0, 61, 27
1, 203263, Note_on_c, 0, 73, 0
1, 203263, Note_on_c, 0, 74, 53
1, 203263, Note_on_c, 0, 61, 0
1, 203266, Note_on_c, 0, 55, 40
1, 203266, Control_c, 0, 64, 0
1, 203369, Control_c, 0, 64, 127
1, 203465, Note_on_c, 0, 55, 0
1, 203465, Note_on_c, 0, 62, 26
1, 203668, Note_on_c, 0, 62, 0
1, 203668, Note_on_c, 0, 59, 31
1, 203871, Note_on_c, 0, 74, 0
1, 203871, Note_on_c, 0, 71, 47
1, 203871, Note_on_c, 0, 59, 0
1, 203874, Note_on_c, 0, 62, 27
1, 204083, Note_on_c, 0, 71, 0
1, 204083, Note_on_c, 0, 67, 45
1, 204083, Note_on_c, 0, 62, 0
1, 204086, Note_on_c, 0, 55, 40
1, 204285, Note_on_c, 0, 55, 0
1, 204285, Note_on_c, 0, 62, 26
1, 204488, Note_on_c, 0, 62, 0
1, 204488, Note_on_c, 0, 59, 30
1, 204691, Note_on_c, 0, 59, 0
1, 204691, Note_on_c, 0, 62, 27
1, 204893, Note_on_c, 0, 67, 0
1, 204893, Note_on_c, 0, 62, 0
1, 204893, Note_on_c, 0, 55, 41
1, 204908, Control_c, 0, 64, 0
1, 205012, Control_c, 0, 64, 127
1, 205094, Note_on_c, 0, 55, 0
1, 205094, Note_on_c, 0, 62, 25
1, 205295, Note_on_c, 0, 62, 0
1, 205295, Note_on_c, 0, 59, 30
1, 205496, Note_on_c, 0, 59, 0
1, 205496, Note_on_c, 0, 62, 25
1, 205697, Note_on_c, 0, 72, 50
1, 205697, Note_on_c, 0, 62, 0
1, 205697, Note_on_c, 0, 57, 40
1, 205778, Control_c, 0, 64, 0
1, 205901, Note_on_c, 0, 57, 0
1, 205901, Note_on_c, 0, 62, 27
1, 205901, Control_c, 0, 64, 127
1, 206106, Note_on_c, 0, 62, 0
1, 206106, Note_on_c, 0, 60, 32
1, 206306, Note_on_c, 0, 72, 0
1, 206306, Note_on_c, 0, 69, 47
1, 206306, Note_on_c, 0, 60, 0
1, 206309, Note_on_c, 0, 62, 27
1, 206507, Note_on_c, 0, 69, 0
1, 206507, Note_on_c, 0, 66, 52
1, 206507, Note_on_c, 0, 62, 0
1, 206510, Note_on_c, 0, 57, 40
1, 206543, Control_c, 0, 64, 0
1, 206703, Note_on_c, 0, 66, 0
1, 206703, Note_on_c, 0, 57, 0
1, 206703, Note_on_c, 0, 62, 30
1, 206898, Note_on_c, 0, 69, 47
1, 206898, Note_on_c, 0, 62, 0
1, 206898, Note_on_c, 0, 60, 33
1, 207094, Note_on_c, 0, 69, 0
1, 207094, Note_on_c, 0, 60, 0
1, 207094, Note_on_c, 0, 62, 28
1, 207290, Note_on_c, 0, 71, 51
1, 207290, Note_on_c, 0, 62, 0
1, 207290, Note_on_c, 0, 57, 44
1, 207489, Note_on_c, 0, 71, 0
1, 207489, Note_on_c, 0, 57, 0
1, 207489, Note_on_c, 0, 62, 33
1, 207691, Note_on_c, 0, 72, 52
1, 207691, Note_on_c, 0, 62, 0
1, 207691, Note_on_c, 0, 60, 40
1, 207894, Note_on_c, 0, 72, 0
1, 207894, Note_on_c, 0, 60, 0
1, 207894, Note_on_c, 0, 62, 33
1, 208112, Note_on_c, 0, 74, 57
1, 208112, Note_on_c, 0, 62, 0
1, 208112, Note_on_c, 0, 55, 46
1, 208115, Control_c, 0, 64, 0
1, 208219, Control_c, 0, 64, 127
1, 208315, Note_on_c, 0, 55, 0
1, 208315, Note_on_c, 0, 62, 33
1, 208518, Note_on_c, 0, 62, 0
1, 208518, Note_on_c, 0, 59, 40
1, 208720, Note_on_c, 0, 74, 0
1, 208720, Note_on_c, 0, 71, 61
1, 208720, Note_on_c, 0, 59, 0
1, 208723, Note_on_c, 0, 62, 37
1, 208923, Note_on_c, 0, 71, 0
1, 208923, Note_on_c, 0, 79, 65
1, 208923, Note_on_c, 0, 62, 0
1, 208926, Note_on_c, 0, 52, 46
1, 209122, Note_on_c, 0, 52, 0
1, 209122, Note_on_c, 0, 59, 38
1, 209321, Note_on_c, 0, 59, 0
1, 209321, Note_on_c, 0, 55, 42
1, 209520, Note_on_c, 0, 55, 0
1, 209520, Note_on_c, 0, 59, 38
1, 209719, Note_on_c, 0, 79, 0
1, 209719, Note_on_c, 0, 59, 0
1, 209719, Note_on_c, 0, 47, 53
1, 209734, Control_c, 0, 64, 0
1, 209837, Control_c, 0, 64, 127
1, 209918, Note_on_c, 0, 47, 0
1, 209918, Note_on_c, 0, 55, 44
1, 210121, Note_on_c, 0, 55, 0
1, 210121, Note_on_c, 0, 50, 48
1, 210323, Note_on_c, 0, 50, 0
1, 210323, Note_on_c, 0, 55, 39
1, 210546, Note_on_c, 0, 81, 68
1, 210546, Note_on_c, 0, 55, 0
1, 210546, Note_on_c, 0, 48, 49
1, 210549, Note_on_c, 0, 52, 58
1, 210549, Control_c, 0, 64, 0
1, 210747, Note_on_c, 0, 79, 59
1, 210767, Note_on_c, 0, 81, 0
1, 210948, Note_on_c, 0, 78, 64
1, 210968, Note_on_c, 0, 79, 0
1, 211148, Note_on_c, 0, 79, 58
1, 211169, Note_on_c, 0, 78, 0
1, 211349, Note_on_c, 0, 79, 0
1, 211349, Note_on_c, 0, 78, 64
1, 211349, Note_on_c, 0, 52, 0
1, 211352, Note_on_c, 0, 55, 34
1, 211550, Note_on_c, 0, 76, 54
1, 211570, Note_on_c, 0, 78, 0
1, 211751, Note_on_c, 0, 75, 59
1, 211771, Note_on_c, 0, 76, 0
1, 211952, Note_on_c, 0, 76, 53
1, 211972, Note_on_c, 0, 75, 0
1, 212153, Note_on_c, 0, 76, 0
1, 212153, Note_on_c, 0, 74, 62
1, 212153, Note_on_c, 0, 48, 0
1, 212156, Note_on_c, 0, 52, 34
1, 212353, Note_on_c, 0, 72, 53
1, 212374, Note_on_c, 0, 74, 0
1, 212554, Note_on_c, 0, 71, 56
1, 212574, Note_on_c, 0, 72, 0
1, 212755, Note_on_c, 0, 72, 53
1, 212776, Note_on_c, 0, 71, 0
1, 212969, Note_on_c, 0, 72, 0
1, 212969, Note_on_c, 0, 71, 59
1, 212969, Note_on_c, 0, 52, 0
1, 212972, Note_on_c, 0, 55, 0
1, 212972, Note_on_c, 0, 50, 36
1, 212972, Note_on_c, 0, 55, 36
1, 213060, Control_c, 0, 64, 127
1, 213577, Note_on_c, 0, 71, 0
1, 213577, Note_on_c, 0, 72, 50
1, 213679, Note_on_c, 0, 72, 0
1, 213679, Note_on_c, 0, 71, 50
1, 213780, Note_on_c, 0, 71, 0
1, 213780, Note_on_c, 0, 69, 57
1, 213780, Note_on_c, 0, 55, 0
1, 213783, Note_on_c, 0, 54, 28
1, 213783, Control_c, 0, 64, 0
1, 214200, Note_on_c, 0, 69, 0
1, 214200, Note_on_c, 0, 74, 54
1, 214621, Note_on_c, 0, 73, 52
1, 214621, Note_on_c, 0, 54, 0
1, 214621, Note_on_c, 0, 50, 0
1, 214638, Note_on_c, 0, 74, 0
1, 215041, Note_on_c, 0, 72, 50
1, 215059, Note_on_c, 0, 73, 0
1, 215462, Note_on_c, 0, 72, 0
1, 215462, Note_on_c, 0, 71, 50
1, 215462, Note_on_c, 0, 55, 40
1, 215567, Control_c, 0, 64, 127
1, 215666, Note_on_c, 0, 55, 0
1, 215666, Note_on_c, 0, 62, 25
1, 215871, Note_on_c, 0, 62, 0
1, 215871, Note_on_c, 0, 59, 31
1, 216075, Note_on_c, 0, 59, 0
1, 216075, Note_on_c, 0, 62, 26
1, 216280, Note_on_c, 0, 62, 0
1, 216280, Note_on_c, 0, 55, 40
1, 216479, Note_on_c, 0, 71, 0
1, 216479, Note_on_c, 0, 67, 46
1, 216479, Note_on_c, 0, 55, 0
1, 216482, Note_on_c, 0, 62, 27
1, 216666, Note_on_c, 0, 71, 48
1, 216678, Note_on_c, 0, 67, 0
1, 216678, Note_on_c, 0, 62, 0
1, 216678, Note_on_c, 0, 59, 31
1, 216863, Note_on_c, 0, 71, 0
1, 216863, Note_on_c, 0, 74, 46
1, 216875, Note_on_c, 0, 59, 0
1, 216875, Note_on_c, 0, 62, 26
1, 217062, Note_on_c, 0, 74, 0
1, 217074, Note_on_c, 0, 72, 54
1, 217074, Note_on_c, 0, 62, 0
1, 217074, Note_on_c, 0, 57, 40
1, 217079, Control_c, 0, 64, 0
1, 217178, Control_c, 0, 64, 127
1, 217273, Note_on_c, 0, 72, 0
1, 217273, Note_on_c, 0, 69, 46
1, 217273, Note_on_c, 0, 57, 0
1, 217276, Note_on_c, 0, 62, 31
1, 217472, Note_on_c, 0, 69, 0
1, 217472, Note_on_c, 0, 72, 54
1, 217472, Note_on_c, 0, 62, 0
1, 217475, Note_on_c, 0, 60, 36
1, 217671, Note_on_c, 0, 72, 0
1, 217671, Note_on_c, 0, 76, 51
1, 217671, Note_on_c, 0, 60, 0
1, 217674, Note_on_c, 0, 62, 30
1, 217901, Note_on_c, 0, 76, 0
1, 217901, Note_on_c, 0, 74, 58
1, 217901, Note_on_c, 0, 62, 0
1, 217904, Note_on_c, 0, 55, 40
1, 217904, Control_c, 0, 64, 0
1, 218006, Control_c, 0, 64, 127
1, 218101, Note_on_c, 0, 55, 0
1, 218101, Note_on_c, 0, 62, 28
1, 218302, Note_on_c, 0, 62, 0
1, 218302, Note_on_c, 0, 59, 32
1, 218503, Note_on_c, 0, 74, 0
1, 218503, Note_on_c, 0, 71, 47
1, 218503, Note_on_c, 0, 59, 0
1, 218506, Note_on_c, 0, 62, 28
1, 218708, Note_on_c, 0, 71, 0
1, 218708, Note_on_c, 0, 67, 47
1, 218708, Note_on_c, 0, 62, 0
1, 218711, Note_on_c, 0, 55, 40
1, 218765, Control_c, 0, 64, 0
1, 218805, Note_on_c, 0, 67, 0
1, 218903, Note_on_c, 0, 67, 46
1, 218903, Note_on_c, 0, 55, 0
1, 218903, Note_on_c, 0, 62, 33
1, 219001, Note_on_c, 0, 67, 0
1, 219099, Note_on_c, 0, 69, 47
1, 219099, Note_on_c, 0, 62, 0
1, 219099, Note_on_c, 0, 59, 37
1, 219196, Note_on_c, 0, 69, 0
1, 219294, Note_on_c, 0, 71, 48
1, 219294, Note_on_c, 0, 59, 0
1, 219294, Note_on_c, 0, 62, 30
1, 219392, Note_on_c, 0, 71, 0
1, 219490, Note_on_c, 0, 72, 49
1, 219490, Note_on_c, 0, 62, 0
1, 219490, Note_on_c, 0, 55, 47
1, 219587, Note_on_c, 0, 72, 0
1, 219683, Note_on_c, 0, 74, 50
1, 219683, Note_on_c, 0, 55, 0
1, 219683, Note_on_c, 0, 62, 38
1, 219780, Note_on_c, 0, 74, 0
1, 219878, Note_on_c, 0, 76, 51
1, 219878, Note_on_c, 0, 62, 0
1, 219878, Note_on_c, 0, 59, 44
1, 219977, Note_on_c, 0, 76, 0
1, 220077, Note_on_c, 0, 78, 53
1, 220077, Note_on_c, 0, 59, 0
1, 220077, Note_on_c, 0, 62, 42
1, 220184, Note_on_c, 0, 78, 0
1, 220291, Note_on_c, 0, 79, 57
1, 220291, Note_on_c, 0, 62, 0
1, 220291, Note_on_c, 0, 55, 43
1, 220294, Control_c, 0, 64, 0
1, 220394, Control_c, 0, 64, 127
1, 220490, Note_on_c, 0, 79, 0
1, 220490, Note_on_c, 0, 78, 50
1, 220490, Note_on_c, 0, 55, 0
1, 220493, Note_on_c, 0, 64, 34
1, 220689, Note_on_c, 0, 78, 0
1, 220689, Note_on_c, 0, 79, 56
1, 220689, Note_on_c, 0, 64, 0
1, 220692, Note_on_c, 0, 60, 38
1, 220888, Note_on_c, 0, 79, 0
1, 220888, Note_on_c, 0, 78, 52
1, 220888, Note_on_c, 0, 60, 0
1, 220891, Note_on_c, 0, 64, 34
1, 221087, Note_on_c, 0, 78, 0
1, 221087, Note_on_c, 0, 81, 59
1, 221087, Note_on_c, 0, 64, 0
1, 221090, Note_on_c, 0, 55, 44
1, 221286, Note_on_c, 0, 81, 0
1, 221286, Note_on_c, 0, 79, 57
1, 221286, Note_on_c, 0, 55, 0
1, 221289, Note_on_c, 0, 64, 34
1, 221486, Note_on_c, 0, 79, 0
1, 221486, Note_on_c, 0, 78, 54
1, 221486, Note_on_c, 0, 64, 0
1, 221489, Note_on_c, 0, 60, 39
1, 221685, Note_on_c, 0, 78, 0
1, 221685, Note_on_c, 0, 79, 49
1, 221685, Note_on_c, 0, 60, 0
1, 221688, Note_on_c, 0, 64, 34
1, 221884, Note_on_c, 0, 79, 0
1, 221884, Note_on_c, 0, 78, 52
1, 221884, Note_on_c, 0, 64, 0
1, 221887, Note_on_c, 0, 55, 40
1, 221887, Control_c, 0, 64, 0
1, 221990, Control_c, 0, 64, 127
1, 222086, Note_on_c, 0, 78, 0
1, 222086, Note_on_c, 0, 76, 50
1, 222086, Note_on_c, 0, 55, 0
1, 222089, Note_on_c, 0, 61, 26
1, 222289, Note_on_c, 0, 76, 0
1, 222289, Note_on_c, 0, 74, 48
1, 222289, Note_on_c, 0, 61, 0
1, 222292, Note_on_c, 0, 58, 34
1, 222492, Note_on_c, 0, 74, 0
1, 222492, Note_on_c, 0, 73, 46
1, 222492, Note_on_c, 0, 58, 0
1, 222495, Note_on_c, 0, 61, 27
1, 222708, Note_on_c, 0, 73, 0
1, 222708, Note_on_c, 0, 74, 50
1, 222708, Note_on_c, 0, 61, 0
1, 222711, Note_on_c, 0, 55, 40
1, 222711, Control_c, 0, 64, 0
1, 222812, Control_c, 0, 64, 127
1, 222907, Note_on_c, 0, 74, 0
1, 222907, Note_on_c, 0, 71, 43
1, 222907, Note_on_c, 0, 55, 0
1, 222910, Note_on_c, 0, 62, 24
1, 223106, Note_on_c, 0, 71, 0
1, 223106, Note_on_c, 0, 74, 47
1, 223106, Note_on_c, 0, 62, 0
1, 223109, Note_on_c, 0, 59, 31
1, 223305, Note_on_c, 0, 74, 0
1, 223305, Note_on_c, 0, 71, 43
1, 223305, Note_on_c, 0, 59, 0
1, 223308, Note_on_c, 0, 62, 27
1, 223517, Note_on_c, 0, 71, 0
1, 223517, Note_on_c, 0, 67, 47
1, 223517, Note_on_c, 0, 62, 0
1, 223520, Note_on_c, 0, 55, 40
1, 223720, Note_on_c, 0, 55, 0
1, 223720, Note_on_c, 0, 62, 26
1, 223922, Note_on_c, 0, 62, 0
1, 223922, Note_on_c, 0, 59, 33
1, 224125, Note_on_c, 0, 59, 0
1, 224125, Note_on_c, 0, 62, 27
1, 224328, Note_on_c, 0, 67, 0
1, 224328, Note_on_c, 0, 62, 0
1, 224328, Note_on_c, 0, 55, 41
1, 224343, Control_c, 0, 64, 0
1, 224448, Control_c, 0, 64, 127
1, 224530, Note_on_c, 0, 55, 0
1, 224530, Note_on_c, 0, 62, 30
1, 224733, Note_on_c, 0, 62, 0
1, 224733, Note_on_c, 0, 59, 33
1, 224936, Note_on_c, 0, 59, 0
1, 224936, Note_on_c, 0, 62, 29
1, 225138, Note_on_c, 0, 72, 50
1, 225138, Note_on_c, 0, 62, 0
1, 225138, Note_on_c, 0, 57, 40
1, 225219, Control_c, 0, 64, 0
1, 225339, Note_on_c, 0, 72, 0
1, 225339, Note_on_c, 0, 69, 46
1, 225339, Note_on_c, 0, 57, 0
1, 225342, Note_on_c, 0, 62, 27
1, 225342, Control_c, 0, 64, 127
1, 225540, Note_on_c, 0, 69, 0
1, 225540, Note_on_c, 0, 72, 46
1, 225540, Note_on_c, 0, 62, 0
1, 225543, Note_on_c, 0, 60, 32
1, 225741, Note_on_c, 0, 72, 0
1, 225741, Note_on_c, 0, 69, 43
1, 225741, Note_on_c, 0, 60, 0
1, 225744, Note_on_c, 0, 62, 27
1, 225940, Note_on_c, 0, 69, 0
1, 225940, Note_on_c, 0, 66, 50
1, 225940, Note_on_c, 0, 62, 0
1, 225943, Note_on_c, 0, 57, 40
1, 225977, Control_c, 0, 64, 0
1, 226040, Note_on_c, 0, 66, 0
1, 226139, Note_on_c, 0, 69, 46
1, 226139, Note_on_c, 0, 57, 0
1, 226139, Note_on_c, 0, 62, 30
1, 226338, Note_on_c, 0, 69, 0
1, 226338, Note_on_c, 0, 68, 49
1, 226338, Note_on_c, 0, 62, 0
1, 226341, Note_on_c, 0, 60, 33
1, 226536, Note_on_c, 0, 68, 0
1, 226536, Note_on_c, 0, 69, 51
1, 226536, Note_on_c, 0, 60, 0
1, 226539, Note_on_c, 0, 62, 28
1, 226733, Note_on_c, 0, 69, 0
1, 226733, Note_on_c, 0, 70, 54
1, 226733, Note_on_c, 0, 62, 0
1, 226736, Note_on_c, 0, 57, 40
1, 226930, Note_on_c, 0, 70, 0
1, 226930, Note_on_c, 0, 71, 51
1, 226930, Note_on_c, 0, 57, 0
1, 226933, Note_on_c, 0, 62, 31
1, 227129, Note_on_c, 0, 71, 0
1, 227129, Note_on_c, 0, 72, 54
1, 227129, Note_on_c, 0, 62, 0
1, 227132, Note_on_c, 0, 60, 38
1, 227328, Note_on_c, 0, 72, 0
1, 227328, Note_on_c, 0, 73, 56
1, 227328, Note_on_c, 0, 60, 0
1, 227331, Note_on_c, 0, 62, 33
1, 227521, Note_on_c, 0, 73, 0
1, 227521, Note_on_c, 0, 74, 59
1, 227521, Note_on_c, 0, 62, 0
1, 227524, Note_on_c, 0, 55, 40
1, 227524, Control_c, 0, 64, 0
1, 227622, Control_c, 0, 64, 127
1, 227714, Note_on_c, 0, 74, 0
1, 227714, Note_on_c, 0, 71, 51
1, 227714, Note_on_c, 0, 55, 0
1, 227717, Note_on_c, 0, 62, 38
1, 227913, Note_on_c, 0, 71, 0
1, 227913, Note_on_c, 0, 74, 54
1, 227913, Note_on_c, 0, 62, 0
1, 227916, Note_on_c, 0, 59, 42
1, 228113, Note_on_c, 0, 74, 0
1, 228113, Note_on_c, 0, 71, 51
1, 228113, Note_on_c, 0, 59, 0
1, 228116, Note_on_c, 0, 62, 35
1, 228312, Note_on_c, 0, 71, 0
1, 228312, Note_on_c, 0, 79, 63
1, 228312, Note_on_c, 0, 62, 0
1, 228315, Note_on_c, 0, 52, 51
1, 228511, Note_on_c, 0, 52, 0
1, 228511, Note_on_c, 0, 59, 46
1, 228710, Note_on_c, 0, 59, 0
1, 228710, Note_on_c, 0, 55, 50
1, 228909, Note_on_c, 0, 55, 0
1, 228909, Note_on_c, 0, 59, 47
1, 229108, Note_on_c, 0, 79, 0
1, 229108, Note_on_c, 0, 59, 0
1, 229108, Note_on_c, 0, 47, 54
1, 229123, Control_c, 0, 64, 0
1, 229230, Control_c, 0, 64, 127
1, 229314, Note_on_c, 0, 83, 67
1, 229314, Note_on_c, 0, 47, 0
1, 229314, Note_on_c, 0, 55, 42
1, 229517, Note_on_c, 0, 83, 0
1, 229517, Note_on_c, 0, 78, 62
1, 229517, Note_on_c, 0, 55, 0
1, 229520, Note_on_c, 0, 50, 47
1, 229719, Note_on_c, 0, 78, 0
1, 229719, Note_on_c, 0, 79, 56
1, 229719, Note_on_c, 0, 50, 0
1, 229722, Note_on_c, 0, 55, 34
1, 229942, Note_on_c, 0, 79, 0
1, 229942, Note_on_c, 0, 75, 58
1, 229942, Note_on_c, 0, 55, 0
1, 229945, Note_on_c, 0, 48, 40
1, 229945, Control_c, 0, 64, 0
1, 230145, Note_on_c, 0, 75, 0
1, 230145, Note_on_c, 0, 76, 49
1, 230145, Note_on_c, 0, 48, 0
1, 230148, Note_on_c, 0, 57, 26
1, 230148, Control_c, 0, 64, 127
1, 230347, Note_on_c, 0, 76, 0
1, 230347, Note_on_c, 0, 72, 53
1, 230347, Note_on_c, 0, 57, 0
1, 230350, Note_on_c, 0, 52, 33
1, 230550, Note_on_c, 0, 72, 0
1, 230550, Note_on_c, 0, 69, 46
1, 230550, Note_on_c, 0, 52, 0
1, 230553, Note_on_c, 0, 57, 29
1, 230777, Note_on_c, 0, 69, 0
1, 230777, Note_on_c, 0, 67, 53
1, 230777, Note_on_c, 0, 57, 0
1, 230780, Note_on_c, 0, 50, 39
1, 230794, Control_c, 0, 64, 0
1, 230885, Control_c, 0, 64, 127
1, 230982, Note_on_c, 0, 50, 0
1, 230982, Note_on_c, 0, 59, 27
1, 231186, Note_on_c, 0, 59, 0
1, 231186, Note_on_c, 0, 55, 33
1, 231391, Note_on_c, 0, 67, 0
1, 231391, Note_on_c, 0, 67, 44
1, 231391, Note_on_c, 0, 55, 0
1, 231394, Note_on_c, 0, 59, 28
1, 231595, Note_on_c, 0, 67, 0
1, 231595, Note_on_c, 0, 66, 47
1, 231595, Note_on_c, 0, 71, 55
1, 231598, Note_on_c, 0, 59, 0
1, 231598, Note_on_c, 0, 50, 39
1, 231615, Control_c, 0, 64, 0
1, 231737, Control_c, 0, 64, 127
1, 231807, Note_on_c, 0, 71, 0
1, 231807, Note_on_c, 0, 69, 44
1, 231807, Note_on_c, 0, 50, 0
1, 231810, Note_on_c, 0, 60, 27
1, 232020, Note_on_c, 0, 69, 0
1, 232020, Note_on_c, 0, 67, 49
1, 232020, Note_on_c, 0, 60, 0
1, 232023, Note_on_c, 0, 57, 32
1, 232232, Note_on_c, 0, 67, 0
1, 232232, Note_on_c, 0, 69, 42
1, 232232, Note_on_c, 0, 57, 0
1, 232235, Note_on_c, 0, 60, 27
1, 232487, Note_on_c, 0, 69, 0
1, 232487, Note_on_c, 0, 66, 0
1, 232487, Note_on_c, 0, 67, 49
1, 232490, Note_on_c, 0, 60, 0
1, 232490, Note_on_c, 0, 55, 27
1, 232490, Note_on_c, 0, 59, 36
1, 232493, Control_c, 0, 64, 0
1, 232694, Note_on_c, 0, 67, 0
1, 232694, Note_on_c, 0, 66, 43
1, 232900, Note_on_c, 0, 66, 0
1, 232900, Note_on_c, 0, 69, 49
1, 233101, Note_on_c, 0, 69, 0
1, 233101, Note_on_c, 0, 67, 43
1, 233302, Note_on_c, 0, 67, 0
1, 233302, Note_on_c, 0, 71, 49
1, 233302, Note_on_c, 0, 59, 0
1, 233305, Note_on_c, 0, 55, 0
1, 233504, Note_on_c, 0, 71, 0
1, 233504, Note_on_c, 0, 69, 42
1, 233707, Note_on_c, 0, 69, 0
1, 233707, Note_on_c, 0, 72, 48
1, 233908, Note_on_c, 0, 72, 0
1, 233908, Note_on_c, 0, 71, 40
1, 234109, Note_on_c, 0, 71, 0
1, 234109, Note_on_c, 0, 74, 53
1, 234311, Note_on_c, 0, 74, 0
1, 234311, Note_on_c, 0, 72, 46
1, 234514, Note_on_c, 0, 72, 0
1, 234514, Note_on_c, 0, 76, 56
1, 234717, Note_on_c, 0, 76, 0
1, 234717, Note_on_c, 0, 74, 53
1, 234944, Note_on_c, 0, 74, 0
1, 234944, Note_on_c, 0, 77, 59
1, 234944, Note_on_c, 0, 57, 40
1, 235049, Control_c, 0, 64, 127
1, 235148, Note_on_c, 0, 57, 0
1, 235148, Note_on_c, 0, 65, 29
1, 235349, Note_on_c, 0, 65, 0
1, 235349, Note_on_c, 0, 60, 35
1, 235550, Note_on_c, 0, 60, 0
1, 235550, Note_on_c, 0, 65, 30
1, 235751, Note_on_c, 0, 65, 0
1, 235751, Note_on_c, 0, 57, 40
1, 235955, Note_on_c, 0, 57, 0
1, 235955, Note_on_c, 0, 65, 31
1, 236160, Note_on_c, 0, 77, 0
1, 236160, Note_on_c, 0, 79, 56
1, 236160, Note_on_c, 0, 65, 0
1, 236163, Note_on_c, 0, 60, 36
1, 236357, Note_on_c, 0, 79, 0
1, 236357, Note_on_c, 0, 81, 50
1, 236357, Note_on_c, 0, 60, 0
1, 236360, Note_on_c, 0, 65, 30
1, 236554, Note_on_c, 0, 81, 0
1, 236554, Note_on_c, 0, 79, 56
1, 236554, Note_on_c, 0, 65, 0
1, 236557, Note_on_c, 0, 59, 40
1, 236557, Control_c, 0, 64, 0
1, 236656, Control_c, 0, 64, 127
1, 236748, Note_on_c, 0, 79, 0
1, 236748, Note_on_c, 0, 77, 50
1, 236748, Note_on_c, 0, 59, 0
1, 236751, Note_on_c, 0, 67, 31
1, 236942, Note_on_c, 0, 77, 0
1, 236942, Note_on_c, 0, 76, 54
1, 236942, Note_on_c, 0, 67, 0
1, 236945, Note_on_c, 0, 62, 37
1, 237147, Note_on_c, 0, 76, 0
1, 237147, Note_on_c, 0, 74, 51
1, 237147, Note_on_c, 0, 62, 0
1, 237150, Note_on_c, 0, 67, 31
1, 237376, Note_on_c, 0, 74, 0
1, 237376, Note_on_c, 0, 75, 60
1, 237376, Note_on_c, 0, 67, 0
1, 237379, Note_on_c, 0, 60, 40
1, 237379, Control_c, 0, 64, 0
1, 237481, Control_c, 0, 64, 127
1, 237575, Note_on_c, 0, 60, 0
1, 237575, Note_on_c, 0, 67, 26
1, 237774, Note_on_c, 0, 67, 0
1, 237774, Note_on_c, 0, 64, 32
1, 237973, Note_on_c, 0, 64, 0
1, 237973, Note_on_c, 0, 67, 27
1, 238180, Note_on_c, 0, 75, 0
1, 238180, Note_on_c, 0, 76, 55
1, 238180, Note_on_c, 0, 67, 0
1, 238183, Note_on_c, 0, 60, 36
1, 238200, Control_c, 0, 64, 0
1, 238347, Control_c, 0, 64, 127
1, 238382, Note_on_c, 0, 60, 0
1, 238382, Note_on_c, 0, 67, 27
1, 238585, Note_on_c, 0, 67, 0
1, 238585, Note_on_c, 0, 64, 32
1, 238784, Note_on_c, 0, 64, 0
1, 238784, Note_on_c, 0, 67, 29
1, 238983, Note_on_c, 0, 76, 0
1, 238983, Note_on_c, 0, 67, 0
1, 238983, Note_on_c, 0, 60, 37
1, 238998, Control_c, 0, 64, 0
1, 239103, Control_c, 0, 64, 127
1, 239186, Note_on_c, 0, 79, 61
1, 239186, Note_on_c, 0, 60, 0
1, 239186, Note_on_c, 0, 67, 28
1, 239385, Note_on_c, 0, 79, 0
1, 239385, Note_on_c, 0, 78, 55
1, 239385, Note_on_c, 0, 67, 0
1, 239388, Note_on_c, 0, 64, 32
1, 239584, Note_on_c, 0, 78, 0
1, 239584, Note_on_c, 0, 76, 58
1, 239584, Note_on_c, 0, 64, 0
1, 239587, Note_on_c, 0, 67, 28
1, 239806, Note_on_c, 0, 76, 0
1, 239806, Note_on_c, 0, 74, 58
1, 239806, Note_on_c, 0, 67, 0
1, 239809, Note_on_c, 0, 59, 40
1, 239809, Control_c, 0, 64, 0
1, 240009, Note_on_c, 0, 74, 0
1, 240009, Note_on_c, 0, 71, 49
1, 240009, Note_on_c, 0, 59, 0
1, 240012, Note_on_c, 0, 62, 26
1, 240012, Control_c, 0, 64, 127
1, 240212, Note_on_c, 0, 71, 0
1, 240212, Note_on_c, 0, 69, 53
1, 240212, Note_on_c, 0, 62, 0
1, 240215, Note_on_c, 0, 60, 33
1, 240414, Note_on_c, 0, 69, 0
1, 240414, Note_on_c, 0, 76, 46
1, 240414, Note_on_c, 0, 60, 0
1, 240417, Note_on_c, 0, 64, 29
1, 240642, Note_on_c, 0, 76, 0
1, 240642, Note_on_c, 0, 67, 53
1, 240642, Note_on_c, 0, 64, 0
1, 240645, Note_on_c, 0, 50, 39
1, 240659, Control_c, 0, 64, 0
1, 240749, Control_c, 0, 64, 127
1, 240846, Note_on_c, 0, 50, 0
1, 240846, Note_on_c, 0, 59, 29
1, 241051, Note_on_c, 0, 59, 0
1, 241051, Note_on_c, 0, 55, 37
1, 241255, Note_on_c, 0, 67, 0
1, 241255, Note_on_c, 0, 67, 44
1, 241255, Note_on_c, 0, 55, 0
1, 241258, Note_on_c, 0, 59, 29
1, 241459, Note_on_c, 0, 67, 0
1, 241459, Note_on_c, 0, 66, 47
1, 241459, Note_on_c, 0, 71, 55
1, 241462, Note_on_c, 0, 59, 0
1, 241462, Note_on_c, 0, 50, 39
1, 241478, Control_c, 0, 64, 0
1, 241597, Control_c, 0, 64, 127
1, 241666, Note_on_c, 0, 71, 0
1, 241666, Note_on_c, 0, 69, 44
1, 241666, Note_on_c, 0, 50, 0
1, 241669, Note_on_c, 0, 60, 30
1, 241876, Note_on_c, 0, 69, 0
1, 241876, Note_on_c, 0, 67, 49
1, 241876, Note_on_c, 0, 60, 0
1, 241879, Note_on_c, 0, 57, 36
1, 242086, Note_on_c, 0, 67, 0
1, 242086, Note_on_c, 0, 69, 42
1, 242086, Note_on_c, 0, 57, 0
1, 242089, Note_on_c, 0, 60, 29
1, 242342, Note_on_c, 0, 69, 0
1, 242342, Note_on_c, 0, 66, 0
1, 242342, Note_on_c, 0, 67, 49
1, 242345, Note_on_c, 0, 60, 0
1, 242345, Note_on_c, 0, 55, 27
1, 242345, Note_on_c, 0, 59, 36
1, 242348, Control_c, 0, 64, 0
1, 242548, Note_on_c, 0, 67, 0
1, 242548, Note_on_c, 0, 66, 43
1, 242754, Note_on_c, 0, 66, 0
1, 242754, Note_on_c, 0, 69, 52
1, 242955, Note_on_c, 0, 69, 0
1, 242955, Note_on_c, 0, 67, 47
1, 243155, Note_on_c, 0, 67, 0
1, 243155, Note_on_c, 0, 71, 56
1, 243155, Note_on_c, 0, 59, 0
1, 243158, Note_on_c, 0, 55, 0
1, 243356, Note_on_c, 0, 71, 0
1, 243356, Note_on_c, 0, 69, 52
1, 243557, Note_on_c, 0, 69, 0
1, 243557, Note_on_c, 0, 72, 57
1, 243758, Note_on_c, 0, 72, 0
1, 243758, Note_on_c, 0, 71, 57
1, 243959, Note_on_c, 0, 71, 0
1, 243959, Note_on_c, 0, 74, 63
1, 244159, Note_on_c, 0, 74, 0
1, 244159, Note_on_c, 0, 72, 62
1, 244360, Note_on_c, 0, 72, 0
1, 244360, Note_on_c, 0, 76, 66
1, 244561, Note_on_c, 0, 76, 0
1, 244561, Note_on_c, 0, 74, 65
1, 244788, Note_on_c, 0, 74, 0
1, 244788, Note_on_c, 0, 77, 75
1, 244788, Note_on_c, 0, 45, 56
1, 244891, Control_c, 0, 64, 127
1, 244987, Note_on_c, 0, 45, 0
1, 244987, Note_on_c, 0, 53, 45
1, 245186, Note_on_c, 0, 53, 0
1, 245186, Note_on_c, 0, 48, 49
1, 245385, Note_on_c, 0, 48, 0
1, 245385, Note_on_c, 0, 53, 44
1, 245584, Note_on_c, 0, 53, 0
1, 245584, Note_on_c, 0, 45, 55
1, 245783, Note_on_c, 0, 45, 0
1, 245783, Note_on_c, 0, 53, 41
1, 245982, Note_on_c, 0, 77, 0
1, 245982, Note_on_c, 0, 79, 72
1, 245982, Note_on_c, 0, 53, 0
1, 245985, Note_on_c, 0, 48, 50
1, 246182, Note_on_c, 0, 79, 0
1, 246182, Note_on_c, 0, 81, 67
1, 246182, Note_on_c, 0, 48, 0
1, 246185, Note_on_c, 0, 53, 43
1, 246381, Note_on_c, 0, 81, 0
1, 246381, Note_on_c, 0, 79, 75
1, 246381, Note_on_c, 0, 53, 0
1, 246384, Note_on_c, 0, 47, 55
1, 246384, Control_c, 0, 64, 0
1, 246485, Control_c, 0, 64, 127
1, 246580, Note_on_c, 0, 79, 0
1, 246580, Note_on_c, 0, 77, 71
1, 246580, Note_on_c, 0, 47, 0
1, 246583, Note_on_c, 0, 55, 41
1, 246779, Note_on_c, 0, 77, 0
1, 246779, Note_on_c, 0, 76, 75
1, 246779, Note_on_c, 0, 55, 0
1, 246782, Note_on_c, 0, 50, 52
1, 246978, Note_on_c, 0, 76, 0
1, 246978, Note_on_c, 0, 74, 73
1, 246978, Note_on_c, 0, 50, 0
1, 246981, Note_on_c, 0, 55, 44
1, 247207, Note_on_c, 0, 74, 0
1, 247207, Note_on_c, 0, 76, 76
1, 247207, Note_on_c, 0, 55, 0
1, 247210, Note_on_c, 0, 48, 56
1, 247210, Control_c, 0, 64, 0
1, 247314, Control_c, 0, 64, 127
1, 247410, Note_on_c, 0, 48, 0
1, 247410, Note_on_c, 0, 55, 47
1, 247612, Note_on_c, 0, 55, 0
1, 247612, Note_on_c, 0, 52, 49
1, 247815, Note_on_c, 0, 52, 0
1, 247815, Note_on_c, 0, 55, 46
1, 248021, Note_on_c, 0, 76, 0
1, 248021, Note_on_c, 0, 78, 74
1, 248021, Note_on_c, 0, 55, 0
1, 248024, Note_on_c, 0, 48, 60
1, 248042, Control_c, 0, 64, 0
1, 248189, Control_c, 0, 64, 127
1, 248224, Note_on_c, 0, 48, 0
1, 248224, Note_on_c, 0, 57, 48
1, 248427, Note_on_c, 0, 57, 0
1, 248427, Note_on_c, 0, 51, 56
1, 248629, Note_on_c, 0, 51, 0
1, 248629, Note_on_c, 0, 57, 47
1, 248832, Note_on_c, 0, 78, 0
1, 248832, Note_on_c, 0, 79, 77
1, 248832, Note_on_c, 0, 57, 0
1, 248835, Note_on_c, 0, 49, 61
1, 248847, Control_c, 0, 64, 0
1, 248952, Control_c, 0, 64, 127
1, 249035, Note_on_c, 0, 49, 0
1, 249035, Note_on_c, 0, 58, 48
1, 249237, Note_on_c, 0, 58, 0
1, 249237, Note_on_c, 0, 52, 56
1, 249440, Note_on_c, 0, 52, 0
1, 249440, Note_on_c, 0, 58, 47
1, 249663, Note_on_c, 0, 79, 0
1, 249663, Note_on_c, 0, 67, 65
1, 249663, Note_on_c, 0, 58, 0
1, 249666, Note_on_c, 0, 50, 40
1, 249666, Control_c, 0, 64, 0
1, 249865, Note_on_c, 0, 50, 0
1, 249865, Note_on_c, 0, 59, 26
1, 249865, Control_c, 0, 64, 127
1, 250068, Note_on_c, 0, 59, 0
1, 250068, Note_on_c, 0, 55, 33
1, 250271, Note_on_c, 0, 55, 0
1, 250271, Note_on_c, 0, 59, 29
1, 250498, Note_on_c, 0, 59, 0
1, 250498, Note_on_c, 0, 50, 39
1, 250515, Control_c, 0, 64, 0
1, 250605, Control_c, 0, 64, 127
1, 250702, Note_on_c, 0, 50, 0
1, 250702, Note_on_c, 0, 59, 29
1, 250907, Note_on_c, 0, 67, 0
1, 250907, Note_on_c, 0, 69, 44
1, 250907, Note_on_c, 0, 59, 0
1, 250910, Note_on_c, 0, 55, 37
1, 251009, Note_on_c, 0, 69, 0
1, 251009, Note_on_c, 0, 67, 44
1, 251111, Note_on_c, 0, 67, 0
1, 251111, Note_on_c, 0, 66, 44
1, 251111, Note_on_c, 0, 55, 0
1, 251114, Note_on_c, 0, 59, 29
1, 251213, Note_on_c, 0, 66, 0
1, 251213, Note_on_c, 0, 67, 44
1, 251316, Note_on_c, 0, 67, 0
1, 251316, Note_on_c, 0, 66, 47
1, 251316, Note_on_c, 0, 71, 55
1, 251319, Note_on_c, 0, 59, 0
1, 251319, Note_on_c, 0, 50, 39
1, 251335, Control_c, 0, 64, 0
1, 251457, Control_c, 0, 64, 127
1, 251528, Note_on_c, 0, 50, 0
1, 251528, Note_on_c, 0, 60, 30
1, 251740, Note_on_c, 0, 71, 0
1, 251740, Note_on_c, 0, 69, 49
1, 251740, Note_on_c, 0, 60, 0
1, 251743, Note_on_c, 0, 57, 36
1, 251743, Control_c, 0, 64, 0
1, 251852, Control_c, 0, 64, 127
1, 251952, Note_on_c, 0, 57, 0
1, 251952, Note_on_c, 0, 60, 29
1, 252180, Note_on_c, 0, 69, 0
1, 252180, Note_on_c, 0, 66, 0
1, 252180, Note_on_c, 0, 67, 49
1, 252183, Note_on_c, 0, 60, 0
1, 252183, Note_on_c, 0, 55, 30
1, 252183, Note_on_c, 0, 59, 36
1, 252186, Control_c, 0, 64, 0
1, 252297, Control_c, 0, 64, 127
1, 252380, Note_on_c, 0, 67, 0
1, 252380, Note_on_c, 0, 62, 40
1, 252581, Note_on_c, 0, 62, 0
1, 252581, Note_on_c, 0, 71, 44
1, 252610, Control_c, 0, 64, 0
1, 252648, Note_on_c, 0, 71, 0
1, 252782, Note_on_c, 0, 71, 44
1, 252849, Note_on_c, 0, 71, 0
1, 252983, Note_on_c, 0, 71, 49
1, 252983, Note_on_c, 0, 59, 0
1, 252983, Note_on_c, 0, 55, 0
1, 252986, Control_c, 0, 64, 127
1, 253185, Note_on_c, 0, 71, 0
1, 253185, Note_on_c, 0, 67, 41
1, 253334, Control_c, 0, 64, 0
1, 253388, Note_on_c, 0, 67, 0
1, 253388, Note_on_c, 0, 74, 45
1, 253456, Note_on_c, 0, 74, 0
1, 253591, Note_on_c, 0, 74, 45
1, 253663, Note_on_c, 0, 74, 0
1, 253807, Note_on_c, 0, 74, 49
1, 253866, Control_c, 0, 64, 127
1, 254008, Note_on_c, 0, 74, 0
1, 254008, Note_on_c, 0, 71, 42
1, 254209, Note_on_c, 0, 71, 0
1, 254209, Note_on_c, 0, 69, 45
1, 254209, Note_on_c, 0, 50, 30
1, 254212, Note_on_c, 0, 60, 36
1, 254224, Control_c, 0, 64, 0
1, 254287, Control_c, 0, 64, 127
1, 254409, Note_on_c, 0, 69, 0
1, 254409, Note_on_c, 0, 71, 40
1, 254593, Control_c, 0, 64, 0
1, 254626, Note_on_c, 0, 71, 0
1, 254626, Note_on_c, 0, 67, 49
1, 254626, Note_on_c, 0, 60, 0
1, 254629, Note_on_c, 0, 50, 0
1, 254629, Note_on_c, 0, 55, 30
1, 254629, Note_on_c, 0, 59, 36
1, 254743, Control_c, 0, 64, 127
1, 254827, Note_on_c, 0, 67, 0
1, 254827, Note_on_c, 0, 62, 40
1, 255027, Note_on_c, 0, 62, 0
1, 255027, Note_on_c, 0, 71, 44
1, 255056, Control_c, 0, 64, 0
1, 255094, Note_on_c, 0, 71, 0
1, 255228, Note_on_c, 0, 71, 44
1, 255295, Note_on_c, 0, 71, 0
1, 255429, Note_on_c, 0, 71, 49
1, 255429, Note_on_c, 0, 59, 0
1, 255429, Note_on_c, 0, 55, 0
1, 255432, Control_c, 0, 64, 127
1, 255632, Note_on_c, 0, 71, 0
1, 255632, Note_on_c, 0, 67, 41
1, 255823, Control_c, 0, 64, 0
1, 255834, Note_on_c, 0, 67, 0
1, 255834, Note_on_c, 0, 74, 45
1, 255902, Note_on_c, 0, 74, 0
1, 256037, Note_on_c, 0, 74, 45
1, 256109, Note_on_c, 0, 74, 0
1, 256253, Note_on_c, 0, 74, 49
1, 256312, Control_c, 0, 64, 127
1, 256454, Note_on_c, 0, 74, 0
1, 256454, Note_on_c, 0, 71, 42
1, 256655, Note_on_c, 0, 71, 0
1, 256655, Note_on_c, 0, 69, 45
1, 256655, Note_on_c, 0, 50, 30
1, 256658, Note_on_c, 0, 60, 36
1, 256670, Control_c, 0, 64, 0
1, 256734, Control_c, 0, 64, 127
1, 256856, Note_on_c, 0, 69, 0
1, 256856, Note_on_c, 0, 71, 40
1, 257040, Control_c, 0, 64, 0
1, 257072, Note_on_c, 0, 71, 0
1, 257072, Note_on_c, 0, 67, 45
1, 257072, Note_on_c, 0, 60, 0
1, 257075, Note_on_c, 0, 50, 0
1, 257075, Note_on_c, 0, 59, 36
1, 257101, Note_on_c, 0, 55, 30
1, 257561, Note_on_c, 0, 67, 0
1, 257561, Note_on_c, 0, 59, 0
1, 257590, Note_on_c, 0, 55, 0
1, 258022, Note_on_c, 0, 59, 38
1, 258022, Note_on_c, 0, 67, 38
1, 258050, Note_on_c, 0, 43, 30
1, 258511, Note_on_c, 0, 67, 0
1, 258511, Note_on_c, 0, 59, 0
1, 258539, Note_on_c, 0, 43, 0
1, 260037, End_track
0, 0, End_of_file
