0, 0, Header, 0, 1, 384
1, 0, Start_track
1, 0, Tempo, 512820
1, 0, Title_t, "Klaviersonate a-Moll, Opus 143"
1, 0, Program_c, 0, 0
1, 0, Control_c, 0, 7, 100
1, 3, Control_c, 0, 91, 127
1, 3, Program_c, 0, 0
1, 3, Control_c, 0, 7, 100
1, 6, Control_c, 0, 91, 127
1, 6, Control_c, 0, 64, 0
1, 748, Note_on_c, 0, 69, 60
1, 748, Note_on_c, 0, 57, 52
1, 810, Control_c, 0, 64, 127
1, 1498, Note_on_c, 0, 76, 60
1, 1498, Note_on_c, 0, 64, 52
1, 1511, Control_c, 0, 64, 0
1, 1515, Note_on_c, 0, 69, 0
1, 1515, Note_on_c, 0, 57, 0
1, 1789, Control_c, 0, 64, 127
1, 2246, Note_on_c, 0, 75, 63
1, 2246, Note_on_c, 0, 63, 54
1, 2258, Control_c, 0, 64, 0
1, 2261, Note_on_c, 0, 76, 0
1, 2261, Note_on_c, 0, 64, 0
1, 2372, Control_c, 0, 64, 127
1, 2943, Control_c, 0, 64, 0
1, 2972, Note_on_c, 0, 76, 57
1, 2972, Note_on_c, 0, 64, 48
1, 2988, Note_on_c, 0, 75, 0
1, 2988, Note_on_c, 0, 63, 0
1, 3126, Note_on_c, 0, 76, 0
1, 3126, Note_on_c, 0, 64, 0
1, 3342, Note_on_c, 0, 72, 59
1, 3342, Note_on_c, 0, 60, 49
1, 3388, Control_c, 0, 64, 127
1, 3623, Note_on_c, 0, 71, 57
1, 3623, Note_on_c, 0, 59, 49
1, 3639, Note_on_c, 0, 72, 0
1, 3639, Note_on_c, 0, 60, 0
1, 3720, Note_on_c, 0, 69, 58
1, 3720, Note_on_c, 0, 57, 48
1, 3730, Control_c, 0, 64, 0
1, 3735, Note_on_c, 0, 71, 0
1, 3735, Note_on_c, 0, 59, 0
1, 3840, Control_c, 0, 64, 127
1, 4443, Note_on_c, 0, 69, 0
1, 4443, Note_on_c, 0, 56, 66
1, 4443, Note_on_c, 0, 64, 66
1, 4446, Note_on_c, 0, 59, 66
1, 4446, Note_on_c, 0, 57, 0
1, 4446, Note_on_c, 0, 52, 62
1, 4452, Control_c, 0, 64, 0
1, 4714, Control_c, 0, 64, 127
1, 5194, Note_on_c, 0, 59, 0
1, 5194, Note_on_c, 0, 64, 0
1, 5194, Note_on_c, 0, 56, 0
1, 5197, Note_on_c, 0, 60, 62
1, 5197, Note_on_c, 0, 52, 0
1, 5197, Note_on_c, 0, 48, 57
1, 5206, Control_c, 0, 64, 0
1, 5321, Control_c, 0, 64, 127
1, 5930, Note_on_c, 0, 60, 0
1, 5930, Note_on_c, 0, 57, 61
1, 5930, Note_on_c, 0, 48, 0
1, 5933, Note_on_c, 0, 45, 49
1, 6072, Note_on_c, 0, 57, 0
1, 6072, Note_on_c, 0, 45, 0
1, 6136, Control_c, 0, 64, 0
1, 6688, Note_on_c, 0, 57, 60
1, 6688, Note_on_c, 0, 45, 52
1, 6772, Control_c, 0, 64, 127
1, 7439, Note_on_c, 0, 57, 0
1, 7439, Note_on_c, 0, 57, 69
1, 7439, Note_on_c, 0, 65, 69
1, 7442, Note_on_c, 0, 45, 0
1, 7442, Note_on_c, 0, 38, 55
1, 7452, Control_c, 0, 64, 0
1, 7782, Control_c, 0, 64, 127
1, 8165, Note_on_c, 0, 65, 0
1, 8165, Note_on_c, 0, 57, 0
1, 8165, Note_on_c, 0, 58, 74
1, 8168, Note_on_c, 0, 67, 74
1, 8168, Note_on_c, 0, 38, 0
1, 8168, Note_on_c, 0, 37, 58
1, 8178, Control_c, 0, 64, 0
1, 8265, Control_c, 0, 64, 127
1, 8819, Control_c, 0, 64, 0
1, 8859, Note_on_c, 0, 67, 0
1, 8859, Note_on_c, 0, 58, 0
1, 8859, Note_on_c, 0, 65, 64
1, 8862, Note_on_c, 0, 57, 64
1, 8862, Note_on_c, 0, 37, 0
1, 8862, Note_on_c, 0, 38, 52
1, 9016, Note_on_c, 0, 57, 0
1, 9016, Note_on_c, 0, 65, 0
1, 9016, Note_on_c, 0, 38, 0
1, 9231, Note_on_c, 0, 57, 61
1, 9231, Note_on_c, 0, 45, 54
1, 9277, Control_c, 0, 64, 127
1, 9510, Note_on_c, 0, 59, 64
1, 9510, Note_on_c, 0, 47, 55
1, 9526, Note_on_c, 0, 57, 0
1, 9526, Note_on_c, 0, 45, 0
1, 9605, Note_on_c, 0, 60, 62
1, 9605, Note_on_c, 0, 48, 55
1, 9612, Control_c, 0, 64, 0
1, 9620, Note_on_c, 0, 59, 0
1, 9620, Note_on_c, 0, 47, 0
1, 9769, Control_c, 0, 64, 127
1, 10343, Note_on_c, 0, 60, 0
1, 10343, Note_on_c, 0, 59, 64
1, 10343, Note_on_c, 0, 64, 64
1, 10346, Note_on_c, 0, 52, 64
1, 10346, Note_on_c, 0, 56, 64
1, 10346, Note_on_c, 0, 48, 0
1, 10349, Note_on_c, 0, 40, 57
1, 10352, Control_c, 0, 64, 0
1, 10656, Control_c, 0, 64, 127
1, 11094, Note_on_c, 0, 56, 0
1, 11094, Note_on_c, 0, 59, 0
1, 11094, Note_on_c, 0, 64, 0
1, 11097, Note_on_c, 0, 52, 0
1, 11097, Note_on_c, 0, 60, 60
1, 11097, Note_on_c, 0, 48, 60
1, 11100, Note_on_c, 0, 40, 0
1, 11100, Note_on_c, 0, 36, 55
1, 11105, Control_c, 0, 64, 0
1, 11205, Control_c, 0, 64, 127
1, 11830, Note_on_c, 0, 48, 0
1, 11830, Note_on_c, 0, 60, 0
1, 11830, Note_on_c, 0, 45, 60
1, 11833, Note_on_c, 0, 57, 60
1, 11833, Note_on_c, 0, 36, 0
1, 11833, Note_on_c, 0, 33, 51
1, 11953, Control_c, 0, 64, 0
1, 11989, Note_on_c, 0, 57, 0
1, 11989, Note_on_c, 0, 45, 0
1, 11989, Note_on_c, 0, 33, 0
1, 12595, Note_on_c, 0, 38, 45
1, 12595, Note_on_c, 0, 45, 45
1, 12595, Note_on_c, 0, 41, 45
1, 12644, Control_c, 0, 64, 127
1, 13330, Note_on_c, 0, 41, 0
1, 13330, Note_on_c, 0, 45, 0
1, 13330, Note_on_c, 0, 38, 0
1, 13333, Note_on_c, 0, 33, 43
1, 13380, Control_c, 0, 64, 0
1, 13424, Note_on_c, 0, 33, 0
1, 14081, Note_on_c, 0, 36, 46
1, 14081, Note_on_c, 0, 45, 46
1, 14081, Note_on_c, 0, 40, 46
1, 14123, Control_c, 0, 64, 127
1, 14805, Note_on_c, 0, 40, 0
1, 14805, Note_on_c, 0, 45, 0
1, 14805, Note_on_c, 0, 36, 0
1, 14808, Note_on_c, 0, 33, 45
1, 14848, Control_c, 0, 64, 0
1, 14898, Note_on_c, 0, 33, 0
1, 15177, Note_on_c, 0, 57, 62
1, 15203, Control_c, 0, 64, 127
1, 15540, Note_on_c, 0, 41, 46
1, 15540, Note_on_c, 0, 45, 46
1, 15540, Note_on_c, 0, 38, 46
1, 15891, Note_on_c, 0, 62, 56
1, 15905, Note_on_c, 0, 57, 0
1, 16247, Note_on_c, 0, 64, 59
1, 16247, Note_on_c, 0, 38, 0
1, 16247, Note_on_c, 0, 45, 0
1, 16250, Note_on_c, 0, 41, 0
1, 16250, Note_on_c, 0, 33, 44
1, 16262, Note_on_c, 0, 62, 0
1, 16304, Control_c, 0, 64, 0
1, 16335, Note_on_c, 0, 33, 0
1, 16600, Note_on_c, 0, 65, 57
1, 16615, Note_on_c, 0, 64, 0
1, 16726, Control_c, 0, 64, 127
1, 16958, Note_on_c, 0, 64, 60
1, 16958, Note_on_c, 0, 36, 46
1, 16958, Note_on_c, 0, 40, 46
1, 16961, Note_on_c, 0, 45, 46
1, 16966, Control_c, 0, 64, 0
1, 16973, Note_on_c, 0, 65, 0
1, 17090, Control_c, 0, 64, 127
1, 17646, Note_on_c, 0, 64, 0
1, 17646, Note_on_c, 0, 57, 56
1, 17646, Note_on_c, 0, 45, 0
1, 17649, Note_on_c, 0, 40, 0
1, 17649, Note_on_c, 0, 36, 0
1, 17649, Note_on_c, 0, 33, 44
1, 17695, Control_c, 0, 64, 0
1, 17798, Note_on_c, 0, 57, 0
1, 17798, Note_on_c, 0, 33, 0
1, 18011, Note_on_c, 0, 67, 54
1, 18089, Control_c, 0, 64, 127
1, 18366, Note_on_c, 0, 65, 57
1, 18366, Note_on_c, 0, 38, 47
1, 18366, Note_on_c, 0, 41, 47
1, 18369, Note_on_c, 0, 45, 47
1, 18369, Control_c, 0, 64, 0
1, 18380, Note_on_c, 0, 67, 0
1, 18499, Control_c, 0, 64, 127
1, 19038, Note_on_c, 0, 65, 0
1, 19038, Note_on_c, 0, 57, 58
1, 19038, Note_on_c, 0, 45, 0
1, 19041, Note_on_c, 0, 41, 0
1, 19041, Note_on_c, 0, 38, 0
1, 19041, Note_on_c, 0, 33, 45
1, 19068, Control_c, 0, 64, 0
1, 19192, Note_on_c, 0, 57, 0
1, 19192, Note_on_c, 0, 33, 0
1, 19407, Note_on_c, 0, 65, 55
1, 19499, Control_c, 0, 64, 127
1, 19753, Note_on_c, 0, 64, 60
1, 19753, Note_on_c, 0, 36, 46
1, 19753, Note_on_c, 0, 40, 46
1, 19756, Note_on_c, 0, 45, 46
1, 19760, Control_c, 0, 64, 0
1, 19767, Note_on_c, 0, 65, 0
1, 19871, Control_c, 0, 64, 127
1, 20425, Note_on_c, 0, 64, 0
1, 20425, Note_on_c, 0, 57, 58
1, 20425, Note_on_c, 0, 45, 0
1, 20428, Note_on_c, 0, 40, 0
1, 20428, Note_on_c, 0, 36, 0
1, 20428, Note_on_c, 0, 33, 43
1, 20494, Control_c, 0, 64, 0
1, 20576, Note_on_c, 0, 57, 0
1, 20576, Note_on_c, 0, 33, 0
1, 20787, Note_on_c, 0, 57, 66
1, 20787, Note_on_c, 0, 69, 66
1, 20852, Control_c, 0, 64, 127
1, 21129, Note_on_c, 0, 53, 55
1, 21129, Note_on_c, 0, 57, 55
1, 21129, Note_on_c, 0, 50, 55
1, 21480, Note_on_c, 0, 62, 66
1, 21480, Note_on_c, 0, 74, 66
1, 21494, Note_on_c, 0, 69, 0
1, 21494, Note_on_c, 0, 57, 0
1, 21821, Note_on_c, 0, 76, 69
1, 21821, Note_on_c, 0, 64, 69
1, 21821, Note_on_c, 0, 50, 0
1, 21824, Note_on_c, 0, 57, 0
1, 21824, Note_on_c, 0, 53, 0
1, 21824, Note_on_c, 0, 45, 45
1, 21836, Note_on_c, 0, 62, 0
1, 21836, Note_on_c, 0, 74, 0
1, 21894, Control_c, 0, 64, 0
1, 21909, Note_on_c, 0, 45, 0
1, 22172, Note_on_c, 0, 65, 64
1, 22172, Note_on_c, 0, 77, 64
1, 22187, Note_on_c, 0, 76, 0
1, 22187, Note_on_c, 0, 64, 0
1, 22271, Control_c, 0, 64, 127
1, 22527, Note_on_c, 0, 64, 69
1, 22527, Note_on_c, 0, 76, 69
1, 22527, Note_on_c, 0, 48, 51
1, 22530, Note_on_c, 0, 52, 51
1, 22530, Note_on_c, 0, 57, 51
1, 22533, Control_c, 0, 64, 0
1, 22540, Note_on_c, 0, 65, 0
1, 22540, Note_on_c, 0, 77, 0
1, 22635, Control_c, 0, 64, 127
1, 23196, Note_on_c, 0, 64, 0
1, 23196, Note_on_c, 0, 76, 0
1, 23196, Note_on_c, 0, 57, 66
1, 23199, Note_on_c, 0, 69, 66
1, 23199, Note_on_c, 0, 57, 0
1, 23199, Note_on_c, 0, 52, 0
1, 23202, Note_on_c, 0, 48, 0
1, 23202, Note_on_c, 0, 45, 46
1, 23238, Control_c, 0, 64, 0
1, 23344, Note_on_c, 0, 69, 0
1, 23344, Note_on_c, 0, 57, 0
1, 23344, Note_on_c, 0, 45, 0
1, 23551, Note_on_c, 0, 76, 79
1, 23551, Note_on_c, 0, 64, 79
1, 23581, Control_c, 0, 64, 127
1, 23892, Note_on_c, 0, 47, 80
1, 23892, Note_on_c, 0, 52, 80
1, 23892, Note_on_c, 0, 55, 80
1, 24239, Note_on_c, 0, 67, 84
1, 24239, Note_on_c, 0, 79, 84
1, 24253, Note_on_c, 0, 64, 0
1, 24253, Note_on_c, 0, 76, 0
1, 24575, Note_on_c, 0, 69, 89
1, 24575, Note_on_c, 0, 81, 89
1, 24575, Note_on_c, 0, 55, 0
1, 24578, Note_on_c, 0, 52, 0
1, 24578, Note_on_c, 0, 47, 0
1, 24578, Note_on_c, 0, 43, 64
1, 24589, Note_on_c, 0, 67, 0
1, 24589, Note_on_c, 0, 79, 0
1, 24600, Control_c, 0, 64, 0
1, 24706, Note_on_c, 0, 43, 0
1, 24924, Note_on_c, 0, 71, 87
1, 24924, Note_on_c, 0, 83, 87
1, 24939, Note_on_c, 0, 69, 0
1, 24939, Note_on_c, 0, 81, 0
1, 25016, Control_c, 0, 64, 127
1, 25282, Note_on_c, 0, 71, 0
1, 25282, Note_on_c, 0, 83, 0
1, 25282, Note_on_c, 0, 71, 95
1, 25285, Note_on_c, 0, 83, 95
1, 25285, Note_on_c, 0, 51, 73
1, 25285, Note_on_c, 0, 54, 81
1, 25288, Note_on_c, 0, 42, 73
1, 25288, Control_c, 0, 64, 0
1, 25367, Control_c, 0, 64, 127
1, 25950, Note_on_c, 0, 83, 0
1, 25950, Note_on_c, 0, 71, 0
1, 25950, Note_on_c, 0, 42, 0
1, 25953, Note_on_c, 0, 54, 0
1, 25953, Note_on_c, 0, 51, 0
1, 26011, Note_on_c, 0, 83, 91
1, 26011, Note_on_c, 0, 71, 91
1, 26011, Note_on_c, 0, 47, 64
1, 26014, Note_on_c, 0, 51, 64
1, 26014, Note_on_c, 0, 59, 71
1, 26018, Control_c, 0, 64, 0
1, 26123, Control_c, 0, 64, 127
1, 26661, Note_on_c, 0, 71, 0
1, 26661, Note_on_c, 0, 83, 0
1, 26661, Note_on_c, 0, 59, 0
1, 26664, Note_on_c, 0, 51, 0
1, 26664, Note_on_c, 0, 47, 0
1, 26720, Note_on_c, 0, 67, 73
1, 26720, Note_on_c, 0, 79, 73
1, 26720, Note_on_c, 0, 55, 59
1, 26723, Note_on_c, 0, 43, 59
1, 26733, Control_c, 0, 64, 0
1, 26797, Control_c, 0, 64, 127
1, 27414, Note_on_c, 0, 79, 0
1, 27414, Note_on_c, 0, 67, 0
1, 27414, Note_on_c, 0, 64, 63
1, 27417, Note_on_c, 0, 76, 63
1, 27417, Note_on_c, 0, 43, 0
1, 27417, Note_on_c, 0, 55, 0
1, 27420, Note_on_c, 0, 52, 52
1, 27420, Note_on_c, 0, 40, 52
1, 27433, Control_c, 0, 64, 0
1, 27566, Note_on_c, 0, 76, 0
1, 27566, Note_on_c, 0, 64, 0
1, 27566, Note_on_c, 0, 40, 0
1, 27569, Note_on_c, 0, 52, 0
1, 28144, Note_on_c, 0, 59, 51
1, 28144, Note_on_c, 0, 71, 51
1, 28144, Note_on_c, 0, 30, 36
1, 28147, Note_on_c, 0, 42, 36
1, 28147, Note_on_c, 0, 39, 36
1, 28165, Control_c, 0, 64, 127
1, 28810, Note_on_c, 0, 71, 0
1, 28810, Note_on_c, 0, 59, 0
1, 28810, Note_on_c, 0, 39, 0
1, 28813, Note_on_c, 0, 42, 0
1, 28813, Note_on_c, 0, 30, 0
1, 28870, Note_on_c, 0, 71, 47
1, 28870, Note_on_c, 0, 59, 47
1, 28870, Note_on_c, 0, 35, 34
1, 28873, Note_on_c, 0, 39, 34
1, 28873, Note_on_c, 0, 47, 34
1, 28879, Control_c, 0, 64, 0
1, 28936, Control_c, 0, 64, 127
1, 29523, Note_on_c, 0, 59, 0
1, 29523, Note_on_c, 0, 71, 0
1, 29523, Note_on_c, 0, 47, 0
1, 29526, Note_on_c, 0, 39, 0
1, 29526, Note_on_c, 0, 35, 0
1, 29582, Note_on_c, 0, 55, 47
1, 29582, Note_on_c, 0, 67, 47
1, 29582, Note_on_c, 0, 43, 40
1, 29585, Note_on_c, 0, 31, 40
1, 29590, Control_c, 0, 64, 0
1, 29681, Control_c, 0, 64, 127
1, 30285, Note_on_c, 0, 67, 0
1, 30285, Note_on_c, 0, 55, 0
1, 30285, Note_on_c, 0, 52, 43
1, 30288, Note_on_c, 0, 64, 43
1, 30288, Note_on_c, 0, 31, 0
1, 30288, Note_on_c, 0, 43, 0
1, 30291, Note_on_c, 0, 28, 37
1, 30291, Note_on_c, 0, 40, 37
1, 30304, Control_c, 0, 64, 0
1, 30436, Note_on_c, 0, 64, 0
1, 30436, Note_on_c, 0, 52, 0
1, 30436, Note_on_c, 0, 40, 0
1, 30439, Note_on_c, 0, 28, 0
1, 31009, Note_on_c, 0, 55, 47
1, 31009, Note_on_c, 0, 67, 47
1, 31009, Note_on_c, 0, 40, 40
1, 31654, Note_on_c, 0, 67, 0
1, 31654, Note_on_c, 0, 55, 0
1, 31654, Note_on_c, 0, 52, 43
1, 31657, Note_on_c, 0, 64, 43
1, 31736, Note_on_c, 0, 41, 33
1, 31750, Note_on_c, 0, 64, 0
1, 31750, Note_on_c, 0, 52, 0
1, 31750, Note_on_c, 0, 40, 0
1, 31818, Note_on_c, 0, 40, 37
1, 31832, Note_on_c, 0, 41, 0
1, 31899, Note_on_c, 0, 41, 35
1, 31913, Note_on_c, 0, 40, 0
1, 31981, Note_on_c, 0, 40, 39
1, 31995, Note_on_c, 0, 41, 0
1, 32063, Note_on_c, 0, 41, 32
1, 32077, Note_on_c, 0, 40, 0
1, 32146, Note_on_c, 0, 40, 37
1, 32159, Note_on_c, 0, 41, 0
1, 32226, Note_on_c, 0, 41, 33
1, 32240, Note_on_c, 0, 40, 0
1, 32309, Note_on_c, 0, 65, 55
1, 32309, Note_on_c, 0, 53, 55
1, 32309, Note_on_c, 0, 40, 41
1, 32322, Note_on_c, 0, 41, 0
1, 32389, Note_on_c, 0, 41, 38
1, 32403, Note_on_c, 0, 40, 0
1, 32469, Note_on_c, 0, 40, 41
1, 32482, Note_on_c, 0, 41, 0
1, 32549, Note_on_c, 0, 41, 35
1, 32562, Note_on_c, 0, 40, 0
1, 32629, Note_on_c, 0, 40, 44
1, 32643, Note_on_c, 0, 41, 0
1, 32709, Note_on_c, 0, 41, 40
1, 32722, Note_on_c, 0, 40, 0
1, 32788, Note_on_c, 0, 40, 44
1, 32802, Note_on_c, 0, 41, 0
1, 32869, Note_on_c, 0, 41, 39
1, 32883, Note_on_c, 0, 40, 0
1, 32951, Note_on_c, 0, 53, 0
1, 32951, Note_on_c, 0, 65, 0
1, 32951, Note_on_c, 0, 62, 50
1, 32954, Note_on_c, 0, 50, 50
1, 32954, Note_on_c, 0, 40, 44
1, 32965, Note_on_c, 0, 41, 0
1, 33033, Note_on_c, 0, 41, 38
1, 33047, Note_on_c, 0, 50, 0
1, 33047, Note_on_c, 0, 62, 0
1, 33047, Note_on_c, 0, 40, 0
1, 33115, Note_on_c, 0, 40, 44
1, 33129, Note_on_c, 0, 41, 0
1, 33197, Note_on_c, 0, 41, 39
1, 33211, Note_on_c, 0, 40, 0
1, 33279, Note_on_c, 0, 40, 44
1, 33293, Note_on_c, 0, 41, 0
1, 33361, Note_on_c, 0, 41, 39
1, 33374, Note_on_c, 0, 40, 0
1, 33442, Note_on_c, 0, 40, 44
1, 33456, Note_on_c, 0, 41, 0
1, 33526, Note_on_c, 0, 41, 40
1, 33540, Note_on_c, 0, 40, 0
1, 33608, Note_on_c, 0, 64, 66
1, 33608, Note_on_c, 0, 52, 66
1, 33608, Note_on_c, 0, 40, 49
1, 33621, Note_on_c, 0, 41, 0
1, 33687, Note_on_c, 0, 41, 43
1, 33700, Note_on_c, 0, 40, 0
1, 33767, Note_on_c, 0, 40, 49
1, 33781, Note_on_c, 0, 41, 0
1, 33846, Note_on_c, 0, 41, 43
1, 33860, Note_on_c, 0, 40, 0
1, 33927, Note_on_c, 0, 40, 49
1, 33940, Note_on_c, 0, 41, 0
1, 34007, Note_on_c, 0, 41, 43
1, 34020, Note_on_c, 0, 40, 0
1, 34086, Note_on_c, 0, 40, 50
1, 34099, Note_on_c, 0, 41, 0
1, 34167, Note_on_c, 0, 41, 45
1, 34180, Note_on_c, 0, 40, 0
1, 34247, Note_on_c, 0, 52, 0
1, 34247, Note_on_c, 0, 64, 0
1, 34247, Note_on_c, 0, 48, 61
1, 34250, Note_on_c, 0, 60, 61
1, 34250, Note_on_c, 0, 40, 50
1, 34261, Note_on_c, 0, 41, 0
1, 34330, Note_on_c, 0, 41, 45
1, 34344, Note_on_c, 0, 60, 0
1, 34344, Note_on_c, 0, 48, 0
1, 34344, Note_on_c, 0, 40, 0
1, 34414, Note_on_c, 0, 40, 51
1, 34427, Note_on_c, 0, 41, 0
1, 34495, Note_on_c, 0, 41, 44
1, 34509, Note_on_c, 0, 40, 0
1, 34580, Note_on_c, 0, 40, 51
1, 34594, Note_on_c, 0, 41, 0
1, 34662, Note_on_c, 0, 41, 46
1, 34676, Note_on_c, 0, 40, 0
1, 34747, Note_on_c, 0, 40, 52
1, 34761, Note_on_c, 0, 41, 0
1, 34831, Note_on_c, 0, 41, 47
1, 34845, Note_on_c, 0, 40, 0
1, 34914, Note_on_c, 0, 50, 83
1, 34914, Note_on_c, 0, 62, 83
1, 34914, Note_on_c, 0, 40, 57
1, 34927, Note_on_c, 0, 41, 0
1, 34995, Note_on_c, 0, 41, 49
1, 35009, Note_on_c, 0, 40, 0
1, 35078, Note_on_c, 0, 40, 57
1, 35092, Note_on_c, 0, 41, 0
1, 35159, Note_on_c, 0, 41, 49
1, 35173, Note_on_c, 0, 40, 0
1, 35242, Note_on_c, 0, 40, 58
1, 35256, Note_on_c, 0, 41, 0
1, 35323, Note_on_c, 0, 41, 50
1, 35337, Note_on_c, 0, 40, 0
1, 35407, Note_on_c, 0, 40, 58
1, 35421, Note_on_c, 0, 41, 0
1, 35494, Note_on_c, 0, 41, 52
1, 35508, Note_on_c, 0, 40, 0
1, 35581, Note_on_c, 0, 62, 0
1, 35581, Note_on_c, 0, 50, 0
1, 35581, Note_on_c, 0, 59, 79
1, 35584, Note_on_c, 0, 47, 79
1, 35584, Note_on_c, 0, 40, 59
1, 35595, Note_on_c, 0, 41, 0
1, 35668, Note_on_c, 0, 41, 53
1, 35682, Note_on_c, 0, 47, 0
1, 35682, Note_on_c, 0, 59, 0
1, 35682, Note_on_c, 0, 40, 0
1, 35755, Note_on_c, 0, 40, 64
1, 35769, Note_on_c, 0, 41, 0
1, 35842, Note_on_c, 0, 41, 58
1, 35857, Note_on_c, 0, 40, 0
1, 35930, Note_on_c, 0, 40, 72
1, 35945, Note_on_c, 0, 41, 0
1, 36019, Note_on_c, 0, 41, 73
1, 36034, Note_on_c, 0, 40, 0
1, 36110, Note_on_c, 0, 40, 81
1, 36125, Note_on_c, 0, 41, 0
1, 36207, Note_on_c, 0, 44, 89
1, 36225, Note_on_c, 0, 40, 0
1, 36336, Note_on_c, 0, 57, 105
1, 36336, Note_on_c, 0, 69, 105
1, 36336, Note_on_c, 0, 33, 90
1, 36339, Note_on_c, 0, 45, 90
1, 36352, Note_on_c, 0, 44, 0
1, 36504, Control_c, 0, 64, 127
1, 37094, Note_on_c, 0, 69, 0
1, 37094, Note_on_c, 0, 57, 0
1, 37094, Note_on_c, 0, 64, 101
1, 37097, Note_on_c, 0, 76, 101
1, 37097, Note_on_c, 0, 45, 0
1, 37097, Note_on_c, 0, 33, 0
1, 37100, Note_on_c, 0, 40, 86
1, 37100, Note_on_c, 0, 52, 86
1, 37109, Control_c, 0, 64, 0
1, 37405, Control_c, 0, 64, 127
1, 37841, Note_on_c, 0, 76, 0
1, 37841, Note_on_c, 0, 64, 0
1, 37841, Note_on_c, 0, 63, 98
1, 37844, Note_on_c, 0, 75, 98
1, 37844, Note_on_c, 0, 52, 0
1, 37844, Note_on_c, 0, 40, 0
1, 37847, Note_on_c, 0, 51, 83
1, 37847, Note_on_c, 0, 39, 83
1, 37856, Control_c, 0, 64, 0
1, 37945, Control_c, 0, 64, 127
1, 38514, Control_c, 0, 64, 0
1, 38554, Note_on_c, 0, 75, 0
1, 38554, Note_on_c, 0, 63, 0
1, 38554, Note_on_c, 0, 76, 91
1, 38557, Note_on_c, 0, 64, 91
1, 38557, Note_on_c, 0, 39, 0
1, 38557, Note_on_c, 0, 51, 0
1, 38560, Note_on_c, 0, 40, 76
1, 38560, Note_on_c, 0, 52, 76
1, 38742, Note_on_c, 0, 64, 0
1, 38742, Note_on_c, 0, 76, 0
1, 38742, Note_on_c, 0, 52, 0
1, 38745, Note_on_c, 0, 40, 0
1, 38930, Note_on_c, 0, 72, 88
1, 38930, Note_on_c, 0, 64, 88
1, 38930, Note_on_c, 0, 52, 58
1, 38933, Note_on_c, 0, 64, 58
1, 38946, Control_c, 0, 64, 127
1, 39105, Note_on_c, 0, 64, 0
1, 39105, Note_on_c, 0, 72, 0
1, 39105, Note_on_c, 0, 64, 0
1, 39108, Note_on_c, 0, 52, 0
1, 39192, Note_on_c, 0, 64, 73
1, 39192, Note_on_c, 0, 71, 83
1, 39192, Note_on_c, 0, 50, 56
1, 39195, Note_on_c, 0, 62, 56
1, 39206, Control_c, 0, 64, 0
1, 39256, Note_on_c, 0, 71, 0
1, 39256, Note_on_c, 0, 64, 0
1, 39256, Note_on_c, 0, 62, 0
1, 39259, Note_on_c, 0, 50, 0
1, 39278, Note_on_c, 0, 64, 77
1, 39278, Note_on_c, 0, 69, 90
1, 39278, Note_on_c, 0, 60, 58
1, 39281, Note_on_c, 0, 48, 58
1, 39334, Control_c, 0, 64, 127
1, 39452, Note_on_c, 0, 69, 0
1, 39452, Note_on_c, 0, 64, 0
1, 39452, Note_on_c, 0, 48, 0
1, 39455, Note_on_c, 0, 60, 0
1, 39539, Note_on_c, 0, 62, 73
1, 39539, Note_on_c, 0, 67, 83
1, 39539, Note_on_c, 0, 59, 56
1, 39542, Note_on_c, 0, 47, 56
1, 39547, Control_c, 0, 64, 0
1, 39604, Note_on_c, 0, 67, 0
1, 39604, Note_on_c, 0, 62, 0
1, 39604, Note_on_c, 0, 47, 0
1, 39607, Note_on_c, 0, 59, 0
1, 39625, Note_on_c, 0, 65, 82
1, 39625, Note_on_c, 0, 60, 73
1, 39625, Note_on_c, 0, 57, 53
1, 39628, Note_on_c, 0, 45, 53
1, 39683, Control_c, 0, 64, 127
1, 39799, Note_on_c, 0, 60, 0
1, 39799, Note_on_c, 0, 65, 0
1, 39799, Note_on_c, 0, 45, 0
1, 39802, Note_on_c, 0, 57, 0
1, 39885, Note_on_c, 0, 64, 80
1, 39885, Note_on_c, 0, 59, 68
1, 39885, Note_on_c, 0, 44, 52
1, 39888, Note_on_c, 0, 56, 52
1, 39903, Control_c, 0, 64, 0
1, 39949, Note_on_c, 0, 59, 0
1, 39949, Note_on_c, 0, 64, 0
1, 39949, Note_on_c, 0, 56, 0
1, 39952, Note_on_c, 0, 44, 0
1, 39971, Note_on_c, 0, 60, 84
1, 39971, Note_on_c, 0, 65, 84
1, 39971, Note_on_c, 0, 57, 56
1, 39974, Note_on_c, 0, 45, 56
1, 40047, Control_c, 0, 64, 127
1, 40144, Note_on_c, 0, 65, 0
1, 40144, Note_on_c, 0, 60, 0
1, 40144, Note_on_c, 0, 45, 0
1, 40147, Note_on_c, 0, 57, 0
1, 40231, Note_on_c, 0, 59, 67
1, 40231, Note_on_c, 0, 64, 80
1, 40231, Note_on_c, 0, 55, 50
1, 40234, Note_on_c, 0, 43, 50
1, 40243, Control_c, 0, 64, 0
1, 40295, Note_on_c, 0, 64, 0
1, 40295, Note_on_c, 0, 59, 0
1, 40295, Note_on_c, 0, 43, 0
1, 40298, Note_on_c, 0, 55, 0
1, 40316, Note_on_c, 0, 57, 74
1, 40316, Note_on_c, 0, 62, 85
1, 40316, Note_on_c, 0, 53, 56
1, 40319, Note_on_c, 0, 41, 56
1, 40381, Control_c, 0, 64, 127
1, 40489, Note_on_c, 0, 62, 0
1, 40489, Note_on_c, 0, 57, 0
1, 40489, Note_on_c, 0, 41, 0
1, 40492, Note_on_c, 0, 53, 0
1, 40576, Note_on_c, 0, 61, 80
1, 40576, Note_on_c, 0, 55, 68
1, 40576, Note_on_c, 0, 52, 52
1, 40579, Note_on_c, 0, 40, 52
1, 40606, Control_c, 0, 64, 0
1, 40639, Note_on_c, 0, 55, 0
1, 40639, Note_on_c, 0, 61, 0
1, 40639, Note_on_c, 0, 40, 0
1, 40642, Note_on_c, 0, 52, 0
1, 40661, Note_on_c, 0, 57, 86
1, 40661, Note_on_c, 0, 62, 86
1, 40661, Note_on_c, 0, 53, 58
1, 40664, Note_on_c, 0, 41, 58
1, 40718, Control_c, 0, 64, 127
1, 40833, Note_on_c, 0, 62, 0
1, 40833, Note_on_c, 0, 57, 0
1, 40833, Note_on_c, 0, 41, 0
1, 40836, Note_on_c, 0, 53, 0
1, 40919, Note_on_c, 0, 59, 73
1, 40919, Note_on_c, 0, 64, 83
1, 40919, Note_on_c, 0, 56, 56
1, 40922, Note_on_c, 0, 44, 56
1, 40930, Control_c, 0, 64, 0
1, 40982, Note_on_c, 0, 64, 0
1, 40982, Note_on_c, 0, 59, 0
1, 40982, Note_on_c, 0, 44, 0
1, 40985, Note_on_c, 0, 56, 0
1, 41004, Note_on_c, 0, 60, 87
1, 41004, Note_on_c, 0, 65, 87
1, 41004, Note_on_c, 0, 45, 58
1, 41007, Note_on_c, 0, 57, 58
1, 41071, Control_c, 0, 64, 127
1, 41175, Note_on_c, 0, 65, 0
1, 41175, Note_on_c, 0, 60, 0
1, 41175, Note_on_c, 0, 57, 0
1, 41178, Note_on_c, 0, 45, 0
1, 41261, Note_on_c, 0, 62, 73
1, 41261, Note_on_c, 0, 68, 83
1, 41261, Note_on_c, 0, 47, 56
1, 41264, Note_on_c, 0, 59, 56
1, 41277, Control_c, 0, 64, 0
1, 41324, Note_on_c, 0, 68, 0
1, 41324, Note_on_c, 0, 62, 0
1, 41324, Note_on_c, 0, 59, 0
1, 41327, Note_on_c, 0, 47, 0
1, 41345, Note_on_c, 0, 69, 91
1, 41345, Note_on_c, 0, 64, 91
1, 41345, Note_on_c, 0, 48, 62
1, 41348, Note_on_c, 0, 60, 62
1, 41395, Control_c, 0, 64, 127
1, 41516, Note_on_c, 0, 64, 0
1, 41516, Note_on_c, 0, 69, 0
1, 41516, Note_on_c, 0, 60, 0
1, 41519, Note_on_c, 0, 48, 0
1, 41602, Note_on_c, 0, 64, 77
1, 41602, Note_on_c, 0, 71, 90
1, 41602, Note_on_c, 0, 50, 58
1, 41605, Note_on_c, 0, 62, 58
1, 41616, Control_c, 0, 64, 0
1, 41664, Note_on_c, 0, 71, 0
1, 41664, Note_on_c, 0, 64, 0
1, 41664, Note_on_c, 0, 62, 0
1, 41667, Note_on_c, 0, 50, 0
1, 41685, Note_on_c, 0, 64, 81
1, 41685, Note_on_c, 0, 69, 96
1, 41685, Note_on_c, 0, 60, 63
1, 41688, Note_on_c, 0, 48, 63
1, 41783, Note_on_c, 0, 69, 0
1, 41783, Note_on_c, 0, 64, 0
1, 41783, Note_on_c, 0, 48, 0
1, 41786, Note_on_c, 0, 60, 0
1, 42075, Note_on_c, 0, 57, 107
1, 42075, Note_on_c, 0, 45, 100
1, 42177, Control_c, 0, 64, 127
1, 42842, Note_on_c, 0, 57, 0
1, 42842, Note_on_c, 0, 57, 95
1, 42842, Note_on_c, 0, 69, 95
1, 42845, Note_on_c, 0, 65, 95
1, 42845, Note_on_c, 0, 45, 0
1, 42845, Note_on_c, 0, 38, 96
1, 42848, Note_on_c, 0, 45, 96
1, 42858, Control_c, 0, 64, 0
1, 43134, Control_c, 0, 64, 127
1, 43593, Note_on_c, 0, 65, 0
1, 43593, Note_on_c, 0, 69, 0
1, 43593, Note_on_c, 0, 57, 0
1, 43596, Note_on_c, 0, 70, 100
1, 43596, Note_on_c, 0, 58, 100
1, 43596, Note_on_c, 0, 67, 100
1, 43599, Note_on_c, 0, 45, 0
1, 43599, Note_on_c, 0, 38, 0
1, 43599, Note_on_c, 0, 37, 81
1, 43602, Note_on_c, 0, 45, 81
1, 43607, Control_c, 0, 64, 0
1, 43708, Control_c, 0, 64, 127
1, 44306, Control_c, 0, 64, 0
1, 44309, Note_on_c, 0, 67, 0
1, 44309, Note_on_c, 0, 58, 0
1, 44309, Note_on_c, 0, 70, 0
1, 44312, Note_on_c, 0, 65, 90
1, 44312, Note_on_c, 0, 69, 90
1, 44312, Note_on_c, 0, 57, 90
1, 44315, Note_on_c, 0, 37, 0
1, 44315, Note_on_c, 0, 38, 81
1, 44501, Note_on_c, 0, 57, 0
1, 44501, Note_on_c, 0, 69, 0
1, 44501, Note_on_c, 0, 65, 0
1, 44504, Note_on_c, 0, 38, 0
1, 44504, Note_on_c, 0, 45, 0
1, 44694, Note_on_c, 0, 69, 83
1, 44694, Note_on_c, 0, 77, 99
1, 44694, Note_on_c, 0, 57, 63
1, 44697, Note_on_c, 0, 69, 63
1, 44732, Control_c, 0, 64, 127
1, 44868, Note_on_c, 0, 77, 0
1, 44868, Note_on_c, 0, 69, 0
1, 44868, Note_on_c, 0, 69, 0
1, 44871, Note_on_c, 0, 57, 0
1, 44956, Note_on_c, 0, 69, 80
1, 44956, Note_on_c, 0, 76, 94
1, 44956, Note_on_c, 0, 55, 62
1, 44959, Note_on_c, 0, 67, 62
1, 44962, Control_c, 0, 64, 0
1, 45020, Note_on_c, 0, 76, 0
1, 45020, Note_on_c, 0, 69, 0
1, 45020, Note_on_c, 0, 67, 0
1, 45023, Note_on_c, 0, 55, 0
1, 45041, Note_on_c, 0, 74, 90
1, 45041, Note_on_c, 0, 69, 77
1, 45041, Note_on_c, 0, 53, 58
1, 45044, Note_on_c, 0, 65, 58
1, 45149, Control_c, 0, 64, 127
1, 45215, Note_on_c, 0, 69, 0
1, 45215, Note_on_c, 0, 74, 0
1, 45215, Note_on_c, 0, 65, 0
1, 45218, Note_on_c, 0, 53, 0
1, 45302, Note_on_c, 0, 67, 73
1, 45302, Note_on_c, 0, 72, 83
1, 45302, Note_on_c, 0, 52, 56
1, 45305, Note_on_c, 0, 64, 56
1, 45316, Control_c, 0, 64, 0
1, 45365, Note_on_c, 0, 72, 0
1, 45365, Note_on_c, 0, 67, 0
1, 45365, Note_on_c, 0, 64, 0
1, 45368, Note_on_c, 0, 52, 0
1, 45386, Note_on_c, 0, 65, 73
1, 45386, Note_on_c, 0, 70, 82
1, 45386, Note_on_c, 0, 62, 53
1, 45389, Note_on_c, 0, 50, 53
1, 45489, Control_c, 0, 64, 127
1, 45559, Note_on_c, 0, 70, 0
1, 45559, Note_on_c, 0, 65, 0
1, 45559, Note_on_c, 0, 50, 0
1, 45562, Note_on_c, 0, 62, 0
1, 45646, Note_on_c, 0, 64, 68
1, 45646, Note_on_c, 0, 69, 80
1, 45646, Note_on_c, 0, 49, 52
1, 45649, Note_on_c, 0, 61, 52
1, 45658, Control_c, 0, 64, 0
1, 45710, Note_on_c, 0, 69, 0
1, 45710, Note_on_c, 0, 64, 0
1, 45710, Note_on_c, 0, 61, 0
1, 45713, Note_on_c, 0, 49, 0
1, 45731, Note_on_c, 0, 70, 85
1, 45731, Note_on_c, 0, 65, 74
1, 45731, Note_on_c, 0, 50, 56
1, 45734, Note_on_c, 0, 62, 56
1, 45834, Control_c, 0, 64, 127
1, 45903, Note_on_c, 0, 65, 0
1, 45903, Note_on_c, 0, 70, 0
1, 45903, Note_on_c, 0, 62, 0
1, 45906, Note_on_c, 0, 50, 0
1, 45989, Note_on_c, 0, 64, 67
1, 45989, Note_on_c, 0, 69, 80
1, 45989, Note_on_c, 0, 48, 50
1, 45992, Note_on_c, 0, 60, 50
1, 46005, Control_c, 0, 64, 0
1, 46052, Note_on_c, 0, 69, 0
1, 46052, Note_on_c, 0, 64, 0
1, 46052, Note_on_c, 0, 60, 0
1, 46055, Note_on_c, 0, 48, 0
1, 46073, Note_on_c, 0, 62, 84
1, 46073, Note_on_c, 0, 67, 84
1, 46073, Note_on_c, 0, 46, 56
1, 46076, Note_on_c, 0, 58, 56
1, 46154, Control_c, 0, 64, 127
1, 46244, Note_on_c, 0, 67, 0
1, 46244, Note_on_c, 0, 62, 0
1, 46244, Note_on_c, 0, 58, 0
1, 46247, Note_on_c, 0, 46, 0
1, 46330, Note_on_c, 0, 60, 68
1, 46330, Note_on_c, 0, 66, 80
1, 46330, Note_on_c, 0, 57, 52
1, 46333, Note_on_c, 0, 45, 52
1, 46344, Control_c, 0, 64, 0
1, 46393, Note_on_c, 0, 66, 0
1, 46393, Note_on_c, 0, 60, 0
1, 46393, Note_on_c, 0, 45, 0
1, 46396, Note_on_c, 0, 57, 0
1, 46414, Note_on_c, 0, 62, 87
1, 46414, Note_on_c, 0, 67, 87
1, 46414, Note_on_c, 0, 58, 57
1, 46417, Note_on_c, 0, 46, 57
1, 46477, Control_c, 0, 64, 127
1, 46584, Note_on_c, 0, 67, 0
1, 46584, Note_on_c, 0, 62, 0
1, 46584, Note_on_c, 0, 46, 0
1, 46587, Note_on_c, 0, 58, 0
1, 46669, Note_on_c, 0, 69, 83
1, 46669, Note_on_c, 0, 64, 73
1, 46669, Note_on_c, 0, 61, 56
1, 46672, Note_on_c, 0, 49, 56
1, 46687, Control_c, 0, 64, 0
1, 46731, Note_on_c, 0, 64, 0
1, 46731, Note_on_c, 0, 69, 0
1, 46731, Note_on_c, 0, 49, 0
1, 46734, Note_on_c, 0, 61, 0
1, 46751, Note_on_c, 0, 65, 88
1, 46751, Note_on_c, 0, 70, 88
1, 46751, Note_on_c, 0, 62, 58
1, 46754, Note_on_c, 0, 50, 58
1, 46835, Control_c, 0, 64, 127
1, 46919, Note_on_c, 0, 70, 0
1, 46919, Note_on_c, 0, 65, 0
1, 46919, Note_on_c, 0, 50, 0
1, 46922, Note_on_c, 0, 62, 0
1, 47003, Note_on_c, 0, 67, 73
1, 47003, Note_on_c, 0, 73, 83
1, 47003, Note_on_c, 0, 64, 56
1, 47006, Note_on_c, 0, 52, 56
1, 47010, Control_c, 0, 64, 0
1, 47066, Note_on_c, 0, 73, 0
1, 47066, Note_on_c, 0, 67, 0
1, 47066, Note_on_c, 0, 52, 0
1, 47069, Note_on_c, 0, 64, 0
1, 47087, Note_on_c, 0, 69, 80
1, 47087, Note_on_c, 0, 74, 94
1, 47087, Note_on_c, 0, 53, 62
1, 47090, Note_on_c, 0, 65, 62
1, 47155, Control_c, 0, 64, 127
1, 47255, Note_on_c, 0, 74, 0
1, 47255, Note_on_c, 0, 69, 0
1, 47255, Note_on_c, 0, 65, 0
1, 47258, Note_on_c, 0, 53, 0
1, 47339, Note_on_c, 0, 76, 90
1, 47339, Note_on_c, 0, 69, 77
1, 47339, Note_on_c, 0, 55, 58
1, 47342, Note_on_c, 0, 67, 58
1, 47355, Control_c, 0, 64, 0
1, 47401, Note_on_c, 0, 69, 0
1, 47401, Note_on_c, 0, 76, 0
1, 47401, Note_on_c, 0, 67, 0
1, 47404, Note_on_c, 0, 55, 0
1, 47422, Note_on_c, 0, 69, 81
1, 47422, Note_on_c, 0, 74, 96
1, 47422, Note_on_c, 0, 53, 63
1, 47425, Note_on_c, 0, 65, 63
1, 47517, Note_on_c, 0, 74, 0
1, 47517, Note_on_c, 0, 69, 0
1, 47517, Note_on_c, 0, 65, 0
1, 47520, Note_on_c, 0, 53, 0
1, 47800, Note_on_c, 0, 55, 96
1, 47800, Note_on_c, 0, 58, 106
1, 47800, Note_on_c, 0, 50, 96
1, 47803, Note_on_c, 0, 62, 106
1, 47816, Control_c, 0, 64, 127
1, 48524, Note_on_c, 0, 62, 0
1, 48524, Note_on_c, 0, 55, 0
1, 48524, Note_on_c, 0, 58, 0
1, 48527, Note_on_c, 0, 50, 0
1, 48527, Note_on_c, 0, 38, 82
1, 48527, Note_on_c, 0, 50, 91
1, 48540, Control_c, 0, 64, 0
1, 48664, Note_on_c, 0, 50, 0
1, 48664, Note_on_c, 0, 38, 0
1, 49274, Note_on_c, 0, 50, 95
1, 49274, Note_on_c, 0, 53, 95
1, 49274, Note_on_c, 0, 62, 105
1, 49277, Note_on_c, 0, 57, 105
1, 49283, Control_c, 0, 64, 127
1, 49998, Note_on_c, 0, 57, 0
1, 49998, Note_on_c, 0, 50, 0
1, 49998, Note_on_c, 0, 53, 0
1, 50001, Note_on_c, 0, 62, 0
1, 50001, Note_on_c, 0, 50, 91
1, 50001, Note_on_c, 0, 38, 82
1, 50006, Control_c, 0, 64, 0
1, 50135, Note_on_c, 0, 38, 0
1, 50135, Note_on_c, 0, 50, 0
1, 50364, Note_on_c, 0, 62, 93
1, 50364, Note_on_c, 0, 74, 103
1, 50401, Control_c, 0, 64, 127
1, 50726, Note_on_c, 0, 55, 87
1, 50726, Note_on_c, 0, 58, 96
1, 50726, Note_on_c, 0, 62, 96
1, 50729, Note_on_c, 0, 50, 87
1, 51081, Note_on_c, 0, 67, 90
1, 51081, Note_on_c, 0, 79, 99
1, 51095, Note_on_c, 0, 74, 0
1, 51095, Note_on_c, 0, 62, 0
1, 51433, Note_on_c, 0, 69, 94
1, 51433, Note_on_c, 0, 81, 104
1, 51433, Note_on_c, 0, 50, 0
1, 51436, Note_on_c, 0, 55, 0
1, 51436, Note_on_c, 0, 58, 0
1, 51436, Note_on_c, 0, 62, 0
1, 51439, Note_on_c, 0, 38, 72
1, 51439, Note_on_c, 0, 50, 79
1, 51448, Note_on_c, 0, 67, 0
1, 51448, Note_on_c, 0, 79, 0
1, 51462, Control_c, 0, 64, 0
1, 51565, Note_on_c, 0, 50, 0
1, 51565, Note_on_c, 0, 38, 0
1, 51609, Control_c, 0, 64, 127
1, 51784, Note_on_c, 0, 70, 90
1, 51784, Note_on_c, 0, 82, 99
1, 51789, Control_c, 0, 64, 0
1, 51799, Note_on_c, 0, 69, 0
1, 51799, Note_on_c, 0, 81, 0
1, 51853, Control_c, 0, 64, 127
1, 52131, Note_on_c, 0, 69, 93
1, 52131, Note_on_c, 0, 81, 103
1, 52131, Note_on_c, 0, 53, 83
1, 52134, Note_on_c, 0, 57, 92
1, 52134, Note_on_c, 0, 50, 83
1, 52134, Note_on_c, 0, 62, 92
1, 52139, Control_c, 0, 64, 0
1, 52145, Note_on_c, 0, 70, 0
1, 52145, Note_on_c, 0, 82, 0
1, 52211, Control_c, 0, 64, 127
1, 52796, Note_on_c, 0, 69, 0
1, 52796, Note_on_c, 0, 81, 0
1, 52796, Note_on_c, 0, 62, 86
1, 52799, Note_on_c, 0, 74, 95
1, 52799, Note_on_c, 0, 62, 0
1, 52799, Note_on_c, 0, 53, 0
1, 52802, Note_on_c, 0, 57, 0
1, 52802, Note_on_c, 0, 50, 0
1, 52802, Note_on_c, 0, 38, 76
1, 52805, Note_on_c, 0, 50, 84
1, 52816, Control_c, 0, 64, 0
1, 52944, Note_on_c, 0, 74, 0
1, 52944, Note_on_c, 0, 62, 0
1, 52944, Note_on_c, 0, 50, 0
1, 52947, Note_on_c, 0, 38, 0
1, 53152, Note_on_c, 0, 72, 97
1, 53152, Note_on_c, 0, 84, 107
1, 53508, Note_on_c, 0, 70, 97
1, 53508, Note_on_c, 0, 82, 107
1, 53508, Note_on_c, 0, 50, 83
1, 53511, Note_on_c, 0, 55, 83
1, 53511, Note_on_c, 0, 62, 92
1, 53511, Note_on_c, 0, 58, 92
1, 53522, Note_on_c, 0, 84, 0
1, 53522, Note_on_c, 0, 72, 0
1, 53537, Control_c, 0, 64, 127
1, 54173, Note_on_c, 0, 70, 0
1, 54173, Note_on_c, 0, 82, 0
1, 54173, Note_on_c, 0, 74, 102
1, 54176, Note_on_c, 0, 62, 92
1, 54176, Note_on_c, 0, 58, 0
1, 54176, Note_on_c, 0, 50, 0
1, 54179, Note_on_c, 0, 55, 0
1, 54179, Note_on_c, 0, 62, 0
1, 54179, Note_on_c, 0, 50, 84
1, 54182, Note_on_c, 0, 38, 76
1, 54204, Control_c, 0, 64, 0
1, 54321, Note_on_c, 0, 62, 0
1, 54321, Note_on_c, 0, 74, 0
1, 54321, Note_on_c, 0, 38, 0
1, 54324, Note_on_c, 0, 50, 0
1, 54529, Note_on_c, 0, 70, 97
1, 54529, Note_on_c, 0, 82, 107
1, 54881, Note_on_c, 0, 69, 92
1, 54881, Note_on_c, 0, 81, 102
1, 54881, Note_on_c, 0, 53, 84
1, 54884, Note_on_c, 0, 57, 93
1, 54884, Note_on_c, 0, 62, 93
1, 54884, Note_on_c, 0, 50, 84
1, 54894, Note_on_c, 0, 82, 0
1, 54894, Note_on_c, 0, 70, 0
1, 54917, Control_c, 0, 64, 127
1, 55545, Note_on_c, 0, 69, 0
1, 55545, Note_on_c, 0, 81, 0
1, 55545, Note_on_c, 0, 62, 85
1, 55548, Note_on_c, 0, 74, 94
1, 55548, Note_on_c, 0, 50, 0
1, 55548, Note_on_c, 0, 53, 0
1, 55551, Note_on_c, 0, 57, 0
1, 55551, Note_on_c, 0, 62, 0
1, 55551, Note_on_c, 0, 50, 83
1, 55554, Note_on_c, 0, 38, 75
1, 55564, Control_c, 0, 64, 0
1, 55694, Note_on_c, 0, 74, 0
1, 55694, Note_on_c, 0, 62, 0
1, 55694, Note_on_c, 0, 38, 0
1, 55697, Note_on_c, 0, 50, 0
1, 55903, Note_on_c, 0, 74, 107
1, 55903, Note_on_c, 0, 62, 97
1, 55933, Control_c, 0, 64, 127
1, 56249, Note_on_c, 0, 50, 85
1, 56249, Note_on_c, 0, 55, 85
1, 56249, Note_on_c, 0, 62, 94
1, 56252, Note_on_c, 0, 58, 94
1, 56603, Note_on_c, 0, 67, 91
1, 56603, Note_on_c, 0, 79, 101
1, 56617, Note_on_c, 0, 62, 0
1, 56617, Note_on_c, 0, 74, 0
1, 56940, Note_on_c, 0, 69, 96
1, 56940, Note_on_c, 0, 81, 106
1, 56940, Note_on_c, 0, 58, 0
1, 56943, Note_on_c, 0, 50, 0
1, 56943, Note_on_c, 0, 55, 0
1, 56943, Note_on_c, 0, 62, 0
1, 56946, Note_on_c, 0, 38, 76
1, 56946, Note_on_c, 0, 50, 84
1, 56954, Note_on_c, 0, 67, 0
1, 56954, Note_on_c, 0, 79, 0
1, 56965, Control_c, 0, 64, 0
1, 57069, Note_on_c, 0, 50, 0
1, 57069, Note_on_c, 0, 38, 0
1, 57134, Control_c, 0, 64, 127
1, 57283, Note_on_c, 0, 70, 93
1, 57283, Note_on_c, 0, 82, 103
1, 57286, Control_c, 0, 64, 0
1, 57297, Note_on_c, 0, 69, 0
1, 57297, Note_on_c, 0, 81, 0
1, 57347, Control_c, 0, 64, 127
1, 57631, Note_on_c, 0, 69, 98
1, 57631, Note_on_c, 0, 81, 108
1, 57631, Note_on_c, 0, 50, 85
1, 57634, Note_on_c, 0, 57, 94
1, 57634, Note_on_c, 0, 62, 94
1, 57634, Note_on_c, 0, 53, 85
1, 57639, Control_c, 0, 64, 0
1, 57644, Note_on_c, 0, 70, 0
1, 57644, Note_on_c, 0, 82, 0
1, 57727, Control_c, 0, 64, 127
1, 58288, Note_on_c, 0, 69, 0
1, 58288, Note_on_c, 0, 81, 0
1, 58288, Note_on_c, 0, 74, 94
1, 58291, Note_on_c, 0, 62, 85
1, 58291, Note_on_c, 0, 53, 0
1, 58291, Note_on_c, 0, 50, 0
1, 58294, Note_on_c, 0, 57, 0
1, 58294, Note_on_c, 0, 62, 0
1, 58294, Note_on_c, 0, 38, 76
1, 58297, Note_on_c, 0, 50, 84
1, 58306, Control_c, 0, 64, 0
1, 58434, Note_on_c, 0, 62, 0
1, 58434, Note_on_c, 0, 74, 0
1, 58434, Note_on_c, 0, 50, 0
1, 58437, Note_on_c, 0, 38, 0
1, 58637, Note_on_c, 0, 69, 94
1, 58637, Note_on_c, 0, 81, 104
1, 58675, Control_c, 0, 64, 127
1, 58980, Note_on_c, 0, 52, 82
1, 58980, Note_on_c, 0, 57, 91
1, 58980, Note_on_c, 0, 60, 91
1, 58983, Note_on_c, 0, 48, 82
1, 59322, Note_on_c, 0, 84, 105
1, 59322, Note_on_c, 0, 72, 95
1, 59336, Note_on_c, 0, 81, 0
1, 59336, Note_on_c, 0, 69, 0
1, 59660, Note_on_c, 0, 74, 103
1, 59660, Note_on_c, 0, 86, 114
1, 59660, Note_on_c, 0, 48, 0
1, 59663, Note_on_c, 0, 52, 0
1, 59663, Note_on_c, 0, 57, 0
1, 59663, Note_on_c, 0, 60, 0
1, 59666, Note_on_c, 0, 48, 81
1, 59666, Note_on_c, 0, 36, 73
1, 59674, Note_on_c, 0, 84, 0
1, 59674, Note_on_c, 0, 72, 0
1, 59678, Control_c, 0, 64, 0
1, 59788, Note_on_c, 0, 36, 0
1, 59788, Note_on_c, 0, 48, 0
1, 59801, Control_c, 0, 64, 127
1, 60001, Note_on_c, 0, 88, 111
1, 60001, Note_on_c, 0, 76, 100
1, 60007, Control_c, 0, 64, 0
1, 60017, Note_on_c, 0, 74, 0
1, 60017, Note_on_c, 0, 86, 0
1, 60064, Control_c, 0, 64, 127
1, 60370, Note_on_c, 0, 88, 0
1, 60370, Note_on_c, 0, 76, 0
1, 60370, Note_on_c, 0, 88, 118
1, 60373, Note_on_c, 0, 76, 107
1, 60373, Note_on_c, 0, 47, 84
1, 60373, Note_on_c, 0, 56, 93
1, 60376, Note_on_c, 0, 59, 93
1, 60379, Control_c, 0, 64, 0
1, 60471, Control_c, 0, 64, 127
1, 61064, Note_on_c, 0, 76, 0
1, 61064, Note_on_c, 0, 88, 0
1, 61064, Note_on_c, 0, 59, 0
1, 61067, Note_on_c, 0, 56, 0
1, 61067, Note_on_c, 0, 47, 0
1, 61094, Note_on_c, 0, 76, 94
1, 61094, Note_on_c, 0, 88, 104
1, 61094, Note_on_c, 0, 64, 86
1, 61097, Note_on_c, 0, 52, 78
1, 61097, Note_on_c, 0, 56, 86
1, 61104, Control_c, 0, 64, 0
1, 61167, Control_c, 0, 64, 127
1, 61768, Note_on_c, 0, 88, 0
1, 61768, Note_on_c, 0, 76, 0
1, 61768, Note_on_c, 0, 56, 0
1, 61771, Note_on_c, 0, 52, 0
1, 61771, Note_on_c, 0, 64, 0
1, 61798, Note_on_c, 0, 84, 106
1, 61798, Note_on_c, 0, 72, 96
1, 61798, Note_on_c, 0, 48, 81
1, 61801, Note_on_c, 0, 60, 89
1, 61808, Control_c, 0, 64, 0
1, 61900, Control_c, 0, 64, 127
1, 62492, Note_on_c, 0, 72, 0
1, 62492, Note_on_c, 0, 84, 0
1, 62492, Note_on_c, 0, 81, 91
1, 62495, Note_on_c, 0, 69, 82
1, 62495, Note_on_c, 0, 60, 0
1, 62495, Note_on_c, 0, 48, 0
1, 62498, Note_on_c, 0, 45, 75
1, 62498, Note_on_c, 0, 57, 83
1, 62571, Control_c, 0, 64, 0
1, 62648, Note_on_c, 0, 69, 0
1, 62648, Note_on_c, 0, 81, 0
1, 62648, Note_on_c, 0, 57, 0
1, 62651, Note_on_c, 0, 45, 0
1, 63239, Note_on_c, 0, 64, 58
1, 63239, Note_on_c, 0, 76, 58
1, 63239, Note_on_c, 0, 44, 50
1, 63242, Note_on_c, 0, 47, 50
1, 63242, Note_on_c, 0, 35, 50
1, 63292, Control_c, 0, 64, 127
1, 63956, Note_on_c, 0, 76, 0
1, 63956, Note_on_c, 0, 64, 0
1, 63956, Note_on_c, 0, 35, 0
1, 63959, Note_on_c, 0, 47, 0
1, 63959, Note_on_c, 0, 44, 0
1, 63987, Note_on_c, 0, 76, 58
1, 63987, Note_on_c, 0, 64, 58
1, 63987, Note_on_c, 0, 40, 47
1, 63990, Note_on_c, 0, 44, 47
1, 63990, Note_on_c, 0, 52, 47
1, 63996, Control_c, 0, 64, 0
1, 64064, Control_c, 0, 64, 127
1, 64683, Note_on_c, 0, 64, 0
1, 64683, Note_on_c, 0, 76, 0
1, 64683, Note_on_c, 0, 52, 0
1, 64686, Note_on_c, 0, 44, 0
1, 64686, Note_on_c, 0, 40, 0
1, 64714, Note_on_c, 0, 60, 55
1, 64714, Note_on_c, 0, 72, 55
1, 64714, Note_on_c, 0, 48, 47
1, 64717, Note_on_c, 0, 36, 47
1, 64720, Control_c, 0, 64, 0
1, 64781, Control_c, 0, 64, 127
1, 65413, Note_on_c, 0, 72, 0
1, 65413, Note_on_c, 0, 60, 0
1, 65413, Note_on_c, 0, 57, 51
1, 65416, Note_on_c, 0, 69, 51
1, 65416, Note_on_c, 0, 36, 0
1, 65416, Note_on_c, 0, 48, 0
1, 65419, Note_on_c, 0, 45, 47
1, 65419, Note_on_c, 0, 33, 47
1, 65483, Control_c, 0, 64, 0
1, 65565, Note_on_c, 0, 69, 0
1, 65565, Note_on_c, 0, 57, 0
1, 65565, Note_on_c, 0, 33, 0
1, 65568, Note_on_c, 0, 45, 0
1, 66140, Note_on_c, 0, 58, 44
1, 66140, Note_on_c, 0, 70, 44
1, 66140, Note_on_c, 0, 34, 41
1, 66143, Note_on_c, 0, 46, 41
1, 66173, Control_c, 0, 64, 127
1, 66825, Note_on_c, 0, 70, 0
1, 66825, Note_on_c, 0, 58, 0
1, 66825, Note_on_c, 0, 67, 35
1, 66828, Note_on_c, 0, 55, 35
1, 66828, Note_on_c, 0, 46, 0
1, 66828, Note_on_c, 0, 34, 0
1, 66831, Note_on_c, 0, 31, 34
1, 66831, Note_on_c, 0, 43, 34
1, 66860, Control_c, 0, 64, 0
1, 66960, Note_on_c, 0, 55, 0
1, 66960, Note_on_c, 0, 67, 0
1, 66960, Note_on_c, 0, 43, 0
1, 66963, Note_on_c, 0, 31, 0
1, 67543, Note_on_c, 0, 58, 41
1, 67543, Note_on_c, 0, 70, 41
1, 67543, Note_on_c, 0, 34, 40
1, 67546, Note_on_c, 0, 46, 40
1, 67560, Control_c, 0, 64, 127
1, 68228, Note_on_c, 0, 70, 0
1, 68228, Note_on_c, 0, 58, 0
1, 68228, Note_on_c, 0, 55, 35
1, 68231, Note_on_c, 0, 67, 35
1, 68231, Note_on_c, 0, 46, 0
1, 68231, Note_on_c, 0, 34, 0
1, 68234, Note_on_c, 0, 31, 32
1, 68234, Note_on_c, 0, 43, 32
1, 68247, Control_c, 0, 64, 0
1, 68362, Note_on_c, 0, 67, 0
1, 68362, Note_on_c, 0, 55, 0
1, 68362, Note_on_c, 0, 43, 0
1, 68365, Note_on_c, 0, 31, 0
1, 68940, Note_on_c, 0, 58, 41
1, 68940, Note_on_c, 0, 70, 41
1, 68940, Note_on_c, 0, 46, 40
1, 68943, Note_on_c, 0, 34, 40
1, 68957, Control_c, 0, 64, 127
1, 69622, Note_on_c, 0, 70, 0
1, 69622, Note_on_c, 0, 58, 0
1, 69622, Note_on_c, 0, 55, 34
1, 69625, Note_on_c, 0, 67, 34
1, 69625, Note_on_c, 0, 34, 0
1, 69625, Note_on_c, 0, 46, 0
1, 69628, Note_on_c, 0, 31, 33
1, 69628, Note_on_c, 0, 43, 33
1, 69641, Control_c, 0, 64, 0
1, 69753, Note_on_c, 0, 67, 0
1, 69753, Note_on_c, 0, 55, 0
1, 69753, Note_on_c, 0, 43, 0
1, 69756, Note_on_c, 0, 31, 0
1, 70319, Note_on_c, 0, 70, 44
1, 70319, Note_on_c, 0, 58, 44
1, 70319, Note_on_c, 0, 34, 41
1, 70322, Note_on_c, 0, 46, 41
1, 70322, Control_c, 0, 64, 127
1, 70994, Note_on_c, 0, 58, 0
1, 70994, Note_on_c, 0, 70, 0
1, 70994, Note_on_c, 0, 55, 39
1, 70997, Note_on_c, 0, 67, 39
1, 70997, Note_on_c, 0, 46, 0
1, 70997, Note_on_c, 0, 34, 0
1, 71000, Note_on_c, 0, 31, 36
1, 71000, Note_on_c, 0, 43, 36
1, 71000, Control_c, 0, 64, 0
1, 71121, Note_on_c, 0, 67, 0
1, 71121, Note_on_c, 0, 55, 0
1, 71121, Note_on_c, 0, 43, 0
1, 71124, Note_on_c, 0, 31, 0
1, 71669, Note_on_c, 0, 59, 90
1, 71669, Note_on_c, 0, 35, 78
1, 71703, Control_c, 0, 64, 127
1, 71751, Note_on_c, 0, 59, 0
1, 71751, Note_on_c, 0, 71, 86
1, 71751, Note_on_c, 0, 35, 0
1, 71754, Note_on_c, 0, 47, 65
1, 71832, Note_on_c, 0, 71, 0
1, 71832, Note_on_c, 0, 59, 82
1, 71832, Note_on_c, 0, 47, 0
1, 71835, Note_on_c, 0, 35, 64
1, 71916, Note_on_c, 0, 59, 0
1, 71916, Note_on_c, 0, 71, 77
1, 71916, Note_on_c, 0, 35, 0
1, 71919, Note_on_c, 0, 47, 62
1, 71998, Note_on_c, 0, 71, 0
1, 71998, Note_on_c, 0, 59, 73
1, 71998, Note_on_c, 0, 47, 0
1, 72001, Note_on_c, 0, 35, 61
1, 72080, Note_on_c, 0, 59, 0
1, 72080, Note_on_c, 0, 71, 70
1, 72080, Note_on_c, 0, 35, 0
1, 72083, Note_on_c, 0, 47, 59
1, 72163, Note_on_c, 0, 71, 0
1, 72163, Note_on_c, 0, 59, 67
1, 72163, Note_on_c, 0, 47, 0
1, 72166, Note_on_c, 0, 35, 58
1, 72244, Note_on_c, 0, 59, 0
1, 72244, Note_on_c, 0, 71, 64
1, 72244, Note_on_c, 0, 35, 0
1, 72247, Note_on_c, 0, 47, 56
1, 72325, Note_on_c, 0, 71, 0
1, 72325, Note_on_c, 0, 59, 70
1, 72325, Note_on_c, 0, 47, 0
1, 72328, Note_on_c, 0, 35, 59
1, 72407, Note_on_c, 0, 59, 0
1, 72407, Note_on_c, 0, 71, 67
1, 72407, Note_on_c, 0, 35, 0
1, 72410, Note_on_c, 0, 47, 58
1, 72489, Note_on_c, 0, 71, 0
1, 72489, Note_on_c, 0, 59, 65
1, 72489, Note_on_c, 0, 47, 0
1, 72492, Note_on_c, 0, 35, 57
1, 72570, Note_on_c, 0, 59, 0
1, 72570, Note_on_c, 0, 71, 62
1, 72570, Note_on_c, 0, 35, 0
1, 72573, Note_on_c, 0, 47, 55
1, 72652, Note_on_c, 0, 71, 0
1, 72652, Note_on_c, 0, 59, 68
1, 72652, Note_on_c, 0, 47, 0
1, 72655, Note_on_c, 0, 35, 61
1, 72734, Note_on_c, 0, 59, 0
1, 72734, Note_on_c, 0, 71, 66
1, 72734, Note_on_c, 0, 35, 0
1, 72737, Note_on_c, 0, 47, 57
1, 72814, Note_on_c, 0, 71, 0
1, 72814, Note_on_c, 0, 59, 64
1, 72814, Note_on_c, 0, 47, 0
1, 72817, Note_on_c, 0, 35, 54
1, 72894, Note_on_c, 0, 59, 0
1, 72894, Note_on_c, 0, 71, 61
1, 72894, Note_on_c, 0, 35, 0
1, 72897, Note_on_c, 0, 47, 53
1, 72976, Note_on_c, 0, 71, 0
1, 72976, Note_on_c, 0, 56, 90
1, 72976, Note_on_c, 0, 47, 0
1, 72979, Note_on_c, 0, 32, 74
1, 72979, Control_c, 0, 64, 0
1, 73029, Control_c, 0, 64, 127
1, 73056, Note_on_c, 0, 56, 0
1, 73056, Note_on_c, 0, 68, 85
1, 73056, Note_on_c, 0, 32, 0
1, 73059, Note_on_c, 0, 44, 63
1, 73136, Note_on_c, 0, 68, 0
1, 73136, Note_on_c, 0, 56, 79
1, 73136, Note_on_c, 0, 44, 0
1, 73139, Note_on_c, 0, 32, 60
1, 73217, Note_on_c, 0, 56, 0
1, 73217, Note_on_c, 0, 68, 75
1, 73217, Note_on_c, 0, 32, 0
1, 73220, Note_on_c, 0, 44, 56
1, 73298, Note_on_c, 0, 68, 0
1, 73298, Note_on_c, 0, 56, 71
1, 73298, Note_on_c, 0, 44, 0
1, 73301, Note_on_c, 0, 32, 67
1, 73379, Note_on_c, 0, 56, 0
1, 73379, Note_on_c, 0, 68, 70
1, 73379, Note_on_c, 0, 32, 0
1, 73382, Note_on_c, 0, 44, 63
1, 73462, Note_on_c, 0, 68, 0
1, 73462, Note_on_c, 0, 56, 69
1, 73462, Note_on_c, 0, 44, 0
1, 73465, Note_on_c, 0, 32, 62
1, 73544, Note_on_c, 0, 56, 0
1, 73544, Note_on_c, 0, 68, 68
1, 73544, Note_on_c, 0, 32, 0
1, 73547, Note_on_c, 0, 44, 61
1, 73624, Note_on_c, 0, 68, 0
1, 73624, Note_on_c, 0, 56, 79
1, 73624, Note_on_c, 0, 44, 0
1, 73627, Note_on_c, 0, 32, 69
1, 73706, Note_on_c, 0, 56, 0
1, 73706, Note_on_c, 0, 68, 78
1, 73706, Note_on_c, 0, 32, 0
1, 73709, Note_on_c, 0, 44, 64
1, 73789, Note_on_c, 0, 68, 0
1, 73789, Note_on_c, 0, 56, 76
1, 73789, Note_on_c, 0, 44, 0
1, 73792, Note_on_c, 0, 32, 63
1, 73870, Note_on_c, 0, 56, 0
1, 73870, Note_on_c, 0, 68, 73
1, 73870, Note_on_c, 0, 32, 0
1, 73873, Note_on_c, 0, 44, 49
1, 73950, Note_on_c, 0, 68, 0
1, 73950, Note_on_c, 0, 56, 83
1, 73950, Note_on_c, 0, 44, 0
1, 73953, Note_on_c, 0, 32, 69
1, 74030, Note_on_c, 0, 56, 0
1, 74030, Note_on_c, 0, 68, 80
1, 74030, Note_on_c, 0, 32, 0
1, 74033, Note_on_c, 0, 44, 68
1, 74111, Note_on_c, 0, 68, 0
1, 74111, Note_on_c, 0, 56, 77
1, 74111, Note_on_c, 0, 44, 0
1, 74114, Note_on_c, 0, 32, 66
1, 74194, Note_on_c, 0, 56, 0
1, 74194, Note_on_c, 0, 68, 74
1, 74194, Note_on_c, 0, 32, 0
1, 74197, Note_on_c, 0, 44, 64
1, 74290, Note_on_c, 0, 68, 0
1, 74290, Note_on_c, 0, 83, 109
1, 74290, Note_on_c, 0, 71, 109
1, 74293, Note_on_c, 0, 44, 0
1, 74293, Note_on_c, 0, 59, 89
1, 74293, Note_on_c, 0, 47, 89
1, 74296, Control_c, 0, 64, 0
1, 74387, Control_c, 0, 64, 127
1, 74625, Note_on_c, 0, 71, 0
1, 74625, Note_on_c, 0, 83, 0
1, 74625, Note_on_c, 0, 68, 100
1, 74628, Note_on_c, 0, 80, 100
1, 74628, Note_on_c, 0, 47, 0
1, 74628, Note_on_c, 0, 59, 0
1, 74631, Note_on_c, 0, 56, 79
1, 74631, Note_on_c, 0, 44, 79
1, 74754, Note_on_c, 0, 80, 0
1, 74754, Note_on_c, 0, 68, 0
1, 74754, Note_on_c, 0, 44, 0
1, 74757, Note_on_c, 0, 56, 0
1, 74787, Control_c, 0, 64, 0
1, 74968, Note_on_c, 0, 71, 108
1, 74968, Note_on_c, 0, 83, 108
1, 74968, Note_on_c, 0, 59, 89
1, 74971, Note_on_c, 0, 47, 89
1, 74978, Control_c, 0, 64, 127
1, 75304, Note_on_c, 0, 83, 0
1, 75304, Note_on_c, 0, 71, 0
1, 75304, Note_on_c, 0, 88, 103
1, 75307, Note_on_c, 0, 76, 103
1, 75307, Note_on_c, 0, 47, 0
1, 75307, Note_on_c, 0, 59, 0
1, 75310, Note_on_c, 0, 52, 79
1, 75310, Note_on_c, 0, 64, 79
1, 75434, Note_on_c, 0, 76, 0
1, 75434, Note_on_c, 0, 88, 0
1, 75434, Note_on_c, 0, 64, 0
1, 75437, Note_on_c, 0, 52, 0
1, 75505, Control_c, 0, 64, 0
1, 75650, Note_on_c, 0, 71, 105
1, 75650, Note_on_c, 0, 83, 105
1, 75650, Note_on_c, 0, 59, 85
1, 75653, Note_on_c, 0, 47, 85
1, 75658, Control_c, 0, 64, 127
1, 75993, Note_on_c, 0, 83, 0
1, 75993, Note_on_c, 0, 71, 0
1, 75993, Note_on_c, 0, 68, 100
1, 75996, Note_on_c, 0, 80, 100
1, 75996, Note_on_c, 0, 47, 0
1, 75996, Note_on_c, 0, 59, 0
1, 75999, Note_on_c, 0, 56, 80
1, 75999, Note_on_c, 0, 44, 80
1, 76125, Note_on_c, 0, 80, 0
1, 76125, Note_on_c, 0, 68, 0
1, 76125, Note_on_c, 0, 44, 0
1, 76128, Note_on_c, 0, 56, 0
1, 76216, Control_c, 0, 64, 0
1, 76345, Note_on_c, 0, 76, 100
1, 76345, Note_on_c, 0, 64, 100
1, 76345, Note_on_c, 0, 52, 79
1, 76348, Note_on_c, 0, 40, 79
1, 76378, Control_c, 0, 64, 127
1, 76713, Note_on_c, 0, 64, 0
1, 76713, Note_on_c, 0, 76, 0
1, 76713, Note_on_c, 0, 59, 91
1, 76716, Note_on_c, 0, 71, 91
1, 76716, Note_on_c, 0, 40, 0
1, 76716, Note_on_c, 0, 52, 0
1, 76719, Note_on_c, 0, 47, 70
1, 76719, Note_on_c, 0, 35, 70
1, 76892, Note_on_c, 0, 71, 0
1, 76892, Note_on_c, 0, 59, 0
1, 76892, Note_on_c, 0, 35, 0
1, 76895, Note_on_c, 0, 47, 0
1, 77049, Control_c, 0, 64, 0
1, 77189, Note_on_c, 0, 68, 44
1, 77189, Note_on_c, 0, 64, 44
1, 77189, Note_on_c, 0, 56, 44
1, 77192, Note_on_c, 0, 35, 37
1, 77192, Note_on_c, 0, 47, 37
1, 77229, Control_c, 0, 64, 127
1, 78631, Note_on_c, 0, 56, 0
1, 78631, Note_on_c, 0, 64, 0
1, 78631, Note_on_c, 0, 68, 0
1, 78634, Note_on_c, 0, 57, 48
1, 78634, Note_on_c, 0, 71, 48
1, 78634, Note_on_c, 0, 63, 48
1, 78646, Control_c, 0, 64, 0
1, 78931, Control_c, 0, 64, 127
1, 80072, Note_on_c, 0, 63, 0
1, 80072, Note_on_c, 0, 71, 0
1, 80072, Note_on_c, 0, 57, 0
1, 80075, Note_on_c, 0, 59, 103
1, 80075, Note_on_c, 0, 47, 0
1, 80075, Note_on_c, 0, 35, 0
1, 80078, Control_c, 0, 64, 0
1, 80078, Note_on_c, 0, 35, 91
1, 80105, Control_c, 0, 64, 127
1, 80151, Note_on_c, 0, 59, 0
1, 80151, Note_on_c, 0, 71, 97
1, 80151, Note_on_c, 0, 35, 0
1, 80154, Note_on_c, 0, 47, 60
1, 80229, Note_on_c, 0, 71, 0
1, 80229, Note_on_c, 0, 59, 91
1, 80229, Note_on_c, 0, 47, 0
1, 80232, Note_on_c, 0, 35, 73
1, 80308, Note_on_c, 0, 59, 0
1, 80308, Note_on_c, 0, 71, 85
1, 80308, Note_on_c, 0, 35, 0
1, 80311, Note_on_c, 0, 47, 58
1, 80387, Note_on_c, 0, 71, 0
1, 80387, Note_on_c, 0, 56, 101
1, 80387, Note_on_c, 0, 47, 0
1, 80390, Note_on_c, 0, 32, 82
1, 80466, Note_on_c, 0, 56, 0
1, 80466, Note_on_c, 0, 68, 96
1, 80466, Note_on_c, 0, 32, 0
1, 80469, Note_on_c, 0, 44, 62
1, 80544, Note_on_c, 0, 68, 0
1, 80544, Note_on_c, 0, 56, 91
1, 80544, Note_on_c, 0, 44, 0
1, 80547, Note_on_c, 0, 32, 68
1, 80623, Note_on_c, 0, 56, 0
1, 80623, Note_on_c, 0, 68, 85
1, 80623, Note_on_c, 0, 32, 0
1, 80626, Note_on_c, 0, 44, 56
1, 80702, Note_on_c, 0, 68, 0
1, 80702, Note_on_c, 0, 59, 94
1, 80702, Note_on_c, 0, 44, 0
1, 80705, Note_on_c, 0, 35, 82
1, 80779, Note_on_c, 0, 59, 0
1, 80779, Note_on_c, 0, 71, 90
1, 80779, Note_on_c, 0, 35, 0
1, 80782, Note_on_c, 0, 47, 63
1, 80857, Note_on_c, 0, 71, 0
1, 80857, Note_on_c, 0, 59, 87
1, 80857, Note_on_c, 0, 47, 0
1, 80860, Note_on_c, 0, 35, 70
1, 80934, Note_on_c, 0, 59, 0
1, 80934, Note_on_c, 0, 71, 83
1, 80934, Note_on_c, 0, 35, 0
1, 80937, Note_on_c, 0, 47, 55
1, 81011, Note_on_c, 0, 71, 0
1, 81011, Note_on_c, 0, 64, 98
1, 81011, Note_on_c, 0, 47, 0
1, 81014, Note_on_c, 0, 40, 82
1, 81089, Note_on_c, 0, 64, 0
1, 81089, Note_on_c, 0, 76, 95
1, 81089, Note_on_c, 0, 40, 0
1, 81092, Note_on_c, 0, 52, 63
1, 81166, Note_on_c, 0, 76, 0
1, 81166, Note_on_c, 0, 64, 93
1, 81166, Note_on_c, 0, 52, 0
1, 81169, Note_on_c, 0, 40, 72
1, 81243, Note_on_c, 0, 64, 0
1, 81243, Note_on_c, 0, 76, 90
1, 81243, Note_on_c, 0, 40, 0
1, 81246, Note_on_c, 0, 52, 58
1, 81320, Note_on_c, 0, 76, 0
1, 81320, Note_on_c, 0, 68, 101
1, 81320, Note_on_c, 0, 52, 0
1, 81323, Note_on_c, 0, 44, 87
1, 81398, Note_on_c, 0, 68, 0
1, 81398, Note_on_c, 0, 80, 98
1, 81398, Note_on_c, 0, 44, 0
1, 81401, Note_on_c, 0, 56, 70
1, 81474, Note_on_c, 0, 80, 0
1, 81474, Note_on_c, 0, 68, 96
1, 81474, Note_on_c, 0, 56, 0
1, 81477, Note_on_c, 0, 44, 78
1, 81551, Note_on_c, 0, 68, 0
1, 81551, Note_on_c, 0, 80, 93
1, 81551, Note_on_c, 0, 44, 0
1, 81554, Note_on_c, 0, 56, 65
1, 81628, Note_on_c, 0, 80, 0
1, 81628, Note_on_c, 0, 71, 104
1, 81628, Note_on_c, 0, 56, 0
1, 81631, Note_on_c, 0, 47, 89
1, 81704, Note_on_c, 0, 71, 0
1, 81704, Note_on_c, 0, 83, 101
1, 81704, Note_on_c, 0, 47, 0
1, 81707, Note_on_c, 0, 59, 67
1, 81780, Note_on_c, 0, 83, 0
1, 81780, Note_on_c, 0, 71, 98
1, 81780, Note_on_c, 0, 59, 0
1, 81783, Note_on_c, 0, 47, 76
1, 81856, Note_on_c, 0, 71, 0
1, 81856, Note_on_c, 0, 83, 94
1, 81856, Note_on_c, 0, 47, 0
1, 81859, Note_on_c, 0, 59, 61
1, 81932, Note_on_c, 0, 83, 0
1, 81932, Note_on_c, 0, 76, 112
1, 81932, Note_on_c, 0, 59, 0
1, 81935, Note_on_c, 0, 52, 98
1, 82008, Note_on_c, 0, 76, 0
1, 82008, Note_on_c, 0, 88, 106
1, 82008, Note_on_c, 0, 52, 0
1, 82011, Note_on_c, 0, 64, 67
1, 82086, Note_on_c, 0, 88, 0
1, 82086, Note_on_c, 0, 76, 100
1, 82086, Note_on_c, 0, 64, 0
1, 82089, Note_on_c, 0, 52, 84
1, 82165, Note_on_c, 0, 76, 0
1, 82165, Note_on_c, 0, 88, 94
1, 82165, Note_on_c, 0, 52, 0
1, 82168, Note_on_c, 0, 64, 67
1, 82245, Note_on_c, 0, 88, 0
1, 82245, Note_on_c, 0, 71, 92
1, 82245, Note_on_c, 0, 64, 0
1, 82248, Note_on_c, 0, 47, 83
1, 82331, Note_on_c, 0, 71, 0
1, 82331, Note_on_c, 0, 83, 81
1, 82331, Note_on_c, 0, 47, 0
1, 82334, Note_on_c, 0, 59, 58
1, 82418, Note_on_c, 0, 83, 0
1, 82418, Note_on_c, 0, 71, 78
1, 82418, Note_on_c, 0, 59, 0
1, 82421, Note_on_c, 0, 47, 68
1, 82508, Note_on_c, 0, 71, 0
1, 82508, Note_on_c, 0, 83, 74
1, 82508, Note_on_c, 0, 47, 0
1, 82511, Note_on_c, 0, 59, 57
1, 82637, Note_on_c, 0, 83, 0
1, 82637, Note_on_c, 0, 68, 49
1, 82637, Note_on_c, 0, 64, 49
1, 82640, Note_on_c, 0, 56, 49
1, 82640, Note_on_c, 0, 59, 0
1, 82640, Control_c, 0, 64, 0
1, 82643, Note_on_c, 0, 47, 47
1, 82643, Note_on_c, 0, 35, 47
1, 83014, Control_c, 0, 64, 127
1, 84078, Note_on_c, 0, 56, 0
1, 84078, Note_on_c, 0, 64, 0
1, 84078, Note_on_c, 0, 68, 0
1, 84081, Note_on_c, 0, 71, 57
1, 84081, Note_on_c, 0, 57, 57
1, 84081, Note_on_c, 0, 63, 57
1, 84093, Control_c, 0, 64, 0
1, 84357, Control_c, 0, 64, 127
1, 85518, Note_on_c, 0, 63, 0
1, 85518, Note_on_c, 0, 57, 0
1, 85518, Note_on_c, 0, 71, 0
1, 85521, Note_on_c, 0, 56, 44
1, 85521, Note_on_c, 0, 64, 50
1, 85521, Note_on_c, 0, 35, 0
1, 85524, Note_on_c, 0, 47, 0
1, 85524, Control_c, 0, 64, 0
1, 85524, Note_on_c, 0, 47, 30
1, 85527, Note_on_c, 0, 40, 30
1, 85592, Control_c, 0, 64, 127
1, 86256, Note_on_c, 0, 64, 0
1, 86256, Note_on_c, 0, 56, 0
1, 86256, Note_on_c, 0, 40, 0
1, 86259, Note_on_c, 0, 47, 0
1, 86288, Note_on_c, 0, 56, 36
1, 86288, Note_on_c, 0, 64, 40
1, 86288, Note_on_c, 0, 47, 29
1, 86291, Note_on_c, 0, 40, 29
1, 86962, Note_on_c, 0, 64, 0
1, 86962, Note_on_c, 0, 56, 0
1, 86962, Note_on_c, 0, 40, 0
1, 86965, Note_on_c, 0, 47, 0
1, 87058, Note_on_c, 0, 56, 49
1, 87058, Note_on_c, 0, 64, 49
1, 87058, Control_c, 0, 64, 0
1, 87061, Note_on_c, 0, 47, 30
1, 87061, Note_on_c, 0, 40, 30
1, 87213, Control_c, 0, 64, 127
1, 87411, Note_on_c, 0, 64, 0
1, 87411, Note_on_c, 0, 56, 0
1, 87411, Note_on_c, 0, 40, 0
1, 87414, Note_on_c, 0, 47, 0
1, 87418, Note_on_c, 0, 68, 44
1, 87418, Note_on_c, 0, 56, 44
1, 87418, Note_on_c, 0, 40, 26
1, 87421, Note_on_c, 0, 47, 26
1, 87763, Note_on_c, 0, 56, 0
1, 87763, Note_on_c, 0, 68, 0
1, 87763, Note_on_c, 0, 47, 0
1, 87766, Note_on_c, 0, 40, 0
1, 87771, Note_on_c, 0, 56, 48
1, 87771, Note_on_c, 0, 66, 48
1, 87771, Note_on_c, 0, 40, 29
1, 87774, Note_on_c, 0, 47, 29
1, 87782, Control_c, 0, 64, 0
1, 87979, Control_c, 0, 64, 127
1, 88128, Note_on_c, 0, 66, 0
1, 88128, Note_on_c, 0, 56, 0
1, 88128, Note_on_c, 0, 47, 0
1, 88131, Note_on_c, 0, 40, 0
1, 88136, Note_on_c, 0, 56, 45
1, 88136, Note_on_c, 0, 68, 45
1, 88136, Note_on_c, 0, 40, 25
1, 88139, Note_on_c, 0, 47, 25
1, 88503, Note_on_c, 0, 68, 0
1, 88503, Note_on_c, 0, 56, 0
1, 88503, Note_on_c, 0, 47, 0
1, 88506, Note_on_c, 0, 40, 0
1, 88511, Note_on_c, 0, 57, 49
1, 88511, Note_on_c, 0, 61, 49
1, 88511, Note_on_c, 0, 40, 33
1, 88514, Note_on_c, 0, 49, 33
1, 88526, Control_c, 0, 64, 0
1, 88641, Control_c, 0, 64, 127
1, 89218, Note_on_c, 0, 61, 0
1, 89218, Note_on_c, 0, 57, 0
1, 89218, Note_on_c, 0, 49, 0
1, 89221, Note_on_c, 0, 40, 0
1, 89249, Note_on_c, 0, 57, 38
1, 89249, Note_on_c, 0, 61, 38
1, 89249, Note_on_c, 0, 49, 27
1, 89252, Note_on_c, 0, 40, 27
1, 89895, Note_on_c, 0, 61, 0
1, 89895, Note_on_c, 0, 57, 0
1, 89895, Note_on_c, 0, 40, 0
1, 89898, Note_on_c, 0, 49, 0
1, 89987, Note_on_c, 0, 61, 48
1, 89987, Note_on_c, 0, 57, 48
1, 89987, Control_c, 0, 64, 0
1, 89990, Note_on_c, 0, 49, 30
1, 89990, Note_on_c, 0, 40, 30
1, 90113, Control_c, 0, 64, 127
1, 90343, Note_on_c, 0, 57, 0
1, 90343, Note_on_c, 0, 61, 0
1, 90343, Note_on_c, 0, 40, 0
1, 90346, Note_on_c, 0, 49, 0
1, 90351, Note_on_c, 0, 59, 41
1, 90351, Note_on_c, 0, 57, 41
1, 90351, Note_on_c, 0, 66, 41
1, 90354, Note_on_c, 0, 51, 25
1, 90354, Note_on_c, 0, 40, 25
1, 90705, Note_on_c, 0, 66, 0
1, 90705, Note_on_c, 0, 57, 0
1, 90705, Note_on_c, 0, 59, 0
1, 90708, Note_on_c, 0, 40, 0
1, 90708, Note_on_c, 0, 51, 0
1, 90712, Note_on_c, 0, 64, 47
1, 90712, Note_on_c, 0, 57, 47
1, 90712, Note_on_c, 0, 59, 47
1, 90715, Note_on_c, 0, 40, 29
1, 90715, Note_on_c, 0, 49, 29
1, 90727, Control_c, 0, 64, 0
1, 90822, Control_c, 0, 64, 127
1, 91057, Note_on_c, 0, 59, 0
1, 91057, Note_on_c, 0, 57, 0
1, 91057, Note_on_c, 0, 64, 0
1, 91060, Note_on_c, 0, 49, 0
1, 91060, Note_on_c, 0, 40, 0
1, 91065, Note_on_c, 0, 66, 39
1, 91065, Note_on_c, 0, 57, 39
1, 91065, Note_on_c, 0, 59, 39
1, 91068, Note_on_c, 0, 40, 25
1, 91068, Note_on_c, 0, 51, 25
1, 91437, Note_on_c, 0, 59, 0
1, 91437, Note_on_c, 0, 57, 0
1, 91437, Note_on_c, 0, 66, 0
1, 91440, Note_on_c, 0, 51, 0
1, 91440, Note_on_c, 0, 40, 0
1, 91445, Note_on_c, 0, 59, 46
1, 91445, Note_on_c, 0, 56, 46
1, 91445, Note_on_c, 0, 52, 33
1, 91448, Note_on_c, 0, 40, 33
1, 91452, Control_c, 0, 64, 0
1, 91513, Control_c, 0, 64, 127
1, 92152, Note_on_c, 0, 56, 0
1, 92152, Note_on_c, 0, 59, 0
1, 92152, Note_on_c, 0, 40, 0
1, 92155, Note_on_c, 0, 52, 0
1, 92183, Note_on_c, 0, 56, 34
1, 92183, Note_on_c, 0, 64, 39
1, 92183, Note_on_c, 0, 47, 27
1, 92186, Note_on_c, 0, 40, 27
1, 92829, Note_on_c, 0, 64, 0
1, 92829, Note_on_c, 0, 56, 0
1, 92829, Note_on_c, 0, 40, 0
1, 92832, Note_on_c, 0, 47, 0
1, 92921, Note_on_c, 0, 56, 56
1, 92921, Note_on_c, 0, 64, 56
1, 92921, Control_c, 0, 64, 0
1, 92924, Note_on_c, 0, 47, 33
1, 92924, Note_on_c, 0, 40, 33
1, 93094, Control_c, 0, 64, 127
1, 93276, Note_on_c, 0, 64, 0
1, 93276, Note_on_c, 0, 56, 0
1, 93276, Note_on_c, 0, 40, 0
1, 93279, Note_on_c, 0, 47, 0
1, 93283, Note_on_c, 0, 56, 48
1, 93283, Note_on_c, 0, 68, 48
1, 93283, Note_on_c, 0, 47, 28
1, 93286, Note_on_c, 0, 40, 28
1, 93637, Note_on_c, 0, 68, 0
1, 93637, Note_on_c, 0, 56, 0
1, 93637, Note_on_c, 0, 40, 0
1, 93640, Note_on_c, 0, 47, 0
1, 93645, Note_on_c, 0, 66, 56
1, 93645, Note_on_c, 0, 56, 56
1, 93645, Note_on_c, 0, 40, 34
1, 93648, Note_on_c, 0, 47, 34
1, 93656, Control_c, 0, 64, 0
1, 93704, Control_c, 0, 64, 127
1, 93993, Note_on_c, 0, 56, 0
1, 93993, Note_on_c, 0, 66, 0
1, 93993, Note_on_c, 0, 47, 0
1, 93996, Note_on_c, 0, 40, 0
1, 94000, Note_on_c, 0, 56, 49
1, 94000, Note_on_c, 0, 68, 49
1, 94000, Note_on_c, 0, 47, 28
1, 94003, Note_on_c, 0, 40, 28
1, 94343, Note_on_c, 0, 68, 0
1, 94343, Note_on_c, 0, 56, 0
1, 94343, Note_on_c, 0, 40, 0
1, 94346, Note_on_c, 0, 47, 0
1, 94350, Note_on_c, 0, 57, 56
1, 94350, Note_on_c, 0, 64, 56
1, 94350, Note_on_c, 0, 69, 56
1, 94353, Note_on_c, 0, 49, 35
1, 94353, Note_on_c, 0, 40, 35
1, 94367, Control_c, 0, 64, 0
1, 94464, Control_c, 0, 64, 127
1, 95058, Note_on_c, 0, 69, 0
1, 95058, Note_on_c, 0, 64, 0
1, 95058, Note_on_c, 0, 57, 0
1, 95061, Note_on_c, 0, 40, 0
1, 95061, Note_on_c, 0, 49, 0
1, 95088, Note_on_c, 0, 57, 48
1, 95088, Note_on_c, 0, 64, 48
1, 95088, Note_on_c, 0, 69, 48
1, 95091, Note_on_c, 0, 49, 29
1, 95091, Note_on_c, 0, 40, 29
1, 95734, Note_on_c, 0, 69, 0
1, 95734, Note_on_c, 0, 64, 0
1, 95734, Note_on_c, 0, 57, 0
1, 95737, Note_on_c, 0, 40, 0
1, 95737, Note_on_c, 0, 49, 0
1, 95827, Note_on_c, 0, 69, 61
1, 95827, Note_on_c, 0, 61, 61
1, 95827, Note_on_c, 0, 73, 61
1, 95830, Control_c, 0, 64, 0
1, 95830, Note_on_c, 0, 40, 40
1, 95830, Note_on_c, 0, 49, 46
1, 95944, Control_c, 0, 64, 127
1, 96190, Note_on_c, 0, 49, 0
1, 96190, Note_on_c, 0, 52, 43
1, 96516, Note_on_c, 0, 73, 0
1, 96516, Note_on_c, 0, 61, 0
1, 96516, Note_on_c, 0, 69, 0
1, 96545, Note_on_c, 0, 61, 60
1, 96545, Note_on_c, 0, 69, 60
1, 96545, Note_on_c, 0, 73, 60
1, 96548, Note_on_c, 0, 52, 0
1, 96548, Note_on_c, 0, 57, 47
1, 96907, Note_on_c, 0, 57, 0
1, 96907, Note_on_c, 0, 61, 49
1, 97178, Note_on_c, 0, 73, 0
1, 97178, Note_on_c, 0, 69, 0
1, 97178, Note_on_c, 0, 61, 0
1, 97269, Note_on_c, 0, 64, 44
1, 97269, Note_on_c, 0, 68, 44
1, 97269, Note_on_c, 0, 76, 50
1, 97272, Note_on_c, 0, 61, 0
1, 97272, Note_on_c, 0, 40, 0
1, 97272, Note_on_c, 0, 59, 36
1, 97275, Note_on_c, 0, 52, 36
1, 97275, Control_c, 0, 64, 0
1, 97375, Control_c, 0, 64, 127
1, 97976, Note_on_c, 0, 76, 0
1, 97976, Note_on_c, 0, 68, 0
1, 97976, Note_on_c, 0, 64, 0
1, 97979, Note_on_c, 0, 52, 0
1, 97979, Note_on_c, 0, 59, 0
1, 98007, Note_on_c, 0, 68, 36
1, 98007, Note_on_c, 0, 64, 36
1, 98007, Note_on_c, 0, 76, 41
1, 98010, Note_on_c, 0, 59, 30
1, 98010, Note_on_c, 0, 52, 30
1, 98648, Note_on_c, 0, 76, 0
1, 98648, Note_on_c, 0, 64, 0
1, 98648, Note_on_c, 0, 68, 0
1, 98651, Note_on_c, 0, 52, 0
1, 98651, Note_on_c, 0, 59, 0
1, 98739, Note_on_c, 0, 63, 48
1, 98739, Note_on_c, 0, 69, 48
1, 98739, Note_on_c, 0, 78, 48
1, 98742, Control_c, 0, 64, 0
1, 98742, Note_on_c, 0, 52, 32
1, 98742, Note_on_c, 0, 59, 32
1, 98907, Control_c, 0, 64, 127
1, 99084, Note_on_c, 0, 78, 0
1, 99084, Note_on_c, 0, 69, 0
1, 99084, Note_on_c, 0, 63, 0
1, 99087, Note_on_c, 0, 59, 0
1, 99087, Note_on_c, 0, 52, 0
1, 99092, Note_on_c, 0, 66, 41
1, 99092, Note_on_c, 0, 69, 41
1, 99092, Note_on_c, 0, 75, 41
1, 99095, Note_on_c, 0, 52, 28
1, 99095, Note_on_c, 0, 59, 28
1, 99443, Note_on_c, 0, 75, 0
1, 99443, Note_on_c, 0, 69, 0
1, 99443, Note_on_c, 0, 66, 0
1, 99446, Note_on_c, 0, 59, 0
1, 99446, Note_on_c, 0, 52, 0
1, 99450, Note_on_c, 0, 66, 46
1, 99450, Note_on_c, 0, 71, 46
1, 99450, Note_on_c, 0, 63, 30
1, 99453, Note_on_c, 0, 52, 30
1, 99465, Control_c, 0, 64, 0
1, 99538, Control_c, 0, 64, 127
1, 99793, Note_on_c, 0, 71, 0
1, 99793, Note_on_c, 0, 66, 0
1, 99793, Note_on_c, 0, 52, 0
1, 99796, Note_on_c, 0, 63, 0
1, 99800, Note_on_c, 0, 64, 41
1, 99800, Note_on_c, 0, 69, 41
1, 99800, Note_on_c, 0, 52, 28
1, 99803, Note_on_c, 0, 61, 28
1, 100151, Note_on_c, 0, 69, 0
1, 100151, Note_on_c, 0, 64, 0
1, 100151, Note_on_c, 0, 61, 0
1, 100154, Note_on_c, 0, 52, 0
1, 100159, Note_on_c, 0, 64, 39
1, 100159, Note_on_c, 0, 68, 45
1, 100159, Note_on_c, 0, 52, 34
1, 100162, Note_on_c, 0, 59, 34
1, 100175, Control_c, 0, 64, 0
1, 100242, Control_c, 0, 64, 127
1, 100857, Note_on_c, 0, 68, 0
1, 100857, Note_on_c, 0, 64, 0
1, 100857, Note_on_c, 0, 59, 0
1, 100860, Note_on_c, 0, 52, 0
1, 100888, Note_on_c, 0, 64, 29
1, 100888, Note_on_c, 0, 68, 33
1, 100888, Note_on_c, 0, 52, 25
1, 100891, Note_on_c, 0, 59, 25
1, 101521, Note_on_c, 0, 68, 0
1, 101521, Note_on_c, 0, 64, 0
1, 101521, Note_on_c, 0, 59, 0
1, 101524, Note_on_c, 0, 52, 0
1, 101611, Note_on_c, 0, 63, 47
1, 101611, Note_on_c, 0, 78, 47
1, 101611, Note_on_c, 0, 69, 47
1, 101614, Control_c, 0, 64, 0
1, 101614, Note_on_c, 0, 52, 32
1, 101614, Note_on_c, 0, 59, 32
1, 101762, Control_c, 0, 64, 127
1, 101956, Note_on_c, 0, 69, 0
1, 101956, Note_on_c, 0, 78, 0
1, 101956, Note_on_c, 0, 63, 0
1, 101959, Note_on_c, 0, 59, 0
1, 101959, Note_on_c, 0, 52, 0
1, 101964, Note_on_c, 0, 75, 40
1, 101964, Note_on_c, 0, 69, 40
1, 101964, Note_on_c, 0, 66, 40
1, 101967, Note_on_c, 0, 52, 27
1, 101967, Note_on_c, 0, 59, 27
1, 102313, Note_on_c, 0, 66, 0
1, 102313, Note_on_c, 0, 69, 0
1, 102313, Note_on_c, 0, 75, 0
1, 102316, Note_on_c, 0, 59, 0
1, 102316, Note_on_c, 0, 52, 0
1, 102321, Note_on_c, 0, 66, 45
1, 102321, Note_on_c, 0, 71, 45
1, 102321, Note_on_c, 0, 63, 30
1, 102324, Note_on_c, 0, 52, 30
1, 102335, Control_c, 0, 64, 0
1, 102504, Control_c, 0, 64, 127
1, 102665, Note_on_c, 0, 71, 0
1, 102665, Note_on_c, 0, 66, 0
1, 102665, Note_on_c, 0, 52, 0
1, 102668, Note_on_c, 0, 63, 0
1, 102672, Note_on_c, 0, 64, 40
1, 102672, Note_on_c, 0, 69, 40
1, 102672, Note_on_c, 0, 61, 28
1, 102675, Note_on_c, 0, 52, 28
1, 103022, Note_on_c, 0, 69, 0
1, 103022, Note_on_c, 0, 64, 0
1, 103022, Note_on_c, 0, 52, 0
1, 103025, Note_on_c, 0, 61, 0
1, 103029, Note_on_c, 0, 68, 45
1, 103029, Note_on_c, 0, 64, 39
1, 103029, Note_on_c, 0, 52, 34
1, 103032, Note_on_c, 0, 59, 39
1, 103037, Control_c, 0, 64, 0
1, 103112, Control_c, 0, 64, 127
1, 103731, Note_on_c, 0, 64, 0
1, 103731, Note_on_c, 0, 68, 0
1, 103731, Note_on_c, 0, 59, 0
1, 103734, Note_on_c, 0, 52, 0
1, 103761, Note_on_c, 0, 64, 29
1, 103761, Note_on_c, 0, 68, 33
1, 103761, Note_on_c, 0, 52, 25
1, 103764, Note_on_c, 0, 59, 25
1, 104402, Note_on_c, 0, 68, 0
1, 104402, Note_on_c, 0, 64, 0
1, 104402, Note_on_c, 0, 59, 0
1, 104405, Note_on_c, 0, 52, 0
1, 104493, Note_on_c, 0, 64, 45
1, 104493, Control_c, 0, 64, 0
1, 104493, Note_on_c, 0, 56, 35
1, 104496, Note_on_c, 0, 52, 35
1, 104653, Control_c, 0, 64, 127
1, 104843, Note_on_c, 0, 64, 0
1, 104843, Note_on_c, 0, 52, 0
1, 104843, Note_on_c, 0, 56, 0
1, 104850, Note_on_c, 0, 64, 36
1, 104850, Note_on_c, 0, 68, 41
1, 104850, Note_on_c, 0, 59, 33
1, 104853, Note_on_c, 0, 52, 33
1, 105208, Note_on_c, 0, 68, 0
1, 105208, Note_on_c, 0, 64, 0
1, 105208, Note_on_c, 0, 52, 0
1, 105211, Note_on_c, 0, 59, 0
1, 105215, Note_on_c, 0, 64, 39
1, 105215, Note_on_c, 0, 66, 45
1, 105215, Note_on_c, 0, 52, 35
1, 105218, Note_on_c, 0, 57, 35
1, 105230, Control_c, 0, 64, 0
1, 105351, Control_c, 0, 64, 127
1, 105566, Note_on_c, 0, 66, 0
1, 105566, Note_on_c, 0, 64, 0
1, 105566, Note_on_c, 0, 57, 0
1, 105569, Note_on_c, 0, 52, 0
1, 105574, Note_on_c, 0, 68, 43
1, 105574, Note_on_c, 0, 64, 37
1, 105574, Note_on_c, 0, 59, 34
1, 105577, Note_on_c, 0, 52, 34
1, 105948, Note_on_c, 0, 64, 0
1, 105948, Note_on_c, 0, 68, 0
1, 105948, Note_on_c, 0, 52, 0
1, 105951, Note_on_c, 0, 59, 0
1, 105956, Note_on_c, 0, 64, 38
1, 105956, Note_on_c, 0, 71, 44
1, 105956, Note_on_c, 0, 52, 35
1, 105959, Note_on_c, 0, 61, 35
1, 105969, Control_c, 0, 64, 0
1, 106005, Control_c, 0, 64, 127
1, 106657, Note_on_c, 0, 71, 0
1, 106657, Note_on_c, 0, 64, 0
1, 106657, Note_on_c, 0, 61, 0
1, 106660, Note_on_c, 0, 52, 0
1, 106688, Note_on_c, 0, 64, 28
1, 106688, Note_on_c, 0, 70, 34
1, 106688, Note_on_c, 0, 52, 25
1, 106691, Note_on_c, 0, 61, 25
1, 106867, Note_on_c, 0, 70, 0
1, 106867, Note_on_c, 0, 64, 0
1, 106867, Note_on_c, 0, 61, 0
1, 106870, Note_on_c, 0, 52, 0
1, 106938, Control_c, 0, 64, 0
1, 107405, Note_on_c, 0, 88, 54
1, 107405, Note_on_c, 0, 83, 54
1, 107405, Note_on_c, 0, 76, 54
1, 107408, Note_on_c, 0, 72, 32
1, 107408, Note_on_c, 0, 64, 32
1, 107431, Control_c, 0, 64, 127
1, 108084, Note_on_c, 0, 76, 0
1, 108084, Note_on_c, 0, 83, 0
1, 108084, Note_on_c, 0, 88, 0
1, 108087, Note_on_c, 0, 64, 0
1, 108087, Note_on_c, 0, 72, 0
1, 108114, Note_on_c, 0, 81, 37
1, 108114, Note_on_c, 0, 88, 37
1, 108114, Note_on_c, 0, 76, 37
1, 108117, Note_on_c, 0, 64, 18
1, 108117, Note_on_c, 0, 72, 19
1, 108343, Control_c, 0, 64, 0
1, 108431, Note_on_c, 0, 76, 0
1, 108431, Note_on_c, 0, 88, 0
1, 108431, Note_on_c, 0, 81, 0
1, 108434, Note_on_c, 0, 72, 0
1, 108434, Note_on_c, 0, 64, 0
1, 108806, Note_on_c, 0, 69, 44
1, 108806, Note_on_c, 0, 64, 44
1, 108806, Note_on_c, 0, 59, 35
1, 108809, Note_on_c, 0, 52, 35
1, 108837, Control_c, 0, 64, 127
1, 109485, Note_on_c, 0, 64, 0
1, 109485, Note_on_c, 0, 69, 0
1, 109485, Note_on_c, 0, 52, 0
1, 109488, Note_on_c, 0, 59, 0
1, 109515, Note_on_c, 0, 64, 34
1, 109515, Note_on_c, 0, 68, 34
1, 109515, Note_on_c, 0, 59, 21
1, 109518, Note_on_c, 0, 52, 19
1, 109765, Control_c, 0, 64, 0
1, 109846, Note_on_c, 0, 68, 0
1, 109846, Note_on_c, 0, 64, 0
1, 109846, Note_on_c, 0, 52, 0
1, 109849, Note_on_c, 0, 59, 0
1, 110238, Note_on_c, 0, 88, 52
1, 110238, Note_on_c, 0, 81, 52
1, 110238, Note_on_c, 0, 76, 52
1, 110241, Note_on_c, 0, 64, 32
1, 110241, Note_on_c, 0, 71, 32
1, 110267, Control_c, 0, 64, 127
1, 110936, Note_on_c, 0, 76, 0
1, 110936, Note_on_c, 0, 81, 0
1, 110936, Note_on_c, 0, 88, 0
1, 110939, Note_on_c, 0, 71, 0
1, 110939, Note_on_c, 0, 64, 0
1, 110967, Note_on_c, 0, 76, 36
1, 110967, Note_on_c, 0, 79, 36
1, 110967, Note_on_c, 0, 88, 36
1, 110970, Note_on_c, 0, 71, 21
1, 110970, Note_on_c, 0, 64, 21
1, 111214, Control_c, 0, 64, 0
1, 111301, Note_on_c, 0, 88, 0
1, 111301, Note_on_c, 0, 79, 0
1, 111301, Note_on_c, 0, 76, 0
1, 111304, Note_on_c, 0, 64, 0
1, 111304, Note_on_c, 0, 71, 0
1, 111696, Note_on_c, 0, 64, 98
1, 111696, Note_on_c, 0, 60, 80
1, 111696, Note_on_c, 0, 54, 80
1, 111699, Note_on_c, 0, 66, 98
1, 111699, Note_on_c, 0, 45, 72
1, 111699, Note_on_c, 0, 33, 72
1, 111797, Control_c, 0, 64, 127
1, 112395, Note_on_c, 0, 66, 0
1, 112395, Note_on_c, 0, 64, 0
1, 112395, Note_on_c, 0, 60, 0
1, 112398, Note_on_c, 0, 54, 0
1, 112398, Note_on_c, 0, 33, 0
1, 112398, Note_on_c, 0, 45, 0
1, 112425, Note_on_c, 0, 64, 79
1, 112425, Note_on_c, 0, 60, 65
1, 112425, Note_on_c, 0, 54, 65
1, 112428, Note_on_c, 0, 66, 79
1, 112428, Note_on_c, 0, 45, 55
1, 112428, Note_on_c, 0, 33, 55
1, 112759, Note_on_c, 0, 66, 0
1, 112759, Note_on_c, 0, 64, 0
1, 112759, Note_on_c, 0, 60, 0
1, 112762, Note_on_c, 0, 54, 0
1, 112762, Note_on_c, 0, 33, 0
1, 112762, Note_on_c, 0, 45, 0
1, 112790, Control_c, 0, 64, 0
1, 113154, Note_on_c, 0, 76, 56
1, 113154, Note_on_c, 0, 73, 56
1, 113154, Note_on_c, 0, 78, 65
1, 113157, Note_on_c, 0, 66, 49
1, 113157, Note_on_c, 0, 64, 49
1, 113157, Note_on_c, 0, 57, 49
1, 113164, Control_c, 0, 64, 127
1, 113498, Note_on_c, 0, 78, 0
1, 113498, Note_on_c, 0, 73, 0
1, 113498, Note_on_c, 0, 76, 0
1, 113501, Note_on_c, 0, 57, 0
1, 113501, Note_on_c, 0, 64, 0
1, 113501, Note_on_c, 0, 66, 0
1, 113505, Note_on_c, 0, 71, 47
1, 113505, Note_on_c, 0, 76, 47
1, 113505, Note_on_c, 0, 80, 56
1, 113508, Note_on_c, 0, 59, 44
1, 113508, Note_on_c, 0, 64, 44
1, 113508, Note_on_c, 0, 68, 44
1, 113519, Control_c, 0, 64, 0
1, 113614, Control_c, 0, 64, 127
1, 113848, Note_on_c, 0, 80, 0
1, 113848, Note_on_c, 0, 76, 0
1, 113848, Note_on_c, 0, 71, 0
1, 113851, Note_on_c, 0, 68, 0
1, 113851, Note_on_c, 0, 64, 0
1, 113851, Note_on_c, 0, 59, 0
1, 113855, Note_on_c, 0, 69, 52
1, 113855, Note_on_c, 0, 76, 52
1, 113855, Note_on_c, 0, 81, 60
1, 113858, Note_on_c, 0, 64, 47
1, 113858, Note_on_c, 0, 61, 47
1, 113869, Control_c, 0, 64, 0
1, 114009, Control_c, 0, 64, 127
1, 114192, Note_on_c, 0, 81, 0
1, 114192, Note_on_c, 0, 76, 0
1, 114192, Note_on_c, 0, 69, 0
1, 114195, Note_on_c, 0, 61, 0
1, 114195, Note_on_c, 0, 64, 0
1, 114199, Note_on_c, 0, 76, 47
1, 114199, Note_on_c, 0, 71, 47
1, 114199, Note_on_c, 0, 80, 56
1, 114202, Note_on_c, 0, 64, 46
1, 114202, Note_on_c, 0, 68, 46
1, 114202, Note_on_c, 0, 59, 46
1, 114214, Control_c, 0, 64, 0
1, 114338, Control_c, 0, 64, 127
1, 114542, Control_c, 0, 64, 0
1, 114559, Note_on_c, 0, 80, 0
1, 114559, Note_on_c, 0, 71, 0
1, 114559, Note_on_c, 0, 76, 0
1, 114562, Note_on_c, 0, 59, 0
1, 114562, Note_on_c, 0, 68, 0
1, 114562, Note_on_c, 0, 64, 0
1, 114567, Note_on_c, 0, 76, 60
1, 114567, Note_on_c, 0, 71, 60
1, 114567, Note_on_c, 0, 83, 60
1, 114570, Note_on_c, 0, 66, 46
1, 114570, Note_on_c, 0, 59, 46
1, 114570, Note_on_c, 0, 69, 46
1, 114806, Control_c, 0, 64, 127
1, 115257, Note_on_c, 0, 83, 0
1, 115257, Note_on_c, 0, 71, 0
1, 115257, Note_on_c, 0, 76, 0
1, 115260, Note_on_c, 0, 69, 0
1, 115260, Note_on_c, 0, 59, 0
1, 115260, Note_on_c, 0, 66, 0
1, 115287, Note_on_c, 0, 71, 36
1, 115287, Note_on_c, 0, 83, 36
1, 115287, Note_on_c, 0, 75, 43
1, 115290, Note_on_c, 0, 59, 27
1, 115290, Note_on_c, 0, 66, 27
1, 115290, Note_on_c, 0, 69, 27
1, 115531, Control_c, 0, 64, 0
1, 115617, Note_on_c, 0, 75, 0
1, 115617, Note_on_c, 0, 83, 0
1, 115617, Note_on_c, 0, 71, 0
1, 115620, Note_on_c, 0, 69, 0
1, 115620, Note_on_c, 0, 66, 0
1, 115620, Note_on_c, 0, 59, 0
1, 116014, Note_on_c, 0, 64, 40
1, 116014, Note_on_c, 0, 68, 47
1, 116014, Note_on_c, 0, 59, 37
1, 116017, Note_on_c, 0, 52, 37
1, 116043, Control_c, 0, 64, 127
1, 116693, Note_on_c, 0, 68, 0
1, 116693, Note_on_c, 0, 64, 0
1, 116693, Note_on_c, 0, 52, 0
1, 116696, Note_on_c, 0, 59, 0
1, 116722, Note_on_c, 0, 64, 33
1, 116722, Note_on_c, 0, 68, 33
1, 116722, Note_on_c, 0, 59, 26
1, 116725, Note_on_c, 0, 52, 33
1, 117047, Note_on_c, 0, 68, 0
1, 117047, Note_on_c, 0, 64, 0
1, 117047, Note_on_c, 0, 52, 0
1, 117050, Note_on_c, 0, 59, 0
1, 117077, Control_c, 0, 64, 0
1, 117444, Note_on_c, 0, 54, 82
1, 117444, Note_on_c, 0, 66, 101
1, 117444, Note_on_c, 0, 64, 101
1, 117447, Note_on_c, 0, 60, 82
1, 117447, Note_on_c, 0, 45, 77
1, 117447, Note_on_c, 0, 33, 77
1, 117524, Control_c, 0, 64, 127
1, 118129, Note_on_c, 0, 60, 0
1, 118129, Note_on_c, 0, 54, 0
1, 118129, Note_on_c, 0, 66, 0
1, 118132, Note_on_c, 0, 64, 0
1, 118132, Note_on_c, 0, 33, 0
1, 118132, Note_on_c, 0, 45, 0
1, 118159, Note_on_c, 0, 60, 62
1, 118159, Note_on_c, 0, 54, 62
1, 118159, Note_on_c, 0, 64, 77
1, 118162, Note_on_c, 0, 66, 77
1, 118162, Note_on_c, 0, 33, 59
1, 118162, Note_on_c, 0, 45, 59
1, 118480, Note_on_c, 0, 66, 0
1, 118480, Note_on_c, 0, 60, 0
1, 118480, Note_on_c, 0, 54, 0
1, 118483, Note_on_c, 0, 64, 0
1, 118483, Note_on_c, 0, 45, 0
1, 118483, Note_on_c, 0, 33, 0
1, 118509, Control_c, 0, 64, 0
1, 118859, Note_on_c, 0, 73, 56
1, 118859, Note_on_c, 0, 76, 56
1, 118859, Note_on_c, 0, 78, 65
1, 118862, Note_on_c, 0, 66, 49
1, 118862, Note_on_c, 0, 64, 49
1, 118862, Note_on_c, 0, 57, 49
1, 118882, Control_c, 0, 64, 127
1, 119202, Note_on_c, 0, 78, 0
1, 119202, Note_on_c, 0, 76, 0
1, 119202, Note_on_c, 0, 73, 0
1, 119205, Note_on_c, 0, 57, 0
1, 119205, Note_on_c, 0, 64, 0
1, 119205, Note_on_c, 0, 66, 0
1, 119209, Note_on_c, 0, 80, 59
1, 119209, Note_on_c, 0, 71, 51
1, 119209, Note_on_c, 0, 76, 51
1, 119212, Note_on_c, 0, 64, 46
1, 119212, Note_on_c, 0, 68, 46
1, 119212, Note_on_c, 0, 59, 46
1, 119216, Control_c, 0, 64, 0
1, 119265, Control_c, 0, 64, 127
1, 119554, Note_on_c, 0, 76, 0
1, 119554, Note_on_c, 0, 71, 0
1, 119554, Note_on_c, 0, 80, 0
1, 119557, Note_on_c, 0, 59, 0
1, 119557, Note_on_c, 0, 68, 0
1, 119557, Note_on_c, 0, 64, 0
1, 119562, Note_on_c, 0, 81, 63
1, 119562, Note_on_c, 0, 76, 54
1, 119562, Note_on_c, 0, 69, 54
1, 119565, Note_on_c, 0, 64, 49
1, 119565, Note_on_c, 0, 61, 49
1, 119577, Control_c, 0, 64, 0
1, 119630, Control_c, 0, 64, 127
1, 119900, Note_on_c, 0, 69, 0
1, 119900, Note_on_c, 0, 76, 0
1, 119900, Note_on_c, 0, 81, 0
1, 119903, Note_on_c, 0, 61, 0
1, 119903, Note_on_c, 0, 64, 0
1, 119907, Note_on_c, 0, 71, 49
1, 119907, Note_on_c, 0, 76, 49
1, 119907, Note_on_c, 0, 80, 57
1, 119910, Note_on_c, 0, 59, 46
1, 119910, Note_on_c, 0, 68, 46
1, 119910, Note_on_c, 0, 64, 46
1, 119917, Control_c, 0, 64, 0
1, 119963, Control_c, 0, 64, 127
1, 120269, Note_on_c, 0, 80, 0
1, 120269, Note_on_c, 0, 76, 0
1, 120269, Note_on_c, 0, 71, 0
1, 120272, Note_on_c, 0, 64, 0
1, 120272, Note_on_c, 0, 68, 0
1, 120272, Note_on_c, 0, 59, 0
1, 120276, Note_on_c, 0, 83, 60
1, 120276, Note_on_c, 0, 76, 60
1, 120276, Note_on_c, 0, 71, 52
1, 120279, Note_on_c, 0, 66, 46
1, 120279, Note_on_c, 0, 69, 46
1, 120279, Note_on_c, 0, 59, 46
1, 120291, Control_c, 0, 64, 0
1, 120394, Control_c, 0, 64, 127
1, 120975, Note_on_c, 0, 71, 0
1, 120975, Note_on_c, 0, 76, 0
1, 120975, Note_on_c, 0, 83, 0
1, 120978, Note_on_c, 0, 59, 0
1, 120978, Note_on_c, 0, 69, 0
1, 120978, Note_on_c, 0, 66, 0
1, 121005, Note_on_c, 0, 75, 43
1, 121005, Note_on_c, 0, 83, 37
1, 121005, Note_on_c, 0, 71, 36
1, 121008, Note_on_c, 0, 59, 27
1, 121008, Note_on_c, 0, 69, 27
1, 121008, Note_on_c, 0, 66, 27
1, 121220, Control_c, 0, 64, 0
1, 121340, Note_on_c, 0, 71, 0
1, 121340, Note_on_c, 0, 83, 0
1, 121340, Note_on_c, 0, 75, 0
1, 121343, Note_on_c, 0, 66, 0
1, 121343, Note_on_c, 0, 69, 0
1, 121343, Note_on_c, 0, 59, 0
1, 121734, Note_on_c, 0, 64, 113
1, 121734, Note_on_c, 0, 52, 113
1, 121734, Note_on_c, 0, 40, 94
1, 121978, Control_c, 0, 64, 127
1, 122433, Note_on_c, 0, 52, 0
1, 122433, Note_on_c, 0, 64, 0
1, 122433, Note_on_c, 0, 40, 0
1, 122464, Note_on_c, 0, 52, 57
1, 122464, Note_on_c, 0, 64, 76
1, 122464, Note_on_c, 0, 40, 62
1, 122783, Control_c, 0, 64, 0
1, 122798, Note_on_c, 0, 64, 0
1, 122798, Note_on_c, 0, 52, 0
1, 122798, Note_on_c, 0, 40, 0
1, 123193, Note_on_c, 0, 56, 46
1, 123193, Note_on_c, 0, 59, 46
1, 123193, Note_on_c, 0, 40, 32
1, 123196, Note_on_c, 0, 47, 32
1, 123217, Control_c, 0, 64, 127
1, 123542, Note_on_c, 0, 59, 0
1, 123542, Note_on_c, 0, 56, 0
1, 123542, Note_on_c, 0, 47, 0
1, 123545, Note_on_c, 0, 40, 0
1, 123549, Note_on_c, 0, 68, 40
1, 123549, Note_on_c, 0, 56, 40
1, 123549, Note_on_c, 0, 47, 27
1, 123552, Note_on_c, 0, 40, 27
1, 123893, Note_on_c, 0, 56, 0
1, 123893, Note_on_c, 0, 68, 0
1, 123893, Note_on_c, 0, 40, 0
1, 123896, Note_on_c, 0, 47, 0
1, 123900, Note_on_c, 0, 56, 47
1, 123900, Note_on_c, 0, 66, 47
1, 123900, Note_on_c, 0, 40, 30
1, 123903, Note_on_c, 0, 47, 30
1, 123915, Control_c, 0, 64, 0
1, 124033, Control_c, 0, 64, 127
1, 124241, Note_on_c, 0, 66, 0
1, 124241, Note_on_c, 0, 56, 0
1, 124241, Note_on_c, 0, 47, 0
1, 124244, Note_on_c, 0, 40, 0
1, 124249, Note_on_c, 0, 56, 40
1, 124249, Note_on_c, 0, 68, 40
1, 124249, Note_on_c, 0, 40, 26
1, 124252, Note_on_c, 0, 47, 26
1, 124619, Note_on_c, 0, 68, 0
1, 124619, Note_on_c, 0, 56, 0
1, 124619, Note_on_c, 0, 47, 0
1, 124622, Note_on_c, 0, 40, 0
1, 124627, Note_on_c, 0, 68, 49
1, 124627, Note_on_c, 0, 71, 49
1, 124627, Note_on_c, 0, 60, 34
1, 124630, Note_on_c, 0, 40, 26
1, 124630, Note_on_c, 0, 48, 26
1, 124640, Control_c, 0, 64, 0
1, 124678, Control_c, 0, 64, 127
1, 125290, Note_on_c, 0, 60, 0
1, 125290, Note_on_c, 0, 71, 0
1, 125290, Note_on_c, 0, 68, 0
1, 125293, Note_on_c, 0, 48, 0
1, 125293, Note_on_c, 0, 40, 0
1, 125319, Note_on_c, 0, 66, 33
1, 125319, Note_on_c, 0, 60, 32
1, 125319, Note_on_c, 0, 69, 33
1, 125322, Note_on_c, 0, 48, 18
1, 125322, Note_on_c, 0, 40, 18
1, 125384, Control_c, 0, 64, 0
1, 125497, Note_on_c, 0, 69, 0
1, 125497, Note_on_c, 0, 60, 0
1, 125497, Note_on_c, 0, 66, 0
1, 125500, Note_on_c, 0, 40, 0
1, 125500, Note_on_c, 0, 48, 0
1, 126031, Note_on_c, 0, 68, 49
1, 126031, Note_on_c, 0, 71, 49
1, 126031, Note_on_c, 0, 59, 39
1, 126034, Note_on_c, 0, 40, 33
1, 126034, Note_on_c, 0, 51, 33
1, 126059, Control_c, 0, 64, 127
1, 126702, Note_on_c, 0, 59, 0
1, 126702, Note_on_c, 0, 71, 0
1, 126702, Note_on_c, 0, 68, 0
1, 126705, Note_on_c, 0, 51, 0
1, 126705, Note_on_c, 0, 40, 0
1, 126731, Note_on_c, 0, 59, 29
1, 126731, Note_on_c, 0, 66, 33
1, 126731, Note_on_c, 0, 69, 33
1, 126734, Note_on_c, 0, 51, 19
1, 126734, Note_on_c, 0, 40, 19
1, 126847, Control_c, 0, 64, 0
1, 126914, Note_on_c, 0, 69, 0
1, 126914, Note_on_c, 0, 66, 0
1, 126914, Note_on_c, 0, 59, 0
1, 126917, Note_on_c, 0, 40, 0
1, 126917, Note_on_c, 0, 51, 0
1, 127463, Note_on_c, 0, 76, 113
1, 127463, Note_on_c, 0, 64, 113
1, 127463, Note_on_c, 0, 40, 92
1, 127466, Note_on_c, 0, 52, 92
1, 127621, Control_c, 0, 64, 127
1, 128145, Note_on_c, 0, 64, 0
1, 128145, Note_on_c, 0, 76, 0
1, 128145, Note_on_c, 0, 52, 0
1, 128148, Note_on_c, 0, 40, 0
1, 128174, Note_on_c, 0, 76, 78
1, 128174, Note_on_c, 0, 64, 70
1, 128174, Note_on_c, 0, 40, 54
1, 128177, Note_on_c, 0, 52, 54
1, 128509, Note_on_c, 0, 64, 0
1, 128509, Note_on_c, 0, 76, 0
1, 128509, Note_on_c, 0, 52, 0
1, 128512, Note_on_c, 0, 40, 0
1, 128539, Control_c, 0, 64, 0
1, 128904, Note_on_c, 0, 59, 48
1, 128904, Note_on_c, 0, 56, 48
1, 128904, Note_on_c, 0, 40, 35
1, 128907, Note_on_c, 0, 47, 35
1, 128935, Control_c, 0, 64, 127
1, 129254, Note_on_c, 0, 56, 0
1, 129254, Note_on_c, 0, 59, 0
1, 129254, Note_on_c, 0, 47, 0
1, 129257, Note_on_c, 0, 40, 0
1, 129261, Note_on_c, 0, 56, 41
1, 129261, Note_on_c, 0, 68, 41
1, 129261, Note_on_c, 0, 40, 28
1, 129264, Note_on_c, 0, 47, 28
1, 129606, Note_on_c, 0, 68, 0
1, 129606, Note_on_c, 0, 56, 0
1, 129606, Note_on_c, 0, 47, 0
1, 129609, Note_on_c, 0, 40, 0
1, 129614, Note_on_c, 0, 56, 48
1, 129614, Note_on_c, 0, 66, 48
1, 129614, Note_on_c, 0, 47, 35
1, 129617, Note_on_c, 0, 40, 35
1, 129628, Control_c, 0, 64, 0
1, 129812, Control_c, 0, 64, 127
1, 129955, Note_on_c, 0, 66, 0
1, 129955, Note_on_c, 0, 56, 0
1, 129955, Note_on_c, 0, 40, 0
1, 129958, Note_on_c, 0, 47, 0
1, 129962, Note_on_c, 0, 56, 41
1, 129962, Note_on_c, 0, 68, 41
1, 129962, Note_on_c, 0, 47, 27
1, 129965, Note_on_c, 0, 40, 27
1, 130333, Note_on_c, 0, 68, 0
1, 130333, Note_on_c, 0, 56, 0
1, 130333, Note_on_c, 0, 40, 0
1, 130336, Note_on_c, 0, 47, 0
1, 130341, Note_on_c, 0, 69, 54
1, 130341, Note_on_c, 0, 61, 47
1, 130341, Note_on_c, 0, 73, 54
1, 130344, Note_on_c, 0, 45, 34
1, 130344, Note_on_c, 0, 40, 34
1, 130353, Control_c, 0, 64, 0
1, 130411, Control_c, 0, 64, 127
1, 130992, Note_on_c, 0, 73, 0
1, 130992, Note_on_c, 0, 61, 0
1, 130992, Note_on_c, 0, 69, 0
1, 130995, Note_on_c, 0, 40, 0
1, 130995, Note_on_c, 0, 45, 0
1, 131020, Note_on_c, 0, 61, 33
1, 131020, Note_on_c, 0, 66, 36
1, 131020, Note_on_c, 0, 69, 36
1, 131023, Note_on_c, 0, 40, 23
1, 131023, Note_on_c, 0, 49, 28
1, 131080, Control_c, 0, 64, 0
1, 131196, Note_on_c, 0, 69, 0
1, 131196, Note_on_c, 0, 66, 0
1, 131196, Note_on_c, 0, 61, 0
1, 131199, Note_on_c, 0, 49, 0
1, 131199, Note_on_c, 0, 40, 0
1, 131721, Note_on_c, 0, 68, 51
1, 131721, Note_on_c, 0, 71, 51
1, 131721, Note_on_c, 0, 59, 45
1, 131724, Note_on_c, 0, 40, 35
1, 131724, Note_on_c, 0, 47, 35
1, 131739, Control_c, 0, 64, 127
1, 132373, Note_on_c, 0, 59, 0
1, 132373, Note_on_c, 0, 71, 0
1, 132373, Note_on_c, 0, 68, 0
1, 132376, Note_on_c, 0, 47, 0
1, 132376, Note_on_c, 0, 40, 0
1, 132401, Note_on_c, 0, 66, 39
1, 132401, Note_on_c, 0, 59, 37
1, 132401, Note_on_c, 0, 69, 39
1, 132404, Note_on_c, 0, 40, 26
1, 132404, Note_on_c, 0, 51, 32
1, 132420, Control_c, 0, 64, 0
1, 132574, Note_on_c, 0, 69, 0
1, 132574, Note_on_c, 0, 59, 0
1, 132574, Note_on_c, 0, 66, 0
1, 132577, Note_on_c, 0, 51, 0
1, 132577, Note_on_c, 0, 40, 0
1, 133092, Note_on_c, 0, 64, 45
1, 133092, Note_on_c, 0, 69, 51
1, 133092, Note_on_c, 0, 59, 45
1, 133095, Note_on_c, 0, 52, 35
1, 133095, Note_on_c, 0, 40, 35
1, 133119, Control_c, 0, 64, 127
1, 133734, Note_on_c, 0, 59, 0
1, 133734, Note_on_c, 0, 69, 0
1, 133734, Note_on_c, 0, 64, 0
1, 133737, Note_on_c, 0, 40, 0
1, 133737, Note_on_c, 0, 52, 0
1, 133762, Note_on_c, 0, 67, 39
1, 133762, Note_on_c, 0, 59, 36
1, 133762, Note_on_c, 0, 64, 36
1, 133765, Note_on_c, 0, 40, 15
1, 133765, Note_on_c, 0, 52, 24
1, 133789, Control_c, 0, 64, 0
1, 133927, Note_on_c, 0, 64, 0
1, 133927, Note_on_c, 0, 59, 0
1, 133927, Note_on_c, 0, 67, 0
1, 133930, Note_on_c, 0, 52, 0
1, 133930, Note_on_c, 0, 40, 0
1, 134422, Note_on_c, 0, 57, 46
1, 134422, Note_on_c, 0, 67, 52
1, 134422, Note_on_c, 0, 60, 46
1, 134425, Note_on_c, 0, 45, 35
1, 134425, Note_on_c, 0, 48, 35
1, 134469, Control_c, 0, 64, 127
1, 135066, Note_on_c, 0, 60, 0
1, 135066, Note_on_c, 0, 67, 0
1, 135066, Note_on_c, 0, 57, 0
1, 135069, Note_on_c, 0, 48, 0
1, 135069, Note_on_c, 0, 45, 0
1, 135094, Note_on_c, 0, 60, 36
1, 135094, Note_on_c, 0, 57, 37
1, 135094, Note_on_c, 0, 65, 39
1, 135097, Note_on_c, 0, 45, 24
1, 135097, Note_on_c, 0, 48, 24
1, 135140, Control_c, 0, 64, 0
1, 135258, Note_on_c, 0, 65, 0
1, 135258, Note_on_c, 0, 57, 0
1, 135258, Note_on_c, 0, 60, 0
1, 135261, Note_on_c, 0, 48, 0
1, 135261, Note_on_c, 0, 45, 0
1, 135751, Note_on_c, 0, 55, 46
1, 135751, Note_on_c, 0, 65, 52
1, 135751, Note_on_c, 0, 60, 46
1, 135754, Note_on_c, 0, 48, 35
1, 135778, Control_c, 0, 64, 127
1, 136395, Note_on_c, 0, 60, 0
1, 136395, Note_on_c, 0, 65, 0
1, 136395, Note_on_c, 0, 55, 0
1, 136398, Note_on_c, 0, 48, 0
1, 136423, Note_on_c, 0, 64, 39
1, 136423, Note_on_c, 0, 60, 36
1, 136423, Note_on_c, 0, 55, 36
1, 136426, Note_on_c, 0, 48, 26
1, 136450, Control_c, 0, 64, 0
1, 136592, Note_on_c, 0, 55, 0
1, 136592, Note_on_c, 0, 60, 0
1, 136592, Note_on_c, 0, 64, 0
1, 136595, Note_on_c, 0, 48, 0
1, 137098, Note_on_c, 0, 64, 52
1, 137098, Note_on_c, 0, 57, 46
1, 137098, Note_on_c, 0, 53, 46
1, 137101, Note_on_c, 0, 38, 35
1, 137101, Note_on_c, 0, 50, 35
1, 137117, Control_c, 0, 64, 127
1, 137742, Note_on_c, 0, 53, 0
1, 137742, Note_on_c, 0, 57, 0
1, 137742, Note_on_c, 0, 64, 0
1, 137745, Note_on_c, 0, 50, 0
1, 137745, Note_on_c, 0, 38, 0
1, 137770, Note_on_c, 0, 62, 39
1, 137770, Note_on_c, 0, 57, 35
1, 137770, Note_on_c, 0, 53, 35
1, 137773, Note_on_c, 0, 50, 25
1, 137773, Note_on_c, 0, 38, 25
1, 137790, Control_c, 0, 64, 0
1, 137938, Note_on_c, 0, 53, 0
1, 137938, Note_on_c, 0, 57, 0
1, 137938, Note_on_c, 0, 62, 0
1, 137941, Note_on_c, 0, 38, 0
1, 137941, Note_on_c, 0, 50, 0
1, 138443, Note_on_c, 0, 52, 45
1, 138443, Note_on_c, 0, 62, 51
1, 138443, Note_on_c, 0, 57, 45
1, 138446, Note_on_c, 0, 40, 34
1, 138446, Note_on_c, 0, 45, 34
1, 138468, Control_c, 0, 64, 127
1, 139114, Note_on_c, 0, 57, 0
1, 139114, Note_on_c, 0, 62, 0
1, 139114, Note_on_c, 0, 52, 0
1, 139117, Note_on_c, 0, 40, 0
1, 139144, Note_on_c, 0, 60, 39
1, 139144, Note_on_c, 0, 57, 34
1, 139144, Note_on_c, 0, 52, 49
1, 139147, Note_on_c, 0, 40, 24
1, 139159, Note_on_c, 0, 45, 0
1, 139159, Control_c, 0, 64, 0
1, 139325, Note_on_c, 0, 57, 0
1, 139325, Note_on_c, 0, 60, 0
1, 139325, Note_on_c, 0, 40, 0
1, 139870, Note_on_c, 0, 51, 47
1, 139885, Note_on_c, 0, 52, 0
1, 140563, Note_on_c, 0, 52, 45
1, 140578, Note_on_c, 0, 51, 0
1, 140742, Note_on_c, 0, 52, 0
1, 142708, Note_on_c, 0, 59, 51
1, 142708, Note_on_c, 0, 57, 39
1, 142708, Note_on_c, 0, 40, 29
1, 142711, Note_on_c, 0, 47, 43
1, 142743, Control_c, 0, 64, 127
1, 143407, Note_on_c, 0, 57, 0
1, 143407, Note_on_c, 0, 59, 0
1, 143407, Note_on_c, 0, 40, 0
1, 143438, Note_on_c, 0, 59, 39
1, 143438, Note_on_c, 0, 56, 39
1, 143438, Note_on_c, 0, 52, 49
1, 143441, Note_on_c, 0, 40, 22
1, 143452, Control_c, 0, 64, 0
1, 143452, Note_on_c, 0, 47, 0
1, 143765, Note_on_c, 0, 56, 0
1, 143765, Note_on_c, 0, 59, 0
1, 143765, Note_on_c, 0, 40, 0
1, 144153, Note_on_c, 0, 51, 47
1, 144167, Note_on_c, 0, 52, 0
1, 144851, Note_on_c, 0, 52, 45
1, 144866, Note_on_c, 0, 51, 0
1, 145033, Note_on_c, 0, 52, 0
1, 147039, Note_on_c, 0, 69, 60
1, 147039, Control_c, 0, 91, 127
1, 147039, Note_on_c, 0, 57, 52
1, 147042, Control_c, 0, 91, 127
1, 147042, Control_c, 0, 64, 0
1, 147102, Control_c, 0, 64, 127
1, 147790, Note_on_c, 0, 76, 60
1, 147790, Note_on_c, 0, 64, 52
1, 147803, Control_c, 0, 64, 0
1, 147806, Note_on_c, 0, 69, 0
1, 147806, Note_on_c, 0, 57, 0
1, 148081, Control_c, 0, 64, 127
1, 148538, Note_on_c, 0, 75, 63
1, 148538, Note_on_c, 0, 63, 54
1, 148550, Control_c, 0, 64, 0
1, 148553, Note_on_c, 0, 76, 0
1, 148553, Note_on_c, 0, 64, 0
1, 148663, Control_c, 0, 64, 127
1, 149235, Control_c, 0, 64, 0
1, 149264, Note_on_c, 0, 76, 57
1, 149264, Note_on_c, 0, 64, 48
1, 149280, Note_on_c, 0, 75, 0
1, 149280, Note_on_c, 0, 63, 0
1, 149418, Note_on_c, 0, 76, 0
1, 149418, Note_on_c, 0, 64, 0
1, 149633, Note_on_c, 0, 72, 59
1, 149633, Note_on_c, 0, 60, 49
1, 149680, Control_c, 0, 64, 127
1, 149913, Note_on_c, 0, 71, 57
1, 149913, Note_on_c, 0, 59, 49
1, 149929, Note_on_c, 0, 72, 0
1, 149929, Note_on_c, 0, 60, 0
1, 150008, Note_on_c, 0, 69, 58
1, 150008, Note_on_c, 0, 57, 48
1, 150019, Control_c, 0, 64, 0
1, 150023, Note_on_c, 0, 71, 0
1, 150023, Note_on_c, 0, 59, 0
1, 150127, Control_c, 0, 64, 127
1, 150720, Note_on_c, 0, 69, 0
1, 150720, Note_on_c, 0, 56, 69
1, 150720, Note_on_c, 0, 59, 69
1, 150723, Note_on_c, 0, 64, 69
1, 150723, Note_on_c, 0, 57, 0
1, 150723, Note_on_c, 0, 52, 62
1, 150728, Control_c, 0, 64, 0
1, 150991, Control_c, 0, 64, 127
1, 151470, Note_on_c, 0, 64, 0
1, 151470, Note_on_c, 0, 59, 0
1, 151470, Note_on_c, 0, 56, 0
1, 151473, Note_on_c, 0, 60, 62
1, 151473, Note_on_c, 0, 52, 0
1, 151473, Note_on_c, 0, 48, 57
1, 151483, Control_c, 0, 64, 0
1, 151597, Control_c, 0, 64, 127
1, 152206, Note_on_c, 0, 60, 0
1, 152206, Note_on_c, 0, 57, 61
1, 152206, Note_on_c, 0, 48, 0
1, 152209, Note_on_c, 0, 45, 49
1, 152348, Note_on_c, 0, 57, 0
1, 152348, Note_on_c, 0, 45, 0
1, 152412, Control_c, 0, 64, 0
1, 152964, Note_on_c, 0, 57, 60
1, 152964, Note_on_c, 0, 45, 52
1, 153048, Control_c, 0, 64, 127
1, 153715, Note_on_c, 0, 57, 0
1, 153715, Note_on_c, 0, 57, 73
1, 153715, Note_on_c, 0, 65, 73
1, 153718, Note_on_c, 0, 45, 0
1, 153718, Note_on_c, 0, 38, 55
1, 153729, Control_c, 0, 64, 0
1, 154058, Control_c, 0, 64, 127
1, 154442, Note_on_c, 0, 65, 0
1, 154442, Note_on_c, 0, 57, 0
1, 154442, Note_on_c, 0, 58, 80
1, 154445, Note_on_c, 0, 67, 80
1, 154445, Note_on_c, 0, 38, 0
1, 154445, Note_on_c, 0, 37, 60
1, 154455, Control_c, 0, 64, 0
1, 154541, Control_c, 0, 64, 127
1, 155095, Control_c, 0, 64, 0
1, 155136, Note_on_c, 0, 67, 0
1, 155136, Note_on_c, 0, 58, 0
1, 155136, Note_on_c, 0, 57, 64
1, 155139, Note_on_c, 0, 65, 64
1, 155139, Note_on_c, 0, 37, 0
1, 155139, Note_on_c, 0, 38, 52
1, 155292, Note_on_c, 0, 65, 0
1, 155292, Note_on_c, 0, 57, 0
1, 155292, Note_on_c, 0, 38, 0
1, 155507, Note_on_c, 0, 57, 61
1, 155507, Note_on_c, 0, 45, 54
1, 155553, Control_c, 0, 64, 127
1, 155786, Note_on_c, 0, 59, 64
1, 155786, Note_on_c, 0, 47, 55
1, 155802, Note_on_c, 0, 57, 0
1, 155802, Note_on_c, 0, 45, 0
1, 155881, Note_on_c, 0, 60, 62
1, 155881, Note_on_c, 0, 48, 55
1, 155888, Control_c, 0, 64, 0
1, 155896, Note_on_c, 0, 59, 0
1, 155896, Note_on_c, 0, 47, 0
1, 156043, Control_c, 0, 64, 127
1, 156611, Note_on_c, 0, 60, 0
1, 156611, Note_on_c, 0, 52, 72
1, 156611, Note_on_c, 0, 56, 72
1, 156614, Note_on_c, 0, 59, 72
1, 156614, Note_on_c, 0, 64, 72
1, 156614, Note_on_c, 0, 48, 0
1, 156617, Note_on_c, 0, 40, 62
1, 156617, Control_c, 0, 64, 0
1, 156923, Control_c, 0, 64, 127
1, 157361, Note_on_c, 0, 64, 0
1, 157361, Note_on_c, 0, 52, 0
1, 157361, Note_on_c, 0, 56, 0
1, 157364, Note_on_c, 0, 59, 0
1, 157364, Note_on_c, 0, 48, 60
1, 157364, Note_on_c, 0, 60, 60
1, 157367, Note_on_c, 0, 40, 0
1, 157367, Note_on_c, 0, 36, 55
1, 157372, Control_c, 0, 64, 0
1, 157472, Control_c, 0, 64, 127
1, 158097, Note_on_c, 0, 60, 0
1, 158097, Note_on_c, 0, 48, 0
1, 158097, Note_on_c, 0, 45, 60
1, 158100, Note_on_c, 0, 57, 60
1, 158100, Note_on_c, 0, 36, 0
1, 158100, Note_on_c, 0, 33, 51
1, 158221, Control_c, 0, 64, 0
1, 158256, Note_on_c, 0, 57, 0
1, 158256, Note_on_c, 0, 45, 0
1, 158256, Note_on_c, 0, 33, 0
1, 158862, Note_on_c, 0, 38, 45
1, 158862, Note_on_c, 0, 41, 45
1, 158862, Note_on_c, 0, 45, 45
1, 158911, Control_c, 0, 64, 127
1, 159598, Note_on_c, 0, 45, 0
1, 159598, Note_on_c, 0, 41, 0
1, 159598, Note_on_c, 0, 38, 0
1, 159601, Note_on_c, 0, 33, 43
1, 159648, Control_c, 0, 64, 0
1, 159691, Note_on_c, 0, 33, 0
1, 160348, Note_on_c, 0, 36, 46
1, 160348, Note_on_c, 0, 40, 46
1, 160348, Note_on_c, 0, 45, 46
1, 160391, Control_c, 0, 64, 127
1, 161072, Note_on_c, 0, 45, 0
1, 161072, Note_on_c, 0, 40, 0
1, 161072, Note_on_c, 0, 36, 0
1, 161075, Note_on_c, 0, 33, 45
1, 161115, Control_c, 0, 64, 0
1, 161165, Note_on_c, 0, 33, 0
1, 161444, Note_on_c, 0, 57, 62
1, 161470, Control_c, 0, 64, 127
1, 161804, Note_on_c, 0, 38, 46
1, 161804, Note_on_c, 0, 41, 46
1, 161804, Note_on_c, 0, 45, 46
1, 162155, Note_on_c, 0, 62, 56
1, 162169, Note_on_c, 0, 57, 0
1, 162504, Note_on_c, 0, 64, 59
1, 162504, Note_on_c, 0, 45, 0
1, 162504, Note_on_c, 0, 41, 0
1, 162507, Note_on_c, 0, 38, 0
1, 162507, Note_on_c, 0, 33, 44
1, 162519, Note_on_c, 0, 62, 0
1, 162562, Control_c, 0, 64, 0
1, 162593, Note_on_c, 0, 33, 0
1, 162858, Note_on_c, 0, 65, 57
1, 162873, Note_on_c, 0, 64, 0
1, 162984, Control_c, 0, 64, 127
1, 163217, Note_on_c, 0, 64, 60
1, 163217, Note_on_c, 0, 36, 46
1, 163217, Note_on_c, 0, 40, 46
1, 163220, Note_on_c, 0, 45, 46
1, 163225, Control_c, 0, 64, 0
1, 163231, Note_on_c, 0, 65, 0
1, 163349, Control_c, 0, 64, 127
1, 163905, Note_on_c, 0, 64, 0
1, 163905, Note_on_c, 0, 57, 56
1, 163905, Note_on_c, 0, 45, 0
1, 163908, Note_on_c, 0, 40, 0
1, 163908, Note_on_c, 0, 36, 0
1, 163908, Note_on_c, 0, 33, 44
1, 163953, Control_c, 0, 64, 0
1, 164056, Note_on_c, 0, 57, 0
1, 164056, Note_on_c, 0, 33, 0
1, 164269, Note_on_c, 0, 67, 57
1, 164348, Control_c, 0, 64, 127
1, 164628, Note_on_c, 0, 65, 57
1, 164628, Note_on_c, 0, 38, 47
1, 164628, Note_on_c, 0, 41, 47
1, 164631, Note_on_c, 0, 45, 47
1, 164631, Control_c, 0, 64, 0
1, 164642, Note_on_c, 0, 67, 0
1, 164762, Control_c, 0, 64, 127
1, 165300, Note_on_c, 0, 65, 0
1, 165300, Note_on_c, 0, 57, 58
1, 165300, Note_on_c, 0, 45, 0
1, 165303, Note_on_c, 0, 41, 0
1, 165303, Note_on_c, 0, 38, 0
1, 165303, Note_on_c, 0, 33, 45
1, 165330, Control_c, 0, 64, 0
1, 165454, Note_on_c, 0, 57, 0
1, 165454, Note_on_c, 0, 33, 0
1, 165669, Note_on_c, 0, 65, 55
1, 165762, Control_c, 0, 64, 127
1, 166019, Note_on_c, 0, 64, 60
1, 166019, Note_on_c, 0, 36, 46
1, 166019, Note_on_c, 0, 40, 46
1, 166022, Note_on_c, 0, 45, 46
1, 166027, Control_c, 0, 64, 0
1, 166033, Note_on_c, 0, 65, 0
1, 166138, Control_c, 0, 64, 127
1, 166692, Note_on_c, 0, 64, 0
1, 166692, Note_on_c, 0, 57, 58
1, 166692, Note_on_c, 0, 45, 0
1, 166695, Note_on_c, 0, 40, 0
1, 166695, Note_on_c, 0, 36, 0
1, 166695, Note_on_c, 0, 33, 43
1, 166761, Control_c, 0, 64, 0
1, 166842, Note_on_c, 0, 57, 0
1, 166842, Note_on_c, 0, 33, 0
1, 167053, Note_on_c, 0, 57, 66
1, 167053, Note_on_c, 0, 69, 66
1, 167119, Control_c, 0, 64, 127
1, 167396, Note_on_c, 0, 50, 61
1, 167396, Note_on_c, 0, 53, 61
1, 167396, Note_on_c, 0, 57, 61
1, 167743, Note_on_c, 0, 62, 67
1, 167743, Note_on_c, 0, 74, 67
1, 167757, Note_on_c, 0, 69, 0
1, 167757, Note_on_c, 0, 57, 0
1, 168084, Note_on_c, 0, 64, 70
1, 168084, Note_on_c, 0, 76, 70
1, 168084, Note_on_c, 0, 57, 0
1, 168087, Note_on_c, 0, 53, 0
1, 168087, Note_on_c, 0, 50, 0
1, 168087, Note_on_c, 0, 45, 45
1, 168099, Note_on_c, 0, 62, 0
1, 168099, Note_on_c, 0, 74, 0
1, 168156, Control_c, 0, 64, 0
1, 168172, Note_on_c, 0, 45, 0
1, 168435, Note_on_c, 0, 65, 66
1, 168435, Note_on_c, 0, 77, 66
1, 168450, Note_on_c, 0, 64, 0
1, 168450, Note_on_c, 0, 76, 0
1, 168534, Control_c, 0, 64, 127
1, 168789, Note_on_c, 0, 64, 70
1, 168789, Note_on_c, 0, 76, 70
1, 168789, Note_on_c, 0, 48, 51
1, 168792, Note_on_c, 0, 52, 51
1, 168792, Note_on_c, 0, 57, 51
1, 168796, Control_c, 0, 64, 0
1, 168803, Note_on_c, 0, 65, 0
1, 168803, Note_on_c, 0, 77, 0
1, 168898, Control_c, 0, 64, 127
1, 169459, Note_on_c, 0, 64, 0
1, 169459, Note_on_c, 0, 76, 0
1, 169459, Note_on_c, 0, 57, 66
1, 169462, Note_on_c, 0, 69, 66
1, 169462, Note_on_c, 0, 57, 0
1, 169462, Note_on_c, 0, 52, 0
1, 169465, Note_on_c, 0, 48, 0
1, 169465, Note_on_c, 0, 45, 46
1, 169501, Control_c, 0, 64, 0
1, 169607, Note_on_c, 0, 69, 0
1, 169607, Note_on_c, 0, 57, 0
1, 169607, Note_on_c, 0, 45, 0
1, 169814, Note_on_c, 0, 64, 78
1, 169814, Note_on_c, 0, 76, 78
1, 169843, Control_c, 0, 64, 127
1, 170151, Note_on_c, 0, 47, 67
1, 170151, Note_on_c, 0, 52, 67
1, 170151, Note_on_c, 0, 55, 67
1, 170498, Note_on_c, 0, 67, 84
1, 170498, Note_on_c, 0, 79, 84
1, 170512, Note_on_c, 0, 76, 0
1, 170512, Note_on_c, 0, 64, 0
1, 170834, Note_on_c, 0, 69, 87
1, 170834, Note_on_c, 0, 81, 87
1, 170834, Note_on_c, 0, 55, 0
1, 170837, Note_on_c, 0, 52, 0
1, 170837, Note_on_c, 0, 47, 0
1, 170837, Note_on_c, 0, 43, 64
1, 170848, Note_on_c, 0, 67, 0
1, 170848, Note_on_c, 0, 79, 0
1, 170859, Control_c, 0, 64, 0
1, 170964, Note_on_c, 0, 43, 0
1, 171181, Note_on_c, 0, 71, 83
1, 171181, Note_on_c, 0, 83, 83
1, 171196, Note_on_c, 0, 69, 0
1, 171196, Note_on_c, 0, 81, 0
1, 171274, Control_c, 0, 64, 127
1, 171540, Note_on_c, 0, 71, 0
1, 171540, Note_on_c, 0, 83, 0
1, 171540, Note_on_c, 0, 71, 95
1, 171543, Note_on_c, 0, 83, 95
1, 171543, Note_on_c, 0, 42, 69
1, 171543, Note_on_c, 0, 51, 69
1, 171546, Note_on_c, 0, 54, 76
1, 171546, Control_c, 0, 64, 0
1, 171625, Control_c, 0, 64, 127
1, 172208, Note_on_c, 0, 83, 0
1, 172208, Note_on_c, 0, 71, 0
1, 172208, Note_on_c, 0, 54, 0
1, 172211, Note_on_c, 0, 51, 0
1, 172211, Note_on_c, 0, 42, 0
1, 172269, Note_on_c, 0, 71, 81
1, 172269, Note_on_c, 0, 83, 81
1, 172269, Note_on_c, 0, 47, 59
1, 172272, Note_on_c, 0, 51, 59
1, 172272, Note_on_c, 0, 59, 65
1, 172276, Control_c, 0, 64, 0
1, 172381, Control_c, 0, 64, 127
1, 172919, Note_on_c, 0, 83, 0
1, 172919, Note_on_c, 0, 71, 0
1, 172919, Note_on_c, 0, 59, 0
1, 172922, Note_on_c, 0, 51, 0
1, 172922, Note_on_c, 0, 47, 0
1, 172978, Note_on_c, 0, 67, 67
1, 172978, Note_on_c, 0, 79, 67
1, 172978, Note_on_c, 0, 43, 59
1, 172981, Note_on_c, 0, 55, 59
1, 172991, Control_c, 0, 64, 0
1, 173055, Control_c, 0, 64, 127
1, 173672, Note_on_c, 0, 79, 0
1, 173672, Note_on_c, 0, 67, 0
1, 173672, Note_on_c, 0, 64, 63
1, 173675, Note_on_c, 0, 76, 63
1, 173675, Note_on_c, 0, 55, 0
1, 173675, Note_on_c, 0, 43, 0
1, 173678, Note_on_c, 0, 40, 52
1, 173678, Note_on_c, 0, 52, 52
1, 173691, Control_c, 0, 64, 0
1, 173824, Note_on_c, 0, 76, 0
1, 173824, Note_on_c, 0, 64, 0
1, 173824, Note_on_c, 0, 52, 0
1, 173827, Note_on_c, 0, 40, 0
1, 174402, Note_on_c, 0, 59, 51
1, 174402, Note_on_c, 0, 71, 51
1, 174402, Note_on_c, 0, 30, 36
1, 174405, Note_on_c, 0, 39, 36
1, 174405, Note_on_c, 0, 42, 36
1, 174423, Control_c, 0, 64, 127
1, 175068, Note_on_c, 0, 71, 0
1, 175068, Note_on_c, 0, 59, 0
1, 175068, Note_on_c, 0, 42, 0
1, 175071, Note_on_c, 0, 39, 0
1, 175071, Note_on_c, 0, 30, 0
1, 175128, Note_on_c, 0, 59, 47
1, 175128, Note_on_c, 0, 71, 47
1, 175128, Note_on_c, 0, 35, 34
1, 175131, Note_on_c, 0, 39, 34
1, 175131, Note_on_c, 0, 47, 34
1, 175137, Control_c, 0, 64, 0
1, 175194, Control_c, 0, 64, 127
1, 175781, Note_on_c, 0, 71, 0
1, 175781, Note_on_c, 0, 59, 0
1, 175781, Note_on_c, 0, 47, 0
1, 175784, Note_on_c, 0, 39, 0
1, 175784, Note_on_c, 0, 35, 0
1, 175840, Note_on_c, 0, 55, 47
1, 175840, Note_on_c, 0, 67, 47
1, 175840, Note_on_c, 0, 31, 40
1, 175843, Note_on_c, 0, 43, 40
1, 175848, Control_c, 0, 64, 0
1, 175939, Control_c, 0, 64, 127
1, 176543, Note_on_c, 0, 67, 0
1, 176543, Note_on_c, 0, 55, 0
1, 176543, Note_on_c, 0, 52, 43
1, 176546, Note_on_c, 0, 64, 43
1, 176546, Note_on_c, 0, 43, 0
1, 176546, Note_on_c, 0, 31, 0
1, 176549, Note_on_c, 0, 28, 37
1, 176549, Note_on_c, 0, 40, 37
1, 176562, Control_c, 0, 64, 0
1, 176694, Note_on_c, 0, 64, 0
1, 176694, Note_on_c, 0, 52, 0
1, 176694, Note_on_c, 0, 40, 0
1, 176697, Note_on_c, 0, 28, 0
1, 177267, Note_on_c, 0, 55, 47
1, 177267, Note_on_c, 0, 67, 47
1, 177267, Note_on_c, 0, 40, 40
1, 177912, Note_on_c, 0, 67, 0
1, 177912, Note_on_c, 0, 55, 0
1, 177912, Note_on_c, 0, 52, 43
1, 177915, Note_on_c, 0, 64, 43
1, 177994, Note_on_c, 0, 64, 0
1, 177994, Note_on_c, 0, 52, 0
1, 177994, Note_on_c, 0, 41, 40
1, 178008, Note_on_c, 0, 40, 0
1, 178076, Note_on_c, 0, 40, 36
1, 178090, Note_on_c, 0, 41, 0
1, 178157, Note_on_c, 0, 41, 40
1, 178171, Note_on_c, 0, 40, 0
1, 178239, Note_on_c, 0, 40, 34
1, 178253, Note_on_c, 0, 41, 0
1, 178321, Note_on_c, 0, 41, 40
1, 178335, Note_on_c, 0, 40, 0
1, 178404, Note_on_c, 0, 40, 35
1, 178417, Note_on_c, 0, 41, 0
1, 178484, Note_on_c, 0, 41, 40
1, 178498, Note_on_c, 0, 40, 0
1, 178567, Note_on_c, 0, 65, 58
1, 178567, Note_on_c, 0, 53, 58
1, 178567, Note_on_c, 0, 40, 41
1, 178580, Note_on_c, 0, 41, 0
1, 178647, Note_on_c, 0, 41, 38
1, 178661, Note_on_c, 0, 40, 0
1, 178727, Note_on_c, 0, 40, 41
1, 178740, Note_on_c, 0, 41, 0
1, 178807, Note_on_c, 0, 41, 41
1, 178820, Note_on_c, 0, 40, 0
1, 178887, Note_on_c, 0, 40, 44
1, 178901, Note_on_c, 0, 41, 0
1, 178967, Note_on_c, 0, 41, 40
1, 178980, Note_on_c, 0, 40, 0
1, 179046, Note_on_c, 0, 40, 44
1, 179060, Note_on_c, 0, 41, 0
1, 179127, Note_on_c, 0, 41, 39
1, 179141, Note_on_c, 0, 40, 0
1, 179209, Note_on_c, 0, 53, 0
1, 179209, Note_on_c, 0, 65, 0
1, 179209, Note_on_c, 0, 50, 53
1, 179212, Note_on_c, 0, 62, 53
1, 179212, Note_on_c, 0, 40, 44
1, 179223, Note_on_c, 0, 41, 0
1, 179291, Note_on_c, 0, 62, 0
1, 179291, Note_on_c, 0, 50, 0
1, 179291, Note_on_c, 0, 41, 38
1, 179305, Note_on_c, 0, 40, 0
1, 179373, Note_on_c, 0, 40, 44
1, 179387, Note_on_c, 0, 41, 0
1, 179455, Note_on_c, 0, 41, 39
1, 179469, Note_on_c, 0, 40, 0
1, 179537, Note_on_c, 0, 40, 44
1, 179551, Note_on_c, 0, 41, 0
1, 179619, Note_on_c, 0, 41, 39
1, 179632, Note_on_c, 0, 40, 0
1, 179700, Note_on_c, 0, 40, 44
1, 179714, Note_on_c, 0, 41, 0
1, 179784, Note_on_c, 0, 41, 40
1, 179798, Note_on_c, 0, 40, 0
1, 179866, Note_on_c, 0, 64, 68
1, 179866, Note_on_c, 0, 52, 68
1, 179866, Note_on_c, 0, 40, 49
1, 179879, Note_on_c, 0, 41, 0
1, 179945, Note_on_c, 0, 41, 43
1, 179958, Note_on_c, 0, 40, 0
1, 180025, Note_on_c, 0, 40, 49
1, 180039, Note_on_c, 0, 41, 0
1, 180104, Note_on_c, 0, 41, 43
1, 180118, Note_on_c, 0, 40, 0
1, 180185, Note_on_c, 0, 40, 49
1, 180198, Note_on_c, 0, 41, 0
1, 180265, Note_on_c, 0, 41, 43
1, 180278, Note_on_c, 0, 40, 0
1, 180344, Note_on_c, 0, 40, 50
1, 180357, Note_on_c, 0, 41, 0
1, 180425, Note_on_c, 0, 41, 45
1, 180438, Note_on_c, 0, 40, 0
1, 180505, Note_on_c, 0, 52, 0
1, 180505, Note_on_c, 0, 64, 0
1, 180505, Note_on_c, 0, 48, 60
1, 180508, Note_on_c, 0, 60, 60
1, 180508, Note_on_c, 0, 40, 50
1, 180519, Note_on_c, 0, 41, 0
1, 180588, Note_on_c, 0, 60, 0
1, 180588, Note_on_c, 0, 48, 0
1, 180588, Note_on_c, 0, 41, 45
1, 180602, Note_on_c, 0, 40, 0
1, 180672, Note_on_c, 0, 40, 51
1, 180685, Note_on_c, 0, 41, 0
1, 180753, Note_on_c, 0, 41, 44
1, 180767, Note_on_c, 0, 40, 0
1, 180838, Note_on_c, 0, 40, 51
1, 180852, Note_on_c, 0, 41, 0
1, 180920, Note_on_c, 0, 41, 46
1, 180934, Note_on_c, 0, 40, 0
1, 181005, Note_on_c, 0, 40, 52
1, 181019, Note_on_c, 0, 41, 0
1, 181089, Note_on_c, 0, 41, 47
1, 181103, Note_on_c, 0, 40, 0
1, 181172, Note_on_c, 0, 50, 83
1, 181172, Note_on_c, 0, 62, 83
1, 181172, Note_on_c, 0, 40, 57
1, 181185, Note_on_c, 0, 41, 0
1, 181253, Note_on_c, 0, 41, 49
1, 181267, Note_on_c, 0, 40, 0
1, 181336, Note_on_c, 0, 40, 57
1, 181350, Note_on_c, 0, 41, 0
1, 181417, Note_on_c, 0, 41, 49
1, 181431, Note_on_c, 0, 40, 0
1, 181500, Note_on_c, 0, 40, 58
1, 181514, Note_on_c, 0, 41, 0
1, 181581, Note_on_c, 0, 41, 50
1, 181595, Note_on_c, 0, 40, 0
1, 181665, Note_on_c, 0, 40, 58
1, 181679, Note_on_c, 0, 41, 0
1, 181752, Note_on_c, 0, 41, 52
1, 181766, Note_on_c, 0, 40, 0
1, 181839, Note_on_c, 0, 62, 0
1, 181839, Note_on_c, 0, 50, 0
1, 181839, Note_on_c, 0, 47, 77
1, 181842, Note_on_c, 0, 59, 77
1, 181842, Note_on_c, 0, 40, 59
1, 181853, Note_on_c, 0, 41, 0
1, 181926, Note_on_c, 0, 59, 0
1, 181926, Note_on_c, 0, 47, 0
1, 181926, Note_on_c, 0, 41, 53
1, 181940, Note_on_c, 0, 40, 0
1, 182013, Note_on_c, 0, 40, 64
1, 182027, Note_on_c, 0, 41, 0
1, 182100, Note_on_c, 0, 41, 58
1, 182115, Note_on_c, 0, 40, 0
1, 182188, Note_on_c, 0, 40, 72
1, 182203, Note_on_c, 0, 41, 0
1, 182277, Note_on_c, 0, 41, 73
1, 182292, Note_on_c, 0, 40, 0
1, 182368, Note_on_c, 0, 40, 81
1, 182383, Note_on_c, 0, 41, 0
1, 182465, Note_on_c, 0, 44, 89
1, 182483, Note_on_c, 0, 40, 0
1, 182594, Note_on_c, 0, 57, 108
1, 182594, Note_on_c, 0, 69, 108
1, 182594, Note_on_c, 0, 33, 88
1, 182597, Note_on_c, 0, 45, 88
1, 182610, Note_on_c, 0, 44, 0
1, 182762, Control_c, 0, 64, 127
1, 183352, Note_on_c, 0, 69, 0
1, 183352, Note_on_c, 0, 57, 0
1, 183352, Note_on_c, 0, 64, 98
1, 183355, Note_on_c, 0, 76, 98
1, 183355, Note_on_c, 0, 45, 0
1, 183355, Note_on_c, 0, 33, 0
1, 183358, Note_on_c, 0, 40, 85
1, 183358, Note_on_c, 0, 52, 85
1, 183367, Control_c, 0, 64, 0
1, 183663, Control_c, 0, 64, 127
1, 184099, Note_on_c, 0, 76, 0
1, 184099, Note_on_c, 0, 64, 0
1, 184099, Note_on_c, 0, 63, 94
1, 184102, Note_on_c, 0, 75, 94
1, 184102, Note_on_c, 0, 52, 0
1, 184102, Note_on_c, 0, 40, 0
1, 184105, Note_on_c, 0, 39, 82
1, 184105, Note_on_c, 0, 51, 82
1, 184114, Control_c, 0, 64, 0
1, 184204, Control_c, 0, 64, 127
1, 184775, Control_c, 0, 64, 0
1, 184815, Note_on_c, 0, 75, 0
1, 184815, Note_on_c, 0, 63, 0
1, 184815, Note_on_c, 0, 76, 87
1, 184818, Note_on_c, 0, 64, 87
1, 184818, Note_on_c, 0, 51, 0
1, 184818, Note_on_c, 0, 39, 0
1, 184821, Note_on_c, 0, 40, 77
1, 184821, Note_on_c, 0, 52, 77
1, 185001, Note_on_c, 0, 64, 0
1, 185001, Note_on_c, 0, 76, 0
1, 185001, Note_on_c, 0, 52, 0
1, 185004, Note_on_c, 0, 40, 0
1, 185188, Note_on_c, 0, 64, 77
1, 185188, Note_on_c, 0, 72, 90
1, 185188, Note_on_c, 0, 52, 58
1, 185191, Note_on_c, 0, 64, 58
1, 185204, Control_c, 0, 64, 127
1, 185361, Note_on_c, 0, 72, 0
1, 185361, Note_on_c, 0, 64, 0
1, 185361, Note_on_c, 0, 64, 0
1, 185364, Note_on_c, 0, 52, 0
1, 185448, Note_on_c, 0, 64, 73
1, 185448, Note_on_c, 0, 71, 83
1, 185448, Note_on_c, 0, 50, 56
1, 185451, Note_on_c, 0, 62, 56
1, 185462, Control_c, 0, 64, 0
1, 185512, Note_on_c, 0, 71, 0
1, 185512, Note_on_c, 0, 64, 0
1, 185512, Note_on_c, 0, 62, 0
1, 185515, Note_on_c, 0, 50, 0
1, 185533, Note_on_c, 0, 64, 77
1, 185533, Note_on_c, 0, 69, 90
1, 185533, Note_on_c, 0, 48, 58
1, 185536, Note_on_c, 0, 60, 58
1, 185589, Control_c, 0, 64, 127
1, 185707, Note_on_c, 0, 69, 0
1, 185707, Note_on_c, 0, 64, 0
1, 185707, Note_on_c, 0, 60, 0
1, 185710, Note_on_c, 0, 48, 0
1, 185793, Note_on_c, 0, 62, 73
1, 185793, Note_on_c, 0, 67, 83
1, 185793, Note_on_c, 0, 47, 56
1, 185796, Note_on_c, 0, 59, 56
1, 185801, Control_c, 0, 64, 0
1, 185857, Note_on_c, 0, 67, 0
1, 185857, Note_on_c, 0, 62, 0
1, 185857, Note_on_c, 0, 59, 0
1, 185860, Note_on_c, 0, 47, 0
1, 185878, Note_on_c, 0, 60, 73
1, 185878, Note_on_c, 0, 65, 82
1, 185878, Note_on_c, 0, 45, 53
1, 185881, Note_on_c, 0, 57, 53
1, 185935, Control_c, 0, 64, 127
1, 186050, Note_on_c, 0, 65, 0
1, 186050, Note_on_c, 0, 60, 0
1, 186050, Note_on_c, 0, 57, 0
1, 186053, Note_on_c, 0, 45, 0
1, 186137, Note_on_c, 0, 59, 68
1, 186137, Note_on_c, 0, 64, 80
1, 186137, Note_on_c, 0, 44, 52
1, 186140, Note_on_c, 0, 56, 52
1, 186154, Control_c, 0, 64, 0
1, 186200, Note_on_c, 0, 64, 0
1, 186200, Note_on_c, 0, 59, 0
1, 186200, Note_on_c, 0, 56, 0
1, 186203, Note_on_c, 0, 44, 0
1, 186222, Note_on_c, 0, 60, 74
1, 186222, Note_on_c, 0, 65, 85
1, 186222, Note_on_c, 0, 45, 56
1, 186225, Note_on_c, 0, 57, 56
1, 186298, Control_c, 0, 64, 127
1, 186394, Note_on_c, 0, 65, 0
1, 186394, Note_on_c, 0, 60, 0
1, 186394, Note_on_c, 0, 57, 0
1, 186397, Note_on_c, 0, 45, 0
1, 186480, Note_on_c, 0, 59, 67
1, 186480, Note_on_c, 0, 64, 80
1, 186480, Note_on_c, 0, 43, 50
1, 186483, Note_on_c, 0, 55, 50
1, 186492, Control_c, 0, 64, 0
1, 186543, Note_on_c, 0, 64, 0
1, 186543, Note_on_c, 0, 59, 0
1, 186543, Note_on_c, 0, 55, 0
1, 186546, Note_on_c, 0, 43, 0
1, 186564, Note_on_c, 0, 57, 74
1, 186564, Note_on_c, 0, 62, 85
1, 186564, Note_on_c, 0, 41, 56
1, 186567, Note_on_c, 0, 53, 56
1, 186628, Control_c, 0, 64, 127
1, 186737, Note_on_c, 0, 62, 0
1, 186737, Note_on_c, 0, 57, 0
1, 186737, Note_on_c, 0, 53, 0
1, 186740, Note_on_c, 0, 41, 0
1, 186823, Note_on_c, 0, 55, 68
1, 186823, Note_on_c, 0, 61, 80
1, 186823, Note_on_c, 0, 40, 52
1, 186826, Note_on_c, 0, 52, 52
1, 186853, Control_c, 0, 64, 0
1, 186886, Note_on_c, 0, 61, 0
1, 186886, Note_on_c, 0, 55, 0
1, 186886, Note_on_c, 0, 52, 0
1, 186889, Note_on_c, 0, 40, 0
1, 186907, Note_on_c, 0, 57, 88
1, 186907, Note_on_c, 0, 62, 88
1, 186907, Note_on_c, 0, 41, 58
1, 186910, Note_on_c, 0, 53, 58
1, 186964, Control_c, 0, 64, 127
1, 187078, Note_on_c, 0, 62, 0
1, 187078, Note_on_c, 0, 57, 0
1, 187078, Note_on_c, 0, 53, 0
1, 187081, Note_on_c, 0, 41, 0
1, 187164, Note_on_c, 0, 59, 73
1, 187164, Note_on_c, 0, 64, 83
1, 187164, Note_on_c, 0, 44, 56
1, 187167, Note_on_c, 0, 56, 56
1, 187175, Control_c, 0, 64, 0
1, 187227, Note_on_c, 0, 64, 0
1, 187227, Note_on_c, 0, 59, 0
1, 187227, Note_on_c, 0, 56, 0
1, 187230, Note_on_c, 0, 44, 0
1, 187248, Note_on_c, 0, 60, 88
1, 187248, Note_on_c, 0, 65, 88
1, 187248, Note_on_c, 0, 45, 58
1, 187251, Note_on_c, 0, 57, 58
1, 187314, Control_c, 0, 64, 127
1, 187418, Note_on_c, 0, 65, 0
1, 187418, Note_on_c, 0, 60, 0
1, 187418, Note_on_c, 0, 57, 0
1, 187421, Note_on_c, 0, 45, 0
1, 187503, Note_on_c, 0, 62, 73
1, 187503, Note_on_c, 0, 68, 83
1, 187503, Note_on_c, 0, 47, 56
1, 187506, Note_on_c, 0, 59, 56
1, 187519, Control_c, 0, 64, 0
1, 187566, Note_on_c, 0, 68, 0
1, 187566, Note_on_c, 0, 62, 0
1, 187566, Note_on_c, 0, 59, 0
1, 187569, Note_on_c, 0, 47, 0
1, 187587, Note_on_c, 0, 64, 80
1, 187587, Note_on_c, 0, 69, 94
1, 187587, Note_on_c, 0, 48, 62
1, 187590, Note_on_c, 0, 60, 62
1, 187637, Control_c, 0, 64, 127
1, 187756, Note_on_c, 0, 69, 0
1, 187756, Note_on_c, 0, 64, 0
1, 187756, Note_on_c, 0, 60, 0
1, 187759, Note_on_c, 0, 48, 0
1, 187841, Note_on_c, 0, 64, 77
1, 187841, Note_on_c, 0, 71, 90
1, 187841, Note_on_c, 0, 50, 58
1, 187844, Note_on_c, 0, 62, 58
1, 187855, Control_c, 0, 64, 0
1, 187903, Note_on_c, 0, 71, 0
1, 187903, Note_on_c, 0, 64, 0
1, 187903, Note_on_c, 0, 62, 0
1, 187906, Note_on_c, 0, 50, 0
1, 187924, Note_on_c, 0, 64, 81
1, 187924, Note_on_c, 0, 69, 96
1, 187924, Note_on_c, 0, 48, 63
1, 187927, Note_on_c, 0, 60, 63
1, 188022, Note_on_c, 0, 69, 0
1, 188022, Note_on_c, 0, 64, 0
1, 188022, Note_on_c, 0, 60, 0
1, 188025, Note_on_c, 0, 48, 0
1, 188314, Note_on_c, 0, 57, 107
1, 188314, Note_on_c, 0, 45, 100
1, 188414, Control_c, 0, 64, 127
1, 189076, Note_on_c, 0, 57, 0
1, 189076, Note_on_c, 0, 57, 95
1, 189076, Note_on_c, 0, 65, 95
1, 189079, Note_on_c, 0, 69, 95
1, 189079, Note_on_c, 0, 45, 0
1, 189079, Note_on_c, 0, 38, 96
1, 189082, Note_on_c, 0, 45, 96
1, 189091, Control_c, 0, 64, 0
1, 189359, Control_c, 0, 64, 127
1, 189805, Note_on_c, 0, 69, 0
1, 189805, Note_on_c, 0, 65, 0
1, 189805, Note_on_c, 0, 57, 0
1, 189808, Note_on_c, 0, 67, 100
1, 189808, Note_on_c, 0, 58, 100
1, 189808, Note_on_c, 0, 70, 100
1, 189811, Note_on_c, 0, 45, 0
1, 189811, Note_on_c, 0, 38, 0
1, 189811, Note_on_c, 0, 37, 81
1, 189814, Note_on_c, 0, 45, 81
1, 189819, Control_c, 0, 64, 0
1, 189920, Control_c, 0, 64, 127
1, 190513, Control_c, 0, 64, 0
1, 190516, Note_on_c, 0, 70, 0
1, 190516, Note_on_c, 0, 58, 0
1, 190516, Note_on_c, 0, 67, 0
1, 190519, Note_on_c, 0, 57, 90
1, 190519, Note_on_c, 0, 69, 90
1, 190519, Note_on_c, 0, 65, 90
1, 190522, Note_on_c, 0, 37, 0
1, 190522, Note_on_c, 0, 38, 81
1, 190709, Note_on_c, 0, 65, 0
1, 190709, Note_on_c, 0, 69, 0
1, 190709, Note_on_c, 0, 57, 0
1, 190712, Note_on_c, 0, 38, 0
1, 190712, Note_on_c, 0, 45, 0
1, 190901, Note_on_c, 0, 69, 83
1, 190901, Note_on_c, 0, 77, 99
1, 190901, Note_on_c, 0, 57, 63
1, 190904, Note_on_c, 0, 69, 63
1, 190939, Control_c, 0, 64, 127
1, 191074, Note_on_c, 0, 77, 0
1, 191074, Note_on_c, 0, 69, 0
1, 191074, Note_on_c, 0, 69, 0
1, 191077, Note_on_c, 0, 57, 0
1, 191160, Note_on_c, 0, 69, 80
1, 191160, Note_on_c, 0, 76, 94
1, 191160, Note_on_c, 0, 55, 62
1, 191163, Note_on_c, 0, 67, 62
1, 191166, Control_c, 0, 64, 0
1, 191224, Note_on_c, 0, 76, 0
1, 191224, Note_on_c, 0, 69, 0
1, 191224, Note_on_c, 0, 67, 0
1, 191227, Note_on_c, 0, 55, 0
1, 191245, Note_on_c, 0, 69, 77
1, 191245, Note_on_c, 0, 74, 90
1, 191245, Note_on_c, 0, 53, 58
1, 191248, Note_on_c, 0, 65, 58
1, 191352, Control_c, 0, 64, 127
1, 191417, Note_on_c, 0, 74, 0
1, 191417, Note_on_c, 0, 69, 0
1, 191417, Note_on_c, 0, 65, 0
1, 191420, Note_on_c, 0, 53, 0
1, 191503, Note_on_c, 0, 67, 73
1, 191503, Note_on_c, 0, 72, 83
1, 191503, Note_on_c, 0, 52, 56
1, 191506, Note_on_c, 0, 64, 56
1, 191517, Control_c, 0, 64, 0
1, 191566, Note_on_c, 0, 72, 0
1, 191566, Note_on_c, 0, 67, 0
1, 191566, Note_on_c, 0, 64, 0
1, 191569, Note_on_c, 0, 52, 0
1, 191587, Note_on_c, 0, 65, 73
1, 191587, Note_on_c, 0, 70, 82
1, 191587, Note_on_c, 0, 50, 53
1, 191590, Note_on_c, 0, 62, 53
1, 191689, Control_c, 0, 64, 127
1, 191759, Note_on_c, 0, 70, 0
1, 191759, Note_on_c, 0, 65, 0
1, 191759, Note_on_c, 0, 62, 0
1, 191762, Note_on_c, 0, 50, 0
1, 191844, Note_on_c, 0, 64, 68
1, 191844, Note_on_c, 0, 69, 80
1, 191844, Note_on_c, 0, 49, 52
1, 191847, Note_on_c, 0, 61, 52
1, 191856, Control_c, 0, 64, 0
1, 191907, Note_on_c, 0, 69, 0
1, 191907, Note_on_c, 0, 64, 0
1, 191907, Note_on_c, 0, 61, 0
1, 191910, Note_on_c, 0, 49, 0
1, 191928, Note_on_c, 0, 65, 83
1, 191928, Note_on_c, 0, 70, 83
1, 191928, Note_on_c, 0, 50, 56
1, 191931, Note_on_c, 0, 62, 56
1, 192030, Control_c, 0, 64, 127
1, 192099, Note_on_c, 0, 70, 0
1, 192099, Note_on_c, 0, 65, 0
1, 192099, Note_on_c, 0, 62, 0
1, 192102, Note_on_c, 0, 50, 0
1, 192184, Note_on_c, 0, 64, 67
1, 192184, Note_on_c, 0, 69, 80
1, 192184, Note_on_c, 0, 48, 50
1, 192187, Note_on_c, 0, 60, 50
1, 192200, Control_c, 0, 64, 0
1, 192247, Note_on_c, 0, 69, 0
1, 192247, Note_on_c, 0, 64, 0
1, 192247, Note_on_c, 0, 60, 0
1, 192250, Note_on_c, 0, 48, 0
1, 192268, Note_on_c, 0, 62, 82
1, 192268, Note_on_c, 0, 67, 82
1, 192268, Note_on_c, 0, 46, 56
1, 192271, Note_on_c, 0, 58, 56
1, 192348, Control_c, 0, 64, 127
1, 192438, Note_on_c, 0, 67, 0
1, 192438, Note_on_c, 0, 62, 0
1, 192438, Note_on_c, 0, 58, 0
1, 192441, Note_on_c, 0, 46, 0
1, 192523, Note_on_c, 0, 60, 68
1, 192523, Note_on_c, 0, 66, 80
1, 192523, Note_on_c, 0, 45, 52
1, 192526, Note_on_c, 0, 57, 52
1, 192537, Control_c, 0, 64, 0
1, 192585, Note_on_c, 0, 66, 0
1, 192585, Note_on_c, 0, 60, 0
1, 192585, Note_on_c, 0, 57, 0
1, 192588, Note_on_c, 0, 45, 0
1, 192606, Note_on_c, 0, 62, 86
1, 192606, Note_on_c, 0, 67, 86
1, 192606, Note_on_c, 0, 46, 58
1, 192609, Note_on_c, 0, 58, 58
1, 192669, Control_c, 0, 64, 127
1, 192775, Note_on_c, 0, 67, 0
1, 192775, Note_on_c, 0, 62, 0
1, 192775, Note_on_c, 0, 58, 0
1, 192778, Note_on_c, 0, 46, 0
1, 192860, Note_on_c, 0, 64, 73
1, 192860, Note_on_c, 0, 69, 83
1, 192860, Note_on_c, 0, 49, 56
1, 192863, Note_on_c, 0, 61, 56
1, 192878, Control_c, 0, 64, 0
1, 192924, Note_on_c, 0, 69, 0
1, 192924, Note_on_c, 0, 64, 0
1, 192924, Note_on_c, 0, 61, 0
1, 192927, Note_on_c, 0, 49, 0
1, 192945, Note_on_c, 0, 65, 87
1, 192945, Note_on_c, 0, 70, 87
1, 192945, Note_on_c, 0, 50, 58
1, 192948, Note_on_c, 0, 62, 58
1, 193029, Control_c, 0, 64, 127
1, 193112, Note_on_c, 0, 70, 0
1, 193112, Note_on_c, 0, 65, 0
1, 193112, Note_on_c, 0, 62, 0
1, 193115, Note_on_c, 0, 50, 0
1, 193196, Note_on_c, 0, 67, 73
1, 193196, Note_on_c, 0, 73, 83
1, 193196, Note_on_c, 0, 52, 56
1, 193199, Note_on_c, 0, 64, 56
1, 193203, Control_c, 0, 64, 0
1, 193258, Note_on_c, 0, 73, 0
1, 193258, Note_on_c, 0, 67, 0
1, 193258, Note_on_c, 0, 64, 0
1, 193261, Note_on_c, 0, 52, 0
1, 193279, Note_on_c, 0, 69, 89
1, 193279, Note_on_c, 0, 74, 89
1, 193279, Note_on_c, 0, 53, 62
1, 193282, Note_on_c, 0, 65, 62
1, 193346, Control_c, 0, 64, 127
1, 193446, Note_on_c, 0, 74, 0
1, 193446, Note_on_c, 0, 69, 0
1, 193446, Note_on_c, 0, 65, 0
1, 193449, Note_on_c, 0, 53, 0
1, 193530, Note_on_c, 0, 69, 77
1, 193530, Note_on_c, 0, 76, 90
1, 193530, Note_on_c, 0, 55, 58
1, 193533, Note_on_c, 0, 67, 58
1, 193546, Control_c, 0, 64, 0
1, 193592, Note_on_c, 0, 76, 0
1, 193592, Note_on_c, 0, 69, 0
1, 193592, Note_on_c, 0, 67, 0
1, 193595, Note_on_c, 0, 55, 0
1, 193612, Note_on_c, 0, 69, 81
1, 193612, Note_on_c, 0, 74, 96
1, 193612, Note_on_c, 0, 53, 63
1, 193615, Note_on_c, 0, 65, 63
1, 193707, Note_on_c, 0, 74, 0
1, 193707, Note_on_c, 0, 69, 0
1, 193707, Note_on_c, 0, 65, 0
1, 193710, Note_on_c, 0, 53, 0
1, 193990, Note_on_c, 0, 50, 98
1, 193990, Note_on_c, 0, 55, 98
1, 193990, Note_on_c, 0, 58, 108
1, 193993, Note_on_c, 0, 62, 108
1, 194006, Control_c, 0, 64, 127
1, 194714, Note_on_c, 0, 62, 0
1, 194714, Note_on_c, 0, 50, 0
1, 194714, Note_on_c, 0, 55, 0
1, 194717, Note_on_c, 0, 58, 0
1, 194717, Note_on_c, 0, 38, 82
1, 194717, Note_on_c, 0, 50, 91
1, 194730, Control_c, 0, 64, 0
1, 194854, Note_on_c, 0, 50, 0
1, 194854, Note_on_c, 0, 38, 0
1, 195464, Note_on_c, 0, 50, 97
1, 195464, Note_on_c, 0, 53, 97
1, 195464, Note_on_c, 0, 57, 107
1, 195467, Note_on_c, 0, 62, 107
1, 195472, Control_c, 0, 64, 127
1, 196179, Note_on_c, 0, 62, 0
1, 196179, Note_on_c, 0, 50, 0
1, 196179, Note_on_c, 0, 53, 0
1, 196182, Note_on_c, 0, 57, 0
1, 196182, Note_on_c, 0, 38, 82
1, 196182, Note_on_c, 0, 50, 91
1, 196187, Control_c, 0, 64, 0
1, 196316, Note_on_c, 0, 50, 0
1, 196316, Note_on_c, 0, 38, 0
1, 196545, Note_on_c, 0, 62, 93
1, 196545, Note_on_c, 0, 74, 103
1, 196581, Control_c, 0, 64, 127
1, 196902, Note_on_c, 0, 50, 85
1, 196902, Note_on_c, 0, 55, 85
1, 196902, Note_on_c, 0, 58, 94
1, 196905, Note_on_c, 0, 62, 94
1, 197253, Note_on_c, 0, 67, 90
1, 197253, Note_on_c, 0, 79, 99
1, 197267, Note_on_c, 0, 74, 0
1, 197267, Note_on_c, 0, 62, 0
1, 197599, Note_on_c, 0, 69, 94
1, 197599, Note_on_c, 0, 81, 104
1, 197599, Note_on_c, 0, 62, 0
1, 197602, Note_on_c, 0, 50, 0
1, 197602, Note_on_c, 0, 55, 0
1, 197602, Note_on_c, 0, 58, 0
1, 197605, Note_on_c, 0, 38, 72
1, 197605, Note_on_c, 0, 50, 79
1, 197613, Note_on_c, 0, 67, 0
1, 197613, Note_on_c, 0, 79, 0
1, 197627, Control_c, 0, 64, 0
1, 197730, Note_on_c, 0, 50, 0
1, 197730, Note_on_c, 0, 38, 0
1, 197774, Control_c, 0, 64, 127
1, 197948, Note_on_c, 0, 70, 91
1, 197948, Note_on_c, 0, 82, 101
1, 197954, Control_c, 0, 64, 0
1, 197963, Note_on_c, 0, 69, 0
1, 197963, Note_on_c, 0, 81, 0
1, 198019, Control_c, 0, 64, 127
1, 198303, Note_on_c, 0, 69, 93
1, 198303, Note_on_c, 0, 81, 103
1, 198303, Note_on_c, 0, 50, 83
1, 198306, Note_on_c, 0, 53, 83
1, 198306, Note_on_c, 0, 57, 92
1, 198306, Note_on_c, 0, 62, 92
1, 198311, Control_c, 0, 64, 0
1, 198316, Note_on_c, 0, 70, 0
1, 198316, Note_on_c, 0, 82, 0
1, 198383, Control_c, 0, 64, 127
1, 198967, Note_on_c, 0, 69, 0
1, 198967, Note_on_c, 0, 81, 0
1, 198967, Note_on_c, 0, 62, 86
1, 198970, Note_on_c, 0, 74, 95
1, 198970, Note_on_c, 0, 62, 0
1, 198970, Note_on_c, 0, 50, 0
1, 198973, Note_on_c, 0, 53, 0
1, 198973, Note_on_c, 0, 57, 0
1, 198973, Note_on_c, 0, 38, 76
1, 198976, Note_on_c, 0, 50, 84
1, 198988, Control_c, 0, 64, 0
1, 199116, Note_on_c, 0, 74, 0
1, 199116, Note_on_c, 0, 62, 0
1, 199116, Note_on_c, 0, 50, 0
1, 199119, Note_on_c, 0, 38, 0
1, 199324, Note_on_c, 0, 72, 97
1, 199324, Note_on_c, 0, 84, 107
1, 199680, Note_on_c, 0, 70, 97
1, 199680, Note_on_c, 0, 82, 107
1, 199680, Note_on_c, 0, 50, 83
1, 199683, Note_on_c, 0, 55, 83
1, 199683, Note_on_c, 0, 58, 92
1, 199683, Note_on_c, 0, 62, 92
1, 199693, Note_on_c, 0, 84, 0
1, 199693, Note_on_c, 0, 72, 0
1, 199709, Control_c, 0, 64, 127
1, 200344, Note_on_c, 0, 70, 0
1, 200344, Note_on_c, 0, 82, 0
1, 200344, Note_on_c, 0, 62, 92
1, 200347, Note_on_c, 0, 74, 102
1, 200347, Note_on_c, 0, 62, 0
1, 200347, Note_on_c, 0, 50, 0
1, 200350, Note_on_c, 0, 55, 0
1, 200350, Note_on_c, 0, 58, 0
1, 200350, Note_on_c, 0, 38, 76
1, 200353, Note_on_c, 0, 50, 84
1, 200376, Control_c, 0, 64, 0
1, 200493, Note_on_c, 0, 74, 0
1, 200493, Note_on_c, 0, 62, 0
1, 200493, Note_on_c, 0, 50, 0
1, 200496, Note_on_c, 0, 38, 0
1, 200701, Note_on_c, 0, 70, 97
1, 200701, Note_on_c, 0, 82, 107
1, 201052, Note_on_c, 0, 69, 92
1, 201052, Note_on_c, 0, 81, 102
1, 201052, Note_on_c, 0, 50, 84
1, 201055, Note_on_c, 0, 53, 84
1, 201055, Note_on_c, 0, 57, 93
1, 201055, Note_on_c, 0, 62, 93
1, 201066, Note_on_c, 0, 82, 0
1, 201066, Note_on_c, 0, 70, 0
1, 201089, Control_c, 0, 64, 127
1, 201717, Note_on_c, 0, 69, 0
1, 201717, Note_on_c, 0, 81, 0
1, 201717, Note_on_c, 0, 62, 85
1, 201720, Note_on_c, 0, 74, 94
1, 201720, Note_on_c, 0, 62, 0
1, 201720, Note_on_c, 0, 50, 0
1, 201723, Note_on_c, 0, 53, 0
1, 201723, Note_on_c, 0, 57, 0
1, 201723, Note_on_c, 0, 38, 75
1, 201726, Note_on_c, 0, 50, 83
1, 201736, Control_c, 0, 64, 0
1, 201866, Note_on_c, 0, 74, 0
1, 201866, Note_on_c, 0, 62, 0
1, 201866, Note_on_c, 0, 50, 0
1, 201869, Note_on_c, 0, 38, 0
1, 202075, Note_on_c, 0, 62, 97
1, 202075, Note_on_c, 0, 74, 107
1, 202105, Control_c, 0, 64, 127
1, 202421, Note_on_c, 0, 50, 85
1, 202421, Note_on_c, 0, 55, 85
1, 202421, Note_on_c, 0, 58, 94
1, 202424, Note_on_c, 0, 62, 94
1, 202775, Note_on_c, 0, 67, 92
1, 202775, Note_on_c, 0, 79, 102
1, 202789, Note_on_c, 0, 74, 0
1, 202789, Note_on_c, 0, 62, 0
1, 203112, Note_on_c, 0, 69, 97
1, 203112, Note_on_c, 0, 81, 107
1, 203112, Note_on_c, 0, 62, 0
1, 203115, Note_on_c, 0, 50, 0
1, 203115, Note_on_c, 0, 55, 0
1, 203115, Note_on_c, 0, 58, 0
1, 203118, Note_on_c, 0, 38, 76
1, 203118, Note_on_c, 0, 50, 84
1, 203126, Note_on_c, 0, 67, 0
1, 203126, Note_on_c, 0, 79, 0
1, 203137, Control_c, 0, 64, 0
1, 203241, Note_on_c, 0, 50, 0
1, 203241, Note_on_c, 0, 38, 0
1, 203306, Control_c, 0, 64, 127
1, 203455, Note_on_c, 0, 70, 92
1, 203455, Note_on_c, 0, 82, 102
1, 203458, Control_c, 0, 64, 0
1, 203469, Note_on_c, 0, 69, 0
1, 203469, Note_on_c, 0, 81, 0
1, 203518, Control_c, 0, 64, 127
1, 203803, Note_on_c, 0, 69, 99
1, 203803, Note_on_c, 0, 81, 109
1, 203803, Note_on_c, 0, 50, 85
1, 203806, Note_on_c, 0, 53, 85
1, 203806, Note_on_c, 0, 57, 94
1, 203806, Note_on_c, 0, 62, 94
1, 203811, Control_c, 0, 64, 0
1, 203817, Note_on_c, 0, 70, 0
1, 203817, Note_on_c, 0, 82, 0
1, 203900, Control_c, 0, 64, 127
1, 204461, Note_on_c, 0, 69, 0
1, 204461, Note_on_c, 0, 81, 0
1, 204461, Note_on_c, 0, 62, 85
1, 204464, Note_on_c, 0, 74, 94
1, 204464, Note_on_c, 0, 62, 0
1, 204464, Note_on_c, 0, 50, 0
1, 204467, Note_on_c, 0, 53, 0
1, 204467, Note_on_c, 0, 57, 0
1, 204467, Note_on_c, 0, 38, 76
1, 204470, Note_on_c, 0, 50, 84
1, 204479, Control_c, 0, 64, 0
1, 204606, Note_on_c, 0, 74, 0
1, 204606, Note_on_c, 0, 62, 0
1, 204606, Note_on_c, 0, 50, 0
1, 204609, Note_on_c, 0, 38, 0
1, 204810, Note_on_c, 0, 69, 95
1, 204810, Note_on_c, 0, 81, 105
1, 204848, Control_c, 0, 64, 127
1, 205152, Note_on_c, 0, 48, 82
1, 205152, Note_on_c, 0, 52, 82
1, 205152, Note_on_c, 0, 57, 91
1, 205155, Note_on_c, 0, 60, 91
1, 205493, Note_on_c, 0, 84, 102
1, 205493, Note_on_c, 0, 72, 92
1, 205507, Note_on_c, 0, 81, 0
1, 205507, Note_on_c, 0, 69, 0
1, 205834, Note_on_c, 0, 74, 101
1, 205834, Note_on_c, 0, 86, 112
1, 205834, Note_on_c, 0, 60, 0
1, 205837, Note_on_c, 0, 48, 0
1, 205837, Note_on_c, 0, 52, 0
1, 205837, Note_on_c, 0, 57, 0
1, 205840, Note_on_c, 0, 36, 73
1, 205840, Note_on_c, 0, 48, 81
1, 205848, Note_on_c, 0, 84, 0
1, 205848, Note_on_c, 0, 72, 0
1, 205852, Control_c, 0, 64, 0
1, 205962, Note_on_c, 0, 48, 0
1, 205962, Note_on_c, 0, 36, 0
1, 205975, Control_c, 0, 64, 127
1, 206176, Note_on_c, 0, 76, 104
1, 206176, Note_on_c, 0, 88, 115
1, 206182, Control_c, 0, 64, 0
1, 206191, Note_on_c, 0, 74, 0
1, 206191, Note_on_c, 0, 86, 0
1, 206238, Control_c, 0, 64, 127
1, 206545, Note_on_c, 0, 76, 0
1, 206545, Note_on_c, 0, 88, 0
1, 206545, Note_on_c, 0, 88, 117
1, 206548, Note_on_c, 0, 76, 106
1, 206548, Note_on_c, 0, 47, 86
1, 206548, Note_on_c, 0, 56, 95
1, 206551, Note_on_c, 0, 59, 95
1, 206551, Control_c, 0, 64, 0
1, 206646, Control_c, 0, 64, 127
1, 207238, Note_on_c, 0, 76, 0
1, 207238, Note_on_c, 0, 88, 0
1, 207238, Note_on_c, 0, 59, 0
1, 207241, Note_on_c, 0, 56, 0
1, 207241, Note_on_c, 0, 47, 0
1, 207268, Note_on_c, 0, 76, 94
1, 207268, Note_on_c, 0, 88, 104
1, 207268, Note_on_c, 0, 64, 95
1, 207271, Note_on_c, 0, 56, 95
1, 207271, Note_on_c, 0, 52, 86
1, 207278, Control_c, 0, 64, 0
1, 207341, Control_c, 0, 64, 127
1, 207947, Note_on_c, 0, 88, 0
1, 207947, Note_on_c, 0, 76, 0
1, 207947, Note_on_c, 0, 52, 0
1, 207950, Note_on_c, 0, 56, 0
1, 207950, Note_on_c, 0, 64, 0
1, 207977, Note_on_c, 0, 84, 99
1, 207977, Note_on_c, 0, 72, 90
1, 207977, Note_on_c, 0, 48, 83
1, 207980, Note_on_c, 0, 60, 92
1, 207987, Control_c, 0, 64, 0
1, 208079, Control_c, 0, 64, 127
1, 208671, Note_on_c, 0, 72, 0
1, 208671, Note_on_c, 0, 84, 0
1, 208671, Note_on_c, 0, 81, 91
1, 208674, Note_on_c, 0, 69, 82
1, 208674, Note_on_c, 0, 60, 0
1, 208674, Note_on_c, 0, 48, 0
1, 208677, Note_on_c, 0, 45, 75
1, 208677, Note_on_c, 0, 57, 83
1, 208750, Control_c, 0, 64, 0
1, 208826, Note_on_c, 0, 69, 0
1, 208826, Note_on_c, 0, 81, 0
1, 208826, Note_on_c, 0, 57, 0
1, 208829, Note_on_c, 0, 45, 0
1, 209418, Note_on_c, 0, 64, 58
1, 209418, Note_on_c, 0, 76, 58
1, 209418, Note_on_c, 0, 35, 50
1, 209421, Note_on_c, 0, 44, 50
1, 209421, Note_on_c, 0, 47, 50
1, 209470, Control_c, 0, 64, 127
1, 210135, Note_on_c, 0, 76, 0
1, 210135, Note_on_c, 0, 64, 0
1, 210135, Note_on_c, 0, 47, 0
1, 210138, Note_on_c, 0, 44, 0
1, 210138, Note_on_c, 0, 35, 0
1, 210166, Note_on_c, 0, 64, 58
1, 210166, Note_on_c, 0, 76, 58
1, 210166, Note_on_c, 0, 40, 47
1, 210169, Note_on_c, 0, 44, 47
1, 210169, Note_on_c, 0, 52, 47
1, 210175, Control_c, 0, 64, 0
1, 210243, Control_c, 0, 64, 127
1, 210862, Note_on_c, 0, 76, 0
1, 210862, Note_on_c, 0, 64, 0
1, 210862, Note_on_c, 0, 52, 0
1, 210865, Note_on_c, 0, 44, 0
1, 210865, Note_on_c, 0, 40, 0
1, 210892, Note_on_c, 0, 60, 55
1, 210892, Note_on_c, 0, 72, 55
1, 210892, Note_on_c, 0, 36, 47
1, 210895, Note_on_c, 0, 48, 47
1, 210899, Control_c, 0, 64, 0
1, 210959, Control_c, 0, 64, 127
1, 211592, Note_on_c, 0, 72, 0
1, 211592, Note_on_c, 0, 60, 0
1, 211592, Note_on_c, 0, 57, 51
1, 211595, Note_on_c, 0, 69, 51
1, 211595, Note_on_c, 0, 48, 0
1, 211595, Note_on_c, 0, 36, 0
1, 211598, Note_on_c, 0, 33, 47
1, 211598, Note_on_c, 0, 45, 47
1, 211662, Control_c, 0, 64, 0
1, 211728, Note_on_c, 0, 69, 0
1, 211728, Note_on_c, 0, 57, 0
1, 211728, Note_on_c, 0, 45, 0
1, 211731, Note_on_c, 0, 33, 0
1, 212319, Note_on_c, 0, 58, 44
1, 212319, Note_on_c, 0, 70, 44
1, 212319, Note_on_c, 0, 34, 41
1, 212322, Note_on_c, 0, 46, 41
1, 212351, Control_c, 0, 64, 127
1, 213001, Note_on_c, 0, 70, 0
1, 213001, Note_on_c, 0, 58, 0
1, 213001, Note_on_c, 0, 55, 35
1, 213004, Note_on_c, 0, 67, 35
1, 213004, Note_on_c, 0, 46, 0
1, 213004, Note_on_c, 0, 34, 0
1, 213007, Note_on_c, 0, 31, 34
1, 213007, Note_on_c, 0, 43, 34
1, 213035, Control_c, 0, 64, 0
1, 213134, Note_on_c, 0, 67, 0
1, 213134, Note_on_c, 0, 55, 0
1, 213134, Note_on_c, 0, 43, 0
1, 213137, Note_on_c, 0, 31, 0
1, 213710, Note_on_c, 0, 58, 41
1, 213710, Note_on_c, 0, 70, 41
1, 213710, Note_on_c, 0, 34, 40
1, 213713, Note_on_c, 0, 46, 40
1, 213727, Control_c, 0, 64, 127
1, 214393, Note_on_c, 0, 70, 0
1, 214393, Note_on_c, 0, 58, 0
1, 214393, Note_on_c, 0, 55, 35
1, 214396, Note_on_c, 0, 67, 35
1, 214396, Note_on_c, 0, 46, 0
1, 214396, Note_on_c, 0, 34, 0
1, 214399, Note_on_c, 0, 31, 32
1, 214399, Note_on_c, 0, 43, 32
1, 214411, Control_c, 0, 64, 0
1, 214524, Note_on_c, 0, 67, 0
1, 214524, Note_on_c, 0, 55, 0
1, 214524, Note_on_c, 0, 43, 0
1, 214527, Note_on_c, 0, 31, 0
1, 215095, Note_on_c, 0, 58, 41
1, 215095, Note_on_c, 0, 70, 41
1, 215095, Note_on_c, 0, 34, 40
1, 215098, Note_on_c, 0, 46, 40
1, 215113, Control_c, 0, 64, 127
1, 215775, Note_on_c, 0, 70, 0
1, 215775, Note_on_c, 0, 58, 0
1, 215775, Note_on_c, 0, 55, 34
1, 215778, Note_on_c, 0, 67, 34
1, 215778, Note_on_c, 0, 46, 0
1, 215778, Note_on_c, 0, 34, 0
1, 215781, Note_on_c, 0, 31, 33
1, 215781, Note_on_c, 0, 43, 33
1, 215793, Control_c, 0, 64, 0
1, 215906, Note_on_c, 0, 67, 0
1, 215906, Note_on_c, 0, 55, 0
1, 215906, Note_on_c, 0, 43, 0
1, 215909, Note_on_c, 0, 31, 0
1, 216472, Note_on_c, 0, 58, 44
1, 216472, Note_on_c, 0, 70, 44
1, 216472, Note_on_c, 0, 34, 41
1, 216475, Note_on_c, 0, 46, 41
1, 216475, Control_c, 0, 64, 127
1, 217134, Note_on_c, 0, 70, 0
1, 217134, Note_on_c, 0, 58, 0
1, 217134, Note_on_c, 0, 55, 39
1, 217137, Note_on_c, 0, 67, 39
1, 217137, Note_on_c, 0, 46, 0
1, 217137, Note_on_c, 0, 34, 0
1, 217140, Note_on_c, 0, 31, 36
1, 217140, Note_on_c, 0, 43, 36
1, 217140, Control_c, 0, 64, 0
1, 217260, Note_on_c, 0, 67, 0
1, 217260, Note_on_c, 0, 55, 0
1, 217260, Note_on_c, 0, 43, 0
1, 217263, Note_on_c, 0, 31, 0
1, 217809, Note_on_c, 0, 59, 90
1, 217809, Note_on_c, 0, 35, 82
1, 217842, Control_c, 0, 64, 127
1, 217890, Note_on_c, 0, 59, 0
1, 217890, Note_on_c, 0, 71, 86
1, 217890, Note_on_c, 0, 35, 0
1, 217893, Note_on_c, 0, 47, 41
1, 217971, Note_on_c, 0, 71, 0
1, 217971, Note_on_c, 0, 59, 82
1, 217971, Note_on_c, 0, 47, 0
1, 217974, Note_on_c, 0, 35, 52
1, 218055, Note_on_c, 0, 59, 0
1, 218055, Note_on_c, 0, 71, 77
1, 218055, Note_on_c, 0, 35, 0
1, 218058, Note_on_c, 0, 47, 40
1, 218136, Note_on_c, 0, 71, 0
1, 218136, Note_on_c, 0, 59, 73
1, 218136, Note_on_c, 0, 47, 0
1, 218139, Note_on_c, 0, 35, 56
1, 218217, Note_on_c, 0, 59, 0
1, 218217, Note_on_c, 0, 71, 70
1, 218217, Note_on_c, 0, 35, 0
1, 218220, Note_on_c, 0, 47, 43
1, 218300, Note_on_c, 0, 71, 0
1, 218300, Note_on_c, 0, 59, 67
1, 218300, Note_on_c, 0, 47, 0
1, 218303, Note_on_c, 0, 35, 54
1, 218381, Note_on_c, 0, 59, 0
1, 218381, Note_on_c, 0, 71, 64
1, 218381, Note_on_c, 0, 35, 0
1, 218384, Note_on_c, 0, 47, 41
1, 218461, Note_on_c, 0, 71, 0
1, 218461, Note_on_c, 0, 59, 70
1, 218461, Note_on_c, 0, 47, 0
1, 218464, Note_on_c, 0, 35, 55
1, 218543, Note_on_c, 0, 59, 0
1, 218543, Note_on_c, 0, 71, 67
1, 218543, Note_on_c, 0, 35, 0
1, 218546, Note_on_c, 0, 47, 43
1, 218625, Note_on_c, 0, 71, 0
1, 218625, Note_on_c, 0, 59, 65
1, 218625, Note_on_c, 0, 47, 0
1, 218628, Note_on_c, 0, 35, 54
1, 218705, Note_on_c, 0, 59, 0
1, 218705, Note_on_c, 0, 71, 62
1, 218705, Note_on_c, 0, 35, 0
1, 218708, Note_on_c, 0, 47, 41
1, 218786, Note_on_c, 0, 71, 0
1, 218786, Note_on_c, 0, 59, 68
1, 218786, Note_on_c, 0, 47, 0
1, 218789, Note_on_c, 0, 35, 61
1, 218869, Note_on_c, 0, 59, 0
1, 218869, Note_on_c, 0, 71, 66
1, 218869, Note_on_c, 0, 35, 0
1, 218872, Note_on_c, 0, 47, 47
1, 218947, Note_on_c, 0, 71, 0
1, 218947, Note_on_c, 0, 59, 64
1, 218947, Note_on_c, 0, 47, 0
1, 218950, Note_on_c, 0, 35, 57
1, 219028, Note_on_c, 0, 59, 0
1, 219028, Note_on_c, 0, 71, 61
1, 219028, Note_on_c, 0, 35, 0
1, 219031, Note_on_c, 0, 47, 43
1, 219109, Note_on_c, 0, 71, 0
1, 219109, Note_on_c, 0, 56, 90
1, 219109, Note_on_c, 0, 47, 0
1, 219112, Note_on_c, 0, 32, 84
1, 219112, Control_c, 0, 64, 0
1, 219162, Control_c, 0, 64, 127
1, 219188, Note_on_c, 0, 56, 0
1, 219188, Note_on_c, 0, 68, 85
1, 219188, Note_on_c, 0, 32, 0
1, 219191, Note_on_c, 0, 44, 47
1, 219268, Note_on_c, 0, 68, 0
1, 219268, Note_on_c, 0, 56, 79
1, 219268, Note_on_c, 0, 44, 0
1, 219271, Note_on_c, 0, 32, 57
1, 219349, Note_on_c, 0, 56, 0
1, 219349, Note_on_c, 0, 68, 75
1, 219349, Note_on_c, 0, 32, 0
1, 219352, Note_on_c, 0, 44, 47
1, 219429, Note_on_c, 0, 68, 0
1, 219429, Note_on_c, 0, 56, 71
1, 219429, Note_on_c, 0, 44, 0
1, 219432, Note_on_c, 0, 32, 62
1, 219509, Note_on_c, 0, 56, 0
1, 219509, Note_on_c, 0, 68, 70
1, 219509, Note_on_c, 0, 32, 0
1, 219512, Note_on_c, 0, 44, 49
1, 219592, Note_on_c, 0, 68, 0
1, 219592, Note_on_c, 0, 56, 69
1, 219592, Note_on_c, 0, 44, 0
1, 219595, Note_on_c, 0, 32, 59
1, 219674, Note_on_c, 0, 56, 0
1, 219674, Note_on_c, 0, 68, 68
1, 219674, Note_on_c, 0, 32, 0
1, 219677, Note_on_c, 0, 44, 48
1, 219754, Note_on_c, 0, 68, 0
1, 219754, Note_on_c, 0, 56, 79
1, 219754, Note_on_c, 0, 44, 0
1, 219757, Note_on_c, 0, 32, 65
1, 219835, Note_on_c, 0, 56, 0
1, 219835, Note_on_c, 0, 68, 78
1, 219835, Note_on_c, 0, 32, 0
1, 219838, Note_on_c, 0, 44, 49
1, 219917, Note_on_c, 0, 68, 0
1, 219917, Note_on_c, 0, 56, 76
1, 219917, Note_on_c, 0, 44, 0
1, 219920, Note_on_c, 0, 32, 61
1, 219998, Note_on_c, 0, 56, 0
1, 219998, Note_on_c, 0, 68, 73
1, 219998, Note_on_c, 0, 32, 0
1, 220001, Note_on_c, 0, 44, 49
1, 220079, Note_on_c, 0, 68, 0
1, 220079, Note_on_c, 0, 56, 83
1, 220079, Note_on_c, 0, 44, 0
1, 220082, Note_on_c, 0, 32, 76
1, 220160, Note_on_c, 0, 56, 0
1, 220160, Note_on_c, 0, 68, 80
1, 220160, Note_on_c, 0, 32, 0
1, 220163, Note_on_c, 0, 44, 62
1, 220243, Note_on_c, 0, 68, 0
1, 220243, Note_on_c, 0, 56, 77
1, 220243, Note_on_c, 0, 44, 0
1, 220246, Note_on_c, 0, 32, 67
1, 220327, Note_on_c, 0, 56, 0
1, 220327, Note_on_c, 0, 68, 74
1, 220327, Note_on_c, 0, 32, 0
1, 220330, Note_on_c, 0, 44, 56
1, 220423, Note_on_c, 0, 68, 0
1, 220423, Note_on_c, 0, 71, 109
1, 220423, Note_on_c, 0, 83, 109
1, 220426, Note_on_c, 0, 44, 0
1, 220426, Note_on_c, 0, 47, 89
1, 220426, Note_on_c, 0, 59, 89
1, 220429, Control_c, 0, 64, 0
1, 220519, Control_c, 0, 64, 127
1, 220756, Note_on_c, 0, 83, 0
1, 220756, Note_on_c, 0, 71, 0
1, 220756, Note_on_c, 0, 68, 100
1, 220759, Note_on_c, 0, 80, 100
1, 220759, Note_on_c, 0, 59, 0
1, 220759, Note_on_c, 0, 47, 0
1, 220762, Note_on_c, 0, 44, 79
1, 220762, Note_on_c, 0, 56, 79
1, 220884, Note_on_c, 0, 80, 0
1, 220884, Note_on_c, 0, 68, 0
1, 220884, Note_on_c, 0, 56, 0
1, 220887, Note_on_c, 0, 44, 0
1, 220916, Control_c, 0, 64, 0
1, 221096, Note_on_c, 0, 83, 106
1, 221096, Note_on_c, 0, 71, 106
1, 221096, Note_on_c, 0, 47, 89
1, 221099, Note_on_c, 0, 59, 89
1, 221106, Control_c, 0, 64, 127
1, 221433, Note_on_c, 0, 71, 0
1, 221433, Note_on_c, 0, 83, 0
1, 221433, Note_on_c, 0, 88, 100
1, 221436, Note_on_c, 0, 76, 100
1, 221436, Note_on_c, 0, 59, 0
1, 221436, Note_on_c, 0, 47, 0
1, 221439, Note_on_c, 0, 64, 79
1, 221439, Note_on_c, 0, 52, 79
1, 221563, Note_on_c, 0, 76, 0
1, 221563, Note_on_c, 0, 88, 0
1, 221563, Note_on_c, 0, 52, 0
1, 221566, Note_on_c, 0, 64, 0
1, 221634, Control_c, 0, 64, 0
1, 221780, Note_on_c, 0, 71, 99
1, 221780, Note_on_c, 0, 83, 99
1, 221780, Note_on_c, 0, 47, 80
1, 221783, Note_on_c, 0, 59, 80
1, 221787, Control_c, 0, 64, 127
1, 222123, Note_on_c, 0, 83, 0
1, 222123, Note_on_c, 0, 71, 0
1, 222123, Note_on_c, 0, 80, 92
1, 222126, Note_on_c, 0, 68, 92
1, 222126, Note_on_c, 0, 59, 0
1, 222126, Note_on_c, 0, 47, 0
1, 222129, Note_on_c, 0, 44, 73
1, 222129, Note_on_c, 0, 56, 73
1, 222255, Note_on_c, 0, 68, 0
1, 222255, Note_on_c, 0, 80, 0
1, 222255, Note_on_c, 0, 56, 0
1, 222258, Note_on_c, 0, 44, 0
1, 222346, Control_c, 0, 64, 0
1, 222475, Note_on_c, 0, 64, 75
1, 222475, Note_on_c, 0, 76, 75
1, 222475, Note_on_c, 0, 52, 64
1, 222478, Note_on_c, 0, 40, 64
1, 222507, Control_c, 0, 64, 127
1, 222843, Note_on_c, 0, 76, 0
1, 222843, Note_on_c, 0, 64, 0
1, 222843, Note_on_c, 0, 59, 63
1, 222846, Note_on_c, 0, 71, 63
1, 222846, Note_on_c, 0, 40, 0
1, 222846, Note_on_c, 0, 52, 0
1, 222849, Note_on_c, 0, 47, 54
1, 222849, Note_on_c, 0, 35, 54
1, 222998, Note_on_c, 0, 71, 0
1, 222998, Note_on_c, 0, 59, 0
1, 222998, Note_on_c, 0, 35, 0
1, 223001, Note_on_c, 0, 47, 0
1, 223135, Control_c, 0, 64, 0
1, 223257, Note_on_c, 0, 56, 44
1, 223257, Note_on_c, 0, 64, 44
1, 223257, Note_on_c, 0, 68, 44
1, 223260, Note_on_c, 0, 35, 37
1, 223260, Note_on_c, 0, 47, 37
1, 223297, Control_c, 0, 64, 127
1, 224698, Note_on_c, 0, 68, 0
1, 224698, Note_on_c, 0, 64, 0
1, 224698, Note_on_c, 0, 56, 0
1, 224701, Note_on_c, 0, 63, 48
1, 224701, Note_on_c, 0, 57, 48
1, 224701, Note_on_c, 0, 71, 48
1, 224713, Control_c, 0, 64, 0
1, 224999, Control_c, 0, 64, 127
1, 226140, Note_on_c, 0, 71, 0
1, 226140, Note_on_c, 0, 57, 0
1, 226140, Note_on_c, 0, 63, 0
1, 226143, Note_on_c, 0, 59, 103
1, 226143, Note_on_c, 0, 47, 0
1, 226143, Note_on_c, 0, 35, 0
1, 226146, Note_on_c, 0, 35, 91
1, 226146, Control_c, 0, 64, 0
1, 226173, Control_c, 0, 64, 127
1, 226218, Note_on_c, 0, 59, 0
1, 226218, Note_on_c, 0, 71, 97
1, 226218, Note_on_c, 0, 35, 0
1, 226221, Note_on_c, 0, 47, 48
1, 226297, Note_on_c, 0, 71, 0
1, 226297, Note_on_c, 0, 59, 91
1, 226297, Note_on_c, 0, 47, 0
1, 226300, Note_on_c, 0, 35, 68
1, 226376, Note_on_c, 0, 59, 0
1, 226376, Note_on_c, 0, 71, 85
1, 226376, Note_on_c, 0, 35, 0
1, 226379, Note_on_c, 0, 47, 48
1, 226455, Note_on_c, 0, 71, 0
1, 226455, Note_on_c, 0, 56, 101
1, 226455, Note_on_c, 0, 47, 0
1, 226458, Note_on_c, 0, 32, 82
1, 226534, Note_on_c, 0, 56, 0
1, 226534, Note_on_c, 0, 68, 96
1, 226534, Note_on_c, 0, 32, 0
1, 226537, Note_on_c, 0, 44, 48
1, 226612, Note_on_c, 0, 68, 0
1, 226612, Note_on_c, 0, 56, 91
1, 226612, Note_on_c, 0, 44, 0
1, 226615, Note_on_c, 0, 32, 67
1, 226691, Note_on_c, 0, 56, 0
1, 226691, Note_on_c, 0, 68, 85
1, 226691, Note_on_c, 0, 32, 0
1, 226694, Note_on_c, 0, 44, 48
1, 226770, Note_on_c, 0, 68, 0
1, 226770, Note_on_c, 0, 59, 94
1, 226770, Note_on_c, 0, 44, 0
1, 226773, Note_on_c, 0, 35, 82
1, 226847, Note_on_c, 0, 59, 0
1, 226847, Note_on_c, 0, 71, 90
1, 226847, Note_on_c, 0, 35, 0
1, 226850, Note_on_c, 0, 47, 50
1, 226925, Note_on_c, 0, 71, 0
1, 226925, Note_on_c, 0, 59, 87
1, 226925, Note_on_c, 0, 47, 0
1, 226928, Note_on_c, 0, 35, 70
1, 227002, Note_on_c, 0, 59, 0
1, 227002, Note_on_c, 0, 71, 83
1, 227002, Note_on_c, 0, 35, 0
1, 227005, Note_on_c, 0, 47, 51
1, 227079, Note_on_c, 0, 71, 0
1, 227079, Note_on_c, 0, 64, 98
1, 227079, Note_on_c, 0, 47, 0
1, 227082, Note_on_c, 0, 40, 82
1, 227157, Note_on_c, 0, 64, 0
1, 227157, Note_on_c, 0, 76, 95
1, 227157, Note_on_c, 0, 40, 0
1, 227160, Note_on_c, 0, 52, 55
1, 227234, Note_on_c, 0, 76, 0
1, 227234, Note_on_c, 0, 64, 93
1, 227234, Note_on_c, 0, 52, 0
1, 227237, Note_on_c, 0, 40, 71
1, 227311, Note_on_c, 0, 64, 0
1, 227311, Note_on_c, 0, 76, 90
1, 227311, Note_on_c, 0, 40, 0
1, 227314, Note_on_c, 0, 52, 55
1, 227388, Note_on_c, 0, 76, 0
1, 227388, Note_on_c, 0, 68, 101
1, 227388, Note_on_c, 0, 52, 0
1, 227391, Note_on_c, 0, 44, 87
1, 227465, Note_on_c, 0, 68, 0
1, 227465, Note_on_c, 0, 80, 98
1, 227465, Note_on_c, 0, 44, 0
1, 227468, Note_on_c, 0, 56, 59
1, 227542, Note_on_c, 0, 80, 0
1, 227542, Note_on_c, 0, 68, 96
1, 227542, Note_on_c, 0, 56, 0
1, 227545, Note_on_c, 0, 44, 76
1, 227619, Note_on_c, 0, 68, 0
1, 227619, Note_on_c, 0, 80, 93
1, 227619, Note_on_c, 0, 44, 0
1, 227622, Note_on_c, 0, 56, 61
1, 227695, Note_on_c, 0, 80, 0
1, 227695, Note_on_c, 0, 71, 104
1, 227695, Note_on_c, 0, 56, 0
1, 227698, Note_on_c, 0, 47, 89
1, 227772, Note_on_c, 0, 71, 0
1, 227772, Note_on_c, 0, 83, 101
1, 227772, Note_on_c, 0, 47, 0
1, 227775, Note_on_c, 0, 59, 63
1, 227848, Note_on_c, 0, 83, 0
1, 227848, Note_on_c, 0, 71, 98
1, 227848, Note_on_c, 0, 59, 0
1, 227851, Note_on_c, 0, 47, 82
1, 227924, Note_on_c, 0, 71, 0
1, 227924, Note_on_c, 0, 83, 94
1, 227924, Note_on_c, 0, 47, 0
1, 227927, Note_on_c, 0, 59, 65
1, 227999, Note_on_c, 0, 83, 0
1, 227999, Note_on_c, 0, 76, 112
1, 227999, Note_on_c, 0, 59, 0
1, 228002, Note_on_c, 0, 52, 98
1, 228076, Note_on_c, 0, 76, 0
1, 228076, Note_on_c, 0, 88, 106
1, 228076, Note_on_c, 0, 52, 0
1, 228079, Note_on_c, 0, 64, 67
1, 228154, Note_on_c, 0, 88, 0
1, 228154, Note_on_c, 0, 76, 100
1, 228154, Note_on_c, 0, 64, 0
1, 228157, Note_on_c, 0, 52, 84
1, 228233, Note_on_c, 0, 76, 0
1, 228233, Note_on_c, 0, 88, 94
1, 228233, Note_on_c, 0, 52, 0
1, 228236, Note_on_c, 0, 64, 67
1, 228313, Note_on_c, 0, 88, 0
1, 228313, Note_on_c, 0, 71, 92
1, 228313, Note_on_c, 0, 64, 0
1, 228316, Note_on_c, 0, 47, 83
1, 228398, Note_on_c, 0, 71, 0
1, 228398, Note_on_c, 0, 83, 81
1, 228398, Note_on_c, 0, 47, 0
1, 228401, Note_on_c, 0, 59, 58
1, 228486, Note_on_c, 0, 83, 0
1, 228486, Note_on_c, 0, 71, 78
1, 228486, Note_on_c, 0, 59, 0
1, 228489, Note_on_c, 0, 47, 68
1, 228576, Note_on_c, 0, 71, 0
1, 228576, Note_on_c, 0, 83, 74
1, 228576, Note_on_c, 0, 47, 0
1, 228579, Note_on_c, 0, 59, 57
1, 228705, Note_on_c, 0, 83, 0
1, 228705, Note_on_c, 0, 64, 45
1, 228705, Note_on_c, 0, 56, 45
1, 228708, Note_on_c, 0, 68, 45
1, 228708, Note_on_c, 0, 59, 0
1, 228708, Note_on_c, 0, 35, 38
1, 228711, Note_on_c, 0, 47, 38
1, 228711, Control_c, 0, 64, 0
1, 229083, Control_c, 0, 64, 127
1, 230147, Note_on_c, 0, 68, 0
1, 230147, Note_on_c, 0, 56, 0
1, 230147, Note_on_c, 0, 64, 0
1, 230150, Note_on_c, 0, 63, 46
1, 230150, Note_on_c, 0, 57, 46
1, 230150, Note_on_c, 0, 71, 53
1, 230162, Control_c, 0, 64, 0
1, 230427, Control_c, 0, 64, 127
1, 231588, Note_on_c, 0, 71, 0
1, 231588, Note_on_c, 0, 57, 0
1, 231588, Note_on_c, 0, 63, 0
1, 231591, Note_on_c, 0, 56, 44
1, 231591, Note_on_c, 0, 64, 50
1, 231591, Note_on_c, 0, 47, 0
1, 231594, Note_on_c, 0, 35, 0
1, 231594, Note_on_c, 0, 47, 30
1, 231594, Note_on_c, 0, 40, 30
1, 231597, Control_c, 0, 64, 0
1, 231662, Control_c, 0, 64, 127
1, 232326, Note_on_c, 0, 64, 0
1, 232326, Note_on_c, 0, 56, 0
1, 232326, Note_on_c, 0, 40, 0
1, 232329, Note_on_c, 0, 47, 0
1, 232358, Note_on_c, 0, 56, 33
1, 232358, Note_on_c, 0, 64, 37
1, 232358, Note_on_c, 0, 40, 27
1, 232361, Note_on_c, 0, 47, 27
1, 233032, Note_on_c, 0, 64, 0
1, 233032, Note_on_c, 0, 56, 0
1, 233032, Note_on_c, 0, 47, 0
1, 233035, Note_on_c, 0, 40, 0
1, 233128, Note_on_c, 0, 64, 49
1, 233128, Note_on_c, 0, 56, 49
1, 233128, Note_on_c, 0, 47, 30
1, 233131, Note_on_c, 0, 40, 30
1, 233131, Control_c, 0, 64, 0
1, 233283, Control_c, 0, 64, 127
1, 233481, Note_on_c, 0, 56, 0
1, 233481, Note_on_c, 0, 64, 0
1, 233481, Note_on_c, 0, 40, 0
1, 233484, Note_on_c, 0, 47, 0
1, 233488, Note_on_c, 0, 56, 44
1, 233488, Note_on_c, 0, 68, 44
1, 233488, Note_on_c, 0, 47, 26
1, 233491, Note_on_c, 0, 40, 26
1, 233833, Note_on_c, 0, 68, 0
1, 233833, Note_on_c, 0, 56, 0
1, 233833, Note_on_c, 0, 40, 0
1, 233836, Note_on_c, 0, 47, 0
1, 233841, Note_on_c, 0, 56, 48
1, 233841, Note_on_c, 0, 66, 48
1, 233841, Note_on_c, 0, 40, 29
1, 233844, Note_on_c, 0, 47, 29
1, 233852, Control_c, 0, 64, 0
1, 234050, Control_c, 0, 64, 127
1, 234199, Note_on_c, 0, 66, 0
1, 234199, Note_on_c, 0, 56, 0
1, 234199, Note_on_c, 0, 47, 0
1, 234202, Note_on_c, 0, 40, 0
1, 234207, Note_on_c, 0, 56, 45
1, 234207, Note_on_c, 0, 68, 45
1, 234207, Note_on_c, 0, 40, 25
1, 234210, Note_on_c, 0, 47, 25
1, 234575, Note_on_c, 0, 68, 0
1, 234575, Note_on_c, 0, 56, 0
1, 234575, Note_on_c, 0, 47, 0
1, 234578, Note_on_c, 0, 40, 0
1, 234582, Note_on_c, 0, 57, 49
1, 234582, Note_on_c, 0, 61, 49
1, 234582, Note_on_c, 0, 40, 33
1, 234585, Note_on_c, 0, 49, 33
1, 234598, Control_c, 0, 64, 0
1, 234712, Control_c, 0, 64, 127
1, 235290, Note_on_c, 0, 61, 0
1, 235290, Note_on_c, 0, 57, 0
1, 235290, Note_on_c, 0, 49, 0
1, 235293, Note_on_c, 0, 40, 0
1, 235321, Note_on_c, 0, 57, 35
1, 235321, Note_on_c, 0, 61, 35
1, 235321, Note_on_c, 0, 40, 25
1, 235324, Note_on_c, 0, 49, 25
1, 235967, Note_on_c, 0, 61, 0
1, 235967, Note_on_c, 0, 57, 0
1, 235967, Note_on_c, 0, 49, 0
1, 235970, Note_on_c, 0, 40, 0
1, 236059, Note_on_c, 0, 57, 48
1, 236059, Note_on_c, 0, 61, 48
1, 236059, Note_on_c, 0, 40, 30
1, 236062, Note_on_c, 0, 49, 30
1, 236062, Control_c, 0, 64, 0
1, 236182, Control_c, 0, 64, 127
1, 236409, Note_on_c, 0, 61, 0
1, 236409, Note_on_c, 0, 57, 0
1, 236409, Note_on_c, 0, 49, 0
1, 236412, Note_on_c, 0, 40, 0
1, 236416, Note_on_c, 0, 57, 41
1, 236416, Note_on_c, 0, 59, 41
1, 236416, Note_on_c, 0, 66, 41
1, 236419, Note_on_c, 0, 40, 25
1, 236419, Note_on_c, 0, 51, 25
1, 236761, Note_on_c, 0, 66, 0
1, 236761, Note_on_c, 0, 59, 0
1, 236761, Note_on_c, 0, 57, 0
1, 236764, Note_on_c, 0, 51, 0
1, 236764, Note_on_c, 0, 40, 0
1, 236769, Note_on_c, 0, 57, 47
1, 236769, Note_on_c, 0, 59, 47
1, 236769, Note_on_c, 0, 64, 47
1, 236772, Note_on_c, 0, 40, 29
1, 236772, Note_on_c, 0, 49, 29
1, 236783, Control_c, 0, 64, 0
1, 236877, Control_c, 0, 64, 127
1, 237110, Note_on_c, 0, 64, 0
1, 237110, Note_on_c, 0, 59, 0
1, 237110, Note_on_c, 0, 57, 0
1, 237113, Note_on_c, 0, 49, 0
1, 237113, Note_on_c, 0, 40, 0
1, 237117, Note_on_c, 0, 57, 39
1, 237117, Note_on_c, 0, 66, 39
1, 237117, Note_on_c, 0, 59, 39
1, 237120, Note_on_c, 0, 51, 25
1, 237120, Note_on_c, 0, 40, 25
1, 237489, Note_on_c, 0, 59, 0
1, 237489, Note_on_c, 0, 66, 0
1, 237489, Note_on_c, 0, 57, 0
1, 237492, Note_on_c, 0, 40, 0
1, 237492, Note_on_c, 0, 51, 0
1, 237497, Note_on_c, 0, 56, 46
1, 237497, Note_on_c, 0, 59, 46
1, 237497, Note_on_c, 0, 52, 33
1, 237500, Note_on_c, 0, 40, 33
1, 237504, Control_c, 0, 64, 0
1, 237565, Control_c, 0, 64, 127
1, 238205, Note_on_c, 0, 59, 0
1, 238205, Note_on_c, 0, 56, 0
1, 238205, Note_on_c, 0, 40, 0
1, 238208, Note_on_c, 0, 52, 0
1, 238235, Note_on_c, 0, 56, 34
1, 238235, Note_on_c, 0, 64, 39
1, 238235, Note_on_c, 0, 40, 27
1, 238238, Note_on_c, 0, 47, 27
1, 238881, Note_on_c, 0, 64, 0
1, 238881, Note_on_c, 0, 56, 0
1, 238881, Note_on_c, 0, 47, 0
1, 238884, Note_on_c, 0, 40, 0
1, 238974, Note_on_c, 0, 56, 56
1, 238974, Note_on_c, 0, 64, 56
1, 238974, Note_on_c, 0, 47, 33
1, 238977, Note_on_c, 0, 40, 33
1, 238977, Control_c, 0, 64, 0
1, 239146, Control_c, 0, 64, 127
1, 239328, Note_on_c, 0, 64, 0
1, 239328, Note_on_c, 0, 56, 0
1, 239328, Note_on_c, 0, 40, 0
1, 239331, Note_on_c, 0, 47, 0
1, 239335, Note_on_c, 0, 56, 46
1, 239335, Note_on_c, 0, 68, 46
1, 239335, Note_on_c, 0, 40, 28
1, 239338, Note_on_c, 0, 47, 28
1, 239689, Note_on_c, 0, 68, 0
1, 239689, Note_on_c, 0, 56, 0
1, 239689, Note_on_c, 0, 47, 0
1, 239692, Note_on_c, 0, 40, 0
1, 239697, Note_on_c, 0, 66, 55
1, 239697, Note_on_c, 0, 56, 55
1, 239697, Note_on_c, 0, 40, 34
1, 239700, Note_on_c, 0, 47, 34
1, 239708, Control_c, 0, 64, 0
1, 239756, Control_c, 0, 64, 127
1, 240045, Note_on_c, 0, 56, 0
1, 240045, Note_on_c, 0, 66, 0
1, 240045, Note_on_c, 0, 47, 0
1, 240048, Note_on_c, 0, 40, 0
1, 240053, Note_on_c, 0, 56, 49
1, 240053, Note_on_c, 0, 68, 49
1, 240053, Note_on_c, 0, 47, 28
1, 240056, Note_on_c, 0, 40, 28
1, 240395, Note_on_c, 0, 68, 0
1, 240395, Note_on_c, 0, 56, 0
1, 240395, Note_on_c, 0, 40, 0
1, 240398, Note_on_c, 0, 47, 0
1, 240402, Note_on_c, 0, 57, 52
1, 240402, Note_on_c, 0, 69, 52
1, 240402, Note_on_c, 0, 64, 52
1, 240405, Note_on_c, 0, 40, 35
1, 240405, Note_on_c, 0, 49, 35
1, 240419, Control_c, 0, 64, 0
1, 240516, Control_c, 0, 64, 127
1, 241110, Note_on_c, 0, 64, 0
1, 241110, Note_on_c, 0, 69, 0
1, 241110, Note_on_c, 0, 57, 0
1, 241113, Note_on_c, 0, 49, 0
1, 241113, Note_on_c, 0, 40, 0
1, 241141, Note_on_c, 0, 69, 47
1, 241141, Note_on_c, 0, 57, 47
1, 241141, Note_on_c, 0, 64, 47
1, 241144, Note_on_c, 0, 49, 29
1, 241144, Note_on_c, 0, 40, 29
1, 241787, Note_on_c, 0, 64, 0
1, 241787, Note_on_c, 0, 57, 0
1, 241787, Note_on_c, 0, 69, 0
1, 241790, Note_on_c, 0, 40, 0
1, 241790, Note_on_c, 0, 49, 0
1, 241879, Note_on_c, 0, 69, 50
1, 241879, Note_on_c, 0, 61, 50
1, 241879, Note_on_c, 0, 73, 58
1, 241882, Note_on_c, 0, 40, 40
1, 241882, Note_on_c, 0, 49, 46
1, 241882, Control_c, 0, 64, 0
1, 241996, Control_c, 0, 64, 127
1, 242242, Note_on_c, 0, 49, 0
1, 242242, Note_on_c, 0, 52, 43
1, 242568, Note_on_c, 0, 73, 0
1, 242568, Note_on_c, 0, 61, 0
1, 242568, Note_on_c, 0, 69, 0
1, 242598, Note_on_c, 0, 73, 58
1, 242598, Note_on_c, 0, 61, 50
1, 242598, Note_on_c, 0, 69, 50
1, 242601, Note_on_c, 0, 52, 0
1, 242601, Note_on_c, 0, 57, 47
1, 242959, Note_on_c, 0, 57, 0
1, 242959, Note_on_c, 0, 61, 49
1, 243291, Note_on_c, 0, 69, 0
1, 243291, Note_on_c, 0, 61, 0
1, 243291, Note_on_c, 0, 73, 0
1, 243321, Note_on_c, 0, 64, 44
1, 243321, Note_on_c, 0, 76, 50
1, 243321, Note_on_c, 0, 68, 44
1, 243324, Note_on_c, 0, 61, 0
1, 243324, Note_on_c, 0, 40, 0
1, 243324, Note_on_c, 0, 52, 36
1, 243327, Note_on_c, 0, 59, 36
1, 243327, Control_c, 0, 64, 0
1, 243427, Control_c, 0, 64, 127
1, 244028, Note_on_c, 0, 68, 0
1, 244028, Note_on_c, 0, 76, 0
1, 244028, Note_on_c, 0, 64, 0
1, 244031, Note_on_c, 0, 59, 0
1, 244031, Note_on_c, 0, 52, 0
1, 244059, Note_on_c, 0, 68, 33
1, 244059, Note_on_c, 0, 64, 33
1, 244059, Note_on_c, 0, 76, 37
1, 244062, Note_on_c, 0, 59, 27
1, 244062, Note_on_c, 0, 52, 27
1, 244701, Note_on_c, 0, 76, 0
1, 244701, Note_on_c, 0, 64, 0
1, 244701, Note_on_c, 0, 68, 0
1, 244704, Note_on_c, 0, 52, 0
1, 244704, Note_on_c, 0, 59, 0
1, 244791, Note_on_c, 0, 69, 48
1, 244791, Note_on_c, 0, 78, 48
1, 244791, Note_on_c, 0, 63, 48
1, 244794, Note_on_c, 0, 52, 32
1, 244794, Note_on_c, 0, 59, 32
1, 244794, Control_c, 0, 64, 0
1, 244960, Control_c, 0, 64, 127
1, 245137, Note_on_c, 0, 63, 0
1, 245137, Note_on_c, 0, 78, 0
1, 245137, Note_on_c, 0, 69, 0
1, 245140, Note_on_c, 0, 59, 0
1, 245140, Note_on_c, 0, 52, 0
1, 245144, Note_on_c, 0, 75, 41
1, 245144, Note_on_c, 0, 69, 41
1, 245144, Note_on_c, 0, 66, 41
1, 245147, Note_on_c, 0, 59, 28
1, 245147, Note_on_c, 0, 52, 28
1, 245495, Note_on_c, 0, 66, 0
1, 245495, Note_on_c, 0, 69, 0
1, 245495, Note_on_c, 0, 75, 0
1, 245498, Note_on_c, 0, 52, 0
1, 245498, Note_on_c, 0, 59, 0
1, 245503, Note_on_c, 0, 71, 46
1, 245503, Note_on_c, 0, 66, 46
1, 245503, Note_on_c, 0, 52, 30
1, 245506, Note_on_c, 0, 63, 30
1, 245517, Control_c, 0, 64, 0
1, 245590, Control_c, 0, 64, 127
1, 245845, Note_on_c, 0, 66, 0
1, 245845, Note_on_c, 0, 71, 0
1, 245845, Note_on_c, 0, 63, 0
1, 245848, Note_on_c, 0, 52, 0
1, 245852, Note_on_c, 0, 69, 41
1, 245852, Note_on_c, 0, 64, 41
1, 245852, Note_on_c, 0, 61, 28
1, 245855, Note_on_c, 0, 52, 28
1, 246204, Note_on_c, 0, 64, 0
1, 246204, Note_on_c, 0, 69, 0
1, 246204, Note_on_c, 0, 52, 0
1, 246207, Note_on_c, 0, 61, 0
1, 246211, Note_on_c, 0, 64, 39
1, 246211, Note_on_c, 0, 68, 45
1, 246211, Note_on_c, 0, 52, 34
1, 246214, Note_on_c, 0, 59, 34
1, 246227, Control_c, 0, 64, 0
1, 246294, Control_c, 0, 64, 127
1, 246910, Note_on_c, 0, 68, 0
1, 246910, Note_on_c, 0, 64, 0
1, 246910, Note_on_c, 0, 59, 0
1, 246913, Note_on_c, 0, 52, 0
1, 246940, Note_on_c, 0, 64, 29
1, 246940, Note_on_c, 0, 68, 33
1, 246940, Note_on_c, 0, 59, 25
1, 246943, Note_on_c, 0, 52, 25
1, 247574, Note_on_c, 0, 68, 0
1, 247574, Note_on_c, 0, 64, 0
1, 247574, Note_on_c, 0, 52, 0
1, 247577, Note_on_c, 0, 59, 0
1, 247663, Note_on_c, 0, 78, 47
1, 247663, Note_on_c, 0, 69, 47
1, 247663, Note_on_c, 0, 63, 47
1, 247666, Note_on_c, 0, 52, 32
1, 247666, Note_on_c, 0, 59, 32
1, 247666, Control_c, 0, 64, 0
1, 247815, Control_c, 0, 64, 127
1, 248009, Note_on_c, 0, 63, 0
1, 248009, Note_on_c, 0, 69, 0
1, 248009, Note_on_c, 0, 78, 0
1, 248012, Note_on_c, 0, 59, 0
1, 248012, Note_on_c, 0, 52, 0
1, 248016, Note_on_c, 0, 66, 40
1, 248016, Note_on_c, 0, 75, 40
1, 248016, Note_on_c, 0, 69, 40
1, 248019, Note_on_c, 0, 59, 27
1, 248019, Note_on_c, 0, 52, 27
1, 248364, Note_on_c, 0, 69, 0
1, 248364, Note_on_c, 0, 75, 0
1, 248364, Note_on_c, 0, 66, 0
1, 248367, Note_on_c, 0, 52, 0
1, 248367, Note_on_c, 0, 59, 0
1, 248372, Note_on_c, 0, 66, 45
1, 248372, Note_on_c, 0, 71, 45
1, 248372, Note_on_c, 0, 52, 30
1, 248375, Note_on_c, 0, 63, 30
1, 248386, Control_c, 0, 64, 0
1, 248553, Control_c, 0, 64, 127
1, 248711, Note_on_c, 0, 71, 0
1, 248711, Note_on_c, 0, 66, 0
1, 248711, Note_on_c, 0, 63, 0
1, 248714, Note_on_c, 0, 52, 0
1, 248719, Note_on_c, 0, 64, 40
1, 248719, Note_on_c, 0, 69, 40
1, 248719, Note_on_c, 0, 52, 28
1, 248722, Note_on_c, 0, 61, 28
1, 249073, Note_on_c, 0, 69, 0
1, 249073, Note_on_c, 0, 64, 0
1, 249073, Note_on_c, 0, 61, 0
1, 249076, Note_on_c, 0, 52, 0
1, 249080, Note_on_c, 0, 64, 39
1, 249080, Note_on_c, 0, 68, 45
1, 249080, Note_on_c, 0, 59, 39
1, 249083, Note_on_c, 0, 52, 34
1, 249089, Control_c, 0, 64, 0
1, 249163, Control_c, 0, 64, 127
1, 249782, Note_on_c, 0, 68, 0
1, 249782, Note_on_c, 0, 64, 0
1, 249782, Note_on_c, 0, 52, 0
1, 249785, Note_on_c, 0, 59, 0
1, 249812, Note_on_c, 0, 64, 29
1, 249812, Note_on_c, 0, 68, 33
1, 249812, Note_on_c, 0, 59, 25
1, 249815, Note_on_c, 0, 52, 25
1, 250453, Note_on_c, 0, 68, 0
1, 250453, Note_on_c, 0, 64, 0
1, 250453, Note_on_c, 0, 52, 0
1, 250456, Note_on_c, 0, 59, 0
1, 250544, Note_on_c, 0, 64, 45
1, 250544, Note_on_c, 0, 56, 35
1, 250544, Note_on_c, 0, 52, 35
1, 250547, Control_c, 0, 64, 0
1, 250704, Control_c, 0, 64, 127
1, 250894, Note_on_c, 0, 64, 0
1, 250894, Note_on_c, 0, 52, 0
1, 250894, Note_on_c, 0, 56, 0
1, 250902, Note_on_c, 0, 64, 36
1, 250902, Note_on_c, 0, 68, 41
1, 250902, Note_on_c, 0, 52, 33
1, 250905, Note_on_c, 0, 59, 33
1, 251259, Note_on_c, 0, 68, 0
1, 251259, Note_on_c, 0, 64, 0
1, 251259, Note_on_c, 0, 59, 0
1, 251262, Note_on_c, 0, 52, 0
1, 251266, Note_on_c, 0, 64, 39
1, 251266, Note_on_c, 0, 66, 45
1, 251266, Note_on_c, 0, 57, 35
1, 251269, Note_on_c, 0, 52, 35
1, 251281, Control_c, 0, 64, 0
1, 251402, Control_c, 0, 64, 127
1, 251618, Note_on_c, 0, 66, 0
1, 251618, Note_on_c, 0, 64, 0
1, 251618, Note_on_c, 0, 52, 0
1, 251621, Note_on_c, 0, 57, 0
1, 251625, Note_on_c, 0, 68, 43
1, 251625, Note_on_c, 0, 64, 37
1, 251625, Note_on_c, 0, 52, 34
1, 251628, Note_on_c, 0, 59, 34
1, 251999, Note_on_c, 0, 64, 0
1, 251999, Note_on_c, 0, 68, 0
1, 251999, Note_on_c, 0, 59, 0
1, 252002, Note_on_c, 0, 52, 0
1, 252007, Note_on_c, 0, 64, 38
1, 252007, Note_on_c, 0, 71, 44
1, 252007, Note_on_c, 0, 52, 35
1, 252010, Note_on_c, 0, 61, 35
1, 252020, Control_c, 0, 64, 0
1, 252056, Control_c, 0, 64, 127
1, 252709, Note_on_c, 0, 71, 0
1, 252709, Note_on_c, 0, 64, 0
1, 252709, Note_on_c, 0, 61, 0
1, 252712, Note_on_c, 0, 52, 0
1, 252739, Note_on_c, 0, 64, 28
1, 252739, Note_on_c, 0, 70, 34
1, 252739, Note_on_c, 0, 61, 25
1, 252742, Note_on_c, 0, 52, 25
1, 252918, Note_on_c, 0, 70, 0
1, 252918, Note_on_c, 0, 64, 0
1, 252918, Note_on_c, 0, 52, 0
1, 252921, Note_on_c, 0, 61, 0
1, 252989, Control_c, 0, 64, 0
1, 253456, Note_on_c, 0, 76, 51
1, 253456, Note_on_c, 0, 83, 51
1, 253456, Note_on_c, 0, 88, 51
1, 253459, Note_on_c, 0, 64, 32
1, 253459, Note_on_c, 0, 72, 32
1, 253482, Control_c, 0, 64, 127
1, 254136, Note_on_c, 0, 88, 0
1, 254136, Note_on_c, 0, 83, 0
1, 254136, Note_on_c, 0, 76, 0
1, 254139, Note_on_c, 0, 72, 0
1, 254139, Note_on_c, 0, 64, 0
1, 254165, Note_on_c, 0, 76, 35
1, 254165, Note_on_c, 0, 88, 35
1, 254165, Note_on_c, 0, 81, 35
1, 254168, Note_on_c, 0, 64, 18
1, 254168, Note_on_c, 0, 72, 19
1, 254394, Control_c, 0, 64, 0
1, 254482, Note_on_c, 0, 81, 0
1, 254482, Note_on_c, 0, 88, 0
1, 254482, Note_on_c, 0, 76, 0
1, 254485, Note_on_c, 0, 72, 0
1, 254485, Note_on_c, 0, 64, 0
1, 254857, Note_on_c, 0, 64, 44
1, 254857, Note_on_c, 0, 69, 44
1, 254857, Note_on_c, 0, 52, 35
1, 254860, Note_on_c, 0, 59, 35
1, 254888, Control_c, 0, 64, 127
1, 255536, Note_on_c, 0, 69, 0
1, 255536, Note_on_c, 0, 64, 0
1, 255536, Note_on_c, 0, 59, 0
1, 255539, Note_on_c, 0, 52, 0
1, 255566, Note_on_c, 0, 64, 34
1, 255566, Note_on_c, 0, 68, 34
1, 255566, Note_on_c, 0, 52, 19
1, 255569, Note_on_c, 0, 59, 21
1, 255816, Control_c, 0, 64, 0
1, 255897, Note_on_c, 0, 68, 0
1, 255897, Note_on_c, 0, 64, 0
1, 255897, Note_on_c, 0, 59, 0
1, 255900, Note_on_c, 0, 52, 0
1, 256289, Note_on_c, 0, 76, 52
1, 256289, Note_on_c, 0, 88, 52
1, 256289, Note_on_c, 0, 81, 52
1, 256292, Note_on_c, 0, 71, 32
1, 256292, Note_on_c, 0, 64, 32
1, 256318, Control_c, 0, 64, 127
1, 256988, Note_on_c, 0, 81, 0
1, 256988, Note_on_c, 0, 88, 0
1, 256988, Note_on_c, 0, 76, 0
1, 256991, Note_on_c, 0, 64, 0
1, 256991, Note_on_c, 0, 71, 0
1, 257018, Note_on_c, 0, 76, 35
1, 257018, Note_on_c, 0, 79, 35
1, 257018, Note_on_c, 0, 88, 35
1, 257021, Note_on_c, 0, 64, 21
1, 257021, Note_on_c, 0, 71, 21
1, 257265, Control_c, 0, 64, 0
1, 257352, Note_on_c, 0, 88, 0
1, 257352, Note_on_c, 0, 79, 0
1, 257352, Note_on_c, 0, 76, 0
1, 257355, Note_on_c, 0, 71, 0
1, 257355, Note_on_c, 0, 64, 0
1, 257747, Note_on_c, 0, 60, 88
1, 257747, Note_on_c, 0, 66, 96
1, 257747, Note_on_c, 0, 64, 96
1, 257750, Note_on_c, 0, 54, 88
1, 257750, Note_on_c, 0, 33, 68
1, 257750, Note_on_c, 0, 45, 74
1, 257846, Control_c, 0, 64, 127
1, 258429, Note_on_c, 0, 54, 0
1, 258429, Note_on_c, 0, 60, 0
1, 258429, Note_on_c, 0, 66, 0
1, 258432, Note_on_c, 0, 64, 0
1, 258432, Note_on_c, 0, 45, 0
1, 258432, Note_on_c, 0, 33, 0
1, 258458, Note_on_c, 0, 54, 69
1, 258458, Note_on_c, 0, 64, 77
1, 258458, Note_on_c, 0, 60, 69
1, 258461, Note_on_c, 0, 66, 77
1, 258461, Note_on_c, 0, 33, 49
1, 258461, Note_on_c, 0, 45, 54
1, 258791, Note_on_c, 0, 66, 0
1, 258791, Note_on_c, 0, 54, 0
1, 258791, Note_on_c, 0, 64, 0
1, 258794, Note_on_c, 0, 60, 0
1, 258794, Note_on_c, 0, 45, 0
1, 258794, Note_on_c, 0, 33, 0
1, 258822, Control_c, 0, 64, 0
1, 259185, Note_on_c, 0, 73, 56
1, 259185, Note_on_c, 0, 76, 56
1, 259185, Note_on_c, 0, 78, 65
1, 259188, Note_on_c, 0, 64, 49
1, 259188, Note_on_c, 0, 66, 49
1, 259188, Note_on_c, 0, 57, 49
1, 259194, Control_c, 0, 64, 127
1, 259529, Note_on_c, 0, 78, 0
1, 259529, Note_on_c, 0, 76, 0
1, 259529, Note_on_c, 0, 73, 0
1, 259532, Note_on_c, 0, 57, 0
1, 259532, Note_on_c, 0, 66, 0
1, 259532, Note_on_c, 0, 64, 0
1, 259536, Note_on_c, 0, 76, 47
1, 259536, Note_on_c, 0, 80, 56
1, 259536, Note_on_c, 0, 71, 47
1, 259539, Note_on_c, 0, 64, 44
1, 259539, Note_on_c, 0, 59, 44
1, 259539, Note_on_c, 0, 68, 44
1, 259549, Control_c, 0, 64, 0
1, 259643, Control_c, 0, 64, 127
1, 259873, Note_on_c, 0, 71, 0
1, 259873, Note_on_c, 0, 80, 0
1, 259873, Note_on_c, 0, 76, 0
1, 259876, Note_on_c, 0, 68, 0
1, 259876, Note_on_c, 0, 59, 0
1, 259876, Note_on_c, 0, 64, 0
1, 259880, Note_on_c, 0, 81, 60
1, 259880, Note_on_c, 0, 69, 52
1, 259880, Note_on_c, 0, 76, 52
1, 259883, Note_on_c, 0, 64, 47
1, 259883, Note_on_c, 0, 61, 47
1, 259894, Control_c, 0, 64, 0
1, 260034, Control_c, 0, 64, 127
1, 260217, Note_on_c, 0, 76, 0
1, 260217, Note_on_c, 0, 69, 0
1, 260217, Note_on_c, 0, 81, 0
1, 260220, Note_on_c, 0, 61, 0
1, 260220, Note_on_c, 0, 64, 0
1, 260224, Note_on_c, 0, 76, 47
1, 260224, Note_on_c, 0, 80, 56
1, 260224, Note_on_c, 0, 71, 47
1, 260227, Note_on_c, 0, 64, 46
1, 260227, Note_on_c, 0, 59, 46
1, 260227, Note_on_c, 0, 68, 46
1, 260239, Control_c, 0, 64, 0
1, 260363, Control_c, 0, 64, 127
1, 260567, Control_c, 0, 64, 0
1, 260584, Note_on_c, 0, 71, 0
1, 260584, Note_on_c, 0, 80, 0
1, 260584, Note_on_c, 0, 76, 0
1, 260587, Note_on_c, 0, 68, 0
1, 260587, Note_on_c, 0, 59, 0
1, 260587, Note_on_c, 0, 64, 0
1, 260592, Note_on_c, 0, 76, 60
1, 260592, Note_on_c, 0, 71, 60
1, 260592, Note_on_c, 0, 83, 60
1, 260595, Note_on_c, 0, 69, 46
1, 260595, Note_on_c, 0, 66, 46
1, 260595, Note_on_c, 0, 59, 46
1, 260831, Control_c, 0, 64, 127
1, 261282, Note_on_c, 0, 83, 0
1, 261282, Note_on_c, 0, 71, 0
1, 261282, Note_on_c, 0, 76, 0
1, 261285, Note_on_c, 0, 59, 0
1, 261285, Note_on_c, 0, 66, 0
1, 261285, Note_on_c, 0, 69, 0
1, 261312, Note_on_c, 0, 83, 36
1, 261312, Note_on_c, 0, 71, 36
1, 261312, Note_on_c, 0, 75, 43
1, 261315, Note_on_c, 0, 59, 27
1, 261315, Note_on_c, 0, 69, 27
1, 261315, Note_on_c, 0, 66, 27
1, 261556, Control_c, 0, 64, 0
1, 261642, Note_on_c, 0, 75, 0
1, 261642, Note_on_c, 0, 71, 0
1, 261642, Note_on_c, 0, 83, 0
1, 261645, Note_on_c, 0, 66, 0
1, 261645, Note_on_c, 0, 69, 0
1, 261645, Note_on_c, 0, 59, 0
1, 262039, Note_on_c, 0, 64, 40
1, 262039, Note_on_c, 0, 68, 47
1, 262039, Note_on_c, 0, 52, 37
1, 262042, Note_on_c, 0, 59, 37
1, 262068, Control_c, 0, 64, 127
1, 262718, Note_on_c, 0, 68, 0
1, 262718, Note_on_c, 0, 64, 0
1, 262718, Note_on_c, 0, 59, 0
1, 262721, Note_on_c, 0, 52, 0
1, 262747, Note_on_c, 0, 68, 33
1, 262747, Note_on_c, 0, 64, 33
1, 262747, Note_on_c, 0, 52, 33
1, 262750, Note_on_c, 0, 59, 26
1, 263072, Note_on_c, 0, 64, 0
1, 263072, Note_on_c, 0, 68, 0
1, 263072, Note_on_c, 0, 59, 0
1, 263075, Note_on_c, 0, 52, 0
1, 263102, Control_c, 0, 64, 0
1, 263469, Note_on_c, 0, 54, 89
1, 263469, Note_on_c, 0, 66, 99
1, 263469, Note_on_c, 0, 60, 89
1, 263472, Note_on_c, 0, 64, 99
1, 263472, Note_on_c, 0, 33, 68
1, 263472, Note_on_c, 0, 45, 74
1, 263549, Control_c, 0, 64, 127
1, 264154, Note_on_c, 0, 64, 0
1, 264154, Note_on_c, 0, 54, 0
1, 264154, Note_on_c, 0, 66, 0
1, 264157, Note_on_c, 0, 60, 0
1, 264157, Note_on_c, 0, 45, 0
1, 264157, Note_on_c, 0, 33, 0
1, 264184, Note_on_c, 0, 54, 69
1, 264184, Note_on_c, 0, 60, 69
1, 264184, Note_on_c, 0, 66, 77
1, 264187, Note_on_c, 0, 64, 77
1, 264187, Note_on_c, 0, 45, 58
1, 264187, Note_on_c, 0, 33, 52
1, 264505, Note_on_c, 0, 64, 0
1, 264505, Note_on_c, 0, 54, 0
1, 264505, Note_on_c, 0, 60, 0
1, 264508, Note_on_c, 0, 66, 0
1, 264508, Note_on_c, 0, 33, 0
1, 264508, Note_on_c, 0, 45, 0
1, 264534, Control_c, 0, 64, 0
1, 264884, Note_on_c, 0, 76, 56
1, 264884, Note_on_c, 0, 78, 65
1, 264884, Note_on_c, 0, 73, 56
1, 264887, Note_on_c, 0, 64, 49
1, 264887, Note_on_c, 0, 66, 49
1, 264887, Note_on_c, 0, 57, 49
1, 264907, Control_c, 0, 64, 127
1, 265227, Note_on_c, 0, 73, 0
1, 265227, Note_on_c, 0, 78, 0
1, 265227, Note_on_c, 0, 76, 0
1, 265230, Note_on_c, 0, 57, 0
1, 265230, Note_on_c, 0, 66, 0
1, 265230, Note_on_c, 0, 64, 0
1, 265234, Note_on_c, 0, 71, 51
1, 265234, Note_on_c, 0, 80, 59
1, 265234, Note_on_c, 0, 76, 51
1, 265237, Note_on_c, 0, 59, 46
1, 265237, Note_on_c, 0, 68, 46
1, 265237, Note_on_c, 0, 64, 46
1, 265241, Control_c, 0, 64, 0
1, 265290, Control_c, 0, 64, 127
1, 265579, Note_on_c, 0, 76, 0
1, 265579, Note_on_c, 0, 80, 0
1, 265579, Note_on_c, 0, 71, 0
1, 265582, Note_on_c, 0, 64, 0
1, 265582, Note_on_c, 0, 68, 0
1, 265582, Note_on_c, 0, 59, 0
1, 265587, Note_on_c, 0, 69, 54
1, 265587, Note_on_c, 0, 76, 54
1, 265587, Note_on_c, 0, 81, 63
1, 265590, Note_on_c, 0, 61, 49
1, 265590, Note_on_c, 0, 64, 49
1, 265602, Control_c, 0, 64, 0
1, 265655, Control_c, 0, 64, 127
1, 265925, Note_on_c, 0, 81, 0
1, 265925, Note_on_c, 0, 76, 0
1, 265925, Note_on_c, 0, 69, 0
1, 265928, Note_on_c, 0, 64, 0
1, 265928, Note_on_c, 0, 61, 0
1, 265932, Note_on_c, 0, 71, 49
1, 265932, Note_on_c, 0, 76, 49
1, 265932, Note_on_c, 0, 80, 57
1, 265935, Note_on_c, 0, 68, 46
1, 265935, Note_on_c, 0, 59, 46
1, 265935, Note_on_c, 0, 64, 46
1, 265942, Control_c, 0, 64, 0
1, 265988, Control_c, 0, 64, 127
1, 266294, Note_on_c, 0, 80, 0
1, 266294, Note_on_c, 0, 76, 0
1, 266294, Note_on_c, 0, 71, 0
1, 266297, Note_on_c, 0, 64, 0
1, 266297, Note_on_c, 0, 59, 0
1, 266297, Note_on_c, 0, 68, 0
1, 266301, Note_on_c, 0, 83, 60
1, 266301, Note_on_c, 0, 71, 52
1, 266301, Note_on_c, 0, 76, 60
1, 266304, Note_on_c, 0, 69, 46
1, 266304, Note_on_c, 0, 59, 46
1, 266304, Note_on_c, 0, 66, 46
1, 266316, Control_c, 0, 64, 0
1, 266419, Control_c, 0, 64, 127
1, 267000, Note_on_c, 0, 76, 0
1, 267000, Note_on_c, 0, 71, 0
1, 267000, Note_on_c, 0, 83, 0
1, 267003, Note_on_c, 0, 66, 0
1, 267003, Note_on_c, 0, 59, 0
1, 267003, Note_on_c, 0, 69, 0
1, 267030, Note_on_c, 0, 71, 36
1, 267030, Note_on_c, 0, 83, 37
1, 267030, Note_on_c, 0, 75, 43
1, 267033, Note_on_c, 0, 66, 27
1, 267033, Note_on_c, 0, 69, 27
1, 267033, Note_on_c, 0, 59, 27
1, 267245, Control_c, 0, 64, 0
1, 267365, Note_on_c, 0, 75, 0
1, 267365, Note_on_c, 0, 83, 0
1, 267365, Note_on_c, 0, 71, 0
1, 267368, Note_on_c, 0, 59, 0
1, 267368, Note_on_c, 0, 69, 0
1, 267368, Note_on_c, 0, 66, 0
1, 267759, Note_on_c, 0, 64, 114
1, 267759, Note_on_c, 0, 52, 114
1, 267759, Note_on_c, 0, 40, 96
1, 267997, Control_c, 0, 64, 127
1, 268441, Note_on_c, 0, 52, 0
1, 268441, Note_on_c, 0, 64, 0
1, 268441, Note_on_c, 0, 40, 0
1, 268471, Note_on_c, 0, 52, 84
1, 268471, Note_on_c, 0, 64, 93
1, 268471, Note_on_c, 0, 40, 80
1, 268789, Control_c, 0, 64, 0
1, 268804, Note_on_c, 0, 64, 0
1, 268804, Note_on_c, 0, 52, 0
1, 268804, Note_on_c, 0, 40, 0
1, 269197, Note_on_c, 0, 56, 46
1, 269197, Note_on_c, 0, 59, 46
1, 269197, Note_on_c, 0, 40, 32
1, 269200, Note_on_c, 0, 47, 32
1, 269222, Control_c, 0, 64, 127
1, 269546, Note_on_c, 0, 59, 0
1, 269546, Note_on_c, 0, 56, 0
1, 269546, Note_on_c, 0, 47, 0
1, 269549, Note_on_c, 0, 40, 0
1, 269554, Note_on_c, 0, 56, 40
1, 269554, Note_on_c, 0, 68, 40
1, 269554, Note_on_c, 0, 47, 27
1, 269557, Note_on_c, 0, 40, 27
1, 269897, Note_on_c, 0, 68, 0
1, 269897, Note_on_c, 0, 56, 0
1, 269897, Note_on_c, 0, 40, 0
1, 269900, Note_on_c, 0, 47, 0
1, 269905, Note_on_c, 0, 66, 47
1, 269905, Note_on_c, 0, 56, 47
1, 269905, Note_on_c, 0, 40, 30
1, 269908, Note_on_c, 0, 47, 30
1, 269919, Control_c, 0, 64, 0
1, 270038, Control_c, 0, 64, 127
1, 270247, Note_on_c, 0, 56, 0
1, 270247, Note_on_c, 0, 66, 0
1, 270247, Note_on_c, 0, 47, 0
1, 270250, Note_on_c, 0, 40, 0
1, 270255, Note_on_c, 0, 56, 40
1, 270255, Note_on_c, 0, 68, 40
1, 270255, Note_on_c, 0, 40, 26
1, 270258, Note_on_c, 0, 47, 26
1, 270625, Note_on_c, 0, 68, 0
1, 270625, Note_on_c, 0, 56, 0
1, 270625, Note_on_c, 0, 47, 0
1, 270628, Note_on_c, 0, 40, 0
1, 270633, Note_on_c, 0, 71, 49
1, 270633, Note_on_c, 0, 68, 49
1, 270633, Note_on_c, 0, 60, 34
1, 270636, Note_on_c, 0, 48, 26
1, 270636, Note_on_c, 0, 40, 26
1, 270646, Control_c, 0, 64, 0
1, 270684, Control_c, 0, 64, 127
1, 271296, Note_on_c, 0, 60, 0
1, 271296, Note_on_c, 0, 68, 0
1, 271296, Note_on_c, 0, 71, 0
1, 271299, Note_on_c, 0, 40, 0
1, 271299, Note_on_c, 0, 48, 0
1, 271325, Note_on_c, 0, 69, 33
1, 271325, Note_on_c, 0, 60, 32
1, 271325, Note_on_c, 0, 66, 33
1, 271328, Note_on_c, 0, 40, 18
1, 271328, Note_on_c, 0, 48, 18
1, 271390, Control_c, 0, 64, 0
1, 271503, Note_on_c, 0, 66, 0
1, 271503, Note_on_c, 0, 60, 0
1, 271503, Note_on_c, 0, 69, 0
1, 271506, Note_on_c, 0, 48, 0
1, 271506, Note_on_c, 0, 40, 0
1, 272037, Note_on_c, 0, 59, 39
1, 272037, Note_on_c, 0, 68, 49
1, 272037, Note_on_c, 0, 71, 49
1, 272040, Note_on_c, 0, 40, 33
1, 272040, Note_on_c, 0, 51, 33
1, 272065, Control_c, 0, 64, 127
1, 272708, Note_on_c, 0, 71, 0
1, 272708, Note_on_c, 0, 68, 0
1, 272708, Note_on_c, 0, 59, 0
1, 272711, Note_on_c, 0, 51, 0
1, 272711, Note_on_c, 0, 40, 0
1, 272737, Note_on_c, 0, 59, 29
1, 272737, Note_on_c, 0, 66, 33
1, 272737, Note_on_c, 0, 69, 33
1, 272740, Note_on_c, 0, 40, 19
1, 272740, Note_on_c, 0, 51, 19
1, 272853, Control_c, 0, 64, 0
1, 272920, Note_on_c, 0, 69, 0
1, 272920, Note_on_c, 0, 66, 0
1, 272920, Note_on_c, 0, 59, 0
1, 272923, Note_on_c, 0, 51, 0
1, 272923, Note_on_c, 0, 40, 0
1, 273469, Note_on_c, 0, 64, 115
1, 273469, Note_on_c, 0, 76, 115
1, 273469, Note_on_c, 0, 40, 96
1, 273472, Note_on_c, 0, 52, 96
1, 273628, Control_c, 0, 64, 127
1, 274156, Note_on_c, 0, 76, 0
1, 274156, Note_on_c, 0, 64, 0
1, 274156, Note_on_c, 0, 52, 0
1, 274159, Note_on_c, 0, 40, 0
1, 274186, Note_on_c, 0, 64, 71
1, 274186, Note_on_c, 0, 76, 79
1, 274186, Note_on_c, 0, 52, 76
1, 274189, Note_on_c, 0, 40, 69
1, 274522, Note_on_c, 0, 76, 0
1, 274522, Note_on_c, 0, 64, 0
1, 274522, Note_on_c, 0, 40, 0
1, 274525, Note_on_c, 0, 52, 0
1, 274553, Control_c, 0, 64, 0
1, 274919, Note_on_c, 0, 56, 48
1, 274919, Note_on_c, 0, 59, 48
1, 274919, Note_on_c, 0, 40, 35
1, 274922, Note_on_c, 0, 47, 35
1, 274950, Control_c, 0, 64, 127
1, 275269, Note_on_c, 0, 59, 0
1, 275269, Note_on_c, 0, 56, 0
1, 275269, Note_on_c, 0, 47, 0
1, 275272, Note_on_c, 0, 40, 0
1, 275276, Note_on_c, 0, 68, 41
1, 275276, Note_on_c, 0, 56, 41
1, 275276, Note_on_c, 0, 47, 28
1, 275279, Note_on_c, 0, 40, 28
1, 275621, Note_on_c, 0, 56, 0
1, 275621, Note_on_c, 0, 68, 0
1, 275621, Note_on_c, 0, 40, 0
1, 275624, Note_on_c, 0, 47, 0
1, 275629, Note_on_c, 0, 56, 48
1, 275629, Note_on_c, 0, 66, 48
1, 275629, Note_on_c, 0, 47, 35
1, 275632, Note_on_c, 0, 40, 35
1, 275643, Control_c, 0, 64, 0
1, 275827, Control_c, 0, 64, 127
1, 275970, Note_on_c, 0, 66, 0
1, 275970, Note_on_c, 0, 56, 0
1, 275970, Note_on_c, 0, 40, 0
1, 275973, Note_on_c, 0, 47, 0
1, 275977, Note_on_c, 0, 56, 41
1, 275977, Note_on_c, 0, 68, 41
1, 275977, Note_on_c, 0, 40, 27
1, 275980, Note_on_c, 0, 47, 27
1, 276348, Note_on_c, 0, 68, 0
1, 276348, Note_on_c, 0, 56, 0
1, 276348, Note_on_c, 0, 47, 0
1, 276351, Note_on_c, 0, 40, 0
1, 276356, Note_on_c, 0, 61, 47
1, 276356, Note_on_c, 0, 73, 54
1, 276356, Note_on_c, 0, 69, 54
1, 276359, Note_on_c, 0, 45, 34
1, 276359, Note_on_c, 0, 40, 34
1, 276368, Control_c, 0, 64, 0
1, 276426, Control_c, 0, 64, 127
1, 277007, Note_on_c, 0, 69, 0
1, 277007, Note_on_c, 0, 73, 0
1, 277007, Note_on_c, 0, 61, 0
1, 277010, Note_on_c, 0, 40, 0
1, 277010, Note_on_c, 0, 45, 0
1, 277035, Note_on_c, 0, 61, 29
1, 277035, Note_on_c, 0, 69, 33
1, 277035, Note_on_c, 0, 66, 33
1, 277038, Note_on_c, 0, 40, 22
1, 277038, Note_on_c, 0, 49, 26
1, 277095, Control_c, 0, 64, 0
1, 277211, Note_on_c, 0, 66, 0
1, 277211, Note_on_c, 0, 69, 0
1, 277211, Note_on_c, 0, 61, 0
1, 277214, Note_on_c, 0, 49, 0
1, 277214, Note_on_c, 0, 40, 0
1, 277737, Note_on_c, 0, 59, 45
1, 277737, Note_on_c, 0, 71, 51
1, 277737, Note_on_c, 0, 68, 51
1, 277740, Note_on_c, 0, 47, 35
1, 277740, Note_on_c, 0, 40, 35
1, 277754, Control_c, 0, 64, 127
1, 278388, Note_on_c, 0, 68, 0
1, 278388, Note_on_c, 0, 71, 0
1, 278388, Note_on_c, 0, 59, 0
1, 278391, Note_on_c, 0, 40, 0
1, 278391, Note_on_c, 0, 47, 0
1, 278416, Note_on_c, 0, 69, 35
1, 278416, Note_on_c, 0, 59, 34
1, 278416, Note_on_c, 0, 66, 35
1, 278419, Note_on_c, 0, 51, 28
1, 278419, Note_on_c, 0, 40, 24
1, 278435, Control_c, 0, 64, 0
1, 278589, Note_on_c, 0, 66, 0
1, 278589, Note_on_c, 0, 59, 0
1, 278589, Note_on_c, 0, 69, 0
1, 278592, Note_on_c, 0, 40, 0
1, 278592, Note_on_c, 0, 51, 0
1, 279107, Note_on_c, 0, 64, 45
1, 279107, Note_on_c, 0, 69, 51
1, 279107, Note_on_c, 0, 59, 45
1, 279110, Note_on_c, 0, 52, 35
1, 279110, Note_on_c, 0, 40, 35
1, 279134, Control_c, 0, 64, 127
1, 279744, Note_on_c, 0, 59, 0
1, 279744, Note_on_c, 0, 69, 0
1, 279744, Note_on_c, 0, 64, 0
1, 279747, Note_on_c, 0, 40, 0
1, 279747, Note_on_c, 0, 52, 0
1, 279772, Note_on_c, 0, 64, 33
1, 279772, Note_on_c, 0, 67, 35
1, 279772, Note_on_c, 0, 59, 33
1, 279775, Note_on_c, 0, 52, 22
1, 279775, Note_on_c, 0, 40, 14
1, 279799, Control_c, 0, 64, 0
1, 279937, Note_on_c, 0, 59, 0
1, 279937, Note_on_c, 0, 67, 0
1, 279937, Note_on_c, 0, 64, 0
1, 279940, Note_on_c, 0, 40, 0
1, 279940, Note_on_c, 0, 52, 0
1, 280432, Note_on_c, 0, 60, 46
1, 280432, Note_on_c, 0, 67, 52
1, 280432, Note_on_c, 0, 57, 46
1, 280435, Note_on_c, 0, 45, 35
1, 280435, Note_on_c, 0, 48, 35
1, 280478, Control_c, 0, 64, 127
1, 281069, Note_on_c, 0, 57, 0
1, 281069, Note_on_c, 0, 67, 0
1, 281069, Note_on_c, 0, 60, 0
1, 281072, Note_on_c, 0, 48, 0
1, 281072, Note_on_c, 0, 45, 0
1, 281097, Note_on_c, 0, 65, 35
1, 281097, Note_on_c, 0, 60, 33
1, 281097, Note_on_c, 0, 57, 34
1, 281100, Note_on_c, 0, 48, 22
1, 281100, Note_on_c, 0, 45, 22
1, 281142, Control_c, 0, 64, 0
1, 281260, Note_on_c, 0, 57, 0
1, 281260, Note_on_c, 0, 60, 0
1, 281260, Note_on_c, 0, 65, 0
1, 281263, Note_on_c, 0, 45, 0
1, 281263, Note_on_c, 0, 48, 0
1, 281750, Note_on_c, 0, 55, 46
1, 281750, Note_on_c, 0, 60, 46
1, 281750, Note_on_c, 0, 65, 52
1, 281753, Note_on_c, 0, 48, 35
1, 281777, Control_c, 0, 64, 127
1, 282394, Note_on_c, 0, 65, 0
1, 282394, Note_on_c, 0, 60, 0
1, 282394, Note_on_c, 0, 55, 0
1, 282397, Note_on_c, 0, 48, 0
1, 282422, Note_on_c, 0, 60, 33
1, 282422, Note_on_c, 0, 55, 33
1, 282422, Note_on_c, 0, 64, 35
1, 282425, Note_on_c, 0, 48, 24
1, 282449, Control_c, 0, 64, 0
1, 282588, Note_on_c, 0, 64, 0
1, 282588, Note_on_c, 0, 55, 0
1, 282588, Note_on_c, 0, 60, 0
1, 282591, Note_on_c, 0, 48, 0
1, 283084, Note_on_c, 0, 57, 46
1, 283084, Note_on_c, 0, 53, 46
1, 283084, Note_on_c, 0, 64, 52
1, 283087, Note_on_c, 0, 38, 35
1, 283087, Note_on_c, 0, 50, 35
1, 283104, Control_c, 0, 64, 127
1, 283729, Note_on_c, 0, 64, 0
1, 283729, Note_on_c, 0, 53, 0
1, 283729, Note_on_c, 0, 57, 0
1, 283732, Note_on_c, 0, 50, 0
1, 283732, Note_on_c, 0, 38, 0
1, 283757, Note_on_c, 0, 57, 35
1, 283757, Note_on_c, 0, 62, 39
1, 283757, Note_on_c, 0, 53, 35
1, 283760, Note_on_c, 0, 38, 25
1, 283760, Note_on_c, 0, 50, 25
1, 283776, Control_c, 0, 64, 0
1, 283925, Note_on_c, 0, 53, 0
1, 283925, Note_on_c, 0, 62, 0
1, 283925, Note_on_c, 0, 57, 0
1, 283928, Note_on_c, 0, 50, 0
1, 283928, Note_on_c, 0, 38, 0
1, 284429, Note_on_c, 0, 52, 45
1, 284429, Note_on_c, 0, 62, 51
1, 284429, Note_on_c, 0, 57, 45
1, 284432, Note_on_c, 0, 40, 34
1, 284432, Note_on_c, 0, 45, 34
1, 284455, Control_c, 0, 64, 127
1, 285101, Note_on_c, 0, 57, 0
1, 285101, Note_on_c, 0, 62, 0
1, 285101, Note_on_c, 0, 52, 0
1, 285104, Note_on_c, 0, 40, 0
1, 285130, Note_on_c, 0, 57, 30
1, 285130, Note_on_c, 0, 60, 35
1, 285130, Note_on_c, 0, 52, 49
1, 285133, Note_on_c, 0, 40, 22
1, 285145, Note_on_c, 0, 45, 0
1, 285145, Control_c, 0, 64, 0
1, 285312, Note_on_c, 0, 60, 0
1, 285312, Note_on_c, 0, 57, 0
1, 285312, Note_on_c, 0, 40, 0
1, 285857, Note_on_c, 0, 51, 47
1, 285871, Note_on_c, 0, 52, 0
1, 286556, Note_on_c, 0, 52, 45
1, 286571, Note_on_c, 0, 51, 0
1, 286735, Note_on_c, 0, 52, 0
1, 288701, Note_on_c, 0, 57, 39
1, 288701, Note_on_c, 0, 59, 51
1, 288701, Note_on_c, 0, 40, 29
1, 288704, Note_on_c, 0, 47, 43
1, 288736, Control_c, 0, 64, 127
1, 289400, Note_on_c, 0, 59, 0
1, 289400, Note_on_c, 0, 57, 0
1, 289400, Note_on_c, 0, 40, 0
1, 289431, Note_on_c, 0, 59, 35
1, 289431, Note_on_c, 0, 56, 35
1, 289431, Note_on_c, 0, 40, 19
1, 289434, Note_on_c, 0, 52, 49
1, 289445, Control_c, 0, 64, 0
1, 289445, Note_on_c, 0, 47, 0
1, 289759, Note_on_c, 0, 56, 0
1, 289759, Note_on_c, 0, 59, 0
1, 289759, Note_on_c, 0, 40, 0
1, 290146, Note_on_c, 0, 51, 47
1, 290160, Note_on_c, 0, 52, 0
1, 290848, Note_on_c, 0, 52, 45
1, 290864, Note_on_c, 0, 51, 0
1, 291031, Note_on_c, 0, 52, 0
1, 293037, Note_on_c, 0, 60, 46
1, 293037, Note_on_c, 0, 41, 32
1, 293083, Control_c, 0, 64, 127
1, 293123, Note_on_c, 0, 41, 0
1, 293123, Note_on_c, 0, 48, 24
1, 293209, Note_on_c, 0, 48, 0
1, 293209, Note_on_c, 0, 41, 27
1, 293294, Note_on_c, 0, 41, 0
1, 293294, Note_on_c, 0, 48, 25
1, 293380, Note_on_c, 0, 48, 0
1, 293380, Note_on_c, 0, 41, 28
1, 293465, Note_on_c, 0, 41, 0
1, 293465, Note_on_c, 0, 48, 24
1, 293550, Note_on_c, 0, 48, 0
1, 293550, Note_on_c, 0, 41, 28
1, 293635, Note_on_c, 0, 41, 0
1, 293635, Note_on_c, 0, 48, 23
1, 293720, Note_on_c, 0, 57, 43
1, 293720, Note_on_c, 0, 69, 43
1, 293720, Note_on_c, 0, 48, 0
1, 293723, Note_on_c, 0, 41, 30
1, 293734, Note_on_c, 0, 60, 0
1, 293734, Control_c, 0, 64, 0
1, 293794, Control_c, 0, 64, 127
1, 293804, Note_on_c, 0, 41, 0
1, 293804, Note_on_c, 0, 48, 22
1, 293887, Note_on_c, 0, 48, 0
1, 293887, Note_on_c, 0, 41, 28
1, 293971, Note_on_c, 0, 41, 0
1, 293971, Note_on_c, 0, 48, 23
1, 294054, Note_on_c, 0, 48, 0
1, 294054, Note_on_c, 0, 41, 29
1, 294138, Note_on_c, 0, 41, 0
1, 294138, Note_on_c, 0, 48, 22
1, 294221, Note_on_c, 0, 48, 0
1, 294221, Note_on_c, 0, 41, 26
1, 294304, Note_on_c, 0, 41, 0
1, 294304, Note_on_c, 0, 48, 22
1, 294387, Note_on_c, 0, 56, 50
1, 294387, Note_on_c, 0, 68, 50
1, 294387, Note_on_c, 0, 48, 0
1, 294390, Note_on_c, 0, 41, 34
1, 294397, Control_c, 0, 64, 0
1, 294401, Note_on_c, 0, 69, 0
1, 294401, Note_on_c, 0, 57, 0
1, 294460, Control_c, 0, 64, 127
1, 294470, Note_on_c, 0, 41, 0
1, 294470, Note_on_c, 0, 48, 24
1, 294552, Note_on_c, 0, 48, 0
1, 294552, Note_on_c, 0, 41, 28
1, 294635, Note_on_c, 0, 41, 0
1, 294635, Note_on_c, 0, 48, 25
1, 294718, Note_on_c, 0, 48, 0
1, 294718, Note_on_c, 0, 41, 30
1, 294801, Note_on_c, 0, 41, 0
1, 294801, Note_on_c, 0, 48, 26
1, 294883, Note_on_c, 0, 48, 0
1, 294883, Note_on_c, 0, 41, 29
1, 294966, Note_on_c, 0, 41, 0
1, 294966, Note_on_c, 0, 48, 25
1, 295049, Note_on_c, 0, 57, 47
1, 295049, Note_on_c, 0, 69, 47
1, 295049, Note_on_c, 0, 48, 0
1, 295052, Note_on_c, 0, 41, 31
1, 295058, Control_c, 0, 64, 0
1, 295063, Note_on_c, 0, 56, 0
1, 295063, Note_on_c, 0, 68, 0
1, 295131, Note_on_c, 0, 41, 0
1, 295131, Control_c, 0, 64, 127
1, 295131, Note_on_c, 0, 48, 24
1, 295214, Note_on_c, 0, 48, 0
1, 295214, Note_on_c, 0, 41, 30
1, 295297, Note_on_c, 0, 41, 0
1, 295297, Note_on_c, 0, 48, 25
1, 295380, Note_on_c, 0, 48, 0
1, 295380, Note_on_c, 0, 41, 30
1, 295462, Note_on_c, 0, 41, 0
1, 295462, Note_on_c, 0, 48, 24
1, 295546, Note_on_c, 0, 48, 0
1, 295546, Note_on_c, 0, 41, 28
1, 295629, Note_on_c, 0, 41, 0
1, 295629, Note_on_c, 0, 48, 23
1, 295714, Note_on_c, 0, 57, 0
1, 295714, Note_on_c, 0, 69, 0
1, 295714, Note_on_c, 0, 58, 57
1, 295717, Note_on_c, 0, 70, 57
1, 295717, Note_on_c, 0, 48, 0
1, 295717, Note_on_c, 0, 41, 37
1, 295722, Control_c, 0, 64, 0
1, 295796, Note_on_c, 0, 41, 0
1, 295796, Note_on_c, 0, 48, 27
1, 295801, Control_c, 0, 64, 127
1, 295878, Note_on_c, 0, 48, 0
1, 295878, Note_on_c, 0, 41, 32
1, 295960, Note_on_c, 0, 41, 0
1, 295960, Note_on_c, 0, 48, 30
1, 296042, Note_on_c, 0, 48, 0
1, 296042, Note_on_c, 0, 41, 37
1, 296124, Note_on_c, 0, 41, 0
1, 296124, Note_on_c, 0, 48, 30
1, 296206, Note_on_c, 0, 48, 0
1, 296206, Note_on_c, 0, 41, 37
1, 296288, Note_on_c, 0, 41, 0
1, 296288, Note_on_c, 0, 48, 30
1, 296371, Note_on_c, 0, 57, 55
1, 296371, Note_on_c, 0, 69, 55
1, 296371, Note_on_c, 0, 48, 0
1, 296374, Note_on_c, 0, 41, 41
1, 296384, Note_on_c, 0, 70, 0
1, 296384, Note_on_c, 0, 58, 0
1, 296384, Control_c, 0, 64, 0
1, 296433, Control_c, 0, 64, 127
1, 296453, Note_on_c, 0, 41, 0
1, 296453, Note_on_c, 0, 48, 29
1, 296535, Note_on_c, 0, 48, 0
1, 296535, Note_on_c, 0, 41, 39
1, 296617, Note_on_c, 0, 41, 0
1, 296617, Note_on_c, 0, 48, 31
1, 296699, Note_on_c, 0, 48, 0
1, 296699, Note_on_c, 0, 41, 43
1, 296781, Note_on_c, 0, 41, 0
1, 296781, Note_on_c, 0, 48, 32
1, 296864, Note_on_c, 0, 48, 0
1, 296864, Note_on_c, 0, 41, 39
1, 296946, Note_on_c, 0, 41, 0
1, 296946, Note_on_c, 0, 48, 31
1, 297030, Note_on_c, 0, 57, 0
1, 297030, Note_on_c, 0, 69, 0
1, 297030, Note_on_c, 0, 62, 73
1, 297033, Note_on_c, 0, 74, 73
1, 297033, Note_on_c, 0, 48, 0
1, 297033, Note_on_c, 0, 41, 47
1, 297040, Control_c, 0, 64, 0
1, 297098, Control_c, 0, 64, 127
1, 297112, Note_on_c, 0, 41, 0
1, 297112, Note_on_c, 0, 48, 38
1, 297194, Note_on_c, 0, 48, 0
1, 297194, Note_on_c, 0, 41, 41
1, 297275, Note_on_c, 0, 41, 0
1, 297275, Note_on_c, 0, 48, 41
1, 297357, Note_on_c, 0, 48, 0
1, 297357, Note_on_c, 0, 41, 45
1, 297438, Note_on_c, 0, 41, 0
1, 297438, Note_on_c, 0, 48, 40
1, 297519, Note_on_c, 0, 48, 0
1, 297519, Note_on_c, 0, 41, 46
1, 297600, Note_on_c, 0, 41, 0
1, 297600, Note_on_c, 0, 48, 41
1, 297681, Note_on_c, 0, 60, 71
1, 297681, Note_on_c, 0, 72, 71
1, 297681, Note_on_c, 0, 48, 0
1, 297684, Note_on_c, 0, 41, 52
1, 297692, Control_c, 0, 64, 0
1, 297692, Note_on_c, 0, 74, 0
1, 297692, Note_on_c, 0, 62, 0
1, 297743, Control_c, 0, 64, 127
1, 297761, Note_on_c, 0, 41, 0
1, 297761, Note_on_c, 0, 48, 40
1, 297842, Note_on_c, 0, 48, 0
1, 297842, Note_on_c, 0, 41, 52
1, 297923, Note_on_c, 0, 41, 0
1, 297923, Note_on_c, 0, 48, 43
1, 298003, Note_on_c, 0, 48, 0
1, 298003, Note_on_c, 0, 41, 52
1, 298084, Note_on_c, 0, 41, 0
1, 298084, Note_on_c, 0, 48, 42
1, 298164, Note_on_c, 0, 48, 0
1, 298164, Note_on_c, 0, 41, 51
1, 298245, Note_on_c, 0, 41, 0
1, 298245, Note_on_c, 0, 48, 41
1, 298325, Note_on_c, 0, 60, 0
1, 298325, Note_on_c, 0, 72, 0
1, 298325, Note_on_c, 0, 67, 87
1, 298328, Note_on_c, 0, 79, 87
1, 298328, Note_on_c, 0, 48, 0
1, 298328, Note_on_c, 0, 41, 64
1, 298332, Control_c, 0, 64, 0
1, 298396, Control_c, 0, 64, 127
1, 298406, Note_on_c, 0, 41, 0
1, 298406, Note_on_c, 0, 48, 49
1, 298486, Note_on_c, 0, 48, 0
1, 298486, Note_on_c, 0, 41, 55
1, 298566, Note_on_c, 0, 41, 0
1, 298566, Note_on_c, 0, 48, 50
1, 298647, Note_on_c, 0, 48, 0
1, 298647, Note_on_c, 0, 41, 62
1, 298727, Note_on_c, 0, 41, 0
1, 298727, Note_on_c, 0, 48, 48
1, 298808, Note_on_c, 0, 48, 0
1, 298808, Note_on_c, 0, 41, 62
1, 298889, Note_on_c, 0, 41, 0
1, 298889, Note_on_c, 0, 48, 52
1, 298970, Note_on_c, 0, 65, 83
1, 298970, Note_on_c, 0, 77, 83
1, 298970, Note_on_c, 0, 48, 0
1, 298973, Note_on_c, 0, 41, 67
1, 298983, Note_on_c, 0, 79, 0
1, 298983, Note_on_c, 0, 67, 0
1, 298983, Control_c, 0, 64, 0
1, 299042, Control_c, 0, 64, 127
1, 299051, Note_on_c, 0, 41, 0
1, 299051, Note_on_c, 0, 48, 51
1, 299132, Note_on_c, 0, 48, 0
1, 299132, Note_on_c, 0, 41, 64
1, 299213, Note_on_c, 0, 41, 0
1, 299213, Note_on_c, 0, 48, 55
1, 299294, Note_on_c, 0, 48, 0
1, 299294, Note_on_c, 0, 41, 70
1, 299374, Note_on_c, 0, 41, 0
1, 299374, Note_on_c, 0, 48, 53
1, 299455, Note_on_c, 0, 48, 0
1, 299455, Note_on_c, 0, 41, 67
1, 299535, Note_on_c, 0, 41, 0
1, 299535, Note_on_c, 0, 48, 52
1, 299615, Note_on_c, 0, 65, 0
1, 299615, Note_on_c, 0, 77, 0
1, 299615, Note_on_c, 0, 70, 106
1, 299618, Note_on_c, 0, 82, 106
1, 299618, Note_on_c, 0, 48, 0
1, 299618, Note_on_c, 0, 41, 72
1, 299621, Control_c, 0, 64, 0
1, 299695, Note_on_c, 0, 41, 0
1, 299695, Note_on_c, 0, 48, 58
1, 299700, Control_c, 0, 64, 127
1, 299775, Note_on_c, 0, 48, 0
1, 299775, Note_on_c, 0, 41, 67
1, 299855, Note_on_c, 0, 41, 0
1, 299855, Note_on_c, 0, 48, 63
1, 299935, Note_on_c, 0, 48, 0
1, 299935, Note_on_c, 0, 41, 73
1, 300015, Note_on_c, 0, 41, 0
1, 300015, Note_on_c, 0, 48, 59
1, 300095, Note_on_c, 0, 48, 0
1, 300095, Note_on_c, 0, 41, 73
1, 300175, Note_on_c, 0, 41, 0
1, 300175, Note_on_c, 0, 48, 60
1, 300255, Note_on_c, 0, 69, 103
1, 300255, Note_on_c, 0, 81, 103
1, 300255, Note_on_c, 0, 48, 0
1, 300258, Note_on_c, 0, 41, 78
1, 300268, Note_on_c, 0, 82, 0
1, 300268, Note_on_c, 0, 70, 0
1, 300268, Control_c, 0, 64, 0
1, 300335, Note_on_c, 0, 41, 0
1, 300335, Note_on_c, 0, 48, 58
1, 300353, Control_c, 0, 64, 127
1, 300415, Note_on_c, 0, 48, 0
1, 300415, Note_on_c, 0, 41, 75
1, 300495, Note_on_c, 0, 41, 0
1, 300495, Note_on_c, 0, 48, 59
1, 300575, Note_on_c, 0, 48, 0
1, 300575, Note_on_c, 0, 41, 79
1, 300655, Note_on_c, 0, 41, 0
1, 300655, Note_on_c, 0, 48, 61
1, 300735, Note_on_c, 0, 48, 0
1, 300735, Note_on_c, 0, 41, 75
1, 300814, Note_on_c, 0, 41, 0
1, 300814, Note_on_c, 0, 48, 58
1, 300894, Note_on_c, 0, 69, 0
1, 300894, Note_on_c, 0, 81, 0
1, 300894, Note_on_c, 0, 86, 111
1, 300897, Note_on_c, 0, 81, 111
1, 300897, Note_on_c, 0, 77, 100
1, 300897, Note_on_c, 0, 74, 100
1, 300900, Note_on_c, 0, 48, 0
1, 300900, Note_on_c, 0, 41, 85
1, 300900, Note_on_c, 0, 45, 85
1, 300903, Note_on_c, 0, 50, 94
1, 300903, Note_on_c, 0, 53, 94
1, 300903, Control_c, 0, 64, 0
1, 301025, Control_c, 0, 64, 127
1, 301551, Note_on_c, 0, 74, 0
1, 301551, Note_on_c, 0, 86, 0
1, 301551, Note_on_c, 0, 81, 0
1, 301554, Note_on_c, 0, 77, 0
1, 301554, Note_on_c, 0, 69, 86
1, 301554, Note_on_c, 0, 81, 95
1, 301557, Note_on_c, 0, 53, 0
1, 301557, Note_on_c, 0, 41, 0
1, 301557, Note_on_c, 0, 45, 0
1, 301560, Note_on_c, 0, 50, 0
1, 301560, Note_on_c, 0, 45, 79
1, 301560, Note_on_c, 0, 57, 87
1, 301694, Note_on_c, 0, 81, 0
1, 301694, Note_on_c, 0, 69, 0
1, 301694, Note_on_c, 0, 57, 0
1, 301697, Note_on_c, 0, 45, 0
1, 301697, Control_c, 0, 64, 0
1, 302237, Note_on_c, 0, 88, 111
1, 302237, Note_on_c, 0, 85, 111
1, 302237, Note_on_c, 0, 81, 100
1, 302240, Note_on_c, 0, 76, 100
1, 302240, Note_on_c, 0, 40, 85
1, 302240, Note_on_c, 0, 45, 85
1, 302243, Note_on_c, 0, 49, 94
1, 302243, Note_on_c, 0, 52, 94
1, 302377, Control_c, 0, 64, 127
1, 302891, Note_on_c, 0, 76, 0
1, 302891, Note_on_c, 0, 88, 0
1, 302891, Note_on_c, 0, 85, 0
1, 302894, Note_on_c, 0, 81, 0
1, 302894, Note_on_c, 0, 69, 86
1, 302894, Note_on_c, 0, 81, 95
1, 302897, Note_on_c, 0, 52, 0
1, 302897, Note_on_c, 0, 40, 0
1, 302897, Note_on_c, 0, 45, 0
1, 302900, Note_on_c, 0, 49, 0
1, 302900, Note_on_c, 0, 45, 79
1, 302900, Note_on_c, 0, 57, 87
1, 303032, Note_on_c, 0, 81, 0
1, 303032, Note_on_c, 0, 69, 0
1, 303032, Note_on_c, 0, 57, 0
1, 303035, Note_on_c, 0, 45, 0
1, 303035, Control_c, 0, 64, 0
1, 303569, Note_on_c, 0, 89, 111
1, 303569, Note_on_c, 0, 86, 111
1, 303569, Note_on_c, 0, 81, 100
1, 303572, Note_on_c, 0, 77, 100
1, 303572, Note_on_c, 0, 38, 85
1, 303572, Note_on_c, 0, 41, 85
1, 303575, Note_on_c, 0, 45, 94
1, 303575, Note_on_c, 0, 50, 94
1, 303655, Control_c, 0, 64, 127
1, 304223, Note_on_c, 0, 77, 0
1, 304223, Note_on_c, 0, 89, 0
1, 304223, Note_on_c, 0, 86, 0
1, 304226, Note_on_c, 0, 81, 0
1, 304226, Note_on_c, 0, 69, 86
1, 304226, Note_on_c, 0, 81, 95
1, 304229, Note_on_c, 0, 50, 0
1, 304229, Note_on_c, 0, 38, 0
1, 304229, Note_on_c, 0, 41, 0
1, 304232, Note_on_c, 0, 45, 0
1, 304232, Note_on_c, 0, 45, 79
1, 304232, Note_on_c, 0, 57, 87
1, 304363, Note_on_c, 0, 81, 0
1, 304363, Note_on_c, 0, 69, 0
1, 304363, Note_on_c, 0, 57, 0
1, 304366, Note_on_c, 0, 45, 0
1, 304401, Control_c, 0, 64, 0
1, 304898, Note_on_c, 0, 88, 112
1, 304898, Note_on_c, 0, 85, 112
1, 304898, Note_on_c, 0, 81, 101
1, 304901, Note_on_c, 0, 76, 101
1, 304901, Note_on_c, 0, 40, 85
1, 304901, Note_on_c, 0, 45, 85
1, 304904, Note_on_c, 0, 49, 94
1, 304904, Note_on_c, 0, 52, 94
1, 304985, Control_c, 0, 64, 127
1, 305551, Note_on_c, 0, 76, 0
1, 305551, Note_on_c, 0, 88, 0
1, 305551, Note_on_c, 0, 85, 0
1, 305554, Note_on_c, 0, 81, 0
1, 305554, Note_on_c, 0, 69, 86
1, 305554, Note_on_c, 0, 81, 95
1, 305557, Note_on_c, 0, 52, 0
1, 305557, Note_on_c, 0, 40, 0
1, 305557, Note_on_c, 0, 45, 0
1, 305560, Note_on_c, 0, 49, 0
1, 305560, Note_on_c, 0, 45, 79
1, 305560, Note_on_c, 0, 57, 87
1, 305690, Control_c, 0, 64, 0
1, 305690, Note_on_c, 0, 81, 0
1, 305690, Note_on_c, 0, 69, 0
1, 305690, Note_on_c, 0, 57, 0
1, 305690, Note_on_c, 0, 45, 0
1, 305888, Note_on_c, 0, 69, 95
1, 305888, Note_on_c, 0, 57, 95
1, 305916, Control_c, 0, 64, 127
1, 306057, Note_on_c, 0, 57, 0
1, 306057, Note_on_c, 0, 69, 0
1, 306141, Note_on_c, 0, 67, 83
1, 306141, Note_on_c, 0, 55, 83
1, 306183, Note_on_c, 0, 55, 0
1, 306183, Note_on_c, 0, 67, 0
1, 306206, Control_c, 0, 64, 0
1, 306226, Note_on_c, 0, 86, 111
1, 306226, Note_on_c, 0, 81, 111
1, 306226, Note_on_c, 0, 77, 100
1, 306229, Note_on_c, 0, 74, 100
1, 306229, Note_on_c, 0, 65, 97
1, 306229, Note_on_c, 0, 53, 97
1, 306284, Control_c, 0, 64, 127
1, 306349, Note_on_c, 0, 53, 0
1, 306349, Note_on_c, 0, 65, 0
1, 306472, Note_on_c, 0, 64, 82
1, 306472, Note_on_c, 0, 52, 82
1, 306513, Note_on_c, 0, 52, 0
1, 306513, Note_on_c, 0, 64, 0
1, 306554, Note_on_c, 0, 50, 88
1, 306554, Note_on_c, 0, 62, 88
1, 306566, Control_c, 0, 64, 0
1, 306618, Control_c, 0, 64, 127
1, 306677, Note_on_c, 0, 62, 0
1, 306677, Note_on_c, 0, 50, 0
1, 306800, Note_on_c, 0, 49, 82
1, 306800, Note_on_c, 0, 61, 82
1, 306841, Note_on_c, 0, 61, 0
1, 306841, Note_on_c, 0, 49, 0
1, 306882, Note_on_c, 0, 74, 0
1, 306882, Note_on_c, 0, 86, 0
1, 306882, Note_on_c, 0, 81, 0
1, 306885, Note_on_c, 0, 77, 0
1, 306885, Note_on_c, 0, 69, 93
1, 306885, Note_on_c, 0, 81, 103
1, 306888, Note_on_c, 0, 50, 88
1, 306888, Note_on_c, 0, 62, 88
1, 306896, Control_c, 0, 64, 0
1, 306944, Control_c, 0, 64, 127
1, 307005, Note_on_c, 0, 62, 0
1, 307005, Note_on_c, 0, 50, 0
1, 307019, Note_on_c, 0, 81, 0
1, 307019, Note_on_c, 0, 69, 0
1, 307130, Note_on_c, 0, 48, 80
1, 307130, Note_on_c, 0, 60, 80
1, 307172, Note_on_c, 0, 60, 0
1, 307172, Note_on_c, 0, 48, 0
1, 307214, Note_on_c, 0, 46, 89
1, 307214, Note_on_c, 0, 58, 89
1, 307214, Control_c, 0, 64, 0
1, 307341, Note_on_c, 0, 58, 0
1, 307341, Note_on_c, 0, 46, 0
1, 307470, Note_on_c, 0, 45, 85
1, 307470, Note_on_c, 0, 57, 85
1, 307515, Note_on_c, 0, 57, 0
1, 307515, Note_on_c, 0, 45, 0
1, 307558, Note_on_c, 0, 88, 114
1, 307558, Note_on_c, 0, 85, 114
1, 307558, Note_on_c, 0, 81, 103
1, 307561, Note_on_c, 0, 76, 103
1, 307561, Note_on_c, 0, 43, 83
1, 307561, Note_on_c, 0, 55, 83
1, 307624, Control_c, 0, 64, 127
1, 307680, Note_on_c, 0, 55, 0
1, 307680, Note_on_c, 0, 43, 0
1, 307803, Note_on_c, 0, 41, 79
1, 307803, Note_on_c, 0, 53, 79
1, 307844, Note_on_c, 0, 53, 0
1, 307844, Note_on_c, 0, 41, 0
1, 307885, Note_on_c, 0, 40, 84
1, 307885, Note_on_c, 0, 52, 84
1, 307892, Control_c, 0, 64, 0
1, 307908, Control_c, 0, 64, 127
1, 308008, Note_on_c, 0, 52, 0
1, 308008, Note_on_c, 0, 40, 0
1, 308130, Note_on_c, 0, 38, 78
1, 308130, Note_on_c, 0, 50, 78
1, 308171, Note_on_c, 0, 50, 0
1, 308171, Note_on_c, 0, 38, 0
1, 308212, Note_on_c, 0, 76, 0
1, 308212, Note_on_c, 0, 88, 0
1, 308212, Note_on_c, 0, 85, 0
1, 308215, Note_on_c, 0, 81, 0
1, 308215, Note_on_c, 0, 69, 94
1, 308215, Note_on_c, 0, 81, 104
1, 308218, Note_on_c, 0, 37, 90
1, 308218, Note_on_c, 0, 49, 90
1, 308226, Control_c, 0, 64, 0
1, 308265, Control_c, 0, 64, 127
1, 308294, Note_on_c, 0, 81, 0
1, 308294, Note_on_c, 0, 69, 0
1, 308335, Note_on_c, 0, 49, 0
1, 308335, Note_on_c, 0, 37, 0
1, 308457, Note_on_c, 0, 34, 84
1, 308457, Note_on_c, 0, 46, 84
1, 308498, Note_on_c, 0, 46, 0
1, 308498, Note_on_c, 0, 34, 0
1, 308539, Note_on_c, 0, 33, 94
1, 308539, Note_on_c, 0, 45, 94
1, 308553, Control_c, 0, 64, 0
1, 308662, Note_on_c, 0, 45, 0
1, 308662, Note_on_c, 0, 33, 0
1, 308790, Note_on_c, 0, 31, 83
1, 308790, Note_on_c, 0, 43, 83
1, 308833, Note_on_c, 0, 43, 0
1, 308833, Note_on_c, 0, 31, 0
1, 308876, Note_on_c, 0, 89, 111
1, 308876, Note_on_c, 0, 86, 111
1, 308876, Note_on_c, 0, 81, 100
1, 308879, Note_on_c, 0, 77, 100
1, 308879, Note_on_c, 0, 29, 94
1, 308879, Note_on_c, 0, 41, 94
1, 308968, Control_c, 0, 64, 127
1, 309107, Note_on_c, 0, 41, 0
1, 309107, Note_on_c, 0, 29, 0
1, 309136, Note_on_c, 0, 67, 79
1, 309136, Note_on_c, 0, 55, 79
1, 309177, Note_on_c, 0, 55, 0
1, 309177, Note_on_c, 0, 67, 0
1, 309218, Note_on_c, 0, 65, 86
1, 309218, Note_on_c, 0, 53, 86
1, 309230, Control_c, 0, 64, 0
1, 309276, Control_c, 0, 64, 127
1, 309341, Note_on_c, 0, 53, 0
1, 309341, Note_on_c, 0, 65, 0
1, 309464, Note_on_c, 0, 64, 76
1, 309464, Note_on_c, 0, 52, 76
1, 309504, Note_on_c, 0, 52, 0
1, 309504, Note_on_c, 0, 64, 0
1, 309545, Note_on_c, 0, 77, 0
1, 309545, Note_on_c, 0, 89, 0
1, 309545, Note_on_c, 0, 86, 0
1, 309548, Note_on_c, 0, 81, 0
1, 309548, Note_on_c, 0, 69, 92
1, 309548, Note_on_c, 0, 81, 102
1, 309551, Note_on_c, 0, 50, 87
1, 309551, Note_on_c, 0, 62, 87
1, 309555, Control_c, 0, 64, 0
1, 309587, Control_c, 0, 64, 127
1, 309628, Note_on_c, 0, 81, 0
1, 309628, Note_on_c, 0, 69, 0
1, 309669, Note_on_c, 0, 62, 0
1, 309669, Note_on_c, 0, 50, 0
1, 309793, Note_on_c, 0, 48, 75
1, 309793, Note_on_c, 0, 60, 75
1, 309835, Note_on_c, 0, 60, 0
1, 309835, Note_on_c, 0, 48, 0
1, 309876, Note_on_c, 0, 46, 86
1, 309876, Note_on_c, 0, 58, 86
1, 309903, Control_c, 0, 64, 0
1, 309942, Control_c, 0, 64, 127
1, 310002, Note_on_c, 0, 58, 0
1, 310002, Note_on_c, 0, 46, 0
1, 310127, Note_on_c, 0, 45, 77
1, 310127, Note_on_c, 0, 57, 77
1, 310169, Note_on_c, 0, 57, 0
1, 310169, Note_on_c, 0, 45, 0
1, 310212, Note_on_c, 0, 88, 114
1, 310212, Note_on_c, 0, 85, 114
1, 310212, Note_on_c, 0, 81, 103
1, 310215, Note_on_c, 0, 76, 103
1, 310215, Note_on_c, 0, 43, 84
1, 310215, Note_on_c, 0, 55, 84
1, 310224, Control_c, 0, 64, 0
1, 310271, Control_c, 0, 64, 127
1, 310335, Note_on_c, 0, 55, 0
1, 310335, Note_on_c, 0, 43, 0
1, 310457, Note_on_c, 0, 41, 77
1, 310457, Note_on_c, 0, 53, 77
1, 310498, Note_on_c, 0, 53, 0
1, 310498, Note_on_c, 0, 41, 0
1, 310539, Note_on_c, 0, 40, 83
1, 310539, Note_on_c, 0, 52, 83
1, 310549, Control_c, 0, 64, 0
1, 310577, Control_c, 0, 64, 127
1, 310661, Note_on_c, 0, 52, 0
1, 310661, Note_on_c, 0, 40, 0
1, 310783, Note_on_c, 0, 38, 77
1, 310783, Note_on_c, 0, 50, 77
1, 310824, Note_on_c, 0, 50, 0
1, 310824, Note_on_c, 0, 38, 0
1, 310865, Note_on_c, 0, 76, 0
1, 310865, Note_on_c, 0, 88, 0
1, 310865, Note_on_c, 0, 85, 0
1, 310868, Note_on_c, 0, 81, 0
1, 310868, Note_on_c, 0, 69, 93
1, 310868, Note_on_c, 0, 81, 103
1, 310871, Note_on_c, 0, 37, 88
1, 310871, Note_on_c, 0, 49, 88
1, 310875, Control_c, 0, 64, 0
1, 310922, Control_c, 0, 64, 127
1, 310947, Note_on_c, 0, 81, 0
1, 310947, Note_on_c, 0, 69, 0
1, 310989, Note_on_c, 0, 49, 0
1, 310989, Note_on_c, 0, 37, 0
1, 311114, Note_on_c, 0, 34, 82
1, 311114, Note_on_c, 0, 46, 82
1, 311156, Note_on_c, 0, 46, 0
1, 311156, Note_on_c, 0, 34, 0
1, 311198, Note_on_c, 0, 33, 91
1, 311198, Note_on_c, 0, 45, 91
1, 311214, Control_c, 0, 64, 0
1, 311324, Note_on_c, 0, 45, 0
1, 311324, Note_on_c, 0, 33, 0
1, 311452, Note_on_c, 0, 31, 80
1, 311456, Note_on_c, 0, 43, 80
1, 311495, Note_on_c, 0, 31, 0
1, 311499, Note_on_c, 0, 43, 0
1, 311538, Note_on_c, 0, 89, 115
1, 311538, Note_on_c, 0, 84, 115
1, 311538, Note_on_c, 0, 81, 104
1, 311541, Note_on_c, 0, 77, 104
1, 311541, Note_on_c, 0, 29, 94
1, 311541, Note_on_c, 0, 41, 94
1, 311631, Control_c, 0, 64, 127
1, 311772, Note_on_c, 0, 41, 0
1, 311772, Note_on_c, 0, 29, 0
1, 311801, Note_on_c, 0, 67, 81
1, 311801, Note_on_c, 0, 55, 81
1, 311842, Note_on_c, 0, 55, 0
1, 311842, Note_on_c, 0, 67, 0
1, 311883, Note_on_c, 0, 65, 88
1, 311883, Note_on_c, 0, 53, 88
1, 311894, Control_c, 0, 64, 0
1, 311934, Control_c, 0, 64, 127
1, 312007, Note_on_c, 0, 53, 0
1, 312007, Note_on_c, 0, 65, 0
1, 312130, Note_on_c, 0, 64, 81
1, 312130, Note_on_c, 0, 52, 81
1, 312171, Note_on_c, 0, 52, 0
1, 312171, Note_on_c, 0, 64, 0
1, 312212, Note_on_c, 0, 77, 0
1, 312212, Note_on_c, 0, 89, 0
1, 312212, Note_on_c, 0, 84, 0
1, 312215, Note_on_c, 0, 81, 0
1, 312215, Note_on_c, 0, 72, 92
1, 312215, Note_on_c, 0, 84, 102
1, 312218, Note_on_c, 0, 53, 87
1, 312218, Note_on_c, 0, 65, 87
1, 312225, Control_c, 0, 64, 0
1, 312257, Control_c, 0, 64, 127
1, 312293, Note_on_c, 0, 84, 0
1, 312293, Note_on_c, 0, 72, 0
1, 312334, Note_on_c, 0, 65, 0
1, 312334, Note_on_c, 0, 53, 0
1, 312457, Note_on_c, 0, 52, 79
1, 312457, Note_on_c, 0, 64, 79
1, 312499, Note_on_c, 0, 64, 0
1, 312499, Note_on_c, 0, 52, 0
1, 312540, Note_on_c, 0, 50, 86
1, 312540, Note_on_c, 0, 62, 86
1, 312557, Control_c, 0, 64, 0
1, 312663, Note_on_c, 0, 62, 0
1, 312663, Note_on_c, 0, 50, 0
1, 312787, Note_on_c, 0, 48, 79
1, 312787, Note_on_c, 0, 60, 79
1, 312829, Note_on_c, 0, 60, 0
1, 312829, Note_on_c, 0, 48, 0
1, 312871, Note_on_c, 0, 91, 110
1, 312871, Note_on_c, 0, 88, 110
1, 312871, Note_on_c, 0, 84, 100
1, 312874, Note_on_c, 0, 79, 100
1, 312874, Note_on_c, 0, 46, 88
1, 312874, Note_on_c, 0, 58, 88
1, 312916, Control_c, 0, 64, 127
1, 312994, Note_on_c, 0, 58, 0
1, 312994, Note_on_c, 0, 46, 0
1, 313117, Note_on_c, 0, 45, 76
1, 313117, Note_on_c, 0, 57, 76
1, 313158, Note_on_c, 0, 57, 0
1, 313158, Note_on_c, 0, 45, 0
1, 313198, Note_on_c, 0, 43, 82
1, 313198, Note_on_c, 0, 55, 82
1, 313212, Control_c, 0, 64, 0
1, 313255, Control_c, 0, 64, 127
1, 313321, Note_on_c, 0, 55, 0
1, 313321, Note_on_c, 0, 43, 0
1, 313444, Note_on_c, 0, 41, 78
1, 313444, Note_on_c, 0, 53, 78
1, 313485, Note_on_c, 0, 53, 0
1, 313485, Note_on_c, 0, 41, 0
1, 313526, Note_on_c, 0, 79, 0
1, 313526, Note_on_c, 0, 91, 0
1, 313526, Note_on_c, 0, 88, 0
1, 313529, Note_on_c, 0, 84, 0
1, 313529, Note_on_c, 0, 72, 86
1, 313529, Note_on_c, 0, 84, 95
1, 313532, Note_on_c, 0, 40, 84
1, 313532, Note_on_c, 0, 52, 84
1, 313537, Control_c, 0, 64, 0
1, 313588, Control_c, 0, 64, 127
1, 313607, Note_on_c, 0, 84, 0
1, 313607, Note_on_c, 0, 72, 0
1, 313648, Note_on_c, 0, 52, 0
1, 313648, Note_on_c, 0, 40, 0
1, 313771, Note_on_c, 0, 38, 79
1, 313771, Note_on_c, 0, 50, 79
1, 313812, Note_on_c, 0, 50, 0
1, 313812, Note_on_c, 0, 38, 0
1, 313854, Note_on_c, 0, 36, 89
1, 313854, Note_on_c, 0, 48, 89
1, 313869, Control_c, 0, 64, 0
1, 313977, Note_on_c, 0, 48, 0
1, 313977, Note_on_c, 0, 36, 0
1, 314101, Note_on_c, 0, 34, 81
1, 314101, Note_on_c, 0, 46, 81
1, 314143, Note_on_c, 0, 46, 0
1, 314143, Note_on_c, 0, 34, 0
1, 314185, Note_on_c, 0, 93, 110
1, 314185, Note_on_c, 0, 89, 110
1, 314185, Note_on_c, 0, 84, 100
1, 314188, Note_on_c, 0, 81, 100
1, 314188, Note_on_c, 0, 33, 95
1, 314188, Note_on_c, 0, 45, 95
1, 314272, Control_c, 0, 64, 127
1, 314416, Note_on_c, 0, 45, 0
1, 314416, Note_on_c, 0, 33, 0
1, 314445, Note_on_c, 0, 58, 83
1, 314445, Note_on_c, 0, 70, 83
1, 314486, Note_on_c, 0, 70, 0
1, 314486, Note_on_c, 0, 58, 0
1, 314527, Note_on_c, 0, 57, 90
1, 314527, Note_on_c, 0, 69, 90
1, 314650, Note_on_c, 0, 69, 0
1, 314650, Note_on_c, 0, 57, 0
1, 314772, Note_on_c, 0, 55, 81
1, 314772, Note_on_c, 0, 67, 81
1, 314813, Note_on_c, 0, 67, 0
1, 314813, Note_on_c, 0, 55, 0
1, 314854, Note_on_c, 0, 81, 0
1, 314854, Note_on_c, 0, 93, 0
1, 314854, Note_on_c, 0, 89, 0
1, 314857, Note_on_c, 0, 84, 0
1, 314857, Note_on_c, 0, 72, 86
1, 314857, Note_on_c, 0, 84, 95
1, 314860, Note_on_c, 0, 65, 86
1, 314860, Note_on_c, 0, 53, 86
1, 314866, Control_c, 0, 64, 0
1, 314903, Control_c, 0, 64, 127
1, 314937, Note_on_c, 0, 84, 0
1, 314937, Note_on_c, 0, 72, 0
1, 314979, Note_on_c, 0, 53, 0
1, 314979, Note_on_c, 0, 65, 0
1, 315104, Note_on_c, 0, 64, 82
1, 315104, Note_on_c, 0, 52, 82
1, 315146, Note_on_c, 0, 52, 0
1, 315146, Note_on_c, 0, 64, 0
1, 315188, Note_on_c, 0, 50, 92
1, 315188, Note_on_c, 0, 62, 92
1, 315200, Control_c, 0, 64, 0
1, 315314, Note_on_c, 0, 62, 0
1, 315314, Note_on_c, 0, 50, 0
1, 315441, Note_on_c, 0, 48, 79
1, 315441, Note_on_c, 0, 60, 79
1, 315483, Note_on_c, 0, 60, 0
1, 315483, Note_on_c, 0, 48, 0
1, 315525, Note_on_c, 0, 91, 106
1, 315525, Note_on_c, 0, 88, 106
1, 315525, Note_on_c, 0, 84, 96
1, 315528, Note_on_c, 0, 79, 96
1, 315528, Note_on_c, 0, 46, 95
1, 315528, Note_on_c, 0, 58, 95
1, 315588, Control_c, 0, 64, 127
1, 315649, Note_on_c, 0, 58, 0
1, 315649, Note_on_c, 0, 46, 0
1, 315771, Note_on_c, 0, 45, 79
1, 315771, Note_on_c, 0, 57, 79
1, 315812, Note_on_c, 0, 57, 0
1, 315812, Note_on_c, 0, 45, 0
1, 315852, Note_on_c, 0, 43, 90
1, 315852, Note_on_c, 0, 55, 90
1, 315865, Control_c, 0, 64, 0
1, 315887, Control_c, 0, 64, 127
1, 315975, Note_on_c, 0, 55, 0
1, 315975, Note_on_c, 0, 43, 0
1, 316097, Note_on_c, 0, 41, 80
1, 316097, Note_on_c, 0, 53, 80
1, 316138, Note_on_c, 0, 53, 0
1, 316138, Note_on_c, 0, 41, 0
1, 316179, Note_on_c, 0, 79, 0
1, 316179, Note_on_c, 0, 91, 0
1, 316179, Note_on_c, 0, 88, 0
1, 316182, Note_on_c, 0, 84, 0
1, 316182, Note_on_c, 0, 72, 86
1, 316182, Note_on_c, 0, 84, 95
1, 316185, Note_on_c, 0, 40, 93
1, 316185, Note_on_c, 0, 52, 93
1, 316192, Control_c, 0, 64, 0
1, 316228, Control_c, 0, 64, 127
1, 316261, Note_on_c, 0, 84, 0
1, 316261, Note_on_c, 0, 72, 0
1, 316303, Note_on_c, 0, 52, 0
1, 316303, Note_on_c, 0, 40, 0
1, 316428, Note_on_c, 0, 38, 83
1, 316428, Note_on_c, 0, 50, 83
1, 316471, Note_on_c, 0, 50, 0
1, 316471, Note_on_c, 0, 38, 0
1, 316513, Note_on_c, 0, 36, 94
1, 316513, Note_on_c, 0, 48, 94
1, 316525, Control_c, 0, 64, 0
1, 316642, Note_on_c, 0, 48, 0
1, 316642, Note_on_c, 0, 36, 0
1, 316777, Note_on_c, 0, 34, 94
1, 316777, Note_on_c, 0, 46, 94
1, 316822, Note_on_c, 0, 46, 0
1, 316822, Note_on_c, 0, 34, 0
1, 316868, Note_on_c, 0, 93, 107
1, 316868, Note_on_c, 0, 89, 107
1, 316868, Note_on_c, 0, 84, 97
1, 316871, Note_on_c, 0, 81, 97
1, 316871, Note_on_c, 0, 33, 88
1, 316871, Note_on_c, 0, 36, 88
1, 316874, Note_on_c, 0, 41, 97
1, 316874, Note_on_c, 0, 45, 97
1, 316933, Control_c, 0, 64, 127
1, 317087, Note_on_c, 0, 81, 0
1, 317087, Note_on_c, 0, 93, 0
1, 317087, Note_on_c, 0, 89, 0
1, 317090, Note_on_c, 0, 84, 0
1, 317114, Note_on_c, 0, 89, 80
1, 317114, Note_on_c, 0, 84, 80
1, 317114, Note_on_c, 0, 81, 73
1, 317117, Note_on_c, 0, 77, 73
1, 317169, Note_on_c, 0, 77, 0
1, 317169, Note_on_c, 0, 89, 0
1, 317169, Note_on_c, 0, 84, 0
1, 317172, Note_on_c, 0, 81, 0
1, 317197, Note_on_c, 0, 89, 88
1, 317197, Note_on_c, 0, 84, 88
1, 317197, Note_on_c, 0, 81, 80
1, 317200, Note_on_c, 0, 77, 80
1, 317415, Note_on_c, 0, 77, 0
1, 317415, Note_on_c, 0, 89, 0
1, 317415, Note_on_c, 0, 84, 0
1, 317418, Note_on_c, 0, 81, 0
1, 317443, Note_on_c, 0, 84, 80
1, 317443, Note_on_c, 0, 81, 80
1, 317443, Note_on_c, 0, 77, 73
1, 317446, Note_on_c, 0, 72, 73
1, 317498, Note_on_c, 0, 72, 0
1, 317498, Note_on_c, 0, 84, 0
1, 317498, Note_on_c, 0, 81, 0
1, 317501, Note_on_c, 0, 77, 0
1, 317525, Note_on_c, 0, 84, 88
1, 317525, Note_on_c, 0, 81, 88
1, 317525, Note_on_c, 0, 77, 80
1, 317528, Note_on_c, 0, 72, 80
1, 317528, Note_on_c, 0, 45, 0
1, 317528, Note_on_c, 0, 33, 0
1, 317531, Note_on_c, 0, 36, 0
1, 317531, Note_on_c, 0, 41, 0
1, 317531, Note_on_c, 0, 53, 68
1, 317534, Note_on_c, 0, 57, 68
1, 317534, Note_on_c, 0, 48, 62
1, 317534, Note_on_c, 0, 45, 62
1, 317539, Control_c, 0, 64, 0
1, 317590, Control_c, 0, 64, 127
1, 317607, Note_on_c, 0, 45, 0
1, 317607, Note_on_c, 0, 53, 0
1, 317607, Note_on_c, 0, 57, 0
1, 317610, Note_on_c, 0, 48, 0
1, 317745, Note_on_c, 0, 72, 0
1, 317745, Note_on_c, 0, 84, 0
1, 317745, Note_on_c, 0, 81, 0
1, 317748, Note_on_c, 0, 77, 0
1, 317772, Note_on_c, 0, 81, 80
1, 317772, Note_on_c, 0, 77, 80
1, 317772, Note_on_c, 0, 72, 73
1, 317775, Note_on_c, 0, 69, 73
1, 317799, Control_c, 0, 64, 0
1, 317828, Note_on_c, 0, 69, 0
1, 317828, Note_on_c, 0, 81, 0
1, 317828, Note_on_c, 0, 77, 0
1, 317831, Note_on_c, 0, 72, 0
1, 317855, Note_on_c, 0, 69, 80
1, 317855, Note_on_c, 0, 72, 80
1, 317855, Note_on_c, 0, 77, 88
1, 317858, Note_on_c, 0, 81, 88
1, 317923, Note_on_c, 0, 81, 0
1, 317923, Note_on_c, 0, 69, 0
1, 317923, Note_on_c, 0, 72, 0
1, 317926, Note_on_c, 0, 77, 0
1, 318035, Note_on_c, 0, 65, 73
1, 318035, Note_on_c, 0, 69, 73
1, 318035, Note_on_c, 0, 72, 80
1, 318038, Note_on_c, 0, 77, 80
1, 318107, Note_on_c, 0, 77, 0
1, 318107, Note_on_c, 0, 65, 0
1, 318107, Note_on_c, 0, 69, 0
1, 318110, Note_on_c, 0, 72, 0
1, 318228, Note_on_c, 0, 93, 109
1, 318228, Note_on_c, 0, 89, 109
1, 318228, Note_on_c, 0, 84, 99
1, 318231, Note_on_c, 0, 81, 99
1, 318231, Note_on_c, 0, 33, 70
1, 318231, Note_on_c, 0, 36, 77
1, 318234, Note_on_c, 0, 41, 77
1, 318234, Note_on_c, 0, 29, 70
1, 318281, Control_c, 0, 64, 127
1, 318446, Note_on_c, 0, 81, 0
1, 318446, Note_on_c, 0, 93, 0
1, 318446, Note_on_c, 0, 89, 0
1, 318449, Note_on_c, 0, 84, 0
1, 318474, Note_on_c, 0, 89, 80
1, 318474, Note_on_c, 0, 84, 80
1, 318474, Note_on_c, 0, 81, 73
1, 318477, Note_on_c, 0, 77, 73
1, 318529, Note_on_c, 0, 77, 0
1, 318529, Note_on_c, 0, 89, 0
1, 318529, Note_on_c, 0, 84, 0
1, 318532, Note_on_c, 0, 81, 0
1, 318556, Note_on_c, 0, 89, 88
1, 318556, Note_on_c, 0, 84, 88
1, 318556, Note_on_c, 0, 81, 80
1, 318559, Note_on_c, 0, 77, 80
1, 318775, Note_on_c, 0, 77, 0
1, 318775, Note_on_c, 0, 89, 0
1, 318775, Note_on_c, 0, 84, 0
1, 318778, Note_on_c, 0, 81, 0
1, 318802, Note_on_c, 0, 84, 80
1, 318802, Note_on_c, 0, 81, 80
1, 318802, Note_on_c, 0, 77, 73
1, 318805, Note_on_c, 0, 72, 73
1, 318857, Note_on_c, 0, 72, 0
1, 318857, Note_on_c, 0, 84, 0
1, 318857, Note_on_c, 0, 81, 0
1, 318860, Note_on_c, 0, 77, 0
1, 318884, Note_on_c, 0, 84, 88
1, 318884, Note_on_c, 0, 81, 88
1, 318884, Note_on_c, 0, 77, 80
1, 318887, Note_on_c, 0, 72, 80
1, 318887, Note_on_c, 0, 29, 0
1, 318887, Note_on_c, 0, 33, 0
1, 318890, Note_on_c, 0, 36, 0
1, 318890, Note_on_c, 0, 41, 0
1, 318890, Note_on_c, 0, 45, 62
1, 318893, Note_on_c, 0, 48, 68
1, 318893, Note_on_c, 0, 53, 68
1, 318893, Note_on_c, 0, 41, 62
1, 318893, Control_c, 0, 64, 0
1, 318935, Control_c, 0, 64, 127
1, 318967, Note_on_c, 0, 41, 0
1, 318967, Note_on_c, 0, 45, 0
1, 318967, Note_on_c, 0, 48, 0
1, 318970, Note_on_c, 0, 53, 0
1, 319106, Note_on_c, 0, 72, 0
1, 319106, Note_on_c, 0, 84, 0
1, 319106, Note_on_c, 0, 81, 0
1, 319109, Note_on_c, 0, 77, 0
1, 319134, Note_on_c, 0, 81, 80
1, 319134, Note_on_c, 0, 77, 80
1, 319134, Note_on_c, 0, 72, 73
1, 319137, Note_on_c, 0, 69, 73
1, 319184, Control_c, 0, 64, 0
1, 319190, Note_on_c, 0, 69, 0
1, 319190, Note_on_c, 0, 81, 0
1, 319190, Note_on_c, 0, 77, 0
1, 319193, Note_on_c, 0, 72, 0
1, 319218, Note_on_c, 0, 69, 80
1, 319218, Note_on_c, 0, 72, 80
1, 319218, Note_on_c, 0, 77, 88
1, 319221, Note_on_c, 0, 81, 88
1, 319287, Note_on_c, 0, 81, 0
1, 319287, Note_on_c, 0, 69, 0
1, 319287, Note_on_c, 0, 72, 0
1, 319290, Note_on_c, 0, 77, 0
1, 319402, Note_on_c, 0, 65, 73
1, 319402, Note_on_c, 0, 69, 73
1, 319402, Note_on_c, 0, 72, 80
1, 319405, Note_on_c, 0, 77, 80
1, 319477, Note_on_c, 0, 77, 0
1, 319477, Note_on_c, 0, 65, 0
1, 319477, Note_on_c, 0, 69, 0
1, 319480, Note_on_c, 0, 72, 0
1, 319603, Note_on_c, 0, 93, 102
1, 319603, Note_on_c, 0, 88, 102
1, 319603, Note_on_c, 0, 85, 92
1, 319606, Note_on_c, 0, 81, 92
1, 319606, Note_on_c, 0, 33, 80
1, 319606, Note_on_c, 0, 45, 88
1, 319663, Control_c, 0, 64, 127
1, 319827, Note_on_c, 0, 81, 0
1, 319827, Note_on_c, 0, 93, 0
1, 319827, Note_on_c, 0, 88, 0
1, 319830, Note_on_c, 0, 85, 0
1, 319830, Note_on_c, 0, 45, 0
1, 319830, Note_on_c, 0, 33, 0
1, 319855, Note_on_c, 0, 93, 80
1, 319855, Note_on_c, 0, 88, 80
1, 319855, Note_on_c, 0, 85, 80
1, 319858, Note_on_c, 0, 81, 73
1, 319858, Note_on_c, 0, 37, 73
1, 319858, Note_on_c, 0, 49, 80
1, 319911, Note_on_c, 0, 81, 0
1, 319911, Note_on_c, 0, 93, 0
1, 319911, Note_on_c, 0, 88, 0
1, 319914, Note_on_c, 0, 85, 0
1, 319914, Note_on_c, 0, 49, 0
1, 319914, Note_on_c, 0, 37, 0
1, 319939, Note_on_c, 0, 93, 93
1, 319939, Note_on_c, 0, 88, 93
1, 319939, Note_on_c, 0, 85, 84
1, 319942, Note_on_c, 0, 81, 84
1, 319942, Note_on_c, 0, 37, 80
1, 319942, Note_on_c, 0, 49, 88
1, 320162, Note_on_c, 0, 81, 0
1, 320162, Note_on_c, 0, 93, 0
1, 320162, Note_on_c, 0, 88, 0
1, 320165, Note_on_c, 0, 85, 0
1, 320165, Note_on_c, 0, 49, 0
1, 320165, Note_on_c, 0, 37, 0
1, 320189, Note_on_c, 0, 93, 80
1, 320189, Note_on_c, 0, 88, 80
1, 320189, Note_on_c, 0, 85, 73
1, 320192, Note_on_c, 0, 81, 73
1, 320192, Note_on_c, 0, 40, 73
1, 320192, Note_on_c, 0, 52, 80
1, 320244, Note_on_c, 0, 81, 0
1, 320244, Note_on_c, 0, 93, 0
1, 320244, Note_on_c, 0, 88, 0
1, 320247, Note_on_c, 0, 85, 0
1, 320247, Note_on_c, 0, 52, 0
1, 320247, Note_on_c, 0, 40, 0
1, 320272, Note_on_c, 0, 93, 92
1, 320272, Note_on_c, 0, 88, 92
1, 320272, Note_on_c, 0, 85, 83
1, 320275, Note_on_c, 0, 81, 83
1, 320275, Note_on_c, 0, 40, 80
1, 320275, Note_on_c, 0, 52, 88
1, 320281, Control_c, 0, 64, 0
1, 320301, Control_c, 0, 64, 127
1, 320492, Note_on_c, 0, 81, 0
1, 320492, Note_on_c, 0, 93, 0
1, 320492, Note_on_c, 0, 88, 0
1, 320495, Note_on_c, 0, 85, 0
1, 320495, Note_on_c, 0, 52, 0
1, 320495, Note_on_c, 0, 40, 0
1, 320520, Note_on_c, 0, 93, 80
1, 320520, Note_on_c, 0, 88, 80
1, 320520, Note_on_c, 0, 85, 73
1, 320523, Note_on_c, 0, 81, 73
1, 320523, Note_on_c, 0, 45, 73
1, 320523, Note_on_c, 0, 57, 80
1, 320576, Note_on_c, 0, 81, 0
1, 320576, Note_on_c, 0, 93, 0
1, 320576, Note_on_c, 0, 88, 0
1, 320579, Note_on_c, 0, 85, 0
1, 320579, Note_on_c, 0, 57, 0
1, 320579, Note_on_c, 0, 45, 0
1, 320582, Control_c, 0, 64, 0
1, 320604, Note_on_c, 0, 93, 90
1, 320604, Note_on_c, 0, 88, 90
1, 320604, Note_on_c, 0, 85, 82
1, 320607, Note_on_c, 0, 81, 82
1, 320607, Note_on_c, 0, 45, 80
1, 320607, Note_on_c, 0, 57, 88
1, 320669, Note_on_c, 0, 81, 0
1, 320669, Note_on_c, 0, 93, 0
1, 320669, Note_on_c, 0, 88, 0
1, 320672, Note_on_c, 0, 85, 0
1, 320672, Note_on_c, 0, 57, 0
1, 320672, Note_on_c, 0, 45, 0
1, 320777, Note_on_c, 0, 81, 73
1, 320777, Note_on_c, 0, 85, 73
1, 320777, Note_on_c, 0, 88, 80
1, 320780, Note_on_c, 0, 93, 80
1, 320780, Note_on_c, 0, 45, 73
1, 320780, Note_on_c, 0, 57, 81
1, 320845, Note_on_c, 0, 93, 0
1, 320845, Note_on_c, 0, 81, 0
1, 320845, Note_on_c, 0, 85, 0
1, 320848, Note_on_c, 0, 88, 0
1, 320848, Note_on_c, 0, 57, 0
1, 320848, Note_on_c, 0, 45, 0
1, 320957, Note_on_c, 0, 81, 60
1, 320957, Note_on_c, 0, 76, 60
1, 320957, Note_on_c, 0, 73, 60
1, 320960, Note_on_c, 0, 69, 60
1, 320960, Note_on_c, 0, 57, 60
1, 320979, Control_c, 0, 64, 127
1, 321183, Note_on_c, 0, 69, 0
1, 321183, Note_on_c, 0, 81, 0
1, 321183, Note_on_c, 0, 76, 0
1, 321186, Note_on_c, 0, 73, 0
1, 321186, Note_on_c, 0, 57, 0
1, 321211, Note_on_c, 0, 73, 55
1, 321211, Note_on_c, 0, 76, 55
1, 321211, Note_on_c, 0, 81, 55
1, 321214, Note_on_c, 0, 61, 50
1, 321268, Note_on_c, 0, 81, 0
1, 321268, Note_on_c, 0, 76, 0
1, 321268, Note_on_c, 0, 73, 0
1, 321271, Note_on_c, 0, 61, 0
1, 321296, Note_on_c, 0, 81, 60
1, 321296, Note_on_c, 0, 76, 60
1, 321296, Note_on_c, 0, 73, 60
1, 321299, Note_on_c, 0, 61, 59
1, 321518, Note_on_c, 0, 73, 0
1, 321518, Note_on_c, 0, 76, 0
1, 321518, Note_on_c, 0, 81, 0
1, 321521, Note_on_c, 0, 61, 0
1, 321546, Note_on_c, 0, 73, 55
1, 321546, Note_on_c, 0, 76, 55
1, 321546, Note_on_c, 0, 81, 55
1, 321549, Note_on_c, 0, 64, 48
1, 321602, Note_on_c, 0, 81, 0
1, 321602, Note_on_c, 0, 76, 0
1, 321602, Note_on_c, 0, 73, 0
1, 321605, Note_on_c, 0, 64, 0
1, 321629, Note_on_c, 0, 81, 59
1, 321629, Note_on_c, 0, 76, 59
1, 321629, Note_on_c, 0, 73, 59
1, 321632, Note_on_c, 0, 64, 58
1, 321639, Control_c, 0, 64, 0
1, 321675, Control_c, 0, 64, 127
1, 321853, Note_on_c, 0, 73, 0
1, 321853, Note_on_c, 0, 76, 0
1, 321853, Note_on_c, 0, 81, 0
1, 321856, Note_on_c, 0, 64, 0
1, 321881, Note_on_c, 0, 73, 55
1, 321881, Note_on_c, 0, 76, 55
1, 321881, Note_on_c, 0, 81, 55
1, 321884, Note_on_c, 0, 69, 48
1, 321925, Control_c, 0, 64, 0
1, 321937, Note_on_c, 0, 81, 0
1, 321937, Note_on_c, 0, 76, 0
1, 321937, Note_on_c, 0, 73, 0
1, 321940, Note_on_c, 0, 69, 0
1, 321965, Note_on_c, 0, 81, 60
1, 321965, Note_on_c, 0, 76, 60
1, 321965, Note_on_c, 0, 73, 60
1, 321968, Note_on_c, 0, 69, 55
1, 322029, Note_on_c, 0, 73, 0
1, 322029, Note_on_c, 0, 76, 0
1, 322029, Note_on_c, 0, 81, 0
1, 322032, Note_on_c, 0, 69, 0
1, 322135, Note_on_c, 0, 73, 55
1, 322135, Note_on_c, 0, 76, 55
1, 322135, Note_on_c, 0, 81, 55
1, 322138, Note_on_c, 0, 69, 48
1, 322199, Note_on_c, 0, 81, 0
1, 322199, Note_on_c, 0, 76, 0
1, 322199, Note_on_c, 0, 73, 0
1, 322202, Note_on_c, 0, 69, 0
1, 322307, Note_on_c, 0, 72, 55
1, 322307, Note_on_c, 0, 77, 55
1, 322307, Note_on_c, 0, 81, 55
1, 322310, Note_on_c, 0, 65, 54
1, 322310, Note_on_c, 0, 69, 54
1, 322378, Control_c, 0, 64, 127
1, 322536, Note_on_c, 0, 81, 0
1, 322536, Note_on_c, 0, 77, 0
1, 322536, Note_on_c, 0, 72, 0
1, 322539, Note_on_c, 0, 69, 0
1, 322539, Note_on_c, 0, 65, 0
1, 322565, Note_on_c, 0, 72, 48
1, 322565, Note_on_c, 0, 77, 48
1, 322565, Note_on_c, 0, 81, 48
1, 322568, Note_on_c, 0, 65, 43
1, 322568, Note_on_c, 0, 69, 43
1, 322622, Note_on_c, 0, 81, 0
1, 322622, Note_on_c, 0, 77, 0
1, 322622, Note_on_c, 0, 72, 0
1, 322625, Note_on_c, 0, 69, 0
1, 322625, Note_on_c, 0, 65, 0
1, 322651, Note_on_c, 0, 72, 55
1, 322651, Note_on_c, 0, 77, 55
1, 322651, Note_on_c, 0, 81, 55
1, 322654, Note_on_c, 0, 65, 52
1, 322654, Note_on_c, 0, 69, 52
1, 322881, Note_on_c, 0, 81, 0
1, 322881, Note_on_c, 0, 77, 0
1, 322881, Note_on_c, 0, 72, 0
1, 322884, Note_on_c, 0, 69, 0
1, 322884, Note_on_c, 0, 65, 0
1, 322909, Note_on_c, 0, 72, 47
1, 322909, Note_on_c, 0, 77, 47
1, 322909, Note_on_c, 0, 81, 47
1, 322912, Note_on_c, 0, 65, 43
1, 322912, Note_on_c, 0, 69, 43
1, 322967, Note_on_c, 0, 81, 0
1, 322967, Note_on_c, 0, 77, 0
1, 322967, Note_on_c, 0, 72, 0
1, 322970, Note_on_c, 0, 69, 0
1, 322970, Note_on_c, 0, 65, 0
1, 322995, Note_on_c, 0, 72, 55
1, 322995, Note_on_c, 0, 77, 55
1, 322995, Note_on_c, 0, 81, 55
1, 322998, Note_on_c, 0, 65, 52
1, 322998, Note_on_c, 0, 69, 52
1, 323007, Control_c, 0, 64, 0
1, 323030, Control_c, 0, 64, 127
1, 323220, Note_on_c, 0, 81, 0
1, 323220, Note_on_c, 0, 77, 0
1, 323220, Note_on_c, 0, 72, 0
1, 323223, Note_on_c, 0, 69, 0
1, 323223, Note_on_c, 0, 65, 0
1, 323248, Note_on_c, 0, 72, 48
1, 323248, Note_on_c, 0, 77, 48
1, 323248, Note_on_c, 0, 81, 48
1, 323251, Note_on_c, 0, 65, 44
1, 323251, Note_on_c, 0, 69, 44
1, 323303, Control_c, 0, 64, 0
1, 323303, Note_on_c, 0, 81, 0
1, 323303, Note_on_c, 0, 77, 0
1, 323303, Note_on_c, 0, 72, 0
1, 323303, Note_on_c, 0, 69, 0
1, 323303, Note_on_c, 0, 65, 0
1, 323333, Note_on_c, 0, 72, 55
1, 323333, Note_on_c, 0, 77, 55
1, 323333, Note_on_c, 0, 81, 55
1, 323336, Note_on_c, 0, 65, 50
1, 323336, Note_on_c, 0, 69, 50
1, 323398, Note_on_c, 0, 81, 0
1, 323398, Note_on_c, 0, 77, 0
1, 323398, Note_on_c, 0, 72, 0
1, 323401, Note_on_c, 0, 69, 0
1, 323401, Note_on_c, 0, 65, 0
1, 323506, Note_on_c, 0, 77, 49
1, 323506, Note_on_c, 0, 72, 49
1, 323506, Note_on_c, 0, 81, 49
1, 323509, Note_on_c, 0, 65, 46
1, 323509, Note_on_c, 0, 69, 46
1, 323575, Note_on_c, 0, 81, 0
1, 323575, Note_on_c, 0, 72, 0
1, 323575, Note_on_c, 0, 77, 0
1, 323578, Note_on_c, 0, 69, 0
1, 323578, Note_on_c, 0, 65, 0
1, 323689, Note_on_c, 0, 72, 61
1, 323689, Note_on_c, 0, 77, 61
1, 323689, Note_on_c, 0, 81, 61
1, 323692, Note_on_c, 0, 41, 41
1, 323692, Note_on_c, 0, 53, 41
1, 323716, Control_c, 0, 64, 127
1, 323914, Note_on_c, 0, 81, 0
1, 323914, Note_on_c, 0, 77, 0
1, 323914, Note_on_c, 0, 72, 0
1, 323942, Note_on_c, 0, 74, 47
1, 323942, Note_on_c, 0, 77, 47
1, 323942, Note_on_c, 0, 82, 47
1, 323998, Note_on_c, 0, 82, 0
1, 323998, Note_on_c, 0, 77, 0
1, 323998, Note_on_c, 0, 74, 0
1, 324026, Note_on_c, 0, 72, 55
1, 324026, Note_on_c, 0, 77, 55
1, 324026, Note_on_c, 0, 81, 55
1, 324251, Note_on_c, 0, 81, 0
1, 324251, Note_on_c, 0, 77, 0
1, 324251, Note_on_c, 0, 72, 0
1, 324279, Note_on_c, 0, 70, 47
1, 324279, Note_on_c, 0, 72, 47
1, 324279, Note_on_c, 0, 79, 47
1, 324316, Control_c, 0, 64, 0
1, 324335, Note_on_c, 0, 79, 0
1, 324335, Note_on_c, 0, 72, 0
1, 324335, Note_on_c, 0, 70, 0
1, 324363, Note_on_c, 0, 69, 55
1, 324363, Note_on_c, 0, 72, 55
1, 324363, Note_on_c, 0, 77, 55
1, 324366, Note_on_c, 0, 53, 0
1, 324366, Note_on_c, 0, 41, 0
1, 324366, Note_on_c, 0, 45, 47
1, 324369, Note_on_c, 0, 57, 47
1, 324390, Control_c, 0, 64, 127
1, 324504, Note_on_c, 0, 57, 0
1, 324504, Note_on_c, 0, 45, 0
1, 324588, Note_on_c, 0, 77, 0
1, 324588, Note_on_c, 0, 72, 0
1, 324588, Note_on_c, 0, 69, 0
1, 324617, Note_on_c, 0, 70, 47
1, 324617, Note_on_c, 0, 72, 47
1, 324617, Note_on_c, 0, 79, 47
1, 324651, Control_c, 0, 64, 0
1, 324673, Note_on_c, 0, 79, 0
1, 324673, Note_on_c, 0, 72, 0
1, 324673, Note_on_c, 0, 70, 0
1, 324701, Note_on_c, 0, 69, 55
1, 324701, Note_on_c, 0, 72, 55
1, 324701, Note_on_c, 0, 77, 55
1, 324716, Control_c, 0, 64, 127
1, 324927, Note_on_c, 0, 77, 0
1, 324927, Note_on_c, 0, 72, 0
1, 324927, Note_on_c, 0, 69, 0
1, 324955, Note_on_c, 0, 65, 47
1, 324955, Note_on_c, 0, 70, 47
1, 324955, Note_on_c, 0, 74, 47
1, 324995, Control_c, 0, 64, 0
1, 325012, Note_on_c, 0, 74, 0
1, 325012, Note_on_c, 0, 70, 0
1, 325012, Note_on_c, 0, 65, 0
1, 325041, Note_on_c, 0, 64, 62
1, 325041, Note_on_c, 0, 70, 62
1, 325041, Note_on_c, 0, 72, 62
1, 325044, Note_on_c, 0, 48, 44
1, 325044, Note_on_c, 0, 55, 44
1, 325111, Control_c, 0, 64, 127
1, 325291, Note_on_c, 0, 72, 0
1, 325291, Note_on_c, 0, 70, 0
1, 325291, Note_on_c, 0, 64, 0
1, 325294, Note_on_c, 0, 65, 47
1, 325294, Note_on_c, 0, 70, 47
1, 325294, Note_on_c, 0, 74, 47
1, 325375, Note_on_c, 0, 74, 0
1, 325375, Note_on_c, 0, 70, 0
1, 325375, Note_on_c, 0, 65, 0
1, 325378, Note_on_c, 0, 65, 55
1, 325378, Note_on_c, 0, 70, 55
1, 325378, Note_on_c, 0, 74, 55
1, 325625, Note_on_c, 0, 74, 0
1, 325625, Note_on_c, 0, 70, 0
1, 325625, Note_on_c, 0, 65, 0
1, 325628, Note_on_c, 0, 64, 47
1, 325628, Note_on_c, 0, 70, 47
1, 325628, Note_on_c, 0, 72, 47
1, 325708, Note_on_c, 0, 72, 0
1, 325708, Note_on_c, 0, 70, 0
1, 325708, Note_on_c, 0, 64, 0
1, 325711, Note_on_c, 0, 64, 55
1, 325711, Note_on_c, 0, 70, 55
1, 325711, Note_on_c, 0, 72, 55
1, 325714, Note_on_c, 0, 55, 0
1, 325714, Note_on_c, 0, 48, 0
1, 325714, Note_on_c, 0, 60, 47
1, 325717, Control_c, 0, 64, 0
1, 325752, Control_c, 0, 64, 127
1, 325847, Note_on_c, 0, 60, 0
1, 325958, Note_on_c, 0, 72, 0
1, 325958, Note_on_c, 0, 70, 0
1, 325958, Note_on_c, 0, 64, 0
1, 325961, Note_on_c, 0, 65, 47
1, 325961, Note_on_c, 0, 70, 47
1, 325961, Note_on_c, 0, 74, 47
1, 326000, Control_c, 0, 64, 0
1, 326042, Note_on_c, 0, 74, 0
1, 326042, Note_on_c, 0, 70, 0
1, 326042, Note_on_c, 0, 65, 0
1, 326045, Note_on_c, 0, 65, 49
1, 326045, Note_on_c, 0, 70, 49
1, 326045, Note_on_c, 0, 74, 49
1, 326106, Note_on_c, 0, 74, 0
1, 326106, Note_on_c, 0, 70, 0
1, 326106, Note_on_c, 0, 65, 0
1, 326214, Note_on_c, 0, 64, 47
1, 326214, Note_on_c, 0, 70, 47
1, 326214, Note_on_c, 0, 72, 47
1, 326275, Note_on_c, 0, 72, 0
1, 326275, Note_on_c, 0, 70, 0
1, 326275, Note_on_c, 0, 64, 0
1, 326397, Note_on_c, 0, 74, 55
1, 326397, Note_on_c, 0, 79, 55
1, 326397, Note_on_c, 0, 82, 55
1, 326400, Note_on_c, 0, 43, 41
1, 326400, Note_on_c, 0, 55, 41
1, 326423, Control_c, 0, 64, 127
1, 326622, Note_on_c, 0, 82, 0
1, 326622, Note_on_c, 0, 79, 0
1, 326622, Note_on_c, 0, 74, 0
1, 326650, Note_on_c, 0, 75, 47
1, 326650, Note_on_c, 0, 79, 47
1, 326650, Note_on_c, 0, 84, 47
1, 326706, Note_on_c, 0, 84, 0
1, 326706, Note_on_c, 0, 79, 0
1, 326706, Note_on_c, 0, 75, 0
1, 326734, Note_on_c, 0, 74, 55
1, 326734, Note_on_c, 0, 79, 55
1, 326734, Note_on_c, 0, 82, 55
1, 326959, Note_on_c, 0, 82, 0
1, 326959, Note_on_c, 0, 79, 0
1, 326959, Note_on_c, 0, 74, 0
1, 326987, Note_on_c, 0, 72, 47
1, 326987, Note_on_c, 0, 74, 47
1, 326987, Note_on_c, 0, 81, 47
1, 327003, Control_c, 0, 64, 0
1, 327043, Note_on_c, 0, 81, 0
1, 327043, Note_on_c, 0, 74, 0
1, 327043, Note_on_c, 0, 72, 0
1, 327072, Note_on_c, 0, 70, 55
1, 327072, Note_on_c, 0, 74, 55
1, 327072, Note_on_c, 0, 79, 55
1, 327075, Note_on_c, 0, 55, 0
1, 327075, Note_on_c, 0, 43, 0
1, 327075, Note_on_c, 0, 46, 47
1, 327078, Note_on_c, 0, 58, 47
1, 327122, Control_c, 0, 64, 127
1, 327212, Note_on_c, 0, 58, 0
1, 327212, Note_on_c, 0, 46, 0
1, 327297, Note_on_c, 0, 79, 0
1, 327297, Note_on_c, 0, 74, 0
1, 327297, Note_on_c, 0, 70, 0
1, 327325, Note_on_c, 0, 72, 47
1, 327325, Note_on_c, 0, 74, 47
1, 327325, Note_on_c, 0, 81, 47
1, 327381, Note_on_c, 0, 81, 0
1, 327381, Note_on_c, 0, 74, 0
1, 327381, Note_on_c, 0, 72, 0
1, 327409, Note_on_c, 0, 70, 55
1, 327409, Note_on_c, 0, 74, 55
1, 327409, Note_on_c, 0, 79, 55
1, 327634, Note_on_c, 0, 79, 0
1, 327634, Note_on_c, 0, 74, 0
1, 327634, Note_on_c, 0, 70, 0
1, 327662, Note_on_c, 0, 67, 47
1, 327662, Note_on_c, 0, 72, 47
1, 327662, Note_on_c, 0, 75, 47
1, 327716, Control_c, 0, 64, 0
1, 327716, Note_on_c, 0, 75, 0
1, 327716, Note_on_c, 0, 72, 0
1, 327716, Note_on_c, 0, 67, 0
1, 327746, Note_on_c, 0, 66, 62
1, 327746, Note_on_c, 0, 72, 62
1, 327746, Note_on_c, 0, 74, 62
1, 327749, Note_on_c, 0, 50, 47
1, 327749, Note_on_c, 0, 57, 47
1, 327827, Control_c, 0, 64, 127
1, 328000, Note_on_c, 0, 74, 0
1, 328000, Note_on_c, 0, 72, 0
1, 328000, Note_on_c, 0, 66, 0
1, 328003, Note_on_c, 0, 67, 47
1, 328003, Note_on_c, 0, 72, 47
1, 328003, Note_on_c, 0, 75, 47
1, 328083, Note_on_c, 0, 75, 0
1, 328083, Note_on_c, 0, 72, 0
1, 328083, Note_on_c, 0, 67, 0
1, 328086, Note_on_c, 0, 67, 55
1, 328086, Note_on_c, 0, 72, 55
1, 328086, Note_on_c, 0, 75, 55
1, 328333, Note_on_c, 0, 75, 0
1, 328333, Note_on_c, 0, 72, 0
1, 328333, Note_on_c, 0, 67, 0
1, 328336, Note_on_c, 0, 66, 47
1, 328336, Note_on_c, 0, 72, 47
1, 328336, Note_on_c, 0, 74, 47
1, 328416, Note_on_c, 0, 74, 0
1, 328416, Note_on_c, 0, 72, 0
1, 328416, Note_on_c, 0, 66, 0
1, 328419, Note_on_c, 0, 66, 55
1, 328419, Note_on_c, 0, 72, 55
1, 328419, Note_on_c, 0, 74, 55
1, 328422, Note_on_c, 0, 57, 0
1, 328422, Note_on_c, 0, 50, 0
1, 328422, Note_on_c, 0, 62, 47
1, 328422, Control_c, 0, 64, 0
1, 328480, Control_c, 0, 64, 127
1, 328555, Note_on_c, 0, 62, 0
1, 328667, Note_on_c, 0, 74, 0
1, 328667, Note_on_c, 0, 72, 0
1, 328667, Note_on_c, 0, 66, 0
1, 328670, Note_on_c, 0, 67, 47
1, 328670, Note_on_c, 0, 72, 47
1, 328670, Note_on_c, 0, 75, 47
1, 328710, Control_c, 0, 64, 0
1, 328750, Note_on_c, 0, 75, 0
1, 328750, Note_on_c, 0, 72, 0
1, 328750, Note_on_c, 0, 67, 0
1, 328753, Note_on_c, 0, 67, 49
1, 328753, Note_on_c, 0, 72, 49
1, 328753, Note_on_c, 0, 75, 49
1, 328815, Note_on_c, 0, 75, 0
1, 328815, Note_on_c, 0, 72, 0
1, 328815, Note_on_c, 0, 67, 0
1, 328923, Note_on_c, 0, 66, 47
1, 328923, Note_on_c, 0, 72, 47
1, 328923, Note_on_c, 0, 74, 47
1, 328983, Note_on_c, 0, 74, 0
1, 328983, Note_on_c, 0, 72, 0
1, 328983, Note_on_c, 0, 66, 0
1, 329103, Note_on_c, 0, 71, 61
1, 329103, Note_on_c, 0, 77, 61
1, 329103, Note_on_c, 0, 79, 61
1, 329106, Note_on_c, 0, 43, 50
1, 329106, Note_on_c, 0, 50, 50
1, 329167, Control_c, 0, 64, 127
1, 329356, Note_on_c, 0, 79, 0
1, 329356, Note_on_c, 0, 77, 0
1, 329356, Note_on_c, 0, 71, 0
1, 329359, Note_on_c, 0, 71, 47
1, 329359, Note_on_c, 0, 77, 47
1, 329359, Note_on_c, 0, 80, 47
1, 329412, Note_on_c, 0, 80, 0
1, 329412, Note_on_c, 0, 77, 0
1, 329412, Note_on_c, 0, 71, 0
1, 329440, Note_on_c, 0, 71, 61
1, 329440, Note_on_c, 0, 77, 61
1, 329440, Note_on_c, 0, 80, 61
1, 329609, Note_on_c, 0, 80, 0
1, 329609, Note_on_c, 0, 77, 0
1, 329609, Note_on_c, 0, 71, 0
1, 329612, Note_on_c, 0, 71, 52
1, 329612, Note_on_c, 0, 77, 52
1, 329612, Note_on_c, 0, 79, 52
1, 329665, Note_on_c, 0, 79, 0
1, 329665, Note_on_c, 0, 77, 0
1, 329665, Note_on_c, 0, 71, 0
1, 329778, Note_on_c, 0, 67, 55
1, 329778, Note_on_c, 0, 70, 55
1, 329778, Note_on_c, 0, 72, 55
1, 329781, Note_on_c, 0, 50, 0
1, 329781, Note_on_c, 0, 43, 0
1, 329781, Control_c, 0, 64, 0
1, 329784, Note_on_c, 0, 48, 47
1, 329784, Note_on_c, 0, 52, 47
1, 329849, Control_c, 0, 64, 127
1, 329917, Note_on_c, 0, 52, 0
1, 329917, Note_on_c, 0, 48, 0
1, 330029, Note_on_c, 0, 72, 0
1, 330029, Note_on_c, 0, 70, 0
1, 330029, Note_on_c, 0, 67, 0
1, 330032, Note_on_c, 0, 67, 49
1, 330032, Note_on_c, 0, 70, 49
1, 330032, Note_on_c, 0, 73, 49
1, 330061, Control_c, 0, 64, 0
1, 330084, Note_on_c, 0, 73, 0
1, 330084, Note_on_c, 0, 70, 0
1, 330084, Note_on_c, 0, 67, 0
1, 330112, Note_on_c, 0, 67, 57
1, 330112, Note_on_c, 0, 70, 57
1, 330112, Note_on_c, 0, 73, 57
1, 330177, Note_on_c, 0, 73, 0
1, 330177, Note_on_c, 0, 70, 0
1, 330177, Note_on_c, 0, 67, 0
1, 330285, Note_on_c, 0, 67, 47
1, 330285, Note_on_c, 0, 70, 47
1, 330285, Note_on_c, 0, 72, 47
1, 330345, Note_on_c, 0, 72, 0
1, 330345, Note_on_c, 0, 70, 0
1, 330345, Note_on_c, 0, 67, 0
1, 330464, Note_on_c, 0, 69, 62
1, 330464, Note_on_c, 0, 75, 62
1, 330464, Note_on_c, 0, 77, 62
1, 330467, Note_on_c, 0, 41, 51
1, 330467, Note_on_c, 0, 48, 51
1, 330528, Control_c, 0, 64, 127
1, 330717, Note_on_c, 0, 77, 0
1, 330717, Note_on_c, 0, 75, 0
1, 330717, Note_on_c, 0, 69, 0
1, 330720, Note_on_c, 0, 69, 52
1, 330720, Note_on_c, 0, 75, 52
1, 330720, Note_on_c, 0, 79, 52
1, 330774, Note_on_c, 0, 79, 0
1, 330774, Note_on_c, 0, 75, 0
1, 330774, Note_on_c, 0, 69, 0
1, 330802, Note_on_c, 0, 69, 59
1, 330802, Note_on_c, 0, 75, 59
1, 330802, Note_on_c, 0, 79, 59
1, 330971, Note_on_c, 0, 79, 0
1, 330971, Note_on_c, 0, 75, 0
1, 330971, Note_on_c, 0, 69, 0
1, 330974, Note_on_c, 0, 69, 47
1, 330974, Note_on_c, 0, 75, 47
1, 330974, Note_on_c, 0, 77, 47
1, 331027, Note_on_c, 0, 77, 0
1, 331027, Note_on_c, 0, 75, 0
1, 331027, Note_on_c, 0, 69, 0
1, 331139, Note_on_c, 0, 62, 59
1, 331139, Note_on_c, 0, 65, 59
1, 331139, Note_on_c, 0, 70, 59
1, 331142, Note_on_c, 0, 48, 0
1, 331142, Note_on_c, 0, 41, 0
1, 331142, Control_c, 0, 64, 0
1, 331145, Note_on_c, 0, 46, 47
1, 331145, Note_on_c, 0, 50, 47
1, 331211, Control_c, 0, 64, 127
1, 331279, Note_on_c, 0, 50, 0
1, 331279, Note_on_c, 0, 46, 0
1, 331390, Note_on_c, 0, 70, 0
1, 331390, Note_on_c, 0, 65, 0
1, 331390, Note_on_c, 0, 62, 0
1, 331393, Note_on_c, 0, 62, 47
1, 331393, Note_on_c, 0, 65, 47
1, 331393, Note_on_c, 0, 72, 47
1, 331445, Control_c, 0, 64, 0
1, 331445, Note_on_c, 0, 72, 0
1, 331445, Note_on_c, 0, 65, 0
1, 331445, Note_on_c, 0, 62, 0
1, 331474, Note_on_c, 0, 62, 55
1, 331474, Note_on_c, 0, 65, 55
1, 331474, Note_on_c, 0, 72, 55
1, 331538, Note_on_c, 0, 72, 0
1, 331538, Note_on_c, 0, 65, 0
1, 331538, Note_on_c, 0, 62, 0
1, 331645, Note_on_c, 0, 62, 47
1, 331645, Note_on_c, 0, 70, 47
1, 331645, Note_on_c, 0, 65, 47
1, 331704, Note_on_c, 0, 65, 0
1, 331704, Note_on_c, 0, 70, 0
1, 331704, Note_on_c, 0, 62, 0
1, 331821, Note_on_c, 0, 65, 65
1, 331821, Note_on_c, 0, 70, 65
1, 331821, Note_on_c, 0, 74, 65
1, 331824, Note_on_c, 0, 46, 59
1, 331824, Note_on_c, 0, 50, 59
1, 331867, Control_c, 0, 64, 127
1, 332074, Note_on_c, 0, 74, 0
1, 332074, Note_on_c, 0, 70, 0
1, 332074, Note_on_c, 0, 65, 0
1, 332077, Note_on_c, 0, 65, 65
1, 332077, Note_on_c, 0, 73, 65
1, 332077, Note_on_c, 0, 76, 65
1, 332080, Note_on_c, 0, 50, 0
1, 332080, Note_on_c, 0, 46, 0
1, 332080, Note_on_c, 0, 46, 59
1, 332083, Note_on_c, 0, 49, 59
1, 332083, Note_on_c, 0, 52, 59
1, 332087, Control_c, 0, 64, 0
1, 332123, Control_c, 0, 64, 127
1, 332158, Note_on_c, 0, 76, 0
1, 332158, Note_on_c, 0, 73, 0
1, 332158, Note_on_c, 0, 65, 0
1, 332161, Note_on_c, 0, 65, 69
1, 332161, Note_on_c, 0, 73, 69
1, 332161, Note_on_c, 0, 76, 69
1, 332164, Note_on_c, 0, 52, 0
1, 332164, Note_on_c, 0, 49, 0
1, 332164, Note_on_c, 0, 46, 0
1, 332167, Note_on_c, 0, 46, 63
1, 332167, Note_on_c, 0, 49, 63
1, 332167, Note_on_c, 0, 52, 63
1, 332412, Note_on_c, 0, 76, 0
1, 332412, Note_on_c, 0, 73, 0
1, 332412, Note_on_c, 0, 65, 0
1, 332415, Note_on_c, 0, 65, 68
1, 332415, Note_on_c, 0, 74, 68
1, 332415, Note_on_c, 0, 77, 68
1, 332418, Note_on_c, 0, 52, 0
1, 332418, Note_on_c, 0, 49, 0
1, 332418, Note_on_c, 0, 46, 0
1, 332421, Note_on_c, 0, 46, 62
1, 332421, Note_on_c, 0, 50, 62
1, 332421, Note_on_c, 0, 53, 62
1, 332429, Control_c, 0, 64, 0
1, 332463, Control_c, 0, 64, 127
1, 332494, Note_on_c, 0, 77, 0
1, 332494, Note_on_c, 0, 74, 0
1, 332494, Note_on_c, 0, 65, 0
1, 332497, Note_on_c, 0, 65, 77
1, 332497, Note_on_c, 0, 74, 77
1, 332497, Note_on_c, 0, 77, 77
1, 332500, Note_on_c, 0, 53, 0
1, 332500, Note_on_c, 0, 50, 0
1, 332500, Note_on_c, 0, 46, 0
1, 332503, Note_on_c, 0, 46, 70
1, 332503, Note_on_c, 0, 50, 70
1, 332503, Note_on_c, 0, 53, 70
1, 332742, Note_on_c, 0, 77, 0
1, 332742, Note_on_c, 0, 74, 0
1, 332742, Note_on_c, 0, 65, 0
1, 332745, Note_on_c, 0, 67, 76
1, 332745, Note_on_c, 0, 76, 76
1, 332745, Note_on_c, 0, 79, 76
1, 332748, Note_on_c, 0, 53, 0
1, 332748, Note_on_c, 0, 50, 0
1, 332748, Note_on_c, 0, 46, 0
1, 332751, Note_on_c, 0, 46, 69
1, 332751, Note_on_c, 0, 52, 69
1, 332751, Note_on_c, 0, 55, 69
1, 332756, Control_c, 0, 64, 0
1, 332818, Control_c, 0, 64, 127
1, 332827, Note_on_c, 0, 79, 0
1, 332827, Note_on_c, 0, 76, 0
1, 332827, Note_on_c, 0, 67, 0
1, 332830, Note_on_c, 0, 67, 83
1, 332830, Note_on_c, 0, 76, 83
1, 332830, Note_on_c, 0, 79, 83
1, 332833, Note_on_c, 0, 55, 0
1, 332833, Note_on_c, 0, 52, 0
1, 332833, Note_on_c, 0, 46, 0
1, 332836, Note_on_c, 0, 46, 74
1, 332836, Note_on_c, 0, 52, 74
1, 332836, Note_on_c, 0, 55, 74
1, 333079, Note_on_c, 0, 79, 0
1, 333079, Note_on_c, 0, 76, 0
1, 333079, Note_on_c, 0, 67, 0
1, 333082, Note_on_c, 0, 68, 77
1, 333082, Note_on_c, 0, 77, 77
1, 333082, Note_on_c, 0, 80, 77
1, 333085, Note_on_c, 0, 55, 0
1, 333085, Note_on_c, 0, 52, 0
1, 333085, Note_on_c, 0, 46, 0
1, 333088, Note_on_c, 0, 47, 70
1, 333088, Note_on_c, 0, 53, 70
1, 333088, Note_on_c, 0, 56, 70
1, 333091, Control_c, 0, 64, 0
1, 333140, Control_c, 0, 64, 127
1, 333163, Note_on_c, 0, 80, 0
1, 333163, Note_on_c, 0, 77, 0
1, 333163, Note_on_c, 0, 68, 0
1, 333166, Note_on_c, 0, 68, 86
1, 333166, Note_on_c, 0, 77, 86
1, 333166, Note_on_c, 0, 80, 86
1, 333169, Note_on_c, 0, 56, 0
1, 333169, Note_on_c, 0, 53, 0
1, 333169, Note_on_c, 0, 47, 0
1, 333172, Note_on_c, 0, 47, 78
1, 333172, Note_on_c, 0, 53, 78
1, 333172, Note_on_c, 0, 56, 78
1, 333415, Note_on_c, 0, 80, 0
1, 333415, Note_on_c, 0, 77, 0
1, 333415, Note_on_c, 0, 68, 0
1, 333418, Note_on_c, 0, 72, 80
1, 333418, Note_on_c, 0, 68, 80
1, 333418, Note_on_c, 0, 77, 80
1, 333421, Note_on_c, 0, 80, 80
1, 333421, Note_on_c, 0, 56, 0
1, 333421, Note_on_c, 0, 53, 0
1, 333424, Note_on_c, 0, 47, 0
1, 333424, Note_on_c, 0, 36, 73
1, 333424, Note_on_c, 0, 48, 73
1, 333429, Control_c, 0, 64, 0
1, 333485, Control_c, 0, 64, 127
1, 333498, Note_on_c, 0, 80, 0
1, 333498, Note_on_c, 0, 72, 0
1, 333498, Note_on_c, 0, 68, 0
1, 333501, Note_on_c, 0, 77, 0
1, 333501, Note_on_c, 0, 72, 86
1, 333501, Note_on_c, 0, 68, 86
1, 333504, Note_on_c, 0, 77, 86
1, 333504, Note_on_c, 0, 80, 86
1, 333504, Note_on_c, 0, 48, 0
1, 333507, Note_on_c, 0, 36, 0
1, 333507, Note_on_c, 0, 36, 77
1, 333507, Note_on_c, 0, 48, 77
1, 333747, Note_on_c, 0, 80, 0
1, 333747, Note_on_c, 0, 72, 0
1, 333747, Note_on_c, 0, 68, 0
1, 333750, Note_on_c, 0, 77, 0
1, 333750, Note_on_c, 0, 67, 81
1, 333750, Note_on_c, 0, 71, 81
1, 333753, Note_on_c, 0, 77, 81
1, 333753, Note_on_c, 0, 79, 81
1, 333753, Note_on_c, 0, 48, 0
1, 333756, Note_on_c, 0, 36, 0
1, 333756, Note_on_c, 0, 38, 74
1, 333756, Note_on_c, 0, 50, 74
1, 333761, Control_c, 0, 64, 0
1, 333829, Control_c, 0, 64, 127
1, 333833, Note_on_c, 0, 79, 0
1, 333833, Note_on_c, 0, 67, 0
1, 333833, Note_on_c, 0, 71, 0
1, 333836, Note_on_c, 0, 77, 0
1, 333836, Note_on_c, 0, 67, 88
1, 333836, Note_on_c, 0, 71, 88
1, 333839, Note_on_c, 0, 77, 88
1, 333839, Note_on_c, 0, 79, 88
1, 333839, Note_on_c, 0, 50, 0
1, 333842, Note_on_c, 0, 38, 0
1, 333842, Note_on_c, 0, 38, 79
1, 333842, Note_on_c, 0, 50, 79
1, 334091, Note_on_c, 0, 79, 0
1, 334091, Note_on_c, 0, 67, 0
1, 334091, Note_on_c, 0, 71, 0
1, 334094, Note_on_c, 0, 77, 0
1, 334094, Note_on_c, 0, 67, 75
1, 334094, Note_on_c, 0, 71, 75
1, 334097, Note_on_c, 0, 74, 83
1, 334097, Note_on_c, 0, 77, 83
1, 334097, Note_on_c, 0, 79, 83
1, 334100, Note_on_c, 0, 50, 0
1, 334100, Note_on_c, 0, 38, 0
1, 334100, Note_on_c, 0, 31, 68
1, 334103, Note_on_c, 0, 43, 75
1, 334108, Control_c, 0, 64, 0
1, 334155, Control_c, 0, 64, 127
1, 334179, Note_on_c, 0, 79, 0
1, 334179, Note_on_c, 0, 74, 0
1, 334179, Note_on_c, 0, 67, 0
1, 334182, Note_on_c, 0, 71, 0
1, 334182, Note_on_c, 0, 77, 0
1, 334182, Note_on_c, 0, 67, 91
1, 334185, Note_on_c, 0, 71, 91
1, 334185, Note_on_c, 0, 74, 91
1, 334185, Note_on_c, 0, 77, 91
1, 334188, Note_on_c, 0, 79, 91
1, 334188, Note_on_c, 0, 43, 0
1, 334188, Note_on_c, 0, 31, 0
1, 334191, Note_on_c, 0, 31, 74
1, 334191, Note_on_c, 0, 43, 82
1, 334442, Note_on_c, 0, 79, 0
1, 334442, Note_on_c, 0, 74, 0
1, 334442, Note_on_c, 0, 67, 0
1, 334445, Note_on_c, 0, 71, 0
1, 334445, Note_on_c, 0, 77, 0
1, 334445, Note_on_c, 0, 64, 79
1, 334448, Note_on_c, 0, 67, 79
1, 334448, Note_on_c, 0, 72, 87
1, 334448, Note_on_c, 0, 76, 87
1, 334451, Note_on_c, 0, 43, 0
1, 334451, Note_on_c, 0, 31, 0
1, 334451, Note_on_c, 0, 36, 71
1, 334454, Note_on_c, 0, 48, 78
1, 334467, Control_c, 0, 64, 0
1, 334533, Note_on_c, 0, 76, 0
1, 334533, Note_on_c, 0, 64, 0
1, 334533, Note_on_c, 0, 67, 0
1, 334536, Note_on_c, 0, 72, 0
1, 334536, Note_on_c, 0, 64, 94
1, 334536, Note_on_c, 0, 67, 94
1, 334539, Note_on_c, 0, 72, 104
1, 334539, Note_on_c, 0, 76, 104
1, 334539, Note_on_c, 0, 48, 0
1, 334542, Note_on_c, 0, 36, 0
1, 334542, Note_on_c, 0, 36, 79
1, 334542, Note_on_c, 0, 48, 87
1, 334542, Control_c, 0, 64, 127
1, 334797, Note_on_c, 0, 76, 0
1, 334797, Note_on_c, 0, 64, 0
1, 334797, Note_on_c, 0, 67, 0
1, 334800, Note_on_c, 0, 72, 0
1, 334800, Note_on_c, 0, 72, 82
1, 334800, Note_on_c, 0, 76, 90
1, 334803, Note_on_c, 0, 67, 82
1, 334803, Note_on_c, 0, 79, 90
1, 334860, Note_on_c, 0, 79, 0
1, 334860, Note_on_c, 0, 72, 0
1, 334860, Note_on_c, 0, 76, 0
1, 334863, Note_on_c, 0, 67, 0
1, 334868, Control_c, 0, 64, 0
1, 334891, Note_on_c, 0, 67, 91
1, 334891, Note_on_c, 0, 72, 91
1, 334891, Note_on_c, 0, 76, 101
1, 334894, Note_on_c, 0, 79, 101
1, 334894, Note_on_c, 0, 48, 0
1, 334894, Note_on_c, 0, 36, 0
1, 334963, Note_on_c, 0, 79, 0
1, 334963, Note_on_c, 0, 67, 0
1, 334963, Note_on_c, 0, 72, 0
1, 334966, Note_on_c, 0, 76, 0
1, 335082, Note_on_c, 0, 84, 92
1, 335082, Note_on_c, 0, 79, 92
1, 335082, Note_on_c, 0, 76, 83
1, 335085, Note_on_c, 0, 72, 83
1, 335153, Note_on_c, 0, 72, 0
1, 335153, Note_on_c, 0, 84, 0
1, 335153, Note_on_c, 0, 79, 0
1, 335156, Note_on_c, 0, 76, 0
1, 335280, Note_on_c, 0, 72, 94
1, 335280, Note_on_c, 0, 77, 104
1, 335280, Note_on_c, 0, 80, 104
1, 335283, Note_on_c, 0, 48, 102
1, 335283, Note_on_c, 0, 60, 102
1, 335294, Control_c, 0, 64, 127
1, 335539, Note_on_c, 0, 60, 0
1, 335539, Note_on_c, 0, 48, 0
1, 335539, Note_on_c, 0, 44, 91
1, 335542, Note_on_c, 0, 56, 91
1, 335600, Note_on_c, 0, 56, 0
1, 335600, Note_on_c, 0, 44, 0
1, 335604, Control_c, 0, 64, 0
1, 335630, Note_on_c, 0, 80, 0
1, 335630, Note_on_c, 0, 77, 0
1, 335630, Note_on_c, 0, 72, 0
1, 335633, Note_on_c, 0, 44, 95
1, 335633, Note_on_c, 0, 56, 95
1, 335699, Note_on_c, 0, 56, 0
1, 335699, Note_on_c, 0, 44, 0
1, 335814, Note_on_c, 0, 41, 90
1, 335814, Note_on_c, 0, 53, 90
1, 335883, Note_on_c, 0, 53, 0
1, 335883, Note_on_c, 0, 41, 0
1, 336005, Note_on_c, 0, 64, 94
1, 336005, Note_on_c, 0, 67, 94
1, 336005, Note_on_c, 0, 72, 104
1, 336008, Note_on_c, 0, 76, 104
1, 336008, Note_on_c, 0, 36, 87
1, 336008, Note_on_c, 0, 48, 87
1, 336047, Control_c, 0, 64, 127
1, 336257, Note_on_c, 0, 76, 0
1, 336257, Note_on_c, 0, 64, 0
1, 336257, Note_on_c, 0, 67, 0
1, 336260, Note_on_c, 0, 72, 0
1, 336260, Note_on_c, 0, 72, 79
1, 336260, Note_on_c, 0, 76, 87
1, 336263, Note_on_c, 0, 67, 79
1, 336263, Note_on_c, 0, 79, 87
1, 336318, Note_on_c, 0, 79, 0
1, 336318, Note_on_c, 0, 72, 0
1, 336318, Note_on_c, 0, 76, 0
1, 336321, Note_on_c, 0, 67, 0
1, 336326, Control_c, 0, 64, 0
1, 336348, Note_on_c, 0, 67, 92
1, 336348, Note_on_c, 0, 72, 92
1, 336348, Note_on_c, 0, 76, 102
1, 336351, Note_on_c, 0, 79, 102
1, 336351, Note_on_c, 0, 48, 0
1, 336351, Note_on_c, 0, 36, 0
1, 336419, Note_on_c, 0, 79, 0
1, 336419, Note_on_c, 0, 67, 0
1, 336419, Note_on_c, 0, 72, 0
1, 336422, Note_on_c, 0, 76, 0
1, 336538, Note_on_c, 0, 84, 95
1, 336538, Note_on_c, 0, 79, 86
1, 336538, Note_on_c, 0, 76, 95
1, 336541, Note_on_c, 0, 72, 86
1, 336609, Note_on_c, 0, 72, 0
1, 336609, Note_on_c, 0, 84, 0
1, 336609, Note_on_c, 0, 79, 0
1, 336612, Note_on_c, 0, 76, 0
1, 336733, Note_on_c, 0, 72, 94
1, 336733, Note_on_c, 0, 77, 104
1, 336733, Note_on_c, 0, 80, 104
1, 336736, Note_on_c, 0, 48, 102
1, 336736, Note_on_c, 0, 60, 102
1, 336747, Control_c, 0, 64, 127
1, 336992, Note_on_c, 0, 60, 0
1, 336992, Note_on_c, 0, 48, 0
1, 336992, Note_on_c, 0, 44, 91
1, 336995, Note_on_c, 0, 56, 91
1, 337053, Note_on_c, 0, 56, 0
1, 337053, Note_on_c, 0, 44, 0
1, 337058, Control_c, 0, 64, 0
1, 337084, Note_on_c, 0, 80, 0
1, 337084, Note_on_c, 0, 77, 0
1, 337084, Note_on_c, 0, 72, 0
1, 337087, Note_on_c, 0, 44, 95
1, 337087, Note_on_c, 0, 56, 95
1, 337158, Note_on_c, 0, 56, 0
1, 337158, Note_on_c, 0, 44, 0
1, 337281, Note_on_c, 0, 41, 90
1, 337281, Note_on_c, 0, 53, 90
1, 337355, Note_on_c, 0, 53, 0
1, 337355, Note_on_c, 0, 41, 0
1, 337486, Note_on_c, 0, 84, 94
1, 337486, Note_on_c, 0, 79, 94
1, 337486, Note_on_c, 0, 76, 94
1, 337489, Note_on_c, 0, 72, 94
1, 337489, Note_on_c, 0, 36, 80
1, 337489, Note_on_c, 0, 48, 80
1, 337546, Control_c, 0, 64, 127
1, 337742, Note_on_c, 0, 72, 0
1, 337742, Note_on_c, 0, 84, 0
1, 337742, Note_on_c, 0, 79, 0
1, 337745, Note_on_c, 0, 76, 0
1, 337745, Note_on_c, 0, 72, 68
1, 337830, Note_on_c, 0, 72, 0
1, 337830, Note_on_c, 0, 72, 80
1, 337830, Note_on_c, 0, 48, 0
1, 337833, Note_on_c, 0, 36, 0
1, 338093, Note_on_c, 0, 72, 0
1, 338093, Note_on_c, 0, 72, 65
1, 338191, Note_on_c, 0, 72, 0
1, 338191, Note_on_c, 0, 84, 79
1, 338191, Note_on_c, 0, 79, 79
1, 338194, Note_on_c, 0, 76, 79
1, 338194, Note_on_c, 0, 72, 79
1, 338201, Control_c, 0, 64, 0
1, 338281, Control_c, 0, 64, 127
1, 338447, Note_on_c, 0, 72, 0
1, 338447, Note_on_c, 0, 84, 0
1, 338447, Note_on_c, 0, 79, 0
1, 338450, Note_on_c, 0, 76, 0
1, 338450, Note_on_c, 0, 72, 67
1, 338535, Note_on_c, 0, 72, 0
1, 338535, Note_on_c, 0, 72, 79
1, 338799, Note_on_c, 0, 72, 0
1, 338799, Note_on_c, 0, 72, 66
1, 338897, Note_on_c, 0, 72, 0
1, 338897, Note_on_c, 0, 72, 76
1, 338897, Note_on_c, 0, 67, 55
1, 338900, Note_on_c, 0, 64, 46
1, 338900, Note_on_c, 0, 58, 46
1, 338904, Control_c, 0, 64, 0
1, 338942, Control_c, 0, 64, 127
1, 339156, Note_on_c, 0, 72, 0
1, 339156, Note_on_c, 0, 73, 68
1, 339244, Note_on_c, 0, 73, 0
1, 339244, Note_on_c, 0, 73, 74
1, 339508, Note_on_c, 0, 73, 0
1, 339508, Note_on_c, 0, 72, 61
1, 339596, Note_on_c, 0, 72, 0
1, 339596, Note_on_c, 0, 72, 73
1, 339861, Note_on_c, 0, 72, 0
1, 339861, Note_on_c, 0, 72, 63
1, 339950, Note_on_c, 0, 72, 0
1, 339950, Note_on_c, 0, 72, 72
1, 340216, Note_on_c, 0, 72, 0
1, 340216, Note_on_c, 0, 72, 59
1, 340307, Note_on_c, 0, 72, 0
1, 340307, Note_on_c, 0, 72, 70
1, 340307, Note_on_c, 0, 58, 0
1, 340310, Note_on_c, 0, 64, 0
1, 340310, Note_on_c, 0, 67, 0
1, 340310, Note_on_c, 0, 65, 55
1, 340313, Note_on_c, 0, 60, 46
1, 340313, Note_on_c, 0, 57, 46
1, 340313, Control_c, 0, 64, 0
1, 340407, Control_c, 0, 64, 127
1, 340563, Note_on_c, 0, 72, 0
1, 340563, Note_on_c, 0, 77, 59
1, 340650, Note_on_c, 0, 77, 0
1, 340650, Note_on_c, 0, 77, 73
1, 340912, Note_on_c, 0, 77, 0
1, 340912, Note_on_c, 0, 72, 54
1, 341000, Note_on_c, 0, 72, 0
1, 341000, Note_on_c, 0, 72, 66
1, 341262, Note_on_c, 0, 72, 0
1, 341262, Note_on_c, 0, 72, 52
1, 341350, Note_on_c, 0, 72, 0
1, 341350, Note_on_c, 0, 72, 64
1, 341613, Note_on_c, 0, 72, 0
1, 341613, Note_on_c, 0, 72, 51
1, 341705, Note_on_c, 0, 72, 0
1, 341705, Note_on_c, 0, 72, 63
1, 341705, Note_on_c, 0, 57, 0
1, 341708, Note_on_c, 0, 60, 0
1, 341708, Note_on_c, 0, 65, 0
1, 341708, Note_on_c, 0, 64, 50
1, 341711, Note_on_c, 0, 55, 42
1, 341711, Note_on_c, 0, 58, 42
1, 341718, Control_c, 0, 64, 0
1, 341795, Control_c, 0, 64, 127
1, 341961, Note_on_c, 0, 72, 0
1, 341961, Note_on_c, 0, 74, 49
1, 342048, Note_on_c, 0, 74, 0
1, 342048, Note_on_c, 0, 74, 62
1, 342306, Note_on_c, 0, 74, 0
1, 342306, Note_on_c, 0, 72, 49
1, 342394, Note_on_c, 0, 72, 0
1, 342394, Note_on_c, 0, 72, 60
1, 342658, Note_on_c, 0, 72, 0
1, 342658, Note_on_c, 0, 82, 47
1, 342749, Note_on_c, 0, 82, 0
1, 342749, Note_on_c, 0, 82, 57
1, 343021, Note_on_c, 0, 82, 0
1, 343021, Note_on_c, 0, 76, 45
1, 343116, Note_on_c, 0, 76, 0
1, 343116, Note_on_c, 0, 89, 57
1, 343116, Note_on_c, 0, 77, 57
1, 343119, Note_on_c, 0, 58, 0
1, 343119, Note_on_c, 0, 55, 0
1, 343119, Note_on_c, 0, 64, 0
1, 343122, Note_on_c, 0, 65, 45
1, 343122, Note_on_c, 0, 57, 38
1, 343122, Note_on_c, 0, 53, 38
1, 343126, Control_c, 0, 64, 0
1, 343159, Control_c, 0, 64, 127
1, 343373, Note_on_c, 0, 77, 0
1, 343373, Note_on_c, 0, 89, 0
1, 343373, Note_on_c, 0, 84, 45
1, 343430, Note_on_c, 0, 84, 0
1, 343458, Note_on_c, 0, 84, 53
1, 343686, Note_on_c, 0, 84, 0
1, 343715, Note_on_c, 0, 84, 44
1, 343774, Note_on_c, 0, 84, 0
1, 343774, Note_on_c, 0, 53, 0
1, 343774, Note_on_c, 0, 57, 0
1, 343777, Note_on_c, 0, 65, 0
1, 343803, Note_on_c, 0, 83, 52
1, 343803, Note_on_c, 0, 53, 37
1, 343803, Note_on_c, 0, 57, 37
1, 343806, Note_on_c, 0, 60, 44
1, 344031, Note_on_c, 0, 83, 0
1, 344060, Note_on_c, 0, 84, 44
1, 344117, Note_on_c, 0, 84, 0
1, 344145, Note_on_c, 0, 84, 51
1, 344373, Note_on_c, 0, 84, 0
1, 344402, Note_on_c, 0, 84, 45
1, 344460, Note_on_c, 0, 84, 0
1, 344460, Note_on_c, 0, 60, 0
1, 344460, Note_on_c, 0, 57, 0
1, 344463, Note_on_c, 0, 53, 0
1, 344490, Note_on_c, 0, 81, 54
1, 344499, Control_c, 0, 64, 0
1, 344540, Control_c, 0, 64, 127
1, 344718, Note_on_c, 0, 81, 0
1, 344746, Note_on_c, 0, 84, 44
1, 344803, Note_on_c, 0, 84, 0
1, 344832, Note_on_c, 0, 93, 52
1, 344832, Note_on_c, 0, 53, 32
1, 344832, Note_on_c, 0, 57, 32
1, 344835, Note_on_c, 0, 60, 38
1, 345060, Note_on_c, 0, 93, 0
1, 345088, Note_on_c, 0, 91, 44
1, 345147, Note_on_c, 0, 91, 0
1, 345147, Note_on_c, 0, 60, 0
1, 345147, Note_on_c, 0, 57, 0
1, 345150, Note_on_c, 0, 53, 0
1, 345176, Note_on_c, 0, 91, 51
1, 345176, Note_on_c, 0, 53, 32
1, 345176, Note_on_c, 0, 57, 32
1, 345179, Note_on_c, 0, 60, 38
1, 345404, Note_on_c, 0, 91, 0
1, 345432, Note_on_c, 0, 93, 45
1, 345489, Note_on_c, 0, 93, 0
1, 345489, Note_on_c, 0, 60, 0
1, 345489, Note_on_c, 0, 57, 0
1, 345492, Note_on_c, 0, 53, 0
1, 345517, Note_on_c, 0, 93, 51
1, 345517, Note_on_c, 0, 53, 30
1, 345517, Note_on_c, 0, 57, 30
1, 345520, Note_on_c, 0, 60, 36
1, 345752, Note_on_c, 0, 93, 0
1, 345781, Note_on_c, 0, 89, 47
1, 345844, Note_on_c, 0, 89, 0
1, 345844, Note_on_c, 0, 60, 0
1, 345844, Note_on_c, 0, 57, 0
1, 345847, Note_on_c, 0, 53, 0
1, 345876, Note_on_c, 0, 88, 58
1, 345876, Note_on_c, 0, 62, 41
1, 345876, Note_on_c, 0, 58, 34
1, 345879, Note_on_c, 0, 53, 34
1, 345884, Control_c, 0, 64, 0
1, 345921, Control_c, 0, 64, 127
1, 346104, Note_on_c, 0, 88, 0
1, 346132, Note_on_c, 0, 86, 43
1, 346189, Note_on_c, 0, 86, 0
1, 346218, Note_on_c, 0, 86, 53
1, 346446, Note_on_c, 0, 86, 0
1, 346474, Note_on_c, 0, 86, 45
1, 346534, Note_on_c, 0, 86, 0
1, 346534, Note_on_c, 0, 53, 0
1, 346534, Note_on_c, 0, 58, 0
1, 346537, Note_on_c, 0, 62, 0
1, 346563, Note_on_c, 0, 85, 55
1, 346563, Note_on_c, 0, 53, 34
1, 346563, Note_on_c, 0, 58, 34
1, 346566, Note_on_c, 0, 62, 40
1, 346574, Control_c, 0, 64, 0
1, 346598, Control_c, 0, 64, 127
1, 346791, Note_on_c, 0, 85, 0
1, 346820, Note_on_c, 0, 86, 44
1, 346877, Note_on_c, 0, 86, 0
1, 346906, Note_on_c, 0, 86, 54
1, 347137, Note_on_c, 0, 86, 0
1, 347166, Note_on_c, 0, 86, 43
1, 347228, Note_on_c, 0, 86, 0
1, 347228, Note_on_c, 0, 62, 0
1, 347228, Note_on_c, 0, 58, 0
1, 347231, Note_on_c, 0, 53, 0
1, 347259, Note_on_c, 0, 82, 54
1, 347268, Control_c, 0, 64, 0
1, 347298, Control_c, 0, 64, 127
1, 347516, Note_on_c, 0, 82, 0
1, 347516, Note_on_c, 0, 86, 45
1, 347601, Note_on_c, 0, 86, 0
1, 347601, Note_on_c, 0, 91, 53
1, 347601, Note_on_c, 0, 64, 34
1, 347604, Note_on_c, 0, 60, 29
1, 347604, Note_on_c, 0, 58, 29
1, 347604, Note_on_c, 0, 53, 29
1, 347858, Note_on_c, 0, 91, 0
1, 347858, Note_on_c, 0, 89, 44
1, 347917, Note_on_c, 0, 53, 0
1, 347917, Note_on_c, 0, 64, 0
1, 347917, Note_on_c, 0, 60, 0
1, 347920, Note_on_c, 0, 58, 0
1, 347947, Note_on_c, 0, 89, 0
1, 347947, Note_on_c, 0, 89, 54
1, 347947, Note_on_c, 0, 62, 34
1, 347950, Note_on_c, 0, 60, 29
1, 347950, Note_on_c, 0, 58, 29
1, 347950, Note_on_c, 0, 53, 29
1, 347959, Control_c, 0, 64, 0
1, 347999, Control_c, 0, 64, 127
1, 348205, Note_on_c, 0, 89, 0
1, 348205, Note_on_c, 0, 91, 44
1, 348264, Note_on_c, 0, 53, 0
1, 348264, Note_on_c, 0, 62, 0
1, 348264, Note_on_c, 0, 60, 0
1, 348267, Note_on_c, 0, 58, 0
1, 348293, Note_on_c, 0, 91, 0
1, 348293, Note_on_c, 0, 91, 52
1, 348293, Note_on_c, 0, 64, 34
1, 348296, Note_on_c, 0, 60, 29
1, 348296, Note_on_c, 0, 58, 29
1, 348296, Note_on_c, 0, 53, 29
1, 348560, Note_on_c, 0, 91, 0
1, 348560, Note_on_c, 0, 88, 43
1, 348624, Note_on_c, 0, 53, 0
1, 348624, Note_on_c, 0, 64, 0
1, 348624, Note_on_c, 0, 60, 0
1, 348627, Note_on_c, 0, 58, 0
1, 348655, Note_on_c, 0, 88, 0
1, 348655, Note_on_c, 0, 84, 57
1, 348655, Note_on_c, 0, 65, 47
1, 348658, Note_on_c, 0, 57, 39
1, 348658, Note_on_c, 0, 53, 39
1, 348663, Control_c, 0, 64, 0
1, 348698, Control_c, 0, 64, 127
1, 348912, Note_on_c, 0, 84, 0
1, 348912, Note_on_c, 0, 72, 45
1, 348997, Note_on_c, 0, 72, 0
1, 348997, Note_on_c, 0, 72, 53
1, 349255, Note_on_c, 0, 72, 0
1, 349255, Note_on_c, 0, 72, 46
1, 349313, Note_on_c, 0, 53, 0
1, 349313, Note_on_c, 0, 57, 0
1, 349313, Note_on_c, 0, 65, 0
1, 349342, Note_on_c, 0, 72, 0
1, 349342, Note_on_c, 0, 71, 52
1, 349342, Note_on_c, 0, 53, 33
1, 349345, Note_on_c, 0, 56, 33
1, 349345, Note_on_c, 0, 60, 39
1, 349353, Control_c, 0, 64, 0
1, 349393, Control_c, 0, 64, 127
1, 349599, Note_on_c, 0, 71, 0
1, 349599, Note_on_c, 0, 72, 43
1, 349684, Note_on_c, 0, 72, 0
1, 349684, Note_on_c, 0, 72, 51
1, 349941, Note_on_c, 0, 72, 0
1, 349941, Note_on_c, 0, 72, 45
1, 350000, Note_on_c, 0, 60, 0
1, 350000, Note_on_c, 0, 56, 0
1, 350000, Note_on_c, 0, 53, 0
1, 350029, Note_on_c, 0, 72, 0
1, 350029, Note_on_c, 0, 68, 54
1, 350038, Control_c, 0, 64, 0
1, 350080, Control_c, 0, 64, 127
1, 350285, Note_on_c, 0, 68, 0
1, 350285, Note_on_c, 0, 72, 43
1, 350371, Note_on_c, 0, 72, 0
1, 350371, Note_on_c, 0, 80, 52
1, 350371, Note_on_c, 0, 53, 32
1, 350374, Note_on_c, 0, 56, 32
1, 350374, Note_on_c, 0, 60, 38
1, 350627, Note_on_c, 0, 80, 0
1, 350627, Note_on_c, 0, 79, 41
1, 350686, Note_on_c, 0, 60, 0
1, 350686, Note_on_c, 0, 56, 0
1, 350686, Note_on_c, 0, 53, 0
1, 350715, Note_on_c, 0, 79, 0
1, 350715, Note_on_c, 0, 79, 51
1, 350715, Note_on_c, 0, 53, 32
1, 350718, Note_on_c, 0, 56, 32
1, 350718, Note_on_c, 0, 60, 38
1, 350731, Control_c, 0, 64, 0
1, 350750, Control_c, 0, 64, 127
1, 350971, Note_on_c, 0, 79, 0
1, 350971, Note_on_c, 0, 80, 43
1, 351028, Note_on_c, 0, 60, 0
1, 351028, Note_on_c, 0, 56, 0
1, 351028, Note_on_c, 0, 53, 0
1, 351056, Note_on_c, 0, 80, 0
1, 351056, Note_on_c, 0, 80, 51
1, 351056, Note_on_c, 0, 53, 30
1, 351059, Note_on_c, 0, 56, 30
1, 351059, Note_on_c, 0, 60, 36
1, 351314, Note_on_c, 0, 80, 0
1, 351314, Note_on_c, 0, 77, 44
1, 351375, Note_on_c, 0, 60, 0
1, 351375, Note_on_c, 0, 56, 0
1, 351375, Note_on_c, 0, 53, 0
1, 351406, Note_on_c, 0, 77, 0
1, 351406, Note_on_c, 0, 79, 58
1, 351406, Note_on_c, 0, 65, 41
1, 351409, Note_on_c, 0, 61, 34
1, 351409, Note_on_c, 0, 56, 34
1, 351409, Note_on_c, 0, 53, 34
1, 351415, Control_c, 0, 64, 0
1, 351451, Control_c, 0, 64, 127
1, 351662, Note_on_c, 0, 79, 0
1, 351662, Note_on_c, 0, 77, 49
1, 351748, Note_on_c, 0, 77, 0
1, 351748, Note_on_c, 0, 77, 53
1, 352004, Note_on_c, 0, 77, 0
1, 352004, Note_on_c, 0, 77, 51
1, 352063, Note_on_c, 0, 53, 0
1, 352063, Note_on_c, 0, 65, 0
1, 352063, Note_on_c, 0, 61, 0
1, 352066, Note_on_c, 0, 56, 0
1, 352093, Note_on_c, 0, 77, 0
1, 352093, Note_on_c, 0, 76, 55
1, 352093, Note_on_c, 0, 56, 34
1, 352096, Note_on_c, 0, 61, 34
1, 352096, Note_on_c, 0, 65, 40
1, 352105, Control_c, 0, 64, 0
1, 352128, Control_c, 0, 64, 127
1, 352350, Note_on_c, 0, 76, 0
1, 352350, Note_on_c, 0, 77, 51
1, 352436, Note_on_c, 0, 77, 0
1, 352436, Note_on_c, 0, 77, 54
1, 352696, Note_on_c, 0, 77, 0
1, 352696, Note_on_c, 0, 77, 51
1, 352758, Note_on_c, 0, 65, 0
1, 352758, Note_on_c, 0, 61, 0
1, 352758, Note_on_c, 0, 56, 0
1, 352789, Note_on_c, 0, 77, 0
1, 352789, Note_on_c, 0, 73, 54
1, 352798, Control_c, 0, 64, 0
1, 352827, Control_c, 0, 64, 127
1, 353045, Note_on_c, 0, 73, 0
1, 353045, Note_on_c, 0, 77, 46
1, 353131, Note_on_c, 0, 77, 0
1, 353131, Note_on_c, 0, 82, 53
1, 353131, Note_on_c, 0, 67, 32
1, 353134, Note_on_c, 0, 63, 27
1, 353134, Note_on_c, 0, 61, 27
1, 353134, Note_on_c, 0, 56, 27
1, 353387, Note_on_c, 0, 82, 0
1, 353387, Note_on_c, 0, 80, 45
1, 353447, Note_on_c, 0, 56, 0
1, 353447, Note_on_c, 0, 67, 0
1, 353447, Note_on_c, 0, 63, 0
1, 353450, Note_on_c, 0, 61, 0
1, 353477, Note_on_c, 0, 80, 0
1, 353477, Note_on_c, 0, 80, 54
1, 353477, Note_on_c, 0, 65, 34
1, 353480, Note_on_c, 0, 63, 29
1, 353480, Note_on_c, 0, 61, 29
1, 353480, Note_on_c, 0, 56, 29
1, 353490, Control_c, 0, 64, 0
1, 353529, Control_c, 0, 64, 127
1, 353735, Note_on_c, 0, 80, 0
1, 353735, Note_on_c, 0, 82, 44
1, 353794, Note_on_c, 0, 56, 0
1, 353794, Note_on_c, 0, 65, 0
1, 353794, Note_on_c, 0, 63, 0
1, 353797, Note_on_c, 0, 61, 0
1, 353823, Note_on_c, 0, 82, 0
1, 353823, Note_on_c, 0, 82, 52
1, 353823, Note_on_c, 0, 67, 32
1, 353826, Note_on_c, 0, 63, 27
1, 353826, Note_on_c, 0, 61, 27
1, 353826, Note_on_c, 0, 56, 27
1, 354086, Note_on_c, 0, 82, 0
1, 354086, Note_on_c, 0, 79, 44
1, 354145, Note_on_c, 0, 56, 0
1, 354145, Note_on_c, 0, 67, 0
1, 354145, Note_on_c, 0, 63, 0
1, 354148, Note_on_c, 0, 61, 0
1, 354175, Note_on_c, 0, 79, 0
1, 354175, Note_on_c, 0, 75, 55
1, 354175, Note_on_c, 0, 56, 30
1, 354178, Note_on_c, 0, 60, 30
1, 354178, Note_on_c, 0, 63, 30
1, 354178, Note_on_c, 0, 68, 36
1, 354181, Control_c, 0, 64, 0
1, 354241, Control_c, 0, 64, 127
1, 354436, Note_on_c, 0, 75, 0
1, 354436, Note_on_c, 0, 84, 50
1, 354521, Note_on_c, 0, 84, 0
1, 354521, Note_on_c, 0, 84, 58
1, 354778, Note_on_c, 0, 84, 0
1, 354778, Note_on_c, 0, 82, 46
1, 354863, Note_on_c, 0, 82, 0
1, 354863, Note_on_c, 0, 82, 56
1, 355120, Note_on_c, 0, 82, 0
1, 355120, Note_on_c, 0, 80, 45
1, 355205, Note_on_c, 0, 80, 0
1, 355205, Note_on_c, 0, 80, 54
1, 355462, Note_on_c, 0, 80, 0
1, 355462, Note_on_c, 0, 78, 45
1, 355551, Note_on_c, 0, 78, 0
1, 355551, Note_on_c, 0, 78, 54
1, 355551, Note_on_c, 0, 68, 0
1, 355554, Note_on_c, 0, 56, 0
1, 355554, Note_on_c, 0, 60, 0
1, 355554, Note_on_c, 0, 63, 0
1, 355557, Note_on_c, 0, 57, 27
1, 355557, Note_on_c, 0, 60, 27
1, 355557, Note_on_c, 0, 63, 27
1, 355560, Note_on_c, 0, 65, 32
1, 355560, Control_c, 0, 64, 0
1, 355621, Control_c, 0, 64, 127
1, 355812, Note_on_c, 0, 78, 0
1, 355812, Note_on_c, 0, 77, 45
1, 355898, Note_on_c, 0, 77, 0
1, 355898, Note_on_c, 0, 77, 50
1, 356158, Note_on_c, 0, 77, 0
1, 356158, Note_on_c, 0, 77, 45
1, 356247, Note_on_c, 0, 77, 0
1, 356247, Note_on_c, 0, 76, 50
1, 356503, Note_on_c, 0, 76, 0
1, 356503, Note_on_c, 0, 75, 44
1, 356590, Note_on_c, 0, 75, 0
1, 356590, Note_on_c, 0, 75, 50
1, 356849, Note_on_c, 0, 75, 0
1, 356849, Note_on_c, 0, 75, 49
1, 356936, Note_on_c, 0, 75, 0
1, 356936, Note_on_c, 0, 73, 55
1, 356936, Note_on_c, 0, 65, 0
1, 356939, Note_on_c, 0, 57, 0
1, 356939, Note_on_c, 0, 60, 0
1, 356939, Note_on_c, 0, 63, 0
1, 356942, Note_on_c, 0, 58, 30
1, 356942, Note_on_c, 0, 61, 30
1, 356942, Note_on_c, 0, 65, 36
1, 356945, Control_c, 0, 64, 0
1, 356982, Control_c, 0, 64, 127
1, 357202, Note_on_c, 0, 73, 0
1, 357202, Note_on_c, 0, 85, 55
1, 357287, Note_on_c, 0, 85, 0
1, 357287, Note_on_c, 0, 85, 58
1, 357544, Note_on_c, 0, 85, 0
1, 357544, Note_on_c, 0, 84, 48
1, 357629, Note_on_c, 0, 84, 0
1, 357629, Note_on_c, 0, 84, 56
1, 357886, Note_on_c, 0, 84, 0
1, 357886, Note_on_c, 0, 82, 48
1, 357971, Note_on_c, 0, 82, 0
1, 357971, Note_on_c, 0, 82, 54
1, 358228, Note_on_c, 0, 82, 0
1, 358228, Note_on_c, 0, 80, 48
1, 358317, Note_on_c, 0, 80, 0
1, 358317, Note_on_c, 0, 80, 54
1, 358317, Note_on_c, 0, 65, 0
1, 358320, Note_on_c, 0, 61, 0
1, 358320, Note_on_c, 0, 58, 0
1, 358320, Note_on_c, 0, 59, 27
1, 358323, Note_on_c, 0, 62, 27
1, 358323, Note_on_c, 0, 65, 27
1, 358323, Note_on_c, 0, 67, 32
1, 358326, Control_c, 0, 64, 0
1, 358412, Control_c, 0, 64, 127
1, 358578, Note_on_c, 0, 80, 0
1, 358578, Note_on_c, 0, 79, 45
1, 358664, Note_on_c, 0, 79, 0
1, 358664, Note_on_c, 0, 79, 50
1, 358924, Note_on_c, 0, 79, 0
1, 358924, Note_on_c, 0, 79, 44
1, 359013, Note_on_c, 0, 79, 0
1, 359013, Note_on_c, 0, 78, 50
1, 359269, Note_on_c, 0, 78, 0
1, 359269, Note_on_c, 0, 77, 46
1, 359356, Note_on_c, 0, 77, 0
1, 359356, Note_on_c, 0, 77, 50
1, 359615, Note_on_c, 0, 77, 0
1, 359615, Note_on_c, 0, 77, 46
1, 359702, Note_on_c, 0, 77, 0
1, 359702, Note_on_c, 0, 76, 55
1, 359702, Note_on_c, 0, 67, 0
1, 359705, Note_on_c, 0, 59, 0
1, 359705, Note_on_c, 0, 62, 0
1, 359705, Note_on_c, 0, 65, 0
1, 359708, Note_on_c, 0, 60, 30
1, 359708, Note_on_c, 0, 64, 30
1, 359708, Note_on_c, 0, 67, 35
1, 359716, Control_c, 0, 64, 0
1, 359799, Control_c, 0, 64, 127
1, 359962, Note_on_c, 0, 76, 0
1, 359962, Note_on_c, 0, 88, 51
1, 360047, Note_on_c, 0, 88, 0
1, 360047, Note_on_c, 0, 88, 59
1, 360304, Note_on_c, 0, 88, 0
1, 360304, Note_on_c, 0, 88, 51
1, 360389, Note_on_c, 0, 88, 0
1, 360389, Note_on_c, 0, 91, 61
1, 360389, Note_on_c, 0, 67, 0
1, 360392, Note_on_c, 0, 64, 0
1, 360392, Note_on_c, 0, 60, 0
1, 360392, Note_on_c, 0, 67, 32
1, 360395, Note_on_c, 0, 70, 38
1, 360395, Note_on_c, 0, 61, 32
1, 360404, Control_c, 0, 64, 0
1, 360515, Control_c, 0, 64, 127
1, 360646, Note_on_c, 0, 91, 0
1, 360646, Note_on_c, 0, 89, 52
1, 360733, Note_on_c, 0, 89, 0
1, 360733, Note_on_c, 0, 89, 60
1, 360993, Note_on_c, 0, 89, 0
1, 360993, Note_on_c, 0, 89, 48
1, 361081, Note_on_c, 0, 89, 0
1, 361081, Note_on_c, 0, 89, 60
1, 361081, Note_on_c, 0, 61, 0
1, 361084, Note_on_c, 0, 60, 42
1, 361091, Control_c, 0, 64, 0
1, 361182, Control_c, 0, 64, 127
1, 361338, Note_on_c, 0, 89, 0
1, 361338, Note_on_c, 0, 88, 51
1, 361423, Note_on_c, 0, 88, 0
1, 361423, Note_on_c, 0, 88, 58
1, 361680, Note_on_c, 0, 88, 0
1, 361680, Note_on_c, 0, 88, 50
1, 361765, Note_on_c, 0, 88, 0
1, 361765, Note_on_c, 0, 88, 58
1, 361765, Note_on_c, 0, 60, 0
1, 361768, Note_on_c, 0, 70, 0
1, 361768, Note_on_c, 0, 67, 0
1, 361768, Note_on_c, 0, 60, 31
1, 361771, Note_on_c, 0, 65, 31
1, 361771, Note_on_c, 0, 68, 37
1, 361780, Control_c, 0, 64, 0
1, 361841, Control_c, 0, 64, 127
1, 362022, Note_on_c, 0, 88, 0
1, 362022, Note_on_c, 0, 83, 46
1, 362108, Note_on_c, 0, 83, 0
1, 362108, Note_on_c, 0, 83, 55
1, 362368, Note_on_c, 0, 83, 0
1, 362368, Note_on_c, 0, 83, 52
1, 362457, Note_on_c, 0, 83, 0
1, 362457, Note_on_c, 0, 86, 66
1, 362457, Note_on_c, 0, 68, 0
1, 362460, Note_on_c, 0, 65, 0
1, 362460, Note_on_c, 0, 60, 0
1, 362460, Note_on_c, 0, 67, 38
1, 362463, Note_on_c, 0, 64, 32
1, 362463, Note_on_c, 0, 60, 32
1, 362467, Control_c, 0, 64, 0
1, 362537, Control_c, 0, 64, 127
1, 362713, Note_on_c, 0, 86, 0
1, 362713, Note_on_c, 0, 84, 50
1, 362799, Note_on_c, 0, 84, 0
1, 362799, Note_on_c, 0, 84, 59
1, 363055, Note_on_c, 0, 84, 0
1, 363055, Note_on_c, 0, 76, 49
1, 363143, Note_on_c, 0, 76, 0
1, 363143, Note_on_c, 0, 79, 57
1, 363143, Note_on_c, 0, 60, 0
1, 363146, Note_on_c, 0, 64, 0
1, 363146, Note_on_c, 0, 67, 0
1, 363146, Note_on_c, 0, 49, 27
1, 363149, Note_on_c, 0, 55, 27
1, 363149, Note_on_c, 0, 58, 32
1, 363157, Control_c, 0, 64, 0
1, 363229, Control_c, 0, 64, 127
1, 363400, Note_on_c, 0, 79, 0
1, 363400, Note_on_c, 0, 77, 45
1, 363487, Note_on_c, 0, 77, 0
1, 363487, Note_on_c, 0, 77, 54
1, 363748, Note_on_c, 0, 77, 0
1, 363748, Note_on_c, 0, 77, 48
1, 363837, Note_on_c, 0, 77, 0
1, 363837, Note_on_c, 0, 77, 56
1, 363837, Note_on_c, 0, 49, 0
1, 363840, Note_on_c, 0, 48, 32
1, 363852, Control_c, 0, 64, 0
1, 363923, Control_c, 0, 64, 127
1, 364094, Note_on_c, 0, 77, 0
1, 364094, Note_on_c, 0, 76, 49
1, 364179, Note_on_c, 0, 76, 0
1, 364179, Note_on_c, 0, 76, 56
1, 364436, Note_on_c, 0, 76, 0
1, 364436, Note_on_c, 0, 76, 47
1, 364521, Note_on_c, 0, 76, 0
1, 364521, Note_on_c, 0, 76, 54
1, 364521, Note_on_c, 0, 48, 0
1, 364524, Note_on_c, 0, 58, 0
1, 364524, Note_on_c, 0, 55, 0
1, 364524, Note_on_c, 0, 48, 30
1, 364527, Note_on_c, 0, 53, 30
1, 364527, Note_on_c, 0, 56, 35
1, 364778, Note_on_c, 0, 76, 0
1, 364778, Note_on_c, 0, 71, 46
1, 364865, Note_on_c, 0, 71, 0
1, 364865, Note_on_c, 0, 71, 54
1, 365126, Note_on_c, 0, 71, 0
1, 365126, Note_on_c, 0, 71, 47
1, 365215, Note_on_c, 0, 71, 0
1, 365215, Note_on_c, 0, 74, 56
1, 365215, Note_on_c, 0, 56, 0
1, 365218, Note_on_c, 0, 53, 0
1, 365218, Note_on_c, 0, 48, 0
1, 365218, Note_on_c, 0, 48, 32
1, 365221, Note_on_c, 0, 52, 32
1, 365221, Note_on_c, 0, 55, 38
1, 365224, Control_c, 0, 64, 0
1, 365295, Control_c, 0, 64, 127
1, 365471, Note_on_c, 0, 74, 0
1, 365471, Note_on_c, 0, 72, 46
1, 365557, Note_on_c, 0, 72, 0
1, 365557, Note_on_c, 0, 72, 54
1, 365813, Note_on_c, 0, 72, 0
1, 365813, Note_on_c, 0, 72, 46
1, 365900, Note_on_c, 0, 72, 0
1, 365900, Note_on_c, 0, 72, 53
1, 366161, Note_on_c, 0, 72, 0
1, 366161, Note_on_c, 0, 76, 49
1, 366248, Note_on_c, 0, 76, 0
1, 366248, Note_on_c, 0, 76, 57
1, 366510, Note_on_c, 0, 76, 0
1, 366510, Note_on_c, 0, 76, 48
1, 366604, Note_on_c, 0, 76, 0
1, 366604, Note_on_c, 0, 76, 57
1, 366604, Note_on_c, 0, 55, 0
1, 366607, Note_on_c, 0, 52, 0
1, 366607, Note_on_c, 0, 48, 0
1, 366607, Note_on_c, 0, 59, 32
1, 366610, Note_on_c, 0, 62, 32
1, 366610, Note_on_c, 0, 64, 38
1, 366613, Control_c, 0, 64, 0
1, 366700, Control_c, 0, 64, 127
1, 366868, Note_on_c, 0, 76, 0
1, 366868, Note_on_c, 0, 68, 48
1, 366956, Note_on_c, 0, 68, 0
1, 366956, Note_on_c, 0, 68, 57
1, 367221, Note_on_c, 0, 68, 0
1, 367221, Note_on_c, 0, 68, 47
1, 367310, Note_on_c, 0, 68, 0
1, 367310, Note_on_c, 0, 68, 55
1, 367577, Note_on_c, 0, 68, 0
1, 367577, Note_on_c, 0, 76, 49
1, 367667, Note_on_c, 0, 76, 0
1, 367667, Note_on_c, 0, 76, 57
1, 367936, Note_on_c, 0, 76, 0
1, 367936, Note_on_c, 0, 76, 47
1, 368034, Note_on_c, 0, 76, 0
1, 368034, Note_on_c, 0, 76, 55
1, 368034, Note_on_c, 0, 64, 0
1, 368037, Note_on_c, 0, 62, 0
1, 368037, Note_on_c, 0, 59, 0
1, 368037, Note_on_c, 0, 57, 30
1, 368040, Note_on_c, 0, 62, 30
1, 368040, Note_on_c, 0, 64, 36
1, 368040, Control_c, 0, 64, 0
1, 368128, Control_c, 0, 64, 127
1, 368302, Note_on_c, 0, 76, 0
1, 368302, Note_on_c, 0, 69, 42
1, 368392, Note_on_c, 0, 69, 0
1, 368392, Note_on_c, 0, 69, 50
1, 368660, Note_on_c, 0, 69, 0
1, 368660, Note_on_c, 0, 69, 42
1, 368751, Note_on_c, 0, 69, 0
1, 368751, Note_on_c, 0, 69, 49
1, 369024, Note_on_c, 0, 69, 0
1, 369024, Note_on_c, 0, 76, 44
1, 369116, Note_on_c, 0, 76, 0
1, 369116, Note_on_c, 0, 76, 49
1, 369391, Note_on_c, 0, 76, 0
1, 369391, Note_on_c, 0, 76, 44
1, 369488, Note_on_c, 0, 76, 0
1, 369488, Note_on_c, 0, 76, 51
1, 369488, Note_on_c, 0, 64, 0
1, 369491, Note_on_c, 0, 62, 0
1, 369491, Note_on_c, 0, 57, 0
1, 369491, Note_on_c, 0, 56, 27
1, 369494, Note_on_c, 0, 62, 27
1, 369494, Note_on_c, 0, 64, 32
1, 369499, Control_c, 0, 64, 0
1, 369585, Control_c, 0, 64, 127
1, 369763, Note_on_c, 0, 76, 0
1, 369763, Note_on_c, 0, 71, 43
1, 369857, Note_on_c, 0, 71, 0
1, 369857, Note_on_c, 0, 71, 47
1, 370140, Note_on_c, 0, 71, 0
1, 370140, Note_on_c, 0, 71, 42
1, 370237, Note_on_c, 0, 71, 0
1, 370237, Note_on_c, 0, 71, 47
1, 370526, Note_on_c, 0, 71, 0
1, 370526, Note_on_c, 0, 77, 39
1, 370628, Note_on_c, 0, 77, 0
1, 370628, Note_on_c, 0, 77, 44
1, 370945, Note_on_c, 0, 77, 0
1, 370945, Note_on_c, 0, 77, 40
1, 371115, Note_on_c, 0, 77, 0
1, 371115, Note_on_c, 0, 68, 47
1, 371115, Note_on_c, 0, 74, 47
1, 371118, Note_on_c, 0, 76, 47
1, 371118, Note_on_c, 0, 64, 0
1, 371118, Note_on_c, 0, 62, 0
1, 371121, Note_on_c, 0, 56, 0
1, 371121, Note_on_c, 0, 52, 43
1, 371125, Control_c, 0, 64, 0
1, 371267, Control_c, 0, 64, 127
1, 371877, Note_on_c, 0, 76, 0
1, 371877, Note_on_c, 0, 74, 0
1, 371877, Note_on_c, 0, 68, 0
1, 371880, Note_on_c, 0, 59, 40
1, 371886, Control_c, 0, 64, 0
1, 371892, Note_on_c, 0, 52, 0
1, 372107, Control_c, 0, 64, 127
1, 372632, Note_on_c, 0, 58, 46
1, 372646, Control_c, 0, 64, 0
1, 372646, Note_on_c, 0, 59, 0
1, 372760, Control_c, 0, 64, 127
1, 373371, Note_on_c, 0, 59, 44
1, 373376, Control_c, 0, 64, 0
1, 373386, Note_on_c, 0, 58, 0
1, 373524, Note_on_c, 0, 59, 0
1, 373648, Note_on_c, 0, 65, 42
1, 373736, Note_on_c, 0, 65, 0
1, 373736, Note_on_c, 0, 65, 46
1, 374003, Note_on_c, 0, 65, 0
1, 374003, Note_on_c, 0, 65, 42
1, 374101, Note_on_c, 0, 65, 0
1, 374101, Note_on_c, 0, 56, 46
1, 374101, Note_on_c, 0, 62, 46
1, 374104, Note_on_c, 0, 64, 46
1, 374104, Note_on_c, 0, 40, 41
1, 374339, Control_c, 0, 64, 127
1, 374862, Note_on_c, 0, 64, 0
1, 374862, Note_on_c, 0, 62, 0
1, 374862, Note_on_c, 0, 56, 0
1, 374865, Note_on_c, 0, 47, 43
1, 374878, Note_on_c, 0, 40, 0
1, 374878, Control_c, 0, 64, 0
1, 375072, Control_c, 0, 64, 127
1, 375618, Note_on_c, 0, 46, 48
1, 375629, Control_c, 0, 64, 0
1, 375633, Note_on_c, 0, 47, 0
1, 375745, Control_c, 0, 64, 127
1, 376356, Note_on_c, 0, 47, 45
1, 376372, Note_on_c, 0, 46, 0
1, 376381, Control_c, 0, 64, 0
1, 376510, Note_on_c, 0, 47, 0
1, 378572, Note_on_c, 0, 69, 60
1, 378572, Control_c, 0, 91, 127
1, 378572, Note_on_c, 0, 57, 52
1, 378575, Control_c, 0, 91, 127
1, 378575, Control_c, 0, 64, 0
1, 378634, Control_c, 0, 64, 127
1, 379322, Note_on_c, 0, 76, 60
1, 379322, Note_on_c, 0, 64, 52
1, 379336, Control_c, 0, 64, 0
1, 379336, Note_on_c, 0, 69, 0
1, 379336, Note_on_c, 0, 57, 0
1, 379613, Control_c, 0, 64, 127
1, 380070, Note_on_c, 0, 75, 63
1, 380070, Note_on_c, 0, 63, 54
1, 380082, Control_c, 0, 64, 0
1, 380085, Note_on_c, 0, 76, 0
1, 380085, Note_on_c, 0, 64, 0
1, 380196, Control_c, 0, 64, 127
1, 380767, Control_c, 0, 64, 0
1, 380796, Note_on_c, 0, 76, 57
1, 380796, Note_on_c, 0, 64, 48
1, 380812, Note_on_c, 0, 75, 0
1, 380812, Note_on_c, 0, 63, 0
1, 380950, Note_on_c, 0, 76, 0
1, 380950, Note_on_c, 0, 64, 0
1, 381166, Note_on_c, 0, 72, 59
1, 381166, Note_on_c, 0, 60, 49
1, 381212, Control_c, 0, 64, 127
1, 381447, Note_on_c, 0, 71, 57
1, 381447, Note_on_c, 0, 59, 49
1, 381463, Note_on_c, 0, 72, 0
1, 381463, Note_on_c, 0, 60, 0
1, 381544, Note_on_c, 0, 69, 58
1, 381544, Note_on_c, 0, 57, 48
1, 381554, Control_c, 0, 64, 0
1, 381559, Note_on_c, 0, 71, 0
1, 381559, Note_on_c, 0, 59, 0
1, 381664, Control_c, 0, 64, 127
1, 382267, Note_on_c, 0, 69, 0
1, 382267, Note_on_c, 0, 64, 68
1, 382267, Note_on_c, 0, 56, 68
1, 382270, Note_on_c, 0, 59, 68
1, 382270, Note_on_c, 0, 57, 0
1, 382270, Note_on_c, 0, 52, 62
1, 382276, Control_c, 0, 64, 0
1, 382539, Control_c, 0, 64, 127
1, 383018, Note_on_c, 0, 59, 0
1, 383018, Note_on_c, 0, 56, 0
1, 383018, Note_on_c, 0, 64, 0
1, 383021, Note_on_c, 0, 60, 62
1, 383021, Note_on_c, 0, 52, 0
1, 383021, Note_on_c, 0, 48, 57
1, 383030, Control_c, 0, 64, 0
1, 383145, Control_c, 0, 64, 127
1, 383754, Note_on_c, 0, 60, 0
1, 383754, Note_on_c, 0, 57, 61
1, 383754, Note_on_c, 0, 48, 0
1, 383757, Note_on_c, 0, 45, 49
1, 383896, Note_on_c, 0, 57, 0
1, 383896, Note_on_c, 0, 45, 0
1, 383960, Control_c, 0, 64, 0
1, 384512, Note_on_c, 0, 57, 60
1, 384512, Note_on_c, 0, 45, 52
1, 384596, Control_c, 0, 64, 127
1, 385263, Note_on_c, 0, 57, 0
1, 385263, Note_on_c, 0, 65, 70
1, 385263, Note_on_c, 0, 57, 70
1, 385266, Note_on_c, 0, 45, 0
1, 385266, Note_on_c, 0, 38, 59
1, 385276, Control_c, 0, 64, 0
1, 385606, Control_c, 0, 64, 127
1, 385989, Note_on_c, 0, 57, 0
1, 385989, Note_on_c, 0, 65, 0
1, 385989, Note_on_c, 0, 58, 77
1, 385992, Note_on_c, 0, 67, 77
1, 385992, Note_on_c, 0, 38, 0
1, 385992, Note_on_c, 0, 37, 62
1, 386002, Control_c, 0, 64, 0
1, 386089, Control_c, 0, 64, 127
1, 386643, Control_c, 0, 64, 0
1, 386683, Note_on_c, 0, 67, 0
1, 386683, Note_on_c, 0, 58, 0
1, 386683, Note_on_c, 0, 57, 64
1, 386686, Note_on_c, 0, 65, 64
1, 386686, Note_on_c, 0, 37, 0
1, 386686, Note_on_c, 0, 38, 52
1, 386840, Note_on_c, 0, 65, 0
1, 386840, Note_on_c, 0, 57, 0
1, 386840, Note_on_c, 0, 38, 0
1, 387055, Note_on_c, 0, 57, 61
1, 387055, Note_on_c, 0, 33, 54
1, 387055, Note_on_c, 0, 45, 54
1, 387101, Control_c, 0, 64, 127
1, 387334, Note_on_c, 0, 59, 64
1, 387334, Note_on_c, 0, 47, 55
1, 387334, Note_on_c, 0, 35, 55
1, 387350, Note_on_c, 0, 57, 0
1, 387350, Note_on_c, 0, 45, 0
1, 387350, Note_on_c, 0, 33, 0
1, 387429, Note_on_c, 0, 60, 62
1, 387429, Note_on_c, 0, 36, 55
1, 387429, Note_on_c, 0, 48, 55
1, 387436, Control_c, 0, 64, 0
1, 387444, Note_on_c, 0, 59, 0
1, 387444, Note_on_c, 0, 47, 0
1, 387444, Note_on_c, 0, 35, 0
1, 387593, Control_c, 0, 64, 127
1, 388167, Note_on_c, 0, 60, 0
1, 388167, Note_on_c, 0, 56, 70
1, 388167, Note_on_c, 0, 59, 70
1, 388170, Note_on_c, 0, 64, 70
1, 388170, Note_on_c, 0, 36, 0
1, 388170, Note_on_c, 0, 48, 0
1, 388173, Note_on_c, 0, 52, 65
1, 388173, Note_on_c, 0, 40, 65
1, 388176, Control_c, 0, 64, 0
1, 388480, Control_c, 0, 64, 127
1, 388918, Note_on_c, 0, 64, 0
1, 388918, Note_on_c, 0, 59, 0
1, 388918, Note_on_c, 0, 56, 0
1, 388921, Note_on_c, 0, 60, 60
1, 388921, Note_on_c, 0, 40, 0
1, 388921, Note_on_c, 0, 52, 0
1, 388924, Note_on_c, 0, 48, 55
1, 388924, Note_on_c, 0, 36, 55
1, 388929, Control_c, 0, 64, 0
1, 389029, Control_c, 0, 64, 127
1, 389654, Note_on_c, 0, 60, 0
1, 389654, Note_on_c, 0, 57, 60
1, 389654, Note_on_c, 0, 36, 0
1, 389657, Note_on_c, 0, 48, 0
1, 389657, Note_on_c, 0, 45, 60
1, 389657, Note_on_c, 0, 33, 51
1, 389777, Control_c, 0, 64, 0
1, 389813, Note_on_c, 0, 57, 0
1, 389813, Note_on_c, 0, 33, 0
1, 389813, Note_on_c, 0, 45, 0
1, 390419, Note_on_c, 0, 57, 56
1, 390419, Note_on_c, 0, 62, 56
1, 390419, Note_on_c, 0, 69, 56
1, 390422, Note_on_c, 0, 65, 56
1, 390468, Control_c, 0, 64, 127
1, 391154, Note_on_c, 0, 65, 0
1, 391154, Note_on_c, 0, 57, 0
1, 391154, Note_on_c, 0, 62, 0
1, 391157, Note_on_c, 0, 69, 0
1, 391157, Note_on_c, 0, 57, 47
1, 391204, Control_c, 0, 64, 0
1, 391248, Note_on_c, 0, 57, 0
1, 391905, Note_on_c, 0, 60, 57
1, 391905, Note_on_c, 0, 69, 57
1, 391905, Note_on_c, 0, 64, 57
1, 391908, Note_on_c, 0, 57, 57
1, 391947, Control_c, 0, 64, 127
1, 392629, Note_on_c, 0, 57, 0
1, 392629, Note_on_c, 0, 60, 0
1, 392629, Note_on_c, 0, 69, 0
1, 392632, Note_on_c, 0, 64, 0
1, 392632, Note_on_c, 0, 57, 50
1, 392671, Control_c, 0, 64, 0
1, 392720, Note_on_c, 0, 57, 0
1, 392993, Note_on_c, 0, 45, 56
1, 393019, Control_c, 0, 64, 127
1, 393343, Note_on_c, 0, 62, 57
1, 393343, Note_on_c, 0, 69, 57
1, 393343, Note_on_c, 0, 65, 57
1, 393346, Note_on_c, 0, 57, 57
1, 393694, Note_on_c, 0, 50, 51
1, 393708, Note_on_c, 0, 45, 0
1, 394043, Note_on_c, 0, 57, 0
1, 394043, Note_on_c, 0, 62, 0
1, 394043, Note_on_c, 0, 69, 0
1, 394046, Note_on_c, 0, 65, 0
1, 394046, Note_on_c, 0, 57, 49
1, 394046, Note_on_c, 0, 52, 54
1, 394058, Note_on_c, 0, 50, 0
1, 394101, Control_c, 0, 64, 0
1, 394133, Note_on_c, 0, 57, 0
1, 394407, Note_on_c, 0, 53, 52
1, 394422, Note_on_c, 0, 52, 0
1, 394533, Control_c, 0, 64, 127
1, 394766, Note_on_c, 0, 69, 55
1, 394766, Note_on_c, 0, 57, 55
1, 394766, Note_on_c, 0, 60, 55
1, 394769, Note_on_c, 0, 52, 55
1, 394773, Control_c, 0, 64, 0
1, 394780, Note_on_c, 0, 53, 0
1, 394897, Control_c, 0, 64, 127
1, 395453, Note_on_c, 0, 60, 0
1, 395453, Note_on_c, 0, 57, 0
1, 395453, Note_on_c, 0, 69, 0
1, 395456, Note_on_c, 0, 57, 49
1, 395456, Note_on_c, 0, 52, 0
1, 395456, Note_on_c, 0, 45, 51
1, 395502, Control_c, 0, 64, 0
1, 395544, Note_on_c, 0, 57, 0
1, 395544, Note_on_c, 0, 45, 0
1, 395818, Note_on_c, 0, 55, 61
1, 395896, Control_c, 0, 64, 127
1, 396169, Note_on_c, 0, 62, 57
1, 396169, Note_on_c, 0, 69, 57
1, 396169, Note_on_c, 0, 57, 57
1, 396172, Note_on_c, 0, 53, 56
1, 396172, Control_c, 0, 64, 0
1, 396183, Note_on_c, 0, 55, 0
1, 396303, Control_c, 0, 64, 127
1, 396842, Note_on_c, 0, 57, 0
1, 396842, Note_on_c, 0, 69, 0
1, 396842, Note_on_c, 0, 62, 0
1, 396845, Note_on_c, 0, 57, 50
1, 396845, Note_on_c, 0, 53, 0
1, 396845, Note_on_c, 0, 45, 53
1, 396872, Control_c, 0, 64, 0
1, 396934, Note_on_c, 0, 57, 0
1, 396934, Note_on_c, 0, 45, 0
1, 397211, Note_on_c, 0, 53, 50
1, 397303, Control_c, 0, 64, 127
1, 397561, Note_on_c, 0, 60, 55
1, 397561, Note_on_c, 0, 57, 55
1, 397561, Note_on_c, 0, 69, 55
1, 397564, Note_on_c, 0, 52, 55
1, 397567, Control_c, 0, 64, 0
1, 397575, Note_on_c, 0, 53, 0
1, 397758, Control_c, 0, 64, 127
1, 398233, Note_on_c, 0, 69, 0
1, 398233, Note_on_c, 0, 57, 0
1, 398233, Note_on_c, 0, 60, 0
1, 398236, Note_on_c, 0, 57, 47
1, 398236, Note_on_c, 0, 52, 0
1, 398236, Note_on_c, 0, 45, 53
1, 398302, Control_c, 0, 64, 0
1, 398323, Note_on_c, 0, 57, 0
1, 398323, Note_on_c, 0, 45, 0
1, 398595, Note_on_c, 0, 33, 66
1, 398595, Note_on_c, 0, 45, 66
1, 398659, Control_c, 0, 64, 127
1, 398932, Note_on_c, 0, 77, 79
1, 398932, Note_on_c, 0, 81, 79
1, 398932, Note_on_c, 0, 74, 79
1, 398935, Note_on_c, 0, 69, 79
1, 399266, Note_on_c, 0, 38, 62
1, 399266, Note_on_c, 0, 50, 62
1, 399280, Note_on_c, 0, 45, 0
1, 399280, Note_on_c, 0, 33, 0
1, 399607, Note_on_c, 0, 69, 0
1, 399607, Note_on_c, 0, 77, 0
1, 399607, Note_on_c, 0, 81, 0
1, 399610, Note_on_c, 0, 74, 0
1, 399610, Note_on_c, 0, 69, 66
1, 399610, Note_on_c, 0, 52, 66
1, 399613, Note_on_c, 0, 40, 66
1, 399621, Note_on_c, 0, 38, 0
1, 399621, Note_on_c, 0, 50, 0
1, 399679, Control_c, 0, 64, 0
1, 399738, Note_on_c, 0, 69, 0
1, 399955, Note_on_c, 0, 41, 62
1, 399955, Note_on_c, 0, 53, 62
1, 399970, Note_on_c, 0, 52, 0
1, 399970, Note_on_c, 0, 40, 0
1, 400054, Control_c, 0, 64, 127
1, 400309, Note_on_c, 0, 72, 80
1, 400309, Note_on_c, 0, 81, 80
1, 400309, Note_on_c, 0, 69, 80
1, 400312, Note_on_c, 0, 40, 66
1, 400312, Note_on_c, 0, 52, 66
1, 400316, Control_c, 0, 64, 0
1, 400323, Note_on_c, 0, 41, 0
1, 400323, Note_on_c, 0, 53, 0
1, 400516, Control_c, 0, 64, 127
1, 400979, Note_on_c, 0, 69, 0
1, 400979, Note_on_c, 0, 81, 0
1, 400979, Note_on_c, 0, 72, 0
1, 400982, Note_on_c, 0, 69, 64
1, 400982, Note_on_c, 0, 40, 0
1, 400982, Note_on_c, 0, 52, 0
1, 400985, Note_on_c, 0, 33, 63
1, 400985, Note_on_c, 0, 45, 63
1, 401020, Control_c, 0, 64, 0
1, 401067, Note_on_c, 0, 69, 0
1, 401067, Note_on_c, 0, 45, 0
1, 401067, Note_on_c, 0, 33, 0
1, 401329, Note_on_c, 0, 40, 72
1, 401329, Note_on_c, 0, 52, 72
1, 401358, Control_c, 0, 64, 127
1, 401664, Note_on_c, 0, 71, 84
1, 401664, Note_on_c, 0, 76, 84
1, 401664, Note_on_c, 0, 79, 84
1, 402005, Note_on_c, 0, 43, 78
1, 402005, Note_on_c, 0, 55, 78
1, 402019, Note_on_c, 0, 52, 0
1, 402019, Note_on_c, 0, 40, 0
1, 402341, Note_on_c, 0, 79, 0
1, 402341, Note_on_c, 0, 76, 0
1, 402341, Note_on_c, 0, 71, 0
1, 402344, Note_on_c, 0, 67, 83
1, 402344, Note_on_c, 0, 45, 84
1, 402344, Note_on_c, 0, 57, 84
1, 402356, Note_on_c, 0, 43, 0
1, 402356, Note_on_c, 0, 55, 0
1, 402367, Control_c, 0, 64, 0
1, 402471, Note_on_c, 0, 67, 0
1, 402686, Note_on_c, 0, 59, 82
1, 402686, Note_on_c, 0, 47, 82
1, 402700, Note_on_c, 0, 45, 0
1, 402700, Note_on_c, 0, 57, 0
1, 402777, Control_c, 0, 64, 127
1, 403038, Note_on_c, 0, 75, 92
1, 403038, Note_on_c, 0, 66, 92
1, 403038, Note_on_c, 0, 78, 92
1, 403041, Note_on_c, 0, 59, 0
1, 403041, Note_on_c, 0, 47, 0
1, 403041, Note_on_c, 0, 47, 95
1, 403044, Note_on_c, 0, 59, 95
1, 403044, Control_c, 0, 64, 0
1, 403119, Control_c, 0, 64, 127
1, 403664, Note_on_c, 0, 78, 0
1, 403664, Note_on_c, 0, 66, 0
1, 403664, Note_on_c, 0, 75, 0
1, 403667, Note_on_c, 0, 59, 0
1, 403667, Note_on_c, 0, 47, 0
1, 403721, Note_on_c, 0, 71, 86
1, 403721, Note_on_c, 0, 83, 86
1, 403721, Note_on_c, 0, 75, 86
1, 403724, Note_on_c, 0, 59, 80
1, 403724, Note_on_c, 0, 47, 80
1, 403728, Control_c, 0, 64, 0
1, 403832, Control_c, 0, 64, 127
1, 404363, Note_on_c, 0, 75, 0
1, 404363, Note_on_c, 0, 83, 0
1, 404363, Note_on_c, 0, 71, 0
1, 404366, Note_on_c, 0, 47, 0
1, 404366, Note_on_c, 0, 59, 0
1, 404421, Note_on_c, 0, 67, 83
1, 404421, Note_on_c, 0, 79, 83
1, 404421, Note_on_c, 0, 55, 68
1, 404424, Note_on_c, 0, 43, 68
1, 404433, Control_c, 0, 64, 0
1, 404497, Control_c, 0, 64, 127
1, 405107, Note_on_c, 0, 79, 0
1, 405107, Note_on_c, 0, 67, 0
1, 405107, Note_on_c, 0, 64, 70
1, 405110, Note_on_c, 0, 76, 70
1, 405110, Note_on_c, 0, 43, 0
1, 405110, Note_on_c, 0, 55, 0
1, 405113, Note_on_c, 0, 52, 57
1, 405113, Note_on_c, 0, 40, 57
1, 405126, Control_c, 0, 64, 0
1, 405259, Note_on_c, 0, 76, 0
1, 405259, Note_on_c, 0, 64, 0
1, 405259, Note_on_c, 0, 40, 0
1, 405262, Note_on_c, 0, 52, 0
1, 405836, Note_on_c, 0, 66, 48
1, 405836, Note_on_c, 0, 54, 48
1, 405836, Note_on_c, 0, 63, 48
1, 405839, Note_on_c, 0, 35, 42
1, 405839, Note_on_c, 0, 47, 42
1, 405857, Control_c, 0, 64, 127
1, 406502, Note_on_c, 0, 63, 0
1, 406502, Note_on_c, 0, 54, 0
1, 406502, Note_on_c, 0, 66, 0
1, 406505, Note_on_c, 0, 47, 0
1, 406505, Note_on_c, 0, 35, 0
1, 406563, Note_on_c, 0, 59, 46
1, 406563, Note_on_c, 0, 63, 46
1, 406563, Note_on_c, 0, 71, 46
1, 406566, Note_on_c, 0, 47, 40
1, 406566, Note_on_c, 0, 35, 40
1, 406571, Control_c, 0, 64, 0
1, 406628, Control_c, 0, 64, 127
1, 407215, Note_on_c, 0, 71, 0
1, 407215, Note_on_c, 0, 63, 0
1, 407215, Note_on_c, 0, 59, 0
1, 407218, Note_on_c, 0, 35, 0
1, 407218, Note_on_c, 0, 47, 0
1, 407275, Note_on_c, 0, 67, 47
1, 407275, Note_on_c, 0, 55, 47
1, 407275, Note_on_c, 0, 31, 39
1, 407278, Note_on_c, 0, 43, 39
1, 407282, Control_c, 0, 64, 0
1, 407371, Control_c, 0, 64, 127
1, 407966, Note_on_c, 0, 55, 0
1, 407966, Note_on_c, 0, 67, 0
1, 407966, Note_on_c, 0, 52, 41
1, 407969, Note_on_c, 0, 64, 41
1, 407969, Note_on_c, 0, 43, 0
1, 407969, Note_on_c, 0, 31, 0
1, 407972, Note_on_c, 0, 28, 38
1, 407972, Note_on_c, 0, 40, 38
1, 407985, Control_c, 0, 64, 0
1, 408117, Note_on_c, 0, 64, 0
1, 408117, Note_on_c, 0, 52, 0
1, 408117, Note_on_c, 0, 40, 0
1, 408120, Note_on_c, 0, 28, 0
1, 408689, Note_on_c, 0, 55, 47
1, 408689, Note_on_c, 0, 67, 47
1, 408689, Note_on_c, 0, 40, 40
1, 409335, Note_on_c, 0, 67, 0
1, 409335, Note_on_c, 0, 55, 0
1, 409335, Note_on_c, 0, 52, 43
1, 409338, Note_on_c, 0, 64, 43
1, 409417, Note_on_c, 0, 64, 0
1, 409417, Note_on_c, 0, 52, 0
1, 409417, Note_on_c, 0, 41, 40
1, 409430, Note_on_c, 0, 40, 0
1, 409499, Note_on_c, 0, 40, 36
1, 409513, Note_on_c, 0, 41, 0
1, 409580, Note_on_c, 0, 41, 40
1, 409594, Note_on_c, 0, 40, 0
1, 409662, Note_on_c, 0, 40, 34
1, 409675, Note_on_c, 0, 41, 0
1, 409744, Note_on_c, 0, 41, 40
1, 409758, Note_on_c, 0, 40, 0
1, 409827, Note_on_c, 0, 40, 35
1, 409840, Note_on_c, 0, 41, 0
1, 409907, Note_on_c, 0, 41, 40
1, 409921, Note_on_c, 0, 40, 0
1, 409990, Note_on_c, 0, 65, 58
1, 409990, Note_on_c, 0, 53, 58
1, 409990, Note_on_c, 0, 40, 41
1, 410003, Note_on_c, 0, 41, 0
1, 410070, Note_on_c, 0, 41, 38
1, 410083, Note_on_c, 0, 40, 0
1, 410150, Note_on_c, 0, 40, 41
1, 410163, Note_on_c, 0, 41, 0
1, 410230, Note_on_c, 0, 41, 41
1, 410243, Note_on_c, 0, 40, 0
1, 410310, Note_on_c, 0, 40, 44
1, 410323, Note_on_c, 0, 41, 0
1, 410390, Note_on_c, 0, 41, 40
1, 410403, Note_on_c, 0, 40, 0
1, 410469, Note_on_c, 0, 40, 44
1, 410483, Note_on_c, 0, 41, 0
1, 410550, Note_on_c, 0, 41, 39
1, 410564, Note_on_c, 0, 40, 0
1, 410632, Note_on_c, 0, 53, 0
1, 410632, Note_on_c, 0, 65, 0
1, 410632, Note_on_c, 0, 50, 52
1, 410635, Note_on_c, 0, 62, 52
1, 410635, Note_on_c, 0, 40, 44
1, 410646, Note_on_c, 0, 41, 0
1, 410714, Note_on_c, 0, 62, 0
1, 410714, Note_on_c, 0, 50, 0
1, 410714, Note_on_c, 0, 41, 38
1, 410728, Note_on_c, 0, 40, 0
1, 410796, Note_on_c, 0, 40, 44
1, 410810, Note_on_c, 0, 41, 0
1, 410878, Note_on_c, 0, 41, 39
1, 410892, Note_on_c, 0, 40, 0
1, 410960, Note_on_c, 0, 40, 44
1, 410974, Note_on_c, 0, 41, 0
1, 411042, Note_on_c, 0, 41, 39
1, 411055, Note_on_c, 0, 40, 0
1, 411123, Note_on_c, 0, 40, 44
1, 411137, Note_on_c, 0, 41, 0
1, 411207, Note_on_c, 0, 41, 40
1, 411220, Note_on_c, 0, 40, 0
1, 411289, Note_on_c, 0, 52, 67
1, 411289, Note_on_c, 0, 64, 67
1, 411289, Note_on_c, 0, 40, 49
1, 411302, Note_on_c, 0, 41, 0
1, 411368, Note_on_c, 0, 41, 43
1, 411381, Note_on_c, 0, 40, 0
1, 411448, Note_on_c, 0, 40, 49
1, 411462, Note_on_c, 0, 41, 0
1, 411527, Note_on_c, 0, 41, 43
1, 411541, Note_on_c, 0, 40, 0
1, 411608, Note_on_c, 0, 40, 49
1, 411621, Note_on_c, 0, 41, 0
1, 411688, Note_on_c, 0, 41, 43
1, 411701, Note_on_c, 0, 40, 0
1, 411767, Note_on_c, 0, 40, 50
1, 411780, Note_on_c, 0, 41, 0
1, 411848, Note_on_c, 0, 41, 45
1, 411861, Note_on_c, 0, 40, 0
1, 411928, Note_on_c, 0, 64, 0
1, 411928, Note_on_c, 0, 52, 0
1, 411928, Note_on_c, 0, 48, 62
1, 411931, Note_on_c, 0, 60, 62
1, 411931, Note_on_c, 0, 40, 50
1, 411942, Note_on_c, 0, 41, 0
1, 412011, Note_on_c, 0, 60, 0
1, 412011, Note_on_c, 0, 48, 0
1, 412011, Note_on_c, 0, 41, 45
1, 412025, Note_on_c, 0, 40, 0
1, 412095, Note_on_c, 0, 40, 51
1, 412108, Note_on_c, 0, 41, 0
1, 412176, Note_on_c, 0, 41, 44
1, 412190, Note_on_c, 0, 40, 0
1, 412261, Note_on_c, 0, 40, 51
1, 412274, Note_on_c, 0, 41, 0
1, 412343, Note_on_c, 0, 41, 46
1, 412357, Note_on_c, 0, 40, 0
1, 412428, Note_on_c, 0, 40, 52
1, 412442, Note_on_c, 0, 41, 0
1, 412512, Note_on_c, 0, 41, 47
1, 412526, Note_on_c, 0, 40, 0
1, 412595, Note_on_c, 0, 62, 86
1, 412595, Note_on_c, 0, 50, 86
1, 412595, Note_on_c, 0, 40, 57
1, 412608, Note_on_c, 0, 41, 0
1, 412676, Note_on_c, 0, 41, 49
1, 412690, Note_on_c, 0, 40, 0
1, 412759, Note_on_c, 0, 40, 57
1, 412773, Note_on_c, 0, 41, 0
1, 412840, Note_on_c, 0, 41, 49
1, 412854, Note_on_c, 0, 40, 0
1, 412923, Note_on_c, 0, 40, 58
1, 412937, Note_on_c, 0, 41, 0
1, 413004, Note_on_c, 0, 41, 50
1, 413018, Note_on_c, 0, 40, 0
1, 413088, Note_on_c, 0, 40, 58
1, 413102, Note_on_c, 0, 41, 0
1, 413175, Note_on_c, 0, 41, 52
1, 413189, Note_on_c, 0, 40, 0
1, 413262, Note_on_c, 0, 50, 0
1, 413262, Note_on_c, 0, 62, 0
1, 413262, Note_on_c, 0, 47, 77
1, 413265, Note_on_c, 0, 59, 77
1, 413265, Note_on_c, 0, 40, 59
1, 413276, Note_on_c, 0, 41, 0
1, 413348, Note_on_c, 0, 59, 0
1, 413348, Note_on_c, 0, 47, 0
1, 413348, Note_on_c, 0, 41, 53
1, 413363, Note_on_c, 0, 40, 0
1, 413436, Note_on_c, 0, 40, 64
1, 413450, Note_on_c, 0, 41, 0
1, 413523, Note_on_c, 0, 41, 58
1, 413538, Note_on_c, 0, 40, 0
1, 413611, Note_on_c, 0, 40, 72
1, 413626, Note_on_c, 0, 41, 0
1, 413700, Note_on_c, 0, 41, 73
1, 413715, Note_on_c, 0, 40, 0
1, 413791, Note_on_c, 0, 40, 81
1, 413806, Note_on_c, 0, 41, 0
1, 413888, Note_on_c, 0, 44, 89
1, 413906, Note_on_c, 0, 40, 0
1, 414017, Note_on_c, 0, 57, 111
1, 414017, Note_on_c, 0, 69, 111
1, 414017, Note_on_c, 0, 45, 88
1, 414020, Note_on_c, 0, 33, 88
1, 414033, Note_on_c, 0, 44, 0
1, 414185, Control_c, 0, 64, 127
1, 414774, Note_on_c, 0, 69, 0
1, 414774, Note_on_c, 0, 57, 0
1, 414774, Note_on_c, 0, 64, 103
1, 414777, Note_on_c, 0, 76, 103
1, 414777, Note_on_c, 0, 33, 0
1, 414777, Note_on_c, 0, 45, 0
1, 414780, Note_on_c, 0, 40, 87
1, 414780, Note_on_c, 0, 52, 87
1, 414790, Control_c, 0, 64, 0
1, 415086, Control_c, 0, 64, 127
1, 415522, Note_on_c, 0, 76, 0
1, 415522, Note_on_c, 0, 64, 0
1, 415522, Note_on_c, 0, 75, 99
1, 415525, Note_on_c, 0, 63, 99
1, 415525, Note_on_c, 0, 52, 0
1, 415525, Note_on_c, 0, 40, 0
1, 415528, Note_on_c, 0, 51, 85
1, 415528, Note_on_c, 0, 39, 85
1, 415537, Control_c, 0, 64, 0
1, 415627, Control_c, 0, 64, 127
1, 416239, Note_on_c, 0, 63, 0
1, 416239, Note_on_c, 0, 75, 0
1, 416239, Note_on_c, 0, 76, 85
1, 416242, Note_on_c, 0, 64, 85
1, 416242, Note_on_c, 0, 39, 0
1, 416242, Note_on_c, 0, 51, 0
1, 416245, Note_on_c, 0, 52, 81
1, 416245, Note_on_c, 0, 40, 81
1, 416245, Control_c, 0, 64, 0
1, 416427, Note_on_c, 0, 64, 0
1, 416427, Note_on_c, 0, 76, 0
1, 416427, Note_on_c, 0, 40, 0
1, 416430, Note_on_c, 0, 52, 0
1, 416615, Note_on_c, 0, 48, 78
1, 416615, Note_on_c, 0, 52, 78
1, 416615, Note_on_c, 0, 33, 47
1, 416618, Note_on_c, 0, 45, 47
1, 416631, Control_c, 0, 64, 127
1, 416848, Note_on_c, 0, 52, 0
1, 416848, Note_on_c, 0, 48, 0
1, 416848, Note_on_c, 0, 45, 0
1, 416851, Note_on_c, 0, 33, 0
1, 416877, Note_on_c, 0, 56, 71
1, 416877, Note_on_c, 0, 50, 71
1, 416877, Note_on_c, 0, 35, 45
1, 416880, Note_on_c, 0, 47, 45
1, 416891, Control_c, 0, 64, 0
1, 416948, Note_on_c, 0, 50, 0
1, 416948, Note_on_c, 0, 56, 0
1, 416948, Note_on_c, 0, 47, 0
1, 416951, Note_on_c, 0, 35, 0
1, 416962, Note_on_c, 0, 52, 74
1, 416962, Note_on_c, 0, 57, 74
1, 416962, Note_on_c, 0, 36, 49
1, 416965, Note_on_c, 0, 48, 49
1, 417018, Control_c, 0, 64, 127
1, 417195, Note_on_c, 0, 57, 0
1, 417195, Note_on_c, 0, 52, 0
1, 417195, Note_on_c, 0, 48, 0
1, 417198, Note_on_c, 0, 36, 0
1, 417224, Note_on_c, 0, 59, 73
1, 417224, Note_on_c, 0, 53, 73
1, 417224, Note_on_c, 0, 50, 46
1, 417227, Note_on_c, 0, 38, 46
1, 417232, Control_c, 0, 64, 0
1, 417294, Note_on_c, 0, 53, 0
1, 417294, Note_on_c, 0, 59, 0
1, 417294, Note_on_c, 0, 38, 0
1, 417297, Note_on_c, 0, 50, 0
1, 417308, Note_on_c, 0, 55, 75
1, 417308, Note_on_c, 0, 60, 75
1, 417308, Note_on_c, 0, 52, 51
1, 417311, Note_on_c, 0, 40, 51
1, 417366, Control_c, 0, 64, 127
1, 417540, Note_on_c, 0, 60, 0
1, 417540, Note_on_c, 0, 55, 0
1, 417540, Note_on_c, 0, 40, 0
1, 417543, Note_on_c, 0, 52, 0
1, 417569, Note_on_c, 0, 57, 77
1, 417569, Note_on_c, 0, 62, 77
1, 417569, Note_on_c, 0, 53, 48
1, 417572, Note_on_c, 0, 41, 48
1, 417586, Control_c, 0, 64, 0
1, 417639, Note_on_c, 0, 62, 0
1, 417639, Note_on_c, 0, 57, 0
1, 417639, Note_on_c, 0, 41, 0
1, 417642, Note_on_c, 0, 53, 0
1, 417653, Note_on_c, 0, 55, 80
1, 417653, Note_on_c, 0, 60, 80
1, 417653, Note_on_c, 0, 40, 55
1, 417656, Note_on_c, 0, 52, 55
1, 417730, Control_c, 0, 64, 127
1, 417884, Note_on_c, 0, 60, 0
1, 417884, Note_on_c, 0, 55, 0
1, 417884, Note_on_c, 0, 52, 0
1, 417887, Note_on_c, 0, 40, 0
1, 417913, Note_on_c, 0, 62, 77
1, 417913, Note_on_c, 0, 57, 65
1, 417913, Note_on_c, 0, 41, 49
1, 417916, Note_on_c, 0, 53, 49
1, 417925, Control_c, 0, 64, 0
1, 417984, Note_on_c, 0, 57, 0
1, 417984, Note_on_c, 0, 62, 0
1, 417984, Note_on_c, 0, 53, 0
1, 417987, Note_on_c, 0, 41, 0
1, 417998, Note_on_c, 0, 59, 80
1, 417998, Note_on_c, 0, 64, 80
1, 417998, Note_on_c, 0, 43, 54
1, 418001, Note_on_c, 0, 55, 54
1, 418062, Control_c, 0, 64, 127
1, 418228, Note_on_c, 0, 64, 0
1, 418228, Note_on_c, 0, 59, 0
1, 418228, Note_on_c, 0, 55, 0
1, 418231, Note_on_c, 0, 43, 0
1, 418257, Note_on_c, 0, 65, 77
1, 418257, Note_on_c, 0, 60, 66
1, 418257, Note_on_c, 0, 45, 50
1, 418260, Note_on_c, 0, 57, 50
1, 418287, Control_c, 0, 64, 0
1, 418327, Note_on_c, 0, 60, 0
1, 418327, Note_on_c, 0, 65, 0
1, 418327, Note_on_c, 0, 57, 0
1, 418330, Note_on_c, 0, 45, 0
1, 418341, Note_on_c, 0, 59, 81
1, 418341, Note_on_c, 0, 64, 81
1, 418341, Note_on_c, 0, 55, 56
1, 418344, Note_on_c, 0, 43, 56
1, 418398, Control_c, 0, 64, 127
1, 418570, Note_on_c, 0, 64, 0
1, 418570, Note_on_c, 0, 59, 0
1, 418570, Note_on_c, 0, 43, 0
1, 418573, Note_on_c, 0, 55, 0
1, 418599, Note_on_c, 0, 57, 70
1, 418599, Note_on_c, 0, 62, 80
1, 418599, Note_on_c, 0, 41, 54
1, 418602, Note_on_c, 0, 53, 54
1, 418610, Control_c, 0, 64, 0
1, 418669, Note_on_c, 0, 62, 0
1, 418669, Note_on_c, 0, 57, 0
1, 418669, Note_on_c, 0, 53, 0
1, 418672, Note_on_c, 0, 41, 0
1, 418683, Note_on_c, 0, 55, 83
1, 418683, Note_on_c, 0, 60, 83
1, 418683, Note_on_c, 0, 52, 56
1, 418686, Note_on_c, 0, 40, 56
1, 418750, Control_c, 0, 64, 127
1, 418911, Note_on_c, 0, 60, 0
1, 418911, Note_on_c, 0, 55, 0
1, 418911, Note_on_c, 0, 40, 0
1, 418914, Note_on_c, 0, 52, 0
1, 418940, Note_on_c, 0, 53, 70
1, 418940, Note_on_c, 0, 59, 80
1, 418940, Note_on_c, 0, 50, 54
1, 418943, Note_on_c, 0, 38, 54
1, 418956, Control_c, 0, 64, 0
1, 419009, Note_on_c, 0, 59, 0
1, 419009, Note_on_c, 0, 53, 0
1, 419009, Note_on_c, 0, 38, 0
1, 419012, Note_on_c, 0, 50, 0
1, 419023, Note_on_c, 0, 57, 83
1, 419023, Note_on_c, 0, 52, 83
1, 419023, Note_on_c, 0, 36, 60
1, 419026, Note_on_c, 0, 48, 60
1, 419073, Control_c, 0, 64, 127
1, 419251, Note_on_c, 0, 52, 0
1, 419251, Note_on_c, 0, 57, 0
1, 419251, Note_on_c, 0, 48, 0
1, 419254, Note_on_c, 0, 36, 0
1, 419280, Note_on_c, 0, 56, 87
1, 419280, Note_on_c, 0, 52, 74
1, 419280, Note_on_c, 0, 35, 56
1, 419283, Note_on_c, 0, 47, 56
1, 419294, Control_c, 0, 64, 0
1, 419349, Note_on_c, 0, 52, 0
1, 419349, Note_on_c, 0, 56, 0
1, 419349, Note_on_c, 0, 47, 0
1, 419352, Note_on_c, 0, 35, 0
1, 419363, Note_on_c, 0, 52, 78
1, 419363, Note_on_c, 0, 57, 92
1, 419363, Note_on_c, 0, 48, 61
1, 419366, Note_on_c, 0, 36, 61
1, 419461, Note_on_c, 0, 57, 0
1, 419461, Note_on_c, 0, 52, 0
1, 419461, Note_on_c, 0, 36, 0
1, 419464, Note_on_c, 0, 48, 0
1, 419753, Note_on_c, 0, 57, 110
1, 419753, Note_on_c, 0, 69, 110
1, 419753, Note_on_c, 0, 45, 95
1, 419855, Control_c, 0, 64, 127
1, 420520, Note_on_c, 0, 69, 0
1, 420520, Note_on_c, 0, 57, 0
1, 420520, Note_on_c, 0, 77, 103
1, 420523, Note_on_c, 0, 69, 103
1, 420523, Note_on_c, 0, 81, 103
1, 420523, Note_on_c, 0, 45, 0
1, 420526, Note_on_c, 0, 45, 84
1, 420526, Note_on_c, 0, 38, 84
1, 420535, Control_c, 0, 64, 0
1, 420807, Control_c, 0, 64, 127
1, 421259, Note_on_c, 0, 81, 0
1, 421259, Note_on_c, 0, 69, 0
1, 421259, Note_on_c, 0, 77, 0
1, 421262, Note_on_c, 0, 79, 108
1, 421262, Note_on_c, 0, 69, 108
1, 421262, Note_on_c, 0, 82, 108
1, 421265, Note_on_c, 0, 38, 0
1, 421265, Note_on_c, 0, 45, 0
1, 421265, Note_on_c, 0, 37, 81
1, 421268, Note_on_c, 0, 45, 81
1, 421273, Control_c, 0, 64, 0
1, 421374, Control_c, 0, 64, 127
1, 421967, Control_c, 0, 64, 0
1, 421970, Note_on_c, 0, 82, 0
1, 421970, Note_on_c, 0, 79, 0
1, 421970, Note_on_c, 0, 77, 99
1, 421973, Note_on_c, 0, 81, 99
1, 421973, Note_on_c, 0, 37, 0
1, 421973, Note_on_c, 0, 38, 81
1, 422163, Note_on_c, 0, 81, 0
1, 422163, Note_on_c, 0, 77, 0
1, 422163, Note_on_c, 0, 69, 0
1, 422166, Note_on_c, 0, 38, 0
1, 422166, Note_on_c, 0, 45, 0
1, 422355, Note_on_c, 0, 53, 77
1, 422355, Note_on_c, 0, 57, 77
1, 422355, Note_on_c, 0, 38, 54
1, 422358, Note_on_c, 0, 50, 54
1, 422394, Control_c, 0, 64, 127
1, 422588, Note_on_c, 0, 57, 0
1, 422588, Note_on_c, 0, 53, 0
1, 422588, Note_on_c, 0, 50, 0
1, 422591, Note_on_c, 0, 38, 0
1, 422617, Note_on_c, 0, 55, 72
1, 422617, Note_on_c, 0, 61, 72
1, 422617, Note_on_c, 0, 52, 47
1, 422620, Note_on_c, 0, 40, 47
1, 422623, Control_c, 0, 64, 0
1, 422687, Note_on_c, 0, 61, 0
1, 422687, Note_on_c, 0, 55, 0
1, 422687, Note_on_c, 0, 40, 0
1, 422690, Note_on_c, 0, 52, 0
1, 422702, Note_on_c, 0, 62, 76
1, 422702, Note_on_c, 0, 57, 76
1, 422702, Note_on_c, 0, 53, 52
1, 422705, Note_on_c, 0, 41, 52
1, 422809, Control_c, 0, 64, 127
1, 422933, Note_on_c, 0, 57, 0
1, 422933, Note_on_c, 0, 62, 0
1, 422933, Note_on_c, 0, 41, 0
1, 422936, Note_on_c, 0, 53, 0
1, 422962, Note_on_c, 0, 58, 74
1, 422962, Note_on_c, 0, 64, 74
1, 422962, Note_on_c, 0, 55, 50
1, 422965, Note_on_c, 0, 43, 50
1, 422976, Control_c, 0, 64, 0
1, 423032, Note_on_c, 0, 64, 0
1, 423032, Note_on_c, 0, 58, 0
1, 423032, Note_on_c, 0, 43, 0
1, 423035, Note_on_c, 0, 55, 0
1, 423046, Note_on_c, 0, 65, 77
1, 423046, Note_on_c, 0, 60, 77
1, 423046, Note_on_c, 0, 45, 53
1, 423049, Note_on_c, 0, 57, 53
1, 423149, Control_c, 0, 64, 127
1, 423277, Note_on_c, 0, 60, 0
1, 423277, Note_on_c, 0, 65, 0
1, 423277, Note_on_c, 0, 57, 0
1, 423280, Note_on_c, 0, 45, 0
1, 423306, Note_on_c, 0, 62, 74
1, 423306, Note_on_c, 0, 67, 74
1, 423306, Note_on_c, 0, 46, 52
1, 423309, Note_on_c, 0, 58, 52
1, 423318, Control_c, 0, 64, 0
1, 423325, Control_c, 0, 64, 0
1, 423376, Note_on_c, 0, 67, 0
1, 423376, Note_on_c, 0, 62, 0
1, 423376, Note_on_c, 0, 58, 0
1, 423379, Note_on_c, 0, 46, 0
1, 423391, Note_on_c, 0, 60, 78
1, 423391, Note_on_c, 0, 65, 78
1, 423391, Note_on_c, 0, 57, 55
1, 423394, Note_on_c, 0, 45, 55
1, 423493, Control_c, 0, 64, 127
1, 423620, Note_on_c, 0, 65, 0
1, 423620, Note_on_c, 0, 60, 0
1, 423620, Note_on_c, 0, 45, 0
1, 423623, Note_on_c, 0, 57, 0
1, 423649, Note_on_c, 0, 62, 65
1, 423649, Note_on_c, 0, 67, 77
1, 423649, Note_on_c, 0, 46, 49
1, 423652, Note_on_c, 0, 58, 49
1, 423665, Control_c, 0, 64, 0
1, 423718, Note_on_c, 0, 67, 0
1, 423718, Note_on_c, 0, 62, 0
1, 423718, Note_on_c, 0, 58, 0
1, 423721, Note_on_c, 0, 46, 0
1, 423732, Note_on_c, 0, 69, 81
1, 423732, Note_on_c, 0, 64, 81
1, 423732, Note_on_c, 0, 48, 54
1, 423735, Note_on_c, 0, 60, 54
1, 423813, Control_c, 0, 64, 127
1, 423960, Note_on_c, 0, 64, 0
1, 423960, Note_on_c, 0, 69, 0
1, 423960, Note_on_c, 0, 60, 0
1, 423963, Note_on_c, 0, 48, 0
1, 423989, Note_on_c, 0, 65, 66
1, 423989, Note_on_c, 0, 70, 77
1, 423989, Note_on_c, 0, 62, 50
1, 423992, Note_on_c, 0, 50, 50
1, 424003, Control_c, 0, 64, 0
1, 424058, Note_on_c, 0, 70, 0
1, 424058, Note_on_c, 0, 65, 0
1, 424058, Note_on_c, 0, 50, 0
1, 424061, Note_on_c, 0, 62, 0
1, 424072, Note_on_c, 0, 69, 82
1, 424072, Note_on_c, 0, 64, 82
1, 424072, Note_on_c, 0, 48, 56
1, 424075, Note_on_c, 0, 60, 56
1, 424135, Control_c, 0, 64, 127
1, 424298, Note_on_c, 0, 64, 0
1, 424298, Note_on_c, 0, 69, 0
1, 424298, Note_on_c, 0, 60, 0
1, 424301, Note_on_c, 0, 48, 0
1, 424327, Note_on_c, 0, 62, 70
1, 424327, Note_on_c, 0, 67, 80
1, 424327, Note_on_c, 0, 46, 54
1, 424330, Note_on_c, 0, 58, 54
1, 424344, Control_c, 0, 64, 0
1, 424395, Note_on_c, 0, 67, 0
1, 424395, Note_on_c, 0, 62, 0
1, 424395, Note_on_c, 0, 58, 0
1, 424398, Note_on_c, 0, 46, 0
1, 424409, Note_on_c, 0, 60, 84
1, 424409, Note_on_c, 0, 65, 84
1, 424409, Note_on_c, 0, 45, 56
1, 424412, Note_on_c, 0, 57, 56
1, 424493, Control_c, 0, 64, 127
1, 424632, Note_on_c, 0, 65, 0
1, 424632, Note_on_c, 0, 60, 0
1, 424632, Note_on_c, 0, 57, 0
1, 424635, Note_on_c, 0, 45, 0
1, 424660, Note_on_c, 0, 58, 70
1, 424660, Note_on_c, 0, 64, 80
1, 424660, Note_on_c, 0, 55, 54
1, 424663, Note_on_c, 0, 43, 54
1, 424667, Control_c, 0, 64, 0
1, 424729, Note_on_c, 0, 64, 0
1, 424729, Note_on_c, 0, 58, 0
1, 424729, Note_on_c, 0, 43, 0
1, 424732, Note_on_c, 0, 55, 0
1, 424742, Note_on_c, 0, 57, 85
1, 424742, Note_on_c, 0, 62, 85
1, 424742, Note_on_c, 0, 53, 60
1, 424745, Note_on_c, 0, 41, 60
1, 424810, Control_c, 0, 64, 127
1, 424966, Note_on_c, 0, 62, 0
1, 424966, Note_on_c, 0, 57, 0
1, 424966, Note_on_c, 0, 41, 0
1, 424969, Note_on_c, 0, 53, 0
1, 424994, Note_on_c, 0, 57, 74
1, 424994, Note_on_c, 0, 61, 87
1, 424994, Note_on_c, 0, 52, 56
1, 424997, Note_on_c, 0, 40, 56
1, 425010, Control_c, 0, 64, 0
1, 425062, Note_on_c, 0, 61, 0
1, 425062, Note_on_c, 0, 57, 0
1, 425062, Note_on_c, 0, 40, 0
1, 425065, Note_on_c, 0, 52, 0
1, 425076, Note_on_c, 0, 62, 92
1, 425076, Note_on_c, 0, 57, 78
1, 425076, Note_on_c, 0, 41, 61
1, 425079, Note_on_c, 0, 53, 61
1, 425170, Note_on_c, 0, 57, 0
1, 425170, Note_on_c, 0, 62, 0
1, 425170, Note_on_c, 0, 53, 0
1, 425173, Note_on_c, 0, 41, 0
1, 425454, Note_on_c, 0, 50, 99
1, 425454, Note_on_c, 0, 55, 99
1, 425454, Note_on_c, 0, 62, 109
1, 425457, Note_on_c, 0, 58, 109
1, 425470, Control_c, 0, 64, 127
1, 426177, Note_on_c, 0, 58, 0
1, 426177, Note_on_c, 0, 50, 0
1, 426177, Note_on_c, 0, 55, 0
1, 426180, Note_on_c, 0, 62, 0
1, 426180, Note_on_c, 0, 50, 91
1, 426180, Note_on_c, 0, 38, 82
1, 426194, Control_c, 0, 64, 0
1, 426318, Note_on_c, 0, 38, 0
1, 426318, Note_on_c, 0, 50, 0
1, 426928, Note_on_c, 0, 50, 100
1, 426928, Note_on_c, 0, 53, 100
1, 426928, Note_on_c, 0, 57, 110
1, 426931, Note_on_c, 0, 62, 110
1, 426936, Control_c, 0, 64, 127
1, 427652, Note_on_c, 0, 62, 0
1, 427652, Note_on_c, 0, 50, 0
1, 427652, Note_on_c, 0, 53, 0
1, 427655, Note_on_c, 0, 57, 0
1, 427655, Note_on_c, 0, 38, 82
1, 427655, Note_on_c, 0, 50, 91
1, 427660, Control_c, 0, 64, 0
1, 427789, Note_on_c, 0, 50, 0
1, 427789, Note_on_c, 0, 38, 0
1, 428018, Note_on_c, 0, 62, 92
1, 428018, Note_on_c, 0, 74, 102
1, 428055, Control_c, 0, 64, 127
1, 428380, Note_on_c, 0, 50, 87
1, 428380, Note_on_c, 0, 55, 87
1, 428380, Note_on_c, 0, 58, 96
1, 428383, Note_on_c, 0, 62, 96
1, 428734, Note_on_c, 0, 79, 101
1, 428734, Note_on_c, 0, 67, 91
1, 428749, Note_on_c, 0, 74, 0
1, 428749, Note_on_c, 0, 62, 0
1, 429085, Note_on_c, 0, 69, 93
1, 429085, Note_on_c, 0, 81, 103
1, 429085, Note_on_c, 0, 62, 0
1, 429088, Note_on_c, 0, 50, 0
1, 429088, Note_on_c, 0, 55, 0
1, 429088, Note_on_c, 0, 58, 0
1, 429091, Note_on_c, 0, 50, 78
1, 429091, Note_on_c, 0, 38, 71
1, 429100, Note_on_c, 0, 79, 0
1, 429100, Note_on_c, 0, 67, 0
1, 429115, Control_c, 0, 64, 0
1, 429222, Note_on_c, 0, 38, 0
1, 429222, Note_on_c, 0, 50, 0
1, 429268, Control_c, 0, 64, 127
1, 429451, Note_on_c, 0, 70, 91
1, 429451, Note_on_c, 0, 82, 101
1, 429456, Control_c, 0, 64, 0
1, 429466, Note_on_c, 0, 69, 0
1, 429466, Note_on_c, 0, 81, 0
1, 429520, Control_c, 0, 64, 127
1, 429801, Note_on_c, 0, 69, 92
1, 429801, Note_on_c, 0, 81, 102
1, 429801, Note_on_c, 0, 50, 82
1, 429804, Note_on_c, 0, 53, 82
1, 429804, Note_on_c, 0, 57, 91
1, 429804, Note_on_c, 0, 62, 91
1, 429809, Control_c, 0, 64, 0
1, 429815, Note_on_c, 0, 70, 0
1, 429815, Note_on_c, 0, 82, 0
1, 429882, Control_c, 0, 64, 127
1, 430471, Note_on_c, 0, 69, 0
1, 430471, Note_on_c, 0, 81, 0
1, 430471, Note_on_c, 0, 74, 95
1, 430474, Note_on_c, 0, 62, 86
1, 430474, Note_on_c, 0, 62, 0
1, 430474, Note_on_c, 0, 50, 0
1, 430477, Note_on_c, 0, 53, 0
1, 430477, Note_on_c, 0, 57, 0
1, 430477, Note_on_c, 0, 50, 83
1, 430480, Note_on_c, 0, 38, 75
1, 430491, Control_c, 0, 64, 0
1, 430604, Note_on_c, 0, 62, 0
1, 430604, Note_on_c, 0, 74, 0
1, 430604, Note_on_c, 0, 38, 0
1, 430607, Note_on_c, 0, 50, 0
1, 430827, Note_on_c, 0, 72, 94
1, 430827, Note_on_c, 0, 84, 104
1, 431191, Note_on_c, 0, 82, 106
1, 431191, Note_on_c, 0, 70, 96
1, 431191, Note_on_c, 0, 50, 82
1, 431194, Note_on_c, 0, 55, 82
1, 431194, Note_on_c, 0, 58, 91
1, 431194, Note_on_c, 0, 62, 91
1, 431205, Note_on_c, 0, 84, 0
1, 431205, Note_on_c, 0, 72, 0
1, 431221, Control_c, 0, 64, 127
1, 431861, Note_on_c, 0, 82, 0
1, 431861, Note_on_c, 0, 70, 0
1, 431861, Note_on_c, 0, 74, 101
1, 431864, Note_on_c, 0, 62, 91
1, 431864, Note_on_c, 0, 62, 0
1, 431864, Note_on_c, 0, 50, 0
1, 431867, Note_on_c, 0, 55, 0
1, 431867, Note_on_c, 0, 58, 0
1, 431867, Note_on_c, 0, 38, 75
1, 431870, Note_on_c, 0, 50, 83
1, 431892, Control_c, 0, 64, 0
1, 431994, Note_on_c, 0, 62, 0
1, 431994, Note_on_c, 0, 74, 0
1, 431994, Note_on_c, 0, 50, 0
1, 431997, Note_on_c, 0, 38, 0
1, 432217, Note_on_c, 0, 70, 95
1, 432217, Note_on_c, 0, 82, 105
1, 432569, Note_on_c, 0, 81, 101
1, 432569, Note_on_c, 0, 69, 91
1, 432569, Note_on_c, 0, 50, 83
1, 432572, Note_on_c, 0, 57, 92
1, 432572, Note_on_c, 0, 62, 92
1, 432572, Note_on_c, 0, 53, 83
1, 432583, Note_on_c, 0, 82, 0
1, 432583, Note_on_c, 0, 70, 0
1, 432606, Control_c, 0, 64, 127
1, 433238, Note_on_c, 0, 81, 0
1, 433238, Note_on_c, 0, 69, 0
1, 433238, Note_on_c, 0, 62, 84
1, 433241, Note_on_c, 0, 74, 93
1, 433241, Note_on_c, 0, 53, 0
1, 433241, Note_on_c, 0, 50, 0
1, 433244, Note_on_c, 0, 57, 0
1, 433244, Note_on_c, 0, 62, 0
1, 433244, Note_on_c, 0, 38, 74
1, 433247, Note_on_c, 0, 50, 82
1, 433257, Control_c, 0, 64, 0
1, 433371, Note_on_c, 0, 74, 0
1, 433371, Note_on_c, 0, 62, 0
1, 433371, Note_on_c, 0, 50, 0
1, 433374, Note_on_c, 0, 38, 0
1, 433593, Note_on_c, 0, 62, 96
1, 433593, Note_on_c, 0, 74, 106
1, 433623, Control_c, 0, 64, 127
1, 433944, Note_on_c, 0, 55, 89
1, 433944, Note_on_c, 0, 62, 98
1, 433944, Note_on_c, 0, 58, 89
1, 433947, Note_on_c, 0, 67, 98
1, 434288, Note_on_c, 0, 67, 94
1, 434288, Note_on_c, 0, 79, 104
1, 434302, Note_on_c, 0, 74, 0
1, 434302, Note_on_c, 0, 62, 0
1, 434619, Note_on_c, 0, 82, 115
1, 434619, Note_on_c, 0, 70, 104
1, 434619, Note_on_c, 0, 67, 0
1, 434622, Note_on_c, 0, 55, 0
1, 434622, Note_on_c, 0, 62, 0
1, 434622, Note_on_c, 0, 58, 0
1, 434625, Note_on_c, 0, 43, 75
1, 434625, Note_on_c, 0, 55, 83
1, 434633, Note_on_c, 0, 67, 0
1, 434633, Note_on_c, 0, 79, 0
1, 434644, Control_c, 0, 64, 0
1, 434750, Note_on_c, 0, 55, 0
1, 434750, Note_on_c, 0, 43, 0
1, 434816, Control_c, 0, 64, 127
1, 434967, Note_on_c, 0, 74, 102
1, 434967, Note_on_c, 0, 86, 113
1, 434970, Control_c, 0, 64, 0
1, 434982, Note_on_c, 0, 82, 0
1, 434982, Note_on_c, 0, 70, 0
1, 435032, Control_c, 0, 64, 127
1, 435320, Note_on_c, 0, 87, 120
1, 435320, Note_on_c, 0, 75, 109
1, 435320, Note_on_c, 0, 60, 84
1, 435323, Note_on_c, 0, 55, 84
1, 435323, Note_on_c, 0, 63, 93
1, 435323, Note_on_c, 0, 67, 93
1, 435328, Control_c, 0, 64, 0
1, 435334, Note_on_c, 0, 74, 0
1, 435334, Note_on_c, 0, 86, 0
1, 435417, Control_c, 0, 64, 127
1, 435979, Note_on_c, 0, 87, 0
1, 435979, Note_on_c, 0, 75, 0
1, 435979, Note_on_c, 0, 67, 84
1, 435982, Note_on_c, 0, 79, 93
1, 435982, Note_on_c, 0, 67, 0
1, 435982, Note_on_c, 0, 60, 0
1, 435985, Note_on_c, 0, 55, 0
1, 435985, Note_on_c, 0, 63, 0
1, 435985, Note_on_c, 0, 55, 83
1, 435988, Note_on_c, 0, 43, 75
1, 435998, Control_c, 0, 64, 0
1, 436111, Note_on_c, 0, 79, 0
1, 436111, Note_on_c, 0, 67, 0
1, 436111, Note_on_c, 0, 43, 0
1, 436114, Note_on_c, 0, 55, 0
1, 436331, Note_on_c, 0, 75, 104
1, 436331, Note_on_c, 0, 87, 115
1, 436369, Control_c, 0, 64, 127
1, 436674, Note_on_c, 0, 74, 104
1, 436674, Note_on_c, 0, 86, 115
1, 436674, Note_on_c, 0, 58, 83
1, 436677, Note_on_c, 0, 55, 83
1, 436677, Note_on_c, 0, 67, 92
1, 436677, Note_on_c, 0, 62, 92
1, 436683, Control_c, 0, 64, 0
1, 436687, Note_on_c, 0, 87, 0
1, 436687, Note_on_c, 0, 75, 0
1, 436825, Control_c, 0, 64, 127
1, 437330, Note_on_c, 0, 74, 0
1, 437330, Note_on_c, 0, 86, 0
1, 437330, Note_on_c, 0, 67, 84
1, 437333, Note_on_c, 0, 79, 93
1, 437333, Note_on_c, 0, 62, 0
1, 437333, Note_on_c, 0, 58, 0
1, 437336, Note_on_c, 0, 55, 0
1, 437336, Note_on_c, 0, 67, 0
1, 437336, Note_on_c, 0, 43, 74
1, 437339, Note_on_c, 0, 55, 82
1, 437366, Control_c, 0, 64, 0
1, 437461, Note_on_c, 0, 79, 0
1, 437461, Note_on_c, 0, 67, 0
1, 437461, Note_on_c, 0, 55, 0
1, 437464, Note_on_c, 0, 43, 0
1, 437680, Note_on_c, 0, 74, 97
1, 437680, Note_on_c, 0, 86, 107
1, 437738, Control_c, 0, 64, 127
1, 438023, Note_on_c, 0, 53, 83
1, 438023, Note_on_c, 0, 62, 92
1, 438023, Note_on_c, 0, 57, 83
1, 438026, Note_on_c, 0, 65, 92
1, 438031, Control_c, 0, 64, 0
1, 438119, Control_c, 0, 64, 127
1, 438367, Note_on_c, 0, 77, 95
1, 438367, Note_on_c, 0, 89, 105
1, 438381, Note_on_c, 0, 86, 0
1, 438381, Note_on_c, 0, 74, 0
1, 438706, Note_on_c, 0, 91, 114
1, 438706, Note_on_c, 0, 79, 103
1, 438706, Note_on_c, 0, 65, 0
1, 438709, Note_on_c, 0, 53, 0
1, 438709, Note_on_c, 0, 62, 0
1, 438709, Note_on_c, 0, 57, 0
1, 438712, Note_on_c, 0, 53, 84
1, 438712, Note_on_c, 0, 41, 76
1, 438715, Control_c, 0, 64, 0
1, 438720, Note_on_c, 0, 77, 0
1, 438720, Note_on_c, 0, 89, 0
1, 438776, Control_c, 0, 64, 127
1, 438833, Note_on_c, 0, 41, 0
1, 438833, Note_on_c, 0, 53, 0
1, 439045, Note_on_c, 0, 93, 110
1, 439045, Note_on_c, 0, 81, 100
1, 439060, Note_on_c, 0, 91, 0
1, 439060, Note_on_c, 0, 79, 0
1, 439414, Note_on_c, 0, 93, 0
1, 439414, Note_on_c, 0, 81, 0
1, 439414, Note_on_c, 0, 81, 108
1, 439417, Note_on_c, 0, 93, 119
1, 439417, Note_on_c, 0, 52, 86
1, 439417, Note_on_c, 0, 61, 95
1, 439420, Note_on_c, 0, 64, 95
1, 439424, Control_c, 0, 64, 0
1, 439520, Control_c, 0, 64, 127
1, 440107, Note_on_c, 0, 93, 0
1, 440107, Note_on_c, 0, 81, 0
1, 440107, Note_on_c, 0, 64, 0
1, 440110, Note_on_c, 0, 61, 0
1, 440110, Note_on_c, 0, 52, 0
1, 440137, Note_on_c, 0, 93, 115
1, 440137, Note_on_c, 0, 81, 104
1, 440137, Note_on_c, 0, 61, 85
1, 440140, Note_on_c, 0, 69, 94
1, 440140, Note_on_c, 0, 57, 85
1, 440212, Control_c, 0, 64, 0
1, 440812, Note_on_c, 0, 81, 0
1, 440812, Note_on_c, 0, 93, 0
1, 440812, Note_on_c, 0, 57, 0
1, 440815, Note_on_c, 0, 69, 0
1, 440815, Note_on_c, 0, 61, 0
1, 440841, Note_on_c, 0, 89, 99
1, 440841, Note_on_c, 0, 77, 90
1, 440841, Note_on_c, 0, 65, 92
1, 440844, Note_on_c, 0, 53, 83
1, 440890, Control_c, 0, 64, 127
1, 441535, Note_on_c, 0, 77, 0
1, 441535, Note_on_c, 0, 89, 0
1, 441535, Note_on_c, 0, 86, 91
1, 441538, Note_on_c, 0, 74, 82
1, 441538, Note_on_c, 0, 53, 0
1, 441538, Note_on_c, 0, 65, 0
1, 441541, Note_on_c, 0, 62, 83
1, 441541, Note_on_c, 0, 50, 75
1, 441544, Control_c, 0, 64, 0
1, 441689, Note_on_c, 0, 74, 0
1, 441689, Note_on_c, 0, 86, 0
1, 441689, Note_on_c, 0, 50, 0
1, 441692, Note_on_c, 0, 62, 0
1, 442274, Note_on_c, 0, 69, 62
1, 442274, Note_on_c, 0, 81, 62
1, 442274, Note_on_c, 0, 40, 54
1, 442277, Note_on_c, 0, 49, 54
1, 442277, Note_on_c, 0, 52, 54
1, 442345, Control_c, 0, 64, 127
1, 442982, Note_on_c, 0, 81, 0
1, 442982, Note_on_c, 0, 69, 0
1, 442982, Note_on_c, 0, 52, 0
1, 442985, Note_on_c, 0, 49, 0
1, 442985, Note_on_c, 0, 40, 0
1, 443013, Note_on_c, 0, 81, 62
1, 443013, Note_on_c, 0, 69, 62
1, 443013, Note_on_c, 0, 57, 50
1, 443016, Note_on_c, 0, 45, 50
1, 443016, Note_on_c, 0, 49, 50
1, 443083, Control_c, 0, 64, 0
1, 443709, Note_on_c, 0, 69, 0
1, 443709, Note_on_c, 0, 81, 0
1, 443709, Note_on_c, 0, 49, 0
1, 443712, Note_on_c, 0, 45, 0
1, 443712, Note_on_c, 0, 57, 0
1, 443739, Note_on_c, 0, 65, 59
1, 443739, Note_on_c, 0, 77, 59
1, 443739, Note_on_c, 0, 53, 50
1, 443742, Note_on_c, 0, 41, 50
1, 443773, Control_c, 0, 64, 127
1, 444439, Note_on_c, 0, 77, 0
1, 444439, Note_on_c, 0, 65, 0
1, 444439, Note_on_c, 0, 74, 55
1, 444442, Note_on_c, 0, 62, 55
1, 444442, Note_on_c, 0, 41, 0
1, 444442, Note_on_c, 0, 53, 0
1, 444445, Note_on_c, 0, 50, 50
1, 444445, Note_on_c, 0, 38, 50
1, 444474, Control_c, 0, 64, 0
1, 444590, Note_on_c, 0, 62, 0
1, 444590, Note_on_c, 0, 74, 0
1, 444590, Note_on_c, 0, 38, 0
1, 444593, Note_on_c, 0, 50, 0
1, 445166, Note_on_c, 0, 63, 47
1, 445166, Note_on_c, 0, 75, 47
1, 445166, Note_on_c, 0, 51, 44
1, 445169, Note_on_c, 0, 39, 44
1, 445183, Control_c, 0, 64, 127
1, 445848, Note_on_c, 0, 75, 0
1, 445848, Note_on_c, 0, 63, 0
1, 445848, Note_on_c, 0, 72, 37
1, 445851, Note_on_c, 0, 60, 37
1, 445851, Note_on_c, 0, 39, 0
1, 445851, Note_on_c, 0, 51, 0
1, 445854, Note_on_c, 0, 36, 36
1, 445854, Note_on_c, 0, 48, 36
1, 445867, Control_c, 0, 64, 0
1, 445997, Note_on_c, 0, 60, 0
1, 445997, Note_on_c, 0, 72, 0
1, 445997, Note_on_c, 0, 48, 0
1, 446000, Note_on_c, 0, 36, 0
1, 446560, Note_on_c, 0, 63, 44
1, 446560, Note_on_c, 0, 75, 44
1, 446560, Note_on_c, 0, 39, 43
1, 446563, Note_on_c, 0, 51, 43
1, 446577, Control_c, 0, 64, 127
1, 447240, Note_on_c, 0, 75, 0
1, 447240, Note_on_c, 0, 63, 0
1, 447240, Note_on_c, 0, 72, 37
1, 447243, Note_on_c, 0, 60, 37
1, 447243, Note_on_c, 0, 51, 0
1, 447243, Note_on_c, 0, 39, 0
1, 447246, Note_on_c, 0, 48, 34
1, 447246, Note_on_c, 0, 36, 34
1, 447258, Control_c, 0, 64, 0
1, 447388, Note_on_c, 0, 60, 0
1, 447388, Note_on_c, 0, 72, 0
1, 447388, Note_on_c, 0, 36, 0
1, 447391, Note_on_c, 0, 48, 0
1, 447948, Note_on_c, 0, 69, 44
1, 447948, Note_on_c, 0, 75, 44
1, 447948, Note_on_c, 0, 60, 43
1, 447951, Note_on_c, 0, 54, 43
1, 447951, Control_c, 0, 64, 127
1, 448618, Note_on_c, 0, 75, 0
1, 448618, Note_on_c, 0, 72, 37
1, 448618, Note_on_c, 0, 60, 0
1, 448621, Note_on_c, 0, 63, 34
1, 448621, Control_c, 0, 64, 0
1, 448749, Note_on_c, 0, 69, 0
1, 448749, Note_on_c, 0, 54, 0
1, 448764, Note_on_c, 0, 72, 0
1, 448764, Note_on_c, 0, 63, 0
1, 449317, Note_on_c, 0, 69, 44
1, 449317, Note_on_c, 0, 75, 44
1, 449317, Note_on_c, 0, 53, 43
1, 449320, Note_on_c, 0, 60, 43
1, 449350, Control_c, 0, 64, 127
1, 449987, Note_on_c, 0, 75, 0
1, 449987, Note_on_c, 0, 72, 37
1, 449987, Note_on_c, 0, 60, 0
1, 449990, Note_on_c, 0, 63, 34
1, 449995, Control_c, 0, 64, 0
1, 450118, Note_on_c, 0, 69, 0
1, 450118, Note_on_c, 0, 53, 0
1, 450133, Note_on_c, 0, 72, 0
1, 450133, Note_on_c, 0, 63, 0
1, 450687, Note_on_c, 0, 76, 44
1, 450687, Note_on_c, 0, 69, 44
1, 450687, Note_on_c, 0, 52, 43
1, 450690, Note_on_c, 0, 61, 43
1, 450709, Control_c, 0, 64, 127
1, 451356, Note_on_c, 0, 76, 0
1, 451356, Note_on_c, 0, 73, 37
1, 451356, Note_on_c, 0, 61, 0
1, 451359, Note_on_c, 0, 64, 34
1, 451372, Control_c, 0, 64, 0
1, 451487, Note_on_c, 0, 69, 0
1, 451487, Note_on_c, 0, 52, 0
1, 451502, Note_on_c, 0, 73, 0
1, 451502, Note_on_c, 0, 64, 0
1, 452056, Note_on_c, 0, 68, 44
1, 452056, Note_on_c, 0, 76, 44
1, 452056, Note_on_c, 0, 62, 43
1, 452059, Note_on_c, 0, 52, 43
1, 452075, Control_c, 0, 64, 127
1, 452725, Note_on_c, 0, 76, 0
1, 452725, Note_on_c, 0, 71, 37
1, 452725, Note_on_c, 0, 62, 0
1, 452728, Note_on_c, 0, 64, 34
1, 452742, Control_c, 0, 64, 0
1, 452857, Note_on_c, 0, 68, 0
1, 452857, Note_on_c, 0, 52, 0
1, 452871, Note_on_c, 0, 71, 0
1, 452871, Note_on_c, 0, 64, 0
1, 453425, Note_on_c, 0, 73, 44
1, 453425, Note_on_c, 0, 61, 44
1, 453425, Note_on_c, 0, 45, 30
1, 453428, Note_on_c, 0, 52, 30
1, 453495, Control_c, 0, 64, 127
1, 453638, Note_on_c, 0, 61, 0
1, 453638, Note_on_c, 0, 73, 0
1, 453638, Note_on_c, 0, 52, 0
1, 453641, Note_on_c, 0, 45, 0
1, 453668, Note_on_c, 0, 61, 39
1, 453668, Note_on_c, 0, 73, 39
1, 453668, Note_on_c, 0, 52, 26
1, 453671, Note_on_c, 0, 45, 26
1, 453883, Note_on_c, 0, 73, 0
1, 453883, Note_on_c, 0, 61, 0
1, 453883, Note_on_c, 0, 45, 0
1, 453886, Note_on_c, 0, 52, 0
1, 453914, Note_on_c, 0, 73, 39
1, 453914, Note_on_c, 0, 61, 39
1, 453914, Note_on_c, 0, 52, 26
1, 453917, Note_on_c, 0, 45, 26
1, 454131, Note_on_c, 0, 61, 0
1, 454131, Note_on_c, 0, 73, 0
1, 454131, Note_on_c, 0, 45, 0
1, 454134, Note_on_c, 0, 52, 0
1, 454162, Note_on_c, 0, 61, 33
1, 454162, Note_on_c, 0, 73, 37
1, 454162, Note_on_c, 0, 45, 26
1, 454165, Note_on_c, 0, 52, 26
1, 454806, Note_on_c, 0, 73, 0
1, 454806, Note_on_c, 0, 61, 0
1, 454806, Note_on_c, 0, 52, 0
1, 454809, Note_on_c, 0, 45, 0
1, 454898, Note_on_c, 0, 61, 49
1, 454898, Note_on_c, 0, 69, 49
1, 454898, Note_on_c, 0, 45, 30
1, 454901, Note_on_c, 0, 52, 30
1, 454905, Control_c, 0, 64, 0
1, 455035, Control_c, 0, 64, 127
1, 455251, Note_on_c, 0, 69, 0
1, 455251, Note_on_c, 0, 61, 0
1, 455251, Note_on_c, 0, 52, 0
1, 455254, Note_on_c, 0, 45, 0
1, 455258, Note_on_c, 0, 61, 44
1, 455258, Note_on_c, 0, 73, 44
1, 455258, Note_on_c, 0, 52, 26
1, 455261, Note_on_c, 0, 45, 26
1, 455604, Note_on_c, 0, 73, 0
1, 455604, Note_on_c, 0, 61, 0
1, 455604, Note_on_c, 0, 45, 0
1, 455607, Note_on_c, 0, 52, 0
1, 455611, Note_on_c, 0, 71, 48
1, 455611, Note_on_c, 0, 61, 48
1, 455611, Note_on_c, 0, 45, 29
1, 455614, Note_on_c, 0, 52, 29
1, 455968, Note_on_c, 0, 61, 0
1, 455968, Note_on_c, 0, 71, 0
1, 455968, Note_on_c, 0, 52, 0
1, 455971, Note_on_c, 0, 45, 0
1, 455976, Note_on_c, 0, 61, 45
1, 455976, Note_on_c, 0, 73, 45
1, 455976, Note_on_c, 0, 52, 25
1, 455979, Note_on_c, 0, 45, 25
1, 456343, Note_on_c, 0, 73, 0
1, 456343, Note_on_c, 0, 61, 0
1, 456343, Note_on_c, 0, 45, 0
1, 456346, Note_on_c, 0, 52, 0
1, 456351, Note_on_c, 0, 66, 49
1, 456351, Note_on_c, 0, 62, 49
1, 456351, Note_on_c, 0, 45, 33
1, 456354, Note_on_c, 0, 54, 33
1, 456359, Control_c, 0, 64, 0
1, 456474, Control_c, 0, 64, 127
1, 456555, Note_on_c, 0, 62, 0
1, 456555, Note_on_c, 0, 66, 0
1, 456555, Note_on_c, 0, 54, 0
1, 456558, Note_on_c, 0, 45, 0
1, 456584, Note_on_c, 0, 62, 40
1, 456584, Note_on_c, 0, 66, 40
1, 456584, Note_on_c, 0, 54, 29
1, 456587, Note_on_c, 0, 45, 29
1, 456793, Note_on_c, 0, 66, 0
1, 456793, Note_on_c, 0, 62, 0
1, 456793, Note_on_c, 0, 45, 0
1, 456796, Note_on_c, 0, 54, 0
1, 456824, Note_on_c, 0, 62, 40
1, 456824, Note_on_c, 0, 66, 40
1, 456824, Note_on_c, 0, 45, 27
1, 456827, Note_on_c, 0, 54, 27
1, 457038, Note_on_c, 0, 66, 0
1, 457038, Note_on_c, 0, 62, 0
1, 457038, Note_on_c, 0, 54, 0
1, 457041, Note_on_c, 0, 45, 0
1, 457069, Note_on_c, 0, 62, 35
1, 457069, Note_on_c, 0, 66, 35
1, 457069, Note_on_c, 0, 45, 25
1, 457072, Note_on_c, 0, 54, 25
1, 457713, Note_on_c, 0, 66, 0
1, 457713, Note_on_c, 0, 62, 0
1, 457713, Note_on_c, 0, 54, 0
1, 457716, Note_on_c, 0, 45, 0
1, 457805, Note_on_c, 0, 62, 48
1, 457805, Note_on_c, 0, 66, 48
1, 457805, Control_c, 0, 64, 0
1, 457808, Note_on_c, 0, 54, 30
1, 457808, Note_on_c, 0, 45, 30
1, 457891, Control_c, 0, 64, 127
1, 458160, Note_on_c, 0, 66, 0
1, 458160, Note_on_c, 0, 62, 0
1, 458160, Note_on_c, 0, 45, 0
1, 458163, Note_on_c, 0, 54, 0
1, 458168, Note_on_c, 0, 64, 41
1, 458168, Note_on_c, 0, 71, 41
1, 458168, Note_on_c, 0, 62, 41
1, 458171, Note_on_c, 0, 56, 25
1, 458171, Note_on_c, 0, 45, 25
1, 458522, Note_on_c, 0, 62, 0
1, 458522, Note_on_c, 0, 71, 0
1, 458522, Note_on_c, 0, 64, 0
1, 458525, Note_on_c, 0, 45, 0
1, 458525, Note_on_c, 0, 56, 0
1, 458529, Note_on_c, 0, 64, 47
1, 458529, Note_on_c, 0, 62, 47
1, 458529, Note_on_c, 0, 69, 47
1, 458532, Note_on_c, 0, 45, 29
1, 458532, Note_on_c, 0, 54, 29
1, 458544, Control_c, 0, 64, 0
1, 458714, Control_c, 0, 64, 127
1, 458875, Note_on_c, 0, 69, 0
1, 458875, Note_on_c, 0, 62, 0
1, 458875, Note_on_c, 0, 64, 0
1, 458878, Note_on_c, 0, 54, 0
1, 458878, Note_on_c, 0, 45, 0
1, 458882, Note_on_c, 0, 71, 39
1, 458882, Note_on_c, 0, 62, 39
1, 458882, Note_on_c, 0, 64, 39
1, 458885, Note_on_c, 0, 45, 25
1, 458885, Note_on_c, 0, 56, 25
1, 459254, Note_on_c, 0, 64, 0
1, 459254, Note_on_c, 0, 62, 0
1, 459254, Note_on_c, 0, 71, 0
1, 459257, Note_on_c, 0, 56, 0
1, 459257, Note_on_c, 0, 45, 0
1, 459262, Note_on_c, 0, 64, 46
1, 459262, Note_on_c, 0, 61, 46
1, 459262, Note_on_c, 0, 57, 33
1, 459265, Note_on_c, 0, 45, 33
1, 459269, Control_c, 0, 64, 0
1, 459326, Control_c, 0, 64, 127
1, 459465, Note_on_c, 0, 61, 0
1, 459465, Note_on_c, 0, 64, 0
1, 459465, Note_on_c, 0, 45, 0
1, 459468, Note_on_c, 0, 57, 0
1, 459493, Note_on_c, 0, 61, 39
1, 459493, Note_on_c, 0, 64, 39
1, 459493, Note_on_c, 0, 45, 28
1, 459496, Note_on_c, 0, 57, 28
1, 459701, Note_on_c, 0, 64, 0
1, 459701, Note_on_c, 0, 61, 0
1, 459701, Note_on_c, 0, 57, 0
1, 459704, Note_on_c, 0, 45, 0
1, 459731, Note_on_c, 0, 64, 39
1, 459731, Note_on_c, 0, 61, 39
1, 459731, Note_on_c, 0, 45, 27
1, 459734, Note_on_c, 0, 57, 27
1, 459945, Note_on_c, 0, 61, 0
1, 459945, Note_on_c, 0, 64, 0
1, 459945, Note_on_c, 0, 57, 0
1, 459948, Note_on_c, 0, 45, 0
1, 459975, Note_on_c, 0, 61, 30
1, 459975, Note_on_c, 0, 69, 35
1, 459975, Note_on_c, 0, 52, 25
1, 459978, Note_on_c, 0, 45, 25
1, 460619, Note_on_c, 0, 69, 0
1, 460619, Note_on_c, 0, 61, 0
1, 460619, Note_on_c, 0, 45, 0
1, 460622, Note_on_c, 0, 52, 0
1, 460711, Note_on_c, 0, 61, 60
1, 460711, Note_on_c, 0, 69, 60
1, 460711, Note_on_c, 0, 45, 33
1, 460714, Note_on_c, 0, 52, 33
1, 460717, Control_c, 0, 64, 0
1, 460952, Control_c, 0, 64, 127
1, 461065, Note_on_c, 0, 69, 0
1, 461065, Note_on_c, 0, 61, 0
1, 461065, Note_on_c, 0, 52, 0
1, 461068, Note_on_c, 0, 45, 0
1, 461073, Note_on_c, 0, 61, 50
1, 461073, Note_on_c, 0, 73, 50
1, 461073, Note_on_c, 0, 52, 28
1, 461076, Note_on_c, 0, 45, 28
1, 461427, Note_on_c, 0, 73, 0
1, 461427, Note_on_c, 0, 61, 0
1, 461427, Note_on_c, 0, 45, 0
1, 461430, Note_on_c, 0, 52, 0
1, 461434, Note_on_c, 0, 61, 52
1, 461434, Note_on_c, 0, 71, 52
1, 461434, Note_on_c, 0, 52, 36
1, 461437, Note_on_c, 0, 45, 36
1, 461783, Note_on_c, 0, 71, 0
1, 461783, Note_on_c, 0, 61, 0
1, 461783, Note_on_c, 0, 45, 0
1, 461786, Note_on_c, 0, 52, 0
1, 461790, Note_on_c, 0, 61, 52
1, 461790, Note_on_c, 0, 73, 52
1, 461790, Note_on_c, 0, 45, 32
1, 461793, Note_on_c, 0, 52, 32
1, 462132, Note_on_c, 0, 73, 0
1, 462132, Note_on_c, 0, 61, 0
1, 462132, Note_on_c, 0, 52, 0
1, 462135, Note_on_c, 0, 45, 0
1, 462140, Note_on_c, 0, 69, 58
1, 462140, Note_on_c, 0, 62, 58
1, 462140, Note_on_c, 0, 74, 58
1, 462143, Note_on_c, 0, 54, 41
1, 462143, Note_on_c, 0, 45, 41
1, 462148, Control_c, 0, 64, 0
1, 462245, Control_c, 0, 64, 127
1, 462338, Note_on_c, 0, 74, 0
1, 462338, Note_on_c, 0, 62, 0
1, 462338, Note_on_c, 0, 69, 0
1, 462341, Note_on_c, 0, 45, 0
1, 462341, Note_on_c, 0, 54, 0
1, 462366, Note_on_c, 0, 62, 50
1, 462366, Note_on_c, 0, 74, 50
1, 462366, Note_on_c, 0, 69, 50
1, 462369, Note_on_c, 0, 45, 33
1, 462369, Note_on_c, 0, 54, 33
1, 462568, Note_on_c, 0, 69, 0
1, 462568, Note_on_c, 0, 74, 0
1, 462568, Note_on_c, 0, 62, 0
1, 462571, Note_on_c, 0, 54, 0
1, 462571, Note_on_c, 0, 45, 0
1, 462597, Note_on_c, 0, 74, 50
1, 462597, Note_on_c, 0, 69, 50
1, 462597, Note_on_c, 0, 62, 50
1, 462600, Note_on_c, 0, 45, 32
1, 462600, Note_on_c, 0, 54, 32
1, 462803, Note_on_c, 0, 62, 0
1, 462803, Note_on_c, 0, 69, 0
1, 462803, Note_on_c, 0, 74, 0
1, 462806, Note_on_c, 0, 54, 0
1, 462806, Note_on_c, 0, 45, 0
1, 462833, Note_on_c, 0, 62, 46
1, 462833, Note_on_c, 0, 69, 46
1, 462833, Note_on_c, 0, 74, 46
1, 462836, Note_on_c, 0, 54, 27
1, 462836, Note_on_c, 0, 45, 27
1, 463476, Note_on_c, 0, 74, 0
1, 463476, Note_on_c, 0, 69, 0
1, 463476, Note_on_c, 0, 62, 0
1, 463479, Note_on_c, 0, 45, 0
1, 463479, Note_on_c, 0, 54, 0
1, 463568, Note_on_c, 0, 74, 52
1, 463568, Note_on_c, 0, 66, 52
1, 463568, Note_on_c, 0, 78, 52
1, 463571, Note_on_c, 0, 45, 66
1, 463571, Note_on_c, 0, 54, 66
1, 463576, Control_c, 0, 64, 0
1, 463619, Control_c, 0, 64, 127
1, 463780, Note_on_c, 0, 78, 0
1, 463780, Note_on_c, 0, 66, 0
1, 463780, Note_on_c, 0, 74, 0
1, 463810, Note_on_c, 0, 66, 48
1, 463810, Note_on_c, 0, 78, 48
1, 463810, Note_on_c, 0, 74, 48
1, 463931, Note_on_c, 0, 57, 63
1, 463946, Note_on_c, 0, 54, 0
1, 464020, Note_on_c, 0, 74, 0
1, 464020, Note_on_c, 0, 78, 0
1, 464020, Note_on_c, 0, 66, 0
1, 464050, Note_on_c, 0, 74, 48
1, 464050, Note_on_c, 0, 66, 48
1, 464050, Note_on_c, 0, 78, 48
1, 464257, Note_on_c, 0, 78, 0
1, 464257, Note_on_c, 0, 66, 0
1, 464257, Note_on_c, 0, 74, 0
1, 464287, Note_on_c, 0, 66, 52
1, 464287, Note_on_c, 0, 78, 52
1, 464287, Note_on_c, 0, 74, 52
1, 464290, Note_on_c, 0, 62, 66
1, 464302, Note_on_c, 0, 57, 0
1, 464649, Note_on_c, 0, 66, 68
1, 464664, Note_on_c, 0, 62, 0
1, 464985, Note_on_c, 0, 74, 0
1, 464985, Note_on_c, 0, 78, 0
1, 464985, Note_on_c, 0, 66, 0
1, 465017, Note_on_c, 0, 69, 50
1, 465017, Note_on_c, 0, 73, 50
1, 465017, Note_on_c, 0, 81, 50
1, 465020, Note_on_c, 0, 66, 0
1, 465020, Note_on_c, 0, 45, 0
1, 465020, Note_on_c, 0, 57, 36
1, 465023, Note_on_c, 0, 64, 36
1, 465023, Control_c, 0, 64, 0
1, 465123, Control_c, 0, 64, 127
1, 465213, Note_on_c, 0, 81, 0
1, 465213, Note_on_c, 0, 73, 0
1, 465213, Note_on_c, 0, 69, 0
1, 465216, Note_on_c, 0, 64, 0
1, 465216, Note_on_c, 0, 57, 0
1, 465242, Note_on_c, 0, 81, 46
1, 465242, Note_on_c, 0, 73, 46
1, 465242, Note_on_c, 0, 69, 46
1, 465245, Note_on_c, 0, 64, 32
1, 465245, Note_on_c, 0, 57, 32
1, 465444, Note_on_c, 0, 69, 0
1, 465444, Note_on_c, 0, 73, 0
1, 465444, Note_on_c, 0, 81, 0
1, 465447, Note_on_c, 0, 57, 0
1, 465447, Note_on_c, 0, 64, 0
1, 465474, Note_on_c, 0, 73, 46
1, 465474, Note_on_c, 0, 69, 46
1, 465474, Note_on_c, 0, 81, 46
1, 465477, Note_on_c, 0, 64, 32
1, 465477, Note_on_c, 0, 57, 32
1, 465684, Note_on_c, 0, 81, 0
1, 465684, Note_on_c, 0, 69, 0
1, 465684, Note_on_c, 0, 73, 0
1, 465687, Note_on_c, 0, 57, 0
1, 465687, Note_on_c, 0, 64, 0
1, 465714, Note_on_c, 0, 69, 33
1, 465714, Note_on_c, 0, 81, 37
1, 465714, Note_on_c, 0, 73, 33
1, 465717, Note_on_c, 0, 57, 27
1, 465717, Note_on_c, 0, 64, 27
1, 466354, Note_on_c, 0, 73, 0
1, 466354, Note_on_c, 0, 81, 0
1, 466354, Note_on_c, 0, 69, 0
1, 466357, Note_on_c, 0, 64, 0
1, 466357, Note_on_c, 0, 57, 0
1, 466445, Note_on_c, 0, 68, 55
1, 466445, Note_on_c, 0, 74, 55
1, 466445, Note_on_c, 0, 83, 55
1, 466448, Control_c, 0, 64, 0
1, 466448, Note_on_c, 0, 57, 34
1, 466448, Note_on_c, 0, 64, 34
1, 466630, Control_c, 0, 64, 127
1, 466792, Note_on_c, 0, 83, 0
1, 466792, Note_on_c, 0, 74, 0
1, 466792, Note_on_c, 0, 68, 0
1, 466795, Note_on_c, 0, 64, 0
1, 466795, Note_on_c, 0, 57, 0
1, 466799, Note_on_c, 0, 80, 46
1, 466799, Note_on_c, 0, 74, 46
1, 466799, Note_on_c, 0, 71, 46
1, 466802, Note_on_c, 0, 64, 29
1, 466802, Note_on_c, 0, 57, 29
1, 467150, Note_on_c, 0, 71, 0
1, 467150, Note_on_c, 0, 74, 0
1, 467150, Note_on_c, 0, 80, 0
1, 467153, Note_on_c, 0, 57, 0
1, 467153, Note_on_c, 0, 64, 0
1, 467158, Note_on_c, 0, 71, 51
1, 467158, Note_on_c, 0, 76, 51
1, 467158, Note_on_c, 0, 57, 32
1, 467161, Note_on_c, 0, 68, 32
1, 467174, Control_c, 0, 64, 0
1, 467347, Control_c, 0, 64, 127
1, 467512, Note_on_c, 0, 76, 0
1, 467512, Note_on_c, 0, 71, 0
1, 467512, Note_on_c, 0, 68, 0
1, 467515, Note_on_c, 0, 57, 0
1, 467519, Note_on_c, 0, 69, 44
1, 467519, Note_on_c, 0, 74, 44
1, 467519, Note_on_c, 0, 57, 29
1, 467522, Note_on_c, 0, 66, 29
1, 467878, Note_on_c, 0, 74, 0
1, 467878, Note_on_c, 0, 69, 0
1, 467878, Note_on_c, 0, 66, 0
1, 467881, Note_on_c, 0, 57, 0
1, 467886, Note_on_c, 0, 73, 45
1, 467886, Note_on_c, 0, 69, 45
1, 467886, Note_on_c, 0, 57, 34
1, 467889, Note_on_c, 0, 64, 34
1, 467895, Control_c, 0, 64, 0
1, 467962, Control_c, 0, 64, 127
1, 468082, Note_on_c, 0, 69, 0
1, 468082, Note_on_c, 0, 73, 0
1, 468082, Note_on_c, 0, 64, 0
1, 468085, Note_on_c, 0, 57, 0
1, 468110, Note_on_c, 0, 69, 37
1, 468110, Note_on_c, 0, 73, 37
1, 468110, Note_on_c, 0, 57, 29
1, 468113, Note_on_c, 0, 64, 29
1, 468308, Note_on_c, 0, 73, 0
1, 468308, Note_on_c, 0, 69, 0
1, 468308, Note_on_c, 0, 64, 0
1, 468311, Note_on_c, 0, 57, 0
1, 468337, Note_on_c, 0, 73, 36
1, 468337, Note_on_c, 0, 69, 36
1, 468337, Note_on_c, 0, 57, 29
1, 468340, Note_on_c, 0, 64, 29
1, 468537, Note_on_c, 0, 69, 0
1, 468537, Note_on_c, 0, 73, 0
1, 468537, Note_on_c, 0, 64, 0
1, 468540, Note_on_c, 0, 57, 0
1, 468566, Note_on_c, 0, 69, 29
1, 468566, Note_on_c, 0, 73, 33
1, 468566, Note_on_c, 0, 57, 25
1, 468569, Note_on_c, 0, 64, 25
1, 469198, Note_on_c, 0, 73, 0
1, 469198, Note_on_c, 0, 69, 0
1, 469198, Note_on_c, 0, 64, 0
1, 469201, Note_on_c, 0, 57, 0
1, 469288, Note_on_c, 0, 68, 54
1, 469288, Note_on_c, 0, 74, 54
1, 469288, Note_on_c, 0, 83, 54
1, 469291, Control_c, 0, 64, 0
1, 469291, Note_on_c, 0, 64, 34
1, 469291, Note_on_c, 0, 57, 34
1, 469439, Control_c, 0, 64, 127
1, 469633, Note_on_c, 0, 83, 0
1, 469633, Note_on_c, 0, 74, 0
1, 469633, Note_on_c, 0, 68, 0
1, 469636, Note_on_c, 0, 57, 0
1, 469636, Note_on_c, 0, 64, 0
1, 469640, Note_on_c, 0, 80, 43
1, 469640, Note_on_c, 0, 71, 43
1, 469640, Note_on_c, 0, 74, 43
1, 469643, Note_on_c, 0, 64, 28
1, 469643, Note_on_c, 0, 57, 28
1, 469990, Note_on_c, 0, 74, 0
1, 469990, Note_on_c, 0, 71, 0
1, 469990, Note_on_c, 0, 80, 0
1, 469993, Note_on_c, 0, 57, 0
1, 469993, Note_on_c, 0, 64, 0
1, 469998, Note_on_c, 0, 71, 48
1, 469998, Note_on_c, 0, 76, 48
1, 469998, Note_on_c, 0, 68, 32
1, 470001, Note_on_c, 0, 57, 32
1, 470013, Control_c, 0, 64, 0
1, 470204, Control_c, 0, 64, 127
1, 470352, Note_on_c, 0, 76, 0
1, 470352, Note_on_c, 0, 71, 0
1, 470352, Note_on_c, 0, 57, 0
1, 470355, Note_on_c, 0, 68, 0
1, 470359, Note_on_c, 0, 74, 43
1, 470359, Note_on_c, 0, 69, 43
1, 470359, Note_on_c, 0, 57, 29
1, 470362, Note_on_c, 0, 66, 29
1, 470716, Note_on_c, 0, 69, 0
1, 470716, Note_on_c, 0, 74, 0
1, 470716, Note_on_c, 0, 66, 0
1, 470719, Note_on_c, 0, 57, 0
1, 470724, Note_on_c, 0, 73, 45
1, 470724, Note_on_c, 0, 69, 45
1, 470724, Note_on_c, 0, 64, 39
1, 470727, Note_on_c, 0, 57, 39
1, 470733, Control_c, 0, 64, 0
1, 470832, Control_c, 0, 64, 127
1, 470919, Note_on_c, 0, 69, 0
1, 470919, Note_on_c, 0, 73, 0
1, 470919, Note_on_c, 0, 57, 0
1, 470922, Note_on_c, 0, 64, 0
1, 470947, Note_on_c, 0, 69, 41
1, 470947, Note_on_c, 0, 73, 41
1, 470947, Note_on_c, 0, 57, 36
1, 470950, Note_on_c, 0, 64, 36
1, 471145, Note_on_c, 0, 73, 0
1, 471145, Note_on_c, 0, 69, 0
1, 471145, Note_on_c, 0, 64, 0
1, 471148, Note_on_c, 0, 57, 0
1, 471173, Note_on_c, 0, 73, 38
1, 471173, Note_on_c, 0, 69, 38
1, 471173, Note_on_c, 0, 57, 32
1, 471176, Note_on_c, 0, 64, 32
1, 471374, Note_on_c, 0, 69, 0
1, 471374, Note_on_c, 0, 73, 0
1, 471374, Note_on_c, 0, 64, 0
1, 471377, Note_on_c, 0, 57, 0
1, 471403, Note_on_c, 0, 69, 29
1, 471403, Note_on_c, 0, 73, 33
1, 471403, Note_on_c, 0, 64, 25
1, 471406, Note_on_c, 0, 57, 25
1, 472041, Note_on_c, 0, 73, 0
1, 472041, Note_on_c, 0, 69, 0
1, 472041, Note_on_c, 0, 57, 0
1, 472044, Note_on_c, 0, 64, 0
1, 472132, Note_on_c, 0, 69, 45
1, 472132, Note_on_c, 0, 57, 35
1, 472132, Note_on_c, 0, 61, 35
1, 472141, Control_c, 0, 64, 0
1, 472286, Control_c, 0, 64, 127
1, 472482, Note_on_c, 0, 69, 0
1, 472482, Note_on_c, 0, 61, 0
1, 472482, Note_on_c, 0, 57, 0
1, 472489, Note_on_c, 0, 73, 41
1, 472489, Note_on_c, 0, 69, 36
1, 472489, Note_on_c, 0, 64, 33
1, 472492, Note_on_c, 0, 57, 33
1, 472847, Note_on_c, 0, 69, 0
1, 472847, Note_on_c, 0, 73, 0
1, 472847, Note_on_c, 0, 57, 0
1, 472850, Note_on_c, 0, 64, 0
1, 472854, Note_on_c, 0, 69, 39
1, 472854, Note_on_c, 0, 71, 45
1, 472854, Note_on_c, 0, 62, 35
1, 472857, Note_on_c, 0, 57, 35
1, 472869, Control_c, 0, 64, 0
1, 472990, Control_c, 0, 64, 127
1, 473205, Note_on_c, 0, 71, 0
1, 473205, Note_on_c, 0, 69, 0
1, 473205, Note_on_c, 0, 57, 0
1, 473208, Note_on_c, 0, 62, 0
1, 473213, Note_on_c, 0, 69, 37
1, 473213, Note_on_c, 0, 73, 43
1, 473213, Note_on_c, 0, 57, 34
1, 473216, Note_on_c, 0, 64, 34
1, 473578, Note_on_c, 0, 73, 0
1, 473578, Note_on_c, 0, 69, 0
1, 473578, Note_on_c, 0, 64, 0
1, 473581, Note_on_c, 0, 57, 0
1, 473585, Note_on_c, 0, 69, 44
1, 473585, Note_on_c, 0, 76, 44
1, 473585, Control_c, 0, 64, 0
1, 473588, Note_on_c, 0, 66, 35
1, 473588, Note_on_c, 0, 57, 35
1, 473759, Control_c, 0, 64, 127
1, 473782, Note_on_c, 0, 76, 0
1, 473782, Note_on_c, 0, 69, 0
1, 473782, Note_on_c, 0, 57, 0
1, 473785, Note_on_c, 0, 66, 0
1, 473810, Note_on_c, 0, 76, 40
1, 473810, Note_on_c, 0, 69, 40
1, 473810, Note_on_c, 0, 57, 30
1, 473813, Note_on_c, 0, 66, 30
1, 474009, Note_on_c, 0, 69, 0
1, 474009, Note_on_c, 0, 76, 0
1, 474009, Note_on_c, 0, 66, 0
1, 474012, Note_on_c, 0, 57, 0
1, 474038, Note_on_c, 0, 69, 39
1, 474038, Note_on_c, 0, 76, 39
1, 474038, Note_on_c, 0, 57, 30
1, 474041, Note_on_c, 0, 66, 30
1, 474240, Note_on_c, 0, 76, 0
1, 474240, Note_on_c, 0, 69, 0
1, 474240, Note_on_c, 0, 66, 0
1, 474243, Note_on_c, 0, 57, 0
1, 474269, Note_on_c, 0, 75, 34
1, 474269, Note_on_c, 0, 69, 28
1, 474269, Note_on_c, 0, 66, 25
1, 474272, Note_on_c, 0, 57, 25
1, 474448, Note_on_c, 0, 69, 0
1, 474448, Note_on_c, 0, 75, 0
1, 474448, Note_on_c, 0, 57, 0
1, 474451, Note_on_c, 0, 66, 0
1, 474519, Control_c, 0, 64, 0
1, 474986, Note_on_c, 0, 88, 47
1, 474986, Note_on_c, 0, 93, 47
1, 474986, Note_on_c, 0, 81, 47
1, 474989, Note_on_c, 0, 69, 32
1, 474989, Note_on_c, 0, 77, 32
1, 475010, Control_c, 0, 64, 127
1, 475183, Note_on_c, 0, 81, 0
1, 475183, Note_on_c, 0, 93, 0
1, 475183, Note_on_c, 0, 88, 0
1, 475186, Note_on_c, 0, 77, 0
1, 475186, Note_on_c, 0, 69, 0
1, 475211, Note_on_c, 0, 93, 41
1, 475211, Note_on_c, 0, 81, 41
1, 475211, Note_on_c, 0, 88, 41
1, 475214, Note_on_c, 0, 77, 29
1, 475214, Note_on_c, 0, 69, 29
1, 475408, Note_on_c, 0, 88, 0
1, 475408, Note_on_c, 0, 81, 0
1, 475408, Note_on_c, 0, 93, 0
1, 475411, Note_on_c, 0, 69, 0
1, 475411, Note_on_c, 0, 77, 0
1, 475436, Note_on_c, 0, 93, 40
1, 475436, Note_on_c, 0, 88, 40
1, 475436, Note_on_c, 0, 81, 40
1, 475439, Note_on_c, 0, 69, 29
1, 475439, Note_on_c, 0, 77, 29
1, 475633, Note_on_c, 0, 81, 0
1, 475633, Note_on_c, 0, 88, 0
1, 475633, Note_on_c, 0, 93, 0
1, 475636, Note_on_c, 0, 77, 0
1, 475636, Note_on_c, 0, 69, 0
1, 475661, Note_on_c, 0, 86, 34
1, 475661, Note_on_c, 0, 93, 34
1, 475661, Note_on_c, 0, 81, 34
1, 475664, Note_on_c, 0, 69, 18
1, 475664, Note_on_c, 0, 77, 19
1, 475890, Control_c, 0, 64, 0
1, 475978, Note_on_c, 0, 81, 0
1, 475978, Note_on_c, 0, 93, 0
1, 475978, Note_on_c, 0, 86, 0
1, 475981, Note_on_c, 0, 77, 0
1, 475981, Note_on_c, 0, 69, 0
1, 476353, Note_on_c, 0, 69, 44
1, 476353, Note_on_c, 0, 74, 44
1, 476353, Note_on_c, 0, 64, 35
1, 476356, Note_on_c, 0, 57, 35
1, 476383, Control_c, 0, 64, 127
1, 476557, Note_on_c, 0, 74, 0
1, 476557, Note_on_c, 0, 69, 0
1, 476557, Note_on_c, 0, 57, 0
1, 476560, Note_on_c, 0, 64, 0
1, 476586, Note_on_c, 0, 69, 39
1, 476586, Note_on_c, 0, 74, 39
1, 476586, Note_on_c, 0, 64, 30
1, 476589, Note_on_c, 0, 57, 30
1, 476791, Note_on_c, 0, 74, 0
1, 476791, Note_on_c, 0, 69, 0
1, 476791, Note_on_c, 0, 57, 0
1, 476794, Note_on_c, 0, 64, 0
1, 476821, Note_on_c, 0, 69, 39
1, 476821, Note_on_c, 0, 74, 39
1, 476821, Note_on_c, 0, 64, 32
1, 476824, Note_on_c, 0, 57, 32
1, 477027, Note_on_c, 0, 74, 0
1, 477027, Note_on_c, 0, 69, 0
1, 477027, Note_on_c, 0, 57, 0
1, 477030, Note_on_c, 0, 64, 0
1, 477057, Note_on_c, 0, 73, 37
1, 477057, Note_on_c, 0, 69, 37
1, 477057, Note_on_c, 0, 57, 22
1, 477060, Note_on_c, 0, 64, 23
1, 477307, Control_c, 0, 64, 0
1, 477388, Note_on_c, 0, 69, 0
1, 477388, Note_on_c, 0, 73, 0
1, 477388, Note_on_c, 0, 64, 0
1, 477391, Note_on_c, 0, 57, 0
1, 477780, Note_on_c, 0, 93, 47
1, 477780, Note_on_c, 0, 86, 47
1, 477780, Note_on_c, 0, 81, 47
1, 477783, Note_on_c, 0, 76, 32
1, 477783, Note_on_c, 0, 69, 32
1, 477807, Control_c, 0, 64, 127
1, 477976, Note_on_c, 0, 81, 0
1, 477976, Note_on_c, 0, 86, 0
1, 477976, Note_on_c, 0, 93, 0
1, 477979, Note_on_c, 0, 69, 0
1, 477979, Note_on_c, 0, 76, 0
1, 478004, Note_on_c, 0, 81, 43
1, 478004, Note_on_c, 0, 86, 43
1, 478004, Note_on_c, 0, 93, 43
1, 478007, Note_on_c, 0, 69, 29
1, 478007, Note_on_c, 0, 76, 29
1, 478200, Note_on_c, 0, 93, 0
1, 478200, Note_on_c, 0, 86, 0
1, 478200, Note_on_c, 0, 81, 0
1, 478203, Note_on_c, 0, 76, 0
1, 478203, Note_on_c, 0, 69, 0
1, 478228, Note_on_c, 0, 93, 40
1, 478228, Note_on_c, 0, 86, 40
1, 478228, Note_on_c, 0, 81, 40
1, 478231, Note_on_c, 0, 76, 30
1, 478231, Note_on_c, 0, 69, 30
1, 478424, Note_on_c, 0, 81, 0
1, 478424, Note_on_c, 0, 86, 0
1, 478424, Note_on_c, 0, 93, 0
1, 478427, Note_on_c, 0, 69, 0
1, 478427, Note_on_c, 0, 76, 0
1, 478452, Note_on_c, 0, 93, 37
1, 478452, Note_on_c, 0, 81, 37
1, 478452, Note_on_c, 0, 84, 37
1, 478455, Note_on_c, 0, 69, 23
1, 478455, Note_on_c, 0, 76, 23
1, 478698, Control_c, 0, 64, 0
1, 478785, Note_on_c, 0, 84, 0
1, 478785, Note_on_c, 0, 81, 0
1, 478785, Note_on_c, 0, 93, 0
1, 478788, Note_on_c, 0, 76, 0
1, 478788, Note_on_c, 0, 69, 0
1, 479178, Note_on_c, 0, 59, 95
1, 479178, Note_on_c, 0, 71, 95
1, 479178, Note_on_c, 0, 69, 95
1, 479181, Note_on_c, 0, 65, 95
1, 479181, Note_on_c, 0, 38, 69
1, 479181, Note_on_c, 0, 50, 69
1, 479273, Control_c, 0, 64, 127
1, 479377, Note_on_c, 0, 65, 0
1, 479377, Note_on_c, 0, 59, 0
1, 479377, Note_on_c, 0, 71, 0
1, 479380, Note_on_c, 0, 69, 0
1, 479380, Note_on_c, 0, 50, 0
1, 479380, Note_on_c, 0, 38, 0
1, 479405, Note_on_c, 0, 65, 89
1, 479405, Note_on_c, 0, 71, 89
1, 479405, Note_on_c, 0, 69, 89
1, 479408, Note_on_c, 0, 59, 89
1, 479408, Note_on_c, 0, 50, 63
1, 479408, Note_on_c, 0, 38, 63
1, 479605, Note_on_c, 0, 59, 0
1, 479605, Note_on_c, 0, 65, 0
1, 479605, Note_on_c, 0, 71, 0
1, 479608, Note_on_c, 0, 69, 0
1, 479608, Note_on_c, 0, 38, 0
1, 479608, Note_on_c, 0, 50, 0
1, 479634, Note_on_c, 0, 69, 83
1, 479634, Note_on_c, 0, 71, 83
1, 479634, Note_on_c, 0, 65, 83
1, 479637, Note_on_c, 0, 59, 83
1, 479637, Note_on_c, 0, 38, 59
1, 479637, Note_on_c, 0, 50, 59
1, 479837, Note_on_c, 0, 59, 0
1, 479837, Note_on_c, 0, 69, 0
1, 479837, Note_on_c, 0, 71, 0
1, 479840, Note_on_c, 0, 65, 0
1, 479840, Note_on_c, 0, 50, 0
1, 479840, Note_on_c, 0, 38, 0
1, 479866, Note_on_c, 0, 59, 67
1, 479866, Note_on_c, 0, 71, 67
1, 479866, Note_on_c, 0, 69, 67
1, 479869, Note_on_c, 0, 65, 67
1, 479869, Note_on_c, 0, 38, 44
1, 479869, Note_on_c, 0, 50, 44
1, 480198, Note_on_c, 0, 65, 0
1, 480198, Note_on_c, 0, 59, 0
1, 480198, Note_on_c, 0, 71, 0
1, 480201, Note_on_c, 0, 69, 0
1, 480201, Note_on_c, 0, 50, 0
1, 480201, Note_on_c, 0, 38, 0
1, 480257, Control_c, 0, 64, 0
1, 480592, Note_on_c, 0, 78, 56
1, 480592, Note_on_c, 0, 81, 56
1, 480592, Note_on_c, 0, 83, 65
1, 480595, Note_on_c, 0, 69, 49
1, 480595, Note_on_c, 0, 71, 49
1, 480595, Note_on_c, 0, 62, 49
1, 480727, Control_c, 0, 64, 127
1, 480940, Note_on_c, 0, 83, 0
1, 480940, Note_on_c, 0, 81, 0
1, 480940, Note_on_c, 0, 78, 0
1, 480943, Note_on_c, 0, 62, 0
1, 480943, Note_on_c, 0, 71, 0
1, 480943, Note_on_c, 0, 69, 0
1, 480948, Note_on_c, 0, 85, 56
1, 480948, Note_on_c, 0, 76, 47
1, 480948, Note_on_c, 0, 81, 47
1, 480951, Note_on_c, 0, 69, 44
1, 480951, Note_on_c, 0, 73, 44
1, 480951, Note_on_c, 0, 64, 44
1, 480956, Control_c, 0, 64, 0
1, 481044, Control_c, 0, 64, 127
1, 481291, Note_on_c, 0, 81, 0
1, 481291, Note_on_c, 0, 76, 0
1, 481291, Note_on_c, 0, 85, 0
1, 481294, Note_on_c, 0, 64, 0
1, 481294, Note_on_c, 0, 73, 0
1, 481294, Note_on_c, 0, 69, 0
1, 481299, Note_on_c, 0, 74, 52
1, 481299, Note_on_c, 0, 81, 52
1, 481299, Note_on_c, 0, 86, 60
1, 481302, Note_on_c, 0, 69, 47
1, 481302, Note_on_c, 0, 66, 47
1, 481313, Control_c, 0, 64, 0
1, 481455, Control_c, 0, 64, 127
1, 481640, Note_on_c, 0, 86, 0
1, 481640, Note_on_c, 0, 81, 0
1, 481640, Note_on_c, 0, 74, 0
1, 481643, Note_on_c, 0, 66, 0
1, 481643, Note_on_c, 0, 69, 0
1, 481647, Note_on_c, 0, 85, 56
1, 481647, Note_on_c, 0, 76, 47
1, 481647, Note_on_c, 0, 81, 47
1, 481650, Note_on_c, 0, 64, 46
1, 481650, Note_on_c, 0, 73, 46
1, 481650, Note_on_c, 0, 69, 46
1, 481659, Control_c, 0, 64, 0
1, 481748, Control_c, 0, 64, 127
1, 482007, Note_on_c, 0, 81, 0
1, 482007, Note_on_c, 0, 76, 0
1, 482007, Note_on_c, 0, 85, 0
1, 482010, Note_on_c, 0, 69, 0
1, 482010, Note_on_c, 0, 73, 0
1, 482010, Note_on_c, 0, 64, 0
1, 482015, Note_on_c, 0, 88, 60
1, 482015, Note_on_c, 0, 81, 60
1, 482015, Note_on_c, 0, 76, 60
1, 482018, Note_on_c, 0, 64, 46
1, 482018, Note_on_c, 0, 71, 46
1, 482018, Note_on_c, 0, 74, 46
1, 482022, Control_c, 0, 64, 0
1, 482094, Control_c, 0, 64, 127
1, 482210, Note_on_c, 0, 76, 0
1, 482210, Note_on_c, 0, 81, 0
1, 482210, Note_on_c, 0, 88, 0
1, 482213, Note_on_c, 0, 74, 0
1, 482213, Note_on_c, 0, 71, 0
1, 482213, Note_on_c, 0, 64, 0
1, 482238, Note_on_c, 0, 76, 52
1, 482238, Note_on_c, 0, 88, 52
1, 482238, Note_on_c, 0, 81, 52
1, 482241, Note_on_c, 0, 64, 44
1, 482241, Note_on_c, 0, 71, 44
1, 482241, Note_on_c, 0, 74, 44
1, 482435, Note_on_c, 0, 81, 0
1, 482435, Note_on_c, 0, 88, 0
1, 482435, Note_on_c, 0, 76, 0
1, 482438, Note_on_c, 0, 74, 0
1, 482438, Note_on_c, 0, 71, 0
1, 482438, Note_on_c, 0, 64, 0
1, 482464, Note_on_c, 0, 88, 51
1, 482464, Note_on_c, 0, 81, 51
1, 482464, Note_on_c, 0, 76, 51
1, 482467, Note_on_c, 0, 64, 39
1, 482467, Note_on_c, 0, 71, 39
1, 482467, Note_on_c, 0, 74, 39
1, 482664, Note_on_c, 0, 76, 0
1, 482664, Note_on_c, 0, 81, 0
1, 482664, Note_on_c, 0, 88, 0
1, 482667, Note_on_c, 0, 74, 0
1, 482667, Note_on_c, 0, 71, 0
1, 482667, Note_on_c, 0, 64, 0
1, 482692, Note_on_c, 0, 80, 38
1, 482692, Note_on_c, 0, 88, 33
1, 482692, Note_on_c, 0, 76, 33
1, 482695, Note_on_c, 0, 74, 25
1, 482695, Note_on_c, 0, 71, 25
1, 482695, Note_on_c, 0, 64, 25
1, 482936, Control_c, 0, 64, 0
1, 483022, Note_on_c, 0, 76, 0
1, 483022, Note_on_c, 0, 88, 0
1, 483022, Note_on_c, 0, 80, 0
1, 483025, Note_on_c, 0, 64, 0
1, 483025, Note_on_c, 0, 71, 0
1, 483025, Note_on_c, 0, 74, 0
1, 483420, Note_on_c, 0, 69, 47
1, 483420, Note_on_c, 0, 73, 47
1, 483420, Note_on_c, 0, 64, 37
1, 483423, Note_on_c, 0, 57, 37
1, 483448, Control_c, 0, 64, 127
1, 483620, Note_on_c, 0, 73, 0
1, 483620, Note_on_c, 0, 69, 0
1, 483620, Note_on_c, 0, 57, 0
1, 483623, Note_on_c, 0, 64, 0
1, 483649, Note_on_c, 0, 73, 40
1, 483649, Note_on_c, 0, 69, 40
1, 483649, Note_on_c, 0, 64, 34
1, 483652, Note_on_c, 0, 57, 34
1, 483851, Note_on_c, 0, 69, 0
1, 483851, Note_on_c, 0, 73, 0
1, 483851, Note_on_c, 0, 57, 0
1, 483854, Note_on_c, 0, 64, 0
1, 483880, Note_on_c, 0, 69, 39
1, 483880, Note_on_c, 0, 73, 39
1, 483880, Note_on_c, 0, 64, 34
1, 483883, Note_on_c, 0, 57, 34
1, 484085, Note_on_c, 0, 73, 0
1, 484085, Note_on_c, 0, 69, 0
1, 484085, Note_on_c, 0, 57, 0
1, 484088, Note_on_c, 0, 64, 0
1, 484114, Note_on_c, 0, 69, 33
1, 484114, Note_on_c, 0, 73, 33
1, 484114, Note_on_c, 0, 57, 33
1, 484117, Note_on_c, 0, 64, 26
1, 484438, Note_on_c, 0, 73, 0
1, 484438, Note_on_c, 0, 69, 0
1, 484438, Note_on_c, 0, 64, 0
1, 484441, Note_on_c, 0, 57, 0
1, 484468, Control_c, 0, 64, 0
1, 484836, Note_on_c, 0, 69, 95
1, 484836, Note_on_c, 0, 71, 95
1, 484836, Note_on_c, 0, 65, 95
1, 484839, Note_on_c, 0, 59, 95
1, 484839, Note_on_c, 0, 50, 73
1, 484839, Note_on_c, 0, 38, 73
1, 484911, Control_c, 0, 64, 127
1, 485032, Note_on_c, 0, 59, 0
1, 485032, Note_on_c, 0, 69, 0
1, 485032, Note_on_c, 0, 71, 0
1, 485035, Note_on_c, 0, 65, 0
1, 485035, Note_on_c, 0, 38, 0
1, 485035, Note_on_c, 0, 50, 0
1, 485060, Note_on_c, 0, 59, 89
1, 485060, Note_on_c, 0, 65, 89
1, 485060, Note_on_c, 0, 71, 89
1, 485063, Note_on_c, 0, 69, 89
1, 485063, Note_on_c, 0, 38, 65
1, 485063, Note_on_c, 0, 50, 65
1, 485256, Note_on_c, 0, 69, 0
1, 485256, Note_on_c, 0, 59, 0
1, 485256, Note_on_c, 0, 65, 0
1, 485259, Note_on_c, 0, 71, 0
1, 485259, Note_on_c, 0, 50, 0
1, 485259, Note_on_c, 0, 38, 0
1, 485284, Note_on_c, 0, 59, 82
1, 485284, Note_on_c, 0, 65, 82
1, 485284, Note_on_c, 0, 69, 82
1, 485287, Note_on_c, 0, 71, 82
1, 485287, Note_on_c, 0, 38, 61
1, 485287, Note_on_c, 0, 50, 61
1, 485480, Note_on_c, 0, 71, 0
1, 485480, Note_on_c, 0, 59, 0
1, 485480, Note_on_c, 0, 65, 0
1, 485483, Note_on_c, 0, 69, 0
1, 485483, Note_on_c, 0, 50, 0
1, 485483, Note_on_c, 0, 38, 0
1, 485508, Note_on_c, 0, 71, 66
1, 485508, Note_on_c, 0, 69, 66
1, 485508, Note_on_c, 0, 65, 66
1, 485511, Note_on_c, 0, 59, 66
1, 485511, Note_on_c, 0, 38, 45
1, 485511, Note_on_c, 0, 50, 45
1, 485829, Note_on_c, 0, 59, 0
1, 485829, Note_on_c, 0, 71, 0
1, 485829, Note_on_c, 0, 69, 0
1, 485832, Note_on_c, 0, 65, 0
1, 485832, Note_on_c, 0, 50, 0
1, 485832, Note_on_c, 0, 38, 0
1, 485858, Control_c, 0, 64, 0
1, 486208, Note_on_c, 0, 78, 56
1, 486208, Note_on_c, 0, 83, 65
1, 486208, Note_on_c, 0, 81, 56
1, 486211, Note_on_c, 0, 62, 49
1, 486211, Note_on_c, 0, 71, 49
1, 486211, Note_on_c, 0, 69, 49
1, 486232, Control_c, 0, 64, 127
1, 486555, Note_on_c, 0, 81, 0
1, 486555, Note_on_c, 0, 83, 0
1, 486555, Note_on_c, 0, 78, 0
1, 486558, Note_on_c, 0, 69, 0
1, 486558, Note_on_c, 0, 71, 0
1, 486558, Note_on_c, 0, 62, 0
1, 486562, Note_on_c, 0, 81, 51
1, 486562, Note_on_c, 0, 76, 51
1, 486562, Note_on_c, 0, 85, 59
1, 486565, Note_on_c, 0, 73, 46
1, 486565, Note_on_c, 0, 69, 46
1, 486565, Note_on_c, 0, 64, 46
1, 486575, Control_c, 0, 64, 0
1, 486696, Control_c, 0, 64, 127
1, 486908, Note_on_c, 0, 85, 0
1, 486908, Note_on_c, 0, 76, 0
1, 486908, Note_on_c, 0, 81, 0
1, 486911, Note_on_c, 0, 64, 0
1, 486911, Note_on_c, 0, 69, 0
1, 486911, Note_on_c, 0, 73, 0
1, 486915, Note_on_c, 0, 86, 63
1, 486915, Note_on_c, 0, 74, 54
1, 486915, Note_on_c, 0, 81, 54
1, 486918, Note_on_c, 0, 66, 49
1, 486918, Note_on_c, 0, 69, 49
1, 486926, Control_c, 0, 64, 0
1, 486995, Control_c, 0, 64, 127
1, 487253, Note_on_c, 0, 81, 0
1, 487253, Note_on_c, 0, 74, 0
1, 487253, Note_on_c, 0, 86, 0
1, 487256, Note_on_c, 0, 69, 0
1, 487256, Note_on_c, 0, 66, 0
1, 487260, Note_on_c, 0, 81, 49
1, 487260, Note_on_c, 0, 76, 49
1, 487260, Note_on_c, 0, 85, 57
1, 487263, Note_on_c, 0, 64, 46
1, 487263, Note_on_c, 0, 69, 46
1, 487263, Note_on_c, 0, 73, 46
1, 487269, Control_c, 0, 64, 0
1, 487413, Control_c, 0, 64, 127
1, 487622, Note_on_c, 0, 85, 0
1, 487622, Note_on_c, 0, 76, 0
1, 487622, Note_on_c, 0, 81, 0
1, 487625, Note_on_c, 0, 73, 0
1, 487625, Note_on_c, 0, 69, 0
1, 487625, Note_on_c, 0, 64, 0
1, 487629, Note_on_c, 0, 88, 60
1, 487629, Note_on_c, 0, 76, 60
1, 487629, Note_on_c, 0, 81, 60
1, 487632, Note_on_c, 0, 71, 46
1, 487632, Note_on_c, 0, 74, 46
1, 487632, Note_on_c, 0, 64, 46
1, 487639, Control_c, 0, 64, 0
1, 487739, Control_c, 0, 64, 127
1, 487827, Note_on_c, 0, 81, 0
1, 487827, Note_on_c, 0, 76, 0
1, 487827, Note_on_c, 0, 88, 0
1, 487830, Note_on_c, 0, 64, 0
1, 487830, Note_on_c, 0, 74, 0
1, 487830, Note_on_c, 0, 71, 0
1, 487855, Note_on_c, 0, 88, 57
1, 487855, Note_on_c, 0, 81, 57
1, 487855, Note_on_c, 0, 76, 57
1, 487858, Note_on_c, 0, 64, 43
1, 487858, Note_on_c, 0, 71, 43
1, 487858, Note_on_c, 0, 74, 43
1, 488053, Note_on_c, 0, 76, 0
1, 488053, Note_on_c, 0, 81, 0
1, 488053, Note_on_c, 0, 88, 0
1, 488056, Note_on_c, 0, 74, 0
1, 488056, Note_on_c, 0, 71, 0
1, 488056, Note_on_c, 0, 64, 0
1, 488081, Note_on_c, 0, 76, 57
1, 488081, Note_on_c, 0, 81, 57
1, 488081, Note_on_c, 0, 88, 57
1, 488084, Note_on_c, 0, 71, 43
1, 488084, Note_on_c, 0, 74, 43
1, 488084, Note_on_c, 0, 64, 43
1, 488279, Note_on_c, 0, 88, 0
1, 488279, Note_on_c, 0, 81, 0
1, 488279, Note_on_c, 0, 76, 0
1, 488282, Note_on_c, 0, 64, 0
1, 488282, Note_on_c, 0, 74, 0
1, 488282, Note_on_c, 0, 71, 0
1, 488307, Note_on_c, 0, 88, 37
1, 488307, Note_on_c, 0, 76, 36
1, 488307, Note_on_c, 0, 80, 43
1, 488310, Note_on_c, 0, 64, 27
1, 488310, Note_on_c, 0, 74, 27
1, 488310, Note_on_c, 0, 71, 27
1, 488520, Control_c, 0, 64, 0
1, 488640, Note_on_c, 0, 80, 0
1, 488640, Note_on_c, 0, 76, 0
1, 488640, Note_on_c, 0, 88, 0
1, 488643, Note_on_c, 0, 71, 0
1, 488643, Note_on_c, 0, 74, 0
1, 488643, Note_on_c, 0, 64, 0
1, 489033, Note_on_c, 0, 69, 116
1, 489033, Note_on_c, 0, 57, 105
1, 489033, Note_on_c, 0, 45, 93
1, 489036, Note_on_c, 0, 33, 84
1, 489224, Note_on_c, 0, 57, 0
1, 489224, Note_on_c, 0, 69, 0
1, 489224, Note_on_c, 0, 33, 0
1, 489227, Note_on_c, 0, 45, 0
1, 489251, Note_on_c, 0, 57, 98
1, 489251, Note_on_c, 0, 69, 107
1, 489251, Note_on_c, 0, 45, 83
1, 489254, Control_c, 0, 64, 127
1, 489254, Note_on_c, 0, 33, 76
1, 489449, Note_on_c, 0, 69, 0
1, 489449, Note_on_c, 0, 57, 0
1, 489449, Note_on_c, 0, 33, 0
1, 489452, Note_on_c, 0, 45, 0
1, 489479, Note_on_c, 0, 57, 88
1, 489479, Note_on_c, 0, 69, 96
1, 489479, Note_on_c, 0, 45, 77
1, 489482, Note_on_c, 0, 33, 69
1, 489687, Note_on_c, 0, 69, 0
1, 489687, Note_on_c, 0, 57, 0
1, 489687, Note_on_c, 0, 33, 0
1, 489690, Note_on_c, 0, 45, 0
1, 489716, Note_on_c, 0, 57, 79
1, 489716, Note_on_c, 0, 69, 87
1, 489716, Note_on_c, 0, 33, 60
1, 489719, Note_on_c, 0, 45, 67
1, 490034, Control_c, 0, 64, 0
1, 490049, Note_on_c, 0, 69, 0
1, 490049, Note_on_c, 0, 57, 0
1, 490049, Note_on_c, 0, 45, 0
1, 490052, Note_on_c, 0, 33, 0
1, 490443, Note_on_c, 0, 64, 46
1, 490443, Note_on_c, 0, 61, 46
1, 490443, Note_on_c, 0, 52, 32
1, 490446, Note_on_c, 0, 45, 32
1, 490467, Control_c, 0, 64, 127
1, 490791, Note_on_c, 0, 61, 0
1, 490791, Note_on_c, 0, 64, 0
1, 490791, Note_on_c, 0, 45, 0
1, 490794, Note_on_c, 0, 52, 0
1, 490799, Note_on_c, 0, 61, 40
1, 490799, Note_on_c, 0, 73, 40
1, 490799, Note_on_c, 0, 52, 27
1, 490802, Note_on_c, 0, 45, 27
1, 491144, Note_on_c, 0, 73, 0
1, 491144, Note_on_c, 0, 61, 0
1, 491144, Note_on_c, 0, 45, 0
1, 491147, Note_on_c, 0, 52, 0
1, 491151, Note_on_c, 0, 71, 47
1, 491151, Note_on_c, 0, 61, 47
1, 491151, Note_on_c, 0, 52, 30
1, 491154, Note_on_c, 0, 45, 30
1, 491492, Note_on_c, 0, 61, 0
1, 491492, Note_on_c, 0, 71, 0
1, 491492, Note_on_c, 0, 45, 0
1, 491495, Note_on_c, 0, 52, 0
1, 491499, Note_on_c, 0, 61, 40
1, 491499, Note_on_c, 0, 73, 40
1, 491499, Note_on_c, 0, 45, 26
1, 491502, Note_on_c, 0, 52, 26
1, 491870, Note_on_c, 0, 73, 0
1, 491870, Note_on_c, 0, 61, 0
1, 491870, Note_on_c, 0, 52, 0
1, 491873, Note_on_c, 0, 45, 0
1, 491878, Note_on_c, 0, 73, 49
1, 491878, Note_on_c, 0, 65, 34
1, 491878, Note_on_c, 0, 76, 49
1, 491881, Note_on_c, 0, 45, 26
1, 491881, Note_on_c, 0, 53, 26
1, 491892, Control_c, 0, 64, 0
1, 491939, Control_c, 0, 64, 127
1, 492541, Note_on_c, 0, 76, 0
1, 492541, Note_on_c, 0, 65, 0
1, 492541, Note_on_c, 0, 73, 0
1, 492544, Note_on_c, 0, 53, 0
1, 492544, Note_on_c, 0, 45, 0
1, 492570, Note_on_c, 0, 65, 32
1, 492570, Note_on_c, 0, 71, 33
1, 492570, Note_on_c, 0, 74, 33
1, 492573, Note_on_c, 0, 45, 18
1, 492573, Note_on_c, 0, 53, 18
1, 492635, Control_c, 0, 64, 0
1, 492748, Note_on_c, 0, 74, 0
1, 492748, Note_on_c, 0, 71, 0
1, 492748, Note_on_c, 0, 65, 0
1, 492751, Note_on_c, 0, 53, 0
1, 492751, Note_on_c, 0, 45, 0
1, 493282, Note_on_c, 0, 76, 49
1, 493282, Note_on_c, 0, 64, 39
1, 493282, Note_on_c, 0, 73, 49
1, 493285, Note_on_c, 0, 56, 33
1, 493285, Note_on_c, 0, 45, 33
1, 493310, Control_c, 0, 64, 127
1, 493953, Note_on_c, 0, 73, 0
1, 493953, Note_on_c, 0, 64, 0
1, 493953, Note_on_c, 0, 76, 0
1, 493956, Note_on_c, 0, 45, 0
1, 493956, Note_on_c, 0, 56, 0
1, 493982, Note_on_c, 0, 64, 29
1, 493982, Note_on_c, 0, 71, 33
1, 493982, Note_on_c, 0, 74, 33
1, 493985, Note_on_c, 0, 56, 19
1, 493985, Note_on_c, 0, 45, 19
1, 494098, Control_c, 0, 64, 0
1, 494165, Note_on_c, 0, 74, 0
1, 494165, Note_on_c, 0, 71, 0
1, 494165, Note_on_c, 0, 64, 0
1, 494168, Note_on_c, 0, 45, 0
1, 494168, Note_on_c, 0, 56, 0
1, 494714, Note_on_c, 0, 81, 116
1, 494714, Note_on_c, 0, 69, 105
1, 494714, Note_on_c, 0, 45, 92
1, 494717, Note_on_c, 0, 33, 83
1, 494861, Control_c, 0, 64, 127
1, 494908, Note_on_c, 0, 69, 0
1, 494908, Note_on_c, 0, 81, 0
1, 494908, Note_on_c, 0, 33, 0
1, 494911, Note_on_c, 0, 45, 0
1, 494936, Note_on_c, 0, 69, 99
1, 494936, Note_on_c, 0, 81, 110
1, 494936, Note_on_c, 0, 45, 85
1, 494939, Note_on_c, 0, 33, 78
1, 495134, Note_on_c, 0, 81, 0
1, 495134, Note_on_c, 0, 69, 0
1, 495134, Note_on_c, 0, 33, 0
1, 495137, Note_on_c, 0, 45, 0
1, 495163, Note_on_c, 0, 69, 94
1, 495163, Note_on_c, 0, 81, 104
1, 495163, Note_on_c, 0, 45, 83
1, 495166, Note_on_c, 0, 33, 76
1, 495368, Note_on_c, 0, 81, 0
1, 495368, Note_on_c, 0, 69, 0
1, 495368, Note_on_c, 0, 33, 0
1, 495371, Note_on_c, 0, 45, 0
1, 495398, Note_on_c, 0, 69, 77
1, 495398, Note_on_c, 0, 81, 84
1, 495398, Note_on_c, 0, 45, 68
1, 495401, Note_on_c, 0, 33, 61
1, 495732, Note_on_c, 0, 81, 0
1, 495732, Note_on_c, 0, 69, 0
1, 495732, Note_on_c, 0, 33, 0
1, 495735, Note_on_c, 0, 45, 0
1, 495762, Control_c, 0, 64, 0
1, 496127, Note_on_c, 0, 61, 48
1, 496127, Note_on_c, 0, 64, 48
1, 496127, Note_on_c, 0, 52, 35
1, 496130, Note_on_c, 0, 45, 35
1, 496158, Control_c, 0, 64, 127
1, 496477, Note_on_c, 0, 64, 0
1, 496477, Note_on_c, 0, 61, 0
1, 496477, Note_on_c, 0, 45, 0
1, 496480, Note_on_c, 0, 52, 0
1, 496484, Note_on_c, 0, 61, 41
1, 496484, Note_on_c, 0, 73, 41
1, 496484, Note_on_c, 0, 45, 28
1, 496487, Note_on_c, 0, 52, 28
1, 496829, Note_on_c, 0, 73, 0
1, 496829, Note_on_c, 0, 61, 0
1, 496829, Note_on_c, 0, 52, 0
1, 496832, Note_on_c, 0, 45, 0
1, 496837, Note_on_c, 0, 71, 52
1, 496837, Note_on_c, 0, 61, 52
1, 496837, Note_on_c, 0, 52, 37
1, 496840, Note_on_c, 0, 45, 37
1, 497178, Note_on_c, 0, 61, 0
1, 497178, Note_on_c, 0, 71, 0
1, 497178, Note_on_c, 0, 45, 0
1, 497181, Note_on_c, 0, 52, 0
1, 497185, Note_on_c, 0, 73, 48
1, 497185, Note_on_c, 0, 61, 48
1, 497185, Note_on_c, 0, 45, 32
1, 497188, Note_on_c, 0, 52, 32
1, 497556, Note_on_c, 0, 61, 0
1, 497556, Note_on_c, 0, 73, 0
1, 497556, Note_on_c, 0, 52, 0
1, 497559, Note_on_c, 0, 45, 0
1, 497564, Note_on_c, 0, 66, 47
1, 497564, Note_on_c, 0, 74, 54
1, 497564, Note_on_c, 0, 78, 54
1, 497567, Note_on_c, 0, 50, 38
1, 497567, Note_on_c, 0, 45, 38
1, 497571, Control_c, 0, 64, 0
1, 497644, Control_c, 0, 64, 127
1, 498215, Note_on_c, 0, 78, 0
1, 498215, Note_on_c, 0, 74, 0
1, 498215, Note_on_c, 0, 66, 0
1, 498218, Note_on_c, 0, 45, 0
1, 498218, Note_on_c, 0, 50, 0
1, 498243, Note_on_c, 0, 71, 33
1, 498243, Note_on_c, 0, 66, 29
1, 498243, Note_on_c, 0, 74, 33
1, 498246, Note_on_c, 0, 45, 22
1, 498246, Note_on_c, 0, 54, 26
1, 498303, Control_c, 0, 64, 0
1, 498506, Note_on_c, 0, 74, 0
1, 498506, Note_on_c, 0, 66, 0
1, 498506, Note_on_c, 0, 71, 0
1, 498509, Note_on_c, 0, 54, 0
1, 498509, Note_on_c, 0, 45, 0
1, 498945, Note_on_c, 0, 73, 51
1, 498945, Note_on_c, 0, 64, 45
1, 498945, Note_on_c, 0, 76, 51
1, 498948, Note_on_c, 0, 45, 35
1, 498948, Note_on_c, 0, 52, 35
1, 498962, Control_c, 0, 64, 127
1, 499596, Note_on_c, 0, 76, 0
1, 499596, Note_on_c, 0, 64, 0
1, 499596, Note_on_c, 0, 73, 0
1, 499599, Note_on_c, 0, 52, 0
1, 499599, Note_on_c, 0, 45, 0
1, 499624, Note_on_c, 0, 71, 35
1, 499624, Note_on_c, 0, 64, 34
1, 499624, Note_on_c, 0, 74, 35
1, 499627, Note_on_c, 0, 45, 24
1, 499627, Note_on_c, 0, 56, 28
1, 499643, Control_c, 0, 64, 0
1, 499884, Note_on_c, 0, 74, 0
1, 499884, Note_on_c, 0, 64, 0
1, 499884, Note_on_c, 0, 71, 0
1, 499887, Note_on_c, 0, 56, 0
1, 499887, Note_on_c, 0, 45, 0
1, 500315, Note_on_c, 0, 71, 45
1, 500315, Note_on_c, 0, 74, 51
1, 500315, Note_on_c, 0, 64, 45
1, 500318, Note_on_c, 0, 45, 35
1, 500318, Note_on_c, 0, 57, 35
1, 500342, Control_c, 0, 64, 127
1, 500952, Note_on_c, 0, 64, 0
1, 500952, Note_on_c, 0, 74, 0
1, 500952, Note_on_c, 0, 71, 0
1, 500955, Note_on_c, 0, 57, 0
1, 500955, Note_on_c, 0, 45, 0
1, 500980, Note_on_c, 0, 64, 33
1, 500980, Note_on_c, 0, 69, 33
1, 500980, Note_on_c, 0, 72, 35
1, 500983, Note_on_c, 0, 45, 14
1, 500983, Note_on_c, 0, 57, 22
1, 501007, Control_c, 0, 64, 0
1, 501228, Note_on_c, 0, 72, 0
1, 501228, Note_on_c, 0, 69, 0
1, 501228, Note_on_c, 0, 64, 0
1, 501231, Note_on_c, 0, 57, 0
1, 501231, Note_on_c, 0, 45, 0
1, 501640, Note_on_c, 0, 72, 52
1, 501640, Note_on_c, 0, 62, 46
1, 501640, Note_on_c, 0, 65, 46
1, 501643, Note_on_c, 0, 53, 35
1, 501643, Note_on_c, 0, 50, 35
1, 501686, Control_c, 0, 64, 127
1, 502277, Note_on_c, 0, 65, 0
1, 502277, Note_on_c, 0, 62, 0
1, 502277, Note_on_c, 0, 72, 0
1, 502280, Note_on_c, 0, 50, 0
1, 502280, Note_on_c, 0, 53, 0
1, 502305, Note_on_c, 0, 62, 34
1, 502305, Note_on_c, 0, 65, 33
1, 502305, Note_on_c, 0, 70, 35
1, 502308, Note_on_c, 0, 50, 22
1, 502308, Note_on_c, 0, 53, 22
1, 502350, Control_c, 0, 64, 0
1, 502550, Note_on_c, 0, 70, 0
1, 502550, Note_on_c, 0, 65, 0
1, 502550, Note_on_c, 0, 62, 0
1, 502553, Note_on_c, 0, 53, 0
1, 502553, Note_on_c, 0, 50, 0
1, 502958, Note_on_c, 0, 70, 51
1, 502958, Note_on_c, 0, 60, 45
1, 502958, Note_on_c, 0, 64, 45
1, 502961, Note_on_c, 0, 40, 34
1, 502961, Note_on_c, 0, 48, 34
1, 502983, Control_c, 0, 64, 127
1, 503630, Note_on_c, 0, 64, 0
1, 503630, Note_on_c, 0, 70, 0
1, 503630, Note_on_c, 0, 40, 0
1, 503659, Note_on_c, 0, 64, 49
1, 503659, Note_on_c, 0, 69, 35
1, 503659, Note_on_c, 0, 60, 30
1, 503662, Note_on_c, 0, 40, 24
1, 503662, Note_on_c, 0, 52, 39
1, 503674, Note_on_c, 0, 60, 0
1, 503674, Note_on_c, 0, 48, 0
1, 503685, Control_c, 0, 64, 0
1, 503931, Note_on_c, 0, 60, 0
1, 503931, Note_on_c, 0, 69, 0
1, 503931, Note_on_c, 0, 40, 0
1, 504385, Note_on_c, 0, 63, 47
1, 504385, Note_on_c, 0, 51, 44
1, 504400, Note_on_c, 0, 64, 0
1, 504400, Note_on_c, 0, 52, 0
1, 505097, Note_on_c, 0, 64, 45
1, 505097, Note_on_c, 0, 52, 43
1, 505111, Note_on_c, 0, 63, 0
1, 505111, Note_on_c, 0, 51, 0
1, 505365, Note_on_c, 0, 64, 0
1, 505365, Note_on_c, 0, 52, 0
1, 507242, Note_on_c, 0, 69, 39
1, 507242, Note_on_c, 0, 64, 39
1, 507242, Note_on_c, 0, 59, 51
1, 507245, Note_on_c, 0, 40, 29
1, 507245, Note_on_c, 0, 47, 43
1, 507277, Control_c, 0, 64, 127
1, 507941, Note_on_c, 0, 64, 0
1, 507941, Note_on_c, 0, 69, 0
1, 507941, Note_on_c, 0, 40, 0
1, 507971, Note_on_c, 0, 64, 49
1, 507971, Note_on_c, 0, 59, 35
1, 507971, Note_on_c, 0, 68, 35
1, 507974, Note_on_c, 0, 52, 45
1, 507974, Note_on_c, 0, 40, 26
1, 507986, Note_on_c, 0, 59, 0
1, 507986, Note_on_c, 0, 47, 0
1, 508005, Control_c, 0, 64, 0
1, 508299, Note_on_c, 0, 68, 0
1, 508299, Note_on_c, 0, 59, 0
1, 508299, Note_on_c, 0, 40, 0
1, 508686, Note_on_c, 0, 63, 47
1, 508686, Note_on_c, 0, 51, 45
1, 508701, Note_on_c, 0, 64, 0
1, 508701, Note_on_c, 0, 52, 0
1, 509397, Note_on_c, 0, 64, 45
1, 509397, Note_on_c, 0, 52, 44
1, 509413, Note_on_c, 0, 63, 0
1, 509413, Note_on_c, 0, 51, 0
1, 509671, Note_on_c, 0, 64, 0
1, 509671, Note_on_c, 0, 52, 0
1, 511509, Note_on_c, 0, 57, 38
1, 511509, Note_on_c, 0, 63, 38
1, 511509, Note_on_c, 0, 66, 38
1, 511512, Note_on_c, 0, 51, 32
1, 511512, Note_on_c, 0, 54, 32
1, 511512, Note_on_c, 0, 45, 32
1, 511663, Control_c, 0, 64, 127
1, 513151, Control_c, 0, 64, 0
1, 513237, Note_on_c, 0, 66, 0
1, 513237, Note_on_c, 0, 63, 0
1, 513237, Note_on_c, 0, 57, 0
1, 513240, Note_on_c, 0, 45, 0
1, 513240, Note_on_c, 0, 54, 0
1, 513240, Note_on_c, 0, 51, 0
1, 514274, Note_on_c, 0, 66, 38
1, 514274, Note_on_c, 0, 63, 38
1, 514274, Note_on_c, 0, 57, 38
1, 514277, Note_on_c, 0, 45, 30
1, 514277, Note_on_c, 0, 54, 30
1, 514277, Note_on_c, 0, 51, 30
1, 514524, Control_c, 0, 64, 127
1, 515825, Control_c, 0, 64, 0
1, 516002, Note_on_c, 0, 57, 0
1, 516002, Note_on_c, 0, 63, 0
1, 516002, Note_on_c, 0, 66, 0
1, 516005, Note_on_c, 0, 51, 0
1, 516005, Note_on_c, 0, 54, 0
1, 516005, Note_on_c, 0, 45, 0
1, 517039, Note_on_c, 0, 63, 44
1, 517039, Note_on_c, 0, 75, 44
1, 517039, Note_on_c, 0, 39, 41
1, 517042, Note_on_c, 0, 51, 41
1, 517071, Control_c, 0, 64, 127
1, 517711, Note_on_c, 0, 75, 0
1, 517711, Note_on_c, 0, 63, 0
1, 517711, Note_on_c, 0, 60, 35
1, 517714, Note_on_c, 0, 72, 35
1, 517714, Note_on_c, 0, 51, 0
1, 517714, Note_on_c, 0, 39, 0
1, 517717, Note_on_c, 0, 48, 34
1, 517717, Note_on_c, 0, 36, 34
1, 517745, Control_c, 0, 64, 0
1, 517842, Note_on_c, 0, 72, 0
1, 517842, Note_on_c, 0, 60, 0
1, 517842, Note_on_c, 0, 36, 0
1, 517845, Note_on_c, 0, 48, 0
1, 518411, Note_on_c, 0, 75, 41
1, 518411, Note_on_c, 0, 63, 41
1, 518411, Note_on_c, 0, 39, 40
1, 518414, Note_on_c, 0, 51, 40
1, 518428, Control_c, 0, 64, 127
1, 519080, Note_on_c, 0, 63, 0
1, 519080, Note_on_c, 0, 75, 0
1, 519080, Note_on_c, 0, 60, 35
1, 519083, Note_on_c, 0, 72, 35
1, 519083, Note_on_c, 0, 51, 0
1, 519083, Note_on_c, 0, 39, 0
1, 519086, Note_on_c, 0, 36, 32
1, 519086, Note_on_c, 0, 48, 32
1, 519099, Control_c, 0, 64, 0
1, 519212, Note_on_c, 0, 72, 0
1, 519212, Note_on_c, 0, 60, 0
1, 519212, Note_on_c, 0, 48, 0
1, 519215, Note_on_c, 0, 36, 0
1, 519780, Note_on_c, 0, 75, 46
1, 519780, Note_on_c, 0, 63, 46
1, 519780, Note_on_c, 0, 51, 40
1, 519783, Note_on_c, 0, 39, 40
1, 519797, Control_c, 0, 64, 127
1, 520110, Note_on_c, 0, 63, 0
1, 520110, Note_on_c, 0, 75, 0
1, 520110, Note_on_c, 0, 60, 44
1, 520113, Note_on_c, 0, 72, 44
1, 520113, Note_on_c, 0, 39, 0
1, 520113, Note_on_c, 0, 51, 0
1, 520116, Note_on_c, 0, 48, 33
1, 520116, Note_on_c, 0, 36, 33
1, 520151, Control_c, 0, 64, 0
1, 520235, Note_on_c, 0, 72, 0
1, 520235, Note_on_c, 0, 60, 0
1, 520235, Note_on_c, 0, 36, 0
1, 520238, Note_on_c, 0, 48, 0
1, 520443, Note_on_c, 0, 63, 56
1, 520443, Note_on_c, 0, 75, 56
1, 520443, Note_on_c, 0, 51, 49
1, 520446, Note_on_c, 0, 39, 49
1, 520479, Control_c, 0, 64, 127
1, 520770, Note_on_c, 0, 75, 0
1, 520770, Note_on_c, 0, 63, 0
1, 520770, Note_on_c, 0, 60, 50
1, 520773, Note_on_c, 0, 72, 50
1, 520773, Note_on_c, 0, 39, 0
1, 520773, Note_on_c, 0, 51, 0
1, 520776, Note_on_c, 0, 36, 40
1, 520776, Note_on_c, 0, 48, 40
1, 520814, Control_c, 0, 64, 0
1, 520894, Note_on_c, 0, 72, 0
1, 520894, Note_on_c, 0, 60, 0
1, 520894, Note_on_c, 0, 48, 0
1, 520897, Note_on_c, 0, 36, 0
1, 521101, Note_on_c, 0, 63, 69
1, 521101, Note_on_c, 0, 75, 69
1, 521101, Note_on_c, 0, 51, 62
1, 521104, Note_on_c, 0, 39, 62
1, 521118, Control_c, 0, 64, 127
1, 521426, Note_on_c, 0, 75, 0
1, 521426, Note_on_c, 0, 63, 0
1, 521426, Note_on_c, 0, 72, 67
1, 521429, Note_on_c, 0, 60, 67
1, 521429, Note_on_c, 0, 39, 0
1, 521429, Note_on_c, 0, 51, 0
1, 521432, Note_on_c, 0, 36, 60
1, 521432, Note_on_c, 0, 48, 60
1, 521467, Control_c, 0, 64, 0
1, 521549, Note_on_c, 0, 60, 0
1, 521549, Note_on_c, 0, 72, 0
1, 521549, Note_on_c, 0, 48, 0
1, 521552, Note_on_c, 0, 36, 0
1, 521753, Note_on_c, 0, 63, 81
1, 521753, Note_on_c, 0, 75, 81
1, 521753, Note_on_c, 0, 39, 76
1, 521756, Note_on_c, 0, 51, 76
1, 521789, Control_c, 0, 64, 127
1, 522076, Note_on_c, 0, 75, 0
1, 522076, Note_on_c, 0, 63, 0
1, 522076, Note_on_c, 0, 72, 76
1, 522079, Note_on_c, 0, 60, 76
1, 522079, Note_on_c, 0, 51, 0
1, 522079, Note_on_c, 0, 39, 0
1, 522082, Note_on_c, 0, 48, 68
1, 522082, Note_on_c, 0, 36, 68
1, 522121, Control_c, 0, 64, 0
1, 522202, Note_on_c, 0, 60, 0
1, 522202, Note_on_c, 0, 72, 0
1, 522202, Note_on_c, 0, 36, 0
1, 522205, Note_on_c, 0, 48, 0
1, 522413, Note_on_c, 0, 64, 102
1, 522413, Note_on_c, 0, 40, 82
1, 522446, Control_c, 0, 64, 127
1, 522495, Note_on_c, 0, 64, 0
1, 522495, Note_on_c, 0, 76, 92
1, 522495, Note_on_c, 0, 40, 0
1, 522498, Note_on_c, 0, 52, 51
1, 522576, Note_on_c, 0, 76, 0
1, 522576, Note_on_c, 0, 64, 88
1, 522576, Note_on_c, 0, 52, 0
1, 522579, Note_on_c, 0, 40, 63
1, 522660, Note_on_c, 0, 64, 0
1, 522660, Note_on_c, 0, 76, 84
1, 522660, Note_on_c, 0, 40, 0
1, 522663, Note_on_c, 0, 52, 48
1, 522742, Note_on_c, 0, 76, 0
1, 522742, Note_on_c, 0, 64, 79
1, 522742, Note_on_c, 0, 52, 0
1, 522745, Note_on_c, 0, 40, 57
1, 522823, Note_on_c, 0, 64, 0
1, 522823, Note_on_c, 0, 76, 76
1, 522823, Note_on_c, 0, 40, 0
1, 522826, Note_on_c, 0, 52, 50
1, 522906, Note_on_c, 0, 76, 0
1, 522906, Note_on_c, 0, 64, 72
1, 522906, Note_on_c, 0, 52, 0
1, 522909, Note_on_c, 0, 40, 57
1, 522988, Note_on_c, 0, 64, 0
1, 522988, Note_on_c, 0, 76, 70
1, 522988, Note_on_c, 0, 40, 0
1, 522991, Note_on_c, 0, 52, 47
1, 523069, Note_on_c, 0, 76, 0
1, 523069, Note_on_c, 0, 64, 80
1, 523069, Note_on_c, 0, 52, 0
1, 523072, Note_on_c, 0, 40, 52
1, 523151, Note_on_c, 0, 64, 0
1, 523151, Note_on_c, 0, 76, 77
1, 523151, Note_on_c, 0, 40, 0
1, 523154, Note_on_c, 0, 52, 43
1, 523233, Note_on_c, 0, 76, 0
1, 523233, Note_on_c, 0, 64, 75
1, 523233, Note_on_c, 0, 52, 0
1, 523236, Note_on_c, 0, 40, 52
1, 523313, Note_on_c, 0, 64, 0
1, 523313, Note_on_c, 0, 76, 72
1, 523313, Note_on_c, 0, 40, 0
1, 523316, Note_on_c, 0, 52, 45
1, 523395, Note_on_c, 0, 76, 0
1, 523395, Note_on_c, 0, 64, 80
1, 523395, Note_on_c, 0, 52, 0
1, 523398, Note_on_c, 0, 40, 51
1, 523478, Note_on_c, 0, 64, 0
1, 523478, Note_on_c, 0, 76, 77
1, 523478, Note_on_c, 0, 40, 0
1, 523481, Note_on_c, 0, 52, 42
1, 523558, Note_on_c, 0, 76, 0
1, 523558, Note_on_c, 0, 64, 74
1, 523558, Note_on_c, 0, 52, 0
1, 523561, Note_on_c, 0, 40, 52
1, 523638, Note_on_c, 0, 64, 0
1, 523638, Note_on_c, 0, 76, 71
1, 523638, Note_on_c, 0, 40, 0
1, 523641, Note_on_c, 0, 52, 41
1, 523720, Note_on_c, 0, 76, 0
1, 523720, Note_on_c, 0, 61, 106
1, 523720, Note_on_c, 0, 52, 0
1, 523723, Note_on_c, 0, 37, 85
1, 523728, Control_c, 0, 64, 0
1, 523760, Control_c, 0, 64, 127
1, 523800, Note_on_c, 0, 61, 0
1, 523800, Note_on_c, 0, 73, 94
1, 523800, Note_on_c, 0, 37, 0
1, 523803, Note_on_c, 0, 49, 47
1, 523879, Note_on_c, 0, 73, 0
1, 523879, Note_on_c, 0, 61, 89
1, 523879, Note_on_c, 0, 49, 0
1, 523882, Note_on_c, 0, 37, 60
1, 523961, Note_on_c, 0, 61, 0
1, 523961, Note_on_c, 0, 73, 84
1, 523961, Note_on_c, 0, 37, 0
1, 523964, Note_on_c, 0, 49, 45
1, 524042, Note_on_c, 0, 73, 0
1, 524042, Note_on_c, 0, 61, 79
1, 524042, Note_on_c, 0, 49, 0
1, 524045, Note_on_c, 0, 37, 59
1, 524123, Note_on_c, 0, 61, 0
1, 524123, Note_on_c, 0, 73, 75
1, 524123, Note_on_c, 0, 37, 0
1, 524126, Note_on_c, 0, 49, 42
1, 524206, Note_on_c, 0, 73, 0
1, 524206, Note_on_c, 0, 61, 72
1, 524206, Note_on_c, 0, 49, 0
1, 524209, Note_on_c, 0, 37, 52
1, 524288, Note_on_c, 0, 61, 0
1, 524288, Note_on_c, 0, 73, 65
1, 524288, Note_on_c, 0, 37, 0
1, 524291, Note_on_c, 0, 49, 43
1, 524368, Note_on_c, 0, 73, 0
1, 524368, Note_on_c, 0, 61, 83
1, 524368, Note_on_c, 0, 49, 0
1, 524371, Note_on_c, 0, 37, 53
1, 524450, Note_on_c, 0, 61, 0
1, 524450, Note_on_c, 0, 73, 79
1, 524450, Note_on_c, 0, 37, 0
1, 524453, Note_on_c, 0, 49, 42
1, 524532, Note_on_c, 0, 73, 0
1, 524532, Note_on_c, 0, 61, 76
1, 524532, Note_on_c, 0, 49, 0
1, 524535, Note_on_c, 0, 37, 53
1, 524614, Note_on_c, 0, 61, 0
1, 524614, Note_on_c, 0, 73, 66
1, 524614, Note_on_c, 0, 37, 0
1, 524617, Note_on_c, 0, 49, 43
1, 524694, Note_on_c, 0, 73, 0
1, 524694, Note_on_c, 0, 61, 82
1, 524694, Note_on_c, 0, 49, 0
1, 524697, Note_on_c, 0, 37, 53
1, 524774, Note_on_c, 0, 61, 0
1, 524774, Note_on_c, 0, 73, 79
1, 524774, Note_on_c, 0, 37, 0
1, 524777, Note_on_c, 0, 49, 45
1, 524855, Note_on_c, 0, 73, 0
1, 524855, Note_on_c, 0, 61, 76
1, 524855, Note_on_c, 0, 49, 0
1, 524858, Note_on_c, 0, 37, 52
1, 524938, Note_on_c, 0, 61, 0
1, 524938, Note_on_c, 0, 73, 73
1, 524938, Note_on_c, 0, 37, 0
1, 524941, Note_on_c, 0, 49, 47
1, 525034, Note_on_c, 0, 73, 0
1, 525034, Note_on_c, 0, 76, 112
1, 525034, Note_on_c, 0, 88, 112
1, 525037, Note_on_c, 0, 49, 0
1, 525037, Note_on_c, 0, 64, 93
1, 525037, Note_on_c, 0, 52, 93
1, 525044, Control_c, 0, 64, 0
1, 525127, Control_c, 0, 64, 127
1, 525356, Note_on_c, 0, 88, 0
1, 525356, Note_on_c, 0, 76, 0
1, 525356, Note_on_c, 0, 73, 104
1, 525359, Note_on_c, 0, 85, 104
1, 525359, Note_on_c, 0, 52, 0
1, 525359, Note_on_c, 0, 64, 0
1, 525362, Note_on_c, 0, 49, 82
1, 525362, Note_on_c, 0, 61, 82
1, 525422, Control_c, 0, 64, 0
1, 525480, Note_on_c, 0, 85, 0
1, 525480, Note_on_c, 0, 73, 0
1, 525480, Note_on_c, 0, 61, 0
1, 525483, Note_on_c, 0, 49, 0
1, 525687, Note_on_c, 0, 88, 111
1, 525687, Note_on_c, 0, 76, 111
1, 525687, Note_on_c, 0, 52, 93
1, 525690, Note_on_c, 0, 64, 93
1, 525697, Control_c, 0, 64, 127
1, 526013, Note_on_c, 0, 76, 0
1, 526013, Note_on_c, 0, 88, 0
1, 526013, Note_on_c, 0, 93, 104
1, 526016, Note_on_c, 0, 81, 104
1, 526016, Note_on_c, 0, 64, 0
1, 526016, Note_on_c, 0, 52, 0
1, 526019, Note_on_c, 0, 69, 82
1, 526019, Note_on_c, 0, 57, 82
1, 526092, Control_c, 0, 64, 0
1, 526139, Note_on_c, 0, 81, 0
1, 526139, Note_on_c, 0, 93, 0
1, 526139, Note_on_c, 0, 57, 0
1, 526142, Note_on_c, 0, 69, 0
1, 526348, Note_on_c, 0, 76, 103
1, 526348, Note_on_c, 0, 88, 103
1, 526348, Note_on_c, 0, 52, 83
1, 526351, Note_on_c, 0, 64, 83
1, 526356, Control_c, 0, 64, 127
1, 526689, Note_on_c, 0, 88, 0
1, 526689, Note_on_c, 0, 76, 0
1, 526689, Note_on_c, 0, 73, 96
1, 526692, Note_on_c, 0, 85, 96
1, 526692, Note_on_c, 0, 64, 0
1, 526692, Note_on_c, 0, 52, 0
1, 526695, Note_on_c, 0, 49, 76
1, 526695, Note_on_c, 0, 61, 76
1, 526715, Control_c, 0, 64, 0
1, 526821, Note_on_c, 0, 85, 0
1, 526821, Note_on_c, 0, 73, 0
1, 526821, Note_on_c, 0, 61, 0
1, 526824, Note_on_c, 0, 49, 0
1, 527041, Note_on_c, 0, 81, 88
1, 527041, Note_on_c, 0, 69, 88
1, 527041, Note_on_c, 0, 57, 67
1, 527044, Note_on_c, 0, 45, 67
1, 527073, Control_c, 0, 64, 127
1, 527409, Note_on_c, 0, 69, 0
1, 527409, Note_on_c, 0, 81, 0
1, 527409, Note_on_c, 0, 76, 78
1, 527412, Note_on_c, 0, 64, 78
1, 527412, Note_on_c, 0, 45, 0
1, 527412, Note_on_c, 0, 57, 0
1, 527415, Note_on_c, 0, 52, 54
1, 527415, Note_on_c, 0, 40, 54
1, 527437, Control_c, 0, 64, 0
1, 527564, Note_on_c, 0, 64, 0
1, 527564, Note_on_c, 0, 76, 0
1, 527564, Note_on_c, 0, 40, 0
1, 527567, Note_on_c, 0, 52, 0
1, 527823, Note_on_c, 0, 61, 44
1, 527823, Note_on_c, 0, 69, 44
1, 527823, Note_on_c, 0, 73, 44
1, 527826, Note_on_c, 0, 52, 37
1, 527826, Note_on_c, 0, 40, 37
1, 527863, Control_c, 0, 64, 127
1, 529264, Note_on_c, 0, 73, 0
1, 529264, Note_on_c, 0, 69, 0
1, 529264, Note_on_c, 0, 61, 0
1, 529267, Note_on_c, 0, 62, 48
1, 529267, Note_on_c, 0, 76, 48
1, 529267, Note_on_c, 0, 68, 48
1, 529275, Control_c, 0, 64, 0
1, 529565, Control_c, 0, 64, 127
1, 530706, Note_on_c, 0, 68, 0
1, 530706, Note_on_c, 0, 76, 0
1, 530706, Note_on_c, 0, 62, 0
1, 530709, Note_on_c, 0, 64, 107
1, 530709, Note_on_c, 0, 40, 0
1, 530709, Note_on_c, 0, 52, 0
1, 530712, Note_on_c, 0, 40, 81
1, 530712, Control_c, 0, 64, 0
1, 530777, Control_c, 0, 64, 127
1, 530785, Note_on_c, 0, 64, 0
1, 530785, Note_on_c, 0, 76, 100
1, 530785, Note_on_c, 0, 40, 0
1, 530788, Note_on_c, 0, 52, 48
1, 530863, Note_on_c, 0, 76, 0
1, 530863, Note_on_c, 0, 64, 96
1, 530863, Note_on_c, 0, 52, 0
1, 530866, Note_on_c, 0, 40, 57
1, 530942, Note_on_c, 0, 64, 0
1, 530942, Note_on_c, 0, 76, 93
1, 530942, Note_on_c, 0, 40, 0
1, 530945, Note_on_c, 0, 52, 45
1, 531021, Note_on_c, 0, 76, 0
1, 531021, Note_on_c, 0, 61, 98
1, 531021, Note_on_c, 0, 52, 0
1, 531024, Note_on_c, 0, 37, 76
1, 531100, Note_on_c, 0, 61, 0
1, 531100, Note_on_c, 0, 73, 95
1, 531100, Note_on_c, 0, 37, 0
1, 531103, Note_on_c, 0, 49, 47
1, 531178, Note_on_c, 0, 73, 0
1, 531178, Note_on_c, 0, 61, 92
1, 531178, Note_on_c, 0, 49, 0
1, 531181, Note_on_c, 0, 37, 52
1, 531257, Note_on_c, 0, 61, 0
1, 531257, Note_on_c, 0, 73, 88
1, 531257, Note_on_c, 0, 37, 0
1, 531260, Note_on_c, 0, 49, 45
1, 531336, Note_on_c, 0, 73, 0
1, 531336, Note_on_c, 0, 64, 97
1, 531336, Note_on_c, 0, 49, 0
1, 531339, Note_on_c, 0, 40, 73
1, 531413, Note_on_c, 0, 64, 0
1, 531413, Note_on_c, 0, 76, 95
1, 531413, Note_on_c, 0, 40, 0
1, 531416, Note_on_c, 0, 52, 51
1, 531491, Note_on_c, 0, 76, 0
1, 531491, Note_on_c, 0, 64, 93
1, 531491, Note_on_c, 0, 52, 0
1, 531494, Note_on_c, 0, 40, 61
1, 531568, Note_on_c, 0, 64, 0
1, 531568, Note_on_c, 0, 76, 90
1, 531568, Note_on_c, 0, 40, 0
1, 531571, Note_on_c, 0, 52, 48
1, 531645, Note_on_c, 0, 76, 0
1, 531645, Note_on_c, 0, 69, 99
1, 531645, Note_on_c, 0, 52, 0
1, 531648, Note_on_c, 0, 45, 77
1, 531723, Note_on_c, 0, 69, 0
1, 531723, Note_on_c, 0, 81, 96
1, 531723, Note_on_c, 0, 45, 0
1, 531726, Note_on_c, 0, 57, 50
1, 531800, Note_on_c, 0, 81, 0
1, 531800, Note_on_c, 0, 69, 94
1, 531800, Note_on_c, 0, 57, 0
1, 531803, Note_on_c, 0, 45, 62
1, 531877, Note_on_c, 0, 69, 0
1, 531877, Note_on_c, 0, 81, 91
1, 531877, Note_on_c, 0, 45, 0
1, 531880, Note_on_c, 0, 57, 50
1, 531954, Note_on_c, 0, 81, 0
1, 531954, Note_on_c, 0, 73, 104
1, 531954, Note_on_c, 0, 57, 0
1, 531957, Note_on_c, 0, 49, 82
1, 532031, Note_on_c, 0, 73, 0
1, 532031, Note_on_c, 0, 85, 102
1, 532031, Note_on_c, 0, 49, 0
1, 532034, Note_on_c, 0, 61, 57
1, 532108, Note_on_c, 0, 85, 0
1, 532108, Note_on_c, 0, 73, 100
1, 532108, Note_on_c, 0, 61, 0
1, 532111, Note_on_c, 0, 49, 71
1, 532185, Note_on_c, 0, 73, 0
1, 532185, Note_on_c, 0, 85, 98
1, 532185, Note_on_c, 0, 49, 0
1, 532188, Note_on_c, 0, 61, 58
1, 532262, Note_on_c, 0, 85, 0
1, 532262, Note_on_c, 0, 76, 112
1, 532262, Note_on_c, 0, 61, 0
1, 532265, Note_on_c, 0, 52, 89
1, 532338, Note_on_c, 0, 76, 0
1, 532338, Note_on_c, 0, 88, 108
1, 532338, Note_on_c, 0, 52, 0
1, 532341, Note_on_c, 0, 64, 62
1, 532414, Note_on_c, 0, 88, 0
1, 532414, Note_on_c, 0, 76, 104
1, 532414, Note_on_c, 0, 64, 0
1, 532417, Note_on_c, 0, 52, 73
1, 532490, Note_on_c, 0, 76, 0
1, 532490, Note_on_c, 0, 88, 100
1, 532490, Note_on_c, 0, 52, 0
1, 532493, Note_on_c, 0, 64, 66
1, 532566, Note_on_c, 0, 88, 0
1, 532566, Note_on_c, 0, 81, 119
1, 532566, Note_on_c, 0, 64, 0
1, 532569, Note_on_c, 0, 57, 94
1, 532642, Note_on_c, 0, 81, 0
1, 532642, Note_on_c, 0, 93, 110
1, 532642, Note_on_c, 0, 57, 0
1, 532645, Note_on_c, 0, 69, 67
1, 532720, Note_on_c, 0, 93, 0
1, 532720, Note_on_c, 0, 81, 104
1, 532720, Note_on_c, 0, 69, 0
1, 532723, Note_on_c, 0, 57, 76
1, 532799, Note_on_c, 0, 81, 0
1, 532799, Note_on_c, 0, 93, 98
1, 532799, Note_on_c, 0, 57, 0
1, 532802, Note_on_c, 0, 69, 63
1, 532879, Note_on_c, 0, 93, 0
1, 532879, Note_on_c, 0, 76, 93
1, 532879, Note_on_c, 0, 69, 0
1, 532882, Note_on_c, 0, 52, 83
1, 532964, Note_on_c, 0, 76, 0
1, 532964, Note_on_c, 0, 88, 87
1, 532964, Note_on_c, 0, 52, 0
1, 532967, Note_on_c, 0, 64, 56
1, 533052, Note_on_c, 0, 88, 0
1, 533052, Note_on_c, 0, 76, 80
1, 533052, Note_on_c, 0, 64, 0
1, 533055, Note_on_c, 0, 52, 67
1, 533142, Note_on_c, 0, 76, 0
1, 533142, Note_on_c, 0, 88, 70
1, 533142, Note_on_c, 0, 52, 0
1, 533145, Note_on_c, 0, 64, 55
1, 533271, Note_on_c, 0, 88, 0
1, 533271, Note_on_c, 0, 69, 45
1, 533271, Note_on_c, 0, 61, 45
1, 533274, Note_on_c, 0, 73, 45
1, 533274, Note_on_c, 0, 64, 0
1, 533274, Note_on_c, 0, 52, 38
1, 533277, Note_on_c, 0, 40, 38
1, 533283, Control_c, 0, 64, 0
1, 533571, Control_c, 0, 64, 127
1, 534712, Note_on_c, 0, 73, 0
1, 534712, Note_on_c, 0, 61, 0
1, 534712, Note_on_c, 0, 69, 0
1, 534715, Note_on_c, 0, 68, 46
1, 534715, Note_on_c, 0, 76, 53
1, 534715, Note_on_c, 0, 62, 46
1, 534719, Control_c, 0, 64, 0
1, 534992, Control_c, 0, 64, 127
1, 536154, Note_on_c, 0, 62, 0
1, 536154, Note_on_c, 0, 76, 0
1, 536154, Note_on_c, 0, 68, 0
1, 536157, Note_on_c, 0, 49, 44
1, 536157, Note_on_c, 0, 61, 44
1, 536157, Note_on_c, 0, 40, 0
1, 536160, Note_on_c, 0, 52, 0
1, 536160, Note_on_c, 0, 40, 36
1, 536160, Note_on_c, 0, 45, 36
1, 536163, Note_on_c, 0, 33, 36
1, 536163, Control_c, 0, 64, 0
1, 536187, Control_c, 0, 64, 127
1, 536827, Note_on_c, 0, 61, 0
1, 536827, Note_on_c, 0, 49, 0
1, 536827, Note_on_c, 0, 33, 0
1, 536830, Note_on_c, 0, 45, 0
1, 536830, Note_on_c, 0, 40, 0
1, 536856, Note_on_c, 0, 57, 31
1, 536856, Note_on_c, 0, 49, 31
1, 536856, Note_on_c, 0, 33, 23
1, 536859, Note_on_c, 0, 40, 23
1, 536859, Note_on_c, 0, 45, 23
1, 537130, Note_on_c, 0, 49, 0
1, 537130, Note_on_c, 0, 57, 0
1, 537130, Note_on_c, 0, 45, 0
1, 537133, Note_on_c, 0, 40, 0
1, 537133, Note_on_c, 0, 33, 0
1, 537133, Control_c, 0, 64, 0
1, 537586, Note_on_c, 0, 74, 52
1, 537586, Note_on_c, 0, 80, 52
1, 537586, Note_on_c, 0, 88, 52
1, 537589, Note_on_c, 0, 57, 36
1, 537589, Note_on_c, 0, 71, 36
1, 537589, Note_on_c, 0, 64, 36
1, 537621, Control_c, 0, 64, 127
1, 538240, Note_on_c, 0, 88, 0
1, 538240, Note_on_c, 0, 80, 0
1, 538240, Note_on_c, 0, 74, 0
1, 538243, Note_on_c, 0, 64, 0
1, 538243, Note_on_c, 0, 71, 0
1, 538243, Note_on_c, 0, 57, 0
1, 538269, Note_on_c, 0, 80, 38
1, 538269, Note_on_c, 0, 74, 38
1, 538269, Note_on_c, 0, 57, 21
1, 538272, Note_on_c, 0, 71, 21
1, 538272, Note_on_c, 0, 64, 21
1, 538372, Control_c, 0, 64, 0
1, 538539, Note_on_c, 0, 74, 0
1, 538539, Note_on_c, 0, 80, 0
1, 538539, Note_on_c, 0, 64, 0
1, 538542, Note_on_c, 0, 71, 0
1, 538542, Note_on_c, 0, 57, 0
1, 538989, Note_on_c, 0, 49, 44
1, 538989, Note_on_c, 0, 61, 44
1, 538989, Note_on_c, 0, 40, 36
1, 538992, Note_on_c, 0, 33, 36
1, 538992, Note_on_c, 0, 45, 36
1, 539022, Control_c, 0, 64, 127
1, 539665, Note_on_c, 0, 61, 0
1, 539665, Note_on_c, 0, 49, 0
1, 539665, Note_on_c, 0, 45, 0
1, 539668, Note_on_c, 0, 33, 0
1, 539668, Note_on_c, 0, 40, 0
1, 539694, Note_on_c, 0, 49, 33
1, 539694, Note_on_c, 0, 57, 33
1, 539694, Note_on_c, 0, 33, 22
1, 539697, Note_on_c, 0, 45, 22
1, 539697, Note_on_c, 0, 40, 22
1, 539965, Note_on_c, 0, 57, 0
1, 539965, Note_on_c, 0, 49, 0
1, 539965, Note_on_c, 0, 40, 0
1, 539968, Note_on_c, 0, 45, 0
1, 539968, Note_on_c, 0, 33, 0
1, 539971, Control_c, 0, 64, 0
1, 540418, Note_on_c, 0, 74, 52
1, 540418, Note_on_c, 0, 88, 52
1, 540418, Note_on_c, 0, 80, 52
1, 540421, Note_on_c, 0, 57, 36
1, 540421, Note_on_c, 0, 71, 36
1, 540421, Note_on_c, 0, 64, 36
1, 540446, Control_c, 0, 64, 127
1, 541080, Note_on_c, 0, 80, 0
1, 541080, Note_on_c, 0, 88, 0
1, 541080, Note_on_c, 0, 74, 0
1, 541083, Note_on_c, 0, 64, 0
1, 541083, Note_on_c, 0, 71, 0
1, 541083, Note_on_c, 0, 57, 0
1, 541109, Note_on_c, 0, 74, 38
1, 541109, Note_on_c, 0, 80, 38
1, 541109, Note_on_c, 0, 64, 21
1, 541112, Note_on_c, 0, 71, 21
1, 541112, Note_on_c, 0, 57, 21
1, 541375, Note_on_c, 0, 80, 0
1, 541375, Note_on_c, 0, 74, 0
1, 541375, Note_on_c, 0, 57, 0
1, 541378, Note_on_c, 0, 71, 0
1, 541378, Note_on_c, 0, 64, 0
1, 541389, Control_c, 0, 64, 0
1, 541820, Note_on_c, 0, 49, 44
1, 541820, Note_on_c, 0, 61, 44
1, 541820, Note_on_c, 0, 33, 36
1, 541823, Note_on_c, 0, 40, 36
1, 541823, Note_on_c, 0, 45, 36
1, 541853, Control_c, 0, 64, 127
1, 542490, Note_on_c, 0, 61, 0
1, 542490, Note_on_c, 0, 49, 0
1, 542490, Note_on_c, 0, 45, 0
1, 542493, Note_on_c, 0, 40, 0
1, 542493, Note_on_c, 0, 33, 0
1, 542520, Note_on_c, 0, 49, 30
1, 542520, Note_on_c, 0, 57, 30
1, 542520, Note_on_c, 0, 40, 22
1, 542523, Note_on_c, 0, 45, 22
1, 542523, Note_on_c, 0, 33, 22
1, 542790, Note_on_c, 0, 57, 0
1, 542790, Note_on_c, 0, 49, 0
1, 542790, Note_on_c, 0, 33, 0
1, 542793, Note_on_c, 0, 45, 0
1, 542793, Note_on_c, 0, 40, 0
1, 542793, Control_c, 0, 64, 0
1, 543240, Note_on_c, 0, 74, 52
1, 543240, Note_on_c, 0, 80, 52
1, 543240, Note_on_c, 0, 88, 52
1, 543243, Note_on_c, 0, 57, 36
1, 543243, Note_on_c, 0, 71, 36
1, 543243, Note_on_c, 0, 64, 36
1, 543262, Control_c, 0, 64, 127
1, 543887, Note_on_c, 0, 88, 0
1, 543887, Note_on_c, 0, 80, 0
1, 543887, Note_on_c, 0, 74, 0
1, 543890, Note_on_c, 0, 64, 0
1, 543890, Note_on_c, 0, 71, 0
1, 543890, Note_on_c, 0, 57, 0
1, 543915, Note_on_c, 0, 80, 36
1, 543915, Note_on_c, 0, 74, 36
1, 543915, Note_on_c, 0, 64, 21
1, 543918, Note_on_c, 0, 71, 21
1, 543918, Note_on_c, 0, 57, 21
1, 544177, Note_on_c, 0, 74, 0
1, 544177, Note_on_c, 0, 80, 0
1, 544177, Note_on_c, 0, 57, 0
1, 544180, Note_on_c, 0, 71, 0
1, 544180, Note_on_c, 0, 64, 0
1, 544195, Control_c, 0, 64, 0
1, 544614, Note_on_c, 0, 74, 52
1, 544614, Note_on_c, 0, 80, 52
1, 544614, Note_on_c, 0, 88, 52
1, 544617, Note_on_c, 0, 57, 36
1, 544617, Note_on_c, 0, 71, 36
1, 544617, Note_on_c, 0, 64, 36
1, 544634, Control_c, 0, 64, 127
1, 545261, Note_on_c, 0, 88, 0
1, 545261, Note_on_c, 0, 80, 0
1, 545261, Note_on_c, 0, 74, 0
1, 545264, Note_on_c, 0, 64, 0
1, 545264, Note_on_c, 0, 71, 0
1, 545264, Note_on_c, 0, 57, 0
1, 545289, Note_on_c, 0, 80, 38
1, 545289, Note_on_c, 0, 74, 38
1, 545289, Note_on_c, 0, 64, 21
1, 545292, Note_on_c, 0, 57, 21
1, 545292, Note_on_c, 0, 71, 21
1, 545552, Note_on_c, 0, 74, 0
1, 545552, Note_on_c, 0, 80, 0
1, 545552, Note_on_c, 0, 71, 0
1, 545555, Note_on_c, 0, 57, 0
1, 545555, Note_on_c, 0, 64, 0
1, 545562, Control_c, 0, 64, 0
1, 545989, Note_on_c, 0, 88, 52
1, 545989, Note_on_c, 0, 80, 52
1, 545989, Note_on_c, 0, 74, 52
1, 545992, Note_on_c, 0, 57, 36
1, 545992, Note_on_c, 0, 64, 36
1, 545992, Note_on_c, 0, 71, 36
1, 545999, Control_c, 0, 64, 127
1, 546636, Note_on_c, 0, 74, 0
1, 546636, Note_on_c, 0, 80, 0
1, 546636, Note_on_c, 0, 88, 0
1, 546639, Note_on_c, 0, 71, 0
1, 546639, Note_on_c, 0, 64, 0
1, 546639, Note_on_c, 0, 57, 0
1, 546664, Note_on_c, 0, 74, 38
1, 546664, Note_on_c, 0, 80, 38
1, 546664, Note_on_c, 0, 57, 21
1, 546667, Note_on_c, 0, 64, 21
1, 546667, Note_on_c, 0, 71, 21
1, 546926, Note_on_c, 0, 80, 0
1, 546926, Note_on_c, 0, 74, 0
1, 546926, Note_on_c, 0, 71, 0
1, 546929, Note_on_c, 0, 64, 0
1, 546929, Note_on_c, 0, 57, 0
1, 546955, Control_c, 0, 64, 0
1, 547363, Note_on_c, 0, 73, 108
1, 547363, Note_on_c, 0, 85, 108
1, 547363, Note_on_c, 0, 61, 88
1, 547366, Note_on_c, 0, 49, 88
1, 547543, Control_c, 0, 64, 127
1, 550244, Note_on_c, 0, 85, 0
1, 550244, Note_on_c, 0, 73, 0
1, 550244, Note_on_c, 0, 69, 34
1, 550247, Note_on_c, 0, 81, 48
1, 550247, Note_on_c, 0, 49, 0
1, 550247, Note_on_c, 0, 61, 0
1, 550250, Note_on_c, 0, 45, 32
1, 550250, Note_on_c, 0, 57, 45
1, 550254, Control_c, 0, 64, 0
1, 550565, Control_c, 0, 64, 127
1, 553125, Note_on_c, 0, 81, 0
1, 553125, Note_on_c, 0, 69, 0
1, 553125, Note_on_c, 0, 49, 34
1, 553128, Note_on_c, 0, 61, 40
1, 553128, Note_on_c, 0, 57, 34
1, 553128, Note_on_c, 0, 52, 34
1, 553131, Note_on_c, 0, 57, 0
1, 553131, Note_on_c, 0, 45, 0
1, 553131, Note_on_c, 0, 45, 27
1, 553134, Note_on_c, 0, 40, 23
1, 553134, Note_on_c, 0, 33, 23
1, 553134, Control_c, 0, 64, 0
1, 553255, Control_c, 0, 64, 127
1, 553911, Note_on_c, 0, 52, 0
1, 553911, Note_on_c, 0, 49, 0
1, 553911, Note_on_c, 0, 61, 0
1, 553914, Note_on_c, 0, 57, 0
1, 553914, Note_on_c, 0, 33, 0
1, 553914, Note_on_c, 0, 40, 0
1, 553917, Note_on_c, 0, 45, 0
1, 553945, Note_on_c, 0, 49, 34
1, 553945, Note_on_c, 0, 52, 34
1, 553945, Note_on_c, 0, 57, 34
1, 553948, Note_on_c, 0, 61, 40
1, 553948, Note_on_c, 0, 40, 23
1, 553948, Note_on_c, 0, 45, 27
1, 553951, Note_on_c, 0, 33, 23
1, 554792, Note_on_c, 0, 61, 0
1, 554792, Note_on_c, 0, 49, 0
1, 554792, Note_on_c, 0, 52, 0
1, 554795, Note_on_c, 0, 57, 0
1, 554795, Note_on_c, 0, 33, 0
1, 554795, Note_on_c, 0, 45, 0
1, 554798, Note_on_c, 0, 40, 0
1, 554829, Note_on_c, 0, 52, 34
1, 554829, Note_on_c, 0, 61, 40
1, 554829, Note_on_c, 0, 57, 34
1, 554832, Note_on_c, 0, 49, 34
1, 554832, Note_on_c, 0, 45, 27
1, 554832, Note_on_c, 0, 33, 23
1, 554835, Note_on_c, 0, 40, 23
1, 558257, Note_on_c, 0, 49, 0
1, 558257, Note_on_c, 0, 52, 0
1, 558257, Note_on_c, 0, 61, 0
1, 558260, Note_on_c, 0, 57, 0
1, 558260, Note_on_c, 0, 40, 0
1, 558260, Note_on_c, 0, 33, 0
1, 558263, Note_on_c, 0, 45, 0
1, 560453, Control_c, 0, 64, 0
1, 561951, End_track
0, 0, End_of_file
