0, 0, Header, 1, 2, 120
1, 0, Start_track
1, 0, Title_t, "untitled"
1, 0, Time_signature, 4, 2, 24, 8
1, 0, Key_signature, 0, "major"
1, 0, Tempo, 571429
1, 0, End_track
2, 0, Start_track
2, 0, Title_t, "Schubert"
2, 0, Program_c, 0, 0
2, 0, Control_c, 0, 7, 115
2, 0, Control_c, 0, 91, 127
2, 495, Control_c, 0, 64, 40
2, 499, Control_c, 0, 64, 56
2, 503, Control_c, 0, 64, 72
2, 507, Control_c, 0, 64, 88
2, 511, Control_c, 0, 64, 104
2, 516, Control_c, 0, 64, 127
2, 534, Note_on_c, 0, 72, 82
2, 536, Note_on_c, 0, 63, 55
2, 538, Note_on_c, 0, 68, 58
2, 539, Note_on_c, 0, 56, 56
2, 558, Note_on_c, 0, 56, 0
2, 559, Note_on_c, 0, 63, 0
2, 561, Note_on_c, 0, 72, 0
2, 562, Note_on_c, 0, 68, 0
2, 636, Note_on_c, 0, 72, 95
2, 640, Note_on_c, 0, 65, 72
2, 640, Note_on_c, 0, 68, 60
2, 643, Note_on_c, 0, 61, 54
2, 673, Control_c, 0, 64, 72
2, 677, Control_c, 0, 64, 0
2, 717, Control_c, 0, 64, 72
2, 721, Control_c, 0, 64, 127
2, 877, Note_on_c, 0, 70, 73
2, 883, Note_on_c, 0, 72, 0
2, 911, Control_c, 0, 64, 72
2, 915, Control_c, 0, 64, 24
2, 919, Control_c, 0, 64, 0
2, 999, Note_on_c, 0, 68, 0
2, 999, Control_c, 0, 64, 56
2, 1000, Note_on_c, 0, 65, 0
2, 1003, Control_c, 0, 64, 88
2, 1007, Note_on_c, 0, 70, 0
2, 1008, Control_c, 0, 64, 127
2, 1018, Note_on_c, 0, 61, 0
2, 1064, Control_c, 0, 64, 104
2, 1068, Note_on_c, 0, 77, 107
2, 1068, Control_c, 0, 64, 40
2, 1071, Note_on_c, 0, 70, 74
2, 1072, Control_c, 0, 64, 0
2, 1072, Note_on_c, 0, 61, 64
2, 1073, Note_on_c, 0, 67, 69
2, 1074, Note_on_c, 0, 65, 62
2, 1088, Control_c, 0, 64, 40
2, 1090, Note_on_c, 0, 67, 0
2, 1092, Control_c, 0, 64, 104
2, 1096, Control_c, 0, 64, 127
2, 1098, Note_on_c, 0, 61, 0
2, 1099, Note_on_c, 0, 65, 0
2, 1102, Note_on_c, 0, 70, 0
2, 1102, Note_on_c, 0, 77, 0
2, 1175, Note_on_c, 0, 77, 101
2, 1181, Note_on_c, 0, 68, 63
2, 1183, Note_on_c, 0, 72, 77
2, 1184, Note_on_c, 0, 65, 65
2, 1185, Note_on_c, 0, 60, 72
2, 1197, Control_c, 0, 64, 88
2, 1201, Control_c, 0, 64, 56
2, 1204, Control_c, 0, 64, 0
2, 1253, Control_c, 0, 64, 24
2, 1257, Control_c, 0, 64, 56
2, 1262, Control_c, 0, 64, 88
2, 1266, Control_c, 0, 64, 104
2, 1270, Control_c, 0, 64, 127
2, 1440, Note_on_c, 0, 77, 0
2, 1443, Note_on_c, 0, 65, 0
2, 1447, Note_on_c, 0, 75, 71
2, 1452, Note_on_c, 0, 63, 46
2, 1454, Control_c, 0, 64, 72
2, 1458, Control_c, 0, 64, 24
2, 1463, Control_c, 0, 64, 0
2, 1499, Control_c, 0, 64, 72
2, 1503, Note_on_c, 0, 72, 0
2, 1504, Control_c, 0, 64, 127
2, 1509, Note_on_c, 0, 60, 0
2, 1510, Note_on_c, 0, 75, 0
2, 1510, Note_on_c, 0, 63, 0
2, 1511, Note_on_c, 0, 68, 0
2, 1596, Control_c, 0, 64, 88
2, 1600, Control_c, 0, 64, 24
2, 1602, Note_on_c, 0, 63, 80
2, 1602, Note_on_c, 0, 56, 59
2, 1603, Control_c, 0, 64, 0
2, 1605, Note_on_c, 0, 60, 68
2, 1620, Control_c, 0, 64, 56
2, 1624, Control_c, 0, 64, 104
2, 1628, Control_c, 0, 64, 127
2, 1648, Note_on_c, 0, 68, 89
2, 1648, Note_on_c, 0, 51, 72
2, 1649, Note_on_c, 0, 63, 0
2, 1683, Note_on_c, 0, 68, 0
2, 1689, Note_on_c, 0, 51, 0
2, 1691, Note_on_c, 0, 72, 106
2, 1698, Note_on_c, 0, 48, 65
2, 1700, Note_on_c, 0, 56, 0
2, 1702, Note_on_c, 0, 60, 0
2, 1706, Note_on_c, 0, 48, 0
2, 1712, Note_on_c, 0, 72, 0
2, 1758, Note_on_c, 0, 73, 97
2, 1761, Note_on_c, 0, 63, 70
2, 1761, Note_on_c, 0, 61, 59
2, 1763, Note_on_c, 0, 67, 78
2, 1764, Note_on_c, 0, 46, 60
2, 1766, Control_c, 0, 64, 88
2, 1766, Note_on_c, 0, 51, 56
2, 1768, Note_on_c, 0, 55, 61
2, 1770, Control_c, 0, 64, 40
2, 1774, Control_c, 0, 64, 0
2, 1822, Control_c, 0, 64, 56
2, 1826, Control_c, 0, 64, 104
2, 1830, Control_c, 0, 64, 127
2, 1838, Note_on_c, 0, 55, 0
2, 1844, Note_on_c, 0, 67, 0
2, 1848, Note_on_c, 0, 63, 0
2, 1848, Note_on_c, 0, 73, 0
2, 1850, Note_on_c, 0, 51, 0
2, 1852, Note_on_c, 0, 46, 0
2, 1854, Note_on_c, 0, 61, 0
2, 1927, Control_c, 0, 64, 72
2, 1931, Control_c, 0, 64, 0
2, 1933, Note_on_c, 0, 72, 98
2, 1934, Note_on_c, 0, 60, 81
2, 1936, Note_on_c, 0, 68, 73
2, 1937, Note_on_c, 0, 63, 73
2, 1937, Note_on_c, 0, 56, 62
2, 1938, Note_on_c, 0, 44, 67
2, 1942, Note_on_c, 0, 51, 58
2, 1951, Control_c, 0, 64, 72
2, 1955, Control_c, 0, 64, 127
2, 1956, Note_on_c, 0, 51, 0
2, 1960, Note_on_c, 0, 72, 0
2, 1961, Note_on_c, 0, 44, 0
2, 1964, Note_on_c, 0, 60, 0
2, 1964, Note_on_c, 0, 68, 0
2, 1967, Note_on_c, 0, 56, 0
2, 1995, Note_on_c, 0, 63, 0
2, 2029, Note_on_c, 0, 70, 100
2, 2031, Note_on_c, 0, 63, 82
2, 2033, Note_on_c, 0, 58, 74
2, 2037, Note_on_c, 0, 55, 71
2, 2037, Note_on_c, 0, 51, 67
2, 2038, Note_on_c, 0, 43, 65
2, 2040, Control_c, 0, 64, 24
2, 2044, Control_c, 0, 64, 0
2, 2072, Control_c, 0, 64, 88
2, 2076, Control_c, 0, 64, 127
2, 2081, Note_on_c, 0, 43, 0
2, 2081, Note_on_c, 0, 55, 0
2, 2083, Note_on_c, 0, 63, 0
2, 2085, Note_on_c, 0, 58, 0
2, 2087, Note_on_c, 0, 51, 0
2, 2098, Note_on_c, 0, 70, 0
2, 2192, Note_on_c, 0, 74, 107
2, 2193, Control_c, 0, 64, 72
2, 2194, Note_on_c, 0, 46, 68
2, 2194, Note_on_c, 0, 70, 80
2, 2195, Note_on_c, 0, 53, 76
2, 2196, Note_on_c, 0, 62, 83
2, 2196, Note_on_c, 0, 41, 68
2, 2196, Note_on_c, 0, 68, 74
2, 2197, Control_c, 0, 64, 0
2, 2213, Note_on_c, 0, 41, 0
2, 2215, Note_on_c, 0, 53, 0
2, 2219, Note_on_c, 0, 62, 0
2, 2219, Note_on_c, 0, 46, 0
2, 2221, Control_c, 0, 64, 104
2, 2225, Control_c, 0, 64, 127
2, 2226, Note_on_c, 0, 70, 0
2, 2229, Note_on_c, 0, 68, 0
2, 2233, Note_on_c, 0, 74, 0
2, 2300, Note_on_c, 0, 74, 106
2, 2302, Note_on_c, 0, 70, 82
2, 2302, Note_on_c, 0, 68, 75
2, 2303, Note_on_c, 0, 62, 82
2, 2304, Note_on_c, 0, 39, 59
2, 2304, Note_on_c, 0, 51, 59
2, 2308, Note_on_c, 0, 46, 56
2, 2326, Control_c, 0, 64, 56
2, 2330, Control_c, 0, 64, 0
2, 2395, Control_c, 0, 64, 40
2, 2399, Control_c, 0, 64, 72
2, 2403, Control_c, 0, 64, 104
2, 2407, Control_c, 0, 64, 127
2, 2480, Note_on_c, 0, 74, 0
2, 2495, Note_on_c, 0, 62, 0
2, 2513, Note_on_c, 0, 68, 0
2, 2566, Note_on_c, 0, 70, 0
2, 2589, Note_on_c, 0, 75, 78
2, 2595, Note_on_c, 0, 63, 51
2, 2599, Note_on_c, 0, 67, 61
2, 2625, Control_c, 0, 64, 72
2, 2629, Control_c, 0, 64, 0
2, 2661, Control_c, 0, 64, 40
2, 2664, Control_c, 0, 64, 127
2, 2665, Note_on_c, 0, 39, 0
2, 2666, Note_on_c, 0, 67, 0
2, 2672, Note_on_c, 0, 75, 0
2, 2672, Note_on_c, 0, 46, 0
2, 2674, Note_on_c, 0, 51, 0
2, 2674, Note_on_c, 0, 63, 0
2, 2769, Control_c, 0, 64, 40
2, 2774, Control_c, 0, 64, 0
2, 2775, Note_on_c, 0, 72, 90
2, 2775, Note_on_c, 0, 68, 67
2, 2775, Note_on_c, 0, 56, 73
2, 2775, Note_on_c, 0, 63, 66
2, 2796, Note_on_c, 0, 56, 0
2, 2798, Control_c, 0, 64, 88
2, 2800, Note_on_c, 0, 63, 0
2, 2802, Note_on_c, 0, 72, 0
2, 2802, Control_c, 0, 64, 127
2, 2808, Note_on_c, 0, 68, 0
2, 2878, Note_on_c, 0, 72, 83
2, 2879, Note_on_c, 0, 65, 70
2, 2879, Note_on_c, 0, 61, 60
2, 2880, Note_on_c, 0, 68, 52
2, 2891, Control_c, 0, 64, 88
2, 2895, Control_c, 0, 64, 56
2, 2899, Control_c, 0, 64, 0
2, 2943, Control_c, 0, 64, 56
2, 2947, Control_c, 0, 64, 88
2, 2951, Control_c, 0, 64, 127
2, 3112, Note_on_c, 0, 72, 0
2, 3114, Note_on_c, 0, 70, 66
2, 3145, Control_c, 0, 64, 72
2, 3149, Control_c, 0, 64, 0
2, 3173, Control_c, 0, 64, 24
2, 3174, Note_on_c, 0, 68, 0
2, 3176, Note_on_c, 0, 65, 0
2, 3177, Control_c, 0, 64, 88
2, 3181, Control_c, 0, 64, 127
2, 3183, Note_on_c, 0, 61, 0
2, 3191, Note_on_c, 0, 70, 0
2, 3286, Note_on_c, 0, 77, 108
2, 3286, Control_c, 0, 64, 104
2, 3288, Note_on_c, 0, 71, 92
2, 3290, Note_on_c, 0, 67, 79
2, 3290, Note_on_c, 0, 37, 73
2, 3290, Control_c, 0, 64, 0
2, 3290, Note_on_c, 0, 49, 72
2, 3314, Control_c, 0, 64, 56
2, 3318, Note_on_c, 0, 49, 0
2, 3318, Control_c, 0, 64, 127
2, 3319, Note_on_c, 0, 37, 0
2, 3320, Note_on_c, 0, 71, 0
2, 3325, Note_on_c, 0, 67, 0
2, 3331, Note_on_c, 0, 77, 0
2, 3393, Note_on_c, 0, 77, 110
2, 3398, Note_on_c, 0, 72, 91
2, 3398, Note_on_c, 0, 67, 79
2, 3401, Note_on_c, 0, 36, 73
2, 3401, Note_on_c, 0, 48, 73
2, 3415, Control_c, 0, 64, 104
2, 3419, Control_c, 0, 64, 56
2, 3423, Control_c, 0, 64, 0
2, 3555, Control_c, 0, 64, 40
2, 3559, Control_c, 0, 64, 72
2, 3564, Control_c, 0, 64, 104
2, 3568, Control_c, 0, 64, 127
2, 3692, Note_on_c, 0, 77, 0
2, 3697, Note_on_c, 0, 76, 84
2, 3718, Control_c, 0, 64, 104
2, 3722, Control_c, 0, 64, 56
2, 3726, Control_c, 0, 64, 0
2, 3757, Control_c, 0, 64, 24
2, 3761, Control_c, 0, 64, 88
2, 3763, Note_on_c, 0, 36, 0
2, 3765, Note_on_c, 0, 67, 0
2, 3766, Control_c, 0, 64, 127
2, 3768, Note_on_c, 0, 72, 0
2, 3769, Note_on_c, 0, 76, 0
2, 3769, Note_on_c, 0, 48, 0
2, 3899, Note_on_c, 0, 76, 97
2, 3903, Note_on_c, 0, 72, 81
2, 3904, Note_on_c, 0, 67, 68
2, 3906, Note_on_c, 0, 64, 67
2, 3906, Note_on_c, 0, 60, 64
2, 3907, Control_c, 0, 64, 88
2, 3910, Control_c, 0, 64, 24
2, 3915, Control_c, 0, 64, 0
2, 3933, Note_on_c, 0, 64, 0
2, 3933, Note_on_c, 0, 72, 0
2, 3935, Note_on_c, 0, 60, 0
2, 3935, Control_c, 0, 64, 56
2, 3939, Control_c, 0, 64, 127
2, 3941, Note_on_c, 0, 67, 0
2, 3945, Note_on_c, 0, 76, 0
2, 4019, Note_on_c, 0, 75, 92
2, 4023, Note_on_c, 0, 73, 66
2, 4024, Note_on_c, 0, 67, 67
2, 4027, Note_on_c, 0, 58, 53
2, 4028, Note_on_c, 0, 63, 47
2, 4047, Control_c, 0, 64, 72
2, 4051, Control_c, 0, 64, 0
2, 4096, Control_c, 0, 64, 88
2, 4100, Control_c, 0, 64, 127
2, 4114, Note_on_c, 0, 67, 0
2, 4114, Note_on_c, 0, 73, 0
2, 4117, Note_on_c, 0, 63, 0
2, 4118, Note_on_c, 0, 58, 0
2, 4131, Note_on_c, 0, 75, 0
2, 4199, Note_on_c, 0, 75, 98
2, 4205, Note_on_c, 0, 72, 82
2, 4205, Note_on_c, 0, 68, 64
2, 4207, Note_on_c, 0, 56, 56
2, 4209, Note_on_c, 0, 63, 46
2, 4210, Control_c, 0, 64, 72
2, 4214, Control_c, 0, 64, 0
2, 4234, Control_c, 0, 64, 40
2, 4238, Control_c, 0, 64, 127
2, 4239, Note_on_c, 0, 72, 0
2, 4241, Note_on_c, 0, 56, 0
2, 4241, Note_on_c, 0, 63, 0
2, 4245, Note_on_c, 0, 68, 0
2, 4249, Note_on_c, 0, 75, 0
2, 4316, Note_on_c, 0, 73, 85
2, 4318, Note_on_c, 0, 70, 68
2, 4319, Note_on_c, 0, 65, 76
2, 4326, Note_on_c, 0, 49, 52
2, 4338, Control_c, 0, 64, 88
2, 4342, Control_c, 0, 64, 40
2, 4346, Control_c, 0, 64, 0
2, 4391, Control_c, 0, 64, 72
2, 4394, Control_c, 0, 64, 127
2, 4406, Note_on_c, 0, 70, 0
2, 4409, Note_on_c, 0, 65, 0
2, 4412, Note_on_c, 0, 73, 0
2, 4441, Note_on_c, 0, 49, 0
2, 4496, Note_on_c, 0, 72, 90
2, 4500, Control_c, 0, 64, 72
2, 4501, Note_on_c, 0, 61, 52
2, 4504, Control_c, 0, 64, 0
2, 4504, Note_on_c, 0, 67, 58
2, 4505, Note_on_c, 0, 51, 64
2, 4530, Note_on_c, 0, 72, 0
2, 4543, Control_c, 0, 64, 40
2, 4548, Note_on_c, 0, 70, 97
2, 4548, Control_c, 0, 64, 104
2, 4552, Control_c, 0, 64, 127
2, 4557, Note_on_c, 0, 61, 0
2, 4559, Note_on_c, 0, 67, 0
2, 4561, Note_on_c, 0, 51, 0
2, 4573, Note_on_c, 0, 70, 0
2, 4611, Note_on_c, 0, 70, 91
2, 4615, Note_on_c, 0, 61, 63
2, 4615, Note_on_c, 0, 67, 75
2, 4619, Note_on_c, 0, 51, 56
2, 4621, Note_on_c, 0, 44, 50
2, 4629, Control_c, 0, 64, 104
2, 4633, Control_c, 0, 64, 72
2, 4636, Control_c, 0, 64, 24
2, 4640, Control_c, 0, 64, 0
2, 4741, Control_c, 0, 64, 40
2, 4746, Control_c, 0, 64, 72
2, 4750, Control_c, 0, 64, 88
2, 4754, Control_c, 0, 64, 104
2, 4758, Control_c, 0, 64, 127
2, 4814, Note_on_c, 0, 67, 0
2, 4820, Note_on_c, 0, 61, 0
2, 4868, Note_on_c, 0, 70, 0
2, 4919, Note_on_c, 0, 68, 63
2, 4926, Note_on_c, 0, 60, 58
2, 4960, Control_c, 0, 64, 88
2, 4964, Control_c, 0, 64, 56
2, 4968, Control_c, 0, 64, 0
2, 5016, Control_c, 0, 64, 56
2, 5020, Note_on_c, 0, 60, 0
2, 5020, Control_c, 0, 64, 104
2, 5022, Note_on_c, 0, 44, 0
2, 5024, Control_c, 0, 64, 127
2, 5033, Note_on_c, 0, 51, 0
2, 5037, Note_on_c, 0, 68, 0
2, 5125, Control_c, 0, 64, 88
2, 5129, Control_c, 0, 64, 40
2, 5133, Control_c, 0, 64, 0
2, 5144, Note_on_c, 0, 72, 85
2, 5148, Note_on_c, 0, 68, 59
2, 5148, Note_on_c, 0, 63, 56
2, 5152, Note_on_c, 0, 56, 59
2, 5169, Control_c, 0, 64, 56
2, 5173, Control_c, 0, 64, 127
2, 5178, Note_on_c, 0, 56, 0
2, 5181, Note_on_c, 0, 72, 0
2, 5183, Note_on_c, 0, 68, 0
2, 5184, Note_on_c, 0, 63, 0
2, 5257, Note_on_c, 0, 72, 92
2, 5258, Note_on_c, 0, 68, 60
2, 5258, Note_on_c, 0, 61, 64
2, 5261, Note_on_c, 0, 65, 71
2, 5278, Control_c, 0, 64, 72
2, 5282, Control_c, 0, 64, 40
2, 5285, Control_c, 0, 64, 0
2, 5326, Control_c, 0, 64, 40
2, 5330, Control_c, 0, 64, 104
2, 5334, Control_c, 0, 64, 127
2, 5541, Note_on_c, 0, 70, 69
2, 5552, Note_on_c, 0, 72, 0
2, 5560, Control_c, 0, 64, 104
2, 5564, Control_c, 0, 64, 56
2, 5568, Control_c, 0, 64, 0
2, 5609, Control_c, 0, 64, 40
2, 5613, Control_c, 0, 64, 88
2, 5617, Note_on_c, 0, 65, 0
2, 5617, Control_c, 0, 64, 127
2, 5619, Note_on_c, 0, 68, 0
2, 5624, Note_on_c, 0, 61, 0
2, 5629, Note_on_c, 0, 70, 0
2, 5718, Control_c, 0, 64, 72
2, 5718, Note_on_c, 0, 77, 103
2, 5720, Note_on_c, 0, 70, 75
2, 5722, Control_c, 0, 64, 0
2, 5722, Note_on_c, 0, 61, 65
2, 5722, Note_on_c, 0, 67, 67
2, 5723, Note_on_c, 0, 65, 69
2, 5746, Control_c, 0, 64, 24
2, 5747, Note_on_c, 0, 67, 0
2, 5748, Note_on_c, 0, 61, 0
2, 5748, Note_on_c, 0, 65, 0
2, 5750, Note_on_c, 0, 70, 0
2, 5750, Control_c, 0, 64, 88
2, 5754, Note_on_c, 0, 77, 0
2, 5754, Control_c, 0, 64, 127
2, 5824, Note_on_c, 0, 77, 105
2, 5828, Note_on_c, 0, 68, 68
2, 5832, Note_on_c, 0, 72, 74
2, 5834, Note_on_c, 0, 65, 62
2, 5836, Note_on_c, 0, 60, 60
2, 5847, Control_c, 0, 64, 72
2, 5851, Control_c, 0, 64, 0
2, 5891, Control_c, 0, 64, 24
2, 5895, Control_c, 0, 64, 72
2, 5899, Control_c, 0, 64, 104
2, 5903, Control_c, 0, 64, 127
2, 5927, Control_c, 0, 64, 88
2, 5931, Control_c, 0, 64, 0
2, 5964, Control_c, 0, 64, 56
2, 5968, Control_c, 0, 64, 88
2, 5972, Control_c, 0, 64, 127
2, 6066, Note_on_c, 0, 77, 0
2, 6086, Note_on_c, 0, 65, 0
2, 6086, Note_on_c, 0, 72, 0
2, 6105, Note_on_c, 0, 75, 75
2, 6113, Control_c, 0, 64, 88
2, 6115, Note_on_c, 0, 63, 45
2, 6117, Control_c, 0, 64, 72
2, 6121, Control_c, 0, 64, 40
2, 6125, Control_c, 0, 64, 0
2, 6173, Control_c, 0, 64, 24
2, 6177, Control_c, 0, 64, 72
2, 6181, Control_c, 0, 64, 127
2, 6182, Note_on_c, 0, 75, 0
2, 6184, Note_on_c, 0, 68, 0
2, 6187, Note_on_c, 0, 63, 0
2, 6188, Note_on_c, 0, 60, 0
2, 6266, Control_c, 0, 64, 24
2, 6268, Note_on_c, 0, 63, 81
2, 6270, Control_c, 0, 64, 0
2, 6272, Note_on_c, 0, 60, 69
2, 6272, Note_on_c, 0, 56, 58
2, 6294, Control_c, 0, 64, 88
2, 6298, Control_c, 0, 64, 127
2, 6305, Note_on_c, 0, 63, 0
2, 6312, Note_on_c, 0, 68, 85
2, 6318, Note_on_c, 0, 51, 71
2, 6347, Note_on_c, 0, 68, 0
2, 6351, Note_on_c, 0, 56, 0
2, 6354, Note_on_c, 0, 72, 104
2, 6358, Note_on_c, 0, 51, 0
2, 6361, Note_on_c, 0, 48, 72
2, 6366, Note_on_c, 0, 60, 0
2, 6369, Note_on_c, 0, 48, 0
2, 6375, Note_on_c, 0, 72, 0
2, 6420, Note_on_c, 0, 73, 95
2, 6422, Note_on_c, 0, 61, 63
2, 6423, Control_c, 0, 64, 88
2, 6425, Note_on_c, 0, 67, 76
2, 6425, Note_on_c, 0, 63, 69
2, 6428, Control_c, 0, 64, 40
2, 6429, Note_on_c, 0, 51, 58
2, 6430, Note_on_c, 0, 46, 57
2, 6431, Note_on_c, 0, 55, 65
2, 6432, Control_c, 0, 64, 0
2, 6492, Control_c, 0, 64, 40
2, 6496, Control_c, 0, 64, 88
2, 6500, Note_on_c, 0, 55, 0
2, 6500, Control_c, 0, 64, 127
2, 6512, Note_on_c, 0, 51, 0
2, 6513, Note_on_c, 0, 67, 0
2, 6514, Note_on_c, 0, 46, 0
2, 6522, Note_on_c, 0, 73, 0
2, 6522, Note_on_c, 0, 63, 0
2, 6527, Note_on_c, 0, 61, 0
2, 6597, Control_c, 0, 64, 40
2, 6597, Note_on_c, 0, 72, 105
2, 6601, Note_on_c, 0, 60, 79
2, 6601, Control_c, 0, 64, 0
2, 6601, Note_on_c, 0, 63, 70
2, 6602, Note_on_c, 0, 68, 74
2, 6603, Note_on_c, 0, 56, 55
2, 6604, Note_on_c, 0, 44, 63
2, 6604, Note_on_c, 0, 51, 63
2, 6629, Control_c, 0, 64, 72
2, 6633, Note_on_c, 0, 72, 0
2, 6633, Control_c, 0, 64, 127
2, 6636, Note_on_c, 0, 44, 0
2, 6637, Note_on_c, 0, 60, 0
2, 6638, Note_on_c, 0, 56, 0
2, 6638, Note_on_c, 0, 51, 0
2, 6639, Note_on_c, 0, 68, 0
2, 6651, Note_on_c, 0, 63, 0
2, 6698, Note_on_c, 0, 70, 91
2, 6702, Note_on_c, 0, 58, 67
2, 6703, Note_on_c, 0, 63, 66
2, 6706, Control_c, 0, 64, 88
2, 6710, Control_c, 0, 64, 0
2, 6711, Note_on_c, 0, 55, 60
2, 6711, Note_on_c, 0, 43, 57
2, 6711, Note_on_c, 0, 51, 52
2, 6765, Control_c, 0, 64, 56
2, 6769, Control_c, 0, 64, 127
2, 6785, Note_on_c, 0, 43, 0
2, 6785, Note_on_c, 0, 55, 0
2, 6786, Note_on_c, 0, 63, 0
2, 6791, Note_on_c, 0, 58, 0
2, 6793, Note_on_c, 0, 51, 0
2, 6805, Note_on_c, 0, 70, 0
2, 6868, Note_on_c, 0, 74, 102
2, 6870, Note_on_c, 0, 68, 75
2, 6870, Note_on_c, 0, 70, 80
2, 6871, Control_c, 0, 64, 24
2, 6872, Note_on_c, 0, 62, 78
2, 6872, Note_on_c, 0, 53, 73
2, 6873, Note_on_c, 0, 46, 66
2, 6874, Note_on_c, 0, 41, 68
2, 6875, Control_c, 0, 64, 0
2, 6895, Control_c, 0, 64, 40
2, 6896, Note_on_c, 0, 41, 0
2, 6896, Note_on_c, 0, 53, 0
2, 6899, Control_c, 0, 64, 127
2, 6900, Note_on_c, 0, 46, 0
2, 6903, Note_on_c, 0, 62, 0
2, 6905, Note_on_c, 0, 70, 0
2, 6907, Note_on_c, 0, 74, 0
2, 6908, Note_on_c, 0, 68, 0
2, 6979, Note_on_c, 0, 70, 84
2, 6979, Note_on_c, 0, 74, 105
2, 6980, Note_on_c, 0, 68, 77
2, 6980, Note_on_c, 0, 62, 87
2, 6984, Note_on_c, 0, 39, 69
2, 6985, Note_on_c, 0, 51, 68
2, 6986, Note_on_c, 0, 46, 66
2, 7003, Control_c, 0, 64, 104
2, 7007, Control_c, 0, 64, 40
2, 7012, Control_c, 0, 64, 0
2, 7149, Control_c, 0, 64, 24
2, 7153, Control_c, 0, 64, 72
2, 7157, Control_c, 0, 64, 127
2, 7186, Note_on_c, 0, 74, 0
2, 7192, Note_on_c, 0, 62, 0
2, 7208, Note_on_c, 0, 68, 0
2, 7258, Note_on_c, 0, 70, 0
2, 7306, Note_on_c, 0, 75, 74
2, 7310, Note_on_c, 0, 63, 52
2, 7314, Note_on_c, 0, 67, 61
2, 7335, Control_c, 0, 64, 88
2, 7339, Control_c, 0, 64, 24
2, 7343, Control_c, 0, 64, 0
2, 7391, Note_on_c, 0, 75, 0
2, 7391, Note_on_c, 0, 39, 0
2, 7395, Control_c, 0, 64, 56
2, 7396, Note_on_c, 0, 67, 0
2, 7397, Note_on_c, 0, 46, 0
2, 7399, Note_on_c, 0, 51, 0
2, 7399, Control_c, 0, 64, 127
2, 7404, Note_on_c, 0, 63, 0
2, 7496, Control_c, 0, 64, 104
2, 7500, Control_c, 0, 64, 40
2, 7500, Note_on_c, 0, 72, 86
2, 7504, Control_c, 0, 64, 0
2, 7504, Note_on_c, 0, 56, 59
2, 7506, Note_on_c, 0, 68, 59
2, 7506, Note_on_c, 0, 63, 51
2, 7540, Note_on_c, 0, 56, 0
2, 7540, Control_c, 0, 64, 24
2, 7542, Note_on_c, 0, 63, 0
2, 7543, Note_on_c, 0, 68, 0
2, 7544, Control_c, 0, 64, 88
2, 7546, Note_on_c, 0, 72, 0
2, 7548, Control_c, 0, 64, 127
2, 7604, Note_on_c, 0, 72, 90
2, 7608, Note_on_c, 0, 61, 55
2, 7609, Note_on_c, 0, 65, 66
2, 7609, Note_on_c, 0, 68, 59
2, 7629, Control_c, 0, 64, 88
2, 7633, Control_c, 0, 64, 24
2, 7637, Control_c, 0, 64, 0
2, 7670, Control_c, 0, 64, 40
2, 7674, Control_c, 0, 64, 88
2, 7678, Control_c, 0, 64, 127
2, 7873, Note_on_c, 0, 70, 64
2, 7874, Note_on_c, 0, 72, 0
2, 7899, Control_c, 0, 64, 88
2, 7903, Control_c, 0, 64, 24
2, 7907, Control_c, 0, 64, 0
2, 7940, Control_c, 0, 64, 56
2, 7944, Note_on_c, 0, 68, 0
2, 7944, Control_c, 0, 64, 127
2, 7947, Note_on_c, 0, 65, 0
2, 7948, Note_on_c, 0, 61, 0
2, 7955, Note_on_c, 0, 70, 0
2, 8052, Note_on_c, 0, 77, 114
2, 8052, Control_c, 0, 64, 56
2, 8056, Control_c, 0, 64, 0
2, 8057, Note_on_c, 0, 71, 87
2, 8057, Note_on_c, 0, 49, 73
2, 8059, Note_on_c, 0, 67, 74
2, 8059, Note_on_c, 0, 37, 68
2, 8093, Control_c, 0, 64, 56
2, 8096, Note_on_c, 0, 71, 0
2, 8097, Control_c, 0, 64, 127
2, 8099, Note_on_c, 0, 37, 0
2, 8099, Note_on_c, 0, 49, 0
2, 8102, Note_on_c, 0, 67, 0
2, 8103, Note_on_c, 0, 77, 0
2, 8167, Note_on_c, 0, 77, 112
2, 8172, Note_on_c, 0, 72, 91
2, 8172, Note_on_c, 0, 67, 78
2, 8176, Note_on_c, 0, 48, 64
2, 8176, Note_on_c, 0, 36, 61
2, 8186, Control_c, 0, 64, 104
2, 8190, Control_c, 0, 64, 40
2, 8193, Control_c, 0, 64, 0
2, 8274, Control_c, 0, 64, 40
2, 8278, Control_c, 0, 64, 88
2, 8282, Control_c, 0, 64, 127
2, 8420, Note_on_c, 0, 77, 0
2, 8457, Note_on_c, 0, 76, 79
2, 8480, Control_c, 0, 64, 40
2, 8484, Control_c, 0, 64, 0
2, 8516, Control_c, 0, 64, 72
2, 8520, Note_on_c, 0, 36, 0
2, 8520, Control_c, 0, 64, 127
2, 8531, Note_on_c, 0, 48, 0
2, 8534, Note_on_c, 0, 72, 0
2, 8535, Note_on_c, 0, 67, 0
2, 8538, Note_on_c, 0, 76, 0
2, 8648, Note_on_c, 0, 76, 99
2, 8653, Note_on_c, 0, 60, 72
2, 8654, Note_on_c, 0, 72, 81
2, 8654, Note_on_c, 0, 64, 72
2, 8654, Note_on_c, 0, 67, 69
2, 8658, Control_c, 0, 64, 56
2, 8662, Control_c, 0, 64, 0
2, 8682, Note_on_c, 0, 64, 0
2, 8682, Note_on_c, 0, 72, 0
2, 8682, Note_on_c, 0, 60, 0
2, 8685, Note_on_c, 0, 67, 0
2, 8690, Control_c, 0, 64, 56
2, 8692, Note_on_c, 0, 76, 0
2, 8693, Control_c, 0, 64, 127
2, 8759, Note_on_c, 0, 75, 98
2, 8762, Note_on_c, 0, 73, 75
2, 8763, Note_on_c, 0, 67, 76
2, 8764, Note_on_c, 0, 58, 59
2, 8766, Note_on_c, 0, 63, 56
2, 8778, Control_c, 0, 64, 88
2, 8782, Control_c, 0, 64, 0
2, 8847, Control_c, 0, 64, 88
2, 8851, Control_c, 0, 64, 127
2, 8860, Note_on_c, 0, 73, 0
2, 8863, Note_on_c, 0, 67, 0
2, 8873, Note_on_c, 0, 63, 0
2, 8878, Note_on_c, 0, 75, 0
2, 8885, Note_on_c, 0, 58, 0
2, 8944, Note_on_c, 0, 75, 93
2, 8949, Note_on_c, 0, 68, 62
2, 8951, Note_on_c, 0, 56, 60
2, 8951, Note_on_c, 0, 63, 54
2, 8953, Note_on_c, 0, 72, 62
2, 8960, Control_c, 0, 64, 72
2, 8964, Control_c, 0, 64, 0
2, 8987, Note_on_c, 0, 72, 0
2, 8987, Control_c, 0, 64, 40
2, 8989, Note_on_c, 0, 63, 0
2, 8990, Note_on_c, 0, 56, 0
2, 8991, Control_c, 0, 64, 127
2, 8995, Note_on_c, 0, 68, 0
2, 8997, Note_on_c, 0, 75, 0
2, 9059, Note_on_c, 0, 73, 87
2, 9061, Note_on_c, 0, 70, 64
2, 9064, Note_on_c, 0, 65, 68
2, 9070, Note_on_c, 0, 49, 58
2, 9084, Control_c, 0, 64, 72
2, 9089, Control_c, 0, 64, 0
2, 9121, Control_c, 0, 64, 40
2, 9125, Control_c, 0, 64, 127
2, 9129, Note_on_c, 0, 70, 0
2, 9134, Note_on_c, 0, 65, 0
2, 9138, Note_on_c, 0, 73, 0
2, 9150, Note_on_c, 0, 49, 0
2, 9230, Control_c, 0, 64, 40
2, 9230, Note_on_c, 0, 72, 94
2, 9233, Note_on_c, 0, 61, 58
2, 9233, Control_c, 0, 64, 0
2, 9236, Note_on_c, 0, 67, 72
2, 9236, Note_on_c, 0, 51, 63
2, 9263, Note_on_c, 0, 72, 0
2, 9266, Control_c, 0, 64, 40
2, 9270, Control_c, 0, 64, 88
2, 9272, Note_on_c, 0, 51, 0
2, 9274, Control_c, 0, 64, 127
2, 9278, Note_on_c, 0, 70, 97
2, 9288, Note_on_c, 0, 67, 0
2, 9288, Note_on_c, 0, 61, 0
2, 9306, Note_on_c, 0, 70, 0
2, 9348, Note_on_c, 0, 70, 89
2, 9350, Note_on_c, 0, 67, 78
2, 9351, Note_on_c, 0, 61, 60
2, 9354, Note_on_c, 0, 44, 54
2, 9354, Note_on_c, 0, 51, 53
2, 9359, Control_c, 0, 64, 88
2, 9363, Control_c, 0, 64, 24
2, 9367, Control_c, 0, 64, 0
2, 9472, Control_c, 0, 64, 40
2, 9476, Control_c, 0, 64, 88
2, 9479, Control_c, 0, 64, 127
2, 9559, Note_on_c, 0, 67, 0
2, 9571, Note_on_c, 0, 61, 0
2, 9619, Note_on_c, 0, 70, 0
2, 9660, Note_on_c, 0, 68, 66
2, 9665, Note_on_c, 0, 60, 59
2, 9690, Control_c, 0, 64, 56
2, 9694, Control_c, 0, 64, 0
2, 9754, Control_c, 0, 64, 72
2, 9758, Control_c, 0, 64, 127
2, 9762, Note_on_c, 0, 44, 0
2, 9766, Note_on_c, 0, 60, 0
2, 9768, Note_on_c, 0, 51, 0
2, 9776, Note_on_c, 0, 68, 0
2, 9869, Note_on_c, 0, 71, 79
2, 9871, Control_c, 0, 64, 104
2, 9872, Note_on_c, 0, 68, 63
2, 9873, Note_on_c, 0, 62, 57
2, 9875, Control_c, 0, 64, 40
2, 9876, Note_on_c, 0, 59, 57
2, 9878, Note_on_c, 0, 56, 49
2, 9879, Note_on_c, 0, 52, 62
2, 9880, Control_c, 0, 64, 0
2, 9900, Control_c, 0, 64, 40
2, 9904, Note_on_c, 0, 52, 0
2, 9904, Note_on_c, 0, 59, 0
2, 9904, Control_c, 0, 64, 104
2, 9906, Note_on_c, 0, 62, 0
2, 9907, Note_on_c, 0, 56, 0
2, 9908, Control_c, 0, 64, 127
2, 9910, Note_on_c, 0, 71, 0
2, 9919, Note_on_c, 0, 68, 0
2, 9982, Note_on_c, 0, 71, 86
2, 9985, Note_on_c, 0, 68, 55
2, 9987, Note_on_c, 0, 62, 62
2, 9988, Note_on_c, 0, 52, 57
2, 9991, Note_on_c, 0, 56, 53
2, 9992, Note_on_c, 0, 59, 54
2, 10008, Control_c, 0, 64, 88
2, 10012, Control_c, 0, 64, 40
2, 10016, Control_c, 0, 64, 0
2, 10057, Control_c, 0, 64, 24
2, 10061, Control_c, 0, 64, 72
2, 10065, Control_c, 0, 64, 127
2, 10107, Note_on_c, 0, 62, 0
2, 10169, Note_on_c, 0, 52, 0
2, 10251, Note_on_c, 0, 63, 48
2, 10253, Note_on_c, 0, 51, 56
2, 10274, Control_c, 0, 64, 104
2, 10278, Control_c, 0, 64, 56
2, 10282, Control_c, 0, 64, 0
2, 10323, Control_c, 0, 64, 72
2, 10327, Control_c, 0, 64, 127
2, 10332, Note_on_c, 0, 68, 0
2, 10336, Note_on_c, 0, 59, 0
2, 10342, Note_on_c, 0, 56, 0
2, 10344, Note_on_c, 0, 63, 0
2, 10346, Note_on_c, 0, 51, 0
2, 10350, Note_on_c, 0, 71, 0
2, 10456, Note_on_c, 0, 71, 90
2, 10456, Control_c, 0, 64, 88
2, 10457, Note_on_c, 0, 49, 71
2, 10460, Note_on_c, 0, 64, 71
2, 10460, Note_on_c, 0, 68, 63
2, 10460, Control_c, 0, 64, 24
2, 10461, Note_on_c, 0, 59, 56
2, 10464, Note_on_c, 0, 56, 57
2, 10464, Control_c, 0, 64, 0
2, 10484, Control_c, 0, 64, 56
2, 10486, Note_on_c, 0, 49, 0
2, 10487, Note_on_c, 0, 59, 0
2, 10488, Note_on_c, 0, 56, 0
2, 10488, Control_c, 0, 64, 127
2, 10495, Note_on_c, 0, 64, 0
2, 10499, Note_on_c, 0, 68, 0
2, 10501, Note_on_c, 0, 71, 0
2, 10569, Note_on_c, 0, 71, 96
2, 10571, Note_on_c, 0, 68, 72
2, 10572, Note_on_c, 0, 64, 82
2, 10574, Note_on_c, 0, 59, 67
2, 10574, Note_on_c, 0, 49, 64
2, 10576, Note_on_c, 0, 56, 54
2, 10589, Control_c, 0, 64, 72
2, 10593, Control_c, 0, 64, 0
2, 10625, Control_c, 0, 64, 24
2, 10629, Control_c, 0, 64, 88
2, 10634, Control_c, 0, 64, 127
2, 10679, Note_on_c, 0, 64, 0
2, 10780, Note_on_c, 0, 49, 0
2, 10852, Note_on_c, 0, 63, 59
2, 10857, Note_on_c, 0, 47, 57
2, 10871, Control_c, 0, 64, 104
2, 10875, Control_c, 0, 64, 24
2, 10879, Control_c, 0, 64, 0
2, 10916, Control_c, 0, 64, 40
2, 10920, Control_c, 0, 64, 88
2, 10923, Control_c, 0, 64, 127
2, 10929, Note_on_c, 0, 47, 0
2, 10932, Note_on_c, 0, 59, 0
2, 10941, Note_on_c, 0, 56, 0
2, 10945, Note_on_c, 0, 63, 0
2, 10947, Note_on_c, 0, 71, 0
2, 10956, Note_on_c, 0, 68, 0
2, 11045, Control_c, 0, 64, 104
2, 11047, Note_on_c, 0, 71, 94
2, 11049, Control_c, 0, 64, 40
2, 11051, Note_on_c, 0, 59, 52
2, 11051, Note_on_c, 0, 47, 62
2, 11052, Note_on_c, 0, 63, 62
2, 11052, Note_on_c, 0, 68, 73
2, 11052, Control_c, 0, 64, 0
2, 11053, Note_on_c, 0, 56, 56
2, 11076, Note_on_c, 0, 47, 0
2, 11077, Control_c, 0, 64, 56
2, 11078, Note_on_c, 0, 59, 0
2, 11081, Control_c, 0, 64, 127
2, 11082, Note_on_c, 0, 63, 0
2, 11084, Note_on_c, 0, 56, 0
2, 11090, Note_on_c, 0, 71, 0
2, 11092, Note_on_c, 0, 68, 0
2, 11169, Note_on_c, 0, 70, 89
2, 11175, Note_on_c, 0, 68, 60
2, 11177, Note_on_c, 0, 58, 50
2, 11177, Note_on_c, 0, 56, 51
2, 11180, Note_on_c, 0, 64, 53
2, 11181, Note_on_c, 0, 49, 54
2, 11186, Control_c, 0, 64, 88
2, 11190, Control_c, 0, 64, 24
2, 11194, Control_c, 0, 64, 0
2, 11226, Control_c, 0, 64, 56
2, 11230, Control_c, 0, 64, 127
2, 11280, Note_on_c, 0, 76, 99
2, 11323, Control_c, 0, 64, 88
2, 11326, Note_on_c, 0, 70, 0
2, 11327, Control_c, 0, 64, 0
2, 11351, Control_c, 0, 64, 24
2, 11355, Control_c, 0, 64, 104
2, 11359, Control_c, 0, 64, 127
2, 11405, Note_on_c, 0, 76, 0
2, 11429, Note_on_c, 0, 70, 89
2, 11462, Note_on_c, 0, 49, 0
2, 11476, Control_c, 0, 64, 40
2, 11480, Note_on_c, 0, 75, 97
2, 11480, Control_c, 0, 64, 0
2, 11485, Note_on_c, 0, 46, 66
2, 11491, Note_on_c, 0, 70, 0
2, 11504, Control_c, 0, 64, 40
2, 11508, Control_c, 0, 64, 104
2, 11512, Control_c, 0, 64, 127
2, 11514, Note_on_c, 0, 75, 0
2, 11523, Note_on_c, 0, 46, 0
2, 11527, Note_on_c, 0, 73, 93
2, 11553, Note_on_c, 0, 73, 0
2, 11555, Note_on_c, 0, 68, 0
2, 11577, Control_c, 0, 64, 88
2, 11578, Note_on_c, 0, 71, 86
2, 11580, Note_on_c, 0, 47, 63
2, 11581, Control_c, 0, 64, 0
2, 11582, Note_on_c, 0, 56, 0
2, 11609, Note_on_c, 0, 71, 0
2, 11609, Note_on_c, 0, 64, 0
2, 11613, Control_c, 0, 64, 88
2, 11618, Control_c, 0, 64, 127
2, 11624, Note_on_c, 0, 47, 0
2, 11643, Note_on_c, 0, 58, 0
2, 11672, Note_on_c, 0, 70, 85
2, 11675, Note_on_c, 0, 61, 60
2, 11678, Note_on_c, 0, 64, 72
2, 11680, Note_on_c, 0, 49, 58
2, 11682, Control_c, 0, 64, 40
2, 11686, Control_c, 0, 64, 0
2, 11709, Control_c, 0, 64, 88
2, 11714, Control_c, 0, 64, 127
2, 11715, Note_on_c, 0, 49, 0
2, 11718, Note_on_c, 0, 64, 0
2, 11718, Note_on_c, 0, 70, 0
2, 11725, Note_on_c, 0, 61, 0
2, 11778, Note_on_c, 0, 68, 78
2, 11782, Note_on_c, 0, 59, 62
2, 11782, Note_on_c, 0, 63, 62
2, 11787, Control_c, 0, 64, 72
2, 11787, Note_on_c, 0, 51, 52
2, 11791, Control_c, 0, 64, 24
2, 11795, Control_c, 0, 64, 0
2, 11936, Control_c, 0, 64, 40
2, 11940, Control_c, 0, 64, 88
2, 11944, Control_c, 0, 64, 127
2, 11967, Note_on_c, 0, 59, 0
2, 12058, Note_on_c, 0, 68, 0
2, 12080, Note_on_c, 0, 58, 50
2, 12082, Note_on_c, 0, 67, 62
2, 12105, Control_c, 0, 64, 72
2, 12109, Control_c, 0, 64, 24
2, 12114, Control_c, 0, 64, 0
2, 12157, Control_c, 0, 64, 40
2, 12161, Note_on_c, 0, 58, 0
2, 12161, Control_c, 0, 64, 104
2, 12166, Control_c, 0, 64, 127
2, 12167, Note_on_c, 0, 63, 0
2, 12170, Note_on_c, 0, 51, 0
2, 12171, Note_on_c, 0, 67, 0
2, 12291, Control_c, 0, 64, 104
2, 12295, Control_c, 0, 64, 24
2, 12295, Note_on_c, 0, 71, 79
2, 12297, Note_on_c, 0, 68, 55
2, 12299, Note_on_c, 0, 62, 65
2, 12299, Control_c, 0, 64, 0
2, 12303, Note_on_c, 0, 52, 62
2, 12303, Note_on_c, 0, 56, 45
2, 12304, Note_on_c, 0, 59, 51
2, 12321, Note_on_c, 0, 52, 0
2, 12323, Control_c, 0, 64, 40
2, 12324, Note_on_c, 0, 56, 0
2, 12324, Note_on_c, 0, 59, 0
2, 12327, Control_c, 0, 64, 127
2, 12328, Note_on_c, 0, 71, 0
2, 12329, Note_on_c, 0, 62, 0
2, 12329, Note_on_c, 0, 68, 0
2, 12399, Note_on_c, 0, 71, 84
2, 12400, Note_on_c, 0, 68, 60
2, 12403, Note_on_c, 0, 62, 63
2, 12406, Note_on_c, 0, 56, 45
2, 12408, Note_on_c, 0, 59, 46
2, 12410, Note_on_c, 0, 52, 42
2, 12416, Control_c, 0, 64, 72
2, 12420, Control_c, 0, 64, 24
2, 12424, Control_c, 0, 64, 0
2, 12460, Control_c, 0, 64, 40
2, 12464, Control_c, 0, 64, 88
2, 12468, Control_c, 0, 64, 127
2, 12483, Note_on_c, 0, 62, 0
2, 12544, Note_on_c, 0, 52, 0
2, 12669, Note_on_c, 0, 63, 54
2, 12674, Note_on_c, 0, 51, 49
2, 12690, Control_c, 0, 64, 104
2, 12694, Control_c, 0, 64, 56
2, 12698, Control_c, 0, 64, 0
2, 12734, Control_c, 0, 64, 40
2, 12738, Control_c, 0, 64, 104
2, 12742, Control_c, 0, 64, 127
2, 12744, Note_on_c, 0, 68, 0
2, 12746, Note_on_c, 0, 51, 0
2, 12748, Note_on_c, 0, 59, 0
2, 12754, Note_on_c, 0, 56, 0
2, 12758, Note_on_c, 0, 71, 0
2, 12764, Note_on_c, 0, 63, 0
2, 12868, Note_on_c, 0, 71, 86
2, 12870, Note_on_c, 0, 49, 60
2, 12870, Note_on_c, 0, 68, 65
2, 12872, Control_c, 0, 64, 88
2, 12872, Note_on_c, 0, 64, 75
2, 12872, Note_on_c, 0, 59, 62
2, 12874, Note_on_c, 0, 56, 53
2, 12876, Control_c, 0, 64, 24
2, 12880, Control_c, 0, 64, 0
2, 12898, Note_on_c, 0, 49, 0
2, 12899, Note_on_c, 0, 56, 0
2, 12900, Note_on_c, 0, 59, 0
2, 12903, Control_c, 0, 64, 72
2, 12908, Note_on_c, 0, 64, 0
2, 12908, Note_on_c, 0, 68, 0
2, 12908, Control_c, 0, 64, 127
2, 12912, Note_on_c, 0, 71, 0
2, 12986, Note_on_c, 0, 71, 95
2, 12988, Note_on_c, 0, 68, 74
2, 12990, Note_on_c, 0, 64, 81
2, 12990, Note_on_c, 0, 49, 69
2, 12990, Note_on_c, 0, 59, 71
2, 12992, Note_on_c, 0, 56, 55
2, 13005, Control_c, 0, 64, 104
2, 13009, Control_c, 0, 64, 40
2, 13013, Control_c, 0, 64, 0
2, 13040, Control_c, 0, 64, 72
2, 13044, Control_c, 0, 64, 127
2, 13122, Note_on_c, 0, 64, 0
2, 13240, Note_on_c, 0, 49, 0
2, 13254, Note_on_c, 0, 63, 64
2, 13262, Note_on_c, 0, 47, 45
2, 13275, Control_c, 0, 64, 104
2, 13279, Control_c, 0, 64, 56
2, 13283, Control_c, 0, 64, 0
2, 13323, Control_c, 0, 64, 40
2, 13327, Control_c, 0, 64, 104
2, 13331, Control_c, 0, 64, 127
2, 13345, Note_on_c, 0, 59, 0
2, 13346, Note_on_c, 0, 47, 0
2, 13354, Note_on_c, 0, 56, 0
2, 13355, Note_on_c, 0, 68, 0
2, 13364, Note_on_c, 0, 63, 0
2, 13370, Note_on_c, 0, 71, 0
2, 13447, Control_c, 0, 64, 104
2, 13451, Note_on_c, 0, 71, 95
2, 13452, Control_c, 0, 64, 0
2, 13454, Note_on_c, 0, 68, 75
2, 13454, Note_on_c, 0, 64, 78
2, 13457, Note_on_c, 0, 56, 57
2, 13458, Note_on_c, 0, 47, 61
2, 13458, Note_on_c, 0, 52, 68
2, 13461, Note_on_c, 0, 59, 49
2, 13480, Note_on_c, 0, 47, 0
2, 13480, Control_c, 0, 64, 72
2, 13481, Note_on_c, 0, 52, 0
2, 13482, Note_on_c, 0, 64, 0
2, 13483, Note_on_c, 0, 56, 0
2, 13483, Note_on_c, 0, 59, 0
2, 13484, Note_on_c, 0, 68, 0
2, 13484, Control_c, 0, 64, 127
2, 13496, Note_on_c, 0, 71, 0
2, 13568, Note_on_c, 0, 71, 93
2, 13571, Note_on_c, 0, 68, 77
2, 13573, Note_on_c, 0, 64, 71
2, 13573, Note_on_c, 0, 47, 61
2, 13574, Note_on_c, 0, 59, 63
2, 13574, Note_on_c, 0, 56, 59
2, 13575, Note_on_c, 0, 52, 68
2, 13577, Control_c, 0, 64, 104
2, 13581, Control_c, 0, 64, 72
2, 13585, Control_c, 0, 64, 24
2, 13589, Control_c, 0, 64, 0
2, 13626, Control_c, 0, 64, 40
2, 13630, Control_c, 0, 64, 104
2, 13633, Control_c, 0, 64, 127
2, 13680, Note_on_c, 0, 76, 101
2, 13701, Note_on_c, 0, 71, 0
2, 13714, Control_c, 0, 64, 40
2, 13718, Control_c, 0, 64, 0
2, 13751, Control_c, 0, 64, 56
2, 13755, Control_c, 0, 64, 127
2, 13824, Note_on_c, 0, 76, 0
2, 13826, Note_on_c, 0, 71, 85
2, 13842, Note_on_c, 0, 68, 0
2, 13846, Note_on_c, 0, 71, 0
2, 13864, Note_on_c, 0, 71, 81
2, 13883, Note_on_c, 0, 75, 99
2, 13884, Control_c, 0, 64, 104
2, 13888, Control_c, 0, 64, 72
2, 13892, Note_on_c, 0, 71, 0
2, 13892, Control_c, 0, 64, 24
2, 13896, Control_c, 0, 64, 0
2, 13931, Control_c, 0, 64, 40
2, 13933, Note_on_c, 0, 73, 95
2, 13935, Control_c, 0, 64, 72
2, 13940, Control_c, 0, 64, 104
2, 13941, Note_on_c, 0, 75, 0
2, 13944, Control_c, 0, 64, 127
2, 13974, Note_on_c, 0, 73, 0
2, 13979, Note_on_c, 0, 71, 100
2, 13984, Control_c, 0, 64, 104
2, 13989, Control_c, 0, 64, 40
2, 13993, Control_c, 0, 64, 0
2, 14021, Control_c, 0, 64, 104
2, 14025, Control_c, 0, 64, 127
2, 14059, Note_on_c, 0, 71, 0
2, 14063, Note_on_c, 0, 64, 0
2, 14065, Note_on_c, 0, 68, 94
2, 14077, Note_on_c, 0, 59, 0
2, 14081, Note_on_c, 0, 47, 0
2, 14082, Note_on_c, 0, 56, 0
2, 14086, Note_on_c, 0, 52, 0
2, 14088, Note_on_c, 0, 68, 0
2, 14172, Note_on_c, 0, 65, 93
2, 14181, Note_on_c, 0, 61, 51
2, 14182, Control_c, 0, 64, 104
2, 14183, Note_on_c, 0, 56, 52
2, 14184, Note_on_c, 0, 47, 62
2, 14185, Note_on_c, 0, 53, 63
2, 14186, Control_c, 0, 64, 40
2, 14190, Control_c, 0, 64, 0
2, 14230, Control_c, 0, 64, 56
2, 14235, Control_c, 0, 64, 104
2, 14239, Control_c, 0, 64, 127
2, 14276, Note_on_c, 0, 73, 91
2, 14280, Note_on_c, 0, 65, 0
2, 14299, Control_c, 0, 64, 88
2, 14303, Control_c, 0, 64, 0
2, 14336, Control_c, 0, 64, 40
2, 14340, Control_c, 0, 64, 127
2, 14364, Note_on_c, 0, 47, 0
2, 14372, Note_on_c, 0, 53, 0
2, 14373, Note_on_c, 0, 56, 0
2, 14406, Note_on_c, 0, 73, 0
2, 14416, Note_on_c, 0, 61, 0
2, 14420, Note_on_c, 0, 65, 93
2, 14437, Note_on_c, 0, 65, 0
2, 14472, Control_c, 0, 64, 72
2, 14476, Control_c, 0, 64, 0
2, 14482, Note_on_c, 0, 73, 89
2, 14485, Note_on_c, 0, 66, 79
2, 14487, Note_on_c, 0, 47, 61
2, 14488, Note_on_c, 0, 61, 65
2, 14489, Note_on_c, 0, 54, 57
2, 14489, Note_on_c, 0, 57, 58
2, 14505, Control_c, 0, 64, 72
2, 14509, Control_c, 0, 64, 127
2, 14511, Note_on_c, 0, 73, 0
2, 14524, Note_on_c, 0, 66, 0
2, 14530, Note_on_c, 0, 69, 97
2, 14544, Note_on_c, 0, 54, 0
2, 14549, Note_on_c, 0, 69, 0
2, 14549, Note_on_c, 0, 57, 0
2, 14556, Note_on_c, 0, 61, 0
2, 14585, Note_on_c, 0, 68, 88
2, 14586, Control_c, 0, 64, 56
2, 14589, Note_on_c, 0, 64, 79
2, 14590, Control_c, 0, 64, 0
2, 14592, Note_on_c, 0, 56, 57
2, 14594, Note_on_c, 0, 59, 63
2, 14627, Note_on_c, 0, 56, 0
2, 14638, Control_c, 0, 64, 72
2, 14639, Note_on_c, 0, 59, 0
2, 14642, Control_c, 0, 64, 104
2, 14646, Control_c, 0, 64, 127
2, 14656, Note_on_c, 0, 64, 0
2, 14664, Note_on_c, 0, 68, 0
2, 14698, Note_on_c, 0, 66, 80
2, 14698, Control_c, 0, 64, 72
2, 14702, Note_on_c, 0, 63, 59
2, 14702, Control_c, 0, 64, 0
2, 14707, Note_on_c, 0, 57, 62
2, 14708, Note_on_c, 0, 59, 55
2, 14744, Note_on_c, 0, 57, 0
2, 14747, Note_on_c, 0, 59, 0
2, 14749, Note_on_c, 0, 66, 0
2, 14751, Control_c, 0, 64, 88
2, 14752, Note_on_c, 0, 63, 0
2, 14755, Control_c, 0, 64, 127
2, 14758, Note_on_c, 0, 47, 0
2, 14832, Note_on_c, 0, 64, 79
2, 14836, Note_on_c, 0, 59, 67
2, 14836, Note_on_c, 0, 56, 46
2, 14840, Note_on_c, 0, 40, 52
2, 14842, Note_on_c, 0, 52, 44
2, 14843, Note_on_c, 0, 47, 62
2, 14848, Control_c, 0, 64, 88
2, 14852, Control_c, 0, 64, 40
2, 14856, Control_c, 0, 64, 0
2, 14936, Control_c, 0, 64, 40
2, 14940, Control_c, 0, 64, 88
2, 14944, Control_c, 0, 64, 127
2, 14964, Note_on_c, 0, 56, 0
2, 14964, Note_on_c, 0, 59, 0
2, 14970, Note_on_c, 0, 64, 0
2, 15072, Note_on_c, 0, 64, 83
2, 15107, Note_on_c, 0, 68, 80
2, 15121, Note_on_c, 0, 64, 0
2, 15133, Note_on_c, 0, 52, 0
2, 15133, Note_on_c, 0, 68, 0
2, 15136, Note_on_c, 0, 47, 0
2, 15136, Note_on_c, 0, 40, 0
2, 15138, Note_on_c, 0, 71, 100
2, 15159, Note_on_c, 0, 71, 0
2, 15192, Note_on_c, 0, 70, 90
2, 15193, Note_on_c, 0, 61, 68
2, 15194, Note_on_c, 0, 67, 85
2, 15195, Note_on_c, 0, 64, 79
2, 15202, Note_on_c, 0, 40, 59
2, 15219, Control_c, 0, 64, 88
2, 15223, Control_c, 0, 64, 40
2, 15227, Control_c, 0, 64, 0
2, 15275, Control_c, 0, 64, 40
2, 15279, Control_c, 0, 64, 88
2, 15283, Control_c, 0, 64, 127
2, 15327, Note_on_c, 0, 70, 0
2, 15332, Note_on_c, 0, 64, 0
2, 15336, Note_on_c, 0, 67, 0
2, 15342, Note_on_c, 0, 61, 0
2, 15406, Note_on_c, 0, 68, 58
2, 15406, Note_on_c, 0, 71, 79
2, 15407, Note_on_c, 0, 59, 56
2, 15414, Note_on_c, 0, 64, 58
2, 15428, Control_c, 0, 64, 56
2, 15432, Control_c, 0, 64, 0
2, 15448, Control_c, 0, 64, 56
2, 15452, Note_on_c, 0, 64, 0
2, 15452, Control_c, 0, 64, 127
2, 15456, Note_on_c, 0, 71, 0
2, 15466, Note_on_c, 0, 68, 0
2, 15481, Note_on_c, 0, 59, 0
2, 15488, Note_on_c, 0, 40, 0
2, 15491, Note_on_c, 0, 66, 63
2, 15511, Note_on_c, 0, 68, 82
2, 15522, Note_on_c, 0, 66, 0
2, 15537, Note_on_c, 0, 68, 0
2, 15546, Note_on_c, 0, 63, 64
2, 15547, Note_on_c, 0, 69, 93
2, 15549, Note_on_c, 0, 60, 77
2, 15553, Control_c, 0, 64, 104
2, 15553, Note_on_c, 0, 40, 48
2, 15555, Note_on_c, 0, 45, 49
2, 15557, Control_c, 0, 64, 56
2, 15561, Control_c, 0, 64, 0
2, 15598, Control_c, 0, 64, 56
2, 15602, Control_c, 0, 64, 127
2, 15611, Note_on_c, 0, 60, 0
2, 15619, Note_on_c, 0, 69, 0
2, 15692, Note_on_c, 0, 63, 0
2, 15697, Note_on_c, 0, 45, 0
2, 15706, Note_on_c, 0, 68, 77
2, 15710, Note_on_c, 0, 47, 62
2, 15712, Note_on_c, 0, 59, 60
2, 15724, Note_on_c, 0, 59, 0
2, 15732, Note_on_c, 0, 68, 0
2, 15742, Note_on_c, 0, 47, 0
2, 15760, Note_on_c, 0, 66, 77
2, 15764, Note_on_c, 0, 57, 56
2, 15770, Note_on_c, 0, 48, 70
2, 15775, Control_c, 0, 64, 104
2, 15779, Control_c, 0, 64, 40
2, 15783, Control_c, 0, 64, 0
2, 15803, Note_on_c, 0, 57, 0
2, 15804, Note_on_c, 0, 48, 0
2, 15807, Control_c, 0, 64, 24
2, 15812, Control_c, 0, 64, 88
2, 15816, Control_c, 0, 64, 127
2, 15822, Note_on_c, 0, 40, 0
2, 15833, Note_on_c, 0, 66, 0
2, 15873, Note_on_c, 0, 56, 60
2, 15876, Note_on_c, 0, 64, 67
2, 15880, Note_on_c, 0, 47, 62
2, 15880, Note_on_c, 0, 40, 52
2, 15904, Control_c, 0, 64, 104
2, 15908, Control_c, 0, 64, 72
2, 15912, Control_c, 0, 64, 0
2, 15948, Control_c, 0, 64, 40
2, 15952, Control_c, 0, 64, 104
2, 15957, Control_c, 0, 64, 127
2, 15981, Note_on_c, 0, 56, 0
2, 15994, Note_on_c, 0, 64, 0
2, 16051, Note_on_c, 0, 47, 0
2, 16053, Control_c, 0, 64, 88
2, 16058, Control_c, 0, 64, 0
2, 16078, Control_c, 0, 64, 72
2, 16082, Control_c, 0, 64, 127
2, 16109, Note_on_c, 0, 64, 67
2, 16140, Note_on_c, 0, 64, 0
2, 16144, Note_on_c, 0, 40, 0
2, 16144, Note_on_c, 0, 68, 64
2, 16171, Note_on_c, 0, 68, 0
2, 16176, Note_on_c, 0, 71, 79
2, 16188, Note_on_c, 0, 71, 0
2, 16225, Note_on_c, 0, 61, 66
2, 16229, Note_on_c, 0, 70, 70
2, 16229, Note_on_c, 0, 67, 58
2, 16229, Note_on_c, 0, 64, 62
2, 16233, Note_on_c, 0, 40, 48
2, 16251, Control_c, 0, 64, 104
2, 16255, Control_c, 0, 64, 40
2, 16259, Control_c, 0, 64, 0
2, 16299, Control_c, 0, 64, 40
2, 16304, Control_c, 0, 64, 88
2, 16308, Control_c, 0, 64, 127
2, 16339, Note_on_c, 0, 64, 0
2, 16343, Note_on_c, 0, 61, 0
2, 16345, Note_on_c, 0, 70, 0
2, 16347, Note_on_c, 0, 67, 0
2, 16432, Note_on_c, 0, 64, 55
2, 16432, Note_on_c, 0, 59, 47
2, 16432, Note_on_c, 0, 68, 59
2, 16432, Note_on_c, 0, 71, 75
2, 16440, Control_c, 0, 64, 56
2, 16444, Control_c, 0, 64, 0
2, 16461, Control_c, 0, 64, 40
2, 16465, Control_c, 0, 64, 88
2, 16469, Control_c, 0, 64, 127
2, 16475, Note_on_c, 0, 71, 0
2, 16475, Note_on_c, 0, 64, 0
2, 16505, Note_on_c, 0, 68, 0
2, 16505, Note_on_c, 0, 59, 0
2, 16506, Note_on_c, 0, 40, 0
2, 16518, Note_on_c, 0, 66, 66
2, 16539, Note_on_c, 0, 68, 76
2, 16545, Note_on_c, 0, 66, 0
2, 16556, Note_on_c, 0, 63, 45
2, 16564, Note_on_c, 0, 68, 0
2, 16565, Note_on_c, 0, 69, 90
2, 16566, Note_on_c, 0, 60, 74
2, 16568, Note_on_c, 0, 45, 60
2, 16570, Control_c, 0, 64, 104
2, 16572, Note_on_c, 0, 40, 49
2, 16574, Control_c, 0, 64, 56
2, 16578, Control_c, 0, 64, 0
2, 16618, Control_c, 0, 64, 56
2, 16622, Note_on_c, 0, 69, 0
2, 16622, Control_c, 0, 64, 127
2, 16628, Note_on_c, 0, 60, 0
2, 16690, Note_on_c, 0, 63, 0
2, 16705, Note_on_c, 0, 68, 80
2, 16707, Note_on_c, 0, 45, 0
2, 16712, Note_on_c, 0, 59, 64
2, 16714, Note_on_c, 0, 47, 69
2, 16721, Note_on_c, 0, 59, 0
2, 16727, Note_on_c, 0, 47, 0
2, 16731, Note_on_c, 0, 68, 0
2, 16754, Note_on_c, 0, 66, 80
2, 16765, Note_on_c, 0, 48, 64
2, 16771, Control_c, 0, 64, 104
2, 16775, Control_c, 0, 64, 40
2, 16779, Control_c, 0, 64, 0
2, 16806, Note_on_c, 0, 48, 0
2, 16808, Control_c, 0, 64, 88
2, 16812, Control_c, 0, 64, 127
2, 16824, Note_on_c, 0, 40, 0
2, 16829, Note_on_c, 0, 66, 0
2, 16864, Note_on_c, 0, 64, 76
2, 16866, Note_on_c, 0, 56, 50
2, 16874, Note_on_c, 0, 47, 51
2, 16876, Note_on_c, 0, 40, 47
2, 16896, Control_c, 0, 64, 72
2, 16900, Control_c, 0, 64, 40
2, 16904, Control_c, 0, 64, 0
2, 16945, Control_c, 0, 64, 56
2, 16949, Control_c, 0, 64, 127
2, 16982, Note_on_c, 0, 56, 0
2, 16990, Note_on_c, 0, 64, 0
2, 16995, Note_on_c, 0, 40, 0
2, 17000, Note_on_c, 0, 47, 0
2, 17081, Control_c, 0, 64, 104
2, 17083, Note_on_c, 0, 68, 87
2, 17085, Control_c, 0, 64, 24
2, 17090, Control_c, 0, 64, 0
2, 17122, Control_c, 0, 64, 24
2, 17126, Control_c, 0, 64, 88
2, 17129, Control_c, 0, 64, 127
2, 17137, Note_on_c, 0, 68, 0
2, 17192, Note_on_c, 0, 68, 77
2, 17201, Note_on_c, 0, 64, 59
2, 17207, Note_on_c, 0, 52, 57
2, 17207, Note_on_c, 0, 59, 44
2, 17215, Control_c, 0, 64, 72
2, 17219, Control_c, 0, 64, 0
2, 17243, Control_c, 0, 64, 24
2, 17247, Control_c, 0, 64, 104
2, 17251, Control_c, 0, 64, 127
2, 17269, Note_on_c, 0, 64, 0
2, 17290, Note_on_c, 0, 52, 0
2, 17298, Note_on_c, 0, 59, 0
2, 17300, Note_on_c, 0, 68, 0
2, 17369, Note_on_c, 0, 68, 80
2, 17372, Note_on_c, 0, 64, 83
2, 17376, Note_on_c, 0, 52, 62
2, 17380, Note_on_c, 0, 59, 53
2, 17397, Note_on_c, 0, 64, 0
2, 17401, Note_on_c, 0, 52, 0
2, 17403, Note_on_c, 0, 59, 0
2, 17410, Note_on_c, 0, 68, 0
2, 17463, Note_on_c, 0, 68, 77
2, 17465, Note_on_c, 0, 64, 85
2, 17469, Note_on_c, 0, 52, 64
2, 17471, Note_on_c, 0, 59, 49
2, 17485, Control_c, 0, 64, 72
2, 17489, Control_c, 0, 64, 0
2, 17521, Control_c, 0, 64, 56
2, 17525, Control_c, 0, 64, 127
2, 17571, Note_on_c, 0, 52, 0
2, 17581, Note_on_c, 0, 64, 0
2, 17585, Note_on_c, 0, 68, 0
2, 17588, Note_on_c, 0, 59, 0
2, 17593, Note_on_c, 0, 63, 75
2, 17610, Note_on_c, 0, 63, 0
2, 17628, Note_on_c, 0, 68, 90
2, 17633, Note_on_c, 0, 62, 72
2, 17634, Control_c, 0, 64, 72
2, 17636, Note_on_c, 0, 56, 55
2, 17637, Note_on_c, 0, 52, 63
2, 17638, Control_c, 0, 64, 0
2, 17666, Control_c, 0, 64, 24
2, 17669, Note_on_c, 0, 62, 0
2, 17670, Note_on_c, 0, 52, 0
2, 17670, Control_c, 0, 64, 104
2, 17674, Control_c, 0, 64, 127
2, 17680, Note_on_c, 0, 56, 0
2, 17682, Note_on_c, 0, 68, 0
2, 17730, Note_on_c, 0, 68, 91
2, 17734, Note_on_c, 0, 63, 67
2, 17738, Note_on_c, 0, 51, 69
2, 17738, Note_on_c, 0, 58, 53
2, 17747, Control_c, 0, 64, 104
2, 17751, Control_c, 0, 64, 40
2, 17755, Control_c, 0, 64, 0
2, 17860, Control_c, 0, 64, 40
2, 17864, Control_c, 0, 64, 72
2, 17868, Control_c, 0, 64, 127
2, 17900, Control_c, 0, 64, 24
2, 17904, Control_c, 0, 64, 0
2, 17937, Control_c, 0, 64, 72
2, 17941, Control_c, 0, 64, 127
2, 17959, Note_on_c, 0, 63, 0
2, 18011, Note_on_c, 0, 67, 71
2, 18015, Note_on_c, 0, 68, 0
2, 18058, Control_c, 0, 64, 104
2, 18062, Control_c, 0, 64, 40
2, 18065, Control_c, 0, 64, 0
2, 18098, Control_c, 0, 64, 40
2, 18102, Control_c, 0, 64, 104
2, 18106, Control_c, 0, 64, 127
2, 18147, Note_on_c, 0, 68, 89
2, 18157, Note_on_c, 0, 67, 0
2, 18172, Note_on_c, 0, 51, 0
2, 18176, Note_on_c, 0, 58, 0
2, 18182, Note_on_c, 0, 68, 0
2, 18186, Note_on_c, 0, 70, 92
2, 18215, Note_on_c, 0, 70, 0
2, 18221, Note_on_c, 0, 72, 104
2, 18250, Note_on_c, 0, 72, 0
2, 18270, Note_on_c, 0, 73, 105
2, 18274, Note_on_c, 0, 68, 73
2, 18276, Note_on_c, 0, 65, 72
2, 18279, Control_c, 0, 64, 88
2, 18281, Note_on_c, 0, 51, 64
2, 18284, Control_c, 0, 64, 56
2, 18286, Note_on_c, 0, 61, 45
2, 18287, Note_on_c, 0, 56, 48
2, 18288, Control_c, 0, 64, 0
2, 18292, Note_on_c, 0, 53, 52
2, 18336, Control_c, 0, 64, 88
2, 18340, Control_c, 0, 64, 127
2, 18356, Note_on_c, 0, 61, 0
2, 18358, Note_on_c, 0, 56, 0
2, 18358, Note_on_c, 0, 53, 0
2, 18360, Note_on_c, 0, 65, 0
2, 18362, Note_on_c, 0, 68, 0
2, 18366, Note_on_c, 0, 51, 0
2, 18370, Note_on_c, 0, 73, 0
2, 18434, Note_on_c, 0, 73, 99
2, 18437, Note_on_c, 0, 68, 80
2, 18439, Note_on_c, 0, 65, 77
2, 18444, Note_on_c, 0, 61, 56
2, 18445, Note_on_c, 0, 56, 52
2, 18446, Note_on_c, 0, 51, 53
2, 18448, Note_on_c, 0, 65, 0
2, 18449, Note_on_c, 0, 53, 61
2, 18454, Note_on_c, 0, 68, 0
2, 18461, Note_on_c, 0, 53, 0
2, 18463, Note_on_c, 0, 56, 0
2, 18464, Note_on_c, 0, 73, 0
2, 18467, Note_on_c, 0, 51, 0
2, 18467, Note_on_c, 0, 61, 0
2, 18513, Control_c, 0, 64, 88
2, 18517, Control_c, 0, 64, 24
2, 18521, Control_c, 0, 64, 0
2, 18526, Note_on_c, 0, 75, 97
2, 18532, Note_on_c, 0, 67, 73
2, 18532, Note_on_c, 0, 58, 56
2, 18533, Note_on_c, 0, 63, 52
2, 18534, Note_on_c, 0, 51, 56
2, 18534, Note_on_c, 0, 55, 67
2, 18556, Note_on_c, 0, 73, 89
2, 18557, Note_on_c, 0, 75, 0
2, 18578, Note_on_c, 0, 73, 0
2, 18579, Note_on_c, 0, 72, 97
2, 18600, Note_on_c, 0, 73, 91
2, 18608, Note_on_c, 0, 72, 0
2, 18626, Note_on_c, 0, 75, 98
2, 18630, Note_on_c, 0, 73, 0
2, 18662, Control_c, 0, 64, 40
2, 18666, Note_on_c, 0, 67, 0
2, 18667, Control_c, 0, 64, 88
2, 18671, Control_c, 0, 64, 127
2, 18672, Note_on_c, 0, 58, 0
2, 18674, Note_on_c, 0, 51, 0
2, 18675, Note_on_c, 0, 55, 0
2, 18679, Note_on_c, 0, 63, 0
2, 18695, Note_on_c, 0, 75, 0
2, 18709, Note_on_c, 0, 70, 94
2, 18714, Note_on_c, 0, 67, 71
2, 18716, Note_on_c, 0, 51, 73
2, 18716, Note_on_c, 0, 63, 57
2, 18737, Note_on_c, 0, 67, 0
2, 18741, Note_on_c, 0, 63, 0
2, 18741, Note_on_c, 0, 51, 0
2, 18752, Note_on_c, 0, 70, 0
2, 18811, Note_on_c, 0, 73, 92
2, 18815, Note_on_c, 0, 70, 64
2, 18819, Note_on_c, 0, 63, 57
2, 18820, Note_on_c, 0, 56, 57
2, 18820, Note_on_c, 0, 67, 57
2, 18828, Control_c, 0, 64, 104
2, 18832, Control_c, 0, 64, 56
2, 18836, Control_c, 0, 64, 0
2, 18917, Control_c, 0, 64, 56
2, 18921, Control_c, 0, 64, 104
2, 18925, Control_c, 0, 64, 127
2, 18968, Note_on_c, 0, 67, 0
2, 19020, Note_on_c, 0, 70, 0
2, 19054, Note_on_c, 0, 73, 0
2, 19080, Note_on_c, 0, 72, 66
2, 19086, Note_on_c, 0, 68, 50
2, 19105, Control_c, 0, 64, 104
2, 19110, Control_c, 0, 64, 56
2, 19114, Control_c, 0, 64, 0
2, 19158, Control_c, 0, 64, 40
2, 19163, Control_c, 0, 64, 104
2, 19167, Control_c, 0, 64, 127
2, 19171, Note_on_c, 0, 56, 0
2, 19174, Note_on_c, 0, 63, 0
2, 19176, Note_on_c, 0, 68, 0
2, 19177, Note_on_c, 0, 72, 0
2, 19264, Note_on_c, 0, 77, 108
2, 19267, Note_on_c, 0, 68, 66
2, 19268, Control_c, 0, 64, 88
2, 19270, Note_on_c, 0, 72, 83
2, 19270, Note_on_c, 0, 56, 56
2, 19272, Control_c, 0, 64, 0
2, 19274, Note_on_c, 0, 60, 72
2, 19274, Note_on_c, 0, 65, 61
2, 19292, Note_on_c, 0, 56, 0
2, 19293, Note_on_c, 0, 60, 0
2, 19293, Note_on_c, 0, 65, 0
2, 19295, Control_c, 0, 64, 40
2, 19299, Note_on_c, 0, 72, 0
2, 19299, Control_c, 0, 64, 127
2, 19303, Note_on_c, 0, 68, 0
2, 19303, Note_on_c, 0, 77, 0
2, 19380, Note_on_c, 0, 77, 114
2, 19382, Note_on_c, 0, 68, 75
2, 19385, Note_on_c, 0, 72, 90
2, 19386, Note_on_c, 0, 56, 60
2, 19386, Note_on_c, 0, 65, 64
2, 19387, Note_on_c, 0, 60, 68
2, 19396, Control_c, 0, 64, 72
2, 19400, Control_c, 0, 64, 0
2, 19425, Control_c, 0, 64, 40
2, 19429, Control_c, 0, 64, 127
2, 19438, Note_on_c, 0, 65, 0
2, 19442, Note_on_c, 0, 56, 0
2, 19446, Note_on_c, 0, 60, 0
2, 19449, Note_on_c, 0, 72, 0
2, 19462, Note_on_c, 0, 68, 0
2, 19466, Note_on_c, 0, 77, 0
2, 19563, Note_on_c, 0, 77, 117
2, 19567, Note_on_c, 0, 68, 70
2, 19569, Note_on_c, 0, 72, 86
2, 19570, Note_on_c, 0, 65, 68
2, 19570, Control_c, 0, 64, 56
2, 19572, Note_on_c, 0, 60, 73
2, 19572, Note_on_c, 0, 56, 62
2, 19574, Control_c, 0, 64, 0
2, 19590, Note_on_c, 0, 65, 0
2, 19590, Control_c, 0, 64, 56
2, 19591, Note_on_c, 0, 60, 0
2, 19591, Note_on_c, 0, 56, 0
2, 19594, Control_c, 0, 64, 127
2, 19597, Note_on_c, 0, 72, 0
2, 19601, Note_on_c, 0, 68, 0
2, 19610, Note_on_c, 0, 77, 0
2, 19687, Note_on_c, 0, 80, 111
2, 19689, Note_on_c, 0, 68, 75
2, 19693, Note_on_c, 0, 72, 90
2, 19698, Note_on_c, 0, 60, 72
2, 19700, Note_on_c, 0, 56, 60
2, 19715, Control_c, 0, 64, 104
2, 19719, Control_c, 0, 64, 24
2, 19723, Control_c, 0, 64, 0
2, 19743, Control_c, 0, 64, 56
2, 19747, Control_c, 0, 64, 127
2, 19768, Note_on_c, 0, 80, 0
2, 19830, Note_on_c, 0, 72, 0
2, 19836, Note_on_c, 0, 68, 0
2, 19840, Note_on_c, 0, 79, 110
2, 19847, Note_on_c, 0, 67, 78
2, 19860, Note_on_c, 0, 67, 0
2, 19861, Note_on_c, 0, 56, 0
2, 19863, Note_on_c, 0, 79, 0
2, 19865, Note_on_c, 0, 60, 0
2, 19900, Note_on_c, 0, 77, 114
2, 19904, Note_on_c, 0, 72, 91
2, 19904, Note_on_c, 0, 68, 67
2, 19905, Note_on_c, 0, 56, 68
2, 19906, Note_on_c, 0, 60, 73
2, 19906, Note_on_c, 0, 65, 73
2, 19909, Control_c, 0, 64, 72
2, 19913, Control_c, 0, 64, 0
2, 19940, Control_c, 0, 64, 72
2, 19944, Note_on_c, 0, 60, 0
2, 19945, Control_c, 0, 64, 127
2, 19948, Note_on_c, 0, 65, 0
2, 19949, Note_on_c, 0, 56, 0
2, 19954, Note_on_c, 0, 72, 0
2, 19958, Note_on_c, 0, 68, 0
2, 19959, Note_on_c, 0, 77, 0
2, 20040, Note_on_c, 0, 77, 105
2, 20042, Note_on_c, 0, 67, 85
2, 20043, Note_on_c, 0, 73, 76
2, 20043, Note_on_c, 0, 70, 72
2, 20048, Note_on_c, 0, 58, 53
2, 20048, Note_on_c, 0, 61, 54
2, 20049, Note_on_c, 0, 65, 58
2, 20051, Note_on_c, 0, 55, 70
2, 20062, Control_c, 0, 64, 104
2, 20066, Control_c, 0, 64, 56
2, 20070, Control_c, 0, 64, 0
2, 20175, Control_c, 0, 64, 56
2, 20178, Control_c, 0, 64, 104
2, 20182, Control_c, 0, 64, 127
2, 20360, Note_on_c, 0, 77, 0
2, 20392, Note_on_c, 0, 65, 0
2, 20450, Note_on_c, 0, 76, 86
2, 20459, Note_on_c, 0, 64, 56
2, 20461, Control_c, 0, 64, 104
2, 20465, Control_c, 0, 64, 40
2, 20469, Control_c, 0, 64, 0
2, 20489, Control_c, 0, 64, 72
2, 20493, Note_on_c, 0, 61, 0
2, 20494, Note_on_c, 0, 64, 0
2, 20494, Note_on_c, 0, 73, 0
2, 20494, Control_c, 0, 64, 127
2, 20498, Note_on_c, 0, 55, 0
2, 20506, Note_on_c, 0, 58, 0
2, 20512, Note_on_c, 0, 70, 0
2, 20515, Note_on_c, 0, 67, 0
2, 20518, Note_on_c, 0, 76, 0
2, 20550, Note_on_c, 0, 75, 76
2, 20553, Note_on_c, 0, 63, 52
2, 20554, Note_on_c, 0, 70, 47
2, 20554, Note_on_c, 0, 55, 59
2, 20581, Control_c, 0, 64, 72
2, 20585, Control_c, 0, 64, 0
2, 20614, Control_c, 0, 64, 56
2, 20618, Control_c, 0, 64, 127
2, 20661, Note_on_c, 0, 63, 0
2, 20669, Note_on_c, 0, 75, 0
2, 20728, Note_on_c, 0, 74, 68
2, 20731, Control_c, 0, 64, 104
2, 20735, Control_c, 0, 64, 56
2, 20736, Note_on_c, 0, 62, 51
2, 20739, Control_c, 0, 64, 0
2, 20756, Control_c, 0, 64, 24
2, 20760, Control_c, 0, 64, 72
2, 20764, Control_c, 0, 64, 127
2, 20791, Note_on_c, 0, 74, 0
2, 20808, Note_on_c, 0, 62, 0
2, 20832, Note_on_c, 0, 73, 58
2, 20839, Note_on_c, 0, 61, 43
2, 20856, Control_c, 0, 64, 72
2, 20860, Control_c, 0, 64, 24
2, 20864, Control_c, 0, 64, 0
2, 20905, Control_c, 0, 64, 24
2, 20909, Control_c, 0, 64, 88
2, 20913, Control_c, 0, 64, 127
2, 20932, Note_on_c, 0, 55, 0
2, 20940, Note_on_c, 0, 70, 0
2, 20942, Note_on_c, 0, 73, 0
2, 20944, Note_on_c, 0, 61, 0
2, 21047, Note_on_c, 0, 72, 85
2, 21050, Control_c, 0, 64, 56
2, 21052, Note_on_c, 0, 68, 63
2, 21052, Note_on_c, 0, 63, 57
2, 21054, Note_on_c, 0, 56, 63
2, 21054, Control_c, 0, 64, 0
2, 21078, Control_c, 0, 64, 40
2, 21080, Note_on_c, 0, 56, 0
2, 21082, Note_on_c, 0, 63, 0
2, 21082, Control_c, 0, 64, 104
2, 21085, Note_on_c, 0, 68, 0
2, 21086, Control_c, 0, 64, 127
2, 21156, Note_on_c, 0, 68, 60
2, 21158, Note_on_c, 0, 61, 63
2, 21159, Note_on_c, 0, 65, 59
2, 21167, Control_c, 0, 64, 72
2, 21171, Control_c, 0, 64, 0
2, 21207, Control_c, 0, 64, 40
2, 21211, Control_c, 0, 64, 104
2, 21215, Control_c, 0, 64, 127
2, 21247, Note_on_c, 0, 72, 0
2, 21399, Note_on_c, 0, 70, 63
2, 21429, Control_c, 0, 64, 104
2, 21433, Control_c, 0, 64, 56
2, 21436, Control_c, 0, 64, 0
2, 21473, Control_c, 0, 64, 56
2, 21477, Note_on_c, 0, 65, 0
2, 21477, Control_c, 0, 64, 127
2, 21478, Note_on_c, 0, 68, 0
2, 21491, Note_on_c, 0, 61, 0
2, 21491, Note_on_c, 0, 70, 0
2, 21576, Note_on_c, 0, 77, 105
2, 21580, Note_on_c, 0, 67, 66
2, 21581, Note_on_c, 0, 70, 74
2, 21584, Note_on_c, 0, 61, 57
2, 21584, Note_on_c, 0, 65, 62
2, 21585, Control_c, 0, 64, 72
2, 21590, Control_c, 0, 64, 24
2, 21594, Control_c, 0, 64, 0
2, 21598, Control_c, 0, 64, 24
2, 21602, Control_c, 0, 64, 56
2, 21606, Control_c, 0, 64, 104
2, 21610, Control_c, 0, 64, 127
2, 21624, Note_on_c, 0, 67, 0
2, 21626, Note_on_c, 0, 65, 0
2, 21627, Note_on_c, 0, 70, 0
2, 21642, Note_on_c, 0, 61, 0
2, 21681, Note_on_c, 0, 65, 68
2, 21682, Note_on_c, 0, 68, 56
2, 21684, Note_on_c, 0, 72, 79
2, 21686, Note_on_c, 0, 60, 71
2, 21711, Control_c, 0, 64, 56
2, 21715, Control_c, 0, 64, 0
2, 21752, Control_c, 0, 64, 40
2, 21756, Control_c, 0, 64, 104
2, 21760, Control_c, 0, 64, 127
2, 21950, Note_on_c, 0, 77, 0
2, 21956, Note_on_c, 0, 65, 0
2, 21958, Note_on_c, 0, 75, 72
2, 21963, Note_on_c, 0, 63, 58
2, 21977, Control_c, 0, 64, 88
2, 21981, Control_c, 0, 64, 24
2, 21985, Control_c, 0, 64, 0
2, 22022, Control_c, 0, 64, 72
2, 22025, Note_on_c, 0, 72, 0
2, 22026, Control_c, 0, 64, 127
2, 22031, Note_on_c, 0, 75, 0
2, 22035, Note_on_c, 0, 60, 0
2, 22036, Note_on_c, 0, 68, 0
2, 22037, Note_on_c, 0, 63, 0
2, 22126, Note_on_c, 0, 63, 88
2, 22130, Note_on_c, 0, 60, 74
2, 22130, Note_on_c, 0, 56, 67
2, 22130, Control_c, 0, 64, 72
2, 22134, Control_c, 0, 64, 0
2, 22146, Note_on_c, 0, 60, 0
2, 22159, Control_c, 0, 64, 72
2, 22163, Control_c, 0, 64, 127
2, 22171, Note_on_c, 0, 68, 85
2, 22175, Note_on_c, 0, 51, 67
2, 22182, Note_on_c, 0, 63, 0
2, 22211, Note_on_c, 0, 68, 0
2, 22212, Note_on_c, 0, 51, 0
2, 22212, Note_on_c, 0, 72, 106
2, 22215, Note_on_c, 0, 56, 0
2, 22218, Note_on_c, 0, 48, 58
2, 22227, Note_on_c, 0, 48, 0
2, 22232, Note_on_c, 0, 72, 0
2, 22274, Note_on_c, 0, 73, 96
2, 22279, Note_on_c, 0, 67, 77
2, 22279, Note_on_c, 0, 63, 71
2, 22279, Note_on_c, 0, 61, 66
2, 22283, Note_on_c, 0, 51, 55
2, 22287, Note_on_c, 0, 46, 56
2, 22289, Note_on_c, 0, 55, 56
2, 22292, Control_c, 0, 64, 88
2, 22296, Control_c, 0, 64, 24
2, 22300, Control_c, 0, 64, 0
2, 22340, Control_c, 0, 64, 40
2, 22344, Control_c, 0, 64, 104
2, 22348, Control_c, 0, 64, 127
2, 22355, Note_on_c, 0, 55, 0
2, 22363, Note_on_c, 0, 51, 0
2, 22364, Note_on_c, 0, 46, 0
2, 22366, Note_on_c, 0, 67, 0
2, 22367, Note_on_c, 0, 63, 0
2, 22373, Note_on_c, 0, 73, 0
2, 22374, Note_on_c, 0, 61, 0
2, 22445, Control_c, 0, 64, 88
2, 22446, Note_on_c, 0, 72, 102
2, 22449, Note_on_c, 0, 68, 72
2, 22449, Control_c, 0, 64, 24
2, 22449, Note_on_c, 0, 60, 68
2, 22451, Note_on_c, 0, 44, 73
2, 22451, Note_on_c, 0, 56, 65
2, 22451, Note_on_c, 0, 63, 70
2, 22452, Note_on_c, 0, 51, 68
2, 22453, Control_c, 0, 64, 0
2, 22469, Control_c, 0, 64, 72
2, 22474, Control_c, 0, 64, 127
2, 22478, Note_on_c, 0, 51, 0
2, 22478, Note_on_c, 0, 72, 0
2, 22480, Note_on_c, 0, 56, 0
2, 22480, Note_on_c, 0, 44, 0
2, 22484, Note_on_c, 0, 60, 0
2, 22486, Note_on_c, 0, 68, 0
2, 22498, Note_on_c, 0, 63, 0
2, 22542, Note_on_c, 0, 70, 99
2, 22544, Note_on_c, 0, 58, 77
2, 22546, Note_on_c, 0, 63, 81
2, 22550, Note_on_c, 0, 55, 77
2, 22551, Note_on_c, 0, 51, 66
2, 22552, Note_on_c, 0, 43, 74
2, 22557, Control_c, 0, 64, 40
2, 22562, Control_c, 0, 64, 0
2, 22590, Control_c, 0, 64, 72
2, 22594, Control_c, 0, 64, 127
2, 22598, Note_on_c, 0, 43, 0
2, 22598, Note_on_c, 0, 55, 0
2, 22606, Note_on_c, 0, 63, 0
2, 22609, Note_on_c, 0, 51, 0
2, 22611, Note_on_c, 0, 58, 0
2, 22617, Note_on_c, 0, 70, 0
2, 22714, Note_on_c, 0, 74, 106
2, 22715, Note_on_c, 0, 62, 92
2, 22716, Note_on_c, 0, 53, 78
2, 22717, Note_on_c, 0, 70, 82
2, 22717, Note_on_c, 0, 68, 78
2, 22717, Note_on_c, 0, 41, 75
2, 22718, Note_on_c, 0, 46, 69
2, 22720, Control_c, 0, 64, 72
2, 22724, Control_c, 0, 64, 0
2, 22742, Note_on_c, 0, 53, 0
2, 22743, Note_on_c, 0, 41, 0
2, 22743, Control_c, 0, 64, 40
2, 22748, Control_c, 0, 64, 127
2, 22751, Note_on_c, 0, 62, 0
2, 22752, Note_on_c, 0, 46, 0
2, 22753, Note_on_c, 0, 68, 0
2, 22753, Note_on_c, 0, 70, 0
2, 22760, Note_on_c, 0, 74, 0
2, 22828, Note_on_c, 0, 74, 103
2, 22830, Note_on_c, 0, 70, 81
2, 22831, Note_on_c, 0, 62, 78
2, 22832, Note_on_c, 0, 68, 76
2, 22832, Note_on_c, 0, 51, 74
2, 22832, Note_on_c, 0, 39, 70
2, 22835, Note_on_c, 0, 46, 68
2, 22848, Control_c, 0, 64, 104
2, 22852, Control_c, 0, 64, 24
2, 22857, Control_c, 0, 64, 0
2, 22921, Control_c, 0, 64, 24
2, 22925, Control_c, 0, 64, 88
2, 22929, Control_c, 0, 64, 127
2, 23009, Note_on_c, 0, 74, 0
2, 23024, Note_on_c, 0, 68, 0
2, 23034, Note_on_c, 0, 62, 0
2, 23135, Note_on_c, 0, 75, 76
2, 23139, Note_on_c, 0, 63, 53
2, 23141, Note_on_c, 0, 67, 59
2, 23147, Note_on_c, 0, 70, 0
2, 23167, Control_c, 0, 64, 72
2, 23171, Control_c, 0, 64, 24
2, 23175, Control_c, 0, 64, 0
2, 23220, Control_c, 0, 64, 56
2, 23224, Control_c, 0, 64, 127
2, 23228, Note_on_c, 0, 75, 0
2, 23230, Note_on_c, 0, 51, 0
2, 23232, Note_on_c, 0, 39, 0
2, 23233, Note_on_c, 0, 67, 0
2, 23235, Note_on_c, 0, 46, 0
2, 23247, Note_on_c, 0, 63, 0
2, 23326, Note_on_c, 0, 72, 110
2, 23329, Note_on_c, 0, 63, 84
2, 23330, Note_on_c, 0, 44, 85
2, 23330, Note_on_c, 0, 32, 82
2, 23332, Note_on_c, 0, 68, 83
2, 23332, Control_c, 0, 64, 72
2, 23336, Control_c, 0, 64, 0
2, 23348, Note_on_c, 0, 32, 0
2, 23350, Note_on_c, 0, 44, 0
2, 23361, Control_c, 0, 64, 24
2, 23365, Note_on_c, 0, 68, 0
2, 23365, Control_c, 0, 64, 104
2, 23369, Control_c, 0, 64, 127
2, 23370, Note_on_c, 0, 63, 0
2, 23370, Note_on_c, 0, 72, 0
2, 23444, Note_on_c, 0, 72, 106
2, 23447, Note_on_c, 0, 68, 82
2, 23449, Note_on_c, 0, 64, 79
2, 23450, Note_on_c, 0, 49, 70
2, 23452, Note_on_c, 0, 37, 73
2, 23474, Control_c, 0, 64, 104
2, 23478, Control_c, 0, 64, 24
2, 23482, Control_c, 0, 64, 0
2, 23510, Control_c, 0, 64, 88
2, 23514, Control_c, 0, 64, 127
2, 23651, Note_on_c, 0, 72, 0
2, 23693, Note_on_c, 0, 71, 86
2, 23724, Note_on_c, 0, 71, 0
2, 23733, Note_on_c, 0, 70, 78
2, 23768, Control_c, 0, 64, 40
2, 23772, Control_c, 0, 64, 0
2, 23804, Control_c, 0, 64, 88
2, 23808, Control_c, 0, 64, 127
2, 23824, Note_on_c, 0, 37, 0
2, 23826, Note_on_c, 0, 49, 0
2, 23828, Note_on_c, 0, 68, 0
2, 23828, Note_on_c, 0, 64, 0
2, 23838, Note_on_c, 0, 70, 0
2, 23915, Note_on_c, 0, 72, 90
2, 23917, Control_c, 0, 64, 56
2, 23919, Note_on_c, 0, 63, 80
2, 23919, Note_on_c, 0, 68, 81
2, 23921, Control_c, 0, 64, 0
2, 23921, Note_on_c, 0, 44, 78
2, 23922, Note_on_c, 0, 32, 75
2, 23940, Note_on_c, 0, 32, 0
2, 23943, Note_on_c, 0, 44, 0
2, 23946, Control_c, 0, 64, 56
2, 23950, Control_c, 0, 64, 127
2, 23956, Note_on_c, 0, 63, 0
2, 23958, Note_on_c, 0, 72, 0
2, 23960, Note_on_c, 0, 68, 0
2, 24032, Note_on_c, 0, 72, 90
2, 24036, Note_on_c, 0, 68, 85
2, 24038, Note_on_c, 0, 64, 85
2, 24039, Note_on_c, 0, 49, 71
2, 24041, Note_on_c, 0, 37, 68
2, 24054, Control_c, 0, 64, 56
2, 24058, Control_c, 0, 64, 0
2, 24099, Control_c, 0, 64, 88
2, 24103, Control_c, 0, 64, 127
2, 24245, Note_on_c, 0, 72, 0
2, 24286, Note_on_c, 0, 71, 80
2, 24322, Note_on_c, 0, 71, 0
2, 24336, Note_on_c, 0, 70, 67
2, 24345, Control_c, 0, 64, 72
2, 24349, Control_c, 0, 64, 0
2, 24437, Control_c, 0, 64, 40
2, 24441, Control_c, 0, 64, 72
2, 24446, Note_on_c, 0, 70, 0
2, 24446, Note_on_c, 0, 64, 0
2, 24446, Control_c, 0, 64, 127
2, 24452, Note_on_c, 0, 37, 0
2, 24453, Note_on_c, 0, 68, 0
2, 24456, Note_on_c, 0, 49, 0
2, 24528, Note_on_c, 0, 71, 94
2, 24530, Note_on_c, 0, 68, 74
2, 24532, Note_on_c, 0, 64, 75
2, 24536, Note_on_c, 0, 50, 71
2, 24539, Note_on_c, 0, 38, 63
2, 24566, Control_c, 0, 64, 72
2, 24570, Control_c, 0, 64, 0
2, 24607, Control_c, 0, 64, 72
2, 24611, Control_c, 0, 64, 127
2, 24655, Note_on_c, 0, 68, 0
2, 24659, Note_on_c, 0, 71, 0
2, 24659, Note_on_c, 0, 64, 0
2, 24665, Note_on_c, 0, 50, 0
2, 24669, Note_on_c, 0, 38, 0
2, 24764, Note_on_c, 0, 71, 93
2, 24766, Note_on_c, 0, 68, 71
2, 24770, Note_on_c, 0, 50, 77
2, 24770, Note_on_c, 0, 64, 72
2, 24771, Note_on_c, 0, 38, 71
2, 24803, Note_on_c, 0, 38, 0
2, 24806, Note_on_c, 0, 50, 0
2, 24808, Note_on_c, 0, 64, 0
2, 24816, Note_on_c, 0, 71, 0
2, 24820, Note_on_c, 0, 68, 0
2, 24861, Note_on_c, 0, 71, 105
2, 24865, Note_on_c, 0, 68, 74
2, 24866, Note_on_c, 0, 64, 81
2, 24867, Note_on_c, 0, 50, 78
2, 24868, Note_on_c, 0, 38, 74
2, 24893, Note_on_c, 0, 50, 0
2, 24895, Note_on_c, 0, 38, 0
2, 24900, Note_on_c, 0, 64, 0
2, 24907, Note_on_c, 0, 68, 0
2, 24910, Note_on_c, 0, 71, 0
2, 24948, Note_on_c, 0, 71, 106
2, 24952, Note_on_c, 0, 68, 82
2, 24953, Note_on_c, 0, 64, 84
2, 24956, Note_on_c, 0, 50, 84
2, 24958, Note_on_c, 0, 38, 81
2, 24982, Note_on_c, 0, 38, 0
2, 24982, Note_on_c, 0, 50, 0
2, 24986, Note_on_c, 0, 71, 0
2, 24993, Note_on_c, 0, 68, 0
2, 24996, Note_on_c, 0, 64, 0
2, 25044, Note_on_c, 0, 73, 106
2, 25047, Note_on_c, 0, 69, 90
2, 25048, Note_on_c, 0, 64, 84
2, 25050, Note_on_c, 0, 49, 78
2, 25050, Note_on_c, 0, 37, 76
2, 25051, Control_c, 0, 64, 40
2, 25054, Control_c, 0, 64, 0
2, 25083, Note_on_c, 0, 49, 0
2, 25083, Control_c, 0, 64, 104
2, 25085, Note_on_c, 0, 69, 0
2, 25087, Control_c, 0, 64, 127
2, 25088, Note_on_c, 0, 37, 0
2, 25093, Note_on_c, 0, 64, 0
2, 25098, Note_on_c, 0, 73, 0
2, 25136, Note_on_c, 0, 74, 114
2, 25141, Note_on_c, 0, 64, 88
2, 25141, Note_on_c, 0, 71, 86
2, 25147, Note_on_c, 0, 47, 80
2, 25147, Control_c, 0, 64, 88
2, 25149, Note_on_c, 0, 35, 71
2, 25151, Control_c, 0, 64, 24
2, 25155, Control_c, 0, 64, 0
2, 25172, Control_c, 0, 64, 40
2, 25176, Control_c, 0, 64, 127
2, 25178, Note_on_c, 0, 47, 0
2, 25178, Note_on_c, 0, 71, 0
2, 25182, Note_on_c, 0, 64, 0
2, 25184, Note_on_c, 0, 74, 0
2, 25184, Note_on_c, 0, 35, 0
2, 25234, Note_on_c, 0, 76, 113
2, 25238, Note_on_c, 0, 73, 87
2, 25238, Note_on_c, 0, 64, 86
2, 25242, Note_on_c, 0, 45, 75
2, 25244, Note_on_c, 0, 33, 60
2, 25244, Control_c, 0, 64, 40
2, 25248, Control_c, 0, 64, 0
2, 25268, Control_c, 0, 64, 88
2, 25272, Control_c, 0, 64, 127
2, 25273, Note_on_c, 0, 33, 0
2, 25274, Note_on_c, 0, 45, 0
2, 25279, Note_on_c, 0, 73, 0
2, 25281, Note_on_c, 0, 76, 0
2, 25295, Note_on_c, 0, 64, 0
2, 25331, Note_on_c, 0, 74, 102
2, 25332, Note_on_c, 0, 71, 84
2, 25335, Note_on_c, 0, 64, 76
2, 25337, Control_c, 0, 64, 88
2, 25340, Note_on_c, 0, 47, 71
2, 25341, Control_c, 0, 64, 0
2, 25341, Note_on_c, 0, 35, 69
2, 25369, Control_c, 0, 64, 56
2, 25372, Note_on_c, 0, 35, 0
2, 25373, Note_on_c, 0, 47, 0
2, 25373, Control_c, 0, 64, 127
2, 25377, Note_on_c, 0, 71, 0
2, 25389, Note_on_c, 0, 64, 0
2, 25396, Note_on_c, 0, 74, 0
2, 25440, Note_on_c, 0, 73, 90
2, 25442, Note_on_c, 0, 69, 82
2, 25446, Note_on_c, 0, 64, 67
2, 25446, Note_on_c, 0, 37, 58
2, 25449, Note_on_c, 0, 49, 50
2, 25462, Control_c, 0, 64, 72
2, 25466, Control_c, 0, 64, 0
2, 25490, Note_on_c, 0, 69, 0
2, 25498, Note_on_c, 0, 73, 0
2, 25498, Control_c, 0, 64, 72
2, 25499, Note_on_c, 0, 37, 0
2, 25499, Note_on_c, 0, 64, 0
2, 25502, Note_on_c, 0, 49, 0
2, 25502, Control_c, 0, 64, 127
2, 25575, Note_on_c, 0, 71, 88
2, 25577, Note_on_c, 0, 63, 64
2, 25578, Note_on_c, 0, 68, 68
2, 25582, Note_on_c, 0, 39, 54
2, 25582, Note_on_c, 0, 51, 54
2, 25591, Control_c, 0, 64, 104
2, 25594, Control_c, 0, 64, 56
2, 25599, Control_c, 0, 64, 0
2, 25668, Control_c, 0, 64, 104
2, 25672, Control_c, 0, 64, 127
2, 25743, Note_on_c, 0, 68, 0
2, 25818, Note_on_c, 0, 71, 0
2, 25880, Note_on_c, 0, 70, 67
2, 25889, Note_on_c, 0, 67, 44
2, 25918, Control_c, 0, 64, 72
2, 25922, Control_c, 0, 64, 0
2, 25970, Control_c, 0, 64, 40
2, 25974, Control_c, 0, 64, 104
2, 25978, Control_c, 0, 64, 127
2, 25988, Note_on_c, 0, 67, 0
2, 25988, Note_on_c, 0, 63, 0
2, 25992, Note_on_c, 0, 70, 0
2, 26007, Note_on_c, 0, 39, 0
2, 26015, Note_on_c, 0, 51, 0
2, 26108, Note_on_c, 0, 59, 79
2, 26114, Note_on_c, 0, 56, 64
2, 26122, Note_on_c, 0, 52, 54
2, 26123, Note_on_c, 0, 50, 52
2, 26123, Control_c, 0, 64, 104
2, 26127, Control_c, 0, 64, 40
2, 26131, Control_c, 0, 64, 0
2, 26195, Control_c, 0, 64, 72
2, 26199, Control_c, 0, 64, 127
2, 26234, Note_on_c, 0, 56, 0
2, 26239, Note_on_c, 0, 59, 0
2, 26253, Note_on_c, 0, 50, 0
2, 26255, Note_on_c, 0, 52, 0
2, 26323, Note_on_c, 0, 59, 66
2, 26328, Note_on_c, 0, 56, 48
2, 26331, Note_on_c, 0, 50, 54
2, 26333, Note_on_c, 0, 52, 54
2, 26369, Note_on_c, 0, 50, 0
2, 26372, Note_on_c, 0, 52, 0
2, 26373, Note_on_c, 0, 56, 0
2, 26374, Note_on_c, 0, 59, 0
2, 26423, Note_on_c, 0, 59, 86
2, 26425, Note_on_c, 0, 56, 58
2, 26428, Note_on_c, 0, 50, 73
2, 26431, Note_on_c, 0, 52, 58
2, 26461, Note_on_c, 0, 52, 0
2, 26463, Note_on_c, 0, 50, 0
2, 26465, Note_on_c, 0, 56, 0
2, 26470, Note_on_c, 0, 59, 0
2, 26514, Note_on_c, 0, 59, 92
2, 26514, Note_on_c, 0, 56, 72
2, 26518, Note_on_c, 0, 50, 64
2, 26521, Note_on_c, 0, 52, 63
2, 26542, Note_on_c, 0, 56, 0
2, 26543, Note_on_c, 0, 52, 0
2, 26555, Note_on_c, 0, 59, 0
2, 26559, Note_on_c, 0, 50, 0
2, 26602, Note_on_c, 0, 61, 93
2, 26606, Note_on_c, 0, 57, 75
2, 26608, Note_on_c, 0, 49, 65
2, 26611, Note_on_c, 0, 52, 64
2, 26611, Control_c, 0, 64, 40
2, 26615, Control_c, 0, 64, 0
2, 26632, Note_on_c, 0, 57, 0
2, 26640, Control_c, 0, 64, 24
2, 26644, Control_c, 0, 64, 88
2, 26648, Note_on_c, 0, 52, 0
2, 26648, Control_c, 0, 64, 127
2, 26653, Note_on_c, 0, 49, 0
2, 26658, Note_on_c, 0, 61, 0
2, 26688, Note_on_c, 0, 62, 94
2, 26692, Control_c, 0, 64, 40
2, 26693, Note_on_c, 0, 59, 74
2, 26696, Note_on_c, 0, 52, 66
2, 26696, Control_c, 0, 64, 0
2, 26698, Note_on_c, 0, 47, 72
2, 26716, Control_c, 0, 64, 24
2, 26720, Control_c, 0, 64, 72
2, 26723, Note_on_c, 0, 47, 0
2, 26723, Control_c, 0, 64, 127
2, 26728, Note_on_c, 0, 52, 0
2, 26729, Note_on_c, 0, 59, 0
2, 26740, Note_on_c, 0, 62, 0
2, 26764, Note_on_c, 0, 66, 76
2, 26776, Control_c, 0, 64, 88
2, 26780, Note_on_c, 0, 61, 55
2, 26781, Control_c, 0, 64, 40
2, 26783, Note_on_c, 0, 64, 97
2, 26785, Control_c, 0, 64, 0
2, 26789, Note_on_c, 0, 66, 0
2, 26792, Note_on_c, 0, 45, 69
2, 26794, Note_on_c, 0, 52, 51
2, 26829, Control_c, 0, 64, 56
2, 26833, Control_c, 0, 64, 127
2, 26834, Note_on_c, 0, 52, 0
2, 26837, Note_on_c, 0, 45, 0
2, 26842, Note_on_c, 0, 61, 0
2, 26852, Note_on_c, 0, 64, 0
2, 26873, Note_on_c, 0, 62, 91
2, 26879, Note_on_c, 0, 59, 67
2, 26882, Control_c, 0, 64, 104
2, 26883, Note_on_c, 0, 52, 61
2, 26883, Note_on_c, 0, 47, 64
2, 26886, Control_c, 0, 64, 24
2, 26890, Control_c, 0, 64, 0
2, 26913, Control_c, 0, 64, 72
2, 26917, Control_c, 0, 64, 127
2, 26920, Note_on_c, 0, 47, 0
2, 26920, Note_on_c, 0, 52, 0
2, 26920, Note_on_c, 0, 59, 0
2, 26922, Note_on_c, 0, 62, 0
2, 26970, Note_on_c, 0, 61, 80
2, 26974, Control_c, 0, 64, 104
2, 26978, Note_on_c, 0, 57, 57
2, 26978, Control_c, 0, 64, 24
2, 26980, Note_on_c, 0, 52, 53
2, 26982, Control_c, 0, 64, 0
2, 26983, Note_on_c, 0, 49, 54
2, 27014, Note_on_c, 0, 57, 0
2, 27014, Control_c, 0, 64, 72
2, 27018, Control_c, 0, 64, 127
2, 27022, Note_on_c, 0, 49, 0
2, 27023, Note_on_c, 0, 52, 0
2, 27023, Note_on_c, 0, 61, 0
2, 27080, Note_on_c, 0, 59, 71
2, 27082, Note_on_c, 0, 56, 50
2, 27084, Note_on_c, 0, 51, 66
2, 27095, Control_c, 0, 64, 88
2, 27099, Control_c, 0, 64, 56
2, 27103, Control_c, 0, 64, 0
2, 27160, Control_c, 0, 64, 40
2, 27163, Control_c, 0, 64, 88
2, 27167, Control_c, 0, 64, 127
2, 27254, Note_on_c, 0, 59, 0
2, 27262, Note_on_c, 0, 56, 0
2, 27361, Note_on_c, 0, 58, 63
2, 27363, Note_on_c, 0, 39, 54
2, 27368, Note_on_c, 0, 55, 52
2, 27386, Control_c, 0, 64, 88
2, 27390, Control_c, 0, 64, 40
2, 27394, Control_c, 0, 64, 0
2, 27434, Control_c, 0, 64, 56
2, 27438, Control_c, 0, 64, 104
2, 27442, Control_c, 0, 64, 127
2, 27485, Note_on_c, 0, 51, 0
2, 27518, Note_on_c, 0, 55, 0
2, 27541, Note_on_c, 0, 39, 0
2, 27650, Note_on_c, 0, 58, 0
2, 27669, Note_on_c, 0, 56, 54
2, 27679, Note_on_c, 0, 44, 45
2, 27681, Note_on_c, 0, 32, 45
2, 27712, Control_c, 0, 64, 88
2, 27715, Control_c, 0, 64, 56
2, 27719, Control_c, 0, 64, 0
2, 27768, Control_c, 0, 64, 40
2, 27772, Control_c, 0, 64, 88
2, 27777, Control_c, 0, 64, 127
2, 27880, Note_on_c, 0, 32, 0
2, 27888, Note_on_c, 0, 44, 0
2, 27888, Note_on_c, 0, 56, 0
2, 28158, Note_on_c, 0, 65, 79
2, 28160, Note_on_c, 0, 56, 57
2, 28164, Note_on_c, 0, 49, 46
2, 28165, Note_on_c, 0, 53, 59
2, 28166, Note_on_c, 0, 37, 46
2, 28167, Note_on_c, 0, 44, 45
2, 28167, Control_c, 0, 64, 72
2, 28172, Control_c, 0, 64, 0
2, 28192, Control_c, 0, 64, 24
2, 28196, Control_c, 0, 64, 72
2, 28200, Control_c, 0, 64, 127
2, 28202, Note_on_c, 0, 49, 0
2, 28204, Note_on_c, 0, 37, 0
2, 28204, Note_on_c, 0, 53, 0
2, 28206, Note_on_c, 0, 44, 0
2, 28212, Note_on_c, 0, 65, 0
2, 28212, Note_on_c, 0, 56, 0
2, 28306, Note_on_c, 0, 65, 74
2, 28310, Note_on_c, 0, 53, 54
2, 28311, Note_on_c, 0, 56, 54
2, 28312, Note_on_c, 0, 37, 51
2, 28314, Note_on_c, 0, 49, 45
2, 28317, Note_on_c, 0, 44, 47
2, 28357, Control_c, 0, 64, 104
2, 28361, Control_c, 0, 64, 40
2, 28365, Control_c, 0, 64, 0
2, 28398, Control_c, 0, 64, 56
2, 28402, Control_c, 0, 64, 127
2, 28450, Note_on_c, 0, 65, 0
2, 28452, Note_on_c, 0, 53, 0
2, 28482, Note_on_c, 0, 56, 0
2, 28512, Note_on_c, 0, 66, 80
2, 28534, Note_on_c, 0, 66, 0
2, 28549, Note_on_c, 0, 37, 0
2, 28553, Note_on_c, 0, 44, 0
2, 28555, Note_on_c, 0, 65, 96
2, 28561, Note_on_c, 0, 49, 0
2, 28576, Note_on_c, 0, 65, 0
2, 28607, Note_on_c, 0, 63, 91
2, 28611, Note_on_c, 0, 54, 68
2, 28613, Note_on_c, 0, 56, 64
2, 28613, Note_on_c, 0, 44, 49
2, 28615, Note_on_c, 0, 39, 51
2, 28617, Note_on_c, 0, 48, 60
2, 28628, Control_c, 0, 64, 56
2, 28632, Control_c, 0, 64, 0
2, 28680, Control_c, 0, 64, 56
2, 28684, Control_c, 0, 64, 104
2, 28688, Control_c, 0, 64, 127
2, 28702, Note_on_c, 0, 56, 0
2, 28704, Note_on_c, 0, 54, 0
2, 28724, Note_on_c, 0, 63, 0
2, 28746, Note_on_c, 0, 48, 0
2, 28751, Note_on_c, 0, 39, 0
2, 28758, Note_on_c, 0, 44, 0
2, 28787, Note_on_c, 0, 65, 86
2, 28810, Note_on_c, 0, 65, 0
2, 28822, Note_on_c, 0, 63, 87
2, 28847, Note_on_c, 0, 63, 0
2, 28871, Note_on_c, 0, 61, 85
2, 28874, Control_c, 0, 64, 104
2, 28876, Note_on_c, 0, 53, 72
2, 28876, Note_on_c, 0, 56, 63
2, 28878, Control_c, 0, 64, 0
2, 28878, Note_on_c, 0, 44, 63
2, 28880, Note_on_c, 0, 49, 53
2, 28880, Note_on_c, 0, 41, 62
2, 28903, Note_on_c, 0, 53, 0
2, 28908, Note_on_c, 0, 56, 0
2, 28909, Note_on_c, 0, 41, 0
2, 28909, Control_c, 0, 64, 56
2, 28911, Note_on_c, 0, 44, 0
2, 28913, Control_c, 0, 64, 127
2, 28915, Note_on_c, 0, 49, 0
2, 28925, Note_on_c, 0, 61, 0
2, 28961, Control_c, 0, 64, 104
2, 28963, Note_on_c, 0, 61, 89
2, 28965, Note_on_c, 0, 58, 70
2, 28966, Control_c, 0, 64, 0
2, 28968, Note_on_c, 0, 49, 63
2, 28968, Note_on_c, 0, 54, 62
2, 28970, Note_on_c, 0, 42, 66
2, 28972, Note_on_c, 0, 46, 64
2, 28994, Note_on_c, 0, 46, 0
2, 28994, Note_on_c, 0, 54, 0
2, 28996, Note_on_c, 0, 42, 0
2, 28998, Note_on_c, 0, 49, 0
2, 28999, Control_c, 0, 64, 24
2, 29002, Note_on_c, 0, 58, 0
2, 29002, Control_c, 0, 64, 88
2, 29006, Control_c, 0, 64, 127
2, 29008, Note_on_c, 0, 61, 0
2, 29054, Control_c, 0, 64, 72
2, 29058, Note_on_c, 0, 63, 92
2, 29059, Control_c, 0, 64, 0
2, 29062, Note_on_c, 0, 51, 83
2, 29062, Note_on_c, 0, 46, 66
2, 29066, Note_on_c, 0, 43, 71
2, 29068, Note_on_c, 0, 61, 58
2, 29068, Note_on_c, 0, 58, 54
2, 29097, Note_on_c, 0, 46, 0
2, 29098, Note_on_c, 0, 43, 0
2, 29099, Control_c, 0, 64, 56
2, 29101, Note_on_c, 0, 58, 0
2, 29103, Control_c, 0, 64, 104
2, 29105, Note_on_c, 0, 61, 0
2, 29108, Note_on_c, 0, 51, 0
2, 29108, Control_c, 0, 64, 127
2, 29112, Note_on_c, 0, 63, 0
2, 29164, Control_c, 0, 64, 88
2, 29165, Note_on_c, 0, 56, 85
2, 29168, Control_c, 0, 64, 56
2, 29171, Note_on_c, 0, 48, 69
2, 29172, Note_on_c, 0, 44, 52
2, 29172, Control_c, 0, 64, 0
2, 29173, Note_on_c, 0, 51, 52
2, 29253, Control_c, 0, 64, 56
2, 29257, Control_c, 0, 64, 104
2, 29261, Note_on_c, 0, 51, 0
2, 29261, Control_c, 0, 64, 127
2, 29273, Note_on_c, 0, 48, 0
2, 29275, Note_on_c, 0, 56, 0
2, 29285, Note_on_c, 0, 44, 0
2, 29380, Note_on_c, 0, 68, 91
2, 29384, Note_on_c, 0, 56, 68
2, 29386, Note_on_c, 0, 61, 70
2, 29388, Note_on_c, 0, 53, 59
2, 29389, Note_on_c, 0, 41, 57
2, 29389, Note_on_c, 0, 49, 55
2, 29390, Control_c, 0, 64, 104
2, 29394, Control_c, 0, 64, 40
2, 29397, Control_c, 0, 64, 0
2, 29426, Note_on_c, 0, 53, 0
2, 29426, Control_c, 0, 64, 56
2, 29428, Note_on_c, 0, 41, 0
2, 29430, Note_on_c, 0, 49, 0
2, 29430, Control_c, 0, 64, 127
2, 29432, Note_on_c, 0, 56, 0
2, 29434, Note_on_c, 0, 61, 0
2, 29444, Note_on_c, 0, 68, 0
2, 29490, Note_on_c, 0, 68, 91
2, 29493, Note_on_c, 0, 56, 72
2, 29494, Note_on_c, 0, 61, 72
2, 29496, Note_on_c, 0, 49, 51
2, 29498, Note_on_c, 0, 41, 59
2, 29498, Note_on_c, 0, 53, 56
2, 29523, Control_c, 0, 64, 72
2, 29527, Control_c, 0, 64, 0
2, 29551, Control_c, 0, 64, 56
2, 29555, Control_c, 0, 64, 127
2, 29564, Note_on_c, 0, 41, 0
2, 29584, Note_on_c, 0, 53, 0
2, 29587, Note_on_c, 0, 56, 0
2, 29597, Note_on_c, 0, 61, 0
2, 29600, Note_on_c, 0, 68, 0
2, 29608, Note_on_c, 0, 49, 0
2, 29664, Control_c, 0, 64, 72
2, 29668, Control_c, 0, 64, 56
2, 29670, Note_on_c, 0, 70, 91
2, 29672, Control_c, 0, 64, 88
2, 29674, Note_on_c, 0, 58, 66
2, 29674, Note_on_c, 0, 61, 75
2, 29675, Note_on_c, 0, 54, 65
2, 29676, Control_c, 0, 64, 127
2, 29677, Note_on_c, 0, 42, 60
2, 29679, Note_on_c, 0, 49, 57
2, 29692, Note_on_c, 0, 58, 0
2, 29693, Note_on_c, 0, 42, 0
2, 29694, Note_on_c, 0, 70, 0
2, 29696, Note_on_c, 0, 54, 0
2, 29702, Note_on_c, 0, 61, 0
2, 29713, Note_on_c, 0, 68, 97
2, 29715, Note_on_c, 0, 56, 81
2, 29719, Note_on_c, 0, 53, 76
2, 29721, Note_on_c, 0, 41, 66
2, 29728, Note_on_c, 0, 53, 0
2, 29730, Note_on_c, 0, 41, 0
2, 29734, Note_on_c, 0, 56, 0
2, 29734, Note_on_c, 0, 49, 0
2, 29738, Note_on_c, 0, 68, 0
2, 29757, Control_c, 0, 64, 72
2, 29761, Control_c, 0, 64, 0
2, 29761, Note_on_c, 0, 68, 103
2, 29762, Note_on_c, 0, 56, 91
2, 29764, Note_on_c, 0, 61, 82
2, 29767, Note_on_c, 0, 49, 73
2, 29771, Note_on_c, 0, 41, 68
2, 29772, Note_on_c, 0, 53, 60
2, 29780, Note_on_c, 0, 41, 0
2, 29780, Note_on_c, 0, 56, 0
2, 29781, Control_c, 0, 64, 24
2, 29784, Note_on_c, 0, 61, 0
2, 29785, Control_c, 0, 64, 88
2, 29788, Note_on_c, 0, 68, 0
2, 29789, Control_c, 0, 64, 127
2, 29790, Note_on_c, 0, 53, 0
2, 29796, Note_on_c, 0, 49, 0
2, 29842, Control_c, 0, 64, 104
2, 29846, Control_c, 0, 64, 40
2, 29850, Control_c, 0, 64, 0
2, 29850, Note_on_c, 0, 73, 101
2, 29854, Note_on_c, 0, 61, 85
2, 29857, Note_on_c, 0, 58, 71
2, 29859, Note_on_c, 0, 46, 74
2, 29862, Control_c, 0, 64, 24
2, 29866, Control_c, 0, 64, 72
2, 29870, Control_c, 0, 64, 127
2, 29873, Note_on_c, 0, 58, 0
2, 29877, Note_on_c, 0, 46, 0
2, 29877, Note_on_c, 0, 61, 0
2, 29882, Note_on_c, 0, 73, 0
2, 29930, Control_c, 0, 64, 104
2, 29933, Note_on_c, 0, 70, 101
2, 29934, Control_c, 0, 64, 24
2, 29935, Note_on_c, 0, 58, 85
2, 29938, Control_c, 0, 64, 0
2, 29939, Note_on_c, 0, 54, 80
2, 29941, Note_on_c, 0, 42, 84
2, 29946, Control_c, 0, 64, 24
2, 29950, Control_c, 0, 64, 88
2, 29954, Control_c, 0, 64, 127
2, 29955, Note_on_c, 0, 58, 0
2, 29955, Note_on_c, 0, 70, 0
2, 29956, Note_on_c, 0, 54, 0
2, 29956, Note_on_c, 0, 42, 0
2, 30018, Control_c, 0, 64, 88
2, 30020, Note_on_c, 0, 66, 99
2, 30022, Note_on_c, 0, 54, 98
2, 30022, Control_c, 0, 64, 0
2, 30026, Note_on_c, 0, 39, 68
2, 30028, Note_on_c, 0, 51, 67
2, 30043, Control_c, 0, 64, 40
2, 30045, Note_on_c, 0, 51, 0
2, 30045, Note_on_c, 0, 54, 0
2, 30047, Control_c, 0, 64, 127
2, 30051, Note_on_c, 0, 66, 0
2, 30056, Note_on_c, 0, 39, 0
2, 30117, Note_on_c, 0, 69, 108
2, 30120, Note_on_c, 0, 57, 82
2, 30120, Note_on_c, 0, 60, 82
2, 30121, Note_on_c, 0, 66, 77
2, 30121, Note_on_c, 0, 63, 68
2, 30123, Control_c, 0, 64, 104
2, 30127, Note_on_c, 0, 48, 84
2, 30128, Control_c, 0, 64, 0
2, 30130, Note_on_c, 0, 36, 65
2, 30146, Note_on_c, 0, 48, 0
2, 30152, Note_on_c, 0, 36, 0
2, 30156, Control_c, 0, 64, 56
2, 30160, Note_on_c, 0, 69, 0
2, 30160, Control_c, 0, 64, 127
2, 30165, Note_on_c, 0, 57, 0
2, 30171, Note_on_c, 0, 66, 0
2, 30175, Note_on_c, 0, 60, 0
2, 30178, Note_on_c, 0, 63, 0
2, 30226, Note_on_c, 0, 68, 89
2, 30229, Note_on_c, 0, 56, 74
2, 30231, Note_on_c, 0, 66, 73
2, 30233, Control_c, 0, 64, 72
2, 30235, Note_on_c, 0, 60, 72
2, 30235, Note_on_c, 0, 44, 52
2, 30236, Note_on_c, 0, 32, 63
2, 30236, Control_c, 0, 64, 0
2, 30254, Note_on_c, 0, 63, 25
2, 30276, Note_on_c, 0, 66, 0
2, 30278, Note_on_c, 0, 44, 0
2, 30278, Note_on_c, 0, 68, 0
2, 30278, Note_on_c, 0, 60, 0
2, 30278, Note_on_c, 0, 32, 0
2, 30280, Note_on_c, 0, 63, 0
2, 30281, Control_c, 0, 64, 88
2, 30285, Control_c, 0, 64, 127
2, 30288, Note_on_c, 0, 56, 0
2, 30355, Note_on_c, 0, 65, 78
2, 30357, Note_on_c, 0, 53, 59
2, 30359, Note_on_c, 0, 56, 54
2, 30360, Note_on_c, 0, 61, 58
2, 30362, Note_on_c, 0, 37, 54
2, 30362, Note_on_c, 0, 49, 48
2, 30366, Control_c, 0, 64, 104
2, 30370, Control_c, 0, 64, 40
2, 30374, Control_c, 0, 64, 0
2, 30434, Control_c, 0, 64, 88
2, 30438, Note_on_c, 0, 53, 0
2, 30438, Control_c, 0, 64, 127
2, 30440, Note_on_c, 0, 56, 0
2, 30442, Note_on_c, 0, 37, 0
2, 30450, Note_on_c, 0, 49, 0
2, 30452, Note_on_c, 0, 61, 0
2, 30458, Note_on_c, 0, 65, 0
2, 30560, Note_on_c, 0, 77, 102
2, 30563, Note_on_c, 0, 68, 68
2, 30564, Control_c, 0, 64, 104
2, 30564, Note_on_c, 0, 65, 70
2, 30564, Note_on_c, 0, 49, 67
2, 30568, Note_on_c, 0, 56, 52
2, 30568, Control_c, 0, 64, 0
2, 30572, Note_on_c, 0, 61, 46
2, 30588, Control_c, 0, 64, 40
2, 30591, Note_on_c, 0, 56, 0
2, 30592, Note_on_c, 0, 49, 0
2, 30592, Control_c, 0, 64, 104
2, 30593, Note_on_c, 0, 65, 0
2, 30595, Note_on_c, 0, 61, 0
2, 30596, Control_c, 0, 64, 127
2, 30603, Note_on_c, 0, 68, 0
2, 30607, Note_on_c, 0, 77, 0
2, 30675, Note_on_c, 0, 77, 100
2, 30675, Note_on_c, 0, 65, 74
2, 30678, Note_on_c, 0, 49, 52
2, 30680, Note_on_c, 0, 68, 63
2, 30681, Note_on_c, 0, 56, 48
2, 30682, Note_on_c, 0, 61, 45
2, 30713, Control_c, 0, 64, 88
2, 30717, Control_c, 0, 64, 0
2, 30753, Control_c, 0, 64, 88
2, 30754, Note_on_c, 0, 68, 0
2, 30757, Control_c, 0, 64, 127
2, 30783, Note_on_c, 0, 65, 0
2, 30842, Note_on_c, 0, 77, 0
2, 30858, Note_on_c, 0, 78, 94
2, 30871, Note_on_c, 0, 49, 0
2, 30878, Note_on_c, 0, 56, 0
2, 30880, Note_on_c, 0, 61, 0
2, 30888, Note_on_c, 0, 78, 0
2, 30899, Note_on_c, 0, 77, 106
2, 30917, Note_on_c, 0, 77, 0
2, 30943, Note_on_c, 0, 75, 100
2, 30946, Note_on_c, 0, 66, 79
2, 30950, Note_on_c, 0, 68, 67
2, 30950, Note_on_c, 0, 56, 45
2, 30954, Note_on_c, 0, 60, 60
2, 30955, Note_on_c, 0, 51, 57
2, 30959, Control_c, 0, 64, 56
2, 30963, Control_c, 0, 64, 0
2, 31011, Control_c, 0, 64, 40
2, 31015, Control_c, 0, 64, 104
2, 31019, Control_c, 0, 64, 127
2, 31040, Note_on_c, 0, 68, 0
2, 31046, Note_on_c, 0, 66, 0
2, 31085, Note_on_c, 0, 60, 0
2, 31091, Note_on_c, 0, 51, 0
2, 31098, Note_on_c, 0, 75, 0
2, 31099, Note_on_c, 0, 56, 0
2, 31120, Note_on_c, 0, 77, 98
2, 31146, Note_on_c, 0, 77, 0
2, 31159, Note_on_c, 0, 75, 102
2, 31185, Note_on_c, 0, 75, 0
2, 31207, Note_on_c, 0, 73, 96
2, 31209, Note_on_c, 0, 68, 71
2, 31213, Note_on_c, 0, 65, 72
2, 31213, Control_c, 0, 64, 40
2, 31214, Note_on_c, 0, 53, 72
2, 31216, Note_on_c, 0, 61, 52
2, 31217, Note_on_c, 0, 56, 62
2, 31217, Control_c, 0, 64, 0
2, 31239, Note_on_c, 0, 53, 0
2, 31241, Note_on_c, 0, 65, 0
2, 31242, Note_on_c, 0, 68, 0
2, 31245, Control_c, 0, 64, 88
2, 31246, Note_on_c, 0, 56, 0
2, 31248, Note_on_c, 0, 61, 0
2, 31249, Control_c, 0, 64, 127
2, 31258, Note_on_c, 0, 73, 0
2, 31299, Note_on_c, 0, 73, 99
2, 31304, Note_on_c, 0, 70, 65
2, 31304, Note_on_c, 0, 61, 53
2, 31306, Note_on_c, 0, 54, 58
2, 31306, Control_c, 0, 64, 88
2, 31307, Note_on_c, 0, 58, 55
2, 31307, Note_on_c, 0, 66, 55
2, 31310, Control_c, 0, 64, 0
2, 31331, Note_on_c, 0, 58, 0
2, 31331, Note_on_c, 0, 54, 0
2, 31331, Note_on_c, 0, 61, 0
2, 31334, Control_c, 0, 64, 24
2, 31337, Control_c, 0, 64, 104
2, 31339, Note_on_c, 0, 66, 0
2, 31340, Note_on_c, 0, 70, 0
2, 31342, Control_c, 0, 64, 127
2, 31351, Note_on_c, 0, 73, 0
2, 31393, Note_on_c, 0, 75, 103
2, 31394, Control_c, 0, 64, 104
2, 31398, Note_on_c, 0, 73, 77
2, 31398, Control_c, 0, 64, 0
2, 31402, Note_on_c, 0, 70, 49
2, 31403, Note_on_c, 0, 55, 72
2, 31405, Note_on_c, 0, 58, 56
2, 31405, Note_on_c, 0, 63, 49
2, 31411, Note_on_c, 0, 61, 48
2, 31420, Note_on_c, 0, 61, 0
2, 31422, Note_on_c, 0, 55, 0
2, 31426, Note_on_c, 0, 58, 0
2, 31426, Note_on_c, 0, 63, 0
2, 31430, Note_on_c, 0, 73, 0
2, 31430, Control_c, 0, 64, 88
2, 31432, Note_on_c, 0, 70, 0
2, 31434, Control_c, 0, 64, 127
2, 31445, Note_on_c, 0, 75, 0
2, 31498, Note_on_c, 0, 68, 81
2, 31502, Note_on_c, 0, 56, 57
2, 31506, Note_on_c, 0, 60, 65
2, 31509, Note_on_c, 0, 63, 43
2, 31519, Control_c, 0, 64, 72
2, 31523, Control_c, 0, 64, 0
2, 31564, Control_c, 0, 64, 72
2, 31568, Control_c, 0, 64, 127
2, 31587, Note_on_c, 0, 63, 0
2, 31587, Note_on_c, 0, 56, 0
2, 31592, Note_on_c, 0, 60, 0
2, 31596, Note_on_c, 0, 68, 0
2, 31684, Note_on_c, 0, 80, 105
2, 31687, Note_on_c, 0, 68, 78
2, 31690, Note_on_c, 0, 73, 76
2, 31692, Note_on_c, 0, 61, 59
2, 31693, Note_on_c, 0, 65, 66
2, 31693, Note_on_c, 0, 53, 67
2, 31697, Control_c, 0, 64, 88
2, 31701, Control_c, 0, 64, 24
2, 31705, Control_c, 0, 64, 0
2, 31715, Note_on_c, 0, 53, 0
2, 31716, Note_on_c, 0, 65, 0
2, 31717, Note_on_c, 0, 61, 0
2, 31718, Note_on_c, 0, 68, 0
2, 31720, Control_c, 0, 64, 72
2, 31724, Control_c, 0, 64, 127
2, 31726, Note_on_c, 0, 73, 0
2, 31733, Note_on_c, 0, 80, 0
2, 31786, Note_on_c, 0, 80, 106
2, 31790, Note_on_c, 0, 68, 87
2, 31790, Note_on_c, 0, 73, 81
2, 31796, Note_on_c, 0, 61, 58
2, 31796, Note_on_c, 0, 53, 69
2, 31797, Note_on_c, 0, 65, 57
2, 31817, Control_c, 0, 64, 88
2, 31822, Control_c, 0, 64, 0
2, 31854, Control_c, 0, 64, 88
2, 31858, Control_c, 0, 64, 127
2, 31881, Note_on_c, 0, 53, 0
2, 31890, Note_on_c, 0, 68, 0
2, 31900, Note_on_c, 0, 80, 0
2, 31901, Note_on_c, 0, 65, 0
2, 31902, Note_on_c, 0, 73, 0
2, 31906, Note_on_c, 0, 61, 0
2, 31951, Control_c, 0, 64, 56
2, 31955, Control_c, 0, 64, 0
2, 31959, Control_c, 0, 64, 24
2, 31961, Note_on_c, 0, 82, 100
2, 31963, Control_c, 0, 64, 72
2, 31963, Note_on_c, 0, 70, 85
2, 31964, Note_on_c, 0, 73, 85
2, 31967, Note_on_c, 0, 66, 72
2, 31967, Control_c, 0, 64, 127
2, 31968, Note_on_c, 0, 54, 68
2, 31972, Note_on_c, 0, 61, 57
2, 31980, Note_on_c, 0, 61, 0
2, 31980, Note_on_c, 0, 54, 0
2, 31981, Note_on_c, 0, 70, 0
2, 31984, Note_on_c, 0, 82, 0
2, 31985, Note_on_c, 0, 66, 0
2, 31986, Note_on_c, 0, 73, 0
2, 32005, Note_on_c, 0, 80, 109
2, 32006, Note_on_c, 0, 61, 77
2, 32007, Note_on_c, 0, 68, 93
2, 32009, Note_on_c, 0, 65, 81
2, 32012, Note_on_c, 0, 53, 76
2, 32020, Note_on_c, 0, 53, 0
2, 32024, Note_on_c, 0, 68, 0
2, 32024, Note_on_c, 0, 61, 0
2, 32026, Note_on_c, 0, 65, 0
2, 32028, Note_on_c, 0, 80, 0
2, 32047, Note_on_c, 0, 80, 102
2, 32049, Note_on_c, 0, 68, 94
2, 32050, Note_on_c, 0, 73, 91
2, 32052, Control_c, 0, 64, 40
2, 32056, Note_on_c, 0, 61, 79
2, 32056, Control_c, 0, 64, 0
2, 32057, Note_on_c, 0, 65, 63
2, 32060, Note_on_c, 0, 53, 66
2, 32067, Note_on_c, 0, 68, 0
2, 32068, Note_on_c, 0, 53, 0
2, 32068, Control_c, 0, 64, 24
2, 32072, Control_c, 0, 64, 72
2, 32073, Note_on_c, 0, 73, 0
2, 32076, Note_on_c, 0, 61, 0
2, 32076, Control_c, 0, 64, 127
2, 32078, Note_on_c, 0, 65, 0
2, 32080, Note_on_c, 0, 80, 0
2, 32137, Note_on_c, 0, 85, 105
2, 32140, Note_on_c, 0, 73, 94
2, 32140, Control_c, 0, 64, 40
2, 32142, Note_on_c, 0, 70, 78
2, 32144, Note_on_c, 0, 58, 70
2, 32144, Control_c, 0, 64, 0
2, 32152, Control_c, 0, 64, 56
2, 32157, Control_c, 0, 64, 127
2, 32158, Note_on_c, 0, 70, 0
2, 32163, Note_on_c, 0, 58, 0
2, 32163, Note_on_c, 0, 73, 0
2, 32164, Note_on_c, 0, 85, 0
2, 32219, Note_on_c, 0, 82, 102
2, 32221, Note_on_c, 0, 70, 100
2, 32221, Control_c, 0, 64, 56
2, 32223, Note_on_c, 0, 66, 77
2, 32225, Control_c, 0, 64, 40
2, 32225, Note_on_c, 0, 54, 73
2, 32226, Note_on_c, 0, 80, 56
2, 32229, Control_c, 0, 64, 72
2, 32232, Note_on_c, 0, 66, 0
2, 32233, Control_c, 0, 64, 127
2, 32235, Note_on_c, 0, 54, 0
2, 32235, Note_on_c, 0, 82, 0
2, 32236, Note_on_c, 0, 80, 0
2, 32237, Note_on_c, 0, 70, 0
2, 32307, Note_on_c, 0, 78, 108
2, 32308, Note_on_c, 0, 66, 100
2, 32308, Note_on_c, 0, 63, 81
2, 32310, Note_on_c, 0, 51, 81
2, 32310, Control_c, 0, 64, 24
2, 32314, Control_c, 0, 64, 0
2, 32326, Note_on_c, 0, 63, 0
2, 32326, Control_c, 0, 64, 88
2, 32328, Note_on_c, 0, 66, 0
2, 32330, Control_c, 0, 64, 127
2, 32334, Note_on_c, 0, 51, 0
2, 32339, Note_on_c, 0, 78, 0
2, 32398, Note_on_c, 0, 81, 109
2, 32399, Control_c, 0, 64, 104
2, 32401, Note_on_c, 0, 69, 93
2, 32401, Note_on_c, 0, 78, 85
2, 32402, Note_on_c, 0, 72, 93
2, 32403, Control_c, 0, 64, 0
2, 32403, Note_on_c, 0, 75, 80
2, 32405, Note_on_c, 0, 60, 84
2, 32409, Note_on_c, 0, 48, 76
2, 32427, Note_on_c, 0, 60, 0
2, 32430, Note_on_c, 0, 48, 0
2, 32430, Control_c, 0, 64, 88
2, 32434, Note_on_c, 0, 81, 0
2, 32435, Control_c, 0, 64, 127
2, 32440, Note_on_c, 0, 69, 0
2, 32440, Note_on_c, 0, 75, 0
2, 32442, Note_on_c, 0, 78, 0
2, 32444, Note_on_c, 0, 72, 0
2, 32500, Note_on_c, 0, 80, 97
2, 32502, Note_on_c, 0, 68, 82
2, 32507, Note_on_c, 0, 78, 71
2, 32510, Note_on_c, 0, 72, 78
2, 32510, Note_on_c, 0, 75, 58
2, 32511, Note_on_c, 0, 56, 55
2, 32513, Note_on_c, 0, 44, 58
2, 32516, Control_c, 0, 64, 40
2, 32520, Control_c, 0, 64, 0
2, 32550, Note_on_c, 0, 75, 0
2, 32552, Note_on_c, 0, 78, 0
2, 32554, Note_on_c, 0, 80, 0
2, 32554, Note_on_c, 0, 72, 0
2, 32554, Note_on_c, 0, 44, 0
2, 32556, Note_on_c, 0, 56, 0
2, 32556, Control_c, 0, 64, 127
2, 32566, Note_on_c, 0, 68, 0
2, 32620, Note_on_c, 0, 77, 96
2, 32622, Note_on_c, 0, 68, 68
2, 32624, Note_on_c, 0, 73, 74
2, 32630, Note_on_c, 0, 49, 64
2, 32632, Note_on_c, 0, 61, 50
2, 32641, Control_c, 0, 64, 0
2, 32705, Control_c, 0, 64, 127
2, 32713, Note_on_c, 0, 77, 0
2, 32717, Note_on_c, 0, 61, 0
2, 32719, Note_on_c, 0, 49, 0
2, 32721, Note_on_c, 0, 68, 0
2, 32722, Note_on_c, 0, 73, 0
2, 32832, Note_on_c, 0, 75, 99
2, 32834, Control_c, 0, 64, 72
2, 32837, Note_on_c, 0, 63, 71
2, 32838, Control_c, 0, 64, 0
2, 32839, Note_on_c, 0, 68, 75
2, 32841, Note_on_c, 0, 60, 66
2, 32842, Note_on_c, 0, 48, 73
2, 32842, Note_on_c, 0, 56, 56
2, 32862, Control_c, 0, 64, 40
2, 32864, Note_on_c, 0, 48, 0
2, 32866, Note_on_c, 0, 60, 0
2, 32866, Control_c, 0, 64, 127
2, 32867, Note_on_c, 0, 56, 0
2, 32868, Note_on_c, 0, 63, 0
2, 32873, Note_on_c, 0, 68, 0
2, 32879, Note_on_c, 0, 75, 0
2, 32953, Note_on_c, 0, 75, 99
2, 32957, Note_on_c, 0, 63, 78
2, 32957, Note_on_c, 0, 68, 77
2, 32961, Note_on_c, 0, 56, 59
2, 32963, Note_on_c, 0, 60, 64
2, 32967, Note_on_c, 0, 48, 49
2, 32988, Control_c, 0, 64, 40
2, 32992, Control_c, 0, 64, 0
2, 33020, Control_c, 0, 64, 127
2, 33042, Note_on_c, 0, 48, 0
2, 33047, Note_on_c, 0, 60, 0
2, 33067, Note_on_c, 0, 68, 0
2, 33070, Note_on_c, 0, 63, 0
2, 33073, Note_on_c, 0, 56, 0
2, 33100, Note_on_c, 0, 75, 0
2, 33137, Control_c, 0, 64, 72
2, 33141, Control_c, 0, 64, 0
2, 33141, Note_on_c, 0, 73, 96
2, 33143, Note_on_c, 0, 58, 74
2, 33143, Note_on_c, 0, 61, 80
2, 33144, Note_on_c, 0, 46, 72
2, 33145, Note_on_c, 0, 56, 68
2, 33147, Note_on_c, 0, 68, 63
2, 33152, Note_on_c, 0, 46, 0
2, 33153, Control_c, 0, 64, 104
2, 33156, Control_c, 0, 64, 127
2, 33158, Note_on_c, 0, 61, 0
2, 33162, Note_on_c, 0, 58, 0
2, 33175, Note_on_c, 0, 73, 0
2, 33177, Note_on_c, 0, 68, 0
2, 33186, Note_on_c, 0, 75, 97
2, 33187, Note_on_c, 0, 60, 86
2, 33187, Note_on_c, 0, 63, 81
2, 33193, Note_on_c, 0, 48, 61
2, 33195, Note_on_c, 0, 60, 0
2, 33201, Note_on_c, 0, 48, 0
2, 33204, Note_on_c, 0, 56, 0
2, 33207, Note_on_c, 0, 63, 0
2, 33210, Note_on_c, 0, 75, 0
2, 33234, Note_on_c, 0, 72, 102
2, 33238, Note_on_c, 0, 60, 71
2, 33238, Control_c, 0, 64, 24
2, 33238, Note_on_c, 0, 68, 47
2, 33241, Note_on_c, 0, 44, 78
2, 33241, Note_on_c, 0, 56, 76
2, 33242, Control_c, 0, 64, 0
2, 33258, Note_on_c, 0, 60, 0
2, 33260, Note_on_c, 0, 44, 0
2, 33260, Note_on_c, 0, 56, 0
2, 33262, Control_c, 0, 64, 72
2, 33266, Control_c, 0, 64, 127
2, 33267, Note_on_c, 0, 72, 0
2, 33299, Note_on_c, 0, 68, 0
2, 33318, Control_c, 0, 64, 88
2, 33322, Note_on_c, 0, 75, 104
2, 33322, Control_c, 0, 64, 0
2, 33324, Note_on_c, 0, 68, 84
2, 33325, Note_on_c, 0, 63, 74
2, 33326, Note_on_c, 0, 60, 75
2, 33327, Note_on_c, 0, 48, 77
2, 33328, Note_on_c, 0, 56, 66
2, 33336, Note_on_c, 0, 48, 0
2, 33338, Control_c, 0, 64, 56
2, 33340, Note_on_c, 0, 63, 0
2, 33342, Control_c, 0, 64, 127
2, 33346, Note_on_c, 0, 60, 0
2, 33353, Note_on_c, 0, 56, 0
2, 33355, Note_on_c, 0, 75, 0
2, 33355, Note_on_c, 0, 68, 0
2, 33405, Note_on_c, 0, 77, 108
2, 33407, Note_on_c, 0, 68, 78
2, 33409, Note_on_c, 0, 65, 82
2, 33411, Note_on_c, 0, 49, 79
2, 33411, Note_on_c, 0, 61, 67
2, 33411, Control_c, 0, 64, 40
2, 33415, Note_on_c, 0, 56, 63
2, 33415, Control_c, 0, 64, 0
2, 33427, Note_on_c, 0, 49, 0
2, 33427, Control_c, 0, 64, 40
2, 33429, Note_on_c, 0, 65, 0
2, 33431, Control_c, 0, 64, 127
2, 33435, Note_on_c, 0, 61, 0
2, 33436, Note_on_c, 0, 77, 0
2, 33437, Note_on_c, 0, 68, 0
2, 33440, Note_on_c, 0, 56, 0
2, 33497, Note_on_c, 0, 78, 106
2, 33499, Note_on_c, 0, 68, 91
2, 33500, Note_on_c, 0, 66, 87
2, 33504, Note_on_c, 0, 63, 73
2, 33504, Control_c, 0, 64, 88
2, 33505, Note_on_c, 0, 56, 74
2, 33505, Note_on_c, 0, 51, 77
2, 33508, Control_c, 0, 64, 0
2, 33520, Control_c, 0, 64, 40
2, 33522, Note_on_c, 0, 68, 0
2, 33524, Note_on_c, 0, 51, 0
2, 33524, Control_c, 0, 64, 127
2, 33526, Note_on_c, 0, 66, 0
2, 33527, Note_on_c, 0, 56, 0
2, 33532, Note_on_c, 0, 78, 0
2, 33539, Note_on_c, 0, 63, 0
2, 33588, Note_on_c, 0, 80, 104
2, 33590, Note_on_c, 0, 68, 88
2, 33596, Note_on_c, 0, 56, 63
2, 33597, Note_on_c, 0, 65, 69
2, 33599, Note_on_c, 0, 53, 65
2, 33601, Control_c, 0, 64, 56
2, 33605, Control_c, 0, 64, 0
2, 33612, Note_on_c, 0, 53, 0
2, 33619, Note_on_c, 0, 65, 0
2, 33620, Note_on_c, 0, 68, 0
2, 33621, Note_on_c, 0, 56, 0
2, 33624, Control_c, 0, 64, 104
2, 33628, Control_c, 0, 64, 127
2, 33635, Note_on_c, 0, 80, 0
2, 33690, Note_on_c, 0, 82, 93
2, 33692, Note_on_c, 0, 70, 84
2, 33702, Note_on_c, 0, 68, 68
2, 33702, Note_on_c, 0, 66, 64
2, 33703, Note_on_c, 0, 56, 60
2, 33704, Note_on_c, 0, 54, 64
2, 33710, Control_c, 0, 64, 24
2, 33714, Control_c, 0, 64, 0
2, 33728, Note_on_c, 0, 66, 0
2, 33728, Note_on_c, 0, 68, 0
2, 33731, Note_on_c, 0, 82, 0
2, 33732, Note_on_c, 0, 54, 0
2, 33734, Control_c, 0, 64, 127
2, 33735, Note_on_c, 0, 56, 0
2, 33739, Note_on_c, 0, 70, 0
2, 33818, Note_on_c, 0, 75, 91
2, 33822, Note_on_c, 0, 68, 68
2, 33822, Note_on_c, 0, 63, 57
2, 33828, Note_on_c, 0, 56, 50
2, 33829, Note_on_c, 0, 48, 55
2, 33843, Control_c, 0, 64, 104
2, 33847, Control_c, 0, 64, 0
2, 33855, Note_on_c, 0, 60, 21
2, 33919, Control_c, 0, 64, 127
2, 33955, Note_on_c, 0, 63, 0
2, 33973, Note_on_c, 0, 75, 0
2, 34006, Note_on_c, 0, 68, 0
2, 34055, Note_on_c, 0, 76, 94
2, 34058, Note_on_c, 0, 64, 67
2, 34059, Note_on_c, 0, 68, 60
2, 34085, Control_c, 0, 64, 56
2, 34089, Control_c, 0, 64, 0
2, 34107, Note_on_c, 0, 48, 0
2, 34113, Note_on_c, 0, 64, 0
2, 34113, Control_c, 0, 64, 127
2, 34115, Note_on_c, 0, 60, 0
2, 34120, Note_on_c, 0, 56, 0
2, 34121, Note_on_c, 0, 68, 0
2, 34121, Note_on_c, 0, 76, 0
2, 34201, Note_on_c, 0, 77, 90
2, 34202, Note_on_c, 0, 65, 67
2, 34204, Note_on_c, 0, 68, 63
2, 34206, Note_on_c, 0, 49, 59
2, 34207, Note_on_c, 0, 61, 49
2, 34209, Note_on_c, 0, 56, 54
2, 34234, Control_c, 0, 64, 88
2, 34238, Control_c, 0, 64, 0
2, 34278, Control_c, 0, 64, 127
2, 34294, Note_on_c, 0, 68, 0
2, 34316, Note_on_c, 0, 65, 0
2, 34362, Note_on_c, 0, 77, 0
2, 34390, Note_on_c, 0, 78, 91
2, 34405, Note_on_c, 0, 49, 0
2, 34409, Note_on_c, 0, 56, 0
2, 34412, Note_on_c, 0, 61, 0
2, 34421, Note_on_c, 0, 78, 0
2, 34430, Note_on_c, 0, 77, 102
2, 34450, Note_on_c, 0, 77, 0
2, 34476, Note_on_c, 0, 75, 97
2, 34481, Note_on_c, 0, 68, 75
2, 34482, Note_on_c, 0, 63, 59
2, 34484, Note_on_c, 0, 56, 54
2, 34487, Note_on_c, 0, 48, 71
2, 34488, Note_on_c, 0, 60, 62
2, 34504, Control_c, 0, 64, 40
2, 34507, Control_c, 0, 64, 0
2, 34536, Control_c, 0, 64, 104
2, 34540, Control_c, 0, 64, 127
2, 34564, Note_on_c, 0, 60, 0
2, 34566, Note_on_c, 0, 48, 0
2, 34571, Note_on_c, 0, 63, 0
2, 34577, Note_on_c, 0, 75, 0
2, 34641, Note_on_c, 0, 68, 0
2, 34651, Note_on_c, 0, 56, 0
2, 34653, Note_on_c, 0, 74, 94
2, 34655, Note_on_c, 0, 62, 82
2, 34658, Note_on_c, 0, 59, 63
2, 34665, Note_on_c, 0, 47, 48
2, 34676, Note_on_c, 0, 47, 0
2, 34676, Note_on_c, 0, 62, 0
2, 34678, Note_on_c, 0, 59, 0
2, 34678, Note_on_c, 0, 74, 0
2, 34752, Note_on_c, 0, 73, 91
2, 34758, Note_on_c, 0, 61, 63
2, 34759, Note_on_c, 0, 67, 74
2, 34761, Note_on_c, 0, 58, 49
2, 34765, Note_on_c, 0, 51, 57
2, 34765, Note_on_c, 0, 46, 49
2, 34790, Control_c, 0, 64, 40
2, 34794, Control_c, 0, 64, 0
2, 34823, Control_c, 0, 64, 72
2, 34827, Control_c, 0, 64, 127
2, 34841, Note_on_c, 0, 51, 0
2, 34841, Note_on_c, 0, 73, 0
2, 34856, Note_on_c, 0, 61, 0
2, 34891, Note_on_c, 0, 67, 0
2, 34931, Note_on_c, 0, 72, 98
2, 34934, Note_on_c, 0, 61, 64
2, 34937, Note_on_c, 0, 51, 69
2, 34941, Note_on_c, 0, 67, 46
2, 34947, Note_on_c, 0, 46, 0
2, 34951, Note_on_c, 0, 67, 0
2, 34961, Note_on_c, 0, 72, 0
2, 34962, Note_on_c, 0, 51, 0
2, 34964, Note_on_c, 0, 61, 0
2, 34966, Note_on_c, 0, 58, 0
2, 34975, Note_on_c, 0, 70, 98
2, 34999, Note_on_c, 0, 70, 0
2, 35044, Note_on_c, 0, 75, 105
2, 35047, Note_on_c, 0, 66, 81
2, 35048, Note_on_c, 0, 63, 67
2, 35051, Note_on_c, 0, 57, 69
2, 35057, Note_on_c, 0, 45, 46
2, 35073, Control_c, 0, 64, 72
2, 35075, Note_on_c, 0, 54, 23
2, 35077, Control_c, 0, 64, 0
2, 35113, Control_c, 0, 64, 104
2, 35117, Control_c, 0, 64, 127
2, 35162, Note_on_c, 0, 75, 0
2, 35171, Note_on_c, 0, 54, 0
2, 35182, Note_on_c, 0, 57, 0
2, 35188, Note_on_c, 0, 63, 0
2, 35222, Note_on_c, 0, 66, 0
2, 35252, Note_on_c, 0, 73, 88
2, 35258, Note_on_c, 0, 57, 60
2, 35259, Note_on_c, 0, 63, 64
2, 35260, Note_on_c, 0, 51, 64
2, 35260, Note_on_c, 0, 66, 57
2, 35272, Note_on_c, 0, 45, 0
2, 35282, Note_on_c, 0, 73, 0
2, 35289, Note_on_c, 0, 66, 0
2, 35290, Note_on_c, 0, 57, 0
2, 35299, Note_on_c, 0, 72, 100
2, 35300, Note_on_c, 0, 51, 0
2, 35310, Note_on_c, 0, 63, 0
2, 35329, Note_on_c, 0, 72, 0
2, 35356, Note_on_c, 0, 73, 94
2, 35359, Note_on_c, 0, 61, 66
2, 35363, Note_on_c, 0, 67, 67
2, 35365, Note_on_c, 0, 58, 50
2, 35367, Note_on_c, 0, 46, 62
2, 35371, Note_on_c, 0, 51, 52
2, 35379, Control_c, 0, 64, 104
2, 35383, Control_c, 0, 64, 24
2, 35388, Control_c, 0, 64, 0
2, 35428, Control_c, 0, 64, 72
2, 35431, Control_c, 0, 64, 127
2, 35458, Note_on_c, 0, 51, 0
2, 35474, Note_on_c, 0, 61, 0
2, 35475, Note_on_c, 0, 73, 0
2, 35479, Note_on_c, 0, 67, 0
2, 35559, Note_on_c, 0, 72, 83
2, 35559, Note_on_c, 0, 51, 63
2, 35562, Note_on_c, 0, 61, 51
2, 35565, Control_c, 0, 64, 72
2, 35567, Note_on_c, 0, 67, 58
2, 35569, Control_c, 0, 64, 24
2, 35573, Control_c, 0, 64, 0
2, 35576, Control_c, 0, 64, 24
2, 35580, Control_c, 0, 64, 56
2, 35584, Note_on_c, 0, 72, 0
2, 35585, Control_c, 0, 64, 104
2, 35588, Note_on_c, 0, 46, 0
2, 35589, Control_c, 0, 64, 127
2, 35596, Note_on_c, 0, 58, 0
2, 35598, Note_on_c, 0, 67, 0
2, 35605, Note_on_c, 0, 51, 0
2, 35609, Note_on_c, 0, 70, 88
2, 35623, Note_on_c, 0, 61, 0
2, 35633, Note_on_c, 0, 70, 0
2, 35667, Note_on_c, 0, 68, 81
2, 35675, Note_on_c, 0, 44, 59
2, 35676, Note_on_c, 0, 60, 68
2, 35677, Note_on_c, 0, 51, 57
2, 35682, Control_c, 0, 64, 104
2, 35686, Control_c, 0, 64, 0
2, 35718, Control_c, 0, 64, 56
2, 35721, Control_c, 0, 64, 127
2, 35773, Note_on_c, 0, 68, 0
2, 35783, Note_on_c, 0, 67, 82
2, 35820, Note_on_c, 0, 60, 0
2, 35892, Note_on_c, 0, 67, 0
2, 35900, Note_on_c, 0, 66, 77
2, 35901, Note_on_c, 0, 56, 47
2, 35916, Control_c, 0, 64, 88
2, 35919, Control_c, 0, 64, 0
2, 35948, Control_c, 0, 64, 104
2, 35949, Note_on_c, 0, 66, 0
2, 35950, Note_on_c, 0, 56, 0
2, 35952, Control_c, 0, 64, 127
2, 35956, Note_on_c, 0, 51, 0
2, 35960, Note_on_c, 0, 44, 0
2, 36043, Note_on_c, 0, 65, 86
2, 36048, Note_on_c, 0, 56, 50
2, 36051, Note_on_c, 0, 53, 51
2, 36054, Note_on_c, 0, 37, 52
2, 36057, Note_on_c, 0, 49, 48
2, 36057, Note_on_c, 0, 44, 48
2, 36077, Control_c, 0, 64, 88
2, 36081, Control_c, 0, 64, 0
2, 36113, Control_c, 0, 64, 104
2, 36117, Control_c, 0, 64, 127
2, 36144, Note_on_c, 0, 56, 0
2, 36165, Note_on_c, 0, 53, 0
2, 36206, Note_on_c, 0, 65, 0
2, 36251, Note_on_c, 0, 66, 82
2, 36282, Note_on_c, 0, 66, 0
2, 36287, Note_on_c, 0, 44, 0
2, 36294, Note_on_c, 0, 37, 0
2, 36294, Note_on_c, 0, 65, 99
2, 36296, Note_on_c, 0, 49, 0
2, 36310, Note_on_c, 0, 65, 0
2, 36344, Note_on_c, 0, 63, 92
2, 36349, Note_on_c, 0, 56, 66
2, 36349, Note_on_c, 0, 54, 58
2, 36352, Note_on_c, 0, 44, 53
2, 36354, Note_on_c, 0, 48, 63
2, 36356, Note_on_c, 0, 39, 52
2, 36372, Control_c, 0, 64, 40
2, 36376, Control_c, 0, 64, 0
2, 36424, Control_c, 0, 64, 127
2, 36432, Note_on_c, 0, 56, 0
2, 36446, Note_on_c, 0, 54, 0
2, 36469, Note_on_c, 0, 63, 0
2, 36517, Note_on_c, 0, 48, 0
2, 36520, Note_on_c, 0, 39, 0
2, 36532, Note_on_c, 0, 65, 79
2, 36537, Note_on_c, 0, 44, 0
2, 36550, Note_on_c, 0, 65, 0
2, 36564, Note_on_c, 0, 63, 87
2, 36586, Note_on_c, 0, 63, 0
2, 36611, Note_on_c, 0, 61, 83
2, 36615, Note_on_c, 0, 56, 63
2, 36616, Note_on_c, 0, 53, 74
2, 36620, Note_on_c, 0, 41, 64
2, 36620, Note_on_c, 0, 44, 57
2, 36622, Control_c, 0, 64, 56
2, 36622, Note_on_c, 0, 49, 50
2, 36626, Control_c, 0, 64, 0
2, 36648, Note_on_c, 0, 53, 0
2, 36650, Control_c, 0, 64, 56
2, 36654, Note_on_c, 0, 56, 0
2, 36654, Control_c, 0, 64, 127
2, 36655, Note_on_c, 0, 44, 0
2, 36657, Note_on_c, 0, 41, 0
2, 36657, Note_on_c, 0, 49, 0
2, 36663, Note_on_c, 0, 61, 0
2, 36704, Note_on_c, 0, 61, 95
2, 36708, Note_on_c, 0, 58, 70
2, 36709, Note_on_c, 0, 54, 66
2, 36710, Note_on_c, 0, 42, 71
2, 36710, Note_on_c, 0, 49, 57
2, 36710, Control_c, 0, 64, 72
2, 36711, Note_on_c, 0, 46, 60
2, 36714, Control_c, 0, 64, 0
2, 36733, Note_on_c, 0, 42, 0
2, 36735, Note_on_c, 0, 46, 0
2, 36738, Note_on_c, 0, 54, 0
2, 36738, Note_on_c, 0, 49, 0
2, 36738, Control_c, 0, 64, 104
2, 36742, Note_on_c, 0, 61, 0
2, 36743, Control_c, 0, 64, 127
2, 36749, Note_on_c, 0, 58, 0
2, 36800, Note_on_c, 0, 63, 93
2, 36802, Note_on_c, 0, 51, 84
2, 36803, Control_c, 0, 64, 40
2, 36806, Note_on_c, 0, 61, 64
2, 36807, Control_c, 0, 64, 0
2, 36808, Note_on_c, 0, 58, 52
2, 36810, Note_on_c, 0, 43, 63
2, 36811, Note_on_c, 0, 49, 62
2, 36814, Note_on_c, 0, 46, 49
2, 36835, Note_on_c, 0, 43, 0
2, 36835, Control_c, 0, 64, 88
2, 36836, Note_on_c, 0, 46, 0
2, 36837, Note_on_c, 0, 58, 0
2, 36837, Note_on_c, 0, 49, 0
2, 36839, Note_on_c, 0, 61, 0
2, 36839, Control_c, 0, 64, 127
2, 36841, Note_on_c, 0, 51, 0
2, 36856, Note_on_c, 0, 63, 0
2, 36912, Note_on_c, 0, 56, 85
2, 36917, Note_on_c, 0, 44, 69
2, 36920, Note_on_c, 0, 51, 53
2, 36922, Note_on_c, 0, 48, 69
2, 36932, Control_c, 0, 64, 72
2, 36936, Control_c, 0, 64, 0
2, 36976, Control_c, 0, 64, 72
2, 36980, Control_c, 0, 64, 127
2, 36988, Note_on_c, 0, 51, 0
2, 37003, Note_on_c, 0, 56, 0
2, 37007, Note_on_c, 0, 44, 0
2, 37010, Note_on_c, 0, 48, 0
2, 37110, Note_on_c, 0, 68, 96
2, 37112, Note_on_c, 0, 41, 79
2, 37112, Note_on_c, 0, 56, 68
2, 37114, Control_c, 0, 64, 0
2, 37114, Note_on_c, 0, 61, 76
2, 37116, Note_on_c, 0, 49, 62
2, 37122, Note_on_c, 0, 53, 49
2, 37141, Note_on_c, 0, 56, 0
2, 37141, Control_c, 0, 64, 127
2, 37150, Note_on_c, 0, 41, 0
2, 37150, Note_on_c, 0, 53, 0
2, 37153, Note_on_c, 0, 49, 0
2, 37156, Note_on_c, 0, 61, 0
2, 37163, Note_on_c, 0, 68, 0
2, 37207, Note_on_c, 0, 68, 97
2, 37210, Note_on_c, 0, 56, 78
2, 37212, Note_on_c, 0, 61, 78
2, 37213, Note_on_c, 0, 49, 66
2, 37214, Note_on_c, 0, 53, 68
2, 37216, Note_on_c, 0, 41, 65
2, 37239, Control_c, 0, 64, 88
2, 37243, Control_c, 0, 64, 0
2, 37271, Control_c, 0, 64, 56
2, 37275, Control_c, 0, 64, 127
2, 37300, Note_on_c, 0, 56, 0
2, 37302, Note_on_c, 0, 41, 0
2, 37313, Note_on_c, 0, 68, 0
2, 37315, Note_on_c, 0, 61, 0
2, 37322, Note_on_c, 0, 53, 0
2, 37344, Note_on_c, 0, 49, 0
2, 37368, Control_c, 0, 64, 104
2, 37372, Control_c, 0, 64, 40
2, 37376, Control_c, 0, 64, 0
2, 37385, Note_on_c, 0, 70, 98
2, 37386, Note_on_c, 0, 58, 80
2, 37388, Control_c, 0, 64, 40
2, 37389, Note_on_c, 0, 61, 74
2, 37391, Note_on_c, 0, 54, 64
2, 37391, Note_on_c, 0, 42, 67
2, 37392, Control_c, 0, 64, 88
2, 37393, Note_on_c, 0, 49, 60
2, 37396, Control_c, 0, 64, 127
2, 37398, Note_on_c, 0, 61, 0
2, 37402, Note_on_c, 0, 49, 0
2, 37404, Note_on_c, 0, 54, 0
2, 37404, Note_on_c, 0, 42, 0
2, 37404, Note_on_c, 0, 58, 0
2, 37406, Note_on_c, 0, 70, 0
2, 37426, Note_on_c, 0, 68, 99
2, 37427, Note_on_c, 0, 56, 87
2, 37428, Note_on_c, 0, 49, 73
2, 37431, Note_on_c, 0, 53, 73
2, 37433, Note_on_c, 0, 41, 60
2, 37441, Note_on_c, 0, 53, 0
2, 37443, Note_on_c, 0, 56, 0
2, 37443, Note_on_c, 0, 41, 0
2, 37445, Note_on_c, 0, 49, 0
2, 37447, Note_on_c, 0, 68, 0
2, 37464, Control_c, 0, 64, 104
2, 37468, Control_c, 0, 64, 24
2, 37472, Note_on_c, 0, 68, 98
2, 37472, Control_c, 0, 64, 0
2, 37473, Note_on_c, 0, 56, 89
2, 37475, Note_on_c, 0, 61, 81
2, 37478, Note_on_c, 0, 49, 80
2, 37482, Note_on_c, 0, 41, 56
2, 37486, Note_on_c, 0, 53, 45
2, 37487, Note_on_c, 0, 56, 0
2, 37489, Control_c, 0, 64, 24
2, 37490, Note_on_c, 0, 61, 0
2, 37491, Note_on_c, 0, 41, 0
2, 37493, Control_c, 0, 64, 104
2, 37495, Note_on_c, 0, 49, 0
2, 37496, Note_on_c, 0, 68, 0
2, 37497, Note_on_c, 0, 53, 0
2, 37497, Control_c, 0, 64, 127
2, 37561, Control_c, 0, 64, 88
2, 37563, Note_on_c, 0, 77, 110
2, 37566, Note_on_c, 0, 68, 84
2, 37566, Control_c, 0, 64, 0
2, 37566, Note_on_c, 0, 65, 82
2, 37569, Note_on_c, 0, 61, 69
2, 37570, Note_on_c, 0, 49, 73
2, 37572, Note_on_c, 0, 56, 62
2, 37582, Control_c, 0, 64, 24
2, 37586, Control_c, 0, 64, 88
2, 37588, Note_on_c, 0, 65, 0
2, 37590, Note_on_c, 0, 49, 0
2, 37590, Control_c, 0, 64, 127
2, 37591, Note_on_c, 0, 77, 0
2, 37595, Note_on_c, 0, 68, 0
2, 37595, Note_on_c, 0, 61, 0
2, 37598, Note_on_c, 0, 56, 0
2, 37652, Note_on_c, 0, 75, 103
2, 37654, Control_c, 0, 64, 72
2, 37656, Note_on_c, 0, 68, 81
2, 37656, Note_on_c, 0, 63, 80
2, 37657, Note_on_c, 0, 48, 83
2, 37658, Note_on_c, 0, 56, 62
2, 37658, Control_c, 0, 64, 0
2, 37659, Note_on_c, 0, 60, 65
2, 37676, Note_on_c, 0, 60, 0
2, 37676, Note_on_c, 0, 48, 0
2, 37678, Control_c, 0, 64, 72
2, 37680, Note_on_c, 0, 63, 0
2, 37682, Control_c, 0, 64, 127
2, 37684, Note_on_c, 0, 75, 0
2, 37687, Note_on_c, 0, 56, 0
2, 37691, Note_on_c, 0, 68, 0
2, 37751, Note_on_c, 0, 73, 100
2, 37758, Note_on_c, 0, 61, 73
2, 37758, Note_on_c, 0, 46, 72
2, 37759, Note_on_c, 0, 53, 58
2, 37760, Note_on_c, 0, 65, 67
2, 37761, Note_on_c, 0, 58, 53
2, 37779, Control_c, 0, 64, 72
2, 37783, Control_c, 0, 64, 0
2, 37812, Control_c, 0, 64, 88
2, 37816, Control_c, 0, 64, 127
2, 37828, Note_on_c, 0, 58, 0
2, 37828, Note_on_c, 0, 46, 0
2, 37836, Note_on_c, 0, 53, 0
2, 37839, Note_on_c, 0, 65, 0
2, 37839, Note_on_c, 0, 73, 0
2, 37853, Note_on_c, 0, 61, 0
2, 37958, Note_on_c, 0, 72, 89
2, 37959, Note_on_c, 0, 44, 70
2, 37963, Note_on_c, 0, 56, 49
2, 37964, Note_on_c, 0, 54, 60
2, 37964, Note_on_c, 0, 63, 56
2, 37964, Note_on_c, 0, 60, 46
2, 37969, Note_on_c, 0, 68, 45
2, 37973, Control_c, 0, 64, 72
2, 37977, Control_c, 0, 64, 0
2, 38002, Note_on_c, 0, 60, 0
2, 38004, Note_on_c, 0, 54, 0
2, 38005, Note_on_c, 0, 72, 0
2, 38005, Control_c, 0, 64, 127
2, 38006, Note_on_c, 0, 44, 0
2, 38008, Note_on_c, 0, 63, 0
2, 38009, Note_on_c, 0, 56, 0
2, 38025, Note_on_c, 0, 68, 0
2, 38094, Note_on_c, 0, 73, 71
2, 38099, Note_on_c, 0, 61, 54
2, 38099, Note_on_c, 0, 68, 56
2, 38101, Note_on_c, 0, 56, 49
2, 38105, Note_on_c, 0, 49, 57
2, 38105, Note_on_c, 0, 53, 64
2, 38108, Note_on_c, 0, 65, 47
2, 38122, Control_c, 0, 64, 104
2, 38126, Control_c, 0, 64, 0
2, 38166, Control_c, 0, 64, 56
2, 38170, Control_c, 0, 64, 127
2, 38182, Note_on_c, 0, 65, 0
2, 38182, Note_on_c, 0, 61, 0
2, 38186, Note_on_c, 0, 53, 0
2, 38188, Note_on_c, 0, 56, 0
2, 38188, Note_on_c, 0, 49, 0
2, 38194, Note_on_c, 0, 68, 0
2, 38205, Note_on_c, 0, 73, 0
2, 38306, Note_on_c, 0, 80, 97
2, 38310, Note_on_c, 0, 68, 68
2, 38312, Note_on_c, 0, 73, 70
2, 38317, Note_on_c, 0, 53, 65
2, 38317, Note_on_c, 0, 61, 54
2, 38319, Note_on_c, 0, 65, 49
2, 38328, Control_c, 0, 64, 56
2, 38332, Control_c, 0, 64, 0
2, 38350, Note_on_c, 0, 53, 0
2, 38353, Note_on_c, 0, 61, 0
2, 38353, Note_on_c, 0, 65, 0
2, 38356, Control_c, 0, 64, 88
2, 38357, Note_on_c, 0, 80, 0
2, 38360, Control_c, 0, 64, 127
2, 38362, Note_on_c, 0, 73, 0
2, 38364, Note_on_c, 0, 68, 0
2, 38416, Note_on_c, 0, 80, 92
2, 38420, Note_on_c, 0, 68, 66
2, 38422, Note_on_c, 0, 73, 68
2, 38424, Note_on_c, 0, 65, 60
2, 38425, Note_on_c, 0, 53, 67
2, 38426, Note_on_c, 0, 61, 52
2, 38453, Control_c, 0, 64, 72
2, 38457, Control_c, 0, 64, 0
2, 38477, Control_c, 0, 64, 40
2, 38480, Control_c, 0, 64, 104
2, 38484, Control_c, 0, 64, 127
2, 38515, Note_on_c, 0, 53, 0
2, 38522, Note_on_c, 0, 65, 0
2, 38523, Note_on_c, 0, 68, 0
2, 38528, Note_on_c, 0, 80, 0
2, 38531, Note_on_c, 0, 61, 0
2, 38540, Note_on_c, 0, 73, 0
2, 38589, Control_c, 0, 64, 56
2, 38594, Control_c, 0, 64, 0
2, 38602, Note_on_c, 0, 82, 88
2, 38605, Note_on_c, 0, 70, 70
2, 38606, Control_c, 0, 64, 72
2, 38606, Note_on_c, 0, 54, 73
2, 38608, Note_on_c, 0, 73, 75
2, 38608, Note_on_c, 0, 66, 60
2, 38610, Control_c, 0, 64, 127
2, 38612, Note_on_c, 0, 61, 54
2, 38624, Note_on_c, 0, 61, 0
2, 38624, Note_on_c, 0, 70, 0
2, 38625, Note_on_c, 0, 66, 0
2, 38625, Note_on_c, 0, 54, 0
2, 38626, Note_on_c, 0, 82, 0
2, 38633, Note_on_c, 0, 73, 0
2, 38653, Note_on_c, 0, 80, 97
2, 38655, Note_on_c, 0, 68, 82
2, 38656, Note_on_c, 0, 61, 60
2, 38664, Note_on_c, 0, 65, 62
2, 38664, Note_on_c, 0, 53, 54
2, 38674, Note_on_c, 0, 53, 0
2, 38674, Note_on_c, 0, 68, 0
2, 38674, Note_on_c, 0, 65, 0
2, 38676, Note_on_c, 0, 61, 0
2, 38678, Note_on_c, 0, 80, 0
2, 38703, Control_c, 0, 64, 72
2, 38705, Note_on_c, 0, 80, 99
2, 38705, Note_on_c, 0, 68, 90
2, 38707, Control_c, 0, 64, 0
2, 38707, Note_on_c, 0, 73, 82
2, 38710, Note_on_c, 0, 61, 76
2, 38712, Note_on_c, 0, 53, 71
2, 38714, Note_on_c, 0, 65, 56
2, 38722, Note_on_c, 0, 53, 0
2, 38722, Note_on_c, 0, 68, 0
2, 38724, Note_on_c, 0, 73, 0
2, 38727, Control_c, 0, 64, 40
2, 38731, Control_c, 0, 64, 127
2, 38733, Note_on_c, 0, 65, 0
2, 38734, Note_on_c, 0, 61, 0
2, 38734, Note_on_c, 0, 80, 0
2, 38809, Note_on_c, 0, 89, 106
2, 38814, Note_on_c, 0, 80, 80
2, 38815, Note_on_c, 0, 77, 82
2, 38816, Control_c, 0, 64, 88
2, 38817, Note_on_c, 0, 61, 67
2, 38818, Note_on_c, 0, 73, 57
2, 38820, Control_c, 0, 64, 0
2, 38824, Note_on_c, 0, 68, 52
2, 38840, Control_c, 0, 64, 56
2, 38842, Note_on_c, 0, 61, 0
2, 38842, Note_on_c, 0, 77, 0
2, 38842, Note_on_c, 0, 89, 0
2, 38844, Note_on_c, 0, 73, 0
2, 38844, Control_c, 0, 64, 127
2, 38846, Note_on_c, 0, 68, 0
2, 38848, Note_on_c, 0, 80, 0
2, 38904, Note_on_c, 0, 87, 90
2, 38908, Note_on_c, 0, 75, 71
2, 38912, Note_on_c, 0, 68, 60
2, 38912, Note_on_c, 0, 72, 62
2, 38912, Control_c, 0, 64, 88
2, 38914, Note_on_c, 0, 60, 60
2, 38914, Note_on_c, 0, 80, 64
2, 38916, Control_c, 0, 64, 24
2, 38921, Control_c, 0, 64, 0
2, 38928, Note_on_c, 0, 60, 0
2, 38933, Note_on_c, 0, 72, 0
2, 38937, Control_c, 0, 64, 56
2, 38939, Note_on_c, 0, 80, 0
2, 38941, Note_on_c, 0, 68, 0
2, 38941, Control_c, 0, 64, 127
2, 38942, Note_on_c, 0, 87, 0
2, 38948, Note_on_c, 0, 75, 0
2, 39020, Note_on_c, 0, 85, 85
2, 39027, Note_on_c, 0, 77, 79
2, 39028, Note_on_c, 0, 73, 54
2, 39034, Note_on_c, 0, 58, 52
2, 39034, Note_on_c, 0, 70, 47
2, 39036, Note_on_c, 0, 65, 48
2, 39053, Control_c, 0, 64, 72
2, 39058, Control_c, 0, 64, 0
2, 39090, Control_c, 0, 64, 127
2, 39122, Note_on_c, 0, 77, 0
2, 39130, Note_on_c, 0, 58, 0
2, 39130, Note_on_c, 0, 65, 0
2, 39131, Note_on_c, 0, 70, 0
2, 39137, Note_on_c, 0, 85, 0
2, 39141, Note_on_c, 0, 73, 0
2, 39260, Note_on_c, 0, 84, 83
2, 39262, Note_on_c, 0, 56, 64
2, 39266, Note_on_c, 0, 75, 57
2, 39266, Note_on_c, 0, 66, 56
2, 39266, Note_on_c, 0, 72, 46
2, 39268, Note_on_c, 0, 80, 53
2, 39270, Note_on_c, 0, 68, 40
2, 39276, Control_c, 0, 64, 104
2, 39280, Control_c, 0, 64, 24
2, 39284, Control_c, 0, 64, 0
2, 39303, Control_c, 0, 64, 56
2, 39305, Note_on_c, 0, 66, 0
2, 39305, Note_on_c, 0, 84, 0
2, 39307, Note_on_c, 0, 72, 0
2, 39307, Control_c, 0, 64, 127
2, 39309, Note_on_c, 0, 75, 0
2, 39310, Note_on_c, 0, 56, 0
2, 39311, Note_on_c, 0, 68, 0
2, 39332, Note_on_c, 0, 80, 0
2, 39393, Note_on_c, 0, 85, 63
2, 39402, Note_on_c, 0, 73, 52
2, 39404, Note_on_c, 0, 77, 63
2, 39406, Note_on_c, 0, 68, 45
2, 39409, Note_on_c, 0, 65, 54
2, 39414, Note_on_c, 0, 61, 45
2, 39452, Control_c, 0, 64, 72
2, 39457, Control_c, 0, 64, 0
2, 39485, Control_c, 0, 64, 24
2, 39489, Control_c, 0, 64, 88
2, 39493, Control_c, 0, 64, 127
2, 39576, Note_on_c, 0, 85, 0
2, 39577, Note_on_c, 0, 65, 0
2, 39578, Note_on_c, 0, 68, 0
2, 39578, Note_on_c, 0, 77, 0
2, 39584, Note_on_c, 0, 73, 0
2, 39590, Note_on_c, 0, 61, 0
2, 39675, Note_on_c, 0, 75, 103
2, 39678, Note_on_c, 0, 63, 77
2, 39679, Control_c, 0, 64, 88
2, 39679, Note_on_c, 0, 68, 78
2, 39681, Note_on_c, 0, 60, 78
2, 39683, Note_on_c, 0, 56, 64
2, 39683, Control_c, 0, 64, 0
2, 39685, Note_on_c, 0, 48, 57
2, 39704, Note_on_c, 0, 60, 0
2, 39706, Note_on_c, 0, 48, 0
2, 39707, Control_c, 0, 64, 88
2, 39710, Note_on_c, 0, 56, 0
2, 39711, Note_on_c, 0, 63, 0
2, 39714, Note_on_c, 0, 68, 0
2, 39714, Control_c, 0, 64, 127
2, 39724, Note_on_c, 0, 75, 0
2, 39797, Note_on_c, 0, 75, 104
2, 39802, Note_on_c, 0, 68, 82
2, 39802, Note_on_c, 0, 63, 76
2, 39804, Note_on_c, 0, 56, 62
2, 39806, Note_on_c, 0, 60, 68
2, 39810, Note_on_c, 0, 48, 67
2, 39843, Control_c, 0, 64, 40
2, 39847, Control_c, 0, 64, 0
2, 39872, Control_c, 0, 64, 72
2, 39876, Control_c, 0, 64, 127
2, 39903, Note_on_c, 0, 60, 0
2, 39906, Note_on_c, 0, 48, 0
2, 39920, Note_on_c, 0, 56, 0
2, 39922, Note_on_c, 0, 63, 0
2, 39946, Note_on_c, 0, 75, 0
2, 39957, Note_on_c, 0, 68, 0
2, 39985, Control_c, 0, 64, 56
2, 39989, Control_c, 0, 64, 40
2, 39993, Note_on_c, 0, 73, 93
2, 39993, Note_on_c, 0, 58, 78
2, 39993, Note_on_c, 0, 46, 82
2, 39995, Note_on_c, 0, 61, 78
2, 39995, Note_on_c, 0, 68, 79
2, 39996, Note_on_c, 0, 56, 66
2, 40002, Control_c, 0, 64, 104
2, 40006, Control_c, 0, 64, 127
2, 40008, Note_on_c, 0, 61, 0
2, 40010, Note_on_c, 0, 58, 0
2, 40011, Note_on_c, 0, 46, 0
2, 40016, Note_on_c, 0, 56, 0
2, 40022, Note_on_c, 0, 73, 0
2, 40026, Note_on_c, 0, 68, 0
2, 40035, Note_on_c, 0, 75, 95
2, 40037, Note_on_c, 0, 56, 58
2, 40037, Note_on_c, 0, 60, 84
2, 40038, Note_on_c, 0, 63, 74
2, 40040, Note_on_c, 0, 48, 67
2, 40045, Note_on_c, 0, 68, 55
2, 40047, Note_on_c, 0, 60, 0
2, 40050, Note_on_c, 0, 48, 0
2, 40053, Note_on_c, 0, 56, 0
2, 40054, Note_on_c, 0, 63, 0
2, 40056, Note_on_c, 0, 68, 0
2, 40056, Note_on_c, 0, 75, 0
2, 40081, Control_c, 0, 64, 88
2, 40086, Control_c, 0, 64, 0
2, 40087, Note_on_c, 0, 72, 104
2, 40089, Note_on_c, 0, 60, 88
2, 40093, Note_on_c, 0, 56, 65
2, 40094, Note_on_c, 0, 44, 76
2, 40109, Note_on_c, 0, 60, 0
2, 40110, Control_c, 0, 64, 40
2, 40114, Control_c, 0, 64, 104
2, 40115, Note_on_c, 0, 44, 0
2, 40116, Note_on_c, 0, 72, 0
2, 40118, Control_c, 0, 64, 127
2, 40120, Note_on_c, 0, 56, 0
2, 40183, Note_on_c, 0, 75, 108
2, 40184, Note_on_c, 0, 68, 91
2, 40186, Note_on_c, 0, 63, 81
2, 40187, Control_c, 0, 64, 24
2, 40188, Note_on_c, 0, 60, 82
2, 40188, Note_on_c, 0, 48, 88
2, 40189, Note_on_c, 0, 56, 74
2, 40191, Control_c, 0, 64, 0
2, 40199, Note_on_c, 0, 63, 0
2, 40202, Note_on_c, 0, 48, 0
2, 40203, Control_c, 0, 64, 56
2, 40207, Control_c, 0, 64, 104
2, 40211, Note_on_c, 0, 60, 0
2, 40211, Note_on_c, 0, 68, 0
2, 40215, Note_on_c, 0, 75, 0
2, 40215, Control_c, 0, 64, 127
2, 40219, Note_on_c, 0, 56, 0
2, 40275, Note_on_c, 0, 77, 113
2, 40277, Note_on_c, 0, 68, 89
2, 40277, Note_on_c, 0, 65, 90
2, 40280, Note_on_c, 0, 61, 74
2, 40280, Control_c, 0, 64, 56
2, 40280, Note_on_c, 0, 49, 82
2, 40281, Note_on_c, 0, 56, 69
2, 40284, Control_c, 0, 64, 0
2, 40300, Control_c, 0, 64, 72
2, 40302, Note_on_c, 0, 65, 0
2, 40304, Control_c, 0, 64, 127
2, 40306, Note_on_c, 0, 49, 0
2, 40308, Note_on_c, 0, 77, 0
2, 40318, Note_on_c, 0, 61, 0
2, 40321, Note_on_c, 0, 56, 0
2, 40347, Note_on_c, 0, 68, 0
2, 40366, Note_on_c, 0, 78, 106
2, 40368, Note_on_c, 0, 68, 85
2, 40369, Note_on_c, 0, 66, 82
2, 40372, Note_on_c, 0, 63, 65
2, 40372, Note_on_c, 0, 56, 66
2, 40373, Control_c, 0, 64, 88
2, 40373, Note_on_c, 0, 51, 73
2, 40377, Control_c, 0, 64, 0
2, 40389, Control_c, 0, 64, 40
2, 40393, Control_c, 0, 64, 104
2, 40395, Note_on_c, 0, 68, 0
2, 40396, Note_on_c, 0, 51, 0
2, 40397, Control_c, 0, 64, 127
2, 40399, Note_on_c, 0, 66, 0
2, 40401, Note_on_c, 0, 56, 0
2, 40412, Note_on_c, 0, 63, 0
2, 40414, Note_on_c, 0, 78, 0
2, 40460, Note_on_c, 0, 80, 105
2, 40463, Note_on_c, 0, 68, 91
2, 40469, Note_on_c, 0, 53, 65
2, 40469, Note_on_c, 0, 56, 60
2, 40469, Control_c, 0, 64, 104
2, 40470, Note_on_c, 0, 65, 54
2, 40474, Control_c, 0, 64, 24
2, 40478, Control_c, 0, 64, 0
2, 40490, Note_on_c, 0, 53, 0
2, 40494, Note_on_c, 0, 65, 0
2, 40494, Control_c, 0, 64, 40
2, 40495, Note_on_c, 0, 68, 0
2, 40498, Control_c, 0, 64, 127
2, 40499, Note_on_c, 0, 56, 0
2, 40509, Note_on_c, 0, 80, 0
2, 40568, Note_on_c, 0, 82, 95
2, 40571, Note_on_c, 0, 70, 70
2, 40572, Note_on_c, 0, 68, 60
2, 40578, Note_on_c, 0, 66, 57
2, 40580, Note_on_c, 0, 54, 58
2, 40580, Note_on_c, 0, 56, 55
2, 40586, Control_c, 0, 64, 88
2, 40590, Control_c, 0, 64, 0
2, 40604, Note_on_c, 0, 68, 0
2, 40615, Note_on_c, 0, 66, 0
2, 40615, Control_c, 0, 64, 127
2, 40618, Note_on_c, 0, 82, 0
2, 40621, Note_on_c, 0, 54, 0
2, 40623, Note_on_c, 0, 56, 0
2, 40625, Note_on_c, 0, 70, 0
2, 40700, Note_on_c, 0, 75, 89
2, 40703, Note_on_c, 0, 63, 57
2, 40705, Note_on_c, 0, 68, 65
2, 40710, Note_on_c, 0, 56, 50
2, 40712, Note_on_c, 0, 48, 64
2, 40712, Note_on_c, 0, 60, 55
2, 40732, Control_c, 0, 64, 72
2, 40736, Control_c, 0, 64, 0
2, 40799, Control_c, 0, 64, 56
2, 40803, Control_c, 0, 64, 104
2, 40808, Control_c, 0, 64, 127
2, 40842, Note_on_c, 0, 63, 0
2, 40844, Note_on_c, 0, 68, 0
2, 40854, Note_on_c, 0, 75, 0
2, 40944, Note_on_c, 0, 76, 82
2, 40947, Note_on_c, 0, 64, 54
2, 40949, Note_on_c, 0, 68, 57
2, 40966, Control_c, 0, 64, 40
2, 40970, Control_c, 0, 64, 0
2, 40994, Control_c, 0, 64, 72
2, 40996, Note_on_c, 0, 64, 0
2, 40997, Control_c, 0, 64, 127
2, 40999, Note_on_c, 0, 68, 0
2, 41001, Note_on_c, 0, 48, 0
2, 41007, Note_on_c, 0, 76, 0
2, 41012, Note_on_c, 0, 60, 0
2, 41021, Note_on_c, 0, 56, 0
2, 41084, Note_on_c, 0, 77, 92
2, 41086, Note_on_c, 0, 68, 69
2, 41086, Note_on_c, 0, 65, 68
2, 41090, Note_on_c, 0, 61, 49
2, 41094, Note_on_c, 0, 56, 51
2, 41094, Note_on_c, 0, 49, 55
2, 41107, Control_c, 0, 64, 104
2, 41111, Control_c, 0, 64, 24
2, 41115, Control_c, 0, 64, 0
2, 41142, Control_c, 0, 64, 88
2, 41147, Control_c, 0, 64, 127
2, 41160, Note_on_c, 0, 68, 0
2, 41189, Note_on_c, 0, 65, 0
2, 41251, Note_on_c, 0, 77, 0
2, 41270, Note_on_c, 0, 78, 91
2, 41288, Note_on_c, 0, 56, 0
2, 41288, Note_on_c, 0, 49, 0
2, 41294, Note_on_c, 0, 61, 0
2, 41301, Note_on_c, 0, 78, 0
2, 41313, Note_on_c, 0, 77, 98
2, 41331, Note_on_c, 0, 77, 0
2, 41359, Note_on_c, 0, 75, 97
2, 41361, Note_on_c, 0, 63, 66
2, 41363, Note_on_c, 0, 68, 74
2, 41367, Note_on_c, 0, 56, 54
2, 41368, Note_on_c, 0, 48, 75
2, 41369, Note_on_c, 0, 60, 60
2, 41393, Control_c, 0, 64, 24
2, 41397, Control_c, 0, 64, 0
2, 41421, Control_c, 0, 64, 56
2, 41425, Control_c, 0, 64, 127
2, 41438, Note_on_c, 0, 60, 0
2, 41446, Note_on_c, 0, 63, 0
2, 41446, Note_on_c, 0, 48, 0
2, 41456, Note_on_c, 0, 75, 0
2, 41524, Note_on_c, 0, 68, 0
2, 41524, Note_on_c, 0, 56, 0
2, 41537, Note_on_c, 0, 74, 99
2, 41539, Note_on_c, 0, 62, 79
2, 41543, Note_on_c, 0, 59, 58
2, 41547, Note_on_c, 0, 47, 62
2, 41561, Note_on_c, 0, 62, 0
2, 41563, Note_on_c, 0, 74, 0
2, 41563, Note_on_c, 0, 47, 0
2, 41566, Note_on_c, 0, 59, 0
2, 41638, Note_on_c, 0, 73, 94
2, 41642, Note_on_c, 0, 61, 63
2, 41644, Note_on_c, 0, 46, 66
2, 41645, Note_on_c, 0, 58, 53
2, 41645, Note_on_c, 0, 67, 76
2, 41675, Control_c, 0, 64, 40
2, 41679, Control_c, 0, 64, 0
2, 41708, Control_c, 0, 64, 72
2, 41712, Control_c, 0, 64, 127
2, 41734, Note_on_c, 0, 73, 0
2, 41736, Note_on_c, 0, 61, 0
2, 41764, Note_on_c, 0, 67, 0
2, 41777, Note_on_c, 0, 58, 0
2, 41809, Note_on_c, 0, 72, 100
2, 41812, Note_on_c, 0, 61, 66
2, 41815, Note_on_c, 0, 67, 76
2, 41815, Note_on_c, 0, 58, 46
2, 41817, Note_on_c, 0, 51, 64
2, 41830, Note_on_c, 0, 46, 0
2, 41836, Note_on_c, 0, 72, 0
2, 41838, Note_on_c, 0, 58, 0
2, 41838, Note_on_c, 0, 51, 0
2, 41843, Note_on_c, 0, 67, 0
2, 41847, Note_on_c, 0, 61, 0
2, 41854, Note_on_c, 0, 70, 98
2, 41876, Note_on_c, 0, 70, 0
2, 41915, Note_on_c, 0, 75, 102
2, 41918, Note_on_c, 0, 63, 67
2, 41919, Note_on_c, 0, 66, 78
2, 41920, Note_on_c, 0, 51, 66
2, 41925, Note_on_c, 0, 45, 62
2, 41926, Note_on_c, 0, 57, 53
2, 41938, Control_c, 0, 64, 88
2, 41942, Control_c, 0, 64, 0
2, 41977, Control_c, 0, 64, 88
2, 41982, Control_c, 0, 64, 127
2, 42014, Note_on_c, 0, 51, 0
2, 42024, Note_on_c, 0, 75, 0
2, 42045, Note_on_c, 0, 63, 0
2, 42060, Note_on_c, 0, 66, 0
2, 42107, Note_on_c, 0, 73, 88
2, 42111, Note_on_c, 0, 51, 71
2, 42112, Note_on_c, 0, 66, 74
2, 42115, Note_on_c, 0, 63, 57
2, 42118, Note_on_c, 0, 45, 0
2, 42136, Note_on_c, 0, 57, 0
2, 42142, Note_on_c, 0, 51, 0
2, 42142, Note_on_c, 0, 73, 0
2, 42145, Note_on_c, 0, 66, 0
2, 42147, Note_on_c, 0, 63, 0
2, 42155, Note_on_c, 0, 72, 97
2, 42182, Note_on_c, 0, 72, 0
2, 42211, Note_on_c, 0, 73, 91
2, 42216, Note_on_c, 0, 67, 75
2, 42217, Note_on_c, 0, 61, 54
2, 42221, Note_on_c, 0, 58, 50
2, 42223, Note_on_c, 0, 51, 57
2, 42227, Note_on_c, 0, 46, 49
2, 42248, Control_c, 0, 64, 56
2, 42252, Control_c, 0, 64, 0
2, 42284, Control_c, 0, 64, 56
2, 42288, Control_c, 0, 64, 104
2, 42292, Control_c, 0, 64, 127
2, 42319, Note_on_c, 0, 51, 0
2, 42323, Note_on_c, 0, 73, 0
2, 42325, Note_on_c, 0, 61, 0
2, 42327, Note_on_c, 0, 67, 0
2, 42411, Note_on_c, 0, 72, 82
2, 42411, Note_on_c, 0, 51, 62
2, 42413, Note_on_c, 0, 67, 65
2, 42417, Note_on_c, 0, 61, 45
2, 42430, Note_on_c, 0, 51, 0
2, 42430, Note_on_c, 0, 72, 0
2, 42430, Note_on_c, 0, 58, 0
2, 42432, Note_on_c, 0, 46, 0
2, 42446, Note_on_c, 0, 67, 0
2, 42457, Note_on_c, 0, 70, 87
2, 42471, Note_on_c, 0, 61, 0
2, 42479, Note_on_c, 0, 70, 0
2, 42515, Note_on_c, 0, 68, 80
2, 42522, Note_on_c, 0, 60, 71
2, 42527, Note_on_c, 0, 44, 60
2, 42529, Note_on_c, 0, 51, 54
2, 42533, Note_on_c, 0, 56, 37
2, 42538, Control_c, 0, 64, 56
2, 42542, Control_c, 0, 64, 0
2, 42571, Control_c, 0, 64, 56
2, 42575, Control_c, 0, 64, 127
2, 42614, Note_on_c, 0, 68, 0
2, 42635, Note_on_c, 0, 67, 80
2, 42647, Control_c, 0, 64, 56
2, 42651, Control_c, 0, 64, 0
2, 42676, Control_c, 0, 64, 56
2, 42680, Control_c, 0, 64, 127
2, 42734, Note_on_c, 0, 67, 0
2, 42736, Note_on_c, 0, 66, 74
2, 42736, Note_on_c, 0, 56, 61
2, 42744, Control_c, 0, 64, 104
2, 42748, Control_c, 0, 64, 24
2, 42752, Control_c, 0, 64, 0
2, 42776, Control_c, 0, 64, 56
2, 42780, Note_on_c, 0, 60, 0
2, 42780, Control_c, 0, 64, 127
2, 42781, Note_on_c, 0, 66, 0
2, 42781, Note_on_c, 0, 56, 0
2, 42781, Note_on_c, 0, 56, 0
2, 42784, Note_on_c, 0, 51, 0
2, 42791, Note_on_c, 0, 44, 0
2, 42889, Note_on_c, 0, 65, 79
2, 42893, Note_on_c, 0, 53, 53
2, 42894, Note_on_c, 0, 56, 71
2, 42897, Note_on_c, 0, 37, 52
2, 42899, Note_on_c, 0, 49, 47
2, 42903, Note_on_c, 0, 44, 46
2, 42914, Control_c, 0, 64, 72
2, 42918, Control_c, 0, 64, 0
2, 42957, Control_c, 0, 64, 72
2, 42962, Control_c, 0, 64, 127
2, 42990, Note_on_c, 0, 56, 0
2, 43007, Note_on_c, 0, 53, 0
2, 43060, Note_on_c, 0, 65, 0
2, 43091, Note_on_c, 0, 66, 90
2, 43123, Note_on_c, 0, 66, 0
2, 43124, Note_on_c, 0, 37, 0
2, 43134, Note_on_c, 0, 44, 0
2, 43134, Note_on_c, 0, 65, 94
2, 43135, Note_on_c, 0, 49, 0
2, 43155, Note_on_c, 0, 65, 0
2, 43182, Note_on_c, 0, 63, 91
2, 43188, Note_on_c, 0, 54, 69
2, 43188, Note_on_c, 0, 56, 68
2, 43190, Note_on_c, 0, 44, 57
2, 43192, Note_on_c, 0, 48, 71
2, 43194, Note_on_c, 0, 39, 54
2, 43200, Control_c, 0, 64, 24
2, 43203, Control_c, 0, 64, 0
2, 43260, Control_c, 0, 64, 56
2, 43264, Control_c, 0, 64, 104
2, 43268, Control_c, 0, 64, 127
2, 43271, Note_on_c, 0, 56, 0
2, 43282, Note_on_c, 0, 54, 0
2, 43328, Note_on_c, 0, 63, 0
2, 43329, Note_on_c, 0, 39, 0
2, 43336, Note_on_c, 0, 48, 0
2, 43349, Note_on_c, 0, 44, 0
2, 43364, Note_on_c, 0, 65, 87
2, 43388, Note_on_c, 0, 65, 0
2, 43403, Note_on_c, 0, 63, 89
2, 43428, Note_on_c, 0, 63, 0
2, 43452, Note_on_c, 0, 61, 91
2, 43453, Control_c, 0, 64, 104
2, 43455, Note_on_c, 0, 56, 73
2, 43458, Control_c, 0, 64, 0
2, 43458, Note_on_c, 0, 53, 73
2, 43462, Note_on_c, 0, 41, 71
2, 43462, Note_on_c, 0, 44, 57
2, 43465, Note_on_c, 0, 49, 50
2, 43486, Note_on_c, 0, 53, 0
2, 43489, Control_c, 0, 64, 104
2, 43490, Note_on_c, 0, 41, 0
2, 43492, Note_on_c, 0, 44, 0
2, 43492, Note_on_c, 0, 56, 0
2, 43494, Note_on_c, 0, 49, 0
2, 43494, Control_c, 0, 64, 127
2, 43503, Note_on_c, 0, 61, 0
2, 43545, Note_on_c, 0, 61, 96
2, 43547, Control_c, 0, 64, 24
2, 43548, Note_on_c, 0, 58, 74
2, 43550, Note_on_c, 0, 54, 75
2, 43550, Note_on_c, 0, 49, 70
2, 43550, Control_c, 0, 64, 0
2, 43551, Note_on_c, 0, 42, 66
2, 43553, Note_on_c, 0, 46, 67
2, 43573, Note_on_c, 0, 42, 0
2, 43575, Note_on_c, 0, 46, 0
2, 43575, Control_c, 0, 64, 72
2, 43576, Note_on_c, 0, 54, 0
2, 43578, Note_on_c, 0, 58, 0
2, 43579, Note_on_c, 0, 49, 0
2, 43579, Control_c, 0, 64, 127
2, 43587, Note_on_c, 0, 61, 0
2, 43643, Control_c, 0, 64, 104
2, 43646, Note_on_c, 0, 63, 97
2, 43648, Control_c, 0, 64, 0
2, 43648, Note_on_c, 0, 51, 87
2, 43650, Note_on_c, 0, 61, 73
2, 43653, Note_on_c, 0, 49, 62
2, 43654, Note_on_c, 0, 43, 74
2, 43655, Note_on_c, 0, 58, 50
2, 43656, Note_on_c, 0, 46, 62
2, 43687, Note_on_c, 0, 43, 0
2, 43690, Note_on_c, 0, 46, 0
2, 43691, Note_on_c, 0, 58, 0
2, 43692, Note_on_c, 0, 49, 0
2, 43692, Control_c, 0, 64, 127
2, 43695, Note_on_c, 0, 51, 0
2, 43697, Note_on_c, 0, 61, 0
2, 43702, Note_on_c, 0, 63, 0
2, 43762, Note_on_c, 0, 56, 85
2, 43772, Note_on_c, 0, 44, 53
2, 43772, Note_on_c, 0, 48, 69
2, 43773, Note_on_c, 0, 51, 43
2, 43776, Control_c, 0, 64, 56
2, 43780, Control_c, 0, 64, 0
2, 43829, Control_c, 0, 64, 72
2, 43832, Control_c, 0, 64, 127
2, 43856, Note_on_c, 0, 51, 0
2, 43862, Note_on_c, 0, 56, 0
2, 43874, Note_on_c, 0, 48, 0
2, 43884, Note_on_c, 0, 44, 0
2, 43966, Note_on_c, 0, 68, 95
2, 43970, Note_on_c, 0, 56, 75
2, 43972, Note_on_c, 0, 49, 59
2, 43972, Note_on_c, 0, 61, 74
2, 43974, Note_on_c, 0, 53, 69
2, 43974, Note_on_c, 0, 41, 69
2, 43974, Control_c, 0, 64, 104
2, 43978, Control_c, 0, 64, 0
2, 44002, Control_c, 0, 64, 40
2, 44003, Note_on_c, 0, 53, 0
2, 44005, Note_on_c, 0, 49, 0
2, 44006, Note_on_c, 0, 41, 0
2, 44006, Control_c, 0, 64, 127
2, 44014, Note_on_c, 0, 56, 0
2, 44018, Note_on_c, 0, 61, 0
2, 44020, Note_on_c, 0, 68, 0
2, 44069, Note_on_c, 0, 68, 95
2, 44072, Note_on_c, 0, 56, 80
2, 44074, Note_on_c, 0, 49, 68
2, 44074, Note_on_c, 0, 61, 74
2, 44075, Note_on_c, 0, 53, 74
2, 44078, Note_on_c, 0, 41, 66
2, 44099, Control_c, 0, 64, 104
2, 44103, Control_c, 0, 64, 24
2, 44107, Control_c, 0, 64, 0
2, 44128, Control_c, 0, 64, 56
2, 44132, Control_c, 0, 64, 127
2, 44166, Note_on_c, 0, 41, 0
2, 44173, Note_on_c, 0, 56, 0
2, 44182, Note_on_c, 0, 53, 0
2, 44184, Note_on_c, 0, 61, 0
2, 44186, Note_on_c, 0, 68, 0
2, 44198, Note_on_c, 0, 49, 0
2, 44232, Control_c, 0, 64, 72
2, 44236, Control_c, 0, 64, 24
2, 44240, Control_c, 0, 64, 0
2, 44249, Note_on_c, 0, 70, 97
2, 44252, Note_on_c, 0, 58, 77
2, 44252, Control_c, 0, 64, 72
2, 44254, Note_on_c, 0, 61, 75
2, 44254, Note_on_c, 0, 54, 63
2, 44254, Note_on_c, 0, 42, 68
2, 44256, Control_c, 0, 64, 127
2, 44260, Note_on_c, 0, 49, 49
2, 44270, Note_on_c, 0, 49, 0
2, 44270, Note_on_c, 0, 54, 0
2, 44270, Note_on_c, 0, 42, 0
2, 44272, Note_on_c, 0, 70, 0
2, 44272, Note_on_c, 0, 58, 0
2, 44273, Note_on_c, 0, 61, 0
2, 44292, Note_on_c, 0, 68, 98
2, 44293, Note_on_c, 0, 49, 75
2, 44294, Note_on_c, 0, 56, 84
2, 44299, Note_on_c, 0, 53, 72
2, 44302, Note_on_c, 0, 41, 63
2, 44307, Note_on_c, 0, 53, 0
2, 44310, Note_on_c, 0, 56, 0
2, 44311, Note_on_c, 0, 41, 0
2, 44312, Note_on_c, 0, 49, 0
2, 44314, Note_on_c, 0, 68, 0
2, 44337, Control_c, 0, 64, 88
2, 44339, Note_on_c, 0, 68, 102
2, 44340, Note_on_c, 0, 56, 92
2, 44341, Control_c, 0, 64, 0
2, 44341, Note_on_c, 0, 61, 82
2, 44343, Note_on_c, 0, 49, 85
2, 44348, Note_on_c, 0, 53, 72
2, 44348, Note_on_c, 0, 41, 67
2, 44349, Note_on_c, 0, 61, 0
2, 44354, Note_on_c, 0, 56, 0
2, 44357, Note_on_c, 0, 41, 0
2, 44357, Control_c, 0, 64, 56
2, 44361, Control_c, 0, 64, 127
2, 44362, Note_on_c, 0, 49, 0
2, 44364, Note_on_c, 0, 53, 0
2, 44364, Note_on_c, 0, 68, 0
2, 44430, Note_on_c, 0, 77, 112
2, 44432, Note_on_c, 0, 68, 84
2, 44434, Note_on_c, 0, 65, 81
2, 44434, Control_c, 0, 64, 40
2, 44436, Note_on_c, 0, 61, 67
2, 44438, Note_on_c, 0, 49, 71
2, 44438, Control_c, 0, 64, 0
2, 44438, Note_on_c, 0, 56, 65
2, 44458, Control_c, 0, 64, 104
2, 44460, Note_on_c, 0, 49, 0
2, 44461, Note_on_c, 0, 77, 0
2, 44462, Control_c, 0, 64, 127
2, 44465, Note_on_c, 0, 61, 0
2, 44466, Note_on_c, 0, 65, 0
2, 44466, Note_on_c, 0, 56, 0
2, 44483, Note_on_c, 0, 68, 0
2, 44523, Note_on_c, 0, 75, 105
2, 44526, Note_on_c, 0, 63, 85
2, 44527, Control_c, 0, 64, 88
2, 44527, Note_on_c, 0, 56, 71
2, 44528, Note_on_c, 0, 60, 84
2, 44529, Note_on_c, 0, 68, 76
2, 44531, Note_on_c, 0, 48, 84
2, 44531, Control_c, 0, 64, 0
2, 44548, Note_on_c, 0, 60, 0
2, 44550, Note_on_c, 0, 48, 0
2, 44555, Control_c, 0, 64, 104
2, 44556, Note_on_c, 0, 68, 0
2, 44557, Note_on_c, 0, 56, 0
2, 44559, Control_c, 0, 64, 127
2, 44560, Note_on_c, 0, 75, 0
2, 44566, Note_on_c, 0, 63, 0
2, 44635, Note_on_c, 0, 73, 93
2, 44639, Note_on_c, 0, 65, 84
2, 44639, Note_on_c, 0, 61, 66
2, 44641, Note_on_c, 0, 58, 66
2, 44643, Note_on_c, 0, 46, 66
2, 44645, Note_on_c, 0, 53, 74
2, 44664, Control_c, 0, 64, 40
2, 44668, Control_c, 0, 64, 0
2, 44704, Control_c, 0, 64, 72
2, 44708, Control_c, 0, 64, 127
2, 44732, Note_on_c, 0, 53, 0
2, 44738, Note_on_c, 0, 65, 0
2, 44738, Note_on_c, 0, 58, 0
2, 44740, Note_on_c, 0, 46, 0
2, 44746, Note_on_c, 0, 61, 0
2, 44750, Note_on_c, 0, 73, 0
2, 44847, Note_on_c, 0, 72, 91
2, 44850, Note_on_c, 0, 60, 63
2, 44852, Note_on_c, 0, 68, 66
2, 44852, Note_on_c, 0, 63, 63
2, 44854, Note_on_c, 0, 44, 60
2, 44857, Note_on_c, 0, 56, 42
2, 44858, Note_on_c, 0, 54, 53
2, 44866, Control_c, 0, 64, 104
2, 44870, Control_c, 0, 64, 0
2, 44902, Control_c, 0, 64, 88
2, 44903, Note_on_c, 0, 63, 0
2, 44906, Control_c, 0, 64, 127
2, 44907, Note_on_c, 0, 44, 0
2, 44907, Note_on_c, 0, 54, 0
2, 44908, Note_on_c, 0, 56, 0
2, 44909, Note_on_c, 0, 72, 0
2, 44909, Note_on_c, 0, 60, 0
2, 44920, Note_on_c, 0, 68, 0
2, 44982, Note_on_c, 0, 73, 80
2, 44986, Note_on_c, 0, 61, 56
2, 44992, Note_on_c, 0, 56, 46
2, 44992, Note_on_c, 0, 68, 49
2, 44992, Note_on_c, 0, 65, 54
2, 44993, Note_on_c, 0, 49, 51
2, 44994, Note_on_c, 0, 53, 55
2, 45011, Control_c, 0, 64, 56
2, 45015, Control_c, 0, 64, 0
2, 45071, Control_c, 0, 64, 127
2, 45087, Note_on_c, 0, 65, 0
2, 45092, Note_on_c, 0, 61, 0
2, 45098, Note_on_c, 0, 68, 0
2, 45103, Note_on_c, 0, 53, 0
2, 45106, Note_on_c, 0, 73, 0
2, 45108, Note_on_c, 0, 49, 0
2, 45114, Note_on_c, 0, 56, 0
2, 45215, Note_on_c, 0, 80, 93
2, 45216, Control_c, 0, 64, 88
2, 45218, Note_on_c, 0, 65, 65
2, 45220, Note_on_c, 0, 68, 69
2, 45220, Note_on_c, 0, 61, 63
2, 45220, Note_on_c, 0, 73, 74
2, 45221, Control_c, 0, 64, 0
2, 45224, Note_on_c, 0, 53, 70
2, 45249, Control_c, 0, 64, 72
2, 45253, Control_c, 0, 64, 127
2, 45257, Note_on_c, 0, 53, 0
2, 45259, Note_on_c, 0, 61, 0
2, 45267, Note_on_c, 0, 65, 0
2, 45268, Note_on_c, 0, 68, 0
2, 45271, Note_on_c, 0, 73, 0
2, 45274, Note_on_c, 0, 80, 0
2, 45328, Note_on_c, 0, 80, 92
2, 45332, Note_on_c, 0, 65, 62
2, 45333, Note_on_c, 0, 68, 66
2, 45334, Note_on_c, 0, 73, 73
2, 45334, Note_on_c, 0, 61, 54
2, 45337, Note_on_c, 0, 53, 46
2, 45358, Control_c, 0, 64, 40
2, 45362, Control_c, 0, 64, 0
2, 45386, Control_c, 0, 64, 88
2, 45390, Control_c, 0, 64, 127
2, 45413, Note_on_c, 0, 53, 0
2, 45426, Note_on_c, 0, 68, 0
2, 45433, Note_on_c, 0, 65, 0
2, 45448, Note_on_c, 0, 73, 0
2, 45450, Note_on_c, 0, 80, 0
2, 45462, Note_on_c, 0, 61, 0
2, 45507, Control_c, 0, 64, 88
2, 45511, Control_c, 0, 64, 24
2, 45515, Control_c, 0, 64, 0
2, 45518, Note_on_c, 0, 82, 83
2, 45524, Note_on_c, 0, 70, 63
2, 45526, Note_on_c, 0, 66, 58
2, 45526, Note_on_c, 0, 73, 73
2, 45527, Control_c, 0, 64, 72
2, 45528, Note_on_c, 0, 61, 63
2, 45530, Note_on_c, 0, 54, 54
2, 45531, Control_c, 0, 64, 127
2, 45541, Note_on_c, 0, 70, 0
2, 45543, Note_on_c, 0, 82, 0
2, 45544, Note_on_c, 0, 54, 0
2, 45547, Note_on_c, 0, 66, 0
2, 45554, Note_on_c, 0, 61, 0
2, 45554, Note_on_c, 0, 73, 0
2, 45566, Note_on_c, 0, 61, 35
2, 45567, Note_on_c, 0, 80, 92
2, 45569, Note_on_c, 0, 68, 80
2, 45575, Note_on_c, 0, 65, 70
2, 45578, Note_on_c, 0, 53, 61
2, 45588, Note_on_c, 0, 53, 0
2, 45591, Note_on_c, 0, 68, 0
2, 45592, Note_on_c, 0, 65, 0
2, 45593, Note_on_c, 0, 80, 0
2, 45594, Note_on_c, 0, 61, 0
2, 45620, Control_c, 0, 64, 72
2, 45624, Note_on_c, 0, 80, 94
2, 45624, Control_c, 0, 64, 0
2, 45625, Note_on_c, 0, 68, 82
2, 45627, Note_on_c, 0, 73, 76
2, 45628, Note_on_c, 0, 61, 70
2, 45634, Note_on_c, 0, 53, 57
2, 45636, Note_on_c, 0, 65, 48
2, 45640, Note_on_c, 0, 68, 0
2, 45640, Control_c, 0, 64, 24
2, 45642, Note_on_c, 0, 53, 0
2, 45644, Note_on_c, 0, 73, 0
2, 45644, Control_c, 0, 64, 104
2, 45648, Control_c, 0, 64, 127
2, 45650, Note_on_c, 0, 80, 0
2, 45652, Note_on_c, 0, 61, 0
2, 45654, Note_on_c, 0, 65, 0
2, 45727, Note_on_c, 0, 89, 94
2, 45730, Note_on_c, 0, 80, 80
2, 45730, Note_on_c, 0, 77, 78
2, 45732, Note_on_c, 0, 73, 66
2, 45733, Control_c, 0, 64, 72
2, 45733, Note_on_c, 0, 61, 64
2, 45737, Control_c, 0, 64, 24
2, 45738, Note_on_c, 0, 68, 53
2, 45745, Control_c, 0, 64, 40
2, 45748, Control_c, 0, 64, 88
2, 45752, Control_c, 0, 64, 127
2, 45756, Note_on_c, 0, 89, 0
2, 45758, Note_on_c, 0, 61, 0
2, 45758, Note_on_c, 0, 77, 0
2, 45767, Note_on_c, 0, 68, 0
2, 45768, Note_on_c, 0, 73, 0
2, 45776, Note_on_c, 0, 80, 0
2, 45832, Note_on_c, 0, 87, 90
2, 45837, Note_on_c, 0, 75, 75
2, 45838, Note_on_c, 0, 80, 75
2, 45839, Note_on_c, 0, 68, 60
2, 45843, Note_on_c, 0, 72, 64
2, 45845, Note_on_c, 0, 60, 68
2, 45845, Control_c, 0, 64, 40
2, 45849, Control_c, 0, 64, 0
2, 45867, Note_on_c, 0, 80, 0
2, 45868, Note_on_c, 0, 72, 0
2, 45868, Note_on_c, 0, 60, 0
2, 45870, Note_on_c, 0, 68, 0
2, 45870, Control_c, 0, 64, 56
2, 45874, Note_on_c, 0, 87, 0
2, 45874, Control_c, 0, 64, 127
2, 45882, Note_on_c, 0, 75, 0
2, 45959, Note_on_c, 0, 85, 85
2, 45965, Note_on_c, 0, 77, 79
2, 45965, Note_on_c, 0, 73, 55
2, 45968, Note_on_c, 0, 58, 56
2, 45971, Note_on_c, 0, 70, 45
2, 45978, Note_on_c, 0, 65, 51
2, 45995, Control_c, 0, 64, 104
2, 45999, Control_c, 0, 64, 40
2, 46003, Control_c, 0, 64, 0
2, 46035, Control_c, 0, 64, 56
2, 46039, Control_c, 0, 64, 127
2, 46074, Note_on_c, 0, 77, 0
2, 46079, Note_on_c, 0, 70, 0
2, 46079, Note_on_c, 0, 85, 0
2, 46079, Note_on_c, 0, 65, 0
2, 46092, Note_on_c, 0, 58, 0
2, 46094, Note_on_c, 0, 73, 0
2, 46208, Note_on_c, 0, 56, 53
2, 46209, Note_on_c, 0, 84, 73
2, 46213, Note_on_c, 0, 66, 57
2, 46213, Note_on_c, 0, 72, 48
2, 46213, Note_on_c, 0, 68, 43
2, 46216, Note_on_c, 0, 80, 59
2, 46216, Note_on_c, 0, 75, 62
2, 46232, Control_c, 0, 64, 104
2, 46236, Control_c, 0, 64, 40
2, 46241, Control_c, 0, 64, 0
2, 46269, Control_c, 0, 64, 88
2, 46273, Control_c, 0, 64, 127
2, 46275, Note_on_c, 0, 72, 0
2, 46276, Note_on_c, 0, 84, 0
2, 46279, Note_on_c, 0, 75, 0
2, 46281, Note_on_c, 0, 56, 0
2, 46282, Note_on_c, 0, 66, 0
2, 46282, Note_on_c, 0, 68, 0
2, 46296, Note_on_c, 0, 80, 0
2, 46358, Note_on_c, 0, 61, 43
2, 46358, Note_on_c, 0, 65, 45
2, 46358, Note_on_c, 0, 73, 45
2, 46358, Note_on_c, 0, 68, 43
2, 46358, Note_on_c, 0, 77, 62
2, 46358, Note_on_c, 0, 85, 66
2, 46406, Control_c, 0, 64, 104
2, 46410, Control_c, 0, 64, 56
2, 46414, Control_c, 0, 64, 0
2, 46447, Control_c, 0, 64, 40
2, 46451, Control_c, 0, 64, 88
2, 46455, Control_c, 0, 64, 127
2, 46476, Note_on_c, 0, 65, 0
2, 46480, Note_on_c, 0, 68, 0
2, 46482, Note_on_c, 0, 61, 0
2, 46485, Note_on_c, 0, 77, 0
2, 46487, Note_on_c, 0, 73, 0
2, 46491, Note_on_c, 0, 85, 0
2, 46713, Control_c, 0, 64, 88
2, 46715, Note_on_c, 0, 72, 86
2, 46716, Control_c, 0, 64, 0
2, 46717, Note_on_c, 0, 63, 62
2, 46717, Note_on_c, 0, 68, 58
2, 46718, Note_on_c, 0, 56, 60
2, 46749, Control_c, 0, 64, 88
2, 46753, Control_c, 0, 64, 127
2, 46757, Note_on_c, 0, 63, 0
2, 46759, Note_on_c, 0, 72, 0
2, 46759, Note_on_c, 0, 68, 0
2, 46767, Note_on_c, 0, 56, 0
2, 46837, Note_on_c, 0, 72, 90
2, 46842, Note_on_c, 0, 65, 67
2, 46842, Note_on_c, 0, 68, 57
2, 46847, Note_on_c, 0, 61, 57
2, 46873, Control_c, 0, 64, 104
2, 46878, Control_c, 0, 64, 24
2, 46882, Control_c, 0, 64, 0
2, 46910, Control_c, 0, 64, 88
2, 46914, Control_c, 0, 64, 127
2, 47085, Note_on_c, 0, 72, 0
2, 47087, Note_on_c, 0, 70, 73
2, 47116, Control_c, 0, 64, 40
2, 47120, Control_c, 0, 64, 0
2, 47140, Control_c, 0, 64, 24
2, 47144, Control_c, 0, 64, 104
2, 47148, Control_c, 0, 64, 127
2, 47151, Note_on_c, 0, 65, 0
2, 47156, Note_on_c, 0, 68, 0
2, 47159, Note_on_c, 0, 61, 0
2, 47170, Note_on_c, 0, 70, 0
2, 47262, Note_on_c, 0, 77, 103
2, 47265, Control_c, 0, 64, 104
2, 47265, Note_on_c, 0, 70, 77
2, 47266, Note_on_c, 0, 67, 76
2, 47269, Note_on_c, 0, 61, 66
2, 47269, Note_on_c, 0, 65, 66
2, 47270, Control_c, 0, 64, 24
2, 47273, Control_c, 0, 64, 0
2, 47286, Note_on_c, 0, 67, 0
2, 47286, Control_c, 0, 64, 24
2, 47288, Note_on_c, 0, 70, 0
2, 47290, Note_on_c, 0, 61, 0
2, 47290, Control_c, 0, 64, 88
2, 47292, Note_on_c, 0, 65, 0
2, 47294, Note_on_c, 0, 77, 0
2, 47294, Control_c, 0, 64, 127
2, 47368, Note_on_c, 0, 77, 105
2, 47376, Note_on_c, 0, 68, 58
2, 47378, Note_on_c, 0, 72, 70
2, 47379, Note_on_c, 0, 65, 60
2, 47381, Note_on_c, 0, 60, 67
2, 47386, Control_c, 0, 64, 56
2, 47390, Control_c, 0, 64, 0
2, 47422, Control_c, 0, 64, 40
2, 47426, Control_c, 0, 64, 104
2, 47431, Control_c, 0, 64, 127
2, 47573, Note_on_c, 0, 77, 0
2, 47647, Note_on_c, 0, 65, 0
2, 47652, Note_on_c, 0, 75, 71
2, 47662, Note_on_c, 0, 63, 50
2, 47672, Control_c, 0, 64, 104
2, 47676, Control_c, 0, 64, 0
2, 47705, Control_c, 0, 64, 40
2, 47709, Control_c, 0, 64, 127
2, 47712, Note_on_c, 0, 72, 0
2, 47719, Note_on_c, 0, 75, 0
2, 47722, Note_on_c, 0, 68, 0
2, 47724, Note_on_c, 0, 60, 0
2, 47726, Note_on_c, 0, 63, 0
2, 47818, Note_on_c, 0, 63, 82
2, 47822, Control_c, 0, 64, 72
2, 47822, Note_on_c, 0, 60, 78
2, 47822, Note_on_c, 0, 56, 64
2, 47825, Control_c, 0, 64, 0
2, 47850, Control_c, 0, 64, 72
2, 47854, Control_c, 0, 64, 127
2, 47864, Note_on_c, 0, 68, 90
2, 47867, Note_on_c, 0, 51, 70
2, 47872, Note_on_c, 0, 63, 0
2, 47889, Note_on_c, 0, 60, 0
2, 47897, Note_on_c, 0, 68, 0
2, 47903, Note_on_c, 0, 51, 0
2, 47904, Note_on_c, 0, 72, 106
2, 47907, Note_on_c, 0, 56, 0
2, 47908, Note_on_c, 0, 48, 74
2, 47916, Note_on_c, 0, 48, 0
2, 47921, Note_on_c, 0, 72, 0
2, 47961, Note_on_c, 0, 73, 101
2, 47965, Note_on_c, 0, 63, 68
2, 47966, Note_on_c, 0, 61, 59
2, 47968, Note_on_c, 0, 67, 71
2, 47970, Control_c, 0, 64, 40
2, 47974, Note_on_c, 0, 46, 55
2, 47974, Control_c, 0, 64, 0
2, 47976, Note_on_c, 0, 55, 68
2, 47976, Note_on_c, 0, 51, 58
2, 48032, Control_c, 0, 64, 88
2, 48036, Control_c, 0, 64, 127
2, 48050, Note_on_c, 0, 67, 0
2, 48055, Note_on_c, 0, 55, 0
2, 48056, Note_on_c, 0, 63, 0
2, 48056, Note_on_c, 0, 73, 0
2, 48063, Note_on_c, 0, 61, 0
2, 48063, Note_on_c, 0, 51, 0
2, 48069, Note_on_c, 0, 46, 0
2, 48132, Note_on_c, 0, 72, 105
2, 48135, Note_on_c, 0, 68, 77
2, 48136, Note_on_c, 0, 60, 80
2, 48136, Control_c, 0, 64, 40
2, 48138, Note_on_c, 0, 63, 69
2, 48140, Control_c, 0, 64, 0
2, 48140, Note_on_c, 0, 56, 63
2, 48142, Note_on_c, 0, 51, 71
2, 48142, Note_on_c, 0, 46, 66
2, 48156, Control_c, 0, 64, 40
2, 48160, Control_c, 0, 64, 127
2, 48162, Note_on_c, 0, 46, 0
2, 48162, Note_on_c, 0, 60, 0
2, 48163, Note_on_c, 0, 72, 0
2, 48168, Note_on_c, 0, 68, 0
2, 48174, Note_on_c, 0, 51, 0
2, 48187, Note_on_c, 0, 56, 0
2, 48198, Note_on_c, 0, 63, 0
2, 48228, Note_on_c, 0, 70, 101
2, 48232, Note_on_c, 0, 63, 76
2, 48232, Note_on_c, 0, 58, 70
2, 48235, Note_on_c, 0, 51, 60
2, 48235, Note_on_c, 0, 55, 75
2, 48238, Note_on_c, 0, 43, 61
2, 48245, Control_c, 0, 64, 56
2, 48249, Control_c, 0, 64, 0
2, 48282, Control_c, 0, 64, 127
2, 48292, Note_on_c, 0, 55, 0
2, 48293, Note_on_c, 0, 43, 0
2, 48301, Note_on_c, 0, 58, 0
2, 48302, Note_on_c, 0, 51, 0
2, 48302, Note_on_c, 0, 63, 0
2, 48318, Note_on_c, 0, 70, 0
2, 48400, Note_on_c, 0, 74, 106
2, 48402, Note_on_c, 0, 70, 84
2, 48402, Note_on_c, 0, 62, 84
2, 48404, Note_on_c, 0, 68, 78
2, 48405, Note_on_c, 0, 53, 80
2, 48406, Note_on_c, 0, 41, 76
2, 48406, Note_on_c, 0, 46, 73
2, 48406, Control_c, 0, 64, 104
2, 48411, Control_c, 0, 64, 24
2, 48415, Control_c, 0, 64, 0
2, 48427, Note_on_c, 0, 53, 0
2, 48428, Note_on_c, 0, 41, 0
2, 48433, Note_on_c, 0, 62, 0
2, 48434, Note_on_c, 0, 46, 0
2, 48435, Control_c, 0, 64, 72
2, 48439, Control_c, 0, 64, 127
2, 48440, Note_on_c, 0, 70, 0
2, 48440, Note_on_c, 0, 68, 0
2, 48445, Note_on_c, 0, 74, 0
2, 48517, Note_on_c, 0, 74, 106
2, 48518, Note_on_c, 0, 62, 90
2, 48519, Note_on_c, 0, 70, 82
2, 48519, Note_on_c, 0, 68, 75
2, 48522, Note_on_c, 0, 39, 71
2, 48522, Note_on_c, 0, 51, 76
2, 48526, Note_on_c, 0, 46, 60
2, 48540, Control_c, 0, 64, 24
2, 48544, Control_c, 0, 64, 0
2, 48596, Control_c, 0, 64, 72
2, 48599, Control_c, 0, 64, 127
2, 48720, Note_on_c, 0, 62, 0
2, 48720, Note_on_c, 0, 74, 0
2, 48739, Note_on_c, 0, 68, 0
2, 48793, Note_on_c, 0, 70, 0
2, 48826, Note_on_c, 0, 75, 85
2, 48832, Note_on_c, 0, 63, 47
2, 48834, Note_on_c, 0, 67, 61
2, 48849, Control_c, 0, 64, 104
2, 48854, Control_c, 0, 64, 0
2, 48911, Control_c, 0, 64, 88
2, 48915, Control_c, 0, 64, 127
2, 48917, Note_on_c, 0, 39, 0
2, 48921, Note_on_c, 0, 67, 0
2, 48923, Note_on_c, 0, 75, 0
2, 48927, Note_on_c, 0, 46, 0
2, 48931, Note_on_c, 0, 51, 0
2, 48937, Note_on_c, 0, 63, 0
2, 49024, Note_on_c, 0, 72, 96
2, 49028, Control_c, 0, 64, 72
2, 49030, Note_on_c, 0, 63, 59
2, 49030, Note_on_c, 0, 68, 64
2, 49031, Note_on_c, 0, 56, 64
2, 49031, Control_c, 0, 64, 0
2, 49053, Note_on_c, 0, 56, 0
2, 49056, Control_c, 0, 64, 56
2, 49059, Note_on_c, 0, 63, 0
2, 49060, Control_c, 0, 64, 127
2, 49063, Note_on_c, 0, 68, 0
2, 49064, Note_on_c, 0, 72, 0
2, 49128, Note_on_c, 0, 72, 92
2, 49130, Note_on_c, 0, 68, 64
2, 49132, Note_on_c, 0, 61, 63
2, 49135, Note_on_c, 0, 65, 61
2, 49173, Control_c, 0, 64, 40
2, 49177, Control_c, 0, 64, 0
2, 49205, Control_c, 0, 64, 88
2, 49209, Control_c, 0, 64, 127
2, 49381, Note_on_c, 0, 70, 69
2, 49390, Note_on_c, 0, 72, 0
2, 49411, Control_c, 0, 64, 88
2, 49415, Control_c, 0, 64, 0
2, 49443, Control_c, 0, 64, 40
2, 49446, Control_c, 0, 64, 127
2, 49448, Note_on_c, 0, 68, 0
2, 49450, Note_on_c, 0, 65, 0
2, 49452, Note_on_c, 0, 61, 0
2, 49469, Note_on_c, 0, 70, 0
2, 49559, Note_on_c, 0, 77, 114
2, 49563, Note_on_c, 0, 71, 96
2, 49563, Note_on_c, 0, 67, 86
2, 49563, Note_on_c, 0, 49, 84
2, 49564, Control_c, 0, 64, 88
2, 49565, Note_on_c, 0, 37, 68
2, 49568, Control_c, 0, 64, 0
2, 49591, Control_c, 0, 64, 88
2, 49593, Note_on_c, 0, 37, 0
2, 49595, Control_c, 0, 64, 127
2, 49599, Note_on_c, 0, 71, 0
2, 49602, Note_on_c, 0, 49, 0
2, 49603, Note_on_c, 0, 67, 0
2, 49609, Note_on_c, 0, 77, 0
2, 49668, Note_on_c, 0, 77, 109
2, 49673, Note_on_c, 0, 72, 94
2, 49673, Note_on_c, 0, 67, 83
2, 49675, Note_on_c, 0, 48, 75
2, 49676, Note_on_c, 0, 36, 68
2, 49697, Control_c, 0, 64, 88
2, 49701, Control_c, 0, 64, 0
2, 49733, Control_c, 0, 64, 72
2, 49737, Control_c, 0, 64, 127
2, 49956, Note_on_c, 0, 76, 87
2, 49957, Note_on_c, 0, 77, 0
2, 49959, Control_c, 0, 64, 88
2, 49963, Control_c, 0, 64, 24
2, 49967, Control_c, 0, 64, 0
2, 50036, Note_on_c, 0, 36, 0
2, 50036, Control_c, 0, 64, 56
2, 50040, Note_on_c, 0, 72, 0
2, 50040, Control_c, 0, 64, 104
2, 50041, Note_on_c, 0, 67, 0
2, 50043, Control_c, 0, 64, 127
2, 50045, Note_on_c, 0, 48, 0
2, 50045, Note_on_c, 0, 76, 0
2, 50160, Note_on_c, 0, 76, 90
2, 50165, Note_on_c, 0, 72, 69
2, 50166, Note_on_c, 0, 67, 62
2, 50168, Note_on_c, 0, 60, 63
2, 50168, Note_on_c, 0, 64, 66
2, 50169, Control_c, 0, 64, 104
2, 50173, Control_c, 0, 64, 40
2, 50177, Control_c, 0, 64, 0
2, 50192, Control_c, 0, 64, 24
2, 50194, Note_on_c, 0, 60, 0
2, 50196, Note_on_c, 0, 64, 0
2, 50197, Control_c, 0, 64, 88
2, 50199, Note_on_c, 0, 76, 0
2, 50199, Note_on_c, 0, 72, 0
2, 50201, Control_c, 0, 64, 127
2, 50202, Note_on_c, 0, 67, 0
2, 50276, Note_on_c, 0, 75, 92
2, 50281, Note_on_c, 0, 67, 67
2, 50281, Note_on_c, 0, 73, 59
2, 50285, Note_on_c, 0, 58, 55
2, 50285, Note_on_c, 0, 63, 54
2, 50302, Control_c, 0, 64, 72
2, 50306, Control_c, 0, 64, 0
2, 50333, Control_c, 0, 64, 56
2, 50337, Control_c, 0, 64, 127
2, 50356, Note_on_c, 0, 73, 0
2, 50359, Note_on_c, 0, 58, 0
2, 50362, Note_on_c, 0, 67, 0
2, 50367, Note_on_c, 0, 63, 0
2, 50380, Note_on_c, 0, 75, 0
2, 50461, Note_on_c, 0, 75, 91
2, 50465, Note_on_c, 0, 68, 65
2, 50466, Note_on_c, 0, 63, 60
2, 50467, Note_on_c, 0, 72, 83
2, 50469, Note_on_c, 0, 56, 63
2, 50475, Control_c, 0, 64, 56
2, 50479, Control_c, 0, 64, 0
2, 50492, Control_c, 0, 64, 40
2, 50496, Control_c, 0, 64, 88
2, 50498, Note_on_c, 0, 56, 0
2, 50498, Note_on_c, 0, 63, 0
2, 50498, Note_on_c, 0, 72, 0
2, 50500, Control_c, 0, 64, 127
2, 50506, Note_on_c, 0, 68, 0
2, 50507, Note_on_c, 0, 75, 0
2, 50576, Note_on_c, 0, 73, 87
2, 50580, Note_on_c, 0, 70, 63
2, 50583, Note_on_c, 0, 65, 64
2, 50590, Note_on_c, 0, 49, 60
2, 50608, Control_c, 0, 64, 88
2, 50612, Control_c, 0, 64, 0
2, 50641, Control_c, 0, 64, 40
2, 50645, Control_c, 0, 64, 104
2, 50648, Note_on_c, 0, 70, 0
2, 50649, Control_c, 0, 64, 127
2, 50655, Note_on_c, 0, 65, 0
2, 50657, Note_on_c, 0, 73, 0
2, 50688, Note_on_c, 0, 49, 0
2, 50754, Note_on_c, 0, 72, 94
2, 50756, Note_on_c, 0, 61, 64
2, 50760, Note_on_c, 0, 67, 71
2, 50762, Note_on_c, 0, 51, 67
2, 50770, Control_c, 0, 64, 40
2, 50774, Control_c, 0, 64, 0
2, 50785, Note_on_c, 0, 72, 0
2, 50791, Note_on_c, 0, 51, 0
2, 50794, Control_c, 0, 64, 72
2, 50798, Control_c, 0, 64, 127
2, 50800, Note_on_c, 0, 67, 0
2, 50804, Note_on_c, 0, 70, 94
2, 50812, Note_on_c, 0, 61, 0
2, 50832, Note_on_c, 0, 70, 0
2, 50868, Note_on_c, 0, 70, 87
2, 50872, Note_on_c, 0, 61, 63
2, 50872, Note_on_c, 0, 67, 73
2, 50880, Note_on_c, 0, 44, 59
2, 50885, Note_on_c, 0, 51, 46
2, 50895, Control_c, 0, 64, 104
2, 50899, Control_c, 0, 64, 24
2, 50903, Control_c, 0, 64, 0
2, 50935, Control_c, 0, 64, 40
2, 50939, Control_c, 0, 64, 88
2, 50943, Control_c, 0, 64, 127
2, 50963, Control_c, 0, 64, 72
2, 50967, Control_c, 0, 64, 0
2, 50992, Control_c, 0, 64, 56
2, 50996, Control_c, 0, 64, 127
2, 51019, Control_c, 0, 64, 88
2, 51023, Control_c, 0, 64, 24
2, 51028, Control_c, 0, 64, 0
2, 51044, Control_c, 0, 64, 40
2, 51048, Control_c, 0, 64, 104
2, 51052, Control_c, 0, 64, 127
2, 51093, Note_on_c, 0, 67, 0
2, 51102, Note_on_c, 0, 61, 0
2, 51153, Note_on_c, 0, 70, 0
2, 51194, Note_on_c, 0, 68, 62
2, 51198, Note_on_c, 0, 60, 47
2, 51242, Control_c, 0, 64, 104
2, 51246, Control_c, 0, 64, 24
2, 51250, Control_c, 0, 64, 0
2, 51286, Control_c, 0, 64, 72
2, 51290, Control_c, 0, 64, 127
2, 51298, Note_on_c, 0, 44, 0
2, 51300, Note_on_c, 0, 51, 0
2, 51300, Note_on_c, 0, 60, 0
2, 51313, Note_on_c, 0, 68, 0
2, 51408, Note_on_c, 0, 71, 75
2, 51412, Note_on_c, 0, 62, 53
2, 51413, Note_on_c, 0, 68, 58
2, 51415, Control_c, 0, 64, 56
2, 51416, Note_on_c, 0, 59, 58
2, 51418, Note_on_c, 0, 52, 59
2, 51419, Control_c, 0, 64, 0
2, 51420, Note_on_c, 0, 56, 48
2, 51439, Control_c, 0, 64, 24
2, 51441, Note_on_c, 0, 52, 0
2, 51443, Note_on_c, 0, 59, 0
2, 51443, Note_on_c, 0, 56, 0
2, 51443, Control_c, 0, 64, 72
2, 51447, Control_c, 0, 64, 127
2, 51449, Note_on_c, 0, 71, 0
2, 51450, Note_on_c, 0, 62, 0
2, 51454, Note_on_c, 0, 68, 0
2, 51524, Note_on_c, 0, 71, 86
2, 51529, Note_on_c, 0, 62, 62
2, 51530, Note_on_c, 0, 68, 58
2, 51534, Note_on_c, 0, 52, 53
2, 51535, Note_on_c, 0, 59, 53
2, 51536, Note_on_c, 0, 56, 48
2, 51559, Control_c, 0, 64, 56
2, 51563, Control_c, 0, 64, 0
2, 51588, Control_c, 0, 64, 72
2, 51592, Control_c, 0, 64, 127
2, 51659, Note_on_c, 0, 62, 0
2, 51719, Note_on_c, 0, 52, 0
2, 51784, Note_on_c, 0, 63, 58
2, 51787, Note_on_c, 0, 51, 63
2, 51802, Control_c, 0, 64, 104
2, 51806, Control_c, 0, 64, 24
2, 51809, Control_c, 0, 64, 0
2, 51842, Control_c, 0, 64, 72
2, 51846, Control_c, 0, 64, 127
2, 51850, Note_on_c, 0, 68, 0
2, 51858, Note_on_c, 0, 59, 0
2, 51865, Note_on_c, 0, 56, 0
2, 51868, Note_on_c, 0, 51, 0
2, 51873, Note_on_c, 0, 63, 0
2, 51875, Note_on_c, 0, 71, 0
2, 51976, Note_on_c, 0, 71, 89
2, 51976, Control_c, 0, 64, 88
2, 51978, Note_on_c, 0, 49, 67
2, 51980, Control_c, 0, 64, 24
2, 51980, Note_on_c, 0, 68, 69
2, 51982, Note_on_c, 0, 64, 74
2, 51982, Note_on_c, 0, 59, 52
2, 51984, Control_c, 0, 64, 0
2, 51984, Note_on_c, 0, 56, 54
2, 52004, Control_c, 0, 64, 88
2, 52005, Note_on_c, 0, 59, 0
2, 52005, Note_on_c, 0, 49, 0
2, 52008, Note_on_c, 0, 56, 0
2, 52008, Control_c, 0, 64, 127
2, 52009, Note_on_c, 0, 64, 0
2, 52021, Note_on_c, 0, 71, 0
2, 52026, Note_on_c, 0, 68, 0
2, 52087, Note_on_c, 0, 71, 94
2, 52092, Note_on_c, 0, 68, 70
2, 52094, Note_on_c, 0, 64, 73
2, 52094, Note_on_c, 0, 49, 66
2, 52098, Note_on_c, 0, 59, 56
2, 52102, Note_on_c, 0, 56, 42
2, 52113, Control_c, 0, 64, 72
2, 52117, Control_c, 0, 64, 0
2, 52137, Control_c, 0, 64, 24
2, 52141, Control_c, 0, 64, 104
2, 52145, Control_c, 0, 64, 127
2, 52158, Note_on_c, 0, 64, 0
2, 52172, Note_on_c, 0, 49, 0
2, 52348, Note_on_c, 0, 63, 58
2, 52359, Note_on_c, 0, 47, 59
2, 52371, Control_c, 0, 64, 72
2, 52375, Control_c, 0, 64, 0
2, 52419, Control_c, 0, 64, 40
2, 52423, Control_c, 0, 64, 56
2, 52427, Control_c, 0, 64, 88
2, 52431, Control_c, 0, 64, 127
2, 52463, Note_on_c, 0, 47, 0
2, 52469, Note_on_c, 0, 63, 0
2, 52472, Note_on_c, 0, 56, 0
2, 52474, Note_on_c, 0, 71, 0
2, 52478, Note_on_c, 0, 59, 0
2, 52482, Note_on_c, 0, 68, 0
2, 52544, Note_on_c, 0, 71, 95
2, 52545, Note_on_c, 0, 68, 70
2, 52548, Note_on_c, 0, 63, 59
2, 52549, Note_on_c, 0, 47, 74
2, 52550, Note_on_c, 0, 59, 59
2, 52552, Note_on_c, 0, 56, 55
2, 52552, Control_c, 0, 64, 88
2, 52555, Control_c, 0, 64, 0
2, 52573, Note_on_c, 0, 47, 0
2, 52580, Control_c, 0, 64, 56
2, 52582, Note_on_c, 0, 59, 0
2, 52584, Control_c, 0, 64, 127
2, 52596, Note_on_c, 0, 63, 0
2, 52598, Note_on_c, 0, 56, 0
2, 52617, Note_on_c, 0, 71, 0
2, 52628, Note_on_c, 0, 68, 0
2, 52662, Note_on_c, 0, 70, 89
2, 52666, Note_on_c, 0, 68, 71
2, 52666, Note_on_c, 0, 56, 54
2, 52667, Note_on_c, 0, 58, 56
2, 52670, Note_on_c, 0, 64, 72
2, 52670, Note_on_c, 0, 49, 64
2, 52681, Control_c, 0, 64, 56
2, 52685, Control_c, 0, 64, 0
2, 52726, Control_c, 0, 64, 88
2, 52730, Control_c, 0, 64, 127
2, 52772, Note_on_c, 0, 76, 102
2, 52814, Note_on_c, 0, 70, 0
2, 52860, Note_on_c, 0, 49, 0
2, 52895, Note_on_c, 0, 76, 0
2, 52911, Note_on_c, 0, 56, 0
2, 52920, Note_on_c, 0, 70, 93
2, 52962, Note_on_c, 0, 70, 0
2, 52968, Note_on_c, 0, 56, 34
2, 52972, Control_c, 0, 64, 104
2, 52972, Note_on_c, 0, 75, 100
2, 52976, Control_c, 0, 64, 24
2, 52978, Note_on_c, 0, 46, 76
2, 52980, Control_c, 0, 64, 0
2, 52997, Note_on_c, 0, 56, 0
2, 53000, Control_c, 0, 64, 40
2, 53004, Control_c, 0, 64, 104
2, 53005, Note_on_c, 0, 75, 0
2, 53008, Control_c, 0, 64, 127
2, 53015, Note_on_c, 0, 73, 97
2, 53046, Note_on_c, 0, 73, 0
2, 53047, Note_on_c, 0, 68, 0
2, 53047, Note_on_c, 0, 46, 0
2, 53063, Note_on_c, 0, 71, 90
2, 53068, Control_c, 0, 64, 56
2, 53069, Note_on_c, 0, 47, 67
2, 53072, Control_c, 0, 64, 0
2, 53096, Note_on_c, 0, 64, 0
2, 53097, Note_on_c, 0, 71, 0
2, 53101, Control_c, 0, 64, 88
2, 53105, Control_c, 0, 64, 127
2, 53109, Note_on_c, 0, 47, 0
2, 53123, Note_on_c, 0, 58, 0
2, 53159, Note_on_c, 0, 70, 84
2, 53163, Note_on_c, 0, 64, 80
2, 53163, Note_on_c, 0, 61, 62
2, 53171, Note_on_c, 0, 49, 60
2, 53173, Control_c, 0, 64, 72
2, 53177, Control_c, 0, 64, 0
2, 53202, Note_on_c, 0, 64, 0
2, 53202, Control_c, 0, 64, 88
2, 53206, Note_on_c, 0, 49, 0
2, 53206, Control_c, 0, 64, 127
2, 53212, Note_on_c, 0, 61, 0
2, 53229, Note_on_c, 0, 70, 0
2, 53268, Note_on_c, 0, 68, 82
2, 53274, Note_on_c, 0, 59, 72
2, 53275, Note_on_c, 0, 63, 62
2, 53280, Note_on_c, 0, 51, 60
2, 53281, Control_c, 0, 64, 72
2, 53285, Control_c, 0, 64, 0
2, 53343, Control_c, 0, 64, 40
2, 53347, Control_c, 0, 64, 72
2, 53355, Control_c, 0, 64, 0
2, 53403, Control_c, 0, 64, 40
2, 53407, Control_c, 0, 64, 72
2, 53411, Control_c, 0, 64, 88
2, 53415, Control_c, 0, 64, 104
2, 53419, Control_c, 0, 64, 127
2, 53481, Note_on_c, 0, 59, 0
2, 53544, Note_on_c, 0, 68, 0
2, 53576, Note_on_c, 0, 67, 69
2, 53578, Note_on_c, 0, 58, 48
2, 53605, Control_c, 0, 64, 88
2, 53609, Control_c, 0, 64, 24
2, 53613, Control_c, 0, 64, 0
2, 53649, Control_c, 0, 64, 40
2, 53653, Control_c, 0, 64, 88
2, 53657, Control_c, 0, 64, 127
2, 53668, Note_on_c, 0, 58, 0
2, 53669, Note_on_c, 0, 63, 0
2, 53675, Note_on_c, 0, 67, 0
2, 53675, Note_on_c, 0, 51, 0
2, 53794, Control_c, 0, 64, 88
2, 53795, Note_on_c, 0, 71, 91
2, 53798, Control_c, 0, 64, 24
2, 53799, Note_on_c, 0, 68, 63
2, 53800, Note_on_c, 0, 62, 67
2, 53802, Control_c, 0, 64, 0
2, 53803, Note_on_c, 0, 56, 52
2, 53805, Note_on_c, 0, 52, 53
2, 53806, Note_on_c, 0, 59, 47
2, 53826, Control_c, 0, 64, 56
2, 53828, Note_on_c, 0, 52, 0
2, 53829, Note_on_c, 0, 59, 0
2, 53830, Control_c, 0, 64, 127
2, 53833, Note_on_c, 0, 56, 0
2, 53841, Note_on_c, 0, 62, 0
2, 53843, Note_on_c, 0, 71, 0
2, 53844, Note_on_c, 0, 68, 0
2, 53907, Note_on_c, 0, 71, 85
2, 53911, Note_on_c, 0, 68, 59
2, 53914, Note_on_c, 0, 62, 54
2, 53915, Note_on_c, 0, 52, 59
2, 53915, Note_on_c, 0, 56, 46
2, 53917, Note_on_c, 0, 59, 56
2, 53923, Control_c, 0, 64, 88
2, 53927, Control_c, 0, 64, 24
2, 53932, Control_c, 0, 64, 0
2, 53960, Control_c, 0, 64, 88
2, 53964, Control_c, 0, 64, 127
2, 54031, Note_on_c, 0, 62, 0
2, 54081, Note_on_c, 0, 52, 0
2, 54171, Note_on_c, 0, 63, 55
2, 54175, Note_on_c, 0, 51, 59
2, 54190, Control_c, 0, 64, 88
2, 54194, Control_c, 0, 64, 0
2, 54225, Control_c, 0, 64, 88
2, 54230, Control_c, 0, 64, 127
2, 54242, Note_on_c, 0, 68, 0
2, 54248, Note_on_c, 0, 59, 0
2, 54252, Note_on_c, 0, 56, 0
2, 54253, Note_on_c, 0, 51, 0
2, 54256, Note_on_c, 0, 63, 0
2, 54260, Note_on_c, 0, 71, 0
2, 54351, Note_on_c, 0, 71, 94
2, 54351, Control_c, 0, 64, 88
2, 54354, Note_on_c, 0, 68, 72
2, 54354, Note_on_c, 0, 49, 71
2, 54354, Control_c, 0, 64, 0
2, 54356, Note_on_c, 0, 64, 75
2, 54356, Note_on_c, 0, 56, 58
2, 54358, Note_on_c, 0, 59, 59
2, 54383, Control_c, 0, 64, 88
2, 54387, Control_c, 0, 64, 127
2, 54392, Note_on_c, 0, 59, 0
2, 54392, Note_on_c, 0, 49, 0
2, 54394, Note_on_c, 0, 56, 0
2, 54396, Note_on_c, 0, 64, 0
2, 54407, Note_on_c, 0, 71, 0
2, 54411, Note_on_c, 0, 68, 0
2, 54465, Note_on_c, 0, 71, 103
2, 54470, Note_on_c, 0, 68, 69
2, 54471, Note_on_c, 0, 64, 72
2, 54473, Note_on_c, 0, 56, 60
2, 54475, Note_on_c, 0, 59, 63
2, 54475, Note_on_c, 0, 49, 62
2, 54488, Control_c, 0, 64, 40
2, 54492, Control_c, 0, 64, 0
2, 54515, Control_c, 0, 64, 72
2, 54519, Control_c, 0, 64, 127
2, 54549, Note_on_c, 0, 64, 0
2, 54571, Note_on_c, 0, 49, 0
2, 54740, Note_on_c, 0, 63, 65
2, 54750, Note_on_c, 0, 47, 60
2, 54766, Control_c, 0, 64, 88
2, 54769, Control_c, 0, 64, 0
2, 54810, Control_c, 0, 64, 127
2, 54833, Note_on_c, 0, 47, 0
2, 54838, Note_on_c, 0, 59, 0
2, 54839, Note_on_c, 0, 63, 0
2, 54839, Note_on_c, 0, 68, 0
2, 54842, Note_on_c, 0, 56, 0
2, 54846, Note_on_c, 0, 71, 0
2, 54940, Note_on_c, 0, 71, 102
2, 54940, Control_c, 0, 64, 88
2, 54941, Note_on_c, 0, 68, 76
2, 54942, Note_on_c, 0, 64, 80
2, 54944, Control_c, 0, 64, 0
2, 54944, Note_on_c, 0, 56, 62
2, 54946, Note_on_c, 0, 47, 68
2, 54947, Note_on_c, 0, 59, 53
2, 54949, Note_on_c, 0, 52, 73
2, 54968, Note_on_c, 0, 47, 0
2, 54968, Control_c, 0, 64, 56
2, 54969, Note_on_c, 0, 52, 0
2, 54971, Note_on_c, 0, 64, 0
2, 54972, Note_on_c, 0, 56, 0
2, 54972, Note_on_c, 0, 59, 0
2, 54972, Control_c, 0, 64, 127
2, 54981, Note_on_c, 0, 68, 0
2, 54983, Note_on_c, 0, 71, 0
2, 55052, Note_on_c, 0, 71, 95
2, 55056, Note_on_c, 0, 68, 77
2, 55060, Note_on_c, 0, 56, 54
2, 55061, Note_on_c, 0, 52, 67
2, 55061, Note_on_c, 0, 47, 60
2, 55062, Note_on_c, 0, 64, 52
2, 55063, Note_on_c, 0, 59, 56
2, 55069, Control_c, 0, 64, 72
2, 55073, Control_c, 0, 64, 0
2, 55101, Control_c, 0, 64, 56
2, 55104, Control_c, 0, 64, 127
2, 55164, Note_on_c, 0, 76, 99
2, 55188, Note_on_c, 0, 71, 0
2, 55209, Control_c, 0, 64, 40
2, 55214, Control_c, 0, 64, 0
2, 55234, Control_c, 0, 64, 104
2, 55238, Control_c, 0, 64, 127
2, 55288, Note_on_c, 0, 68, 0
2, 55291, Note_on_c, 0, 76, 0
2, 55312, Note_on_c, 0, 71, 83
2, 55328, Note_on_c, 0, 71, 0
2, 55346, Note_on_c, 0, 71, 85
2, 55368, Note_on_c, 0, 75, 98
2, 55374, Note_on_c, 0, 71, 0
2, 55375, Control_c, 0, 64, 88
2, 55379, Control_c, 0, 64, 0
2, 55407, Control_c, 0, 64, 40
2, 55411, Control_c, 0, 64, 104
2, 55413, Note_on_c, 0, 73, 96
2, 55416, Control_c, 0, 64, 127
2, 55418, Note_on_c, 0, 75, 0
2, 55459, Note_on_c, 0, 73, 0
2, 55466, Note_on_c, 0, 71, 94
2, 55476, Control_c, 0, 64, 0
2, 55508, Control_c, 0, 64, 40
2, 55512, Control_c, 0, 64, 127
2, 55548, Note_on_c, 0, 71, 0
2, 55552, Note_on_c, 0, 64, 0
2, 55556, Note_on_c, 0, 68, 87
2, 55565, Note_on_c, 0, 59, 0
2, 55571, Note_on_c, 0, 47, 0
2, 55571, Note_on_c, 0, 56, 0
2, 55574, Note_on_c, 0, 52, 0
2, 55577, Note_on_c, 0, 68, 0
2, 55668, Note_on_c, 0, 65, 94
2, 55676, Note_on_c, 0, 56, 57
2, 55676, Note_on_c, 0, 61, 50
2, 55682, Note_on_c, 0, 47, 65
2, 55684, Note_on_c, 0, 53, 63
2, 55690, Control_c, 0, 64, 88
2, 55694, Control_c, 0, 64, 0
2, 55726, Control_c, 0, 64, 88
2, 55730, Control_c, 0, 64, 127
2, 55769, Note_on_c, 0, 73, 94
2, 55781, Note_on_c, 0, 65, 0
2, 55901, Note_on_c, 0, 73, 0
2, 55910, Note_on_c, 0, 47, 0
2, 55910, Note_on_c, 0, 65, 87
2, 55912, Note_on_c, 0, 53, 0
2, 55918, Note_on_c, 0, 61, 0
2, 55924, Note_on_c, 0, 56, 0
2, 55930, Note_on_c, 0, 65, 0
2, 55960, Control_c, 0, 64, 88
2, 55964, Control_c, 0, 64, 0
2, 55968, Note_on_c, 0, 73, 92
2, 55972, Note_on_c, 0, 61, 72
2, 55974, Note_on_c, 0, 66, 77
2, 55977, Note_on_c, 0, 54, 62
2, 55978, Note_on_c, 0, 57, 60
2, 55980, Note_on_c, 0, 47, 51
2, 55988, Control_c, 0, 64, 24
2, 55992, Control_c, 0, 64, 104
2, 55995, Control_c, 0, 64, 127
2, 55999, Note_on_c, 0, 73, 0
2, 56010, Note_on_c, 0, 66, 0
2, 56020, Note_on_c, 0, 69, 92
2, 56029, Note_on_c, 0, 54, 0
2, 56030, Note_on_c, 0, 57, 0
2, 56034, Note_on_c, 0, 61, 0
2, 56042, Note_on_c, 0, 69, 0
2, 56072, Note_on_c, 0, 68, 84
2, 56075, Note_on_c, 0, 64, 77
2, 56077, Control_c, 0, 64, 72
2, 56078, Note_on_c, 0, 59, 68
2, 56079, Note_on_c, 0, 56, 62
2, 56080, Control_c, 0, 64, 0
2, 56113, Control_c, 0, 64, 56
2, 56117, Control_c, 0, 64, 127
2, 56121, Note_on_c, 0, 56, 0
2, 56131, Note_on_c, 0, 59, 0
2, 56132, Note_on_c, 0, 64, 0
2, 56177, Note_on_c, 0, 68, 0
2, 56190, Note_on_c, 0, 66, 81
2, 56193, Note_on_c, 0, 63, 62
2, 56194, Control_c, 0, 64, 88
2, 56197, Note_on_c, 0, 59, 58
2, 56198, Note_on_c, 0, 57, 53
2, 56198, Control_c, 0, 64, 0
2, 56226, Control_c, 0, 64, 40
2, 56230, Control_c, 0, 64, 127
2, 56242, Note_on_c, 0, 66, 0
2, 56245, Note_on_c, 0, 59, 0
2, 56245, Note_on_c, 0, 57, 0
2, 56245, Note_on_c, 0, 63, 0
2, 56251, Note_on_c, 0, 47, 0
2, 56331, Note_on_c, 0, 64, 72
2, 56331, Note_on_c, 0, 56, 55
2, 56332, Note_on_c, 0, 59, 65
2, 56338, Note_on_c, 0, 40, 51
2, 56339, Note_on_c, 0, 52, 50
2, 56340, Note_on_c, 0, 47, 53
2, 56367, Control_c, 0, 64, 72
2, 56371, Control_c, 0, 64, 0
2, 56412, Control_c, 0, 64, 24
2, 56416, Control_c, 0, 64, 72
2, 56420, Control_c, 0, 64, 127
2, 56461, Note_on_c, 0, 56, 0
2, 56462, Note_on_c, 0, 59, 0
2, 56463, Note_on_c, 0, 64, 0
2, 56578, Note_on_c, 0, 64, 79
2, 56606, Note_on_c, 0, 68, 88
2, 56620, Note_on_c, 0, 40, 0
2, 56624, Note_on_c, 0, 64, 0
2, 56629, Note_on_c, 0, 47, 0
2, 56635, Note_on_c, 0, 71, 94
2, 56636, Note_on_c, 0, 52, 0
2, 56637, Note_on_c, 0, 68, 0
2, 56652, Note_on_c, 0, 71, 0
2, 56679, Note_on_c, 0, 70, 80
2, 56679, Note_on_c, 0, 64, 67
2, 56680, Note_on_c, 0, 67, 75
2, 56681, Note_on_c, 0, 61, 66
2, 56687, Note_on_c, 0, 40, 46
2, 56702, Control_c, 0, 64, 72
2, 56706, Control_c, 0, 64, 0
2, 56774, Control_c, 0, 64, 24
2, 56778, Control_c, 0, 64, 40
2, 56782, Control_c, 0, 64, 72
2, 56787, Control_c, 0, 64, 104
2, 56791, Control_c, 0, 64, 127
2, 56803, Note_on_c, 0, 67, 0
2, 56806, Note_on_c, 0, 70, 0
2, 56809, Note_on_c, 0, 64, 0
2, 56814, Note_on_c, 0, 61, 0
2, 56879, Note_on_c, 0, 71, 87
2, 56880, Note_on_c, 0, 68, 64
2, 56881, Note_on_c, 0, 59, 66
2, 56887, Note_on_c, 0, 64, 59
2, 56892, Control_c, 0, 64, 88
2, 56896, Control_c, 0, 64, 24
2, 56900, Control_c, 0, 64, 0
2, 56909, Note_on_c, 0, 64, 0
2, 56912, Control_c, 0, 64, 24
2, 56914, Note_on_c, 0, 71, 0
2, 56916, Control_c, 0, 64, 88
2, 56919, Control_c, 0, 64, 127
2, 56929, Note_on_c, 0, 68, 0
2, 56934, Note_on_c, 0, 40, 0
2, 56941, Note_on_c, 0, 59, 0
2, 56954, Note_on_c, 0, 66, 65
2, 56975, Note_on_c, 0, 68, 89
2, 56985, Note_on_c, 0, 66, 0
2, 57002, Note_on_c, 0, 68, 0
2, 57007, Note_on_c, 0, 69, 90
2, 57007, Note_on_c, 0, 63, 62
2, 57014, Note_on_c, 0, 60, 69
2, 57014, Note_on_c, 0, 45, 62
2, 57014, Note_on_c, 0, 40, 55
2, 57033, Control_c, 0, 64, 56
2, 57037, Control_c, 0, 64, 0
2, 57065, Control_c, 0, 64, 56
2, 57068, Control_c, 0, 64, 127
2, 57080, Note_on_c, 0, 69, 0
2, 57090, Note_on_c, 0, 60, 0
2, 57148, Note_on_c, 0, 63, 0
2, 57154, Note_on_c, 0, 45, 0
2, 57168, Note_on_c, 0, 68, 87
2, 57173, Note_on_c, 0, 59, 67
2, 57177, Note_on_c, 0, 47, 65
2, 57186, Note_on_c, 0, 59, 0
2, 57188, Note_on_c, 0, 47, 0
2, 57192, Note_on_c, 0, 68, 0
2, 57220, Note_on_c, 0, 66, 84
2, 57225, Note_on_c, 0, 57, 62
2, 57228, Note_on_c, 0, 48, 67
2, 57230, Control_c, 0, 64, 104
2, 57234, Control_c, 0, 64, 24
2, 57238, Control_c, 0, 64, 0
2, 57258, Control_c, 0, 64, 24
2, 57262, Control_c, 0, 64, 88
2, 57264, Note_on_c, 0, 57, 0
2, 57266, Note_on_c, 0, 48, 0
2, 57266, Control_c, 0, 64, 127
2, 57272, Note_on_c, 0, 40, 0
2, 57287, Note_on_c, 0, 66, 0
2, 57336, Note_on_c, 0, 64, 75
2, 57336, Note_on_c, 0, 56, 54
2, 57340, Note_on_c, 0, 40, 57
2, 57343, Note_on_c, 0, 47, 50
2, 57363, Control_c, 0, 64, 104
2, 57368, Control_c, 0, 64, 24
2, 57372, Control_c, 0, 64, 0
2, 57408, Control_c, 0, 64, 72
2, 57411, Control_c, 0, 64, 127
2, 57452, Note_on_c, 0, 56, 0
2, 57469, Note_on_c, 0, 64, 0
2, 57502, Note_on_c, 0, 47, 0
2, 57578, Note_on_c, 0, 64, 84
2, 57607, Note_on_c, 0, 68, 80
2, 57609, Note_on_c, 0, 40, 0
2, 57623, Note_on_c, 0, 64, 0
2, 57636, Note_on_c, 0, 71, 95
2, 57638, Note_on_c, 0, 68, 0
2, 57659, Note_on_c, 0, 71, 0
2, 57692, Note_on_c, 0, 70, 83
2, 57694, Note_on_c, 0, 67, 73
2, 57694, Note_on_c, 0, 61, 57
2, 57696, Note_on_c, 0, 64, 74
2, 57702, Note_on_c, 0, 40, 57
2, 57718, Control_c, 0, 64, 88
2, 57722, Control_c, 0, 64, 0
2, 57758, Control_c, 0, 64, 40
2, 57762, Control_c, 0, 64, 88
2, 57767, Control_c, 0, 64, 127
2, 57794, Note_on_c, 0, 70, 0
2, 57797, Note_on_c, 0, 64, 0
2, 57803, Note_on_c, 0, 61, 0
2, 57806, Note_on_c, 0, 67, 0
2, 57880, Note_on_c, 0, 71, 87
2, 57880, Note_on_c, 0, 68, 60
2, 57882, Note_on_c, 0, 59, 58
2, 57890, Note_on_c, 0, 64, 56
2, 57892, Control_c, 0, 64, 56
2, 57896, Control_c, 0, 64, 0
2, 57911, Control_c, 0, 64, 40
2, 57916, Control_c, 0, 64, 127
2, 57928, Note_on_c, 0, 64, 0
2, 57938, Note_on_c, 0, 71, 0
2, 57948, Note_on_c, 0, 68, 0
2, 57949, Note_on_c, 0, 59, 0
2, 57961, Note_on_c, 0, 66, 66
2, 57973, Note_on_c, 0, 40, 0
2, 57986, Note_on_c, 0, 68, 70
2, 57990, Note_on_c, 0, 66, 0
2, 58012, Note_on_c, 0, 68, 0
2, 58013, Note_on_c, 0, 69, 88
2, 58015, Note_on_c, 0, 60, 76
2, 58021, Note_on_c, 0, 45, 59
2, 58021, Note_on_c, 0, 40, 57
2, 58029, Control_c, 0, 64, 88
2, 58033, Control_c, 0, 64, 24
2, 58037, Control_c, 0, 64, 0
2, 58065, Control_c, 0, 64, 24
2, 58069, Control_c, 0, 64, 88
2, 58073, Control_c, 0, 64, 127
2, 58075, Note_on_c, 0, 60, 0
2, 58075, Note_on_c, 0, 69, 0
2, 58168, Note_on_c, 0, 68, 84
2, 58174, Note_on_c, 0, 59, 72
2, 58176, Note_on_c, 0, 47, 57
2, 58185, Note_on_c, 0, 59, 0
2, 58191, Note_on_c, 0, 47, 0
2, 58195, Note_on_c, 0, 68, 0
2, 58217, Note_on_c, 0, 66, 76
2, 58224, Note_on_c, 0, 57, 62
2, 58232, Note_on_c, 0, 48, 55
2, 58243, Control_c, 0, 64, 88
2, 58247, Control_c, 0, 64, 0
2, 58262, Note_on_c, 0, 57, 0
2, 58275, Control_c, 0, 64, 104
2, 58277, Note_on_c, 0, 45, 0
2, 58279, Note_on_c, 0, 48, 0
2, 58279, Control_c, 0, 64, 127
2, 58290, Note_on_c, 0, 40, 0
2, 58301, Note_on_c, 0, 66, 0
2, 58340, Note_on_c, 0, 64, 69
2, 58342, Note_on_c, 0, 56, 52
2, 58346, Note_on_c, 0, 40, 54
2, 58348, Note_on_c, 0, 47, 50
2, 58368, Control_c, 0, 64, 104
2, 58372, Control_c, 0, 64, 40
2, 58376, Control_c, 0, 64, 0
2, 58408, Control_c, 0, 64, 40
2, 58412, Control_c, 0, 64, 104
2, 58416, Control_c, 0, 64, 127
2, 58440, Note_on_c, 0, 56, 0
2, 58455, Note_on_c, 0, 64, 0
2, 58461, Note_on_c, 0, 40, 0
2, 58462, Note_on_c, 0, 47, 0
2, 58563, Note_on_c, 0, 68, 84
2, 58573, Control_c, 0, 64, 56
2, 58577, Control_c, 0, 64, 0
2, 58602, Control_c, 0, 64, 40
2, 58606, Control_c, 0, 64, 104
2, 58610, Control_c, 0, 64, 127
2, 58612, Note_on_c, 0, 68, 0
2, 58668, Note_on_c, 0, 64, 82
2, 58668, Note_on_c, 0, 68, 81
2, 58674, Note_on_c, 0, 52, 61
2, 58680, Note_on_c, 0, 59, 49
2, 58689, Control_c, 0, 64, 88
2, 58694, Control_c, 0, 64, 0
2, 58718, Control_c, 0, 64, 56
2, 58722, Control_c, 0, 64, 127
2, 58766, Note_on_c, 0, 52, 0
2, 58770, Note_on_c, 0, 59, 0
2, 58770, Note_on_c, 0, 64, 0
2, 58780, Note_on_c, 0, 68, 0
2, 58847, Note_on_c, 0, 68, 85
2, 58852, Note_on_c, 0, 64, 79
2, 58853, Note_on_c, 0, 59, 63
2, 58854, Note_on_c, 0, 52, 62
2, 58875, Note_on_c, 0, 52, 0
2, 58875, Note_on_c, 0, 64, 0
2, 58877, Note_on_c, 0, 59, 0
2, 58884, Note_on_c, 0, 68, 0
2, 58944, Note_on_c, 0, 68, 84
2, 58948, Note_on_c, 0, 64, 78
2, 58949, Note_on_c, 0, 52, 70
2, 58951, Note_on_c, 0, 59, 58
2, 58964, Control_c, 0, 64, 104
2, 58968, Control_c, 0, 64, 40
2, 58972, Control_c, 0, 64, 0
2, 58997, Control_c, 0, 64, 56
2, 59001, Control_c, 0, 64, 127
2, 59060, Note_on_c, 0, 52, 0
2, 59064, Note_on_c, 0, 64, 0
2, 59068, Note_on_c, 0, 68, 0
2, 59075, Note_on_c, 0, 63, 80
2, 59082, Note_on_c, 0, 59, 0
2, 59098, Note_on_c, 0, 63, 0
2, 59113, Note_on_c, 0, 68, 90
2, 59121, Note_on_c, 0, 56, 58
2, 59121, Note_on_c, 0, 62, 54
2, 59122, Control_c, 0, 64, 40
2, 59122, Note_on_c, 0, 52, 63
2, 59126, Control_c, 0, 64, 0
2, 59146, Note_on_c, 0, 52, 0
2, 59153, Note_on_c, 0, 62, 0
2, 59154, Control_c, 0, 64, 40
2, 59158, Control_c, 0, 64, 104
2, 59162, Control_c, 0, 64, 127
2, 59164, Note_on_c, 0, 56, 0
2, 59164, Note_on_c, 0, 68, 0
2, 59218, Note_on_c, 0, 68, 95
2, 59224, Note_on_c, 0, 63, 69
2, 59228, Note_on_c, 0, 51, 74
2, 59230, Note_on_c, 0, 58, 53
2, 59235, Control_c, 0, 64, 104
2, 59239, Control_c, 0, 64, 40
2, 59243, Control_c, 0, 64, 0
2, 59303, Control_c, 0, 64, 40
2, 59307, Control_c, 0, 64, 72
2, 59311, Control_c, 0, 64, 104
2, 59315, Control_c, 0, 64, 127
2, 59416, Note_on_c, 0, 63, 0
2, 59424, Note_on_c, 0, 68, 0
2, 59484, Note_on_c, 0, 67, 79
2, 59537, Control_c, 0, 64, 72
2, 59541, Control_c, 0, 64, 0
2, 59577, Control_c, 0, 64, 88
2, 59581, Control_c, 0, 64, 127
2, 59616, Note_on_c, 0, 67, 0
2, 59616, Note_on_c, 0, 68, 84
2, 59648, Note_on_c, 0, 68, 0
2, 59652, Note_on_c, 0, 51, 0
2, 59653, Note_on_c, 0, 70, 94
2, 59660, Note_on_c, 0, 58, 0
2, 59681, Note_on_c, 0, 70, 0
2, 59687, Note_on_c, 0, 72, 103
2, 59720, Note_on_c, 0, 72, 0
2, 59740, Note_on_c, 0, 73, 105
2, 59744, Note_on_c, 0, 65, 78
2, 59744, Note_on_c, 0, 68, 71
2, 59749, Note_on_c, 0, 61, 57
2, 59750, Note_on_c, 0, 51, 62
2, 59753, Note_on_c, 0, 53, 68
2, 59759, Control_c, 0, 64, 72
2, 59763, Control_c, 0, 64, 0
2, 59767, Note_on_c, 0, 56, 32
2, 59799, Control_c, 0, 64, 104
2, 59803, Control_c, 0, 64, 127
2, 59828, Note_on_c, 0, 68, 0
2, 59834, Note_on_c, 0, 65, 0
2, 59842, Note_on_c, 0, 56, 0
2, 59844, Note_on_c, 0, 73, 0
2, 59846, Note_on_c, 0, 53, 0
2, 59850, Note_on_c, 0, 51, 0
2, 59853, Note_on_c, 0, 61, 0
2, 59904, Note_on_c, 0, 73, 97
2, 59908, Note_on_c, 0, 68, 77
2, 59910, Note_on_c, 0, 65, 80
2, 59911, Note_on_c, 0, 61, 54
2, 59913, Note_on_c, 0, 56, 54
2, 59916, Note_on_c, 0, 51, 47
2, 59919, Note_on_c, 0, 65, 0
2, 59921, Note_on_c, 0, 53, 52
2, 59925, Note_on_c, 0, 68, 0
2, 59935, Note_on_c, 0, 56, 0
2, 59937, Note_on_c, 0, 73, 0
2, 59940, Note_on_c, 0, 61, 0
2, 59941, Note_on_c, 0, 53, 0
2, 59949, Note_on_c, 0, 51, 0
2, 59985, Control_c, 0, 64, 40
2, 59989, Control_c, 0, 64, 0
2, 59994, Note_on_c, 0, 75, 97
2, 59999, Note_on_c, 0, 63, 62
2, 59999, Note_on_c, 0, 58, 62
2, 60000, Note_on_c, 0, 51, 62
2, 60001, Note_on_c, 0, 67, 67
2, 60004, Note_on_c, 0, 55, 67
2, 60024, Note_on_c, 0, 73, 90
2, 60026, Note_on_c, 0, 75, 0
2, 60047, Note_on_c, 0, 73, 0
2, 60048, Note_on_c, 0, 72, 88
2, 60068, Note_on_c, 0, 73, 90
2, 60076, Note_on_c, 0, 72, 0
2, 60093, Note_on_c, 0, 75, 93
2, 60097, Note_on_c, 0, 73, 0
2, 60109, Control_c, 0, 64, 40
2, 60114, Control_c, 0, 64, 88
2, 60118, Control_c, 0, 64, 127
2, 60122, Note_on_c, 0, 67, 0
2, 60125, Note_on_c, 0, 58, 0
2, 60130, Note_on_c, 0, 55, 0
2, 60132, Note_on_c, 0, 63, 0
2, 60134, Note_on_c, 0, 51, 0
2, 60155, Note_on_c, 0, 75, 0
2, 60171, Note_on_c, 0, 70, 93
2, 60174, Control_c, 0, 64, 56
2, 60178, Note_on_c, 0, 63, 60
2, 60178, Control_c, 0, 64, 0
2, 60181, Note_on_c, 0, 51, 58
2, 60182, Note_on_c, 0, 67, 52
2, 60182, Note_on_c, 0, 58, 54
2, 60185, Note_on_c, 0, 55, 64
2, 60194, Control_c, 0, 64, 56
2, 60198, Note_on_c, 0, 55, 0
2, 60198, Control_c, 0, 64, 127
2, 60204, Note_on_c, 0, 51, 0
2, 60210, Note_on_c, 0, 58, 0
2, 60211, Note_on_c, 0, 63, 0
2, 60212, Note_on_c, 0, 67, 0
2, 60217, Note_on_c, 0, 70, 0
2, 60272, Note_on_c, 0, 73, 93
2, 60276, Note_on_c, 0, 70, 70
2, 60279, Note_on_c, 0, 67, 69
2, 60279, Note_on_c, 0, 63, 66
2, 60280, Control_c, 0, 64, 104
2, 60282, Note_on_c, 0, 56, 63
2, 60283, Control_c, 0, 64, 40
2, 60287, Control_c, 0, 64, 0
2, 60324, Control_c, 0, 64, 24
2, 60328, Control_c, 0, 64, 72
2, 60332, Control_c, 0, 64, 127
2, 60378, Note_on_c, 0, 70, 0
2, 60386, Note_on_c, 0, 67, 0
2, 60508, Note_on_c, 0, 73, 0
2, 60543, Note_on_c, 0, 72, 74
2, 60547, Note_on_c, 0, 68, 45
2, 60582, Control_c, 0, 64, 56
2, 60586, Control_c, 0, 64, 0
2, 60614, Control_c, 0, 64, 88
2, 60618, Control_c, 0, 64, 127
2, 60640, Note_on_c, 0, 56, 0
2, 60643, Note_on_c, 0, 72, 0
2, 60644, Note_on_c, 0, 68, 0
2, 60646, Note_on_c, 0, 63, 0
2, 60727, Note_on_c, 0, 77, 109
2, 60731, Note_on_c, 0, 68, 59
2, 60734, Note_on_c, 0, 65, 73
2, 60734, Note_on_c, 0, 56, 64
2, 60736, Note_on_c, 0, 72, 75
2, 60736, Note_on_c, 0, 60, 72
2, 60739, Control_c, 0, 64, 88
2, 60742, Control_c, 0, 64, 0
2, 60760, Note_on_c, 0, 60, 0
2, 60763, Control_c, 0, 64, 24
2, 60764, Note_on_c, 0, 56, 0
2, 60764, Note_on_c, 0, 65, 0
2, 60764, Note_on_c, 0, 72, 0
2, 60767, Control_c, 0, 64, 104
2, 60771, Control_c, 0, 64, 127
2, 60777, Note_on_c, 0, 68, 0
2, 60778, Note_on_c, 0, 77, 0
2, 60839, Note_on_c, 0, 77, 116
2, 60843, Note_on_c, 0, 68, 65
2, 60843, Note_on_c, 0, 65, 73
2, 60844, Note_on_c, 0, 72, 89
2, 60844, Note_on_c, 0, 56, 63
2, 60847, Note_on_c, 0, 60, 67
2, 60853, Note_on_c, 0, 72, 0
2, 60923, Note_on_c, 0, 68, 0
2, 60926, Note_on_c, 0, 56, 0
2, 60930, Note_on_c, 0, 65, 0
2, 60938, Note_on_c, 0, 60, 0
2, 60940, Note_on_c, 0, 77, 0
2, 61017, Note_on_c, 0, 77, 119
2, 61019, Note_on_c, 0, 68, 73
2, 61021, Note_on_c, 0, 72, 94
2, 61021, Note_on_c, 0, 65, 73
2, 61025, Note_on_c, 0, 56, 55
2, 61025, Note_on_c, 0, 60, 68
2, 61037, Note_on_c, 0, 68, 0
2, 61039, Note_on_c, 0, 72, 0
2, 61039, Note_on_c, 0, 56, 0
2, 61039, Note_on_c, 0, 60, 0
2, 61041, Note_on_c, 0, 65, 0
2, 61060, Note_on_c, 0, 77, 0
2, 61145, Note_on_c, 0, 80, 112
2, 61150, Note_on_c, 0, 68, 74
2, 61153, Note_on_c, 0, 72, 88
2, 61156, Note_on_c, 0, 60, 72
2, 61159, Note_on_c, 0, 56, 60
2, 61178, Control_c, 0, 64, 24
2, 61182, Control_c, 0, 64, 0
2, 61207, Control_c, 0, 64, 127
2, 61230, Note_on_c, 0, 80, 0
2, 61248, Note_on_c, 0, 68, 0
2, 61286, Note_on_c, 0, 72, 0
2, 61300, Note_on_c, 0, 79, 105
2, 61304, Note_on_c, 0, 67, 86
2, 61321, Note_on_c, 0, 67, 0
2, 61323, Note_on_c, 0, 79, 0
2, 61325, Note_on_c, 0, 56, 0
2, 61329, Note_on_c, 0, 60, 0
2, 61354, Note_on_c, 0, 77, 112
2, 61357, Note_on_c, 0, 72, 94
2, 61357, Note_on_c, 0, 68, 69
2, 61360, Control_c, 0, 64, 40
2, 61362, Note_on_c, 0, 56, 72
2, 61362, Note_on_c, 0, 65, 77
2, 61363, Note_on_c, 0, 60, 75
2, 61364, Control_c, 0, 64, 0
2, 61392, Control_c, 0, 64, 72
2, 61396, Control_c, 0, 64, 127
2, 61400, Note_on_c, 0, 60, 0
2, 61402, Note_on_c, 0, 65, 0
2, 61405, Note_on_c, 0, 72, 0
2, 61406, Note_on_c, 0, 56, 0
2, 61412, Note_on_c, 0, 68, 0
2, 61416, Note_on_c, 0, 77, 0
2, 61509, Note_on_c, 0, 77, 101
2, 61512, Note_on_c, 0, 67, 78
2, 61513, Note_on_c, 0, 73, 69
2, 61513, Note_on_c, 0, 70, 69
2, 61516, Note_on_c, 0, 55, 75
2, 61516, Note_on_c, 0, 61, 66
2, 61517, Note_on_c, 0, 58, 57
2, 61519, Note_on_c, 0, 65, 68
2, 61542, Control_c, 0, 64, 88
2, 61546, Control_c, 0, 64, 0
2, 61662, Control_c, 0, 64, 40
2, 61666, Control_c, 0, 64, 104
2, 61670, Control_c, 0, 64, 127
2, 61765, Note_on_c, 0, 77, 0
2, 61810, Note_on_c, 0, 65, 0
2, 61817, Note_on_c, 0, 73, 0
2, 61887, Note_on_c, 0, 76, 84
2, 61891, Note_on_c, 0, 64, 61
2, 61908, Control_c, 0, 64, 40
2, 61912, Control_c, 0, 64, 0
2, 61923, Note_on_c, 0, 61, 0
2, 61928, Control_c, 0, 64, 56
2, 61931, Note_on_c, 0, 55, 0
2, 61933, Control_c, 0, 64, 127
2, 61934, Note_on_c, 0, 58, 0
2, 61937, Note_on_c, 0, 64, 0
2, 61943, Note_on_c, 0, 67, 0
2, 61949, Note_on_c, 0, 70, 0
2, 61974, Note_on_c, 0, 76, 0
2, 61984, Note_on_c, 0, 75, 84
2, 61986, Note_on_c, 0, 63, 52
2, 61988, Note_on_c, 0, 70, 54
2, 61990, Note_on_c, 0, 55, 60
2, 62021, Control_c, 0, 64, 72
2, 62025, Control_c, 0, 64, 0
2, 62050, Control_c, 0, 64, 72
2, 62054, Control_c, 0, 64, 127
2, 62066, Note_on_c, 0, 75, 0
2, 62084, Note_on_c, 0, 63, 0
2, 62160, Note_on_c, 0, 74, 84
2, 62162, Note_on_c, 0, 62, 62
2, 62179, Control_c, 0, 64, 72
2, 62183, Control_c, 0, 64, 24
2, 62187, Control_c, 0, 64, 0
2, 62195, Control_c, 0, 64, 40
2, 62199, Control_c, 0, 64, 88
2, 62203, Control_c, 0, 64, 127
2, 62222, Note_on_c, 0, 74, 0
2, 62261, Note_on_c, 0, 62, 0
2, 62263, Note_on_c, 0, 73, 67
2, 62274, Note_on_c, 0, 61, 43
2, 62284, Control_c, 0, 64, 88
2, 62288, Control_c, 0, 64, 24
2, 62292, Control_c, 0, 64, 0
2, 62328, Control_c, 0, 64, 40
2, 62332, Control_c, 0, 64, 88
2, 62336, Control_c, 0, 64, 127
2, 62346, Note_on_c, 0, 55, 0
2, 62354, Note_on_c, 0, 70, 0
2, 62358, Note_on_c, 0, 73, 0
2, 62363, Note_on_c, 0, 61, 0
2, 62496, Note_on_c, 0, 72, 83
2, 62501, Note_on_c, 0, 68, 63
2, 62501, Note_on_c, 0, 63, 52
2, 62503, Note_on_c, 0, 56, 60
2, 62503, Control_c, 0, 64, 72
2, 62507, Control_c, 0, 64, 0
2, 62527, Control_c, 0, 64, 56
2, 62531, Note_on_c, 0, 56, 0
2, 62531, Control_c, 0, 64, 127
2, 62534, Note_on_c, 0, 63, 0
2, 62535, Note_on_c, 0, 68, 0
2, 62605, Note_on_c, 0, 68, 57
2, 62607, Note_on_c, 0, 65, 66
2, 62608, Note_on_c, 0, 61, 65
2, 62632, Control_c, 0, 64, 56
2, 62636, Control_c, 0, 64, 0
2, 62664, Control_c, 0, 64, 40
2, 62668, Control_c, 0, 64, 104
2, 62672, Control_c, 0, 64, 127
2, 62696, Note_on_c, 0, 72, 0
2, 62849, Note_on_c, 0, 70, 70
2, 62878, Control_c, 0, 64, 72
2, 62882, Control_c, 0, 64, 0
2, 62910, Control_c, 0, 64, 88
2, 62914, Control_c, 0, 64, 127
2, 62917, Note_on_c, 0, 65, 0
2, 62923, Note_on_c, 0, 68, 0
2, 62928, Note_on_c, 0, 61, 0
2, 62934, Note_on_c, 0, 70, 0
2, 63030, Note_on_c, 0, 77, 104
2, 63034, Note_on_c, 0, 70, 78
2, 63035, Note_on_c, 0, 67, 69
2, 63036, Note_on_c, 0, 65, 69
2, 63036, Control_c, 0, 64, 56
2, 63036, Note_on_c, 0, 61, 62
2, 63039, Control_c, 0, 64, 0
2, 63056, Control_c, 0, 64, 40
2, 63060, Control_c, 0, 64, 88
2, 63064, Control_c, 0, 64, 127
2, 63070, Note_on_c, 0, 67, 0
2, 63084, Note_on_c, 0, 70, 0
2, 63096, Note_on_c, 0, 61, 0
2, 63141, Note_on_c, 0, 72, 85
2, 63142, Note_on_c, 0, 60, 71
2, 63142, Note_on_c, 0, 68, 58
2, 63168, Control_c, 0, 64, 40
2, 63172, Control_c, 0, 64, 0
2, 63205, Control_c, 0, 64, 88
2, 63209, Control_c, 0, 64, 127
2, 63400, Note_on_c, 0, 75, 75
2, 63401, Note_on_c, 0, 77, 0
2, 63413, Note_on_c, 0, 65, 0
2, 63414, Note_on_c, 0, 63, 53
2, 63442, Control_c, 0, 64, 72
2, 63446, Control_c, 0, 64, 0
2, 63471, Control_c, 0, 64, 40
2, 63472, Note_on_c, 0, 72, 0
2, 63475, Control_c, 0, 64, 127
2, 63484, Note_on_c, 0, 75, 0
2, 63485, Note_on_c, 0, 68, 0
2, 63488, Note_on_c, 0, 63, 0
2, 63490, Note_on_c, 0, 60, 0
2, 63568, Note_on_c, 0, 63, 81
2, 63574, Note_on_c, 0, 60, 65
2, 63574, Note_on_c, 0, 56, 63
2, 63591, Note_on_c, 0, 60, 0
2, 63612, Note_on_c, 0, 68, 87
2, 63615, Note_on_c, 0, 63, 0
2, 63620, Note_on_c, 0, 51, 66
2, 63649, Note_on_c, 0, 68, 0
2, 63654, Note_on_c, 0, 72, 104
2, 63661, Note_on_c, 0, 48, 76
2, 63665, Note_on_c, 0, 51, 0
2, 63665, Note_on_c, 0, 56, 0
2, 63670, Note_on_c, 0, 48, 0
2, 63677, Note_on_c, 0, 72, 0
2, 63713, Note_on_c, 0, 73, 96
2, 63715, Note_on_c, 0, 63, 70
2, 63717, Note_on_c, 0, 67, 82
2, 63718, Note_on_c, 0, 61, 52
2, 63723, Note_on_c, 0, 46, 65
2, 63725, Note_on_c, 0, 55, 62
2, 63726, Note_on_c, 0, 51, 56
2, 63729, Control_c, 0, 64, 40
2, 63733, Control_c, 0, 64, 0
2, 63769, Control_c, 0, 64, 88
2, 63773, Control_c, 0, 64, 127
2, 63798, Note_on_c, 0, 67, 0
2, 63800, Note_on_c, 0, 61, 0
2, 63800, Note_on_c, 0, 63, 0
2, 63804, Note_on_c, 0, 73, 0
2, 63806, Note_on_c, 0, 55, 0
2, 63807, Note_on_c, 0, 46, 0
2, 63818, Note_on_c, 0, 51, 0
2, 63878, Control_c, 0, 64, 88
2, 63882, Note_on_c, 0, 72, 99
2, 63882, Note_on_c, 0, 60, 86
2, 63882, Control_c, 0, 64, 24
2, 63885, Note_on_c, 0, 63, 74
2, 63885, Note_on_c, 0, 56, 62
2, 63885, Note_on_c, 0, 68, 66
2, 63886, Control_c, 0, 64, 0
2, 63887, Note_on_c, 0, 44, 63
2, 63889, Note_on_c, 0, 51, 60
2, 63898, Control_c, 0, 64, 40
2, 63902, Control_c, 0, 64, 104
2, 63906, Control_c, 0, 64, 127
2, 63910, Note_on_c, 0, 72, 0
2, 63916, Note_on_c, 0, 44, 0
2, 63916, Note_on_c, 0, 68, 0
2, 63916, Note_on_c, 0, 51, 0
2, 63918, Note_on_c, 0, 60, 0
2, 63926, Note_on_c, 0, 56, 0
2, 63934, Note_on_c, 0, 63, 0
2, 63980, Note_on_c, 0, 70, 97
2, 63982, Note_on_c, 0, 58, 77
2, 63984, Note_on_c, 0, 63, 75
2, 63987, Note_on_c, 0, 55, 78
2, 63988, Note_on_c, 0, 51, 74
2, 63990, Note_on_c, 0, 43, 69
2, 63991, Control_c, 0, 64, 72
2, 63995, Control_c, 0, 64, 0
2, 64019, Control_c, 0, 64, 40
2, 64023, Control_c, 0, 64, 127
2, 64046, Note_on_c, 0, 63, 0
2, 64054, Note_on_c, 0, 58, 0
2, 64058, Note_on_c, 0, 55, 0
2, 64060, Note_on_c, 0, 43, 0
2, 64063, Note_on_c, 0, 51, 0
2, 64067, Note_on_c, 0, 70, 0
2, 64152, Control_c, 0, 64, 104
2, 64154, Note_on_c, 0, 74, 105
2, 64156, Note_on_c, 0, 62, 90
2, 64156, Note_on_c, 0, 70, 80
2, 64156, Control_c, 0, 64, 24
2, 64157, Note_on_c, 0, 68, 75
2, 64160, Note_on_c, 0, 46, 73
2, 64160, Note_on_c, 0, 53, 78
2, 64160, Control_c, 0, 64, 0
2, 64162, Note_on_c, 0, 41, 72
2, 64181, Control_c, 0, 64, 40
2, 64182, Note_on_c, 0, 53, 0
2, 64185, Note_on_c, 0, 41, 0
2, 64185, Control_c, 0, 64, 127
2, 64186, Note_on_c, 0, 62, 0
2, 64188, Note_on_c, 0, 46, 0
2, 64193, Note_on_c, 0, 70, 0
2, 64194, Note_on_c, 0, 68, 0
2, 64199, Note_on_c, 0, 74, 0
2, 64263, Note_on_c, 0, 74, 107
2, 64265, Note_on_c, 0, 70, 85
2, 64265, Note_on_c, 0, 68, 77
2, 64266, Note_on_c, 0, 62, 90
2, 64269, Note_on_c, 0, 51, 67
2, 64270, Note_on_c, 0, 46, 67
2, 64271, Note_on_c, 0, 39, 63
2, 64282, Control_c, 0, 64, 88
2, 64286, Control_c, 0, 64, 0
2, 64330, Control_c, 0, 64, 88
2, 64334, Control_c, 0, 64, 127
2, 64438, Note_on_c, 0, 62, 0
2, 64439, Note_on_c, 0, 68, 0
2, 64440, Note_on_c, 0, 74, 0
2, 64538, Note_on_c, 0, 70, 0
2, 64550, Note_on_c, 0, 75, 82
2, 64555, Note_on_c, 0, 67, 71
2, 64558, Note_on_c, 0, 63, 52
2, 64592, Control_c, 0, 64, 88
2, 64596, Control_c, 0, 64, 0
2, 64632, Control_c, 0, 64, 88
2, 64636, Control_c, 0, 64, 127
2, 64651, Note_on_c, 0, 75, 0
2, 64651, Note_on_c, 0, 51, 0
2, 64652, Note_on_c, 0, 67, 0
2, 64654, Note_on_c, 0, 39, 0
2, 64654, Note_on_c, 0, 46, 0
2, 64664, Note_on_c, 0, 63, 0
2, 64747, Note_on_c, 0, 72, 108
2, 64749, Control_c, 0, 64, 104
2, 64752, Note_on_c, 0, 68, 79
2, 64753, Note_on_c, 0, 63, 74
2, 64753, Control_c, 0, 64, 24
2, 64754, Note_on_c, 0, 44, 74
2, 64754, Note_on_c, 0, 32, 76
2, 64757, Control_c, 0, 64, 0
2, 64773, Note_on_c, 0, 32, 0
2, 64776, Note_on_c, 0, 44, 0
2, 64778, Control_c, 0, 64, 88
2, 64782, Control_c, 0, 64, 127
2, 64784, Note_on_c, 0, 63, 0
2, 64786, Note_on_c, 0, 68, 0
2, 64792, Note_on_c, 0, 72, 0
2, 64865, Note_on_c, 0, 72, 106
2, 64869, Note_on_c, 0, 68, 76
2, 64871, Note_on_c, 0, 64, 75
2, 64873, Note_on_c, 0, 49, 63
2, 64875, Note_on_c, 0, 37, 58
2, 64886, Control_c, 0, 64, 88
2, 64890, Control_c, 0, 64, 0
2, 64919, Control_c, 0, 64, 56
2, 64923, Control_c, 0, 64, 127
2, 65114, Note_on_c, 0, 72, 0
2, 65139, Note_on_c, 0, 71, 86
2, 65172, Note_on_c, 0, 71, 0
2, 65179, Note_on_c, 0, 70, 79
2, 65208, Control_c, 0, 64, 88
2, 65213, Control_c, 0, 64, 0
2, 65245, Control_c, 0, 64, 40
2, 65249, Control_c, 0, 64, 104
2, 65253, Control_c, 0, 64, 127
2, 65264, Note_on_c, 0, 64, 0
2, 65268, Note_on_c, 0, 37, 0
2, 65268, Note_on_c, 0, 68, 0
2, 65268, Note_on_c, 0, 49, 0
2, 65282, Note_on_c, 0, 70, 0
2, 65369, Note_on_c, 0, 72, 109
2, 65374, Note_on_c, 0, 68, 80
2, 65374, Note_on_c, 0, 63, 75
2, 65374, Control_c, 0, 64, 56
2, 65374, Note_on_c, 0, 32, 76
2, 65375, Note_on_c, 0, 44, 69
2, 65378, Control_c, 0, 64, 0
2, 65398, Note_on_c, 0, 32, 0
2, 65399, Control_c, 0, 64, 72
2, 65400, Note_on_c, 0, 44, 0
2, 65402, Control_c, 0, 64, 127
2, 65409, Note_on_c, 0, 68, 0
2, 65410, Note_on_c, 0, 63, 0
2, 65414, Note_on_c, 0, 72, 0
2, 65487, Note_on_c, 0, 72, 108
2, 65492, Note_on_c, 0, 68, 84
2, 65493, Note_on_c, 0, 64, 85
2, 65496, Note_on_c, 0, 49, 69
2, 65499, Note_on_c, 0, 37, 62
2, 65524, Control_c, 0, 64, 72
2, 65528, Control_c, 0, 64, 0
2, 65559, Control_c, 0, 64, 56
2, 65564, Control_c, 0, 64, 127
2, 65720, Note_on_c, 0, 72, 0
2, 65747, Note_on_c, 0, 71, 87
2, 65790, Note_on_c, 0, 71, 0
2, 65800, Note_on_c, 0, 70, 75
2, 65805, Control_c, 0, 64, 88
2, 65809, Control_c, 0, 64, 24
2, 65814, Control_c, 0, 64, 0
2, 65878, Control_c, 0, 64, 72
2, 65882, Control_c, 0, 64, 127
2, 65900, Note_on_c, 0, 70, 0
2, 65902, Note_on_c, 0, 37, 0
2, 65904, Note_on_c, 0, 64, 0
2, 65910, Note_on_c, 0, 68, 0
2, 65919, Note_on_c, 0, 49, 0
2, 65999, Note_on_c, 0, 71, 102
2, 66001, Note_on_c, 0, 68, 76
2, 66004, Note_on_c, 0, 64, 78
2, 66007, Note_on_c, 0, 38, 64
2, 66007, Note_on_c, 0, 50, 60
2, 66040, Control_c, 0, 64, 56
2, 66044, Control_c, 0, 64, 0
2, 66072, Control_c, 0, 64, 56
2, 66076, Control_c, 0, 64, 127
2, 66162, Note_on_c, 0, 38, 0
2, 66163, Note_on_c, 0, 64, 0
2, 66175, Note_on_c, 0, 50, 0
2, 66176, Note_on_c, 0, 71, 0
2, 66187, Note_on_c, 0, 68, 0
2, 66232, Note_on_c, 0, 71, 92
2, 66234, Note_on_c, 0, 68, 65
2, 66235, Note_on_c, 0, 64, 66
2, 66237, Note_on_c, 0, 50, 72
2, 66242, Note_on_c, 0, 38, 57
2, 66266, Note_on_c, 0, 38, 0
2, 66274, Note_on_c, 0, 50, 0
2, 66279, Note_on_c, 0, 64, 0
2, 66280, Note_on_c, 0, 68, 0
2, 66280, Note_on_c, 0, 71, 0
2, 66332, Note_on_c, 0, 71, 99
2, 66332, Note_on_c, 0, 68, 78
2, 66336, Note_on_c, 0, 64, 71
2, 66337, Note_on_c, 0, 50, 74
2, 66338, Note_on_c, 0, 38, 68
2, 66358, Note_on_c, 0, 68, 0
2, 66362, Note_on_c, 0, 50, 0
2, 66363, Note_on_c, 0, 38, 0
2, 66363, Note_on_c, 0, 64, 0
2, 66378, Note_on_c, 0, 71, 0
2, 66425, Note_on_c, 0, 71, 104
2, 66426, Note_on_c, 0, 68, 82
2, 66429, Note_on_c, 0, 64, 79
2, 66430, Note_on_c, 0, 50, 77
2, 66435, Note_on_c, 0, 38, 68
2, 66454, Note_on_c, 0, 64, 0
2, 66454, Note_on_c, 0, 68, 0
2, 66458, Note_on_c, 0, 38, 0
2, 66460, Note_on_c, 0, 50, 0
2, 66462, Note_on_c, 0, 71, 0
2, 66520, Note_on_c, 0, 73, 105
2, 66523, Note_on_c, 0, 69, 93
2, 66526, Note_on_c, 0, 64, 77
2, 66530, Note_on_c, 0, 49, 73
2, 66531, Note_on_c, 0, 37, 69
2, 66531, Control_c, 0, 64, 40
2, 66536, Control_c, 0, 64, 0
2, 66556, Control_c, 0, 64, 88
2, 66557, Note_on_c, 0, 37, 0
2, 66560, Control_c, 0, 64, 127
2, 66561, Note_on_c, 0, 49, 0
2, 66566, Note_on_c, 0, 69, 0
2, 66568, Note_on_c, 0, 64, 0
2, 66580, Note_on_c, 0, 73, 0
2, 66617, Note_on_c, 0, 74, 107
2, 66621, Note_on_c, 0, 64, 83
2, 66622, Note_on_c, 0, 71, 84
2, 66626, Note_on_c, 0, 47, 80
2, 66630, Note_on_c, 0, 35, 66
2, 66633, Control_c, 0, 64, 56
2, 66636, Control_c, 0, 64, 0
2, 66657, Control_c, 0, 64, 72
2, 66658, Note_on_c, 0, 71, 0
2, 66661, Note_on_c, 0, 47, 0
2, 66661, Note_on_c, 0, 64, 0
2, 66661, Control_c, 0, 64, 127
2, 66662, Note_on_c, 0, 35, 0
2, 66663, Note_on_c, 0, 74, 0
2, 66715, Note_on_c, 0, 73, 84
2, 66717, Note_on_c, 0, 64, 90
2, 66717, Note_on_c, 0, 76, 103
2, 66721, Control_c, 0, 64, 72
2, 66723, Note_on_c, 0, 33, 62
2, 66724, Note_on_c, 0, 45, 64
2, 66726, Control_c, 0, 64, 0
2, 66750, Control_c, 0, 64, 127
2, 66752, Note_on_c, 0, 33, 0
2, 66758, Note_on_c, 0, 73, 0
2, 66758, Note_on_c, 0, 45, 0
2, 66762, Note_on_c, 0, 76, 0
2, 66774, Note_on_c, 0, 64, 0
2, 66814, Note_on_c, 0, 74, 104
2, 66817, Note_on_c, 0, 71, 88
2, 66820, Note_on_c, 0, 64, 76
2, 66821, Note_on_c, 0, 47, 77
2, 66822, Control_c, 0, 64, 88
2, 66824, Note_on_c, 0, 35, 67
2, 66826, Control_c, 0, 64, 0
2, 66850, Control_c, 0, 64, 104
2, 66854, Control_c, 0, 64, 127
2, 66855, Note_on_c, 0, 35, 0
2, 66858, Note_on_c, 0, 47, 0
2, 66860, Note_on_c, 0, 71, 0
2, 66870, Note_on_c, 0, 64, 0
2, 66881, Note_on_c, 0, 74, 0
2, 66922, Note_on_c, 0, 73, 89
2, 66926, Note_on_c, 0, 69, 86
2, 66928, Note_on_c, 0, 64, 74
2, 66930, Note_on_c, 0, 37, 64
2, 66930, Note_on_c, 0, 49, 65
2, 66935, Control_c, 0, 64, 72
2, 66939, Control_c, 0, 64, 0
2, 66961, Note_on_c, 0, 69, 0
2, 66967, Control_c, 0, 64, 88
2, 66971, Note_on_c, 0, 73, 0
2, 66972, Control_c, 0, 64, 127
2, 66974, Note_on_c, 0, 37, 0
2, 66975, Note_on_c, 0, 64, 0
2, 66975, Note_on_c, 0, 49, 0
2, 67056, Note_on_c, 0, 71, 86
2, 67059, Note_on_c, 0, 68, 69
2, 67060, Note_on_c, 0, 63, 58
2, 67060, Note_on_c, 0, 39, 63
2, 67062, Note_on_c, 0, 51, 64
2, 67076, Control_c, 0, 64, 72
2, 67080, Control_c, 0, 64, 0
2, 67137, Control_c, 0, 64, 127
2, 67253, Note_on_c, 0, 68, 0
2, 67302, Note_on_c, 0, 71, 0
2, 67376, Note_on_c, 0, 70, 62
2, 67384, Note_on_c, 0, 67, 52
2, 67411, Control_c, 0, 64, 88
2, 67415, Control_c, 0, 64, 0
2, 67447, Control_c, 0, 64, 56
2, 67451, Control_c, 0, 64, 127
2, 67458, Note_on_c, 0, 67, 0
2, 67461, Note_on_c, 0, 70, 0
2, 67465, Note_on_c, 0, 63, 0
2, 67477, Note_on_c, 0, 39, 0
2, 67482, Note_on_c, 0, 51, 0
2, 67595, Note_on_c, 0, 59, 79
2, 67602, Note_on_c, 0, 56, 53
2, 67604, Note_on_c, 0, 50, 59
2, 67609, Note_on_c, 0, 52, 52
2, 67629, Control_c, 0, 64, 72
2, 67633, Control_c, 0, 64, 0
2, 67664, Control_c, 0, 64, 88
2, 67669, Control_c, 0, 64, 127
2, 67713, Note_on_c, 0, 59, 0
2, 67715, Note_on_c, 0, 56, 0
2, 67729, Note_on_c, 0, 52, 0
2, 67732, Note_on_c, 0, 50, 0
2, 67802, Note_on_c, 0, 59, 74
2, 67804, Note_on_c, 0, 50, 64
2, 67808, Note_on_c, 0, 56, 43
2, 67810, Note_on_c, 0, 52, 60
2, 67854, Note_on_c, 0, 50, 0
2, 67855, Note_on_c, 0, 52, 0
2, 67858, Note_on_c, 0, 59, 0
2, 67862, Note_on_c, 0, 56, 0
2, 67903, Note_on_c, 0, 59, 86
2, 67905, Note_on_c, 0, 56, 52
2, 67907, Note_on_c, 0, 50, 67
2, 67908, Note_on_c, 0, 52, 60
2, 67943, Note_on_c, 0, 52, 0
2, 67945, Note_on_c, 0, 50, 0
2, 67951, Note_on_c, 0, 56, 0
2, 67954, Note_on_c, 0, 59, 0
2, 67993, Note_on_c, 0, 59, 95
2, 67993, Note_on_c, 0, 56, 74
2, 67996, Note_on_c, 0, 50, 66
2, 68001, Note_on_c, 0, 52, 69
2, 68023, Note_on_c, 0, 52, 0
2, 68023, Note_on_c, 0, 56, 0
2, 68040, Note_on_c, 0, 50, 0
2, 68046, Note_on_c, 0, 59, 0
2, 68081, Note_on_c, 0, 61, 94
2, 68085, Note_on_c, 0, 57, 79
2, 68090, Note_on_c, 0, 52, 60
2, 68090, Note_on_c, 0, 49, 62
2, 68092, Control_c, 0, 64, 40
2, 68096, Control_c, 0, 64, 0
2, 68112, Note_on_c, 0, 57, 0
2, 68117, Control_c, 0, 64, 40
2, 68121, Control_c, 0, 64, 127
2, 68125, Note_on_c, 0, 52, 0
2, 68134, Note_on_c, 0, 61, 0
2, 68139, Note_on_c, 0, 49, 0
2, 68170, Note_on_c, 0, 62, 95
2, 68172, Note_on_c, 0, 59, 80
2, 68177, Control_c, 0, 64, 24
2, 68179, Note_on_c, 0, 52, 61
2, 68181, Control_c, 0, 64, 0
2, 68183, Note_on_c, 0, 47, 69
2, 68205, Control_c, 0, 64, 104
2, 68209, Note_on_c, 0, 47, 0
2, 68209, Note_on_c, 0, 52, 0
2, 68210, Control_c, 0, 64, 127
2, 68216, Note_on_c, 0, 59, 0
2, 68222, Note_on_c, 0, 62, 0
2, 68251, Note_on_c, 0, 66, 81
2, 68269, Note_on_c, 0, 64, 93
2, 68273, Note_on_c, 0, 61, 42
2, 68274, Control_c, 0, 64, 88
2, 68278, Note_on_c, 0, 66, 0
2, 68278, Control_c, 0, 64, 0
2, 68280, Note_on_c, 0, 45, 61
2, 68284, Note_on_c, 0, 52, 46
2, 68310, Control_c, 0, 64, 72
2, 68314, Control_c, 0, 64, 127
2, 68320, Note_on_c, 0, 52, 0
2, 68322, Note_on_c, 0, 61, 0
2, 68323, Note_on_c, 0, 45, 0
2, 68340, Note_on_c, 0, 64, 0
2, 68365, Note_on_c, 0, 62, 88
2, 68371, Note_on_c, 0, 59, 64
2, 68374, Note_on_c, 0, 47, 61
2, 68374, Note_on_c, 0, 52, 54
2, 68379, Control_c, 0, 64, 40
2, 68383, Control_c, 0, 64, 0
2, 68399, Control_c, 0, 64, 56
2, 68403, Control_c, 0, 64, 127
2, 68406, Note_on_c, 0, 47, 0
2, 68407, Note_on_c, 0, 52, 0
2, 68408, Note_on_c, 0, 62, 0
2, 68410, Note_on_c, 0, 59, 0
2, 68473, Note_on_c, 0, 61, 74
2, 68481, Note_on_c, 0, 52, 57
2, 68481, Note_on_c, 0, 57, 54
2, 68484, Note_on_c, 0, 49, 53
2, 68484, Control_c, 0, 64, 88
2, 68488, Control_c, 0, 64, 24
2, 68491, Control_c, 0, 64, 0
2, 68518, Note_on_c, 0, 61, 0
2, 68520, Control_c, 0, 64, 88
2, 68524, Control_c, 0, 64, 127
2, 68530, Note_on_c, 0, 52, 0
2, 68530, Note_on_c, 0, 49, 0
2, 68536, Note_on_c, 0, 57, 0
2, 68605, Note_on_c, 0, 59, 73
2, 68608, Note_on_c, 0, 51, 66
2, 68609, Note_on_c, 0, 56, 55
2, 68636, Control_c, 0, 64, 56
2, 68640, Control_c, 0, 64, 0
2, 68689, Control_c, 0, 64, 40
2, 68693, Control_c, 0, 64, 127
2, 68776, Note_on_c, 0, 59, 0
2, 68780, Note_on_c, 0, 56, 0
2, 68919, Note_on_c, 0, 39, 58
2, 68921, Note_on_c, 0, 58, 62
2, 68928, Note_on_c, 0, 55, 56
2, 68964, Control_c, 0, 64, 72
2, 68968, Control_c, 0, 64, 0
2, 69004, Control_c, 0, 64, 56
2, 69008, Control_c, 0, 64, 127
2, 69082, Note_on_c, 0, 55, 0
2, 69082, Note_on_c, 0, 51, 0
2, 69109, Note_on_c, 0, 39, 0
2, 69142, Note_on_c, 0, 58, 0
2, 69305, Note_on_c, 0, 56, 65
2, 69307, Note_on_c, 0, 32, 50
2, 69308, Note_on_c, 0, 44, 48
2, 69334, Control_c, 0, 64, 56
2, 69338, Control_c, 0, 64, 0
2, 69363, Control_c, 0, 64, 24
2, 69367, Control_c, 0, 64, 104
2, 69371, Control_c, 0, 64, 127
2, 69398, Note_on_c, 0, 32, 0
2, 69402, Note_on_c, 0, 44, 0
2, 69402, Note_on_c, 0, 56, 0
2, 69722, Control_c, 0, 64, 104
2, 69726, Control_c, 0, 64, 72
2, 69730, Control_c, 0, 64, 40
2, 69734, Control_c, 0, 64, 0
2, 69734, End_track
0, 0, End_of_file
