0, 0, Header, 0, 1, 384
1, 0, Start_track
1, 0, Tempo, 512820
1, 0, Title_t, "Sechs Moments MuNr. 2 in As-Dur"
1, 0, Program_c, 0, 0
1, 0, Control_c, 0, 7, 100
1, 3, Control_c, 0, 10, 64
1, 3, Control_c, 0, 91, 127
1, 3, Program_c, 0, 0
1, 6, Control_c, 0, 7, 100
1, 6, Control_c, 0, 10, 64
1, 6, Control_c, 0, 64, 0
1, 1808, Control_c, 0, 64, 0
1, 1843, Note_on_c, 0, 68, 52
1, 1843, Note_on_c, 0, 72, 56
1, 1843, Control_c, 0, 91, 127
1, 1846, Note_on_c, 0, 60, 52
1, 1846, Note_on_c, 0, 44, 43
1, 1846, Note_on_c, 0, 51, 49
1, 1849, Control_c, 0, 91, 127
1, 2303, Note_on_c, 0, 67, 52
1, 2303, Note_on_c, 0, 61, 52
1, 2303, Note_on_c, 0, 73, 56
1, 2306, Note_on_c, 0, 51, 0
1, 2306, Note_on_c, 0, 46, 43
1, 2306, Note_on_c, 0, 51, 49
1, 2316, Note_on_c, 0, 60, 0
1, 2316, Note_on_c, 0, 68, 0
1, 2316, Note_on_c, 0, 72, 0
1, 2319, Note_on_c, 0, 44, 0
1, 2457, Note_on_c, 0, 68, 52
1, 2457, Note_on_c, 0, 72, 56
1, 2457, Note_on_c, 0, 60, 52
1, 2460, Note_on_c, 0, 51, 0
1, 2460, Note_on_c, 0, 44, 43
1, 2460, Note_on_c, 0, 51, 49
1, 2472, Note_on_c, 0, 67, 0
1, 2472, Note_on_c, 0, 73, 0
1, 2472, Note_on_c, 0, 61, 0
1, 2475, Note_on_c, 0, 46, 0
1, 2814, Note_on_c, 0, 68, 0
1, 2814, Note_on_c, 0, 72, 0
1, 2814, Note_on_c, 0, 60, 0
1, 2817, Note_on_c, 0, 73, 47
1, 2817, Note_on_c, 0, 61, 44
1, 2817, Note_on_c, 0, 67, 44
1, 2820, Note_on_c, 0, 51, 0
1, 2820, Note_on_c, 0, 44, 0
1, 2820, Note_on_c, 0, 51, 43
1, 2823, Note_on_c, 0, 46, 37
1, 4655, Note_on_c, 0, 67, 0
1, 4655, Note_on_c, 0, 61, 0
1, 4655, Note_on_c, 0, 73, 0
1, 4658, Note_on_c, 0, 72, 56
1, 4658, Note_on_c, 0, 60, 52
1, 4658, Note_on_c, 0, 68, 52
1, 4661, Note_on_c, 0, 46, 0
1, 4661, Note_on_c, 0, 51, 0
1, 4661, Note_on_c, 0, 44, 43
1, 4664, Note_on_c, 0, 51, 49
1, 5115, Note_on_c, 0, 61, 52
1, 5115, Note_on_c, 0, 67, 52
1, 5115, Note_on_c, 0, 73, 56
1, 5118, Note_on_c, 0, 51, 0
1, 5118, Note_on_c, 0, 51, 49
1, 5118, Note_on_c, 0, 46, 43
1, 5128, Note_on_c, 0, 68, 0
1, 5128, Note_on_c, 0, 72, 0
1, 5128, Note_on_c, 0, 60, 0
1, 5131, Note_on_c, 0, 44, 0
1, 5268, Note_on_c, 0, 60, 52
1, 5268, Note_on_c, 0, 72, 56
1, 5268, Note_on_c, 0, 68, 52
1, 5271, Note_on_c, 0, 51, 0
1, 5271, Note_on_c, 0, 44, 43
1, 5271, Note_on_c, 0, 51, 49
1, 5285, Note_on_c, 0, 61, 0
1, 5285, Note_on_c, 0, 73, 0
1, 5285, Note_on_c, 0, 67, 0
1, 5288, Note_on_c, 0, 46, 0
1, 5667, Note_on_c, 0, 60, 0
1, 5667, Note_on_c, 0, 72, 0
1, 5667, Note_on_c, 0, 68, 0
1, 5670, Note_on_c, 0, 67, 45
1, 5670, Note_on_c, 0, 58, 45
1, 5670, Note_on_c, 0, 70, 50
1, 5673, Note_on_c, 0, 51, 0
1, 5673, Note_on_c, 0, 44, 0
1, 5673, Note_on_c, 0, 51, 43
1, 5676, Note_on_c, 0, 39, 37
1, 7511, Note_on_c, 0, 70, 0
1, 7511, Note_on_c, 0, 58, 0
1, 7511, Note_on_c, 0, 67, 0
1, 7514, Note_on_c, 0, 68, 52
1, 7514, Note_on_c, 0, 60, 52
1, 7514, Note_on_c, 0, 72, 56
1, 7517, Note_on_c, 0, 39, 0
1, 7517, Note_on_c, 0, 51, 0
1, 7517, Note_on_c, 0, 44, 43
1, 7520, Note_on_c, 0, 51, 49
1, 7971, Note_on_c, 0, 67, 52
1, 7971, Note_on_c, 0, 73, 56
1, 7971, Note_on_c, 0, 61, 52
1, 7974, Note_on_c, 0, 51, 0
1, 7974, Note_on_c, 0, 46, 43
1, 7974, Note_on_c, 0, 51, 49
1, 7984, Note_on_c, 0, 72, 0
1, 7984, Note_on_c, 0, 68, 0
1, 7984, Note_on_c, 0, 60, 0
1, 7987, Note_on_c, 0, 44, 0
1, 8124, Note_on_c, 0, 72, 56
1, 8124, Note_on_c, 0, 60, 52
1, 8124, Note_on_c, 0, 68, 52
1, 8127, Note_on_c, 0, 51, 0
1, 8127, Note_on_c, 0, 51, 49
1, 8127, Note_on_c, 0, 44, 43
1, 8137, Note_on_c, 0, 67, 0
1, 8137, Note_on_c, 0, 61, 0
1, 8137, Note_on_c, 0, 73, 0
1, 8140, Note_on_c, 0, 46, 0
1, 8431, Note_on_c, 0, 72, 0
1, 8431, Note_on_c, 0, 60, 0
1, 8431, Note_on_c, 0, 68, 0
1, 8434, Note_on_c, 0, 72, 52
1, 8434, Note_on_c, 0, 60, 46
1, 8434, Note_on_c, 0, 68, 46
1, 8437, Note_on_c, 0, 44, 0
1, 8437, Note_on_c, 0, 51, 0
1, 8437, Note_on_c, 0, 44, 39
1, 8440, Note_on_c, 0, 51, 45
1, 8891, Note_on_c, 0, 61, 55
1, 8891, Note_on_c, 0, 67, 55
1, 8891, Note_on_c, 0, 73, 61
1, 8894, Note_on_c, 0, 51, 0
1, 8894, Note_on_c, 0, 51, 50
1, 8894, Note_on_c, 0, 46, 44
1, 8904, Note_on_c, 0, 68, 0
1, 8904, Note_on_c, 0, 72, 0
1, 8904, Note_on_c, 0, 60, 0
1, 8907, Note_on_c, 0, 44, 0
1, 9045, Note_on_c, 0, 60, 57
1, 9045, Note_on_c, 0, 72, 64
1, 9045, Note_on_c, 0, 68, 57
1, 9048, Note_on_c, 0, 51, 0
1, 9048, Note_on_c, 0, 44, 46
1, 9048, Note_on_c, 0, 51, 54
1, 9057, Note_on_c, 0, 61, 0
1, 9057, Note_on_c, 0, 73, 0
1, 9057, Note_on_c, 0, 67, 0
1, 9060, Note_on_c, 0, 46, 0
1, 9425, Note_on_c, 0, 60, 0
1, 9425, Note_on_c, 0, 72, 0
1, 9425, Note_on_c, 0, 68, 0
1, 9428, Note_on_c, 0, 68, 63
1, 9428, Note_on_c, 0, 63, 63
1, 9428, Note_on_c, 0, 75, 69
1, 9431, Note_on_c, 0, 51, 0
1, 9431, Note_on_c, 0, 44, 0
1, 9431, Note_on_c, 0, 51, 55
1, 9434, Note_on_c, 0, 48, 48
1, 10195, Note_on_c, 0, 75, 0
1, 10195, Note_on_c, 0, 63, 0
1, 10195, Note_on_c, 0, 68, 0
1, 10198, Note_on_c, 0, 75, 53
1, 10198, Note_on_c, 0, 63, 47
1, 10348, Note_on_c, 0, 63, 0
1, 10348, Note_on_c, 0, 75, 0
1, 10348, Note_on_c, 0, 73, 53
1, 10351, Note_on_c, 0, 67, 47
1, 10351, Note_on_c, 0, 61, 47
1, 10351, Note_on_c, 0, 48, 0
1, 10354, Note_on_c, 0, 51, 0
1, 10354, Note_on_c, 0, 46, 37
1, 10354, Note_on_c, 0, 51, 43
1, 11115, Note_on_c, 0, 61, 0
1, 11115, Note_on_c, 0, 67, 0
1, 11115, Note_on_c, 0, 73, 0
1, 11118, Note_on_c, 0, 60, 45
1, 11118, Note_on_c, 0, 68, 45
1, 11118, Note_on_c, 0, 72, 49
1, 11121, Note_on_c, 0, 51, 0
1, 11121, Note_on_c, 0, 46, 0
1, 11121, Note_on_c, 0, 44, 35
1, 11124, Note_on_c, 0, 51, 39
1, 11309, Note_on_c, 0, 72, 0
1, 11309, Note_on_c, 0, 68, 0
1, 11309, Note_on_c, 0, 60, 0
1, 11312, Note_on_c, 0, 60, 42
1, 11312, Note_on_c, 0, 72, 46
1, 11312, Note_on_c, 0, 68, 42
1, 11315, Note_on_c, 0, 51, 0
1, 11315, Note_on_c, 0, 44, 0
1, 11315, Note_on_c, 0, 51, 39
1, 11318, Note_on_c, 0, 44, 35
1, 13150, Note_on_c, 0, 68, 0
1, 13150, Note_on_c, 0, 72, 0
1, 13150, Note_on_c, 0, 60, 0
1, 13153, Note_on_c, 0, 67, 45
1, 13153, Note_on_c, 0, 58, 45
1, 13153, Note_on_c, 0, 70, 49
1, 13156, Note_on_c, 0, 44, 0
1, 13156, Note_on_c, 0, 51, 0
1, 13156, Note_on_c, 0, 39, 37
1, 13159, Note_on_c, 0, 51, 42
1, 13610, Note_on_c, 0, 71, 49
1, 13610, Note_on_c, 0, 59, 45
1, 13610, Note_on_c, 0, 68, 45
1, 13613, Note_on_c, 0, 51, 0
1, 13613, Note_on_c, 0, 51, 43
1, 13613, Note_on_c, 0, 44, 37
1, 13623, Note_on_c, 0, 70, 0
1, 13623, Note_on_c, 0, 67, 0
1, 13623, Note_on_c, 0, 58, 0
1, 13626, Note_on_c, 0, 39, 0
1, 13764, Note_on_c, 0, 67, 45
1, 13764, Note_on_c, 0, 70, 49
1, 13764, Note_on_c, 0, 58, 45
1, 13767, Note_on_c, 0, 51, 0
1, 13767, Note_on_c, 0, 39, 37
1, 13767, Note_on_c, 0, 51, 43
1, 13776, Note_on_c, 0, 71, 0
1, 13776, Note_on_c, 0, 68, 0
1, 13776, Note_on_c, 0, 59, 0
1, 13779, Note_on_c, 0, 44, 0
1, 14070, Note_on_c, 0, 67, 0
1, 14070, Note_on_c, 0, 70, 0
1, 14070, Note_on_c, 0, 58, 0
1, 14073, Note_on_c, 0, 70, 49
1, 14073, Note_on_c, 0, 58, 45
1, 14073, Note_on_c, 0, 67, 45
1, 14076, Note_on_c, 0, 51, 0
1, 14076, Note_on_c, 0, 39, 0
1, 14076, Note_on_c, 0, 51, 43
1, 14079, Note_on_c, 0, 39, 37
1, 14530, Note_on_c, 0, 68, 45
1, 14530, Note_on_c, 0, 59, 45
1, 14530, Note_on_c, 0, 71, 49
1, 14533, Note_on_c, 0, 51, 0
1, 14533, Note_on_c, 0, 44, 37
1, 14533, Note_on_c, 0, 51, 42
1, 14543, Note_on_c, 0, 67, 0
1, 14543, Note_on_c, 0, 70, 0
1, 14543, Note_on_c, 0, 58, 0
1, 14546, Note_on_c, 0, 39, 0
1, 14684, Note_on_c, 0, 58, 45
1, 14684, Note_on_c, 0, 67, 45
1, 14684, Note_on_c, 0, 70, 49
1, 14687, Note_on_c, 0, 51, 0
1, 14687, Note_on_c, 0, 39, 37
1, 14687, Note_on_c, 0, 51, 42
1, 14700, Note_on_c, 0, 68, 0
1, 14700, Note_on_c, 0, 71, 0
1, 14700, Note_on_c, 0, 59, 0
1, 14703, Note_on_c, 0, 44, 0
1, 15083, Note_on_c, 0, 58, 0
1, 15083, Note_on_c, 0, 67, 0
1, 15083, Note_on_c, 0, 70, 0
1, 15086, Note_on_c, 0, 71, 66
1, 15086, Note_on_c, 0, 65, 61
1, 15086, Note_on_c, 0, 68, 61
1, 15089, Note_on_c, 0, 51, 0
1, 15089, Note_on_c, 0, 39, 0
1, 15089, Note_on_c, 0, 50, 57
1, 15092, Note_on_c, 0, 38, 50
1, 16923, Note_on_c, 0, 65, 0
1, 16923, Note_on_c, 0, 63, 37
1, 16923, Note_on_c, 0, 38, 0
1, 16926, Note_on_c, 0, 50, 0
1, 16926, Note_on_c, 0, 39, 31
1, 16926, Note_on_c, 0, 51, 36
1, 17843, Note_on_c, 0, 68, 0
1, 17843, Note_on_c, 0, 71, 0
1, 17843, Note_on_c, 0, 67, 34
1, 17846, Note_on_c, 0, 70, 37
1, 18150, Note_on_c, 0, 70, 0
1, 18150, Note_on_c, 0, 67, 0
1, 18150, Note_on_c, 0, 63, 0
1, 18153, Note_on_c, 0, 51, 0
1, 18153, Note_on_c, 0, 39, 0
1, 18764, Note_on_c, 0, 58, 51
1, 18764, Note_on_c, 0, 66, 51
1, 18764, Note_on_c, 0, 70, 55
1, 18767, Note_on_c, 0, 51, 49
1, 18767, Note_on_c, 0, 39, 43
1, 19224, Note_on_c, 0, 71, 55
1, 19224, Note_on_c, 0, 68, 51
1, 19224, Note_on_c, 0, 59, 51
1, 19227, Note_on_c, 0, 51, 0
1, 19227, Note_on_c, 0, 44, 43
1, 19227, Note_on_c, 0, 51, 49
1, 19237, Note_on_c, 0, 70, 0
1, 19237, Note_on_c, 0, 58, 0
1, 19237, Note_on_c, 0, 66, 0
1, 19240, Note_on_c, 0, 39, 0
1, 19377, Note_on_c, 0, 70, 55
1, 19377, Note_on_c, 0, 66, 51
1, 19377, Note_on_c, 0, 58, 51
1, 19380, Note_on_c, 0, 51, 0
1, 19380, Note_on_c, 0, 51, 49
1, 19380, Note_on_c, 0, 39, 43
1, 19390, Note_on_c, 0, 71, 0
1, 19390, Note_on_c, 0, 59, 0
1, 19390, Note_on_c, 0, 68, 0
1, 19393, Note_on_c, 0, 44, 0
1, 19684, Note_on_c, 0, 70, 0
1, 19684, Note_on_c, 0, 66, 0
1, 19684, Note_on_c, 0, 58, 0
1, 19687, Note_on_c, 0, 70, 55
1, 19687, Note_on_c, 0, 58, 50
1, 19687, Note_on_c, 0, 66, 50
1, 19690, Note_on_c, 0, 39, 0
1, 19690, Note_on_c, 0, 51, 0
1, 19690, Note_on_c, 0, 39, 43
1, 19693, Note_on_c, 0, 51, 49
1, 19991, Note_on_c, 0, 66, 0
1, 19991, Note_on_c, 0, 58, 0
1, 19991, Note_on_c, 0, 70, 0
1, 19994, Note_on_c, 0, 63, 54
1, 19994, Note_on_c, 0, 70, 54
1, 19994, Note_on_c, 0, 75, 59
1, 19997, Note_on_c, 0, 51, 0
1, 19997, Note_on_c, 0, 39, 0
1, 19997, Note_on_c, 0, 51, 52
1, 20000, Note_on_c, 0, 42, 45
1, 20298, Note_on_c, 0, 75, 0
1, 20298, Note_on_c, 0, 70, 0
1, 20298, Note_on_c, 0, 63, 0
1, 20301, Note_on_c, 0, 65, 63
1, 20301, Note_on_c, 0, 77, 69
1, 20301, Note_on_c, 0, 75, 63
1, 20304, Note_on_c, 0, 42, 0
1, 20304, Note_on_c, 0, 51, 0
1, 20304, Note_on_c, 0, 47, 52
1, 20307, Note_on_c, 0, 51, 60
1, 20667, Note_on_c, 0, 75, 0
1, 20667, Note_on_c, 0, 77, 0
1, 20667, Note_on_c, 0, 65, 0
1, 20670, Note_on_c, 0, 75, 64
1, 20670, Note_on_c, 0, 66, 64
1, 20670, Note_on_c, 0, 78, 71
1, 20673, Note_on_c, 0, 51, 0
1, 20673, Note_on_c, 0, 47, 0
1, 20673, Note_on_c, 0, 51, 63
1, 20676, Note_on_c, 0, 46, 55
1, 21436, Note_on_c, 0, 78, 0
1, 21436, Note_on_c, 0, 66, 0
1, 21436, Note_on_c, 0, 75, 0
1, 21439, Note_on_c, 0, 78, 64
1, 21439, Note_on_c, 0, 66, 59
1, 21589, Note_on_c, 0, 66, 0
1, 21589, Note_on_c, 0, 78, 0
1, 21589, Note_on_c, 0, 77, 55
1, 21592, Note_on_c, 0, 65, 51
1, 21592, Note_on_c, 0, 74, 51
1, 21592, Note_on_c, 0, 46, 0
1, 21595, Note_on_c, 0, 51, 0
1, 21595, Note_on_c, 0, 46, 41
1, 21595, Note_on_c, 0, 56, 47
1, 22362, Note_on_c, 0, 74, 0
1, 22362, Note_on_c, 0, 65, 0
1, 22362, Note_on_c, 0, 77, 0
1, 22365, Note_on_c, 0, 63, 37
1, 22365, Note_on_c, 0, 75, 41
1, 22365, Note_on_c, 0, 56, 0
1, 22368, Note_on_c, 0, 46, 0
1, 22368, Note_on_c, 0, 51, 31
1, 22368, Note_on_c, 0, 55, 36
1, 22556, Note_on_c, 0, 75, 0
1, 22556, Note_on_c, 0, 63, 0
1, 22556, Note_on_c, 0, 75, 41
1, 22559, Note_on_c, 0, 63, 37
1, 22559, Note_on_c, 0, 55, 0
1, 22559, Note_on_c, 0, 51, 0
1, 22562, Note_on_c, 0, 55, 36
1, 22562, Note_on_c, 0, 51, 31
1, 24397, Note_on_c, 0, 63, 0
1, 24397, Note_on_c, 0, 75, 0
1, 24397, Note_on_c, 0, 72, 45
1, 24400, Note_on_c, 0, 60, 40
1, 24400, Note_on_c, 0, 68, 40
1, 24400, Note_on_c, 0, 51, 0
1, 24403, Note_on_c, 0, 55, 0
1, 24403, Note_on_c, 0, 44, 34
1, 24403, Note_on_c, 0, 51, 39
1, 24857, Note_on_c, 0, 61, 40
1, 24857, Note_on_c, 0, 67, 40
1, 24857, Note_on_c, 0, 73, 45
1, 24860, Note_on_c, 0, 51, 0
1, 24860, Note_on_c, 0, 51, 39
1, 24860, Note_on_c, 0, 46, 34
1, 24870, Note_on_c, 0, 68, 0
1, 24870, Note_on_c, 0, 72, 0
1, 24870, Note_on_c, 0, 60, 0
1, 24873, Note_on_c, 0, 44, 0
1, 25011, Note_on_c, 0, 60, 40
1, 25011, Note_on_c, 0, 72, 45
1, 25011, Note_on_c, 0, 68, 40
1, 25014, Note_on_c, 0, 51, 0
1, 25014, Note_on_c, 0, 44, 33
1, 25014, Note_on_c, 0, 51, 38
1, 25024, Note_on_c, 0, 61, 0
1, 25024, Note_on_c, 0, 73, 0
1, 25024, Note_on_c, 0, 67, 0
1, 25027, Note_on_c, 0, 46, 0
1, 25406, Note_on_c, 0, 60, 0
1, 25406, Note_on_c, 0, 72, 0
1, 25406, Note_on_c, 0, 68, 0
1, 25409, Note_on_c, 0, 67, 35
1, 25409, Note_on_c, 0, 61, 35
1, 25409, Note_on_c, 0, 73, 38
1, 25412, Note_on_c, 0, 51, 0
1, 25412, Note_on_c, 0, 44, 0
1, 25412, Note_on_c, 0, 51, 33
1, 25415, Note_on_c, 0, 46, 29
1, 27247, Note_on_c, 0, 73, 0
1, 27247, Note_on_c, 0, 61, 0
1, 27247, Note_on_c, 0, 67, 0
1, 27250, Note_on_c, 0, 68, 40
1, 27250, Note_on_c, 0, 60, 40
1, 27250, Note_on_c, 0, 72, 45
1, 27253, Note_on_c, 0, 46, 0
1, 27253, Note_on_c, 0, 51, 0
1, 27253, Note_on_c, 0, 44, 34
1, 27256, Note_on_c, 0, 51, 39
1, 27721, Note_on_c, 0, 75, 46
1, 27721, Note_on_c, 0, 63, 41
1, 27721, Note_on_c, 0, 51, 0
1, 27724, Note_on_c, 0, 48, 34
1, 27724, Note_on_c, 0, 51, 39
1, 27735, Note_on_c, 0, 72, 0
1, 27735, Note_on_c, 0, 68, 0
1, 27735, Note_on_c, 0, 60, 0
1, 27738, Note_on_c, 0, 44, 0
1, 27889, Note_on_c, 0, 60, 40
1, 27889, Note_on_c, 0, 68, 40
1, 27889, Note_on_c, 0, 72, 45
1, 27892, Note_on_c, 0, 51, 0
1, 27892, Note_on_c, 0, 51, 39
1, 27892, Note_on_c, 0, 44, 34
1, 27905, Note_on_c, 0, 75, 0
1, 27905, Note_on_c, 0, 63, 0
1, 27905, Note_on_c, 0, 48, 0
1, 28286, Note_on_c, 0, 68, 0
1, 28286, Note_on_c, 0, 60, 0
1, 28286, Note_on_c, 0, 72, 0
1, 28289, Note_on_c, 0, 58, 35
1, 28289, Note_on_c, 0, 70, 38
1, 28289, Note_on_c, 0, 67, 35
1, 28292, Note_on_c, 0, 44, 0
1, 28292, Note_on_c, 0, 51, 0
1, 28292, Note_on_c, 0, 39, 29
1, 28295, Note_on_c, 0, 51, 33
1, 30127, Note_on_c, 0, 67, 0
1, 30127, Note_on_c, 0, 70, 0
1, 30127, Note_on_c, 0, 58, 0
1, 30130, Note_on_c, 0, 68, 39
1, 30130, Note_on_c, 0, 60, 39
1, 30130, Note_on_c, 0, 72, 44
1, 30133, Note_on_c, 0, 51, 0
1, 30133, Note_on_c, 0, 39, 0
1, 30133, Note_on_c, 0, 51, 38
1, 30136, Note_on_c, 0, 44, 33
1, 30587, Note_on_c, 0, 67, 39
1, 30587, Note_on_c, 0, 61, 39
1, 30587, Note_on_c, 0, 73, 44
1, 30590, Note_on_c, 0, 51, 0
1, 30590, Note_on_c, 0, 46, 34
1, 30590, Note_on_c, 0, 51, 39
1, 30600, Note_on_c, 0, 72, 0
1, 30600, Note_on_c, 0, 68, 0
1, 30600, Note_on_c, 0, 60, 0
1, 30603, Note_on_c, 0, 44, 0
1, 30740, Note_on_c, 0, 68, 39
1, 30740, Note_on_c, 0, 72, 44
1, 30740, Note_on_c, 0, 60, 39
1, 30743, Note_on_c, 0, 51, 0
1, 30743, Note_on_c, 0, 51, 39
1, 30743, Note_on_c, 0, 44, 34
1, 30753, Note_on_c, 0, 67, 0
1, 30753, Note_on_c, 0, 73, 0
1, 30753, Note_on_c, 0, 61, 0
1, 30756, Note_on_c, 0, 46, 0
1, 31047, Note_on_c, 0, 68, 0
1, 31047, Note_on_c, 0, 72, 0
1, 31047, Note_on_c, 0, 60, 0
1, 31050, Note_on_c, 0, 72, 40
1, 31050, Note_on_c, 0, 60, 37
1, 31050, Note_on_c, 0, 68, 37
1, 31053, Note_on_c, 0, 44, 0
1, 31053, Note_on_c, 0, 51, 0
1, 31053, Note_on_c, 0, 44, 31
1, 31056, Note_on_c, 0, 51, 35
1, 31507, Note_on_c, 0, 77, 54
1, 31507, Note_on_c, 0, 65, 49
1, 31507, Note_on_c, 0, 68, 49
1, 31510, Note_on_c, 0, 51, 0
1, 31510, Note_on_c, 0, 49, 38
1, 31510, Note_on_c, 0, 51, 43
1, 31520, Note_on_c, 0, 68, 0
1, 31520, Note_on_c, 0, 72, 0
1, 31520, Note_on_c, 0, 60, 0
1, 31523, Note_on_c, 0, 44, 0
1, 31660, Note_on_c, 0, 68, 0
1, 31660, Note_on_c, 0, 63, 51
1, 31660, Note_on_c, 0, 75, 57
1, 31663, Note_on_c, 0, 68, 51
1, 31663, Note_on_c, 0, 51, 0
1, 31663, Note_on_c, 0, 51, 47
1, 31666, Note_on_c, 0, 48, 41
1, 31676, Note_on_c, 0, 65, 0
1, 31676, Note_on_c, 0, 77, 0
1, 31676, Note_on_c, 0, 49, 0
1, 32037, Note_on_c, 0, 75, 0
1, 32037, Note_on_c, 0, 63, 0
1, 32037, Note_on_c, 0, 68, 0
1, 32040, Note_on_c, 0, 63, 56
1, 32040, Note_on_c, 0, 75, 61
1, 32040, Note_on_c, 0, 68, 56
1, 32043, Note_on_c, 0, 48, 0
1, 32043, Note_on_c, 0, 51, 0
1, 32043, Note_on_c, 0, 48, 45
1, 32046, Note_on_c, 0, 51, 52
1, 32806, Note_on_c, 0, 68, 0
1, 32806, Note_on_c, 0, 75, 0
1, 32806, Note_on_c, 0, 63, 0
1, 32809, Note_on_c, 0, 75, 62
1, 32809, Note_on_c, 0, 63, 57
1, 32959, Note_on_c, 0, 63, 0
1, 32959, Note_on_c, 0, 75, 0
1, 32959, Note_on_c, 0, 73, 62
1, 32962, Note_on_c, 0, 61, 57
1, 32962, Note_on_c, 0, 67, 57
1, 32962, Note_on_c, 0, 51, 0
1, 32965, Note_on_c, 0, 48, 0
1, 32965, Note_on_c, 0, 51, 54
1, 32965, Note_on_c, 0, 46, 47
1, 33726, Note_on_c, 0, 67, 0
1, 33726, Note_on_c, 0, 61, 0
1, 33726, Note_on_c, 0, 73, 0
1, 33729, Note_on_c, 0, 72, 37
1, 33729, Note_on_c, 0, 60, 34
1, 33729, Note_on_c, 0, 68, 34
1, 33732, Note_on_c, 0, 46, 0
1, 33732, Note_on_c, 0, 51, 0
1, 33732, Note_on_c, 0, 44, 29
1, 33735, Note_on_c, 0, 51, 33
1, 33921, Note_on_c, 0, 68, 0
1, 33921, Note_on_c, 0, 60, 0
1, 33921, Note_on_c, 0, 72, 0
1, 33924, Note_on_c, 0, 60, 34
1, 33924, Note_on_c, 0, 68, 34
1, 33924, Note_on_c, 0, 72, 37
1, 33927, Note_on_c, 0, 51, 0
1, 33927, Note_on_c, 0, 44, 0
1, 33927, Note_on_c, 0, 51, 32
1, 33930, Note_on_c, 0, 44, 28
1, 35761, Note_on_c, 0, 72, 0
1, 35761, Note_on_c, 0, 68, 0
1, 35761, Note_on_c, 0, 60, 0
1, 35764, Note_on_c, 0, 58, 49
1, 35764, Note_on_c, 0, 70, 54
1, 35764, Note_on_c, 0, 67, 49
1, 35767, Note_on_c, 0, 44, 0
1, 35767, Note_on_c, 0, 51, 0
1, 35767, Note_on_c, 0, 39, 40
1, 35770, Note_on_c, 0, 51, 46
1, 36221, Note_on_c, 0, 71, 54
1, 36221, Note_on_c, 0, 59, 49
1, 36221, Note_on_c, 0, 68, 49
1, 36224, Note_on_c, 0, 51, 0
1, 36224, Note_on_c, 0, 44, 41
1, 36224, Note_on_c, 0, 51, 47
1, 36234, Note_on_c, 0, 67, 0
1, 36234, Note_on_c, 0, 58, 0
1, 36234, Note_on_c, 0, 70, 0
1, 36237, Note_on_c, 0, 39, 0
1, 36375, Note_on_c, 0, 67, 49
1, 36375, Note_on_c, 0, 58, 49
1, 36375, Note_on_c, 0, 70, 54
1, 36378, Note_on_c, 0, 51, 0
1, 36378, Note_on_c, 0, 51, 47
1, 36378, Note_on_c, 0, 39, 41
1, 36387, Note_on_c, 0, 71, 0
1, 36387, Note_on_c, 0, 68, 0
1, 36387, Note_on_c, 0, 59, 0
1, 36390, Note_on_c, 0, 44, 0
1, 36681, Note_on_c, 0, 67, 0
1, 36681, Note_on_c, 0, 58, 0
1, 36681, Note_on_c, 0, 70, 0
1, 36684, Note_on_c, 0, 67, 49
1, 36684, Note_on_c, 0, 70, 54
1, 36684, Note_on_c, 0, 58, 49
1, 36687, Note_on_c, 0, 39, 0
1, 36687, Note_on_c, 0, 51, 0
1, 36687, Note_on_c, 0, 51, 47
1, 36690, Note_on_c, 0, 39, 41
1, 37142, Note_on_c, 0, 68, 49
1, 37142, Note_on_c, 0, 59, 49
1, 37142, Note_on_c, 0, 71, 54
1, 37145, Note_on_c, 0, 51, 0
1, 37145, Note_on_c, 0, 44, 40
1, 37145, Note_on_c, 0, 51, 46
1, 37154, Note_on_c, 0, 58, 0
1, 37154, Note_on_c, 0, 67, 0
1, 37154, Note_on_c, 0, 70, 0
1, 37157, Note_on_c, 0, 39, 0
1, 37295, Note_on_c, 0, 70, 54
1, 37295, Note_on_c, 0, 58, 49
1, 37295, Note_on_c, 0, 67, 49
1, 37298, Note_on_c, 0, 51, 0
1, 37298, Note_on_c, 0, 39, 40
1, 37298, Note_on_c, 0, 51, 46
1, 37312, Note_on_c, 0, 68, 0
1, 37312, Note_on_c, 0, 71, 0
1, 37312, Note_on_c, 0, 59, 0
1, 37315, Note_on_c, 0, 44, 0
1, 37695, Note_on_c, 0, 70, 0
1, 37695, Note_on_c, 0, 58, 0
1, 37695, Note_on_c, 0, 67, 0
1, 37698, Note_on_c, 0, 65, 66
1, 37698, Note_on_c, 0, 68, 66
1, 37698, Note_on_c, 0, 71, 72
1, 37701, Note_on_c, 0, 51, 0
1, 37701, Note_on_c, 0, 39, 0
1, 37701, Note_on_c, 0, 50, 61
1, 37704, Note_on_c, 0, 38, 53
1, 38615, Note_on_c, 0, 71, 0
1, 38615, Note_on_c, 0, 68, 0
1, 38615, Note_on_c, 0, 65, 0
1, 38618, Note_on_c, 0, 77, 71
1, 38618, Note_on_c, 0, 68, 65
1, 38618, Note_on_c, 0, 71, 65
1, 39228, Note_on_c, 0, 71, 0
1, 39228, Note_on_c, 0, 68, 0
1, 39382, Note_on_c, 0, 77, 0
1, 39382, Note_on_c, 0, 75, 52
1, 39577, Note_on_c, 0, 75, 0
1, 39577, Note_on_c, 0, 75, 52
1, 39577, Note_on_c, 0, 68, 48
1, 39580, Note_on_c, 0, 71, 48
1, 39580, Note_on_c, 0, 38, 0
1, 39580, Note_on_c, 0, 50, 0
1, 39583, Note_on_c, 0, 39, 40
1, 39583, Note_on_c, 0, 51, 46
1, 40569, Note_on_c, 0, 71, 0
1, 40569, Note_on_c, 0, 68, 0
1, 40569, Note_on_c, 0, 67, 35
1, 40572, Note_on_c, 0, 70, 38
1, 40913, Note_on_c, 0, 70, 0
1, 40913, Note_on_c, 0, 67, 0
1, 40913, Note_on_c, 0, 75, 0
1, 40916, Note_on_c, 0, 51, 0
1, 40916, Note_on_c, 0, 39, 0
1, 41575, Note_on_c, 0, 60, 40
1, 41575, Note_on_c, 0, 66, 40
1, 41575, Note_on_c, 0, 75, 45
1, 41578, Note_on_c, 0, 69, 40
1, 42074, Note_on_c, 0, 77, 45
1, 42087, Note_on_c, 0, 75, 0
1, 42240, Note_on_c, 0, 69, 0
1, 42240, Note_on_c, 0, 60, 0
1, 42240, Note_on_c, 0, 66, 0
1, 42243, Note_on_c, 0, 75, 45
1, 42243, Note_on_c, 0, 69, 40
1, 42243, Note_on_c, 0, 60, 40
1, 42246, Note_on_c, 0, 66, 40
1, 42254, Note_on_c, 0, 77, 0
1, 42572, Note_on_c, 0, 60, 0
1, 42572, Note_on_c, 0, 75, 0
1, 42572, Note_on_c, 0, 69, 0
1, 42575, Note_on_c, 0, 66, 0
1, 42575, Note_on_c, 0, 68, 40
1, 42575, Note_on_c, 0, 66, 40
1, 42578, Note_on_c, 0, 75, 45
1, 42578, Note_on_c, 0, 61, 40
1, 43239, Note_on_c, 0, 75, 0
1, 43239, Note_on_c, 0, 68, 0
1, 43239, Note_on_c, 0, 72, 45
1, 43579, Note_on_c, 0, 72, 0
1, 43579, Note_on_c, 0, 66, 0
1, 43579, Note_on_c, 0, 73, 45
1, 43582, Note_on_c, 0, 65, 40
1, 43582, Note_on_c, 0, 68, 40
1, 43886, Note_on_c, 0, 68, 0
1, 43886, Note_on_c, 0, 61, 0
1, 43886, Note_on_c, 0, 73, 0
1, 43889, Note_on_c, 0, 65, 0
1, 44499, Note_on_c, 0, 68, 66
1, 44499, Note_on_c, 0, 73, 72
1, 44499, Note_on_c, 0, 65, 66
1, 44502, Note_on_c, 0, 47, 60
1, 44502, Note_on_c, 0, 35, 52
1, 44960, Note_on_c, 0, 75, 72
1, 44973, Note_on_c, 0, 73, 0
1, 45116, Note_on_c, 0, 68, 0
1, 45116, Note_on_c, 0, 65, 0
1, 45116, Note_on_c, 0, 65, 66
1, 45119, Note_on_c, 0, 68, 66
1, 45119, Note_on_c, 0, 73, 72
1, 45119, Note_on_c, 0, 35, 0
1, 45122, Note_on_c, 0, 47, 0
1, 45122, Note_on_c, 0, 35, 52
1, 45122, Note_on_c, 0, 47, 60
1, 45129, Note_on_c, 0, 75, 0
1, 45433, Note_on_c, 0, 65, 0
1, 45433, Note_on_c, 0, 68, 0
1, 45433, Note_on_c, 0, 73, 0
1, 45436, Note_on_c, 0, 75, 72
1, 45436, Note_on_c, 0, 66, 66
1, 45436, Note_on_c, 0, 47, 0
1, 45439, Note_on_c, 0, 35, 0
1, 45439, Note_on_c, 0, 46, 58
1, 45439, Note_on_c, 0, 34, 50
1, 45918, Note_on_c, 0, 73, 73
1, 45931, Note_on_c, 0, 75, 0
1, 46082, Note_on_c, 0, 73, 0
1, 46082, Note_on_c, 0, 66, 0
1, 46082, Note_on_c, 0, 66, 67
1, 46085, Note_on_c, 0, 73, 73
1, 46085, Note_on_c, 0, 34, 0
1, 46085, Note_on_c, 0, 46, 0
1, 46088, Note_on_c, 0, 33, 61
1, 46088, Note_on_c, 0, 45, 71
1, 46182, Note_on_c, 0, 73, 0
1, 46282, Note_on_c, 0, 73, 72
1, 46481, Note_on_c, 0, 73, 0
1, 46481, Note_on_c, 0, 66, 0
1, 46481, Note_on_c, 0, 78, 77
1, 46484, Note_on_c, 0, 66, 69
1, 46484, Note_on_c, 0, 73, 69
1, 46484, Note_on_c, 0, 45, 0
1, 46487, Note_on_c, 0, 33, 0
1, 46487, Note_on_c, 0, 32, 63
1, 46487, Note_on_c, 0, 44, 73
1, 47098, Note_on_c, 0, 78, 0
1, 47098, Note_on_c, 0, 77, 72
1, 47251, Note_on_c, 0, 77, 0
1, 47251, Note_on_c, 0, 77, 60
1, 47447, Note_on_c, 0, 77, 0
1, 47447, Note_on_c, 0, 73, 0
1, 47447, Note_on_c, 0, 66, 0
1, 47450, Note_on_c, 0, 72, 55
1, 47450, Note_on_c, 0, 66, 55
1, 47450, Note_on_c, 0, 75, 61
1, 47453, Note_on_c, 0, 44, 0
1, 47453, Note_on_c, 0, 32, 0
1, 47453, Note_on_c, 0, 44, 45
1, 47456, Note_on_c, 0, 56, 52
1, 48219, Note_on_c, 0, 75, 0
1, 48219, Note_on_c, 0, 66, 0
1, 48219, Note_on_c, 0, 72, 0
1, 48222, Note_on_c, 0, 65, 49
1, 48222, Note_on_c, 0, 73, 52
1, 48222, Note_on_c, 0, 56, 0
1, 48225, Note_on_c, 0, 44, 0
1, 48225, Note_on_c, 0, 49, 40
1, 48225, Note_on_c, 0, 56, 46
1, 48440, Note_on_c, 0, 73, 0
1, 48440, Note_on_c, 0, 65, 0
1, 48440, Note_on_c, 0, 65, 49
1, 48443, Note_on_c, 0, 73, 52
1, 48443, Note_on_c, 0, 56, 0
1, 48443, Note_on_c, 0, 49, 0
1, 48446, Note_on_c, 0, 56, 46
1, 48446, Note_on_c, 0, 49, 40
1, 51193, Note_on_c, 0, 73, 0
1, 51193, Note_on_c, 0, 65, 0
1, 51193, Note_on_c, 0, 73, 46
1, 51196, Control_c, 0, 91, 127
1, 51196, Note_on_c, 0, 49, 0
1, 51196, Note_on_c, 0, 56, 0
1, 51199, Control_c, 0, 91, 127
1, 51199, Note_on_c, 0, 42, 45
1, 51199, Control_c, 0, 64, 127
1, 51315, Note_on_c, 0, 42, 0
1, 51437, Note_on_c, 0, 49, 36
1, 51680, Note_on_c, 0, 49, 0
1, 51680, Note_on_c, 0, 57, 36
1, 51923, Note_on_c, 0, 73, 0
1, 51923, Note_on_c, 0, 73, 45
1, 51923, Note_on_c, 0, 57, 0
1, 51926, Note_on_c, 0, 42, 45
1, 52044, Note_on_c, 0, 42, 0
1, 52166, Note_on_c, 0, 49, 36
1, 52409, Note_on_c, 0, 49, 0
1, 52409, Note_on_c, 0, 57, 36
1, 52652, Note_on_c, 0, 73, 0
1, 52652, Note_on_c, 0, 73, 44
1, 52652, Note_on_c, 0, 57, 0
1, 52655, Note_on_c, 0, 42, 45
1, 52774, Note_on_c, 0, 42, 0
1, 52896, Note_on_c, 0, 49, 36
1, 53139, Note_on_c, 0, 49, 0
1, 53139, Note_on_c, 0, 57, 36
1, 53395, Note_on_c, 0, 73, 0
1, 53395, Note_on_c, 0, 74, 56
1, 53395, Note_on_c, 0, 57, 0
1, 53398, Note_on_c, 0, 42, 46
1, 53424, Control_c, 0, 64, 0
1, 53510, Control_c, 0, 64, 127
1, 53517, Note_on_c, 0, 42, 0
1, 53639, Note_on_c, 0, 50, 36
1, 53882, Note_on_c, 0, 50, 0
1, 53882, Note_on_c, 0, 59, 38
1, 54125, Note_on_c, 0, 59, 0
1, 54125, Note_on_c, 0, 42, 45
1, 54246, Note_on_c, 0, 42, 0
1, 54368, Note_on_c, 0, 50, 36
1, 54611, Note_on_c, 0, 50, 0
1, 54611, Note_on_c, 0, 59, 36
1, 54854, Note_on_c, 0, 59, 0
1, 54854, Note_on_c, 0, 42, 45
1, 54976, Note_on_c, 0, 42, 0
1, 55098, Note_on_c, 0, 50, 37
1, 55341, Note_on_c, 0, 50, 0
1, 55341, Note_on_c, 0, 59, 37
1, 55584, Note_on_c, 0, 74, 0
1, 55584, Note_on_c, 0, 76, 51
1, 55584, Note_on_c, 0, 59, 0
1, 55587, Note_on_c, 0, 42, 45
1, 55587, Control_c, 0, 64, 0
1, 55698, Control_c, 0, 64, 127
1, 55706, Note_on_c, 0, 42, 0
1, 55827, Note_on_c, 0, 47, 38
1, 56070, Note_on_c, 0, 76, 0
1, 56070, Note_on_c, 0, 74, 50
1, 56070, Note_on_c, 0, 47, 0
1, 56073, Note_on_c, 0, 56, 38
1, 56327, Note_on_c, 0, 74, 0
1, 56327, Note_on_c, 0, 74, 54
1, 56327, Note_on_c, 0, 56, 0
1, 56330, Note_on_c, 0, 42, 45
1, 56343, Control_c, 0, 64, 0
1, 56441, Control_c, 0, 64, 126
1, 56449, Note_on_c, 0, 42, 0
1, 56570, Note_on_c, 0, 49, 39
1, 56813, Note_on_c, 0, 74, 0
1, 56813, Note_on_c, 0, 73, 49
1, 56813, Note_on_c, 0, 49, 0
1, 56816, Note_on_c, 0, 57, 39
1, 57071, Note_on_c, 0, 73, 0
1, 57071, Note_on_c, 0, 73, 51
1, 57071, Note_on_c, 0, 57, 0
1, 57074, Note_on_c, 0, 42, 45
1, 57078, Control_c, 0, 64, 0
1, 57172, Control_c, 0, 64, 126
1, 57193, Note_on_c, 0, 42, 0
1, 57315, Note_on_c, 0, 50, 37
1, 57558, Note_on_c, 0, 73, 0
1, 57558, Note_on_c, 0, 71, 49
1, 57558, Note_on_c, 0, 50, 0
1, 57561, Note_on_c, 0, 59, 37
1, 57823, Note_on_c, 0, 71, 0
1, 57823, Note_on_c, 0, 73, 52
1, 57823, Note_on_c, 0, 59, 0
1, 57826, Note_on_c, 0, 42, 45
1, 57826, Control_c, 0, 64, 0
1, 57931, Control_c, 0, 64, 127
1, 57945, Note_on_c, 0, 42, 0
1, 58066, Note_on_c, 0, 49, 40
1, 58310, Note_on_c, 0, 49, 0
1, 58310, Note_on_c, 0, 57, 40
1, 58553, Note_on_c, 0, 57, 0
1, 58553, Note_on_c, 0, 42, 45
1, 58674, Note_on_c, 0, 42, 0
1, 58796, Note_on_c, 0, 49, 37
1, 59039, Note_on_c, 0, 49, 0
1, 59039, Note_on_c, 0, 57, 38
1, 59282, Note_on_c, 0, 73, 0
1, 59282, Note_on_c, 0, 73, 46
1, 59282, Note_on_c, 0, 57, 0
1, 59285, Note_on_c, 0, 42, 45
1, 59404, Note_on_c, 0, 42, 0
1, 59525, Note_on_c, 0, 49, 39
1, 59769, Note_on_c, 0, 73, 0
1, 59769, Note_on_c, 0, 69, 54
1, 59769, Note_on_c, 0, 49, 0
1, 59772, Note_on_c, 0, 54, 39
1, 60012, Note_on_c, 0, 69, 0
1, 60012, Note_on_c, 0, 68, 62
1, 60012, Note_on_c, 0, 54, 0
1, 60015, Note_on_c, 0, 49, 45
1, 60015, Control_c, 0, 64, 0
1, 60232, Control_c, 0, 64, 127
1, 60255, Note_on_c, 0, 49, 0
1, 60255, Note_on_c, 0, 53, 45
1, 60498, Note_on_c, 0, 53, 0
1, 60498, Note_on_c, 0, 56, 45
1, 60741, Note_on_c, 0, 56, 0
1, 60741, Note_on_c, 0, 49, 45
1, 60984, Note_on_c, 0, 49, 0
1, 60984, Note_on_c, 0, 53, 45
1, 61228, Note_on_c, 0, 53, 0
1, 61228, Note_on_c, 0, 56, 45
1, 61471, Note_on_c, 0, 68, 0
1, 61471, Note_on_c, 0, 78, 71
1, 61471, Note_on_c, 0, 56, 0
1, 61474, Note_on_c, 0, 45, 45
1, 61482, Control_c, 0, 64, 0
1, 61575, Control_c, 0, 64, 127
1, 61714, Note_on_c, 0, 45, 0
1, 61714, Note_on_c, 0, 49, 45
1, 61958, Note_on_c, 0, 78, 0
1, 61958, Note_on_c, 0, 69, 62
1, 61958, Note_on_c, 0, 49, 0
1, 61961, Note_on_c, 0, 54, 45
1, 62218, Note_on_c, 0, 69, 0
1, 62218, Note_on_c, 0, 68, 52
1, 62218, Note_on_c, 0, 54, 0
1, 62221, Note_on_c, 0, 49, 45
1, 62221, Control_c, 0, 64, 0
1, 62380, Control_c, 0, 64, 126
1, 62461, Note_on_c, 0, 49, 0
1, 62461, Note_on_c, 0, 53, 45
1, 62704, Note_on_c, 0, 53, 0
1, 62704, Note_on_c, 0, 56, 45
1, 62947, Note_on_c, 0, 56, 0
1, 62947, Note_on_c, 0, 50, 45
1, 62963, Control_c, 0, 64, 1
1, 63190, Note_on_c, 0, 68, 0
1, 63190, Note_on_c, 0, 71, 45
1, 63190, Note_on_c, 0, 56, 45
1, 63433, Note_on_c, 0, 71, 0
1, 63433, Note_on_c, 0, 69, 44
1, 63433, Note_on_c, 0, 56, 0
1, 63436, Note_on_c, 0, 54, 45
1, 63678, Note_on_c, 0, 69, 0
1, 63678, Note_on_c, 0, 68, 38
1, 63678, Note_on_c, 0, 54, 0
1, 63681, Note_on_c, 0, 53, 43
1, 63928, Note_on_c, 0, 68, 0
1, 63928, Note_on_c, 0, 69, 36
1, 63928, Note_on_c, 0, 53, 0
1, 63931, Note_on_c, 0, 54, 40
1, 64180, Note_on_c, 0, 69, 0
1, 64180, Note_on_c, 0, 71, 35
1, 64180, Note_on_c, 0, 54, 0
1, 64183, Note_on_c, 0, 50, 0
1, 64183, Note_on_c, 0, 56, 37
1, 64183, Note_on_c, 0, 49, 37
1, 64437, Note_on_c, 0, 71, 0
1, 64437, Control_c, 0, 91, 127
1, 64437, Note_on_c, 0, 73, 46
1, 64440, Note_on_c, 0, 49, 0
1, 64440, Note_on_c, 0, 56, 0
1, 64440, Control_c, 0, 91, 127
1, 64443, Note_on_c, 0, 42, 45
1, 64522, Control_c, 0, 64, 127
1, 64681, Note_on_c, 0, 42, 0
1, 64681, Note_on_c, 0, 49, 40
1, 64924, Note_on_c, 0, 49, 0
1, 64924, Note_on_c, 0, 57, 41
1, 65167, Note_on_c, 0, 73, 0
1, 65167, Note_on_c, 0, 73, 57
1, 65167, Note_on_c, 0, 57, 0
1, 65170, Note_on_c, 0, 42, 47
1, 65180, Control_c, 0, 64, 0
1, 65396, Control_c, 0, 64, 125
1, 65410, Note_on_c, 0, 42, 0
1, 65410, Note_on_c, 0, 47, 43
1, 65653, Note_on_c, 0, 47, 0
1, 65653, Note_on_c, 0, 56, 43
1, 65896, Note_on_c, 0, 73, 0
1, 65896, Note_on_c, 0, 73, 67
1, 65896, Note_on_c, 0, 56, 0
1, 65899, Note_on_c, 0, 42, 52
1, 65909, Control_c, 0, 64, 0
1, 66053, Control_c, 0, 64, 126
1, 66140, Note_on_c, 0, 42, 0
1, 66140, Note_on_c, 0, 45, 47
1, 66383, Note_on_c, 0, 45, 0
1, 66383, Note_on_c, 0, 54, 47
1, 66654, Note_on_c, 0, 73, 0
1, 66654, Note_on_c, 0, 74, 76
1, 66654, Note_on_c, 0, 54, 0
1, 66657, Note_on_c, 0, 40, 55
1, 66661, Control_c, 0, 64, 0
1, 66783, Control_c, 0, 64, 127
1, 66897, Note_on_c, 0, 40, 0
1, 66897, Note_on_c, 0, 47, 50
1, 67140, Note_on_c, 0, 47, 0
1, 67140, Note_on_c, 0, 56, 50
1, 67384, Note_on_c, 0, 56, 0
1, 67384, Note_on_c, 0, 40, 49
1, 67627, Note_on_c, 0, 40, 0
1, 67627, Note_on_c, 0, 47, 46
1, 67870, Note_on_c, 0, 47, 0
1, 67870, Note_on_c, 0, 56, 46
1, 68113, Note_on_c, 0, 56, 0
1, 68113, Note_on_c, 0, 40, 44
1, 68356, Note_on_c, 0, 40, 0
1, 68356, Note_on_c, 0, 47, 44
1, 68599, Note_on_c, 0, 47, 0
1, 68599, Note_on_c, 0, 56, 44
1, 68721, Note_on_c, 0, 74, 63
1, 68843, Note_on_c, 0, 74, 0
1, 68843, Note_on_c, 0, 74, 0
1, 68843, Note_on_c, 0, 78, 60
1, 68846, Note_on_c, 0, 56, 0
1, 68846, Note_on_c, 0, 40, 55
1, 68846, Control_c, 0, 64, 0
1, 69028, Control_c, 0, 64, 126
1, 69086, Note_on_c, 0, 40, 0
1, 69086, Note_on_c, 0, 47, 49
1, 69329, Note_on_c, 0, 78, 0
1, 69329, Note_on_c, 0, 74, 58
1, 69329, Note_on_c, 0, 47, 0
1, 69332, Note_on_c, 0, 56, 50
1, 69587, Note_on_c, 0, 74, 0
1, 69587, Note_on_c, 0, 74, 58
1, 69587, Note_on_c, 0, 56, 0
1, 69590, Note_on_c, 0, 40, 50
1, 69600, Control_c, 0, 64, 0
1, 69772, Control_c, 0, 64, 126
1, 69830, Note_on_c, 0, 40, 0
1, 69830, Note_on_c, 0, 49, 48
1, 70073, Note_on_c, 0, 74, 0
1, 70073, Note_on_c, 0, 73, 54
1, 70073, Note_on_c, 0, 49, 0
1, 70076, Note_on_c, 0, 57, 46
1, 70333, Note_on_c, 0, 73, 0
1, 70333, Note_on_c, 0, 73, 54
1, 70333, Note_on_c, 0, 57, 0
1, 70336, Note_on_c, 0, 40, 45
1, 70340, Control_c, 0, 64, 0
1, 70476, Control_c, 0, 64, 126
1, 70576, Note_on_c, 0, 40, 0
1, 70576, Note_on_c, 0, 50, 43
1, 70820, Note_on_c, 0, 73, 0
1, 70820, Note_on_c, 0, 71, 48
1, 70820, Note_on_c, 0, 50, 0
1, 70823, Note_on_c, 0, 56, 43
1, 71086, Note_on_c, 0, 71, 0
1, 71086, Note_on_c, 0, 73, 54
1, 71086, Note_on_c, 0, 56, 0
1, 71089, Note_on_c, 0, 45, 48
1, 71089, Control_c, 0, 64, 0
1, 71271, Control_c, 0, 64, 127
1, 71329, Note_on_c, 0, 45, 0
1, 71329, Note_on_c, 0, 49, 45
1, 71572, Note_on_c, 0, 49, 0
1, 71572, Note_on_c, 0, 57, 47
1, 71815, Note_on_c, 0, 57, 0
1, 71815, Note_on_c, 0, 45, 49
1, 71831, Control_c, 0, 64, 0
1, 71987, Control_c, 0, 64, 127
1, 72059, Note_on_c, 0, 45, 0
1, 72059, Note_on_c, 0, 49, 52
1, 72302, Note_on_c, 0, 49, 0
1, 72302, Note_on_c, 0, 56, 56
1, 72545, Note_on_c, 0, 73, 0
1, 72545, Note_on_c, 0, 73, 62
1, 72545, Note_on_c, 0, 56, 0
1, 72548, Note_on_c, 0, 45, 57
1, 72557, Control_c, 0, 64, 1
1, 72716, Control_c, 0, 64, 125
1, 72788, Note_on_c, 0, 45, 0
1, 72788, Note_on_c, 0, 49, 55
1, 73031, Note_on_c, 0, 73, 0
1, 73031, Note_on_c, 0, 69, 62
1, 73031, Note_on_c, 0, 49, 0
1, 73034, Note_on_c, 0, 54, 52
1, 73274, Note_on_c, 0, 69, 0
1, 73274, Note_on_c, 0, 68, 62
1, 73274, Note_on_c, 0, 54, 0
1, 73277, Note_on_c, 0, 47, 54
1, 73277, Control_c, 0, 64, 0
1, 73494, Control_c, 0, 64, 127
1, 73518, Note_on_c, 0, 47, 0
1, 73518, Note_on_c, 0, 50, 50
1, 73761, Note_on_c, 0, 50, 0
1, 73761, Note_on_c, 0, 54, 50
1, 74004, Note_on_c, 0, 54, 0
1, 74004, Note_on_c, 0, 50, 54
1, 74247, Note_on_c, 0, 50, 0
1, 74247, Note_on_c, 0, 54, 50
1, 74490, Note_on_c, 0, 54, 0
1, 74490, Note_on_c, 0, 59, 50
1, 74733, Note_on_c, 0, 68, 0
1, 74733, Note_on_c, 0, 71, 57
1, 74733, Note_on_c, 0, 59, 0
1, 74736, Note_on_c, 0, 49, 49
1, 74746, Control_c, 0, 64, 0
1, 74976, Note_on_c, 0, 71, 0
1, 74976, Note_on_c, 0, 69, 54
1, 74976, Note_on_c, 0, 49, 0
1, 74979, Note_on_c, 0, 53, 48
1, 75221, Note_on_c, 0, 69, 0
1, 75221, Note_on_c, 0, 68, 46
1, 75221, Note_on_c, 0, 53, 0
1, 75224, Note_on_c, 0, 47, 40
1, 75469, Note_on_c, 0, 68, 0
1, 75469, Note_on_c, 0, 73, 55
1, 75469, Note_on_c, 0, 47, 0
1, 75472, Note_on_c, 0, 45, 52
1, 75540, Control_c, 0, 64, 126
1, 75713, Note_on_c, 0, 45, 0
1, 75713, Note_on_c, 0, 49, 49
1, 75956, Note_on_c, 0, 49, 0
1, 75956, Note_on_c, 0, 54, 49
1, 76199, Note_on_c, 0, 54, 0
1, 76199, Note_on_c, 0, 44, 52
1, 76215, Control_c, 0, 64, 0
1, 76321, Control_c, 0, 64, 127
1, 76442, Note_on_c, 0, 44, 0
1, 76442, Note_on_c, 0, 47, 49
1, 76685, Note_on_c, 0, 47, 0
1, 76685, Note_on_c, 0, 54, 49
1, 76818, Note_on_c, 0, 73, 0
1, 76818, Note_on_c, 0, 73, 62
1, 76951, Note_on_c, 0, 73, 0
1, 76951, Note_on_c, 0, 78, 80
1, 76951, Note_on_c, 0, 54, 0
1, 76954, Note_on_c, 0, 45, 62
1, 76958, Control_c, 0, 64, 0
1, 77058, Control_c, 0, 64, 127
1, 77194, Note_on_c, 0, 45, 0
1, 77194, Note_on_c, 0, 49, 58
1, 77437, Note_on_c, 0, 78, 0
1, 77437, Note_on_c, 0, 69, 70
1, 77437, Note_on_c, 0, 49, 0
1, 77440, Note_on_c, 0, 54, 58
1, 77680, Note_on_c, 0, 69, 0
1, 77680, Note_on_c, 0, 68, 70
1, 77680, Note_on_c, 0, 54, 0
1, 77683, Note_on_c, 0, 47, 62
1, 77683, Control_c, 0, 64, 0
1, 77807, Control_c, 0, 64, 127
1, 77923, Note_on_c, 0, 47, 0
1, 77923, Note_on_c, 0, 50, 58
1, 78166, Note_on_c, 0, 50, 0
1, 78166, Note_on_c, 0, 54, 59
1, 78410, Note_on_c, 0, 54, 0
1, 78410, Note_on_c, 0, 50, 62
1, 78653, Note_on_c, 0, 68, 0
1, 78653, Note_on_c, 0, 69, 62
1, 78653, Note_on_c, 0, 50, 0
1, 78656, Note_on_c, 0, 54, 59
1, 78896, Note_on_c, 0, 69, 0
1, 78896, Note_on_c, 0, 68, 62
1, 78896, Note_on_c, 0, 54, 0
1, 78899, Note_on_c, 0, 59, 54
1, 79142, Note_on_c, 0, 68, 0
1, 79142, Note_on_c, 0, 71, 62
1, 79142, Note_on_c, 0, 59, 0
1, 79145, Note_on_c, 0, 49, 58
1, 79145, Control_c, 0, 64, 0
1, 79393, Note_on_c, 0, 71, 0
1, 79393, Note_on_c, 0, 69, 59
1, 79393, Note_on_c, 0, 49, 0
1, 79396, Note_on_c, 0, 53, 52
1, 79649, Note_on_c, 0, 69, 0
1, 79649, Note_on_c, 0, 68, 58
1, 79649, Note_on_c, 0, 53, 0
1, 79652, Note_on_c, 0, 59, 49
1, 79911, Note_on_c, 0, 68, 0
1, 79911, Note_on_c, 0, 66, 61
1, 79911, Note_on_c, 0, 59, 0
1, 79914, Note_on_c, 0, 54, 47
1, 79914, Note_on_c, 0, 57, 47
1, 80154, Note_on_c, 0, 57, 0
1, 80154, Note_on_c, 0, 54, 0
1, 80154, Note_on_c, 0, 42, 48
1, 80397, Note_on_c, 0, 42, 0
1, 80397, Note_on_c, 0, 45, 49
1, 80640, Note_on_c, 0, 45, 0
1, 80640, Note_on_c, 0, 49, 51
1, 80883, Note_on_c, 0, 49, 0
1, 80883, Note_on_c, 0, 54, 54
1, 81127, Note_on_c, 0, 54, 0
1, 81127, Note_on_c, 0, 56, 55
1, 81370, Note_on_c, 0, 66, 0
1, 81370, Note_on_c, 0, 56, 0
1, 81370, Note_on_c, 0, 57, 57
1, 81613, Note_on_c, 0, 57, 0
1, 81613, Note_on_c, 0, 61, 58
1, 81856, Note_on_c, 0, 61, 0
1, 81856, Note_on_c, 0, 54, 60
1, 82099, Note_on_c, 0, 73, 62
1, 82099, Note_on_c, 0, 54, 0
1, 82099, Note_on_c, 0, 53, 62
1, 82180, Control_c, 0, 64, 127
1, 82342, Note_on_c, 0, 53, 0
1, 82342, Note_on_c, 0, 56, 59
1, 82586, Note_on_c, 0, 56, 0
1, 82586, Note_on_c, 0, 61, 59
1, 82829, Note_on_c, 0, 73, 0
1, 82829, Note_on_c, 0, 73, 62
1, 82829, Note_on_c, 0, 61, 0
1, 82832, Note_on_c, 0, 53, 62
1, 83072, Note_on_c, 0, 53, 0
1, 83072, Note_on_c, 0, 56, 56
1, 83315, Note_on_c, 0, 56, 0
1, 83315, Note_on_c, 0, 61, 56
1, 83558, Note_on_c, 0, 73, 0
1, 83558, Note_on_c, 0, 73, 62
1, 83558, Note_on_c, 0, 61, 0
1, 83561, Note_on_c, 0, 53, 62
1, 83801, Note_on_c, 0, 53, 0
1, 83801, Note_on_c, 0, 56, 57
1, 84045, Note_on_c, 0, 56, 0
1, 84045, Note_on_c, 0, 61, 57
1, 84303, Note_on_c, 0, 73, 0
1, 84303, Note_on_c, 0, 73, 56
1, 84303, Note_on_c, 0, 61, 0
1, 84306, Note_on_c, 0, 52, 55
1, 84310, Control_c, 0, 64, 0
1, 84410, Control_c, 0, 64, 126
1, 84546, Note_on_c, 0, 52, 0
1, 84546, Note_on_c, 0, 56, 51
1, 84789, Note_on_c, 0, 56, 0
1, 84789, Note_on_c, 0, 61, 51
1, 85032, Note_on_c, 0, 73, 0
1, 85032, Note_on_c, 0, 73, 54
1, 85032, Note_on_c, 0, 61, 0
1, 85035, Note_on_c, 0, 52, 55
1, 85275, Note_on_c, 0, 52, 0
1, 85275, Note_on_c, 0, 56, 51
1, 85519, Note_on_c, 0, 56, 0
1, 85519, Note_on_c, 0, 61, 51
1, 85762, Note_on_c, 0, 73, 0
1, 85762, Note_on_c, 0, 73, 54
1, 85762, Note_on_c, 0, 61, 0
1, 85765, Note_on_c, 0, 52, 55
1, 86005, Note_on_c, 0, 52, 0
1, 86005, Note_on_c, 0, 56, 56
1, 86248, Note_on_c, 0, 56, 0
1, 86248, Note_on_c, 0, 61, 62
1, 86370, Note_on_c, 0, 73, 0
1, 86370, Note_on_c, 0, 73, 45
1, 86499, Note_on_c, 0, 73, 0
1, 86499, Note_on_c, 0, 76, 70
1, 86499, Note_on_c, 0, 61, 0
1, 86502, Note_on_c, 0, 51, 62
1, 86502, Control_c, 0, 64, 0
1, 86707, Control_c, 0, 64, 127
1, 86743, Note_on_c, 0, 51, 0
1, 86743, Note_on_c, 0, 55, 62
1, 86986, Note_on_c, 0, 76, 0
1, 86986, Note_on_c, 0, 75, 62
1, 86986, Note_on_c, 0, 55, 0
1, 86989, Note_on_c, 0, 61, 60
1, 87229, Note_on_c, 0, 75, 0
1, 87229, Note_on_c, 0, 75, 61
1, 87229, Note_on_c, 0, 61, 0
1, 87232, Note_on_c, 0, 51, 60
1, 87473, Note_on_c, 0, 75, 0
1, 87473, Note_on_c, 0, 75, 60
1, 87473, Note_on_c, 0, 51, 0
1, 87476, Note_on_c, 0, 55, 59
1, 87724, Note_on_c, 0, 75, 0
1, 87724, Note_on_c, 0, 75, 59
1, 87724, Note_on_c, 0, 55, 0
1, 87727, Note_on_c, 0, 61, 58
1, 87982, Note_on_c, 0, 75, 0
1, 87982, Note_on_c, 0, 75, 58
1, 87982, Note_on_c, 0, 61, 0
1, 87985, Note_on_c, 0, 51, 58
1, 88248, Note_on_c, 0, 75, 0
1, 88248, Note_on_c, 0, 75, 58
1, 88248, Note_on_c, 0, 51, 0
1, 88251, Note_on_c, 0, 55, 58
1, 88522, Note_on_c, 0, 75, 0
1, 88522, Note_on_c, 0, 75, 57
1, 88522, Note_on_c, 0, 55, 0
1, 88525, Note_on_c, 0, 61, 57
1, 88805, Note_on_c, 0, 75, 0
1, 88805, Note_on_c, 0, 75, 56
1, 88805, Note_on_c, 0, 61, 0
1, 88808, Note_on_c, 0, 51, 55
1, 88808, Note_on_c, 0, 55, 55
1, 88808, Control_c, 0, 64, 0
1, 89120, Note_on_c, 0, 58, 50
1, 89499, Note_on_c, 0, 58, 0
1, 89499, Note_on_c, 0, 60, 46
1, 89974, Note_on_c, 0, 60, 0
1, 89974, Note_on_c, 0, 61, 41
1, 91579, Note_on_c, 0, 75, 0
1, 91579, Note_on_c, 0, 72, 53
1, 91579, Note_on_c, 0, 60, 47
1, 91582, Control_c, 0, 91, 127
1, 91582, Note_on_c, 0, 68, 47
1, 91582, Note_on_c, 0, 61, 0
1, 91585, Note_on_c, 0, 55, 0
1, 91585, Note_on_c, 0, 51, 0
1, 91585, Note_on_c, 0, 44, 40
1, 91588, Note_on_c, 0, 51, 46
1, 91588, Control_c, 0, 91, 127
1, 92035, Note_on_c, 0, 73, 53
1, 92035, Note_on_c, 0, 61, 47
1, 92035, Note_on_c, 0, 67, 47
1, 92038, Note_on_c, 0, 51, 0
1, 92038, Note_on_c, 0, 51, 46
1, 92038, Note_on_c, 0, 46, 40
1, 92048, Note_on_c, 0, 68, 0
1, 92048, Note_on_c, 0, 72, 0
1, 92048, Note_on_c, 0, 60, 0
1, 92051, Note_on_c, 0, 44, 0
1, 92188, Note_on_c, 0, 72, 53
1, 92188, Note_on_c, 0, 60, 47
1, 92188, Note_on_c, 0, 68, 47
1, 92191, Note_on_c, 0, 51, 0
1, 92191, Note_on_c, 0, 44, 40
1, 92191, Note_on_c, 0, 51, 46
1, 92203, Note_on_c, 0, 73, 0
1, 92203, Note_on_c, 0, 67, 0
1, 92203, Note_on_c, 0, 61, 0
1, 92206, Note_on_c, 0, 46, 0
1, 92563, Note_on_c, 0, 72, 0
1, 92563, Note_on_c, 0, 60, 0
1, 92563, Note_on_c, 0, 68, 0
1, 92566, Note_on_c, 0, 61, 40
1, 92566, Note_on_c, 0, 67, 40
1, 92566, Note_on_c, 0, 73, 44
1, 92569, Note_on_c, 0, 51, 0
1, 92569, Note_on_c, 0, 44, 0
1, 92569, Note_on_c, 0, 51, 37
1, 92572, Note_on_c, 0, 46, 33
1, 94397, Note_on_c, 0, 73, 0
1, 94397, Note_on_c, 0, 67, 0
1, 94397, Note_on_c, 0, 61, 0
1, 94400, Note_on_c, 0, 60, 47
1, 94400, Note_on_c, 0, 72, 53
1, 94400, Note_on_c, 0, 68, 47
1, 94403, Note_on_c, 0, 46, 0
1, 94403, Note_on_c, 0, 51, 0
1, 94403, Note_on_c, 0, 44, 40
1, 94406, Note_on_c, 0, 51, 46
1, 94854, Note_on_c, 0, 67, 47
1, 94854, Note_on_c, 0, 61, 47
1, 94854, Note_on_c, 0, 73, 53
1, 94857, Note_on_c, 0, 51, 0
1, 94857, Note_on_c, 0, 51, 46
1, 94857, Note_on_c, 0, 46, 40
1, 94867, Note_on_c, 0, 68, 0
1, 94867, Note_on_c, 0, 60, 0
1, 94867, Note_on_c, 0, 72, 0
1, 94870, Note_on_c, 0, 44, 0
1, 95007, Note_on_c, 0, 68, 47
1, 95007, Note_on_c, 0, 60, 47
1, 95007, Note_on_c, 0, 72, 53
1, 95010, Note_on_c, 0, 51, 0
1, 95010, Note_on_c, 0, 44, 40
1, 95010, Note_on_c, 0, 51, 46
1, 95023, Note_on_c, 0, 67, 0
1, 95023, Note_on_c, 0, 73, 0
1, 95023, Note_on_c, 0, 61, 0
1, 95026, Note_on_c, 0, 46, 0
1, 95403, Note_on_c, 0, 68, 0
1, 95403, Note_on_c, 0, 60, 0
1, 95403, Note_on_c, 0, 72, 0
1, 95406, Note_on_c, 0, 67, 41
1, 95406, Note_on_c, 0, 70, 45
1, 95406, Note_on_c, 0, 58, 41
1, 95409, Note_on_c, 0, 51, 0
1, 95409, Note_on_c, 0, 44, 0
1, 95409, Note_on_c, 0, 39, 32
1, 95412, Note_on_c, 0, 51, 37
1, 97236, Note_on_c, 0, 58, 0
1, 97236, Note_on_c, 0, 70, 0
1, 97236, Note_on_c, 0, 67, 0
1, 97239, Note_on_c, 0, 72, 56
1, 97239, Note_on_c, 0, 60, 52
1, 97239, Note_on_c, 0, 68, 52
1, 97242, Note_on_c, 0, 51, 0
1, 97242, Note_on_c, 0, 39, 0
1, 97242, Note_on_c, 0, 51, 49
1, 97245, Note_on_c, 0, 44, 43
1, 97693, Note_on_c, 0, 73, 56
1, 97693, Note_on_c, 0, 61, 52
1, 97693, Note_on_c, 0, 67, 52
1, 97696, Note_on_c, 0, 51, 0
1, 97696, Note_on_c, 0, 46, 43
1, 97696, Note_on_c, 0, 51, 49
1, 97706, Note_on_c, 0, 68, 0
1, 97706, Note_on_c, 0, 72, 0
1, 97706, Note_on_c, 0, 60, 0
1, 97709, Note_on_c, 0, 44, 0
1, 97845, Note_on_c, 0, 60, 52
1, 97845, Note_on_c, 0, 68, 52
1, 97845, Note_on_c, 0, 72, 56
1, 97848, Note_on_c, 0, 51, 0
1, 97848, Note_on_c, 0, 51, 49
1, 97848, Note_on_c, 0, 44, 43
1, 97858, Note_on_c, 0, 73, 0
1, 97858, Note_on_c, 0, 67, 0
1, 97858, Note_on_c, 0, 61, 0
1, 97861, Note_on_c, 0, 46, 0
1, 98150, Note_on_c, 0, 60, 0
1, 98150, Note_on_c, 0, 68, 0
1, 98150, Note_on_c, 0, 72, 0
1, 98153, Note_on_c, 0, 60, 46
1, 98153, Note_on_c, 0, 72, 52
1, 98153, Note_on_c, 0, 68, 46
1, 98156, Note_on_c, 0, 44, 0
1, 98156, Note_on_c, 0, 51, 0
1, 98156, Note_on_c, 0, 44, 39
1, 98159, Note_on_c, 0, 51, 45
1, 98608, Note_on_c, 0, 68, 0
1, 98608, Note_on_c, 0, 68, 55
1, 98608, Note_on_c, 0, 65, 55
1, 98611, Note_on_c, 0, 77, 61
1, 98611, Note_on_c, 0, 51, 0
1, 98611, Note_on_c, 0, 51, 50
1, 98614, Note_on_c, 0, 49, 44
1, 98620, Note_on_c, 0, 72, 0
1, 98620, Note_on_c, 0, 60, 0
1, 98620, Note_on_c, 0, 44, 0
1, 98760, Note_on_c, 0, 75, 64
1, 98760, Note_on_c, 0, 63, 57
1, 98760, Note_on_c, 0, 68, 57
1, 98763, Note_on_c, 0, 51, 0
1, 98763, Note_on_c, 0, 48, 46
1, 98763, Note_on_c, 0, 51, 54
1, 98773, Note_on_c, 0, 65, 0
1, 98773, Note_on_c, 0, 77, 0
1, 98773, Note_on_c, 0, 68, 0
1, 98776, Note_on_c, 0, 49, 0
1, 99138, Note_on_c, 0, 75, 0
1, 99138, Note_on_c, 0, 63, 0
1, 99138, Note_on_c, 0, 68, 0
1, 99141, Note_on_c, 0, 68, 63
1, 99141, Note_on_c, 0, 75, 69
1, 99141, Note_on_c, 0, 63, 63
1, 99144, Note_on_c, 0, 51, 0
1, 99144, Note_on_c, 0, 48, 0
1, 99144, Note_on_c, 0, 48, 48
1, 99147, Note_on_c, 0, 51, 55
1, 99903, Note_on_c, 0, 63, 0
1, 99903, Note_on_c, 0, 75, 0
1, 99903, Note_on_c, 0, 68, 0
1, 99906, Note_on_c, 0, 63, 47
1, 99906, Note_on_c, 0, 75, 47
1, 100056, Note_on_c, 0, 75, 0
1, 100056, Note_on_c, 0, 63, 0
1, 100056, Note_on_c, 0, 67, 47
1, 100059, Note_on_c, 0, 73, 53
1, 100059, Note_on_c, 0, 61, 47
1, 100059, Note_on_c, 0, 51, 0
1, 100062, Note_on_c, 0, 48, 0
1, 100062, Note_on_c, 0, 51, 43
1, 100062, Note_on_c, 0, 46, 37
1, 100818, Note_on_c, 0, 61, 0
1, 100818, Note_on_c, 0, 73, 0
1, 100818, Note_on_c, 0, 67, 0
1, 100821, Note_on_c, 0, 68, 37
1, 100821, Note_on_c, 0, 60, 37
1, 100821, Note_on_c, 0, 72, 41
1, 100824, Note_on_c, 0, 46, 0
1, 100824, Note_on_c, 0, 51, 0
1, 100824, Note_on_c, 0, 44, 31
1, 100827, Note_on_c, 0, 51, 36
1, 101011, Note_on_c, 0, 72, 0
1, 101011, Note_on_c, 0, 60, 0
1, 101011, Note_on_c, 0, 68, 0
1, 101014, Note_on_c, 0, 68, 37
1, 101014, Note_on_c, 0, 60, 37
1, 101014, Note_on_c, 0, 72, 41
1, 101017, Note_on_c, 0, 51, 0
1, 101017, Note_on_c, 0, 44, 0
1, 101017, Note_on_c, 0, 51, 36
1, 101020, Note_on_c, 0, 44, 31
1, 102840, Note_on_c, 0, 72, 0
1, 102840, Note_on_c, 0, 60, 0
1, 102840, Note_on_c, 0, 68, 0
1, 102843, Note_on_c, 0, 67, 49
1, 102843, Note_on_c, 0, 70, 54
1, 102843, Note_on_c, 0, 58, 49
1, 102846, Note_on_c, 0, 44, 0
1, 102846, Note_on_c, 0, 51, 0
1, 102846, Note_on_c, 0, 39, 40
1, 102849, Note_on_c, 0, 51, 46
1, 103298, Note_on_c, 0, 68, 49
1, 103298, Note_on_c, 0, 59, 49
1, 103298, Note_on_c, 0, 71, 54
1, 103301, Note_on_c, 0, 51, 0
1, 103301, Note_on_c, 0, 51, 47
1, 103301, Note_on_c, 0, 44, 41
1, 103310, Note_on_c, 0, 58, 0
1, 103310, Note_on_c, 0, 67, 0
1, 103310, Note_on_c, 0, 70, 0
1, 103313, Note_on_c, 0, 39, 0
1, 103450, Note_on_c, 0, 70, 54
1, 103450, Note_on_c, 0, 58, 49
1, 103450, Note_on_c, 0, 67, 49
1, 103453, Note_on_c, 0, 51, 0
1, 103453, Note_on_c, 0, 39, 41
1, 103453, Note_on_c, 0, 51, 47
1, 103463, Note_on_c, 0, 68, 0
1, 103463, Note_on_c, 0, 71, 0
1, 103463, Note_on_c, 0, 59, 0
1, 103466, Note_on_c, 0, 44, 0
1, 103755, Note_on_c, 0, 70, 0
1, 103755, Note_on_c, 0, 58, 0
1, 103755, Note_on_c, 0, 67, 0
1, 103758, Note_on_c, 0, 58, 49
1, 103758, Note_on_c, 0, 67, 49
1, 103758, Note_on_c, 0, 70, 54
1, 103761, Note_on_c, 0, 51, 0
1, 103761, Note_on_c, 0, 39, 0
1, 103761, Note_on_c, 0, 51, 47
1, 103764, Note_on_c, 0, 39, 41
1, 104212, Note_on_c, 0, 59, 49
1, 104212, Note_on_c, 0, 68, 49
1, 104212, Note_on_c, 0, 71, 54
1, 104215, Note_on_c, 0, 51, 0
1, 104215, Note_on_c, 0, 44, 40
1, 104215, Note_on_c, 0, 51, 46
1, 104225, Note_on_c, 0, 70, 0
1, 104225, Note_on_c, 0, 58, 0
1, 104225, Note_on_c, 0, 67, 0
1, 104228, Note_on_c, 0, 39, 0
1, 104365, Note_on_c, 0, 67, 49
1, 104365, Note_on_c, 0, 58, 49
1, 104365, Note_on_c, 0, 70, 54
1, 104368, Note_on_c, 0, 51, 0
1, 104368, Note_on_c, 0, 51, 46
1, 104368, Note_on_c, 0, 39, 40
1, 104381, Note_on_c, 0, 59, 0
1, 104381, Note_on_c, 0, 71, 0
1, 104381, Note_on_c, 0, 68, 0
1, 104384, Note_on_c, 0, 44, 0
1, 104761, Note_on_c, 0, 67, 0
1, 104761, Note_on_c, 0, 58, 0
1, 104761, Note_on_c, 0, 70, 0
1, 104764, Note_on_c, 0, 68, 67
1, 104764, Note_on_c, 0, 71, 73
1, 104764, Note_on_c, 0, 65, 67
1, 104767, Note_on_c, 0, 39, 0
1, 104767, Note_on_c, 0, 51, 0
1, 104767, Note_on_c, 0, 38, 55
1, 104770, Note_on_c, 0, 50, 63
1, 106591, Note_on_c, 0, 65, 0
1, 106591, Note_on_c, 0, 63, 40
1, 106591, Note_on_c, 0, 50, 0
1, 106594, Note_on_c, 0, 38, 0
1, 106594, Note_on_c, 0, 39, 34
1, 106594, Note_on_c, 0, 51, 39
1, 107505, Note_on_c, 0, 71, 0
1, 107505, Note_on_c, 0, 68, 0
1, 107505, Note_on_c, 0, 70, 34
1, 107508, Note_on_c, 0, 67, 34
1, 107810, Note_on_c, 0, 67, 0
1, 107810, Note_on_c, 0, 70, 0
1, 107810, Note_on_c, 0, 63, 0
1, 107813, Note_on_c, 0, 51, 0
1, 107813, Note_on_c, 0, 39, 0
1, 108420, Note_on_c, 0, 66, 57
1, 108420, Note_on_c, 0, 71, 62
1, 108420, Note_on_c, 0, 63, 57
1, 108877, Note_on_c, 0, 73, 63
1, 108890, Note_on_c, 0, 71, 0
1, 109030, Note_on_c, 0, 66, 0
1, 109030, Note_on_c, 0, 63, 0
1, 109030, Note_on_c, 0, 73, 0
1, 109033, Note_on_c, 0, 63, 58
1, 109033, Note_on_c, 0, 66, 58
1, 109033, Note_on_c, 0, 71, 63
1, 109036, Note_on_c, 0, 51, 55
1, 109335, Note_on_c, 0, 71, 0
1, 109335, Note_on_c, 0, 66, 0
1, 109335, Note_on_c, 0, 63, 0
1, 109338, Note_on_c, 0, 65, 58
1, 109338, Note_on_c, 0, 73, 68
1, 109338, Note_on_c, 0, 71, 58
1, 109341, Note_on_c, 0, 51, 0
1, 109341, Note_on_c, 0, 56, 54
1, 109792, Note_on_c, 0, 58, 54
1, 109805, Note_on_c, 0, 56, 0
1, 109944, Note_on_c, 0, 73, 0
1, 109944, Note_on_c, 0, 74, 71
1, 109944, Note_on_c, 0, 58, 0
1, 109947, Note_on_c, 0, 56, 54
1, 110249, Note_on_c, 0, 74, 0
1, 110249, Note_on_c, 0, 71, 0
1, 110249, Note_on_c, 0, 65, 0
1, 110252, Note_on_c, 0, 71, 59
1, 110252, Note_on_c, 0, 75, 65
1, 110252, Note_on_c, 0, 66, 59
1, 110255, Note_on_c, 0, 56, 0
1, 110255, Note_on_c, 0, 59, 54
1, 110255, Note_on_c, 0, 57, 54
1, 110553, Note_on_c, 0, 66, 0
1, 110553, Note_on_c, 0, 75, 0
1, 110553, Note_on_c, 0, 71, 0
1, 110556, Note_on_c, 0, 76, 76
1, 110556, Note_on_c, 0, 64, 69
1, 110556, Note_on_c, 0, 71, 69
1, 110559, Note_on_c, 0, 57, 0
1, 110559, Note_on_c, 0, 56, 62
1, 110860, Note_on_c, 0, 71, 0
1, 110860, Note_on_c, 0, 64, 0
1, 110860, Note_on_c, 0, 76, 0
1, 110863, Note_on_c, 0, 78, 80
1, 110863, Note_on_c, 0, 66, 73
1, 110863, Note_on_c, 0, 71, 73
1, 110866, Note_on_c, 0, 56, 0
1, 110866, Note_on_c, 0, 59, 0
1, 110866, Note_on_c, 0, 54, 70
1, 110869, Note_on_c, 0, 63, 70
1, 111171, Note_on_c, 0, 71, 0
1, 111171, Note_on_c, 0, 66, 0
1, 111171, Note_on_c, 0, 78, 0
1, 111174, Note_on_c, 0, 80, 87
1, 111174, Note_on_c, 0, 68, 71
1, 111174, Note_on_c, 0, 71, 78
1, 111177, Note_on_c, 0, 63, 0
1, 111177, Note_on_c, 0, 54, 0
1, 111177, Note_on_c, 0, 64, 74
1, 111180, Note_on_c, 0, 52, 74
1, 111487, Note_on_c, 0, 80, 0
1, 111487, Note_on_c, 0, 76, 76
1, 111487, Note_on_c, 0, 52, 0
1, 111490, Note_on_c, 0, 56, 68
1, 111807, Note_on_c, 0, 76, 0
1, 111807, Note_on_c, 0, 71, 0
1, 111807, Note_on_c, 0, 68, 0
1, 111810, Note_on_c, 0, 68, 61
1, 111810, Note_on_c, 0, 75, 69
1, 111810, Note_on_c, 0, 65, 61
1, 111813, Note_on_c, 0, 56, 0
1, 111813, Note_on_c, 0, 64, 0
1, 111813, Note_on_c, 0, 63, 58
1, 111816, Note_on_c, 0, 59, 58
1, 112200, Note_on_c, 0, 65, 0
1, 112200, Note_on_c, 0, 75, 0
1, 112200, Note_on_c, 0, 68, 0
1, 112203, Note_on_c, 0, 66, 57
1, 112203, Note_on_c, 0, 71, 57
1, 112203, Note_on_c, 0, 75, 62
1, 112206, Note_on_c, 0, 59, 0
1, 112206, Note_on_c, 0, 63, 0
1, 112206, Note_on_c, 0, 63, 51
1, 112209, Note_on_c, 0, 59, 44
1, 112209, Note_on_c, 0, 54, 44
1, 113199, Note_on_c, 0, 75, 0
1, 113199, Note_on_c, 0, 71, 0
1, 113199, Note_on_c, 0, 70, 40
1, 113202, Note_on_c, 0, 73, 45
1, 113202, Note_on_c, 0, 59, 0
1, 113202, Note_on_c, 0, 63, 0
1, 113205, Note_on_c, 0, 58, 39
1, 113205, Note_on_c, 0, 61, 39
1, 113522, Note_on_c, 0, 73, 0
1, 113522, Note_on_c, 0, 70, 0
1, 113522, Note_on_c, 0, 66, 0
1, 113525, Note_on_c, 0, 61, 0
1, 113525, Note_on_c, 0, 58, 0
1, 113525, Note_on_c, 0, 54, 0
1, 114157, Note_on_c, 0, 71, 39
1, 114157, Note_on_c, 0, 80, 44
1, 114157, Note_on_c, 0, 68, 39
1, 114160, Note_on_c, 0, 64, 39
1, 114160, Note_on_c, 0, 52, 39
1, 114469, Note_on_c, 0, 80, 0
1, 114469, Note_on_c, 0, 76, 45
1, 114469, Note_on_c, 0, 52, 0
1, 114472, Note_on_c, 0, 56, 39
1, 114781, Note_on_c, 0, 76, 0
1, 114781, Note_on_c, 0, 68, 0
1, 114781, Note_on_c, 0, 71, 0
1, 114784, Note_on_c, 0, 68, 40
1, 114784, Note_on_c, 0, 65, 40
1, 114784, Note_on_c, 0, 75, 45
1, 114787, Note_on_c, 0, 56, 0
1, 114787, Note_on_c, 0, 64, 0
1, 114787, Note_on_c, 0, 59, 40
1, 114790, Note_on_c, 0, 63, 40
1, 115182, Note_on_c, 0, 75, 0
1, 115182, Note_on_c, 0, 65, 0
1, 115182, Note_on_c, 0, 68, 0
1, 115185, Note_on_c, 0, 71, 41
1, 115185, Note_on_c, 0, 75, 46
1, 115185, Note_on_c, 0, 66, 41
1, 115188, Note_on_c, 0, 63, 0
1, 115188, Note_on_c, 0, 59, 0
1, 115188, Note_on_c, 0, 54, 35
1, 115191, Note_on_c, 0, 59, 35
1, 115191, Note_on_c, 0, 63, 40
1, 116159, Note_on_c, 0, 75, 0
1, 116159, Note_on_c, 0, 71, 0
1, 116159, Note_on_c, 0, 70, 36
1, 116162, Note_on_c, 0, 73, 39
1, 116162, Note_on_c, 0, 63, 0
1, 116162, Note_on_c, 0, 59, 0
1, 116165, Note_on_c, 0, 58, 34
1, 116165, Note_on_c, 0, 61, 34
1, 116464, Note_on_c, 0, 73, 0
1, 116464, Note_on_c, 0, 70, 0
1, 116464, Note_on_c, 0, 66, 0
1, 116467, Note_on_c, 0, 61, 0
1, 116467, Note_on_c, 0, 58, 0
1, 116467, Note_on_c, 0, 54, 0
1, 117074, Note_on_c, 0, 73, 63
1, 117074, Note_on_c, 0, 63, 58
1, 117074, Note_on_c, 0, 51, 54
1, 117077, Note_on_c, 0, 43, 54
1, 117531, Note_on_c, 0, 75, 62
1, 117544, Note_on_c, 0, 73, 0
1, 117683, Note_on_c, 0, 75, 0
1, 117683, Note_on_c, 0, 70, 62
1, 117988, Note_on_c, 0, 70, 0
1, 117988, Note_on_c, 0, 63, 0
1, 117988, Note_on_c, 0, 73, 62
1, 117991, Note_on_c, 0, 63, 57
1, 117991, Note_on_c, 0, 43, 0
1, 117991, Note_on_c, 0, 51, 0
1, 117994, Note_on_c, 0, 44, 54
1, 117994, Note_on_c, 0, 51, 54
1, 118903, Note_on_c, 0, 73, 0
1, 118903, Note_on_c, 0, 72, 62
1, 119513, Note_on_c, 0, 72, 0
1, 119513, Note_on_c, 0, 73, 73
1, 119513, Note_on_c, 0, 44, 0
1, 119516, Note_on_c, 0, 46, 62
1, 119818, Note_on_c, 0, 73, 0
1, 119818, Note_on_c, 0, 63, 0
1, 119818, Note_on_c, 0, 75, 77
1, 119821, Note_on_c, 0, 63, 69
1, 119821, Note_on_c, 0, 46, 0
1, 119821, Note_on_c, 0, 51, 0
1, 119824, Note_on_c, 0, 48, 69
1, 119824, Note_on_c, 0, 51, 69
1, 120124, Note_on_c, 0, 63, 0
1, 120124, Note_on_c, 0, 75, 0
1, 120124, Note_on_c, 0, 73, 73
1, 120127, Note_on_c, 0, 67, 67
1, 120127, Note_on_c, 0, 48, 0
1, 120127, Note_on_c, 0, 46, 66
1, 120437, Note_on_c, 0, 67, 0
1, 120437, Note_on_c, 0, 73, 0
1, 120437, Note_on_c, 0, 68, 60
1, 120440, Note_on_c, 0, 72, 67
1, 120440, Note_on_c, 0, 46, 0
1, 120440, Note_on_c, 0, 44, 59
1, 120770, Note_on_c, 0, 72, 0
1, 120770, Note_on_c, 0, 68, 0
1, 120770, Note_on_c, 0, 65, 57
1, 120773, Note_on_c, 0, 72, 62
1, 120773, Note_on_c, 0, 44, 0
1, 120773, Note_on_c, 0, 51, 0
1, 120776, Note_on_c, 0, 49, 56
1, 121097, Note_on_c, 0, 72, 0
1, 121097, Note_on_c, 0, 70, 62
1, 121426, Note_on_c, 0, 70, 0
1, 121426, Note_on_c, 0, 65, 0
1, 121426, Note_on_c, 0, 73, 62
1, 121429, Note_on_c, 0, 64, 57
1, 121429, Note_on_c, 0, 58, 47
1, 121770, Note_on_c, 0, 64, 0
1, 121770, Note_on_c, 0, 73, 0
1, 121770, Note_on_c, 0, 68, 55
1, 121773, Note_on_c, 0, 63, 49
1, 121773, Note_on_c, 0, 58, 0
1, 121773, Note_on_c, 0, 49, 0
1, 121776, Note_on_c, 0, 51, 49
1, 121776, Note_on_c, 0, 60, 49
1, 122534, Note_on_c, 0, 63, 0
1, 122534, Note_on_c, 0, 68, 0
1, 122534, Note_on_c, 0, 61, 45
1, 122537, Note_on_c, 0, 67, 49
1, 122537, Note_on_c, 0, 60, 0
1, 122537, Note_on_c, 0, 51, 0
1, 122540, Note_on_c, 0, 58, 43
1, 122540, Note_on_c, 0, 51, 43
1, 122714, Note_on_c, 0, 67, 0
1, 122714, Note_on_c, 0, 61, 0
1, 122714, Note_on_c, 0, 67, 49
1, 122717, Note_on_c, 0, 61, 45
1, 122717, Note_on_c, 0, 51, 0
1, 122717, Note_on_c, 0, 58, 0
1, 122720, Note_on_c, 0, 58, 44
1, 122720, Note_on_c, 0, 51, 44
1, 123476, Note_on_c, 0, 61, 0
1, 123476, Note_on_c, 0, 67, 0
1, 123476, Note_on_c, 0, 60, 43
1, 123479, Note_on_c, 0, 68, 47
1, 123479, Note_on_c, 0, 51, 0
1, 123479, Note_on_c, 0, 58, 0
1, 123482, Note_on_c, 0, 44, 39
1, 123482, Note_on_c, 0, 56, 39
1, 123658, Note_on_c, 0, 68, 0
1, 123658, Note_on_c, 0, 60, 0
1, 123658, Note_on_c, 0, 68, 47
1, 123661, Note_on_c, 0, 60, 43
1, 123661, Note_on_c, 0, 56, 0
1, 123661, Note_on_c, 0, 44, 0
1, 123664, Note_on_c, 0, 56, 39
1, 123664, Note_on_c, 0, 44, 39
1, 124282, Note_on_c, 0, 44, 0
1, 124282, Note_on_c, 0, 56, 0
1, 124429, Control_c, 0, 64, 126
1, 124440, Note_on_c, 0, 51, 34
1, 124610, Note_on_c, 0, 60, 0
1, 124610, Note_on_c, 0, 68, 0
1, 124610, Note_on_c, 0, 51, 0
1, 124613, Note_on_c, 0, 51, 34
1, 125399, Note_on_c, 0, 72, 45
1, 125399, Note_on_c, 0, 60, 40
1, 125399, Note_on_c, 0, 68, 40
1, 125402, Note_on_c, 0, 44, 39
1, 125418, Control_c, 0, 64, 0
1, 125568, Note_on_c, 0, 68, 0
1, 125568, Note_on_c, 0, 60, 0
1, 125568, Note_on_c, 0, 72, 0
1, 125571, Note_on_c, 0, 60, 40
1, 125571, Note_on_c, 0, 68, 40
1, 125571, Note_on_c, 0, 72, 45
1, 125574, Note_on_c, 0, 44, 0
1, 125574, Note_on_c, 0, 44, 39
1, 126041, Note_on_c, 0, 61, 40
1, 126041, Note_on_c, 0, 73, 45
1, 126041, Note_on_c, 0, 67, 40
1, 126044, Note_on_c, 0, 46, 39
1, 126054, Note_on_c, 0, 72, 0
1, 126054, Note_on_c, 0, 60, 0
1, 126054, Note_on_c, 0, 68, 0
1, 126057, Note_on_c, 0, 44, 0
1, 126200, Note_on_c, 0, 68, 40
1, 126200, Note_on_c, 0, 60, 40
1, 126200, Note_on_c, 0, 72, 45
1, 126203, Note_on_c, 0, 44, 39
1, 126214, Note_on_c, 0, 61, 0
1, 126214, Note_on_c, 0, 67, 0
1, 126214, Note_on_c, 0, 73, 0
1, 126217, Note_on_c, 0, 46, 0
1, 126541, Note_on_c, 0, 68, 0
1, 126541, Note_on_c, 0, 60, 0
1, 126541, Note_on_c, 0, 72, 0
1, 126544, Note_on_c, 0, 67, 37
1, 126544, Note_on_c, 0, 61, 37
1, 126544, Note_on_c, 0, 73, 40
1, 126547, Note_on_c, 0, 44, 0
1, 126547, Note_on_c, 0, 46, 35
1, 127330, Note_on_c, 0, 51, 0
1, 127330, Control_c, 0, 64, 127
1, 127330, Note_on_c, 0, 51, 35
1, 127502, Note_on_c, 0, 51, 0
1, 127502, Note_on_c, 0, 51, 35
1, 128272, Control_c, 0, 64, 0
1, 128290, Note_on_c, 0, 73, 0
1, 128290, Note_on_c, 0, 61, 0
1, 128290, Note_on_c, 0, 67, 0
1, 128293, Note_on_c, 0, 67, 40
1, 128293, Note_on_c, 0, 70, 45
1, 128293, Note_on_c, 0, 58, 40
1, 128296, Note_on_c, 0, 46, 0
1, 128296, Note_on_c, 0, 39, 39
1, 128460, Note_on_c, 0, 58, 0
1, 128460, Note_on_c, 0, 70, 0
1, 128460, Note_on_c, 0, 67, 0
1, 128463, Note_on_c, 0, 70, 45
1, 128463, Note_on_c, 0, 58, 40
1, 128463, Note_on_c, 0, 67, 40
1, 128466, Note_on_c, 0, 39, 0
1, 128466, Note_on_c, 0, 39, 39
1, 128933, Note_on_c, 0, 72, 45
1, 128933, Note_on_c, 0, 60, 40
1, 128933, Note_on_c, 0, 68, 40
1, 128936, Note_on_c, 0, 44, 39
1, 128947, Note_on_c, 0, 67, 0
1, 128947, Note_on_c, 0, 70, 0
1, 128947, Note_on_c, 0, 58, 0
1, 128950, Note_on_c, 0, 39, 0
1, 129092, Note_on_c, 0, 58, 40
1, 129092, Note_on_c, 0, 67, 40
1, 129092, Note_on_c, 0, 70, 45
1, 129095, Note_on_c, 0, 39, 39
1, 129106, Note_on_c, 0, 72, 0
1, 129106, Note_on_c, 0, 68, 0
1, 129106, Note_on_c, 0, 60, 0
1, 129109, Note_on_c, 0, 44, 0
1, 129433, Note_on_c, 0, 58, 0
1, 129433, Note_on_c, 0, 67, 0
1, 129433, Note_on_c, 0, 70, 0
1, 129436, Note_on_c, 0, 60, 37
1, 129436, Note_on_c, 0, 72, 40
1, 129436, Note_on_c, 0, 68, 37
1, 129439, Note_on_c, 0, 39, 0
1, 129439, Note_on_c, 0, 44, 34
1, 130063, Note_on_c, 0, 51, 0
1, 130221, Note_on_c, 0, 51, 35
1, 130233, Control_c, 0, 64, 127
1, 130404, Note_on_c, 0, 51, 0
1, 130404, Note_on_c, 0, 51, 35
1, 131165, Control_c, 0, 64, 0
1, 131192, Note_on_c, 0, 68, 0
1, 131192, Note_on_c, 0, 72, 0
1, 131192, Note_on_c, 0, 60, 0
1, 131195, Note_on_c, 0, 63, 45
1, 131195, Note_on_c, 0, 44, 0
1, 131195, Note_on_c, 0, 48, 39
1, 131362, Note_on_c, 0, 63, 0
1, 131362, Note_on_c, 0, 63, 45
1, 131362, Note_on_c, 0, 48, 0
1, 131365, Note_on_c, 0, 48, 39
1, 131837, Note_on_c, 0, 65, 52
1, 131837, Note_on_c, 0, 49, 38
1, 131851, Note_on_c, 0, 63, 0
1, 131851, Note_on_c, 0, 48, 0
1, 131998, Note_on_c, 0, 63, 54
1, 131998, Note_on_c, 0, 48, 40
1, 132011, Note_on_c, 0, 65, 0
1, 132011, Note_on_c, 0, 49, 0
1, 132321, Note_on_c, 0, 63, 0
1, 132321, Note_on_c, 0, 65, 55
1, 132321, Note_on_c, 0, 48, 0
1, 132324, Note_on_c, 0, 49, 46
1, 132814, Note_on_c, 0, 63, 54
1, 132814, Note_on_c, 0, 48, 47
1, 132828, Note_on_c, 0, 65, 0
1, 132828, Note_on_c, 0, 49, 0
1, 132980, Note_on_c, 0, 63, 0
1, 132980, Note_on_c, 0, 63, 54
1, 132980, Note_on_c, 0, 48, 0
1, 132983, Note_on_c, 0, 48, 47
1, 133316, Note_on_c, 0, 63, 0
1, 133316, Note_on_c, 0, 68, 54
1, 133316, Note_on_c, 0, 60, 49
1, 133319, Note_on_c, 0, 48, 0
1, 133319, Note_on_c, 0, 51, 0
1, 133319, Note_on_c, 0, 51, 47
1, 134262, Note_on_c, 0, 60, 0
1, 134262, Note_on_c, 0, 68, 0
1, 134262, Note_on_c, 0, 70, 54
1, 134265, Note_on_c, 0, 61, 49
1, 134265, Note_on_c, 0, 67, 49
1, 134265, Note_on_c, 0, 51, 0
1, 134268, Note_on_c, 0, 51, 47
1, 134268, Note_on_c, 0, 39, 47
1, 135053, Note_on_c, 0, 67, 0
1, 135053, Note_on_c, 0, 61, 0
1, 135053, Note_on_c, 0, 70, 0
1, 135056, Note_on_c, 0, 68, 45
1, 135056, Note_on_c, 0, 60, 40
1, 135056, Note_on_c, 0, 39, 0
1, 135059, Note_on_c, 0, 51, 0
1, 135059, Note_on_c, 0, 44, 39
1, 135059, Note_on_c, 0, 51, 39
1, 135253, Note_on_c, 0, 60, 0
1, 135253, Note_on_c, 0, 68, 0
1, 135253, Note_on_c, 0, 68, 45
1, 135256, Note_on_c, 0, 60, 40
1, 135256, Note_on_c, 0, 51, 0
1, 135256, Note_on_c, 0, 44, 0
1, 135259, Note_on_c, 0, 44, 39
1, 135259, Note_on_c, 0, 51, 39
1, 136044, Note_on_c, 0, 75, 39
1, 136054, Control_c, 0, 64, 127
1, 136215, Note_on_c, 0, 75, 0
1, 136215, Note_on_c, 0, 60, 0
1, 136215, Note_on_c, 0, 68, 0
1, 136218, Note_on_c, 0, 75, 39
1, 136218, Note_on_c, 0, 51, 0
1, 136218, Note_on_c, 0, 44, 0
1, 136984, Control_c, 0, 64, 0
1, 137004, Note_on_c, 0, 63, 40
1, 137004, Note_on_c, 0, 68, 45
1, 137004, Note_on_c, 0, 60, 39
1, 137007, Note_on_c, 0, 51, 39
1, 137174, Note_on_c, 0, 68, 0
1, 137174, Note_on_c, 0, 63, 0
1, 137174, Note_on_c, 0, 68, 45
1, 137177, Note_on_c, 0, 63, 40
1, 137177, Note_on_c, 0, 51, 0
1, 137177, Note_on_c, 0, 60, 0
1, 137180, Note_on_c, 0, 51, 47
1, 137180, Note_on_c, 0, 60, 39
1, 137647, Note_on_c, 0, 65, 40
1, 137647, Note_on_c, 0, 70, 45
1, 137647, Note_on_c, 0, 51, 0
1, 137650, Note_on_c, 0, 61, 39
1, 137650, Note_on_c, 0, 51, 39
1, 137660, Note_on_c, 0, 63, 0
1, 137660, Note_on_c, 0, 68, 0
1, 137660, Note_on_c, 0, 60, 0
1, 137804, Note_on_c, 0, 63, 40
1, 137804, Note_on_c, 0, 68, 45
1, 137804, Note_on_c, 0, 51, 0
1, 137807, Note_on_c, 0, 51, 39
1, 137807, Note_on_c, 0, 60, 39
1, 137819, Note_on_c, 0, 70, 0
1, 137819, Note_on_c, 0, 65, 0
1, 137819, Note_on_c, 0, 61, 0
1, 138148, Note_on_c, 0, 68, 0
1, 138148, Note_on_c, 0, 63, 0
1, 138148, Note_on_c, 0, 70, 40
1, 138151, Note_on_c, 0, 65, 37
1, 138151, Note_on_c, 0, 60, 0
1, 138151, Note_on_c, 0, 51, 0
1, 138154, Note_on_c, 0, 61, 35
1, 138154, Note_on_c, 0, 51, 35
1, 138936, Note_on_c, 0, 75, 0
1, 138936, Note_on_c, 0, 75, 37
1, 138956, Control_c, 0, 64, 127
1, 139107, Note_on_c, 0, 75, 0
1, 139107, Note_on_c, 0, 75, 37
1, 139877, Control_c, 0, 64, 0
1, 139895, Note_on_c, 0, 65, 0
1, 139895, Note_on_c, 0, 70, 0
1, 139895, Note_on_c, 0, 67, 45
1, 139898, Note_on_c, 0, 61, 40
1, 139898, Note_on_c, 0, 51, 0
1, 139898, Note_on_c, 0, 61, 0
1, 139901, Note_on_c, 0, 51, 39
1, 139901, Note_on_c, 0, 58, 39
1, 140065, Note_on_c, 0, 61, 0
1, 140065, Note_on_c, 0, 67, 0
1, 140065, Note_on_c, 0, 61, 40
1, 140068, Note_on_c, 0, 67, 45
1, 140068, Note_on_c, 0, 58, 0
1, 140068, Note_on_c, 0, 51, 0
1, 140071, Note_on_c, 0, 58, 39
1, 140071, Note_on_c, 0, 51, 39
1, 140538, Note_on_c, 0, 68, 45
1, 140538, Note_on_c, 0, 63, 40
1, 140538, Note_on_c, 0, 51, 0
1, 140541, Note_on_c, 0, 60, 39
1, 140541, Note_on_c, 0, 51, 39
1, 140551, Note_on_c, 0, 67, 0
1, 140551, Note_on_c, 0, 61, 0
1, 140551, Note_on_c, 0, 58, 0
1, 140695, Note_on_c, 0, 70, 45
1, 140695, Note_on_c, 0, 65, 40
1, 140695, Note_on_c, 0, 51, 0
1, 140698, Note_on_c, 0, 61, 39
1, 140698, Note_on_c, 0, 51, 39
1, 140710, Note_on_c, 0, 63, 0
1, 140710, Note_on_c, 0, 68, 0
1, 140710, Note_on_c, 0, 60, 0
1, 141034, Note_on_c, 0, 65, 0
1, 141034, Note_on_c, 0, 70, 0
1, 141034, Note_on_c, 0, 68, 40
1, 141037, Note_on_c, 0, 63, 37
1, 141037, Note_on_c, 0, 51, 0
1, 141037, Note_on_c, 0, 61, 0
1, 141040, Note_on_c, 0, 51, 34
1, 141040, Note_on_c, 0, 60, 34
1, 141832, Note_on_c, 0, 75, 0
1, 141832, Note_on_c, 0, 75, 49
1, 141845, Control_c, 0, 64, 127
1, 142048, Note_on_c, 0, 75, 0
1, 142048, Note_on_c, 0, 75, 49
1, 142789, Control_c, 0, 64, 0
1, 142836, Note_on_c, 0, 63, 0
1, 142836, Note_on_c, 0, 68, 0
1, 142836, Note_on_c, 0, 63, 45
1, 142839, Note_on_c, 0, 60, 0
1, 142839, Note_on_c, 0, 51, 0
1, 142839, Note_on_c, 0, 51, 39
1, 142842, Note_on_c, 0, 60, 39
1, 143006, Note_on_c, 0, 63, 0
1, 143006, Note_on_c, 0, 63, 45
1, 143006, Note_on_c, 0, 60, 0
1, 143009, Note_on_c, 0, 51, 0
1, 143009, Note_on_c, 0, 51, 39
1, 143009, Note_on_c, 0, 60, 39
1, 143483, Note_on_c, 0, 65, 52
1, 143483, Note_on_c, 0, 51, 0
1, 143483, Note_on_c, 0, 51, 39
1, 143486, Note_on_c, 0, 61, 38
1, 143497, Note_on_c, 0, 63, 0
1, 143497, Note_on_c, 0, 60, 0
1, 143645, Note_on_c, 0, 63, 54
1, 143645, Note_on_c, 0, 51, 0
1, 143645, Note_on_c, 0, 60, 40
1, 143648, Note_on_c, 0, 51, 40
1, 143659, Note_on_c, 0, 65, 0
1, 143659, Note_on_c, 0, 61, 0
1, 143976, Note_on_c, 0, 63, 0
1, 143976, Note_on_c, 0, 65, 49
1, 143976, Note_on_c, 0, 68, 55
1, 143979, Note_on_c, 0, 51, 0
1, 143979, Note_on_c, 0, 60, 0
1, 143979, Note_on_c, 0, 51, 46
1, 143982, Note_on_c, 0, 61, 46
1, 144487, Note_on_c, 0, 63, 54
1, 144487, Note_on_c, 0, 51, 0
1, 144487, Note_on_c, 0, 60, 47
1, 144490, Note_on_c, 0, 51, 47
1, 144501, Note_on_c, 0, 68, 0
1, 144501, Note_on_c, 0, 65, 0
1, 144501, Note_on_c, 0, 61, 0
1, 144661, Note_on_c, 0, 63, 0
1, 144661, Note_on_c, 0, 63, 54
1, 144661, Note_on_c, 0, 51, 0
1, 144664, Note_on_c, 0, 60, 0
1, 144664, Note_on_c, 0, 51, 47
1, 144664, Note_on_c, 0, 60, 47
1, 145013, Note_on_c, 0, 63, 0
1, 145013, Note_on_c, 0, 75, 0
1, 145013, Note_on_c, 0, 72, 54
1, 145016, Note_on_c, 0, 75, 61
1, 145016, Note_on_c, 0, 60, 0
1, 145016, Note_on_c, 0, 51, 0
1, 145019, Note_on_c, 0, 63, 51
1, 145019, Note_on_c, 0, 51, 51
1, 145997, Note_on_c, 0, 75, 0
1, 145997, Note_on_c, 0, 72, 0
1, 145997, Note_on_c, 0, 70, 55
1, 146000, Note_on_c, 0, 79, 61
1, 146000, Note_on_c, 0, 75, 55
1, 146000, Note_on_c, 0, 51, 0
1, 146003, Note_on_c, 0, 63, 0
1, 146003, Note_on_c, 0, 63, 52
1, 146003, Note_on_c, 0, 51, 52
1, 146006, Note_on_c, 0, 61, 52
1, 146817, Note_on_c, 0, 75, 0
1, 146817, Note_on_c, 0, 79, 0
1, 146817, Note_on_c, 0, 70, 0
1, 146820, Note_on_c, 0, 80, 59
1, 146820, Note_on_c, 0, 68, 55
1, 146820, Note_on_c, 0, 75, 55
1, 146823, Note_on_c, 0, 61, 0
1, 146823, Note_on_c, 0, 51, 0
1, 146823, Note_on_c, 0, 63, 0
1, 146826, Note_on_c, 0, 56, 44
1, 146826, Note_on_c, 0, 63, 51
1, 146826, Note_on_c, 0, 60, 44
1, 146998, Note_on_c, 0, 75, 0
1, 146998, Note_on_c, 0, 68, 0
1, 146998, Note_on_c, 0, 80, 0
1, 147001, Note_on_c, 0, 75, 55
1, 147001, Note_on_c, 0, 68, 55
1, 147001, Note_on_c, 0, 80, 60
1, 147004, Note_on_c, 0, 60, 0
1, 147004, Note_on_c, 0, 63, 0
1, 147004, Note_on_c, 0, 56, 0
1, 147007, Note_on_c, 0, 56, 44
1, 147007, Note_on_c, 0, 63, 51
1, 147007, Note_on_c, 0, 60, 44
1, 149089, Note_on_c, 0, 80, 0
1, 149089, Note_on_c, 0, 68, 0
1, 149089, Note_on_c, 0, 75, 0
1, 149092, Note_on_c, 0, 78, 80
1, 149092, Note_on_c, 0, 81, 98
1, 149092, Note_on_c, 0, 69, 80
1, 149095, Note_on_c, 0, 60, 0
1, 149095, Note_on_c, 0, 63, 0
1, 149095, Note_on_c, 0, 56, 0
1, 149098, Note_on_c, 0, 42, 83
1, 149202, Note_on_c, 0, 69, 0
1, 149202, Note_on_c, 0, 81, 0
1, 149202, Note_on_c, 0, 78, 0
1, 149205, Note_on_c, 0, 81, 107
1, 149205, Note_on_c, 0, 69, 87
1, 149205, Note_on_c, 0, 78, 87
1, 149208, Control_c, 0, 91, 127
1, 149208, Note_on_c, 0, 42, 0
1, 149208, Note_on_c, 0, 42, 89
1, 149211, Control_c, 0, 91, 127
1, 149211, Control_c, 0, 64, 126
1, 149314, Note_on_c, 0, 42, 0
1, 149426, Note_on_c, 0, 49, 80
1, 149651, Note_on_c, 0, 49, 0
1, 149651, Note_on_c, 0, 57, 77
1, 149876, Note_on_c, 0, 78, 0
1, 149876, Note_on_c, 0, 69, 0
1, 149876, Note_on_c, 0, 81, 0
1, 149879, Note_on_c, 0, 78, 86
1, 149879, Note_on_c, 0, 81, 106
1, 149879, Note_on_c, 0, 69, 86
1, 149882, Note_on_c, 0, 57, 0
1, 149882, Note_on_c, 0, 42, 89
1, 149988, Note_on_c, 0, 42, 0
1, 150100, Note_on_c, 0, 49, 79
1, 150325, Note_on_c, 0, 49, 0
1, 150325, Note_on_c, 0, 57, 76
1, 150549, Note_on_c, 0, 69, 0
1, 150549, Note_on_c, 0, 81, 0
1, 150549, Note_on_c, 0, 78, 0
1, 150552, Note_on_c, 0, 82, 106
1, 150552, Note_on_c, 0, 70, 86
1, 150552, Note_on_c, 0, 76, 86
1, 150555, Note_on_c, 0, 57, 0
1, 150555, Note_on_c, 0, 42, 89
1, 150662, Note_on_c, 0, 42, 0
1, 150774, Note_on_c, 0, 49, 80
1, 150999, Note_on_c, 0, 49, 0
1, 150999, Note_on_c, 0, 54, 76
1, 151250, Note_on_c, 0, 76, 0
1, 151250, Note_on_c, 0, 70, 0
1, 151250, Note_on_c, 0, 82, 0
1, 151253, Note_on_c, 0, 83, 98
1, 151253, Note_on_c, 0, 71, 80
1, 151253, Note_on_c, 0, 74, 80
1, 151256, Note_on_c, 0, 54, 0
1, 151256, Control_c, 0, 64, 0
1, 151256, Note_on_c, 0, 42, 89
1, 151355, Control_c, 0, 64, 127
1, 151362, Note_on_c, 0, 42, 0
1, 151474, Note_on_c, 0, 50, 81
1, 151699, Note_on_c, 0, 50, 0
1, 151699, Note_on_c, 0, 59, 78
1, 151924, Note_on_c, 0, 59, 0
1, 151924, Note_on_c, 0, 42, 89
1, 152036, Note_on_c, 0, 42, 0
1, 152148, Note_on_c, 0, 50, 81
1, 152373, Note_on_c, 0, 50, 0
1, 152373, Note_on_c, 0, 59, 78
1, 152598, Note_on_c, 0, 59, 0
1, 152598, Note_on_c, 0, 42, 89
1, 152710, Note_on_c, 0, 42, 0
1, 152822, Note_on_c, 0, 50, 83
1, 153047, Note_on_c, 0, 50, 0
1, 153047, Note_on_c, 0, 59, 78
1, 153159, Note_on_c, 0, 74, 0
1, 153159, Note_on_c, 0, 71, 0
1, 153159, Note_on_c, 0, 83, 0
1, 153162, Note_on_c, 0, 74, 80
1, 153162, Note_on_c, 0, 83, 98
1, 153162, Note_on_c, 0, 71, 80
1, 153284, Note_on_c, 0, 71, 0
1, 153284, Note_on_c, 0, 83, 0
1, 153284, Note_on_c, 0, 74, 0
1, 153287, Note_on_c, 0, 73, 86
1, 153287, Note_on_c, 0, 85, 106
1, 153287, Note_on_c, 0, 76, 86
1, 153290, Note_on_c, 0, 59, 0
1, 153290, Note_on_c, 0, 42, 89
1, 153290, Control_c, 0, 64, 0
1, 153383, Control_c, 0, 64, 127
1, 153396, Note_on_c, 0, 42, 0
1, 153509, Note_on_c, 0, 47, 80
1, 153733, Note_on_c, 0, 47, 0
1, 153733, Note_on_c, 0, 56, 82
1, 153846, Note_on_c, 0, 76, 0
1, 153846, Note_on_c, 0, 85, 0
1, 153846, Note_on_c, 0, 73, 0
1, 153849, Note_on_c, 0, 74, 80
1, 153849, Note_on_c, 0, 71, 80
1, 153849, Note_on_c, 0, 83, 98
1, 153970, Note_on_c, 0, 83, 0
1, 153970, Note_on_c, 0, 71, 0
1, 153970, Note_on_c, 0, 74, 0
1, 153973, Note_on_c, 0, 74, 86
1, 153973, Note_on_c, 0, 71, 86
1, 153973, Note_on_c, 0, 83, 106
1, 153976, Note_on_c, 0, 56, 0
1, 153976, Note_on_c, 0, 42, 89
1, 153976, Control_c, 0, 64, 0
1, 154049, Control_c, 0, 64, 127
1, 154083, Note_on_c, 0, 42, 0
1, 154195, Note_on_c, 0, 49, 81
1, 154420, Note_on_c, 0, 49, 0
1, 154420, Note_on_c, 0, 57, 83
1, 154532, Note_on_c, 0, 83, 0
1, 154532, Note_on_c, 0, 71, 0
1, 154532, Note_on_c, 0, 74, 0
1, 154535, Note_on_c, 0, 73, 80
1, 154535, Note_on_c, 0, 81, 98
1, 154535, Note_on_c, 0, 69, 80
1, 154657, Note_on_c, 0, 69, 0
1, 154657, Note_on_c, 0, 81, 0
1, 154657, Note_on_c, 0, 73, 0
1, 154660, Note_on_c, 0, 81, 106
1, 154660, Note_on_c, 0, 69, 86
1, 154660, Note_on_c, 0, 73, 86
1, 154663, Note_on_c, 0, 57, 0
1, 154663, Note_on_c, 0, 42, 89
1, 154670, Control_c, 0, 64, 0
1, 154770, Note_on_c, 0, 42, 0
1, 154783, Control_c, 0, 64, 126
1, 154882, Note_on_c, 0, 50, 80
1, 155107, Note_on_c, 0, 50, 0
1, 155107, Note_on_c, 0, 59, 82
1, 155228, Note_on_c, 0, 73, 0
1, 155228, Note_on_c, 0, 69, 0
1, 155228, Note_on_c, 0, 81, 0
1, 155231, Note_on_c, 0, 80, 89
1, 155231, Note_on_c, 0, 68, 73
1, 155231, Note_on_c, 0, 71, 73
1, 155369, Note_on_c, 0, 71, 0
1, 155369, Note_on_c, 0, 68, 0
1, 155369, Note_on_c, 0, 80, 0
1, 155372, Note_on_c, 0, 69, 76
1, 155372, Note_on_c, 0, 73, 76
1, 155372, Note_on_c, 0, 81, 93
1, 155375, Note_on_c, 0, 59, 0
1, 155375, Note_on_c, 0, 42, 80
1, 155375, Control_c, 0, 64, 0
1, 155482, Note_on_c, 0, 42, 0
1, 155495, Control_c, 0, 64, 127
1, 155595, Note_on_c, 0, 49, 74
1, 155820, Note_on_c, 0, 49, 0
1, 155820, Note_on_c, 0, 57, 75
1, 156046, Note_on_c, 0, 57, 0
1, 156046, Note_on_c, 0, 42, 80
1, 156159, Note_on_c, 0, 42, 0
1, 156272, Note_on_c, 0, 49, 75
1, 156498, Note_on_c, 0, 49, 0
1, 156498, Note_on_c, 0, 57, 75
1, 156747, Note_on_c, 0, 81, 0
1, 156747, Note_on_c, 0, 73, 0
1, 156747, Note_on_c, 0, 69, 0
1, 156750, Note_on_c, 0, 73, 87
1, 156750, Note_on_c, 0, 85, 107
1, 156750, Note_on_c, 0, 57, 0
1, 156753, Note_on_c, 0, 45, 89
1, 156860, Note_on_c, 0, 45, 0
1, 156972, Note_on_c, 0, 49, 81
1, 157197, Note_on_c, 0, 49, 0
1, 157197, Note_on_c, 0, 54, 81
1, 157313, Note_on_c, 0, 85, 0
1, 157313, Note_on_c, 0, 73, 0
1, 157313, Note_on_c, 0, 81, 88
1, 157316, Note_on_c, 0, 78, 72
1, 157316, Note_on_c, 0, 69, 72
1, 157429, Note_on_c, 0, 69, 0
1, 157429, Note_on_c, 0, 78, 0
1, 157429, Note_on_c, 0, 81, 0
1, 157432, Note_on_c, 0, 80, 88
1, 157432, Note_on_c, 0, 68, 72
1, 157432, Note_on_c, 0, 77, 72
1, 157435, Note_on_c, 0, 54, 0
1, 157435, Note_on_c, 0, 49, 73
1, 157435, Control_c, 0, 64, 0
1, 157555, Control_c, 0, 64, 126
1, 157654, Note_on_c, 0, 49, 0
1, 157654, Note_on_c, 0, 53, 64
1, 157879, Note_on_c, 0, 53, 0
1, 157879, Note_on_c, 0, 56, 66
1, 158103, Note_on_c, 0, 56, 0
1, 158103, Note_on_c, 0, 49, 73
1, 158328, Note_on_c, 0, 49, 0
1, 158328, Note_on_c, 0, 53, 64
1, 158553, Note_on_c, 0, 53, 0
1, 158553, Note_on_c, 0, 56, 67
1, 158792, Note_on_c, 0, 77, 0
1, 158792, Note_on_c, 0, 68, 0
1, 158792, Note_on_c, 0, 80, 0
1, 158795, Note_on_c, 0, 90, 109
1, 158795, Note_on_c, 0, 78, 89
1, 158795, Note_on_c, 0, 81, 89
1, 158798, Note_on_c, 0, 56, 0
1, 158798, Note_on_c, 0, 45, 89
1, 158798, Control_c, 0, 64, 0
1, 158884, Control_c, 0, 64, 126
1, 159016, Note_on_c, 0, 45, 0
1, 159016, Note_on_c, 0, 49, 73
1, 159241, Note_on_c, 0, 49, 0
1, 159241, Note_on_c, 0, 54, 73
1, 159353, Note_on_c, 0, 81, 0
1, 159353, Note_on_c, 0, 78, 0
1, 159353, Note_on_c, 0, 90, 0
1, 159356, Note_on_c, 0, 69, 66
1, 159356, Note_on_c, 0, 81, 80
1, 159356, Note_on_c, 0, 78, 66
1, 159485, Note_on_c, 0, 78, 0
1, 159485, Note_on_c, 0, 81, 0
1, 159485, Note_on_c, 0, 69, 0
1, 159488, Note_on_c, 0, 68, 66
1, 159488, Note_on_c, 0, 80, 80
1, 159488, Note_on_c, 0, 77, 66
1, 159491, Note_on_c, 0, 54, 0
1, 159491, Note_on_c, 0, 49, 80
1, 159491, Control_c, 0, 64, 0
1, 159611, Control_c, 0, 64, 126
1, 159710, Note_on_c, 0, 49, 0
1, 159710, Note_on_c, 0, 53, 72
1, 159935, Note_on_c, 0, 53, 0
1, 159935, Note_on_c, 0, 56, 68
1, 160159, Note_on_c, 0, 56, 0
1, 160159, Note_on_c, 0, 50, 72
1, 160166, Control_c, 0, 64, 0
1, 160384, Note_on_c, 0, 77, 0
1, 160384, Note_on_c, 0, 80, 0
1, 160384, Note_on_c, 0, 68, 0
1, 160387, Note_on_c, 0, 71, 80
1, 160387, Note_on_c, 0, 56, 69
1, 160613, Note_on_c, 0, 71, 0
1, 160613, Note_on_c, 0, 69, 73
1, 160613, Note_on_c, 0, 56, 0
1, 160616, Note_on_c, 0, 54, 69
1, 160852, Note_on_c, 0, 69, 0
1, 160852, Note_on_c, 0, 68, 68
1, 160852, Note_on_c, 0, 54, 0
1, 160855, Note_on_c, 0, 53, 70
1, 161099, Note_on_c, 0, 68, 0
1, 161099, Note_on_c, 0, 69, 65
1, 161099, Note_on_c, 0, 53, 0
1, 161102, Note_on_c, 0, 54, 65
1, 161227, Note_on_c, 0, 50, 0
1, 161358, Note_on_c, 0, 69, 0
1, 161358, Note_on_c, 0, 71, 63
1, 161358, Note_on_c, 0, 54, 0
1, 161361, Note_on_c, 0, 56, 60
1, 161361, Note_on_c, 0, 49, 60
1, 161611, Note_on_c, 0, 71, 0
1, 161611, Note_on_c, 0, 73, 61
1, 161611, Control_c, 0, 91, 127
1, 161614, Note_on_c, 0, 49, 0
1, 161614, Note_on_c, 0, 56, 0
1, 161614, Note_on_c, 0, 42, 54
1, 161617, Control_c, 0, 91, 127
1, 161729, Control_c, 0, 64, 127
1, 161852, Note_on_c, 0, 42, 0
1, 161852, Note_on_c, 0, 49, 50
1, 162083, Note_on_c, 0, 49, 0
1, 162083, Note_on_c, 0, 57, 50
1, 162315, Note_on_c, 0, 73, 0
1, 162315, Note_on_c, 0, 73, 61
1, 162315, Note_on_c, 0, 57, 0
1, 162318, Note_on_c, 0, 42, 52
1, 162328, Control_c, 0, 64, 0
1, 162453, Control_c, 0, 64, 125
1, 162549, Note_on_c, 0, 42, 0
1, 162549, Note_on_c, 0, 47, 49
1, 162784, Note_on_c, 0, 47, 0
1, 162784, Note_on_c, 0, 56, 49
1, 163020, Note_on_c, 0, 73, 0
1, 163020, Note_on_c, 0, 73, 62
1, 163020, Note_on_c, 0, 56, 0
1, 163023, Note_on_c, 0, 42, 51
1, 163034, Control_c, 0, 64, 0
1, 163201, Control_c, 0, 64, 126
1, 163257, Note_on_c, 0, 42, 0
1, 163257, Note_on_c, 0, 45, 48
1, 163494, Note_on_c, 0, 45, 0
1, 163494, Note_on_c, 0, 54, 48
1, 163742, Note_on_c, 0, 73, 0
1, 163742, Note_on_c, 0, 74, 70
1, 163742, Note_on_c, 0, 54, 0
1, 163745, Note_on_c, 0, 40, 51
1, 163750, Control_c, 0, 64, 0
1, 163868, Control_c, 0, 64, 127
1, 163979, Note_on_c, 0, 40, 0
1, 163979, Note_on_c, 0, 47, 50
1, 164215, Note_on_c, 0, 47, 0
1, 164215, Note_on_c, 0, 56, 50
1, 164452, Note_on_c, 0, 56, 0
1, 164452, Note_on_c, 0, 40, 54
1, 164688, Note_on_c, 0, 40, 0
1, 164688, Note_on_c, 0, 47, 50
1, 164925, Note_on_c, 0, 47, 0
1, 164925, Note_on_c, 0, 56, 54
1, 165161, Note_on_c, 0, 56, 0
1, 165161, Note_on_c, 0, 40, 54
1, 165398, Note_on_c, 0, 40, 0
1, 165398, Note_on_c, 0, 47, 51
1, 165634, Note_on_c, 0, 47, 0
1, 165634, Note_on_c, 0, 56, 49
1, 165752, Note_on_c, 0, 74, 51
1, 165871, Note_on_c, 0, 74, 0
1, 165871, Note_on_c, 0, 74, 0
1, 165871, Note_on_c, 0, 78, 51
1, 165874, Note_on_c, 0, 56, 0
1, 165874, Note_on_c, 0, 40, 45
1, 165874, Control_c, 0, 64, 0
1, 166037, Control_c, 0, 64, 126
1, 166107, Note_on_c, 0, 40, 0
1, 166107, Note_on_c, 0, 47, 44
1, 166344, Note_on_c, 0, 78, 0
1, 166344, Note_on_c, 0, 74, 51
1, 166344, Note_on_c, 0, 47, 0
1, 166347, Note_on_c, 0, 56, 44
1, 166593, Note_on_c, 0, 74, 0
1, 166593, Note_on_c, 0, 74, 51
1, 166593, Note_on_c, 0, 56, 0
1, 166596, Note_on_c, 0, 40, 44
1, 166603, Control_c, 0, 64, 0
1, 166732, Control_c, 0, 64, 126
1, 166830, Note_on_c, 0, 40, 0
1, 166830, Note_on_c, 0, 49, 43
1, 167066, Note_on_c, 0, 74, 0
1, 167066, Note_on_c, 0, 73, 51
1, 167066, Note_on_c, 0, 49, 0
1, 167069, Note_on_c, 0, 57, 44
1, 167317, Note_on_c, 0, 73, 0
1, 167317, Note_on_c, 0, 73, 51
1, 167317, Note_on_c, 0, 57, 0
1, 167320, Note_on_c, 0, 40, 44
1, 167330, Control_c, 0, 64, 0
1, 167470, Control_c, 0, 64, 126
1, 167554, Note_on_c, 0, 40, 0
1, 167554, Note_on_c, 0, 50, 43
1, 167790, Note_on_c, 0, 73, 0
1, 167790, Note_on_c, 0, 71, 54
1, 167790, Note_on_c, 0, 50, 0
1, 167793, Note_on_c, 0, 56, 43
1, 168040, Note_on_c, 0, 71, 0
1, 168040, Note_on_c, 0, 73, 54
1, 168040, Note_on_c, 0, 56, 0
1, 168043, Note_on_c, 0, 45, 44
1, 168046, Control_c, 0, 64, 0
1, 168192, Control_c, 0, 64, 127
1, 168276, Note_on_c, 0, 45, 0
1, 168276, Note_on_c, 0, 49, 44
1, 168513, Note_on_c, 0, 49, 0
1, 168513, Note_on_c, 0, 57, 44
1, 168749, Note_on_c, 0, 57, 0
1, 168749, Note_on_c, 0, 45, 45
1, 168761, Control_c, 0, 64, 0
1, 168943, Control_c, 0, 64, 127
1, 168985, Note_on_c, 0, 45, 0
1, 168985, Note_on_c, 0, 49, 44
1, 169222, Note_on_c, 0, 49, 0
1, 169222, Note_on_c, 0, 56, 43
1, 169458, Note_on_c, 0, 73, 0
1, 169458, Note_on_c, 0, 73, 62
1, 169458, Note_on_c, 0, 56, 0
1, 169461, Note_on_c, 0, 45, 52
1, 169472, Control_c, 0, 64, 0
1, 169681, Control_c, 0, 64, 125
1, 169695, Note_on_c, 0, 45, 0
1, 169695, Note_on_c, 0, 49, 48
1, 169931, Note_on_c, 0, 73, 0
1, 169931, Note_on_c, 0, 69, 62
1, 169931, Note_on_c, 0, 49, 0
1, 169934, Note_on_c, 0, 54, 47
1, 170168, Note_on_c, 0, 69, 0
1, 170168, Note_on_c, 0, 68, 62
1, 170168, Note_on_c, 0, 54, 0
1, 170171, Note_on_c, 0, 47, 52
1, 170171, Control_c, 0, 64, 0
1, 170325, Control_c, 0, 64, 127
1, 170404, Note_on_c, 0, 47, 0
1, 170404, Note_on_c, 0, 50, 49
1, 170641, Note_on_c, 0, 50, 0
1, 170641, Note_on_c, 0, 54, 49
1, 170877, Note_on_c, 0, 54, 0
1, 170877, Note_on_c, 0, 50, 54
1, 171114, Note_on_c, 0, 50, 0
1, 171114, Note_on_c, 0, 54, 50
1, 171350, Note_on_c, 0, 54, 0
1, 171350, Note_on_c, 0, 59, 50
1, 171587, Note_on_c, 0, 68, 0
1, 171587, Note_on_c, 0, 71, 57
1, 171587, Note_on_c, 0, 59, 0
1, 171590, Note_on_c, 0, 49, 49
1, 171593, Control_c, 0, 64, 0
1, 171824, Note_on_c, 0, 71, 0
1, 171824, Note_on_c, 0, 69, 54
1, 171824, Note_on_c, 0, 49, 0
1, 171827, Note_on_c, 0, 53, 48
1, 172070, Note_on_c, 0, 69, 0
1, 172070, Note_on_c, 0, 68, 46
1, 172070, Note_on_c, 0, 53, 0
1, 172073, Note_on_c, 0, 59, 40
1, 172323, Note_on_c, 0, 68, 0
1, 172323, Note_on_c, 0, 73, 55
1, 172323, Note_on_c, 0, 59, 0
1, 172326, Note_on_c, 0, 45, 52
1, 172421, Control_c, 0, 64, 126
1, 172560, Note_on_c, 0, 45, 0
1, 172560, Note_on_c, 0, 49, 46
1, 172796, Note_on_c, 0, 49, 0
1, 172796, Note_on_c, 0, 54, 47
1, 173033, Note_on_c, 0, 54, 0
1, 173033, Note_on_c, 0, 44, 47
1, 173046, Control_c, 0, 64, 0
1, 173144, Control_c, 0, 64, 127
1, 173269, Note_on_c, 0, 44, 0
1, 173269, Note_on_c, 0, 47, 47
1, 173506, Note_on_c, 0, 47, 0
1, 173506, Note_on_c, 0, 54, 47
1, 173637, Note_on_c, 0, 73, 0
1, 173637, Note_on_c, 0, 73, 62
1, 173768, Note_on_c, 0, 73, 0
1, 173768, Note_on_c, 0, 78, 80
1, 173768, Note_on_c, 0, 54, 0
1, 173771, Note_on_c, 0, 46, 54
1, 173776, Control_c, 0, 64, 0
1, 173851, Control_c, 0, 64, 127
1, 174005, Note_on_c, 0, 46, 0
1, 174005, Note_on_c, 0, 49, 50
1, 174241, Note_on_c, 0, 78, 0
1, 174241, Note_on_c, 0, 70, 72
1, 174241, Note_on_c, 0, 49, 0
1, 174244, Note_on_c, 0, 54, 50
1, 174478, Note_on_c, 0, 70, 0
1, 174478, Note_on_c, 0, 68, 72
1, 174478, Note_on_c, 0, 54, 0
1, 174481, Note_on_c, 0, 47, 54
1, 174485, Control_c, 0, 64, 0
1, 174714, Note_on_c, 0, 47, 0
1, 174714, Control_c, 0, 64, 127
1, 174714, Note_on_c, 0, 51, 51
1, 174951, Note_on_c, 0, 51, 0
1, 174951, Note_on_c, 0, 54, 50
1, 175187, Note_on_c, 0, 54, 0
1, 175187, Note_on_c, 0, 48, 54
1, 175423, Note_on_c, 0, 68, 0
1, 175423, Note_on_c, 0, 70, 71
1, 175423, Note_on_c, 0, 48, 0
1, 175426, Note_on_c, 0, 54, 51
1, 175660, Note_on_c, 0, 70, 0
1, 175660, Note_on_c, 0, 68, 71
1, 175660, Note_on_c, 0, 54, 0
1, 175663, Note_on_c, 0, 56, 50
1, 175896, Note_on_c, 0, 68, 0
1, 175896, Note_on_c, 0, 71, 70
1, 175896, Note_on_c, 0, 56, 0
1, 175899, Note_on_c, 0, 49, 49
1, 175907, Control_c, 0, 64, 0
1, 176133, Note_on_c, 0, 71, 0
1, 176133, Note_on_c, 0, 70, 67
1, 176133, Note_on_c, 0, 49, 0
1, 176136, Note_on_c, 0, 53, 49
1, 176369, Note_on_c, 0, 70, 0
1, 176369, Note_on_c, 0, 68, 67
1, 176369, Note_on_c, 0, 53, 0
1, 176372, Note_on_c, 0, 59, 47
1, 176607, Note_on_c, 0, 68, 0
1, 176607, Note_on_c, 0, 66, 72
1, 176607, Note_on_c, 0, 59, 0
1, 176610, Note_on_c, 0, 58, 44
1, 176610, Note_on_c, 0, 54, 44
1, 176847, Note_on_c, 0, 54, 0
1, 176847, Note_on_c, 0, 58, 0
1, 176847, Note_on_c, 0, 42, 41
1, 177087, Note_on_c, 0, 42, 0
1, 177087, Note_on_c, 0, 46, 44
1, 177327, Note_on_c, 0, 46, 0
1, 177327, Note_on_c, 0, 49, 45
1, 177568, Note_on_c, 0, 49, 0
1, 177568, Note_on_c, 0, 54, 47
1, 177808, Note_on_c, 0, 54, 0
1, 177808, Note_on_c, 0, 56, 49
1, 178048, Note_on_c, 0, 66, 0
1, 178048, Note_on_c, 0, 56, 0
1, 178048, Note_on_c, 0, 58, 51
1, 178288, Note_on_c, 0, 58, 0
1, 178288, Note_on_c, 0, 61, 55
1, 178529, Note_on_c, 0, 61, 0
1, 178529, Note_on_c, 0, 54, 55
1, 178769, Note_on_c, 0, 73, 55
1, 178769, Note_on_c, 0, 54, 0
1, 178769, Note_on_c, 0, 53, 54
1, 178906, Control_c, 0, 64, 127
1, 179009, Note_on_c, 0, 53, 0
1, 179009, Note_on_c, 0, 56, 45
1, 179249, Note_on_c, 0, 56, 0
1, 179249, Note_on_c, 0, 61, 45
1, 179490, Note_on_c, 0, 73, 0
1, 179490, Note_on_c, 0, 73, 55
1, 179490, Note_on_c, 0, 61, 0
1, 179493, Note_on_c, 0, 53, 46
1, 179730, Note_on_c, 0, 53, 0
1, 179730, Note_on_c, 0, 56, 46
1, 179970, Note_on_c, 0, 56, 0
1, 179970, Note_on_c, 0, 61, 46
1, 180210, Note_on_c, 0, 73, 0
1, 180210, Note_on_c, 0, 73, 54
1, 180210, Note_on_c, 0, 61, 0
1, 180213, Note_on_c, 0, 53, 46
1, 180451, Note_on_c, 0, 53, 0
1, 180451, Note_on_c, 0, 56, 46
1, 180692, Note_on_c, 0, 56, 0
1, 180692, Note_on_c, 0, 61, 46
1, 180950, Note_on_c, 0, 73, 0
1, 180950, Note_on_c, 0, 73, 56
1, 180950, Note_on_c, 0, 61, 0
1, 180953, Note_on_c, 0, 52, 46
1, 180953, Control_c, 0, 64, 0
1, 181048, Control_c, 0, 64, 126
1, 181189, Note_on_c, 0, 52, 0
1, 181189, Note_on_c, 0, 56, 44
1, 181428, Note_on_c, 0, 56, 0
1, 181428, Note_on_c, 0, 61, 45
1, 181667, Note_on_c, 0, 73, 0
1, 181667, Note_on_c, 0, 73, 54
1, 181667, Note_on_c, 0, 61, 0
1, 181670, Note_on_c, 0, 52, 45
1, 181906, Note_on_c, 0, 52, 0
1, 181906, Note_on_c, 0, 56, 44
1, 182145, Note_on_c, 0, 56, 0
1, 182145, Note_on_c, 0, 61, 44
1, 182384, Note_on_c, 0, 73, 0
1, 182384, Note_on_c, 0, 73, 54
1, 182384, Note_on_c, 0, 61, 0
1, 182387, Note_on_c, 0, 52, 45
1, 182623, Note_on_c, 0, 52, 0
1, 182623, Note_on_c, 0, 56, 46
1, 182863, Note_on_c, 0, 56, 0
1, 182863, Note_on_c, 0, 61, 48
1, 182989, Note_on_c, 0, 73, 0
1, 182989, Note_on_c, 0, 73, 45
1, 183116, Note_on_c, 0, 73, 0
1, 183116, Note_on_c, 0, 76, 62
1, 183116, Note_on_c, 0, 61, 0
1, 183119, Note_on_c, 0, 51, 52
1, 183119, Control_c, 0, 64, 0
1, 183298, Control_c, 0, 64, 127
1, 183354, Note_on_c, 0, 51, 0
1, 183354, Note_on_c, 0, 55, 51
1, 183592, Note_on_c, 0, 76, 0
1, 183592, Note_on_c, 0, 75, 57
1, 183592, Note_on_c, 0, 55, 0
1, 183595, Note_on_c, 0, 61, 52
1, 183829, Note_on_c, 0, 75, 0
1, 183829, Note_on_c, 0, 75, 56
1, 183829, Note_on_c, 0, 61, 0
1, 183832, Note_on_c, 0, 51, 51
1, 184068, Note_on_c, 0, 75, 0
1, 184068, Note_on_c, 0, 75, 55
1, 184068, Note_on_c, 0, 51, 0
1, 184071, Note_on_c, 0, 55, 50
1, 184316, Note_on_c, 0, 75, 0
1, 184316, Note_on_c, 0, 75, 54
1, 184316, Note_on_c, 0, 55, 0
1, 184319, Note_on_c, 0, 61, 49
1, 184575, Note_on_c, 0, 75, 0
1, 184575, Note_on_c, 0, 75, 52
1, 184575, Note_on_c, 0, 61, 0
1, 184578, Note_on_c, 0, 51, 48
1, 184844, Note_on_c, 0, 75, 0
1, 184844, Note_on_c, 0, 75, 51
1, 184844, Note_on_c, 0, 51, 0
1, 184847, Note_on_c, 0, 55, 46
1, 185126, Note_on_c, 0, 75, 0
1, 185126, Note_on_c, 0, 75, 50
1, 185126, Note_on_c, 0, 55, 0
1, 185129, Note_on_c, 0, 61, 45
1, 185421, Note_on_c, 0, 75, 0
1, 185421, Note_on_c, 0, 75, 49
1, 185421, Note_on_c, 0, 61, 0
1, 185424, Note_on_c, 0, 55, 43
1, 185424, Note_on_c, 0, 51, 43
1, 185450, Control_c, 0, 64, 0
1, 185746, Note_on_c, 0, 58, 39
1, 186131, Note_on_c, 0, 58, 0
1, 186131, Note_on_c, 0, 60, 36
1, 186605, Note_on_c, 0, 60, 0
1, 186605, Note_on_c, 0, 61, 32
1, 188644, Note_on_c, 0, 75, 0
1, 188644, Note_on_c, 0, 72, 40
1, 188644, Control_c, 0, 91, 127
1, 188647, Note_on_c, 0, 68, 37
1, 188647, Note_on_c, 0, 60, 37
1, 188647, Note_on_c, 0, 61, 0
1, 188650, Note_on_c, 0, 51, 0
1, 188650, Note_on_c, 0, 55, 0
1, 188650, Control_c, 0, 91, 127
1, 188653, Note_on_c, 0, 51, 34
1, 188653, Note_on_c, 0, 44, 30
1, 189118, Note_on_c, 0, 67, 37
1, 189118, Note_on_c, 0, 73, 40
1, 189118, Note_on_c, 0, 61, 37
1, 189121, Note_on_c, 0, 51, 0
1, 189121, Note_on_c, 0, 46, 30
1, 189121, Note_on_c, 0, 51, 34
1, 189131, Note_on_c, 0, 60, 0
1, 189131, Note_on_c, 0, 72, 0
1, 189131, Note_on_c, 0, 68, 0
1, 189134, Note_on_c, 0, 44, 0
1, 189275, Note_on_c, 0, 72, 40
1, 189275, Note_on_c, 0, 60, 37
1, 189275, Note_on_c, 0, 68, 37
1, 189278, Note_on_c, 0, 51, 0
1, 189278, Note_on_c, 0, 51, 34
1, 189278, Note_on_c, 0, 44, 30
1, 189290, Note_on_c, 0, 67, 0
1, 189290, Note_on_c, 0, 61, 0
1, 189290, Note_on_c, 0, 73, 0
1, 189293, Note_on_c, 0, 46, 0
1, 189639, Note_on_c, 0, 72, 0
1, 189639, Note_on_c, 0, 60, 0
1, 189639, Note_on_c, 0, 68, 0
1, 189642, Note_on_c, 0, 73, 32
1, 189642, Note_on_c, 0, 61, 29
1, 189642, Note_on_c, 0, 67, 29
1, 189645, Note_on_c, 0, 44, 0
1, 189645, Note_on_c, 0, 51, 0
1, 189645, Note_on_c, 0, 46, 25
1, 189648, Note_on_c, 0, 51, 28
1, 191515, Note_on_c, 0, 67, 0
1, 191515, Note_on_c, 0, 61, 0
1, 191515, Note_on_c, 0, 73, 0
1, 191518, Note_on_c, 0, 60, 40
1, 191518, Note_on_c, 0, 68, 40
1, 191518, Note_on_c, 0, 72, 45
1, 191521, Note_on_c, 0, 51, 0
1, 191521, Note_on_c, 0, 46, 0
1, 191521, Note_on_c, 0, 51, 39
1, 191524, Note_on_c, 0, 44, 34
1, 192012, Note_on_c, 0, 63, 45
1, 192012, Note_on_c, 0, 75, 49
1, 192012, Note_on_c, 0, 51, 0
1, 192015, Note_on_c, 0, 48, 34
1, 192015, Note_on_c, 0, 51, 39
1, 192026, Note_on_c, 0, 72, 0
1, 192026, Note_on_c, 0, 60, 0
1, 192026, Note_on_c, 0, 68, 0
1, 192029, Note_on_c, 0, 44, 0
1, 192190, Note_on_c, 0, 68, 40
1, 192190, Note_on_c, 0, 72, 45
1, 192190, Note_on_c, 0, 60, 40
1, 192193, Note_on_c, 0, 51, 0
1, 192193, Note_on_c, 0, 44, 34
1, 192193, Note_on_c, 0, 51, 39
1, 192209, Note_on_c, 0, 63, 0
1, 192209, Note_on_c, 0, 75, 0
1, 192209, Note_on_c, 0, 48, 0
1, 192639, Note_on_c, 0, 72, 0
1, 192639, Note_on_c, 0, 68, 0
1, 192639, Note_on_c, 0, 60, 0
1, 192642, Note_on_c, 0, 70, 38
1, 192642, Note_on_c, 0, 58, 35
1, 192642, Note_on_c, 0, 67, 35
1, 192645, Note_on_c, 0, 51, 0
1, 192645, Note_on_c, 0, 44, 0
1, 192645, Note_on_c, 0, 51, 33
1, 192648, Note_on_c, 0, 39, 29
1, 194515, Note_on_c, 0, 67, 0
1, 194515, Note_on_c, 0, 58, 0
1, 194515, Note_on_c, 0, 70, 0
1, 194518, Note_on_c, 0, 72, 44
1, 194518, Note_on_c, 0, 60, 39
1, 194518, Note_on_c, 0, 68, 39
1, 194521, Note_on_c, 0, 39, 0
1, 194521, Note_on_c, 0, 51, 0
1, 194521, Note_on_c, 0, 44, 33
1, 194524, Note_on_c, 0, 51, 38
1, 194984, Note_on_c, 0, 61, 39
1, 194984, Note_on_c, 0, 67, 39
1, 194984, Note_on_c, 0, 73, 44
1, 194987, Note_on_c, 0, 51, 0
1, 194987, Note_on_c, 0, 51, 39
1, 194987, Note_on_c, 0, 46, 34
1, 194997, Note_on_c, 0, 68, 0
1, 194997, Note_on_c, 0, 72, 0
1, 194997, Note_on_c, 0, 60, 0
1, 195000, Note_on_c, 0, 44, 0
1, 195140, Note_on_c, 0, 60, 39
1, 195140, Note_on_c, 0, 72, 44
1, 195140, Note_on_c, 0, 68, 39
1, 195143, Note_on_c, 0, 51, 0
1, 195143, Note_on_c, 0, 44, 34
1, 195143, Note_on_c, 0, 51, 39
1, 195153, Note_on_c, 0, 61, 0
1, 195153, Note_on_c, 0, 73, 0
1, 195153, Note_on_c, 0, 67, 0
1, 195156, Note_on_c, 0, 46, 0
1, 195453, Note_on_c, 0, 60, 0
1, 195453, Note_on_c, 0, 72, 0
1, 195453, Note_on_c, 0, 68, 0
1, 195456, Note_on_c, 0, 68, 37
1, 195456, Note_on_c, 0, 60, 37
1, 195456, Note_on_c, 0, 72, 40
1, 195459, Note_on_c, 0, 51, 0
1, 195459, Note_on_c, 0, 44, 0
1, 195459, Note_on_c, 0, 51, 35
1, 195462, Note_on_c, 0, 44, 31
1, 195922, Note_on_c, 0, 68, 49
1, 195922, Note_on_c, 0, 65, 49
1, 195922, Note_on_c, 0, 77, 54
1, 195925, Note_on_c, 0, 51, 0
1, 195925, Note_on_c, 0, 49, 38
1, 195925, Note_on_c, 0, 51, 43
1, 195935, Note_on_c, 0, 72, 0
1, 195935, Note_on_c, 0, 68, 0
1, 195935, Note_on_c, 0, 60, 0
1, 195938, Note_on_c, 0, 44, 0
1, 196078, Note_on_c, 0, 75, 57
1, 196078, Note_on_c, 0, 68, 51
1, 196078, Note_on_c, 0, 63, 51
1, 196081, Note_on_c, 0, 51, 0
1, 196081, Note_on_c, 0, 48, 41
1, 196081, Note_on_c, 0, 51, 47
1, 196094, Note_on_c, 0, 68, 0
1, 196094, Note_on_c, 0, 77, 0
1, 196094, Note_on_c, 0, 65, 0
1, 196097, Note_on_c, 0, 49, 0
1, 196462, Note_on_c, 0, 75, 0
1, 196462, Note_on_c, 0, 68, 0
1, 196462, Note_on_c, 0, 63, 0
1, 196465, Note_on_c, 0, 75, 61
1, 196465, Note_on_c, 0, 63, 56
1, 196465, Note_on_c, 0, 68, 56
1, 196468, Note_on_c, 0, 51, 0
1, 196468, Note_on_c, 0, 48, 0
1, 196468, Note_on_c, 0, 51, 52
1, 196471, Note_on_c, 0, 48, 45
1, 197246, Note_on_c, 0, 68, 0
1, 197246, Note_on_c, 0, 63, 0
1, 197246, Note_on_c, 0, 75, 0
1, 197249, Note_on_c, 0, 75, 62
1, 197249, Note_on_c, 0, 63, 57
1, 197402, Note_on_c, 0, 63, 0
1, 197402, Note_on_c, 0, 75, 0
1, 197402, Note_on_c, 0, 67, 57
1, 197405, Note_on_c, 0, 61, 57
1, 197405, Note_on_c, 0, 73, 62
1, 197405, Note_on_c, 0, 48, 0
1, 197408, Note_on_c, 0, 51, 0
1, 197408, Note_on_c, 0, 46, 47
1, 197408, Note_on_c, 0, 51, 54
1, 198184, Note_on_c, 0, 73, 0
1, 198184, Note_on_c, 0, 61, 0
1, 198184, Note_on_c, 0, 67, 0
1, 198187, Note_on_c, 0, 68, 34
1, 198187, Note_on_c, 0, 60, 34
1, 198187, Note_on_c, 0, 72, 37
1, 198190, Note_on_c, 0, 51, 0
1, 198190, Note_on_c, 0, 46, 0
1, 198190, Note_on_c, 0, 51, 33
1, 198193, Note_on_c, 0, 44, 29
1, 198382, Note_on_c, 0, 72, 0
1, 198382, Note_on_c, 0, 60, 0
1, 198382, Note_on_c, 0, 68, 0
1, 198385, Note_on_c, 0, 68, 34
1, 198385, Note_on_c, 0, 72, 37
1, 198385, Note_on_c, 0, 60, 34
1, 198388, Note_on_c, 0, 44, 0
1, 198388, Note_on_c, 0, 51, 0
1, 198388, Note_on_c, 0, 44, 28
1, 198391, Note_on_c, 0, 51, 32
1, 200258, Note_on_c, 0, 60, 0
1, 200258, Note_on_c, 0, 72, 0
1, 200258, Note_on_c, 0, 68, 0
1, 200261, Note_on_c, 0, 70, 54
1, 200261, Note_on_c, 0, 58, 49
1, 200261, Note_on_c, 0, 67, 49
1, 200264, Note_on_c, 0, 51, 0
1, 200264, Note_on_c, 0, 44, 0
1, 200264, Note_on_c, 0, 51, 46
1, 200267, Note_on_c, 0, 39, 40
1, 200727, Note_on_c, 0, 68, 49
1, 200727, Note_on_c, 0, 59, 49
1, 200727, Note_on_c, 0, 71, 54
1, 200730, Note_on_c, 0, 51, 0
1, 200730, Note_on_c, 0, 44, 41
1, 200730, Note_on_c, 0, 51, 47
1, 200740, Note_on_c, 0, 67, 0
1, 200740, Note_on_c, 0, 70, 0
1, 200740, Note_on_c, 0, 58, 0
1, 200743, Note_on_c, 0, 39, 0
1, 200883, Note_on_c, 0, 58, 49
1, 200883, Note_on_c, 0, 67, 49
1, 200883, Note_on_c, 0, 70, 54
1, 200886, Note_on_c, 0, 51, 0
1, 200886, Note_on_c, 0, 51, 47
1, 200886, Note_on_c, 0, 39, 41
1, 200896, Note_on_c, 0, 68, 0
1, 200896, Note_on_c, 0, 71, 0
1, 200896, Note_on_c, 0, 59, 0
1, 200899, Note_on_c, 0, 44, 0
1, 201196, Note_on_c, 0, 58, 0
1, 201196, Note_on_c, 0, 67, 0
1, 201196, Note_on_c, 0, 70, 0
1, 201199, Note_on_c, 0, 58, 49
1, 201199, Note_on_c, 0, 70, 54
1, 201199, Note_on_c, 0, 67, 49
1, 201202, Note_on_c, 0, 39, 0
1, 201202, Note_on_c, 0, 51, 0
1, 201202, Note_on_c, 0, 39, 41
1, 201205, Note_on_c, 0, 51, 47
1, 201665, Note_on_c, 0, 71, 54
1, 201665, Note_on_c, 0, 59, 49
1, 201665, Note_on_c, 0, 68, 49
1, 201668, Note_on_c, 0, 51, 0
1, 201668, Note_on_c, 0, 51, 46
1, 201668, Note_on_c, 0, 44, 40
1, 201678, Note_on_c, 0, 67, 0
1, 201678, Note_on_c, 0, 58, 0
1, 201678, Note_on_c, 0, 70, 0
1, 201681, Note_on_c, 0, 39, 0
1, 201821, Note_on_c, 0, 67, 49
1, 201821, Note_on_c, 0, 58, 49
1, 201821, Note_on_c, 0, 70, 54
1, 201824, Note_on_c, 0, 51, 0
1, 201824, Note_on_c, 0, 39, 40
1, 201824, Note_on_c, 0, 51, 46
1, 201838, Note_on_c, 0, 71, 0
1, 201838, Note_on_c, 0, 68, 0
1, 201838, Note_on_c, 0, 59, 0
1, 201841, Note_on_c, 0, 44, 0
1, 202228, Note_on_c, 0, 67, 0
1, 202228, Note_on_c, 0, 58, 0
1, 202228, Note_on_c, 0, 70, 0
1, 202231, Note_on_c, 0, 68, 66
1, 202231, Note_on_c, 0, 71, 72
1, 202231, Note_on_c, 0, 65, 66
1, 202234, Note_on_c, 0, 51, 0
1, 202234, Note_on_c, 0, 39, 0
1, 202234, Note_on_c, 0, 38, 53
1, 202237, Note_on_c, 0, 50, 61
1, 203166, Note_on_c, 0, 65, 0
1, 203166, Note_on_c, 0, 71, 0
1, 203166, Note_on_c, 0, 68, 0
1, 203169, Note_on_c, 0, 68, 67
1, 203169, Note_on_c, 0, 77, 73
1, 203169, Note_on_c, 0, 71, 67
1, 203792, Note_on_c, 0, 71, 0
1, 203792, Note_on_c, 0, 68, 0
1, 203948, Note_on_c, 0, 77, 0
1, 203948, Note_on_c, 0, 75, 52
1, 204150, Note_on_c, 0, 75, 0
1, 204150, Note_on_c, 0, 68, 48
1, 204150, Note_on_c, 0, 71, 48
1, 204153, Note_on_c, 0, 75, 52
1, 204153, Note_on_c, 0, 50, 0
1, 204153, Note_on_c, 0, 38, 0
1, 204156, Note_on_c, 0, 51, 46
1, 204156, Note_on_c, 0, 39, 40
1, 205128, Note_on_c, 0, 71, 0
1, 205128, Note_on_c, 0, 68, 0
1, 205128, Note_on_c, 0, 67, 35
1, 205131, Note_on_c, 0, 70, 38
1, 205440, Note_on_c, 0, 70, 0
1, 205440, Note_on_c, 0, 67, 0
1, 205440, Note_on_c, 0, 75, 0
1, 205443, Note_on_c, 0, 39, 0
1, 205443, Note_on_c, 0, 51, 0
1, 206064, Note_on_c, 0, 75, 45
1, 206064, Note_on_c, 0, 69, 40
1, 206064, Note_on_c, 0, 60, 40
1, 206067, Note_on_c, 0, 66, 40
1, 206572, Note_on_c, 0, 77, 45
1, 206586, Note_on_c, 0, 75, 0
1, 206741, Note_on_c, 0, 66, 0
1, 206741, Note_on_c, 0, 69, 0
1, 206741, Note_on_c, 0, 60, 0
1, 206744, Note_on_c, 0, 66, 40
1, 206744, Note_on_c, 0, 75, 45
1, 206744, Note_on_c, 0, 60, 40
1, 206747, Note_on_c, 0, 69, 40
1, 206755, Note_on_c, 0, 77, 0
1, 207080, Note_on_c, 0, 60, 0
1, 207080, Note_on_c, 0, 66, 0
1, 207080, Note_on_c, 0, 75, 0
1, 207083, Note_on_c, 0, 69, 0
1, 207083, Note_on_c, 0, 75, 45
1, 207083, Note_on_c, 0, 61, 40
1, 207086, Note_on_c, 0, 68, 40
1, 207086, Note_on_c, 0, 66, 40
1, 207757, Note_on_c, 0, 68, 0
1, 207757, Note_on_c, 0, 75, 0
1, 207757, Note_on_c, 0, 72, 45
1, 208096, Note_on_c, 0, 72, 0
1, 208096, Note_on_c, 0, 66, 0
1, 208096, Note_on_c, 0, 68, 40
1, 208099, Note_on_c, 0, 65, 40
1, 208099, Note_on_c, 0, 73, 45
1, 208409, Note_on_c, 0, 73, 0
1, 208409, Note_on_c, 0, 61, 0
1, 208409, Note_on_c, 0, 68, 0
1, 208412, Note_on_c, 0, 65, 0
1, 209034, Note_on_c, 0, 75, 78
1, 209034, Note_on_c, 0, 72, 78
1, 209034, Note_on_c, 0, 80, 87
1, 209037, Note_on_c, 0, 42, 53
1, 209037, Note_on_c, 0, 54, 70
1, 209503, Note_on_c, 0, 82, 87
1, 209517, Note_on_c, 0, 80, 0
1, 209663, Note_on_c, 0, 75, 0
1, 209663, Note_on_c, 0, 72, 0
1, 209663, Note_on_c, 0, 72, 78
1, 209666, Note_on_c, 0, 80, 87
1, 209666, Note_on_c, 0, 75, 78
1, 209666, Note_on_c, 0, 54, 0
1, 209669, Note_on_c, 0, 42, 0
1, 209669, Note_on_c, 0, 54, 69
1, 209669, Note_on_c, 0, 42, 52
1, 209676, Note_on_c, 0, 82, 0
1, 209985, Note_on_c, 0, 72, 0
1, 209985, Note_on_c, 0, 80, 0
1, 209985, Note_on_c, 0, 75, 0
1, 209988, Note_on_c, 0, 82, 87
1, 209988, Note_on_c, 0, 73, 78
1, 209988, Note_on_c, 0, 42, 0
1, 209991, Note_on_c, 0, 54, 0
1, 209991, Note_on_c, 0, 41, 52
1, 209991, Note_on_c, 0, 53, 69
1, 210480, Note_on_c, 0, 80, 87
1, 210493, Note_on_c, 0, 82, 0
1, 210647, Note_on_c, 0, 80, 0
1, 210647, Note_on_c, 0, 73, 0
1, 210647, Note_on_c, 0, 80, 87
1, 210650, Note_on_c, 0, 73, 78
1, 210650, Note_on_c, 0, 53, 0
1, 210650, Note_on_c, 0, 41, 0
1, 210653, Note_on_c, 0, 52, 77
1, 210653, Note_on_c, 0, 40, 57
1, 210749, Note_on_c, 0, 80, 0
1, 210851, Note_on_c, 0, 80, 87
1, 211054, Note_on_c, 0, 80, 0
1, 211054, Note_on_c, 0, 73, 0
1, 211054, Note_on_c, 0, 80, 91
1, 211057, Note_on_c, 0, 85, 101
1, 211057, Note_on_c, 0, 73, 91
1, 211057, Note_on_c, 0, 40, 0
1, 211060, Note_on_c, 0, 52, 0
1, 211060, Note_on_c, 0, 39, 62
1, 211060, Note_on_c, 0, 51, 84
1, 211682, Note_on_c, 0, 85, 0
1, 211682, Note_on_c, 0, 84, 87
1, 211839, Note_on_c, 0, 84, 0
1, 211839, Note_on_c, 0, 84, 67
1, 212039, Note_on_c, 0, 84, 0
1, 212039, Note_on_c, 0, 73, 0
1, 212039, Note_on_c, 0, 80, 0
1, 212042, Note_on_c, 0, 82, 67
1, 212042, Note_on_c, 0, 79, 61
1, 212042, Note_on_c, 0, 73, 61
1, 212045, Note_on_c, 0, 51, 0
1, 212045, Note_on_c, 0, 39, 0
1, 212045, Note_on_c, 0, 51, 54
1, 212048, Note_on_c, 0, 39, 41
1, 212825, Note_on_c, 0, 73, 0
1, 212825, Note_on_c, 0, 79, 0
1, 212825, Note_on_c, 0, 82, 0
1, 212828, Note_on_c, 0, 80, 60
1, 212828, Note_on_c, 0, 72, 55
1, 212828, Note_on_c, 0, 39, 0
1, 212831, Note_on_c, 0, 51, 0
1, 212831, Note_on_c, 0, 44, 52
1, 212831, Note_on_c, 0, 51, 52
1, 213051, Note_on_c, 0, 72, 0
1, 213051, Note_on_c, 0, 80, 0
1, 213051, Note_on_c, 0, 80, 60
1, 213054, Note_on_c, 0, 72, 47
1, 213054, Note_on_c, 0, 51, 0
1, 213054, Note_on_c, 0, 44, 0
1, 213057, Note_on_c, 0, 51, 52
1, 213057, Note_on_c, 0, 44, 52
1, 213822, Control_c, 0, 64, 126
1, 213833, Note_on_c, 0, 51, 0
1, 213833, Note_on_c, 0, 51, 34
1, 214002, Note_on_c, 0, 72, 0
1, 214002, Note_on_c, 0, 80, 0
1, 214002, Note_on_c, 0, 51, 0
1, 214005, Note_on_c, 0, 44, 0
1, 214005, Note_on_c, 0, 51, 34
1, 214774, Control_c, 0, 64, 0
1, 214783, Note_on_c, 0, 60, 40
1, 214783, Note_on_c, 0, 72, 45
1, 214783, Note_on_c, 0, 68, 40
1, 214786, Note_on_c, 0, 44, 39
1, 214951, Note_on_c, 0, 68, 0
1, 214951, Note_on_c, 0, 72, 0
1, 214951, Note_on_c, 0, 60, 0
1, 214954, Note_on_c, 0, 68, 40
1, 214954, Note_on_c, 0, 60, 40
1, 214954, Note_on_c, 0, 72, 45
1, 214957, Note_on_c, 0, 44, 0
1, 214957, Note_on_c, 0, 44, 39
1, 215420, Note_on_c, 0, 67, 40
1, 215420, Note_on_c, 0, 61, 40
1, 215420, Note_on_c, 0, 73, 45
1, 215423, Note_on_c, 0, 46, 39
1, 215433, Note_on_c, 0, 72, 0
1, 215433, Note_on_c, 0, 68, 0
1, 215433, Note_on_c, 0, 60, 0
1, 215436, Note_on_c, 0, 44, 0
1, 215578, Note_on_c, 0, 68, 40
1, 215578, Note_on_c, 0, 72, 45
1, 215578, Note_on_c, 0, 60, 40
1, 215581, Note_on_c, 0, 44, 39
1, 215592, Note_on_c, 0, 67, 0
1, 215592, Note_on_c, 0, 73, 0
1, 215592, Note_on_c, 0, 61, 0
1, 215595, Note_on_c, 0, 46, 0
1, 215916, Note_on_c, 0, 68, 0
1, 215916, Note_on_c, 0, 72, 0
1, 215916, Note_on_c, 0, 60, 0
1, 215919, Note_on_c, 0, 73, 40
1, 215919, Note_on_c, 0, 61, 37
1, 215919, Note_on_c, 0, 67, 37
1, 215922, Note_on_c, 0, 44, 0
1, 215922, Note_on_c, 0, 46, 35
1, 216698, Note_on_c, 0, 51, 0
1, 216698, Note_on_c, 0, 51, 35
1, 216698, Control_c, 0, 64, 127
1, 216869, Note_on_c, 0, 51, 0
1, 216869, Note_on_c, 0, 51, 35
1, 217632, Control_c, 0, 64, 0
1, 217650, Note_on_c, 0, 67, 0
1, 217650, Note_on_c, 0, 61, 0
1, 217650, Note_on_c, 0, 73, 0
1, 217653, Note_on_c, 0, 70, 45
1, 217653, Note_on_c, 0, 58, 40
1, 217653, Note_on_c, 0, 67, 40
1, 217656, Note_on_c, 0, 46, 0
1, 217656, Note_on_c, 0, 39, 39
1, 217818, Note_on_c, 0, 67, 0
1, 217818, Note_on_c, 0, 58, 0
1, 217818, Note_on_c, 0, 70, 0
1, 217821, Note_on_c, 0, 58, 40
1, 217821, Note_on_c, 0, 67, 40
1, 217821, Note_on_c, 0, 70, 45
1, 217824, Note_on_c, 0, 39, 0
1, 217824, Note_on_c, 0, 39, 39
1, 218288, Note_on_c, 0, 60, 40
1, 218288, Note_on_c, 0, 72, 45
1, 218288, Note_on_c, 0, 68, 40
1, 218291, Note_on_c, 0, 44, 39
1, 218301, Note_on_c, 0, 70, 0
1, 218301, Note_on_c, 0, 58, 0
1, 218301, Note_on_c, 0, 67, 0
1, 218304, Note_on_c, 0, 39, 0
1, 218445, Note_on_c, 0, 67, 40
1, 218445, Note_on_c, 0, 58, 40
1, 218445, Note_on_c, 0, 70, 45
1, 218448, Note_on_c, 0, 39, 39
1, 218459, Note_on_c, 0, 60, 0
1, 218459, Note_on_c, 0, 68, 0
1, 218459, Note_on_c, 0, 72, 0
1, 218462, Note_on_c, 0, 44, 0
1, 218783, Note_on_c, 0, 67, 0
1, 218783, Note_on_c, 0, 58, 0
1, 218783, Note_on_c, 0, 70, 0
1, 218786, Note_on_c, 0, 68, 37
1, 218786, Note_on_c, 0, 60, 37
1, 218786, Note_on_c, 0, 72, 40
1, 218789, Note_on_c, 0, 39, 0
1, 218789, Note_on_c, 0, 44, 34
1, 219408, Note_on_c, 0, 51, 0
1, 219565, Note_on_c, 0, 51, 35
1, 219577, Control_c, 0, 64, 127
1, 219746, Note_on_c, 0, 51, 0
1, 219746, Note_on_c, 0, 51, 35
1, 220528, Note_on_c, 0, 72, 0
1, 220528, Note_on_c, 0, 60, 0
1, 220528, Note_on_c, 0, 68, 0
1, 220531, Note_on_c, 0, 63, 45
1, 220531, Note_on_c, 0, 44, 0
1, 220531, Note_on_c, 0, 48, 39
1, 220538, Control_c, 0, 64, 0
1, 220696, Note_on_c, 0, 63, 0
1, 220696, Note_on_c, 0, 63, 45
1, 220696, Note_on_c, 0, 48, 0
1, 220699, Note_on_c, 0, 48, 39
1, 221167, Note_on_c, 0, 65, 52
1, 221167, Note_on_c, 0, 49, 38
1, 221180, Note_on_c, 0, 63, 0
1, 221180, Note_on_c, 0, 48, 0
1, 221326, Note_on_c, 0, 63, 54
1, 221326, Note_on_c, 0, 48, 40
1, 221339, Note_on_c, 0, 65, 0
1, 221339, Note_on_c, 0, 49, 0
1, 221647, Note_on_c, 0, 63, 0
1, 221647, Note_on_c, 0, 65, 55
1, 221647, Note_on_c, 0, 48, 0
1, 221650, Note_on_c, 0, 49, 46
1, 222135, Note_on_c, 0, 63, 54
1, 222135, Note_on_c, 0, 48, 47
1, 222149, Note_on_c, 0, 65, 0
1, 222149, Note_on_c, 0, 49, 0
1, 222300, Note_on_c, 0, 63, 0
1, 222300, Note_on_c, 0, 63, 54
1, 222300, Note_on_c, 0, 48, 0
1, 222303, Note_on_c, 0, 48, 47
1, 222633, Note_on_c, 0, 63, 0
1, 222633, Note_on_c, 0, 68, 54
1, 222633, Note_on_c, 0, 60, 49
1, 222636, Note_on_c, 0, 48, 0
1, 222636, Note_on_c, 0, 51, 0
1, 222636, Note_on_c, 0, 51, 47
1, 223571, Note_on_c, 0, 60, 0
1, 223571, Note_on_c, 0, 68, 0
1, 223571, Note_on_c, 0, 61, 49
1, 223574, Note_on_c, 0, 67, 49
1, 223574, Note_on_c, 0, 70, 54
1, 223574, Note_on_c, 0, 51, 0
1, 223577, Note_on_c, 0, 39, 54
1, 223577, Note_on_c, 0, 51, 47
1, 224356, Note_on_c, 0, 70, 0
1, 224356, Note_on_c, 0, 67, 0
1, 224356, Note_on_c, 0, 61, 0
1, 224359, Note_on_c, 0, 60, 40
1, 224359, Note_on_c, 0, 68, 45
1, 224359, Note_on_c, 0, 51, 0
1, 224362, Note_on_c, 0, 39, 0
1, 224362, Note_on_c, 0, 51, 39
1, 224362, Note_on_c, 0, 44, 39
1, 224554, Note_on_c, 0, 68, 0
1, 224554, Note_on_c, 0, 60, 0
1, 224554, Note_on_c, 0, 68, 45
1, 224557, Note_on_c, 0, 60, 40
1, 224557, Note_on_c, 0, 44, 0
1, 224557, Note_on_c, 0, 51, 0
1, 224560, Note_on_c, 0, 44, 39
1, 224560, Note_on_c, 0, 51, 39
1, 225336, Note_on_c, 0, 75, 39
1, 225365, Control_c, 0, 64, 127
1, 225506, Note_on_c, 0, 75, 0
1, 225506, Note_on_c, 0, 60, 0
1, 225506, Note_on_c, 0, 68, 0
1, 225509, Note_on_c, 0, 75, 39
1, 225509, Note_on_c, 0, 51, 0
1, 225509, Note_on_c, 0, 44, 0
1, 226289, Note_on_c, 0, 63, 40
1, 226289, Note_on_c, 0, 68, 45
1, 226289, Note_on_c, 0, 60, 39
1, 226292, Note_on_c, 0, 51, 39
1, 226319, Control_c, 0, 64, 0
1, 226457, Note_on_c, 0, 68, 0
1, 226457, Note_on_c, 0, 63, 0
1, 226457, Note_on_c, 0, 68, 45
1, 226460, Note_on_c, 0, 63, 40
1, 226460, Note_on_c, 0, 51, 0
1, 226460, Note_on_c, 0, 60, 0
1, 226463, Note_on_c, 0, 51, 47
1, 226463, Note_on_c, 0, 60, 39
1, 226926, Note_on_c, 0, 70, 45
1, 226926, Note_on_c, 0, 65, 40
1, 226926, Note_on_c, 0, 51, 0
1, 226929, Note_on_c, 0, 61, 39
1, 226929, Note_on_c, 0, 51, 39
1, 226939, Note_on_c, 0, 63, 0
1, 226939, Note_on_c, 0, 68, 0
1, 226939, Note_on_c, 0, 60, 0
1, 227083, Note_on_c, 0, 63, 40
1, 227083, Note_on_c, 0, 68, 45
1, 227083, Note_on_c, 0, 51, 0
1, 227086, Note_on_c, 0, 51, 39
1, 227086, Note_on_c, 0, 60, 39
1, 227097, Note_on_c, 0, 65, 0
1, 227097, Note_on_c, 0, 70, 0
1, 227097, Note_on_c, 0, 61, 0
1, 227423, Note_on_c, 0, 68, 0
1, 227423, Note_on_c, 0, 63, 0
1, 227423, Note_on_c, 0, 65, 37
1, 227426, Note_on_c, 0, 70, 40
1, 227426, Note_on_c, 0, 60, 0
1, 227426, Note_on_c, 0, 51, 0
1, 227429, Note_on_c, 0, 51, 35
1, 227429, Note_on_c, 0, 61, 35
1, 228188, Control_c, 0, 64, 127
1, 228209, Note_on_c, 0, 75, 0
1, 228209, Note_on_c, 0, 75, 37
1, 228392, Note_on_c, 0, 75, 0
1, 228392, Note_on_c, 0, 75, 37
1, 229147, Control_c, 0, 64, 0
1, 229174, Note_on_c, 0, 70, 0
1, 229174, Note_on_c, 0, 65, 0
1, 229174, Note_on_c, 0, 61, 40
1, 229177, Note_on_c, 0, 67, 45
1, 229177, Note_on_c, 0, 61, 0
1, 229177, Note_on_c, 0, 51, 0
1, 229180, Note_on_c, 0, 58, 39
1, 229180, Note_on_c, 0, 51, 39
1, 229342, Note_on_c, 0, 67, 0
1, 229342, Note_on_c, 0, 61, 0
1, 229342, Note_on_c, 0, 67, 45
1, 229345, Note_on_c, 0, 61, 40
1, 229345, Note_on_c, 0, 51, 0
1, 229345, Note_on_c, 0, 58, 0
1, 229348, Note_on_c, 0, 58, 39
1, 229348, Note_on_c, 0, 51, 39
1, 229811, Note_on_c, 0, 63, 40
1, 229811, Note_on_c, 0, 68, 45
1, 229811, Note_on_c, 0, 51, 0
1, 229814, Note_on_c, 0, 60, 39
1, 229814, Note_on_c, 0, 51, 39
1, 229824, Note_on_c, 0, 61, 0
1, 229824, Note_on_c, 0, 67, 0
1, 229824, Note_on_c, 0, 58, 0
1, 229967, Note_on_c, 0, 70, 45
1, 229967, Note_on_c, 0, 65, 40
1, 229967, Note_on_c, 0, 51, 0
1, 229970, Note_on_c, 0, 51, 39
1, 229970, Note_on_c, 0, 61, 39
1, 229981, Note_on_c, 0, 68, 0
1, 229981, Note_on_c, 0, 63, 0
1, 229981, Note_on_c, 0, 60, 0
1, 230303, Note_on_c, 0, 65, 0
1, 230303, Note_on_c, 0, 70, 0
1, 230303, Note_on_c, 0, 68, 40
1, 230306, Note_on_c, 0, 63, 37
1, 230306, Note_on_c, 0, 61, 0
1, 230306, Note_on_c, 0, 51, 0
1, 230309, Note_on_c, 0, 60, 34
1, 230309, Note_on_c, 0, 51, 34
1, 231085, Note_on_c, 0, 75, 0
1, 231085, Note_on_c, 0, 75, 37
1, 231106, Control_c, 0, 64, 127
1, 231268, Note_on_c, 0, 75, 0
1, 231268, Note_on_c, 0, 75, 37
1, 232050, Note_on_c, 0, 63, 0
1, 232050, Note_on_c, 0, 68, 0
1, 232050, Note_on_c, 0, 63, 45
1, 232053, Note_on_c, 0, 51, 0
1, 232053, Note_on_c, 0, 60, 0
1, 232053, Note_on_c, 0, 51, 39
1, 232056, Note_on_c, 0, 60, 39
1, 232056, Control_c, 0, 64, 0
1, 232217, Note_on_c, 0, 63, 0
1, 232217, Note_on_c, 0, 63, 45
1, 232217, Note_on_c, 0, 60, 0
1, 232220, Note_on_c, 0, 51, 0
1, 232220, Note_on_c, 0, 60, 39
1, 232220, Note_on_c, 0, 51, 39
1, 232690, Note_on_c, 0, 65, 52
1, 232690, Note_on_c, 0, 51, 0
1, 232690, Note_on_c, 0, 61, 44
1, 232693, Note_on_c, 0, 51, 39
1, 232704, Note_on_c, 0, 63, 0
1, 232704, Note_on_c, 0, 60, 0
1, 232851, Note_on_c, 0, 63, 54
1, 232851, Note_on_c, 0, 51, 0
1, 232851, Note_on_c, 0, 51, 40
1, 232854, Note_on_c, 0, 60, 40
1, 232865, Note_on_c, 0, 65, 0
1, 232865, Note_on_c, 0, 61, 0
1, 233177, Note_on_c, 0, 63, 0
1, 233177, Note_on_c, 0, 68, 55
1, 233177, Note_on_c, 0, 65, 49
1, 233180, Note_on_c, 0, 60, 0
1, 233180, Note_on_c, 0, 51, 0
1, 233180, Note_on_c, 0, 61, 52
1, 233183, Note_on_c, 0, 51, 46
1, 233679, Note_on_c, 0, 63, 54
1, 233679, Note_on_c, 0, 51, 0
1, 233679, Note_on_c, 0, 51, 47
1, 233682, Note_on_c, 0, 60, 47
1, 233693, Note_on_c, 0, 65, 0
1, 233693, Note_on_c, 0, 68, 0
1, 233693, Note_on_c, 0, 61, 0
1, 233850, Note_on_c, 0, 63, 0
1, 233850, Note_on_c, 0, 63, 54
1, 233850, Note_on_c, 0, 60, 0
1, 233853, Note_on_c, 0, 51, 0
1, 233853, Note_on_c, 0, 60, 47
1, 233853, Note_on_c, 0, 51, 47
1, 234195, Note_on_c, 0, 63, 0
1, 234195, Note_on_c, 0, 75, 0
1, 234195, Note_on_c, 0, 72, 69
1, 234198, Note_on_c, 0, 75, 77
1, 234198, Note_on_c, 0, 51, 0
1, 234198, Note_on_c, 0, 60, 0
1, 234201, Note_on_c, 0, 63, 51
1, 234201, Note_on_c, 0, 51, 51
1, 235158, Note_on_c, 0, 75, 0
1, 235158, Note_on_c, 0, 72, 0
1, 235158, Note_on_c, 0, 75, 73
1, 235161, Note_on_c, 0, 70, 73
1, 235161, Note_on_c, 0, 79, 81
1, 235161, Note_on_c, 0, 51, 0
1, 235164, Note_on_c, 0, 63, 0
1, 235164, Note_on_c, 0, 61, 57
1, 235164, Note_on_c, 0, 63, 66
1, 235167, Note_on_c, 0, 51, 57
1, 236049, Note_on_c, 0, 79, 0
1, 236049, Note_on_c, 0, 70, 0
1, 236049, Note_on_c, 0, 75, 0
1, 236052, Note_on_c, 0, 80, 87
1, 236052, Note_on_c, 0, 75, 78
1, 236052, Note_on_c, 0, 68, 78
1, 236055, Note_on_c, 0, 51, 0
1, 236055, Note_on_c, 0, 63, 0
1, 236055, Note_on_c, 0, 61, 0
1, 236058, Note_on_c, 0, 60, 63
1, 236058, Note_on_c, 0, 63, 73
1, 236058, Note_on_c, 0, 56, 63
1, 236255, Note_on_c, 0, 68, 0
1, 236255, Note_on_c, 0, 75, 0
1, 236255, Note_on_c, 0, 80, 0
1, 236258, Note_on_c, 0, 80, 87
1, 236258, Note_on_c, 0, 68, 78
1, 236258, Note_on_c, 0, 75, 78
1, 236261, Note_on_c, 0, 56, 0
1, 236261, Note_on_c, 0, 63, 0
1, 236261, Note_on_c, 0, 60, 0
1, 236264, Note_on_c, 0, 60, 64
1, 236264, Note_on_c, 0, 63, 74
1, 236264, Note_on_c, 0, 56, 64
1, 239949, Note_on_c, 0, 75, 0
1, 239949, Note_on_c, 0, 68, 0
1, 239949, Note_on_c, 0, 80, 0
1, 239952, Note_on_c, 0, 56, 0
1, 239952, Note_on_c, 0, 63, 0
1, 239952, Note_on_c, 0, 60, 0
1, 241450, End_track
0, 0, End_of_file
