0, 0, Header, 0, 1, 384
1, 0, Start_track
1, 0, Title_t, "Schubert D845--Na               "
1, 0, Text_t, "2009 International Piano-e-Competition finals"
1, 0, Text_t, "captured June-July 2009"
1, 0, Text_t, "http://www.piano-e-competition.com/"
1, 0, Text_t, "standard-resolution version"
1, 0, Text_t, "File processed for distribution by software from Zenph Studios, Inc., http://www.zenph.com"
1, 0, Instrument_name_t, "Yamaha Disklavier Pro Mark IV concert grand piano, model DCFIIISM4PRO"
1, 0, Sequencer_specific, 39, 67, 113, 0, 1, 0, 1, 0, 83, 99, 104, 117, 98, 101, 114, 116, 32, 68, 56, 52, 53, 32, 32, 32, 72, 111, 119, 97, 114, 100, 32, 78, 97, 32, 32, 32, 32, 32, 32, 32
1, 0, Sequencer_specific, 6, 67, 113, 0, 0, 0, 69
1, 0, System_exclusive, 21, 67, 113, 126, 21, 0, 2, 2, 1, 1, 13, 3, 4, 10, 5, 1, 2, 3, 5, 0, 6, 247
1, 0, Sequencer_specific, 5, 67, 123, 12, 2, 1
1, 0, Tempo, 512820
1, 0, Time_signature, 4, 2, 24, 8
1, 0, System_exclusive, 5, 126, 127, 9, 1, 247
1, 1, System_exclusive, 8, 67, 16, 76, 0, 0, 126, 0, 247
1, 2, System_exclusive, 8, 67, 16, 76, 8, 9, 7, 1, 247
1, 3, Control_c, 0, 0, 0
1, 3, Control_c, 1, 0, 0
1, 3, Control_c, 2, 0, 0
1, 3, Control_c, 3, 0, 0
1, 3, Control_c, 4, 0, 0
1, 3, Control_c, 5, 0, 0
1, 3, Control_c, 6, 0, 0
1, 3, Control_c, 7, 0, 0
1, 3, Control_c, 8, 0, 0
1, 3, Control_c, 9, 0, 127
1, 3, Control_c, 10, 0, 0
1, 3, Control_c, 11, 0, 0
1, 3, Control_c, 12, 0, 0
1, 3, Control_c, 13, 0, 0
1, 3, Control_c, 14, 0, 0
1, 3, Control_c, 15, 0, 0
1, 4, Control_c, 0, 32, 0
1, 4, Control_c, 1, 32, 0
1, 4, Control_c, 2, 32, 0
1, 4, Control_c, 3, 32, 0
1, 4, Control_c, 4, 32, 0
1, 4, Control_c, 5, 32, 0
1, 4, Control_c, 6, 32, 0
1, 4, Control_c, 7, 32, 0
1, 4, Control_c, 8, 32, 0
1, 4, Control_c, 9, 32, 0
1, 4, Control_c, 10, 32, 0
1, 4, Control_c, 11, 32, 0
1, 4, Control_c, 12, 32, 0
1, 4, Control_c, 13, 32, 0
1, 4, Control_c, 14, 32, 0
1, 4, Control_c, 15, 32, 0
1, 5, Program_c, 0, 0
1, 5, Program_c, 1, 0
1, 5, Program_c, 2, 0
1, 5, Program_c, 3, 0
1, 5, Program_c, 4, 0
1, 5, Program_c, 5, 0
1, 5, Program_c, 6, 0
1, 5, Program_c, 7, 0
1, 5, Program_c, 8, 0
1, 5, Program_c, 9, 0
1, 5, Program_c, 10, 0
1, 5, Program_c, 11, 0
1, 5, Program_c, 12, 0
1, 5, Program_c, 13, 0
1, 5, Program_c, 14, 0
1, 5, Program_c, 15, 0
1, 6, Control_c, 0, 7, 100
1, 6, Control_c, 1, 7, 100
1, 6, Control_c, 2, 7, 100
1, 6, Control_c, 3, 7, 100
1, 6, Control_c, 4, 7, 100
1, 6, Control_c, 5, 7, 100
1, 6, Control_c, 6, 7, 100
1, 6, Control_c, 7, 7, 100
1, 6, Control_c, 8, 7, 100
1, 6, Control_c, 9, 7, 100
1, 6, Control_c, 10, 7, 100
1, 6, Control_c, 11, 7, 100
1, 6, Control_c, 12, 7, 100
1, 6, Control_c, 13, 7, 100
1, 6, Control_c, 14, 7, 100
1, 6, Control_c, 15, 7, 100
1, 117, Control_c, 0, 64, 11
1, 117, Control_c, 0, 67, 15
1, 229, Control_c, 0, 64, 23
1, 229, Control_c, 0, 67, 31
1, 341, Control_c, 0, 64, 34
1, 341, Control_c, 0, 67, 46
1, 452, Control_c, 0, 64, 46
1, 452, Control_c, 0, 67, 63
1, 564, Control_c, 0, 64, 57
1, 564, Control_c, 0, 67, 77
1, 676, Control_c, 0, 64, 69
1, 676, Control_c, 0, 67, 94
1, 787, Control_c, 0, 64, 80
1, 787, Control_c, 0, 67, 108
1, 899, Control_c, 0, 64, 93
1, 899, Control_c, 0, 67, 127
1, 1134, Note_on_c, 0, 72, 45
1, 1158, Note_on_c, 0, 60, 20
1, 1205, Note_off_c, 0, 60, 46
1, 1258, Control_c, 0, 64, 93
1, 1264, Note_off_c, 0, 72, 26
1, 1330, Note_on_c, 0, 71, 42
1, 1359, Note_off_c, 0, 71, 57
1, 1378, Poly_aftertouch_c, 0, 59, 127
1, 1387, Note_on_c, 0, 72, 49
1, 1398, Note_on_c, 0, 60, 41
1, 1422, Control_c, 0, 64, 93
1, 1428, Poly_aftertouch_c, 0, 59, 0
1, 1436, Control_c, 0, 64, 91
1, 1438, Note_off_c, 0, 60, 47
1, 1450, Note_on_c, 0, 59, 23
1, 1451, Note_on_c, 0, 71, 57
1, 1451, Control_c, 0, 64, 88
1, 1466, Control_c, 0, 64, 83
1, 1481, Control_c, 0, 64, 78
1, 1495, Note_off_c, 0, 72, 35
1, 1496, Control_c, 0, 64, 73
1, 1510, Control_c, 0, 64, 66
1, 1525, Control_c, 0, 64, 59
1, 1540, Control_c, 0, 64, 43
1, 1555, Control_c, 0, 64, 0
1, 1751, Note_on_c, 0, 69, 52
1, 1754, Note_on_c, 0, 57, 40
1, 1781, Note_off_c, 0, 71, 43
1, 1813, Note_off_c, 0, 59, 43
1, 2163, Note_on_c, 0, 76, 57
1, 2184, Note_on_c, 0, 64, 31
1, 2215, Note_off_c, 0, 69, 43
1, 2260, Note_off_c, 0, 57, 35
1, 2332, Control_c, 0, 64, 35
1, 2347, Control_c, 0, 64, 54
1, 2362, Control_c, 0, 64, 63
1, 2377, Control_c, 0, 64, 66
1, 2399, Control_c, 0, 64, 70
1, 2414, Control_c, 0, 64, 75
1, 2429, Control_c, 0, 64, 81
1, 2444, Control_c, 0, 64, 87
1, 2459, Control_c, 0, 64, 91
1, 2473, Control_c, 0, 64, 95
1, 2488, Control_c, 0, 64, 97
1, 2503, Control_c, 0, 64, 97
1, 2715, Note_on_c, 0, 72, 50
1, 2732, Note_on_c, 0, 60, 33
1, 2736, Note_off_c, 0, 64, 37
1, 2740, Control_c, 0, 64, 97
1, 2814, Control_c, 0, 64, 96
1, 2817, Note_on_c, 0, 57, 39
1, 2826, Note_on_c, 0, 69, 46
1, 2829, Control_c, 0, 64, 95
1, 2836, Note_off_c, 0, 60, 30
1, 2844, Control_c, 0, 64, 92
1, 2858, Control_c, 0, 64, 88
1, 2873, Control_c, 0, 64, 85
1, 2887, Note_off_c, 0, 72, 34
1, 2888, Control_c, 0, 64, 80
1, 2903, Control_c, 0, 64, 75
1, 2910, Note_on_c, 0, 52, 41
1, 2917, Control_c, 0, 64, 69
1, 2929, Note_on_c, 0, 64, 47
1, 2932, Control_c, 0, 64, 64
1, 2947, Control_c, 0, 64, 54
1, 2962, Control_c, 0, 64, 23
1, 2974, Note_off_c, 0, 57, 29
1, 2977, Note_off_c, 0, 69, 38
1, 2977, Control_c, 0, 64, 0
1, 3014, Note_off_c, 0, 76, 39
1, 3326, Control_c, 0, 64, 39
1, 3340, Control_c, 0, 64, 52
1, 3355, Control_c, 0, 64, 57
1, 3370, Control_c, 0, 64, 58
1, 3385, Control_c, 0, 64, 59
1, 3400, Control_c, 0, 64, 59
1, 3414, Control_c, 0, 64, 60
1, 3444, Control_c, 0, 64, 60
1, 3459, Control_c, 0, 64, 61
1, 3607, Control_c, 0, 64, 60
1, 3622, Control_c, 0, 64, 59
1, 3637, Control_c, 0, 64, 58
1, 3652, Control_c, 0, 64, 56
1, 3666, Control_c, 0, 64, 51
1, 3681, Control_c, 0, 64, 38
1, 3696, Control_c, 0, 64, 0
1, 3711, Note_off_c, 0, 52, 60
1, 3714, Note_off_c, 0, 64, 54
1, 4031, Note_on_c, 0, 64, 55
1, 4043, Note_on_c, 0, 57, 45
1, 4045, Control_c, 0, 67, 108
1, 4055, Note_on_c, 0, 52, 43
1, 4060, Control_c, 0, 67, 86
1, 4075, Control_c, 0, 67, 64
1, 4089, Control_c, 0, 67, 44
1, 4102, Poly_aftertouch_c, 0, 48, 127
1, 4104, Control_c, 0, 67, 27
1, 4119, Control_c, 0, 67, 14
1, 4134, Control_c, 0, 67, 0
1, 4174, Note_off_c, 0, 52, 56
1, 4177, Note_off_c, 0, 57, 60
1, 4195, Poly_aftertouch_c, 0, 48, 0
1, 4196, Note_off_c, 0, 64, 58
1, 4337, Note_on_c, 0, 64, 57
1, 4347, Note_on_c, 0, 52, 49
1, 4347, Note_on_c, 0, 62, 57
1, 4352, Note_on_c, 0, 56, 50
1, 4357, Note_on_c, 0, 47, 46
1, 4471, Note_off_c, 0, 47, 64
1, 4475, Note_off_c, 0, 56, 56
1, 4479, Note_off_c, 0, 52, 65
1, 4509, Note_off_c, 0, 64, 56
1, 4537, Note_off_c, 0, 62, 46
1, 4646, Note_on_c, 0, 64, 72
1, 4656, Note_on_c, 0, 52, 67
1, 4657, Note_on_c, 0, 60, 59
1, 4658, Note_on_c, 0, 57, 62
1, 4659, Note_on_c, 0, 45, 65
1, 4769, Note_off_c, 0, 64, 65
1, 4772, Note_off_c, 0, 52, 62
1, 4785, Note_off_c, 0, 45, 64
1, 4793, Note_off_c, 0, 60, 52
1, 4821, Note_off_c, 0, 57, 57
1, 4942, Note_on_c, 0, 64, 78
1, 4951, Note_on_c, 0, 59, 71
1, 4955, Note_on_c, 0, 52, 75
1, 4964, Note_on_c, 0, 44, 65
1, 5093, Note_off_c, 0, 52, 62
1, 5105, Note_off_c, 0, 44, 63
1, 5119, Note_off_c, 0, 59, 62
1, 5131, Note_off_c, 0, 64, 61
1, 5280, Note_on_c, 0, 69, 82
1, 5289, Note_on_c, 0, 41, 69
1, 5290, Note_on_c, 0, 57, 72
1, 5293, Note_on_c, 0, 52, 69
1, 5293, Note_on_c, 0, 63, 73
1, 5449, Note_off_c, 0, 69, 63
1, 5455, Note_off_c, 0, 57, 57
1, 5457, Note_off_c, 0, 52, 62
1, 5463, Note_off_c, 0, 41, 63
1, 5531, Note_off_c, 0, 63, 54
1, 5709, Note_on_c, 0, 68, 79
1, 5712, Note_on_c, 0, 64, 58
1, 5717, Note_on_c, 0, 40, 59
1, 5718, Note_on_c, 0, 52, 58
1, 5721, Note_on_c, 0, 56, 63
1, 6498, Control_c, 0, 67, 14
1, 6513, Control_c, 0, 67, 21
1, 6528, Control_c, 0, 67, 29
1, 6543, Control_c, 0, 67, 36
1, 6557, Control_c, 0, 67, 45
1, 6572, Control_c, 0, 67, 52
1, 6586, Note_off_c, 0, 40, 56
1, 6587, Control_c, 0, 67, 61
1, 6591, Note_off_c, 0, 56, 61
1, 6602, Control_c, 0, 67, 69
1, 6617, Control_c, 0, 67, 77
1, 6631, Control_c, 0, 67, 86
1, 6633, Note_off_c, 0, 52, 53
1, 6639, Note_off_c, 0, 68, 39
1, 6646, Control_c, 0, 67, 95
1, 6661, Control_c, 0, 67, 105
1, 6666, Note_off_c, 0, 64, 62
1, 6675, Control_c, 0, 67, 114
1, 6690, Control_c, 0, 67, 124
1, 6705, Control_c, 0, 67, 127
1, 6920, Control_c, 0, 64, 36
1, 6935, Control_c, 0, 64, 52
1, 6950, Control_c, 0, 64, 59
1, 6964, Control_c, 0, 64, 62
1, 6979, Control_c, 0, 64, 64
1, 6994, Control_c, 0, 64, 65
1, 7010, Control_c, 0, 64, 66
1, 7025, Control_c, 0, 64, 68
1, 7040, Control_c, 0, 64, 71
1, 7054, Control_c, 0, 64, 74
1, 7069, Control_c, 0, 64, 77
1, 7084, Control_c, 0, 64, 80
1, 7099, Control_c, 0, 64, 83
1, 7113, Control_c, 0, 64, 86
1, 7128, Control_c, 0, 64, 89
1, 7143, Control_c, 0, 64, 92
1, 7146, Note_on_c, 0, 74, 43
1, 7153, Note_on_c, 0, 62, 33
1, 7158, Control_c, 0, 64, 95
1, 7173, Control_c, 0, 64, 98
1, 7187, Control_c, 0, 64, 100
1, 7202, Note_off_c, 0, 62, 43
1, 7202, Control_c, 0, 64, 102
1, 7217, Control_c, 0, 64, 102
1, 7232, Control_c, 0, 64, 103
1, 7240, Note_off_c, 0, 74, 56
1, 7336, Note_on_c, 0, 72, 40
1, 7362, Note_off_c, 0, 72, 58
1, 7366, Control_c, 0, 64, 102
1, 7374, Note_on_c, 0, 74, 47
1, 7395, Control_c, 0, 64, 102
1, 7396, Note_on_c, 0, 62, 48
1, 7410, Control_c, 0, 64, 99
1, 7425, Control_c, 0, 64, 95
1, 7434, Note_off_c, 0, 62, 48
1, 7441, Control_c, 0, 64, 90
1, 7445, Note_on_c, 0, 60, 20
1, 7453, Note_on_c, 0, 72, 56
1, 7455, Control_c, 0, 64, 83
1, 7470, Control_c, 0, 64, 77
1, 7485, Control_c, 0, 64, 70
1, 7499, Control_c, 0, 64, 64
1, 7506, Note_off_c, 0, 74, 33
1, 7514, Control_c, 0, 64, 55
1, 7529, Control_c, 0, 64, 30
1, 7544, Control_c, 0, 64, 0
1, 7748, Note_on_c, 0, 71, 53
1, 7763, Note_on_c, 0, 59, 34
1, 7768, Note_off_c, 0, 72, 61
1, 7801, Note_off_c, 0, 60, 42
1, 8164, Note_on_c, 0, 77, 49
1, 8200, Note_on_c, 0, 65, 37
1, 8222, Note_off_c, 0, 71, 38
1, 8276, Note_off_c, 0, 59, 44
1, 8321, Control_c, 0, 64, 39
1, 8336, Control_c, 0, 64, 56
1, 8351, Control_c, 0, 64, 63
1, 8366, Control_c, 0, 64, 65
1, 8389, Control_c, 0, 64, 67
1, 8403, Control_c, 0, 64, 70
1, 8418, Control_c, 0, 64, 73
1, 8433, Control_c, 0, 64, 78
1, 8448, Control_c, 0, 64, 82
1, 8462, Control_c, 0, 64, 85
1, 8477, Control_c, 0, 64, 87
1, 8492, Control_c, 0, 64, 89
1, 8507, Control_c, 0, 64, 90
1, 8522, Control_c, 0, 64, 91
1, 8670, Note_on_c, 0, 74, 46
1, 8684, Note_off_c, 0, 65, 43
1, 8690, Note_on_c, 0, 62, 35
1, 8751, Note_off_c, 0, 62, 39
1, 8765, Note_on_c, 0, 59, 33
1, 8771, Note_on_c, 0, 71, 42
1, 8789, Control_c, 0, 64, 90
1, 8804, Control_c, 0, 64, 89
1, 8819, Control_c, 0, 64, 87
1, 8825, Note_off_c, 0, 77, 30
1, 8833, Control_c, 0, 64, 85
1, 8848, Control_c, 0, 64, 81
1, 8855, Note_off_c, 0, 74, 36
1, 8863, Control_c, 0, 64, 78
1, 8872, Note_on_c, 0, 64, 53
1, 8878, Control_c, 0, 64, 74
1, 8892, Control_c, 0, 64, 69
1, 8894, Note_on_c, 0, 52, 37
1, 8907, Control_c, 0, 64, 64
1, 8913, Note_off_c, 0, 71, 51
1, 8922, Control_c, 0, 64, 58
1, 8937, Control_c, 0, 64, 42
1, 8946, Note_off_c, 0, 59, 20
1, 8952, Control_c, 0, 64, 0
1, 9553, Control_c, 0, 67, 111
1, 9568, Control_c, 0, 67, 78
1, 9582, Control_c, 0, 67, 42
1, 9597, Control_c, 0, 67, 0
1, 9600, Note_off_c, 0, 52, 60
1, 9602, Note_off_c, 0, 64, 61
1, 9801, Note_on_c, 0, 68, 56
1, 9814, Note_on_c, 0, 64, 35
1, 9816, Note_on_c, 0, 50, 37
1, 9824, Note_on_c, 0, 59, 40
1, 9843, Note_on_c, 0, 52, 30
1, 9956, Note_off_c, 0, 50, 56
1, 9958, Note_off_c, 0, 52, 61
1, 9960, Note_off_c, 0, 59, 60
1, 9971, Note_off_c, 0, 64, 56
1, 9979, Note_off_c, 0, 68, 52
1, 10101, Note_on_c, 0, 69, 68
1, 10103, Note_on_c, 0, 64, 46
1, 10109, Note_on_c, 0, 52, 54
1, 10113, Note_on_c, 0, 48, 56
1, 10124, Note_on_c, 0, 57, 54
1, 10270, Note_off_c, 0, 57, 61
1, 10271, Note_off_c, 0, 69, 62
1, 10274, Note_off_c, 0, 48, 62
1, 10274, Note_off_c, 0, 52, 64
1, 10286, Note_off_c, 0, 64, 57
1, 10397, Note_on_c, 0, 71, 78
1, 10398, Note_on_c, 0, 52, 77
1, 10404, Note_on_c, 0, 59, 68
1, 10405, Note_on_c, 0, 47, 68
1, 10405, Note_on_c, 0, 64, 63
1, 10562, Note_off_c, 0, 47, 64
1, 10565, Note_off_c, 0, 71, 59
1, 10571, Note_off_c, 0, 52, 64
1, 10571, Note_off_c, 0, 59, 62
1, 10595, Note_off_c, 0, 64, 61
1, 10707, Note_on_c, 0, 52, 75
1, 10709, Note_on_c, 0, 72, 83
1, 10711, Note_on_c, 0, 45, 73
1, 10713, Note_on_c, 0, 64, 73
1, 10715, Note_on_c, 0, 60, 77
1, 10839, Note_off_c, 0, 60, 61
1, 10842, Note_off_c, 0, 64, 64
1, 10869, Note_off_c, 0, 72, 63
1, 10875, Note_off_c, 0, 45, 63
1, 10890, Note_off_c, 0, 52, 62
1, 11013, Note_on_c, 0, 76, 84
1, 11016, Note_on_c, 0, 64, 81
1, 11018, Note_on_c, 0, 52, 75
1, 11021, Note_on_c, 0, 71, 72
1, 11022, Note_on_c, 0, 43, 67
1, 11134, Note_off_c, 0, 64, 65
1, 11155, Note_off_c, 0, 52, 64
1, 11164, Note_off_c, 0, 76, 64
1, 11164, Note_off_c, 0, 71, 63
1, 11169, Note_off_c, 0, 43, 61
1, 11353, Note_on_c, 0, 81, 93
1, 11361, Note_on_c, 0, 76, 80
1, 11367, Note_on_c, 0, 69, 76
1, 11376, Note_on_c, 0, 54, 64
1, 11377, Note_on_c, 0, 42, 63
1, 11845, Control_c, 0, 64, 40
1, 11859, Control_c, 0, 64, 58
1, 11874, Control_c, 0, 64, 64
1, 11889, Control_c, 0, 64, 69
1, 11903, Control_c, 0, 64, 74
1, 11918, Control_c, 0, 64, 80
1, 11933, Control_c, 0, 64, 89
1, 11948, Control_c, 0, 64, 102
1, 11963, Control_c, 0, 64, 127
1, 12081, Note_off_c, 0, 76, 56
1, 12084, Note_off_c, 0, 42, 61
1, 12103, Note_off_c, 0, 54, 59
1, 12225, Note_off_c, 0, 81, 51
1, 12379, Note_off_c, 0, 69, 56
1, 12545, Note_on_c, 0, 81, 86
1, 12548, Note_on_c, 0, 53, 75
1, 12552, Note_on_c, 0, 75, 71
1, 12553, Note_on_c, 0, 69, 72
1, 12558, Note_on_c, 0, 41, 70
1, 12608, Control_c, 0, 64, 99
1, 12623, Control_c, 0, 64, 79
1, 12638, Control_c, 0, 64, 67
1, 12652, Control_c, 0, 64, 58
1, 12667, Control_c, 0, 64, 32
1, 12681, Control_c, 0, 64, 0
1, 12702, Note_off_c, 0, 81, 60
1, 12723, Note_on_c, 0, 83, 64
1, 12777, Note_on_c, 0, 81, 66
1, 12840, Note_on_c, 0, 80, 82
1, 12840, Note_off_c, 0, 83, 61
1, 12884, Note_off_c, 0, 81, 62
1, 13028, Note_on_c, 0, 81, 78
1, 13060, Note_off_c, 0, 80, 63
1, 13248, Note_on_c, 0, 84, 80
1, 13285, Note_off_c, 0, 81, 57
1, 13370, Control_c, 0, 64, 19
1, 13385, Control_c, 0, 64, 59
1, 13401, Control_c, 0, 64, 68
1, 13415, Control_c, 0, 64, 76
1, 13430, Control_c, 0, 64, 83
1, 13445, Control_c, 0, 64, 86
1, 13460, Control_c, 0, 64, 91
1, 13474, Control_c, 0, 64, 99
1, 13477, Note_off_c, 0, 84, 59
1, 13489, Control_c, 0, 64, 113
1, 13504, Control_c, 0, 64, 127
1, 13663, Note_on_c, 0, 83, 72
1, 13674, Control_c, 0, 64, 97
1, 13689, Control_c, 0, 64, 85
1, 13704, Control_c, 0, 64, 84
1, 13734, Control_c, 0, 64, 84
1, 13748, Control_c, 0, 64, 91
1, 13763, Control_c, 0, 64, 115
1, 13778, Control_c, 0, 64, 127
1, 13794, Note_off_c, 0, 75, 61
1, 13799, Note_off_c, 0, 69, 64
1, 13800, Note_off_c, 0, 41, 31
1, 13897, Note_off_c, 0, 53, 34
1, 14130, Note_on_c, 0, 80, 61
1, 14145, Note_on_c, 0, 76, 51
1, 14148, Control_c, 0, 64, 102
1, 14150, Note_on_c, 0, 68, 50
1, 14156, Note_off_c, 0, 83, 53
1, 14162, Note_on_c, 0, 40, 37
1, 14163, Control_c, 0, 64, 75
1, 14170, Note_on_c, 0, 52, 36
1, 14178, Control_c, 0, 64, 59
1, 14194, Control_c, 0, 64, 0
1, 14283, Control_c, 0, 64, 57
1, 14297, Control_c, 0, 64, 70
1, 14312, Control_c, 0, 64, 80
1, 14327, Control_c, 0, 64, 87
1, 14342, Control_c, 0, 64, 90
1, 14357, Control_c, 0, 64, 101
1, 14379, Control_c, 0, 64, 127
1, 14393, Note_off_c, 0, 76, 63
1, 14406, Note_off_c, 0, 80, 62
1, 14488, Note_off_c, 0, 68, 62
1, 14690, Note_off_c, 0, 52, 42
1, 14746, Note_on_c, 0, 64, 42
1, 15039, Note_on_c, 0, 52, 44
1, 15096, Note_off_c, 0, 64, 58
1, 15319, Note_on_c, 0, 64, 59
1, 15323, Note_off_c, 0, 52, 42
1, 15577, Note_on_c, 0, 52, 53
1, 15662, Note_off_c, 0, 64, 62
1, 15835, Note_on_c, 0, 64, 67
1, 15853, Note_off_c, 0, 52, 52
1, 16070, Control_c, 0, 64, 105
1, 16085, Control_c, 0, 64, 90
1, 16088, Note_on_c, 0, 52, 57
1, 16100, Control_c, 0, 64, 77
1, 16115, Control_c, 0, 64, 67
1, 16130, Control_c, 0, 64, 59
1, 16144, Control_c, 0, 64, 55
1, 16159, Control_c, 0, 64, 58
1, 16174, Control_c, 0, 64, 61
1, 16188, Control_c, 0, 64, 64
1, 16190, Note_off_c, 0, 64, 61
1, 16203, Control_c, 0, 64, 67
1, 16218, Control_c, 0, 64, 71
1, 16233, Control_c, 0, 64, 74
1, 16248, Control_c, 0, 64, 75
1, 16262, Control_c, 0, 64, 75
1, 16277, Control_c, 0, 64, 76
1, 16307, Control_c, 0, 64, 77
1, 16322, Control_c, 0, 64, 77
1, 16333, Note_off_c, 0, 40, 42
1, 16337, Control_c, 0, 64, 79
1, 16339, Note_on_c, 0, 64, 50
1, 16349, Note_off_c, 0, 52, 58
1, 16351, Control_c, 0, 64, 80
1, 16381, Control_c, 0, 64, 80
1, 16488, Note_off_c, 0, 64, 36
1, 16514, Control_c, 0, 64, 80
1, 16529, Control_c, 0, 64, 79
1, 16543, Control_c, 0, 64, 77
1, 16558, Control_c, 0, 64, 73
1, 16573, Control_c, 0, 64, 68
1, 16589, Control_c, 0, 64, 62
1, 16604, Control_c, 0, 64, 42
1, 16616, Note_on_c, 0, 65, 44
1, 16625, Control_c, 0, 64, 0
1, 16634, Note_on_c, 0, 40, 36
1, 16637, Note_on_c, 0, 52, 38
1, 16735, Note_on_c, 0, 57, 48
1, 16759, Note_off_c, 0, 52, 55
1, 16768, Note_off_c, 0, 40, 43
1, 16829, Note_off_c, 0, 65, 26
1, 16854, Note_on_c, 0, 60, 48
1, 16864, Note_off_c, 0, 57, 55
1, 16872, Note_on_c, 0, 40, 41
1, 16872, Note_on_c, 0, 52, 34
1, 16969, Note_on_c, 0, 64, 58
1, 16975, Note_off_c, 0, 52, 54
1, 16997, Note_off_c, 0, 40, 41
1, 17020, Note_off_c, 0, 60, 53
1, 17084, Note_on_c, 0, 65, 60
1, 17084, Note_off_c, 0, 64, 53
1, 17090, Note_on_c, 0, 40, 54
1, 17098, Note_on_c, 0, 52, 58
1, 17196, Note_on_c, 0, 57, 57
1, 17236, Note_off_c, 0, 40, 61
1, 17243, Note_off_c, 0, 52, 61
1, 17245, Note_off_c, 0, 65, 34
1, 17313, Note_on_c, 0, 60, 62
1, 17320, Note_on_c, 0, 52, 68
1, 17329, Note_on_c, 0, 40, 59
1, 17361, Note_off_c, 0, 57, 60
1, 17427, Note_on_c, 0, 64, 65
1, 17456, Note_off_c, 0, 40, 61
1, 17468, Note_off_c, 0, 52, 59
1, 17557, Note_on_c, 0, 65, 77
1, 17564, Note_off_c, 0, 60, 56
1, 17567, Note_on_c, 0, 52, 72
1, 17570, Note_on_c, 0, 40, 65
1, 17593, Note_off_c, 0, 64, 59
1, 17668, Note_on_c, 0, 59, 72
1, 17673, Note_off_c, 0, 65, 60
1, 17702, Note_off_c, 0, 40, 59
1, 17716, Note_off_c, 0, 52, 58
1, 17787, Note_on_c, 0, 62, 84
1, 17793, Note_on_c, 0, 52, 74
1, 17799, Note_on_c, 0, 40, 65
1, 17832, Note_off_c, 0, 59, 58
1, 17899, Note_on_c, 0, 65, 82
1, 17925, Note_off_c, 0, 40, 61
1, 17936, Note_off_c, 0, 62, 60
1, 17940, Note_off_c, 0, 52, 60
1, 18008, Note_off_c, 0, 65, 60
1, 18027, Note_on_c, 0, 71, 88
1, 18044, Note_on_c, 0, 52, 67
1, 18045, Note_on_c, 0, 40, 61
1, 18151, Note_on_c, 0, 62, 75
1, 18190, Note_off_c, 0, 52, 62
1, 18197, Note_off_c, 0, 40, 60
1, 18198, Control_c, 0, 64, 32
1, 18212, Control_c, 0, 64, 57
1, 18227, Control_c, 0, 64, 63
1, 18242, Control_c, 0, 64, 64
1, 18257, Control_c, 0, 64, 65
1, 18260, Note_on_c, 0, 65, 71
1, 18263, Note_off_c, 0, 71, 59
1, 18282, Note_on_c, 0, 52, 56
1, 18284, Note_on_c, 0, 40, 45
1, 18286, Control_c, 0, 64, 65
1, 18301, Control_c, 0, 64, 66
1, 18316, Control_c, 0, 64, 66
1, 18324, Note_off_c, 0, 62, 59
1, 18331, Control_c, 0, 64, 67
1, 18362, Note_off_c, 0, 52, 60
1, 18366, Note_off_c, 0, 40, 57
1, 18376, Note_on_c, 0, 71, 72
1, 18430, Note_off_c, 0, 65, 57
1, 18434, Control_c, 0, 64, 66
1, 18449, Control_c, 0, 64, 63
1, 18464, Control_c, 0, 64, 51
1, 18479, Control_c, 0, 64, 0
1, 18498, Note_off_c, 0, 71, 59
1, 18500, Note_on_c, 0, 52, 56
1, 18506, Note_on_c, 0, 68, 74
1, 18507, Note_on_c, 0, 40, 51
1, 18523, Note_on_c, 0, 64, 49
1, 18582, Control_c, 0, 64, 62
1, 18597, Control_c, 0, 64, 70
1, 18611, Note_off_c, 0, 68, 62
1, 18612, Control_c, 0, 64, 75
1, 18627, Control_c, 0, 64, 77
1, 18642, Control_c, 0, 64, 80
1, 18656, Control_c, 0, 64, 84
1, 18664, Note_off_c, 0, 40, 59
1, 18670, Control_c, 0, 64, 90
1, 18685, Control_c, 0, 64, 97
1, 18700, Control_c, 0, 64, 103
1, 18715, Control_c, 0, 64, 107
1, 18729, Note_off_c, 0, 52, 64
1, 18729, Control_c, 0, 64, 110
1, 18744, Control_c, 0, 64, 111
1, 18758, Note_on_c, 0, 76, 70
1, 18759, Control_c, 0, 64, 112
1, 18811, Note_off_c, 0, 64, 42
1, 18974, Control_c, 0, 64, 110
1, 18990, Control_c, 0, 64, 96
1, 19005, Control_c, 0, 64, 80
1, 19010, Note_on_c, 0, 64, 59
1, 19019, Control_c, 0, 64, 65
1, 19024, Note_on_c, 0, 52, 52
1, 19034, Control_c, 0, 64, 41
1, 19049, Control_c, 0, 64, 0
1, 19093, Control_c, 0, 64, 12
1, 19108, Control_c, 0, 64, 60
1, 19123, Control_c, 0, 64, 67
1, 19135, Note_off_c, 0, 76, 60
1, 19138, Control_c, 0, 64, 70
1, 19153, Control_c, 0, 64, 72
1, 19168, Control_c, 0, 64, 73
1, 19183, Control_c, 0, 64, 74
1, 19197, Control_c, 0, 64, 76
1, 19212, Control_c, 0, 64, 78
1, 19227, Control_c, 0, 64, 79
1, 19242, Control_c, 0, 64, 80
1, 19247, Note_on_c, 0, 76, 71
1, 19257, Control_c, 0, 64, 80
1, 19286, Control_c, 0, 64, 81
1, 19363, Note_off_c, 0, 64, 54
1, 19375, Control_c, 0, 64, 81
1, 19378, Note_off_c, 0, 52, 36
1, 19390, Control_c, 0, 64, 82
1, 19404, Control_c, 0, 64, 83
1, 19419, Control_c, 0, 64, 84
1, 19434, Control_c, 0, 64, 85
1, 19488, Note_on_c, 0, 64, 59
1, 19498, Note_on_c, 0, 52, 56
1, 19575, Note_off_c, 0, 76, 60
1, 19725, Note_on_c, 0, 76, 80
1, 19856, Note_off_c, 0, 52, 52
1, 19869, Note_off_c, 0, 64, 50
1, 19969, Note_on_c, 0, 64, 58
1, 19984, Note_on_c, 0, 52, 60
1, 20069, Note_off_c, 0, 76, 60
1, 20205, Note_on_c, 0, 76, 83
1, 20282, Note_off_c, 0, 52, 52
1, 20311, Note_off_c, 0, 64, 56
1, 20390, Note_off_c, 0, 76, 59
1, 20413, Control_c, 0, 64, 83
1, 20428, Control_c, 0, 64, 77
1, 20442, Control_c, 0, 64, 67
1, 20457, Control_c, 0, 64, 39
1, 20472, Control_c, 0, 64, 0
1, 20473, Note_on_c, 0, 64, 41
1, 20482, Note_on_c, 0, 77, 55
1, 20499, Note_on_c, 0, 57, 39
1, 20510, Note_on_c, 0, 60, 24
1, 20524, Note_on_c, 0, 52, 24
1, 20589, Note_on_c, 0, 69, 50
1, 20630, Note_off_c, 0, 64, 57
1, 20634, Note_off_c, 0, 57, 55
1, 20636, Note_off_c, 0, 60, 51
1, 20636, Control_c, 0, 64, 10
1, 20644, Note_off_c, 0, 52, 42
1, 20651, Control_c, 0, 64, 52
1, 20665, Control_c, 0, 64, 56
1, 20680, Note_off_c, 0, 77, 56
1, 20680, Control_c, 0, 64, 55
1, 20697, Note_on_c, 0, 72, 52
1, 20714, Note_on_c, 0, 60, 28
1, 20715, Note_on_c, 0, 64, 45
1, 20720, Note_on_c, 0, 57, 33
1, 20725, Control_c, 0, 64, 55
1, 20728, Note_on_c, 0, 52, 47
1, 20737, Note_off_c, 0, 69, 50
1, 20769, Control_c, 0, 64, 56
1, 20798, Control_c, 0, 64, 56
1, 20804, Note_on_c, 0, 76, 68
1, 20828, Control_c, 0, 64, 55
1, 20832, Note_off_c, 0, 52, 59
1, 20843, Control_c, 0, 64, 55
1, 20845, Note_off_c, 0, 64, 61
1, 20849, Note_off_c, 0, 60, 56
1, 20850, Note_off_c, 0, 57, 56
1, 20858, Control_c, 0, 64, 53
1, 20873, Control_c, 0, 64, 48
1, 20888, Control_c, 0, 64, 26
1, 20902, Control_c, 0, 64, 0
1, 20923, Note_on_c, 0, 77, 73
1, 20925, Note_on_c, 0, 64, 62
1, 20928, Note_on_c, 0, 60, 46
1, 20932, Note_on_c, 0, 57, 48
1, 20933, Note_on_c, 0, 52, 53
1, 20953, Note_off_c, 0, 76, 39
1, 20962, Note_off_c, 0, 72, 37
1, 21036, Note_on_c, 0, 69, 65
1, 21074, Note_off_c, 0, 52, 55
1, 21080, Note_off_c, 0, 64, 60
1, 21081, Note_off_c, 0, 60, 58
1, 21084, Note_off_c, 0, 57, 58
1, 21117, Note_off_c, 0, 77, 51
1, 21147, Note_on_c, 0, 64, 68
1, 21151, Note_on_c, 0, 60, 49
1, 21153, Note_on_c, 0, 72, 76
1, 21158, Note_on_c, 0, 52, 57
1, 21163, Note_on_c, 0, 57, 41
1, 21208, Note_off_c, 0, 69, 65
1, 21267, Note_on_c, 0, 76, 78
1, 21275, Note_off_c, 0, 60, 61
1, 21283, Note_off_c, 0, 52, 60
1, 21287, Note_off_c, 0, 64, 63
1, 21379, Note_on_c, 0, 59, 63
1, 21382, Note_on_c, 0, 77, 87
1, 21388, Note_on_c, 0, 64, 70
1, 21390, Note_on_c, 0, 62, 70
1, 21393, Note_on_c, 0, 52, 67
1, 21414, Note_off_c, 0, 72, 63
1, 21416, Note_off_c, 0, 76, 61
1, 21417, Note_off_c, 0, 57, 26
1, 21491, Note_on_c, 0, 71, 82
1, 21530, Note_off_c, 0, 77, 50
1, 21551, Note_off_c, 0, 64, 64
1, 21552, Note_off_c, 0, 62, 59
1, 21553, Note_off_c, 0, 52, 51
1, 21566, Note_off_c, 0, 59, 60
1, 21604, Note_on_c, 0, 74, 83
1, 21615, Note_on_c, 0, 52, 55
1, 21616, Note_on_c, 0, 59, 45
1, 21618, Note_on_c, 0, 64, 65
1, 21619, Note_on_c, 0, 62, 66
1, 21629, Note_off_c, 0, 71, 62
1, 21718, Note_on_c, 0, 77, 84
1, 21728, Note_off_c, 0, 52, 57
1, 21736, Note_off_c, 0, 62, 55
1, 21737, Note_off_c, 0, 64, 61
1, 21755, Control_c, 0, 64, 18
1, 21757, Note_off_c, 0, 59, 58
1, 21763, Note_off_c, 0, 74, 63
1, 21770, Control_c, 0, 64, 30
1, 21785, Control_c, 0, 64, 31
1, 21800, Control_c, 0, 64, 21
1, 21815, Control_c, 0, 64, 0
1, 21844, Note_on_c, 0, 83, 95
1, 21856, Note_on_c, 0, 59, 56
1, 21861, Note_on_c, 0, 52, 70
1, 21862, Note_on_c, 0, 62, 66
1, 21862, Note_on_c, 0, 64, 63
1, 21872, Note_off_c, 0, 77, 52
1, 21896, Control_c, 0, 64, 29
1, 21911, Control_c, 0, 64, 51
1, 21926, Control_c, 0, 64, 59
1, 21941, Control_c, 0, 64, 61
1, 21956, Control_c, 0, 64, 62
1, 21958, Note_on_c, 0, 74, 81
1, 21970, Control_c, 0, 64, 63
1, 21985, Control_c, 0, 64, 65
1, 22000, Control_c, 0, 64, 67
1, 22002, Note_off_c, 0, 64, 61
1, 22002, Note_off_c, 0, 62, 55
1, 22003, Note_off_c, 0, 52, 59
1, 22014, Control_c, 0, 64, 70
1, 22029, Control_c, 0, 64, 72
1, 22044, Control_c, 0, 64, 75
1, 22059, Control_c, 0, 64, 76
1, 22061, Note_off_c, 0, 83, 49
1, 22064, Note_off_c, 0, 59, 0
1, 22074, Control_c, 0, 64, 77
1, 22081, Note_on_c, 0, 59, 35
1, 22083, Note_on_c, 0, 77, 83
1, 22089, Control_c, 0, 64, 77
1, 22089, Note_on_c, 0, 52, 57
1, 22094, Note_on_c, 0, 62, 62
1, 22094, Note_on_c, 0, 64, 60
1, 22104, Control_c, 0, 64, 78
1, 22133, Control_c, 0, 64, 78
1, 22145, Note_off_c, 0, 74, 62
1, 22179, Note_on_c, 0, 83, 85
1, 22190, Note_off_c, 0, 52, 58
1, 22204, Note_off_c, 0, 62, 36
1, 22211, Note_off_c, 0, 64, 36
1, 22241, Note_off_c, 0, 59, 55
1, 22268, Control_c, 0, 64, 77
1, 22283, Control_c, 0, 64, 72
1, 22292, Note_off_c, 0, 77, 51
1, 22298, Control_c, 0, 64, 63
1, 22308, Note_on_c, 0, 80, 83
1, 22312, Control_c, 0, 64, 0
1, 22323, Note_on_c, 0, 64, 71
1, 22325, Note_on_c, 0, 76, 68
1, 22329, Note_on_c, 0, 52, 63
1, 22336, Note_off_c, 0, 83, 58
1, 22416, Control_c, 0, 64, 23
1, 22430, Control_c, 0, 64, 59
1, 22445, Control_c, 0, 64, 64
1, 22453, Note_off_c, 0, 76, 63
1, 22460, Control_c, 0, 64, 66
1, 22470, Note_off_c, 0, 80, 64
1, 22475, Control_c, 0, 64, 67
1, 22490, Control_c, 0, 64, 69
1, 22504, Control_c, 0, 64, 72
1, 22519, Control_c, 0, 64, 74
1, 22534, Control_c, 0, 64, 74
1, 22548, Control_c, 0, 64, 75
1, 22552, Note_on_c, 0, 88, 87
1, 22561, Note_on_c, 0, 76, 78
1, 22593, Control_c, 0, 64, 75
1, 22616, Control_c, 0, 64, 77
1, 22630, Control_c, 0, 64, 79
1, 22645, Control_c, 0, 64, 81
1, 22660, Control_c, 0, 64, 83
1, 22675, Control_c, 0, 64, 85
1, 22690, Control_c, 0, 64, 88
1, 22691, Note_off_c, 0, 64, 57
1, 22700, Note_off_c, 0, 52, 36
1, 22705, Control_c, 0, 64, 91
1, 22719, Control_c, 0, 64, 94
1, 22734, Control_c, 0, 64, 97
1, 22749, Control_c, 0, 64, 99
1, 22763, Control_c, 0, 64, 100
1, 22778, Control_c, 0, 64, 101
1, 22793, Note_on_c, 0, 64, 86
1, 22793, Control_c, 0, 64, 101
1, 22800, Note_on_c, 0, 52, 81
1, 22808, Control_c, 0, 64, 102
1, 22837, Control_c, 0, 64, 102
1, 22852, Control_c, 0, 64, 103
1, 22861, Note_off_c, 0, 88, 59
1, 22897, Control_c, 0, 64, 103
1, 22915, Note_off_c, 0, 76, 59
1, 22927, Control_c, 0, 64, 104
1, 22956, Control_c, 0, 64, 104
1, 22986, Control_c, 0, 64, 105
1, 23027, Note_on_c, 0, 88, 99
1, 23031, Control_c, 0, 64, 105
1, 23036, Note_on_c, 0, 76, 83
1, 23061, Control_c, 0, 64, 106
1, 23076, Control_c, 0, 64, 106
1, 23090, Control_c, 0, 64, 107
1, 23105, Control_c, 0, 64, 108
1, 23120, Control_c, 0, 64, 110
1, 23135, Control_c, 0, 64, 114
1, 23150, Control_c, 0, 64, 125
1, 23155, Note_off_c, 0, 52, 58
1, 23164, Control_c, 0, 64, 127
1, 23166, Note_off_c, 0, 64, 56
1, 23252, Note_on_c, 0, 64, 90
1, 23256, Note_on_c, 0, 52, 83
1, 23341, Note_off_c, 0, 76, 63
1, 23381, Note_off_c, 0, 88, 55
1, 23476, Note_on_c, 0, 88, 99
1, 23481, Note_on_c, 0, 76, 93
1, 23600, Note_off_c, 0, 64, 56
1, 23603, Note_off_c, 0, 52, 52
1, 23714, Note_on_c, 0, 64, 87
1, 23721, Note_on_c, 0, 52, 80
1, 23753, Note_off_c, 0, 76, 60
1, 23770, Note_off_c, 0, 88, 56
1, 23942, Note_on_c, 0, 76, 87
1, 23942, Note_on_c, 0, 88, 87
1, 24002, Note_off_c, 0, 76, 56
1, 24002, Note_off_c, 0, 88, 64
1, 24031, Note_off_c, 0, 52, 57
1, 24048, Poly_aftertouch_c, 0, 84, 127
1, 24056, Note_off_c, 0, 64, 62
1, 24119, Poly_aftertouch_c, 0, 84, 0
1, 24191, Note_on_c, 0, 84, 70
1, 24199, Note_on_c, 0, 93, 93
1, 24199, Note_on_c, 0, 53, 82
1, 24200, Note_on_c, 0, 81, 86
1, 24204, Note_on_c, 0, 65, 81
1, 24237, Note_off_c, 0, 65, 60
1, 24238, Note_off_c, 0, 93, 63
1, 24246, Control_c, 0, 64, 115
1, 24248, Note_off_c, 0, 84, 66
1, 24259, Note_off_c, 0, 53, 66
1, 24261, Control_c, 0, 64, 68
1, 24262, Note_off_c, 0, 81, 65
1, 24275, Control_c, 0, 64, 0
1, 24540, Note_on_c, 0, 81, 92
1, 24553, Note_on_c, 0, 69, 84
1, 24554, Note_on_c, 0, 75, 85
1, 24560, Note_on_c, 0, 72, 76
1, 24562, Note_on_c, 0, 53, 71
1, 24563, Note_on_c, 0, 41, 71
1, 24632, Control_c, 0, 64, 45
1, 24647, Control_c, 0, 64, 59
1, 24662, Control_c, 0, 64, 64
1, 24677, Control_c, 0, 64, 68
1, 24692, Control_c, 0, 64, 73
1, 24706, Control_c, 0, 64, 80
1, 24721, Control_c, 0, 64, 87
1, 24736, Control_c, 0, 64, 95
1, 24751, Control_c, 0, 64, 105
1, 24766, Control_c, 0, 64, 116
1, 24781, Control_c, 0, 64, 127
1, 24875, Note_off_c, 0, 81, 56
1, 24885, Note_off_c, 0, 69, 62
1, 24896, Note_off_c, 0, 53, 56
1, 24897, Note_off_c, 0, 75, 36
1, 24899, Note_off_c, 0, 41, 61
1, 24912, Note_off_c, 0, 72, 51
1, 24987, Note_on_c, 0, 81, 81
1, 24988, Note_on_c, 0, 69, 78
1, 24992, Note_on_c, 0, 75, 78
1, 25001, Note_on_c, 0, 41, 53
1, 25010, Note_on_c, 0, 53, 57
1, 25040, Note_off_c, 0, 81, 61
1, 25048, Note_off_c, 0, 75, 65
1, 25073, Note_off_c, 0, 53, 56
1, 25079, Note_off_c, 0, 69, 62
1, 25081, Note_off_c, 0, 41, 56
1, 25188, Control_c, 0, 64, 116
1, 25203, Control_c, 0, 64, 81
1, 25218, Control_c, 0, 64, 60
1, 25232, Note_on_c, 0, 82, 88
1, 25232, Control_c, 0, 64, 0
1, 25233, Note_on_c, 0, 74, 70
1, 25236, Note_on_c, 0, 70, 77
1, 25241, Note_on_c, 0, 41, 59
1, 25242, Note_on_c, 0, 53, 68
1, 25255, Note_off_c, 0, 70, 72
1, 25257, Note_off_c, 0, 74, 70
1, 25285, Note_off_c, 0, 41, 63
1, 25285, Note_off_c, 0, 82, 64
1, 25288, Note_off_c, 0, 53, 64
1, 25506, Note_on_c, 0, 93, 106
1, 25511, Note_on_c, 0, 81, 101
1, 25512, Note_on_c, 0, 84, 86
1, 25513, Note_on_c, 0, 53, 85
1, 25513, Note_on_c, 0, 87, 91
1, 25514, Note_on_c, 0, 41, 78
1, 25559, Control_c, 0, 64, 59
1, 25574, Control_c, 0, 64, 76
1, 25588, Control_c, 0, 64, 127
1, 25633, Note_on_c, 0, 91, 26
1, 25831, Note_off_c, 0, 87, 56
1, 25890, Note_off_c, 0, 91, 37
1, 25892, Note_off_c, 0, 93, 57
1, 25893, Note_off_c, 0, 81, 55
1, 25898, Note_off_c, 0, 41, 61
1, 25904, Note_off_c, 0, 53, 49
1, 25907, Note_off_c, 0, 84, 56
1, 25963, Note_on_c, 0, 81, 88
1, 25963, Note_on_c, 0, 93, 92
1, 25968, Note_on_c, 0, 87, 89
1, 25970, Note_on_c, 0, 53, 72
1, 25974, Note_on_c, 0, 41, 70
1, 25980, Note_on_c, 0, 84, 53
1, 26003, Note_off_c, 0, 84, 61
1, 26033, Note_off_c, 0, 87, 63
1, 26049, Note_off_c, 0, 93, 57
1, 26063, Note_off_c, 0, 81, 60
1, 26086, Note_off_c, 0, 41, 57
1, 26095, Note_off_c, 0, 53, 57
1, 26199, Note_on_c, 0, 86, 72
1, 26206, Note_on_c, 0, 94, 94
1, 26208, Note_on_c, 0, 82, 93
1, 26208, Note_on_c, 0, 53, 83
1, 26214, Note_on_c, 0, 41, 67
1, 26219, Control_c, 0, 64, 84
1, 26234, Control_c, 0, 64, 60
1, 26241, Note_off_c, 0, 86, 65
1, 26244, Note_off_c, 0, 94, 68
1, 26249, Control_c, 0, 64, 0
1, 26253, Note_off_c, 0, 41, 64
1, 26257, Note_off_c, 0, 53, 59
1, 26266, Note_off_c, 0, 82, 65
1, 26460, Note_on_c, 0, 81, 94
1, 26470, Note_on_c, 0, 41, 71
1, 26471, Note_on_c, 0, 69, 74
1, 26472, Note_on_c, 0, 53, 74
1, 26472, Note_on_c, 0, 72, 68
1, 26474, Note_on_c, 0, 75, 76
1, 26685, Control_c, 0, 64, 51
1, 26700, Control_c, 0, 64, 61
1, 26715, Control_c, 0, 64, 64
1, 26730, Control_c, 0, 64, 65
1, 26796, Note_off_c, 0, 75, 51
1, 26820, Note_off_c, 0, 69, 60
1, 26829, Note_off_c, 0, 72, 56
1, 26832, Note_off_c, 0, 81, 52
1, 26836, Note_off_c, 0, 53, 56
1, 26843, Note_off_c, 0, 41, 56
1, 26903, Note_on_c, 0, 81, 73
1, 26906, Note_on_c, 0, 41, 44
1, 26912, Note_on_c, 0, 69, 81
1, 26914, Note_on_c, 0, 53, 66
1, 26919, Note_on_c, 0, 75, 74
1, 26937, Note_on_c, 0, 72, 19
1, 26967, Note_off_c, 0, 81, 61
1, 26976, Note_off_c, 0, 75, 64
1, 26977, Note_off_c, 0, 53, 59
1, 26979, Note_off_c, 0, 72, 29
1, 26998, Note_off_c, 0, 41, 57
1, 27000, Note_off_c, 0, 69, 60
1, 27086, Control_c, 0, 64, 65
1, 27108, Control_c, 0, 64, 64
1, 27123, Control_c, 0, 64, 60
1, 27138, Control_c, 0, 64, 37
1, 27145, Note_on_c, 0, 74, 70
1, 27148, Note_on_c, 0, 82, 88
1, 27152, Note_on_c, 0, 70, 76
1, 27152, Control_c, 0, 64, 0
1, 27154, Note_on_c, 0, 41, 61
1, 27154, Note_on_c, 0, 53, 69
1, 27171, Note_off_c, 0, 74, 68
1, 27174, Note_off_c, 0, 70, 71
1, 27198, Note_off_c, 0, 82, 64
1, 27209, Note_off_c, 0, 41, 61
1, 27216, Note_off_c, 0, 53, 62
1, 27403, Note_on_c, 0, 93, 105
1, 27407, Note_on_c, 0, 53, 87
1, 27407, Note_on_c, 0, 81, 100
1, 27407, Note_on_c, 0, 41, 81
1, 27409, Note_on_c, 0, 84, 88
1, 27410, Note_on_c, 0, 87, 89
1, 27434, Control_c, 0, 64, 68
1, 27449, Control_c, 0, 64, 88
1, 27463, Control_c, 0, 64, 127
1, 27706, Note_off_c, 0, 87, 53
1, 27713, Note_off_c, 0, 84, 54
1, 27750, Note_off_c, 0, 81, 54
1, 27752, Note_off_c, 0, 41, 57
1, 27754, Note_off_c, 0, 93, 52
1, 27768, Note_off_c, 0, 53, 58
1, 27857, Note_on_c, 0, 81, 96
1, 27857, Note_on_c, 0, 93, 98
1, 27862, Note_on_c, 0, 84, 88
1, 27862, Note_on_c, 0, 87, 89
1, 27866, Note_on_c, 0, 53, 88
1, 27868, Note_on_c, 0, 41, 76
1, 27918, Note_off_c, 0, 41, 60
1, 27925, Note_off_c, 0, 53, 61
1, 27929, Note_off_c, 0, 87, 62
1, 27943, Note_off_c, 0, 84, 60
1, 27957, Note_off_c, 0, 93, 57
1, 27966, Note_off_c, 0, 81, 57
1, 28110, Note_on_c, 0, 93, 99
1, 28111, Note_on_c, 0, 52, 101
1, 28113, Note_on_c, 0, 81, 98
1, 28113, Note_on_c, 0, 88, 92
1, 28116, Note_on_c, 0, 40, 91
1, 28117, Note_on_c, 0, 84, 85
1, 28138, Control_c, 0, 64, 79
1, 28153, Control_c, 0, 64, 55
1, 28167, Control_c, 0, 64, 0
1, 28244, Note_off_c, 0, 93, 56
1, 28265, Note_off_c, 0, 40, 65
1, 28291, Note_off_c, 0, 88, 62
1, 28304, Note_off_c, 0, 52, 66
1, 28305, Note_off_c, 0, 84, 63
1, 28324, Note_off_c, 0, 81, 67
1, 28580, Note_on_c, 0, 64, 92
1, 28580, Note_on_c, 0, 76, 94
1, 28580, Note_on_c, 0, 88, 96
1, 28582, Note_on_c, 0, 52, 86
1, 28582, Note_on_c, 0, 81, 92
1, 28584, Note_on_c, 0, 84, 92
1, 28585, Note_on_c, 0, 60, 77
1, 28596, Note_on_c, 0, 57, 76
1, 28831, Note_off_c, 0, 52, 64
1, 28833, Note_off_c, 0, 76, 62
1, 28841, Note_off_c, 0, 88, 56
1, 28842, Note_off_c, 0, 64, 61
1, 28846, Note_off_c, 0, 84, 58
1, 28855, Note_off_c, 0, 60, 61
1, 28857, Note_off_c, 0, 57, 58
1, 28866, Note_off_c, 0, 81, 57
1, 29079, Note_on_c, 0, 88, 94
1, 29082, Note_on_c, 0, 64, 96
1, 29084, Note_on_c, 0, 52, 86
1, 29084, Note_on_c, 0, 76, 98
1, 29085, Note_on_c, 0, 59, 81
1, 29085, Note_on_c, 0, 81, 92
1, 29087, Note_on_c, 0, 83, 88
1, 29088, Note_on_c, 0, 57, 77
1, 29270, Note_off_c, 0, 88, 56
1, 29285, Note_off_c, 0, 52, 55
1, 29288, Note_off_c, 0, 76, 58
1, 29326, Note_off_c, 0, 83, 58
1, 29332, Note_off_c, 0, 64, 57
1, 29335, Note_off_c, 0, 81, 57
1, 29336, Note_off_c, 0, 57, 63
1, 29359, Note_off_c, 0, 59, 59
1, 29604, Note_on_c, 0, 88, 89
1, 29607, Note_on_c, 0, 76, 96
1, 29608, Note_on_c, 0, 80, 91
1, 29609, Note_on_c, 0, 64, 95
1, 29610, Note_on_c, 0, 59, 79
1, 29610, Note_on_c, 0, 56, 81
1, 29610, Note_on_c, 0, 83, 87
1, 29614, Note_on_c, 0, 52, 83
1, 29637, Control_c, 0, 64, 53
1, 29651, Control_c, 0, 64, 84
1, 29666, Control_c, 0, 64, 127
1, 29703, Note_off_c, 0, 88, 60
1, 29747, Note_off_c, 0, 64, 61
1, 29759, Note_off_c, 0, 52, 62
1, 29772, Note_off_c, 0, 83, 60
1, 29783, Note_off_c, 0, 59, 58
1, 29799, Note_off_c, 0, 80, 63
1, 29821, Note_off_c, 0, 56, 62
1, 29823, Note_off_c, 0, 76, 64
1, 29859, Control_c, 0, 64, 83
1, 29874, Control_c, 0, 64, 65
1, 29888, Control_c, 0, 64, 0
1, 30133, Control_c, 0, 64, 32
1, 30147, Control_c, 0, 64, 61
1, 30162, Control_c, 0, 64, 69
1, 30174, Note_on_c, 0, 69, 96
1, 30178, Control_c, 0, 64, 81
1, 30183, Note_on_c, 0, 33, 91
1, 30193, Control_c, 0, 64, 94
1, 30208, Control_c, 0, 64, 103
1, 30223, Control_c, 0, 64, 107
1, 30238, Control_c, 0, 64, 109
1, 30242, Note_off_c, 0, 69, 62
1, 30258, Note_off_c, 0, 33, 62
1, 30295, Note_on_c, 0, 45, 81
1, 30298, Note_on_c, 0, 57, 84
1, 30325, Note_off_c, 0, 45, 67
1, 30351, Note_off_c, 0, 57, 63
1, 30370, Control_c, 0, 64, 108
1, 30385, Control_c, 0, 64, 103
1, 30400, Note_on_c, 0, 57, 81
1, 30400, Control_c, 0, 64, 90
1, 30403, Note_on_c, 0, 45, 82
1, 30415, Control_c, 0, 64, 77
1, 30430, Control_c, 0, 64, 65
1, 30439, Note_off_c, 0, 45, 63
1, 30439, Note_off_c, 0, 57, 65
1, 30444, Control_c, 0, 64, 28
1, 30459, Control_c, 0, 64, 0
1, 30498, Note_on_c, 0, 57, 84
1, 30504, Note_on_c, 0, 45, 83
1, 30543, Note_off_c, 0, 57, 63
1, 30548, Note_off_c, 0, 45, 62
1, 30605, Note_on_c, 0, 45, 86
1, 30605, Note_on_c, 0, 57, 84
1, 30648, Note_off_c, 0, 45, 66
1, 30648, Note_off_c, 0, 57, 65
1, 30886, Note_on_c, 0, 56, 53
1, 30886, Note_on_c, 0, 59, 52
1, 30897, Note_on_c, 0, 40, 40
1, 30905, Note_on_c, 0, 52, 34
1, 30919, Note_off_c, 0, 56, 63
1, 30930, Note_off_c, 0, 59, 58
1, 30931, Note_off_c, 0, 40, 51
1, 30943, Note_off_c, 0, 52, 42
1, 31122, Note_on_c, 0, 60, 53
1, 31126, Note_on_c, 0, 57, 53
1, 31129, Note_on_c, 0, 45, 54
1, 31142, Note_on_c, 0, 52, 47
1, 31167, Note_off_c, 0, 45, 63
1, 31168, Note_off_c, 0, 57, 59
1, 31172, Note_off_c, 0, 52, 60
1, 31173, Note_off_c, 0, 60, 55
1, 31377, Note_on_c, 0, 40, 37
1, 31380, Note_on_c, 0, 56, 47
1, 31380, Note_on_c, 0, 52, 52
1, 31381, Note_on_c, 0, 59, 44
1, 31424, Note_off_c, 0, 40, 51
1, 31440, Note_off_c, 0, 56, 55
1, 31443, Note_off_c, 0, 52, 58
1, 31458, Note_off_c, 0, 59, 57
1, 31624, Note_on_c, 0, 57, 45
1, 31624, Note_on_c, 0, 60, 50
1, 31628, Note_on_c, 0, 45, 45
1, 31639, Note_on_c, 0, 52, 39
1, 31667, Note_off_c, 0, 45, 64
1, 31673, Note_off_c, 0, 57, 57
1, 31675, Note_off_c, 0, 60, 56
1, 31676, Note_off_c, 0, 52, 59
1, 31866, Note_on_c, 0, 59, 60
1, 31869, Note_on_c, 0, 56, 56
1, 31874, Note_on_c, 0, 40, 51
1, 31876, Note_on_c, 0, 52, 59
1, 31902, Note_off_c, 0, 59, 62
1, 31905, Note_off_c, 0, 52, 66
1, 31907, Note_off_c, 0, 56, 63
1, 31908, Note_off_c, 0, 40, 64
1, 32159, Note_on_c, 0, 69, 93
1, 32161, Note_on_c, 0, 33, 92
1, 32233, Note_off_c, 0, 69, 68
1, 32248, Note_off_c, 0, 33, 66
1, 32266, Note_on_c, 0, 45, 83
1, 32269, Note_on_c, 0, 57, 81
1, 32300, Note_off_c, 0, 45, 66
1, 32322, Note_off_c, 0, 57, 64
1, 32373, Note_on_c, 0, 57, 80
1, 32377, Note_on_c, 0, 45, 80
1, 32415, Note_off_c, 0, 57, 65
1, 32423, Note_off_c, 0, 45, 63
1, 32465, Note_on_c, 0, 57, 83
1, 32476, Note_on_c, 0, 45, 80
1, 32513, Note_off_c, 0, 57, 63
1, 32528, Note_off_c, 0, 45, 64
1, 32586, Note_on_c, 0, 45, 87
1, 32588, Note_on_c, 0, 57, 93
1, 32638, Note_off_c, 0, 45, 66
1, 32652, Note_off_c, 0, 57, 54
1, 32874, Note_on_c, 0, 59, 54
1, 32883, Note_on_c, 0, 40, 51
1, 32886, Note_on_c, 0, 56, 41
1, 32898, Note_on_c, 0, 52, 41
1, 32910, Note_off_c, 0, 40, 61
1, 32935, Note_off_c, 0, 56, 59
1, 32937, Note_off_c, 0, 52, 65
1, 32943, Note_off_c, 0, 59, 61
1, 33118, Note_on_c, 0, 60, 57
1, 33128, Note_on_c, 0, 45, 53
1, 33128, Note_on_c, 0, 52, 52
1, 33130, Note_on_c, 0, 57, 47
1, 33154, Note_off_c, 0, 45, 62
1, 33157, Note_off_c, 0, 52, 60
1, 33157, Note_off_c, 0, 60, 58
1, 33160, Note_off_c, 0, 57, 58
1, 33354, Note_on_c, 0, 56, 53
1, 33359, Note_on_c, 0, 52, 59
1, 33359, Note_on_c, 0, 59, 56
1, 33362, Note_on_c, 0, 40, 54
1, 33387, Note_off_c, 0, 56, 62
1, 33391, Note_off_c, 0, 52, 66
1, 33394, Note_off_c, 0, 40, 65
1, 33398, Note_off_c, 0, 59, 58
1, 33594, Note_on_c, 0, 57, 54
1, 33595, Note_on_c, 0, 60, 60
1, 33598, Note_on_c, 0, 45, 55
1, 33601, Note_on_c, 0, 52, 53
1, 33631, Note_off_c, 0, 45, 64
1, 33637, Note_off_c, 0, 52, 66
1, 33637, Note_off_c, 0, 57, 60
1, 33651, Note_off_c, 0, 60, 58
1, 33845, Note_on_c, 0, 62, 68
1, 33849, Note_on_c, 0, 59, 58
1, 33855, Note_on_c, 0, 43, 62
1, 33860, Note_on_c, 0, 55, 43
1, 33876, Note_off_c, 0, 62, 62
1, 33879, Note_off_c, 0, 59, 65
1, 33884, Note_off_c, 0, 43, 63
1, 33891, Note_off_c, 0, 55, 52
1, 34131, Note_on_c, 0, 72, 95
1, 34135, Note_on_c, 0, 36, 90
1, 34216, Note_off_c, 0, 72, 65
1, 34237, Note_off_c, 0, 36, 63
1, 34251, Note_on_c, 0, 48, 81
1, 34260, Note_on_c, 0, 60, 80
1, 34295, Note_off_c, 0, 48, 60
1, 34311, Note_off_c, 0, 60, 61
1, 34354, Note_on_c, 0, 60, 77
1, 34356, Note_on_c, 0, 48, 73
1, 34403, Note_off_c, 0, 60, 63
1, 34407, Note_off_c, 0, 48, 62
1, 34452, Note_on_c, 0, 48, 75
1, 34453, Note_on_c, 0, 60, 86
1, 34504, Note_off_c, 0, 60, 63
1, 34507, Note_off_c, 0, 48, 60
1, 34563, Note_on_c, 0, 48, 83
1, 34564, Note_on_c, 0, 60, 83
1, 34613, Note_off_c, 0, 60, 65
1, 34624, Note_off_c, 0, 48, 63
1, 34851, Note_on_c, 0, 59, 49
1, 34853, Note_on_c, 0, 43, 47
1, 34858, Note_on_c, 0, 62, 48
1, 34868, Note_on_c, 0, 55, 36
1, 34889, Note_off_c, 0, 43, 59
1, 34894, Note_off_c, 0, 59, 59
1, 34899, Note_off_c, 0, 62, 57
1, 34908, Note_off_c, 0, 55, 50
1, 35090, Note_on_c, 0, 48, 56
1, 35095, Note_on_c, 0, 64, 48
1, 35098, Note_on_c, 0, 60, 51
1, 35105, Note_on_c, 0, 55, 45
1, 35123, Note_off_c, 0, 48, 63
1, 35145, Note_off_c, 0, 55, 51
1, 35145, Note_off_c, 0, 60, 56
1, 35156, Note_off_c, 0, 64, 60
1, 35339, Note_on_c, 0, 43, 48
1, 35345, Note_on_c, 0, 62, 54
1, 35349, Note_on_c, 0, 59, 50
1, 35353, Note_on_c, 0, 55, 47
1, 35375, Note_off_c, 0, 43, 50
1, 35382, Note_off_c, 0, 55, 60
1, 35385, Note_off_c, 0, 59, 62
1, 35397, Note_off_c, 0, 62, 53
1, 35580, Note_on_c, 0, 60, 54
1, 35583, Note_on_c, 0, 64, 53
1, 35589, Note_on_c, 0, 48, 50
1, 35595, Note_on_c, 0, 55, 47
1, 35619, Note_off_c, 0, 48, 54
1, 35622, Note_off_c, 0, 55, 57
1, 35625, Note_off_c, 0, 60, 57
1, 35625, Note_off_c, 0, 64, 61
1, 35832, Note_on_c, 0, 62, 60
1, 35836, Note_on_c, 0, 43, 57
1, 35839, Note_on_c, 0, 59, 55
1, 35853, Note_on_c, 0, 55, 39
1, 35873, Note_off_c, 0, 59, 63
1, 35876, Note_off_c, 0, 43, 61
1, 35886, Note_off_c, 0, 55, 51
1, 35886, Note_off_c, 0, 62, 59
1, 36126, Note_on_c, 0, 72, 94
1, 36135, Note_on_c, 0, 36, 90
1, 36138, Control_c, 0, 64, 24
1, 36153, Control_c, 0, 64, 46
1, 36168, Control_c, 0, 64, 51
1, 36182, Control_c, 0, 64, 52
1, 36197, Control_c, 0, 64, 51
1, 36212, Control_c, 0, 64, 51
1, 36218, Note_off_c, 0, 72, 61
1, 36224, Note_off_c, 0, 36, 64
1, 36242, Control_c, 0, 64, 50
1, 36253, Note_on_c, 0, 48, 76
1, 36256, Control_c, 0, 64, 49
1, 36258, Note_on_c, 0, 60, 73
1, 36271, Control_c, 0, 64, 48
1, 36286, Control_c, 0, 64, 45
1, 36290, Note_off_c, 0, 48, 63
1, 36301, Control_c, 0, 64, 43
1, 36311, Note_off_c, 0, 60, 62
1, 36315, Control_c, 0, 64, 39
1, 36330, Control_c, 0, 64, 31
1, 36345, Control_c, 0, 64, 18
1, 36355, Note_on_c, 0, 60, 75
1, 36357, Note_on_c, 0, 48, 74
1, 36360, Control_c, 0, 64, 0
1, 36401, Note_off_c, 0, 60, 64
1, 36403, Note_off_c, 0, 48, 62
1, 36458, Note_on_c, 0, 60, 74
1, 36459, Note_on_c, 0, 48, 81
1, 36510, Note_off_c, 0, 60, 63
1, 36513, Note_off_c, 0, 48, 62
1, 36563, Note_on_c, 0, 60, 83
1, 36568, Note_on_c, 0, 48, 83
1, 36614, Note_off_c, 0, 60, 64
1, 36620, Note_off_c, 0, 48, 63
1, 36837, Note_on_c, 0, 59, 57
1, 36841, Note_on_c, 0, 43, 45
1, 36844, Note_on_c, 0, 62, 42
1, 36862, Note_on_c, 0, 55, 29
1, 36876, Note_off_c, 0, 59, 58
1, 36879, Note_off_c, 0, 43, 54
1, 36904, Note_off_c, 0, 55, 54
1, 36922, Note_off_c, 0, 62, 47
1, 37076, Note_on_c, 0, 64, 60
1, 37086, Note_on_c, 0, 48, 50
1, 37090, Note_on_c, 0, 60, 45
1, 37103, Note_on_c, 0, 55, 32
1, 37115, Note_off_c, 0, 48, 55
1, 37127, Note_off_c, 0, 64, 52
1, 37128, Note_off_c, 0, 60, 61
1, 37137, Note_off_c, 0, 55, 49
1, 37317, Note_on_c, 0, 62, 61
1, 37319, Note_on_c, 0, 43, 50
1, 37328, Note_on_c, 0, 59, 49
1, 37331, Note_on_c, 0, 55, 48
1, 37354, Note_off_c, 0, 59, 60
1, 37357, Note_off_c, 0, 55, 61
1, 37366, Note_off_c, 0, 43, 61
1, 37380, Note_off_c, 0, 62, 57
1, 37553, Note_on_c, 0, 64, 67
1, 37569, Note_on_c, 0, 48, 57
1, 37570, Note_on_c, 0, 55, 44
1, 37574, Note_on_c, 0, 60, 42
1, 37600, Note_off_c, 0, 64, 59
1, 37610, Note_off_c, 0, 55, 54
1, 37610, Note_off_c, 0, 60, 52
1, 37623, Note_off_c, 0, 48, 55
1, 37816, Note_on_c, 0, 66, 72
1, 37828, Note_on_c, 0, 47, 50
1, 37830, Note_on_c, 0, 63, 55
1, 37852, Note_off_c, 0, 63, 61
1, 37864, Note_off_c, 0, 47, 65
1, 37870, Note_off_c, 0, 66, 64
1, 38074, Note_on_c, 0, 67, 81
1, 38081, Note_on_c, 0, 35, 72
1, 38087, Note_on_c, 0, 65, 69
1, 38090, Note_on_c, 0, 62, 67
1, 38160, Note_off_c, 0, 35, 65
1, 38189, Note_on_c, 0, 55, 66
1, 38197, Note_off_c, 0, 65, 59
1, 38202, Note_on_c, 0, 47, 62
1, 38202, Note_off_c, 0, 67, 59
1, 38225, Note_off_c, 0, 55, 66
1, 38228, Note_off_c, 0, 62, 40
1, 38232, Note_off_c, 0, 47, 66
1, 38312, Note_on_c, 0, 67, 66
1, 38314, Note_on_c, 0, 47, 61
1, 38321, Note_on_c, 0, 65, 50
1, 38341, Note_on_c, 0, 62, 40
1, 38346, Note_off_c, 0, 47, 64
1, 38354, Note_off_c, 0, 67, 62
1, 38355, Note_off_c, 0, 65, 63
1, 38373, Note_off_c, 0, 62, 53
1, 38428, Note_on_c, 0, 47, 68
1, 38429, Note_on_c, 0, 65, 67
1, 38429, Note_on_c, 0, 67, 66
1, 38442, Note_on_c, 0, 62, 57
1, 38455, Note_off_c, 0, 67, 66
1, 38457, Note_off_c, 0, 65, 63
1, 38463, Note_off_c, 0, 47, 65
1, 38466, Note_off_c, 0, 62, 58
1, 38538, Note_on_c, 0, 47, 73
1, 38539, Note_on_c, 0, 62, 65
1, 38540, Note_on_c, 0, 67, 73
1, 38544, Note_on_c, 0, 65, 64
1, 38563, Note_off_c, 0, 67, 67
1, 38569, Note_off_c, 0, 62, 63
1, 38571, Note_off_c, 0, 47, 62
1, 38571, Note_off_c, 0, 65, 67
1, 38779, Note_on_c, 0, 68, 91
1, 38782, Note_on_c, 0, 46, 92
1, 38782, Note_on_c, 0, 62, 86
1, 38785, Note_on_c, 0, 65, 85
1, 38825, Note_off_c, 0, 62, 64
1, 38828, Note_off_c, 0, 65, 59
1, 38841, Note_off_c, 0, 46, 62
1, 38851, Note_off_c, 0, 68, 64
1, 39047, Note_on_c, 0, 67, 67
1, 39050, Note_on_c, 0, 35, 77
1, 39059, Note_on_c, 0, 65, 60
1, 39062, Note_on_c, 0, 62, 61
1, 39077, Note_on_c, 0, 64, 55
1, 39116, Note_off_c, 0, 64, 49
1, 39129, Note_off_c, 0, 35, 64
1, 39166, Note_on_c, 0, 55, 60
1, 39168, Note_off_c, 0, 62, 55
1, 39175, Note_on_c, 0, 47, 60
1, 39179, Note_off_c, 0, 65, 51
1, 39193, Note_off_c, 0, 67, 58
1, 39204, Note_off_c, 0, 47, 65
1, 39208, Note_off_c, 0, 55, 64
1, 39284, Note_on_c, 0, 47, 65
1, 39287, Note_on_c, 0, 62, 68
1, 39294, Note_on_c, 0, 67, 70
1, 39296, Note_on_c, 0, 65, 57
1, 39317, Note_off_c, 0, 62, 65
1, 39319, Note_off_c, 0, 47, 64
1, 39325, Note_off_c, 0, 65, 65
1, 39332, Note_off_c, 0, 67, 57
1, 39396, Note_on_c, 0, 47, 75
1, 39399, Note_on_c, 0, 67, 64
1, 39402, Note_on_c, 0, 65, 63
1, 39407, Note_on_c, 0, 62, 62
1, 39432, Note_off_c, 0, 62, 64
1, 39433, Note_off_c, 0, 47, 63
1, 39436, Note_off_c, 0, 65, 60
1, 39446, Note_off_c, 0, 67, 58
1, 39509, Note_on_c, 0, 62, 75
1, 39513, Note_on_c, 0, 67, 68
1, 39515, Note_on_c, 0, 47, 78
1, 39518, Note_on_c, 0, 65, 69
1, 39539, Note_off_c, 0, 62, 63
1, 39542, Note_off_c, 0, 67, 64
1, 39543, Note_off_c, 0, 65, 67
1, 39554, Note_off_c, 0, 47, 63
1, 39752, Note_on_c, 0, 68, 87
1, 39757, Note_on_c, 0, 46, 88
1, 39760, Note_on_c, 0, 62, 86
1, 39763, Note_on_c, 0, 65, 83
1, 39865, Note_off_c, 0, 62, 61
1, 39868, Note_off_c, 0, 65, 61
1, 39879, Note_off_c, 0, 46, 59
1, 39884, Note_off_c, 0, 68, 64
1, 40022, Note_on_c, 0, 47, 69
1, 40025, Note_on_c, 0, 67, 63
1, 40028, Note_on_c, 0, 62, 61
1, 40029, Note_on_c, 0, 65, 55
1, 40052, Note_off_c, 0, 47, 64
1, 40064, Note_off_c, 0, 65, 62
1, 40070, Note_off_c, 0, 62, 53
1, 40070, Note_off_c, 0, 67, 56
1, 40266, Note_on_c, 0, 68, 69
1, 40268, Note_on_c, 0, 46, 51
1, 40278, Note_on_c, 0, 62, 48
1, 40279, Note_on_c, 0, 65, 50
1, 40299, Note_off_c, 0, 46, 63
1, 40311, Note_off_c, 0, 62, 52
1, 40312, Note_off_c, 0, 65, 61
1, 40315, Note_off_c, 0, 68, 60
1, 40511, Note_on_c, 0, 67, 53
1, 40514, Note_on_c, 0, 47, 46
1, 40522, Note_on_c, 0, 62, 51
1, 40522, Note_on_c, 0, 65, 49
1, 40544, Note_off_c, 0, 47, 61
1, 40554, Note_off_c, 0, 62, 52
1, 40559, Note_off_c, 0, 65, 60
1, 40582, Note_off_c, 0, 67, 54
1, 40757, Note_on_c, 0, 68, 69
1, 40758, Note_on_c, 0, 46, 56
1, 40778, Note_on_c, 0, 62, 44
1, 40786, Note_on_c, 0, 65, 34
1, 40791, Note_off_c, 0, 46, 62
1, 40806, Note_off_c, 0, 62, 54
1, 40818, Note_off_c, 0, 65, 50
1, 40820, Note_off_c, 0, 68, 57
1, 40995, Note_on_c, 0, 69, 64
1, 41000, Note_on_c, 0, 45, 61
1, 41005, Note_on_c, 0, 62, 55
1, 41005, Note_on_c, 0, 65, 59
1, 41033, Note_off_c, 0, 62, 53
1, 41034, Note_off_c, 0, 45, 58
1, 41037, Note_off_c, 0, 65, 63
1, 41045, Note_off_c, 0, 69, 63
1, 41235, Note_on_c, 0, 44, 68
1, 41238, Note_on_c, 0, 70, 69
1, 41239, Note_on_c, 0, 65, 67
1, 41243, Note_on_c, 0, 62, 69
1, 41268, Note_off_c, 0, 44, 66
1, 41272, Note_off_c, 0, 62, 63
1, 41280, Note_off_c, 0, 65, 61
1, 41298, Note_off_c, 0, 70, 61
1, 41480, Note_on_c, 0, 71, 80
1, 41490, Note_on_c, 0, 43, 78
1, 41490, Note_on_c, 0, 62, 73
1, 41534, Note_off_c, 0, 71, 61
1, 41539, Note_off_c, 0, 62, 50
1, 41542, Note_off_c, 0, 43, 59
1, 41719, Note_on_c, 0, 72, 83
1, 41723, Note_on_c, 0, 63, 77
1, 41727, Note_on_c, 0, 69, 68
1, 41728, Note_on_c, 0, 42, 72
1, 41761, Note_off_c, 0, 42, 66
1, 41777, Note_off_c, 0, 72, 62
1, 41778, Note_off_c, 0, 69, 53
1, 41794, Note_off_c, 0, 63, 57
1, 41957, Control_c, 0, 64, 28
1, 41972, Control_c, 0, 64, 36
1, 41975, Note_on_c, 0, 31, 84
1, 41983, Note_on_c, 0, 72, 83
1, 41986, Note_on_c, 0, 64, 81
1, 41987, Note_on_c, 0, 67, 80
1, 41987, Control_c, 0, 64, 38
1, 42001, Control_c, 0, 64, 41
1, 42016, Control_c, 0, 64, 45
1, 42031, Control_c, 0, 64, 50
1, 42046, Control_c, 0, 64, 54
1, 42061, Control_c, 0, 64, 57
1, 42083, Control_c, 0, 64, 59
1, 42098, Control_c, 0, 64, 60
1, 42113, Control_c, 0, 64, 61
1, 42124, Note_on_c, 0, 76, 86
1, 42142, Control_c, 0, 64, 62
1, 42155, Note_off_c, 0, 64, 64
1, 42158, Control_c, 0, 64, 62
1, 42161, Note_off_c, 0, 72, 64
1, 42162, Note_off_c, 0, 67, 60
1, 42173, Control_c, 0, 64, 63
1, 42187, Note_off_c, 0, 76, 62
1, 42223, Note_on_c, 0, 43, 75
1, 42226, Note_on_c, 0, 76, 76
1, 42232, Note_on_c, 0, 64, 81
1, 42238, Note_on_c, 0, 67, 73
1, 42242, Note_on_c, 0, 72, 74
1, 42254, Note_off_c, 0, 43, 66
1, 42262, Control_c, 0, 64, 62
1, 42271, Note_off_c, 0, 67, 60
1, 42272, Note_off_c, 0, 64, 61
1, 42276, Control_c, 0, 64, 62
1, 42277, Note_off_c, 0, 72, 57
1, 42285, Note_off_c, 0, 76, 62
1, 42291, Control_c, 0, 64, 61
1, 42306, Control_c, 0, 64, 61
1, 42321, Note_on_c, 0, 43, 89
1, 42321, Control_c, 0, 64, 60
1, 42325, Note_on_c, 0, 64, 82
1, 42329, Note_on_c, 0, 76, 72
1, 42332, Note_on_c, 0, 67, 78
1, 42336, Control_c, 0, 64, 59
1, 42338, Note_on_c, 0, 72, 77
1, 42350, Control_c, 0, 64, 58
1, 42362, Note_off_c, 0, 43, 59
1, 42364, Note_off_c, 0, 72, 65
1, 42365, Control_c, 0, 64, 54
1, 42367, Note_off_c, 0, 64, 66
1, 42371, Note_off_c, 0, 67, 58
1, 42380, Control_c, 0, 64, 45
1, 42393, Note_off_c, 0, 76, 65
1, 42395, Control_c, 0, 64, 14
1, 42410, Control_c, 0, 64, 0
1, 42425, Note_on_c, 0, 76, 76
1, 42426, Note_on_c, 0, 64, 88
1, 42428, Note_on_c, 0, 43, 91
1, 42437, Note_on_c, 0, 67, 78
1, 42457, Note_on_c, 0, 72, 52
1, 42457, Note_off_c, 0, 67, 70
1, 42469, Note_off_c, 0, 64, 62
1, 42478, Note_off_c, 0, 72, 60
1, 42482, Note_off_c, 0, 76, 66
1, 42487, Note_off_c, 0, 43, 60
1, 42628, Note_off_c, 0, 31, 32
1, 42663, Note_on_c, 0, 78, 98
1, 42667, Note_on_c, 0, 69, 79
1, 42673, Note_on_c, 0, 43, 82
1, 42677, Note_on_c, 0, 75, 72
1, 42685, Note_on_c, 0, 72, 46
1, 42702, Note_off_c, 0, 43, 66
1, 42711, Note_off_c, 0, 72, 56
1, 42711, Note_off_c, 0, 75, 63
1, 42738, Note_off_c, 0, 78, 63
1, 42742, Note_off_c, 0, 69, 42
1, 42936, Note_on_c, 0, 81, 92
1, 42936, Control_c, 0, 64, 49
1, 42952, Control_c, 0, 64, 65
1, 42958, Note_on_c, 0, 43, 78
1, 42958, Note_on_c, 0, 55, 81
1, 42958, Note_on_c, 0, 71, 69
1, 42967, Control_c, 0, 64, 73
1, 42981, Control_c, 0, 64, 84
1, 42996, Control_c, 0, 64, 94
1, 42997, Note_off_c, 0, 71, 54
1, 43008, Note_off_c, 0, 43, 62
1, 43011, Control_c, 0, 64, 99
1, 43021, Note_off_c, 0, 55, 61
1, 43025, Control_c, 0, 64, 103
1, 43027, Note_off_c, 0, 81, 57
1, 43040, Control_c, 0, 64, 106
1, 43055, Control_c, 0, 64, 108
1, 43057, Note_on_c, 0, 79, 86
1, 43068, Note_on_c, 0, 74, 72
1, 43068, Note_on_c, 0, 77, 75
1, 43070, Control_c, 0, 64, 109
1, 43092, Note_off_c, 0, 74, 68
1, 43098, Note_off_c, 0, 77, 60
1, 43104, Note_off_c, 0, 79, 60
1, 43174, Note_on_c, 0, 79, 83
1, 43175, Note_on_c, 0, 74, 81
1, 43176, Note_on_c, 0, 71, 78
1, 43184, Note_on_c, 0, 77, 76
1, 43190, Note_on_c, 0, 62, 67
1, 43197, Note_on_c, 0, 55, 59
1, 43197, Note_off_c, 0, 71, 67
1, 43200, Note_off_c, 0, 74, 66
1, 43201, Note_on_c, 0, 65, 58
1, 43203, Control_c, 0, 64, 106
1, 43216, Note_off_c, 0, 77, 61
1, 43218, Control_c, 0, 64, 94
1, 43219, Note_off_c, 0, 62, 61
1, 43219, Note_off_c, 0, 79, 63
1, 43223, Note_off_c, 0, 65, 61
1, 43232, Note_off_c, 0, 55, 62
1, 43232, Control_c, 0, 64, 81
1, 43247, Control_c, 0, 64, 69
1, 43262, Control_c, 0, 64, 57
1, 43277, Note_on_c, 0, 55, 56
1, 43277, Control_c, 0, 64, 0
1, 43281, Note_on_c, 0, 62, 66
1, 43282, Note_on_c, 0, 79, 77
1, 43285, Note_on_c, 0, 74, 75
1, 43285, Note_on_c, 0, 77, 75
1, 43286, Note_on_c, 0, 65, 66
1, 43289, Note_on_c, 0, 71, 68
1, 43310, Note_off_c, 0, 74, 64
1, 43311, Note_off_c, 0, 71, 69
1, 43315, Note_off_c, 0, 55, 62
1, 43316, Note_off_c, 0, 62, 56
1, 43316, Note_off_c, 0, 65, 65
1, 43328, Note_off_c, 0, 77, 52
1, 43330, Note_off_c, 0, 79, 58
1, 43384, Note_on_c, 0, 79, 81
1, 43385, Note_on_c, 0, 65, 77
1, 43385, Note_on_c, 0, 71, 85
1, 43389, Note_on_c, 0, 62, 67
1, 43390, Note_on_c, 0, 77, 76
1, 43395, Note_on_c, 0, 74, 76
1, 43399, Note_on_c, 0, 55, 56
1, 43417, Note_off_c, 0, 74, 69
1, 43426, Note_off_c, 0, 71, 59
1, 43429, Note_off_c, 0, 55, 64
1, 43438, Note_off_c, 0, 79, 61
1, 43440, Note_off_c, 0, 77, 60
1, 43456, Note_off_c, 0, 65, 55
1, 43462, Note_off_c, 0, 62, 57
1, 43684, Note_on_c, 0, 55, 34
1, 43685, Note_on_c, 0, 79, 78
1, 43686, Note_on_c, 0, 65, 38
1, 43698, Control_c, 0, 64, 51
1, 43713, Control_c, 0, 64, 63
1, 43718, Note_on_c, 0, 74, 47
1, 43720, Note_on_c, 0, 67, 30
1, 43727, Note_off_c, 0, 55, 62
1, 43728, Control_c, 0, 64, 67
1, 43744, Control_c, 0, 64, 72
1, 43759, Control_c, 0, 64, 78
1, 43761, Note_on_c, 0, 71, 30
1, 43774, Control_c, 0, 64, 85
1, 43789, Control_c, 0, 64, 90
1, 43803, Control_c, 0, 64, 93
1, 43803, Control_c, 0, 67, 10
1, 43818, Control_c, 0, 64, 95
1, 43818, Control_c, 0, 67, 20
1, 43824, Note_off_c, 0, 65, 34
1, 43833, Control_c, 0, 64, 97
1, 43833, Control_c, 0, 67, 32
1, 43838, Note_off_c, 0, 67, 49
1, 43847, Control_c, 0, 64, 98
1, 43847, Control_c, 0, 67, 42
1, 43862, Control_c, 0, 67, 52
1, 43863, Note_off_c, 0, 71, 52
1, 43869, Note_off_c, 0, 79, 57
1, 43877, Control_c, 0, 67, 62
1, 43882, Note_off_c, 0, 74, 63
1, 43892, Control_c, 0, 67, 71
1, 43907, Control_c, 0, 67, 79
1, 43921, Control_c, 0, 67, 87
1, 43936, Control_c, 0, 67, 94
1, 43951, Control_c, 0, 67, 99
1, 43966, Control_c, 0, 67, 103
1, 43981, Control_c, 0, 67, 107
1, 43996, Control_c, 0, 67, 110
1, 44010, Control_c, 0, 67, 114
1, 44017, Note_on_c, 0, 48, 43
1, 44025, Control_c, 0, 64, 92
1, 44025, Control_c, 0, 67, 118
1, 44040, Control_c, 0, 64, 82
1, 44040, Control_c, 0, 67, 123
1, 44055, Control_c, 0, 64, 70
1, 44055, Control_c, 0, 67, 127
1, 44070, Control_c, 0, 64, 56
1, 44085, Control_c, 0, 64, 0
1, 44088, Note_on_c, 0, 79, 50
1, 44128, Control_c, 0, 64, 39
1, 44143, Control_c, 0, 64, 59
1, 44158, Control_c, 0, 64, 65
1, 44173, Control_c, 0, 64, 68
1, 44188, Control_c, 0, 64, 70
1, 44189, Note_off_c, 0, 79, 60
1, 44194, Note_on_c, 0, 67, 67
1, 44202, Control_c, 0, 64, 71
1, 44217, Control_c, 0, 64, 71
1, 44236, Note_off_c, 0, 48, 35
1, 44262, Note_off_c, 0, 67, 50
1, 44291, Control_c, 0, 64, 71
1, 44297, Note_on_c, 0, 67, 53
1, 44300, Note_on_c, 0, 55, 45
1, 44306, Control_c, 0, 64, 68
1, 44323, Note_on_c, 0, 64, 32
1, 44328, Control_c, 0, 64, 64
1, 44334, Note_off_c, 0, 55, 58
1, 44343, Control_c, 0, 64, 53
1, 44355, Note_off_c, 0, 64, 48
1, 44358, Control_c, 0, 64, 0
1, 44359, Note_off_c, 0, 67, 60
1, 44416, Note_on_c, 0, 55, 61
1, 44419, Note_on_c, 0, 67, 46
1, 44424, Note_on_c, 0, 64, 38
1, 44444, Note_off_c, 0, 55, 66
1, 44454, Note_off_c, 0, 64, 52
1, 44465, Note_off_c, 0, 67, 60
1, 44518, Note_on_c, 0, 55, 62
1, 44521, Note_on_c, 0, 67, 57
1, 44541, Note_on_c, 0, 64, 41
1, 44545, Note_off_c, 0, 55, 67
1, 44559, Note_off_c, 0, 67, 62
1, 44570, Note_off_c, 0, 64, 56
1, 44626, Note_on_c, 0, 67, 49
1, 44735, Note_off_c, 0, 67, 59
1, 44740, Note_on_c, 0, 55, 45
1, 44746, Note_on_c, 0, 71, 52
1, 44747, Note_on_c, 0, 65, 42
1, 44769, Note_off_c, 0, 55, 60
1, 44776, Note_off_c, 0, 65, 57
1, 44840, Note_off_c, 0, 71, 54
1, 44845, Note_on_c, 0, 74, 54
1, 44953, Note_on_c, 0, 72, 64
1, 44958, Note_off_c, 0, 74, 60
1, 44963, Note_on_c, 0, 64, 54
1, 44974, Note_on_c, 0, 55, 42
1, 45003, Note_off_c, 0, 55, 56
1, 45004, Note_off_c, 0, 64, 60
1, 45042, Note_off_c, 0, 72, 57
1, 45062, Note_on_c, 0, 67, 58
1, 45188, Note_on_c, 0, 65, 51
1, 45193, Note_off_c, 0, 67, 60
1, 45194, Note_on_c, 0, 71, 58
1, 45208, Note_on_c, 0, 55, 28
1, 45221, Note_off_c, 0, 65, 62
1, 45246, Note_off_c, 0, 55, 30
1, 45302, Note_on_c, 0, 74, 52
1, 45310, Note_off_c, 0, 71, 53
1, 45420, Note_on_c, 0, 64, 57
1, 45422, Note_on_c, 0, 72, 58
1, 45426, Note_on_c, 0, 55, 49
1, 45451, Note_off_c, 0, 74, 46
1, 45464, Note_off_c, 0, 55, 65
1, 45476, Note_off_c, 0, 64, 58
1, 45507, Note_off_c, 0, 72, 58
1, 45533, Note_on_c, 0, 67, 58
1, 45644, Note_on_c, 0, 65, 61
1, 45656, Note_on_c, 0, 71, 61
1, 45656, Note_on_c, 0, 55, 48
1, 45661, Note_off_c, 0, 67, 61
1, 45683, Note_off_c, 0, 55, 60
1, 45719, Note_off_c, 0, 65, 43
1, 45760, Note_on_c, 0, 74, 61
1, 45789, Note_off_c, 0, 71, 52
1, 45890, Note_on_c, 0, 48, 59
1, 45898, Note_on_c, 0, 72, 61
1, 45900, Control_c, 0, 64, 14
1, 45915, Control_c, 0, 64, 51
1, 45917, Note_off_c, 0, 74, 61
1, 45930, Control_c, 0, 64, 60
1, 45945, Control_c, 0, 64, 62
1, 45949, Note_off_c, 0, 72, 63
1, 45960, Control_c, 0, 64, 63
1, 45975, Control_c, 0, 64, 63
1, 45990, Control_c, 0, 64, 64
1, 45997, Note_on_c, 0, 67, 60
1, 46005, Control_c, 0, 64, 64
1, 46019, Control_c, 0, 64, 65
1, 46050, Note_off_c, 0, 48, 37
1, 46107, Note_on_c, 0, 64, 53
1, 46112, Note_off_c, 0, 67, 62
1, 46115, Note_on_c, 0, 55, 53
1, 46124, Note_on_c, 0, 72, 65
1, 46141, Note_off_c, 0, 64, 65
1, 46149, Note_off_c, 0, 55, 65
1, 46169, Control_c, 0, 64, 64
1, 46184, Control_c, 0, 64, 64
1, 46198, Control_c, 0, 64, 63
1, 46213, Control_c, 0, 64, 61
1, 46227, Note_on_c, 0, 64, 41
1, 46228, Control_c, 0, 64, 58
1, 46228, Note_on_c, 0, 76, 73
1, 46242, Control_c, 0, 64, 48
1, 46249, Note_on_c, 0, 55, 11
1, 46256, Note_off_c, 0, 64, 34
1, 46257, Control_c, 0, 64, 0
1, 46259, Note_off_c, 0, 72, 60
1, 46288, Note_off_c, 0, 76, 65
1, 46316, Control_c, 0, 67, 123
1, 46325, Note_on_c, 0, 64, 71
1, 46328, Note_off_c, 0, 55, 0
1, 46328, Note_on_c, 0, 55, 47
1, 46331, Control_c, 0, 67, 116
1, 46346, Control_c, 0, 67, 107
1, 46349, Note_on_c, 0, 79, 72
1, 46361, Control_c, 0, 67, 95
1, 46376, Control_c, 0, 67, 84
1, 46390, Control_c, 0, 64, 55
1, 46390, Control_c, 0, 67, 74
1, 46405, Control_c, 0, 64, 66
1, 46405, Control_c, 0, 67, 66
1, 46420, Control_c, 0, 64, 71
1, 46420, Control_c, 0, 67, 57
1, 46435, Control_c, 0, 64, 75
1, 46435, Control_c, 0, 67, 49
1, 46449, Control_c, 0, 64, 76
1, 46449, Control_c, 0, 67, 43
1, 46457, Note_on_c, 0, 84, 79
1, 46464, Control_c, 0, 64, 77
1, 46464, Control_c, 0, 67, 38
1, 46470, Note_off_c, 0, 64, 64
1, 46479, Control_c, 0, 64, 78
1, 46479, Control_c, 0, 67, 34
1, 46494, Control_c, 0, 64, 79
1, 46494, Control_c, 0, 67, 32
1, 46509, Control_c, 0, 67, 30
1, 46511, Note_off_c, 0, 79, 58
1, 46523, Control_c, 0, 67, 28
1, 46538, Control_c, 0, 67, 25
1, 46553, Note_off_c, 0, 55, 62
1, 46553, Control_c, 0, 67, 21
1, 46574, Note_on_c, 0, 88, 68
1, 46576, Control_c, 0, 67, 15
1, 46590, Control_c, 0, 67, 11
1, 46605, Control_c, 0, 67, 0
1, 46649, Control_c, 0, 64, 79
1, 46659, Note_on_c, 0, 91, 79
1, 46666, Note_off_c, 0, 84, 57
1, 46679, Control_c, 0, 64, 80
1, 46686, Note_off_c, 0, 88, 63
1, 46694, Control_c, 0, 64, 80
1, 46709, Control_c, 0, 64, 81
1, 46715, Note_off_c, 0, 91, 61
1, 46753, Control_c, 0, 64, 77
1, 46768, Control_c, 0, 64, 69
1, 46783, Control_c, 0, 64, 60
1, 46789, Note_on_c, 0, 48, 67
1, 46795, Note_on_c, 0, 36, 66
1, 46798, Control_c, 0, 64, 39
1, 46804, Note_on_c, 0, 93, 77
1, 46806, Note_on_c, 0, 91, 75
1, 46812, Control_c, 0, 64, 26
1, 46827, Control_c, 0, 64, 40
1, 46842, Control_c, 0, 64, 56
1, 46857, Control_c, 0, 64, 63
1, 46872, Control_c, 0, 64, 65
1, 46881, Note_off_c, 0, 93, 60
1, 46886, Note_off_c, 0, 91, 59
1, 46887, Control_c, 0, 64, 66
1, 46902, Control_c, 0, 64, 66
1, 46914, Note_off_c, 0, 48, 60
1, 46915, Note_on_c, 0, 79, 57
1, 46916, Control_c, 0, 64, 67
1, 46929, Note_off_c, 0, 36, 64
1, 46931, Control_c, 0, 64, 68
1, 46947, Control_c, 0, 64, 72
1, 46962, Control_c, 0, 64, 74
1, 46991, Control_c, 0, 64, 70
1, 46999, Note_off_c, 0, 79, 60
1, 47006, Control_c, 0, 64, 62
1, 47019, Note_on_c, 0, 92, 97
1, 47021, Control_c, 0, 64, 0
1, 47030, Note_on_c, 0, 46, 81
1, 47033, Note_on_c, 0, 34, 72
1, 47080, Control_c, 0, 64, 36
1, 47095, Control_c, 0, 64, 64
1, 47110, Control_c, 0, 64, 73
1, 47124, Note_on_c, 0, 80, 81
1, 47125, Control_c, 0, 64, 78
1, 47159, Note_off_c, 0, 46, 61
1, 47170, Note_off_c, 0, 34, 62
1, 47173, Note_off_c, 0, 92, 62
1, 47213, Control_c, 0, 64, 72
1, 47228, Control_c, 0, 64, 56
1, 47230, Note_off_c, 0, 80, 64
1, 47243, Control_c, 0, 64, 0
1, 47260, Note_on_c, 0, 93, 97
1, 47260, Note_on_c, 0, 33, 82
1, 47266, Note_on_c, 0, 45, 81
1, 47296, Note_off_c, 0, 33, 67
1, 47302, Control_c, 0, 64, 61
1, 47325, Control_c, 0, 64, 73
1, 47340, Control_c, 0, 64, 79
1, 47345, Note_off_c, 0, 45, 63
1, 47394, Note_on_c, 0, 81, 72
1, 47398, Control_c, 0, 64, 79
1, 47413, Control_c, 0, 64, 80
1, 47424, Note_off_c, 0, 93, 51
1, 47428, Control_c, 0, 64, 81
1, 47443, Control_c, 0, 64, 82
1, 47472, Control_c, 0, 64, 81
1, 47487, Control_c, 0, 64, 74
1, 47502, Control_c, 0, 64, 63
1, 47517, Control_c, 0, 64, 0
1, 47537, Note_on_c, 0, 93, 83
1, 47541, Note_on_c, 0, 67, 65
1, 47546, Note_off_c, 0, 81, 41
1, 47549, Note_on_c, 0, 61, 57
1, 47567, Note_on_c, 0, 57, 38
1, 47571, Note_on_c, 0, 55, 30
1, 47591, Control_c, 0, 64, 61
1, 47596, Note_off_c, 0, 57, 56
1, 47605, Note_off_c, 0, 55, 48
1, 47605, Control_c, 0, 64, 73
1, 47611, Note_on_c, 0, 86, 6
1, 47620, Control_c, 0, 64, 82
1, 47635, Control_c, 0, 64, 83
1, 47636, Note_off_c, 0, 61, 60
1, 47648, Note_off_c, 0, 93, 58
1, 47661, Note_off_c, 0, 67, 36
1, 47665, Control_c, 0, 64, 83
1, 47680, Control_c, 0, 64, 84
1, 47689, Note_on_c, 0, 81, 60
1, 47695, Control_c, 0, 64, 84
1, 47707, Note_off_c, 0, 86, 40
1, 47731, Note_off_c, 0, 81, 61
1, 47844, Control_c, 0, 64, 83
1, 47859, Control_c, 0, 64, 79
1, 47859, Control_c, 0, 67, 20
1, 47863, Note_on_c, 0, 50, 51
1, 47873, Control_c, 0, 64, 73
1, 47873, Control_c, 0, 67, 35
1, 47887, Control_c, 0, 64, 65
1, 47887, Control_c, 0, 67, 47
1, 47902, Control_c, 0, 64, 56
1, 47902, Control_c, 0, 67, 56
1, 47917, Control_c, 0, 64, 12
1, 47917, Control_c, 0, 67, 64
1, 47920, Note_on_c, 0, 81, 69
1, 47932, Control_c, 0, 64, 0
1, 47932, Control_c, 0, 67, 71
1, 47947, Control_c, 0, 67, 76
1, 47961, Control_c, 0, 67, 79
1, 47976, Control_c, 0, 67, 81
1, 47991, Control_c, 0, 67, 82
1, 48006, Control_c, 0, 67, 84
1, 48020, Control_c, 0, 67, 85
1, 48032, Note_off_c, 0, 81, 59
1, 48035, Control_c, 0, 67, 86
1, 48042, Note_on_c, 0, 69, 55
1, 48050, Control_c, 0, 67, 87
1, 48069, Note_off_c, 0, 50, 51
1, 48073, Control_c, 0, 67, 88
1, 48088, Control_c, 0, 67, 89
1, 48102, Control_c, 0, 67, 90
1, 48115, Note_off_c, 0, 69, 64
1, 48117, Control_c, 0, 67, 91
1, 48132, Control_c, 0, 67, 93
1, 48136, Note_on_c, 0, 57, 57
1, 48143, Note_on_c, 0, 65, 56
1, 48147, Control_c, 0, 67, 96
1, 48157, Note_on_c, 0, 69, 55
1, 48162, Control_c, 0, 67, 99
1, 48172, Note_off_c, 0, 57, 61
1, 48172, Note_off_c, 0, 65, 65
1, 48176, Control_c, 0, 67, 103
1, 48191, Control_c, 0, 67, 106
1, 48206, Control_c, 0, 67, 109
1, 48211, Note_off_c, 0, 69, 65
1, 48220, Control_c, 0, 67, 111
1, 48235, Control_c, 0, 67, 112
1, 48246, Note_on_c, 0, 65, 60
1, 48249, Poly_aftertouch_c, 0, 69, 0
1, 48252, Note_on_c, 0, 57, 49
1, 48264, Note_on_c, 0, 69, 37
1, 48265, Note_off_c, 0, 65, 64
1, 48277, Note_off_c, 0, 57, 57
1, 48294, Note_off_c, 0, 69, 57
1, 48345, Note_on_c, 0, 57, 67
1, 48347, Note_on_c, 0, 65, 63
1, 48363, Note_on_c, 0, 69, 66
1, 48372, Note_off_c, 0, 57, 66
1, 48380, Note_off_c, 0, 65, 61
1, 48392, Note_off_c, 0, 69, 68
1, 48458, Control_c, 0, 67, 111
1, 48470, Note_on_c, 0, 69, 57
1, 48487, Control_c, 0, 67, 110
1, 48517, Control_c, 0, 67, 110
1, 48562, Control_c, 0, 67, 109
1, 48576, Note_on_c, 0, 57, 52
1, 48577, Control_c, 0, 67, 109
1, 48578, Note_on_c, 0, 67, 56
1, 48589, Note_on_c, 0, 73, 62
1, 48608, Note_off_c, 0, 57, 64
1, 48608, Note_off_c, 0, 67, 65
1, 48627, Note_off_c, 0, 69, 38
1, 48694, Note_on_c, 0, 76, 55
1, 48694, Note_off_c, 0, 73, 56
1, 48802, Note_on_c, 0, 74, 61
1, 48807, Note_on_c, 0, 65, 63
1, 48817, Note_on_c, 0, 57, 55
1, 48829, Note_off_c, 0, 76, 56
1, 48843, Note_off_c, 0, 57, 62
1, 48845, Note_off_c, 0, 65, 62
1, 48896, Note_off_c, 0, 74, 55
1, 48917, Note_on_c, 0, 69, 51
1, 49032, Note_on_c, 0, 73, 62
1, 49033, Note_on_c, 0, 67, 61
1, 49035, Note_on_c, 0, 57, 56
1, 49044, Control_c, 0, 67, 108
1, 49072, Note_off_c, 0, 67, 60
1, 49076, Note_off_c, 0, 57, 58
1, 49099, Note_off_c, 0, 69, 50
1, 49145, Note_on_c, 0, 76, 62
1, 49172, Note_off_c, 0, 73, 53
1, 49264, Note_on_c, 0, 65, 57
1, 49266, Note_on_c, 0, 57, 52
1, 49269, Note_on_c, 0, 74, 63
1, 49296, Control_c, 0, 67, 108
1, 49305, Note_off_c, 0, 76, 49
1, 49310, Note_off_c, 0, 57, 57
1, 49319, Note_off_c, 0, 65, 48
1, 49377, Note_on_c, 0, 69, 60
1, 49383, Note_off_c, 0, 74, 59
1, 49486, Note_on_c, 0, 67, 55
1, 49487, Note_on_c, 0, 57, 46
1, 49488, Note_on_c, 0, 73, 66
1, 49513, Note_off_c, 0, 57, 60
1, 49549, Note_off_c, 0, 69, 59
1, 49575, Note_off_c, 0, 67, 57
1, 49609, Note_on_c, 0, 76, 67
1, 49639, Note_off_c, 0, 73, 54
1, 49704, Control_c, 0, 67, 108
1, 49731, Note_on_c, 0, 74, 65
1, 49739, Note_on_c, 0, 50, 62
1, 49764, Control_c, 0, 64, 31
1, 49764, Note_off_c, 0, 76, 59
1, 49778, Control_c, 0, 64, 56
1, 49793, Control_c, 0, 64, 63
1, 49808, Control_c, 0, 64, 65
1, 49821, Note_off_c, 0, 74, 63
1, 49823, Control_c, 0, 64, 66
1, 49838, Control_c, 0, 64, 67
1, 49853, Control_c, 0, 64, 69
1, 49859, Note_on_c, 0, 69, 66
1, 49867, Control_c, 0, 64, 70
1, 49882, Control_c, 0, 64, 70
1, 49897, Control_c, 0, 67, 108
1, 49898, Note_off_c, 0, 50, 36
1, 49927, Control_c, 0, 67, 107
1, 49941, Control_c, 0, 67, 106
1, 49954, Note_on_c, 0, 57, 61
1, 49956, Control_c, 0, 67, 106
1, 49957, Note_on_c, 0, 65, 59
1, 49966, Note_off_c, 0, 69, 66
1, 49971, Control_c, 0, 67, 105
1, 49979, Note_on_c, 0, 74, 68
1, 49985, Control_c, 0, 67, 105
1, 49988, Note_off_c, 0, 65, 64
1, 49990, Note_off_c, 0, 57, 61
1, 50000, Control_c, 0, 67, 104
1, 50015, Control_c, 0, 64, 70
1, 50015, Control_c, 0, 67, 104
1, 50030, Control_c, 0, 64, 69
1, 50045, Control_c, 0, 64, 68
1, 50059, Control_c, 0, 64, 66
1, 50059, Control_c, 0, 67, 103
1, 50062, Note_on_c, 0, 65, 67
1, 50074, Control_c, 0, 64, 62
1, 50074, Control_c, 0, 67, 103
1, 50075, Note_on_c, 0, 57, 57
1, 50082, Note_on_c, 0, 77, 74
1, 50085, Note_off_c, 0, 65, 68
1, 50089, Control_c, 0, 64, 39
1, 50101, Note_off_c, 0, 57, 67
1, 50104, Control_c, 0, 64, 0
1, 50112, Note_off_c, 0, 74, 62
1, 50135, Control_c, 0, 67, 102
1, 50145, Note_off_c, 0, 77, 63
1, 50164, Control_c, 0, 67, 101
1, 50175, Note_on_c, 0, 65, 76
1, 50177, Note_on_c, 0, 57, 68
1, 50179, Control_c, 0, 67, 100
1, 50194, Control_c, 0, 67, 96
1, 50198, Note_on_c, 0, 81, 75
1, 50208, Control_c, 0, 67, 90
1, 50223, Control_c, 0, 67, 82
1, 50238, Control_c, 0, 64, 21
1, 50238, Control_c, 0, 67, 70
1, 50253, Control_c, 0, 64, 54
1, 50253, Control_c, 0, 67, 56
1, 50268, Control_c, 0, 64, 62
1, 50268, Control_c, 0, 67, 40
1, 50282, Control_c, 0, 64, 65
1, 50282, Control_c, 0, 67, 24
1, 50297, Note_off_c, 0, 65, 62
1, 50297, Control_c, 0, 64, 67
1, 50297, Control_c, 0, 67, 0
1, 50312, Note_on_c, 0, 86, 79
1, 50320, Control_c, 0, 64, 69
1, 50335, Control_c, 0, 64, 73
1, 50350, Control_c, 0, 64, 76
1, 50364, Control_c, 0, 64, 78
1, 50367, Note_off_c, 0, 81, 56
1, 50379, Control_c, 0, 64, 81
1, 50394, Control_c, 0, 64, 83
1, 50407, Note_off_c, 0, 57, 57
1, 50408, Control_c, 0, 64, 85
1, 50423, Control_c, 0, 64, 87
1, 50435, Note_on_c, 0, 89, 66
1, 50438, Control_c, 0, 64, 88
1, 50453, Control_c, 0, 64, 89
1, 50468, Control_c, 0, 64, 90
1, 50482, Control_c, 0, 64, 91
1, 50497, Control_c, 0, 64, 92
1, 50512, Control_c, 0, 64, 92
1, 50521, Note_on_c, 0, 93, 75
1, 50557, Control_c, 0, 64, 93
1, 50571, Control_c, 0, 64, 94
1, 50583, Note_off_c, 0, 89, 65
1, 50586, Control_c, 0, 64, 95
1, 50591, Note_off_c, 0, 86, 44
1, 50595, Note_off_c, 0, 93, 61
1, 50631, Control_c, 0, 64, 93
1, 50646, Control_c, 0, 64, 83
1, 50659, Note_on_c, 0, 50, 72
1, 50661, Note_on_c, 0, 38, 70
1, 50661, Control_c, 0, 64, 69
1, 50664, Note_on_c, 0, 93, 81
1, 50676, Control_c, 0, 64, 52
1, 50690, Control_c, 0, 64, 0
1, 50720, Control_c, 0, 64, 41
1, 50734, Control_c, 0, 64, 58
1, 50749, Control_c, 0, 64, 63
1, 50764, Control_c, 0, 64, 66
1, 50779, Control_c, 0, 64, 67
1, 50784, Note_on_c, 0, 81, 77
1, 50794, Control_c, 0, 64, 67
1, 50808, Control_c, 0, 64, 68
1, 50819, Note_off_c, 0, 93, 60
1, 50823, Control_c, 0, 64, 69
1, 50832, Note_off_c, 0, 50, 61
1, 50834, Note_off_c, 0, 38, 64
1, 50838, Control_c, 0, 64, 71
1, 50853, Control_c, 0, 64, 73
1, 50882, Control_c, 0, 64, 71
1, 50897, Control_c, 0, 64, 65
1, 50910, Note_off_c, 0, 81, 54
1, 50912, Control_c, 0, 64, 43
1, 50914, Note_on_c, 0, 93, 93
1, 50917, Note_on_c, 0, 48, 85
1, 50918, Note_on_c, 0, 36, 78
1, 50927, Control_c, 0, 64, 0
1, 50987, Control_c, 0, 64, 59
1, 51002, Control_c, 0, 64, 66
1, 51017, Control_c, 0, 64, 68
1, 51030, Note_on_c, 0, 81, 79
1, 51031, Control_c, 0, 64, 69
1, 51045, Note_off_c, 0, 48, 63
1, 51046, Note_off_c, 0, 93, 59
1, 51046, Control_c, 0, 64, 70
1, 51060, Note_off_c, 0, 36, 65
1, 51069, Control_c, 0, 64, 74
1, 51084, Control_c, 0, 64, 81
1, 51099, Control_c, 0, 64, 86
1, 51113, Control_c, 0, 64, 87
1, 51128, Control_c, 0, 64, 82
1, 51142, Note_off_c, 0, 81, 62
1, 51143, Control_c, 0, 64, 67
1, 51155, Note_on_c, 0, 94, 94
1, 51157, Note_on_c, 0, 46, 89
1, 51157, Control_c, 0, 64, 0
1, 51162, Note_on_c, 0, 34, 77
1, 51217, Control_c, 0, 64, 45
1, 51231, Control_c, 0, 64, 65
1, 51246, Control_c, 0, 64, 78
1, 51261, Control_c, 0, 64, 91
1, 51269, Note_on_c, 0, 82, 90
1, 51276, Control_c, 0, 64, 98
1, 51291, Control_c, 0, 64, 103
1, 51300, Note_off_c, 0, 94, 64
1, 51303, Note_off_c, 0, 46, 61
1, 51305, Control_c, 0, 64, 111
1, 51307, Note_off_c, 0, 34, 65
1, 51320, Control_c, 0, 64, 125
1, 51335, Control_c, 0, 64, 127
1, 51350, Control_c, 0, 64, 106
1, 51364, Control_c, 0, 64, 75
1, 51379, Control_c, 0, 64, 38
1, 51389, Note_on_c, 0, 44, 88
1, 51391, Note_on_c, 0, 94, 104
1, 51394, Control_c, 0, 64, 0
1, 51397, Note_on_c, 0, 32, 75
1, 51397, Note_off_c, 0, 82, 0
1, 51427, Poly_aftertouch_c, 0, 82, 0
1, 51439, Control_c, 0, 64, 56
1, 51447, Note_on_c, 0, 95, 25
1, 51454, Control_c, 0, 64, 75
1, 51469, Control_c, 0, 64, 127
1, 51486, Note_off_c, 0, 95, 42
1, 51508, Note_on_c, 0, 82, 82
1, 51510, Poly_aftertouch_c, 0, 92, 0
1, 51522, Note_off_c, 0, 32, 58
1, 51523, Note_off_c, 0, 44, 60
1, 51541, Note_off_c, 0, 94, 56
1, 51546, Poly_aftertouch_c, 0, 92, 0
1, 51573, Note_off_c, 0, 82, 63
1, 51587, Control_c, 0, 64, 84
1, 51602, Control_c, 0, 64, 50
1, 51618, Control_c, 0, 64, 0
1, 51622, Note_on_c, 0, 43, 93
1, 51624, Note_on_c, 0, 95, 98
1, 51625, Note_on_c, 0, 31, 80
1, 51647, Control_c, 0, 64, 34
1, 51648, Note_off_c, 0, 31, 66
1, 51662, Control_c, 0, 64, 67
1, 51671, Note_off_c, 0, 43, 64
1, 51677, Control_c, 0, 64, 105
1, 51692, Control_c, 0, 64, 127
1, 51732, Note_off_c, 0, 95, 55
1, 51739, Note_on_c, 0, 83, 79
1, 51770, Note_off_c, 0, 83, 59
1, 51862, Control_c, 0, 64, 78
1, 51871, Note_on_c, 0, 83, 90
1, 51876, Note_on_c, 0, 71, 83
1, 51877, Note_on_c, 0, 77, 84
1, 51877, Control_c, 0, 64, 49
1, 51880, Note_on_c, 0, 62, 61
1, 51885, Note_on_c, 0, 55, 56
1, 51888, Note_on_c, 0, 65, 57
1, 51892, Control_c, 0, 64, 0
1, 51905, Note_off_c, 0, 77, 62
1, 51910, Note_off_c, 0, 71, 60
1, 51915, Note_off_c, 0, 62, 62
1, 51916, Note_off_c, 0, 55, 66
1, 51916, Note_off_c, 0, 83, 63
1, 51917, Note_off_c, 0, 65, 64
1, 51979, Note_on_c, 0, 83, 76
1, 51980, Note_on_c, 0, 71, 85
1, 51984, Note_on_c, 0, 62, 62
1, 51984, Note_on_c, 0, 77, 78
1, 51990, Note_on_c, 0, 55, 64
1, 51990, Note_on_c, 0, 65, 67
1, 52011, Note_off_c, 0, 55, 65
1, 52012, Note_off_c, 0, 77, 61
1, 52014, Note_off_c, 0, 65, 67
1, 52017, Note_off_c, 0, 62, 63
1, 52017, Note_off_c, 0, 71, 59
1, 52032, Note_off_c, 0, 83, 62
1, 52087, Note_on_c, 0, 83, 91
1, 52092, Note_on_c, 0, 71, 90
1, 52093, Note_on_c, 0, 55, 74
1, 52093, Note_on_c, 0, 65, 79
1, 52095, Note_on_c, 0, 62, 74
1, 52101, Note_on_c, 0, 77, 78
1, 52124, Note_off_c, 0, 62, 63
1, 52126, Note_off_c, 0, 55, 64
1, 52126, Note_off_c, 0, 77, 64
1, 52128, Note_off_c, 0, 65, 57
1, 52133, Note_off_c, 0, 71, 62
1, 52133, Note_off_c, 0, 83, 61
1, 52347, Note_on_c, 0, 83, 87
1, 52351, Note_on_c, 0, 65, 80
1, 52351, Control_c, 0, 64, 47
1, 52354, Note_on_c, 0, 71, 86
1, 52354, Note_on_c, 0, 77, 83
1, 52355, Note_on_c, 0, 56, 74
1, 52366, Control_c, 0, 64, 63
1, 52378, Note_off_c, 0, 65, 60
1, 52380, Control_c, 0, 64, 66
1, 52403, Note_off_c, 0, 56, 63
1, 52410, Control_c, 0, 64, 65
1, 52425, Note_off_c, 0, 71, 57
1, 52425, Control_c, 0, 64, 62
1, 52426, Note_off_c, 0, 77, 60
1, 52437, Note_off_c, 0, 83, 58
1, 52440, Control_c, 0, 64, 46
1, 52454, Control_c, 0, 64, 0
1, 52608, Note_on_c, 0, 84, 94
1, 52610, Control_c, 0, 64, 58
1, 52613, Note_on_c, 0, 45, 85
1, 52615, Note_on_c, 0, 57, 83
1, 52617, Note_on_c, 0, 72, 85
1, 52625, Control_c, 0, 64, 72
1, 52640, Control_c, 0, 64, 86
1, 52655, Control_c, 0, 64, 100
1, 52665, Note_off_c, 0, 45, 64
1, 52670, Control_c, 0, 64, 105
1, 52683, Note_off_c, 0, 57, 62
1, 52685, Control_c, 0, 64, 110
1, 52700, Control_c, 0, 64, 118
1, 52711, Note_off_c, 0, 84, 52
1, 52715, Control_c, 0, 64, 127
1, 52730, Note_on_c, 0, 76, 85
1, 52753, Note_off_c, 0, 72, 58
1, 52778, Note_off_c, 0, 76, 66
1, 52789, Control_c, 0, 64, 95
1, 52804, Control_c, 0, 64, 73
1, 52818, Control_c, 0, 64, 54
1, 52833, Control_c, 0, 64, 0
1, 52837, Note_on_c, 0, 64, 67
1, 52842, Note_on_c, 0, 76, 83
1, 52843, Note_on_c, 0, 60, 55
1, 52843, Note_on_c, 0, 57, 53
1, 52848, Note_on_c, 0, 72, 81
1, 52867, Note_off_c, 0, 64, 65
1, 52876, Note_off_c, 0, 60, 65
1, 52876, Note_off_c, 0, 72, 65
1, 52879, Note_off_c, 0, 57, 62
1, 52883, Note_off_c, 0, 76, 67
1, 52943, Note_on_c, 0, 60, 63
1, 52944, Note_on_c, 0, 76, 88
1, 52949, Note_on_c, 0, 72, 79
1, 52965, Note_on_c, 0, 57, 41
1, 52970, Note_off_c, 0, 60, 66
1, 52973, Note_on_c, 0, 64, 29
1, 52975, Note_off_c, 0, 72, 66
1, 52989, Note_off_c, 0, 76, 66
1, 52994, Note_off_c, 0, 57, 48
1, 53008, Note_off_c, 0, 64, 51
1, 53054, Note_on_c, 0, 57, 76
1, 53057, Note_on_c, 0, 76, 91
1, 53060, Note_on_c, 0, 72, 85
1, 53061, Note_on_c, 0, 60, 56
1, 53082, Note_off_c, 0, 60, 59
1, 53082, Note_off_c, 0, 57, 62
1, 53094, Note_off_c, 0, 72, 62
1, 53099, Note_off_c, 0, 76, 67
1, 53293, Note_on_c, 0, 81, 92
1, 53308, Note_on_c, 0, 72, 81
1, 53311, Note_on_c, 0, 69, 81
1, 53312, Note_on_c, 0, 54, 75
1, 53314, Note_on_c, 0, 42, 74
1, 53319, Note_on_c, 0, 75, 79
1, 53370, Note_off_c, 0, 42, 53
1, 53377, Note_off_c, 0, 54, 58
1, 53409, Note_off_c, 0, 81, 55
1, 53467, Note_off_c, 0, 69, 61
1, 53472, Note_off_c, 0, 72, 64
1, 53473, Note_off_c, 0, 75, 64
1, 53555, Note_on_c, 0, 43, 81
1, 53561, Note_on_c, 0, 55, 70
1, 53655, Note_off_c, 0, 43, 60
1, 53689, Note_off_c, 0, 55, 61
1, 53800, Note_on_c, 0, 74, 82
1, 53811, Note_on_c, 0, 72, 78
1, 53823, Note_on_c, 0, 67, 58
1, 53958, Note_off_c, 0, 74, 65
1, 53960, Note_off_c, 0, 72, 63
1, 53965, Note_off_c, 0, 67, 52
1, 54065, Note_on_c, 0, 55, 61
1, 54068, Note_on_c, 0, 65, 63
1, 54071, Note_on_c, 0, 62, 58
1, 54238, Note_off_c, 0, 65, 53
1, 54241, Note_off_c, 0, 62, 57
1, 54250, Note_off_c, 0, 55, 55
1, 54361, Note_on_c, 0, 79, 71
1, 54375, Note_on_c, 0, 74, 49
1, 54385, Note_on_c, 0, 71, 41
1, 54387, Note_on_c, 0, 67, 45
1, 54450, Control_c, 0, 64, 31
1, 54464, Control_c, 0, 64, 59
1, 54479, Control_c, 0, 64, 65
1, 54494, Control_c, 0, 64, 68
1, 54507, Note_off_c, 0, 67, 60
1, 54509, Control_c, 0, 64, 70
1, 54524, Control_c, 0, 64, 71
1, 54538, Control_c, 0, 64, 72
1, 54553, Control_c, 0, 64, 73
1, 54561, Note_off_c, 0, 79, 54
1, 54566, Note_off_c, 0, 71, 53
1, 54582, Control_c, 0, 64, 73
1, 54608, Note_off_c, 0, 74, 63
1, 54656, Control_c, 0, 67, 15
1, 54671, Control_c, 0, 67, 24
1, 54686, Control_c, 0, 67, 31
1, 54700, Control_c, 0, 67, 38
1, 54715, Control_c, 0, 67, 43
1, 54730, Note_on_c, 0, 48, 38
1, 54730, Control_c, 0, 64, 72
1, 54730, Control_c, 0, 67, 48
1, 54745, Control_c, 0, 64, 70
1, 54745, Control_c, 0, 67, 52
1, 54760, Control_c, 0, 64, 67
1, 54760, Control_c, 0, 67, 57
1, 54774, Control_c, 0, 64, 62
1, 54774, Control_c, 0, 67, 62
1, 54777, Note_on_c, 0, 79, 56
1, 54789, Control_c, 0, 64, 50
1, 54789, Control_c, 0, 67, 66
1, 54812, Control_c, 0, 64, 0
1, 54812, Control_c, 0, 67, 71
1, 54827, Control_c, 0, 67, 76
1, 54842, Control_c, 0, 67, 81
1, 54856, Control_c, 0, 67, 87
1, 54871, Control_c, 0, 67, 91
1, 54886, Control_c, 0, 67, 94
1, 54901, Control_c, 0, 67, 96
1, 54904, Note_on_c, 0, 76, 58
1, 54915, Control_c, 0, 67, 98
1, 54919, Note_on_c, 0, 55, 42
1, 54932, Control_c, 0, 67, 99
1, 54947, Control_c, 0, 67, 99
1, 54947, Note_off_c, 0, 48, 37
1, 54980, Note_off_c, 0, 55, 61
1, 55004, Note_off_c, 0, 76, 61
1, 55005, Control_c, 0, 67, 100
1, 55016, Note_on_c, 0, 67, 56
1, 55020, Control_c, 0, 67, 100
1, 55026, Note_on_c, 0, 64, 46
1, 55035, Control_c, 0, 67, 101
1, 55050, Control_c, 0, 67, 103
1, 55065, Control_c, 0, 67, 105
1, 55079, Control_c, 0, 67, 109
1, 55085, Note_off_c, 0, 64, 51
1, 55094, Control_c, 0, 67, 113
1, 55095, Note_off_c, 0, 67, 56
1, 55109, Control_c, 0, 67, 118
1, 55114, Note_on_c, 0, 55, 42
1, 55123, Control_c, 0, 67, 122
1, 55136, Note_on_c, 0, 76, 46
1, 55138, Control_c, 0, 67, 127
1, 55143, Note_off_c, 0, 79, 26
1, 55153, Control_c, 0, 67, 127
1, 55177, Note_off_c, 0, 76, 60
1, 55201, Note_off_c, 0, 55, 59
1, 55226, Note_on_c, 0, 67, 50
1, 55230, Note_on_c, 0, 64, 42
1, 55326, Note_off_c, 0, 64, 47
1, 55331, Control_c, 0, 64, 8
1, 55362, Control_c, 0, 64, 10
1, 55371, Note_off_c, 0, 67, 56
1, 55392, Control_c, 0, 64, 0
1, 55469, Note_on_c, 0, 47, 38
1, 55473, Note_on_c, 0, 65, 47
1, 55473, Note_on_c, 0, 67, 49
1, 55580, Note_off_c, 0, 67, 60
1, 55582, Note_off_c, 0, 65, 62
1, 55616, Note_on_c, 0, 55, 43
1, 55675, Note_off_c, 0, 47, 41
1, 55711, Note_off_c, 0, 55, 58
1, 55725, Note_on_c, 0, 48, 45
1, 55727, Note_on_c, 0, 64, 53
1, 55730, Note_on_c, 0, 67, 50
1, 55830, Note_off_c, 0, 48, 62
1, 55840, Note_on_c, 0, 55, 58
1, 55842, Note_off_c, 0, 67, 60
1, 55849, Note_off_c, 0, 64, 63
1, 55932, Note_off_c, 0, 55, 56
1, 55958, Note_on_c, 0, 67, 61
1, 55959, Note_on_c, 0, 47, 49
1, 55962, Note_on_c, 0, 65, 54
1, 56060, Note_on_c, 0, 55, 61
1, 56062, Note_off_c, 0, 47, 55
1, 56063, Note_off_c, 0, 65, 61
1, 56069, Note_off_c, 0, 67, 58
1, 56160, Note_off_c, 0, 55, 59
1, 56182, Note_on_c, 0, 64, 60
1, 56188, Note_on_c, 0, 67, 60
1, 56189, Note_on_c, 0, 48, 50
1, 56271, Note_off_c, 0, 48, 53
1, 56289, Note_on_c, 0, 55, 56
1, 56292, Note_off_c, 0, 67, 54
1, 56316, Note_off_c, 0, 64, 56
1, 56409, Note_off_c, 0, 55, 59
1, 56412, Note_on_c, 0, 47, 60
1, 56413, Note_on_c, 0, 67, 61
1, 56421, Note_on_c, 0, 65, 55
1, 56498, Note_off_c, 0, 67, 56
1, 56506, Note_off_c, 0, 47, 60
1, 56528, Note_off_c, 0, 65, 58
1, 56533, Note_on_c, 0, 55, 47
1, 56642, Note_off_c, 0, 55, 52
1, 56650, Note_on_c, 0, 48, 56
1, 56660, Note_on_c, 0, 67, 57
1, 56671, Note_on_c, 0, 64, 49
1, 56696, Control_c, 0, 67, 127
1, 56711, Control_c, 0, 67, 121
1, 56725, Control_c, 0, 67, 114
1, 56740, Control_c, 0, 64, 42
1, 56740, Control_c, 0, 67, 103
1, 56755, Control_c, 0, 64, 56
1, 56755, Control_c, 0, 67, 89
1, 56764, Note_on_c, 0, 52, 67
1, 56770, Control_c, 0, 64, 62
1, 56770, Control_c, 0, 67, 69
1, 56784, Note_off_c, 0, 48, 53
1, 56784, Control_c, 0, 64, 64
1, 56784, Control_c, 0, 67, 51
1, 56799, Control_c, 0, 64, 64
1, 56799, Control_c, 0, 67, 35
1, 56814, Control_c, 0, 64, 65
1, 56814, Control_c, 0, 67, 22
1, 56829, Control_c, 0, 64, 66
1, 56829, Control_c, 0, 67, 15
1, 56841, Note_off_c, 0, 52, 65
1, 56843, Control_c, 0, 64, 67
1, 56843, Control_c, 0, 67, 13
1, 56858, Control_c, 0, 64, 67
1, 56858, Control_c, 0, 67, 11
1, 56867, Note_on_c, 0, 55, 60
1, 56873, Control_c, 0, 64, 68
1, 56873, Control_c, 0, 67, 9
1, 56888, Control_c, 0, 67, 0
1, 56891, Note_off_c, 0, 64, 47
1, 56919, Note_off_c, 0, 55, 62
1, 56940, Note_off_c, 0, 67, 59
1, 56981, Note_on_c, 0, 60, 65
1, 57088, Control_c, 0, 64, 67
1, 57102, Control_c, 0, 64, 67
1, 57107, Note_on_c, 0, 64, 75
1, 57112, Note_off_c, 0, 60, 62
1, 57117, Control_c, 0, 64, 66
1, 57132, Control_c, 0, 64, 65
1, 57147, Control_c, 0, 64, 64
1, 57162, Control_c, 0, 64, 63
1, 57176, Control_c, 0, 64, 62
1, 57191, Control_c, 0, 64, 61
1, 57200, Note_off_c, 0, 64, 65
1, 57206, Control_c, 0, 64, 59
1, 57212, Note_on_c, 0, 67, 64
1, 57221, Control_c, 0, 64, 56
1, 57236, Control_c, 0, 64, 51
1, 57250, Control_c, 0, 64, 37
1, 57265, Control_c, 0, 64, 0
1, 57299, Note_off_c, 0, 67, 60
1, 57326, Note_on_c, 0, 74, 42
1, 57333, Note_on_c, 0, 68, 69
1, 57336, Note_on_c, 0, 76, 66
1, 57339, Note_on_c, 0, 56, 53
1, 57399, Control_c, 0, 64, 38
1, 57414, Control_c, 0, 64, 62
1, 57429, Control_c, 0, 64, 68
1, 57444, Control_c, 0, 64, 71
1, 57459, Control_c, 0, 64, 72
1, 57466, Note_off_c, 0, 56, 57
1, 57468, Note_off_c, 0, 74, 53
1, 57488, Control_c, 0, 64, 73
1, 57501, Note_off_c, 0, 76, 63
1, 57503, Control_c, 0, 64, 74
1, 57518, Control_c, 0, 64, 74
1, 57577, Control_c, 0, 64, 71
1, 57585, Note_on_c, 0, 69, 64
1, 57592, Control_c, 0, 64, 65
1, 57594, Note_on_c, 0, 57, 60
1, 57606, Control_c, 0, 64, 49
1, 57619, Note_off_c, 0, 68, 61
1, 57621, Control_c, 0, 64, 0
1, 57696, Control_c, 0, 64, 58
1, 57706, Note_on_c, 0, 73, 69
1, 57711, Control_c, 0, 64, 66
1, 57725, Control_c, 0, 64, 68
1, 57740, Control_c, 0, 64, 68
1, 57743, Note_off_c, 0, 69, 64
1, 57829, Note_on_c, 0, 76, 72
1, 57849, Note_off_c, 0, 73, 61
1, 57852, Note_off_c, 0, 57, 59
1, 57881, Note_off_c, 0, 76, 64
1, 57925, Control_c, 0, 64, 68
1, 57933, Note_on_c, 0, 81, 75
1, 57940, Control_c, 0, 64, 67
1, 57955, Control_c, 0, 64, 66
1, 57970, Control_c, 0, 64, 65
1, 57985, Control_c, 0, 64, 63
1, 57999, Control_c, 0, 64, 59
1, 58014, Control_c, 0, 64, 52
1, 58029, Control_c, 0, 64, 24
1, 58044, Control_c, 0, 64, 0
1, 58059, Note_on_c, 0, 85, 78
1, 58098, Note_off_c, 0, 81, 57
1, 58182, Note_on_c, 0, 88, 69
1, 58239, Note_off_c, 0, 85, 60
1, 58282, Control_c, 0, 67, 8
1, 58296, Control_c, 0, 67, 18
1, 58311, Control_c, 0, 64, 38
1, 58311, Control_c, 0, 67, 30
1, 58326, Control_c, 0, 64, 60
1, 58326, Control_c, 0, 67, 43
1, 58341, Control_c, 0, 64, 65
1, 58341, Control_c, 0, 67, 56
1, 58349, Note_on_c, 0, 93, 79
1, 58355, Control_c, 0, 64, 68
1, 58355, Control_c, 0, 67, 69
1, 58360, Note_on_c, 0, 33, 32
1, 58361, Note_on_c, 0, 81, 55
1, 58366, Note_off_c, 0, 88, 50
1, 58370, Control_c, 0, 64, 71
1, 58370, Control_c, 0, 67, 82
1, 58382, Note_on_c, 0, 45, 12
1, 58385, Control_c, 0, 64, 74
1, 58385, Control_c, 0, 67, 96
1, 58400, Control_c, 0, 64, 76
1, 58400, Control_c, 0, 67, 106
1, 58401, Note_off_c, 0, 33, 44
1, 58415, Note_off_c, 0, 93, 61
1, 58415, Control_c, 0, 64, 79
1, 58415, Control_c, 0, 67, 117
1, 58425, Note_off_c, 0, 45, 46
1, 58425, Note_off_c, 0, 81, 54
1, 58429, Control_c, 0, 64, 80
1, 58429, Control_c, 0, 67, 127
1, 58444, Control_c, 0, 64, 81
1, 58444, Control_c, 0, 67, 127
1, 58644, Control_c, 0, 64, 81
1, 58659, Control_c, 0, 64, 80
1, 58674, Control_c, 0, 64, 79
1, 58688, Control_c, 0, 64, 77
1, 58694, Note_on_c, 0, 50, 54
1, 58703, Control_c, 0, 64, 73
1, 58718, Control_c, 0, 64, 70
1, 58733, Control_c, 0, 64, 65
1, 58742, Note_on_c, 0, 81, 59
1, 58748, Control_c, 0, 64, 61
1, 58763, Control_c, 0, 64, 52
1, 58778, Control_c, 0, 64, 35
1, 58793, Control_c, 0, 64, 0
1, 58856, Note_on_c, 0, 57, 54
1, 58858, Note_off_c, 0, 50, 40
1, 58865, Note_on_c, 0, 77, 51
1, 58930, Note_off_c, 0, 57, 57
1, 58963, Note_off_c, 0, 77, 59
1, 58969, Note_on_c, 0, 65, 47
1, 58985, Note_on_c, 0, 69, 55
1, 59049, Note_off_c, 0, 65, 54
1, 59051, Note_on_c, 0, 57, 54
1, 59054, Note_off_c, 0, 69, 59
1, 59082, Note_on_c, 0, 77, 58
1, 59152, Note_off_c, 0, 81, 35
1, 59153, Note_off_c, 0, 57, 58
1, 59167, Note_off_c, 0, 77, 58
1, 59180, Note_on_c, 0, 69, 49
1, 59192, Note_on_c, 0, 65, 42
1, 59290, Note_off_c, 0, 65, 39
1, 59359, Note_off_c, 0, 69, 58
1, 59424, Note_on_c, 0, 49, 43
1, 59430, Note_on_c, 0, 69, 41
1, 59440, Note_on_c, 0, 67, 49
1, 59544, Note_off_c, 0, 69, 64
1, 59546, Note_off_c, 0, 67, 61
1, 59559, Note_on_c, 0, 57, 58
1, 59627, Note_off_c, 0, 49, 53
1, 59658, Note_off_c, 0, 57, 57
1, 59664, Note_on_c, 0, 50, 48
1, 59672, Note_on_c, 0, 65, 54
1, 59672, Note_on_c, 0, 69, 61
1, 59771, Note_off_c, 0, 50, 63
1, 59782, Note_on_c, 0, 57, 58
1, 59796, Note_off_c, 0, 65, 61
1, 59798, Note_off_c, 0, 69, 64
1, 59887, Note_off_c, 0, 57, 55
1, 59904, Note_on_c, 0, 67, 56
1, 59906, Note_on_c, 0, 49, 50
1, 59911, Note_on_c, 0, 69, 65
1, 60000, Note_on_c, 0, 57, 62
1, 60028, Note_off_c, 0, 67, 61
1, 60028, Note_off_c, 0, 69, 62
1, 60120, Note_off_c, 0, 57, 59
1, 60128, Note_off_c, 0, 49, 37
1, 60140, Note_on_c, 0, 65, 59
1, 60143, Note_on_c, 0, 50, 55
1, 60153, Note_on_c, 0, 69, 64
1, 60236, Note_off_c, 0, 50, 59
1, 60241, Note_on_c, 0, 57, 58
1, 60265, Note_off_c, 0, 69, 61
1, 60265, Note_off_c, 0, 65, 57
1, 60342, Note_off_c, 0, 57, 60
1, 60366, Note_on_c, 0, 49, 54
1, 60370, Note_on_c, 0, 67, 57
1, 60376, Note_on_c, 0, 69, 57
1, 60450, Note_off_c, 0, 69, 54
1, 60471, Note_off_c, 0, 49, 57
1, 60474, Note_on_c, 0, 57, 56
1, 60477, Note_off_c, 0, 67, 54
1, 60618, Note_on_c, 0, 50, 55
1, 60624, Note_on_c, 0, 69, 57
1, 60639, Note_on_c, 0, 65, 46
1, 60645, Note_off_c, 0, 57, 36
1, 60721, Control_c, 0, 64, 44
1, 60735, Control_c, 0, 64, 58
1, 60746, Note_on_c, 0, 53, 62
1, 60750, Control_c, 0, 64, 62
1, 60765, Control_c, 0, 64, 63
1, 60769, Note_off_c, 0, 50, 58
1, 60780, Control_c, 0, 64, 64
1, 60785, Note_off_c, 0, 65, 49
1, 60817, Control_c, 0, 64, 64
1, 60826, Note_off_c, 0, 53, 65
1, 60832, Control_c, 0, 64, 65
1, 60863, Note_on_c, 0, 57, 62
1, 60880, Note_off_c, 0, 69, 60
1, 60933, Note_off_c, 0, 57, 60
1, 60972, Note_on_c, 0, 62, 71
1, 60995, Control_c, 0, 64, 64
1, 61024, Control_c, 0, 64, 64
1, 61039, Control_c, 0, 64, 63
1, 61083, Control_c, 0, 64, 63
1, 61088, Note_on_c, 0, 65, 73
1, 61098, Control_c, 0, 64, 62
1, 61112, Note_off_c, 0, 62, 54
1, 61113, Control_c, 0, 64, 61
1, 61128, Control_c, 0, 64, 60
1, 61142, Control_c, 0, 64, 59
1, 61157, Control_c, 0, 64, 58
1, 61172, Control_c, 0, 64, 57
1, 61187, Control_c, 0, 64, 55
1, 61196, Note_on_c, 0, 69, 60
1, 61202, Control_c, 0, 64, 54
1, 61216, Control_c, 0, 64, 52
1, 61227, Note_off_c, 0, 65, 56
1, 61231, Control_c, 0, 64, 46
1, 61246, Control_c, 0, 64, 22
1, 61249, Note_off_c, 0, 69, 62
1, 61261, Control_c, 0, 64, 0
1, 61304, Note_on_c, 0, 77, 77
1, 61315, Note_on_c, 0, 75, 67
1, 61317, Note_on_c, 0, 69, 60
1, 61324, Note_on_c, 0, 57, 67
1, 61365, Control_c, 0, 64, 12
1, 61380, Control_c, 0, 64, 60
1, 61395, Control_c, 0, 64, 65
1, 61410, Control_c, 0, 64, 66
1, 61452, Note_off_c, 0, 57, 63
1, 61452, Note_off_c, 0, 69, 61
1, 61458, Note_off_c, 0, 77, 62
1, 61464, Note_off_c, 0, 75, 64
1, 61484, Control_c, 0, 64, 67
1, 61551, Control_c, 0, 64, 66
1, 61565, Control_c, 0, 64, 63
1, 61577, Note_on_c, 0, 58, 77
1, 61579, Note_on_c, 0, 70, 76
1, 61580, Control_c, 0, 64, 51
1, 61595, Control_c, 0, 64, 0
1, 61640, Control_c, 0, 67, 127
1, 61654, Control_c, 0, 67, 114
1, 61669, Control_c, 0, 67, 96
1, 61684, Control_c, 0, 64, 53
1, 61684, Control_c, 0, 67, 76
1, 61685, Note_on_c, 0, 74, 70
1, 61699, Control_c, 0, 64, 65
1, 61699, Control_c, 0, 67, 55
1, 61714, Control_c, 0, 64, 69
1, 61714, Control_c, 0, 67, 36
1, 61717, Note_off_c, 0, 70, 64
1, 61729, Control_c, 0, 64, 71
1, 61729, Control_c, 0, 67, 24
1, 61744, Control_c, 0, 64, 72
1, 61744, Control_c, 0, 67, 16
1, 61759, Control_c, 0, 64, 72
1, 61759, Control_c, 0, 67, 8
1, 61773, Control_c, 0, 64, 74
1, 61773, Control_c, 0, 67, 0
1, 61788, Control_c, 0, 64, 75
1, 61793, Note_off_c, 0, 58, 62
1, 61798, Note_on_c, 0, 77, 80
1, 61803, Control_c, 0, 64, 76
1, 61812, Note_off_c, 0, 74, 63
1, 61818, Control_c, 0, 64, 76
1, 61847, Control_c, 0, 64, 77
1, 61906, Control_c, 0, 64, 77
1, 61908, Note_on_c, 0, 82, 76
1, 61935, Note_off_c, 0, 77, 62
1, 61936, Control_c, 0, 64, 78
1, 61951, Control_c, 0, 64, 79
1, 61959, Note_on_c, 0, 80, 10
1, 61961, Note_off_c, 0, 82, 65
1, 61980, Control_c, 0, 64, 78
1, 61995, Control_c, 0, 64, 75
1, 62004, Note_off_c, 0, 80, 54
1, 62010, Control_c, 0, 64, 68
1, 62024, Note_on_c, 0, 46, 84
1, 62025, Control_c, 0, 64, 59
1, 62029, Note_on_c, 0, 34, 72
1, 62030, Note_on_c, 0, 86, 84
1, 62039, Control_c, 0, 64, 0
1, 62122, Note_off_c, 0, 86, 63
1, 62137, Note_on_c, 0, 89, 65
1, 62170, Note_off_c, 0, 34, 64
1, 62174, Note_off_c, 0, 46, 59
1, 62261, Note_on_c, 0, 44, 87
1, 62268, Note_on_c, 0, 32, 75
1, 62269, Note_on_c, 0, 94, 97
1, 62274, Note_on_c, 0, 82, 90
1, 62362, Note_off_c, 0, 89, 36
1, 62405, Note_off_c, 0, 94, 63
1, 62427, Note_off_c, 0, 32, 61
1, 62439, Note_off_c, 0, 44, 62
1, 62456, Note_on_c, 0, 81, 29
1, 62467, Note_off_c, 0, 82, 63
1, 62494, Note_off_c, 0, 81, 41
1, 62521, Note_on_c, 0, 43, 97
1, 62522, Note_on_c, 0, 31, 90
1, 62680, Note_off_c, 0, 31, 62
1, 62700, Note_off_c, 0, 43, 60
1, 62785, Note_on_c, 0, 83, 92
1, 62787, Note_on_c, 0, 77, 85
1, 62790, Note_on_c, 0, 71, 85
1, 62790, Note_on_c, 0, 74, 75
1, 62944, Note_off_c, 0, 74, 64
1, 62951, Note_off_c, 0, 77, 62
1, 62969, Note_off_c, 0, 83, 57
1, 62992, Note_off_c, 0, 71, 58
1, 63047, Note_on_c, 0, 42, 92
1, 63052, Note_on_c, 0, 30, 83
1, 63320, Note_off_c, 0, 30, 57
1, 63365, Note_on_c, 0, 72, 85
1, 63366, Note_on_c, 0, 81, 82
1, 63367, Note_on_c, 0, 84, 91
1, 63368, Note_on_c, 0, 75, 86
1, 63407, Note_off_c, 0, 42, 58
1, 63661, Note_off_c, 0, 84, 61
1, 63662, Note_off_c, 0, 72, 62
1, 63684, Note_off_c, 0, 81, 57
1, 63722, Note_off_c, 0, 75, 63
1, 64301, Control_c, 0, 67, 10
1, 64316, Control_c, 0, 67, 17
1, 64331, Control_c, 0, 67, 23
1, 64346, Control_c, 0, 67, 30
1, 64360, Control_c, 0, 67, 35
1, 64375, Control_c, 0, 67, 40
1, 64390, Control_c, 0, 67, 45
1, 64405, Control_c, 0, 67, 51
1, 64420, Control_c, 0, 67, 57
1, 64434, Control_c, 0, 67, 65
1, 64449, Control_c, 0, 67, 73
1, 64464, Control_c, 0, 67, 80
1, 64479, Control_c, 0, 67, 86
1, 64489, Note_on_c, 0, 56, 25
1, 64492, Note_on_c, 0, 60, 30
1, 64492, Note_on_c, 0, 62, 33
1, 64493, Control_c, 0, 67, 91
1, 64509, Control_c, 0, 67, 96
1, 64524, Control_c, 0, 67, 101
1, 64546, Control_c, 0, 67, 105
1, 64561, Control_c, 0, 67, 109
1, 64576, Control_c, 0, 67, 111
1, 64591, Control_c, 0, 67, 114
1, 64606, Control_c, 0, 67, 117
1, 64620, Control_c, 0, 67, 119
1, 64635, Control_c, 0, 67, 122
1, 64650, Control_c, 0, 67, 125
1, 64665, Control_c, 0, 67, 127
1, 64680, Control_c, 0, 67, 127
1, 64713, Note_off_c, 0, 56, 39
1, 64713, Note_off_c, 0, 62, 42
1, 64722, Note_off_c, 0, 60, 41
1, 64837, Note_on_c, 0, 74, 45
1, 64853, Note_on_c, 0, 72, 38
1, 64862, Note_on_c, 0, 65, 28
1, 65015, Note_off_c, 0, 65, 54
1, 65032, Note_off_c, 0, 74, 59
1, 65044, Note_off_c, 0, 72, 60
1, 65218, Note_on_c, 0, 62, 26
1, 65220, Note_on_c, 0, 55, 23
1, 65225, Note_on_c, 0, 65, 30
1, 65561, Note_off_c, 0, 55, 40
1, 65575, Note_off_c, 0, 65, 42
1, 65604, Note_off_c, 0, 62, 40
1, 65682, Note_on_c, 0, 74, 27
1, 65686, Note_on_c, 0, 79, 36
1, 65694, Note_on_c, 0, 67, 20
1, 65694, Note_on_c, 0, 71, 34
1, 66001, Note_off_c, 0, 79, 58
1, 66013, Note_off_c, 0, 67, 43
1, 66062, Note_off_c, 0, 74, 53
1, 66075, Note_off_c, 0, 71, 43
1, 67000, Control_c, 0, 64, 32
1, 67015, Control_c, 0, 64, 53
1, 67030, Control_c, 0, 64, 60
1, 67045, Control_c, 0, 64, 61
1, 67059, Control_c, 0, 64, 62
1, 67074, Control_c, 0, 64, 62
1, 67089, Control_c, 0, 64, 63
1, 67104, Control_c, 0, 64, 63
1, 67118, Control_c, 0, 64, 64
1, 67133, Control_c, 0, 64, 65
1, 67148, Control_c, 0, 64, 66
1, 67163, Control_c, 0, 64, 67
1, 67178, Control_c, 0, 64, 68
1, 67193, Control_c, 0, 64, 70
1, 67208, Control_c, 0, 64, 72
1, 67223, Control_c, 0, 64, 75
1, 67237, Control_c, 0, 64, 77
1, 67252, Control_c, 0, 64, 79
1, 67267, Control_c, 0, 64, 82
1, 67282, Control_c, 0, 64, 84
1, 67297, Control_c, 0, 64, 87
1, 67311, Control_c, 0, 64, 90
1, 67326, Control_c, 0, 64, 93
1, 67341, Control_c, 0, 64, 95
1, 67356, Control_c, 0, 64, 96
1, 67371, Control_c, 0, 64, 97
1, 67385, Control_c, 0, 64, 98
1, 67400, Control_c, 0, 64, 99
1, 67415, Control_c, 0, 64, 100
1, 67429, Control_c, 0, 64, 101
1, 67444, Control_c, 0, 64, 101
1, 67459, Control_c, 0, 64, 102
1, 67489, Control_c, 0, 64, 102
1, 67571, Control_c, 0, 64, 103
1, 67593, Note_on_c, 0, 75, 38
1, 67613, Note_on_c, 0, 63, 28
1, 67630, Control_c, 0, 64, 103
1, 67699, Note_off_c, 0, 63, 32
1, 67724, Note_off_c, 0, 75, 49
1, 67846, Note_on_c, 0, 62, 40
1, 67847, Note_on_c, 0, 74, 35
1, 67879, Note_off_c, 0, 74, 57
1, 67894, Note_off_c, 0, 62, 43
1, 67897, Control_c, 0, 64, 101
1, 67912, Note_on_c, 0, 75, 46
1, 67912, Control_c, 0, 64, 95
1, 67923, Note_on_c, 0, 63, 39
1, 67927, Control_c, 0, 64, 86
1, 67941, Control_c, 0, 64, 77
1, 67956, Control_c, 0, 64, 68
1, 67965, Note_off_c, 0, 63, 46
1, 67971, Control_c, 0, 64, 59
1, 67977, Note_on_c, 0, 74, 56
1, 67982, Note_on_c, 0, 62, 38
1, 67982, Note_off_c, 0, 75, 51
1, 67986, Control_c, 0, 64, 0
1, 68264, Note_on_c, 0, 72, 45
1, 68272, Note_on_c, 0, 60, 24
1, 68292, Note_off_c, 0, 74, 59
1, 68335, Note_off_c, 0, 62, 44
1, 68594, Note_on_c, 0, 79, 51
1, 68613, Note_on_c, 0, 67, 28
1, 68633, Note_off_c, 0, 72, 37
1, 68674, Note_off_c, 0, 60, 40
1, 68735, Control_c, 0, 64, 34
1, 68750, Control_c, 0, 64, 59
1, 68764, Control_c, 0, 64, 65
1, 68779, Control_c, 0, 64, 69
1, 68794, Control_c, 0, 64, 72
1, 68809, Control_c, 0, 64, 76
1, 68824, Control_c, 0, 64, 80
1, 68839, Control_c, 0, 64, 85
1, 68854, Control_c, 0, 64, 88
1, 68869, Control_c, 0, 64, 91
1, 68883, Control_c, 0, 64, 92
1, 68898, Control_c, 0, 64, 93
1, 68913, Control_c, 0, 64, 94
1, 68943, Control_c, 0, 64, 94
1, 69032, Note_off_c, 0, 67, 40
1, 69076, Note_on_c, 0, 75, 41
1, 69080, Note_on_c, 0, 63, 37
1, 69143, Control_c, 0, 64, 93
1, 69154, Note_on_c, 0, 60, 34
1, 69157, Note_on_c, 0, 72, 42
1, 69157, Control_c, 0, 64, 91
1, 69172, Control_c, 0, 64, 87
1, 69187, Control_c, 0, 64, 81
1, 69202, Control_c, 0, 64, 74
1, 69217, Control_c, 0, 64, 67
1, 69232, Control_c, 0, 64, 57
1, 69237, Note_off_c, 0, 75, 30
1, 69244, Note_on_c, 0, 67, 43
1, 69247, Control_c, 0, 64, 19
1, 69262, Control_c, 0, 64, 0
1, 69262, Note_off_c, 0, 63, 18
1, 69265, Note_on_c, 0, 55, 20
1, 69291, Note_off_c, 0, 79, 34
1, 69322, Note_off_c, 0, 60, 21
1, 69329, Note_off_c, 0, 72, 44
1, 69972, Note_off_c, 0, 67, 61
1, 69988, Note_off_c, 0, 55, 53
1, 70155, Note_on_c, 0, 67, 51
1, 70181, Note_on_c, 0, 63, 36
1, 70216, Note_on_c, 0, 55, 17
1, 70372, Note_off_c, 0, 67, 60
1, 70391, Note_off_c, 0, 55, 54
1, 70398, Note_off_c, 0, 63, 53
1, 70491, Note_on_c, 0, 67, 60
1, 70496, Note_on_c, 0, 62, 45
1, 70498, Note_on_c, 0, 65, 57
1, 70533, Note_on_c, 0, 55, 42
1, 70701, Note_off_c, 0, 55, 62
1, 70711, Note_off_c, 0, 67, 60
1, 70718, Note_off_c, 0, 65, 61
1, 70734, Note_off_c, 0, 62, 55
1, 70794, Note_on_c, 0, 67, 65
1, 70800, Note_on_c, 0, 60, 49
1, 70804, Note_on_c, 0, 63, 68
1, 70825, Note_on_c, 0, 55, 56
1, 71013, Note_off_c, 0, 55, 62
1, 71020, Note_off_c, 0, 63, 61
1, 71021, Note_off_c, 0, 60, 62
1, 71028, Note_off_c, 0, 67, 52
1, 71104, Note_on_c, 0, 59, 60
1, 71109, Note_on_c, 0, 67, 67
1, 71114, Note_on_c, 0, 62, 70
1, 71115, Note_on_c, 0, 55, 60
1, 71228, Note_off_c, 0, 67, 56
1, 71318, Note_off_c, 0, 55, 63
1, 71354, Note_off_c, 0, 62, 59
1, 71360, Note_off_c, 0, 59, 58
1, 71444, Note_on_c, 0, 75, 78
1, 71451, Note_on_c, 0, 66, 65
1, 71459, Note_on_c, 0, 60, 45
1, 71474, Note_on_c, 0, 63, 45
1, 71499, Note_on_c, 0, 55, 23
1, 71551, Control_c, 0, 67, 122
1, 71566, Control_c, 0, 67, 104
1, 71581, Control_c, 0, 64, 32
1, 71581, Control_c, 0, 67, 87
1, 71596, Control_c, 0, 64, 56
1, 71596, Control_c, 0, 67, 71
1, 71610, Control_c, 0, 64, 63
1, 71610, Control_c, 0, 67, 55
1, 71614, Note_off_c, 0, 66, 61
1, 71625, Control_c, 0, 64, 66
1, 71625, Control_c, 0, 67, 40
1, 71640, Control_c, 0, 64, 69
1, 71640, Control_c, 0, 67, 33
1, 71655, Control_c, 0, 64, 73
1, 71655, Control_c, 0, 67, 30
1, 71670, Control_c, 0, 64, 78
1, 71674, Note_off_c, 0, 75, 63
1, 71684, Control_c, 0, 64, 81
1, 71694, Note_off_c, 0, 55, 48
1, 71700, Control_c, 0, 64, 83
1, 71703, Note_off_c, 0, 60, 56
1, 71706, Note_off_c, 0, 63, 36
1, 71715, Control_c, 0, 64, 85
1, 71730, Control_c, 0, 64, 85
1, 71745, Control_c, 0, 64, 86
1, 71774, Control_c, 0, 67, 31
1, 71804, Control_c, 0, 67, 32
1, 71833, Control_c, 0, 67, 32
1, 71848, Control_c, 0, 64, 85
1, 71848, Control_c, 0, 67, 33
1, 71863, Control_c, 0, 64, 84
1, 71878, Control_c, 0, 64, 82
1, 71878, Control_c, 0, 67, 33
1, 71892, Control_c, 0, 64, 78
1, 71892, Control_c, 0, 67, 34
1, 71907, Control_c, 0, 64, 72
1, 71907, Control_c, 0, 67, 35
1, 71915, Note_on_c, 0, 75, 73
1, 71922, Control_c, 0, 64, 66
1, 71922, Control_c, 0, 67, 35
1, 71930, Note_on_c, 0, 55, 32
1, 71934, Note_on_c, 0, 63, 41
1, 71937, Control_c, 0, 64, 61
1, 71937, Control_c, 0, 67, 36
1, 71939, Note_on_c, 0, 60, 31
1, 71951, Note_on_c, 0, 67, 39
1, 71952, Control_c, 0, 64, 49
1, 71952, Control_c, 0, 67, 37
1, 71966, Control_c, 0, 64, 0
1, 71966, Control_c, 0, 67, 38
1, 71981, Control_c, 0, 67, 39
1, 71996, Control_c, 0, 67, 40
1, 72011, Control_c, 0, 67, 42
1, 72016, Note_off_c, 0, 67, 0
1, 72016, Note_on_c, 0, 67, 13
1, 72033, Control_c, 0, 67, 45
1, 72048, Control_c, 0, 67, 48
1, 72063, Control_c, 0, 67, 53
1, 72078, Control_c, 0, 67, 58
1, 72093, Control_c, 0, 67, 65
1, 72107, Control_c, 0, 67, 72
1, 72122, Control_c, 0, 67, 81
1, 72137, Control_c, 0, 67, 91
1, 72152, Control_c, 0, 67, 100
1, 72167, Control_c, 0, 67, 108
1, 72181, Control_c, 0, 67, 117
1, 72196, Control_c, 0, 64, 49
1, 72196, Control_c, 0, 67, 127
1, 72211, Control_c, 0, 64, 60
1, 72211, Control_c, 0, 67, 127
1, 72225, Control_c, 0, 64, 64
1, 72240, Control_c, 0, 64, 65
1, 72255, Control_c, 0, 64, 66
1, 72270, Control_c, 0, 64, 68
1, 72285, Control_c, 0, 64, 71
1, 72299, Control_c, 0, 64, 74
1, 72314, Control_c, 0, 64, 76
1, 72329, Control_c, 0, 64, 78
1, 72344, Control_c, 0, 64, 79
1, 72359, Control_c, 0, 64, 80
1, 72374, Control_c, 0, 64, 81
1, 72389, Control_c, 0, 64, 81
1, 72389, Note_off_c, 0, 60, 35
1, 72418, Control_c, 0, 64, 82
1, 72439, Note_off_c, 0, 63, 38
1, 72687, Control_c, 0, 64, 80
1, 72702, Control_c, 0, 64, 77
1, 72709, Note_on_c, 0, 59, 29
1, 72716, Control_c, 0, 64, 73
1, 72723, Note_off_c, 0, 75, 38
1, 72728, Note_on_c, 0, 74, 37
1, 72731, Control_c, 0, 64, 68
1, 72746, Control_c, 0, 64, 62
1, 72753, Note_on_c, 0, 62, 26
1, 72761, Control_c, 0, 64, 36
1, 72783, Control_c, 0, 64, 0
1, 72852, Note_off_c, 0, 55, 40
1, 72872, Control_c, 0, 64, 47
1, 72886, Control_c, 0, 64, 63
1, 72901, Control_c, 0, 64, 68
1, 72916, Note_off_c, 0, 67, 44
1, 72916, Control_c, 0, 64, 72
1, 72931, Control_c, 0, 64, 74
1, 72946, Control_c, 0, 64, 75
1, 72956, Note_off_c, 0, 74, 62
1, 72961, Control_c, 0, 64, 75
1, 73006, Note_off_c, 0, 59, 41
1, 73012, Note_off_c, 0, 62, 41
1, 73242, Control_c, 0, 64, 75
1, 73262, Note_on_c, 0, 77, 45
1, 73280, Note_on_c, 0, 65, 36
1, 73316, Note_off_c, 0, 65, 51
1, 73317, Note_off_c, 0, 77, 58
1, 73424, Note_on_c, 0, 75, 45
1, 73450, Control_c, 0, 64, 74
1, 73465, Control_c, 0, 64, 74
1, 73474, Note_off_c, 0, 75, 61
1, 73479, Control_c, 0, 64, 73
1, 73487, Note_on_c, 0, 77, 47
1, 73493, Note_on_c, 0, 65, 31
1, 73494, Control_c, 0, 64, 73
1, 73509, Control_c, 0, 64, 71
1, 73531, Control_c, 0, 64, 68
1, 73537, Note_off_c, 0, 65, 52
1, 73542, Note_on_c, 0, 63, 39
1, 73542, Note_on_c, 0, 75, 48
1, 73545, Control_c, 0, 64, 64
1, 73560, Control_c, 0, 64, 58
1, 73575, Control_c, 0, 64, 39
1, 73590, Control_c, 0, 64, 0
1, 73594, Note_off_c, 0, 77, 36
1, 73842, Note_on_c, 0, 74, 47
1, 73851, Note_on_c, 0, 62, 38
1, 73854, Note_off_c, 0, 63, 55
1, 73896, Note_off_c, 0, 75, 57
1, 74216, Note_on_c, 0, 80, 51
1, 74230, Note_on_c, 0, 68, 39
1, 74269, Note_off_c, 0, 74, 56
1, 74311, Note_off_c, 0, 62, 40
1, 74696, Note_on_c, 0, 77, 42
1, 74739, Note_off_c, 0, 68, 46
1, 74772, Note_on_c, 0, 62, 40
1, 74772, Note_on_c, 0, 74, 44
1, 74845, Note_on_c, 0, 67, 45
1, 74855, Note_off_c, 0, 77, 35
1, 74870, Note_on_c, 0, 55, 36
1, 74910, Note_off_c, 0, 74, 57
1, 74910, Note_off_c, 0, 80, 36
1, 74923, Note_off_c, 0, 62, 27
1, 75656, Note_off_c, 0, 67, 43
1, 75677, Note_off_c, 0, 55, 49
1, 75864, Note_on_c, 0, 67, 59
1, 75888, Note_on_c, 0, 55, 17
1, 76074, Control_c, 0, 64, 34
1, 76089, Control_c, 0, 64, 54
1, 76104, Control_c, 0, 64, 60
1, 76136, Note_off_c, 0, 67, 57
1, 76152, Note_off_c, 0, 55, 57
1, 76192, Control_c, 0, 64, 59
1, 76207, Control_c, 0, 64, 55
1, 76222, Control_c, 0, 64, 46
1, 76237, Note_on_c, 0, 68, 66
1, 76237, Control_c, 0, 64, 17
1, 76251, Note_on_c, 0, 67, 58
1, 76252, Control_c, 0, 64, 0
1, 76281, Note_on_c, 0, 55, 50
1, 76326, Control_c, 0, 64, 45
1, 76341, Control_c, 0, 64, 59
1, 76356, Control_c, 0, 64, 63
1, 76371, Control_c, 0, 64, 64
1, 76386, Control_c, 0, 64, 65
1, 76400, Control_c, 0, 64, 65
1, 76415, Control_c, 0, 64, 66
1, 76430, Control_c, 0, 64, 68
1, 76445, Control_c, 0, 64, 69
1, 76449, Note_off_c, 0, 67, 59
1, 76459, Control_c, 0, 64, 70
1, 76475, Note_off_c, 0, 55, 63
1, 76500, Note_off_c, 0, 68, 56
1, 76527, Control_c, 0, 64, 70
1, 76542, Control_c, 0, 64, 67
1, 76557, Control_c, 0, 64, 63
1, 76571, Control_c, 0, 64, 50
1, 76575, Note_on_c, 0, 71, 69
1, 76582, Note_on_c, 0, 65, 54
1, 76586, Control_c, 0, 64, 0
1, 76595, Note_on_c, 0, 67, 43
1, 76596, Note_on_c, 0, 55, 43
1, 76630, Control_c, 0, 64, 34
1, 76645, Control_c, 0, 64, 55
1, 76660, Control_c, 0, 64, 63
1, 76675, Control_c, 0, 64, 65
1, 76690, Control_c, 0, 64, 66
1, 76705, Control_c, 0, 64, 66
1, 76720, Control_c, 0, 64, 67
1, 76735, Control_c, 0, 64, 68
1, 76750, Control_c, 0, 64, 68
1, 76765, Control_c, 0, 64, 69
1, 76766, Note_off_c, 0, 67, 60
1, 76766, Note_off_c, 0, 55, 59
1, 76779, Control_c, 0, 64, 69
1, 76788, Note_off_c, 0, 71, 61
1, 76838, Control_c, 0, 64, 69
1, 76840, Note_off_c, 0, 65, 36
1, 76853, Control_c, 0, 64, 66
1, 76868, Control_c, 0, 64, 60
1, 76869, Note_on_c, 0, 72, 79
1, 76878, Note_on_c, 0, 63, 62
1, 76883, Control_c, 0, 64, 36
1, 76890, Note_on_c, 0, 55, 57
1, 76892, Note_on_c, 0, 67, 54
1, 76897, Control_c, 0, 64, 0
1, 76942, Control_c, 0, 64, 47
1, 76957, Control_c, 0, 64, 62
1, 76971, Control_c, 0, 64, 66
1, 76984, Note_off_c, 0, 72, 64
1, 76986, Control_c, 0, 64, 69
1, 77001, Control_c, 0, 64, 70
1, 77030, Control_c, 0, 64, 70
1, 77045, Control_c, 0, 64, 71
1, 77074, Note_off_c, 0, 55, 61
1, 77075, Control_c, 0, 64, 71
1, 77078, Note_off_c, 0, 63, 61
1, 77097, Note_off_c, 0, 67, 61
1, 77119, Control_c, 0, 64, 72
1, 77193, Control_c, 0, 64, 69
1, 77198, Note_on_c, 0, 74, 80
1, 77208, Control_c, 0, 64, 64
1, 77219, Note_on_c, 0, 62, 56
1, 77222, Control_c, 0, 64, 50
1, 77224, Note_on_c, 0, 59, 48
1, 77224, Note_on_c, 0, 67, 48
1, 77230, Note_on_c, 0, 55, 45
1, 77237, Control_c, 0, 64, 0
1, 77305, Control_c, 0, 64, 44
1, 77319, Control_c, 0, 64, 62
1, 77321, Note_off_c, 0, 59, 61
1, 77334, Control_c, 0, 64, 67
1, 77349, Control_c, 0, 64, 70
1, 77351, Note_off_c, 0, 55, 62
1, 77364, Control_c, 0, 64, 71
1, 77370, Note_off_c, 0, 67, 54
1, 77394, Control_c, 0, 64, 71
1, 77403, Note_off_c, 0, 62, 58
1, 77408, Control_c, 0, 64, 72
1, 77423, Control_c, 0, 64, 72
1, 77438, Control_c, 0, 64, 73
1, 77449, Note_off_c, 0, 74, 62
1, 77453, Control_c, 0, 64, 73
1, 77631, Control_c, 0, 64, 72
1, 77645, Control_c, 0, 64, 71
1, 77660, Control_c, 0, 64, 69
1, 77665, Note_on_c, 0, 77, 76
1, 77675, Control_c, 0, 64, 66
1, 77690, Control_c, 0, 64, 62
1, 77693, Note_on_c, 0, 60, 33
1, 77705, Control_c, 0, 64, 53
1, 77711, Note_on_c, 0, 62, 32
1, 77713, Note_on_c, 0, 67, 35
1, 77719, Control_c, 0, 64, 26
1, 77724, Note_on_c, 0, 65, 28
1, 77734, Control_c, 0, 64, 0
1, 77781, Note_off_c, 0, 62, 0
1, 77781, Note_on_c, 0, 62, 3
1, 78491, Note_on_c, 0, 75, 44
1, 78511, Note_off_c, 0, 62, 41
1, 78512, Note_on_c, 0, 63, 29
1, 78528, Note_off_c, 0, 65, 43
1, 78533, Note_off_c, 0, 77, 60
1, 78574, Note_off_c, 0, 63, 0
1, 78574, Note_on_c, 0, 63, 3
1, 78660, Control_c, 0, 64, 47
1, 78675, Control_c, 0, 64, 62
1, 78690, Control_c, 0, 64, 67
1, 78705, Note_off_c, 0, 75, 64
1, 78705, Control_c, 0, 64, 70
1, 78720, Control_c, 0, 64, 72
1, 78735, Control_c, 0, 64, 74
1, 78750, Control_c, 0, 64, 75
1, 78752, Note_off_c, 0, 63, 52
1, 78769, Note_off_c, 0, 67, 37
1, 78771, Note_off_c, 0, 60, 50
1, 78772, Control_c, 0, 64, 76
1, 79024, Control_c, 0, 64, 75
1, 79039, Control_c, 0, 64, 72
1, 79054, Control_c, 0, 64, 67
1, 79060, Note_on_c, 0, 63, 57
1, 79063, Note_on_c, 0, 51, 46
1, 79069, Control_c, 0, 64, 62
1, 79084, Control_c, 0, 64, 56
1, 79114, Control_c, 0, 64, 59
1, 79128, Control_c, 0, 64, 62
1, 79143, Control_c, 0, 64, 64
1, 79158, Control_c, 0, 64, 66
1, 79160, Note_off_c, 0, 63, 57
1, 79173, Control_c, 0, 64, 67
1, 79173, Note_off_c, 0, 51, 37
1, 79188, Control_c, 0, 64, 68
1, 79203, Control_c, 0, 64, 69
1, 79217, Control_c, 0, 64, 69
1, 79232, Control_c, 0, 67, 108
1, 79247, Control_c, 0, 67, 86
1, 79254, Note_on_c, 0, 62, 59
1, 79262, Control_c, 0, 67, 63
1, 79277, Control_c, 0, 67, 43
1, 79285, Note_off_c, 0, 62, 61
1, 79291, Control_c, 0, 64, 69
1, 79291, Control_c, 0, 67, 24
1, 79306, Control_c, 0, 64, 68
1, 79306, Control_c, 0, 67, 11
1, 79307, Note_on_c, 0, 63, 60
1, 79314, Note_on_c, 0, 51, 53
1, 79322, Control_c, 0, 64, 67
1, 79322, Control_c, 0, 67, 0
1, 79336, Control_c, 0, 64, 65
1, 79351, Note_on_c, 0, 62, 75
1, 79351, Control_c, 0, 64, 61
1, 79366, Control_c, 0, 64, 49
1, 79381, Control_c, 0, 64, 0
1, 79407, Note_on_c, 0, 50, 31
1, 79413, Note_off_c, 0, 63, 51
1, 79480, Note_off_c, 0, 51, 41
1, 79634, Note_on_c, 0, 60, 73
1, 79651, Note_on_c, 0, 48, 63
1, 79704, Note_off_c, 0, 62, 54
1, 79843, Note_off_c, 0, 50, 34
1, 79966, Note_on_c, 0, 67, 85
1, 79977, Note_on_c, 0, 55, 72
1, 80073, Note_off_c, 0, 48, 52
1, 80093, Note_off_c, 0, 60, 54
1, 80360, Control_c, 0, 64, 19
1, 80374, Control_c, 0, 64, 23
1, 80389, Control_c, 0, 64, 27
1, 80404, Control_c, 0, 64, 32
1, 80419, Control_c, 0, 64, 37
1, 80434, Control_c, 0, 64, 39
1, 80448, Control_c, 0, 64, 39
1, 80458, Note_on_c, 0, 63, 60
1, 80472, Note_on_c, 0, 51, 44
1, 80478, Control_c, 0, 64, 39
1, 80494, Control_c, 0, 64, 38
1, 80518, Note_on_c, 0, 60, 65
1, 80524, Control_c, 0, 64, 38
1, 80530, Note_on_c, 0, 48, 51
1, 80538, Note_off_c, 0, 51, 50
1, 80553, Control_c, 0, 64, 37
1, 80568, Control_c, 0, 64, 35
1, 80583, Control_c, 0, 64, 33
1, 80586, Note_on_c, 0, 56, 80
1, 80594, Note_on_c, 0, 44, 59
1, 80597, Control_c, 0, 64, 29
1, 80612, Control_c, 0, 64, 14
1, 80627, Control_c, 0, 64, 0
1, 80628, Note_off_c, 0, 48, 54
1, 80685, Note_off_c, 0, 60, 52
1, 80709, Note_off_c, 0, 63, 31
1, 81184, Note_on_c, 0, 65, 64
1, 81202, Note_on_c, 0, 53, 55
1, 81399, Note_off_c, 0, 55, 35
1, 81471, Note_on_c, 0, 63, 79
1, 81480, Note_on_c, 0, 51, 69
1, 81485, Note_off_c, 0, 67, 39
1, 81514, Note_off_c, 0, 65, 59
1, 81546, Note_off_c, 0, 53, 55
1, 81553, Control_c, 0, 64, 26
1, 81567, Control_c, 0, 64, 48
1, 81582, Control_c, 0, 64, 55
1, 81597, Control_c, 0, 64, 59
1, 81612, Control_c, 0, 64, 60
1, 81626, Control_c, 0, 64, 61
1, 81656, Control_c, 0, 64, 61
1, 81745, Control_c, 0, 64, 60
1, 81767, Note_on_c, 0, 62, 81
1, 81767, Control_c, 0, 64, 59
1, 81772, Note_on_c, 0, 50, 65
1, 81782, Control_c, 0, 64, 54
1, 81788, Note_off_c, 0, 51, 59
1, 81795, Note_off_c, 0, 63, 62
1, 81797, Control_c, 0, 64, 43
1, 81811, Control_c, 0, 64, 0
1, 82064, Note_on_c, 0, 63, 75
1, 82071, Note_on_c, 0, 60, 65
1, 82077, Note_on_c, 0, 51, 55
1, 82080, Note_on_c, 0, 48, 54
1, 82083, Note_off_c, 0, 50, 56
1, 82104, Note_off_c, 0, 62, 54
1, 82109, Control_c, 0, 64, 48
1, 82124, Control_c, 0, 64, 63
1, 82139, Control_c, 0, 64, 68
1, 82153, Control_c, 0, 64, 71
1, 82168, Control_c, 0, 64, 72
1, 82183, Control_c, 0, 64, 73
1, 82187, Note_off_c, 0, 44, 58
1, 82190, Note_off_c, 0, 56, 48
1, 82198, Control_c, 0, 64, 73
1, 82199, Note_off_c, 0, 48, 61
1, 82210, Note_off_c, 0, 51, 59
1, 82219, Note_off_c, 0, 60, 59
1, 82302, Control_c, 0, 64, 74
1, 82337, Note_off_c, 0, 63, 38
1, 82346, Control_c, 0, 64, 73
1, 82360, Control_c, 0, 64, 70
1, 82372, Note_on_c, 0, 65, 63
1, 82375, Control_c, 0, 64, 63
1, 82378, Note_on_c, 0, 62, 58
1, 82381, Note_on_c, 0, 50, 44
1, 82389, Note_on_c, 0, 46, 42
1, 82390, Note_on_c, 0, 56, 47
1, 82390, Note_on_c, 0, 58, 47
1, 82390, Control_c, 0, 64, 37
1, 82399, Note_on_c, 0, 44, 39
1, 82404, Note_on_c, 0, 53, 38
1, 82405, Control_c, 0, 64, 0
1, 82449, Control_c, 0, 64, 51
1, 82464, Control_c, 0, 64, 64
1, 82479, Control_c, 0, 64, 68
1, 82489, Note_off_c, 0, 65, 55
1, 82494, Control_c, 0, 64, 69
1, 82520, Note_off_c, 0, 62, 60
1, 82521, Note_off_c, 0, 53, 56
1, 82523, Note_off_c, 0, 58, 61
1, 82546, Control_c, 0, 64, 70
1, 82547, Note_off_c, 0, 50, 36
1, 82556, Note_off_c, 0, 56, 57
1, 82560, Control_c, 0, 64, 70
1, 82568, Note_off_c, 0, 44, 48
1, 82573, Note_off_c, 0, 46, 51
1, 82575, Control_c, 0, 64, 71
1, 82590, Control_c, 0, 64, 73
1, 82605, Control_c, 0, 64, 74
1, 82620, Control_c, 0, 64, 75
1, 82664, Control_c, 0, 64, 73
1, 82679, Control_c, 0, 64, 68
1, 82690, Note_on_c, 0, 66, 63
1, 82694, Control_c, 0, 64, 59
1, 82700, Note_on_c, 0, 44, 45
1, 82700, Note_on_c, 0, 56, 37
1, 82709, Control_c, 0, 64, 0
1, 82718, Note_on_c, 0, 51, 41
1, 82720, Note_on_c, 0, 63, 44
1, 82725, Note_on_c, 0, 48, 38
1, 82735, Note_on_c, 0, 60, 11
1, 82738, Note_on_c, 0, 54, 25
1, 82768, Control_c, 0, 64, 57
1, 82783, Control_c, 0, 64, 66
1, 82789, Note_off_c, 0, 56, 51
1, 82798, Control_c, 0, 64, 71
1, 82813, Control_c, 0, 64, 74
1, 82828, Control_c, 0, 64, 74
1, 82831, Note_off_c, 0, 44, 37
1, 82832, Note_off_c, 0, 48, 26
1, 82845, Note_off_c, 0, 60, 38
1, 82861, Note_off_c, 0, 66, 38
1, 82867, Note_off_c, 0, 63, 36
1, 82886, Note_off_c, 0, 51, 30
1, 82888, Note_off_c, 0, 54, 40
1, 83065, Control_c, 0, 64, 74
1, 83080, Control_c, 0, 64, 72
1, 83095, Control_c, 0, 64, 69
1, 83107, Note_on_c, 0, 67, 53
1, 83108, Note_on_c, 0, 60, 40
1, 83108, Note_on_c, 0, 63, 54
1, 83110, Control_c, 0, 64, 65
1, 83125, Control_c, 0, 64, 60
1, 83129, Note_on_c, 0, 51, 33
1, 83133, Note_on_c, 0, 43, 36
1, 83138, Note_on_c, 0, 48, 36
1, 83139, Note_on_c, 0, 55, 29
1, 83139, Control_c, 0, 64, 48
1, 83154, Control_c, 0, 64, 0
1, 83740, Control_c, 0, 64, 26
1, 83755, Control_c, 0, 64, 60
1, 83770, Control_c, 0, 64, 65
1, 83770, Control_c, 0, 67, 11
1, 83785, Control_c, 0, 64, 67
1, 83785, Control_c, 0, 67, 16
1, 83800, Control_c, 0, 64, 68
1, 83800, Control_c, 0, 67, 23
1, 83813, Control_c, 0, 64, 70
1, 83813, Control_c, 0, 67, 29
1, 83828, Control_c, 0, 64, 73
1, 83828, Control_c, 0, 67, 37
1, 83843, Control_c, 0, 64, 77
1, 83843, Control_c, 0, 67, 47
1, 83858, Control_c, 0, 64, 83
1, 83858, Control_c, 0, 67, 57
1, 83873, Control_c, 0, 64, 88
1, 83873, Control_c, 0, 67, 70
1, 83887, Control_c, 0, 64, 92
1, 83887, Control_c, 0, 67, 85
1, 83902, Control_c, 0, 64, 97
1, 83902, Control_c, 0, 67, 102
1, 83917, Control_c, 0, 64, 101
1, 83917, Control_c, 0, 67, 122
1, 83931, Control_c, 0, 64, 107
1, 83931, Control_c, 0, 67, 127
1, 83946, Control_c, 0, 64, 115
1, 83961, Control_c, 0, 64, 127
1, 83984, Note_off_c, 0, 60, 35
1, 84056, Note_off_c, 0, 43, 37
1, 84062, Note_off_c, 0, 55, 41
1, 84070, Note_off_c, 0, 51, 32
1, 84116, Note_off_c, 0, 48, 34
1, 84130, Note_off_c, 0, 67, 32
1, 84166, Note_off_c, 0, 63, 32
1, 84593, Note_on_c, 0, 67, 40
1, 84607, Control_c, 0, 64, 112
1, 84607, Note_on_c, 0, 62, 39
1, 84608, Note_on_c, 0, 59, 34
1, 84622, Control_c, 0, 64, 93
1, 84626, Note_on_c, 0, 47, 36
1, 84634, Note_on_c, 0, 43, 27
1, 84636, Control_c, 0, 64, 82
1, 84647, Note_on_c, 0, 50, 24
1, 84651, Control_c, 0, 64, 72
1, 84657, Note_on_c, 0, 55, 14
1, 84662, Note_off_c, 0, 62, 0
1, 84662, Note_on_c, 0, 62, 9
1, 84666, Control_c, 0, 64, 64
1, 84681, Control_c, 0, 64, 52
1, 84696, Control_c, 0, 64, 0
1, 85266, Control_c, 0, 64, 36
1, 85281, Control_c, 0, 64, 54
1, 85296, Control_c, 0, 64, 61
1, 85311, Control_c, 0, 64, 65
1, 85326, Control_c, 0, 64, 67
1, 85341, Control_c, 0, 64, 70
1, 85356, Control_c, 0, 64, 73
1, 85370, Control_c, 0, 64, 77
1, 85385, Control_c, 0, 64, 81
1, 85400, Control_c, 0, 64, 86
1, 85415, Control_c, 0, 64, 90
1, 85430, Control_c, 0, 64, 94
1, 85445, Control_c, 0, 64, 97
1, 85459, Control_c, 0, 64, 101
1, 85474, Control_c, 0, 64, 108
1, 85489, Control_c, 0, 64, 116
1, 85511, Control_c, 0, 64, 127
1, 85518, Note_off_c, 0, 55, 42
1, 85524, Note_off_c, 0, 67, 55
1, 85534, Note_off_c, 0, 43, 38
1, 85552, Note_off_c, 0, 47, 42
1, 85561, Note_off_c, 0, 62, 41
1, 85569, Note_off_c, 0, 50, 39
1, 85618, Note_off_c, 0, 59, 51
1, 86164, Control_c, 0, 64, 102
1, 86178, Note_on_c, 0, 60, 67
1, 86179, Control_c, 0, 64, 82
1, 86192, Note_on_c, 0, 36, 44
1, 86192, Note_on_c, 0, 43, 41
1, 86193, Note_on_c, 0, 52, 61
1, 86194, Control_c, 0, 64, 67
1, 86197, Note_on_c, 0, 48, 48
1, 86208, Control_c, 0, 64, 45
1, 86223, Control_c, 0, 64, 0
1, 86289, Note_off_c, 0, 60, 57
1, 86298, Note_on_c, 0, 55, 64
1, 86330, Note_off_c, 0, 55, 65
1, 86408, Note_on_c, 0, 55, 63
1, 86429, Note_off_c, 0, 55, 64
1, 86515, Note_on_c, 0, 55, 55
1, 86545, Note_off_c, 0, 55, 65
1, 86626, Note_on_c, 0, 55, 67
1, 86654, Note_off_c, 0, 36, 56
1, 86654, Note_off_c, 0, 43, 55
1, 86655, Note_off_c, 0, 48, 36
1, 86664, Note_off_c, 0, 52, 59
1, 86673, Note_off_c, 0, 55, 62
1, 86862, Note_on_c, 0, 62, 62
1, 86874, Note_on_c, 0, 31, 49
1, 86876, Note_on_c, 0, 43, 47
1, 86880, Note_on_c, 0, 53, 50
1, 86881, Note_on_c, 0, 59, 42
1, 86890, Note_on_c, 0, 55, 30
1, 86903, Note_off_c, 0, 31, 51
1, 86904, Note_off_c, 0, 43, 55
1, 86904, Note_off_c, 0, 53, 62
1, 86909, Note_off_c, 0, 59, 58
1, 86926, Note_off_c, 0, 55, 45
1, 86929, Note_off_c, 0, 62, 59
1, 87105, Note_on_c, 0, 60, 66
1, 87115, Note_on_c, 0, 36, 44
1, 87120, Note_on_c, 0, 55, 44
1, 87125, Note_on_c, 0, 52, 46
1, 87132, Note_on_c, 0, 43, 29
1, 87145, Note_off_c, 0, 36, 55
1, 87150, Note_off_c, 0, 55, 63
1, 87154, Note_off_c, 0, 52, 64
1, 87162, Note_off_c, 0, 60, 56
1, 87169, Note_off_c, 0, 43, 42
1, 87336, Note_on_c, 0, 62, 63
1, 87344, Note_on_c, 0, 59, 54
1, 87347, Note_on_c, 0, 55, 48
1, 87349, Note_on_c, 0, 31, 54
1, 87352, Note_on_c, 0, 53, 41
1, 87369, Note_on_c, 0, 43, 24
1, 87374, Note_off_c, 0, 59, 65
1, 87377, Note_off_c, 0, 55, 65
1, 87377, Note_off_c, 0, 31, 54
1, 87380, Note_off_c, 0, 53, 58
1, 87392, Note_off_c, 0, 62, 59
1, 87410, Note_off_c, 0, 43, 41
1, 87580, Note_on_c, 0, 64, 61
1, 87585, Note_on_c, 0, 36, 50
1, 87588, Note_on_c, 0, 52, 65
1, 87590, Note_on_c, 0, 55, 53
1, 87591, Note_on_c, 0, 60, 53
1, 87614, Note_off_c, 0, 36, 56
1, 87620, Note_off_c, 0, 52, 68
1, 87622, Note_off_c, 0, 55, 65
1, 87630, Note_off_c, 0, 60, 60
1, 87632, Note_off_c, 0, 64, 60
1, 87660, Control_c, 0, 67, 112
1, 87676, Control_c, 0, 67, 96
1, 87691, Control_c, 0, 67, 81
1, 87706, Control_c, 0, 67, 69
1, 87720, Control_c, 0, 67, 59
1, 87735, Control_c, 0, 67, 52
1, 87758, Control_c, 0, 67, 45
1, 87772, Control_c, 0, 67, 35
1, 87787, Control_c, 0, 67, 21
1, 87802, Control_c, 0, 67, 0
1, 87824, Note_on_c, 0, 62, 69
1, 87838, Note_on_c, 0, 31, 59
1, 87841, Note_on_c, 0, 53, 51
1, 87848, Note_on_c, 0, 55, 42
1, 87849, Note_on_c, 0, 43, 38
1, 87866, Note_off_c, 0, 31, 60
1, 87868, Note_off_c, 0, 53, 65
1, 87877, Note_off_c, 0, 55, 56
1, 87883, Note_off_c, 0, 43, 45
1, 87885, Note_off_c, 0, 62, 59
1, 88113, Note_on_c, 0, 43, 61
1, 88113, Note_on_c, 0, 60, 67
1, 88119, Note_on_c, 0, 52, 63
1, 88120, Note_on_c, 0, 36, 56
1, 88220, Note_off_c, 0, 60, 55
1, 88231, Note_on_c, 0, 55, 60
1, 88265, Note_off_c, 0, 55, 65
1, 88345, Note_on_c, 0, 55, 63
1, 88367, Note_off_c, 0, 55, 61
1, 88442, Note_on_c, 0, 55, 64
1, 88478, Note_off_c, 0, 55, 65
1, 88564, Note_on_c, 0, 55, 53
1, 88566, Note_off_c, 0, 36, 57
1, 88569, Note_off_c, 0, 43, 59
1, 88580, Note_off_c, 0, 52, 58
1, 88602, Note_off_c, 0, 55, 66
1, 88790, Note_on_c, 0, 62, 54
1, 88795, Note_on_c, 0, 31, 46
1, 88796, Note_on_c, 0, 53, 48
1, 88799, Note_on_c, 0, 55, 38
1, 88810, Note_on_c, 0, 43, 26
1, 88816, Note_on_c, 0, 59, 26
1, 88820, Note_off_c, 0, 53, 63
1, 88826, Note_off_c, 0, 31, 51
1, 88829, Note_off_c, 0, 55, 57
1, 88838, Note_off_c, 0, 62, 59
1, 88849, Note_off_c, 0, 43, 44
1, 88855, Note_off_c, 0, 59, 43
1, 89036, Note_on_c, 0, 60, 58
1, 89043, Note_on_c, 0, 52, 56
1, 89043, Note_on_c, 0, 55, 47
1, 89051, Note_on_c, 0, 36, 45
1, 89078, Note_off_c, 0, 52, 62
1, 89078, Note_off_c, 0, 55, 65
1, 89081, Note_off_c, 0, 36, 58
1, 89091, Note_off_c, 0, 60, 55
1, 89130, Poly_aftertouch_c, 0, 43, 0
1, 89283, Note_on_c, 0, 62, 61
1, 89291, Note_on_c, 0, 55, 43
1, 89292, Note_on_c, 0, 59, 44
1, 89293, Note_on_c, 0, 31, 55
1, 89294, Note_on_c, 0, 53, 52
1, 89297, Note_on_c, 0, 43, 45
1, 89323, Note_off_c, 0, 31, 59
1, 89325, Note_off_c, 0, 53, 67
1, 89326, Note_off_c, 0, 55, 65
1, 89326, Note_off_c, 0, 59, 63
1, 89331, Note_off_c, 0, 43, 50
1, 89345, Note_off_c, 0, 62, 61
1, 89527, Note_on_c, 0, 64, 63
1, 89529, Note_on_c, 0, 55, 56
1, 89532, Note_on_c, 0, 36, 52
1, 89537, Note_on_c, 0, 60, 57
1, 89544, Note_on_c, 0, 43, 38
1, 89549, Note_on_c, 0, 52, 37
1, 89565, Note_off_c, 0, 36, 64
1, 89570, Note_off_c, 0, 55, 60
1, 89577, Note_off_c, 0, 60, 57
1, 89577, Note_off_c, 0, 64, 55
1, 89578, Note_off_c, 0, 43, 48
1, 89583, Note_off_c, 0, 52, 50
1, 89767, Note_on_c, 0, 62, 65
1, 89776, Note_on_c, 0, 53, 60
1, 89776, Note_on_c, 0, 55, 53
1, 89782, Note_on_c, 0, 31, 59
1, 89782, Note_on_c, 0, 43, 58
1, 89807, Note_off_c, 0, 53, 67
1, 89813, Note_off_c, 0, 55, 65
1, 89819, Note_off_c, 0, 31, 62
1, 89827, Note_off_c, 0, 62, 61
1, 89827, Note_off_c, 0, 43, 58
1, 90062, Note_on_c, 0, 60, 70
1, 90074, Note_on_c, 0, 36, 55
1, 90078, Note_on_c, 0, 43, 45
1, 90083, Note_on_c, 0, 52, 57
1, 90174, Note_on_c, 0, 55, 59
1, 90175, Note_off_c, 0, 60, 58
1, 90211, Note_off_c, 0, 55, 65
1, 90281, Note_on_c, 0, 55, 51
1, 90306, Note_off_c, 0, 55, 59
1, 90383, Note_on_c, 0, 55, 62
1, 90414, Note_off_c, 0, 55, 66
1, 90482, Note_on_c, 0, 55, 63
1, 90501, Note_off_c, 0, 52, 62
1, 90506, Note_off_c, 0, 55, 65
1, 90506, Note_off_c, 0, 36, 57
1, 90531, Note_off_c, 0, 43, 55
1, 90656, Control_c, 0, 64, 36
1, 90671, Control_c, 0, 64, 55
1, 90686, Control_c, 0, 64, 62
1, 90700, Control_c, 0, 64, 64
1, 90715, Control_c, 0, 64, 66
1, 90722, Note_on_c, 0, 60, 58
1, 90730, Control_c, 0, 64, 68
1, 90731, Note_on_c, 0, 48, 52
1, 90753, Control_c, 0, 64, 73
1, 90766, Note_off_c, 0, 48, 54
1, 90768, Control_c, 0, 64, 78
1, 90782, Control_c, 0, 64, 80
1, 90789, Note_off_c, 0, 60, 62
1, 90797, Control_c, 0, 64, 81
1, 90812, Control_c, 0, 64, 82
1, 90827, Control_c, 0, 64, 83
1, 90842, Control_c, 0, 64, 83
1, 90855, Note_on_c, 0, 47, 51
1, 90856, Note_on_c, 0, 59, 54
1, 90886, Note_off_c, 0, 47, 53
1, 90889, Note_off_c, 0, 59, 65
1, 90901, Note_on_c, 0, 48, 58
1, 90910, Note_on_c, 0, 60, 65
1, 90931, Control_c, 0, 64, 83
1, 90946, Control_c, 0, 64, 80
1, 90951, Note_off_c, 0, 48, 57
1, 90954, Note_on_c, 0, 59, 78
1, 90961, Control_c, 0, 64, 74
1, 90968, Note_on_c, 0, 47, 68
1, 90976, Control_c, 0, 64, 67
1, 90991, Control_c, 0, 64, 58
1, 91005, Control_c, 0, 64, 12
1, 91012, Note_off_c, 0, 60, 53
1, 91020, Control_c, 0, 64, 0
1, 91207, Note_on_c, 0, 57, 86
1, 91210, Note_on_c, 0, 45, 70
1, 91265, Note_off_c, 0, 47, 59
1, 91267, Note_off_c, 0, 59, 56
1, 91442, Note_on_c, 0, 59, 86
1, 91447, Note_on_c, 0, 47, 75
1, 91513, Note_off_c, 0, 57, 58
1, 91526, Note_off_c, 0, 45, 58
1, 91649, Control_c, 0, 64, 24
1, 91664, Control_c, 0, 64, 59
1, 91681, Control_c, 0, 64, 69
1, 91687, Note_on_c, 0, 60, 78
1, 91695, Control_c, 0, 64, 78
1, 91699, Note_on_c, 0, 48, 67
1, 91710, Control_c, 0, 64, 79
1, 91721, Note_off_c, 0, 59, 64
1, 91725, Control_c, 0, 64, 80
1, 91728, Note_off_c, 0, 47, 63
1, 91740, Control_c, 0, 64, 83
1, 91754, Control_c, 0, 64, 86
1, 91769, Control_c, 0, 64, 88
1, 91782, Note_off_c, 0, 48, 61
1, 91784, Control_c, 0, 64, 89
1, 91794, Note_off_c, 0, 60, 60
1, 91830, Note_on_c, 0, 59, 69
1, 91854, Note_on_c, 0, 47, 66
1, 91872, Control_c, 0, 64, 88
1, 91884, Note_off_c, 0, 59, 60
1, 91886, Note_off_c, 0, 47, 66
1, 91887, Control_c, 0, 64, 80
1, 91891, Note_on_c, 0, 60, 77
1, 91902, Control_c, 0, 64, 69
1, 91904, Note_on_c, 0, 48, 65
1, 91917, Control_c, 0, 64, 51
1, 91932, Control_c, 0, 64, 0
1, 91936, Note_on_c, 0, 59, 79
1, 91952, Note_on_c, 0, 47, 79
1, 91971, Note_off_c, 0, 48, 53
1, 91997, Note_off_c, 0, 60, 52
1, 92163, Note_on_c, 0, 45, 70
1, 92165, Note_on_c, 0, 57, 77
1, 92169, Note_off_c, 0, 47, 65
1, 92179, Note_off_c, 0, 59, 64
1, 92270, Note_off_c, 0, 45, 64
1, 92271, Note_on_c, 0, 47, 71
1, 92283, Note_on_c, 0, 59, 75
1, 92290, Note_off_c, 0, 57, 61
1, 92351, Note_off_c, 0, 47, 64
1, 92379, Note_on_c, 0, 48, 67
1, 92381, Note_on_c, 0, 60, 78
1, 92405, Note_off_c, 0, 59, 62
1, 92408, Note_off_c, 0, 48, 64
1, 92417, Note_off_c, 0, 60, 60
1, 92621, Control_c, 0, 64, 41
1, 92636, Control_c, 0, 64, 55
1, 92639, Note_on_c, 0, 62, 86
1, 92650, Control_c, 0, 64, 64
1, 92653, Note_on_c, 0, 59, 64
1, 92655, Note_on_c, 0, 53, 60
1, 92655, Note_on_c, 0, 55, 62
1, 92665, Control_c, 0, 64, 68
1, 92675, Note_on_c, 0, 43, 49
1, 92680, Note_off_c, 0, 53, 63
1, 92680, Control_c, 0, 64, 73
1, 92681, Note_on_c, 0, 31, 22
1, 92683, Note_off_c, 0, 59, 65
1, 92685, Note_off_c, 0, 55, 67
1, 92695, Control_c, 0, 64, 76
1, 92702, Note_off_c, 0, 62, 62
1, 92708, Note_on_c, 0, 33, 40
1, 92709, Control_c, 0, 64, 77
1, 92724, Control_c, 0, 64, 78
1, 92739, Control_c, 0, 64, 79
1, 92754, Control_c, 0, 64, 80
1, 92769, Control_c, 0, 64, 81
1, 92782, Note_off_c, 0, 33, 36
1, 92799, Control_c, 0, 64, 81
1, 92814, Control_c, 0, 64, 82
1, 92829, Control_c, 0, 64, 83
1, 92835, Note_off_c, 0, 43, 39
1, 92844, Control_c, 0, 64, 83
1, 92859, Control_c, 0, 64, 84
1, 92927, Note_on_c, 0, 60, 83
1, 92934, Note_on_c, 0, 43, 58
1, 92943, Note_on_c, 0, 52, 69
1, 92948, Control_c, 0, 64, 80
1, 92953, Note_on_c, 0, 36, 50
1, 92962, Control_c, 0, 64, 73
1, 92971, Note_off_c, 0, 31, 36
1, 92977, Control_c, 0, 64, 64
1, 92999, Control_c, 0, 64, 36
1, 93014, Control_c, 0, 64, 0
1, 93079, Note_on_c, 0, 55, 67
1, 93093, Note_off_c, 0, 60, 57
1, 93124, Note_off_c, 0, 55, 62
1, 93183, Note_on_c, 0, 55, 61
1, 93211, Note_off_c, 0, 55, 66
1, 93281, Note_on_c, 0, 55, 69
1, 93315, Note_off_c, 0, 55, 64
1, 93386, Note_on_c, 0, 55, 59
1, 93387, Note_off_c, 0, 36, 51
1, 93411, Note_off_c, 0, 52, 62
1, 93424, Note_off_c, 0, 55, 65
1, 93433, Note_off_c, 0, 43, 58
1, 93622, Control_c, 0, 64, 38
1, 93626, Note_on_c, 0, 60, 51
1, 93636, Note_on_c, 0, 48, 38
1, 93637, Control_c, 0, 64, 51
1, 93651, Control_c, 0, 64, 55
1, 93666, Control_c, 0, 64, 56
1, 93671, Note_off_c, 0, 48, 33
1, 93681, Control_c, 0, 64, 57
1, 93693, Note_off_c, 0, 60, 47
1, 93696, Control_c, 0, 64, 59
1, 93711, Control_c, 0, 64, 61
1, 93726, Control_c, 0, 64, 61
1, 93766, Note_on_c, 0, 47, 32
1, 93768, Note_on_c, 0, 59, 52
1, 93778, Control_c, 0, 64, 61
1, 93792, Control_c, 0, 64, 60
1, 93801, Note_off_c, 0, 47, 44
1, 93807, Control_c, 0, 64, 59
1, 93809, Note_off_c, 0, 59, 63
1, 93813, Note_on_c, 0, 48, 45
1, 93822, Control_c, 0, 64, 58
1, 93837, Control_c, 0, 64, 56
1, 93841, Note_on_c, 0, 60, 40
1, 93847, Note_off_c, 0, 48, 57
1, 93851, Control_c, 0, 64, 53
1, 93866, Control_c, 0, 64, 47
1, 93881, Control_c, 0, 64, 36
1, 93891, Note_off_c, 0, 60, 48
1, 93893, Note_on_c, 0, 59, 46
1, 93896, Control_c, 0, 64, 0
1, 93898, Note_on_c, 0, 47, 43
1, 94200, Note_off_c, 0, 59, 36
1, 94203, Note_on_c, 0, 57, 37
1, 94203, Note_on_c, 0, 45, 33
1, 94212, Note_off_c, 0, 47, 42
1, 94423, Note_off_c, 0, 57, 56
1, 94429, Note_off_c, 0, 45, 52
1, 94447, Note_on_c, 0, 59, 42
1, 94450, Note_on_c, 0, 47, 30
1, 94542, Control_c, 0, 64, 15
1, 94556, Control_c, 0, 64, 47
1, 94571, Control_c, 0, 64, 58
1, 94586, Control_c, 0, 64, 61
1, 94601, Control_c, 0, 64, 63
1, 94615, Control_c, 0, 64, 64
1, 94630, Control_c, 0, 64, 65
1, 94644, Note_off_c, 0, 47, 57
1, 94645, Control_c, 0, 64, 67
1, 94656, Note_off_c, 0, 59, 50
1, 94660, Control_c, 0, 64, 68
1, 94674, Control_c, 0, 64, 70
1, 94683, Note_on_c, 0, 60, 42
1, 94689, Control_c, 0, 64, 70
1, 94698, Note_on_c, 0, 48, 14
1, 94704, Control_c, 0, 64, 71
1, 94740, Note_off_c, 0, 60, 59
1, 94746, Note_off_c, 0, 48, 39
1, 94796, Note_on_c, 0, 59, 40
1, 94823, Control_c, 0, 64, 70
1, 94826, Note_on_c, 0, 47, 13
1, 94837, Note_off_c, 0, 59, 55
1, 94838, Control_c, 0, 64, 68
1, 94853, Control_c, 0, 64, 65
1, 94864, Note_on_c, 0, 60, 56
1, 94866, Note_on_c, 0, 48, 44
1, 94868, Control_c, 0, 64, 61
1, 94883, Control_c, 0, 64, 51
1, 94897, Control_c, 0, 64, 22
1, 94902, Note_off_c, 0, 48, 57
1, 94912, Control_c, 0, 64, 0
1, 94922, Note_off_c, 0, 47, 0
1, 94922, Note_on_c, 0, 47, 30
1, 94933, Note_on_c, 0, 59, 57
1, 94993, Note_off_c, 0, 60, 31
1, 95167, Note_off_c, 0, 47, 58
1, 95175, Note_off_c, 0, 59, 57
1, 95200, Note_on_c, 0, 45, 38
1, 95202, Note_on_c, 0, 57, 52
1, 95297, Note_off_c, 0, 45, 57
1, 95310, Note_off_c, 0, 57, 60
1, 95315, Note_on_c, 0, 47, 37
1, 95328, Note_on_c, 0, 59, 45
1, 95419, Note_off_c, 0, 47, 52
1, 95443, Note_on_c, 0, 60, 57
1, 95454, Note_on_c, 0, 48, 31
1, 95482, Note_off_c, 0, 59, 58
1, 95504, Note_off_c, 0, 60, 58
1, 95515, Note_off_c, 0, 48, 60
1, 95734, Control_c, 0, 64, 36
1, 95749, Control_c, 0, 64, 58
1, 95756, Note_on_c, 0, 62, 57
1, 95764, Control_c, 0, 64, 63
1, 95774, Note_on_c, 0, 31, 36
1, 95778, Note_on_c, 0, 55, 36
1, 95779, Control_c, 0, 64, 65
1, 95792, Note_on_c, 0, 43, 17
1, 95792, Note_on_c, 0, 53, 17
1, 95794, Control_c, 0, 64, 65
1, 95809, Control_c, 0, 64, 66
1, 95824, Control_c, 0, 64, 67
1, 95825, Note_off_c, 0, 55, 60
1, 95825, Poly_aftertouch_c, 0, 59, 127
1, 95836, Note_off_c, 0, 53, 42
1, 95839, Control_c, 0, 64, 68
1, 95845, Note_off_c, 0, 62, 57
1, 95853, Poly_aftertouch_c, 0, 59, 0
1, 95855, Note_off_c, 0, 43, 40
1, 95883, Control_c, 0, 64, 68
1, 95912, Control_c, 0, 64, 69
1, 95972, Control_c, 0, 64, 69
1, 96009, Control_c, 0, 64, 70
1, 96032, Note_off_c, 0, 31, 35
1, 96068, Control_c, 0, 64, 69
1, 96083, Control_c, 0, 64, 67
1, 96098, Control_c, 0, 64, 62
1, 96102, Note_on_c, 0, 43, 44
1, 96112, Control_c, 0, 64, 52
1, 96115, Note_on_c, 0, 60, 54
1, 96120, Note_on_c, 0, 52, 52
1, 96125, Note_on_c, 0, 36, 43
1, 96127, Control_c, 0, 64, 21
1, 96142, Control_c, 0, 64, 0
1, 96218, Note_off_c, 0, 60, 52
1, 96243, Note_on_c, 0, 55, 54
1, 96281, Note_off_c, 0, 55, 65
1, 96377, Note_on_c, 0, 55, 43
1, 96406, Note_off_c, 0, 55, 56
1, 96489, Note_on_c, 0, 55, 55
1, 96516, Note_off_c, 0, 55, 61
1, 96596, Note_on_c, 0, 55, 64
1, 96622, Note_off_c, 0, 43, 41
1, 96624, Note_off_c, 0, 55, 67
1, 96630, Note_off_c, 0, 36, 49
1, 96646, Note_off_c, 0, 52, 49
1, 96787, Control_c, 0, 67, 9
1, 96802, Control_c, 0, 67, 13
1, 96817, Control_c, 0, 67, 19
1, 96832, Control_c, 0, 67, 25
1, 96847, Control_c, 0, 67, 30
1, 96850, Note_on_c, 0, 62, 56
1, 96860, Note_on_c, 0, 55, 41
1, 96861, Control_c, 0, 67, 34
1, 96871, Note_on_c, 0, 31, 38
1, 96872, Note_on_c, 0, 59, 26
1, 96876, Control_c, 0, 67, 39
1, 96879, Note_on_c, 0, 53, 18
1, 96885, Note_on_c, 0, 43, 22
1, 96891, Control_c, 0, 67, 45
1, 96893, Note_off_c, 0, 55, 65
1, 96905, Note_off_c, 0, 62, 57
1, 96906, Control_c, 0, 67, 52
1, 96907, Note_off_c, 0, 59, 49
1, 96910, Note_off_c, 0, 31, 54
1, 96921, Control_c, 0, 67, 58
1, 96924, Note_off_c, 0, 53, 37
1, 96925, Note_off_c, 0, 43, 46
1, 96935, Control_c, 0, 67, 64
1, 96950, Control_c, 0, 67, 70
1, 96965, Control_c, 0, 67, 77
1, 96980, Control_c, 0, 67, 82
1, 96995, Control_c, 0, 67, 86
1, 97009, Control_c, 0, 67, 87
1, 97024, Control_c, 0, 67, 88
1, 97039, Control_c, 0, 67, 89
1, 97054, Control_c, 0, 67, 90
1, 97068, Control_c, 0, 67, 90
1, 97083, Control_c, 0, 67, 91
1, 97128, Control_c, 0, 67, 91
1, 97133, Note_on_c, 0, 60, 61
1, 97137, Note_on_c, 0, 43, 51
1, 97140, Note_on_c, 0, 36, 48
1, 97148, Note_on_c, 0, 52, 52
1, 97234, Note_off_c, 0, 60, 51
1, 97258, Note_on_c, 0, 55, 55
1, 97288, Note_off_c, 0, 55, 65
1, 97321, Control_c, 0, 67, 91
1, 97369, Note_on_c, 0, 55, 61
1, 97381, Control_c, 0, 67, 91
1, 97406, Note_off_c, 0, 55, 66
1, 97410, Control_c, 0, 67, 92
1, 97517, Note_on_c, 0, 55, 49
1, 97544, Note_off_c, 0, 55, 64
1, 97595, Control_c, 0, 67, 93
1, 97610, Control_c, 0, 67, 94
1, 97625, Control_c, 0, 67, 98
1, 97631, Note_on_c, 0, 55, 43
1, 97637, Note_off_c, 0, 52, 51
1, 97640, Control_c, 0, 67, 104
1, 97649, Note_off_c, 0, 36, 51
1, 97655, Control_c, 0, 67, 109
1, 97658, Note_off_c, 0, 43, 43
1, 97662, Note_off_c, 0, 55, 54
1, 97670, Control_c, 0, 67, 114
1, 97684, Control_c, 0, 67, 119
1, 97699, Control_c, 0, 67, 122
1, 97714, Control_c, 0, 67, 124
1, 97729, Control_c, 0, 67, 126
1, 97744, Control_c, 0, 67, 127
1, 97758, Control_c, 0, 67, 127
1, 97852, Note_on_c, 0, 62, 46
1, 97859, Note_on_c, 0, 55, 45
1, 97867, Note_on_c, 0, 43, 40
1, 97878, Note_on_c, 0, 31, 38
1, 97879, Note_on_c, 0, 53, 12
1, 97890, Note_off_c, 0, 55, 65
1, 97900, Note_off_c, 0, 62, 61
1, 97906, Note_off_c, 0, 43, 47
1, 97912, Note_off_c, 0, 31, 52
1, 97923, Note_off_c, 0, 53, 37
1, 97953, Poly_aftertouch_c, 0, 59, 0
1, 98134, Note_on_c, 0, 60, 55
1, 98141, Note_on_c, 0, 36, 43
1, 98143, Note_on_c, 0, 43, 36
1, 98144, Note_on_c, 0, 52, 55
1, 98252, Note_on_c, 0, 55, 57
1, 98253, Note_off_c, 0, 60, 56
1, 98289, Note_off_c, 0, 55, 66
1, 98381, Note_on_c, 0, 55, 51
1, 98409, Note_off_c, 0, 55, 57
1, 98498, Note_on_c, 0, 55, 49
1, 98526, Note_off_c, 0, 55, 59
1, 98609, Note_on_c, 0, 55, 64
1, 98651, Note_off_c, 0, 43, 40
1, 98665, Note_off_c, 0, 52, 43
1, 98667, Note_off_c, 0, 55, 63
1, 98701, Note_off_c, 0, 36, 42
1, 98958, Note_on_c, 0, 64, 42
1, 98969, Note_on_c, 0, 56, 34
1, 98997, Note_on_c, 0, 28, 29
1, 99020, Note_on_c, 0, 52, 6
1, 99033, Note_on_c, 0, 40, 6
1, 99246, Note_off_c, 0, 56, 53
1, 99248, Note_off_c, 0, 64, 37
1, 99258, Note_off_c, 0, 52, 43
1, 99276, Note_off_c, 0, 40, 42
1, 99315, Note_off_c, 0, 28, 40
1, 100064, Control_c, 0, 64, 38
1, 100078, Control_c, 0, 64, 53
1, 100093, Control_c, 0, 64, 58
1, 100108, Control_c, 0, 64, 61
1, 100123, Control_c, 0, 64, 62
1, 100138, Control_c, 0, 64, 63
1, 100153, Control_c, 0, 64, 64
1, 100168, Control_c, 0, 64, 65
1, 100183, Control_c, 0, 64, 67
1, 100198, Control_c, 0, 64, 69
1, 100212, Control_c, 0, 64, 71
1, 100227, Control_c, 0, 64, 74
1, 100227, Control_c, 0, 67, 118
1, 100242, Control_c, 0, 64, 76
1, 100242, Control_c, 0, 67, 102
1, 100257, Control_c, 0, 64, 78
1, 100257, Control_c, 0, 67, 83
1, 100272, Control_c, 0, 64, 80
1, 100272, Control_c, 0, 67, 63
1, 100286, Control_c, 0, 64, 82
1, 100286, Control_c, 0, 67, 42
1, 100301, Control_c, 0, 64, 84
1, 100301, Control_c, 0, 67, 26
1, 100316, Control_c, 0, 64, 86
1, 100316, Control_c, 0, 67, 16
1, 100331, Control_c, 0, 64, 87
1, 100331, Control_c, 0, 67, 15
1, 100346, Control_c, 0, 64, 89
1, 100360, Control_c, 0, 64, 90
1, 100375, Control_c, 0, 64, 91
1, 100390, Control_c, 0, 64, 91
1, 100390, Control_c, 0, 67, 15
1, 100404, Control_c, 0, 64, 92
1, 100404, Control_c, 0, 67, 16
1, 100419, Control_c, 0, 67, 16
1, 100434, Control_c, 0, 67, 17
1, 100499, Note_on_c, 0, 64, 46
1, 100552, Poly_aftertouch_c, 0, 52, 127
1, 100553, Note_off_c, 0, 64, 60
1, 100588, Poly_aftertouch_c, 0, 52, 0
1, 100603, Note_on_c, 0, 50, 26
1, 100607, Note_on_c, 0, 62, 47
1, 100639, Note_off_c, 0, 62, 52
1, 100643, Note_off_c, 0, 50, 39
1, 100674, Note_on_c, 0, 64, 57
1, 100704, Note_on_c, 0, 52, 26
1, 100725, Note_on_c, 0, 62, 62
1, 100746, Note_off_c, 0, 52, 43
1, 100759, Note_on_c, 0, 50, 52
1, 100769, Control_c, 0, 64, 91
1, 100783, Control_c, 0, 64, 88
1, 100791, Note_off_c, 0, 64, 38
1, 100798, Control_c, 0, 64, 85
1, 100813, Control_c, 0, 64, 81
1, 100827, Control_c, 0, 64, 77
1, 100842, Control_c, 0, 64, 73
1, 100857, Control_c, 0, 64, 68
1, 100872, Control_c, 0, 64, 65
1, 100887, Control_c, 0, 64, 62
1, 100901, Control_c, 0, 64, 58
1, 100916, Control_c, 0, 64, 53
1, 100931, Control_c, 0, 64, 45
1, 100946, Control_c, 0, 64, 39
1, 100961, Control_c, 0, 64, 36
1, 100976, Control_c, 0, 64, 33
1, 100990, Control_c, 0, 64, 29
1, 101005, Control_c, 0, 64, 25
1, 101020, Control_c, 0, 64, 18
1, 101035, Control_c, 0, 64, 10
1, 101050, Control_c, 0, 64, 0
1, 101067, Note_on_c, 0, 47, 41
1, 101076, Note_on_c, 0, 59, 70
1, 101095, Control_c, 0, 67, 17
1, 101124, Control_c, 0, 67, 18
1, 101125, Note_off_c, 0, 50, 39
1, 101160, Note_off_c, 0, 62, 60
1, 101250, Control_c, 0, 67, 18
1, 101280, Control_c, 0, 67, 19
1, 101336, Note_on_c, 0, 62, 81
1, 101344, Note_on_c, 0, 50, 56
1, 101402, Note_off_c, 0, 59, 63
1, 101414, Control_c, 0, 67, 19
1, 101423, Note_off_c, 0, 47, 42
1, 101518, Control_c, 0, 64, 28
1, 101532, Control_c, 0, 64, 50
1, 101547, Control_c, 0, 64, 63
1, 101562, Control_c, 0, 64, 67
1, 101562, Control_c, 0, 67, 20
1, 101566, Note_on_c, 0, 64, 78
1, 101577, Control_c, 0, 64, 72
1, 101588, Note_on_c, 0, 52, 65
1, 101592, Control_c, 0, 64, 77
1, 101599, Note_off_c, 0, 50, 53
1, 101606, Control_c, 0, 64, 81
1, 101607, Note_off_c, 0, 62, 61
1, 101621, Control_c, 0, 64, 83
1, 101636, Control_c, 0, 64, 84
1, 101650, Control_c, 0, 64, 85
1, 101670, Note_off_c, 0, 52, 57
1, 101674, Note_off_c, 0, 64, 62
1, 101695, Control_c, 0, 64, 86
1, 101718, Note_on_c, 0, 62, 66
1, 101724, Control_c, 0, 67, 20
1, 101762, Note_off_c, 0, 62, 61
1, 101769, Control_c, 0, 67, 21
1, 101778, Note_on_c, 0, 64, 72
1, 101783, Control_c, 0, 64, 85
1, 101798, Control_c, 0, 64, 85
1, 101798, Control_c, 0, 67, 21
1, 101804, Poly_aftertouch_c, 0, 50, 0
1, 101807, Note_on_c, 0, 52, 54
1, 101813, Control_c, 0, 64, 83
1, 101813, Control_c, 0, 67, 22
1, 101824, Note_on_c, 0, 62, 77
1, 101828, Control_c, 0, 64, 78
1, 101828, Control_c, 0, 67, 22
1, 101837, Note_on_c, 0, 50, 8
1, 101843, Control_c, 0, 64, 73
1, 101843, Control_c, 0, 67, 23
1, 101849, Note_off_c, 0, 52, 48
1, 101858, Control_c, 0, 64, 68
1, 101858, Control_c, 0, 67, 23
1, 101873, Control_c, 0, 64, 64
1, 101873, Control_c, 0, 67, 24
1, 101888, Control_c, 0, 64, 56
1, 101896, Note_off_c, 0, 64, 59
1, 101903, Control_c, 0, 64, 38
1, 101903, Control_c, 0, 67, 24
1, 101917, Control_c, 0, 64, 0
1, 101917, Control_c, 0, 67, 25
1, 101932, Control_c, 0, 67, 26
1, 101947, Control_c, 0, 67, 27
1, 101962, Control_c, 0, 67, 28
1, 101983, Control_c, 0, 67, 29
1, 101998, Control_c, 0, 67, 30
1, 102013, Control_c, 0, 67, 31
1, 102028, Control_c, 0, 67, 33
1, 102043, Control_c, 0, 67, 34
1, 102059, Control_c, 0, 67, 36
1, 102074, Control_c, 0, 67, 38
1, 102088, Control_c, 0, 67, 40
1, 102103, Control_c, 0, 67, 42
1, 102112, Note_on_c, 0, 59, 65
1, 102116, Note_on_c, 0, 47, 47
1, 102118, Control_c, 0, 67, 44
1, 102133, Control_c, 0, 67, 47
1, 102147, Note_off_c, 0, 50, 42
1, 102148, Control_c, 0, 67, 49
1, 102152, Note_off_c, 0, 62, 56
1, 102162, Control_c, 0, 67, 50
1, 102177, Control_c, 0, 67, 51
1, 102192, Control_c, 0, 67, 53
1, 102207, Control_c, 0, 67, 54
1, 102222, Control_c, 0, 67, 54
1, 102251, Note_on_c, 0, 62, 78
1, 102261, Note_off_c, 0, 47, 54
1, 102265, Note_off_c, 0, 59, 63
1, 102282, Note_on_c, 0, 50, 21
1, 102341, Control_c, 0, 67, 55
1, 102370, Control_c, 0, 67, 55
1, 102399, Control_c, 0, 67, 56
1, 102409, Note_on_c, 0, 64, 68
1, 102414, Control_c, 0, 67, 59
1, 102419, Note_off_c, 0, 50, 52
1, 102419, Note_off_c, 0, 62, 55
1, 102429, Control_c, 0, 67, 66
1, 102443, Note_on_c, 0, 52, 44
1, 102444, Control_c, 0, 67, 72
1, 102459, Control_c, 0, 67, 76
1, 102473, Control_c, 0, 67, 81
1, 102488, Control_c, 0, 67, 86
1, 102503, Control_c, 0, 64, 40
1, 102503, Control_c, 0, 67, 92
1, 102518, Control_c, 0, 64, 62
1, 102518, Control_c, 0, 67, 99
1, 102532, Control_c, 0, 64, 69
1, 102532, Control_c, 0, 67, 113
1, 102546, Control_c, 0, 64, 77
1, 102546, Control_c, 0, 67, 127
1, 102561, Control_c, 0, 64, 84
1, 102570, Note_off_c, 0, 64, 64
1, 102576, Control_c, 0, 64, 86
1, 102591, Control_c, 0, 64, 89
1, 102606, Control_c, 0, 64, 95
1, 102621, Control_c, 0, 64, 100
1, 102636, Control_c, 0, 64, 105
1, 102651, Control_c, 0, 64, 107
1, 102666, Control_c, 0, 64, 109
1, 102680, Control_c, 0, 64, 110
1, 102710, Control_c, 0, 64, 109
1, 102732, Control_c, 0, 64, 101
1, 102747, Control_c, 0, 64, 85
1, 102750, Note_off_c, 0, 52, 62
1, 102761, Control_c, 0, 64, 69
1, 102776, Control_c, 0, 64, 49
1, 102779, Note_on_c, 0, 77, 65
1, 102786, Note_on_c, 0, 53, 32
1, 102791, Control_c, 0, 64, 0
1, 102806, Note_on_c, 0, 65, 44
1, 102836, Control_c, 0, 64, 50
1, 102850, Note_off_c, 0, 53, 64
1, 102851, Control_c, 0, 64, 64
1, 102866, Control_c, 0, 64, 69
1, 102877, Note_off_c, 0, 65, 61
1, 102881, Control_c, 0, 64, 73
1, 102896, Control_c, 0, 64, 74
1, 102943, Note_off_c, 0, 77, 58
1, 103039, Note_on_c, 0, 76, 47
1, 103044, Control_c, 0, 64, 74
1, 103059, Control_c, 0, 64, 72
1, 103074, Control_c, 0, 64, 69
1, 103077, Note_off_c, 0, 76, 64
1, 103087, Note_on_c, 0, 77, 53
1, 103089, Control_c, 0, 64, 65
1, 103098, Note_on_c, 0, 65, 47
1, 103103, Control_c, 0, 64, 60
1, 103104, Poly_aftertouch_c, 0, 64, 0
1, 103118, Control_c, 0, 64, 43
1, 103128, Note_off_c, 0, 65, 59
1, 103132, Note_on_c, 0, 64, 17
1, 103133, Control_c, 0, 64, 0
1, 103146, Note_on_c, 0, 76, 57
1, 103156, Note_off_c, 0, 77, 59
1, 103407, Note_off_c, 0, 76, 60
1, 103415, Note_off_c, 0, 64, 46
1, 103419, Note_on_c, 0, 74, 47
1, 103424, Note_on_c, 0, 62, 43
1, 103658, Note_off_c, 0, 62, 56
1, 103666, Note_off_c, 0, 74, 61
1, 103684, Note_on_c, 0, 76, 53
1, 103691, Note_on_c, 0, 64, 37
1, 103852, Control_c, 0, 64, 42
1, 103867, Control_c, 0, 64, 58
1, 103882, Control_c, 0, 64, 63
1, 103897, Control_c, 0, 64, 65
1, 103912, Control_c, 0, 64, 67
1, 103915, Note_off_c, 0, 64, 51
1, 103927, Control_c, 0, 64, 70
1, 103932, Note_off_c, 0, 76, 54
1, 103942, Control_c, 0, 64, 75
1, 103943, Note_on_c, 0, 77, 49
1, 103946, Note_on_c, 0, 65, 32
1, 103956, Control_c, 0, 64, 79
1, 103971, Control_c, 0, 64, 80
1, 103986, Control_c, 0, 64, 81
1, 103986, Note_off_c, 0, 65, 48
1, 103998, Note_off_c, 0, 77, 57
1, 104016, Control_c, 0, 64, 81
1, 104108, Note_on_c, 0, 76, 42
1, 104134, Note_off_c, 0, 76, 61
1, 104142, Note_on_c, 0, 65, 26
1, 104142, Note_on_c, 0, 77, 55
1, 104189, Poly_aftertouch_c, 0, 81, 127
1, 104190, Note_off_c, 0, 65, 46
1, 104193, Control_c, 0, 64, 80
1, 104199, Note_on_c, 0, 64, 42
1, 104208, Control_c, 0, 64, 77
1, 104231, Control_c, 0, 64, 72
1, 104234, Note_on_c, 0, 76, 61
1, 104246, Control_c, 0, 64, 67
1, 104252, Note_off_c, 0, 77, 53
1, 104260, Control_c, 0, 64, 62
1, 104269, Poly_aftertouch_c, 0, 81, 0
1, 104275, Control_c, 0, 64, 50
1, 104290, Control_c, 0, 64, 12
1, 104305, Control_c, 0, 64, 0
1, 104476, Note_off_c, 0, 64, 58
1, 104495, Note_on_c, 0, 62, 44
1, 104505, Note_off_c, 0, 76, 63
1, 104519, Note_on_c, 0, 74, 51
1, 104612, Note_off_c, 0, 62, 54
1, 104638, Note_off_c, 0, 74, 60
1, 104645, Note_on_c, 0, 64, 31
1, 104645, Note_on_c, 0, 76, 48
1, 104818, Note_off_c, 0, 76, 39
1, 104821, Note_on_c, 0, 65, 29
1, 104824, Note_off_c, 0, 64, 45
1, 104838, Note_on_c, 0, 77, 47
1, 104913, Control_c, 0, 64, 39
1, 104928, Control_c, 0, 64, 60
1, 104942, Control_c, 0, 64, 66
1, 104957, Control_c, 0, 64, 70
1, 104979, Control_c, 0, 64, 74
1, 104979, Control_c, 0, 67, 123
1, 104994, Control_c, 0, 64, 80
1, 104994, Control_c, 0, 67, 101
1, 105009, Control_c, 0, 64, 84
1, 105009, Control_c, 0, 67, 75
1, 105012, Note_off_c, 0, 65, 50
1, 105024, Control_c, 0, 64, 88
1, 105024, Control_c, 0, 67, 49
1, 105038, Control_c, 0, 64, 93
1, 105038, Control_c, 0, 67, 26
1, 105053, Control_c, 0, 64, 99
1, 105053, Control_c, 0, 67, 8
1, 105068, Control_c, 0, 64, 107
1, 105068, Control_c, 0, 67, 0
1, 105083, Control_c, 0, 64, 119
1, 105098, Control_c, 0, 64, 127
1, 105167, Note_on_c, 0, 52, 69
1, 105170, Note_on_c, 0, 76, 67
1, 105188, Note_on_c, 0, 64, 31
1, 105227, Note_off_c, 0, 64, 50
1, 105232, Note_off_c, 0, 76, 61
1, 105233, Note_off_c, 0, 77, 36
1, 105252, Note_off_c, 0, 52, 64
1, 105423, Note_on_c, 0, 62, 51
1, 105436, Note_on_c, 0, 50, 53
1, 105437, Note_on_c, 0, 52, 61
1, 105453, Note_off_c, 0, 62, 64
1, 105463, Note_on_c, 0, 64, 68
1, 105484, Note_off_c, 0, 50, 0
1, 105504, Note_on_c, 0, 50, 58
1, 105513, Note_off_c, 0, 52, 61
1, 105513, Control_c, 0, 64, 108
1, 105526, Note_on_c, 0, 62, 83
1, 105528, Control_c, 0, 64, 91
1, 105543, Control_c, 0, 64, 79
1, 105558, Control_c, 0, 64, 69
1, 105572, Note_off_c, 0, 64, 51
1, 105572, Control_c, 0, 64, 61
1, 105587, Control_c, 0, 64, 42
1, 105602, Control_c, 0, 64, 0
1, 105876, Note_on_c, 0, 47, 66
1, 105888, Note_on_c, 0, 59, 76
1, 105933, Note_off_c, 0, 50, 60
1, 105957, Note_off_c, 0, 62, 58
1, 106153, Note_on_c, 0, 62, 89
1, 106164, Note_on_c, 0, 50, 67
1, 106207, Note_off_c, 0, 47, 62
1, 106244, Note_off_c, 0, 59, 60
1, 106307, Control_c, 0, 64, 44
1, 106321, Control_c, 0, 64, 58
1, 106336, Control_c, 0, 64, 63
1, 106351, Control_c, 0, 64, 66
1, 106365, Control_c, 0, 64, 68
1, 106380, Control_c, 0, 64, 72
1, 106395, Control_c, 0, 64, 76
1, 106405, Note_on_c, 0, 64, 83
1, 106410, Control_c, 0, 64, 78
1, 106417, Note_off_c, 0, 50, 61
1, 106420, Note_on_c, 0, 52, 60
1, 106425, Control_c, 0, 64, 79
1, 106440, Note_off_c, 0, 62, 62
1, 106454, Control_c, 0, 64, 80
1, 106488, Note_off_c, 0, 52, 65
1, 106509, Note_off_c, 0, 64, 58
1, 106568, Note_on_c, 0, 62, 59
1, 106577, Note_on_c, 0, 50, 49
1, 106600, Note_off_c, 0, 62, 58
1, 106603, Note_off_c, 0, 50, 54
1, 106618, Note_on_c, 0, 64, 76
1, 106646, Note_on_c, 0, 52, 32
1, 106654, Control_c, 0, 64, 78
1, 106669, Control_c, 0, 64, 75
1, 106683, Note_off_c, 0, 52, 45
1, 106684, Note_on_c, 0, 62, 86
1, 106684, Control_c, 0, 64, 71
1, 106685, Note_on_c, 0, 50, 64
1, 106699, Control_c, 0, 64, 66
1, 106714, Control_c, 0, 64, 60
1, 106729, Control_c, 0, 64, 46
1, 106737, Note_off_c, 0, 64, 57
1, 106744, Control_c, 0, 64, 12
1, 106758, Control_c, 0, 64, 0
1, 106986, Note_on_c, 0, 47, 48
1, 107022, Note_on_c, 0, 59, 72
1, 107022, Note_off_c, 0, 50, 61
1, 107060, Note_off_c, 0, 62, 59
1, 107152, Note_on_c, 0, 62, 85
1, 107162, Note_off_c, 0, 47, 49
1, 107164, Note_on_c, 0, 50, 50
1, 107178, Note_off_c, 0, 59, 61
1, 107328, Note_off_c, 0, 50, 58
1, 107334, Note_on_c, 0, 64, 77
1, 107340, Note_off_c, 0, 62, 56
1, 107346, Note_on_c, 0, 52, 52
1, 107477, Control_c, 0, 64, 37
1, 107492, Control_c, 0, 64, 61
1, 107507, Control_c, 0, 64, 68
1, 107522, Control_c, 0, 64, 73
1, 107536, Control_c, 0, 64, 79
1, 107551, Control_c, 0, 64, 81
1, 107566, Control_c, 0, 64, 83
1, 107578, Note_off_c, 0, 64, 63
1, 107581, Control_c, 0, 64, 84
1, 107596, Control_c, 0, 64, 84
1, 107626, Control_c, 0, 67, 14
1, 107641, Control_c, 0, 67, 21
1, 107656, Control_c, 0, 67, 26
1, 107671, Control_c, 0, 67, 30
1, 107686, Control_c, 0, 67, 35
1, 107700, Control_c, 0, 67, 39
1, 107715, Control_c, 0, 64, 83
1, 107715, Control_c, 0, 67, 45
1, 107730, Control_c, 0, 64, 76
1, 107730, Control_c, 0, 67, 51
1, 107733, Note_off_c, 0, 52, 62
1, 107745, Control_c, 0, 64, 66
1, 107745, Control_c, 0, 67, 59
1, 107760, Control_c, 0, 64, 20
1, 107760, Control_c, 0, 67, 69
1, 107775, Control_c, 0, 64, 0
1, 107775, Control_c, 0, 67, 79
1, 107777, Note_on_c, 0, 77, 60
1, 107785, Note_on_c, 0, 65, 49
1, 107787, Note_on_c, 0, 53, 38
1, 107790, Control_c, 0, 67, 93
1, 107805, Control_c, 0, 67, 107
1, 107819, Control_c, 0, 67, 119
1, 107834, Control_c, 0, 67, 127
1, 107849, Control_c, 0, 64, 55
1, 107864, Control_c, 0, 64, 66
1, 107872, Note_off_c, 0, 53, 63
1, 107879, Control_c, 0, 64, 71
1, 107893, Control_c, 0, 64, 73
1, 107915, Note_off_c, 0, 65, 47
1, 107947, Note_off_c, 0, 77, 56
1, 108008, Note_on_c, 0, 76, 55
1, 108034, Control_c, 0, 64, 72
1, 108049, Control_c, 0, 64, 70
1, 108055, Note_on_c, 0, 64, 30
1, 108061, Note_off_c, 0, 76, 61
1, 108064, Control_c, 0, 64, 66
1, 108078, Note_on_c, 0, 65, 46
1, 108079, Control_c, 0, 64, 61
1, 108079, Note_on_c, 0, 77, 55
1, 108091, Note_off_c, 0, 64, 46
1, 108093, Control_c, 0, 64, 44
1, 108108, Control_c, 0, 64, 0
1, 108118, Note_off_c, 0, 65, 61
1, 108127, Note_on_c, 0, 76, 50
1, 108151, Note_off_c, 0, 77, 56
1, 108156, Note_on_c, 0, 64, 24
1, 108404, Note_off_c, 0, 64, 56
1, 108413, Note_off_c, 0, 76, 60
1, 108420, Note_on_c, 0, 74, 46
1, 108422, Note_on_c, 0, 62, 37
1, 108664, Note_off_c, 0, 62, 48
1, 108667, Note_off_c, 0, 74, 61
1, 108675, Note_on_c, 0, 76, 46
1, 108690, Note_on_c, 0, 64, 39
1, 108781, Control_c, 0, 64, 49
1, 108796, Control_c, 0, 64, 60
1, 108811, Control_c, 0, 64, 63
1, 108826, Control_c, 0, 64, 65
1, 108840, Control_c, 0, 64, 65
1, 108855, Control_c, 0, 64, 66
1, 108870, Control_c, 0, 64, 68
1, 108884, Note_off_c, 0, 64, 62
1, 108885, Control_c, 0, 64, 69
1, 108900, Control_c, 0, 64, 71
1, 108914, Control_c, 0, 64, 71
1, 108918, Note_off_c, 0, 76, 56
1, 108927, Note_on_c, 0, 77, 47
1, 108951, Note_on_c, 0, 65, 8
1, 108999, Note_off_c, 0, 65, 41
1, 109003, Note_off_c, 0, 77, 60
1, 109082, Note_on_c, 0, 76, 45
1, 109107, Control_c, 0, 64, 71
1, 109113, Note_off_c, 0, 76, 59
1, 109122, Control_c, 0, 64, 70
1, 109128, Note_on_c, 0, 77, 57
1, 109137, Control_c, 0, 64, 68
1, 109152, Control_c, 0, 64, 65
1, 109166, Control_c, 0, 64, 62
1, 109177, Note_on_c, 0, 64, 33
1, 109181, Control_c, 0, 64, 53
1, 109196, Control_c, 0, 64, 18
1, 109200, Poly_aftertouch_c, 0, 65, 0
1, 109204, Note_on_c, 0, 76, 65
1, 109211, Control_c, 0, 64, 0
1, 109243, Note_off_c, 0, 77, 51
1, 109438, Note_off_c, 0, 64, 58
1, 109471, Note_off_c, 0, 76, 61
1, 109472, Note_on_c, 0, 62, 40
1, 109483, Note_on_c, 0, 74, 51
1, 109590, Note_off_c, 0, 62, 51
1, 109612, Note_on_c, 0, 76, 47
1, 109617, Note_off_c, 0, 74, 54
1, 109619, Note_on_c, 0, 64, 30
1, 109733, Note_off_c, 0, 76, 53
1, 109753, Note_on_c, 0, 77, 50
1, 109764, Note_off_c, 0, 64, 52
1, 109766, Note_on_c, 0, 65, 41
1, 109841, Control_c, 0, 64, 52
1, 109856, Control_c, 0, 64, 63
1, 109871, Control_c, 0, 64, 67
1, 109885, Control_c, 0, 64, 69
1, 109895, Note_off_c, 0, 65, 60
1, 109900, Control_c, 0, 64, 71
1, 109915, Control_c, 0, 64, 73
1, 109930, Control_c, 0, 64, 75
1, 109945, Control_c, 0, 64, 77
1, 109960, Control_c, 0, 64, 79
1, 109975, Control_c, 0, 64, 80
1, 109989, Control_c, 0, 64, 81
1, 110004, Control_c, 0, 64, 82
1, 110020, Control_c, 0, 64, 82
1, 110034, Control_c, 0, 64, 83
1, 110038, Note_on_c, 0, 76, 62
1, 110040, Note_on_c, 0, 52, 64
1, 110055, Note_on_c, 0, 64, 39
1, 110065, Control_c, 0, 64, 83
1, 110073, Note_off_c, 0, 77, 37
1, 110080, Note_off_c, 0, 76, 59
1, 110085, Note_off_c, 0, 64, 55
1, 110101, Note_off_c, 0, 52, 62
1, 110245, Note_on_c, 0, 62, 53
1, 110266, Note_on_c, 0, 52, 52
1, 110275, Note_off_c, 0, 62, 58
1, 110280, Control_c, 0, 64, 82
1, 110291, Note_on_c, 0, 64, 63
1, 110294, Control_c, 0, 64, 78
1, 110309, Control_c, 0, 64, 73
1, 110323, Note_off_c, 0, 52, 64
1, 110324, Control_c, 0, 64, 67
1, 110330, Note_on_c, 0, 50, 50
1, 110339, Control_c, 0, 64, 62
1, 110339, Control_c, 0, 67, 120
1, 110353, Note_on_c, 0, 62, 77
1, 110353, Control_c, 0, 64, 48
1, 110353, Control_c, 0, 67, 110
1, 110368, Control_c, 0, 64, 0
1, 110368, Control_c, 0, 67, 97
1, 110378, Note_off_c, 0, 64, 54
1, 110383, Control_c, 0, 67, 83
1, 110398, Control_c, 0, 67, 70
1, 110413, Control_c, 0, 67, 55
1, 110428, Control_c, 0, 67, 43
1, 110443, Control_c, 0, 67, 32
1, 110458, Control_c, 0, 67, 21
1, 110473, Control_c, 0, 67, 13
1, 110487, Control_c, 0, 67, 0
1, 110613, Note_on_c, 0, 47, 51
1, 110616, Note_on_c, 0, 59, 68
1, 110628, Note_off_c, 0, 50, 58
1, 110697, Note_off_c, 0, 62, 56
1, 110875, Note_on_c, 0, 62, 81
1, 110876, Note_on_c, 0, 50, 64
1, 110920, Note_off_c, 0, 47, 61
1, 110944, Note_off_c, 0, 59, 62
1, 111103, Control_c, 0, 64, 51
1, 111117, Control_c, 0, 64, 62
1, 111118, Note_off_c, 0, 50, 61
1, 111131, Note_on_c, 0, 64, 75
1, 111132, Control_c, 0, 64, 65
1, 111140, Note_on_c, 0, 52, 52
1, 111147, Control_c, 0, 64, 68
1, 111162, Control_c, 0, 64, 70
1, 111164, Note_off_c, 0, 62, 61
1, 111176, Control_c, 0, 64, 71
1, 111191, Note_off_c, 0, 52, 58
1, 111191, Control_c, 0, 64, 72
1, 111206, Control_c, 0, 64, 73
1, 111224, Note_off_c, 0, 64, 63
1, 111265, Note_on_c, 0, 62, 64
1, 111285, Note_on_c, 0, 50, 23
1, 111299, Note_off_c, 0, 62, 61
1, 111316, Note_on_c, 0, 64, 70
1, 111325, Control_c, 0, 64, 72
1, 111329, Note_off_c, 0, 50, 36
1, 111337, Note_on_c, 0, 52, 54
1, 111340, Control_c, 0, 64, 71
1, 111355, Control_c, 0, 64, 69
1, 111369, Control_c, 0, 64, 66
1, 111370, Poly_aftertouch_c, 0, 67, 127
1, 111376, Note_on_c, 0, 62, 82
1, 111376, Note_off_c, 0, 52, 64
1, 111384, Control_c, 0, 64, 62
1, 111393, Note_on_c, 0, 50, 51
1, 111399, Control_c, 0, 64, 54
1, 111414, Control_c, 0, 64, 38
1, 111429, Control_c, 0, 64, 10
1, 111434, Note_off_c, 0, 64, 58
1, 111436, Poly_aftertouch_c, 0, 67, 0
1, 111443, Control_c, 0, 64, 0
1, 111641, Note_on_c, 0, 47, 55
1, 111656, Note_on_c, 0, 59, 62
1, 111656, Note_off_c, 0, 50, 59
1, 111679, Note_off_c, 0, 62, 59
1, 111783, Note_on_c, 0, 62, 79
1, 111790, Note_on_c, 0, 50, 53
1, 111817, Note_off_c, 0, 47, 38
1, 111821, Note_off_c, 0, 59, 60
1, 111929, Note_on_c, 0, 64, 72
1, 111951, Note_on_c, 0, 52, 61
1, 111964, Note_off_c, 0, 50, 58
1, 112000, Note_off_c, 0, 62, 58
1, 112029, Control_c, 0, 64, 48
1, 112044, Control_c, 0, 64, 60
1, 112059, Control_c, 0, 64, 63
1, 112073, Control_c, 0, 64, 64
1, 112088, Control_c, 0, 64, 65
1, 112103, Control_c, 0, 64, 67
1, 112118, Control_c, 0, 64, 68
1, 112133, Control_c, 0, 64, 70
1, 112148, Control_c, 0, 64, 72
1, 112163, Control_c, 0, 64, 73
1, 112175, Note_on_c, 0, 62, 72
1, 112181, Note_off_c, 0, 52, 54
1, 112200, Note_on_c, 0, 50, 54
1, 112228, Note_off_c, 0, 64, 52
1, 112252, Note_off_c, 0, 62, 58
1, 112260, Note_off_c, 0, 50, 61
1, 112343, Note_on_c, 0, 60, 49
1, 112351, Note_on_c, 0, 48, 54
1, 112371, Note_on_c, 0, 62, 63
1, 112378, Note_off_c, 0, 48, 52
1, 112384, Control_c, 0, 64, 71
1, 112398, Note_off_c, 0, 60, 0
1, 112399, Control_c, 0, 64, 68
1, 112406, Note_on_c, 0, 50, 55
1, 112414, Control_c, 0, 64, 64
1, 112430, Control_c, 0, 64, 56
1, 112437, Poly_aftertouch_c, 0, 60, 127
1, 112445, Note_off_c, 0, 62, 59
1, 112445, Control_c, 0, 64, 14
1, 112452, Note_off_c, 0, 50, 55
1, 112467, Control_c, 0, 64, 0
1, 112473, Note_on_c, 0, 48, 54
1, 112630, Control_c, 0, 64, 21
1, 112645, Control_c, 0, 64, 33
1, 112660, Control_c, 0, 64, 34
1, 112693, Poly_aftertouch_c, 0, 60, 0
1, 112704, Control_c, 0, 64, 32
1, 112713, Note_off_c, 0, 48, 58
1, 112714, Note_on_c, 0, 58, 65
1, 112719, Control_c, 0, 64, 29
1, 112728, Note_on_c, 0, 46, 54
1, 112733, Control_c, 0, 64, 26
1, 112748, Control_c, 0, 64, 23
1, 112763, Control_c, 0, 64, 20
1, 112778, Control_c, 0, 64, 14
1, 112793, Control_c, 0, 64, 0
1, 112823, Note_on_c, 0, 60, 68
1, 112872, Note_on_c, 0, 48, 48
1, 112878, Note_off_c, 0, 46, 52
1, 112879, Note_off_c, 0, 58, 60
1, 112986, Note_on_c, 0, 62, 70
1, 113024, Note_on_c, 0, 50, 49
1, 113055, Note_off_c, 0, 60, 55
1, 113058, Note_off_c, 0, 48, 35
1, 113325, Note_off_c, 0, 50, 55
1, 113330, Note_on_c, 0, 60, 61
1, 113331, Note_off_c, 0, 62, 58
1, 113334, Note_on_c, 0, 48, 50
1, 113626, Note_on_c, 0, 58, 57
1, 113628, Note_on_c, 0, 46, 35
1, 113631, Note_off_c, 0, 60, 57
1, 113650, Note_off_c, 0, 48, 35
1, 113913, Note_on_c, 0, 57, 49
1, 113913, Note_on_c, 0, 45, 38
1, 113931, Note_off_c, 0, 46, 40
1, 113936, Note_off_c, 0, 58, 55
1, 114083, Control_c, 0, 67, 10
1, 114098, Control_c, 0, 67, 18
1, 114113, Control_c, 0, 67, 26
1, 114128, Control_c, 0, 67, 34
1, 114142, Control_c, 0, 67, 40
1, 114157, Control_c, 0, 67, 47
1, 114172, Control_c, 0, 67, 53
1, 114187, Control_c, 0, 67, 59
1, 114202, Control_c, 0, 67, 65
1, 114217, Control_c, 0, 67, 70
1, 114232, Control_c, 0, 67, 75
1, 114238, Note_on_c, 0, 43, 32
1, 114245, Note_on_c, 0, 55, 44
1, 114247, Control_c, 0, 67, 80
1, 114248, Note_off_c, 0, 57, 55
1, 114253, Note_off_c, 0, 45, 40
1, 114261, Control_c, 0, 67, 87
1, 114276, Control_c, 0, 67, 92
1, 114291, Control_c, 0, 67, 98
1, 114305, Control_c, 0, 67, 104
1, 114320, Control_c, 0, 67, 109
1, 114335, Control_c, 0, 67, 114
1, 114350, Control_c, 0, 67, 119
1, 114365, Control_c, 0, 67, 123
1, 114379, Control_c, 0, 67, 126
1, 114394, Control_c, 0, 67, 127
1, 114563, Note_off_c, 0, 43, 41
1, 114580, Note_on_c, 0, 44, 36
1, 114589, Note_on_c, 0, 62, 43
1, 114596, Note_on_c, 0, 59, 42
1, 114601, Note_on_c, 0, 53, 32
1, 114614, Note_off_c, 0, 55, 37
1, 114727, Control_c, 0, 64, 50
1, 114742, Control_c, 0, 64, 62
1, 114757, Control_c, 0, 64, 66
1, 114768, Note_off_c, 0, 44, 56
1, 114772, Control_c, 0, 64, 70
1, 114786, Control_c, 0, 64, 74
1, 114791, Note_off_c, 0, 59, 55
1, 114801, Control_c, 0, 64, 77
1, 114816, Control_c, 0, 64, 80
1, 114831, Control_c, 0, 64, 81
1, 114847, Control_c, 0, 64, 83
1, 114854, Note_off_c, 0, 62, 35
1, 114862, Control_c, 0, 64, 84
1, 114877, Control_c, 0, 64, 84
1, 114891, Control_c, 0, 64, 85
1, 115054, Control_c, 0, 64, 84
1, 115069, Control_c, 0, 64, 83
1, 115084, Control_c, 0, 64, 79
1, 115089, Note_on_c, 0, 62, 49
1, 115095, Note_on_c, 0, 52, 35
1, 115099, Control_c, 0, 64, 74
1, 115114, Note_on_c, 0, 45, 28
1, 115114, Control_c, 0, 64, 69
1, 115122, Note_on_c, 0, 57, 33
1, 115128, Control_c, 0, 64, 62
1, 115143, Control_c, 0, 64, 50
1, 115158, Control_c, 0, 64, 0
1, 115168, Note_off_c, 0, 53, 33
1, 115535, Control_c, 0, 64, 34
1, 115550, Control_c, 0, 64, 47
1, 115565, Control_c, 0, 64, 53
1, 115580, Control_c, 0, 64, 56
1, 115595, Control_c, 0, 64, 58
1, 115609, Control_c, 0, 64, 61
1, 115624, Control_c, 0, 64, 62
1, 115640, Control_c, 0, 64, 63
1, 115655, Control_c, 0, 64, 64
1, 115670, Control_c, 0, 64, 65
1, 115685, Control_c, 0, 64, 67
1, 115700, Control_c, 0, 64, 69
1, 115714, Control_c, 0, 64, 72
1, 115729, Control_c, 0, 64, 75
1, 115744, Control_c, 0, 64, 78
1, 115758, Control_c, 0, 64, 81
1, 115773, Control_c, 0, 64, 84
1, 115788, Control_c, 0, 64, 87
1, 115803, Control_c, 0, 64, 90
1, 115807, Note_off_c, 0, 57, 38
1, 115818, Control_c, 0, 64, 92
1, 115832, Control_c, 0, 64, 94
1, 115847, Control_c, 0, 64, 96
1, 115862, Control_c, 0, 64, 97
1, 115871, Note_off_c, 0, 45, 37
1, 115892, Control_c, 0, 64, 97
1, 115929, Note_off_c, 0, 52, 39
1, 116132, Note_off_c, 0, 62, 45
1, 116284, Control_c, 0, 64, 97
1, 116373, Control_c, 0, 64, 96
1, 116388, Control_c, 0, 64, 96
1, 116403, Control_c, 0, 64, 95
1, 116418, Control_c, 0, 64, 93
1, 116434, Control_c, 0, 64, 91
1, 116449, Control_c, 0, 64, 87
1, 116463, Control_c, 0, 64, 83
1, 116470, Note_on_c, 0, 61, 41
1, 116478, Control_c, 0, 64, 78
1, 116493, Control_c, 0, 64, 72
1, 116494, Note_on_c, 0, 57, 31
1, 116507, Note_on_c, 0, 45, 28
1, 116508, Control_c, 0, 64, 67
1, 116512, Note_on_c, 0, 52, 26
1, 116523, Control_c, 0, 64, 60
1, 116537, Control_c, 0, 64, 41
1, 116552, Control_c, 0, 64, 0
1, 117078, Control_c, 0, 64, 30
1, 117093, Control_c, 0, 64, 47
1, 117107, Control_c, 0, 64, 56
1, 117122, Control_c, 0, 64, 60
1, 117137, Control_c, 0, 64, 63
1, 117152, Control_c, 0, 64, 64
1, 117167, Control_c, 0, 64, 66
1, 117181, Control_c, 0, 64, 69
1, 117196, Control_c, 0, 64, 72
1, 117211, Control_c, 0, 64, 75
1, 117215, Note_off_c, 0, 45, 40
1, 117227, Control_c, 0, 64, 78
1, 117242, Control_c, 0, 64, 81
1, 117257, Control_c, 0, 64, 83
1, 117272, Control_c, 0, 64, 84
1, 117286, Control_c, 0, 64, 86
1, 117301, Control_c, 0, 64, 87
1, 117312, Note_off_c, 0, 52, 43
1, 117316, Control_c, 0, 64, 88
1, 117330, Control_c, 0, 64, 89
1, 117345, Control_c, 0, 64, 89
1, 117382, Note_off_c, 0, 57, 33
1, 117830, Note_off_c, 0, 61, 37
1, 117886, Control_c, 0, 64, 88
1, 117901, Control_c, 0, 64, 82
1, 117916, Control_c, 0, 64, 73
1, 117921, Note_on_c, 0, 50, 28
1, 117930, Control_c, 0, 64, 64
1, 117945, Control_c, 0, 64, 43
1, 117960, Control_c, 0, 64, 0
1, 118035, Control_c, 0, 64, 34
1, 118050, Control_c, 0, 64, 55
1, 118065, Control_c, 0, 64, 62
1, 118080, Control_c, 0, 64, 64
1, 118095, Control_c, 0, 64, 65
1, 118109, Control_c, 0, 64, 66
1, 118124, Control_c, 0, 64, 68
1, 118139, Control_c, 0, 64, 70
1, 118153, Control_c, 0, 64, 73
1, 118168, Control_c, 0, 64, 76
1, 118183, Control_c, 0, 64, 78
1, 118198, Control_c, 0, 64, 79
1, 118213, Control_c, 0, 64, 79
1, 118227, Control_c, 0, 64, 80
1, 118242, Control_c, 0, 64, 81
1, 118257, Control_c, 0, 64, 81
1, 118270, Note_on_c, 0, 57, 24
1, 118271, Control_c, 0, 64, 82
1, 118286, Control_c, 0, 64, 83
1, 118301, Control_c, 0, 64, 84
1, 118316, Control_c, 0, 64, 85
1, 118323, Note_off_c, 0, 50, 24
1, 118345, Control_c, 0, 64, 85
1, 118360, Control_c, 0, 64, 86
1, 118582, Note_off_c, 0, 57, 32
1, 118586, Note_on_c, 0, 50, 29
1, 118826, Note_off_c, 0, 50, 36
1, 118851, Note_on_c, 0, 77, 51
1, 118855, Note_on_c, 0, 57, 32
1, 118921, Note_off_c, 0, 77, 51
1, 119050, Control_c, 0, 64, 85
1, 119060, Note_off_c, 0, 57, 31
1, 119062, Note_on_c, 0, 77, 51
1, 119065, Control_c, 0, 64, 85
1, 119080, Control_c, 0, 64, 83
1, 119084, Poly_aftertouch_c, 0, 76, 127
1, 119094, Control_c, 0, 64, 82
1, 119109, Control_c, 0, 64, 81
1, 119124, Control_c, 0, 64, 79
1, 119139, Control_c, 0, 64, 76
1, 119143, Note_on_c, 0, 50, 29
1, 119154, Control_c, 0, 64, 72
1, 119168, Control_c, 0, 64, 68
1, 119183, Control_c, 0, 64, 64
1, 119184, Note_off_c, 0, 77, 36
1, 119206, Control_c, 0, 64, 59
1, 119221, Control_c, 0, 64, 48
1, 119236, Control_c, 0, 64, 37
1, 119250, Control_c, 0, 64, 40
1, 119265, Control_c, 0, 64, 47
1, 119280, Control_c, 0, 64, 52
1, 119295, Control_c, 0, 64, 57
1, 119309, Control_c, 0, 64, 60
1, 119324, Control_c, 0, 64, 63
1, 119339, Control_c, 0, 64, 64
1, 119354, Control_c, 0, 64, 65
1, 119369, Control_c, 0, 64, 65
1, 119383, Control_c, 0, 64, 66
1, 119398, Control_c, 0, 64, 66
1, 119413, Control_c, 0, 64, 67
1, 119428, Control_c, 0, 64, 68
1, 119442, Note_on_c, 0, 74, 48
1, 119443, Control_c, 0, 64, 69
1, 119445, Note_off_c, 0, 50, 39
1, 119454, Note_on_c, 0, 57, 32
1, 119457, Control_c, 0, 64, 70
1, 119472, Control_c, 0, 64, 70
1, 119477, Poly_aftertouch_c, 0, 76, 0
1, 119487, Control_c, 0, 64, 71
1, 119502, Control_c, 0, 64, 71
1, 119758, Note_off_c, 0, 57, 34
1, 119776, Note_on_c, 0, 50, 26
1, 119779, Note_on_c, 0, 81, 50
1, 119800, Note_off_c, 0, 74, 38
1, 120046, Note_off_c, 0, 50, 38
1, 120068, Note_on_c, 0, 77, 43
1, 120085, Note_on_c, 0, 57, 11
1, 120187, Note_on_c, 0, 74, 49
1, 120241, Note_off_c, 0, 81, 28
1, 120269, Note_off_c, 0, 77, 34
1, 120313, Note_off_c, 0, 57, 36
1, 120351, Note_on_c, 0, 69, 55
1, 120357, Note_on_c, 0, 50, 5
1, 120408, Note_off_c, 0, 74, 38
1, 120490, Control_c, 0, 64, 72
1, 120504, Control_c, 0, 64, 73
1, 120519, Control_c, 0, 64, 74
1, 120534, Control_c, 0, 64, 76
1, 120548, Control_c, 0, 64, 79
1, 120563, Control_c, 0, 64, 83
1, 120578, Control_c, 0, 64, 86
1, 120593, Control_c, 0, 64, 88
1, 120608, Note_on_c, 0, 57, 35
1, 120608, Control_c, 0, 64, 90
1, 120623, Control_c, 0, 64, 91
1, 120638, Control_c, 0, 64, 92
1, 120647, Note_off_c, 0, 50, 38
1, 120652, Control_c, 0, 64, 92
1, 120667, Control_c, 0, 64, 93
1, 120708, Note_off_c, 0, 69, 57
1, 120848, Note_off_c, 0, 57, 39
1, 120899, Note_on_c, 0, 50, 26
1, 120906, Note_on_c, 0, 70, 44
1, 121001, Control_c, 0, 64, 93
1, 121010, Note_on_c, 0, 73, 46
1, 121016, Control_c, 0, 64, 92
1, 121025, Note_off_c, 0, 70, 38
1, 121030, Control_c, 0, 64, 92
1, 121060, Control_c, 0, 64, 91
1, 121089, Control_c, 0, 64, 91
1, 121119, Control_c, 0, 64, 90
1, 121144, Note_on_c, 0, 58, 40
1, 121148, Control_c, 0, 64, 90
1, 121150, Note_off_c, 0, 50, 39
1, 121154, Note_on_c, 0, 67, 52
1, 121178, Control_c, 0, 64, 89
1, 121200, Note_off_c, 0, 73, 36
1, 121208, Control_c, 0, 64, 89
1, 121239, Control_c, 0, 64, 88
1, 121252, Control_c, 0, 64, 88
1, 121261, Note_off_c, 0, 67, 49
1, 121262, Note_on_c, 0, 70, 56
1, 121267, Control_c, 0, 64, 87
1, 121296, Control_c, 0, 64, 87
1, 121311, Control_c, 0, 64, 86
1, 121341, Control_c, 0, 64, 86
1, 121345, Note_off_c, 0, 70, 61
1, 121395, Note_on_c, 0, 64, 57
1, 121416, Note_on_c, 0, 50, 36
1, 121466, Control_c, 0, 64, 85
1, 121490, Note_off_c, 0, 58, 32
1, 121519, Note_off_c, 0, 64, 45
1, 121520, Note_on_c, 0, 67, 48
1, 121556, Control_c, 0, 64, 85
1, 121656, Note_off_c, 0, 50, 39
1, 121659, Control_c, 0, 64, 84
1, 121660, Note_on_c, 0, 61, 52
1, 121667, Note_on_c, 0, 55, 41
1, 121703, Control_c, 0, 64, 84
1, 121732, Note_off_c, 0, 67, 36
1, 121733, Control_c, 0, 64, 83
1, 121757, Note_on_c, 0, 64, 46
1, 121763, Control_c, 0, 64, 83
1, 121779, Note_off_c, 0, 61, 60
1, 121792, Control_c, 0, 64, 82
1, 121821, Control_c, 0, 64, 81
1, 121828, Note_off_c, 0, 64, 62
1, 121836, Control_c, 0, 64, 81
1, 121851, Control_c, 0, 64, 80
1, 121866, Control_c, 0, 64, 79
1, 121881, Control_c, 0, 64, 79
1, 121895, Control_c, 0, 64, 77
1, 121901, Note_on_c, 0, 67, 58
1, 121904, Note_on_c, 0, 50, 41
1, 121910, Control_c, 0, 64, 76
1, 121925, Control_c, 0, 64, 75
1, 121940, Control_c, 0, 64, 74
1, 121955, Control_c, 0, 64, 73
1, 121970, Control_c, 0, 64, 72
1, 121985, Control_c, 0, 64, 72
1, 122000, Control_c, 0, 64, 71
1, 122015, Control_c, 0, 64, 71
1, 122024, Note_on_c, 0, 70, 57
1, 122060, Control_c, 0, 64, 70
1, 122083, Note_off_c, 0, 67, 37
1, 122152, Note_on_c, 0, 58, 38
1, 122153, Note_on_c, 0, 73, 61
1, 122173, Note_off_c, 0, 50, 35
1, 122203, Note_off_c, 0, 55, 36
1, 122229, Note_off_c, 0, 70, 33
1, 122274, Note_on_c, 0, 76, 53
1, 122314, Note_off_c, 0, 73, 37
1, 122364, Control_c, 0, 64, 69
1, 122378, Control_c, 0, 64, 68
1, 122380, Note_off_c, 0, 58, 48
1, 122393, Control_c, 0, 64, 64
1, 122408, Control_c, 0, 64, 60
1, 122414, Note_on_c, 0, 69, 55
1, 122414, Note_on_c, 0, 53, 37
1, 122423, Control_c, 0, 64, 47
1, 122425, Note_off_c, 0, 76, 57
1, 122431, Note_on_c, 0, 50, 29
1, 122438, Control_c, 0, 64, 0
1, 122528, Note_on_c, 0, 55, 40
1, 122573, Note_off_c, 0, 53, 45
1, 122600, Control_c, 0, 64, 49
1, 122615, Control_c, 0, 64, 60
1, 122630, Control_c, 0, 64, 63
1, 122634, Note_off_c, 0, 55, 57
1, 122644, Control_c, 0, 64, 64
1, 122659, Note_on_c, 0, 57, 42
1, 122659, Control_c, 0, 64, 64
1, 122674, Control_c, 0, 64, 65
1, 122689, Control_c, 0, 64, 67
1, 122704, Control_c, 0, 64, 69
1, 122718, Control_c, 0, 64, 72
1, 122733, Control_c, 0, 64, 74
1, 122744, Note_off_c, 0, 50, 51
1, 122748, Control_c, 0, 64, 76
1, 122763, Control_c, 0, 64, 78
1, 122778, Control_c, 0, 64, 79
1, 122793, Control_c, 0, 64, 79
1, 122808, Control_c, 0, 64, 80
1, 122838, Control_c, 0, 64, 80
1, 122879, Note_off_c, 0, 69, 61
1, 122927, Note_on_c, 0, 50, 33
1, 122951, Note_off_c, 0, 57, 33
1, 123097, Control_c, 0, 64, 80
1, 123142, Control_c, 0, 64, 79
1, 123168, Note_on_c, 0, 57, 44
1, 123171, Control_c, 0, 64, 79
1, 123179, Note_on_c, 0, 77, 49
1, 123184, Note_off_c, 0, 50, 40
1, 123201, Control_c, 0, 64, 78
1, 123216, Control_c, 0, 64, 78
1, 123225, Note_off_c, 0, 77, 57
1, 123246, Control_c, 0, 64, 77
1, 123275, Control_c, 0, 64, 77
1, 123305, Control_c, 0, 64, 76
1, 123315, Note_on_c, 0, 76, 53
1, 123335, Control_c, 0, 64, 76
1, 123337, Note_off_c, 0, 76, 65
1, 123349, Control_c, 0, 64, 75
1, 123360, Note_on_c, 0, 77, 62
1, 123364, Control_c, 0, 64, 74
1, 123379, Control_c, 0, 64, 72
1, 123394, Control_c, 0, 64, 71
1, 123409, Control_c, 0, 64, 69
1, 123417, Note_off_c, 0, 57, 34
1, 123423, Control_c, 0, 64, 66
1, 123431, Note_on_c, 0, 76, 51
1, 123437, Note_on_c, 0, 50, 38
1, 123438, Control_c, 0, 64, 63
1, 123453, Control_c, 0, 64, 56
1, 123467, Control_c, 0, 64, 44
1, 123482, Control_c, 0, 64, 29
1, 123492, Note_off_c, 0, 77, 39
1, 123497, Control_c, 0, 64, 21
1, 123512, Control_c, 0, 64, 19
1, 123556, Control_c, 0, 64, 21
1, 123571, Control_c, 0, 64, 26
1, 123586, Control_c, 0, 64, 31
1, 123601, Control_c, 0, 64, 32
1, 123617, Control_c, 0, 64, 33
1, 123632, Control_c, 0, 64, 38
1, 123646, Control_c, 0, 64, 47
1, 123661, Control_c, 0, 64, 54
1, 123676, Control_c, 0, 64, 58
1, 123698, Control_c, 0, 64, 61
1, 123713, Control_c, 0, 64, 63
1, 123716, Note_on_c, 0, 57, 32
1, 123726, Note_on_c, 0, 74, 50
1, 123728, Control_c, 0, 64, 64
1, 123743, Control_c, 0, 64, 64
1, 123750, Note_off_c, 0, 76, 61
1, 123758, Control_c, 0, 64, 65
1, 123767, Note_off_c, 0, 50, 51
1, 123772, Control_c, 0, 64, 67
1, 123787, Control_c, 0, 64, 68
1, 123802, Control_c, 0, 64, 69
1, 123817, Control_c, 0, 64, 70
1, 123832, Control_c, 0, 64, 70
1, 124000, Note_off_c, 0, 57, 36
1, 124006, Note_on_c, 0, 50, 37
1, 124013, Note_off_c, 0, 74, 53
1, 124021, Note_on_c, 0, 81, 58
1, 124054, Control_c, 0, 64, 71
1, 124098, Control_c, 0, 64, 71
1, 124265, Note_on_c, 0, 57, 34
1, 124268, Note_off_c, 0, 50, 40
1, 124299, Note_on_c, 0, 77, 50
1, 124354, Note_off_c, 0, 81, 31
1, 124396, Note_off_c, 0, 57, 36
1, 124420, Note_on_c, 0, 74, 56
1, 124443, Note_off_c, 0, 77, 53
1, 124551, Control_c, 0, 64, 71
1, 124566, Control_c, 0, 64, 68
1, 124572, Note_on_c, 0, 50, 27
1, 124581, Control_c, 0, 64, 64
1, 124592, Note_on_c, 0, 70, 58
1, 124595, Control_c, 0, 64, 54
1, 124596, Note_off_c, 0, 74, 62
1, 124610, Control_c, 0, 64, 25
1, 124625, Control_c, 0, 64, 0
1, 124669, Control_c, 0, 64, 17
1, 124684, Control_c, 0, 64, 46
1, 124699, Control_c, 0, 64, 59
1, 124713, Control_c, 0, 64, 63
1, 124728, Control_c, 0, 64, 65
1, 124743, Control_c, 0, 64, 65
1, 124758, Control_c, 0, 64, 66
1, 124773, Control_c, 0, 64, 67
1, 124787, Control_c, 0, 64, 69
1, 124802, Control_c, 0, 64, 70
1, 124817, Control_c, 0, 64, 71
1, 124843, Note_on_c, 0, 58, 41
1, 124847, Control_c, 0, 64, 71
1, 124857, Note_off_c, 0, 50, 40
1, 124861, Control_c, 0, 64, 72
1, 124876, Control_c, 0, 64, 72
1, 124891, Control_c, 0, 64, 73
1, 124941, Note_off_c, 0, 70, 0
1, 124978, Poly_aftertouch_c, 0, 70, 127
1, 125025, Poly_aftertouch_c, 0, 70, 0
1, 125114, Note_on_c, 0, 68, 61
1, 125124, Note_on_c, 0, 50, 33
1, 125204, Note_off_c, 0, 58, 36
1, 125378, Note_on_c, 0, 56, 44
1, 125384, Note_on_c, 0, 65, 54
1, 125389, Note_off_c, 0, 50, 38
1, 125512, Note_on_c, 0, 62, 61
1, 125523, Note_off_c, 0, 65, 58
1, 125535, Note_off_c, 0, 68, 36
1, 125582, Note_off_c, 0, 62, 61
1, 125625, Control_c, 0, 64, 72
1, 125634, Note_on_c, 0, 50, 48
1, 125638, Note_on_c, 0, 58, 58
1, 125669, Control_c, 0, 64, 72
1, 125693, Note_off_c, 0, 56, 23
1, 125699, Control_c, 0, 64, 71
1, 125714, Control_c, 0, 64, 71
1, 125729, Control_c, 0, 64, 70
1, 125744, Control_c, 0, 64, 70
1, 125753, Note_on_c, 0, 59, 56
1, 125759, Control_c, 0, 64, 69
1, 125789, Control_c, 0, 64, 69
1, 125809, Note_off_c, 0, 58, 56
1, 125833, Control_c, 0, 64, 68
1, 125848, Control_c, 0, 64, 68
1, 125867, Note_off_c, 0, 50, 56
1, 125869, Note_on_c, 0, 62, 66
1, 125877, Note_on_c, 0, 53, 49
1, 125892, Control_c, 0, 64, 67
1, 125893, Note_off_c, 0, 59, 51
1, 125938, Note_off_c, 0, 62, 60
1, 125996, Note_on_c, 0, 65, 64
1, 126048, Control_c, 0, 64, 67
1, 126108, Control_c, 0, 64, 66
1, 126122, Note_on_c, 0, 50, 39
1, 126122, Control_c, 0, 64, 66
1, 126137, Control_c, 0, 64, 65
1, 126147, Note_on_c, 0, 68, 61
1, 126152, Control_c, 0, 64, 64
1, 126157, Note_off_c, 0, 65, 59
1, 126167, Control_c, 0, 64, 63
1, 126182, Control_c, 0, 64, 62
1, 126197, Control_c, 0, 64, 62
1, 126241, Note_on_c, 0, 70, 61
1, 126241, Control_c, 0, 64, 61
1, 126271, Control_c, 0, 64, 61
1, 126285, Control_c, 0, 64, 60
1, 126300, Control_c, 0, 64, 60
1, 126302, Note_off_c, 0, 68, 60
1, 126315, Control_c, 0, 64, 59
1, 126330, Control_c, 0, 64, 59
1, 126345, Control_c, 0, 64, 58
1, 126348, Note_off_c, 0, 53, 17
1, 126350, Note_off_c, 0, 70, 61
1, 126354, Note_on_c, 0, 56, 42
1, 126359, Control_c, 0, 64, 57
1, 126362, Note_on_c, 0, 71, 65
1, 126374, Control_c, 0, 64, 56
1, 126389, Control_c, 0, 64, 54
1, 126404, Control_c, 0, 64, 51
1, 126418, Control_c, 0, 64, 48
1, 126433, Control_c, 0, 64, 45
1, 126448, Control_c, 0, 64, 43
1, 126463, Control_c, 0, 64, 40
1, 126478, Control_c, 0, 64, 37
1, 126481, Note_on_c, 0, 77, 58
1, 126493, Control_c, 0, 64, 35
1, 126508, Control_c, 0, 64, 34
1, 126523, Control_c, 0, 64, 30
1, 126538, Control_c, 0, 64, 26
1, 126553, Control_c, 0, 64, 21
1, 126567, Control_c, 0, 64, 15
1, 126582, Control_c, 0, 64, 0
1, 126609, Note_off_c, 0, 50, 39
1, 126626, Note_on_c, 0, 51, 37
1, 126639, Note_on_c, 0, 70, 54
1, 126644, Note_off_c, 0, 71, 49
1, 126674, Note_off_c, 0, 56, 54
1, 126678, Note_off_c, 0, 77, 48
1, 126887, Control_c, 0, 64, 31
1, 126902, Control_c, 0, 64, 56
1, 126908, Note_on_c, 0, 55, 32
1, 126916, Control_c, 0, 64, 62
1, 126931, Control_c, 0, 64, 64
1, 126946, Control_c, 0, 64, 67
1, 126961, Control_c, 0, 64, 71
1, 126976, Control_c, 0, 64, 77
1, 126990, Control_c, 0, 64, 81
1, 127005, Control_c, 0, 64, 85
1, 127008, Note_off_c, 0, 51, 35
1, 127020, Control_c, 0, 64, 87
1, 127035, Control_c, 0, 64, 91
1, 127049, Control_c, 0, 64, 96
1, 127064, Control_c, 0, 64, 102
1, 127079, Control_c, 0, 64, 109
1, 127094, Control_c, 0, 64, 121
1, 127109, Control_c, 0, 64, 127
1, 127124, Note_on_c, 0, 51, 52
1, 127157, Note_off_c, 0, 70, 60
1, 127178, Note_off_c, 0, 55, 41
1, 127198, Control_c, 0, 67, 119
1, 127213, Control_c, 0, 67, 102
1, 127228, Control_c, 0, 67, 84
1, 127241, Control_c, 0, 67, 65
1, 127256, Control_c, 0, 67, 48
1, 127271, Control_c, 0, 67, 34
1, 127286, Control_c, 0, 67, 24
1, 127301, Control_c, 0, 67, 19
1, 127315, Control_c, 0, 67, 17
1, 127330, Control_c, 0, 67, 15
1, 127345, Control_c, 0, 67, 13
1, 127360, Control_c, 0, 67, 11
1, 127375, Control_c, 0, 67, 10
1, 127382, Note_on_c, 0, 70, 62
1, 127389, Control_c, 0, 67, 9
1, 127404, Control_c, 0, 67, 8
1, 127407, Note_off_c, 0, 51, 51
1, 127408, Note_on_c, 0, 55, 41
1, 127417, Note_off_c, 0, 70, 63
1, 127419, Control_c, 0, 67, 0
1, 127531, Note_on_c, 0, 73, 63
1, 127531, Note_off_c, 0, 55, 55
1, 127565, Note_off_c, 0, 73, 61
1, 127585, Note_on_c, 0, 75, 61
1, 127635, Control_c, 0, 64, 103
1, 127643, Note_on_c, 0, 73, 67
1, 127650, Control_c, 0, 64, 87
1, 127664, Control_c, 0, 64, 74
1, 127673, Note_off_c, 0, 75, 57
1, 127678, Note_on_c, 0, 52, 41
1, 127679, Control_c, 0, 64, 65
1, 127694, Control_c, 0, 64, 51
1, 127709, Control_c, 0, 64, 0
1, 127783, Control_c, 0, 64, 31
1, 127798, Control_c, 0, 64, 53
1, 127813, Control_c, 0, 64, 59
1, 127827, Control_c, 0, 64, 61
1, 127842, Control_c, 0, 64, 62
1, 127857, Control_c, 0, 64, 63
1, 127872, Control_c, 0, 64, 64
1, 127887, Control_c, 0, 64, 66
1, 127902, Control_c, 0, 64, 67
1, 127902, Note_on_c, 0, 72, 63
1, 127917, Control_c, 0, 64, 68
1, 127932, Control_c, 0, 64, 69
1, 127933, Note_on_c, 0, 55, 41
1, 127944, Note_off_c, 0, 73, 62
1, 127946, Control_c, 0, 64, 71
1, 127954, Note_off_c, 0, 52, 60
1, 127961, Control_c, 0, 64, 72
1, 127976, Control_c, 0, 64, 73
1, 127991, Control_c, 0, 64, 75
1, 128006, Control_c, 0, 64, 76
1, 128020, Control_c, 0, 64, 77
1, 128035, Control_c, 0, 64, 78
1, 128050, Control_c, 0, 64, 78
1, 128064, Control_c, 0, 64, 79
1, 128138, Control_c, 0, 64, 79
1, 128172, Note_on_c, 0, 52, 39
1, 128190, Note_on_c, 0, 82, 70
1, 128200, Note_off_c, 0, 55, 33
1, 128264, Control_c, 0, 67, 11
1, 128279, Control_c, 0, 67, 22
1, 128294, Control_c, 0, 67, 34
1, 128309, Control_c, 0, 67, 44
1, 128324, Control_c, 0, 67, 55
1, 128338, Control_c, 0, 67, 66
1, 128353, Control_c, 0, 67, 78
1, 128368, Control_c, 0, 67, 90
1, 128378, Note_off_c, 0, 72, 37
1, 128382, Control_c, 0, 67, 101
1, 128397, Control_c, 0, 67, 114
1, 128414, Control_c, 0, 67, 122
1, 128429, Control_c, 0, 67, 127
1, 128438, Note_on_c, 0, 79, 66
1, 128453, Note_on_c, 0, 55, 51
1, 128500, Note_off_c, 0, 52, 40
1, 128501, Note_off_c, 0, 82, 60
1, 128565, Note_on_c, 0, 76, 72
1, 128573, Note_off_c, 0, 79, 54
1, 128583, Note_off_c, 0, 55, 57
1, 128608, Note_off_c, 0, 76, 63
1, 128650, Control_c, 0, 64, 79
1, 128665, Control_c, 0, 64, 77
1, 128680, Control_c, 0, 64, 73
1, 128695, Control_c, 0, 64, 66
1, 128707, Note_on_c, 0, 72, 67
1, 128707, Note_on_c, 0, 53, 64
1, 128710, Control_c, 0, 64, 51
1, 128725, Control_c, 0, 64, 0
1, 128815, Note_off_c, 0, 72, 58
1, 128818, Note_on_c, 0, 73, 63
1, 128856, Note_off_c, 0, 73, 59
1, 128970, Note_on_c, 0, 73, 51
1, 128971, Note_on_c, 0, 55, 60
1, 128990, Note_on_c, 0, 75, 53
1, 128995, Note_off_c, 0, 73, 62
1, 129038, Note_off_c, 0, 75, 65
1, 129043, Note_on_c, 0, 73, 55
1, 129082, Note_off_c, 0, 55, 64
1, 129084, Note_off_c, 0, 73, 63
1, 129093, Note_on_c, 0, 72, 60
1, 129112, Note_off_c, 0, 72, 67
1, 129211, Note_on_c, 0, 73, 71
1, 129231, Note_on_c, 0, 65, 66
1, 129257, Note_off_c, 0, 73, 60
1, 129263, Note_on_c, 0, 75, 55
1, 129289, Note_on_c, 0, 73, 56
1, 129300, Note_off_c, 0, 75, 65
1, 129341, Note_off_c, 0, 73, 63
1, 129365, Note_on_c, 0, 72, 54
1, 129384, Note_off_c, 0, 72, 61
1, 129466, Note_on_c, 0, 73, 69
1, 129473, Control_c, 0, 64, 19
1, 129488, Control_c, 0, 64, 56
1, 129494, Note_on_c, 0, 61, 48
1, 129494, Note_off_c, 0, 73, 63
1, 129503, Control_c, 0, 64, 64
1, 129506, Note_on_c, 0, 75, 64
1, 129509, Note_off_c, 0, 65, 49
1, 129518, Control_c, 0, 64, 66
1, 129533, Control_c, 0, 64, 67
1, 129547, Control_c, 0, 64, 67
1, 129548, Note_on_c, 0, 73, 61
1, 129555, Note_off_c, 0, 75, 62
1, 129562, Control_c, 0, 64, 68
1, 129575, Note_on_c, 0, 58, 64
1, 129577, Control_c, 0, 64, 68
1, 129586, Note_off_c, 0, 61, 59
1, 129601, Note_off_c, 0, 73, 61
1, 129602, Note_off_c, 0, 53, 39
1, 129610, Note_off_c, 0, 58, 62
1, 129618, Note_on_c, 0, 72, 67
1, 129640, Note_off_c, 0, 72, 70
1, 129703, Control_c, 0, 64, 68
1, 129717, Control_c, 0, 64, 66
1, 129732, Control_c, 0, 64, 62
1, 129745, Note_on_c, 0, 73, 69
1, 129747, Control_c, 0, 64, 51
1, 129762, Control_c, 0, 64, 0
1, 129766, Note_on_c, 0, 55, 43
1, 129774, Note_on_c, 0, 52, 48
1, 129799, Note_on_c, 0, 75, 55
1, 129823, Note_off_c, 0, 73, 0
1, 129840, Note_off_c, 0, 55, 62
1, 129843, Note_on_c, 0, 73, 36
1, 129867, Note_off_c, 0, 75, 61
1, 130027, Note_on_c, 0, 55, 47
1, 130030, Note_on_c, 0, 72, 74
1, 130039, Note_off_c, 0, 73, 62
1, 130045, Control_c, 0, 64, 20
1, 130059, Control_c, 0, 64, 46
1, 130074, Control_c, 0, 64, 56
1, 130089, Control_c, 0, 64, 61
1, 130093, Note_off_c, 0, 52, 58
1, 130104, Control_c, 0, 64, 63
1, 130119, Control_c, 0, 64, 64
1, 130133, Control_c, 0, 64, 66
1, 130148, Control_c, 0, 64, 68
1, 130163, Control_c, 0, 64, 70
1, 130178, Control_c, 0, 64, 71
1, 130193, Control_c, 0, 64, 72
1, 130207, Control_c, 0, 64, 73
1, 130320, Note_on_c, 0, 52, 46
1, 130325, Note_on_c, 0, 82, 76
1, 130356, Control_c, 0, 64, 72
1, 130371, Control_c, 0, 64, 70
1, 130385, Control_c, 0, 64, 68
1, 130391, Note_off_c, 0, 55, 32
1, 130400, Control_c, 0, 64, 65
1, 130415, Control_c, 0, 64, 63
1, 130467, Control_c, 0, 64, 65
1, 130482, Control_c, 0, 64, 67
1, 130497, Control_c, 0, 64, 69
1, 130512, Control_c, 0, 64, 71
1, 130527, Control_c, 0, 64, 72
1, 130541, Control_c, 0, 64, 73
1, 130556, Control_c, 0, 64, 74
1, 130571, Control_c, 0, 64, 75
1, 130585, Control_c, 0, 64, 75
1, 130586, Note_on_c, 0, 79, 69
1, 130606, Note_on_c, 0, 55, 43
1, 130615, Note_off_c, 0, 72, 37
1, 130641, Note_off_c, 0, 52, 57
1, 130707, Note_off_c, 0, 55, 61
1, 130713, Note_on_c, 0, 76, 71
1, 130719, Control_c, 0, 67, 125
1, 130734, Control_c, 0, 67, 104
1, 130749, Control_c, 0, 67, 83
1, 130756, Note_off_c, 0, 79, 56
1, 130764, Control_c, 0, 67, 63
1, 130772, Note_off_c, 0, 76, 62
1, 130779, Control_c, 0, 67, 45
1, 130793, Control_c, 0, 67, 33
1, 130799, Note_off_c, 0, 82, 38
1, 130809, Control_c, 0, 64, 75
1, 130809, Control_c, 0, 67, 28
1, 130824, Control_c, 0, 64, 73
1, 130824, Control_c, 0, 67, 28
1, 130837, Note_on_c, 0, 72, 68
1, 130838, Control_c, 0, 64, 69
1, 130842, Note_on_c, 0, 53, 56
1, 130853, Control_c, 0, 64, 64
1, 130853, Control_c, 0, 67, 29
1, 130868, Control_c, 0, 64, 50
1, 130868, Control_c, 0, 67, 31
1, 130883, Control_c, 0, 64, 0
1, 130883, Control_c, 0, 67, 32
1, 130898, Control_c, 0, 67, 34
1, 130913, Control_c, 0, 67, 36
1, 130928, Control_c, 0, 67, 40
1, 130943, Control_c, 0, 67, 44
1, 130956, Note_on_c, 0, 73, 62
1, 130957, Control_c, 0, 67, 50
1, 130960, Note_off_c, 0, 72, 62
1, 130972, Control_c, 0, 67, 55
1, 130987, Control_c, 0, 67, 61
1, 130987, Note_off_c, 0, 73, 64
1, 131001, Control_c, 0, 67, 66
1, 131016, Control_c, 0, 67, 71
1, 131031, Control_c, 0, 67, 74
1, 131046, Control_c, 0, 67, 75
1, 131061, Control_c, 0, 67, 76
1, 131075, Control_c, 0, 67, 76
1, 131082, Note_on_c, 0, 73, 65
1, 131105, Control_c, 0, 67, 77
1, 131119, Note_off_c, 0, 73, 58
1, 131120, Control_c, 0, 67, 79
1, 131122, Note_on_c, 0, 55, 46
1, 131134, Note_on_c, 0, 75, 63
1, 131135, Control_c, 0, 67, 83
1, 131149, Control_c, 0, 67, 87
1, 131161, Note_on_c, 0, 73, 55
1, 131162, Note_off_c, 0, 75, 67
1, 131164, Control_c, 0, 67, 90
1, 131187, Control_c, 0, 67, 94
1, 131202, Control_c, 0, 67, 98
1, 131216, Control_c, 0, 67, 101
1, 131231, Control_c, 0, 67, 107
1, 131232, Note_on_c, 0, 72, 62
1, 131241, Note_off_c, 0, 73, 60
1, 131246, Control_c, 0, 67, 114
1, 131250, Note_off_c, 0, 72, 66
1, 131261, Control_c, 0, 67, 121
1, 131276, Control_c, 0, 67, 127
1, 131317, Note_off_c, 0, 55, 30
1, 131362, Note_on_c, 0, 73, 60
1, 131375, Note_on_c, 0, 65, 68
1, 131390, Note_off_c, 0, 73, 64
1, 131393, Note_on_c, 0, 75, 58
1, 131425, Note_off_c, 0, 75, 67
1, 131437, Note_on_c, 0, 73, 42
1, 131479, Note_on_c, 0, 72, 55
1, 131495, Note_off_c, 0, 73, 54
1, 131500, Note_off_c, 0, 72, 62
1, 131617, Control_c, 0, 64, 54
1, 131619, Note_on_c, 0, 73, 69
1, 131631, Control_c, 0, 64, 65
1, 131640, Note_on_c, 0, 61, 53
1, 131646, Control_c, 0, 64, 70
1, 131649, Note_off_c, 0, 73, 64
1, 131658, Note_on_c, 0, 75, 60
1, 131661, Control_c, 0, 64, 72
1, 131676, Control_c, 0, 64, 74
1, 131676, Control_c, 0, 67, 126
1, 131691, Control_c, 0, 67, 121
1, 131692, Note_off_c, 0, 65, 37
1, 131697, Note_off_c, 0, 75, 65
1, 131700, Note_on_c, 0, 73, 55
1, 131706, Control_c, 0, 67, 117
1, 131721, Control_c, 0, 64, 74
1, 131721, Control_c, 0, 67, 111
1, 131727, Note_on_c, 0, 58, 58
1, 131729, Note_off_c, 0, 61, 56
1, 131734, Note_off_c, 0, 73, 60
1, 131735, Control_c, 0, 67, 107
1, 131750, Control_c, 0, 67, 101
1, 131754, Note_on_c, 0, 72, 73
1, 131765, Note_off_c, 0, 53, 62
1, 131765, Control_c, 0, 67, 94
1, 131777, Note_off_c, 0, 72, 68
1, 131779, Control_c, 0, 67, 88
1, 131784, Note_off_c, 0, 58, 62
1, 131794, Control_c, 0, 67, 82
1, 131809, Control_c, 0, 67, 79
1, 131823, Control_c, 0, 67, 77
1, 131838, Control_c, 0, 67, 75
1, 131853, Control_c, 0, 67, 73
1, 131868, Control_c, 0, 64, 73
1, 131868, Control_c, 0, 67, 70
1, 131883, Control_c, 0, 64, 71
1, 131883, Control_c, 0, 67, 66
1, 131884, Note_on_c, 0, 73, 72
1, 131897, Control_c, 0, 64, 66
1, 131897, Control_c, 0, 67, 61
1, 131907, Note_on_c, 0, 52, 53
1, 131908, Note_on_c, 0, 55, 52
1, 131912, Control_c, 0, 64, 57
1, 131912, Control_c, 0, 67, 56
1, 131935, Note_on_c, 0, 75, 70
1, 131935, Control_c, 0, 64, 0
1, 131935, Control_c, 0, 67, 48
1, 131944, Note_off_c, 0, 73, 62
1, 131950, Control_c, 0, 67, 41
1, 131965, Control_c, 0, 67, 33
1, 131979, Control_c, 0, 67, 25
1, 131994, Control_c, 0, 67, 16
1, 131998, Note_on_c, 0, 73, 62
1, 132001, Note_off_c, 0, 75, 65
1, 132009, Control_c, 0, 67, 0
1, 132208, Note_on_c, 0, 72, 66
1, 132211, Note_off_c, 0, 73, 62
1, 132578, Note_on_c, 0, 85, 64
1, 132661, Control_c, 0, 64, 28
1, 132683, Control_c, 0, 64, 49
1, 132698, Control_c, 0, 64, 59
1, 132713, Control_c, 0, 64, 64
1, 132728, Control_c, 0, 64, 67
1, 132743, Control_c, 0, 64, 70
1, 132758, Control_c, 0, 64, 74
1, 132773, Control_c, 0, 64, 78
1, 132787, Control_c, 0, 64, 82
1, 132802, Control_c, 0, 64, 84
1, 132802, Control_c, 0, 67, 14
1, 132817, Control_c, 0, 64, 86
1, 132817, Control_c, 0, 67, 33
1, 132832, Control_c, 0, 64, 88
1, 132832, Control_c, 0, 67, 48
1, 132847, Control_c, 0, 64, 89
1, 132847, Control_c, 0, 67, 63
1, 132861, Control_c, 0, 64, 89
1, 132861, Control_c, 0, 67, 76
1, 132864, Note_off_c, 0, 72, 36
1, 132876, Control_c, 0, 67, 89
1, 132891, Control_c, 0, 64, 90
1, 132891, Control_c, 0, 67, 104
1, 132905, Note_on_c, 0, 82, 62
1, 132906, Control_c, 0, 67, 118
1, 132921, Control_c, 0, 67, 127
1, 133050, Note_on_c, 0, 79, 51
1, 133110, Note_off_c, 0, 82, 51
1, 133113, Control_c, 0, 64, 89
1, 133136, Note_off_c, 0, 85, 38
1, 133142, Control_c, 0, 64, 88
1, 133154, Note_off_c, 0, 79, 57
1, 133157, Control_c, 0, 64, 87
1, 133172, Control_c, 0, 64, 86
1, 133187, Control_c, 0, 64, 84
1, 133197, Note_on_c, 0, 76, 57
1, 133202, Control_c, 0, 64, 81
1, 133206, Note_on_c, 0, 58, 39
1, 133217, Note_on_c, 0, 48, 44
1, 133217, Control_c, 0, 64, 78
1, 133233, Control_c, 0, 64, 74
1, 133248, Control_c, 0, 64, 71
1, 133263, Control_c, 0, 64, 67
1, 133277, Note_off_c, 0, 52, 35
1, 133277, Control_c, 0, 64, 63
1, 133292, Control_c, 0, 64, 56
1, 133307, Control_c, 0, 64, 41
1, 133322, Control_c, 0, 64, 25
1, 133329, Note_off_c, 0, 55, 33
1, 133330, Note_on_c, 0, 79, 59
1, 133337, Control_c, 0, 64, 14
1, 133351, Control_c, 0, 64, 10
1, 133355, Note_off_c, 0, 76, 52
1, 133366, Control_c, 0, 64, 8
1, 133381, Control_c, 0, 64, 0
1, 133475, Note_on_c, 0, 76, 69
1, 133530, Note_off_c, 0, 79, 54
1, 133590, Note_off_c, 0, 76, 64
1, 133598, Note_on_c, 0, 73, 69
1, 133708, Note_off_c, 0, 73, 60
1, 133736, Note_on_c, 0, 72, 63
1, 133862, Note_on_c, 0, 73, 59
1, 133897, Note_off_c, 0, 72, 63
1, 133937, Control_c, 0, 64, 41
1, 133951, Control_c, 0, 64, 57
1, 133956, Note_off_c, 0, 58, 63
1, 133966, Control_c, 0, 64, 64
1, 133980, Control_c, 0, 64, 68
1, 133995, Control_c, 0, 64, 71
1, 134002, Note_on_c, 0, 70, 59
1, 134010, Control_c, 0, 64, 74
1, 134025, Control_c, 0, 64, 75
1, 134040, Control_c, 0, 64, 77
1, 134044, Note_off_c, 0, 48, 62
1, 134070, Control_c, 0, 64, 77
1, 134121, Note_on_c, 0, 67, 55
1, 134191, Note_off_c, 0, 70, 34
1, 134218, Note_off_c, 0, 67, 60
1, 134239, Control_c, 0, 64, 77
1, 134254, Control_c, 0, 64, 76
1, 134263, Note_off_c, 0, 73, 18
1, 134269, Control_c, 0, 64, 74
1, 134281, Note_on_c, 0, 41, 52
1, 134281, Note_on_c, 0, 65, 59
1, 134284, Control_c, 0, 64, 72
1, 134299, Control_c, 0, 64, 69
1, 134314, Control_c, 0, 64, 65
1, 134329, Control_c, 0, 64, 61
1, 134344, Control_c, 0, 64, 50
1, 134356, Note_off_c, 0, 65, 56
1, 134356, Note_on_c, 0, 72, 55
1, 134358, Control_c, 0, 64, 18
1, 134373, Control_c, 0, 64, 0
1, 134391, Note_off_c, 0, 72, 65
1, 134407, Note_on_c, 0, 68, 58
1, 134439, Note_off_c, 0, 68, 66
1, 134475, Note_on_c, 0, 72, 62
1, 134508, Note_off_c, 0, 72, 62
1, 134532, Note_on_c, 0, 68, 67
1, 134558, Note_off_c, 0, 68, 67
1, 134585, Note_on_c, 0, 72, 53
1, 134622, Note_off_c, 0, 72, 62
1, 134654, Note_on_c, 0, 68, 59
1, 134675, Note_off_c, 0, 68, 63
1, 134705, Note_on_c, 0, 72, 52
1, 134734, Note_off_c, 0, 72, 59
1, 134749, Note_on_c, 0, 68, 65
1, 134782, Note_off_c, 0, 68, 62
1, 134788, Control_c, 0, 64, 32
1, 134803, Control_c, 0, 64, 49
1, 134804, Note_off_c, 0, 41, 63
1, 134818, Note_on_c, 0, 72, 60
1, 134818, Control_c, 0, 64, 56
1, 134833, Control_c, 0, 64, 59
1, 134848, Control_c, 0, 64, 60
1, 134851, Note_off_c, 0, 72, 64
1, 134862, Control_c, 0, 64, 61
1, 134895, Note_on_c, 0, 68, 42
1, 134907, Control_c, 0, 64, 61
1, 134929, Control_c, 0, 64, 62
1, 134931, Note_off_c, 0, 68, 56
1, 134946, Note_on_c, 0, 72, 44
1, 134973, Control_c, 0, 64, 61
1, 134985, Note_off_c, 0, 72, 51
1, 134988, Control_c, 0, 64, 60
1, 135003, Control_c, 0, 64, 57
1, 135007, Note_on_c, 0, 68, 57
1, 135018, Control_c, 0, 64, 54
1, 135028, Note_on_c, 0, 56, 59
1, 135033, Control_c, 0, 64, 53
1, 135045, Note_off_c, 0, 68, 62
1, 135047, Control_c, 0, 64, 55
1, 135062, Control_c, 0, 64, 57
1, 135077, Note_on_c, 0, 72, 47
1, 135077, Control_c, 0, 64, 59
1, 135092, Control_c, 0, 64, 61
1, 135105, Note_off_c, 0, 56, 63
1, 135107, Control_c, 0, 64, 62
1, 135110, Note_off_c, 0, 72, 55
1, 135166, Control_c, 0, 64, 61
1, 135168, Note_on_c, 0, 68, 23
1, 135181, Control_c, 0, 64, 61
1, 135196, Control_c, 0, 64, 60
1, 135202, Note_on_c, 0, 72, 60
1, 135205, Note_off_c, 0, 68, 53
1, 135211, Control_c, 0, 64, 59
1, 135216, Note_on_c, 0, 55, 50
1, 135226, Control_c, 0, 64, 55
1, 135238, Note_off_c, 0, 72, 61
1, 135241, Control_c, 0, 64, 46
1, 135248, Note_off_c, 0, 55, 65
1, 135252, Note_on_c, 0, 56, 63
1, 135255, Control_c, 0, 64, 14
1, 135270, Control_c, 0, 64, 0
1, 135279, Note_on_c, 0, 68, 50
1, 135311, Note_on_c, 0, 55, 57
1, 135315, Note_off_c, 0, 68, 62
1, 135333, Note_on_c, 0, 72, 49
1, 135337, Note_off_c, 0, 56, 59
1, 135381, Note_off_c, 0, 72, 60
1, 135406, Note_on_c, 0, 68, 57
1, 135441, Note_off_c, 0, 68, 64
1, 135469, Note_on_c, 0, 72, 44
1, 135516, Note_off_c, 0, 72, 50
1, 135542, Note_on_c, 0, 68, 60
1, 135569, Note_on_c, 0, 53, 62
1, 135573, Note_off_c, 0, 68, 64
1, 135599, Note_on_c, 0, 72, 48
1, 135606, Note_off_c, 0, 55, 63
1, 135655, Note_off_c, 0, 72, 58
1, 135676, Note_on_c, 0, 68, 60
1, 135708, Note_off_c, 0, 68, 64
1, 135754, Note_on_c, 0, 72, 44
1, 135825, Note_off_c, 0, 72, 61
1, 135831, Note_on_c, 0, 68, 62
1, 135837, Note_on_c, 0, 60, 72
1, 135852, Note_off_c, 0, 53, 55
1, 135875, Note_off_c, 0, 68, 57
1, 135920, Note_on_c, 0, 72, 37
1, 135968, Note_off_c, 0, 72, 48
1, 135986, Note_on_c, 0, 68, 56
1, 136013, Note_off_c, 0, 68, 62
1, 136049, Control_c, 0, 64, 46
1, 136064, Control_c, 0, 64, 59
1, 136067, Note_on_c, 0, 72, 31
1, 136078, Control_c, 0, 64, 64
1, 136093, Control_c, 0, 64, 66
1, 136108, Control_c, 0, 64, 67
1, 136111, Note_on_c, 0, 68, 54
1, 136111, Note_on_c, 0, 56, 60
1, 136117, Note_off_c, 0, 72, 48
1, 136122, Control_c, 0, 64, 69
1, 136137, Control_c, 0, 64, 71
1, 136152, Control_c, 0, 64, 74
1, 136156, Note_off_c, 0, 68, 56
1, 136167, Note_off_c, 0, 60, 57
1, 136167, Control_c, 0, 64, 75
1, 136182, Control_c, 0, 64, 76
1, 136200, Note_on_c, 0, 72, 47
1, 136211, Control_c, 0, 64, 76
1, 136222, Note_on_c, 0, 53, 65
1, 136228, Note_off_c, 0, 56, 62
1, 136230, Note_off_c, 0, 72, 52
1, 136277, Note_off_c, 0, 53, 65
1, 136278, Note_on_c, 0, 68, 46
1, 136303, Note_off_c, 0, 68, 58
1, 136329, Note_on_c, 0, 72, 51
1, 136359, Control_c, 0, 64, 75
1, 136368, Note_on_c, 0, 48, 73
1, 136368, Note_off_c, 0, 72, 61
1, 136372, Note_on_c, 0, 68, 67
1, 136374, Control_c, 0, 64, 72
1, 136389, Control_c, 0, 64, 68
1, 136405, Control_c, 0, 64, 63
1, 136426, Note_off_c, 0, 68, 58
1, 136427, Control_c, 0, 64, 52
1, 136442, Control_c, 0, 64, 10
1, 136457, Control_c, 0, 64, 0
1, 136463, Note_on_c, 0, 72, 55
1, 136496, Note_off_c, 0, 72, 60
1, 136535, Note_on_c, 0, 68, 43
1, 136561, Note_off_c, 0, 68, 57
1, 136579, Note_on_c, 0, 72, 50
1, 136618, Note_off_c, 0, 72, 61
1, 136619, Control_c, 0, 64, 8
1, 136627, Note_on_c, 0, 68, 68
1, 136634, Control_c, 0, 64, 20
1, 136649, Control_c, 0, 64, 24
1, 136651, Note_on_c, 0, 44, 57
1, 136660, Note_off_c, 0, 68, 62
1, 136664, Control_c, 0, 64, 25
1, 136693, Note_on_c, 0, 72, 58
1, 136723, Control_c, 0, 64, 23
1, 136731, Note_off_c, 0, 72, 62
1, 136738, Control_c, 0, 64, 23
1, 136752, Control_c, 0, 64, 21
1, 136756, Note_on_c, 0, 68, 66
1, 136761, Note_on_c, 0, 41, 61
1, 136767, Control_c, 0, 64, 20
1, 136782, Note_off_c, 0, 44, 53
1, 136782, Note_off_c, 0, 68, 66
1, 136782, Control_c, 0, 64, 19
1, 136797, Control_c, 0, 64, 17
1, 136805, Note_on_c, 0, 72, 56
1, 136812, Control_c, 0, 64, 12
1, 136827, Control_c, 0, 64, 0
1, 136831, Note_off_c, 0, 48, 37
1, 136860, Note_off_c, 0, 72, 59
1, 136866, Note_off_c, 0, 41, 61
1, 136873, Note_on_c, 0, 68, 63
1, 136891, Note_on_c, 0, 36, 65
1, 136916, Note_off_c, 0, 68, 58
1, 136926, Note_on_c, 0, 72, 53
1, 136992, Note_on_c, 0, 68, 67
1, 136992, Note_off_c, 0, 72, 63
1, 137024, Note_on_c, 0, 41, 58
1, 137038, Note_off_c, 0, 68, 58
1, 137042, Note_on_c, 0, 72, 57
1, 137067, Note_off_c, 0, 36, 63
1, 137110, Note_off_c, 0, 72, 64
1, 137113, Note_on_c, 0, 68, 69
1, 137114, Note_off_c, 0, 41, 65
1, 137131, Note_on_c, 0, 43, 69
1, 137173, Note_on_c, 0, 72, 63
1, 137176, Note_off_c, 0, 68, 64
1, 137247, Note_on_c, 0, 68, 65
1, 137247, Note_off_c, 0, 72, 64
1, 137259, Note_off_c, 0, 43, 61
1, 137263, Note_on_c, 0, 44, 67
1, 137298, Note_off_c, 0, 68, 61
1, 137301, Note_on_c, 0, 72, 56
1, 137374, Note_off_c, 0, 72, 62
1, 137381, Note_on_c, 0, 68, 66
1, 137381, Note_on_c, 0, 46, 72
1, 137429, Note_off_c, 0, 44, 61
1, 137429, Note_off_c, 0, 68, 58
1, 137437, Note_on_c, 0, 72, 61
1, 137492, Note_off_c, 0, 46, 63
1, 137499, Note_on_c, 0, 48, 68
1, 137502, Note_off_c, 0, 72, 64
1, 137506, Note_on_c, 0, 68, 69
1, 137561, Note_on_c, 0, 72, 58
1, 137563, Note_off_c, 0, 68, 63
1, 137628, Note_on_c, 0, 68, 64
1, 137631, Note_off_c, 0, 72, 64
1, 137640, Note_on_c, 0, 52, 74
1, 137647, Note_off_c, 0, 48, 58
1, 137682, Note_off_c, 0, 68, 64
1, 137684, Note_on_c, 0, 72, 59
1, 137747, Note_off_c, 0, 72, 64
1, 137754, Note_on_c, 0, 68, 65
1, 137755, Note_on_c, 0, 53, 72
1, 137805, Note_off_c, 0, 52, 60
1, 137808, Note_off_c, 0, 68, 63
1, 137811, Note_on_c, 0, 72, 66
1, 137828, Control_c, 0, 67, 127
1, 137842, Control_c, 0, 67, 121
1, 137857, Control_c, 0, 67, 113
1, 137872, Control_c, 0, 64, 19
1, 137872, Control_c, 0, 67, 104
1, 137887, Control_c, 0, 64, 29
1, 137887, Control_c, 0, 67, 95
1, 137888, Note_on_c, 0, 55, 75
1, 137894, Note_off_c, 0, 53, 63
1, 137897, Note_on_c, 0, 68, 69
1, 137897, Note_off_c, 0, 72, 64
1, 137902, Control_c, 0, 64, 33
1, 137902, Control_c, 0, 67, 91
1, 137924, Control_c, 0, 64, 34
1, 137924, Control_c, 0, 67, 89
1, 137939, Control_c, 0, 64, 35
1, 137952, Note_off_c, 0, 68, 60
1, 137954, Control_c, 0, 64, 38
1, 137959, Note_on_c, 0, 72, 62
1, 137968, Control_c, 0, 64, 41
1, 137968, Control_c, 0, 67, 88
1, 137983, Control_c, 0, 64, 43
1, 137998, Control_c, 0, 64, 44
1, 138013, Control_c, 0, 64, 44
1, 138027, Note_on_c, 0, 56, 69
1, 138027, Note_off_c, 0, 72, 63
1, 138028, Control_c, 0, 64, 46
1, 138028, Control_c, 0, 67, 89
1, 138034, Note_on_c, 0, 68, 74
1, 138041, Note_off_c, 0, 55, 58
1, 138043, Control_c, 0, 64, 48
1, 138043, Control_c, 0, 67, 90
1, 138058, Control_c, 0, 64, 52
1, 138058, Control_c, 0, 67, 91
1, 138073, Control_c, 0, 64, 57
1, 138073, Control_c, 0, 67, 91
1, 138081, Note_off_c, 0, 68, 60
1, 138088, Control_c, 0, 64, 61
1, 138088, Control_c, 0, 67, 93
1, 138090, Note_on_c, 0, 72, 56
1, 138103, Control_c, 0, 64, 62
1, 138103, Control_c, 0, 67, 95
1, 138118, Control_c, 0, 64, 63
1, 138118, Control_c, 0, 67, 96
1, 138132, Control_c, 0, 64, 64
1, 138132, Control_c, 0, 67, 98
1, 138147, Control_c, 0, 64, 65
1, 138147, Control_c, 0, 67, 99
1, 138150, Note_on_c, 0, 58, 72
1, 138156, Note_off_c, 0, 72, 64
1, 138162, Control_c, 0, 64, 67
1, 138162, Control_c, 0, 67, 101
1, 138167, Note_on_c, 0, 68, 68
1, 138177, Control_c, 0, 64, 68
1, 138177, Control_c, 0, 67, 105
1, 138183, Note_off_c, 0, 56, 62
1, 138192, Control_c, 0, 64, 69
1, 138192, Control_c, 0, 67, 110
1, 138205, Note_off_c, 0, 68, 57
1, 138206, Control_c, 0, 67, 114
1, 138216, Note_on_c, 0, 72, 62
1, 138221, Control_c, 0, 64, 69
1, 138221, Control_c, 0, 67, 119
1, 138236, Control_c, 0, 67, 123
1, 138247, Note_off_c, 0, 58, 61
1, 138251, Control_c, 0, 67, 127
1, 138264, Note_on_c, 0, 60, 65
1, 138266, Control_c, 0, 67, 127
1, 138282, Note_off_c, 0, 72, 61
1, 138299, Note_on_c, 0, 68, 71
1, 138325, Note_off_c, 0, 68, 64
1, 138354, Note_on_c, 0, 72, 58
1, 138413, Control_c, 0, 64, 68
1, 138428, Control_c, 0, 64, 66
1, 138443, Control_c, 0, 64, 61
1, 138444, Note_on_c, 0, 49, 76
1, 138444, Note_on_c, 0, 68, 70
1, 138446, Note_off_c, 0, 72, 36
1, 138458, Control_c, 0, 64, 35
1, 138472, Control_c, 0, 64, 0
1, 138506, Note_off_c, 0, 68, 63
1, 138511, Note_off_c, 0, 60, 32
1, 138518, Note_on_c, 0, 72, 63
1, 138562, Control_c, 0, 64, 43
1, 138574, Note_off_c, 0, 72, 61
1, 138577, Control_c, 0, 64, 58
1, 138588, Note_on_c, 0, 68, 68
1, 138591, Control_c, 0, 64, 60
1, 138621, Note_off_c, 0, 68, 63
1, 138636, Control_c, 0, 64, 61
1, 138639, Note_on_c, 0, 72, 55
1, 138651, Control_c, 0, 64, 61
1, 138687, Control_c, 0, 64, 62
1, 138706, Note_off_c, 0, 72, 61
1, 138713, Note_on_c, 0, 68, 63
1, 138739, Note_off_c, 0, 68, 67
1, 138747, Control_c, 0, 64, 62
1, 138758, Note_on_c, 0, 72, 51
1, 138761, Control_c, 0, 64, 63
1, 138776, Control_c, 0, 64, 63
1, 138810, Note_off_c, 0, 72, 62
1, 138821, Control_c, 0, 64, 64
1, 138831, Note_on_c, 0, 68, 55
1, 138851, Control_c, 0, 64, 64
1, 138879, Note_on_c, 0, 72, 61
1, 138881, Control_c, 0, 64, 65
1, 138911, Note_off_c, 0, 72, 67
1, 138931, Note_off_c, 0, 68, 38
1, 138955, Control_c, 0, 64, 63
1, 138970, Control_c, 0, 64, 61
1, 138972, Note_on_c, 0, 67, 64
1, 138985, Control_c, 0, 64, 53
1, 139000, Control_c, 0, 64, 30
1, 139015, Control_c, 0, 64, 0
1, 139023, Note_off_c, 0, 67, 45
1, 139039, Note_on_c, 0, 70, 60
1, 139099, Note_off_c, 0, 70, 62
1, 139107, Note_on_c, 0, 67, 58
1, 139170, Note_on_c, 0, 70, 58
1, 139177, Note_off_c, 0, 67, 43
1, 139207, Note_off_c, 0, 70, 63
1, 139221, Control_c, 0, 64, 24
1, 139235, Note_on_c, 0, 65, 58
1, 139236, Control_c, 0, 64, 43
1, 139251, Control_c, 0, 64, 52
1, 139266, Control_c, 0, 64, 55
1, 139270, Note_off_c, 0, 65, 61
1, 139281, Control_c, 0, 64, 56
1, 139295, Control_c, 0, 64, 56
1, 139297, Note_on_c, 0, 68, 61
1, 139310, Control_c, 0, 64, 57
1, 139325, Control_c, 0, 64, 59
1, 139334, Note_off_c, 0, 68, 61
1, 139340, Control_c, 0, 64, 60
1, 139350, Note_on_c, 0, 65, 67
1, 139355, Control_c, 0, 64, 61
1, 139421, Control_c, 0, 64, 60
1, 139430, Note_off_c, 0, 65, 51
1, 139435, Note_on_c, 0, 68, 62
1, 139436, Control_c, 0, 64, 60
1, 139451, Control_c, 0, 64, 59
1, 139465, Note_off_c, 0, 68, 63
1, 139466, Control_c, 0, 64, 57
1, 139481, Control_c, 0, 64, 50
1, 139491, Note_on_c, 0, 64, 65
1, 139495, Control_c, 0, 64, 33
1, 139510, Control_c, 0, 64, 0
1, 139551, Note_off_c, 0, 64, 61
1, 139554, Note_on_c, 0, 67, 63
1, 139569, Control_c, 0, 64, 32
1, 139584, Control_c, 0, 64, 46
1, 139591, Note_off_c, 0, 67, 60
1, 139597, Note_on_c, 0, 64, 48
1, 139600, Control_c, 0, 64, 53
1, 139615, Control_c, 0, 64, 55
1, 139644, Control_c, 0, 64, 55
1, 139659, Control_c, 0, 64, 57
1, 139674, Note_off_c, 0, 64, 62
1, 139674, Control_c, 0, 64, 57
1, 139675, Note_on_c, 0, 67, 63
1, 139704, Control_c, 0, 64, 55
1, 139706, Note_off_c, 0, 67, 64
1, 139718, Control_c, 0, 64, 52
1, 139733, Control_c, 0, 64, 47
1, 139745, Note_on_c, 0, 65, 68
1, 139748, Control_c, 0, 64, 39
1, 139763, Control_c, 0, 64, 22
1, 139778, Control_c, 0, 64, 0
1, 139809, Note_off_c, 0, 65, 60
1, 139821, Note_on_c, 0, 68, 50
1, 139856, Note_off_c, 0, 68, 66
1, 139861, Note_on_c, 0, 65, 48
1, 139927, Note_off_c, 0, 65, 58
1, 139942, Note_on_c, 0, 68, 55
1, 139963, Note_off_c, 0, 68, 62
1, 139996, Note_on_c, 0, 67, 68
1, 140015, Control_c, 0, 64, 19
1, 140030, Control_c, 0, 64, 37
1, 140044, Control_c, 0, 64, 50
1, 140059, Control_c, 0, 64, 57
1, 140062, Note_off_c, 0, 67, 60
1, 140074, Note_on_c, 0, 70, 60
1, 140074, Control_c, 0, 64, 61
1, 140089, Control_c, 0, 64, 62
1, 140094, Note_off_c, 0, 70, 66
1, 140104, Control_c, 0, 64, 63
1, 140116, Note_on_c, 0, 67, 58
1, 140133, Control_c, 0, 64, 63
1, 140170, Control_c, 0, 64, 64
1, 140183, Note_off_c, 0, 67, 53
1, 140185, Control_c, 0, 64, 64
1, 140187, Note_on_c, 0, 70, 53
1, 140215, Control_c, 0, 64, 64
1, 140225, Note_off_c, 0, 70, 59
1, 140230, Control_c, 0, 64, 62
1, 140244, Control_c, 0, 64, 58
1, 140259, Control_c, 0, 64, 50
1, 140266, Note_on_c, 0, 65, 55
1, 140274, Control_c, 0, 64, 44
1, 140289, Control_c, 0, 64, 46
1, 140293, Note_off_c, 0, 65, 62
1, 140303, Control_c, 0, 64, 49
1, 140318, Control_c, 0, 64, 53
1, 140333, Control_c, 0, 64, 57
1, 140337, Note_on_c, 0, 71, 38
1, 140348, Control_c, 0, 64, 60
1, 140363, Control_c, 0, 64, 61
1, 140365, Note_off_c, 0, 71, 57
1, 140371, Note_on_c, 0, 65, 61
1, 140401, Note_off_c, 0, 65, 65
1, 140434, Note_off_c, 0, 49, 59
1, 140438, Control_c, 0, 64, 62
1, 140446, Note_on_c, 0, 71, 54
1, 140467, Note_off_c, 0, 71, 64
1, 140497, Control_c, 0, 64, 61
1, 140512, Control_c, 0, 64, 60
1, 140523, Note_on_c, 0, 48, 60
1, 140523, Note_on_c, 0, 64, 56
1, 140527, Control_c, 0, 64, 59
1, 140541, Control_c, 0, 64, 54
1, 140556, Control_c, 0, 64, 40
1, 140564, Note_off_c, 0, 64, 59
1, 140571, Control_c, 0, 64, 0
1, 140586, Note_on_c, 0, 72, 58
1, 140626, Note_off_c, 0, 72, 60
1, 140675, Control_c, 0, 64, 36
1, 140687, Note_on_c, 0, 64, 23
1, 140690, Control_c, 0, 64, 56
1, 140705, Control_c, 0, 64, 62
1, 140715, Note_on_c, 0, 72, 62
1, 140720, Control_c, 0, 64, 64
1, 140726, Note_off_c, 0, 64, 46
1, 140750, Control_c, 0, 64, 65
1, 140753, Note_off_c, 0, 72, 61
1, 140765, Control_c, 0, 64, 66
1, 140778, Note_on_c, 0, 64, 43
1, 140780, Control_c, 0, 64, 67
1, 140794, Control_c, 0, 64, 69
1, 140809, Control_c, 0, 64, 69
1, 140816, Note_off_c, 0, 64, 61
1, 140845, Note_on_c, 0, 72, 49
1, 140861, Note_off_c, 0, 48, 60
1, 140875, Note_off_c, 0, 72, 66
1, 140883, Control_c, 0, 64, 70
1, 140918, Note_on_c, 0, 64, 53
1, 140945, Note_off_c, 0, 64, 55
1, 140967, Note_on_c, 0, 72, 64
1, 141033, Note_off_c, 0, 72, 63
1, 141061, Note_on_c, 0, 64, 55
1, 141068, Control_c, 0, 64, 68
1, 141078, Note_on_c, 0, 61, 77
1, 141083, Control_c, 0, 64, 64
1, 141098, Control_c, 0, 64, 46
1, 141113, Control_c, 0, 64, 0
1, 141128, Note_off_c, 0, 64, 62
1, 141139, Note_on_c, 0, 70, 66
1, 141187, Control_c, 0, 64, 41
1, 141193, Note_off_c, 0, 70, 60
1, 141203, Control_c, 0, 64, 63
1, 141217, Control_c, 0, 64, 69
1, 141230, Note_on_c, 0, 64, 47
1, 141232, Control_c, 0, 64, 71
1, 141247, Control_c, 0, 64, 72
1, 141256, Note_off_c, 0, 64, 59
1, 141262, Control_c, 0, 64, 73
1, 141277, Control_c, 0, 64, 76
1, 141277, Note_on_c, 0, 70, 60
1, 141291, Control_c, 0, 64, 80
1, 141306, Control_c, 0, 64, 85
1, 141321, Control_c, 0, 64, 89
1, 141326, Note_off_c, 0, 61, 63
1, 141334, Note_off_c, 0, 70, 61
1, 141335, Control_c, 0, 64, 92
1, 141339, Note_on_c, 0, 64, 68
1, 141342, Note_on_c, 0, 58, 51
1, 141350, Control_c, 0, 64, 94
1, 141365, Control_c, 0, 64, 95
1, 141380, Control_c, 0, 64, 96
1, 141394, Note_off_c, 0, 64, 63
1, 141395, Control_c, 0, 64, 97
1, 141401, Note_off_c, 0, 58, 59
1, 141410, Note_on_c, 0, 70, 54
1, 141453, Note_on_c, 0, 55, 60
1, 141454, Control_c, 0, 64, 97
1, 141456, Note_on_c, 0, 64, 61
1, 141479, Note_off_c, 0, 70, 43
1, 141483, Control_c, 0, 64, 98
1, 141484, Note_off_c, 0, 55, 66
1, 141493, Note_off_c, 0, 64, 64
1, 141528, Control_c, 0, 64, 98
1, 141572, Control_c, 0, 64, 98
1, 141587, Control_c, 0, 64, 91
1, 141597, Note_on_c, 0, 64, 77
1, 141602, Note_on_c, 0, 36, 73
1, 141602, Control_c, 0, 64, 79
1, 141617, Control_c, 0, 64, 66
1, 141632, Control_c, 0, 64, 54
1, 141647, Control_c, 0, 64, 21
1, 141651, Note_off_c, 0, 64, 65
1, 141663, Note_on_c, 0, 67, 70
1, 141669, Control_c, 0, 64, 10
1, 141684, Control_c, 0, 64, 35
1, 141698, Control_c, 0, 64, 50
1, 141713, Control_c, 0, 64, 58
1, 141724, Note_on_c, 0, 64, 65
1, 141728, Control_c, 0, 64, 60
1, 141742, Control_c, 0, 64, 61
1, 141760, Note_off_c, 0, 67, 38
1, 141770, Note_off_c, 0, 64, 57
1, 141772, Control_c, 0, 64, 61
1, 141787, Note_on_c, 0, 70, 69
1, 141787, Control_c, 0, 64, 62
1, 141802, Control_c, 0, 64, 62
1, 141811, Note_off_c, 0, 70, 71
1, 141832, Control_c, 0, 64, 61
1, 141847, Control_c, 0, 64, 55
1, 141862, Control_c, 0, 64, 34
1, 141866, Note_on_c, 0, 67, 71
1, 141876, Control_c, 0, 64, 0
1, 141921, Control_c, 0, 64, 20
1, 141930, Note_off_c, 0, 67, 60
1, 141936, Control_c, 0, 64, 54
1, 141948, Note_on_c, 0, 70, 54
1, 141950, Control_c, 0, 64, 63
1, 141965, Control_c, 0, 64, 65
1, 141989, Note_on_c, 0, 67, 59
1, 141996, Note_off_c, 0, 70, 53
1, 142011, Control_c, 0, 64, 66
1, 142024, Note_off_c, 0, 67, 62
1, 142026, Control_c, 0, 64, 68
1, 142040, Control_c, 0, 64, 72
1, 142041, Note_on_c, 0, 73, 68
1, 142055, Control_c, 0, 64, 77
1, 142068, Note_off_c, 0, 73, 63
1, 142070, Control_c, 0, 64, 79
1, 142100, Control_c, 0, 64, 79
1, 142114, Control_c, 0, 64, 73
1, 142129, Control_c, 0, 64, 66
1, 142131, Note_on_c, 0, 70, 81
1, 142144, Control_c, 0, 64, 58
1, 142159, Control_c, 0, 64, 47
1, 142173, Control_c, 0, 64, 49
1, 142184, Note_off_c, 0, 70, 64
1, 142188, Control_c, 0, 64, 55
1, 142191, Note_on_c, 0, 73, 66
1, 142203, Control_c, 0, 64, 61
1, 142217, Control_c, 0, 64, 63
1, 142231, Control_c, 0, 64, 64
1, 142241, Note_off_c, 0, 73, 55
1, 142246, Control_c, 0, 64, 65
1, 142258, Note_on_c, 0, 70, 66
1, 142261, Control_c, 0, 64, 66
1, 142276, Control_c, 0, 64, 69
1, 142291, Control_c, 0, 64, 73
1, 142292, Note_on_c, 0, 76, 54
1, 142298, Note_off_c, 0, 70, 60
1, 142306, Control_c, 0, 64, 78
1, 142321, Control_c, 0, 64, 82
1, 142327, Note_off_c, 0, 76, 66
1, 142336, Control_c, 0, 64, 85
1, 142350, Control_c, 0, 64, 86
1, 142365, Control_c, 0, 64, 87
1, 142385, Note_on_c, 0, 73, 75
1, 142395, Control_c, 0, 64, 84
1, 142417, Control_c, 0, 64, 75
1, 142432, Control_c, 0, 64, 65
1, 142446, Control_c, 0, 64, 52
1, 142454, Note_on_c, 0, 76, 69
1, 142461, Note_off_c, 0, 73, 62
1, 142461, Control_c, 0, 64, 38
1, 142476, Control_c, 0, 64, 46
1, 142491, Control_c, 0, 64, 58
1, 142505, Control_c, 0, 64, 64
1, 142520, Control_c, 0, 64, 68
1, 142526, Note_on_c, 0, 73, 70
1, 142529, Note_off_c, 0, 76, 62
1, 142535, Control_c, 0, 64, 71
1, 142540, Note_on_c, 0, 79, 48
1, 142550, Control_c, 0, 64, 74
1, 142565, Control_c, 0, 64, 77
1, 142565, Note_off_c, 0, 73, 59
1, 142580, Control_c, 0, 64, 80
1, 142595, Control_c, 0, 64, 85
1, 142601, Note_off_c, 0, 79, 50
1, 142610, Control_c, 0, 64, 92
1, 142625, Control_c, 0, 64, 102
1, 142639, Control_c, 0, 64, 110
1, 142665, Note_on_c, 0, 76, 79
1, 142683, Control_c, 0, 64, 103
1, 142698, Control_c, 0, 64, 87
1, 142713, Control_c, 0, 64, 72
1, 142720, Note_off_c, 0, 76, 65
1, 142728, Control_c, 0, 64, 63
1, 142732, Note_on_c, 0, 79, 60
1, 142743, Control_c, 0, 64, 53
1, 142758, Control_c, 0, 64, 51
1, 142772, Control_c, 0, 64, 57
1, 142779, Note_off_c, 0, 79, 56
1, 142785, Note_on_c, 0, 76, 71
1, 142788, Control_c, 0, 64, 61
1, 142803, Control_c, 0, 64, 63
1, 142818, Control_c, 0, 64, 63
1, 142834, Note_on_c, 0, 82, 74
1, 142855, Note_off_c, 0, 76, 64
1, 142862, Control_c, 0, 64, 64
1, 142917, Note_on_c, 0, 80, 70
1, 142936, Control_c, 0, 64, 63
1, 142972, Note_off_c, 0, 82, 55
1, 142981, Control_c, 0, 64, 63
1, 142985, Note_on_c, 0, 79, 52
1, 142996, Note_off_c, 0, 80, 64
1, 143001, Note_on_c, 0, 77, 44
1, 143007, Note_off_c, 0, 79, 62
1, 143030, Note_off_c, 0, 77, 0
1, 143030, Note_on_c, 0, 77, 30
1, 143099, Note_on_c, 0, 76, 46
1, 143127, Note_off_c, 0, 76, 35
1, 143128, Control_c, 0, 64, 62
1, 143140, Note_off_c, 0, 36, 63
1, 143143, Control_c, 0, 64, 60
1, 143152, Note_on_c, 0, 75, 72
1, 143166, Control_c, 0, 64, 55
1, 143181, Control_c, 0, 64, 31
1, 143185, Note_off_c, 0, 77, 58
1, 143195, Control_c, 0, 64, 0
1, 143222, Note_off_c, 0, 75, 65
1, 143235, Note_on_c, 0, 73, 59
1, 143262, Note_off_c, 0, 73, 65
1, 143272, Note_on_c, 0, 72, 72
1, 143313, Control_c, 0, 67, 122
1, 143321, Note_on_c, 0, 36, 32
1, 143328, Control_c, 0, 67, 93
1, 143331, Note_off_c, 0, 72, 63
1, 143334, Note_on_c, 0, 70, 76
1, 143343, Control_c, 0, 67, 54
1, 143358, Control_c, 0, 67, 22
1, 143360, Note_off_c, 0, 36, 50
1, 143373, Control_c, 0, 67, 0
1, 143406, Note_on_c, 0, 68, 71
1, 143435, Note_on_c, 0, 36, 47
1, 143447, Note_off_c, 0, 70, 60
1, 143462, Note_on_c, 0, 67, 64
1, 143467, Note_off_c, 0, 36, 51
1, 143482, Note_off_c, 0, 68, 61
1, 143492, Note_off_c, 0, 67, 64
1, 143527, Note_on_c, 0, 65, 70
1, 143541, Note_on_c, 0, 36, 66
1, 143569, Note_off_c, 0, 36, 65
1, 143581, Note_off_c, 0, 65, 43
1, 143594, Note_on_c, 0, 64, 64
1, 143632, Note_off_c, 0, 64, 63
1, 143658, Note_on_c, 0, 36, 70
1, 143683, Note_on_c, 0, 65, 65
1, 143731, Note_off_c, 0, 65, 56
1, 143737, Note_on_c, 0, 68, 70
1, 143791, Note_off_c, 0, 68, 62
1, 143818, Note_on_c, 0, 65, 57
1, 143846, Note_off_c, 0, 65, 55
1, 143864, Control_c, 0, 64, 55
1, 143879, Control_c, 0, 64, 65
1, 143880, Note_on_c, 0, 68, 55
1, 143893, Control_c, 0, 64, 70
1, 143915, Control_c, 0, 64, 77
1, 143919, Note_off_c, 0, 68, 61
1, 143930, Control_c, 0, 64, 83
1, 143932, Note_on_c, 0, 65, 64
1, 143945, Control_c, 0, 64, 88
1, 143960, Control_c, 0, 64, 91
1, 143975, Control_c, 0, 64, 92
1, 143980, Note_off_c, 0, 65, 57
1, 143990, Control_c, 0, 64, 93
1, 143999, Note_off_c, 0, 36, 63
1, 144002, Note_on_c, 0, 68, 63
1, 144005, Control_c, 0, 64, 93
1, 144031, Note_off_c, 0, 68, 64
1, 144051, Note_on_c, 0, 65, 59
1, 144096, Note_off_c, 0, 65, 52
1, 144132, Note_on_c, 0, 68, 59
1, 144167, Control_c, 0, 64, 92
1, 144180, Note_off_c, 0, 68, 64
1, 144182, Control_c, 0, 64, 86
1, 144197, Control_c, 0, 64, 73
1, 144205, Note_on_c, 0, 65, 64
1, 144211, Control_c, 0, 64, 57
1, 144221, Note_on_c, 0, 60, 75
1, 144226, Control_c, 0, 64, 0
1, 144264, Note_off_c, 0, 65, 53
1, 144291, Note_on_c, 0, 68, 60
1, 144324, Note_off_c, 0, 68, 66
1, 144353, Note_on_c, 0, 65, 55
1, 144404, Note_off_c, 0, 65, 56
1, 144420, Control_c, 0, 67, 18
1, 144431, Note_on_c, 0, 68, 56
1, 144434, Control_c, 0, 67, 31
1, 144449, Control_c, 0, 67, 40
1, 144464, Control_c, 0, 67, 43
1, 144466, Note_off_c, 0, 68, 66
1, 144487, Note_on_c, 0, 65, 62
1, 144495, Note_on_c, 0, 56, 63
1, 144509, Control_c, 0, 64, 53
1, 144509, Control_c, 0, 67, 41
1, 144524, Control_c, 0, 64, 59
1, 144524, Control_c, 0, 67, 39
1, 144538, Control_c, 0, 64, 61
1, 144538, Control_c, 0, 67, 37
1, 144539, Note_off_c, 0, 65, 59
1, 144553, Control_c, 0, 64, 64
1, 144553, Control_c, 0, 67, 36
1, 144554, Note_on_c, 0, 68, 59
1, 144568, Control_c, 0, 64, 66
1, 144568, Control_c, 0, 67, 35
1, 144583, Control_c, 0, 64, 69
1, 144589, Note_off_c, 0, 56, 63
1, 144593, Note_off_c, 0, 60, 59
1, 144595, Note_on_c, 0, 53, 59
1, 144598, Control_c, 0, 64, 70
1, 144604, Note_on_c, 0, 65, 46
1, 144609, Note_off_c, 0, 68, 58
1, 144613, Control_c, 0, 64, 71
1, 144613, Control_c, 0, 67, 36
1, 144618, Note_off_c, 0, 53, 66
1, 144628, Control_c, 0, 64, 73
1, 144628, Control_c, 0, 67, 38
1, 144642, Control_c, 0, 64, 75
1, 144642, Control_c, 0, 67, 40
1, 144646, Note_off_c, 0, 65, 59
1, 144664, Control_c, 0, 64, 75
1, 144664, Control_c, 0, 67, 43
1, 144679, Control_c, 0, 67, 45
1, 144693, Control_c, 0, 64, 75
1, 144693, Control_c, 0, 67, 49
1, 144708, Control_c, 0, 64, 71
1, 144708, Control_c, 0, 67, 55
1, 144723, Control_c, 0, 64, 65
1, 144723, Control_c, 0, 67, 62
1, 144738, Control_c, 0, 64, 50
1, 144738, Control_c, 0, 67, 71
1, 144752, Note_on_c, 0, 36, 72
1, 144753, Control_c, 0, 64, 0
1, 144753, Control_c, 0, 67, 81
1, 144754, Note_on_c, 0, 65, 55
1, 144768, Control_c, 0, 67, 90
1, 144783, Control_c, 0, 67, 93
1, 144785, Note_off_c, 0, 65, 65
1, 144798, Control_c, 0, 67, 94
1, 144814, Note_on_c, 0, 68, 59
1, 144842, Control_c, 0, 67, 93
1, 144854, Note_on_c, 0, 65, 66
1, 144857, Control_c, 0, 67, 92
1, 144872, Control_c, 0, 67, 92
1, 144901, Control_c, 0, 67, 93
1, 144904, Note_off_c, 0, 68, 56
1, 144906, Note_off_c, 0, 65, 61
1, 144913, Note_on_c, 0, 72, 72
1, 144916, Control_c, 0, 67, 96
1, 144931, Control_c, 0, 67, 102
1, 144935, Note_off_c, 0, 72, 71
1, 144946, Control_c, 0, 67, 116
1, 144960, Control_c, 0, 67, 127
1, 145002, Note_on_c, 0, 68, 76
1, 145049, Control_c, 0, 64, 35
1, 145051, Note_on_c, 0, 72, 69
1, 145056, Note_off_c, 0, 68, 63
1, 145064, Control_c, 0, 64, 55
1, 145079, Control_c, 0, 64, 62
1, 145093, Control_c, 0, 64, 65
1, 145108, Control_c, 0, 64, 66
1, 145114, Note_on_c, 0, 68, 71
1, 145123, Control_c, 0, 64, 67
1, 145138, Control_c, 0, 64, 68
1, 145150, Note_off_c, 0, 72, 59
1, 145153, Control_c, 0, 64, 70
1, 145167, Control_c, 0, 64, 72
1, 145174, Note_off_c, 0, 68, 64
1, 145177, Note_on_c, 0, 77, 72
1, 145183, Control_c, 0, 64, 74
1, 145198, Control_c, 0, 64, 74
1, 145224, Note_off_c, 0, 77, 61
1, 145243, Control_c, 0, 64, 73
1, 145257, Control_c, 0, 64, 67
1, 145269, Note_on_c, 0, 72, 79
1, 145272, Control_c, 0, 64, 58
1, 145287, Control_c, 0, 64, 0
1, 145329, Note_on_c, 0, 77, 75
1, 145330, Note_off_c, 0, 72, 65
1, 145376, Control_c, 0, 64, 40
1, 145391, Control_c, 0, 64, 55
1, 145393, Note_on_c, 0, 72, 72
1, 145413, Control_c, 0, 64, 59
1, 145421, Note_off_c, 0, 77, 50
1, 145428, Control_c, 0, 64, 60
1, 145443, Control_c, 0, 64, 61
1, 145449, Note_off_c, 0, 72, 64
1, 145458, Control_c, 0, 64, 63
1, 145460, Note_on_c, 0, 80, 63
1, 145472, Control_c, 0, 64, 66
1, 145487, Control_c, 0, 64, 69
1, 145497, Note_off_c, 0, 80, 65
1, 145502, Control_c, 0, 64, 70
1, 145516, Control_c, 0, 64, 70
1, 145531, Control_c, 0, 64, 67
1, 145536, Note_on_c, 0, 77, 77
1, 145546, Control_c, 0, 64, 61
1, 145561, Control_c, 0, 64, 50
1, 145576, Control_c, 0, 64, 42
1, 145587, Note_off_c, 0, 77, 62
1, 145591, Control_c, 0, 64, 49
1, 145603, Note_on_c, 0, 81, 62
1, 145606, Control_c, 0, 64, 57
1, 145621, Control_c, 0, 64, 62
1, 145628, Note_off_c, 0, 81, 60
1, 145635, Control_c, 0, 64, 64
1, 145637, Note_on_c, 0, 77, 69
1, 145650, Control_c, 0, 64, 65
1, 145665, Control_c, 0, 64, 67
1, 145680, Control_c, 0, 64, 70
1, 145692, Note_off_c, 0, 77, 63
1, 145695, Control_c, 0, 64, 75
1, 145705, Note_on_c, 0, 84, 60
1, 145709, Control_c, 0, 64, 78
1, 145722, Note_off_c, 0, 84, 66
1, 145724, Control_c, 0, 64, 81
1, 145737, Poly_aftertouch_c, 0, 39, 127
1, 145739, Control_c, 0, 64, 82
1, 145781, Note_on_c, 0, 80, 89
1, 145783, Control_c, 0, 64, 79
1, 145798, Control_c, 0, 64, 72
1, 145813, Control_c, 0, 64, 63
1, 145828, Control_c, 0, 64, 10
1, 145841, Note_on_c, 0, 84, 71
1, 145843, Control_c, 0, 64, 0
1, 145847, Note_off_c, 0, 80, 64
1, 145897, Note_off_c, 0, 84, 65
1, 145901, Note_on_c, 0, 80, 63
1, 145902, Control_c, 0, 64, 40
1, 145916, Control_c, 0, 64, 52
1, 145931, Control_c, 0, 64, 56
1, 145934, Note_off_c, 0, 80, 62
1, 145936, Note_on_c, 0, 89, 73
1, 145946, Control_c, 0, 64, 57
1, 145976, Control_c, 0, 64, 57
1, 145991, Control_c, 0, 64, 58
1, 145999, Note_on_c, 0, 87, 78
1, 146005, Control_c, 0, 64, 58
1, 146050, Control_c, 0, 64, 59
1, 146065, Note_on_c, 0, 85, 78
1, 146065, Control_c, 0, 64, 60
1, 146080, Control_c, 0, 64, 61
1, 146082, Note_off_c, 0, 89, 56
1, 146094, Control_c, 0, 64, 62
1, 146096, Note_off_c, 0, 87, 62
1, 146109, Note_off_c, 0, 85, 63
1, 146124, Control_c, 0, 64, 63
1, 146126, Note_on_c, 0, 84, 77
1, 146139, Control_c, 0, 64, 63
1, 146161, Control_c, 0, 64, 64
1, 146174, Poly_aftertouch_c, 0, 39, 0
1, 146181, Note_off_c, 0, 84, 52
1, 146191, Control_c, 0, 64, 64
1, 146194, Note_on_c, 0, 82, 79
1, 146195, Note_off_c, 0, 36, 60
1, 146252, Note_on_c, 0, 80, 75
1, 146282, Note_off_c, 0, 82, 62
1, 146309, Control_c, 0, 64, 64
1, 146312, Note_off_c, 0, 80, 63
1, 146324, Control_c, 0, 67, 126
1, 146326, Note_on_c, 0, 79, 73
1, 146339, Control_c, 0, 64, 63
1, 146339, Control_c, 0, 67, 111
1, 146354, Control_c, 0, 64, 62
1, 146354, Control_c, 0, 67, 93
1, 146369, Control_c, 0, 64, 60
1, 146369, Control_c, 0, 67, 72
1, 146369, Note_on_c, 0, 36, 63
1, 146373, Note_on_c, 0, 77, 72
1, 146378, Note_off_c, 0, 79, 58
1, 146384, Control_c, 0, 64, 55
1, 146384, Control_c, 0, 67, 45
1, 146397, Note_off_c, 0, 36, 65
1, 146399, Control_c, 0, 64, 43
1, 146399, Control_c, 0, 67, 24
1, 146413, Control_c, 0, 64, 0
1, 146413, Control_c, 0, 67, 0
1, 146441, Note_on_c, 0, 75, 78
1, 146462, Note_off_c, 0, 77, 60
1, 146486, Note_on_c, 0, 36, 62
1, 146496, Note_on_c, 0, 73, 76
1, 146522, Note_off_c, 0, 36, 65
1, 146529, Note_off_c, 0, 75, 63
1, 146538, Note_off_c, 0, 73, 59
1, 146559, Note_on_c, 0, 72, 76
1, 146607, Note_off_c, 0, 72, 66
1, 146612, Note_on_c, 0, 36, 65
1, 146618, Note_on_c, 0, 70, 75
1, 146655, Note_off_c, 0, 36, 65
1, 146679, Note_on_c, 0, 68, 74
1, 146691, Note_off_c, 0, 70, 61
1, 146735, Note_off_c, 0, 68, 62
1, 146743, Note_on_c, 0, 37, 83
1, 146747, Note_on_c, 0, 65, 71
1, 146813, Note_off_c, 0, 65, 59
1, 146832, Note_on_c, 0, 77, 69
1, 146877, Note_off_c, 0, 77, 56
1, 146888, Note_on_c, 0, 68, 60
1, 146954, Control_c, 0, 64, 55
1, 146968, Note_on_c, 0, 77, 57
1, 146969, Note_off_c, 0, 68, 61
1, 146969, Control_c, 0, 64, 65
1, 146984, Control_c, 0, 64, 71
1, 146999, Control_c, 0, 64, 77
1, 147007, Note_off_c, 0, 77, 55
1, 147014, Control_c, 0, 64, 80
1, 147025, Note_on_c, 0, 65, 63
1, 147028, Control_c, 0, 64, 81
1, 147043, Control_c, 0, 64, 81
1, 147078, Note_on_c, 0, 77, 62
1, 147082, Note_off_c, 0, 65, 46
1, 147099, Note_off_c, 0, 37, 65
1, 147139, Note_on_c, 0, 68, 64
1, 147145, Note_off_c, 0, 77, 61
1, 147213, Note_on_c, 0, 77, 61
1, 147236, Control_c, 0, 64, 77
1, 147251, Control_c, 0, 64, 68
1, 147266, Control_c, 0, 64, 39
1, 147280, Control_c, 0, 64, 0
1, 147291, Note_off_c, 0, 68, 32
1, 147292, Note_on_c, 0, 61, 83
1, 147305, Note_off_c, 0, 77, 54
1, 147317, Note_on_c, 0, 65, 68
1, 147387, Note_off_c, 0, 65, 60
1, 147389, Note_on_c, 0, 77, 71
1, 147461, Note_off_c, 0, 77, 60
1, 147469, Note_on_c, 0, 68, 66
1, 147537, Note_on_c, 0, 77, 66
1, 147537, Note_off_c, 0, 68, 59
1, 147601, Note_on_c, 0, 65, 64
1, 147603, Note_off_c, 0, 77, 61
1, 147607, Note_on_c, 0, 56, 56
1, 147637, Control_c, 0, 64, 50
1, 147659, Control_c, 0, 64, 75
1, 147668, Note_on_c, 0, 77, 58
1, 147668, Note_off_c, 0, 65, 63
1, 147674, Control_c, 0, 64, 96
1, 147677, Note_off_c, 0, 61, 56
1, 147689, Control_c, 0, 64, 127
1, 147713, Note_off_c, 0, 56, 62
1, 147715, Note_on_c, 0, 53, 60
1, 147736, Note_off_c, 0, 77, 60
1, 147737, Note_on_c, 0, 68, 79
1, 147737, Note_off_c, 0, 53, 65
1, 147780, Poly_aftertouch_c, 0, 77, 0
1, 147787, Note_on_c, 0, 77, 60
1, 147800, Note_off_c, 0, 68, 63
1, 147821, Note_off_c, 0, 77, 62
1, 147851, Control_c, 0, 64, 81
1, 147855, Note_on_c, 0, 37, 80
1, 147856, Note_on_c, 0, 66, 81
1, 147866, Control_c, 0, 64, 60
1, 147881, Control_c, 0, 64, 0
1, 147928, Note_on_c, 0, 78, 71
1, 147944, Note_off_c, 0, 66, 62
1, 147985, Note_off_c, 0, 78, 62
1, 147987, Note_on_c, 0, 69, 64
1, 148014, Control_c, 0, 64, 56
1, 148029, Control_c, 0, 64, 68
1, 148041, Note_on_c, 0, 78, 68
1, 148044, Control_c, 0, 64, 78
1, 148051, Note_off_c, 0, 69, 61
1, 148059, Control_c, 0, 64, 86
1, 148074, Control_c, 0, 64, 88
1, 148089, Control_c, 0, 64, 90
1, 148094, Note_off_c, 0, 78, 64
1, 148103, Control_c, 0, 64, 95
1, 148107, Note_on_c, 0, 66, 75
1, 148118, Control_c, 0, 64, 105
1, 148133, Control_c, 0, 64, 115
1, 148148, Control_c, 0, 64, 127
1, 148158, Note_off_c, 0, 37, 62
1, 148173, Note_on_c, 0, 78, 71
1, 148177, Note_off_c, 0, 66, 59
1, 148226, Note_off_c, 0, 78, 63
1, 148234, Note_on_c, 0, 69, 68
1, 148298, Note_on_c, 0, 78, 78
1, 148309, Note_off_c, 0, 69, 59
1, 148369, Control_c, 0, 64, 96
1, 148385, Control_c, 0, 64, 75
1, 148387, Note_off_c, 0, 78, 62
1, 148407, Control_c, 0, 64, 54
1, 148411, Note_on_c, 0, 61, 88
1, 148416, Note_on_c, 0, 66, 80
1, 148422, Control_c, 0, 64, 0
1, 148493, Note_on_c, 0, 78, 82
1, 148500, Note_off_c, 0, 66, 64
1, 148557, Note_off_c, 0, 78, 62
1, 148566, Note_on_c, 0, 69, 76
1, 148620, Note_on_c, 0, 78, 75
1, 148625, Note_off_c, 0, 69, 63
1, 148678, Note_off_c, 0, 78, 62
1, 148691, Note_on_c, 0, 66, 83
1, 148700, Note_on_c, 0, 57, 74
1, 148703, Control_c, 0, 64, 36
1, 148718, Control_c, 0, 64, 73
1, 148733, Control_c, 0, 64, 106
1, 148747, Control_c, 0, 64, 127
1, 148748, Note_on_c, 0, 78, 76
1, 148764, Note_off_c, 0, 61, 54
1, 148765, Note_off_c, 0, 66, 63
1, 148817, Note_on_c, 0, 54, 69
1, 148818, Note_on_c, 0, 69, 77
1, 148822, Note_off_c, 0, 78, 62
1, 148822, Note_off_c, 0, 57, 59
1, 148852, Note_off_c, 0, 54, 63
1, 148897, Note_off_c, 0, 69, 65
1, 148900, Note_on_c, 0, 78, 77
1, 149016, Note_on_c, 0, 33, 91
1, 149022, Note_on_c, 0, 67, 79
1, 149031, Note_off_c, 0, 78, 40
1, 149043, Control_c, 0, 64, 86
1, 149058, Control_c, 0, 64, 52
1, 149073, Control_c, 0, 64, 0
1, 149117, Note_on_c, 0, 79, 60
1, 149120, Note_off_c, 0, 67, 53
1, 149186, Note_off_c, 0, 79, 61
1, 149187, Note_on_c, 0, 73, 69
1, 149230, Control_c, 0, 64, 61
1, 149245, Control_c, 0, 64, 73
1, 149260, Control_c, 0, 64, 85
1, 149262, Note_on_c, 0, 79, 66
1, 149272, Note_off_c, 0, 73, 54
1, 149275, Control_c, 0, 64, 89
1, 149289, Control_c, 0, 64, 90
1, 149303, Note_off_c, 0, 79, 54
1, 149304, Control_c, 0, 64, 93
1, 149319, Control_c, 0, 64, 99
1, 149320, Note_on_c, 0, 67, 67
1, 149334, Control_c, 0, 64, 110
1, 149341, Note_off_c, 0, 33, 65
1, 149349, Control_c, 0, 64, 115
1, 149363, Control_c, 0, 64, 118
1, 149378, Control_c, 0, 64, 119
1, 149382, Note_on_c, 0, 79, 69
1, 149391, Note_off_c, 0, 67, 60
1, 149393, Control_c, 0, 64, 121
1, 149408, Control_c, 0, 64, 125
1, 149447, Note_off_c, 0, 79, 60
1, 149448, Note_on_c, 0, 73, 70
1, 149515, Note_on_c, 0, 79, 66
1, 149526, Control_c, 0, 64, 127
1, 149576, Note_on_c, 0, 61, 89
1, 149580, Note_off_c, 0, 79, 58
1, 149582, Note_on_c, 0, 67, 73
1, 149585, Control_c, 0, 64, 118
1, 149600, Control_c, 0, 64, 93
1, 149615, Control_c, 0, 64, 72
1, 149629, Note_off_c, 0, 73, 35
1, 149630, Control_c, 0, 64, 53
1, 149645, Control_c, 0, 64, 0
1, 149664, Note_off_c, 0, 67, 60
1, 149665, Note_on_c, 0, 79, 60
1, 149674, Control_c, 0, 64, 28
1, 149689, Control_c, 0, 64, 58
1, 149704, Control_c, 0, 64, 67
1, 149715, Note_on_c, 0, 73, 73
1, 149719, Control_c, 0, 64, 75
1, 149722, Note_off_c, 0, 79, 61
1, 149734, Control_c, 0, 64, 87
1, 149748, Control_c, 0, 64, 102
1, 149763, Control_c, 0, 64, 116
1, 149778, Control_c, 0, 64, 127
1, 149788, Note_on_c, 0, 79, 66
1, 149830, Note_off_c, 0, 73, 33
1, 149847, Note_on_c, 0, 57, 63
1, 149851, Note_on_c, 0, 67, 70
1, 149853, Note_off_c, 0, 79, 59
1, 149917, Note_on_c, 0, 79, 70
1, 149927, Note_off_c, 0, 67, 59
1, 149969, Note_on_c, 0, 52, 73
1, 149982, Note_on_c, 0, 73, 75
1, 149985, Note_off_c, 0, 57, 59
1, 149986, Note_off_c, 0, 61, 50
1, 149986, Note_off_c, 0, 79, 62
1, 150011, Note_off_c, 0, 52, 63
1, 150049, Note_on_c, 0, 79, 71
1, 150098, Control_c, 0, 64, 74
1, 150103, Note_on_c, 0, 64, 90
1, 150112, Control_c, 0, 64, 40
1, 150113, Note_off_c, 0, 79, 56
1, 150116, Note_on_c, 0, 67, 81
1, 150127, Control_c, 0, 64, 0
1, 150152, Note_off_c, 0, 73, 26
1, 150187, Note_on_c, 0, 79, 66
1, 150197, Note_off_c, 0, 67, 60
1, 150241, Note_on_c, 0, 73, 76
1, 150244, Note_off_c, 0, 79, 62
1, 150246, Control_c, 0, 64, 51
1, 150260, Control_c, 0, 64, 66
1, 150275, Control_c, 0, 64, 76
1, 150290, Control_c, 0, 64, 93
1, 150304, Control_c, 0, 64, 115
1, 150309, Note_on_c, 0, 79, 69
1, 150318, Note_off_c, 0, 73, 57
1, 150319, Control_c, 0, 64, 127
1, 150357, Note_on_c, 0, 61, 67
1, 150366, Note_on_c, 0, 67, 76
1, 150380, Note_off_c, 0, 79, 60
1, 150428, Note_on_c, 0, 79, 61
1, 150442, Note_off_c, 0, 67, 60
1, 150470, Note_on_c, 0, 57, 77
1, 150482, Note_off_c, 0, 64, 62
1, 150483, Note_on_c, 0, 73, 84
1, 150486, Note_off_c, 0, 61, 60
1, 150497, Note_off_c, 0, 79, 61
1, 150518, Note_off_c, 0, 57, 61
1, 150556, Note_off_c, 0, 73, 60
1, 150559, Note_on_c, 0, 79, 59
1, 150621, Note_on_c, 0, 69, 96
1, 150623, Note_on_c, 0, 67, 75
1, 150628, Note_off_c, 0, 79, 62
1, 150631, Control_c, 0, 64, 75
1, 150653, Control_c, 0, 64, 39
1, 150668, Control_c, 0, 64, 0
1, 150708, Note_off_c, 0, 67, 61
1, 150716, Note_on_c, 0, 79, 63
1, 150770, Note_on_c, 0, 73, 79
1, 150778, Note_off_c, 0, 79, 61
1, 150814, Note_off_c, 0, 69, 62
1, 150853, Note_on_c, 0, 79, 66
1, 150861, Note_off_c, 0, 73, 57
1, 150924, Note_on_c, 0, 69, 88
1, 150924, Note_on_c, 0, 67, 76
1, 150928, Note_off_c, 0, 79, 59
1, 150985, Note_off_c, 0, 69, 61
1, 150997, Note_on_c, 0, 79, 70
1, 151007, Note_off_c, 0, 67, 61
1, 151078, Note_on_c, 0, 73, 79
1, 151085, Note_off_c, 0, 79, 60
1, 151141, Note_on_c, 0, 79, 75
1, 151161, Note_off_c, 0, 73, 60
1, 151205, Note_on_c, 0, 33, 87
1, 151209, Note_on_c, 0, 67, 78
1, 151221, Note_off_c, 0, 79, 58
1, 151261, Note_on_c, 0, 79, 62
1, 151290, Note_off_c, 0, 67, 57
1, 151306, Control_c, 0, 64, 51
1, 151320, Control_c, 0, 64, 61
1, 151329, Note_on_c, 0, 73, 77
1, 151329, Note_off_c, 0, 79, 61
1, 151335, Control_c, 0, 64, 64
1, 151350, Control_c, 0, 64, 65
1, 151365, Control_c, 0, 64, 68
1, 151380, Control_c, 0, 64, 74
1, 151400, Note_on_c, 0, 79, 60
1, 151402, Control_c, 0, 64, 81
1, 151412, Note_off_c, 0, 73, 57
1, 151417, Control_c, 0, 64, 84
1, 151432, Control_c, 0, 64, 86
1, 151439, Note_off_c, 0, 79, 58
1, 151447, Control_c, 0, 64, 90
1, 151458, Note_on_c, 0, 67, 68
1, 151461, Control_c, 0, 64, 98
1, 151476, Control_c, 0, 64, 127
1, 151496, Note_off_c, 0, 33, 65
1, 151526, Note_on_c, 0, 79, 68
1, 151526, Note_off_c, 0, 67, 59
1, 151582, Note_on_c, 0, 73, 69
1, 151582, Note_off_c, 0, 79, 61
1, 151648, Note_on_c, 0, 79, 68
1, 151684, Control_c, 0, 64, 94
1, 151699, Control_c, 0, 64, 69
1, 151708, Note_off_c, 0, 79, 59
1, 151714, Control_c, 0, 64, 0
1, 151722, Note_on_c, 0, 67, 74
1, 151723, Note_on_c, 0, 61, 91
1, 151734, Note_off_c, 0, 73, 24
1, 151787, Note_on_c, 0, 79, 66
1, 151800, Note_off_c, 0, 67, 60
1, 151845, Note_on_c, 0, 73, 75
1, 151847, Note_off_c, 0, 79, 61
1, 151921, Note_on_c, 0, 79, 66
1, 151932, Note_off_c, 0, 73, 54
1, 151977, Note_off_c, 0, 79, 57
1, 151984, Note_on_c, 0, 67, 73
1, 151987, Note_on_c, 0, 57, 70
1, 152041, Note_on_c, 0, 79, 69
1, 152053, Note_off_c, 0, 67, 61
1, 152101, Note_on_c, 0, 73, 76
1, 152101, Note_on_c, 0, 52, 77
1, 152108, Note_off_c, 0, 79, 61
1, 152109, Note_off_c, 0, 61, 53
1, 152158, Note_off_c, 0, 57, 62
1, 152176, Note_on_c, 0, 79, 70
1, 152181, Note_off_c, 0, 52, 66
1, 152251, Note_on_c, 0, 64, 91
1, 152251, Note_off_c, 0, 73, 0
1, 152252, Note_on_c, 0, 67, 77
1, 152259, Note_off_c, 0, 79, 58
1, 152309, Poly_aftertouch_c, 0, 73, 0
1, 152322, Note_on_c, 0, 79, 65
1, 152338, Note_off_c, 0, 67, 61
1, 152344, Control_c, 0, 64, 52
1, 152358, Control_c, 0, 64, 61
1, 152374, Control_c, 0, 64, 61
1, 152387, Note_on_c, 0, 73, 76
1, 152389, Control_c, 0, 64, 62
1, 152390, Note_off_c, 0, 79, 60
1, 152404, Control_c, 0, 64, 64
1, 152419, Control_c, 0, 64, 67
1, 152434, Control_c, 0, 64, 72
1, 152448, Control_c, 0, 64, 75
1, 152459, Note_on_c, 0, 79, 71
1, 152463, Control_c, 0, 64, 76
1, 152467, Note_off_c, 0, 73, 58
1, 152492, Control_c, 0, 64, 77
1, 152507, Control_c, 0, 64, 78
1, 152516, Note_on_c, 0, 61, 74
1, 152521, Note_on_c, 0, 67, 74
1, 152522, Control_c, 0, 64, 79
1, 152527, Note_off_c, 0, 79, 58
1, 152566, Control_c, 0, 64, 79
1, 152582, Note_on_c, 0, 79, 69
1, 152589, Note_off_c, 0, 67, 61
1, 152626, Control_c, 0, 64, 80
1, 152641, Control_c, 0, 64, 81
1, 152643, Note_on_c, 0, 57, 73
1, 152653, Note_on_c, 0, 73, 79
1, 152654, Note_off_c, 0, 64, 64
1, 152655, Note_off_c, 0, 79, 59
1, 152655, Control_c, 0, 64, 82
1, 152663, Note_off_c, 0, 61, 61
1, 152670, Control_c, 0, 64, 83
1, 152688, Note_off_c, 0, 57, 62
1, 152714, Control_c, 0, 64, 80
1, 152721, Note_on_c, 0, 79, 68
1, 152729, Control_c, 0, 64, 69
1, 152744, Control_c, 0, 64, 50
1, 152759, Control_c, 0, 64, 0
1, 152772, Note_on_c, 0, 69, 95
1, 152784, Note_on_c, 0, 67, 72
1, 152796, Note_off_c, 0, 79, 58
1, 152809, Note_off_c, 0, 73, 26
1, 152864, Note_on_c, 0, 79, 66
1, 152869, Note_off_c, 0, 67, 61
1, 152937, Note_on_c, 0, 73, 75
1, 152937, Note_off_c, 0, 69, 64
1, 152942, Note_off_c, 0, 79, 60
1, 153019, Note_on_c, 0, 79, 69
1, 153028, Note_off_c, 0, 73, 53
1, 153069, Note_on_c, 0, 69, 94
1, 153082, Note_on_c, 0, 67, 81
1, 153091, Note_off_c, 0, 79, 58
1, 153160, Note_on_c, 0, 79, 67
1, 153176, Note_off_c, 0, 69, 69
1, 153184, Note_off_c, 0, 67, 45
1, 153232, Note_on_c, 0, 73, 82
1, 153236, Note_off_c, 0, 79, 61
1, 153313, Note_on_c, 0, 79, 69
1, 153327, Note_off_c, 0, 73, 57
1, 153368, Note_off_c, 0, 79, 61
1, 153382, Note_on_c, 0, 67, 86
1, 153383, Note_on_c, 0, 34, 89
1, 153433, Control_c, 0, 64, 28
1, 153437, Note_on_c, 0, 79, 63
1, 153448, Control_c, 0, 64, 64
1, 153460, Note_off_c, 0, 67, 58
1, 153463, Control_c, 0, 64, 70
1, 153478, Control_c, 0, 64, 74
1, 153505, Note_off_c, 0, 79, 61
1, 153515, Note_on_c, 0, 76, 63
1, 153520, Note_on_c, 0, 73, 67
1, 153522, Control_c, 0, 64, 74
1, 153537, Control_c, 0, 64, 76
1, 153552, Control_c, 0, 64, 79
1, 153567, Control_c, 0, 64, 82
1, 153582, Control_c, 0, 64, 84
1, 153593, Note_on_c, 0, 79, 72
1, 153594, Note_off_c, 0, 73, 61
1, 153596, Control_c, 0, 64, 88
1, 153597, Note_off_c, 0, 76, 65
1, 153606, Note_off_c, 0, 34, 62
1, 153611, Control_c, 0, 64, 94
1, 153626, Control_c, 0, 64, 107
1, 153628, Note_on_c, 0, 67, 74
1, 153636, Note_off_c, 0, 79, 58
1, 153648, Control_c, 0, 64, 127
1, 153697, Note_on_c, 0, 79, 69
1, 153699, Note_off_c, 0, 67, 60
1, 153754, Note_off_c, 0, 79, 60
1, 153767, Note_on_c, 0, 73, 72
1, 153769, Note_on_c, 0, 76, 73
1, 153847, Note_on_c, 0, 79, 77
1, 153857, Note_off_c, 0, 76, 62
1, 153866, Note_off_c, 0, 73, 55
1, 153870, Control_c, 0, 64, 77
1, 153885, Control_c, 0, 64, 40
1, 153891, Note_on_c, 0, 70, 93
1, 153900, Control_c, 0, 64, 0
1, 153902, Note_on_c, 0, 67, 80
1, 153909, Note_off_c, 0, 79, 61
1, 153983, Note_on_c, 0, 79, 71
1, 154041, Note_off_c, 0, 79, 61
1, 154051, Note_on_c, 0, 76, 55
1, 154066, Note_off_c, 0, 67, 26
1, 154067, Note_on_c, 0, 73, 67
1, 154092, Note_off_c, 0, 70, 60
1, 154125, Note_on_c, 0, 79, 70
1, 154127, Note_off_c, 0, 73, 60
1, 154127, Note_off_c, 0, 76, 65
1, 154168, Note_off_c, 0, 79, 61
1, 154175, Note_on_c, 0, 70, 96
1, 154182, Note_on_c, 0, 67, 81
1, 154198, Control_c, 0, 64, 67
1, 154213, Control_c, 0, 64, 84
1, 154227, Control_c, 0, 64, 91
1, 154229, Note_off_c, 0, 70, 67
1, 154237, Note_on_c, 0, 79, 72
1, 154257, Note_off_c, 0, 67, 60
1, 154271, Control_c, 0, 64, 93
1, 154286, Control_c, 0, 64, 97
1, 154301, Control_c, 0, 64, 103
1, 154316, Control_c, 0, 64, 109
1, 154319, Note_off_c, 0, 79, 59
1, 154323, Note_on_c, 0, 73, 77
1, 154331, Control_c, 0, 64, 115
1, 154346, Control_c, 0, 64, 127
1, 154357, Note_on_c, 0, 76, 40
1, 154387, Note_off_c, 0, 76, 54
1, 154417, Note_on_c, 0, 79, 61
1, 154441, Note_off_c, 0, 73, 55
1, 154442, Control_c, 0, 64, 100
1, 154455, Note_on_c, 0, 35, 94
1, 154457, Control_c, 0, 64, 70
1, 154462, Note_off_c, 0, 79, 60
1, 154471, Control_c, 0, 64, 0
1, 154476, Note_on_c, 0, 67, 85
1, 154551, Note_on_c, 0, 79, 76
1, 154560, Note_off_c, 0, 67, 59
1, 154603, Note_on_c, 0, 76, 67
1, 154605, Note_off_c, 0, 79, 62
1, 154635, Control_c, 0, 64, 58
1, 154650, Control_c, 0, 64, 69
1, 154665, Control_c, 0, 64, 77
1, 154671, Note_on_c, 0, 79, 76
1, 154679, Control_c, 0, 64, 86
1, 154682, Note_off_c, 0, 76, 63
1, 154694, Control_c, 0, 64, 96
1, 154709, Note_off_c, 0, 35, 67
1, 154709, Control_c, 0, 64, 127
1, 154724, Note_on_c, 0, 67, 82
1, 154724, Note_off_c, 0, 79, 61
1, 154784, Note_on_c, 0, 79, 75
1, 154808, Note_off_c, 0, 67, 57
1, 154851, Note_off_c, 0, 79, 60
1, 154852, Note_on_c, 0, 76, 72
1, 154913, Note_on_c, 0, 79, 73
1, 154924, Note_off_c, 0, 76, 60
1, 154975, Note_on_c, 0, 71, 92
1, 154976, Control_c, 0, 64, 77
1, 154978, Note_on_c, 0, 67, 86
1, 154991, Control_c, 0, 64, 41
1, 154994, Note_off_c, 0, 79, 57
1, 155006, Control_c, 0, 64, 0
1, 155042, Note_on_c, 0, 79, 61
1, 155067, Note_off_c, 0, 67, 58
1, 155115, Note_off_c, 0, 79, 62
1, 155115, Note_on_c, 0, 76, 73
1, 155183, Note_on_c, 0, 79, 72
1, 155188, Note_off_c, 0, 71, 61
1, 155209, Note_off_c, 0, 76, 60
1, 155235, Control_c, 0, 64, 63
1, 155248, Note_on_c, 0, 67, 83
1, 155250, Control_c, 0, 64, 127
1, 155251, Note_on_c, 0, 71, 91
1, 155253, Note_off_c, 0, 79, 60
1, 155309, Note_off_c, 0, 71, 61
1, 155316, Note_on_c, 0, 79, 69
1, 155351, Note_off_c, 0, 67, 58
1, 155380, Note_on_c, 0, 76, 70
1, 155386, Note_off_c, 0, 79, 61
1, 155451, Note_on_c, 0, 79, 68
1, 155453, Note_off_c, 0, 76, 65
1, 155516, Note_off_c, 0, 79, 56
1, 155549, Note_on_c, 0, 36, 94
1, 155550, Note_on_c, 0, 70, 94
1, 155577, Control_c, 0, 64, 88
1, 155592, Control_c, 0, 64, 38
1, 155607, Control_c, 0, 64, 0
1, 155615, Note_on_c, 0, 79, 64
1, 155646, Note_off_c, 0, 70, 59
1, 155680, Note_on_c, 0, 76, 74
1, 155702, Note_off_c, 0, 79, 62
1, 155740, Control_c, 0, 64, 59
1, 155753, Note_on_c, 0, 79, 73
1, 155755, Control_c, 0, 64, 68
1, 155763, Note_off_c, 0, 76, 65
1, 155770, Control_c, 0, 64, 79
1, 155785, Control_c, 0, 64, 95
1, 155799, Control_c, 0, 64, 127
1, 155816, Note_on_c, 0, 70, 84
1, 155819, Note_off_c, 0, 79, 60
1, 155830, Note_off_c, 0, 36, 64
1, 155880, Note_on_c, 0, 79, 68
1, 155907, Note_off_c, 0, 70, 59
1, 155942, Note_on_c, 0, 76, 70
1, 155954, Note_off_c, 0, 79, 59
1, 156006, Note_on_c, 0, 79, 70
1, 156025, Note_off_c, 0, 76, 62
1, 156084, Note_on_c, 0, 70, 86
1, 156092, Note_on_c, 0, 72, 92
1, 156094, Note_off_c, 0, 79, 56
1, 156117, Control_c, 0, 64, 92
1, 156132, Control_c, 0, 64, 67
1, 156147, Control_c, 0, 64, 48
1, 156162, Control_c, 0, 64, 0
1, 156167, Note_on_c, 0, 79, 71
1, 156176, Note_off_c, 0, 70, 60
1, 156177, Control_c, 0, 64, 33
1, 156191, Control_c, 0, 64, 59
1, 156206, Control_c, 0, 64, 70
1, 156221, Control_c, 0, 64, 82
1, 156236, Control_c, 0, 64, 91
1, 156240, Note_on_c, 0, 76, 77
1, 156250, Control_c, 0, 64, 92
1, 156251, Note_off_c, 0, 79, 58
1, 156292, Note_off_c, 0, 72, 62
1, 156315, Note_on_c, 0, 79, 73
1, 156325, Control_c, 0, 64, 85
1, 156330, Note_off_c, 0, 76, 61
1, 156340, Control_c, 0, 64, 69
1, 156355, Control_c, 0, 64, 8
1, 156367, Note_on_c, 0, 72, 94
1, 156370, Control_c, 0, 64, 0
1, 156382, Note_on_c, 0, 70, 82
1, 156391, Note_off_c, 0, 79, 57
1, 156429, Control_c, 0, 64, 14
1, 156444, Control_c, 0, 64, 66
1, 156457, Note_on_c, 0, 79, 67
1, 156458, Control_c, 0, 64, 88
1, 156473, Control_c, 0, 64, 127
1, 156474, Note_off_c, 0, 70, 61
1, 156526, Note_on_c, 0, 76, 73
1, 156533, Note_off_c, 0, 79, 60
1, 156598, Note_on_c, 0, 79, 67
1, 156614, Note_off_c, 0, 76, 60
1, 156616, Note_off_c, 0, 72, 60
1, 156659, Control_c, 0, 64, 100
1, 156673, Control_c, 0, 64, 91
1, 156674, Note_on_c, 0, 70, 82
1, 156682, Note_off_c, 0, 79, 57
1, 156688, Control_c, 0, 64, 85
1, 156703, Control_c, 0, 64, 78
1, 156718, Control_c, 0, 64, 72
1, 156733, Control_c, 0, 64, 65
1, 156736, Note_on_c, 0, 79, 60
1, 156747, Control_c, 0, 64, 62
1, 156762, Control_c, 0, 64, 56
1, 156767, Note_off_c, 0, 70, 56
1, 156777, Control_c, 0, 64, 48
1, 156791, Control_c, 0, 64, 41
1, 156795, Note_on_c, 0, 76, 75
1, 156806, Control_c, 0, 64, 40
1, 156808, Note_off_c, 0, 79, 60
1, 156821, Control_c, 0, 64, 39
1, 156836, Control_c, 0, 64, 38
1, 156852, Note_on_c, 0, 79, 59
1, 156865, Control_c, 0, 64, 39
1, 156879, Note_off_c, 0, 76, 60
1, 156880, Control_c, 0, 64, 44
1, 156895, Control_c, 0, 64, 50
1, 156910, Control_c, 0, 64, 52
1, 156928, Note_on_c, 0, 70, 75
1, 156936, Note_off_c, 0, 79, 59
1, 156954, Control_c, 0, 64, 53
1, 156969, Control_c, 0, 64, 55
1, 156969, Control_c, 0, 67, 16
1, 156984, Note_on_c, 0, 79, 59
1, 156984, Control_c, 0, 64, 58
1, 156984, Control_c, 0, 67, 29
1, 156999, Control_c, 0, 64, 60
1, 156999, Control_c, 0, 67, 42
1, 157006, Note_off_c, 0, 70, 61
1, 157014, Control_c, 0, 64, 62
1, 157014, Control_c, 0, 67, 53
1, 157028, Control_c, 0, 64, 64
1, 157028, Control_c, 0, 67, 64
1, 157038, Note_on_c, 0, 76, 71
1, 157043, Control_c, 0, 64, 65
1, 157043, Control_c, 0, 67, 74
1, 157056, Note_off_c, 0, 79, 59
1, 157058, Control_c, 0, 64, 66
1, 157058, Control_c, 0, 67, 83
1, 157073, Control_c, 0, 64, 68
1, 157073, Control_c, 0, 67, 92
1, 157088, Control_c, 0, 64, 68
1, 157088, Control_c, 0, 67, 106
1, 157100, Note_on_c, 0, 79, 54
1, 157103, Control_c, 0, 64, 69
1, 157103, Control_c, 0, 67, 121
1, 157116, Note_off_c, 0, 76, 62
1, 157118, Control_c, 0, 67, 127
1, 157147, Control_c, 0, 64, 69
1, 157163, Control_c, 0, 64, 70
1, 157165, Note_off_c, 0, 79, 60
1, 157175, Note_on_c, 0, 70, 71
1, 157177, Control_c, 0, 64, 71
1, 157193, Control_c, 0, 64, 72
1, 157208, Control_c, 0, 64, 72
1, 157223, Control_c, 0, 64, 73
1, 157235, Note_on_c, 0, 79, 54
1, 157237, Note_off_c, 0, 70, 59
1, 157237, Control_c, 0, 64, 74
1, 157252, Control_c, 0, 64, 75
1, 157267, Control_c, 0, 64, 76
1, 157282, Control_c, 0, 64, 77
1, 157291, Note_on_c, 0, 76, 62
1, 157297, Note_off_c, 0, 79, 59
1, 157297, Control_c, 0, 64, 77
1, 157312, Control_c, 0, 64, 78
1, 157327, Control_c, 0, 64, 78
1, 157354, Note_on_c, 0, 79, 51
1, 157363, Note_off_c, 0, 76, 61
1, 157425, Note_off_c, 0, 79, 55
1, 157429, Note_on_c, 0, 70, 71
1, 157477, Note_on_c, 0, 79, 40
1, 157491, Note_off_c, 0, 70, 54
1, 157541, Note_off_c, 0, 79, 60
1, 157546, Note_on_c, 0, 76, 63
1, 157617, Note_on_c, 0, 79, 56
1, 157619, Note_off_c, 0, 76, 61
1, 157680, Note_off_c, 0, 79, 58
1, 157704, Control_c, 0, 64, 77
1, 157705, Note_on_c, 0, 70, 58
1, 157711, Note_on_c, 0, 37, 53
1, 157719, Control_c, 0, 64, 70
1, 157734, Control_c, 0, 64, 59
1, 157749, Control_c, 0, 64, 0
1, 157801, Note_on_c, 0, 79, 57
1, 157807, Note_off_c, 0, 70, 48
1, 157822, Control_c, 0, 64, 54
1, 157837, Control_c, 0, 64, 66
1, 157852, Control_c, 0, 64, 74
1, 157867, Control_c, 0, 64, 82
1, 157875, Note_on_c, 0, 76, 62
1, 157882, Control_c, 0, 64, 84
1, 157896, Control_c, 0, 64, 85
1, 157909, Note_off_c, 0, 37, 65
1, 157911, Control_c, 0, 64, 86
1, 157926, Control_c, 0, 64, 87
1, 157938, Note_off_c, 0, 79, 32
1, 157950, Note_off_c, 0, 76, 60
1, 157979, Note_on_c, 0, 70, 56
1, 158051, Note_on_c, 0, 79, 61
1, 158068, Note_off_c, 0, 70, 54
1, 158156, Note_on_c, 0, 76, 56
1, 158216, Control_c, 0, 64, 86
1, 158234, Note_off_c, 0, 79, 35
1, 158245, Note_off_c, 0, 76, 54
1, 158245, Control_c, 0, 64, 84
1, 158260, Note_on_c, 0, 70, 57
1, 158260, Control_c, 0, 64, 77
1, 158274, Note_on_c, 0, 73, 63
1, 158275, Control_c, 0, 64, 68
1, 158290, Control_c, 0, 64, 57
1, 158305, Control_c, 0, 64, 0
1, 158334, Control_c, 0, 64, 20
1, 158349, Control_c, 0, 64, 46
1, 158360, Note_on_c, 0, 79, 57
1, 158364, Control_c, 0, 64, 58
1, 158365, Note_off_c, 0, 70, 57
1, 158379, Control_c, 0, 64, 62
1, 158394, Control_c, 0, 64, 64
1, 158409, Control_c, 0, 64, 65
1, 158423, Control_c, 0, 64, 67
1, 158438, Control_c, 0, 64, 68
1, 158453, Control_c, 0, 64, 71
1, 158454, Note_off_c, 0, 73, 61
1, 158468, Control_c, 0, 64, 74
1, 158478, Note_off_c, 0, 79, 54
1, 158483, Note_on_c, 0, 76, 40
1, 158483, Control_c, 0, 64, 78
1, 158498, Control_c, 0, 64, 80
1, 158521, Note_off_c, 0, 76, 56
1, 158527, Control_c, 0, 64, 79
1, 158542, Control_c, 0, 64, 75
1, 158549, Note_on_c, 0, 73, 65
1, 158557, Control_c, 0, 64, 69
1, 158571, Control_c, 0, 64, 63
1, 158572, Note_on_c, 0, 70, 51
1, 158586, Control_c, 0, 64, 54
1, 158601, Control_c, 0, 64, 48
1, 158616, Control_c, 0, 64, 51
1, 158631, Control_c, 0, 64, 56
1, 158645, Control_c, 0, 64, 61
1, 158654, Note_off_c, 0, 70, 52
1, 158660, Note_on_c, 0, 79, 50
1, 158660, Control_c, 0, 64, 62
1, 158675, Control_c, 0, 64, 63
1, 158705, Control_c, 0, 64, 63
1, 158751, Note_on_c, 0, 76, 49
1, 158784, Note_off_c, 0, 73, 53
1, 158797, Note_off_c, 0, 79, 36
1, 158823, Note_off_c, 0, 76, 58
1, 158824, Control_c, 0, 64, 63
1, 158831, Note_on_c, 0, 70, 50
1, 158854, Control_c, 0, 64, 62
1, 158891, Control_c, 0, 64, 62
1, 158924, Note_on_c, 0, 79, 58
1, 158930, Note_off_c, 0, 70, 60
1, 159013, Note_on_c, 0, 76, 46
1, 159058, Note_off_c, 0, 79, 35
1, 159091, Note_on_c, 0, 70, 47
1, 159094, Note_off_c, 0, 76, 55
1, 159174, Note_off_c, 0, 70, 60
1, 159183, Note_on_c, 0, 79, 54
1, 159262, Note_on_c, 0, 76, 37
1, 159305, Note_off_c, 0, 79, 37
1, 159342, Note_off_c, 0, 76, 53
1, 159357, Note_on_c, 0, 70, 47
1, 159409, Control_c, 0, 64, 61
1, 159438, Note_on_c, 0, 79, 52
1, 159446, Note_off_c, 0, 70, 53
1, 159483, Control_c, 0, 64, 62
1, 159498, Control_c, 0, 64, 62
1, 159513, Control_c, 0, 64, 63
1, 159515, Note_off_c, 0, 79, 54
1, 159524, Note_on_c, 0, 76, 41
1, 159528, Control_c, 0, 64, 63
1, 159542, Control_c, 0, 64, 64
1, 159558, Control_c, 0, 64, 65
1, 159564, Note_off_c, 0, 76, 50
1, 159573, Control_c, 0, 64, 66
1, 159588, Control_c, 0, 64, 68
1, 159603, Control_c, 0, 64, 70
1, 159610, Note_on_c, 0, 70, 44
1, 159617, Control_c, 0, 64, 73
1, 159640, Control_c, 0, 64, 75
1, 159655, Control_c, 0, 64, 76
1, 159670, Control_c, 0, 64, 77
1, 159698, Note_on_c, 0, 79, 47
1, 159709, Note_off_c, 0, 70, 56
1, 159779, Note_on_c, 0, 76, 51
1, 159816, Note_off_c, 0, 79, 35
1, 159831, Note_off_c, 0, 76, 60
1, 159862, Control_c, 0, 64, 75
1, 159877, Control_c, 0, 64, 73
1, 159891, Control_c, 0, 64, 67
1, 159898, Note_on_c, 0, 49, 37
1, 159899, Note_on_c, 0, 71, 50
1, 159906, Control_c, 0, 64, 61
1, 159921, Control_c, 0, 64, 34
1, 159936, Control_c, 0, 64, 0
1, 160009, Control_c, 0, 64, 40
1, 160024, Control_c, 0, 64, 59
1, 160039, Control_c, 0, 64, 64
1, 160054, Control_c, 0, 64, 66
1, 160065, Note_on_c, 0, 80, 50
1, 160069, Control_c, 0, 64, 68
1, 160075, Note_on_c, 0, 77, 41
1, 160084, Control_c, 0, 64, 70
1, 160085, Note_off_c, 0, 71, 52
1, 160099, Control_c, 0, 64, 74
1, 160114, Control_c, 0, 64, 77
1, 160116, Note_off_c, 0, 49, 39
1, 160129, Control_c, 0, 64, 78
1, 160164, Note_off_c, 0, 77, 36
1, 160167, Note_off_c, 0, 80, 39
1, 160186, Control_c, 0, 64, 78
1, 160200, Control_c, 0, 64, 75
1, 160210, Note_on_c, 0, 71, 53
1, 160215, Control_c, 0, 64, 70
1, 160221, Note_on_c, 0, 49, 42
1, 160230, Control_c, 0, 64, 64
1, 160245, Control_c, 0, 64, 58
1, 160260, Control_c, 0, 64, 56
1, 160275, Control_c, 0, 64, 59
1, 160290, Control_c, 0, 64, 61
1, 160304, Control_c, 0, 64, 62
1, 160319, Control_c, 0, 64, 63
1, 160349, Control_c, 0, 64, 63
1, 160364, Note_on_c, 0, 80, 48
1, 160366, Note_off_c, 0, 71, 54
1, 160387, Control_c, 0, 64, 64
1, 160397, Note_on_c, 0, 77, 25
1, 160443, Note_off_c, 0, 77, 46
1, 160461, Control_c, 0, 64, 63
1, 160468, Note_off_c, 0, 80, 57
1, 160476, Control_c, 0, 64, 61
1, 160491, Control_c, 0, 64, 57
1, 160506, Control_c, 0, 64, 53
1, 160520, Control_c, 0, 64, 49
1, 160535, Control_c, 0, 64, 45
1, 160537, Note_off_c, 0, 49, 37
1, 160550, Note_on_c, 0, 71, 45
1, 160550, Control_c, 0, 64, 43
1, 160580, Control_c, 0, 64, 43
1, 160609, Control_c, 0, 64, 43
1, 160668, Control_c, 0, 64, 42
1, 160683, Control_c, 0, 64, 41
1, 160692, Note_on_c, 0, 80, 45
1, 160698, Note_off_c, 0, 71, 46
1, 160698, Control_c, 0, 64, 41
1, 160719, Note_on_c, 0, 77, 31
1, 160728, Control_c, 0, 64, 41
1, 160743, Control_c, 0, 64, 42
1, 160757, Control_c, 0, 64, 43
1, 160788, Note_off_c, 0, 77, 38
1, 160831, Note_off_c, 0, 80, 39
1, 160861, Control_c, 0, 64, 42
1, 160876, Control_c, 0, 64, 41
1, 160883, Note_on_c, 0, 71, 37
1, 160905, Control_c, 0, 64, 41
1, 160920, Control_c, 0, 64, 40
1, 160936, Control_c, 0, 64, 39
1, 160951, Control_c, 0, 64, 38
1, 160965, Control_c, 0, 64, 36
1, 160980, Control_c, 0, 64, 34
1, 160995, Control_c, 0, 64, 32
1, 161010, Control_c, 0, 64, 30
1, 161024, Control_c, 0, 64, 28
1, 161039, Control_c, 0, 64, 26
1, 161054, Control_c, 0, 64, 25
1, 161069, Control_c, 0, 64, 24
1, 161104, Note_on_c, 0, 80, 35
1, 161106, Note_on_c, 0, 77, 23
1, 161166, Control_c, 0, 64, 23
1, 161185, Note_off_c, 0, 71, 42
1, 161388, Control_c, 0, 64, 24
1, 161403, Control_c, 0, 64, 25
1, 161411, Note_off_c, 0, 77, 36
1, 161522, Control_c, 0, 64, 26
1, 161551, Control_c, 0, 64, 26
1, 161566, Control_c, 0, 64, 27
1, 161571, Note_off_c, 0, 80, 39
1, 161580, Control_c, 0, 64, 28
1, 161670, Control_c, 0, 64, 27
1, 161685, Control_c, 0, 64, 26
1, 161818, Control_c, 0, 64, 27
1, 161914, Control_c, 0, 64, 28
1, 161944, Control_c, 0, 64, 29
1, 161959, Control_c, 0, 64, 30
1, 161974, Control_c, 0, 64, 32
1, 161989, Control_c, 0, 64, 34
1, 162004, Control_c, 0, 64, 36
1, 162018, Control_c, 0, 64, 38
1, 162033, Control_c, 0, 64, 41
1, 162048, Control_c, 0, 64, 44
1, 162063, Control_c, 0, 64, 48
1, 162078, Control_c, 0, 64, 53
1, 162093, Control_c, 0, 64, 56
1, 162108, Control_c, 0, 64, 59
1, 162123, Control_c, 0, 64, 61
1, 162138, Control_c, 0, 64, 62
1, 162152, Control_c, 0, 64, 63
1, 162167, Control_c, 0, 64, 63
1, 162182, Control_c, 0, 64, 64
1, 162197, Control_c, 0, 64, 65
1, 162211, Control_c, 0, 64, 66
1, 162226, Control_c, 0, 64, 68
1, 162241, Control_c, 0, 64, 69
1, 162256, Control_c, 0, 64, 71
1, 162271, Control_c, 0, 64, 73
1, 162285, Control_c, 0, 64, 75
1, 162300, Control_c, 0, 64, 76
1, 162315, Control_c, 0, 64, 77
1, 162330, Control_c, 0, 64, 78
1, 162345, Control_c, 0, 64, 79
1, 162359, Control_c, 0, 64, 79
1, 162374, Control_c, 0, 64, 80
1, 162389, Control_c, 0, 64, 81
1, 162403, Control_c, 0, 64, 81
1, 162418, Control_c, 0, 64, 82
1, 162433, Control_c, 0, 64, 83
1, 162448, Control_c, 0, 64, 84
1, 162463, Control_c, 0, 64, 86
1, 162478, Control_c, 0, 64, 87
1, 162492, Control_c, 0, 64, 87
1, 162507, Control_c, 0, 64, 89
1, 162522, Control_c, 0, 64, 90
1, 162537, Control_c, 0, 64, 90
1, 162552, Control_c, 0, 64, 91
1, 162567, Control_c, 0, 64, 93
1, 162582, Control_c, 0, 64, 95
1, 162597, Control_c, 0, 64, 96
1, 162611, Control_c, 0, 64, 98
1, 162633, Control_c, 0, 64, 100
1, 162648, Control_c, 0, 64, 102
1, 162663, Control_c, 0, 64, 105
1, 162678, Control_c, 0, 64, 107
1, 162692, Control_c, 0, 64, 109
1, 162707, Control_c, 0, 64, 111
1, 162722, Control_c, 0, 64, 114
1, 162737, Control_c, 0, 64, 116
1, 162753, Control_c, 0, 64, 121
1, 162768, Control_c, 0, 64, 127
1, 162927, Note_on_c, 0, 69, 44
1, 163088, Note_off_c, 0, 69, 59
1, 163238, Note_on_c, 0, 68, 42
1, 163276, Note_off_c, 0, 68, 52
1, 163300, Note_on_c, 0, 69, 50
1, 163345, Control_c, 0, 64, 108
1, 163359, Control_c, 0, 64, 95
1, 163366, Note_off_c, 0, 69, 44
1, 163381, Control_c, 0, 64, 85
1, 163388, Note_on_c, 0, 68, 59
1, 163396, Control_c, 0, 64, 77
1, 163411, Control_c, 0, 64, 70
1, 163426, Control_c, 0, 64, 63
1, 163440, Control_c, 0, 64, 57
1, 163455, Control_c, 0, 64, 46
1, 163470, Control_c, 0, 64, 37
1, 163485, Control_c, 0, 64, 36
1, 163515, Control_c, 0, 64, 35
1, 163530, Control_c, 0, 64, 34
1, 163545, Control_c, 0, 64, 30
1, 163560, Control_c, 0, 64, 26
1, 163575, Control_c, 0, 64, 23
1, 163589, Control_c, 0, 64, 23
1, 163619, Control_c, 0, 64, 21
1, 163634, Control_c, 0, 64, 15
1, 163649, Control_c, 0, 64, 0
1, 163754, Note_on_c, 0, 66, 54
1, 163772, Note_off_c, 0, 68, 50
1, 164131, Control_c, 0, 64, 8
1, 164146, Control_c, 0, 64, 18
1, 164150, Note_on_c, 0, 73, 56
1, 164161, Control_c, 0, 64, 26
1, 164176, Control_c, 0, 64, 33
1, 164190, Control_c, 0, 64, 40
1, 164205, Control_c, 0, 64, 47
1, 164220, Control_c, 0, 64, 53
1, 164235, Control_c, 0, 64, 59
1, 164250, Control_c, 0, 64, 62
1, 164264, Control_c, 0, 64, 64
1, 164279, Control_c, 0, 64, 65
1, 164294, Control_c, 0, 64, 66
1, 164308, Control_c, 0, 64, 68
1, 164323, Control_c, 0, 64, 70
1, 164338, Control_c, 0, 64, 73
1, 164353, Control_c, 0, 64, 75
1, 164355, Note_off_c, 0, 66, 36
1, 164369, Control_c, 0, 64, 77
1, 164384, Control_c, 0, 64, 78
1, 164399, Control_c, 0, 64, 79
1, 164428, Control_c, 0, 64, 80
1, 164439, Note_on_c, 0, 45, 44
1, 164541, Note_off_c, 0, 45, 45
1, 164632, Note_on_c, 0, 69, 46
1, 164635, Note_on_c, 0, 44, 43
1, 164636, Control_c, 0, 64, 79
1, 164651, Control_c, 0, 64, 79
1, 164666, Control_c, 0, 64, 78
1, 164680, Note_off_c, 0, 44, 62
1, 164680, Control_c, 0, 64, 76
1, 164695, Control_c, 0, 64, 74
1, 164707, Note_on_c, 0, 45, 32
1, 164708, Note_on_c, 0, 66, 52
1, 164710, Control_c, 0, 64, 72
1, 164725, Control_c, 0, 64, 68
1, 164740, Control_c, 0, 64, 65
1, 164746, Note_off_c, 0, 45, 53
1, 164754, Control_c, 0, 64, 61
1, 164769, Note_on_c, 0, 44, 46
1, 164769, Control_c, 0, 64, 50
1, 164773, Note_off_c, 0, 69, 42
1, 164784, Control_c, 0, 64, 35
1, 164793, Note_on_c, 0, 61, 56
1, 164798, Control_c, 0, 64, 12
1, 164813, Control_c, 0, 64, 0
1, 164881, Note_off_c, 0, 73, 37
1, 164889, Note_off_c, 0, 66, 50
1, 165086, Note_off_c, 0, 44, 62
1, 165092, Note_on_c, 0, 42, 59
1, 165460, Note_on_c, 0, 49, 57
1, 165517, Note_off_c, 0, 42, 54
1, 165688, Control_c, 0, 64, 10
1, 165703, Control_c, 0, 64, 23
1, 165718, Control_c, 0, 64, 28
1, 165733, Control_c, 0, 64, 32
1, 165747, Control_c, 0, 64, 35
1, 165762, Control_c, 0, 64, 37
1, 165777, Control_c, 0, 64, 38
1, 165792, Control_c, 0, 64, 39
1, 165798, Note_on_c, 0, 66, 47
1, 165807, Control_c, 0, 64, 39
1, 165896, Control_c, 0, 64, 39
1, 165925, Control_c, 0, 64, 38
1, 165938, Note_on_c, 0, 45, 47
1, 165985, Control_c, 0, 64, 38
1, 166009, Note_on_c, 0, 42, 50
1, 166015, Control_c, 0, 64, 37
1, 166030, Control_c, 0, 64, 36
1, 166045, Control_c, 0, 64, 35
1, 166059, Control_c, 0, 64, 32
1, 166063, Note_off_c, 0, 49, 53
1, 166074, Control_c, 0, 64, 27
1, 166084, Note_on_c, 0, 38, 57
1, 166085, Note_on_c, 0, 65, 53
1, 166089, Control_c, 0, 64, 14
1, 166100, Note_off_c, 0, 66, 54
1, 166104, Control_c, 0, 64, 0
1, 166109, Note_off_c, 0, 45, 36
1, 166150, Note_off_c, 0, 42, 55
1, 166206, Note_off_c, 0, 61, 51
1, 166326, Control_c, 0, 67, 123
1, 166341, Control_c, 0, 67, 105
1, 166356, Control_c, 0, 67, 84
1, 166377, Control_c, 0, 67, 60
1, 166392, Control_c, 0, 67, 42
1, 166407, Control_c, 0, 64, 36
1, 166407, Control_c, 0, 67, 28
1, 166409, Note_on_c, 0, 66, 66
1, 166422, Control_c, 0, 64, 51
1, 166422, Control_c, 0, 67, 19
1, 166437, Control_c, 0, 64, 59
1, 166437, Control_c, 0, 67, 12
1, 166451, Control_c, 0, 64, 62
1, 166451, Control_c, 0, 67, 0
1, 166466, Control_c, 0, 64, 64
1, 166481, Control_c, 0, 64, 65
1, 166496, Control_c, 0, 64, 66
1, 166511, Control_c, 0, 64, 68
1, 166526, Control_c, 0, 64, 70
1, 166540, Control_c, 0, 64, 72
1, 166555, Control_c, 0, 64, 74
1, 166570, Control_c, 0, 64, 75
1, 166585, Control_c, 0, 64, 77
1, 166600, Control_c, 0, 64, 77
1, 166615, Control_c, 0, 64, 78
1, 166630, Control_c, 0, 64, 79
1, 166659, Control_c, 0, 64, 79
1, 166674, Control_c, 0, 64, 80
1, 166733, Control_c, 0, 64, 80
1, 166743, Note_on_c, 0, 68, 68
1, 166779, Control_c, 0, 64, 81
1, 166808, Control_c, 0, 64, 82
1, 166823, Control_c, 0, 64, 83
1, 166838, Control_c, 0, 64, 84
1, 166843, Note_off_c, 0, 38, 33
1, 166853, Control_c, 0, 64, 86
1, 166868, Control_c, 0, 64, 87
1, 166882, Control_c, 0, 64, 88
1, 166897, Control_c, 0, 64, 89
1, 166912, Control_c, 0, 64, 90
1, 166920, Note_off_c, 0, 66, 36
1, 166926, Control_c, 0, 64, 90
1, 166931, Note_off_c, 0, 65, 39
1, 166970, Control_c, 0, 64, 91
1, 167047, Note_off_c, 0, 68, 52
1, 167076, Note_on_c, 0, 69, 69
1, 167078, Note_on_c, 0, 38, 38
1, 167086, Note_on_c, 0, 66, 48
1, 167087, Note_on_c, 0, 60, 57
1, 167089, Control_c, 0, 64, 87
1, 167104, Control_c, 0, 64, 78
1, 167125, Control_c, 0, 64, 68
1, 167140, Control_c, 0, 64, 60
1, 167155, Control_c, 0, 64, 49
1, 167170, Control_c, 0, 64, 51
1, 167185, Control_c, 0, 64, 57
1, 167199, Control_c, 0, 64, 62
1, 167214, Control_c, 0, 64, 65
1, 167229, Control_c, 0, 64, 67
1, 167244, Control_c, 0, 64, 72
1, 167259, Control_c, 0, 64, 76
1, 167274, Control_c, 0, 64, 78
1, 167289, Control_c, 0, 64, 78
1, 167290, Note_off_c, 0, 66, 55
1, 167300, Note_off_c, 0, 69, 62
1, 167304, Control_c, 0, 64, 79
1, 167339, Note_off_c, 0, 60, 38
1, 167390, Note_on_c, 0, 37, 46
1, 167415, Note_on_c, 0, 69, 64
1, 167426, Note_on_c, 0, 66, 60
1, 167435, Note_on_c, 0, 61, 53
1, 167437, Control_c, 0, 64, 78
1, 167452, Control_c, 0, 64, 76
1, 167467, Control_c, 0, 64, 74
1, 167481, Control_c, 0, 64, 71
1, 167496, Control_c, 0, 64, 67
1, 167511, Control_c, 0, 64, 63
1, 167525, Control_c, 0, 64, 58
1, 167528, Note_off_c, 0, 38, 22
1, 167542, Control_c, 0, 64, 46
1, 167557, Control_c, 0, 64, 26
1, 167571, Control_c, 0, 64, 0
1, 167760, Note_on_c, 0, 60, 64
1, 167764, Note_on_c, 0, 39, 50
1, 167840, Note_off_c, 0, 37, 57
1, 167876, Control_c, 0, 64, 51
1, 167891, Control_c, 0, 64, 63
1, 167905, Control_c, 0, 64, 67
1, 167920, Control_c, 0, 64, 70
1, 167935, Control_c, 0, 64, 71
1, 167949, Control_c, 0, 64, 73
1, 167964, Control_c, 0, 64, 74
1, 167993, Note_off_c, 0, 61, 36
1, 168018, Note_off_c, 0, 60, 55
1, 168104, Note_on_c, 0, 64, 64
1, 168112, Control_c, 0, 64, 73
1, 168120, Note_on_c, 0, 40, 45
1, 168120, Note_off_c, 0, 69, 62
1, 168125, Note_on_c, 0, 59, 53
1, 168127, Control_c, 0, 64, 72
1, 168142, Control_c, 0, 64, 69
1, 168150, Note_off_c, 0, 66, 35
1, 168156, Control_c, 0, 64, 65
1, 168171, Control_c, 0, 64, 58
1, 168177, Note_off_c, 0, 39, 55
1, 168186, Control_c, 0, 64, 22
1, 168201, Control_c, 0, 64, 0
1, 168275, Control_c, 0, 64, 49
1, 168290, Control_c, 0, 64, 61
1, 168305, Control_c, 0, 64, 63
1, 168335, Control_c, 0, 64, 63
1, 168350, Control_c, 0, 64, 64
1, 168365, Control_c, 0, 64, 64
1, 168484, Control_c, 0, 64, 63
1, 168499, Control_c, 0, 64, 60
1, 168507, Note_on_c, 0, 69, 62
1, 168513, Control_c, 0, 64, 50
1, 168516, Note_on_c, 0, 63, 45
1, 168517, Note_on_c, 0, 41, 43
1, 168526, Note_off_c, 0, 40, 44
1, 168528, Note_off_c, 0, 64, 37
1, 168528, Control_c, 0, 64, 0
1, 168602, Control_c, 0, 64, 45
1, 168624, Control_c, 0, 64, 62
1, 168639, Control_c, 0, 64, 68
1, 168651, Note_off_c, 0, 59, 35
1, 168654, Control_c, 0, 64, 72
1, 168669, Control_c, 0, 64, 77
1, 168684, Control_c, 0, 64, 81
1, 168699, Control_c, 0, 64, 83
1, 168714, Control_c, 0, 64, 86
1, 168725, Note_off_c, 0, 41, 48
1, 168727, Note_off_c, 0, 63, 55
1, 168728, Control_c, 0, 64, 88
1, 168743, Note_off_c, 0, 69, 39
1, 168743, Control_c, 0, 64, 89
1, 168758, Control_c, 0, 64, 90
1, 169024, Control_c, 0, 64, 89
1, 169039, Control_c, 0, 64, 89
1, 169052, Note_on_c, 0, 69, 53
1, 169053, Control_c, 0, 64, 88
1, 169068, Control_c, 0, 64, 86
1, 169083, Control_c, 0, 64, 84
1, 169087, Note_on_c, 0, 41, 33
1, 169092, Note_on_c, 0, 59, 42
1, 169092, Note_on_c, 0, 63, 40
1, 169098, Control_c, 0, 64, 81
1, 169113, Control_c, 0, 64, 78
1, 169128, Control_c, 0, 64, 74
1, 169143, Control_c, 0, 64, 69
1, 169158, Control_c, 0, 64, 63
1, 169173, Control_c, 0, 64, 57
1, 169188, Control_c, 0, 64, 46
1, 169202, Control_c, 0, 64, 32
1, 169217, Control_c, 0, 64, 0
1, 169351, Control_c, 0, 64, 28
1, 169373, Control_c, 0, 64, 46
1, 169388, Control_c, 0, 64, 56
1, 169402, Control_c, 0, 64, 61
1, 169417, Control_c, 0, 64, 63
1, 169432, Control_c, 0, 64, 65
1, 169447, Control_c, 0, 64, 66
1, 169447, Control_c, 0, 67, 15
1, 169462, Control_c, 0, 64, 69
1, 169462, Control_c, 0, 67, 24
1, 169477, Control_c, 0, 64, 72
1, 169477, Control_c, 0, 67, 35
1, 169492, Control_c, 0, 64, 76
1, 169492, Control_c, 0, 67, 46
1, 169506, Control_c, 0, 64, 79
1, 169506, Control_c, 0, 67, 59
1, 169521, Control_c, 0, 64, 82
1, 169521, Control_c, 0, 67, 75
1, 169536, Control_c, 0, 64, 84
1, 169536, Control_c, 0, 67, 90
1, 169551, Control_c, 0, 64, 86
1, 169551, Control_c, 0, 67, 105
1, 169566, Control_c, 0, 64, 87
1, 169566, Control_c, 0, 67, 121
1, 169581, Control_c, 0, 64, 89
1, 169581, Control_c, 0, 67, 127
1, 169595, Control_c, 0, 64, 90
1, 169606, Note_off_c, 0, 41, 27
1, 169625, Control_c, 0, 64, 90
1, 169688, Note_off_c, 0, 63, 37
1, 169859, Note_off_c, 0, 69, 34
1, 169921, Control_c, 0, 64, 90
1, 169951, Control_c, 0, 64, 89
1, 169966, Control_c, 0, 64, 89
1, 169981, Control_c, 0, 64, 88
1, 169996, Control_c, 0, 64, 86
1, 170011, Control_c, 0, 64, 84
1, 170025, Control_c, 0, 64, 80
1, 170034, Note_on_c, 0, 68, 42
1, 170040, Control_c, 0, 64, 75
1, 170051, Note_on_c, 0, 64, 28
1, 170055, Control_c, 0, 64, 70
1, 170070, Control_c, 0, 64, 64
1, 170073, Note_on_c, 0, 40, 20
1, 170085, Control_c, 0, 64, 56
1, 170100, Control_c, 0, 64, 35
1, 170122, Control_c, 0, 64, 0
1, 170489, Note_off_c, 0, 59, 59
1, 170509, Note_off_c, 0, 64, 53
1, 170526, Note_off_c, 0, 40, 41
1, 170537, Note_off_c, 0, 68, 37
1, 171271, Control_c, 0, 64, 29
1, 171286, Control_c, 0, 64, 46
1, 171301, Control_c, 0, 64, 53
1, 171316, Control_c, 0, 64, 56
1, 171331, Control_c, 0, 64, 58
1, 171346, Control_c, 0, 64, 60
1, 171360, Control_c, 0, 64, 62
1, 171375, Control_c, 0, 64, 63
1, 171434, Control_c, 0, 64, 63
1, 171448, Control_c, 0, 64, 64
1, 171463, Control_c, 0, 64, 65
1, 171478, Control_c, 0, 64, 66
1, 171492, Control_c, 0, 64, 66
1, 171507, Control_c, 0, 64, 68
1, 171522, Control_c, 0, 64, 70
1, 171538, Control_c, 0, 64, 74
1, 171553, Control_c, 0, 64, 78
1, 171568, Control_c, 0, 64, 81
1, 171583, Control_c, 0, 64, 83
1, 171597, Control_c, 0, 64, 86
1, 171620, Control_c, 0, 64, 90
1, 171635, Control_c, 0, 64, 94
1, 171650, Control_c, 0, 64, 100
1, 171665, Control_c, 0, 64, 104
1, 171679, Control_c, 0, 64, 106
1, 171694, Control_c, 0, 64, 107
1, 171723, Control_c, 0, 64, 108
1, 171734, Note_on_c, 0, 72, 47
1, 171799, Note_off_c, 0, 72, 62
1, 171901, Control_c, 0, 64, 107
1, 171919, Note_on_c, 0, 71, 44
1, 171930, Control_c, 0, 64, 107
1, 171945, Control_c, 0, 64, 106
1, 171948, Note_off_c, 0, 71, 57
1, 171960, Control_c, 0, 64, 105
1, 171963, Note_on_c, 0, 72, 47
1, 171975, Control_c, 0, 64, 102
1, 171990, Control_c, 0, 64, 98
1, 172004, Control_c, 0, 64, 92
1, 172019, Control_c, 0, 64, 85
1, 172034, Control_c, 0, 64, 77
1, 172049, Note_on_c, 0, 71, 55
1, 172049, Control_c, 0, 64, 71
1, 172064, Control_c, 0, 64, 65
1, 172079, Control_c, 0, 64, 60
1, 172079, Note_off_c, 0, 72, 36
1, 172094, Control_c, 0, 64, 48
1, 172109, Control_c, 0, 64, 30
1, 172123, Control_c, 0, 64, 8
1, 172138, Control_c, 0, 64, 0
1, 172338, Note_on_c, 0, 69, 55
1, 172401, Note_off_c, 0, 71, 59
1, 172635, Control_c, 0, 64, 10
1, 172650, Control_c, 0, 64, 33
1, 172661, Note_on_c, 0, 76, 64
1, 172665, Control_c, 0, 64, 48
1, 172680, Control_c, 0, 64, 58
1, 172694, Control_c, 0, 64, 63
1, 172709, Control_c, 0, 64, 66
1, 172724, Control_c, 0, 64, 68
1, 172738, Control_c, 0, 64, 72
1, 172744, Note_off_c, 0, 69, 49
1, 172753, Control_c, 0, 64, 75
1, 172768, Control_c, 0, 64, 78
1, 172783, Control_c, 0, 64, 80
1, 172798, Control_c, 0, 64, 81
1, 172926, Note_on_c, 0, 48, 49
1, 173024, Note_off_c, 0, 48, 52
1, 173093, Note_on_c, 0, 72, 52
1, 173142, Note_on_c, 0, 47, 36
1, 173161, Note_on_c, 0, 69, 56
1, 173173, Note_off_c, 0, 47, 52
1, 173176, Control_c, 0, 64, 79
1, 173191, Control_c, 0, 64, 77
1, 173191, Note_on_c, 0, 48, 58
1, 173206, Control_c, 0, 64, 73
1, 173221, Control_c, 0, 64, 70
1, 173233, Note_on_c, 0, 64, 61
1, 173236, Control_c, 0, 64, 65
1, 173250, Control_c, 0, 64, 60
1, 173251, Note_on_c, 0, 47, 54
1, 173265, Control_c, 0, 64, 48
1, 173271, Note_off_c, 0, 72, 31
1, 173280, Control_c, 0, 64, 0
1, 173280, Note_off_c, 0, 48, 38
1, 173308, Note_off_c, 0, 69, 50
1, 173403, Note_off_c, 0, 76, 41
1, 173539, Note_on_c, 0, 45, 55
1, 173587, Note_off_c, 0, 47, 57
1, 173846, Note_on_c, 0, 52, 58
1, 173879, Control_c, 0, 67, 118
1, 173880, Note_off_c, 0, 45, 58
1, 173893, Control_c, 0, 67, 96
1, 173908, Control_c, 0, 67, 72
1, 173923, Control_c, 0, 67, 49
1, 173939, Control_c, 0, 67, 31
1, 173954, Control_c, 0, 67, 17
1, 173969, Control_c, 0, 67, 10
1, 173983, Control_c, 0, 67, 0
1, 174028, Control_c, 0, 64, 8
1, 174043, Control_c, 0, 64, 17
1, 174057, Control_c, 0, 64, 21
1, 174072, Control_c, 0, 64, 25
1, 174087, Control_c, 0, 64, 29
1, 174102, Control_c, 0, 64, 33
1, 174116, Control_c, 0, 64, 36
1, 174131, Control_c, 0, 64, 39
1, 174142, Note_on_c, 0, 69, 44
1, 174146, Control_c, 0, 64, 41
1, 174161, Control_c, 0, 64, 42
1, 174176, Control_c, 0, 64, 43
1, 174190, Control_c, 0, 64, 43
1, 174294, Control_c, 0, 64, 43
1, 174303, Note_on_c, 0, 48, 38
1, 174324, Control_c, 0, 64, 42
1, 174339, Control_c, 0, 64, 40
1, 174353, Control_c, 0, 64, 37
1, 174368, Control_c, 0, 64, 29
1, 174382, Note_on_c, 0, 45, 50
1, 174383, Control_c, 0, 64, 10
1, 174398, Control_c, 0, 64, 0
1, 174411, Note_off_c, 0, 52, 57
1, 174421, Note_off_c, 0, 69, 58
1, 174434, Note_on_c, 0, 68, 49
1, 174449, Note_on_c, 0, 41, 55
1, 174455, Note_off_c, 0, 48, 34
1, 174511, Note_off_c, 0, 45, 53
1, 174745, Note_on_c, 0, 69, 57
1, 174807, Control_c, 0, 64, 35
1, 174815, Note_off_c, 0, 64, 52
1, 174821, Control_c, 0, 64, 55
1, 174836, Control_c, 0, 64, 62
1, 174851, Control_c, 0, 64, 65
1, 174866, Control_c, 0, 64, 66
1, 174881, Control_c, 0, 64, 67
1, 174896, Control_c, 0, 64, 69
1, 174911, Control_c, 0, 64, 72
1, 174926, Control_c, 0, 64, 74
1, 174940, Control_c, 0, 64, 75
1, 174970, Control_c, 0, 64, 76
1, 175000, Control_c, 0, 64, 76
1, 175031, Note_on_c, 0, 71, 70
1, 175044, Control_c, 0, 64, 77
1, 175088, Control_c, 0, 64, 77
1, 175103, Control_c, 0, 64, 78
1, 175136, Note_off_c, 0, 69, 37
1, 175147, Control_c, 0, 64, 78
1, 175157, Note_off_c, 0, 41, 37
1, 175177, Control_c, 0, 64, 79
1, 175184, Note_off_c, 0, 68, 34
1, 175206, Control_c, 0, 64, 79
1, 175236, Control_c, 0, 64, 80
1, 175251, Control_c, 0, 64, 80
1, 175266, Control_c, 0, 64, 81
1, 175281, Note_off_c, 0, 71, 55
1, 175319, Note_on_c, 0, 72, 68
1, 175322, Note_on_c, 0, 41, 32
1, 175325, Control_c, 0, 64, 80
1, 175339, Note_on_c, 0, 69, 53
1, 175340, Control_c, 0, 64, 78
1, 175343, Note_on_c, 0, 63, 56
1, 175362, Control_c, 0, 64, 77
1, 175421, Note_off_c, 0, 69, 62
1, 175436, Control_c, 0, 64, 77
1, 175451, Control_c, 0, 64, 78
1, 175469, Note_off_c, 0, 72, 63
1, 175480, Note_off_c, 0, 63, 60
1, 175606, Note_on_c, 0, 40, 48
1, 175612, Note_off_c, 0, 41, 39
1, 175634, Note_on_c, 0, 69, 63
1, 175635, Note_on_c, 0, 72, 69
1, 175644, Control_c, 0, 64, 77
1, 175650, Note_on_c, 0, 64, 58
1, 175659, Control_c, 0, 64, 74
1, 175674, Control_c, 0, 64, 70
1, 175689, Control_c, 0, 64, 66
1, 175704, Control_c, 0, 64, 60
1, 175719, Control_c, 0, 64, 47
1, 175734, Control_c, 0, 64, 0
1, 175927, Note_on_c, 0, 42, 60
1, 175936, Note_on_c, 0, 63, 69
1, 176020, Note_off_c, 0, 40, 43
1, 176026, Note_off_c, 0, 64, 55
1, 176065, Note_off_c, 0, 69, 39
1, 176073, Control_c, 0, 64, 38
1, 176088, Control_c, 0, 64, 52
1, 176111, Control_c, 0, 64, 56
1, 176126, Control_c, 0, 64, 57
1, 176141, Control_c, 0, 64, 58
1, 176156, Control_c, 0, 64, 58
1, 176170, Control_c, 0, 64, 58
1, 176185, Control_c, 0, 64, 57
1, 176200, Control_c, 0, 64, 56
1, 176215, Control_c, 0, 64, 52
1, 176230, Control_c, 0, 64, 44
1, 176233, Note_on_c, 0, 43, 57
1, 176238, Note_on_c, 0, 67, 71
1, 176242, Note_on_c, 0, 62, 70
1, 176244, Control_c, 0, 64, 22
1, 176259, Control_c, 0, 64, 0
1, 176270, Note_off_c, 0, 42, 60
1, 176288, Note_off_c, 0, 63, 62
1, 176318, Note_off_c, 0, 72, 63
1, 176539, Note_on_c, 0, 72, 69
1, 176541, Note_off_c, 0, 43, 62
1, 176549, Note_on_c, 0, 44, 58
1, 176556, Control_c, 0, 64, 8
1, 176571, Control_c, 0, 64, 49
1, 176574, Note_on_c, 0, 66, 50
1, 176574, Note_off_c, 0, 67, 58
1, 176586, Control_c, 0, 64, 58
1, 176601, Control_c, 0, 64, 59
1, 176616, Control_c, 0, 64, 59
1, 176631, Control_c, 0, 64, 58
1, 176641, Note_off_c, 0, 62, 50
1, 176646, Control_c, 0, 64, 56
1, 176660, Control_c, 0, 64, 56
1, 176675, Control_c, 0, 64, 56
1, 176690, Control_c, 0, 64, 58
1, 176704, Control_c, 0, 64, 61
1, 176719, Control_c, 0, 64, 64
1, 176734, Control_c, 0, 64, 67
1, 176749, Control_c, 0, 64, 71
1, 176753, Note_off_c, 0, 66, 59
1, 176764, Control_c, 0, 64, 75
1, 176766, Note_off_c, 0, 44, 56
1, 176768, Note_off_c, 0, 72, 62
1, 176778, Control_c, 0, 64, 77
1, 176793, Control_c, 0, 64, 77
1, 176808, Control_c, 0, 64, 78
1, 176838, Control_c, 0, 64, 78
1, 176875, Control_c, 0, 64, 79
1, 177006, Note_on_c, 0, 72, 67
1, 177023, Control_c, 0, 64, 78
1, 177037, Control_c, 0, 64, 77
1, 177043, Note_on_c, 0, 44, 23
1, 177047, Note_on_c, 0, 62, 47
1, 177052, Control_c, 0, 64, 75
1, 177054, Note_on_c, 0, 66, 43
1, 177067, Control_c, 0, 64, 71
1, 177082, Control_c, 0, 64, 66
1, 177097, Control_c, 0, 64, 59
1, 177111, Control_c, 0, 64, 35
1, 177126, Control_c, 0, 64, 0
1, 177231, Control_c, 0, 64, 40
1, 177246, Control_c, 0, 64, 58
1, 177261, Control_c, 0, 64, 64
1, 177276, Control_c, 0, 64, 65
1, 177290, Control_c, 0, 64, 66
1, 177305, Control_c, 0, 64, 68
1, 177320, Control_c, 0, 64, 71
1, 177334, Control_c, 0, 64, 75
1, 177349, Control_c, 0, 64, 76
1, 177364, Control_c, 0, 64, 77
1, 177379, Control_c, 0, 67, 13
1, 177394, Control_c, 0, 64, 77
1, 177394, Control_c, 0, 67, 25
1, 177409, Control_c, 0, 64, 78
1, 177409, Control_c, 0, 67, 38
1, 177424, Control_c, 0, 64, 78
1, 177424, Control_c, 0, 67, 52
1, 177439, Control_c, 0, 67, 66
1, 177453, Control_c, 0, 64, 79
1, 177453, Control_c, 0, 67, 80
1, 177468, Control_c, 0, 67, 94
1, 177483, Control_c, 0, 67, 110
1, 177498, Control_c, 0, 67, 127
1, 177501, Note_off_c, 0, 66, 49
1, 177623, Control_c, 0, 64, 78
1, 177635, Note_off_c, 0, 44, 36
1, 177653, Control_c, 0, 64, 78
1, 177698, Control_c, 0, 64, 77
1, 177728, Control_c, 0, 64, 77
1, 177742, Control_c, 0, 64, 75
1, 177757, Control_c, 0, 64, 72
1, 177759, Note_off_c, 0, 72, 62
1, 177772, Control_c, 0, 64, 65
1, 177773, Note_on_c, 0, 71, 44
1, 177783, Note_on_c, 0, 67, 37
1, 177787, Control_c, 0, 64, 56
1, 177796, Note_on_c, 0, 43, 30
1, 177802, Control_c, 0, 64, 0
1, 177861, Note_off_c, 0, 62, 35
1, 177905, Control_c, 0, 64, 57
1, 177920, Control_c, 0, 64, 67
1, 177936, Control_c, 0, 64, 73
1, 177951, Control_c, 0, 64, 75
1, 177965, Control_c, 0, 64, 76
1, 177972, Note_off_c, 0, 67, 60
1, 177987, Note_off_c, 0, 71, 63
1, 177995, Control_c, 0, 64, 76
1, 178010, Control_c, 0, 64, 77
1, 178157, Note_off_c, 0, 43, 40
1, 178202, Control_c, 0, 64, 76
1, 178218, Note_on_c, 0, 77, 51
1, 178247, Control_c, 0, 64, 76
1, 178261, Control_c, 0, 64, 75
1, 178276, Control_c, 0, 64, 74
1, 178291, Control_c, 0, 64, 74
1, 178310, Note_off_c, 0, 77, 61
1, 178336, Control_c, 0, 64, 73
1, 178372, Control_c, 0, 64, 73
1, 178402, Control_c, 0, 64, 72
1, 178404, Note_on_c, 0, 75, 39
1, 178417, Control_c, 0, 64, 71
1, 178417, Control_c, 0, 67, 120
1, 178431, Control_c, 0, 64, 70
1, 178431, Control_c, 0, 67, 106
1, 178434, Note_off_c, 0, 75, 56
1, 178446, Control_c, 0, 64, 68
1, 178446, Control_c, 0, 67, 90
1, 178461, Control_c, 0, 64, 65
1, 178461, Control_c, 0, 67, 71
1, 178468, Note_on_c, 0, 77, 60
1, 178476, Control_c, 0, 64, 63
1, 178476, Control_c, 0, 67, 52
1, 178491, Control_c, 0, 64, 59
1, 178491, Control_c, 0, 67, 35
1, 178506, Control_c, 0, 64, 52
1, 178506, Control_c, 0, 67, 21
1, 178518, Note_on_c, 0, 75, 66
1, 178521, Control_c, 0, 64, 39
1, 178521, Control_c, 0, 67, 13
1, 178536, Control_c, 0, 64, 0
1, 178536, Control_c, 0, 67, 0
1, 178595, Note_off_c, 0, 77, 56
1, 178818, Note_on_c, 0, 74, 63
1, 178818, Control_c, 0, 64, 12
1, 178833, Control_c, 0, 64, 17
1, 178848, Control_c, 0, 64, 22
1, 178862, Control_c, 0, 64, 26
1, 178877, Control_c, 0, 64, 31
1, 178892, Control_c, 0, 64, 36
1, 178905, Note_off_c, 0, 75, 60
1, 178906, Control_c, 0, 64, 39
1, 178921, Control_c, 0, 64, 40
1, 178936, Control_c, 0, 64, 41
1, 178951, Control_c, 0, 64, 42
1, 178966, Control_c, 0, 64, 44
1, 178980, Control_c, 0, 64, 45
1, 178995, Control_c, 0, 64, 46
1, 179010, Control_c, 0, 64, 47
1, 179025, Control_c, 0, 64, 48
1, 179040, Control_c, 0, 64, 49
1, 179054, Control_c, 0, 64, 51
1, 179069, Control_c, 0, 64, 53
1, 179084, Control_c, 0, 64, 54
1, 179106, Control_c, 0, 64, 55
1, 179121, Note_on_c, 0, 80, 63
1, 179121, Control_c, 0, 64, 56
1, 179136, Control_c, 0, 64, 58
1, 179151, Control_c, 0, 64, 60
1, 179166, Control_c, 0, 64, 62
1, 179180, Control_c, 0, 64, 64
1, 179195, Control_c, 0, 64, 68
1, 179210, Control_c, 0, 64, 74
1, 179225, Control_c, 0, 64, 81
1, 179239, Control_c, 0, 64, 87
1, 179251, Note_off_c, 0, 74, 47
1, 179254, Control_c, 0, 64, 93
1, 179269, Control_c, 0, 64, 101
1, 179284, Control_c, 0, 64, 108
1, 179299, Control_c, 0, 64, 114
1, 179314, Control_c, 0, 64, 118
1, 179329, Control_c, 0, 64, 125
1, 179343, Control_c, 0, 64, 127
1, 179414, Note_on_c, 0, 62, 45
1, 179439, Note_on_c, 0, 65, 41
1, 179469, Note_off_c, 0, 62, 0
1, 179469, Note_on_c, 0, 62, 9
1, 179557, Note_on_c, 0, 77, 49
1, 179628, Note_on_c, 0, 74, 57
1, 179641, Control_c, 0, 64, 119
1, 179655, Control_c, 0, 64, 110
1, 179670, Control_c, 0, 64, 102
1, 179685, Control_c, 0, 64, 94
1, 179689, Note_on_c, 0, 63, 43
1, 179697, Note_on_c, 0, 67, 66
1, 179698, Note_on_c, 0, 60, 42
1, 179700, Control_c, 0, 64, 86
1, 179715, Control_c, 0, 64, 79
1, 179720, Note_off_c, 0, 62, 35
1, 179729, Control_c, 0, 64, 73
1, 179744, Control_c, 0, 64, 67
1, 179746, Note_off_c, 0, 65, 38
1, 179759, Control_c, 0, 64, 62
1, 179764, Note_off_c, 0, 80, 39
1, 179774, Control_c, 0, 64, 51
1, 179775, Note_off_c, 0, 77, 24
1, 179777, Note_off_c, 0, 74, 46
1, 179789, Control_c, 0, 64, 34
1, 179803, Control_c, 0, 64, 8
1, 179818, Control_c, 0, 64, 0
1, 179959, Control_c, 0, 64, 8
1, 179974, Control_c, 0, 64, 10
1, 179989, Control_c, 0, 64, 14
1, 179997, Note_on_c, 0, 62, 59
1, 179999, Note_on_c, 0, 59, 57
1, 180003, Control_c, 0, 64, 17
1, 180018, Control_c, 0, 64, 19
1, 180033, Note_off_c, 0, 60, 52
1, 180033, Control_c, 0, 64, 21
1, 180045, Note_off_c, 0, 63, 48
1, 180048, Control_c, 0, 64, 22
1, 180062, Control_c, 0, 64, 23
1, 180226, Control_c, 0, 64, 21
1, 180270, Control_c, 0, 64, 23
1, 180285, Control_c, 0, 64, 24
1, 180291, Note_on_c, 0, 63, 68
1, 180297, Note_on_c, 0, 60, 66
1, 180300, Control_c, 0, 64, 28
1, 180315, Control_c, 0, 64, 33
1, 180330, Control_c, 0, 64, 41
1, 180333, Note_off_c, 0, 62, 59
1, 180345, Control_c, 0, 64, 49
1, 180348, Note_off_c, 0, 59, 51
1, 180360, Control_c, 0, 64, 56
1, 180375, Control_c, 0, 64, 59
1, 180390, Control_c, 0, 64, 62
1, 180405, Control_c, 0, 64, 63
1, 180420, Control_c, 0, 64, 65
1, 180434, Control_c, 0, 64, 67
1, 180449, Control_c, 0, 64, 71
1, 180464, Control_c, 0, 64, 77
1, 180478, Control_c, 0, 64, 83
1, 180493, Control_c, 0, 64, 90
1, 180508, Control_c, 0, 64, 98
1, 180523, Control_c, 0, 64, 110
1, 180538, Control_c, 0, 64, 127
1, 180570, Note_on_c, 0, 62, 52
1, 180570, Note_off_c, 0, 63, 57
1, 180571, Note_on_c, 0, 65, 64
1, 180589, Note_on_c, 0, 77, 81
1, 180627, Note_off_c, 0, 67, 34
1, 180636, Note_off_c, 0, 60, 37
1, 180637, Note_off_c, 0, 65, 60
1, 180646, Note_off_c, 0, 62, 58
1, 180677, Note_off_c, 0, 77, 58
1, 180709, Note_on_c, 0, 63, 63
1, 180747, Note_on_c, 0, 67, 30
1, 180757, Note_off_c, 0, 63, 46
1, 180768, Note_on_c, 0, 75, 73
1, 180786, Note_off_c, 0, 67, 52
1, 180816, Note_on_c, 0, 77, 71
1, 180821, Note_off_c, 0, 75, 64
1, 180870, Note_on_c, 0, 65, 62
1, 180873, Note_on_c, 0, 71, 53
1, 180874, Note_on_c, 0, 75, 69
1, 180876, Note_on_c, 0, 55, 53
1, 180885, Control_c, 0, 64, 96
1, 180895, Note_on_c, 0, 68, 71
1, 180900, Control_c, 0, 64, 82
1, 180902, Note_off_c, 0, 77, 59
1, 180915, Control_c, 0, 64, 71
1, 180930, Control_c, 0, 64, 61
1, 180945, Control_c, 0, 64, 40
1, 180959, Control_c, 0, 64, 0
1, 181161, Note_on_c, 0, 74, 75
1, 181192, Note_off_c, 0, 75, 64
1, 181317, Control_c, 0, 64, 19
1, 181332, Control_c, 0, 64, 29
1, 181354, Control_c, 0, 64, 35
1, 181369, Control_c, 0, 64, 37
1, 181383, Control_c, 0, 64, 39
1, 181398, Control_c, 0, 64, 41
1, 181413, Control_c, 0, 64, 46
1, 181427, Control_c, 0, 64, 52
1, 181442, Control_c, 0, 64, 55
1, 181457, Control_c, 0, 64, 57
1, 181472, Control_c, 0, 64, 59
1, 181480, Note_on_c, 0, 80, 81
1, 181487, Control_c, 0, 64, 61
1, 181502, Control_c, 0, 64, 64
1, 181517, Control_c, 0, 64, 69
1, 181531, Control_c, 0, 64, 77
1, 181546, Control_c, 0, 64, 87
1, 181561, Control_c, 0, 64, 94
1, 181576, Control_c, 0, 64, 97
1, 181583, Note_off_c, 0, 55, 36
1, 181591, Control_c, 0, 64, 100
1, 181606, Control_c, 0, 64, 103
1, 181621, Control_c, 0, 64, 104
1, 181628, Note_off_c, 0, 74, 55
1, 181635, Control_c, 0, 64, 105
1, 181643, Note_off_c, 0, 65, 37
1, 181675, Note_off_c, 0, 71, 39
1, 181700, Note_off_c, 0, 68, 36
1, 181760, Note_on_c, 0, 65, 50
1, 181766, Note_on_c, 0, 62, 49
1, 181783, Control_c, 0, 64, 104
1, 181842, Control_c, 0, 64, 104
1, 181872, Control_c, 0, 64, 103
1, 181887, Control_c, 0, 64, 102
1, 181901, Control_c, 0, 64, 100
1, 181916, Control_c, 0, 64, 99
1, 181931, Note_on_c, 0, 77, 53
1, 181931, Control_c, 0, 64, 98
1, 181946, Control_c, 0, 64, 96
1, 181961, Control_c, 0, 64, 94
1, 181976, Control_c, 0, 64, 90
1, 181989, Note_on_c, 0, 74, 57
1, 181991, Control_c, 0, 64, 85
1, 182005, Control_c, 0, 64, 80
1, 182020, Control_c, 0, 64, 75
1, 182035, Note_on_c, 0, 63, 45
1, 182035, Control_c, 0, 64, 69
1, 182048, Note_on_c, 0, 67, 71
1, 182050, Control_c, 0, 64, 64
1, 182050, Note_on_c, 0, 60, 46
1, 182059, Note_off_c, 0, 77, 51
1, 182065, Control_c, 0, 64, 54
1, 182071, Note_off_c, 0, 62, 35
1, 182080, Control_c, 0, 64, 33
1, 182080, Note_off_c, 0, 65, 40
1, 182102, Control_c, 0, 64, 0
1, 182145, Note_off_c, 0, 74, 61
1, 182184, Note_off_c, 0, 80, 36
1, 182324, Note_on_c, 0, 62, 61
1, 182334, Note_on_c, 0, 59, 60
1, 182369, Control_c, 0, 64, 8
1, 182371, Note_off_c, 0, 63, 61
1, 182378, Note_off_c, 0, 60, 59
1, 182443, Control_c, 0, 64, 10
1, 182561, Control_c, 0, 64, 12
1, 182576, Control_c, 0, 64, 15
1, 182591, Control_c, 0, 64, 18
1, 182605, Control_c, 0, 64, 21
1, 182612, Note_on_c, 0, 63, 69
1, 182615, Note_on_c, 0, 60, 65
1, 182620, Control_c, 0, 64, 23
1, 182635, Control_c, 0, 64, 27
1, 182649, Control_c, 0, 64, 32
1, 182652, Note_off_c, 0, 62, 56
1, 182664, Control_c, 0, 64, 35
1, 182675, Note_off_c, 0, 59, 52
1, 182679, Control_c, 0, 64, 38
1, 182694, Control_c, 0, 64, 42
1, 182709, Control_c, 0, 64, 48
1, 182725, Control_c, 0, 64, 54
1, 182740, Control_c, 0, 64, 60
1, 182754, Control_c, 0, 64, 61
1, 182769, Control_c, 0, 64, 62
1, 182784, Control_c, 0, 64, 63
1, 182799, Control_c, 0, 64, 65
1, 182814, Control_c, 0, 64, 68
1, 182828, Control_c, 0, 64, 73
1, 182851, Control_c, 0, 64, 81
1, 182866, Control_c, 0, 64, 86
1, 182880, Control_c, 0, 64, 91
1, 182887, Note_on_c, 0, 62, 60
1, 182887, Note_on_c, 0, 65, 64
1, 182889, Note_on_c, 0, 77, 78
1, 182895, Control_c, 0, 64, 95
1, 182900, Note_off_c, 0, 63, 60
1, 182910, Control_c, 0, 64, 99
1, 182925, Control_c, 0, 64, 104
1, 182926, Note_off_c, 0, 60, 55
1, 182940, Control_c, 0, 64, 110
1, 182944, Note_off_c, 0, 65, 60
1, 182954, Control_c, 0, 64, 115
1, 182959, Note_off_c, 0, 67, 35
1, 182960, Note_off_c, 0, 62, 55
1, 182969, Control_c, 0, 64, 119
1, 182974, Note_off_c, 0, 77, 58
1, 182984, Control_c, 0, 64, 121
1, 183037, Note_on_c, 0, 63, 58
1, 183056, Note_on_c, 0, 75, 69
1, 183064, Note_on_c, 0, 67, 46
1, 183085, Note_off_c, 0, 63, 58
1, 183090, Note_off_c, 0, 67, 56
1, 183096, Note_off_c, 0, 75, 64
1, 183099, Note_on_c, 0, 77, 74
1, 183162, Control_c, 0, 64, 119
1, 183166, Note_on_c, 0, 75, 73
1, 183174, Note_off_c, 0, 77, 58
1, 183177, Control_c, 0, 64, 109
1, 183186, Note_on_c, 0, 65, 75
1, 183190, Note_on_c, 0, 71, 57
1, 183192, Control_c, 0, 64, 95
1, 183194, Note_on_c, 0, 68, 70
1, 183195, Note_on_c, 0, 55, 67
1, 183206, Control_c, 0, 64, 83
1, 183221, Control_c, 0, 64, 70
1, 183236, Control_c, 0, 64, 60
1, 183251, Control_c, 0, 64, 20
1, 183266, Control_c, 0, 64, 0
1, 183463, Note_on_c, 0, 74, 72
1, 183519, Note_off_c, 0, 75, 51
1, 183777, Control_c, 0, 64, 38
1, 183778, Note_on_c, 0, 80, 89
1, 183792, Control_c, 0, 64, 62
1, 183802, Note_off_c, 0, 74, 58
1, 183807, Control_c, 0, 64, 68
1, 183821, Control_c, 0, 64, 74
1, 183836, Control_c, 0, 64, 79
1, 183851, Control_c, 0, 64, 81
1, 183866, Control_c, 0, 64, 83
1, 183877, Note_off_c, 0, 55, 61
1, 183881, Control_c, 0, 64, 87
1, 183895, Control_c, 0, 64, 91
1, 183906, Note_off_c, 0, 71, 40
1, 183910, Note_off_c, 0, 65, 50
1, 183910, Control_c, 0, 64, 92
1, 183925, Note_off_c, 0, 68, 56
1, 183955, Control_c, 0, 64, 91
1, 183970, Control_c, 0, 64, 88
1, 183985, Control_c, 0, 64, 80
1, 184000, Control_c, 0, 64, 71
1, 184015, Control_c, 0, 64, 64
1, 184029, Control_c, 0, 64, 58
1, 184044, Control_c, 0, 64, 57
1, 184049, Note_on_c, 0, 65, 59
1, 184056, Note_on_c, 0, 62, 48
1, 184059, Control_c, 0, 64, 59
1, 184065, Note_on_c, 0, 55, 50
1, 184074, Control_c, 0, 64, 62
1, 184089, Control_c, 0, 64, 64
1, 184103, Control_c, 0, 64, 66
1, 184118, Control_c, 0, 64, 67
1, 184133, Control_c, 0, 64, 68
1, 184137, Note_off_c, 0, 80, 57
1, 184148, Control_c, 0, 64, 69
1, 184163, Control_c, 0, 64, 70
1, 184207, Control_c, 0, 64, 70
1, 184221, Control_c, 0, 64, 71
1, 184236, Control_c, 0, 64, 71
1, 184251, Control_c, 0, 64, 73
1, 184266, Control_c, 0, 64, 75
1, 184274, Note_on_c, 0, 74, 66
1, 184281, Control_c, 0, 64, 79
1, 184285, Poly_aftertouch_c, 0, 77, 0
1, 184295, Control_c, 0, 64, 82
1, 184311, Control_c, 0, 64, 83
1, 184348, Control_c, 0, 64, 79
1, 184360, Note_on_c, 0, 83, 93
1, 184363, Control_c, 0, 64, 68
1, 184378, Control_c, 0, 64, 38
1, 184393, Control_c, 0, 64, 0
1, 184452, Control_c, 0, 64, 46
1, 184467, Control_c, 0, 64, 65
1, 184482, Control_c, 0, 64, 70
1, 184486, Note_off_c, 0, 65, 54
1, 184497, Control_c, 0, 64, 72
1, 184513, Note_off_c, 0, 62, 34
1, 184526, Note_off_c, 0, 55, 58
1, 184526, Control_c, 0, 64, 73
1, 184541, Control_c, 0, 64, 74
1, 184556, Control_c, 0, 64, 77
1, 184571, Control_c, 0, 64, 82
1, 184586, Control_c, 0, 64, 87
1, 184598, Note_off_c, 0, 74, 57
1, 184600, Control_c, 0, 64, 90
1, 184615, Control_c, 0, 64, 91
1, 184630, Control_c, 0, 64, 92
1, 184644, Control_c, 0, 64, 95
1, 184659, Control_c, 0, 64, 99
1, 184661, Note_on_c, 0, 59, 58
1, 184667, Note_on_c, 0, 55, 46
1, 184667, Note_on_c, 0, 62, 52
1, 184674, Control_c, 0, 64, 104
1, 184689, Control_c, 0, 64, 109
1, 184704, Control_c, 0, 64, 115
1, 184718, Control_c, 0, 64, 125
1, 184733, Control_c, 0, 64, 127
1, 184829, Note_off_c, 0, 55, 56
1, 184841, Note_off_c, 0, 83, 38
1, 184866, Note_on_c, 0, 80, 68
1, 184879, Note_off_c, 0, 62, 35
1, 184888, Note_off_c, 0, 59, 36
1, 184934, Note_on_c, 0, 77, 74
1, 184937, Note_off_c, 0, 80, 63
1, 185001, Note_on_c, 0, 86, 91
1, 185006, Note_on_c, 0, 56, 57
1, 185009, Note_on_c, 0, 62, 53
1, 185016, Control_c, 0, 64, 86
1, 185016, Note_on_c, 0, 78, 77
1, 185031, Control_c, 0, 64, 68
1, 185045, Control_c, 0, 64, 24
1, 185052, Note_off_c, 0, 77, 60
1, 185060, Control_c, 0, 64, 0
1, 185305, Control_c, 0, 64, 46
1, 185320, Control_c, 0, 64, 56
1, 185335, Control_c, 0, 64, 56
1, 185350, Control_c, 0, 64, 58
1, 185365, Control_c, 0, 64, 62
1, 185380, Control_c, 0, 64, 66
1, 185394, Control_c, 0, 64, 69
1, 185409, Control_c, 0, 64, 70
1, 185424, Control_c, 0, 64, 71
1, 185439, Control_c, 0, 64, 74
1, 185448, Note_off_c, 0, 78, 62
1, 185454, Control_c, 0, 64, 79
1, 185468, Control_c, 0, 64, 81
1, 185513, Control_c, 0, 64, 82
1, 185675, Control_c, 0, 64, 81
1, 185702, Note_on_c, 0, 84, 56
1, 185720, Control_c, 0, 64, 80
1, 185735, Control_c, 0, 64, 79
1, 185749, Control_c, 0, 64, 76
1, 185764, Control_c, 0, 64, 72
1, 185773, Note_off_c, 0, 84, 63
1, 185779, Control_c, 0, 64, 67
1, 185793, Control_c, 0, 64, 59
1, 185799, Note_off_c, 0, 86, 55
1, 185808, Control_c, 0, 64, 30
1, 185809, Note_on_c, 0, 83, 53
1, 185823, Control_c, 0, 64, 0
1, 185832, Note_on_c, 0, 79, 36
1, 185862, Note_on_c, 0, 55, 28
1, 185869, Note_off_c, 0, 56, 30
1, 185920, Control_c, 0, 64, 43
1, 185935, Control_c, 0, 64, 64
1, 185950, Control_c, 0, 64, 71
1, 185965, Control_c, 0, 64, 75
1, 185979, Control_c, 0, 64, 75
1, 185994, Control_c, 0, 64, 78
1, 186008, Note_off_c, 0, 62, 57
1, 186009, Control_c, 0, 64, 83
1, 186024, Control_c, 0, 64, 88
1, 186039, Control_c, 0, 64, 91
1, 186041, Note_off_c, 0, 55, 39
1, 186155, Note_off_c, 0, 79, 51
1, 186179, Note_off_c, 0, 83, 61
1, 186276, Control_c, 0, 64, 88
1, 186279, Note_on_c, 0, 47, 44
1, 186280, Note_on_c, 0, 43, 42
1, 186290, Control_c, 0, 64, 82
1, 186305, Control_c, 0, 64, 74
1, 186320, Control_c, 0, 64, 66
1, 186335, Control_c, 0, 64, 59
1, 186350, Control_c, 0, 64, 49
1, 186365, Control_c, 0, 64, 49
1, 186379, Control_c, 0, 64, 55
1, 186393, Control_c, 0, 64, 59
1, 186402, Note_off_c, 0, 47, 50
1, 186408, Control_c, 0, 64, 61
1, 186423, Control_c, 0, 64, 62
1, 186432, Note_on_c, 0, 48, 55
1, 186438, Control_c, 0, 64, 63
1, 186438, Note_on_c, 0, 45, 52
1, 186453, Control_c, 0, 64, 63
1, 186481, Note_off_c, 0, 43, 49
1, 186512, Control_c, 0, 64, 64
1, 186527, Control_c, 0, 64, 66
1, 186542, Control_c, 0, 64, 68
1, 186557, Control_c, 0, 64, 72
1, 186557, Note_off_c, 0, 45, 63
1, 186561, Note_off_c, 0, 48, 60
1, 186564, Note_on_c, 0, 47, 66
1, 186571, Control_c, 0, 64, 77
1, 186574, Note_on_c, 0, 50, 68
1, 186593, Control_c, 0, 64, 81
1, 186608, Control_c, 0, 64, 83
1, 186611, Note_off_c, 0, 47, 65
1, 186623, Control_c, 0, 64, 84
1, 186638, Control_c, 0, 64, 85
1, 186653, Control_c, 0, 64, 85
1, 186682, Control_c, 0, 64, 86
1, 186697, Control_c, 0, 64, 87
1, 186712, Control_c, 0, 64, 88
1, 186712, Note_on_c, 0, 51, 73
1, 186715, Note_on_c, 0, 48, 71
1, 186715, Note_off_c, 0, 50, 60
1, 186727, Control_c, 0, 64, 89
1, 186742, Control_c, 0, 64, 90
1, 186757, Control_c, 0, 64, 91
1, 186802, Control_c, 0, 64, 89
1, 186817, Control_c, 0, 64, 80
1, 186832, Control_c, 0, 64, 69
1, 186846, Control_c, 0, 64, 60
1, 186855, Note_on_c, 0, 65, 67
1, 186857, Note_on_c, 0, 53, 70
1, 186861, Control_c, 0, 64, 45
1, 186862, Note_on_c, 0, 50, 63
1, 186862, Note_off_c, 0, 51, 61
1, 186876, Control_c, 0, 64, 42
1, 186891, Control_c, 0, 64, 45
1, 186897, Note_off_c, 0, 48, 60
1, 186906, Control_c, 0, 64, 45
1, 186920, Control_c, 0, 64, 44
1, 186935, Control_c, 0, 64, 40
1, 186950, Control_c, 0, 64, 10
1, 186965, Control_c, 0, 64, 0
1, 186973, Note_on_c, 0, 55, 69
1, 186975, Note_off_c, 0, 65, 61
1, 186992, Note_on_c, 0, 51, 67
1, 186995, Note_off_c, 0, 53, 61
1, 187012, Note_off_c, 0, 50, 60
1, 187037, Note_on_c, 0, 63, 58
1, 187037, Note_off_c, 0, 55, 62
1, 187084, Note_on_c, 0, 65, 77
1, 187085, Note_off_c, 0, 63, 64
1, 187116, Note_on_c, 0, 53, 67
1, 187121, Note_off_c, 0, 51, 61
1, 187124, Note_on_c, 0, 63, 69
1, 187127, Note_on_c, 0, 56, 71
1, 187141, Note_on_c, 0, 59, 61
1, 187197, Note_off_c, 0, 65, 60
1, 187404, Note_on_c, 0, 62, 81
1, 187436, Note_off_c, 0, 63, 63
1, 187580, Control_c, 0, 64, 43
1, 187595, Control_c, 0, 64, 59
1, 187610, Control_c, 0, 64, 63
1, 187624, Control_c, 0, 64, 64
1, 187702, Note_on_c, 0, 68, 81
1, 187731, Note_off_c, 0, 53, 66
1, 187743, Control_c, 0, 64, 65
1, 187758, Control_c, 0, 64, 66
1, 187773, Control_c, 0, 64, 67
1, 187800, Note_off_c, 0, 56, 60
1, 187876, Control_c, 0, 64, 66
1, 187891, Control_c, 0, 64, 64
1, 187906, Control_c, 0, 64, 58
1, 187921, Control_c, 0, 64, 36
1, 187935, Control_c, 0, 64, 0
1, 187968, Note_on_c, 0, 53, 72
1, 187974, Note_on_c, 0, 43, 63
1, 187979, Note_on_c, 0, 50, 62
1, 187991, Note_off_c, 0, 59, 56
1, 188009, Control_c, 0, 64, 53
1, 188024, Control_c, 0, 64, 64
1, 188036, Note_off_c, 0, 62, 35
1, 188039, Control_c, 0, 64, 68
1, 188054, Control_c, 0, 64, 71
1, 188069, Control_c, 0, 64, 72
1, 188091, Control_c, 0, 64, 72
1, 188106, Control_c, 0, 64, 73
1, 188121, Control_c, 0, 64, 75
1, 188135, Control_c, 0, 64, 76
1, 188138, Note_on_c, 0, 65, 55
1, 188150, Control_c, 0, 64, 78
1, 188162, Note_off_c, 0, 68, 53
1, 188165, Control_c, 0, 64, 78
1, 188180, Control_c, 0, 64, 80
1, 188194, Control_c, 0, 64, 81
1, 188205, Note_off_c, 0, 65, 62
1, 188209, Control_c, 0, 64, 82
1, 188210, Note_on_c, 0, 62, 71
1, 188239, Control_c, 0, 64, 80
1, 188254, Control_c, 0, 64, 71
1, 188268, Control_c, 0, 64, 58
1, 188270, Note_on_c, 0, 71, 90
1, 188283, Control_c, 0, 64, 0
1, 188344, Control_c, 0, 64, 58
1, 188359, Control_c, 0, 64, 68
1, 188373, Control_c, 0, 64, 75
1, 188388, Control_c, 0, 64, 79
1, 188403, Control_c, 0, 64, 80
1, 188417, Control_c, 0, 64, 80
1, 188432, Note_off_c, 0, 53, 63
1, 188432, Control_c, 0, 64, 81
1, 188447, Control_c, 0, 64, 81
1, 188450, Note_off_c, 0, 50, 59
1, 188452, Note_off_c, 0, 43, 54
1, 188462, Control_c, 0, 64, 82
1, 188477, Control_c, 0, 64, 83
1, 188492, Control_c, 0, 64, 83
1, 188507, Control_c, 0, 64, 84
1, 188522, Control_c, 0, 64, 85
1, 188537, Control_c, 0, 64, 86
1, 188551, Control_c, 0, 64, 87
1, 188577, Note_on_c, 0, 50, 88
1, 188578, Note_on_c, 0, 43, 82
1, 188581, Control_c, 0, 64, 80
1, 188581, Note_on_c, 0, 47, 78
1, 188596, Control_c, 0, 64, 67
1, 188610, Control_c, 0, 64, 33
1, 188625, Control_c, 0, 64, 0
1, 188640, Note_off_c, 0, 62, 53
1, 188670, Control_c, 0, 64, 51
1, 188684, Control_c, 0, 64, 67
1, 188699, Control_c, 0, 64, 78
1, 188714, Control_c, 0, 64, 88
1, 188729, Control_c, 0, 64, 89
1, 188744, Control_c, 0, 64, 90
1, 188788, Control_c, 0, 64, 90
1, 188795, Note_off_c, 0, 71, 49
1, 188803, Control_c, 0, 64, 91
1, 188811, Note_on_c, 0, 68, 75
1, 188879, Note_off_c, 0, 43, 55
1, 188891, Note_off_c, 0, 50, 44
1, 188895, Note_on_c, 0, 65, 83
1, 188905, Note_off_c, 0, 68, 62
1, 188958, Control_c, 0, 64, 89
1, 188973, Control_c, 0, 64, 79
1, 188988, Control_c, 0, 64, 67
1, 188990, Note_on_c, 0, 74, 84
1, 188994, Note_on_c, 0, 66, 87
1, 188995, Note_off_c, 0, 47, 59
1, 188996, Note_on_c, 0, 44, 61
1, 189003, Control_c, 0, 64, 45
1, 189006, Note_on_c, 0, 50, 66
1, 189017, Control_c, 0, 64, 0
1, 189034, Note_off_c, 0, 65, 53
1, 189359, Control_c, 0, 64, 54
1, 189374, Control_c, 0, 64, 65
1, 189389, Control_c, 0, 64, 70
1, 189404, Control_c, 0, 64, 72
1, 189673, Note_on_c, 0, 72, 53
1, 189690, Note_off_c, 0, 66, 62
1, 189693, Control_c, 0, 64, 71
1, 189708, Control_c, 0, 64, 69
1, 189722, Control_c, 0, 64, 66
1, 189737, Control_c, 0, 64, 61
1, 189752, Control_c, 0, 64, 46
1, 189760, Note_off_c, 0, 72, 64
1, 189766, Control_c, 0, 64, 0
1, 189776, Note_on_c, 0, 71, 52
1, 189785, Note_off_c, 0, 74, 59
1, 189796, Note_off_c, 0, 44, 56
1, 189800, Note_on_c, 0, 67, 44
1, 189809, Note_on_c, 0, 43, 34
1, 189831, Note_off_c, 0, 50, 55
1, 190019, Control_c, 0, 64, 50
1, 190034, Control_c, 0, 64, 65
1, 190049, Control_c, 0, 64, 69
1, 190063, Control_c, 0, 64, 71
1, 190078, Control_c, 0, 64, 72
1, 190086, Note_off_c, 0, 67, 37
1, 190093, Control_c, 0, 64, 75
1, 190108, Control_c, 0, 64, 78
1, 190123, Control_c, 0, 64, 80
1, 190137, Control_c, 0, 64, 80
1, 190167, Control_c, 0, 64, 81
1, 190182, Control_c, 0, 64, 81
1, 190197, Control_c, 0, 64, 82
1, 190243, Note_off_c, 0, 43, 36
1, 190248, Note_off_c, 0, 71, 26
1, 190275, Note_on_c, 0, 67, 49
1, 190570, Note_on_c, 0, 43, 38
1, 190573, Note_on_c, 0, 55, 37
1, 190608, Note_off_c, 0, 67, 57
1, 190649, Control_c, 0, 64, 82
1, 190663, Control_c, 0, 64, 83
1, 190678, Control_c, 0, 64, 85
1, 190693, Control_c, 0, 64, 86
1, 190709, Control_c, 0, 64, 87
1, 190724, Control_c, 0, 64, 89
1, 190739, Control_c, 0, 64, 90
1, 190754, Control_c, 0, 64, 90
1, 190768, Control_c, 0, 64, 91
1, 190783, Control_c, 0, 64, 91
1, 190798, Control_c, 0, 64, 92
1, 190819, Note_on_c, 0, 67, 59
1, 190842, Control_c, 0, 64, 92
1, 190886, Control_c, 0, 64, 93
1, 190922, Note_off_c, 0, 43, 36
1, 190927, Note_off_c, 0, 55, 43
1, 190931, Control_c, 0, 64, 93
1, 190975, Control_c, 0, 64, 94
1, 191070, Note_off_c, 0, 67, 62
1, 191091, Note_on_c, 0, 55, 47
1, 191109, Note_on_c, 0, 43, 43
1, 191279, Control_c, 0, 67, 10
1, 191294, Control_c, 0, 67, 11
1, 191349, Note_on_c, 0, 67, 75
1, 191452, Note_off_c, 0, 43, 39
1, 191457, Control_c, 0, 67, 11
1, 191464, Note_off_c, 0, 55, 36
1, 191517, Control_c, 0, 67, 10
1, 191532, Control_c, 0, 67, 10
1, 191591, Control_c, 0, 67, 9
1, 191595, Note_off_c, 0, 67, 57
1, 191603, Note_on_c, 0, 55, 59
1, 191621, Note_on_c, 0, 43, 55
1, 191681, Control_c, 0, 67, 10
1, 191740, Control_c, 0, 67, 10
1, 191866, Control_c, 0, 67, 10
1, 191869, Note_on_c, 0, 67, 67
1, 191999, Control_c, 0, 67, 9
1, 192014, Control_c, 0, 67, 9
1, 192016, Note_off_c, 0, 67, 38
1, 192043, Control_c, 0, 67, 8
1, 192058, Control_c, 0, 64, 91
1, 192058, Control_c, 0, 67, 0
1, 192073, Control_c, 0, 64, 85
1, 192088, Control_c, 0, 64, 76
1, 192103, Control_c, 0, 64, 68
1, 192104, Note_on_c, 0, 68, 65
1, 192109, Note_off_c, 0, 43, 33
1, 192109, Note_off_c, 0, 55, 58
1, 192117, Control_c, 0, 64, 56
1, 192132, Control_c, 0, 64, 0
1, 192209, Note_on_c, 0, 56, 63
1, 192334, Note_on_c, 0, 55, 74
1, 192339, Note_on_c, 0, 43, 74
1, 192346, Note_on_c, 0, 60, 60
1, 192369, Note_off_c, 0, 68, 37
1, 192399, Control_c, 0, 64, 35
1, 192414, Control_c, 0, 64, 44
1, 192429, Control_c, 0, 64, 47
1, 192444, Control_c, 0, 64, 49
1, 192456, Note_off_c, 0, 56, 35
1, 192458, Note_on_c, 0, 63, 60
1, 192473, Control_c, 0, 64, 49
1, 192503, Control_c, 0, 64, 50
1, 192525, Note_off_c, 0, 60, 46
1, 192584, Control_c, 0, 64, 49
1, 192599, Control_c, 0, 64, 48
1, 192605, Note_on_c, 0, 68, 76
1, 192614, Control_c, 0, 64, 47
1, 192619, Note_off_c, 0, 63, 54
1, 192656, Note_off_c, 0, 43, 57
1, 192658, Control_c, 0, 64, 48
1, 192668, Note_off_c, 0, 55, 57
1, 192688, Control_c, 0, 64, 49
1, 192709, Note_on_c, 0, 56, 64
1, 192821, Control_c, 0, 64, 48
1, 192840, Note_on_c, 0, 53, 84
1, 192843, Note_on_c, 0, 62, 73
1, 192844, Note_on_c, 0, 41, 81
1, 192864, Note_off_c, 0, 68, 51
1, 192933, Note_off_c, 0, 56, 52
1, 192939, Control_c, 0, 64, 49
1, 192954, Control_c, 0, 64, 50
1, 192978, Note_on_c, 0, 65, 65
1, 192984, Control_c, 0, 64, 51
1, 192999, Control_c, 0, 64, 51
1, 193014, Control_c, 0, 64, 53
1, 193029, Control_c, 0, 64, 54
1, 193044, Control_c, 0, 64, 56
1, 193058, Control_c, 0, 64, 58
1, 193073, Control_c, 0, 64, 60
1, 193088, Control_c, 0, 64, 61
1, 193096, Note_on_c, 0, 68, 78
1, 193103, Control_c, 0, 64, 63
1, 193118, Control_c, 0, 64, 64
1, 193163, Control_c, 0, 64, 64
1, 193175, Note_off_c, 0, 53, 59
1, 193191, Note_off_c, 0, 62, 42
1, 193205, Note_off_c, 0, 41, 62
1, 193208, Note_on_c, 0, 56, 68
1, 193237, Control_c, 0, 64, 65
1, 193291, Note_off_c, 0, 68, 52
1, 193296, Control_c, 0, 64, 64
1, 193300, Note_off_c, 0, 65, 17
1, 193311, Control_c, 0, 64, 61
1, 193333, Control_c, 0, 64, 53
1, 193345, Note_on_c, 0, 50, 93
1, 193347, Note_on_c, 0, 38, 85
1, 193348, Control_c, 0, 64, 24
1, 193354, Note_on_c, 0, 62, 78
1, 193363, Control_c, 0, 64, 0
1, 193406, Note_off_c, 0, 56, 55
1, 193452, Control_c, 0, 64, 30
1, 193467, Control_c, 0, 64, 44
1, 193481, Note_on_c, 0, 65, 67
1, 193481, Control_c, 0, 64, 49
1, 193496, Control_c, 0, 64, 52
1, 193511, Control_c, 0, 64, 54
1, 193526, Control_c, 0, 64, 57
1, 193540, Control_c, 0, 64, 59
1, 193555, Control_c, 0, 64, 61
1, 193559, Note_off_c, 0, 62, 36
1, 193570, Control_c, 0, 64, 63
1, 193585, Control_c, 0, 64, 63
1, 193590, Note_on_c, 0, 68, 80
1, 193599, Control_c, 0, 64, 64
1, 193614, Control_c, 0, 64, 65
1, 193619, Note_off_c, 0, 65, 54
1, 193629, Control_c, 0, 64, 66
1, 193644, Control_c, 0, 64, 67
1, 193657, Note_off_c, 0, 50, 57
1, 193659, Control_c, 0, 64, 68
1, 193682, Note_off_c, 0, 38, 62
1, 193708, Note_off_c, 0, 68, 57
1, 193717, Note_on_c, 0, 65, 72
1, 193818, Note_on_c, 0, 69, 75
1, 193822, Control_c, 0, 64, 67
1, 193825, Note_on_c, 0, 36, 75
1, 193831, Note_on_c, 0, 48, 61
1, 193837, Control_c, 0, 64, 65
1, 193852, Control_c, 0, 64, 63
1, 193860, Note_on_c, 0, 47, 40
1, 193862, Note_on_c, 0, 63, 58
1, 193863, Note_off_c, 0, 48, 55
1, 193866, Control_c, 0, 64, 59
1, 193877, Note_off_c, 0, 36, 63
1, 193881, Control_c, 0, 64, 54
1, 193887, Note_off_c, 0, 69, 65
1, 193896, Control_c, 0, 64, 50
1, 193899, Note_off_c, 0, 47, 31
1, 193911, Control_c, 0, 64, 49
1, 193920, Note_off_c, 0, 65, 0
1, 193926, Control_c, 0, 64, 51
1, 193935, Note_on_c, 0, 65, 45
1, 193941, Control_c, 0, 64, 52
1, 193956, Control_c, 0, 64, 53
1, 193971, Note_off_c, 0, 63, 61
1, 193971, Control_c, 0, 64, 53
1, 193986, Control_c, 0, 64, 53
1, 194001, Control_c, 0, 64, 52
1, 194015, Control_c, 0, 64, 50
1, 194030, Control_c, 0, 64, 47
1, 194045, Control_c, 0, 64, 45
1, 194058, Note_on_c, 0, 46, 66
1, 194060, Note_on_c, 0, 34, 60
1, 194066, Note_on_c, 0, 70, 79
1, 194070, Note_on_c, 0, 62, 67
1, 194082, Control_c, 0, 64, 46
1, 194086, Note_off_c, 0, 65, 60
1, 194097, Control_c, 0, 64, 48
1, 194099, Note_off_c, 0, 34, 66
1, 194106, Note_off_c, 0, 46, 57
1, 194111, Control_c, 0, 64, 51
1, 194126, Control_c, 0, 64, 56
1, 194135, Note_off_c, 0, 70, 63
1, 194141, Control_c, 0, 64, 61
1, 194156, Control_c, 0, 64, 63
1, 194170, Control_c, 0, 64, 64
1, 194185, Control_c, 0, 64, 64
1, 194200, Control_c, 0, 64, 65
1, 194215, Control_c, 0, 64, 67
1, 194224, Note_off_c, 0, 62, 36
1, 194230, Control_c, 0, 64, 70
1, 194231, Note_on_c, 0, 73, 44
1, 194245, Control_c, 0, 64, 73
1, 194260, Control_c, 0, 64, 74
1, 194290, Note_off_c, 0, 73, 51
1, 194314, Note_on_c, 0, 70, 78
1, 194334, Control_c, 0, 64, 74
1, 194349, Control_c, 0, 64, 75
1, 194363, Control_c, 0, 64, 77
1, 194378, Control_c, 0, 64, 80
1, 194393, Control_c, 0, 64, 84
1, 194408, Control_c, 0, 64, 87
1, 194423, Control_c, 0, 64, 90
1, 194437, Control_c, 0, 64, 94
1, 194452, Control_c, 0, 64, 97
1, 194467, Control_c, 0, 64, 99
1, 194482, Control_c, 0, 64, 101
1, 194497, Control_c, 0, 64, 102
1, 194547, Note_off_c, 0, 70, 49
1, 194555, Control_c, 0, 64, 100
1, 194561, Note_on_c, 0, 58, 72
1, 194567, Note_on_c, 0, 46, 61
1, 194570, Control_c, 0, 64, 96
1, 194585, Control_c, 0, 64, 95
1, 194645, Control_c, 0, 64, 97
1, 194646, Note_off_c, 0, 46, 60
1, 194658, Note_off_c, 0, 58, 52
1, 194660, Control_c, 0, 64, 101
1, 194675, Control_c, 0, 64, 108
1, 194690, Control_c, 0, 64, 125
1, 194706, Control_c, 0, 64, 127
1, 194796, Note_on_c, 0, 70, 80
1, 195046, Note_on_c, 0, 58, 83
1, 195056, Note_on_c, 0, 46, 69
1, 195068, Control_c, 0, 64, 92
1, 195083, Control_c, 0, 64, 72
1, 195096, Note_off_c, 0, 70, 54
1, 195098, Control_c, 0, 64, 65
1, 195113, Control_c, 0, 64, 64
1, 195128, Control_c, 0, 64, 65
1, 195142, Control_c, 0, 64, 68
1, 195157, Control_c, 0, 64, 77
1, 195172, Control_c, 0, 64, 90
1, 195187, Control_c, 0, 64, 106
1, 195202, Control_c, 0, 64, 125
1, 195217, Control_c, 0, 64, 127
1, 195286, Note_on_c, 0, 70, 87
1, 195354, Note_off_c, 0, 46, 57
1, 195368, Note_off_c, 0, 58, 58
1, 195521, Note_on_c, 0, 58, 85
1, 195535, Note_on_c, 0, 46, 71
1, 195542, Note_off_c, 0, 70, 56
1, 195753, Note_off_c, 0, 46, 55
1, 195778, Note_off_c, 0, 58, 57
1, 195785, Note_on_c, 0, 70, 87
1, 195964, Note_off_c, 0, 70, 58
1, 196004, Note_on_c, 0, 59, 76
1, 196054, Control_c, 0, 64, 99
1, 196069, Control_c, 0, 64, 77
1, 196084, Control_c, 0, 64, 65
1, 196099, Control_c, 0, 64, 55
1, 196109, Note_on_c, 0, 47, 65
1, 196114, Control_c, 0, 64, 38
1, 196127, Control_c, 0, 64, 10
1, 196142, Control_c, 0, 64, 0
1, 196239, Note_on_c, 0, 51, 58
1, 196246, Note_on_c, 0, 82, 92
1, 196253, Note_on_c, 0, 70, 77
1, 196271, Note_off_c, 0, 59, 59
1, 196283, Note_off_c, 0, 47, 55
1, 196306, Control_c, 0, 64, 40
1, 196329, Control_c, 0, 64, 63
1, 196344, Control_c, 0, 64, 68
1, 196350, Note_on_c, 0, 54, 56
1, 196358, Control_c, 0, 64, 71
1, 196373, Control_c, 0, 64, 73
1, 196388, Control_c, 0, 64, 74
1, 196403, Control_c, 0, 64, 77
1, 196418, Control_c, 0, 64, 79
1, 196426, Note_off_c, 0, 51, 48
1, 196432, Control_c, 0, 64, 81
1, 196447, Control_c, 0, 64, 82
1, 196448, Poly_aftertouch_c, 0, 76, 127
1, 196462, Control_c, 0, 64, 83
1, 196469, Note_on_c, 0, 59, 67
1, 196492, Control_c, 0, 64, 83
1, 196502, Note_off_c, 0, 82, 65
1, 196507, Note_off_c, 0, 54, 54
1, 196537, Poly_aftertouch_c, 0, 76, 0
1, 196558, Note_off_c, 0, 70, 55
1, 196591, Note_on_c, 0, 47, 53
1, 196669, Control_c, 0, 64, 84
1, 196684, Control_c, 0, 64, 86
1, 196698, Control_c, 0, 64, 89
1, 196711, Note_on_c, 0, 80, 93
1, 196714, Note_off_c, 0, 59, 31
1, 196716, Note_on_c, 0, 68, 87
1, 196717, Note_on_c, 0, 53, 68
1, 196728, Control_c, 0, 64, 87
1, 196743, Control_c, 0, 64, 75
1, 196758, Control_c, 0, 64, 61
1, 196760, Note_off_c, 0, 47, 38
1, 196773, Control_c, 0, 64, 0
1, 196826, Note_on_c, 0, 56, 73
1, 196832, Control_c, 0, 64, 50
1, 196847, Control_c, 0, 64, 67
1, 196862, Control_c, 0, 64, 76
1, 196877, Control_c, 0, 64, 81
1, 196881, Note_off_c, 0, 53, 51
1, 196892, Control_c, 0, 64, 81
1, 196906, Control_c, 0, 64, 83
1, 196921, Control_c, 0, 64, 86
1, 196936, Control_c, 0, 64, 90
1, 196940, Note_off_c, 0, 80, 66
1, 196944, Note_on_c, 0, 59, 76
1, 196950, Control_c, 0, 64, 93
1, 196965, Control_c, 0, 64, 95
1, 196980, Control_c, 0, 64, 95
1, 196982, Note_off_c, 0, 56, 61
1, 196995, Note_off_c, 0, 68, 53
1, 196995, Control_c, 0, 64, 96
1, 197060, Note_on_c, 0, 47, 74
1, 197107, Control_c, 0, 64, 96
1, 197129, Note_off_c, 0, 59, 55
1, 197136, Control_c, 0, 64, 97
1, 197181, Control_c, 0, 64, 94
1, 197183, Note_on_c, 0, 53, 71
1, 197195, Note_on_c, 0, 77, 91
1, 197196, Control_c, 0, 64, 72
1, 197201, Note_on_c, 0, 65, 84
1, 197211, Control_c, 0, 64, 14
1, 197214, Note_off_c, 0, 47, 64
1, 197226, Control_c, 0, 64, 0
1, 197285, Control_c, 0, 64, 50
1, 197299, Note_on_c, 0, 56, 75
1, 197300, Control_c, 0, 64, 68
1, 197315, Control_c, 0, 64, 85
1, 197329, Control_c, 0, 64, 127
1, 197339, Note_off_c, 0, 77, 62
1, 197347, Note_off_c, 0, 53, 61
1, 197392, Note_on_c, 0, 59, 72
1, 197419, Note_off_c, 0, 65, 56
1, 197441, Note_off_c, 0, 56, 56
1, 197521, Note_on_c, 0, 47, 81
1, 197536, Note_off_c, 0, 59, 63
1, 197597, Note_off_c, 0, 47, 61
1, 197639, Note_on_c, 0, 75, 88
1, 197647, Note_on_c, 0, 66, 84
1, 197649, Note_on_c, 0, 60, 74
1, 197655, Note_on_c, 0, 68, 68
1, 197738, Note_on_c, 0, 48, 79
1, 197747, Note_off_c, 0, 66, 60
1, 197759, Note_off_c, 0, 60, 60
1, 197783, Note_off_c, 0, 68, 37
1, 197785, Note_off_c, 0, 48, 60
1, 197855, Control_c, 0, 64, 108
1, 197870, Control_c, 0, 64, 66
1, 197885, Control_c, 0, 64, 0
1, 197887, Note_on_c, 0, 73, 78
1, 197896, Note_on_c, 0, 65, 68
1, 197897, Note_on_c, 0, 61, 80
1, 197901, Note_on_c, 0, 49, 74
1, 197919, Note_off_c, 0, 75, 60
1, 197941, Note_off_c, 0, 65, 60
1, 197960, Note_off_c, 0, 73, 62
1, 198135, Note_off_c, 0, 49, 58
1, 198135, Note_off_c, 0, 61, 58
1, 198145, Note_on_c, 0, 73, 88
1, 198390, Control_c, 0, 64, 39
1, 198404, Control_c, 0, 64, 59
1, 198419, Control_c, 0, 64, 67
1, 198421, Note_on_c, 0, 61, 30
1, 198422, Note_on_c, 0, 49, 28
1, 198434, Control_c, 0, 64, 76
1, 198449, Control_c, 0, 64, 81
1, 198464, Control_c, 0, 64, 83
1, 198478, Control_c, 0, 64, 84
1, 198493, Control_c, 0, 64, 87
1, 198508, Control_c, 0, 64, 94
1, 198511, Note_off_c, 0, 73, 59
1, 198523, Control_c, 0, 64, 103
1, 198538, Control_c, 0, 64, 110
1, 198552, Control_c, 0, 64, 116
1, 198567, Control_c, 0, 64, 125
1, 198590, Control_c, 0, 64, 127
1, 198663, Note_on_c, 0, 73, 90
1, 198746, Note_off_c, 0, 49, 38
1, 198775, Note_off_c, 0, 61, 36
1, 198925, Note_on_c, 0, 61, 55
1, 198934, Note_on_c, 0, 49, 49
1, 198979, Note_off_c, 0, 73, 58
1, 199159, Note_on_c, 0, 73, 95
1, 199205, Note_off_c, 0, 49, 54
1, 199217, Note_off_c, 0, 61, 59
1, 199286, Poly_aftertouch_c, 0, 75, 0
1, 199399, Note_off_c, 0, 73, 60
1, 199415, Note_on_c, 0, 61, 75
1, 199418, Note_on_c, 0, 49, 63
1, 199652, Note_on_c, 0, 73, 88
1, 199798, Note_off_c, 0, 73, 50
1, 199893, Note_on_c, 0, 74, 82
1, 199900, Note_off_c, 0, 49, 60
1, 199912, Note_off_c, 0, 61, 61
1, 200007, Note_on_c, 0, 62, 66
1, 200145, Control_c, 0, 64, 101
1, 200146, Note_on_c, 0, 66, 77
1, 200153, Note_on_c, 0, 61, 94
1, 200156, Note_on_c, 0, 49, 89
1, 200160, Control_c, 0, 64, 60
1, 200174, Control_c, 0, 64, 0
1, 200221, Note_off_c, 0, 74, 51
1, 200275, Note_on_c, 0, 69, 70
1, 200283, Note_off_c, 0, 62, 32
1, 200383, Control_c, 0, 64, 55
1, 200398, Control_c, 0, 64, 71
1, 200399, Note_off_c, 0, 69, 64
1, 200404, Note_on_c, 0, 74, 79
1, 200412, Control_c, 0, 64, 95
1, 200427, Control_c, 0, 64, 127
1, 200454, Note_off_c, 0, 66, 39
1, 200506, Note_off_c, 0, 61, 58
1, 200511, Note_off_c, 0, 49, 59
1, 200519, Note_on_c, 0, 62, 76
1, 200605, Control_c, 0, 64, 95
1, 200620, Control_c, 0, 64, 60
1, 200635, Control_c, 0, 64, 0
1, 200647, Note_on_c, 0, 59, 98
1, 200651, Note_on_c, 0, 47, 95
1, 200658, Note_on_c, 0, 68, 87
1, 200674, Note_off_c, 0, 74, 39
1, 200712, Note_off_c, 0, 62, 48
1, 200776, Note_on_c, 0, 71, 72
1, 200819, Note_off_c, 0, 68, 56
1, 200865, Control_c, 0, 64, 58
1, 200879, Control_c, 0, 64, 86
1, 200894, Control_c, 0, 64, 127
1, 200904, Note_on_c, 0, 74, 83
1, 200923, Note_off_c, 0, 71, 56
1, 200973, Note_off_c, 0, 59, 56
1, 200994, Note_off_c, 0, 47, 61
1, 201009, Note_on_c, 0, 62, 76
1, 201064, Note_off_c, 0, 74, 54
1, 201146, Control_c, 0, 64, 111
1, 201149, Note_on_c, 0, 56, 93
1, 201152, Note_on_c, 0, 44, 82
1, 201153, Note_on_c, 0, 68, 81
1, 201161, Control_c, 0, 64, 65
1, 201176, Control_c, 0, 64, 0
1, 201259, Note_off_c, 0, 62, 35
1, 201280, Note_on_c, 0, 71, 75
1, 201322, Note_off_c, 0, 68, 60
1, 201340, Control_c, 0, 64, 68
1, 201344, Note_off_c, 0, 71, 62
1, 201354, Control_c, 0, 64, 88
1, 201369, Control_c, 0, 64, 127
1, 201378, Note_on_c, 0, 74, 87
1, 201485, Note_off_c, 0, 56, 60
1, 201489, Note_on_c, 0, 71, 79
1, 201502, Note_off_c, 0, 44, 61
1, 201502, Note_off_c, 0, 74, 63
1, 201585, Note_off_c, 0, 71, 60
1, 201618, Note_on_c, 0, 75, 82
1, 201619, Note_on_c, 0, 69, 75
1, 201620, Note_on_c, 0, 42, 76
1, 201620, Note_on_c, 0, 54, 84
1, 201654, Note_off_c, 0, 42, 65
1, 201674, Note_off_c, 0, 54, 59
1, 201674, Note_off_c, 0, 69, 66
1, 201709, Note_off_c, 0, 75, 59
1, 201724, Note_on_c, 0, 71, 78
1, 201836, Control_c, 0, 64, 100
1, 201840, Note_on_c, 0, 40, 87
1, 201842, Note_on_c, 0, 52, 90
1, 201849, Note_on_c, 0, 68, 85
1, 201851, Control_c, 0, 64, 65
1, 201858, Note_on_c, 0, 76, 76
1, 201864, Note_off_c, 0, 71, 61
1, 201865, Control_c, 0, 64, 0
1, 201891, Note_off_c, 0, 76, 64
1, 201893, Note_off_c, 0, 68, 61
1, 202021, Note_off_c, 0, 40, 64
1, 202070, Note_off_c, 0, 52, 58
1, 202088, Note_on_c, 0, 88, 100
1, 202096, Note_on_c, 0, 76, 83
1, 202264, Poly_aftertouch_c, 0, 87, 0
1, 202311, Control_c, 0, 64, 38
1, 202333, Control_c, 0, 64, 63
1, 202348, Control_c, 0, 64, 69
1, 202363, Control_c, 0, 64, 71
1, 202377, Note_on_c, 0, 64, 39
1, 202377, Control_c, 0, 64, 76
1, 202386, Note_on_c, 0, 52, 39
1, 202392, Control_c, 0, 64, 87
1, 202407, Control_c, 0, 64, 118
1, 202422, Control_c, 0, 64, 127
1, 202432, Note_off_c, 0, 76, 59
1, 202460, Note_off_c, 0, 88, 60
1, 202589, Note_on_c, 0, 88, 95
1, 202595, Note_on_c, 0, 76, 87
1, 202736, Note_off_c, 0, 52, 42
1, 202753, Note_off_c, 0, 64, 42
1, 202843, Note_on_c, 0, 64, 78
1, 202848, Note_on_c, 0, 52, 73
1, 202949, Note_off_c, 0, 76, 57
1, 202968, Note_off_c, 0, 88, 56
1, 203107, Note_on_c, 0, 88, 96
1, 203110, Note_on_c, 0, 76, 100
1, 203238, Note_off_c, 0, 52, 60
1, 203260, Note_on_c, 0, 86, 29
1, 203270, Note_off_c, 0, 64, 60
1, 203356, Note_on_c, 0, 64, 97
1, 203360, Note_on_c, 0, 52, 86
1, 203408, Note_off_c, 0, 76, 61
1, 203418, Note_off_c, 0, 88, 58
1, 203426, Poly_aftertouch_c, 0, 81, 127
1, 203438, Note_off_c, 0, 86, 45
1, 203459, Poly_aftertouch_c, 0, 81, 0
1, 203596, Note_on_c, 0, 88, 102
1, 203597, Note_on_c, 0, 76, 96
1, 203647, Note_off_c, 0, 88, 64
1, 203647, Note_off_c, 0, 76, 64
1, 203733, Note_off_c, 0, 52, 58
1, 203768, Note_off_c, 0, 64, 59
1, 203873, Note_on_c, 0, 93, 98
1, 203874, Note_on_c, 0, 81, 97
1, 203880, Note_on_c, 0, 53, 80
1, 203880, Note_on_c, 0, 65, 84
1, 203882, Note_on_c, 0, 84, 84
1, 203884, Note_on_c, 0, 87, 85
1, 203913, Note_off_c, 0, 93, 63
1, 203919, Control_c, 0, 64, 73
1, 203930, Note_off_c, 0, 53, 65
1, 203931, Note_off_c, 0, 84, 66
1, 203934, Control_c, 0, 64, 0
1, 203935, Note_off_c, 0, 65, 61
1, 203940, Note_off_c, 0, 87, 62
1, 203943, Note_off_c, 0, 81, 61
1, 204232, Note_on_c, 0, 81, 93
1, 204241, Note_on_c, 0, 69, 89
1, 204244, Note_on_c, 0, 75, 84
1, 204245, Note_on_c, 0, 72, 83
1, 204248, Note_on_c, 0, 65, 72
1, 204258, Note_on_c, 0, 53, 59
1, 204335, Control_c, 0, 64, 22
1, 204350, Control_c, 0, 64, 64
1, 204364, Control_c, 0, 64, 65
1, 204379, Control_c, 0, 64, 66
1, 204394, Control_c, 0, 64, 68
1, 204409, Control_c, 0, 64, 73
1, 204424, Control_c, 0, 64, 84
1, 204438, Control_c, 0, 64, 99
1, 204453, Control_c, 0, 64, 127
1, 204564, Note_off_c, 0, 75, 58
1, 204610, Note_off_c, 0, 81, 52
1, 204613, Note_off_c, 0, 53, 60
1, 204625, Note_off_c, 0, 69, 62
1, 204644, Note_off_c, 0, 72, 55
1, 204660, Note_off_c, 0, 65, 37
1, 204696, Note_on_c, 0, 81, 88
1, 204699, Note_on_c, 0, 69, 83
1, 204702, Note_on_c, 0, 65, 63
1, 204703, Note_on_c, 0, 75, 78
1, 204709, Note_on_c, 0, 53, 70
1, 204756, Note_off_c, 0, 81, 61
1, 204762, Note_off_c, 0, 75, 64
1, 204783, Note_off_c, 0, 69, 57
1, 204795, Note_off_c, 0, 53, 61
1, 204807, Note_off_c, 0, 65, 53
1, 204950, Note_on_c, 0, 74, 79
1, 204952, Note_on_c, 0, 53, 80
1, 204954, Note_on_c, 0, 82, 87
1, 204955, Note_on_c, 0, 65, 80
1, 204955, Note_on_c, 0, 70, 81
1, 204979, Control_c, 0, 64, 95
1, 204982, Note_off_c, 0, 65, 63
1, 204983, Note_off_c, 0, 70, 64
1, 204985, Note_off_c, 0, 74, 60
1, 204994, Control_c, 0, 64, 63
1, 204995, Note_off_c, 0, 53, 64
1, 205005, Note_off_c, 0, 82, 65
1, 205009, Control_c, 0, 64, 0
1, 205271, Note_on_c, 0, 93, 99
1, 205272, Note_on_c, 0, 81, 97
1, 205276, Note_on_c, 0, 53, 90
1, 205277, Note_on_c, 0, 84, 93
1, 205277, Note_on_c, 0, 87, 95
1, 205280, Note_on_c, 0, 41, 88
1, 205328, Control_c, 0, 64, 75
1, 205343, Control_c, 0, 64, 127
1, 205645, Poly_aftertouch_c, 0, 91, 127
1, 205660, Note_off_c, 0, 93, 55
1, 205664, Note_off_c, 0, 87, 36
1, 205673, Note_off_c, 0, 81, 55
1, 205692, Note_off_c, 0, 41, 62
1, 205702, Note_off_c, 0, 53, 56
1, 205708, Note_off_c, 0, 84, 56
1, 205710, Poly_aftertouch_c, 0, 91, 0
1, 205742, Note_on_c, 0, 81, 92
1, 205743, Note_on_c, 0, 93, 96
1, 205745, Note_on_c, 0, 84, 66
1, 205749, Note_on_c, 0, 53, 81
1, 205750, Note_on_c, 0, 87, 94
1, 205751, Note_on_c, 0, 41, 78
1, 205793, Note_off_c, 0, 84, 63
1, 205813, Note_off_c, 0, 93, 62
1, 205825, Note_off_c, 0, 87, 63
1, 205850, Note_off_c, 0, 81, 61
1, 205903, Note_off_c, 0, 53, 61
1, 205905, Note_off_c, 0, 41, 60
1, 205986, Note_on_c, 0, 86, 78
1, 205993, Note_on_c, 0, 94, 92
1, 205997, Note_on_c, 0, 82, 95
1, 206003, Note_on_c, 0, 41, 79
1, 206003, Note_on_c, 0, 53, 83
1, 206028, Note_off_c, 0, 41, 68
1, 206037, Note_off_c, 0, 86, 63
1, 206040, Note_off_c, 0, 94, 66
1, 206040, Control_c, 0, 64, 116
1, 206061, Note_off_c, 0, 53, 64
1, 206062, Control_c, 0, 64, 70
1, 206073, Note_off_c, 0, 82, 66
1, 206077, Control_c, 0, 64, 0
1, 206259, Note_on_c, 0, 81, 92
1, 206271, Note_on_c, 0, 53, 72
1, 206272, Note_on_c, 0, 72, 71
1, 206273, Note_on_c, 0, 75, 75
1, 206274, Note_on_c, 0, 69, 70
1, 206277, Note_on_c, 0, 65, 65
1, 206581, Control_c, 0, 64, 56
1, 206596, Control_c, 0, 64, 67
1, 206610, Control_c, 0, 64, 79
1, 206625, Control_c, 0, 64, 110
1, 206626, Note_off_c, 0, 75, 62
1, 206640, Control_c, 0, 64, 127
1, 206655, Note_off_c, 0, 53, 61
1, 206655, Note_off_c, 0, 69, 62
1, 206662, Note_off_c, 0, 81, 58
1, 206671, Note_off_c, 0, 72, 57
1, 206674, Note_off_c, 0, 65, 53
1, 206708, Note_on_c, 0, 53, 52
1, 206716, Note_on_c, 0, 65, 63
1, 206720, Note_on_c, 0, 81, 89
1, 206724, Note_on_c, 0, 72, 57
1, 206726, Note_on_c, 0, 69, 83
1, 206730, Note_on_c, 0, 75, 80
1, 206760, Note_off_c, 0, 72, 65
1, 206798, Note_off_c, 0, 81, 59
1, 206812, Note_off_c, 0, 75, 64
1, 206814, Note_off_c, 0, 69, 57
1, 206821, Note_off_c, 0, 53, 61
1, 206833, Note_off_c, 0, 65, 56
1, 206961, Note_on_c, 0, 53, 73
1, 206962, Note_on_c, 0, 74, 74
1, 206962, Note_on_c, 0, 82, 92
1, 206965, Note_on_c, 0, 65, 75
1, 206968, Note_on_c, 0, 70, 83
1, 206973, Control_c, 0, 64, 99
1, 206988, Note_off_c, 0, 74, 67
1, 206988, Control_c, 0, 64, 68
1, 206994, Note_off_c, 0, 65, 62
1, 206994, Note_off_c, 0, 70, 65
1, 207003, Control_c, 0, 64, 0
1, 207012, Note_off_c, 0, 53, 66
1, 207016, Note_off_c, 0, 82, 64
1, 207236, Note_on_c, 0, 93, 103
1, 207238, Note_on_c, 0, 81, 98
1, 207239, Note_on_c, 0, 84, 89
1, 207242, Note_on_c, 0, 87, 95
1, 207248, Note_on_c, 0, 53, 89
1, 207254, Note_on_c, 0, 41, 83
1, 207270, Control_c, 0, 64, 62
1, 207284, Control_c, 0, 64, 127
1, 207289, Note_on_c, 0, 43, 19
1, 207290, Note_off_c, 0, 43, 127
1, 207603, Note_off_c, 0, 87, 51
1, 207609, Note_off_c, 0, 84, 54
1, 207635, Note_off_c, 0, 93, 52
1, 207641, Note_off_c, 0, 81, 51
1, 207661, Note_off_c, 0, 41, 58
1, 207661, Note_off_c, 0, 53, 62
1, 207716, Note_on_c, 0, 53, 86
1, 207716, Note_on_c, 0, 93, 97
1, 207717, Note_on_c, 0, 81, 92
1, 207718, Note_on_c, 0, 41, 75
1, 207719, Note_on_c, 0, 84, 92
1, 207719, Note_on_c, 0, 87, 93
1, 207759, Note_off_c, 0, 41, 64
1, 207761, Note_off_c, 0, 53, 65
1, 207808, Note_off_c, 0, 87, 64
1, 207811, Note_off_c, 0, 84, 55
1, 207814, Note_off_c, 0, 93, 51
1, 207837, Note_off_c, 0, 81, 51
1, 207989, Control_c, 0, 64, 103
1, 207994, Note_on_c, 0, 93, 98
1, 207996, Note_on_c, 0, 81, 97
1, 207999, Note_on_c, 0, 88, 95
1, 207999, Note_on_c, 0, 52, 105
1, 208003, Note_on_c, 0, 40, 94
1, 208004, Control_c, 0, 64, 56
1, 208005, Note_on_c, 0, 84, 90
1, 208019, Control_c, 0, 64, 0
1, 208048, Control_c, 0, 64, 49
1, 208063, Control_c, 0, 64, 72
1, 208078, Control_c, 0, 64, 127
1, 208115, Note_off_c, 0, 93, 58
1, 208121, Note_off_c, 0, 40, 64
1, 208133, Poly_aftertouch_c, 0, 44, 127
1, 208154, Note_off_c, 0, 52, 66
1, 208159, Note_off_c, 0, 88, 61
1, 208166, Note_off_c, 0, 81, 49
1, 208168, Control_c, 0, 64, 69
1, 208169, Poly_aftertouch_c, 0, 44, 0
1, 208177, Note_off_c, 0, 84, 61
1, 208182, Control_c, 0, 64, 0
1, 208187, Poly_aftertouch_c, 0, 90, 0
1, 208501, Note_on_c, 0, 76, 102
1, 208501, Note_on_c, 0, 88, 99
1, 208502, Note_on_c, 0, 64, 94
1, 208502, Note_on_c, 0, 81, 92
1, 208504, Note_on_c, 0, 52, 87
1, 208504, Note_on_c, 0, 84, 90
1, 208506, Note_on_c, 0, 60, 77
1, 208509, Note_on_c, 0, 57, 79
1, 208531, Control_c, 0, 64, 68
1, 208546, Control_c, 0, 64, 107
1, 208561, Control_c, 0, 64, 127
1, 208651, Note_off_c, 0, 52, 58
1, 208667, Note_off_c, 0, 76, 61
1, 208680, Note_off_c, 0, 64, 61
1, 208689, Note_off_c, 0, 88, 57
1, 208708, Note_off_c, 0, 84, 59
1, 208711, Note_off_c, 0, 57, 59
1, 208714, Note_off_c, 0, 81, 57
1, 208723, Note_off_c, 0, 60, 59
1, 208724, Control_c, 0, 64, 99
1, 208738, Control_c, 0, 64, 64
1, 208753, Control_c, 0, 64, 0
1, 209002, Note_on_c, 0, 88, 92
1, 209006, Note_on_c, 0, 76, 95
1, 209007, Note_on_c, 0, 81, 94
1, 209008, Note_on_c, 0, 64, 98
1, 209010, Note_on_c, 0, 52, 87
1, 209010, Note_on_c, 0, 57, 78
1, 209010, Note_on_c, 0, 59, 78
1, 209010, Note_on_c, 0, 83, 89
1, 209035, Control_c, 0, 64, 74
1, 209057, Control_c, 0, 64, 127
1, 209139, Note_off_c, 0, 52, 53
1, 209179, Note_off_c, 0, 76, 59
1, 209185, Note_off_c, 0, 88, 52
1, 209197, Note_off_c, 0, 64, 59
1, 209221, Note_off_c, 0, 57, 60
1, 209221, Note_off_c, 0, 59, 60
1, 209236, Control_c, 0, 64, 75
1, 209236, Poly_aftertouch_c, 0, 86, 0
1, 209238, Note_off_c, 0, 81, 53
1, 209241, Note_off_c, 0, 83, 54
1, 209251, Control_c, 0, 64, 24
1, 209266, Control_c, 0, 64, 0
1, 209528, Note_on_c, 0, 88, 87
1, 209532, Note_on_c, 0, 76, 96
1, 209534, Note_on_c, 0, 64, 95
1, 209535, Note_on_c, 0, 59, 82
1, 209535, Note_on_c, 0, 80, 92
1, 209536, Note_on_c, 0, 56, 83
1, 209536, Note_on_c, 0, 83, 84
1, 209537, Note_on_c, 0, 52, 86
1, 209547, Control_c, 0, 64, 17
1, 209561, Control_c, 0, 64, 94
1, 209576, Control_c, 0, 64, 127
1, 209630, Note_off_c, 0, 88, 61
1, 209656, Note_off_c, 0, 52, 57
1, 209671, Note_off_c, 0, 64, 61
1, 209691, Note_off_c, 0, 83, 61
1, 209709, Note_off_c, 0, 59, 58
1, 209713, Note_off_c, 0, 76, 57
1, 209718, Note_off_c, 0, 80, 64
1, 209740, Note_off_c, 0, 56, 61
1, 209769, Control_c, 0, 64, 103
1, 209784, Control_c, 0, 64, 67
1, 209799, Control_c, 0, 64, 0
1, 210118, Control_c, 0, 64, 51
1, 210121, Note_on_c, 0, 33, 92
1, 210121, Note_on_c, 0, 69, 100
1, 210133, Control_c, 0, 64, 77
1, 210148, Control_c, 0, 64, 127
1, 210192, Note_off_c, 0, 69, 65
1, 210211, Note_off_c, 0, 33, 65
1, 210232, Note_on_c, 0, 57, 86
1, 210246, Note_on_c, 0, 45, 72
1, 210272, Note_off_c, 0, 45, 66
1, 210286, Note_off_c, 0, 57, 62
1, 210331, Note_on_c, 0, 45, 84
1, 210333, Note_on_c, 0, 57, 83
1, 210370, Control_c, 0, 64, 87
1, 210379, Note_off_c, 0, 45, 64
1, 210384, Note_off_c, 0, 57, 62
1, 210384, Control_c, 0, 64, 63
1, 210399, Control_c, 0, 64, 0
1, 210431, Note_on_c, 0, 45, 80
1, 210437, Note_on_c, 0, 57, 84
1, 210482, Note_off_c, 0, 57, 64
1, 210490, Note_off_c, 0, 45, 57
1, 210560, Note_on_c, 0, 45, 92
1, 210561, Note_on_c, 0, 57, 94
1, 210607, Note_off_c, 0, 45, 66
1, 210613, Note_off_c, 0, 57, 58
1, 210850, Note_on_c, 0, 59, 58
1, 210861, Note_on_c, 0, 56, 43
1, 210869, Note_on_c, 0, 40, 54
1, 210873, Note_on_c, 0, 52, 42
1, 210893, Note_off_c, 0, 56, 60
1, 210896, Note_off_c, 0, 40, 60
1, 210904, Note_off_c, 0, 52, 58
1, 210905, Note_off_c, 0, 59, 60
1, 211108, Note_on_c, 0, 60, 50
1, 211113, Note_on_c, 0, 57, 48
1, 211121, Note_on_c, 0, 52, 43
1, 211130, Note_on_c, 0, 45, 39
1, 211151, Note_off_c, 0, 52, 63
1, 211156, Note_off_c, 0, 60, 58
1, 211159, Note_off_c, 0, 57, 62
1, 211161, Note_off_c, 0, 45, 59
1, 211351, Note_on_c, 0, 59, 58
1, 211352, Note_on_c, 0, 40, 52
1, 211359, Note_on_c, 0, 56, 49
1, 211371, Note_on_c, 0, 52, 40
1, 211381, Note_off_c, 0, 40, 60
1, 211394, Note_off_c, 0, 56, 63
1, 211400, Note_off_c, 0, 59, 56
1, 211403, Note_off_c, 0, 52, 49
1, 211595, Note_on_c, 0, 57, 55
1, 211597, Note_on_c, 0, 60, 53
1, 211599, Note_on_c, 0, 45, 58
1, 211604, Note_on_c, 0, 52, 51
1, 211630, Note_off_c, 0, 52, 60
1, 211631, Note_off_c, 0, 57, 61
1, 211634, Note_off_c, 0, 45, 64
1, 211637, Note_off_c, 0, 60, 59
1, 211842, Note_on_c, 0, 40, 68
1, 211844, Note_on_c, 0, 59, 58
1, 211848, Note_on_c, 0, 56, 62
1, 211853, Note_on_c, 0, 52, 51
1, 211877, Note_off_c, 0, 52, 60
1, 211885, Note_off_c, 0, 40, 63
1, 211888, Note_off_c, 0, 59, 62
1, 211889, Note_off_c, 0, 56, 62
1, 212111, Control_c, 0, 64, 49
1, 212126, Control_c, 0, 64, 62
1, 212133, Note_on_c, 0, 69, 97
1, 212133, Note_on_c, 0, 33, 93
1, 212141, Control_c, 0, 64, 65
1, 212155, Control_c, 0, 64, 65
1, 212217, Note_off_c, 0, 69, 64
1, 212218, Note_off_c, 0, 33, 64
1, 212229, Control_c, 0, 64, 65
1, 212242, Note_on_c, 0, 45, 82
1, 212244, Control_c, 0, 64, 64
1, 212252, Note_on_c, 0, 57, 83
1, 212259, Control_c, 0, 64, 63
1, 212275, Control_c, 0, 64, 62
1, 212290, Note_off_c, 0, 45, 63
1, 212290, Control_c, 0, 64, 58
1, 212304, Control_c, 0, 64, 50
1, 212309, Note_off_c, 0, 57, 63
1, 212319, Control_c, 0, 64, 27
1, 212334, Control_c, 0, 64, 0
1, 212350, Note_on_c, 0, 45, 83
1, 212352, Note_on_c, 0, 57, 79
1, 212399, Note_off_c, 0, 57, 64
1, 212402, Note_off_c, 0, 45, 65
1, 212452, Note_on_c, 0, 45, 85
1, 212454, Note_on_c, 0, 57, 86
1, 212502, Note_off_c, 0, 57, 64
1, 212508, Note_off_c, 0, 45, 62
1, 212563, Note_on_c, 0, 57, 88
1, 212567, Note_on_c, 0, 45, 89
1, 212609, Note_off_c, 0, 57, 64
1, 212618, Note_off_c, 0, 45, 66
1, 212831, Note_on_c, 0, 40, 64
1, 212840, Note_on_c, 0, 56, 56
1, 212842, Note_on_c, 0, 59, 59
1, 212851, Note_on_c, 0, 52, 51
1, 212868, Note_off_c, 0, 40, 65
1, 212873, Note_off_c, 0, 56, 64
1, 212877, Note_off_c, 0, 52, 60
1, 212877, Note_off_c, 0, 59, 62
1, 213084, Note_on_c, 0, 57, 59
1, 213089, Note_on_c, 0, 52, 52
1, 213090, Note_on_c, 0, 60, 49
1, 213091, Note_on_c, 0, 45, 60
1, 213117, Note_off_c, 0, 52, 60
1, 213120, Note_off_c, 0, 45, 65
1, 213122, Note_off_c, 0, 57, 60
1, 213123, Note_off_c, 0, 60, 63
1, 213327, Note_on_c, 0, 40, 61
1, 213327, Note_on_c, 0, 56, 52
1, 213328, Note_on_c, 0, 59, 57
1, 213336, Note_on_c, 0, 52, 43
1, 213359, Note_off_c, 0, 40, 66
1, 213363, Note_off_c, 0, 56, 62
1, 213367, Note_off_c, 0, 59, 59
1, 213370, Note_off_c, 0, 52, 58
1, 213574, Note_on_c, 0, 60, 54
1, 213576, Note_on_c, 0, 57, 61
1, 213578, Note_on_c, 0, 52, 54
1, 213579, Note_on_c, 0, 45, 58
1, 213605, Note_off_c, 0, 52, 60
1, 213612, Note_off_c, 0, 57, 59
1, 213614, Note_off_c, 0, 60, 59
1, 213621, Note_off_c, 0, 45, 60
1, 213811, Note_on_c, 0, 59, 62
1, 213811, Note_on_c, 0, 62, 67
1, 213820, Note_on_c, 0, 43, 53
1, 213822, Note_on_c, 0, 55, 45
1, 213848, Note_off_c, 0, 59, 62
1, 213850, Note_off_c, 0, 55, 56
1, 213859, Note_off_c, 0, 62, 60
1, 213860, Note_off_c, 0, 43, 63
1, 214038, Control_c, 0, 64, 33
1, 214053, Control_c, 0, 64, 60
1, 214068, Control_c, 0, 64, 67
1, 214083, Control_c, 0, 64, 76
1, 214098, Control_c, 0, 64, 89
1, 214098, Note_on_c, 0, 36, 79
1, 214102, Note_on_c, 0, 72, 98
1, 214113, Control_c, 0, 64, 118
1, 214128, Control_c, 0, 64, 127
1, 214175, Note_off_c, 0, 72, 63
1, 214183, Note_off_c, 0, 36, 63
1, 214217, Note_on_c, 0, 48, 75
1, 214222, Note_on_c, 0, 60, 80
1, 214265, Note_off_c, 0, 48, 60
1, 214269, Note_off_c, 0, 60, 61
1, 214322, Note_on_c, 0, 60, 82
1, 214327, Note_on_c, 0, 48, 79
1, 214366, Note_off_c, 0, 60, 63
1, 214383, Note_off_c, 0, 48, 61
1, 214416, Control_c, 0, 64, 98
1, 214424, Note_on_c, 0, 48, 75
1, 214425, Note_on_c, 0, 60, 90
1, 214431, Control_c, 0, 64, 79
1, 214446, Control_c, 0, 64, 65
1, 214461, Control_c, 0, 64, 34
1, 214470, Note_off_c, 0, 60, 63
1, 214471, Note_off_c, 0, 48, 62
1, 214475, Control_c, 0, 64, 0
1, 214532, Note_on_c, 0, 60, 90
1, 214536, Note_on_c, 0, 48, 86
1, 214578, Note_off_c, 0, 60, 64
1, 214589, Note_off_c, 0, 48, 63
1, 214792, Note_on_c, 0, 43, 64
1, 214795, Note_on_c, 0, 59, 65
1, 214799, Note_on_c, 0, 62, 64
1, 214812, Note_on_c, 0, 55, 45
1, 214825, Note_off_c, 0, 43, 63
1, 214828, Note_off_c, 0, 59, 62
1, 214840, Note_off_c, 0, 55, 57
1, 214847, Note_off_c, 0, 62, 58
1, 215052, Note_on_c, 0, 64, 61
1, 215061, Note_on_c, 0, 55, 56
1, 215062, Note_on_c, 0, 48, 59
1, 215062, Note_on_c, 0, 60, 60
1, 215086, Note_off_c, 0, 55, 63
1, 215087, Note_off_c, 0, 48, 61
1, 215090, Note_off_c, 0, 64, 62
1, 215091, Note_off_c, 0, 60, 65
1, 215293, Note_on_c, 0, 59, 66
1, 215298, Note_on_c, 0, 43, 56
1, 215301, Note_on_c, 0, 62, 61
1, 215305, Note_on_c, 0, 55, 51
1, 215328, Note_off_c, 0, 43, 59
1, 215329, Note_off_c, 0, 59, 61
1, 215336, Note_off_c, 0, 55, 61
1, 215340, Note_off_c, 0, 62, 57
1, 215535, Note_on_c, 0, 60, 66
1, 215538, Note_on_c, 0, 48, 57
1, 215538, Note_on_c, 0, 64, 58
1, 215546, Note_on_c, 0, 55, 56
1, 215570, Note_off_c, 0, 60, 59
1, 215571, Note_off_c, 0, 55, 63
1, 215571, Note_off_c, 0, 64, 65
1, 215580, Note_off_c, 0, 48, 48
1, 215774, Note_on_c, 0, 62, 71
1, 215778, Note_on_c, 0, 59, 68
1, 215780, Note_on_c, 0, 43, 51
1, 215804, Note_on_c, 0, 55, 34
1, 215815, Note_off_c, 0, 59, 65
1, 215830, Note_off_c, 0, 43, 63
1, 215830, Note_off_c, 0, 62, 60
1, 215841, Note_off_c, 0, 55, 50
1, 216018, Control_c, 0, 64, 55
1, 216033, Control_c, 0, 64, 66
1, 216047, Control_c, 0, 64, 74
1, 216060, Note_on_c, 0, 36, 81
1, 216062, Control_c, 0, 64, 85
1, 216069, Note_on_c, 0, 72, 94
1, 216077, Control_c, 0, 64, 96
1, 216092, Control_c, 0, 64, 105
1, 216107, Control_c, 0, 64, 112
1, 216122, Control_c, 0, 64, 121
1, 216137, Control_c, 0, 64, 127
1, 216144, Note_off_c, 0, 72, 63
1, 216161, Note_off_c, 0, 36, 61
1, 216184, Note_on_c, 0, 48, 71
1, 216185, Note_on_c, 0, 60, 81
1, 216217, Note_off_c, 0, 48, 64
1, 216237, Note_off_c, 0, 60, 62
1, 216292, Note_on_c, 0, 60, 83
1, 216298, Note_on_c, 0, 48, 75
1, 216301, Control_c, 0, 64, 125
1, 216316, Control_c, 0, 64, 97
1, 216331, Control_c, 0, 64, 81
1, 216332, Note_off_c, 0, 60, 63
1, 216337, Note_off_c, 0, 48, 61
1, 216345, Control_c, 0, 64, 68
1, 216360, Control_c, 0, 64, 57
1, 216375, Control_c, 0, 64, 0
1, 216398, Note_on_c, 0, 60, 88
1, 216400, Note_on_c, 0, 48, 81
1, 216438, Note_off_c, 0, 48, 61
1, 216438, Note_off_c, 0, 60, 65
1, 216505, Note_on_c, 0, 60, 90
1, 216510, Note_on_c, 0, 48, 89
1, 216551, Note_off_c, 0, 60, 66
1, 216560, Note_off_c, 0, 48, 65
1, 216754, Note_on_c, 0, 43, 62
1, 216769, Note_on_c, 0, 62, 64
1, 216774, Note_on_c, 0, 55, 51
1, 216778, Note_on_c, 0, 59, 45
1, 216789, Note_off_c, 0, 43, 62
1, 216802, Note_off_c, 0, 62, 61
1, 216803, Note_off_c, 0, 59, 58
1, 216804, Note_off_c, 0, 55, 60
1, 217001, Note_on_c, 0, 60, 62
1, 217006, Note_on_c, 0, 48, 66
1, 217007, Note_on_c, 0, 55, 53
1, 217007, Note_on_c, 0, 64, 60
1, 217034, Note_off_c, 0, 60, 61
1, 217037, Note_off_c, 0, 48, 64
1, 217038, Note_off_c, 0, 55, 60
1, 217041, Note_off_c, 0, 64, 64
1, 217246, Note_on_c, 0, 62, 68
1, 217247, Note_on_c, 0, 59, 64
1, 217253, Note_on_c, 0, 43, 57
1, 217256, Note_on_c, 0, 55, 53
1, 217275, Note_off_c, 0, 59, 66
1, 217290, Note_off_c, 0, 55, 61
1, 217290, Note_off_c, 0, 43, 62
1, 217302, Note_off_c, 0, 62, 52
1, 217500, Note_on_c, 0, 48, 59
1, 217501, Note_on_c, 0, 60, 56
1, 217502, Note_on_c, 0, 55, 56
1, 217503, Note_on_c, 0, 64, 55
1, 217524, Note_off_c, 0, 60, 61
1, 217529, Note_off_c, 0, 55, 64
1, 217534, Note_off_c, 0, 64, 66
1, 217555, Note_off_c, 0, 48, 58
1, 217748, Note_on_c, 0, 63, 69
1, 217749, Note_on_c, 0, 66, 70
1, 217752, Note_on_c, 0, 47, 57
1, 217769, Note_on_c, 0, 59, 23
1, 217779, Note_off_c, 0, 63, 62
1, 217782, Note_off_c, 0, 47, 65
1, 217797, Note_off_c, 0, 66, 61
1, 217809, Note_off_c, 0, 59, 46
1, 218020, Control_c, 0, 64, 45
1, 218029, Note_on_c, 0, 35, 82
1, 218029, Note_on_c, 0, 67, 82
1, 218035, Note_on_c, 0, 65, 78
1, 218035, Control_c, 0, 64, 61
1, 218036, Note_on_c, 0, 62, 78
1, 218056, Control_c, 0, 64, 62
1, 218071, Control_c, 0, 64, 63
1, 218140, Note_on_c, 0, 55, 71
1, 218140, Note_off_c, 0, 35, 58
1, 218146, Control_c, 0, 64, 62
1, 218148, Note_on_c, 0, 47, 78
1, 218149, Note_off_c, 0, 65, 58
1, 218158, Note_off_c, 0, 67, 59
1, 218161, Control_c, 0, 64, 60
1, 218168, Note_off_c, 0, 62, 49
1, 218175, Control_c, 0, 64, 56
1, 218182, Note_off_c, 0, 47, 64
1, 218190, Control_c, 0, 64, 46
1, 218198, Note_off_c, 0, 55, 63
1, 218205, Control_c, 0, 64, 24
1, 218220, Control_c, 0, 64, 0
1, 218259, Note_on_c, 0, 67, 70
1, 218270, Note_on_c, 0, 65, 49
1, 218275, Note_on_c, 0, 47, 62
1, 218288, Note_on_c, 0, 62, 45
1, 218297, Note_off_c, 0, 65, 60
1, 218299, Note_off_c, 0, 47, 62
1, 218309, Note_off_c, 0, 67, 58
1, 218316, Note_off_c, 0, 62, 54
1, 218371, Note_on_c, 0, 65, 68
1, 218372, Note_on_c, 0, 47, 76
1, 218372, Note_on_c, 0, 67, 63
1, 218382, Note_on_c, 0, 62, 66
1, 218399, Note_off_c, 0, 47, 65
1, 218401, Note_off_c, 0, 62, 65
1, 218402, Note_off_c, 0, 65, 62
1, 218405, Note_off_c, 0, 67, 63
1, 218474, Note_on_c, 0, 47, 78
1, 218480, Note_on_c, 0, 62, 73
1, 218485, Note_on_c, 0, 67, 70
1, 218491, Note_on_c, 0, 65, 65
1, 218511, Note_off_c, 0, 67, 65
1, 218513, Note_off_c, 0, 47, 63
1, 218516, Note_off_c, 0, 62, 61
1, 218516, Note_off_c, 0, 65, 67
1, 218765, Note_on_c, 0, 68, 87
1, 218768, Note_on_c, 0, 62, 90
1, 218771, Note_on_c, 0, 65, 83
1, 218774, Note_on_c, 0, 46, 95
1, 218827, Note_off_c, 0, 62, 61
1, 218829, Note_off_c, 0, 65, 60
1, 218846, Note_off_c, 0, 46, 63
1, 218854, Note_off_c, 0, 68, 64
1, 218998, Control_c, 0, 64, 12
1, 219013, Control_c, 0, 64, 49
1, 219028, Control_c, 0, 64, 62
1, 219038, Note_on_c, 0, 67, 87
1, 219040, Note_on_c, 0, 35, 86
1, 219043, Note_on_c, 0, 62, 83
1, 219043, Control_c, 0, 64, 66
1, 219045, Note_on_c, 0, 65, 81
1, 219058, Control_c, 0, 64, 70
1, 219073, Control_c, 0, 64, 74
1, 219088, Control_c, 0, 64, 75
1, 219103, Control_c, 0, 64, 75
1, 219122, Note_off_c, 0, 35, 66
1, 219150, Note_on_c, 0, 55, 74
1, 219159, Note_on_c, 0, 47, 80
1, 219162, Control_c, 0, 64, 75
1, 219171, Note_off_c, 0, 65, 59
1, 219177, Control_c, 0, 64, 72
1, 219181, Note_off_c, 0, 67, 52
1, 219182, Note_off_c, 0, 62, 29
1, 219191, Control_c, 0, 64, 67
1, 219193, Note_off_c, 0, 47, 63
1, 219205, Note_off_c, 0, 55, 64
1, 219206, Control_c, 0, 64, 60
1, 219221, Control_c, 0, 64, 0
1, 219279, Note_on_c, 0, 47, 68
1, 219283, Note_on_c, 0, 62, 69
1, 219290, Note_on_c, 0, 67, 69
1, 219293, Note_on_c, 0, 65, 53
1, 219309, Note_off_c, 0, 62, 66
1, 219312, Note_off_c, 0, 47, 63
1, 219323, Note_off_c, 0, 65, 65
1, 219330, Note_off_c, 0, 67, 56
1, 219383, Note_on_c, 0, 47, 78
1, 219384, Note_on_c, 0, 67, 63
1, 219392, Note_on_c, 0, 62, 70
1, 219392, Note_on_c, 0, 65, 68
1, 219414, Note_off_c, 0, 47, 67
1, 219416, Note_off_c, 0, 62, 67
1, 219423, Note_off_c, 0, 65, 61
1, 219425, Note_off_c, 0, 67, 59
1, 219501, Note_on_c, 0, 62, 77
1, 219506, Note_on_c, 0, 67, 74
1, 219507, Note_on_c, 0, 47, 85
1, 219511, Note_on_c, 0, 65, 69
1, 219540, Note_off_c, 0, 67, 64
1, 219543, Note_off_c, 0, 65, 67
1, 219549, Note_off_c, 0, 62, 59
1, 219550, Note_off_c, 0, 47, 65
1, 219718, Control_c, 0, 64, 32
1, 219733, Control_c, 0, 64, 59
1, 219748, Control_c, 0, 64, 67
1, 219754, Note_on_c, 0, 68, 89
1, 219761, Note_on_c, 0, 46, 97
1, 219762, Note_on_c, 0, 65, 79
1, 219763, Note_on_c, 0, 62, 87
1, 219763, Control_c, 0, 64, 74
1, 219777, Control_c, 0, 64, 81
1, 219792, Control_c, 0, 64, 84
1, 219807, Control_c, 0, 64, 85
1, 219809, Note_off_c, 0, 62, 61
1, 219812, Note_off_c, 0, 65, 62
1, 219821, Control_c, 0, 64, 85
1, 219823, Note_off_c, 0, 46, 62
1, 219830, Note_off_c, 0, 68, 64
1, 219881, Control_c, 0, 64, 85
1, 219896, Control_c, 0, 64, 80
1, 219911, Control_c, 0, 64, 73
1, 219925, Control_c, 0, 64, 64
1, 219940, Control_c, 0, 64, 38
1, 219955, Control_c, 0, 64, 0
1, 220006, Note_on_c, 0, 62, 70
1, 220006, Note_on_c, 0, 47, 70
1, 220012, Note_on_c, 0, 67, 67
1, 220013, Note_on_c, 0, 65, 60
1, 220038, Note_off_c, 0, 47, 65
1, 220041, Note_off_c, 0, 65, 64
1, 220044, Note_off_c, 0, 67, 61
1, 220054, Note_off_c, 0, 62, 53
1, 220247, Note_on_c, 0, 68, 70
1, 220249, Note_on_c, 0, 46, 67
1, 220256, Note_on_c, 0, 62, 58
1, 220256, Note_on_c, 0, 65, 51
1, 220287, Note_off_c, 0, 46, 64
1, 220289, Note_off_c, 0, 68, 63
1, 220295, Note_off_c, 0, 65, 56
1, 220297, Note_off_c, 0, 62, 58
1, 220501, Note_on_c, 0, 47, 59
1, 220505, Note_on_c, 0, 67, 54
1, 220506, Note_on_c, 0, 62, 56
1, 220517, Note_on_c, 0, 65, 38
1, 220536, Note_off_c, 0, 47, 63
1, 220537, Note_off_c, 0, 62, 54
1, 220546, Note_off_c, 0, 65, 55
1, 220547, Note_off_c, 0, 67, 56
1, 220740, Note_on_c, 0, 46, 63
1, 220742, Note_on_c, 0, 68, 68
1, 220757, Note_on_c, 0, 65, 52
1, 220758, Note_on_c, 0, 62, 54
1, 220772, Note_off_c, 0, 46, 61
1, 220785, Note_off_c, 0, 65, 62
1, 220787, Note_off_c, 0, 62, 55
1, 220797, Note_off_c, 0, 68, 59
1, 220985, Note_on_c, 0, 69, 67
1, 220990, Note_on_c, 0, 45, 68
1, 220993, Note_on_c, 0, 65, 58
1, 220994, Note_on_c, 0, 62, 56
1, 221024, Note_off_c, 0, 45, 64
1, 221025, Note_off_c, 0, 62, 57
1, 221025, Note_off_c, 0, 65, 64
1, 221048, Note_off_c, 0, 69, 64
1, 221232, Note_on_c, 0, 44, 75
1, 221234, Note_on_c, 0, 65, 68
1, 221236, Note_on_c, 0, 70, 73
1, 221243, Note_on_c, 0, 62, 66
1, 221266, Note_off_c, 0, 44, 64
1, 221276, Note_off_c, 0, 65, 58
1, 221296, Note_off_c, 0, 62, 58
1, 221302, Note_off_c, 0, 70, 60
1, 221470, Note_on_c, 0, 71, 90
1, 221476, Note_on_c, 0, 43, 87
1, 221479, Note_on_c, 0, 62, 76
1, 221508, Note_off_c, 0, 62, 62
1, 221526, Note_off_c, 0, 43, 62
1, 221542, Note_off_c, 0, 71, 46
1, 221714, Note_on_c, 0, 63, 88
1, 221714, Note_on_c, 0, 72, 85
1, 221742, Note_on_c, 0, 71, 36
1, 221743, Note_off_c, 0, 71, 127
1, 221749, Note_on_c, 0, 42, 25
1, 221750, Note_off_c, 0, 42, 127
1, 221771, Note_on_c, 0, 41, 4
1, 221773, Note_off_c, 0, 72, 63
1, 221779, Note_off_c, 0, 41, 48
1, 221798, Note_off_c, 0, 63, 59
1, 221860, Control_c, 0, 64, 31
1, 221876, Control_c, 0, 64, 49
1, 221890, Control_c, 0, 64, 56
1, 221905, Control_c, 0, 64, 58
1, 221920, Control_c, 0, 64, 59
1, 221950, Control_c, 0, 64, 58
1, 221964, Control_c, 0, 64, 56
1, 221976, Note_on_c, 0, 64, 82
1, 221976, Note_on_c, 0, 40, 91
1, 221977, Note_on_c, 0, 69, 74
1, 221979, Note_on_c, 0, 61, 85
1, 221979, Control_c, 0, 64, 55
1, 221994, Control_c, 0, 64, 54
1, 222009, Control_c, 0, 64, 55
1, 222024, Control_c, 0, 64, 56
1, 222039, Control_c, 0, 64, 57
1, 222054, Control_c, 0, 64, 59
1, 222069, Control_c, 0, 64, 61
1, 222083, Control_c, 0, 64, 61
1, 222098, Control_c, 0, 64, 62
1, 222105, Note_on_c, 0, 73, 87
1, 222113, Control_c, 0, 64, 62
1, 222128, Control_c, 0, 64, 63
1, 222140, Note_off_c, 0, 61, 61
1, 222142, Control_c, 0, 64, 64
1, 222146, Note_off_c, 0, 64, 61
1, 222152, Note_off_c, 0, 69, 62
1, 222165, Note_off_c, 0, 73, 61
1, 222165, Note_off_c, 0, 40, 63
1, 222172, Control_c, 0, 64, 64
1, 222204, Poly_aftertouch_c, 0, 73, 0
1, 222211, Note_on_c, 0, 73, 80
1, 222218, Note_on_c, 0, 40, 64
1, 222218, Note_on_c, 0, 52, 80
1, 222218, Note_on_c, 0, 61, 85
1, 222227, Note_on_c, 0, 69, 63
1, 222232, Note_on_c, 0, 64, 59
1, 222246, Control_c, 0, 64, 64
1, 222248, Note_off_c, 0, 52, 68
1, 222248, Note_off_c, 0, 61, 62
1, 222261, Control_c, 0, 64, 63
1, 222262, Note_off_c, 0, 64, 67
1, 222269, Note_off_c, 0, 40, 62
1, 222272, Note_off_c, 0, 73, 62
1, 222274, Note_off_c, 0, 69, 52
1, 222276, Control_c, 0, 64, 62
1, 222290, Control_c, 0, 64, 60
1, 222305, Control_c, 0, 64, 56
1, 222310, Poly_aftertouch_c, 0, 73, 0
1, 222316, Note_on_c, 0, 69, 60
1, 222317, Note_on_c, 0, 73, 77
1, 222320, Control_c, 0, 64, 50
1, 222321, Note_on_c, 0, 40, 73
1, 222325, Note_on_c, 0, 52, 87
1, 222326, Note_on_c, 0, 61, 81
1, 222326, Note_on_c, 0, 64, 75
1, 222334, Control_c, 0, 64, 32
1, 222349, Note_off_c, 0, 52, 69
1, 222349, Note_off_c, 0, 61, 66
1, 222349, Control_c, 0, 64, 0
1, 222364, Note_off_c, 0, 40, 65
1, 222372, Note_off_c, 0, 73, 61
1, 222374, Note_off_c, 0, 64, 62
1, 222385, Note_off_c, 0, 69, 63
1, 222418, Poly_aftertouch_c, 0, 64, 0
1, 222422, Note_on_c, 0, 73, 82
1, 222426, Note_on_c, 0, 64, 67
1, 222426, Note_on_c, 0, 61, 87
1, 222427, Note_on_c, 0, 69, 51
1, 222429, Note_on_c, 0, 52, 94
1, 222430, Note_on_c, 0, 40, 72
1, 222454, Note_off_c, 0, 64, 68
1, 222465, Note_off_c, 0, 61, 58
1, 222466, Note_off_c, 0, 69, 69
1, 222477, Note_off_c, 0, 52, 66
1, 222483, Note_off_c, 0, 40, 62
1, 222485, Note_off_c, 0, 73, 62
1, 222680, Note_on_c, 0, 40, 75
1, 222680, Note_on_c, 0, 52, 82
1, 222680, Note_on_c, 0, 75, 91
1, 222680, Note_on_c, 0, 66, 86
1, 222688, Note_on_c, 0, 69, 55
1, 222707, Note_off_c, 0, 40, 67
1, 222709, Note_off_c, 0, 52, 65
1, 222710, Note_off_c, 0, 69, 63
1, 222739, Note_off_c, 0, 66, 61
1, 222751, Note_off_c, 0, 75, 65
1, 222921, Control_c, 0, 64, 46
1, 222928, Note_on_c, 0, 78, 94
1, 222936, Control_c, 0, 64, 64
1, 222940, Note_on_c, 0, 40, 79
1, 222942, Note_on_c, 0, 52, 81
1, 222942, Note_on_c, 0, 68, 77
1, 222951, Control_c, 0, 64, 74
1, 222965, Control_c, 0, 64, 94
1, 222980, Control_c, 0, 64, 127
1, 223000, Note_off_c, 0, 68, 59
1, 223002, Note_off_c, 0, 40, 64
1, 223011, Note_off_c, 0, 52, 63
1, 223028, Poly_aftertouch_c, 0, 74, 127
1, 223032, Note_off_c, 0, 78, 60
1, 223046, Note_on_c, 0, 76, 81
1, 223052, Note_on_c, 0, 74, 21
1, 223097, Poly_aftertouch_c, 0, 68, 127
1, 223112, Note_off_c, 0, 74, 61
1, 223118, Note_off_c, 0, 76, 62
1, 223121, Poly_aftertouch_c, 0, 71, 127
1, 223152, Poly_aftertouch_c, 0, 68, 0
1, 223166, Note_on_c, 0, 68, 72
1, 223169, Poly_aftertouch_c, 0, 71, 0
1, 223174, Note_on_c, 0, 76, 80
1, 223180, Note_on_c, 0, 74, 70
1, 223182, Note_on_c, 0, 62, 74
1, 223184, Note_on_c, 0, 59, 65
1, 223184, Note_on_c, 0, 52, 69
1, 223184, Note_on_c, 0, 71, 48
1, 223210, Note_off_c, 0, 68, 65
1, 223213, Note_off_c, 0, 59, 66
1, 223214, Note_off_c, 0, 62, 58
1, 223214, Note_off_c, 0, 52, 66
1, 223216, Note_off_c, 0, 71, 65
1, 223231, Control_c, 0, 64, 104
1, 223237, Note_off_c, 0, 74, 60
1, 223239, Note_off_c, 0, 76, 62
1, 223246, Control_c, 0, 64, 83
1, 223261, Control_c, 0, 64, 71
1, 223276, Note_on_c, 0, 68, 90
1, 223284, Control_c, 0, 64, 62
1, 223285, Poly_aftertouch_c, 0, 74, 0
1, 223288, Note_on_c, 0, 76, 67
1, 223289, Note_on_c, 0, 62, 76
1, 223291, Note_on_c, 0, 71, 79
1, 223292, Note_on_c, 0, 74, 58
1, 223297, Note_on_c, 0, 59, 71
1, 223298, Note_on_c, 0, 52, 66
1, 223299, Control_c, 0, 64, 32
1, 223313, Control_c, 0, 64, 0
1, 223323, Note_off_c, 0, 68, 65
1, 223332, Note_off_c, 0, 52, 61
1, 223342, Note_off_c, 0, 62, 60
1, 223347, Note_off_c, 0, 71, 60
1, 223350, Note_off_c, 0, 59, 62
1, 223359, Note_off_c, 0, 76, 57
1, 223365, Note_off_c, 0, 74, 63
1, 223401, Note_on_c, 0, 68, 92
1, 223408, Poly_aftertouch_c, 0, 74, 0
1, 223410, Note_on_c, 0, 76, 71
1, 223410, Note_on_c, 0, 62, 77
1, 223416, Note_on_c, 0, 71, 64
1, 223416, Note_on_c, 0, 74, 57
1, 223420, Note_on_c, 0, 59, 59
1, 223426, Note_on_c, 0, 52, 69
1, 223451, Note_off_c, 0, 71, 63
1, 223452, Note_off_c, 0, 74, 64
1, 223460, Note_off_c, 0, 52, 62
1, 223463, Note_off_c, 0, 76, 64
1, 223481, Note_off_c, 0, 68, 57
1, 223492, Note_off_c, 0, 62, 53
1, 223529, Note_off_c, 0, 59, 52
1, 223708, Note_on_c, 0, 76, 73
1, 223729, Note_on_c, 0, 62, 39
1, 223729, Control_c, 0, 64, 57
1, 223732, Note_on_c, 0, 71, 50
1, 223739, Note_on_c, 0, 68, 42
1, 223744, Control_c, 0, 64, 67
1, 223746, Note_on_c, 0, 74, 30
1, 223757, Note_on_c, 0, 52, 13
1, 223759, Control_c, 0, 64, 77
1, 223768, Poly_aftertouch_c, 0, 59, 0
1, 223774, Control_c, 0, 64, 90
1, 223788, Control_c, 0, 64, 97
1, 223803, Control_c, 0, 64, 104
1, 223805, Note_off_c, 0, 52, 38
1, 223818, Control_c, 0, 64, 115
1, 223825, Note_off_c, 0, 76, 60
1, 223833, Control_c, 0, 64, 127
1, 223836, Note_off_c, 0, 62, 46
1, 223849, Note_off_c, 0, 71, 62
1, 223861, Note_off_c, 0, 68, 45
1, 223870, Note_off_c, 0, 74, 44
1, 223951, Control_c, 0, 67, 8
1, 223966, Control_c, 0, 67, 20
1, 223980, Control_c, 0, 67, 31
1, 223995, Control_c, 0, 67, 43
1, 224010, Control_c, 0, 67, 52
1, 224033, Control_c, 0, 67, 59
1, 224048, Note_on_c, 0, 45, 41
1, 224048, Control_c, 0, 67, 63
1, 224062, Control_c, 0, 64, 118
1, 224062, Control_c, 0, 67, 65
1, 224077, Control_c, 0, 64, 95
1, 224077, Control_c, 0, 67, 67
1, 224092, Control_c, 0, 64, 79
1, 224092, Control_c, 0, 67, 70
1, 224099, Note_on_c, 0, 76, 67
1, 224106, Control_c, 0, 64, 67
1, 224106, Control_c, 0, 67, 75
1, 224121, Control_c, 0, 64, 55
1, 224121, Control_c, 0, 67, 80
1, 224136, Control_c, 0, 64, 0
1, 224136, Control_c, 0, 67, 85
1, 224151, Control_c, 0, 67, 90
1, 224166, Control_c, 0, 64, 19
1, 224166, Control_c, 0, 67, 93
1, 224180, Control_c, 0, 64, 50
1, 224180, Control_c, 0, 67, 97
1, 224195, Control_c, 0, 64, 61
1, 224195, Control_c, 0, 67, 100
1, 224210, Control_c, 0, 64, 64
1, 224210, Control_c, 0, 67, 104
1, 224219, Note_off_c, 0, 76, 59
1, 224225, Control_c, 0, 64, 66
1, 224225, Control_c, 0, 67, 108
1, 224240, Control_c, 0, 64, 67
1, 224240, Control_c, 0, 67, 112
1, 224248, Note_on_c, 0, 64, 64
1, 224256, Control_c, 0, 64, 68
1, 224256, Control_c, 0, 67, 117
1, 224271, Control_c, 0, 64, 68
1, 224271, Control_c, 0, 67, 121
1, 224272, Note_off_c, 0, 45, 43
1, 224285, Control_c, 0, 64, 69
1, 224285, Control_c, 0, 67, 126
1, 224300, Control_c, 0, 64, 69
1, 224300, Control_c, 0, 67, 127
1, 224334, Note_off_c, 0, 64, 61
1, 224364, Note_on_c, 0, 61, 60
1, 224367, Note_on_c, 0, 64, 47
1, 224369, Note_on_c, 0, 52, 56
1, 224374, Control_c, 0, 64, 69
1, 224389, Control_c, 0, 64, 67
1, 224394, Note_off_c, 0, 61, 64
1, 224401, Note_off_c, 0, 52, 68
1, 224404, Control_c, 0, 64, 64
1, 224418, Note_off_c, 0, 64, 63
1, 224418, Control_c, 0, 64, 59
1, 224433, Control_c, 0, 64, 43
1, 224448, Control_c, 0, 64, 0
1, 224464, Note_on_c, 0, 61, 67
1, 224468, Note_on_c, 0, 64, 52
1, 224488, Note_on_c, 0, 52, 55
1, 224490, Note_off_c, 0, 61, 64
1, 224512, Note_off_c, 0, 52, 62
1, 224532, Note_off_c, 0, 64, 60
1, 224571, Note_on_c, 0, 64, 42
1, 224581, Note_on_c, 0, 61, 64
1, 224586, Note_on_c, 0, 52, 66
1, 224613, Note_off_c, 0, 52, 69
1, 224614, Note_off_c, 0, 61, 61
1, 224623, Note_off_c, 0, 64, 64
1, 224683, Note_on_c, 0, 64, 48
1, 224823, Note_on_c, 0, 68, 53
1, 224824, Note_on_c, 0, 62, 50
1, 224826, Note_on_c, 0, 52, 46
1, 224860, Note_off_c, 0, 62, 57
1, 224861, Note_off_c, 0, 52, 62
1, 224883, Note_off_c, 0, 64, 35
1, 224948, Note_on_c, 0, 71, 45
1, 224970, Note_off_c, 0, 68, 37
1, 225043, Note_on_c, 0, 69, 52
1, 225049, Note_on_c, 0, 61, 51
1, 225066, Note_on_c, 0, 52, 40
1, 225073, Note_off_c, 0, 71, 51
1, 225103, Note_off_c, 0, 61, 56
1, 225104, Note_off_c, 0, 52, 59
1, 225133, Note_off_c, 0, 69, 59
1, 225166, Note_on_c, 0, 64, 50
1, 225279, Note_on_c, 0, 62, 47
1, 225294, Note_on_c, 0, 52, 35
1, 225295, Note_on_c, 0, 68, 56
1, 225333, Note_off_c, 0, 52, 51
1, 225333, Note_off_c, 0, 62, 52
1, 225340, Note_off_c, 0, 64, 47
1, 225416, Note_on_c, 0, 71, 54
1, 225437, Note_off_c, 0, 68, 58
1, 225509, Note_on_c, 0, 52, 49
1, 225512, Note_on_c, 0, 61, 50
1, 225521, Note_on_c, 0, 69, 60
1, 225542, Note_off_c, 0, 71, 52
1, 225554, Note_off_c, 0, 52, 52
1, 225560, Note_off_c, 0, 61, 59
1, 225611, Note_off_c, 0, 69, 57
1, 225631, Note_on_c, 0, 64, 61
1, 225743, Note_on_c, 0, 52, 52
1, 225743, Note_on_c, 0, 62, 50
1, 225750, Note_on_c, 0, 68, 66
1, 225780, Note_off_c, 0, 52, 67
1, 225805, Note_off_c, 0, 64, 57
1, 225826, Note_off_c, 0, 62, 57
1, 225856, Note_on_c, 0, 71, 65
1, 225866, Note_off_c, 0, 68, 57
1, 225977, Note_on_c, 0, 69, 61
1, 225980, Note_on_c, 0, 45, 59
1, 225995, Note_off_c, 0, 71, 55
1, 226004, Control_c, 0, 64, 41
1, 226019, Control_c, 0, 64, 59
1, 226027, Note_off_c, 0, 69, 65
1, 226034, Control_c, 0, 64, 64
1, 226048, Control_c, 0, 64, 66
1, 226063, Control_c, 0, 64, 66
1, 226078, Control_c, 0, 64, 67
1, 226084, Note_on_c, 0, 64, 61
1, 226093, Control_c, 0, 64, 67
1, 226106, Note_off_c, 0, 45, 57
1, 226108, Control_c, 0, 64, 68
1, 226188, Note_off_c, 0, 64, 62
1, 226208, Note_on_c, 0, 52, 64
1, 226209, Note_on_c, 0, 61, 62
1, 226220, Note_on_c, 0, 69, 68
1, 226236, Note_off_c, 0, 61, 66
1, 226242, Note_off_c, 0, 52, 68
1, 226242, Control_c, 0, 64, 67
1, 226278, Control_c, 0, 64, 67
1, 226293, Control_c, 0, 64, 66
1, 226308, Control_c, 0, 64, 66
1, 226323, Control_c, 0, 64, 65
1, 226325, Note_on_c, 0, 61, 57
1, 226333, Note_on_c, 0, 73, 61
1, 226334, Note_on_c, 0, 52, 68
1, 226337, Control_c, 0, 64, 63
1, 226352, Control_c, 0, 64, 57
1, 226353, Note_off_c, 0, 69, 61
1, 226355, Note_off_c, 0, 61, 63
1, 226367, Control_c, 0, 64, 42
1, 226382, Control_c, 0, 64, 0
1, 226385, Note_off_c, 0, 52, 51
1, 226388, Note_off_c, 0, 73, 60
1, 226436, Note_on_c, 0, 52, 50
1, 226439, Note_on_c, 0, 61, 77
1, 226439, Note_on_c, 0, 76, 76
1, 226501, Control_c, 0, 64, 36
1, 226515, Control_c, 0, 64, 61
1, 226530, Control_c, 0, 64, 67
1, 226545, Control_c, 0, 64, 71
1, 226560, Control_c, 0, 64, 71
1, 226567, Note_on_c, 0, 81, 72
1, 226568, Note_off_c, 0, 61, 62
1, 226575, Control_c, 0, 64, 72
1, 226589, Control_c, 0, 64, 73
1, 226590, Note_off_c, 0, 76, 61
1, 226604, Control_c, 0, 64, 74
1, 226619, Control_c, 0, 64, 76
1, 226634, Control_c, 0, 64, 77
1, 226650, Control_c, 0, 64, 77
1, 226663, Note_off_c, 0, 52, 56
1, 226683, Note_on_c, 0, 85, 64
1, 226694, Control_c, 0, 64, 78
1, 226709, Control_c, 0, 64, 78
1, 226738, Control_c, 0, 64, 79
1, 226779, Note_on_c, 0, 88, 75
1, 226788, Note_off_c, 0, 85, 63
1, 226827, Control_c, 0, 64, 79
1, 226840, Note_off_c, 0, 88, 63
1, 226845, Note_off_c, 0, 81, 34
1, 226871, Control_c, 0, 64, 79
1, 226886, Control_c, 0, 64, 76
1, 226886, Control_c, 0, 67, 125
1, 226901, Control_c, 0, 64, 70
1, 226901, Control_c, 0, 67, 112
1, 226916, Control_c, 0, 64, 61
1, 226916, Control_c, 0, 67, 94
1, 226925, Note_on_c, 0, 88, 82
1, 226931, Note_on_c, 0, 45, 63
1, 226931, Control_c, 0, 64, 0
1, 226931, Control_c, 0, 67, 74
1, 226938, Note_on_c, 0, 33, 55
1, 226946, Control_c, 0, 67, 51
1, 226960, Control_c, 0, 67, 31
1, 226975, Control_c, 0, 64, 8
1, 226975, Control_c, 0, 67, 14
1, 226990, Control_c, 0, 64, 49
1, 226990, Control_c, 0, 67, 0
1, 227005, Control_c, 0, 64, 59
1, 227027, Control_c, 0, 64, 63
1, 227042, Control_c, 0, 64, 64
1, 227048, Note_on_c, 0, 76, 70
1, 227057, Control_c, 0, 64, 66
1, 227072, Control_c, 0, 64, 68
1, 227083, Note_off_c, 0, 45, 62
1, 227086, Note_off_c, 0, 33, 59
1, 227086, Control_c, 0, 64, 72
1, 227093, Note_off_c, 0, 88, 62
1, 227101, Control_c, 0, 64, 75
1, 227116, Control_c, 0, 64, 77
1, 227145, Control_c, 0, 64, 75
1, 227160, Note_off_c, 0, 76, 64
1, 227160, Control_c, 0, 64, 69
1, 227169, Note_on_c, 0, 89, 91
1, 227175, Control_c, 0, 64, 60
1, 227182, Note_on_c, 0, 43, 78
1, 227188, Note_on_c, 0, 31, 73
1, 227190, Control_c, 0, 64, 0
1, 227235, Control_c, 0, 64, 50
1, 227250, Control_c, 0, 64, 63
1, 227264, Control_c, 0, 64, 67
1, 227278, Note_off_c, 0, 43, 59
1, 227279, Control_c, 0, 64, 68
1, 227282, Note_off_c, 0, 31, 61
1, 227286, Note_on_c, 0, 77, 77
1, 227294, Control_c, 0, 64, 69
1, 227306, Note_off_c, 0, 89, 64
1, 227309, Control_c, 0, 64, 71
1, 227324, Control_c, 0, 64, 74
1, 227338, Control_c, 0, 64, 79
1, 227353, Control_c, 0, 64, 85
1, 227368, Control_c, 0, 64, 88
1, 227398, Control_c, 0, 64, 84
1, 227411, Note_off_c, 0, 77, 61
1, 227412, Control_c, 0, 64, 68
1, 227425, Note_on_c, 0, 42, 70
1, 227426, Note_on_c, 0, 90, 89
1, 227427, Note_on_c, 0, 30, 74
1, 227427, Control_c, 0, 64, 21
1, 227442, Control_c, 0, 64, 0
1, 227464, Note_off_c, 0, 30, 60
1, 227488, Control_c, 0, 64, 49
1, 227497, Note_off_c, 0, 42, 63
1, 227503, Control_c, 0, 64, 65
1, 227517, Control_c, 0, 64, 71
1, 227532, Control_c, 0, 64, 75
1, 227546, Control_c, 0, 64, 77
1, 227551, Note_on_c, 0, 78, 75
1, 227561, Control_c, 0, 64, 78
1, 227572, Note_off_c, 0, 90, 63
1, 227575, Control_c, 0, 64, 80
1, 227590, Control_c, 0, 64, 82
1, 227605, Control_c, 0, 64, 86
1, 227619, Control_c, 0, 64, 90
1, 227634, Control_c, 0, 64, 94
1, 227649, Control_c, 0, 64, 94
1, 227679, Control_c, 0, 64, 87
1, 227681, Note_off_c, 0, 78, 61
1, 227694, Control_c, 0, 64, 67
1, 227697, Note_on_c, 0, 90, 85
1, 227704, Note_on_c, 0, 64, 64
1, 227709, Control_c, 0, 64, 8
1, 227724, Note_on_c, 0, 58, 56
1, 227724, Control_c, 0, 64, 0
1, 227735, Note_on_c, 0, 54, 39
1, 227775, Control_c, 0, 64, 39
1, 227790, Control_c, 0, 64, 67
1, 227796, Note_off_c, 0, 54, 55
1, 227805, Control_c, 0, 64, 80
1, 227820, Control_c, 0, 64, 90
1, 227833, Note_off_c, 0, 90, 61
1, 227840, Note_off_c, 0, 64, 49
1, 227841, Note_off_c, 0, 58, 57
1, 227863, Note_on_c, 0, 78, 73
1, 227903, Note_off_c, 0, 78, 57
1, 228071, Control_c, 0, 64, 86
1, 228074, Note_on_c, 0, 47, 49
1, 228086, Control_c, 0, 64, 79
1, 228101, Control_c, 0, 64, 71
1, 228116, Control_c, 0, 64, 62
1, 228131, Control_c, 0, 64, 28
1, 228144, Note_on_c, 0, 78, 58
1, 228146, Control_c, 0, 64, 0
1, 228234, Control_c, 0, 64, 56
1, 228250, Control_c, 0, 64, 65
1, 228265, Control_c, 0, 64, 69
1, 228280, Control_c, 0, 64, 70
1, 228286, Note_off_c, 0, 47, 52
1, 228301, Note_on_c, 0, 66, 68
1, 228303, Note_off_c, 0, 78, 62
1, 228310, Control_c, 0, 64, 70
1, 228324, Control_c, 0, 64, 71
1, 228324, Control_c, 0, 67, 10
1, 228339, Control_c, 0, 67, 22
1, 228354, Control_c, 0, 67, 35
1, 228369, Control_c, 0, 67, 47
1, 228383, Control_c, 0, 67, 59
1, 228388, Note_off_c, 0, 66, 0
1, 228398, Control_c, 0, 64, 69
1, 228398, Control_c, 0, 67, 72
1, 228411, Note_on_c, 0, 54, 47
1, 228412, Note_on_c, 0, 66, 47
1, 228413, Control_c, 0, 64, 67
1, 228413, Control_c, 0, 67, 83
1, 228417, Note_on_c, 0, 62, 47
1, 228428, Control_c, 0, 64, 63
1, 228428, Control_c, 0, 67, 93
1, 228442, Control_c, 0, 64, 48
1, 228442, Control_c, 0, 67, 104
1, 228448, Note_off_c, 0, 54, 62
1, 228448, Note_off_c, 0, 62, 51
1, 228457, Control_c, 0, 64, 0
1, 228457, Control_c, 0, 67, 113
1, 228471, Note_off_c, 0, 66, 62
1, 228472, Control_c, 0, 67, 123
1, 228487, Control_c, 0, 67, 127
1, 228541, Note_on_c, 0, 62, 55
1, 228543, Note_on_c, 0, 54, 60
1, 228545, Note_on_c, 0, 66, 40
1, 228568, Note_off_c, 0, 62, 58
1, 228572, Note_off_c, 0, 54, 64
1, 228591, Note_off_c, 0, 66, 64
1, 228636, Note_on_c, 0, 66, 53
1, 228643, Note_on_c, 0, 62, 67
1, 228645, Note_on_c, 0, 54, 66
1, 228672, Note_off_c, 0, 62, 61
1, 228678, Note_off_c, 0, 54, 63
1, 228681, Note_off_c, 0, 66, 64
1, 228746, Note_on_c, 0, 66, 51
1, 228866, Note_on_c, 0, 70, 63
1, 228868, Note_on_c, 0, 64, 52
1, 228870, Note_on_c, 0, 54, 44
1, 228886, Note_off_c, 0, 66, 50
1, 228894, Note_off_c, 0, 64, 63
1, 228896, Note_off_c, 0, 54, 56
1, 228973, Note_off_c, 0, 70, 54
1, 228981, Note_on_c, 0, 73, 58
1, 229091, Note_on_c, 0, 62, 55
1, 229091, Note_on_c, 0, 71, 66
1, 229109, Note_on_c, 0, 54, 34
1, 229115, Note_off_c, 0, 73, 49
1, 229130, Note_off_c, 0, 62, 55
1, 229139, Note_off_c, 0, 54, 50
1, 229172, Note_off_c, 0, 71, 56
1, 229195, Note_on_c, 0, 66, 58
1, 229316, Note_off_c, 0, 66, 58
1, 229318, Note_on_c, 0, 70, 57
1, 229319, Note_on_c, 0, 64, 53
1, 229340, Note_on_c, 0, 54, 24
1, 229354, Note_off_c, 0, 64, 65
1, 229376, Note_off_c, 0, 54, 45
1, 229435, Note_on_c, 0, 73, 58
1, 229442, Note_off_c, 0, 70, 52
1, 229539, Note_on_c, 0, 71, 65
1, 229545, Note_on_c, 0, 54, 53
1, 229545, Note_on_c, 0, 62, 59
1, 229573, Note_off_c, 0, 54, 57
1, 229590, Note_off_c, 0, 62, 53
1, 229644, Note_on_c, 0, 66, 59
1, 229662, Note_off_c, 0, 71, 57
1, 229707, Note_off_c, 0, 73, 33
1, 229762, Note_on_c, 0, 70, 64
1, 229768, Note_on_c, 0, 64, 55
1, 229775, Note_on_c, 0, 54, 49
1, 229777, Note_off_c, 0, 66, 51
1, 229802, Note_off_c, 0, 54, 58
1, 229840, Note_off_c, 0, 64, 62
1, 229855, Note_off_c, 0, 70, 58
1, 229880, Note_on_c, 0, 73, 63
1, 229912, Control_c, 0, 64, 26
1, 229926, Control_c, 0, 64, 36
1, 229941, Control_c, 0, 64, 41
1, 229956, Control_c, 0, 64, 46
1, 229971, Control_c, 0, 64, 52
1, 229986, Control_c, 0, 64, 58
1, 230001, Control_c, 0, 64, 61
1, 230006, Note_on_c, 0, 47, 63
1, 230006, Note_on_c, 0, 71, 54
1, 230022, Control_c, 0, 64, 63
1, 230037, Control_c, 0, 64, 64
1, 230052, Control_c, 0, 64, 65
1, 230067, Control_c, 0, 64, 66
1, 230082, Control_c, 0, 64, 67
1, 230084, Note_off_c, 0, 73, 27
1, 230097, Control_c, 0, 64, 69
1, 230111, Control_c, 0, 64, 71
1, 230126, Control_c, 0, 64, 72
1, 230141, Control_c, 0, 64, 72
1, 230142, Note_on_c, 0, 66, 58
1, 230145, Note_off_c, 0, 47, 58
1, 230156, Control_c, 0, 67, 126
1, 230171, Control_c, 0, 67, 118
1, 230174, Note_off_c, 0, 71, 58
1, 230186, Control_c, 0, 67, 109
1, 230201, Control_c, 0, 67, 98
1, 230204, Note_off_c, 0, 66, 64
1, 230216, Control_c, 0, 67, 84
1, 230230, Control_c, 0, 67, 66
1, 230245, Control_c, 0, 67, 49
1, 230249, Note_on_c, 0, 62, 63
1, 230253, Note_on_c, 0, 71, 68
1, 230256, Note_on_c, 0, 54, 57
1, 230260, Control_c, 0, 67, 33
1, 230274, Control_c, 0, 67, 22
1, 230277, Note_off_c, 0, 62, 65
1, 230287, Note_off_c, 0, 54, 64
1, 230289, Control_c, 0, 64, 71
1, 230289, Control_c, 0, 67, 14
1, 230304, Control_c, 0, 64, 70
1, 230304, Control_c, 0, 67, 0
1, 230319, Control_c, 0, 64, 67
1, 230334, Control_c, 0, 64, 63
1, 230348, Control_c, 0, 64, 52
1, 230358, Note_on_c, 0, 74, 69
1, 230358, Note_off_c, 0, 71, 62
1, 230362, Note_on_c, 0, 54, 70
1, 230363, Control_c, 0, 64, 0
1, 230365, Note_on_c, 0, 62, 59
1, 230387, Note_off_c, 0, 62, 61
1, 230388, Note_off_c, 0, 54, 64
1, 230459, Note_on_c, 0, 62, 79
1, 230460, Note_on_c, 0, 54, 67
1, 230469, Note_on_c, 0, 78, 77
1, 230493, Note_off_c, 0, 74, 63
1, 230535, Note_off_c, 0, 78, 63
1, 230583, Note_on_c, 0, 83, 74
1, 230585, Control_c, 0, 64, 33
1, 230600, Control_c, 0, 64, 59
1, 230615, Control_c, 0, 64, 66
1, 230620, Note_off_c, 0, 62, 58
1, 230630, Control_c, 0, 64, 69
1, 230645, Control_c, 0, 64, 72
1, 230660, Control_c, 0, 64, 73
1, 230675, Control_c, 0, 64, 75
1, 230688, Note_on_c, 0, 86, 82
1, 230690, Control_c, 0, 64, 76
1, 230704, Control_c, 0, 64, 77
1, 230710, Note_off_c, 0, 54, 62
1, 230719, Note_off_c, 0, 83, 59
1, 230771, Control_c, 0, 64, 78
1, 230817, Note_on_c, 0, 90, 81
1, 230819, Note_off_c, 0, 86, 61
1, 230862, Note_off_c, 0, 90, 63
1, 230904, Control_c, 0, 64, 76
1, 230919, Control_c, 0, 64, 70
1, 230934, Control_c, 0, 64, 62
1, 230949, Control_c, 0, 64, 0
1, 230952, Note_on_c, 0, 47, 84
1, 230954, Note_on_c, 0, 90, 96
1, 230958, Note_on_c, 0, 35, 77
1, 231008, Control_c, 0, 64, 20
1, 231023, Control_c, 0, 64, 56
1, 231038, Control_c, 0, 64, 62
1, 231053, Control_c, 0, 64, 63
1, 231079, Note_on_c, 0, 78, 77
1, 231083, Control_c, 0, 64, 64
1, 231095, Note_off_c, 0, 90, 62
1, 231097, Control_c, 0, 64, 66
1, 231102, Note_off_c, 0, 35, 64
1, 231102, Note_off_c, 0, 47, 60
1, 231112, Control_c, 0, 64, 70
1, 231127, Control_c, 0, 64, 75
1, 231142, Control_c, 0, 64, 75
1, 231157, Control_c, 0, 64, 75
1, 231171, Control_c, 0, 64, 68
1, 231182, Note_off_c, 0, 78, 62
1, 231186, Control_c, 0, 64, 54
1, 231190, Note_on_c, 0, 90, 100
1, 231193, Note_on_c, 0, 45, 90
1, 231195, Note_on_c, 0, 33, 81
1, 231201, Control_c, 0, 64, 0
1, 231290, Control_c, 0, 64, 39
1, 231295, Note_on_c, 0, 78, 81
1, 231304, Control_c, 0, 64, 61
1, 231319, Control_c, 0, 64, 67
1, 231334, Control_c, 0, 64, 72
1, 231336, Note_off_c, 0, 45, 59
1, 231336, Note_off_c, 0, 90, 61
1, 231336, Note_off_c, 0, 33, 65
1, 231349, Control_c, 0, 64, 76
1, 231363, Control_c, 0, 64, 79
1, 231390, Note_off_c, 0, 78, 64
1, 231393, Control_c, 0, 64, 75
1, 231408, Control_c, 0, 64, 63
1, 231422, Note_on_c, 0, 91, 101
1, 231423, Control_c, 0, 64, 0
1, 231429, Note_on_c, 0, 43, 92
1, 231433, Note_on_c, 0, 31, 87
1, 231498, Control_c, 0, 64, 28
1, 231520, Control_c, 0, 64, 63
1, 231535, Control_c, 0, 64, 71
1, 231550, Control_c, 0, 64, 82
1, 231551, Note_on_c, 0, 79, 89
1, 231565, Control_c, 0, 64, 91
1, 231568, Note_off_c, 0, 43, 57
1, 231572, Note_off_c, 0, 31, 63
1, 231580, Control_c, 0, 64, 92
1, 231586, Note_off_c, 0, 91, 56
1, 231594, Control_c, 0, 64, 90
1, 231609, Control_c, 0, 64, 72
1, 231624, Control_c, 0, 64, 0
1, 231649, Note_off_c, 0, 79, 63
1, 231661, Note_on_c, 0, 41, 94
1, 231668, Note_on_c, 0, 91, 105
1, 231672, Note_on_c, 0, 29, 73
1, 231698, Control_c, 0, 64, 61
1, 231713, Control_c, 0, 64, 72
1, 231727, Control_c, 0, 64, 81
1, 231742, Control_c, 0, 64, 85
1, 231757, Control_c, 0, 64, 85
1, 231761, Note_off_c, 0, 91, 62
1, 231772, Note_off_c, 0, 29, 61
1, 231772, Control_c, 0, 64, 87
1, 231776, Note_off_c, 0, 41, 61
1, 231782, Note_on_c, 0, 79, 81
1, 231787, Control_c, 0, 64, 90
1, 231801, Control_c, 0, 64, 94
1, 231816, Control_c, 0, 64, 97
1, 231846, Control_c, 0, 64, 88
1, 231853, Poly_aftertouch_c, 0, 86, 127
1, 231861, Note_off_c, 0, 79, 56
1, 231861, Control_c, 0, 64, 67
1, 231876, Poly_aftertouch_c, 0, 86, 0
1, 231876, Control_c, 0, 64, 0
1, 231899, Note_on_c, 0, 92, 102
1, 231906, Note_on_c, 0, 40, 95
1, 231909, Note_on_c, 0, 28, 92
1, 231935, Control_c, 0, 64, 63
1, 231938, Note_off_c, 0, 28, 66
1, 231950, Control_c, 0, 64, 80
1, 231958, Note_on_c, 0, 93, 27
1, 231958, Note_off_c, 0, 40, 68
1, 231965, Control_c, 0, 64, 115
1, 231980, Control_c, 0, 64, 127
1, 231992, Note_off_c, 0, 92, 64
1, 232001, Note_off_c, 0, 93, 39
1, 232005, Note_on_c, 0, 80, 74
1, 232028, Note_off_c, 0, 80, 71
1, 232068, Control_c, 0, 64, 95
1, 232083, Control_c, 0, 64, 75
1, 232098, Control_c, 0, 64, 53
1, 232113, Control_c, 0, 64, 0
1, 232127, Note_on_c, 0, 80, 86
1, 232134, Note_on_c, 0, 68, 86
1, 232138, Note_on_c, 0, 74, 67
1, 232145, Note_on_c, 0, 62, 62
1, 232157, Note_on_c, 0, 50, 30
1, 232159, Note_off_c, 0, 68, 64
1, 232165, Note_off_c, 0, 74, 67
1, 232166, Note_off_c, 0, 62, 61
1, 232168, Note_on_c, 0, 52, 32
1, 232176, Note_off_c, 0, 80, 64
1, 232196, Note_off_c, 0, 50, 40
1, 232209, Note_off_c, 0, 52, 31
1, 232233, Note_on_c, 0, 80, 94
1, 232240, Note_on_c, 0, 52, 77
1, 232243, Note_on_c, 0, 62, 77
1, 232245, Note_on_c, 0, 68, 84
1, 232251, Note_on_c, 0, 59, 64
1, 232255, Note_on_c, 0, 74, 58
1, 232273, Note_off_c, 0, 68, 69
1, 232278, Note_off_c, 0, 62, 65
1, 232281, Note_off_c, 0, 59, 65
1, 232282, Note_off_c, 0, 74, 68
1, 232290, Note_off_c, 0, 80, 65
1, 232293, Note_off_c, 0, 52, 65
1, 232347, Note_on_c, 0, 80, 94
1, 232352, Note_on_c, 0, 68, 97
1, 232353, Note_on_c, 0, 59, 73
1, 232353, Note_on_c, 0, 52, 76
1, 232354, Note_on_c, 0, 74, 70
1, 232355, Note_on_c, 0, 62, 87
1, 232389, Note_off_c, 0, 62, 58
1, 232392, Note_off_c, 0, 52, 64
1, 232395, Note_off_c, 0, 68, 63
1, 232395, Note_off_c, 0, 74, 57
1, 232403, Note_off_c, 0, 59, 61
1, 232409, Note_off_c, 0, 80, 61
1, 232597, Note_on_c, 0, 68, 99
1, 232597, Note_on_c, 0, 74, 76
1, 232598, Note_on_c, 0, 80, 96
1, 232602, Note_on_c, 0, 53, 88
1, 232603, Note_on_c, 0, 62, 78
1, 232622, Note_off_c, 0, 62, 70
1, 232633, Note_off_c, 0, 53, 67
1, 232639, Note_off_c, 0, 68, 62
1, 232648, Note_off_c, 0, 74, 65
1, 232678, Note_off_c, 0, 80, 59
1, 232832, Control_c, 0, 64, 55
1, 232836, Note_on_c, 0, 81, 91
1, 232842, Note_on_c, 0, 54, 95
1, 232843, Note_on_c, 0, 42, 86
1, 232847, Control_c, 0, 64, 69
1, 232849, Note_on_c, 0, 69, 78
1, 232862, Control_c, 0, 64, 84
1, 232874, Note_off_c, 0, 42, 62
1, 232876, Control_c, 0, 64, 99
1, 232887, Note_off_c, 0, 54, 63
1, 232891, Control_c, 0, 64, 106
1, 232906, Control_c, 0, 64, 109
1, 232911, Note_off_c, 0, 69, 63
1, 232921, Control_c, 0, 64, 112
1, 232936, Control_c, 0, 64, 114
1, 232950, Control_c, 0, 64, 118
1, 232965, Control_c, 0, 64, 127
1, 232970, Note_on_c, 0, 73, 77
1, 232992, Note_off_c, 0, 81, 56
1, 233031, Note_off_c, 0, 73, 62
1, 233088, Note_on_c, 0, 61, 80
1, 233090, Note_on_c, 0, 54, 72
1, 233094, Note_on_c, 0, 57, 68
1, 233103, Note_on_c, 0, 69, 79
1, 233103, Note_on_c, 0, 73, 69
1, 233118, Note_off_c, 0, 61, 56
1, 233122, Control_c, 0, 64, 107
1, 233126, Note_off_c, 0, 57, 62
1, 233131, Note_off_c, 0, 54, 60
1, 233132, Note_off_c, 0, 69, 63
1, 233136, Note_off_c, 0, 73, 53
1, 233137, Control_c, 0, 64, 80
1, 233152, Control_c, 0, 64, 62
1, 233166, Control_c, 0, 64, 0
1, 233199, Note_on_c, 0, 61, 72
1, 233205, Note_on_c, 0, 73, 84
1, 233208, Note_on_c, 0, 54, 62
1, 233208, Note_on_c, 0, 57, 63
1, 233208, Note_on_c, 0, 69, 83
1, 233223, Note_off_c, 0, 61, 67
1, 233236, Note_off_c, 0, 69, 65
1, 233238, Note_off_c, 0, 54, 64
1, 233238, Note_off_c, 0, 57, 65
1, 233252, Note_off_c, 0, 73, 58
1, 233301, Note_on_c, 0, 73, 81
1, 233304, Note_on_c, 0, 57, 75
1, 233304, Note_on_c, 0, 54, 71
1, 233304, Note_on_c, 0, 61, 78
1, 233306, Note_on_c, 0, 69, 79
1, 233328, Note_off_c, 0, 61, 67
1, 233337, Note_off_c, 0, 57, 63
1, 233340, Note_off_c, 0, 69, 63
1, 233348, Note_off_c, 0, 54, 60
1, 233360, Note_off_c, 0, 73, 64
1, 233540, Note_on_c, 0, 78, 98
1, 233544, Note_on_c, 0, 66, 86
1, 233548, Note_on_c, 0, 69, 74
1, 233551, Control_c, 0, 64, 20
1, 233556, Note_on_c, 0, 72, 74
1, 233558, Note_on_c, 0, 51, 79
1, 233566, Control_c, 0, 64, 26
1, 233569, Note_on_c, 0, 39, 63
1, 233581, Control_c, 0, 64, 31
1, 233596, Control_c, 0, 64, 37
1, 233611, Control_c, 0, 64, 41
1, 233611, Note_off_c, 0, 51, 48
1, 233615, Note_off_c, 0, 39, 62
1, 233626, Control_c, 0, 64, 42
1, 233639, Note_off_c, 0, 66, 62
1, 233646, Note_off_c, 0, 78, 62
1, 233661, Note_off_c, 0, 69, 63
1, 233679, Note_off_c, 0, 72, 62
1, 233714, Control_c, 0, 64, 41
1, 233729, Control_c, 0, 64, 40
1, 233744, Control_c, 0, 64, 38
1, 233759, Control_c, 0, 64, 36
1, 233781, Control_c, 0, 64, 34
1, 233789, Note_on_c, 0, 40, 84
1, 233791, Note_on_c, 0, 52, 86
1, 233796, Control_c, 0, 64, 31
1, 233811, Control_c, 0, 64, 28
1, 233825, Control_c, 0, 64, 27
1, 233840, Control_c, 0, 64, 28
1, 233856, Control_c, 0, 64, 29
1, 233870, Control_c, 0, 64, 28
1, 233885, Control_c, 0, 64, 25
1, 233900, Control_c, 0, 64, 20
1, 233904, Note_off_c, 0, 40, 64
1, 233915, Control_c, 0, 64, 8
1, 233927, Note_off_c, 0, 52, 63
1, 233930, Control_c, 0, 64, 0
1, 234025, Note_on_c, 0, 71, 87
1, 234031, Note_on_c, 0, 69, 82
1, 234043, Note_on_c, 0, 64, 62
1, 234143, Note_off_c, 0, 69, 65
1, 234147, Note_off_c, 0, 64, 53
1, 234152, Note_off_c, 0, 71, 64
1, 234299, Note_on_c, 0, 59, 57
1, 234302, Note_on_c, 0, 62, 61
1, 234302, Note_on_c, 0, 52, 56
1, 234437, Note_off_c, 0, 59, 62
1, 234466, Note_off_c, 0, 52, 63
1, 234473, Note_off_c, 0, 62, 56
1, 234583, Note_on_c, 0, 76, 79
1, 234607, Note_on_c, 0, 68, 47
1, 234612, Note_on_c, 0, 64, 46
1, 234630, Note_on_c, 0, 71, 26
1, 234679, Control_c, 0, 64, 40
1, 234693, Control_c, 0, 64, 60
1, 234708, Control_c, 0, 64, 65
1, 234723, Control_c, 0, 64, 69
1, 234738, Control_c, 0, 64, 74
1, 234753, Control_c, 0, 64, 81
1, 234765, Note_off_c, 0, 64, 39
1, 234767, Control_c, 0, 64, 86
1, 234782, Control_c, 0, 64, 88
1, 234789, Note_off_c, 0, 68, 55
1, 234792, Note_off_c, 0, 76, 60
1, 234797, Control_c, 0, 64, 88
1, 234812, Control_c, 0, 64, 89
1, 234828, Note_off_c, 0, 71, 54
1, 234945, Control_c, 0, 64, 86
1, 234960, Control_c, 0, 64, 80
1, 234973, Note_on_c, 0, 45, 37
1, 234975, Control_c, 0, 64, 73
1, 234990, Control_c, 0, 64, 66
1, 235005, Control_c, 0, 64, 58
1, 235019, Control_c, 0, 64, 34
1, 235024, Note_on_c, 0, 76, 53
1, 235034, Control_c, 0, 64, 0
1, 235078, Control_c, 0, 67, 14
1, 235093, Control_c, 0, 67, 22
1, 235108, Control_c, 0, 67, 28
1, 235123, Control_c, 0, 64, 43
1, 235123, Control_c, 0, 67, 34
1, 235137, Control_c, 0, 64, 59
1, 235137, Control_c, 0, 67, 38
1, 235152, Control_c, 0, 64, 64
1, 235152, Control_c, 0, 67, 41
1, 235167, Control_c, 0, 67, 43
1, 235170, Note_on_c, 0, 73, 60
1, 235182, Control_c, 0, 67, 44
1, 235185, Note_on_c, 0, 52, 42
1, 235187, Note_off_c, 0, 45, 43
1, 235197, Control_c, 0, 67, 44
1, 235212, Control_c, 0, 67, 45
1, 235226, Control_c, 0, 67, 47
1, 235241, Control_c, 0, 67, 50
1, 235253, Note_off_c, 0, 52, 61
1, 235263, Control_c, 0, 67, 54
1, 235264, Note_off_c, 0, 73, 56
1, 235278, Control_c, 0, 67, 58
1, 235292, Note_on_c, 0, 61, 53
1, 235293, Control_c, 0, 64, 63
1, 235293, Control_c, 0, 67, 63
1, 235308, Control_c, 0, 64, 63
1, 235308, Control_c, 0, 67, 69
1, 235315, Note_on_c, 0, 64, 15
1, 235323, Control_c, 0, 64, 62
1, 235323, Control_c, 0, 67, 76
1, 235337, Control_c, 0, 64, 61
1, 235337, Control_c, 0, 67, 82
1, 235352, Control_c, 0, 64, 57
1, 235352, Control_c, 0, 67, 88
1, 235367, Control_c, 0, 64, 52
1, 235367, Control_c, 0, 67, 94
1, 235369, Note_off_c, 0, 61, 58
1, 235382, Control_c, 0, 64, 45
1, 235382, Control_c, 0, 67, 99
1, 235391, Note_on_c, 0, 73, 53
1, 235396, Note_on_c, 0, 52, 48
1, 235397, Control_c, 0, 64, 39
1, 235397, Control_c, 0, 67, 103
1, 235399, Note_off_c, 0, 76, 23
1, 235407, Note_off_c, 0, 64, 42
1, 235411, Control_c, 0, 64, 31
1, 235411, Control_c, 0, 67, 106
1, 235426, Control_c, 0, 64, 18
1, 235426, Control_c, 0, 67, 110
1, 235442, Control_c, 0, 64, 0
1, 235442, Control_c, 0, 67, 113
1, 235456, Note_off_c, 0, 73, 47
1, 235457, Control_c, 0, 67, 116
1, 235472, Control_c, 0, 67, 118
1, 235479, Note_off_c, 0, 52, 58
1, 235486, Control_c, 0, 67, 119
1, 235499, Note_on_c, 0, 64, 52
1, 235502, Note_on_c, 0, 61, 50
1, 235560, Control_c, 0, 67, 118
1, 235590, Control_c, 0, 67, 117
1, 235605, Control_c, 0, 67, 117
1, 235609, Note_off_c, 0, 61, 59
1, 235633, Note_off_c, 0, 64, 61
1, 235665, Control_c, 0, 67, 116
1, 235754, Note_on_c, 0, 64, 49
1, 235760, Note_on_c, 0, 62, 38
1, 235761, Note_on_c, 0, 44, 38
1, 235836, Note_off_c, 0, 62, 57
1, 235847, Note_off_c, 0, 64, 57
1, 235893, Note_on_c, 0, 52, 40
1, 235963, Note_off_c, 0, 44, 43
1, 235978, Note_off_c, 0, 52, 54
1, 235989, Note_on_c, 0, 64, 40
1, 235991, Note_on_c, 0, 45, 47
1, 236019, Note_on_c, 0, 61, 46
1, 236057, Control_c, 0, 67, 116
1, 236087, Note_off_c, 0, 45, 56
1, 236115, Note_off_c, 0, 61, 60
1, 236116, Control_c, 0, 67, 115
1, 236121, Note_off_c, 0, 64, 61
1, 236127, Note_on_c, 0, 52, 53
1, 236146, Control_c, 0, 67, 115
1, 236190, Control_c, 0, 67, 114
1, 236213, Note_off_c, 0, 52, 53
1, 236236, Control_c, 0, 67, 114
1, 236250, Note_on_c, 0, 44, 41
1, 236256, Note_on_c, 0, 64, 51
1, 236260, Note_on_c, 0, 62, 53
1, 236356, Note_off_c, 0, 64, 58
1, 236359, Note_on_c, 0, 52, 46
1, 236361, Note_off_c, 0, 62, 59
1, 236398, Control_c, 0, 67, 114
1, 236400, Note_off_c, 0, 44, 37
1, 236443, Control_c, 0, 67, 115
1, 236465, Note_off_c, 0, 52, 61
1, 236482, Note_on_c, 0, 45, 48
1, 236486, Note_on_c, 0, 64, 46
1, 236500, Note_on_c, 0, 61, 53
1, 236578, Note_off_c, 0, 45, 58
1, 236595, Note_off_c, 0, 61, 60
1, 236600, Note_off_c, 0, 64, 54
1, 236604, Note_on_c, 0, 52, 52
1, 236682, Note_off_c, 0, 52, 51
1, 236726, Note_on_c, 0, 44, 42
1, 236731, Note_on_c, 0, 62, 60
1, 236734, Note_on_c, 0, 64, 51
1, 236803, Note_off_c, 0, 44, 56
1, 236805, Note_off_c, 0, 64, 56
1, 236807, Note_off_c, 0, 62, 49
1, 236836, Note_on_c, 0, 52, 48
1, 236895, Control_c, 0, 67, 114
1, 236900, Note_off_c, 0, 52, 56
1, 236969, Note_on_c, 0, 45, 56
1, 236969, Control_c, 0, 67, 114
1, 236997, Note_on_c, 0, 64, 51
1, 237012, Note_on_c, 0, 61, 44
1, 237028, Control_c, 0, 64, 14
1, 237044, Control_c, 0, 64, 23
1, 237058, Control_c, 0, 64, 31
1, 237058, Control_c, 0, 67, 113
1, 237073, Control_c, 0, 64, 38
1, 237073, Control_c, 0, 67, 113
1, 237088, Control_c, 0, 64, 43
1, 237098, Note_on_c, 0, 49, 61
1, 237103, Control_c, 0, 64, 47
1, 237103, Control_c, 0, 67, 112
1, 237118, Control_c, 0, 64, 50
1, 237118, Control_c, 0, 67, 111
1, 237132, Control_c, 0, 64, 52
1, 237132, Control_c, 0, 67, 111
1, 237137, Note_off_c, 0, 45, 63
1, 237147, Control_c, 0, 64, 54
1, 237147, Control_c, 0, 67, 110
1, 237162, Control_c, 0, 64, 56
1, 237162, Control_c, 0, 67, 109
1, 237177, Control_c, 0, 64, 57
1, 237177, Control_c, 0, 67, 108
1, 237192, Control_c, 0, 64, 58
1, 237192, Control_c, 0, 67, 107
1, 237203, Note_off_c, 0, 61, 54
1, 237206, Control_c, 0, 64, 59
1, 237206, Control_c, 0, 67, 105
1, 237220, Note_on_c, 0, 52, 64
1, 237221, Control_c, 0, 64, 59
1, 237221, Control_c, 0, 67, 102
1, 237236, Control_c, 0, 64, 60
1, 237236, Control_c, 0, 67, 97
1, 237251, Note_off_c, 0, 64, 61
1, 237251, Control_c, 0, 64, 61
1, 237251, Control_c, 0, 67, 90
1, 237256, Note_off_c, 0, 49, 60
1, 237265, Control_c, 0, 64, 62
1, 237265, Control_c, 0, 67, 81
1, 237280, Control_c, 0, 67, 73
1, 237295, Control_c, 0, 64, 62
1, 237295, Control_c, 0, 67, 63
1, 237303, Note_off_c, 0, 52, 66
1, 237310, Control_c, 0, 67, 54
1, 237325, Control_c, 0, 67, 44
1, 237331, Note_on_c, 0, 57, 63
1, 237340, Control_c, 0, 64, 63
1, 237340, Control_c, 0, 67, 35
1, 237355, Control_c, 0, 67, 28
1, 237370, Control_c, 0, 67, 23
1, 237385, Control_c, 0, 67, 19
1, 237400, Control_c, 0, 67, 15
1, 237414, Control_c, 0, 67, 11
1, 237429, Control_c, 0, 67, 0
1, 237456, Note_on_c, 0, 61, 76
1, 237458, Control_c, 0, 64, 62
1, 237478, Note_off_c, 0, 57, 59
1, 237540, Control_c, 0, 64, 62
1, 237573, Note_on_c, 0, 64, 77
1, 237587, Note_off_c, 0, 61, 62
1, 237629, Control_c, 0, 64, 61
1, 237644, Control_c, 0, 64, 61
1, 237659, Control_c, 0, 64, 59
1, 237672, Note_off_c, 0, 64, 63
1, 237673, Control_c, 0, 64, 50
1, 237688, Control_c, 0, 64, 0
1, 237693, Note_on_c, 0, 73, 78
1, 237697, Note_on_c, 0, 65, 74
1, 237703, Note_on_c, 0, 53, 73
1, 237704, Note_on_c, 0, 71, 61
1, 237777, Control_c, 0, 64, 31
1, 237792, Note_off_c, 0, 71, 60
1, 237792, Control_c, 0, 64, 58
1, 237807, Control_c, 0, 64, 64
1, 237822, Note_off_c, 0, 73, 61
1, 237837, Control_c, 0, 64, 64
1, 237840, Note_off_c, 0, 53, 65
1, 237867, Control_c, 0, 64, 65
1, 237881, Control_c, 0, 64, 65
1, 237911, Control_c, 0, 64, 65
1, 237926, Control_c, 0, 64, 61
1, 237938, Note_on_c, 0, 54, 79
1, 237939, Note_on_c, 0, 66, 84
1, 237940, Note_off_c, 0, 65, 53
1, 237941, Control_c, 0, 64, 45
1, 237955, Control_c, 0, 64, 0
1, 238043, Note_on_c, 0, 70, 74
1, 238044, Control_c, 0, 64, 36
1, 238058, Control_c, 0, 64, 62
1, 238073, Control_c, 0, 64, 67
1, 238087, Control_c, 0, 64, 68
1, 238132, Control_c, 0, 64, 69
1, 238142, Note_off_c, 0, 66, 65
1, 238156, Note_on_c, 0, 73, 77
1, 238161, Control_c, 0, 64, 69
1, 238184, Note_off_c, 0, 70, 63
1, 238213, Note_off_c, 0, 73, 63
1, 238267, Note_off_c, 0, 54, 58
1, 238282, Note_on_c, 0, 78, 80
1, 238317, Control_c, 0, 64, 69
1, 238332, Control_c, 0, 64, 68
1, 238347, Control_c, 0, 64, 67
1, 238361, Control_c, 0, 64, 63
1, 238376, Control_c, 0, 64, 55
1, 238391, Control_c, 0, 64, 14
1, 238406, Control_c, 0, 64, 0
1, 238408, Note_on_c, 0, 82, 87
1, 238443, Note_off_c, 0, 78, 62
1, 238534, Note_on_c, 0, 85, 82
1, 238616, Note_off_c, 0, 82, 51
1, 238643, Control_c, 0, 67, 8
1, 238658, Control_c, 0, 67, 15
1, 238673, Control_c, 0, 67, 22
1, 238688, Control_c, 0, 67, 29
1, 238702, Control_c, 0, 64, 29
1, 238702, Control_c, 0, 67, 39
1, 238703, Note_on_c, 0, 90, 84
1, 238708, Note_off_c, 0, 85, 61
1, 238716, Note_on_c, 0, 42, 55
1, 238717, Control_c, 0, 64, 53
1, 238717, Control_c, 0, 67, 50
1, 238720, Note_on_c, 0, 30, 38
1, 238725, Note_on_c, 0, 78, 69
1, 238732, Control_c, 0, 64, 62
1, 238732, Control_c, 0, 67, 63
1, 238747, Control_c, 0, 64, 66
1, 238747, Control_c, 0, 67, 76
1, 238760, Note_off_c, 0, 30, 51
1, 238762, Control_c, 0, 64, 70
1, 238762, Control_c, 0, 67, 87
1, 238777, Control_c, 0, 64, 73
1, 238777, Control_c, 0, 67, 100
1, 238782, Note_off_c, 0, 78, 63
1, 238792, Control_c, 0, 64, 76
1, 238792, Control_c, 0, 67, 113
1, 238795, Note_off_c, 0, 42, 62
1, 238802, Note_off_c, 0, 90, 64
1, 238807, Control_c, 0, 64, 78
1, 238807, Control_c, 0, 67, 127
1, 238822, Control_c, 0, 64, 78
1, 238836, Control_c, 0, 64, 79
1, 239036, Control_c, 0, 64, 78
1, 239051, Control_c, 0, 64, 78
1, 239066, Control_c, 0, 64, 77
1, 239070, Note_on_c, 0, 47, 38
1, 239081, Control_c, 0, 64, 73
1, 239096, Control_c, 0, 64, 69
1, 239111, Control_c, 0, 64, 63
1, 239125, Control_c, 0, 64, 50
1, 239134, Note_on_c, 0, 78, 69
1, 239140, Control_c, 0, 64, 0
1, 239247, Note_on_c, 0, 54, 49
1, 239250, Note_on_c, 0, 74, 59
1, 239276, Note_off_c, 0, 47, 43
1, 239317, Note_off_c, 0, 74, 63
1, 239325, Note_off_c, 0, 54, 59
1, 239359, Note_on_c, 0, 66, 61
1, 239375, Note_on_c, 0, 62, 39
1, 239450, Note_off_c, 0, 66, 58
1, 239461, Note_off_c, 0, 62, 40
1, 239462, Note_on_c, 0, 54, 37
1, 239467, Note_on_c, 0, 74, 46
1, 239513, Note_off_c, 0, 78, 38
1, 239569, Note_off_c, 0, 54, 47
1, 239581, Note_off_c, 0, 74, 57
1, 239594, Note_on_c, 0, 66, 47
1, 239596, Note_on_c, 0, 62, 39
1, 239645, Control_c, 0, 64, 33
1, 239659, Control_c, 0, 64, 42
1, 239674, Control_c, 0, 64, 50
1, 239689, Note_off_c, 0, 62, 55
1, 239689, Control_c, 0, 64, 55
1, 239704, Control_c, 0, 64, 58
1, 239719, Control_c, 0, 64, 59
1, 239734, Note_off_c, 0, 66, 63
1, 239786, Control_c, 0, 64, 59
1, 239801, Control_c, 0, 64, 58
1, 239815, Control_c, 0, 64, 57
1, 239830, Control_c, 0, 64, 55
1, 239841, Note_on_c, 0, 64, 56
1, 239845, Control_c, 0, 64, 51
1, 239848, Note_on_c, 0, 46, 41
1, 239850, Note_on_c, 0, 66, 50
1, 239859, Control_c, 0, 64, 44
1, 239874, Control_c, 0, 64, 32
1, 239889, Control_c, 0, 64, 15
1, 239904, Control_c, 0, 64, 0
1, 239943, Note_off_c, 0, 66, 61
1, 239947, Note_off_c, 0, 64, 62
1, 239972, Note_on_c, 0, 54, 47
1, 240052, Note_off_c, 0, 46, 39
1, 240057, Note_off_c, 0, 54, 57
1, 240077, Note_on_c, 0, 47, 48
1, 240102, Note_on_c, 0, 66, 51
1, 240103, Note_on_c, 0, 62, 50
1, 240178, Note_off_c, 0, 47, 64
1, 240203, Note_on_c, 0, 54, 48
1, 240203, Note_off_c, 0, 66, 61
1, 240231, Note_off_c, 0, 62, 54
1, 240312, Note_off_c, 0, 54, 58
1, 240335, Note_on_c, 0, 46, 50
1, 240336, Note_on_c, 0, 66, 51
1, 240349, Note_on_c, 0, 64, 48
1, 240445, Note_on_c, 0, 54, 50
1, 240449, Note_off_c, 0, 66, 59
1, 240457, Note_off_c, 0, 64, 62
1, 240488, Note_off_c, 0, 46, 35
1, 240556, Note_off_c, 0, 54, 58
1, 240574, Note_on_c, 0, 47, 51
1, 240584, Note_on_c, 0, 66, 59
1, 240589, Note_on_c, 0, 62, 59
1, 240663, Note_off_c, 0, 47, 61
1, 240699, Note_on_c, 0, 54, 47
1, 240714, Note_off_c, 0, 66, 60
1, 240727, Control_c, 0, 64, 8
1, 240745, Note_off_c, 0, 62, 59
1, 240801, Control_c, 0, 64, 10
1, 240807, Note_off_c, 0, 54, 58
1, 240814, Note_on_c, 0, 64, 56
1, 240816, Control_c, 0, 64, 14
1, 240831, Control_c, 0, 64, 18
1, 240832, Note_on_c, 0, 66, 60
1, 240838, Note_on_c, 0, 46, 44
1, 240845, Control_c, 0, 64, 22
1, 240860, Control_c, 0, 64, 26
1, 240875, Control_c, 0, 64, 32
1, 240890, Control_c, 0, 64, 38
1, 240905, Control_c, 0, 64, 43
1, 240920, Note_off_c, 0, 46, 58
1, 240920, Control_c, 0, 64, 45
1, 240928, Note_off_c, 0, 66, 58
1, 240929, Note_on_c, 0, 54, 58
1, 240934, Note_off_c, 0, 64, 59
1, 240935, Control_c, 0, 64, 48
1, 240949, Control_c, 0, 64, 49
1, 240964, Control_c, 0, 64, 49
1, 240979, Control_c, 0, 64, 50
1, 241008, Control_c, 0, 64, 49
1, 241024, Control_c, 0, 64, 48
1, 241036, Note_off_c, 0, 54, 54
1, 241039, Control_c, 0, 64, 45
1, 241054, Control_c, 0, 64, 42
1, 241069, Control_c, 0, 64, 36
1, 241069, Control_c, 0, 67, 126
1, 241070, Note_on_c, 0, 47, 55
1, 241084, Control_c, 0, 64, 26
1, 241084, Control_c, 0, 67, 120
1, 241093, Note_on_c, 0, 62, 51
1, 241095, Note_on_c, 0, 66, 58
1, 241099, Control_c, 0, 64, 10
1, 241099, Control_c, 0, 67, 112
1, 241113, Control_c, 0, 64, 0
1, 241113, Control_c, 0, 67, 103
1, 241128, Control_c, 0, 67, 89
1, 241143, Control_c, 0, 64, 14
1, 241143, Control_c, 0, 67, 76
1, 241158, Control_c, 0, 64, 23
1, 241158, Control_c, 0, 67, 61
1, 241172, Control_c, 0, 64, 34
1, 241172, Control_c, 0, 67, 47
1, 241187, Control_c, 0, 64, 41
1, 241187, Control_c, 0, 67, 33
1, 241200, Note_on_c, 0, 50, 63
1, 241202, Control_c, 0, 64, 47
1, 241202, Control_c, 0, 67, 23
1, 241217, Control_c, 0, 64, 51
1, 241217, Control_c, 0, 67, 13
1, 241231, Control_c, 0, 64, 54
1, 241231, Control_c, 0, 67, 0
1, 241246, Control_c, 0, 64, 57
1, 241258, Note_off_c, 0, 62, 36
1, 241269, Control_c, 0, 64, 59
1, 241284, Control_c, 0, 64, 61
1, 241299, Control_c, 0, 64, 61
1, 241318, Note_on_c, 0, 54, 62
1, 241337, Note_off_c, 0, 66, 50
1, 241348, Note_off_c, 0, 50, 58
1, 241355, Note_off_c, 0, 47, 37
1, 241387, Control_c, 0, 64, 62
1, 241408, Note_off_c, 0, 54, 62
1, 241429, Note_on_c, 0, 59, 71
1, 241550, Note_on_c, 0, 62, 71
1, 241558, Note_off_c, 0, 59, 59
1, 241579, Control_c, 0, 64, 61
1, 241667, Note_off_c, 0, 62, 55
1, 241677, Note_on_c, 0, 66, 75
1, 241735, Note_off_c, 0, 66, 64
1, 241743, Control_c, 0, 64, 62
1, 241772, Control_c, 0, 64, 60
1, 241787, Control_c, 0, 64, 55
1, 241795, Note_on_c, 0, 72, 48
1, 241796, Note_on_c, 0, 66, 82
1, 241796, Note_on_c, 0, 74, 76
1, 241802, Control_c, 0, 64, 34
1, 241817, Control_c, 0, 64, 0
1, 241833, Note_on_c, 0, 54, 16
1, 241862, Control_c, 0, 64, 40
1, 241877, Control_c, 0, 64, 59
1, 241881, Note_off_c, 0, 54, 28
1, 241892, Control_c, 0, 64, 66
1, 241907, Control_c, 0, 64, 70
1, 241921, Note_off_c, 0, 72, 54
1, 241921, Control_c, 0, 64, 72
1, 241942, Note_off_c, 0, 74, 63
1, 241951, Control_c, 0, 64, 72
1, 241981, Control_c, 0, 64, 73
1, 242002, Control_c, 0, 64, 73
1, 242033, Note_off_c, 0, 66, 62
1, 242047, Note_on_c, 0, 67, 77
1, 242047, Control_c, 0, 64, 73
1, 242050, Note_on_c, 0, 55, 80
1, 242062, Control_c, 0, 64, 69
1, 242077, Control_c, 0, 64, 63
1, 242091, Control_c, 0, 64, 46
1, 242106, Control_c, 0, 64, 0
1, 242136, Control_c, 0, 64, 20
1, 242151, Control_c, 0, 64, 48
1, 242166, Control_c, 0, 64, 61
1, 242181, Control_c, 0, 64, 64
1, 242194, Note_on_c, 0, 71, 71
1, 242196, Control_c, 0, 64, 65
1, 242196, Note_on_c, 0, 72, 68
1, 242225, Control_c, 0, 64, 65
1, 242228, Note_off_c, 0, 67, 58
1, 242254, Control_c, 0, 64, 66
1, 242267, Note_off_c, 0, 55, 61
1, 242269, Control_c, 0, 64, 66
1, 242299, Control_c, 0, 64, 67
1, 242303, Note_on_c, 0, 74, 60
1, 242312, Note_off_c, 0, 71, 57
1, 242324, Note_off_c, 0, 72, 61
1, 242328, Control_c, 0, 64, 67
1, 242364, Note_off_c, 0, 74, 65
1, 242413, Note_on_c, 0, 79, 56
1, 242417, Control_c, 0, 64, 68
1, 242432, Control_c, 0, 64, 69
1, 242447, Control_c, 0, 64, 70
1, 242461, Control_c, 0, 64, 72
1, 242491, Control_c, 0, 64, 71
1, 242506, Control_c, 0, 64, 66
1, 242521, Control_c, 0, 64, 48
1, 242533, Note_on_c, 0, 43, 85
1, 242533, Note_on_c, 0, 55, 86
1, 242536, Control_c, 0, 64, 0
1, 242537, Note_on_c, 0, 83, 85
1, 242581, Note_off_c, 0, 79, 57
1, 242626, Note_off_c, 0, 55, 62
1, 242639, Note_off_c, 0, 43, 62
1, 242651, Note_on_c, 0, 86, 82
1, 242687, Note_off_c, 0, 83, 59
1, 242715, Control_c, 0, 64, 12
1, 242729, Control_c, 0, 64, 25
1, 242751, Control_c, 0, 64, 23
1, 242766, Control_c, 0, 64, 17
1, 242781, Control_c, 0, 64, 0
1, 242791, Note_on_c, 0, 91, 96
1, 242797, Note_on_c, 0, 53, 86
1, 242800, Note_on_c, 0, 41, 80
1, 242804, Note_on_c, 0, 79, 81
1, 242816, Note_off_c, 0, 86, 61
1, 242898, Note_off_c, 0, 53, 63
1, 242905, Note_off_c, 0, 41, 64
1, 242919, Note_off_c, 0, 91, 62
1, 242958, Note_off_c, 0, 79, 62
1, 243050, Note_on_c, 0, 52, 94
1, 243053, Note_on_c, 0, 40, 89
1, 243193, Note_off_c, 0, 40, 64
1, 243209, Note_off_c, 0, 52, 59
1, 243317, Note_on_c, 0, 80, 102
1, 243320, Note_on_c, 0, 74, 83
1, 243324, Note_on_c, 0, 68, 87
1, 243467, Note_off_c, 0, 74, 62
1, 243498, Note_off_c, 0, 80, 56
1, 243511, Note_off_c, 0, 68, 50
1, 243600, Note_on_c, 0, 51, 92
1, 243603, Note_on_c, 0, 39, 83
1, 243871, Note_off_c, 0, 39, 56
1, 243910, Note_off_c, 0, 51, 54
1, 243938, Note_on_c, 0, 81, 94
1, 243941, Note_on_c, 0, 78, 83
1, 243942, Note_on_c, 0, 72, 81
1, 243943, Note_on_c, 0, 69, 87
1, 244257, Note_off_c, 0, 81, 57
1, 244274, Note_off_c, 0, 69, 63
1, 244299, Note_off_c, 0, 78, 61
1, 244312, Note_off_c, 0, 72, 62
1, 244709, Control_c, 0, 67, 8
1, 244723, Control_c, 0, 67, 20
1, 244738, Control_c, 0, 67, 32
1, 244753, Control_c, 0, 67, 45
1, 244767, Control_c, 0, 67, 60
1, 244782, Control_c, 0, 67, 74
1, 244797, Control_c, 0, 67, 90
1, 244812, Control_c, 0, 67, 107
1, 244827, Control_c, 0, 67, 124
1, 244841, Control_c, 0, 67, 127
1, 245114, Note_on_c, 0, 53, 32
1, 245116, Note_on_c, 0, 57, 35
1, 245129, Note_on_c, 0, 59, 21
1, 245314, Note_off_c, 0, 53, 39
1, 245330, Note_off_c, 0, 59, 42
1, 245340, Note_off_c, 0, 57, 39
1, 245497, Note_on_c, 0, 71, 40
1, 245502, Note_on_c, 0, 69, 36
1, 245515, Note_on_c, 0, 62, 30
1, 245706, Note_off_c, 0, 62, 54
1, 245714, Note_off_c, 0, 69, 63
1, 245716, Note_off_c, 0, 71, 60
1, 246455, Note_on_c, 0, 62, 29
1, 246456, Note_on_c, 0, 59, 29
1, 246481, Note_on_c, 0, 52, 19
1, 246688, Note_off_c, 0, 52, 39
1, 246698, Note_off_c, 0, 62, 35
1, 246731, Note_off_c, 0, 59, 40
1, 246854, Note_on_c, 0, 68, 33
1, 246857, Note_on_c, 0, 76, 35
1, 246869, Note_on_c, 0, 71, 18
1, 246873, Note_on_c, 0, 64, 8
1, 247102, Note_off_c, 0, 76, 57
1, 247105, Note_off_c, 0, 64, 44
1, 247152, Note_off_c, 0, 68, 49
1, 247162, Note_off_c, 0, 71, 42
1, 248230, Control_c, 0, 64, 8
1, 248245, Control_c, 0, 64, 38
1, 248260, Control_c, 0, 64, 50
1, 248275, Control_c, 0, 64, 56
1, 248289, Control_c, 0, 64, 59
1, 248304, Control_c, 0, 64, 62
1, 248319, Control_c, 0, 64, 63
1, 248334, Control_c, 0, 64, 65
1, 248349, Control_c, 0, 64, 67
1, 248363, Control_c, 0, 64, 70
1, 248378, Control_c, 0, 64, 74
1, 248393, Control_c, 0, 64, 78
1, 248408, Control_c, 0, 64, 82
1, 248423, Control_c, 0, 64, 84
1, 248438, Control_c, 0, 64, 86
1, 248453, Control_c, 0, 64, 88
1, 248468, Control_c, 0, 64, 89
1, 248483, Control_c, 0, 64, 90
1, 248497, Control_c, 0, 64, 91
1, 248607, Note_on_c, 0, 72, 43
1, 248608, Note_on_c, 0, 60, 29
1, 248713, Note_off_c, 0, 72, 58
1, 248719, Note_off_c, 0, 60, 34
1, 248787, Note_on_c, 0, 71, 47
1, 248801, Control_c, 0, 64, 90
1, 248816, Control_c, 0, 64, 88
1, 248823, Note_off_c, 0, 71, 60
1, 248830, Control_c, 0, 64, 85
1, 248842, Note_on_c, 0, 59, 18
1, 248845, Control_c, 0, 64, 81
1, 248851, Note_on_c, 0, 72, 58
1, 248860, Control_c, 0, 64, 77
1, 248873, Note_off_c, 0, 59, 0
1, 248875, Control_c, 0, 64, 72
1, 248890, Control_c, 0, 64, 66
1, 248893, Note_on_c, 0, 60, 29
1, 248902, Poly_aftertouch_c, 0, 59, 0
1, 248903, Note_off_c, 0, 72, 48
1, 248904, Control_c, 0, 64, 62
1, 248919, Control_c, 0, 64, 54
1, 248924, Note_on_c, 0, 59, 27
1, 248924, Note_on_c, 0, 71, 58
1, 248924, Note_off_c, 0, 60, 50
1, 248934, Control_c, 0, 64, 35
1, 248948, Control_c, 0, 64, 0
1, 249204, Note_on_c, 0, 69, 50
1, 249225, Note_on_c, 0, 57, 34
1, 249253, Note_off_c, 0, 71, 58
1, 249314, Note_off_c, 0, 59, 37
1, 249600, Note_on_c, 0, 76, 52
1, 249609, Note_off_c, 0, 69, 48
1, 249612, Note_on_c, 0, 64, 42
1, 249660, Note_off_c, 0, 57, 38
1, 249699, Control_c, 0, 64, 23
1, 249714, Control_c, 0, 64, 38
1, 249728, Control_c, 0, 64, 48
1, 249743, Control_c, 0, 64, 55
1, 249758, Control_c, 0, 64, 62
1, 249772, Control_c, 0, 64, 65
1, 249787, Control_c, 0, 64, 69
1, 249802, Control_c, 0, 64, 73
1, 249818, Control_c, 0, 64, 79
1, 249833, Control_c, 0, 64, 84
1, 249848, Control_c, 0, 64, 88
1, 249863, Control_c, 0, 64, 92
1, 249877, Control_c, 0, 64, 97
1, 249892, Control_c, 0, 64, 100
1, 249907, Control_c, 0, 64, 103
1, 249922, Control_c, 0, 64, 103
1, 250085, Note_on_c, 0, 72, 42
1, 250110, Note_on_c, 0, 60, 26
1, 250114, Control_c, 0, 64, 103
1, 250143, Control_c, 0, 64, 102
1, 250146, Note_off_c, 0, 64, 40
1, 250158, Control_c, 0, 64, 100
1, 250173, Control_c, 0, 64, 97
1, 250174, Note_on_c, 0, 57, 35
1, 250178, Note_on_c, 0, 69, 46
1, 250188, Control_c, 0, 64, 92
1, 250203, Control_c, 0, 64, 88
1, 250217, Control_c, 0, 64, 83
1, 250240, Control_c, 0, 64, 79
1, 250255, Control_c, 0, 64, 74
1, 250266, Note_off_c, 0, 60, 22
1, 250269, Note_off_c, 0, 72, 34
1, 250269, Control_c, 0, 64, 68
1, 250283, Note_on_c, 0, 52, 31
1, 250284, Control_c, 0, 64, 63
1, 250287, Note_on_c, 0, 64, 46
1, 250299, Control_c, 0, 64, 54
1, 250314, Control_c, 0, 64, 39
1, 250320, Note_off_c, 0, 57, 24
1, 250329, Control_c, 0, 64, 12
1, 250343, Control_c, 0, 64, 0
1, 250366, Note_off_c, 0, 69, 39
1, 250375, Note_off_c, 0, 76, 41
1, 250566, Control_c, 0, 64, 34
1, 250581, Control_c, 0, 64, 48
1, 250595, Control_c, 0, 64, 56
1, 250610, Control_c, 0, 64, 59
1, 250626, Control_c, 0, 64, 61
1, 250641, Control_c, 0, 64, 62
1, 250671, Control_c, 0, 64, 62
1, 250715, Control_c, 0, 64, 63
1, 250774, Control_c, 0, 64, 62
1, 250802, Control_c, 0, 64, 62
1, 250846, Control_c, 0, 64, 61
1, 250876, Control_c, 0, 64, 61
1, 250891, Control_c, 0, 64, 60
1, 250906, Control_c, 0, 64, 59
1, 250921, Control_c, 0, 64, 58
1, 250935, Control_c, 0, 64, 58
1, 250950, Control_c, 0, 64, 56
1, 250965, Control_c, 0, 64, 54
1, 250980, Control_c, 0, 64, 50
1, 251002, Control_c, 0, 64, 46
1, 251016, Control_c, 0, 64, 42
1, 251031, Control_c, 0, 64, 40
1, 251046, Control_c, 0, 64, 37
1, 251053, Note_off_c, 0, 52, 44
1, 251058, Note_off_c, 0, 64, 60
1, 251061, Control_c, 0, 64, 31
1, 251076, Control_c, 0, 64, 21
1, 251091, Control_c, 0, 64, 8
1, 251106, Control_c, 0, 64, 0
1, 251254, Note_on_c, 0, 64, 50
1, 251254, Control_c, 0, 64, 12
1, 251265, Note_on_c, 0, 60, 38
1, 251269, Control_c, 0, 64, 20
1, 251283, Control_c, 0, 64, 29
1, 251293, Note_on_c, 0, 52, 31
1, 251298, Control_c, 0, 64, 40
1, 251313, Control_c, 0, 64, 53
1, 251328, Control_c, 0, 64, 61
1, 251342, Control_c, 0, 64, 64
1, 251357, Control_c, 0, 64, 65
1, 251372, Control_c, 0, 64, 66
1, 251387, Control_c, 0, 64, 66
1, 251402, Control_c, 0, 64, 67
1, 251485, Note_off_c, 0, 64, 62
1, 251487, Note_off_c, 0, 60, 56
1, 251495, Note_off_c, 0, 52, 43
1, 251536, Control_c, 0, 64, 66
1, 251551, Control_c, 0, 64, 66
1, 251565, Control_c, 0, 64, 65
1, 251580, Control_c, 0, 64, 64
1, 251595, Control_c, 0, 64, 61
1, 251610, Control_c, 0, 64, 55
1, 251614, Note_on_c, 0, 64, 60
1, 251621, Note_on_c, 0, 59, 50
1, 251621, Note_on_c, 0, 62, 56
1, 251625, Control_c, 0, 64, 40
1, 251627, Note_on_c, 0, 52, 42
1, 251639, Control_c, 0, 64, 0
1, 251751, Control_c, 0, 64, 15
1, 251765, Control_c, 0, 64, 26
1, 251780, Control_c, 0, 64, 27
1, 251795, Control_c, 0, 64, 28
1, 251810, Control_c, 0, 64, 29
1, 251818, Note_off_c, 0, 62, 59
1, 251829, Note_off_c, 0, 52, 64
1, 251839, Control_c, 0, 64, 28
1, 251844, Note_off_c, 0, 64, 59
1, 251846, Note_off_c, 0, 59, 59
1, 251854, Control_c, 0, 64, 23
1, 251869, Control_c, 0, 64, 18
1, 251884, Control_c, 0, 64, 8
1, 251899, Control_c, 0, 64, 0
1, 251928, Note_on_c, 0, 64, 57
1, 251932, Note_on_c, 0, 60, 67
1, 251943, Note_on_c, 0, 57, 55
1, 251952, Note_on_c, 0, 52, 54
1, 252091, Control_c, 0, 64, 20
1, 252106, Control_c, 0, 64, 34
1, 252116, Note_off_c, 0, 64, 62
1, 252120, Note_off_c, 0, 60, 61
1, 252121, Control_c, 0, 64, 42
1, 252124, Note_off_c, 0, 52, 63
1, 252131, Note_off_c, 0, 57, 62
1, 252136, Control_c, 0, 64, 45
1, 252151, Control_c, 0, 64, 44
1, 252165, Control_c, 0, 64, 40
1, 252180, Control_c, 0, 64, 34
1, 252195, Control_c, 0, 64, 18
1, 252211, Control_c, 0, 64, 0
1, 252231, Note_on_c, 0, 59, 63
1, 252233, Note_on_c, 0, 64, 70
1, 252236, Note_on_c, 0, 56, 57
1, 252247, Note_on_c, 0, 52, 56
1, 252316, Control_c, 0, 64, 34
1, 252322, Note_off_c, 0, 64, 64
1, 252331, Control_c, 0, 64, 54
1, 252345, Control_c, 0, 64, 60
1, 252360, Control_c, 0, 64, 60
1, 252360, Control_c, 0, 67, 120
1, 252375, Control_c, 0, 67, 99
1, 252389, Control_c, 0, 67, 76
1, 252404, Control_c, 0, 64, 61
1, 252404, Control_c, 0, 67, 51
1, 252419, Control_c, 0, 64, 61
1, 252419, Control_c, 0, 67, 29
1, 252421, Note_off_c, 0, 59, 62
1, 252427, Note_off_c, 0, 52, 59
1, 252434, Control_c, 0, 67, 13
1, 252449, Control_c, 0, 67, 0
1, 252461, Note_off_c, 0, 56, 61
1, 252501, Control_c, 0, 64, 61
1, 252516, Control_c, 0, 64, 60
1, 252531, Control_c, 0, 64, 59
1, 252545, Control_c, 0, 64, 56
1, 252560, Control_c, 0, 64, 50
1, 252575, Control_c, 0, 64, 38
1, 252580, Note_on_c, 0, 72, 66
1, 252589, Control_c, 0, 64, 0
1, 252591, Note_on_c, 0, 52, 36
1, 252593, Note_on_c, 0, 57, 42
1, 252605, Note_on_c, 0, 63, 56
1, 252611, Note_on_c, 0, 60, 17
1, 252663, Control_c, 0, 64, 46
1, 252678, Control_c, 0, 64, 59
1, 252693, Control_c, 0, 64, 64
1, 252708, Control_c, 0, 64, 67
1, 252722, Control_c, 0, 64, 70
1, 252737, Control_c, 0, 64, 72
1, 252745, Note_off_c, 0, 63, 56
1, 252752, Control_c, 0, 64, 76
1, 252767, Control_c, 0, 64, 79
1, 252782, Note_off_c, 0, 72, 60
1, 252782, Control_c, 0, 64, 81
1, 252787, Note_off_c, 0, 52, 41
1, 252796, Control_c, 0, 64, 81
1, 252805, Note_off_c, 0, 60, 40
1, 252806, Note_off_c, 0, 57, 36
1, 252811, Control_c, 0, 64, 82
1, 252826, Control_c, 0, 64, 83
1, 252975, Control_c, 0, 64, 82
1, 252989, Control_c, 0, 64, 80
1, 253005, Control_c, 0, 64, 78
1, 253019, Note_on_c, 0, 72, 71
1, 253019, Control_c, 0, 64, 75
1, 253034, Control_c, 0, 64, 71
1, 253036, Note_on_c, 0, 60, 44
1, 253040, Note_on_c, 0, 52, 37
1, 253043, Note_on_c, 0, 57, 38
1, 253049, Note_on_c, 0, 64, 39
1, 253049, Control_c, 0, 64, 67
1, 253064, Control_c, 0, 64, 63
1, 253078, Control_c, 0, 64, 58
1, 253093, Control_c, 0, 64, 47
1, 253108, Control_c, 0, 64, 29
1, 253123, Control_c, 0, 64, 0
1, 253234, Control_c, 0, 64, 32
1, 253249, Control_c, 0, 64, 47
1, 253264, Control_c, 0, 64, 56
1, 253279, Control_c, 0, 64, 61
1, 253293, Control_c, 0, 64, 63
1, 253293, Control_c, 0, 67, 14
1, 253308, Control_c, 0, 64, 64
1, 253308, Control_c, 0, 67, 33
1, 253323, Control_c, 0, 64, 66
1, 253323, Control_c, 0, 67, 54
1, 253337, Control_c, 0, 64, 68
1, 253337, Control_c, 0, 67, 72
1, 253352, Control_c, 0, 64, 70
1, 253352, Control_c, 0, 67, 86
1, 253367, Control_c, 0, 64, 73
1, 253367, Control_c, 0, 67, 102
1, 253382, Control_c, 0, 64, 75
1, 253382, Control_c, 0, 67, 118
1, 253397, Control_c, 0, 64, 77
1, 253397, Control_c, 0, 67, 127
1, 253411, Control_c, 0, 64, 79
1, 253426, Control_c, 0, 64, 80
1, 253441, Control_c, 0, 64, 81
1, 253556, Note_off_c, 0, 60, 31
1, 253752, Control_c, 0, 64, 80
1, 253757, Note_off_c, 0, 57, 36
1, 253767, Control_c, 0, 64, 79
1, 253782, Control_c, 0, 64, 79
1, 253797, Control_c, 0, 64, 77
1, 253812, Control_c, 0, 64, 75
1, 253827, Control_c, 0, 64, 73
1, 253842, Control_c, 0, 64, 69
1, 253849, Note_on_c, 0, 71, 45
1, 253856, Note_on_c, 0, 59, 35
1, 253857, Control_c, 0, 64, 65
1, 253867, Note_on_c, 0, 56, 29
1, 253869, Note_off_c, 0, 72, 38
1, 253872, Control_c, 0, 64, 59
1, 253887, Control_c, 0, 64, 45
1, 253901, Control_c, 0, 64, 0
1, 253966, Note_off_c, 0, 64, 46
1, 254012, Control_c, 0, 64, 36
1, 254027, Control_c, 0, 64, 60
1, 254042, Control_c, 0, 64, 66
1, 254057, Control_c, 0, 64, 69
1, 254072, Control_c, 0, 64, 70
1, 254084, Note_off_c, 0, 52, 43
1, 254087, Control_c, 0, 64, 72
1, 254102, Control_c, 0, 64, 74
1, 254116, Control_c, 0, 64, 76
1, 254131, Control_c, 0, 64, 77
1, 254137, Note_off_c, 0, 56, 47
1, 254146, Control_c, 0, 64, 78
1, 254174, Note_off_c, 0, 71, 62
1, 254180, Note_off_c, 0, 59, 49
1, 254382, Control_c, 0, 64, 76
1, 254397, Control_c, 0, 64, 71
1, 254402, Note_on_c, 0, 74, 51
1, 254412, Control_c, 0, 64, 66
1, 254427, Note_on_c, 0, 62, 40
1, 254427, Control_c, 0, 64, 61
1, 254441, Control_c, 0, 64, 60
1, 254456, Control_c, 0, 64, 61
1, 254471, Control_c, 0, 64, 62
1, 254476, Note_off_c, 0, 62, 55
1, 254486, Control_c, 0, 64, 65
1, 254500, Note_off_c, 0, 74, 63
1, 254501, Control_c, 0, 64, 67
1, 254516, Control_c, 0, 64, 68
1, 254593, Note_on_c, 0, 72, 52
1, 254620, Control_c, 0, 64, 68
1, 254626, Note_off_c, 0, 72, 66
1, 254631, Note_on_c, 0, 62, 55
1, 254635, Note_on_c, 0, 74, 49
1, 254635, Control_c, 0, 64, 66
1, 254650, Control_c, 0, 64, 64
1, 254665, Control_c, 0, 64, 62
1, 254674, Note_off_c, 0, 62, 53
1, 254680, Control_c, 0, 64, 56
1, 254691, Note_on_c, 0, 60, 26
1, 254695, Control_c, 0, 64, 43
1, 254707, Note_on_c, 0, 72, 71
1, 254710, Control_c, 0, 64, 0
1, 254766, Note_off_c, 0, 74, 54
1, 255048, Note_on_c, 0, 71, 57
1, 255056, Note_on_c, 0, 59, 40
1, 255089, Note_off_c, 0, 72, 63
1, 255094, Note_off_c, 0, 60, 40
1, 255516, Note_on_c, 0, 77, 62
1, 255526, Note_on_c, 0, 65, 36
1, 255601, Note_off_c, 0, 71, 57
1, 255655, Note_off_c, 0, 59, 43
1, 255702, Control_c, 0, 64, 23
1, 255717, Control_c, 0, 64, 54
1, 255732, Control_c, 0, 64, 63
1, 255747, Control_c, 0, 64, 66
1, 255762, Control_c, 0, 64, 70
1, 255777, Control_c, 0, 64, 75
1, 255792, Control_c, 0, 64, 81
1, 255806, Control_c, 0, 64, 87
1, 255821, Control_c, 0, 64, 91
1, 255836, Control_c, 0, 64, 95
1, 255851, Control_c, 0, 64, 97
1, 255866, Control_c, 0, 64, 98
1, 255880, Control_c, 0, 64, 99
1, 256052, Note_on_c, 0, 74, 48
1, 256053, Note_off_c, 0, 65, 43
1, 256080, Note_on_c, 0, 62, 27
1, 256118, Control_c, 0, 64, 99
1, 256124, Note_on_c, 0, 59, 36
1, 256126, Note_on_c, 0, 71, 46
1, 256132, Note_off_c, 0, 62, 42
1, 256132, Control_c, 0, 64, 98
1, 256147, Control_c, 0, 64, 97
1, 256162, Control_c, 0, 64, 94
1, 256176, Note_off_c, 0, 77, 30
1, 256177, Control_c, 0, 64, 91
1, 256192, Control_c, 0, 64, 86
1, 256208, Control_c, 0, 64, 82
1, 256223, Control_c, 0, 64, 77
1, 256245, Control_c, 0, 64, 71
1, 256260, Control_c, 0, 64, 66
1, 256267, Note_on_c, 0, 64, 48
1, 256268, Note_off_c, 0, 71, 55
1, 256274, Note_on_c, 0, 52, 33
1, 256275, Control_c, 0, 64, 61
1, 256283, Note_off_c, 0, 74, 31
1, 256290, Control_c, 0, 64, 49
1, 256304, Control_c, 0, 64, 31
1, 256319, Control_c, 0, 64, 0
1, 256322, Note_off_c, 0, 59, 32
1, 256951, Note_off_c, 0, 64, 49
1, 257004, Note_off_c, 0, 52, 43
1, 257156, Control_c, 0, 64, 24
1, 257171, Control_c, 0, 64, 38
1, 257185, Control_c, 0, 64, 48
1, 257200, Control_c, 0, 64, 55
1, 257208, Note_on_c, 0, 64, 53
1, 257215, Control_c, 0, 64, 60
1, 257221, Note_on_c, 0, 52, 37
1, 257230, Control_c, 0, 64, 63
1, 257245, Control_c, 0, 64, 65
1, 257259, Control_c, 0, 64, 67
1, 257274, Control_c, 0, 64, 69
1, 257289, Control_c, 0, 64, 73
1, 257303, Control_c, 0, 64, 76
1, 257318, Control_c, 0, 64, 78
1, 257333, Control_c, 0, 64, 79
1, 257363, Control_c, 0, 64, 79
1, 257378, Control_c, 0, 64, 80
1, 257392, Note_off_c, 0, 64, 60
1, 257392, Control_c, 0, 67, 121
1, 257404, Note_off_c, 0, 52, 41
1, 257407, Control_c, 0, 67, 102
1, 257422, Control_c, 0, 67, 81
1, 257437, Control_c, 0, 67, 62
1, 257452, Control_c, 0, 67, 45
1, 257467, Control_c, 0, 67, 32
1, 257482, Control_c, 0, 67, 24
1, 257497, Control_c, 0, 67, 18
1, 257511, Control_c, 0, 67, 15
1, 257526, Control_c, 0, 67, 13
1, 257541, Control_c, 0, 67, 12
1, 257556, Control_c, 0, 64, 79
1, 257556, Control_c, 0, 67, 9
1, 257571, Control_c, 0, 64, 75
1, 257571, Control_c, 0, 67, 0
1, 257585, Control_c, 0, 64, 68
1, 257588, Note_on_c, 0, 65, 59
1, 257600, Control_c, 0, 64, 62
1, 257608, Note_on_c, 0, 52, 41
1, 257608, Note_on_c, 0, 64, 49
1, 257615, Control_c, 0, 64, 51
1, 257630, Control_c, 0, 64, 41
1, 257644, Control_c, 0, 64, 44
1, 257659, Control_c, 0, 64, 49
1, 257674, Control_c, 0, 64, 56
1, 257689, Control_c, 0, 64, 61
1, 257703, Control_c, 0, 64, 63
1, 257726, Control_c, 0, 64, 65
1, 257741, Control_c, 0, 64, 66
1, 257756, Control_c, 0, 64, 68
1, 257771, Control_c, 0, 64, 69
1, 257785, Control_c, 0, 64, 70
1, 257799, Note_off_c, 0, 64, 58
1, 257800, Control_c, 0, 64, 71
1, 257804, Note_off_c, 0, 52, 60
1, 257812, Note_off_c, 0, 65, 60
1, 257816, Control_c, 0, 64, 72
1, 257846, Control_c, 0, 64, 72
1, 257890, Control_c, 0, 64, 72
1, 257905, Control_c, 0, 64, 71
1, 257920, Control_c, 0, 64, 68
1, 257934, Control_c, 0, 64, 64
1, 257949, Control_c, 0, 64, 58
1, 257950, Note_on_c, 0, 68, 66
1, 257955, Note_on_c, 0, 52, 39
1, 257964, Control_c, 0, 64, 44
1, 257979, Control_c, 0, 64, 29
1, 257981, Note_on_c, 0, 62, 47
1, 257985, Note_on_c, 0, 64, 40
1, 257994, Control_c, 0, 64, 32
1, 258008, Control_c, 0, 64, 41
1, 258018, Note_off_c, 0, 52, 0
1, 258018, Note_on_c, 0, 52, 11
1, 258023, Control_c, 0, 64, 52
1, 258038, Control_c, 0, 64, 60
1, 258053, Control_c, 0, 64, 64
1, 258068, Control_c, 0, 64, 66
1, 258082, Control_c, 0, 64, 67
1, 258097, Control_c, 0, 64, 67
1, 258112, Control_c, 0, 64, 68
1, 258126, Control_c, 0, 64, 69
1, 258138, Note_off_c, 0, 64, 55
1, 258141, Control_c, 0, 64, 70
1, 258144, Note_off_c, 0, 68, 62
1, 258146, Note_off_c, 0, 62, 57
1, 258150, Note_off_c, 0, 52, 47
1, 258156, Control_c, 0, 64, 70
1, 258215, Control_c, 0, 64, 70
1, 258230, Control_c, 0, 64, 66
1, 258245, Control_c, 0, 64, 61
1, 258247, Note_on_c, 0, 69, 69
1, 258260, Control_c, 0, 64, 42
1, 258272, Note_on_c, 0, 60, 49
1, 258273, Note_on_c, 0, 64, 45
1, 258275, Note_on_c, 0, 52, 46
1, 258275, Control_c, 0, 64, 0
1, 258290, Control_c, 0, 64, 15
1, 258305, Control_c, 0, 64, 37
1, 258320, Control_c, 0, 64, 52
1, 258334, Control_c, 0, 64, 61
1, 258349, Control_c, 0, 64, 64
1, 258364, Control_c, 0, 64, 65
1, 258379, Control_c, 0, 64, 67
1, 258394, Control_c, 0, 64, 68
1, 258408, Control_c, 0, 64, 70
1, 258423, Control_c, 0, 64, 72
1, 258438, Control_c, 0, 64, 72
1, 258444, Note_off_c, 0, 64, 60
1, 258447, Note_off_c, 0, 52, 60
1, 258455, Note_off_c, 0, 60, 60
1, 258465, Note_off_c, 0, 69, 66
1, 258564, Control_c, 0, 64, 70
1, 258579, Control_c, 0, 64, 64
1, 258586, Note_on_c, 0, 71, 75
1, 258594, Control_c, 0, 64, 52
1, 258597, Note_on_c, 0, 56, 45
1, 258607, Note_on_c, 0, 52, 44
1, 258609, Control_c, 0, 64, 0
1, 258612, Note_on_c, 0, 59, 47
1, 258614, Note_on_c, 0, 64, 41
1, 258683, Control_c, 0, 64, 40
1, 258698, Control_c, 0, 64, 62
1, 258713, Control_c, 0, 64, 68
1, 258728, Control_c, 0, 64, 72
1, 258743, Control_c, 0, 64, 73
1, 258748, Note_off_c, 0, 64, 51
1, 258751, Note_off_c, 0, 52, 57
1, 258760, Note_off_c, 0, 56, 56
1, 258772, Control_c, 0, 64, 74
1, 258782, Note_off_c, 0, 71, 60
1, 258787, Note_off_c, 0, 59, 59
1, 258787, Control_c, 0, 64, 74
1, 258817, Control_c, 0, 64, 75
1, 258979, Control_c, 0, 64, 74
1, 258994, Control_c, 0, 64, 74
1, 259009, Control_c, 0, 64, 72
1, 259024, Control_c, 0, 64, 70
1, 259039, Control_c, 0, 64, 67
1, 259040, Note_on_c, 0, 74, 70
1, 259054, Control_c, 0, 64, 63
1, 259066, Note_on_c, 0, 59, 9
1, 259069, Control_c, 0, 64, 59
1, 259077, Note_on_c, 0, 57, 29
1, 259077, Note_on_c, 0, 64, 37
1, 259083, Control_c, 0, 64, 52
1, 259086, Note_on_c, 0, 62, 26
1, 259098, Control_c, 0, 64, 43
1, 259113, Control_c, 0, 64, 33
1, 259128, Control_c, 0, 64, 23
1, 259143, Control_c, 0, 64, 14
1, 259157, Control_c, 0, 64, 0
1, 259372, Control_c, 0, 64, 17
1, 259387, Control_c, 0, 64, 33
1, 259403, Control_c, 0, 64, 46
1, 259418, Control_c, 0, 64, 56
1, 259433, Control_c, 0, 64, 62
1, 259447, Control_c, 0, 64, 65
1, 259462, Control_c, 0, 64, 68
1, 259477, Control_c, 0, 64, 70
1, 259492, Control_c, 0, 64, 71
1, 259506, Control_c, 0, 64, 73
1, 259521, Control_c, 0, 64, 74
1, 259536, Control_c, 0, 64, 75
1, 259551, Control_c, 0, 64, 75
1, 259788, Control_c, 0, 64, 75
1, 259803, Control_c, 0, 64, 74
1, 259818, Control_c, 0, 64, 73
1, 259833, Control_c, 0, 64, 71
1, 259847, Control_c, 0, 64, 69
1, 259862, Control_c, 0, 64, 66
1, 259876, Note_off_c, 0, 62, 35
1, 259877, Control_c, 0, 64, 63
1, 259887, Note_off_c, 0, 59, 39
1, 259888, Note_on_c, 0, 72, 46
1, 259892, Control_c, 0, 64, 56
1, 259895, Note_on_c, 0, 60, 31
1, 259902, Note_off_c, 0, 74, 60
1, 259906, Control_c, 0, 64, 41
1, 259921, Control_c, 0, 64, 0
1, 260048, Control_c, 0, 64, 31
1, 260062, Control_c, 0, 64, 56
1, 260077, Control_c, 0, 64, 64
1, 260092, Control_c, 0, 64, 68
1, 260106, Control_c, 0, 64, 70
1, 260111, Note_off_c, 0, 72, 62
1, 260121, Control_c, 0, 64, 71
1, 260136, Control_c, 0, 64, 73
1, 260149, Note_off_c, 0, 60, 53
1, 260151, Control_c, 0, 64, 75
1, 260166, Control_c, 0, 64, 77
1, 260178, Note_off_c, 0, 57, 54
1, 260186, Note_off_c, 0, 64, 57
1, 260196, Control_c, 0, 64, 77
1, 260457, Note_on_c, 0, 48, 56
1, 260458, Note_on_c, 0, 60, 60
1, 260528, Note_off_c, 0, 48, 62
1, 260558, Note_off_c, 0, 60, 60
1, 260654, Note_on_c, 0, 59, 52
1, 260669, Note_on_c, 0, 47, 48
1, 260670, Control_c, 0, 64, 77
1, 260684, Note_off_c, 0, 59, 64
1, 260685, Control_c, 0, 64, 76
1, 260698, Note_off_c, 0, 47, 55
1, 260700, Control_c, 0, 64, 75
1, 260701, Note_on_c, 0, 60, 57
1, 260715, Control_c, 0, 64, 74
1, 260729, Note_on_c, 0, 48, 41
1, 260737, Control_c, 0, 64, 73
1, 260752, Control_c, 0, 64, 71
1, 260763, Note_on_c, 0, 59, 79
1, 260767, Control_c, 0, 64, 68
1, 260770, Note_on_c, 0, 47, 63
1, 260773, Note_off_c, 0, 48, 41
1, 260782, Control_c, 0, 64, 64
1, 260797, Control_c, 0, 64, 55
1, 260808, Note_off_c, 0, 60, 54
1, 260811, Control_c, 0, 64, 32
1, 260826, Control_c, 0, 64, 0
1, 261052, Note_on_c, 0, 57, 78
1, 261072, Note_on_c, 0, 45, 66
1, 261106, Note_off_c, 0, 59, 62
1, 261193, Note_off_c, 0, 47, 37
1, 261409, Note_on_c, 0, 64, 78
1, 261423, Note_on_c, 0, 52, 78
1, 261479, Note_off_c, 0, 45, 60
1, 261485, Note_off_c, 0, 57, 53
1, 261722, Control_c, 0, 64, 23
1, 261737, Control_c, 0, 64, 46
1, 261751, Control_c, 0, 64, 53
1, 261766, Control_c, 0, 64, 54
1, 261856, Control_c, 0, 64, 54
1, 261876, Note_on_c, 0, 60, 60
1, 261882, Note_on_c, 0, 48, 44
1, 261886, Control_c, 0, 64, 53
1, 261900, Control_c, 0, 64, 53
1, 261915, Control_c, 0, 64, 52
1, 261923, Note_on_c, 0, 45, 52
1, 261930, Control_c, 0, 64, 51
1, 261935, Note_on_c, 0, 57, 71
1, 261945, Control_c, 0, 64, 49
1, 261947, Note_off_c, 0, 48, 50
1, 261960, Control_c, 0, 64, 47
1, 261974, Control_c, 0, 64, 42
1, 261989, Control_c, 0, 64, 36
1, 262004, Control_c, 0, 64, 26
1, 262013, Note_on_c, 0, 41, 66
1, 262019, Control_c, 0, 64, 0
1, 262020, Note_on_c, 0, 53, 77
1, 262022, Note_off_c, 0, 60, 43
1, 262078, Note_off_c, 0, 45, 58
1, 262108, Note_off_c, 0, 57, 60
1, 262631, Note_on_c, 0, 62, 73
1, 262642, Note_on_c, 0, 50, 64
1, 262722, Note_off_c, 0, 52, 50
1, 262918, Note_on_c, 0, 60, 75
1, 262921, Note_on_c, 0, 48, 75
1, 262988, Note_off_c, 0, 50, 57
1, 263214, Note_on_c, 0, 59, 72
1, 263220, Note_on_c, 0, 47, 67
1, 263233, Note_off_c, 0, 48, 62
1, 263235, Note_off_c, 0, 62, 61
1, 263238, Note_off_c, 0, 60, 61
1, 263265, Note_off_c, 0, 64, 58
1, 263295, Control_c, 0, 64, 48
1, 263310, Control_c, 0, 64, 60
1, 263324, Control_c, 0, 64, 63
1, 263339, Control_c, 0, 64, 63
1, 263354, Control_c, 0, 64, 64
1, 263369, Control_c, 0, 64, 65
1, 263384, Control_c, 0, 64, 66
1, 263397, Note_off_c, 0, 47, 62
1, 263399, Control_c, 0, 64, 68
1, 263414, Control_c, 0, 64, 70
1, 263429, Control_c, 0, 64, 72
1, 263444, Control_c, 0, 64, 73
1, 263459, Control_c, 0, 64, 74
1, 263473, Control_c, 0, 64, 73
1, 263488, Control_c, 0, 64, 70
1, 263503, Control_c, 0, 64, 64
1, 263508, Note_on_c, 0, 57, 68
1, 263512, Note_on_c, 0, 60, 75
1, 263518, Control_c, 0, 64, 46
1, 263519, Note_on_c, 0, 45, 60
1, 263530, Note_off_c, 0, 59, 58
1, 263531, Control_c, 0, 64, 0
1, 263569, Note_on_c, 0, 50, 34
1, 263570, Note_on_c, 0, 48, 31
1, 263575, Control_c, 0, 64, 46
1, 263590, Control_c, 0, 64, 62
1, 263605, Control_c, 0, 64, 66
1, 263616, Note_off_c, 0, 48, 45
1, 263620, Control_c, 0, 64, 69
1, 263620, Note_off_c, 0, 50, 58
1, 263623, Note_off_c, 0, 41, 59
1, 263634, Control_c, 0, 64, 69
1, 263637, Note_off_c, 0, 45, 63
1, 263638, Note_off_c, 0, 57, 61
1, 263646, Note_off_c, 0, 53, 32
1, 263664, Control_c, 0, 64, 70
1, 263694, Control_c, 0, 64, 70
1, 263728, Note_off_c, 0, 60, 57
1, 263731, Control_c, 0, 64, 71
1, 263745, Control_c, 0, 64, 71
1, 263790, Control_c, 0, 64, 71
1, 263805, Control_c, 0, 64, 67
1, 263817, Note_on_c, 0, 62, 72
1, 263819, Control_c, 0, 64, 58
1, 263834, Control_c, 0, 64, 0
1, 263842, Note_on_c, 0, 56, 57
1, 263842, Note_on_c, 0, 59, 56
1, 263844, Note_on_c, 0, 53, 59
1, 263845, Note_on_c, 0, 44, 39
1, 263845, Note_on_c, 0, 50, 58
1, 263846, Note_on_c, 0, 47, 41
1, 263867, Note_on_c, 0, 41, 48
1, 263909, Control_c, 0, 64, 47
1, 263920, Note_off_c, 0, 59, 53
1, 263923, Note_off_c, 0, 62, 55
1, 263924, Control_c, 0, 64, 61
1, 263939, Control_c, 0, 64, 65
1, 263953, Control_c, 0, 64, 67
1, 263980, Note_off_c, 0, 50, 59
1, 263992, Note_off_c, 0, 56, 61
1, 263993, Note_off_c, 0, 47, 44
1, 263998, Control_c, 0, 64, 67
1, 264013, Control_c, 0, 64, 68
1, 264025, Note_off_c, 0, 41, 64
1, 264027, Control_c, 0, 64, 69
1, 264043, Note_off_c, 0, 44, 36
1, 264086, Control_c, 0, 64, 69
1, 264093, Note_off_c, 0, 53, 54
1, 264131, Control_c, 0, 64, 69
1, 264145, Control_c, 0, 64, 66
1, 264160, Control_c, 0, 64, 58
1, 264163, Note_on_c, 0, 63, 63
1, 264175, Control_c, 0, 64, 0
1, 264177, Note_on_c, 0, 57, 54
1, 264188, Note_on_c, 0, 48, 46
1, 264191, Note_on_c, 0, 60, 50
1, 264198, Note_on_c, 0, 51, 48
1, 264205, Note_on_c, 0, 45, 31
1, 264209, Note_on_c, 0, 41, 32
1, 264250, Control_c, 0, 64, 51
1, 264265, Control_c, 0, 64, 64
1, 264273, Note_off_c, 0, 41, 56
1, 264280, Control_c, 0, 64, 68
1, 264286, Note_off_c, 0, 57, 57
1, 264294, Control_c, 0, 64, 70
1, 264320, Note_off_c, 0, 51, 54
1, 264331, Note_off_c, 0, 60, 36
1, 264339, Control_c, 0, 64, 70
1, 264341, Note_off_c, 0, 63, 57
1, 264343, Note_off_c, 0, 45, 32
1, 264354, Control_c, 0, 64, 71
1, 264368, Control_c, 0, 64, 71
1, 264369, Note_off_c, 0, 48, 29
1, 264383, Control_c, 0, 64, 72
1, 264539, Control_c, 0, 64, 71
1, 264554, Control_c, 0, 64, 70
1, 264568, Control_c, 0, 64, 69
1, 264583, Control_c, 0, 64, 66
1, 264593, Note_on_c, 0, 64, 55
1, 264598, Note_on_c, 0, 60, 49
1, 264598, Control_c, 0, 64, 62
1, 264601, Note_on_c, 0, 57, 43
1, 264609, Note_on_c, 0, 48, 37
1, 264613, Control_c, 0, 64, 53
1, 264616, Note_on_c, 0, 40, 33
1, 264617, Note_on_c, 0, 52, 35
1, 264619, Note_on_c, 0, 45, 34
1, 264628, Control_c, 0, 64, 31
1, 264642, Control_c, 0, 64, 0
1, 265132, Control_c, 0, 64, 20
1, 265147, Control_c, 0, 64, 43
1, 265162, Control_c, 0, 64, 53
1, 265177, Control_c, 0, 64, 58
1, 265191, Control_c, 0, 64, 61
1, 265214, Control_c, 0, 64, 64
1, 265229, Control_c, 0, 64, 65
1, 265243, Control_c, 0, 64, 68
1, 265258, Control_c, 0, 64, 71
1, 265273, Control_c, 0, 64, 76
1, 265288, Control_c, 0, 64, 83
1, 265288, Control_c, 0, 67, 12
1, 265303, Control_c, 0, 64, 89
1, 265303, Control_c, 0, 67, 27
1, 265317, Control_c, 0, 64, 93
1, 265317, Control_c, 0, 67, 42
1, 265332, Control_c, 0, 64, 97
1, 265332, Control_c, 0, 67, 58
1, 265347, Control_c, 0, 64, 102
1, 265347, Control_c, 0, 67, 73
1, 265351, Note_off_c, 0, 40, 40
1, 265362, Control_c, 0, 64, 109
1, 265362, Control_c, 0, 67, 89
1, 265377, Control_c, 0, 64, 119
1, 265377, Control_c, 0, 67, 110
1, 265391, Control_c, 0, 64, 127
1, 265391, Control_c, 0, 67, 127
1, 265406, Note_off_c, 0, 57, 46
1, 265416, Note_off_c, 0, 45, 41
1, 265420, Note_off_c, 0, 64, 52
1, 265438, Note_off_c, 0, 48, 35
1, 265528, Note_off_c, 0, 52, 41
1, 265849, Note_off_c, 0, 60, 38
1, 266022, Control_c, 0, 64, 125
1, 266037, Control_c, 0, 64, 110
1, 266052, Control_c, 0, 64, 99
1, 266067, Control_c, 0, 64, 91
1, 266082, Control_c, 0, 64, 83
1, 266090, Note_on_c, 0, 56, 37
1, 266091, Note_on_c, 0, 64, 44
1, 266094, Note_on_c, 0, 59, 36
1, 266096, Note_on_c, 0, 40, 32
1, 266097, Control_c, 0, 64, 75
1, 266109, Note_on_c, 0, 44, 28
1, 266112, Control_c, 0, 64, 68
1, 266114, Note_on_c, 0, 47, 21
1, 266127, Control_c, 0, 64, 62
1, 266140, Note_on_c, 0, 52, 21
1, 266141, Control_c, 0, 64, 43
1, 266156, Control_c, 0, 64, 0
1, 266690, Control_c, 0, 64, 15
1, 266705, Control_c, 0, 64, 27
1, 266727, Control_c, 0, 64, 33
1, 266742, Control_c, 0, 64, 39
1, 266757, Control_c, 0, 64, 45
1, 266771, Control_c, 0, 64, 50
1, 266786, Control_c, 0, 64, 54
1, 266801, Control_c, 0, 64, 58
1, 266816, Control_c, 0, 64, 62
1, 266831, Control_c, 0, 64, 64
1, 266845, Control_c, 0, 64, 65
1, 266860, Control_c, 0, 64, 67
1, 266875, Control_c, 0, 64, 69
1, 266890, Control_c, 0, 64, 72
1, 266905, Control_c, 0, 64, 76
1, 266907, Note_off_c, 0, 64, 59
1, 266919, Control_c, 0, 64, 79
1, 266934, Control_c, 0, 64, 81
1, 266937, Note_off_c, 0, 59, 40
1, 266949, Control_c, 0, 64, 83
1, 266954, Note_off_c, 0, 56, 40
1, 266964, Control_c, 0, 64, 84
1, 266979, Control_c, 0, 64, 86
1, 266991, Note_off_c, 0, 52, 43
1, 266994, Control_c, 0, 64, 87
1, 267008, Control_c, 0, 64, 87
1, 267023, Control_c, 0, 64, 88
1, 267038, Control_c, 0, 64, 88
1, 267039, Note_off_c, 0, 40, 36
1, 267068, Control_c, 0, 64, 89
1, 267082, Control_c, 0, 64, 91
1, 267097, Control_c, 0, 64, 94
1, 267112, Control_c, 0, 64, 97
1, 267127, Control_c, 0, 64, 102
1, 267142, Control_c, 0, 64, 111
1, 267157, Control_c, 0, 64, 127
1, 267161, Note_off_c, 0, 44, 37
1, 267499, Note_off_c, 0, 47, 12
1, 267716, Note_on_c, 0, 41, 48
1, 267721, Note_on_c, 0, 65, 61
1, 267735, Note_on_c, 0, 48, 45
1, 267742, Control_c, 0, 64, 116
1, 267745, Note_on_c, 0, 57, 47
1, 267757, Control_c, 0, 64, 97
1, 267772, Control_c, 0, 64, 78
1, 267786, Control_c, 0, 64, 65
1, 267801, Control_c, 0, 64, 40
1, 267816, Control_c, 0, 64, 0
1, 267842, Note_off_c, 0, 65, 36
1, 267857, Note_on_c, 0, 60, 56
1, 267888, Note_off_c, 0, 60, 64
1, 267968, Note_on_c, 0, 60, 52
1, 267990, Note_off_c, 0, 60, 58
1, 268065, Note_on_c, 0, 60, 57
1, 268097, Note_off_c, 0, 60, 65
1, 268177, Note_on_c, 0, 60, 61
1, 268216, Note_off_c, 0, 41, 63
1, 268231, Note_off_c, 0, 57, 57
1, 268235, Note_off_c, 0, 60, 62
1, 268252, Note_off_c, 0, 48, 37
1, 268428, Note_on_c, 0, 67, 50
1, 268431, Note_on_c, 0, 58, 52
1, 268434, Note_on_c, 0, 36, 46
1, 268439, Note_on_c, 0, 60, 34
1, 268445, Note_on_c, 0, 48, 43
1, 268460, Note_off_c, 0, 58, 64
1, 268464, Note_off_c, 0, 36, 54
1, 268470, Note_off_c, 0, 60, 53
1, 268475, Note_off_c, 0, 48, 54
1, 268488, Note_off_c, 0, 67, 58
1, 268666, Note_on_c, 0, 41, 55
1, 268673, Note_on_c, 0, 57, 51
1, 268673, Note_on_c, 0, 65, 53
1, 268684, Note_on_c, 0, 60, 39
1, 268690, Note_on_c, 0, 48, 17
1, 268696, Note_off_c, 0, 41, 65
1, 268708, Note_off_c, 0, 57, 63
1, 268712, Note_off_c, 0, 60, 53
1, 268721, Note_off_c, 0, 65, 55
1, 268734, Note_off_c, 0, 48, 37
1, 268904, Note_on_c, 0, 67, 50
1, 268906, Note_on_c, 0, 36, 47
1, 268909, Note_on_c, 0, 58, 51
1, 268916, Note_on_c, 0, 48, 47
1, 268927, Note_on_c, 0, 60, 29
1, 268929, Note_on_c, 0, 64, 30
1, 268941, Note_off_c, 0, 67, 61
1, 268943, Note_off_c, 0, 36, 55
1, 268944, Note_off_c, 0, 58, 60
1, 268946, Note_off_c, 0, 48, 55
1, 268970, Note_off_c, 0, 60, 45
1, 268974, Note_off_c, 0, 64, 50
1, 269158, Note_on_c, 0, 69, 51
1, 269163, Note_on_c, 0, 57, 51
1, 269164, Note_on_c, 0, 41, 46
1, 269165, Note_on_c, 0, 60, 44
1, 269170, Note_on_c, 0, 48, 31
1, 269182, Note_on_c, 0, 65, 37
1, 269207, Note_off_c, 0, 48, 50
1, 269207, Note_off_c, 0, 41, 62
1, 269212, Note_off_c, 0, 57, 58
1, 269214, Note_off_c, 0, 69, 60
1, 269215, Note_off_c, 0, 60, 58
1, 269237, Note_off_c, 0, 65, 42
1, 269406, Note_on_c, 0, 36, 40
1, 269406, Note_on_c, 0, 58, 43
1, 269407, Note_on_c, 0, 48, 46
1, 269409, Note_on_c, 0, 67, 40
1, 269426, Note_on_c, 0, 64, 10
1, 269431, Note_on_c, 0, 60, 20
1, 269448, Note_off_c, 0, 48, 49
1, 269450, Note_off_c, 0, 36, 48
1, 269453, Note_off_c, 0, 58, 64
1, 269462, Note_off_c, 0, 67, 57
1, 269469, Note_off_c, 0, 60, 50
1, 269473, Note_off_c, 0, 64, 43
1, 269661, Note_on_c, 0, 65, 61
1, 269665, Note_on_c, 0, 41, 47
1, 269667, Note_on_c, 0, 48, 47
1, 269673, Note_on_c, 0, 57, 56
1, 269784, Note_on_c, 0, 60, 60
1, 269811, Note_off_c, 0, 65, 37
1, 269832, Note_off_c, 0, 60, 59
1, 269897, Note_on_c, 0, 60, 53
1, 269925, Note_off_c, 0, 60, 62
1, 270010, Note_on_c, 0, 60, 59
1, 270048, Note_off_c, 0, 60, 58
1, 270063, Control_c, 0, 67, 122
1, 270078, Control_c, 0, 64, 25
1, 270078, Control_c, 0, 67, 98
1, 270093, Control_c, 0, 64, 37
1, 270093, Control_c, 0, 67, 69
1, 270103, Note_off_c, 0, 41, 60
1, 270107, Control_c, 0, 64, 44
1, 270107, Control_c, 0, 67, 40
1, 270122, Control_c, 0, 64, 48
1, 270122, Control_c, 0, 67, 13
1, 270126, Note_on_c, 0, 60, 15
1, 270133, Note_off_c, 0, 57, 60
1, 270137, Control_c, 0, 64, 49
1, 270137, Control_c, 0, 67, 0
1, 270152, Control_c, 0, 64, 50
1, 270160, Note_off_c, 0, 48, 60
1, 270161, Note_off_c, 0, 60, 56
1, 270167, Control_c, 0, 64, 52
1, 270181, Control_c, 0, 64, 54
1, 270196, Control_c, 0, 64, 56
1, 270211, Control_c, 0, 64, 57
1, 270226, Control_c, 0, 64, 58
1, 270255, Control_c, 0, 64, 58
1, 270315, Control_c, 0, 64, 59
1, 270330, Control_c, 0, 64, 59
1, 270344, Control_c, 0, 64, 61
1, 270346, Note_on_c, 0, 65, 61
1, 270359, Control_c, 0, 64, 62
1, 270360, Note_on_c, 0, 53, 37
1, 270374, Control_c, 0, 64, 64
1, 270389, Control_c, 0, 64, 65
1, 270390, Note_off_c, 0, 53, 53
1, 270401, Note_off_c, 0, 65, 62
1, 270404, Control_c, 0, 64, 67
1, 270419, Control_c, 0, 64, 70
1, 270433, Control_c, 0, 64, 74
1, 270448, Control_c, 0, 64, 77
1, 270470, Control_c, 0, 64, 78
1, 270485, Control_c, 0, 64, 78
1, 270500, Note_on_c, 0, 64, 50
1, 270500, Control_c, 0, 64, 79
1, 270503, Note_on_c, 0, 52, 23
1, 270522, Note_on_c, 0, 53, 53
1, 270524, Note_off_c, 0, 64, 59
1, 270527, Note_on_c, 0, 65, 63
1, 270539, Note_off_c, 0, 52, 0
1, 270571, Note_off_c, 0, 53, 59
1, 270574, Note_on_c, 0, 64, 71
1, 270576, Note_on_c, 0, 52, 34
1, 270590, Control_c, 0, 64, 78
1, 270604, Control_c, 0, 64, 75
1, 270619, Control_c, 0, 64, 72
1, 270633, Note_off_c, 0, 65, 56
1, 270634, Control_c, 0, 64, 67
1, 270649, Control_c, 0, 64, 63
1, 270663, Control_c, 0, 64, 58
1, 270678, Control_c, 0, 64, 51
1, 270693, Control_c, 0, 64, 41
1, 270708, Control_c, 0, 64, 28
1, 270723, Control_c, 0, 64, 17
1, 270738, Control_c, 0, 64, 14
1, 270753, Control_c, 0, 64, 10
1, 270768, Control_c, 0, 64, 0
1, 270830, Note_on_c, 0, 62, 78
1, 270845, Note_on_c, 0, 50, 62
1, 270898, Note_off_c, 0, 64, 65
1, 270901, Note_off_c, 0, 52, 57
1, 271072, Note_on_c, 0, 64, 85
1, 271086, Note_on_c, 0, 52, 77
1, 271126, Note_off_c, 0, 62, 60
1, 271137, Control_c, 0, 64, 29
1, 271145, Note_off_c, 0, 50, 56
1, 271152, Control_c, 0, 64, 54
1, 271167, Control_c, 0, 64, 61
1, 271182, Control_c, 0, 64, 64
1, 271197, Control_c, 0, 64, 66
1, 271219, Control_c, 0, 64, 69
1, 271234, Control_c, 0, 64, 74
1, 271249, Control_c, 0, 64, 82
1, 271263, Control_c, 0, 64, 90
1, 271278, Control_c, 0, 64, 95
1, 271293, Control_c, 0, 64, 98
1, 271307, Note_on_c, 0, 53, 69
1, 271308, Control_c, 0, 64, 103
1, 271312, Note_on_c, 0, 65, 83
1, 271323, Control_c, 0, 64, 110
1, 271333, Note_off_c, 0, 52, 66
1, 271337, Control_c, 0, 64, 125
1, 271352, Note_off_c, 0, 53, 62
1, 271352, Note_off_c, 0, 64, 63
1, 271352, Control_c, 0, 64, 127
1, 271374, Note_off_c, 0, 65, 63
1, 271453, Note_on_c, 0, 60, 58
1, 271470, Note_on_c, 0, 48, 39
1, 271486, Note_off_c, 0, 60, 65
1, 271492, Note_on_c, 0, 62, 75
1, 271504, Note_off_c, 0, 48, 48
1, 271514, Note_on_c, 0, 50, 56
1, 271531, Control_c, 0, 64, 121
1, 271546, Control_c, 0, 64, 95
1, 271555, Note_on_c, 0, 60, 94
1, 271561, Control_c, 0, 64, 80
1, 271567, Note_off_c, 0, 50, 62
1, 271570, Note_on_c, 0, 48, 79
1, 271576, Control_c, 0, 64, 68
1, 271591, Control_c, 0, 64, 53
1, 271598, Note_off_c, 0, 62, 57
1, 271605, Control_c, 0, 64, 0
1, 271784, Note_on_c, 0, 47, 71
1, 271789, Note_off_c, 0, 48, 61
1, 271800, Note_on_c, 0, 59, 83
1, 271808, Note_off_c, 0, 60, 60
1, 271906, Note_on_c, 0, 48, 72
1, 271909, Note_on_c, 0, 60, 82
1, 271927, Note_off_c, 0, 47, 55
1, 271938, Note_off_c, 0, 59, 62
1, 272011, Note_off_c, 0, 48, 59
1, 272015, Note_on_c, 0, 62, 85
1, 272016, Note_on_c, 0, 50, 64
1, 272036, Note_off_c, 0, 60, 61
1, 272047, Note_off_c, 0, 50, 64
1, 272090, Note_off_c, 0, 62, 54
1, 272249, Control_c, 0, 64, 42
1, 272260, Note_on_c, 0, 64, 79
1, 272261, Note_on_c, 0, 40, 60
1, 272262, Note_on_c, 0, 52, 60
1, 272264, Note_on_c, 0, 47, 56
1, 272264, Control_c, 0, 64, 62
1, 272269, Note_on_c, 0, 59, 64
1, 272275, Note_on_c, 0, 56, 45
1, 272276, Note_off_c, 0, 56, 127
1, 272279, Control_c, 0, 64, 63
1, 272294, Control_c, 0, 64, 64
1, 272300, Note_off_c, 0, 59, 63
1, 272305, Note_on_c, 0, 57, 28
1, 272309, Control_c, 0, 64, 65
1, 272320, Note_off_c, 0, 52, 62
1, 272324, Control_c, 0, 64, 68
1, 272328, Note_off_c, 0, 64, 63
1, 272330, Note_off_c, 0, 40, 62
1, 272338, Note_off_c, 0, 47, 61
1, 272339, Control_c, 0, 64, 71
1, 272342, Note_off_c, 0, 57, 31
1, 272354, Control_c, 0, 64, 73
1, 272369, Control_c, 0, 64, 74
1, 272383, Control_c, 0, 64, 74
1, 272398, Control_c, 0, 64, 75
1, 272413, Control_c, 0, 64, 75
1, 272442, Control_c, 0, 64, 76
1, 272487, Control_c, 0, 64, 75
1, 272501, Control_c, 0, 64, 74
1, 272516, Control_c, 0, 64, 71
1, 272531, Control_c, 0, 64, 65
1, 272533, Note_on_c, 0, 48, 68
1, 272535, Note_on_c, 0, 65, 81
1, 272536, Note_on_c, 0, 41, 67
1, 272546, Control_c, 0, 64, 54
1, 272547, Note_on_c, 0, 57, 68
1, 272561, Control_c, 0, 64, 0
1, 272638, Note_off_c, 0, 65, 52
1, 272662, Note_on_c, 0, 60, 72
1, 272708, Note_off_c, 0, 60, 59
1, 272777, Note_on_c, 0, 60, 65
1, 272807, Note_off_c, 0, 60, 63
1, 272864, Control_c, 0, 67, 12
1, 272879, Control_c, 0, 67, 16
1, 272893, Note_on_c, 0, 60, 74
1, 272894, Control_c, 0, 67, 19
1, 272908, Control_c, 0, 67, 21
1, 272923, Control_c, 0, 67, 21
1, 272944, Note_off_c, 0, 60, 60
1, 272953, Control_c, 0, 67, 20
1, 272968, Control_c, 0, 67, 19
1, 272984, Control_c, 0, 67, 18
1, 272995, Note_on_c, 0, 60, 68
1, 272999, Control_c, 0, 67, 18
1, 273013, Control_c, 0, 67, 17
1, 273027, Note_off_c, 0, 57, 62
1, 273028, Note_off_c, 0, 60, 63
1, 273031, Note_off_c, 0, 41, 64
1, 273048, Note_off_c, 0, 48, 61
1, 273057, Control_c, 0, 67, 18
1, 273072, Control_c, 0, 67, 19
1, 273087, Control_c, 0, 67, 21
1, 273102, Control_c, 0, 67, 23
1, 273117, Control_c, 0, 67, 26
1, 273132, Control_c, 0, 67, 32
1, 273147, Control_c, 0, 67, 39
1, 273161, Control_c, 0, 67, 47
1, 273176, Control_c, 0, 67, 52
1, 273191, Control_c, 0, 67, 55
1, 273206, Control_c, 0, 67, 55
1, 273224, Note_on_c, 0, 67, 64
1, 273231, Note_on_c, 0, 58, 62
1, 273236, Note_on_c, 0, 60, 51
1, 273239, Note_on_c, 0, 36, 57
1, 273245, Note_on_c, 0, 48, 49
1, 273251, Control_c, 0, 67, 56
1, 273258, Note_off_c, 0, 60, 60
1, 273260, Note_off_c, 0, 58, 65
1, 273266, Note_off_c, 0, 36, 58
1, 273272, Note_off_c, 0, 48, 58
1, 273276, Note_off_c, 0, 67, 57
1, 273281, Control_c, 0, 67, 57
1, 273296, Control_c, 0, 67, 58
1, 273310, Control_c, 0, 67, 60
1, 273325, Control_c, 0, 67, 63
1, 273340, Control_c, 0, 67, 66
1, 273355, Control_c, 0, 67, 70
1, 273370, Control_c, 0, 67, 72
1, 273384, Control_c, 0, 67, 74
1, 273399, Control_c, 0, 67, 75
1, 273414, Control_c, 0, 67, 75
1, 273466, Control_c, 0, 67, 74
1, 273480, Control_c, 0, 67, 73
1, 273495, Control_c, 0, 67, 72
1, 273501, Note_on_c, 0, 48, 55
1, 273501, Note_on_c, 0, 65, 64
1, 273504, Note_on_c, 0, 41, 48
1, 273508, Note_on_c, 0, 60, 53
1, 273510, Control_c, 0, 67, 72
1, 273511, Note_on_c, 0, 57, 46
1, 273531, Note_off_c, 0, 60, 57
1, 273531, Note_off_c, 0, 41, 51
1, 273531, Note_off_c, 0, 48, 63
1, 273535, Note_off_c, 0, 57, 56
1, 273540, Control_c, 0, 67, 72
1, 273542, Note_off_c, 0, 65, 55
1, 273555, Control_c, 0, 67, 73
1, 273584, Control_c, 0, 67, 74
1, 273599, Control_c, 0, 67, 74
1, 273629, Control_c, 0, 67, 75
1, 273718, Control_c, 0, 67, 74
1, 273738, Note_on_c, 0, 67, 49
1, 273740, Note_on_c, 0, 58, 58
1, 273748, Note_on_c, 0, 64, 48
1, 273749, Note_on_c, 0, 36, 54
1, 273749, Note_on_c, 0, 60, 42
1, 273752, Note_on_c, 0, 48, 51
1, 273768, Note_off_c, 0, 58, 65
1, 273777, Note_off_c, 0, 36, 58
1, 273778, Note_off_c, 0, 60, 51
1, 273778, Note_off_c, 0, 48, 57
1, 273779, Note_off_c, 0, 64, 59
1, 273779, Note_off_c, 0, 67, 60
1, 273793, Control_c, 0, 67, 75
1, 273822, Control_c, 0, 67, 75
1, 273837, Control_c, 0, 67, 76
1, 273896, Control_c, 0, 67, 75
1, 273911, Control_c, 0, 67, 75
1, 273926, Control_c, 0, 67, 74
1, 273941, Control_c, 0, 67, 73
1, 273956, Control_c, 0, 67, 72
1, 273970, Control_c, 0, 67, 72
1, 273981, Note_on_c, 0, 41, 54
1, 273982, Note_on_c, 0, 69, 61
1, 273985, Control_c, 0, 67, 71
1, 273991, Note_on_c, 0, 57, 56
1, 273994, Note_on_c, 0, 60, 39
1, 273995, Note_on_c, 0, 48, 39
1, 273996, Note_on_c, 0, 65, 51
1, 273999, Control_c, 0, 67, 71
1, 274008, Note_off_c, 0, 41, 59
1, 274024, Note_off_c, 0, 69, 58
1, 274026, Note_off_c, 0, 48, 48
1, 274033, Note_off_c, 0, 57, 60
1, 274036, Note_off_c, 0, 65, 56
1, 274041, Note_off_c, 0, 60, 47
1, 274103, Control_c, 0, 67, 71
1, 274229, Control_c, 0, 67, 71
1, 274232, Note_on_c, 0, 67, 58
1, 274235, Note_on_c, 0, 58, 59
1, 274244, Note_on_c, 0, 36, 45
1, 274244, Note_on_c, 0, 48, 48
1, 274245, Note_on_c, 0, 60, 43
1, 274258, Note_on_c, 0, 64, 28
1, 274259, Control_c, 0, 67, 70
1, 274268, Note_off_c, 0, 58, 63
1, 274273, Note_off_c, 0, 67, 57
1, 274274, Note_off_c, 0, 60, 57
1, 274278, Note_off_c, 0, 48, 56
1, 274281, Note_off_c, 0, 36, 51
1, 274292, Note_off_c, 0, 64, 48
1, 274303, Control_c, 0, 67, 71
1, 274318, Control_c, 0, 67, 72
1, 274333, Control_c, 0, 67, 73
1, 274348, Control_c, 0, 67, 74
1, 274363, Control_c, 0, 67, 75
1, 274378, Control_c, 0, 67, 76
1, 274407, Control_c, 0, 67, 77
1, 274496, Control_c, 0, 67, 76
1, 274500, Note_on_c, 0, 41, 60
1, 274503, Note_on_c, 0, 48, 62
1, 274503, Note_on_c, 0, 65, 69
1, 274511, Control_c, 0, 67, 76
1, 274514, Note_on_c, 0, 57, 59
1, 274525, Control_c, 0, 67, 75
1, 274540, Control_c, 0, 67, 75
1, 274570, Control_c, 0, 67, 74
1, 274613, Note_off_c, 0, 65, 53
1, 274616, Note_on_c, 0, 60, 70
1, 274645, Control_c, 0, 67, 75
1, 274648, Note_off_c, 0, 60, 61
1, 274660, Control_c, 0, 67, 75
1, 274675, Control_c, 0, 67, 77
1, 274690, Control_c, 0, 67, 78
1, 274704, Control_c, 0, 67, 82
1, 274719, Control_c, 0, 67, 89
1, 274726, Note_on_c, 0, 60, 64
1, 274734, Control_c, 0, 67, 94
1, 274747, Note_off_c, 0, 60, 64
1, 274749, Control_c, 0, 67, 98
1, 274764, Control_c, 0, 67, 100
1, 274778, Control_c, 0, 67, 101
1, 274808, Control_c, 0, 67, 102
1, 274826, Note_on_c, 0, 60, 60
1, 274867, Note_off_c, 0, 60, 61
1, 274926, Note_off_c, 0, 41, 63
1, 274926, Control_c, 0, 67, 100
1, 274935, Note_on_c, 0, 60, 60
1, 274941, Control_c, 0, 67, 100
1, 274963, Control_c, 0, 67, 99
1, 274969, Note_off_c, 0, 48, 59
1, 274972, Note_off_c, 0, 57, 57
1, 274978, Control_c, 0, 67, 99
1, 274989, Note_off_c, 0, 60, 62
1, 274993, Control_c, 0, 67, 98
1, 275008, Control_c, 0, 67, 98
1, 275023, Control_c, 0, 67, 97
1, 275037, Control_c, 0, 67, 96
1, 275052, Control_c, 0, 67, 94
1, 275067, Control_c, 0, 67, 93
1, 275082, Control_c, 0, 64, 21
1, 275082, Control_c, 0, 67, 93
1, 275097, Control_c, 0, 64, 51
1, 275111, Control_c, 0, 64, 59
1, 275126, Control_c, 0, 64, 63
1, 275141, Control_c, 0, 64, 64
1, 275156, Control_c, 0, 64, 66
1, 275161, Note_on_c, 0, 65, 66
1, 275171, Control_c, 0, 64, 68
1, 275172, Note_on_c, 0, 53, 53
1, 275185, Control_c, 0, 64, 70
1, 275185, Control_c, 0, 67, 93
1, 275196, Note_off_c, 0, 53, 61
1, 275200, Control_c, 0, 64, 73
1, 275200, Control_c, 0, 67, 94
1, 275215, Control_c, 0, 64, 74
1, 275215, Control_c, 0, 67, 94
1, 275224, Note_off_c, 0, 65, 62
1, 275230, Control_c, 0, 64, 75
1, 275230, Control_c, 0, 67, 95
1, 275245, Control_c, 0, 64, 75
1, 275245, Control_c, 0, 67, 95
1, 275260, Control_c, 0, 67, 96
1, 275275, Control_c, 0, 67, 97
1, 275290, Control_c, 0, 67, 97
1, 275304, Control_c, 0, 67, 98
1, 275311, Note_on_c, 0, 64, 54
1, 275319, Control_c, 0, 67, 99
1, 275320, Note_on_c, 0, 52, 34
1, 275334, Control_c, 0, 64, 75
1, 275334, Control_c, 0, 67, 99
1, 275348, Note_off_c, 0, 64, 64
1, 275348, Control_c, 0, 64, 72
1, 275352, Note_on_c, 0, 65, 58
1, 275352, Note_on_c, 0, 53, 55
1, 275356, Note_off_c, 0, 52, 45
1, 275363, Control_c, 0, 64, 69
1, 275363, Control_c, 0, 67, 100
1, 275379, Control_c, 0, 64, 65
1, 275394, Control_c, 0, 64, 60
1, 275400, Note_off_c, 0, 53, 60
1, 275403, Note_on_c, 0, 64, 57
1, 275409, Control_c, 0, 64, 46
1, 275418, Note_on_c, 0, 52, 44
1, 275424, Control_c, 0, 64, 0
1, 275440, Note_off_c, 0, 65, 53
1, 275497, Control_c, 0, 67, 100
1, 275512, Control_c, 0, 67, 101
1, 275526, Control_c, 0, 67, 102
1, 275541, Control_c, 0, 67, 103
1, 275556, Control_c, 0, 67, 104
1, 275570, Control_c, 0, 67, 107
1, 275585, Control_c, 0, 67, 111
1, 275600, Control_c, 0, 67, 114
1, 275615, Control_c, 0, 67, 116
1, 275630, Control_c, 0, 67, 117
1, 275645, Control_c, 0, 67, 118
1, 275659, Control_c, 0, 67, 119
1, 275679, Note_on_c, 0, 50, 42
1, 275679, Note_on_c, 0, 62, 57
1, 275689, Note_off_c, 0, 52, 47
1, 275689, Control_c, 0, 67, 119
1, 275690, Note_off_c, 0, 64, 61
1, 275726, Control_c, 0, 67, 120
1, 275904, Control_c, 0, 67, 120
1, 275918, Note_off_c, 0, 50, 51
1, 275919, Control_c, 0, 67, 121
1, 275930, Note_off_c, 0, 62, 59
1, 275933, Note_on_c, 0, 64, 56
1, 275934, Control_c, 0, 67, 122
1, 275949, Control_c, 0, 67, 127
1, 275961, Note_on_c, 0, 52, 33
1, 275964, Control_c, 0, 67, 127
1, 276067, Control_c, 0, 64, 32
1, 276082, Control_c, 0, 64, 56
1, 276097, Control_c, 0, 64, 63
1, 276112, Control_c, 0, 64, 65
1, 276124, Note_off_c, 0, 52, 52
1, 276126, Control_c, 0, 64, 67
1, 276141, Control_c, 0, 64, 68
1, 276156, Control_c, 0, 64, 71
1, 276160, Note_on_c, 0, 53, 42
1, 276161, Note_on_c, 0, 65, 53
1, 276172, Control_c, 0, 64, 73
1, 276181, Note_off_c, 0, 64, 51
1, 276187, Control_c, 0, 64, 75
1, 276188, Note_off_c, 0, 53, 58
1, 276201, Control_c, 0, 64, 76
1, 276205, Note_off_c, 0, 65, 58
1, 276216, Control_c, 0, 64, 77
1, 276298, Note_on_c, 0, 60, 52
1, 276329, Note_off_c, 0, 60, 65
1, 276336, Control_c, 0, 64, 75
1, 276342, Note_on_c, 0, 62, 61
1, 276349, Note_on_c, 0, 50, 50
1, 276350, Control_c, 0, 64, 73
1, 276360, Poly_aftertouch_c, 0, 48, 0
1, 276365, Control_c, 0, 64, 68
1, 276380, Control_c, 0, 64, 63
1, 276389, Note_off_c, 0, 50, 57
1, 276394, Note_on_c, 0, 48, 26
1, 276394, Control_c, 0, 64, 54
1, 276408, Note_on_c, 0, 60, 63
1, 276409, Control_c, 0, 64, 26
1, 276417, Note_off_c, 0, 62, 55
1, 276424, Control_c, 0, 64, 0
1, 276616, Note_off_c, 0, 48, 50
1, 276641, Note_off_c, 0, 60, 58
1, 276655, Note_on_c, 0, 47, 42
1, 276674, Note_on_c, 0, 59, 50
1, 276738, Note_off_c, 0, 47, 61
1, 276765, Note_on_c, 0, 48, 30
1, 276774, Note_on_c, 0, 60, 48
1, 276779, Note_off_c, 0, 59, 57
1, 276882, Note_off_c, 0, 48, 36
1, 276906, Note_on_c, 0, 50, 37
1, 276909, Note_on_c, 0, 62, 51
1, 276911, Note_off_c, 0, 60, 55
1, 276935, Note_off_c, 0, 50, 56
1, 276965, Note_off_c, 0, 62, 54
1, 277219, Note_on_c, 0, 56, 37
1, 277221, Note_on_c, 0, 59, 33
1, 277231, Note_on_c, 0, 64, 28
1, 277232, Note_on_c, 0, 40, 30
1, 277237, Note_on_c, 0, 47, 24
1, 277368, Note_off_c, 0, 56, 57
1, 277387, Note_off_c, 0, 59, 53
1, 277396, Note_off_c, 0, 47, 49
1, 277411, Note_off_c, 0, 64, 44
1, 277433, Note_off_c, 0, 40, 44
1, 277987, Control_c, 0, 64, 39
1, 278002, Control_c, 0, 64, 52
1, 278017, Control_c, 0, 64, 57
1, 278032, Control_c, 0, 64, 60
1, 278046, Control_c, 0, 64, 62
1, 278061, Control_c, 0, 64, 63
1, 278076, Control_c, 0, 64, 65
1, 278091, Control_c, 0, 64, 66
1, 278106, Control_c, 0, 64, 68
1, 278120, Control_c, 0, 64, 70
1, 278135, Control_c, 0, 64, 72
1, 278150, Control_c, 0, 64, 76
1, 278164, Control_c, 0, 64, 79
1, 278179, Control_c, 0, 64, 83
1, 278194, Control_c, 0, 64, 86
1, 278209, Control_c, 0, 64, 88
1, 278224, Control_c, 0, 64, 91
1, 278239, Control_c, 0, 64, 93
1, 278253, Control_c, 0, 64, 95
1, 278268, Control_c, 0, 64, 98
1, 278283, Control_c, 0, 64, 99
1, 278298, Control_c, 0, 64, 100
1, 278313, Control_c, 0, 64, 101
1, 278453, Note_on_c, 0, 48, 52
1, 278475, Note_on_c, 0, 36, 28
1, 278531, Note_off_c, 0, 48, 40
1, 278540, Note_off_c, 0, 36, 42
1, 278610, Control_c, 0, 64, 100
1, 278639, Note_on_c, 0, 47, 47
1, 278655, Control_c, 0, 64, 100
1, 278669, Note_off_c, 0, 47, 56
1, 278669, Control_c, 0, 64, 97
1, 278684, Control_c, 0, 64, 94
1, 278696, Note_on_c, 0, 48, 49
1, 278706, Control_c, 0, 64, 91
1, 278714, Poly_aftertouch_c, 0, 35, 127
1, 278721, Control_c, 0, 64, 86
1, 278736, Control_c, 0, 64, 81
1, 278748, Note_on_c, 0, 36, 31
1, 278751, Control_c, 0, 64, 75
1, 278766, Control_c, 0, 64, 68
1, 278771, Note_on_c, 0, 47, 60
1, 278780, Control_c, 0, 64, 63
1, 278781, Note_on_c, 0, 35, 4
1, 278784, Note_off_c, 0, 36, 50
1, 278795, Control_c, 0, 64, 55
1, 278810, Control_c, 0, 64, 39
1, 278819, Note_off_c, 0, 48, 32
1, 278825, Control_c, 0, 64, 0
1, 279088, Note_on_c, 0, 45, 50
1, 279107, Note_on_c, 0, 33, 31
1, 279113, Note_off_c, 0, 35, 44
1, 279128, Note_off_c, 0, 47, 60
1, 279335, Note_on_c, 0, 35, 34
1, 279337, Note_on_c, 0, 47, 51
1, 279344, Note_off_c, 0, 45, 61
1, 279356, Note_off_c, 0, 33, 43
1, 279403, Control_c, 0, 64, 22
1, 279418, Control_c, 0, 64, 42
1, 279433, Control_c, 0, 64, 54
1, 279455, Control_c, 0, 64, 59
1, 279470, Control_c, 0, 64, 62
1, 279485, Control_c, 0, 64, 63
1, 279499, Control_c, 0, 64, 64
1, 279514, Control_c, 0, 64, 65
1, 279529, Note_off_c, 0, 35, 52
1, 279529, Control_c, 0, 64, 66
1, 279544, Control_c, 0, 64, 68
1, 279557, Note_off_c, 0, 47, 59
1, 279558, Control_c, 0, 64, 69
1, 279573, Control_c, 0, 64, 70
1, 279579, Note_on_c, 0, 48, 47
1, 279588, Control_c, 0, 64, 70
1, 279598, Poly_aftertouch_c, 0, 36, 127
1, 279633, Poly_aftertouch_c, 0, 36, 0
1, 279641, Note_off_c, 0, 48, 59
1, 279689, Note_on_c, 0, 35, 19
1, 279692, Note_on_c, 0, 47, 55
1, 279728, Note_off_c, 0, 35, 43
1, 279728, Note_off_c, 0, 47, 64
1, 279737, Control_c, 0, 64, 69
1, 279751, Control_c, 0, 64, 68
1, 279764, Note_on_c, 0, 36, 32
1, 279766, Control_c, 0, 64, 67
1, 279772, Note_on_c, 0, 48, 51
1, 279781, Control_c, 0, 64, 65
1, 279787, Poly_aftertouch_c, 0, 52, 127
1, 279796, Control_c, 0, 64, 63
1, 279803, Note_off_c, 0, 36, 51
1, 279811, Control_c, 0, 64, 59
1, 279824, Note_on_c, 0, 47, 59
1, 279825, Note_on_c, 0, 35, 39
1, 279825, Control_c, 0, 64, 52
1, 279832, Note_off_c, 0, 48, 54
1, 279840, Control_c, 0, 64, 41
1, 279855, Control_c, 0, 64, 24
1, 279870, Control_c, 0, 64, 0
1, 280080, Note_off_c, 0, 47, 61
1, 280082, Note_off_c, 0, 35, 50
1, 280101, Note_on_c, 0, 45, 44
1, 280114, Note_on_c, 0, 33, 34
1, 280226, Note_off_c, 0, 45, 60
1, 280227, Note_on_c, 0, 47, 47
1, 280235, Note_off_c, 0, 33, 46
1, 280259, Note_on_c, 0, 35, 27
1, 280336, Note_off_c, 0, 35, 42
1, 280361, Note_off_c, 0, 47, 50
1, 280373, Note_on_c, 0, 48, 45
1, 280399, Note_on_c, 0, 36, 16
1, 280420, Poly_aftertouch_c, 0, 52, 0
1, 280486, Control_c, 0, 64, 30
1, 280501, Control_c, 0, 64, 49
1, 280515, Control_c, 0, 64, 58
1, 280530, Control_c, 0, 64, 63
1, 280545, Control_c, 0, 64, 65
1, 280560, Control_c, 0, 64, 66
1, 280575, Control_c, 0, 64, 67
1, 280590, Control_c, 0, 64, 68
1, 280605, Control_c, 0, 64, 69
1, 280620, Control_c, 0, 64, 70
1, 280624, Note_off_c, 0, 36, 45
1, 280635, Control_c, 0, 64, 71
1, 280637, Note_off_c, 0, 48, 37
1, 280649, Note_on_c, 0, 50, 40
1, 280681, Note_on_c, 0, 38, 8
1, 280700, Note_off_c, 0, 50, 57
1, 280730, Note_off_c, 0, 38, 42
1, 280760, Note_on_c, 0, 36, 32
1, 280769, Note_on_c, 0, 48, 49
1, 280801, Note_off_c, 0, 36, 43
1, 280812, Control_c, 0, 64, 70
1, 280815, Note_off_c, 0, 48, 63
1, 280827, Control_c, 0, 64, 68
1, 280836, Note_on_c, 0, 50, 54
1, 280841, Control_c, 0, 64, 66
1, 280843, Note_on_c, 0, 38, 36
1, 280856, Control_c, 0, 64, 64
1, 280871, Control_c, 0, 64, 61
1, 280882, Note_off_c, 0, 38, 45
1, 280885, Control_c, 0, 64, 56
1, 280900, Control_c, 0, 64, 48
1, 280901, Note_on_c, 0, 48, 59
1, 280912, Note_on_c, 0, 36, 46
1, 280915, Control_c, 0, 64, 39
1, 280930, Control_c, 0, 64, 31
1, 280935, Note_off_c, 0, 50, 51
1, 280953, Control_c, 0, 64, 23
1, 280968, Control_c, 0, 64, 19
1, 280983, Control_c, 0, 64, 17
1, 280998, Control_c, 0, 64, 10
1, 281013, Control_c, 0, 64, 0
1, 281159, Note_on_c, 0, 47, 57
1, 281169, Note_on_c, 0, 35, 44
1, 281171, Note_off_c, 0, 36, 48
1, 281191, Note_off_c, 0, 48, 51
1, 281413, Note_on_c, 0, 48, 62
1, 281425, Note_on_c, 0, 36, 41
1, 281441, Note_off_c, 0, 35, 42
1, 281457, Note_off_c, 0, 47, 64
1, 281487, Control_c, 0, 64, 28
1, 281502, Control_c, 0, 64, 49
1, 281516, Control_c, 0, 64, 58
1, 281531, Control_c, 0, 64, 62
1, 281546, Control_c, 0, 64, 63
1, 281561, Control_c, 0, 64, 64
1, 281576, Control_c, 0, 64, 65
1, 281590, Control_c, 0, 64, 66
1, 281603, Note_off_c, 0, 36, 55
1, 281605, Control_c, 0, 64, 67
1, 281620, Control_c, 0, 64, 67
1, 281636, Note_on_c, 0, 50, 63
1, 281648, Note_on_c, 0, 38, 39
1, 281649, Note_off_c, 0, 48, 59
1, 281694, Note_off_c, 0, 38, 52
1, 281714, Note_off_c, 0, 50, 59
1, 281776, Control_c, 0, 64, 67
1, 281789, Note_on_c, 0, 36, 20
1, 281789, Note_on_c, 0, 48, 47
1, 281791, Control_c, 0, 64, 66
1, 281806, Control_c, 0, 64, 65
1, 281821, Control_c, 0, 64, 64
1, 281831, Note_off_c, 0, 48, 62
1, 281833, Note_off_c, 0, 36, 45
1, 281836, Control_c, 0, 64, 62
1, 281838, Note_on_c, 0, 38, 40
1, 281845, Note_on_c, 0, 50, 55
1, 281851, Control_c, 0, 64, 60
1, 281866, Control_c, 0, 64, 54
1, 281878, Note_off_c, 0, 38, 49
1, 281881, Control_c, 0, 64, 44
1, 281891, Note_on_c, 0, 48, 65
1, 281895, Control_c, 0, 64, 27
1, 281910, Note_on_c, 0, 36, 48
1, 281910, Control_c, 0, 64, 0
1, 281924, Note_off_c, 0, 50, 56
1, 282158, Note_on_c, 0, 47, 63
1, 282167, Note_off_c, 0, 36, 50
1, 282170, Note_off_c, 0, 48, 60
1, 282171, Note_on_c, 0, 35, 44
1, 282280, Note_on_c, 0, 48, 73
1, 282282, Note_on_c, 0, 36, 49
1, 282309, Note_off_c, 0, 47, 63
1, 282309, Control_c, 0, 67, 127
1, 282320, Note_off_c, 0, 35, 36
1, 282324, Control_c, 0, 67, 120
1, 282338, Control_c, 0, 67, 112
1, 282353, Control_c, 0, 67, 103
1, 282368, Control_c, 0, 67, 96
1, 282383, Control_c, 0, 67, 90
1, 282389, Note_off_c, 0, 36, 57
1, 282397, Note_on_c, 0, 50, 70
1, 282398, Control_c, 0, 67, 86
1, 282404, Note_on_c, 0, 38, 56
1, 282412, Control_c, 0, 67, 82
1, 282427, Control_c, 0, 67, 79
1, 282450, Control_c, 0, 67, 74
1, 282465, Control_c, 0, 67, 68
1, 282480, Control_c, 0, 67, 62
1, 282483, Note_off_c, 0, 48, 58
1, 282494, Control_c, 0, 67, 56
1, 282509, Control_c, 0, 67, 50
1, 282524, Control_c, 0, 67, 45
1, 282538, Control_c, 0, 67, 41
1, 282553, Control_c, 0, 67, 37
1, 282569, Control_c, 0, 67, 34
1, 282584, Control_c, 0, 64, 51
1, 282584, Control_c, 0, 67, 33
1, 282599, Control_c, 0, 64, 61
1, 282599, Control_c, 0, 67, 32
1, 282614, Control_c, 0, 64, 64
1, 282629, Control_c, 0, 64, 64
1, 282629, Control_c, 0, 67, 31
1, 282641, Note_off_c, 0, 50, 60
1, 282643, Control_c, 0, 67, 31
1, 282650, Note_on_c, 0, 52, 62
1, 282652, Note_off_c, 0, 38, 42
1, 282679, Note_on_c, 0, 40, 42
1, 282717, Note_off_c, 0, 40, 63
1, 282726, Note_off_c, 0, 52, 65
1, 282762, Note_on_c, 0, 50, 60
1, 282771, Note_on_c, 0, 38, 23
1, 282791, Control_c, 0, 64, 64
1, 282802, Note_off_c, 0, 50, 63
1, 282806, Control_c, 0, 64, 63
1, 282814, Note_off_c, 0, 38, 41
1, 282821, Control_c, 0, 64, 63
1, 282830, Note_on_c, 0, 40, 36
1, 282835, Note_on_c, 0, 52, 69
1, 282835, Control_c, 0, 64, 62
1, 282850, Control_c, 0, 64, 61
1, 282865, Control_c, 0, 64, 59
1, 282879, Note_off_c, 0, 40, 47
1, 282880, Control_c, 0, 64, 55
1, 282895, Control_c, 0, 64, 47
1, 282895, Control_c, 0, 67, 31
1, 282900, Note_on_c, 0, 50, 69
1, 282904, Note_on_c, 0, 38, 56
1, 282909, Control_c, 0, 64, 33
1, 282909, Control_c, 0, 67, 32
1, 282924, Control_c, 0, 64, 0
1, 282945, Note_off_c, 0, 52, 52
1, 282954, Control_c, 0, 67, 32
1, 282984, Control_c, 0, 67, 33
1, 283073, Control_c, 0, 67, 33
1, 283140, Note_off_c, 0, 38, 52
1, 283147, Control_c, 0, 67, 34
1, 283158, Note_off_c, 0, 50, 62
1, 283162, Note_on_c, 0, 48, 63
1, 283165, Note_on_c, 0, 36, 47
1, 283258, Control_c, 0, 67, 34
1, 283285, Note_on_c, 0, 38, 52
1, 283287, Note_on_c, 0, 50, 63
1, 283288, Note_off_c, 0, 48, 61
1, 283302, Control_c, 0, 67, 35
1, 283317, Note_off_c, 0, 36, 39
1, 283378, Control_c, 0, 67, 35
1, 283394, Note_off_c, 0, 38, 58
1, 283416, Note_on_c, 0, 52, 68
1, 283417, Note_on_c, 0, 40, 58
1, 283427, Note_off_c, 0, 50, 57
1, 283452, Control_c, 0, 67, 36
1, 283526, Control_c, 0, 67, 36
1, 283571, Control_c, 0, 67, 37
1, 283659, Control_c, 0, 67, 37
1, 283672, Note_on_c, 0, 53, 66
1, 283682, Note_off_c, 0, 40, 59
1, 283683, Note_on_c, 0, 41, 54
1, 283696, Note_off_c, 0, 52, 62
1, 283704, Control_c, 0, 67, 38
1, 283763, Control_c, 0, 67, 38
1, 283792, Control_c, 0, 67, 39
1, 283822, Control_c, 0, 67, 39
1, 283837, Control_c, 0, 67, 40
1, 283866, Control_c, 0, 67, 40
1, 283881, Control_c, 0, 67, 41
1, 283896, Control_c, 0, 67, 41
1, 283911, Control_c, 0, 67, 42
1, 283925, Control_c, 0, 67, 42
1, 283948, Control_c, 0, 67, 43
1, 283963, Control_c, 0, 67, 45
1, 283978, Note_on_c, 0, 55, 65
1, 283978, Control_c, 0, 67, 46
1, 283984, Note_on_c, 0, 43, 44
1, 283985, Note_off_c, 0, 41, 53
1, 283992, Control_c, 0, 67, 47
1, 284007, Control_c, 0, 67, 48
1, 284022, Control_c, 0, 67, 49
1, 284036, Note_off_c, 0, 53, 60
1, 284037, Control_c, 0, 67, 51
1, 284052, Control_c, 0, 67, 52
1, 284066, Control_c, 0, 67, 55
1, 284081, Control_c, 0, 67, 58
1, 284096, Control_c, 0, 67, 60
1, 284110, Control_c, 0, 67, 63
1, 284125, Control_c, 0, 67, 65
1, 284140, Control_c, 0, 67, 66
1, 284155, Control_c, 0, 67, 68
1, 284171, Control_c, 0, 67, 70
1, 284186, Control_c, 0, 67, 72
1, 284201, Control_c, 0, 67, 75
1, 284215, Control_c, 0, 67, 78
1, 284230, Control_c, 0, 67, 80
1, 284245, Control_c, 0, 67, 82
1, 284260, Control_c, 0, 67, 85
1, 284275, Control_c, 0, 67, 88
1, 284289, Control_c, 0, 67, 90
1, 284304, Control_c, 0, 67, 92
1, 284308, Note_on_c, 0, 53, 57
1, 284310, Note_on_c, 0, 41, 44
1, 284313, Note_off_c, 0, 43, 41
1, 284319, Control_c, 0, 67, 95
1, 284334, Control_c, 0, 67, 98
1, 284346, Note_off_c, 0, 55, 60
1, 284349, Control_c, 0, 67, 102
1, 284364, Control_c, 0, 67, 105
1, 284379, Control_c, 0, 67, 109
1, 284393, Control_c, 0, 67, 112
1, 284408, Control_c, 0, 67, 115
1, 284423, Control_c, 0, 67, 118
1, 284438, Control_c, 0, 67, 121
1, 284453, Control_c, 0, 67, 124
1, 284468, Control_c, 0, 67, 127
1, 284482, Control_c, 0, 67, 127
1, 284560, Note_off_c, 0, 53, 60
1, 284565, Note_off_c, 0, 41, 57
1, 284590, Note_on_c, 0, 52, 51
1, 284606, Note_on_c, 0, 40, 36
1, 284885, Note_off_c, 0, 40, 42
1, 284885, Note_on_c, 0, 50, 52
1, 284894, Note_on_c, 0, 38, 34
1, 284904, Control_c, 0, 64, 41
1, 284919, Control_c, 0, 64, 60
1, 284934, Control_c, 0, 64, 65
1, 284948, Control_c, 0, 64, 67
1, 284964, Control_c, 0, 64, 68
1, 284974, Note_off_c, 0, 50, 64
1, 284975, Note_off_c, 0, 52, 35
1, 284979, Control_c, 0, 64, 69
1, 284994, Control_c, 0, 64, 70
1, 285009, Control_c, 0, 64, 72
1, 285021, Note_off_c, 0, 38, 55
1, 285024, Control_c, 0, 64, 73
1, 285038, Control_c, 0, 64, 73
1, 285229, Note_on_c, 0, 60, 58
1, 285231, Control_c, 0, 64, 72
1, 285234, Note_on_c, 0, 57, 50
1, 285235, Note_on_c, 0, 52, 49
1, 285237, Note_on_c, 0, 40, 49
1, 285246, Control_c, 0, 64, 70
1, 285261, Control_c, 0, 64, 66
1, 285276, Control_c, 0, 64, 61
1, 285290, Control_c, 0, 64, 49
1, 285305, Control_c, 0, 64, 0
1, 285345, Note_on_c, 0, 64, 54
1, 285383, Note_off_c, 0, 64, 62
1, 285473, Note_off_c, 0, 60, 0
1, 285485, Note_on_c, 0, 64, 56
1, 285509, Poly_aftertouch_c, 0, 60, 127
1, 285519, Note_off_c, 0, 64, 65
1, 285586, Poly_aftertouch_c, 0, 60, 0
1, 285594, Note_on_c, 0, 64, 58
1, 285624, Poly_aftertouch_c, 0, 60, 127
1, 285628, Note_off_c, 0, 64, 64
1, 285730, Note_on_c, 0, 64, 60
1, 285842, Note_off_c, 0, 64, 59
1, 286029, Note_on_c, 0, 64, 53
1, 286053, Control_c, 0, 64, 47
1, 286068, Control_c, 0, 64, 60
1, 286081, Note_off_c, 0, 57, 57
1, 286083, Control_c, 0, 64, 63
1, 286098, Control_c, 0, 64, 64
1, 286103, Note_off_c, 0, 64, 63
1, 286105, Poly_aftertouch_c, 0, 60, 0
1, 286142, Control_c, 0, 64, 64
1, 286151, Note_off_c, 0, 40, 53
1, 286157, Control_c, 0, 64, 65
1, 286166, Note_off_c, 0, 52, 61
1, 286172, Control_c, 0, 64, 65
1, 286224, Control_c, 0, 64, 66
1, 286321, Note_on_c, 0, 59, 60
1, 286327, Note_on_c, 0, 56, 53
1, 286327, Control_c, 0, 64, 65
1, 286334, Note_on_c, 0, 40, 49
1, 286335, Note_on_c, 0, 52, 51
1, 286342, Control_c, 0, 64, 64
1, 286357, Control_c, 0, 64, 62
1, 286372, Control_c, 0, 64, 57
1, 286386, Control_c, 0, 64, 46
1, 286401, Control_c, 0, 64, 14
1, 286416, Control_c, 0, 64, 0
1, 286437, Note_on_c, 0, 64, 55
1, 286468, Note_off_c, 0, 64, 65
1, 286506, Note_off_c, 0, 59, 35
1, 286553, Note_on_c, 0, 64, 59
1, 286587, Note_off_c, 0, 64, 62
1, 286689, Note_on_c, 0, 64, 34
1, 286728, Note_off_c, 0, 64, 48
1, 286798, Note_on_c, 0, 64, 53
1, 286866, Note_off_c, 0, 64, 52
1, 287115, Note_on_c, 0, 64, 42
1, 287258, Note_off_c, 0, 56, 42
1, 287274, Note_off_c, 0, 52, 61
1, 287279, Note_off_c, 0, 64, 54
1, 287298, Note_off_c, 0, 40, 43
1, 288271, Control_c, 0, 64, 44
1, 288286, Control_c, 0, 64, 58
1, 288300, Control_c, 0, 64, 62
1, 288315, Control_c, 0, 64, 64
1, 288330, Control_c, 0, 64, 65
1, 288345, Control_c, 0, 64, 66
1, 288360, Control_c, 0, 64, 67
1, 288374, Control_c, 0, 64, 70
1, 288389, Control_c, 0, 64, 73
1, 288404, Control_c, 0, 64, 75
1, 288427, Control_c, 0, 64, 77
1, 288442, Control_c, 0, 64, 79
1, 288456, Control_c, 0, 64, 80
1, 288471, Control_c, 0, 64, 81
1, 288486, Control_c, 0, 64, 83
1, 288501, Control_c, 0, 64, 84
1, 288515, Control_c, 0, 64, 85
1, 288530, Control_c, 0, 64, 87
1, 288545, Control_c, 0, 64, 88
1, 288560, Control_c, 0, 64, 88
1, 288577, Note_on_c, 0, 60, 38
1, 288588, Note_on_c, 0, 48, 33
1, 288589, Control_c, 0, 64, 89
1, 288666, Note_off_c, 0, 48, 37
1, 288722, Note_off_c, 0, 60, 37
1, 288737, Control_c, 0, 64, 88
1, 288752, Control_c, 0, 64, 88
1, 288767, Control_c, 0, 64, 87
1, 288780, Note_on_c, 0, 59, 42
1, 288781, Control_c, 0, 64, 85
1, 288796, Control_c, 0, 64, 83
1, 288811, Control_c, 0, 64, 80
1, 288826, Control_c, 0, 64, 77
1, 288832, Note_on_c, 0, 47, 24
1, 288835, Note_off_c, 0, 59, 47
1, 288841, Control_c, 0, 64, 74
1, 288849, Note_on_c, 0, 60, 48
1, 288856, Control_c, 0, 64, 72
1, 288871, Control_c, 0, 64, 69
1, 288876, Note_off_c, 0, 47, 38
1, 288886, Control_c, 0, 64, 66
1, 288894, Note_on_c, 0, 48, 23
1, 288900, Control_c, 0, 64, 62
1, 288915, Control_c, 0, 64, 57
1, 288926, Note_on_c, 0, 59, 42
1, 288930, Control_c, 0, 64, 50
1, 288940, Note_off_c, 0, 48, 40
1, 288942, Note_on_c, 0, 47, 30
1, 288945, Control_c, 0, 64, 40
1, 288960, Control_c, 0, 64, 31
1, 288966, Note_off_c, 0, 60, 39
1, 288975, Control_c, 0, 64, 26
1, 288990, Control_c, 0, 64, 24
1, 289005, Control_c, 0, 64, 22
1, 289020, Control_c, 0, 64, 19
1, 289035, Control_c, 0, 64, 15
1, 289050, Control_c, 0, 64, 0
1, 289221, Note_on_c, 0, 57, 41
1, 289239, Note_on_c, 0, 45, 31
1, 289248, Note_off_c, 0, 59, 50
1, 289266, Note_off_c, 0, 47, 42
1, 289470, Note_on_c, 0, 59, 49
1, 289474, Note_on_c, 0, 47, 37
1, 289483, Note_off_c, 0, 45, 42
1, 289501, Control_c, 0, 64, 19
1, 289505, Note_off_c, 0, 57, 47
1, 289516, Control_c, 0, 64, 39
1, 289530, Control_c, 0, 64, 51
1, 289545, Control_c, 0, 64, 58
1, 289560, Control_c, 0, 64, 62
1, 289575, Control_c, 0, 64, 63
1, 289590, Control_c, 0, 64, 64
1, 289604, Control_c, 0, 64, 66
1, 289619, Control_c, 0, 64, 67
1, 289634, Control_c, 0, 64, 69
1, 289643, Note_off_c, 0, 47, 56
1, 289649, Control_c, 0, 64, 70
1, 289664, Control_c, 0, 64, 71
1, 289679, Control_c, 0, 64, 72
1, 289697, Note_on_c, 0, 60, 57
1, 289699, Note_off_c, 0, 59, 53
1, 289702, Note_on_c, 0, 48, 29
1, 289742, Note_off_c, 0, 48, 48
1, 289753, Note_off_c, 0, 60, 46
1, 289839, Note_on_c, 0, 59, 45
1, 289842, Control_c, 0, 64, 71
1, 289846, Note_on_c, 0, 47, 8
1, 289857, Control_c, 0, 64, 71
1, 289871, Control_c, 0, 64, 70
1, 289880, Note_on_c, 0, 48, 47
1, 289883, Note_off_c, 0, 59, 62
1, 289886, Control_c, 0, 64, 69
1, 289899, Note_on_c, 0, 60, 53
1, 289901, Control_c, 0, 64, 67
1, 289911, Poly_aftertouch_c, 0, 64, 127
1, 289916, Control_c, 0, 64, 65
1, 289938, Control_c, 0, 64, 62
1, 289944, Note_off_c, 0, 48, 41
1, 289947, Note_off_c, 0, 47, 0
1, 289953, Control_c, 0, 64, 57
1, 289964, Note_on_c, 0, 47, 33
1, 289968, Control_c, 0, 64, 49
1, 289977, Note_on_c, 0, 59, 62
1, 289983, Control_c, 0, 64, 40
1, 289998, Control_c, 0, 64, 30
1, 289998, Note_off_c, 0, 60, 54
1, 290012, Control_c, 0, 64, 22
1, 290027, Control_c, 0, 64, 17
1, 290042, Control_c, 0, 64, 14
1, 290057, Control_c, 0, 64, 0
1, 290090, Poly_aftertouch_c, 0, 64, 0
1, 290210, Note_off_c, 0, 47, 56
1, 290211, Note_off_c, 0, 59, 59
1, 290220, Note_on_c, 0, 57, 53
1, 290239, Note_on_c, 0, 45, 38
1, 290345, Note_on_c, 0, 59, 49
1, 290362, Note_on_c, 0, 47, 36
1, 290367, Note_off_c, 0, 57, 60
1, 290391, Note_off_c, 0, 45, 35
1, 290484, Note_off_c, 0, 47, 57
1, 290485, Note_on_c, 0, 60, 66
1, 290498, Note_on_c, 0, 48, 46
1, 290591, Note_off_c, 0, 59, 0
1, 290606, Control_c, 0, 64, 23
1, 290621, Control_c, 0, 64, 53
1, 290636, Control_c, 0, 64, 61
1, 290638, Poly_aftertouch_c, 0, 59, 0
1, 290650, Control_c, 0, 64, 65
1, 290665, Control_c, 0, 64, 66
1, 290687, Control_c, 0, 64, 69
1, 290701, Control_c, 0, 64, 71
1, 290716, Control_c, 0, 64, 75
1, 290726, Note_off_c, 0, 48, 53
1, 290731, Control_c, 0, 64, 76
1, 290746, Control_c, 0, 64, 77
1, 290757, Note_on_c, 0, 62, 64
1, 290769, Note_on_c, 0, 50, 48
1, 290787, Note_off_c, 0, 60, 55
1, 290822, Note_off_c, 0, 50, 42
1, 290831, Note_off_c, 0, 62, 60
1, 290901, Note_on_c, 0, 48, 36
1, 290909, Control_c, 0, 64, 76
1, 290922, Note_on_c, 0, 60, 47
1, 290934, Note_off_c, 0, 48, 48
1, 290939, Control_c, 0, 64, 76
1, 290954, Control_c, 0, 64, 75
1, 290955, Note_off_c, 0, 60, 63
1, 290960, Note_on_c, 0, 50, 39
1, 290963, Note_on_c, 0, 62, 58
1, 290969, Control_c, 0, 64, 74
1, 290983, Control_c, 0, 64, 72
1, 290996, Note_off_c, 0, 50, 54
1, 290998, Control_c, 0, 64, 69
1, 291013, Control_c, 0, 64, 66
1, 291026, Note_on_c, 0, 60, 61
1, 291027, Note_on_c, 0, 48, 57
1, 291028, Control_c, 0, 64, 63
1, 291043, Control_c, 0, 64, 60
1, 291057, Control_c, 0, 64, 54
1, 291072, Control_c, 0, 64, 45
1, 291087, Control_c, 0, 64, 34
1, 291098, Note_off_c, 0, 62, 40
1, 291101, Control_c, 0, 64, 20
1, 291116, Control_c, 0, 64, 8
1, 291131, Control_c, 0, 64, 0
1, 291277, Note_on_c, 0, 59, 70
1, 291287, Note_on_c, 0, 47, 55
1, 291308, Note_off_c, 0, 48, 60
1, 291345, Note_off_c, 0, 60, 61
1, 291458, Poly_aftertouch_c, 0, 65, 127
1, 291539, Note_on_c, 0, 60, 73
1, 291542, Note_on_c, 0, 48, 57
1, 291580, Note_off_c, 0, 47, 60
1, 291628, Note_off_c, 0, 59, 56
1, 291643, Control_c, 0, 64, 29
1, 291658, Control_c, 0, 64, 52
1, 291658, Control_c, 0, 67, 118
1, 291673, Control_c, 0, 64, 61
1, 291673, Control_c, 0, 67, 106
1, 291688, Control_c, 0, 64, 64
1, 291688, Control_c, 0, 67, 93
1, 291703, Control_c, 0, 64, 65
1, 291703, Control_c, 0, 67, 80
1, 291718, Control_c, 0, 64, 67
1, 291718, Control_c, 0, 67, 68
1, 291732, Control_c, 0, 64, 69
1, 291732, Control_c, 0, 67, 56
1, 291747, Control_c, 0, 64, 71
1, 291747, Control_c, 0, 67, 46
1, 291762, Control_c, 0, 64, 73
1, 291762, Control_c, 0, 67, 39
1, 291768, Note_off_c, 0, 48, 58
1, 291768, Note_on_c, 0, 62, 69
1, 291769, Poly_aftertouch_c, 0, 65, 0
1, 291777, Control_c, 0, 64, 74
1, 291777, Control_c, 0, 67, 33
1, 291780, Note_on_c, 0, 50, 50
1, 291792, Control_c, 0, 64, 75
1, 291792, Control_c, 0, 67, 29
1, 291797, Note_off_c, 0, 60, 61
1, 291806, Control_c, 0, 67, 25
1, 291821, Control_c, 0, 67, 21
1, 291824, Note_off_c, 0, 50, 51
1, 291836, Control_c, 0, 67, 18
1, 291850, Control_c, 0, 67, 14
1, 291852, Note_off_c, 0, 62, 58
1, 291865, Control_c, 0, 67, 11
1, 291880, Control_c, 0, 67, 8
1, 291895, Control_c, 0, 67, 0
1, 291914, Note_on_c, 0, 60, 64
1, 291924, Note_on_c, 0, 48, 35
1, 291940, Note_off_c, 0, 60, 67
1, 291953, Note_off_c, 0, 48, 53
1, 291954, Control_c, 0, 64, 73
1, 291969, Control_c, 0, 64, 71
1, 291971, Note_on_c, 0, 62, 63
1, 291984, Control_c, 0, 64, 69
1, 291998, Control_c, 0, 64, 66
1, 292013, Control_c, 0, 64, 63
1, 292019, Note_on_c, 0, 60, 71
1, 292028, Control_c, 0, 64, 59
1, 292034, Note_on_c, 0, 48, 66
1, 292042, Control_c, 0, 64, 51
1, 292050, Note_off_c, 0, 62, 58
1, 292057, Control_c, 0, 64, 38
1, 292072, Control_c, 0, 64, 24
1, 292073, Poly_aftertouch_c, 0, 50, 0
1, 292087, Control_c, 0, 64, 15
1, 292147, Control_c, 0, 64, 14
1, 292244, Control_c, 0, 64, 12
1, 292259, Control_c, 0, 64, 8
1, 292274, Control_c, 0, 64, 0
1, 292290, Note_off_c, 0, 60, 60
1, 292297, Note_on_c, 0, 59, 63
1, 292297, Note_off_c, 0, 48, 60
1, 292304, Note_on_c, 0, 47, 57
1, 292407, Note_on_c, 0, 60, 75
1, 292421, Note_on_c, 0, 48, 68
1, 292436, Note_off_c, 0, 47, 54
1, 292477, Note_off_c, 0, 59, 58
1, 292533, Note_on_c, 0, 62, 78
1, 292540, Note_on_c, 0, 50, 60
1, 292549, Note_off_c, 0, 48, 57
1, 292669, Note_off_c, 0, 60, 48
1, 292761, Control_c, 0, 64, 12
1, 292776, Control_c, 0, 64, 53
1, 292791, Control_c, 0, 64, 63
1, 292793, Note_off_c, 0, 50, 60
1, 292795, Note_on_c, 0, 64, 71
1, 292803, Note_on_c, 0, 52, 61
1, 292806, Control_c, 0, 64, 66
1, 292821, Control_c, 0, 64, 68
1, 292828, Note_off_c, 0, 62, 60
1, 292835, Control_c, 0, 64, 70
1, 292850, Control_c, 0, 64, 71
1, 292865, Control_c, 0, 64, 73
1, 292870, Note_off_c, 0, 64, 61
1, 292880, Control_c, 0, 64, 73
1, 292889, Note_off_c, 0, 52, 53
1, 292895, Control_c, 0, 64, 74
1, 292944, Note_on_c, 0, 50, 11
1, 292952, Note_on_c, 0, 62, 52
1, 292988, Note_off_c, 0, 62, 63
1, 292992, Note_on_c, 0, 64, 70
1, 292992, Control_c, 0, 64, 73
1, 292993, Note_off_c, 0, 50, 27
1, 293007, Control_c, 0, 64, 72
1, 293022, Control_c, 0, 64, 70
1, 293037, Control_c, 0, 64, 68
1, 293051, Control_c, 0, 64, 65
1, 293052, Note_on_c, 0, 50, 59
1, 293054, Note_on_c, 0, 62, 77
1, 293057, Poly_aftertouch_c, 0, 52, 127
1, 293066, Control_c, 0, 64, 62
1, 293081, Control_c, 0, 64, 57
1, 293095, Poly_aftertouch_c, 0, 52, 0
1, 293095, Control_c, 0, 64, 46
1, 293110, Note_off_c, 0, 64, 56
1, 293110, Control_c, 0, 64, 23
1, 293125, Control_c, 0, 64, 0
1, 293281, Note_off_c, 0, 50, 61
1, 293284, Note_on_c, 0, 48, 56
1, 293305, Note_on_c, 0, 60, 67
1, 293318, Note_off_c, 0, 62, 60
1, 293402, Note_off_c, 0, 48, 60
1, 293417, Note_on_c, 0, 50, 63
1, 293421, Note_on_c, 0, 62, 73
1, 293457, Note_off_c, 0, 60, 55
1, 293514, Note_off_c, 0, 50, 63
1, 293525, Note_on_c, 0, 52, 70
1, 293538, Note_on_c, 0, 64, 67
1, 293571, Note_off_c, 0, 62, 55
1, 293769, Note_off_c, 0, 52, 61
1, 293772, Note_on_c, 0, 53, 59
1, 293787, Note_off_c, 0, 64, 63
1, 293790, Note_on_c, 0, 65, 60
1, 293861, Control_c, 0, 64, 27
1, 293875, Control_c, 0, 64, 57
1, 293890, Control_c, 0, 64, 63
1, 293905, Control_c, 0, 64, 64
1, 293919, Control_c, 0, 64, 65
1, 293949, Control_c, 0, 64, 65
1, 293950, Note_off_c, 0, 53, 60
1, 293964, Control_c, 0, 64, 66
1, 293979, Control_c, 0, 64, 67
1, 294023, Control_c, 0, 64, 66
1, 294038, Control_c, 0, 64, 64
1, 294052, Control_c, 0, 64, 61
1, 294054, Note_on_c, 0, 43, 39
1, 294065, Note_on_c, 0, 67, 53
1, 294067, Control_c, 0, 64, 43
1, 294072, Note_on_c, 0, 55, 43
1, 294082, Control_c, 0, 64, 0
1, 294105, Note_off_c, 0, 65, 54
1, 294141, Control_c, 0, 64, 46
1, 294156, Control_c, 0, 64, 61
1, 294171, Control_c, 0, 64, 65
1, 294186, Control_c, 0, 64, 67
1, 294198, Note_off_c, 0, 55, 58
1, 294201, Control_c, 0, 64, 67
1, 294207, Note_off_c, 0, 43, 53
1, 294216, Control_c, 0, 64, 68
1, 294230, Control_c, 0, 64, 69
1, 294245, Control_c, 0, 64, 71
1, 294260, Control_c, 0, 64, 74
1, 294319, Control_c, 0, 64, 71
1, 294328, Note_on_c, 0, 53, 52
1, 294332, Note_on_c, 0, 41, 51
1, 294334, Control_c, 0, 64, 67
1, 294347, Note_on_c, 0, 65, 57
1, 294349, Control_c, 0, 64, 64
1, 294364, Control_c, 0, 64, 62
1, 294393, Control_c, 0, 64, 63
1, 294408, Control_c, 0, 64, 64
1, 294430, Control_c, 0, 64, 66
1, 294445, Control_c, 0, 64, 68
1, 294460, Control_c, 0, 64, 70
1, 294475, Control_c, 0, 64, 73
1, 294489, Note_off_c, 0, 41, 62
1, 294490, Control_c, 0, 64, 76
1, 294494, Note_off_c, 0, 53, 60
1, 294505, Control_c, 0, 64, 78
1, 294519, Control_c, 0, 64, 80
1, 294534, Control_c, 0, 64, 81
1, 294564, Control_c, 0, 64, 79
1, 294579, Control_c, 0, 64, 73
1, 294586, Note_on_c, 0, 64, 70
1, 294591, Note_on_c, 0, 40, 65
1, 294593, Note_on_c, 0, 52, 66
1, 294594, Control_c, 0, 64, 65
1, 294609, Control_c, 0, 64, 54
1, 294624, Control_c, 0, 64, 30
1, 294639, Control_c, 0, 64, 34
1, 294654, Control_c, 0, 64, 47
1, 294668, Control_c, 0, 64, 58
1, 294683, Control_c, 0, 64, 64
1, 294698, Control_c, 0, 64, 68
1, 294713, Control_c, 0, 64, 71
1, 294728, Control_c, 0, 64, 75
1, 294742, Control_c, 0, 64, 78
1, 294757, Control_c, 0, 64, 82
1, 294767, Note_off_c, 0, 52, 65
1, 294770, Note_off_c, 0, 40, 64
1, 294772, Control_c, 0, 64, 89
1, 294787, Control_c, 0, 64, 98
1, 294802, Control_c, 0, 64, 103
1, 294816, Control_c, 0, 64, 103
1, 294831, Control_c, 0, 64, 89
1, 294843, Note_on_c, 0, 62, 75
1, 294844, Note_on_c, 0, 38, 74
1, 294846, Control_c, 0, 64, 72
1, 294848, Note_on_c, 0, 50, 80
1, 294861, Control_c, 0, 64, 59
1, 294875, Control_c, 0, 64, 23
1, 294890, Control_c, 0, 64, 14
1, 294905, Control_c, 0, 64, 42
1, 294910, Note_off_c, 0, 67, 40
1, 294920, Control_c, 0, 64, 59
1, 294935, Control_c, 0, 64, 68
1, 294949, Control_c, 0, 64, 75
1, 294964, Control_c, 0, 64, 79
1, 294973, Note_off_c, 0, 65, 30
1, 294979, Control_c, 0, 64, 82
1, 294989, Note_off_c, 0, 64, 55
1, 294994, Control_c, 0, 64, 85
1, 295009, Control_c, 0, 64, 92
1, 295022, Note_off_c, 0, 50, 61
1, 295023, Control_c, 0, 64, 106
1, 295031, Note_off_c, 0, 38, 63
1, 295038, Control_c, 0, 64, 127
1, 295098, Control_c, 0, 64, 95
1, 295105, Note_on_c, 0, 48, 87
1, 295106, Note_on_c, 0, 36, 83
1, 295109, Note_on_c, 0, 60, 80
1, 295113, Control_c, 0, 64, 67
1, 295128, Control_c, 0, 64, 45
1, 295138, Note_off_c, 0, 62, 62
1, 295142, Control_c, 0, 64, 23
1, 295157, Control_c, 0, 64, 40
1, 295179, Control_c, 0, 64, 54
1, 295194, Control_c, 0, 64, 64
1, 295208, Control_c, 0, 64, 71
1, 295223, Control_c, 0, 64, 82
1, 295238, Control_c, 0, 64, 87
1, 295253, Control_c, 0, 64, 88
1, 295268, Note_off_c, 0, 48, 58
1, 295268, Control_c, 0, 64, 91
1, 295283, Control_c, 0, 64, 95
1, 295285, Note_off_c, 0, 36, 63
1, 295298, Control_c, 0, 64, 104
1, 295313, Control_c, 0, 64, 127
1, 295373, Note_on_c, 0, 58, 86
1, 295375, Note_on_c, 0, 34, 76
1, 295375, Note_on_c, 0, 46, 85
1, 295387, Control_c, 0, 64, 80
1, 295396, Note_off_c, 0, 60, 57
1, 295402, Control_c, 0, 64, 28
1, 295417, Control_c, 0, 64, 0
1, 295462, Control_c, 0, 64, 56
1, 295476, Control_c, 0, 64, 71
1, 295491, Control_c, 0, 64, 98
1, 295506, Control_c, 0, 64, 127
1, 295553, Note_off_c, 0, 46, 60
1, 295570, Note_off_c, 0, 34, 63
1, 295623, Note_on_c, 0, 33, 80
1, 295623, Note_on_c, 0, 45, 81
1, 295625, Note_on_c, 0, 57, 90
1, 295654, Control_c, 0, 64, 81
1, 295669, Control_c, 0, 64, 0
1, 295743, Control_c, 0, 64, 63
1, 295758, Control_c, 0, 64, 73
1, 295772, Control_c, 0, 64, 88
1, 295782, Note_off_c, 0, 45, 61
1, 295787, Note_off_c, 0, 33, 66
1, 295787, Control_c, 0, 64, 105
1, 295802, Control_c, 0, 64, 116
1, 295805, Note_off_c, 0, 58, 0
1, 295816, Control_c, 0, 64, 127
1, 295842, Poly_aftertouch_c, 0, 58, 127
1, 295895, Note_on_c, 0, 43, 92
1, 295898, Note_on_c, 0, 55, 91
1, 295900, Note_on_c, 0, 31, 78
1, 295922, Note_on_c, 0, 58, 5
1, 295940, Note_off_c, 0, 57, 63
1, 295963, Note_off_c, 0, 55, 66
1, 295966, Note_off_c, 0, 58, 46
1, 296052, Note_off_c, 0, 31, 59
1, 296064, Note_off_c, 0, 43, 54
1, 296267, Note_on_c, 0, 69, 97
1, 296273, Note_on_c, 0, 29, 76
1, 296275, Note_on_c, 0, 41, 83
1, 296280, Note_on_c, 0, 65, 81
1, 296287, Note_on_c, 0, 60, 68
1, 296359, Control_c, 0, 64, 70
1, 296374, Control_c, 0, 64, 0
1, 296415, Note_off_c, 0, 29, 49
1, 296415, Note_off_c, 0, 41, 58
1, 296430, Note_on_c, 0, 36, 66
1, 296460, Note_off_c, 0, 36, 64
1, 296502, Note_off_c, 0, 65, 50
1, 296534, Note_on_c, 0, 36, 71
1, 296559, Note_off_c, 0, 36, 67
1, 296627, Note_on_c, 0, 36, 77
1, 296670, Note_off_c, 0, 36, 66
1, 296739, Note_on_c, 0, 36, 81
1, 296770, Note_off_c, 0, 36, 67
1, 296916, Note_off_c, 0, 60, 40
1, 296996, Note_on_c, 0, 67, 84
1, 297002, Note_on_c, 0, 64, 67
1, 297006, Note_on_c, 0, 36, 55
1, 297010, Note_on_c, 0, 60, 58
1, 297018, Control_c, 0, 64, 21
1, 297026, Note_off_c, 0, 69, 60
1, 297033, Control_c, 0, 64, 50
1, 297034, Note_off_c, 0, 36, 56
1, 297048, Control_c, 0, 64, 51
1, 297077, Control_c, 0, 64, 51
1, 297084, Note_off_c, 0, 64, 60
1, 297092, Control_c, 0, 64, 54
1, 297107, Control_c, 0, 64, 57
1, 297122, Control_c, 0, 64, 58
1, 297167, Control_c, 0, 64, 59
1, 297168, Note_off_c, 0, 60, 55
1, 297182, Control_c, 0, 64, 60
1, 297196, Control_c, 0, 64, 61
1, 297241, Control_c, 0, 64, 60
1, 297246, Note_on_c, 0, 29, 68
1, 297248, Note_on_c, 0, 69, 90
1, 297253, Note_on_c, 0, 65, 70
1, 297253, Note_on_c, 0, 41, 61
1, 297256, Control_c, 0, 64, 60
1, 297270, Control_c, 0, 64, 58
1, 297273, Note_on_c, 0, 60, 66
1, 297285, Control_c, 0, 64, 55
1, 297287, Note_off_c, 0, 29, 56
1, 297292, Note_off_c, 0, 41, 62
1, 297300, Control_c, 0, 64, 51
1, 297313, Note_off_c, 0, 67, 57
1, 297315, Control_c, 0, 64, 44
1, 297330, Control_c, 0, 64, 43
1, 297362, Note_on_c, 0, 36, 69
1, 297377, Note_off_c, 0, 65, 56
1, 297400, Note_off_c, 0, 36, 65
1, 297423, Note_off_c, 0, 60, 47
1, 297441, Control_c, 0, 64, 44
1, 297470, Control_c, 0, 64, 43
1, 297481, Note_on_c, 0, 36, 80
1, 297500, Note_on_c, 0, 67, 83
1, 297500, Control_c, 0, 64, 44
1, 297507, Note_on_c, 0, 60, 76
1, 297513, Note_on_c, 0, 64, 76
1, 297515, Control_c, 0, 64, 45
1, 297522, Note_off_c, 0, 36, 64
1, 297530, Control_c, 0, 64, 48
1, 297535, Note_off_c, 0, 69, 63
1, 297544, Control_c, 0, 64, 51
1, 297559, Control_c, 0, 64, 53
1, 297574, Control_c, 0, 64, 56
1, 297588, Control_c, 0, 64, 58
1, 297595, Note_on_c, 0, 36, 84
1, 297603, Control_c, 0, 64, 60
1, 297618, Control_c, 0, 64, 61
1, 297633, Control_c, 0, 64, 61
1, 297643, Note_off_c, 0, 36, 63
1, 297653, Note_off_c, 0, 64, 58
1, 297661, Note_off_c, 0, 60, 57
1, 297663, Control_c, 0, 64, 62
1, 297677, Control_c, 0, 64, 62
1, 297707, Control_c, 0, 64, 57
1, 297722, Control_c, 0, 64, 28
1, 297727, Note_off_c, 0, 67, 0
1, 297733, Note_on_c, 0, 36, 81
1, 297736, Note_on_c, 0, 69, 90
1, 297737, Control_c, 0, 64, 0
1, 297742, Note_on_c, 0, 60, 87
1, 297744, Note_on_c, 0, 65, 74
1, 297750, Note_on_c, 0, 67, 39
1, 297782, Control_c, 0, 64, 43
1, 297790, Note_off_c, 0, 67, 46
1, 297797, Control_c, 0, 64, 63
1, 297812, Note_off_c, 0, 69, 66
1, 297812, Control_c, 0, 64, 69
1, 297827, Control_c, 0, 64, 73
1, 297841, Control_c, 0, 64, 75
1, 297856, Control_c, 0, 64, 77
1, 297871, Control_c, 0, 64, 79
1, 297885, Note_off_c, 0, 65, 33
1, 297886, Note_off_c, 0, 60, 55
1, 297886, Control_c, 0, 64, 81
1, 297889, Note_off_c, 0, 36, 61
1, 297900, Control_c, 0, 64, 84
1, 297915, Control_c, 0, 64, 85
1, 297945, Control_c, 0, 64, 84
1, 297960, Control_c, 0, 64, 79
1, 297974, Control_c, 0, 64, 73
1, 297977, Note_on_c, 0, 72, 91
1, 297980, Note_on_c, 0, 70, 88
1, 297981, Note_on_c, 0, 60, 89
1, 297988, Note_on_c, 0, 64, 77
1, 297989, Control_c, 0, 64, 71
1, 297991, Note_on_c, 0, 36, 75
1, 297998, Note_on_c, 0, 67, 45
1, 298019, Control_c, 0, 64, 71
1, 298034, Control_c, 0, 64, 75
1, 298043, Note_off_c, 0, 36, 64
1, 298049, Control_c, 0, 64, 81
1, 298064, Control_c, 0, 64, 85
1, 298070, Note_off_c, 0, 60, 57
1, 298070, Note_off_c, 0, 64, 63
1, 298079, Control_c, 0, 64, 87
1, 298093, Control_c, 0, 64, 87
1, 298097, Note_off_c, 0, 72, 58
1, 298100, Note_off_c, 0, 67, 0
1, 298108, Control_c, 0, 64, 88
1, 298123, Control_c, 0, 64, 89
1, 298138, Poly_aftertouch_c, 0, 67, 127
1, 298138, Control_c, 0, 64, 90
1, 298152, Note_off_c, 0, 70, 56
1, 298153, Control_c, 0, 64, 91
1, 298174, Control_c, 0, 64, 93
1, 298189, Control_c, 0, 64, 95
1, 298204, Control_c, 0, 64, 97
1, 298212, Poly_aftertouch_c, 0, 67, 0
1, 298234, Control_c, 0, 64, 96
1, 298249, Control_c, 0, 64, 89
1, 298259, Note_on_c, 0, 69, 99
1, 298261, Note_on_c, 0, 41, 83
1, 298262, Note_on_c, 0, 29, 83
1, 298264, Control_c, 0, 64, 75
1, 298267, Note_on_c, 0, 60, 89
1, 298267, Note_on_c, 0, 65, 86
1, 298279, Control_c, 0, 64, 55
1, 298293, Control_c, 0, 64, 0
1, 298318, Note_off_c, 0, 41, 63
1, 298328, Note_off_c, 0, 29, 60
1, 298379, Note_on_c, 0, 36, 62
1, 298412, Note_off_c, 0, 36, 64
1, 298485, Note_on_c, 0, 36, 75
1, 298514, Note_off_c, 0, 36, 65
1, 298587, Note_on_c, 0, 36, 70
1, 298631, Note_off_c, 0, 36, 64
1, 298703, Note_off_c, 0, 65, 53
1, 298714, Note_on_c, 0, 36, 73
1, 298757, Note_off_c, 0, 36, 65
1, 298893, Note_off_c, 0, 60, 53
1, 298970, Note_on_c, 0, 67, 75
1, 298976, Note_on_c, 0, 64, 69
1, 298976, Note_on_c, 0, 36, 68
1, 298985, Note_on_c, 0, 60, 59
1, 298997, Control_c, 0, 64, 20
1, 299004, Note_off_c, 0, 36, 65
1, 299012, Note_off_c, 0, 69, 58
1, 299012, Control_c, 0, 64, 56
1, 299027, Control_c, 0, 64, 64
1, 299042, Control_c, 0, 64, 67
1, 299057, Control_c, 0, 64, 69
1, 299071, Control_c, 0, 64, 69
1, 299086, Control_c, 0, 64, 70
1, 299096, Note_off_c, 0, 64, 60
1, 299101, Control_c, 0, 64, 71
1, 299119, Note_off_c, 0, 60, 50
1, 299205, Control_c, 0, 64, 70
1, 299220, Control_c, 0, 64, 68
1, 299223, Note_on_c, 0, 69, 87
1, 299225, Note_on_c, 0, 29, 71
1, 299228, Note_on_c, 0, 65, 69
1, 299234, Note_on_c, 0, 41, 61
1, 299234, Control_c, 0, 64, 65
1, 299238, Note_on_c, 0, 60, 66
1, 299249, Control_c, 0, 64, 60
1, 299262, Note_off_c, 0, 29, 61
1, 299264, Control_c, 0, 64, 48
1, 299267, Note_off_c, 0, 41, 66
1, 299279, Control_c, 0, 64, 0
1, 299295, Note_off_c, 0, 67, 38
1, 299343, Note_on_c, 0, 36, 71
1, 299356, Note_off_c, 0, 65, 57
1, 299376, Note_off_c, 0, 36, 64
1, 299383, Note_off_c, 0, 60, 58
1, 299446, Note_on_c, 0, 36, 80
1, 299456, Note_on_c, 0, 67, 80
1, 299462, Note_on_c, 0, 64, 73
1, 299467, Note_on_c, 0, 60, 73
1, 299480, Note_off_c, 0, 69, 66
1, 299495, Note_off_c, 0, 36, 64
1, 299564, Note_on_c, 0, 36, 82
1, 299611, Note_off_c, 0, 36, 62
1, 299611, Note_off_c, 0, 64, 60
1, 299644, Note_off_c, 0, 60, 55
1, 299694, Note_on_c, 0, 60, 77
1, 299695, Note_on_c, 0, 36, 88
1, 299697, Note_on_c, 0, 65, 84
1, 299697, Note_on_c, 0, 69, 92
1, 299746, Control_c, 0, 64, 32
1, 299761, Control_c, 0, 64, 48
1, 299770, Note_off_c, 0, 67, 54
1, 299776, Control_c, 0, 64, 58
1, 299786, Note_off_c, 0, 69, 63
1, 299790, Control_c, 0, 64, 62
1, 299805, Control_c, 0, 64, 64
1, 299820, Control_c, 0, 64, 64
1, 299823, Note_off_c, 0, 65, 55
1, 299830, Note_off_c, 0, 36, 60
1, 299835, Control_c, 0, 64, 65
1, 299838, Note_off_c, 0, 60, 59
1, 299850, Control_c, 0, 64, 66
1, 299864, Control_c, 0, 64, 67
1, 299894, Control_c, 0, 64, 66
1, 299909, Control_c, 0, 64, 65
1, 299924, Control_c, 0, 64, 65
1, 299930, Note_on_c, 0, 72, 91
1, 299931, Note_on_c, 0, 60, 89
1, 299933, Note_on_c, 0, 70, 86
1, 299935, Note_on_c, 0, 64, 78
1, 299936, Note_on_c, 0, 36, 85
1, 299953, Note_on_c, 0, 67, 56
1, 299954, Control_c, 0, 64, 65
1, 299969, Control_c, 0, 64, 67
1, 299983, Control_c, 0, 64, 70
1, 299988, Note_off_c, 0, 36, 64
1, 299998, Control_c, 0, 64, 76
1, 300013, Control_c, 0, 64, 81
1, 300026, Note_off_c, 0, 60, 55
1, 300028, Control_c, 0, 64, 83
1, 300037, Note_off_c, 0, 64, 59
1, 300043, Control_c, 0, 64, 85
1, 300057, Note_off_c, 0, 72, 59
1, 300057, Control_c, 0, 64, 86
1, 300072, Control_c, 0, 64, 87
1, 300087, Control_c, 0, 64, 89
1, 300098, Note_off_c, 0, 70, 52
1, 300102, Control_c, 0, 64, 91
1, 300117, Control_c, 0, 64, 94
1, 300133, Control_c, 0, 64, 96
1, 300148, Control_c, 0, 64, 98
1, 300153, Note_off_c, 0, 67, 34
1, 300162, Control_c, 0, 64, 99
1, 300177, Control_c, 0, 64, 101
1, 300192, Control_c, 0, 64, 103
1, 300206, Control_c, 0, 64, 103
1, 300222, Note_on_c, 0, 29, 85
1, 300222, Control_c, 0, 64, 104
1, 300223, Note_on_c, 0, 69, 98
1, 300224, Note_on_c, 0, 41, 89
1, 300229, Note_on_c, 0, 60, 95
1, 300230, Note_on_c, 0, 65, 88
1, 300252, Control_c, 0, 64, 103
1, 300267, Control_c, 0, 64, 95
1, 300281, Control_c, 0, 64, 75
1, 300286, Note_off_c, 0, 29, 60
1, 300292, Note_off_c, 0, 41, 56
1, 300296, Control_c, 0, 64, 59
1, 300311, Control_c, 0, 64, 0
1, 300346, Note_on_c, 0, 36, 80
1, 300386, Note_off_c, 0, 36, 64
1, 300451, Note_on_c, 0, 36, 77
1, 300490, Note_off_c, 0, 36, 66
1, 300551, Note_on_c, 0, 36, 81
1, 300606, Note_off_c, 0, 36, 65
1, 300668, Note_on_c, 0, 36, 86
1, 300782, Note_off_c, 0, 69, 59
1, 300807, Note_off_c, 0, 36, 64
1, 300812, Note_off_c, 0, 65, 50
1, 300829, Note_off_c, 0, 60, 57
1, 300922, Note_on_c, 0, 60, 95
1, 300923, Note_on_c, 0, 65, 91
1, 300926, Note_on_c, 0, 69, 89
1, 300926, Control_c, 0, 64, 49
1, 300931, Note_on_c, 0, 36, 81
1, 300941, Control_c, 0, 64, 61
1, 300956, Control_c, 0, 64, 66
1, 300969, Note_off_c, 0, 36, 65
1, 300970, Control_c, 0, 64, 69
1, 300985, Control_c, 0, 64, 73
1, 301000, Control_c, 0, 64, 78
1, 301015, Control_c, 0, 64, 83
1, 301029, Control_c, 0, 64, 87
1, 301033, Note_off_c, 0, 65, 59
1, 301044, Note_off_c, 0, 69, 56
1, 301044, Control_c, 0, 64, 92
1, 301059, Control_c, 0, 64, 97
1, 301066, Note_off_c, 0, 60, 54
1, 301074, Control_c, 0, 64, 102
1, 301089, Control_c, 0, 64, 108
1, 301103, Control_c, 0, 64, 127
1, 301213, Note_on_c, 0, 29, 89
1, 301213, Note_on_c, 0, 41, 93
1, 301213, Note_on_c, 0, 72, 94
1, 301214, Note_on_c, 0, 60, 97
1, 301216, Note_on_c, 0, 63, 95
1, 301221, Note_on_c, 0, 69, 89
1, 301274, Control_c, 0, 64, 116
1, 301286, Note_off_c, 0, 29, 60
1, 301289, Control_c, 0, 64, 81
1, 301290, Note_off_c, 0, 41, 54
1, 301304, Control_c, 0, 64, 64
1, 301318, Control_c, 0, 64, 0
1, 301334, Note_on_c, 0, 36, 83
1, 301380, Note_off_c, 0, 36, 63
1, 301435, Note_on_c, 0, 36, 75
1, 301485, Note_off_c, 0, 36, 65
1, 301545, Note_on_c, 0, 36, 83
1, 301597, Note_off_c, 0, 36, 65
1, 301665, Note_on_c, 0, 36, 88
1, 301775, Note_off_c, 0, 63, 60
1, 301792, Note_off_c, 0, 72, 53
1, 301793, Control_c, 0, 64, 54
1, 301794, Note_off_c, 0, 60, 54
1, 301798, Note_off_c, 0, 69, 36
1, 301802, Note_off_c, 0, 36, 62
1, 301808, Control_c, 0, 64, 62
1, 301823, Control_c, 0, 64, 63
1, 301838, Control_c, 0, 64, 64
1, 301852, Control_c, 0, 64, 66
1, 301867, Control_c, 0, 64, 69
1, 301882, Control_c, 0, 64, 73
1, 301897, Control_c, 0, 64, 77
1, 301919, Control_c, 0, 64, 81
1, 301923, Note_on_c, 0, 60, 98
1, 301926, Note_on_c, 0, 72, 95
1, 301930, Note_on_c, 0, 36, 89
1, 301930, Note_on_c, 0, 63, 89
1, 301931, Note_on_c, 0, 69, 87
1, 301933, Control_c, 0, 64, 84
1, 301948, Control_c, 0, 64, 90
1, 301963, Control_c, 0, 64, 99
1, 301967, Note_off_c, 0, 63, 61
1, 301975, Note_off_c, 0, 36, 66
1, 301978, Note_off_c, 0, 60, 58
1, 301978, Note_off_c, 0, 69, 67
1, 301978, Control_c, 0, 64, 125
1, 301993, Control_c, 0, 64, 127
1, 301996, Note_off_c, 0, 72, 67
1, 302252, Note_on_c, 0, 29, 92
1, 302255, Note_on_c, 0, 63, 102
1, 302256, Note_on_c, 0, 69, 80
1, 302258, Note_on_c, 0, 75, 95
1, 302266, Note_on_c, 0, 72, 78
1, 302319, Control_c, 0, 64, 90
1, 302333, Control_c, 0, 64, 63
1, 302348, Control_c, 0, 64, 0
1, 302377, Note_on_c, 0, 41, 91
1, 302427, Note_off_c, 0, 41, 63
1, 302476, Note_off_c, 0, 29, 58
1, 302482, Note_on_c, 0, 41, 84
1, 302537, Note_off_c, 0, 41, 64
1, 302585, Note_on_c, 0, 41, 82
1, 302643, Note_off_c, 0, 41, 66
1, 302713, Note_on_c, 0, 41, 90
1, 302982, Note_off_c, 0, 41, 63
1, 303188, Note_off_c, 0, 63, 56
1, 303192, Note_off_c, 0, 72, 58
1, 303200, Note_off_c, 0, 75, 59
1, 303208, Note_off_c, 0, 69, 57
1, 303756, Control_c, 0, 64, 22
1, 303771, Control_c, 0, 64, 23
1, 303816, Control_c, 0, 64, 28
1, 303830, Control_c, 0, 64, 34
1, 303845, Control_c, 0, 64, 37
1, 303860, Control_c, 0, 64, 38
1, 303875, Control_c, 0, 64, 39
1, 303890, Control_c, 0, 64, 40
1, 303904, Control_c, 0, 64, 41
1, 303904, Control_c, 0, 67, 14
1, 303919, Control_c, 0, 64, 43
1, 303919, Control_c, 0, 67, 26
1, 303934, Control_c, 0, 64, 47
1, 303934, Control_c, 0, 67, 38
1, 303948, Control_c, 0, 64, 52
1, 303948, Control_c, 0, 67, 50
1, 303963, Control_c, 0, 64, 55
1, 303963, Control_c, 0, 67, 67
1, 303978, Control_c, 0, 64, 57
1, 303978, Control_c, 0, 67, 81
1, 303993, Control_c, 0, 64, 59
1, 303993, Control_c, 0, 67, 95
1, 304008, Control_c, 0, 64, 60
1, 304008, Control_c, 0, 67, 107
1, 304023, Control_c, 0, 64, 62
1, 304023, Control_c, 0, 67, 120
1, 304038, Control_c, 0, 64, 63
1, 304038, Control_c, 0, 67, 127
1, 304053, Control_c, 0, 64, 65
1, 304067, Control_c, 0, 64, 66
1, 304082, Control_c, 0, 64, 67
1, 304097, Control_c, 0, 64, 68
1, 304112, Control_c, 0, 64, 70
1, 304127, Control_c, 0, 64, 74
1, 304142, Control_c, 0, 64, 78
1, 304165, Control_c, 0, 64, 82
1, 304180, Control_c, 0, 64, 86
1, 304195, Control_c, 0, 64, 90
1, 304209, Control_c, 0, 64, 95
1, 304224, Control_c, 0, 64, 103
1, 304239, Control_c, 0, 64, 118
1, 304253, Control_c, 0, 64, 127
1, 304401, Note_on_c, 0, 72, 44
1, 304602, Note_off_c, 0, 72, 36
1, 304680, Note_on_c, 0, 71, 43
1, 304726, Note_off_c, 0, 71, 53
1, 304738, Note_on_c, 0, 72, 47
1, 304816, Control_c, 0, 64, 101
1, 304831, Control_c, 0, 64, 88
1, 304835, Note_on_c, 0, 71, 50
1, 304845, Control_c, 0, 64, 79
1, 304860, Control_c, 0, 64, 71
1, 304863, Note_off_c, 0, 72, 56
1, 304875, Control_c, 0, 64, 64
1, 304890, Control_c, 0, 64, 56
1, 304913, Control_c, 0, 64, 34
1, 304929, Control_c, 0, 64, 0
1, 305170, Note_on_c, 0, 69, 54
1, 305230, Note_off_c, 0, 71, 57
1, 305299, Control_c, 0, 64, 10
1, 305313, Control_c, 0, 64, 21
1, 305328, Control_c, 0, 64, 26
1, 305343, Control_c, 0, 64, 32
1, 305358, Control_c, 0, 64, 37
1, 305373, Control_c, 0, 64, 42
1, 305388, Control_c, 0, 64, 46
1, 305402, Control_c, 0, 64, 50
1, 305417, Control_c, 0, 64, 53
1, 305432, Control_c, 0, 64, 56
1, 305447, Control_c, 0, 64, 58
1, 305462, Control_c, 0, 64, 60
1, 305476, Control_c, 0, 64, 61
1, 305491, Control_c, 0, 64, 62
1, 305506, Control_c, 0, 64, 63
1, 305520, Control_c, 0, 64, 63
1, 305535, Control_c, 0, 64, 64
1, 305546, Note_on_c, 0, 75, 59
1, 305550, Control_c, 0, 64, 64
1, 305565, Control_c, 0, 64, 65
1, 305580, Control_c, 0, 64, 66
1, 305594, Control_c, 0, 64, 67
1, 305609, Control_c, 0, 64, 69
1, 305624, Control_c, 0, 64, 73
1, 305639, Control_c, 0, 64, 78
1, 305662, Control_c, 0, 64, 83
1, 305676, Control_c, 0, 64, 89
1, 305686, Note_off_c, 0, 69, 54
1, 305691, Control_c, 0, 64, 96
1, 305706, Control_c, 0, 64, 105
1, 305721, Control_c, 0, 64, 125
1, 305737, Control_c, 0, 64, 127
1, 305862, Note_on_c, 0, 48, 58
1, 306020, Note_on_c, 0, 72, 49
1, 306031, Note_off_c, 0, 48, 38
1, 306080, Note_off_c, 0, 75, 55
1, 306093, Note_on_c, 0, 69, 56
1, 306094, Note_off_c, 0, 72, 60
1, 306097, Note_on_c, 0, 47, 52
1, 306122, Note_off_c, 0, 69, 69
1, 306139, Note_off_c, 0, 47, 63
1, 306184, Note_on_c, 0, 48, 50
1, 306225, Control_c, 0, 64, 109
1, 306240, Control_c, 0, 64, 95
1, 306244, Note_on_c, 0, 47, 60
1, 306255, Control_c, 0, 64, 85
1, 306266, Note_on_c, 0, 64, 55
1, 306268, Note_on_c, 0, 60, 54
1, 306269, Note_off_c, 0, 48, 56
1, 306270, Control_c, 0, 64, 75
1, 306276, Note_on_c, 0, 57, 51
1, 306285, Control_c, 0, 64, 68
1, 306299, Control_c, 0, 64, 59
1, 306314, Control_c, 0, 64, 41
1, 306329, Control_c, 0, 64, 0
1, 306574, Note_on_c, 0, 45, 56
1, 306613, Note_off_c, 0, 47, 62
1, 307024, Note_on_c, 0, 52, 58
1, 307067, Note_off_c, 0, 45, 61
1, 307203, Control_c, 0, 64, 48
1, 307213, Note_off_c, 0, 57, 33
1, 307218, Control_c, 0, 64, 60
1, 307233, Control_c, 0, 64, 64
1, 307248, Control_c, 0, 64, 66
1, 307263, Control_c, 0, 64, 68
1, 307278, Control_c, 0, 64, 72
1, 307293, Control_c, 0, 64, 78
1, 307307, Control_c, 0, 64, 84
1, 307323, Control_c, 0, 64, 90
1, 307338, Control_c, 0, 64, 96
1, 307352, Control_c, 0, 64, 100
1, 307354, Note_off_c, 0, 64, 60
1, 307367, Control_c, 0, 64, 105
1, 307382, Control_c, 0, 64, 107
1, 307397, Control_c, 0, 64, 109
1, 307412, Control_c, 0, 64, 110
1, 307451, Note_off_c, 0, 60, 58
1, 307544, Note_on_c, 0, 48, 49
1, 307590, Control_c, 0, 64, 109
1, 307598, Note_on_c, 0, 45, 44
1, 307604, Control_c, 0, 64, 107
1, 307619, Control_c, 0, 64, 103
1, 307634, Control_c, 0, 64, 96
1, 307649, Control_c, 0, 64, 86
1, 307664, Control_c, 0, 64, 78
1, 307678, Control_c, 0, 64, 70
1, 307693, Control_c, 0, 64, 63
1, 307705, Note_on_c, 0, 59, 41
1, 307708, Control_c, 0, 64, 49
1, 307713, Note_on_c, 0, 57, 48
1, 307719, Note_on_c, 0, 64, 41
1, 307722, Note_on_c, 0, 40, 35
1, 307722, Control_c, 0, 64, 0
1, 307726, Note_off_c, 0, 52, 32
1, 307759, Note_off_c, 0, 45, 33
1, 307864, Note_off_c, 0, 48, 9
1, 307937, Control_c, 0, 64, 39
1, 307952, Control_c, 0, 64, 58
1, 307967, Control_c, 0, 64, 64
1, 307982, Control_c, 0, 64, 67
1, 307996, Control_c, 0, 64, 69
1, 308011, Control_c, 0, 64, 72
1, 308026, Control_c, 0, 64, 76
1, 308041, Control_c, 0, 64, 80
1, 308056, Control_c, 0, 64, 84
1, 308071, Control_c, 0, 64, 87
1, 308086, Control_c, 0, 64, 90
1, 308101, Control_c, 0, 64, 92
1, 308101, Note_off_c, 0, 57, 37
1, 308116, Control_c, 0, 64, 94
1, 308131, Control_c, 0, 64, 94
1, 308136, Note_off_c, 0, 40, 36
1, 308146, Control_c, 0, 64, 95
1, 308197, Note_off_c, 0, 64, 40
1, 308258, Note_off_c, 0, 59, 34
1, 308457, Control_c, 0, 64, 94
1, 308487, Control_c, 0, 64, 94
1, 308501, Control_c, 0, 64, 93
1, 308516, Control_c, 0, 64, 93
1, 308531, Control_c, 0, 64, 92
1, 308545, Control_c, 0, 64, 91
1, 308560, Control_c, 0, 64, 89
1, 308575, Control_c, 0, 64, 88
1, 308590, Control_c, 0, 64, 86
1, 308605, Control_c, 0, 64, 84
1, 308619, Control_c, 0, 64, 81
1, 308634, Control_c, 0, 64, 78
1, 308657, Control_c, 0, 64, 74
1, 308672, Control_c, 0, 64, 69
1, 308681, Note_on_c, 0, 64, 27
1, 308687, Note_on_c, 0, 59, 15
1, 308687, Control_c, 0, 64, 65
1, 308691, Note_on_c, 0, 56, 27
1, 308692, Note_on_c, 0, 40, 21
1, 308701, Control_c, 0, 64, 60
1, 308716, Control_c, 0, 64, 51
1, 308731, Control_c, 0, 64, 32
1, 308745, Control_c, 0, 64, 0
1, 309359, Note_off_c, 0, 64, 40
1, 309362, Note_off_c, 0, 56, 41
1, 309366, Note_off_c, 0, 59, 44
1, 309384, Note_off_c, 0, 40, 41
1, 310465, Control_c, 0, 64, 38
1, 310480, Control_c, 0, 64, 57
1, 310495, Control_c, 0, 64, 63
1, 310510, Control_c, 0, 64, 64
1, 310526, Control_c, 0, 64, 65
1, 310540, Control_c, 0, 64, 66
1, 310555, Control_c, 0, 64, 67
1, 310570, Control_c, 0, 64, 69
1, 310585, Control_c, 0, 64, 72
1, 310600, Control_c, 0, 64, 75
1, 310614, Control_c, 0, 64, 77
1, 310629, Control_c, 0, 64, 79
1, 310644, Control_c, 0, 64, 81
1, 310659, Control_c, 0, 64, 82
1, 310674, Control_c, 0, 64, 84
1, 310688, Control_c, 0, 64, 84
1, 310704, Control_c, 0, 64, 85
1, 310708, Note_on_c, 0, 60, 38
1, 310714, Note_on_c, 0, 48, 28
1, 310784, Note_off_c, 0, 48, 37
1, 310839, Note_off_c, 0, 60, 52
1, 310912, Note_on_c, 0, 59, 47
1, 310946, Note_on_c, 0, 47, 26
1, 310948, Control_c, 0, 64, 84
1, 310950, Note_off_c, 0, 59, 48
1, 310963, Control_c, 0, 64, 82
1, 310978, Control_c, 0, 64, 79
1, 310984, Note_on_c, 0, 60, 51
1, 310993, Control_c, 0, 64, 74
1, 311001, Note_off_c, 0, 47, 42
1, 311008, Control_c, 0, 64, 69
1, 311010, Note_on_c, 0, 48, 34
1, 311022, Control_c, 0, 64, 64
1, 311037, Control_c, 0, 64, 57
1, 311046, Note_on_c, 0, 59, 57
1, 311048, Note_off_c, 0, 48, 47
1, 311049, Note_on_c, 0, 47, 41
1, 311052, Note_off_c, 0, 60, 47
1, 311052, Control_c, 0, 64, 36
1, 311067, Control_c, 0, 64, 0
1, 311209, Poly_aftertouch_c, 0, 64, 127
1, 311366, Note_on_c, 0, 57, 57
1, 311386, Note_on_c, 0, 45, 40
1, 311397, Poly_aftertouch_c, 0, 64, 0
1, 311422, Note_off_c, 0, 59, 53
1, 311424, Note_off_c, 0, 47, 45
1, 311600, Note_off_c, 0, 45, 58
1, 311606, Poly_aftertouch_c, 0, 64, 127
1, 311612, Note_on_c, 0, 59, 66
1, 311627, Note_on_c, 0, 47, 43
1, 311656, Note_off_c, 0, 57, 62
1, 311756, Control_c, 0, 64, 20
1, 311770, Control_c, 0, 64, 44
1, 311770, Control_c, 0, 67, 123
1, 311785, Control_c, 0, 64, 56
1, 311785, Control_c, 0, 67, 103
1, 311800, Control_c, 0, 64, 61
1, 311800, Control_c, 0, 67, 83
1, 311815, Control_c, 0, 64, 64
1, 311815, Control_c, 0, 67, 66
1, 311817, Note_off_c, 0, 47, 63
1, 311830, Control_c, 0, 64, 65
1, 311830, Control_c, 0, 67, 52
1, 311845, Control_c, 0, 64, 66
1, 311845, Control_c, 0, 67, 43
1, 311848, Note_on_c, 0, 48, 49
1, 311851, Note_on_c, 0, 60, 60
1, 311851, Note_off_c, 0, 59, 60
1, 311860, Control_c, 0, 64, 67
1, 311860, Control_c, 0, 67, 39
1, 311867, Poly_aftertouch_c, 0, 64, 0
1, 311874, Control_c, 0, 64, 68
1, 311874, Control_c, 0, 67, 36
1, 311889, Control_c, 0, 64, 69
1, 311889, Control_c, 0, 67, 35
1, 311897, Note_off_c, 0, 60, 51
1, 311901, Note_off_c, 0, 48, 50
1, 311904, Control_c, 0, 67, 34
1, 311977, Note_on_c, 0, 59, 51
1, 311991, Note_on_c, 0, 47, 46
1, 311993, Control_c, 0, 64, 68
1, 312008, Control_c, 0, 64, 67
1, 312019, Note_off_c, 0, 47, 54
1, 312023, Control_c, 0, 64, 66
1, 312026, Note_off_c, 0, 59, 57
1, 312037, Note_on_c, 0, 60, 56
1, 312038, Control_c, 0, 64, 65
1, 312047, Note_on_c, 0, 48, 47
1, 312052, Control_c, 0, 64, 62
1, 312061, Poly_aftertouch_c, 0, 64, 127
1, 312067, Control_c, 0, 64, 57
1, 312082, Control_c, 0, 64, 42
1, 312092, Note_off_c, 0, 48, 53
1, 312096, Control_c, 0, 64, 0
1, 312108, Note_on_c, 0, 47, 52
1, 312115, Note_on_c, 0, 59, 55
1, 312141, Note_off_c, 0, 60, 55
1, 312172, Control_c, 0, 67, 34
1, 312284, Poly_aftertouch_c, 0, 64, 0
1, 312305, Control_c, 0, 67, 33
1, 312319, Control_c, 0, 67, 33
1, 312349, Control_c, 0, 67, 32
1, 312353, Note_off_c, 0, 59, 62
1, 312357, Note_off_c, 0, 47, 63
1, 312364, Control_c, 0, 67, 31
1, 312367, Note_on_c, 0, 57, 56
1, 312379, Control_c, 0, 67, 28
1, 312383, Note_on_c, 0, 45, 45
1, 312401, Control_c, 0, 67, 24
1, 312416, Control_c, 0, 67, 20
1, 312431, Control_c, 0, 67, 16
1, 312446, Control_c, 0, 67, 13
1, 312461, Control_c, 0, 67, 10
1, 312475, Control_c, 0, 67, 0
1, 312483, Note_off_c, 0, 57, 60
1, 312486, Note_on_c, 0, 59, 62
1, 312486, Note_off_c, 0, 45, 60
1, 312501, Note_on_c, 0, 47, 53
1, 312578, Note_off_c, 0, 47, 62
1, 312597, Note_on_c, 0, 48, 43
1, 312610, Note_on_c, 0, 60, 64
1, 312649, Note_off_c, 0, 59, 54
1, 312742, Control_c, 0, 64, 43
1, 312757, Control_c, 0, 64, 57
1, 312772, Control_c, 0, 64, 62
1, 312787, Control_c, 0, 64, 64
1, 312801, Control_c, 0, 64, 65
1, 312811, Note_off_c, 0, 48, 59
1, 312816, Control_c, 0, 64, 66
1, 312831, Control_c, 0, 64, 67
1, 312846, Note_off_c, 0, 60, 53
1, 312846, Control_c, 0, 64, 68
1, 312846, Note_on_c, 0, 62, 56
1, 312853, Note_on_c, 0, 50, 34
1, 312861, Control_c, 0, 64, 70
1, 312875, Control_c, 0, 64, 71
1, 312890, Control_c, 0, 64, 71
1, 312907, Note_off_c, 0, 50, 43
1, 312908, Note_off_c, 0, 62, 52
1, 312966, Note_on_c, 0, 60, 60
1, 312971, Note_on_c, 0, 48, 39
1, 312995, Control_c, 0, 64, 71
1, 312999, Note_off_c, 0, 60, 58
1, 313007, Note_off_c, 0, 48, 43
1, 313009, Control_c, 0, 64, 70
1, 313024, Control_c, 0, 64, 68
1, 313028, Note_on_c, 0, 62, 64
1, 313037, Note_on_c, 0, 50, 46
1, 313039, Control_c, 0, 64, 65
1, 313054, Control_c, 0, 64, 61
1, 313069, Control_c, 0, 64, 54
1, 313073, Note_off_c, 0, 50, 62
1, 313083, Control_c, 0, 64, 39
1, 313094, Note_on_c, 0, 60, 69
1, 313098, Control_c, 0, 64, 0
1, 313100, Note_on_c, 0, 48, 49
1, 313132, Note_off_c, 0, 62, 50
1, 313344, Note_on_c, 0, 59, 67
1, 313353, Note_off_c, 0, 60, 56
1, 313356, Note_on_c, 0, 47, 50
1, 313374, Note_off_c, 0, 48, 46
1, 313593, Note_on_c, 0, 60, 66
1, 313614, Note_on_c, 0, 48, 56
1, 313643, Note_off_c, 0, 59, 53
1, 313696, Note_off_c, 0, 47, 39
1, 313744, Control_c, 0, 64, 32
1, 313759, Control_c, 0, 64, 42
1, 313773, Control_c, 0, 64, 48
1, 313788, Control_c, 0, 64, 53
1, 313803, Control_c, 0, 64, 57
1, 313818, Control_c, 0, 64, 61
1, 313820, Note_on_c, 0, 62, 64
1, 313831, Note_off_c, 0, 48, 55
1, 313833, Control_c, 0, 64, 64
1, 313839, Note_off_c, 0, 60, 54
1, 313848, Control_c, 0, 64, 65
1, 313848, Note_on_c, 0, 50, 41
1, 313863, Control_c, 0, 64, 66
1, 313878, Control_c, 0, 64, 67
1, 313878, Note_off_c, 0, 62, 54
1, 313879, Note_off_c, 0, 50, 59
1, 313900, Control_c, 0, 64, 67
1, 313979, Note_on_c, 0, 60, 56
1, 313989, Note_on_c, 0, 48, 56
1, 314003, Control_c, 0, 64, 67
1, 314013, Note_off_c, 0, 48, 57
1, 314018, Note_off_c, 0, 60, 61
1, 314018, Control_c, 0, 64, 66
1, 314033, Note_on_c, 0, 50, 46
1, 314033, Control_c, 0, 64, 65
1, 314038, Note_on_c, 0, 62, 53
1, 314048, Control_c, 0, 64, 65
1, 314062, Note_off_c, 0, 50, 57
1, 314062, Control_c, 0, 64, 63
1, 314077, Control_c, 0, 64, 61
1, 314089, Note_on_c, 0, 60, 63
1, 314092, Control_c, 0, 64, 57
1, 314098, Note_on_c, 0, 48, 68
1, 314107, Control_c, 0, 64, 47
1, 314122, Control_c, 0, 64, 20
1, 314122, Note_off_c, 0, 62, 57
1, 314137, Control_c, 0, 64, 0
1, 314343, Note_off_c, 0, 48, 60
1, 314346, Note_on_c, 0, 59, 58
1, 314352, Note_on_c, 0, 47, 61
1, 314352, Note_off_c, 0, 60, 62
1, 314456, Note_on_c, 0, 60, 72
1, 314465, Note_on_c, 0, 48, 67
1, 314465, Note_off_c, 0, 47, 58
1, 314473, Note_off_c, 0, 59, 56
1, 314569, Note_off_c, 0, 48, 63
1, 314573, Note_on_c, 0, 62, 77
1, 314575, Note_on_c, 0, 50, 68
1, 314674, Note_off_c, 0, 60, 54
1, 314767, Control_c, 0, 64, 51
1, 314782, Control_c, 0, 64, 62
1, 314796, Control_c, 0, 64, 65
1, 314807, Note_off_c, 0, 50, 54
1, 314811, Control_c, 0, 64, 66
1, 314826, Note_off_c, 0, 62, 57
1, 314826, Control_c, 0, 64, 68
1, 314829, Note_on_c, 0, 64, 68
1, 314841, Control_c, 0, 64, 69
1, 314845, Note_on_c, 0, 52, 50
1, 314856, Control_c, 0, 64, 71
1, 314870, Control_c, 0, 64, 72
1, 314896, Note_off_c, 0, 64, 58
1, 314910, Note_off_c, 0, 52, 60
1, 314940, Note_on_c, 0, 62, 66
1, 314942, Note_on_c, 0, 50, 40
1, 314967, Note_off_c, 0, 62, 63
1, 314972, Note_off_c, 0, 50, 50
1, 315009, Note_on_c, 0, 64, 72
1, 315019, Control_c, 0, 64, 71
1, 315020, Note_on_c, 0, 52, 51
1, 315034, Control_c, 0, 64, 70
1, 315049, Control_c, 0, 64, 68
1, 315055, Note_off_c, 0, 52, 54
1, 315060, Note_on_c, 0, 62, 83
1, 315063, Control_c, 0, 64, 66
1, 315067, Note_on_c, 0, 50, 59
1, 315078, Control_c, 0, 64, 63
1, 315093, Control_c, 0, 64, 60
1, 315107, Control_c, 0, 64, 52
1, 315111, Note_off_c, 0, 64, 53
1, 315122, Control_c, 0, 64, 39
1, 315137, Control_c, 0, 64, 18
1, 315152, Control_c, 0, 64, 0
1, 315285, Note_off_c, 0, 50, 65
1, 315290, Note_on_c, 0, 48, 61
1, 315302, Note_on_c, 0, 60, 71
1, 315310, Note_off_c, 0, 62, 60
1, 315411, Note_on_c, 0, 50, 68
1, 315414, Note_on_c, 0, 62, 78
1, 315431, Note_off_c, 0, 48, 45
1, 315454, Note_off_c, 0, 60, 55
1, 315538, Note_on_c, 0, 64, 72
1, 315538, Note_off_c, 0, 50, 63
1, 315541, Note_on_c, 0, 52, 76
1, 315580, Note_off_c, 0, 62, 54
1, 315787, Note_on_c, 0, 65, 69
1, 315790, Note_on_c, 0, 53, 66
1, 315791, Note_off_c, 0, 52, 62
1, 315797, Control_c, 0, 64, 19
1, 315805, Note_off_c, 0, 64, 57
1, 315811, Control_c, 0, 64, 34
1, 315826, Control_c, 0, 64, 50
1, 315841, Control_c, 0, 64, 61
1, 315856, Control_c, 0, 64, 65
1, 315870, Control_c, 0, 64, 69
1, 315885, Control_c, 0, 64, 72
1, 315900, Control_c, 0, 64, 74
1, 315915, Control_c, 0, 64, 76
1, 315929, Control_c, 0, 64, 77
1, 315943, Control_c, 0, 64, 78
1, 315949, Note_off_c, 0, 53, 64
1, 316062, Control_c, 0, 64, 77
1, 316073, Note_on_c, 0, 67, 65
1, 316076, Note_on_c, 0, 55, 60
1, 316077, Control_c, 0, 64, 72
1, 316079, Note_on_c, 0, 43, 55
1, 316092, Control_c, 0, 64, 66
1, 316107, Control_c, 0, 64, 58
1, 316122, Control_c, 0, 64, 15
1, 316145, Control_c, 0, 64, 0
1, 316151, Note_off_c, 0, 65, 37
1, 316174, Control_c, 0, 64, 23
1, 316189, Control_c, 0, 64, 52
1, 316204, Control_c, 0, 64, 63
1, 316219, Control_c, 0, 64, 67
1, 316233, Control_c, 0, 64, 69
1, 316248, Control_c, 0, 64, 71
1, 316250, Note_off_c, 0, 43, 59
1, 316263, Control_c, 0, 64, 72
1, 316265, Note_off_c, 0, 55, 58
1, 316278, Control_c, 0, 64, 73
1, 316292, Control_c, 0, 64, 74
1, 316307, Control_c, 0, 64, 76
1, 316322, Control_c, 0, 64, 76
1, 316352, Control_c, 0, 64, 74
1, 316355, Note_on_c, 0, 65, 73
1, 316366, Note_on_c, 0, 53, 65
1, 316367, Control_c, 0, 64, 69
1, 316370, Note_on_c, 0, 41, 62
1, 316382, Control_c, 0, 64, 61
1, 316396, Control_c, 0, 64, 39
1, 316411, Control_c, 0, 64, 0
1, 316419, Note_off_c, 0, 67, 57
1, 316441, Control_c, 0, 64, 35
1, 316456, Control_c, 0, 64, 55
1, 316471, Control_c, 0, 64, 63
1, 316485, Control_c, 0, 64, 66
1, 316500, Control_c, 0, 64, 67
1, 316510, Note_off_c, 0, 41, 63
1, 316515, Control_c, 0, 64, 68
1, 316521, Note_off_c, 0, 53, 59
1, 316530, Control_c, 0, 64, 70
1, 316545, Control_c, 0, 64, 73
1, 316559, Control_c, 0, 64, 74
1, 316589, Control_c, 0, 64, 71
1, 316604, Note_on_c, 0, 64, 74
1, 316604, Control_c, 0, 64, 65
1, 316612, Note_on_c, 0, 52, 71
1, 316613, Note_on_c, 0, 40, 65
1, 316619, Control_c, 0, 64, 51
1, 316633, Control_c, 0, 64, 0
1, 316678, Control_c, 0, 64, 22
1, 316692, Control_c, 0, 64, 57
1, 316707, Control_c, 0, 64, 65
1, 316710, Poly_aftertouch_c, 0, 67, 127
1, 316722, Control_c, 0, 64, 67
1, 316737, Control_c, 0, 64, 68
1, 316751, Control_c, 0, 64, 70
1, 316766, Control_c, 0, 64, 72
1, 316769, Note_off_c, 0, 40, 63
1, 316771, Note_off_c, 0, 52, 62
1, 316781, Control_c, 0, 64, 76
1, 316796, Control_c, 0, 64, 80
1, 316805, Note_off_c, 0, 65, 19
1, 316811, Control_c, 0, 64, 81
1, 316826, Control_c, 0, 64, 81
1, 316841, Control_c, 0, 64, 77
1, 316856, Control_c, 0, 64, 68
1, 316857, Note_on_c, 0, 62, 63
1, 316864, Note_on_c, 0, 38, 62
1, 316869, Note_on_c, 0, 50, 58
1, 316870, Control_c, 0, 64, 57
1, 316892, Control_c, 0, 64, 24
1, 316908, Control_c, 0, 64, 21
1, 316923, Control_c, 0, 64, 48
1, 316938, Control_c, 0, 64, 61
1, 316942, Note_off_c, 0, 64, 59
1, 316953, Poly_aftertouch_c, 0, 67, 0
1, 316953, Control_c, 0, 64, 65
1, 316968, Control_c, 0, 64, 66
1, 316982, Control_c, 0, 64, 67
1, 316997, Control_c, 0, 64, 69
1, 317009, Note_off_c, 0, 38, 62
1, 317012, Control_c, 0, 64, 71
1, 317017, Note_off_c, 0, 50, 57
1, 317027, Control_c, 0, 64, 76
1, 317042, Control_c, 0, 64, 79
1, 317056, Control_c, 0, 64, 80
1, 317071, Control_c, 0, 64, 80
1, 317086, Control_c, 0, 64, 75
1, 317101, Control_c, 0, 64, 67
1, 317115, Note_on_c, 0, 48, 59
1, 317115, Control_c, 0, 64, 46
1, 317123, Note_on_c, 0, 36, 50
1, 317124, Note_on_c, 0, 60, 55
1, 317130, Control_c, 0, 64, 0
1, 317139, Note_off_c, 0, 62, 60
1, 317175, Control_c, 0, 64, 53
1, 317189, Control_c, 0, 64, 64
1, 317204, Control_c, 0, 64, 67
1, 317219, Control_c, 0, 64, 70
1, 317225, Note_off_c, 0, 48, 60
1, 317234, Control_c, 0, 64, 71
1, 317236, Note_off_c, 0, 36, 54
1, 317249, Control_c, 0, 64, 73
1, 317264, Control_c, 0, 64, 74
1, 317279, Control_c, 0, 64, 75
1, 317294, Control_c, 0, 64, 77
1, 317308, Control_c, 0, 64, 78
1, 317323, Control_c, 0, 64, 77
1, 317338, Control_c, 0, 64, 72
1, 317353, Control_c, 0, 64, 63
1, 317354, Note_off_c, 0, 60, 58
1, 317362, Note_on_c, 0, 58, 55
1, 317368, Control_c, 0, 64, 28
1, 317382, Control_c, 0, 64, 0
1, 317385, Note_on_c, 0, 46, 48
1, 317391, Note_on_c, 0, 34, 47
1, 317427, Control_c, 0, 64, 51
1, 317442, Control_c, 0, 64, 64
1, 317456, Control_c, 0, 64, 66
1, 317471, Control_c, 0, 64, 67
1, 317486, Control_c, 0, 64, 67
1, 317501, Control_c, 0, 64, 68
1, 317508, Note_off_c, 0, 46, 58
1, 317515, Control_c, 0, 64, 70
1, 317530, Control_c, 0, 64, 72
1, 317541, Note_off_c, 0, 34, 34
1, 317545, Control_c, 0, 64, 73
1, 317560, Control_c, 0, 64, 74
1, 317575, Control_c, 0, 64, 75
1, 317589, Control_c, 0, 64, 75
1, 317615, Note_off_c, 0, 58, 36
1, 317619, Control_c, 0, 64, 69
1, 317632, Note_on_c, 0, 45, 49
1, 317638, Note_on_c, 0, 33, 47
1, 317640, Note_on_c, 0, 57, 56
1, 317641, Control_c, 0, 64, 58
1, 317656, Control_c, 0, 64, 0
1, 317671, Control_c, 0, 67, 8
1, 317686, Control_c, 0, 67, 12
1, 317701, Control_c, 0, 67, 18
1, 317717, Control_c, 0, 67, 26
1, 317731, Control_c, 0, 67, 33
1, 317746, Control_c, 0, 64, 46
1, 317746, Control_c, 0, 67, 40
1, 317761, Control_c, 0, 64, 63
1, 317761, Control_c, 0, 67, 47
1, 317765, Note_off_c, 0, 45, 63
1, 317776, Control_c, 0, 64, 69
1, 317776, Control_c, 0, 67, 54
1, 317787, Note_off_c, 0, 33, 58
1, 317791, Control_c, 0, 64, 70
1, 317791, Control_c, 0, 67, 60
1, 317805, Control_c, 0, 67, 66
1, 317820, Control_c, 0, 67, 72
1, 317835, Control_c, 0, 64, 71
1, 317835, Control_c, 0, 67, 78
1, 317850, Control_c, 0, 64, 71
1, 317850, Control_c, 0, 67, 83
1, 317865, Control_c, 0, 64, 72
1, 317865, Control_c, 0, 67, 88
1, 317879, Control_c, 0, 64, 73
1, 317879, Control_c, 0, 67, 92
1, 317894, Control_c, 0, 67, 95
1, 317909, Note_on_c, 0, 31, 48
1, 317909, Control_c, 0, 67, 98
1, 317914, Note_on_c, 0, 55, 49
1, 317917, Note_on_c, 0, 43, 42
1, 317924, Control_c, 0, 67, 99
1, 317929, Note_off_c, 0, 57, 60
1, 317938, Control_c, 0, 67, 100
1, 317953, Control_c, 0, 67, 101
1, 317966, Note_off_c, 0, 43, 60
1, 317968, Note_off_c, 0, 31, 60
1, 317968, Control_c, 0, 67, 101
1, 317983, Control_c, 0, 67, 102
1, 317998, Note_off_c, 0, 55, 63
1, 317998, Control_c, 0, 67, 103
1, 318012, Control_c, 0, 67, 104
1, 318027, Control_c, 0, 67, 105
1, 318042, Control_c, 0, 67, 106
1, 318057, Control_c, 0, 67, 107
1, 318072, Control_c, 0, 67, 108
1, 318087, Control_c, 0, 67, 109
1, 318102, Control_c, 0, 67, 110
1, 318116, Control_c, 0, 67, 111
1, 318131, Control_c, 0, 67, 112
1, 318146, Control_c, 0, 64, 72
1, 318146, Control_c, 0, 67, 114
1, 318161, Control_c, 0, 64, 66
1, 318161, Control_c, 0, 67, 115
1, 318176, Control_c, 0, 64, 47
1, 318176, Control_c, 0, 67, 116
1, 318191, Control_c, 0, 64, 0
1, 318191, Control_c, 0, 67, 117
1, 318196, Note_on_c, 0, 69, 75
1, 318199, Note_on_c, 0, 30, 70
1, 318204, Note_on_c, 0, 63, 63
1, 318205, Control_c, 0, 67, 119
1, 318208, Note_on_c, 0, 60, 63
1, 318220, Control_c, 0, 67, 120
1, 318235, Control_c, 0, 67, 122
1, 318249, Control_c, 0, 67, 123
1, 318264, Control_c, 0, 67, 124
1, 318279, Control_c, 0, 67, 125
1, 318290, Note_off_c, 0, 30, 58
1, 318294, Control_c, 0, 67, 125
1, 318309, Control_c, 0, 67, 126
1, 318313, Note_on_c, 0, 42, 58
1, 318324, Control_c, 0, 67, 127
1, 318338, Note_off_c, 0, 42, 61
1, 318338, Control_c, 0, 67, 127
1, 318419, Note_on_c, 0, 42, 72
1, 318448, Note_off_c, 0, 42, 66
1, 318534, Note_on_c, 0, 42, 60
1, 318569, Note_off_c, 0, 42, 65
1, 318661, Note_on_c, 0, 42, 70
1, 318711, Note_off_c, 0, 42, 61
1, 318787, Note_off_c, 0, 63, 60
1, 318802, Note_off_c, 0, 60, 54
1, 318919, Note_on_c, 0, 42, 46
1, 318921, Note_on_c, 0, 70, 70
1, 318931, Note_on_c, 0, 64, 49
1, 318945, Note_on_c, 0, 61, 51
1, 318947, Note_off_c, 0, 42, 57
1, 318951, Note_off_c, 0, 69, 63
1, 319011, Note_off_c, 0, 64, 63
1, 319065, Note_off_c, 0, 61, 55
1, 319178, Note_on_c, 0, 30, 61
1, 319180, Note_on_c, 0, 69, 82
1, 319190, Note_on_c, 0, 63, 67
1, 319196, Note_on_c, 0, 60, 61
1, 319214, Note_off_c, 0, 70, 60
1, 319229, Note_off_c, 0, 30, 63
1, 319290, Note_on_c, 0, 42, 58
1, 319319, Note_off_c, 0, 42, 62
1, 319413, Note_on_c, 0, 42, 54
1, 319439, Note_off_c, 0, 42, 58
1, 319517, Note_on_c, 0, 42, 59
1, 319534, Note_off_c, 0, 63, 41
1, 319549, Note_off_c, 0, 42, 63
1, 319561, Note_off_c, 0, 60, 55
1, 319639, Note_on_c, 0, 42, 59
1, 319671, Note_off_c, 0, 42, 66
1, 319851, Control_c, 0, 64, 10
1, 319866, Control_c, 0, 64, 31
1, 319881, Note_on_c, 0, 42, 62
1, 319888, Control_c, 0, 64, 44
1, 319892, Note_on_c, 0, 70, 61
1, 319896, Note_off_c, 0, 69, 62
1, 319902, Note_on_c, 0, 64, 45
1, 319902, Control_c, 0, 64, 51
1, 319916, Note_on_c, 0, 61, 50
1, 319917, Note_off_c, 0, 42, 64
1, 319917, Control_c, 0, 64, 55
1, 319932, Control_c, 0, 64, 58
1, 319947, Control_c, 0, 64, 60
1, 319962, Control_c, 0, 64, 61
1, 319977, Control_c, 0, 64, 62
1, 319991, Control_c, 0, 64, 62
1, 320018, Note_off_c, 0, 64, 48
1, 320021, Control_c, 0, 64, 63
1, 320024, Note_off_c, 0, 61, 54
1, 320066, Control_c, 0, 64, 62
1, 320081, Control_c, 0, 64, 61
1, 320096, Control_c, 0, 64, 60
1, 320111, Control_c, 0, 64, 58
1, 320126, Control_c, 0, 64, 54
1, 320140, Control_c, 0, 64, 50
1, 320143, Note_off_c, 0, 70, 58
1, 320145, Note_on_c, 0, 71, 60
1, 320155, Control_c, 0, 64, 49
1, 320161, Note_on_c, 0, 30, 46
1, 320161, Note_on_c, 0, 62, 48
1, 320185, Control_c, 0, 64, 49
1, 320189, Note_on_c, 0, 66, 49
1, 320200, Control_c, 0, 64, 50
1, 320215, Note_off_c, 0, 30, 59
1, 320215, Control_c, 0, 64, 50
1, 320230, Control_c, 0, 64, 51
1, 320230, Control_c, 0, 67, 126
1, 320245, Control_c, 0, 64, 51
1, 320245, Control_c, 0, 67, 125
1, 320248, Note_off_c, 0, 62, 59
1, 320254, Note_on_c, 0, 42, 53
1, 320260, Control_c, 0, 64, 52
1, 320260, Control_c, 0, 67, 121
1, 320275, Control_c, 0, 64, 52
1, 320275, Control_c, 0, 67, 114
1, 320288, Note_off_c, 0, 42, 64
1, 320289, Control_c, 0, 64, 53
1, 320289, Control_c, 0, 67, 105
1, 320304, Control_c, 0, 67, 93
1, 320319, Control_c, 0, 67, 81
1, 320333, Control_c, 0, 67, 67
1, 320348, Control_c, 0, 64, 52
1, 320348, Control_c, 0, 67, 55
1, 320363, Control_c, 0, 64, 52
1, 320363, Control_c, 0, 67, 44
1, 320378, Control_c, 0, 64, 51
1, 320378, Control_c, 0, 67, 35
1, 320380, Note_off_c, 0, 66, 0
1, 320382, Note_on_c, 0, 42, 51
1, 320386, Note_off_c, 0, 71, 59
1, 320388, Note_on_c, 0, 70, 74
1, 320393, Control_c, 0, 67, 26
1, 320399, Note_on_c, 0, 61, 60
1, 320407, Control_c, 0, 67, 17
1, 320409, Note_off_c, 0, 42, 56
1, 320417, Poly_aftertouch_c, 0, 66, 127
1, 320422, Control_c, 0, 67, 9
1, 320438, Control_c, 0, 64, 52
1, 320438, Control_c, 0, 67, 0
1, 320452, Control_c, 0, 64, 53
1, 320467, Control_c, 0, 64, 55
1, 320482, Control_c, 0, 64, 56
1, 320495, Note_on_c, 0, 42, 59
1, 320497, Control_c, 0, 64, 56
1, 320512, Note_off_c, 0, 61, 55
1, 320512, Control_c, 0, 64, 57
1, 320526, Control_c, 0, 64, 57
1, 320527, Note_off_c, 0, 42, 63
1, 320541, Control_c, 0, 64, 58
1, 320556, Control_c, 0, 64, 58
1, 320558, Poly_aftertouch_c, 0, 66, 0
1, 320586, Control_c, 0, 64, 59
1, 320600, Control_c, 0, 64, 58
1, 320615, Control_c, 0, 64, 57
1, 320638, Control_c, 0, 64, 53
1, 320638, Note_on_c, 0, 42, 54
1, 320643, Note_on_c, 0, 71, 80
1, 320652, Control_c, 0, 64, 34
1, 320655, Note_on_c, 0, 66, 20
1, 320665, Note_on_c, 0, 62, 56
1, 320667, Control_c, 0, 64, 0
1, 320699, Note_off_c, 0, 66, 51
1, 320706, Note_off_c, 0, 42, 56
1, 320712, Control_c, 0, 64, 24
1, 320726, Control_c, 0, 64, 50
1, 320741, Control_c, 0, 64, 60
1, 320756, Control_c, 0, 64, 64
1, 320773, Note_off_c, 0, 62, 52
1, 320820, Note_off_c, 0, 70, 12
1, 320830, Control_c, 0, 64, 65
1, 320845, Control_c, 0, 64, 66
1, 320859, Control_c, 0, 64, 68
1, 320866, Note_on_c, 0, 42, 48
1, 320874, Control_c, 0, 64, 71
1, 320877, Note_on_c, 0, 73, 87
1, 320889, Control_c, 0, 64, 76
1, 320892, Note_on_c, 0, 64, 55
1, 320905, Control_c, 0, 64, 80
1, 320907, Note_off_c, 0, 71, 58
1, 320918, Note_on_c, 0, 66, 40
1, 320918, Note_off_c, 0, 42, 63
1, 320920, Control_c, 0, 64, 84
1, 320935, Control_c, 0, 64, 88
1, 320949, Control_c, 0, 64, 92
1, 320964, Control_c, 0, 64, 96
1, 320973, Note_off_c, 0, 66, 59
1, 320979, Control_c, 0, 64, 99
1, 320994, Control_c, 0, 64, 101
1, 321004, Note_off_c, 0, 64, 47
1, 321009, Control_c, 0, 64, 103
1, 321023, Control_c, 0, 64, 104
1, 321025, Note_off_c, 0, 73, 55
1, 321038, Control_c, 0, 64, 104
1, 321088, Note_on_c, 0, 30, 47
1, 321127, Control_c, 0, 64, 104
1, 321142, Control_c, 0, 64, 100
1, 321148, Note_on_c, 0, 71, 89
1, 321157, Control_c, 0, 64, 93
1, 321170, Note_on_c, 0, 66, 64
1, 321172, Control_c, 0, 64, 84
1, 321178, Note_on_c, 0, 62, 57
1, 321187, Control_c, 0, 64, 75
1, 321202, Control_c, 0, 64, 67
1, 321216, Note_off_c, 0, 62, 0
1, 321216, Note_on_c, 0, 62, 22
1, 321217, Control_c, 0, 64, 60
1, 321229, Note_off_c, 0, 30, 48
1, 321231, Control_c, 0, 64, 36
1, 321246, Control_c, 0, 64, 0
1, 321270, Note_on_c, 0, 42, 56
1, 321306, Note_off_c, 0, 42, 64
1, 321404, Note_on_c, 0, 42, 42
1, 321432, Note_off_c, 0, 42, 57
1, 321504, Note_on_c, 0, 42, 56
1, 321530, Note_off_c, 0, 42, 56
1, 321621, Note_on_c, 0, 42, 66
1, 321680, Note_off_c, 0, 42, 58
1, 321787, Control_c, 0, 64, 17
1, 321802, Control_c, 0, 64, 37
1, 321807, Note_off_c, 0, 62, 46
1, 321817, Control_c, 0, 64, 47
1, 321832, Control_c, 0, 64, 54
1, 321846, Control_c, 0, 64, 58
1, 321861, Control_c, 0, 64, 61
1, 321871, Note_on_c, 0, 42, 64
1, 321871, Note_on_c, 0, 73, 86
1, 321876, Control_c, 0, 64, 63
1, 321890, Note_on_c, 0, 64, 60
1, 321891, Control_c, 0, 64, 64
1, 321903, Note_off_c, 0, 71, 59
1, 321904, Note_off_c, 0, 42, 65
1, 321905, Control_c, 0, 64, 66
1, 321920, Control_c, 0, 64, 67
1, 321935, Control_c, 0, 64, 68
1, 321950, Control_c, 0, 64, 69
1, 321953, Note_off_c, 0, 66, 50
1, 321965, Control_c, 0, 64, 69
1, 321992, Note_off_c, 0, 64, 62
1, 322083, Control_c, 0, 64, 70
1, 322140, Note_on_c, 0, 30, 78
1, 322144, Note_on_c, 0, 66, 79
1, 322144, Note_on_c, 0, 71, 82
1, 322147, Note_on_c, 0, 62, 83
1, 322150, Control_c, 0, 64, 69
1, 322165, Control_c, 0, 64, 68
1, 322179, Control_c, 0, 64, 64
1, 322194, Control_c, 0, 64, 56
1, 322209, Control_c, 0, 64, 25
1, 322209, Note_off_c, 0, 73, 37
1, 322224, Control_c, 0, 64, 0
1, 322226, Note_off_c, 0, 30, 63
1, 322254, Note_on_c, 0, 42, 74
1, 322284, Note_off_c, 0, 42, 66
1, 322367, Note_on_c, 0, 42, 73
1, 322400, Note_off_c, 0, 42, 64
1, 322471, Note_on_c, 0, 42, 76
1, 322510, Note_off_c, 0, 42, 62
1, 322591, Note_on_c, 0, 42, 80
1, 322678, Note_off_c, 0, 42, 63
1, 322692, Note_off_c, 0, 62, 57
1, 322773, Control_c, 0, 64, 55
1, 322788, Control_c, 0, 64, 65
1, 322802, Control_c, 0, 64, 70
1, 322817, Control_c, 0, 64, 73
1, 322829, Note_on_c, 0, 73, 88
1, 322832, Control_c, 0, 64, 75
1, 322832, Note_on_c, 0, 64, 77
1, 322836, Note_on_c, 0, 42, 71
1, 322846, Control_c, 0, 64, 77
1, 322850, Note_off_c, 0, 71, 60
1, 322859, Note_off_c, 0, 66, 63
1, 322861, Control_c, 0, 64, 80
1, 322883, Control_c, 0, 64, 82
1, 322898, Control_c, 0, 64, 83
1, 322904, Note_off_c, 0, 73, 65
1, 322906, Note_off_c, 0, 42, 63
1, 322913, Control_c, 0, 64, 83
1, 322919, Note_off_c, 0, 64, 60
1, 322928, Control_c, 0, 64, 84
1, 322943, Control_c, 0, 64, 85
1, 322957, Control_c, 0, 64, 85
1, 322972, Control_c, 0, 64, 86
1, 323002, Control_c, 0, 64, 86
1, 323017, Control_c, 0, 64, 87
1, 323032, Control_c, 0, 64, 88
1, 323061, Control_c, 0, 64, 87
1, 323075, Note_on_c, 0, 74, 87
1, 323076, Control_c, 0, 64, 78
1, 323084, Note_on_c, 0, 66, 83
1, 323091, Control_c, 0, 64, 66
1, 323100, Note_on_c, 0, 30, 66
1, 323106, Control_c, 0, 64, 31
1, 323121, Control_c, 0, 64, 0
1, 323180, Control_c, 0, 64, 53
1, 323195, Control_c, 0, 64, 63
1, 323199, Note_on_c, 0, 42, 75
1, 323201, Note_off_c, 0, 30, 47
1, 323209, Control_c, 0, 64, 67
1, 323216, Note_off_c, 0, 66, 64
1, 323224, Control_c, 0, 64, 70
1, 323239, Control_c, 0, 64, 70
1, 323247, Note_off_c, 0, 42, 61
1, 323268, Control_c, 0, 64, 71
1, 323283, Control_c, 0, 64, 71
1, 323314, Control_c, 0, 64, 71
1, 323325, Note_on_c, 0, 42, 73
1, 323325, Note_on_c, 0, 73, 85
1, 323327, Note_on_c, 0, 64, 86
1, 323329, Control_c, 0, 64, 66
1, 323343, Control_c, 0, 64, 58
1, 323358, Control_c, 0, 64, 36
1, 323373, Note_off_c, 0, 74, 58
1, 323373, Control_c, 0, 64, 0
1, 323388, Note_off_c, 0, 42, 62
1, 323388, Control_c, 0, 64, 12
1, 323403, Control_c, 0, 64, 43
1, 323417, Control_c, 0, 64, 59
1, 323432, Note_off_c, 0, 64, 63
1, 323432, Control_c, 0, 64, 66
1, 323446, Note_on_c, 0, 42, 72
1, 323447, Control_c, 0, 64, 68
1, 323462, Control_c, 0, 64, 68
1, 323488, Note_off_c, 0, 42, 61
1, 323491, Control_c, 0, 64, 70
1, 323506, Control_c, 0, 64, 72
1, 323512, Note_off_c, 0, 73, 40
1, 323521, Control_c, 0, 64, 75
1, 323536, Control_c, 0, 64, 77
1, 323560, Note_on_c, 0, 74, 88
1, 323566, Control_c, 0, 64, 76
1, 323569, Note_on_c, 0, 42, 82
1, 323569, Note_on_c, 0, 66, 94
1, 323580, Control_c, 0, 64, 68
1, 323595, Control_c, 0, 64, 50
1, 323610, Control_c, 0, 64, 0
1, 323662, Control_c, 0, 64, 53
1, 323676, Control_c, 0, 64, 65
1, 323681, Note_off_c, 0, 42, 63
1, 323691, Control_c, 0, 64, 71
1, 323706, Control_c, 0, 64, 75
1, 323715, Note_off_c, 0, 66, 64
1, 323721, Control_c, 0, 64, 76
1, 323750, Note_off_c, 0, 74, 59
1, 323765, Control_c, 0, 64, 76
1, 323780, Control_c, 0, 64, 77
1, 323795, Control_c, 0, 64, 78
1, 323806, Note_on_c, 0, 76, 91
1, 323808, Note_on_c, 0, 42, 81
1, 323809, Note_on_c, 0, 73, 82
1, 323810, Note_on_c, 0, 67, 86
1, 323810, Control_c, 0, 64, 79
1, 323825, Control_c, 0, 64, 80
1, 323840, Control_c, 0, 64, 82
1, 323855, Control_c, 0, 64, 84
1, 323857, Note_off_c, 0, 42, 63
1, 323870, Control_c, 0, 64, 87
1, 323884, Control_c, 0, 64, 90
1, 323899, Control_c, 0, 64, 93
1, 323914, Control_c, 0, 64, 98
1, 323920, Note_off_c, 0, 67, 55
1, 323929, Control_c, 0, 64, 105
1, 323944, Control_c, 0, 64, 115
1, 323958, Control_c, 0, 64, 127
1, 323980, Note_off_c, 0, 76, 57
1, 323988, Note_off_c, 0, 73, 53
1, 324107, Note_on_c, 0, 74, 88
1, 324110, Note_on_c, 0, 71, 84
1, 324111, Note_on_c, 0, 66, 96
1, 324113, Note_on_c, 0, 30, 86
1, 324167, Control_c, 0, 64, 80
1, 324170, Note_on_c, 0, 68, 9
1, 324182, Control_c, 0, 64, 56
1, 324197, Control_c, 0, 64, 0
1, 324209, Note_off_c, 0, 30, 61
1, 324218, Note_off_c, 0, 68, 29
1, 324227, Note_on_c, 0, 42, 77
1, 324260, Note_off_c, 0, 42, 64
1, 324331, Note_on_c, 0, 42, 73
1, 324375, Note_off_c, 0, 42, 62
1, 324439, Note_on_c, 0, 42, 78
1, 324475, Note_off_c, 0, 42, 64
1, 324558, Note_on_c, 0, 42, 85
1, 324618, Control_c, 0, 64, 43
1, 324633, Control_c, 0, 64, 59
1, 324648, Control_c, 0, 64, 61
1, 324658, Note_off_c, 0, 42, 63
1, 324663, Control_c, 0, 64, 61
1, 324678, Control_c, 0, 64, 62
1, 324683, Note_off_c, 0, 71, 44
1, 324692, Control_c, 0, 64, 62
1, 324701, Note_off_c, 0, 66, 56
1, 324716, Note_off_c, 0, 74, 47
1, 324752, Control_c, 0, 64, 63
1, 324767, Control_c, 0, 64, 64
1, 324782, Control_c, 0, 64, 65
1, 324797, Control_c, 0, 64, 66
1, 324803, Note_on_c, 0, 66, 89
1, 324806, Note_on_c, 0, 74, 80
1, 324806, Note_on_c, 0, 71, 74
1, 324809, Note_on_c, 0, 42, 75
1, 324812, Control_c, 0, 64, 67
1, 324826, Control_c, 0, 64, 69
1, 324841, Control_c, 0, 64, 71
1, 324843, Note_off_c, 0, 42, 66
1, 324856, Control_c, 0, 64, 73
1, 324864, Note_off_c, 0, 71, 60
1, 324871, Control_c, 0, 64, 75
1, 324886, Control_c, 0, 64, 76
1, 324901, Control_c, 0, 64, 79
1, 324916, Control_c, 0, 64, 81
1, 324931, Control_c, 0, 64, 84
1, 324946, Control_c, 0, 64, 86
1, 324952, Note_off_c, 0, 66, 63
1, 324961, Control_c, 0, 64, 89
1, 324969, Note_off_c, 0, 74, 52
1, 324976, Control_c, 0, 64, 91
1, 324990, Control_c, 0, 64, 94
1, 325005, Control_c, 0, 64, 97
1, 325020, Control_c, 0, 64, 102
1, 325035, Control_c, 0, 64, 106
1, 325049, Control_c, 0, 64, 107
1, 325050, Note_on_c, 0, 76, 97
1, 325057, Note_on_c, 0, 73, 89
1, 325059, Note_on_c, 0, 70, 88
1, 325062, Note_on_c, 0, 30, 82
1, 325079, Control_c, 0, 64, 106
1, 325094, Control_c, 0, 64, 95
1, 325109, Control_c, 0, 64, 81
1, 325131, Control_c, 0, 64, 67
1, 325137, Note_off_c, 0, 30, 63
1, 325145, Control_c, 0, 64, 48
1, 325160, Control_c, 0, 64, 0
1, 325181, Note_on_c, 0, 42, 76
1, 325214, Note_off_c, 0, 42, 65
1, 325281, Note_on_c, 0, 42, 83
1, 325324, Note_off_c, 0, 42, 62
1, 325383, Note_on_c, 0, 42, 80
1, 325429, Note_off_c, 0, 42, 63
1, 325456, Control_c, 0, 64, 28
1, 325471, Control_c, 0, 64, 54
1, 325486, Control_c, 0, 64, 63
1, 325494, Note_on_c, 0, 42, 86
1, 325501, Control_c, 0, 64, 65
1, 325509, Note_off_c, 0, 76, 63
1, 325515, Control_c, 0, 64, 66
1, 325516, Note_off_c, 0, 70, 61
1, 325530, Note_off_c, 0, 73, 62
1, 325602, Note_off_c, 0, 42, 61
1, 325724, Control_c, 0, 64, 66
1, 325739, Control_c, 0, 64, 67
1, 325753, Control_c, 0, 64, 71
1, 325762, Note_on_c, 0, 70, 94
1, 325762, Note_on_c, 0, 73, 90
1, 325765, Note_on_c, 0, 42, 86
1, 325765, Note_on_c, 0, 76, 94
1, 325768, Control_c, 0, 64, 77
1, 325783, Control_c, 0, 64, 89
1, 325798, Control_c, 0, 64, 110
1, 325805, Note_off_c, 0, 42, 63
1, 325813, Control_c, 0, 64, 127
1, 325853, Note_off_c, 0, 73, 57
1, 325900, Note_off_c, 0, 76, 58
1, 325932, Note_off_c, 0, 70, 57
1, 326096, Note_on_c, 0, 70, 101
1, 326098, Note_on_c, 0, 77, 97
1, 326100, Note_on_c, 0, 73, 86
1, 326102, Note_on_c, 0, 29, 90
1, 326114, Note_on_c, 0, 78, 56
1, 326115, Note_off_c, 0, 78, 127
1, 326160, Control_c, 0, 64, 104
1, 326175, Control_c, 0, 64, 67
1, 326189, Control_c, 0, 64, 0
1, 326224, Note_on_c, 0, 41, 79
1, 326236, Note_off_c, 0, 29, 63
1, 326260, Note_off_c, 0, 41, 66
1, 326329, Note_on_c, 0, 41, 83
1, 326370, Note_off_c, 0, 41, 65
1, 326432, Note_on_c, 0, 41, 85
1, 326487, Note_off_c, 0, 41, 65
1, 326552, Note_on_c, 0, 41, 92
1, 326561, Control_c, 0, 64, 54
1, 326576, Control_c, 0, 64, 61
1, 326606, Control_c, 0, 64, 60
1, 326624, Note_off_c, 0, 77, 52
1, 326636, Note_off_c, 0, 73, 53
1, 326657, Control_c, 0, 64, 60
1, 326663, Note_off_c, 0, 70, 51
1, 326671, Note_off_c, 0, 41, 61
1, 326701, Control_c, 0, 64, 61
1, 326716, Control_c, 0, 64, 62
1, 326731, Control_c, 0, 64, 64
1, 326746, Control_c, 0, 64, 67
1, 326761, Control_c, 0, 64, 71
1, 326776, Control_c, 0, 64, 76
1, 326779, Note_on_c, 0, 70, 94
1, 326782, Note_on_c, 0, 77, 92
1, 326791, Note_on_c, 0, 41, 79
1, 326791, Note_on_c, 0, 73, 72
1, 326791, Control_c, 0, 64, 80
1, 326806, Control_c, 0, 64, 83
1, 326813, Note_off_c, 0, 73, 68
1, 326820, Control_c, 0, 64, 86
1, 326827, Note_off_c, 0, 41, 66
1, 326835, Control_c, 0, 64, 87
1, 326847, Note_off_c, 0, 77, 59
1, 326850, Control_c, 0, 64, 89
1, 326865, Control_c, 0, 64, 90
1, 326874, Note_off_c, 0, 70, 60
1, 326880, Control_c, 0, 64, 91
1, 326894, Control_c, 0, 64, 92
1, 326909, Control_c, 0, 64, 92
1, 326924, Control_c, 0, 64, 93
1, 326939, Control_c, 0, 64, 95
1, 326954, Control_c, 0, 64, 96
1, 326968, Control_c, 0, 64, 98
1, 326983, Control_c, 0, 64, 102
1, 326998, Control_c, 0, 64, 106
1, 327013, Control_c, 0, 64, 109
1, 327027, Control_c, 0, 64, 110
1, 327033, Note_on_c, 0, 81, 94
1, 327038, Note_on_c, 0, 69, 96
1, 327039, Note_on_c, 0, 72, 86
1, 327039, Note_on_c, 0, 75, 87
1, 327046, Note_on_c, 0, 29, 83
1, 327057, Control_c, 0, 64, 110
1, 327072, Control_c, 0, 64, 92
1, 327087, Control_c, 0, 64, 72
1, 327101, Control_c, 0, 64, 36
1, 327116, Control_c, 0, 64, 0
1, 327134, Note_off_c, 0, 29, 61
1, 327161, Note_on_c, 0, 41, 72
1, 327190, Note_off_c, 0, 41, 68
1, 327247, Note_on_c, 0, 41, 86
1, 327295, Note_off_c, 0, 41, 63
1, 327345, Note_on_c, 0, 41, 74
1, 327378, Control_c, 0, 64, 28
1, 327392, Control_c, 0, 64, 31
1, 327407, Control_c, 0, 64, 26
1, 327408, Note_off_c, 0, 41, 65
1, 327422, Control_c, 0, 64, 20
1, 327437, Control_c, 0, 64, 18
1, 327466, Control_c, 0, 64, 17
1, 327479, Note_on_c, 0, 41, 86
1, 327479, Note_off_c, 0, 75, 56
1, 327481, Control_c, 0, 64, 19
1, 327496, Control_c, 0, 64, 23
1, 327511, Control_c, 0, 64, 25
1, 327525, Control_c, 0, 64, 27
1, 327540, Control_c, 0, 64, 33
1, 327549, Note_off_c, 0, 72, 48
1, 327555, Control_c, 0, 64, 41
1, 327570, Control_c, 0, 64, 50
1, 327576, Note_off_c, 0, 41, 63
1, 327585, Control_c, 0, 64, 57
1, 327587, Note_off_c, 0, 81, 45
1, 327587, Note_off_c, 0, 69, 61
1, 327599, Control_c, 0, 64, 60
1, 327614, Control_c, 0, 64, 62
1, 327629, Control_c, 0, 64, 62
1, 327643, Control_c, 0, 64, 63
1, 327658, Control_c, 0, 64, 65
1, 327673, Control_c, 0, 64, 67
1, 327688, Control_c, 0, 64, 69
1, 327703, Control_c, 0, 64, 73
1, 327715, Note_on_c, 0, 41, 56
1, 327718, Control_c, 0, 64, 77
1, 327718, Note_on_c, 0, 69, 97
1, 327721, Note_on_c, 0, 81, 95
1, 327722, Note_on_c, 0, 75, 91
1, 327733, Control_c, 0, 64, 83
1, 327736, Note_on_c, 0, 72, 73
1, 327744, Note_off_c, 0, 41, 63
1, 327748, Control_c, 0, 64, 86
1, 327751, Note_off_c, 0, 72, 69
1, 327758, Note_off_c, 0, 69, 69
1, 327763, Control_c, 0, 64, 87
1, 327778, Control_c, 0, 64, 88
1, 327780, Note_off_c, 0, 81, 61
1, 327792, Control_c, 0, 64, 89
1, 327798, Note_off_c, 0, 75, 64
1, 327807, Control_c, 0, 64, 90
1, 327822, Control_c, 0, 64, 90
1, 327837, Control_c, 0, 64, 92
1, 327851, Control_c, 0, 64, 93
1, 327853, Poly_aftertouch_c, 0, 40, 0
1, 327866, Control_c, 0, 64, 96
1, 327881, Control_c, 0, 64, 102
1, 327896, Control_c, 0, 64, 119
1, 327911, Control_c, 0, 64, 127
1, 327992, Note_on_c, 0, 40, 78
1, 327992, Note_on_c, 0, 84, 99
1, 327993, Note_on_c, 0, 76, 95
1, 327993, Note_on_c, 0, 81, 93
1, 327995, Note_on_c, 0, 72, 93
1, 328029, Control_c, 0, 64, 105
1, 328043, Control_c, 0, 64, 71
1, 328058, Control_c, 0, 64, 37
1, 328073, Control_c, 0, 64, 0
1, 328105, Note_on_c, 0, 52, 82
1, 328128, Note_off_c, 0, 40, 64
1, 328142, Note_off_c, 0, 52, 68
1, 328222, Note_on_c, 0, 52, 82
1, 328251, Note_off_c, 0, 52, 70
1, 328322, Note_on_c, 0, 52, 92
1, 328369, Note_off_c, 0, 52, 67
1, 328442, Note_on_c, 0, 52, 95
1, 328466, Control_c, 0, 64, 57
1, 328481, Control_c, 0, 64, 61
1, 328496, Control_c, 0, 64, 59
1, 328511, Control_c, 0, 64, 58
1, 328522, Note_off_c, 0, 52, 66
1, 328526, Control_c, 0, 64, 58
1, 328541, Control_c, 0, 64, 56
1, 328551, Note_off_c, 0, 76, 53
1, 328551, Note_off_c, 0, 84, 54
1, 328556, Control_c, 0, 64, 55
1, 328566, Note_off_c, 0, 81, 45
1, 328567, Note_off_c, 0, 72, 62
1, 328570, Control_c, 0, 64, 52
1, 328585, Control_c, 0, 64, 46
1, 328600, Control_c, 0, 64, 40
1, 328615, Control_c, 0, 64, 35
1, 328630, Control_c, 0, 64, 37
1, 328645, Control_c, 0, 64, 42
1, 328660, Control_c, 0, 64, 45
1, 328669, Note_on_c, 0, 52, 89
1, 328672, Note_on_c, 0, 76, 89
1, 328672, Control_c, 0, 64, 46
1, 328673, Note_on_c, 0, 72, 91
1, 328674, Note_on_c, 0, 84, 92
1, 328675, Note_on_c, 0, 81, 92
1, 328687, Control_c, 0, 64, 48
1, 328702, Control_c, 0, 64, 51
1, 328713, Note_off_c, 0, 76, 65
1, 328714, Note_off_c, 0, 72, 63
1, 328717, Control_c, 0, 64, 55
1, 328732, Control_c, 0, 64, 58
1, 328735, Note_off_c, 0, 81, 61
1, 328737, Note_off_c, 0, 84, 64
1, 328746, Control_c, 0, 64, 59
1, 328761, Control_c, 0, 64, 61
1, 328776, Control_c, 0, 64, 62
1, 328791, Control_c, 0, 64, 64
1, 328806, Control_c, 0, 64, 65
1, 328821, Control_c, 0, 64, 66
1, 328823, Note_off_c, 0, 52, 34
1, 328836, Control_c, 0, 64, 67
1, 328851, Control_c, 0, 64, 68
1, 328872, Control_c, 0, 64, 70
1, 328888, Control_c, 0, 64, 74
1, 328903, Control_c, 0, 64, 80
1, 328918, Control_c, 0, 64, 84
1, 328931, Note_on_c, 0, 88, 99
1, 328933, Note_on_c, 0, 81, 94
1, 328933, Control_c, 0, 64, 85
1, 328934, Note_on_c, 0, 83, 92
1, 328934, Note_on_c, 0, 76, 99
1, 328938, Note_on_c, 0, 40, 75
1, 328962, Control_c, 0, 64, 84
1, 328977, Control_c, 0, 64, 76
1, 328992, Control_c, 0, 64, 64
1, 329007, Control_c, 0, 64, 0
1, 329057, Note_on_c, 0, 52, 78
1, 329087, Note_off_c, 0, 40, 59
1, 329089, Note_off_c, 0, 52, 67
1, 329160, Note_on_c, 0, 52, 83
1, 329205, Note_off_c, 0, 52, 63
1, 329260, Note_on_c, 0, 52, 78
1, 329313, Note_off_c, 0, 52, 66
1, 329361, Note_on_c, 0, 52, 85
1, 329450, Note_off_c, 0, 52, 65
1, 329477, Note_off_c, 0, 83, 50
1, 329481, Note_off_c, 0, 81, 57
1, 329487, Note_off_c, 0, 76, 61
1, 329515, Note_off_c, 0, 88, 57
1, 329605, Note_on_c, 0, 52, 91
1, 329605, Note_on_c, 0, 76, 86
1, 329606, Note_on_c, 0, 80, 87
1, 329606, Note_on_c, 0, 88, 102
1, 329607, Note_on_c, 0, 83, 84
1, 329635, Note_off_c, 0, 76, 64
1, 329651, Control_c, 0, 64, 23
1, 329657, Note_off_c, 0, 80, 65
1, 329663, Note_off_c, 0, 83, 63
1, 329666, Control_c, 0, 64, 51
1, 329670, Note_off_c, 0, 88, 64
1, 329681, Control_c, 0, 64, 52
1, 329697, Control_c, 0, 64, 50
1, 329726, Control_c, 0, 64, 51
1, 329741, Control_c, 0, 64, 51
1, 329771, Control_c, 0, 64, 52
1, 329785, Control_c, 0, 64, 53
1, 329800, Control_c, 0, 64, 56
1, 329815, Control_c, 0, 64, 59
1, 329830, Control_c, 0, 64, 61
1, 329844, Control_c, 0, 64, 61
1, 329859, Control_c, 0, 64, 62
1, 329897, Note_on_c, 0, 45, 78
1, 329899, Note_on_c, 0, 93, 105
1, 329903, Note_on_c, 0, 84, 96
1, 329903, Note_on_c, 0, 88, 98
1, 329909, Note_off_c, 0, 52, 59
1, 329933, Control_c, 0, 64, 61
1, 329948, Control_c, 0, 64, 60
1, 329963, Control_c, 0, 64, 59
1, 329978, Control_c, 0, 64, 57
1, 329992, Control_c, 0, 64, 55
1, 330007, Control_c, 0, 64, 53
1, 330022, Note_on_c, 0, 52, 82
1, 330022, Control_c, 0, 64, 49
1, 330037, Control_c, 0, 64, 44
1, 330052, Control_c, 0, 64, 37
1, 330061, Note_off_c, 0, 52, 65
1, 330067, Control_c, 0, 64, 30
1, 330082, Control_c, 0, 64, 27
1, 330097, Control_c, 0, 64, 28
1, 330111, Control_c, 0, 64, 30
1, 330123, Note_on_c, 0, 52, 83
1, 330126, Control_c, 0, 64, 31
1, 330141, Control_c, 0, 64, 32
1, 330155, Control_c, 0, 64, 34
1, 330164, Note_off_c, 0, 52, 65
1, 330170, Control_c, 0, 64, 39
1, 330185, Control_c, 0, 64, 45
1, 330200, Control_c, 0, 64, 51
1, 330215, Control_c, 0, 64, 54
1, 330229, Control_c, 0, 64, 56
1, 330235, Note_on_c, 0, 52, 87
1, 330244, Control_c, 0, 64, 58
1, 330259, Control_c, 0, 64, 59
1, 330274, Control_c, 0, 64, 59
1, 330289, Control_c, 0, 64, 57
1, 330294, Note_off_c, 0, 52, 66
1, 330303, Control_c, 0, 64, 53
1, 330318, Control_c, 0, 64, 50
1, 330333, Control_c, 0, 64, 50
1, 330344, Note_on_c, 0, 52, 92
1, 330348, Control_c, 0, 64, 51
1, 330370, Control_c, 0, 64, 51
1, 330385, Control_c, 0, 64, 52
1, 330395, Note_off_c, 0, 52, 68
1, 330398, Note_off_c, 0, 84, 60
1, 330415, Control_c, 0, 64, 51
1, 330420, Note_off_c, 0, 45, 64
1, 330442, Note_off_c, 0, 88, 55
1, 330444, Control_c, 0, 64, 52
1, 330459, Control_c, 0, 64, 53
1, 330460, Note_off_c, 0, 93, 55
1, 330474, Control_c, 0, 64, 54
1, 330505, Control_c, 0, 64, 54
1, 330520, Control_c, 0, 64, 53
1, 330535, Control_c, 0, 64, 50
1, 330549, Control_c, 0, 64, 45
1, 330564, Control_c, 0, 64, 25
1, 330577, Note_on_c, 0, 83, 87
1, 330578, Note_on_c, 0, 92, 104
1, 330579, Control_c, 0, 64, 0
1, 330587, Note_on_c, 0, 52, 86
1, 330592, Note_on_c, 0, 40, 80
1, 330615, Note_off_c, 0, 83, 66
1, 330624, Note_off_c, 0, 40, 67
1, 330632, Note_off_c, 0, 52, 62
1, 330633, Note_off_c, 0, 92, 66
1, 330815, Note_on_c, 0, 93, 104
1, 330818, Note_on_c, 0, 45, 88
1, 330820, Note_on_c, 0, 84, 94
1, 330821, Note_on_c, 0, 52, 82
1, 330821, Note_on_c, 0, 88, 86
1, 330848, Note_off_c, 0, 88, 63
1, 330849, Note_off_c, 0, 45, 67
1, 330856, Note_off_c, 0, 84, 65
1, 330857, Note_off_c, 0, 52, 66
1, 330870, Note_off_c, 0, 93, 59
1, 331043, Note_on_c, 0, 92, 106
1, 331044, Note_on_c, 0, 40, 89
1, 331045, Note_on_c, 0, 52, 90
1, 331047, Note_on_c, 0, 83, 96
1, 331087, Note_off_c, 0, 40, 64
1, 331089, Note_off_c, 0, 83, 64
1, 331089, Note_off_c, 0, 52, 64
1, 331114, Note_off_c, 0, 92, 66
1, 331281, Note_on_c, 0, 93, 103
1, 331286, Note_on_c, 0, 45, 88
1, 331286, Note_on_c, 0, 52, 90
1, 331287, Note_on_c, 0, 88, 94
1, 331288, Note_on_c, 0, 84, 94
1, 331325, Note_off_c, 0, 84, 64
1, 331328, Note_off_c, 0, 88, 62
1, 331329, Note_off_c, 0, 45, 63
1, 331331, Note_off_c, 0, 52, 66
1, 331354, Note_off_c, 0, 93, 59
1, 331513, Note_on_c, 0, 95, 103
1, 331519, Note_on_c, 0, 40, 83
1, 331520, Note_on_c, 0, 52, 88
1, 331522, Note_on_c, 0, 86, 93
1, 331525, Note_on_c, 0, 88, 82
1, 331564, Note_off_c, 0, 40, 64
1, 331567, Note_off_c, 0, 52, 64
1, 331573, Note_off_c, 0, 88, 63
1, 331587, Note_off_c, 0, 86, 53
1, 331607, Note_off_c, 0, 95, 60
1, 331763, Note_on_c, 0, 45, 96
1, 331764, Note_on_c, 0, 93, 106
1, 331769, Note_on_c, 0, 84, 92
1, 331772, Note_on_c, 0, 88, 83
1, 331787, Control_c, 0, 64, 34
1, 331802, Control_c, 0, 64, 50
1, 331817, Control_c, 0, 64, 48
1, 331832, Control_c, 0, 64, 47
1, 331847, Control_c, 0, 64, 47
1, 331869, Control_c, 0, 64, 46
1, 331880, Note_on_c, 0, 52, 82
1, 331883, Control_c, 0, 64, 41
1, 331898, Control_c, 0, 64, 31
1, 331913, Control_c, 0, 64, 10
1, 331915, Note_off_c, 0, 52, 65
1, 331925, Note_off_c, 0, 45, 59
1, 331928, Control_c, 0, 64, 0
1, 331985, Note_on_c, 0, 52, 79
1, 332027, Note_off_c, 0, 52, 63
1, 332088, Note_on_c, 0, 52, 87
1, 332092, Control_c, 0, 64, 15
1, 332107, Control_c, 0, 64, 30
1, 332121, Control_c, 0, 64, 31
1, 332136, Note_off_c, 0, 52, 65
1, 332136, Control_c, 0, 64, 30
1, 332166, Control_c, 0, 64, 27
1, 332180, Control_c, 0, 64, 12
1, 332195, Control_c, 0, 64, 0
1, 332199, Note_on_c, 0, 52, 85
1, 332245, Note_off_c, 0, 52, 66
1, 332309, Note_off_c, 0, 84, 62
1, 332340, Note_off_c, 0, 88, 59
1, 332354, Note_off_c, 0, 93, 55
1, 332434, Note_on_c, 0, 83, 79
1, 332434, Note_on_c, 0, 92, 89
1, 332436, Note_on_c, 0, 52, 79
1, 332445, Note_on_c, 0, 40, 60
1, 332470, Note_off_c, 0, 40, 62
1, 332472, Note_off_c, 0, 52, 61
1, 332488, Note_off_c, 0, 83, 63
1, 332511, Note_off_c, 0, 92, 63
1, 332674, Note_on_c, 0, 93, 92
1, 332676, Note_on_c, 0, 84, 85
1, 332678, Note_on_c, 0, 88, 79
1, 332679, Note_on_c, 0, 45, 81
1, 332682, Note_on_c, 0, 52, 77
1, 332717, Note_off_c, 0, 45, 64
1, 332717, Note_off_c, 0, 52, 64
1, 332726, Note_off_c, 0, 84, 64
1, 332732, Note_off_c, 0, 88, 62
1, 332760, Note_off_c, 0, 93, 59
1, 332905, Note_on_c, 0, 92, 103
1, 332907, Note_on_c, 0, 83, 90
1, 332913, Note_on_c, 0, 40, 85
1, 332914, Note_on_c, 0, 52, 93
1, 332957, Note_off_c, 0, 40, 64
1, 332961, Note_off_c, 0, 52, 65
1, 332961, Note_off_c, 0, 83, 60
1, 332997, Note_off_c, 0, 92, 64
1, 333128, Note_on_c, 0, 93, 97
1, 333132, Note_on_c, 0, 84, 91
1, 333133, Note_on_c, 0, 45, 85
1, 333134, Note_on_c, 0, 88, 87
1, 333135, Note_on_c, 0, 52, 91
1, 333182, Note_off_c, 0, 88, 63
1, 333183, Note_off_c, 0, 84, 61
1, 333185, Note_off_c, 0, 52, 64
1, 333188, Note_off_c, 0, 45, 64
1, 333243, Note_off_c, 0, 93, 58
1, 333363, Note_on_c, 0, 95, 101
1, 333367, Note_on_c, 0, 52, 92
1, 333367, Note_on_c, 0, 86, 90
1, 333368, Note_on_c, 0, 40, 87
1, 333374, Note_on_c, 0, 88, 83
1, 333430, Note_off_c, 0, 40, 65
1, 333431, Note_off_c, 0, 88, 60
1, 333435, Note_off_c, 0, 86, 55
1, 333456, Note_off_c, 0, 52, 57
1, 333471, Note_off_c, 0, 95, 62
1, 333590, Note_on_c, 0, 45, 83
1, 333595, Note_on_c, 0, 52, 88
1, 333598, Note_on_c, 0, 93, 100
1, 333599, Note_on_c, 0, 88, 95
1, 333599, Note_on_c, 0, 84, 90
1, 333650, Note_off_c, 0, 88, 64
1, 333653, Note_off_c, 0, 84, 64
1, 333692, Note_off_c, 0, 45, 62
1, 333692, Note_off_c, 0, 93, 61
1, 333696, Note_off_c, 0, 52, 63
1, 333820, Note_on_c, 0, 95, 101
1, 333822, Note_on_c, 0, 52, 92
1, 333826, Note_on_c, 0, 40, 84
1, 333826, Note_on_c, 0, 88, 94
1, 333827, Note_on_c, 0, 92, 99
1, 333930, Note_off_c, 0, 88, 63
1, 333933, Note_off_c, 0, 40, 62
1, 333936, Note_off_c, 0, 92, 65
1, 333957, Note_off_c, 0, 95, 63
1, 333962, Note_off_c, 0, 52, 56
1, 334055, Note_on_c, 0, 96, 98
1, 334058, Note_on_c, 0, 88, 97
1, 334058, Note_on_c, 0, 93, 96
1, 334061, Note_on_c, 0, 52, 89
1, 334062, Note_on_c, 0, 45, 82
1, 334115, Control_c, 0, 64, 8
1, 334130, Control_c, 0, 64, 12
1, 334145, Control_c, 0, 64, 17
1, 334160, Control_c, 0, 64, 20
1, 334175, Control_c, 0, 64, 22
1, 334189, Control_c, 0, 64, 23
1, 334192, Note_off_c, 0, 88, 63
1, 334199, Note_off_c, 0, 96, 62
1, 334204, Note_off_c, 0, 52, 64
1, 334204, Control_c, 0, 64, 23
1, 334215, Note_off_c, 0, 93, 59
1, 334219, Control_c, 0, 64, 20
1, 334224, Note_off_c, 0, 45, 63
1, 334234, Control_c, 0, 64, 14
1, 334249, Control_c, 0, 64, 0
1, 334293, Note_on_c, 0, 95, 112
1, 334294, Note_on_c, 0, 40, 82
1, 334295, Note_on_c, 0, 52, 90
1, 334297, Note_on_c, 0, 92, 100
1, 334300, Note_on_c, 0, 88, 98
1, 334407, Note_off_c, 0, 88, 63
1, 334414, Note_off_c, 0, 40, 64
1, 334414, Note_off_c, 0, 92, 66
1, 334425, Note_off_c, 0, 52, 65
1, 334434, Note_off_c, 0, 95, 62
1, 334517, Note_on_c, 0, 96, 105
1, 334520, Note_on_c, 0, 93, 98
1, 334521, Note_on_c, 0, 45, 90
1, 334523, Note_on_c, 0, 88, 100
1, 334524, Note_on_c, 0, 52, 92
1, 334575, Control_c, 0, 64, 26
1, 334590, Control_c, 0, 64, 35
1, 334605, Control_c, 0, 64, 39
1, 334613, Poly_aftertouch_c, 0, 95, 127
1, 334634, Control_c, 0, 64, 40
1, 334649, Control_c, 0, 64, 40
1, 334658, Poly_aftertouch_c, 0, 95, 0
1, 334661, Note_off_c, 0, 88, 63
1, 334664, Control_c, 0, 64, 41
1, 334676, Note_off_c, 0, 52, 60
1, 334678, Note_off_c, 0, 96, 61
1, 334679, Control_c, 0, 64, 40
1, 334690, Note_off_c, 0, 93, 57
1, 334691, Note_off_c, 0, 45, 62
1, 334694, Control_c, 0, 64, 38
1, 334708, Control_c, 0, 64, 27
1, 334723, Control_c, 0, 64, 0
1, 334753, Note_on_c, 0, 95, 99
1, 334756, Note_on_c, 0, 40, 85
1, 334759, Note_on_c, 0, 88, 100
1, 334760, Note_on_c, 0, 52, 94
1, 334762, Note_on_c, 0, 92, 101
1, 334902, Note_off_c, 0, 88, 63
1, 334905, Note_off_c, 0, 40, 64
1, 334907, Note_off_c, 0, 92, 65
1, 334915, Note_off_c, 0, 95, 63
1, 334929, Note_off_c, 0, 52, 62
1, 334994, Note_on_c, 0, 96, 103
1, 334994, Note_on_c, 0, 52, 91
1, 334995, Note_on_c, 0, 45, 88
1, 334997, Note_on_c, 0, 88, 100
1, 334998, Note_on_c, 0, 93, 97
1, 335087, Control_c, 0, 64, 12
1, 335102, Control_c, 0, 64, 14
1, 335116, Control_c, 0, 64, 17
1, 335120, Note_off_c, 0, 88, 61
1, 335129, Note_off_c, 0, 96, 58
1, 335131, Control_c, 0, 64, 19
1, 335140, Note_off_c, 0, 52, 62
1, 335145, Note_off_c, 0, 93, 55
1, 335146, Control_c, 0, 64, 18
1, 335149, Note_off_c, 0, 45, 62
1, 335160, Control_c, 0, 64, 0
1, 335221, Note_on_c, 0, 95, 100
1, 335223, Note_on_c, 0, 40, 85
1, 335223, Note_on_c, 0, 88, 106
1, 335226, Note_on_c, 0, 52, 97
1, 335230, Note_on_c, 0, 92, 97
1, 335309, Note_off_c, 0, 92, 68
1, 335317, Note_off_c, 0, 88, 62
1, 335325, Note_off_c, 0, 95, 62
1, 335359, Note_off_c, 0, 40, 64
1, 335373, Note_off_c, 0, 52, 59
1, 335484, Note_on_c, 0, 93, 105
1, 335487, Control_c, 0, 64, 50
1, 335488, Note_on_c, 0, 84, 100
1, 335488, Note_on_c, 0, 88, 101
1, 335489, Note_on_c, 0, 45, 94
1, 335492, Note_on_c, 0, 52, 93
1, 335502, Control_c, 0, 64, 67
1, 335517, Control_c, 0, 64, 84
1, 335531, Control_c, 0, 64, 127
1, 335640, Note_off_c, 0, 93, 58
1, 335643, Note_on_c, 0, 90, 31
1, 335653, Note_off_c, 0, 45, 64
1, 335665, Note_off_c, 0, 88, 65
1, 335671, Note_off_c, 0, 84, 63
1, 335675, Note_off_c, 0, 52, 66
1, 335683, Note_off_c, 0, 90, 46
1, 335717, Control_c, 0, 64, 76
1, 335731, Control_c, 0, 64, 51
1, 335746, Control_c, 0, 64, 0
1, 335973, Note_on_c, 0, 88, 96
1, 335977, Note_on_c, 0, 76, 100
1, 335977, Note_on_c, 0, 64, 96
1, 335980, Note_on_c, 0, 83, 94
1, 335981, Note_on_c, 0, 56, 83
1, 335981, Note_on_c, 0, 80, 92
1, 335982, Note_on_c, 0, 59, 83
1, 335985, Note_on_c, 0, 52, 88
1, 336013, Control_c, 0, 64, 62
1, 336028, Control_c, 0, 64, 93
1, 336043, Control_c, 0, 64, 127
1, 336127, Note_off_c, 0, 52, 61
1, 336139, Note_off_c, 0, 76, 60
1, 336159, Note_off_c, 0, 88, 58
1, 336173, Note_off_c, 0, 64, 59
1, 336180, Note_off_c, 0, 59, 57
1, 336184, Note_off_c, 0, 80, 58
1, 336191, Control_c, 0, 64, 100
1, 336193, Note_off_c, 0, 83, 52
1, 336196, Note_off_c, 0, 56, 57
1, 336205, Control_c, 0, 64, 68
1, 336220, Control_c, 0, 64, 0
1, 336482, Note_on_c, 0, 64, 97
1, 336483, Note_on_c, 0, 60, 87
1, 336483, Note_on_c, 0, 76, 102
1, 336486, Note_on_c, 0, 88, 101
1, 336487, Note_on_c, 0, 57, 81
1, 336487, Note_on_c, 0, 81, 97
1, 336488, Note_on_c, 0, 84, 93
1, 336489, Note_on_c, 0, 52, 88
1, 336509, Control_c, 0, 64, 51
1, 336524, Control_c, 0, 64, 91
1, 336538, Control_c, 0, 64, 127
1, 336649, Note_off_c, 0, 52, 58
1, 336675, Note_off_c, 0, 84, 58
1, 336676, Note_off_c, 0, 76, 59
1, 336694, Note_off_c, 0, 88, 53
1, 336704, Note_off_c, 0, 64, 55
1, 336705, Note_off_c, 0, 57, 60
1, 336717, Control_c, 0, 64, 66
1, 336719, Note_off_c, 0, 81, 58
1, 336721, Note_off_c, 0, 60, 57
1, 336731, Control_c, 0, 64, 0
1, 336998, Note_on_c, 0, 88, 97
1, 336998, Note_on_c, 0, 76, 97
1, 336999, Note_on_c, 0, 64, 98
1, 337000, Note_on_c, 0, 56, 81
1, 337002, Note_on_c, 0, 59, 84
1, 337003, Note_on_c, 0, 52, 84
1, 337003, Note_on_c, 0, 80, 92
1, 337004, Note_on_c, 0, 83, 89
1, 337028, Control_c, 0, 64, 78
1, 337043, Control_c, 0, 64, 127
1, 337106, Note_off_c, 0, 88, 60
1, 337139, Note_off_c, 0, 64, 61
1, 337140, Note_off_c, 0, 52, 64
1, 337174, Note_off_c, 0, 83, 59
1, 337177, Note_off_c, 0, 59, 58
1, 337200, Note_off_c, 0, 56, 62
1, 337205, Note_off_c, 0, 80, 62
1, 337227, Note_off_c, 0, 76, 64
1, 337258, Control_c, 0, 64, 92
1, 337273, Control_c, 0, 64, 64
1, 337288, Control_c, 0, 64, 0
1, 337655, Note_on_c, 0, 57, 99
1, 337655, Note_on_c, 0, 69, 91
1, 337657, Note_on_c, 0, 45, 99
1, 337659, Note_on_c, 0, 33, 91
1, 337758, Poly_aftertouch_c, 0, 67, 127
1, 337759, Poly_aftertouch_c, 0, 62, 127
1, 338097, Control_c, 0, 64, 61
1, 338112, Control_c, 0, 64, 72
1, 338126, Control_c, 0, 64, 89
1, 338141, Control_c, 0, 64, 127
1, 338160, Poly_aftertouch_c, 0, 67, 0
1, 338306, Note_off_c, 0, 45, 60
1, 338312, Note_off_c, 0, 57, 57
1, 338470, Poly_aftertouch_c, 0, 62, 0
1, 338616, Note_off_c, 0, 33, 60
1, 338631, Note_on_c, 0, 44, 58
1, 338631, Note_on_c, 0, 68, 75
1, 338638, Note_on_c, 0, 56, 60
1, 338638, Control_c, 0, 64, 97
1, 338642, Note_on_c, 0, 32, 53
1, 338645, Note_off_c, 0, 69, 51
1, 338653, Control_c, 0, 64, 68
1, 338668, Control_c, 0, 64, 0
1, 338756, Control_c, 0, 64, 58
1, 338771, Control_c, 0, 64, 68
1, 338786, Control_c, 0, 64, 77
1, 338801, Control_c, 0, 64, 80
1, 338816, Control_c, 0, 64, 81
1, 338831, Control_c, 0, 64, 82
1, 338846, Control_c, 0, 64, 84
1, 338861, Control_c, 0, 64, 87
1, 338875, Control_c, 0, 64, 91
1, 338877, Note_off_c, 0, 56, 60
1, 338890, Control_c, 0, 64, 95
1, 338905, Control_c, 0, 64, 101
1, 338909, Note_off_c, 0, 44, 60
1, 338920, Control_c, 0, 64, 112
1, 338934, Control_c, 0, 64, 127
1, 338957, Note_off_c, 0, 32, 55
1, 338967, Note_on_c, 0, 69, 85
1, 338975, Note_on_c, 0, 33, 59
1, 338977, Note_on_c, 0, 57, 76
1, 338979, Control_c, 0, 64, 125
1, 338982, Note_on_c, 0, 45, 60
1, 338994, Control_c, 0, 64, 88
1, 339008, Control_c, 0, 64, 70
1, 339023, Control_c, 0, 64, 57
1, 339025, Note_off_c, 0, 68, 62
1, 339038, Control_c, 0, 64, 51
1, 339053, Control_c, 0, 64, 58
1, 339068, Control_c, 0, 64, 64
1, 339082, Control_c, 0, 64, 68
1, 339097, Control_c, 0, 64, 72
1, 339112, Control_c, 0, 64, 75
1, 339126, Control_c, 0, 64, 76
1, 339128, Note_off_c, 0, 45, 60
1, 339138, Note_off_c, 0, 57, 61
1, 339141, Control_c, 0, 64, 78
1, 339156, Control_c, 0, 64, 82
1, 339171, Control_c, 0, 64, 88
1, 339186, Control_c, 0, 64, 97
1, 339200, Control_c, 0, 64, 121
1, 339215, Control_c, 0, 64, 127
1, 339239, Note_on_c, 0, 68, 92
1, 339239, Note_on_c, 0, 44, 75
1, 339242, Note_on_c, 0, 56, 86
1, 339245, Note_on_c, 0, 32, 71
1, 339245, Control_c, 0, 64, 111
1, 339260, Control_c, 0, 64, 79
1, 339268, Note_off_c, 0, 33, 57
1, 339276, Control_c, 0, 64, 61
1, 339280, Note_off_c, 0, 69, 62
1, 339290, Control_c, 0, 64, 28
1, 339305, Control_c, 0, 64, 38
1, 339320, Control_c, 0, 64, 58
1, 339335, Control_c, 0, 64, 66
1, 339357, Control_c, 0, 64, 75
1, 339372, Control_c, 0, 64, 86
1, 339387, Control_c, 0, 64, 97
1, 339402, Control_c, 0, 64, 127
1, 339413, Note_off_c, 0, 56, 59
1, 339429, Note_off_c, 0, 44, 61
1, 339472, Note_off_c, 0, 32, 62
1, 339484, Note_on_c, 0, 33, 82
1, 339485, Note_on_c, 0, 69, 90
1, 339489, Note_on_c, 0, 57, 93
1, 339490, Note_on_c, 0, 45, 81
1, 339505, Control_c, 0, 64, 71
1, 339520, Control_c, 0, 64, 0
1, 339523, Note_off_c, 0, 68, 31
1, 339564, Control_c, 0, 64, 48
1, 339579, Control_c, 0, 64, 68
1, 339594, Control_c, 0, 64, 110
1, 339609, Control_c, 0, 64, 127
1, 339645, Note_off_c, 0, 57, 59
1, 339656, Note_off_c, 0, 33, 59
1, 339662, Note_off_c, 0, 45, 62
1, 339667, Note_off_c, 0, 69, 63
1, 339728, Note_on_c, 0, 71, 92
1, 339729, Note_on_c, 0, 59, 90
1, 339731, Note_on_c, 0, 35, 76
1, 339731, Note_on_c, 0, 47, 90
1, 339757, Control_c, 0, 64, 99
1, 339772, Control_c, 0, 64, 53
1, 339787, Control_c, 0, 64, 0
1, 339817, Control_c, 0, 64, 18
1, 339831, Control_c, 0, 64, 65
1, 339846, Control_c, 0, 64, 92
1, 339861, Control_c, 0, 64, 127
1, 339897, Note_off_c, 0, 47, 61
1, 339899, Note_off_c, 0, 59, 62
1, 339903, Note_off_c, 0, 71, 58
1, 339975, Note_off_c, 0, 35, 58
1, 339984, Note_on_c, 0, 33, 83
1, 339984, Note_on_c, 0, 69, 97
1, 339987, Note_on_c, 0, 45, 92
1, 339987, Note_on_c, 0, 57, 91
1, 339994, Control_c, 0, 64, 110
1, 340009, Control_c, 0, 64, 59
1, 340023, Control_c, 0, 64, 0
1, 340069, Control_c, 0, 64, 40
1, 340084, Control_c, 0, 64, 68
1, 340102, Note_off_c, 0, 33, 66
1, 340106, Note_off_c, 0, 69, 64
1, 340107, Control_c, 0, 64, 87
1, 340109, Note_off_c, 0, 57, 61
1, 340113, Note_off_c, 0, 45, 61
1, 340121, Control_c, 0, 64, 127
1, 340243, Note_on_c, 0, 56, 87
1, 340245, Note_on_c, 0, 32, 72
1, 340245, Note_on_c, 0, 44, 81
1, 340246, Note_on_c, 0, 68, 89
1, 340282, Note_off_c, 0, 32, 62
1, 340287, Note_off_c, 0, 56, 65
1, 340294, Note_off_c, 0, 68, 63
1, 340297, Note_off_c, 0, 44, 61
1, 340339, Note_on_c, 0, 69, 91
1, 340339, Note_on_c, 0, 57, 90
1, 340341, Note_on_c, 0, 45, 82
1, 340343, Control_c, 0, 64, 87
1, 340344, Note_on_c, 0, 33, 75
1, 340358, Control_c, 0, 64, 57
1, 340372, Control_c, 0, 64, 0
1, 340382, Note_off_c, 0, 57, 63
1, 340387, Note_off_c, 0, 33, 64
1, 340390, Note_off_c, 0, 45, 65
1, 340397, Note_off_c, 0, 69, 66
1, 340452, Note_on_c, 0, 35, 71
1, 340452, Note_on_c, 0, 47, 92
1, 340457, Note_on_c, 0, 71, 94
1, 340458, Note_on_c, 0, 59, 93
1, 340506, Note_off_c, 0, 59, 66
1, 340512, Note_off_c, 0, 35, 65
1, 340519, Note_off_c, 0, 47, 62
1, 340519, Note_off_c, 0, 71, 62
1, 340757, Note_on_c, 0, 72, 97
1, 340758, Note_on_c, 0, 60, 97
1, 340759, Note_on_c, 0, 48, 96
1, 340762, Note_on_c, 0, 36, 88
1, 340823, Note_off_c, 0, 36, 63
1, 340829, Note_off_c, 0, 48, 57
1, 340851, Note_off_c, 0, 72, 63
1, 340855, Note_off_c, 0, 60, 59
1, 341152, Note_on_c, 0, 69, 96
1, 341153, Note_on_c, 0, 57, 98
1, 341156, Note_on_c, 0, 45, 94
1, 341162, Note_on_c, 0, 33, 84
1, 341535, Control_c, 0, 64, 34
1, 341550, Control_c, 0, 64, 59
1, 341565, Control_c, 0, 64, 66
1, 341580, Control_c, 0, 64, 71
1, 341602, Control_c, 0, 64, 76
1, 341617, Control_c, 0, 64, 79
1, 341632, Control_c, 0, 64, 84
1, 341647, Control_c, 0, 64, 91
1, 341662, Control_c, 0, 64, 102
1, 341678, Control_c, 0, 64, 127
1, 341753, Note_off_c, 0, 45, 60
1, 341785, Note_off_c, 0, 57, 56
1, 341976, Note_off_c, 0, 69, 61
1, 341982, Note_off_c, 0, 33, 63
1, 341988, Note_on_c, 0, 68, 66
1, 341988, Control_c, 0, 64, 81
1, 341993, Note_on_c, 0, 56, 56
1, 341995, Note_on_c, 0, 32, 50
1, 342003, Note_on_c, 0, 44, 46
1, 342003, Control_c, 0, 64, 62
1, 342017, Control_c, 0, 64, 0
1, 342092, Control_c, 0, 64, 39
1, 342107, Control_c, 0, 64, 63
1, 342122, Control_c, 0, 64, 73
1, 342136, Control_c, 0, 64, 79
1, 342151, Control_c, 0, 64, 81
1, 342166, Control_c, 0, 64, 81
1, 342181, Control_c, 0, 64, 84
1, 342196, Note_off_c, 0, 56, 57
1, 342196, Control_c, 0, 64, 88
1, 342210, Control_c, 0, 64, 94
1, 342225, Control_c, 0, 64, 100
1, 342226, Note_off_c, 0, 44, 56
1, 342240, Control_c, 0, 64, 106
1, 342255, Control_c, 0, 64, 115
1, 342263, Note_off_c, 0, 32, 43
1, 342269, Control_c, 0, 64, 121
1, 342284, Control_c, 0, 64, 125
1, 342291, Note_on_c, 0, 69, 70
1, 342293, Note_on_c, 0, 57, 56
1, 342299, Control_c, 0, 64, 119
1, 342301, Note_on_c, 0, 45, 52
1, 342304, Note_on_c, 0, 33, 52
1, 342314, Control_c, 0, 64, 96
1, 342329, Control_c, 0, 64, 75
1, 342351, Control_c, 0, 64, 61
1, 342355, Note_off_c, 0, 68, 29
1, 342366, Control_c, 0, 64, 0
1, 342381, Control_c, 0, 64, 15
1, 342396, Control_c, 0, 64, 48
1, 342411, Control_c, 0, 64, 62
1, 342425, Control_c, 0, 64, 67
1, 342440, Control_c, 0, 64, 73
1, 342455, Control_c, 0, 64, 78
1, 342456, Note_off_c, 0, 45, 58
1, 342466, Note_off_c, 0, 57, 61
1, 342470, Control_c, 0, 64, 82
1, 342485, Control_c, 0, 64, 87
1, 342500, Control_c, 0, 64, 95
1, 342515, Control_c, 0, 64, 110
1, 342530, Control_c, 0, 64, 127
1, 342566, Note_on_c, 0, 44, 72
1, 342569, Note_on_c, 0, 68, 82
1, 342570, Note_on_c, 0, 56, 77
1, 342572, Note_on_c, 0, 32, 63
1, 342574, Control_c, 0, 64, 101
1, 342589, Control_c, 0, 64, 78
1, 342604, Control_c, 0, 64, 67
1, 342612, Note_off_c, 0, 33, 44
1, 342615, Poly_aftertouch_c, 0, 62, 127
1, 342619, Control_c, 0, 64, 63
1, 342634, Control_c, 0, 64, 64
1, 342642, Note_off_c, 0, 69, 34
1, 342648, Control_c, 0, 64, 67
1, 342663, Control_c, 0, 64, 73
1, 342678, Control_c, 0, 64, 81
1, 342692, Control_c, 0, 64, 88
1, 342707, Control_c, 0, 64, 93
1, 342713, Note_off_c, 0, 56, 60
1, 342722, Control_c, 0, 64, 99
1, 342737, Control_c, 0, 64, 118
1, 342752, Control_c, 0, 64, 127
1, 342768, Note_off_c, 0, 44, 60
1, 342795, Note_off_c, 0, 68, 51
1, 342796, Note_off_c, 0, 32, 57
1, 342811, Note_on_c, 0, 33, 82
1, 342816, Note_on_c, 0, 69, 90
1, 342816, Note_on_c, 0, 45, 86
1, 342817, Note_on_c, 0, 57, 88
1, 342826, Control_c, 0, 64, 77
1, 342840, Control_c, 0, 64, 0
1, 342885, Control_c, 0, 64, 40
1, 342888, Poly_aftertouch_c, 0, 68, 0
1, 342899, Control_c, 0, 64, 65
1, 342914, Control_c, 0, 64, 88
1, 342929, Control_c, 0, 64, 127
1, 342965, Note_off_c, 0, 57, 59
1, 342976, Note_off_c, 0, 33, 63
1, 342980, Note_off_c, 0, 45, 63
1, 342986, Note_off_c, 0, 69, 64
1, 342999, Poly_aftertouch_c, 0, 62, 0
1, 343050, Note_on_c, 0, 47, 95
1, 343054, Note_on_c, 0, 71, 93
1, 343056, Note_on_c, 0, 59, 91
1, 343057, Note_on_c, 0, 35, 75
1, 343099, Control_c, 0, 64, 68
1, 343114, Control_c, 0, 64, 0
1, 343159, Control_c, 0, 64, 54
1, 343173, Control_c, 0, 64, 72
1, 343188, Control_c, 0, 64, 127
1, 343231, Note_off_c, 0, 59, 61
1, 343232, Note_off_c, 0, 47, 61
1, 343234, Note_off_c, 0, 71, 59
1, 343292, Note_off_c, 0, 35, 58
1, 343311, Note_on_c, 0, 33, 87
1, 343314, Note_on_c, 0, 45, 89
1, 343315, Note_on_c, 0, 69, 95
1, 343317, Note_on_c, 0, 57, 94
1, 343337, Control_c, 0, 64, 74
1, 343352, Control_c, 0, 64, 0
1, 343411, Control_c, 0, 64, 65
1, 343419, Note_off_c, 0, 69, 66
1, 343422, Note_off_c, 0, 33, 66
1, 343424, Note_off_c, 0, 57, 63
1, 343426, Control_c, 0, 64, 94
1, 343433, Note_off_c, 0, 45, 62
1, 343441, Control_c, 0, 64, 127
1, 343567, Note_on_c, 0, 56, 89
1, 343569, Note_on_c, 0, 44, 81
1, 343570, Note_on_c, 0, 32, 77
1, 343570, Note_on_c, 0, 68, 84
1, 343604, Note_off_c, 0, 32, 64
1, 343610, Note_off_c, 0, 56, 66
1, 343612, Note_off_c, 0, 44, 58
1, 343627, Note_off_c, 0, 68, 60
1, 343669, Note_on_c, 0, 33, 78
1, 343669, Note_on_c, 0, 45, 85
1, 343675, Note_on_c, 0, 69, 91
1, 343685, Note_on_c, 0, 57, 69
1, 343690, Note_on_c, 0, 59, 74
1, 343698, Note_on_c, 0, 35, 42
1, 343712, Note_off_c, 0, 33, 67
1, 343712, Note_off_c, 0, 57, 66
1, 343713, Note_off_c, 0, 59, 69
1, 343720, Note_off_c, 0, 45, 63
1, 343728, Note_off_c, 0, 35, 57
1, 343729, Note_off_c, 0, 69, 66
1, 343752, Control_c, 0, 64, 97
1, 343767, Control_c, 0, 64, 64
1, 343782, Note_on_c, 0, 47, 100
1, 343782, Control_c, 0, 64, 0
1, 343785, Note_on_c, 0, 35, 88
1, 343786, Note_on_c, 0, 59, 89
1, 343787, Note_on_c, 0, 71, 94
1, 343844, Note_off_c, 0, 59, 64
1, 343853, Note_off_c, 0, 71, 61
1, 343862, Note_off_c, 0, 35, 62
1, 343864, Note_off_c, 0, 47, 60
1, 344087, Note_on_c, 0, 60, 96
1, 344088, Note_on_c, 0, 72, 95
1, 344089, Note_on_c, 0, 48, 99
1, 344092, Note_on_c, 0, 36, 92
1, 344143, Note_off_c, 0, 36, 65
1, 344143, Note_off_c, 0, 48, 60
1, 344152, Note_off_c, 0, 72, 64
1, 344203, Note_off_c, 0, 60, 56
1, 344447, Note_on_c, 0, 57, 99
1, 344447, Note_on_c, 0, 69, 91
1, 344450, Note_on_c, 0, 45, 98
1, 344454, Note_on_c, 0, 33, 92
1, 344457, Control_c, 0, 64, 38
1, 344471, Control_c, 0, 64, 72
1, 344486, Control_c, 0, 64, 95
1, 344501, Control_c, 0, 64, 127
1, 344547, Poly_aftertouch_c, 0, 67, 127
1, 344782, Note_off_c, 0, 33, 62
1, 344783, Note_off_c, 0, 69, 61
1, 344799, Note_off_c, 0, 57, 58
1, 344818, Poly_aftertouch_c, 0, 67, 0
1, 344825, Note_off_c, 0, 45, 60
1, 344834, Control_c, 0, 64, 77
1, 344849, Control_c, 0, 64, 0
1, 345517, Note_on_c, 0, 76, 92
1, 345522, Note_on_c, 0, 64, 95
1, 345522, Note_on_c, 0, 68, 99
1, 345523, Note_on_c, 0, 44, 83
1, 345523, Note_on_c, 0, 52, 98
1, 345524, Note_on_c, 0, 40, 89
1, 345524, Note_on_c, 0, 47, 85
1, 345526, Note_on_c, 0, 71, 90
1, 345539, Control_c, 0, 64, 37
1, 345554, Control_c, 0, 64, 63
1, 345563, Note_on_c, 0, 74, 39
1, 345568, Control_c, 0, 64, 73
1, 345583, Control_c, 0, 64, 91
1, 345598, Control_c, 0, 64, 127
1, 345645, Note_off_c, 0, 74, 0
1, 345684, Poly_aftertouch_c, 0, 74, 127
1, 346064, Note_off_c, 0, 64, 62
1, 346072, Note_off_c, 0, 40, 64
1, 346073, Note_off_c, 0, 68, 61
1, 346073, Control_c, 0, 64, 92
1, 346074, Note_off_c, 0, 71, 61
1, 346092, Note_off_c, 0, 52, 59
1, 346095, Note_off_c, 0, 76, 60
1, 346095, Control_c, 0, 64, 59
1, 346101, Note_off_c, 0, 47, 61
1, 346108, Poly_aftertouch_c, 0, 74, 0
1, 346110, Control_c, 0, 64, 0
1, 346119, Note_off_c, 0, 44, 62
1, 346467, Control_c, 0, 64, 23
1, 346482, Control_c, 0, 64, 62
1, 346496, Control_c, 0, 64, 69
1, 346511, Control_c, 0, 64, 76
1, 346526, Control_c, 0, 64, 82
1, 346540, Control_c, 0, 64, 86
1, 346555, Control_c, 0, 64, 92
1, 346570, Control_c, 0, 64, 110
1, 346585, Control_c, 0, 64, 127
1, 346673, Note_on_c, 0, 69, 102
1, 346673, Note_on_c, 0, 81, 94
1, 346676, Note_on_c, 0, 40, 87
1, 346676, Note_on_c, 0, 76, 91
1, 346677, Note_on_c, 0, 45, 92
1, 346679, Note_on_c, 0, 33, 84
1, 346679, Note_on_c, 0, 72, 90
1, 346682, Note_on_c, 0, 36, 82
1, 347607, Note_off_c, 0, 81, 58
1, 347607, Poly_aftertouch_c, 0, 77, 127
1, 347610, Note_off_c, 0, 33, 63
1, 347618, Note_off_c, 0, 69, 61
1, 347623, Control_c, 0, 64, 78
1, 347627, Note_off_c, 0, 45, 61
1, 347631, Note_off_c, 0, 36, 58
1, 347636, Note_off_c, 0, 40, 61
1, 347637, Note_off_c, 0, 72, 61
1, 347637, Note_off_c, 0, 76, 59
1, 347637, Control_c, 0, 64, 53
1, 347639, Poly_aftertouch_c, 0, 77, 0
1, 347652, Control_c, 0, 64, 0
1, 349328, Control_c, 0, 64, 8
1, 349342, Control_c, 0, 64, 19
1, 349357, Control_c, 0, 64, 23
1, 349372, Control_c, 0, 64, 25
1, 349387, Control_c, 0, 64, 27
1, 349402, Control_c, 0, 64, 29
1, 349416, Control_c, 0, 64, 31
1, 349431, Control_c, 0, 64, 32
1, 349446, Control_c, 0, 64, 32
1, 349461, Control_c, 0, 64, 33
1, 349476, Control_c, 0, 64, 34
1, 349490, Control_c, 0, 64, 35
1, 349505, Control_c, 0, 64, 36
1, 349520, Control_c, 0, 64, 37
1, 349535, Control_c, 0, 64, 38
1, 349565, Control_c, 0, 64, 39
1, 349580, Control_c, 0, 64, 39
1, 349595, Control_c, 0, 64, 40
1, 349609, Control_c, 0, 64, 40
1, 349744, Control_c, 0, 64, 41
1, 349758, Control_c, 0, 64, 41
1, 349788, Control_c, 0, 64, 42
1, 349839, Control_c, 0, 64, 42
1, 349869, Control_c, 0, 64, 43
1, 349899, Control_c, 0, 64, 43
1, 349929, Control_c, 0, 64, 44
1, 349958, Control_c, 0, 64, 44
1, 349988, Control_c, 0, 64, 45
1, 350003, Control_c, 0, 64, 45
1, 350032, Control_c, 0, 64, 46
1, 350077, Control_c, 0, 64, 46
1, 350106, Control_c, 0, 64, 47
1, 350121, Control_c, 0, 64, 47
1, 350151, Control_c, 0, 64, 48
1, 350195, Control_c, 0, 64, 48
1, 350358, Control_c, 0, 64, 49
1, 350388, Control_c, 0, 64, 49
1, 350522, Control_c, 0, 64, 50
1, 350633, Control_c, 0, 64, 50
1, 350736, Control_c, 0, 64, 51
1, 350796, Control_c, 0, 64, 51
1, 351018, Control_c, 0, 64, 52
1, 351077, Control_c, 0, 64, 52
1, 351121, Control_c, 0, 64, 53
1, 351166, Control_c, 0, 64, 53
1, 351500, Control_c, 0, 64, 53
1, 351500, Control_c, 0, 67, 11
1, 351515, Control_c, 0, 67, 23
1, 351529, Control_c, 0, 64, 52
1, 351529, Control_c, 0, 67, 35
1, 351544, Control_c, 0, 67, 45
1, 351559, Control_c, 0, 67, 57
1, 351574, Control_c, 0, 64, 52
1, 351574, Control_c, 0, 67, 68
1, 351589, Control_c, 0, 64, 51
1, 351589, Control_c, 0, 67, 80
1, 351604, Control_c, 0, 64, 51
1, 351604, Control_c, 0, 67, 91
1, 351619, Control_c, 0, 64, 50
1, 351619, Control_c, 0, 67, 102
1, 351634, Control_c, 0, 64, 49
1, 351634, Control_c, 0, 67, 112
1, 351649, Control_c, 0, 64, 49
1, 351649, Control_c, 0, 67, 125
1, 351663, Control_c, 0, 64, 48
1, 351663, Control_c, 0, 67, 127
1, 351678, Control_c, 0, 64, 47
1, 351693, Control_c, 0, 64, 45
1, 351708, Control_c, 0, 64, 44
1, 351722, Control_c, 0, 64, 43
1, 351737, Control_c, 0, 64, 42
1, 351752, Control_c, 0, 64, 41
1, 351767, Control_c, 0, 64, 40
1, 351782, Control_c, 0, 64, 38
1, 351797, Control_c, 0, 64, 37
1, 351811, Control_c, 0, 64, 36
1, 351826, Control_c, 0, 64, 36
1, 351841, Control_c, 0, 64, 35
1, 351855, Control_c, 0, 64, 34
1, 351870, Control_c, 0, 64, 33
1, 351885, Control_c, 0, 64, 32
1, 351900, Control_c, 0, 64, 30
1, 351915, Control_c, 0, 64, 26
1, 351929, Control_c, 0, 64, 15
1, 351944, Control_c, 0, 64, 0
1, 352100, Note_on_c, 0, 64, 52
1, 352105, Note_on_c, 0, 60, 38
1, 352106, Note_on_c, 0, 67, 40
1, 352200, Note_off_c, 0, 64, 61
1, 352204, Note_off_c, 0, 67, 60
1, 352208, Note_off_c, 0, 60, 55
1, 352558, Note_on_c, 0, 65, 49
1, 352564, Note_on_c, 0, 67, 53
1, 352576, Note_on_c, 0, 62, 28
1, 352954, Control_c, 0, 64, 14
1, 352969, Control_c, 0, 64, 17
1, 352983, Control_c, 0, 64, 21
1, 352998, Control_c, 0, 64, 27
1, 353013, Control_c, 0, 64, 32
1, 353027, Control_c, 0, 64, 35
1, 353042, Control_c, 0, 64, 36
1, 353047, Note_off_c, 0, 65, 59
1, 353050, Note_off_c, 0, 67, 57
1, 353140, Note_off_c, 0, 62, 41
1, 353146, Control_c, 0, 64, 35
1, 353161, Control_c, 0, 64, 35
1, 353175, Control_c, 0, 64, 34
1, 353190, Control_c, 0, 64, 33
1, 353205, Control_c, 0, 64, 32
1, 353220, Control_c, 0, 64, 31
1, 353234, Control_c, 0, 64, 29
1, 353249, Control_c, 0, 64, 27
1, 353264, Control_c, 0, 64, 26
1, 353279, Control_c, 0, 64, 24
1, 353294, Control_c, 0, 64, 23
1, 353309, Control_c, 0, 64, 20
1, 353324, Control_c, 0, 64, 17
1, 353339, Control_c, 0, 64, 12
1, 353354, Control_c, 0, 64, 8
1, 353368, Control_c, 0, 64, 0
1, 353416, Note_on_c, 0, 62, 52
1, 353423, Note_on_c, 0, 59, 31
1, 353425, Note_on_c, 0, 67, 43
1, 353457, Control_c, 0, 64, 8
1, 353487, Control_c, 0, 64, 10
1, 353519, Note_off_c, 0, 59, 50
1, 353524, Note_off_c, 0, 62, 55
1, 353531, Control_c, 0, 64, 12
1, 353547, Note_off_c, 0, 67, 53
1, 353561, Control_c, 0, 64, 14
1, 353583, Control_c, 0, 64, 15
1, 353613, Control_c, 0, 64, 17
1, 353627, Control_c, 0, 64, 18
1, 353658, Control_c, 0, 64, 19
1, 353673, Control_c, 0, 64, 20
1, 353702, Control_c, 0, 64, 22
1, 353717, Control_c, 0, 64, 23
1, 353732, Control_c, 0, 64, 23
1, 353747, Control_c, 0, 64, 24
1, 353792, Control_c, 0, 64, 25
1, 353806, Control_c, 0, 64, 26
1, 353821, Control_c, 0, 64, 26
1, 353888, Note_on_c, 0, 67, 47
1, 353911, Note_on_c, 0, 64, 41
1, 353914, Note_on_c, 0, 60, 35
1, 353984, Control_c, 0, 64, 26
1, 353998, Control_c, 0, 64, 24
1, 354072, Control_c, 0, 64, 26
1, 354087, Control_c, 0, 64, 27
1, 354102, Control_c, 0, 64, 29
1, 354117, Control_c, 0, 64, 33
1, 354130, Control_c, 0, 64, 39
1, 354145, Control_c, 0, 64, 44
1, 354160, Control_c, 0, 64, 49
1, 354175, Control_c, 0, 64, 54
1, 354190, Control_c, 0, 64, 58
1, 354204, Control_c, 0, 64, 61
1, 354219, Control_c, 0, 64, 64
1, 354234, Control_c, 0, 64, 65
1, 354248, Control_c, 0, 64, 66
1, 354263, Control_c, 0, 64, 66
1, 354278, Control_c, 0, 64, 67
1, 354287, Note_off_c, 0, 64, 61
1, 354335, Note_off_c, 0, 67, 51
1, 354395, Note_off_c, 0, 60, 46
1, 354553, Control_c, 0, 64, 66
1, 354583, Control_c, 0, 64, 65
1, 354598, Control_c, 0, 64, 65
1, 354613, Control_c, 0, 64, 63
1, 354627, Control_c, 0, 64, 60
1, 354642, Control_c, 0, 64, 48
1, 354657, Control_c, 0, 64, 0
1, 354731, Control_c, 0, 64, 47
1, 354733, Note_on_c, 0, 67, 54
1, 354740, Note_on_c, 0, 60, 55
1, 354746, Control_c, 0, 64, 60
1, 354747, Note_on_c, 0, 52, 39
1, 354761, Control_c, 0, 64, 65
1, 354776, Control_c, 0, 64, 67
1, 354791, Control_c, 0, 64, 70
1, 354805, Control_c, 0, 64, 72
1, 354820, Control_c, 0, 64, 76
1, 354835, Control_c, 0, 64, 79
1, 354850, Control_c, 0, 64, 82
1, 354865, Control_c, 0, 64, 84
1, 354880, Control_c, 0, 64, 85
1, 354884, Note_off_c, 0, 52, 65
1, 354895, Control_c, 0, 64, 85
1, 354901, Note_off_c, 0, 60, 58
1, 354925, Control_c, 0, 64, 86
1, 354992, Note_off_c, 0, 67, 35
1, 355031, Note_on_c, 0, 64, 61
1, 355060, Note_off_c, 0, 64, 67
1, 355095, Control_c, 0, 64, 85
1, 355109, Control_c, 0, 64, 81
1, 355124, Control_c, 0, 64, 73
1, 355135, Note_on_c, 0, 64, 67
1, 355135, Note_on_c, 0, 67, 55
1, 355139, Control_c, 0, 64, 65
1, 355145, Note_on_c, 0, 43, 45
1, 355154, Control_c, 0, 64, 53
1, 355160, Note_on_c, 0, 53, 41
1, 355169, Control_c, 0, 64, 0
1, 355244, Control_c, 0, 64, 19
1, 355259, Control_c, 0, 64, 51
1, 355273, Control_c, 0, 64, 62
1, 355288, Control_c, 0, 64, 64
1, 355303, Control_c, 0, 64, 65
1, 355318, Control_c, 0, 64, 66
1, 355328, Note_on_c, 0, 62, 64
1, 355333, Control_c, 0, 64, 67
1, 355348, Control_c, 0, 64, 68
1, 355363, Note_off_c, 0, 53, 54
1, 355363, Control_c, 0, 64, 70
1, 355375, Note_off_c, 0, 67, 46
1, 355377, Control_c, 0, 64, 71
1, 355386, Note_off_c, 0, 43, 40
1, 355404, Note_off_c, 0, 64, 60
1, 355525, Control_c, 0, 64, 70
1, 355540, Control_c, 0, 64, 68
1, 355542, Note_off_c, 0, 62, 52
1, 355548, Note_on_c, 0, 67, 53
1, 355555, Control_c, 0, 64, 65
1, 355569, Control_c, 0, 64, 57
1, 355573, Note_on_c, 0, 60, 46
1, 355574, Note_on_c, 0, 52, 32
1, 355583, Note_on_c, 0, 43, 27
1, 355584, Control_c, 0, 64, 0
1, 355718, Control_c, 0, 64, 36
1, 355732, Control_c, 0, 64, 58
1, 355747, Control_c, 0, 64, 64
1, 355753, Note_off_c, 0, 60, 53
1, 355762, Control_c, 0, 64, 65
1, 355804, Note_off_c, 0, 67, 56
1, 355805, Note_off_c, 0, 43, 45
1, 355867, Note_off_c, 0, 52, 41
1, 355902, Control_c, 0, 64, 64
1, 355917, Control_c, 0, 64, 62
1, 355932, Control_c, 0, 64, 58
1, 355947, Control_c, 0, 64, 31
1, 355962, Control_c, 0, 64, 0
1, 355986, Note_on_c, 0, 67, 47
1, 355989, Note_on_c, 0, 59, 43
1, 356013, Note_on_c, 0, 43, 31
1, 356022, Note_on_c, 0, 50, 28
1, 356126, Control_c, 0, 64, 45
1, 356141, Control_c, 0, 64, 57
1, 356156, Control_c, 0, 64, 59
1, 356171, Control_c, 0, 64, 60
1, 356200, Control_c, 0, 64, 60
1, 356215, Control_c, 0, 64, 61
1, 356240, Note_off_c, 0, 43, 41
1, 356242, Note_off_c, 0, 59, 58
1, 356243, Note_off_c, 0, 67, 37
1, 356255, Note_off_c, 0, 50, 40
1, 356289, Control_c, 0, 64, 60
1, 356304, Control_c, 0, 64, 59
1, 356318, Control_c, 0, 64, 57
1, 356333, Control_c, 0, 64, 51
1, 356348, Control_c, 0, 64, 40
1, 356363, Control_c, 0, 64, 10
1, 356378, Control_c, 0, 64, 0
1, 356438, Note_on_c, 0, 60, 45
1, 356443, Note_on_c, 0, 67, 35
1, 356450, Note_on_c, 0, 52, 32
1, 356457, Note_on_c, 0, 48, 34
1, 356681, Control_c, 0, 64, 38
1, 356696, Control_c, 0, 64, 54
1, 356711, Control_c, 0, 64, 63
1, 356725, Control_c, 0, 64, 65
1, 356740, Control_c, 0, 64, 67
1, 356755, Control_c, 0, 64, 69
1, 356770, Control_c, 0, 64, 71
1, 356785, Control_c, 0, 64, 73
1, 356798, Note_off_c, 0, 48, 52
1, 356800, Control_c, 0, 64, 74
1, 356815, Control_c, 0, 64, 74
1, 356830, Note_off_c, 0, 52, 42
1, 356871, Note_off_c, 0, 67, 52
1, 356996, Note_off_c, 0, 60, 58
1, 357038, Control_c, 0, 64, 74
1, 357067, Control_c, 0, 64, 73
1, 357082, Control_c, 0, 64, 73
1, 357097, Control_c, 0, 64, 72
1, 357112, Control_c, 0, 64, 72
1, 357126, Control_c, 0, 64, 70
1, 357140, Control_c, 0, 64, 67
1, 357155, Control_c, 0, 64, 64
1, 357170, Control_c, 0, 64, 57
1, 357184, Control_c, 0, 64, 32
1, 357199, Control_c, 0, 64, 0
1, 357287, Note_on_c, 0, 64, 55
1, 357291, Note_on_c, 0, 67, 46
1, 357300, Note_on_c, 0, 60, 35
1, 357506, Note_off_c, 0, 64, 62
1, 357511, Note_off_c, 0, 67, 34
1, 357567, Note_off_c, 0, 60, 29
1, 357788, Note_on_c, 0, 67, 61
1, 357825, Note_on_c, 0, 62, 26
1, 358090, Control_c, 0, 64, 14
1, 358105, Control_c, 0, 64, 54
1, 358120, Control_c, 0, 64, 63
1, 358135, Control_c, 0, 64, 65
1, 358150, Control_c, 0, 64, 67
1, 358164, Control_c, 0, 64, 69
1, 358179, Control_c, 0, 64, 71
1, 358194, Control_c, 0, 64, 74
1, 358209, Control_c, 0, 64, 77
1, 358223, Control_c, 0, 64, 79
1, 358238, Control_c, 0, 64, 80
1, 358253, Control_c, 0, 64, 81
1, 358268, Control_c, 0, 64, 82
1, 358283, Control_c, 0, 64, 83
1, 358297, Control_c, 0, 64, 84
1, 358312, Control_c, 0, 64, 84
1, 358327, Control_c, 0, 64, 85
1, 358435, Note_on_c, 0, 65, 50
1, 358490, Note_off_c, 0, 67, 32
1, 358532, Note_off_c, 0, 62, 38
1, 358594, Control_c, 0, 64, 84
1, 358609, Control_c, 0, 64, 83
1, 358624, Control_c, 0, 64, 80
1, 358639, Control_c, 0, 64, 76
1, 358652, Note_on_c, 0, 64, 53
1, 358654, Control_c, 0, 64, 71
1, 358657, Note_on_c, 0, 67, 53
1, 358668, Note_on_c, 0, 59, 39
1, 358669, Control_c, 0, 64, 64
1, 358676, Note_off_c, 0, 65, 31
1, 358684, Control_c, 0, 64, 54
1, 358698, Control_c, 0, 64, 0
1, 358758, Control_c, 0, 64, 8
1, 358772, Control_c, 0, 64, 49
1, 358787, Control_c, 0, 64, 61
1, 358802, Control_c, 0, 64, 64
1, 358824, Control_c, 0, 64, 65
1, 358835, Note_off_c, 0, 67, 50
1, 358839, Control_c, 0, 64, 65
1, 358863, Note_on_c, 0, 62, 64
1, 358877, Note_off_c, 0, 64, 61
1, 358961, Note_off_c, 0, 59, 50
1, 358972, Control_c, 0, 64, 65
1, 358999, Note_off_c, 0, 62, 49
1, 359002, Control_c, 0, 64, 64
1, 359032, Control_c, 0, 64, 64
1, 359061, Control_c, 0, 64, 63
1, 359076, Control_c, 0, 64, 63
1, 359091, Control_c, 0, 64, 62
1, 359106, Control_c, 0, 64, 59
1, 359108, Note_on_c, 0, 65, 57
1, 359114, Note_on_c, 0, 67, 57
1, 359120, Control_c, 0, 64, 53
1, 359131, Note_on_c, 0, 60, 30
1, 359135, Control_c, 0, 64, 43
1, 359150, Control_c, 0, 64, 10
1, 359164, Control_c, 0, 64, 0
1, 359299, Control_c, 0, 64, 22
1, 359314, Control_c, 0, 64, 46
1, 359329, Control_c, 0, 64, 56
1, 359343, Control_c, 0, 64, 61
1, 359358, Control_c, 0, 64, 63
1, 359373, Control_c, 0, 64, 64
1, 359387, Control_c, 0, 64, 64
1, 359402, Control_c, 0, 64, 65
1, 359417, Control_c, 0, 64, 66
1, 359432, Control_c, 0, 64, 68
1, 359447, Control_c, 0, 64, 69
1, 359462, Control_c, 0, 64, 70
1, 359476, Control_c, 0, 64, 71
1, 359491, Control_c, 0, 64, 72
1, 359506, Control_c, 0, 64, 72
1, 359521, Control_c, 0, 64, 73
1, 359682, Note_off_c, 0, 60, 36
1, 359703, Note_on_c, 0, 64, 58
1, 359766, Control_c, 0, 64, 72
1, 359792, Note_off_c, 0, 67, 23
1, 359810, Control_c, 0, 64, 72
1, 359817, Note_off_c, 0, 65, 21
1, 359855, Control_c, 0, 64, 71
1, 359869, Control_c, 0, 64, 69
1, 359884, Control_c, 0, 64, 66
1, 359898, Note_off_c, 0, 64, 37
1, 359899, Control_c, 0, 64, 61
1, 359911, Note_on_c, 0, 67, 53
1, 359914, Control_c, 0, 64, 45
1, 359926, Note_on_c, 0, 62, 56
1, 359929, Control_c, 0, 64, 0
1, 359933, Note_on_c, 0, 52, 43
1, 360002, Control_c, 0, 64, 36
1, 360017, Control_c, 0, 64, 59
1, 360032, Control_c, 0, 64, 64
1, 360048, Control_c, 0, 64, 65
1, 360095, Note_off_c, 0, 67, 46
1, 360110, Note_off_c, 0, 62, 59
1, 360122, Note_on_c, 0, 60, 47
1, 360210, Control_c, 0, 64, 66
1, 360270, Control_c, 0, 64, 64
1, 360284, Control_c, 0, 64, 60
1, 360299, Control_c, 0, 64, 39
1, 360322, Control_c, 0, 64, 0
1, 360327, Note_on_c, 0, 67, 56
1, 360327, Note_off_c, 0, 60, 56
1, 360334, Note_off_c, 0, 52, 35
1, 360341, Note_on_c, 0, 47, 46
1, 360344, Note_on_c, 0, 64, 55
1, 360396, Control_c, 0, 64, 53
1, 360411, Control_c, 0, 64, 63
1, 360425, Control_c, 0, 64, 66
1, 360440, Control_c, 0, 64, 66
1, 360470, Control_c, 0, 64, 67
1, 360485, Control_c, 0, 64, 67
1, 360499, Control_c, 0, 64, 68
1, 360534, Note_off_c, 0, 67, 52
1, 360614, Note_off_c, 0, 64, 58
1, 360620, Note_on_c, 0, 62, 50
1, 360648, Control_c, 0, 64, 67
1, 360663, Control_c, 0, 64, 66
1, 360678, Control_c, 0, 64, 63
1, 360692, Control_c, 0, 64, 53
1, 360707, Control_c, 0, 64, 0
1, 360708, Note_off_c, 0, 47, 56
1, 360735, Note_on_c, 0, 67, 50
1, 360743, Note_on_c, 0, 50, 38
1, 360756, Note_on_c, 0, 59, 44
1, 360758, Note_off_c, 0, 62, 36
1, 360798, Note_off_c, 0, 50, 62
1, 360815, Note_off_c, 0, 67, 58
1, 360828, Note_off_c, 0, 59, 55
1, 361144, Note_on_c, 0, 66, 49
1, 361147, Note_on_c, 0, 60, 45
1, 361154, Note_on_c, 0, 57, 31
1, 361177, Note_on_c, 0, 50, 30
1, 361223, Note_off_c, 0, 50, 56
1, 361231, Note_off_c, 0, 66, 58
1, 361232, Note_off_c, 0, 60, 57
1, 361245, Note_off_c, 0, 57, 55
1, 361588, Note_on_c, 0, 59, 37
1, 361608, Note_on_c, 0, 55, 24
1, 361610, Note_on_c, 0, 67, 22
1, 361620, Note_on_c, 0, 43, 3
1, 361621, Note_on_c, 0, 50, 15
1, 361819, Control_c, 0, 64, 41
1, 361834, Control_c, 0, 64, 58
1, 361849, Control_c, 0, 64, 63
1, 361864, Control_c, 0, 64, 65
1, 361879, Control_c, 0, 64, 66
1, 361894, Control_c, 0, 64, 68
1, 361909, Control_c, 0, 64, 71
1, 361924, Control_c, 0, 64, 73
1, 361938, Control_c, 0, 64, 75
1, 361953, Control_c, 0, 64, 76
1, 361983, Control_c, 0, 64, 76
1, 361998, Note_off_c, 0, 59, 55
1, 362008, Note_off_c, 0, 43, 39
1, 362050, Note_off_c, 0, 67, 52
1, 362057, Control_c, 0, 64, 76
1, 362060, Note_off_c, 0, 50, 40
1, 362071, Control_c, 0, 64, 72
1, 362086, Control_c, 0, 64, 67
1, 362097, Note_off_c, 0, 55, 55
1, 362101, Control_c, 0, 64, 60
1, 362116, Control_c, 0, 64, 38
1, 362131, Control_c, 0, 64, 0
1, 362400, Note_on_c, 0, 76, 64
1, 362429, Note_on_c, 0, 64, 37
1, 362436, Note_on_c, 0, 67, 25
1, 362447, Note_on_c, 0, 60, 21
1, 362483, Note_off_c, 0, 67, 48
1, 362508, Note_off_c, 0, 76, 64
1, 362581, Note_off_c, 0, 60, 35
1, 362602, Note_off_c, 0, 64, 42
1, 362890, Note_on_c, 0, 77, 73
1, 362921, Note_on_c, 0, 65, 29
1, 362925, Note_on_c, 0, 67, 48
1, 362931, Note_on_c, 0, 62, 26
1, 363116, Control_c, 0, 64, 10
1, 363131, Control_c, 0, 64, 32
1, 363146, Control_c, 0, 64, 44
1, 363161, Control_c, 0, 64, 52
1, 363176, Control_c, 0, 64, 57
1, 363191, Control_c, 0, 64, 60
1, 363205, Control_c, 0, 64, 62
1, 363220, Control_c, 0, 64, 63
1, 363235, Control_c, 0, 64, 64
1, 363250, Control_c, 0, 64, 66
1, 363265, Control_c, 0, 64, 69
1, 363280, Control_c, 0, 64, 71
1, 363295, Control_c, 0, 64, 74
1, 363317, Control_c, 0, 64, 76
1, 363332, Control_c, 0, 64, 77
1, 363347, Control_c, 0, 64, 78
1, 363376, Control_c, 0, 64, 79
1, 363387, Note_off_c, 0, 62, 39
1, 363491, Note_off_c, 0, 77, 34
1, 363513, Note_off_c, 0, 67, 34
1, 363543, Note_off_c, 0, 65, 42
1, 363554, Control_c, 0, 64, 78
1, 363569, Control_c, 0, 64, 78
1, 363584, Control_c, 0, 64, 77
1, 363599, Control_c, 0, 64, 74
1, 363614, Control_c, 0, 64, 70
1, 363628, Control_c, 0, 64, 66
1, 363643, Control_c, 0, 64, 61
1, 363658, Control_c, 0, 64, 49
1, 363673, Control_c, 0, 64, 0
1, 363744, Note_on_c, 0, 74, 64
1, 363763, Note_on_c, 0, 62, 32
1, 363774, Note_on_c, 0, 59, 34
1, 363790, Note_on_c, 0, 67, 24
1, 363889, Note_off_c, 0, 67, 39
1, 363903, Note_off_c, 0, 74, 62
1, 363932, Note_off_c, 0, 59, 45
1, 363956, Note_off_c, 0, 62, 43
1, 364192, Note_on_c, 0, 76, 68
1, 364231, Note_on_c, 0, 60, 30
1, 364232, Note_on_c, 0, 67, 34
1, 364239, Note_on_c, 0, 64, 21
1, 364289, Note_off_c, 0, 67, 0
1, 364289, Note_on_c, 0, 67, 4
1, 364407, Control_c, 0, 64, 12
1, 364422, Control_c, 0, 64, 40
1, 364437, Control_c, 0, 64, 52
1, 364452, Control_c, 0, 64, 59
1, 364466, Control_c, 0, 64, 62
1, 364481, Control_c, 0, 64, 63
1, 364496, Control_c, 0, 64, 64
1, 364511, Control_c, 0, 64, 65
1, 364525, Control_c, 0, 64, 67
1, 364540, Control_c, 0, 64, 69
1, 364555, Control_c, 0, 64, 71
1, 364570, Control_c, 0, 64, 73
1, 364584, Control_c, 0, 64, 75
1, 364599, Control_c, 0, 64, 76
1, 364604, Note_off_c, 0, 60, 54
1, 364615, Control_c, 0, 64, 78
1, 364630, Control_c, 0, 64, 79
1, 364645, Control_c, 0, 64, 80
1, 364659, Control_c, 0, 64, 81
1, 364670, Note_off_c, 0, 67, 42
1, 364674, Note_off_c, 0, 76, 63
1, 364674, Control_c, 0, 64, 81
1, 364800, Note_off_c, 0, 64, 40
1, 364979, Control_c, 0, 64, 81
1, 364994, Control_c, 0, 64, 77
1, 365008, Control_c, 0, 64, 70
1, 365023, Control_c, 0, 64, 62
1, 365037, Note_on_c, 0, 79, 67
1, 365038, Control_c, 0, 64, 17
1, 365042, Note_on_c, 0, 60, 39
1, 365045, Note_on_c, 0, 52, 40
1, 365047, Note_on_c, 0, 72, 59
1, 365053, Control_c, 0, 64, 0
1, 365073, Note_on_c, 0, 67, 34
1, 365112, Control_c, 0, 64, 52
1, 365127, Control_c, 0, 64, 65
1, 365141, Control_c, 0, 64, 69
1, 365156, Control_c, 0, 64, 72
1, 365164, Note_off_c, 0, 52, 58
1, 365171, Control_c, 0, 64, 73
1, 365186, Control_c, 0, 64, 73
1, 365189, Note_off_c, 0, 79, 56
1, 365215, Control_c, 0, 64, 74
1, 365243, Note_off_c, 0, 67, 33
1, 365253, Note_off_c, 0, 60, 61
1, 365266, Note_off_c, 0, 72, 48
1, 365325, Note_on_c, 0, 76, 56
1, 365358, Note_off_c, 0, 76, 65
1, 365393, Control_c, 0, 64, 73
1, 365407, Control_c, 0, 64, 71
1, 365422, Control_c, 0, 64, 66
1, 365437, Control_c, 0, 64, 61
1, 365440, Note_on_c, 0, 79, 60
1, 365441, Note_on_c, 0, 76, 68
1, 365444, Note_on_c, 0, 65, 47
1, 365452, Control_c, 0, 64, 43
1, 365467, Note_on_c, 0, 55, 25
1, 365467, Control_c, 0, 64, 0
1, 365489, Note_on_c, 0, 67, 26
1, 365578, Control_c, 0, 64, 28
1, 365593, Control_c, 0, 64, 52
1, 365607, Control_c, 0, 64, 60
1, 365622, Control_c, 0, 64, 62
1, 365638, Control_c, 0, 64, 63
1, 365664, Note_on_c, 0, 74, 58
1, 365668, Control_c, 0, 64, 63
1, 365678, Note_off_c, 0, 65, 52
1, 365689, Note_off_c, 0, 55, 55
1, 365698, Control_c, 0, 64, 64
1, 365712, Note_off_c, 0, 79, 57
1, 365721, Note_off_c, 0, 76, 58
1, 365740, Note_off_c, 0, 67, 43
1, 365772, Note_off_c, 0, 74, 63
1, 365830, Control_c, 0, 64, 63
1, 365845, Control_c, 0, 64, 61
1, 365860, Control_c, 0, 64, 57
1, 365875, Control_c, 0, 64, 44
1, 365882, Note_on_c, 0, 72, 52
1, 365885, Note_on_c, 0, 79, 52
1, 365890, Control_c, 0, 64, 0
1, 365892, Note_on_c, 0, 67, 37
1, 365893, Note_on_c, 0, 64, 38
1, 365900, Note_on_c, 0, 55, 30
1, 366023, Control_c, 0, 64, 47
1, 366037, Control_c, 0, 64, 60
1, 366052, Control_c, 0, 64, 64
1, 366067, Control_c, 0, 64, 65
1, 366082, Control_c, 0, 64, 66
1, 366097, Control_c, 0, 64, 67
1, 366112, Control_c, 0, 64, 67
1, 366127, Control_c, 0, 64, 68
1, 366137, Note_off_c, 0, 55, 41
1, 366140, Note_off_c, 0, 67, 50
1, 366142, Control_c, 0, 64, 68
1, 366148, Note_off_c, 0, 72, 61
1, 366152, Note_off_c, 0, 79, 56
1, 366156, Control_c, 0, 64, 69
1, 366207, Note_off_c, 0, 64, 33
1, 366275, Control_c, 0, 64, 68
1, 366290, Control_c, 0, 64, 65
1, 366293, Note_on_c, 0, 79, 53
1, 366312, Control_c, 0, 64, 58
1, 366315, Note_on_c, 0, 67, 38
1, 366316, Note_on_c, 0, 71, 47
1, 366327, Control_c, 0, 64, 31
1, 366329, Note_on_c, 0, 62, 34
1, 366336, Note_on_c, 0, 55, 26
1, 366342, Control_c, 0, 64, 0
1, 366416, Control_c, 0, 64, 38
1, 366431, Control_c, 0, 64, 58
1, 366446, Control_c, 0, 64, 64
1, 366461, Control_c, 0, 64, 65
1, 366476, Control_c, 0, 64, 65
1, 366505, Control_c, 0, 64, 66
1, 366520, Control_c, 0, 64, 68
1, 366535, Control_c, 0, 64, 68
1, 366549, Note_off_c, 0, 71, 57
1, 366550, Control_c, 0, 64, 69
1, 366562, Note_off_c, 0, 55, 39
1, 366565, Control_c, 0, 64, 69
1, 366565, Note_off_c, 0, 67, 36
1, 366566, Note_off_c, 0, 79, 55
1, 366576, Note_off_c, 0, 62, 41
1, 366713, Control_c, 0, 64, 68
1, 366727, Control_c, 0, 64, 67
1, 366742, Control_c, 0, 64, 66
1, 366747, Note_on_c, 0, 79, 45
1, 366757, Control_c, 0, 64, 63
1, 366758, Note_on_c, 0, 67, 32
1, 366762, Note_on_c, 0, 72, 37
1, 366772, Control_c, 0, 64, 56
1, 366775, Note_on_c, 0, 60, 30
1, 366778, Note_on_c, 0, 64, 32
1, 366786, Control_c, 0, 64, 41
1, 366801, Control_c, 0, 64, 0
1, 367290, Note_off_c, 0, 79, 36
1, 367323, Note_off_c, 0, 60, 56
1, 367360, Note_off_c, 0, 64, 44
1, 367373, Note_off_c, 0, 72, 41
1, 367378, Note_off_c, 0, 67, 37
1, 367447, Control_c, 0, 67, 122
1, 367462, Control_c, 0, 67, 107
1, 367476, Control_c, 0, 67, 92
1, 367491, Control_c, 0, 67, 77
1, 367506, Control_c, 0, 67, 63
1, 367521, Control_c, 0, 67, 51
1, 367535, Control_c, 0, 67, 44
1, 367543, Note_on_c, 0, 76, 69
1, 367550, Control_c, 0, 67, 39
1, 367565, Control_c, 0, 67, 34
1, 367566, Note_on_c, 0, 60, 35
1, 367567, Note_on_c, 0, 64, 30
1, 367567, Note_on_c, 0, 67, 43
1, 367580, Control_c, 0, 67, 29
1, 367595, Control_c, 0, 67, 24
1, 367608, Control_c, 0, 67, 19
1, 367623, Control_c, 0, 67, 13
1, 367638, Control_c, 0, 64, 28
1, 367638, Control_c, 0, 67, 9
1, 367653, Control_c, 0, 64, 50
1, 367653, Control_c, 0, 67, 0
1, 367668, Control_c, 0, 64, 58
1, 367682, Control_c, 0, 64, 62
1, 367694, Note_off_c, 0, 67, 47
1, 367697, Control_c, 0, 64, 64
1, 367712, Control_c, 0, 64, 66
1, 367726, Control_c, 0, 64, 69
1, 367741, Control_c, 0, 64, 72
1, 367756, Control_c, 0, 64, 76
1, 367771, Control_c, 0, 64, 79
1, 367781, Note_off_c, 0, 76, 63
1, 367786, Control_c, 0, 64, 80
1, 367823, Control_c, 0, 64, 81
1, 367859, Note_off_c, 0, 60, 30
1, 367922, Note_off_c, 0, 64, 40
1, 368015, Control_c, 0, 64, 80
1, 368031, Control_c, 0, 64, 80
1, 368046, Control_c, 0, 64, 78
1, 368060, Note_on_c, 0, 79, 67
1, 368061, Control_c, 0, 64, 77
1, 368076, Control_c, 0, 64, 74
1, 368089, Note_on_c, 0, 62, 34
1, 368091, Control_c, 0, 64, 71
1, 368101, Note_on_c, 0, 67, 46
1, 368103, Note_on_c, 0, 65, 32
1, 368105, Control_c, 0, 64, 68
1, 368120, Control_c, 0, 64, 64
1, 368135, Control_c, 0, 64, 60
1, 368149, Control_c, 0, 64, 51
1, 368164, Control_c, 0, 64, 37
1, 368179, Control_c, 0, 64, 0
1, 368327, Control_c, 0, 64, 28
1, 368342, Control_c, 0, 64, 47
1, 368357, Control_c, 0, 64, 58
1, 368372, Control_c, 0, 64, 64
1, 368387, Control_c, 0, 64, 68
1, 368387, Control_c, 0, 67, 20
1, 368402, Control_c, 0, 64, 71
1, 368402, Control_c, 0, 67, 40
1, 368417, Control_c, 0, 64, 74
1, 368417, Control_c, 0, 67, 66
1, 368431, Control_c, 0, 64, 77
1, 368431, Control_c, 0, 67, 90
1, 368446, Control_c, 0, 64, 79
1, 368446, Control_c, 0, 67, 113
1, 368461, Control_c, 0, 64, 80
1, 368461, Control_c, 0, 67, 127
1, 368476, Control_c, 0, 64, 81
1, 368529, Note_off_c, 0, 62, 49
1, 368689, Note_on_c, 0, 77, 56
1, 368690, Note_off_c, 0, 79, 36
1, 368705, Control_c, 0, 64, 80
1, 368739, Note_off_c, 0, 67, 44
1, 368750, Control_c, 0, 64, 80
1, 368750, Note_off_c, 0, 77, 49
1, 368769, Note_off_c, 0, 65, 38
1, 368780, Control_c, 0, 64, 79
1, 368795, Note_on_c, 0, 76, 37
1, 368825, Control_c, 0, 64, 79
1, 368840, Note_off_c, 0, 76, 63
1, 368869, Control_c, 0, 64, 78
1, 368884, Note_on_c, 0, 77, 64
1, 368884, Control_c, 0, 64, 76
1, 368899, Control_c, 0, 64, 73
1, 368914, Control_c, 0, 64, 68
1, 368927, Note_on_c, 0, 67, 39
1, 368928, Note_on_c, 0, 76, 76
1, 368929, Control_c, 0, 64, 62
1, 368938, Note_off_c, 0, 77, 60
1, 368941, Note_on_c, 0, 59, 38
1, 368944, Control_c, 0, 64, 39
1, 368952, Note_on_c, 0, 62, 47
1, 368959, Control_c, 0, 64, 0
1, 368989, Note_off_c, 0, 67, 0
1, 368989, Note_on_c, 0, 67, 9
1, 369106, Control_c, 0, 64, 40
1, 369121, Control_c, 0, 64, 59
1, 369136, Control_c, 0, 64, 64
1, 369151, Control_c, 0, 64, 66
1, 369180, Control_c, 0, 64, 66
1, 369195, Control_c, 0, 64, 67
1, 369210, Control_c, 0, 64, 67
1, 369239, Note_off_c, 0, 76, 54
1, 369285, Note_on_c, 0, 74, 63
1, 369322, Note_off_c, 0, 67, 41
1, 369376, Note_off_c, 0, 62, 43
1, 369380, Control_c, 0, 64, 67
1, 369395, Control_c, 0, 64, 65
1, 369401, Note_on_c, 0, 77, 70
1, 369410, Control_c, 0, 64, 63
1, 369412, Note_on_c, 0, 67, 44
1, 369425, Control_c, 0, 64, 59
1, 369426, Note_on_c, 0, 64, 35
1, 369432, Note_on_c, 0, 60, 30
1, 369436, Note_off_c, 0, 59, 37
1, 369440, Control_c, 0, 64, 50
1, 369443, Note_off_c, 0, 74, 57
1, 369454, Control_c, 0, 64, 21
1, 369469, Control_c, 0, 64, 0
1, 369633, Control_c, 0, 64, 44
1, 369648, Control_c, 0, 64, 59
1, 369663, Control_c, 0, 64, 63
1, 369677, Control_c, 0, 64, 65
1, 369692, Control_c, 0, 64, 66
1, 369707, Control_c, 0, 64, 68
1, 369722, Control_c, 0, 64, 71
1, 369737, Control_c, 0, 64, 74
1, 369752, Control_c, 0, 64, 75
1, 369767, Control_c, 0, 64, 76
1, 369978, Note_off_c, 0, 64, 42
1, 370008, Note_on_c, 0, 76, 64
1, 370058, Note_off_c, 0, 67, 37
1, 370144, Control_c, 0, 64, 76
1, 370159, Control_c, 0, 64, 75
1, 370174, Control_c, 0, 64, 72
1, 370184, Note_off_c, 0, 60, 34
1, 370189, Control_c, 0, 64, 67
1, 370203, Control_c, 0, 64, 60
1, 370218, Control_c, 0, 64, 31
1, 370220, Note_on_c, 0, 64, 56
1, 370227, Note_on_c, 0, 72, 63
1, 370233, Control_c, 0, 64, 0
1, 370248, Note_on_c, 0, 67, 50
1, 370279, Note_off_c, 0, 76, 35
1, 370292, Control_c, 0, 64, 38
1, 370301, Note_off_c, 0, 77, 10
1, 370307, Control_c, 0, 64, 58
1, 370321, Control_c, 0, 64, 64
1, 370336, Control_c, 0, 64, 65
1, 370396, Control_c, 0, 64, 66
1, 370540, Note_on_c, 0, 74, 57
1, 370568, Note_off_c, 0, 72, 34
1, 370574, Control_c, 0, 64, 65
1, 370586, Note_off_c, 0, 67, 36
1, 370589, Control_c, 0, 64, 65
1, 370604, Control_c, 0, 64, 63
1, 370619, Control_c, 0, 64, 59
1, 370625, Note_off_c, 0, 74, 59
1, 370634, Control_c, 0, 64, 49
1, 370636, Note_on_c, 0, 76, 69
1, 370649, Control_c, 0, 64, 10
1, 370650, Note_on_c, 0, 59, 50
1, 370664, Control_c, 0, 64, 0
1, 370741, Note_off_c, 0, 64, 40
1, 370851, Note_on_c, 0, 74, 62
1, 370889, Note_off_c, 0, 76, 53
1, 371036, Note_off_c, 0, 74, 38
1, 371063, Note_on_c, 0, 71, 52
1, 371079, Note_on_c, 0, 62, 40
1, 371084, Note_on_c, 0, 67, 43
1, 371131, Note_off_c, 0, 59, 37
1, 371175, Note_off_c, 0, 62, 60
1, 371227, Note_off_c, 0, 71, 62
1, 371228, Note_off_c, 0, 67, 56
1, 371464, Note_on_c, 0, 78, 52
1, 371475, Note_on_c, 0, 69, 46
1, 371483, Note_on_c, 0, 60, 33
1, 371484, Note_on_c, 0, 50, 35
1, 371490, Note_on_c, 0, 62, 36
1, 371546, Note_off_c, 0, 69, 57
1, 371565, Note_off_c, 0, 50, 57
1, 371585, Note_off_c, 0, 78, 59
1, 371624, Note_off_c, 0, 60, 48
1, 371649, Note_off_c, 0, 62, 44
1, 371919, Note_on_c, 0, 79, 58
1, 371931, Note_on_c, 0, 67, 34
1, 371934, Note_on_c, 0, 55, 34
1, 371940, Note_on_c, 0, 59, 29
1, 371959, Note_on_c, 0, 62, 23
1, 372073, Control_c, 0, 64, 19
1, 372088, Control_c, 0, 64, 45
1, 372102, Control_c, 0, 64, 57
1, 372116, Control_c, 0, 64, 62
1, 372131, Control_c, 0, 64, 64
1, 372146, Control_c, 0, 64, 66
1, 372161, Control_c, 0, 64, 68
1, 372161, Control_c, 0, 67, 99
1, 372176, Control_c, 0, 64, 71
1, 372176, Control_c, 0, 67, 67
1, 372190, Control_c, 0, 64, 73
1, 372190, Control_c, 0, 67, 37
1, 372205, Control_c, 0, 64, 75
1, 372205, Control_c, 0, 67, 11
1, 372220, Control_c, 0, 64, 76
1, 372220, Control_c, 0, 67, 0
1, 372235, Control_c, 0, 64, 76
1, 372250, Control_c, 0, 64, 77
1, 372259, Note_off_c, 0, 79, 58
1, 372265, Control_c, 0, 64, 78
1, 372279, Control_c, 0, 64, 78
1, 372331, Control_c, 0, 64, 79
1, 372379, Note_off_c, 0, 55, 42
1, 372387, Note_off_c, 0, 62, 41
1, 372429, Note_off_c, 0, 67, 36
1, 372455, Note_off_c, 0, 59, 41
1, 372524, Control_c, 0, 64, 78
1, 372539, Control_c, 0, 64, 76
1, 372554, Control_c, 0, 64, 73
1, 372569, Control_c, 0, 64, 69
1, 372584, Control_c, 0, 64, 64
1, 372598, Control_c, 0, 64, 58
1, 372613, Control_c, 0, 64, 47
1, 372628, Control_c, 0, 64, 26
1, 372642, Control_c, 0, 64, 0
1, 372729, Note_on_c, 0, 67, 69
1, 372790, Control_c, 0, 64, 44
1, 372805, Control_c, 0, 64, 58
1, 372821, Control_c, 0, 64, 63
1, 372836, Control_c, 0, 64, 65
1, 372851, Control_c, 0, 64, 67
1, 372866, Control_c, 0, 64, 69
1, 372881, Control_c, 0, 64, 74
1, 372895, Control_c, 0, 64, 77
1, 372910, Control_c, 0, 64, 78
1, 372966, Note_off_c, 0, 67, 59
1, 373077, Note_on_c, 0, 55, 30
1, 373140, Control_c, 0, 64, 77
1, 373154, Control_c, 0, 64, 77
1, 373169, Control_c, 0, 64, 75
1, 373184, Control_c, 0, 64, 74
1, 373199, Control_c, 0, 64, 72
1, 373210, Note_on_c, 0, 67, 60
1, 373214, Control_c, 0, 64, 71
1, 373225, Note_on_c, 0, 69, 55
1, 373228, Control_c, 0, 64, 69
1, 373243, Control_c, 0, 64, 67
1, 373258, Control_c, 0, 64, 64
1, 373272, Control_c, 0, 64, 62
1, 373287, Control_c, 0, 64, 58
1, 373302, Control_c, 0, 64, 51
1, 373317, Control_c, 0, 64, 42
1, 373332, Control_c, 0, 64, 34
1, 373347, Control_c, 0, 64, 34
1, 373362, Control_c, 0, 64, 35
1, 373376, Control_c, 0, 64, 36
1, 373391, Control_c, 0, 64, 37
1, 373406, Control_c, 0, 64, 39
1, 373421, Control_c, 0, 64, 42
1, 373436, Control_c, 0, 64, 46
1, 373451, Control_c, 0, 64, 53
1, 373465, Control_c, 0, 64, 57
1, 373480, Control_c, 0, 64, 60
1, 373495, Control_c, 0, 64, 62
1, 373510, Control_c, 0, 64, 62
1, 373539, Control_c, 0, 64, 63
1, 373554, Control_c, 0, 64, 63
1, 373569, Control_c, 0, 64, 64
1, 373584, Control_c, 0, 64, 64
1, 373644, Note_on_c, 0, 65, 59
1, 373699, Note_off_c, 0, 67, 60
1, 373844, Control_c, 0, 64, 64
1, 373854, Note_on_c, 0, 64, 69
1, 373887, Note_off_c, 0, 65, 56
1, 373903, Control_c, 0, 64, 63
1, 373934, Note_off_c, 0, 69, 63
1, 373962, Control_c, 0, 64, 63
1, 373977, Control_c, 0, 64, 62
1, 373992, Control_c, 0, 64, 62
1, 374007, Control_c, 0, 64, 61
1, 374022, Control_c, 0, 64, 60
1, 374023, Note_off_c, 0, 55, 56
1, 374037, Control_c, 0, 64, 58
1, 374051, Control_c, 0, 64, 55
1, 374066, Control_c, 0, 64, 51
1, 374070, Note_on_c, 0, 71, 65
1, 374071, Note_on_c, 0, 65, 57
1, 374080, Note_on_c, 0, 62, 38
1, 374081, Control_c, 0, 64, 45
1, 374089, Note_off_c, 0, 64, 52
1, 374095, Control_c, 0, 64, 40
1, 374110, Control_c, 0, 64, 34
1, 374125, Control_c, 0, 64, 31
1, 374140, Control_c, 0, 64, 26
1, 374155, Control_c, 0, 64, 22
1, 374169, Control_c, 0, 64, 17
1, 374184, Control_c, 0, 64, 14
1, 374214, Control_c, 0, 64, 22
1, 374229, Control_c, 0, 64, 32
1, 374244, Control_c, 0, 64, 41
1, 374259, Control_c, 0, 64, 48
1, 374274, Control_c, 0, 64, 53
1, 374288, Control_c, 0, 64, 58
1, 374303, Control_c, 0, 64, 62
1, 374318, Control_c, 0, 64, 64
1, 374333, Control_c, 0, 64, 64
1, 374348, Control_c, 0, 64, 65
1, 374367, Note_off_c, 0, 71, 52
1, 374392, Control_c, 0, 64, 65
1, 374482, Control_c, 0, 64, 65
1, 374492, Note_on_c, 0, 55, 37
1, 374497, Control_c, 0, 64, 64
1, 374511, Control_c, 0, 64, 64
1, 374523, Note_on_c, 0, 72, 57
1, 374526, Control_c, 0, 64, 63
1, 374548, Control_c, 0, 64, 63
1, 374563, Control_c, 0, 64, 62
1, 374578, Control_c, 0, 64, 62
1, 374593, Control_c, 0, 64, 61
1, 374608, Control_c, 0, 64, 59
1, 374622, Control_c, 0, 64, 57
1, 374637, Control_c, 0, 64, 55
1, 374652, Control_c, 0, 64, 52
1, 374667, Control_c, 0, 64, 48
1, 374682, Control_c, 0, 64, 43
1, 374697, Control_c, 0, 64, 38
1, 374712, Control_c, 0, 64, 34
1, 374726, Control_c, 0, 64, 30
1, 374741, Control_c, 0, 64, 24
1, 374756, Control_c, 0, 64, 10
1, 374771, Control_c, 0, 64, 0
1, 374912, Note_off_c, 0, 62, 43
1, 374944, Note_on_c, 0, 60, 38
1, 374954, Note_on_c, 0, 64, 42
1, 374963, Control_c, 0, 64, 15
1, 374978, Control_c, 0, 64, 36
1, 374992, Control_c, 0, 64, 49
1, 375007, Control_c, 0, 64, 57
1, 375022, Control_c, 0, 64, 62
1, 375028, Note_off_c, 0, 72, 58
1, 375037, Control_c, 0, 64, 64
1, 375040, Note_off_c, 0, 65, 62
1, 375052, Control_c, 0, 64, 66
1, 375067, Control_c, 0, 64, 70
1, 375082, Control_c, 0, 64, 74
1, 375097, Control_c, 0, 64, 77
1, 375111, Control_c, 0, 64, 78
1, 375126, Control_c, 0, 64, 78
1, 375162, Note_off_c, 0, 55, 51
1, 375171, Control_c, 0, 64, 79
1, 375180, Note_off_c, 0, 64, 60
1, 375195, Note_off_c, 0, 60, 61
1, 375313, Control_c, 0, 64, 78
1, 375328, Control_c, 0, 64, 77
1, 375342, Control_c, 0, 64, 73
1, 375352, Note_on_c, 0, 74, 70
1, 375356, Note_on_c, 0, 65, 48
1, 375357, Note_on_c, 0, 67, 64
1, 375357, Control_c, 0, 64, 66
1, 375359, Note_on_c, 0, 59, 45
1, 375372, Control_c, 0, 64, 59
1, 375387, Control_c, 0, 64, 43
1, 375402, Control_c, 0, 64, 28
1, 375416, Control_c, 0, 64, 35
1, 375431, Control_c, 0, 64, 45
1, 375446, Control_c, 0, 64, 55
1, 375461, Control_c, 0, 64, 63
1, 375475, Control_c, 0, 64, 66
1, 375490, Control_c, 0, 64, 68
1, 375505, Control_c, 0, 64, 68
1, 375520, Control_c, 0, 64, 69
1, 375535, Control_c, 0, 64, 71
1, 375550, Control_c, 0, 64, 73
1, 375559, Note_off_c, 0, 67, 55
1, 375564, Control_c, 0, 64, 75
1, 375579, Control_c, 0, 64, 75
1, 375619, Note_off_c, 0, 65, 37
1, 375757, Control_c, 0, 64, 75
1, 375770, Note_off_c, 0, 59, 24
1, 375772, Control_c, 0, 64, 73
1, 375787, Control_c, 0, 64, 72
1, 375798, Note_on_c, 0, 76, 69
1, 375802, Control_c, 0, 64, 69
1, 375812, Note_on_c, 0, 67, 50
1, 375816, Control_c, 0, 64, 66
1, 375822, Note_on_c, 0, 60, 37
1, 375822, Note_on_c, 0, 64, 49
1, 375831, Control_c, 0, 64, 62
1, 375845, Control_c, 0, 64, 57
1, 375860, Control_c, 0, 64, 50
1, 375870, Note_off_c, 0, 74, 52
1, 375874, Control_c, 0, 64, 41
1, 375889, Control_c, 0, 64, 34
1, 375904, Control_c, 0, 64, 32
1, 375919, Control_c, 0, 64, 33
1, 375934, Control_c, 0, 64, 34
1, 375964, Control_c, 0, 64, 35
1, 375979, Control_c, 0, 64, 37
1, 375994, Control_c, 0, 64, 39
1, 376009, Control_c, 0, 64, 41
1, 376024, Control_c, 0, 64, 43
1, 376046, Control_c, 0, 64, 43
1, 376061, Control_c, 0, 64, 44
1, 376076, Control_c, 0, 64, 44
1, 376120, Control_c, 0, 64, 44
1, 376135, Control_c, 0, 64, 43
1, 376150, Control_c, 0, 64, 43
1, 376164, Control_c, 0, 64, 42
1, 376179, Control_c, 0, 64, 40
1, 376194, Control_c, 0, 64, 36
1, 376209, Control_c, 0, 64, 26
1, 376224, Control_c, 0, 64, 0
1, 376226, Note_on_c, 0, 72, 67
1, 376227, Note_on_c, 0, 69, 58
1, 376228, Note_on_c, 0, 63, 54
1, 376238, Note_on_c, 0, 57, 47
1, 376265, Note_off_c, 0, 67, 57
1, 376268, Note_off_c, 0, 60, 50
1, 376302, Note_off_c, 0, 76, 55
1, 376319, Note_off_c, 0, 64, 35
1, 376357, Control_c, 0, 64, 37
1, 376372, Control_c, 0, 64, 55
1, 376387, Control_c, 0, 64, 63
1, 376402, Control_c, 0, 64, 66
1, 376417, Control_c, 0, 64, 69
1, 376432, Control_c, 0, 64, 70
1, 376446, Control_c, 0, 64, 71
1, 376461, Control_c, 0, 64, 73
1, 376624, Control_c, 0, 64, 72
1, 376632, Note_on_c, 0, 74, 66
1, 376638, Control_c, 0, 64, 70
1, 376649, Note_off_c, 0, 57, 28
1, 376649, Note_on_c, 0, 54, 42
1, 376650, Note_on_c, 0, 62, 56
1, 376653, Control_c, 0, 64, 65
1, 376668, Control_c, 0, 64, 59
1, 376677, Note_off_c, 0, 72, 58
1, 376682, Control_c, 0, 64, 31
1, 376697, Note_off_c, 0, 63, 35
1, 376697, Control_c, 0, 64, 0
1, 376742, Control_c, 0, 64, 35
1, 376757, Control_c, 0, 64, 56
1, 376772, Control_c, 0, 64, 64
1, 376794, Control_c, 0, 64, 69
1, 376800, Note_off_c, 0, 54, 56
1, 376809, Control_c, 0, 64, 72
1, 376825, Control_c, 0, 64, 73
1, 376840, Control_c, 0, 64, 74
1, 376855, Control_c, 0, 64, 75
1, 376869, Control_c, 0, 64, 76
1, 376884, Control_c, 0, 64, 77
1, 376892, Note_off_c, 0, 69, 58
1, 377061, Control_c, 0, 64, 76
1, 377076, Control_c, 0, 64, 75
1, 377091, Control_c, 0, 64, 73
1, 377098, Note_on_c, 0, 76, 66
1, 377106, Control_c, 0, 64, 71
1, 377109, Note_off_c, 0, 74, 57
1, 377115, Note_on_c, 0, 72, 52
1, 377120, Control_c, 0, 64, 68
1, 377122, Note_on_c, 0, 55, 38
1, 377135, Note_on_c, 0, 60, 43
1, 377135, Control_c, 0, 64, 66
1, 377150, Control_c, 0, 64, 63
1, 377165, Control_c, 0, 64, 60
1, 377180, Control_c, 0, 64, 54
1, 377188, Note_off_c, 0, 62, 30
1, 377195, Control_c, 0, 64, 45
1, 377210, Control_c, 0, 64, 31
1, 377225, Control_c, 0, 64, 0
1, 377608, Note_off_c, 0, 72, 56
1, 377620, Note_off_c, 0, 60, 36
1, 377624, Note_on_c, 0, 74, 45
1, 377631, Note_on_c, 0, 59, 30
1, 377660, Note_off_c, 0, 76, 61
1, 377662, Note_on_c, 0, 67, 29
1, 377736, Control_c, 0, 64, 41
1, 377751, Control_c, 0, 64, 59
1, 377766, Control_c, 0, 64, 64
1, 377781, Control_c, 0, 64, 66
1, 377796, Control_c, 0, 64, 68
1, 377810, Control_c, 0, 64, 69
1, 377825, Control_c, 0, 64, 70
1, 377840, Control_c, 0, 64, 71
1, 377852, Note_off_c, 0, 74, 63
1, 377853, Note_off_c, 0, 59, 51
1, 377855, Control_c, 0, 64, 71
1, 377906, Note_off_c, 0, 55, 41
1, 377955, Note_off_c, 0, 67, 40
1, 378003, Control_c, 0, 64, 71
1, 378018, Control_c, 0, 64, 70
1, 378033, Control_c, 0, 64, 68
1, 378048, Control_c, 0, 64, 67
1, 378062, Control_c, 0, 64, 66
1, 378077, Control_c, 0, 64, 65
1, 378092, Control_c, 0, 64, 63
1, 378107, Control_c, 0, 64, 59
1, 378122, Control_c, 0, 64, 53
1, 378137, Control_c, 0, 64, 41
1, 378145, Note_on_c, 0, 67, 57
1, 378152, Control_c, 0, 64, 25
1, 378159, Note_on_c, 0, 52, 53
1, 378167, Control_c, 0, 64, 0
1, 378241, Control_c, 0, 64, 26
1, 378255, Control_c, 0, 64, 43
1, 378270, Control_c, 0, 64, 54
1, 378292, Control_c, 0, 64, 61
1, 378307, Control_c, 0, 64, 65
1, 378322, Control_c, 0, 64, 69
1, 378337, Control_c, 0, 64, 73
1, 378352, Control_c, 0, 64, 76
1, 378352, Note_off_c, 0, 67, 59
1, 378366, Control_c, 0, 64, 79
1, 378381, Control_c, 0, 64, 81
1, 378396, Control_c, 0, 64, 83
1, 378412, Control_c, 0, 64, 84
1, 378427, Control_c, 0, 64, 85
1, 378634, Control_c, 0, 64, 83
1, 378649, Control_c, 0, 64, 81
1, 378664, Control_c, 0, 64, 79
1, 378667, Note_on_c, 0, 49, 54
1, 378669, Note_on_c, 0, 69, 63
1, 378671, Note_on_c, 0, 43, 42
1, 378679, Control_c, 0, 64, 75
1, 378679, Note_on_c, 0, 67, 49
1, 378693, Control_c, 0, 64, 72
1, 378708, Control_c, 0, 64, 68
1, 378723, Control_c, 0, 64, 65
1, 378738, Control_c, 0, 64, 61
1, 378753, Control_c, 0, 64, 55
1, 378767, Control_c, 0, 64, 46
1, 378782, Control_c, 0, 64, 39
1, 378797, Control_c, 0, 64, 36
1, 378814, Note_off_c, 0, 52, 32
1, 378827, Control_c, 0, 64, 35
1, 378841, Control_c, 0, 64, 34
1, 378871, Control_c, 0, 64, 33
1, 378885, Control_c, 0, 64, 33
1, 378900, Control_c, 0, 64, 31
1, 378915, Control_c, 0, 64, 26
1, 378930, Control_c, 0, 64, 18
1, 378945, Control_c, 0, 64, 0
1, 378969, Note_off_c, 0, 67, 54
1, 379068, Note_on_c, 0, 65, 52
1, 379071, Note_on_c, 0, 50, 57
1, 379192, Note_off_c, 0, 49, 48
1, 379246, Note_on_c, 0, 52, 68
1, 379252, Note_on_c, 0, 64, 57
1, 379266, Note_off_c, 0, 69, 63
1, 379270, Note_off_c, 0, 50, 62
1, 379274, Note_off_c, 0, 65, 57
1, 379452, Note_on_c, 0, 71, 63
1, 379469, Note_on_c, 0, 53, 62
1, 379473, Note_on_c, 0, 62, 63
1, 379487, Note_off_c, 0, 52, 58
1, 379492, Note_off_c, 0, 64, 62
1, 379561, Control_c, 0, 64, 19
1, 379574, Note_off_c, 0, 43, 38
1, 379576, Control_c, 0, 64, 43
1, 379590, Control_c, 0, 64, 54
1, 379592, Note_off_c, 0, 71, 58
1, 379605, Control_c, 0, 64, 60
1, 379620, Control_c, 0, 64, 62
1, 379634, Control_c, 0, 64, 63
1, 379649, Control_c, 0, 64, 64
1, 379664, Control_c, 0, 64, 65
1, 379679, Control_c, 0, 64, 65
1, 379694, Control_c, 0, 64, 66
1, 379834, Control_c, 0, 64, 65
1, 379849, Control_c, 0, 64, 65
1, 379864, Control_c, 0, 64, 64
1, 379879, Control_c, 0, 64, 62
1, 379882, Note_on_c, 0, 43, 35
1, 379889, Note_on_c, 0, 72, 65
1, 379894, Control_c, 0, 64, 60
1, 379908, Control_c, 0, 64, 54
1, 379923, Control_c, 0, 64, 45
1, 379938, Control_c, 0, 64, 31
1, 379953, Control_c, 0, 64, 0
1, 380283, Note_on_c, 0, 60, 48
1, 380288, Note_off_c, 0, 53, 61
1, 380290, Note_on_c, 0, 52, 51
1, 380310, Control_c, 0, 64, 40
1, 380325, Control_c, 0, 64, 60
1, 380335, Note_off_c, 0, 62, 60
1, 380337, Control_c, 0, 64, 65
1, 380352, Control_c, 0, 64, 67
1, 380367, Control_c, 0, 64, 70
1, 380382, Control_c, 0, 64, 72
1, 380389, Note_off_c, 0, 72, 61
1, 380396, Control_c, 0, 64, 75
1, 380411, Control_c, 0, 64, 77
1, 380426, Control_c, 0, 64, 78
1, 380429, Note_off_c, 0, 43, 40
1, 380477, Note_off_c, 0, 52, 57
1, 380547, Note_off_c, 0, 60, 57
1, 380656, Control_c, 0, 64, 75
1, 380671, Control_c, 0, 64, 69
1, 380673, Note_on_c, 0, 74, 73
1, 380686, Control_c, 0, 64, 62
1, 380688, Note_on_c, 0, 67, 64
1, 380694, Note_on_c, 0, 62, 57
1, 380697, Note_on_c, 0, 55, 50
1, 380701, Control_c, 0, 64, 40
1, 380705, Note_on_c, 0, 47, 48
1, 380715, Control_c, 0, 64, 0
1, 380730, Control_c, 0, 64, 22
1, 380745, Control_c, 0, 64, 44
1, 380760, Control_c, 0, 64, 57
1, 380775, Control_c, 0, 64, 63
1, 380789, Control_c, 0, 64, 66
1, 380805, Control_c, 0, 64, 68
1, 380820, Control_c, 0, 64, 69
1, 380835, Control_c, 0, 64, 70
1, 380844, Note_off_c, 0, 62, 53
1, 380850, Control_c, 0, 64, 70
1, 380879, Control_c, 0, 64, 71
1, 380881, Note_off_c, 0, 67, 59
1, 380881, Note_off_c, 0, 74, 61
1, 380917, Note_off_c, 0, 55, 52
1, 381072, Control_c, 0, 64, 69
1, 381085, Note_off_c, 0, 47, 62
1, 381086, Control_c, 0, 64, 65
1, 381087, Note_on_c, 0, 76, 81
1, 381101, Control_c, 0, 64, 56
1, 381105, Note_on_c, 0, 67, 57
1, 381109, Note_on_c, 0, 55, 41
1, 381111, Note_on_c, 0, 48, 48
1, 381113, Note_on_c, 0, 64, 53
1, 381116, Control_c, 0, 64, 0
1, 381204, Control_c, 0, 64, 33
1, 381219, Control_c, 0, 64, 58
1, 381234, Control_c, 0, 64, 63
1, 381249, Control_c, 0, 64, 64
1, 381264, Control_c, 0, 64, 65
1, 381286, Control_c, 0, 64, 65
1, 381301, Control_c, 0, 64, 66
1, 381316, Control_c, 0, 64, 67
1, 381323, Note_off_c, 0, 64, 57
1, 381331, Control_c, 0, 64, 67
1, 381346, Control_c, 0, 64, 68
1, 381523, Control_c, 0, 64, 67
1, 381526, Note_off_c, 0, 76, 31
1, 381538, Control_c, 0, 64, 65
1, 381553, Control_c, 0, 64, 61
1, 381556, Note_on_c, 0, 69, 62
1, 381564, Note_off_c, 0, 55, 40
1, 381568, Control_c, 0, 64, 31
1, 381569, Note_on_c, 0, 60, 51
1, 381572, Note_on_c, 0, 54, 46
1, 381583, Control_c, 0, 64, 0
1, 381585, Note_on_c, 0, 51, 34
1, 381601, Note_off_c, 0, 67, 44
1, 381611, Note_off_c, 0, 48, 56
1, 381672, Control_c, 0, 64, 55
1, 381687, Control_c, 0, 64, 65
1, 381702, Control_c, 0, 64, 69
1, 381717, Control_c, 0, 64, 70
1, 381728, Note_off_c, 0, 60, 58
1, 381732, Control_c, 0, 64, 71
1, 381732, Control_c, 0, 67, 8
1, 381747, Control_c, 0, 64, 72
1, 381747, Control_c, 0, 67, 25
1, 381762, Control_c, 0, 64, 74
1, 381762, Control_c, 0, 67, 38
1, 381776, Control_c, 0, 64, 75
1, 381776, Control_c, 0, 67, 47
1, 381788, Note_off_c, 0, 51, 39
1, 381791, Control_c, 0, 64, 76
1, 381791, Control_c, 0, 67, 54
1, 381795, Note_off_c, 0, 54, 60
1, 381806, Control_c, 0, 67, 59
1, 381821, Control_c, 0, 64, 77
1, 381821, Control_c, 0, 67, 64
1, 381836, Control_c, 0, 67, 67
1, 381851, Control_c, 0, 67, 69
1, 381866, Control_c, 0, 67, 69
1, 381881, Control_c, 0, 67, 70
1, 381925, Control_c, 0, 67, 70
1, 381935, Note_off_c, 0, 69, 48
1, 381970, Control_c, 0, 67, 71
1, 381999, Control_c, 0, 67, 71
1, 382014, Control_c, 0, 64, 76
1, 382014, Control_c, 0, 67, 72
1, 382036, Control_c, 0, 64, 74
1, 382036, Control_c, 0, 67, 75
1, 382045, Note_on_c, 0, 74, 62
1, 382051, Control_c, 0, 64, 68
1, 382051, Control_c, 0, 67, 79
1, 382066, Control_c, 0, 64, 61
1, 382066, Control_c, 0, 67, 83
1, 382074, Note_on_c, 0, 50, 39
1, 382075, Note_on_c, 0, 66, 56
1, 382078, Note_on_c, 0, 57, 34
1, 382079, Note_on_c, 0, 62, 39
1, 382081, Control_c, 0, 64, 32
1, 382081, Control_c, 0, 67, 88
1, 382096, Control_c, 0, 64, 0
1, 382096, Control_c, 0, 67, 94
1, 382110, Control_c, 0, 67, 101
1, 382125, Control_c, 0, 67, 107
1, 382140, Control_c, 0, 67, 113
1, 382155, Control_c, 0, 67, 120
1, 382170, Control_c, 0, 64, 54
1, 382170, Control_c, 0, 67, 127
1, 382184, Note_off_c, 0, 62, 48
1, 382184, Control_c, 0, 64, 64
1, 382199, Control_c, 0, 64, 67
1, 382214, Control_c, 0, 64, 68
1, 382228, Control_c, 0, 64, 68
1, 382233, Note_off_c, 0, 74, 55
1, 382243, Control_c, 0, 64, 69
1, 382258, Control_c, 0, 64, 71
1, 382273, Control_c, 0, 64, 72
1, 382277, Note_off_c, 0, 57, 57
1, 382288, Control_c, 0, 64, 73
1, 382310, Note_off_c, 0, 50, 51
1, 382317, Control_c, 0, 64, 73
1, 382354, Note_off_c, 0, 66, 52
1, 382383, Note_on_c, 0, 60, 44
1, 382629, Control_c, 0, 64, 73
1, 382644, Control_c, 0, 64, 72
1, 382658, Control_c, 0, 64, 71
1, 382673, Control_c, 0, 64, 70
1, 382688, Control_c, 0, 64, 69
1, 382703, Control_c, 0, 64, 67
1, 382717, Note_on_c, 0, 67, 47
1, 382718, Control_c, 0, 64, 64
1, 382727, Note_on_c, 0, 59, 39
1, 382731, Note_off_c, 0, 60, 38
1, 382732, Control_c, 0, 64, 60
1, 382747, Control_c, 0, 64, 51
1, 382751, Note_on_c, 0, 43, 26
1, 382755, Note_on_c, 0, 55, 25
1, 382757, Note_on_c, 0, 50, 22
1, 382762, Control_c, 0, 64, 34
1, 382784, Control_c, 0, 64, 0
1, 383365, Note_off_c, 0, 43, 42
1, 383407, Note_off_c, 0, 59, 59
1, 383415, Note_off_c, 0, 55, 48
1, 383417, Note_off_c, 0, 67, 54
1, 383442, Note_off_c, 0, 50, 50
1, 383896, Note_on_c, 0, 67, 39
1, 383911, Note_on_c, 0, 64, 42
1, 383911, Note_on_c, 0, 60, 38
1, 384066, Note_off_c, 0, 64, 57
1, 384082, Control_c, 0, 64, 18
1, 384096, Control_c, 0, 64, 27
1, 384111, Control_c, 0, 64, 34
1, 384120, Note_off_c, 0, 67, 38
1, 384125, Note_on_c, 0, 61, 63
1, 384126, Control_c, 0, 64, 38
1, 384141, Control_c, 0, 64, 42
1, 384149, Note_off_c, 0, 60, 50
1, 384156, Control_c, 0, 64, 44
1, 384170, Control_c, 0, 64, 46
1, 384185, Control_c, 0, 64, 47
1, 384200, Control_c, 0, 64, 48
1, 384215, Control_c, 0, 64, 49
1, 384230, Control_c, 0, 64, 49
1, 384245, Control_c, 0, 64, 50
1, 384282, Control_c, 0, 64, 49
1, 384297, Control_c, 0, 64, 49
1, 384298, Note_off_c, 0, 61, 54
1, 384311, Control_c, 0, 64, 48
1, 384326, Control_c, 0, 64, 46
1, 384341, Control_c, 0, 64, 44
1, 384356, Control_c, 0, 64, 38
1, 384371, Control_c, 0, 64, 25
1, 384385, Control_c, 0, 64, 0
1, 384395, Note_on_c, 0, 65, 49
1, 384396, Note_on_c, 0, 67, 49
1, 384409, Note_on_c, 0, 62, 57
1, 384711, Control_c, 0, 64, 31
1, 384726, Control_c, 0, 64, 51
1, 384741, Control_c, 0, 64, 59
1, 384755, Control_c, 0, 64, 64
1, 384770, Control_c, 0, 64, 67
1, 384785, Control_c, 0, 64, 72
1, 384801, Control_c, 0, 64, 78
1, 384816, Control_c, 0, 64, 83
1, 384832, Control_c, 0, 64, 88
1, 384846, Control_c, 0, 64, 91
1, 384861, Control_c, 0, 64, 93
1, 384876, Control_c, 0, 64, 95
1, 384877, Note_off_c, 0, 62, 50
1, 384891, Control_c, 0, 64, 95
1, 385026, Note_off_c, 0, 67, 35
1, 385032, Note_off_c, 0, 65, 37
1, 385091, Control_c, 0, 64, 95
1, 385106, Control_c, 0, 64, 94
1, 385121, Control_c, 0, 64, 93
1, 385135, Control_c, 0, 64, 91
1, 385150, Control_c, 0, 64, 90
1, 385165, Control_c, 0, 64, 89
1, 385180, Control_c, 0, 64, 89
1, 385195, Control_c, 0, 64, 88
1, 385209, Control_c, 0, 64, 87
1, 385224, Control_c, 0, 64, 87
1, 385239, Control_c, 0, 64, 86
1, 385253, Control_c, 0, 64, 85
1, 385268, Control_c, 0, 64, 84
1, 385283, Control_c, 0, 64, 83
1, 385298, Control_c, 0, 64, 80
1, 385313, Control_c, 0, 64, 74
1, 385327, Control_c, 0, 64, 68
1, 385342, Control_c, 0, 64, 63
1, 385351, Note_on_c, 0, 59, 46
1, 385357, Control_c, 0, 64, 52
1, 385372, Control_c, 0, 64, 22
1, 385376, Note_on_c, 0, 67, 59
1, 385380, Note_on_c, 0, 62, 52
1, 385387, Control_c, 0, 64, 0
1, 385389, Note_off_c, 0, 59, 63
1, 385401, Control_c, 0, 64, 20
1, 385416, Control_c, 0, 64, 39
1, 385431, Note_on_c, 0, 60, 49
1, 385431, Control_c, 0, 64, 51
1, 385446, Control_c, 0, 64, 58
1, 385457, Note_off_c, 0, 60, 57
1, 385461, Control_c, 0, 64, 61
1, 385476, Control_c, 0, 64, 62
1, 385494, Note_on_c, 0, 59, 51
1, 385525, Note_off_c, 0, 59, 64
1, 385548, Note_on_c, 0, 60, 60
1, 385595, Control_c, 0, 64, 62
1, 385596, Note_off_c, 0, 60, 53
1, 385605, Note_off_c, 0, 62, 36
1, 385609, Note_on_c, 0, 59, 53
1, 385610, Control_c, 0, 64, 61
1, 385623, Note_off_c, 0, 67, 37
1, 385625, Control_c, 0, 64, 61
1, 385640, Control_c, 0, 64, 59
1, 385654, Note_off_c, 0, 59, 62
1, 385655, Control_c, 0, 64, 57
1, 385669, Control_c, 0, 64, 55
1, 385679, Note_on_c, 0, 57, 54
1, 385684, Control_c, 0, 64, 50
1, 385699, Control_c, 0, 64, 44
1, 385714, Control_c, 0, 64, 32
1, 385729, Control_c, 0, 64, 0
1, 385760, Note_off_c, 0, 57, 60
1, 385777, Note_on_c, 0, 59, 57
1, 385840, Note_off_c, 0, 59, 62
1, 385863, Note_on_c, 0, 67, 54
1, 385885, Note_on_c, 0, 60, 38
1, 385888, Note_on_c, 0, 64, 45
1, 386295, Note_off_c, 0, 64, 62
1, 386320, Note_off_c, 0, 67, 62
1, 386321, Note_off_c, 0, 60, 60
1, 386343, Control_c, 0, 67, 111
1, 386357, Control_c, 0, 67, 89
1, 386372, Control_c, 0, 67, 68
1, 386387, Control_c, 0, 67, 49
1, 386403, Control_c, 0, 67, 32
1, 386417, Control_c, 0, 67, 20
1, 386432, Control_c, 0, 67, 11
1, 386447, Control_c, 0, 67, 0
1, 386632, Control_c, 0, 64, 43
1, 386647, Control_c, 0, 64, 59
1, 386662, Control_c, 0, 64, 63
1, 386677, Control_c, 0, 64, 65
1, 386692, Control_c, 0, 64, 66
1, 386693, Note_on_c, 0, 67, 61
1, 386706, Control_c, 0, 64, 67
1, 386720, Note_on_c, 0, 52, 33
1, 386721, Control_c, 0, 64, 70
1, 386728, Note_on_c, 0, 60, 34
1, 386736, Control_c, 0, 64, 75
1, 386751, Control_c, 0, 64, 78
1, 386766, Control_c, 0, 64, 81
1, 386780, Control_c, 0, 64, 83
1, 386795, Control_c, 0, 64, 86
1, 386796, Note_off_c, 0, 52, 56
1, 386810, Control_c, 0, 64, 89
1, 386824, Control_c, 0, 64, 91
1, 386839, Control_c, 0, 64, 92
1, 386854, Control_c, 0, 64, 92
1, 386869, Control_c, 0, 67, 23
1, 386884, Control_c, 0, 67, 44
1, 386898, Control_c, 0, 67, 61
1, 386911, Note_off_c, 0, 60, 41
1, 386913, Control_c, 0, 67, 76
1, 386928, Control_c, 0, 67, 87
1, 386943, Control_c, 0, 67, 96
1, 386958, Control_c, 0, 67, 105
1, 386959, Note_on_c, 0, 64, 51
1, 386972, Control_c, 0, 67, 113
1, 386987, Control_c, 0, 67, 120
1, 386994, Note_off_c, 0, 64, 64
1, 387002, Control_c, 0, 67, 127
1, 387023, Note_off_c, 0, 67, 36
1, 387062, Control_c, 0, 64, 90
1, 387077, Control_c, 0, 64, 84
1, 387092, Control_c, 0, 64, 76
1, 387106, Control_c, 0, 64, 67
1, 387120, Note_on_c, 0, 69, 54
1, 387121, Control_c, 0, 64, 54
1, 387122, Note_on_c, 0, 41, 48
1, 387122, Note_on_c, 0, 64, 55
1, 387130, Note_on_c, 0, 53, 37
1, 387136, Control_c, 0, 64, 0
1, 387175, Note_off_c, 0, 64, 58
1, 387223, Note_on_c, 0, 65, 60
1, 387226, Control_c, 0, 64, 31
1, 387240, Control_c, 0, 64, 43
1, 387242, Note_off_c, 0, 41, 56
1, 387243, Note_off_c, 0, 69, 56
1, 387255, Control_c, 0, 64, 46
1, 387277, Control_c, 0, 64, 46
1, 387286, Note_off_c, 0, 65, 57
1, 387307, Note_on_c, 0, 67, 61
1, 387307, Control_c, 0, 64, 47
1, 387324, Note_off_c, 0, 53, 43
1, 387366, Control_c, 0, 64, 46
1, 387381, Control_c, 0, 64, 45
1, 387395, Note_off_c, 0, 67, 53
1, 387396, Control_c, 0, 64, 44
1, 387411, Control_c, 0, 64, 43
1, 387414, Note_on_c, 0, 65, 52
1, 387425, Control_c, 0, 64, 40
1, 387440, Control_c, 0, 64, 36
1, 387455, Control_c, 0, 64, 25
1, 387470, Control_c, 0, 64, 0
1, 387509, Note_on_c, 0, 45, 39
1, 387509, Note_on_c, 0, 53, 30
1, 387511, Note_off_c, 0, 65, 49
1, 387523, Note_on_c, 0, 69, 51
1, 387531, Note_on_c, 0, 62, 54
1, 387626, Note_off_c, 0, 45, 56
1, 387637, Note_off_c, 0, 69, 64
1, 387637, Note_off_c, 0, 62, 38
1, 387653, Note_off_c, 0, 53, 53
1, 387922, Note_on_c, 0, 69, 44
1, 387923, Note_on_c, 0, 61, 47
1, 387932, Note_on_c, 0, 45, 25
1, 387938, Note_on_c, 0, 55, 22
1, 388037, Note_off_c, 0, 69, 51
1, 388046, Note_off_c, 0, 61, 59
1, 388071, Note_off_c, 0, 45, 41
1, 388081, Note_off_c, 0, 55, 39
1, 388376, Note_on_c, 0, 69, 40
1, 388377, Note_on_c, 0, 62, 37
1, 388388, Note_on_c, 0, 50, 26
1, 388391, Note_on_c, 0, 53, 27
1, 388773, Note_off_c, 0, 62, 52
1, 388778, Note_off_c, 0, 50, 49
1, 388799, Note_off_c, 0, 69, 62
1, 388806, Note_off_c, 0, 53, 52
1, 389184, Note_on_c, 0, 76, 49
1, 389197, Note_on_c, 0, 69, 38
1, 389206, Note_on_c, 0, 64, 41
1, 389213, Note_on_c, 0, 60, 33
1, 389303, Note_off_c, 0, 69, 58
1, 389318, Note_off_c, 0, 76, 61
1, 389324, Note_off_c, 0, 60, 54
1, 389325, Note_off_c, 0, 64, 54
1, 389688, Control_c, 0, 64, 8
1, 389703, Control_c, 0, 64, 14
1, 389711, Note_on_c, 0, 77, 62
1, 389716, Note_on_c, 0, 68, 52
1, 389718, Control_c, 0, 64, 19
1, 389725, Note_on_c, 0, 59, 18
1, 389732, Control_c, 0, 64, 22
1, 389741, Note_on_c, 0, 62, 35
1, 389747, Note_on_c, 0, 65, 37
1, 389747, Control_c, 0, 64, 25
1, 389762, Control_c, 0, 64, 28
1, 389776, Control_c, 0, 64, 31
1, 389791, Control_c, 0, 64, 34
1, 389806, Control_c, 0, 64, 36
1, 389821, Control_c, 0, 64, 39
1, 389836, Control_c, 0, 64, 42
1, 389850, Control_c, 0, 64, 45
1, 389865, Control_c, 0, 64, 49
1, 389880, Control_c, 0, 64, 53
1, 389895, Control_c, 0, 64, 57
1, 389910, Control_c, 0, 64, 60
1, 389924, Control_c, 0, 64, 62
1, 389939, Control_c, 0, 64, 63
1, 389954, Control_c, 0, 64, 65
1, 389968, Control_c, 0, 64, 67
1, 389983, Control_c, 0, 64, 70
1, 389998, Control_c, 0, 64, 76
1, 390013, Control_c, 0, 64, 81
1, 390028, Control_c, 0, 64, 85
1, 390043, Control_c, 0, 64, 89
1, 390058, Control_c, 0, 64, 92
1, 390072, Control_c, 0, 64, 96
1, 390087, Control_c, 0, 64, 101
1, 390102, Control_c, 0, 64, 106
1, 390117, Control_c, 0, 64, 114
1, 390132, Control_c, 0, 64, 127
1, 390169, Note_off_c, 0, 68, 58
1, 390192, Note_off_c, 0, 62, 41
1, 390236, Note_off_c, 0, 65, 32
1, 390245, Note_off_c, 0, 59, 42
1, 390290, Note_off_c, 0, 77, 55
1, 390362, Control_c, 0, 64, 114
1, 390376, Control_c, 0, 64, 102
1, 390391, Control_c, 0, 64, 94
1, 390406, Control_c, 0, 64, 87
1, 390421, Control_c, 0, 64, 79
1, 390436, Control_c, 0, 64, 72
1, 390451, Control_c, 0, 64, 66
1, 390466, Control_c, 0, 64, 58
1, 390481, Control_c, 0, 64, 42
1, 390496, Control_c, 0, 64, 0
1, 390584, Note_on_c, 0, 74, 45
1, 390591, Note_on_c, 0, 67, 41
1, 390606, Note_on_c, 0, 71, 24
1, 390612, Note_on_c, 0, 55, 26
1, 390636, Poly_aftertouch_c, 0, 65, 127
1, 390764, Poly_aftertouch_c, 0, 65, 0
1, 390777, Note_off_c, 0, 71, 43
1, 390780, Note_off_c, 0, 55, 40
1, 390782, Note_off_c, 0, 67, 38
1, 390784, Note_off_c, 0, 74, 53
1, 391033, Note_on_c, 0, 67, 33
1, 391034, Note_on_c, 0, 76, 47
1, 391038, Note_on_c, 0, 72, 36
1, 391044, Note_on_c, 0, 64, 29
1, 391054, Note_on_c, 0, 60, 20
1, 391184, Control_c, 0, 64, 28
1, 391199, Control_c, 0, 64, 51
1, 391214, Control_c, 0, 64, 60
1, 391229, Control_c, 0, 64, 63
1, 391244, Control_c, 0, 64, 64
1, 391259, Control_c, 0, 64, 65
1, 391274, Control_c, 0, 64, 66
1, 391288, Control_c, 0, 64, 67
1, 391303, Control_c, 0, 64, 68
1, 391318, Control_c, 0, 64, 69
1, 391333, Control_c, 0, 64, 69
1, 391403, Note_off_c, 0, 60, 40
1, 391425, Note_off_c, 0, 67, 43
1, 391566, Note_off_c, 0, 72, 58
1, 391642, Note_off_c, 0, 64, 43
1, 391673, Note_off_c, 0, 76, 32
1, 391815, Control_c, 0, 64, 68
1, 391829, Control_c, 0, 64, 65
1, 391844, Control_c, 0, 64, 61
1, 391859, Control_c, 0, 64, 54
1, 391870, Note_on_c, 0, 60, 43
1, 391874, Control_c, 0, 64, 48
1, 391879, Note_on_c, 0, 72, 56
1, 391885, Note_on_c, 0, 52, 38
1, 391888, Control_c, 0, 64, 49
1, 391897, Note_on_c, 0, 67, 38
1, 391903, Control_c, 0, 64, 53
1, 391918, Control_c, 0, 64, 57
1, 391933, Control_c, 0, 64, 61
1, 391947, Control_c, 0, 64, 64
1, 391962, Control_c, 0, 64, 65
1, 391977, Control_c, 0, 64, 67
1, 391993, Control_c, 0, 64, 69
1, 392008, Control_c, 0, 64, 70
1, 392023, Control_c, 0, 64, 72
1, 392037, Control_c, 0, 64, 73
1, 392046, Note_off_c, 0, 52, 38
1, 392052, Control_c, 0, 64, 73
1, 392067, Control_c, 0, 64, 74
1, 392073, Note_on_c, 0, 68, 61
1, 392147, Note_off_c, 0, 67, 36
1, 392155, Note_off_c, 0, 68, 59
1, 392180, Note_off_c, 0, 72, 57
1, 392210, Note_off_c, 0, 60, 30
1, 392260, Control_c, 0, 64, 73
1, 392273, Note_on_c, 0, 60, 38
1, 392275, Control_c, 0, 64, 71
1, 392290, Control_c, 0, 64, 65
1, 392293, Note_on_c, 0, 76, 73
1, 392305, Control_c, 0, 64, 54
1, 392310, Note_on_c, 0, 69, 52
1, 392313, Note_on_c, 0, 53, 34
1, 392319, Control_c, 0, 64, 0
1, 392393, Control_c, 0, 64, 52
1, 392408, Control_c, 0, 64, 62
1, 392423, Control_c, 0, 64, 64
1, 392474, Note_off_c, 0, 53, 49
1, 392481, Note_off_c, 0, 69, 62
1, 392495, Note_off_c, 0, 60, 54
1, 392512, Note_on_c, 0, 62, 44
1, 392603, Note_on_c, 0, 74, 60
1, 392652, Control_c, 0, 64, 64
1, 392667, Control_c, 0, 64, 62
1, 392682, Control_c, 0, 64, 57
1, 392697, Control_c, 0, 64, 41
1, 392708, Note_on_c, 0, 72, 55
1, 392712, Control_c, 0, 64, 0
1, 392716, Note_off_c, 0, 62, 43
1, 392717, Note_on_c, 0, 64, 41
1, 392719, Note_on_c, 0, 55, 30
1, 392734, Note_on_c, 0, 67, 42
1, 392740, Note_off_c, 0, 76, 51
1, 392741, Note_off_c, 0, 74, 47
1, 392802, Note_off_c, 0, 72, 63
1, 392832, Note_off_c, 0, 64, 56
1, 392834, Note_off_c, 0, 55, 42
1, 392835, Note_off_c, 0, 67, 60
1, 393131, Note_on_c, 0, 55, 28
1, 393132, Note_on_c, 0, 65, 38
1, 393134, Note_on_c, 0, 71, 47
1, 393139, Note_on_c, 0, 67, 39
1, 393211, Note_off_c, 0, 55, 60
1, 393232, Note_off_c, 0, 65, 50
1, 393270, Note_off_c, 0, 67, 55
1, 393292, Note_off_c, 0, 71, 58
1, 393581, Note_on_c, 0, 72, 42
1, 393596, Note_on_c, 0, 64, 37
1, 393599, Note_on_c, 0, 67, 31
1, 393601, Note_on_c, 0, 48, 31
1, 393612, Note_on_c, 0, 60, 24
1, 393635, Note_on_c, 0, 55, 5
1, 393845, Control_c, 0, 64, 31
1, 393860, Control_c, 0, 64, 48
1, 393875, Control_c, 0, 64, 56
1, 393889, Control_c, 0, 64, 59
1, 393904, Control_c, 0, 64, 61
1, 393919, Control_c, 0, 64, 61
1, 393919, Control_c, 0, 67, 119
1, 393933, Control_c, 0, 64, 62
1, 393933, Control_c, 0, 67, 104
1, 393948, Control_c, 0, 64, 62
1, 393948, Control_c, 0, 67, 89
1, 393949, Note_off_c, 0, 64, 44
1, 393963, Control_c, 0, 64, 63
1, 393963, Control_c, 0, 67, 74
1, 393978, Control_c, 0, 64, 63
1, 393978, Control_c, 0, 67, 58
1, 393979, Note_off_c, 0, 48, 40
1, 393993, Control_c, 0, 67, 47
1, 393995, Note_off_c, 0, 60, 41
1, 394015, Control_c, 0, 67, 39
1, 394030, Control_c, 0, 67, 32
1, 394045, Control_c, 0, 67, 26
1, 394060, Control_c, 0, 67, 19
1, 394062, Note_off_c, 0, 67, 49
1, 394065, Note_off_c, 0, 55, 49
1, 394075, Control_c, 0, 67, 12
1, 394089, Control_c, 0, 67, 0
1, 394104, Control_c, 0, 64, 63
1, 394119, Control_c, 0, 64, 62
1, 394133, Control_c, 0, 64, 61
1, 394141, Note_off_c, 0, 72, 64
1, 394148, Control_c, 0, 64, 59
1, 394163, Control_c, 0, 64, 56
1, 394178, Control_c, 0, 64, 50
1, 394193, Control_c, 0, 64, 36
1, 394207, Control_c, 0, 64, 18
1, 394222, Control_c, 0, 64, 0
1, 394252, Control_c, 0, 64, 12
1, 394267, Control_c, 0, 64, 20
1, 394282, Control_c, 0, 64, 28
1, 394296, Control_c, 0, 64, 36
1, 394311, Control_c, 0, 64, 44
1, 394326, Control_c, 0, 64, 50
1, 394341, Control_c, 0, 64, 53
1, 394356, Control_c, 0, 64, 55
1, 394371, Control_c, 0, 64, 55
1, 394386, Control_c, 0, 64, 56
1, 394401, Control_c, 0, 64, 56
1, 394416, Control_c, 0, 64, 57
1, 394431, Control_c, 0, 64, 58
1, 394440, Note_on_c, 0, 60, 52
1, 394445, Control_c, 0, 64, 59
1, 394451, Note_on_c, 0, 76, 53
1, 394460, Control_c, 0, 64, 60
1, 394475, Note_on_c, 0, 67, 37
1, 394475, Control_c, 0, 64, 61
1, 394490, Control_c, 0, 64, 61
1, 394505, Control_c, 0, 64, 62
1, 394520, Control_c, 0, 64, 63
1, 394535, Control_c, 0, 64, 65
1, 394550, Control_c, 0, 64, 66
1, 394564, Control_c, 0, 64, 67
1, 394579, Control_c, 0, 64, 70
1, 394586, Note_off_c, 0, 67, 50
1, 394594, Control_c, 0, 64, 71
1, 394609, Control_c, 0, 64, 73
1, 394624, Control_c, 0, 64, 74
1, 394638, Control_c, 0, 64, 75
1, 394646, Note_on_c, 0, 61, 64
1, 394653, Control_c, 0, 64, 75
1, 394654, Note_off_c, 0, 60, 55
1, 394666, Note_off_c, 0, 76, 55
1, 394668, Control_c, 0, 64, 76
1, 394698, Control_c, 0, 64, 76
1, 394791, Note_off_c, 0, 61, 46
1, 394853, Control_c, 0, 64, 76
1, 394868, Control_c, 0, 64, 74
1, 394881, Note_on_c, 0, 77, 66
1, 394883, Note_on_c, 0, 61, 59
1, 394883, Control_c, 0, 64, 72
1, 394898, Control_c, 0, 64, 70
1, 394912, Control_c, 0, 64, 66
1, 394917, Note_on_c, 0, 67, 38
1, 394927, Control_c, 0, 64, 63
1, 394942, Control_c, 0, 64, 58
1, 394956, Control_c, 0, 64, 49
1, 394971, Control_c, 0, 64, 34
1, 394986, Control_c, 0, 64, 20
1, 395001, Control_c, 0, 64, 8
1, 395016, Control_c, 0, 64, 0
1, 395070, Note_on_c, 0, 62, 59
1, 395131, Note_off_c, 0, 61, 56
1, 395255, Note_off_c, 0, 67, 41
1, 395285, Note_on_c, 0, 59, 59
1, 395416, Note_off_c, 0, 62, 29
1, 395480, Note_on_c, 0, 55, 60
1, 395531, Note_off_c, 0, 59, 56
1, 395673, Note_off_c, 0, 77, 51
1, 395684, Note_on_c, 0, 57, 59
1, 395684, Note_on_c, 0, 74, 56
1, 395706, Note_on_c, 0, 67, 39
1, 395719, Note_off_c, 0, 55, 57
1, 395795, Control_c, 0, 64, 25
1, 395810, Control_c, 0, 64, 44
1, 395825, Control_c, 0, 64, 58
1, 395840, Control_c, 0, 64, 62
1, 395844, Note_off_c, 0, 67, 44
1, 395854, Control_c, 0, 64, 64
1, 395869, Control_c, 0, 64, 65
1, 395879, Note_on_c, 0, 59, 63
1, 395884, Control_c, 0, 64, 65
1, 395899, Control_c, 0, 64, 66
1, 395913, Control_c, 0, 64, 67
1, 395915, Note_off_c, 0, 57, 56
1, 395924, Note_off_c, 0, 74, 57
1, 395928, Control_c, 0, 64, 68
1, 395943, Control_c, 0, 64, 68
1, 396011, Note_off_c, 0, 59, 61
1, 396077, Control_c, 0, 64, 68
1, 396092, Control_c, 0, 64, 67
1, 396098, Note_on_c, 0, 76, 69
1, 396107, Note_on_c, 0, 59, 57
1, 396107, Control_c, 0, 64, 65
1, 396122, Control_c, 0, 64, 64
1, 396127, Note_on_c, 0, 67, 40
1, 396136, Control_c, 0, 64, 62
1, 396151, Control_c, 0, 64, 60
1, 396166, Control_c, 0, 64, 56
1, 396181, Control_c, 0, 64, 48
1, 396196, Control_c, 0, 64, 38
1, 396210, Control_c, 0, 64, 23
1, 396225, Control_c, 0, 64, 17
1, 396240, Control_c, 0, 64, 15
1, 396299, Note_on_c, 0, 60, 51
1, 396322, Control_c, 0, 64, 17
1, 396334, Note_off_c, 0, 59, 61
1, 396336, Control_c, 0, 64, 19
1, 396366, Control_c, 0, 64, 20
1, 396396, Control_c, 0, 64, 23
1, 396410, Control_c, 0, 64, 28
1, 396425, Control_c, 0, 64, 33
1, 396440, Control_c, 0, 64, 35
1, 396455, Control_c, 0, 64, 38
1, 396470, Control_c, 0, 64, 39
1, 396484, Control_c, 0, 64, 39
1, 396503, Note_on_c, 0, 55, 51
1, 396544, Control_c, 0, 64, 40
1, 396559, Control_c, 0, 64, 41
1, 396564, Note_off_c, 0, 67, 35
1, 396574, Control_c, 0, 64, 42
1, 396616, Note_off_c, 0, 60, 57
1, 396633, Control_c, 0, 64, 41
1, 396648, Control_c, 0, 64, 41
1, 396663, Control_c, 0, 64, 40
1, 396677, Control_c, 0, 64, 40
1, 396692, Control_c, 0, 64, 39
1, 396693, Note_on_c, 0, 67, 42
1, 396699, Note_on_c, 0, 72, 53
1, 396702, Note_on_c, 0, 52, 56
1, 396707, Control_c, 0, 64, 39
1, 396722, Control_c, 0, 64, 38
1, 396736, Control_c, 0, 64, 37
1, 396751, Control_c, 0, 64, 37
1, 396780, Note_off_c, 0, 55, 34
1, 396811, Control_c, 0, 64, 38
1, 396814, Note_off_c, 0, 67, 58
1, 396825, Control_c, 0, 64, 38
1, 396826, Note_off_c, 0, 76, 55
1, 396840, Control_c, 0, 64, 39
1, 396855, Control_c, 0, 64, 42
1, 396870, Control_c, 0, 64, 45
1, 396885, Control_c, 0, 64, 50
1, 396896, Note_on_c, 0, 67, 51
1, 396896, Note_on_c, 0, 74, 55
1, 396899, Control_c, 0, 64, 55
1, 396905, Note_on_c, 0, 53, 57
1, 396910, Note_off_c, 0, 52, 57
1, 396914, Control_c, 0, 64, 59
1, 396929, Control_c, 0, 64, 62
1, 396944, Control_c, 0, 64, 63
1, 396958, Control_c, 0, 64, 64
1, 396973, Control_c, 0, 64, 65
1, 396974, Note_off_c, 0, 72, 56
1, 396988, Control_c, 0, 64, 66
1, 397009, Note_off_c, 0, 67, 56
1, 397011, Control_c, 0, 64, 66
1, 397026, Control_c, 0, 64, 67
1, 397061, Note_off_c, 0, 53, 58
1, 397092, Note_on_c, 0, 67, 48
1, 397093, Note_on_c, 0, 76, 60
1, 397095, Note_on_c, 0, 55, 57
1, 397145, Note_off_c, 0, 55, 59
1, 397161, Note_off_c, 0, 74, 38
1, 397179, Note_off_c, 0, 67, 38
1, 397233, Note_off_c, 0, 76, 45
1, 397262, Control_c, 0, 64, 66
1, 397277, Control_c, 0, 64, 64
1, 397287, Note_on_c, 0, 55, 50
1, 397287, Note_on_c, 0, 67, 60
1, 397291, Note_on_c, 0, 73, 61
1, 397292, Control_c, 0, 64, 59
1, 397307, Control_c, 0, 64, 41
1, 397322, Control_c, 0, 64, 0
1, 397364, Note_on_c, 0, 65, 27
1, 397396, Control_c, 0, 64, 44
1, 397411, Control_c, 0, 64, 61
1, 397426, Control_c, 0, 64, 66
1, 397440, Control_c, 0, 64, 68
1, 397455, Control_c, 0, 64, 69
1, 397470, Control_c, 0, 64, 70
1, 397480, Note_on_c, 0, 74, 62
1, 397484, Control_c, 0, 64, 70
1, 397494, Note_off_c, 0, 65, 51
1, 397497, Note_off_c, 0, 55, 38
1, 397499, Control_c, 0, 64, 72
1, 397514, Control_c, 0, 64, 73
1, 397529, Control_c, 0, 64, 74
1, 397561, Note_off_c, 0, 73, 51
1, 397566, Note_off_c, 0, 67, 51
1, 397585, Note_off_c, 0, 74, 61
1, 397678, Control_c, 0, 64, 73
1, 397693, Control_c, 0, 64, 70
1, 397707, Note_on_c, 0, 79, 68
1, 397708, Control_c, 0, 64, 65
1, 397713, Note_on_c, 0, 64, 44
1, 397722, Control_c, 0, 64, 56
1, 397727, Note_on_c, 0, 55, 41
1, 397727, Note_on_c, 0, 67, 48
1, 397737, Control_c, 0, 64, 0
1, 397804, Control_c, 0, 64, 34
1, 397819, Control_c, 0, 64, 54
1, 397834, Control_c, 0, 64, 62
1, 397849, Control_c, 0, 64, 64
1, 397863, Control_c, 0, 64, 65
1, 397893, Control_c, 0, 64, 65
1, 397904, Note_on_c, 0, 72, 57
1, 397907, Control_c, 0, 64, 66
1, 397922, Control_c, 0, 64, 67
1, 397952, Control_c, 0, 64, 67
1, 397953, Note_off_c, 0, 55, 52
1, 397962, Note_off_c, 0, 79, 54
1, 397965, Note_off_c, 0, 67, 58
1, 397981, Control_c, 0, 64, 68
1, 397990, Note_off_c, 0, 72, 64
1, 397996, Control_c, 0, 64, 68
1, 398026, Control_c, 0, 64, 69
1, 398038, Note_off_c, 0, 64, 49
1, 398055, Control_c, 0, 64, 70
1, 398100, Control_c, 0, 64, 68
1, 398115, Control_c, 0, 64, 64
1, 398121, Note_on_c, 0, 79, 75
1, 398130, Control_c, 0, 64, 55
1, 398133, Note_on_c, 0, 62, 48
1, 398137, Note_on_c, 0, 55, 28
1, 398145, Control_c, 0, 64, 31
1, 398151, Note_on_c, 0, 67, 56
1, 398160, Control_c, 0, 64, 10
1, 398175, Control_c, 0, 64, 28
1, 398189, Control_c, 0, 64, 43
1, 398204, Control_c, 0, 64, 55
1, 398219, Control_c, 0, 64, 63
1, 398234, Control_c, 0, 64, 65
1, 398248, Control_c, 0, 64, 66
1, 398261, Note_off_c, 0, 55, 56
1, 398263, Control_c, 0, 64, 68
1, 398278, Control_c, 0, 64, 69
1, 398293, Control_c, 0, 64, 70
1, 398295, Note_off_c, 0, 62, 58
1, 398307, Control_c, 0, 64, 71
1, 398310, Note_off_c, 0, 67, 60
1, 398322, Control_c, 0, 64, 72
1, 398333, Note_on_c, 0, 71, 56
1, 398337, Control_c, 0, 64, 73
1, 398352, Control_c, 0, 64, 74
1, 398367, Control_c, 0, 64, 75
1, 398397, Control_c, 0, 64, 76
1, 398411, Note_off_c, 0, 71, 63
1, 398414, Note_off_c, 0, 79, 51
1, 398538, Control_c, 0, 64, 75
1, 398568, Control_c, 0, 64, 74
1, 398583, Control_c, 0, 64, 73
1, 398598, Control_c, 0, 64, 72
1, 398609, Note_on_c, 0, 67, 37
1, 398612, Control_c, 0, 64, 70
1, 398625, Note_on_c, 0, 64, 34
1, 398627, Control_c, 0, 64, 68
1, 398641, Note_on_c, 0, 60, 30
1, 398642, Control_c, 0, 64, 66
1, 398644, Note_on_c, 0, 81, 70
1, 398657, Control_c, 0, 64, 63
1, 398672, Control_c, 0, 64, 58
1, 398686, Control_c, 0, 64, 48
1, 398701, Control_c, 0, 64, 30
1, 398716, Control_c, 0, 64, 0
1, 398834, Control_c, 0, 64, 23
1, 398849, Control_c, 0, 64, 47
1, 398864, Control_c, 0, 64, 56
1, 398878, Control_c, 0, 64, 59
1, 398893, Control_c, 0, 64, 60
1, 398908, Control_c, 0, 64, 60
1, 398923, Control_c, 0, 64, 62
1, 398935, Note_on_c, 0, 79, 66
1, 398938, Control_c, 0, 64, 64
1, 398953, Control_c, 0, 64, 66
1, 398968, Control_c, 0, 64, 68
1, 398982, Control_c, 0, 64, 70
1, 398997, Control_c, 0, 64, 71
1, 399012, Control_c, 0, 64, 73
1, 399027, Control_c, 0, 64, 75
1, 399042, Control_c, 0, 64, 77
1, 399042, Note_off_c, 0, 67, 41
1, 399057, Control_c, 0, 64, 79
1, 399072, Control_c, 0, 64, 79
1, 399087, Control_c, 0, 64, 80
1, 399102, Control_c, 0, 64, 81
1, 399117, Control_c, 0, 64, 83
1, 399131, Control_c, 0, 64, 85
1, 399132, Note_on_c, 0, 76, 72
1, 399146, Control_c, 0, 64, 86
1, 399161, Control_c, 0, 64, 87
1, 399167, Note_off_c, 0, 81, 57
1, 399191, Control_c, 0, 64, 87
1, 399241, Note_off_c, 0, 60, 39
1, 399262, Note_off_c, 0, 64, 42
1, 399329, Note_on_c, 0, 72, 62
1, 399385, Note_off_c, 0, 76, 64
1, 399412, Note_off_c, 0, 72, 59
1, 399445, Note_off_c, 0, 79, 38
1, 399480, Control_c, 0, 64, 87
1, 399495, Control_c, 0, 64, 86
1, 399510, Control_c, 0, 64, 84
1, 399525, Control_c, 0, 64, 80
1, 399525, Note_on_c, 0, 76, 63
1, 399532, Note_on_c, 0, 60, 50
1, 399537, Note_on_c, 0, 79, 68
1, 399540, Control_c, 0, 64, 76
1, 399554, Control_c, 0, 64, 70
1, 399569, Control_c, 0, 64, 65
1, 399576, Note_on_c, 0, 67, 44
1, 399584, Control_c, 0, 64, 57
1, 399599, Control_c, 0, 64, 36
1, 399614, Control_c, 0, 64, 0
1, 399674, Note_off_c, 0, 79, 58
1, 399689, Note_off_c, 0, 67, 41
1, 399733, Note_on_c, 0, 61, 68
1, 399754, Note_off_c, 0, 76, 65
1, 399786, Note_off_c, 0, 60, 54
1, 399986, Note_on_c, 0, 64, 49
1, 400007, Note_on_c, 0, 77, 71
1, 400011, Note_off_c, 0, 61, 47
1, 400011, Note_on_c, 0, 79, 66
1, 400061, Note_on_c, 0, 67, 28
1, 400214, Control_c, 0, 64, 8
1, 400229, Control_c, 0, 64, 17
1, 400233, Note_on_c, 0, 62, 53
1, 400244, Control_c, 0, 64, 23
1, 400258, Control_c, 0, 64, 31
1, 400273, Control_c, 0, 64, 38
1, 400285, Note_off_c, 0, 64, 56
1, 400288, Control_c, 0, 64, 43
1, 400303, Control_c, 0, 64, 46
1, 400318, Control_c, 0, 64, 48
1, 400333, Control_c, 0, 64, 49
1, 400348, Control_c, 0, 64, 52
1, 400363, Control_c, 0, 64, 54
1, 400377, Control_c, 0, 64, 55
1, 400407, Control_c, 0, 64, 56
1, 400416, Note_on_c, 0, 59, 51
1, 400422, Control_c, 0, 64, 58
1, 400437, Control_c, 0, 64, 61
1, 400451, Control_c, 0, 64, 63
1, 400466, Control_c, 0, 64, 65
1, 400466, Control_c, 0, 67, 9
1, 400481, Control_c, 0, 64, 67
1, 400481, Control_c, 0, 67, 19
1, 400495, Control_c, 0, 64, 69
1, 400495, Control_c, 0, 67, 29
1, 400510, Control_c, 0, 64, 72
1, 400510, Control_c, 0, 67, 38
1, 400525, Control_c, 0, 64, 74
1, 400525, Control_c, 0, 67, 48
1, 400528, Note_off_c, 0, 62, 30
1, 400540, Control_c, 0, 64, 76
1, 400540, Control_c, 0, 67, 59
1, 400555, Control_c, 0, 64, 76
1, 400555, Control_c, 0, 67, 69
1, 400569, Control_c, 0, 67, 79
1, 400574, Note_off_c, 0, 67, 27
1, 400584, Control_c, 0, 67, 89
1, 400599, Control_c, 0, 67, 98
1, 400614, Control_c, 0, 67, 106
1, 400629, Control_c, 0, 67, 112
1, 400639, Note_on_c, 0, 55, 33
1, 400643, Control_c, 0, 67, 117
1, 400658, Control_c, 0, 67, 121
1, 400666, Note_off_c, 0, 59, 56
1, 400673, Control_c, 0, 67, 125
1, 400688, Control_c, 0, 67, 127
1, 400696, Note_off_c, 0, 55, 60
1, 400696, Note_off_c, 0, 79, 16
1, 400713, Note_off_c, 0, 77, 34
1, 400801, Control_c, 0, 64, 76
1, 400807, Note_on_c, 0, 59, 54
1, 400815, Control_c, 0, 64, 74
1, 400821, Note_on_c, 0, 79, 68
1, 400830, Control_c, 0, 64, 70
1, 400834, Note_on_c, 0, 74, 62
1, 400845, Control_c, 0, 64, 65
1, 400845, Note_on_c, 0, 67, 45
1, 400860, Control_c, 0, 64, 59
1, 400874, Control_c, 0, 64, 36
1, 400889, Control_c, 0, 64, 0
1, 400899, Note_off_c, 0, 59, 57
1, 400929, Note_on_c, 0, 55, 48
1, 400933, Control_c, 0, 64, 32
1, 400948, Control_c, 0, 64, 50
1, 400963, Control_c, 0, 64, 59
1, 400978, Control_c, 0, 64, 62
1, 400993, Control_c, 0, 64, 63
1, 400996, Note_on_c, 0, 57, 9
1, 401007, Control_c, 0, 64, 63
1, 401023, Note_off_c, 0, 55, 58
1, 401035, Note_off_c, 0, 79, 57
1, 401037, Control_c, 0, 64, 64
1, 401066, Note_off_c, 0, 67, 33
1, 401067, Control_c, 0, 64, 64
1, 401095, Note_on_c, 0, 59, 60
1, 401102, Note_off_c, 0, 57, 54
1, 401170, Control_c, 0, 64, 64
1, 401185, Control_c, 0, 64, 62
1, 401198, Note_off_c, 0, 59, 59
1, 401200, Control_c, 0, 64, 59
1, 401215, Control_c, 0, 64, 49
1, 401227, Note_on_c, 0, 79, 69
1, 401227, Note_on_c, 0, 62, 55
1, 401230, Control_c, 0, 64, 24
1, 401234, Note_on_c, 0, 76, 62
1, 401245, Control_c, 0, 64, 0
1, 401248, Note_on_c, 0, 67, 44
1, 401265, Note_off_c, 0, 74, 56
1, 401317, Control_c, 0, 64, 38
1, 401332, Control_c, 0, 64, 46
1, 401347, Control_c, 0, 64, 48
1, 401362, Control_c, 0, 64, 50
1, 401377, Control_c, 0, 64, 53
1, 401391, Control_c, 0, 64, 58
1, 401406, Control_c, 0, 64, 60
1, 401421, Control_c, 0, 64, 61
1, 401425, Note_off_c, 0, 62, 53
1, 401432, Note_on_c, 0, 60, 51
1, 401436, Control_c, 0, 64, 61
1, 401480, Control_c, 0, 64, 62
1, 401532, Control_c, 0, 67, 126
1, 401547, Control_c, 0, 67, 123
1, 401562, Control_c, 0, 67, 121
1, 401578, Control_c, 0, 67, 119
1, 401593, Control_c, 0, 67, 117
1, 401594, Note_off_c, 0, 60, 50
1, 401608, Control_c, 0, 64, 61
1, 401608, Control_c, 0, 67, 114
1, 401622, Control_c, 0, 67, 112
1, 401635, Note_on_c, 0, 55, 49
1, 401637, Control_c, 0, 67, 111
1, 401652, Control_c, 0, 64, 61
1, 401652, Control_c, 0, 67, 110
1, 401684, Note_off_c, 0, 67, 60
1, 401755, Control_c, 0, 67, 110
1, 401770, Control_c, 0, 64, 60
1, 401800, Control_c, 0, 64, 60
1, 401823, Note_on_c, 0, 67, 46
1, 401829, Note_on_c, 0, 72, 55
1, 401833, Note_on_c, 0, 52, 47
1, 401844, Control_c, 0, 67, 109
1, 401880, Note_off_c, 0, 55, 33
1, 401919, Control_c, 0, 64, 60
1, 401926, Note_off_c, 0, 76, 34
1, 401934, Control_c, 0, 64, 61
1, 401951, Note_off_c, 0, 67, 61
1, 401963, Control_c, 0, 64, 61
1, 402029, Note_on_c, 0, 74, 56
1, 402038, Note_on_c, 0, 67, 52
1, 402041, Note_on_c, 0, 50, 52
1, 402082, Note_off_c, 0, 72, 36
1, 402157, Note_off_c, 0, 67, 59
1, 402168, Note_off_c, 0, 79, 49
1, 402170, Note_off_c, 0, 52, 36
1, 402201, Control_c, 0, 67, 109
1, 402219, Note_on_c, 0, 67, 53
1, 402229, Note_on_c, 0, 76, 68
1, 402236, Note_on_c, 0, 48, 53
1, 402267, Control_c, 0, 64, 61
1, 402275, Note_off_c, 0, 74, 40
1, 402281, Note_off_c, 0, 50, 36
1, 402297, Control_c, 0, 67, 108
1, 402312, Control_c, 0, 67, 108
1, 402327, Control_c, 0, 64, 60
1, 402327, Control_c, 0, 67, 106
1, 402342, Control_c, 0, 64, 60
1, 402342, Control_c, 0, 67, 103
1, 402345, Note_off_c, 0, 67, 59
1, 402356, Control_c, 0, 64, 59
1, 402356, Control_c, 0, 67, 100
1, 402372, Control_c, 0, 64, 55
1, 402372, Control_c, 0, 67, 96
1, 402387, Control_c, 0, 64, 46
1, 402387, Control_c, 0, 67, 91
1, 402402, Control_c, 0, 64, 12
1, 402402, Control_c, 0, 67, 86
1, 402416, Control_c, 0, 64, 0
1, 402416, Control_c, 0, 67, 84
1, 402418, Note_off_c, 0, 48, 59
1, 402427, Note_on_c, 0, 47, 51
1, 402431, Control_c, 0, 67, 82
1, 402442, Note_off_c, 0, 76, 61
1, 402446, Control_c, 0, 67, 80
1, 402448, Note_on_c, 0, 73, 63
1, 402455, Note_on_c, 0, 67, 58
1, 402461, Control_c, 0, 67, 78
1, 402476, Control_c, 0, 67, 76
1, 402491, Control_c, 0, 67, 74
1, 402505, Control_c, 0, 64, 50
1, 402505, Control_c, 0, 67, 73
1, 402520, Control_c, 0, 64, 63
1, 402520, Control_c, 0, 67, 72
1, 402535, Control_c, 0, 64, 67
1, 402535, Control_c, 0, 67, 71
1, 402550, Control_c, 0, 64, 70
1, 402565, Control_c, 0, 64, 72
1, 402565, Control_c, 0, 67, 70
1, 402579, Control_c, 0, 64, 74
1, 402594, Control_c, 0, 64, 77
1, 402601, Note_off_c, 0, 47, 61
1, 402609, Control_c, 0, 64, 78
1, 402609, Control_c, 0, 67, 70
1, 402624, Control_c, 0, 64, 79
1, 402639, Note_on_c, 0, 74, 65
1, 402639, Control_c, 0, 67, 69
1, 402652, Note_off_c, 0, 67, 49
1, 402653, Control_c, 0, 67, 69
1, 402668, Control_c, 0, 67, 68
1, 402683, Control_c, 0, 67, 67
1, 402697, Control_c, 0, 67, 66
1, 402705, Note_off_c, 0, 73, 61
1, 402710, Note_off_c, 0, 74, 64
1, 402712, Control_c, 0, 67, 65
1, 402727, Control_c, 0, 67, 64
1, 402742, Control_c, 0, 67, 64
1, 402831, Control_c, 0, 64, 78
1, 402846, Control_c, 0, 64, 75
1, 402849, Note_on_c, 0, 83, 72
1, 402861, Control_c, 0, 64, 69
1, 402870, Note_on_c, 0, 50, 33
1, 402870, Note_on_c, 0, 62, 23
1, 402875, Control_c, 0, 64, 63
1, 402875, Control_c, 0, 67, 63
1, 402890, Control_c, 0, 64, 52
1, 402903, Note_on_c, 0, 71, 34
1, 402905, Control_c, 0, 64, 40
1, 402920, Control_c, 0, 64, 44
1, 402935, Control_c, 0, 64, 51
1, 402950, Control_c, 0, 64, 58
1, 402965, Control_c, 0, 64, 63
1, 402979, Control_c, 0, 64, 66
1, 403001, Control_c, 0, 64, 69
1, 403016, Control_c, 0, 64, 71
1, 403016, Control_c, 0, 67, 63
1, 403017, Note_off_c, 0, 83, 59
1, 403019, Note_off_c, 0, 50, 48
1, 403030, Control_c, 0, 64, 72
1, 403045, Control_c, 0, 64, 74
1, 403060, Control_c, 0, 64, 75
1, 403065, Note_on_c, 0, 79, 71
1, 403069, Note_off_c, 0, 62, 43
1, 403075, Control_c, 0, 64, 75
1, 403075, Control_c, 0, 67, 63
1, 403090, Control_c, 0, 64, 76
1, 403105, Control_c, 0, 67, 64
1, 403105, Note_off_c, 0, 71, 57
1, 403131, Note_off_c, 0, 79, 57
1, 403254, Control_c, 0, 64, 73
1, 403264, Note_on_c, 0, 78, 72
1, 403267, Note_on_c, 0, 50, 36
1, 403269, Control_c, 0, 64, 69
1, 403275, Note_on_c, 0, 62, 29
1, 403284, Control_c, 0, 64, 63
1, 403299, Control_c, 0, 64, 53
1, 403314, Control_c, 0, 64, 31
1, 403318, Note_on_c, 0, 69, 29
1, 403329, Control_c, 0, 64, 15
1, 403343, Control_c, 0, 64, 28
1, 403358, Control_c, 0, 64, 39
1, 403373, Note_off_c, 0, 50, 47
1, 403373, Control_c, 0, 64, 51
1, 403388, Control_c, 0, 64, 62
1, 403403, Control_c, 0, 64, 65
1, 403418, Control_c, 0, 64, 67
1, 403433, Control_c, 0, 64, 68
1, 403448, Control_c, 0, 64, 68
1, 403463, Control_c, 0, 64, 69
1, 403470, Note_on_c, 0, 74, 60
1, 403472, Note_on_c, 0, 60, 49
1, 403477, Control_c, 0, 64, 71
1, 403492, Control_c, 0, 64, 72
1, 403507, Control_c, 0, 64, 73
1, 403513, Note_on_c, 0, 66, 43
1, 403522, Note_off_c, 0, 69, 42
1, 403531, Note_off_c, 0, 62, 39
1, 403555, Note_off_c, 0, 66, 60
1, 403556, Note_off_c, 0, 74, 60
1, 403604, Note_off_c, 0, 78, 47
1, 403660, Note_off_c, 0, 60, 59
1, 403669, Control_c, 0, 64, 73
1, 403684, Control_c, 0, 64, 71
1, 403694, Note_on_c, 0, 59, 37
1, 403694, Note_on_c, 0, 79, 65
1, 403698, Note_on_c, 0, 55, 42
1, 403699, Control_c, 0, 64, 69
1, 403714, Control_c, 0, 64, 67
1, 403725, Note_on_c, 0, 67, 49
1, 403728, Control_c, 0, 64, 64
1, 403751, Control_c, 0, 64, 61
1, 403766, Control_c, 0, 64, 55
1, 403781, Control_c, 0, 64, 49
1, 403796, Control_c, 0, 64, 40
1, 403810, Control_c, 0, 64, 32
1, 403825, Control_c, 0, 64, 22
1, 403825, Control_c, 0, 67, 63
1, 403840, Control_c, 0, 64, 8
1, 403840, Control_c, 0, 67, 63
1, 403854, Control_c, 0, 64, 0
1, 403854, Control_c, 0, 67, 62
1, 403899, Control_c, 0, 67, 61
1, 403905, Note_on_c, 0, 60, 51
1, 403914, Control_c, 0, 67, 58
1, 403917, Note_on_c, 0, 69, 69
1, 403928, Control_c, 0, 67, 55
1, 403940, Note_off_c, 0, 67, 53
1, 403943, Control_c, 0, 67, 51
1, 403958, Control_c, 0, 67, 47
1, 403974, Control_c, 0, 67, 45
1, 403989, Control_c, 0, 67, 43
1, 404004, Control_c, 0, 67, 41
1, 404008, Note_off_c, 0, 59, 41
1, 404018, Control_c, 0, 64, 14
1, 404018, Control_c, 0, 67, 40
1, 404033, Control_c, 0, 64, 19
1, 404033, Control_c, 0, 67, 38
1, 404048, Control_c, 0, 64, 25
1, 404048, Control_c, 0, 67, 36
1, 404063, Control_c, 0, 64, 32
1, 404063, Control_c, 0, 67, 34
1, 404077, Control_c, 0, 64, 40
1, 404077, Control_c, 0, 67, 31
1, 404091, Note_off_c, 0, 60, 61
1, 404092, Control_c, 0, 64, 47
1, 404092, Control_c, 0, 67, 27
1, 404107, Control_c, 0, 64, 51
1, 404107, Control_c, 0, 67, 24
1, 404109, Note_on_c, 0, 71, 75
1, 404113, Note_on_c, 0, 62, 57
1, 404122, Control_c, 0, 64, 53
1, 404122, Control_c, 0, 67, 19
1, 404126, Note_off_c, 0, 69, 63
1, 404137, Control_c, 0, 64, 54
1, 404137, Control_c, 0, 67, 14
1, 404151, Control_c, 0, 64, 57
1, 404151, Control_c, 0, 67, 8
1, 404166, Control_c, 0, 64, 61
1, 404166, Control_c, 0, 67, 0
1, 404181, Control_c, 0, 64, 63
1, 404196, Control_c, 0, 64, 65
1, 404211, Control_c, 0, 64, 67
1, 404226, Control_c, 0, 64, 69
1, 404241, Control_c, 0, 64, 71
1, 404300, Note_on_c, 0, 60, 49
1, 404310, Note_on_c, 0, 69, 74
1, 404338, Note_off_c, 0, 62, 36
1, 404351, Note_off_c, 0, 60, 62
1, 404360, Note_off_c, 0, 55, 62
1, 404363, Note_off_c, 0, 71, 57
1, 404370, Note_off_c, 0, 79, 25
1, 404448, Control_c, 0, 64, 70
1, 404462, Control_c, 0, 64, 70
1, 404477, Control_c, 0, 64, 68
1, 404500, Control_c, 0, 64, 66
1, 404515, Control_c, 0, 64, 63
1, 404530, Control_c, 0, 64, 55
1, 404531, Note_on_c, 0, 59, 48
1, 404534, Note_on_c, 0, 55, 42
1, 404538, Note_on_c, 0, 67, 73
1, 404544, Control_c, 0, 64, 29
1, 404559, Control_c, 0, 64, 0
1, 404617, Note_off_c, 0, 69, 62
1, 404648, Control_c, 0, 64, 50
1, 404663, Control_c, 0, 64, 62
1, 404677, Control_c, 0, 64, 64
1, 404692, Control_c, 0, 64, 64
1, 404707, Control_c, 0, 64, 66
1, 404722, Control_c, 0, 64, 69
1, 404724, Note_off_c, 0, 67, 62
1, 404737, Control_c, 0, 64, 73
1, 404745, Note_on_c, 0, 52, 67
1, 404751, Control_c, 0, 64, 76
1, 404794, Note_off_c, 0, 59, 35
1, 404974, Control_c, 0, 64, 75
1, 404982, Note_on_c, 0, 49, 51
1, 404989, Control_c, 0, 64, 74
1, 405004, Control_c, 0, 64, 73
1, 405006, Note_off_c, 0, 55, 31
1, 405019, Control_c, 0, 64, 71
1, 405022, Note_off_c, 0, 52, 60
1, 405034, Control_c, 0, 64, 69
1, 405048, Note_on_c, 0, 69, 72
1, 405048, Control_c, 0, 64, 67
1, 405051, Note_on_c, 0, 67, 70
1, 405063, Control_c, 0, 64, 64
1, 405078, Control_c, 0, 64, 62
1, 405092, Control_c, 0, 64, 57
1, 405107, Control_c, 0, 64, 49
1, 405122, Control_c, 0, 64, 43
1, 405137, Control_c, 0, 64, 38
1, 405152, Control_c, 0, 64, 37
1, 405211, Control_c, 0, 64, 38
1, 405226, Control_c, 0, 64, 38
1, 405248, Control_c, 0, 64, 39
1, 405263, Control_c, 0, 64, 40
1, 405293, Note_on_c, 0, 50, 56
1, 405381, Control_c, 0, 64, 40
1, 405392, Note_off_c, 0, 49, 38
1, 405396, Control_c, 0, 64, 39
1, 405411, Control_c, 0, 64, 39
1, 405425, Control_c, 0, 64, 38
1, 405440, Control_c, 0, 64, 37
1, 405455, Control_c, 0, 64, 36
1, 405470, Control_c, 0, 64, 36
1, 405485, Control_c, 0, 64, 34
1, 405486, Note_on_c, 0, 65, 68
1, 405489, Note_on_c, 0, 53, 66
1, 405499, Control_c, 0, 64, 32
1, 405507, Note_off_c, 0, 50, 63
1, 405514, Control_c, 0, 64, 31
1, 405529, Control_c, 0, 64, 31
1, 405544, Control_c, 0, 64, 31
1, 405559, Control_c, 0, 64, 34
1, 405574, Note_off_c, 0, 67, 53
1, 405575, Control_c, 0, 64, 35
1, 405589, Control_c, 0, 64, 35
1, 405600, Note_off_c, 0, 69, 60
1, 405604, Control_c, 0, 64, 36
1, 405619, Control_c, 0, 64, 37
1, 405634, Control_c, 0, 64, 39
1, 405649, Control_c, 0, 64, 41
1, 405663, Control_c, 0, 64, 42
1, 405677, Note_on_c, 0, 57, 70
1, 405681, Note_on_c, 0, 64, 66
1, 405731, Note_off_c, 0, 53, 62
1, 405731, Note_off_c, 0, 65, 61
1, 405737, Control_c, 0, 64, 43
1, 405752, Control_c, 0, 64, 43
1, 405767, Control_c, 0, 64, 44
1, 405782, Control_c, 0, 64, 45
1, 405827, Control_c, 0, 64, 44
1, 405856, Control_c, 0, 64, 44
1, 405871, Control_c, 0, 64, 43
1, 405877, Note_on_c, 0, 69, 63
1, 405880, Note_on_c, 0, 62, 71
1, 405880, Note_on_c, 0, 65, 57
1, 405880, Note_off_c, 0, 57, 62
1, 405904, Note_off_c, 0, 64, 63
1, 405916, Control_c, 0, 64, 43
1, 405931, Control_c, 0, 64, 44
1, 405946, Control_c, 0, 64, 47
1, 405961, Control_c, 0, 64, 50
1, 405976, Control_c, 0, 64, 52
1, 405997, Control_c, 0, 64, 53
1, 406041, Control_c, 0, 64, 53
1, 406056, Control_c, 0, 64, 54
1, 406079, Note_on_c, 0, 60, 61
1, 406083, Note_on_c, 0, 74, 63
1, 406086, Control_c, 0, 64, 55
1, 406088, Note_off_c, 0, 69, 63
1, 406092, Note_off_c, 0, 65, 59
1, 406101, Control_c, 0, 64, 55
1, 406113, Note_off_c, 0, 62, 55
1, 406116, Control_c, 0, 64, 56
1, 406131, Control_c, 0, 64, 58
1, 406146, Control_c, 0, 64, 59
1, 406160, Control_c, 0, 64, 60
1, 406175, Control_c, 0, 64, 60
1, 406190, Control_c, 0, 64, 59
1, 406205, Control_c, 0, 64, 55
1, 406220, Control_c, 0, 64, 43
1, 406235, Control_c, 0, 64, 0
1, 406269, Note_off_c, 0, 60, 54
1, 406280, Note_on_c, 0, 59, 58
1, 406283, Note_on_c, 0, 67, 69
1, 406287, Note_on_c, 0, 65, 62
1, 406309, Control_c, 0, 64, 42
1, 406323, Control_c, 0, 64, 58
1, 406324, Note_off_c, 0, 74, 61
1, 406338, Control_c, 0, 64, 63
1, 406353, Control_c, 0, 64, 64
1, 406369, Control_c, 0, 64, 64
1, 406384, Control_c, 0, 64, 65
1, 406399, Control_c, 0, 64, 67
1, 406413, Control_c, 0, 64, 69
1, 406428, Control_c, 0, 64, 70
1, 406456, Note_off_c, 0, 59, 52
1, 406502, Note_on_c, 0, 60, 63
1, 406554, Note_off_c, 0, 60, 41
1, 406575, Control_c, 0, 64, 69
1, 406578, Note_on_c, 0, 62, 67
1, 406590, Control_c, 0, 64, 66
1, 406605, Control_c, 0, 64, 62
1, 406619, Control_c, 0, 64, 50
1, 406634, Control_c, 0, 64, 0
1, 406657, Note_off_c, 0, 62, 57
1, 406666, Note_on_c, 0, 72, 64
1, 406669, Note_on_c, 0, 60, 63
1, 406679, Note_on_c, 0, 64, 56
1, 406690, Note_off_c, 0, 65, 55
1, 406693, Note_off_c, 0, 67, 52
1, 406745, Control_c, 0, 64, 36
1, 406760, Control_c, 0, 64, 55
1, 406775, Control_c, 0, 64, 62
1, 406790, Control_c, 0, 64, 63
1, 406805, Control_c, 0, 64, 64
1, 406819, Control_c, 0, 64, 64
1, 406834, Control_c, 0, 64, 65
1, 406849, Control_c, 0, 64, 66
1, 406851, Note_off_c, 0, 60, 40
1, 406854, Note_off_c, 0, 72, 61
1, 406864, Control_c, 0, 64, 67
1, 406873, Note_on_c, 0, 55, 66
1, 407042, Control_c, 0, 64, 66
1, 407057, Control_c, 0, 64, 65
1, 407071, Control_c, 0, 64, 61
1, 407074, Note_on_c, 0, 53, 61
1, 407076, Note_on_c, 0, 74, 66
1, 407082, Note_on_c, 0, 67, 62
1, 407086, Control_c, 0, 64, 45
1, 407096, Note_off_c, 0, 55, 51
1, 407101, Control_c, 0, 64, 0
1, 407127, Note_off_c, 0, 64, 63
1, 407176, Control_c, 0, 64, 36
1, 407191, Control_c, 0, 64, 57
1, 407206, Control_c, 0, 64, 63
1, 407221, Control_c, 0, 64, 64
1, 407265, Control_c, 0, 64, 64
1, 407276, Note_on_c, 0, 50, 51
1, 407280, Control_c, 0, 64, 65
1, 407308, Control_c, 0, 64, 65
1, 407326, Note_off_c, 0, 67, 54
1, 407326, Note_off_c, 0, 53, 61
1, 407442, Control_c, 0, 64, 65
1, 407495, Note_on_c, 0, 48, 48
1, 407502, Note_off_c, 0, 74, 60
1, 407508, Control_c, 0, 64, 64
1, 407511, Note_on_c, 0, 76, 60
1, 407523, Control_c, 0, 64, 63
1, 407538, Control_c, 0, 64, 60
1, 407542, Note_off_c, 0, 50, 34
1, 407546, Note_on_c, 0, 72, 55
1, 407553, Control_c, 0, 64, 51
1, 407567, Control_c, 0, 64, 17
1, 407582, Control_c, 0, 64, 0
1, 407642, Control_c, 0, 64, 36
1, 407642, Control_c, 0, 67, 9
1, 407657, Control_c, 0, 64, 54
1, 407657, Control_c, 0, 67, 19
1, 407672, Control_c, 0, 64, 61
1, 407672, Control_c, 0, 67, 29
1, 407687, Control_c, 0, 64, 63
1, 407687, Control_c, 0, 67, 38
1, 407701, Control_c, 0, 64, 64
1, 407701, Control_c, 0, 67, 47
1, 407716, Control_c, 0, 67, 56
1, 407726, Note_off_c, 0, 48, 61
1, 407729, Note_off_c, 0, 72, 53
1, 407731, Control_c, 0, 67, 64
1, 407746, Control_c, 0, 67, 71
1, 407755, Note_on_c, 0, 67, 63
1, 407757, Note_on_c, 0, 74, 59
1, 407760, Control_c, 0, 64, 64
1, 407760, Control_c, 0, 67, 76
1, 407762, Note_on_c, 0, 47, 59
1, 407775, Control_c, 0, 67, 81
1, 407790, Control_c, 0, 67, 83
1, 407805, Control_c, 0, 67, 85
1, 407819, Control_c, 0, 67, 85
1, 407839, Note_off_c, 0, 76, 40
1, 407910, Note_off_c, 0, 67, 55
1, 407923, Control_c, 0, 64, 64
1, 407938, Control_c, 0, 64, 63
1, 407949, Note_off_c, 0, 47, 58
1, 407951, Note_on_c, 0, 64, 57
1, 407953, Control_c, 0, 64, 62
1, 407954, Note_on_c, 0, 45, 55
1, 407955, Note_on_c, 0, 72, 67
1, 407969, Control_c, 0, 64, 56
1, 407969, Control_c, 0, 67, 86
1, 407973, Note_off_c, 0, 74, 60
1, 407983, Control_c, 0, 64, 46
1, 407998, Control_c, 0, 64, 38
1, 408028, Control_c, 0, 64, 39
1, 408042, Control_c, 0, 64, 40
1, 408057, Control_c, 0, 64, 42
1, 408072, Control_c, 0, 64, 43
1, 408087, Control_c, 0, 64, 45
1, 408102, Control_c, 0, 64, 46
1, 408136, Note_off_c, 0, 64, 61
1, 408137, Note_off_c, 0, 72, 64
1, 408144, Note_off_c, 0, 45, 59
1, 408146, Control_c, 0, 64, 46
1, 408150, Note_on_c, 0, 74, 62
1, 408155, Note_on_c, 0, 43, 47
1, 408165, Note_on_c, 0, 71, 54
1, 408176, Control_c, 0, 64, 47
1, 408190, Control_c, 0, 64, 48
1, 408190, Control_c, 0, 67, 87
1, 408205, Control_c, 0, 67, 87
1, 408220, Control_c, 0, 67, 89
1, 408242, Control_c, 0, 67, 92
1, 408257, Control_c, 0, 67, 94
1, 408272, Control_c, 0, 64, 47
1, 408272, Control_c, 0, 67, 98
1, 408287, Control_c, 0, 64, 47
1, 408287, Control_c, 0, 67, 101
1, 408302, Control_c, 0, 64, 46
1, 408302, Control_c, 0, 67, 103
1, 408308, Note_off_c, 0, 74, 59
1, 408316, Control_c, 0, 64, 43
1, 408316, Control_c, 0, 67, 105
1, 408331, Control_c, 0, 64, 36
1, 408331, Control_c, 0, 67, 108
1, 408346, Control_c, 0, 64, 0
1, 408346, Control_c, 0, 67, 111
1, 408361, Control_c, 0, 67, 114
1, 408364, Note_off_c, 0, 71, 51
1, 408376, Control_c, 0, 67, 117
1, 408389, Note_on_c, 0, 75, 56
1, 408390, Note_on_c, 0, 42, 45
1, 408390, Control_c, 0, 67, 122
1, 408395, Note_off_c, 0, 43, 40
1, 408404, Note_on_c, 0, 72, 29
1, 408405, Control_c, 0, 67, 127
1, 408420, Control_c, 0, 67, 127
1, 408480, Control_c, 0, 64, 36
1, 408494, Control_c, 0, 64, 54
1, 408509, Control_c, 0, 64, 59
1, 408524, Control_c, 0, 64, 62
1, 408539, Control_c, 0, 64, 63
1, 408550, Note_off_c, 0, 72, 35
1, 408554, Control_c, 0, 64, 64
1, 408569, Control_c, 0, 64, 65
1, 408584, Control_c, 0, 64, 65
1, 408596, Note_on_c, 0, 81, 64
1, 408630, Note_off_c, 0, 75, 64
1, 408694, Note_off_c, 0, 42, 41
1, 408762, Control_c, 0, 64, 65
1, 408807, Control_c, 0, 64, 64
1, 408807, Note_on_c, 0, 43, 37
1, 408822, Note_on_c, 0, 76, 61
1, 408822, Control_c, 0, 64, 64
1, 408837, Control_c, 0, 64, 63
1, 408840, Note_on_c, 0, 72, 52
1, 408852, Control_c, 0, 64, 61
1, 408866, Control_c, 0, 64, 57
1, 408881, Control_c, 0, 64, 49
1, 408896, Control_c, 0, 64, 34
1, 408911, Control_c, 0, 64, 0
1, 408945, Note_off_c, 0, 81, 24
1, 409040, Note_on_c, 0, 54, 52
1, 409058, Note_off_c, 0, 43, 39
1, 409217, Note_off_c, 0, 72, 55
1, 409221, Note_off_c, 0, 54, 61
1, 409256, Note_on_c, 0, 74, 55
1, 409265, Note_on_c, 0, 55, 38
1, 409271, Note_off_c, 0, 76, 58
1, 409293, Note_on_c, 0, 71, 33
1, 409337, Note_off_c, 0, 71, 50
1, 409418, Note_off_c, 0, 74, 59
1, 409473, Note_off_c, 0, 55, 63
1, 409487, Note_on_c, 0, 57, 51
1, 409571, Note_off_c, 0, 57, 58
1, 409576, Note_on_c, 0, 59, 61
1, 409633, Note_off_c, 0, 59, 62
1, 409655, Note_on_c, 0, 76, 67
1, 409657, Note_on_c, 0, 60, 59
1, 409672, Note_on_c, 0, 67, 45
1, 409769, Note_off_c, 0, 67, 55
1, 409807, Note_off_c, 0, 76, 63
1, 409815, Control_c, 0, 64, 10
1, 409830, Control_c, 0, 64, 37
1, 409845, Control_c, 0, 64, 48
1, 409860, Control_c, 0, 64, 53
1, 409875, Control_c, 0, 64, 55
1, 409886, Note_off_c, 0, 60, 58
1, 409889, Control_c, 0, 64, 56
1, 409890, Note_on_c, 0, 61, 68
1, 409904, Control_c, 0, 64, 57
1, 409919, Control_c, 0, 64, 58
1, 409934, Control_c, 0, 64, 59
1, 409949, Control_c, 0, 64, 61
1, 409963, Control_c, 0, 64, 63
1, 409978, Control_c, 0, 64, 64
1, 409993, Control_c, 0, 64, 65
1, 410007, Control_c, 0, 64, 67
1, 410022, Control_c, 0, 64, 68
1, 410037, Control_c, 0, 64, 70
1, 410052, Control_c, 0, 64, 72
1, 410067, Control_c, 0, 64, 73
1, 410068, Note_off_c, 0, 61, 58
1, 410081, Control_c, 0, 64, 74
1, 410192, Note_on_c, 0, 61, 50
1, 410200, Control_c, 0, 64, 73
1, 410204, Note_on_c, 0, 77, 69
1, 410214, Control_c, 0, 64, 72
1, 410229, Control_c, 0, 64, 71
1, 410244, Control_c, 0, 64, 68
1, 410247, Note_on_c, 0, 67, 31
1, 410259, Control_c, 0, 64, 65
1, 410274, Control_c, 0, 64, 63
1, 410289, Control_c, 0, 64, 60
1, 410304, Control_c, 0, 64, 56
1, 410319, Control_c, 0, 64, 51
1, 410334, Control_c, 0, 64, 45
1, 410349, Control_c, 0, 64, 42
1, 410364, Control_c, 0, 64, 41
1, 410379, Control_c, 0, 64, 40
1, 410393, Control_c, 0, 64, 39
1, 410408, Control_c, 0, 64, 38
1, 410423, Control_c, 0, 64, 36
1, 410438, Control_c, 0, 64, 35
1, 410453, Control_c, 0, 64, 36
1, 410458, Note_on_c, 0, 62, 48
1, 410468, Control_c, 0, 64, 36
1, 410490, Control_c, 0, 64, 37
1, 410501, Note_off_c, 0, 61, 37
1, 410505, Control_c, 0, 64, 37
1, 410519, Control_c, 0, 64, 38
1, 410534, Control_c, 0, 64, 39
1, 410549, Control_c, 0, 64, 40
1, 410564, Control_c, 0, 64, 42
1, 410593, Control_c, 0, 64, 43
1, 410608, Control_c, 0, 64, 43
1, 410623, Control_c, 0, 64, 45
1, 410638, Control_c, 0, 64, 49
1, 410653, Control_c, 0, 64, 54
1, 410668, Control_c, 0, 64, 59
1, 410669, Note_on_c, 0, 59, 53
1, 410682, Control_c, 0, 64, 62
1, 410697, Control_c, 0, 64, 64
1, 410712, Control_c, 0, 64, 66
1, 410727, Control_c, 0, 64, 68
1, 410733, Note_off_c, 0, 67, 43
1, 410742, Control_c, 0, 64, 71
1, 410757, Control_c, 0, 64, 72
1, 410772, Control_c, 0, 64, 73
1, 410786, Control_c, 0, 64, 74
1, 410823, Note_off_c, 0, 62, 29
1, 410855, Note_on_c, 0, 55, 52
1, 410879, Note_off_c, 0, 59, 36
1, 410954, Note_off_c, 0, 55, 55
1, 410964, Control_c, 0, 64, 73
1, 410978, Control_c, 0, 64, 72
1, 410993, Control_c, 0, 64, 69
1, 411008, Control_c, 0, 64, 66
1, 411023, Control_c, 0, 64, 60
1, 411029, Note_on_c, 0, 59, 55
1, 411037, Control_c, 0, 64, 48
1, 411043, Note_on_c, 0, 74, 63
1, 411052, Note_off_c, 0, 77, 37
1, 411052, Control_c, 0, 64, 0
1, 411084, Note_on_c, 0, 67, 29
1, 411097, Note_on_c, 0, 57, 54
1, 411105, Note_off_c, 0, 59, 53
1, 411149, Note_off_c, 0, 57, 61
1, 411168, Note_on_c, 0, 55, 62
1, 411262, Note_on_c, 0, 57, 51
1, 411264, Note_off_c, 0, 55, 58
1, 411322, Note_on_c, 0, 59, 51
1, 411355, Note_off_c, 0, 57, 36
1, 411413, Note_off_c, 0, 59, 62
1, 411436, Note_on_c, 0, 76, 63
1, 411444, Note_on_c, 0, 62, 58
1, 411460, Note_off_c, 0, 74, 61
1, 411666, Note_on_c, 0, 60, 50
1, 411703, Note_off_c, 0, 62, 36
1, 411815, Control_c, 0, 64, 14
1, 411830, Control_c, 0, 64, 18
1, 411845, Control_c, 0, 64, 19
1, 411860, Control_c, 0, 64, 20
1, 411867, Note_on_c, 0, 55, 43
1, 411869, Note_off_c, 0, 60, 53
1, 411958, Note_off_c, 0, 67, 45
1, 412061, Control_c, 0, 64, 18
1, 412065, Note_on_c, 0, 67, 52
1, 412075, Note_on_c, 0, 72, 49
1, 412076, Control_c, 0, 64, 15
1, 412083, Note_on_c, 0, 52, 36
1, 412090, Control_c, 0, 64, 12
1, 412096, Note_off_c, 0, 55, 37
1, 412159, Note_off_c, 0, 76, 38
1, 412176, Note_off_c, 0, 67, 53
1, 412194, Control_c, 0, 64, 15
1, 412209, Control_c, 0, 64, 19
1, 412224, Control_c, 0, 64, 26
1, 412238, Control_c, 0, 64, 35
1, 412245, Note_off_c, 0, 52, 56
1, 412253, Control_c, 0, 64, 44
1, 412268, Control_c, 0, 64, 53
1, 412269, Note_on_c, 0, 74, 55
1, 412270, Note_on_c, 0, 53, 46
1, 412275, Note_on_c, 0, 67, 48
1, 412283, Control_c, 0, 64, 59
1, 412298, Control_c, 0, 64, 62
1, 412313, Control_c, 0, 64, 64
1, 412328, Control_c, 0, 64, 65
1, 412343, Control_c, 0, 64, 67
1, 412357, Control_c, 0, 64, 68
1, 412359, Note_off_c, 0, 67, 57
1, 412372, Control_c, 0, 64, 70
1, 412387, Control_c, 0, 64, 70
1, 412401, Control_c, 0, 64, 71
1, 412411, Note_off_c, 0, 74, 57
1, 412436, Note_off_c, 0, 53, 63
1, 412454, Note_off_c, 0, 72, 21
1, 412459, Note_on_c, 0, 76, 57
1, 412479, Note_on_c, 0, 67, 56
1, 412489, Note_on_c, 0, 55, 32
1, 412515, Note_off_c, 0, 67, 62
1, 412532, Note_off_c, 0, 76, 60
1, 412548, Note_off_c, 0, 55, 52
1, 412624, Control_c, 0, 64, 70
1, 412639, Control_c, 0, 64, 68
1, 412654, Control_c, 0, 64, 64
1, 412669, Control_c, 0, 64, 57
1, 412677, Note_on_c, 0, 53, 36
1, 412683, Control_c, 0, 64, 28
1, 412689, Note_on_c, 0, 69, 55
1, 412698, Control_c, 0, 64, 0
1, 412717, Note_on_c, 0, 76, 47
1, 412781, Control_c, 0, 64, 33
1, 412796, Control_c, 0, 64, 56
1, 412811, Control_c, 0, 64, 63
1, 412826, Control_c, 0, 64, 65
1, 412840, Control_c, 0, 64, 66
1, 412853, Note_off_c, 0, 53, 59
1, 412855, Control_c, 0, 64, 68
1, 412870, Control_c, 0, 64, 69
1, 412884, Note_on_c, 0, 74, 51
1, 412885, Control_c, 0, 64, 70
1, 412900, Control_c, 0, 64, 71
1, 412944, Control_c, 0, 64, 71
1, 412945, Note_off_c, 0, 69, 30
1, 412957, Note_off_c, 0, 76, 37
1, 412968, Note_off_c, 0, 74, 63
1, 413062, Control_c, 0, 64, 70
1, 413077, Control_c, 0, 64, 67
1, 413092, Control_c, 0, 64, 63
1, 413100, Note_on_c, 0, 81, 65
1, 413106, Control_c, 0, 64, 54
1, 413109, Note_on_c, 0, 65, 31
1, 413121, Control_c, 0, 64, 33
1, 413126, Note_on_c, 0, 69, 45
1, 413136, Control_c, 0, 64, 12
1, 413151, Control_c, 0, 64, 28
1, 413154, Note_on_c, 0, 57, 41
1, 413166, Control_c, 0, 64, 41
1, 413180, Control_c, 0, 64, 52
1, 413195, Control_c, 0, 64, 60
1, 413210, Control_c, 0, 64, 63
1, 413225, Control_c, 0, 64, 65
1, 413240, Control_c, 0, 64, 65
1, 413255, Control_c, 0, 64, 66
1, 413270, Control_c, 0, 64, 66
1, 413276, Note_off_c, 0, 57, 56
1, 413283, Note_off_c, 0, 81, 54
1, 413285, Control_c, 0, 64, 67
1, 413295, Note_on_c, 0, 74, 46
1, 413301, Note_off_c, 0, 65, 49
1, 413329, Control_c, 0, 64, 67
1, 413350, Note_off_c, 0, 69, 57
1, 413364, Note_off_c, 0, 74, 62
1, 413499, Control_c, 0, 64, 66
1, 413514, Control_c, 0, 64, 63
1, 413526, Note_on_c, 0, 57, 34
1, 413529, Control_c, 0, 64, 56
1, 413532, Note_on_c, 0, 81, 60
1, 413534, Note_on_c, 0, 67, 34
1, 413544, Control_c, 0, 64, 38
1, 413559, Control_c, 0, 64, 21
1, 413574, Control_c, 0, 64, 30
1, 413589, Control_c, 0, 64, 41
1, 413604, Control_c, 0, 64, 52
1, 413619, Control_c, 0, 64, 61
1, 413634, Control_c, 0, 64, 65
1, 413648, Control_c, 0, 64, 67
1, 413663, Control_c, 0, 64, 68
1, 413678, Control_c, 0, 64, 69
1, 413690, Note_off_c, 0, 67, 50
1, 413693, Control_c, 0, 64, 69
1, 413694, Note_off_c, 0, 81, 47
1, 413708, Control_c, 0, 64, 70
1, 413723, Control_c, 0, 64, 70
1, 413749, Note_on_c, 0, 73, 40
1, 413752, Control_c, 0, 64, 71
1, 413803, Note_off_c, 0, 73, 51
1, 413886, Note_off_c, 0, 57, 32
1, 413988, Control_c, 0, 64, 70
1, 414003, Control_c, 0, 64, 69
1, 414018, Control_c, 0, 64, 67
1, 414022, Note_on_c, 0, 82, 54
1, 414030, Note_on_c, 0, 69, 22
1, 414033, Note_on_c, 0, 62, 33
1, 414033, Control_c, 0, 64, 65
1, 414034, Note_on_c, 0, 65, 29
1, 414048, Control_c, 0, 64, 62
1, 414063, Control_c, 0, 64, 54
1, 414078, Control_c, 0, 64, 36
1, 414093, Control_c, 0, 64, 0
1, 414211, Control_c, 0, 64, 43
1, 414233, Control_c, 0, 64, 56
1, 414248, Control_c, 0, 64, 61
1, 414263, Control_c, 0, 64, 63
1, 414277, Control_c, 0, 64, 64
1, 414292, Control_c, 0, 64, 65
1, 414307, Control_c, 0, 64, 66
1, 414322, Control_c, 0, 64, 67
1, 414328, Note_on_c, 0, 81, 58
1, 414337, Control_c, 0, 64, 69
1, 414352, Control_c, 0, 64, 71
1, 414367, Note_off_c, 0, 69, 45
1, 414367, Control_c, 0, 64, 73
1, 414382, Control_c, 0, 64, 75
1, 414397, Control_c, 0, 64, 76
1, 414412, Control_c, 0, 64, 77
1, 414426, Control_c, 0, 64, 78
1, 414441, Control_c, 0, 64, 80
1, 414456, Control_c, 0, 64, 81
1, 414471, Control_c, 0, 64, 82
1, 414485, Note_off_c, 0, 65, 41
1, 414486, Control_c, 0, 64, 83
1, 414494, Note_off_c, 0, 62, 43
1, 414501, Control_c, 0, 64, 83
1, 414523, Note_on_c, 0, 77, 59
1, 414531, Control_c, 0, 64, 84
1, 414560, Control_c, 0, 67, 122
1, 414575, Control_c, 0, 67, 104
1, 414590, Control_c, 0, 67, 82
1, 414604, Control_c, 0, 67, 64
1, 414619, Control_c, 0, 67, 48
1, 414634, Control_c, 0, 67, 35
1, 414649, Control_c, 0, 67, 25
1, 414660, Note_off_c, 0, 81, 48
1, 414664, Control_c, 0, 67, 17
1, 414678, Control_c, 0, 67, 9
1, 414693, Control_c, 0, 67, 0
1, 414725, Note_on_c, 0, 74, 59
1, 414725, Note_off_c, 0, 82, 38
1, 414728, Note_off_c, 0, 77, 61
1, 414802, Note_off_c, 0, 74, 61
1, 414982, Control_c, 0, 64, 81
1, 414989, Note_on_c, 0, 76, 67
1, 414990, Note_on_c, 0, 48, 69
1, 414993, Note_on_c, 0, 60, 63
1, 414997, Control_c, 0, 64, 74
1, 414998, Note_on_c, 0, 69, 60
1, 415011, Control_c, 0, 64, 66
1, 415026, Control_c, 0, 64, 55
1, 415041, Control_c, 0, 64, 0
1, 415085, Control_c, 0, 64, 34
1, 415100, Control_c, 0, 64, 54
1, 415115, Control_c, 0, 64, 63
1, 415127, Note_off_c, 0, 48, 60
1, 415130, Control_c, 0, 64, 66
1, 415145, Control_c, 0, 64, 68
1, 415158, Note_off_c, 0, 60, 60
1, 415161, Control_c, 0, 64, 70
1, 415176, Control_c, 0, 64, 72
1, 415190, Control_c, 0, 64, 74
1, 415205, Control_c, 0, 64, 77
1, 415208, Note_off_c, 0, 76, 55
1, 415220, Control_c, 0, 64, 79
1, 415234, Control_c, 0, 64, 80
1, 415249, Control_c, 0, 64, 81
1, 415280, Note_on_c, 0, 64, 75
1, 415285, Note_on_c, 0, 52, 76
1, 415321, Note_off_c, 0, 69, 55
1, 415403, Note_off_c, 0, 64, 61
1, 415407, Note_off_c, 0, 52, 65
1, 415561, Control_c, 0, 64, 77
1, 415573, Note_on_c, 0, 77, 72
1, 415575, Control_c, 0, 64, 70
1, 415577, Note_on_c, 0, 52, 77
1, 415578, Note_on_c, 0, 71, 57
1, 415580, Note_on_c, 0, 64, 71
1, 415590, Control_c, 0, 64, 62
1, 415592, Note_on_c, 0, 65, 60
1, 415594, Note_on_c, 0, 68, 55
1, 415605, Control_c, 0, 64, 38
1, 415619, Control_c, 0, 64, 0
1, 415664, Control_c, 0, 64, 28
1, 415679, Control_c, 0, 64, 49
1, 415693, Control_c, 0, 64, 59
1, 415708, Control_c, 0, 64, 62
1, 415731, Control_c, 0, 64, 63
1, 415746, Control_c, 0, 64, 64
1, 415755, Note_off_c, 0, 64, 57
1, 415760, Control_c, 0, 64, 66
1, 415775, Control_c, 0, 64, 70
1, 415790, Control_c, 0, 64, 75
1, 415805, Control_c, 0, 64, 75
1, 415820, Control_c, 0, 64, 70
1, 415834, Control_c, 0, 64, 62
1, 415846, Note_on_c, 0, 50, 74
1, 415849, Control_c, 0, 64, 35
1, 415851, Note_on_c, 0, 62, 73
1, 415864, Control_c, 0, 64, 0
1, 415887, Note_off_c, 0, 52, 39
1, 415894, Control_c, 0, 64, 42
1, 415908, Control_c, 0, 64, 60
1, 415923, Control_c, 0, 64, 66
1, 415938, Control_c, 0, 64, 71
1, 415952, Note_off_c, 0, 62, 60
1, 415953, Note_off_c, 0, 50, 62
1, 415954, Control_c, 0, 64, 76
1, 415969, Control_c, 0, 64, 80
1, 415984, Control_c, 0, 64, 87
1, 415999, Control_c, 0, 64, 95
1, 416013, Control_c, 0, 64, 98
1, 416028, Control_c, 0, 64, 98
1, 416043, Control_c, 0, 64, 85
1, 416050, Note_on_c, 0, 47, 80
1, 416056, Note_on_c, 0, 59, 71
1, 416057, Control_c, 0, 64, 68
1, 416072, Control_c, 0, 64, 49
1, 416087, Control_c, 0, 64, 0
1, 416117, Control_c, 0, 64, 44
1, 416132, Control_c, 0, 64, 62
1, 416146, Note_off_c, 0, 59, 59
1, 416146, Control_c, 0, 64, 71
1, 416148, Note_off_c, 0, 47, 64
1, 416161, Control_c, 0, 64, 78
1, 416176, Control_c, 0, 64, 81
1, 416206, Control_c, 0, 64, 82
1, 416242, Note_on_c, 0, 44, 72
1, 416247, Note_on_c, 0, 56, 69
1, 416280, Note_off_c, 0, 77, 49
1, 416310, Note_off_c, 0, 65, 51
1, 416322, Note_off_c, 0, 71, 32
1, 416355, Note_off_c, 0, 68, 59
1, 416367, Note_off_c, 0, 56, 57
1, 416398, Control_c, 0, 64, 78
1, 416413, Control_c, 0, 64, 69
1, 416427, Note_off_c, 0, 44, 62
1, 416428, Control_c, 0, 64, 55
1, 416442, Note_on_c, 0, 43, 74
1, 416442, Note_on_c, 0, 74, 73
1, 416442, Control_c, 0, 64, 0
1, 416445, Note_on_c, 0, 55, 72
1, 416448, Note_on_c, 0, 65, 60
1, 416448, Note_on_c, 0, 71, 57
1, 416495, Control_c, 0, 64, 29
1, 416510, Control_c, 0, 64, 59
1, 416524, Control_c, 0, 64, 67
1, 416539, Control_c, 0, 64, 72
1, 416546, Note_off_c, 0, 43, 62
1, 416554, Control_c, 0, 64, 74
1, 416562, Note_off_c, 0, 55, 64
1, 416569, Control_c, 0, 64, 75
1, 416613, Control_c, 0, 64, 75
1, 416645, Note_on_c, 0, 47, 74
1, 416647, Note_on_c, 0, 67, 67
1, 416648, Note_on_c, 0, 59, 72
1, 416668, Note_off_c, 0, 74, 59
1, 416729, Note_off_c, 0, 47, 64
1, 416732, Note_off_c, 0, 65, 34
1, 416762, Note_off_c, 0, 59, 62
1, 416794, Note_off_c, 0, 67, 58
1, 416880, Control_c, 0, 64, 74
1, 416895, Control_c, 0, 64, 69
1, 416897, Note_on_c, 0, 76, 81
1, 416901, Note_on_c, 0, 50, 71
1, 416902, Note_on_c, 0, 62, 77
1, 416907, Note_on_c, 0, 67, 59
1, 416910, Control_c, 0, 64, 63
1, 416915, Note_on_c, 0, 64, 54
1, 416925, Control_c, 0, 64, 35
1, 416940, Control_c, 0, 64, 0
1, 417014, Control_c, 0, 64, 48
1, 417028, Note_off_c, 0, 71, 35
1, 417029, Control_c, 0, 64, 65
1, 417044, Control_c, 0, 64, 70
1, 417047, Note_off_c, 0, 62, 51
1, 417059, Control_c, 0, 64, 72
1, 417073, Control_c, 0, 64, 73
1, 417088, Control_c, 0, 64, 77
1, 417103, Control_c, 0, 64, 81
1, 417118, Note_on_c, 0, 48, 79
1, 417118, Control_c, 0, 64, 83
1, 417119, Note_on_c, 0, 60, 70
1, 417140, Note_off_c, 0, 50, 59
1, 417182, Note_off_c, 0, 60, 61
1, 417205, Note_off_c, 0, 48, 62
1, 417303, Control_c, 0, 64, 83
1, 417318, Control_c, 0, 64, 78
1, 417324, Note_on_c, 0, 43, 81
1, 417325, Note_on_c, 0, 55, 74
1, 417333, Control_c, 0, 64, 69
1, 417347, Control_c, 0, 64, 51
1, 417362, Control_c, 0, 64, 0
1, 417421, Control_c, 0, 64, 40
1, 417425, Note_off_c, 0, 55, 62
1, 417436, Control_c, 0, 64, 65
1, 417451, Control_c, 0, 64, 71
1, 417466, Control_c, 0, 64, 73
1, 417495, Control_c, 0, 64, 74
1, 417518, Note_on_c, 0, 40, 71
1, 417524, Note_off_c, 0, 43, 59
1, 417524, Note_on_c, 0, 52, 71
1, 417581, Note_off_c, 0, 52, 66
1, 417586, Note_off_c, 0, 64, 58
1, 417594, Note_off_c, 0, 40, 61
1, 417644, Control_c, 0, 64, 74
1, 417689, Control_c, 0, 64, 74
1, 417703, Control_c, 0, 64, 69
1, 417716, Note_on_c, 0, 72, 68
1, 417717, Note_on_c, 0, 64, 60
1, 417717, Note_off_c, 0, 67, 35
1, 417718, Control_c, 0, 64, 56
1, 417719, Note_on_c, 0, 48, 65
1, 417723, Note_on_c, 0, 36, 51
1, 417733, Control_c, 0, 64, 0
1, 417792, Control_c, 0, 64, 36
1, 417798, Note_off_c, 0, 76, 51
1, 417807, Control_c, 0, 64, 60
1, 417818, Note_off_c, 0, 48, 51
1, 417822, Control_c, 0, 64, 65
1, 417837, Control_c, 0, 64, 66
1, 417866, Control_c, 0, 64, 67
1, 417881, Control_c, 0, 64, 68
1, 417896, Control_c, 0, 64, 71
1, 417911, Control_c, 0, 64, 73
1, 417921, Note_on_c, 0, 35, 64
1, 417938, Note_on_c, 0, 47, 52
1, 417950, Note_off_c, 0, 36, 47
1, 417959, Note_off_c, 0, 64, 59
1, 417996, Note_off_c, 0, 47, 61
1, 418001, Note_off_c, 0, 35, 64
1, 418022, Note_on_c, 0, 74, 54
1, 418096, Control_c, 0, 64, 72
1, 418111, Control_c, 0, 64, 67
1, 418117, Note_on_c, 0, 33, 55
1, 418120, Note_off_c, 0, 72, 50
1, 418126, Control_c, 0, 64, 59
1, 418128, Note_off_c, 0, 74, 62
1, 418129, Note_on_c, 0, 76, 63
1, 418134, Note_on_c, 0, 45, 46
1, 418141, Control_c, 0, 64, 0
1, 418150, Note_on_c, 0, 65, 47
1, 418199, Note_off_c, 0, 45, 58
1, 418244, Control_c, 0, 64, 8
1, 418244, Control_c, 0, 67, 9
1, 418259, Control_c, 0, 64, 56
1, 418259, Control_c, 0, 67, 19
1, 418274, Control_c, 0, 64, 64
1, 418274, Control_c, 0, 67, 29
1, 418289, Control_c, 0, 64, 65
1, 418289, Control_c, 0, 67, 37
1, 418303, Control_c, 0, 67, 44
1, 418310, Note_off_c, 0, 33, 62
1, 418318, Control_c, 0, 64, 66
1, 418318, Control_c, 0, 67, 52
1, 418323, Note_on_c, 0, 32, 53
1, 418332, Note_on_c, 0, 44, 46
1, 418333, Control_c, 0, 64, 66
1, 418333, Control_c, 0, 67, 62
1, 418349, Control_c, 0, 67, 70
1, 418364, Control_c, 0, 64, 67
1, 418364, Control_c, 0, 67, 80
1, 418378, Control_c, 0, 67, 90
1, 418383, Note_off_c, 0, 76, 61
1, 418393, Control_c, 0, 67, 99
1, 418404, Note_off_c, 0, 65, 48
1, 418408, Control_c, 0, 67, 110
1, 418418, Note_on_c, 0, 74, 58
1, 418423, Control_c, 0, 67, 123
1, 418437, Note_off_c, 0, 44, 52
1, 418438, Control_c, 0, 67, 127
1, 418459, Note_off_c, 0, 74, 59
1, 418512, Control_c, 0, 64, 66
1, 418526, Control_c, 0, 64, 66
1, 418541, Control_c, 0, 64, 64
1, 418546, Note_off_c, 0, 32, 57
1, 418556, Control_c, 0, 64, 62
1, 418562, Note_on_c, 0, 31, 55
1, 418566, Note_on_c, 0, 72, 60
1, 418570, Control_c, 0, 64, 54
1, 418583, Note_on_c, 0, 43, 43
1, 418585, Control_c, 0, 64, 14
1, 418600, Control_c, 0, 64, 0
1, 418601, Note_on_c, 0, 64, 37
1, 418653, Note_off_c, 0, 31, 62
1, 418730, Note_off_c, 0, 43, 50
1, 418773, Note_off_c, 0, 64, 45
1, 418788, Note_on_c, 0, 67, 50
1, 418891, Note_off_c, 0, 67, 61
1, 418994, Note_off_c, 0, 72, 36
1, 419001, Note_on_c, 0, 69, 57
1, 419016, Note_on_c, 0, 50, 37
1, 419022, Note_on_c, 0, 65, 37
1, 419023, Note_on_c, 0, 43, 20
1, 419181, Note_off_c, 0, 43, 45
1, 419216, Note_off_c, 0, 69, 47
1, 419222, Note_off_c, 0, 50, 56
1, 419241, Note_on_c, 0, 71, 48
1, 419248, Note_off_c, 0, 65, 42
1, 419253, Note_on_c, 0, 53, 32
1, 419266, Note_on_c, 0, 62, 43
1, 419350, Note_off_c, 0, 62, 31
1, 419367, Note_off_c, 0, 71, 62
1, 419422, Note_off_c, 0, 53, 40
1, 419563, Note_on_c, 0, 72, 44
1, 419578, Note_on_c, 0, 48, 25
1, 419581, Note_on_c, 0, 60, 34
1, 419583, Note_on_c, 0, 52, 21
1, 420138, Note_off_c, 0, 48, 38
1, 420173, Note_off_c, 0, 60, 60
1, 420183, Note_off_c, 0, 52, 58
1, 420188, Note_off_c, 0, 72, 64
1, 420722, Note_on_c, 0, 48, 19
1, 420722, Note_on_c, 0, 67, 62
1, 420766, Note_off_c, 0, 48, 48
1, 420862, Note_on_c, 0, 72, 61
1, 420862, Note_off_c, 0, 67, 60
1, 420992, Note_on_c, 0, 74, 61
1, 420995, Note_on_c, 0, 64, 53
1, 421009, Note_on_c, 0, 55, 29
1, 421017, Control_c, 0, 64, 12
1, 421027, Note_off_c, 0, 64, 65
1, 421032, Control_c, 0, 64, 55
1, 421035, Note_off_c, 0, 72, 49
1, 421045, Note_off_c, 0, 55, 54
1, 421046, Control_c, 0, 64, 63
1, 421061, Control_c, 0, 64, 66
1, 421076, Control_c, 0, 64, 66
1, 421091, Control_c, 0, 64, 67
1, 421106, Control_c, 0, 64, 68
1, 421120, Control_c, 0, 64, 69
1, 421128, Note_on_c, 0, 76, 65
1, 421135, Control_c, 0, 64, 70
1, 421141, Note_off_c, 0, 74, 55
1, 421150, Control_c, 0, 64, 71
1, 421160, Note_off_c, 0, 76, 65
1, 421164, Control_c, 0, 64, 71
1, 421179, Control_c, 0, 64, 72
1, 421194, Control_c, 0, 64, 72
1, 421209, Control_c, 0, 64, 73
1, 421253, Control_c, 0, 64, 73
1, 421268, Control_c, 0, 64, 74
1, 421297, Note_on_c, 0, 47, 47
1, 421298, Control_c, 0, 64, 74
1, 421327, Control_c, 0, 64, 75
1, 421336, Note_on_c, 0, 76, 71
1, 421357, Control_c, 0, 64, 75
1, 421387, Note_off_c, 0, 47, 61
1, 421402, Control_c, 0, 64, 76
1, 421446, Control_c, 0, 64, 76
1, 421465, Note_off_c, 0, 76, 61
1, 421468, Note_on_c, 0, 74, 67
1, 421518, Note_off_c, 0, 74, 61
1, 421520, Control_c, 0, 64, 75
1, 421535, Control_c, 0, 64, 69
1, 421551, Control_c, 0, 64, 58
1, 421566, Control_c, 0, 64, 0
1, 421584, Note_on_c, 0, 65, 59
1, 421590, Note_on_c, 0, 74, 73
1, 421598, Note_on_c, 0, 55, 39
1, 421613, Note_off_c, 0, 65, 65
1, 421630, Note_off_c, 0, 55, 49
1, 421650, Note_off_c, 0, 74, 63
1, 421688, Note_on_c, 0, 72, 66
1, 421724, Note_off_c, 0, 72, 66
1, 421801, Note_on_c, 0, 55, 57
1, 421805, Note_on_c, 0, 72, 76
1, 421808, Note_on_c, 0, 65, 56
1, 421828, Note_off_c, 0, 55, 66
1, 421831, Note_off_c, 0, 65, 63
1, 421859, Note_off_c, 0, 72, 64
1, 421890, Note_on_c, 0, 71, 66
1, 421913, Note_off_c, 0, 71, 68
1, 421986, Note_on_c, 0, 71, 73
1, 422004, Note_on_c, 0, 65, 61
1, 422007, Note_on_c, 0, 55, 57
1, 422024, Note_off_c, 0, 65, 65
1, 422024, Note_off_c, 0, 71, 58
1, 422029, Note_off_c, 0, 55, 64
1, 422059, Note_on_c, 0, 69, 64
1, 422076, Note_off_c, 0, 69, 67
1, 422130, Note_on_c, 0, 69, 75
1, 422187, Note_off_c, 0, 69, 63
1, 422197, Note_on_c, 0, 71, 72
1, 422205, Note_on_c, 0, 50, 55
1, 422245, Note_on_c, 0, 69, 67
1, 422246, Note_off_c, 0, 71, 61
1, 422269, Control_c, 0, 64, 50
1, 422284, Control_c, 0, 64, 63
1, 422295, Note_off_c, 0, 50, 62
1, 422299, Control_c, 0, 64, 66
1, 422313, Control_c, 0, 64, 66
1, 422353, Note_off_c, 0, 69, 62
1, 422377, Note_on_c, 0, 67, 78
1, 422483, Note_on_c, 0, 69, 63
1, 422490, Note_on_c, 0, 55, 52
1, 422494, Note_on_c, 0, 65, 43
1, 422514, Control_c, 0, 64, 66
1, 422538, Note_off_c, 0, 65, 47
1, 422543, Note_off_c, 0, 55, 50
1, 422572, Note_on_c, 0, 71, 74
1, 422573, Control_c, 0, 64, 65
1, 422597, Note_off_c, 0, 67, 52
1, 422603, Control_c, 0, 64, 65
1, 422618, Control_c, 0, 64, 64
1, 422622, Note_off_c, 0, 69, 61
1, 422633, Control_c, 0, 64, 63
1, 422648, Control_c, 0, 64, 62
1, 422649, Note_off_c, 0, 71, 60
1, 422663, Control_c, 0, 64, 58
1, 422677, Note_on_c, 0, 48, 58
1, 422678, Control_c, 0, 64, 45
1, 422686, Note_on_c, 0, 74, 73
1, 422692, Control_c, 0, 64, 0
1, 422760, Note_off_c, 0, 48, 61
1, 422788, Note_on_c, 0, 72, 69
1, 422791, Note_off_c, 0, 74, 60
1, 422839, Note_off_c, 0, 72, 64
1, 422889, Note_on_c, 0, 64, 62
1, 422895, Note_on_c, 0, 72, 71
1, 422904, Note_on_c, 0, 55, 45
1, 422920, Note_off_c, 0, 64, 66
1, 422929, Note_off_c, 0, 55, 60
1, 422985, Note_on_c, 0, 67, 73
1, 423015, Note_off_c, 0, 72, 62
1, 423026, Note_off_c, 0, 67, 58
1, 423086, Note_on_c, 0, 55, 55
1, 423086, Note_on_c, 0, 64, 57
1, 423100, Note_on_c, 0, 67, 71
1, 423113, Note_off_c, 0, 64, 66
1, 423114, Note_off_c, 0, 55, 66
1, 423146, Note_off_c, 0, 67, 59
1, 423184, Note_on_c, 0, 64, 73
1, 423244, Note_off_c, 0, 64, 64
1, 423278, Control_c, 0, 64, 35
1, 423293, Control_c, 0, 64, 48
1, 423299, Note_on_c, 0, 55, 56
1, 423308, Control_c, 0, 64, 55
1, 423310, Note_on_c, 0, 64, 60
1, 423322, Control_c, 0, 64, 56
1, 423326, Note_off_c, 0, 55, 64
1, 423335, Poly_aftertouch_c, 0, 71, 127
1, 423366, Poly_aftertouch_c, 0, 71, 0
1, 423366, Control_c, 0, 64, 56
1, 423381, Control_c, 0, 64, 55
1, 423396, Control_c, 0, 64, 54
1, 423397, Note_on_c, 0, 67, 73
1, 423410, Note_off_c, 0, 64, 64
1, 423411, Control_c, 0, 64, 51
1, 423426, Control_c, 0, 64, 49
1, 423438, Note_off_c, 0, 67, 58
1, 423441, Control_c, 0, 64, 48
1, 423456, Control_c, 0, 64, 43
1, 423471, Control_c, 0, 64, 32
1, 423485, Control_c, 0, 64, 0
1, 423504, Note_on_c, 0, 52, 51
1, 423510, Note_on_c, 0, 67, 65
1, 423515, Control_c, 0, 67, 113
1, 423530, Control_c, 0, 67, 88
1, 423541, Note_off_c, 0, 52, 62
1, 423545, Control_c, 0, 67, 62
1, 423560, Control_c, 0, 67, 40
1, 423574, Control_c, 0, 67, 22
1, 423589, Control_c, 0, 67, 13
1, 423604, Note_off_c, 0, 67, 60
1, 423604, Control_c, 0, 67, 10
1, 423612, Note_on_c, 0, 72, 66
1, 423678, Control_c, 0, 67, 11
1, 423707, Note_on_c, 0, 55, 49
1, 423712, Note_on_c, 0, 64, 53
1, 423719, Note_on_c, 0, 76, 67
1, 423733, Note_off_c, 0, 55, 63
1, 423751, Note_off_c, 0, 64, 64
1, 423756, Note_off_c, 0, 72, 56
1, 423791, Note_on_c, 0, 79, 60
1, 423810, Note_off_c, 0, 76, 63
1, 423849, Note_off_c, 0, 79, 61
1, 423916, Note_on_c, 0, 55, 59
1, 423921, Note_on_c, 0, 79, 70
1, 423944, Note_off_c, 0, 55, 67
1, 424024, Note_on_c, 0, 77, 71
1, 424027, Control_c, 0, 67, 11
1, 424028, Note_off_c, 0, 79, 58
1, 424042, Control_c, 0, 67, 12
1, 424057, Control_c, 0, 67, 12
1, 424071, Control_c, 0, 67, 13
1, 424115, Control_c, 0, 67, 14
1, 424120, Note_on_c, 0, 65, 63
1, 424126, Note_on_c, 0, 69, 57
1, 424130, Control_c, 0, 67, 15
1, 424133, Note_on_c, 0, 81, 66
1, 424138, Note_off_c, 0, 77, 56
1, 424145, Control_c, 0, 67, 16
1, 424147, Note_off_c, 0, 65, 66
1, 424158, Note_off_c, 0, 69, 69
1, 424160, Control_c, 0, 67, 17
1, 424175, Control_c, 0, 67, 17
1, 424197, Note_off_c, 0, 81, 60
1, 424220, Note_on_c, 0, 77, 69
1, 424234, Control_c, 0, 67, 17
1, 424263, Control_c, 0, 67, 16
1, 424268, Note_off_c, 0, 77, 59
1, 424293, Control_c, 0, 67, 16
1, 424323, Note_on_c, 0, 55, 61
1, 424329, Note_on_c, 0, 77, 71
1, 424338, Control_c, 0, 67, 15
1, 424353, Control_c, 0, 67, 15
1, 424354, Note_off_c, 0, 55, 66
1, 424397, Control_c, 0, 67, 15
1, 424412, Control_c, 0, 67, 16
1, 424427, Control_c, 0, 67, 16
1, 424429, Note_on_c, 0, 76, 74
1, 424442, Control_c, 0, 67, 17
1, 424457, Note_off_c, 0, 77, 59
1, 424471, Control_c, 0, 67, 17
1, 424501, Control_c, 0, 67, 18
1, 424515, Control_c, 0, 67, 19
1, 424522, Note_on_c, 0, 64, 62
1, 424530, Note_on_c, 0, 67, 53
1, 424530, Control_c, 0, 67, 21
1, 424533, Note_off_c, 0, 76, 62
1, 424535, Note_on_c, 0, 79, 72
1, 424545, Control_c, 0, 67, 24
1, 424550, Note_off_c, 0, 64, 67
1, 424556, Note_off_c, 0, 67, 64
1, 424560, Control_c, 0, 67, 29
1, 424575, Control_c, 0, 67, 35
1, 424589, Control_c, 0, 67, 43
1, 424604, Control_c, 0, 67, 50
1, 424616, Note_off_c, 0, 79, 59
1, 424619, Control_c, 0, 67, 57
1, 424634, Control_c, 0, 67, 66
1, 424647, Note_on_c, 0, 76, 66
1, 424649, Control_c, 0, 67, 74
1, 424663, Control_c, 0, 67, 81
1, 424675, Note_off_c, 0, 76, 64
1, 424678, Control_c, 0, 67, 85
1, 424693, Control_c, 0, 67, 87
1, 424715, Control_c, 0, 67, 89
1, 424730, Control_c, 0, 67, 91
1, 424743, Note_on_c, 0, 76, 74
1, 424746, Note_on_c, 0, 55, 63
1, 424746, Control_c, 0, 67, 94
1, 424761, Control_c, 0, 67, 98
1, 424776, Control_c, 0, 67, 99
1, 424781, Note_off_c, 0, 55, 64
1, 424791, Control_c, 0, 67, 100
1, 424806, Control_c, 0, 67, 101
1, 424848, Note_on_c, 0, 74, 67
1, 424873, Note_off_c, 0, 76, 55
1, 424943, Note_on_c, 0, 67, 57
1, 424951, Note_on_c, 0, 59, 54
1, 424961, Note_on_c, 0, 79, 63
1, 424976, Note_off_c, 0, 67, 62
1, 424982, Note_off_c, 0, 59, 65
1, 425003, Note_off_c, 0, 74, 59
1, 425042, Control_c, 0, 67, 100
1, 425080, Note_on_c, 0, 77, 69
1, 425083, Note_off_c, 0, 79, 55
1, 425101, Control_c, 0, 67, 101
1, 425131, Control_c, 0, 67, 101
1, 425146, Control_c, 0, 67, 102
1, 425176, Control_c, 0, 67, 103
1, 425191, Control_c, 0, 67, 104
1, 425205, Control_c, 0, 67, 110
1, 425207, Note_on_c, 0, 48, 42
1, 425220, Control_c, 0, 64, 51
1, 425220, Control_c, 0, 67, 116
1, 425235, Control_c, 0, 64, 63
1, 425235, Control_c, 0, 67, 123
1, 425250, Control_c, 0, 64, 67
1, 425250, Control_c, 0, 67, 127
1, 425254, Note_on_c, 0, 75, 71
1, 425265, Control_c, 0, 64, 71
1, 425280, Control_c, 0, 64, 76
1, 425294, Control_c, 0, 64, 80
1, 425299, Note_off_c, 0, 77, 56
1, 425305, Note_off_c, 0, 48, 62
1, 425309, Control_c, 0, 64, 84
1, 425324, Control_c, 0, 64, 87
1, 425338, Control_c, 0, 64, 90
1, 425353, Control_c, 0, 64, 91
1, 425368, Control_c, 0, 64, 91
1, 425439, Note_off_c, 0, 75, 63
1, 425461, Note_on_c, 0, 60, 50
1, 425475, Note_on_c, 0, 67, 44
1, 425554, Note_on_c, 0, 76, 60
1, 425589, Note_off_c, 0, 76, 57
1, 425597, Note_on_c, 0, 77, 60
1, 425614, Control_c, 0, 64, 89
1, 425629, Control_c, 0, 64, 81
1, 425633, Note_off_c, 0, 67, 55
1, 425633, Note_off_c, 0, 77, 62
1, 425643, Control_c, 0, 64, 71
1, 425652, Note_off_c, 0, 60, 60
1, 425658, Control_c, 0, 64, 61
1, 425669, Note_on_c, 0, 76, 70
1, 425673, Control_c, 0, 64, 0
1, 425707, Note_off_c, 0, 76, 62
1, 425774, Note_on_c, 0, 79, 72
1, 425804, Note_off_c, 0, 79, 60
1, 425879, Note_on_c, 0, 81, 70
1, 425943, Note_off_c, 0, 81, 53
1, 425966, Note_on_c, 0, 83, 77
1, 426001, Note_off_c, 0, 83, 60
1, 426079, Note_on_c, 0, 84, 78
1, 426099, Note_on_c, 0, 48, 58
1, 426135, Note_off_c, 0, 48, 60
1, 426140, Note_off_c, 0, 84, 64
1, 426189, Note_on_c, 0, 86, 75
1, 426239, Note_off_c, 0, 86, 60
1, 426315, Note_on_c, 0, 87, 72
1, 426326, Note_on_c, 0, 64, 51
1, 426328, Note_on_c, 0, 55, 47
1, 426350, Note_off_c, 0, 87, 59
1, 426358, Note_off_c, 0, 55, 58
1, 426361, Note_off_c, 0, 64, 56
1, 426433, Note_on_c, 0, 88, 72
1, 426466, Control_c, 0, 64, 40
1, 426481, Control_c, 0, 64, 58
1, 426486, Note_off_c, 0, 88, 62
1, 426496, Control_c, 0, 64, 64
1, 426510, Control_c, 0, 64, 65
1, 426525, Control_c, 0, 64, 66
1, 426540, Control_c, 0, 64, 67
1, 426555, Control_c, 0, 64, 67
1, 426570, Control_c, 0, 64, 68
1, 426582, Note_on_c, 0, 47, 46
1, 426599, Note_on_c, 0, 88, 74
1, 426679, Note_off_c, 0, 47, 60
1, 426702, Control_c, 0, 64, 67
1, 426717, Control_c, 0, 64, 66
1, 426721, Note_on_c, 0, 86, 74
1, 426727, Note_off_c, 0, 88, 56
1, 426732, Control_c, 0, 64, 65
1, 426747, Control_c, 0, 64, 63
1, 426762, Control_c, 0, 64, 60
1, 426769, Note_off_c, 0, 86, 61
1, 426776, Control_c, 0, 64, 53
1, 426791, Control_c, 0, 64, 37
1, 426806, Control_c, 0, 64, 0
1, 426821, Note_on_c, 0, 55, 49
1, 426825, Note_on_c, 0, 65, 47
1, 426834, Note_on_c, 0, 86, 77
1, 426854, Note_off_c, 0, 55, 65
1, 426859, Note_off_c, 0, 65, 56
1, 426908, Note_off_c, 0, 86, 59
1, 426923, Note_on_c, 0, 84, 75
1, 426964, Note_off_c, 0, 84, 64
1, 427027, Note_on_c, 0, 55, 59
1, 427031, Note_on_c, 0, 84, 81
1, 427033, Note_on_c, 0, 65, 57
1, 427061, Note_off_c, 0, 65, 59
1, 427068, Note_off_c, 0, 55, 60
1, 427078, Note_off_c, 0, 84, 64
1, 427116, Note_on_c, 0, 83, 72
1, 427148, Note_off_c, 0, 83, 60
1, 427222, Note_on_c, 0, 83, 72
1, 427226, Note_on_c, 0, 55, 61
1, 427229, Note_on_c, 0, 65, 55
1, 427253, Note_off_c, 0, 65, 62
1, 427253, Note_off_c, 0, 83, 61
1, 427262, Note_off_c, 0, 55, 62
1, 427284, Note_on_c, 0, 81, 72
1, 427306, Note_off_c, 0, 81, 68
1, 427368, Note_on_c, 0, 81, 75
1, 427411, Note_on_c, 0, 50, 61
1, 427415, Note_on_c, 0, 83, 73
1, 427423, Note_off_c, 0, 81, 57
1, 427474, Note_off_c, 0, 83, 57
1, 427477, Note_on_c, 0, 81, 69
1, 427507, Note_off_c, 0, 50, 56
1, 427525, Control_c, 0, 64, 48
1, 427540, Control_c, 0, 64, 61
1, 427555, Control_c, 0, 64, 64
1, 427570, Control_c, 0, 64, 65
1, 427589, Note_off_c, 0, 81, 60
1, 427600, Note_on_c, 0, 79, 77
1, 427683, Note_on_c, 0, 65, 51
1, 427693, Note_on_c, 0, 55, 51
1, 427715, Note_on_c, 0, 81, 70
1, 427759, Note_off_c, 0, 55, 51
1, 427778, Note_off_c, 0, 65, 58
1, 427794, Note_on_c, 0, 83, 78
1, 427805, Note_off_c, 0, 79, 56
1, 427812, Note_off_c, 0, 81, 60
1, 427855, Note_off_c, 0, 83, 61
1, 427888, Control_c, 0, 64, 64
1, 427903, Control_c, 0, 64, 62
1, 427908, Note_on_c, 0, 48, 61
1, 427908, Note_on_c, 0, 86, 80
1, 427918, Control_c, 0, 64, 56
1, 427934, Control_c, 0, 64, 36
1, 427949, Control_c, 0, 64, 0
1, 428007, Note_off_c, 0, 48, 57
1, 428010, Note_on_c, 0, 84, 71
1, 428022, Note_off_c, 0, 86, 58
1, 428045, Note_off_c, 0, 84, 63
1, 428109, Note_on_c, 0, 64, 60
1, 428113, Note_on_c, 0, 55, 54
1, 428115, Note_on_c, 0, 84, 81
1, 428192, Note_off_c, 0, 64, 54
1, 428203, Note_off_c, 0, 55, 57
1, 428213, Note_on_c, 0, 79, 69
1, 428248, Note_off_c, 0, 84, 59
1, 428252, Note_off_c, 0, 79, 60
1, 428316, Note_on_c, 0, 64, 72
1, 428318, Note_on_c, 0, 79, 75
1, 428323, Note_on_c, 0, 55, 70
1, 428397, Note_off_c, 0, 64, 54
1, 428399, Note_off_c, 0, 55, 57
1, 428403, Note_off_c, 0, 79, 52
1, 428417, Note_on_c, 0, 76, 72
1, 428460, Control_c, 0, 67, 125
1, 428461, Note_off_c, 0, 76, 62
1, 428475, Control_c, 0, 67, 113
1, 428489, Control_c, 0, 67, 99
1, 428504, Control_c, 0, 67, 85
1, 428519, Control_c, 0, 67, 69
1, 428534, Note_on_c, 0, 55, 54
1, 428534, Control_c, 0, 67, 47
1, 428535, Note_on_c, 0, 64, 63
1, 428549, Control_c, 0, 67, 30
1, 428550, Note_on_c, 0, 76, 73
1, 428563, Control_c, 0, 67, 16
1, 428572, Note_off_c, 0, 55, 63
1, 428578, Control_c, 0, 67, 8
1, 428593, Control_c, 0, 67, 0
1, 428607, Note_off_c, 0, 64, 60
1, 428650, Note_on_c, 0, 79, 67
1, 428652, Control_c, 0, 64, 8
1, 428667, Control_c, 0, 64, 18
1, 428669, Note_off_c, 0, 76, 62
1, 428681, Control_c, 0, 64, 23
1, 428696, Control_c, 0, 64, 26
1, 428711, Control_c, 0, 64, 28
1, 428723, Note_off_c, 0, 79, 61
1, 428726, Control_c, 0, 64, 32
1, 428742, Control_c, 0, 64, 34
1, 428757, Control_c, 0, 64, 36
1, 428772, Control_c, 0, 64, 38
1, 428786, Control_c, 0, 64, 39
1, 428816, Control_c, 0, 64, 39
1, 428818, Note_on_c, 0, 55, 44
1, 428823, Note_on_c, 0, 79, 64
1, 428831, Control_c, 0, 64, 38
1, 428860, Control_c, 0, 64, 39
1, 428875, Control_c, 0, 64, 40
1, 428890, Control_c, 0, 64, 44
1, 428905, Control_c, 0, 64, 52
1, 428920, Control_c, 0, 64, 60
1, 428935, Control_c, 0, 64, 63
1, 428949, Control_c, 0, 64, 66
1, 428956, Note_on_c, 0, 60, 57
1, 428958, Note_off_c, 0, 79, 60
1, 428964, Control_c, 0, 64, 68
1, 428967, Note_on_c, 0, 84, 76
1, 428979, Control_c, 0, 64, 69
1, 428988, Note_off_c, 0, 55, 60
1, 428994, Control_c, 0, 64, 71
1, 429009, Control_c, 0, 64, 72
1, 429024, Control_c, 0, 64, 74
1, 429039, Control_c, 0, 64, 75
1, 429068, Control_c, 0, 64, 75
1, 429080, Note_on_c, 0, 62, 70
1, 429080, Note_on_c, 0, 86, 80
1, 429152, Note_off_c, 0, 60, 46
1, 429179, Note_off_c, 0, 84, 31
1, 429187, Note_on_c, 0, 87, 82
1, 429191, Note_on_c, 0, 63, 72
1, 429215, Note_off_c, 0, 62, 61
1, 429225, Note_off_c, 0, 86, 62
1, 429245, Note_off_c, 0, 63, 63
1, 429251, Note_off_c, 0, 87, 64
1, 429283, Control_c, 0, 64, 76
1, 429312, Control_c, 0, 64, 75
1, 429324, Note_on_c, 0, 63, 69
1, 429327, Control_c, 0, 64, 73
1, 429334, Note_on_c, 0, 87, 84
1, 429342, Control_c, 0, 64, 67
1, 429357, Control_c, 0, 64, 59
1, 429372, Control_c, 0, 64, 30
1, 429386, Control_c, 0, 64, 0
1, 429446, Control_c, 0, 64, 26
1, 429450, Note_on_c, 0, 86, 86
1, 429452, Note_on_c, 0, 62, 68
1, 429460, Control_c, 0, 64, 53
1, 429475, Control_c, 0, 64, 62
1, 429490, Control_c, 0, 64, 63
1, 429492, Note_off_c, 0, 87, 62
1, 429498, Note_off_c, 0, 63, 63
1, 429504, Note_off_c, 0, 86, 64
1, 429506, Note_off_c, 0, 62, 62
1, 429519, Control_c, 0, 64, 62
1, 429535, Control_c, 0, 64, 60
1, 429550, Control_c, 0, 64, 51
1, 429565, Control_c, 0, 64, 21
1, 429566, Note_on_c, 0, 62, 60
1, 429580, Control_c, 0, 64, 0
1, 429582, Note_on_c, 0, 86, 88
1, 429609, Control_c, 0, 64, 31
1, 429624, Control_c, 0, 64, 50
1, 429639, Control_c, 0, 64, 60
1, 429654, Control_c, 0, 64, 63
1, 429669, Control_c, 0, 64, 63
1, 429696, Note_off_c, 0, 62, 58
1, 429703, Note_on_c, 0, 63, 69
1, 429703, Note_on_c, 0, 87, 86
1, 429710, Note_on_c, 0, 67, 63
1, 429711, Note_on_c, 0, 91, 77
1, 429720, Note_off_c, 0, 86, 61
1, 429727, Control_c, 0, 64, 64
1, 429741, Note_off_c, 0, 67, 62
1, 429757, Note_off_c, 0, 63, 62
1, 429758, Control_c, 0, 64, 64
1, 429767, Note_off_c, 0, 87, 60
1, 429778, Note_off_c, 0, 91, 52
1, 429851, Note_on_c, 0, 91, 62
1, 429853, Note_on_c, 0, 67, 58
1, 429858, Note_on_c, 0, 87, 79
1, 429862, Control_c, 0, 64, 64
1, 429862, Note_on_c, 0, 63, 47
1, 429876, Control_c, 0, 64, 63
1, 429891, Control_c, 0, 64, 62
1, 429906, Control_c, 0, 64, 61
1, 429921, Control_c, 0, 64, 59
1, 429936, Control_c, 0, 64, 53
1, 429958, Control_c, 0, 64, 44
1, 429973, Control_c, 0, 64, 20
1, 429988, Control_c, 0, 64, 0
1, 430020, Note_on_c, 0, 55, 53
1, 430024, Note_on_c, 0, 79, 66
1, 430036, Note_off_c, 0, 91, 32
1, 430052, Note_off_c, 0, 87, 62
1, 430076, Control_c, 0, 67, 11
1, 430086, Note_off_c, 0, 63, 41
1, 430091, Control_c, 0, 67, 18
1, 430106, Control_c, 0, 67, 26
1, 430121, Control_c, 0, 67, 34
1, 430136, Control_c, 0, 67, 40
1, 430151, Control_c, 0, 67, 48
1, 430157, Note_off_c, 0, 67, 40
1, 430166, Control_c, 0, 67, 54
1, 430181, Control_c, 0, 67, 61
1, 430195, Control_c, 0, 67, 67
1, 430210, Control_c, 0, 67, 73
1, 430215, Note_on_c, 0, 57, 49
1, 430219, Note_on_c, 0, 81, 62
1, 430225, Control_c, 0, 67, 79
1, 430240, Control_c, 0, 67, 85
1, 430254, Control_c, 0, 67, 92
1, 430257, Note_off_c, 0, 79, 58
1, 430264, Note_off_c, 0, 55, 55
1, 430269, Control_c, 0, 67, 99
1, 430284, Control_c, 0, 67, 105
1, 430299, Control_c, 0, 67, 112
1, 430314, Control_c, 0, 67, 120
1, 430330, Control_c, 0, 67, 127
1, 430344, Control_c, 0, 67, 127
1, 430436, Note_on_c, 0, 58, 39
1, 430440, Note_on_c, 0, 82, 60
1, 430444, Note_off_c, 0, 81, 55
1, 430462, Note_off_c, 0, 57, 33
1, 430463, Control_c, 0, 64, 48
1, 430477, Control_c, 0, 64, 63
1, 430492, Control_c, 0, 64, 67
1, 430506, Control_c, 0, 64, 69
1, 430521, Control_c, 0, 64, 72
1, 430536, Control_c, 0, 64, 77
1, 430544, Note_off_c, 0, 58, 63
1, 430550, Control_c, 0, 64, 81
1, 430562, Note_off_c, 0, 82, 62
1, 430565, Control_c, 0, 64, 82
1, 430580, Control_c, 0, 64, 83
1, 430765, Control_c, 0, 64, 82
1, 430780, Control_c, 0, 64, 80
1, 430795, Control_c, 0, 64, 77
1, 430810, Control_c, 0, 64, 73
1, 430818, Note_on_c, 0, 70, 55
1, 430820, Note_on_c, 0, 66, 50
1, 430825, Control_c, 0, 64, 68
1, 430833, Note_on_c, 0, 50, 39
1, 430839, Control_c, 0, 64, 64
1, 430854, Control_c, 0, 64, 57
1, 430869, Control_c, 0, 64, 40
1, 430878, Note_off_c, 0, 50, 63
1, 430884, Control_c, 0, 64, 0
1, 430896, Note_off_c, 0, 66, 58
1, 430914, Note_off_c, 0, 70, 55
1, 430931, Note_on_c, 0, 60, 43
1, 431048, Note_on_c, 0, 50, 43
1, 431049, Note_off_c, 0, 60, 36
1, 431054, Note_on_c, 0, 69, 52
1, 431072, Note_on_c, 0, 66, 38
1, 431076, Note_off_c, 0, 50, 57
1, 431113, Note_off_c, 0, 66, 57
1, 431147, Note_off_c, 0, 69, 61
1, 431174, Note_on_c, 0, 60, 39
1, 431307, Note_off_c, 0, 60, 34
1, 431337, Note_on_c, 0, 67, 53
1, 431344, Note_on_c, 0, 43, 33
1, 431359, Note_on_c, 0, 59, 36
1, 431373, Control_c, 0, 64, 30
1, 431388, Control_c, 0, 64, 51
1, 431403, Control_c, 0, 64, 60
1, 431418, Control_c, 0, 64, 63
1, 431433, Control_c, 0, 64, 64
1, 431455, Control_c, 0, 64, 65
1, 431470, Control_c, 0, 64, 67
1, 431485, Control_c, 0, 64, 68
1, 431499, Control_c, 0, 64, 71
1, 431514, Control_c, 0, 64, 72
1, 431520, Note_off_c, 0, 59, 60
1, 431529, Control_c, 0, 64, 73
1, 431544, Control_c, 0, 64, 74
1, 431559, Control_c, 0, 64, 74
1, 431561, Note_off_c, 0, 67, 59
1, 431723, Note_on_c, 0, 67, 50
1, 431766, Control_c, 0, 64, 74
1, 431781, Control_c, 0, 64, 73
1, 431806, Note_off_c, 0, 43, 39
1, 431825, Note_off_c, 0, 67, 55
1, 431825, Control_c, 0, 64, 73
1, 431842, Note_on_c, 0, 69, 59
1, 431874, Note_off_c, 0, 69, 67
1, 431899, Control_c, 0, 64, 72
1, 431990, Control_c, 0, 64, 72
1, 432003, Control_c, 0, 64, 71
1, 432008, Note_on_c, 0, 69, 52
1, 432018, Control_c, 0, 64, 68
1, 432033, Control_c, 0, 64, 64
1, 432040, Note_off_c, 0, 69, 68
1, 432044, Note_on_c, 0, 71, 60
1, 432048, Control_c, 0, 64, 57
1, 432063, Control_c, 0, 64, 42
1, 432077, Control_c, 0, 64, 39
1, 432081, Note_on_c, 0, 69, 64
1, 432092, Control_c, 0, 64, 43
1, 432098, Note_off_c, 0, 71, 53
1, 432107, Control_c, 0, 64, 45
1, 432121, Control_c, 0, 64, 47
1, 432123, Note_on_c, 0, 67, 69
1, 432130, Note_off_c, 0, 69, 63
1, 432136, Control_c, 0, 64, 48
1, 432154, Note_off_c, 0, 67, 58
1, 432166, Control_c, 0, 64, 49
1, 432181, Control_c, 0, 64, 49
1, 432203, Control_c, 0, 64, 48
1, 432218, Control_c, 0, 64, 44
1, 432233, Control_c, 0, 64, 35
1, 432247, Control_c, 0, 64, 0
1, 432258, Note_on_c, 0, 69, 66
1, 432288, Note_on_c, 0, 71, 62
1, 432288, Note_off_c, 0, 69, 67
1, 432292, Control_c, 0, 64, 33
1, 432307, Control_c, 0, 64, 51
1, 432321, Note_on_c, 0, 69, 53
1, 432321, Control_c, 0, 64, 61
1, 432336, Control_c, 0, 64, 65
1, 432346, Note_off_c, 0, 71, 62
1, 432351, Control_c, 0, 64, 66
1, 432351, Control_c, 0, 67, 119
1, 432366, Control_c, 0, 67, 102
1, 432377, Note_on_c, 0, 67, 67
1, 432381, Note_off_c, 0, 69, 67
1, 432381, Control_c, 0, 67, 85
1, 432395, Control_c, 0, 67, 69
1, 432400, Note_off_c, 0, 67, 69
1, 432410, Control_c, 0, 67, 53
1, 432425, Control_c, 0, 67, 40
1, 432440, Control_c, 0, 67, 32
1, 432455, Control_c, 0, 67, 28
1, 432470, Control_c, 0, 67, 23
1, 432485, Control_c, 0, 64, 63
1, 432485, Control_c, 0, 67, 18
1, 432500, Control_c, 0, 64, 56
1, 432500, Control_c, 0, 67, 10
1, 432503, Note_on_c, 0, 49, 50
1, 432515, Control_c, 0, 64, 21
1, 432515, Control_c, 0, 67, 0
1, 432527, Note_on_c, 0, 76, 82
1, 432529, Control_c, 0, 64, 0
1, 432574, Control_c, 0, 64, 26
1, 432589, Control_c, 0, 64, 55
1, 432603, Control_c, 0, 64, 63
1, 432618, Control_c, 0, 64, 64
1, 432638, Note_off_c, 0, 49, 60
1, 432673, Note_off_c, 0, 76, 63
1, 432681, Note_on_c, 0, 73, 66
1, 432707, Note_off_c, 0, 73, 65
1, 432723, Control_c, 0, 64, 61
1, 432738, Control_c, 0, 64, 52
1, 432752, Control_c, 0, 64, 29
1, 432756, Note_on_c, 0, 71, 57
1, 432767, Control_c, 0, 64, 0
1, 432774, Note_on_c, 0, 73, 71
1, 432784, Note_off_c, 0, 71, 65
1, 432808, Note_on_c, 0, 67, 55
1, 432814, Note_on_c, 0, 57, 43
1, 432830, Note_on_c, 0, 71, 69
1, 432856, Control_c, 0, 64, 42
1, 432868, Note_off_c, 0, 67, 59
1, 432870, Control_c, 0, 64, 59
1, 432885, Control_c, 0, 64, 65
1, 432900, Control_c, 0, 64, 67
1, 432902, Note_off_c, 0, 73, 58
1, 432915, Control_c, 0, 64, 69
1, 432930, Control_c, 0, 64, 70
1, 432938, Note_on_c, 0, 69, 85
1, 432951, Note_off_c, 0, 71, 57
1, 432952, Control_c, 0, 64, 71
1, 432962, Note_off_c, 0, 57, 27
1, 432967, Control_c, 0, 64, 72
1, 432982, Control_c, 0, 64, 73
1, 432997, Control_c, 0, 64, 73
1, 433006, Note_off_c, 0, 69, 66
1, 433012, Control_c, 0, 64, 74
1, 433041, Control_c, 0, 64, 74
1, 433056, Control_c, 0, 64, 75
1, 433070, Control_c, 0, 64, 75
1, 433084, Note_on_c, 0, 50, 48
1, 433115, Control_c, 0, 64, 74
1, 433120, Note_on_c, 0, 81, 73
1, 433126, Note_on_c, 0, 79, 72
1, 433130, Control_c, 0, 64, 66
1, 433144, Control_c, 0, 64, 49
1, 433159, Control_c, 0, 64, 0
1, 433197, Note_on_c, 0, 77, 69
1, 433197, Note_off_c, 0, 79, 57
1, 433205, Note_off_c, 0, 81, 60
1, 433218, Control_c, 0, 64, 58
1, 433231, Note_off_c, 0, 77, 62
1, 433233, Control_c, 0, 64, 64
1, 433261, Note_on_c, 0, 76, 73
1, 433278, Control_c, 0, 64, 65
1, 433284, Note_off_c, 0, 76, 69
1, 433287, Note_off_c, 0, 50, 37
1, 433293, Control_c, 0, 64, 66
1, 433296, Note_on_c, 0, 77, 72
1, 433308, Control_c, 0, 64, 68
1, 433337, Control_c, 0, 64, 65
1, 433341, Note_on_c, 0, 76, 79
1, 433347, Note_on_c, 0, 57, 47
1, 433349, Note_on_c, 0, 65, 45
1, 433352, Control_c, 0, 64, 57
1, 433367, Control_c, 0, 64, 18
1, 433382, Control_c, 0, 64, 0
1, 433397, Control_c, 0, 64, 24
1, 433399, Note_off_c, 0, 57, 54
1, 433412, Control_c, 0, 64, 53
1, 433415, Note_off_c, 0, 65, 51
1, 433421, Note_off_c, 0, 77, 55
1, 433426, Control_c, 0, 64, 62
1, 433431, Note_on_c, 0, 74, 80
1, 433441, Control_c, 0, 64, 65
1, 433451, Note_off_c, 0, 76, 58
1, 433479, Note_off_c, 0, 74, 67
1, 433531, Control_c, 0, 64, 64
1, 433546, Control_c, 0, 64, 63
1, 433561, Control_c, 0, 64, 59
1, 433575, Control_c, 0, 64, 45
1, 433590, Control_c, 0, 64, 0
1, 433592, Note_on_c, 0, 57, 42
1, 433592, Note_on_c, 0, 65, 44
1, 433606, Note_on_c, 0, 86, 63
1, 433620, Control_c, 0, 67, 13
1, 433635, Control_c, 0, 67, 23
1, 433649, Control_c, 0, 67, 32
1, 433664, Control_c, 0, 67, 42
1, 433679, Control_c, 0, 67, 51
1, 433701, Control_c, 0, 67, 58
1, 433704, Note_off_c, 0, 65, 38
1, 433712, Note_on_c, 0, 89, 66
1, 433713, Note_off_c, 0, 57, 46
1, 433716, Control_c, 0, 67, 65
1, 433731, Control_c, 0, 67, 70
1, 433746, Control_c, 0, 67, 76
1, 433761, Control_c, 0, 67, 82
1, 433775, Control_c, 0, 67, 89
1, 433790, Note_off_c, 0, 86, 29
1, 433790, Control_c, 0, 64, 60
1, 433790, Control_c, 0, 67, 99
1, 433805, Control_c, 0, 64, 67
1, 433805, Control_c, 0, 67, 107
1, 433820, Control_c, 0, 64, 71
1, 433820, Control_c, 0, 67, 113
1, 433827, Note_on_c, 0, 57, 31
1, 433831, Note_on_c, 0, 65, 46
1, 433835, Control_c, 0, 64, 73
1, 433835, Control_c, 0, 67, 117
1, 433838, Note_on_c, 0, 91, 69
1, 433850, Control_c, 0, 64, 74
1, 433850, Control_c, 0, 67, 119
1, 433861, Note_off_c, 0, 57, 56
1, 433864, Control_c, 0, 64, 75
1, 433864, Control_c, 0, 67, 120
1, 433879, Note_off_c, 0, 65, 44
1, 433879, Control_c, 0, 64, 77
1, 433886, Note_off_c, 0, 89, 34
1, 433894, Control_c, 0, 64, 77
1, 433923, Control_c, 0, 67, 119
1, 433938, Control_c, 0, 67, 118
1, 433945, Note_off_c, 0, 91, 57
1, 433946, Note_on_c, 0, 93, 63
1, 433953, Control_c, 0, 67, 117
1, 433968, Control_c, 0, 67, 116
1, 433972, Note_off_c, 0, 93, 63
1, 433982, Control_c, 0, 67, 115
1, 434012, Control_c, 0, 67, 114
1, 434026, Control_c, 0, 64, 74
1, 434026, Control_c, 0, 67, 113
1, 434041, Control_c, 0, 64, 66
1, 434041, Control_c, 0, 67, 112
1, 434056, Control_c, 0, 64, 50
1, 434056, Control_c, 0, 67, 110
1, 434065, Note_on_c, 0, 47, 60
1, 434071, Control_c, 0, 64, 0
1, 434071, Control_c, 0, 67, 108
1, 434086, Control_c, 0, 67, 103
1, 434096, Note_on_c, 0, 74, 87
1, 434100, Control_c, 0, 67, 96
1, 434115, Control_c, 0, 67, 85
1, 434130, Control_c, 0, 64, 36
1, 434130, Control_c, 0, 67, 68
1, 434145, Control_c, 0, 64, 57
1, 434145, Control_c, 0, 67, 48
1, 434157, Note_off_c, 0, 47, 64
1, 434160, Control_c, 0, 64, 61
1, 434160, Control_c, 0, 67, 26
1, 434175, Control_c, 0, 64, 62
1, 434175, Control_c, 0, 67, 0
1, 434190, Control_c, 0, 64, 63
1, 434205, Control_c, 0, 64, 64
1, 434212, Note_on_c, 0, 71, 68
1, 434214, Note_off_c, 0, 74, 62
1, 434219, Control_c, 0, 64, 64
1, 434245, Note_off_c, 0, 71, 63
1, 434249, Control_c, 0, 64, 62
1, 434261, Note_on_c, 0, 69, 76
1, 434264, Control_c, 0, 64, 48
1, 434279, Control_c, 0, 64, 0
1, 434303, Note_off_c, 0, 69, 64
1, 434304, Note_on_c, 0, 71, 62
1, 434309, Note_on_c, 0, 65, 63
1, 434312, Note_on_c, 0, 55, 52
1, 434338, Note_on_c, 0, 69, 55
1, 434339, Control_c, 0, 64, 47
1, 434354, Control_c, 0, 64, 63
1, 434369, Control_c, 0, 64, 66
1, 434384, Control_c, 0, 64, 67
1, 434402, Note_off_c, 0, 65, 56
1, 434420, Note_off_c, 0, 71, 62
1, 434448, Note_on_c, 0, 67, 82
1, 434449, Control_c, 0, 64, 67
1, 434452, Note_off_c, 0, 69, 66
1, 434464, Control_c, 0, 64, 68
1, 434479, Control_c, 0, 64, 69
1, 434494, Control_c, 0, 64, 70
1, 434496, Note_off_c, 0, 67, 63
1, 434509, Note_off_c, 0, 55, 23
1, 434509, Control_c, 0, 64, 71
1, 434524, Control_c, 0, 64, 74
1, 434539, Control_c, 0, 64, 75
1, 434554, Control_c, 0, 64, 74
1, 434560, Note_on_c, 0, 48, 54
1, 434568, Note_on_c, 0, 79, 87
1, 434568, Control_c, 0, 64, 68
1, 434583, Control_c, 0, 64, 52
1, 434598, Control_c, 0, 64, 0
1, 434657, Control_c, 0, 64, 52
1, 434662, Note_on_c, 0, 76, 73
1, 434667, Note_off_c, 0, 79, 60
1, 434672, Control_c, 0, 64, 63
1, 434687, Control_c, 0, 64, 64
1, 434695, Note_off_c, 0, 76, 65
1, 434718, Note_on_c, 0, 74, 72
1, 434720, Note_off_c, 0, 48, 37
1, 434745, Note_off_c, 0, 74, 65
1, 434746, Control_c, 0, 64, 66
1, 434753, Note_on_c, 0, 76, 69
1, 434761, Control_c, 0, 64, 65
1, 434776, Control_c, 0, 64, 62
1, 434791, Control_c, 0, 64, 39
1, 434800, Note_on_c, 0, 74, 63
1, 434804, Note_on_c, 0, 55, 45
1, 434805, Control_c, 0, 64, 0
1, 434816, Note_on_c, 0, 64, 50
1, 434849, Control_c, 0, 64, 17
1, 434864, Control_c, 0, 64, 59
1, 434872, Note_off_c, 0, 76, 61
1, 434879, Control_c, 0, 64, 66
1, 434893, Note_on_c, 0, 72, 79
1, 434894, Control_c, 0, 64, 68
1, 434902, Note_off_c, 0, 55, 58
1, 434904, Note_off_c, 0, 64, 56
1, 434914, Note_off_c, 0, 74, 61
1, 434937, Note_off_c, 0, 72, 66
1, 434953, Control_c, 0, 64, 68
1, 435013, Control_c, 0, 64, 68
1, 435027, Control_c, 0, 64, 66
1, 435042, Control_c, 0, 64, 64
1, 435047, Note_on_c, 0, 55, 45
1, 435050, Note_on_c, 0, 64, 44
1, 435057, Control_c, 0, 64, 57
1, 435064, Note_on_c, 0, 84, 60
1, 435072, Control_c, 0, 64, 26
1, 435087, Control_c, 0, 64, 0
1, 435087, Control_c, 0, 67, 12
1, 435102, Control_c, 0, 67, 27
1, 435117, Control_c, 0, 67, 40
1, 435132, Control_c, 0, 67, 53
1, 435147, Control_c, 0, 67, 65
1, 435162, Control_c, 0, 67, 76
1, 435170, Note_on_c, 0, 88, 71
1, 435177, Control_c, 0, 67, 88
1, 435196, Note_off_c, 0, 55, 59
1, 435199, Control_c, 0, 67, 103
1, 435203, Note_off_c, 0, 64, 56
1, 435214, Control_c, 0, 64, 26
1, 435214, Control_c, 0, 67, 116
1, 435228, Control_c, 0, 64, 61
1, 435228, Control_c, 0, 67, 127
1, 435243, Control_c, 0, 64, 66
1, 435246, Note_off_c, 0, 84, 61
1, 435258, Control_c, 0, 64, 69
1, 435272, Control_c, 0, 64, 71
1, 435278, Note_on_c, 0, 64, 50
1, 435287, Control_c, 0, 64, 72
1, 435291, Note_on_c, 0, 55, 38
1, 435296, Note_on_c, 0, 89, 73
1, 435302, Control_c, 0, 64, 73
1, 435317, Note_off_c, 0, 88, 59
1, 435317, Control_c, 0, 64, 75
1, 435326, Note_off_c, 0, 55, 65
1, 435329, Note_off_c, 0, 64, 62
1, 435332, Control_c, 0, 64, 75
1, 435393, Note_off_c, 0, 89, 62
1, 435399, Note_on_c, 0, 91, 75
1, 435421, Note_off_c, 0, 91, 66
1, 435510, Control_c, 0, 64, 73
1, 435525, Control_c, 0, 64, 70
1, 435536, Note_on_c, 0, 45, 35
1, 435540, Control_c, 0, 64, 65
1, 435552, Note_on_c, 0, 74, 64
1, 435554, Note_on_c, 0, 47, 53
1, 435554, Control_c, 0, 64, 55
1, 435569, Control_c, 0, 64, 0
1, 435591, Note_off_c, 0, 47, 0
1, 435591, Note_on_c, 0, 47, 17
1, 435616, Note_off_c, 0, 45, 64
1, 435658, Control_c, 0, 64, 48
1, 435672, Control_c, 0, 64, 61
1, 435676, Note_on_c, 0, 76, 67
1, 435677, Note_off_c, 0, 74, 59
1, 435687, Control_c, 0, 64, 64
1, 435702, Control_c, 0, 64, 64
1, 435705, Note_off_c, 0, 76, 65
1, 435732, Control_c, 0, 64, 66
1, 435746, Control_c, 0, 64, 68
1, 435761, Control_c, 0, 64, 71
1, 435776, Control_c, 0, 64, 75
1, 435786, Note_on_c, 0, 55, 71
1, 435791, Control_c, 0, 64, 78
1, 435794, Note_on_c, 0, 76, 72
1, 435806, Control_c, 0, 64, 79
1, 435820, Control_c, 0, 64, 80
1, 435850, Control_c, 0, 67, 121
1, 435865, Control_c, 0, 64, 80
1, 435865, Control_c, 0, 67, 115
1, 435880, Control_c, 0, 67, 108
1, 435895, Control_c, 0, 67, 101
1, 435897, Note_off_c, 0, 47, 46
1, 435910, Control_c, 0, 67, 93
1, 435914, Note_on_c, 0, 77, 69
1, 435925, Control_c, 0, 67, 86
1, 435948, Control_c, 0, 67, 82
1, 435949, Note_off_c, 0, 55, 62
1, 435953, Note_off_c, 0, 76, 60
1, 435963, Control_c, 0, 67, 79
1, 435969, Note_off_c, 0, 77, 61
1, 435977, Control_c, 0, 67, 76
1, 435992, Control_c, 0, 67, 71
1, 436007, Control_c, 0, 67, 66
1, 436022, Control_c, 0, 67, 63
1, 436037, Control_c, 0, 64, 80
1, 436037, Control_c, 0, 67, 60
1, 436051, Control_c, 0, 64, 78
1, 436051, Control_c, 0, 67, 56
1, 436066, Control_c, 0, 64, 74
1, 436066, Control_c, 0, 67, 52
1, 436075, Note_on_c, 0, 77, 65
1, 436077, Note_on_c, 0, 55, 69
1, 436081, Control_c, 0, 64, 67
1, 436081, Control_c, 0, 67, 49
1, 436095, Control_c, 0, 64, 58
1, 436095, Control_c, 0, 67, 47
1, 436101, Note_on_c, 0, 48, 60
1, 436110, Control_c, 0, 64, 38
1, 436110, Control_c, 0, 67, 45
1, 436125, Control_c, 0, 64, 0
1, 436125, Control_c, 0, 67, 45
1, 436140, Control_c, 0, 67, 43
1, 436155, Control_c, 0, 67, 42
1, 436169, Control_c, 0, 67, 41
1, 436184, Control_c, 0, 67, 40
1, 436193, Note_off_c, 0, 77, 56
1, 436199, Control_c, 0, 67, 38
1, 436202, Note_on_c, 0, 76, 64
1, 436214, Control_c, 0, 64, 12
1, 436214, Control_c, 0, 67, 37
1, 436229, Control_c, 0, 64, 18
1, 436229, Control_c, 0, 67, 36
1, 436244, Control_c, 0, 64, 20
1, 436244, Control_c, 0, 67, 35
1, 436259, Note_off_c, 0, 76, 54
1, 436259, Control_c, 0, 64, 21
1, 436259, Control_c, 0, 67, 34
1, 436274, Control_c, 0, 67, 33
1, 436288, Control_c, 0, 67, 32
1, 436303, Control_c, 0, 67, 30
1, 436318, Control_c, 0, 64, 19
1, 436318, Control_c, 0, 67, 29
1, 436325, Note_on_c, 0, 57, 80
1, 436327, Note_on_c, 0, 76, 54
1, 436333, Control_c, 0, 64, 17
1, 436333, Control_c, 0, 67, 27
1, 436348, Control_c, 0, 64, 14
1, 436348, Control_c, 0, 67, 24
1, 436358, Note_off_c, 0, 55, 60
1, 436363, Control_c, 0, 64, 10
1, 436363, Control_c, 0, 67, 22
1, 436377, Control_c, 0, 64, 0
1, 436377, Control_c, 0, 67, 19
1, 436392, Control_c, 0, 67, 17
1, 436407, Control_c, 0, 67, 14
1, 436421, Control_c, 0, 67, 12
1, 436436, Control_c, 0, 67, 9
1, 436444, Note_on_c, 0, 74, 64
1, 436446, Note_off_c, 0, 76, 59
1, 436451, Control_c, 0, 67, 0
1, 436500, Note_off_c, 0, 74, 60
1, 436557, Note_on_c, 0, 59, 81
1, 436561, Note_on_c, 0, 74, 45
1, 436594, Note_off_c, 0, 57, 64
1, 436673, Note_on_c, 0, 72, 64
1, 436680, Note_off_c, 0, 74, 63
1, 436750, Note_off_c, 0, 72, 64
1, 436786, Control_c, 0, 64, 25
1, 436799, Note_on_c, 0, 60, 82
1, 436800, Control_c, 0, 64, 49
1, 436803, Note_on_c, 0, 72, 59
1, 436815, Control_c, 0, 64, 61
1, 436830, Control_c, 0, 64, 65
1, 436835, Note_off_c, 0, 59, 60
1, 436835, Note_off_c, 0, 48, 58
1, 436844, Control_c, 0, 64, 68
1, 436859, Control_c, 0, 64, 71
1, 436874, Control_c, 0, 64, 75
1, 436889, Control_c, 0, 64, 78
1, 436904, Control_c, 0, 64, 80
1, 436918, Control_c, 0, 64, 81
1, 436929, Note_off_c, 0, 72, 62
1, 436932, Note_on_c, 0, 71, 52
1, 436958, Note_off_c, 0, 60, 58
1, 436976, Note_off_c, 0, 71, 61
1, 437045, Note_on_c, 0, 62, 80
1, 437053, Note_on_c, 0, 71, 66
1, 437064, Note_on_c, 0, 54, 64
1, 437111, Control_c, 0, 64, 76
1, 437126, Control_c, 0, 64, 69
1, 437141, Control_c, 0, 64, 57
1, 437156, Control_c, 0, 64, 0
1, 437158, Note_off_c, 0, 71, 60
1, 437168, Note_on_c, 0, 69, 60
1, 437221, Note_off_c, 0, 69, 62
1, 437280, Note_on_c, 0, 69, 64
1, 437288, Note_on_c, 0, 63, 79
1, 437289, Control_c, 0, 64, 38
1, 437304, Control_c, 0, 64, 56
1, 437313, Note_off_c, 0, 62, 60
1, 437318, Control_c, 0, 64, 63
1, 437333, Control_c, 0, 64, 67
1, 437348, Control_c, 0, 64, 69
1, 437362, Control_c, 0, 64, 71
1, 437363, Note_off_c, 0, 54, 55
1, 437377, Control_c, 0, 64, 73
1, 437382, Note_off_c, 0, 69, 47
1, 437392, Note_on_c, 0, 67, 64
1, 437392, Control_c, 0, 64, 74
1, 437407, Control_c, 0, 64, 75
1, 437414, Note_off_c, 0, 63, 61
1, 437444, Control_c, 0, 64, 76
1, 437445, Note_off_c, 0, 67, 57
1, 437543, Note_on_c, 0, 67, 76
1, 437549, Control_c, 0, 64, 75
1, 437555, Note_on_c, 0, 63, 69
1, 437564, Note_on_c, 0, 55, 59
1, 437564, Control_c, 0, 64, 72
1, 437568, Note_on_c, 0, 60, 65
1, 437579, Control_c, 0, 64, 67
1, 437594, Control_c, 0, 64, 62
1, 437609, Control_c, 0, 64, 48
1, 437623, Control_c, 0, 64, 0
1, 437685, Note_off_c, 0, 60, 54
1, 437701, Note_on_c, 0, 62, 78
1, 437701, Note_on_c, 0, 59, 63
1, 437751, Note_off_c, 0, 63, 59
1, 437761, Note_off_c, 0, 59, 61
1, 437765, Note_off_c, 0, 62, 63
1, 437830, Note_on_c, 0, 59, 52
1, 437830, Note_on_c, 0, 62, 78
1, 437911, Note_off_c, 0, 59, 61
1, 437928, Note_on_c, 0, 60, 61
1, 437943, Note_on_c, 0, 63, 79
1, 437949, Note_off_c, 0, 60, 65
1, 437967, Note_off_c, 0, 62, 58
1, 437982, Note_off_c, 0, 67, 59
1, 438017, Note_off_c, 0, 63, 63
1, 438053, Note_on_c, 0, 59, 70
1, 438070, Note_on_c, 0, 62, 72
1, 438127, Control_c, 0, 64, 38
1, 438141, Control_c, 0, 64, 59
1, 438156, Control_c, 0, 64, 65
1, 438171, Control_c, 0, 64, 67
1, 438191, Note_on_c, 0, 69, 75
1, 438193, Control_c, 0, 64, 68
1, 438202, Note_off_c, 0, 62, 55
1, 438208, Control_c, 0, 64, 69
1, 438223, Control_c, 0, 64, 70
1, 438238, Control_c, 0, 64, 72
1, 438241, Note_off_c, 0, 69, 66
1, 438242, Note_off_c, 0, 55, 58
1, 438253, Control_c, 0, 64, 73
1, 438267, Control_c, 0, 64, 74
1, 438300, Note_on_c, 0, 69, 71
1, 438315, Note_off_c, 0, 59, 63
1, 438327, Control_c, 0, 64, 74
1, 438360, Note_off_c, 0, 69, 66
1, 438406, Note_on_c, 0, 67, 73
1, 438490, Control_c, 0, 64, 74
1, 438505, Control_c, 0, 64, 72
1, 438520, Control_c, 0, 64, 68
1, 438535, Control_c, 0, 64, 63
1, 438536, Note_on_c, 0, 62, 76
1, 438541, Note_off_c, 0, 67, 38
1, 438548, Note_on_c, 0, 81, 85
1, 438550, Control_c, 0, 64, 51
1, 438553, Note_on_c, 0, 79, 76
1, 438564, Control_c, 0, 64, 0
1, 438682, Note_on_c, 0, 61, 77
1, 438691, Note_off_c, 0, 62, 62
1, 438736, Note_off_c, 0, 61, 62
1, 438795, Note_on_c, 0, 61, 75
1, 438900, Note_on_c, 0, 57, 75
1, 438904, Note_off_c, 0, 61, 62
1, 438955, Note_off_c, 0, 57, 63
1, 439031, Note_on_c, 0, 62, 83
1, 439031, Control_c, 0, 64, 36
1, 439046, Control_c, 0, 64, 48
1, 439061, Control_c, 0, 64, 56
1, 439076, Control_c, 0, 64, 60
1, 439090, Control_c, 0, 64, 62
1, 439120, Control_c, 0, 64, 62
1, 439126, Note_off_c, 0, 62, 58
1, 439135, Control_c, 0, 64, 63
1, 439140, Note_on_c, 0, 65, 72
1, 439177, Note_off_c, 0, 65, 56
1, 439246, Note_on_c, 0, 77, 82
1, 439254, Control_c, 0, 64, 62
1, 439258, Note_on_c, 0, 65, 73
1, 439263, Note_off_c, 0, 79, 63
1, 439272, Note_off_c, 0, 81, 59
1, 439343, Control_c, 0, 64, 62
1, 439348, Note_off_c, 0, 65, 60
1, 439371, Note_on_c, 0, 69, 68
1, 439402, Control_c, 0, 64, 61
1, 439446, Control_c, 0, 64, 61
1, 439461, Control_c, 0, 64, 60
1, 439476, Control_c, 0, 64, 57
1, 439492, Control_c, 0, 64, 51
1, 439502, Note_off_c, 0, 69, 57
1, 439506, Note_on_c, 0, 67, 64
1, 439507, Control_c, 0, 64, 37
1, 439511, Note_on_c, 0, 86, 86
1, 439521, Control_c, 0, 64, 0
1, 439642, Note_on_c, 0, 65, 66
1, 439707, Control_c, 0, 64, 45
1, 439721, Control_c, 0, 64, 60
1, 439736, Control_c, 0, 64, 64
1, 439751, Control_c, 0, 64, 66
1, 439765, Control_c, 0, 64, 68
1, 439774, Note_on_c, 0, 80, 85
1, 439780, Control_c, 0, 64, 70
1, 439795, Control_c, 0, 64, 73
1, 439797, Note_on_c, 0, 64, 50
1, 439801, Note_off_c, 0, 67, 33
1, 439810, Control_c, 0, 64, 76
1, 439825, Control_c, 0, 64, 78
1, 439839, Control_c, 0, 64, 80
1, 439854, Control_c, 0, 64, 81
1, 439869, Control_c, 0, 64, 81
1, 439871, Note_off_c, 0, 77, 50
1, 439915, Note_on_c, 0, 62, 60
1, 439916, Note_off_c, 0, 65, 28
1, 439924, Note_off_c, 0, 64, 63
1, 439925, Note_off_c, 0, 80, 58
1, 439953, Note_off_c, 0, 62, 57
1, 440033, Control_c, 0, 64, 80
1, 440048, Control_c, 0, 64, 78
1, 440062, Control_c, 0, 64, 74
1, 440065, Note_on_c, 0, 79, 85
1, 440077, Control_c, 0, 64, 69
1, 440083, Note_on_c, 0, 77, 66
1, 440092, Control_c, 0, 64, 64
1, 440094, Note_on_c, 0, 60, 68
1, 440107, Control_c, 0, 64, 52
1, 440122, Control_c, 0, 64, 19
1, 440137, Control_c, 0, 64, 0
1, 440164, Note_off_c, 0, 86, 47
1, 440208, Note_on_c, 0, 59, 63
1, 440223, Note_off_c, 0, 60, 55
1, 440261, Note_off_c, 0, 59, 63
1, 440285, Control_c, 0, 64, 22
1, 440300, Control_c, 0, 64, 42
1, 440315, Control_c, 0, 64, 47
1, 440320, Note_on_c, 0, 59, 67
1, 440330, Control_c, 0, 64, 46
1, 440344, Control_c, 0, 64, 46
1, 440359, Control_c, 0, 64, 45
1, 440374, Control_c, 0, 64, 44
1, 440388, Control_c, 0, 64, 44
1, 440413, Note_on_c, 0, 55, 69
1, 440413, Note_off_c, 0, 59, 59
1, 440441, Control_c, 0, 64, 45
1, 440456, Control_c, 0, 64, 47
1, 440470, Control_c, 0, 64, 49
1, 440477, Note_off_c, 0, 55, 63
1, 440485, Control_c, 0, 64, 50
1, 440544, Note_on_c, 0, 60, 74
1, 440559, Control_c, 0, 64, 49
1, 440574, Control_c, 0, 64, 48
1, 440588, Control_c, 0, 64, 47
1, 440603, Control_c, 0, 64, 46
1, 440618, Control_c, 0, 64, 44
1, 440633, Control_c, 0, 64, 43
1, 440644, Note_off_c, 0, 60, 62
1, 440648, Control_c, 0, 64, 41
1, 440657, Note_on_c, 0, 64, 70
1, 440662, Control_c, 0, 64, 39
1, 440677, Control_c, 0, 64, 39
1, 440692, Control_c, 0, 64, 39
1, 440708, Note_off_c, 0, 64, 61
1, 440723, Control_c, 0, 64, 40
1, 440753, Control_c, 0, 64, 39
1, 440767, Control_c, 0, 64, 39
1, 440775, Note_on_c, 0, 64, 68
1, 440782, Note_on_c, 0, 76, 73
1, 440782, Control_c, 0, 64, 38
1, 440811, Control_c, 0, 64, 38
1, 440826, Control_c, 0, 64, 37
1, 440841, Control_c, 0, 64, 35
1, 440856, Control_c, 0, 64, 33
1, 440861, Note_off_c, 0, 77, 59
1, 440871, Control_c, 0, 64, 32
1, 440878, Note_off_c, 0, 64, 64
1, 440885, Control_c, 0, 64, 31
1, 440900, Control_c, 0, 64, 31
1, 440901, Note_on_c, 0, 67, 67
1, 440915, Control_c, 0, 64, 28
1, 440919, Note_off_c, 0, 79, 57
1, 440930, Control_c, 0, 64, 26
1, 440945, Control_c, 0, 64, 23
1, 440959, Control_c, 0, 64, 19
1, 440974, Control_c, 0, 64, 14
1, 440989, Control_c, 0, 64, 0
1, 441038, Note_on_c, 0, 84, 84
1, 441039, Note_on_c, 0, 65, 63
1, 441092, Note_off_c, 0, 67, 52
1, 441165, Note_on_c, 0, 64, 73
1, 441166, Control_c, 0, 64, 38
1, 441189, Control_c, 0, 64, 56
1, 441204, Control_c, 0, 64, 63
1, 441218, Control_c, 0, 64, 65
1, 441233, Control_c, 0, 64, 67
1, 441248, Control_c, 0, 64, 70
1, 441263, Control_c, 0, 64, 75
1, 441278, Control_c, 0, 64, 79
1, 441290, Note_on_c, 0, 62, 69
1, 441292, Control_c, 0, 64, 81
1, 441302, Note_on_c, 0, 79, 83
1, 441307, Control_c, 0, 64, 82
1, 441322, Control_c, 0, 64, 83
1, 441323, Note_off_c, 0, 65, 32
1, 441339, Note_off_c, 0, 84, 56
1, 441365, Note_off_c, 0, 76, 63
1, 441402, Note_on_c, 0, 60, 65
1, 441407, Note_off_c, 0, 79, 62
1, 441435, Note_off_c, 0, 64, 36
1, 441436, Note_off_c, 0, 62, 61
1, 441455, Note_off_c, 0, 60, 62
1, 441530, Control_c, 0, 64, 81
1, 441545, Control_c, 0, 64, 77
1, 441553, Note_on_c, 0, 79, 85
1, 441560, Control_c, 0, 64, 73
1, 441564, Note_on_c, 0, 59, 63
1, 441575, Control_c, 0, 64, 68
1, 441582, Note_on_c, 0, 74, 56
1, 441589, Control_c, 0, 64, 64
1, 441604, Control_c, 0, 64, 58
1, 441619, Control_c, 0, 64, 48
1, 441633, Control_c, 0, 64, 32
1, 441648, Control_c, 0, 64, 15
1, 441663, Control_c, 0, 64, 0
1, 441691, Note_on_c, 0, 57, 63
1, 441739, Note_off_c, 0, 59, 61
1, 441802, Note_on_c, 0, 71, 70
1, 441810, Note_off_c, 0, 74, 62
1, 441815, Note_on_c, 0, 55, 61
1, 441865, Note_off_c, 0, 57, 59
1, 441921, Note_on_c, 0, 53, 69
1, 441977, Note_off_c, 0, 55, 53
1, 442029, Note_off_c, 0, 53, 64
1, 442048, Note_on_c, 0, 52, 78
1, 442052, Note_on_c, 0, 72, 70
1, 442105, Note_off_c, 0, 71, 55
1, 442170, Note_on_c, 0, 50, 75
1, 442215, Note_off_c, 0, 52, 60
1, 442301, Note_on_c, 0, 48, 74
1, 442311, Note_on_c, 0, 76, 74
1, 442340, Note_off_c, 0, 72, 61
1, 442362, Note_off_c, 0, 50, 57
1, 442408, Note_on_c, 0, 47, 67
1, 442516, Note_off_c, 0, 48, 27
1, 442533, Note_off_c, 0, 47, 63
1, 442543, Note_on_c, 0, 45, 60
1, 442575, Note_on_c, 0, 72, 67
1, 442599, Note_off_c, 0, 76, 63
1, 442641, Note_off_c, 0, 79, 60
1, 442666, Note_on_c, 0, 47, 57
1, 442680, Note_off_c, 0, 45, 56
1, 442810, Note_off_c, 0, 47, 55
1, 442813, Note_off_c, 0, 72, 62
1, 442826, Note_on_c, 0, 48, 45
1, 442828, Note_on_c, 0, 75, 66
1, 442829, Note_on_c, 0, 67, 55
1, 442912, Note_off_c, 0, 48, 58
1, 442924, Note_on_c, 0, 49, 50
1, 442938, Note_off_c, 0, 67, 57
1, 442938, Control_c, 0, 64, 12
1, 442953, Control_c, 0, 64, 34
1, 442968, Control_c, 0, 64, 41
1, 442982, Control_c, 0, 64, 45
1, 442997, Control_c, 0, 64, 49
1, 443012, Control_c, 0, 64, 53
1, 443027, Control_c, 0, 64, 56
1, 443042, Control_c, 0, 64, 58
1, 443056, Control_c, 0, 64, 56
1, 443064, Note_off_c, 0, 49, 60
1, 443071, Control_c, 0, 64, 43
1, 443072, Note_off_c, 0, 75, 57
1, 443086, Control_c, 0, 64, 0
1, 443093, Note_on_c, 0, 50, 38
1, 443100, Note_on_c, 0, 74, 56
1, 443101, Control_c, 0, 67, 10
1, 443115, Note_on_c, 0, 66, 51
1, 443117, Control_c, 0, 67, 19
1, 443132, Control_c, 0, 67, 28
1, 443147, Control_c, 0, 67, 37
1, 443161, Control_c, 0, 67, 47
1, 443176, Control_c, 0, 64, 55
1, 443176, Control_c, 0, 67, 58
1, 443191, Control_c, 0, 64, 63
1, 443191, Control_c, 0, 67, 68
1, 443205, Control_c, 0, 64, 64
1, 443205, Control_c, 0, 67, 79
1, 443213, Note_off_c, 0, 66, 63
1, 443220, Control_c, 0, 67, 91
1, 443236, Control_c, 0, 67, 103
1, 443251, Control_c, 0, 67, 115
1, 443256, Note_on_c, 0, 48, 43
1, 443266, Control_c, 0, 64, 65
1, 443266, Control_c, 0, 67, 126
1, 443270, Note_off_c, 0, 74, 56
1, 443280, Control_c, 0, 67, 127
1, 443311, Note_off_c, 0, 50, 37
1, 443354, Control_c, 0, 64, 65
1, 443406, Note_on_c, 0, 78, 54
1, 443413, Note_on_c, 0, 47, 48
1, 443413, Note_on_c, 0, 74, 49
1, 443413, Control_c, 0, 64, 64
1, 443436, Control_c, 0, 64, 62
1, 443451, Control_c, 0, 64, 53
1, 443453, Note_off_c, 0, 48, 33
1, 443466, Control_c, 0, 64, 0
1, 443554, Control_c, 0, 64, 40
1, 443569, Control_c, 0, 64, 59
1, 443581, Note_on_c, 0, 72, 49
1, 443584, Control_c, 0, 64, 63
1, 443599, Control_c, 0, 64, 64
1, 443604, Note_off_c, 0, 78, 36
1, 443617, Note_on_c, 0, 45, 35
1, 443744, Note_off_c, 0, 47, 39
1, 443776, Control_c, 0, 64, 63
1, 443791, Control_c, 0, 64, 62
1, 443806, Control_c, 0, 64, 61
1, 443810, Note_off_c, 0, 72, 30
1, 443820, Note_off_c, 0, 74, 37
1, 443821, Control_c, 0, 64, 57
1, 443836, Control_c, 0, 64, 45
1, 443839, Note_on_c, 0, 43, 28
1, 443846, Note_on_c, 0, 79, 51
1, 443851, Control_c, 0, 64, 14
1, 443860, Note_on_c, 0, 71, 36
1, 443864, Note_off_c, 0, 45, 33
1, 443866, Control_c, 0, 64, 0
1, 444000, Control_c, 0, 64, 23
1, 444015, Control_c, 0, 64, 57
1, 444029, Control_c, 0, 64, 65
1, 444044, Control_c, 0, 64, 66
1, 444059, Control_c, 0, 64, 67
1, 444074, Control_c, 0, 64, 68
1, 444089, Control_c, 0, 64, 69
1, 444098, Note_off_c, 0, 79, 45
1, 444103, Control_c, 0, 64, 71
1, 444118, Control_c, 0, 64, 72
1, 444119, Note_off_c, 0, 43, 49
1, 444280, Note_off_c, 0, 71, 56
1, 444355, Note_on_c, 0, 67, 50
1, 444436, Control_c, 0, 64, 72
1, 444481, Control_c, 0, 64, 71
1, 444501, Note_on_c, 0, 69, 59
1, 444519, Note_off_c, 0, 67, 58
1, 444525, Control_c, 0, 64, 71
1, 444527, Note_off_c, 0, 69, 70
1, 444629, Control_c, 0, 64, 70
1, 444674, Control_c, 0, 64, 70
1, 444689, Control_c, 0, 64, 68
1, 444696, Note_on_c, 0, 69, 56
1, 444704, Control_c, 0, 64, 66
1, 444719, Control_c, 0, 64, 64
1, 444727, Note_on_c, 0, 71, 52
1, 444727, Note_off_c, 0, 69, 66
1, 444733, Control_c, 0, 64, 61
1, 444748, Control_c, 0, 64, 56
1, 444763, Control_c, 0, 64, 48
1, 444769, Note_on_c, 0, 69, 39
1, 444776, Note_off_c, 0, 71, 60
1, 444778, Control_c, 0, 64, 44
1, 444793, Control_c, 0, 64, 44
1, 444812, Note_on_c, 0, 67, 63
1, 444822, Control_c, 0, 64, 43
1, 444828, Note_off_c, 0, 69, 58
1, 444837, Control_c, 0, 64, 43
1, 444851, Control_c, 0, 64, 41
1, 444862, Note_off_c, 0, 67, 61
1, 444866, Control_c, 0, 64, 39
1, 444881, Control_c, 0, 64, 31
1, 444896, Control_c, 0, 64, 0
1, 444948, Note_on_c, 0, 69, 64
1, 444984, Note_off_c, 0, 69, 63
1, 444995, Note_on_c, 0, 71, 56
1, 445020, Note_on_c, 0, 69, 50
1, 445059, Note_off_c, 0, 71, 59
1, 445066, Control_c, 0, 64, 39
1, 445081, Control_c, 0, 64, 50
1, 445082, Note_on_c, 0, 67, 65
1, 445089, Note_off_c, 0, 69, 63
1, 445096, Control_c, 0, 64, 54
1, 445111, Control_c, 0, 64, 55
1, 445126, Control_c, 0, 64, 56
1, 445149, Note_off_c, 0, 67, 59
1, 445155, Control_c, 0, 64, 56
1, 445170, Control_c, 0, 64, 54
1, 445184, Control_c, 0, 64, 49
1, 445192, Note_on_c, 0, 48, 44
1, 445199, Control_c, 0, 64, 32
1, 445213, Note_on_c, 0, 67, 59
1, 445214, Control_c, 0, 64, 0
1, 445350, Note_off_c, 0, 48, 58
1, 445366, Note_off_c, 0, 67, 62
1, 445371, Note_on_c, 0, 72, 65
1, 445485, Note_on_c, 0, 64, 55
1, 445496, Note_on_c, 0, 55, 40
1, 445510, Note_on_c, 0, 74, 56
1, 445522, Note_off_c, 0, 64, 63
1, 445529, Note_off_c, 0, 72, 55
1, 445541, Note_off_c, 0, 55, 60
1, 445629, Control_c, 0, 64, 51
1, 445644, Control_c, 0, 64, 62
1, 445653, Note_off_c, 0, 74, 58
1, 445659, Control_c, 0, 64, 65
1, 445664, Note_on_c, 0, 76, 64
1, 445681, Control_c, 0, 64, 65
1, 445696, Control_c, 0, 64, 66
1, 445711, Control_c, 0, 64, 67
1, 445724, Note_off_c, 0, 76, 63
1, 445726, Control_c, 0, 64, 68
1, 445741, Control_c, 0, 64, 68
1, 445832, Note_on_c, 0, 47, 36
1, 445896, Note_on_c, 0, 76, 71
1, 445903, Control_c, 0, 64, 68
1, 445918, Control_c, 0, 64, 67
1, 445933, Control_c, 0, 64, 65
1, 445935, Note_off_c, 0, 47, 51
1, 445948, Control_c, 0, 64, 63
1, 445962, Control_c, 0, 64, 61
1, 445977, Control_c, 0, 64, 55
1, 445992, Control_c, 0, 64, 44
1, 446006, Control_c, 0, 64, 25
1, 446017, Note_on_c, 0, 74, 67
1, 446018, Note_off_c, 0, 76, 61
1, 446021, Control_c, 0, 64, 0
1, 446055, Note_off_c, 0, 74, 58
1, 446122, Note_on_c, 0, 65, 47
1, 446123, Note_on_c, 0, 55, 34
1, 446143, Note_on_c, 0, 74, 72
1, 446151, Note_off_c, 0, 65, 58
1, 446152, Note_off_c, 0, 55, 55
1, 446200, Note_off_c, 0, 74, 61
1, 446235, Note_on_c, 0, 72, 64
1, 446262, Note_off_c, 0, 72, 67
1, 446346, Note_on_c, 0, 55, 49
1, 446347, Note_on_c, 0, 72, 72
1, 446357, Note_on_c, 0, 65, 36
1, 446371, Note_off_c, 0, 55, 61
1, 446385, Note_off_c, 0, 65, 53
1, 446408, Note_off_c, 0, 72, 61
1, 446441, Note_on_c, 0, 71, 66
1, 446471, Note_off_c, 0, 71, 61
1, 446555, Note_on_c, 0, 71, 67
1, 446565, Note_on_c, 0, 55, 59
1, 446567, Note_on_c, 0, 65, 57
1, 446585, Note_off_c, 0, 71, 61
1, 446588, Note_off_c, 0, 65, 63
1, 446593, Note_off_c, 0, 55, 67
1, 446631, Note_on_c, 0, 69, 57
1, 446649, Note_off_c, 0, 69, 66
1, 446712, Note_on_c, 0, 69, 68
1, 446767, Note_on_c, 0, 71, 70
1, 446772, Note_off_c, 0, 69, 63
1, 446808, Note_on_c, 0, 50, 35
1, 446816, Note_on_c, 0, 69, 52
1, 446823, Note_off_c, 0, 71, 59
1, 446925, Note_off_c, 0, 50, 40
1, 446925, Note_off_c, 0, 69, 63
1, 446947, Note_on_c, 0, 67, 74
1, 446993, Control_c, 0, 64, 33
1, 447008, Control_c, 0, 64, 41
1, 447022, Control_c, 0, 64, 47
1, 447037, Control_c, 0, 64, 50
1, 447039, Note_on_c, 0, 65, 45
1, 447050, Note_on_c, 0, 69, 67
1, 447052, Control_c, 0, 64, 52
1, 447052, Note_on_c, 0, 55, 36
1, 447067, Control_c, 0, 64, 54
1, 447082, Control_c, 0, 64, 56
1, 447089, Note_off_c, 0, 65, 54
1, 447097, Control_c, 0, 64, 58
1, 447112, Note_off_c, 0, 55, 56
1, 447112, Control_c, 0, 64, 59
1, 447127, Control_c, 0, 64, 59
1, 447142, Control_c, 0, 64, 60
1, 447154, Note_on_c, 0, 71, 72
1, 447157, Control_c, 0, 64, 60
1, 447165, Note_off_c, 0, 69, 65
1, 447178, Control_c, 0, 64, 61
1, 447182, Note_off_c, 0, 67, 54
1, 447193, Control_c, 0, 64, 61
1, 447223, Control_c, 0, 64, 60
1, 447228, Note_off_c, 0, 71, 59
1, 447238, Control_c, 0, 64, 57
1, 447246, Note_on_c, 0, 48, 59
1, 447252, Control_c, 0, 64, 50
1, 447267, Note_on_c, 0, 74, 73
1, 447267, Control_c, 0, 64, 32
1, 447282, Control_c, 0, 64, 0
1, 447367, Note_on_c, 0, 72, 65
1, 447369, Note_off_c, 0, 48, 59
1, 447385, Note_off_c, 0, 74, 57
1, 447401, Control_c, 0, 64, 15
1, 447410, Note_off_c, 0, 72, 62
1, 447416, Control_c, 0, 64, 19
1, 447431, Control_c, 0, 64, 18
1, 447446, Control_c, 0, 64, 14
1, 447460, Control_c, 0, 64, 8
1, 447475, Control_c, 0, 64, 0
1, 447478, Note_on_c, 0, 64, 57
1, 447479, Note_on_c, 0, 72, 70
1, 447484, Note_on_c, 0, 55, 53
1, 447531, Note_off_c, 0, 55, 60
1, 447535, Note_off_c, 0, 64, 59
1, 447574, Note_on_c, 0, 67, 75
1, 447603, Note_off_c, 0, 67, 65
1, 447613, Note_off_c, 0, 72, 61
1, 447687, Note_on_c, 0, 55, 62
1, 447689, Note_on_c, 0, 64, 58
1, 447690, Note_on_c, 0, 67, 72
1, 447716, Note_off_c, 0, 64, 66
1, 447745, Note_off_c, 0, 55, 62
1, 447750, Note_off_c, 0, 67, 50
1, 447771, Control_c, 0, 64, 12
1, 447786, Control_c, 0, 64, 22
1, 447788, Note_on_c, 0, 64, 69
1, 447801, Control_c, 0, 64, 32
1, 447816, Control_c, 0, 64, 39
1, 447830, Control_c, 0, 64, 44
1, 447841, Note_off_c, 0, 64, 60
1, 447845, Control_c, 0, 64, 49
1, 447860, Control_c, 0, 64, 53
1, 447875, Control_c, 0, 64, 55
1, 447885, Note_on_c, 0, 55, 61
1, 447890, Control_c, 0, 64, 55
1, 447905, Control_c, 0, 64, 56
1, 447914, Note_on_c, 0, 64, 67
1, 447943, Control_c, 0, 64, 56
1, 447950, Note_off_c, 0, 55, 60
1, 448029, Note_on_c, 0, 67, 72
1, 448043, Note_off_c, 0, 64, 63
1, 448061, Control_c, 0, 64, 57
1, 448080, Note_off_c, 0, 67, 59
1, 448090, Control_c, 0, 64, 56
1, 448105, Control_c, 0, 64, 54
1, 448120, Control_c, 0, 64, 51
1, 448135, Control_c, 0, 64, 43
1, 448142, Note_on_c, 0, 52, 53
1, 448146, Note_on_c, 0, 67, 59
1, 448149, Control_c, 0, 64, 28
1, 448164, Control_c, 0, 64, 0
1, 448242, Note_off_c, 0, 67, 61
1, 448248, Note_off_c, 0, 52, 60
1, 448256, Note_on_c, 0, 72, 65
1, 448350, Note_on_c, 0, 55, 51
1, 448364, Note_on_c, 0, 64, 46
1, 448364, Note_on_c, 0, 74, 62
1, 448382, Note_off_c, 0, 72, 56
1, 448384, Note_off_c, 0, 55, 65
1, 448415, Note_off_c, 0, 64, 54
1, 448464, Note_on_c, 0, 76, 69
1, 448470, Note_off_c, 0, 74, 55
1, 448556, Note_off_c, 0, 76, 57
1, 448582, Note_on_c, 0, 53, 54
1, 448591, Note_on_c, 0, 73, 68
1, 448623, Control_c, 0, 64, 18
1, 448638, Control_c, 0, 64, 28
1, 448653, Note_off_c, 0, 53, 65
1, 448653, Control_c, 0, 64, 34
1, 448674, Note_off_c, 0, 73, 61
1, 448675, Control_c, 0, 64, 37
1, 448690, Control_c, 0, 64, 38
1, 448697, Note_on_c, 0, 74, 61
1, 448721, Control_c, 0, 64, 36
1, 448751, Control_c, 0, 64, 35
1, 448766, Control_c, 0, 64, 34
1, 448780, Control_c, 0, 64, 34
1, 448795, Control_c, 0, 64, 33
1, 448797, Note_off_c, 0, 74, 58
1, 448805, Note_on_c, 0, 81, 73
1, 448809, Note_on_c, 0, 69, 53
1, 448810, Control_c, 0, 64, 32
1, 448813, Note_on_c, 0, 65, 50
1, 448839, Control_c, 0, 64, 32
1, 448866, Note_off_c, 0, 65, 54
1, 448883, Note_off_c, 0, 69, 58
1, 448907, Note_on_c, 0, 74, 63
1, 448942, Control_c, 0, 64, 32
1, 448951, Note_off_c, 0, 81, 53
1, 448957, Control_c, 0, 64, 33
1, 448972, Control_c, 0, 64, 33
1, 448973, Note_off_c, 0, 74, 63
1, 448987, Control_c, 0, 64, 34
1, 449002, Control_c, 0, 64, 35
1, 449017, Control_c, 0, 64, 36
1, 449023, Note_on_c, 0, 57, 52
1, 449028, Note_on_c, 0, 76, 77
1, 449032, Control_c, 0, 64, 37
1, 449047, Control_c, 0, 64, 38
1, 449062, Control_c, 0, 64, 39
1, 449067, Note_off_c, 0, 57, 58
1, 449076, Control_c, 0, 64, 40
1, 449085, Note_off_c, 0, 76, 60
1, 449091, Control_c, 0, 64, 40
1, 449106, Control_c, 0, 64, 41
1, 449128, Note_on_c, 0, 74, 72
1, 449210, Control_c, 0, 64, 41
1, 449224, Control_c, 0, 64, 40
1, 449231, Note_off_c, 0, 74, 63
1, 449232, Note_on_c, 0, 69, 52
1, 449236, Note_on_c, 0, 65, 55
1, 449249, Note_on_c, 0, 81, 69
1, 449279, Note_off_c, 0, 69, 56
1, 449284, Control_c, 0, 64, 41
1, 449298, Control_c, 0, 64, 41
1, 449313, Control_c, 0, 64, 42
1, 449328, Control_c, 0, 64, 43
1, 449342, Control_c, 0, 64, 45
1, 449348, Note_on_c, 0, 74, 59
1, 449348, Note_off_c, 0, 65, 32
1, 449357, Control_c, 0, 64, 48
1, 449363, Note_off_c, 0, 81, 55
1, 449372, Control_c, 0, 64, 51
1, 449387, Control_c, 0, 64, 53
1, 449392, Note_off_c, 0, 74, 57
1, 449402, Control_c, 0, 64, 54
1, 449439, Control_c, 0, 64, 53
1, 449454, Control_c, 0, 64, 51
1, 449464, Note_on_c, 0, 77, 72
1, 449469, Control_c, 0, 64, 48
1, 449484, Control_c, 0, 64, 43
1, 449485, Note_on_c, 0, 57, 55
1, 449500, Control_c, 0, 64, 37
1, 449515, Control_c, 0, 64, 33
1, 449521, Note_off_c, 0, 77, 58
1, 449528, Note_on_c, 0, 79, 59
1, 449559, Control_c, 0, 64, 31
1, 449559, Note_on_c, 0, 77, 43
1, 449573, Control_c, 0, 64, 26
1, 449581, Note_off_c, 0, 79, 61
1, 449588, Control_c, 0, 64, 23
1, 449603, Control_c, 0, 64, 23
1, 449618, Control_c, 0, 64, 23
1, 449627, Note_on_c, 0, 76, 55
1, 449633, Control_c, 0, 64, 27
1, 449641, Note_off_c, 0, 77, 51
1, 449647, Control_c, 0, 64, 30
1, 449655, Note_off_c, 0, 57, 46
1, 449662, Control_c, 0, 64, 33
1, 449677, Control_c, 0, 64, 37
1, 449692, Control_c, 0, 64, 41
1, 449707, Control_c, 0, 64, 45
1, 449721, Control_c, 0, 64, 49
1, 449731, Note_on_c, 0, 61, 51
1, 449733, Note_on_c, 0, 81, 74
1, 449736, Control_c, 0, 64, 52
1, 449748, Note_on_c, 0, 69, 35
1, 449751, Control_c, 0, 64, 54
1, 449766, Control_c, 0, 64, 56
1, 449780, Note_off_c, 0, 69, 56
1, 449780, Control_c, 0, 64, 58
1, 449783, Note_off_c, 0, 76, 44
1, 449790, Note_off_c, 0, 61, 59
1, 449795, Control_c, 0, 64, 60
1, 449810, Control_c, 0, 64, 61
1, 449825, Control_c, 0, 64, 61
1, 449855, Control_c, 0, 64, 62
1, 449857, Note_on_c, 0, 79, 67
1, 449866, Note_off_c, 0, 81, 55
1, 449899, Control_c, 0, 64, 62
1, 449974, Control_c, 0, 64, 61
1, 449989, Control_c, 0, 64, 57
1, 450004, Control_c, 0, 64, 46
1, 450018, Control_c, 0, 64, 0
1, 450026, Note_on_c, 0, 50, 39
1, 450078, Note_on_c, 0, 76, 72
1, 450079, Note_off_c, 0, 79, 51
1, 450092, Control_c, 0, 64, 39
1, 450107, Control_c, 0, 64, 59
1, 450122, Control_c, 0, 64, 65
1, 450137, Control_c, 0, 64, 68
1, 450152, Control_c, 0, 64, 70
1, 450158, Note_off_c, 0, 50, 57
1, 450173, Control_c, 0, 64, 71
1, 450188, Control_c, 0, 64, 72
1, 450203, Control_c, 0, 64, 73
1, 450312, Note_off_c, 0, 76, 60
1, 450336, Note_on_c, 0, 69, 48
1, 450339, Note_on_c, 0, 62, 36
1, 450397, Control_c, 0, 64, 73
1, 450407, Note_on_c, 0, 77, 53
1, 450444, Note_off_c, 0, 77, 52
1, 450457, Control_c, 0, 64, 72
1, 450457, Note_on_c, 0, 79, 65
1, 450471, Control_c, 0, 64, 71
1, 450486, Control_c, 0, 64, 69
1, 450499, Note_off_c, 0, 79, 59
1, 450501, Control_c, 0, 64, 65
1, 450516, Control_c, 0, 64, 57
1, 450531, Control_c, 0, 64, 8
1, 450545, Control_c, 0, 64, 0
1, 450568, Note_off_c, 0, 69, 63
1, 450569, Note_on_c, 0, 77, 61
1, 450585, Note_off_c, 0, 62, 56
1, 450600, Note_off_c, 0, 77, 64
1, 450683, Note_on_c, 0, 80, 72
1, 450718, Note_off_c, 0, 80, 63
1, 450802, Note_on_c, 0, 81, 67
1, 450841, Note_off_c, 0, 81, 59
1, 450913, Note_on_c, 0, 83, 71
1, 450946, Note_off_c, 0, 83, 63
1, 451017, Note_on_c, 0, 48, 52
1, 451049, Note_on_c, 0, 84, 69
1, 451065, Note_off_c, 0, 48, 59
1, 451111, Note_off_c, 0, 84, 62
1, 451166, Note_on_c, 0, 86, 70
1, 451207, Note_off_c, 0, 86, 59
1, 451290, Note_on_c, 0, 57, 48
1, 451293, Note_on_c, 0, 64, 47
1, 451298, Note_on_c, 0, 87, 61
1, 451324, Note_off_c, 0, 57, 63
1, 451339, Note_off_c, 0, 64, 56
1, 451360, Note_off_c, 0, 87, 62
1, 451417, Note_on_c, 0, 88, 71
1, 451443, Note_off_c, 0, 88, 66
1, 451515, Control_c, 0, 64, 22
1, 451530, Control_c, 0, 64, 42
1, 451545, Control_c, 0, 64, 54
1, 451560, Note_on_c, 0, 47, 38
1, 451560, Control_c, 0, 64, 61
1, 451574, Note_on_c, 0, 88, 71
1, 451574, Control_c, 0, 64, 65
1, 451589, Control_c, 0, 64, 67
1, 451604, Control_c, 0, 64, 69
1, 451619, Control_c, 0, 64, 72
1, 451634, Control_c, 0, 64, 74
1, 451642, Note_off_c, 0, 47, 63
1, 451649, Control_c, 0, 64, 76
1, 451671, Control_c, 0, 64, 78
1, 451686, Control_c, 0, 64, 79
1, 451700, Control_c, 0, 64, 80
1, 451715, Control_c, 0, 64, 80
1, 451730, Control_c, 0, 64, 81
1, 451767, Note_on_c, 0, 89, 71
1, 451774, Control_c, 0, 64, 81
1, 451775, Note_off_c, 0, 88, 60
1, 451804, Note_off_c, 0, 89, 60
1, 451876, Note_on_c, 0, 56, 39
1, 451878, Control_c, 0, 64, 81
1, 451894, Control_c, 0, 64, 78
1, 451907, Note_on_c, 0, 65, 33
1, 451909, Control_c, 0, 64, 72
1, 451910, Note_on_c, 0, 62, 23
1, 451917, Note_on_c, 0, 89, 71
1, 451923, Control_c, 0, 64, 67
1, 451938, Control_c, 0, 64, 64
1, 451953, Control_c, 0, 64, 63
1, 451983, Control_c, 0, 64, 64
1, 451998, Control_c, 0, 64, 64
1, 452013, Control_c, 0, 64, 65
1, 452019, Note_off_c, 0, 56, 54
1, 452025, Note_on_c, 0, 86, 76
1, 452028, Control_c, 0, 64, 66
1, 452040, Note_off_c, 0, 65, 53
1, 452041, Note_off_c, 0, 62, 54
1, 452042, Control_c, 0, 64, 67
1, 452054, Note_off_c, 0, 89, 59
1, 452057, Control_c, 0, 64, 68
1, 452059, Note_off_c, 0, 86, 62
1, 452102, Control_c, 0, 64, 66
1, 452116, Control_c, 0, 64, 62
1, 452131, Control_c, 0, 64, 55
1, 452133, Note_on_c, 0, 56, 46
1, 452139, Note_on_c, 0, 86, 73
1, 452146, Control_c, 0, 64, 42
1, 452147, Note_on_c, 0, 65, 36
1, 452156, Note_on_c, 0, 62, 32
1, 452175, Control_c, 0, 64, 50
1, 452190, Control_c, 0, 64, 58
1, 452205, Control_c, 0, 64, 63
1, 452220, Control_c, 0, 64, 66
1, 452235, Note_off_c, 0, 86, 63
1, 452235, Control_c, 0, 64, 70
1, 452237, Note_off_c, 0, 56, 58
1, 452245, Note_on_c, 0, 83, 75
1, 452249, Control_c, 0, 64, 75
1, 452264, Control_c, 0, 64, 77
1, 452271, Note_off_c, 0, 62, 35
1, 452272, Note_off_c, 0, 65, 34
1, 452286, Note_off_c, 0, 83, 56
1, 452293, Control_c, 0, 64, 75
1, 452308, Control_c, 0, 64, 69
1, 452323, Control_c, 0, 64, 62
1, 452338, Control_c, 0, 64, 49
1, 452353, Control_c, 0, 64, 50
1, 452354, Note_on_c, 0, 65, 52
1, 452355, Note_on_c, 0, 83, 74
1, 452362, Note_on_c, 0, 56, 55
1, 452367, Control_c, 0, 64, 56
1, 452382, Control_c, 0, 64, 62
1, 452397, Control_c, 0, 64, 64
1, 452399, Note_off_c, 0, 65, 54
1, 452420, Control_c, 0, 64, 65
1, 452432, Note_off_c, 0, 56, 63
1, 452449, Control_c, 0, 64, 66
1, 452463, Note_on_c, 0, 80, 78
1, 452464, Control_c, 0, 64, 66
1, 452479, Control_c, 0, 64, 67
1, 452482, Note_off_c, 0, 83, 54
1, 452493, Control_c, 0, 64, 68
1, 452511, Note_off_c, 0, 80, 65
1, 452538, Control_c, 0, 64, 68
1, 452553, Control_c, 0, 64, 65
1, 452567, Control_c, 0, 64, 56
1, 452582, Control_c, 0, 64, 12
1, 452597, Control_c, 0, 64, 0
1, 452599, Note_on_c, 0, 80, 80
1, 452614, Note_on_c, 0, 48, 45
1, 452614, Note_on_c, 0, 50, 47
1, 452627, Control_c, 0, 64, 30
1, 452642, Control_c, 0, 64, 56
1, 452657, Control_c, 0, 64, 64
1, 452661, Note_off_c, 0, 48, 62
1, 452671, Control_c, 0, 64, 68
1, 452687, Control_c, 0, 64, 72
1, 452692, Note_off_c, 0, 50, 64
1, 452702, Control_c, 0, 64, 76
1, 452708, Note_on_c, 0, 79, 69
1, 452717, Control_c, 0, 64, 78
1, 452726, Note_off_c, 0, 80, 58
1, 452732, Control_c, 0, 64, 80
1, 452773, Note_off_c, 0, 79, 58
1, 452776, Control_c, 0, 64, 79
1, 452791, Control_c, 0, 64, 73
1, 452806, Control_c, 0, 64, 63
1, 452821, Control_c, 0, 64, 0
1, 452823, Note_on_c, 0, 79, 66
1, 452835, Note_on_c, 0, 65, 52
1, 452841, Note_on_c, 0, 55, 53
1, 452846, Note_on_c, 0, 59, 48
1, 452895, Control_c, 0, 64, 53
1, 452909, Control_c, 0, 64, 65
1, 452924, Control_c, 0, 64, 68
1, 452939, Control_c, 0, 64, 70
1, 452955, Note_on_c, 0, 83, 70
1, 452955, Note_off_c, 0, 65, 53
1, 452989, Note_off_c, 0, 79, 59
1, 453011, Note_off_c, 0, 59, 47
1, 453024, Note_off_c, 0, 83, 61
1, 453059, Control_c, 0, 64, 70
1, 453073, Control_c, 0, 64, 71
1, 453088, Control_c, 0, 64, 71
1, 453098, Note_off_c, 0, 55, 23
1, 453101, Note_on_c, 0, 52, 54
1, 453117, Control_c, 0, 64, 71
1, 453132, Control_c, 0, 64, 67
1, 453147, Control_c, 0, 64, 60
1, 453154, Note_on_c, 0, 86, 73
1, 453169, Control_c, 0, 64, 29
1, 453184, Control_c, 0, 64, 0
1, 453229, Control_c, 0, 64, 32
1, 453244, Control_c, 0, 64, 52
1, 453259, Control_c, 0, 64, 60
1, 453273, Control_c, 0, 64, 63
1, 453288, Control_c, 0, 64, 65
1, 453303, Note_on_c, 0, 84, 61
1, 453303, Control_c, 0, 64, 66
1, 453317, Control_c, 0, 64, 68
1, 453326, Note_off_c, 0, 86, 52
1, 453332, Control_c, 0, 64, 71
1, 453341, Note_off_c, 0, 84, 63
1, 453347, Control_c, 0, 64, 75
1, 453362, Control_c, 0, 64, 78
1, 453377, Control_c, 0, 64, 79
1, 453395, Note_on_c, 0, 60, 53
1, 453397, Note_on_c, 0, 55, 56
1, 453402, Note_on_c, 0, 64, 53
1, 453405, Note_on_c, 0, 84, 78
1, 453406, Control_c, 0, 64, 74
1, 453421, Control_c, 0, 64, 68
1, 453436, Control_c, 0, 64, 64
1, 453451, Control_c, 0, 64, 63
1, 453465, Control_c, 0, 64, 63
1, 453474, Note_off_c, 0, 55, 54
1, 453480, Control_c, 0, 64, 65
1, 453481, Note_off_c, 0, 60, 60
1, 453481, Note_off_c, 0, 64, 62
1, 453496, Control_c, 0, 64, 68
1, 453506, Note_on_c, 0, 79, 55
1, 453511, Control_c, 0, 64, 70
1, 453526, Control_c, 0, 64, 70
1, 453531, Note_off_c, 0, 84, 61
1, 453538, Note_off_c, 0, 79, 65
1, 453570, Control_c, 0, 64, 71
1, 453585, Control_c, 0, 64, 72
1, 453605, Note_on_c, 0, 79, 75
1, 453609, Note_on_c, 0, 55, 61
1, 453613, Note_on_c, 0, 60, 58
1, 453613, Note_on_c, 0, 64, 60
1, 453614, Control_c, 0, 64, 71
1, 453629, Control_c, 0, 64, 68
1, 453644, Control_c, 0, 64, 61
1, 453659, Control_c, 0, 64, 42
1, 453674, Control_c, 0, 64, 19
1, 453688, Note_off_c, 0, 79, 56
1, 453688, Control_c, 0, 64, 39
1, 453696, Note_off_c, 0, 64, 56
1, 453703, Control_c, 0, 64, 54
1, 453706, Note_on_c, 0, 76, 76
1, 453711, Note_off_c, 0, 60, 60
1, 453715, Note_off_c, 0, 55, 61
1, 453718, Control_c, 0, 64, 63
1, 453733, Control_c, 0, 64, 66
1, 453748, Control_c, 0, 64, 70
1, 453754, Note_off_c, 0, 76, 64
1, 453762, Control_c, 0, 64, 73
1, 453777, Control_c, 0, 64, 75
1, 453792, Control_c, 0, 64, 75
1, 453807, Control_c, 0, 64, 70
1, 453822, Control_c, 0, 64, 64
1, 453828, Note_on_c, 0, 77, 67
1, 453832, Note_on_c, 0, 64, 63
1, 453837, Control_c, 0, 64, 54
1, 453837, Note_on_c, 0, 76, 72
1, 453839, Note_on_c, 0, 55, 61
1, 453844, Note_on_c, 0, 60, 53
1, 453852, Control_c, 0, 64, 48
1, 453867, Control_c, 0, 64, 53
1, 453882, Control_c, 0, 64, 61
1, 453886, Note_off_c, 0, 64, 64
1, 453896, Control_c, 0, 64, 65
1, 453913, Note_off_c, 0, 60, 62
1, 453918, Control_c, 0, 64, 68
1, 453933, Control_c, 0, 64, 70
1, 453934, Note_off_c, 0, 55, 65
1, 453940, Note_off_c, 0, 77, 60
1, 453942, Note_on_c, 0, 72, 75
1, 453947, Note_off_c, 0, 52, 67
1, 453947, Control_c, 0, 64, 71
1, 453947, Control_c, 0, 67, 120
1, 453956, Note_off_c, 0, 76, 61
1, 453962, Control_c, 0, 64, 71
1, 453962, Control_c, 0, 67, 99
1, 453977, Control_c, 0, 64, 72
1, 453977, Control_c, 0, 67, 75
1, 453981, Note_off_c, 0, 72, 63
1, 453992, Control_c, 0, 67, 47
1, 454007, Control_c, 0, 67, 29
1, 454022, Control_c, 0, 67, 17
1, 454037, Control_c, 0, 67, 11
1, 454052, Control_c, 0, 67, 0
1, 454081, Control_c, 0, 64, 70
1, 454096, Control_c, 0, 64, 65
1, 454109, Note_on_c, 0, 48, 79
1, 454111, Control_c, 0, 64, 58
1, 454114, Note_on_c, 0, 72, 81
1, 454126, Control_c, 0, 64, 22
1, 454140, Control_c, 0, 64, 0
1, 454214, Control_c, 0, 64, 47
1, 454229, Control_c, 0, 64, 60
1, 454244, Control_c, 0, 64, 64
1, 454259, Control_c, 0, 64, 65
1, 454269, Note_on_c, 0, 43, 78
1, 454273, Note_on_c, 0, 67, 73
1, 454280, Note_off_c, 0, 72, 62
1, 454289, Note_off_c, 0, 48, 62
1, 454290, Control_c, 0, 64, 65
1, 454305, Control_c, 0, 64, 66
1, 454319, Control_c, 0, 64, 67
1, 454321, Note_off_c, 0, 43, 63
1, 454330, Note_off_c, 0, 67, 63
1, 454334, Control_c, 0, 64, 67
1, 454393, Control_c, 0, 64, 66
1, 454408, Control_c, 0, 64, 63
1, 454416, Note_on_c, 0, 67, 81
1, 454422, Note_on_c, 0, 43, 89
1, 454423, Control_c, 0, 64, 54
1, 454437, Control_c, 0, 64, 0
1, 454526, Control_c, 0, 64, 14
1, 454541, Control_c, 0, 64, 29
1, 454543, Note_on_c, 0, 63, 79
1, 454546, Note_on_c, 0, 39, 80
1, 454555, Control_c, 0, 64, 35
1, 454570, Control_c, 0, 64, 43
1, 454576, Note_off_c, 0, 43, 63
1, 454585, Control_c, 0, 64, 53
1, 454600, Control_c, 0, 64, 58
1, 454603, Note_off_c, 0, 67, 46
1, 454613, Note_off_c, 0, 63, 65
1, 454615, Control_c, 0, 64, 60
1, 454624, Note_off_c, 0, 39, 63
1, 454630, Control_c, 0, 64, 62
1, 454645, Control_c, 0, 64, 63
1, 454667, Control_c, 0, 64, 64
1, 454696, Control_c, 0, 64, 63
1, 454698, Note_on_c, 0, 63, 83
1, 454704, Note_on_c, 0, 39, 82
1, 454711, Control_c, 0, 64, 58
1, 454726, Control_c, 0, 64, 33
1, 454741, Control_c, 0, 64, 0
1, 454815, Control_c, 0, 64, 48
1, 454830, Control_c, 0, 64, 63
1, 454836, Note_on_c, 0, 38, 76
1, 454837, Note_on_c, 0, 62, 82
1, 454845, Control_c, 0, 64, 64
1, 454862, Note_off_c, 0, 39, 60
1, 454874, Control_c, 0, 64, 65
1, 454882, Note_off_c, 0, 63, 62
1, 454889, Control_c, 0, 64, 66
1, 454898, Note_off_c, 0, 62, 63
1, 454901, Note_off_c, 0, 38, 63
1, 454904, Control_c, 0, 64, 68
1, 454919, Control_c, 0, 64, 71
1, 454934, Control_c, 0, 64, 73
1, 454949, Control_c, 0, 64, 72
1, 454963, Control_c, 0, 64, 67
1, 454970, Note_on_c, 0, 38, 72
1, 454973, Note_on_c, 0, 62, 86
1, 454978, Control_c, 0, 64, 59
1, 454993, Control_c, 0, 64, 32
1, 455008, Control_c, 0, 64, 0
1, 455023, Control_c, 0, 64, 37
1, 455037, Control_c, 0, 64, 55
1, 455052, Control_c, 0, 64, 63
1, 455067, Control_c, 0, 64, 65
1, 455085, Note_on_c, 0, 36, 76
1, 455087, Note_on_c, 0, 60, 79
1, 455094, Note_off_c, 0, 62, 59
1, 455098, Note_off_c, 0, 38, 61
1, 455140, Note_off_c, 0, 36, 64
1, 455158, Note_off_c, 0, 60, 61
1, 455237, Note_on_c, 0, 60, 81
1, 455238, Note_on_c, 0, 32, 64
1, 455241, Note_on_c, 0, 36, 67
1, 455243, Note_on_c, 0, 56, 75
1, 455245, Control_c, 0, 64, 64
1, 455259, Control_c, 0, 64, 57
1, 455274, Control_c, 0, 64, 0
1, 455357, Note_off_c, 0, 36, 64
1, 455363, Control_c, 0, 64, 55
1, 455378, Note_on_c, 0, 62, 80
1, 455378, Control_c, 0, 64, 63
1, 455386, Note_on_c, 0, 38, 57
1, 455393, Control_c, 0, 64, 65
1, 455413, Note_off_c, 0, 60, 59
1, 455415, Control_c, 0, 64, 66
1, 455428, Note_off_c, 0, 56, 63
1, 455455, Note_off_c, 0, 38, 60
1, 455458, Note_off_c, 0, 62, 62
1, 455460, Control_c, 0, 64, 65
1, 455474, Control_c, 0, 64, 62
1, 455489, Control_c, 0, 64, 48
1, 455504, Control_c, 0, 64, 0
1, 455545, Note_on_c, 0, 62, 75
1, 455578, Note_on_c, 0, 38, 46
1, 455578, Control_c, 0, 64, 48
1, 455593, Control_c, 0, 64, 64
1, 455608, Control_c, 0, 64, 65
1, 455608, Control_c, 0, 67, 8
1, 455623, Control_c, 0, 67, 22
1, 455637, Control_c, 0, 64, 65
1, 455637, Control_c, 0, 67, 32
1, 455652, Control_c, 0, 64, 64
1, 455652, Control_c, 0, 67, 39
1, 455666, Note_off_c, 0, 62, 59
1, 455667, Control_c, 0, 64, 63
1, 455667, Control_c, 0, 67, 47
1, 455677, Note_on_c, 0, 39, 57
1, 455682, Control_c, 0, 64, 61
1, 455682, Control_c, 0, 67, 55
1, 455685, Note_off_c, 0, 38, 54
1, 455693, Note_off_c, 0, 32, 38
1, 455696, Note_on_c, 0, 63, 62
1, 455697, Control_c, 0, 64, 57
1, 455697, Control_c, 0, 67, 65
1, 455707, Note_off_c, 0, 39, 54
1, 455712, Control_c, 0, 64, 47
1, 455712, Control_c, 0, 67, 79
1, 455727, Control_c, 0, 64, 8
1, 455727, Control_c, 0, 67, 93
1, 455742, Control_c, 0, 64, 0
1, 455742, Control_c, 0, 67, 106
1, 455757, Control_c, 0, 67, 120
1, 455772, Control_c, 0, 67, 127
1, 455773, Note_off_c, 0, 63, 59
1, 455861, Note_on_c, 0, 64, 52
1, 455866, Note_on_c, 0, 31, 56
1, 455885, Note_on_c, 0, 55, 44
1, 455895, Note_on_c, 0, 60, 29
1, 455906, Note_off_c, 0, 31, 63
1, 455939, Note_off_c, 0, 60, 47
1, 455998, Note_off_c, 0, 55, 57
1, 456016, Note_on_c, 0, 67, 54
1, 456031, Note_off_c, 0, 64, 48
1, 456104, Note_off_c, 0, 67, 36
1, 456190, Note_on_c, 0, 62, 56
1, 456192, Note_on_c, 0, 31, 44
1, 456198, Note_on_c, 0, 53, 44
1, 456219, Note_on_c, 0, 59, 9
1, 456266, Note_off_c, 0, 31, 56
1, 456277, Note_off_c, 0, 59, 46
1, 456290, Note_off_c, 0, 53, 41
1, 456339, Note_off_c, 0, 62, 58
1, 456356, Note_on_c, 0, 67, 56
1, 456438, Note_off_c, 0, 67, 54
1, 456593, Note_on_c, 0, 60, 45
1, 456603, Note_on_c, 0, 36, 30
1, 456614, Note_on_c, 0, 52, 35
1, 456758, Control_c, 0, 64, 47
1, 456773, Control_c, 0, 64, 59
1, 456788, Control_c, 0, 64, 62
1, 456803, Control_c, 0, 64, 63
1, 456818, Control_c, 0, 64, 64
1, 456833, Control_c, 0, 64, 64
1, 456848, Control_c, 0, 64, 65
1, 456863, Control_c, 0, 64, 66
1, 456878, Control_c, 0, 64, 67
1, 456892, Control_c, 0, 64, 67
1, 456898, Note_off_c, 0, 52, 41
1, 456914, Control_c, 0, 64, 68
1, 456944, Control_c, 0, 64, 68
1, 456959, Control_c, 0, 64, 69
1, 456973, Control_c, 0, 64, 69
1, 456988, Control_c, 0, 64, 70
1, 457003, Control_c, 0, 64, 71
1, 457016, Note_off_c, 0, 36, 44
1, 457018, Control_c, 0, 64, 73
1, 457033, Control_c, 0, 64, 75
1, 457047, Control_c, 0, 64, 77
1, 457048, Note_on_c, 0, 67, 36
1, 457062, Control_c, 0, 64, 80
1, 457077, Control_c, 0, 64, 82
1, 457092, Control_c, 0, 64, 83
1, 457107, Control_c, 0, 64, 84
1, 457122, Control_c, 0, 64, 84
1, 457140, Note_off_c, 0, 60, 39
1, 457152, Control_c, 0, 64, 85
1, 457191, Note_off_c, 0, 67, 61
1, 457344, Control_c, 0, 64, 84
1, 457434, Note_on_c, 0, 67, 52
1, 457616, Note_off_c, 0, 67, 62
1, 457749, Note_on_c, 0, 67, 64
1, 457861, Note_off_c, 0, 67, 60
1, 457973, Note_on_c, 0, 60, 38
1, 457989, Control_c, 0, 64, 84
1, 458019, Control_c, 0, 64, 83
1, 458034, Control_c, 0, 64, 80
1, 458037, Note_on_c, 0, 75, 63
1, 458049, Control_c, 0, 64, 74
1, 458063, Control_c, 0, 64, 68
1, 458077, Note_on_c, 0, 67, 41
1, 458078, Control_c, 0, 64, 63
1, 458093, Control_c, 0, 64, 58
1, 458107, Control_c, 0, 64, 54
1, 458122, Control_c, 0, 64, 55
1, 458137, Control_c, 0, 64, 57
1, 458152, Control_c, 0, 64, 60
1, 458167, Control_c, 0, 64, 63
1, 458181, Control_c, 0, 64, 65
1, 458196, Control_c, 0, 64, 67
1, 458210, Control_c, 0, 64, 69
1, 458225, Control_c, 0, 64, 71
1, 458230, Note_off_c, 0, 67, 37
1, 458239, Control_c, 0, 64, 72
1, 458254, Control_c, 0, 64, 74
1, 458269, Control_c, 0, 64, 75
1, 458285, Control_c, 0, 64, 77
1, 458299, Control_c, 0, 64, 77
1, 458304, Note_on_c, 0, 67, 37
1, 458314, Control_c, 0, 64, 78
1, 458329, Control_c, 0, 64, 79
1, 458374, Control_c, 0, 64, 79
1, 458384, Note_off_c, 0, 67, 51
1, 458388, Note_off_c, 0, 75, 58
1, 458559, Note_on_c, 0, 77, 68
1, 458559, Control_c, 0, 64, 77
1, 458565, Note_on_c, 0, 62, 41
1, 458574, Control_c, 0, 64, 71
1, 458589, Control_c, 0, 64, 64
1, 458603, Control_c, 0, 64, 55
1, 458606, Note_on_c, 0, 67, 52
1, 458618, Control_c, 0, 64, 39
1, 458624, Note_off_c, 0, 60, 29
1, 458633, Control_c, 0, 64, 34
1, 458648, Control_c, 0, 64, 43
1, 458663, Control_c, 0, 64, 54
1, 458678, Control_c, 0, 64, 61
1, 458692, Control_c, 0, 64, 65
1, 458707, Control_c, 0, 64, 68
1, 458718, Note_off_c, 0, 67, 56
1, 458722, Control_c, 0, 64, 69
1, 458736, Control_c, 0, 64, 70
1, 458751, Control_c, 0, 64, 71
1, 458766, Note_off_c, 0, 77, 56
1, 458766, Control_c, 0, 64, 72
1, 458781, Control_c, 0, 64, 72
1, 458848, Note_on_c, 0, 67, 45
1, 458939, Note_on_c, 0, 79, 50
1, 458947, Note_on_c, 0, 63, 45
1, 458958, Note_off_c, 0, 67, 53
1, 459003, Control_c, 0, 64, 72
1, 459016, Note_off_c, 0, 62, 39
1, 459018, Control_c, 0, 64, 71
1, 459033, Control_c, 0, 64, 69
1, 459045, Note_off_c, 0, 79, 27
1, 459048, Control_c, 0, 64, 65
1, 459062, Control_c, 0, 64, 59
1, 459078, Control_c, 0, 64, 37
1, 459082, Note_on_c, 0, 80, 58
1, 459093, Control_c, 0, 64, 0
1, 459103, Note_off_c, 0, 63, 40
1, 459125, Note_on_c, 0, 65, 30
1, 459136, Poly_aftertouch_c, 0, 67, 127
1, 459219, Control_c, 0, 64, 46
1, 459233, Control_c, 0, 64, 59
1, 459234, Poly_aftertouch_c, 0, 67, 0
1, 459248, Control_c, 0, 64, 63
1, 459263, Control_c, 0, 64, 64
1, 459277, Control_c, 0, 64, 65
1, 459292, Control_c, 0, 64, 66
1, 459307, Control_c, 0, 64, 68
1, 459322, Control_c, 0, 64, 70
1, 459337, Control_c, 0, 64, 73
1, 459352, Control_c, 0, 64, 75
1, 459354, Note_on_c, 0, 67, 46
1, 459367, Control_c, 0, 64, 75
1, 459369, Note_off_c, 0, 80, 61
1, 459381, Control_c, 0, 64, 76
1, 459435, Note_off_c, 0, 67, 38
1, 459574, Control_c, 0, 64, 75
1, 459589, Control_c, 0, 64, 75
1, 459593, Note_on_c, 0, 59, 33
1, 459604, Control_c, 0, 64, 73
1, 459609, Note_on_c, 0, 74, 59
1, 459619, Control_c, 0, 64, 67
1, 459631, Note_on_c, 0, 67, 45
1, 459633, Control_c, 0, 64, 62
1, 459648, Control_c, 0, 64, 45
1, 459650, Note_off_c, 0, 65, 33
1, 459663, Control_c, 0, 64, 0
1, 459708, Control_c, 0, 64, 34
1, 459723, Control_c, 0, 64, 50
1, 459738, Control_c, 0, 64, 60
1, 459746, Note_off_c, 0, 67, 52
1, 459752, Control_c, 0, 64, 63
1, 459767, Control_c, 0, 64, 65
1, 459782, Control_c, 0, 64, 66
1, 459797, Control_c, 0, 64, 67
1, 459812, Control_c, 0, 64, 68
1, 459826, Control_c, 0, 64, 69
1, 459841, Control_c, 0, 64, 71
1, 459856, Control_c, 0, 64, 73
1, 459871, Control_c, 0, 64, 73
1, 459882, Note_on_c, 0, 67, 31
1, 459887, Control_c, 0, 64, 74
1, 459939, Control_c, 0, 64, 74
1, 459942, Note_off_c, 0, 67, 45
1, 459965, Note_off_c, 0, 74, 62
1, 460094, Note_on_c, 0, 60, 35
1, 460116, Control_c, 0, 64, 74
1, 460131, Control_c, 0, 64, 73
1, 460146, Control_c, 0, 64, 72
1, 460148, Note_on_c, 0, 75, 62
1, 460161, Control_c, 0, 64, 68
1, 460171, Note_off_c, 0, 59, 36
1, 460173, Note_on_c, 0, 67, 44
1, 460176, Control_c, 0, 64, 64
1, 460190, Control_c, 0, 64, 52
1, 460205, Control_c, 0, 64, 0
1, 460250, Control_c, 0, 64, 32
1, 460264, Control_c, 0, 64, 51
1, 460279, Control_c, 0, 64, 62
1, 460294, Control_c, 0, 64, 64
1, 460295, Note_off_c, 0, 67, 59
1, 460309, Control_c, 0, 64, 65
1, 460323, Control_c, 0, 64, 66
1, 460353, Control_c, 0, 64, 67
1, 460368, Control_c, 0, 64, 67
1, 460383, Control_c, 0, 64, 68
1, 460410, Note_on_c, 0, 67, 37
1, 460431, Note_off_c, 0, 75, 51
1, 460496, Note_on_c, 0, 77, 51
1, 460513, Note_on_c, 0, 62, 34
1, 460560, Note_off_c, 0, 67, 39
1, 460605, Control_c, 0, 64, 67
1, 460610, Note_off_c, 0, 77, 52
1, 460619, Note_off_c, 0, 60, 20
1, 460620, Control_c, 0, 64, 65
1, 460634, Control_c, 0, 64, 62
1, 460654, Note_on_c, 0, 79, 52
1, 460657, Control_c, 0, 64, 54
1, 460664, Note_on_c, 0, 63, 36
1, 460671, Note_off_c, 0, 62, 43
1, 460672, Control_c, 0, 64, 0
1, 460675, Note_on_c, 0, 67, 39
1, 460747, Control_c, 0, 64, 14
1, 460762, Control_c, 0, 64, 51
1, 460777, Control_c, 0, 64, 61
1, 460782, Note_off_c, 0, 67, 30
1, 460791, Control_c, 0, 64, 65
1, 460806, Control_c, 0, 64, 66
1, 460821, Control_c, 0, 64, 67
1, 460836, Control_c, 0, 64, 68
1, 460851, Control_c, 0, 64, 69
1, 460866, Control_c, 0, 64, 72
1, 460881, Control_c, 0, 64, 73
1, 460895, Control_c, 0, 64, 74
1, 460902, Note_on_c, 0, 67, 47
1, 460910, Control_c, 0, 64, 74
1, 460951, Note_off_c, 0, 63, 51
1, 461006, Note_off_c, 0, 67, 48
1, 461146, Control_c, 0, 64, 71
1, 461152, Note_on_c, 0, 67, 47
1, 461158, Note_on_c, 0, 72, 59
1, 461161, Control_c, 0, 64, 67
1, 461176, Control_c, 0, 64, 63
1, 461180, Note_on_c, 0, 51, 40
1, 461191, Control_c, 0, 64, 60
1, 461221, Control_c, 0, 64, 61
1, 461224, Note_off_c, 0, 79, 34
1, 461236, Control_c, 0, 64, 62
1, 461250, Control_c, 0, 64, 64
1, 461265, Control_c, 0, 64, 65
1, 461280, Control_c, 0, 64, 66
1, 461283, Note_off_c, 0, 67, 55
1, 461295, Control_c, 0, 64, 66
1, 461310, Control_c, 0, 64, 67
1, 461324, Control_c, 0, 64, 68
1, 461350, Note_off_c, 0, 72, 0
1, 461354, Control_c, 0, 64, 68
1, 461367, Note_on_c, 0, 72, 36
1, 461421, Note_on_c, 0, 67, 36
1, 461451, Note_on_c, 0, 53, 45
1, 461453, Note_off_c, 0, 67, 53
1, 461463, Note_off_c, 0, 51, 37
1, 461504, Note_off_c, 0, 72, 33
1, 461550, Note_on_c, 0, 55, 43
1, 461650, Note_off_c, 0, 53, 19
1, 461659, Control_c, 0, 64, 67
1, 461663, Note_on_c, 0, 56, 51
1, 461665, Note_on_c, 0, 73, 60
1, 461674, Control_c, 0, 64, 64
1, 461679, Note_on_c, 0, 67, 42
1, 461688, Control_c, 0, 64, 58
1, 461703, Control_c, 0, 64, 40
1, 461715, Note_off_c, 0, 55, 35
1, 461718, Control_c, 0, 64, 0
1, 461802, Note_on_c, 0, 75, 67
1, 461807, Control_c, 0, 64, 42
1, 461822, Control_c, 0, 64, 58
1, 461836, Control_c, 0, 64, 63
1, 461847, Note_off_c, 0, 73, 56
1, 461851, Control_c, 0, 64, 64
1, 461866, Control_c, 0, 64, 65
1, 461880, Control_c, 0, 64, 67
1, 461895, Control_c, 0, 64, 69
1, 461899, Note_off_c, 0, 67, 37
1, 461905, Note_on_c, 0, 65, 40
1, 461910, Control_c, 0, 64, 72
1, 461912, Note_on_c, 0, 77, 64
1, 461925, Control_c, 0, 64, 75
1, 461940, Control_c, 0, 64, 76
1, 461954, Control_c, 0, 64, 76
1, 461965, Note_off_c, 0, 75, 57
1, 461991, Note_off_c, 0, 65, 37
1, 461999, Control_c, 0, 64, 77
1, 462026, Note_off_c, 0, 77, 61
1, 462028, Note_on_c, 0, 73, 64
1, 462086, Note_off_c, 0, 73, 57
1, 462127, Note_off_c, 0, 56, 36
1, 462166, Note_on_c, 0, 55, 41
1, 462184, Control_c, 0, 64, 76
1, 462198, Control_c, 0, 64, 74
1, 462208, Note_on_c, 0, 72, 69
1, 462213, Control_c, 0, 64, 71
1, 462228, Control_c, 0, 64, 66
1, 462243, Control_c, 0, 64, 58
1, 462246, Note_on_c, 0, 65, 43
1, 462258, Control_c, 0, 64, 36
1, 462273, Control_c, 0, 64, 0
1, 462347, Control_c, 0, 64, 33
1, 462362, Control_c, 0, 64, 53
1, 462377, Control_c, 0, 64, 62
1, 462392, Control_c, 0, 64, 65
1, 462407, Control_c, 0, 64, 67
1, 462422, Control_c, 0, 64, 68
1, 462437, Control_c, 0, 64, 70
1, 462451, Control_c, 0, 64, 73
1, 462466, Control_c, 0, 64, 77
1, 462481, Control_c, 0, 64, 80
1, 462486, Note_on_c, 0, 63, 51
1, 462496, Control_c, 0, 64, 81
1, 462510, Control_c, 0, 64, 81
1, 462531, Note_off_c, 0, 65, 32
1, 462555, Control_c, 0, 64, 82
1, 462594, Note_off_c, 0, 72, 62
1, 462612, Note_off_c, 0, 63, 62
1, 462732, Control_c, 0, 64, 80
1, 462746, Note_on_c, 0, 71, 69
1, 462747, Control_c, 0, 64, 75
1, 462752, Note_on_c, 0, 53, 40
1, 462761, Note_on_c, 0, 43, 40
1, 462762, Control_c, 0, 64, 67
1, 462765, Note_on_c, 0, 63, 44
1, 462777, Control_c, 0, 64, 57
1, 462792, Control_c, 0, 64, 17
1, 462807, Control_c, 0, 64, 0
1, 462844, Note_off_c, 0, 55, 27
1, 462902, Control_c, 0, 64, 37
1, 462917, Control_c, 0, 64, 55
1, 462932, Control_c, 0, 64, 62
1, 462947, Control_c, 0, 64, 65
1, 462962, Control_c, 0, 64, 67
1, 462973, Note_off_c, 0, 43, 46
1, 462976, Control_c, 0, 64, 69
1, 462976, Control_c, 0, 67, 124
1, 462991, Control_c, 0, 64, 72
1, 462991, Control_c, 0, 67, 117
1, 463006, Control_c, 0, 64, 75
1, 463006, Control_c, 0, 67, 109
1, 463021, Control_c, 0, 64, 77
1, 463021, Control_c, 0, 67, 103
1, 463036, Control_c, 0, 64, 79
1, 463036, Control_c, 0, 67, 97
1, 463037, Note_on_c, 0, 62, 51
1, 463051, Control_c, 0, 64, 80
1, 463051, Control_c, 0, 67, 93
1, 463066, Control_c, 0, 64, 80
1, 463066, Control_c, 0, 67, 90
1, 463073, Note_off_c, 0, 71, 38
1, 463081, Control_c, 0, 64, 81
1, 463081, Control_c, 0, 67, 88
1, 463096, Control_c, 0, 67, 88
1, 463111, Control_c, 0, 67, 87
1, 463133, Note_off_c, 0, 62, 55
1, 463278, Note_off_c, 0, 63, 28
1, 463319, Control_c, 0, 64, 80
1, 463325, Note_on_c, 0, 72, 55
1, 463333, Control_c, 0, 64, 77
1, 463348, Control_c, 0, 64, 72
1, 463349, Note_on_c, 0, 48, 32
1, 463354, Note_on_c, 0, 60, 36
1, 463355, Note_on_c, 0, 51, 35
1, 463363, Control_c, 0, 64, 67
1, 463378, Control_c, 0, 64, 60
1, 463391, Note_off_c, 0, 53, 35
1, 463393, Control_c, 0, 64, 39
1, 463407, Control_c, 0, 64, 0
1, 463482, Control_c, 0, 67, 87
1, 463497, Control_c, 0, 64, 47
1, 463512, Control_c, 0, 64, 60
1, 463526, Control_c, 0, 64, 64
1, 463526, Control_c, 0, 67, 86
1, 463541, Control_c, 0, 67, 85
1, 463556, Control_c, 0, 64, 64
1, 463556, Control_c, 0, 67, 83
1, 463571, Control_c, 0, 64, 65
1, 463571, Control_c, 0, 67, 77
1, 463586, Control_c, 0, 64, 66
1, 463586, Control_c, 0, 67, 69
1, 463600, Control_c, 0, 64, 68
1, 463600, Control_c, 0, 67, 62
1, 463615, Control_c, 0, 64, 70
1, 463615, Control_c, 0, 67, 56
1, 463630, Control_c, 0, 64, 72
1, 463630, Control_c, 0, 67, 50
1, 463633, Note_on_c, 0, 67, 46
1, 463652, Control_c, 0, 64, 73
1, 463652, Control_c, 0, 67, 43
1, 463667, Control_c, 0, 64, 74
1, 463667, Control_c, 0, 67, 37
1, 463682, Control_c, 0, 64, 75
1, 463682, Control_c, 0, 67, 30
1, 463683, Note_off_c, 0, 60, 29
1, 463697, Control_c, 0, 64, 76
1, 463697, Control_c, 0, 67, 24
1, 463712, Control_c, 0, 64, 77
1, 463712, Control_c, 0, 67, 18
1, 463726, Control_c, 0, 64, 77
1, 463726, Control_c, 0, 67, 13
1, 463736, Note_off_c, 0, 67, 54
1, 463741, Control_c, 0, 64, 78
1, 463741, Control_c, 0, 67, 9
1, 463756, Control_c, 0, 67, 0
1, 463764, Note_off_c, 0, 72, 57
1, 463771, Control_c, 0, 64, 78
1, 463790, Note_off_c, 0, 48, 37
1, 463905, Control_c, 0, 64, 78
1, 463906, Note_on_c, 0, 67, 61
1, 463920, Control_c, 0, 64, 77
1, 463935, Control_c, 0, 64, 73
1, 463949, Control_c, 0, 64, 69
1, 463964, Control_c, 0, 64, 65
1, 463979, Control_c, 0, 64, 64
1, 464009, Control_c, 0, 64, 64
1, 464023, Note_off_c, 0, 51, 36
1, 464023, Control_c, 0, 64, 65
1, 464038, Control_c, 0, 64, 66
1, 464053, Control_c, 0, 64, 68
1, 464068, Control_c, 0, 64, 69
1, 464082, Control_c, 0, 64, 70
1, 464088, Note_off_c, 0, 67, 60
1, 464097, Control_c, 0, 64, 71
1, 464112, Control_c, 0, 64, 72
1, 464127, Control_c, 0, 64, 72
1, 464172, Control_c, 0, 64, 70
1, 464178, Note_on_c, 0, 67, 67
1, 464187, Control_c, 0, 64, 66
1, 464202, Control_c, 0, 64, 61
1, 464217, Control_c, 0, 64, 58
1, 464231, Control_c, 0, 64, 59
1, 464246, Control_c, 0, 64, 61
1, 464261, Control_c, 0, 64, 64
1, 464275, Control_c, 0, 64, 66
1, 464290, Control_c, 0, 64, 68
1, 464305, Control_c, 0, 64, 70
1, 464320, Control_c, 0, 64, 72
1, 464335, Control_c, 0, 64, 75
1, 464349, Control_c, 0, 64, 78
1, 464356, Note_off_c, 0, 67, 60
1, 464364, Control_c, 0, 64, 82
1, 464379, Control_c, 0, 64, 84
1, 464416, Control_c, 0, 64, 82
1, 464431, Control_c, 0, 64, 74
1, 464446, Control_c, 0, 64, 63
1, 464453, Note_on_c, 0, 67, 81
1, 464461, Control_c, 0, 64, 0
1, 464520, Control_c, 0, 64, 43
1, 464535, Control_c, 0, 64, 63
1, 464549, Control_c, 0, 64, 69
1, 464564, Control_c, 0, 64, 74
1, 464579, Control_c, 0, 64, 77
1, 464594, Control_c, 0, 64, 80
1, 464608, Control_c, 0, 64, 84
1, 464623, Note_off_c, 0, 67, 59
1, 464623, Control_c, 0, 64, 89
1, 464638, Control_c, 0, 64, 95
1, 464653, Control_c, 0, 64, 98
1, 464668, Control_c, 0, 64, 99
1, 464684, Control_c, 0, 64, 97
1, 464698, Control_c, 0, 64, 84
1, 464713, Note_on_c, 0, 51, 81
1, 464713, Control_c, 0, 64, 70
1, 464717, Note_on_c, 0, 67, 79
1, 464725, Note_on_c, 0, 39, 65
1, 464728, Control_c, 0, 64, 60
1, 464743, Control_c, 0, 64, 50
1, 464758, Control_c, 0, 64, 53
1, 464772, Control_c, 0, 64, 60
1, 464787, Control_c, 0, 64, 65
1, 464802, Control_c, 0, 64, 68
1, 464817, Control_c, 0, 64, 69
1, 464832, Control_c, 0, 64, 70
1, 464846, Control_c, 0, 64, 71
1, 464861, Control_c, 0, 64, 73
1, 464876, Control_c, 0, 64, 75
1, 464890, Control_c, 0, 64, 77
1, 464891, Note_off_c, 0, 67, 54
1, 464894, Note_off_c, 0, 39, 56
1, 464905, Control_c, 0, 64, 77
1, 464920, Control_c, 0, 64, 78
1, 464935, Control_c, 0, 64, 78
1, 464938, Note_off_c, 0, 51, 61
1, 464950, Control_c, 0, 64, 79
1, 464965, Control_c, 0, 64, 79
1, 464980, Control_c, 0, 64, 80
1, 464995, Control_c, 0, 64, 80
1, 465009, Control_c, 0, 64, 81
1, 465024, Control_c, 0, 64, 83
1, 465039, Control_c, 0, 64, 84
1, 465054, Control_c, 0, 64, 85
1, 465069, Control_c, 0, 64, 84
1, 465070, Note_on_c, 0, 68, 77
1, 465075, Note_on_c, 0, 60, 69
1, 465075, Note_on_c, 0, 67, 72
1, 465081, Note_on_c, 0, 53, 86
1, 465082, Note_on_c, 0, 41, 82
1, 465084, Control_c, 0, 64, 75
1, 465098, Control_c, 0, 64, 64
1, 465113, Control_c, 0, 64, 23
1, 465128, Control_c, 0, 64, 0
1, 465165, Control_c, 0, 64, 34
1, 465179, Control_c, 0, 64, 61
1, 465194, Control_c, 0, 64, 69
1, 465209, Control_c, 0, 64, 77
1, 465224, Control_c, 0, 64, 80
1, 465239, Control_c, 0, 64, 82
1, 465254, Control_c, 0, 64, 84
1, 465257, Note_off_c, 0, 60, 55
1, 465265, Note_off_c, 0, 68, 38
1, 465269, Control_c, 0, 64, 90
1, 465284, Control_c, 0, 64, 96
1, 465298, Control_c, 0, 64, 103
1, 465313, Control_c, 0, 64, 110
1, 465328, Control_c, 0, 64, 121
1, 465343, Control_c, 0, 64, 127
1, 465346, Note_off_c, 0, 67, 0
1, 465351, Note_off_c, 0, 41, 54
1, 465355, Note_on_c, 0, 68, 67
1, 465361, Note_off_c, 0, 53, 62
1, 465362, Note_on_c, 0, 67, 38
1, 465368, Note_on_c, 0, 60, 67
1, 465426, Note_off_c, 0, 67, 61
1, 465430, Note_off_c, 0, 68, 64
1, 465460, Note_on_c, 0, 43, 81
1, 465474, Note_on_c, 0, 55, 67
1, 465474, Note_off_c, 0, 60, 55
1, 465516, Note_off_c, 0, 55, 62
1, 465522, Note_off_c, 0, 43, 62
1, 465596, Note_on_c, 0, 72, 73
1, 465598, Note_on_c, 0, 68, 76
1, 465600, Note_on_c, 0, 56, 81
1, 465600, Note_on_c, 0, 67, 75
1, 465602, Note_on_c, 0, 44, 74
1, 465610, Control_c, 0, 64, 93
1, 465625, Control_c, 0, 64, 67
1, 465640, Control_c, 0, 64, 0
1, 465669, Note_on_c, 0, 70, 10
1, 465713, Control_c, 0, 64, 48
1, 465717, Note_off_c, 0, 70, 39
1, 465719, Note_off_c, 0, 68, 60
1, 465725, Note_off_c, 0, 72, 56
1, 465728, Control_c, 0, 64, 64
1, 465743, Control_c, 0, 64, 68
1, 465758, Control_c, 0, 64, 71
1, 465773, Control_c, 0, 64, 72
1, 465787, Control_c, 0, 64, 75
1, 465802, Control_c, 0, 64, 80
1, 465817, Control_c, 0, 64, 86
1, 465832, Control_c, 0, 64, 92
1, 465846, Control_c, 0, 64, 96
1, 465850, Note_on_c, 0, 72, 67
1, 465853, Note_on_c, 0, 68, 68
1, 465861, Control_c, 0, 64, 99
1, 465862, Note_on_c, 0, 65, 67
1, 465876, Control_c, 0, 64, 101
1, 465879, Note_off_c, 0, 68, 68
1, 465898, Note_off_c, 0, 65, 62
1, 465898, Note_off_c, 0, 72, 60
1, 465898, Control_c, 0, 64, 103
1, 465904, Note_off_c, 0, 67, 39
1, 465913, Control_c, 0, 64, 104
1, 466000, Note_off_c, 0, 56, 57
1, 466017, Note_off_c, 0, 44, 60
1, 466046, Control_c, 0, 64, 103
1, 466061, Control_c, 0, 64, 95
1, 466076, Control_c, 0, 64, 81
1, 466091, Control_c, 0, 64, 68
1, 466099, Note_on_c, 0, 71, 70
1, 466100, Note_on_c, 0, 79, 66
1, 466106, Control_c, 0, 64, 45
1, 466107, Note_on_c, 0, 80, 72
1, 466120, Control_c, 0, 64, 0
1, 466194, Control_c, 0, 64, 38
1, 466209, Control_c, 0, 64, 63
1, 466216, Note_off_c, 0, 71, 61
1, 466224, Control_c, 0, 64, 70
1, 466239, Control_c, 0, 64, 74
1, 466253, Control_c, 0, 64, 77
1, 466264, Note_off_c, 0, 80, 61
1, 466269, Control_c, 0, 64, 79
1, 466284, Control_c, 0, 64, 82
1, 466297, Note_off_c, 0, 79, 60
1, 466299, Control_c, 0, 64, 86
1, 466314, Control_c, 0, 64, 91
1, 466329, Control_c, 0, 64, 94
1, 466332, Note_on_c, 0, 80, 63
1, 466333, Note_on_c, 0, 77, 55
1, 466340, Note_on_c, 0, 50, 76
1, 466342, Note_on_c, 0, 38, 72
1, 466343, Control_c, 0, 64, 95
1, 466348, Note_on_c, 0, 70, 76
1, 466358, Control_c, 0, 64, 96
1, 466363, Note_off_c, 0, 80, 67
1, 466364, Note_off_c, 0, 77, 64
1, 466373, Control_c, 0, 64, 96
1, 466398, Note_off_c, 0, 38, 63
1, 466399, Note_off_c, 0, 70, 62
1, 466401, Note_off_c, 0, 50, 61
1, 466663, Control_c, 0, 64, 95
1, 466673, Note_on_c, 0, 65, 65
1, 466675, Note_on_c, 0, 67, 75
1, 466677, Control_c, 0, 64, 81
1, 466683, Note_on_c, 0, 51, 89
1, 466686, Note_on_c, 0, 39, 76
1, 466686, Note_on_c, 0, 58, 70
1, 466692, Control_c, 0, 64, 61
1, 466707, Control_c, 0, 64, 0
1, 466781, Control_c, 0, 64, 57
1, 466795, Control_c, 0, 64, 73
1, 466807, Poly_aftertouch_c, 0, 40, 127
1, 466810, Control_c, 0, 64, 89
1, 466825, Control_c, 0, 64, 100
1, 466840, Control_c, 0, 64, 102
1, 466855, Control_c, 0, 64, 105
1, 466870, Control_c, 0, 64, 110
1, 466874, Note_off_c, 0, 58, 53
1, 466884, Control_c, 0, 64, 125
1, 466899, Control_c, 0, 64, 127
1, 466917, Poly_aftertouch_c, 0, 40, 0
1, 466938, Note_off_c, 0, 67, 0
1, 466951, Note_on_c, 0, 67, 46
1, 466973, Note_on_c, 0, 58, 64
1, 466974, Note_off_c, 0, 39, 60
1, 466982, Note_off_c, 0, 51, 61
1, 466992, Note_on_c, 0, 63, 46
1, 467013, Note_off_c, 0, 67, 58
1, 467025, Note_off_c, 0, 63, 54
1, 467027, Note_off_c, 0, 65, 36
1, 467072, Note_off_c, 0, 58, 62
1, 467079, Note_on_c, 0, 41, 72
1, 467083, Note_on_c, 0, 53, 67
1, 467115, Note_off_c, 0, 41, 63
1, 467117, Note_off_c, 0, 53, 64
1, 467167, Control_c, 0, 64, 98
1, 467182, Control_c, 0, 64, 71
1, 467189, Note_on_c, 0, 43, 77
1, 467190, Note_on_c, 0, 70, 77
1, 467192, Note_on_c, 0, 55, 77
1, 467196, Note_on_c, 0, 65, 64
1, 467197, Control_c, 0, 64, 18
1, 467202, Note_on_c, 0, 67, 63
1, 467212, Control_c, 0, 64, 0
1, 467338, Note_off_c, 0, 70, 56
1, 467345, Control_c, 0, 64, 49
1, 467360, Control_c, 0, 64, 64
1, 467374, Control_c, 0, 64, 70
1, 467397, Control_c, 0, 64, 79
1, 467412, Control_c, 0, 64, 87
1, 467426, Control_c, 0, 64, 89
1, 467432, Note_on_c, 0, 63, 76
1, 467441, Note_on_c, 0, 70, 75
1, 467446, Note_off_c, 0, 65, 62
1, 467456, Control_c, 0, 64, 90
1, 467458, Note_off_c, 0, 63, 63
1, 467466, Note_off_c, 0, 70, 68
1, 467489, Note_off_c, 0, 67, 39
1, 467493, Note_off_c, 0, 43, 55
1, 467509, Note_off_c, 0, 55, 59
1, 467663, Control_c, 0, 64, 88
1, 467678, Control_c, 0, 64, 80
1, 467680, Note_on_c, 0, 77, 75
1, 467680, Note_on_c, 0, 79, 83
1, 467688, Note_on_c, 0, 70, 73
1, 467693, Control_c, 0, 64, 68
1, 467707, Control_c, 0, 64, 49
1, 467722, Control_c, 0, 64, 0
1, 467782, Control_c, 0, 64, 22
1, 467797, Control_c, 0, 64, 59
1, 467803, Note_off_c, 0, 70, 56
1, 467811, Control_c, 0, 64, 65
1, 467815, Note_off_c, 0, 79, 57
1, 467826, Control_c, 0, 64, 68
1, 467841, Control_c, 0, 64, 68
1, 467856, Control_c, 0, 64, 69
1, 467871, Control_c, 0, 64, 72
1, 467886, Control_c, 0, 64, 76
1, 467901, Control_c, 0, 64, 80
1, 467910, Note_off_c, 0, 77, 55
1, 467916, Control_c, 0, 64, 83
1, 467919, Note_on_c, 0, 31, 75
1, 467919, Note_on_c, 0, 43, 77
1, 467922, Note_on_c, 0, 70, 85
1, 467922, Note_on_c, 0, 79, 72
1, 467924, Note_on_c, 0, 75, 69
1, 467931, Control_c, 0, 64, 85
1, 467946, Control_c, 0, 64, 87
1, 467949, Note_off_c, 0, 79, 64
1, 467955, Note_off_c, 0, 75, 66
1, 467961, Control_c, 0, 64, 87
1, 467966, Note_off_c, 0, 31, 64
1, 467969, Note_off_c, 0, 43, 61
1, 467975, Control_c, 0, 64, 88
1, 467978, Note_off_c, 0, 70, 62
1, 467990, Control_c, 0, 64, 89
1, 468005, Control_c, 0, 64, 89
1, 468020, Control_c, 0, 64, 90
1, 468035, Control_c, 0, 64, 91
1, 468049, Control_c, 0, 64, 94
1, 468064, Control_c, 0, 64, 97
1, 468079, Control_c, 0, 64, 103
1, 468094, Control_c, 0, 64, 109
1, 468109, Control_c, 0, 64, 114
1, 468145, Control_c, 0, 64, 110
1, 468160, Control_c, 0, 64, 85
1, 468168, Note_on_c, 0, 51, 93
1, 468169, Note_on_c, 0, 61, 75
1, 468170, Note_on_c, 0, 39, 83
1, 468175, Control_c, 0, 64, 63
1, 468181, Note_on_c, 0, 58, 69
1, 468190, Control_c, 0, 64, 0
1, 468191, Note_on_c, 0, 67, 64
1, 468279, Control_c, 0, 64, 44
1, 468279, Note_off_c, 0, 58, 60
1, 468294, Control_c, 0, 64, 63
1, 468309, Control_c, 0, 64, 69
1, 468312, Note_off_c, 0, 67, 50
1, 468323, Control_c, 0, 64, 74
1, 468324, Note_off_c, 0, 61, 55
1, 468338, Control_c, 0, 64, 76
1, 468351, Note_off_c, 0, 39, 61
1, 468353, Control_c, 0, 64, 78
1, 468357, Note_off_c, 0, 51, 60
1, 468368, Control_c, 0, 64, 81
1, 468383, Control_c, 0, 64, 84
1, 468397, Control_c, 0, 64, 86
1, 468412, Control_c, 0, 64, 86
1, 468414, Note_on_c, 0, 58, 79
1, 468415, Note_on_c, 0, 67, 75
1, 468433, Note_on_c, 0, 62, 53
1, 468456, Note_off_c, 0, 62, 60
1, 468458, Note_off_c, 0, 58, 60
1, 468480, Note_off_c, 0, 67, 59
1, 468525, Note_on_c, 0, 50, 86
1, 468530, Note_on_c, 0, 38, 79
1, 468545, Control_c, 0, 64, 86
1, 468554, Note_off_c, 0, 50, 63
1, 468555, Note_on_c, 0, 40, 45
1, 468560, Control_c, 0, 64, 78
1, 468565, Note_off_c, 0, 38, 66
1, 468575, Control_c, 0, 64, 66
1, 468588, Note_off_c, 0, 40, 56
1, 468589, Control_c, 0, 64, 34
1, 468604, Control_c, 0, 64, 0
1, 468642, Note_on_c, 0, 46, 97
1, 468649, Note_on_c, 0, 73, 85
1, 468651, Note_on_c, 0, 34, 79
1, 468653, Note_on_c, 0, 67, 79
1, 468656, Note_on_c, 0, 70, 72
1, 468811, Note_off_c, 0, 70, 62
1, 468813, Note_off_c, 0, 67, 62
1, 468830, Note_off_c, 0, 34, 65
1, 468843, Note_off_c, 0, 46, 59
1, 468894, Note_on_c, 0, 74, 81
1, 468910, Note_on_c, 0, 67, 77
1, 468912, Note_off_c, 0, 73, 0
1, 468913, Note_on_c, 0, 70, 73
1, 468939, Note_on_c, 0, 73, 14
1, 468970, Note_off_c, 0, 73, 51
1, 468987, Note_off_c, 0, 74, 63
1, 469002, Note_off_c, 0, 70, 62
1, 469073, Note_off_c, 0, 67, 55
1, 469159, Note_on_c, 0, 50, 91
1, 469163, Note_on_c, 0, 38, 85
1, 469164, Note_on_c, 0, 79, 83
1, 469165, Note_on_c, 0, 69, 84
1, 469171, Note_on_c, 0, 75, 74
1, 469180, Note_on_c, 0, 72, 61
1, 469259, Poly_aftertouch_c, 0, 78, 0
1, 469306, Note_off_c, 0, 72, 61
1, 469329, Note_off_c, 0, 69, 60
1, 469335, Note_off_c, 0, 79, 63
1, 469359, Note_off_c, 0, 38, 63
1, 469364, Note_off_c, 0, 50, 58
1, 469367, Note_off_c, 0, 75, 59
1, 469403, Note_on_c, 0, 78, 80
1, 469419, Note_on_c, 0, 69, 79
1, 469422, Note_on_c, 0, 72, 65
1, 469436, Note_on_c, 0, 75, 34
1, 469486, Note_off_c, 0, 75, 63
1, 469531, Note_off_c, 0, 72, 59
1, 469546, Note_off_c, 0, 69, 62
1, 469632, Note_off_c, 0, 78, 60
1, 469713, Note_on_c, 0, 79, 92
1, 469716, Note_on_c, 0, 43, 82
1, 469722, Note_on_c, 0, 67, 79
1, 469725, Note_on_c, 0, 74, 76
1, 469727, Note_on_c, 0, 31, 74
1, 469728, Note_on_c, 0, 71, 74
1, 469806, Control_c, 0, 64, 41
1, 469821, Control_c, 0, 64, 56
1, 469836, Control_c, 0, 64, 63
1, 469850, Control_c, 0, 64, 65
1, 469865, Control_c, 0, 64, 65
1, 469882, Note_off_c, 0, 67, 57
1, 469984, Control_c, 0, 64, 66
1, 469992, Note_on_c, 0, 67, 50
1, 469999, Control_c, 0, 64, 66
1, 470008, Note_off_c, 0, 74, 57
1, 470012, Note_off_c, 0, 79, 53
1, 470013, Control_c, 0, 64, 67
1, 470028, Control_c, 0, 64, 67
1, 470043, Note_off_c, 0, 71, 59
1, 470043, Control_c, 0, 64, 68
1, 470087, Control_c, 0, 64, 68
1, 470097, Note_off_c, 0, 67, 61
1, 470117, Control_c, 0, 64, 69
1, 470172, Note_off_c, 0, 31, 62
1, 470214, Note_on_c, 0, 67, 66
1, 470214, Note_off_c, 0, 43, 58
1, 470235, Control_c, 0, 64, 68
1, 470250, Control_c, 0, 64, 66
1, 470266, Control_c, 0, 64, 62
1, 470281, Control_c, 0, 64, 49
1, 470296, Control_c, 0, 64, 0
1, 470392, Control_c, 0, 64, 41
1, 470400, Note_off_c, 0, 67, 61
1, 470407, Control_c, 0, 64, 53
1, 470422, Control_c, 0, 64, 55
1, 470436, Control_c, 0, 64, 56
1, 470451, Control_c, 0, 64, 59
1, 470459, Note_on_c, 0, 67, 67
1, 470466, Control_c, 0, 64, 63
1, 470481, Control_c, 0, 64, 66
1, 470496, Control_c, 0, 64, 69
1, 470510, Poly_aftertouch_c, 0, 72, 127
1, 470511, Control_c, 0, 64, 72
1, 470525, Control_c, 0, 64, 75
1, 470540, Control_c, 0, 64, 79
1, 470555, Control_c, 0, 64, 82
1, 470570, Control_c, 0, 64, 86
1, 470585, Control_c, 0, 64, 91
1, 470599, Control_c, 0, 64, 95
1, 470614, Control_c, 0, 64, 100
1, 470629, Control_c, 0, 64, 104
1, 470632, Note_off_c, 0, 67, 59
1, 470643, Control_c, 0, 64, 107
1, 470658, Control_c, 0, 64, 110
1, 470673, Control_c, 0, 64, 112
1, 470688, Control_c, 0, 64, 115
1, 470701, Note_on_c, 0, 67, 75
1, 470703, Control_c, 0, 64, 118
1, 470718, Control_c, 0, 64, 125
1, 470733, Control_c, 0, 64, 127
1, 470835, Note_off_c, 0, 67, 58
1, 470932, Note_on_c, 0, 67, 72
1, 470941, Note_on_c, 0, 47, 87
1, 470942, Note_on_c, 0, 35, 79
1, 471059, Note_off_c, 0, 35, 64
1, 471064, Note_off_c, 0, 47, 59
1, 471106, Note_off_c, 0, 67, 55
1, 471187, Poly_aftertouch_c, 0, 72, 0
1, 471214, Control_c, 0, 64, 78
1, 471215, Note_on_c, 0, 36, 86
1, 471219, Note_on_c, 0, 48, 89
1, 471219, Note_on_c, 0, 67, 71
1, 471221, Note_on_c, 0, 68, 72
1, 471224, Poly_aftertouch_c, 0, 72, 127
1, 471229, Control_c, 0, 64, 45
1, 471244, Control_c, 0, 64, 0
1, 471318, Control_c, 0, 64, 58
1, 471333, Control_c, 0, 64, 73
1, 471341, Note_off_c, 0, 68, 58
1, 471347, Control_c, 0, 64, 95
1, 471362, Control_c, 0, 64, 127
1, 471396, Note_off_c, 0, 36, 62
1, 471406, Note_off_c, 0, 67, 33
1, 471418, Note_off_c, 0, 48, 60
1, 471479, Poly_aftertouch_c, 0, 72, 0
1, 471506, Note_on_c, 0, 68, 57
1, 471511, Note_on_c, 0, 65, 67
1, 471534, Note_off_c, 0, 68, 66
1, 471538, Poly_aftertouch_c, 0, 67, 127
1, 471570, Note_off_c, 0, 65, 54
1, 471582, Poly_aftertouch_c, 0, 67, 0
1, 471597, Note_on_c, 0, 39, 73
1, 471600, Note_on_c, 0, 51, 78
1, 471660, Note_off_c, 0, 51, 60
1, 471670, Note_off_c, 0, 39, 61
1, 471688, Control_c, 0, 64, 89
1, 471703, Control_c, 0, 64, 62
1, 471713, Note_on_c, 0, 38, 84
1, 471716, Note_on_c, 0, 50, 84
1, 471718, Control_c, 0, 64, 0
1, 471719, Note_on_c, 0, 79, 80
1, 471723, Note_on_c, 0, 68, 74
1, 471777, Control_c, 0, 64, 56
1, 471791, Control_c, 0, 64, 68
1, 471806, Control_c, 0, 64, 79
1, 471821, Control_c, 0, 64, 92
1, 471826, Note_off_c, 0, 68, 56
1, 471836, Control_c, 0, 64, 99
1, 471845, Note_off_c, 0, 38, 64
1, 471851, Control_c, 0, 64, 104
1, 471867, Control_c, 0, 64, 110
1, 471889, Control_c, 0, 64, 127
1, 471893, Note_off_c, 0, 79, 59
1, 471896, Note_off_c, 0, 50, 62
1, 471953, Note_on_c, 0, 77, 76
1, 471956, Note_on_c, 0, 68, 74
1, 471991, Note_off_c, 0, 68, 61
1, 471992, Note_off_c, 0, 77, 60
1, 472067, Note_on_c, 0, 48, 84
1, 472068, Note_on_c, 0, 60, 76
1, 472096, Note_off_c, 0, 60, 58
1, 472123, Note_off_c, 0, 48, 60
1, 472184, Note_on_c, 0, 59, 85
1, 472184, Note_on_c, 0, 86, 83
1, 472184, Note_on_c, 0, 47, 83
1, 472188, Note_on_c, 0, 79, 79
1, 472191, Note_on_c, 0, 80, 84
1, 472200, Control_c, 0, 64, 72
1, 472214, Control_c, 0, 64, 0
1, 472319, Control_c, 0, 64, 47
1, 472334, Control_c, 0, 64, 64
1, 472348, Control_c, 0, 64, 69
1, 472351, Note_off_c, 0, 80, 60
1, 472363, Control_c, 0, 64, 70
1, 472374, Note_off_c, 0, 86, 57
1, 472378, Control_c, 0, 64, 72
1, 472393, Control_c, 0, 64, 77
1, 472407, Control_c, 0, 64, 90
1, 472410, Note_off_c, 0, 47, 61
1, 472422, Control_c, 0, 64, 121
1, 472426, Note_off_c, 0, 59, 61
1, 472436, Control_c, 0, 64, 127
1, 472462, Note_on_c, 0, 80, 73
1, 472482, Note_on_c, 0, 77, 78
1, 472494, Note_off_c, 0, 79, 54
1, 472522, Note_off_c, 0, 80, 64
1, 472542, Note_off_c, 0, 77, 63
1, 472557, Note_on_c, 0, 50, 82
1, 472564, Note_on_c, 0, 62, 69
1, 472583, Note_off_c, 0, 62, 66
1, 472600, Note_off_c, 0, 50, 62
1, 472667, Control_c, 0, 64, 81
1, 472682, Control_c, 0, 64, 56
1, 472692, Note_on_c, 0, 67, 65
1, 472695, Note_on_c, 0, 51, 82
1, 472696, Note_on_c, 0, 39, 77
1, 472697, Control_c, 0, 64, 0
1, 472698, Note_on_c, 0, 65, 72
1, 472785, Control_c, 0, 64, 49
1, 472793, Note_off_c, 0, 67, 57
1, 472800, Control_c, 0, 64, 66
1, 472815, Control_c, 0, 64, 80
1, 472830, Control_c, 0, 64, 90
1, 472844, Control_c, 0, 64, 92
1, 472859, Control_c, 0, 64, 93
1, 472874, Control_c, 0, 64, 95
1, 472888, Poly_aftertouch_c, 0, 40, 127
1, 472889, Control_c, 0, 64, 99
1, 472897, Note_off_c, 0, 39, 59
1, 472904, Control_c, 0, 64, 104
1, 472918, Control_c, 0, 64, 107
1, 472924, Note_off_c, 0, 51, 60
1, 472925, Note_on_c, 0, 67, 58
1, 472927, Poly_aftertouch_c, 0, 40, 0
1, 472933, Note_on_c, 0, 63, 72
1, 472933, Control_c, 0, 64, 108
1, 472948, Note_off_c, 0, 65, 51
1, 472948, Control_c, 0, 64, 109
1, 472952, Note_off_c, 0, 67, 67
1, 472954, Note_off_c, 0, 63, 70
1, 472962, Control_c, 0, 64, 110
1, 472992, Control_c, 0, 64, 111
1, 473007, Control_c, 0, 64, 113
1, 473022, Control_c, 0, 64, 114
1, 473037, Control_c, 0, 64, 116
1, 473037, Note_on_c, 0, 41, 62
1, 473047, Note_on_c, 0, 55, 56
1, 473049, Note_on_c, 0, 43, 60
1, 473052, Control_c, 0, 64, 121
1, 473062, Note_off_c, 0, 41, 60
1, 473067, Control_c, 0, 64, 127
1, 473070, Note_off_c, 0, 55, 63
1, 473072, Note_on_c, 0, 53, 22
1, 473076, Note_off_c, 0, 43, 53
1, 473112, Note_off_c, 0, 53, 55
1, 473141, Control_c, 0, 64, 98
1, 473155, Control_c, 0, 64, 69
1, 473156, Note_on_c, 0, 48, 84
1, 473157, Note_on_c, 0, 77, 86
1, 473159, Note_on_c, 0, 60, 82
1, 473169, Note_on_c, 0, 67, 76
1, 473170, Control_c, 0, 64, 0
1, 473260, Control_c, 0, 64, 61
1, 473275, Control_c, 0, 64, 74
1, 473281, Note_off_c, 0, 67, 52
1, 473290, Control_c, 0, 64, 95
1, 473304, Control_c, 0, 64, 104
1, 473319, Control_c, 0, 64, 106
1, 473334, Control_c, 0, 64, 116
1, 473349, Control_c, 0, 64, 127
1, 473370, Note_off_c, 0, 77, 51
1, 473374, Note_off_c, 0, 48, 57
1, 473391, Note_off_c, 0, 60, 61
1, 473399, Note_on_c, 0, 67, 69
1, 473399, Note_on_c, 0, 75, 81
1, 473418, Note_off_c, 0, 67, 71
1, 473442, Note_off_c, 0, 75, 66
1, 473493, Note_on_c, 0, 50, 84
1, 473499, Note_on_c, 0, 62, 81
1, 473526, Note_off_c, 0, 62, 63
1, 473541, Note_off_c, 0, 50, 57
1, 473624, Control_c, 0, 64, 106
1, 473628, Note_on_c, 0, 86, 92
1, 473630, Note_on_c, 0, 63, 94
1, 473636, Note_on_c, 0, 51, 84
1, 473639, Control_c, 0, 64, 68
1, 473646, Note_on_c, 0, 79, 72
1, 473654, Control_c, 0, 64, 0
1, 473738, Note_off_c, 0, 63, 66
1, 473742, Control_c, 0, 64, 60
1, 473756, Note_off_c, 0, 79, 56
1, 473757, Control_c, 0, 64, 75
1, 473772, Control_c, 0, 64, 111
1, 473786, Control_c, 0, 64, 127
1, 473796, Note_off_c, 0, 51, 59
1, 473841, Note_off_c, 0, 86, 59
1, 473866, Note_on_c, 0, 84, 71
1, 473874, Note_on_c, 0, 79, 79
1, 473899, Note_off_c, 0, 79, 63
1, 473909, Note_off_c, 0, 84, 63
1, 473974, Note_on_c, 0, 38, 87
1, 473978, Note_on_c, 0, 50, 79
1, 474005, Note_off_c, 0, 50, 65
1, 474009, Note_off_c, 0, 38, 63
1, 474083, Control_c, 0, 64, 98
1, 474098, Control_c, 0, 64, 68
1, 474101, Note_on_c, 0, 51, 85
1, 474108, Note_on_c, 0, 39, 70
1, 474109, Note_on_c, 0, 72, 82
1, 474113, Control_c, 0, 64, 0
1, 474115, Note_on_c, 0, 67, 77
1, 474169, Note_on_c, 0, 52, 26
1, 474217, Note_off_c, 0, 52, 29
1, 474298, Note_off_c, 0, 67, 52
1, 474298, Control_c, 0, 64, 19
1, 474313, Control_c, 0, 64, 63
1, 474328, Control_c, 0, 64, 73
1, 474343, Control_c, 0, 64, 85
1, 474358, Control_c, 0, 64, 91
1, 474364, Note_off_c, 0, 51, 61
1, 474366, Note_off_c, 0, 39, 61
1, 474367, Note_on_c, 0, 74, 89
1, 474372, Note_on_c, 0, 67, 79
1, 474372, Control_c, 0, 64, 92
1, 474387, Control_c, 0, 64, 94
1, 474402, Control_c, 0, 64, 97
1, 474417, Control_c, 0, 64, 98
1, 474432, Control_c, 0, 64, 98
1, 474447, Control_c, 0, 64, 99
1, 474464, Note_on_c, 0, 38, 84
1, 474464, Note_on_c, 0, 50, 84
1, 474477, Control_c, 0, 64, 98
1, 474491, Control_c, 0, 64, 91
1, 474504, Note_off_c, 0, 50, 60
1, 474506, Control_c, 0, 64, 73
1, 474509, Note_off_c, 0, 38, 63
1, 474518, Note_off_c, 0, 67, 57
1, 474521, Control_c, 0, 64, 42
1, 474521, Note_off_c, 0, 72, 21
1, 474536, Control_c, 0, 64, 0
1, 474578, Note_on_c, 0, 75, 88
1, 474578, Note_on_c, 0, 48, 96
1, 474580, Note_on_c, 0, 36, 81
1, 474584, Note_on_c, 0, 67, 73
1, 474739, Note_off_c, 0, 67, 59
1, 474745, Note_off_c, 0, 74, 47
1, 474757, Control_c, 0, 64, 35
1, 474772, Control_c, 0, 64, 66
1, 474787, Control_c, 0, 64, 74
1, 474791, Note_off_c, 0, 48, 57
1, 474799, Note_off_c, 0, 36, 63
1, 474802, Control_c, 0, 64, 79
1, 474809, Note_on_c, 0, 77, 88
1, 474817, Note_on_c, 0, 67, 81
1, 474817, Control_c, 0, 64, 83
1, 474832, Control_c, 0, 64, 89
1, 474846, Control_c, 0, 64, 97
1, 474849, Note_off_c, 0, 75, 60
1, 474861, Control_c, 0, 64, 109
1, 474883, Control_c, 0, 64, 127
1, 474910, Note_on_c, 0, 35, 85
1, 474914, Note_on_c, 0, 47, 91
1, 474948, Note_off_c, 0, 67, 53
1, 474956, Note_off_c, 0, 47, 63
1, 474958, Note_off_c, 0, 35, 65
1, 475016, Control_c, 0, 64, 70
1, 475030, Note_on_c, 0, 36, 84
1, 475030, Note_on_c, 0, 48, 92
1, 475030, Note_on_c, 0, 75, 78
1, 475031, Control_c, 0, 64, 0
1, 475040, Note_on_c, 0, 67, 86
1, 475067, Note_off_c, 0, 77, 53
1, 475097, Note_off_c, 0, 75, 64
1, 475151, Control_c, 0, 64, 58
1, 475166, Control_c, 0, 64, 67
1, 475180, Control_c, 0, 64, 69
1, 475193, Note_off_c, 0, 67, 55
1, 475195, Control_c, 0, 64, 70
1, 475210, Control_c, 0, 64, 72
1, 475216, Note_off_c, 0, 36, 63
1, 475225, Control_c, 0, 64, 77
1, 475240, Control_c, 0, 64, 84
1, 475249, Note_off_c, 0, 48, 61
1, 475255, Control_c, 0, 64, 95
1, 475270, Control_c, 0, 64, 104
1, 475285, Control_c, 0, 64, 110
1, 475286, Note_on_c, 0, 74, 88
1, 475291, Note_on_c, 0, 66, 84
1, 475295, Note_on_c, 0, 69, 74
1, 475300, Control_c, 0, 64, 119
1, 475314, Control_c, 0, 64, 127
1, 475374, Note_off_c, 0, 74, 61
1, 475392, Note_off_c, 0, 69, 62
1, 475410, Note_on_c, 0, 50, 81
1, 475410, Note_on_c, 0, 38, 79
1, 475446, Note_off_c, 0, 50, 60
1, 475448, Note_off_c, 0, 66, 34
1, 475463, Note_off_c, 0, 38, 61
1, 475600, Note_on_c, 0, 72, 91
1, 475604, Note_on_c, 0, 63, 90
1, 475606, Note_on_c, 0, 66, 77
1, 475608, Note_on_c, 0, 69, 77
1, 475610, Control_c, 0, 64, 89
1, 475615, Note_on_c, 0, 43, 89
1, 475617, Note_on_c, 0, 31, 88
1, 475632, Control_c, 0, 64, 64
1, 475647, Control_c, 0, 64, 0
1, 475795, Control_c, 0, 64, 29
1, 475810, Control_c, 0, 64, 57
1, 475825, Control_c, 0, 64, 64
1, 475839, Note_off_c, 0, 66, 37
1, 475839, Control_c, 0, 64, 66
1, 475855, Control_c, 0, 64, 67
1, 475885, Control_c, 0, 64, 68
1, 475900, Control_c, 0, 64, 69
1, 475915, Control_c, 0, 64, 70
1, 475944, Control_c, 0, 64, 71
1, 476005, Note_off_c, 0, 63, 58
1, 476051, Note_off_c, 0, 69, 61
1, 476078, Control_c, 0, 64, 69
1, 476092, Control_c, 0, 64, 63
1, 476107, Control_c, 0, 64, 0
1, 476125, Note_on_c, 0, 71, 72
1, 476132, Note_on_c, 0, 62, 50
1, 476134, Note_on_c, 0, 67, 55
1, 476182, Note_off_c, 0, 72, 51
1, 476189, Note_off_c, 0, 31, 63
1, 476195, Control_c, 0, 64, 50
1, 476210, Control_c, 0, 64, 67
1, 476225, Control_c, 0, 64, 78
1, 476240, Control_c, 0, 64, 82
1, 476253, Note_off_c, 0, 43, 62
1, 476414, Note_on_c, 0, 55, 19
1, 476449, Note_on_c, 0, 53, 8
1, 476473, Note_off_c, 0, 62, 0
1, 476501, Note_off_c, 0, 53, 51
1, 476510, Poly_aftertouch_c, 0, 62, 127
1, 476528, Control_c, 0, 64, 82
1, 476543, Control_c, 0, 64, 83
1, 476546, Note_off_c, 0, 71, 24
1, 476549, Note_off_c, 0, 55, 36
1, 476558, Control_c, 0, 64, 83
1, 476563, Poly_aftertouch_c, 0, 62, 0
1, 476573, Control_c, 0, 64, 84
1, 476587, Control_c, 0, 64, 83
1, 476602, Control_c, 0, 64, 81
1, 476617, Control_c, 0, 64, 69
1, 476628, Note_off_c, 0, 67, 34
1, 476629, Note_on_c, 0, 55, 74
1, 476632, Control_c, 0, 64, 47
1, 476647, Control_c, 0, 64, 0
1, 476707, Control_c, 0, 64, 34
1, 476722, Control_c, 0, 64, 59
1, 476737, Control_c, 0, 64, 65
1, 476751, Control_c, 0, 64, 66
1, 476785, Note_off_c, 0, 55, 61
1, 476796, Control_c, 0, 64, 66
1, 476811, Control_c, 0, 64, 67
1, 476826, Control_c, 0, 64, 68
1, 476841, Control_c, 0, 64, 70
1, 476847, Note_on_c, 0, 55, 60
1, 476856, Control_c, 0, 64, 71
1, 476862, Note_on_c, 0, 71, 78
1, 476864, Note_on_c, 0, 59, 71
1, 476870, Control_c, 0, 64, 73
1, 476885, Control_c, 0, 64, 73
1, 476900, Control_c, 0, 64, 74
1, 476915, Control_c, 0, 64, 74
1, 476930, Control_c, 0, 64, 75
1, 476945, Control_c, 0, 64, 75
1, 476960, Control_c, 0, 64, 76
1, 476975, Control_c, 0, 64, 77
1, 476989, Note_off_c, 0, 59, 58
1, 476990, Control_c, 0, 64, 77
1, 476990, Note_off_c, 0, 55, 57
1, 477004, Control_c, 0, 64, 78
1, 477019, Control_c, 0, 64, 79
1, 477034, Control_c, 0, 64, 81
1, 477034, Note_off_c, 0, 71, 58
1, 477049, Control_c, 0, 64, 82
1, 477064, Control_c, 0, 64, 83
1, 477078, Control_c, 0, 64, 85
1, 477093, Control_c, 0, 64, 86
1, 477130, Control_c, 0, 64, 85
1, 477145, Control_c, 0, 64, 81
1, 477160, Control_c, 0, 64, 68
1, 477172, Note_on_c, 0, 72, 87
1, 477174, Control_c, 0, 64, 28
1, 477178, Note_on_c, 0, 55, 61
1, 477181, Note_on_c, 0, 60, 78
1, 477189, Note_on_c, 0, 56, 68
1, 477189, Control_c, 0, 64, 0
1, 477293, Control_c, 0, 64, 20
1, 477308, Control_c, 0, 64, 61
1, 477323, Note_off_c, 0, 56, 59
1, 477323, Control_c, 0, 64, 69
1, 477337, Control_c, 0, 64, 74
1, 477349, Note_off_c, 0, 60, 62
1, 477352, Control_c, 0, 64, 77
1, 477359, Note_off_c, 0, 72, 65
1, 477367, Control_c, 0, 64, 78
1, 477382, Control_c, 0, 64, 79
1, 477397, Control_c, 0, 64, 81
1, 477411, Control_c, 0, 64, 84
1, 477423, Note_off_c, 0, 55, 48
1, 477425, Note_on_c, 0, 56, 59
1, 477426, Control_c, 0, 64, 85
1, 477433, Note_on_c, 0, 53, 60
1, 477441, Control_c, 0, 64, 85
1, 477457, Control_c, 0, 64, 86
1, 477472, Control_c, 0, 64, 87
1, 477487, Control_c, 0, 64, 89
1, 477501, Control_c, 0, 64, 91
1, 477516, Control_c, 0, 64, 94
1, 477517, Note_off_c, 0, 56, 55
1, 477517, Note_off_c, 0, 53, 63
1, 477531, Note_on_c, 0, 63, 87
1, 477531, Control_c, 0, 64, 98
1, 477536, Note_on_c, 0, 75, 75
1, 477546, Control_c, 0, 64, 103
1, 477560, Control_c, 0, 64, 107
1, 477575, Control_c, 0, 64, 109
1, 477582, Note_off_c, 0, 63, 63
1, 477589, Note_off_c, 0, 75, 62
1, 477590, Control_c, 0, 64, 107
1, 477605, Control_c, 0, 64, 88
1, 477620, Control_c, 0, 64, 65
1, 477634, Control_c, 0, 64, 0
1, 477640, Note_on_c, 0, 74, 85
1, 477641, Note_on_c, 0, 55, 74
1, 477645, Note_on_c, 0, 62, 86
1, 477646, Note_on_c, 0, 44, 66
1, 477723, Control_c, 0, 64, 50
1, 477738, Control_c, 0, 64, 65
1, 477753, Control_c, 0, 64, 73
1, 477768, Control_c, 0, 64, 79
1, 477773, Note_off_c, 0, 62, 63
1, 477781, Note_off_c, 0, 44, 61
1, 477783, Control_c, 0, 64, 80
1, 477798, Control_c, 0, 64, 80
1, 477812, Control_c, 0, 64, 81
1, 477821, Note_off_c, 0, 74, 60
1, 477827, Control_c, 0, 64, 82
1, 477842, Control_c, 0, 64, 83
1, 477899, Note_on_c, 0, 53, 58
1, 477905, Note_on_c, 0, 44, 56
1, 477923, Control_c, 0, 64, 83
1, 477955, Note_off_c, 0, 53, 65
1, 477972, Note_off_c, 0, 44, 63
1, 477988, Note_on_c, 0, 84, 88
1, 477996, Note_on_c, 0, 72, 80
1, 478012, Control_c, 0, 64, 83
1, 478022, Note_off_c, 0, 72, 65
1, 478027, Note_off_c, 0, 55, 37
1, 478027, Control_c, 0, 64, 81
1, 478033, Note_off_c, 0, 84, 64
1, 478042, Control_c, 0, 64, 72
1, 478057, Control_c, 0, 64, 58
1, 478072, Control_c, 0, 64, 0
1, 478097, Note_on_c, 0, 83, 83
1, 478101, Note_on_c, 0, 71, 80
1, 478105, Note_on_c, 0, 44, 57
1, 478114, Note_on_c, 0, 43, 58
1, 478260, Note_off_c, 0, 44, 61
1, 478263, Note_off_c, 0, 71, 55
1, 478263, Note_off_c, 0, 43, 57
1, 478280, Control_c, 0, 64, 57
1, 478295, Control_c, 0, 64, 70
1, 478310, Control_c, 0, 64, 81
1, 478324, Control_c, 0, 64, 94
1, 478339, Control_c, 0, 64, 101
1, 478354, Control_c, 0, 64, 127
1, 478357, Note_on_c, 0, 44, 46
1, 478369, Note_on_c, 0, 41, 68
1, 478390, Note_off_c, 0, 83, 57
1, 478400, Note_off_c, 0, 44, 63
1, 478429, Note_off_c, 0, 41, 62
1, 478448, Note_on_c, 0, 86, 82
1, 478453, Note_on_c, 0, 74, 66
1, 478469, Note_off_c, 0, 86, 70
1, 478480, Note_off_c, 0, 74, 70
1, 478568, Note_on_c, 0, 55, 69
1, 478570, Note_on_c, 0, 53, 70
1, 478576, Control_c, 0, 64, 73
1, 478581, Note_on_c, 0, 75, 78
1, 478587, Note_on_c, 0, 63, 82
1, 478590, Control_c, 0, 64, 0
1, 478635, Note_on_c, 0, 73, 17
1, 478683, Note_off_c, 0, 73, 49
1, 478687, Control_c, 0, 64, 38
1, 478702, Control_c, 0, 64, 62
1, 478717, Control_c, 0, 64, 70
1, 478731, Control_c, 0, 64, 77
1, 478737, Note_off_c, 0, 63, 64
1, 478746, Control_c, 0, 64, 81
1, 478760, Note_off_c, 0, 55, 37
1, 478761, Control_c, 0, 64, 83
1, 478775, Control_c, 0, 64, 84
1, 478785, Note_off_c, 0, 75, 64
1, 478790, Control_c, 0, 64, 87
1, 478805, Control_c, 0, 64, 89
1, 478818, Note_off_c, 0, 53, 49
1, 478820, Control_c, 0, 64, 91
1, 478823, Note_on_c, 0, 55, 58
1, 478829, Note_on_c, 0, 51, 69
1, 478835, Control_c, 0, 64, 93
1, 478850, Control_c, 0, 64, 95
1, 478865, Control_c, 0, 64, 96
1, 478871, Note_off_c, 0, 51, 61
1, 478880, Control_c, 0, 64, 97
1, 478894, Control_c, 0, 64, 99
1, 478909, Note_off_c, 0, 55, 62
1, 478909, Control_c, 0, 64, 101
1, 478917, Note_on_c, 0, 79, 89
1, 478921, Note_on_c, 0, 67, 77
1, 478924, Control_c, 0, 64, 104
1, 478939, Control_c, 0, 64, 111
1, 478942, Note_off_c, 0, 67, 68
1, 478954, Control_c, 0, 64, 118
1, 478962, Note_off_c, 0, 79, 63
1, 478983, Control_c, 0, 64, 116
1, 478998, Control_c, 0, 64, 94
1, 479013, Control_c, 0, 64, 70
1, 479028, Control_c, 0, 64, 0
1, 479035, Note_on_c, 0, 84, 92
1, 479039, Note_on_c, 0, 72, 87
1, 479040, Note_on_c, 0, 53, 73
1, 479070, Note_on_c, 0, 43, 33
1, 479137, Poly_aftertouch_c, 0, 82, 127
1, 479177, Control_c, 0, 64, 58
1, 479192, Control_c, 0, 64, 71
1, 479194, Note_off_c, 0, 43, 44
1, 479204, Note_off_c, 0, 72, 64
1, 479206, Control_c, 0, 64, 88
1, 479221, Control_c, 0, 64, 127
1, 479228, Note_off_c, 0, 53, 64
1, 479241, Note_off_c, 0, 84, 59
1, 479249, Poly_aftertouch_c, 0, 82, 0
1, 479283, Note_on_c, 0, 51, 75
1, 479286, Note_on_c, 0, 43, 73
1, 479345, Note_off_c, 0, 51, 62
1, 479374, Note_off_c, 0, 43, 62
1, 479383, Note_on_c, 0, 86, 92
1, 479388, Note_on_c, 0, 74, 77
1, 479410, Note_off_c, 0, 74, 67
1, 479429, Note_off_c, 0, 86, 64
1, 479499, Note_on_c, 0, 43, 81
1, 479500, Note_on_c, 0, 87, 100
1, 479502, Note_on_c, 0, 38, 83
1, 479506, Note_on_c, 0, 75, 99
1, 479510, Control_c, 0, 64, 63
1, 479524, Control_c, 0, 64, 0
1, 479598, Control_c, 0, 64, 61
1, 479613, Control_c, 0, 64, 72
1, 479628, Control_c, 0, 64, 85
1, 479640, Note_on_c, 0, 80, 23
1, 479643, Control_c, 0, 64, 91
1, 479644, Note_off_c, 0, 87, 63
1, 479658, Control_c, 0, 64, 92
1, 479670, Note_off_c, 0, 75, 62
1, 479672, Control_c, 0, 64, 92
1, 479675, Note_off_c, 0, 43, 59
1, 479680, Note_off_c, 0, 80, 45
1, 479687, Control_c, 0, 64, 93
1, 479702, Control_c, 0, 64, 93
1, 479747, Note_off_c, 0, 38, 59
1, 479771, Note_on_c, 0, 43, 76
1, 479776, Note_on_c, 0, 36, 69
1, 479810, Note_off_c, 0, 43, 61
1, 479843, Note_off_c, 0, 36, 64
1, 479874, Note_on_c, 0, 74, 84
1, 479875, Note_on_c, 0, 62, 87
1, 479911, Note_off_c, 0, 62, 57
1, 479919, Note_off_c, 0, 74, 67
1, 479955, Control_c, 0, 64, 92
1, 479970, Control_c, 0, 64, 81
1, 479985, Control_c, 0, 64, 61
1, 479999, Note_on_c, 0, 63, 91
1, 480000, Control_c, 0, 64, 0
1, 480000, Note_on_c, 0, 51, 90
1, 480001, Note_on_c, 0, 75, 88
1, 480004, Note_on_c, 0, 39, 82
1, 480026, Note_on_c, 0, 76, 71
1, 480135, Note_off_c, 0, 76, 40
1, 480140, Control_c, 0, 64, 56
1, 480155, Control_c, 0, 64, 64
1, 480170, Control_c, 0, 64, 69
1, 480185, Control_c, 0, 64, 75
1, 480188, Note_off_c, 0, 63, 63
1, 480200, Control_c, 0, 64, 80
1, 480204, Note_off_c, 0, 75, 63
1, 480215, Control_c, 0, 64, 83
1, 480215, Note_off_c, 0, 39, 61
1, 480218, Note_off_c, 0, 51, 58
1, 480303, Control_c, 0, 64, 81
1, 480318, Control_c, 0, 64, 75
1, 480333, Control_c, 0, 64, 66
1, 480347, Control_c, 0, 64, 42
1, 480362, Control_c, 0, 64, 0
1, 480370, Note_on_c, 0, 38, 79
1, 480376, Note_on_c, 0, 50, 74
1, 480378, Note_on_c, 0, 74, 83
1, 480381, Note_on_c, 0, 62, 86
1, 480412, Note_off_c, 0, 50, 62
1, 480418, Note_off_c, 0, 38, 63
1, 480430, Note_off_c, 0, 74, 65
1, 480431, Note_off_c, 0, 62, 63
1, 480478, Note_on_c, 0, 48, 89
1, 480483, Note_on_c, 0, 36, 80
1, 480484, Note_on_c, 0, 72, 88
1, 480489, Note_on_c, 0, 60, 89
1, 480614, Control_c, 0, 64, 49
1, 480629, Control_c, 0, 64, 64
1, 480644, Control_c, 0, 64, 65
1, 480686, Note_off_c, 0, 72, 61
1, 480689, Control_c, 0, 64, 66
1, 480697, Note_off_c, 0, 48, 55
1, 480707, Note_off_c, 0, 60, 57
1, 480709, Note_off_c, 0, 36, 62
1, 480838, Control_c, 0, 64, 65
1, 480852, Control_c, 0, 64, 63
1, 480867, Control_c, 0, 64, 53
1, 480877, Note_on_c, 0, 71, 83
1, 480878, Note_on_c, 0, 35, 76
1, 480879, Note_on_c, 0, 59, 81
1, 480880, Note_on_c, 0, 47, 82
1, 480889, Control_c, 0, 64, 0
1, 480922, Note_off_c, 0, 59, 64
1, 480924, Note_off_c, 0, 35, 66
1, 480930, Note_off_c, 0, 71, 62
1, 480931, Note_off_c, 0, 47, 65
1, 480983, Note_on_c, 0, 60, 91
1, 480984, Note_on_c, 0, 72, 91
1, 480987, Note_on_c, 0, 48, 93
1, 480988, Note_on_c, 0, 36, 86
1, 481052, Control_c, 0, 64, 25
1, 481067, Control_c, 0, 64, 63
1, 481082, Control_c, 0, 64, 67
1, 481096, Control_c, 0, 64, 69
1, 481111, Control_c, 0, 64, 69
1, 481124, Note_off_c, 0, 36, 60
1, 481126, Note_off_c, 0, 60, 62
1, 481126, Control_c, 0, 64, 71
1, 481141, Control_c, 0, 64, 74
1, 481142, Note_off_c, 0, 72, 63
1, 481156, Control_c, 0, 64, 78
1, 481160, Poly_aftertouch_c, 0, 70, 127
1, 481170, Control_c, 0, 64, 81
1, 481171, Note_off_c, 0, 48, 53
1, 481185, Control_c, 0, 64, 83
1, 481198, Poly_aftertouch_c, 0, 70, 0
1, 481200, Control_c, 0, 64, 83
1, 481215, Control_c, 0, 64, 84
1, 481230, Control_c, 0, 64, 85
1, 481244, Control_c, 0, 64, 87
1, 481259, Control_c, 0, 64, 88
1, 481274, Control_c, 0, 64, 89
1, 481289, Control_c, 0, 64, 90
1, 481303, Control_c, 0, 64, 91
1, 481318, Control_c, 0, 64, 92
1, 481333, Control_c, 0, 64, 93
1, 481348, Control_c, 0, 64, 95
1, 481363, Control_c, 0, 64, 99
1, 481368, Note_on_c, 0, 38, 65
1, 481378, Control_c, 0, 64, 102
1, 481381, Note_on_c, 0, 50, 51
1, 481389, Note_on_c, 0, 74, 86
1, 481390, Note_on_c, 0, 62, 82
1, 481392, Control_c, 0, 64, 105
1, 481404, Note_off_c, 0, 38, 66
1, 481407, Control_c, 0, 64, 111
1, 481408, Note_off_c, 0, 50, 51
1, 481419, Note_off_c, 0, 62, 61
1, 481422, Control_c, 0, 64, 127
1, 481446, Note_off_c, 0, 74, 64
1, 481532, Note_on_c, 0, 69, 90
1, 481537, Note_on_c, 0, 78, 92
1, 481542, Control_c, 0, 64, 98
1, 481542, Note_on_c, 0, 72, 72
1, 481543, Note_on_c, 0, 75, 78
1, 481544, Note_on_c, 0, 43, 75
1, 481554, Note_on_c, 0, 31, 67
1, 481556, Control_c, 0, 64, 71
1, 481571, Control_c, 0, 64, 48
1, 481586, Control_c, 0, 64, 0
1, 481741, Control_c, 0, 64, 52
1, 481756, Control_c, 0, 64, 66
1, 481767, Note_off_c, 0, 72, 46
1, 481771, Control_c, 0, 64, 73
1, 481786, Control_c, 0, 64, 77
1, 481801, Control_c, 0, 64, 78
1, 481816, Control_c, 0, 64, 80
1, 481831, Control_c, 0, 64, 83
1, 481846, Control_c, 0, 64, 87
1, 481860, Control_c, 0, 64, 90
1, 481875, Control_c, 0, 64, 90
1, 481890, Control_c, 0, 64, 91
1, 481905, Control_c, 0, 64, 91
1, 481923, Note_off_c, 0, 75, 48
1, 482134, Note_off_c, 0, 78, 61
1, 482156, Control_c, 0, 64, 91
1, 482163, Note_on_c, 0, 79, 66
1, 482171, Control_c, 0, 64, 87
1, 482186, Note_on_c, 0, 74, 54
1, 482186, Control_c, 0, 64, 78
1, 482197, Note_on_c, 0, 71, 46
1, 482197, Note_off_c, 0, 69, 57
1, 482200, Control_c, 0, 64, 69
1, 482215, Control_c, 0, 64, 60
1, 482230, Control_c, 0, 64, 0
1, 482372, Control_c, 0, 64, 50
1, 482377, Note_off_c, 0, 31, 54
1, 482387, Control_c, 0, 64, 69
1, 482387, Control_c, 0, 67, 17
1, 482402, Control_c, 0, 64, 80
1, 482402, Control_c, 0, 67, 26
1, 482417, Control_c, 0, 64, 88
1, 482417, Control_c, 0, 67, 35
1, 482431, Control_c, 0, 64, 89
1, 482431, Control_c, 0, 67, 45
1, 482446, Control_c, 0, 64, 89
1, 482446, Control_c, 0, 67, 55
1, 482461, Control_c, 0, 64, 91
1, 482461, Control_c, 0, 67, 64
1, 482476, Control_c, 0, 64, 92
1, 482476, Control_c, 0, 67, 72
1, 482478, Note_off_c, 0, 43, 49
1, 482491, Control_c, 0, 67, 81
1, 482505, Control_c, 0, 67, 90
1, 482520, Control_c, 0, 67, 100
1, 482535, Control_c, 0, 67, 110
1, 482549, Control_c, 0, 67, 120
1, 482564, Control_c, 0, 67, 127
1, 482641, Note_on_c, 0, 67, 51
1, 482714, Note_off_c, 0, 79, 36
1, 482750, Note_off_c, 0, 74, 35
1, 482757, Control_c, 0, 64, 92
1, 482772, Control_c, 0, 64, 91
1, 482787, Note_off_c, 0, 67, 60
1, 482787, Control_c, 0, 64, 91
1, 482793, Note_off_c, 0, 71, 54
1, 482802, Control_c, 0, 64, 90
1, 482817, Control_c, 0, 64, 89
1, 482831, Control_c, 0, 64, 89
1, 482846, Control_c, 0, 64, 88
1, 482861, Control_c, 0, 64, 87
1, 482875, Control_c, 0, 64, 85
1, 482890, Control_c, 0, 64, 84
1, 482905, Control_c, 0, 64, 82
1, 482920, Control_c, 0, 64, 79
1, 482935, Control_c, 0, 64, 75
1, 482949, Control_c, 0, 64, 69
1, 482954, Note_on_c, 0, 75, 66
1, 482964, Control_c, 0, 64, 63
1, 482972, Note_on_c, 0, 60, 38
1, 482979, Control_c, 0, 64, 38
1, 482980, Note_on_c, 0, 67, 38
1, 482994, Control_c, 0, 64, 0
1, 483121, Control_c, 0, 64, 54
1, 483136, Control_c, 0, 64, 64
1, 483151, Control_c, 0, 64, 67
1, 483166, Control_c, 0, 64, 68
1, 483177, Note_off_c, 0, 67, 42
1, 483180, Control_c, 0, 64, 69
1, 483195, Control_c, 0, 64, 70
1, 483210, Control_c, 0, 64, 73
1, 483225, Control_c, 0, 64, 76
1, 483240, Control_c, 0, 64, 78
1, 483254, Control_c, 0, 64, 79
1, 483266, Note_on_c, 0, 67, 31
1, 483269, Control_c, 0, 64, 79
1, 483373, Note_off_c, 0, 75, 58
1, 483375, Note_off_c, 0, 67, 42
1, 483514, Note_off_c, 0, 60, 28
1, 483565, Note_on_c, 0, 62, 34
1, 483577, Note_on_c, 0, 77, 69
1, 483580, Control_c, 0, 64, 78
1, 483595, Control_c, 0, 64, 74
1, 483598, Note_on_c, 0, 67, 50
1, 483610, Control_c, 0, 64, 67
1, 483625, Control_c, 0, 64, 54
1, 483639, Control_c, 0, 64, 18
1, 483654, Control_c, 0, 64, 0
1, 483668, Control_c, 0, 64, 27
1, 483683, Control_c, 0, 64, 44
1, 483697, Control_c, 0, 64, 56
1, 483712, Control_c, 0, 64, 64
1, 483727, Note_off_c, 0, 77, 60
1, 483727, Control_c, 0, 64, 67
1, 483742, Control_c, 0, 64, 70
1, 483757, Control_c, 0, 64, 71
1, 483763, Note_off_c, 0, 67, 50
1, 483771, Control_c, 0, 64, 71
1, 483786, Control_c, 0, 64, 72
1, 483908, Note_on_c, 0, 67, 39
1, 483920, Note_off_c, 0, 62, 33
1, 483992, Note_on_c, 0, 63, 36
1, 484002, Control_c, 0, 64, 71
1, 484010, Note_on_c, 0, 79, 51
1, 484028, Note_off_c, 0, 67, 57
1, 484032, Control_c, 0, 64, 71
1, 484062, Control_c, 0, 64, 70
1, 484076, Control_c, 0, 64, 69
1, 484091, Control_c, 0, 64, 66
1, 484106, Control_c, 0, 64, 62
1, 484116, Note_off_c, 0, 79, 54
1, 484120, Control_c, 0, 64, 51
1, 484129, Note_on_c, 0, 80, 59
1, 484135, Control_c, 0, 64, 0
1, 484144, Note_off_c, 0, 63, 42
1, 484162, Note_on_c, 0, 65, 31
1, 484163, Note_on_c, 0, 67, 46
1, 484239, Control_c, 0, 64, 20
1, 484254, Control_c, 0, 64, 51
1, 484269, Control_c, 0, 64, 61
1, 484284, Control_c, 0, 64, 65
1, 484292, Note_off_c, 0, 67, 52
1, 484299, Control_c, 0, 64, 67
1, 484313, Control_c, 0, 64, 68
1, 484328, Control_c, 0, 64, 69
1, 484343, Control_c, 0, 64, 71
1, 484358, Control_c, 0, 64, 73
1, 484373, Control_c, 0, 64, 75
1, 484387, Control_c, 0, 64, 76
1, 484417, Control_c, 0, 64, 76
1, 484435, Note_on_c, 0, 67, 37
1, 484445, Note_off_c, 0, 80, 49
1, 484497, Note_off_c, 0, 67, 42
1, 484694, Note_on_c, 0, 74, 57
1, 484702, Note_on_c, 0, 59, 14
1, 484707, Note_on_c, 0, 67, 50
1, 484707, Control_c, 0, 64, 75
1, 484722, Control_c, 0, 64, 71
1, 484734, Note_off_c, 0, 65, 35
1, 484737, Control_c, 0, 64, 64
1, 484751, Control_c, 0, 64, 44
1, 484766, Control_c, 0, 64, 0
1, 484825, Control_c, 0, 64, 36
1, 484829, Note_off_c, 0, 67, 56
1, 484840, Control_c, 0, 64, 58
1, 484844, Note_off_c, 0, 74, 58
1, 484855, Control_c, 0, 64, 66
1, 484870, Control_c, 0, 64, 71
1, 484885, Control_c, 0, 64, 74
1, 484899, Control_c, 0, 64, 75
1, 484914, Control_c, 0, 64, 76
1, 484929, Control_c, 0, 64, 76
1, 484943, Control_c, 0, 64, 77
1, 484958, Note_on_c, 0, 67, 38
1, 484958, Control_c, 0, 64, 78
1, 484967, Note_on_c, 0, 74, 50
1, 485008, Note_off_c, 0, 67, 55
1, 485051, Note_off_c, 0, 74, 63
1, 485148, Note_on_c, 0, 60, 37
1, 485210, Control_c, 0, 64, 75
1, 485214, Note_off_c, 0, 59, 40
1, 485225, Control_c, 0, 64, 68
1, 485240, Control_c, 0, 64, 53
1, 485255, Control_c, 0, 64, 0
1, 485256, Note_on_c, 0, 77, 42
1, 485261, Note_on_c, 0, 67, 57
1, 485274, Note_on_c, 0, 75, 50
1, 485299, Control_c, 0, 64, 19
1, 485314, Control_c, 0, 64, 50
1, 485329, Control_c, 0, 64, 62
1, 485343, Control_c, 0, 64, 67
1, 485354, Note_off_c, 0, 67, 57
1, 485355, Note_off_c, 0, 77, 0
1, 485366, Control_c, 0, 64, 70
1, 485381, Control_c, 0, 64, 71
1, 485383, Note_off_c, 0, 75, 62
1, 485396, Control_c, 0, 64, 72
1, 485408, Note_on_c, 0, 74, 56
1, 485411, Control_c, 0, 64, 73
1, 485425, Control_c, 0, 64, 74
1, 485433, Poly_aftertouch_c, 0, 77, 0
1, 485441, Control_c, 0, 64, 74
1, 485515, Note_on_c, 0, 75, 58
1, 485533, Note_on_c, 0, 67, 49
1, 485643, Note_on_c, 0, 77, 61
1, 485649, Note_off_c, 0, 67, 59
1, 485657, Note_on_c, 0, 62, 48
1, 485664, Note_off_c, 0, 74, 37
1, 485683, Note_off_c, 0, 60, 31
1, 485707, Control_c, 0, 64, 74
1, 485720, Note_off_c, 0, 75, 21
1, 485722, Control_c, 0, 64, 73
1, 485737, Control_c, 0, 64, 72
1, 485752, Control_c, 0, 64, 69
1, 485766, Control_c, 0, 64, 65
1, 485771, Note_off_c, 0, 77, 48
1, 485781, Control_c, 0, 64, 57
1, 485786, Note_on_c, 0, 79, 57
1, 485794, Note_on_c, 0, 67, 41
1, 485796, Control_c, 0, 64, 18
1, 485811, Control_c, 0, 64, 0
1, 485825, Note_off_c, 0, 62, 36
1, 485828, Note_on_c, 0, 63, 40
1, 485915, Note_off_c, 0, 67, 45
1, 485915, Control_c, 0, 64, 53
1, 485929, Control_c, 0, 64, 63
1, 485944, Control_c, 0, 64, 67
1, 485959, Control_c, 0, 64, 69
1, 485974, Control_c, 0, 64, 70
1, 485989, Control_c, 0, 64, 72
1, 486004, Control_c, 0, 64, 75
1, 486019, Control_c, 0, 64, 77
1, 486033, Control_c, 0, 64, 78
1, 486044, Note_on_c, 0, 67, 37
1, 486148, Note_off_c, 0, 63, 54
1, 486181, Note_off_c, 0, 67, 54
1, 486189, Note_off_c, 0, 79, 33
1, 486332, Note_on_c, 0, 51, 44
1, 486338, Control_c, 0, 64, 76
1, 486348, Note_on_c, 0, 72, 56
1, 486353, Note_on_c, 0, 67, 41
1, 486353, Control_c, 0, 64, 71
1, 486368, Control_c, 0, 64, 64
1, 486383, Control_c, 0, 64, 51
1, 486397, Control_c, 0, 64, 17
1, 486412, Control_c, 0, 64, 27
1, 486427, Control_c, 0, 64, 43
1, 486442, Control_c, 0, 64, 55
1, 486457, Control_c, 0, 64, 62
1, 486463, Note_off_c, 0, 67, 51
1, 486471, Control_c, 0, 64, 65
1, 486486, Control_c, 0, 64, 67
1, 486501, Control_c, 0, 64, 68
1, 486515, Control_c, 0, 64, 69
1, 486530, Control_c, 0, 64, 69
1, 486560, Control_c, 0, 64, 70
1, 486618, Note_on_c, 0, 67, 20
1, 486627, Note_off_c, 0, 51, 52
1, 486661, Note_on_c, 0, 53, 42
1, 486740, Note_off_c, 0, 67, 50
1, 486784, Note_on_c, 0, 55, 47
1, 486840, Control_c, 0, 64, 69
1, 486865, Note_off_c, 0, 72, 30
1, 486923, Note_on_c, 0, 56, 46
1, 486952, Control_c, 0, 64, 68
1, 486958, Note_on_c, 0, 73, 56
1, 486964, Note_off_c, 0, 53, 17
1, 486967, Control_c, 0, 64, 67
1, 486982, Control_c, 0, 64, 65
1, 486994, Note_on_c, 0, 67, 43
1, 486996, Control_c, 0, 64, 61
1, 487011, Control_c, 0, 64, 48
1, 487012, Note_off_c, 0, 55, 27
1, 487026, Control_c, 0, 64, 0
1, 487101, Control_c, 0, 64, 19
1, 487116, Control_c, 0, 64, 55
1, 487131, Control_c, 0, 64, 64
1, 487134, Note_off_c, 0, 73, 53
1, 487145, Control_c, 0, 64, 66
1, 487160, Control_c, 0, 64, 67
1, 487175, Control_c, 0, 64, 68
1, 487190, Control_c, 0, 64, 70
1, 487202, Note_on_c, 0, 77, 57
1, 487205, Control_c, 0, 64, 74
1, 487219, Control_c, 0, 64, 77
1, 487234, Control_c, 0, 64, 79
1, 487264, Control_c, 0, 64, 79
1, 487283, Note_on_c, 0, 65, 40
1, 487306, Note_off_c, 0, 56, 57
1, 487308, Control_c, 0, 64, 80
1, 487313, Note_off_c, 0, 67, 30
1, 487330, Note_on_c, 0, 75, 63
1, 487370, Note_off_c, 0, 77, 55
1, 487399, Note_off_c, 0, 65, 44
1, 487458, Note_on_c, 0, 73, 66
1, 487481, Note_off_c, 0, 75, 57
1, 487532, Note_off_c, 0, 73, 61
1, 487584, Note_on_c, 0, 56, 30
1, 487657, Control_c, 0, 64, 79
1, 487671, Control_c, 0, 64, 79
1, 487686, Control_c, 0, 64, 78
1, 487689, Note_on_c, 0, 73, 64
1, 487701, Control_c, 0, 64, 76
1, 487716, Control_c, 0, 64, 73
1, 487717, Note_on_c, 0, 65, 38
1, 487731, Control_c, 0, 64, 68
1, 487745, Control_c, 0, 64, 62
1, 487760, Control_c, 0, 64, 50
1, 487775, Control_c, 0, 64, 23
1, 487790, Control_c, 0, 64, 0
1, 487819, Control_c, 0, 64, 28
1, 487835, Control_c, 0, 64, 47
1, 487850, Control_c, 0, 64, 60
1, 487865, Control_c, 0, 64, 65
1, 487879, Note_off_c, 0, 65, 46
1, 487880, Control_c, 0, 64, 70
1, 487894, Control_c, 0, 64, 75
1, 487909, Control_c, 0, 64, 78
1, 487924, Control_c, 0, 64, 81
1, 487939, Control_c, 0, 64, 83
1, 487954, Control_c, 0, 64, 85
1, 487968, Control_c, 0, 64, 88
1, 487983, Control_c, 0, 64, 90
1, 487998, Control_c, 0, 64, 92
1, 488013, Control_c, 0, 64, 94
1, 488028, Control_c, 0, 64, 95
1, 488030, Note_on_c, 0, 65, 47
1, 488043, Control_c, 0, 64, 96
1, 488058, Control_c, 0, 64, 98
1, 488073, Control_c, 0, 64, 100
1, 488087, Control_c, 0, 64, 102
1, 488102, Control_c, 0, 64, 103
1, 488112, Note_off_c, 0, 56, 35
1, 488117, Control_c, 0, 64, 105
1, 488132, Control_c, 0, 64, 106
1, 488144, Note_off_c, 0, 73, 63
1, 488147, Control_c, 0, 64, 107
1, 488149, Note_off_c, 0, 65, 37
1, 488161, Control_c, 0, 64, 108
1, 488294, Control_c, 0, 64, 107
1, 488309, Control_c, 0, 64, 101
1, 488320, Note_on_c, 0, 72, 50
1, 488324, Control_c, 0, 64, 89
1, 488328, Note_on_c, 0, 44, 37
1, 488332, Note_on_c, 0, 63, 44
1, 488339, Control_c, 0, 64, 76
1, 488344, Note_on_c, 0, 66, 47
1, 488354, Control_c, 0, 64, 65
1, 488371, Note_on_c, 0, 56, 27
1, 488376, Control_c, 0, 64, 49
1, 488391, Control_c, 0, 64, 0
1, 488421, Control_c, 0, 64, 37
1, 488436, Control_c, 0, 64, 55
1, 488450, Control_c, 0, 64, 64
1, 488465, Control_c, 0, 64, 70
1, 488480, Control_c, 0, 64, 78
1, 488494, Control_c, 0, 64, 92
1, 488509, Control_c, 0, 64, 127
1, 488535, Note_off_c, 0, 63, 58
1, 488554, Note_off_c, 0, 66, 50
1, 488656, Note_on_c, 0, 66, 40
1, 488664, Note_off_c, 0, 44, 41
1, 488684, Note_off_c, 0, 72, 57
1, 488695, Note_on_c, 0, 63, 36
1, 488710, Note_off_c, 0, 56, 40
1, 488818, Note_off_c, 0, 63, 42
1, 488839, Note_off_c, 0, 66, 31
1, 489031, Note_on_c, 0, 73, 49
1, 489049, Note_on_c, 0, 44, 35
1, 489051, Note_on_c, 0, 61, 42
1, 489058, Note_on_c, 0, 65, 41
1, 489064, Note_on_c, 0, 56, 26
1, 489088, Control_c, 0, 64, 111
1, 489110, Control_c, 0, 64, 82
1, 489125, Control_c, 0, 64, 68
1, 489140, Control_c, 0, 64, 57
1, 489149, Note_off_c, 0, 56, 0
1, 489149, Note_on_c, 0, 56, 4
1, 489155, Control_c, 0, 64, 12
1, 489170, Control_c, 0, 64, 0
1, 489214, Control_c, 0, 64, 38
1, 489229, Control_c, 0, 64, 56
1, 489243, Control_c, 0, 64, 64
1, 489258, Control_c, 0, 64, 68
1, 489273, Control_c, 0, 64, 70
1, 489288, Control_c, 0, 64, 73
1, 489303, Control_c, 0, 64, 78
1, 489317, Control_c, 0, 64, 85
1, 489332, Control_c, 0, 64, 93
1, 489347, Control_c, 0, 64, 100
1, 489362, Control_c, 0, 64, 107
1, 489377, Control_c, 0, 64, 115
1, 489391, Control_c, 0, 64, 127
1, 489422, Note_off_c, 0, 61, 45
1, 489474, Note_off_c, 0, 44, 41
1, 489484, Note_on_c, 0, 68, 46
1, 489587, Note_off_c, 0, 68, 54
1, 489609, Note_off_c, 0, 56, 41
1, 489610, Note_off_c, 0, 65, 41
1, 489632, Note_off_c, 0, 73, 59
1, 489718, Control_c, 0, 64, 119
1, 489733, Control_c, 0, 64, 114
1, 489748, Control_c, 0, 64, 111
1, 489759, Note_on_c, 0, 68, 54
1, 489763, Control_c, 0, 64, 109
1, 489778, Control_c, 0, 64, 107
1, 489793, Control_c, 0, 64, 105
1, 489807, Control_c, 0, 64, 102
1, 489822, Control_c, 0, 64, 100
1, 489837, Control_c, 0, 64, 98
1, 489858, Control_c, 0, 64, 97
1, 489872, Note_off_c, 0, 68, 61
1, 489873, Control_c, 0, 64, 96
1, 489888, Control_c, 0, 64, 95
1, 489903, Control_c, 0, 64, 94
1, 489918, Control_c, 0, 64, 93
1, 489933, Control_c, 0, 64, 92
1, 489948, Control_c, 0, 64, 91
1, 489963, Control_c, 0, 64, 91
1, 489977, Control_c, 0, 64, 90
1, 489992, Control_c, 0, 64, 89
1, 490007, Control_c, 0, 64, 89
1, 490007, Note_on_c, 0, 68, 54
1, 490022, Control_c, 0, 64, 88
1, 490037, Control_c, 0, 64, 88
1, 490052, Control_c, 0, 64, 87
1, 490081, Control_c, 0, 64, 87
1, 490082, Note_off_c, 0, 68, 58
1, 490111, Control_c, 0, 64, 86
1, 490115, Note_on_c, 0, 54, 48
1, 490126, Note_on_c, 0, 66, 48
1, 490140, Control_c, 0, 64, 86
1, 490155, Control_c, 0, 64, 85
1, 490168, Note_off_c, 0, 54, 56
1, 490170, Note_off_c, 0, 66, 59
1, 490170, Control_c, 0, 64, 81
1, 490185, Control_c, 0, 64, 75
1, 490200, Control_c, 0, 64, 66
1, 490214, Control_c, 0, 64, 48
1, 490230, Control_c, 0, 64, 0
1, 490279, Note_on_c, 0, 68, 59
1, 490283, Note_on_c, 0, 65, 44
1, 490286, Note_on_c, 0, 53, 53
1, 490334, Control_c, 0, 64, 50
1, 490349, Control_c, 0, 64, 62
1, 490363, Control_c, 0, 64, 67
1, 490378, Control_c, 0, 64, 70
1, 490393, Control_c, 0, 64, 74
1, 490409, Control_c, 0, 64, 78
1, 490424, Control_c, 0, 64, 82
1, 490425, Note_off_c, 0, 68, 54
1, 490438, Control_c, 0, 64, 84
1, 490448, Note_off_c, 0, 65, 61
1, 490453, Control_c, 0, 64, 85
1, 490460, Note_off_c, 0, 53, 65
1, 490468, Control_c, 0, 64, 85
1, 490551, Note_on_c, 0, 68, 57
1, 490568, Note_on_c, 0, 67, 51
1, 490624, Control_c, 0, 64, 85
1, 490672, Note_on_c, 0, 61, 64
1, 490674, Note_off_c, 0, 68, 38
1, 490682, Note_on_c, 0, 49, 53
1, 490695, Note_off_c, 0, 67, 46
1, 490714, Note_off_c, 0, 61, 53
1, 490727, Control_c, 0, 64, 84
1, 490728, Note_off_c, 0, 49, 43
1, 490756, Control_c, 0, 64, 84
1, 490771, Control_c, 0, 64, 82
1, 490786, Control_c, 0, 64, 77
1, 490801, Control_c, 0, 64, 67
1, 490806, Note_on_c, 0, 68, 53
1, 490813, Note_on_c, 0, 59, 61
1, 490816, Control_c, 0, 64, 52
1, 490818, Note_on_c, 0, 67, 54
1, 490821, Note_on_c, 0, 47, 68
1, 490830, Control_c, 0, 64, 0
1, 490947, Note_off_c, 0, 68, 57
1, 490949, Control_c, 0, 64, 42
1, 490964, Control_c, 0, 64, 60
1, 490979, Control_c, 0, 64, 65
1, 490994, Control_c, 0, 64, 68
1, 490998, Note_off_c, 0, 47, 63
1, 491008, Control_c, 0, 64, 70
1, 491013, Poly_aftertouch_c, 0, 72, 127
1, 491023, Control_c, 0, 64, 72
1, 491029, Note_off_c, 0, 59, 61
1, 491039, Control_c, 0, 64, 73
1, 491054, Control_c, 0, 64, 74
1, 491068, Note_on_c, 0, 68, 62
1, 491074, Note_off_c, 0, 67, 27
1, 491077, Note_on_c, 0, 65, 57
1, 491098, Note_off_c, 0, 68, 66
1, 491125, Poly_aftertouch_c, 0, 72, 0
1, 491164, Note_off_c, 0, 65, 50
1, 491184, Note_on_c, 0, 50, 61
1, 491222, Note_off_c, 0, 50, 62
1, 491270, Poly_aftertouch_c, 0, 62, 0
1, 491275, Control_c, 0, 64, 71
1, 491290, Control_c, 0, 64, 65
1, 491304, Control_c, 0, 64, 47
1, 491319, Control_c, 0, 64, 0
1, 491332, Note_on_c, 0, 74, 47
1, 491337, Note_on_c, 0, 72, 59
1, 491343, Note_on_c, 0, 41, 50
1, 491355, Note_on_c, 0, 53, 52
1, 491475, Control_c, 0, 64, 46
1, 491490, Control_c, 0, 64, 64
1, 491504, Control_c, 0, 64, 73
1, 491516, Note_off_c, 0, 41, 63
1, 491519, Control_c, 0, 64, 82
1, 491534, Control_c, 0, 64, 87
1, 491541, Note_off_c, 0, 53, 64
1, 491549, Control_c, 0, 64, 90
1, 491564, Control_c, 0, 64, 93
1, 491573, Note_off_c, 0, 74, 0
1, 491578, Control_c, 0, 64, 97
1, 491593, Control_c, 0, 64, 100
1, 491605, Note_on_c, 0, 71, 61
1, 491608, Control_c, 0, 64, 102
1, 491610, Poly_aftertouch_c, 0, 74, 127
1, 491623, Control_c, 0, 64, 102
1, 491626, Note_off_c, 0, 72, 20
1, 491635, Poly_aftertouch_c, 0, 74, 0
1, 491653, Poly_aftertouch_c, 0, 74, 0
1, 491655, Note_off_c, 0, 71, 48
1, 491668, Control_c, 0, 64, 103
1, 491723, Note_on_c, 0, 44, 56
1, 491730, Note_on_c, 0, 56, 44
1, 491748, Note_off_c, 0, 44, 62
1, 491757, Note_off_c, 0, 56, 54
1, 491816, Control_c, 0, 64, 102
1, 491832, Control_c, 0, 64, 98
1, 491847, Control_c, 0, 64, 80
1, 491861, Control_c, 0, 64, 65
1, 491876, Control_c, 0, 64, 0
1, 491879, Note_on_c, 0, 35, 59
1, 491880, Note_on_c, 0, 80, 62
1, 491882, Note_on_c, 0, 79, 56
1, 491882, Note_on_c, 0, 86, 66
1, 491883, Note_on_c, 0, 47, 55
1, 491965, Control_c, 0, 64, 23
1, 491980, Control_c, 0, 64, 63
1, 491995, Control_c, 0, 64, 75
1, 492009, Control_c, 0, 64, 84
1, 492009, Control_c, 0, 67, 110
1, 492024, Control_c, 0, 64, 86
1, 492024, Control_c, 0, 67, 83
1, 492035, Note_off_c, 0, 80, 59
1, 492039, Control_c, 0, 64, 87
1, 492039, Control_c, 0, 67, 57
1, 492046, Note_off_c, 0, 86, 59
1, 492050, Note_off_c, 0, 35, 64
1, 492052, Note_off_c, 0, 47, 64
1, 492053, Control_c, 0, 64, 89
1, 492053, Control_c, 0, 67, 38
1, 492068, Control_c, 0, 64, 92
1, 492068, Control_c, 0, 67, 32
1, 492083, Control_c, 0, 64, 94
1, 492098, Control_c, 0, 64, 95
1, 492098, Control_c, 0, 67, 32
1, 492121, Control_c, 0, 67, 33
1, 492135, Control_c, 0, 64, 95
1, 492135, Control_c, 0, 67, 33
1, 492150, Control_c, 0, 67, 34
1, 492165, Control_c, 0, 67, 35
1, 492168, Note_on_c, 0, 86, 53
1, 492179, Note_on_c, 0, 80, 54
1, 492180, Control_c, 0, 67, 37
1, 492187, Note_on_c, 0, 77, 47
1, 492195, Control_c, 0, 67, 37
1, 492201, Note_off_c, 0, 79, 54
1, 492203, Note_off_c, 0, 86, 63
1, 492209, Control_c, 0, 67, 38
1, 492219, Note_off_c, 0, 80, 60
1, 492224, Control_c, 0, 67, 39
1, 492239, Control_c, 0, 67, 40
1, 492250, Note_off_c, 0, 77, 62
1, 492253, Control_c, 0, 67, 40
1, 492266, Note_on_c, 0, 38, 48
1, 492270, Note_on_c, 0, 50, 48
1, 492300, Note_off_c, 0, 38, 50
1, 492313, Control_c, 0, 67, 41
1, 492342, Control_c, 0, 67, 41
1, 492357, Control_c, 0, 67, 42
1, 492365, Note_off_c, 0, 50, 37
1, 492387, Control_c, 0, 67, 42
1, 492402, Control_c, 0, 64, 93
1, 492402, Control_c, 0, 67, 43
1, 492416, Control_c, 0, 64, 82
1, 492422, Note_on_c, 0, 67, 67
1, 492431, Control_c, 0, 64, 70
1, 492431, Control_c, 0, 67, 44
1, 492436, Note_on_c, 0, 51, 57
1, 492444, Note_on_c, 0, 65, 57
1, 492446, Control_c, 0, 64, 59
1, 492446, Control_c, 0, 67, 45
1, 492461, Control_c, 0, 64, 0
1, 492461, Control_c, 0, 67, 47
1, 492475, Control_c, 0, 67, 52
1, 492490, Control_c, 0, 67, 57
1, 492505, Control_c, 0, 67, 63
1, 492520, Control_c, 0, 67, 68
1, 492535, Control_c, 0, 67, 73
1, 492550, Control_c, 0, 67, 78
1, 492565, Control_c, 0, 67, 82
1, 492580, Control_c, 0, 67, 83
1, 492581, Note_off_c, 0, 67, 55
1, 492595, Control_c, 0, 64, 28
1, 492609, Control_c, 0, 64, 63
1, 492609, Control_c, 0, 67, 83
1, 492625, Control_c, 0, 64, 73
1, 492639, Control_c, 0, 64, 81
1, 492654, Control_c, 0, 64, 84
1, 492669, Control_c, 0, 64, 85
1, 492669, Control_c, 0, 67, 82
1, 492684, Control_c, 0, 64, 85
1, 492696, Note_on_c, 0, 67, 60
1, 492699, Control_c, 0, 64, 87
1, 492702, Note_on_c, 0, 63, 54
1, 492714, Control_c, 0, 64, 88
1, 492729, Control_c, 0, 64, 89
1, 492729, Control_c, 0, 67, 82
1, 492729, Note_off_c, 0, 67, 63
1, 492733, Note_off_c, 0, 63, 65
1, 492754, Note_off_c, 0, 65, 37
1, 492787, Note_on_c, 0, 55, 57
1, 492832, Control_c, 0, 67, 81
1, 492854, Control_c, 0, 67, 81
1, 492869, Control_c, 0, 67, 80
1, 492884, Control_c, 0, 67, 80
1, 492890, Note_off_c, 0, 55, 57
1, 492899, Control_c, 0, 67, 79
1, 492910, Note_off_c, 0, 51, 26
1, 492914, Control_c, 0, 64, 84
1, 492914, Control_c, 0, 67, 79
1, 492929, Control_c, 0, 64, 75
1, 492943, Control_c, 0, 64, 64
1, 492952, Note_on_c, 0, 75, 63
1, 492958, Control_c, 0, 64, 28
1, 492958, Control_c, 0, 67, 79
1, 492958, Note_on_c, 0, 74, 59
1, 492961, Note_on_c, 0, 43, 61
1, 492973, Control_c, 0, 64, 0
1, 492988, Control_c, 0, 67, 80
1, 493018, Control_c, 0, 67, 79
1, 493032, Control_c, 0, 67, 79
1, 493062, Control_c, 0, 67, 78
1, 493077, Control_c, 0, 67, 77
1, 493091, Control_c, 0, 67, 77
1, 493095, Note_off_c, 0, 75, 61
1, 493106, Control_c, 0, 64, 58
1, 493121, Control_c, 0, 64, 68
1, 493136, Control_c, 0, 64, 74
1, 493151, Control_c, 0, 64, 78
1, 493165, Control_c, 0, 64, 79
1, 493180, Control_c, 0, 64, 81
1, 493180, Control_c, 0, 67, 77
1, 493195, Control_c, 0, 64, 84
1, 493195, Control_c, 0, 67, 78
1, 493209, Control_c, 0, 64, 87
1, 493209, Control_c, 0, 67, 79
1, 493224, Control_c, 0, 64, 89
1, 493224, Control_c, 0, 67, 79
1, 493228, Note_on_c, 0, 75, 57
1, 493233, Note_off_c, 0, 43, 58
1, 493239, Control_c, 0, 64, 90
1, 493239, Control_c, 0, 67, 80
1, 493248, Note_on_c, 0, 72, 63
1, 493254, Control_c, 0, 67, 80
1, 493259, Note_off_c, 0, 74, 38
1, 493265, Note_off_c, 0, 75, 65
1, 493269, Control_c, 0, 67, 81
1, 493283, Control_c, 0, 64, 91
1, 493283, Control_c, 0, 67, 81
1, 493298, Control_c, 0, 67, 82
1, 493328, Control_c, 0, 67, 82
1, 493349, Note_on_c, 0, 48, 47
1, 493401, Note_off_c, 0, 72, 54
1, 493417, Control_c, 0, 67, 83
1, 493433, Control_c, 0, 67, 83
1, 493447, Control_c, 0, 64, 90
1, 493447, Control_c, 0, 67, 84
1, 493451, Note_off_c, 0, 48, 44
1, 493462, Control_c, 0, 64, 89
1, 493462, Control_c, 0, 67, 85
1, 493477, Control_c, 0, 64, 80
1, 493477, Control_c, 0, 67, 86
1, 493492, Control_c, 0, 64, 70
1, 493492, Control_c, 0, 67, 92
1, 493507, Control_c, 0, 64, 58
1, 493507, Control_c, 0, 67, 101
1, 493513, Note_on_c, 0, 84, 67
1, 493522, Control_c, 0, 64, 0
1, 493522, Control_c, 0, 67, 109
1, 493523, Note_on_c, 0, 36, 60
1, 493531, Note_on_c, 0, 79, 50
1, 493537, Control_c, 0, 67, 117
1, 493540, Note_on_c, 0, 77, 54
1, 493552, Control_c, 0, 67, 125
1, 493566, Control_c, 0, 67, 127
1, 493632, Control_c, 0, 64, 36
1, 493647, Control_c, 0, 64, 62
1, 493662, Control_c, 0, 64, 70
1, 493677, Control_c, 0, 64, 75
1, 493692, Note_off_c, 0, 79, 53
1, 493692, Note_off_c, 0, 84, 61
1, 493692, Control_c, 0, 64, 78
1, 493706, Note_off_c, 0, 77, 58
1, 493707, Control_c, 0, 64, 79
1, 493721, Control_c, 0, 64, 81
1, 493736, Control_c, 0, 64, 85
1, 493751, Control_c, 0, 64, 87
1, 493766, Control_c, 0, 64, 89
1, 493781, Control_c, 0, 64, 90
1, 493796, Control_c, 0, 64, 90
1, 493821, Note_on_c, 0, 79, 46
1, 493826, Control_c, 0, 64, 91
1, 493826, Note_on_c, 0, 84, 49
1, 493834, Note_on_c, 0, 75, 58
1, 493853, Note_off_c, 0, 84, 57
1, 493854, Note_off_c, 0, 79, 53
1, 493907, Note_off_c, 0, 36, 43
1, 493923, Note_off_c, 0, 75, 53
1, 493953, Note_on_c, 0, 39, 44
1, 494058, Note_off_c, 0, 39, 26
1, 494136, Control_c, 0, 64, 90
1, 494152, Control_c, 0, 64, 90
1, 494167, Control_c, 0, 64, 89
1, 494181, Control_c, 0, 64, 86
1, 494196, Control_c, 0, 64, 82
1, 494199, Note_on_c, 0, 29, 47
1, 494210, Note_on_c, 0, 87, 67
1, 494211, Control_c, 0, 64, 75
1, 494227, Control_c, 0, 64, 67
1, 494242, Control_c, 0, 64, 52
1, 494256, Control_c, 0, 64, 0
1, 494258, Note_on_c, 0, 77, 20
1, 494383, Control_c, 0, 64, 26
1, 494398, Control_c, 0, 64, 57
1, 494412, Control_c, 0, 64, 65
1, 494427, Control_c, 0, 64, 69
1, 494442, Control_c, 0, 64, 71
1, 494452, Note_off_c, 0, 77, 56
1, 494456, Control_c, 0, 64, 73
1, 494471, Control_c, 0, 64, 76
1, 494486, Control_c, 0, 64, 80
1, 494501, Control_c, 0, 64, 84
1, 494516, Control_c, 0, 64, 86
1, 494530, Control_c, 0, 64, 88
1, 494545, Control_c, 0, 64, 88
1, 494560, Control_c, 0, 64, 89
1, 494590, Control_c, 0, 64, 89
1, 494592, Note_off_c, 0, 29, 38
1, 494618, Note_on_c, 0, 85, 64
1, 494652, Note_on_c, 0, 77, 26
1, 494652, Note_off_c, 0, 87, 55
1, 494695, Note_off_c, 0, 77, 54
1, 494705, Note_off_c, 0, 85, 63
1, 494767, Note_on_c, 0, 32, 40
1, 494893, Note_off_c, 0, 32, 31
1, 494915, Control_c, 0, 64, 89
1, 494944, Control_c, 0, 64, 84
1, 494959, Note_on_c, 0, 73, 66
1, 494959, Control_c, 0, 64, 74
1, 494973, Control_c, 0, 64, 63
1, 494983, Note_on_c, 0, 31, 37
1, 494988, Control_c, 0, 64, 0
1, 494991, Note_on_c, 0, 63, 44
1, 495078, Control_c, 0, 64, 57
1, 495101, Control_c, 0, 64, 67
1, 495116, Control_c, 0, 64, 70
1, 495131, Control_c, 0, 64, 71
1, 495146, Control_c, 0, 64, 72
1, 495150, Note_off_c, 0, 63, 49
1, 495160, Control_c, 0, 64, 74
1, 495175, Control_c, 0, 64, 78
1, 495190, Control_c, 0, 64, 83
1, 495205, Control_c, 0, 64, 85
1, 495210, Note_off_c, 0, 31, 40
1, 495220, Control_c, 0, 64, 85
1, 495233, Note_off_c, 0, 73, 46
1, 495234, Control_c, 0, 64, 86
1, 495252, Note_on_c, 0, 72, 63
1, 495278, Note_on_c, 0, 63, 42
1, 495301, Note_off_c, 0, 72, 60
1, 495325, Note_off_c, 0, 63, 45
1, 495404, Note_on_c, 0, 31, 49
1, 495451, Note_off_c, 0, 31, 58
1, 495545, Control_c, 0, 64, 82
1, 495560, Control_c, 0, 64, 72
1, 495572, Note_on_c, 0, 60, 63
1, 495575, Control_c, 0, 64, 56
1, 495585, Note_on_c, 0, 31, 38
1, 495588, Note_on_c, 0, 56, 49
1, 495590, Control_c, 0, 64, 0
1, 495593, Note_on_c, 0, 50, 30
1, 495596, Note_on_c, 0, 53, 38
1, 495619, Control_c, 0, 67, 118
1, 495634, Control_c, 0, 67, 101
1, 495649, Control_c, 0, 64, 21
1, 495649, Control_c, 0, 67, 82
1, 495664, Control_c, 0, 64, 58
1, 495664, Control_c, 0, 67, 63
1, 495678, Control_c, 0, 64, 64
1, 495678, Control_c, 0, 67, 44
1, 495693, Control_c, 0, 64, 66
1, 495693, Control_c, 0, 67, 26
1, 495708, Control_c, 0, 64, 67
1, 495708, Control_c, 0, 67, 10
1, 495723, Control_c, 0, 64, 67
1, 495723, Control_c, 0, 67, 0
1, 495738, Control_c, 0, 64, 68
1, 495752, Control_c, 0, 64, 70
1, 495767, Control_c, 0, 64, 72
1, 495782, Control_c, 0, 64, 74
1, 495786, Note_off_c, 0, 60, 58
1, 495789, Note_off_c, 0, 50, 54
1, 495796, Note_off_c, 0, 56, 61
1, 495796, Control_c, 0, 64, 74
1, 495806, Note_off_c, 0, 53, 54
1, 495811, Control_c, 0, 64, 75
1, 495828, Control_c, 0, 64, 76
1, 495837, Note_off_c, 0, 31, 51
1, 495850, Control_c, 0, 64, 77
1, 495865, Control_c, 0, 64, 77
1, 495880, Control_c, 0, 64, 77
1, 495895, Control_c, 0, 64, 73
1, 495909, Control_c, 0, 64, 67
1, 495924, Control_c, 0, 64, 61
1, 495926, Note_on_c, 0, 59, 65
1, 495939, Control_c, 0, 64, 56
1, 495942, Note_on_c, 0, 50, 49
1, 495943, Note_on_c, 0, 55, 56
1, 495944, Note_on_c, 0, 53, 41
1, 495954, Control_c, 0, 64, 57
1, 495969, Control_c, 0, 64, 61
1, 495983, Control_c, 0, 64, 64
1, 495998, Control_c, 0, 64, 66
1, 496013, Control_c, 0, 64, 68
1, 496027, Control_c, 0, 64, 69
1, 496042, Control_c, 0, 64, 70
1, 496057, Control_c, 0, 64, 71
1, 496072, Control_c, 0, 64, 72
1, 496087, Control_c, 0, 64, 73
1, 496097, Note_on_c, 0, 31, 40
1, 496101, Control_c, 0, 64, 74
1, 496106, Note_off_c, 0, 50, 38
1, 496112, Note_off_c, 0, 59, 51
1, 496116, Control_c, 0, 64, 74
1, 496153, Note_off_c, 0, 55, 61
1, 496168, Note_off_c, 0, 53, 41
1, 496174, Note_off_c, 0, 31, 57
1, 496175, Control_c, 0, 64, 75
1, 496422, Note_on_c, 0, 60, 60
1, 496427, Control_c, 0, 64, 74
1, 496440, Note_on_c, 0, 56, 49
1, 496447, Note_on_c, 0, 48, 44
1, 496449, Note_on_c, 0, 32, 35
1, 496453, Note_on_c, 0, 51, 42
1, 496457, Control_c, 0, 64, 73
1, 496464, Note_on_c, 0, 44, 28
1, 496472, Control_c, 0, 64, 72
1, 496487, Control_c, 0, 64, 69
1, 496501, Control_c, 0, 64, 64
1, 496516, Control_c, 0, 64, 54
1, 496531, Control_c, 0, 64, 0
1, 496673, Control_c, 0, 64, 28
1, 496687, Control_c, 0, 64, 52
1, 496702, Control_c, 0, 64, 58
1, 496717, Control_c, 0, 64, 61
1, 496732, Control_c, 0, 64, 62
1, 496747, Control_c, 0, 64, 64
1, 496762, Control_c, 0, 64, 66
1, 496777, Control_c, 0, 64, 68
1, 496792, Control_c, 0, 64, 70
1, 496806, Control_c, 0, 64, 71
1, 496816, Note_off_c, 0, 48, 56
1, 496821, Control_c, 0, 64, 73
1, 496836, Control_c, 0, 64, 74
1, 496850, Control_c, 0, 64, 76
1, 496850, Control_c, 0, 67, 22
1, 496865, Control_c, 0, 64, 77
1, 496865, Control_c, 0, 67, 32
1, 496880, Control_c, 0, 64, 78
1, 496880, Control_c, 0, 67, 41
1, 496894, Note_off_c, 0, 60, 61
1, 496895, Control_c, 0, 67, 53
1, 496910, Control_c, 0, 64, 78
1, 496910, Control_c, 0, 67, 72
1, 496913, Note_off_c, 0, 51, 50
1, 496924, Control_c, 0, 67, 100
1, 496937, Note_off_c, 0, 56, 60
1, 496939, Control_c, 0, 67, 125
1, 496954, Control_c, 0, 67, 127
1, 496969, Control_c, 0, 64, 79
1, 497028, Control_c, 0, 64, 79
1, 497042, Control_c, 0, 64, 81
1, 497057, Control_c, 0, 64, 82
1, 497072, Control_c, 0, 64, 84
1, 497087, Control_c, 0, 64, 84
1, 497102, Control_c, 0, 64, 85
1, 497117, Control_c, 0, 64, 86
1, 497132, Control_c, 0, 64, 88
1, 497146, Control_c, 0, 64, 88
1, 497205, Control_c, 0, 64, 89
1, 497257, Note_on_c, 0, 60, 46
1, 497298, Note_off_c, 0, 32, 40
1, 497409, Note_off_c, 0, 44, 40
1, 497409, Note_off_c, 0, 60, 53
1, 497570, Note_on_c, 0, 60, 44
1, 497708, Note_off_c, 0, 60, 59
1, 497892, Note_on_c, 0, 60, 49
1, 498023, Note_off_c, 0, 60, 26
1, 498303, Control_c, 0, 64, 88
1, 498318, Control_c, 0, 64, 87
1, 498333, Control_c, 0, 64, 85
1, 498338, Note_on_c, 0, 44, 32
1, 498341, Note_on_c, 0, 72, 46
1, 498346, Note_on_c, 0, 56, 32
1, 498347, Note_on_c, 0, 60, 39
1, 498347, Note_on_c, 0, 68, 36
1, 498348, Control_c, 0, 64, 80
1, 498351, Note_on_c, 0, 51, 33
1, 498361, Note_on_c, 0, 63, 34
1, 498363, Control_c, 0, 64, 75
1, 498377, Control_c, 0, 64, 70
1, 498392, Control_c, 0, 64, 64
1, 498407, Control_c, 0, 64, 56
1, 498421, Control_c, 0, 64, 20
1, 498436, Control_c, 0, 64, 0
1, 498643, Control_c, 0, 64, 54
1, 498658, Control_c, 0, 64, 64
1, 498673, Control_c, 0, 64, 69
1, 498688, Control_c, 0, 64, 74
1, 498703, Control_c, 0, 64, 78
1, 498717, Control_c, 0, 64, 81
1, 498718, Note_off_c, 0, 60, 58
1, 498732, Control_c, 0, 64, 86
1, 498747, Control_c, 0, 64, 91
1, 498762, Control_c, 0, 64, 98
1, 498777, Control_c, 0, 64, 105
1, 498792, Control_c, 0, 64, 114
1, 498807, Control_c, 0, 64, 121
1, 498821, Control_c, 0, 64, 127
1, 498868, Note_off_c, 0, 72, 55
1, 498878, Note_off_c, 0, 63, 52
1, 498929, Note_off_c, 0, 68, 48
1, 499150, Note_off_c, 0, 44, 41
1, 499271, Note_on_c, 0, 72, 49
1, 499310, Note_off_c, 0, 56, 34
1, 499324, Note_off_c, 0, 51, 33
1, 499455, Note_off_c, 0, 72, 49
1, 499607, Control_c, 0, 64, 125
1, 499651, Control_c, 0, 64, 121
1, 499675, Note_on_c, 0, 72, 48
1, 499681, Control_c, 0, 64, 119
1, 499725, Control_c, 0, 64, 118
1, 499770, Control_c, 0, 64, 116
1, 499830, Control_c, 0, 64, 115
1, 499870, Note_off_c, 0, 72, 44
1, 499874, Control_c, 0, 64, 114
1, 499904, Control_c, 0, 64, 113
1, 499934, Control_c, 0, 64, 112
1, 499949, Control_c, 0, 64, 111
1, 499978, Control_c, 0, 64, 110
1, 499993, Control_c, 0, 64, 110
1, 500008, Control_c, 0, 64, 109
1, 500023, Control_c, 0, 64, 108
1, 500038, Control_c, 0, 64, 107
1, 500053, Control_c, 0, 64, 107
1, 500067, Control_c, 0, 64, 106
1, 500082, Control_c, 0, 64, 106
1, 500112, Control_c, 0, 64, 105
1, 500141, Control_c, 0, 64, 105
1, 500165, Note_on_c, 0, 72, 45
1, 500171, Control_c, 0, 64, 104
1, 500215, Control_c, 0, 64, 104
1, 500259, Control_c, 0, 64, 103
1, 500288, Note_off_c, 0, 72, 53
1, 500289, Control_c, 0, 64, 103
1, 500341, Control_c, 0, 64, 102
1, 500356, Control_c, 0, 64, 102
1, 500384, Note_on_c, 0, 57, 38
1, 500386, Control_c, 0, 64, 101
1, 500400, Control_c, 0, 64, 101
1, 500415, Control_c, 0, 64, 100
1, 500430, Control_c, 0, 64, 99
1, 500445, Control_c, 0, 64, 98
1, 500460, Control_c, 0, 64, 97
1, 500474, Control_c, 0, 64, 96
1, 500489, Control_c, 0, 64, 95
1, 500504, Control_c, 0, 64, 94
1, 500519, Control_c, 0, 64, 92
1, 500534, Control_c, 0, 64, 91
1, 500548, Control_c, 0, 64, 90
1, 500563, Control_c, 0, 64, 90
1, 500578, Control_c, 0, 64, 89
1, 500592, Control_c, 0, 64, 88
1, 500607, Control_c, 0, 64, 87
1, 500623, Control_c, 0, 64, 87
1, 500638, Control_c, 0, 64, 86
1, 500653, Control_c, 0, 64, 84
1, 500668, Control_c, 0, 64, 82
1, 500683, Control_c, 0, 64, 78
1, 500697, Control_c, 0, 64, 73
1, 500712, Control_c, 0, 64, 67
1, 500727, Note_off_c, 0, 57, 34
1, 500727, Control_c, 0, 64, 60
1, 500729, Note_on_c, 0, 58, 42
1, 500734, Note_on_c, 0, 73, 53
1, 500742, Control_c, 0, 64, 29
1, 500757, Control_c, 0, 64, 0
1, 500807, Note_on_c, 0, 75, 58
1, 500876, Note_off_c, 0, 75, 61
1, 500891, Note_on_c, 0, 77, 58
1, 500892, Note_off_c, 0, 73, 42
1, 500947, Note_on_c, 0, 75, 58
1, 500950, Note_off_c, 0, 58, 55
1, 500970, Note_off_c, 0, 77, 55
1, 501027, Note_on_c, 0, 73, 67
1, 501037, Note_off_c, 0, 75, 63
1, 501069, Control_c, 0, 64, 10
1, 501078, Note_off_c, 0, 73, 61
1, 501084, Control_c, 0, 64, 15
1, 501102, Note_on_c, 0, 60, 45
1, 501105, Control_c, 0, 64, 17
1, 501116, Note_on_c, 0, 72, 60
1, 501135, Control_c, 0, 64, 10
1, 501150, Control_c, 0, 64, 0
1, 501154, Note_off_c, 0, 60, 59
1, 501184, Note_on_c, 0, 70, 61
1, 501186, Note_off_c, 0, 72, 60
1, 501205, Note_on_c, 0, 61, 54
1, 501252, Note_off_c, 0, 70, 59
1, 501253, Note_on_c, 0, 72, 47
1, 501312, Note_on_c, 0, 73, 64
1, 501317, Note_off_c, 0, 72, 61
1, 501367, Note_off_c, 0, 61, 60
1, 501372, Control_c, 0, 64, 25
1, 501387, Control_c, 0, 64, 39
1, 501393, Note_on_c, 0, 72, 55
1, 501402, Control_c, 0, 64, 46
1, 501406, Note_off_c, 0, 73, 62
1, 501418, Control_c, 0, 64, 49
1, 501433, Control_c, 0, 64, 50
1, 501447, Control_c, 0, 64, 51
1, 501451, Note_off_c, 0, 72, 58
1, 501458, Note_on_c, 0, 70, 68
1, 501462, Control_c, 0, 64, 52
1, 501477, Control_c, 0, 64, 53
1, 501492, Control_c, 0, 64, 53
1, 501507, Control_c, 0, 64, 54
1, 501521, Control_c, 0, 64, 55
1, 501536, Control_c, 0, 64, 56
1, 501544, Note_off_c, 0, 70, 58
1, 501548, Note_on_c, 0, 62, 54
1, 501550, Note_on_c, 0, 68, 52
1, 501579, Note_off_c, 0, 68, 59
1, 501581, Control_c, 0, 64, 55
1, 501585, Note_off_c, 0, 62, 59
1, 501595, Control_c, 0, 64, 52
1, 501601, Note_on_c, 0, 67, 70
1, 501610, Control_c, 0, 64, 46
1, 501625, Control_c, 0, 64, 31
1, 501639, Control_c, 0, 64, 0
1, 501645, Note_on_c, 0, 63, 66
1, 501656, Note_off_c, 0, 67, 58
1, 501672, Note_on_c, 0, 70, 64
1, 501672, Poly_aftertouch_c, 0, 74, 127
1, 501711, Poly_aftertouch_c, 0, 74, 0
1, 501718, Note_off_c, 0, 70, 61
1, 501762, Note_on_c, 0, 72, 63
1, 501802, Control_c, 0, 64, 10
1, 501817, Control_c, 0, 64, 32
1, 501838, Note_off_c, 0, 72, 64
1, 501838, Control_c, 0, 64, 38
1, 501839, Note_on_c, 0, 73, 64
1, 501842, Note_off_c, 0, 63, 56
1, 501853, Control_c, 0, 64, 39
1, 501898, Control_c, 0, 64, 40
1, 501913, Control_c, 0, 64, 41
1, 501913, Note_on_c, 0, 75, 66
1, 501919, Note_off_c, 0, 73, 58
1, 501928, Control_c, 0, 64, 42
1, 501943, Control_c, 0, 64, 43
1, 501958, Control_c, 0, 64, 44
1, 501964, Note_on_c, 0, 61, 60
1, 501964, Note_off_c, 0, 75, 62
1, 501972, Control_c, 0, 64, 45
1, 501987, Control_c, 0, 64, 46
1, 501993, Note_on_c, 0, 77, 72
1, 502002, Control_c, 0, 64, 47
1, 502003, Note_off_c, 0, 61, 57
1, 502017, Control_c, 0, 64, 48
1, 502032, Control_c, 0, 64, 48
1, 502076, Control_c, 0, 64, 47
1, 502081, Note_off_c, 0, 77, 49
1, 502087, Note_on_c, 0, 75, 59
1, 502091, Control_c, 0, 64, 43
1, 502106, Control_c, 0, 64, 33
1, 502110, Note_on_c, 0, 60, 65
1, 502120, Control_c, 0, 64, 0
1, 502145, Note_off_c, 0, 75, 65
1, 502160, Note_on_c, 0, 84, 70
1, 502233, Note_on_c, 0, 82, 71
1, 502240, Control_c, 0, 64, 38
1, 502255, Control_c, 0, 64, 50
1, 502269, Control_c, 0, 64, 55
1, 502277, Note_off_c, 0, 84, 59
1, 502284, Control_c, 0, 64, 56
1, 502303, Note_on_c, 0, 80, 69
1, 502314, Control_c, 0, 64, 56
1, 502318, Note_off_c, 0, 60, 52
1, 502360, Note_off_c, 0, 82, 57
1, 502371, Note_on_c, 0, 79, 69
1, 502388, Note_off_c, 0, 80, 58
1, 502402, Control_c, 0, 64, 57
1, 502409, Note_off_c, 0, 79, 58
1, 502417, Control_c, 0, 64, 57
1, 502426, Note_on_c, 0, 61, 50
1, 502432, Control_c, 0, 64, 58
1, 502443, Note_on_c, 0, 68, 48
1, 502445, Note_on_c, 0, 77, 70
1, 502447, Control_c, 0, 64, 59
1, 502461, Control_c, 0, 64, 60
1, 502476, Control_c, 0, 64, 61
1, 502477, Note_off_c, 0, 68, 61
1, 502491, Control_c, 0, 64, 61
1, 502493, Note_off_c, 0, 61, 54
1, 502506, Control_c, 0, 64, 62
1, 502522, Note_off_c, 0, 77, 58
1, 502530, Note_on_c, 0, 75, 61
1, 502536, Control_c, 0, 64, 60
1, 502551, Control_c, 0, 64, 53
1, 502557, Note_on_c, 0, 60, 58
1, 502566, Note_on_c, 0, 68, 61
1, 502566, Control_c, 0, 64, 28
1, 502587, Control_c, 0, 64, 0
1, 502600, Note_off_c, 0, 75, 62
1, 502605, Note_on_c, 0, 77, 47
1, 502631, Note_off_c, 0, 68, 64
1, 502661, Control_c, 0, 64, 39
1, 502676, Control_c, 0, 64, 56
1, 502677, Note_on_c, 0, 74, 59
1, 502684, Note_off_c, 0, 60, 63
1, 502691, Control_c, 0, 64, 61
1, 502706, Control_c, 0, 64, 61
1, 502713, Note_off_c, 0, 77, 55
1, 502721, Control_c, 0, 64, 61
1, 502739, Note_on_c, 0, 75, 63
1, 502745, Note_off_c, 0, 74, 63
1, 502784, Note_off_c, 0, 75, 64
1, 502819, Note_on_c, 0, 72, 64
1, 502840, Control_c, 0, 64, 60
1, 502855, Control_c, 0, 64, 60
1, 502864, Note_on_c, 0, 58, 69
1, 502869, Control_c, 0, 64, 59
1, 502882, Note_on_c, 0, 49, 39
1, 502884, Control_c, 0, 64, 59
1, 502885, Note_off_c, 0, 72, 63
1, 502889, Note_on_c, 0, 70, 64
1, 502894, Note_off_c, 0, 58, 63
1, 502897, Note_on_c, 0, 51, 34
1, 502899, Control_c, 0, 64, 58
1, 502913, Control_c, 0, 64, 57
1, 502914, Note_off_c, 0, 49, 58
1, 502926, Note_off_c, 0, 51, 50
1, 502928, Control_c, 0, 64, 55
1, 502943, Control_c, 0, 64, 51
1, 502958, Control_c, 0, 64, 44
1, 502962, Note_off_c, 0, 70, 62
1, 502971, Note_on_c, 0, 68, 71
1, 502973, Control_c, 0, 64, 0
1, 503007, Note_on_c, 0, 48, 62
1, 503013, Note_on_c, 0, 56, 62
1, 503014, Note_on_c, 0, 51, 63
1, 503049, Note_on_c, 0, 70, 66
1, 503057, Note_off_c, 0, 68, 56
1, 503122, Control_c, 0, 64, 19
1, 503129, Note_on_c, 0, 67, 66
1, 503130, Note_off_c, 0, 70, 55
1, 503137, Control_c, 0, 64, 56
1, 503151, Note_off_c, 0, 56, 61
1, 503152, Control_c, 0, 64, 61
1, 503179, Note_off_c, 0, 51, 61
1, 503182, Note_off_c, 0, 48, 62
1, 503184, Note_on_c, 0, 68, 72
1, 503195, Note_off_c, 0, 67, 60
1, 503225, Control_c, 0, 64, 62
1, 503240, Control_c, 0, 67, 122
1, 503255, Control_c, 0, 64, 62
1, 503255, Control_c, 0, 67, 101
1, 503269, Note_on_c, 0, 70, 69
1, 503269, Note_off_c, 0, 68, 62
1, 503270, Control_c, 0, 67, 78
1, 503284, Control_c, 0, 67, 52
1, 503296, Note_off_c, 0, 70, 67
1, 503299, Control_c, 0, 67, 33
1, 503314, Control_c, 0, 67, 20
1, 503329, Control_c, 0, 67, 13
1, 503347, Note_on_c, 0, 44, 38
1, 503350, Note_on_c, 0, 72, 67
1, 503351, Control_c, 0, 67, 10
1, 503366, Control_c, 0, 67, 9
1, 503381, Control_c, 0, 67, 8
1, 503386, Note_off_c, 0, 44, 33
1, 503396, Control_c, 0, 64, 61
1, 503396, Control_c, 0, 67, 8
1, 503410, Control_c, 0, 64, 56
1, 503425, Control_c, 0, 64, 0
1, 503440, Control_c, 0, 67, 9
1, 503443, Note_off_c, 0, 72, 51
1, 503451, Note_on_c, 0, 75, 61
1, 503455, Control_c, 0, 67, 12
1, 503463, Note_on_c, 0, 41, 66
1, 503470, Control_c, 0, 67, 15
1, 503484, Control_c, 0, 67, 19
1, 503499, Control_c, 0, 67, 25
1, 503514, Control_c, 0, 64, 40
1, 503514, Control_c, 0, 67, 37
1, 503529, Control_c, 0, 64, 63
1, 503529, Control_c, 0, 67, 57
1, 503532, Note_on_c, 0, 73, 67
1, 503532, Note_off_c, 0, 75, 64
1, 503544, Control_c, 0, 64, 70
1, 503544, Control_c, 0, 67, 79
1, 503558, Control_c, 0, 64, 75
1, 503558, Control_c, 0, 67, 95
1, 503573, Control_c, 0, 64, 76
1, 503573, Control_c, 0, 67, 106
1, 503588, Control_c, 0, 67, 116
1, 503591, Note_off_c, 0, 41, 65
1, 503603, Control_c, 0, 67, 124
1, 503608, Note_on_c, 0, 75, 58
1, 503612, Note_off_c, 0, 73, 59
1, 503618, Control_c, 0, 67, 127
1, 503640, Note_off_c, 0, 75, 65
1, 503674, Note_on_c, 0, 77, 72
1, 503749, Note_on_c, 0, 53, 64
1, 503753, Note_on_c, 0, 61, 64
1, 503759, Note_on_c, 0, 79, 63
1, 503772, Note_on_c, 0, 56, 33
1, 503776, Note_off_c, 0, 61, 64
1, 503782, Note_off_c, 0, 53, 68
1, 503805, Note_off_c, 0, 56, 46
1, 503805, Note_off_c, 0, 77, 32
1, 503814, Note_on_c, 0, 80, 70
1, 503818, Note_off_c, 0, 79, 61
1, 503827, Control_c, 0, 64, 76
1, 503841, Control_c, 0, 64, 73
1, 503856, Control_c, 0, 64, 65
1, 503871, Control_c, 0, 64, 38
1, 503883, Note_off_c, 0, 80, 62
1, 503886, Control_c, 0, 64, 0
1, 503892, Note_on_c, 0, 82, 65
1, 503900, Note_on_c, 0, 39, 74
1, 503946, Control_c, 0, 64, 43
1, 503956, Note_off_c, 0, 82, 60
1, 503960, Control_c, 0, 64, 63
1, 503965, Note_on_c, 0, 80, 62
1, 503975, Control_c, 0, 64, 69
1, 503990, Control_c, 0, 64, 71
1, 504027, Note_off_c, 0, 39, 62
1, 504035, Note_off_c, 0, 80, 63
1, 504037, Note_on_c, 0, 82, 65
1, 504065, Note_off_c, 0, 82, 66
1, 504112, Note_on_c, 0, 84, 65
1, 504190, Control_c, 0, 64, 70
1, 504196, Note_on_c, 0, 60, 60
1, 504196, Note_on_c, 0, 85, 64
1, 504204, Note_off_c, 0, 84, 59
1, 504205, Note_on_c, 0, 51, 50
1, 504214, Note_on_c, 0, 56, 35
1, 504225, Note_off_c, 0, 60, 65
1, 504238, Note_off_c, 0, 51, 64
1, 504245, Note_off_c, 0, 56, 46
1, 504265, Note_on_c, 0, 87, 72
1, 504268, Note_off_c, 0, 85, 64
1, 504279, Control_c, 0, 64, 69
1, 504294, Control_c, 0, 64, 65
1, 504309, Control_c, 0, 64, 50
1, 504323, Control_c, 0, 64, 0
1, 504336, Note_on_c, 0, 39, 73
1, 504336, Note_off_c, 0, 87, 58
1, 504342, Note_on_c, 0, 89, 58
1, 504382, Control_c, 0, 64, 22
1, 504397, Control_c, 0, 64, 59
1, 504401, Note_off_c, 0, 89, 64
1, 504412, Control_c, 0, 64, 66
1, 504417, Note_off_c, 0, 39, 63
1, 504427, Control_c, 0, 64, 69
1, 504441, Control_c, 0, 64, 70
1, 504474, Poly_aftertouch_c, 0, 87, 0
1, 504480, Note_on_c, 0, 89, 75
1, 504530, Control_c, 0, 64, 69
1, 504545, Control_c, 0, 64, 69
1, 504560, Control_c, 0, 64, 68
1, 504569, Note_on_c, 0, 91, 68
1, 504575, Control_c, 0, 64, 67
1, 504590, Control_c, 0, 64, 67
1, 504601, Note_off_c, 0, 89, 39
1, 504605, Control_c, 0, 64, 66
1, 504620, Control_c, 0, 64, 65
1, 504622, Note_on_c, 0, 61, 59
1, 504635, Note_on_c, 0, 55, 50
1, 504635, Control_c, 0, 64, 64
1, 504647, Note_on_c, 0, 92, 67
1, 504650, Control_c, 0, 64, 63
1, 504664, Note_off_c, 0, 61, 55
1, 504664, Control_c, 0, 64, 60
1, 504670, Note_off_c, 0, 55, 66
1, 504674, Note_on_c, 0, 51, 3
1, 504674, Note_off_c, 0, 91, 37
1, 504679, Control_c, 0, 64, 56
1, 504694, Control_c, 0, 64, 46
1, 504700, Note_off_c, 0, 51, 37
1, 504709, Control_c, 0, 64, 21
1, 504724, Control_c, 0, 64, 0
1, 504726, Note_off_c, 0, 92, 64
1, 504728, Note_on_c, 0, 94, 66
1, 504841, Note_on_c, 0, 60, 42
1, 504850, Control_c, 0, 64, 34
1, 504858, Note_on_c, 0, 56, 43
1, 504860, Note_on_c, 0, 92, 75
1, 504864, Control_c, 0, 64, 57
1, 504879, Control_c, 0, 64, 64
1, 504880, Note_off_c, 0, 60, 58
1, 504894, Control_c, 0, 64, 66
1, 504905, Note_off_c, 0, 56, 60
1, 504909, Control_c, 0, 64, 68
1, 504924, Control_c, 0, 64, 69
1, 504939, Control_c, 0, 64, 70
1, 504954, Control_c, 0, 64, 71
1, 504977, Note_on_c, 0, 44, 47
1, 505004, Note_off_c, 0, 94, 23
1, 505055, Note_off_c, 0, 44, 59
1, 505059, Note_on_c, 0, 46, 59
1, 505102, Control_c, 0, 64, 70
1, 505129, Note_off_c, 0, 46, 59
1, 505132, Control_c, 0, 64, 70
1, 505138, Note_on_c, 0, 48, 63
1, 505146, Control_c, 0, 64, 69
1, 505161, Control_c, 0, 64, 69
1, 505176, Control_c, 0, 64, 68
1, 505176, Control_c, 0, 67, 127
1, 505190, Control_c, 0, 64, 67
1, 505190, Control_c, 0, 67, 117
1, 505205, Control_c, 0, 64, 67
1, 505205, Control_c, 0, 67, 103
1, 505219, Note_off_c, 0, 48, 60
1, 505220, Control_c, 0, 64, 66
1, 505220, Control_c, 0, 67, 90
1, 505223, Note_on_c, 0, 49, 63
1, 505235, Control_c, 0, 64, 64
1, 505235, Control_c, 0, 67, 77
1, 505250, Control_c, 0, 64, 63
1, 505250, Control_c, 0, 67, 64
1, 505259, Note_off_c, 0, 49, 61
1, 505264, Control_c, 0, 64, 62
1, 505264, Control_c, 0, 67, 53
1, 505278, Note_on_c, 0, 50, 67
1, 505279, Control_c, 0, 64, 61
1, 505279, Control_c, 0, 67, 43
1, 505283, Poly_aftertouch_c, 0, 94, 127
1, 505294, Control_c, 0, 64, 60
1, 505294, Control_c, 0, 67, 33
1, 505308, Control_c, 0, 64, 60
1, 505308, Control_c, 0, 67, 22
1, 505323, Control_c, 0, 67, 15
1, 505324, Note_off_c, 0, 50, 49
1, 505338, Control_c, 0, 67, 9
1, 505353, Control_c, 0, 64, 59
1, 505353, Control_c, 0, 67, 0
1, 505361, Note_on_c, 0, 51, 68
1, 505368, Control_c, 0, 64, 59
1, 505382, Control_c, 0, 64, 58
1, 505397, Control_c, 0, 64, 58
1, 505427, Control_c, 0, 64, 56
1, 505436, Note_on_c, 0, 55, 63
1, 505442, Control_c, 0, 64, 54
1, 505444, Note_off_c, 0, 51, 61
1, 505451, Poly_aftertouch_c, 0, 94, 0
1, 505455, Note_on_c, 0, 53, 56
1, 505457, Control_c, 0, 64, 53
1, 505461, Note_off_c, 0, 92, 63
1, 505469, Note_off_c, 0, 55, 59
1, 505472, Control_c, 0, 64, 54
1, 505478, Note_off_c, 0, 53, 59
1, 505487, Control_c, 0, 64, 54
1, 505502, Control_c, 0, 64, 55
1, 505505, Note_on_c, 0, 55, 54
1, 505517, Control_c, 0, 64, 55
1, 505532, Control_c, 0, 64, 56
1, 505546, Note_off_c, 0, 55, 63
1, 505547, Control_c, 0, 64, 58
1, 505561, Control_c, 0, 64, 59
1, 505573, Note_on_c, 0, 56, 77
1, 505583, Control_c, 0, 64, 61
1, 505598, Control_c, 0, 64, 61
1, 505612, Control_c, 0, 64, 62
1, 505656, Note_on_c, 0, 58, 78
1, 505676, Note_off_c, 0, 56, 59
1, 505717, Note_off_c, 0, 58, 61
1, 505724, Note_on_c, 0, 60, 73
1, 505746, Control_c, 0, 64, 61
1, 505776, Control_c, 0, 64, 60
1, 505788, Note_off_c, 0, 60, 39
1, 505791, Control_c, 0, 64, 60
1, 505800, Note_on_c, 0, 57, 76
1, 505805, Control_c, 0, 64, 56
1, 505820, Control_c, 0, 64, 47
1, 505835, Control_c, 0, 64, 23
1, 505850, Control_c, 0, 64, 0
1, 505870, Note_on_c, 0, 58, 86
1, 505881, Note_off_c, 0, 57, 57
1, 505929, Note_off_c, 0, 58, 64
1, 505938, Note_on_c, 0, 60, 78
1, 506015, Note_on_c, 0, 57, 81
1, 506015, Note_on_c, 0, 69, 84
1, 506020, Note_off_c, 0, 60, 43
1, 506057, Control_c, 0, 64, 8
1, 506072, Control_c, 0, 64, 41
1, 506086, Control_c, 0, 64, 54
1, 506092, Note_on_c, 0, 70, 79
1, 506098, Note_on_c, 0, 58, 77
1, 506099, Note_off_c, 0, 57, 58
1, 506101, Control_c, 0, 64, 58
1, 506107, Note_off_c, 0, 69, 60
1, 506116, Control_c, 0, 64, 59
1, 506149, Note_off_c, 0, 70, 63
1, 506159, Note_off_c, 0, 58, 63
1, 506161, Control_c, 0, 64, 60
1, 506175, Note_on_c, 0, 60, 71
1, 506175, Note_on_c, 0, 72, 76
1, 506176, Control_c, 0, 64, 61
1, 506191, Control_c, 0, 64, 61
1, 506206, Control_c, 0, 64, 62
1, 506265, Control_c, 0, 64, 61
1, 506268, Note_off_c, 0, 60, 52
1, 506280, Control_c, 0, 64, 59
1, 506295, Control_c, 0, 64, 49
1, 506304, Note_on_c, 0, 61, 81
1, 506310, Control_c, 0, 64, 0
1, 506312, Note_on_c, 0, 73, 89
1, 506359, Note_off_c, 0, 72, 54
1, 506450, Control_c, 0, 64, 58
1, 506465, Control_c, 0, 64, 68
1, 506467, Note_on_c, 0, 75, 72
1, 506474, Note_on_c, 0, 63, 61
1, 506480, Control_c, 0, 64, 76
1, 506495, Control_c, 0, 64, 81
1, 506510, Control_c, 0, 64, 86
1, 506512, Note_off_c, 0, 61, 58
1, 506524, Control_c, 0, 64, 92
1, 506539, Control_c, 0, 64, 95
1, 506541, Note_off_c, 0, 63, 64
1, 506552, Note_off_c, 0, 73, 46
1, 506553, Note_off_c, 0, 75, 64
1, 506554, Control_c, 0, 64, 95
1, 506569, Note_on_c, 0, 77, 71
1, 506582, Note_on_c, 0, 65, 63
1, 506637, Note_on_c, 0, 75, 75
1, 506650, Note_off_c, 0, 65, 53
1, 506659, Note_on_c, 0, 63, 63
1, 506693, Note_off_c, 0, 77, 61
1, 506694, Note_off_c, 0, 63, 62
1, 506707, Note_on_c, 0, 73, 83
1, 506709, Note_on_c, 0, 61, 71
1, 506737, Note_off_c, 0, 75, 60
1, 506754, Note_off_c, 0, 61, 61
1, 506770, Note_off_c, 0, 73, 61
1, 506776, Note_on_c, 0, 72, 77
1, 506791, Note_on_c, 0, 60, 68
1, 506825, Note_off_c, 0, 60, 55
1, 506849, Note_on_c, 0, 58, 84
1, 506850, Control_c, 0, 64, 81
1, 506852, Note_on_c, 0, 70, 90
1, 506865, Control_c, 0, 64, 64
1, 506877, Note_off_c, 0, 72, 62
1, 506880, Control_c, 0, 64, 0
1, 506933, Note_on_c, 0, 72, 70
1, 506954, Control_c, 0, 64, 39
1, 506954, Note_on_c, 0, 60, 77
1, 506967, Note_off_c, 0, 70, 61
1, 506969, Control_c, 0, 64, 64
1, 506983, Note_off_c, 0, 58, 56
1, 506984, Control_c, 0, 64, 76
1, 506998, Control_c, 0, 64, 86
1, 507007, Note_on_c, 0, 73, 80
1, 507010, Note_off_c, 0, 60, 61
1, 507014, Control_c, 0, 64, 87
1, 507020, Note_off_c, 0, 72, 64
1, 507028, Note_on_c, 0, 61, 82
1, 507044, Control_c, 0, 64, 88
1, 507058, Control_c, 0, 64, 90
1, 507081, Control_c, 0, 64, 93
1, 507089, Note_on_c, 0, 72, 71
1, 507091, Note_off_c, 0, 61, 57
1, 507096, Control_c, 0, 64, 94
1, 507107, Note_on_c, 0, 60, 52
1, 507108, Note_off_c, 0, 73, 59
1, 507153, Note_on_c, 0, 70, 76
1, 507156, Note_off_c, 0, 72, 66
1, 507168, Note_off_c, 0, 60, 60
1, 507169, Note_on_c, 0, 58, 65
1, 507223, Note_on_c, 0, 56, 58
1, 507235, Note_off_c, 0, 58, 54
1, 507240, Note_on_c, 0, 68, 76
1, 507273, Note_off_c, 0, 70, 62
1, 507288, Control_c, 0, 64, 92
1, 507300, Note_on_c, 0, 55, 76
1, 507300, Note_on_c, 0, 67, 85
1, 507302, Note_off_c, 0, 56, 61
1, 507303, Control_c, 0, 64, 77
1, 507308, Note_off_c, 0, 68, 62
1, 507318, Control_c, 0, 64, 58
1, 507332, Control_c, 0, 64, 0
1, 507371, Note_on_c, 0, 70, 81
1, 507377, Note_off_c, 0, 55, 63
1, 507380, Note_on_c, 0, 58, 70
1, 507384, Note_off_c, 0, 67, 56
1, 507392, Control_c, 0, 64, 27
1, 507407, Control_c, 0, 64, 61
1, 507418, Note_off_c, 0, 58, 64
1, 507422, Control_c, 0, 64, 65
1, 507444, Note_on_c, 0, 67, 69
1, 507449, Note_on_c, 0, 55, 70
1, 507451, Control_c, 0, 64, 59
1, 507466, Control_c, 0, 64, 0
1, 507475, Note_off_c, 0, 70, 60
1, 507501, Note_off_c, 0, 67, 62
1, 507520, Note_on_c, 0, 64, 78
1, 507526, Note_on_c, 0, 52, 75
1, 507535, Note_off_c, 0, 55, 59
1, 507592, Note_on_c, 0, 63, 67
1, 507597, Note_off_c, 0, 64, 65
1, 507598, Note_on_c, 0, 51, 58
1, 507599, Note_off_c, 0, 52, 60
1, 507645, Note_on_c, 0, 49, 52
1, 507661, Note_on_c, 0, 61, 67
1, 507678, Note_off_c, 0, 63, 55
1, 507701, Note_off_c, 0, 51, 39
1, 507721, Note_off_c, 0, 49, 60
1, 507722, Note_on_c, 0, 48, 74
1, 507727, Note_on_c, 0, 60, 77
1, 507728, Note_off_c, 0, 61, 60
1, 507810, Note_on_c, 0, 63, 67
1, 507815, Note_on_c, 0, 51, 59
1, 507840, Note_off_c, 0, 48, 59
1, 507858, Note_off_c, 0, 60, 58
1, 507878, Note_on_c, 0, 56, 62
1, 507902, Note_on_c, 0, 68, 64
1, 507912, Note_off_c, 0, 51, 57
1, 507948, Note_off_c, 0, 63, 61
1, 507957, Note_on_c, 0, 47, 80
1, 507963, Note_off_c, 0, 56, 57
1, 507972, Note_on_c, 0, 59, 80
1, 507979, Control_c, 0, 64, 38
1, 507994, Control_c, 0, 64, 56
1, 508008, Control_c, 0, 64, 58
1, 508010, Note_off_c, 0, 68, 59
1, 508011, Note_on_c, 0, 50, 64
1, 508029, Note_on_c, 0, 62, 64
1, 508052, Note_off_c, 0, 47, 64
1, 508068, Control_c, 0, 64, 57
1, 508075, Note_off_c, 0, 59, 57
1, 508082, Control_c, 0, 64, 49
1, 508097, Control_c, 0, 64, 0
1, 508098, Note_on_c, 0, 56, 67
1, 508101, Note_off_c, 0, 50, 63
1, 508114, Note_off_c, 0, 62, 61
1, 508118, Note_on_c, 0, 68, 70
1, 508169, Note_on_c, 0, 60, 77
1, 508178, Note_on_c, 0, 48, 83
1, 508184, Note_off_c, 0, 68, 63
1, 508189, Note_off_c, 0, 56, 54
1, 508215, Control_c, 0, 64, 36
1, 508230, Control_c, 0, 64, 61
1, 508241, Note_on_c, 0, 63, 74
1, 508245, Control_c, 0, 64, 68
1, 508260, Control_c, 0, 64, 71
1, 508263, Note_on_c, 0, 51, 72
1, 508274, Control_c, 0, 64, 72
1, 508287, Note_off_c, 0, 48, 61
1, 508289, Control_c, 0, 64, 75
1, 508295, Note_off_c, 0, 60, 58
1, 508304, Note_on_c, 0, 68, 58
1, 508304, Control_c, 0, 64, 78
1, 508311, Note_off_c, 0, 63, 64
1, 508319, Control_c, 0, 64, 84
1, 508325, Note_off_c, 0, 68, 66
1, 508329, Note_on_c, 0, 56, 62
1, 508334, Control_c, 0, 64, 88
1, 508340, Note_off_c, 0, 51, 60
1, 508349, Control_c, 0, 64, 90
1, 508379, Control_c, 0, 64, 88
1, 508380, Note_off_c, 0, 56, 58
1, 508393, Control_c, 0, 64, 74
1, 508408, Note_on_c, 0, 74, 86
1, 508408, Control_c, 0, 64, 59
1, 508409, Note_on_c, 0, 62, 83
1, 508411, Note_on_c, 0, 47, 83
1, 508415, Note_on_c, 0, 68, 68
1, 508423, Control_c, 0, 64, 0
1, 508468, Control_c, 0, 64, 38
1, 508482, Control_c, 0, 64, 64
1, 508484, Note_on_c, 0, 51, 69
1, 508497, Note_off_c, 0, 74, 63
1, 508497, Control_c, 0, 64, 71
1, 508504, Note_off_c, 0, 47, 61
1, 508512, Control_c, 0, 64, 78
1, 508525, Note_off_c, 0, 62, 61
1, 508526, Control_c, 0, 64, 83
1, 508541, Control_c, 0, 64, 87
1, 508543, Note_off_c, 0, 68, 64
1, 508549, Note_on_c, 0, 56, 60
1, 508556, Control_c, 0, 64, 92
1, 508567, Note_off_c, 0, 51, 60
1, 508578, Control_c, 0, 64, 98
1, 508593, Control_c, 0, 64, 99
1, 508605, Note_off_c, 0, 56, 55
1, 508609, Control_c, 0, 64, 94
1, 508624, Control_c, 0, 64, 76
1, 508638, Control_c, 0, 64, 61
1, 508641, Note_on_c, 0, 75, 90
1, 508643, Note_on_c, 0, 63, 93
1, 508652, Note_on_c, 0, 48, 83
1, 508653, Control_c, 0, 64, 15
1, 508668, Control_c, 0, 64, 29
1, 508683, Control_c, 0, 64, 57
1, 508686, Note_on_c, 0, 69, 34
1, 508698, Control_c, 0, 64, 66
1, 508712, Control_c, 0, 64, 75
1, 508719, Note_off_c, 0, 69, 54
1, 508721, Note_off_c, 0, 48, 60
1, 508727, Control_c, 0, 64, 85
1, 508739, Note_on_c, 0, 51, 40
1, 508742, Control_c, 0, 64, 91
1, 508753, Note_off_c, 0, 63, 62
1, 508757, Control_c, 0, 64, 92
1, 508772, Control_c, 0, 64, 95
1, 508787, Control_c, 0, 64, 99
1, 508801, Note_off_c, 0, 51, 60
1, 508802, Control_c, 0, 64, 106
1, 508806, Note_off_c, 0, 75, 58
1, 508817, Control_c, 0, 64, 110
1, 508831, Control_c, 0, 64, 110
1, 508846, Control_c, 0, 64, 95
1, 508861, Control_c, 0, 64, 69
1, 508873, Note_on_c, 0, 47, 78
1, 508876, Control_c, 0, 64, 0
1, 508884, Note_on_c, 0, 77, 92
1, 508893, Note_on_c, 0, 65, 84
1, 508893, Note_on_c, 0, 69, 79
1, 508897, Note_on_c, 0, 75, 77
1, 508925, Note_on_c, 0, 51, 64
1, 508964, Control_c, 0, 64, 59
1, 508979, Control_c, 0, 64, 71
1, 508985, Note_off_c, 0, 47, 61
1, 508987, Note_on_c, 0, 53, 65
1, 508994, Control_c, 0, 64, 83
1, 509007, Note_off_c, 0, 69, 63
1, 509009, Control_c, 0, 64, 89
1, 509024, Control_c, 0, 64, 89
1, 509038, Control_c, 0, 64, 90
1, 509045, Note_off_c, 0, 75, 63
1, 509046, Note_off_c, 0, 77, 58
1, 509049, Note_off_c, 0, 51, 58
1, 509053, Control_c, 0, 64, 94
1, 509056, Note_off_c, 0, 65, 59
1, 509064, Note_off_c, 0, 53, 62
1, 509068, Control_c, 0, 64, 99
1, 509083, Control_c, 0, 64, 110
1, 509098, Control_c, 0, 64, 127
1, 509127, Control_c, 0, 64, 108
1, 509130, Note_on_c, 0, 46, 82
1, 509139, Note_on_c, 0, 79, 92
1, 509141, Note_on_c, 0, 67, 87
1, 509142, Control_c, 0, 64, 79
1, 509145, Note_on_c, 0, 70, 81
1, 509152, Note_on_c, 0, 75, 80
1, 509157, Control_c, 0, 64, 50
1, 509172, Control_c, 0, 64, 0
1, 509216, Control_c, 0, 64, 54
1, 509219, Note_on_c, 0, 51, 59
1, 509231, Control_c, 0, 64, 67
1, 509238, Note_off_c, 0, 46, 60
1, 509245, Note_on_c, 0, 55, 72
1, 509246, Control_c, 0, 64, 77
1, 509254, Note_off_c, 0, 79, 59
1, 509261, Control_c, 0, 64, 82
1, 509275, Control_c, 0, 64, 85
1, 509283, Note_off_c, 0, 70, 57
1, 509285, Note_off_c, 0, 67, 61
1, 509290, Control_c, 0, 64, 89
1, 509305, Control_c, 0, 64, 100
1, 509314, Note_off_c, 0, 75, 65
1, 509327, Control_c, 0, 64, 127
1, 509332, Note_off_c, 0, 55, 62
1, 509375, Note_on_c, 0, 44, 80
1, 509380, Note_off_c, 0, 51, 33
1, 509384, Note_on_c, 0, 80, 95
1, 509386, Control_c, 0, 64, 91
1, 509388, Note_on_c, 0, 68, 94
1, 509391, Note_on_c, 0, 71, 80
1, 509402, Control_c, 0, 64, 63
1, 509413, Note_on_c, 0, 43, 65
1, 509417, Control_c, 0, 64, 0
1, 509451, Note_on_c, 0, 47, 64
1, 509461, Control_c, 0, 64, 38
1, 509476, Note_off_c, 0, 43, 52
1, 509476, Control_c, 0, 64, 64
1, 509482, Note_off_c, 0, 71, 60
1, 509491, Control_c, 0, 64, 77
1, 509502, Note_off_c, 0, 44, 62
1, 509506, Control_c, 0, 64, 98
1, 509512, Note_off_c, 0, 68, 61
1, 509521, Control_c, 0, 64, 127
1, 509527, Note_off_c, 0, 80, 60
1, 509528, Note_on_c, 0, 51, 76
1, 509533, Note_off_c, 0, 47, 64
1, 509572, Note_off_c, 0, 51, 61
1, 509595, Control_c, 0, 64, 112
1, 509610, Control_c, 0, 64, 68
1, 509616, Note_on_c, 0, 43, 81
1, 509619, Note_on_c, 0, 82, 95
1, 509621, Note_on_c, 0, 70, 93
1, 509625, Control_c, 0, 64, 0
1, 509629, Note_on_c, 0, 75, 79
1, 509669, Control_c, 0, 64, 33
1, 509672, Note_on_c, 0, 46, 79
1, 509684, Control_c, 0, 64, 64
1, 509687, Note_off_c, 0, 70, 66
1, 509694, Note_off_c, 0, 43, 62
1, 509699, Control_c, 0, 64, 83
1, 509700, Note_on_c, 0, 83, 39
1, 509707, Note_off_c, 0, 75, 65
1, 509713, Control_c, 0, 64, 127
1, 509718, Note_off_c, 0, 82, 60
1, 509729, Note_off_c, 0, 83, 53
1, 509734, Note_off_c, 0, 46, 63
1, 509745, Note_on_c, 0, 51, 78
1, 509791, Note_off_c, 0, 51, 53
1, 509817, Control_c, 0, 64, 112
1, 509832, Control_c, 0, 64, 63
1, 509847, Control_c, 0, 64, 0
1, 509851, Note_on_c, 0, 42, 78
1, 509870, Note_on_c, 0, 90, 97
1, 509873, Note_on_c, 0, 78, 98
1, 509904, Control_c, 0, 64, 58
1, 509919, Control_c, 0, 64, 76
1, 509922, Note_off_c, 0, 42, 65
1, 509929, Note_on_c, 0, 54, 80
1, 509934, Control_c, 0, 64, 108
1, 509949, Control_c, 0, 64, 127
1, 509978, Poly_aftertouch_c, 0, 80, 0
1, 509985, Poly_aftertouch_c, 0, 91, 0
1, 509997, Note_on_c, 0, 42, 72
1, 510001, Note_off_c, 0, 78, 62
1, 510010, Note_off_c, 0, 54, 60
1, 510013, Note_off_c, 0, 90, 61
1, 510067, Control_c, 0, 64, 64
1, 510069, Note_off_c, 0, 42, 61
1, 510090, Control_c, 0, 64, 0
1, 510102, Note_on_c, 0, 89, 97
1, 510105, Note_on_c, 0, 41, 85
1, 510106, Note_on_c, 0, 77, 91
1, 510134, Control_c, 0, 64, 27
1, 510149, Control_c, 0, 64, 68
1, 510164, Note_off_c, 0, 41, 65
1, 510164, Control_c, 0, 64, 90
1, 510165, Note_off_c, 0, 77, 63
1, 510176, Note_off_c, 0, 89, 64
1, 510178, Control_c, 0, 64, 121
1, 510187, Note_on_c, 0, 53, 76
1, 510193, Control_c, 0, 64, 127
1, 510236, Note_on_c, 0, 41, 71
1, 510241, Note_off_c, 0, 53, 65
1, 510254, Control_c, 0, 64, 104
1, 510268, Control_c, 0, 64, 78
1, 510274, Note_off_c, 0, 41, 66
1, 510283, Control_c, 0, 64, 55
1, 510298, Control_c, 0, 64, 0
1, 510361, Note_on_c, 0, 80, 99
1, 510361, Note_on_c, 0, 94, 100
1, 510366, Note_on_c, 0, 86, 81
1, 510367, Note_on_c, 0, 46, 87
1, 510372, Note_on_c, 0, 34, 75
1, 510386, Note_on_c, 0, 92, 54
1, 510391, Note_on_c, 0, 44, 50
1, 510416, Control_c, 0, 64, 59
1, 510418, Note_off_c, 0, 92, 50
1, 510418, Note_off_c, 0, 94, 69
1, 510423, Note_off_c, 0, 44, 39
1, 510431, Control_c, 0, 64, 80
1, 510442, Note_off_c, 0, 34, 57
1, 510444, Note_off_c, 0, 86, 61
1, 510446, Control_c, 0, 64, 127
1, 510453, Note_off_c, 0, 80, 59
1, 510489, Note_off_c, 0, 46, 50
1, 510636, Note_on_c, 0, 39, 71
1, 510652, Note_on_c, 0, 87, 100
1, 510654, Control_c, 0, 64, 79
1, 510659, Note_on_c, 0, 75, 94
1, 510660, Note_on_c, 0, 79, 80
1, 510669, Control_c, 0, 64, 51
1, 510683, Control_c, 0, 64, 0
1, 510697, Note_on_c, 0, 88, 39
1, 510724, Note_off_c, 0, 39, 63
1, 510728, Note_off_c, 0, 88, 48
1, 510742, Note_on_c, 0, 43, 74
1, 510757, Control_c, 0, 64, 18
1, 510772, Control_c, 0, 64, 63
1, 510787, Control_c, 0, 64, 73
1, 510802, Control_c, 0, 64, 81
1, 510806, Note_off_c, 0, 43, 61
1, 510817, Control_c, 0, 64, 84
1, 510832, Note_on_c, 0, 44, 76
1, 510836, Note_off_c, 0, 87, 60
1, 510864, Note_off_c, 0, 79, 60
1, 510897, Note_off_c, 0, 75, 64
1, 510912, Note_on_c, 0, 46, 82
1, 510951, Note_off_c, 0, 44, 63
1, 510972, Note_off_c, 0, 46, 63
1, 510990, Note_on_c, 0, 48, 82
1, 511028, Note_off_c, 0, 48, 61
1, 511062, Control_c, 0, 64, 83
1, 511066, Note_on_c, 0, 50, 76
1, 511077, Control_c, 0, 64, 82
1, 511092, Control_c, 0, 64, 78
1, 511106, Control_c, 0, 64, 71
1, 511121, Control_c, 0, 64, 62
1, 511136, Control_c, 0, 64, 0
1, 511143, Note_on_c, 0, 51, 80
1, 511145, Note_on_c, 0, 63, 75
1, 511155, Note_off_c, 0, 50, 59
1, 511213, Note_off_c, 0, 51, 62
1, 511220, Note_on_c, 0, 67, 78
1, 511227, Note_on_c, 0, 55, 79
1, 511245, Note_off_c, 0, 63, 57
1, 511255, Control_c, 0, 64, 33
1, 511270, Control_c, 0, 64, 46
1, 511276, Note_off_c, 0, 55, 50
1, 511282, Note_on_c, 0, 68, 79
1, 511285, Control_c, 0, 64, 49
1, 511299, Control_c, 0, 64, 51
1, 511302, Note_on_c, 0, 56, 80
1, 511314, Control_c, 0, 64, 52
1, 511329, Control_c, 0, 64, 53
1, 511343, Control_c, 0, 64, 54
1, 511346, Note_off_c, 0, 67, 49
1, 511356, Note_on_c, 0, 70, 78
1, 511358, Control_c, 0, 64, 56
1, 511364, Note_on_c, 0, 58, 82
1, 511373, Control_c, 0, 64, 56
1, 511376, Note_off_c, 0, 68, 64
1, 511380, Note_off_c, 0, 56, 61
1, 511380, Note_off_c, 0, 70, 68
1, 511388, Control_c, 0, 64, 55
1, 511403, Control_c, 0, 64, 51
1, 511410, Note_off_c, 0, 58, 65
1, 511417, Control_c, 0, 64, 37
1, 511426, Note_on_c, 0, 72, 76
1, 511432, Control_c, 0, 64, 0
1, 511435, Note_on_c, 0, 60, 78
1, 511483, Note_off_c, 0, 60, 51
1, 511499, Note_off_c, 0, 72, 64
1, 511500, Note_on_c, 0, 74, 78
1, 511501, Note_on_c, 0, 62, 72
1, 511587, Note_off_c, 0, 62, 64
1, 511589, Note_on_c, 0, 75, 88
1, 511593, Note_on_c, 0, 63, 80
1, 511607, Note_off_c, 0, 74, 62
1, 511639, Note_off_c, 0, 63, 65
1, 511800, Note_off_c, 0, 75, 57
1, 511841, Control_c, 0, 67, 20
1, 511855, Control_c, 0, 67, 42
1, 511870, Control_c, 0, 67, 64
1, 511885, Control_c, 0, 67, 84
1, 511900, Control_c, 0, 67, 102
1, 511904, Note_on_c, 0, 63, 76
1, 511915, Control_c, 0, 67, 118
1, 511929, Control_c, 0, 67, 127
1, 512050, Note_on_c, 0, 75, 63
1, 512115, Note_off_c, 0, 75, 65
1, 512170, Note_on_c, 0, 51, 59
1, 512172, Note_on_c, 0, 77, 65
1, 512251, Note_off_c, 0, 77, 60
1, 512255, Note_on_c, 0, 79, 60
1, 512324, Note_off_c, 0, 79, 60
1, 512331, Note_on_c, 0, 80, 65
1, 512351, Control_c, 0, 64, 17
1, 512362, Note_off_c, 0, 80, 62
1, 512366, Control_c, 0, 64, 35
1, 512380, Control_c, 0, 64, 42
1, 512395, Control_c, 0, 64, 45
1, 512406, Note_on_c, 0, 81, 70
1, 512410, Control_c, 0, 64, 48
1, 512415, Note_on_c, 0, 61, 66
1, 512425, Control_c, 0, 64, 51
1, 512440, Note_off_c, 0, 51, 58
1, 512440, Control_c, 0, 64, 55
1, 512454, Control_c, 0, 64, 57
1, 512461, Note_off_c, 0, 81, 59
1, 512469, Control_c, 0, 64, 60
1, 512484, Control_c, 0, 64, 61
1, 512493, Note_on_c, 0, 82, 48
1, 512498, Control_c, 0, 64, 62
1, 512501, Note_off_c, 0, 63, 40
1, 512513, Control_c, 0, 64, 63
1, 512525, Note_off_c, 0, 82, 58
1, 512528, Control_c, 0, 64, 63
1, 512570, Note_on_c, 0, 84, 60
1, 512618, Control_c, 0, 64, 63
1, 512648, Control_c, 0, 64, 62
1, 512651, Note_on_c, 0, 85, 62
1, 512666, Note_off_c, 0, 84, 56
1, 512671, Note_on_c, 0, 51, 54
1, 512677, Control_c, 0, 64, 61
1, 512692, Control_c, 0, 64, 59
1, 512707, Control_c, 0, 64, 55
1, 512722, Control_c, 0, 64, 45
1, 512737, Control_c, 0, 64, 27
1, 512741, Note_off_c, 0, 85, 59
1, 512745, Note_on_c, 0, 87, 55
1, 512752, Control_c, 0, 64, 0
1, 512817, Note_off_c, 0, 87, 61
1, 512856, Note_on_c, 0, 89, 27
1, 512865, Note_on_c, 0, 90, 25
1, 512901, Note_off_c, 0, 90, 50
1, 512911, Note_on_c, 0, 87, 53
1, 512913, Note_off_c, 0, 89, 44
1, 512913, Note_on_c, 0, 58, 60
1, 512942, Note_off_c, 0, 61, 56
1, 512991, Note_on_c, 0, 85, 57
1, 513022, Note_off_c, 0, 87, 57
1, 513082, Note_off_c, 0, 85, 57
1, 513084, Note_on_c, 0, 84, 57
1, 513085, Control_c, 0, 64, 32
1, 513100, Control_c, 0, 64, 52
1, 513115, Control_c, 0, 64, 60
1, 513129, Control_c, 0, 64, 62
1, 513144, Control_c, 0, 64, 62
1, 513150, Note_off_c, 0, 84, 64
1, 513159, Control_c, 0, 64, 63
1, 513174, Control_c, 0, 64, 64
1, 513181, Note_on_c, 0, 82, 60
1, 513189, Control_c, 0, 64, 65
1, 513203, Control_c, 0, 64, 66
1, 513208, Note_on_c, 0, 61, 70
1, 513208, Note_off_c, 0, 82, 65
1, 513218, Control_c, 0, 64, 66
1, 513254, Note_off_c, 0, 58, 59
1, 513331, Note_on_c, 0, 70, 67
1, 513351, Control_c, 0, 64, 66
1, 513366, Control_c, 0, 64, 64
1, 513381, Control_c, 0, 64, 62
1, 513392, Note_off_c, 0, 70, 60
1, 513397, Control_c, 0, 64, 59
1, 513412, Control_c, 0, 64, 55
1, 513413, Note_on_c, 0, 71, 58
1, 513426, Control_c, 0, 64, 51
1, 513456, Control_c, 0, 64, 54
1, 513467, Note_off_c, 0, 71, 62
1, 513471, Control_c, 0, 64, 56
1, 513485, Note_off_c, 0, 61, 63
1, 513486, Control_c, 0, 64, 59
1, 513495, Note_on_c, 0, 64, 72
1, 513500, Control_c, 0, 64, 62
1, 513506, Note_on_c, 0, 72, 62
1, 513515, Control_c, 0, 64, 63
1, 513530, Control_c, 0, 64, 64
1, 513589, Control_c, 0, 64, 64
1, 513601, Note_on_c, 0, 73, 56
1, 513617, Note_off_c, 0, 72, 61
1, 513626, Note_off_c, 0, 51, 57
1, 513634, Note_on_c, 0, 63, 73
1, 513640, Note_off_c, 0, 64, 63
1, 513680, Note_on_c, 0, 74, 54
1, 513714, Note_off_c, 0, 73, 53
1, 513782, Control_c, 0, 64, 64
1, 513788, Note_on_c, 0, 75, 58
1, 513795, Note_off_c, 0, 63, 65
1, 513797, Control_c, 0, 64, 63
1, 513802, Note_on_c, 0, 61, 77
1, 513804, Note_off_c, 0, 74, 57
1, 513805, Note_on_c, 0, 51, 53
1, 513819, Control_c, 0, 64, 60
1, 513834, Control_c, 0, 64, 54
1, 513849, Control_c, 0, 64, 41
1, 513852, Note_off_c, 0, 75, 63
1, 513863, Control_c, 0, 64, 19
1, 513878, Control_c, 0, 64, 0
1, 513891, Note_on_c, 0, 77, 62
1, 513917, Note_on_c, 0, 60, 55
1, 513963, Note_off_c, 0, 77, 60
1, 513984, Note_on_c, 0, 78, 59
1, 513997, Control_c, 0, 64, 20
1, 514012, Control_c, 0, 64, 41
1, 514013, Note_off_c, 0, 61, 58
1, 514015, Note_off_c, 0, 60, 56
1, 514020, Note_off_c, 0, 78, 62
1, 514026, Control_c, 0, 64, 54
1, 514041, Control_c, 0, 64, 61
1, 514056, Control_c, 0, 64, 62
1, 514069, Note_on_c, 0, 79, 64
1, 514069, Note_on_c, 0, 60, 43
1, 514070, Control_c, 0, 64, 63
1, 514085, Control_c, 0, 64, 64
1, 514100, Control_c, 0, 64, 64
1, 514144, Note_off_c, 0, 79, 56
1, 514155, Note_on_c, 0, 80, 65
1, 514161, Note_off_c, 0, 51, 60
1, 514226, Note_on_c, 0, 82, 66
1, 514236, Note_off_c, 0, 80, 59
1, 514261, Note_off_c, 0, 82, 62
1, 514302, Note_on_c, 0, 84, 70
1, 514317, Note_on_c, 0, 51, 54
1, 514323, Control_c, 0, 64, 64
1, 514338, Control_c, 0, 64, 63
1, 514353, Control_c, 0, 64, 59
1, 514368, Control_c, 0, 64, 49
1, 514383, Control_c, 0, 64, 0
1, 514399, Note_on_c, 0, 85, 60
1, 514442, Note_off_c, 0, 84, 36
1, 514466, Note_off_c, 0, 85, 64
1, 514487, Control_c, 0, 64, 47
1, 514494, Note_on_c, 0, 87, 65
1, 514501, Control_c, 0, 64, 59
1, 514516, Control_c, 0, 64, 61
1, 514531, Control_c, 0, 64, 62
1, 514578, Note_off_c, 0, 87, 61
1, 514582, Note_on_c, 0, 56, 61
1, 514597, Note_on_c, 0, 85, 49
1, 514598, Control_c, 0, 64, 62
1, 514601, Note_off_c, 0, 60, 55
1, 514618, Note_off_c, 0, 85, 62
1, 514628, Control_c, 0, 64, 63
1, 514642, Control_c, 0, 64, 63
1, 514656, Note_on_c, 0, 84, 62
1, 514657, Control_c, 0, 64, 64
1, 514692, Note_off_c, 0, 84, 58
1, 514732, Note_on_c, 0, 82, 55
1, 514761, Control_c, 0, 64, 63
1, 514776, Control_c, 0, 64, 62
1, 514791, Control_c, 0, 64, 58
1, 514805, Control_c, 0, 64, 49
1, 514820, Control_c, 0, 64, 39
1, 514835, Control_c, 0, 64, 36
1, 514848, Note_off_c, 0, 82, 60
1, 514850, Note_on_c, 0, 60, 63
1, 514850, Control_c, 0, 64, 39
1, 514865, Control_c, 0, 64, 43
1, 514880, Control_c, 0, 64, 49
1, 514894, Control_c, 0, 64, 57
1, 514909, Control_c, 0, 64, 62
1, 514924, Control_c, 0, 64, 63
1, 514927, Note_off_c, 0, 56, 48
1, 514939, Control_c, 0, 64, 64
1, 514969, Note_on_c, 0, 68, 59
1, 514983, Control_c, 0, 67, 116
1, 514999, Control_c, 0, 64, 64
1, 514999, Control_c, 0, 67, 96
1, 515014, Control_c, 0, 64, 65
1, 515014, Control_c, 0, 67, 77
1, 515029, Control_c, 0, 64, 65
1, 515029, Control_c, 0, 67, 59
1, 515029, Note_off_c, 0, 68, 63
1, 515043, Note_on_c, 0, 69, 66
1, 515044, Control_c, 0, 64, 66
1, 515044, Control_c, 0, 67, 44
1, 515059, Control_c, 0, 67, 32
1, 515073, Control_c, 0, 64, 66
1, 515073, Control_c, 0, 67, 25
1, 515088, Control_c, 0, 67, 19
1, 515089, Note_off_c, 0, 60, 62
1, 515103, Control_c, 0, 67, 14
1, 515113, Note_on_c, 0, 63, 61
1, 515113, Note_on_c, 0, 70, 59
1, 515114, Note_off_c, 0, 69, 61
1, 515117, Control_c, 0, 67, 10
1, 515132, Control_c, 0, 67, 8
1, 515143, Note_off_c, 0, 51, 54
1, 515143, Note_off_c, 0, 70, 67
1, 515147, Control_c, 0, 67, 0
1, 515187, Note_on_c, 0, 72, 67
1, 515205, Note_off_c, 0, 63, 62
1, 515213, Note_on_c, 0, 61, 65
1, 515221, Control_c, 0, 64, 66
1, 515236, Control_c, 0, 64, 65
1, 515251, Control_c, 0, 64, 65
1, 515265, Control_c, 0, 64, 63
1, 515270, Note_off_c, 0, 72, 62
1, 515277, Note_on_c, 0, 73, 60
1, 515280, Control_c, 0, 64, 60
1, 515295, Control_c, 0, 64, 55
1, 515310, Control_c, 0, 64, 44
1, 515332, Control_c, 0, 64, 22
1, 515347, Control_c, 0, 64, 0
1, 515350, Note_on_c, 0, 59, 69
1, 515356, Note_on_c, 0, 75, 64
1, 515357, Note_off_c, 0, 61, 60
1, 515357, Note_off_c, 0, 73, 61
1, 515362, Note_on_c, 0, 51, 57
1, 515403, Note_off_c, 0, 75, 62
1, 515441, Note_on_c, 0, 77, 62
1, 515501, Note_off_c, 0, 77, 60
1, 515515, Note_on_c, 0, 78, 61
1, 515549, Note_off_c, 0, 78, 60
1, 515590, Note_on_c, 0, 79, 67
1, 515613, Note_on_c, 0, 58, 72
1, 515663, Note_off_c, 0, 59, 49
1, 515679, Note_off_c, 0, 79, 58
1, 515688, Note_on_c, 0, 80, 60
1, 515756, Note_on_c, 0, 82, 65
1, 515762, Note_off_c, 0, 80, 62
1, 515792, Note_off_c, 0, 82, 63
1, 515838, Note_on_c, 0, 56, 69
1, 515840, Note_on_c, 0, 83, 66
1, 515905, Note_off_c, 0, 58, 60
1, 515925, Control_c, 0, 64, 8
1, 515936, Note_on_c, 0, 85, 66
1, 515939, Control_c, 0, 64, 15
1, 515941, Note_off_c, 0, 83, 58
1, 515954, Control_c, 0, 64, 19
1, 515969, Control_c, 0, 64, 23
1, 515984, Control_c, 0, 64, 25
1, 515999, Control_c, 0, 64, 27
1, 516008, Note_on_c, 0, 87, 74
1, 516013, Control_c, 0, 64, 28
1, 516018, Note_off_c, 0, 51, 59
1, 516028, Control_c, 0, 64, 29
1, 516031, Note_off_c, 0, 85, 58
1, 516043, Control_c, 0, 64, 31
1, 516065, Control_c, 0, 64, 32
1, 516069, Note_off_c, 0, 87, 63
1, 516080, Control_c, 0, 64, 34
1, 516095, Control_c, 0, 64, 35
1, 516096, Note_on_c, 0, 55, 57
1, 516103, Note_on_c, 0, 89, 77
1, 516110, Control_c, 0, 64, 36
1, 516123, Note_off_c, 0, 56, 59
1, 516125, Control_c, 0, 64, 38
1, 516139, Control_c, 0, 64, 39
1, 516154, Control_c, 0, 64, 40
1, 516169, Control_c, 0, 64, 41
1, 516184, Control_c, 0, 64, 42
1, 516191, Note_on_c, 0, 91, 70
1, 516196, Note_off_c, 0, 89, 64
1, 516199, Control_c, 0, 64, 44
1, 516214, Control_c, 0, 64, 45
1, 516228, Control_c, 0, 64, 48
1, 516243, Control_c, 0, 64, 49
1, 516258, Control_c, 0, 64, 52
1, 516259, Note_on_c, 0, 92, 75
1, 516272, Control_c, 0, 64, 55
1, 516287, Control_c, 0, 64, 59
1, 516302, Note_off_c, 0, 91, 49
1, 516302, Control_c, 0, 64, 62
1, 516317, Control_c, 0, 64, 64
1, 516320, Note_off_c, 0, 92, 66
1, 516332, Control_c, 0, 64, 63
1, 516344, Note_on_c, 0, 53, 62
1, 516346, Note_off_c, 0, 55, 56
1, 516347, Control_c, 0, 64, 60
1, 516350, Note_on_c, 0, 93, 79
1, 516362, Control_c, 0, 64, 47
1, 516377, Control_c, 0, 64, 0
1, 516407, Control_c, 0, 64, 23
1, 516421, Control_c, 0, 64, 51
1, 516436, Control_c, 0, 64, 61
1, 516447, Note_on_c, 0, 94, 76
1, 516451, Control_c, 0, 64, 66
1, 516455, Note_off_c, 0, 93, 59
1, 516466, Control_c, 0, 64, 69
1, 516481, Control_c, 0, 64, 71
1, 516496, Control_c, 0, 64, 71
1, 516516, Note_on_c, 0, 95, 68
1, 516539, Note_off_c, 0, 94, 64
1, 516570, Note_off_c, 0, 95, 65
1, 516572, Note_on_c, 0, 65, 51
1, 516586, Note_on_c, 0, 56, 46
1, 516609, Note_on_c, 0, 96, 80
1, 516624, Note_off_c, 0, 53, 56
1, 516660, Control_c, 0, 64, 71
1, 516664, Note_off_c, 0, 65, 61
1, 516675, Note_off_c, 0, 56, 57
1, 516682, Note_on_c, 0, 97, 75
1, 516721, Note_off_c, 0, 96, 48
1, 516749, Control_c, 0, 64, 70
1, 516749, Control_c, 0, 67, 13
1, 516761, Note_on_c, 0, 98, 61
1, 516763, Control_c, 0, 64, 69
1, 516763, Control_c, 0, 67, 23
1, 516778, Control_c, 0, 64, 65
1, 516778, Control_c, 0, 67, 33
1, 516793, Control_c, 0, 64, 56
1, 516793, Control_c, 0, 67, 41
1, 516815, Control_c, 0, 64, 0
1, 516815, Control_c, 0, 67, 50
1, 516818, Note_off_c, 0, 97, 39
1, 516830, Control_c, 0, 67, 59
1, 516844, Control_c, 0, 67, 66
1, 516859, Control_c, 0, 67, 70
1, 516874, Control_c, 0, 67, 75
1, 516882, Note_on_c, 0, 63, 52
1, 516889, Control_c, 0, 67, 78
1, 516892, Note_on_c, 0, 99, 71
1, 516896, Note_off_c, 0, 98, 65
1, 516898, Note_on_c, 0, 51, 44
1, 516904, Control_c, 0, 67, 82
1, 516919, Control_c, 0, 64, 35
1, 516919, Control_c, 0, 67, 84
1, 516934, Control_c, 0, 64, 62
1, 516949, Control_c, 0, 64, 68
1, 516963, Control_c, 0, 64, 72
1, 516978, Control_c, 0, 64, 75
1, 516982, Note_off_c, 0, 63, 62
1, 516993, Control_c, 0, 64, 79
1, 516995, Note_off_c, 0, 99, 64
1, 517007, Note_off_c, 0, 51, 61
1, 517008, Control_c, 0, 64, 84
1, 517023, Control_c, 0, 64, 88
1, 517037, Control_c, 0, 64, 90
1, 517037, Control_c, 0, 67, 83
1, 517052, Control_c, 0, 64, 91
1, 517052, Control_c, 0, 67, 83
1, 517067, Control_c, 0, 67, 82
1, 517082, Control_c, 0, 67, 82
1, 517111, Control_c, 0, 67, 81
1, 517141, Control_c, 0, 67, 81
1, 517156, Control_c, 0, 67, 80
1, 517170, Control_c, 0, 67, 80
1, 517185, Control_c, 0, 67, 79
1, 517200, Control_c, 0, 67, 78
1, 517215, Control_c, 0, 67, 77
1, 517230, Control_c, 0, 67, 77
1, 517244, Control_c, 0, 67, 76
1, 517259, Control_c, 0, 64, 90
1, 517259, Control_c, 0, 67, 75
1, 517274, Control_c, 0, 67, 74
1, 517286, Note_on_c, 0, 39, 53
1, 517289, Control_c, 0, 67, 73
1, 517294, Note_on_c, 0, 63, 70
1, 517303, Control_c, 0, 64, 90
1, 517303, Control_c, 0, 67, 70
1, 517318, Control_c, 0, 64, 89
1, 517318, Control_c, 0, 67, 65
1, 517333, Control_c, 0, 64, 88
1, 517333, Control_c, 0, 67, 60
1, 517345, Note_off_c, 0, 63, 58
1, 517348, Control_c, 0, 64, 88
1, 517348, Control_c, 0, 67, 52
1, 517363, Control_c, 0, 64, 87
1, 517363, Control_c, 0, 67, 44
1, 517376, Note_on_c, 0, 41, 63
1, 517378, Control_c, 0, 64, 86
1, 517378, Control_c, 0, 67, 34
1, 517378, Note_off_c, 0, 39, 59
1, 517393, Control_c, 0, 64, 85
1, 517393, Control_c, 0, 67, 23
1, 517396, Note_on_c, 0, 65, 60
1, 517408, Control_c, 0, 64, 84
1, 517408, Control_c, 0, 67, 11
1, 517418, Note_off_c, 0, 41, 63
1, 517423, Control_c, 0, 64, 83
1, 517423, Control_c, 0, 67, 0
1, 517438, Control_c, 0, 64, 82
1, 517453, Control_c, 0, 64, 81
1, 517455, Note_on_c, 0, 43, 69
1, 517467, Control_c, 0, 64, 79
1, 517477, Note_on_c, 0, 67, 70
1, 517482, Control_c, 0, 64, 78
1, 517483, Note_off_c, 0, 65, 63
1, 517487, Note_off_c, 0, 43, 59
1, 517497, Control_c, 0, 64, 75
1, 517512, Control_c, 0, 64, 72
1, 517527, Control_c, 0, 64, 69
1, 517528, Note_on_c, 0, 44, 67
1, 517542, Control_c, 0, 64, 65
1, 517545, Note_on_c, 0, 68, 82
1, 517564, Control_c, 0, 64, 62
1, 517579, Control_c, 0, 64, 53
1, 517593, Control_c, 0, 64, 43
1, 517602, Note_off_c, 0, 67, 52
1, 517608, Control_c, 0, 64, 35
1, 517613, Note_on_c, 0, 46, 81
1, 517623, Control_c, 0, 64, 28
1, 517634, Note_on_c, 0, 70, 84
1, 517638, Control_c, 0, 64, 22
1, 517650, Note_off_c, 0, 44, 62
1, 517653, Control_c, 0, 64, 18
1, 517658, Note_off_c, 0, 68, 64
1, 517667, Control_c, 0, 64, 0
1, 517672, Note_off_c, 0, 70, 66
1, 517682, Note_off_c, 0, 46, 63
1, 517685, Note_on_c, 0, 48, 75
1, 517706, Note_on_c, 0, 72, 79
1, 517734, Note_off_c, 0, 48, 55
1, 517762, Note_on_c, 0, 50, 79
1, 517777, Note_on_c, 0, 74, 83
1, 517787, Note_off_c, 0, 72, 67
1, 517831, Control_c, 0, 64, 8
1, 517841, Note_on_c, 0, 51, 84
1, 517845, Control_c, 0, 64, 31
1, 517849, Note_on_c, 0, 75, 88
1, 517860, Control_c, 0, 64, 43
1, 517874, Note_off_c, 0, 50, 62
1, 517874, Note_off_c, 0, 74, 61
1, 517875, Control_c, 0, 64, 48
1, 517890, Control_c, 0, 64, 52
1, 517905, Control_c, 0, 64, 56
1, 517911, Note_off_c, 0, 75, 67
1, 517919, Note_on_c, 0, 53, 86
1, 517919, Control_c, 0, 64, 59
1, 517926, Note_on_c, 0, 77, 90
1, 517934, Control_c, 0, 64, 60
1, 517963, Note_off_c, 0, 51, 58
1, 517979, Control_c, 0, 64, 59
1, 517993, Control_c, 0, 64, 54
1, 518002, Note_off_c, 0, 53, 63
1, 518005, Note_on_c, 0, 79, 87
1, 518006, Note_on_c, 0, 55, 83
1, 518008, Control_c, 0, 64, 0
1, 518025, Note_off_c, 0, 77, 62
1, 518068, Note_on_c, 0, 80, 84
1, 518082, Note_off_c, 0, 55, 38
1, 518085, Note_on_c, 0, 56, 81
1, 518085, Note_on_c, 0, 81, 84
1, 518090, Note_off_c, 0, 80, 52
1, 518140, Note_off_c, 0, 79, 42
1, 518144, Note_on_c, 0, 82, 85
1, 518162, Note_on_c, 0, 57, 79
1, 518162, Note_off_c, 0, 81, 63
1, 518175, Note_off_c, 0, 82, 66
1, 518188, Control_c, 0, 64, 56
1, 518200, Note_off_c, 0, 56, 61
1, 518203, Control_c, 0, 64, 64
1, 518206, Note_on_c, 0, 84, 93
1, 518217, Control_c, 0, 64, 67
1, 518219, Note_off_c, 0, 57, 63
1, 518230, Note_on_c, 0, 60, 77
1, 518232, Control_c, 0, 64, 69
1, 518247, Control_c, 0, 64, 70
1, 518260, Note_off_c, 0, 60, 62
1, 518261, Control_c, 0, 64, 72
1, 518276, Control_c, 0, 64, 74
1, 518290, Note_on_c, 0, 86, 91
1, 518291, Control_c, 0, 64, 75
1, 518299, Note_off_c, 0, 84, 63
1, 518303, Note_on_c, 0, 62, 86
1, 518306, Control_c, 0, 64, 75
1, 518364, Note_off_c, 0, 62, 63
1, 518373, Control_c, 0, 64, 76
1, 518389, Note_on_c, 0, 64, 82
1, 518417, Note_on_c, 0, 63, 32
1, 518417, Control_c, 0, 64, 76
1, 518418, Note_off_c, 0, 63, 43
1, 518418, Note_off_c, 0, 86, 66
1, 518431, Note_off_c, 0, 64, 62
1, 518432, Control_c, 0, 64, 77
1, 518447, Control_c, 0, 64, 78
1, 518461, Control_c, 0, 64, 80
1, 518476, Control_c, 0, 64, 82
1, 518491, Control_c, 0, 64, 84
1, 518506, Control_c, 0, 64, 84
1, 518535, Control_c, 0, 64, 75
1, 518540, Note_on_c, 0, 63, 96
1, 518541, Note_on_c, 0, 51, 90
1, 518550, Control_c, 0, 64, 62
1, 518565, Control_c, 0, 64, 0
1, 518571, Note_on_c, 0, 65, 75
1, 518641, Note_on_c, 0, 67, 80
1, 518669, Note_off_c, 0, 63, 65
1, 518670, Note_off_c, 0, 65, 57
1, 518673, Note_off_c, 0, 51, 61
1, 518724, Note_on_c, 0, 68, 79
1, 518737, Note_off_c, 0, 67, 56
1, 518797, Note_off_c, 0, 68, 61
1, 518828, Note_on_c, 0, 69, 75
1, 518844, Note_on_c, 0, 61, 95
1, 518846, Note_on_c, 0, 49, 88
1, 518909, Note_off_c, 0, 69, 63
1, 518916, Note_on_c, 0, 70, 72
1, 518950, Control_c, 0, 64, 40
1, 518965, Control_c, 0, 64, 61
1, 518968, Note_off_c, 0, 70, 63
1, 518980, Control_c, 0, 64, 68
1, 518996, Control_c, 0, 64, 74
1, 519003, Note_on_c, 0, 72, 74
1, 519011, Control_c, 0, 64, 78
1, 519026, Control_c, 0, 64, 81
1, 519040, Control_c, 0, 64, 81
1, 519097, Note_on_c, 0, 73, 76
1, 519108, Note_off_c, 0, 72, 63
1, 519166, Note_on_c, 0, 75, 81
1, 519176, Note_off_c, 0, 61, 60
1, 519196, Control_c, 0, 64, 82
1, 519198, Note_off_c, 0, 73, 61
1, 519205, Note_off_c, 0, 49, 56
1, 519217, Note_off_c, 0, 75, 65
1, 519240, Control_c, 0, 64, 82
1, 519247, Note_on_c, 0, 76, 69
1, 519255, Control_c, 0, 64, 84
1, 519270, Control_c, 0, 64, 86
1, 519284, Control_c, 0, 64, 88
1, 519299, Control_c, 0, 64, 88
1, 519329, Control_c, 0, 64, 86
1, 519339, Note_off_c, 0, 76, 59
1, 519344, Control_c, 0, 64, 72
1, 519345, Note_on_c, 0, 77, 64
1, 519351, Note_on_c, 0, 79, 49
1, 519356, Note_on_c, 0, 58, 95
1, 519357, Note_on_c, 0, 46, 90
1, 519358, Control_c, 0, 64, 50
1, 519373, Control_c, 0, 64, 0
1, 519399, Note_off_c, 0, 79, 57
1, 519432, Note_on_c, 0, 79, 53
1, 519441, Note_off_c, 0, 77, 60
1, 519465, Note_off_c, 0, 79, 62
1, 519475, Note_off_c, 0, 58, 62
1, 519488, Note_off_c, 0, 46, 61
1, 519507, Note_on_c, 0, 79, 80
1, 519596, Control_c, 0, 64, 63
1, 519602, Note_on_c, 0, 53, 90
1, 519606, Note_on_c, 0, 41, 86
1, 519610, Control_c, 0, 64, 59
1, 519617, Note_on_c, 0, 81, 62
1, 519624, Note_off_c, 0, 79, 55
1, 519625, Control_c, 0, 64, 0
1, 519652, Note_off_c, 0, 81, 58
1, 519664, Note_on_c, 0, 83, 69
1, 519689, Note_off_c, 0, 53, 63
1, 519705, Note_off_c, 0, 41, 64
1, 519728, Note_off_c, 0, 83, 62
1, 519758, Note_on_c, 0, 81, 80
1, 519838, Note_on_c, 0, 52, 95
1, 519840, Note_on_c, 0, 40, 90
1, 519846, Note_on_c, 0, 82, 85
1, 519856, Control_c, 0, 64, 59
1, 519870, Control_c, 0, 64, 76
1, 519874, Note_off_c, 0, 81, 59
1, 519885, Control_c, 0, 64, 79
1, 519886, Note_off_c, 0, 52, 68
1, 519894, Note_off_c, 0, 40, 66
1, 519924, Note_on_c, 0, 84, 67
1, 519946, Note_on_c, 0, 83, 48
1, 519953, Note_off_c, 0, 82, 64
1, 519977, Note_off_c, 0, 83, 34
1, 519989, Note_on_c, 0, 85, 72
1, 519994, Note_off_c, 0, 84, 63
1, 520010, Note_off_c, 0, 85, 71
1, 520019, Control_c, 0, 64, 78
1, 520028, Note_on_c, 0, 51, 85
1, 520034, Control_c, 0, 64, 71
1, 520034, Note_on_c, 0, 39, 78
1, 520048, Control_c, 0, 64, 59
1, 520049, Note_off_c, 0, 51, 71
1, 520063, Control_c, 0, 64, 0
1, 520064, Note_off_c, 0, 39, 65
1, 520104, Note_on_c, 0, 49, 92
1, 520109, Note_on_c, 0, 37, 80
1, 520123, Note_on_c, 0, 63, 78
1, 520170, Note_on_c, 0, 39, 3
1, 520171, Note_off_c, 0, 39, 127
1, 520201, Note_on_c, 0, 65, 62
1, 520207, Note_off_c, 0, 63, 58
1, 520258, Note_on_c, 0, 66, 73
1, 520258, Note_off_c, 0, 49, 57
1, 520260, Note_off_c, 0, 37, 64
1, 520284, Note_off_c, 0, 65, 62
1, 520316, Note_off_c, 0, 66, 65
1, 520357, Note_on_c, 0, 48, 94
1, 520359, Note_on_c, 0, 36, 93
1, 520361, Note_on_c, 0, 67, 74
1, 520442, Note_on_c, 0, 68, 77
1, 520450, Note_off_c, 0, 67, 62
1, 520477, Control_c, 0, 64, 22
1, 520492, Control_c, 0, 64, 61
1, 520506, Control_c, 0, 64, 67
1, 520521, Note_on_c, 0, 70, 77
1, 520521, Control_c, 0, 64, 68
1, 520536, Control_c, 0, 64, 69
1, 520559, Control_c, 0, 64, 70
1, 520564, Note_off_c, 0, 68, 63
1, 520573, Control_c, 0, 64, 71
1, 520582, Note_off_c, 0, 70, 64
1, 520589, Control_c, 0, 64, 72
1, 520604, Control_c, 0, 64, 73
1, 520612, Note_on_c, 0, 72, 89
1, 520618, Note_off_c, 0, 48, 61
1, 520618, Control_c, 0, 64, 73
1, 520633, Control_c, 0, 64, 74
1, 520651, Note_off_c, 0, 36, 63
1, 520675, Poly_aftertouch_c, 0, 38, 0
1, 520689, Note_on_c, 0, 73, 84
1, 520717, Note_off_c, 0, 72, 65
1, 520764, Note_on_c, 0, 74, 69
1, 520767, Control_c, 0, 64, 74
1, 520821, Note_on_c, 0, 44, 92
1, 520826, Control_c, 0, 64, 72
1, 520838, Note_on_c, 0, 75, 84
1, 520841, Control_c, 0, 64, 63
1, 520853, Note_off_c, 0, 73, 52
1, 520856, Control_c, 0, 64, 0
1, 520868, Note_off_c, 0, 74, 65
1, 520877, Note_off_c, 0, 44, 64
1, 520883, Note_off_c, 0, 75, 66
1, 520917, Note_on_c, 0, 77, 89
1, 520934, Note_on_c, 0, 39, 72
1, 520993, Note_off_c, 0, 39, 63
1, 521000, Note_on_c, 0, 79, 84
1, 521018, Note_off_c, 0, 77, 56
1, 521051, Note_on_c, 0, 36, 86
1, 521065, Note_on_c, 0, 80, 90
1, 521077, Control_c, 0, 64, 53
1, 521092, Control_c, 0, 64, 67
1, 521107, Note_off_c, 0, 79, 56
1, 521108, Control_c, 0, 64, 65
1, 521123, Control_c, 0, 64, 54
1, 521125, Note_off_c, 0, 36, 65
1, 521133, Note_on_c, 0, 82, 83
1, 521137, Control_c, 0, 64, 0
1, 521158, Note_off_c, 0, 80, 63
1, 521181, Note_off_c, 0, 82, 62
1, 521202, Note_on_c, 0, 83, 84
1, 521284, Note_on_c, 0, 84, 90
1, 521289, Note_on_c, 0, 32, 93
1, 521337, Control_c, 0, 64, 29
1, 521346, Note_off_c, 0, 32, 62
1, 521352, Control_c, 0, 64, 39
1, 521367, Control_c, 0, 64, 17
1, 521373, Note_on_c, 0, 85, 80
1, 521383, Control_c, 0, 64, 0
1, 521396, Note_off_c, 0, 84, 58
1, 521426, Note_off_c, 0, 83, 45
1, 521460, Note_on_c, 0, 86, 67
1, 521470, Note_off_c, 0, 85, 63
1, 521487, Note_off_c, 0, 86, 67
1, 521531, Control_c, 0, 64, 8
1, 521546, Control_c, 0, 64, 29
1, 521560, Control_c, 0, 64, 45
1, 521569, Note_on_c, 0, 88, 93
1, 521570, Note_on_c, 0, 52, 102
1, 521574, Note_on_c, 0, 40, 87
1, 521575, Control_c, 0, 64, 55
1, 521589, Note_on_c, 0, 41, 65
1, 521590, Control_c, 0, 64, 62
1, 521605, Control_c, 0, 64, 65
1, 521620, Control_c, 0, 64, 69
1, 521631, Note_off_c, 0, 41, 0
1, 521635, Control_c, 0, 64, 73
1, 521641, Note_on_c, 0, 42, 18
1, 521650, Control_c, 0, 64, 77
1, 521664, Control_c, 0, 64, 81
1, 521668, Poly_aftertouch_c, 0, 41, 127
1, 521679, Control_c, 0, 64, 84
1, 521686, Note_on_c, 0, 76, 82
1, 521694, Control_c, 0, 64, 86
1, 521709, Control_c, 0, 64, 89
1, 521721, Note_off_c, 0, 88, 57
1, 521724, Control_c, 0, 64, 92
1, 521739, Control_c, 0, 64, 96
1, 521753, Control_c, 0, 64, 101
1, 521768, Control_c, 0, 64, 106
1, 521769, Note_off_c, 0, 40, 63
1, 521775, Note_off_c, 0, 52, 62
1, 521783, Control_c, 0, 64, 112
1, 521791, Note_off_c, 0, 76, 65
1, 521794, Note_off_c, 0, 42, 23
1, 521798, Control_c, 0, 64, 121
1, 521799, Poly_aftertouch_c, 0, 41, 0
1, 521806, Note_on_c, 0, 88, 83
1, 521812, Control_c, 0, 64, 127
1, 521836, Note_off_c, 0, 88, 62
1, 521916, Control_c, 0, 64, 92
1, 521921, Note_on_c, 0, 42, 83
1, 521924, Note_on_c, 0, 54, 96
1, 521924, Note_on_c, 0, 90, 91
1, 521931, Control_c, 0, 64, 67
1, 521946, Control_c, 0, 64, 44
1, 521960, Control_c, 0, 64, 0
1, 521975, Control_c, 0, 64, 33
1, 521990, Control_c, 0, 64, 55
1, 522004, Control_c, 0, 64, 65
1, 522013, Note_on_c, 0, 78, 84
1, 522019, Control_c, 0, 64, 71
1, 522029, Note_off_c, 0, 90, 62
1, 522034, Control_c, 0, 64, 77
1, 522049, Control_c, 0, 64, 81
1, 522072, Control_c, 0, 64, 82
1, 522086, Control_c, 0, 64, 83
1, 522101, Control_c, 0, 64, 84
1, 522112, Note_on_c, 0, 90, 84
1, 522116, Control_c, 0, 64, 85
1, 522121, Note_off_c, 0, 42, 61
1, 522131, Control_c, 0, 64, 85
1, 522135, Note_off_c, 0, 78, 59
1, 522138, Note_off_c, 0, 54, 59
1, 522144, Note_off_c, 0, 90, 64
1, 522146, Control_c, 0, 64, 87
1, 522160, Control_c, 0, 64, 89
1, 522175, Control_c, 0, 64, 91
1, 522206, Control_c, 0, 64, 90
1, 522215, Note_on_c, 0, 92, 104
1, 522221, Note_on_c, 0, 56, 92
1, 522221, Control_c, 0, 64, 75
1, 522225, Note_on_c, 0, 44, 86
1, 522235, Control_c, 0, 64, 59
1, 522250, Control_c, 0, 64, 0
1, 522295, Control_c, 0, 64, 42
1, 522308, Note_on_c, 0, 80, 86
1, 522309, Control_c, 0, 64, 63
1, 522314, Note_off_c, 0, 92, 61
1, 522324, Control_c, 0, 64, 72
1, 522339, Control_c, 0, 64, 80
1, 522354, Control_c, 0, 64, 87
1, 522369, Control_c, 0, 64, 93
1, 522378, Note_off_c, 0, 56, 60
1, 522383, Control_c, 0, 64, 105
1, 522387, Note_off_c, 0, 80, 63
1, 522396, Note_on_c, 0, 92, 83
1, 522398, Control_c, 0, 64, 127
1, 522404, Note_off_c, 0, 44, 63
1, 522446, Note_off_c, 0, 92, 66
1, 522457, Control_c, 0, 64, 93
1, 522467, Poly_aftertouch_c, 0, 90, 127
1, 522469, Note_on_c, 0, 54, 93
1, 522472, Control_c, 0, 64, 65
1, 522473, Note_on_c, 0, 42, 86
1, 522486, Poly_aftertouch_c, 0, 90, 0
1, 522487, Control_c, 0, 64, 0
1, 522496, Note_on_c, 0, 90, 76
1, 522532, Control_c, 0, 64, 34
1, 522547, Control_c, 0, 64, 62
1, 522562, Control_c, 0, 64, 66
1, 522576, Control_c, 0, 64, 67
1, 522583, Note_off_c, 0, 90, 63
1, 522591, Control_c, 0, 64, 67
1, 522600, Note_on_c, 0, 78, 73
1, 522606, Control_c, 0, 64, 69
1, 522610, Note_off_c, 0, 54, 58
1, 522621, Control_c, 0, 64, 72
1, 522633, Note_off_c, 0, 42, 61
1, 522635, Control_c, 0, 64, 79
1, 522637, Note_on_c, 0, 90, 56
1, 522650, Control_c, 0, 64, 89
1, 522661, Note_off_c, 0, 90, 63
1, 522662, Note_off_c, 0, 78, 56
1, 522665, Control_c, 0, 64, 102
1, 522680, Control_c, 0, 64, 127
1, 522698, Poly_aftertouch_c, 0, 81, 0
1, 522724, Control_c, 0, 64, 107
1, 522733, Note_on_c, 0, 88, 95
1, 522735, Note_on_c, 0, 40, 92
1, 522736, Note_on_c, 0, 52, 98
1, 522739, Control_c, 0, 64, 72
1, 522754, Control_c, 0, 64, 8
1, 522769, Control_c, 0, 64, 0
1, 522818, Note_on_c, 0, 76, 81
1, 522827, Note_off_c, 0, 88, 61
1, 522835, Control_c, 0, 64, 57
1, 522850, Control_c, 0, 64, 63
1, 522863, Note_off_c, 0, 52, 63
1, 522865, Control_c, 0, 64, 64
1, 522880, Control_c, 0, 64, 64
1, 522887, Note_off_c, 0, 40, 63
1, 522895, Note_on_c, 0, 88, 77
1, 522908, Note_off_c, 0, 76, 63
1, 522924, Control_c, 0, 64, 65
1, 522939, Control_c, 0, 64, 65
1, 522944, Note_off_c, 0, 88, 63
1, 522954, Control_c, 0, 64, 66
1, 522969, Control_c, 0, 64, 66
1, 523000, Control_c, 0, 64, 65
1, 523014, Control_c, 0, 64, 56
1, 523029, Control_c, 0, 64, 0
1, 523038, Note_on_c, 0, 86, 95
1, 523040, Note_on_c, 0, 74, 90
1, 523044, Note_on_c, 0, 46, 96
1, 523046, Note_on_c, 0, 80, 87
1, 523051, Note_on_c, 0, 34, 79
1, 523118, Control_c, 0, 64, 59
1, 523132, Control_c, 0, 64, 70
1, 523147, Control_c, 0, 64, 77
1, 523155, Note_off_c, 0, 86, 57
1, 523162, Control_c, 0, 64, 78
1, 523182, Note_off_c, 0, 34, 62
1, 523183, Note_off_c, 0, 74, 59
1, 523206, Note_off_c, 0, 46, 60
1, 523235, Note_off_c, 0, 80, 65
1, 523236, Control_c, 0, 64, 79
1, 523383, Control_c, 0, 64, 78
1, 523397, Control_c, 0, 64, 74
1, 523406, Note_on_c, 0, 87, 101
1, 523408, Note_on_c, 0, 39, 74
1, 523411, Note_on_c, 0, 75, 98
1, 523412, Note_on_c, 0, 79, 82
1, 523412, Control_c, 0, 64, 63
1, 523427, Control_c, 0, 64, 0
1, 523501, Control_c, 0, 64, 47
1, 523504, Note_off_c, 0, 39, 63
1, 523516, Control_c, 0, 64, 66
1, 523522, Note_on_c, 0, 43, 71
1, 523531, Control_c, 0, 64, 78
1, 523545, Control_c, 0, 64, 83
1, 523578, Note_off_c, 0, 43, 59
1, 523596, Note_off_c, 0, 87, 61
1, 523608, Note_on_c, 0, 44, 70
1, 523640, Note_off_c, 0, 79, 59
1, 523662, Note_off_c, 0, 75, 61
1, 523686, Control_c, 0, 64, 82
1, 523689, Note_on_c, 0, 46, 81
1, 523701, Control_c, 0, 64, 81
1, 523716, Control_c, 0, 64, 79
1, 523727, Note_off_c, 0, 44, 61
1, 523730, Control_c, 0, 64, 77
1, 523745, Note_off_c, 0, 46, 63
1, 523745, Control_c, 0, 64, 75
1, 523760, Control_c, 0, 64, 74
1, 523763, Note_on_c, 0, 48, 81
1, 523775, Control_c, 0, 64, 72
1, 523791, Control_c, 0, 64, 70
1, 523806, Control_c, 0, 64, 68
1, 523812, Note_off_c, 0, 48, 61
1, 523821, Control_c, 0, 64, 65
1, 523830, Note_on_c, 0, 50, 76
1, 523835, Control_c, 0, 64, 61
1, 523850, Control_c, 0, 64, 51
1, 523865, Control_c, 0, 64, 26
1, 523879, Control_c, 0, 64, 0
1, 523909, Note_on_c, 0, 51, 81
1, 523915, Note_on_c, 0, 63, 87
1, 523938, Note_off_c, 0, 50, 57
1, 523976, Note_off_c, 0, 51, 62
1, 523986, Note_on_c, 0, 55, 77
1, 524004, Note_on_c, 0, 67, 69
1, 524031, Note_off_c, 0, 55, 56
1, 524034, Note_off_c, 0, 63, 61
1, 524057, Note_on_c, 0, 56, 75
1, 524070, Note_on_c, 0, 68, 74
1, 524121, Note_on_c, 0, 58, 82
1, 524130, Note_off_c, 0, 67, 56
1, 524134, Note_on_c, 0, 70, 76
1, 524140, Note_off_c, 0, 56, 57
1, 524160, Note_off_c, 0, 68, 64
1, 524168, Note_off_c, 0, 70, 61
1, 524170, Note_off_c, 0, 58, 64
1, 524203, Note_on_c, 0, 60, 76
1, 524204, Note_on_c, 0, 72, 72
1, 524229, Note_off_c, 0, 60, 63
1, 524269, Note_on_c, 0, 62, 76
1, 524279, Note_on_c, 0, 74, 78
1, 524282, Note_off_c, 0, 72, 64
1, 524365, Note_on_c, 0, 75, 84
1, 524374, Note_on_c, 0, 63, 80
1, 524393, Note_off_c, 0, 74, 57
1, 524407, Note_off_c, 0, 62, 39
1, 524479, Control_c, 0, 67, 14
1, 524494, Control_c, 0, 67, 30
1, 524509, Control_c, 0, 67, 50
1, 524524, Control_c, 0, 67, 69
1, 524539, Control_c, 0, 67, 88
1, 524553, Control_c, 0, 67, 107
1, 524558, Note_off_c, 0, 63, 62
1, 524568, Control_c, 0, 67, 125
1, 524580, Note_off_c, 0, 75, 54
1, 524584, Control_c, 0, 67, 127
1, 524895, Note_on_c, 0, 57, 40
1, 524902, Note_on_c, 0, 72, 50
1, 524966, Note_off_c, 0, 57, 58
1, 525025, Note_off_c, 0, 72, 33
1, 525075, Note_on_c, 0, 58, 48
1, 525084, Note_on_c, 0, 73, 52
1, 525161, Note_on_c, 0, 75, 55
1, 525211, Note_off_c, 0, 73, 47
1, 525241, Note_off_c, 0, 58, 60
1, 525245, Note_off_c, 0, 75, 62
1, 525274, Note_on_c, 0, 77, 43
1, 525333, Note_on_c, 0, 75, 54
1, 525391, Note_off_c, 0, 77, 46
1, 525408, Note_on_c, 0, 73, 65
1, 525421, Note_off_c, 0, 75, 62
1, 525433, Note_on_c, 0, 60, 46
1, 525465, Note_off_c, 0, 73, 62
1, 525473, Note_off_c, 0, 60, 61
1, 525497, Note_on_c, 0, 72, 60
1, 525528, Note_on_c, 0, 61, 57
1, 525566, Note_on_c, 0, 70, 65
1, 525567, Note_off_c, 0, 72, 62
1, 525639, Note_on_c, 0, 72, 55
1, 525652, Note_off_c, 0, 70, 56
1, 525662, Note_off_c, 0, 61, 61
1, 525704, Note_off_c, 0, 72, 64
1, 525705, Note_on_c, 0, 73, 67
1, 525775, Note_on_c, 0, 72, 58
1, 525814, Note_off_c, 0, 73, 60
1, 525850, Note_off_c, 0, 72, 62
1, 525853, Note_on_c, 0, 70, 73
1, 525874, Note_on_c, 0, 62, 51
1, 525917, Note_off_c, 0, 62, 60
1, 525942, Note_on_c, 0, 68, 61
1, 525943, Note_off_c, 0, 70, 60
1, 525972, Note_off_c, 0, 68, 65
1, 525992, Note_on_c, 0, 63, 63
1, 526010, Note_on_c, 0, 74, 39
1, 526011, Note_on_c, 0, 67, 60
1, 526060, Note_off_c, 0, 74, 52
1, 526061, Note_off_c, 0, 67, 58
1, 526067, Control_c, 0, 64, 26
1, 526072, Note_on_c, 0, 70, 67
1, 526082, Control_c, 0, 64, 47
1, 526097, Control_c, 0, 64, 49
1, 526124, Note_off_c, 0, 70, 61
1, 526141, Control_c, 0, 64, 50
1, 526172, Control_c, 0, 64, 49
1, 526173, Note_on_c, 0, 72, 61
1, 526178, Note_off_c, 0, 63, 56
1, 526187, Control_c, 0, 64, 49
1, 526201, Control_c, 0, 64, 48
1, 526216, Control_c, 0, 64, 47
1, 526228, Note_on_c, 0, 73, 68
1, 526231, Note_off_c, 0, 72, 60
1, 526231, Control_c, 0, 64, 46
1, 526246, Control_c, 0, 64, 45
1, 526261, Control_c, 0, 64, 44
1, 526275, Control_c, 0, 64, 44
1, 526299, Note_on_c, 0, 75, 69
1, 526303, Note_off_c, 0, 73, 61
1, 526318, Note_on_c, 0, 61, 60
1, 526335, Control_c, 0, 64, 44
1, 526347, Note_off_c, 0, 61, 62
1, 526348, Note_off_c, 0, 75, 64
1, 526363, Control_c, 0, 64, 45
1, 526371, Note_on_c, 0, 77, 73
1, 526407, Control_c, 0, 64, 43
1, 526422, Control_c, 0, 64, 34
1, 526437, Control_c, 0, 64, 0
1, 526440, Note_on_c, 0, 75, 66
1, 526443, Note_on_c, 0, 60, 61
1, 526479, Note_off_c, 0, 77, 37
1, 526513, Note_off_c, 0, 75, 64
1, 526518, Note_on_c, 0, 84, 73
1, 526578, Control_c, 0, 64, 43
1, 526592, Note_on_c, 0, 82, 69
1, 526593, Control_c, 0, 64, 54
1, 526607, Control_c, 0, 64, 56
1, 526633, Note_off_c, 0, 60, 60
1, 526636, Note_off_c, 0, 84, 59
1, 526675, Note_on_c, 0, 80, 70
1, 526696, Control_c, 0, 64, 55
1, 526709, Note_off_c, 0, 82, 58
1, 526740, Note_on_c, 0, 79, 71
1, 526748, Note_off_c, 0, 80, 62
1, 526753, Note_on_c, 0, 61, 59
1, 526758, Note_on_c, 0, 68, 59
1, 526784, Note_off_c, 0, 68, 63
1, 526789, Note_off_c, 0, 61, 59
1, 526792, Note_off_c, 0, 79, 62
1, 526800, Control_c, 0, 64, 56
1, 526815, Control_c, 0, 64, 56
1, 526824, Note_on_c, 0, 77, 71
1, 526845, Control_c, 0, 64, 53
1, 526860, Control_c, 0, 64, 45
1, 526872, Note_on_c, 0, 60, 65
1, 526872, Note_on_c, 0, 68, 62
1, 526874, Control_c, 0, 64, 0
1, 526896, Note_on_c, 0, 75, 70
1, 526901, Note_off_c, 0, 77, 60
1, 526954, Note_on_c, 0, 77, 55
1, 526956, Note_off_c, 0, 75, 64
1, 526959, Note_off_c, 0, 68, 63
1, 526994, Control_c, 0, 64, 28
1, 527009, Control_c, 0, 64, 39
1, 527009, Note_off_c, 0, 60, 63
1, 527023, Control_c, 0, 64, 41
1, 527035, Note_on_c, 0, 74, 61
1, 527038, Control_c, 0, 64, 41
1, 527053, Control_c, 0, 64, 42
1, 527068, Control_c, 0, 64, 46
1, 527076, Note_off_c, 0, 77, 56
1, 527079, Note_on_c, 0, 75, 65
1, 527083, Control_c, 0, 64, 52
1, 527097, Control_c, 0, 64, 57
1, 527105, Note_off_c, 0, 74, 38
1, 527112, Control_c, 0, 64, 59
1, 527117, Note_off_c, 0, 75, 64
1, 527127, Control_c, 0, 64, 60
1, 527155, Note_on_c, 0, 72, 75
1, 527178, Note_on_c, 0, 58, 61
1, 527197, Note_on_c, 0, 49, 30
1, 527197, Note_on_c, 0, 51, 37
1, 527206, Note_off_c, 0, 58, 66
1, 527214, Note_off_c, 0, 72, 64
1, 527225, Note_on_c, 0, 70, 61
1, 527225, Note_off_c, 0, 51, 57
1, 527231, Note_off_c, 0, 49, 46
1, 527275, Control_c, 0, 64, 58
1, 527290, Control_c, 0, 64, 41
1, 527291, Note_off_c, 0, 70, 63
1, 527302, Note_on_c, 0, 68, 78
1, 527312, Control_c, 0, 64, 0
1, 527316, Note_on_c, 0, 48, 65
1, 527326, Note_on_c, 0, 51, 55
1, 527334, Note_on_c, 0, 56, 42
1, 527374, Note_on_c, 0, 70, 70
1, 527380, Note_off_c, 0, 68, 55
1, 527414, Note_off_c, 0, 56, 62
1, 527416, Control_c, 0, 64, 46
1, 527430, Control_c, 0, 64, 57
1, 527438, Note_off_c, 0, 51, 61
1, 527440, Note_off_c, 0, 48, 64
1, 527445, Note_off_c, 0, 70, 55
1, 527445, Control_c, 0, 64, 59
1, 527466, Note_on_c, 0, 67, 63
1, 527504, Control_c, 0, 64, 60
1, 527519, Control_c, 0, 64, 61
1, 527524, Note_on_c, 0, 68, 70
1, 527534, Control_c, 0, 64, 62
1, 527561, Note_off_c, 0, 67, 50
1, 527579, Control_c, 0, 64, 62
1, 527617, Note_on_c, 0, 70, 66
1, 527634, Note_on_c, 0, 42, 52
1, 527668, Control_c, 0, 64, 63
1, 527674, Note_off_c, 0, 42, 64
1, 527683, Control_c, 0, 64, 64
1, 527690, Note_on_c, 0, 72, 68
1, 527697, Control_c, 0, 64, 64
1, 527707, Note_off_c, 0, 68, 38
1, 527712, Control_c, 0, 64, 65
1, 527725, Note_off_c, 0, 70, 60
1, 527742, Control_c, 0, 64, 64
1, 527743, Note_off_c, 0, 72, 63
1, 527756, Control_c, 0, 64, 56
1, 527772, Control_c, 0, 64, 0
1, 527797, Note_on_c, 0, 37, 62
1, 527800, Note_on_c, 0, 72, 71
1, 527802, Control_c, 0, 67, 110
1, 527817, Control_c, 0, 67, 88
1, 527832, Control_c, 0, 67, 64
1, 527847, Control_c, 0, 64, 50
1, 527847, Control_c, 0, 67, 49
1, 527862, Control_c, 0, 64, 65
1, 527862, Control_c, 0, 67, 40
1, 527877, Control_c, 0, 64, 69
1, 527877, Control_c, 0, 67, 38
1, 527879, Note_off_c, 0, 72, 61
1, 527889, Note_on_c, 0, 70, 74
1, 527892, Control_c, 0, 64, 71
1, 527906, Control_c, 0, 64, 72
1, 527906, Control_c, 0, 67, 40
1, 527915, Note_off_c, 0, 37, 65
1, 527921, Control_c, 0, 67, 42
1, 527936, Control_c, 0, 67, 44
1, 527943, Note_off_c, 0, 70, 64
1, 527951, Control_c, 0, 67, 47
1, 527966, Control_c, 0, 67, 49
1, 527981, Control_c, 0, 67, 53
1, 527982, Note_on_c, 0, 72, 73
1, 527995, Control_c, 0, 67, 57
1, 528010, Control_c, 0, 67, 63
1, 528025, Control_c, 0, 67, 70
1, 528047, Control_c, 0, 64, 71
1, 528047, Control_c, 0, 67, 79
1, 528061, Note_on_c, 0, 73, 72
1, 528061, Control_c, 0, 64, 71
1, 528061, Control_c, 0, 67, 85
1, 528075, Note_off_c, 0, 72, 59
1, 528076, Control_c, 0, 64, 70
1, 528076, Control_c, 0, 67, 89
1, 528091, Control_c, 0, 64, 69
1, 528091, Control_c, 0, 67, 93
1, 528104, Note_on_c, 0, 49, 51
1, 528104, Note_on_c, 0, 58, 56
1, 528106, Control_c, 0, 67, 97
1, 528121, Control_c, 0, 64, 69
1, 528121, Control_c, 0, 67, 102
1, 528130, Note_on_c, 0, 75, 71
1, 528135, Note_off_c, 0, 49, 63
1, 528136, Control_c, 0, 67, 108
1, 528140, Note_off_c, 0, 58, 59
1, 528151, Control_c, 0, 64, 68
1, 528151, Control_c, 0, 67, 115
1, 528166, Control_c, 0, 64, 66
1, 528166, Control_c, 0, 67, 122
1, 528167, Note_off_c, 0, 73, 61
1, 528180, Control_c, 0, 64, 61
1, 528180, Control_c, 0, 67, 127
1, 528195, Control_c, 0, 64, 0
1, 528200, Note_on_c, 0, 77, 69
1, 528230, Note_off_c, 0, 75, 61
1, 528245, Note_on_c, 0, 41, 72
1, 528267, Note_on_c, 0, 78, 71
1, 528285, Note_off_c, 0, 77, 62
1, 528290, Note_off_c, 0, 78, 70
1, 528299, Control_c, 0, 64, 59
1, 528314, Control_c, 0, 64, 66
1, 528327, Poly_aftertouch_c, 0, 77, 0
1, 528328, Control_c, 0, 64, 67
1, 528336, Note_on_c, 0, 77, 66
1, 528338, Note_off_c, 0, 41, 65
1, 528412, Note_off_c, 0, 77, 61
1, 528419, Note_on_c, 0, 81, 68
1, 528473, Note_off_c, 0, 81, 54
1, 528477, Note_on_c, 0, 82, 75
1, 528501, Note_off_c, 0, 82, 66
1, 528506, Control_c, 0, 64, 66
1, 528534, Note_on_c, 0, 61, 62
1, 528542, Note_on_c, 0, 84, 76
1, 528545, Note_on_c, 0, 53, 47
1, 528561, Note_on_c, 0, 58, 26
1, 528571, Note_off_c, 0, 61, 59
1, 528581, Note_off_c, 0, 53, 67
1, 528592, Note_off_c, 0, 58, 46
1, 528623, Note_on_c, 0, 85, 71
1, 528625, Note_off_c, 0, 84, 62
1, 528640, Control_c, 0, 64, 66
1, 528655, Control_c, 0, 64, 63
1, 528670, Control_c, 0, 64, 44
1, 528685, Control_c, 0, 64, 0
1, 528701, Note_on_c, 0, 90, 58
1, 528705, Note_on_c, 0, 41, 73
1, 528729, Note_off_c, 0, 90, 65
1, 528732, Note_off_c, 0, 85, 61
1, 528759, Control_c, 0, 64, 52
1, 528774, Note_off_c, 0, 41, 64
1, 528774, Control_c, 0, 64, 63
1, 528782, Note_on_c, 0, 89, 60
1, 528795, Control_c, 0, 64, 64
1, 528825, Control_c, 0, 64, 65
1, 528855, Control_c, 0, 64, 65
1, 528864, Note_on_c, 0, 91, 74
1, 528889, Note_off_c, 0, 89, 59
1, 528938, Note_on_c, 0, 93, 71
1, 528946, Note_off_c, 0, 91, 0
1, 528983, Poly_aftertouch_c, 0, 91, 127
1, 528989, Control_c, 0, 64, 65
1, 529020, Note_off_c, 0, 93, 57
1, 529030, Poly_aftertouch_c, 0, 91, 0
1, 529033, Control_c, 0, 64, 64
1, 529036, Note_on_c, 0, 63, 56
1, 529039, Note_on_c, 0, 94, 61
1, 529040, Note_on_c, 0, 57, 29
1, 529061, Note_on_c, 0, 53, 34
1, 529063, Control_c, 0, 64, 64
1, 529071, Note_off_c, 0, 57, 56
1, 529080, Note_off_c, 0, 63, 59
1, 529090, Note_off_c, 0, 53, 58
1, 529093, Note_off_c, 0, 94, 66
1, 529181, Control_c, 0, 64, 61
1, 529189, Note_on_c, 0, 94, 74
1, 529195, Control_c, 0, 64, 52
1, 529207, Note_on_c, 0, 61, 62
1, 529210, Control_c, 0, 64, 0
1, 529216, Note_on_c, 0, 58, 53
1, 529239, Note_off_c, 0, 58, 61
1, 529269, Control_c, 0, 64, 23
1, 529275, Note_off_c, 0, 61, 39
1, 529284, Control_c, 0, 64, 49
1, 529299, Control_c, 0, 64, 61
1, 529314, Note_on_c, 0, 46, 59
1, 529314, Control_c, 0, 64, 65
1, 529329, Control_c, 0, 64, 66
1, 529389, Control_c, 0, 64, 66
1, 529416, Note_on_c, 0, 48, 59
1, 529447, Note_off_c, 0, 46, 38
1, 529481, Note_on_c, 0, 49, 51
1, 529499, Note_off_c, 0, 48, 52
1, 529537, Note_on_c, 0, 51, 64
1, 529560, Control_c, 0, 64, 67
1, 529589, Control_c, 0, 64, 68
1, 529599, Note_off_c, 0, 49, 61
1, 529603, Note_off_c, 0, 51, 61
1, 529604, Control_c, 0, 64, 69
1, 529619, Control_c, 0, 64, 70
1, 529623, Note_on_c, 0, 52, 80
1, 529633, Control_c, 0, 64, 71
1, 529648, Control_c, 0, 64, 73
1, 529653, Note_off_c, 0, 52, 67
1, 529678, Control_c, 0, 64, 72
1, 529692, Control_c, 0, 64, 67
1, 529698, Note_on_c, 0, 53, 70
1, 529707, Control_c, 0, 64, 60
1, 529707, Control_c, 0, 67, 109
1, 529722, Control_c, 0, 64, 29
1, 529722, Control_c, 0, 67, 84
1, 529737, Control_c, 0, 64, 0
1, 529737, Control_c, 0, 67, 58
1, 529741, Note_off_c, 0, 94, 63
1, 529752, Note_on_c, 0, 55, 71
1, 529752, Control_c, 0, 64, 22
1, 529752, Control_c, 0, 67, 35
1, 529767, Control_c, 0, 64, 46
1, 529767, Control_c, 0, 67, 22
1, 529781, Control_c, 0, 64, 59
1, 529781, Control_c, 0, 67, 15
1, 529784, Note_off_c, 0, 53, 61
1, 529796, Control_c, 0, 64, 64
1, 529796, Control_c, 0, 67, 11
1, 529808, Note_off_c, 0, 55, 65
1, 529811, Control_c, 0, 64, 65
1, 529811, Control_c, 0, 67, 8
1, 529826, Control_c, 0, 67, 0
1, 529826, Note_on_c, 0, 57, 81
1, 529866, Note_off_c, 0, 57, 58
1, 529901, Note_on_c, 0, 58, 76
1, 529915, Control_c, 0, 64, 66
1, 529974, Note_on_c, 0, 60, 77
1, 529999, Note_off_c, 0, 58, 49
1, 530041, Note_off_c, 0, 60, 62
1, 530050, Note_on_c, 0, 61, 78
1, 530063, Control_c, 0, 64, 66
1, 530078, Control_c, 0, 64, 67
1, 530106, Note_off_c, 0, 61, 55
1, 530122, Control_c, 0, 64, 66
1, 530134, Note_on_c, 0, 70, 88
1, 530137, Control_c, 0, 64, 61
1, 530139, Note_on_c, 0, 58, 85
1, 530151, Control_c, 0, 64, 39
1, 530168, Control_c, 0, 64, 0
1, 530227, Control_c, 0, 64, 30
1, 530241, Control_c, 0, 64, 60
1, 530250, Note_on_c, 0, 60, 72
1, 530256, Control_c, 0, 64, 66
1, 530257, Note_on_c, 0, 72, 68
1, 530271, Control_c, 0, 64, 68
1, 530286, Control_c, 0, 64, 69
1, 530297, Note_off_c, 0, 58, 56
1, 530309, Control_c, 0, 64, 69
1, 530323, Control_c, 0, 64, 71
1, 530325, Note_off_c, 0, 70, 59
1, 530338, Control_c, 0, 64, 72
1, 530348, Note_off_c, 0, 60, 63
1, 530353, Control_c, 0, 64, 73
1, 530361, Note_off_c, 0, 72, 63
1, 530368, Control_c, 0, 64, 73
1, 530369, Note_on_c, 0, 73, 61
1, 530380, Note_on_c, 0, 61, 62
1, 530382, Control_c, 0, 64, 74
1, 530397, Control_c, 0, 64, 74
1, 530408, Note_off_c, 0, 61, 65
1, 530412, Control_c, 0, 64, 75
1, 530419, Note_off_c, 0, 73, 56
1, 530427, Control_c, 0, 64, 76
1, 530442, Control_c, 0, 64, 77
1, 530471, Control_c, 0, 64, 73
1, 530473, Note_on_c, 0, 60, 89
1, 530479, Note_on_c, 0, 72, 84
1, 530486, Control_c, 0, 64, 63
1, 530501, Control_c, 0, 64, 0
1, 530515, Note_on_c, 0, 71, 32
1, 530551, Note_off_c, 0, 71, 33
1, 530560, Control_c, 0, 64, 43
1, 530574, Control_c, 0, 64, 65
1, 530588, Note_on_c, 0, 73, 76
1, 530589, Control_c, 0, 64, 71
1, 530592, Note_on_c, 0, 61, 75
1, 530604, Control_c, 0, 64, 74
1, 530619, Control_c, 0, 64, 74
1, 530623, Note_off_c, 0, 60, 60
1, 530634, Control_c, 0, 64, 75
1, 530635, Note_off_c, 0, 72, 60
1, 530649, Control_c, 0, 64, 75
1, 530664, Control_c, 0, 64, 76
1, 530679, Control_c, 0, 64, 76
1, 530679, Note_off_c, 0, 61, 61
1, 530684, Note_off_c, 0, 73, 61
1, 530700, Note_on_c, 0, 75, 59
1, 530701, Note_on_c, 0, 63, 59
1, 530764, Note_off_c, 0, 63, 47
1, 530851, Note_on_c, 0, 61, 85
1, 530855, Control_c, 0, 64, 76
1, 530858, Note_on_c, 0, 73, 87
1, 530870, Control_c, 0, 64, 72
1, 530885, Control_c, 0, 64, 64
1, 530893, Note_off_c, 0, 75, 17
1, 530900, Control_c, 0, 64, 18
1, 530914, Control_c, 0, 64, 0
1, 530975, Control_c, 0, 64, 34
1, 530989, Control_c, 0, 64, 64
1, 531004, Control_c, 0, 64, 73
1, 531019, Control_c, 0, 64, 75
1, 531065, Note_on_c, 0, 75, 63
1, 531067, Note_on_c, 0, 63, 61
1, 531071, Control_c, 0, 64, 77
1, 531086, Control_c, 0, 64, 79
1, 531101, Control_c, 0, 64, 80
1, 531102, Note_off_c, 0, 61, 59
1, 531116, Control_c, 0, 64, 81
1, 531122, Note_off_c, 0, 73, 52
1, 531131, Control_c, 0, 64, 82
1, 531133, Note_off_c, 0, 63, 60
1, 531140, Note_off_c, 0, 75, 64
1, 531145, Control_c, 0, 64, 83
1, 531152, Note_on_c, 0, 76, 68
1, 531160, Control_c, 0, 64, 84
1, 531162, Note_on_c, 0, 64, 63
1, 531175, Control_c, 0, 64, 85
1, 531190, Control_c, 0, 64, 85
1, 531204, Control_c, 0, 64, 86
1, 531215, Note_on_c, 0, 75, 64
1, 531235, Note_on_c, 0, 63, 63
1, 531237, Note_off_c, 0, 64, 52
1, 531272, Note_off_c, 0, 63, 61
1, 531287, Note_on_c, 0, 73, 78
1, 531287, Note_on_c, 0, 61, 72
1, 531299, Note_off_c, 0, 76, 63
1, 531319, Note_off_c, 0, 61, 57
1, 531327, Note_off_c, 0, 75, 63
1, 531349, Note_off_c, 0, 73, 64
1, 531355, Note_on_c, 0, 72, 77
1, 531374, Note_on_c, 0, 60, 61
1, 531382, Control_c, 0, 64, 88
1, 531397, Control_c, 0, 64, 92
1, 531408, Note_off_c, 0, 60, 56
1, 531412, Control_c, 0, 64, 94
1, 531427, Control_c, 0, 64, 93
1, 531431, Note_on_c, 0, 58, 83
1, 531435, Note_on_c, 0, 70, 91
1, 531442, Control_c, 0, 64, 80
1, 531457, Control_c, 0, 64, 63
1, 531461, Note_off_c, 0, 72, 63
1, 531471, Control_c, 0, 64, 0
1, 531530, Control_c, 0, 64, 60
1, 531531, Note_on_c, 0, 72, 68
1, 531539, Note_on_c, 0, 60, 70
1, 531545, Control_c, 0, 64, 73
1, 531560, Control_c, 0, 64, 84
1, 531567, Note_off_c, 0, 70, 58
1, 531575, Control_c, 0, 64, 89
1, 531589, Note_off_c, 0, 58, 57
1, 531590, Control_c, 0, 64, 91
1, 531605, Control_c, 0, 64, 95
1, 531606, Note_off_c, 0, 60, 53
1, 531609, Note_on_c, 0, 73, 80
1, 531620, Control_c, 0, 64, 99
1, 531631, Note_on_c, 0, 61, 66
1, 531632, Note_off_c, 0, 72, 64
1, 531635, Control_c, 0, 64, 105
1, 531650, Control_c, 0, 64, 107
1, 531664, Control_c, 0, 64, 108
1, 531682, Note_on_c, 0, 72, 64
1, 531682, Note_off_c, 0, 61, 49
1, 531690, Note_on_c, 0, 60, 60
1, 531709, Note_off_c, 0, 73, 55
1, 531738, Note_on_c, 0, 70, 82
1, 531741, Note_off_c, 0, 72, 66
1, 531763, Note_on_c, 0, 58, 73
1, 531764, Note_off_c, 0, 60, 61
1, 531829, Note_on_c, 0, 68, 84
1, 531829, Note_on_c, 0, 56, 57
1, 531850, Control_c, 0, 64, 110
1, 531851, Note_off_c, 0, 58, 49
1, 531865, Control_c, 0, 64, 116
1, 531880, Control_c, 0, 64, 119
1, 531881, Note_off_c, 0, 70, 59
1, 531892, Note_on_c, 0, 67, 89
1, 531895, Note_on_c, 0, 55, 81
1, 531895, Control_c, 0, 64, 106
1, 531908, Note_off_c, 0, 56, 62
1, 531910, Control_c, 0, 64, 77
1, 531910, Note_off_c, 0, 68, 64
1, 531925, Control_c, 0, 64, 28
1, 531940, Control_c, 0, 64, 0
1, 531975, Note_on_c, 0, 70, 80
1, 531984, Control_c, 0, 64, 43
1, 531993, Note_on_c, 0, 58, 70
1, 531995, Note_off_c, 0, 67, 59
1, 531996, Note_off_c, 0, 55, 64
1, 531999, Control_c, 0, 64, 65
1, 532014, Control_c, 0, 64, 76
1, 532028, Control_c, 0, 64, 79
1, 532029, Note_off_c, 0, 58, 64
1, 532059, Note_on_c, 0, 67, 74
1, 532066, Note_on_c, 0, 55, 68
1, 532073, Control_c, 0, 64, 79
1, 532091, Note_off_c, 0, 70, 60
1, 532103, Note_off_c, 0, 67, 61
1, 532110, Note_off_c, 0, 55, 53
1, 532134, Note_on_c, 0, 64, 79
1, 532148, Note_on_c, 0, 52, 68
1, 532214, Note_on_c, 0, 63, 71
1, 532220, Note_off_c, 0, 52, 63
1, 532226, Note_off_c, 0, 64, 62
1, 532240, Note_on_c, 0, 51, 54
1, 532265, Control_c, 0, 64, 81
1, 532276, Note_on_c, 0, 49, 51
1, 532280, Control_c, 0, 64, 83
1, 532285, Note_on_c, 0, 61, 75
1, 532294, Control_c, 0, 64, 85
1, 532309, Control_c, 0, 64, 85
1, 532312, Note_off_c, 0, 51, 33
1, 532316, Note_off_c, 0, 63, 50
1, 532324, Control_c, 0, 64, 85
1, 532339, Control_c, 0, 64, 77
1, 532354, Control_c, 0, 64, 65
1, 532354, Note_off_c, 0, 49, 62
1, 532357, Note_on_c, 0, 48, 73
1, 532357, Note_off_c, 0, 61, 60
1, 532357, Note_on_c, 0, 60, 81
1, 532369, Control_c, 0, 64, 26
1, 532384, Control_c, 0, 64, 0
1, 532399, Control_c, 0, 64, 17
1, 532413, Control_c, 0, 64, 54
1, 532428, Control_c, 0, 64, 62
1, 532443, Control_c, 0, 64, 65
1, 532458, Control_c, 0, 64, 66
1, 532458, Note_on_c, 0, 63, 57
1, 532464, Note_off_c, 0, 48, 61
1, 532471, Note_on_c, 0, 56, 48
1, 532473, Control_c, 0, 64, 70
1, 532480, Note_on_c, 0, 51, 57
1, 532487, Control_c, 0, 64, 79
1, 532496, Note_off_c, 0, 60, 57
1, 532502, Control_c, 0, 64, 92
1, 532517, Control_c, 0, 64, 106
1, 532532, Control_c, 0, 64, 114
1, 532534, Note_off_c, 0, 51, 58
1, 532552, Note_off_c, 0, 56, 56
1, 532553, Note_on_c, 0, 68, 48
1, 532554, Control_c, 0, 64, 113
1, 532559, Note_off_c, 0, 63, 51
1, 532569, Control_c, 0, 64, 105
1, 532584, Control_c, 0, 64, 82
1, 532594, Note_on_c, 0, 47, 79
1, 532599, Control_c, 0, 64, 62
1, 532600, Note_on_c, 0, 59, 79
1, 532614, Control_c, 0, 64, 0
1, 532643, Note_off_c, 0, 68, 59
1, 532649, Note_on_c, 0, 50, 66
1, 532658, Note_on_c, 0, 62, 68
1, 532658, Control_c, 0, 64, 51
1, 532673, Control_c, 0, 64, 62
1, 532681, Note_off_c, 0, 47, 61
1, 532688, Control_c, 0, 64, 65
1, 532703, Control_c, 0, 64, 68
1, 532718, Control_c, 0, 64, 73
1, 532724, Note_on_c, 0, 56, 62
1, 532731, Note_off_c, 0, 59, 56
1, 532733, Control_c, 0, 64, 81
1, 532741, Note_off_c, 0, 50, 62
1, 532742, Note_on_c, 0, 68, 71
1, 532747, Control_c, 0, 64, 91
1, 532758, Note_off_c, 0, 62, 59
1, 532762, Control_c, 0, 64, 102
1, 532777, Control_c, 0, 64, 105
1, 532785, Note_off_c, 0, 56, 59
1, 532792, Control_c, 0, 64, 103
1, 532798, Note_off_c, 0, 68, 63
1, 532807, Control_c, 0, 64, 85
1, 532820, Note_on_c, 0, 60, 79
1, 532822, Control_c, 0, 64, 67
1, 532825, Note_on_c, 0, 48, 77
1, 532836, Control_c, 0, 64, 40
1, 532851, Control_c, 0, 64, 0
1, 532866, Control_c, 0, 64, 25
1, 532881, Control_c, 0, 64, 58
1, 532884, Note_on_c, 0, 63, 63
1, 532896, Control_c, 0, 64, 64
1, 532897, Note_on_c, 0, 51, 61
1, 532911, Control_c, 0, 64, 66
1, 532912, Note_off_c, 0, 48, 60
1, 532925, Control_c, 0, 64, 67
1, 532928, Note_on_c, 0, 68, 59
1, 532940, Control_c, 0, 64, 68
1, 532946, Note_off_c, 0, 60, 61
1, 532955, Control_c, 0, 64, 72
1, 532958, Note_off_c, 0, 63, 63
1, 532960, Note_on_c, 0, 56, 63
1, 532966, Note_off_c, 0, 68, 60
1, 532969, Control_c, 0, 64, 78
1, 532984, Control_c, 0, 64, 84
1, 532985, Note_off_c, 0, 51, 58
1, 532999, Control_c, 0, 64, 88
1, 533014, Control_c, 0, 64, 89
1, 533016, Note_off_c, 0, 56, 44
1, 533029, Control_c, 0, 64, 89
1, 533043, Control_c, 0, 64, 82
1, 533049, Note_on_c, 0, 47, 73
1, 533058, Control_c, 0, 64, 65
1, 533062, Note_on_c, 0, 74, 75
1, 533073, Control_c, 0, 64, 21
1, 533078, Note_on_c, 0, 68, 62
1, 533087, Note_on_c, 0, 62, 53
1, 533088, Control_c, 0, 64, 0
1, 533117, Control_c, 0, 64, 42
1, 533120, Note_on_c, 0, 50, 64
1, 533132, Control_c, 0, 64, 62
1, 533145, Note_off_c, 0, 47, 61
1, 533147, Control_c, 0, 64, 68
1, 533162, Control_c, 0, 64, 73
1, 533177, Control_c, 0, 64, 77
1, 533183, Note_off_c, 0, 74, 63
1, 533192, Control_c, 0, 64, 81
1, 533204, Note_off_c, 0, 50, 59
1, 533206, Note_off_c, 0, 62, 58
1, 533207, Control_c, 0, 64, 88
1, 533221, Control_c, 0, 64, 99
1, 533228, Note_off_c, 0, 68, 63
1, 533230, Note_on_c, 0, 56, 57
1, 533236, Control_c, 0, 64, 114
1, 533251, Control_c, 0, 64, 118
1, 533266, Control_c, 0, 64, 115
1, 533273, Note_off_c, 0, 56, 56
1, 533281, Control_c, 0, 64, 92
1, 533303, Control_c, 0, 64, 69
1, 533315, Note_on_c, 0, 75, 81
1, 533317, Note_on_c, 0, 63, 74
1, 533317, Control_c, 0, 64, 26
1, 533323, Note_on_c, 0, 48, 67
1, 533332, Control_c, 0, 64, 0
1, 533333, Note_on_c, 0, 68, 56
1, 533378, Control_c, 0, 64, 53
1, 533392, Control_c, 0, 64, 67
1, 533394, Note_on_c, 0, 51, 39
1, 533403, Note_off_c, 0, 48, 61
1, 533407, Control_c, 0, 64, 79
1, 533422, Control_c, 0, 64, 91
1, 533437, Control_c, 0, 64, 95
1, 533446, Note_on_c, 0, 56, 64
1, 533450, Note_off_c, 0, 63, 63
1, 533452, Control_c, 0, 64, 103
1, 533463, Note_off_c, 0, 68, 57
1, 533466, Control_c, 0, 64, 127
1, 533480, Note_off_c, 0, 51, 53
1, 533495, Note_off_c, 0, 75, 61
1, 533522, Note_off_c, 0, 56, 55
1, 533540, Control_c, 0, 64, 93
1, 533552, Note_on_c, 0, 48, 72
1, 533555, Control_c, 0, 64, 66
1, 533563, Note_on_c, 0, 76, 88
1, 533570, Control_c, 0, 64, 0
1, 533571, Note_on_c, 0, 64, 74
1, 533575, Note_on_c, 0, 68, 67
1, 533596, Note_on_c, 0, 52, 61
1, 533600, Control_c, 0, 64, 23
1, 533615, Control_c, 0, 64, 58
1, 533616, Note_off_c, 0, 48, 61
1, 533630, Control_c, 0, 64, 67
1, 533645, Control_c, 0, 64, 76
1, 533659, Control_c, 0, 64, 83
1, 533672, Note_off_c, 0, 52, 61
1, 533674, Control_c, 0, 64, 87
1, 533689, Control_c, 0, 64, 91
1, 533694, Note_on_c, 0, 56, 54
1, 533704, Control_c, 0, 64, 97
1, 533711, Note_off_c, 0, 64, 58
1, 533716, Note_off_c, 0, 68, 62
1, 533719, Control_c, 0, 64, 105
1, 533733, Note_off_c, 0, 76, 61
1, 533733, Control_c, 0, 64, 127
1, 533755, Note_off_c, 0, 56, 49
1, 533763, Control_c, 0, 64, 113
1, 533778, Control_c, 0, 64, 83
1, 533788, Note_on_c, 0, 49, 65
1, 533792, Control_c, 0, 64, 64
1, 533805, Note_on_c, 0, 77, 85
1, 533807, Control_c, 0, 64, 0
1, 533817, Note_on_c, 0, 65, 68
1, 533818, Note_on_c, 0, 68, 73
1, 533852, Control_c, 0, 64, 23
1, 533866, Control_c, 0, 64, 60
1, 533871, Note_on_c, 0, 53, 57
1, 533881, Control_c, 0, 64, 69
1, 533896, Control_c, 0, 64, 77
1, 533904, Note_off_c, 0, 49, 58
1, 533910, Control_c, 0, 64, 82
1, 533911, Note_off_c, 0, 68, 62
1, 533923, Note_off_c, 0, 53, 62
1, 533925, Control_c, 0, 64, 85
1, 533930, Note_off_c, 0, 65, 60
1, 533936, Note_on_c, 0, 56, 64
1, 533940, Control_c, 0, 64, 89
1, 533953, Note_off_c, 0, 77, 61
1, 533955, Control_c, 0, 64, 95
1, 533970, Control_c, 0, 64, 106
1, 533985, Control_c, 0, 64, 127
1, 533986, Note_off_c, 0, 56, 54
1, 534029, Control_c, 0, 64, 103
1, 534052, Control_c, 0, 64, 75
1, 534053, Note_on_c, 0, 52, 72
1, 534053, Note_on_c, 0, 79, 83
1, 534065, Note_on_c, 0, 67, 72
1, 534066, Control_c, 0, 64, 52
1, 534068, Note_on_c, 0, 72, 66
1, 534081, Control_c, 0, 64, 0
1, 534116, Note_on_c, 0, 55, 61
1, 534125, Control_c, 0, 64, 48
1, 534140, Control_c, 0, 64, 63
1, 534155, Control_c, 0, 64, 70
1, 534156, Note_off_c, 0, 79, 61
1, 534171, Control_c, 0, 64, 75
1, 534185, Note_off_c, 0, 52, 53
1, 534186, Control_c, 0, 64, 78
1, 534199, Note_off_c, 0, 67, 59
1, 534201, Control_c, 0, 64, 82
1, 534205, Note_on_c, 0, 60, 71
1, 534205, Note_off_c, 0, 72, 62
1, 534215, Control_c, 0, 64, 89
1, 534218, Note_off_c, 0, 55, 56
1, 534230, Control_c, 0, 64, 100
1, 534245, Control_c, 0, 64, 116
1, 534275, Control_c, 0, 64, 101
1, 534289, Note_off_c, 0, 60, 56
1, 534289, Control_c, 0, 64, 76
1, 534299, Note_on_c, 0, 53, 67
1, 534304, Control_c, 0, 64, 49
1, 534306, Note_on_c, 0, 80, 86
1, 534308, Note_on_c, 0, 72, 70
1, 534312, Note_on_c, 0, 68, 74
1, 534319, Control_c, 0, 64, 0
1, 534363, Control_c, 0, 64, 58
1, 534372, Note_on_c, 0, 56, 60
1, 534378, Note_off_c, 0, 72, 63
1, 534378, Control_c, 0, 64, 67
1, 534392, Note_off_c, 0, 53, 62
1, 534393, Control_c, 0, 64, 71
1, 534408, Control_c, 0, 64, 74
1, 534423, Control_c, 0, 64, 77
1, 534434, Note_off_c, 0, 68, 64
1, 534438, Control_c, 0, 64, 81
1, 534441, Note_off_c, 0, 56, 62
1, 534450, Note_on_c, 0, 60, 62
1, 534453, Control_c, 0, 64, 88
1, 534464, Note_off_c, 0, 80, 60
1, 534467, Control_c, 0, 64, 94
1, 534482, Control_c, 0, 64, 99
1, 534497, Control_c, 0, 64, 99
1, 534506, Note_off_c, 0, 60, 55
1, 534512, Control_c, 0, 64, 98
1, 534527, Control_c, 0, 64, 83
1, 534541, Control_c, 0, 64, 64
1, 534544, Note_on_c, 0, 55, 66
1, 534544, Note_on_c, 0, 82, 89
1, 534551, Note_on_c, 0, 70, 80
1, 534556, Control_c, 0, 64, 0
1, 534557, Note_on_c, 0, 75, 69
1, 534601, Control_c, 0, 64, 8
1, 534615, Control_c, 0, 64, 59
1, 534617, Note_on_c, 0, 58, 67
1, 534625, Note_off_c, 0, 55, 63
1, 534630, Control_c, 0, 64, 68
1, 534645, Control_c, 0, 64, 74
1, 534658, Note_off_c, 0, 70, 63
1, 534660, Control_c, 0, 64, 78
1, 534675, Control_c, 0, 64, 81
1, 534689, Control_c, 0, 64, 86
1, 534694, Note_off_c, 0, 75, 63
1, 534704, Control_c, 0, 64, 91
1, 534713, Note_off_c, 0, 82, 60
1, 534719, Control_c, 0, 64, 98
1, 534721, Note_on_c, 0, 63, 51
1, 534733, Control_c, 0, 64, 104
1, 534748, Control_c, 0, 64, 113
1, 534763, Control_c, 0, 64, 115
1, 534778, Note_on_c, 0, 56, 60
1, 534778, Note_off_c, 0, 58, 29
1, 534778, Control_c, 0, 64, 103
1, 534779, Note_off_c, 0, 63, 43
1, 534801, Control_c, 0, 64, 77
1, 534801, Note_on_c, 0, 84, 94
1, 534815, Control_c, 0, 64, 54
1, 534816, Note_on_c, 0, 72, 74
1, 534826, Note_on_c, 0, 75, 64
1, 534830, Control_c, 0, 64, 0
1, 534871, Note_on_c, 0, 60, 56
1, 534875, Control_c, 0, 64, 47
1, 534889, Control_c, 0, 64, 66
1, 534904, Control_c, 0, 64, 73
1, 534919, Control_c, 0, 64, 79
1, 534924, Note_off_c, 0, 56, 58
1, 534931, Note_off_c, 0, 60, 58
1, 534934, Control_c, 0, 64, 81
1, 534935, Note_off_c, 0, 72, 61
1, 534945, Note_off_c, 0, 84, 62
1, 534946, Note_on_c, 0, 63, 46
1, 534948, Control_c, 0, 64, 82
1, 534964, Note_off_c, 0, 75, 65
1, 534964, Control_c, 0, 64, 83
1, 534979, Control_c, 0, 64, 85
1, 534987, Note_off_c, 0, 63, 47
1, 534994, Control_c, 0, 64, 86
1, 535009, Control_c, 0, 64, 87
1, 535024, Control_c, 0, 64, 88
1, 535038, Control_c, 0, 64, 90
1, 535053, Control_c, 0, 64, 92
1, 535068, Control_c, 0, 64, 93
1, 535083, Control_c, 0, 64, 89
1, 535087, Note_on_c, 0, 58, 59
1, 535098, Control_c, 0, 64, 72
1, 535099, Note_on_c, 0, 85, 87
1, 535112, Control_c, 0, 64, 44
1, 535116, Note_on_c, 0, 73, 63
1, 535124, Note_on_c, 0, 75, 62
1, 535127, Control_c, 0, 64, 0
1, 535171, Control_c, 0, 64, 36
1, 535177, Note_on_c, 0, 63, 45
1, 535186, Control_c, 0, 64, 64
1, 535201, Control_c, 0, 64, 75
1, 535216, Control_c, 0, 64, 83
1, 535231, Control_c, 0, 64, 85
1, 535234, Note_off_c, 0, 73, 60
1, 535256, Note_off_c, 0, 75, 63
1, 535260, Control_c, 0, 64, 85
1, 535269, Note_on_c, 0, 67, 50
1, 535275, Note_off_c, 0, 85, 62
1, 535275, Control_c, 0, 64, 86
1, 535309, Note_off_c, 0, 58, 34
1, 535331, Note_off_c, 0, 67, 62
1, 535332, Note_off_c, 0, 63, 60
1, 535512, Control_c, 0, 64, 85
1, 535527, Control_c, 0, 64, 82
1, 535536, Note_on_c, 0, 85, 83
1, 535550, Control_c, 0, 64, 73
1, 535564, Control_c, 0, 64, 63
1, 535569, Note_on_c, 0, 73, 43
1, 535572, Note_on_c, 0, 75, 44
1, 535576, Note_on_c, 0, 56, 41
1, 535577, Note_on_c, 0, 63, 33
1, 535579, Control_c, 0, 64, 0
1, 535583, Note_on_c, 0, 68, 37
1, 535605, Note_off_c, 0, 73, 0
1, 535605, Note_on_c, 0, 73, 7
1, 535683, Control_c, 0, 64, 57
1, 535697, Control_c, 0, 64, 69
1, 535712, Control_c, 0, 64, 77
1, 535727, Control_c, 0, 64, 81
1, 535742, Control_c, 0, 64, 83
1, 535757, Control_c, 0, 64, 89
1, 535773, Control_c, 0, 64, 98
1, 535787, Control_c, 0, 64, 105
1, 535802, Control_c, 0, 64, 105
1, 535832, Control_c, 0, 64, 106
1, 535861, Control_c, 0, 64, 106
1, 535876, Control_c, 0, 64, 107
1, 535886, Note_off_c, 0, 75, 56
1, 535891, Control_c, 0, 64, 107
1, 535922, Note_off_c, 0, 73, 39
1, 535963, Note_off_c, 0, 85, 57
1, 536098, Control_c, 0, 67, 13
1, 536112, Control_c, 0, 67, 31
1, 536127, Control_c, 0, 64, 96
1, 536127, Control_c, 0, 67, 48
1, 536142, Control_c, 0, 64, 77
1, 536142, Control_c, 0, 67, 62
1, 536144, Note_on_c, 0, 84, 61
1, 536157, Control_c, 0, 64, 63
1, 536157, Control_c, 0, 67, 76
1, 536160, Note_on_c, 0, 72, 45
1, 536172, Control_c, 0, 64, 31
1, 536172, Control_c, 0, 67, 89
1, 536186, Control_c, 0, 64, 0
1, 536186, Control_c, 0, 67, 103
1, 536193, Note_on_c, 0, 75, 31
1, 536201, Control_c, 0, 64, 29
1, 536201, Control_c, 0, 67, 116
1, 536216, Control_c, 0, 64, 52
1, 536216, Control_c, 0, 67, 127
1, 536228, Note_off_c, 0, 75, 58
1, 536231, Control_c, 0, 64, 60
1, 536246, Control_c, 0, 64, 64
1, 536260, Control_c, 0, 64, 67
1, 536283, Control_c, 0, 64, 71
1, 536298, Control_c, 0, 64, 74
1, 536312, Control_c, 0, 64, 75
1, 536327, Control_c, 0, 64, 76
1, 536336, Note_off_c, 0, 68, 44
1, 536342, Control_c, 0, 64, 76
1, 536366, Note_off_c, 0, 63, 40
1, 536372, Control_c, 0, 64, 77
1, 536425, Note_off_c, 0, 56, 36
1, 536428, Note_on_c, 0, 75, 46
1, 536474, Note_off_c, 0, 84, 39
1, 536495, Note_off_c, 0, 72, 32
1, 536527, Note_off_c, 0, 75, 65
1, 536654, Control_c, 0, 64, 76
1, 536669, Control_c, 0, 64, 72
1, 536676, Note_on_c, 0, 63, 47
1, 536683, Control_c, 0, 64, 64
1, 536693, Note_on_c, 0, 75, 49
1, 536698, Control_c, 0, 64, 36
1, 536713, Control_c, 0, 64, 0
1, 536742, Control_c, 0, 64, 26
1, 536757, Control_c, 0, 64, 51
1, 536767, Note_off_c, 0, 63, 58
1, 536771, Note_on_c, 0, 65, 57
1, 536772, Control_c, 0, 64, 61
1, 536787, Control_c, 0, 64, 64
1, 536802, Note_off_c, 0, 75, 63
1, 536802, Control_c, 0, 64, 66
1, 536804, Note_off_c, 0, 65, 64
1, 536816, Control_c, 0, 64, 66
1, 536831, Control_c, 0, 64, 67
1, 536837, Note_on_c, 0, 67, 65
1, 536861, Control_c, 0, 64, 68
1, 536861, Control_c, 0, 67, 117
1, 536876, Control_c, 0, 64, 69
1, 536876, Control_c, 0, 67, 99
1, 536890, Control_c, 0, 64, 70
1, 536890, Control_c, 0, 67, 78
1, 536905, Control_c, 0, 64, 70
1, 536905, Control_c, 0, 67, 56
1, 536907, Note_off_c, 0, 67, 56
1, 536916, Note_on_c, 0, 68, 63
1, 536920, Control_c, 0, 67, 30
1, 536934, Control_c, 0, 67, 13
1, 536935, Note_on_c, 0, 75, 54
1, 536949, Control_c, 0, 67, 0
1, 537001, Note_on_c, 0, 70, 60
1, 537012, Note_off_c, 0, 75, 63
1, 537025, Note_off_c, 0, 68, 61
1, 537067, Note_off_c, 0, 70, 63
1, 537075, Note_on_c, 0, 72, 69
1, 537149, Control_c, 0, 64, 69
1, 537164, Control_c, 0, 64, 66
1, 537179, Control_c, 0, 64, 60
1, 537183, Note_on_c, 0, 73, 71
1, 537183, Note_on_c, 0, 75, 49
1, 537188, Note_off_c, 0, 72, 59
1, 537194, Control_c, 0, 64, 8
1, 537195, Note_on_c, 0, 67, 56
1, 537208, Control_c, 0, 64, 0
1, 537231, Note_on_c, 0, 70, 16
1, 537312, Control_c, 0, 64, 42
1, 537326, Control_c, 0, 64, 61
1, 537341, Control_c, 0, 64, 66
1, 537357, Control_c, 0, 64, 67
1, 537372, Control_c, 0, 64, 68
1, 537387, Control_c, 0, 64, 69
1, 537388, Note_off_c, 0, 75, 58
1, 537402, Control_c, 0, 64, 71
1, 537417, Control_c, 0, 64, 73
1, 537431, Control_c, 0, 64, 73
1, 537512, Note_on_c, 0, 75, 41
1, 537565, Note_off_c, 0, 70, 32
1, 537670, Note_off_c, 0, 75, 36
1, 537743, Control_c, 0, 64, 73
1, 537757, Control_c, 0, 64, 72
1, 537772, Control_c, 0, 64, 69
1, 537772, Control_c, 0, 67, 8
1, 537775, Note_on_c, 0, 72, 48
1, 537785, Note_off_c, 0, 73, 35
1, 537793, Note_on_c, 0, 75, 44
1, 537794, Control_c, 0, 64, 63
1, 537801, Note_off_c, 0, 67, 35
1, 537809, Control_c, 0, 64, 41
1, 537815, Note_on_c, 0, 68, 24
1, 537824, Control_c, 0, 64, 0
1, 537854, Control_c, 0, 67, 8
1, 537869, Control_c, 0, 67, 9
1, 537926, Note_off_c, 0, 75, 50
1, 537928, Control_c, 0, 64, 52
1, 537943, Control_c, 0, 64, 64
1, 537957, Control_c, 0, 64, 67
1, 537972, Control_c, 0, 64, 69
1, 537987, Control_c, 0, 64, 72
1, 538002, Note_off_c, 0, 68, 55
1, 538002, Control_c, 0, 64, 75
1, 538002, Control_c, 0, 67, 8
1, 538017, Control_c, 0, 64, 79
1, 538031, Control_c, 0, 64, 80
1, 538031, Control_c, 0, 67, 8
1, 538051, Note_on_c, 0, 75, 40
1, 538095, Note_off_c, 0, 72, 58
1, 538125, Note_off_c, 0, 75, 57
1, 538135, Control_c, 0, 67, 0
1, 538254, Control_c, 0, 64, 80
1, 538269, Control_c, 0, 64, 74
1, 538284, Control_c, 0, 64, 64
1, 538299, Control_c, 0, 64, 35
1, 538304, Note_on_c, 0, 63, 43
1, 538312, Note_on_c, 0, 75, 50
1, 538314, Control_c, 0, 64, 0
1, 538359, Control_c, 0, 64, 28
1, 538374, Control_c, 0, 64, 59
1, 538377, Note_on_c, 0, 65, 60
1, 538388, Control_c, 0, 64, 67
1, 538392, Note_off_c, 0, 63, 49
1, 538403, Control_c, 0, 64, 71
1, 538408, Note_off_c, 0, 65, 63
1, 538418, Control_c, 0, 64, 73
1, 538423, Note_off_c, 0, 75, 60
1, 538433, Control_c, 0, 64, 73
1, 538457, Note_on_c, 0, 67, 57
1, 538477, Control_c, 0, 64, 74
1, 538533, Note_off_c, 0, 67, 59
1, 538542, Note_on_c, 0, 68, 61
1, 538553, Note_on_c, 0, 75, 61
1, 538623, Note_on_c, 0, 70, 63
1, 538636, Note_off_c, 0, 75, 60
1, 538649, Note_off_c, 0, 68, 57
1, 538685, Note_off_c, 0, 70, 63
1, 538698, Note_on_c, 0, 72, 67
1, 538766, Control_c, 0, 64, 73
1, 538781, Control_c, 0, 64, 70
1, 538796, Control_c, 0, 64, 64
1, 538802, Note_on_c, 0, 73, 70
1, 538802, Note_off_c, 0, 72, 59
1, 538811, Control_c, 0, 64, 47
1, 538811, Control_c, 0, 67, 8
1, 538819, Note_on_c, 0, 75, 56
1, 538826, Control_c, 0, 64, 0
1, 538836, Note_on_c, 0, 67, 46
1, 538840, Control_c, 0, 67, 8
1, 538855, Control_c, 0, 67, 9
1, 538870, Control_c, 0, 67, 10
1, 538885, Control_c, 0, 67, 11
1, 538900, Control_c, 0, 67, 13
1, 538905, Poly_aftertouch_c, 0, 70, 127
1, 538914, Control_c, 0, 67, 17
1, 538929, Control_c, 0, 64, 40
1, 538929, Control_c, 0, 67, 22
1, 538944, Control_c, 0, 64, 61
1, 538944, Control_c, 0, 67, 32
1, 538960, Control_c, 0, 64, 66
1, 538960, Control_c, 0, 67, 43
1, 538975, Control_c, 0, 64, 66
1, 538975, Control_c, 0, 67, 56
1, 538989, Control_c, 0, 67, 70
1, 539004, Control_c, 0, 64, 67
1, 539004, Control_c, 0, 67, 82
1, 539007, Note_off_c, 0, 75, 60
1, 539019, Control_c, 0, 64, 68
1, 539019, Control_c, 0, 67, 92
1, 539034, Control_c, 0, 64, 70
1, 539034, Control_c, 0, 67, 101
1, 539049, Control_c, 0, 64, 70
1, 539049, Control_c, 0, 67, 112
1, 539064, Control_c, 0, 67, 121
1, 539078, Control_c, 0, 67, 127
1, 539130, Note_on_c, 0, 75, 44
1, 539133, Poly_aftertouch_c, 0, 70, 0
1, 539240, Note_off_c, 0, 75, 57
1, 539367, Control_c, 0, 64, 70
1, 539377, Note_off_c, 0, 73, 37
1, 539382, Control_c, 0, 64, 68
1, 539395, Note_off_c, 0, 67, 41
1, 539397, Control_c, 0, 64, 63
1, 539406, Note_on_c, 0, 75, 39
1, 539411, Control_c, 0, 64, 47
1, 539422, Note_on_c, 0, 72, 33
1, 539426, Control_c, 0, 64, 0
1, 539445, Note_on_c, 0, 68, 22
1, 539500, Control_c, 0, 64, 41
1, 539515, Control_c, 0, 64, 60
1, 539529, Control_c, 0, 64, 65
1, 539544, Control_c, 0, 64, 67
1, 539556, Note_off_c, 0, 75, 55
1, 539559, Control_c, 0, 64, 68
1, 539574, Control_c, 0, 64, 69
1, 539589, Control_c, 0, 64, 69
1, 539601, Note_off_c, 0, 68, 54
1, 539604, Control_c, 0, 64, 71
1, 539618, Control_c, 0, 64, 73
1, 539633, Control_c, 0, 64, 75
1, 539648, Control_c, 0, 64, 75
1, 539666, Note_on_c, 0, 75, 49
1, 539732, Note_off_c, 0, 72, 34
1, 539749, Note_off_c, 0, 75, 61
1, 539887, Control_c, 0, 64, 72
1, 539901, Control_c, 0, 64, 65
1, 539914, Note_on_c, 0, 63, 34
1, 539915, Note_on_c, 0, 75, 50
1, 539916, Control_c, 0, 64, 51
1, 539931, Control_c, 0, 64, 0
1, 539960, Control_c, 0, 64, 24
1, 539975, Control_c, 0, 64, 51
1, 539986, Note_off_c, 0, 63, 52
1, 539990, Control_c, 0, 64, 62
1, 539992, Note_on_c, 0, 65, 51
1, 540005, Control_c, 0, 64, 66
1, 540018, Note_off_c, 0, 65, 63
1, 540027, Control_c, 0, 64, 69
1, 540034, Note_off_c, 0, 75, 62
1, 540042, Control_c, 0, 64, 70
1, 540057, Control_c, 0, 64, 71
1, 540072, Control_c, 0, 64, 71
1, 540072, Note_on_c, 0, 67, 57
1, 540142, Note_off_c, 0, 67, 53
1, 540159, Note_on_c, 0, 75, 58
1, 540173, Note_on_c, 0, 68, 47
1, 540254, Note_on_c, 0, 70, 54
1, 540273, Note_off_c, 0, 75, 61
1, 540288, Note_off_c, 0, 68, 37
1, 540308, Control_c, 0, 64, 71
1, 540310, Note_off_c, 0, 70, 61
1, 540334, Note_on_c, 0, 72, 51
1, 540338, Control_c, 0, 64, 70
1, 540382, Control_c, 0, 64, 70
1, 540426, Control_c, 0, 64, 69
1, 540441, Control_c, 0, 64, 69
1, 540453, Note_off_c, 0, 72, 58
1, 540456, Control_c, 0, 64, 67
1, 540471, Control_c, 0, 64, 65
1, 540475, Note_on_c, 0, 73, 46
1, 540484, Note_on_c, 0, 76, 64
1, 540486, Control_c, 0, 64, 61
1, 540501, Control_c, 0, 64, 48
1, 540509, Note_on_c, 0, 67, 37
1, 540516, Control_c, 0, 64, 0
1, 540534, Note_on_c, 0, 70, 19
1, 540620, Control_c, 0, 64, 38
1, 540635, Control_c, 0, 64, 60
1, 540650, Control_c, 0, 64, 65
1, 540665, Control_c, 0, 64, 66
1, 540695, Control_c, 0, 64, 66
1, 540706, Note_off_c, 0, 76, 59
1, 540709, Control_c, 0, 64, 67
1, 540724, Control_c, 0, 64, 68
1, 540739, Control_c, 0, 64, 69
1, 540835, Note_on_c, 0, 76, 55
1, 540903, Note_off_c, 0, 70, 21
1, 540929, Note_off_c, 0, 76, 59
1, 540939, Control_c, 0, 64, 69
1, 540983, Control_c, 0, 64, 68
1, 541013, Control_c, 0, 64, 68
1, 541043, Control_c, 0, 64, 67
1, 541057, Control_c, 0, 64, 67
1, 541072, Control_c, 0, 64, 65
1, 541080, Note_off_c, 0, 73, 34
1, 541087, Control_c, 0, 64, 63
1, 541101, Control_c, 0, 64, 54
1, 541108, Note_on_c, 0, 77, 48
1, 541116, Control_c, 0, 64, 23
1, 541127, Note_on_c, 0, 72, 25
1, 541129, Note_on_c, 0, 68, 28
1, 541131, Control_c, 0, 64, 0
1, 541145, Note_off_c, 0, 67, 41
1, 541235, Control_c, 0, 64, 32
1, 541249, Control_c, 0, 64, 53
1, 541264, Control_c, 0, 64, 59
1, 541268, Note_off_c, 0, 77, 61
1, 541279, Control_c, 0, 64, 62
1, 541294, Control_c, 0, 64, 63
1, 541338, Control_c, 0, 64, 64
1, 541369, Control_c, 0, 64, 64
1, 541391, Note_on_c, 0, 77, 62
1, 541398, Control_c, 0, 64, 65
1, 541410, Poly_aftertouch_c, 0, 81, 127
1, 541413, Control_c, 0, 64, 65
1, 541428, Control_c, 0, 64, 67
1, 541443, Control_c, 0, 64, 68
1, 541458, Control_c, 0, 64, 69
1, 541463, Note_off_c, 0, 72, 55
1, 541496, Poly_aftertouch_c, 0, 81, 0
1, 541502, Control_c, 0, 64, 69
1, 541505, Note_off_c, 0, 77, 60
1, 541595, Note_off_c, 0, 68, 46
1, 541658, Control_c, 0, 64, 69
1, 541673, Control_c, 0, 64, 66
1, 541684, Note_on_c, 0, 77, 68
1, 541687, Control_c, 0, 64, 62
1, 541687, Control_c, 0, 67, 127
1, 541702, Control_c, 0, 64, 57
1, 541702, Control_c, 0, 67, 120
1, 541717, Control_c, 0, 64, 56
1, 541717, Control_c, 0, 67, 109
1, 541732, Control_c, 0, 64, 58
1, 541732, Control_c, 0, 67, 96
1, 541747, Poly_aftertouch_c, 0, 81, 127
1, 541747, Control_c, 0, 64, 61
1, 541747, Control_c, 0, 67, 83
1, 541762, Control_c, 0, 64, 63
1, 541762, Control_c, 0, 67, 70
1, 541777, Control_c, 0, 64, 65
1, 541777, Control_c, 0, 67, 55
1, 541780, Poly_aftertouch_c, 0, 81, 0
1, 541792, Control_c, 0, 64, 67
1, 541792, Control_c, 0, 67, 44
1, 541806, Control_c, 0, 64, 67
1, 541806, Control_c, 0, 67, 34
1, 541821, Control_c, 0, 64, 69
1, 541821, Control_c, 0, 67, 23
1, 541836, Control_c, 0, 64, 70
1, 541836, Control_c, 0, 67, 12
1, 541841, Note_off_c, 0, 77, 61
1, 541850, Control_c, 0, 64, 72
1, 541850, Control_c, 0, 67, 0
1, 541865, Control_c, 0, 64, 73
1, 541880, Control_c, 0, 64, 74
1, 541895, Control_c, 0, 64, 76
1, 541910, Control_c, 0, 64, 77
1, 541924, Control_c, 0, 64, 78
1, 541939, Control_c, 0, 64, 79
1, 541954, Control_c, 0, 64, 81
1, 541958, Note_on_c, 0, 77, 72
1, 541969, Control_c, 0, 64, 82
1, 541984, Control_c, 0, 64, 83
1, 541998, Control_c, 0, 64, 83
1, 542013, Control_c, 0, 64, 84
1, 542077, Note_off_c, 0, 77, 61
1, 542221, Control_c, 0, 64, 78
1, 542227, Note_on_c, 0, 77, 75
1, 542236, Control_c, 0, 64, 68
1, 542243, Note_on_c, 0, 56, 42
1, 542245, Note_on_c, 0, 60, 34
1, 542251, Control_c, 0, 64, 55
1, 542266, Control_c, 0, 64, 36
1, 542289, Control_c, 0, 64, 40
1, 542303, Control_c, 0, 64, 50
1, 542318, Control_c, 0, 64, 58
1, 542333, Control_c, 0, 64, 64
1, 542348, Control_c, 0, 64, 68
1, 542362, Control_c, 0, 64, 72
1, 542377, Control_c, 0, 64, 74
1, 542392, Control_c, 0, 64, 76
1, 542407, Control_c, 0, 64, 77
1, 542415, Note_off_c, 0, 77, 49
1, 542422, Control_c, 0, 64, 79
1, 542436, Control_c, 0, 64, 79
1, 542451, Control_c, 0, 64, 80
1, 542466, Control_c, 0, 64, 80
1, 542480, Control_c, 0, 64, 81
1, 542501, Note_on_c, 0, 77, 67
1, 542603, Note_off_c, 0, 56, 25
1, 542640, Note_off_c, 0, 60, 29
1, 542665, Note_off_c, 0, 77, 61
1, 542771, Note_on_c, 0, 78, 75
1, 542785, Note_on_c, 0, 56, 31
1, 542790, Note_on_c, 0, 62, 41
1, 542792, Control_c, 0, 64, 75
1, 542797, Note_on_c, 0, 60, 20
1, 542807, Control_c, 0, 64, 66
1, 542821, Control_c, 0, 64, 48
1, 542836, Control_c, 0, 64, 0
1, 542880, Control_c, 0, 64, 36
1, 542895, Control_c, 0, 64, 54
1, 542910, Control_c, 0, 64, 63
1, 542925, Control_c, 0, 64, 67
1, 542941, Control_c, 0, 64, 70
1, 542943, Note_off_c, 0, 78, 63
1, 542956, Control_c, 0, 64, 71
1, 542970, Control_c, 0, 64, 73
1, 542985, Control_c, 0, 64, 74
1, 543000, Control_c, 0, 64, 76
1, 543023, Control_c, 0, 64, 79
1, 543038, Control_c, 0, 64, 80
1, 543049, Note_on_c, 0, 78, 75
1, 543052, Control_c, 0, 64, 81
1, 543067, Control_c, 0, 64, 81
1, 543097, Control_c, 0, 64, 82
1, 543182, Note_off_c, 0, 78, 57
1, 543238, Note_off_c, 0, 56, 34
1, 543263, Note_off_c, 0, 62, 43
1, 543303, Control_c, 0, 64, 77
1, 543306, Note_off_c, 0, 60, 40
1, 543316, Note_on_c, 0, 78, 78
1, 543318, Control_c, 0, 64, 66
1, 543333, Control_c, 0, 64, 43
1, 543348, Control_c, 0, 64, 0
1, 543392, Control_c, 0, 64, 38
1, 543407, Control_c, 0, 64, 62
1, 543422, Control_c, 0, 64, 68
1, 543437, Control_c, 0, 64, 72
1, 543452, Control_c, 0, 64, 74
1, 543467, Control_c, 0, 64, 76
1, 543482, Control_c, 0, 64, 80
1, 543494, Note_off_c, 0, 78, 58
1, 543496, Control_c, 0, 64, 84
1, 543511, Control_c, 0, 64, 87
1, 543526, Control_c, 0, 64, 88
1, 543541, Control_c, 0, 64, 89
1, 543556, Control_c, 0, 64, 90
1, 543570, Control_c, 0, 64, 92
1, 543581, Note_on_c, 0, 78, 86
1, 543585, Control_c, 0, 64, 95
1, 543600, Control_c, 0, 64, 97
1, 543615, Control_c, 0, 64, 99
1, 543630, Control_c, 0, 64, 99
1, 543644, Control_c, 0, 64, 100
1, 543674, Control_c, 0, 64, 100
1, 543722, Note_off_c, 0, 78, 57
1, 543860, Control_c, 0, 64, 98
1, 543869, Note_on_c, 0, 79, 83
1, 543875, Control_c, 0, 64, 84
1, 543887, Note_on_c, 0, 67, 57
1, 543890, Control_c, 0, 64, 69
1, 543890, Note_on_c, 0, 60, 50
1, 543892, Note_on_c, 0, 64, 55
1, 543899, Note_on_c, 0, 55, 43
1, 543905, Control_c, 0, 64, 54
1, 543920, Control_c, 0, 64, 0
1, 543979, Control_c, 0, 64, 50
1, 543993, Control_c, 0, 64, 63
1, 544008, Control_c, 0, 64, 69
1, 544023, Control_c, 0, 64, 73
1, 544038, Control_c, 0, 64, 74
1, 544045, Note_off_c, 0, 67, 53
1, 544052, Note_off_c, 0, 79, 55
1, 544053, Control_c, 0, 64, 75
1, 544068, Control_c, 0, 64, 77
1, 544082, Control_c, 0, 64, 80
1, 544097, Control_c, 0, 64, 83
1, 544107, Note_off_c, 0, 55, 36
1, 544110, Note_off_c, 0, 64, 55
1, 544112, Control_c, 0, 64, 85
1, 544126, Control_c, 0, 64, 86
1, 544141, Control_c, 0, 64, 87
1, 544146, Note_off_c, 0, 60, 56
1, 544156, Control_c, 0, 64, 88
1, 544161, Note_on_c, 0, 79, 77
1, 544171, Control_c, 0, 64, 89
1, 544173, Note_on_c, 0, 67, 61
1, 544186, Control_c, 0, 64, 89
1, 544215, Control_c, 0, 64, 90
1, 544245, Control_c, 0, 64, 90
1, 544315, Note_off_c, 0, 79, 53
1, 544316, Note_off_c, 0, 67, 52
1, 544480, Note_on_c, 0, 79, 59
1, 544492, Note_on_c, 0, 67, 51
1, 544500, Note_on_c, 0, 65, 74
1, 544512, Control_c, 0, 64, 84
1, 544527, Note_on_c, 0, 62, 53
1, 544534, Control_c, 0, 64, 72
1, 544536, Note_on_c, 0, 55, 49
1, 544549, Control_c, 0, 64, 55
1, 544564, Control_c, 0, 64, 0
1, 544638, Control_c, 0, 64, 44
1, 544653, Control_c, 0, 64, 62
1, 544668, Control_c, 0, 64, 67
1, 544683, Control_c, 0, 64, 67
1, 544685, Note_off_c, 0, 79, 50
1, 544705, Note_off_c, 0, 67, 55
1, 544713, Control_c, 0, 64, 68
1, 544728, Control_c, 0, 64, 69
1, 544742, Control_c, 0, 64, 71
1, 544757, Control_c, 0, 64, 73
1, 544787, Control_c, 0, 64, 73
1, 544808, Note_on_c, 0, 79, 69
1, 544829, Note_on_c, 0, 67, 50
1, 544972, Note_off_c, 0, 67, 38
1, 544979, Control_c, 0, 64, 74
1, 545100, Note_off_c, 0, 55, 33
1, 545118, Note_off_c, 0, 65, 37
1, 545119, Note_on_c, 0, 81, 73
1, 545147, Note_off_c, 0, 79, 54
1, 545148, Note_on_c, 0, 69, 52
1, 545293, Note_off_c, 0, 62, 31
1, 545329, Note_off_c, 0, 69, 64
1, 545446, Control_c, 0, 64, 74
1, 545457, Note_on_c, 0, 83, 75
1, 545474, Note_on_c, 0, 55, 39
1, 545476, Control_c, 0, 64, 75
1, 545479, Note_on_c, 0, 71, 54
1, 545481, Note_on_c, 0, 62, 39
1, 545491, Note_off_c, 0, 81, 57
1, 545521, Control_c, 0, 64, 75
1, 545552, Note_off_c, 0, 55, 62
1, 545580, Control_c, 0, 64, 76
1, 545595, Control_c, 0, 64, 77
1, 545610, Control_c, 0, 64, 77
1, 545625, Control_c, 0, 64, 78
1, 545630, Note_off_c, 0, 71, 59
1, 545643, Note_off_c, 0, 62, 41
1, 545654, Control_c, 0, 64, 78
1, 545703, Note_off_c, 0, 83, 58
1, 545909, Note_on_c, 0, 84, 75
1, 545920, Control_c, 0, 64, 75
1, 545935, Control_c, 0, 64, 68
1, 545938, Note_on_c, 0, 72, 39
1, 545939, Note_on_c, 0, 60, 35
1, 545941, Note_on_c, 0, 48, 42
1, 545950, Control_c, 0, 64, 56
1, 545959, Note_on_c, 0, 52, 35
1, 545965, Control_c, 0, 64, 0
1, 546061, Control_c, 0, 64, 51
1, 546076, Control_c, 0, 64, 64
1, 546091, Control_c, 0, 64, 67
1, 546105, Control_c, 0, 64, 68
1, 546120, Control_c, 0, 64, 68
1, 546135, Control_c, 0, 64, 70
1, 546151, Control_c, 0, 64, 71
1, 546161, Note_off_c, 0, 84, 55
1, 546166, Control_c, 0, 64, 74
1, 546181, Control_c, 0, 64, 75
1, 546195, Control_c, 0, 64, 75
1, 546314, Control_c, 0, 67, 15
1, 546328, Control_c, 0, 67, 23
1, 546343, Control_c, 0, 67, 33
1, 546358, Control_c, 0, 67, 44
1, 546366, Note_off_c, 0, 72, 47
1, 546373, Control_c, 0, 67, 54
1, 546388, Control_c, 0, 67, 63
1, 546397, Note_on_c, 0, 67, 39
1, 546403, Control_c, 0, 67, 73
1, 546418, Control_c, 0, 67, 85
1, 546421, Note_off_c, 0, 48, 32
1, 546433, Control_c, 0, 67, 94
1, 546447, Control_c, 0, 67, 102
1, 546462, Control_c, 0, 67, 110
1, 546477, Control_c, 0, 67, 118
1, 546492, Control_c, 0, 67, 126
1, 546507, Control_c, 0, 67, 127
1, 546512, Note_off_c, 0, 52, 41
1, 546513, Note_off_c, 0, 67, 35
1, 546537, Note_off_c, 0, 60, 35
1, 546581, Control_c, 0, 64, 75
1, 546610, Control_c, 0, 64, 74
1, 546634, Note_on_c, 0, 67, 46
1, 546639, Control_c, 0, 64, 74
1, 546654, Control_c, 0, 64, 73
1, 546669, Control_c, 0, 64, 73
1, 546681, Note_off_c, 0, 67, 58
1, 546684, Control_c, 0, 64, 72
1, 546699, Control_c, 0, 64, 72
1, 546713, Control_c, 0, 64, 71
1, 546728, Control_c, 0, 64, 71
1, 546743, Control_c, 0, 64, 70
1, 546758, Control_c, 0, 64, 70
1, 546781, Control_c, 0, 64, 69
1, 546795, Control_c, 0, 64, 69
1, 546825, Control_c, 0, 64, 68
1, 546840, Control_c, 0, 64, 68
1, 546844, Note_on_c, 0, 67, 46
1, 546869, Control_c, 0, 64, 67
1, 546899, Control_c, 0, 64, 67
1, 546907, Note_off_c, 0, 67, 51
1, 547032, Note_on_c, 0, 67, 53
1, 547077, Control_c, 0, 64, 67
1, 547092, Control_c, 0, 64, 68
1, 547105, Note_off_c, 0, 67, 38
1, 547122, Control_c, 0, 64, 68
1, 547137, Control_c, 0, 64, 69
1, 547166, Control_c, 0, 64, 70
1, 547226, Note_on_c, 0, 67, 48
1, 547306, Note_off_c, 0, 67, 39
1, 547389, Control_c, 0, 64, 69
1, 547404, Control_c, 0, 64, 66
1, 547418, Control_c, 0, 64, 63
1, 547432, Note_on_c, 0, 67, 46
1, 547433, Control_c, 0, 64, 57
1, 547448, Control_c, 0, 64, 48
1, 547451, Note_on_c, 0, 52, 39
1, 547462, Control_c, 0, 64, 47
1, 547477, Control_c, 0, 64, 50
1, 547479, Note_on_c, 0, 55, 15
1, 547492, Control_c, 0, 64, 53
1, 547515, Control_c, 0, 64, 57
1, 547530, Control_c, 0, 64, 61
1, 547534, Note_off_c, 0, 67, 51
1, 547544, Control_c, 0, 64, 63
1, 547559, Control_c, 0, 64, 64
1, 547572, Note_off_c, 0, 52, 53
1, 547574, Control_c, 0, 64, 65
1, 547589, Control_c, 0, 64, 65
1, 547604, Control_c, 0, 64, 66
1, 547605, Note_off_c, 0, 55, 0
1, 547618, Control_c, 0, 64, 67
1, 547625, Note_on_c, 0, 55, 26
1, 547633, Control_c, 0, 64, 68
1, 547638, Note_on_c, 0, 72, 47
1, 547648, Control_c, 0, 64, 69
1, 547652, Note_on_c, 0, 60, 44
1, 547662, Control_c, 0, 64, 70
1, 547683, Note_off_c, 0, 72, 59
1, 547692, Control_c, 0, 64, 70
1, 547700, Note_off_c, 0, 60, 57
1, 547721, Note_off_c, 0, 55, 38
1, 547830, Note_on_c, 0, 76, 49
1, 547862, Note_on_c, 0, 64, 33
1, 547863, Note_on_c, 0, 60, 8
1, 547880, Note_off_c, 0, 76, 57
1, 547887, Poly_aftertouch_c, 0, 67, 127
1, 547899, Note_off_c, 0, 64, 51
1, 547900, Control_c, 0, 64, 70
1, 547908, Note_off_c, 0, 60, 36
1, 547932, Poly_aftertouch_c, 0, 67, 0
1, 547960, Control_c, 0, 64, 69
1, 547974, Control_c, 0, 64, 69
1, 547989, Control_c, 0, 64, 67
1, 548004, Control_c, 0, 64, 64
1, 548016, Note_on_c, 0, 60, 42
1, 548019, Control_c, 0, 64, 59
1, 548021, Note_on_c, 0, 76, 50
1, 548032, Note_on_c, 0, 67, 41
1, 548034, Note_on_c, 0, 64, 33
1, 548034, Control_c, 0, 64, 49
1, 548048, Control_c, 0, 64, 39
1, 548064, Control_c, 0, 64, 41
1, 548079, Control_c, 0, 64, 47
1, 548093, Control_c, 0, 64, 53
1, 548108, Control_c, 0, 64, 57
1, 548123, Note_off_c, 0, 67, 57
1, 548123, Control_c, 0, 64, 59
1, 548153, Control_c, 0, 64, 58
1, 548168, Control_c, 0, 64, 57
1, 548179, Note_off_c, 0, 76, 58
1, 548183, Control_c, 0, 64, 55
1, 548185, Note_off_c, 0, 60, 49
1, 548185, Note_off_c, 0, 64, 58
1, 548198, Control_c, 0, 64, 54
1, 548212, Control_c, 0, 64, 53
1, 548224, Note_on_c, 0, 77, 47
1, 548232, Note_on_c, 0, 65, 26
1, 548237, Note_on_c, 0, 62, 39
1, 548243, Note_on_c, 0, 67, 26
1, 548257, Control_c, 0, 64, 53
1, 548279, Control_c, 0, 64, 54
1, 548283, Note_off_c, 0, 62, 55
1, 548293, Control_c, 0, 64, 54
1, 548296, Note_off_c, 0, 67, 48
1, 548386, Note_off_c, 0, 77, 49
1, 548398, Note_on_c, 0, 74, 47
1, 548409, Note_on_c, 0, 67, 37
1, 548412, Control_c, 0, 64, 55
1, 548419, Note_on_c, 0, 62, 34
1, 548425, Note_off_c, 0, 65, 42
1, 548427, Control_c, 0, 64, 55
1, 548436, Note_on_c, 0, 55, 33
1, 548442, Control_c, 0, 64, 56
1, 548457, Control_c, 0, 64, 57
1, 548472, Control_c, 0, 64, 58
1, 548475, Note_off_c, 0, 67, 57
1, 548486, Control_c, 0, 64, 58
1, 548487, Note_off_c, 0, 74, 60
1, 548496, Note_off_c, 0, 55, 44
1, 548501, Control_c, 0, 64, 59
1, 548510, Note_off_c, 0, 62, 48
1, 548561, Control_c, 0, 64, 58
1, 548603, Note_on_c, 0, 74, 50
1, 548614, Note_on_c, 0, 62, 37
1, 548615, Note_on_c, 0, 67, 35
1, 548634, Note_on_c, 0, 55, 25
1, 548665, Control_c, 0, 64, 59
1, 548667, Note_off_c, 0, 67, 45
1, 548685, Note_off_c, 0, 55, 45
1, 548685, Note_off_c, 0, 74, 57
1, 548695, Control_c, 0, 64, 59
1, 548710, Control_c, 0, 64, 60
1, 548724, Control_c, 0, 64, 61
1, 548739, Control_c, 0, 64, 62
1, 548754, Control_c, 0, 64, 63
1, 548769, Control_c, 0, 64, 63
1, 548776, Note_off_c, 0, 62, 0
1, 548784, Control_c, 0, 64, 65
1, 548785, Note_on_c, 0, 74, 46
1, 548793, Note_on_c, 0, 62, 33
1, 548798, Note_on_c, 0, 67, 37
1, 548798, Control_c, 0, 64, 66
1, 548812, Control_c, 0, 64, 67
1, 548825, Note_on_c, 0, 55, 18
1, 548826, Control_c, 0, 64, 68
1, 548835, Note_off_c, 0, 67, 51
1, 548841, Control_c, 0, 64, 69
1, 548851, Note_off_c, 0, 74, 62
1, 548861, Note_off_c, 0, 62, 50
1, 548864, Note_off_c, 0, 55, 50
1, 548971, Note_on_c, 0, 74, 53
1, 548981, Note_on_c, 0, 62, 47
1, 548984, Note_on_c, 0, 55, 27
1, 548989, Control_c, 0, 64, 68
1, 549005, Note_on_c, 0, 67, 23
1, 549033, Note_off_c, 0, 55, 50
1, 549039, Note_off_c, 0, 62, 55
1, 549053, Note_off_c, 0, 67, 50
1, 549058, Note_off_c, 0, 74, 61
1, 549115, Control_c, 0, 64, 68
1, 549145, Control_c, 0, 64, 66
1, 549160, Control_c, 0, 64, 64
1, 549175, Control_c, 0, 64, 58
1, 549187, Note_on_c, 0, 77, 58
1, 549189, Control_c, 0, 64, 40
1, 549199, Note_on_c, 0, 65, 44
1, 549204, Note_on_c, 0, 67, 39
1, 549204, Control_c, 0, 64, 0
1, 549217, Note_on_c, 0, 62, 32
1, 549263, Control_c, 0, 64, 26
1, 549278, Control_c, 0, 64, 50
1, 549289, Note_off_c, 0, 67, 49
1, 549293, Control_c, 0, 64, 61
1, 549308, Control_c, 0, 64, 65
1, 549310, Note_off_c, 0, 77, 55
1, 549322, Control_c, 0, 64, 66
1, 549353, Control_c, 0, 64, 67
1, 549368, Control_c, 0, 64, 67
1, 549383, Control_c, 0, 64, 68
1, 549386, Note_off_c, 0, 65, 42
1, 549387, Note_off_c, 0, 62, 42
1, 549391, Note_on_c, 0, 76, 47
1, 549393, Note_on_c, 0, 60, 39
1, 549399, Note_on_c, 0, 67, 35
1, 549410, Note_on_c, 0, 64, 30
1, 549438, Note_off_c, 0, 67, 51
1, 549440, Note_off_c, 0, 60, 62
1, 549441, Note_off_c, 0, 64, 54
1, 549490, Note_off_c, 0, 76, 55
1, 549560, Note_on_c, 0, 74, 53
1, 549560, Control_c, 0, 64, 67
1, 549582, Note_on_c, 0, 62, 39
1, 549590, Note_on_c, 0, 55, 31
1, 549590, Note_on_c, 0, 67, 25
1, 549619, Control_c, 0, 64, 67
1, 549626, Note_off_c, 0, 74, 61
1, 549635, Note_off_c, 0, 67, 49
1, 549642, Note_off_c, 0, 62, 57
1, 549646, Note_off_c, 0, 55, 44
1, 549774, Note_on_c, 0, 74, 49
1, 549775, Control_c, 0, 64, 65
1, 549783, Note_on_c, 0, 55, 39
1, 549784, Note_on_c, 0, 67, 42
1, 549790, Control_c, 0, 64, 61
1, 549792, Note_on_c, 0, 62, 40
1, 549805, Control_c, 0, 64, 48
1, 549819, Control_c, 0, 64, 31
1, 549834, Control_c, 0, 64, 31
1, 549849, Control_c, 0, 64, 40
1, 549864, Control_c, 0, 64, 50
1, 549870, Note_off_c, 0, 67, 39
1, 549879, Control_c, 0, 64, 58
1, 549894, Control_c, 0, 64, 63
1, 549905, Note_off_c, 0, 55, 0
1, 549909, Control_c, 0, 64, 64
1, 549923, Control_c, 0, 64, 65
1, 549936, Poly_aftertouch_c, 0, 55, 0
1, 549947, Note_off_c, 0, 62, 51
1, 549963, Note_on_c, 0, 76, 50
1, 549964, Note_on_c, 0, 60, 45
1, 549976, Note_off_c, 0, 74, 36
1, 549983, Control_c, 0, 64, 65
1, 549985, Note_on_c, 0, 64, 34
1, 549992, Note_on_c, 0, 67, 23
1, 549992, Note_off_c, 0, 60, 61
1, 549997, Control_c, 0, 64, 66
1, 550032, Note_off_c, 0, 67, 49
1, 550115, Note_off_c, 0, 64, 34
1, 550140, Note_on_c, 0, 67, 34
1, 550149, Note_on_c, 0, 72, 52
1, 550159, Note_on_c, 0, 52, 40
1, 550160, Note_on_c, 0, 60, 33
1, 550174, Note_off_c, 0, 72, 58
1, 550187, Note_off_c, 0, 76, 34
1, 550221, Note_off_c, 0, 67, 38
1, 550240, Note_off_c, 0, 52, 54
1, 550249, Note_off_c, 0, 60, 59
1, 550337, Note_on_c, 0, 72, 45
1, 550344, Note_on_c, 0, 60, 17
1, 550350, Note_on_c, 0, 67, 39
1, 550365, Note_on_c, 0, 52, 22
1, 550405, Note_off_c, 0, 67, 59
1, 550406, Note_off_c, 0, 52, 56
1, 550417, Note_off_c, 0, 72, 59
1, 550496, Note_off_c, 0, 60, 0
1, 550523, Note_on_c, 0, 72, 49
1, 550526, Note_on_c, 0, 60, 11
1, 550532, Note_on_c, 0, 52, 46
1, 550538, Note_on_c, 0, 67, 33
1, 550593, Note_off_c, 0, 67, 44
1, 550607, Note_off_c, 0, 52, 47
1, 550616, Note_off_c, 0, 72, 59
1, 550672, Control_c, 0, 64, 65
1, 550687, Control_c, 0, 64, 63
1, 550697, Note_off_c, 0, 60, 32
1, 550701, Control_c, 0, 64, 60
1, 550715, Note_on_c, 0, 74, 53
1, 550716, Control_c, 0, 64, 56
1, 550729, Note_on_c, 0, 55, 36
1, 550731, Control_c, 0, 64, 53
1, 550735, Note_on_c, 0, 67, 36
1, 550746, Control_c, 0, 64, 54
1, 550749, Note_on_c, 0, 62, 46
1, 550759, Note_off_c, 0, 55, 58
1, 550761, Control_c, 0, 64, 58
1, 550776, Control_c, 0, 64, 61
1, 550791, Control_c, 0, 64, 63
1, 550803, Note_off_c, 0, 67, 56
1, 550806, Control_c, 0, 64, 65
1, 550820, Control_c, 0, 64, 67
1, 550835, Control_c, 0, 64, 68
1, 550846, Note_off_c, 0, 74, 54
1, 550850, Control_c, 0, 64, 69
1, 550889, Note_off_c, 0, 62, 35
1, 550894, Control_c, 0, 64, 67
1, 550909, Control_c, 0, 64, 63
1, 550915, Note_on_c, 0, 76, 52
1, 550924, Control_c, 0, 64, 50
1, 550925, Note_on_c, 0, 64, 42
1, 550927, Note_on_c, 0, 60, 39
1, 550937, Note_on_c, 0, 67, 38
1, 550940, Control_c, 0, 64, 0
1, 550984, Note_off_c, 0, 67, 48
1, 551062, Note_off_c, 0, 64, 62
1, 551071, Note_off_c, 0, 76, 54
1, 551077, Note_off_c, 0, 60, 60
1, 551096, Note_on_c, 0, 77, 58
1, 551102, Control_c, 0, 64, 14
1, 551106, Note_on_c, 0, 62, 45
1, 551106, Note_on_c, 0, 67, 38
1, 551117, Control_c, 0, 64, 26
1, 551122, Note_on_c, 0, 65, 9
1, 551132, Control_c, 0, 64, 34
1, 551147, Control_c, 0, 64, 38
1, 551158, Note_off_c, 0, 67, 45
1, 551162, Control_c, 0, 64, 40
1, 551170, Note_off_c, 0, 77, 58
1, 551176, Control_c, 0, 64, 41
1, 551186, Note_off_c, 0, 65, 44
1, 551191, Control_c, 0, 64, 43
1, 551206, Control_c, 0, 64, 44
1, 551221, Control_c, 0, 64, 44
1, 551235, Control_c, 0, 64, 45
1, 551248, Note_off_c, 0, 62, 33
1, 551250, Control_c, 0, 64, 46
1, 551273, Control_c, 0, 64, 48
1, 551288, Control_c, 0, 64, 51
1, 551292, Note_on_c, 0, 64, 52
1, 551303, Control_c, 0, 64, 54
1, 551305, Note_on_c, 0, 79, 55
1, 551308, Note_on_c, 0, 67, 42
1, 551317, Control_c, 0, 64, 58
1, 551332, Control_c, 0, 64, 61
1, 551347, Control_c, 0, 64, 62
1, 551356, Note_off_c, 0, 67, 49
1, 551362, Control_c, 0, 64, 63
1, 551377, Control_c, 0, 64, 65
1, 551382, Note_off_c, 0, 79, 55
1, 551386, Note_off_c, 0, 64, 62
1, 551391, Control_c, 0, 64, 66
1, 551406, Control_c, 0, 64, 68
1, 551421, Control_c, 0, 64, 70
1, 551435, Control_c, 0, 64, 73
1, 551450, Control_c, 0, 64, 75
1, 551465, Control_c, 0, 64, 76
1, 551510, Control_c, 0, 64, 74
1, 551517, Note_on_c, 0, 79, 59
1, 551524, Note_on_c, 0, 64, 46
1, 551524, Control_c, 0, 64, 68
1, 551539, Control_c, 0, 64, 62
1, 551540, Note_on_c, 0, 67, 43
1, 551554, Control_c, 0, 64, 52
1, 551569, Control_c, 0, 64, 46
1, 551584, Control_c, 0, 64, 50
1, 551599, Control_c, 0, 64, 55
1, 551614, Control_c, 0, 64, 59
1, 551629, Control_c, 0, 64, 62
1, 551643, Control_c, 0, 64, 64
1, 551658, Control_c, 0, 64, 65
1, 551667, Note_off_c, 0, 67, 37
1, 551680, Note_off_c, 0, 64, 61
1, 551688, Control_c, 0, 64, 63
1, 551703, Control_c, 0, 64, 60
1, 551717, Control_c, 0, 64, 48
1, 551723, Note_on_c, 0, 62, 40
1, 551732, Note_on_c, 0, 77, 53
1, 551733, Control_c, 0, 64, 0
1, 551745, Note_on_c, 0, 67, 34
1, 551751, Note_on_c, 0, 65, 32
1, 551764, Note_off_c, 0, 62, 52
1, 551775, Note_off_c, 0, 79, 34
1, 551778, Control_c, 0, 64, 8
1, 551792, Control_c, 0, 64, 39
1, 551798, Note_off_c, 0, 67, 49
1, 551807, Control_c, 0, 64, 55
1, 551822, Control_c, 0, 64, 60
1, 551837, Control_c, 0, 64, 63
1, 551852, Control_c, 0, 64, 64
1, 551866, Control_c, 0, 64, 64
1, 551875, Note_off_c, 0, 77, 47
1, 551881, Control_c, 0, 64, 65
1, 551896, Control_c, 0, 64, 66
1, 551902, Note_on_c, 0, 74, 51
1, 551911, Control_c, 0, 64, 67
1, 551918, Note_on_c, 0, 62, 29
1, 551919, Note_on_c, 0, 67, 33
1, 551921, Note_on_c, 0, 55, 42
1, 551926, Control_c, 0, 64, 67
1, 551940, Control_c, 0, 64, 68
1, 551963, Note_off_c, 0, 65, 33
1, 551974, Note_off_c, 0, 55, 57
1, 551980, Note_off_c, 0, 74, 63
1, 551995, Note_off_c, 0, 62, 53
1, 551998, Note_off_c, 0, 67, 47
1, 552096, Control_c, 0, 64, 67
1, 552111, Control_c, 0, 64, 65
1, 552116, Note_on_c, 0, 74, 55
1, 552123, Note_on_c, 0, 55, 38
1, 552126, Control_c, 0, 64, 60
1, 552131, Note_on_c, 0, 67, 44
1, 552133, Note_on_c, 0, 62, 37
1, 552140, Control_c, 0, 64, 40
1, 552155, Control_c, 0, 64, 0
1, 552200, Control_c, 0, 64, 21
1, 552214, Control_c, 0, 64, 50
1, 552218, Note_off_c, 0, 67, 51
1, 552229, Control_c, 0, 64, 61
1, 552244, Control_c, 0, 64, 65
1, 552258, Control_c, 0, 64, 66
1, 552272, Note_off_c, 0, 55, 57
1, 552273, Control_c, 0, 64, 67
1, 552288, Control_c, 0, 64, 67
1, 552289, Note_off_c, 0, 74, 57
1, 552301, Note_off_c, 0, 62, 40
1, 552303, Control_c, 0, 64, 68
1, 552310, Note_on_c, 0, 76, 51
1, 552318, Note_on_c, 0, 60, 42
1, 552318, Control_c, 0, 64, 68
1, 552329, Note_on_c, 0, 64, 37
1, 552334, Note_on_c, 0, 67, 18
1, 552349, Note_off_c, 0, 60, 63
1, 552382, Note_off_c, 0, 67, 47
1, 552466, Note_off_c, 0, 64, 41
1, 552484, Note_on_c, 0, 72, 52
1, 552494, Note_on_c, 0, 60, 41
1, 552501, Note_off_c, 0, 76, 34
1, 552515, Note_on_c, 0, 52, 37
1, 552519, Note_on_c, 0, 67, 26
1, 552537, Note_off_c, 0, 72, 52
1, 552550, Note_off_c, 0, 52, 56
1, 552557, Note_off_c, 0, 67, 51
1, 552559, Note_off_c, 0, 60, 48
1, 552660, Control_c, 0, 64, 66
1, 552675, Control_c, 0, 64, 62
1, 552678, Note_on_c, 0, 72, 52
1, 552681, Note_on_c, 0, 52, 44
1, 552689, Control_c, 0, 64, 57
1, 552694, Note_on_c, 0, 60, 43
1, 552704, Control_c, 0, 64, 55
1, 552707, Note_on_c, 0, 67, 30
1, 552719, Control_c, 0, 64, 57
1, 552734, Control_c, 0, 64, 60
1, 552744, Note_off_c, 0, 52, 64
1, 552749, Control_c, 0, 64, 62
1, 552770, Control_c, 0, 64, 64
1, 552785, Note_off_c, 0, 60, 60
1, 552785, Control_c, 0, 64, 65
1, 552794, Note_off_c, 0, 67, 54
1, 552884, Note_on_c, 0, 76, 56
1, 552885, Note_on_c, 0, 64, 47
1, 552886, Note_off_c, 0, 72, 36
1, 552924, Note_on_c, 0, 60, 11
1, 552978, Note_off_c, 0, 60, 45
1, 553018, Note_off_c, 0, 64, 37
1, 553073, Note_on_c, 0, 55, 41
1, 553073, Note_on_c, 0, 74, 47
1, 553082, Note_on_c, 0, 62, 31
1, 553108, Note_off_c, 0, 76, 23
1, 553110, Note_off_c, 0, 55, 65
1, 553110, Note_off_c, 0, 74, 66
1, 553116, Note_off_c, 0, 62, 46
1, 553131, Poly_aftertouch_c, 0, 67, 127
1, 553174, Poly_aftertouch_c, 0, 67, 0
1, 553185, Control_c, 0, 64, 66
1, 553214, Control_c, 0, 64, 66
1, 553244, Control_c, 0, 64, 64
1, 553259, Control_c, 0, 64, 60
1, 553274, Note_on_c, 0, 72, 51
1, 553274, Control_c, 0, 64, 44
1, 553289, Note_on_c, 0, 52, 44
1, 553289, Control_c, 0, 64, 0
1, 553300, Note_on_c, 0, 67, 13
1, 553302, Note_on_c, 0, 60, 31
1, 553319, Control_c, 0, 64, 32
1, 553334, Control_c, 0, 64, 52
1, 553349, Control_c, 0, 64, 61
1, 553364, Control_c, 0, 64, 65
1, 553371, Note_off_c, 0, 67, 44
1, 553378, Control_c, 0, 64, 67
1, 553393, Control_c, 0, 64, 69
1, 553408, Control_c, 0, 64, 69
1, 553423, Control_c, 0, 64, 70
1, 553453, Control_c, 0, 64, 71
1, 553458, Note_on_c, 0, 76, 46
1, 553468, Control_c, 0, 64, 71
1, 553483, Control_c, 0, 64, 72
1, 553486, Note_on_c, 0, 55, 33
1, 553511, Note_off_c, 0, 52, 33
1, 553515, Note_off_c, 0, 60, 38
1, 553519, Control_c, 0, 64, 72
1, 553529, Note_off_c, 0, 72, 39
1, 553539, Poly_aftertouch_c, 0, 67, 127
1, 553557, Note_off_c, 0, 55, 44
1, 553577, Poly_aftertouch_c, 0, 67, 0
1, 553580, Note_off_c, 0, 76, 38
1, 553667, Note_on_c, 0, 79, 61
1, 553679, Note_on_c, 0, 55, 19
1, 553689, Note_on_c, 0, 67, 35
1, 553722, Note_off_c, 0, 67, 53
1, 553730, Note_off_c, 0, 79, 59
1, 553747, Note_off_c, 0, 55, 43
1, 553830, Control_c, 0, 64, 72
1, 553845, Control_c, 0, 64, 70
1, 553860, Control_c, 0, 64, 67
1, 553862, Note_on_c, 0, 79, 64
1, 553865, Note_on_c, 0, 67, 51
1, 553875, Control_c, 0, 64, 63
1, 553881, Note_on_c, 0, 55, 37
1, 553890, Control_c, 0, 64, 59
1, 553904, Control_c, 0, 64, 56
1, 553919, Control_c, 0, 64, 58
1, 553934, Control_c, 0, 64, 61
1, 553940, Note_off_c, 0, 67, 59
1, 553949, Control_c, 0, 64, 63
1, 553963, Control_c, 0, 64, 65
1, 553975, Note_off_c, 0, 55, 54
1, 553978, Control_c, 0, 64, 67
1, 553993, Note_off_c, 0, 79, 55
1, 553993, Control_c, 0, 64, 70
1, 554008, Control_c, 0, 64, 72
1, 554023, Control_c, 0, 64, 72
1, 554037, Control_c, 0, 64, 73
1, 554052, Note_on_c, 0, 81, 59
1, 554058, Note_on_c, 0, 55, 35
1, 554067, Note_on_c, 0, 69, 49
1, 554067, Control_c, 0, 64, 73
1, 554082, Control_c, 0, 64, 74
1, 554097, Note_off_c, 0, 69, 55
1, 554097, Control_c, 0, 64, 74
1, 554123, Note_off_c, 0, 55, 61
1, 554127, Note_off_c, 0, 81, 59
1, 554127, Control_c, 0, 64, 75
1, 554142, Control_c, 0, 64, 75
1, 554246, Note_on_c, 0, 55, 45
1, 554257, Note_on_c, 0, 83, 63
1, 554282, Note_off_c, 0, 55, 62
1, 554289, Note_on_c, 0, 71, 6
1, 554310, Note_off_c, 0, 83, 54
1, 554337, Note_off_c, 0, 71, 45
1, 554416, Control_c, 0, 64, 75
1, 554431, Control_c, 0, 64, 71
1, 554442, Note_on_c, 0, 84, 71
1, 554446, Control_c, 0, 64, 64
1, 554447, Note_on_c, 0, 72, 53
1, 554454, Note_on_c, 0, 55, 35
1, 554456, Note_on_c, 0, 52, 39
1, 554459, Note_on_c, 0, 60, 43
1, 554460, Control_c, 0, 64, 53
1, 554475, Control_c, 0, 64, 26
1, 554490, Control_c, 0, 64, 24
1, 554505, Control_c, 0, 64, 39
1, 554520, Control_c, 0, 64, 53
1, 554535, Control_c, 0, 64, 61
1, 554550, Control_c, 0, 64, 65
1, 554554, Note_off_c, 0, 60, 58
1, 554556, Note_off_c, 0, 72, 37
1, 554560, Note_off_c, 0, 55, 58
1, 554565, Control_c, 0, 64, 68
1, 554579, Control_c, 0, 64, 69
1, 554588, Note_off_c, 0, 84, 59
1, 554638, Note_on_c, 0, 86, 66
1, 554649, Note_off_c, 0, 52, 36
1, 554652, Note_on_c, 0, 62, 49
1, 554654, Note_on_c, 0, 74, 51
1, 554661, Note_on_c, 0, 60, 35
1, 554696, Note_off_c, 0, 74, 59
1, 554705, Note_off_c, 0, 60, 60
1, 554723, Note_off_c, 0, 86, 61
1, 554724, Note_off_c, 0, 62, 60
1, 554844, Note_on_c, 0, 88, 67
1, 554850, Note_on_c, 0, 76, 60
1, 554913, Note_off_c, 0, 76, 62
1, 554928, Note_off_c, 0, 88, 59
1, 555093, Note_on_c, 0, 88, 66
1, 555102, Note_on_c, 0, 64, 38
1, 555104, Note_on_c, 0, 67, 39
1, 555106, Note_on_c, 0, 76, 56
1, 555106, Control_c, 0, 64, 67
1, 555108, Note_on_c, 0, 60, 40
1, 555121, Control_c, 0, 64, 62
1, 555136, Control_c, 0, 64, 38
1, 555151, Control_c, 0, 64, 0
1, 555215, Note_off_c, 0, 76, 61
1, 555224, Control_c, 0, 64, 55
1, 555239, Control_c, 0, 64, 67
1, 555254, Control_c, 0, 64, 76
1, 555255, Note_off_c, 0, 60, 55
1, 555265, Note_off_c, 0, 67, 50
1, 555269, Control_c, 0, 64, 81
1, 555289, Note_off_c, 0, 64, 0
1, 555298, Control_c, 0, 64, 81
1, 555313, Control_c, 0, 64, 76
1, 555322, Note_off_c, 0, 88, 61
1, 555328, Control_c, 0, 64, 69
1, 555329, Note_on_c, 0, 89, 63
1, 555340, Note_on_c, 0, 67, 39
1, 555340, Poly_aftertouch_c, 0, 64, 0
1, 555343, Control_c, 0, 64, 64
1, 555346, Note_on_c, 0, 62, 44
1, 555357, Note_on_c, 0, 65, 26
1, 555358, Control_c, 0, 64, 62
1, 555364, Note_on_c, 0, 77, 19
1, 555373, Control_c, 0, 64, 63
1, 555387, Control_c, 0, 64, 65
1, 555390, Note_off_c, 0, 62, 54
1, 555395, Note_off_c, 0, 77, 50
1, 555402, Control_c, 0, 64, 66
1, 555404, Note_off_c, 0, 65, 46
1, 555409, Note_off_c, 0, 67, 41
1, 555417, Control_c, 0, 64, 68
1, 555432, Control_c, 0, 64, 68
1, 555432, Note_off_c, 0, 89, 50
1, 555522, Note_on_c, 0, 86, 60
1, 555539, Note_on_c, 0, 74, 40
1, 555541, Note_on_c, 0, 67, 43
1, 555552, Note_on_c, 0, 55, 4
1, 555575, Note_on_c, 0, 62, 29
1, 555583, Note_off_c, 0, 74, 49
1, 555597, Note_off_c, 0, 86, 59
1, 555630, Note_off_c, 0, 67, 57
1, 555634, Note_off_c, 0, 55, 56
1, 555636, Note_off_c, 0, 62, 43
1, 555698, Control_c, 0, 64, 69
1, 555711, Note_on_c, 0, 86, 65
1, 555720, Note_on_c, 0, 74, 45
1, 555726, Note_on_c, 0, 67, 35
1, 555733, Note_on_c, 0, 55, 26
1, 555734, Note_on_c, 0, 62, 43
1, 555751, Control_c, 0, 64, 69
1, 555766, Control_c, 0, 64, 70
1, 555781, Control_c, 0, 64, 70
1, 555796, Control_c, 0, 64, 71
1, 555808, Note_off_c, 0, 86, 60
1, 555811, Control_c, 0, 64, 71
1, 555811, Note_off_c, 0, 74, 62
1, 555825, Control_c, 0, 64, 72
1, 555852, Note_off_c, 0, 55, 35
1, 555854, Note_off_c, 0, 67, 38
1, 555858, Note_off_c, 0, 62, 32
1, 555910, Note_on_c, 0, 67, 46
1, 555911, Note_on_c, 0, 62, 38
1, 555912, Note_on_c, 0, 86, 70
1, 555920, Note_on_c, 0, 74, 61
1, 555922, Note_on_c, 0, 55, 39
1, 555944, Control_c, 0, 64, 72
1, 555974, Note_off_c, 0, 74, 58
1, 555996, Note_off_c, 0, 62, 37
1, 556007, Note_off_c, 0, 86, 56
1, 556009, Note_off_c, 0, 55, 38
1, 556013, Note_off_c, 0, 67, 38
1, 556097, Note_on_c, 0, 62, 54
1, 556105, Note_on_c, 0, 74, 43
1, 556107, Note_on_c, 0, 86, 60
1, 556111, Note_on_c, 0, 67, 53
1, 556152, Note_off_c, 0, 62, 56
1, 556157, Note_off_c, 0, 74, 62
1, 556189, Note_off_c, 0, 67, 59
1, 556201, Note_off_c, 0, 86, 61
1, 556315, Control_c, 0, 64, 70
1, 556320, Note_on_c, 0, 89, 70
1, 556329, Control_c, 0, 64, 65
1, 556334, Note_on_c, 0, 65, 46
1, 556337, Note_on_c, 0, 67, 45
1, 556343, Note_on_c, 0, 77, 58
1, 556344, Control_c, 0, 64, 55
1, 556359, Control_c, 0, 64, 0
1, 556361, Note_on_c, 0, 62, 44
1, 556404, Control_c, 0, 64, 28
1, 556419, Control_c, 0, 64, 54
1, 556431, Note_off_c, 0, 62, 0
1, 556431, Note_on_c, 0, 62, 3
1, 556433, Control_c, 0, 64, 64
1, 556437, Note_off_c, 0, 77, 60
1, 556448, Control_c, 0, 64, 69
1, 556463, Control_c, 0, 64, 72
1, 556478, Control_c, 0, 64, 73
1, 556493, Control_c, 0, 64, 74
1, 556508, Note_off_c, 0, 67, 37
1, 556514, Control_c, 0, 64, 75
1, 556529, Note_off_c, 0, 62, 40
1, 556530, Control_c, 0, 64, 75
1, 556532, Note_off_c, 0, 89, 56
1, 556555, Note_off_c, 0, 65, 36
1, 556560, Control_c, 0, 67, 117
1, 556571, Note_on_c, 0, 60, 47
1, 556575, Control_c, 0, 67, 102
1, 556581, Note_on_c, 0, 88, 64
1, 556590, Control_c, 0, 67, 89
1, 556591, Note_on_c, 0, 67, 50
1, 556593, Note_on_c, 0, 76, 56
1, 556604, Control_c, 0, 67, 80
1, 556619, Control_c, 0, 67, 73
1, 556625, Note_off_c, 0, 60, 60
1, 556634, Control_c, 0, 67, 66
1, 556649, Control_c, 0, 67, 61
1, 556663, Control_c, 0, 67, 58
1, 556665, Note_off_c, 0, 88, 61
1, 556671, Note_off_c, 0, 67, 33
1, 556672, Note_off_c, 0, 76, 59
1, 556678, Control_c, 0, 67, 56
1, 556693, Control_c, 0, 67, 56
1, 556786, Note_on_c, 0, 86, 64
1, 556793, Note_on_c, 0, 55, 40
1, 556793, Note_on_c, 0, 67, 50
1, 556795, Note_on_c, 0, 74, 46
1, 556810, Note_on_c, 0, 62, 26
1, 556848, Note_off_c, 0, 67, 44
1, 556854, Note_off_c, 0, 74, 61
1, 556863, Note_off_c, 0, 62, 44
1, 556865, Note_off_c, 0, 86, 61
1, 556871, Control_c, 0, 67, 56
1, 556887, Note_off_c, 0, 55, 37
1, 556916, Control_c, 0, 67, 57
1, 556960, Control_c, 0, 64, 73
1, 556960, Control_c, 0, 67, 57
1, 556974, Control_c, 0, 64, 67
1, 556974, Control_c, 0, 67, 58
1, 556984, Note_on_c, 0, 74, 50
1, 556984, Note_on_c, 0, 86, 67
1, 556989, Control_c, 0, 64, 60
1, 556989, Control_c, 0, 67, 59
1, 556998, Note_on_c, 0, 67, 46
1, 557000, Note_on_c, 0, 55, 44
1, 557001, Note_on_c, 0, 62, 40
1, 557004, Control_c, 0, 64, 39
1, 557004, Control_c, 0, 67, 61
1, 557019, Control_c, 0, 64, 0
1, 557019, Control_c, 0, 67, 64
1, 557034, Control_c, 0, 64, 28
1, 557034, Control_c, 0, 67, 68
1, 557048, Control_c, 0, 64, 48
1, 557048, Control_c, 0, 67, 73
1, 557057, Note_off_c, 0, 74, 61
1, 557063, Control_c, 0, 64, 61
1, 557063, Control_c, 0, 67, 81
1, 557078, Control_c, 0, 64, 67
1, 557078, Control_c, 0, 67, 93
1, 557093, Control_c, 0, 64, 71
1, 557093, Control_c, 0, 67, 105
1, 557098, Note_off_c, 0, 55, 37
1, 557108, Control_c, 0, 64, 74
1, 557108, Control_c, 0, 67, 115
1, 557122, Control_c, 0, 67, 123
1, 557137, Control_c, 0, 67, 127
1, 557151, Note_off_c, 0, 86, 57
1, 557165, Note_on_c, 0, 88, 67
1, 557169, Note_off_c, 0, 62, 32
1, 557180, Note_on_c, 0, 64, 41
1, 557185, Note_on_c, 0, 60, 47
1, 557186, Note_on_c, 0, 76, 52
1, 557206, Note_off_c, 0, 67, 61
1, 557209, Note_off_c, 0, 64, 56
1, 557212, Control_c, 0, 67, 127
1, 557219, Note_off_c, 0, 60, 63
1, 557227, Control_c, 0, 67, 126
1, 557228, Note_off_c, 0, 76, 60
1, 557242, Control_c, 0, 67, 124
1, 557263, Control_c, 0, 67, 123
1, 557271, Note_off_c, 0, 88, 39
1, 557278, Control_c, 0, 67, 122
1, 557293, Control_c, 0, 67, 120
1, 557308, Control_c, 0, 67, 118
1, 557323, Control_c, 0, 67, 115
1, 557339, Control_c, 0, 67, 110
1, 557353, Control_c, 0, 67, 106
1, 557368, Control_c, 0, 67, 102
1, 557370, Note_on_c, 0, 84, 64
1, 557377, Note_on_c, 0, 60, 28
1, 557382, Note_on_c, 0, 52, 46
1, 557383, Control_c, 0, 67, 97
1, 557388, Note_on_c, 0, 72, 47
1, 557398, Control_c, 0, 67, 91
1, 557412, Control_c, 0, 67, 83
1, 557427, Control_c, 0, 67, 73
1, 557442, Control_c, 0, 67, 66
1, 557457, Control_c, 0, 67, 60
1, 557461, Note_off_c, 0, 72, 63
1, 557465, Note_off_c, 0, 52, 61
1, 557468, Note_off_c, 0, 84, 61
1, 557472, Control_c, 0, 67, 55
1, 557483, Note_off_c, 0, 60, 60
1, 557486, Control_c, 0, 67, 51
1, 557501, Control_c, 0, 67, 47
1, 557516, Control_c, 0, 67, 44
1, 557531, Control_c, 0, 67, 42
1, 557546, Control_c, 0, 64, 71
1, 557546, Control_c, 0, 67, 39
1, 557561, Control_c, 0, 64, 65
1, 557561, Control_c, 0, 67, 35
1, 557573, Note_on_c, 0, 84, 68
1, 557575, Control_c, 0, 64, 50
1, 557575, Control_c, 0, 67, 31
1, 557583, Note_on_c, 0, 52, 52
1, 557588, Note_on_c, 0, 60, 51
1, 557590, Control_c, 0, 64, 0
1, 557590, Control_c, 0, 67, 27
1, 557593, Note_on_c, 0, 72, 49
1, 557605, Control_c, 0, 67, 24
1, 557620, Control_c, 0, 64, 36
1, 557620, Control_c, 0, 67, 20
1, 557635, Control_c, 0, 64, 54
1, 557635, Control_c, 0, 67, 16
1, 557650, Control_c, 0, 64, 63
1, 557650, Control_c, 0, 67, 12
1, 557665, Control_c, 0, 64, 66
1, 557665, Control_c, 0, 67, 0
1, 557677, Note_off_c, 0, 72, 64
1, 557679, Control_c, 0, 64, 68
1, 557691, Note_off_c, 0, 84, 60
1, 557694, Control_c, 0, 64, 68
1, 557709, Control_c, 0, 64, 69
1, 557724, Control_c, 0, 64, 70
1, 557739, Control_c, 0, 64, 71
1, 557750, Note_off_c, 0, 52, 36
1, 557753, Control_c, 0, 64, 71
1, 557768, Control_c, 0, 64, 72
1, 557772, Note_on_c, 0, 84, 64
1, 557778, Note_on_c, 0, 72, 62
1, 557797, Control_c, 0, 64, 72
1, 557801, Note_on_c, 0, 55, 49
1, 557805, Note_on_c, 0, 62, 22
1, 557812, Control_c, 0, 64, 73
1, 557827, Control_c, 0, 64, 73
1, 557841, Note_off_c, 0, 55, 60
1, 557842, Control_c, 0, 64, 74
1, 557847, Note_off_c, 0, 62, 48
1, 557849, Note_off_c, 0, 72, 59
1, 557857, Control_c, 0, 64, 74
1, 557865, Note_off_c, 0, 60, 58
1, 557901, Note_off_c, 0, 84, 56
1, 557901, Control_c, 0, 64, 75
1, 557968, Note_on_c, 0, 86, 76
1, 557981, Note_on_c, 0, 62, 54
1, 557982, Note_on_c, 0, 74, 61
1, 558035, Note_off_c, 0, 62, 62
1, 558043, Note_off_c, 0, 74, 47
1, 558047, Note_off_c, 0, 86, 62
1, 558176, Control_c, 0, 64, 72
1, 558190, Note_on_c, 0, 88, 77
1, 558191, Control_c, 0, 64, 66
1, 558196, Note_on_c, 0, 60, 53
1, 558199, Note_on_c, 0, 76, 68
1, 558206, Note_on_c, 0, 64, 53
1, 558206, Control_c, 0, 64, 55
1, 558221, Control_c, 0, 64, 0
1, 558280, Control_c, 0, 64, 43
1, 558295, Control_c, 0, 64, 60
1, 558300, Note_off_c, 0, 76, 63
1, 558309, Control_c, 0, 64, 65
1, 558324, Control_c, 0, 64, 67
1, 558339, Control_c, 0, 64, 67
1, 558354, Control_c, 0, 64, 68
1, 558369, Control_c, 0, 64, 68
1, 558383, Control_c, 0, 64, 69
1, 558386, Note_off_c, 0, 88, 59
1, 558398, Control_c, 0, 64, 70
1, 558408, Note_on_c, 0, 90, 77
1, 558413, Control_c, 0, 64, 69
1, 558423, Note_on_c, 0, 78, 62
1, 558428, Control_c, 0, 64, 65
1, 558431, Note_on_c, 0, 66, 53
1, 558431, Note_off_c, 0, 60, 54
1, 558434, Note_on_c, 0, 62, 56
1, 558443, Control_c, 0, 64, 58
1, 558458, Control_c, 0, 64, 0
1, 558461, Note_off_c, 0, 64, 30
1, 558517, Control_c, 0, 64, 31
1, 558532, Control_c, 0, 64, 56
1, 558547, Control_c, 0, 64, 63
1, 558552, Note_off_c, 0, 78, 61
1, 558562, Control_c, 0, 64, 66
1, 558577, Control_c, 0, 64, 67
1, 558592, Control_c, 0, 64, 67
1, 558621, Control_c, 0, 64, 68
1, 558636, Control_c, 0, 64, 70
1, 558646, Note_off_c, 0, 66, 58
1, 558651, Note_on_c, 0, 91, 76
1, 558651, Control_c, 0, 64, 71
1, 558662, Note_on_c, 0, 67, 53
1, 558666, Control_c, 0, 64, 72
1, 558669, Note_off_c, 0, 62, 50
1, 558673, Note_on_c, 0, 79, 49
1, 558675, Note_on_c, 0, 64, 45
1, 558681, Control_c, 0, 64, 72
1, 558713, Note_off_c, 0, 90, 36
1, 558734, Note_off_c, 0, 79, 57
1, 558792, Note_off_c, 0, 64, 58
1, 558801, Note_off_c, 0, 67, 46
1, 558803, Note_off_c, 0, 91, 58
1, 558954, Note_on_c, 0, 91, 72
1, 558956, Control_c, 0, 64, 71
1, 558968, Note_on_c, 0, 61, 42
1, 558970, Control_c, 0, 64, 68
1, 558974, Note_on_c, 0, 79, 57
1, 558985, Control_c, 0, 64, 62
1, 558986, Note_on_c, 0, 67, 42
1, 559000, Control_c, 0, 64, 37
1, 559015, Control_c, 0, 64, 0
1, 559074, Control_c, 0, 64, 28
1, 559089, Control_c, 0, 64, 61
1, 559091, Note_off_c, 0, 79, 60
1, 559104, Control_c, 0, 64, 68
1, 559119, Control_c, 0, 64, 72
1, 559133, Control_c, 0, 64, 74
1, 559148, Control_c, 0, 64, 75
1, 559163, Control_c, 0, 64, 75
1, 559204, Note_on_c, 0, 90, 70
1, 559207, Control_c, 0, 67, 14
1, 559222, Control_c, 0, 67, 29
1, 559223, Note_on_c, 0, 66, 43
1, 559224, Note_on_c, 0, 78, 50
1, 559229, Note_off_c, 0, 91, 51
1, 559230, Note_on_c, 0, 62, 26
1, 559237, Control_c, 0, 67, 45
1, 559238, Note_off_c, 0, 67, 35
1, 559251, Control_c, 0, 67, 63
1, 559258, Note_off_c, 0, 66, 63
1, 559266, Control_c, 0, 67, 75
1, 559267, Note_off_c, 0, 62, 46
1, 559267, Note_off_c, 0, 61, 53
1, 559281, Note_off_c, 0, 78, 61
1, 559281, Control_c, 0, 67, 86
1, 559283, Note_off_c, 0, 90, 62
1, 559296, Control_c, 0, 67, 96
1, 559311, Control_c, 0, 67, 106
1, 559325, Control_c, 0, 67, 113
1, 559340, Control_c, 0, 67, 119
1, 559355, Control_c, 0, 67, 124
1, 559370, Control_c, 0, 64, 74
1, 559370, Control_c, 0, 67, 127
1, 559385, Control_c, 0, 64, 73
1, 559385, Control_c, 0, 67, 127
1, 559393, Note_on_c, 0, 76, 60
1, 559393, Note_on_c, 0, 88, 67
1, 559400, Control_c, 0, 64, 72
1, 559408, Note_on_c, 0, 60, 37
1, 559415, Control_c, 0, 64, 72
1, 559425, Note_on_c, 0, 64, 43
1, 559430, Control_c, 0, 64, 71
1, 559444, Control_c, 0, 67, 127
1, 559459, Control_c, 0, 64, 71
1, 559459, Control_c, 0, 67, 126
1, 559483, Note_off_c, 0, 76, 54
1, 559525, Control_c, 0, 64, 70
1, 559540, Control_c, 0, 64, 64
1, 559555, Control_c, 0, 64, 51
1, 559570, Control_c, 0, 64, 0
1, 559575, Note_off_c, 0, 64, 50
1, 559576, Note_off_c, 0, 88, 55
1, 559585, Control_c, 0, 67, 127
1, 559596, Note_off_c, 0, 60, 52
1, 559599, Note_on_c, 0, 86, 62
1, 559599, Control_c, 0, 64, 30
1, 559599, Control_c, 0, 67, 127
1, 559609, Note_on_c, 0, 59, 42
1, 559614, Control_c, 0, 64, 48
1, 559617, Note_on_c, 0, 74, 43
1, 559620, Note_on_c, 0, 62, 39
1, 559629, Control_c, 0, 64, 60
1, 559644, Control_c, 0, 64, 64
1, 559659, Control_c, 0, 64, 66
1, 559673, Note_off_c, 0, 62, 58
1, 559674, Control_c, 0, 64, 66
1, 559689, Note_off_c, 0, 86, 61
1, 559690, Note_off_c, 0, 59, 62
1, 559695, Note_off_c, 0, 74, 63
1, 559704, Control_c, 0, 64, 67
1, 559749, Control_c, 0, 64, 68
1, 559763, Control_c, 0, 64, 68
1, 559793, Control_c, 0, 64, 66
1, 559800, Note_on_c, 0, 57, 44
1, 559808, Control_c, 0, 64, 62
1, 559817, Note_on_c, 0, 72, 36
1, 559823, Control_c, 0, 64, 51
1, 559827, Note_on_c, 0, 84, 41
1, 559834, Note_on_c, 0, 60, 34
1, 559838, Control_c, 0, 64, 38
1, 559853, Control_c, 0, 64, 41
1, 559868, Control_c, 0, 64, 50
1, 559880, Note_off_c, 0, 72, 50
1, 559882, Control_c, 0, 64, 59
1, 559897, Control_c, 0, 64, 63
1, 559912, Control_c, 0, 64, 65
1, 559927, Control_c, 0, 64, 66
1, 559941, Note_off_c, 0, 57, 54
1, 559942, Control_c, 0, 64, 66
1, 559954, Note_off_c, 0, 84, 56
1, 559956, Control_c, 0, 64, 67
1, 559971, Control_c, 0, 64, 68
1, 559985, Note_on_c, 0, 55, 35
1, 559986, Control_c, 0, 64, 69
1, 559987, Note_on_c, 0, 83, 54
1, 559992, Note_on_c, 0, 71, 52
1, 559994, Note_on_c, 0, 59, 32
1, 560000, Control_c, 0, 64, 70
1, 560015, Control_c, 0, 64, 70
1, 560019, Note_off_c, 0, 60, 32
1, 560042, Note_off_c, 0, 71, 56
1, 560044, Note_off_c, 0, 55, 58
1, 560047, Note_off_c, 0, 83, 61
1, 560056, Note_off_c, 0, 59, 46
1, 560192, Control_c, 0, 64, 69
1, 560196, Note_on_c, 0, 81, 62
1, 560205, Note_on_c, 0, 50, 37
1, 560207, Control_c, 0, 64, 65
1, 560210, Note_on_c, 0, 69, 41
1, 560214, Note_on_c, 0, 57, 37
1, 560222, Control_c, 0, 64, 55
1, 560237, Control_c, 0, 64, 21
1, 560259, Control_c, 0, 64, 0
1, 560285, Note_off_c, 0, 69, 60
1, 560288, Control_c, 0, 64, 33
1, 560303, Control_c, 0, 64, 51
1, 560318, Control_c, 0, 64, 61
1, 560333, Control_c, 0, 64, 65
1, 560348, Control_c, 0, 64, 67
1, 560357, Note_off_c, 0, 57, 56
1, 560362, Note_off_c, 0, 81, 57
1, 560363, Control_c, 0, 64, 68
1, 560377, Control_c, 0, 64, 69
1, 560392, Control_c, 0, 64, 71
1, 560398, Note_on_c, 0, 83, 54
1, 560407, Control_c, 0, 64, 73
1, 560411, Note_on_c, 0, 59, 46
1, 560422, Control_c, 0, 64, 76
1, 560437, Control_c, 0, 64, 77
1, 560444, Note_on_c, 0, 55, 32
1, 560446, Note_on_c, 0, 71, 31
1, 560452, Control_c, 0, 64, 78
1, 560467, Control_c, 0, 64, 78
1, 560467, Note_off_c, 0, 50, 37
1, 560476, Note_off_c, 0, 71, 54
1, 560481, Control_c, 0, 64, 79
1, 560496, Control_c, 0, 64, 80
1, 560511, Control_c, 0, 64, 81
1, 560527, Control_c, 0, 64, 81
1, 560538, Note_off_c, 0, 83, 47
1, 560596, Note_off_c, 0, 59, 29
1, 560616, Note_on_c, 0, 81, 57
1, 560637, Note_on_c, 0, 69, 49
1, 560640, Note_on_c, 0, 50, 33
1, 560643, Note_off_c, 0, 55, 40
1, 560687, Note_off_c, 0, 81, 56
1, 560699, Note_off_c, 0, 50, 41
1, 560711, Note_off_c, 0, 69, 57
1, 560852, Control_c, 0, 64, 81
1, 560896, Control_c, 0, 64, 78
1, 560899, Note_on_c, 0, 79, 53
1, 560911, Control_c, 0, 64, 74
1, 560923, Note_on_c, 0, 67, 40
1, 560926, Control_c, 0, 64, 68
1, 560929, Note_on_c, 0, 43, 37
1, 560937, Note_on_c, 0, 47, 29
1, 560941, Control_c, 0, 64, 61
1, 560949, Note_on_c, 0, 55, 34
1, 560956, Control_c, 0, 64, 34
1, 560971, Control_c, 0, 64, 0
1, 561037, Control_c, 0, 64, 28
1, 561052, Control_c, 0, 64, 53
1, 561067, Control_c, 0, 64, 62
1, 561082, Control_c, 0, 64, 65
1, 561096, Control_c, 0, 64, 66
1, 561101, Note_off_c, 0, 67, 37
1, 561111, Control_c, 0, 64, 68
1, 561126, Control_c, 0, 64, 70
1, 561141, Control_c, 0, 64, 73
1, 561155, Control_c, 0, 64, 76
1, 561170, Control_c, 0, 64, 78
1, 561185, Control_c, 0, 64, 79
1, 561200, Control_c, 0, 64, 80
1, 561215, Control_c, 0, 64, 80
1, 561239, Note_on_c, 0, 67, 44
1, 561260, Control_c, 0, 64, 81
1, 561346, Note_off_c, 0, 67, 37
1, 561417, Note_off_c, 0, 43, 39
1, 561467, Note_on_c, 0, 67, 45
1, 561467, Note_off_c, 0, 47, 40
1, 561468, Control_c, 0, 64, 80
1, 561509, Note_off_c, 0, 55, 42
1, 561531, Note_off_c, 0, 67, 52
1, 561541, Control_c, 0, 64, 80
1, 561547, Note_off_c, 0, 79, 12
1, 561570, Control_c, 0, 64, 79
1, 561600, Control_c, 0, 64, 79
1, 561644, Control_c, 0, 64, 78
1, 561662, Note_on_c, 0, 67, 47
1, 561674, Control_c, 0, 64, 78
1, 561756, Control_c, 0, 64, 77
1, 561766, Note_off_c, 0, 67, 37
1, 561844, Control_c, 0, 64, 77
1, 561889, Control_c, 0, 64, 76
1, 561893, Note_on_c, 0, 67, 37
1, 561919, Control_c, 0, 64, 76
1, 561954, Note_off_c, 0, 67, 42
1, 562100, Note_on_c, 0, 67, 33
1, 562174, Note_off_c, 0, 67, 41
1, 562201, Control_c, 0, 64, 75
1, 562275, Control_c, 0, 64, 75
1, 562290, Control_c, 0, 64, 74
1, 562305, Control_c, 0, 64, 72
1, 562320, Control_c, 0, 64, 69
1, 562335, Control_c, 0, 64, 64
1, 562347, Note_on_c, 0, 67, 29
1, 562349, Control_c, 0, 64, 56
1, 562364, Control_c, 0, 64, 42
1, 562368, Note_on_c, 0, 55, 19
1, 562379, Control_c, 0, 64, 41
1, 562393, Control_c, 0, 64, 51
1, 562408, Control_c, 0, 64, 59
1, 562423, Control_c, 0, 64, 64
1, 562438, Control_c, 0, 64, 66
1, 562453, Control_c, 0, 64, 68
1, 562467, Control_c, 0, 64, 70
1, 562482, Note_off_c, 0, 55, 36
1, 562482, Note_off_c, 0, 67, 43
1, 562482, Control_c, 0, 64, 71
1, 562505, Control_c, 0, 64, 71
1, 562598, Note_on_c, 0, 63, 25
1, 562598, Note_on_c, 0, 72, 36
1, 562623, Note_on_c, 0, 55, 31
1, 562657, Note_off_c, 0, 72, 41
1, 562661, Note_off_c, 0, 63, 41
1, 562666, Note_off_c, 0, 55, 49
1, 562861, Note_on_c, 0, 75, 39
1, 562862, Note_on_c, 0, 67, 36
1, 562893, Note_on_c, 0, 55, 9
1, 562952, Note_off_c, 0, 55, 45
1, 562959, Note_off_c, 0, 75, 56
1, 562974, Note_off_c, 0, 67, 43
1, 563098, Control_c, 0, 64, 71
1, 563157, Control_c, 0, 64, 70
1, 563172, Control_c, 0, 64, 68
1, 563187, Control_c, 0, 64, 64
1, 563202, Control_c, 0, 64, 61
1, 563203, Note_on_c, 0, 75, 43
1, 563206, Note_on_c, 0, 67, 38
1, 563216, Control_c, 0, 64, 60
1, 563224, Note_on_c, 0, 55, 10
1, 563254, Control_c, 0, 64, 60
1, 563269, Control_c, 0, 64, 61
1, 563284, Control_c, 0, 64, 63
1, 563298, Control_c, 0, 64, 64
1, 563313, Control_c, 0, 64, 65
1, 563328, Control_c, 0, 64, 66
1, 563332, Note_off_c, 0, 75, 59
1, 563340, Note_off_c, 0, 67, 55
1, 563342, Control_c, 0, 64, 68
1, 563352, Note_off_c, 0, 55, 41
1, 563357, Control_c, 0, 64, 69
1, 563372, Control_c, 0, 64, 71
1, 563387, Control_c, 0, 64, 72
1, 563402, Control_c, 0, 64, 72
1, 563499, Note_on_c, 0, 74, 39
1, 563519, Note_on_c, 0, 55, 24
1, 563532, Note_on_c, 0, 65, 22
1, 563562, Poly_aftertouch_c, 0, 67, 127
1, 563606, Note_off_c, 0, 74, 60
1, 563611, Poly_aftertouch_c, 0, 67, 0
1, 563618, Note_off_c, 0, 55, 37
1, 563627, Note_off_c, 0, 65, 39
1, 563742, Note_on_c, 0, 74, 42
1, 563752, Note_on_c, 0, 65, 21
1, 563757, Note_on_c, 0, 55, 28
1, 563816, Poly_aftertouch_c, 0, 67, 127
1, 563832, Control_c, 0, 64, 73
1, 563846, Note_off_c, 0, 74, 49
1, 563855, Poly_aftertouch_c, 0, 67, 0
1, 563862, Control_c, 0, 64, 74
1, 563862, Note_off_c, 0, 55, 37
1, 563866, Note_off_c, 0, 65, 42
1, 563877, Control_c, 0, 64, 74
1, 563892, Control_c, 0, 64, 76
1, 563907, Control_c, 0, 64, 77
1, 563921, Control_c, 0, 64, 78
1, 563936, Control_c, 0, 64, 79
1, 563951, Control_c, 0, 64, 80
1, 563958, Note_on_c, 0, 74, 46
1, 563965, Control_c, 0, 64, 80
1, 563972, Note_on_c, 0, 67, 30
1, 563998, Note_on_c, 0, 65, 26
1, 564008, Note_on_c, 0, 55, 23
1, 564017, Control_c, 0, 64, 81
1, 564027, Note_off_c, 0, 67, 46
1, 564051, Note_off_c, 0, 55, 48
1, 564069, Note_off_c, 0, 74, 36
1, 564089, Note_off_c, 0, 65, 39
1, 564173, Note_on_c, 0, 74, 44
1, 564197, Note_on_c, 0, 65, 40
1, 564197, Note_on_c, 0, 67, 34
1, 564234, Poly_aftertouch_c, 0, 55, 127
1, 564236, Note_off_c, 0, 67, 50
1, 564238, Note_on_c, 0, 55, 3
1, 564250, Note_off_c, 0, 65, 43
1, 564250, Note_off_c, 0, 74, 50
1, 564254, Control_c, 0, 64, 80
1, 564276, Note_off_c, 0, 55, 51
1, 564313, Control_c, 0, 64, 80
1, 564343, Control_c, 0, 64, 79
1, 564384, Note_on_c, 0, 74, 49
1, 564387, Control_c, 0, 64, 79
1, 564396, Note_on_c, 0, 55, 42
1, 564403, Note_on_c, 0, 65, 35
1, 564429, Note_on_c, 0, 67, 20
1, 564492, Note_off_c, 0, 65, 36
1, 564497, Note_off_c, 0, 67, 42
1, 564497, Note_off_c, 0, 74, 56
1, 564501, Note_off_c, 0, 55, 36
1, 564640, Control_c, 0, 64, 77
1, 564655, Control_c, 0, 64, 72
1, 564661, Note_on_c, 0, 68, 44
1, 564663, Note_on_c, 0, 77, 40
1, 564670, Control_c, 0, 64, 67
1, 564685, Control_c, 0, 64, 61
1, 564690, Note_on_c, 0, 55, 17
1, 564700, Control_c, 0, 64, 53
1, 564729, Control_c, 0, 64, 56
1, 564746, Poly_aftertouch_c, 0, 67, 127
1, 564751, Control_c, 0, 64, 58
1, 564766, Control_c, 0, 64, 61
1, 564781, Control_c, 0, 64, 63
1, 564795, Control_c, 0, 64, 65
1, 564810, Poly_aftertouch_c, 0, 67, 0
1, 564810, Control_c, 0, 64, 67
1, 564825, Control_c, 0, 64, 69
1, 564840, Control_c, 0, 64, 71
1, 564855, Control_c, 0, 64, 72
1, 564860, Note_off_c, 0, 55, 40
1, 564863, Note_off_c, 0, 77, 55
1, 564866, Note_off_c, 0, 68, 61
1, 564885, Control_c, 0, 64, 72
1, 564960, Note_on_c, 0, 67, 48
1, 564967, Note_on_c, 0, 75, 46
1, 564976, Note_on_c, 0, 55, 41
1, 565049, Note_off_c, 0, 75, 45
1, 565057, Note_off_c, 0, 55, 50
1, 565057, Note_off_c, 0, 67, 52
1, 565180, Note_on_c, 0, 74, 41
1, 565195, Note_on_c, 0, 65, 41
1, 565195, Note_on_c, 0, 55, 32
1, 565204, Note_on_c, 0, 67, 26
1, 565226, Control_c, 0, 64, 72
1, 565254, Note_off_c, 0, 74, 62
1, 565255, Note_off_c, 0, 67, 46
1, 565276, Note_off_c, 0, 55, 39
1, 565293, Note_off_c, 0, 65, 37
1, 565465, Control_c, 0, 64, 71
1, 565472, Note_on_c, 0, 74, 44
1, 565473, Note_on_c, 0, 65, 41
1, 565480, Control_c, 0, 64, 68
1, 565493, Note_on_c, 0, 67, 38
1, 565502, Control_c, 0, 64, 64
1, 565510, Note_on_c, 0, 55, 24
1, 565517, Control_c, 0, 64, 57
1, 565531, Control_c, 0, 64, 40
1, 565546, Control_c, 0, 64, 26
1, 565561, Control_c, 0, 64, 33
1, 565576, Control_c, 0, 64, 43
1, 565591, Control_c, 0, 64, 53
1, 565606, Control_c, 0, 64, 58
1, 565620, Control_c, 0, 64, 61
1, 565624, Note_off_c, 0, 67, 36
1, 565635, Control_c, 0, 64, 63
1, 565650, Control_c, 0, 64, 65
1, 565653, Note_off_c, 0, 65, 47
1, 565655, Note_off_c, 0, 55, 41
1, 565665, Control_c, 0, 64, 67
1, 565680, Control_c, 0, 64, 68
1, 565685, Note_off_c, 0, 74, 36
1, 565694, Control_c, 0, 64, 69
1, 565709, Control_c, 0, 64, 69
1, 565725, Note_on_c, 0, 72, 40
1, 565736, Note_on_c, 0, 63, 42
1, 565738, Control_c, 0, 64, 70
1, 565740, Note_on_c, 0, 55, 26
1, 565762, Note_on_c, 0, 67, 22
1, 565800, Note_off_c, 0, 72, 55
1, 565803, Note_off_c, 0, 67, 51
1, 565813, Note_off_c, 0, 55, 41
1, 565833, Note_off_c, 0, 63, 37
1, 565916, Control_c, 0, 64, 69
1, 565923, Note_on_c, 0, 63, 37
1, 565924, Note_on_c, 0, 67, 29
1, 565930, Note_on_c, 0, 72, 49
1, 565931, Control_c, 0, 64, 69
1, 565937, Note_on_c, 0, 55, 45
1, 565946, Control_c, 0, 64, 68
1, 565976, Control_c, 0, 64, 68
1, 565988, Note_off_c, 0, 67, 41
1, 565992, Note_off_c, 0, 72, 52
1, 566003, Note_off_c, 0, 55, 54
1, 566034, Control_c, 0, 64, 67
1, 566047, Note_off_c, 0, 63, 36
1, 566063, Control_c, 0, 64, 67
1, 566093, Control_c, 0, 64, 66
1, 566109, Control_c, 0, 64, 66
1, 566112, Note_on_c, 0, 63, 46
1, 566127, Note_on_c, 0, 55, 43
1, 566131, Note_on_c, 0, 72, 48
1, 566134, Note_on_c, 0, 67, 36
1, 566175, Note_off_c, 0, 72, 57
1, 566178, Note_off_c, 0, 67, 47
1, 566193, Note_off_c, 0, 55, 47
1, 566198, Control_c, 0, 64, 65
1, 566209, Note_off_c, 0, 63, 55
1, 566250, Control_c, 0, 64, 65
1, 566295, Control_c, 0, 64, 64
1, 566321, Note_on_c, 0, 63, 44
1, 566330, Note_on_c, 0, 55, 38
1, 566333, Note_on_c, 0, 72, 42
1, 566347, Note_on_c, 0, 67, 28
1, 566397, Note_off_c, 0, 67, 46
1, 566398, Note_off_c, 0, 55, 55
1, 566422, Note_off_c, 0, 72, 51
1, 566457, Control_c, 0, 64, 65
1, 566460, Note_off_c, 0, 63, 35
1, 566486, Control_c, 0, 64, 65
1, 566520, Note_on_c, 0, 74, 51
1, 566521, Note_on_c, 0, 55, 45
1, 566524, Note_on_c, 0, 67, 33
1, 566530, Note_on_c, 0, 65, 42
1, 566531, Control_c, 0, 64, 66
1, 566580, Note_off_c, 0, 55, 55
1, 566591, Note_off_c, 0, 65, 59
1, 566596, Note_off_c, 0, 74, 63
1, 566615, Note_off_c, 0, 67, 38
1, 566679, Control_c, 0, 64, 65
1, 566694, Control_c, 0, 64, 64
1, 566706, Note_on_c, 0, 67, 57
1, 566709, Control_c, 0, 64, 60
1, 566716, Note_on_c, 0, 75, 57
1, 566724, Control_c, 0, 64, 43
1, 566739, Control_c, 0, 64, 0
1, 566745, Note_on_c, 0, 55, 22
1, 566768, Control_c, 0, 64, 12
1, 566783, Control_c, 0, 64, 38
1, 566798, Control_c, 0, 64, 54
1, 566813, Note_off_c, 0, 67, 55
1, 566813, Control_c, 0, 64, 62
1, 566828, Control_c, 0, 64, 64
1, 566842, Control_c, 0, 64, 65
1, 566855, Note_off_c, 0, 55, 38
1, 566872, Control_c, 0, 64, 65
1, 566886, Control_c, 0, 64, 66
1, 566901, Control_c, 0, 64, 67
1, 566915, Note_on_c, 0, 55, 30
1, 566918, Control_c, 0, 64, 67
1, 566920, Note_off_c, 0, 75, 35
1, 566921, Note_on_c, 0, 65, 44
1, 566924, Note_on_c, 0, 77, 44
1, 566938, Note_on_c, 0, 67, 36
1, 566974, Note_off_c, 0, 67, 51
1, 566977, Note_off_c, 0, 65, 57
1, 567015, Note_off_c, 0, 77, 58
1, 567025, Note_off_c, 0, 55, 37
1, 567124, Note_on_c, 0, 79, 44
1, 567126, Note_on_c, 0, 67, 39
1, 567132, Note_on_c, 0, 55, 24
1, 567136, Note_on_c, 0, 63, 41
1, 567162, Control_c, 0, 64, 67
1, 567171, Note_off_c, 0, 67, 48
1, 567171, Note_off_c, 0, 55, 52
1, 567174, Note_off_c, 0, 63, 54
1, 567184, Note_off_c, 0, 79, 52
1, 567309, Control_c, 0, 64, 66
1, 567324, Control_c, 0, 64, 63
1, 567333, Note_on_c, 0, 79, 55
1, 567334, Note_on_c, 0, 55, 37
1, 567339, Control_c, 0, 64, 55
1, 567349, Note_on_c, 0, 67, 48
1, 567351, Note_on_c, 0, 63, 36
1, 567354, Control_c, 0, 64, 31
1, 567369, Control_c, 0, 64, 0
1, 567427, Note_off_c, 0, 67, 59
1, 567443, Control_c, 0, 64, 35
1, 567457, Control_c, 0, 64, 43
1, 567459, Note_off_c, 0, 55, 45
1, 567472, Control_c, 0, 64, 46
1, 567502, Control_c, 0, 64, 45
1, 567505, Note_off_c, 0, 63, 48
1, 567517, Control_c, 0, 64, 46
1, 567523, Note_off_c, 0, 79, 36
1, 567530, Note_on_c, 0, 56, 39
1, 567532, Control_c, 0, 64, 47
1, 567532, Note_on_c, 0, 77, 51
1, 567546, Note_on_c, 0, 65, 30
1, 567547, Control_c, 0, 64, 50
1, 567549, Note_on_c, 0, 62, 37
1, 567561, Control_c, 0, 64, 52
1, 567576, Control_c, 0, 64, 52
1, 567588, Note_off_c, 0, 65, 47
1, 567591, Control_c, 0, 64, 52
1, 567602, Note_off_c, 0, 56, 55
1, 567606, Control_c, 0, 64, 51
1, 567612, Note_off_c, 0, 62, 41
1, 567621, Control_c, 0, 64, 51
1, 567636, Control_c, 0, 64, 50
1, 567666, Note_off_c, 0, 77, 36
1, 567695, Control_c, 0, 64, 51
1, 567709, Note_on_c, 0, 74, 55
1, 567710, Control_c, 0, 64, 52
1, 567725, Control_c, 0, 64, 54
1, 567742, Note_on_c, 0, 62, 39
1, 567747, Note_on_c, 0, 56, 40
1, 567747, Control_c, 0, 64, 56
1, 567758, Note_on_c, 0, 65, 29
1, 567762, Control_c, 0, 64, 57
1, 567777, Control_c, 0, 64, 58
1, 567787, Note_off_c, 0, 56, 61
1, 567788, Note_off_c, 0, 74, 61
1, 567805, Note_off_c, 0, 62, 42
1, 567807, Control_c, 0, 64, 59
1, 567809, Note_off_c, 0, 65, 45
1, 567821, Control_c, 0, 64, 59
1, 567836, Control_c, 0, 64, 60
1, 567866, Control_c, 0, 64, 60
1, 567881, Control_c, 0, 64, 61
1, 567895, Control_c, 0, 64, 61
1, 567925, Note_on_c, 0, 74, 49
1, 567933, Note_on_c, 0, 62, 49
1, 567935, Note_on_c, 0, 56, 42
1, 567943, Note_on_c, 0, 65, 39
1, 568058, Note_off_c, 0, 62, 49
1, 568071, Note_off_c, 0, 56, 51
1, 568090, Note_off_c, 0, 65, 46
1, 568116, Note_off_c, 0, 74, 59
1, 568118, Control_c, 0, 64, 61
1, 568131, Note_on_c, 0, 55, 36
1, 568131, Note_on_c, 0, 63, 45
1, 568133, Control_c, 0, 64, 60
1, 568136, Note_on_c, 0, 67, 41
1, 568140, Note_on_c, 0, 72, 46
1, 568147, Control_c, 0, 64, 57
1, 568162, Control_c, 0, 64, 44
1, 568177, Control_c, 0, 64, 14
1, 568192, Control_c, 0, 64, 0
1, 568203, Note_off_c, 0, 67, 57
1, 568210, Note_off_c, 0, 55, 40
1, 568216, Note_off_c, 0, 63, 59
1, 568221, Control_c, 0, 64, 26
1, 568226, Note_off_c, 0, 72, 62
1, 568236, Control_c, 0, 64, 41
1, 568251, Control_c, 0, 64, 54
1, 568265, Control_c, 0, 64, 59
1, 568280, Control_c, 0, 64, 61
1, 568295, Control_c, 0, 64, 61
1, 568310, Control_c, 0, 64, 62
1, 568325, Control_c, 0, 64, 63
1, 568328, Note_on_c, 0, 55, 43
1, 568328, Note_on_c, 0, 63, 36
1, 568339, Note_on_c, 0, 67, 27
1, 568339, Control_c, 0, 64, 64
1, 568342, Note_on_c, 0, 72, 5
1, 568354, Control_c, 0, 64, 65
1, 568369, Control_c, 0, 64, 66
1, 568382, Note_off_c, 0, 55, 58
1, 568385, Note_off_c, 0, 63, 52
1, 568385, Note_off_c, 0, 67, 48
1, 568399, Control_c, 0, 64, 66
1, 568413, Note_off_c, 0, 72, 44
1, 568444, Control_c, 0, 64, 67
1, 568458, Control_c, 0, 64, 67
1, 568473, Control_c, 0, 64, 68
1, 568526, Control_c, 0, 64, 68
1, 568530, Note_on_c, 0, 63, 41
1, 568535, Note_on_c, 0, 72, 43
1, 568540, Note_on_c, 0, 55, 37
1, 568541, Control_c, 0, 64, 67
1, 568556, Control_c, 0, 64, 65
1, 568567, Note_on_c, 0, 67, 24
1, 568570, Control_c, 0, 64, 64
1, 568585, Control_c, 0, 64, 64
1, 568611, Note_off_c, 0, 72, 0
1, 568611, Note_on_c, 0, 72, 3
1, 568630, Control_c, 0, 64, 64
1, 568634, Note_off_c, 0, 67, 53
1, 568644, Control_c, 0, 64, 65
1, 568666, Note_off_c, 0, 63, 40
1, 568668, Note_off_c, 0, 72, 42
1, 568674, Control_c, 0, 64, 65
1, 568720, Note_off_c, 0, 55, 0
1, 568748, Note_on_c, 0, 75, 45
1, 568749, Note_on_c, 0, 55, 6
1, 568751, Note_on_c, 0, 67, 44
1, 568763, Control_c, 0, 64, 66
1, 568791, Note_off_c, 0, 67, 49
1, 568879, Note_off_c, 0, 75, 54
1, 568891, Note_off_c, 0, 55, 0
1, 568928, Poly_aftertouch_c, 0, 55, 127
1, 568941, Note_on_c, 0, 74, 44
1, 568942, Note_on_c, 0, 65, 44
1, 568995, Note_off_c, 0, 65, 42
1, 569004, Poly_aftertouch_c, 0, 55, 0
1, 569028, Note_off_c, 0, 74, 55
1, 569119, Control_c, 0, 64, 65
1, 569134, Control_c, 0, 64, 63
1, 569141, Note_on_c, 0, 60, 44
1, 569147, Note_on_c, 0, 72, 51
1, 569149, Control_c, 0, 64, 58
1, 569163, Control_c, 0, 64, 50
1, 569174, Note_on_c, 0, 63, 24
1, 569178, Control_c, 0, 64, 44
1, 569193, Control_c, 0, 64, 47
1, 569208, Control_c, 0, 64, 52
1, 569223, Control_c, 0, 64, 59
1, 569245, Control_c, 0, 64, 64
1, 569260, Control_c, 0, 64, 67
1, 569275, Control_c, 0, 64, 69
1, 569289, Control_c, 0, 64, 70
1, 569304, Control_c, 0, 64, 71
1, 569320, Control_c, 0, 64, 71
1, 569329, Note_off_c, 0, 72, 32
1, 569335, Control_c, 0, 64, 72
1, 569350, Control_c, 0, 64, 72
1, 569351, Note_on_c, 0, 55, 40
1, 569353, Note_on_c, 0, 67, 36
1, 569359, Note_off_c, 0, 63, 37
1, 569365, Control_c, 0, 64, 73
1, 569396, Note_off_c, 0, 67, 58
1, 569410, Note_off_c, 0, 55, 57
1, 569410, Note_off_c, 0, 60, 25
1, 569439, Control_c, 0, 64, 73
1, 569512, Control_c, 0, 64, 74
1, 569536, Note_on_c, 0, 67, 36
1, 569560, Note_on_c, 0, 55, 40
1, 569599, Note_off_c, 0, 55, 56
1, 569601, Note_off_c, 0, 67, 49
1, 569705, Control_c, 0, 67, 127
1, 569720, Control_c, 0, 67, 117
1, 569735, Control_c, 0, 67, 104
1, 569745, Note_on_c, 0, 79, 54
1, 569749, Control_c, 0, 67, 92
1, 569764, Control_c, 0, 67, 76
1, 569766, Note_on_c, 0, 55, 36
1, 569773, Note_on_c, 0, 67, 12
1, 569779, Control_c, 0, 67, 63
1, 569794, Control_c, 0, 67, 51
1, 569809, Control_c, 0, 67, 43
1, 569821, Note_off_c, 0, 67, 49
1, 569824, Control_c, 0, 67, 36
1, 569826, Note_off_c, 0, 79, 58
1, 569831, Note_off_c, 0, 55, 58
1, 569839, Control_c, 0, 67, 31
1, 569853, Control_c, 0, 67, 26
1, 569868, Control_c, 0, 67, 22
1, 569883, Control_c, 0, 67, 19
1, 569898, Control_c, 0, 67, 14
1, 569912, Control_c, 0, 67, 9
1, 569927, Control_c, 0, 67, 0
1, 569938, Note_on_c, 0, 81, 68
1, 569942, Control_c, 0, 64, 74
1, 569957, Control_c, 0, 64, 75
1, 569966, Note_on_c, 0, 55, 33
1, 569970, Note_on_c, 0, 69, 32
1, 569994, Control_c, 0, 64, 75
1, 570018, Note_off_c, 0, 69, 51
1, 570022, Note_off_c, 0, 55, 46
1, 570036, Note_off_c, 0, 81, 58
1, 570068, Control_c, 0, 64, 76
1, 570140, Note_on_c, 0, 55, 49
1, 570143, Note_on_c, 0, 83, 65
1, 570154, Note_on_c, 0, 71, 46
1, 570191, Note_off_c, 0, 71, 54
1, 570207, Note_off_c, 0, 55, 58
1, 570224, Note_off_c, 0, 83, 60
1, 570321, Control_c, 0, 64, 74
1, 570335, Control_c, 0, 64, 71
1, 570340, Note_on_c, 0, 52, 52
1, 570345, Note_on_c, 0, 84, 74
1, 570350, Control_c, 0, 64, 65
1, 570355, Note_on_c, 0, 72, 52
1, 570363, Note_on_c, 0, 55, 44
1, 570365, Control_c, 0, 64, 57
1, 570370, Note_on_c, 0, 60, 39
1, 570380, Control_c, 0, 64, 46
1, 570395, Control_c, 0, 64, 48
1, 570409, Control_c, 0, 64, 53
1, 570424, Control_c, 0, 64, 58
1, 570434, Note_off_c, 0, 72, 60
1, 570439, Control_c, 0, 64, 63
1, 570454, Control_c, 0, 64, 65
1, 570468, Note_off_c, 0, 84, 62
1, 570469, Control_c, 0, 64, 67
1, 570482, Note_off_c, 0, 55, 55
1, 570483, Control_c, 0, 64, 69
1, 570498, Control_c, 0, 64, 70
1, 570513, Control_c, 0, 64, 71
1, 570527, Control_c, 0, 64, 72
1, 570542, Control_c, 0, 64, 72
1, 570551, Note_on_c, 0, 86, 66
1, 570557, Control_c, 0, 64, 73
1, 570561, Note_on_c, 0, 62, 57
1, 570563, Note_off_c, 0, 60, 0
1, 570564, Note_off_c, 0, 52, 30
1, 570569, Note_on_c, 0, 55, 32
1, 570569, Note_on_c, 0, 74, 41
1, 570572, Control_c, 0, 64, 73
1, 570587, Control_c, 0, 64, 74
1, 570599, Poly_aftertouch_c, 0, 60, 127
1, 570601, Control_c, 0, 64, 74
1, 570604, Note_on_c, 0, 60, 3
1, 570614, Note_off_c, 0, 74, 48
1, 570644, Note_off_c, 0, 60, 39
1, 570646, Control_c, 0, 64, 75
1, 570650, Note_off_c, 0, 86, 62
1, 570661, Note_off_c, 0, 62, 38
1, 570751, Note_on_c, 0, 88, 71
1, 570753, Note_off_c, 0, 55, 33
1, 570758, Note_on_c, 0, 76, 59
1, 570759, Note_on_c, 0, 60, 47
1, 570765, Note_on_c, 0, 64, 58
1, 570802, Note_off_c, 0, 60, 61
1, 570830, Note_off_c, 0, 76, 61
1, 570839, Note_off_c, 0, 64, 55
1, 570854, Note_off_c, 0, 88, 61
1, 571019, Note_on_c, 0, 64, 52
1, 571021, Note_on_c, 0, 88, 72
1, 571023, Note_on_c, 0, 76, 62
1, 571025, Control_c, 0, 64, 72
1, 571026, Note_on_c, 0, 60, 48
1, 571039, Control_c, 0, 64, 66
1, 571043, Note_on_c, 0, 67, 49
1, 571054, Control_c, 0, 64, 54
1, 571069, Control_c, 0, 64, 0
1, 571128, Control_c, 0, 64, 55
1, 571130, Note_off_c, 0, 76, 62
1, 571143, Control_c, 0, 64, 67
1, 571157, Control_c, 0, 64, 77
1, 571172, Control_c, 0, 64, 87
1, 571187, Control_c, 0, 64, 89
1, 571190, Note_off_c, 0, 67, 45
1, 571201, Note_off_c, 0, 60, 57
1, 571228, Note_on_c, 0, 89, 70
1, 571240, Note_off_c, 0, 64, 37
1, 571246, Note_off_c, 0, 88, 57
1, 571246, Control_c, 0, 64, 86
1, 571252, Note_on_c, 0, 77, 53
1, 571254, Note_on_c, 0, 67, 42
1, 571257, Note_on_c, 0, 62, 55
1, 571261, Control_c, 0, 64, 78
1, 571262, Note_on_c, 0, 65, 43
1, 571276, Control_c, 0, 64, 72
1, 571291, Control_c, 0, 64, 70
1, 571311, Note_off_c, 0, 77, 61
1, 571320, Control_c, 0, 64, 71
1, 571328, Note_off_c, 0, 62, 59
1, 571335, Note_off_c, 0, 65, 60
1, 571335, Control_c, 0, 64, 74
1, 571350, Control_c, 0, 64, 76
1, 571365, Control_c, 0, 64, 77
1, 571380, Control_c, 0, 64, 77
1, 571395, Note_off_c, 0, 67, 0
1, 571413, Note_on_c, 0, 67, 32
1, 571415, Note_off_c, 0, 89, 35
1, 571420, Note_on_c, 0, 86, 68
1, 571422, Note_on_c, 0, 55, 56
1, 571431, Note_on_c, 0, 74, 51
1, 571453, Note_on_c, 0, 62, 41
1, 571454, Control_c, 0, 64, 77
1, 571469, Control_c, 0, 64, 75
1, 571490, Control_c, 0, 64, 73
1, 571505, Control_c, 0, 64, 68
1, 571520, Control_c, 0, 64, 60
1, 571535, Control_c, 0, 64, 51
1, 571539, Note_off_c, 0, 74, 63
1, 571546, Note_off_c, 0, 86, 59
1, 571550, Control_c, 0, 64, 52
1, 571561, Note_off_c, 0, 55, 60
1, 571565, Control_c, 0, 64, 55
1, 571568, Note_off_c, 0, 62, 56
1, 571580, Control_c, 0, 64, 56
1, 571595, Control_c, 0, 64, 57
1, 571596, Note_off_c, 0, 67, 0
1, 571610, Control_c, 0, 64, 56
1, 571612, Note_on_c, 0, 67, 46
1, 571624, Note_on_c, 0, 86, 64
1, 571624, Control_c, 0, 64, 55
1, 571626, Note_on_c, 0, 55, 40
1, 571627, Note_on_c, 0, 62, 48
1, 571630, Note_on_c, 0, 74, 58
1, 571639, Control_c, 0, 64, 54
1, 571654, Control_c, 0, 64, 54
1, 571669, Control_c, 0, 64, 57
1, 571683, Control_c, 0, 64, 60
1, 571699, Control_c, 0, 64, 64
1, 571714, Control_c, 0, 64, 67
1, 571729, Control_c, 0, 64, 69
1, 571738, Note_off_c, 0, 74, 61
1, 571738, Note_off_c, 0, 62, 54
1, 571739, Note_off_c, 0, 86, 60
1, 571744, Control_c, 0, 64, 70
1, 571773, Note_off_c, 0, 67, 0
1, 571773, Control_c, 0, 64, 70
1, 571776, Note_off_c, 0, 55, 0
1, 571788, Control_c, 0, 64, 71
1, 571794, Note_on_c, 0, 67, 42
1, 571796, Note_on_c, 0, 55, 33
1, 571803, Control_c, 0, 64, 72
1, 571805, Note_on_c, 0, 62, 46
1, 571809, Note_on_c, 0, 86, 66
1, 571811, Note_on_c, 0, 74, 57
1, 571818, Control_c, 0, 64, 72
1, 571833, Control_c, 0, 64, 73
1, 571862, Control_c, 0, 64, 73
1, 571901, Note_off_c, 0, 55, 55
1, 571902, Note_off_c, 0, 74, 63
1, 571904, Note_off_c, 0, 62, 60
1, 571910, Note_off_c, 0, 86, 60
1, 571914, Note_off_c, 0, 67, 55
1, 571921, Control_c, 0, 64, 74
1, 571966, Control_c, 0, 64, 74
1, 571986, Note_on_c, 0, 67, 46
1, 571988, Note_on_c, 0, 62, 43
1, 571991, Note_on_c, 0, 86, 75
1, 571995, Note_on_c, 0, 74, 69
1, 571995, Control_c, 0, 64, 74
1, 571997, Note_on_c, 0, 55, 53
1, 572010, Control_c, 0, 64, 70
1, 572026, Control_c, 0, 64, 66
1, 572041, Control_c, 0, 64, 62
1, 572055, Control_c, 0, 64, 59
1, 572075, Poly_aftertouch_c, 0, 88, 127
1, 572085, Control_c, 0, 64, 61
1, 572099, Control_c, 0, 64, 64
1, 572103, Note_off_c, 0, 74, 61
1, 572110, Note_off_c, 0, 62, 59
1, 572111, Note_off_c, 0, 86, 56
1, 572114, Control_c, 0, 64, 67
1, 572117, Note_off_c, 0, 55, 62
1, 572117, Note_off_c, 0, 67, 60
1, 572119, Poly_aftertouch_c, 0, 88, 0
1, 572129, Control_c, 0, 64, 71
1, 572144, Control_c, 0, 64, 75
1, 572159, Control_c, 0, 64, 76
1, 572173, Control_c, 0, 64, 74
1, 572182, Note_on_c, 0, 86, 69
1, 572185, Note_on_c, 0, 55, 45
1, 572187, Note_on_c, 0, 74, 66
1, 572188, Control_c, 0, 64, 68
1, 572190, Note_on_c, 0, 67, 58
1, 572191, Note_on_c, 0, 62, 55
1, 572203, Control_c, 0, 64, 59
1, 572218, Control_c, 0, 64, 39
1, 572240, Control_c, 0, 64, 30
1, 572255, Control_c, 0, 64, 42
1, 572270, Control_c, 0, 64, 55
1, 572285, Control_c, 0, 64, 65
1, 572299, Note_off_c, 0, 74, 61
1, 572300, Control_c, 0, 64, 72
1, 572302, Note_off_c, 0, 55, 54
1, 572314, Control_c, 0, 64, 79
1, 572329, Control_c, 0, 64, 84
1, 572344, Control_c, 0, 64, 85
1, 572364, Note_off_c, 0, 62, 32
1, 572369, Note_off_c, 0, 67, 0
1, 572374, Control_c, 0, 64, 83
1, 572384, Note_on_c, 0, 67, 42
1, 572386, Note_on_c, 0, 88, 77
1, 572388, Control_c, 0, 64, 73
1, 572392, Note_on_c, 0, 60, 61
1, 572396, Note_on_c, 0, 76, 68
1, 572401, Note_on_c, 0, 64, 59
1, 572403, Control_c, 0, 64, 63
1, 572418, Control_c, 0, 64, 50
1, 572432, Control_c, 0, 64, 47
1, 572447, Control_c, 0, 64, 54
1, 572458, Note_off_c, 0, 86, 58
1, 572462, Control_c, 0, 64, 60
1, 572477, Control_c, 0, 64, 65
1, 572483, Note_off_c, 0, 60, 61
1, 572492, Control_c, 0, 64, 67
1, 572494, Note_off_c, 0, 76, 64
1, 572496, Note_off_c, 0, 64, 63
1, 572507, Note_off_c, 0, 67, 56
1, 572508, Note_off_c, 0, 88, 62
1, 572508, Control_c, 0, 64, 68
1, 572523, Control_c, 0, 64, 68
1, 572537, Control_c, 0, 64, 69
1, 572552, Control_c, 0, 64, 70
1, 572589, Note_on_c, 0, 89, 80
1, 572593, Note_on_c, 0, 62, 59
1, 572596, Note_on_c, 0, 77, 76
1, 572599, Note_on_c, 0, 67, 56
1, 572608, Note_on_c, 0, 65, 52
1, 572684, Note_off_c, 0, 67, 54
1, 572695, Note_off_c, 0, 77, 58
1, 572727, Note_off_c, 0, 62, 50
1, 572736, Note_off_c, 0, 65, 55
1, 572750, Note_off_c, 0, 89, 60
1, 572877, Note_on_c, 0, 93, 80
1, 572878, Control_c, 0, 64, 69
1, 572879, Note_on_c, 0, 65, 43
1, 572885, Note_on_c, 0, 81, 61
1, 572886, Note_on_c, 0, 69, 54
1, 572893, Control_c, 0, 64, 67
1, 572908, Control_c, 0, 64, 63
1, 572922, Control_c, 0, 64, 47
1, 572937, Control_c, 0, 64, 0
1, 573019, Control_c, 0, 64, 55
1, 573034, Control_c, 0, 64, 65
1, 573049, Control_c, 0, 64, 69
1, 573063, Control_c, 0, 64, 70
1, 573071, Note_off_c, 0, 81, 60
1, 573078, Control_c, 0, 64, 72
1, 573093, Control_c, 0, 64, 74
1, 573108, Control_c, 0, 64, 77
1, 573123, Control_c, 0, 64, 80
1, 573137, Control_c, 0, 64, 82
1, 573152, Control_c, 0, 64, 82
1, 573152, Control_c, 0, 67, 9
1, 573167, Control_c, 0, 67, 19
1, 573172, Note_on_c, 0, 91, 69
1, 573172, Note_off_c, 0, 69, 38
1, 573180, Note_on_c, 0, 67, 39
1, 573182, Control_c, 0, 67, 28
1, 573183, Note_on_c, 0, 79, 64
1, 573185, Note_on_c, 0, 64, 52
1, 573193, Note_off_c, 0, 65, 42
1, 573193, Note_off_c, 0, 93, 55
1, 573197, Control_c, 0, 67, 36
1, 573211, Control_c, 0, 67, 41
1, 573220, Note_off_c, 0, 67, 56
1, 573226, Control_c, 0, 67, 44
1, 573231, Poly_aftertouch_c, 0, 85, 127
1, 573240, Note_off_c, 0, 64, 63
1, 573241, Control_c, 0, 67, 45
1, 573245, Note_off_c, 0, 91, 57
1, 573255, Control_c, 0, 67, 45
1, 573260, Note_off_c, 0, 79, 59
1, 573270, Control_c, 0, 67, 46
1, 573277, Poly_aftertouch_c, 0, 85, 0
1, 573316, Control_c, 0, 64, 82
1, 573346, Control_c, 0, 64, 81
1, 573380, Note_on_c, 0, 88, 63
1, 573389, Note_on_c, 0, 60, 48
1, 573390, Control_c, 0, 64, 81
1, 573403, Note_on_c, 0, 64, 40
1, 573422, Note_on_c, 0, 76, 36
1, 573433, Note_off_c, 0, 60, 62
1, 573434, Control_c, 0, 67, 46
1, 573456, Note_off_c, 0, 76, 63
1, 573464, Control_c, 0, 67, 47
1, 573481, Note_off_c, 0, 88, 58
1, 573553, Control_c, 0, 64, 80
1, 573559, Note_off_c, 0, 64, 40
1, 573568, Control_c, 0, 64, 76
1, 573583, Control_c, 0, 64, 68
1, 573589, Note_on_c, 0, 84, 54
1, 573598, Control_c, 0, 64, 60
1, 573604, Note_on_c, 0, 52, 47
1, 573606, Note_on_c, 0, 60, 34
1, 573613, Control_c, 0, 64, 35
1, 573613, Note_on_c, 0, 72, 46
1, 573627, Control_c, 0, 64, 23
1, 573642, Control_c, 0, 64, 29
1, 573657, Control_c, 0, 64, 38
1, 573671, Control_c, 0, 64, 48
1, 573681, Note_off_c, 0, 72, 64
1, 573686, Control_c, 0, 64, 58
1, 573690, Note_off_c, 0, 84, 57
1, 573693, Note_off_c, 0, 52, 65
1, 573701, Control_c, 0, 64, 63
1, 573716, Control_c, 0, 64, 65
1, 573753, Control_c, 0, 64, 66
1, 573753, Control_c, 0, 67, 46
1, 573766, Note_off_c, 0, 60, 0
1, 573768, Control_c, 0, 64, 67
1, 573768, Control_c, 0, 67, 45
1, 573782, Note_on_c, 0, 84, 62
1, 573783, Control_c, 0, 64, 68
1, 573783, Control_c, 0, 67, 44
1, 573785, Note_on_c, 0, 52, 49
1, 573786, Note_on_c, 0, 60, 25
1, 573792, Note_on_c, 0, 72, 49
1, 573798, Control_c, 0, 64, 71
1, 573798, Control_c, 0, 67, 44
1, 573812, Control_c, 0, 64, 73
1, 573812, Control_c, 0, 67, 43
1, 573827, Control_c, 0, 64, 73
1, 573827, Control_c, 0, 67, 43
1, 573842, Control_c, 0, 67, 42
1, 573857, Control_c, 0, 67, 42
1, 573865, Note_off_c, 0, 52, 62
1, 573868, Note_off_c, 0, 72, 64
1, 573901, Control_c, 0, 64, 74
1, 573901, Control_c, 0, 67, 41
1, 573909, Note_off_c, 0, 84, 58
1, 573916, Control_c, 0, 67, 41
1, 573960, Control_c, 0, 67, 40
1, 573978, Note_on_c, 0, 55, 44
1, 573979, Note_on_c, 0, 86, 69
1, 573989, Note_on_c, 0, 74, 54
1, 573990, Control_c, 0, 67, 40
1, 574007, Note_off_c, 0, 60, 37
1, 574008, Note_on_c, 0, 62, 52
1, 574013, Note_off_c, 0, 55, 63
1, 574020, Control_c, 0, 67, 39
1, 574049, Control_c, 0, 67, 39
1, 574055, Note_off_c, 0, 86, 60
1, 574063, Note_off_c, 0, 74, 63
1, 574088, Note_off_c, 0, 62, 54
1, 574169, Control_c, 0, 64, 73
1, 574183, Note_on_c, 0, 60, 57
1, 574183, Control_c, 0, 64, 67
1, 574185, Note_on_c, 0, 88, 72
1, 574197, Note_on_c, 0, 76, 61
1, 574198, Control_c, 0, 64, 56
1, 574213, Control_c, 0, 64, 0
1, 574215, Note_on_c, 0, 64, 45
1, 574228, Control_c, 0, 67, 38
1, 574271, Control_c, 0, 64, 47
1, 574284, Note_off_c, 0, 76, 64
1, 574286, Control_c, 0, 64, 65
1, 574301, Control_c, 0, 64, 71
1, 574301, Control_c, 0, 67, 39
1, 574316, Control_c, 0, 64, 75
1, 574331, Control_c, 0, 64, 77
1, 574346, Control_c, 0, 64, 78
1, 574349, Note_off_c, 0, 88, 61
1, 574361, Control_c, 0, 64, 80
1, 574366, Note_off_c, 0, 64, 58
1, 574375, Control_c, 0, 64, 80
1, 574389, Note_on_c, 0, 90, 70
1, 574390, Note_on_c, 0, 66, 56
1, 574390, Note_on_c, 0, 78, 62
1, 574390, Control_c, 0, 64, 80
1, 574390, Control_c, 0, 67, 39
1, 574400, Note_on_c, 0, 62, 59
1, 574405, Control_c, 0, 64, 75
1, 574420, Control_c, 0, 64, 66
1, 574433, Note_off_c, 0, 60, 53
1, 574435, Control_c, 0, 64, 49
1, 574449, Control_c, 0, 64, 0
1, 574516, Control_c, 0, 64, 45
1, 574531, Control_c, 0, 64, 60
1, 574540, Note_off_c, 0, 78, 48
1, 574546, Control_c, 0, 64, 63
1, 574575, Control_c, 0, 67, 40
1, 574595, Note_off_c, 0, 66, 56
1, 574605, Control_c, 0, 64, 65
1, 574613, Note_off_c, 0, 62, 54
1, 574614, Note_on_c, 0, 67, 53
1, 574620, Control_c, 0, 64, 66
1, 574621, Note_on_c, 0, 91, 75
1, 574634, Control_c, 0, 64, 67
1, 574642, Note_on_c, 0, 64, 46
1, 574649, Control_c, 0, 64, 68
1, 574649, Control_c, 0, 67, 40
1, 574652, Note_on_c, 0, 79, 36
1, 574664, Control_c, 0, 64, 68
1, 574664, Control_c, 0, 67, 41
1, 574679, Control_c, 0, 64, 69
1, 574687, Note_off_c, 0, 90, 0
1, 574694, Control_c, 0, 64, 69
1, 574723, Control_c, 0, 67, 41
1, 574724, Poly_aftertouch_c, 0, 90, 127
1, 574725, Note_off_c, 0, 79, 60
1, 574738, Note_off_c, 0, 67, 56
1, 574741, Note_off_c, 0, 64, 63
1, 574753, Control_c, 0, 67, 42
1, 574759, Poly_aftertouch_c, 0, 90, 0
1, 574769, Note_off_c, 0, 91, 60
1, 574782, Control_c, 0, 67, 43
1, 574826, Control_c, 0, 67, 43
1, 574856, Control_c, 0, 67, 44
1, 574899, Note_on_c, 0, 91, 69
1, 574902, Control_c, 0, 64, 67
1, 574902, Control_c, 0, 67, 44
1, 574908, Note_on_c, 0, 61, 42
1, 574917, Control_c, 0, 64, 62
1, 574917, Control_c, 0, 67, 45
1, 574919, Note_on_c, 0, 67, 46
1, 574924, Note_on_c, 0, 79, 50
1, 574931, Control_c, 0, 64, 39
1, 574931, Control_c, 0, 67, 46
1, 574946, Control_c, 0, 64, 0
1, 574946, Control_c, 0, 67, 46
1, 574961, Control_c, 0, 67, 47
1, 574976, Control_c, 0, 67, 49
1, 574991, Control_c, 0, 67, 51
1, 575005, Control_c, 0, 67, 65
1, 575006, Note_off_c, 0, 79, 58
1, 575020, Control_c, 0, 64, 55
1, 575020, Control_c, 0, 67, 79
1, 575035, Control_c, 0, 64, 66
1, 575035, Control_c, 0, 67, 95
1, 575049, Control_c, 0, 64, 71
1, 575049, Control_c, 0, 67, 112
1, 575064, Control_c, 0, 64, 73
1, 575064, Control_c, 0, 67, 127
1, 575109, Control_c, 0, 64, 73
1, 575137, Note_on_c, 0, 90, 62
1, 575142, Note_off_c, 0, 91, 56
1, 575148, Note_on_c, 0, 66, 38
1, 575150, Note_on_c, 0, 78, 48
1, 575151, Note_on_c, 0, 62, 39
1, 575154, Note_off_c, 0, 67, 36
1, 575181, Note_off_c, 0, 62, 57
1, 575181, Note_off_c, 0, 66, 58
1, 575199, Note_off_c, 0, 78, 62
1, 575201, Note_off_c, 0, 61, 45
1, 575210, Note_off_c, 0, 90, 63
1, 575321, Note_on_c, 0, 88, 66
1, 575340, Note_on_c, 0, 76, 44
1, 575343, Note_on_c, 0, 60, 36
1, 575345, Note_on_c, 0, 64, 46
1, 575409, Note_off_c, 0, 76, 62
1, 575456, Control_c, 0, 64, 72
1, 575471, Control_c, 0, 64, 66
1, 575486, Note_off_c, 0, 64, 49
1, 575486, Control_c, 0, 64, 55
1, 575501, Control_c, 0, 64, 18
1, 575508, Note_off_c, 0, 60, 55
1, 575512, Note_off_c, 0, 88, 50
1, 575515, Note_on_c, 0, 86, 64
1, 575516, Control_c, 0, 64, 15
1, 575523, Note_on_c, 0, 59, 41
1, 575528, Note_on_c, 0, 74, 44
1, 575530, Control_c, 0, 64, 43
1, 575537, Note_on_c, 0, 62, 38
1, 575545, Control_c, 0, 64, 57
1, 575560, Control_c, 0, 64, 63
1, 575575, Control_c, 0, 64, 66
1, 575583, Note_off_c, 0, 62, 46
1, 575590, Control_c, 0, 64, 68
1, 575594, Note_off_c, 0, 59, 58
1, 575600, Note_off_c, 0, 86, 61
1, 575603, Note_off_c, 0, 74, 63
1, 575604, Control_c, 0, 64, 70
1, 575619, Control_c, 0, 64, 72
1, 575634, Control_c, 0, 64, 75
1, 575649, Control_c, 0, 64, 77
1, 575664, Control_c, 0, 64, 79
1, 575678, Control_c, 0, 64, 80
1, 575697, Note_on_c, 0, 84, 64
1, 575709, Control_c, 0, 64, 78
1, 575724, Note_on_c, 0, 57, 24
1, 575724, Control_c, 0, 64, 70
1, 575731, Note_on_c, 0, 72, 37
1, 575733, Note_on_c, 0, 60, 27
1, 575739, Control_c, 0, 64, 63
1, 575753, Control_c, 0, 64, 48
1, 575769, Control_c, 0, 64, 39
1, 575770, Note_off_c, 0, 72, 47
1, 575784, Control_c, 0, 64, 46
1, 575799, Control_c, 0, 64, 54
1, 575814, Control_c, 0, 64, 61
1, 575828, Control_c, 0, 64, 64
1, 575836, Note_off_c, 0, 84, 54
1, 575843, Control_c, 0, 64, 65
1, 575857, Note_off_c, 0, 60, 52
1, 575858, Control_c, 0, 64, 66
1, 575872, Control_c, 0, 64, 66
1, 575877, Note_off_c, 0, 57, 40
1, 575884, Note_on_c, 0, 55, 42
1, 575887, Control_c, 0, 64, 67
1, 575893, Note_on_c, 0, 83, 55
1, 575902, Note_on_c, 0, 71, 52
1, 575905, Note_on_c, 0, 59, 30
1, 575929, Note_off_c, 0, 55, 63
1, 575938, Note_off_c, 0, 59, 53
1, 575940, Note_off_c, 0, 71, 62
1, 575959, Note_off_c, 0, 83, 60
1, 576028, Control_c, 0, 64, 67
1, 576058, Control_c, 0, 64, 68
1, 576083, Note_on_c, 0, 81, 61
1, 576087, Control_c, 0, 64, 67
1, 576097, Note_on_c, 0, 50, 39
1, 576101, Note_on_c, 0, 69, 44
1, 576102, Control_c, 0, 64, 65
1, 576103, Note_on_c, 0, 57, 35
1, 576117, Control_c, 0, 64, 58
1, 576132, Control_c, 0, 64, 34
1, 576144, Note_off_c, 0, 69, 47
1, 576146, Control_c, 0, 64, 0
1, 576176, Control_c, 0, 64, 28
1, 576191, Control_c, 0, 64, 50
1, 576206, Control_c, 0, 64, 63
1, 576221, Control_c, 0, 64, 67
1, 576236, Control_c, 0, 64, 69
1, 576244, Note_off_c, 0, 81, 57
1, 576251, Note_off_c, 0, 57, 36
1, 576251, Control_c, 0, 64, 71
1, 576266, Control_c, 0, 64, 71
1, 576278, Note_on_c, 0, 83, 59
1, 576280, Control_c, 0, 64, 72
1, 576295, Control_c, 0, 64, 74
1, 576295, Note_on_c, 0, 55, 41
1, 576295, Note_on_c, 0, 59, 45
1, 576310, Control_c, 0, 64, 75
1, 576316, Note_on_c, 0, 71, 24
1, 576325, Control_c, 0, 64, 75
1, 576340, Control_c, 0, 64, 76
1, 576344, Note_off_c, 0, 50, 40
1, 576352, Note_off_c, 0, 71, 45
1, 576369, Control_c, 0, 64, 76
1, 576404, Note_off_c, 0, 83, 49
1, 576443, Note_off_c, 0, 59, 33
1, 576462, Note_off_c, 0, 55, 27
1, 576476, Note_on_c, 0, 81, 49
1, 576490, Note_on_c, 0, 69, 40
1, 576491, Note_on_c, 0, 50, 42
1, 576525, Note_off_c, 0, 50, 58
1, 576585, Note_off_c, 0, 81, 37
1, 576592, Note_off_c, 0, 69, 38
1, 576680, Control_c, 0, 64, 74
1, 576695, Control_c, 0, 64, 68
1, 576710, Control_c, 0, 64, 61
1, 576712, Note_on_c, 0, 79, 44
1, 576728, Note_on_c, 0, 47, 35
1, 576731, Note_on_c, 0, 43, 44
1, 576732, Note_on_c, 0, 67, 43
1, 576732, Control_c, 0, 64, 38
1, 576734, Note_on_c, 0, 55, 40
1, 576747, Control_c, 0, 64, 0
1, 576762, Control_c, 0, 64, 15
1, 576776, Control_c, 0, 64, 43
1, 576791, Control_c, 0, 64, 56
1, 576799, Note_off_c, 0, 79, 62
1, 576806, Control_c, 0, 64, 62
1, 576820, Control_c, 0, 64, 64
1, 576835, Control_c, 0, 64, 65
1, 576850, Control_c, 0, 64, 65
1, 576865, Note_off_c, 0, 67, 56
1, 576865, Control_c, 0, 64, 67
1, 576880, Control_c, 0, 64, 68
1, 576895, Control_c, 0, 64, 68
1, 576966, Note_on_c, 0, 67, 46
1, 576969, Control_c, 0, 64, 69
1, 576999, Control_c, 0, 64, 69
1, 577014, Control_c, 0, 64, 70
1, 577020, Note_off_c, 0, 67, 55
1, 577028, Control_c, 0, 64, 71
1, 577043, Control_c, 0, 64, 72
1, 577058, Control_c, 0, 64, 72
1, 577088, Control_c, 0, 64, 73
1, 577102, Control_c, 0, 64, 73
1, 577117, Control_c, 0, 64, 74
1, 577132, Control_c, 0, 64, 74
1, 577146, Note_on_c, 0, 67, 59
1, 577147, Control_c, 0, 64, 75
1, 577162, Control_c, 0, 64, 76
1, 577176, Control_c, 0, 64, 76
1, 577191, Control_c, 0, 64, 77
1, 577206, Control_c, 0, 64, 77
1, 577220, Control_c, 0, 64, 78
1, 577235, Control_c, 0, 67, 126
1, 577246, Note_off_c, 0, 67, 38
1, 577250, Control_c, 0, 67, 114
1, 577265, Control_c, 0, 67, 99
1, 577280, Control_c, 0, 67, 84
1, 577296, Control_c, 0, 67, 68
1, 577311, Control_c, 0, 67, 54
1, 577325, Control_c, 0, 67, 41
1, 577340, Note_on_c, 0, 67, 66
1, 577340, Control_c, 0, 67, 29
1, 577355, Control_c, 0, 67, 19
1, 577358, Note_off_c, 0, 43, 38
1, 577370, Control_c, 0, 67, 10
1, 577385, Control_c, 0, 67, 0
1, 577395, Note_off_c, 0, 55, 44
1, 577398, Note_off_c, 0, 47, 34
1, 577437, Note_off_c, 0, 67, 57
1, 577535, Note_on_c, 0, 67, 72
1, 577616, Note_off_c, 0, 67, 58
1, 577713, Note_on_c, 0, 67, 76
1, 577793, Note_off_c, 0, 67, 56
1, 577896, Note_on_c, 0, 67, 75
1, 577911, Note_on_c, 0, 43, 75
1, 577911, Note_on_c, 0, 55, 68
1, 577953, Note_off_c, 0, 55, 58
1, 577974, Note_off_c, 0, 43, 62
1, 577992, Note_off_c, 0, 67, 53
1, 578088, Note_on_c, 0, 38, 80
1, 578090, Note_on_c, 0, 50, 83
1, 578091, Note_on_c, 0, 67, 70
1, 578147, Note_off_c, 0, 50, 62
1, 578159, Note_off_c, 0, 38, 62
1, 578168, Note_off_c, 0, 67, 58
1, 578275, Note_on_c, 0, 67, 70
1, 578280, Note_on_c, 0, 35, 77
1, 578280, Note_on_c, 0, 47, 81
1, 578326, Note_off_c, 0, 35, 65
1, 578334, Note_off_c, 0, 47, 63
1, 578353, Note_off_c, 0, 67, 59
1, 578452, Control_c, 0, 64, 77
1, 578467, Control_c, 0, 64, 75
1, 578481, Control_c, 0, 64, 69
1, 578496, Control_c, 0, 64, 58
1, 578507, Note_on_c, 0, 45, 87
1, 578511, Control_c, 0, 64, 0
1, 578512, Note_on_c, 0, 33, 79
1, 578516, Note_on_c, 0, 65, 69
1, 578519, Note_on_c, 0, 67, 72
1, 578520, Note_on_c, 0, 59, 67
1, 578615, Control_c, 0, 64, 54
1, 578630, Control_c, 0, 64, 64
1, 578644, Control_c, 0, 64, 65
1, 578665, Note_off_c, 0, 45, 60
1, 578683, Note_off_c, 0, 59, 61
1, 578683, Note_off_c, 0, 65, 61
1, 578691, Note_off_c, 0, 67, 58
1, 578704, Control_c, 0, 64, 64
1, 578719, Control_c, 0, 64, 57
1, 578734, Control_c, 0, 64, 0
1, 578755, Note_on_c, 0, 67, 63
1, 578757, Note_on_c, 0, 31, 72
1, 578759, Note_on_c, 0, 65, 61
1, 578764, Note_on_c, 0, 43, 67
1, 578770, Note_on_c, 0, 59, 59
1, 578784, Note_off_c, 0, 33, 53
1, 578868, Note_off_c, 0, 31, 63
1, 578868, Note_off_c, 0, 59, 61
1, 578877, Note_off_c, 0, 67, 61
1, 578879, Note_off_c, 0, 43, 60
1, 578881, Note_off_c, 0, 65, 60
1, 578936, Note_on_c, 0, 43, 63
1, 578937, Note_on_c, 0, 31, 60
1, 578941, Note_on_c, 0, 67, 63
1, 578942, Note_on_c, 0, 65, 52
1, 578952, Note_on_c, 0, 59, 52
1, 579047, Note_off_c, 0, 59, 61
1, 579059, Note_off_c, 0, 67, 59
1, 579063, Note_off_c, 0, 31, 63
1, 579070, Note_off_c, 0, 43, 59
1, 579072, Note_off_c, 0, 65, 58
1, 579121, Note_on_c, 0, 31, 61
1, 579121, Note_on_c, 0, 65, 51
1, 579121, Note_on_c, 0, 67, 65
1, 579123, Note_on_c, 0, 43, 63
1, 579133, Note_on_c, 0, 59, 65
1, 579157, Control_c, 0, 64, 26
1, 579172, Control_c, 0, 64, 49
1, 579187, Control_c, 0, 64, 53
1, 579216, Note_off_c, 0, 59, 59
1, 579217, Control_c, 0, 64, 52
1, 579226, Note_off_c, 0, 31, 63
1, 579235, Note_off_c, 0, 43, 55
1, 579238, Note_off_c, 0, 67, 53
1, 579244, Note_off_c, 0, 65, 49
1, 579246, Control_c, 0, 64, 53
1, 579261, Control_c, 0, 64, 54
1, 579276, Control_c, 0, 64, 56
1, 579283, Note_on_c, 0, 67, 55
1, 579288, Note_on_c, 0, 65, 43
1, 579290, Note_on_c, 0, 31, 59
1, 579291, Control_c, 0, 64, 59
1, 579291, Note_on_c, 0, 43, 50
1, 579297, Note_on_c, 0, 59, 61
1, 579305, Control_c, 0, 64, 62
1, 579320, Control_c, 0, 64, 63
1, 579335, Control_c, 0, 64, 64
1, 579350, Control_c, 0, 64, 65
1, 579370, Note_off_c, 0, 31, 63
1, 579379, Control_c, 0, 64, 65
1, 579382, Note_off_c, 0, 43, 60
1, 579392, Note_off_c, 0, 59, 55
1, 579402, Note_off_c, 0, 67, 55
1, 579406, Note_off_c, 0, 65, 57
1, 579423, Control_c, 0, 64, 64
1, 579438, Control_c, 0, 64, 61
1, 579453, Control_c, 0, 64, 51
1, 579464, Note_on_c, 0, 33, 65
1, 579467, Note_on_c, 0, 67, 59
1, 579468, Note_on_c, 0, 45, 69
1, 579468, Control_c, 0, 64, 39
1, 579473, Note_on_c, 0, 65, 50
1, 579476, Note_on_c, 0, 59, 57
1, 579483, Control_c, 0, 64, 40
1, 579497, Control_c, 0, 64, 47
1, 579512, Control_c, 0, 64, 55
1, 579527, Control_c, 0, 64, 62
1, 579542, Control_c, 0, 64, 65
1, 579557, Control_c, 0, 64, 68
1, 579565, Note_off_c, 0, 33, 65
1, 579569, Note_off_c, 0, 45, 64
1, 579572, Control_c, 0, 64, 71
1, 579583, Note_off_c, 0, 59, 59
1, 579586, Control_c, 0, 64, 73
1, 579591, Note_off_c, 0, 65, 56
1, 579593, Note_off_c, 0, 67, 58
1, 579601, Control_c, 0, 64, 75
1, 579643, Note_on_c, 0, 35, 72
1, 579646, Control_c, 0, 64, 70
1, 579649, Note_on_c, 0, 47, 79
1, 579651, Note_on_c, 0, 67, 63
1, 579655, Note_on_c, 0, 65, 54
1, 579658, Note_on_c, 0, 59, 64
1, 579661, Control_c, 0, 64, 63
1, 579676, Control_c, 0, 64, 40
1, 579691, Control_c, 0, 64, 0
1, 579728, Control_c, 0, 64, 43
1, 579743, Control_c, 0, 64, 61
1, 579758, Note_off_c, 0, 35, 65
1, 579758, Control_c, 0, 64, 67
1, 579765, Note_off_c, 0, 47, 63
1, 579770, Note_off_c, 0, 59, 56
1, 579773, Control_c, 0, 64, 74
1, 579774, Note_off_c, 0, 67, 57
1, 579788, Control_c, 0, 64, 81
1, 579792, Note_off_c, 0, 65, 55
1, 579802, Control_c, 0, 64, 84
1, 579828, Note_on_c, 0, 65, 42
1, 579831, Note_on_c, 0, 36, 76
1, 579832, Control_c, 0, 64, 81
1, 579834, Note_on_c, 0, 48, 83
1, 579836, Note_on_c, 0, 59, 67
1, 579836, Note_on_c, 0, 67, 66
1, 579846, Control_c, 0, 64, 72
1, 579861, Control_c, 0, 64, 64
1, 579876, Control_c, 0, 64, 57
1, 579891, Control_c, 0, 64, 56
1, 579906, Control_c, 0, 64, 60
1, 579920, Control_c, 0, 64, 63
1, 579929, Note_off_c, 0, 59, 58
1, 579935, Control_c, 0, 64, 65
1, 579936, Note_off_c, 0, 36, 64
1, 579936, Note_off_c, 0, 48, 61
1, 579941, Note_off_c, 0, 67, 57
1, 579947, Note_off_c, 0, 65, 59
1, 579950, Control_c, 0, 64, 65
1, 579980, Control_c, 0, 64, 66
1, 579995, Control_c, 0, 64, 66
1, 580010, Control_c, 0, 64, 67
1, 580012, Note_on_c, 0, 67, 71
1, 580014, Note_on_c, 0, 50, 86
1, 580016, Note_on_c, 0, 38, 78
1, 580016, Note_on_c, 0, 59, 78
1, 580017, Note_on_c, 0, 65, 52
1, 580025, Control_c, 0, 64, 68
1, 580039, Control_c, 0, 64, 69
1, 580069, Control_c, 0, 64, 70
1, 580084, Control_c, 0, 64, 71
1, 580099, Control_c, 0, 64, 72
1, 580106, Note_off_c, 0, 59, 55
1, 580113, Control_c, 0, 64, 74
1, 580123, Note_off_c, 0, 38, 63
1, 580128, Control_c, 0, 64, 75
1, 580133, Note_off_c, 0, 50, 60
1, 580135, Note_off_c, 0, 67, 55
1, 580138, Note_off_c, 0, 65, 58
1, 580143, Control_c, 0, 64, 77
1, 580158, Control_c, 0, 64, 79
1, 580173, Control_c, 0, 64, 82
1, 580187, Control_c, 0, 64, 85
1, 580217, Control_c, 0, 64, 79
1, 580232, Control_c, 0, 64, 66
1, 580233, Note_on_c, 0, 50, 84
1, 580234, Note_on_c, 0, 38, 83
1, 580239, Note_on_c, 0, 67, 79
1, 580241, Note_on_c, 0, 65, 72
1, 580242, Note_on_c, 0, 59, 78
1, 580247, Control_c, 0, 64, 25
1, 580262, Control_c, 0, 64, 0
1, 580307, Control_c, 0, 64, 20
1, 580321, Control_c, 0, 64, 59
1, 580336, Control_c, 0, 64, 66
1, 580351, Control_c, 0, 64, 68
1, 580353, Note_off_c, 0, 50, 60
1, 580380, Control_c, 0, 64, 69
1, 580382, Note_off_c, 0, 38, 63
1, 580395, Note_off_c, 0, 59, 61
1, 580395, Control_c, 0, 64, 72
1, 580404, Note_off_c, 0, 67, 47
1, 580410, Control_c, 0, 64, 76
1, 580424, Note_off_c, 0, 65, 56
1, 580425, Control_c, 0, 64, 81
1, 580439, Control_c, 0, 64, 84
1, 580477, Control_c, 0, 64, 84
1, 580493, Control_c, 0, 64, 76
1, 580499, Note_on_c, 0, 67, 69
1, 580499, Note_on_c, 0, 39, 72
1, 580503, Note_on_c, 0, 60, 66
1, 580504, Note_on_c, 0, 51, 75
1, 580508, Control_c, 0, 64, 61
1, 580513, Note_on_c, 0, 63, 59
1, 580522, Control_c, 0, 64, 0
1, 580582, Control_c, 0, 64, 34
1, 580597, Control_c, 0, 64, 64
1, 580612, Control_c, 0, 64, 74
1, 580619, Note_off_c, 0, 67, 60
1, 580620, Note_off_c, 0, 63, 59
1, 580624, Note_off_c, 0, 60, 59
1, 580626, Control_c, 0, 64, 83
1, 580629, Note_off_c, 0, 51, 63
1, 580637, Note_off_c, 0, 39, 62
1, 580641, Control_c, 0, 64, 85
1, 580683, Note_on_c, 0, 67, 70
1, 580691, Note_on_c, 0, 51, 76
1, 580692, Note_on_c, 0, 39, 61
1, 580698, Note_on_c, 0, 60, 66
1, 580698, Note_on_c, 0, 63, 58
1, 580700, Control_c, 0, 64, 83
1, 580715, Control_c, 0, 64, 74
1, 580730, Control_c, 0, 64, 64
1, 580744, Control_c, 0, 64, 52
1, 580759, Control_c, 0, 64, 46
1, 580764, Note_off_c, 0, 63, 60
1, 580766, Note_off_c, 0, 60, 57
1, 580773, Note_off_c, 0, 67, 57
1, 580774, Control_c, 0, 64, 53
1, 580778, Note_off_c, 0, 51, 62
1, 580789, Control_c, 0, 64, 61
1, 580790, Note_off_c, 0, 39, 62
1, 580804, Control_c, 0, 64, 66
1, 580818, Control_c, 0, 64, 69
1, 580833, Control_c, 0, 64, 70
1, 580850, Note_on_c, 0, 51, 80
1, 580851, Note_on_c, 0, 39, 60
1, 580855, Note_on_c, 0, 63, 57
1, 580861, Note_on_c, 0, 67, 73
1, 580863, Note_on_c, 0, 60, 61
1, 580892, Control_c, 0, 64, 71
1, 580922, Control_c, 0, 64, 71
1, 580925, Note_off_c, 0, 63, 62
1, 580928, Note_off_c, 0, 51, 61
1, 580928, Note_off_c, 0, 60, 59
1, 580932, Note_off_c, 0, 39, 64
1, 580938, Note_off_c, 0, 67, 60
1, 581012, Note_on_c, 0, 39, 61
1, 581018, Note_on_c, 0, 51, 78
1, 581024, Note_on_c, 0, 67, 77
1, 581083, Note_off_c, 0, 39, 62
1, 581090, Note_off_c, 0, 51, 57
1, 581111, Note_off_c, 0, 67, 57
1, 581114, Control_c, 0, 64, 72
1, 581129, Control_c, 0, 64, 72
1, 581173, Control_c, 0, 64, 67
1, 581187, Control_c, 0, 64, 59
1, 581193, Note_on_c, 0, 69, 75
1, 581197, Note_on_c, 0, 41, 74
1, 581199, Note_on_c, 0, 53, 73
1, 581202, Control_c, 0, 64, 0
1, 581227, Note_on_c, 0, 67, 59
1, 581255, Control_c, 0, 64, 33
1, 581269, Control_c, 0, 64, 55
1, 581271, Note_off_c, 0, 67, 60
1, 581284, Control_c, 0, 64, 62
1, 581294, Note_off_c, 0, 41, 64
1, 581297, Note_off_c, 0, 69, 66
1, 581300, Control_c, 0, 64, 64
1, 581300, Note_off_c, 0, 53, 65
1, 581315, Control_c, 0, 64, 67
1, 581330, Control_c, 0, 64, 70
1, 581345, Control_c, 0, 64, 75
1, 581360, Control_c, 0, 64, 79
1, 581374, Control_c, 0, 64, 78
1, 581375, Note_on_c, 0, 43, 77
1, 581380, Note_on_c, 0, 55, 81
1, 581386, Note_on_c, 0, 71, 81
1, 581389, Control_c, 0, 64, 71
1, 581396, Note_on_c, 0, 67, 76
1, 581402, Note_on_c, 0, 65, 68
1, 581404, Control_c, 0, 64, 57
1, 581418, Control_c, 0, 64, 0
1, 581477, Note_off_c, 0, 43, 62
1, 581478, Control_c, 0, 64, 12
1, 581482, Note_off_c, 0, 55, 64
1, 581491, Note_off_c, 0, 65, 60
1, 581492, Control_c, 0, 64, 63
1, 581507, Control_c, 0, 64, 76
1, 581522, Control_c, 0, 64, 92
1, 581537, Control_c, 0, 64, 97
1, 581559, Note_on_c, 0, 57, 85
1, 581560, Note_on_c, 0, 45, 75
1, 581560, Note_on_c, 0, 72, 84
1, 581562, Note_on_c, 0, 65, 75
1, 581599, Note_off_c, 0, 71, 54
1, 581600, Note_on_c, 0, 47, 27
1, 581601, Note_off_c, 0, 47, 127
1, 581643, Note_off_c, 0, 45, 64
1, 581647, Note_off_c, 0, 57, 61
1, 581651, Note_off_c, 0, 65, 57
1, 581655, Control_c, 0, 64, 96
1, 581657, Note_off_c, 0, 67, 52
1, 581670, Control_c, 0, 64, 96
1, 581682, Note_off_c, 0, 72, 62
1, 581685, Control_c, 0, 64, 94
1, 581700, Control_c, 0, 64, 88
1, 581715, Control_c, 0, 64, 81
1, 581720, Note_on_c, 0, 47, 82
1, 581724, Note_on_c, 0, 59, 87
1, 581724, Note_on_c, 0, 74, 87
1, 581729, Note_on_c, 0, 65, 79
1, 581730, Control_c, 0, 64, 76
1, 581732, Note_on_c, 0, 67, 67
1, 581745, Control_c, 0, 64, 75
1, 581774, Control_c, 0, 64, 76
1, 581789, Note_off_c, 0, 65, 61
1, 581789, Control_c, 0, 64, 77
1, 581792, Note_off_c, 0, 59, 58
1, 581792, Note_off_c, 0, 67, 58
1, 581793, Note_off_c, 0, 47, 62
1, 581804, Control_c, 0, 64, 80
1, 581818, Control_c, 0, 64, 82
1, 581819, Note_off_c, 0, 74, 64
1, 581833, Control_c, 0, 64, 85
1, 581848, Control_c, 0, 64, 91
1, 581863, Control_c, 0, 64, 98
1, 581878, Control_c, 0, 64, 106
1, 581892, Control_c, 0, 64, 109
1, 581907, Control_c, 0, 64, 107
1, 581922, Control_c, 0, 64, 84
1, 581937, Control_c, 0, 64, 53
1, 581940, Note_on_c, 0, 47, 87
1, 581944, Note_on_c, 0, 74, 88
1, 581945, Note_on_c, 0, 65, 84
1, 581946, Note_on_c, 0, 59, 83
1, 581952, Control_c, 0, 64, 0
1, 581953, Note_on_c, 0, 67, 84
1, 582033, Control_c, 0, 64, 47
1, 582048, Control_c, 0, 64, 65
1, 582062, Note_off_c, 0, 65, 61
1, 582063, Control_c, 0, 64, 72
1, 582071, Note_off_c, 0, 74, 64
1, 582078, Control_c, 0, 64, 75
1, 582093, Note_off_c, 0, 47, 62
1, 582093, Note_off_c, 0, 59, 60
1, 582123, Control_c, 0, 64, 72
1, 582138, Control_c, 0, 64, 61
1, 582153, Control_c, 0, 64, 0
1, 582162, Note_on_c, 0, 48, 69
1, 582165, Note_on_c, 0, 60, 74
1, 582171, Note_on_c, 0, 75, 78
1, 582175, Note_on_c, 0, 63, 76
1, 582238, Note_off_c, 0, 67, 56
1, 582241, Note_off_c, 0, 48, 62
1, 582243, Note_off_c, 0, 63, 61
1, 582250, Note_off_c, 0, 60, 61
1, 582255, Note_off_c, 0, 75, 63
1, 582319, Note_on_c, 0, 75, 76
1, 582328, Note_on_c, 0, 60, 72
1, 582329, Note_on_c, 0, 63, 77
1, 582330, Note_on_c, 0, 48, 72
1, 582332, Note_on_c, 0, 67, 73
1, 582345, Control_c, 0, 64, 59
1, 582360, Control_c, 0, 64, 68
1, 582375, Control_c, 0, 64, 73
1, 582379, Note_off_c, 0, 48, 60
1, 582380, Note_off_c, 0, 60, 61
1, 582389, Control_c, 0, 64, 74
1, 582400, Note_off_c, 0, 75, 58
1, 582403, Note_off_c, 0, 67, 56
1, 582412, Note_off_c, 0, 63, 53
1, 582448, Control_c, 0, 64, 72
1, 582463, Control_c, 0, 64, 64
1, 582478, Control_c, 0, 64, 0
1, 582506, Note_on_c, 0, 74, 89
1, 582514, Note_on_c, 0, 63, 89
1, 582515, Note_on_c, 0, 68, 80
1, 582522, Note_on_c, 0, 58, 90
1, 582528, Note_on_c, 0, 46, 82
1, 582568, Control_c, 0, 64, 32
1, 582582, Control_c, 0, 64, 65
1, 582597, Control_c, 0, 64, 69
1, 582612, Control_c, 0, 64, 63
1, 582618, Note_off_c, 0, 58, 63
1, 582624, Note_off_c, 0, 63, 61
1, 582626, Note_off_c, 0, 46, 63
1, 582627, Control_c, 0, 64, 0
1, 582636, Note_off_c, 0, 68, 60
1, 582659, Note_off_c, 0, 74, 55
1, 582685, Note_on_c, 0, 72, 70
1, 582690, Note_on_c, 0, 68, 42
1, 582691, Note_on_c, 0, 63, 65
1, 582693, Note_on_c, 0, 56, 80
1, 582697, Note_on_c, 0, 44, 71
1, 582776, Note_off_c, 0, 63, 62
1, 582782, Control_c, 0, 64, 54
1, 582791, Note_off_c, 0, 68, 57
1, 582797, Control_c, 0, 64, 60
1, 582798, Note_off_c, 0, 56, 62
1, 582800, Note_off_c, 0, 44, 63
1, 582809, Note_off_c, 0, 72, 58
1, 582853, Note_on_c, 0, 72, 58
1, 582860, Note_on_c, 0, 63, 83
1, 582863, Note_on_c, 0, 56, 80
1, 582866, Note_on_c, 0, 44, 67
1, 582868, Note_on_c, 0, 68, 67
1, 582887, Control_c, 0, 64, 61
1, 582902, Control_c, 0, 64, 62
1, 582917, Control_c, 0, 64, 64
1, 582932, Control_c, 0, 64, 66
1, 582939, Note_off_c, 0, 63, 59
1, 582946, Note_off_c, 0, 44, 62
1, 582946, Note_off_c, 0, 56, 60
1, 582946, Control_c, 0, 64, 70
1, 582949, Note_off_c, 0, 68, 59
1, 582961, Control_c, 0, 64, 74
1, 582964, Note_off_c, 0, 72, 60
1, 582976, Control_c, 0, 64, 78
1, 582991, Control_c, 0, 64, 78
1, 583006, Control_c, 0, 64, 72
1, 583020, Control_c, 0, 64, 50
1, 583035, Control_c, 0, 64, 0
1, 583036, Note_on_c, 0, 56, 85
1, 583041, Note_on_c, 0, 63, 98
1, 583041, Note_on_c, 0, 72, 73
1, 583042, Note_on_c, 0, 44, 80
1, 583047, Note_on_c, 0, 68, 89
1, 583095, Control_c, 0, 64, 43
1, 583100, Note_off_c, 0, 56, 61
1, 583110, Control_c, 0, 64, 65
1, 583125, Control_c, 0, 64, 75
1, 583131, Note_off_c, 0, 44, 64
1, 583139, Control_c, 0, 64, 83
1, 583143, Note_off_c, 0, 68, 62
1, 583154, Control_c, 0, 64, 84
1, 583156, Note_off_c, 0, 63, 62
1, 583184, Note_off_c, 0, 72, 54
1, 583198, Control_c, 0, 64, 78
1, 583213, Control_c, 0, 64, 63
1, 583217, Note_on_c, 0, 72, 49
1, 583223, Note_on_c, 0, 50, 73
1, 583224, Note_on_c, 0, 62, 90
1, 583225, Note_on_c, 0, 38, 68
1, 583228, Note_on_c, 0, 74, 71
1, 583228, Control_c, 0, 64, 0
1, 583230, Note_on_c, 0, 69, 70
1, 583233, Note_on_c, 0, 66, 76
1, 583287, Control_c, 0, 64, 28
1, 583302, Control_c, 0, 64, 60
1, 583306, Note_off_c, 0, 50, 62
1, 583307, Note_off_c, 0, 38, 63
1, 583307, Note_off_c, 0, 66, 63
1, 583311, Note_off_c, 0, 62, 61
1, 583317, Control_c, 0, 64, 67
1, 583319, Note_off_c, 0, 74, 60
1, 583327, Note_off_c, 0, 69, 59
1, 583331, Control_c, 0, 64, 71
1, 583344, Note_off_c, 0, 72, 57
1, 583346, Control_c, 0, 64, 72
1, 583361, Control_c, 0, 64, 73
1, 583376, Control_c, 0, 64, 74
1, 583390, Control_c, 0, 64, 76
1, 583402, Note_on_c, 0, 74, 87
1, 583405, Note_on_c, 0, 50, 74
1, 583405, Control_c, 0, 64, 78
1, 583406, Note_on_c, 0, 38, 75
1, 583406, Note_on_c, 0, 62, 83
1, 583406, Note_on_c, 0, 66, 78
1, 583420, Control_c, 0, 64, 81
1, 583429, Note_on_c, 0, 69, 37
1, 583432, Note_off_c, 0, 62, 61
1, 583433, Note_off_c, 0, 50, 64
1, 583435, Control_c, 0, 64, 85
1, 583438, Note_off_c, 0, 66, 64
1, 583450, Note_off_c, 0, 38, 64
1, 583450, Control_c, 0, 64, 89
1, 583452, Note_off_c, 0, 69, 62
1, 583472, Control_c, 0, 64, 92
1, 583476, Note_off_c, 0, 74, 67
1, 583487, Control_c, 0, 64, 95
1, 583502, Control_c, 0, 64, 99
1, 583517, Control_c, 0, 64, 105
1, 583532, Control_c, 0, 64, 121
1, 583546, Control_c, 0, 64, 127
1, 583641, Note_on_c, 0, 79, 94
1, 583648, Note_on_c, 0, 75, 89
1, 583649, Note_on_c, 0, 67, 88
1, 583650, Note_on_c, 0, 72, 77
1, 583652, Note_on_c, 0, 31, 86
1, 583652, Note_on_c, 0, 43, 83
1, 583664, Control_c, 0, 64, 99
1, 583679, Control_c, 0, 64, 67
1, 583695, Control_c, 0, 64, 0
1, 583709, Note_on_c, 0, 76, 28
1, 583739, Note_off_c, 0, 43, 57
1, 583760, Note_off_c, 0, 67, 59
1, 583813, Control_c, 0, 64, 46
1, 583824, Note_on_c, 0, 43, 61
1, 583828, Control_c, 0, 64, 60
1, 583836, Note_on_c, 0, 67, 65
1, 583843, Control_c, 0, 64, 65
1, 583858, Control_c, 0, 64, 68
1, 583873, Control_c, 0, 64, 71
1, 583880, Note_off_c, 0, 43, 57
1, 583885, Note_off_c, 0, 67, 56
1, 583888, Control_c, 0, 64, 73
1, 583903, Control_c, 0, 64, 75
1, 583918, Control_c, 0, 64, 77
1, 583921, Note_off_c, 0, 79, 43
1, 583933, Control_c, 0, 64, 79
1, 583947, Control_c, 0, 64, 80
1, 583962, Control_c, 0, 64, 81
1, 583977, Control_c, 0, 64, 82
1, 583985, Note_on_c, 0, 67, 79
1, 583987, Note_on_c, 0, 43, 70
1, 583990, Note_off_c, 0, 76, 43
1, 583992, Control_c, 0, 64, 83
1, 584004, Note_off_c, 0, 75, 63
1, 584007, Control_c, 0, 64, 85
1, 584013, Note_off_c, 0, 72, 61
1, 584021, Control_c, 0, 64, 87
1, 584030, Note_off_c, 0, 67, 58
1, 584034, Note_off_c, 0, 43, 59
1, 584036, Control_c, 0, 64, 91
1, 584040, Note_off_c, 0, 31, 63
1, 584051, Control_c, 0, 64, 94
1, 584066, Control_c, 0, 64, 99
1, 584081, Control_c, 0, 64, 104
1, 584095, Control_c, 0, 64, 110
1, 584110, Control_c, 0, 64, 118
1, 584125, Control_c, 0, 64, 127
1, 584172, Note_on_c, 0, 67, 92
1, 584182, Note_on_c, 0, 59, 75
1, 584183, Note_on_c, 0, 55, 85
1, 584184, Control_c, 0, 64, 97
1, 584185, Note_on_c, 0, 62, 74
1, 584187, Note_on_c, 0, 31, 82
1, 584189, Note_on_c, 0, 43, 89
1, 584199, Control_c, 0, 64, 72
1, 584221, Control_c, 0, 64, 36
1, 584236, Control_c, 0, 64, 0
1, 584317, Note_off_c, 0, 55, 60
1, 584317, Note_off_c, 0, 43, 56
1, 584369, Note_on_c, 0, 55, 62
1, 584373, Note_on_c, 0, 43, 72
1, 584384, Control_c, 0, 64, 39
1, 584399, Control_c, 0, 64, 49
1, 584413, Control_c, 0, 64, 48
1, 584428, Control_c, 0, 64, 46
1, 584443, Note_off_c, 0, 43, 60
1, 584454, Note_off_c, 0, 55, 59
1, 584458, Control_c, 0, 64, 47
1, 584473, Control_c, 0, 64, 48
1, 584489, Control_c, 0, 64, 50
1, 584504, Control_c, 0, 64, 52
1, 584518, Control_c, 0, 64, 56
1, 584533, Control_c, 0, 64, 59
1, 584544, Note_on_c, 0, 43, 75
1, 584548, Control_c, 0, 64, 62
1, 584549, Note_on_c, 0, 55, 71
1, 584563, Control_c, 0, 64, 63
1, 584578, Control_c, 0, 64, 64
1, 584592, Control_c, 0, 64, 65
1, 584607, Control_c, 0, 64, 65
1, 584618, Note_off_c, 0, 43, 60
1, 584622, Control_c, 0, 64, 66
1, 584636, Control_c, 0, 64, 66
1, 584638, Note_off_c, 0, 31, 59
1, 584640, Note_off_c, 0, 55, 60
1, 584651, Control_c, 0, 64, 67
1, 584666, Control_c, 0, 64, 67
1, 584681, Control_c, 0, 64, 68
1, 584725, Control_c, 0, 64, 66
1, 584737, Note_on_c, 0, 43, 89
1, 584740, Control_c, 0, 64, 59
1, 584747, Note_on_c, 0, 55, 75
1, 584755, Control_c, 0, 64, 0
1, 584843, Control_c, 0, 64, 41
1, 584846, Note_off_c, 0, 67, 45
1, 584858, Control_c, 0, 64, 62
1, 584873, Control_c, 0, 64, 66
1, 584875, Note_off_c, 0, 55, 59
1, 584888, Control_c, 0, 64, 68
1, 584917, Control_c, 0, 64, 66
1, 584921, Note_on_c, 0, 67, 77
1, 584929, Note_off_c, 0, 43, 61
1, 584931, Note_on_c, 0, 38, 80
1, 584932, Control_c, 0, 64, 60
1, 584934, Note_on_c, 0, 55, 67
1, 584947, Control_c, 0, 64, 0
1, 585041, Note_off_c, 0, 62, 19
1, 585049, Note_off_c, 0, 67, 55
1, 585055, Note_off_c, 0, 55, 60
1, 585058, Control_c, 0, 64, 55
1, 585073, Control_c, 0, 64, 65
1, 585088, Control_c, 0, 64, 69
1, 585100, Note_off_c, 0, 59, 37
1, 585103, Control_c, 0, 64, 71
1, 585117, Control_c, 0, 64, 72
1, 585120, Note_on_c, 0, 67, 70
1, 585122, Note_on_c, 0, 35, 78
1, 585130, Note_on_c, 0, 55, 72
1, 585131, Note_off_c, 0, 38, 62
1, 585132, Control_c, 0, 64, 72
1, 585147, Control_c, 0, 64, 73
1, 585161, Control_c, 0, 64, 74
1, 585176, Control_c, 0, 64, 75
1, 585191, Note_off_c, 0, 35, 64
1, 585231, Note_off_c, 0, 67, 54
1, 585244, Note_off_c, 0, 55, 56
1, 585250, Control_c, 0, 64, 76
1, 585296, Control_c, 0, 64, 76
1, 585311, Control_c, 0, 64, 77
1, 585326, Control_c, 0, 64, 77
1, 585355, Control_c, 0, 64, 78
1, 585370, Control_c, 0, 64, 77
1, 585374, Note_on_c, 0, 67, 68
1, 585381, Note_on_c, 0, 61, 73
1, 585384, Note_on_c, 0, 34, 60
1, 585384, Control_c, 0, 64, 72
1, 585388, Note_on_c, 0, 46, 66
1, 585399, Control_c, 0, 64, 63
1, 585414, Control_c, 0, 64, 0
1, 585489, Control_c, 0, 64, 33
1, 585504, Control_c, 0, 64, 62
1, 585519, Control_c, 0, 64, 71
1, 585533, Control_c, 0, 64, 79
1, 585548, Control_c, 0, 64, 82
1, 585560, Note_off_c, 0, 61, 57
1, 585563, Control_c, 0, 64, 83
1, 585566, Note_off_c, 0, 46, 59
1, 585575, Note_off_c, 0, 34, 62
1, 585577, Note_off_c, 0, 67, 57
1, 585623, Control_c, 0, 64, 81
1, 585638, Control_c, 0, 64, 69
1, 585645, Note_on_c, 0, 69, 63
1, 585646, Note_on_c, 0, 61, 51
1, 585651, Note_on_c, 0, 45, 55
1, 585652, Control_c, 0, 64, 48
1, 585653, Note_on_c, 0, 67, 42
1, 585661, Note_on_c, 0, 33, 53
1, 585667, Control_c, 0, 64, 0
1, 585719, Control_c, 0, 64, 14
1, 585733, Control_c, 0, 64, 61
1, 585748, Control_c, 0, 64, 71
1, 585763, Control_c, 0, 64, 85
1, 585775, Note_off_c, 0, 69, 63
1, 585778, Control_c, 0, 64, 90
1, 585781, Note_off_c, 0, 61, 60
1, 585785, Note_off_c, 0, 45, 63
1, 585808, Note_off_c, 0, 33, 0
1, 585808, Control_c, 0, 64, 90
1, 585822, Control_c, 0, 64, 79
1, 585823, Note_off_c, 0, 67, 0
1, 585836, Note_on_c, 0, 69, 55
1, 585837, Control_c, 0, 64, 63
1, 585840, Note_on_c, 0, 33, 36
1, 585843, Note_on_c, 0, 67, 33
1, 585846, Note_on_c, 0, 61, 50
1, 585848, Note_on_c, 0, 45, 61
1, 585852, Control_c, 0, 64, 0
1, 585897, Control_c, 0, 64, 28
1, 585912, Control_c, 0, 64, 63
1, 585927, Control_c, 0, 64, 75
1, 585932, Note_off_c, 0, 69, 62
1, 585936, Note_off_c, 0, 61, 59
1, 585941, Control_c, 0, 64, 91
1, 585942, Note_off_c, 0, 45, 62
1, 585942, Note_off_c, 0, 67, 55
1, 585945, Note_off_c, 0, 33, 61
1, 585956, Control_c, 0, 64, 98
1, 585985, Control_c, 0, 64, 87
1, 586000, Control_c, 0, 64, 68
1, 586001, Note_on_c, 0, 61, 47
1, 586007, Note_on_c, 0, 33, 56
1, 586008, Note_on_c, 0, 69, 63
1, 586014, Note_on_c, 0, 45, 68
1, 586015, Control_c, 0, 64, 15
1, 586016, Note_on_c, 0, 67, 53
1, 586030, Control_c, 0, 64, 0
1, 586059, Control_c, 0, 64, 36
1, 586074, Control_c, 0, 64, 64
1, 586090, Control_c, 0, 64, 76
1, 586096, Note_off_c, 0, 33, 65
1, 586105, Control_c, 0, 64, 88
1, 586109, Note_off_c, 0, 45, 58
1, 586112, Note_off_c, 0, 61, 57
1, 586120, Control_c, 0, 64, 91
1, 586129, Note_off_c, 0, 69, 59
1, 586135, Control_c, 0, 64, 90
1, 586150, Control_c, 0, 64, 83
1, 586164, Control_c, 0, 64, 67
1, 586179, Control_c, 0, 64, 0
1, 586183, Note_on_c, 0, 69, 48
1, 586186, Note_on_c, 0, 62, 71
1, 586187, Note_on_c, 0, 35, 65
1, 586195, Note_on_c, 0, 47, 66
1, 586238, Control_c, 0, 64, 55
1, 586246, Note_off_c, 0, 47, 60
1, 586253, Control_c, 0, 64, 69
1, 586264, Note_off_c, 0, 35, 65
1, 586268, Control_c, 0, 64, 82
1, 586274, Note_off_c, 0, 67, 18
1, 586282, Control_c, 0, 64, 98
1, 586297, Control_c, 0, 64, 104
1, 586299, Note_off_c, 0, 69, 63
1, 586305, Note_off_c, 0, 62, 53
1, 586312, Control_c, 0, 64, 105
1, 586342, Control_c, 0, 64, 90
1, 586356, Control_c, 0, 64, 69
1, 586364, Note_on_c, 0, 69, 59
1, 586369, Note_on_c, 0, 64, 73
1, 586371, Note_on_c, 0, 37, 67
1, 586371, Control_c, 0, 64, 35
1, 586377, Note_on_c, 0, 49, 68
1, 586386, Control_c, 0, 64, 0
1, 586416, Control_c, 0, 64, 39
1, 586431, Control_c, 0, 64, 67
1, 586445, Control_c, 0, 64, 82
1, 586468, Control_c, 0, 64, 110
1, 586473, Note_off_c, 0, 37, 63
1, 586482, Note_off_c, 0, 49, 60
1, 586482, Control_c, 0, 64, 127
1, 586489, Note_off_c, 0, 64, 63
1, 586494, Note_off_c, 0, 69, 65
1, 586542, Control_c, 0, 64, 79
1, 586556, Control_c, 0, 64, 56
1, 586564, Note_on_c, 0, 38, 70
1, 586565, Note_on_c, 0, 69, 73
1, 586568, Note_on_c, 0, 50, 70
1, 586571, Control_c, 0, 64, 0
1, 586574, Note_on_c, 0, 65, 67
1, 586615, Control_c, 0, 64, 36
1, 586630, Control_c, 0, 64, 66
1, 586645, Control_c, 0, 64, 85
1, 586655, Note_off_c, 0, 38, 63
1, 586660, Control_c, 0, 64, 127
1, 586666, Note_off_c, 0, 50, 61
1, 586676, Note_off_c, 0, 65, 61
1, 586678, Note_off_c, 0, 69, 64
1, 586735, Note_on_c, 0, 40, 73
1, 586738, Note_on_c, 0, 69, 71
1, 586744, Note_on_c, 0, 52, 75
1, 586753, Note_on_c, 0, 64, 62
1, 586755, Note_on_c, 0, 65, 55
1, 586764, Control_c, 0, 64, 94
1, 586779, Control_c, 0, 64, 64
1, 586794, Control_c, 0, 64, 0
1, 586816, Note_off_c, 0, 52, 66
1, 586822, Note_off_c, 0, 40, 64
1, 586839, Note_off_c, 0, 69, 63
1, 586843, Note_off_c, 0, 65, 57
1, 586853, Control_c, 0, 64, 52
1, 586855, Note_off_c, 0, 64, 57
1, 586868, Control_c, 0, 64, 67
1, 586884, Control_c, 0, 64, 77
1, 586899, Control_c, 0, 64, 84
1, 586913, Control_c, 0, 64, 85
1, 586922, Note_on_c, 0, 69, 75
1, 586925, Note_on_c, 0, 53, 72
1, 586926, Note_on_c, 0, 41, 74
1, 586928, Note_on_c, 0, 62, 77
1, 586938, Note_on_c, 0, 65, 40
1, 586967, Note_off_c, 0, 65, 55
1, 586985, Note_off_c, 0, 53, 65
1, 586991, Note_off_c, 0, 41, 62
1, 586994, Note_off_c, 0, 69, 64
1, 587060, Note_off_c, 0, 62, 50
1, 587135, Control_c, 0, 64, 77
1, 587149, Control_c, 0, 64, 64
1, 587155, Note_on_c, 0, 71, 69
1, 587164, Control_c, 0, 64, 0
1, 587165, Note_on_c, 0, 56, 62
1, 587170, Note_on_c, 0, 65, 68
1, 587175, Note_on_c, 0, 62, 67
1, 587177, Note_on_c, 0, 44, 55
1, 587261, Control_c, 0, 64, 58
1, 587276, Control_c, 0, 64, 69
1, 587291, Control_c, 0, 64, 81
1, 587291, Control_c, 0, 67, 14
1, 587305, Control_c, 0, 64, 91
1, 587305, Control_c, 0, 67, 22
1, 587320, Control_c, 0, 64, 92
1, 587320, Control_c, 0, 67, 29
1, 587323, Note_off_c, 0, 62, 59
1, 587327, Note_off_c, 0, 65, 54
1, 587335, Control_c, 0, 67, 35
1, 587350, Control_c, 0, 64, 92
1, 587350, Control_c, 0, 67, 37
1, 587355, Note_off_c, 0, 71, 57
1, 587360, Note_off_c, 0, 56, 59
1, 587361, Note_off_c, 0, 44, 61
1, 587364, Control_c, 0, 67, 38
1, 587379, Control_c, 0, 64, 92
1, 587394, Control_c, 0, 64, 83
1, 587409, Control_c, 0, 64, 67
1, 587411, Note_on_c, 0, 71, 60
1, 587424, Note_on_c, 0, 65, 60
1, 587424, Control_c, 0, 64, 33
1, 587424, Control_c, 0, 67, 37
1, 587437, Note_on_c, 0, 62, 61
1, 587438, Control_c, 0, 64, 0
1, 587438, Control_c, 0, 67, 37
1, 587448, Note_on_c, 0, 43, 46
1, 587468, Control_c, 0, 67, 38
1, 587477, Note_on_c, 0, 55, 22
1, 587483, Control_c, 0, 64, 55
1, 587483, Control_c, 0, 67, 40
1, 587498, Control_c, 0, 64, 66
1, 587498, Control_c, 0, 67, 43
1, 587506, Note_off_c, 0, 62, 60
1, 587513, Control_c, 0, 64, 73
1, 587513, Control_c, 0, 67, 51
1, 587515, Note_off_c, 0, 65, 58
1, 587516, Note_off_c, 0, 55, 61
1, 587525, Note_off_c, 0, 71, 56
1, 587528, Control_c, 0, 64, 78
1, 587528, Control_c, 0, 67, 59
1, 587528, Note_off_c, 0, 43, 59
1, 587542, Control_c, 0, 64, 79
1, 587542, Control_c, 0, 67, 66
1, 587557, Control_c, 0, 67, 71
1, 587572, Control_c, 0, 64, 79
1, 587572, Control_c, 0, 67, 73
1, 587587, Control_c, 0, 64, 70
1, 587602, Control_c, 0, 64, 58
1, 587611, Note_on_c, 0, 43, 57
1, 587611, Note_on_c, 0, 71, 53
1, 587617, Control_c, 0, 64, 0
1, 587619, Note_on_c, 0, 55, 56
1, 587623, Note_on_c, 0, 65, 47
1, 587624, Note_on_c, 0, 62, 56
1, 587631, Control_c, 0, 67, 72
1, 587646, Control_c, 0, 67, 72
1, 587661, Control_c, 0, 64, 48
1, 587669, Note_off_c, 0, 65, 56
1, 587677, Control_c, 0, 64, 65
1, 587689, Note_off_c, 0, 62, 58
1, 587691, Control_c, 0, 64, 72
1, 587694, Note_off_c, 0, 43, 61
1, 587701, Note_off_c, 0, 55, 58
1, 587704, Note_off_c, 0, 71, 61
1, 587706, Control_c, 0, 64, 77
1, 587721, Control_c, 0, 64, 78
1, 587736, Control_c, 0, 64, 79
1, 587736, Control_c, 0, 67, 71
1, 587751, Control_c, 0, 67, 70
1, 587764, Control_c, 0, 64, 75
1, 587764, Control_c, 0, 67, 68
1, 587778, Control_c, 0, 64, 66
1, 587778, Control_c, 0, 67, 68
1, 587793, Control_c, 0, 64, 44
1, 587793, Control_c, 0, 67, 67
1, 587795, Note_on_c, 0, 72, 64
1, 587808, Control_c, 0, 64, 0
1, 587808, Control_c, 0, 67, 67
1, 587816, Note_on_c, 0, 43, 61
1, 587817, Note_on_c, 0, 60, 49
1, 587820, Note_on_c, 0, 64, 45
1, 587823, Control_c, 0, 67, 66
1, 587826, Note_on_c, 0, 55, 53
1, 587838, Control_c, 0, 67, 66
1, 587852, Control_c, 0, 67, 65
1, 587867, Control_c, 0, 64, 56
1, 587882, Note_off_c, 0, 43, 59
1, 587882, Control_c, 0, 64, 65
1, 587882, Control_c, 0, 67, 65
1, 587884, Note_off_c, 0, 55, 60
1, 587888, Note_off_c, 0, 64, 61
1, 587891, Note_off_c, 0, 60, 61
1, 587897, Control_c, 0, 64, 70
1, 587912, Control_c, 0, 64, 73
1, 587918, Note_off_c, 0, 72, 59
1, 587927, Control_c, 0, 64, 75
1, 587964, Control_c, 0, 64, 74
1, 587978, Control_c, 0, 64, 67
1, 587993, Control_c, 0, 64, 54
1, 588007, Note_on_c, 0, 72, 64
1, 588008, Control_c, 0, 64, 0
1, 588009, Note_on_c, 0, 41, 59
1, 588016, Note_on_c, 0, 53, 53
1, 588024, Note_on_c, 0, 65, 50
1, 588028, Note_on_c, 0, 62, 51
1, 588038, Control_c, 0, 67, 64
1, 588052, Control_c, 0, 67, 64
1, 588067, Control_c, 0, 64, 61
1, 588082, Control_c, 0, 64, 69
1, 588082, Control_c, 0, 67, 63
1, 588084, Note_off_c, 0, 53, 63
1, 588088, Note_off_c, 0, 62, 56
1, 588091, Note_off_c, 0, 65, 59
1, 588095, Note_off_c, 0, 72, 61
1, 588097, Control_c, 0, 64, 77
1, 588097, Control_c, 0, 67, 62
1, 588110, Note_off_c, 0, 41, 61
1, 588112, Control_c, 0, 64, 81
1, 588112, Control_c, 0, 67, 61
1, 588127, Control_c, 0, 67, 57
1, 588142, Control_c, 0, 64, 80
1, 588142, Control_c, 0, 67, 51
1, 588157, Control_c, 0, 64, 70
1, 588157, Control_c, 0, 67, 44
1, 588171, Control_c, 0, 64, 60
1, 588171, Control_c, 0, 67, 34
1, 588186, Control_c, 0, 64, 0
1, 588186, Control_c, 0, 67, 23
1, 588192, Note_on_c, 0, 72, 72
1, 588201, Control_c, 0, 67, 14
1, 588202, Note_on_c, 0, 40, 57
1, 588203, Note_on_c, 0, 52, 58
1, 588216, Control_c, 0, 67, 0
1, 588228, Note_on_c, 0, 62, 20
1, 588228, Note_on_c, 0, 67, 38
1, 588231, Control_c, 0, 64, 49
1, 588246, Control_c, 0, 64, 61
1, 588260, Control_c, 0, 64, 64
1, 588270, Note_off_c, 0, 62, 50
1, 588271, Note_off_c, 0, 52, 65
1, 588281, Note_off_c, 0, 67, 57
1, 588282, Note_off_c, 0, 40, 64
1, 588303, Note_off_c, 0, 72, 62
1, 588320, Control_c, 0, 64, 64
1, 588334, Control_c, 0, 64, 62
1, 588349, Control_c, 0, 64, 46
1, 588364, Control_c, 0, 64, 0
1, 588395, Note_on_c, 0, 71, 64
1, 588405, Note_on_c, 0, 67, 40
1, 588407, Note_on_c, 0, 38, 52
1, 588408, Note_on_c, 0, 50, 55
1, 588428, Note_on_c, 0, 65, 44
1, 588469, Note_off_c, 0, 50, 57
1, 588479, Note_off_c, 0, 65, 59
1, 588490, Note_off_c, 0, 67, 60
1, 588494, Note_off_c, 0, 38, 57
1, 588523, Note_off_c, 0, 71, 53
1, 588598, Note_on_c, 0, 36, 48
1, 588601, Note_on_c, 0, 72, 55
1, 588601, Note_on_c, 0, 65, 45
1, 588601, Control_c, 0, 64, 38
1, 588614, Note_on_c, 0, 48, 50
1, 588616, Control_c, 0, 64, 58
1, 588619, Note_on_c, 0, 67, 45
1, 588631, Control_c, 0, 64, 64
1, 588646, Control_c, 0, 64, 65
1, 588657, Note_off_c, 0, 67, 60
1, 588664, Note_off_c, 0, 48, 59
1, 588664, Note_off_c, 0, 65, 55
1, 588672, Note_off_c, 0, 36, 60
1, 588690, Control_c, 0, 64, 64
1, 588704, Note_off_c, 0, 72, 63
1, 588713, Control_c, 0, 64, 61
1, 588728, Control_c, 0, 64, 49
1, 588742, Control_c, 0, 64, 0
1, 588805, Note_on_c, 0, 47, 51
1, 588806, Note_on_c, 0, 74, 56
1, 588808, Note_on_c, 0, 35, 43
1, 588818, Note_on_c, 0, 67, 37
1, 588821, Note_on_c, 0, 65, 33
1, 588831, Control_c, 0, 64, 50
1, 588846, Control_c, 0, 64, 61
1, 588861, Control_c, 0, 64, 65
1, 588875, Control_c, 0, 64, 66
1, 588884, Note_off_c, 0, 65, 45
1, 588886, Note_off_c, 0, 67, 57
1, 588887, Note_off_c, 0, 47, 61
1, 588890, Note_off_c, 0, 35, 60
1, 588890, Control_c, 0, 64, 67
1, 588892, Note_off_c, 0, 74, 63
1, 588905, Control_c, 0, 64, 68
1, 588920, Control_c, 0, 64, 70
1, 588935, Control_c, 0, 64, 72
1, 588964, Control_c, 0, 64, 70
1, 588979, Control_c, 0, 64, 65
1, 588994, Control_c, 0, 64, 57
1, 589009, Control_c, 0, 64, 35
1, 589019, Note_on_c, 0, 74, 59
1, 589024, Control_c, 0, 64, 40
1, 589024, Control_c, 0, 67, 13
1, 589025, Note_on_c, 0, 35, 47
1, 589029, Note_on_c, 0, 47, 43
1, 589036, Note_on_c, 0, 65, 45
1, 589039, Control_c, 0, 64, 51
1, 589039, Control_c, 0, 67, 25
1, 589046, Note_on_c, 0, 67, 32
1, 589054, Control_c, 0, 64, 60
1, 589054, Control_c, 0, 67, 40
1, 589069, Control_c, 0, 64, 63
1, 589069, Control_c, 0, 67, 49
1, 589072, Note_off_c, 0, 35, 61
1, 589083, Note_off_c, 0, 47, 60
1, 589083, Control_c, 0, 64, 64
1, 589083, Control_c, 0, 67, 56
1, 589098, Note_off_c, 0, 65, 62
1, 589098, Control_c, 0, 67, 61
1, 589113, Control_c, 0, 67, 64
1, 589119, Note_off_c, 0, 67, 48
1, 589127, Control_c, 0, 64, 64
1, 589127, Control_c, 0, 67, 66
1, 589142, Control_c, 0, 64, 63
1, 589142, Control_c, 0, 67, 68
1, 589157, Control_c, 0, 64, 61
1, 589157, Control_c, 0, 67, 70
1, 589172, Control_c, 0, 64, 58
1, 589172, Control_c, 0, 67, 73
1, 589185, Note_off_c, 0, 74, 60
1, 589187, Control_c, 0, 64, 50
1, 589187, Control_c, 0, 67, 77
1, 589201, Control_c, 0, 64, 31
1, 589201, Control_c, 0, 67, 82
1, 589211, Note_on_c, 0, 76, 55
1, 589212, Note_on_c, 0, 36, 44
1, 589216, Control_c, 0, 64, 0
1, 589216, Control_c, 0, 67, 87
1, 589221, Note_on_c, 0, 48, 35
1, 589222, Note_on_c, 0, 67, 31
1, 589229, Note_on_c, 0, 64, 37
1, 589231, Control_c, 0, 67, 92
1, 589247, Control_c, 0, 67, 97
1, 589262, Control_c, 0, 67, 102
1, 589265, Note_off_c, 0, 36, 55
1, 589277, Control_c, 0, 67, 104
1, 589289, Note_off_c, 0, 48, 40
1, 589289, Note_off_c, 0, 64, 59
1, 589292, Control_c, 0, 67, 105
1, 589299, Note_off_c, 0, 76, 61
1, 589307, Control_c, 0, 67, 105
1, 589307, Note_off_c, 0, 67, 59
1, 589411, Control_c, 0, 64, 37
1, 589415, Note_on_c, 0, 36, 32
1, 589420, Note_on_c, 0, 64, 36
1, 589421, Note_on_c, 0, 76, 48
1, 589423, Note_on_c, 0, 48, 34
1, 589423, Note_on_c, 0, 67, 36
1, 589425, Control_c, 0, 64, 55
1, 589425, Control_c, 0, 67, 106
1, 589440, Control_c, 0, 64, 63
1, 589440, Control_c, 0, 67, 107
1, 589462, Control_c, 0, 64, 65
1, 589462, Control_c, 0, 67, 110
1, 589477, Control_c, 0, 64, 66
1, 589477, Control_c, 0, 67, 117
1, 589483, Note_off_c, 0, 64, 44
1, 589483, Note_off_c, 0, 67, 48
1, 589491, Note_off_c, 0, 48, 45
1, 589492, Control_c, 0, 64, 67
1, 589492, Control_c, 0, 67, 125
1, 589494, Note_off_c, 0, 76, 64
1, 589507, Control_c, 0, 64, 69
1, 589507, Control_c, 0, 67, 127
1, 589514, Note_off_c, 0, 36, 39
1, 589522, Control_c, 0, 64, 73
1, 589537, Control_c, 0, 64, 77
1, 589551, Control_c, 0, 64, 78
1, 589626, Note_on_c, 0, 76, 60
1, 589635, Note_on_c, 0, 36, 38
1, 589639, Note_on_c, 0, 67, 39
1, 589642, Note_on_c, 0, 48, 35
1, 589647, Note_on_c, 0, 64, 38
1, 589667, Note_off_c, 0, 36, 51
1, 589677, Note_off_c, 0, 48, 51
1, 589702, Note_off_c, 0, 67, 54
1, 589708, Note_off_c, 0, 64, 61
1, 589770, Note_off_c, 0, 76, 60
1, 589788, Control_c, 0, 64, 76
1, 589803, Control_c, 0, 64, 71
1, 589818, Control_c, 0, 64, 65
1, 589832, Control_c, 0, 64, 52
1, 589841, Note_on_c, 0, 66, 46
1, 589844, Note_on_c, 0, 72, 48
1, 589847, Control_c, 0, 64, 0
1, 589851, Note_on_c, 0, 63, 40
1, 589853, Note_on_c, 0, 45, 34
1, 589874, Note_on_c, 0, 57, 19
1, 589930, Note_off_c, 0, 63, 52
1, 589932, Note_off_c, 0, 45, 63
1, 589934, Note_off_c, 0, 72, 57
1, 589935, Note_off_c, 0, 66, 63
1, 589936, Control_c, 0, 64, 40
1, 589939, Note_off_c, 0, 57, 55
1, 589951, Control_c, 0, 64, 56
1, 589966, Control_c, 0, 64, 62
1, 589981, Control_c, 0, 64, 61
1, 589996, Control_c, 0, 64, 58
1, 590011, Control_c, 0, 64, 53
1, 590025, Control_c, 0, 64, 51
1, 590037, Note_on_c, 0, 72, 52
1, 590040, Control_c, 0, 64, 53
1, 590054, Note_on_c, 0, 57, 47
1, 590055, Control_c, 0, 64, 56
1, 590059, Note_on_c, 0, 45, 44
1, 590061, Note_on_c, 0, 66, 51
1, 590061, Note_on_c, 0, 63, 46
1, 590070, Control_c, 0, 64, 60
1, 590085, Control_c, 0, 64, 63
1, 590094, Note_off_c, 0, 45, 51
1, 590097, Note_off_c, 0, 57, 56
1, 590100, Control_c, 0, 64, 66
1, 590114, Note_off_c, 0, 63, 60
1, 590115, Control_c, 0, 64, 68
1, 590116, Note_off_c, 0, 66, 60
1, 590130, Control_c, 0, 64, 71
1, 590139, Note_off_c, 0, 72, 54
1, 590145, Control_c, 0, 64, 73
1, 590160, Control_c, 0, 64, 75
1, 590174, Control_c, 0, 64, 75
1, 590189, Control_c, 0, 64, 76
1, 590226, Control_c, 0, 64, 75
1, 590241, Control_c, 0, 64, 72
1, 590255, Control_c, 0, 64, 65
1, 590270, Control_c, 0, 64, 54
1, 590276, Note_on_c, 0, 45, 47
1, 590285, Control_c, 0, 64, 39
1, 590288, Note_on_c, 0, 72, 53
1, 590291, Note_on_c, 0, 57, 29
1, 590295, Note_on_c, 0, 66, 42
1, 590299, Note_on_c, 0, 63, 40
1, 590300, Control_c, 0, 64, 44
1, 590315, Control_c, 0, 64, 53
1, 590325, Note_off_c, 0, 57, 53
1, 590330, Control_c, 0, 64, 58
1, 590344, Control_c, 0, 64, 61
1, 590346, Note_off_c, 0, 45, 60
1, 590359, Control_c, 0, 64, 63
1, 590374, Control_c, 0, 64, 64
1, 590389, Control_c, 0, 64, 65
1, 590395, Note_off_c, 0, 63, 49
1, 590401, Note_off_c, 0, 66, 46
1, 590404, Control_c, 0, 64, 65
1, 590419, Control_c, 0, 64, 66
1, 590449, Control_c, 0, 64, 66
1, 590493, Control_c, 0, 64, 66
1, 590497, Note_off_c, 0, 72, 37
1, 590508, Control_c, 0, 64, 63
1, 590523, Control_c, 0, 64, 56
1, 590526, Note_on_c, 0, 74, 49
1, 590533, Note_on_c, 0, 38, 39
1, 590537, Control_c, 0, 64, 29
1, 590544, Note_on_c, 0, 62, 40
1, 590544, Note_on_c, 0, 66, 45
1, 590552, Control_c, 0, 64, 0
1, 590577, Note_on_c, 0, 50, 15
1, 590611, Control_c, 0, 64, 44
1, 590626, Control_c, 0, 64, 59
1, 590628, Note_off_c, 0, 74, 54
1, 590634, Note_off_c, 0, 62, 51
1, 590641, Control_c, 0, 64, 64
1, 590642, Note_off_c, 0, 66, 44
1, 590655, Control_c, 0, 64, 66
1, 590659, Note_off_c, 0, 38, 52
1, 590674, Note_off_c, 0, 50, 48
1, 590699, Control_c, 0, 64, 66
1, 590714, Control_c, 0, 64, 68
1, 590729, Control_c, 0, 64, 69
1, 590744, Control_c, 0, 64, 71
1, 590759, Control_c, 0, 64, 71
1, 590774, Control_c, 0, 64, 72
1, 590789, Control_c, 0, 64, 73
1, 590796, Note_on_c, 0, 38, 36
1, 590798, Note_on_c, 0, 74, 36
1, 590798, Note_on_c, 0, 66, 35
1, 590804, Control_c, 0, 64, 73
1, 590815, Note_on_c, 0, 60, 31
1, 590833, Control_c, 0, 64, 74
1, 590891, Note_off_c, 0, 66, 0
1, 590917, Note_off_c, 0, 38, 32
1, 590935, Poly_aftertouch_c, 0, 66, 0
1, 590941, Note_off_c, 0, 60, 36
1, 590954, Note_off_c, 0, 74, 30
1, 591049, Control_c, 0, 64, 73
1, 591093, Control_c, 0, 64, 73
1, 591108, Control_c, 0, 64, 72
1, 591123, Control_c, 0, 64, 71
1, 591137, Control_c, 0, 64, 69
1, 591152, Control_c, 0, 64, 65
1, 591164, Note_on_c, 0, 67, 37
1, 591167, Control_c, 0, 64, 54
1, 591172, Note_on_c, 0, 59, 33
1, 591182, Control_c, 0, 64, 0
1, 591185, Note_on_c, 0, 50, 18
1, 591188, Note_on_c, 0, 43, 15
1, 591271, Control_c, 0, 64, 48
1, 591286, Control_c, 0, 64, 62
1, 591301, Control_c, 0, 64, 66
1, 591316, Control_c, 0, 64, 68
1, 591330, Control_c, 0, 64, 68
1, 591345, Control_c, 0, 64, 69
1, 591360, Control_c, 0, 64, 71
1, 591372, Note_off_c, 0, 67, 53
1, 591375, Control_c, 0, 64, 72
1, 591390, Control_c, 0, 64, 74
1, 591404, Control_c, 0, 64, 75
1, 591414, Note_off_c, 0, 59, 42
1, 591419, Control_c, 0, 64, 76
1, 591513, Note_on_c, 0, 67, 43
1, 591613, Note_off_c, 0, 67, 33
1, 591674, Note_off_c, 0, 50, 31
1, 591721, Note_off_c, 0, 43, 35
1, 591723, Control_c, 0, 64, 75
1, 591760, Note_on_c, 0, 67, 35
1, 591818, Note_off_c, 0, 67, 57
1, 591974, Note_on_c, 0, 67, 40
1, 592060, Note_off_c, 0, 67, 50
1, 592202, Note_on_c, 0, 67, 38
1, 592258, Note_off_c, 0, 67, 43
1, 592390, Control_c, 0, 64, 75
1, 592429, Note_on_c, 0, 67, 40
1, 592472, Control_c, 0, 64, 74
1, 592529, Note_off_c, 0, 67, 48
1, 592679, Note_on_c, 0, 67, 37
1, 592697, Note_on_c, 0, 52, 34
1, 592720, Note_on_c, 0, 55, 6
1, 592789, Note_off_c, 0, 55, 42
1, 592815, Note_off_c, 0, 52, 35
1, 592826, Note_off_c, 0, 67, 41
1, 592902, Control_c, 0, 64, 74
1, 592910, Note_on_c, 0, 72, 49
1, 592916, Note_on_c, 0, 60, 38
1, 592929, Note_on_c, 0, 55, 33
1, 592975, Note_off_c, 0, 55, 45
1, 592986, Poly_aftertouch_c, 0, 67, 127
1, 593003, Note_off_c, 0, 60, 34
1, 593027, Poly_aftertouch_c, 0, 67, 0
1, 593034, Note_off_c, 0, 72, 49
1, 593139, Control_c, 0, 64, 73
1, 593154, Note_on_c, 0, 76, 57
1, 593165, Note_on_c, 0, 64, 37
1, 593182, Note_on_c, 0, 60, 4
1, 593205, Poly_aftertouch_c, 0, 67, 127
1, 593234, Note_off_c, 0, 76, 59
1, 593237, Note_off_c, 0, 60, 41
1, 593251, Poly_aftertouch_c, 0, 67, 0
1, 593308, Note_off_c, 0, 64, 34
1, 593473, Control_c, 0, 64, 73
1, 593488, Control_c, 0, 64, 72
1, 593493, Note_on_c, 0, 64, 18
1, 593503, Control_c, 0, 64, 70
1, 593505, Note_on_c, 0, 60, 13
1, 593508, Note_on_c, 0, 76, 62
1, 593517, Control_c, 0, 64, 65
1, 593532, Control_c, 0, 64, 56
1, 593537, Note_on_c, 0, 67, 43
1, 593547, Control_c, 0, 64, 27
1, 593562, Control_c, 0, 64, 0
1, 593591, Control_c, 0, 64, 31
1, 593606, Control_c, 0, 64, 52
1, 593621, Control_c, 0, 64, 61
1, 593636, Control_c, 0, 64, 64
1, 593651, Control_c, 0, 64, 65
1, 593665, Control_c, 0, 64, 66
1, 593680, Control_c, 0, 64, 67
1, 593693, Note_off_c, 0, 67, 49
1, 593695, Control_c, 0, 64, 68
1, 593710, Control_c, 0, 64, 69
1, 593731, Note_off_c, 0, 64, 47
1, 593738, Note_off_c, 0, 60, 39
1, 593740, Control_c, 0, 64, 67
1, 593749, Note_off_c, 0, 76, 56
1, 593755, Control_c, 0, 64, 63
1, 593760, Note_on_c, 0, 65, 34
1, 593767, Note_on_c, 0, 77, 60
1, 593770, Control_c, 0, 64, 49
1, 593770, Note_on_c, 0, 62, 43
1, 593784, Control_c, 0, 64, 0
1, 593814, Control_c, 0, 64, 15
1, 593829, Control_c, 0, 64, 48
1, 593838, Note_off_c, 0, 62, 53
1, 593844, Control_c, 0, 64, 61
1, 593859, Control_c, 0, 64, 65
1, 593873, Control_c, 0, 64, 67
1, 593888, Control_c, 0, 64, 68
1, 593932, Control_c, 0, 64, 69
1, 593964, Note_on_c, 0, 74, 58
1, 593969, Control_c, 0, 64, 69
1, 593984, Control_c, 0, 64, 70
1, 593997, Note_on_c, 0, 55, 36
1, 593997, Note_on_c, 0, 67, 38
1, 593999, Control_c, 0, 64, 70
1, 594005, Note_on_c, 0, 62, 34
1, 594014, Control_c, 0, 64, 71
1, 594034, Note_off_c, 0, 74, 61
1, 594041, Note_off_c, 0, 65, 35
1, 594059, Note_off_c, 0, 67, 44
1, 594062, Note_off_c, 0, 77, 25
1, 594074, Control_c, 0, 64, 71
1, 594134, Note_off_c, 0, 62, 38
1, 594151, Note_off_c, 0, 55, 0
1, 594178, Note_on_c, 0, 55, 16
1, 594193, Note_on_c, 0, 74, 56
1, 594201, Note_on_c, 0, 62, 25
1, 594218, Note_on_c, 0, 67, 35
1, 594288, Note_off_c, 0, 67, 60
1, 594291, Note_off_c, 0, 74, 63
1, 594313, Note_off_c, 0, 55, 45
1, 594350, Note_off_c, 0, 62, 38
1, 594405, Note_on_c, 0, 62, 37
1, 594415, Note_on_c, 0, 74, 54
1, 594416, Note_on_c, 0, 67, 51
1, 594449, Note_on_c, 0, 55, 16
1, 594464, Note_off_c, 0, 67, 54
1, 594482, Note_off_c, 0, 74, 63
1, 594492, Note_off_c, 0, 55, 53
1, 594506, Note_off_c, 0, 62, 35
1, 594610, Note_on_c, 0, 55, 39
1, 594619, Note_on_c, 0, 74, 51
1, 594626, Note_on_c, 0, 62, 42
1, 594637, Note_on_c, 0, 67, 52
1, 594667, Note_off_c, 0, 55, 45
1, 594676, Note_off_c, 0, 67, 59
1, 594677, Note_off_c, 0, 62, 56
1, 594709, Note_off_c, 0, 74, 63
1, 594807, Control_c, 0, 64, 70
1, 594822, Control_c, 0, 64, 66
1, 594837, Control_c, 0, 64, 59
1, 594847, Note_on_c, 0, 76, 65
1, 594852, Control_c, 0, 64, 31
1, 594861, Note_on_c, 0, 65, 50
1, 594867, Note_on_c, 0, 62, 45
1, 594867, Control_c, 0, 64, 0
1, 594882, Control_c, 0, 64, 23
1, 594897, Control_c, 0, 64, 40
1, 594912, Control_c, 0, 64, 51
1, 594926, Control_c, 0, 64, 58
1, 594927, Poly_aftertouch_c, 0, 67, 127
1, 594941, Control_c, 0, 64, 62
1, 594956, Control_c, 0, 64, 64
1, 594959, Note_on_c, 0, 77, 67
1, 594971, Control_c, 0, 64, 66
1, 594985, Note_off_c, 0, 76, 47
1, 594986, Control_c, 0, 64, 67
1, 595001, Control_c, 0, 64, 68
1, 595010, Poly_aftertouch_c, 0, 67, 0
1, 595010, Note_off_c, 0, 77, 60
1, 595016, Control_c, 0, 64, 69
1, 595045, Control_c, 0, 64, 69
1, 595060, Control_c, 0, 64, 67
1, 595075, Control_c, 0, 64, 64
1, 595088, Note_on_c, 0, 77, 65
1, 595090, Control_c, 0, 64, 61
1, 595105, Control_c, 0, 64, 60
1, 595108, Note_on_c, 0, 64, 46
1, 595112, Note_off_c, 0, 62, 34
1, 595114, Note_on_c, 0, 60, 45
1, 595119, Control_c, 0, 64, 61
1, 595124, Note_on_c, 0, 67, 39
1, 595134, Control_c, 0, 64, 63
1, 595149, Control_c, 0, 64, 64
1, 595164, Control_c, 0, 64, 65
1, 595174, Note_off_c, 0, 64, 59
1, 595175, Note_off_c, 0, 65, 42
1, 595177, Note_off_c, 0, 60, 59
1, 595178, Control_c, 0, 64, 65
1, 595193, Control_c, 0, 64, 66
1, 595200, Note_on_c, 0, 76, 72
1, 595208, Control_c, 0, 64, 66
1, 595223, Control_c, 0, 64, 67
1, 595237, Control_c, 0, 64, 67
1, 595243, Note_off_c, 0, 77, 55
1, 595247, Note_off_c, 0, 76, 65
1, 595250, Note_off_c, 0, 67, 51
1, 595266, Control_c, 0, 64, 67
1, 595281, Control_c, 0, 64, 65
1, 595296, Control_c, 0, 64, 62
1, 595311, Control_c, 0, 64, 57
1, 595320, Note_on_c, 0, 76, 68
1, 595326, Control_c, 0, 64, 56
1, 595332, Note_on_c, 0, 55, 41
1, 595338, Note_on_c, 0, 62, 50
1, 595340, Control_c, 0, 64, 58
1, 595355, Control_c, 0, 64, 61
1, 595370, Control_c, 0, 64, 62
1, 595385, Control_c, 0, 64, 63
1, 595400, Control_c, 0, 64, 64
1, 595408, Note_off_c, 0, 76, 61
1, 595419, Note_on_c, 0, 74, 61
1, 595425, Note_off_c, 0, 55, 56
1, 595442, Note_off_c, 0, 62, 60
1, 595464, Note_off_c, 0, 74, 60
1, 595525, Control_c, 0, 64, 63
1, 595540, Control_c, 0, 64, 59
1, 595555, Control_c, 0, 64, 48
1, 595567, Note_on_c, 0, 74, 65
1, 595570, Control_c, 0, 64, 0
1, 595581, Note_on_c, 0, 55, 41
1, 595582, Note_on_c, 0, 62, 38
1, 595592, Note_on_c, 0, 67, 48
1, 595689, Control_c, 0, 64, 49
1, 595704, Control_c, 0, 64, 61
1, 595713, Note_off_c, 0, 67, 57
1, 595719, Control_c, 0, 64, 62
1, 595749, Control_c, 0, 64, 63
1, 595758, Note_off_c, 0, 55, 60
1, 595764, Control_c, 0, 64, 64
1, 595767, Note_off_c, 0, 62, 55
1, 595776, Note_off_c, 0, 74, 56
1, 595779, Control_c, 0, 64, 66
1, 595789, Note_on_c, 0, 76, 62
1, 595793, Control_c, 0, 64, 68
1, 595798, Note_on_c, 0, 60, 39
1, 595807, Note_on_c, 0, 64, 43
1, 595808, Control_c, 0, 64, 71
1, 595823, Control_c, 0, 64, 72
1, 595844, Note_off_c, 0, 60, 60
1, 595867, Control_c, 0, 64, 73
1, 595996, Note_on_c, 0, 72, 58
1, 596003, Note_off_c, 0, 64, 34
1, 596005, Note_on_c, 0, 52, 46
1, 596018, Note_on_c, 0, 60, 28
1, 596052, Note_on_c, 0, 67, 20
1, 596069, Note_off_c, 0, 72, 58
1, 596081, Note_off_c, 0, 52, 57
1, 596093, Note_off_c, 0, 67, 50
1, 596118, Note_off_c, 0, 60, 54
1, 596118, Note_off_c, 0, 76, 24
1, 596201, Control_c, 0, 64, 72
1, 596216, Control_c, 0, 64, 69
1, 596217, Note_on_c, 0, 67, 47
1, 596223, Note_on_c, 0, 72, 57
1, 596229, Note_on_c, 0, 60, 44
1, 596231, Control_c, 0, 64, 65
1, 596232, Note_on_c, 0, 52, 51
1, 596246, Control_c, 0, 64, 61
1, 596261, Control_c, 0, 64, 58
1, 596271, Note_off_c, 0, 72, 52
1, 596275, Control_c, 0, 64, 59
1, 596290, Control_c, 0, 64, 61
1, 596305, Control_c, 0, 64, 62
1, 596310, Note_off_c, 0, 67, 53
1, 596319, Control_c, 0, 64, 63
1, 596334, Control_c, 0, 64, 64
1, 596349, Control_c, 0, 64, 65
1, 596353, Note_off_c, 0, 60, 61
1, 596364, Control_c, 0, 64, 65
1, 596451, Note_on_c, 0, 67, 49
1, 596453, Control_c, 0, 64, 66
1, 596455, Note_on_c, 0, 60, 38
1, 596459, Note_on_c, 0, 72, 36
1, 596494, Note_off_c, 0, 72, 60
1, 596503, Note_off_c, 0, 67, 54
1, 596518, Note_off_c, 0, 52, 40
1, 596548, Note_off_c, 0, 60, 37
1, 596602, Control_c, 0, 64, 66
1, 596663, Note_on_c, 0, 55, 41
1, 596676, Note_on_c, 0, 62, 47
1, 596679, Note_on_c, 0, 72, 55
1, 596696, Note_off_c, 0, 55, 65
1, 596736, Note_off_c, 0, 62, 59
1, 596774, Note_on_c, 0, 74, 51
1, 596785, Note_off_c, 0, 72, 63
1, 596807, Note_off_c, 0, 74, 66
1, 596854, Control_c, 0, 64, 67
1, 596883, Control_c, 0, 64, 66
1, 596885, Note_on_c, 0, 67, 55
1, 596898, Control_c, 0, 64, 65
1, 596901, Note_on_c, 0, 63, 46
1, 596904, Note_on_c, 0, 60, 38
1, 596908, Note_on_c, 0, 74, 56
1, 596913, Control_c, 0, 64, 64
1, 596928, Control_c, 0, 64, 62
1, 596950, Control_c, 0, 64, 62
1, 596980, Control_c, 0, 64, 62
1, 596995, Control_c, 0, 64, 63
1, 597007, Note_on_c, 0, 75, 64
1, 597010, Control_c, 0, 64, 64
1, 597019, Note_off_c, 0, 74, 60
1, 597024, Control_c, 0, 64, 65
1, 597034, Note_off_c, 0, 67, 54
1, 597039, Control_c, 0, 64, 66
1, 597045, Note_off_c, 0, 75, 62
1, 597046, Note_off_c, 0, 63, 54
1, 597054, Control_c, 0, 64, 67
1, 597068, Control_c, 0, 64, 67
1, 597098, Control_c, 0, 64, 66
1, 597113, Control_c, 0, 64, 63
1, 597117, Note_on_c, 0, 65, 50
1, 597126, Note_on_c, 0, 75, 66
1, 597128, Control_c, 0, 64, 52
1, 597142, Note_on_c, 0, 62, 53
1, 597142, Control_c, 0, 64, 0
1, 597146, Note_off_c, 0, 60, 35
1, 597187, Control_c, 0, 64, 36
1, 597202, Control_c, 0, 64, 53
1, 597216, Control_c, 0, 64, 61
1, 597225, Note_on_c, 0, 77, 65
1, 597231, Control_c, 0, 64, 64
1, 597246, Control_c, 0, 64, 65
1, 597262, Control_c, 0, 64, 67
1, 597272, Note_off_c, 0, 75, 63
1, 597277, Control_c, 0, 64, 69
1, 597278, Note_off_c, 0, 77, 62
1, 597292, Control_c, 0, 64, 71
1, 597307, Control_c, 0, 64, 72
1, 597324, Note_off_c, 0, 65, 57
1, 597336, Control_c, 0, 64, 69
1, 597347, Note_off_c, 0, 62, 53
1, 597349, Note_on_c, 0, 77, 62
1, 597351, Control_c, 0, 64, 63
1, 597354, Note_on_c, 0, 67, 42
1, 597365, Control_c, 0, 64, 50
1, 597365, Control_c, 0, 67, 126
1, 597372, Note_on_c, 0, 63, 53
1, 597380, Control_c, 0, 64, 32
1, 597380, Control_c, 0, 67, 121
1, 597395, Control_c, 0, 64, 39
1, 597395, Control_c, 0, 67, 117
1, 597410, Control_c, 0, 64, 52
1, 597410, Control_c, 0, 67, 115
1, 597425, Control_c, 0, 64, 62
1, 597439, Control_c, 0, 64, 65
1, 597454, Control_c, 0, 64, 66
1, 597465, Note_off_c, 0, 67, 48
1, 597469, Control_c, 0, 64, 66
1, 597475, Note_on_c, 0, 79, 64
1, 597484, Control_c, 0, 64, 67
1, 597494, Note_off_c, 0, 77, 60
1, 597499, Control_c, 0, 64, 68
1, 597514, Control_c, 0, 64, 68
1, 597520, Note_off_c, 0, 63, 53
1, 597528, Control_c, 0, 67, 115
1, 597578, Note_off_c, 0, 79, 60
1, 597588, Control_c, 0, 64, 69
1, 597661, Note_on_c, 0, 63, 41
1, 597662, Control_c, 0, 67, 115
1, 597692, Note_on_c, 0, 79, 60
1, 597698, Control_c, 0, 64, 68
1, 597704, Note_on_c, 0, 67, 51
1, 597713, Control_c, 0, 64, 67
1, 597728, Control_c, 0, 64, 63
1, 597743, Control_c, 0, 64, 51
1, 597758, Control_c, 0, 64, 0
1, 597773, Control_c, 0, 67, 115
1, 597818, Control_c, 0, 64, 43
1, 597833, Control_c, 0, 64, 58
1, 597847, Control_c, 0, 64, 63
1, 597862, Control_c, 0, 64, 64
1, 597877, Control_c, 0, 67, 115
1, 597891, Control_c, 0, 64, 65
1, 597906, Control_c, 0, 64, 65
1, 597910, Note_off_c, 0, 67, 54
1, 597921, Control_c, 0, 64, 66
1, 597936, Control_c, 0, 64, 67
1, 597951, Control_c, 0, 64, 67
1, 597951, Control_c, 0, 67, 116
1, 597980, Control_c, 0, 67, 116
1, 598039, Control_c, 0, 67, 117
1, 598041, Note_off_c, 0, 63, 50
1, 598054, Control_c, 0, 64, 68
1, 598070, Control_c, 0, 67, 117
1, 598077, Note_on_c, 0, 80, 60
1, 598085, Control_c, 0, 64, 67
1, 598092, Note_on_c, 0, 65, 37
1, 598100, Note_off_c, 0, 79, 55
1, 598100, Control_c, 0, 64, 64
1, 598106, Note_on_c, 0, 68, 41
1, 598114, Control_c, 0, 64, 59
1, 598114, Control_c, 0, 67, 118
1, 598129, Control_c, 0, 64, 44
1, 598144, Control_c, 0, 64, 26
1, 598159, Control_c, 0, 64, 32
1, 598174, Control_c, 0, 64, 43
1, 598188, Control_c, 0, 64, 53
1, 598203, Control_c, 0, 64, 61
1, 598203, Control_c, 0, 67, 118
1, 598218, Control_c, 0, 64, 64
1, 598218, Control_c, 0, 67, 119
1, 598233, Control_c, 0, 64, 65
1, 598235, Note_off_c, 0, 68, 59
1, 598248, Control_c, 0, 64, 66
1, 598262, Control_c, 0, 64, 67
1, 598277, Control_c, 0, 64, 67
1, 598277, Control_c, 0, 67, 119
1, 598292, Control_c, 0, 64, 68
1, 598292, Control_c, 0, 67, 120
1, 598306, Control_c, 0, 64, 68
1, 598306, Control_c, 0, 67, 120
1, 598321, Control_c, 0, 64, 69
1, 598321, Control_c, 0, 67, 121
1, 598336, Control_c, 0, 64, 70
1, 598336, Control_c, 0, 67, 121
1, 598345, Note_off_c, 0, 65, 0
1, 598351, Control_c, 0, 64, 72
1, 598351, Control_c, 0, 67, 122
1, 598361, Note_on_c, 0, 56, 39
1, 598366, Control_c, 0, 64, 72
1, 598366, Control_c, 0, 67, 123
1, 598369, Note_on_c, 0, 65, 10
1, 598371, Note_on_c, 0, 77, 45
1, 598376, Note_on_c, 0, 68, 44
1, 598381, Control_c, 0, 64, 74
1, 598381, Control_c, 0, 67, 124
1, 598396, Control_c, 0, 64, 74
1, 598396, Control_c, 0, 67, 124
1, 598411, Control_c, 0, 64, 75
1, 598411, Control_c, 0, 67, 125
1, 598426, Control_c, 0, 64, 76
1, 598426, Control_c, 0, 67, 126
1, 598448, Control_c, 0, 64, 77
1, 598448, Control_c, 0, 67, 127
1, 598462, Control_c, 0, 64, 78
1, 598462, Control_c, 0, 67, 127
1, 598477, Control_c, 0, 64, 78
1, 598503, Note_off_c, 0, 56, 36
1, 598521, Control_c, 0, 64, 79
1, 598527, Note_off_c, 0, 65, 41
1, 598533, Note_off_c, 0, 68, 35
1, 598625, Control_c, 0, 64, 79
1, 598631, Note_on_c, 0, 73, 51
1, 598639, Note_off_c, 0, 80, 37
1, 598640, Note_on_c, 0, 65, 28
1, 598640, Control_c, 0, 64, 80
1, 598650, Note_on_c, 0, 56, 26
1, 598651, Note_off_c, 0, 77, 32
1, 598652, Note_on_c, 0, 68, 42
1, 598655, Control_c, 0, 64, 82
1, 598670, Control_c, 0, 64, 84
1, 598685, Control_c, 0, 64, 86
1, 598700, Control_c, 0, 64, 88
1, 598714, Control_c, 0, 64, 89
1, 598729, Control_c, 0, 64, 90
1, 598741, Note_off_c, 0, 68, 46
1, 598744, Control_c, 0, 64, 91
1, 598751, Note_off_c, 0, 56, 37
1, 598759, Control_c, 0, 64, 91
1, 598769, Note_off_c, 0, 73, 37
1, 598774, Note_off_c, 0, 65, 41
1, 598774, Control_c, 0, 64, 92
1, 598846, Note_on_c, 0, 65, 42
1, 598855, Note_on_c, 0, 73, 55
1, 598870, Note_on_c, 0, 68, 47
1, 598872, Note_on_c, 0, 56, 37
1, 598987, Note_off_c, 0, 73, 56
1, 598999, Note_off_c, 0, 56, 33
1, 599000, Note_off_c, 0, 68, 45
1, 599002, Note_off_c, 0, 65, 40
1, 599076, Note_on_c, 0, 73, 61
1, 599084, Note_on_c, 0, 65, 40
1, 599085, Note_on_c, 0, 56, 27
1, 599094, Note_on_c, 0, 68, 61
1, 599199, Note_off_c, 0, 68, 49
1, 599219, Note_off_c, 0, 56, 33
1, 599222, Note_off_c, 0, 65, 37
1, 599228, Note_off_c, 0, 73, 55
1, 599335, Note_on_c, 0, 73, 71
1, 599338, Note_on_c, 0, 56, 50
1, 599344, Note_on_c, 0, 65, 48
1, 599346, Note_on_c, 0, 68, 49
1, 599456, Note_off_c, 0, 56, 50
1, 599460, Note_off_c, 0, 65, 54
1, 599490, Note_off_c, 0, 68, 49
1, 599610, Note_on_c, 0, 65, 52
1, 599617, Note_on_c, 0, 77, 65
1, 599618, Note_on_c, 0, 56, 39
1, 599627, Note_on_c, 0, 68, 49
1, 599675, Note_off_c, 0, 73, 54
1, 599733, Note_off_c, 0, 65, 45
1, 599740, Note_off_c, 0, 56, 37
1, 599749, Note_off_c, 0, 68, 36
1, 599908, Control_c, 0, 64, 91
1, 599921, Note_on_c, 0, 75, 59
1, 599923, Control_c, 0, 64, 85
1, 599925, Note_on_c, 0, 56, 42
1, 599934, Note_on_c, 0, 72, 51
1, 599936, Note_off_c, 0, 77, 54
1, 599942, Note_on_c, 0, 66, 51
1, 599946, Control_c, 0, 64, 75
1, 599958, Note_on_c, 0, 68, 37
1, 599961, Control_c, 0, 64, 65
1, 599975, Control_c, 0, 64, 47
1, 599990, Control_c, 0, 64, 0
1, 600035, Control_c, 0, 64, 45
1, 600049, Control_c, 0, 64, 60
1, 600064, Control_c, 0, 64, 65
1, 600079, Control_c, 0, 64, 68
1, 600093, Control_c, 0, 64, 71
1, 600095, Note_off_c, 0, 68, 45
1, 600108, Control_c, 0, 64, 74
1, 600122, Note_off_c, 0, 72, 54
1, 600123, Control_c, 0, 64, 78
1, 600138, Control_c, 0, 64, 80
1, 600153, Control_c, 0, 64, 81
1, 600161, Note_off_c, 0, 56, 36
1, 600167, Note_off_c, 0, 75, 61
1, 600179, Note_off_c, 0, 66, 38
1, 600360, Control_c, 0, 64, 80
1, 600370, Note_on_c, 0, 75, 58
1, 600375, Control_c, 0, 64, 76
1, 600380, Note_on_c, 0, 56, 35
1, 600390, Note_on_c, 0, 66, 36
1, 600390, Control_c, 0, 64, 69
1, 600393, Note_on_c, 0, 72, 43
1, 600405, Control_c, 0, 64, 61
1, 600416, Note_on_c, 0, 68, 25
1, 600420, Control_c, 0, 64, 33
1, 600434, Control_c, 0, 64, 0
1, 600494, Control_c, 0, 64, 17
1, 600508, Control_c, 0, 64, 49
1, 600523, Control_c, 0, 64, 60
1, 600538, Control_c, 0, 64, 64
1, 600553, Control_c, 0, 64, 65
1, 600568, Control_c, 0, 64, 66
1, 600577, Note_off_c, 0, 68, 37
1, 600582, Control_c, 0, 64, 67
1, 600597, Control_c, 0, 64, 68
1, 600612, Control_c, 0, 64, 70
1, 600627, Control_c, 0, 64, 72
1, 600636, Poly_aftertouch_c, 0, 76, 127
1, 600694, Note_off_c, 0, 66, 35
1, 600731, Note_off_c, 0, 72, 31
1, 600776, Note_off_c, 0, 56, 31
1, 600779, Note_on_c, 0, 73, 47
1, 600795, Poly_aftertouch_c, 0, 76, 0
1, 600796, Note_on_c, 0, 61, 33
1, 600812, Note_on_c, 0, 65, 32
1, 600812, Control_c, 0, 64, 71
1, 600827, Control_c, 0, 64, 68
1, 600831, Note_on_c, 0, 68, 26
1, 600842, Control_c, 0, 64, 64
1, 600857, Control_c, 0, 64, 58
1, 600871, Control_c, 0, 64, 51
1, 600886, Control_c, 0, 64, 51
1, 600901, Control_c, 0, 64, 55
1, 600915, Control_c, 0, 64, 59
1, 600928, Note_off_c, 0, 73, 62
1, 600930, Control_c, 0, 64, 63
1, 600939, Note_off_c, 0, 68, 49
1, 600945, Control_c, 0, 64, 64
1, 600960, Note_off_c, 0, 65, 48
1, 600960, Control_c, 0, 64, 65
1, 600966, Note_off_c, 0, 61, 39
1, 600975, Control_c, 0, 64, 66
1, 600989, Control_c, 0, 64, 67
1, 600998, Note_off_c, 0, 75, 34
1, 601004, Control_c, 0, 64, 69
1, 601019, Control_c, 0, 64, 69
1, 601034, Control_c, 0, 64, 69
1, 601038, Note_on_c, 0, 73, 46
1, 601042, Note_on_c, 0, 65, 40
1, 601049, Control_c, 0, 64, 67
1, 601052, Note_on_c, 0, 61, 38
1, 601055, Note_on_c, 0, 68, 45
1, 601064, Control_c, 0, 64, 64
1, 601079, Control_c, 0, 64, 63
1, 601108, Control_c, 0, 64, 64
1, 601123, Control_c, 0, 64, 65
1, 601138, Control_c, 0, 64, 66
1, 601151, Note_off_c, 0, 68, 49
1, 601153, Control_c, 0, 64, 66
1, 601162, Note_off_c, 0, 73, 58
1, 601168, Note_off_c, 0, 61, 52
1, 601168, Control_c, 0, 64, 67
1, 601174, Note_off_c, 0, 65, 52
1, 601197, Control_c, 0, 64, 67
1, 601212, Control_c, 0, 64, 68
1, 601241, Control_c, 0, 64, 67
1, 601258, Control_c, 0, 64, 64
1, 601272, Control_c, 0, 64, 58
1, 601284, Note_on_c, 0, 68, 44
1, 601284, Note_on_c, 0, 73, 47
1, 601287, Note_on_c, 0, 61, 41
1, 601287, Control_c, 0, 64, 33
1, 601290, Note_on_c, 0, 65, 29
1, 601302, Control_c, 0, 64, 0
1, 601346, Control_c, 0, 64, 34
1, 601361, Control_c, 0, 64, 55
1, 601376, Control_c, 0, 64, 63
1, 601391, Control_c, 0, 64, 66
1, 601405, Control_c, 0, 64, 67
1, 601406, Note_off_c, 0, 68, 59
1, 601420, Control_c, 0, 64, 68
1, 601425, Note_off_c, 0, 73, 54
1, 601442, Control_c, 0, 64, 69
1, 601457, Control_c, 0, 64, 71
1, 601465, Note_off_c, 0, 65, 37
1, 601472, Control_c, 0, 64, 74
1, 601487, Control_c, 0, 64, 75
1, 601496, Note_off_c, 0, 61, 0
1, 601502, Control_c, 0, 64, 75
1, 601514, Note_on_c, 0, 61, 25
1, 601517, Control_c, 0, 64, 76
1, 601521, Note_on_c, 0, 73, 25
1, 601526, Note_on_c, 0, 65, 26
1, 601547, Note_on_c, 0, 68, 41
1, 601587, Note_off_c, 0, 68, 48
1, 601626, Note_off_c, 0, 61, 56
1, 601645, Note_off_c, 0, 73, 48
1, 601647, Note_off_c, 0, 65, 41
1, 601783, Note_on_c, 0, 73, 37
1, 601801, Note_on_c, 0, 61, 25
1, 601815, Note_on_c, 0, 65, 19
1, 601845, Poly_aftertouch_c, 0, 68, 127
1, 601928, Note_off_c, 0, 65, 31
1, 601946, Poly_aftertouch_c, 0, 68, 0
1, 601963, Note_off_c, 0, 73, 40
1, 601975, Note_off_c, 0, 61, 40
1, 602079, Control_c, 0, 64, 75
1, 602094, Control_c, 0, 64, 72
1, 602108, Note_on_c, 0, 60, 34
1, 602109, Control_c, 0, 64, 66
1, 602116, Note_on_c, 0, 77, 45
1, 602124, Control_c, 0, 64, 57
1, 602137, Note_on_c, 0, 65, 30
1, 602139, Control_c, 0, 64, 0
1, 602155, Note_on_c, 0, 68, 24
1, 602203, Note_off_c, 0, 65, 0
1, 602203, Note_on_c, 0, 65, 9
1, 602220, Control_c, 0, 64, 47
1, 602235, Control_c, 0, 64, 62
1, 602250, Control_c, 0, 64, 67
1, 602265, Control_c, 0, 64, 70
1, 602279, Control_c, 0, 64, 71
1, 602294, Control_c, 0, 64, 72
1, 602304, Note_off_c, 0, 68, 45
1, 602309, Control_c, 0, 64, 74
1, 602319, Note_off_c, 0, 60, 40
1, 602324, Control_c, 0, 64, 76
1, 602328, Note_off_c, 0, 65, 41
1, 602339, Control_c, 0, 64, 78
1, 602353, Control_c, 0, 64, 79
1, 602368, Control_c, 0, 64, 80
1, 602383, Control_c, 0, 64, 81
1, 602398, Control_c, 0, 64, 82
1, 602405, Note_on_c, 0, 79, 52
1, 602413, Control_c, 0, 64, 84
1, 602422, Note_on_c, 0, 60, 19
1, 602426, Note_on_c, 0, 68, 38
1, 602428, Control_c, 0, 64, 85
1, 602439, Note_on_c, 0, 65, 21
1, 602442, Control_c, 0, 64, 86
1, 602457, Control_c, 0, 64, 87
1, 602466, Note_off_c, 0, 68, 48
1, 602472, Control_c, 0, 64, 88
1, 602486, Note_off_c, 0, 77, 19
1, 602501, Control_c, 0, 64, 88
1, 602516, Note_off_c, 0, 79, 55
1, 602539, Note_off_c, 0, 60, 36
1, 602553, Note_off_c, 0, 65, 41
1, 602620, Note_on_c, 0, 80, 58
1, 602637, Note_on_c, 0, 68, 48
1, 602639, Note_on_c, 0, 60, 27
1, 602653, Note_on_c, 0, 65, 23
1, 602675, Note_off_c, 0, 68, 48
1, 602700, Note_off_c, 0, 60, 57
1, 602717, Note_off_c, 0, 80, 39
1, 602725, Note_off_c, 0, 65, 40
1, 602813, Control_c, 0, 64, 88
1, 602828, Control_c, 0, 64, 81
1, 602838, Note_on_c, 0, 80, 49
1, 602843, Control_c, 0, 64, 69
1, 602843, Note_on_c, 0, 60, 47
1, 602858, Control_c, 0, 64, 59
1, 602861, Note_on_c, 0, 68, 40
1, 602865, Note_on_c, 0, 65, 28
1, 602873, Control_c, 0, 64, 36
1, 602888, Control_c, 0, 64, 39
1, 602903, Control_c, 0, 64, 50
1, 602918, Control_c, 0, 64, 59
1, 602940, Control_c, 0, 64, 63
1, 602950, Note_off_c, 0, 68, 52
1, 602955, Control_c, 0, 64, 66
1, 602970, Control_c, 0, 64, 68
1, 602984, Control_c, 0, 64, 71
1, 602987, Note_off_c, 0, 60, 23
1, 602999, Control_c, 0, 64, 74
1, 603004, Note_off_c, 0, 80, 38
1, 603014, Control_c, 0, 64, 77
1, 603028, Note_off_c, 0, 65, 0
1, 603029, Control_c, 0, 64, 79
1, 603044, Control_c, 0, 64, 79
1, 603050, Note_on_c, 0, 79, 56
1, 603052, Note_on_c, 0, 65, 22
1, 603053, Note_on_c, 0, 67, 50
1, 603055, Note_on_c, 0, 59, 42
1, 603058, Control_c, 0, 64, 78
1, 603073, Control_c, 0, 64, 71
1, 603088, Control_c, 0, 64, 63
1, 603103, Control_c, 0, 64, 50
1, 603118, Control_c, 0, 64, 44
1, 603133, Control_c, 0, 64, 50
1, 603147, Control_c, 0, 64, 57
1, 603150, Note_off_c, 0, 67, 56
1, 603161, Note_off_c, 0, 79, 57
1, 603162, Control_c, 0, 64, 62
1, 603175, Note_off_c, 0, 59, 60
1, 603177, Control_c, 0, 64, 65
1, 603180, Note_off_c, 0, 65, 52
1, 603192, Control_c, 0, 64, 65
1, 603207, Control_c, 0, 64, 66
1, 603236, Control_c, 0, 64, 66
1, 603257, Note_on_c, 0, 79, 58
1, 603276, Note_on_c, 0, 65, 35
1, 603278, Note_on_c, 0, 59, 23
1, 603279, Note_on_c, 0, 67, 38
1, 603310, Control_c, 0, 64, 67
1, 603324, Note_off_c, 0, 67, 46
1, 603336, Note_off_c, 0, 79, 53
1, 603341, Note_off_c, 0, 59, 55
1, 603355, Control_c, 0, 64, 68
1, 603362, Note_off_c, 0, 65, 37
1, 603370, Control_c, 0, 64, 69
1, 603384, Control_c, 0, 64, 71
1, 603399, Control_c, 0, 64, 73
1, 603414, Control_c, 0, 64, 75
1, 603428, Control_c, 0, 64, 76
1, 603443, Control_c, 0, 64, 77
1, 603458, Control_c, 0, 64, 77
1, 603465, Note_on_c, 0, 59, 49
1, 603467, Note_on_c, 0, 79, 57
1, 603481, Note_on_c, 0, 67, 24
1, 603502, Control_c, 0, 64, 78
1, 603505, Note_off_c, 0, 79, 56
1, 603517, Note_on_c, 0, 65, 7
1, 603523, Note_off_c, 0, 67, 53
1, 603568, Note_off_c, 0, 65, 43
1, 603577, Control_c, 0, 64, 78
1, 603592, Control_c, 0, 64, 79
1, 603607, Control_c, 0, 64, 80
1, 603621, Control_c, 0, 64, 81
1, 603638, Note_off_c, 0, 59, 0
1, 603667, Control_c, 0, 64, 78
1, 603684, Poly_aftertouch_c, 0, 59, 127
1, 603688, Note_on_c, 0, 86, 66
1, 603689, Control_c, 0, 64, 71
1, 603692, Note_on_c, 0, 62, 41
1, 603696, Note_on_c, 0, 67, 43
1, 603704, Control_c, 0, 64, 65
1, 603705, Note_on_c, 0, 74, 42
1, 603719, Control_c, 0, 64, 62
1, 603748, Control_c, 0, 64, 63
1, 603763, Control_c, 0, 64, 64
1, 603778, Control_c, 0, 64, 65
1, 603793, Control_c, 0, 64, 67
1, 603793, Control_c, 0, 67, 126
1, 603806, Poly_aftertouch_c, 0, 59, 0
1, 603807, Control_c, 0, 64, 69
1, 603807, Control_c, 0, 67, 115
1, 603812, Note_off_c, 0, 67, 51
1, 603814, Note_off_c, 0, 74, 59
1, 603822, Control_c, 0, 64, 71
1, 603822, Control_c, 0, 67, 106
1, 603837, Control_c, 0, 64, 73
1, 603837, Control_c, 0, 67, 97
1, 603851, Control_c, 0, 64, 74
1, 603851, Control_c, 0, 67, 88
1, 603857, Note_off_c, 0, 62, 33
1, 603866, Control_c, 0, 64, 74
1, 603866, Control_c, 0, 67, 80
1, 603881, Control_c, 0, 64, 75
1, 603881, Control_c, 0, 67, 72
1, 603896, Control_c, 0, 64, 76
1, 603896, Control_c, 0, 67, 66
1, 603911, Control_c, 0, 64, 78
1, 603911, Control_c, 0, 67, 61
1, 603912, Note_on_c, 0, 60, 51
1, 603914, Note_on_c, 0, 88, 72
1, 603925, Control_c, 0, 64, 80
1, 603925, Control_c, 0, 67, 58
1, 603940, Note_on_c, 0, 64, 34
1, 603940, Note_on_c, 0, 76, 43
1, 603940, Control_c, 0, 64, 83
1, 603940, Control_c, 0, 67, 55
1, 603941, Note_on_c, 0, 67, 30
1, 603953, Note_off_c, 0, 60, 59
1, 603955, Control_c, 0, 64, 84
1, 603955, Control_c, 0, 67, 54
1, 603957, Note_off_c, 0, 86, 32
1, 603970, Control_c, 0, 67, 53
1, 603985, Control_c, 0, 67, 53
1, 603988, Note_off_c, 0, 64, 46
1, 603989, Note_off_c, 0, 67, 46
1, 603991, Note_off_c, 0, 76, 47
1, 604000, Control_c, 0, 64, 84
1, 604000, Control_c, 0, 67, 52
1, 604023, Note_off_c, 0, 88, 60
1, 604030, Control_c, 0, 64, 85
1, 604059, Control_c, 0, 64, 86
1, 604104, Control_c, 0, 64, 83
1, 604104, Control_c, 0, 67, 52
1, 604119, Control_c, 0, 64, 72
1, 604119, Control_c, 0, 67, 51
1, 604129, Note_on_c, 0, 89, 72
1, 604132, Note_on_c, 0, 62, 52
1, 604133, Control_c, 0, 64, 58
1, 604133, Control_c, 0, 67, 50
1, 604142, Note_on_c, 0, 67, 43
1, 604145, Note_on_c, 0, 77, 55
1, 604148, Control_c, 0, 64, 0
1, 604148, Control_c, 0, 67, 48
1, 604155, Note_on_c, 0, 65, 38
1, 604163, Control_c, 0, 67, 45
1, 604178, Control_c, 0, 64, 17
1, 604178, Control_c, 0, 67, 41
1, 604193, Control_c, 0, 64, 48
1, 604193, Control_c, 0, 67, 38
1, 604207, Control_c, 0, 64, 62
1, 604207, Control_c, 0, 67, 32
1, 604222, Control_c, 0, 64, 66
1, 604222, Control_c, 0, 67, 28
1, 604237, Control_c, 0, 64, 68
1, 604237, Control_c, 0, 67, 23
1, 604251, Control_c, 0, 64, 69
1, 604251, Control_c, 0, 67, 19
1, 604255, Note_off_c, 0, 77, 61
1, 604265, Note_off_c, 0, 89, 64
1, 604266, Control_c, 0, 64, 70
1, 604266, Control_c, 0, 67, 14
1, 604281, Control_c, 0, 64, 73
1, 604281, Control_c, 0, 67, 8
1, 604283, Note_off_c, 0, 67, 37
1, 604296, Control_c, 0, 64, 76
1, 604296, Control_c, 0, 67, 0
1, 604311, Control_c, 0, 64, 77
1, 604325, Control_c, 0, 64, 78
1, 604353, Note_on_c, 0, 64, 56
1, 604358, Note_on_c, 0, 91, 75
1, 604361, Note_on_c, 0, 67, 46
1, 604369, Note_on_c, 0, 79, 59
1, 604381, Note_off_c, 0, 65, 27
1, 604418, Note_off_c, 0, 62, 40
1, 604442, Note_off_c, 0, 64, 63
1, 604444, Note_off_c, 0, 79, 61
1, 604455, Note_off_c, 0, 67, 55
1, 604475, Note_off_c, 0, 91, 60
1, 604587, Note_on_c, 0, 93, 75
1, 604590, Note_on_c, 0, 69, 55
1, 604594, Note_on_c, 0, 81, 60
1, 604598, Note_on_c, 0, 65, 44
1, 604693, Note_off_c, 0, 81, 60
1, 604705, Note_off_c, 0, 65, 57
1, 604707, Note_off_c, 0, 93, 59
1, 604711, Note_off_c, 0, 69, 51
1, 604887, Note_on_c, 0, 93, 79
1, 604897, Control_c, 0, 64, 76
1, 604901, Note_on_c, 0, 81, 61
1, 604912, Control_c, 0, 64, 71
1, 604912, Control_c, 0, 67, 10
1, 604917, Note_on_c, 0, 65, 36
1, 604918, Note_on_c, 0, 69, 38
1, 604927, Control_c, 0, 64, 63
1, 604927, Control_c, 0, 67, 13
1, 604942, Control_c, 0, 64, 33
1, 604942, Control_c, 0, 67, 19
1, 604956, Control_c, 0, 64, 0
1, 604956, Control_c, 0, 67, 25
1, 604971, Control_c, 0, 67, 34
1, 604986, Control_c, 0, 67, 46
1, 605000, Control_c, 0, 67, 60
1, 605015, Control_c, 0, 64, 44
1, 605015, Control_c, 0, 67, 77
1, 605030, Control_c, 0, 64, 61
1, 605030, Control_c, 0, 67, 90
1, 605045, Control_c, 0, 64, 66
1, 605045, Control_c, 0, 67, 104
1, 605046, Note_off_c, 0, 81, 58
1, 605060, Control_c, 0, 64, 68
1, 605060, Control_c, 0, 67, 118
1, 605074, Control_c, 0, 64, 71
1, 605074, Control_c, 0, 67, 127
1, 605089, Control_c, 0, 64, 73
1, 605104, Control_c, 0, 64, 75
1, 605119, Control_c, 0, 64, 78
1, 605134, Control_c, 0, 64, 79
1, 605148, Control_c, 0, 64, 79
1, 605151, Note_on_c, 0, 67, 42
1, 605152, Note_on_c, 0, 91, 73
1, 605163, Note_on_c, 0, 79, 64
1, 605165, Note_off_c, 0, 69, 38
1, 605166, Note_on_c, 0, 64, 49
1, 605186, Control_c, 0, 64, 80
1, 605197, Note_off_c, 0, 93, 32
1, 605201, Note_off_c, 0, 65, 30
1, 605207, Note_off_c, 0, 67, 61
1, 605220, Note_off_c, 0, 91, 58
1, 605225, Note_off_c, 0, 64, 63
1, 605235, Note_off_c, 0, 79, 56
1, 605368, Note_on_c, 0, 88, 66
1, 605374, Note_on_c, 0, 60, 51
1, 605377, Note_on_c, 0, 64, 42
1, 605386, Note_on_c, 0, 76, 43
1, 605417, Note_off_c, 0, 60, 60
1, 605452, Note_off_c, 0, 76, 64
1, 605507, Note_off_c, 0, 88, 39
1, 605570, Note_off_c, 0, 64, 40
1, 605572, Control_c, 0, 64, 79
1, 605574, Note_on_c, 0, 60, 39
1, 605574, Note_on_c, 0, 84, 61
1, 605581, Note_on_c, 0, 52, 52
1, 605584, Note_on_c, 0, 72, 55
1, 605586, Control_c, 0, 64, 72
1, 605601, Control_c, 0, 64, 61
1, 605616, Control_c, 0, 64, 0
1, 605660, Control_c, 0, 64, 36
1, 605675, Control_c, 0, 64, 60
1, 605685, Note_off_c, 0, 84, 62
1, 605688, Note_off_c, 0, 72, 63
1, 605690, Control_c, 0, 64, 68
1, 605705, Control_c, 0, 64, 76
1, 605720, Control_c, 0, 64, 81
1, 605720, Note_off_c, 0, 60, 59
1, 605734, Control_c, 0, 64, 83
1, 605748, Note_off_c, 0, 52, 0
1, 605749, Control_c, 0, 64, 83
1, 605764, Control_c, 0, 64, 84
1, 605778, Control_c, 0, 64, 85
1, 605785, Note_on_c, 0, 84, 56
1, 605785, Poly_aftertouch_c, 0, 52, 127
1, 605793, Note_on_c, 0, 60, 44
1, 605793, Control_c, 0, 64, 86
1, 605797, Note_on_c, 0, 72, 48
1, 605808, Control_c, 0, 64, 87
1, 605822, Control_c, 0, 64, 87
1, 605837, Note_off_c, 0, 72, 47
1, 605837, Control_c, 0, 64, 89
1, 605852, Control_c, 0, 64, 90
1, 605860, Note_off_c, 0, 84, 56
1, 605867, Control_c, 0, 64, 92
1, 605882, Control_c, 0, 64, 96
1, 605891, Note_off_c, 0, 60, 57
1, 605896, Control_c, 0, 64, 101
1, 605909, Poly_aftertouch_c, 0, 52, 0
1, 605911, Control_c, 0, 64, 109
1, 605934, Control_c, 0, 64, 127
1, 606022, Note_on_c, 0, 84, 53
1, 606030, Note_on_c, 0, 52, 53
1, 606051, Note_on_c, 0, 60, 36
1, 606064, Note_off_c, 0, 52, 67
1, 606078, Note_off_c, 0, 60, 56
1, 606099, Note_off_c, 0, 84, 62
1, 606287, Note_on_c, 0, 96, 63
1, 606303, Note_on_c, 0, 64, 38
1, 606316, Note_on_c, 0, 84, 51
1, 606319, Note_on_c, 0, 72, 45
1, 606408, Note_off_c, 0, 84, 61
1, 606558, Control_c, 0, 64, 107
1, 606567, Note_on_c, 0, 76, 50
1, 606572, Note_on_c, 0, 67, 50
1, 606573, Control_c, 0, 64, 84
1, 606580, Note_on_c, 0, 100, 68
1, 606587, Note_on_c, 0, 88, 46
1, 606587, Control_c, 0, 64, 74
1, 606590, Note_off_c, 0, 64, 36
1, 606602, Control_c, 0, 64, 70
1, 606617, Control_c, 0, 64, 69
1, 606626, Note_off_c, 0, 96, 61
1, 606646, Control_c, 0, 64, 69
1, 606661, Control_c, 0, 64, 71
1, 606683, Control_c, 0, 64, 75
1, 606698, Control_c, 0, 64, 79
1, 606713, Control_c, 0, 64, 81
1, 606728, Control_c, 0, 64, 83
1, 606740, Note_off_c, 0, 88, 57
1, 606742, Note_off_c, 0, 76, 61
1, 606742, Control_c, 0, 64, 84
1, 606757, Control_c, 0, 64, 85
1, 606772, Control_c, 0, 64, 86
1, 606830, Note_off_c, 0, 72, 31
1, 606847, Control_c, 0, 64, 85
1, 606859, Note_off_c, 0, 100, 56
1, 606870, Note_on_c, 0, 68, 54
1, 606871, Note_on_c, 0, 98, 71
1, 606887, Note_on_c, 0, 86, 58
1, 606900, Note_on_c, 0, 74, 48
1, 606936, Control_c, 0, 64, 86
1, 606945, Note_off_c, 0, 67, 37
1, 606981, Control_c, 0, 64, 86
1, 606981, Note_off_c, 0, 86, 53
1, 607015, Note_off_c, 0, 98, 64
1, 607036, Note_off_c, 0, 74, 57
1, 607064, Note_off_c, 0, 68, 61
1, 607241, Note_on_c, 0, 96, 65
1, 607262, Control_c, 0, 64, 86
1, 607264, Note_on_c, 0, 69, 39
1, 607265, Note_on_c, 0, 72, 42
1, 607272, Note_on_c, 0, 84, 49
1, 607276, Control_c, 0, 64, 83
1, 607291, Control_c, 0, 64, 77
1, 607306, Control_c, 0, 64, 68
1, 607321, Control_c, 0, 64, 58
1, 607336, Control_c, 0, 64, 23
1, 607351, Control_c, 0, 64, 0
1, 607380, Control_c, 0, 64, 37
1, 607395, Control_c, 0, 64, 53
1, 607410, Control_c, 0, 64, 62
1, 607432, Control_c, 0, 64, 65
1, 607447, Control_c, 0, 64, 68
1, 607462, Control_c, 0, 64, 69
1, 607469, Note_off_c, 0, 84, 62
1, 607476, Control_c, 0, 64, 72
1, 607491, Control_c, 0, 64, 74
1, 607506, Control_c, 0, 64, 75
1, 607521, Control_c, 0, 64, 77
1, 607536, Control_c, 0, 64, 78
1, 607550, Control_c, 0, 64, 79
1, 607565, Control_c, 0, 64, 79
1, 607580, Control_c, 0, 64, 80
1, 607590, Note_on_c, 0, 95, 59
1, 607592, Note_off_c, 0, 72, 41
1, 607600, Note_on_c, 0, 83, 54
1, 607604, Note_on_c, 0, 67, 44
1, 607610, Control_c, 0, 64, 80
1, 607612, Note_on_c, 0, 71, 40
1, 607625, Control_c, 0, 64, 81
1, 607631, Note_off_c, 0, 69, 40
1, 607639, Note_off_c, 0, 96, 32
1, 607658, Note_off_c, 0, 71, 58
1, 607671, Note_off_c, 0, 95, 62
1, 607684, Note_off_c, 0, 67, 60
1, 607692, Note_off_c, 0, 83, 57
1, 607820, Note_on_c, 0, 93, 67
1, 607846, Note_on_c, 0, 81, 47
1, 607847, Note_on_c, 0, 65, 37
1, 607854, Note_on_c, 0, 69, 38
1, 607931, Note_off_c, 0, 81, 55
1, 608008, Note_off_c, 0, 69, 38
1, 608010, Note_off_c, 0, 93, 54
1, 608054, Note_on_c, 0, 91, 58
1, 608057, Note_on_c, 0, 67, 41
1, 608057, Note_on_c, 0, 64, 35
1, 608063, Note_on_c, 0, 79, 50
1, 608068, Note_off_c, 0, 65, 42
1, 608115, Note_off_c, 0, 67, 51
1, 608137, Note_off_c, 0, 91, 55
1, 608147, Note_off_c, 0, 64, 59
1, 608152, Note_off_c, 0, 79, 48
1, 608274, Note_on_c, 0, 89, 57
1, 608297, Note_on_c, 0, 62, 49
1, 608299, Control_c, 0, 64, 78
1, 608300, Note_on_c, 0, 65, 34
1, 608305, Note_on_c, 0, 77, 46
1, 608314, Control_c, 0, 64, 74
1, 608329, Control_c, 0, 64, 71
1, 608344, Control_c, 0, 64, 70
1, 608376, Note_off_c, 0, 77, 58
1, 608403, Control_c, 0, 64, 71
1, 608418, Control_c, 0, 64, 72
1, 608433, Control_c, 0, 64, 72
1, 608448, Control_c, 0, 64, 73
1, 608480, Note_off_c, 0, 65, 41
1, 608483, Note_on_c, 0, 88, 55
1, 608491, Note_on_c, 0, 76, 48
1, 608507, Note_off_c, 0, 89, 28
1, 608507, Note_on_c, 0, 64, 38
1, 608516, Note_on_c, 0, 60, 35
1, 608538, Note_off_c, 0, 62, 31
1, 608545, Note_off_c, 0, 64, 58
1, 608554, Note_off_c, 0, 60, 53
1, 608563, Note_off_c, 0, 88, 60
1, 608565, Note_off_c, 0, 76, 58
1, 608707, Note_on_c, 0, 86, 61
1, 608714, Note_on_c, 0, 55, 34
1, 608726, Note_on_c, 0, 74, 32
1, 608741, Note_on_c, 0, 62, 35
1, 608745, Control_c, 0, 64, 72
1, 608760, Control_c, 0, 64, 68
1, 608775, Control_c, 0, 64, 62
1, 608789, Control_c, 0, 64, 45
1, 608804, Control_c, 0, 64, 14
1, 608815, Note_off_c, 0, 74, 58
1, 608819, Control_c, 0, 64, 22
1, 608834, Control_c, 0, 64, 33
1, 608848, Control_c, 0, 64, 46
1, 608863, Control_c, 0, 64, 57
1, 608878, Control_c, 0, 64, 63
1, 608891, Note_off_c, 0, 62, 43
1, 608893, Note_off_c, 0, 86, 57
1, 608893, Control_c, 0, 64, 65
1, 608908, Control_c, 0, 64, 65
1, 608909, Note_on_c, 0, 88, 61
1, 608929, Note_on_c, 0, 64, 41
1, 608930, Control_c, 0, 64, 66
1, 608938, Note_on_c, 0, 60, 44
1, 608945, Control_c, 0, 64, 67
1, 608960, Control_c, 0, 64, 69
1, 608962, Note_off_c, 0, 55, 41
1, 608969, Note_on_c, 0, 76, 34
1, 608975, Control_c, 0, 64, 71
1, 608990, Control_c, 0, 64, 73
1, 609004, Control_c, 0, 64, 74
1, 609008, Note_off_c, 0, 76, 50
1, 609019, Control_c, 0, 64, 75
1, 609034, Control_c, 0, 64, 75
1, 609065, Note_off_c, 0, 88, 55
1, 609078, Control_c, 0, 64, 76
1, 609108, Control_c, 0, 64, 76
1, 609118, Note_off_c, 0, 64, 27
1, 609152, Note_on_c, 0, 55, 44
1, 609157, Note_on_c, 0, 86, 56
1, 609163, Note_on_c, 0, 74, 44
1, 609178, Note_on_c, 0, 62, 9
1, 609207, Note_off_c, 0, 55, 55
1, 609222, Note_off_c, 0, 60, 33
1, 609231, Note_off_c, 0, 62, 40
1, 609247, Note_off_c, 0, 86, 52
1, 609276, Note_off_c, 0, 74, 38
1, 609448, Note_on_c, 0, 84, 48
1, 609464, Control_c, 0, 64, 76
1, 609467, Note_on_c, 0, 60, 30
1, 609470, Note_on_c, 0, 48, 40
1, 609479, Note_on_c, 0, 72, 44
1, 609479, Control_c, 0, 64, 71
1, 609488, Note_on_c, 0, 52, 31
1, 609494, Control_c, 0, 64, 65
1, 609509, Control_c, 0, 64, 54
1, 609524, Control_c, 0, 64, 12
1, 609539, Control_c, 0, 64, 0
1, 609568, Control_c, 0, 64, 25
1, 609583, Control_c, 0, 64, 44
1, 609597, Note_off_c, 0, 84, 42
1, 609598, Control_c, 0, 64, 55
1, 609613, Control_c, 0, 64, 60
1, 609628, Control_c, 0, 64, 63
1, 609643, Control_c, 0, 64, 65
1, 609658, Control_c, 0, 64, 66
1, 609679, Control_c, 0, 64, 68
1, 609694, Control_c, 0, 64, 70
1, 609702, Note_off_c, 0, 72, 60
1, 609709, Control_c, 0, 64, 72
1, 609724, Control_c, 0, 64, 74
1, 609739, Control_c, 0, 64, 75
1, 609753, Control_c, 0, 64, 75
1, 609783, Control_c, 0, 64, 76
1, 609798, Control_c, 0, 64, 76
1, 609813, Control_c, 0, 64, 77
1, 609828, Control_c, 0, 64, 77
1, 609843, Control_c, 0, 64, 78
1, 609846, Note_on_c, 0, 72, 42
1, 609887, Control_c, 0, 64, 78
1, 609925, Note_off_c, 0, 72, 53
1, 610086, Note_on_c, 0, 72, 45
1, 610169, Control_c, 0, 64, 78
1, 610182, Note_off_c, 0, 72, 51
1, 610214, Control_c, 0, 64, 77
1, 610317, Note_on_c, 0, 72, 52
1, 610327, Note_off_c, 0, 48, 33
1, 610385, Note_off_c, 0, 60, 32
1, 610394, Note_off_c, 0, 72, 43
1, 610430, Note_off_c, 0, 52, 39
1, 610536, Note_on_c, 0, 72, 54
1, 610586, Note_off_c, 0, 72, 52
1, 610680, Control_c, 0, 64, 77
1, 610724, Control_c, 0, 64, 76
1, 610739, Control_c, 0, 64, 76
1, 610740, Note_on_c, 0, 72, 50
1, 610818, Note_off_c, 0, 72, 37
1, 610917, Control_c, 0, 64, 75
1, 610962, Note_on_c, 0, 72, 49
1, 610977, Note_on_c, 0, 60, 55
1, 611038, Note_off_c, 0, 72, 36
1, 611204, Note_on_c, 0, 55, 59
1, 611208, Note_on_c, 0, 72, 49
1, 611247, Note_off_c, 0, 60, 24
1, 611267, Note_off_c, 0, 72, 52
1, 611324, Control_c, 0, 64, 75
1, 611369, Control_c, 0, 64, 74
1, 611384, Control_c, 0, 64, 74
1, 611414, Control_c, 0, 64, 73
1, 611420, Note_on_c, 0, 52, 70
1, 611434, Note_on_c, 0, 72, 49
1, 611443, Control_c, 0, 64, 73
1, 611455, Note_off_c, 0, 55, 63
1, 611473, Control_c, 0, 64, 72
1, 611503, Control_c, 0, 64, 72
1, 611517, Control_c, 0, 64, 71
1, 611529, Note_off_c, 0, 72, 59
1, 611547, Control_c, 0, 64, 71
1, 611576, Control_c, 0, 64, 70
1, 611606, Control_c, 0, 64, 70
1, 611637, Control_c, 0, 64, 69
1, 611652, Control_c, 0, 64, 69
1, 611666, Control_c, 0, 64, 68
1, 611681, Control_c, 0, 64, 68
1, 611696, Control_c, 0, 64, 67
1, 611711, Control_c, 0, 64, 66
1, 611721, Note_on_c, 0, 48, 66
1, 611726, Control_c, 0, 64, 65
1, 611733, Note_on_c, 0, 74, 54
1, 611740, Control_c, 0, 64, 64
1, 611755, Control_c, 0, 64, 63
1, 611770, Control_c, 0, 64, 61
1, 611771, Note_on_c, 0, 64, 25
1, 611772, Note_off_c, 0, 52, 61
1, 611784, Control_c, 0, 64, 58
1, 611786, Note_on_c, 0, 70, 29
1, 611799, Control_c, 0, 64, 54
1, 611814, Control_c, 0, 64, 50
1, 611829, Control_c, 0, 64, 46
1, 611844, Control_c, 0, 64, 44
1, 611859, Control_c, 0, 64, 42
1, 611873, Control_c, 0, 64, 41
1, 611888, Control_c, 0, 64, 40
1, 611903, Control_c, 0, 64, 39
1, 611926, Control_c, 0, 64, 39
1, 611930, Note_off_c, 0, 64, 48
1, 611935, Note_off_c, 0, 70, 36
1, 611941, Control_c, 0, 64, 38
1, 611955, Control_c, 0, 64, 38
1, 611970, Control_c, 0, 64, 37
1, 611985, Control_c, 0, 64, 36
1, 611999, Control_c, 0, 64, 36
1, 612014, Control_c, 0, 64, 35
1, 612029, Control_c, 0, 64, 34
1, 612044, Note_on_c, 0, 72, 47
1, 612044, Control_c, 0, 64, 33
1, 612054, Note_on_c, 0, 70, 43
1, 612059, Control_c, 0, 64, 32
1, 612062, Note_on_c, 0, 64, 40
1, 612073, Control_c, 0, 64, 31
1, 612103, Control_c, 0, 64, 30
1, 612110, Note_off_c, 0, 74, 28
1, 612131, Note_off_c, 0, 64, 56
1, 612150, Note_off_c, 0, 70, 56
1, 612167, Note_off_c, 0, 72, 58
1, 612221, Control_c, 0, 64, 31
1, 612269, Note_on_c, 0, 72, 35
1, 612271, Note_on_c, 0, 64, 38
1, 612281, Note_on_c, 0, 70, 49
1, 612311, Control_c, 0, 64, 30
1, 612344, Note_off_c, 0, 64, 56
1, 612347, Note_off_c, 0, 72, 63
1, 612367, Note_off_c, 0, 70, 46
1, 612384, Control_c, 0, 64, 29
1, 612478, Note_on_c, 0, 64, 47
1, 612481, Note_on_c, 0, 72, 57
1, 612483, Note_on_c, 0, 70, 47
1, 612534, Control_c, 0, 64, 30
1, 612558, Note_off_c, 0, 64, 56
1, 612573, Note_off_c, 0, 70, 56
1, 612573, Note_off_c, 0, 72, 56
1, 612578, Control_c, 0, 64, 31
1, 612593, Control_c, 0, 64, 31
1, 612607, Control_c, 0, 64, 32
1, 612622, Control_c, 0, 64, 34
1, 612637, Control_c, 0, 64, 38
1, 612652, Control_c, 0, 64, 44
1, 612674, Control_c, 0, 64, 51
1, 612689, Control_c, 0, 64, 57
1, 612691, Note_on_c, 0, 72, 44
1, 612698, Note_on_c, 0, 64, 47
1, 612704, Note_on_c, 0, 70, 44
1, 612704, Control_c, 0, 64, 61
1, 612719, Control_c, 0, 64, 63
1, 612734, Control_c, 0, 64, 64
1, 612749, Control_c, 0, 64, 65
1, 612757, Note_off_c, 0, 64, 56
1, 612760, Note_off_c, 0, 70, 52
1, 612764, Control_c, 0, 64, 65
1, 612770, Note_off_c, 0, 72, 56
1, 612793, Control_c, 0, 64, 66
1, 612891, Note_on_c, 0, 64, 44
1, 612895, Note_on_c, 0, 70, 44
1, 612901, Note_on_c, 0, 72, 45
1, 612961, Note_off_c, 0, 48, 53
1, 612979, Note_off_c, 0, 64, 58
1, 612985, Control_c, 0, 64, 65
1, 612987, Note_off_c, 0, 70, 61
1, 612989, Note_off_c, 0, 72, 57
1, 613029, Control_c, 0, 64, 65
1, 613059, Control_c, 0, 64, 64
1, 613074, Control_c, 0, 64, 64
1, 613089, Control_c, 0, 64, 63
1, 613104, Control_c, 0, 64, 62
1, 613107, Note_on_c, 0, 48, 52
1, 613111, Note_on_c, 0, 72, 32
1, 613119, Control_c, 0, 64, 60
1, 613128, Note_on_c, 0, 70, 44
1, 613134, Control_c, 0, 64, 59
1, 613145, Note_on_c, 0, 64, 7
1, 613148, Control_c, 0, 64, 58
1, 613163, Control_c, 0, 64, 57
1, 613178, Control_c, 0, 64, 56
1, 613192, Note_off_c, 0, 64, 46
1, 613193, Control_c, 0, 64, 56
1, 613208, Control_c, 0, 64, 55
1, 613223, Control_c, 0, 64, 55
1, 613264, Note_off_c, 0, 48, 57
1, 613268, Note_off_c, 0, 72, 42
1, 613268, Control_c, 0, 64, 54
1, 613313, Note_on_c, 0, 74, 47
1, 613327, Control_c, 0, 64, 55
1, 613330, Note_on_c, 0, 65, 46
1, 613333, Note_on_c, 0, 48, 57
1, 613372, Control_c, 0, 64, 55
1, 613399, Note_off_c, 0, 65, 51
1, 613452, Note_off_c, 0, 70, 41
1, 613465, Note_off_c, 0, 48, 60
1, 613497, Note_off_c, 0, 74, 55
1, 613549, Note_on_c, 0, 48, 57
1, 613551, Note_on_c, 0, 76, 52
1, 613553, Note_on_c, 0, 67, 51
1, 613670, Note_off_c, 0, 76, 58
1, 613675, Note_off_c, 0, 67, 54
1, 613714, Note_off_c, 0, 48, 61
1, 613720, Control_c, 0, 64, 56
1, 613779, Control_c, 0, 64, 55
1, 613809, Control_c, 0, 64, 55
1, 613821, Note_on_c, 0, 67, 47
1, 613822, Note_on_c, 0, 76, 49
1, 613824, Control_c, 0, 64, 54
1, 613828, Note_on_c, 0, 48, 70
1, 613838, Control_c, 0, 64, 54
1, 613853, Control_c, 0, 64, 53
1, 613868, Control_c, 0, 64, 51
1, 613883, Control_c, 0, 64, 49
1, 613898, Control_c, 0, 64, 44
1, 613912, Control_c, 0, 64, 38
1, 613927, Control_c, 0, 64, 32
1, 613942, Control_c, 0, 64, 26
1, 613957, Control_c, 0, 64, 22
1, 613970, Control_c, 0, 64, 14
1, 613985, Control_c, 0, 64, 0
1, 614007, Note_off_c, 0, 76, 54
1, 614079, Note_on_c, 0, 69, 40
1, 614083, Note_off_c, 0, 67, 37
1, 614084, Note_on_c, 0, 77, 47
1, 614149, Note_off_c, 0, 69, 64
1, 614201, Note_off_c, 0, 77, 57
1, 614230, Control_c, 0, 64, 15
1, 614245, Control_c, 0, 64, 22
1, 614260, Control_c, 0, 64, 26
1, 614275, Control_c, 0, 64, 28
1, 614287, Note_on_c, 0, 77, 38
1, 614290, Control_c, 0, 64, 30
1, 614298, Note_on_c, 0, 69, 47
1, 614305, Control_c, 0, 64, 32
1, 614320, Control_c, 0, 64, 33
1, 614334, Control_c, 0, 64, 34
1, 614378, Note_off_c, 0, 69, 59
1, 614391, Note_off_c, 0, 77, 56
1, 614497, Control_c, 0, 64, 35
1, 614498, Note_on_c, 0, 77, 45
1, 614510, Note_on_c, 0, 69, 50
1, 614512, Control_c, 0, 64, 36
1, 614527, Control_c, 0, 64, 39
1, 614541, Control_c, 0, 64, 42
1, 614556, Control_c, 0, 64, 44
1, 614571, Control_c, 0, 64, 46
1, 614576, Note_off_c, 0, 69, 57
1, 614579, Note_off_c, 0, 77, 60
1, 614585, Control_c, 0, 64, 46
1, 614600, Control_c, 0, 64, 47
1, 614615, Control_c, 0, 64, 47
1, 614630, Control_c, 0, 64, 48
1, 614645, Control_c, 0, 64, 49
1, 614660, Control_c, 0, 64, 50
1, 614675, Control_c, 0, 64, 50
1, 614690, Control_c, 0, 64, 51
1, 614698, Note_on_c, 0, 77, 48
1, 614703, Note_on_c, 0, 69, 52
1, 614704, Control_c, 0, 64, 53
1, 614719, Control_c, 0, 64, 55
1, 614734, Control_c, 0, 64, 58
1, 614749, Control_c, 0, 64, 60
1, 614764, Control_c, 0, 64, 62
1, 614779, Note_off_c, 0, 69, 56
1, 614779, Control_c, 0, 64, 63
1, 614782, Note_off_c, 0, 77, 58
1, 614793, Control_c, 0, 64, 64
1, 614808, Control_c, 0, 64, 65
1, 614823, Control_c, 0, 64, 66
1, 614839, Control_c, 0, 64, 67
1, 614853, Control_c, 0, 64, 68
1, 614868, Control_c, 0, 64, 68
1, 614919, Note_on_c, 0, 69, 46
1, 614931, Note_on_c, 0, 77, 39
1, 614985, Note_off_c, 0, 77, 56
1, 614986, Note_off_c, 0, 48, 57
1, 615001, Note_off_c, 0, 69, 60
1, 615068, Control_c, 0, 64, 68
1, 615083, Control_c, 0, 64, 67
1, 615098, Control_c, 0, 64, 67
1, 615113, Control_c, 0, 64, 66
1, 615128, Control_c, 0, 64, 65
1, 615133, Note_on_c, 0, 69, 50
1, 615140, Note_on_c, 0, 77, 48
1, 615143, Control_c, 0, 64, 64
1, 615150, Note_on_c, 0, 48, 60
1, 615157, Control_c, 0, 64, 63
1, 615172, Control_c, 0, 64, 61
1, 615187, Control_c, 0, 64, 58
1, 615202, Control_c, 0, 64, 53
1, 615216, Control_c, 0, 64, 48
1, 615231, Control_c, 0, 64, 44
1, 615246, Control_c, 0, 64, 43
1, 615250, Note_off_c, 0, 69, 59
1, 615255, Note_off_c, 0, 77, 51
1, 615261, Control_c, 0, 64, 41
1, 615276, Control_c, 0, 64, 39
1, 615290, Control_c, 0, 64, 34
1, 615305, Control_c, 0, 64, 27
1, 615320, Control_c, 0, 64, 10
1, 615334, Control_c, 0, 64, 0
1, 615360, Note_on_c, 0, 47, 62
1, 615368, Note_on_c, 0, 79, 52
1, 615374, Note_on_c, 0, 71, 52
1, 615412, Note_off_c, 0, 48, 54
1, 615435, Poly_aftertouch_c, 0, 77, 127
1, 615451, Note_off_c, 0, 71, 60
1, 615471, Poly_aftertouch_c, 0, 77, 0
1, 615492, Note_off_c, 0, 79, 51
1, 615576, Note_on_c, 0, 81, 54
1, 615591, Note_on_c, 0, 45, 59
1, 615598, Note_on_c, 0, 72, 42
1, 615611, Note_on_c, 0, 77, 29
1, 615646, Note_off_c, 0, 72, 44
1, 615667, Note_off_c, 0, 47, 55
1, 615693, Note_off_c, 0, 77, 38
1, 615693, Note_off_c, 0, 81, 54
1, 615815, Note_on_c, 0, 81, 56
1, 615832, Note_on_c, 0, 72, 28
1, 615838, Note_on_c, 0, 50, 73
1, 615843, Note_on_c, 0, 77, 25
1, 615888, Note_off_c, 0, 72, 45
1, 615921, Note_off_c, 0, 77, 38
1, 615924, Note_off_c, 0, 45, 58
1, 615976, Note_off_c, 0, 81, 40
1, 616065, Note_on_c, 0, 79, 42
1, 616070, Note_on_c, 0, 77, 40
1, 616078, Note_on_c, 0, 71, 42
1, 616141, Note_off_c, 0, 71, 58
1, 616150, Note_off_c, 0, 77, 52
1, 616156, Note_off_c, 0, 79, 53
1, 616256, Note_on_c, 0, 79, 44
1, 616267, Note_on_c, 0, 77, 45
1, 616272, Note_on_c, 0, 71, 41
1, 616353, Note_off_c, 0, 77, 55
1, 616357, Note_off_c, 0, 79, 48
1, 616367, Note_off_c, 0, 71, 48
1, 616486, Note_on_c, 0, 79, 36
1, 616499, Note_on_c, 0, 77, 46
1, 616507, Note_on_c, 0, 71, 45
1, 616511, Note_on_c, 0, 55, 61
1, 616570, Note_off_c, 0, 71, 53
1, 616594, Note_off_c, 0, 77, 55
1, 616600, Note_off_c, 0, 79, 48
1, 616670, Note_off_c, 0, 50, 30
1, 616727, Note_on_c, 0, 71, 39
1, 616733, Note_on_c, 0, 79, 36
1, 616734, Note_on_c, 0, 77, 47
1, 616805, Note_off_c, 0, 71, 59
1, 616813, Note_off_c, 0, 77, 56
1, 616820, Note_off_c, 0, 79, 53
1, 616925, Note_on_c, 0, 79, 39
1, 616943, Note_on_c, 0, 77, 46
1, 616948, Note_on_c, 0, 71, 44
1, 617007, Note_off_c, 0, 77, 51
1, 617024, Note_off_c, 0, 79, 55
1, 617037, Note_off_c, 0, 71, 54
1, 617145, Note_on_c, 0, 43, 65
1, 617160, Note_on_c, 0, 79, 46
1, 617174, Note_on_c, 0, 71, 45
1, 617176, Note_on_c, 0, 77, 37
1, 617240, Note_off_c, 0, 77, 50
1, 617249, Note_off_c, 0, 71, 61
1, 617287, Note_off_c, 0, 79, 48
1, 617337, Note_off_c, 0, 55, 54
1, 617382, Note_on_c, 0, 81, 50
1, 617389, Note_on_c, 0, 77, 43
1, 617405, Note_on_c, 0, 72, 50
1, 617448, Control_c, 0, 64, 23
1, 617463, Control_c, 0, 64, 34
1, 617469, Note_off_c, 0, 72, 59
1, 617478, Control_c, 0, 64, 37
1, 617492, Control_c, 0, 64, 40
1, 617507, Control_c, 0, 64, 45
1, 617521, Note_off_c, 0, 77, 45
1, 617522, Control_c, 0, 64, 50
1, 617537, Control_c, 0, 64, 54
1, 617552, Control_c, 0, 64, 55
1, 617566, Note_off_c, 0, 81, 37
1, 617596, Note_on_c, 0, 79, 50
1, 617623, Note_on_c, 0, 71, 34
1, 617631, Note_on_c, 0, 76, 33
1, 617685, Control_c, 0, 64, 55
1, 617689, Note_on_c, 0, 50, 44
1, 617715, Control_c, 0, 64, 54
1, 617715, Note_off_c, 0, 71, 38
1, 617744, Control_c, 0, 64, 54
1, 617746, Note_off_c, 0, 79, 47
1, 617748, Note_off_c, 0, 76, 53
1, 617759, Control_c, 0, 64, 53
1, 617774, Control_c, 0, 64, 52
1, 617789, Control_c, 0, 64, 51
1, 617803, Control_c, 0, 64, 50
1, 617818, Control_c, 0, 64, 47
1, 617833, Control_c, 0, 64, 43
1, 617848, Control_c, 0, 64, 36
1, 617863, Control_c, 0, 64, 18
1, 617870, Note_on_c, 0, 81, 50
1, 617877, Control_c, 0, 64, 0
1, 617881, Note_on_c, 0, 77, 37
1, 617890, Note_on_c, 0, 72, 31
1, 617894, Note_on_c, 0, 48, 52
1, 617936, Note_off_c, 0, 50, 36
1, 617960, Note_off_c, 0, 43, 58
1, 618011, Note_off_c, 0, 72, 55
1, 618063, Note_off_c, 0, 77, 52
1, 618130, Note_on_c, 0, 79, 52
1, 618147, Note_on_c, 0, 72, 37
1, 618154, Note_on_c, 0, 76, 36
1, 618167, Control_c, 0, 64, 36
1, 618182, Control_c, 0, 64, 46
1, 618197, Control_c, 0, 64, 48
1, 618212, Control_c, 0, 64, 51
1, 618226, Control_c, 0, 64, 56
1, 618227, Note_off_c, 0, 81, 33
1, 618232, Note_off_c, 0, 76, 56
1, 618239, Note_off_c, 0, 72, 39
1, 618241, Note_off_c, 0, 79, 55
1, 618241, Control_c, 0, 64, 61
1, 618256, Control_c, 0, 64, 64
1, 618271, Control_c, 0, 64, 65
1, 618286, Control_c, 0, 64, 66
1, 618301, Control_c, 0, 64, 67
1, 618315, Control_c, 0, 64, 69
1, 618330, Control_c, 0, 64, 71
1, 618344, Note_on_c, 0, 79, 38
1, 618345, Control_c, 0, 64, 72
1, 618353, Note_on_c, 0, 76, 34
1, 618359, Control_c, 0, 64, 73
1, 618366, Note_on_c, 0, 72, 32
1, 618374, Control_c, 0, 64, 73
1, 618389, Control_c, 0, 64, 74
1, 618401, Note_off_c, 0, 72, 50
1, 618403, Note_off_c, 0, 76, 50
1, 618411, Note_off_c, 0, 79, 54
1, 618542, Note_on_c, 0, 76, 37
1, 618549, Note_on_c, 0, 79, 46
1, 618563, Note_on_c, 0, 72, 31
1, 618609, Note_off_c, 0, 79, 56
1, 618626, Note_off_c, 0, 76, 62
1, 618636, Note_off_c, 0, 72, 60
1, 618641, Control_c, 0, 64, 73
1, 618752, Note_on_c, 0, 60, 49
1, 618858, Note_off_c, 0, 60, 61
1, 618960, Note_on_c, 0, 60, 45
1, 618979, Note_off_c, 0, 48, 61
1, 619031, Note_off_c, 0, 60, 52
1, 619138, Control_c, 0, 64, 73
1, 619153, Control_c, 0, 64, 72
1, 619168, Control_c, 0, 64, 71
1, 619171, Note_on_c, 0, 60, 48
1, 619182, Control_c, 0, 64, 70
1, 619182, Control_c, 0, 67, 120
1, 619197, Control_c, 0, 64, 69
1, 619197, Control_c, 0, 67, 110
1, 619200, Note_on_c, 0, 48, 48
1, 619212, Control_c, 0, 64, 68
1, 619212, Control_c, 0, 67, 99
1, 619227, Control_c, 0, 64, 66
1, 619227, Control_c, 0, 67, 86
1, 619242, Control_c, 0, 64, 64
1, 619242, Control_c, 0, 67, 73
1, 619249, Note_off_c, 0, 60, 41
1, 619256, Control_c, 0, 64, 62
1, 619256, Control_c, 0, 67, 58
1, 619271, Control_c, 0, 64, 59
1, 619271, Control_c, 0, 67, 47
1, 619286, Control_c, 0, 64, 55
1, 619286, Control_c, 0, 67, 36
1, 619301, Control_c, 0, 64, 48
1, 619301, Control_c, 0, 67, 27
1, 619316, Control_c, 0, 64, 41
1, 619316, Control_c, 0, 67, 18
1, 619331, Control_c, 0, 64, 29
1, 619331, Control_c, 0, 67, 11
1, 619346, Control_c, 0, 64, 0
1, 619346, Control_c, 0, 67, 0
1, 619391, Note_on_c, 0, 60, 47
1, 619413, Note_on_c, 0, 43, 56
1, 619469, Note_off_c, 0, 60, 49
1, 619602, Note_off_c, 0, 48, 27
1, 619627, Note_on_c, 0, 60, 42
1, 619650, Note_on_c, 0, 40, 61
1, 619787, Note_off_c, 0, 60, 59
1, 619799, Note_off_c, 0, 43, 34
1, 619927, Note_on_c, 0, 62, 45
1, 619941, Note_on_c, 0, 36, 56
1, 619960, Note_on_c, 0, 58, 31
1, 619963, Note_on_c, 0, 52, 33
1, 620022, Note_off_c, 0, 40, 50
1, 620026, Note_off_c, 0, 52, 44
1, 620029, Note_off_c, 0, 58, 41
1, 620203, Note_on_c, 0, 60, 40
1, 620207, Note_on_c, 0, 52, 32
1, 620207, Note_off_c, 0, 62, 29
1, 620210, Note_on_c, 0, 58, 32
1, 620274, Note_off_c, 0, 52, 57
1, 620283, Note_off_c, 0, 58, 50
1, 620302, Note_off_c, 0, 60, 52
1, 620401, Note_on_c, 0, 60, 32
1, 620421, Note_on_c, 0, 58, 46
1, 620424, Note_on_c, 0, 52, 37
1, 620483, Note_off_c, 0, 52, 43
1, 620484, Note_off_c, 0, 58, 52
1, 620510, Note_off_c, 0, 60, 50
1, 620577, Control_c, 0, 67, 8
1, 620592, Control_c, 0, 67, 13
1, 620604, Note_on_c, 0, 60, 31
1, 620607, Control_c, 0, 67, 20
1, 620622, Note_on_c, 0, 58, 27
1, 620622, Control_c, 0, 67, 27
1, 620627, Note_on_c, 0, 52, 27
1, 620636, Control_c, 0, 67, 36
1, 620651, Control_c, 0, 67, 43
1, 620666, Control_c, 0, 67, 48
1, 620680, Note_off_c, 0, 52, 48
1, 620681, Control_c, 0, 67, 50
1, 620683, Note_off_c, 0, 60, 52
1, 620696, Control_c, 0, 67, 51
1, 620701, Note_off_c, 0, 58, 49
1, 620740, Control_c, 0, 67, 50
1, 620754, Control_c, 0, 67, 49
1, 620769, Control_c, 0, 64, 40
1, 620769, Control_c, 0, 67, 47
1, 620784, Control_c, 0, 64, 60
1, 620799, Control_c, 0, 64, 65
1, 620799, Control_c, 0, 67, 46
1, 620804, Note_on_c, 0, 60, 42
1, 620809, Note_on_c, 0, 52, 34
1, 620814, Control_c, 0, 64, 67
1, 620814, Control_c, 0, 67, 46
1, 620819, Note_on_c, 0, 58, 17
1, 620828, Control_c, 0, 64, 68
1, 620843, Control_c, 0, 64, 69
1, 620843, Control_c, 0, 67, 45
1, 620858, Control_c, 0, 64, 70
1, 620858, Control_c, 0, 67, 44
1, 620863, Note_off_c, 0, 60, 57
1, 620869, Note_off_c, 0, 52, 61
1, 620872, Control_c, 0, 64, 72
1, 620872, Control_c, 0, 67, 43
1, 620883, Note_off_c, 0, 58, 49
1, 620887, Control_c, 0, 64, 73
1, 620887, Control_c, 0, 67, 42
1, 620910, Control_c, 0, 64, 73
1, 620910, Control_c, 0, 67, 42
1, 620925, Control_c, 0, 67, 41
1, 620940, Control_c, 0, 67, 41
1, 621008, Note_on_c, 0, 58, 33
1, 621009, Note_on_c, 0, 60, 29
1, 621020, Note_on_c, 0, 52, 41
1, 621025, Note_off_c, 0, 36, 53
1, 621072, Note_off_c, 0, 52, 55
1, 621086, Note_off_c, 0, 60, 37
1, 621121, Note_off_c, 0, 58, 37
1, 621132, Control_c, 0, 64, 73
1, 621161, Control_c, 0, 64, 72
1, 621176, Control_c, 0, 64, 71
1, 621191, Control_c, 0, 64, 69
1, 621206, Control_c, 0, 64, 67
1, 621215, Note_on_c, 0, 36, 50
1, 621216, Note_on_c, 0, 60, 48
1, 621218, Note_on_c, 0, 52, 46
1, 621221, Control_c, 0, 64, 65
1, 621233, Note_on_c, 0, 58, 35
1, 621237, Control_c, 0, 64, 63
1, 621251, Control_c, 0, 64, 59
1, 621266, Control_c, 0, 64, 53
1, 621281, Control_c, 0, 64, 46
1, 621296, Control_c, 0, 64, 39
1, 621305, Note_off_c, 0, 52, 62
1, 621311, Control_c, 0, 64, 37
1, 621363, Note_off_c, 0, 36, 56
1, 621374, Note_off_c, 0, 60, 51
1, 621385, Control_c, 0, 64, 37
1, 621400, Control_c, 0, 64, 36
1, 621429, Control_c, 0, 64, 36
1, 621434, Note_on_c, 0, 36, 52
1, 621434, Note_on_c, 0, 62, 48
1, 621441, Note_on_c, 0, 53, 41
1, 621444, Control_c, 0, 64, 34
1, 621459, Control_c, 0, 64, 32
1, 621474, Control_c, 0, 64, 29
1, 621489, Control_c, 0, 64, 26
1, 621504, Control_c, 0, 64, 23
1, 621516, Note_off_c, 0, 53, 57
1, 621518, Control_c, 0, 64, 20
1, 621533, Control_c, 0, 64, 19
1, 621566, Note_off_c, 0, 36, 44
1, 621592, Control_c, 0, 64, 21
1, 621607, Control_c, 0, 64, 23
1, 621622, Control_c, 0, 64, 27
1, 621637, Control_c, 0, 64, 31
1, 621642, Note_on_c, 0, 36, 50
1, 621652, Note_off_c, 0, 62, 33
1, 621656, Note_on_c, 0, 64, 46
1, 621659, Control_c, 0, 64, 35
1, 621661, Note_on_c, 0, 55, 44
1, 621674, Control_c, 0, 64, 39
1, 621689, Control_c, 0, 64, 42
1, 621703, Control_c, 0, 64, 45
1, 621718, Control_c, 0, 64, 48
1, 621725, Note_off_c, 0, 58, 16
1, 621733, Control_c, 0, 64, 49
1, 621748, Control_c, 0, 64, 50
1, 621763, Note_off_c, 0, 64, 58
1, 621763, Control_c, 0, 64, 51
1, 621792, Control_c, 0, 64, 51
1, 621795, Note_off_c, 0, 55, 52
1, 621804, Note_off_c, 0, 36, 58
1, 621822, Control_c, 0, 64, 51
1, 621837, Control_c, 0, 64, 50
1, 621851, Control_c, 0, 64, 49
1, 621866, Control_c, 0, 64, 48
1, 621881, Control_c, 0, 64, 46
1, 621891, Note_on_c, 0, 36, 58
1, 621896, Control_c, 0, 64, 44
1, 621899, Note_on_c, 0, 64, 48
1, 621905, Note_on_c, 0, 55, 29
1, 621910, Control_c, 0, 64, 42
1, 621925, Control_c, 0, 64, 39
1, 621940, Control_c, 0, 64, 34
1, 621955, Control_c, 0, 64, 28
1, 621969, Control_c, 0, 64, 18
1, 621969, Control_c, 0, 67, 41
1, 621984, Control_c, 0, 64, 0
1, 622014, Control_c, 0, 67, 42
1, 622074, Control_c, 0, 67, 42
1, 622089, Control_c, 0, 67, 43
1, 622104, Control_c, 0, 67, 43
1, 622119, Control_c, 0, 67, 44
1, 622124, Note_off_c, 0, 64, 32
1, 622133, Control_c, 0, 67, 44
1, 622145, Note_on_c, 0, 65, 42
1, 622148, Control_c, 0, 67, 45
1, 622153, Note_on_c, 0, 57, 35
1, 622163, Control_c, 0, 67, 45
1, 622178, Control_c, 0, 67, 46
1, 622182, Note_off_c, 0, 55, 39
1, 622193, Control_c, 0, 67, 46
1, 622207, Control_c, 0, 67, 47
1, 622225, Note_off_c, 0, 57, 58
1, 622252, Control_c, 0, 67, 47
1, 622260, Note_off_c, 0, 65, 56
1, 622282, Control_c, 0, 67, 48
1, 622326, Control_c, 0, 67, 49
1, 622341, Control_c, 0, 67, 49
1, 622350, Note_on_c, 0, 57, 43
1, 622353, Note_on_c, 0, 65, 49
1, 622356, Control_c, 0, 67, 50
1, 622371, Control_c, 0, 67, 50
1, 622386, Control_c, 0, 67, 51
1, 622422, Control_c, 0, 67, 51
1, 622437, Control_c, 0, 67, 52
1, 622468, Note_off_c, 0, 57, 49
1, 622532, Note_off_c, 0, 65, 0
1, 622541, Control_c, 0, 67, 52
1, 622545, Note_on_c, 0, 65, 43
1, 622556, Control_c, 0, 67, 53
1, 622568, Note_on_c, 0, 57, 38
1, 622586, Control_c, 0, 67, 55
1, 622600, Control_c, 0, 67, 59
1, 622615, Control_c, 0, 67, 61
1, 622630, Control_c, 0, 67, 62
1, 622645, Control_c, 0, 67, 63
1, 622660, Control_c, 0, 67, 63
1, 622661, Note_off_c, 0, 57, 54
1, 622662, Note_off_c, 0, 65, 58
1, 622718, Control_c, 0, 67, 63
1, 622745, Note_on_c, 0, 65, 51
1, 622748, Control_c, 0, 67, 62
1, 622753, Note_on_c, 0, 57, 46
1, 622778, Control_c, 0, 67, 61
1, 622792, Control_c, 0, 64, 10
1, 622792, Control_c, 0, 67, 61
1, 622807, Control_c, 0, 64, 29
1, 622807, Control_c, 0, 67, 60
1, 622823, Control_c, 0, 64, 40
1, 622823, Control_c, 0, 67, 60
1, 622838, Control_c, 0, 64, 46
1, 622838, Control_c, 0, 67, 59
1, 622845, Note_off_c, 0, 57, 56
1, 622853, Control_c, 0, 64, 51
1, 622853, Control_c, 0, 67, 59
1, 622856, Note_off_c, 0, 65, 57
1, 622868, Control_c, 0, 64, 53
1, 622883, Control_c, 0, 64, 55
1, 622897, Control_c, 0, 64, 57
1, 622897, Control_c, 0, 67, 58
1, 622912, Control_c, 0, 64, 59
1, 622912, Control_c, 0, 67, 58
1, 622927, Control_c, 0, 64, 60
1, 622941, Control_c, 0, 64, 61
1, 622945, Note_on_c, 0, 57, 47
1, 622945, Note_on_c, 0, 65, 47
1, 622957, Control_c, 0, 64, 62
1, 622972, Control_c, 0, 64, 62
1, 623002, Control_c, 0, 64, 63
1, 623035, Note_off_c, 0, 65, 60
1, 623045, Note_off_c, 0, 36, 34
1, 623051, Note_off_c, 0, 57, 56
1, 623105, Control_c, 0, 64, 62
1, 623120, Control_c, 0, 64, 61
1, 623135, Control_c, 0, 64, 60
1, 623157, Control_c, 0, 64, 58
1, 623165, Note_on_c, 0, 65, 56
1, 623171, Note_on_c, 0, 36, 56
1, 623172, Control_c, 0, 64, 56
1, 623173, Note_on_c, 0, 57, 47
1, 623187, Control_c, 0, 64, 53
1, 623202, Control_c, 0, 64, 49
1, 623217, Control_c, 0, 64, 45
1, 623231, Control_c, 0, 64, 42
1, 623246, Control_c, 0, 64, 38
1, 623256, Note_off_c, 0, 57, 57
1, 623261, Control_c, 0, 64, 32
1, 623271, Note_off_c, 0, 65, 56
1, 623275, Control_c, 0, 64, 22
1, 623290, Control_c, 0, 64, 0
1, 623305, Control_c, 0, 67, 57
1, 623374, Note_on_c, 0, 67, 56
1, 623379, Control_c, 0, 67, 57
1, 623384, Note_on_c, 0, 35, 57
1, 623390, Note_on_c, 0, 59, 48
1, 623468, Note_off_c, 0, 36, 42
1, 623471, Note_off_c, 0, 59, 61
1, 623537, Note_off_c, 0, 67, 50
1, 623599, Note_on_c, 0, 69, 55
1, 623605, Note_on_c, 0, 33, 65
1, 623617, Note_on_c, 0, 60, 41
1, 623652, Note_off_c, 0, 35, 54
1, 623655, Note_on_c, 0, 65, 18
1, 623674, Note_off_c, 0, 60, 51
1, 623717, Note_off_c, 0, 65, 43
1, 623725, Note_off_c, 0, 69, 58
1, 623849, Note_on_c, 0, 69, 51
1, 623866, Note_on_c, 0, 60, 34
1, 623867, Note_on_c, 0, 38, 66
1, 623902, Note_on_c, 0, 65, 5
1, 623959, Note_off_c, 0, 60, 49
1, 623962, Note_off_c, 0, 33, 55
1, 623971, Note_off_c, 0, 65, 44
1, 624005, Note_off_c, 0, 69, 38
1, 624091, Note_on_c, 0, 67, 52
1, 624097, Note_on_c, 0, 65, 39
1, 624098, Note_on_c, 0, 59, 44
1, 624176, Note_off_c, 0, 59, 59
1, 624184, Note_off_c, 0, 67, 54
1, 624190, Note_off_c, 0, 65, 48
1, 624278, Note_on_c, 0, 67, 40
1, 624281, Note_on_c, 0, 65, 39
1, 624286, Note_on_c, 0, 59, 42
1, 624377, Note_off_c, 0, 59, 58
1, 624382, Note_off_c, 0, 65, 51
1, 624397, Note_off_c, 0, 67, 47
1, 624477, Note_on_c, 0, 67, 35
1, 624489, Note_on_c, 0, 43, 66
1, 624495, Note_on_c, 0, 59, 34
1, 624497, Note_on_c, 0, 65, 36
1, 624513, Control_c, 0, 67, 57
1, 624598, Note_off_c, 0, 59, 52
1, 624601, Note_off_c, 0, 65, 48
1, 624629, Note_off_c, 0, 67, 35
1, 624672, Note_off_c, 0, 38, 35
1, 624703, Note_on_c, 0, 67, 31
1, 624712, Note_on_c, 0, 59, 35
1, 624715, Note_on_c, 0, 65, 42
1, 624811, Note_off_c, 0, 65, 57
1, 624813, Note_off_c, 0, 59, 56
1, 624897, Note_off_c, 0, 67, 0
1, 624897, Note_on_c, 0, 67, 17
1, 624927, Note_on_c, 0, 65, 45
1, 624931, Note_on_c, 0, 59, 47
1, 625009, Note_off_c, 0, 65, 56
1, 625009, Control_c, 0, 67, 58
1, 625014, Note_off_c, 0, 59, 57
1, 625146, Note_on_c, 0, 31, 63
1, 625153, Note_on_c, 0, 59, 42
1, 625168, Note_on_c, 0, 65, 33
1, 625242, Note_off_c, 0, 59, 59
1, 625280, Note_off_c, 0, 65, 40
1, 625311, Note_off_c, 0, 43, 35
1, 625372, Note_on_c, 0, 69, 50
1, 625404, Note_on_c, 0, 60, 32
1, 625422, Note_off_c, 0, 67, 24
1, 625427, Note_on_c, 0, 65, 19
1, 625476, Note_off_c, 0, 60, 60
1, 625477, Note_off_c, 0, 65, 47
1, 625477, Control_c, 0, 67, 57
1, 625559, Note_off_c, 0, 69, 36
1, 625609, Note_on_c, 0, 67, 44
1, 625618, Note_on_c, 0, 65, 24
1, 625620, Note_on_c, 0, 59, 39
1, 625640, Control_c, 0, 67, 58
1, 625713, Note_on_c, 0, 38, 49
1, 625716, Note_off_c, 0, 59, 57
1, 625746, Note_off_c, 0, 65, 42
1, 625788, Control_c, 0, 67, 58
1, 625832, Control_c, 0, 67, 59
1, 625853, Note_off_c, 0, 67, 28
1, 625907, Control_c, 0, 67, 59
1, 625916, Note_on_c, 0, 69, 49
1, 625933, Note_on_c, 0, 65, 37
1, 625936, Control_c, 0, 67, 60
1, 625941, Note_on_c, 0, 60, 37
1, 625951, Note_on_c, 0, 36, 50
1, 625966, Control_c, 0, 67, 60
1, 625981, Control_c, 0, 67, 61
1, 625999, Note_off_c, 0, 38, 41
1, 626011, Control_c, 0, 67, 61
1, 626026, Control_c, 0, 67, 62
1, 626047, Note_off_c, 0, 31, 51
1, 626056, Control_c, 0, 67, 62
1, 626063, Note_off_c, 0, 60, 56
1, 626086, Control_c, 0, 67, 63
1, 626104, Note_off_c, 0, 65, 43
1, 626130, Control_c, 0, 67, 63
1, 626152, Control_c, 0, 67, 64
1, 626166, Note_off_c, 0, 69, 38
1, 626196, Control_c, 0, 67, 65
1, 626205, Note_on_c, 0, 67, 45
1, 626217, Note_on_c, 0, 64, 42
1, 626221, Note_on_c, 0, 60, 36
1, 626241, Control_c, 0, 67, 66
1, 626255, Control_c, 0, 67, 67
1, 626270, Control_c, 0, 67, 73
1, 626285, Control_c, 0, 67, 77
1, 626297, Note_off_c, 0, 60, 55
1, 626300, Control_c, 0, 67, 80
1, 626315, Control_c, 0, 67, 83
1, 626318, Note_off_c, 0, 64, 55
1, 626330, Control_c, 0, 67, 86
1, 626345, Control_c, 0, 67, 90
1, 626360, Control_c, 0, 67, 93
1, 626364, Note_off_c, 0, 67, 0
1, 626374, Control_c, 0, 67, 95
1, 626384, Note_on_c, 0, 67, 31
1, 626389, Control_c, 0, 67, 98
1, 626402, Note_on_c, 0, 64, 35
1, 626404, Control_c, 0, 67, 100
1, 626410, Note_on_c, 0, 60, 38
1, 626419, Control_c, 0, 67, 103
1, 626434, Control_c, 0, 67, 106
1, 626448, Control_c, 0, 67, 110
1, 626463, Control_c, 0, 67, 114
1, 626478, Control_c, 0, 67, 120
1, 626491, Note_off_c, 0, 60, 56
1, 626492, Control_c, 0, 67, 125
1, 626504, Note_off_c, 0, 67, 49
1, 626507, Control_c, 0, 67, 127
1, 626544, Note_off_c, 0, 64, 34
1, 626599, Note_on_c, 0, 60, 49
1, 626599, Note_on_c, 0, 67, 38
1, 626608, Note_on_c, 0, 64, 17
1, 626655, Control_c, 0, 64, 36
1, 626656, Note_off_c, 0, 60, 50
1, 626670, Control_c, 0, 64, 55
1, 626685, Control_c, 0, 64, 61
1, 626688, Note_off_c, 0, 64, 41
1, 626691, Note_off_c, 0, 67, 50
1, 626699, Control_c, 0, 64, 64
1, 626714, Control_c, 0, 64, 65
1, 626729, Control_c, 0, 64, 66
1, 626744, Control_c, 0, 64, 67
1, 626759, Control_c, 0, 64, 68
1, 626773, Control_c, 0, 64, 70
1, 626788, Control_c, 0, 64, 71
1, 626794, Note_on_c, 0, 67, 26
1, 626803, Control_c, 0, 64, 73
1, 626807, Note_on_c, 0, 60, 33
1, 626819, Control_c, 0, 64, 74
1, 626834, Poly_aftertouch_c, 0, 64, 127
1, 626834, Control_c, 0, 64, 76
1, 626849, Control_c, 0, 64, 78
1, 626852, Note_off_c, 0, 60, 45
1, 626863, Control_c, 0, 64, 81
1, 626875, Poly_aftertouch_c, 0, 64, 0
1, 626878, Control_c, 0, 64, 83
1, 626900, Control_c, 0, 64, 85
1, 626902, Note_off_c, 0, 67, 35
1, 626915, Control_c, 0, 64, 87
1, 626929, Control_c, 0, 64, 90
1, 626944, Control_c, 0, 64, 91
1, 626959, Control_c, 0, 64, 92
1, 626989, Control_c, 0, 64, 92
1, 627012, Note_on_c, 0, 64, 40
1, 627016, Note_on_c, 0, 60, 34
1, 627026, Note_on_c, 0, 67, 37
1, 627071, Note_off_c, 0, 67, 57
1, 627075, Note_off_c, 0, 64, 45
1, 627082, Note_off_c, 0, 60, 41
1, 627122, Note_off_c, 0, 36, 40
1, 627284, Note_on_c, 0, 60, 57
1, 627292, Note_on_c, 0, 64, 46
1, 627306, Note_on_c, 0, 36, 40
1, 627310, Note_on_c, 0, 67, 47
1, 627430, Note_off_c, 0, 67, 52
1, 627439, Note_off_c, 0, 60, 59
1, 627454, Note_off_c, 0, 64, 37
1, 627565, Note_on_c, 0, 59, 62
1, 627567, Note_on_c, 0, 67, 50
1, 627573, Note_on_c, 0, 64, 46
1, 627612, Control_c, 0, 64, 92
1, 627664, Control_c, 0, 64, 91
1, 627692, Note_off_c, 0, 67, 53
1, 627693, Note_off_c, 0, 59, 57
1, 627707, Note_off_c, 0, 64, 52
1, 627708, Control_c, 0, 64, 91
1, 627723, Control_c, 0, 64, 90
1, 627752, Control_c, 0, 64, 90
1, 627767, Control_c, 0, 64, 89
1, 627797, Note_on_c, 0, 57, 59
1, 627797, Control_c, 0, 64, 89
1, 627812, Control_c, 0, 64, 88
1, 627814, Note_on_c, 0, 67, 53
1, 627816, Note_on_c, 0, 64, 33
1, 627826, Control_c, 0, 64, 88
1, 627841, Control_c, 0, 64, 87
1, 627886, Control_c, 0, 64, 87
1, 627889, Note_off_c, 0, 67, 52
1, 627910, Note_off_c, 0, 57, 58
1, 627913, Note_off_c, 0, 64, 37
1, 627916, Control_c, 0, 64, 86
1, 627960, Control_c, 0, 64, 86
1, 628005, Control_c, 0, 64, 85
1, 628019, Control_c, 0, 64, 83
1, 628034, Control_c, 0, 64, 78
1, 628042, Note_on_c, 0, 55, 63
1, 628049, Control_c, 0, 64, 72
1, 628054, Note_on_c, 0, 67, 46
1, 628063, Control_c, 0, 64, 65
1, 628078, Control_c, 0, 64, 57
1, 628093, Control_c, 0, 64, 32
1, 628108, Control_c, 0, 64, 0
1, 628123, Control_c, 0, 64, 14
1, 628130, Poly_aftertouch_c, 0, 64, 127
1, 628137, Control_c, 0, 64, 41
1, 628152, Control_c, 0, 64, 53
1, 628167, Control_c, 0, 64, 60
1, 628182, Control_c, 0, 64, 63
1, 628197, Control_c, 0, 64, 64
1, 628203, Note_off_c, 0, 55, 59
1, 628226, Control_c, 0, 64, 65
1, 628241, Control_c, 0, 64, 65
1, 628243, Poly_aftertouch_c, 0, 64, 0
1, 628256, Control_c, 0, 64, 66
1, 628261, Note_on_c, 0, 55, 42
1, 628262, Note_on_c, 0, 64, 26
1, 628271, Control_c, 0, 64, 67
1, 628285, Control_c, 0, 64, 69
1, 628288, Note_off_c, 0, 67, 23
1, 628289, Note_on_c, 0, 60, 36
1, 628300, Control_c, 0, 64, 71
1, 628315, Control_c, 0, 64, 72
1, 628330, Control_c, 0, 64, 72
1, 628339, Note_off_c, 0, 55, 59
1, 628343, Note_off_c, 0, 60, 41
1, 628371, Note_off_c, 0, 64, 36
1, 628457, Control_c, 0, 64, 73
1, 628466, Note_on_c, 0, 60, 27
1, 628468, Note_on_c, 0, 64, 32
1, 628476, Note_on_c, 0, 55, 45
1, 628486, Control_c, 0, 64, 73
1, 628501, Control_c, 0, 64, 74
1, 628531, Control_c, 0, 64, 74
1, 628533, Note_off_c, 0, 36, 42
1, 628559, Note_off_c, 0, 55, 45
1, 628571, Note_off_c, 0, 60, 37
1, 628578, Note_off_c, 0, 64, 36
1, 628669, Note_on_c, 0, 64, 36
1, 628676, Note_on_c, 0, 55, 44
1, 628677, Note_on_c, 0, 36, 39
1, 628691, Note_on_c, 0, 60, 13
1, 628723, Note_off_c, 0, 55, 46
1, 628723, Note_off_c, 0, 64, 53
1, 628739, Note_off_c, 0, 60, 47
1, 628864, Note_on_c, 0, 60, 36
1, 628869, Note_on_c, 0, 64, 41
1, 628876, Note_on_c, 0, 55, 38
1, 628916, Control_c, 0, 64, 74
1, 628923, Note_off_c, 0, 60, 54
1, 628932, Note_off_c, 0, 55, 45
1, 628938, Note_off_c, 0, 64, 54
1, 628960, Control_c, 0, 64, 73
1, 628990, Control_c, 0, 64, 73
1, 629020, Control_c, 0, 64, 72
1, 629049, Control_c, 0, 64, 72
1, 629075, Note_on_c, 0, 55, 32
1, 629077, Note_on_c, 0, 60, 29
1, 629079, Control_c, 0, 64, 71
1, 629086, Note_on_c, 0, 64, 30
1, 629108, Control_c, 0, 64, 71
1, 629115, Note_off_c, 0, 60, 51
1, 629117, Note_off_c, 0, 55, 49
1, 629121, Note_off_c, 0, 64, 53
1, 629146, Control_c, 0, 64, 70
1, 629175, Control_c, 0, 64, 70
1, 629190, Control_c, 0, 64, 69
1, 629205, Control_c, 0, 64, 69
1, 629221, Control_c, 0, 64, 68
1, 629236, Control_c, 0, 64, 68
1, 629251, Control_c, 0, 64, 66
1, 629265, Control_c, 0, 64, 64
1, 629280, Control_c, 0, 64, 58
1, 629295, Control_c, 0, 64, 47
1, 629299, Note_on_c, 0, 57, 54
1, 629309, Control_c, 0, 64, 31
1, 629321, Note_on_c, 0, 60, 41
1, 629324, Control_c, 0, 64, 20
1, 629326, Note_on_c, 0, 64, 47
1, 629339, Control_c, 0, 64, 21
1, 629354, Control_c, 0, 64, 26
1, 629369, Control_c, 0, 64, 32
1, 629383, Control_c, 0, 64, 41
1, 629398, Control_c, 0, 64, 50
1, 629413, Control_c, 0, 64, 57
1, 629428, Control_c, 0, 64, 62
1, 629439, Note_off_c, 0, 60, 60
1, 629443, Control_c, 0, 64, 64
1, 629448, Note_off_c, 0, 64, 57
1, 629458, Control_c, 0, 64, 64
1, 629459, Note_off_c, 0, 57, 56
1, 629472, Control_c, 0, 64, 65
1, 629517, Control_c, 0, 64, 63
1, 629531, Control_c, 0, 64, 61
1, 629537, Note_on_c, 0, 55, 62
1, 629546, Note_on_c, 0, 64, 38
1, 629546, Control_c, 0, 64, 59
1, 629548, Note_on_c, 0, 60, 47
1, 629561, Control_c, 0, 64, 58
1, 629576, Control_c, 0, 64, 60
1, 629591, Control_c, 0, 64, 61
1, 629606, Control_c, 0, 64, 63
1, 629621, Control_c, 0, 64, 65
1, 629630, Note_off_c, 0, 55, 63
1, 629635, Note_off_c, 0, 64, 57
1, 629635, Control_c, 0, 64, 65
1, 629650, Control_c, 0, 64, 66
1, 629660, Note_off_c, 0, 60, 50
1, 629665, Control_c, 0, 64, 66
1, 629695, Control_c, 0, 64, 67
1, 629755, Note_on_c, 0, 53, 57
1, 629755, Control_c, 0, 64, 67
1, 629760, Note_on_c, 0, 60, 35
1, 629770, Note_on_c, 0, 64, 56
1, 629770, Control_c, 0, 64, 68
1, 629784, Control_c, 0, 64, 69
1, 629799, Control_c, 0, 64, 70
1, 629814, Control_c, 0, 64, 71
1, 629829, Control_c, 0, 64, 71
1, 629843, Control_c, 0, 64, 72
1, 629858, Control_c, 0, 64, 73
1, 629873, Control_c, 0, 64, 73
1, 629895, Note_off_c, 0, 64, 58
1, 629895, Control_c, 0, 64, 74
1, 629899, Note_off_c, 0, 53, 65
1, 629901, Note_off_c, 0, 60, 52
1, 629904, Note_off_c, 0, 36, 47
1, 630038, Note_on_c, 0, 64, 52
1, 630050, Note_on_c, 0, 52, 61
1, 630059, Note_on_c, 0, 36, 43
1, 630059, Control_c, 0, 64, 73
1, 630074, Control_c, 0, 64, 71
1, 630089, Control_c, 0, 64, 67
1, 630104, Control_c, 0, 64, 63
1, 630119, Control_c, 0, 64, 53
1, 630133, Control_c, 0, 64, 27
1, 630148, Control_c, 0, 64, 0
1, 630222, Control_c, 0, 64, 30
1, 630237, Control_c, 0, 64, 53
1, 630252, Control_c, 0, 64, 61
1, 630266, Control_c, 0, 64, 64
1, 630281, Control_c, 0, 64, 66
1, 630283, Note_off_c, 0, 52, 56
1, 630296, Control_c, 0, 64, 67
1, 630311, Control_c, 0, 64, 68
1, 630326, Control_c, 0, 64, 69
1, 630340, Control_c, 0, 64, 71
1, 630355, Control_c, 0, 64, 73
1, 630366, Note_on_c, 0, 52, 46
1, 630370, Note_on_c, 0, 60, 11
1, 630370, Control_c, 0, 64, 75
1, 630377, Note_on_c, 0, 55, 33
1, 630385, Control_c, 0, 64, 76
1, 630400, Control_c, 0, 64, 78
1, 630414, Control_c, 0, 64, 79
1, 630429, Control_c, 0, 64, 81
1, 630444, Control_c, 0, 64, 82
1, 630453, Note_off_c, 0, 52, 57
1, 630459, Control_c, 0, 64, 83
1, 630473, Control_c, 0, 64, 83
1, 630488, Control_c, 0, 64, 84
1, 630491, Note_off_c, 0, 64, 26
1, 630503, Control_c, 0, 64, 85
1, 630512, Note_off_c, 0, 55, 37
1, 630517, Note_off_c, 0, 60, 38
1, 630518, Control_c, 0, 64, 85
1, 630533, Control_c, 0, 64, 86
1, 630599, Note_on_c, 0, 60, 34
1, 630607, Note_on_c, 0, 52, 39
1, 630611, Note_on_c, 0, 55, 26
1, 630682, Note_off_c, 0, 60, 47
1, 630689, Note_off_c, 0, 52, 42
1, 630708, Note_off_c, 0, 36, 39
1, 630723, Note_off_c, 0, 55, 34
1, 630806, Note_on_c, 0, 60, 30
1, 630819, Note_on_c, 0, 55, 25
1, 630828, Note_on_c, 0, 52, 46
1, 630872, Note_off_c, 0, 52, 49
1, 630882, Note_off_c, 0, 55, 40
1, 630898, Note_off_c, 0, 60, 36
1, 631008, Note_on_c, 0, 60, 23
1, 631013, Note_on_c, 0, 52, 33
1, 631031, Note_on_c, 0, 55, 26
1, 631053, Note_off_c, 0, 52, 50
1, 631082, Note_off_c, 0, 55, 46
1, 631100, Note_off_c, 0, 60, 36
1, 631178, Control_c, 0, 64, 85
1, 631214, Note_on_c, 0, 60, 33
1, 631222, Control_c, 0, 64, 85
1, 631233, Note_on_c, 0, 55, 21
1, 631245, Note_on_c, 0, 52, 16
1, 631281, Control_c, 0, 64, 84
1, 631290, Note_off_c, 0, 60, 36
1, 631291, Note_off_c, 0, 52, 55
1, 631296, Note_off_c, 0, 55, 39
1, 631326, Control_c, 0, 64, 84
1, 631392, Control_c, 0, 64, 83
1, 631417, Note_on_c, 0, 60, 36
1, 631426, Note_on_c, 0, 52, 39
1, 631429, Note_on_c, 0, 36, 29
1, 631436, Control_c, 0, 64, 83
1, 631441, Note_on_c, 0, 55, 30
1, 631481, Note_off_c, 0, 52, 45
1, 631484, Note_off_c, 0, 60, 47
1, 631492, Note_off_c, 0, 55, 45
1, 631570, Control_c, 0, 64, 82
1, 631633, Note_on_c, 0, 60, 30
1, 631637, Note_on_c, 0, 52, 34
1, 631640, Note_off_c, 0, 36, 42
1, 631642, Note_on_c, 0, 55, 30
1, 631693, Note_off_c, 0, 55, 45
1, 631697, Note_off_c, 0, 52, 45
1, 631698, Note_off_c, 0, 60, 41
1, 631734, Control_c, 0, 64, 82
1, 631837, Note_on_c, 0, 52, 29
1, 631846, Note_on_c, 0, 60, 31
1, 631893, Poly_aftertouch_c, 0, 55, 127
1, 631898, Note_off_c, 0, 52, 40
1, 631938, Poly_aftertouch_c, 0, 55, 0
1, 631941, Note_off_c, 0, 60, 32
1, 632041, Note_on_c, 0, 60, 33
1, 632056, Note_on_c, 0, 52, 35
1, 632066, Note_on_c, 0, 36, 30
1, 632113, Note_off_c, 0, 52, 43
1, 632198, Note_off_c, 0, 36, 44
1, 632262, Note_on_c, 0, 55, 37
1, 632310, Note_off_c, 0, 55, 45
1, 632348, Control_c, 0, 64, 81
1, 632399, Note_off_c, 0, 60, 9
1, 632486, Note_on_c, 0, 55, 38
1, 632524, Note_off_c, 0, 55, 64
1, 632659, Note_on_c, 0, 55, 47
1, 632754, Note_off_c, 0, 55, 56
1, 632808, Control_c, 0, 64, 81
1, 632905, Note_on_c, 0, 55, 23
1, 632942, Note_off_c, 0, 55, 53
1, 632949, Control_c, 0, 64, 80
1, 632994, Control_c, 0, 64, 80
1, 633023, Control_c, 0, 64, 79
1, 633052, Control_c, 0, 64, 79
1, 633095, Note_on_c, 0, 55, 21
1, 633112, Control_c, 0, 64, 78
1, 633126, Control_c, 0, 64, 78
1, 633135, Note_off_c, 0, 55, 49
1, 633186, Control_c, 0, 64, 77
1, 633201, Control_c, 0, 64, 77
1, 633231, Control_c, 0, 64, 76
1, 633246, Control_c, 0, 64, 75
1, 633261, Control_c, 0, 64, 73
1, 633276, Control_c, 0, 64, 69
1, 633290, Control_c, 0, 64, 64
1, 633305, Control_c, 0, 64, 58
1, 633311, Note_on_c, 0, 74, 50
1, 633319, Note_on_c, 0, 55, 31
1, 633320, Control_c, 0, 64, 40
1, 633335, Control_c, 0, 64, 0
1, 633344, Note_on_c, 0, 67, 27
1, 633347, Note_on_c, 0, 62, 24
1, 633395, Control_c, 0, 64, 36
1, 633410, Control_c, 0, 64, 51
1, 633425, Control_c, 0, 64, 59
1, 633439, Control_c, 0, 64, 63
1, 633454, Control_c, 0, 64, 64
1, 633469, Control_c, 0, 64, 65
1, 633484, Control_c, 0, 64, 66
1, 633493, Note_off_c, 0, 62, 43
1, 633499, Control_c, 0, 64, 67
1, 633511, Note_off_c, 0, 67, 0
1, 633514, Control_c, 0, 64, 69
1, 633517, Note_off_c, 0, 74, 54
1, 633518, Note_on_c, 0, 76, 53
1, 633526, Note_on_c, 0, 64, 37
1, 633529, Control_c, 0, 64, 72
1, 633534, Note_on_c, 0, 60, 37
1, 633541, Note_off_c, 0, 55, 39
1, 633544, Control_c, 0, 64, 74
1, 633548, Poly_aftertouch_c, 0, 67, 127
1, 633558, Control_c, 0, 64, 75
1, 633573, Control_c, 0, 64, 76
1, 633588, Control_c, 0, 64, 77
1, 633600, Poly_aftertouch_c, 0, 67, 0
1, 633602, Control_c, 0, 64, 77
1, 633711, Note_on_c, 0, 74, 51
1, 633732, Note_on_c, 0, 62, 28
1, 633733, Note_on_c, 0, 55, 28
1, 633735, Note_off_c, 0, 60, 26
1, 633747, Note_on_c, 0, 67, 21
1, 633752, Note_off_c, 0, 64, 44
1, 633773, Note_off_c, 0, 62, 48
1, 633781, Note_off_c, 0, 55, 48
1, 633794, Note_off_c, 0, 67, 48
1, 633828, Note_off_c, 0, 76, 0
1, 633862, Control_c, 0, 64, 77
1, 633866, Poly_aftertouch_c, 0, 76, 127
1, 633876, Control_c, 0, 64, 76
1, 633891, Control_c, 0, 64, 74
1, 633906, Control_c, 0, 64, 72
1, 633913, Note_off_c, 0, 74, 61
1, 633921, Control_c, 0, 64, 68
1, 633936, Control_c, 0, 64, 64
1, 633941, Note_on_c, 0, 72, 53
1, 633944, Note_on_c, 0, 52, 43
1, 633950, Control_c, 0, 64, 58
1, 633952, Note_on_c, 0, 67, 28
1, 633965, Control_c, 0, 64, 41
1, 633969, Note_on_c, 0, 60, 34
1, 633980, Control_c, 0, 64, 0
1, 634019, Poly_aftertouch_c, 0, 76, 0
1, 634100, Control_c, 0, 64, 39
1, 634114, Control_c, 0, 64, 56
1, 634129, Control_c, 0, 64, 61
1, 634144, Control_c, 0, 64, 62
1, 634145, Note_on_c, 0, 55, 39
1, 634159, Control_c, 0, 64, 63
1, 634174, Control_c, 0, 64, 63
1, 634188, Control_c, 0, 64, 65
1, 634203, Control_c, 0, 64, 66
1, 634218, Control_c, 0, 64, 67
1, 634224, Note_off_c, 0, 55, 52
1, 634227, Note_off_c, 0, 52, 35
1, 634232, Control_c, 0, 64, 68
1, 634247, Control_c, 0, 64, 69
1, 634262, Control_c, 0, 64, 69
1, 634276, Note_off_c, 0, 60, 36
1, 634277, Control_c, 0, 64, 70
1, 634286, Note_off_c, 0, 67, 42
1, 634344, Note_on_c, 0, 55, 40
1, 634352, Note_off_c, 0, 72, 58
1, 634426, Note_off_c, 0, 55, 54
1, 634492, Control_c, 0, 64, 70
1, 634521, Control_c, 0, 64, 71
1, 634536, Control_c, 0, 64, 72
1, 634545, Note_on_c, 0, 55, 40
1, 634551, Control_c, 0, 64, 74
1, 634566, Control_c, 0, 64, 76
1, 634581, Control_c, 0, 64, 77
1, 634596, Control_c, 0, 64, 79
1, 634611, Control_c, 0, 64, 81
1, 634613, Note_off_c, 0, 55, 56
1, 634626, Control_c, 0, 64, 82
1, 634640, Control_c, 0, 64, 83
1, 634655, Control_c, 0, 64, 84
1, 634670, Control_c, 0, 64, 85
1, 634748, Note_on_c, 0, 55, 42
1, 634783, Note_off_c, 0, 55, 50
1, 634933, Note_on_c, 0, 55, 45
1, 634936, Control_c, 0, 64, 84
1, 634966, Control_c, 0, 64, 84
1, 634975, Note_off_c, 0, 55, 62
1, 634995, Control_c, 0, 64, 83
1, 635040, Control_c, 0, 64, 83
1, 635100, Control_c, 0, 64, 81
1, 635115, Control_c, 0, 64, 78
1, 635136, Control_c, 0, 64, 72
1, 635151, Control_c, 0, 64, 64
1, 635155, Note_on_c, 0, 77, 58
1, 635165, Note_on_c, 0, 62, 43
1, 635166, Control_c, 0, 64, 48
1, 635174, Note_on_c, 0, 65, 40
1, 635179, Note_on_c, 0, 67, 30
1, 635181, Control_c, 0, 64, 0
1, 635240, Control_c, 0, 64, 37
1, 635255, Control_c, 0, 64, 54
1, 635270, Control_c, 0, 64, 61
1, 635285, Control_c, 0, 64, 63
1, 635300, Control_c, 0, 64, 65
1, 635314, Control_c, 0, 64, 66
1, 635329, Control_c, 0, 64, 68
1, 635338, Note_off_c, 0, 67, 0
1, 635344, Control_c, 0, 64, 69
1, 635347, Note_on_c, 0, 60, 42
1, 635351, Note_on_c, 0, 76, 53
1, 635353, Note_off_c, 0, 62, 34
1, 635359, Control_c, 0, 64, 70
1, 635374, Control_c, 0, 64, 71
1, 635374, Note_on_c, 0, 64, 30
1, 635377, Poly_aftertouch_c, 0, 67, 127
1, 635386, Note_off_c, 0, 65, 43
1, 635405, Note_off_c, 0, 64, 55
1, 635409, Note_off_c, 0, 60, 61
1, 635431, Poly_aftertouch_c, 0, 67, 0
1, 635546, Note_on_c, 0, 55, 45
1, 635549, Note_on_c, 0, 74, 55
1, 635572, Note_on_c, 0, 67, 26
1, 635582, Note_on_c, 0, 62, 19
1, 635592, Note_off_c, 0, 55, 60
1, 635627, Note_off_c, 0, 62, 49
1, 635658, Note_off_c, 0, 67, 39
1, 635720, Note_off_c, 0, 76, 16
1, 635742, Note_off_c, 0, 74, 58
1, 635744, Control_c, 0, 64, 70
1, 635759, Control_c, 0, 64, 69
1, 635770, Note_on_c, 0, 52, 48
1, 635773, Note_on_c, 0, 72, 48
1, 635774, Control_c, 0, 64, 66
1, 635780, Note_off_c, 0, 77, 24
1, 635788, Note_on_c, 0, 60, 39
1, 635789, Control_c, 0, 64, 62
1, 635794, Note_on_c, 0, 67, 36
1, 635804, Control_c, 0, 64, 45
1, 635818, Control_c, 0, 64, 0
1, 635930, Control_c, 0, 64, 46
1, 635945, Control_c, 0, 64, 58
1, 635959, Control_c, 0, 64, 62
1, 635974, Control_c, 0, 64, 64
1, 635983, Note_on_c, 0, 55, 36
1, 635989, Control_c, 0, 64, 65
1, 636003, Control_c, 0, 64, 66
1, 636018, Control_c, 0, 64, 68
1, 636033, Control_c, 0, 64, 70
1, 636042, Note_off_c, 0, 52, 35
1, 636048, Control_c, 0, 64, 72
1, 636051, Note_off_c, 0, 60, 43
1, 636054, Note_off_c, 0, 55, 54
1, 636063, Control_c, 0, 64, 73
1, 636098, Note_off_c, 0, 67, 52
1, 636153, Note_on_c, 0, 55, 40
1, 636164, Note_off_c, 0, 72, 56
1, 636267, Note_off_c, 0, 55, 37
1, 636358, Note_on_c, 0, 55, 35
1, 636459, Note_off_c, 0, 55, 37
1, 636554, Control_c, 0, 64, 72
1, 636557, Note_on_c, 0, 55, 35
1, 636629, Note_off_c, 0, 55, 45
1, 636709, Control_c, 0, 64, 72
1, 636778, Note_on_c, 0, 55, 27
1, 636816, Note_off_c, 0, 55, 43
1, 636931, Control_c, 0, 64, 71
1, 636946, Control_c, 0, 64, 70
1, 636959, Note_on_c, 0, 86, 52
1, 636961, Control_c, 0, 64, 67
1, 636975, Control_c, 0, 64, 62
1, 636978, Note_on_c, 0, 55, 32
1, 636990, Control_c, 0, 64, 48
1, 636992, Note_on_c, 0, 62, 23
1, 637005, Control_c, 0, 64, 0
1, 637008, Note_on_c, 0, 74, 26
1, 637060, Note_off_c, 0, 74, 58
1, 637064, Control_c, 0, 64, 29
1, 637079, Control_c, 0, 64, 46
1, 637094, Control_c, 0, 64, 55
1, 637109, Control_c, 0, 64, 59
1, 637124, Control_c, 0, 64, 62
1, 637139, Control_c, 0, 64, 63
1, 637154, Control_c, 0, 64, 64
1, 637160, Note_off_c, 0, 62, 42
1, 637167, Note_off_c, 0, 86, 52
1, 637169, Control_c, 0, 64, 65
1, 637172, Note_on_c, 0, 88, 53
1, 637183, Control_c, 0, 64, 66
1, 637192, Note_off_c, 0, 55, 53
1, 637198, Control_c, 0, 64, 67
1, 637209, Note_on_c, 0, 64, 12
1, 637213, Control_c, 0, 64, 69
1, 637216, Note_on_c, 0, 60, 15
1, 637228, Control_c, 0, 64, 70
1, 637243, Control_c, 0, 64, 71
1, 637246, Poly_aftertouch_c, 0, 76, 127
1, 637258, Control_c, 0, 64, 72
1, 637267, Poly_aftertouch_c, 0, 76, 0
1, 637389, Note_off_c, 0, 88, 33
1, 637391, Note_on_c, 0, 86, 55
1, 637398, Note_on_c, 0, 55, 33
1, 637407, Note_on_c, 0, 62, 14
1, 637408, Note_on_c, 0, 74, 37
1, 637414, Note_off_c, 0, 64, 43
1, 637415, Note_off_c, 0, 60, 33
1, 637446, Note_off_c, 0, 55, 60
1, 637453, Note_off_c, 0, 62, 49
1, 637469, Note_off_c, 0, 74, 53
1, 637475, Note_off_c, 0, 86, 60
1, 637592, Control_c, 0, 64, 71
1, 637606, Control_c, 0, 64, 70
1, 637613, Note_on_c, 0, 84, 54
1, 637621, Control_c, 0, 64, 67
1, 637628, Note_on_c, 0, 72, 42
1, 637635, Note_on_c, 0, 60, 28
1, 637636, Control_c, 0, 64, 64
1, 637650, Control_c, 0, 64, 58
1, 637664, Note_on_c, 0, 52, 25
1, 637665, Control_c, 0, 64, 42
1, 637680, Control_c, 0, 64, 0
1, 637739, Control_c, 0, 64, 24
1, 637754, Control_c, 0, 64, 41
1, 637768, Control_c, 0, 64, 52
1, 637783, Control_c, 0, 64, 59
1, 637798, Control_c, 0, 64, 63
1, 637813, Control_c, 0, 64, 64
1, 637828, Control_c, 0, 64, 65
1, 637843, Control_c, 0, 64, 66
1, 637857, Control_c, 0, 64, 67
1, 637859, Note_on_c, 0, 55, 19
1, 637872, Control_c, 0, 64, 68
1, 637887, Control_c, 0, 64, 71
1, 637902, Control_c, 0, 64, 72
1, 637915, Note_off_c, 0, 55, 44
1, 637917, Control_c, 0, 64, 74
1, 637932, Control_c, 0, 64, 75
1, 637941, Note_off_c, 0, 52, 41
1, 637947, Control_c, 0, 64, 76
1, 637961, Control_c, 0, 64, 77
1, 637976, Control_c, 0, 64, 77
1, 637982, Note_off_c, 0, 60, 35
1, 637982, Note_off_c, 0, 84, 55
1, 637985, Note_off_c, 0, 72, 54
1, 637991, Control_c, 0, 64, 78
1, 638007, Control_c, 0, 64, 78
1, 638036, Control_c, 0, 64, 79
1, 638044, Note_on_c, 0, 55, 38
1, 638093, Note_off_c, 0, 55, 57
1, 638239, Note_on_c, 0, 55, 39
1, 638329, Note_off_c, 0, 55, 37
1, 638413, Note_on_c, 0, 55, 37
1, 638481, Note_off_c, 0, 55, 52
1, 638631, Note_on_c, 0, 55, 37
1, 638651, Control_c, 0, 64, 78
1, 638664, Note_off_c, 0, 55, 53
1, 638844, Control_c, 0, 64, 75
1, 638853, Note_on_c, 0, 62, 43
1, 638857, Note_on_c, 0, 89, 60
1, 638859, Control_c, 0, 64, 71
1, 638880, Note_on_c, 0, 65, 36
1, 638882, Control_c, 0, 64, 67
1, 638885, Note_on_c, 0, 77, 38
1, 638897, Control_c, 0, 64, 64
1, 638956, Control_c, 0, 64, 65
1, 638971, Control_c, 0, 64, 66
1, 638985, Control_c, 0, 64, 67
1, 639000, Control_c, 0, 64, 68
1, 639007, Note_off_c, 0, 77, 55
1, 639015, Control_c, 0, 64, 69
1, 639029, Control_c, 0, 64, 71
1, 639044, Control_c, 0, 64, 72
1, 639059, Control_c, 0, 64, 73
1, 639089, Control_c, 0, 64, 73
1, 639091, Note_off_c, 0, 89, 53
1, 639111, Note_off_c, 0, 62, 35
1, 639114, Note_on_c, 0, 60, 37
1, 639116, Note_on_c, 0, 64, 30
1, 639119, Note_on_c, 0, 88, 57
1, 639124, Note_on_c, 0, 76, 48
1, 639133, Control_c, 0, 64, 74
1, 639135, Note_off_c, 0, 65, 41
1, 639166, Note_off_c, 0, 60, 53
1, 639187, Note_off_c, 0, 64, 40
1, 639199, Note_off_c, 0, 88, 62
1, 639227, Note_off_c, 0, 76, 36
1, 639347, Note_on_c, 0, 55, 42
1, 639351, Note_on_c, 0, 86, 63
1, 639368, Note_on_c, 0, 62, 39
1, 639371, Note_on_c, 0, 74, 40
1, 639418, Note_off_c, 0, 55, 63
1, 639442, Note_off_c, 0, 62, 37
1, 639470, Note_off_c, 0, 74, 55
1, 639669, Note_on_c, 0, 84, 57
1, 639670, Note_off_c, 0, 86, 50
1, 639673, Control_c, 0, 64, 73
1, 639685, Note_on_c, 0, 60, 28
1, 639688, Control_c, 0, 64, 70
1, 639690, Note_on_c, 0, 52, 42
1, 639692, Note_on_c, 0, 72, 39
1, 639703, Control_c, 0, 64, 66
1, 639718, Control_c, 0, 64, 59
1, 639732, Control_c, 0, 64, 39
1, 639747, Control_c, 0, 64, 0
1, 639807, Control_c, 0, 64, 39
1, 639822, Control_c, 0, 64, 53
1, 639836, Control_c, 0, 64, 58
1, 639851, Control_c, 0, 64, 61
1, 639866, Control_c, 0, 64, 63
1, 639881, Control_c, 0, 64, 64
1, 639896, Control_c, 0, 64, 66
1, 639911, Control_c, 0, 64, 68
1, 639925, Control_c, 0, 64, 70
1, 639940, Control_c, 0, 64, 72
1, 639955, Control_c, 0, 64, 73
1, 639966, Note_on_c, 0, 48, 39
1, 639969, Control_c, 0, 64, 75
1, 639984, Control_c, 0, 64, 77
1, 639999, Control_c, 0, 64, 79
1, 640014, Control_c, 0, 64, 80
1, 640024, Note_off_c, 0, 52, 40
1, 640025, Note_off_c, 0, 48, 57
1, 640029, Control_c, 0, 64, 82
1, 640039, Note_off_c, 0, 60, 40
1, 640043, Control_c, 0, 64, 84
1, 640058, Control_c, 0, 64, 86
1, 640070, Note_off_c, 0, 84, 53
1, 640073, Control_c, 0, 64, 86
1, 640088, Control_c, 0, 64, 87
1, 640127, Note_off_c, 0, 72, 36
1, 640160, Note_on_c, 0, 48, 41
1, 640207, Note_off_c, 0, 48, 44
1, 640341, Note_on_c, 0, 48, 45
1, 640377, Control_c, 0, 64, 86
1, 640423, Note_off_c, 0, 48, 39
1, 640423, Control_c, 0, 64, 86
1, 640467, Control_c, 0, 64, 85
1, 640497, Control_c, 0, 64, 85
1, 640530, Note_on_c, 0, 48, 40
1, 640595, Note_off_c, 0, 48, 51
1, 640704, Control_c, 0, 64, 84
1, 640713, Note_on_c, 0, 48, 42
1, 640877, Note_off_c, 0, 48, 0
1, 640891, Note_on_c, 0, 48, 31
1, 640910, Note_on_c, 0, 79, 56
1, 640927, Control_c, 0, 64, 84
1, 640928, Note_on_c, 0, 72, 47
1, 640928, Note_on_c, 0, 76, 47
1, 641015, Note_off_c, 0, 48, 35
1, 641043, Note_off_c, 0, 76, 55
1, 641050, Note_off_c, 0, 72, 46
1, 641054, Note_off_c, 0, 79, 58
1, 641083, Note_on_c, 0, 48, 37
1, 641147, Note_off_c, 0, 48, 58
1, 641289, Note_on_c, 0, 48, 41
1, 641320, Control_c, 0, 64, 83
1, 641327, Note_off_c, 0, 48, 44
1, 641364, Control_c, 0, 64, 83
1, 641492, Note_on_c, 0, 48, 46
1, 641497, Control_c, 0, 64, 82
1, 641527, Control_c, 0, 64, 81
1, 641542, Control_c, 0, 64, 79
1, 641557, Control_c, 0, 64, 74
1, 641571, Control_c, 0, 64, 69
1, 641586, Control_c, 0, 64, 65
1, 641601, Control_c, 0, 64, 62
1, 641646, Control_c, 0, 64, 63
1, 641661, Control_c, 0, 64, 63
1, 641675, Control_c, 0, 64, 65
1, 641677, Note_on_c, 0, 36, 38
1, 641689, Control_c, 0, 64, 66
1, 641704, Control_c, 0, 64, 67
1, 641719, Control_c, 0, 64, 67
1, 641726, Note_off_c, 0, 36, 46
1, 641734, Control_c, 0, 64, 68
1, 641748, Control_c, 0, 64, 69
1, 641763, Control_c, 0, 64, 70
1, 641778, Control_c, 0, 64, 71
1, 641793, Control_c, 0, 64, 72
1, 641808, Control_c, 0, 64, 73
1, 641822, Control_c, 0, 64, 74
1, 641837, Control_c, 0, 64, 74
1, 641852, Control_c, 0, 64, 75
1, 641854, Note_on_c, 0, 36, 35
1, 641875, Control_c, 0, 64, 75
1, 641890, Control_c, 0, 64, 76
1, 641907, Note_off_c, 0, 36, 48
1, 641948, Control_c, 0, 64, 76
1, 641968, Note_off_c, 0, 48, 31
1, 642069, Note_on_c, 0, 76, 52
1, 642078, Note_on_c, 0, 36, 22
1, 642082, Note_on_c, 0, 67, 37
1, 642086, Note_on_c, 0, 72, 45
1, 642147, Note_off_c, 0, 36, 41
1, 642212, Note_off_c, 0, 76, 58
1, 642216, Note_off_c, 0, 67, 39
1, 642226, Note_off_c, 0, 72, 58
1, 642271, Note_on_c, 0, 36, 24
1, 642321, Note_off_c, 0, 36, 47
1, 642468, Control_c, 0, 64, 76
1, 642478, Note_on_c, 0, 36, 17
1, 642522, Note_off_c, 0, 36, 49
1, 642670, Note_on_c, 0, 36, 26
1, 642712, Note_off_c, 0, 36, 50
1, 642742, Control_c, 0, 64, 76
1, 642757, Control_c, 0, 64, 77
1, 642786, Control_c, 0, 64, 77
1, 642817, Control_c, 0, 64, 78
1, 642832, Control_c, 0, 64, 78
1, 642847, Control_c, 0, 64, 79
1, 642862, Control_c, 0, 64, 80
1, 642876, Control_c, 0, 64, 81
1, 642877, Note_on_c, 0, 36, 28
1, 642891, Control_c, 0, 64, 81
1, 642906, Control_c, 0, 64, 82
1, 642921, Control_c, 0, 64, 83
1, 642936, Control_c, 0, 64, 83
1, 642950, Control_c, 0, 64, 84
1, 642965, Control_c, 0, 64, 85
1, 642975, Note_off_c, 0, 36, 38
1, 642994, Control_c, 0, 64, 85
1, 643039, Control_c, 0, 64, 86
1, 643101, Note_on_c, 0, 36, 33
1, 643146, Note_off_c, 0, 36, 45
1, 643371, Note_on_c, 0, 72, 39
1, 643381, Note_on_c, 0, 64, 38
1, 643387, Note_on_c, 0, 67, 39
1, 643408, Note_on_c, 0, 36, 33
1, 643446, Note_off_c, 0, 36, 55
1, 643517, Note_off_c, 0, 72, 45
1, 643521, Note_off_c, 0, 64, 40
1, 643533, Note_off_c, 0, 67, 37
1, 643749, Note_on_c, 0, 84, 46
1, 643750, Note_on_c, 0, 76, 41
1, 643765, Note_on_c, 0, 72, 34
1, 643783, Note_on_c, 0, 60, 22
1, 643793, Poly_aftertouch_c, 0, 67, 127
1, 643824, Note_off_c, 0, 60, 49
1, 643829, Note_off_c, 0, 72, 41
1, 643855, Note_off_c, 0, 76, 49
1, 643879, Note_off_c, 0, 84, 43
1, 643896, Poly_aftertouch_c, 0, 67, 0
1, 643922, Control_c, 0, 64, 85
1, 643966, Control_c, 0, 64, 85
1, 643976, Note_on_c, 0, 84, 58
1, 643979, Note_on_c, 0, 76, 49
1, 643981, Note_on_c, 0, 60, 32
1, 644000, Note_on_c, 0, 72, 36
1, 644001, Note_on_c, 0, 67, 38
1, 644025, Control_c, 0, 64, 84
1, 644045, Note_off_c, 0, 72, 45
1, 644050, Note_off_c, 0, 60, 41
1, 644052, Note_off_c, 0, 76, 60
1, 644055, Control_c, 0, 64, 84
1, 644069, Note_off_c, 0, 84, 62
1, 644099, Control_c, 0, 64, 83
1, 644114, Note_off_c, 0, 67, 35
1, 644136, Control_c, 0, 64, 83
1, 644181, Control_c, 0, 64, 82
1, 644209, Note_on_c, 0, 76, 54
1, 644212, Note_on_c, 0, 84, 65
1, 644221, Note_on_c, 0, 60, 29
1, 644225, Note_on_c, 0, 72, 45
1, 644229, Note_on_c, 0, 67, 38
1, 644284, Control_c, 0, 64, 82
1, 644296, Note_off_c, 0, 84, 61
1, 644296, Note_off_c, 0, 76, 58
1, 644314, Note_off_c, 0, 72, 37
1, 644333, Note_off_c, 0, 60, 36
1, 644360, Note_off_c, 0, 67, 27
1, 644436, Note_on_c, 0, 84, 63
1, 644456, Note_on_c, 0, 76, 47
1, 644463, Control_c, 0, 64, 81
1, 644465, Note_on_c, 0, 72, 35
1, 644479, Note_on_c, 0, 67, 43
1, 644489, Note_on_c, 0, 60, 11
1, 644538, Note_off_c, 0, 76, 60
1, 644545, Note_off_c, 0, 60, 42
1, 644556, Note_off_c, 0, 84, 60
1, 644567, Note_off_c, 0, 72, 36
1, 644578, Note_off_c, 0, 67, 34
1, 644701, Control_c, 0, 64, 81
1, 644710, Note_on_c, 0, 84, 59
1, 644719, Note_on_c, 0, 76, 54
1, 644725, Note_on_c, 0, 67, 38
1, 644742, Note_on_c, 0, 72, 31
1, 644779, Note_on_c, 0, 60, 16
1, 644784, Note_off_c, 0, 72, 47
1, 644802, Note_off_c, 0, 76, 58
1, 644825, Note_off_c, 0, 84, 60
1, 644886, Note_off_c, 0, 60, 29
1, 644901, Control_c, 0, 64, 80
1, 644914, Note_off_c, 0, 67, 40
1, 644960, Control_c, 0, 64, 80
1, 645004, Control_c, 0, 64, 79
1, 645019, Control_c, 0, 64, 79
1, 645034, Control_c, 0, 64, 76
1, 645043, Note_on_c, 0, 84, 57
1, 645048, Control_c, 0, 64, 72
1, 645049, Note_on_c, 0, 77, 50
1, 645063, Control_c, 0, 64, 64
1, 645068, Note_on_c, 0, 72, 36
1, 645077, Note_on_c, 0, 69, 33
1, 645078, Control_c, 0, 64, 51
1, 645086, Note_on_c, 0, 60, 24
1, 645093, Control_c, 0, 64, 23
1, 645107, Control_c, 0, 64, 14
1, 645122, Control_c, 0, 64, 28
1, 645137, Control_c, 0, 64, 39
1, 645152, Control_c, 0, 64, 51
1, 645166, Control_c, 0, 64, 58
1, 645182, Control_c, 0, 64, 61
1, 645197, Control_c, 0, 64, 63
1, 645212, Control_c, 0, 64, 64
1, 645227, Control_c, 0, 64, 65
1, 645242, Control_c, 0, 64, 67
1, 645257, Control_c, 0, 64, 69
1, 645267, Note_off_c, 0, 72, 62
1, 645271, Control_c, 0, 64, 71
1, 645286, Note_off_c, 0, 77, 60
1, 645286, Control_c, 0, 64, 73
1, 645292, Note_off_c, 0, 84, 61
1, 645294, Note_off_c, 0, 69, 49
1, 645300, Note_off_c, 0, 60, 41
1, 645301, Control_c, 0, 64, 74
1, 645316, Control_c, 0, 64, 75
1, 645331, Control_c, 0, 64, 77
1, 645345, Control_c, 0, 64, 78
1, 645360, Control_c, 0, 64, 80
1, 645375, Control_c, 0, 64, 81
1, 645390, Control_c, 0, 64, 82
1, 645405, Control_c, 0, 64, 83
1, 645417, Note_on_c, 0, 84, 59
1, 645419, Note_on_c, 0, 77, 55
1, 645419, Control_c, 0, 64, 83
1, 645429, Note_on_c, 0, 72, 40
1, 645434, Control_c, 0, 64, 84
1, 645435, Note_on_c, 0, 60, 21
1, 645457, Note_on_c, 0, 69, 30
1, 645478, Control_c, 0, 64, 84
1, 645512, Note_off_c, 0, 60, 0
1, 645548, Poly_aftertouch_c, 0, 60, 127
1, 645577, Note_off_c, 0, 84, 56
1, 645578, Note_off_c, 0, 72, 42
1, 645590, Note_off_c, 0, 77, 53
1, 645613, Poly_aftertouch_c, 0, 60, 0
1, 645636, Note_off_c, 0, 69, 43
1, 645860, Note_on_c, 0, 84, 52
1, 645873, Note_on_c, 0, 77, 43
1, 645878, Note_on_c, 0, 72, 36
1, 645896, Note_on_c, 0, 69, 32
1, 645926, Note_on_c, 0, 60, 19
1, 645990, Control_c, 0, 64, 84
1, 646011, Note_off_c, 0, 72, 43
1, 646031, Note_off_c, 0, 60, 29
1, 646078, Note_off_c, 0, 77, 50
1, 646098, Note_off_c, 0, 84, 37
1, 646198, Control_c, 0, 64, 83
1, 646227, Control_c, 0, 64, 83
1, 646229, Note_off_c, 0, 69, 38
1, 646272, Control_c, 0, 64, 82
1, 646301, Control_c, 0, 64, 82
1, 646345, Control_c, 0, 64, 81
1, 646397, Control_c, 0, 64, 81
1, 646442, Control_c, 0, 64, 80
1, 646486, Control_c, 0, 64, 80
1, 646516, Control_c, 0, 64, 79
1, 646545, Control_c, 0, 64, 79
1, 646575, Control_c, 0, 64, 78
1, 646590, Control_c, 0, 64, 78
1, 646605, Control_c, 0, 64, 77
1, 646619, Control_c, 0, 64, 76
1, 646634, Control_c, 0, 64, 74
1, 646638, Note_on_c, 0, 84, 45
1, 646641, Note_on_c, 0, 76, 40
1, 646649, Note_on_c, 0, 67, 27
1, 646649, Control_c, 0, 64, 72
1, 646657, Note_on_c, 0, 72, 36
1, 646664, Control_c, 0, 64, 70
1, 646665, Note_on_c, 0, 60, 28
1, 646679, Control_c, 0, 64, 67
1, 646693, Control_c, 0, 64, 65
1, 646708, Control_c, 0, 64, 63
1, 646723, Control_c, 0, 64, 60
1, 646737, Control_c, 0, 64, 55
1, 646752, Control_c, 0, 64, 49
1, 646767, Control_c, 0, 64, 45
1, 646783, Control_c, 0, 64, 43
1, 646798, Control_c, 0, 64, 43
1, 646813, Control_c, 0, 64, 42
1, 646827, Control_c, 0, 64, 41
1, 646842, Control_c, 0, 64, 40
1, 646857, Control_c, 0, 64, 40
1, 646872, Control_c, 0, 64, 39
1, 646887, Control_c, 0, 64, 39
1, 646901, Control_c, 0, 64, 38
1, 646917, Control_c, 0, 64, 37
1, 646932, Control_c, 0, 64, 36
1, 646947, Control_c, 0, 64, 35
1, 646961, Control_c, 0, 64, 34
1, 646976, Control_c, 0, 64, 33
1, 647006, Control_c, 0, 64, 33
1, 647035, Control_c, 0, 64, 32
1, 647065, Control_c, 0, 64, 32
1, 647080, Control_c, 0, 64, 31
1, 647095, Control_c, 0, 64, 31
1, 647117, Control_c, 0, 64, 30
1, 647147, Control_c, 0, 64, 29
1, 647161, Control_c, 0, 64, 29
1, 647176, Control_c, 0, 64, 28
1, 647191, Control_c, 0, 64, 28
1, 647221, Control_c, 0, 64, 27
1, 647235, Control_c, 0, 64, 26
1, 647250, Control_c, 0, 64, 26
1, 647265, Control_c, 0, 64, 25
1, 647280, Control_c, 0, 64, 23
1, 647295, Control_c, 0, 64, 23
1, 647324, Control_c, 0, 64, 22
1, 647339, Control_c, 0, 64, 21
1, 647354, Control_c, 0, 64, 20
1, 647369, Control_c, 0, 64, 19
1, 647399, Control_c, 0, 64, 18
1, 647429, Control_c, 0, 64, 17
1, 647458, Control_c, 0, 64, 15
1, 647473, Control_c, 0, 64, 14
1, 647517, Control_c, 0, 64, 12
1, 647561, Control_c, 0, 64, 10
1, 647622, Control_c, 0, 64, 8
1, 647666, Control_c, 0, 64, 0
1, 649971, Note_off_c, 0, 84, 46
1, 649976, Note_off_c, 0, 72, 45
1, 649990, Note_off_c, 0, 60, 41
1, 649995, Note_off_c, 0, 67, 43
1, 650001, Note_off_c, 0, 76, 57
1, 650586, Control_c, 0, 67, 119
1, 650600, Control_c, 0, 67, 106
1, 650615, Control_c, 0, 67, 93
1, 650630, Control_c, 0, 67, 79
1, 650645, Control_c, 0, 67, 65
1, 650660, Control_c, 0, 67, 52
1, 650675, Control_c, 0, 67, 38
1, 650690, Control_c, 0, 67, 28
1, 650705, Control_c, 0, 67, 21
1, 650720, Control_c, 0, 67, 15
1, 650735, Control_c, 0, 67, 9
1, 650750, Control_c, 0, 67, 0
1, 650877, Control_c, 0, 64, 10
1, 650891, Control_c, 0, 64, 42
1, 650906, Control_c, 0, 64, 50
1, 650921, Control_c, 0, 64, 54
1, 650935, Control_c, 0, 64, 58
1, 650950, Control_c, 0, 64, 61
1, 650965, Control_c, 0, 64, 62
1, 650980, Control_c, 0, 64, 64
1, 650995, Control_c, 0, 64, 65
1, 651009, Control_c, 0, 64, 66
1, 651024, Control_c, 0, 64, 68
1, 651039, Control_c, 0, 64, 71
1, 651054, Control_c, 0, 64, 75
1, 651069, Control_c, 0, 64, 78
1, 651083, Control_c, 0, 64, 80
1, 651098, Control_c, 0, 64, 84
1, 651113, Control_c, 0, 64, 88
1, 651128, Control_c, 0, 64, 93
1, 651143, Control_c, 0, 64, 99
1, 651158, Control_c, 0, 64, 110
1, 651173, Control_c, 0, 64, 127
1, 653447, Control_c, 0, 67, 12
1, 653462, Control_c, 0, 67, 26
1, 653477, Control_c, 0, 67, 38
1, 653492, Control_c, 0, 67, 48
1, 653507, Control_c, 0, 67, 58
1, 653521, Control_c, 0, 67, 68
1, 653536, Control_c, 0, 67, 80
1, 653551, Control_c, 0, 67, 94
1, 653566, Control_c, 0, 67, 109
1, 653581, Control_c, 0, 67, 123
1, 653595, Control_c, 0, 67, 127
1, 654138, Control_c, 0, 64, 82
1, 654152, Control_c, 0, 64, 59
1, 654167, Control_c, 0, 64, 0
1, 654413, Note_on_c, 0, 69, 72
1, 654431, Note_on_c, 0, 57, 55
1, 654441, Note_off_c, 0, 69, 65
1, 654467, Note_off_c, 0, 57, 60
1, 654504, Note_on_c, 0, 69, 73
1, 654515, Note_on_c, 0, 57, 52
1, 654538, Note_off_c, 0, 57, 60
1, 654541, Note_off_c, 0, 69, 60
1, 654604, Note_on_c, 0, 71, 77
1, 654613, Note_on_c, 0, 52, 58
1, 654614, Note_on_c, 0, 68, 63
1, 654619, Note_on_c, 0, 64, 55
1, 654663, Control_c, 0, 64, 8
1, 654678, Control_c, 0, 64, 57
1, 654693, Control_c, 0, 64, 67
1, 654708, Control_c, 0, 64, 76
1, 654723, Control_c, 0, 64, 91
1, 654738, Control_c, 0, 64, 104
1, 654752, Control_c, 0, 64, 115
1, 654767, Control_c, 0, 64, 127
1, 654823, Note_off_c, 0, 71, 51
1, 654837, Note_off_c, 0, 64, 59
1, 654871, Note_off_c, 0, 68, 64
1, 654882, Note_off_c, 0, 52, 64
1, 654975, Control_c, 0, 64, 111
1, 654990, Control_c, 0, 64, 86
1, 655005, Control_c, 0, 64, 65
1, 655020, Control_c, 0, 64, 0
1, 655039, Note_on_c, 0, 69, 80
1, 655050, Note_on_c, 0, 57, 52
1, 655067, Note_off_c, 0, 69, 68
1, 655109, Note_off_c, 0, 57, 0
1, 655123, Note_on_c, 0, 57, 48
1, 655129, Note_on_c, 0, 69, 78
1, 655158, Note_off_c, 0, 57, 63
1, 655179, Note_off_c, 0, 69, 64
1, 655230, Note_on_c, 0, 71, 85
1, 655245, Note_on_c, 0, 64, 60
1, 655245, Note_on_c, 0, 68, 66
1, 655249, Note_on_c, 0, 52, 60
1, 655286, Control_c, 0, 64, 57
1, 655301, Control_c, 0, 64, 67
1, 655316, Control_c, 0, 64, 72
1, 655331, Control_c, 0, 64, 76
1, 655353, Control_c, 0, 64, 81
1, 655367, Control_c, 0, 64, 87
1, 655382, Control_c, 0, 64, 93
1, 655397, Control_c, 0, 64, 101
1, 655412, Control_c, 0, 64, 106
1, 655427, Control_c, 0, 64, 110
1, 655442, Control_c, 0, 64, 112
1, 655456, Control_c, 0, 64, 113
1, 655466, Note_off_c, 0, 71, 53
1, 655471, Control_c, 0, 64, 114
1, 655486, Note_off_c, 0, 64, 55
1, 655511, Note_off_c, 0, 68, 62
1, 655527, Note_off_c, 0, 52, 64
1, 655635, Control_c, 0, 64, 113
1, 655650, Control_c, 0, 64, 105
1, 655656, Note_on_c, 0, 69, 81
1, 655665, Control_c, 0, 64, 85
1, 655668, Note_on_c, 0, 57, 57
1, 655680, Control_c, 0, 64, 65
1, 655694, Note_off_c, 0, 69, 63
1, 655695, Control_c, 0, 64, 0
1, 655708, Note_off_c, 0, 57, 58
1, 655736, Note_on_c, 0, 69, 67
1, 655742, Note_on_c, 0, 57, 43
1, 655775, Note_off_c, 0, 57, 63
1, 655784, Note_off_c, 0, 69, 65
1, 655837, Note_on_c, 0, 71, 85
1, 655844, Note_on_c, 0, 52, 68
1, 655847, Note_on_c, 0, 64, 64
1, 655863, Note_on_c, 0, 68, 44
1, 655866, Note_off_c, 0, 64, 67
1, 655871, Note_off_c, 0, 52, 69
1, 655871, Note_off_c, 0, 71, 56
1, 655890, Note_off_c, 0, 68, 35
1, 656005, Control_c, 0, 67, 125
1, 656020, Control_c, 0, 67, 101
1, 656035, Control_c, 0, 67, 64
1, 656037, Note_on_c, 0, 72, 82
1, 656048, Note_on_c, 0, 69, 62
1, 656049, Control_c, 0, 67, 31
1, 656055, Note_on_c, 0, 57, 56
1, 656059, Note_on_c, 0, 64, 43
1, 656060, Note_off_c, 0, 72, 65
1, 656064, Control_c, 0, 67, 0
1, 656067, Note_off_c, 0, 69, 67
1, 656076, Note_off_c, 0, 57, 61
1, 656095, Note_off_c, 0, 64, 36
1, 656241, Note_on_c, 0, 71, 80
1, 656252, Note_on_c, 0, 68, 65
1, 656264, Note_on_c, 0, 52, 35
1, 656270, Note_off_c, 0, 68, 66
1, 656272, Note_off_c, 0, 71, 59
1, 656278, Note_on_c, 0, 64, 22
1, 656279, Note_off_c, 0, 64, 127
1, 656303, Note_off_c, 0, 52, 52
1, 656458, Note_on_c, 0, 64, 75
1, 656458, Note_on_c, 0, 72, 70
1, 656459, Note_on_c, 0, 69, 75
1, 656462, Note_on_c, 0, 57, 57
1, 656480, Note_off_c, 0, 69, 73
1, 656483, Note_off_c, 0, 57, 60
1, 656485, Note_off_c, 0, 64, 65
1, 656488, Note_off_c, 0, 72, 66
1, 656758, Note_on_c, 0, 76, 92
1, 656767, Note_on_c, 0, 64, 90
1, 656767, Note_on_c, 0, 71, 85
1, 656777, Note_on_c, 0, 44, 77
1, 656781, Note_on_c, 0, 32, 73
1, 656798, Control_c, 0, 64, 63
1, 656813, Control_c, 0, 64, 82
1, 656828, Control_c, 0, 64, 95
1, 656850, Control_c, 0, 64, 99
1, 656865, Control_c, 0, 64, 106
1, 656879, Control_c, 0, 64, 127
1, 657176, Note_off_c, 0, 71, 51
1, 657190, Note_off_c, 0, 64, 62
1, 657192, Note_off_c, 0, 44, 49
1, 657194, Note_off_c, 0, 32, 27
1, 657295, Control_c, 0, 64, 94
1, 657306, Note_on_c, 0, 69, 45
1, 657310, Control_c, 0, 64, 68
1, 657311, Note_on_c, 0, 72, 65
1, 657325, Note_off_c, 0, 76, 62
1, 657325, Control_c, 0, 64, 0
1, 657327, Note_on_c, 0, 45, 46
1, 657331, Note_on_c, 0, 64, 51
1, 657332, Note_on_c, 0, 33, 38
1, 657444, Control_c, 0, 64, 55
1, 657459, Control_c, 0, 64, 64
1, 657474, Control_c, 0, 64, 68
1, 657488, Control_c, 0, 64, 70
1, 657503, Control_c, 0, 64, 71
1, 657511, Note_off_c, 0, 33, 58
1, 657523, Note_off_c, 0, 64, 64
1, 657533, Control_c, 0, 64, 71
1, 657553, Note_off_c, 0, 72, 63
1, 657558, Note_off_c, 0, 69, 64
1, 657560, Note_off_c, 0, 45, 64
1, 657577, Control_c, 0, 64, 71
1, 657600, Control_c, 0, 64, 69
1, 657600, Control_c, 0, 67, 17
1, 657615, Control_c, 0, 64, 66
1, 657615, Control_c, 0, 67, 30
1, 657629, Control_c, 0, 64, 61
1, 657629, Control_c, 0, 67, 44
1, 657644, Control_c, 0, 64, 38
1, 657644, Control_c, 0, 67, 57
1, 657659, Control_c, 0, 64, 0
1, 657659, Control_c, 0, 67, 64
1, 657674, Control_c, 0, 67, 69
1, 657689, Control_c, 0, 67, 70
1, 657733, Control_c, 0, 67, 69
1, 657748, Control_c, 0, 67, 68
1, 657763, Control_c, 0, 67, 67
1, 657777, Control_c, 0, 67, 66
1, 657792, Control_c, 0, 67, 65
1, 657796, Note_on_c, 0, 72, 78
1, 657800, Note_on_c, 0, 64, 51
1, 657807, Control_c, 0, 67, 64
1, 657811, Note_on_c, 0, 67, 48
1, 657819, Note_on_c, 0, 60, 30
1, 657821, Control_c, 0, 67, 63
1, 657826, Note_off_c, 0, 72, 64
1, 657837, Note_off_c, 0, 67, 59
1, 657865, Note_off_c, 0, 60, 51
1, 657878, Note_off_c, 0, 64, 56
1, 657896, Note_on_c, 0, 72, 58
1, 657940, Control_c, 0, 67, 63
1, 657946, Note_off_c, 0, 72, 62
1, 657955, Control_c, 0, 67, 64
1, 657971, Control_c, 0, 67, 64
1, 657986, Control_c, 0, 67, 65
1, 657992, Note_on_c, 0, 59, 45
1, 657993, Note_on_c, 0, 74, 77
1, 657999, Note_on_c, 0, 65, 56
1, 658014, Note_on_c, 0, 67, 58
1, 658015, Control_c, 0, 67, 66
1, 658089, Control_c, 0, 64, 44
1, 658104, Control_c, 0, 64, 58
1, 658118, Control_c, 0, 64, 63
1, 658133, Control_c, 0, 64, 66
1, 658148, Control_c, 0, 64, 67
1, 658163, Control_c, 0, 64, 69
1, 658178, Control_c, 0, 64, 70
1, 658193, Control_c, 0, 64, 70
1, 658208, Control_c, 0, 64, 71
1, 658234, Note_off_c, 0, 67, 57
1, 658238, Control_c, 0, 64, 71
1, 658240, Note_off_c, 0, 74, 61
1, 658378, Control_c, 0, 64, 70
1, 658385, Note_off_c, 0, 59, 50
1, 658393, Control_c, 0, 64, 66
1, 658407, Control_c, 0, 64, 58
1, 658409, Note_off_c, 0, 65, 47
1, 658422, Control_c, 0, 64, 0
1, 658422, Control_c, 0, 67, 65
1, 658428, Note_on_c, 0, 64, 47
1, 658431, Note_on_c, 0, 72, 76
1, 658434, Note_on_c, 0, 60, 47
1, 658437, Control_c, 0, 67, 64
1, 658438, Note_on_c, 0, 67, 57
1, 658452, Control_c, 0, 67, 64
1, 658458, Note_off_c, 0, 72, 65
1, 658467, Note_off_c, 0, 67, 65
1, 658497, Control_c, 0, 67, 65
1, 658512, Control_c, 0, 67, 66
1, 658521, Note_on_c, 0, 72, 61
1, 658526, Control_c, 0, 67, 66
1, 658533, Note_off_c, 0, 64, 58
1, 658542, Note_off_c, 0, 60, 53
1, 658556, Note_off_c, 0, 72, 64
1, 658600, Control_c, 0, 67, 66
1, 658615, Control_c, 0, 67, 65
1, 658630, Control_c, 0, 67, 65
1, 658631, Note_on_c, 0, 74, 82
1, 658644, Control_c, 0, 67, 64
1, 658646, Note_on_c, 0, 59, 52
1, 658646, Note_on_c, 0, 65, 58
1, 658646, Note_on_c, 0, 67, 55
1, 658659, Control_c, 0, 67, 64
1, 658718, Control_c, 0, 64, 43
1, 658733, Control_c, 0, 64, 58
1, 658733, Control_c, 0, 67, 63
1, 658748, Control_c, 0, 64, 61
1, 658764, Control_c, 0, 67, 63
1, 658809, Control_c, 0, 64, 61
1, 658867, Control_c, 0, 64, 62
1, 658897, Control_c, 0, 64, 62
1, 658897, Control_c, 0, 67, 62
1, 658905, Note_off_c, 0, 67, 61
1, 658909, Note_off_c, 0, 74, 62
1, 658912, Control_c, 0, 67, 62
1, 658927, Control_c, 0, 64, 63
1, 658941, Control_c, 0, 64, 63
1, 658941, Control_c, 0, 67, 61
1, 658956, Control_c, 0, 64, 64
1, 658956, Control_c, 0, 67, 61
1, 658971, Control_c, 0, 67, 60
1, 658986, Control_c, 0, 64, 64
1, 658986, Control_c, 0, 67, 60
1, 659027, Note_off_c, 0, 59, 55
1, 659030, Control_c, 0, 64, 63
1, 659030, Control_c, 0, 67, 59
1, 659045, Note_off_c, 0, 65, 40
1, 659045, Control_c, 0, 64, 59
1, 659045, Control_c, 0, 67, 58
1, 659058, Note_on_c, 0, 64, 50
1, 659059, Note_on_c, 0, 60, 50
1, 659060, Control_c, 0, 64, 39
1, 659060, Control_c, 0, 67, 55
1, 659072, Note_on_c, 0, 72, 71
1, 659075, Control_c, 0, 64, 0
1, 659075, Control_c, 0, 67, 52
1, 659097, Control_c, 0, 67, 49
1, 659099, Note_on_c, 0, 67, 42
1, 659112, Control_c, 0, 67, 47
1, 659116, Note_off_c, 0, 72, 58
1, 659126, Note_off_c, 0, 67, 58
1, 659127, Control_c, 0, 67, 42
1, 659141, Control_c, 0, 67, 32
1, 659156, Control_c, 0, 67, 11
1, 659171, Control_c, 0, 67, 0
1, 659176, Note_on_c, 0, 72, 66
1, 659207, Note_off_c, 0, 72, 65
1, 659298, Note_off_c, 0, 60, 52
1, 659303, Note_off_c, 0, 64, 63
1, 659314, Note_on_c, 0, 74, 87
1, 659320, Note_on_c, 0, 59, 61
1, 659323, Note_on_c, 0, 65, 63
1, 659336, Note_on_c, 0, 67, 60
1, 659349, Control_c, 0, 64, 60
1, 659364, Control_c, 0, 64, 69
1, 659379, Control_c, 0, 64, 75
1, 659394, Control_c, 0, 64, 81
1, 659409, Control_c, 0, 64, 91
1, 659423, Control_c, 0, 64, 113
1, 659438, Control_c, 0, 64, 127
1, 659507, Note_off_c, 0, 67, 60
1, 659525, Note_off_c, 0, 74, 65
1, 659543, Note_off_c, 0, 59, 61
1, 659589, Note_off_c, 0, 65, 59
1, 659702, Note_on_c, 0, 58, 61
1, 659704, Note_on_c, 0, 76, 87
1, 659708, Note_on_c, 0, 67, 61
1, 659719, Note_on_c, 0, 72, 56
1, 659740, Note_on_c, 0, 60, 33
1, 659740, Note_off_c, 0, 72, 63
1, 659743, Note_off_c, 0, 76, 64
1, 659750, Control_c, 0, 64, 84
1, 659752, Note_off_c, 0, 67, 56
1, 659755, Note_off_c, 0, 58, 58
1, 659764, Control_c, 0, 64, 65
1, 659771, Note_off_c, 0, 60, 46
1, 659779, Control_c, 0, 64, 0
1, 659794, Note_on_c, 0, 76, 71
1, 659857, Note_off_c, 0, 76, 63
1, 659908, Note_on_c, 0, 79, 83
1, 659912, Note_on_c, 0, 57, 57
1, 659913, Note_on_c, 0, 65, 57
1, 659925, Note_on_c, 0, 72, 68
1, 659937, Note_off_c, 0, 57, 63
1, 659937, Note_off_c, 0, 65, 62
1, 659966, Note_off_c, 0, 72, 53
1, 659998, Note_on_c, 0, 77, 74
1, 660014, Note_off_c, 0, 79, 51
1, 660084, Note_off_c, 0, 77, 61
1, 660114, Note_on_c, 0, 76, 71
1, 660120, Note_on_c, 0, 67, 65
1, 660123, Note_on_c, 0, 55, 58
1, 660130, Note_on_c, 0, 72, 50
1, 660136, Note_off_c, 0, 76, 70
1, 660147, Note_off_c, 0, 67, 65
1, 660151, Note_off_c, 0, 55, 66
1, 660152, Note_off_c, 0, 72, 60
1, 660312, Note_on_c, 0, 74, 74
1, 660320, Note_on_c, 0, 65, 54
1, 660321, Note_on_c, 0, 55, 54
1, 660323, Note_on_c, 0, 71, 60
1, 660342, Note_off_c, 0, 71, 64
1, 660345, Note_off_c, 0, 74, 61
1, 660351, Note_off_c, 0, 55, 56
1, 660353, Note_off_c, 0, 65, 59
1, 660510, Note_on_c, 0, 64, 61
1, 660518, Note_on_c, 0, 72, 75
1, 660523, Note_on_c, 0, 60, 57
1, 660530, Note_off_c, 0, 64, 64
1, 660542, Note_off_c, 0, 72, 68
1, 660543, Note_off_c, 0, 60, 61
1, 660728, Control_c, 0, 64, 48
1, 660736, Note_on_c, 0, 79, 99
1, 660739, Note_on_c, 0, 67, 90
1, 660743, Control_c, 0, 64, 67
1, 660750, Note_on_c, 0, 52, 81
1, 660750, Note_on_c, 0, 64, 77
1, 660758, Control_c, 0, 64, 76
1, 660773, Control_c, 0, 64, 89
1, 660783, Note_off_c, 0, 64, 61
1, 660787, Control_c, 0, 64, 109
1, 660795, Note_off_c, 0, 52, 62
1, 660802, Control_c, 0, 64, 127
1, 660883, Note_off_c, 0, 79, 56
1, 660940, Note_off_c, 0, 67, 55
1, 661099, Control_c, 0, 64, 115
1, 661113, Control_c, 0, 64, 73
1, 661128, Control_c, 0, 64, 0
1, 661129, Note_on_c, 0, 76, 85
1, 661131, Note_on_c, 0, 48, 78
1, 661134, Note_on_c, 0, 64, 84
1, 661137, Note_on_c, 0, 60, 63
1, 661162, Note_off_c, 0, 60, 63
1, 661163, Note_off_c, 0, 48, 65
1, 661164, Note_off_c, 0, 64, 64
1, 661171, Note_off_c, 0, 76, 64
1, 661347, Note_on_c, 0, 45, 65
1, 661347, Note_on_c, 0, 60, 75
1, 661347, Note_on_c, 0, 72, 79
1, 661350, Note_on_c, 0, 57, 60
1, 661370, Note_off_c, 0, 57, 63
1, 661374, Note_off_c, 0, 45, 66
1, 661376, Note_off_c, 0, 72, 63
1, 661379, Note_off_c, 0, 60, 58
1, 661538, Note_on_c, 0, 69, 75
1, 661540, Note_on_c, 0, 57, 75
1, 661545, Note_on_c, 0, 41, 71
1, 661551, Note_on_c, 0, 53, 56
1, 661574, Note_off_c, 0, 53, 67
1, 661576, Note_off_c, 0, 57, 58
1, 661579, Note_off_c, 0, 41, 63
1, 661579, Note_off_c, 0, 69, 59
1, 661728, Note_on_c, 0, 65, 83
1, 661731, Note_on_c, 0, 53, 83
1, 661740, Note_on_c, 0, 38, 65
1, 661740, Note_on_c, 0, 50, 67
1, 661758, Note_off_c, 0, 53, 70
1, 661774, Note_off_c, 0, 38, 63
1, 661774, Note_off_c, 0, 50, 62
1, 661774, Note_off_c, 0, 65, 62
1, 661947, Note_on_c, 0, 81, 93
1, 661949, Note_on_c, 0, 69, 91
1, 661950, Note_on_c, 0, 35, 76
1, 661958, Note_on_c, 0, 47, 78
1, 661958, Note_on_c, 0, 74, 71
1, 661958, Note_on_c, 0, 77, 78
1, 661967, Control_c, 0, 64, 12
1, 661982, Control_c, 0, 64, 64
1, 661984, Note_off_c, 0, 35, 67
1, 661996, Control_c, 0, 64, 72
1, 662002, Note_off_c, 0, 47, 61
1, 662011, Control_c, 0, 64, 83
1, 662026, Control_c, 0, 64, 99
1, 662041, Control_c, 0, 64, 127
1, 662055, Note_off_c, 0, 69, 64
1, 662061, Note_off_c, 0, 74, 61
1, 662078, Note_off_c, 0, 77, 61
1, 662095, Note_off_c, 0, 81, 62
1, 662456, Note_on_c, 0, 86, 94
1, 662476, Note_on_c, 0, 59, 58
1, 662477, Note_on_c, 0, 77, 73
1, 662478, Note_on_c, 0, 81, 75
1, 662486, Note_on_c, 0, 69, 62
1, 662492, Control_c, 0, 64, 80
1, 662503, Note_on_c, 0, 65, 51
1, 662507, Control_c, 0, 64, 64
1, 662522, Control_c, 0, 64, 0
1, 663108, Control_c, 0, 64, 8
1, 663123, Control_c, 0, 64, 55
1, 663138, Control_c, 0, 64, 65
1, 663153, Control_c, 0, 64, 70
1, 663168, Control_c, 0, 64, 76
1, 663182, Control_c, 0, 64, 83
1, 663197, Control_c, 0, 64, 89
1, 663212, Control_c, 0, 64, 93
1, 663227, Control_c, 0, 64, 98
1, 663241, Control_c, 0, 64, 101
1, 663256, Control_c, 0, 64, 105
1, 663256, Control_c, 0, 67, 9
1, 663271, Control_c, 0, 64, 108
1, 663271, Control_c, 0, 67, 15
1, 663283, Note_off_c, 0, 59, 35
1, 663286, Control_c, 0, 64, 111
1, 663286, Control_c, 0, 67, 21
1, 663297, Note_off_c, 0, 77, 62
1, 663301, Control_c, 0, 64, 112
1, 663301, Control_c, 0, 67, 27
1, 663302, Note_off_c, 0, 81, 51
1, 663315, Control_c, 0, 64, 113
1, 663315, Control_c, 0, 67, 31
1, 663330, Control_c, 0, 67, 35
1, 663345, Control_c, 0, 67, 39
1, 663360, Control_c, 0, 67, 43
1, 663365, Note_off_c, 0, 69, 39
1, 663375, Control_c, 0, 67, 48
1, 663389, Control_c, 0, 67, 53
1, 663404, Control_c, 0, 67, 59
1, 663419, Control_c, 0, 67, 65
1, 663429, Note_on_c, 0, 84, 62
1, 663433, Control_c, 0, 64, 112
1, 663433, Control_c, 0, 67, 69
1, 663448, Control_c, 0, 64, 111
1, 663448, Control_c, 0, 67, 74
1, 663463, Control_c, 0, 64, 107
1, 663463, Control_c, 0, 67, 78
1, 663478, Control_c, 0, 64, 103
1, 663478, Control_c, 0, 67, 82
1, 663493, Control_c, 0, 64, 98
1, 663493, Control_c, 0, 67, 85
1, 663508, Control_c, 0, 64, 92
1, 663508, Control_c, 0, 67, 88
1, 663514, Note_off_c, 0, 65, 35
1, 663523, Control_c, 0, 64, 87
1, 663523, Control_c, 0, 67, 90
1, 663528, Note_on_c, 0, 83, 56
1, 663538, Control_c, 0, 64, 82
1, 663538, Control_c, 0, 67, 91
1, 663553, Control_c, 0, 64, 75
1, 663553, Control_c, 0, 67, 92
1, 663562, Note_off_c, 0, 84, 36
1, 663568, Control_c, 0, 64, 68
1, 663568, Control_c, 0, 67, 93
1, 663591, Control_c, 0, 64, 61
1, 663591, Control_c, 0, 67, 94
1, 663591, Note_off_c, 0, 86, 30
1, 663606, Control_c, 0, 64, 41
1, 663606, Control_c, 0, 67, 95
1, 663620, Control_c, 0, 64, 0
1, 663622, Note_on_c, 0, 81, 58
1, 663627, Note_off_c, 0, 83, 54
1, 663725, Note_off_c, 0, 81, 60
1, 663728, Note_on_c, 0, 79, 59
1, 663742, Note_on_c, 0, 64, 38
1, 663745, Note_on_c, 0, 60, 44
1, 663755, Note_on_c, 0, 67, 27
1, 663771, Note_off_c, 0, 64, 60
1, 663786, Note_off_c, 0, 60, 62
1, 663789, Note_off_c, 0, 79, 57
1, 663791, Note_off_c, 0, 67, 57
1, 663798, Control_c, 0, 67, 94
1, 663931, Control_c, 0, 67, 94
1, 663946, Control_c, 0, 64, 53
1, 663946, Control_c, 0, 67, 93
1, 663957, Note_on_c, 0, 91, 92
1, 663961, Control_c, 0, 64, 66
1, 663967, Note_on_c, 0, 79, 69
1, 663967, Note_on_c, 0, 76, 72
1, 663976, Control_c, 0, 64, 76
1, 663991, Note_off_c, 0, 76, 70
1, 663991, Control_c, 0, 64, 90
1, 663991, Control_c, 0, 67, 93
1, 663993, Note_off_c, 0, 79, 66
1, 664005, Control_c, 0, 64, 97
1, 664020, Control_c, 0, 64, 101
1, 664035, Control_c, 0, 64, 106
1, 664050, Control_c, 0, 64, 109
1, 664064, Control_c, 0, 64, 110
1, 664079, Control_c, 0, 64, 111
1, 664182, Control_c, 0, 67, 92
1, 664212, Control_c, 0, 67, 92
1, 664242, Control_c, 0, 67, 91
1, 664247, Note_on_c, 0, 88, 77
1, 664256, Control_c, 0, 67, 91
1, 664271, Control_c, 0, 67, 90
1, 664272, Note_off_c, 0, 91, 55
1, 664282, Note_off_c, 0, 88, 61
1, 664286, Control_c, 0, 64, 110
1, 664286, Control_c, 0, 67, 90
1, 664301, Control_c, 0, 64, 101
1, 664316, Control_c, 0, 64, 86
1, 664316, Control_c, 0, 67, 89
1, 664338, Control_c, 0, 64, 72
1, 664338, Control_c, 0, 67, 89
1, 664343, Note_on_c, 0, 88, 80
1, 664346, Note_on_c, 0, 76, 67
1, 664348, Note_on_c, 0, 72, 60
1, 664353, Control_c, 0, 64, 62
1, 664366, Note_off_c, 0, 72, 64
1, 664369, Control_c, 0, 64, 22
1, 664372, Note_off_c, 0, 76, 69
1, 664384, Control_c, 0, 64, 0
1, 664414, Control_c, 0, 67, 88
1, 664429, Note_on_c, 0, 84, 73
1, 664451, Note_off_c, 0, 88, 60
1, 664456, Note_off_c, 0, 84, 67
1, 664487, Control_c, 0, 67, 88
1, 664517, Control_c, 0, 67, 87
1, 664525, Note_on_c, 0, 84, 89
1, 664530, Note_on_c, 0, 69, 59
1, 664532, Control_c, 0, 67, 86
1, 664540, Note_on_c, 0, 72, 51
1, 664547, Control_c, 0, 67, 83
1, 664549, Note_off_c, 0, 69, 65
1, 664560, Note_off_c, 0, 72, 60
1, 664561, Control_c, 0, 67, 80
1, 664576, Control_c, 0, 67, 77
1, 664591, Control_c, 0, 67, 74
1, 664603, Note_on_c, 0, 81, 76
1, 664605, Control_c, 0, 67, 71
1, 664614, Note_off_c, 0, 84, 63
1, 664620, Control_c, 0, 67, 66
1, 664635, Note_off_c, 0, 81, 63
1, 664635, Control_c, 0, 67, 59
1, 664650, Control_c, 0, 67, 48
1, 664665, Control_c, 0, 67, 36
1, 664679, Control_c, 0, 67, 21
1, 664694, Control_c, 0, 67, 8
1, 664705, Note_on_c, 0, 65, 63
1, 664707, Note_on_c, 0, 81, 86
1, 664709, Control_c, 0, 67, 0
1, 664715, Note_on_c, 0, 69, 43
1, 664731, Note_off_c, 0, 65, 65
1, 664741, Note_off_c, 0, 69, 62
1, 664786, Note_on_c, 0, 77, 78
1, 664799, Note_off_c, 0, 81, 57
1, 664831, Note_off_c, 0, 77, 60
1, 664893, Note_on_c, 0, 77, 80
1, 664896, Note_on_c, 0, 62, 55
1, 664918, Note_on_c, 0, 65, 36
1, 664922, Note_off_c, 0, 62, 56
1, 664950, Note_off_c, 0, 65, 49
1, 664953, Note_off_c, 0, 77, 62
1, 665165, Note_on_c, 0, 80, 78
1, 665180, Note_on_c, 0, 72, 56
1, 665180, Note_on_c, 0, 63, 47
1, 665184, Note_on_c, 0, 75, 62
1, 665186, Note_on_c, 0, 68, 42
1, 665186, Note_on_c, 0, 60, 39
1, 665813, Control_c, 0, 64, 8
1, 665835, Control_c, 0, 64, 18
1, 665850, Control_c, 0, 64, 22
1, 665865, Control_c, 0, 64, 26
1, 665880, Control_c, 0, 64, 30
1, 665895, Control_c, 0, 64, 37
1, 665909, Control_c, 0, 64, 48
1, 665924, Control_c, 0, 64, 57
1, 665939, Control_c, 0, 64, 63
1, 665955, Control_c, 0, 64, 66
1, 665970, Control_c, 0, 64, 70
1, 665985, Control_c, 0, 64, 76
1, 666000, Control_c, 0, 64, 85
1, 666014, Control_c, 0, 64, 97
1, 666029, Control_c, 0, 64, 114
1, 666044, Control_c, 0, 64, 127
1, 666058, Control_c, 0, 67, 9
1, 666073, Control_c, 0, 67, 21
1, 666088, Control_c, 0, 67, 32
1, 666103, Control_c, 0, 67, 43
1, 666118, Control_c, 0, 67, 54
1, 666132, Control_c, 0, 67, 70
1, 666137, Note_off_c, 0, 72, 53
1, 666147, Control_c, 0, 67, 87
1, 666162, Control_c, 0, 67, 105
1, 666177, Control_c, 0, 67, 124
1, 666192, Control_c, 0, 67, 127
1, 666259, Note_off_c, 0, 60, 39
1, 666280, Note_off_c, 0, 75, 37
1, 666295, Note_off_c, 0, 68, 42
1, 666426, Note_off_c, 0, 63, 34
1, 666593, Note_off_c, 0, 80, 52
1, 666628, Control_c, 0, 64, 119
1, 666643, Control_c, 0, 64, 88
1, 666648, Note_on_c, 0, 59, 39
1, 666657, Control_c, 0, 64, 72
1, 666661, Note_on_c, 0, 79, 55
1, 666663, Note_on_c, 0, 71, 41
1, 666666, Note_on_c, 0, 74, 42
1, 666671, Note_on_c, 0, 62, 43
1, 666672, Control_c, 0, 64, 59
1, 666676, Note_on_c, 0, 67, 38
1, 666687, Control_c, 0, 64, 0
1, 666754, Note_off_c, 0, 62, 57
1, 666768, Note_on_c, 0, 76, 53
1, 666774, Note_on_c, 0, 64, 49
1, 666814, Note_off_c, 0, 74, 37
1, 666834, Note_off_c, 0, 76, 63
1, 666851, Note_off_c, 0, 64, 63
1, 666858, Note_on_c, 0, 77, 63
1, 666875, Note_on_c, 0, 65, 54
1, 666943, Note_off_c, 0, 65, 59
1, 666960, Note_on_c, 0, 76, 67
1, 666978, Note_on_c, 0, 64, 52
1, 666988, Note_off_c, 0, 77, 54
1, 667013, Note_off_c, 0, 64, 63
1, 667048, Note_on_c, 0, 62, 52
1, 667049, Note_off_c, 0, 76, 62
1, 667070, Note_on_c, 0, 74, 56
1, 667153, Note_off_c, 0, 74, 61
1, 667169, Note_on_c, 0, 76, 58
1, 667195, Note_on_c, 0, 64, 31
1, 667312, Note_off_c, 0, 76, 52
1, 667326, Note_off_c, 0, 67, 0
1, 667343, Note_off_c, 0, 64, 43
1, 667350, Note_off_c, 0, 79, 49
1, 667352, Note_on_c, 0, 77, 56
1, 667358, Poly_aftertouch_c, 0, 67, 0
1, 667361, Note_on_c, 0, 65, 38
1, 667437, Note_off_c, 0, 62, 0
1, 667452, Control_c, 0, 64, 32
1, 667466, Control_c, 0, 64, 62
1, 667474, Poly_aftertouch_c, 0, 62, 127
1, 667477, Note_off_c, 0, 59, 39
1, 667481, Control_c, 0, 64, 70
1, 667496, Control_c, 0, 64, 78
1, 667506, Note_off_c, 0, 71, 36
1, 667511, Control_c, 0, 64, 86
1, 667526, Control_c, 0, 64, 89
1, 667541, Control_c, 0, 64, 94
1, 667556, Control_c, 0, 64, 99
1, 667571, Control_c, 0, 64, 106
1, 667573, Note_off_c, 0, 77, 62
1, 667586, Control_c, 0, 64, 110
1, 667601, Control_c, 0, 64, 116
1, 667615, Control_c, 0, 64, 127
1, 667684, Poly_aftertouch_c, 0, 62, 0
1, 667688, Note_off_c, 0, 65, 43
1, 667749, Control_c, 0, 64, 99
1, 667759, Note_on_c, 0, 60, 48
1, 667759, Note_on_c, 0, 79, 70
1, 667764, Control_c, 0, 64, 83
1, 667768, Note_on_c, 0, 76, 58
1, 667774, Note_on_c, 0, 72, 56
1, 667775, Note_on_c, 0, 67, 30
1, 667778, Control_c, 0, 64, 73
1, 667793, Control_c, 0, 64, 66
1, 667800, Note_off_c, 0, 76, 66
1, 667801, Note_off_c, 0, 60, 62
1, 667806, Note_off_c, 0, 72, 66
1, 667808, Control_c, 0, 64, 60
1, 667811, Note_off_c, 0, 67, 50
1, 667822, Control_c, 0, 64, 44
1, 667828, Note_off_c, 0, 79, 58
1, 667837, Control_c, 0, 64, 12
1, 667852, Control_c, 0, 64, 0
1, 667952, Note_on_c, 0, 79, 74
1, 667957, Note_on_c, 0, 53, 63
1, 667973, Note_on_c, 0, 74, 63
1, 667977, Note_on_c, 0, 69, 54
1, 668008, Note_off_c, 0, 53, 64
1, 668021, Note_off_c, 0, 79, 52
1, 668038, Note_on_c, 0, 77, 75
1, 668058, Note_off_c, 0, 74, 63
1, 668059, Note_off_c, 0, 69, 62
1, 668095, Note_off_c, 0, 77, 60
1, 668152, Note_on_c, 0, 55, 61
1, 668156, Note_on_c, 0, 77, 75
1, 668177, Note_on_c, 0, 67, 63
1, 668194, Note_on_c, 0, 72, 46
1, 668209, Note_off_c, 0, 55, 59
1, 668237, Note_on_c, 0, 76, 74
1, 668243, Note_off_c, 0, 77, 59
1, 668259, Note_off_c, 0, 67, 58
1, 668267, Note_off_c, 0, 72, 64
1, 668280, Note_off_c, 0, 76, 61
1, 668346, Note_on_c, 0, 55, 60
1, 668355, Note_on_c, 0, 76, 81
1, 668378, Note_on_c, 0, 65, 45
1, 668381, Note_off_c, 0, 55, 65
1, 668408, Note_off_c, 0, 65, 50
1, 668429, Note_on_c, 0, 74, 59
1, 668437, Note_off_c, 0, 76, 60
1, 668489, Note_off_c, 0, 74, 64
1, 668561, Note_on_c, 0, 72, 76
1, 668577, Note_on_c, 0, 48, 58
1, 668589, Note_on_c, 0, 60, 44
1, 668590, Note_on_c, 0, 64, 58
1, 668601, Control_c, 0, 64, 45
1, 668616, Control_c, 0, 64, 62
1, 668631, Control_c, 0, 64, 68
1, 668641, Note_off_c, 0, 64, 63
1, 668645, Control_c, 0, 64, 75
1, 668647, Note_off_c, 0, 72, 67
1, 668660, Control_c, 0, 64, 86
1, 668675, Control_c, 0, 64, 101
1, 668675, Control_c, 0, 67, 126
1, 668690, Control_c, 0, 64, 106
1, 668690, Control_c, 0, 67, 107
1, 668705, Control_c, 0, 64, 107
1, 668705, Control_c, 0, 67, 85
1, 668719, Control_c, 0, 67, 60
1, 668734, Control_c, 0, 67, 38
1, 668735, Note_off_c, 0, 48, 61
1, 668749, Control_c, 0, 67, 17
1, 668764, Control_c, 0, 67, 0
1, 668776, Note_off_c, 0, 60, 60
1, 668808, Control_c, 0, 64, 106
1, 668831, Control_c, 0, 64, 99
1, 668846, Control_c, 0, 64, 84
1, 668860, Control_c, 0, 64, 70
1, 668875, Control_c, 0, 64, 50
1, 668890, Control_c, 0, 64, 0
1, 668987, Note_on_c, 0, 79, 80
1, 668988, Note_on_c, 0, 64, 61
1, 669020, Note_off_c, 0, 64, 66
1, 669025, Note_off_c, 0, 79, 60
1, 669085, Note_on_c, 0, 64, 54
1, 669085, Note_on_c, 0, 79, 72
1, 669122, Note_off_c, 0, 64, 62
1, 669130, Note_off_c, 0, 79, 61
1, 669197, Note_on_c, 0, 67, 80
1, 669207, Note_on_c, 0, 52, 57
1, 669246, Control_c, 0, 64, 33
1, 669261, Control_c, 0, 64, 63
1, 669276, Control_c, 0, 64, 69
1, 669291, Control_c, 0, 64, 75
1, 669306, Control_c, 0, 64, 84
1, 669321, Control_c, 0, 64, 94
1, 669335, Control_c, 0, 64, 112
1, 669350, Control_c, 0, 64, 127
1, 669382, Note_off_c, 0, 67, 61
1, 669398, Note_off_c, 0, 52, 65
1, 669557, Control_c, 0, 64, 84
1, 669580, Control_c, 0, 64, 65
1, 669595, Control_c, 0, 64, 0
1, 669616, Note_on_c, 0, 64, 64
1, 669616, Note_on_c, 0, 79, 80
1, 669646, Note_off_c, 0, 79, 61
1, 669647, Note_off_c, 0, 64, 64
1, 669701, Note_on_c, 0, 64, 58
1, 669711, Note_on_c, 0, 79, 71
1, 669734, Note_off_c, 0, 64, 65
1, 669744, Note_off_c, 0, 79, 63
1, 669808, Note_on_c, 0, 69, 83
1, 669815, Note_on_c, 0, 53, 69
1, 669875, Control_c, 0, 64, 60
1, 669890, Control_c, 0, 64, 72
1, 669905, Control_c, 0, 64, 81
1, 669920, Control_c, 0, 64, 87
1, 669935, Control_c, 0, 64, 90
1, 669951, Control_c, 0, 64, 94
1, 669966, Control_c, 0, 64, 100
1, 669980, Control_c, 0, 64, 105
1, 669995, Control_c, 0, 64, 107
1, 669996, Note_off_c, 0, 69, 65
1, 670006, Note_on_c, 0, 73, 27
1, 670010, Control_c, 0, 64, 107
1, 670015, Note_off_c, 0, 53, 64
1, 670045, Note_off_c, 0, 73, 45
1, 670203, Control_c, 0, 64, 107
1, 670217, Control_c, 0, 64, 105
1, 670229, Note_on_c, 0, 64, 61
1, 670230, Note_on_c, 0, 79, 75
1, 670232, Control_c, 0, 64, 97
1, 670247, Control_c, 0, 64, 84
1, 670258, Note_off_c, 0, 79, 64
1, 670262, Control_c, 0, 64, 71
1, 670268, Note_off_c, 0, 64, 63
1, 670277, Control_c, 0, 64, 59
1, 670291, Control_c, 0, 64, 0
1, 670312, Note_on_c, 0, 64, 55
1, 670330, Note_on_c, 0, 79, 70
1, 670356, Note_off_c, 0, 64, 63
1, 670380, Note_off_c, 0, 79, 59
1, 670421, Note_on_c, 0, 55, 68
1, 670422, Note_on_c, 0, 71, 74
1, 670495, Note_off_c, 0, 55, 62
1, 670495, Note_off_c, 0, 71, 61
1, 670513, Note_on_c, 0, 65, 63
1, 670517, Note_on_c, 0, 79, 64
1, 670561, Note_off_c, 0, 65, 52
1, 670608, Note_on_c, 0, 72, 68
1, 670612, Note_off_c, 0, 79, 60
1, 670619, Note_on_c, 0, 57, 60
1, 670673, Note_off_c, 0, 57, 60
1, 670688, Note_off_c, 0, 72, 60
1, 670694, Note_on_c, 0, 65, 63
1, 670701, Note_on_c, 0, 79, 67
1, 670757, Note_off_c, 0, 65, 59
1, 670783, Note_off_c, 0, 79, 57
1, 670787, Note_on_c, 0, 74, 74
1, 670804, Note_on_c, 0, 59, 64
1, 670853, Note_off_c, 0, 59, 62
1, 670881, Note_on_c, 0, 79, 74
1, 670882, Note_on_c, 0, 65, 67
1, 670884, Note_off_c, 0, 74, 62
1, 670930, Note_off_c, 0, 65, 58
1, 670948, Note_off_c, 0, 79, 52
1, 670981, Note_on_c, 0, 76, 82
1, 670988, Note_on_c, 0, 60, 68
1, 671079, Note_on_c, 0, 79, 70
1, 671082, Note_on_c, 0, 64, 71
1, 671090, Note_off_c, 0, 76, 60
1, 671091, Note_off_c, 0, 60, 56
1, 671155, Note_off_c, 0, 79, 58
1, 671169, Note_on_c, 0, 74, 84
1, 671171, Note_off_c, 0, 64, 62
1, 671177, Note_on_c, 0, 59, 67
1, 671242, Note_off_c, 0, 59, 62
1, 671255, Control_c, 0, 64, 15
1, 671261, Note_on_c, 0, 80, 81
1, 671262, Note_off_c, 0, 74, 61
1, 671266, Note_on_c, 0, 64, 70
1, 671270, Control_c, 0, 64, 28
1, 671285, Control_c, 0, 64, 37
1, 671300, Control_c, 0, 64, 44
1, 671315, Control_c, 0, 64, 49
1, 671329, Control_c, 0, 64, 53
1, 671338, Note_off_c, 0, 64, 50
1, 671344, Control_c, 0, 64, 55
1, 671354, Note_on_c, 0, 72, 85
1, 671359, Control_c, 0, 64, 58
1, 671366, Note_on_c, 0, 57, 61
1, 671368, Note_on_c, 0, 55, 66
1, 671372, Note_off_c, 0, 80, 59
1, 671373, Control_c, 0, 64, 60
1, 671388, Control_c, 0, 64, 61
1, 671403, Control_c, 0, 64, 62
1, 671418, Control_c, 0, 64, 62
1, 671431, Note_off_c, 0, 55, 55
1, 671433, Control_c, 0, 64, 63
1, 671438, Note_off_c, 0, 57, 55
1, 671440, Note_off_c, 0, 72, 65
1, 671443, Note_on_c, 0, 81, 77
1, 671447, Control_c, 0, 64, 64
1, 671462, Control_c, 0, 64, 64
1, 671465, Note_on_c, 0, 64, 62
1, 671470, Note_off_c, 0, 81, 62
1, 671477, Control_c, 0, 64, 65
1, 671492, Control_c, 0, 64, 65
1, 671512, Note_off_c, 0, 64, 57
1, 671521, Control_c, 0, 64, 64
1, 671536, Control_c, 0, 64, 60
1, 671547, Note_on_c, 0, 81, 86
1, 671552, Control_c, 0, 64, 38
1, 671559, Note_on_c, 0, 53, 72
1, 671567, Control_c, 0, 64, 0
1, 671585, Note_on_c, 0, 55, 40
1, 671622, Note_off_c, 0, 55, 31
1, 671629, Note_on_c, 0, 86, 83
1, 671635, Note_off_c, 0, 53, 65
1, 671637, Note_on_c, 0, 62, 75
1, 671666, Note_off_c, 0, 81, 59
1, 671696, Note_off_c, 0, 62, 56
1, 671713, Note_on_c, 0, 55, 74
1, 671715, Control_c, 0, 64, 25
1, 671720, Note_on_c, 0, 83, 89
1, 671730, Control_c, 0, 64, 39
1, 671735, Note_off_c, 0, 86, 64
1, 671744, Control_c, 0, 64, 43
1, 671780, Note_off_c, 0, 55, 63
1, 671804, Control_c, 0, 64, 42
1, 671816, Note_on_c, 0, 88, 90
1, 671826, Control_c, 0, 64, 39
1, 671833, Note_on_c, 0, 64, 57
1, 671841, Control_c, 0, 64, 29
1, 671842, Note_off_c, 0, 83, 61
1, 671856, Control_c, 0, 64, 0
1, 671868, Note_off_c, 0, 64, 65
1, 671905, Note_off_c, 0, 88, 54
1, 671908, Note_on_c, 0, 55, 73
1, 671918, Note_on_c, 0, 83, 87
1, 672002, Note_on_c, 0, 91, 93
1, 672006, Note_off_c, 0, 55, 60
1, 672013, Note_on_c, 0, 65, 59
1, 672034, Note_off_c, 0, 83, 56
1, 672045, Note_off_c, 0, 65, 65
1, 672108, Note_on_c, 0, 84, 95
1, 672121, Note_on_c, 0, 60, 69
1, 672123, Note_on_c, 0, 64, 75
1, 672138, Control_c, 0, 64, 60
1, 672152, Control_c, 0, 64, 78
1, 672164, Note_off_c, 0, 91, 54
1, 672167, Control_c, 0, 64, 127
1, 672229, Note_off_c, 0, 84, 66
1, 672375, Control_c, 0, 64, 81
1, 672390, Control_c, 0, 64, 63
1, 672405, Control_c, 0, 64, 0
1, 672508, Note_on_c, 0, 72, 84
1, 672520, Note_off_c, 0, 64, 54
1, 672548, Note_off_c, 0, 60, 32
1, 672556, Note_off_c, 0, 72, 64
1, 672608, Note_on_c, 0, 72, 63
1, 672659, Note_off_c, 0, 72, 66
1, 672713, Note_on_c, 0, 73, 91
1, 672737, Note_on_c, 0, 70, 67
1, 672841, Control_c, 0, 64, 58
1, 672856, Control_c, 0, 64, 75
1, 672871, Control_c, 0, 64, 127
1, 672927, Note_on_c, 0, 60, 61
1, 672941, Note_off_c, 0, 70, 56
1, 673023, Note_off_c, 0, 73, 47
1, 673098, Note_on_c, 0, 68, 79
1, 673108, Note_on_c, 0, 72, 65
1, 673139, Control_c, 0, 64, 97
1, 673141, Note_off_c, 0, 72, 63
1, 673153, Note_off_c, 0, 68, 62
1, 673154, Control_c, 0, 64, 71
1, 673168, Control_c, 0, 64, 33
1, 673183, Control_c, 0, 64, 0
1, 673199, Note_on_c, 0, 72, 72
1, 673202, Note_on_c, 0, 68, 71
1, 673240, Note_off_c, 0, 68, 61
1, 673286, Note_off_c, 0, 60, 61
1, 673295, Note_on_c, 0, 70, 83
1, 673297, Note_on_c, 0, 67, 81
1, 673375, Note_off_c, 0, 72, 19
1, 673428, Control_c, 0, 64, 52
1, 673442, Control_c, 0, 64, 58
1, 673457, Control_c, 0, 64, 62
1, 673472, Control_c, 0, 64, 66
1, 673487, Control_c, 0, 64, 72
1, 673502, Control_c, 0, 64, 77
1, 673504, Note_on_c, 0, 60, 75
1, 673506, Note_off_c, 0, 67, 58
1, 673516, Control_c, 0, 64, 78
1, 673530, Note_off_c, 0, 70, 61
1, 673531, Control_c, 0, 64, 79
1, 673546, Control_c, 0, 64, 79
1, 673561, Control_c, 0, 64, 80
1, 673575, Control_c, 0, 64, 81
1, 673605, Control_c, 0, 64, 81
1, 673694, Control_c, 0, 64, 81
1, 673697, Note_on_c, 0, 65, 82
1, 673700, Note_on_c, 0, 68, 83
1, 673709, Control_c, 0, 64, 75
1, 673723, Control_c, 0, 64, 65
1, 673738, Control_c, 0, 64, 23
1, 673741, Note_off_c, 0, 65, 62
1, 673745, Note_off_c, 0, 68, 64
1, 673753, Control_c, 0, 64, 0
1, 673776, Note_on_c, 0, 68, 65
1, 673776, Note_off_c, 0, 60, 61
1, 673778, Poly_aftertouch_c, 0, 65, 0
1, 673785, Note_on_c, 0, 65, 67
1, 673814, Note_off_c, 0, 65, 65
1, 673829, Note_off_c, 0, 68, 63
1, 673871, Note_on_c, 0, 67, 90
1, 673872, Note_on_c, 0, 64, 85
1, 673890, Note_off_c, 0, 64, 73
1, 673896, Note_off_c, 0, 67, 64
1, 674096, Note_on_c, 0, 61, 72
1, 674103, Note_on_c, 0, 67, 83
1, 674104, Note_on_c, 0, 64, 76
1, 674121, Note_off_c, 0, 61, 67
1, 674122, Note_off_c, 0, 67, 71
1, 674125, Note_off_c, 0, 64, 71
1, 674305, Note_on_c, 0, 59, 66
1, 674306, Note_on_c, 0, 68, 75
1, 674308, Note_on_c, 0, 65, 67
1, 674332, Note_off_c, 0, 59, 66
1, 674334, Note_off_c, 0, 65, 66
1, 674357, Note_off_c, 0, 68, 64
1, 674502, Note_on_c, 0, 60, 70
1, 674507, Note_on_c, 0, 67, 85
1, 674513, Note_on_c, 0, 64, 68
1, 674530, Note_off_c, 0, 60, 66
1, 674695, Note_off_c, 0, 64, 63
1, 674698, Note_on_c, 0, 48, 91
1, 674708, Note_off_c, 0, 67, 64
1, 674910, Note_on_c, 0, 60, 84
1, 674954, Note_off_c, 0, 60, 63
1, 674969, Control_c, 0, 64, 10
1, 674984, Control_c, 0, 64, 19
1, 674996, Note_on_c, 0, 60, 75
1, 674999, Control_c, 0, 64, 23
1, 675014, Control_c, 0, 64, 23
1, 675029, Control_c, 0, 64, 20
1, 675044, Control_c, 0, 64, 14
1, 675045, Note_off_c, 0, 60, 63
1, 675059, Control_c, 0, 64, 0
1, 675092, Note_on_c, 0, 61, 94
1, 675101, Note_off_c, 0, 48, 59
1, 675110, Note_on_c, 0, 58, 73
1, 675251, Control_c, 0, 64, 28
1, 675266, Control_c, 0, 64, 49
1, 675281, Control_c, 0, 64, 59
1, 675295, Control_c, 0, 64, 64
1, 675298, Note_on_c, 0, 48, 76
1, 675306, Note_off_c, 0, 58, 60
1, 675310, Control_c, 0, 64, 67
1, 675325, Control_c, 0, 64, 71
1, 675339, Control_c, 0, 64, 73
1, 675428, Note_off_c, 0, 61, 58
1, 675473, Control_c, 0, 64, 72
1, 675488, Note_on_c, 0, 56, 71
1, 675488, Note_on_c, 0, 60, 67
1, 675488, Control_c, 0, 64, 70
1, 675503, Control_c, 0, 64, 66
1, 675509, Note_off_c, 0, 60, 62
1, 675517, Note_off_c, 0, 56, 64
1, 675518, Control_c, 0, 64, 61
1, 675533, Control_c, 0, 64, 40
1, 675548, Control_c, 0, 64, 0
1, 675577, Note_on_c, 0, 60, 77
1, 675592, Note_on_c, 0, 56, 61
1, 675621, Note_off_c, 0, 48, 61
1, 675626, Note_off_c, 0, 56, 61
1, 675643, Note_off_c, 0, 60, 51
1, 675686, Note_on_c, 0, 58, 72
1, 675691, Note_on_c, 0, 55, 67
1, 675822, Control_c, 0, 64, 38
1, 675837, Control_c, 0, 64, 58
1, 675852, Control_c, 0, 64, 65
1, 675867, Control_c, 0, 64, 68
1, 675875, Note_off_c, 0, 55, 62
1, 675882, Control_c, 0, 64, 69
1, 675885, Note_on_c, 0, 48, 79
1, 675896, Control_c, 0, 64, 70
1, 675897, Note_off_c, 0, 58, 62
1, 675911, Control_c, 0, 64, 71
1, 675926, Control_c, 0, 64, 71
1, 675941, Control_c, 0, 64, 72
1, 676080, Note_on_c, 0, 53, 78
1, 676081, Note_on_c, 0, 56, 77
1, 676104, Control_c, 0, 64, 69
1, 676107, Note_off_c, 0, 56, 67
1, 676110, Note_off_c, 0, 53, 68
1, 676118, Control_c, 0, 64, 63
1, 676133, Control_c, 0, 64, 34
1, 676148, Control_c, 0, 64, 0
1, 676167, Note_off_c, 0, 48, 59
1, 676168, Note_on_c, 0, 56, 65
1, 676180, Note_on_c, 0, 53, 59
1, 676202, Note_off_c, 0, 56, 60
1, 676205, Note_off_c, 0, 53, 66
1, 676254, Note_on_c, 0, 55, 78
1, 676257, Note_on_c, 0, 52, 74
1, 676281, Note_off_c, 0, 52, 69
1, 676282, Note_off_c, 0, 55, 67
1, 676489, Note_on_c, 0, 52, 68
1, 676495, Note_on_c, 0, 49, 58
1, 676495, Note_on_c, 0, 55, 67
1, 676519, Note_off_c, 0, 52, 68
1, 676522, Note_off_c, 0, 55, 68
1, 676527, Note_off_c, 0, 49, 63
1, 676714, Note_on_c, 0, 56, 61
1, 676716, Note_on_c, 0, 47, 65
1, 676718, Note_on_c, 0, 53, 66
1, 676739, Note_off_c, 0, 47, 65
1, 676746, Note_off_c, 0, 56, 63
1, 676749, Note_off_c, 0, 53, 66
1, 676946, Note_on_c, 0, 55, 65
1, 676948, Note_on_c, 0, 48, 68
1, 676955, Note_on_c, 0, 52, 57
1, 676983, Note_off_c, 0, 48, 63
1, 677159, Note_on_c, 0, 36, 76
1, 677169, Note_off_c, 0, 52, 66
1, 677193, Note_off_c, 0, 36, 68
1, 677209, Note_off_c, 0, 55, 62
1, 677366, Note_on_c, 0, 48, 75
1, 677366, Note_on_c, 0, 60, 72
1, 677390, Note_off_c, 0, 60, 68
1, 677393, Note_off_c, 0, 48, 66
1, 677444, Note_on_c, 0, 60, 86
1, 677447, Note_on_c, 0, 48, 87
1, 677485, Note_off_c, 0, 60, 63
1, 677493, Note_off_c, 0, 48, 60
1, 677569, Note_on_c, 0, 61, 97
1, 677571, Note_on_c, 0, 49, 83
1, 677602, Control_c, 0, 64, 66
1, 677616, Control_c, 0, 64, 127
1, 677665, Poly_aftertouch_c, 0, 55, 127
1, 677704, Poly_aftertouch_c, 0, 55, 0
1, 677709, Note_off_c, 0, 49, 60
1, 677727, Note_off_c, 0, 61, 59
1, 677833, Note_on_c, 0, 63, 96
1, 677833, Note_on_c, 0, 67, 82
1, 677833, Note_on_c, 0, 75, 95
1, 677837, Note_on_c, 0, 70, 74
1, 677903, Note_on_c, 0, 71, 28
1, 678034, Note_on_c, 0, 48, 79
1, 678035, Note_on_c, 0, 60, 79
1, 678058, Note_off_c, 0, 60, 66
1, 678059, Note_off_c, 0, 70, 57
1, 678061, Note_off_c, 0, 63, 55
1, 678064, Note_off_c, 0, 48, 63
1, 678070, Control_c, 0, 64, 77
1, 678071, Note_off_c, 0, 71, 37
1, 678072, Note_off_c, 0, 67, 47
1, 678084, Control_c, 0, 64, 0
1, 678117, Note_on_c, 0, 48, 80
1, 678119, Note_on_c, 0, 60, 85
1, 678127, Note_off_c, 0, 75, 55
1, 678155, Note_on_c, 0, 55, 33
1, 678158, Note_off_c, 0, 48, 61
1, 678161, Note_off_c, 0, 60, 59
1, 678192, Note_off_c, 0, 55, 31
1, 678222, Note_on_c, 0, 61, 97
1, 678225, Note_on_c, 0, 49, 83
1, 678438, Control_c, 0, 64, 52
1, 678442, Note_on_c, 0, 63, 87
1, 678442, Note_on_c, 0, 75, 90
1, 678443, Note_on_c, 0, 67, 77
1, 678448, Note_on_c, 0, 70, 78
1, 678453, Control_c, 0, 64, 87
1, 678468, Control_c, 0, 64, 127
1, 678489, Note_off_c, 0, 49, 59
1, 678495, Note_off_c, 0, 61, 57
1, 678641, Note_on_c, 0, 48, 82
1, 678643, Note_on_c, 0, 60, 81
1, 678670, Note_off_c, 0, 60, 63
1, 678675, Note_off_c, 0, 48, 62
1, 678678, Note_off_c, 0, 63, 47
1, 678683, Note_off_c, 0, 75, 62
1, 678683, Note_off_c, 0, 70, 47
1, 678709, Note_off_c, 0, 67, 37
1, 678726, Note_on_c, 0, 48, 79
1, 678734, Note_on_c, 0, 60, 84
1, 678754, Note_off_c, 0, 60, 67
1, 678763, Note_off_c, 0, 48, 58
1, 678817, Note_on_c, 0, 61, 101
1, 678821, Note_on_c, 0, 49, 91
1, 678832, Control_c, 0, 64, 82
1, 678847, Control_c, 0, 64, 53
1, 678858, Note_off_c, 0, 61, 63
1, 678861, Control_c, 0, 64, 0
1, 678866, Note_off_c, 0, 49, 59
1, 679003, Note_on_c, 0, 58, 75
1, 679004, Note_on_c, 0, 46, 77
1, 679010, Note_on_c, 0, 75, 73
1, 679014, Note_on_c, 0, 63, 73
1, 679019, Note_on_c, 0, 67, 61
1, 679023, Note_on_c, 0, 70, 62
1, 679028, Note_off_c, 0, 58, 66
1, 679035, Note_off_c, 0, 46, 63
1, 679061, Note_off_c, 0, 70, 56
1, 679062, Note_off_c, 0, 67, 51
1, 679069, Note_off_c, 0, 63, 55
1, 679080, Note_off_c, 0, 75, 59
1, 679190, Note_on_c, 0, 43, 80
1, 679196, Note_on_c, 0, 55, 76
1, 679197, Note_on_c, 0, 63, 84
1, 679198, Note_on_c, 0, 75, 79
1, 679204, Note_on_c, 0, 70, 67
1, 679207, Note_on_c, 0, 67, 67
1, 679226, Note_off_c, 0, 55, 65
1, 679244, Note_off_c, 0, 43, 61
1, 679268, Note_off_c, 0, 67, 46
1, 679274, Note_off_c, 0, 63, 58
1, 679289, Note_off_c, 0, 70, 52
1, 679291, Note_off_c, 0, 75, 60
1, 679389, Note_on_c, 0, 51, 93
1, 679391, Note_on_c, 0, 63, 90
1, 679393, Note_on_c, 0, 39, 84
1, 679396, Note_on_c, 0, 75, 90
1, 679398, Note_on_c, 0, 67, 77
1, 679404, Note_on_c, 0, 70, 75
1, 679429, Note_off_c, 0, 67, 61
1, 679437, Note_on_c, 0, 76, 48
1, 679438, Note_off_c, 0, 63, 65
1, 679441, Note_off_c, 0, 51, 59
1, 679444, Note_off_c, 0, 70, 53
1, 679455, Note_off_c, 0, 39, 60
1, 679460, Note_off_c, 0, 76, 58
1, 679469, Note_off_c, 0, 75, 65
1, 679582, Note_on_c, 0, 79, 93
1, 679589, Note_on_c, 0, 49, 98
1, 679593, Note_on_c, 0, 37, 94
1, 679600, Note_on_c, 0, 71, 79
1, 679620, Note_off_c, 0, 71, 71
1, 679640, Note_off_c, 0, 37, 63
1, 679641, Note_off_c, 0, 49, 60
1, 679643, Note_off_c, 0, 79, 62
1, 679773, Note_on_c, 0, 75, 96
1, 679775, Note_on_c, 0, 82, 97
1, 679777, Note_on_c, 0, 46, 99
1, 679781, Note_on_c, 0, 34, 91
1, 679822, Note_off_c, 0, 46, 64
1, 679830, Note_off_c, 0, 34, 63
1, 679852, Note_off_c, 0, 75, 48
1, 679867, Note_off_c, 0, 82, 59
1, 679950, Control_c, 0, 64, 12
1, 679965, Control_c, 0, 64, 0
1, 679991, Note_on_c, 0, 85, 96
1, 679993, Note_on_c, 0, 75, 104
1, 679995, Note_on_c, 0, 43, 99
1, 679998, Note_on_c, 0, 31, 89
1, 679998, Note_on_c, 0, 82, 81
1, 680031, Note_on_c, 0, 78, 31
1, 680072, Note_off_c, 0, 78, 33
1, 680077, Control_c, 0, 64, 24
1, 680091, Control_c, 0, 64, 58
1, 680106, Control_c, 0, 64, 59
1, 680121, Control_c, 0, 64, 56
1, 680135, Control_c, 0, 64, 51
1, 680150, Control_c, 0, 64, 41
1, 680165, Control_c, 0, 64, 0
1, 680184, Note_off_c, 0, 31, 64
1, 680222, Note_off_c, 0, 85, 58
1, 680231, Note_off_c, 0, 43, 58
1, 680252, Note_off_c, 0, 75, 58
1, 680254, Note_off_c, 0, 82, 60
1, 680855, Control_c, 0, 67, 10
1, 680870, Control_c, 0, 67, 33
1, 680884, Control_c, 0, 67, 62
1, 680899, Control_c, 0, 67, 89
1, 680914, Control_c, 0, 67, 114
1, 680929, Control_c, 0, 67, 127
1, 681369, Note_on_c, 0, 63, 58
1, 681400, Note_off_c, 0, 63, 57
1, 681459, Note_on_c, 0, 63, 52
1, 681618, Note_on_c, 0, 72, 63
1, 681640, Note_on_c, 0, 68, 56
1, 681867, Note_on_c, 0, 44, 49
1, 681915, Note_off_c, 0, 68, 36
1, 681921, Note_off_c, 0, 44, 0
1, 681959, Poly_aftertouch_c, 0, 44, 127
1, 681989, Poly_aftertouch_c, 0, 44, 0
1, 682055, Note_on_c, 0, 70, 66
1, 682057, Note_on_c, 0, 51, 48
1, 682057, Note_off_c, 0, 72, 61
1, 682067, Note_on_c, 0, 67, 49
1, 682109, Note_off_c, 0, 51, 58
1, 682115, Note_off_c, 0, 63, 38
1, 682174, Note_off_c, 0, 67, 60
1, 682180, Note_off_c, 0, 70, 59
1, 682303, Note_on_c, 0, 72, 72
1, 682326, Note_on_c, 0, 63, 50
1, 682332, Note_on_c, 0, 68, 51
1, 682517, Note_on_c, 0, 44, 56
1, 682525, Note_off_c, 0, 68, 55
1, 682551, Note_off_c, 0, 44, 64
1, 682604, Note_on_c, 0, 44, 57
1, 682651, Note_off_c, 0, 44, 62
1, 682653, Note_off_c, 0, 72, 62
1, 682687, Note_on_c, 0, 70, 61
1, 682693, Control_c, 0, 67, 111
1, 682699, Note_on_c, 0, 51, 56
1, 682707, Note_on_c, 0, 67, 50
1, 682708, Control_c, 0, 67, 79
1, 682724, Control_c, 0, 67, 48
1, 682739, Control_c, 0, 67, 24
1, 682751, Note_off_c, 0, 63, 59
1, 682753, Control_c, 0, 67, 10
1, 682768, Control_c, 0, 67, 0
1, 682782, Note_off_c, 0, 67, 57
1, 682800, Note_off_c, 0, 70, 61
1, 682848, Note_off_c, 0, 51, 23
1, 682894, Note_on_c, 0, 46, 56
1, 682899, Note_on_c, 0, 73, 63
1, 682918, Note_on_c, 0, 70, 46
1, 682922, Note_on_c, 0, 65, 28
1, 682925, Note_off_c, 0, 46, 64
1, 682930, Note_off_c, 0, 73, 64
1, 682943, Note_off_c, 0, 70, 58
1, 682960, Note_off_c, 0, 65, 51
1, 683119, Note_on_c, 0, 73, 65
1, 683123, Note_on_c, 0, 49, 50
1, 683137, Note_on_c, 0, 70, 48
1, 683141, Note_on_c, 0, 65, 37
1, 683151, Note_off_c, 0, 49, 54
1, 683153, Note_off_c, 0, 73, 60
1, 683161, Note_off_c, 0, 70, 62
1, 683171, Note_off_c, 0, 65, 53
1, 683325, Note_on_c, 0, 72, 65
1, 683337, Note_on_c, 0, 69, 55
1, 683348, Note_on_c, 0, 65, 35
1, 683349, Note_on_c, 0, 53, 53
1, 683365, Note_off_c, 0, 69, 67
1, 683376, Note_off_c, 0, 72, 63
1, 683383, Note_off_c, 0, 65, 51
1, 683384, Note_off_c, 0, 53, 66
1, 683581, Note_on_c, 0, 73, 80
1, 683590, Note_on_c, 0, 70, 62
1, 683600, Note_on_c, 0, 65, 60
1, 683680, Control_c, 0, 64, 50
1, 683694, Control_c, 0, 64, 60
1, 683709, Control_c, 0, 64, 60
1, 683724, Control_c, 0, 64, 60
1, 683739, Control_c, 0, 64, 59
1, 683754, Control_c, 0, 64, 58
1, 683769, Control_c, 0, 64, 55
1, 683784, Control_c, 0, 64, 45
1, 683787, Note_on_c, 0, 46, 59
1, 683806, Control_c, 0, 64, 22
1, 683821, Control_c, 0, 64, 0
1, 683846, Note_off_c, 0, 46, 58
1, 683866, Note_off_c, 0, 70, 39
1, 683880, Note_on_c, 0, 46, 54
1, 683947, Note_off_c, 0, 46, 63
1, 683977, Note_on_c, 0, 72, 67
1, 683982, Note_off_c, 0, 73, 55
1, 683985, Note_off_c, 0, 65, 61
1, 683992, Note_on_c, 0, 69, 54
1, 683993, Note_on_c, 0, 53, 67
1, 684043, Control_c, 0, 64, 38
1, 684051, Note_off_c, 0, 69, 64
1, 684052, Note_off_c, 0, 53, 64
1, 684058, Control_c, 0, 64, 46
1, 684070, Note_off_c, 0, 72, 63
1, 684073, Control_c, 0, 64, 47
1, 684102, Control_c, 0, 64, 46
1, 684117, Control_c, 0, 64, 45
1, 684132, Control_c, 0, 64, 44
1, 684147, Control_c, 0, 64, 41
1, 684162, Control_c, 0, 64, 38
1, 684176, Control_c, 0, 64, 34
1, 684191, Control_c, 0, 64, 26
1, 684206, Control_c, 0, 64, 12
1, 684221, Control_c, 0, 64, 0
1, 684243, Note_on_c, 0, 77, 88
1, 684264, Note_on_c, 0, 73, 60
1, 684275, Note_on_c, 0, 68, 50
1, 684462, Note_on_c, 0, 49, 57
1, 684493, Note_off_c, 0, 49, 63
1, 684559, Note_on_c, 0, 49, 73
1, 684585, Note_off_c, 0, 73, 61
1, 684595, Note_off_c, 0, 49, 63
1, 684598, Note_off_c, 0, 68, 36
1, 684619, Note_off_c, 0, 77, 60
1, 684635, Note_on_c, 0, 75, 73
1, 684636, Note_on_c, 0, 56, 70
1, 684639, Note_on_c, 0, 72, 65
1, 684666, Note_off_c, 0, 56, 62
1, 684714, Note_off_c, 0, 72, 64
1, 684748, Note_off_c, 0, 75, 63
1, 684860, Note_on_c, 0, 77, 91
1, 684876, Note_on_c, 0, 73, 71
1, 684877, Note_on_c, 0, 68, 74
1, 684956, Control_c, 0, 64, 20
1, 684971, Control_c, 0, 64, 37
1, 684986, Control_c, 0, 64, 46
1, 685000, Control_c, 0, 64, 49
1, 685015, Control_c, 0, 64, 50
1, 685030, Control_c, 0, 64, 50
1, 685045, Control_c, 0, 64, 52
1, 685060, Control_c, 0, 64, 54
1, 685069, Note_on_c, 0, 49, 48
1, 685075, Control_c, 0, 64, 55
1, 685090, Control_c, 0, 64, 56
1, 685098, Note_off_c, 0, 49, 51
1, 685104, Control_c, 0, 64, 57
1, 685144, Note_on_c, 0, 49, 68
1, 685149, Control_c, 0, 64, 56
1, 685162, Note_off_c, 0, 73, 39
1, 685164, Control_c, 0, 64, 56
1, 685184, Note_off_c, 0, 49, 61
1, 685209, Control_c, 0, 64, 55
1, 685224, Note_off_c, 0, 68, 51
1, 685233, Note_off_c, 0, 77, 50
1, 685236, Note_on_c, 0, 56, 76
1, 685238, Control_c, 0, 64, 55
1, 685243, Note_on_c, 0, 75, 75
1, 685252, Note_on_c, 0, 72, 62
1, 685253, Control_c, 0, 64, 54
1, 685261, Note_off_c, 0, 56, 68
1, 685267, Control_c, 0, 64, 53
1, 685280, Note_off_c, 0, 72, 67
1, 685282, Control_c, 0, 64, 51
1, 685304, Control_c, 0, 64, 48
1, 685319, Control_c, 0, 64, 47
1, 685331, Note_off_c, 0, 75, 62
1, 685334, Control_c, 0, 64, 46
1, 685349, Control_c, 0, 64, 45
1, 685364, Control_c, 0, 64, 44
1, 685379, Control_c, 0, 64, 41
1, 685394, Control_c, 0, 64, 38
1, 685408, Control_c, 0, 64, 34
1, 685423, Control_c, 0, 64, 26
1, 685438, Control_c, 0, 64, 10
1, 685453, Control_c, 0, 64, 0
1, 685456, Note_on_c, 0, 68, 79
1, 685456, Note_on_c, 0, 77, 74
1, 685464, Note_on_c, 0, 73, 59
1, 685477, Note_off_c, 0, 68, 70
1, 685492, Note_off_c, 0, 73, 65
1, 685498, Note_off_c, 0, 77, 60
1, 685662, Note_on_c, 0, 77, 83
1, 685669, Note_on_c, 0, 49, 61
1, 685669, Note_on_c, 0, 68, 75
1, 685691, Note_off_c, 0, 49, 60
1, 685693, Note_off_c, 0, 68, 66
1, 685710, Note_off_c, 0, 77, 62
1, 685869, Note_on_c, 0, 63, 80
1, 685873, Note_on_c, 0, 70, 81
1, 685876, Note_on_c, 0, 79, 75
1, 685883, Note_on_c, 0, 75, 68
1, 685899, Note_off_c, 0, 63, 62
1, 685901, Note_off_c, 0, 70, 63
1, 685912, Note_off_c, 0, 75, 66
1, 685927, Note_off_c, 0, 79, 61
1, 686068, Control_c, 0, 64, 31
1, 686083, Control_c, 0, 64, 43
1, 686097, Control_c, 0, 64, 53
1, 686112, Control_c, 0, 64, 60
1, 686127, Control_c, 0, 64, 64
1, 686142, Control_c, 0, 64, 67
1, 686143, Note_on_c, 0, 80, 94
1, 686150, Note_on_c, 0, 68, 86
1, 686157, Note_on_c, 0, 75, 70
1, 686157, Control_c, 0, 64, 71
1, 686172, Control_c, 0, 64, 78
1, 686187, Control_c, 0, 64, 89
1, 686201, Control_c, 0, 64, 101
1, 686216, Control_c, 0, 64, 127
1, 686362, Note_on_c, 0, 60, 82
1, 686368, Note_on_c, 0, 63, 68
1, 686392, Note_off_c, 0, 63, 67
1, 686405, Note_off_c, 0, 60, 59
1, 686416, Note_off_c, 0, 68, 59
1, 686442, Note_on_c, 0, 60, 77
1, 686452, Note_on_c, 0, 63, 82
1, 686468, Control_c, 0, 64, 81
1, 686476, Note_off_c, 0, 63, 68
1, 686483, Control_c, 0, 64, 63
1, 686491, Note_off_c, 0, 60, 63
1, 686497, Control_c, 0, 64, 0
1, 686537, Note_on_c, 0, 61, 88
1, 686538, Note_on_c, 0, 63, 82
1, 686541, Note_on_c, 0, 79, 78
1, 686544, Note_on_c, 0, 70, 78
1, 686570, Note_off_c, 0, 80, 52
1, 686619, Note_off_c, 0, 70, 57
1, 686649, Note_off_c, 0, 75, 60
1, 686660, Note_off_c, 0, 79, 48
1, 686762, Note_on_c, 0, 80, 94
1, 686767, Note_on_c, 0, 68, 87
1, 686768, Note_on_c, 0, 75, 79
1, 686833, Note_off_c, 0, 63, 59
1, 686841, Note_off_c, 0, 61, 60
1, 686862, Control_c, 0, 64, 34
1, 686876, Control_c, 0, 64, 55
1, 686891, Control_c, 0, 64, 63
1, 686906, Control_c, 0, 64, 65
1, 686921, Control_c, 0, 64, 68
1, 686935, Control_c, 0, 64, 71
1, 686950, Control_c, 0, 64, 74
1, 686965, Control_c, 0, 64, 77
1, 686969, Note_on_c, 0, 63, 78
1, 686970, Note_on_c, 0, 60, 79
1, 686980, Control_c, 0, 64, 79
1, 686987, Note_off_c, 0, 68, 60
1, 686994, Note_off_c, 0, 60, 65
1, 686994, Control_c, 0, 64, 81
1, 686995, Note_off_c, 0, 63, 65
1, 687009, Control_c, 0, 64, 83
1, 687024, Control_c, 0, 64, 83
1, 687039, Control_c, 0, 64, 84
1, 687046, Note_on_c, 0, 60, 81
1, 687054, Control_c, 0, 64, 85
1, 687056, Note_on_c, 0, 63, 67
1, 687069, Control_c, 0, 64, 85
1, 687075, Note_off_c, 0, 63, 65
1, 687084, Control_c, 0, 64, 86
1, 687094, Note_off_c, 0, 60, 62
1, 687099, Control_c, 0, 64, 87
1, 687134, Note_on_c, 0, 63, 90
1, 687137, Note_on_c, 0, 61, 85
1, 687137, Note_on_c, 0, 70, 85
1, 687137, Note_on_c, 0, 79, 79
1, 687143, Control_c, 0, 64, 80
1, 687158, Control_c, 0, 64, 68
1, 687168, Note_off_c, 0, 80, 53
1, 687173, Control_c, 0, 64, 44
1, 687188, Control_c, 0, 64, 0
1, 687195, Note_off_c, 0, 70, 59
1, 687196, Note_off_c, 0, 75, 57
1, 687226, Note_off_c, 0, 79, 56
1, 687338, Note_off_c, 0, 63, 61
1, 687341, Note_on_c, 0, 68, 82
1, 687342, Note_on_c, 0, 80, 80
1, 687346, Note_on_c, 0, 75, 72
1, 687347, Note_off_c, 0, 61, 62
1, 687390, Note_off_c, 0, 75, 58
1, 687395, Note_off_c, 0, 68, 61
1, 687423, Note_off_c, 0, 80, 54
1, 687534, Note_on_c, 0, 80, 79
1, 687535, Note_on_c, 0, 60, 62
1, 687543, Note_on_c, 0, 63, 74
1, 687546, Note_on_c, 0, 68, 80
1, 687553, Note_on_c, 0, 75, 64
1, 687605, Note_off_c, 0, 60, 61
1, 687609, Note_off_c, 0, 68, 57
1, 687622, Note_off_c, 0, 63, 58
1, 687626, Note_off_c, 0, 75, 59
1, 687640, Note_off_c, 0, 80, 60
1, 687736, Note_on_c, 0, 82, 84
1, 687737, Note_on_c, 0, 70, 87
1, 687740, Note_on_c, 0, 63, 74
1, 687740, Note_on_c, 0, 58, 71
1, 687762, Note_on_c, 0, 75, 46
1, 687792, Note_off_c, 0, 75, 57
1, 687829, Note_off_c, 0, 63, 61
1, 687831, Note_off_c, 0, 58, 61
1, 687833, Note_off_c, 0, 70, 61
1, 687862, Note_off_c, 0, 82, 59
1, 687930, Note_on_c, 0, 84, 93
1, 687930, Note_on_c, 0, 56, 76
1, 687934, Note_on_c, 0, 72, 89
1, 687937, Note_on_c, 0, 63, 74
1, 687942, Note_on_c, 0, 75, 75
1, 688002, Note_off_c, 0, 56, 62
1, 688013, Note_off_c, 0, 63, 63
1, 688014, Note_off_c, 0, 84, 63
1, 688014, Note_off_c, 0, 72, 60
1, 688026, Note_off_c, 0, 75, 65
1, 688040, Control_c, 0, 64, 14
1, 688055, Control_c, 0, 64, 27
1, 688069, Control_c, 0, 64, 32
1, 688084, Control_c, 0, 64, 26
1, 688100, Control_c, 0, 64, 0
1, 688130, Note_on_c, 0, 61, 80
1, 688131, Note_on_c, 0, 85, 91
1, 688132, Note_on_c, 0, 53, 69
1, 688133, Note_on_c, 0, 73, 94
1, 688139, Note_on_c, 0, 56, 66
1, 688143, Note_on_c, 0, 80, 75
1, 688204, Control_c, 0, 64, 50
1, 688212, Note_off_c, 0, 53, 65
1, 688218, Control_c, 0, 64, 60
1, 688233, Control_c, 0, 64, 61
1, 688237, Note_off_c, 0, 61, 59
1, 688243, Note_off_c, 0, 73, 61
1, 688245, Note_off_c, 0, 56, 62
1, 688248, Note_off_c, 0, 80, 60
1, 688263, Note_off_c, 0, 85, 62
1, 688277, Control_c, 0, 64, 61
1, 688300, Control_c, 0, 64, 60
1, 688315, Control_c, 0, 64, 48
1, 688330, Control_c, 0, 64, 0
1, 688341, Note_on_c, 0, 60, 90
1, 688347, Note_on_c, 0, 75, 100
1, 688347, Note_on_c, 0, 87, 95
1, 688350, Note_on_c, 0, 51, 73
1, 688356, Note_on_c, 0, 56, 67
1, 688374, Note_on_c, 0, 85, 60
1, 688395, Note_off_c, 0, 85, 62
1, 688434, Control_c, 0, 64, 28
1, 688449, Control_c, 0, 64, 47
1, 688458, Note_off_c, 0, 51, 53
1, 688464, Control_c, 0, 64, 51
1, 688468, Note_off_c, 0, 75, 62
1, 688479, Control_c, 0, 64, 52
1, 688482, Note_off_c, 0, 60, 59
1, 688491, Note_off_c, 0, 56, 61
1, 688493, Control_c, 0, 64, 54
1, 688508, Control_c, 0, 64, 56
1, 688517, Note_off_c, 0, 87, 60
1, 688523, Control_c, 0, 64, 58
1, 688538, Control_c, 0, 64, 59
1, 688567, Control_c, 0, 64, 56
1, 688582, Control_c, 0, 64, 28
1, 688588, Note_on_c, 0, 89, 101
1, 688591, Note_on_c, 0, 59, 88
1, 688592, Note_on_c, 0, 77, 98
1, 688592, Note_on_c, 0, 80, 94
1, 688597, Control_c, 0, 64, 0
1, 688598, Note_on_c, 0, 56, 74
1, 688600, Note_on_c, 0, 50, 73
1, 688686, Control_c, 0, 64, 50
1, 688700, Control_c, 0, 64, 63
1, 688714, Note_off_c, 0, 89, 61
1, 688715, Control_c, 0, 64, 64
1, 688745, Control_c, 0, 64, 65
1, 688750, Note_off_c, 0, 77, 56
1, 688760, Control_c, 0, 64, 65
1, 688774, Control_c, 0, 64, 66
1, 688789, Control_c, 0, 64, 66
1, 688800, Note_off_c, 0, 80, 64
1, 688848, Control_c, 0, 64, 66
1, 688863, Control_c, 0, 64, 65
1, 688878, Control_c, 0, 64, 65
1, 688893, Control_c, 0, 64, 63
1, 688908, Control_c, 0, 64, 62
1, 688923, Control_c, 0, 64, 59
1, 688938, Control_c, 0, 64, 55
1, 688953, Control_c, 0, 64, 48
1, 688967, Control_c, 0, 64, 39
1, 688982, Control_c, 0, 64, 24
1, 688997, Control_c, 0, 64, 0
1, 689119, Note_on_c, 0, 68, 85
1, 689165, Note_off_c, 0, 68, 64
1, 689202, Poly_aftertouch_c, 0, 68, 0
1, 689209, Note_on_c, 0, 68, 75
1, 689296, Note_off_c, 0, 68, 52
1, 689313, Note_on_c, 0, 71, 82
1, 689744, Note_off_c, 0, 50, 50
1, 689812, Note_off_c, 0, 59, 40
1, 689862, Note_off_c, 0, 56, 54
1, 689871, Control_c, 0, 67, 10
1, 689886, Control_c, 0, 67, 16
1, 689901, Control_c, 0, 67, 21
1, 689916, Control_c, 0, 67, 26
1, 689931, Control_c, 0, 67, 32
1, 689945, Control_c, 0, 67, 39
1, 689960, Control_c, 0, 67, 47
1, 689975, Control_c, 0, 67, 56
1, 689990, Control_c, 0, 67, 65
1, 690005, Control_c, 0, 67, 73
1, 690020, Control_c, 0, 67, 83
1, 690035, Control_c, 0, 67, 94
1, 690050, Control_c, 0, 67, 106
1, 690064, Control_c, 0, 67, 118
1, 690079, Control_c, 0, 67, 127
1, 690726, Note_off_c, 0, 71, 59
1, 690976, Control_c, 0, 64, 42
1, 690991, Control_c, 0, 64, 57
1, 691006, Control_c, 0, 64, 62
1, 691020, Control_c, 0, 64, 63
1, 691050, Control_c, 0, 64, 64
1, 691163, Note_on_c, 0, 51, 49
1, 691188, Note_off_c, 0, 51, 56
1, 691199, Control_c, 0, 64, 63
1, 691228, Control_c, 0, 64, 63
1, 691258, Note_on_c, 0, 51, 65
1, 691258, Control_c, 0, 64, 62
1, 691273, Control_c, 0, 64, 60
1, 691284, Note_off_c, 0, 51, 65
1, 691295, Control_c, 0, 64, 57
1, 691310, Control_c, 0, 64, 47
1, 691325, Control_c, 0, 64, 0
1, 691385, Note_on_c, 0, 56, 57
1, 691391, Note_on_c, 0, 59, 64
1, 691487, Control_c, 0, 64, 32
1, 691502, Control_c, 0, 64, 55
1, 691518, Control_c, 0, 64, 62
1, 691533, Control_c, 0, 64, 63
1, 691548, Control_c, 0, 64, 64
1, 691578, Control_c, 0, 64, 64
1, 691592, Control_c, 0, 64, 65
1, 691607, Control_c, 0, 64, 66
1, 691622, Note_off_c, 0, 56, 58
1, 691622, Control_c, 0, 64, 66
1, 691698, Note_on_c, 0, 63, 45
1, 691725, Note_off_c, 0, 63, 56
1, 691740, Control_c, 0, 64, 66
1, 691760, Note_off_c, 0, 59, 57
1, 691770, Control_c, 0, 64, 65
1, 691778, Note_on_c, 0, 63, 52
1, 691785, Control_c, 0, 64, 65
1, 691814, Control_c, 0, 64, 64
1, 691829, Control_c, 0, 64, 64
1, 691842, Control_c, 0, 64, 62
1, 691854, Note_on_c, 0, 58, 42
1, 691857, Control_c, 0, 64, 59
1, 691864, Note_on_c, 0, 75, 65
1, 691868, Note_on_c, 0, 55, 49
1, 691872, Control_c, 0, 64, 45
1, 691887, Control_c, 0, 64, 0
1, 691961, Control_c, 0, 64, 14
1, 691976, Control_c, 0, 64, 48
1, 691990, Control_c, 0, 64, 59
1, 692005, Control_c, 0, 64, 62
1, 692008, Note_off_c, 0, 55, 57
1, 692020, Note_off_c, 0, 58, 49
1, 692072, Control_c, 0, 64, 61
1, 692087, Control_c, 0, 64, 58
1, 692102, Control_c, 0, 64, 50
1, 692116, Control_c, 0, 64, 19
1, 692121, Note_on_c, 0, 59, 72
1, 692131, Control_c, 0, 64, 0
1, 692142, Note_off_c, 0, 63, 37
1, 692155, Note_on_c, 0, 56, 51
1, 692164, Note_off_c, 0, 75, 59
1, 692176, Control_c, 0, 64, 15
1, 692190, Control_c, 0, 64, 42
1, 692205, Control_c, 0, 64, 56
1, 692220, Control_c, 0, 64, 62
1, 692235, Control_c, 0, 64, 63
1, 692279, Control_c, 0, 64, 64
1, 692294, Control_c, 0, 64, 64
1, 692310, Control_c, 0, 64, 65
1, 692325, Control_c, 0, 64, 66
1, 692335, Note_on_c, 0, 63, 52
1, 692339, Control_c, 0, 64, 66
1, 692369, Control_c, 0, 64, 67
1, 692406, Note_off_c, 0, 56, 53
1, 692421, Note_off_c, 0, 59, 59
1, 692503, Control_c, 0, 64, 66
1, 692518, Note_on_c, 0, 75, 57
1, 692518, Control_c, 0, 64, 63
1, 692532, Note_on_c, 0, 58, 43
1, 692533, Control_c, 0, 64, 56
1, 692544, Note_on_c, 0, 55, 37
1, 692547, Control_c, 0, 64, 12
1, 692562, Control_c, 0, 64, 0
1, 692606, Control_c, 0, 64, 41
1, 692621, Control_c, 0, 64, 57
1, 692636, Control_c, 0, 64, 63
1, 692651, Control_c, 0, 64, 66
1, 692665, Control_c, 0, 64, 68
1, 692676, Note_off_c, 0, 55, 55
1, 692680, Control_c, 0, 64, 68
1, 692693, Note_off_c, 0, 75, 60
1, 692694, Note_off_c, 0, 63, 60
1, 692710, Control_c, 0, 64, 67
1, 692725, Control_c, 0, 64, 64
1, 692733, Note_off_c, 0, 58, 37
1, 692739, Control_c, 0, 64, 62
1, 692742, Note_on_c, 0, 59, 55
1, 692744, Note_on_c, 0, 56, 52
1, 692754, Control_c, 0, 64, 61
1, 692791, Control_c, 0, 64, 62
1, 692806, Control_c, 0, 64, 64
1, 692821, Note_off_c, 0, 59, 57
1, 692821, Control_c, 0, 64, 66
1, 692834, Note_off_c, 0, 56, 60
1, 692836, Control_c, 0, 64, 69
1, 692851, Control_c, 0, 64, 71
1, 692865, Control_c, 0, 64, 71
1, 692880, Control_c, 0, 64, 72
1, 692910, Control_c, 0, 67, 115
1, 692925, Control_c, 0, 67, 101
1, 692936, Note_on_c, 0, 59, 59
1, 692939, Control_c, 0, 67, 84
1, 692941, Note_on_c, 0, 75, 56
1, 692949, Note_on_c, 0, 63, 40
1, 692954, Control_c, 0, 67, 67
1, 692956, Note_on_c, 0, 56, 49
1, 692969, Control_c, 0, 67, 52
1, 692983, Control_c, 0, 67, 43
1, 692986, Note_off_c, 0, 56, 64
1, 692988, Note_off_c, 0, 63, 57
1, 692992, Note_off_c, 0, 59, 53
1, 692998, Control_c, 0, 67, 37
1, 693009, Note_off_c, 0, 75, 63
1, 693013, Control_c, 0, 67, 34
1, 693028, Control_c, 0, 67, 33
1, 693043, Control_c, 0, 67, 33
1, 693057, Control_c, 0, 67, 32
1, 693072, Control_c, 0, 67, 32
1, 693118, Control_c, 0, 64, 69
1, 693133, Control_c, 0, 64, 64
1, 693133, Control_c, 0, 67, 31
1, 693135, Note_on_c, 0, 79, 62
1, 693136, Note_on_c, 0, 56, 41
1, 693144, Note_on_c, 0, 67, 53
1, 693145, Note_on_c, 0, 61, 50
1, 693148, Control_c, 0, 64, 51
1, 693148, Control_c, 0, 67, 31
1, 693152, Note_on_c, 0, 58, 43
1, 693162, Control_c, 0, 64, 0
1, 693162, Control_c, 0, 67, 30
1, 693177, Control_c, 0, 67, 26
1, 693192, Control_c, 0, 67, 22
1, 693207, Control_c, 0, 64, 37
1, 693207, Control_c, 0, 67, 16
1, 693222, Control_c, 0, 64, 54
1, 693222, Control_c, 0, 67, 11
1, 693236, Control_c, 0, 64, 61
1, 693236, Control_c, 0, 67, 8
1, 693237, Note_off_c, 0, 67, 59
1, 693245, Note_off_c, 0, 79, 59
1, 693251, Control_c, 0, 64, 64
1, 693251, Control_c, 0, 67, 0
1, 693260, Note_off_c, 0, 58, 50
1, 693266, Control_c, 0, 64, 66
1, 693281, Control_c, 0, 64, 68
1, 693308, Note_off_c, 0, 61, 52
1, 693311, Control_c, 0, 64, 67
1, 693326, Control_c, 0, 64, 65
1, 693341, Control_c, 0, 64, 58
1, 693355, Note_on_c, 0, 80, 67
1, 693355, Control_c, 0, 64, 29
1, 693362, Note_on_c, 0, 59, 52
1, 693368, Note_on_c, 0, 68, 47
1, 693370, Control_c, 0, 64, 0
1, 693385, Control_c, 0, 64, 32
1, 693388, Note_on_c, 0, 63, 46
1, 693400, Control_c, 0, 64, 49
1, 693414, Control_c, 0, 64, 59
1, 693429, Control_c, 0, 64, 64
1, 693436, Note_off_c, 0, 56, 18
1, 693444, Control_c, 0, 64, 69
1, 693459, Control_c, 0, 64, 73
1, 693463, Note_off_c, 0, 68, 55
1, 693474, Control_c, 0, 64, 76
1, 693488, Control_c, 0, 64, 77
1, 693521, Note_off_c, 0, 59, 36
1, 693570, Note_on_c, 0, 82, 69
1, 693572, Note_on_c, 0, 70, 60
1, 693586, Note_on_c, 0, 61, 43
1, 693590, Note_on_c, 0, 56, 32
1, 693591, Note_on_c, 0, 58, 48
1, 693618, Note_off_c, 0, 63, 35
1, 693628, Note_off_c, 0, 56, 51
1, 693632, Note_off_c, 0, 80, 24
1, 693651, Note_off_c, 0, 61, 49
1, 693657, Note_off_c, 0, 70, 61
1, 693666, Note_off_c, 0, 58, 59
1, 693674, Note_off_c, 0, 82, 58
1, 693767, Note_on_c, 0, 83, 67
1, 693777, Note_on_c, 0, 71, 55
1, 693778, Note_on_c, 0, 59, 57
1, 693779, Note_on_c, 0, 56, 47
1, 693820, Note_off_c, 0, 71, 58
1, 693841, Note_off_c, 0, 59, 59
1, 693849, Note_off_c, 0, 56, 54
1, 693850, Note_off_c, 0, 83, 60
1, 693926, Control_c, 0, 64, 75
1, 693941, Control_c, 0, 64, 69
1, 693956, Control_c, 0, 64, 60
1, 693964, Note_on_c, 0, 85, 69
1, 693967, Note_on_c, 0, 61, 50
1, 693969, Note_on_c, 0, 73, 60
1, 693971, Control_c, 0, 64, 29
1, 693973, Note_on_c, 0, 58, 48
1, 693985, Control_c, 0, 64, 0
1, 693991, Note_on_c, 0, 56, 41
1, 694015, Control_c, 0, 64, 37
1, 694029, Control_c, 0, 64, 55
1, 694044, Control_c, 0, 64, 63
1, 694047, Note_off_c, 0, 73, 61
1, 694059, Control_c, 0, 64, 67
1, 694074, Control_c, 0, 64, 70
1, 694085, Note_off_c, 0, 58, 54
1, 694089, Control_c, 0, 64, 72
1, 694092, Note_off_c, 0, 56, 36
1, 694104, Control_c, 0, 64, 73
1, 694119, Control_c, 0, 64, 72
1, 694134, Control_c, 0, 64, 70
1, 694140, Note_off_c, 0, 61, 32
1, 694149, Control_c, 0, 64, 67
1, 694150, Note_on_c, 0, 87, 68
1, 694156, Note_on_c, 0, 75, 54
1, 694158, Note_off_c, 0, 85, 0
1, 694159, Note_on_c, 0, 56, 29
1, 694159, Note_on_c, 0, 59, 49
1, 694163, Control_c, 0, 64, 65
1, 694177, Note_on_c, 0, 63, 48
1, 694178, Control_c, 0, 64, 65
1, 694195, Poly_aftertouch_c, 0, 85, 127
1, 694208, Control_c, 0, 64, 65
1, 694223, Control_c, 0, 64, 66
1, 694225, Note_off_c, 0, 56, 59
1, 694237, Control_c, 0, 64, 66
1, 694241, Note_off_c, 0, 63, 54
1, 694243, Poly_aftertouch_c, 0, 85, 0
1, 694253, Note_off_c, 0, 59, 59
1, 694255, Note_off_c, 0, 75, 63
1, 694318, Control_c, 0, 64, 65
1, 694324, Note_off_c, 0, 87, 36
1, 694333, Control_c, 0, 64, 62
1, 694348, Control_c, 0, 64, 52
1, 694363, Note_on_c, 0, 56, 46
1, 694363, Note_on_c, 0, 88, 60
1, 694363, Control_c, 0, 64, 15
1, 694367, Note_on_c, 0, 64, 54
1, 694369, Note_on_c, 0, 76, 54
1, 694378, Note_on_c, 0, 61, 45
1, 694378, Control_c, 0, 64, 0
1, 694408, Control_c, 0, 64, 39
1, 694423, Control_c, 0, 64, 55
1, 694437, Control_c, 0, 64, 62
1, 694445, Note_off_c, 0, 64, 63
1, 694452, Control_c, 0, 64, 62
1, 694453, Note_off_c, 0, 76, 60
1, 694468, Note_off_c, 0, 56, 52
1, 694511, Control_c, 0, 64, 63
1, 694513, Note_off_c, 0, 61, 57
1, 694541, Control_c, 0, 64, 63
1, 694570, Control_c, 0, 64, 63
1, 694585, Control_c, 0, 64, 61
1, 694600, Control_c, 0, 64, 56
1, 694615, Control_c, 0, 64, 36
1, 694630, Control_c, 0, 64, 0
1, 694636, Note_on_c, 0, 87, 64
1, 694636, Note_off_c, 0, 88, 63
1, 694646, Note_on_c, 0, 75, 43
1, 694648, Note_on_c, 0, 63, 38
1, 694649, Note_on_c, 0, 56, 34
1, 694652, Note_on_c, 0, 59, 38
1, 694700, Note_off_c, 0, 63, 0
1, 694700, Note_on_c, 0, 63, 14
1, 694720, Control_c, 0, 64, 20
1, 694734, Control_c, 0, 64, 61
1, 694749, Control_c, 0, 64, 70
1, 694764, Control_c, 0, 64, 79
1, 694764, Control_c, 0, 67, 29
1, 694779, Control_c, 0, 64, 85
1, 694779, Control_c, 0, 67, 55
1, 694794, Control_c, 0, 64, 86
1, 694794, Control_c, 0, 67, 80
1, 694808, Control_c, 0, 64, 87
1, 694808, Control_c, 0, 67, 105
1, 694818, Note_off_c, 0, 87, 59
1, 694819, Note_off_c, 0, 63, 56
1, 694823, Control_c, 0, 64, 89
1, 694823, Control_c, 0, 67, 127
1, 694839, Control_c, 0, 64, 89
1, 694846, Note_off_c, 0, 56, 53
1, 694858, Note_off_c, 0, 75, 61
1, 694858, Note_off_c, 0, 59, 42
1, 694913, Control_c, 0, 64, 89
1, 694972, Control_c, 0, 64, 88
1, 694986, Control_c, 0, 64, 88
1, 695001, Control_c, 0, 64, 87
1, 695016, Control_c, 0, 64, 86
1, 695039, Control_c, 0, 64, 85
1, 695054, Control_c, 0, 64, 83
1, 695068, Control_c, 0, 64, 81
1, 695078, Note_on_c, 0, 51, 58
1, 695083, Control_c, 0, 64, 77
1, 695098, Control_c, 0, 64, 71
1, 695099, Note_off_c, 0, 51, 61
1, 695113, Control_c, 0, 64, 64
1, 695128, Control_c, 0, 64, 45
1, 695142, Control_c, 0, 64, 0
1, 695165, Note_on_c, 0, 51, 73
1, 695206, Note_off_c, 0, 51, 56
1, 695288, Note_on_c, 0, 59, 70
1, 695306, Note_on_c, 0, 56, 53
1, 695439, Control_c, 0, 64, 46
1, 695453, Control_c, 0, 64, 59
1, 695468, Control_c, 0, 64, 63
1, 695483, Control_c, 0, 64, 65
1, 695498, Control_c, 0, 64, 67
1, 695514, Control_c, 0, 64, 69
1, 695529, Control_c, 0, 64, 69
1, 695532, Note_off_c, 0, 56, 61
1, 695567, Note_on_c, 0, 63, 55
1, 695603, Note_off_c, 0, 63, 64
1, 695642, Note_off_c, 0, 59, 55
1, 695646, Control_c, 0, 64, 69
1, 695653, Note_on_c, 0, 63, 53
1, 695661, Control_c, 0, 64, 68
1, 695675, Control_c, 0, 64, 67
1, 695690, Control_c, 0, 64, 65
1, 695705, Control_c, 0, 64, 63
1, 695715, Note_on_c, 0, 58, 49
1, 695720, Control_c, 0, 64, 59
1, 695728, Note_on_c, 0, 55, 46
1, 695731, Note_on_c, 0, 75, 67
1, 695735, Control_c, 0, 64, 50
1, 695750, Control_c, 0, 64, 41
1, 695764, Control_c, 0, 64, 41
1, 695787, Control_c, 0, 64, 44
1, 695802, Control_c, 0, 64, 47
1, 695816, Control_c, 0, 64, 50
1, 695831, Control_c, 0, 64, 53
1, 695838, Note_off_c, 0, 58, 58
1, 695839, Note_off_c, 0, 55, 60
1, 695846, Control_c, 0, 64, 55
1, 695861, Control_c, 0, 64, 56
1, 695876, Control_c, 0, 64, 57
1, 695905, Control_c, 0, 64, 55
1, 695920, Control_c, 0, 64, 51
1, 695935, Control_c, 0, 64, 33
1, 695943, Note_on_c, 0, 59, 74
1, 695950, Control_c, 0, 64, 0
1, 695957, Note_on_c, 0, 56, 54
1, 695970, Note_off_c, 0, 63, 56
1, 695978, Note_off_c, 0, 75, 62
1, 696053, Control_c, 0, 64, 21
1, 696068, Control_c, 0, 64, 58
1, 696083, Control_c, 0, 64, 65
1, 696098, Control_c, 0, 64, 66
1, 696154, Note_on_c, 0, 63, 55
1, 696180, Note_off_c, 0, 63, 56
1, 696191, Note_off_c, 0, 56, 58
1, 696223, Note_on_c, 0, 63, 60
1, 696225, Note_off_c, 0, 59, 57
1, 696275, Control_c, 0, 64, 65
1, 696290, Control_c, 0, 64, 61
1, 696306, Control_c, 0, 64, 39
1, 696321, Control_c, 0, 64, 0
1, 696328, Note_on_c, 0, 58, 47
1, 696336, Note_on_c, 0, 55, 34
1, 696336, Note_on_c, 0, 75, 61
1, 696395, Control_c, 0, 64, 49
1, 696410, Control_c, 0, 64, 63
1, 696424, Control_c, 0, 64, 66
1, 696439, Control_c, 0, 64, 68
1, 696454, Control_c, 0, 64, 69
1, 696462, Note_off_c, 0, 58, 52
1, 696473, Note_off_c, 0, 55, 35
1, 696499, Control_c, 0, 64, 67
1, 696513, Control_c, 0, 64, 60
1, 696515, Note_off_c, 0, 63, 56
1, 696536, Control_c, 0, 64, 39
1, 696547, Note_off_c, 0, 75, 57
1, 696548, Note_on_c, 0, 59, 60
1, 696551, Control_c, 0, 64, 0
1, 696559, Note_on_c, 0, 56, 44
1, 696566, Control_c, 0, 64, 18
1, 696581, Control_c, 0, 64, 42
1, 696595, Control_c, 0, 64, 55
1, 696610, Control_c, 0, 64, 63
1, 696625, Control_c, 0, 64, 65
1, 696639, Control_c, 0, 64, 66
1, 696650, Note_off_c, 0, 56, 53
1, 696654, Control_c, 0, 64, 67
1, 696669, Control_c, 0, 64, 67
1, 696675, Note_off_c, 0, 59, 51
1, 696684, Control_c, 0, 64, 68
1, 696733, Note_on_c, 0, 75, 48
1, 696733, Note_on_c, 0, 63, 49
1, 696747, Note_on_c, 0, 56, 41
1, 696754, Note_on_c, 0, 59, 24
1, 696790, Note_off_c, 0, 56, 59
1, 696792, Note_off_c, 0, 63, 50
1, 696792, Note_off_c, 0, 75, 58
1, 696806, Note_off_c, 0, 59, 46
1, 696831, Control_c, 0, 64, 68
1, 696846, Control_c, 0, 64, 69
1, 696876, Control_c, 0, 64, 67
1, 696891, Control_c, 0, 64, 62
1, 696906, Control_c, 0, 64, 45
1, 696921, Control_c, 0, 64, 0
1, 696944, Note_on_c, 0, 63, 35
1, 696945, Note_on_c, 0, 75, 50
1, 696953, Note_on_c, 0, 54, 50
1, 696957, Note_on_c, 0, 57, 47
1, 696965, Control_c, 0, 64, 42
1, 696967, Note_on_c, 0, 59, 37
1, 696980, Control_c, 0, 64, 56
1, 696995, Control_c, 0, 64, 63
1, 697010, Control_c, 0, 64, 65
1, 697024, Control_c, 0, 64, 65
1, 697039, Control_c, 0, 64, 66
1, 697054, Control_c, 0, 64, 66
1, 697055, Note_off_c, 0, 63, 54
1, 697065, Note_off_c, 0, 75, 55
1, 697069, Control_c, 0, 64, 67
1, 697072, Note_off_c, 0, 54, 56
1, 697076, Note_off_c, 0, 57, 54
1, 697084, Control_c, 0, 64, 68
1, 697097, Note_off_c, 0, 59, 35
1, 697100, Control_c, 0, 64, 68
1, 697144, Control_c, 0, 64, 66
1, 697159, Control_c, 0, 64, 61
1, 697174, Control_c, 0, 64, 38
1, 697175, Note_on_c, 0, 76, 58
1, 697184, Note_on_c, 0, 64, 45
1, 697189, Control_c, 0, 64, 0
1, 697192, Note_on_c, 0, 55, 32
1, 697196, Note_on_c, 0, 59, 40
1, 697203, Control_c, 0, 64, 18
1, 697211, Note_on_c, 0, 52, 42
1, 697218, Control_c, 0, 64, 40
1, 697233, Control_c, 0, 64, 53
1, 697247, Control_c, 0, 64, 61
1, 697262, Control_c, 0, 64, 64
1, 697264, Note_off_c, 0, 76, 60
1, 697266, Note_off_c, 0, 64, 59
1, 697284, Control_c, 0, 64, 65
1, 697299, Control_c, 0, 64, 66
1, 697314, Control_c, 0, 64, 68
1, 697329, Control_c, 0, 64, 69
1, 697337, Note_off_c, 0, 55, 52
1, 697340, Note_off_c, 0, 52, 56
1, 697374, Control_c, 0, 64, 66
1, 697388, Control_c, 0, 64, 61
1, 697403, Control_c, 0, 64, 51
1, 697410, Note_on_c, 0, 66, 49
1, 697415, Note_on_c, 0, 78, 53
1, 697418, Control_c, 0, 64, 46
1, 697433, Control_c, 0, 64, 50
1, 697436, Note_on_c, 0, 57, 38
1, 697440, Note_on_c, 0, 52, 15
1, 697440, Note_on_c, 0, 54, 38
1, 697448, Control_c, 0, 64, 54
1, 697462, Control_c, 0, 64, 59
1, 697472, Note_off_c, 0, 59, 31
1, 697477, Control_c, 0, 64, 63
1, 697481, Note_off_c, 0, 66, 63
1, 697492, Control_c, 0, 64, 64
1, 697500, Note_off_c, 0, 52, 44
1, 697507, Control_c, 0, 64, 65
1, 697515, Note_off_c, 0, 78, 59
1, 697522, Control_c, 0, 64, 66
1, 697528, Note_off_c, 0, 54, 56
1, 697533, Note_off_c, 0, 57, 53
1, 697536, Control_c, 0, 64, 68
1, 697551, Control_c, 0, 64, 69
1, 697580, Control_c, 0, 64, 68
1, 697595, Control_c, 0, 64, 66
1, 697603, Note_on_c, 0, 79, 60
1, 697606, Note_on_c, 0, 67, 53
1, 697610, Control_c, 0, 64, 65
1, 697612, Note_on_c, 0, 52, 51
1, 697625, Control_c, 0, 64, 64
1, 697628, Note_on_c, 0, 55, 47
1, 697654, Control_c, 0, 64, 65
1, 697669, Control_c, 0, 64, 65
1, 697672, Note_off_c, 0, 67, 59
1, 697684, Control_c, 0, 64, 66
1, 697688, Note_off_c, 0, 79, 58
1, 697691, Note_off_c, 0, 52, 60
1, 697699, Control_c, 0, 64, 67
1, 697706, Note_off_c, 0, 55, 53
1, 697714, Control_c, 0, 64, 68
1, 697729, Control_c, 0, 64, 68
1, 697758, Control_c, 0, 64, 68
1, 697773, Control_c, 0, 64, 64
1, 697788, Control_c, 0, 64, 54
1, 697800, Note_on_c, 0, 81, 61
1, 697803, Control_c, 0, 64, 0
1, 697818, Note_on_c, 0, 69, 39
1, 697821, Note_on_c, 0, 54, 37
1, 697826, Note_on_c, 0, 57, 36
1, 697842, Note_on_c, 0, 52, 22
1, 697848, Control_c, 0, 64, 38
1, 697863, Control_c, 0, 64, 55
1, 697873, Note_off_c, 0, 69, 60
1, 697878, Control_c, 0, 64, 63
1, 697893, Control_c, 0, 64, 66
1, 697895, Note_off_c, 0, 81, 58
1, 697908, Control_c, 0, 64, 70
1, 697923, Control_c, 0, 64, 72
1, 697938, Control_c, 0, 64, 73
1, 697952, Control_c, 0, 64, 73
1, 697961, Note_off_c, 0, 52, 0
1, 697967, Control_c, 0, 64, 69
1, 697982, Control_c, 0, 64, 65
1, 697986, Note_on_c, 0, 52, 8
1, 697997, Control_c, 0, 64, 60
1, 698000, Note_off_c, 0, 57, 42
1, 698006, Note_on_c, 0, 83, 49
1, 698010, Note_on_c, 0, 59, 40
1, 698012, Note_on_c, 0, 71, 38
1, 698012, Control_c, 0, 64, 58
1, 698028, Note_off_c, 0, 54, 22
1, 698034, Control_c, 0, 64, 59
1, 698035, Note_on_c, 0, 55, 35
1, 698049, Control_c, 0, 64, 62
1, 698064, Control_c, 0, 64, 63
1, 698065, Note_off_c, 0, 71, 48
1, 698073, Note_off_c, 0, 52, 62
1, 698077, Note_off_c, 0, 59, 58
1, 698079, Control_c, 0, 64, 63
1, 698089, Note_off_c, 0, 83, 59
1, 698093, Control_c, 0, 64, 64
1, 698096, Note_off_c, 0, 55, 58
1, 698223, Note_on_c, 0, 84, 54
1, 698224, Note_on_c, 0, 72, 53
1, 698226, Control_c, 0, 64, 63
1, 698230, Note_on_c, 0, 52, 25
1, 698232, Note_on_c, 0, 60, 41
1, 698232, Note_on_c, 0, 54, 30
1, 698241, Control_c, 0, 64, 63
1, 698251, Note_on_c, 0, 57, 21
1, 698331, Note_off_c, 0, 60, 54
1, 698334, Note_off_c, 0, 72, 62
1, 698348, Note_off_c, 0, 84, 61
1, 698360, Control_c, 0, 64, 63
1, 698361, Note_off_c, 0, 52, 43
1, 698368, Note_off_c, 0, 54, 46
1, 698374, Note_off_c, 0, 57, 41
1, 698478, Control_c, 0, 64, 62
1, 698493, Control_c, 0, 64, 58
1, 698508, Control_c, 0, 64, 40
1, 698510, Note_on_c, 0, 83, 50
1, 698523, Control_c, 0, 64, 0
1, 698527, Note_on_c, 0, 59, 37
1, 698529, Note_on_c, 0, 71, 49
1, 698532, Note_on_c, 0, 55, 33
1, 698540, Note_on_c, 0, 52, 24
1, 698611, Control_c, 0, 64, 54
1, 698626, Control_c, 0, 64, 67
1, 698641, Control_c, 0, 64, 75
1, 698656, Control_c, 0, 64, 80
1, 698661, Note_off_c, 0, 83, 53
1, 698671, Control_c, 0, 64, 81
1, 698685, Control_c, 0, 64, 83
1, 698701, Control_c, 0, 64, 84
1, 698716, Control_c, 0, 64, 86
1, 698721, Note_off_c, 0, 71, 62
1, 698857, Control_c, 0, 64, 85
1, 698872, Control_c, 0, 64, 84
1, 698887, Control_c, 0, 64, 81
1, 698901, Control_c, 0, 64, 77
1, 698916, Control_c, 0, 64, 70
1, 698931, Control_c, 0, 64, 62
1, 698946, Control_c, 0, 64, 30
1, 698961, Control_c, 0, 64, 0
1, 698965, Note_on_c, 0, 76, 65
1, 698992, Note_off_c, 0, 76, 64
1, 699054, Note_on_c, 0, 76, 66
1, 699087, Note_off_c, 0, 59, 34
1, 699090, Note_off_c, 0, 52, 47
1, 699091, Note_off_c, 0, 76, 62
1, 699097, Note_off_c, 0, 55, 43
1, 699178, Note_on_c, 0, 66, 77
1, 699301, Control_c, 0, 64, 40
1, 699316, Control_c, 0, 64, 62
1, 699331, Control_c, 0, 64, 67
1, 699346, Control_c, 0, 64, 70
1, 699360, Control_c, 0, 64, 71
1, 699380, Note_on_c, 0, 60, 54
1, 699386, Note_on_c, 0, 54, 47
1, 699403, Note_on_c, 0, 57, 39
1, 699414, Note_on_c, 0, 52, 49
1, 699444, Note_off_c, 0, 66, 65
1, 699576, Control_c, 0, 64, 70
1, 699591, Control_c, 0, 64, 68
1, 699606, Control_c, 0, 64, 64
1, 699620, Note_on_c, 0, 76, 73
1, 699621, Control_c, 0, 64, 57
1, 699636, Control_c, 0, 64, 0
1, 699651, Note_off_c, 0, 76, 65
1, 699714, Note_on_c, 0, 76, 62
1, 699733, Note_off_c, 0, 52, 56
1, 699738, Note_off_c, 0, 60, 55
1, 699753, Note_off_c, 0, 54, 51
1, 699764, Note_off_c, 0, 57, 53
1, 699779, Note_off_c, 0, 76, 64
1, 699860, Note_on_c, 0, 71, 55
1, 699961, Control_c, 0, 64, 48
1, 699976, Control_c, 0, 64, 60
1, 699991, Control_c, 0, 64, 64
1, 700006, Control_c, 0, 64, 65
1, 700021, Control_c, 0, 64, 66
1, 700036, Control_c, 0, 64, 67
1, 700050, Control_c, 0, 64, 67
1, 700065, Control_c, 0, 64, 68
1, 700071, Note_off_c, 0, 71, 58
1, 700089, Note_on_c, 0, 59, 43
1, 700100, Note_on_c, 0, 52, 43
1, 700105, Note_on_c, 0, 55, 31
1, 700227, Control_c, 0, 64, 67
1, 700256, Control_c, 0, 64, 67
1, 700283, Note_on_c, 0, 83, 66
1, 700327, Note_off_c, 0, 59, 59
1, 700329, Note_off_c, 0, 55, 53
1, 700331, Note_off_c, 0, 52, 60
1, 700343, Note_off_c, 0, 83, 61
1, 700443, Control_c, 0, 64, 66
1, 700458, Control_c, 0, 64, 64
1, 700472, Control_c, 0, 64, 58
1, 700480, Note_on_c, 0, 83, 63
1, 700486, Note_on_c, 0, 57, 57
1, 700487, Control_c, 0, 64, 29
1, 700489, Note_on_c, 0, 54, 48
1, 700501, Note_on_c, 0, 52, 35
1, 700502, Control_c, 0, 64, 0
1, 700513, Note_off_c, 0, 83, 59
1, 700544, Note_off_c, 0, 52, 61
1, 700545, Note_off_c, 0, 57, 54
1, 700551, Note_off_c, 0, 54, 60
1, 700554, Note_on_c, 0, 81, 73
1, 700589, Note_off_c, 0, 81, 60
1, 700676, Note_on_c, 0, 81, 69
1, 700678, Note_on_c, 0, 52, 48
1, 700684, Note_on_c, 0, 59, 54
1, 700697, Note_on_c, 0, 55, 43
1, 700724, Note_off_c, 0, 59, 58
1, 700729, Note_off_c, 0, 55, 62
1, 700736, Note_off_c, 0, 52, 60
1, 700744, Note_off_c, 0, 81, 56
1, 700750, Note_on_c, 0, 83, 74
1, 700784, Note_off_c, 0, 83, 61
1, 700871, Note_on_c, 0, 83, 73
1, 700878, Note_on_c, 0, 60, 43
1, 700879, Note_on_c, 0, 52, 27
1, 700891, Note_on_c, 0, 54, 35
1, 700894, Note_on_c, 0, 57, 33
1, 700933, Note_off_c, 0, 83, 59
1, 700936, Note_off_c, 0, 60, 57
1, 700939, Note_off_c, 0, 57, 52
1, 700939, Note_off_c, 0, 52, 62
1, 700945, Note_off_c, 0, 54, 59
1, 700970, Note_on_c, 0, 84, 68
1, 701008, Note_off_c, 0, 84, 57
1, 701130, Note_on_c, 0, 83, 57
1, 701134, Note_on_c, 0, 59, 47
1, 701146, Note_on_c, 0, 52, 35
1, 701156, Note_on_c, 0, 55, 41
1, 701207, Control_c, 0, 64, 38
1, 701222, Control_c, 0, 64, 61
1, 701236, Control_c, 0, 64, 67
1, 701251, Control_c, 0, 64, 73
1, 701266, Control_c, 0, 64, 78
1, 701281, Control_c, 0, 64, 81
1, 701288, Note_off_c, 0, 83, 63
1, 701295, Control_c, 0, 64, 81
1, 701310, Control_c, 0, 64, 82
1, 701458, Control_c, 0, 64, 81
1, 701473, Control_c, 0, 64, 81
1, 701488, Control_c, 0, 64, 79
1, 701502, Control_c, 0, 64, 76
1, 701517, Control_c, 0, 64, 72
1, 701532, Control_c, 0, 64, 68
1, 701547, Control_c, 0, 64, 63
1, 701562, Control_c, 0, 64, 52
1, 701577, Control_c, 0, 64, 0
1, 701580, Note_on_c, 0, 76, 72
1, 701621, Note_off_c, 0, 76, 59
1, 701622, Control_c, 0, 67, 109
1, 701637, Control_c, 0, 67, 78
1, 701651, Control_c, 0, 67, 43
1, 701660, Poly_aftertouch_c, 0, 76, 0
1, 701666, Control_c, 0, 67, 10
1, 701669, Note_on_c, 0, 76, 67
1, 701681, Control_c, 0, 67, 0
1, 701699, Note_off_c, 0, 52, 43
1, 701700, Note_off_c, 0, 59, 36
1, 701716, Note_off_c, 0, 76, 63
1, 701717, Note_off_c, 0, 55, 58
1, 701841, Note_on_c, 0, 66, 72
1, 701866, Control_c, 0, 64, 8
1, 701881, Control_c, 0, 64, 41
1, 701897, Control_c, 0, 64, 53
1, 701912, Control_c, 0, 64, 59
1, 701926, Control_c, 0, 64, 63
1, 701941, Control_c, 0, 64, 65
1, 701956, Control_c, 0, 64, 67
1, 701971, Control_c, 0, 64, 70
1, 701985, Control_c, 0, 64, 73
1, 702000, Control_c, 0, 64, 77
1, 702015, Control_c, 0, 64, 79
1, 702030, Control_c, 0, 64, 81
1, 702045, Control_c, 0, 64, 82
1, 702060, Control_c, 0, 64, 84
1, 702060, Control_c, 0, 67, 12
1, 702075, Control_c, 0, 64, 85
1, 702075, Control_c, 0, 67, 27
1, 702084, Note_on_c, 0, 60, 47
1, 702090, Control_c, 0, 64, 87
1, 702090, Control_c, 0, 67, 43
1, 702099, Note_on_c, 0, 54, 37
1, 702105, Control_c, 0, 64, 88
1, 702105, Control_c, 0, 67, 65
1, 702109, Note_on_c, 0, 57, 38
1, 702119, Control_c, 0, 64, 88
1, 702119, Control_c, 0, 67, 84
1, 702125, Note_on_c, 0, 52, 44
1, 702134, Control_c, 0, 67, 101
1, 702149, Control_c, 0, 64, 89
1, 702149, Control_c, 0, 67, 116
1, 702164, Control_c, 0, 67, 127
1, 702234, Note_off_c, 0, 66, 56
1, 702282, Control_c, 0, 64, 88
1, 702370, Control_c, 0, 64, 88
1, 702384, Note_on_c, 0, 76, 69
1, 702385, Control_c, 0, 64, 86
1, 702400, Control_c, 0, 64, 83
1, 702415, Control_c, 0, 64, 78
1, 702422, Note_off_c, 0, 76, 59
1, 702430, Control_c, 0, 64, 71
1, 702444, Note_off_c, 0, 52, 38
1, 702444, Control_c, 0, 64, 63
1, 702453, Note_off_c, 0, 60, 38
1, 702458, Note_off_c, 0, 54, 38
1, 702459, Control_c, 0, 64, 50
1, 702474, Control_c, 0, 64, 0
1, 702475, Note_on_c, 0, 76, 62
1, 702486, Note_off_c, 0, 57, 43
1, 702541, Note_off_c, 0, 76, 56
1, 702605, Note_on_c, 0, 71, 62
1, 702720, Control_c, 0, 64, 10
1, 702735, Control_c, 0, 64, 47
1, 702749, Control_c, 0, 64, 58
1, 702764, Control_c, 0, 64, 62
1, 702779, Control_c, 0, 64, 64
1, 702793, Control_c, 0, 64, 65
1, 702808, Control_c, 0, 64, 65
1, 702815, Note_on_c, 0, 59, 41
1, 702823, Control_c, 0, 64, 66
1, 702832, Note_on_c, 0, 52, 43
1, 702832, Note_off_c, 0, 71, 59
1, 702838, Control_c, 0, 64, 67
1, 702840, Note_on_c, 0, 55, 33
1, 702853, Control_c, 0, 64, 67
1, 702987, Control_c, 0, 64, 67
1, 703016, Control_c, 0, 64, 66
1, 703026, Note_on_c, 0, 76, 57
1, 703046, Control_c, 0, 64, 66
1, 703060, Note_off_c, 0, 76, 59
1, 703075, Control_c, 0, 64, 65
1, 703105, Control_c, 0, 64, 65
1, 703107, Note_on_c, 0, 76, 55
1, 703115, Note_off_c, 0, 59, 35
1, 703126, Note_off_c, 0, 52, 36
1, 703134, Control_c, 0, 64, 64
1, 703145, Note_off_c, 0, 76, 63
1, 703164, Note_off_c, 0, 55, 54
1, 703164, Control_c, 0, 64, 63
1, 703179, Control_c, 0, 64, 62
1, 703193, Control_c, 0, 64, 58
1, 703208, Control_c, 0, 64, 43
1, 703223, Control_c, 0, 64, 0
1, 703238, Note_on_c, 0, 66, 65
1, 703379, Control_c, 0, 64, 49
1, 703393, Control_c, 0, 64, 61
1, 703408, Control_c, 0, 64, 65
1, 703423, Control_c, 0, 64, 65
1, 703453, Control_c, 0, 64, 66
1, 703467, Control_c, 0, 64, 66
1, 703476, Note_on_c, 0, 60, 41
1, 703482, Control_c, 0, 64, 67
1, 703483, Note_on_c, 0, 54, 32
1, 703491, Note_on_c, 0, 57, 36
1, 703498, Control_c, 0, 64, 68
1, 703503, Note_on_c, 0, 52, 39
1, 703552, Note_off_c, 0, 66, 60
1, 703661, Control_c, 0, 64, 67
1, 703690, Control_c, 0, 64, 67
1, 703720, Control_c, 0, 64, 66
1, 703732, Note_on_c, 0, 76, 58
1, 703750, Control_c, 0, 64, 66
1, 703765, Control_c, 0, 64, 65
1, 703771, Note_off_c, 0, 76, 61
1, 703780, Control_c, 0, 64, 63
1, 703795, Control_c, 0, 64, 61
1, 703801, Note_off_c, 0, 54, 40
1, 703810, Control_c, 0, 64, 56
1, 703813, Note_off_c, 0, 52, 41
1, 703822, Note_off_c, 0, 60, 51
1, 703823, Control_c, 0, 64, 44
1, 703836, Note_on_c, 0, 76, 57
1, 703838, Control_c, 0, 64, 12
1, 703853, Control_c, 0, 64, 0
1, 703860, Note_off_c, 0, 57, 43
1, 703890, Note_off_c, 0, 76, 55
1, 703978, Note_on_c, 0, 71, 56
1, 704083, Control_c, 0, 64, 40
1, 704098, Control_c, 0, 64, 54
1, 704112, Control_c, 0, 64, 60
1, 704127, Control_c, 0, 64, 62
1, 704142, Control_c, 0, 64, 63
1, 704156, Control_c, 0, 64, 63
1, 704171, Control_c, 0, 64, 64
1, 704186, Control_c, 0, 64, 65
1, 704201, Control_c, 0, 64, 66
1, 704215, Control_c, 0, 64, 67
1, 704230, Control_c, 0, 64, 68
1, 704245, Control_c, 0, 64, 69
1, 704260, Control_c, 0, 64, 70
1, 704263, Note_off_c, 0, 71, 57
1, 704275, Control_c, 0, 64, 71
1, 704291, Control_c, 0, 64, 71
1, 704300, Note_on_c, 0, 59, 35
1, 704301, Note_on_c, 0, 52, 31
1, 704306, Control_c, 0, 64, 72
1, 704317, Note_on_c, 0, 55, 34
1, 704320, Control_c, 0, 64, 73
1, 704335, Control_c, 0, 64, 74
1, 704350, Control_c, 0, 64, 74
1, 704364, Control_c, 0, 64, 75
1, 704543, Note_off_c, 0, 55, 49
1, 704545, Note_off_c, 0, 59, 52
1, 704548, Note_off_c, 0, 52, 42
1, 704617, Control_c, 0, 64, 74
1, 704661, Control_c, 0, 64, 74
1, 704686, Note_on_c, 0, 67, 66
1, 704720, Control_c, 0, 64, 73
1, 704785, Note_on_c, 0, 71, 66
1, 704799, Note_off_c, 0, 67, 37
1, 704813, Note_off_c, 0, 71, 64
1, 704817, Control_c, 0, 64, 72
1, 704832, Control_c, 0, 64, 68
1, 704846, Control_c, 0, 64, 61
1, 704861, Control_c, 0, 64, 22
1, 704876, Control_c, 0, 64, 0
1, 704889, Note_on_c, 0, 66, 73
1, 704890, Note_on_c, 0, 71, 75
1, 704892, Note_on_c, 0, 54, 60
1, 704894, Note_on_c, 0, 45, 57
1, 704894, Note_on_c, 0, 57, 62
1, 704931, Note_off_c, 0, 57, 60
1, 704933, Note_off_c, 0, 45, 65
1, 704937, Note_off_c, 0, 54, 60
1, 704970, Note_on_c, 0, 69, 75
1, 704978, Note_off_c, 0, 71, 61
1, 704989, Note_off_c, 0, 66, 50
1, 705000, Note_off_c, 0, 69, 66
1, 705024, Control_c, 0, 67, 126
1, 705039, Control_c, 0, 67, 118
1, 705053, Control_c, 0, 67, 108
1, 705065, Note_on_c, 0, 69, 77
1, 705068, Control_c, 0, 67, 98
1, 705083, Control_c, 0, 67, 88
1, 705084, Note_on_c, 0, 59, 61
1, 705093, Note_on_c, 0, 64, 59
1, 705098, Note_on_c, 0, 47, 42
1, 705099, Control_c, 0, 67, 78
1, 705107, Note_on_c, 0, 55, 23
1, 705114, Control_c, 0, 67, 71
1, 705129, Control_c, 0, 67, 63
1, 705140, Note_off_c, 0, 47, 61
1, 705143, Control_c, 0, 67, 58
1, 705146, Note_off_c, 0, 55, 50
1, 705148, Note_on_c, 0, 67, 76
1, 705149, Note_off_c, 0, 59, 62
1, 705151, Note_off_c, 0, 69, 62
1, 705158, Control_c, 0, 67, 52
1, 705173, Control_c, 0, 67, 48
1, 705187, Control_c, 0, 67, 44
1, 705191, Note_off_c, 0, 64, 59
1, 705199, Note_off_c, 0, 67, 62
1, 705202, Control_c, 0, 67, 42
1, 705217, Control_c, 0, 67, 39
1, 705232, Control_c, 0, 67, 36
1, 705247, Control_c, 0, 67, 31
1, 705259, Note_on_c, 0, 67, 75
1, 705261, Control_c, 0, 67, 26
1, 705268, Note_on_c, 0, 57, 65
1, 705273, Note_on_c, 0, 59, 64
1, 705273, Note_on_c, 0, 47, 53
1, 705276, Control_c, 0, 67, 20
1, 705291, Control_c, 0, 67, 14
1, 705296, Note_off_c, 0, 57, 65
1, 705298, Note_off_c, 0, 47, 59
1, 705304, Note_on_c, 0, 63, 44
1, 705306, Note_off_c, 0, 59, 64
1, 705306, Control_c, 0, 67, 8
1, 705321, Control_c, 0, 67, 0
1, 705360, Note_off_c, 0, 63, 51
1, 705363, Note_on_c, 0, 66, 69
1, 705378, Note_off_c, 0, 67, 59
1, 705452, Note_off_c, 0, 66, 64
1, 705476, Note_on_c, 0, 55, 56
1, 705477, Note_on_c, 0, 64, 78
1, 705479, Note_on_c, 0, 52, 61
1, 705482, Note_on_c, 0, 59, 58
1, 705499, Note_off_c, 0, 55, 60
1, 705504, Note_off_c, 0, 52, 64
1, 705505, Note_off_c, 0, 59, 62
1, 705619, Note_off_c, 0, 64, 63
1, 705684, Control_c, 0, 64, 34
1, 705699, Control_c, 0, 64, 46
1, 705705, Note_on_c, 0, 64, 81
1, 705714, Control_c, 0, 64, 49
1, 705728, Control_c, 0, 64, 50
1, 705758, Control_c, 0, 64, 51
1, 705788, Control_c, 0, 64, 51
1, 705802, Control_c, 0, 64, 53
1, 705817, Control_c, 0, 64, 55
1, 705832, Control_c, 0, 64, 58
1, 705847, Control_c, 0, 64, 61
1, 705862, Control_c, 0, 64, 63
1, 705876, Control_c, 0, 64, 65
1, 705892, Control_c, 0, 64, 67
1, 705907, Control_c, 0, 64, 69
1, 705920, Note_on_c, 0, 68, 84
1, 705922, Control_c, 0, 64, 71
1, 705923, Note_on_c, 0, 71, 79
1, 705936, Control_c, 0, 64, 72
1, 705951, Control_c, 0, 64, 72
1, 705957, Note_off_c, 0, 68, 56
1, 705966, Control_c, 0, 64, 73
1, 705969, Note_off_c, 0, 71, 59
1, 705992, Note_on_c, 0, 71, 71
1, 706025, Control_c, 0, 64, 71
1, 706040, Control_c, 0, 64, 65
1, 706048, Note_off_c, 0, 71, 61
1, 706055, Control_c, 0, 64, 36
1, 706069, Control_c, 0, 64, 0
1, 706083, Note_off_c, 0, 64, 62
1, 706086, Note_on_c, 0, 72, 94
1, 706092, Note_on_c, 0, 69, 87
1, 706173, Control_c, 0, 64, 49
1, 706188, Control_c, 0, 64, 61
1, 706203, Control_c, 0, 64, 64
1, 706217, Control_c, 0, 64, 64
1, 706232, Control_c, 0, 64, 65
1, 706247, Control_c, 0, 64, 66
1, 706269, Control_c, 0, 64, 68
1, 706284, Note_off_c, 0, 69, 62
1, 706284, Control_c, 0, 64, 70
1, 706299, Control_c, 0, 64, 70
1, 706308, Note_on_c, 0, 64, 86
1, 706317, Note_off_c, 0, 72, 64
1, 706462, Control_c, 0, 64, 71
1, 706477, Control_c, 0, 64, 71
1, 706508, Note_on_c, 0, 71, 83
1, 706510, Note_on_c, 0, 68, 85
1, 706535, Control_c, 0, 64, 70
1, 706547, Note_off_c, 0, 68, 57
1, 706549, Note_off_c, 0, 71, 62
1, 706550, Control_c, 0, 64, 66
1, 706565, Control_c, 0, 64, 59
1, 706580, Control_c, 0, 64, 0
1, 706589, Note_on_c, 0, 68, 63
1, 706589, Note_on_c, 0, 71, 74
1, 706638, Note_off_c, 0, 68, 65
1, 706652, Note_off_c, 0, 71, 63
1, 706689, Note_off_c, 0, 64, 61
1, 706699, Note_on_c, 0, 74, 85
1, 706700, Note_on_c, 0, 77, 93
1, 706900, Note_on_c, 0, 64, 90
1, 706907, Control_c, 0, 64, 36
1, 706914, Note_off_c, 0, 74, 64
1, 706922, Control_c, 0, 64, 61
1, 706927, Note_off_c, 0, 77, 60
1, 706937, Control_c, 0, 64, 64
1, 706981, Control_c, 0, 64, 64
1, 706996, Control_c, 0, 64, 65
1, 707015, Poly_aftertouch_c, 0, 61, 0
1, 707033, Control_c, 0, 64, 65
1, 707077, Control_c, 0, 64, 65
1, 707092, Control_c, 0, 64, 64
1, 707102, Note_on_c, 0, 76, 84
1, 707106, Note_on_c, 0, 72, 69
1, 707106, Control_c, 0, 64, 63
1, 707121, Control_c, 0, 64, 61
1, 707128, Note_off_c, 0, 72, 71
1, 707136, Control_c, 0, 64, 58
1, 707150, Note_off_c, 0, 76, 64
1, 707151, Control_c, 0, 64, 52
1, 707166, Control_c, 0, 64, 38
1, 707175, Note_on_c, 0, 76, 60
1, 707181, Control_c, 0, 64, 0
1, 707202, Note_on_c, 0, 72, 53
1, 707222, Note_off_c, 0, 72, 64
1, 707226, Note_off_c, 0, 76, 65
1, 707285, Note_on_c, 0, 74, 90
1, 707292, Note_on_c, 0, 71, 74
1, 707314, Note_off_c, 0, 71, 70
1, 707322, Note_off_c, 0, 64, 65
1, 707330, Note_off_c, 0, 74, 61
1, 707482, Note_on_c, 0, 74, 82
1, 707492, Note_on_c, 0, 64, 73
1, 707492, Note_on_c, 0, 71, 62
1, 707500, Note_off_c, 0, 74, 72
1, 707511, Note_off_c, 0, 71, 65
1, 707690, Note_on_c, 0, 72, 71
1, 707704, Note_on_c, 0, 63, 59
1, 707705, Note_on_c, 0, 69, 71
1, 707718, Note_off_c, 0, 72, 66
1, 707725, Note_off_c, 0, 63, 61
1, 707727, Note_off_c, 0, 69, 72
1, 707811, Note_off_c, 0, 64, 57
1, 707896, Note_on_c, 0, 71, 87
1, 707914, Note_on_c, 0, 68, 62
1, 707915, Note_on_c, 0, 64, 61
1, 707989, Control_c, 0, 64, 39
1, 708004, Control_c, 0, 64, 56
1, 708019, Control_c, 0, 64, 62
1, 708034, Control_c, 0, 64, 64
1, 708048, Control_c, 0, 64, 65
1, 708062, Note_off_c, 0, 71, 62
1, 708063, Control_c, 0, 64, 66
1, 708081, Note_off_c, 0, 64, 64
1, 708081, Note_off_c, 0, 68, 65
1, 708092, Note_on_c, 0, 52, 85
1, 708137, Control_c, 0, 64, 65
1, 708152, Control_c, 0, 64, 64
1, 708167, Control_c, 0, 64, 62
1, 708181, Control_c, 0, 64, 57
1, 708196, Control_c, 0, 64, 49
1, 708211, Control_c, 0, 64, 34
1, 708226, Control_c, 0, 64, 0
1, 708310, Note_on_c, 0, 56, 64
1, 708311, Note_off_c, 0, 56, 127
1, 708314, Note_on_c, 0, 59, 64
1, 708324, Note_on_c, 0, 60, 60
1, 708335, Note_off_c, 0, 59, 64
1, 708344, Note_off_c, 0, 60, 62
1, 708390, Note_on_c, 0, 59, 91
1, 708445, Note_off_c, 0, 59, 57
1, 708475, Note_off_c, 0, 52, 64
1, 708479, Note_on_c, 0, 60, 81
1, 708484, Note_on_c, 0, 57, 85
1, 708606, Control_c, 0, 64, 55
1, 708620, Control_c, 0, 64, 66
1, 708635, Control_c, 0, 64, 73
1, 708650, Control_c, 0, 64, 77
1, 708665, Control_c, 0, 64, 78
1, 708690, Note_off_c, 0, 57, 61
1, 708696, Note_on_c, 0, 52, 85
1, 708714, Note_off_c, 0, 60, 63
1, 708901, Note_on_c, 0, 59, 82
1, 708906, Note_on_c, 0, 56, 78
1, 708916, Control_c, 0, 64, 76
1, 708931, Note_off_c, 0, 56, 67
1, 708931, Control_c, 0, 64, 70
1, 708940, Note_off_c, 0, 59, 64
1, 708946, Control_c, 0, 64, 61
1, 708961, Control_c, 0, 64, 0
1, 708984, Note_on_c, 0, 59, 72
1, 708994, Note_on_c, 0, 56, 70
1, 709031, Note_off_c, 0, 56, 58
1, 709038, Note_off_c, 0, 59, 63
1, 709086, Note_off_c, 0, 52, 64
1, 709095, Note_on_c, 0, 62, 89
1, 709095, Note_on_c, 0, 65, 88
1, 709295, Control_c, 0, 64, 41
1, 709302, Note_on_c, 0, 52, 88
1, 709306, Note_off_c, 0, 62, 61
1, 709310, Control_c, 0, 64, 51
1, 709311, Note_off_c, 0, 65, 61
1, 709324, Control_c, 0, 64, 49
1, 709339, Control_c, 0, 64, 48
1, 709354, Control_c, 0, 64, 49
1, 709369, Control_c, 0, 64, 49
1, 709384, Control_c, 0, 64, 49
1, 709399, Control_c, 0, 64, 48
1, 709458, Control_c, 0, 64, 49
1, 709487, Control_c, 0, 64, 48
1, 709497, Note_on_c, 0, 60, 78
1, 709498, Note_on_c, 0, 64, 84
1, 709502, Control_c, 0, 64, 47
1, 709517, Control_c, 0, 64, 46
1, 709523, Note_off_c, 0, 60, 64
1, 709530, Note_off_c, 0, 64, 63
1, 709532, Control_c, 0, 64, 44
1, 709547, Control_c, 0, 64, 42
1, 709561, Control_c, 0, 64, 39
1, 709576, Control_c, 0, 64, 36
1, 709578, Note_on_c, 0, 64, 71
1, 709591, Control_c, 0, 64, 30
1, 709593, Note_on_c, 0, 60, 62
1, 709606, Control_c, 0, 64, 17
1, 709613, Note_off_c, 0, 60, 64
1, 709620, Note_off_c, 0, 64, 61
1, 709621, Control_c, 0, 64, 0
1, 709682, Note_on_c, 0, 62, 81
1, 709682, Note_on_c, 0, 59, 69
1, 709693, Note_off_c, 0, 52, 64
1, 709709, Note_off_c, 0, 59, 67
1, 709718, Note_off_c, 0, 62, 53
1, 709886, Note_on_c, 0, 62, 71
1, 709891, Note_on_c, 0, 59, 67
1, 709894, Note_on_c, 0, 52, 66
1, 709915, Note_off_c, 0, 62, 62
1, 709915, Note_off_c, 0, 59, 67
1, 709924, Note_off_c, 0, 52, 68
1, 710096, Note_on_c, 0, 51, 54
1, 710097, Note_on_c, 0, 57, 69
1, 710097, Note_on_c, 0, 60, 71
1, 710120, Note_off_c, 0, 51, 57
1, 710121, Note_off_c, 0, 60, 67
1, 710123, Note_off_c, 0, 57, 68
1, 710291, Note_on_c, 0, 59, 72
1, 710300, Note_on_c, 0, 52, 52
1, 710313, Note_on_c, 0, 56, 60
1, 710325, Note_off_c, 0, 52, 60
1, 710459, Note_off_c, 0, 59, 60
1, 710494, Note_on_c, 0, 40, 71
1, 710496, Note_off_c, 0, 56, 62
1, 710684, Note_on_c, 0, 51, 73
1, 710684, Note_on_c, 0, 60, 72
1, 710684, Note_on_c, 0, 57, 69
1, 710708, Note_off_c, 0, 60, 67
1, 710710, Note_off_c, 0, 51, 66
1, 710713, Note_off_c, 0, 57, 64
1, 710782, Note_on_c, 0, 60, 62
1, 710806, Note_on_c, 0, 57, 22
1, 710807, Note_off_c, 0, 40, 65
1, 710810, Note_on_c, 0, 51, 23
1, 710811, Note_off_c, 0, 51, 127
1, 710820, Note_off_c, 0, 60, 56
1, 710848, Note_off_c, 0, 57, 38
1, 710872, Note_on_c, 0, 59, 68
1, 710882, Note_on_c, 0, 52, 59
1, 710883, Note_on_c, 0, 56, 49
1, 711085, Note_off_c, 0, 52, 64
1, 711085, Note_off_c, 0, 59, 59
1, 711086, Note_on_c, 0, 40, 65
1, 711116, Note_off_c, 0, 56, 63
1, 711283, Note_on_c, 0, 57, 58
1, 711286, Note_on_c, 0, 51, 59
1, 711289, Note_on_c, 0, 60, 55
1, 711311, Note_off_c, 0, 51, 62
1, 711315, Note_off_c, 0, 57, 64
1, 711327, Note_off_c, 0, 60, 43
1, 711357, Note_on_c, 0, 60, 55
1, 711386, Note_on_c, 0, 57, 49
1, 711392, Note_off_c, 0, 40, 65
1, 711402, Note_off_c, 0, 60, 59
1, 711411, Note_off_c, 0, 57, 56
1, 711481, Note_on_c, 0, 56, 48
1, 711481, Note_on_c, 0, 59, 51
1, 711485, Note_on_c, 0, 52, 50
1, 711692, Note_off_c, 0, 52, 61
1, 711700, Note_on_c, 0, 35, 76
1, 711727, Note_off_c, 0, 59, 37
1, 711748, Note_off_c, 0, 56, 57
1, 711930, Note_on_c, 0, 57, 60
1, 711931, Note_on_c, 0, 51, 64
1, 711942, Note_on_c, 0, 60, 46
1, 711960, Note_off_c, 0, 51, 65
1, 711962, Note_off_c, 0, 57, 64
1, 711971, Note_off_c, 0, 60, 51
1, 712029, Note_on_c, 0, 60, 39
1, 712046, Note_on_c, 0, 57, 40
1, 712048, Note_on_c, 0, 51, 34
1, 712049, Note_off_c, 0, 51, 127
1, 712077, Note_off_c, 0, 35, 66
1, 712079, Note_off_c, 0, 60, 47
1, 712080, Note_off_c, 0, 57, 53
1, 712117, Note_on_c, 0, 59, 54
1, 712127, Note_on_c, 0, 52, 47
1, 712127, Note_on_c, 0, 56, 30
1, 712351, Note_on_c, 0, 40, 52
1, 712366, Note_off_c, 0, 52, 56
1, 712380, Note_off_c, 0, 59, 45
1, 712434, Note_off_c, 0, 56, 54
1, 712554, Note_on_c, 0, 51, 43
1, 712557, Note_on_c, 0, 57, 40
1, 712606, Poly_aftertouch_c, 0, 60, 127
1, 712615, Note_off_c, 0, 57, 0
1, 712627, Note_off_c, 0, 51, 0
1, 712631, Note_on_c, 0, 57, 33
1, 712647, Note_on_c, 0, 51, 12
1, 712672, Note_off_c, 0, 40, 64
1, 712677, Poly_aftertouch_c, 0, 60, 0
1, 712683, Note_off_c, 0, 57, 45
1, 712696, Note_off_c, 0, 51, 37
1, 712743, Note_on_c, 0, 56, 43
1, 712749, Note_on_c, 0, 59, 46
1, 712756, Note_on_c, 0, 52, 35
1, 713011, Note_on_c, 0, 35, 76
1, 713018, Note_off_c, 0, 52, 42
1, 713054, Note_off_c, 0, 59, 52
1, 713093, Note_off_c, 0, 56, 52
1, 713237, Note_on_c, 0, 51, 56
1, 713238, Note_on_c, 0, 57, 49
1, 713259, Note_on_c, 0, 60, 13
1, 713263, Note_off_c, 0, 57, 59
1, 713270, Note_off_c, 0, 51, 59
1, 713339, Note_on_c, 0, 51, 32
1, 713345, Note_on_c, 0, 57, 39
1, 713360, Note_off_c, 0, 35, 64
1, 713369, Note_off_c, 0, 51, 48
1, 713376, Note_off_c, 0, 57, 54
1, 713421, Note_off_c, 0, 60, 38
1, 713444, Note_on_c, 0, 56, 34
1, 713448, Note_on_c, 0, 59, 44
1, 713455, Note_on_c, 0, 52, 37
1, 713587, Control_c, 0, 64, 24
1, 713602, Control_c, 0, 64, 55
1, 713617, Control_c, 0, 64, 63
1, 713632, Control_c, 0, 64, 65
1, 713646, Control_c, 0, 64, 67
1, 713661, Control_c, 0, 64, 68
1, 713676, Control_c, 0, 64, 69
1, 713686, Note_off_c, 0, 52, 42
1, 713691, Control_c, 0, 64, 71
1, 713706, Control_c, 0, 64, 73
1, 713712, Note_on_c, 0, 40, 39
1, 713718, Note_off_c, 0, 56, 41
1, 713720, Control_c, 0, 64, 75
1, 713730, Note_off_c, 0, 59, 36
1, 713735, Control_c, 0, 64, 75
1, 713756, Note_off_c, 0, 40, 61
1, 713921, Control_c, 0, 64, 75
1, 713936, Control_c, 0, 64, 74
1, 713951, Control_c, 0, 64, 72
1, 713966, Control_c, 0, 64, 69
1, 713980, Control_c, 0, 64, 66
1, 713995, Control_c, 0, 64, 62
1, 714010, Control_c, 0, 64, 51
1, 714025, Control_c, 0, 64, 0
1, 714040, Note_on_c, 0, 57, 54
1, 714045, Note_on_c, 0, 69, 69
1, 714067, Note_off_c, 0, 57, 59
1, 714072, Note_off_c, 0, 69, 66
1, 714129, Note_on_c, 0, 69, 53
1, 714141, Note_on_c, 0, 57, 48
1, 714168, Note_off_c, 0, 57, 54
1, 714182, Note_off_c, 0, 69, 63
1, 714224, Note_on_c, 0, 71, 69
1, 714235, Note_on_c, 0, 52, 58
1, 714237, Note_on_c, 0, 68, 55
1, 714252, Note_on_c, 0, 64, 30
1, 714335, Control_c, 0, 64, 44
1, 714350, Control_c, 0, 64, 62
1, 714365, Control_c, 0, 64, 69
1, 714380, Control_c, 0, 64, 75
1, 714395, Control_c, 0, 64, 80
1, 714410, Control_c, 0, 64, 82
1, 714424, Control_c, 0, 64, 84
1, 714439, Control_c, 0, 64, 86
1, 714447, Note_off_c, 0, 71, 52
1, 714454, Control_c, 0, 64, 87
1, 714475, Note_off_c, 0, 64, 54
1, 714479, Note_off_c, 0, 52, 63
1, 714494, Note_off_c, 0, 68, 64
1, 714624, Control_c, 0, 64, 84
1, 714639, Control_c, 0, 64, 77
1, 714654, Control_c, 0, 64, 67
1, 714663, Note_on_c, 0, 69, 82
1, 714666, Note_on_c, 0, 57, 60
1, 714669, Control_c, 0, 64, 52
1, 714684, Control_c, 0, 64, 0
1, 714695, Note_off_c, 0, 69, 65
1, 714699, Note_off_c, 0, 57, 63
1, 714752, Note_on_c, 0, 69, 66
1, 714775, Note_on_c, 0, 57, 24
1, 714805, Note_off_c, 0, 69, 66
1, 714814, Note_off_c, 0, 57, 45
1, 714848, Note_on_c, 0, 71, 76
1, 714864, Note_on_c, 0, 68, 64
1, 714870, Note_on_c, 0, 64, 54
1, 714872, Note_on_c, 0, 52, 48
1, 714936, Control_c, 0, 64, 29
1, 714951, Control_c, 0, 64, 62
1, 714966, Control_c, 0, 64, 68
1, 714980, Control_c, 0, 64, 71
1, 714995, Control_c, 0, 64, 73
1, 715010, Control_c, 0, 64, 76
1, 715025, Control_c, 0, 64, 79
1, 715040, Control_c, 0, 64, 81
1, 715055, Control_c, 0, 64, 82
1, 715101, Note_off_c, 0, 71, 51
1, 715103, Note_off_c, 0, 52, 65
1, 715110, Note_off_c, 0, 68, 60
1, 715118, Note_off_c, 0, 64, 48
1, 715279, Note_on_c, 0, 69, 80
1, 715284, Note_on_c, 0, 57, 68
1, 715309, Note_off_c, 0, 69, 65
1, 715317, Note_off_c, 0, 57, 59
1, 715329, Control_c, 0, 64, 81
1, 715344, Control_c, 0, 64, 78
1, 715359, Control_c, 0, 64, 72
1, 715360, Note_on_c, 0, 69, 64
1, 715370, Note_on_c, 0, 57, 54
1, 715374, Control_c, 0, 64, 65
1, 715388, Control_c, 0, 64, 49
1, 715391, Note_off_c, 0, 57, 64
1, 715391, Note_off_c, 0, 69, 65
1, 715403, Control_c, 0, 64, 0
1, 715453, Note_on_c, 0, 71, 75
1, 715460, Note_on_c, 0, 52, 71
1, 715468, Note_on_c, 0, 64, 49
1, 715480, Note_on_c, 0, 68, 37
1, 715483, Note_off_c, 0, 71, 59
1, 715488, Note_off_c, 0, 52, 68
1, 715494, Note_off_c, 0, 64, 58
1, 715511, Note_off_c, 0, 68, 47
1, 715668, Note_on_c, 0, 69, 69
1, 715668, Note_on_c, 0, 72, 66
1, 715683, Note_on_c, 0, 57, 49
1, 715687, Note_on_c, 0, 64, 41
1, 715691, Note_off_c, 0, 69, 72
1, 715703, Note_off_c, 0, 72, 62
1, 715709, Note_off_c, 0, 57, 57
1, 715717, Note_off_c, 0, 64, 34
1, 715870, Note_on_c, 0, 71, 77
1, 715871, Note_on_c, 0, 52, 55
1, 715871, Note_on_c, 0, 68, 75
1, 715879, Note_on_c, 0, 64, 61
1, 715892, Note_off_c, 0, 68, 71
1, 715899, Note_off_c, 0, 64, 63
1, 715901, Note_off_c, 0, 71, 60
1, 715903, Note_off_c, 0, 52, 67
1, 716074, Note_on_c, 0, 72, 82
1, 716076, Note_on_c, 0, 57, 70
1, 716077, Note_on_c, 0, 69, 82
1, 716082, Note_on_c, 0, 64, 76
1, 716101, Note_off_c, 0, 57, 67
1, 716105, Note_off_c, 0, 69, 64
1, 716106, Note_off_c, 0, 64, 67
1, 716124, Note_off_c, 0, 72, 65
1, 716385, Note_on_c, 0, 76, 98
1, 716389, Note_on_c, 0, 64, 91
1, 716394, Note_on_c, 0, 71, 82
1, 716395, Note_on_c, 0, 44, 90
1, 716400, Note_on_c, 0, 32, 82
1, 716434, Control_c, 0, 64, 62
1, 716449, Control_c, 0, 64, 71
1, 716464, Control_c, 0, 64, 79
1, 716478, Control_c, 0, 64, 85
1, 716493, Control_c, 0, 64, 90
1, 716508, Control_c, 0, 64, 91
1, 716523, Control_c, 0, 64, 92
1, 716779, Note_off_c, 0, 64, 56
1, 716782, Note_off_c, 0, 71, 48
1, 716861, Note_off_c, 0, 32, 33
1, 716861, Note_off_c, 0, 44, 58
1, 716973, Note_off_c, 0, 76, 58
1, 716975, Control_c, 0, 64, 85
1, 716982, Note_on_c, 0, 72, 62
1, 716990, Control_c, 0, 64, 70
1, 716993, Note_on_c, 0, 69, 43
1, 717000, Note_on_c, 0, 45, 46
1, 717004, Control_c, 0, 64, 39
1, 717006, Note_on_c, 0, 64, 41
1, 717010, Note_on_c, 0, 33, 42
1, 717019, Control_c, 0, 64, 0
1, 717124, Control_c, 0, 64, 56
1, 717137, Note_off_c, 0, 33, 56
1, 717139, Control_c, 0, 64, 66
1, 717154, Control_c, 0, 64, 73
1, 717168, Control_c, 0, 64, 79
1, 717183, Control_c, 0, 64, 81
1, 717198, Control_c, 0, 64, 83
1, 717212, Note_off_c, 0, 64, 54
1, 717212, Note_off_c, 0, 72, 58
1, 717213, Control_c, 0, 64, 83
1, 717215, Note_off_c, 0, 45, 55
1, 717246, Note_off_c, 0, 69, 63
1, 717374, Control_c, 0, 64, 83
1, 717389, Control_c, 0, 64, 82
1, 717404, Control_c, 0, 64, 79
1, 717418, Control_c, 0, 64, 73
1, 717433, Control_c, 0, 64, 66
1, 717448, Control_c, 0, 64, 56
1, 717463, Control_c, 0, 64, 14
1, 717478, Control_c, 0, 64, 0
1, 717601, Note_on_c, 0, 61, 48
1, 717622, Note_on_c, 0, 69, 50
1, 717644, Note_on_c, 0, 57, 39
1, 717648, Note_on_c, 0, 64, 13
1, 717691, Note_off_c, 0, 69, 63
1, 717707, Control_c, 0, 64, 32
1, 717722, Control_c, 0, 64, 57
1, 717737, Control_c, 0, 64, 61
1, 717744, Note_off_c, 0, 64, 40
1, 717745, Note_on_c, 0, 69, 35
1, 717826, Control_c, 0, 64, 61
1, 717841, Control_c, 0, 64, 60
1, 717856, Control_c, 0, 64, 59
1, 717871, Control_c, 0, 64, 57
1, 717885, Note_off_c, 0, 57, 54
1, 717886, Control_c, 0, 64, 53
1, 717889, Note_off_c, 0, 69, 57
1, 717895, Note_on_c, 0, 71, 55
1, 717901, Control_c, 0, 64, 44
1, 717916, Control_c, 0, 64, 24
1, 717924, Note_on_c, 0, 56, 39
1, 717926, Note_on_c, 0, 62, 43
1, 717930, Control_c, 0, 64, 0
1, 717940, Note_on_c, 0, 64, 31
1, 718002, Note_off_c, 0, 61, 39
1, 718079, Control_c, 0, 64, 57
1, 718094, Control_c, 0, 64, 69
1, 718109, Control_c, 0, 64, 78
1, 718124, Control_c, 0, 64, 85
1, 718139, Control_c, 0, 64, 86
1, 718154, Control_c, 0, 64, 89
1, 718169, Control_c, 0, 64, 92
1, 718184, Control_c, 0, 64, 94
1, 718207, Note_off_c, 0, 64, 52
1, 718228, Note_off_c, 0, 71, 61
1, 718359, Note_on_c, 0, 69, 59
1, 718365, Note_on_c, 0, 57, 48
1, 718365, Note_on_c, 0, 61, 50
1, 718367, Note_on_c, 0, 64, 32
1, 718368, Control_c, 0, 64, 92
1, 718383, Control_c, 0, 64, 90
1, 718386, Note_off_c, 0, 56, 34
1, 718393, Note_off_c, 0, 69, 66
1, 718398, Control_c, 0, 64, 86
1, 718403, Note_off_c, 0, 64, 53
1, 718413, Control_c, 0, 64, 80
1, 718428, Control_c, 0, 64, 76
1, 718443, Control_c, 0, 64, 72
1, 718448, Note_off_c, 0, 62, 36
1, 718450, Note_on_c, 0, 69, 62
1, 718457, Control_c, 0, 64, 68
1, 718472, Control_c, 0, 64, 64
1, 718487, Control_c, 0, 64, 60
1, 718502, Control_c, 0, 64, 51
1, 718516, Control_c, 0, 64, 18
1, 718531, Control_c, 0, 64, 0
1, 718565, Note_off_c, 0, 69, 40
1, 718572, Note_on_c, 0, 71, 73
1, 718584, Note_on_c, 0, 62, 49
1, 718586, Note_on_c, 0, 56, 46
1, 718592, Note_off_c, 0, 57, 36
1, 718603, Note_on_c, 0, 64, 46
1, 718642, Note_off_c, 0, 61, 30
1, 718725, Control_c, 0, 64, 48
1, 718740, Control_c, 0, 64, 64
1, 718754, Control_c, 0, 64, 71
1, 718769, Control_c, 0, 64, 75
1, 718784, Control_c, 0, 64, 76
1, 718799, Control_c, 0, 64, 77
1, 718814, Control_c, 0, 64, 79
1, 718828, Control_c, 0, 64, 81
1, 718843, Control_c, 0, 64, 82
1, 718861, Note_off_c, 0, 64, 62
1, 718875, Note_off_c, 0, 71, 58
1, 718977, Note_off_c, 0, 56, 57
1, 718982, Note_on_c, 0, 57, 54
1, 718982, Note_on_c, 0, 61, 54
1, 719013, Note_on_c, 0, 69, 74
1, 719048, Note_off_c, 0, 62, 31
1, 719056, Note_off_c, 0, 69, 60
1, 719058, Control_c, 0, 64, 81
1, 719072, Control_c, 0, 64, 81
1, 719087, Control_c, 0, 64, 78
1, 719091, Poly_aftertouch_c, 0, 69, 0
1, 719099, Note_on_c, 0, 69, 66
1, 719102, Control_c, 0, 64, 73
1, 719117, Control_c, 0, 64, 66
1, 719132, Control_c, 0, 64, 52
1, 719146, Control_c, 0, 64, 0
1, 719188, Note_off_c, 0, 69, 0
1, 719207, Note_on_c, 0, 71, 84
1, 719211, Note_on_c, 0, 56, 59
1, 719215, Note_on_c, 0, 64, 67
1, 719219, Note_on_c, 0, 62, 69
1, 719224, Poly_aftertouch_c, 0, 69, 127
1, 719225, Note_off_c, 0, 57, 35
1, 719272, Note_off_c, 0, 61, 52
1, 719272, Poly_aftertouch_c, 0, 69, 0
1, 719280, Control_c, 0, 64, 57
1, 719295, Control_c, 0, 64, 68
1, 719310, Control_c, 0, 64, 77
1, 719311, Note_off_c, 0, 71, 62
1, 719325, Control_c, 0, 64, 85
1, 719339, Control_c, 0, 64, 90
1, 719354, Control_c, 0, 64, 93
1, 719369, Control_c, 0, 64, 95
1, 719379, Note_off_c, 0, 64, 62
1, 719384, Control_c, 0, 64, 97
1, 719422, Note_off_c, 0, 56, 61
1, 719470, Note_off_c, 0, 62, 58
1, 719592, Control_c, 0, 64, 91
1, 719607, Control_c, 0, 64, 75
1, 719615, Note_on_c, 0, 64, 65
1, 719619, Note_on_c, 0, 73, 77
1, 719620, Note_on_c, 0, 55, 59
1, 719621, Control_c, 0, 64, 58
1, 719623, Note_on_c, 0, 69, 62
1, 719636, Control_c, 0, 64, 0
1, 719646, Note_on_c, 0, 57, 20
1, 719650, Note_off_c, 0, 64, 64
1, 719662, Note_off_c, 0, 55, 61
1, 719668, Note_off_c, 0, 69, 60
1, 719668, Note_off_c, 0, 73, 60
1, 719677, Note_off_c, 0, 57, 44
1, 719713, Note_on_c, 0, 73, 53
1, 719775, Note_off_c, 0, 73, 59
1, 719814, Note_on_c, 0, 54, 62
1, 719814, Note_on_c, 0, 62, 68
1, 719817, Note_on_c, 0, 76, 77
1, 719842, Note_off_c, 0, 54, 64
1, 719843, Note_off_c, 0, 62, 63
1, 719850, Note_on_c, 0, 69, 45
1, 719875, Note_off_c, 0, 69, 61
1, 719896, Note_on_c, 0, 74, 68
1, 719924, Note_off_c, 0, 76, 60
1, 719984, Note_off_c, 0, 74, 57
1, 720003, Note_on_c, 0, 73, 78
1, 720010, Note_on_c, 0, 69, 69
1, 720020, Note_on_c, 0, 64, 64
1, 720026, Note_off_c, 0, 73, 63
1, 720026, Note_on_c, 0, 52, 56
1, 720033, Note_off_c, 0, 69, 72
1, 720048, Note_off_c, 0, 64, 66
1, 720053, Note_off_c, 0, 52, 66
1, 720218, Note_on_c, 0, 71, 76
1, 720219, Note_on_c, 0, 62, 66
1, 720227, Note_on_c, 0, 68, 69
1, 720246, Note_off_c, 0, 62, 66
1, 720251, Note_off_c, 0, 68, 69
1, 720255, Note_off_c, 0, 71, 59
1, 720256, Note_on_c, 0, 52, 8
1, 720257, Note_off_c, 0, 52, 127
1, 720425, Note_on_c, 0, 61, 60
1, 720427, Note_on_c, 0, 57, 60
1, 720428, Note_on_c, 0, 69, 85
1, 720445, Note_off_c, 0, 61, 64
1, 720455, Note_off_c, 0, 57, 65
1, 720472, Note_off_c, 0, 69, 63
1, 720645, Note_on_c, 0, 76, 98
1, 720652, Note_on_c, 0, 64, 91
1, 720658, Note_on_c, 0, 61, 75
1, 720661, Note_on_c, 0, 49, 76
1, 720674, Control_c, 0, 64, 56
1, 720689, Control_c, 0, 64, 75
1, 720704, Control_c, 0, 64, 127
1, 720711, Note_off_c, 0, 61, 59
1, 720711, Note_off_c, 0, 49, 52
1, 720885, Note_off_c, 0, 76, 60
1, 720916, Note_off_c, 0, 64, 63
1, 721047, Note_on_c, 0, 61, 86
1, 721047, Note_on_c, 0, 73, 83
1, 721051, Note_on_c, 0, 45, 75
1, 721052, Note_on_c, 0, 57, 70
1, 721074, Control_c, 0, 64, 95
1, 721078, Note_off_c, 0, 45, 67
1, 721078, Note_off_c, 0, 57, 65
1, 721089, Control_c, 0, 64, 65
1, 721093, Note_off_c, 0, 61, 59
1, 721094, Note_off_c, 0, 73, 59
1, 721104, Control_c, 0, 64, 0
1, 721251, Note_on_c, 0, 54, 68
1, 721255, Note_on_c, 0, 42, 63
1, 721256, Note_on_c, 0, 69, 80
1, 721268, Note_on_c, 0, 57, 65
1, 721278, Note_off_c, 0, 54, 64
1, 721287, Note_off_c, 0, 42, 63
1, 721296, Note_off_c, 0, 57, 65
1, 721297, Note_off_c, 0, 69, 62
1, 721446, Note_on_c, 0, 54, 79
1, 721447, Note_on_c, 0, 38, 73
1, 721448, Note_on_c, 0, 66, 70
1, 721454, Note_on_c, 0, 50, 65
1, 721475, Note_off_c, 0, 66, 67
1, 721483, Note_off_c, 0, 50, 64
1, 721494, Note_off_c, 0, 38, 62
1, 721498, Note_off_c, 0, 54, 58
1, 721640, Note_on_c, 0, 47, 71
1, 721641, Note_on_c, 0, 35, 73
1, 721644, Note_on_c, 0, 62, 87
1, 721649, Note_on_c, 0, 50, 76
1, 721671, Note_off_c, 0, 35, 69
1, 721673, Note_off_c, 0, 47, 67
1, 721676, Note_off_c, 0, 50, 68
1, 721695, Note_off_c, 0, 62, 62
1, 721874, Note_on_c, 0, 44, 84
1, 721875, Note_on_c, 0, 32, 75
1, 721879, Note_on_c, 0, 78, 94
1, 721880, Note_on_c, 0, 71, 92
1, 721883, Control_c, 0, 64, 56
1, 721898, Control_c, 0, 64, 66
1, 721898, Note_off_c, 0, 32, 66
1, 721901, Note_on_c, 0, 74, 52
1, 721913, Control_c, 0, 64, 74
1, 721923, Note_off_c, 0, 74, 61
1, 721928, Control_c, 0, 64, 83
1, 721930, Note_off_c, 0, 44, 58
1, 721942, Control_c, 0, 64, 97
1, 721957, Control_c, 0, 64, 127
1, 721960, Note_on_c, 0, 77, 22
1, 722056, Note_off_c, 0, 78, 60
1, 722058, Note_off_c, 0, 77, 49
1, 722091, Note_off_c, 0, 71, 59
1, 722350, Note_on_c, 0, 83, 88
1, 722358, Note_on_c, 0, 78, 91
1, 722359, Note_on_c, 0, 74, 86
1, 722366, Note_on_c, 0, 66, 82
1, 722368, Note_on_c, 0, 62, 74
1, 722371, Note_on_c, 0, 56, 68
1, 722394, Control_c, 0, 64, 90
1, 722409, Control_c, 0, 64, 68
1, 722423, Control_c, 0, 64, 0
1, 722775, Poly_aftertouch_c, 0, 81, 127
1, 722920, Control_c, 0, 64, 55
1, 722921, Poly_aftertouch_c, 0, 81, 0
1, 722935, Control_c, 0, 64, 65
1, 722950, Control_c, 0, 64, 70
1, 722965, Control_c, 0, 64, 74
1, 722980, Control_c, 0, 64, 78
1, 722995, Control_c, 0, 64, 86
1, 723010, Control_c, 0, 64, 111
1, 723025, Control_c, 0, 64, 127
1, 723170, Note_off_c, 0, 78, 57
1, 723188, Note_off_c, 0, 56, 47
1, 723218, Note_off_c, 0, 74, 64
1, 723225, Note_off_c, 0, 66, 64
1, 723335, Note_off_c, 0, 62, 32
1, 723368, Note_on_c, 0, 81, 59
1, 723451, Note_off_c, 0, 83, 44
1, 723460, Note_on_c, 0, 80, 54
1, 723537, Note_off_c, 0, 81, 30
1, 723549, Note_on_c, 0, 78, 54
1, 723551, Control_c, 0, 64, 110
1, 723566, Control_c, 0, 64, 92
1, 723581, Control_c, 0, 64, 76
1, 723596, Control_c, 0, 64, 65
1, 723611, Control_c, 0, 64, 47
1, 723623, Note_off_c, 0, 80, 40
1, 723625, Control_c, 0, 64, 0
1, 723655, Note_on_c, 0, 76, 57
1, 723659, Note_on_c, 0, 64, 34
1, 723659, Note_on_c, 0, 61, 44
1, 723668, Note_off_c, 0, 78, 63
1, 723677, Note_on_c, 0, 57, 31
1, 723686, Note_off_c, 0, 61, 61
1, 723702, Note_off_c, 0, 64, 57
1, 723707, Note_off_c, 0, 57, 57
1, 723722, Note_off_c, 0, 76, 62
1, 723892, Control_c, 0, 64, 56
1, 723892, Note_on_c, 0, 88, 76
1, 723907, Control_c, 0, 64, 66
1, 723909, Note_on_c, 0, 73, 64
1, 723911, Note_on_c, 0, 76, 61
1, 723922, Control_c, 0, 64, 72
1, 723936, Control_c, 0, 64, 75
1, 723947, Note_off_c, 0, 76, 63
1, 723951, Control_c, 0, 64, 75
1, 723966, Control_c, 0, 64, 76
1, 723966, Control_c, 0, 67, 9
1, 723969, Note_off_c, 0, 73, 54
1, 723980, Control_c, 0, 64, 77
1, 723980, Control_c, 0, 67, 18
1, 723995, Control_c, 0, 64, 78
1, 723995, Control_c, 0, 67, 27
1, 724010, Control_c, 0, 64, 79
1, 724010, Control_c, 0, 67, 41
1, 724025, Control_c, 0, 64, 80
1, 724025, Control_c, 0, 67, 54
1, 724040, Control_c, 0, 64, 80
1, 724040, Control_c, 0, 67, 65
1, 724054, Control_c, 0, 67, 74
1, 724069, Control_c, 0, 67, 83
1, 724084, Control_c, 0, 67, 91
1, 724099, Control_c, 0, 67, 99
1, 724108, Note_off_c, 0, 88, 58
1, 724114, Control_c, 0, 67, 107
1, 724128, Control_c, 0, 67, 113
1, 724143, Control_c, 0, 67, 118
1, 724158, Control_c, 0, 67, 120
1, 724173, Control_c, 0, 67, 120
1, 724187, Control_c, 0, 67, 121
1, 724202, Control_c, 0, 67, 121
1, 724206, Note_on_c, 0, 85, 60
1, 724217, Control_c, 0, 67, 122
1, 724224, Note_off_c, 0, 85, 65
1, 724240, Control_c, 0, 67, 123
1, 724255, Control_c, 0, 67, 123
1, 724271, Control_c, 0, 67, 124
1, 724285, Control_c, 0, 64, 78
1, 724300, Control_c, 0, 64, 72
1, 724305, Note_on_c, 0, 85, 68
1, 724309, Note_on_c, 0, 73, 64
1, 724315, Control_c, 0, 64, 64
1, 724321, Note_on_c, 0, 69, 46
1, 724330, Control_c, 0, 64, 50
1, 724336, Note_off_c, 0, 73, 66
1, 724344, Note_off_c, 0, 69, 61
1, 724345, Control_c, 0, 64, 0
1, 724389, Control_c, 0, 67, 123
1, 724390, Note_on_c, 0, 81, 73
1, 724393, Note_off_c, 0, 85, 62
1, 724414, Note_off_c, 0, 81, 65
1, 724463, Control_c, 0, 67, 122
1, 724478, Control_c, 0, 67, 121
1, 724486, Note_on_c, 0, 66, 66
1, 724492, Control_c, 0, 67, 120
1, 724494, Note_on_c, 0, 81, 75
1, 724507, Control_c, 0, 67, 120
1, 724509, Note_off_c, 0, 66, 64
1, 724522, Control_c, 0, 67, 119
1, 724537, Control_c, 0, 67, 118
1, 724552, Control_c, 0, 67, 117
1, 724554, Note_off_c, 0, 81, 59
1, 724558, Poly_aftertouch_c, 0, 69, 0
1, 724566, Note_on_c, 0, 78, 64
1, 724566, Control_c, 0, 67, 115
1, 724581, Control_c, 0, 67, 114
1, 724592, Note_off_c, 0, 78, 68
1, 724596, Control_c, 0, 67, 113
1, 724610, Control_c, 0, 67, 112
1, 724625, Control_c, 0, 67, 107
1, 724640, Control_c, 0, 67, 101
1, 724655, Control_c, 0, 67, 94
1, 724663, Note_on_c, 0, 78, 77
1, 724669, Note_on_c, 0, 66, 60
1, 724670, Control_c, 0, 67, 84
1, 724685, Control_c, 0, 67, 74
1, 724689, Note_on_c, 0, 62, 38
1, 724700, Control_c, 0, 67, 64
1, 724701, Note_off_c, 0, 66, 64
1, 724715, Control_c, 0, 67, 52
1, 724722, Note_off_c, 0, 62, 52
1, 724730, Control_c, 0, 67, 41
1, 724744, Control_c, 0, 67, 30
1, 724756, Note_on_c, 0, 74, 70
1, 724759, Control_c, 0, 67, 17
1, 724767, Note_off_c, 0, 78, 59
1, 724774, Control_c, 0, 67, 0
1, 724783, Note_off_c, 0, 74, 65
1, 724861, Note_on_c, 0, 59, 47
1, 724871, Note_on_c, 0, 74, 59
1, 724872, Note_on_c, 0, 62, 44
1, 724905, Note_off_c, 0, 59, 63
1, 724907, Note_off_c, 0, 62, 55
1, 724923, Note_off_c, 0, 74, 66
1, 725202, Note_on_c, 0, 77, 72
1, 725213, Note_on_c, 0, 72, 65
1, 725220, Note_on_c, 0, 69, 53
1, 725235, Note_on_c, 0, 65, 38
1, 725238, Note_on_c, 0, 60, 35
1, 725242, Note_on_c, 0, 57, 44
1, 725582, Control_c, 0, 64, 14
1, 725597, Control_c, 0, 64, 17
1, 725612, Control_c, 0, 64, 20
1, 725627, Control_c, 0, 64, 25
1, 725641, Control_c, 0, 64, 31
1, 725656, Control_c, 0, 64, 38
1, 725671, Control_c, 0, 64, 44
1, 725686, Control_c, 0, 64, 48
1, 725701, Control_c, 0, 64, 50
1, 725715, Control_c, 0, 64, 52
1, 725737, Control_c, 0, 64, 54
1, 725752, Control_c, 0, 64, 55
1, 725767, Control_c, 0, 64, 57
1, 725782, Control_c, 0, 64, 58
1, 725797, Control_c, 0, 64, 59
1, 725812, Control_c, 0, 64, 60
1, 725827, Control_c, 0, 64, 61
1, 725841, Control_c, 0, 64, 62
1, 725856, Control_c, 0, 64, 62
1, 725886, Control_c, 0, 64, 63
1, 725931, Control_c, 0, 64, 63
1, 725976, Control_c, 0, 64, 64
1, 726035, Control_c, 0, 64, 64
1, 726064, Control_c, 0, 64, 65
1, 726079, Control_c, 0, 64, 66
1, 726094, Control_c, 0, 64, 68
1, 726109, Control_c, 0, 64, 71
1, 726124, Control_c, 0, 64, 74
1, 726138, Control_c, 0, 64, 77
1, 726153, Control_c, 0, 64, 80
1, 726168, Control_c, 0, 64, 83
1, 726182, Control_c, 0, 64, 86
1, 726197, Control_c, 0, 64, 90
1, 726212, Control_c, 0, 64, 94
1, 726227, Control_c, 0, 64, 99
1, 726242, Control_c, 0, 64, 104
1, 726256, Control_c, 0, 64, 111
1, 726271, Control_c, 0, 64, 119
1, 726286, Control_c, 0, 64, 127
1, 726345, Control_c, 0, 67, 13
1, 726354, Note_off_c, 0, 69, 38
1, 726360, Control_c, 0, 67, 19
1, 726375, Control_c, 0, 67, 25
1, 726390, Control_c, 0, 67, 31
1, 726405, Control_c, 0, 67, 38
1, 726420, Control_c, 0, 67, 44
1, 726435, Control_c, 0, 67, 54
1, 726441, Note_off_c, 0, 57, 37
1, 726450, Control_c, 0, 67, 62
1, 726464, Control_c, 0, 67, 72
1, 726470, Note_off_c, 0, 77, 35
1, 726486, Control_c, 0, 67, 85
1, 726501, Control_c, 0, 67, 98
1, 726516, Control_c, 0, 67, 111
1, 726518, Note_off_c, 0, 60, 36
1, 726531, Control_c, 0, 67, 122
1, 726545, Control_c, 0, 67, 127
1, 726579, Note_off_c, 0, 65, 41
1, 726685, Note_off_c, 0, 72, 59
1, 726828, Control_c, 0, 64, 104
1, 726843, Control_c, 0, 64, 91
1, 726858, Note_on_c, 0, 59, 38
1, 726858, Control_c, 0, 64, 80
1, 726870, Note_on_c, 0, 76, 45
1, 726871, Note_on_c, 0, 56, 29
1, 726873, Control_c, 0, 64, 71
1, 726873, Note_on_c, 0, 68, 44
1, 726874, Note_on_c, 0, 71, 37
1, 726883, Note_on_c, 0, 64, 33
1, 726887, Control_c, 0, 64, 63
1, 726902, Control_c, 0, 64, 44
1, 726917, Control_c, 0, 64, 0
1, 726962, Note_on_c, 0, 73, 56
1, 726972, Note_on_c, 0, 61, 47
1, 727007, Note_off_c, 0, 59, 40
1, 727057, Note_off_c, 0, 61, 60
1, 727058, Note_on_c, 0, 74, 59
1, 727060, Note_off_c, 0, 73, 59
1, 727069, Note_off_c, 0, 71, 51
1, 727074, Note_on_c, 0, 62, 50
1, 727101, Note_off_c, 0, 76, 0
1, 727101, Note_on_c, 0, 76, 3
1, 727148, Note_off_c, 0, 62, 57
1, 727164, Note_on_c, 0, 61, 60
1, 727165, Note_on_c, 0, 73, 71
1, 727243, Note_off_c, 0, 61, 58
1, 727252, Note_off_c, 0, 74, 46
1, 727261, Note_off_c, 0, 73, 58
1, 727276, Note_on_c, 0, 59, 43
1, 727280, Note_on_c, 0, 71, 58
1, 727362, Note_on_c, 0, 61, 53
1, 727378, Note_on_c, 0, 73, 66
1, 727401, Note_off_c, 0, 71, 53
1, 727406, Note_off_c, 0, 59, 44
1, 727452, Note_off_c, 0, 64, 28
1, 727490, Note_off_c, 0, 61, 52
1, 727506, Note_off_c, 0, 73, 52
1, 727538, Note_on_c, 0, 74, 57
1, 727546, Note_on_c, 0, 62, 26
1, 727547, Note_off_c, 0, 76, 50
1, 727681, Control_c, 0, 64, 53
1, 727696, Control_c, 0, 64, 65
1, 727710, Control_c, 0, 64, 69
1, 727725, Control_c, 0, 64, 72
1, 727739, Note_off_c, 0, 56, 57
1, 727740, Control_c, 0, 64, 74
1, 727754, Control_c, 0, 64, 76
1, 727764, Note_off_c, 0, 68, 35
1, 727769, Control_c, 0, 64, 78
1, 727784, Control_c, 0, 64, 80
1, 727799, Control_c, 0, 64, 81
1, 727814, Control_c, 0, 64, 81
1, 727828, Control_c, 0, 64, 82
1, 727853, Note_off_c, 0, 62, 40
1, 727858, Control_c, 0, 64, 82
1, 727868, Note_off_c, 0, 74, 55
1, 727947, Control_c, 0, 64, 81
1, 727961, Control_c, 0, 64, 77
1, 727966, Note_on_c, 0, 57, 54
1, 727967, Note_on_c, 0, 76, 68
1, 727982, Note_on_c, 0, 69, 63
1, 727984, Control_c, 0, 64, 70
1, 727986, Note_on_c, 0, 64, 44
1, 727999, Control_c, 0, 64, 64
1, 728012, Note_off_c, 0, 57, 62
1, 728012, Note_off_c, 0, 64, 59
1, 728014, Control_c, 0, 64, 54
1, 728016, Note_on_c, 0, 73, 25
1, 728021, Note_off_c, 0, 69, 59
1, 728029, Control_c, 0, 64, 28
1, 728043, Control_c, 0, 64, 0
1, 728044, Note_off_c, 0, 76, 58
1, 728056, Note_off_c, 0, 73, 48
1, 728178, Note_on_c, 0, 76, 74
1, 728187, Note_on_c, 0, 50, 69
1, 728196, Note_on_c, 0, 66, 57
1, 728199, Note_on_c, 0, 71, 53
1, 728246, Note_off_c, 0, 50, 62
1, 728274, Note_on_c, 0, 74, 67
1, 728283, Note_off_c, 0, 71, 59
1, 728291, Note_off_c, 0, 66, 64
1, 728293, Note_off_c, 0, 76, 61
1, 728324, Note_off_c, 0, 74, 58
1, 728376, Note_on_c, 0, 74, 68
1, 728378, Note_on_c, 0, 52, 66
1, 728384, Control_c, 0, 67, 125
1, 728390, Note_on_c, 0, 64, 63
1, 728399, Control_c, 0, 67, 110
1, 728402, Note_on_c, 0, 69, 57
1, 728414, Control_c, 0, 67, 91
1, 728424, Note_off_c, 0, 52, 63
1, 728429, Control_c, 0, 67, 69
1, 728441, Note_off_c, 0, 74, 64
1, 728444, Control_c, 0, 67, 48
1, 728453, Note_on_c, 0, 73, 72
1, 728459, Control_c, 0, 67, 29
1, 728474, Control_c, 0, 67, 20
1, 728479, Note_off_c, 0, 69, 61
1, 728489, Control_c, 0, 67, 15
1, 728491, Note_off_c, 0, 64, 48
1, 728503, Control_c, 0, 67, 13
1, 728509, Note_off_c, 0, 73, 62
1, 728518, Control_c, 0, 67, 12
1, 728533, Control_c, 0, 67, 11
1, 728548, Control_c, 0, 67, 9
1, 728560, Note_on_c, 0, 73, 60
1, 728563, Note_on_c, 0, 52, 62
1, 728563, Control_c, 0, 67, 0
1, 728596, Note_off_c, 0, 52, 67
1, 728600, Note_on_c, 0, 62, 38
1, 728638, Note_on_c, 0, 71, 67
1, 728640, Note_off_c, 0, 62, 50
1, 728652, Note_off_c, 0, 73, 62
1, 728712, Note_off_c, 0, 71, 61
1, 728772, Note_on_c, 0, 69, 65
1, 728795, Note_on_c, 0, 57, 48
1, 728799, Note_on_c, 0, 61, 44
1, 728852, Control_c, 0, 64, 40
1, 728867, Control_c, 0, 64, 63
1, 728882, Control_c, 0, 64, 74
1, 728897, Control_c, 0, 64, 88
1, 728911, Control_c, 0, 64, 99
1, 728914, Note_off_c, 0, 61, 61
1, 728926, Control_c, 0, 64, 100
1, 728941, Control_c, 0, 64, 100
1, 728957, Note_off_c, 0, 69, 65
1, 728998, Note_off_c, 0, 57, 57
1, 729090, Control_c, 0, 64, 100
1, 729105, Control_c, 0, 64, 97
1, 729120, Control_c, 0, 64, 87
1, 729135, Control_c, 0, 64, 75
1, 729150, Control_c, 0, 64, 65
1, 729164, Control_c, 0, 64, 34
1, 729179, Control_c, 0, 64, 0
1, 729220, Note_on_c, 0, 61, 57
1, 729228, Note_on_c, 0, 76, 80
1, 729267, Note_off_c, 0, 76, 62
1, 729268, Note_off_c, 0, 61, 58
1, 729317, Note_on_c, 0, 76, 67
1, 729318, Note_on_c, 0, 61, 52
1, 729350, Note_off_c, 0, 61, 64
1, 729355, Note_off_c, 0, 76, 61
1, 729419, Note_on_c, 0, 64, 80
1, 729433, Note_on_c, 0, 49, 59
1, 729481, Control_c, 0, 64, 32
1, 729496, Control_c, 0, 64, 59
1, 729511, Control_c, 0, 64, 66
1, 729526, Control_c, 0, 64, 70
1, 729541, Control_c, 0, 64, 74
1, 729556, Control_c, 0, 64, 78
1, 729571, Control_c, 0, 64, 81
1, 729585, Control_c, 0, 64, 83
1, 729600, Control_c, 0, 64, 84
1, 729615, Control_c, 0, 64, 84
1, 729631, Note_off_c, 0, 49, 60
1, 729660, Note_off_c, 0, 64, 60
1, 729778, Control_c, 0, 64, 84
1, 729807, Control_c, 0, 64, 83
1, 729822, Control_c, 0, 64, 80
1, 729837, Control_c, 0, 64, 74
1, 729853, Control_c, 0, 64, 67
1, 729868, Control_c, 0, 64, 56
1, 729878, Note_on_c, 0, 61, 56
1, 729883, Control_c, 0, 64, 0
1, 729889, Note_on_c, 0, 76, 72
1, 729907, Note_off_c, 0, 61, 63
1, 729942, Note_off_c, 0, 76, 61
1, 729970, Note_on_c, 0, 61, 62
1, 729982, Note_on_c, 0, 76, 60
1, 729999, Note_off_c, 0, 61, 64
1, 730033, Note_off_c, 0, 76, 59
1, 730077, Note_on_c, 0, 50, 67
1, 730080, Note_on_c, 0, 66, 87
1, 730148, Control_c, 0, 64, 31
1, 730163, Control_c, 0, 64, 59
1, 730178, Control_c, 0, 64, 66
1, 730193, Control_c, 0, 64, 69
1, 730208, Control_c, 0, 64, 73
1, 730229, Control_c, 0, 64, 77
1, 730244, Control_c, 0, 64, 81
1, 730259, Control_c, 0, 64, 85
1, 730274, Control_c, 0, 64, 87
1, 730277, Note_off_c, 0, 50, 62
1, 730289, Control_c, 0, 64, 88
1, 730304, Control_c, 0, 64, 89
1, 730352, Note_off_c, 0, 66, 59
1, 730506, Note_on_c, 0, 76, 72
1, 730519, Note_on_c, 0, 61, 56
1, 730541, Control_c, 0, 64, 88
1, 730549, Note_off_c, 0, 76, 62
1, 730580, Note_off_c, 0, 61, 0
1, 730580, Note_on_c, 0, 61, 36
1, 730600, Control_c, 0, 67, 14
1, 730614, Note_on_c, 0, 76, 60
1, 730615, Control_c, 0, 64, 87
1, 730615, Control_c, 0, 67, 22
1, 730628, Note_off_c, 0, 61, 60
1, 730629, Control_c, 0, 64, 83
1, 730629, Control_c, 0, 67, 26
1, 730645, Control_c, 0, 64, 76
1, 730645, Control_c, 0, 67, 26
1, 730660, Control_c, 0, 64, 66
1, 730660, Control_c, 0, 67, 25
1, 730675, Control_c, 0, 64, 52
1, 730675, Control_c, 0, 67, 24
1, 730690, Control_c, 0, 64, 0
1, 730690, Control_c, 0, 67, 23
1, 730694, Note_off_c, 0, 76, 58
1, 730704, Note_on_c, 0, 68, 74
1, 730705, Control_c, 0, 67, 23
1, 730720, Control_c, 0, 67, 22
1, 730722, Note_on_c, 0, 52, 36
1, 730734, Control_c, 0, 67, 22
1, 730749, Control_c, 0, 67, 21
1, 730764, Control_c, 0, 67, 20
1, 730775, Note_off_c, 0, 52, 56
1, 730778, Control_c, 0, 67, 19
1, 730793, Control_c, 0, 67, 19
1, 730796, Note_on_c, 0, 76, 74
1, 730796, Note_off_c, 0, 68, 60
1, 730808, Control_c, 0, 67, 18
1, 730809, Note_on_c, 0, 62, 65
1, 730838, Control_c, 0, 67, 17
1, 730852, Control_c, 0, 67, 16
1, 730867, Control_c, 0, 67, 15
1, 730872, Note_off_c, 0, 62, 59
1, 730882, Control_c, 0, 67, 14
1, 730888, Note_on_c, 0, 69, 74
1, 730897, Control_c, 0, 67, 12
1, 730901, Note_off_c, 0, 76, 56
1, 730911, Note_on_c, 0, 54, 67
1, 730912, Control_c, 0, 67, 9
1, 730927, Control_c, 0, 67, 0
1, 730981, Note_on_c, 0, 76, 65
1, 730983, Note_off_c, 0, 54, 62
1, 730992, Note_on_c, 0, 62, 71
1, 731021, Note_off_c, 0, 69, 60
1, 731067, Note_off_c, 0, 62, 55
1, 731081, Note_on_c, 0, 71, 78
1, 731087, Note_on_c, 0, 56, 62
1, 731094, Note_off_c, 0, 76, 64
1, 731127, Control_c, 0, 64, 14
1, 731142, Control_c, 0, 64, 30
1, 731145, Note_off_c, 0, 56, 63
1, 731156, Control_c, 0, 64, 39
1, 731164, Note_off_c, 0, 71, 61
1, 731168, Note_on_c, 0, 62, 69
1, 731170, Note_on_c, 0, 76, 77
1, 731171, Control_c, 0, 64, 45
1, 731186, Control_c, 0, 64, 50
1, 731201, Control_c, 0, 64, 54
1, 731216, Control_c, 0, 64, 58
1, 731231, Control_c, 0, 64, 62
1, 731238, Note_off_c, 0, 62, 54
1, 731245, Note_off_c, 0, 76, 61
1, 731246, Control_c, 0, 64, 62
1, 731260, Control_c, 0, 64, 60
1, 731269, Note_on_c, 0, 57, 70
1, 731275, Note_on_c, 0, 73, 81
1, 731275, Control_c, 0, 64, 50
1, 731290, Control_c, 0, 64, 0
1, 731365, Note_on_c, 0, 61, 69
1, 731367, Note_on_c, 0, 76, 76
1, 731377, Note_off_c, 0, 57, 57
1, 731378, Control_c, 0, 64, 36
1, 731381, Note_off_c, 0, 73, 61
1, 731393, Control_c, 0, 64, 51
1, 731408, Control_c, 0, 64, 57
1, 731423, Control_c, 0, 64, 59
1, 731438, Control_c, 0, 64, 58
1, 731450, Note_off_c, 0, 76, 60
1, 731451, Note_on_c, 0, 71, 78
1, 731454, Control_c, 0, 64, 56
1, 731460, Note_off_c, 0, 61, 62
1, 731468, Note_on_c, 0, 56, 72
1, 731468, Control_c, 0, 64, 51
1, 731483, Control_c, 0, 64, 37
1, 731498, Control_c, 0, 64, 0
1, 731528, Note_off_c, 0, 56, 62
1, 731534, Note_off_c, 0, 71, 58
1, 731543, Note_on_c, 0, 77, 78
1, 731559, Note_on_c, 0, 61, 62
1, 731590, Note_off_c, 0, 61, 64
1, 731625, Note_off_c, 0, 77, 55
1, 731627, Note_on_c, 0, 69, 81
1, 731630, Control_c, 0, 64, 45
1, 731638, Note_on_c, 0, 54, 72
1, 731645, Control_c, 0, 64, 59
1, 731660, Control_c, 0, 64, 64
1, 731675, Control_c, 0, 64, 66
1, 731690, Control_c, 0, 64, 67
1, 731705, Note_off_c, 0, 54, 61
1, 731705, Control_c, 0, 64, 69
1, 731723, Note_on_c, 0, 61, 67
1, 731726, Control_c, 0, 64, 71
1, 731738, Note_on_c, 0, 78, 71
1, 731741, Control_c, 0, 64, 74
1, 731750, Note_off_c, 0, 69, 61
1, 731756, Control_c, 0, 64, 76
1, 731762, Note_off_c, 0, 61, 58
1, 731770, Note_off_c, 0, 78, 63
1, 731771, Control_c, 0, 64, 77
1, 731800, Control_c, 0, 64, 76
1, 731815, Control_c, 0, 64, 69
1, 731823, Note_on_c, 0, 50, 82
1, 731830, Control_c, 0, 64, 60
1, 731839, Note_on_c, 0, 78, 86
1, 731845, Control_c, 0, 64, 0
1, 731896, Note_off_c, 0, 50, 62
1, 731920, Control_c, 0, 64, 44
1, 731922, Note_on_c, 0, 59, 73
1, 731927, Note_on_c, 0, 83, 80
1, 731934, Control_c, 0, 64, 54
1, 731949, Note_off_c, 0, 78, 62
1, 731964, Control_c, 0, 64, 51
1, 731974, Note_off_c, 0, 83, 62
1, 731979, Control_c, 0, 64, 46
1, 731988, Note_off_c, 0, 59, 57
1, 731994, Control_c, 0, 64, 41
1, 732008, Control_c, 0, 64, 40
1, 732018, Note_on_c, 0, 52, 79
1, 732026, Note_on_c, 0, 80, 92
1, 732038, Control_c, 0, 64, 42
1, 732053, Control_c, 0, 64, 43
1, 732082, Control_c, 0, 64, 43
1, 732087, Note_off_c, 0, 52, 65
1, 732097, Control_c, 0, 64, 44
1, 732107, Note_on_c, 0, 61, 74
1, 732117, Note_off_c, 0, 80, 56
1, 732119, Note_on_c, 0, 85, 75
1, 732126, Control_c, 0, 64, 41
1, 732141, Control_c, 0, 64, 36
1, 732156, Control_c, 0, 64, 8
1, 732162, Note_off_c, 0, 61, 58
1, 732171, Control_c, 0, 64, 0
1, 732189, Note_off_c, 0, 85, 59
1, 732198, Note_on_c, 0, 80, 92
1, 732200, Note_on_c, 0, 52, 72
1, 732272, Note_off_c, 0, 80, 63
1, 732278, Note_on_c, 0, 62, 60
1, 732283, Note_off_c, 0, 52, 66
1, 732286, Note_on_c, 0, 88, 85
1, 732309, Note_off_c, 0, 62, 56
1, 732385, Note_on_c, 0, 57, 68
1, 732385, Note_on_c, 0, 61, 66
1, 732388, Note_on_c, 0, 81, 97
1, 732395, Control_c, 0, 64, 41
1, 732404, Note_off_c, 0, 61, 64
1, 732410, Control_c, 0, 64, 64
1, 732416, Note_off_c, 0, 57, 65
1, 732424, Control_c, 0, 64, 73
1, 732439, Control_c, 0, 64, 81
1, 732449, Note_off_c, 0, 88, 60
1, 732454, Control_c, 0, 64, 84
1, 732477, Control_c, 0, 64, 85
1, 732492, Control_c, 0, 64, 85
1, 732517, Note_off_c, 0, 81, 66
1, 732593, Note_on_c, 0, 45, 87
1, 732598, Note_on_c, 0, 33, 85
1, 732624, Control_c, 0, 64, 83
1, 732639, Control_c, 0, 64, 78
1, 732654, Control_c, 0, 64, 71
1, 732669, Control_c, 0, 64, 63
1, 732684, Control_c, 0, 64, 51
1, 732698, Control_c, 0, 64, 12
1, 732713, Control_c, 0, 64, 0
1, 732786, Note_on_c, 0, 76, 75
1, 732787, Note_on_c, 0, 71, 76
1, 732788, Note_on_c, 0, 68, 81
1, 732816, Note_off_c, 0, 76, 66
1, 732820, Note_off_c, 0, 71, 61
1, 732845, Note_off_c, 0, 68, 0
1, 732864, Note_on_c, 0, 68, 53
1, 732870, Note_on_c, 0, 71, 69
1, 732897, Note_on_c, 0, 76, 54
1, 732897, Note_off_c, 0, 71, 64
1, 732915, Note_off_c, 0, 68, 64
1, 732930, Note_off_c, 0, 76, 65
1, 732992, Note_on_c, 0, 76, 86
1, 732998, Note_on_c, 0, 69, 86
1, 732999, Note_on_c, 0, 73, 90
1, 733007, Note_off_c, 0, 33, 63
1, 733022, Note_off_c, 0, 45, 60
1, 733181, Note_off_c, 0, 69, 61
1, 733190, Note_on_c, 0, 45, 85
1, 733193, Note_on_c, 0, 33, 80
1, 733225, Note_off_c, 0, 76, 63
1, 733228, Note_off_c, 0, 73, 63
1, 733376, Note_on_c, 0, 68, 84
1, 733378, Note_on_c, 0, 74, 68
1, 733380, Note_on_c, 0, 76, 75
1, 733389, Note_on_c, 0, 71, 61
1, 733407, Note_off_c, 0, 74, 64
1, 733412, Note_off_c, 0, 68, 57
1, 733416, Note_off_c, 0, 76, 57
1, 733416, Note_off_c, 0, 71, 66
1, 733459, Note_on_c, 0, 68, 60
1, 733470, Note_on_c, 0, 71, 70
1, 733479, Note_on_c, 0, 76, 33
1, 733499, Note_off_c, 0, 68, 64
1, 733499, Note_off_c, 0, 71, 62
1, 733513, Note_off_c, 0, 76, 60
1, 733544, Note_off_c, 0, 33, 62
1, 733562, Note_off_c, 0, 45, 60
1, 733571, Note_on_c, 0, 76, 94
1, 733573, Note_on_c, 0, 69, 88
1, 733580, Note_on_c, 0, 73, 84
1, 733754, Note_off_c, 0, 76, 64
1, 733765, Note_on_c, 0, 45, 87
1, 733771, Note_on_c, 0, 33, 76
1, 733774, Note_off_c, 0, 73, 62
1, 733786, Note_off_c, 0, 69, 50
1, 733959, Note_on_c, 0, 80, 95
1, 733961, Note_on_c, 0, 71, 85
1, 733979, Note_on_c, 0, 74, 63
1, 733989, Note_on_c, 0, 76, 47
1, 734003, Note_off_c, 0, 71, 56
1, 734005, Note_off_c, 0, 74, 69
1, 734006, Note_off_c, 0, 80, 58
1, 734013, Note_off_c, 0, 76, 57
1, 734039, Note_on_c, 0, 80, 75
1, 734047, Note_on_c, 0, 71, 73
1, 734093, Note_off_c, 0, 80, 63
1, 734106, Note_off_c, 0, 71, 62
1, 734126, Note_off_c, 0, 33, 61
1, 734135, Note_off_c, 0, 45, 58
1, 734147, Note_on_c, 0, 81, 93
1, 734155, Note_on_c, 0, 76, 88
1, 734156, Note_on_c, 0, 73, 95
1, 734196, Control_c, 0, 64, 45
1, 734211, Control_c, 0, 64, 63
1, 734226, Control_c, 0, 64, 64
1, 734285, Control_c, 0, 64, 63
1, 734314, Control_c, 0, 64, 63
1, 734328, Note_off_c, 0, 73, 64
1, 734329, Control_c, 0, 64, 62
1, 734332, Note_off_c, 0, 76, 67
1, 734344, Note_off_c, 0, 81, 61
1, 734344, Control_c, 0, 64, 62
1, 734345, Note_on_c, 0, 45, 93
1, 734348, Note_on_c, 0, 33, 84
1, 734374, Control_c, 0, 64, 61
1, 734389, Control_c, 0, 64, 60
1, 734403, Control_c, 0, 64, 59
1, 734418, Control_c, 0, 64, 57
1, 734433, Control_c, 0, 64, 56
1, 734448, Control_c, 0, 64, 55
1, 734463, Control_c, 0, 64, 54
1, 734477, Control_c, 0, 64, 52
1, 734492, Control_c, 0, 64, 50
1, 734507, Control_c, 0, 64, 49
1, 734536, Note_on_c, 0, 80, 88
1, 734537, Note_on_c, 0, 76, 83
1, 734537, Note_on_c, 0, 83, 84
1, 734537, Control_c, 0, 64, 50
1, 734552, Control_c, 0, 64, 51
1, 734564, Note_off_c, 0, 80, 63
1, 734565, Note_off_c, 0, 76, 65
1, 734566, Note_off_c, 0, 83, 60
1, 734567, Control_c, 0, 64, 52
1, 734581, Control_c, 0, 64, 53
1, 734596, Control_c, 0, 64, 54
1, 734611, Control_c, 0, 64, 55
1, 734617, Note_on_c, 0, 83, 74
1, 734624, Note_on_c, 0, 80, 74
1, 734626, Control_c, 0, 64, 57
1, 734641, Control_c, 0, 64, 58
1, 734647, Note_on_c, 0, 76, 42
1, 734660, Note_off_c, 0, 80, 59
1, 734667, Note_off_c, 0, 83, 63
1, 734671, Control_c, 0, 64, 54
1, 734673, Note_off_c, 0, 76, 54
1, 734686, Control_c, 0, 64, 26
1, 734701, Control_c, 0, 64, 0
1, 734731, Note_on_c, 0, 76, 98
1, 734734, Note_on_c, 0, 85, 95
1, 734737, Note_on_c, 0, 81, 88
1, 734796, Note_off_c, 0, 33, 64
1, 734797, Control_c, 0, 64, 25
1, 734809, Note_off_c, 0, 45, 61
1, 734812, Control_c, 0, 64, 56
1, 734826, Control_c, 0, 64, 60
1, 734841, Control_c, 0, 64, 60
1, 734856, Control_c, 0, 64, 59
1, 734871, Control_c, 0, 64, 58
1, 734873, Note_off_c, 0, 76, 64
1, 734877, Note_on_c, 0, 84, 17
1, 734885, Note_off_c, 0, 81, 64
1, 734886, Control_c, 0, 64, 58
1, 734900, Control_c, 0, 64, 57
1, 734901, Note_off_c, 0, 84, 50
1, 734911, Note_off_c, 0, 85, 66
1, 734915, Control_c, 0, 64, 55
1, 734930, Control_c, 0, 64, 52
1, 734932, Note_on_c, 0, 45, 90
1, 734935, Note_on_c, 0, 33, 85
1, 734945, Control_c, 0, 64, 48
1, 734960, Control_c, 0, 64, 46
1, 734975, Control_c, 0, 64, 46
1, 734990, Control_c, 0, 64, 45
1, 735005, Control_c, 0, 64, 44
1, 735019, Control_c, 0, 64, 43
1, 735034, Control_c, 0, 64, 41
1, 735049, Control_c, 0, 64, 41
1, 735064, Control_c, 0, 64, 41
1, 735079, Control_c, 0, 64, 43
1, 735093, Control_c, 0, 64, 44
1, 735108, Control_c, 0, 64, 45
1, 735123, Control_c, 0, 64, 46
1, 735128, Note_on_c, 0, 80, 81
1, 735136, Note_on_c, 0, 83, 67
1, 735137, Control_c, 0, 64, 48
1, 735139, Note_on_c, 0, 88, 65
1, 735140, Note_on_c, 0, 89, 63
1, 735142, Note_on_c, 0, 84, 64
1, 735152, Control_c, 0, 64, 51
1, 735154, Note_off_c, 0, 80, 66
1, 735160, Note_off_c, 0, 83, 64
1, 735161, Note_off_c, 0, 84, 67
1, 735166, Note_off_c, 0, 88, 67
1, 735167, Note_off_c, 0, 89, 68
1, 735167, Control_c, 0, 64, 54
1, 735182, Control_c, 0, 64, 56
1, 735197, Control_c, 0, 64, 58
1, 735212, Control_c, 0, 64, 59
1, 735215, Note_on_c, 0, 80, 82
1, 735217, Note_on_c, 0, 83, 78
1, 735226, Note_on_c, 0, 88, 63
1, 735226, Control_c, 0, 64, 59
1, 735238, Note_off_c, 0, 83, 69
1, 735241, Note_off_c, 0, 80, 65
1, 735241, Control_c, 0, 64, 60
1, 735251, Note_off_c, 0, 33, 63
1, 735255, Note_off_c, 0, 88, 67
1, 735270, Control_c, 0, 64, 59
1, 735283, Note_off_c, 0, 45, 62
1, 735285, Control_c, 0, 64, 55
1, 735300, Control_c, 0, 64, 31
1, 735305, Note_on_c, 0, 88, 97
1, 735306, Note_on_c, 0, 81, 97
1, 735311, Note_on_c, 0, 85, 89
1, 735315, Control_c, 0, 64, 0
1, 735356, Note_off_c, 0, 81, 57
1, 735362, Note_off_c, 0, 85, 63
1, 735390, Note_off_c, 0, 88, 59
1, 735548, Note_on_c, 0, 88, 98
1, 735549, Note_on_c, 0, 81, 95
1, 735561, Note_on_c, 0, 37, 93
1, 735562, Note_on_c, 0, 49, 91
1, 735574, Note_on_c, 0, 84, 71
1, 735588, Note_off_c, 0, 37, 70
1, 735590, Note_off_c, 0, 84, 67
1, 735595, Note_off_c, 0, 81, 57
1, 735599, Note_off_c, 0, 49, 59
1, 735605, Note_off_c, 0, 88, 62
1, 735803, Note_on_c, 0, 86, 84
1, 735803, Note_on_c, 0, 92, 103
1, 735804, Note_on_c, 0, 83, 88
1, 735813, Note_on_c, 0, 40, 91
1, 735813, Note_on_c, 0, 52, 92
1, 735814, Note_on_c, 0, 88, 73
1, 735841, Note_off_c, 0, 52, 68
1, 735843, Note_off_c, 0, 40, 66
1, 735863, Note_off_c, 0, 86, 59
1, 735873, Note_off_c, 0, 88, 58
1, 735889, Note_off_c, 0, 83, 58
1, 735905, Note_off_c, 0, 92, 57
1, 736162, Note_on_c, 0, 93, 102
1, 736164, Note_on_c, 0, 81, 100
1, 736167, Note_on_c, 0, 45, 92
1, 736167, Note_on_c, 0, 88, 90
1, 736168, Note_on_c, 0, 85, 92
1, 736169, Note_on_c, 0, 33, 90
1, 736221, Control_c, 0, 64, 47
1, 736236, Control_c, 0, 64, 61
1, 736251, Control_c, 0, 64, 66
1, 736266, Control_c, 0, 64, 70
1, 736281, Control_c, 0, 64, 72
1, 736318, Note_off_c, 0, 93, 51
1, 736355, Control_c, 0, 64, 71
1, 736370, Control_c, 0, 64, 69
1, 736375, Note_off_c, 0, 81, 57
1, 736385, Control_c, 0, 64, 68
1, 736399, Control_c, 0, 64, 65
1, 736401, Note_off_c, 0, 88, 60
1, 736403, Note_off_c, 0, 33, 64
1, 736414, Control_c, 0, 64, 63
1, 736429, Control_c, 0, 64, 59
1, 736433, Note_off_c, 0, 85, 62
1, 736440, Note_off_c, 0, 45, 60
1, 736444, Control_c, 0, 64, 50
1, 736459, Control_c, 0, 64, 32
1, 736473, Control_c, 0, 64, 0
1, 736844, Control_c, 0, 67, 10
1, 736859, Control_c, 0, 67, 22
1, 736873, Control_c, 0, 67, 32
1, 736888, Control_c, 0, 67, 43
1, 736903, Control_c, 0, 67, 56
1, 736917, Control_c, 0, 67, 71
1, 736932, Control_c, 0, 67, 86
1, 736947, Control_c, 0, 64, 29
1, 736947, Control_c, 0, 67, 102
1, 736969, Control_c, 0, 64, 42
1, 736969, Control_c, 0, 67, 115
1, 736984, Control_c, 0, 64, 48
1, 736984, Control_c, 0, 67, 127
1, 736999, Control_c, 0, 64, 53
1, 737014, Control_c, 0, 64, 56
1, 737029, Control_c, 0, 64, 58
1, 737044, Control_c, 0, 64, 60
1, 737059, Control_c, 0, 64, 61
1, 737074, Control_c, 0, 64, 62
1, 737088, Control_c, 0, 64, 63
1, 737103, Control_c, 0, 64, 63
1, 737163, Control_c, 0, 64, 62
1, 737178, Control_c, 0, 64, 61
1, 737193, Control_c, 0, 64, 60
1, 737208, Control_c, 0, 64, 59
1, 737222, Control_c, 0, 64, 55
1, 737237, Control_c, 0, 64, 47
1, 737252, Control_c, 0, 64, 32
1, 737267, Control_c, 0, 64, 0
1, 737503, Control_c, 0, 64, 8
1, 737518, Control_c, 0, 64, 10
1, 737533, Control_c, 0, 64, 12
1, 737547, Control_c, 0, 64, 14
1, 737562, Control_c, 0, 64, 15
1, 737637, Control_c, 0, 64, 17
1, 737643, Note_on_c, 0, 69, 35
1, 737652, Control_c, 0, 64, 20
1, 737666, Control_c, 0, 64, 24
1, 737681, Control_c, 0, 64, 28
1, 737696, Control_c, 0, 64, 32
1, 737718, Control_c, 0, 64, 34
1, 737733, Control_c, 0, 64, 38
1, 737747, Control_c, 0, 64, 41
1, 737762, Control_c, 0, 64, 45
1, 737777, Control_c, 0, 64, 50
1, 737792, Control_c, 0, 64, 54
1, 737807, Control_c, 0, 64, 58
1, 737822, Control_c, 0, 64, 61
1, 737837, Control_c, 0, 64, 63
1, 737852, Control_c, 0, 64, 64
1, 737867, Control_c, 0, 64, 65
1, 737882, Control_c, 0, 64, 67
1, 737897, Control_c, 0, 64, 69
1, 737911, Control_c, 0, 64, 72
1, 737926, Control_c, 0, 64, 76
1, 737941, Control_c, 0, 64, 79
1, 737956, Control_c, 0, 64, 81
1, 737971, Control_c, 0, 64, 83
1, 737986, Control_c, 0, 64, 85
1, 738001, Control_c, 0, 64, 87
1, 738015, Control_c, 0, 64, 88
1, 738030, Control_c, 0, 64, 89
1, 738045, Control_c, 0, 64, 90
1, 738075, Control_c, 0, 64, 90
1, 738193, Note_on_c, 0, 72, 47
1, 738290, Note_off_c, 0, 69, 41
1, 738430, Control_c, 0, 64, 90
1, 738519, Note_on_c, 0, 69, 48
1, 738560, Note_off_c, 0, 72, 34
1, 739044, Note_on_c, 0, 72, 47
1, 739053, Note_on_c, 0, 60, 31
1, 739061, Control_c, 0, 64, 89
1, 739105, Note_off_c, 0, 69, 38
1, 739135, Control_c, 0, 64, 89
1, 739180, Control_c, 0, 64, 88
1, 739232, Control_c, 0, 64, 88
1, 739276, Control_c, 0, 64, 87
1, 739335, Control_c, 0, 64, 87
1, 739365, Control_c, 0, 64, 86
1, 739380, Control_c, 0, 64, 86
1, 739396, Note_on_c, 0, 69, 51
1, 739409, Control_c, 0, 64, 85
1, 739419, Note_on_c, 0, 57, 33
1, 739424, Control_c, 0, 64, 85
1, 739455, Control_c, 0, 64, 84
1, 739485, Control_c, 0, 64, 84
1, 739501, Note_off_c, 0, 72, 22
1, 739529, Note_off_c, 0, 60, 31
1, 739892, Note_on_c, 0, 72, 33
1, 739905, Note_off_c, 0, 57, 34
1, 739945, Note_on_c, 0, 60, 22
1, 739971, Note_off_c, 0, 69, 34
1, 740252, Note_on_c, 0, 69, 48
1, 740266, Note_on_c, 0, 57, 29
1, 740272, Note_off_c, 0, 72, 37
1, 740379, Note_off_c, 0, 60, 30
1, 740647, Control_c, 0, 64, 83
1, 740755, Note_off_c, 0, 69, 35
1, 740773, Control_c, 0, 64, 83
1, 740861, Note_off_c, 0, 57, 34
1, 740862, Control_c, 0, 64, 82
1, 740870, Note_on_c, 0, 72, 43
1, 740906, Control_c, 0, 64, 82
1, 740916, Note_on_c, 0, 60, 34
1, 740980, Control_c, 0, 64, 81
1, 741041, Control_c, 0, 64, 81
1, 741100, Control_c, 0, 64, 80
1, 741144, Control_c, 0, 64, 80
1, 741174, Control_c, 0, 64, 79
1, 741203, Control_c, 0, 64, 79
1, 741248, Control_c, 0, 64, 78
1, 741277, Control_c, 0, 64, 78
1, 741292, Control_c, 0, 64, 77
1, 741304, Note_on_c, 0, 69, 48
1, 741306, Control_c, 0, 64, 77
1, 741321, Control_c, 0, 64, 76
1, 741336, Control_c, 0, 64, 74
1, 741344, Note_on_c, 0, 53, 30
1, 741345, Note_on_c, 0, 57, 33
1, 741351, Control_c, 0, 64, 71
1, 741358, Note_off_c, 0, 72, 30
1, 741366, Control_c, 0, 64, 66
1, 741370, Note_off_c, 0, 60, 30
1, 741381, Control_c, 0, 64, 61
1, 741396, Control_c, 0, 64, 51
1, 741411, Control_c, 0, 64, 39
1, 741426, Control_c, 0, 64, 36
1, 741441, Control_c, 0, 64, 41
1, 741462, Control_c, 0, 64, 50
1, 741477, Control_c, 0, 64, 57
1, 741492, Control_c, 0, 64, 62
1, 741507, Control_c, 0, 64, 65
1, 741521, Control_c, 0, 64, 67
1, 741536, Control_c, 0, 64, 69
1, 741551, Control_c, 0, 64, 71
1, 741566, Control_c, 0, 64, 74
1, 741581, Control_c, 0, 64, 76
1, 741596, Control_c, 0, 64, 78
1, 741610, Control_c, 0, 64, 80
1, 741625, Control_c, 0, 64, 81
1, 741640, Control_c, 0, 64, 82
1, 741655, Control_c, 0, 64, 82
1, 741664, Note_off_c, 0, 57, 55
1, 741664, Note_off_c, 0, 53, 42
1, 741669, Note_on_c, 0, 60, 39
1, 741669, Note_on_c, 0, 72, 49
1, 741685, Control_c, 0, 64, 83
1, 741938, Note_on_c, 0, 62, 38
1, 741938, Note_on_c, 0, 74, 56
1, 741940, Note_on_c, 0, 53, 37
1, 741941, Note_on_c, 0, 57, 34
1, 741943, Note_off_c, 0, 60, 30
1, 742058, Note_off_c, 0, 69, 28
1, 742105, Note_off_c, 0, 53, 47
1, 742129, Note_off_c, 0, 57, 42
1, 742157, Note_off_c, 0, 62, 43
1, 742163, Note_off_c, 0, 72, 33
1, 742257, Control_c, 0, 64, 82
1, 742271, Control_c, 0, 64, 79
1, 742286, Control_c, 0, 64, 74
1, 742293, Note_on_c, 0, 65, 50
1, 742294, Note_on_c, 0, 57, 26
1, 742296, Note_on_c, 0, 77, 64
1, 742301, Control_c, 0, 64, 67
1, 742312, Note_on_c, 0, 53, 29
1, 742316, Control_c, 0, 64, 59
1, 742331, Control_c, 0, 64, 15
1, 742345, Control_c, 0, 64, 0
1, 742350, Note_off_c, 0, 74, 56
1, 742419, Control_c, 0, 64, 21
1, 742434, Control_c, 0, 64, 51
1, 742449, Control_c, 0, 64, 62
1, 742463, Control_c, 0, 64, 65
1, 742478, Control_c, 0, 64, 66
1, 742493, Control_c, 0, 64, 67
1, 742508, Control_c, 0, 64, 68
1, 742523, Control_c, 0, 64, 70
1, 742538, Control_c, 0, 64, 72
1, 742552, Control_c, 0, 64, 73
1, 742560, Note_off_c, 0, 57, 39
1, 742567, Control_c, 0, 64, 74
1, 742681, Note_off_c, 0, 53, 41
1, 742842, Note_on_c, 0, 69, 52
1, 742844, Note_on_c, 0, 53, 31
1, 742862, Note_on_c, 0, 57, 31
1, 742960, Note_off_c, 0, 65, 37
1, 742961, Control_c, 0, 64, 73
1, 743012, Note_off_c, 0, 53, 48
1, 743024, Note_off_c, 0, 57, 51
1, 743035, Control_c, 0, 64, 73
1, 743059, Note_off_c, 0, 77, 33
1, 743094, Control_c, 0, 64, 72
1, 743109, Control_c, 0, 64, 72
1, 743124, Control_c, 0, 64, 71
1, 743139, Control_c, 0, 64, 68
1, 743144, Note_on_c, 0, 70, 58
1, 743154, Control_c, 0, 64, 62
1, 743160, Note_on_c, 0, 53, 34
1, 743161, Note_on_c, 0, 58, 47
1, 743168, Control_c, 0, 64, 45
1, 743172, Note_on_c, 0, 55, 38
1, 743183, Control_c, 0, 64, 0
1, 743284, Note_off_c, 0, 69, 38
1, 743286, Control_c, 0, 64, 50
1, 743301, Control_c, 0, 64, 62
1, 743316, Control_c, 0, 64, 65
1, 743331, Control_c, 0, 64, 66
1, 743346, Control_c, 0, 64, 67
1, 743360, Control_c, 0, 64, 69
1, 743375, Control_c, 0, 64, 72
1, 743390, Control_c, 0, 64, 74
1, 743405, Control_c, 0, 64, 77
1, 743420, Control_c, 0, 64, 78
1, 743434, Note_on_c, 0, 67, 58
1, 743436, Control_c, 0, 64, 79
1, 743465, Control_c, 0, 64, 79
1, 743480, Control_c, 0, 64, 80
1, 743507, Note_off_c, 0, 53, 40
1, 743547, Note_off_c, 0, 55, 35
1, 743566, Note_off_c, 0, 58, 36
1, 743651, Note_off_c, 0, 70, 30
1, 743707, Note_on_c, 0, 74, 53
1, 743727, Note_on_c, 0, 58, 23
1, 743727, Note_on_c, 0, 62, 31
1, 743739, Note_on_c, 0, 55, 7
1, 743761, Note_on_c, 0, 53, 31
1, 743838, Note_off_c, 0, 67, 37
1, 743865, Note_off_c, 0, 62, 42
1, 743888, Note_off_c, 0, 55, 35
1, 743891, Note_off_c, 0, 58, 42
1, 743894, Note_off_c, 0, 53, 26
1, 743989, Control_c, 0, 64, 79
1, 744004, Control_c, 0, 64, 78
1, 744019, Control_c, 0, 64, 74
1, 744031, Note_on_c, 0, 72, 54
1, 744034, Control_c, 0, 64, 68
1, 744040, Note_on_c, 0, 53, 26
1, 744049, Control_c, 0, 64, 53
1, 744062, Note_on_c, 0, 57, 32
1, 744064, Control_c, 0, 64, 0
1, 744067, Note_on_c, 0, 60, 28
1, 744079, Note_off_c, 0, 74, 61
1, 744153, Control_c, 0, 64, 32
1, 744168, Control_c, 0, 64, 59
1, 744182, Control_c, 0, 64, 66
1, 744197, Control_c, 0, 64, 70
1, 744212, Control_c, 0, 64, 73
1, 744228, Control_c, 0, 64, 74
1, 744243, Control_c, 0, 64, 76
1, 744257, Control_c, 0, 64, 78
1, 744272, Control_c, 0, 64, 80
1, 744287, Control_c, 0, 64, 81
1, 744296, Note_off_c, 0, 72, 62
1, 744302, Control_c, 0, 64, 82
1, 744362, Note_off_c, 0, 53, 43
1, 744419, Note_off_c, 0, 60, 42
1, 744425, Note_off_c, 0, 57, 40
1, 744589, Note_on_c, 0, 79, 66
1, 744594, Note_on_c, 0, 60, 25
1, 744611, Note_on_c, 0, 58, 31
1, 744619, Note_on_c, 0, 67, 33
1, 744622, Note_on_c, 0, 53, 32
1, 744764, Note_off_c, 0, 60, 37
1, 744770, Note_off_c, 0, 53, 41
1, 744804, Note_off_c, 0, 58, 41
1, 744827, Note_off_c, 0, 67, 43
1, 744943, Note_on_c, 0, 81, 64
1, 744946, Control_c, 0, 64, 81
1, 744961, Control_c, 0, 64, 76
1, 744970, Note_on_c, 0, 69, 47
1, 744976, Control_c, 0, 64, 68
1, 744985, Note_on_c, 0, 60, 29
1, 744991, Control_c, 0, 64, 58
1, 744994, Note_off_c, 0, 79, 60
1, 744996, Note_on_c, 0, 53, 33
1, 745005, Control_c, 0, 64, 0
1, 745080, Control_c, 0, 64, 50
1, 745095, Control_c, 0, 64, 63
1, 745110, Control_c, 0, 64, 68
1, 745125, Control_c, 0, 64, 73
1, 745140, Control_c, 0, 64, 77
1, 745154, Control_c, 0, 64, 80
1, 745169, Control_c, 0, 64, 83
1, 745184, Control_c, 0, 64, 88
1, 745206, Control_c, 0, 64, 92
1, 745214, Note_off_c, 0, 81, 61
1, 745221, Control_c, 0, 64, 97
1, 745235, Control_c, 0, 64, 99
1, 745250, Control_c, 0, 64, 101
1, 745265, Control_c, 0, 64, 101
1, 745277, Note_off_c, 0, 53, 43
1, 745331, Note_off_c, 0, 60, 34
1, 745412, Note_off_c, 0, 69, 38
1, 745502, Control_c, 0, 64, 101
1, 745514, Note_on_c, 0, 67, 35
1, 745518, Note_on_c, 0, 72, 45
1, 745527, Note_on_c, 0, 58, 29
1, 745533, Note_on_c, 0, 53, 33
1, 745538, Note_on_c, 0, 60, 8
1, 745547, Control_c, 0, 64, 100
1, 745561, Control_c, 0, 64, 100
1, 745576, Control_c, 0, 64, 99
1, 745605, Control_c, 0, 64, 99
1, 745635, Control_c, 0, 64, 98
1, 745650, Control_c, 0, 64, 98
1, 745658, Note_off_c, 0, 53, 43
1, 745676, Note_off_c, 0, 60, 39
1, 745679, Control_c, 0, 64, 97
1, 745682, Note_off_c, 0, 58, 43
1, 745694, Control_c, 0, 64, 97
1, 745739, Control_c, 0, 64, 96
1, 745754, Control_c, 0, 64, 94
1, 745769, Control_c, 0, 64, 86
1, 745784, Control_c, 0, 64, 77
1, 745787, Note_off_c, 0, 67, 38
1, 745798, Note_on_c, 0, 69, 43
1, 745798, Control_c, 0, 64, 68
1, 745813, Note_on_c, 0, 60, 32
1, 745813, Control_c, 0, 64, 59
1, 745815, Note_on_c, 0, 53, 17
1, 745819, Note_on_c, 0, 57, 30
1, 745820, Note_on_c, 0, 65, 31
1, 745829, Control_c, 0, 64, 34
1, 745844, Control_c, 0, 64, 0
1, 745858, Control_c, 0, 64, 12
1, 745865, Note_off_c, 0, 72, 36
1, 745873, Control_c, 0, 64, 41
1, 745888, Control_c, 0, 64, 55
1, 745903, Control_c, 0, 64, 63
1, 745918, Control_c, 0, 64, 66
1, 745933, Control_c, 0, 64, 69
1, 745955, Control_c, 0, 64, 71
1, 745955, Control_c, 0, 67, 120
1, 745970, Control_c, 0, 64, 75
1, 745970, Control_c, 0, 67, 95
1, 745984, Control_c, 0, 64, 78
1, 745984, Control_c, 0, 67, 69
1, 745999, Control_c, 0, 64, 82
1, 745999, Control_c, 0, 67, 45
1, 746014, Control_c, 0, 64, 86
1, 746014, Control_c, 0, 67, 26
1, 746028, Control_c, 0, 64, 90
1, 746028, Control_c, 0, 67, 13
1, 746035, Note_off_c, 0, 65, 49
1, 746043, Control_c, 0, 64, 93
1, 746043, Control_c, 0, 67, 0
1, 746058, Control_c, 0, 64, 95
1, 746073, Control_c, 0, 64, 95
1, 746080, Note_off_c, 0, 69, 65
1, 746108, Note_off_c, 0, 53, 42
1, 746171, Note_off_c, 0, 60, 40
1, 746192, Note_off_c, 0, 57, 39
1, 746350, Note_on_c, 0, 79, 65
1, 746375, Note_on_c, 0, 67, 40
1, 746393, Note_on_c, 0, 58, 24
1, 746398, Note_on_c, 0, 53, 24
1, 746404, Poly_aftertouch_c, 0, 60, 127
1, 746522, Poly_aftertouch_c, 0, 60, 0
1, 746527, Note_off_c, 0, 53, 42
1, 746544, Note_off_c, 0, 58, 42
1, 746560, Note_off_c, 0, 67, 37
1, 746651, Note_on_c, 0, 81, 63
1, 746651, Control_c, 0, 64, 93
1, 746666, Control_c, 0, 64, 86
1, 746667, Note_on_c, 0, 60, 33
1, 746675, Note_on_c, 0, 53, 32
1, 746680, Note_on_c, 0, 69, 41
1, 746681, Control_c, 0, 64, 75
1, 746689, Note_off_c, 0, 79, 59
1, 746704, Control_c, 0, 64, 66
1, 746719, Control_c, 0, 64, 54
1, 746733, Control_c, 0, 64, 30
1, 746748, Control_c, 0, 64, 34
1, 746763, Control_c, 0, 64, 46
1, 746778, Control_c, 0, 64, 57
1, 746778, Control_c, 0, 67, 9
1, 746793, Control_c, 0, 64, 63
1, 746793, Control_c, 0, 67, 13
1, 746807, Control_c, 0, 64, 67
1, 746807, Control_c, 0, 67, 19
1, 746822, Control_c, 0, 64, 72
1, 746822, Control_c, 0, 67, 27
1, 746837, Control_c, 0, 64, 75
1, 746837, Control_c, 0, 67, 33
1, 746851, Control_c, 0, 64, 77
1, 746851, Control_c, 0, 67, 40
1, 746866, Control_c, 0, 64, 80
1, 746866, Control_c, 0, 67, 45
1, 746869, Note_off_c, 0, 81, 61
1, 746881, Control_c, 0, 64, 83
1, 746881, Control_c, 0, 67, 51
1, 746896, Control_c, 0, 64, 87
1, 746896, Control_c, 0, 67, 58
1, 746911, Control_c, 0, 64, 90
1, 746911, Control_c, 0, 67, 65
1, 746925, Control_c, 0, 64, 91
1, 746925, Control_c, 0, 67, 71
1, 746940, Control_c, 0, 64, 92
1, 746940, Control_c, 0, 67, 76
1, 746955, Control_c, 0, 67, 82
1, 746958, Note_off_c, 0, 53, 42
1, 746970, Control_c, 0, 64, 92
1, 746970, Control_c, 0, 67, 85
1, 746985, Control_c, 0, 67, 87
1, 747002, Note_off_c, 0, 60, 34
1, 747089, Control_c, 0, 67, 86
1, 747104, Control_c, 0, 67, 86
1, 747119, Control_c, 0, 67, 85
1, 747133, Control_c, 0, 67, 84
1, 747148, Control_c, 0, 67, 83
1, 747163, Control_c, 0, 67, 83
1, 747177, Note_off_c, 0, 69, 41
1, 747178, Control_c, 0, 67, 82
1, 747190, Note_on_c, 0, 72, 38
1, 747193, Control_c, 0, 67, 81
1, 747207, Control_c, 0, 67, 80
1, 747209, Note_on_c, 0, 67, 37
1, 747218, Note_on_c, 0, 53, 30
1, 747222, Control_c, 0, 67, 79
1, 747224, Note_on_c, 0, 58, 17
1, 747229, Note_on_c, 0, 60, 20
1, 747237, Control_c, 0, 67, 78
1, 747251, Control_c, 0, 67, 77
1, 747266, Control_c, 0, 67, 76
1, 747281, Control_c, 0, 67, 75
1, 747296, Control_c, 0, 67, 74
1, 747311, Control_c, 0, 67, 72
1, 747325, Control_c, 0, 67, 70
1, 747340, Control_c, 0, 67, 69
1, 747349, Note_off_c, 0, 60, 36
1, 747355, Control_c, 0, 67, 68
1, 747359, Note_off_c, 0, 53, 43
1, 747359, Note_off_c, 0, 58, 42
1, 747370, Control_c, 0, 67, 67
1, 747384, Control_c, 0, 67, 66
1, 747399, Control_c, 0, 67, 65
1, 747414, Control_c, 0, 67, 65
1, 747430, Control_c, 0, 67, 64
1, 747437, Note_off_c, 0, 67, 34
1, 747453, Control_c, 0, 64, 92
1, 747453, Control_c, 0, 67, 63
1, 747468, Control_c, 0, 64, 87
1, 747468, Control_c, 0, 67, 62
1, 747482, Control_c, 0, 64, 77
1, 747482, Control_c, 0, 67, 61
1, 747484, Note_on_c, 0, 69, 39
1, 747486, Note_on_c, 0, 53, 31
1, 747497, Control_c, 0, 64, 66
1, 747497, Control_c, 0, 67, 60
1, 747507, Note_on_c, 0, 57, 28
1, 747507, Note_on_c, 0, 60, 21
1, 747512, Control_c, 0, 64, 55
1, 747512, Control_c, 0, 67, 59
1, 747527, Control_c, 0, 64, 40
1, 747527, Control_c, 0, 67, 59
1, 747528, Note_on_c, 0, 65, 36
1, 747542, Control_c, 0, 64, 44
1, 747556, Control_c, 0, 64, 54
1, 747571, Control_c, 0, 64, 61
1, 747586, Control_c, 0, 64, 66
1, 747594, Note_off_c, 0, 72, 33
1, 747601, Control_c, 0, 64, 70
1, 747616, Control_c, 0, 64, 75
1, 747630, Control_c, 0, 64, 79
1, 747645, Control_c, 0, 64, 83
1, 747660, Control_c, 0, 64, 87
1, 747660, Control_c, 0, 67, 58
1, 747674, Control_c, 0, 64, 92
1, 747678, Note_off_c, 0, 65, 48
1, 747681, Note_off_c, 0, 69, 65
1, 747689, Control_c, 0, 64, 95
1, 747704, Control_c, 0, 64, 98
1, 747704, Control_c, 0, 67, 58
1, 747719, Control_c, 0, 64, 101
1, 747734, Control_c, 0, 64, 104
1, 747734, Control_c, 0, 67, 57
1, 747748, Control_c, 0, 64, 105
1, 747748, Control_c, 0, 67, 57
1, 747763, Control_c, 0, 64, 106
1, 747763, Control_c, 0, 67, 51
1, 747778, Control_c, 0, 64, 107
1, 747778, Control_c, 0, 67, 43
1, 747793, Control_c, 0, 64, 107
1, 747793, Control_c, 0, 67, 35
1, 747808, Control_c, 0, 64, 108
1, 747808, Control_c, 0, 67, 29
1, 747823, Control_c, 0, 67, 25
1, 747835, Note_off_c, 0, 53, 43
1, 747838, Control_c, 0, 67, 21
1, 747852, Control_c, 0, 67, 16
1, 747867, Control_c, 0, 67, 12
1, 747871, Note_off_c, 0, 60, 38
1, 747882, Control_c, 0, 64, 109
1, 747882, Control_c, 0, 67, 0
1, 747888, Note_off_c, 0, 57, 40
1, 748034, Note_on_c, 0, 84, 53
1, 748061, Note_on_c, 0, 72, 30
1, 748076, Note_on_c, 0, 53, 42
1, 748080, Note_on_c, 0, 57, 6
1, 748081, Note_on_c, 0, 60, 21
1, 748165, Note_off_c, 0, 53, 38
1, 748183, Note_off_c, 0, 72, 44
1, 748217, Note_off_c, 0, 57, 41
1, 748252, Note_off_c, 0, 84, 36
1, 748334, Note_off_c, 0, 60, 30
1, 748383, Note_on_c, 0, 81, 61
1, 748387, Note_on_c, 0, 57, 27
1, 748404, Note_on_c, 0, 69, 36
1, 748419, Note_on_c, 0, 53, 31
1, 748514, Note_off_c, 0, 69, 49
1, 748612, Note_off_c, 0, 53, 43
1, 748657, Note_on_c, 0, 84, 68
1, 748665, Note_on_c, 0, 60, 41
1, 748675, Control_c, 0, 64, 108
1, 748677, Note_off_c, 0, 57, 41
1, 748693, Note_on_c, 0, 72, 15
1, 748746, Note_off_c, 0, 72, 47
1, 748752, Note_off_c, 0, 81, 29
1, 748780, Note_off_c, 0, 84, 60
1, 748919, Note_on_c, 0, 86, 66
1, 748929, Note_on_c, 0, 62, 43
1, 748940, Note_off_c, 0, 60, 25
1, 748940, Note_on_c, 0, 74, 46
1, 748955, Note_on_c, 0, 53, 23
1, 748963, Note_on_c, 0, 57, 17
1, 749038, Note_off_c, 0, 74, 57
1, 749068, Note_off_c, 0, 86, 61
1, 749083, Note_off_c, 0, 53, 42
1, 749085, Note_off_c, 0, 57, 41
1, 749125, Note_off_c, 0, 62, 40
1, 749256, Note_on_c, 0, 89, 70
1, 749277, Control_c, 0, 64, 105
1, 749283, Note_on_c, 0, 77, 54
1, 749286, Note_on_c, 0, 57, 36
1, 749289, Note_on_c, 0, 65, 38
1, 749292, Control_c, 0, 64, 92
1, 749298, Note_on_c, 0, 53, 28
1, 749307, Control_c, 0, 64, 75
1, 749321, Control_c, 0, 64, 64
1, 749336, Control_c, 0, 64, 46
1, 749351, Control_c, 0, 64, 14
1, 749366, Control_c, 0, 64, 28
1, 749381, Control_c, 0, 64, 46
1, 749395, Control_c, 0, 64, 61
1, 749410, Control_c, 0, 64, 66
1, 749425, Control_c, 0, 64, 71
1, 749440, Control_c, 0, 64, 77
1, 749454, Control_c, 0, 64, 82
1, 749469, Control_c, 0, 64, 87
1, 749484, Control_c, 0, 64, 92
1, 749489, Note_off_c, 0, 57, 54
1, 749495, Note_off_c, 0, 89, 62
1, 749499, Control_c, 0, 64, 100
1, 749514, Control_c, 0, 64, 110
1, 749528, Control_c, 0, 64, 125
1, 749543, Control_c, 0, 64, 127
1, 749569, Note_off_c, 0, 77, 61
1, 749576, Note_off_c, 0, 53, 42
1, 749804, Note_on_c, 0, 57, 37
1, 749807, Note_on_c, 0, 81, 64
1, 749812, Note_on_c, 0, 53, 37
1, 749815, Note_on_c, 0, 69, 48
1, 749912, Note_off_c, 0, 65, 37
1, 749960, Note_off_c, 0, 81, 59
1, 749971, Note_off_c, 0, 53, 43
1, 749987, Note_off_c, 0, 57, 41
1, 749996, Note_off_c, 0, 69, 62
1, 750142, Note_on_c, 0, 82, 72
1, 750148, Note_on_c, 0, 70, 65
1, 750159, Control_c, 0, 64, 95
1, 750163, Note_on_c, 0, 58, 43
1, 750167, Note_on_c, 0, 55, 39
1, 750174, Control_c, 0, 64, 76
1, 750189, Control_c, 0, 64, 63
1, 750197, Note_on_c, 0, 53, 24
1, 750203, Control_c, 0, 64, 42
1, 750218, Control_c, 0, 64, 0
1, 750233, Control_c, 0, 64, 21
1, 750247, Control_c, 0, 64, 45
1, 750262, Control_c, 0, 64, 61
1, 750276, Control_c, 0, 64, 67
1, 750291, Control_c, 0, 64, 71
1, 750306, Control_c, 0, 64, 76
1, 750321, Control_c, 0, 64, 79
1, 750336, Control_c, 0, 64, 82
1, 750344, Note_off_c, 0, 82, 61
1, 750350, Control_c, 0, 64, 86
1, 750358, Note_off_c, 0, 70, 59
1, 750365, Control_c, 0, 64, 89
1, 750380, Control_c, 0, 64, 92
1, 750395, Control_c, 0, 64, 93
1, 750410, Control_c, 0, 64, 93
1, 750488, Note_off_c, 0, 53, 41
1, 750502, Note_on_c, 0, 79, 66
1, 750505, Note_on_c, 0, 67, 55
1, 750549, Note_off_c, 0, 55, 31
1, 750564, Note_off_c, 0, 58, 38
1, 750573, Note_off_c, 0, 67, 39
1, 750592, Note_off_c, 0, 79, 59
1, 750759, Note_on_c, 0, 86, 61
1, 750790, Note_on_c, 0, 74, 46
1, 750798, Note_on_c, 0, 62, 22
1, 750804, Note_on_c, 0, 58, 9
1, 750821, Poly_aftertouch_c, 0, 55, 127
1, 750828, Note_on_c, 0, 53, 20
1, 750846, Note_off_c, 0, 74, 0
1, 750846, Note_on_c, 0, 74, 12
1, 750893, Poly_aftertouch_c, 0, 55, 0
1, 750912, Note_off_c, 0, 62, 42
1, 750946, Note_off_c, 0, 58, 37
1, 750956, Note_off_c, 0, 53, 39
1, 750959, Note_off_c, 0, 74, 51
1, 751038, Note_off_c, 0, 86, 55
1, 751055, Control_c, 0, 64, 93
1, 751070, Control_c, 0, 64, 86
1, 751075, Note_on_c, 0, 84, 62
1, 751084, Control_c, 0, 64, 74
1, 751088, Note_on_c, 0, 57, 40
1, 751092, Note_on_c, 0, 60, 31
1, 751097, Note_on_c, 0, 72, 47
1, 751099, Control_c, 0, 64, 62
1, 751106, Note_on_c, 0, 53, 29
1, 751114, Control_c, 0, 64, 0
1, 751173, Control_c, 0, 64, 40
1, 751196, Control_c, 0, 64, 61
1, 751205, Note_off_c, 0, 72, 62
1, 751211, Control_c, 0, 64, 67
1, 751225, Control_c, 0, 64, 71
1, 751240, Control_c, 0, 64, 74
1, 751255, Control_c, 0, 64, 76
1, 751266, Note_off_c, 0, 57, 54
1, 751270, Control_c, 0, 64, 79
1, 751285, Control_c, 0, 64, 81
1, 751299, Control_c, 0, 64, 83
1, 751309, Note_off_c, 0, 84, 62
1, 751314, Control_c, 0, 64, 85
1, 751316, Note_off_c, 0, 60, 39
1, 751319, Note_off_c, 0, 53, 42
1, 751329, Control_c, 0, 64, 85
1, 751388, Control_c, 0, 64, 86
1, 751605, Note_on_c, 0, 91, 72
1, 751631, Note_on_c, 0, 58, 33
1, 751635, Note_on_c, 0, 60, 25
1, 751635, Note_on_c, 0, 67, 33
1, 751635, Note_on_c, 0, 79, 46
1, 751646, Note_on_c, 0, 53, 29
1, 751731, Note_off_c, 0, 60, 34
1, 751752, Note_off_c, 0, 67, 42
1, 751776, Note_off_c, 0, 53, 41
1, 751801, Note_off_c, 0, 58, 38
1, 751827, Note_off_c, 0, 79, 56
1, 751956, Note_on_c, 0, 93, 69
1, 751960, Control_c, 0, 64, 85
1, 751969, Note_on_c, 0, 69, 47
1, 751969, Note_on_c, 0, 81, 47
1, 751974, Control_c, 0, 64, 78
1, 751975, Note_on_c, 0, 60, 36
1, 751979, Note_on_c, 0, 53, 28
1, 751989, Control_c, 0, 64, 66
1, 752002, Note_off_c, 0, 91, 58
1, 752004, Control_c, 0, 64, 42
1, 752019, Control_c, 0, 64, 0
1, 752093, Control_c, 0, 64, 53
1, 752108, Control_c, 0, 64, 66
1, 752122, Control_c, 0, 64, 75
1, 752122, Control_c, 0, 67, 8
1, 752137, Control_c, 0, 64, 83
1, 752137, Control_c, 0, 67, 17
1, 752152, Control_c, 0, 64, 86
1, 752152, Control_c, 0, 67, 26
1, 752157, Note_off_c, 0, 93, 58
1, 752166, Control_c, 0, 64, 88
1, 752166, Control_c, 0, 67, 34
1, 752181, Control_c, 0, 64, 92
1, 752181, Control_c, 0, 67, 40
1, 752196, Control_c, 0, 64, 95
1, 752196, Control_c, 0, 67, 46
1, 752198, Note_off_c, 0, 81, 58
1, 752211, Control_c, 0, 64, 99
1, 752211, Control_c, 0, 67, 49
1, 752227, Control_c, 0, 64, 100
1, 752227, Control_c, 0, 67, 50
1, 752249, Note_off_c, 0, 53, 41
1, 752254, Note_off_c, 0, 69, 38
1, 752257, Control_c, 0, 64, 101
1, 752270, Note_off_c, 0, 60, 32
1, 752345, Control_c, 0, 67, 51
1, 752375, Control_c, 0, 67, 51
1, 752389, Control_c, 0, 67, 52
1, 752404, Control_c, 0, 67, 52
1, 752535, Note_on_c, 0, 72, 40
1, 752538, Note_on_c, 0, 84, 46
1, 752547, Note_on_c, 0, 58, 27
1, 752548, Note_on_c, 0, 67, 39
1, 752565, Note_on_c, 0, 53, 28
1, 752565, Note_on_c, 0, 60, 26
1, 752568, Control_c, 0, 67, 52
1, 752601, Note_off_c, 0, 72, 0
1, 752601, Note_on_c, 0, 72, 7
1, 752628, Control_c, 0, 67, 51
1, 752643, Note_off_c, 0, 67, 52
1, 752658, Control_c, 0, 67, 51
1, 752696, Note_off_c, 0, 58, 42
1, 752701, Note_off_c, 0, 72, 37
1, 752709, Control_c, 0, 67, 50
1, 752724, Control_c, 0, 67, 50
1, 752725, Note_off_c, 0, 60, 22
1, 752726, Note_off_c, 0, 53, 41
1, 752743, Note_off_c, 0, 84, 34
1, 752768, Control_c, 0, 64, 100
1, 752783, Control_c, 0, 67, 49
1, 752798, Control_c, 0, 67, 49
1, 752828, Control_c, 0, 64, 99
1, 752842, Control_c, 0, 64, 93
1, 752857, Control_c, 0, 64, 85
1, 752859, Note_on_c, 0, 81, 48
1, 752864, Note_on_c, 0, 57, 34
1, 752872, Control_c, 0, 64, 75
1, 752881, Note_on_c, 0, 69, 35
1, 752881, Note_on_c, 0, 60, 35
1, 752883, Note_on_c, 0, 53, 15
1, 752887, Control_c, 0, 64, 66
1, 752887, Control_c, 0, 67, 48
1, 752902, Control_c, 0, 64, 53
1, 752902, Control_c, 0, 67, 48
1, 752908, Note_on_c, 0, 65, 23
1, 752917, Control_c, 0, 64, 0
1, 752917, Control_c, 0, 67, 47
1, 752932, Control_c, 0, 67, 47
1, 752961, Control_c, 0, 64, 31
1, 752961, Control_c, 0, 67, 46
1, 752976, Control_c, 0, 64, 50
1, 752990, Control_c, 0, 64, 59
1, 752990, Control_c, 0, 67, 45
1, 753005, Control_c, 0, 64, 63
1, 753005, Control_c, 0, 67, 44
1, 753021, Control_c, 0, 64, 65
1, 753021, Control_c, 0, 67, 43
1, 753036, Control_c, 0, 64, 67
1, 753036, Control_c, 0, 67, 42
1, 753048, Note_off_c, 0, 69, 53
1, 753051, Control_c, 0, 64, 70
1, 753051, Control_c, 0, 67, 40
1, 753066, Control_c, 0, 64, 74
1, 753066, Control_c, 0, 67, 38
1, 753081, Control_c, 0, 64, 78
1, 753081, Control_c, 0, 67, 36
1, 753095, Control_c, 0, 64, 81
1, 753095, Control_c, 0, 67, 32
1, 753110, Control_c, 0, 64, 82
1, 753110, Control_c, 0, 67, 26
1, 753125, Control_c, 0, 64, 83
1, 753125, Control_c, 0, 67, 20
1, 753140, Note_off_c, 0, 81, 58
1, 753140, Control_c, 0, 64, 84
1, 753140, Control_c, 0, 67, 15
1, 753151, Note_off_c, 0, 57, 36
1, 753155, Control_c, 0, 64, 84
1, 753155, Control_c, 0, 67, 12
1, 753165, Note_off_c, 0, 53, 41
1, 753169, Control_c, 0, 64, 85
1, 753169, Control_c, 0, 67, 11
1, 753184, Control_c, 0, 64, 85
1, 753184, Control_c, 0, 67, 10
1, 753188, Note_off_c, 0, 65, 40
1, 753199, Control_c, 0, 64, 86
1, 753200, Note_off_c, 0, 60, 34
1, 753228, Control_c, 0, 64, 86
1, 753400, Note_on_c, 0, 91, 73
1, 753406, Control_c, 0, 67, 10
1, 753409, Note_on_c, 0, 79, 57
1, 753411, Note_on_c, 0, 60, 31
1, 753430, Note_on_c, 0, 58, 29
1, 753431, Note_on_c, 0, 53, 31
1, 753450, Note_on_c, 0, 67, 18
1, 753454, Note_off_c, 0, 79, 0
1, 753454, Note_on_c, 0, 79, 24
1, 753532, Control_c, 0, 67, 11
1, 753556, Note_off_c, 0, 60, 35
1, 753584, Note_off_c, 0, 67, 42
1, 753590, Note_off_c, 0, 53, 42
1, 753632, Note_off_c, 0, 58, 40
1, 753634, Note_off_c, 0, 79, 47
1, 753635, Control_c, 0, 67, 11
1, 753665, Control_c, 0, 67, 12
1, 753725, Control_c, 0, 64, 86
1, 753725, Control_c, 0, 67, 12
1, 753730, Note_on_c, 0, 93, 70
1, 753739, Control_c, 0, 64, 78
1, 753739, Control_c, 0, 67, 13
1, 753740, Note_on_c, 0, 53, 35
1, 753747, Note_on_c, 0, 60, 38
1, 753748, Note_on_c, 0, 69, 44
1, 753749, Note_on_c, 0, 81, 49
1, 753754, Control_c, 0, 64, 67
1, 753769, Control_c, 0, 64, 50
1, 753769, Control_c, 0, 67, 14
1, 753784, Control_c, 0, 64, 0
1, 753784, Control_c, 0, 67, 15
1, 753787, Note_off_c, 0, 91, 51
1, 753796, Note_off_c, 0, 69, 0
1, 753796, Note_on_c, 0, 69, 14
1, 753799, Control_c, 0, 67, 15
1, 753814, Control_c, 0, 67, 16
1, 753829, Control_c, 0, 67, 17
1, 753844, Control_c, 0, 64, 44
1, 753844, Control_c, 0, 67, 18
1, 753859, Control_c, 0, 64, 63
1, 753859, Control_c, 0, 67, 19
1, 753874, Control_c, 0, 64, 70
1, 753874, Control_c, 0, 67, 20
1, 753889, Control_c, 0, 64, 76
1, 753889, Control_c, 0, 67, 21
1, 753904, Control_c, 0, 64, 79
1, 753904, Control_c, 0, 67, 22
1, 753918, Control_c, 0, 64, 80
1, 753918, Control_c, 0, 67, 27
1, 753930, Note_off_c, 0, 93, 60
1, 753933, Control_c, 0, 64, 82
1, 753933, Control_c, 0, 67, 31
1, 753948, Control_c, 0, 64, 85
1, 753948, Control_c, 0, 67, 36
1, 753963, Control_c, 0, 64, 86
1, 753963, Control_c, 0, 67, 41
1, 753966, Note_off_c, 0, 81, 58
1, 753978, Control_c, 0, 64, 87
1, 753978, Control_c, 0, 67, 46
1, 753991, Control_c, 0, 67, 51
1, 754006, Control_c, 0, 67, 55
1, 754021, Note_off_c, 0, 69, 45
1, 754021, Control_c, 0, 67, 60
1, 754023, Note_off_c, 0, 60, 33
1, 754035, Control_c, 0, 67, 63
1, 754050, Control_c, 0, 67, 67
1, 754060, Note_off_c, 0, 53, 39
1, 754065, Control_c, 0, 67, 71
1, 754080, Control_c, 0, 67, 75
1, 754095, Control_c, 0, 67, 80
1, 754109, Control_c, 0, 67, 87
1, 754124, Control_c, 0, 67, 94
1, 754139, Control_c, 0, 67, 100
1, 754154, Control_c, 0, 67, 104
1, 754169, Control_c, 0, 67, 108
1, 754191, Control_c, 0, 67, 110
1, 754206, Control_c, 0, 67, 111
1, 754265, Control_c, 0, 64, 84
1, 754280, Control_c, 0, 64, 75
1, 754295, Note_on_c, 0, 67, 35
1, 754295, Control_c, 0, 64, 66
1, 754296, Note_on_c, 0, 84, 51
1, 754300, Note_on_c, 0, 72, 43
1, 754303, Note_on_c, 0, 58, 35
1, 754310, Control_c, 0, 64, 60
1, 754312, Note_on_c, 0, 60, 25
1, 754324, Note_on_c, 0, 53, 16
1, 754324, Control_c, 0, 64, 55
1, 754339, Control_c, 0, 64, 57
1, 754354, Control_c, 0, 64, 60
1, 754369, Control_c, 0, 64, 63
1, 754384, Control_c, 0, 64, 66
1, 754399, Control_c, 0, 64, 68
1, 754413, Control_c, 0, 64, 69
1, 754428, Control_c, 0, 64, 70
1, 754428, Control_c, 0, 67, 110
1, 754443, Control_c, 0, 64, 71
1, 754443, Control_c, 0, 67, 110
1, 754454, Note_off_c, 0, 58, 38
1, 754458, Control_c, 0, 64, 72
1, 754458, Control_c, 0, 67, 109
1, 754458, Note_off_c, 0, 72, 61
1, 754460, Note_off_c, 0, 67, 40
1, 754473, Control_c, 0, 64, 73
1, 754473, Control_c, 0, 67, 109
1, 754480, Note_off_c, 0, 60, 33
1, 754485, Note_off_c, 0, 53, 42
1, 754488, Control_c, 0, 67, 108
1, 754503, Control_c, 0, 64, 74
1, 754516, Note_off_c, 0, 84, 37
1, 754622, Control_c, 0, 64, 73
1, 754637, Control_c, 0, 64, 70
1, 754652, Control_c, 0, 64, 64
1, 754655, Note_on_c, 0, 57, 33
1, 754659, Note_on_c, 0, 81, 46
1, 754661, Note_on_c, 0, 60, 18
1, 754666, Control_c, 0, 64, 43
1, 754670, Note_on_c, 0, 53, 6
1, 754679, Note_on_c, 0, 65, 31
1, 754681, Control_c, 0, 64, 0
1, 754693, Note_on_c, 0, 69, 26
1, 754755, Control_c, 0, 64, 47
1, 754770, Control_c, 0, 64, 63
1, 754784, Control_c, 0, 64, 68
1, 754784, Control_c, 0, 67, 109
1, 754799, Control_c, 0, 64, 72
1, 754814, Control_c, 0, 64, 74
1, 754829, Control_c, 0, 64, 74
1, 754837, Note_off_c, 0, 69, 42
1, 754838, Note_off_c, 0, 57, 51
1, 754844, Control_c, 0, 64, 76
1, 754858, Control_c, 0, 64, 77
1, 754873, Control_c, 0, 64, 77
1, 754888, Control_c, 0, 64, 78
1, 754888, Control_c, 0, 67, 108
1, 754903, Control_c, 0, 67, 108
1, 754904, Note_off_c, 0, 81, 57
1, 754918, Control_c, 0, 67, 107
1, 754925, Note_off_c, 0, 65, 41
1, 754955, Note_off_c, 0, 53, 39
1, 755012, Note_off_c, 0, 60, 39
1, 755221, Control_c, 0, 64, 75
1, 755236, Control_c, 0, 64, 68
1, 755251, Control_c, 0, 64, 61
1, 755266, Control_c, 0, 64, 38
1, 755276, Note_on_c, 0, 86, 51
1, 755281, Control_c, 0, 64, 0
1, 755285, Note_on_c, 0, 62, 31
1, 755288, Note_on_c, 0, 74, 36
1, 755292, Note_on_c, 0, 57, 27
1, 755301, Note_on_c, 0, 53, 6
1, 755311, Control_c, 0, 64, 12
1, 755311, Control_c, 0, 67, 108
1, 755326, Control_c, 0, 64, 43
1, 755340, Control_c, 0, 64, 56
1, 755355, Control_c, 0, 64, 62
1, 755355, Control_c, 0, 67, 108
1, 755370, Control_c, 0, 64, 64
1, 755370, Control_c, 0, 67, 109
1, 755384, Control_c, 0, 64, 66
1, 755399, Control_c, 0, 64, 67
1, 755415, Control_c, 0, 64, 68
1, 755430, Control_c, 0, 64, 70
1, 755445, Control_c, 0, 64, 72
1, 755445, Control_c, 0, 67, 109
1, 755460, Control_c, 0, 64, 74
1, 755460, Control_c, 0, 67, 110
1, 755466, Note_off_c, 0, 86, 37
1, 755475, Control_c, 0, 64, 74
1, 755477, Note_off_c, 0, 74, 39
1, 755504, Control_c, 0, 67, 110
1, 755517, Note_off_c, 0, 53, 37
1, 755519, Control_c, 0, 67, 111
1, 755535, Note_off_c, 0, 57, 27
1, 755549, Control_c, 0, 67, 111
1, 755564, Control_c, 0, 67, 112
1, 755594, Control_c, 0, 67, 112
1, 755599, Note_off_c, 0, 62, 35
1, 755608, Control_c, 0, 67, 113
1, 755638, Control_c, 0, 67, 114
1, 755653, Control_c, 0, 67, 117
1, 755668, Control_c, 0, 67, 118
1, 755689, Control_c, 0, 64, 73
1, 755689, Control_c, 0, 67, 120
1, 755695, Note_on_c, 0, 57, 21
1, 755704, Control_c, 0, 64, 69
1, 755704, Control_c, 0, 67, 121
1, 755705, Note_on_c, 0, 81, 36
1, 755713, Note_on_c, 0, 53, 19
1, 755719, Control_c, 0, 64, 63
1, 755719, Control_c, 0, 67, 121
1, 755720, Note_on_c, 0, 60, 25
1, 755725, Note_on_c, 0, 69, 36
1, 755734, Control_c, 0, 64, 51
1, 755734, Control_c, 0, 67, 122
1, 755749, Control_c, 0, 64, 20
1, 755749, Control_c, 0, 67, 122
1, 755764, Control_c, 0, 64, 0
1, 755779, Control_c, 0, 67, 123
1, 755808, Control_c, 0, 64, 33
1, 755823, Control_c, 0, 64, 48
1, 755838, Control_c, 0, 64, 58
1, 755853, Control_c, 0, 64, 63
1, 755868, Control_c, 0, 64, 65
1, 755883, Control_c, 0, 64, 66
1, 755897, Control_c, 0, 64, 67
1, 755912, Control_c, 0, 64, 70
1, 755927, Control_c, 0, 64, 74
1, 755933, Note_off_c, 0, 69, 43
1, 755941, Control_c, 0, 64, 77
1, 755956, Control_c, 0, 64, 79
1, 755966, Note_off_c, 0, 81, 55
1, 755971, Control_c, 0, 64, 80
1, 755986, Control_c, 0, 64, 81
1, 756001, Control_c, 0, 64, 81
1, 756030, Control_c, 0, 67, 123
1, 756041, Note_off_c, 0, 53, 40
1, 756045, Control_c, 0, 67, 124
1, 756089, Note_off_c, 0, 57, 38
1, 756089, Control_c, 0, 67, 124
1, 756104, Control_c, 0, 67, 125
1, 756119, Control_c, 0, 67, 127
1, 756189, Note_off_c, 0, 60, 36
1, 756355, Control_c, 0, 64, 80
1, 756370, Control_c, 0, 64, 75
1, 756385, Control_c, 0, 64, 67
1, 756400, Control_c, 0, 64, 62
1, 756401, Note_on_c, 0, 74, 40
1, 756402, Note_on_c, 0, 86, 52
1, 756415, Control_c, 0, 64, 58
1, 756417, Note_on_c, 0, 62, 30
1, 756435, Note_on_c, 0, 57, 21
1, 756437, Control_c, 0, 64, 57
1, 756452, Control_c, 0, 64, 59
1, 756461, Poly_aftertouch_c, 0, 53, 127
1, 756467, Control_c, 0, 64, 62
1, 756482, Control_c, 0, 64, 65
1, 756497, Control_c, 0, 64, 67
1, 756511, Control_c, 0, 64, 68
1, 756526, Control_c, 0, 64, 69
1, 756541, Control_c, 0, 64, 71
1, 756555, Note_off_c, 0, 74, 52
1, 756556, Control_c, 0, 64, 72
1, 756570, Control_c, 0, 64, 72
1, 756598, Note_off_c, 0, 86, 33
1, 756619, Note_off_c, 0, 57, 33
1, 756629, Control_c, 0, 64, 73
1, 756677, Poly_aftertouch_c, 0, 53, 0
1, 756803, Note_off_c, 0, 62, 28
1, 756882, Control_c, 0, 64, 72
1, 756891, Note_on_c, 0, 81, 36
1, 756891, Note_on_c, 0, 57, 26
1, 756897, Control_c, 0, 64, 71
1, 756898, Note_on_c, 0, 69, 30
1, 756905, Note_on_c, 0, 60, 30
1, 756907, Note_on_c, 0, 53, 24
1, 756911, Control_c, 0, 64, 70
1, 756926, Control_c, 0, 64, 67
1, 756941, Control_c, 0, 64, 63
1, 756955, Control_c, 0, 64, 52
1, 756970, Control_c, 0, 64, 31
1, 756985, Control_c, 0, 64, 0
1, 757046, Control_c, 0, 64, 22
1, 757060, Control_c, 0, 64, 44
1, 757075, Control_c, 0, 64, 56
1, 757090, Control_c, 0, 64, 62
1, 757105, Control_c, 0, 64, 64
1, 757120, Control_c, 0, 64, 64
1, 757127, Note_off_c, 0, 69, 47
1, 757134, Control_c, 0, 64, 66
1, 757149, Control_c, 0, 64, 68
1, 757164, Control_c, 0, 64, 71
1, 757186, Control_c, 0, 64, 74
1, 757201, Control_c, 0, 64, 76
1, 757215, Control_c, 0, 64, 76
1, 757245, Control_c, 0, 64, 77
1, 757332, Note_off_c, 0, 81, 41
1, 757422, Note_off_c, 0, 53, 43
1, 757478, Note_off_c, 0, 57, 34
1, 757501, Note_off_c, 0, 60, 39
1, 757734, Note_on_c, 0, 86, 54
1, 757743, Note_on_c, 0, 57, 24
1, 757745, Note_on_c, 0, 53, 35
1, 757745, Note_on_c, 0, 74, 41
1, 757749, Control_c, 0, 64, 76
1, 757751, Note_on_c, 0, 62, 28
1, 757764, Control_c, 0, 64, 76
1, 757791, Note_off_c, 0, 53, 47
1, 757793, Control_c, 0, 64, 75
1, 757830, Note_off_c, 0, 62, 39
1, 757837, Note_off_c, 0, 86, 51
1, 757838, Control_c, 0, 64, 75
1, 757847, Note_off_c, 0, 57, 36
1, 757852, Note_off_c, 0, 74, 58
1, 757853, Control_c, 0, 64, 74
1, 757883, Control_c, 0, 64, 74
1, 757913, Control_c, 0, 64, 73
1, 757935, Control_c, 0, 64, 72
1, 757950, Control_c, 0, 64, 70
1, 757964, Control_c, 0, 64, 68
1, 757979, Control_c, 0, 64, 64
1, 757994, Control_c, 0, 64, 60
1, 758008, Control_c, 0, 64, 46
1, 758020, Note_on_c, 0, 57, 23
1, 758023, Control_c, 0, 64, 19
1, 758029, Note_on_c, 0, 88, 57
1, 758036, Note_on_c, 0, 76, 47
1, 758038, Note_on_c, 0, 52, 37
1, 758038, Control_c, 0, 64, 0
1, 758042, Note_on_c, 0, 64, 32
1, 758047, Note_on_c, 0, 60, 34
1, 758071, Note_off_c, 0, 76, 55
1, 758098, Note_off_c, 0, 52, 49
1, 758103, Note_off_c, 0, 60, 55
1, 758104, Note_off_c, 0, 64, 42
1, 758105, Note_off_c, 0, 88, 57
1, 758126, Note_off_c, 0, 57, 40
1, 758283, Note_on_c, 0, 88, 58
1, 758286, Note_on_c, 0, 76, 49
1, 758299, Note_on_c, 0, 60, 18
1, 758300, Note_on_c, 0, 57, 17
1, 758311, Note_on_c, 0, 52, 23
1, 758315, Note_on_c, 0, 64, 19
1, 758340, Note_off_c, 0, 57, 45
1, 758348, Note_off_c, 0, 60, 47
1, 758350, Note_off_c, 0, 76, 57
1, 758355, Note_off_c, 0, 52, 53
1, 758359, Note_off_c, 0, 64, 49
1, 758366, Note_off_c, 0, 88, 58
1, 758542, Note_on_c, 0, 56, 31
1, 758547, Note_on_c, 0, 88, 49
1, 758553, Note_on_c, 0, 59, 25
1, 758559, Note_on_c, 0, 76, 36
1, 758560, Note_on_c, 0, 52, 18
1, 758578, Note_on_c, 0, 64, 23
1, 758624, Note_off_c, 0, 52, 44
1, 758631, Note_off_c, 0, 76, 42
1, 758639, Note_off_c, 0, 56, 50
1, 758639, Note_off_c, 0, 64, 43
1, 758640, Note_off_c, 0, 59, 39
1, 758645, Note_off_c, 0, 88, 53
1, 758870, Note_on_c, 0, 57, 32
1, 758871, Note_on_c, 0, 88, 41
1, 758873, Note_on_c, 0, 60, 31
1, 758886, Note_on_c, 0, 76, 29
1, 758912, Note_on_c, 0, 64, 14
1, 758980, Control_c, 0, 64, 36
1, 758980, Control_c, 0, 67, 127
1, 758995, Control_c, 0, 64, 51
1, 758995, Control_c, 0, 67, 119
1, 759010, Control_c, 0, 64, 60
1, 759010, Control_c, 0, 67, 109
1, 759025, Control_c, 0, 64, 65
1, 759025, Control_c, 0, 67, 99
1, 759036, Note_off_c, 0, 88, 37
1, 759039, Control_c, 0, 64, 69
1, 759039, Control_c, 0, 67, 87
1, 759054, Control_c, 0, 64, 77
1, 759054, Control_c, 0, 67, 75
1, 759069, Control_c, 0, 64, 84
1, 759069, Control_c, 0, 67, 61
1, 759084, Control_c, 0, 64, 86
1, 759084, Control_c, 0, 67, 49
1, 759099, Control_c, 0, 67, 38
1, 759113, Control_c, 0, 67, 29
1, 759128, Control_c, 0, 67, 20
1, 759137, Note_off_c, 0, 76, 55
1, 759143, Control_c, 0, 67, 12
1, 759157, Control_c, 0, 67, 0
1, 759174, Note_off_c, 0, 64, 40
1, 759246, Note_off_c, 0, 57, 40
1, 759247, Note_off_c, 0, 60, 40
1, 759411, Control_c, 0, 64, 81
1, 759426, Control_c, 0, 64, 74
1, 759443, Note_on_c, 0, 76, 55
1, 759445, Note_on_c, 0, 57, 25
1, 759448, Control_c, 0, 64, 66
1, 759456, Note_on_c, 0, 60, 40
1, 759463, Control_c, 0, 64, 63
1, 759475, Note_on_c, 0, 64, 38
1, 759508, Control_c, 0, 64, 64
1, 759523, Control_c, 0, 64, 65
1, 759537, Control_c, 0, 64, 67
1, 759552, Control_c, 0, 64, 69
1, 759567, Control_c, 0, 64, 69
1, 759581, Control_c, 0, 64, 70
1, 759626, Control_c, 0, 64, 70
1, 759635, Note_off_c, 0, 60, 50
1, 759638, Note_off_c, 0, 57, 35
1, 759647, Note_off_c, 0, 64, 43
1, 759759, Control_c, 0, 64, 69
1, 759763, Note_on_c, 0, 77, 64
1, 759770, Note_on_c, 0, 65, 49
1, 759774, Control_c, 0, 64, 67
1, 759779, Note_on_c, 0, 53, 39
1, 759788, Control_c, 0, 64, 64
1, 759790, Note_on_c, 0, 63, 43
1, 759803, Control_c, 0, 64, 59
1, 759817, Note_on_c, 0, 57, 19
1, 759818, Control_c, 0, 64, 39
1, 759819, Note_on_c, 0, 60, 29
1, 759821, Note_off_c, 0, 76, 61
1, 759833, Control_c, 0, 64, 0
1, 759952, Control_c, 0, 64, 45
1, 759967, Control_c, 0, 64, 58
1, 759981, Control_c, 0, 64, 64
1, 759996, Control_c, 0, 64, 66
1, 760011, Control_c, 0, 64, 69
1, 760026, Control_c, 0, 64, 71
1, 760041, Control_c, 0, 64, 74
1, 760055, Control_c, 0, 64, 77
1, 760070, Control_c, 0, 64, 82
1, 760085, Control_c, 0, 64, 87
1, 760099, Control_c, 0, 64, 92
1, 760103, Note_off_c, 0, 65, 59
1, 760114, Control_c, 0, 64, 98
1, 760129, Control_c, 0, 64, 102
1, 760144, Control_c, 0, 64, 105
1, 760159, Control_c, 0, 64, 107
1, 760181, Control_c, 0, 64, 107
1, 760196, Note_off_c, 0, 53, 40
1, 760196, Control_c, 0, 64, 108
1, 760204, Note_off_c, 0, 60, 35
1, 760209, Note_off_c, 0, 57, 37
1, 760288, Note_on_c, 0, 76, 71
1, 760302, Note_on_c, 0, 64, 60
1, 760310, Note_on_c, 0, 57, 41
1, 760310, Note_off_c, 0, 63, 37
1, 760311, Note_on_c, 0, 60, 44
1, 760368, Note_off_c, 0, 77, 36
1, 760419, Control_c, 0, 64, 107
1, 760488, Note_off_c, 0, 64, 55
1, 760496, Note_off_c, 0, 60, 35
1, 760510, Note_off_c, 0, 57, 32
1, 760537, Control_c, 0, 64, 107
1, 760552, Control_c, 0, 64, 106
1, 760567, Control_c, 0, 64, 106
1, 760582, Control_c, 0, 64, 105
1, 760597, Control_c, 0, 64, 101
1, 760611, Control_c, 0, 64, 95
1, 760620, Note_on_c, 0, 77, 82
1, 760626, Control_c, 0, 64, 88
1, 760639, Note_on_c, 0, 65, 56
1, 760640, Note_on_c, 0, 53, 37
1, 760641, Control_c, 0, 64, 81
1, 760645, Note_on_c, 0, 63, 44
1, 760653, Note_on_c, 0, 57, 27
1, 760656, Control_c, 0, 64, 74
1, 760667, Note_on_c, 0, 60, 32
1, 760671, Control_c, 0, 64, 67
1, 760679, Note_off_c, 0, 76, 62
1, 760685, Control_c, 0, 64, 55
1, 760700, Control_c, 0, 64, 0
1, 760774, Control_c, 0, 64, 43
1, 760789, Control_c, 0, 64, 58
1, 760803, Control_c, 0, 64, 64
1, 760808, Note_off_c, 0, 57, 42
1, 760818, Control_c, 0, 64, 67
1, 760833, Control_c, 0, 64, 68
1, 760838, Note_off_c, 0, 60, 41
1, 760848, Control_c, 0, 64, 70
1, 760863, Control_c, 0, 64, 72
1, 760877, Control_c, 0, 64, 76
1, 760878, Note_off_c, 0, 53, 52
1, 760892, Control_c, 0, 64, 80
1, 760907, Control_c, 0, 64, 83
1, 760929, Control_c, 0, 64, 85
1, 760944, Control_c, 0, 64, 87
1, 760959, Control_c, 0, 64, 87
1, 760961, Note_off_c, 0, 65, 56
1, 760974, Control_c, 0, 64, 88
1, 761019, Control_c, 0, 64, 89
1, 761034, Note_off_c, 0, 63, 35
1, 761049, Control_c, 0, 64, 89
1, 761064, Control_c, 0, 64, 90
1, 761079, Control_c, 0, 64, 91
1, 761094, Control_c, 0, 64, 92
1, 761138, Control_c, 0, 64, 90
1, 761152, Note_on_c, 0, 74, 71
1, 761152, Control_c, 0, 64, 82
1, 761165, Note_on_c, 0, 62, 51
1, 761167, Control_c, 0, 64, 69
1, 761176, Note_on_c, 0, 58, 41
1, 761178, Note_on_c, 0, 70, 50
1, 761182, Control_c, 0, 64, 61
1, 761193, Note_on_c, 0, 65, 41
1, 761197, Control_c, 0, 64, 53
1, 761212, Control_c, 0, 64, 54
1, 761226, Control_c, 0, 64, 58
1, 761235, Note_off_c, 0, 77, 37
1, 761241, Control_c, 0, 64, 62
1, 761256, Control_c, 0, 64, 64
1, 761271, Control_c, 0, 64, 66
1, 761286, Control_c, 0, 64, 67
1, 761300, Control_c, 0, 64, 68
1, 761315, Control_c, 0, 64, 68
1, 761330, Control_c, 0, 64, 69
1, 761345, Control_c, 0, 64, 69
1, 761347, Note_off_c, 0, 62, 46
1, 761358, Note_off_c, 0, 70, 53
1, 761366, Note_off_c, 0, 65, 59
1, 761369, Note_off_c, 0, 58, 36
1, 761427, Note_off_c, 0, 74, 56
1, 761433, Control_c, 0, 64, 68
1, 761448, Control_c, 0, 64, 65
1, 761462, Note_on_c, 0, 77, 73
1, 761463, Control_c, 0, 64, 57
1, 761478, Note_on_c, 0, 50, 41
1, 761478, Control_c, 0, 64, 20
1, 761482, Note_on_c, 0, 58, 29
1, 761482, Note_on_c, 0, 62, 46
1, 761484, Note_on_c, 0, 65, 45
1, 761484, Note_on_c, 0, 70, 56
1, 761493, Control_c, 0, 64, 0
1, 761538, Control_c, 0, 64, 38
1, 761552, Control_c, 0, 64, 58
1, 761567, Control_c, 0, 64, 65
1, 761582, Control_c, 0, 64, 67
1, 761597, Control_c, 0, 64, 69
1, 761612, Control_c, 0, 64, 71
1, 761626, Control_c, 0, 64, 75
1, 761630, Note_off_c, 0, 65, 61
1, 761632, Note_off_c, 0, 70, 61
1, 761641, Control_c, 0, 64, 79
1, 761651, Note_off_c, 0, 77, 61
1, 761656, Note_off_c, 0, 62, 55
1, 761656, Control_c, 0, 64, 80
1, 761687, Note_off_c, 0, 58, 39
1, 761693, Control_c, 0, 64, 76
1, 761708, Control_c, 0, 64, 71
1, 761717, Note_off_c, 0, 50, 40
1, 761723, Control_c, 0, 64, 66
1, 761738, Control_c, 0, 64, 63
1, 761741, Note_on_c, 0, 77, 72
1, 761758, Note_on_c, 0, 70, 60
1, 761764, Note_on_c, 0, 65, 57
1, 761767, Control_c, 0, 64, 64
1, 761768, Note_on_c, 0, 53, 51
1, 761771, Note_on_c, 0, 62, 52
1, 761772, Note_on_c, 0, 58, 26
1, 761782, Control_c, 0, 64, 67
1, 761797, Control_c, 0, 64, 71
1, 761812, Control_c, 0, 64, 73
1, 761827, Control_c, 0, 64, 74
1, 761845, Note_off_c, 0, 53, 65
1, 761860, Note_off_c, 0, 58, 59
1, 761860, Note_off_c, 0, 62, 58
1, 761877, Note_off_c, 0, 70, 58
1, 761898, Note_off_c, 0, 77, 59
1, 761900, Note_off_c, 0, 65, 57
1, 761975, Control_c, 0, 64, 74
1, 761990, Control_c, 0, 64, 68
1, 762005, Control_c, 0, 64, 59
1, 762012, Note_on_c, 0, 72, 70
1, 762020, Note_on_c, 0, 69, 57
1, 762020, Control_c, 0, 64, 0
1, 762027, Note_on_c, 0, 60, 41
1, 762040, Note_on_c, 0, 53, 47
1, 762048, Note_on_c, 0, 63, 50
1, 762051, Note_on_c, 0, 65, 42
1, 762079, Control_c, 0, 64, 23
1, 762094, Control_c, 0, 64, 55
1, 762108, Control_c, 0, 64, 62
1, 762123, Control_c, 0, 64, 62
1, 762153, Control_c, 0, 64, 63
1, 762167, Note_off_c, 0, 65, 51
1, 762197, Control_c, 0, 64, 63
1, 762208, Note_off_c, 0, 63, 60
1, 762214, Note_off_c, 0, 53, 54
1, 762225, Note_off_c, 0, 69, 63
1, 762226, Note_off_c, 0, 60, 48
1, 762272, Note_off_c, 0, 72, 64
1, 762301, Control_c, 0, 64, 63
1, 762302, Note_on_c, 0, 74, 62
1, 762307, Note_on_c, 0, 70, 57
1, 762316, Control_c, 0, 64, 60
1, 762325, Note_on_c, 0, 65, 42
1, 762331, Note_on_c, 0, 58, 42
1, 762331, Control_c, 0, 64, 52
1, 762335, Note_on_c, 0, 62, 50
1, 762346, Control_c, 0, 64, 0
1, 762471, Control_c, 0, 64, 29
1, 762486, Control_c, 0, 64, 61
1, 762501, Control_c, 0, 64, 68
1, 762511, Note_off_c, 0, 65, 59
1, 762516, Control_c, 0, 64, 72
1, 762519, Note_off_c, 0, 74, 63
1, 762530, Control_c, 0, 64, 74
1, 762545, Control_c, 0, 64, 75
1, 762550, Note_off_c, 0, 58, 62
1, 762575, Control_c, 0, 64, 76
1, 762587, Note_off_c, 0, 70, 63
1, 762590, Note_off_c, 0, 62, 52
1, 762590, Control_c, 0, 64, 76
1, 762605, Control_c, 0, 64, 77
1, 762784, Control_c, 0, 64, 77
1, 762828, Control_c, 0, 64, 77
1, 762843, Control_c, 0, 64, 73
1, 762846, Note_on_c, 0, 62, 74
1, 762858, Control_c, 0, 64, 66
1, 762860, Note_on_c, 0, 74, 60
1, 762862, Note_on_c, 0, 58, 35
1, 762870, Note_on_c, 0, 55, 30
1, 762872, Control_c, 0, 64, 56
1, 762887, Control_c, 0, 64, 25
1, 762902, Control_c, 0, 64, 29
1, 762917, Control_c, 0, 64, 43
1, 762931, Control_c, 0, 64, 54
1, 762946, Control_c, 0, 64, 63
1, 762961, Control_c, 0, 64, 66
1, 762977, Control_c, 0, 64, 70
1, 762992, Control_c, 0, 64, 72
1, 763006, Control_c, 0, 64, 74
1, 763021, Control_c, 0, 64, 76
1, 763036, Control_c, 0, 64, 78
1, 763046, Note_off_c, 0, 58, 42
1, 763051, Control_c, 0, 64, 79
1, 763058, Note_off_c, 0, 55, 41
1, 763065, Control_c, 0, 64, 80
1, 763080, Control_c, 0, 64, 80
1, 763095, Control_c, 0, 64, 81
1, 763115, Note_off_c, 0, 62, 61
1, 763124, Control_c, 0, 64, 81
1, 763275, Note_on_c, 0, 63, 73
1, 763283, Note_on_c, 0, 61, 40
1, 763283, Note_on_c, 0, 75, 61
1, 763295, Control_c, 0, 64, 81
1, 763297, Note_on_c, 0, 51, 36
1, 763310, Control_c, 0, 64, 79
1, 763320, Note_on_c, 0, 58, 26
1, 763325, Control_c, 0, 64, 75
1, 763329, Note_on_c, 0, 55, 28
1, 763339, Control_c, 0, 64, 70
1, 763341, Note_off_c, 0, 74, 57
1, 763354, Control_c, 0, 64, 64
1, 763369, Control_c, 0, 64, 49
1, 763384, Control_c, 0, 64, 0
1, 763489, Control_c, 0, 64, 52
1, 763503, Control_c, 0, 64, 64
1, 763518, Control_c, 0, 64, 68
1, 763533, Control_c, 0, 64, 69
1, 763547, Control_c, 0, 64, 71
1, 763562, Control_c, 0, 64, 75
1, 763577, Control_c, 0, 64, 81
1, 763592, Control_c, 0, 64, 88
1, 763607, Control_c, 0, 64, 92
1, 763621, Control_c, 0, 64, 94
1, 763636, Control_c, 0, 64, 95
1, 763645, Poly_aftertouch_c, 0, 67, 127
1, 763651, Control_c, 0, 64, 97
1, 763666, Control_c, 0, 64, 98
1, 763681, Control_c, 0, 64, 99
1, 763696, Note_off_c, 0, 51, 36
1, 763727, Note_off_c, 0, 55, 41
1, 763733, Poly_aftertouch_c, 0, 67, 0
1, 763740, Note_off_c, 0, 63, 37
1, 763741, Note_off_c, 0, 58, 40
1, 763812, Note_off_c, 0, 61, 33
1, 763896, Note_on_c, 0, 74, 59
1, 763901, Note_on_c, 0, 58, 37
1, 763902, Note_on_c, 0, 62, 73
1, 763903, Control_c, 0, 64, 92
1, 763925, Control_c, 0, 64, 80
1, 763930, Note_on_c, 0, 55, 37
1, 763934, Note_off_c, 0, 75, 54
1, 763940, Control_c, 0, 64, 68
1, 763955, Control_c, 0, 64, 63
1, 763970, Control_c, 0, 64, 61
1, 763985, Control_c, 0, 64, 62
1, 764000, Control_c, 0, 64, 63
1, 764015, Control_c, 0, 64, 65
1, 764029, Control_c, 0, 64, 68
1, 764044, Control_c, 0, 64, 71
1, 764059, Control_c, 0, 64, 73
1, 764103, Control_c, 0, 64, 74
1, 764132, Note_off_c, 0, 58, 34
1, 764137, Note_off_c, 0, 55, 37
1, 764146, Note_off_c, 0, 62, 57
1, 764263, Note_on_c, 0, 63, 76
1, 764267, Control_c, 0, 64, 72
1, 764280, Note_on_c, 0, 75, 58
1, 764282, Control_c, 0, 64, 70
1, 764289, Note_on_c, 0, 51, 27
1, 764289, Note_on_c, 0, 61, 19
1, 764292, Note_on_c, 0, 58, 37
1, 764297, Control_c, 0, 64, 66
1, 764312, Control_c, 0, 64, 58
1, 764317, Note_on_c, 0, 55, 28
1, 764326, Control_c, 0, 64, 15
1, 764341, Control_c, 0, 64, 0
1, 764364, Note_off_c, 0, 74, 53
1, 764430, Control_c, 0, 64, 34
1, 764444, Control_c, 0, 64, 58
1, 764459, Control_c, 0, 64, 65
1, 764474, Control_c, 0, 64, 70
1, 764489, Control_c, 0, 64, 73
1, 764503, Control_c, 0, 64, 76
1, 764513, Note_off_c, 0, 55, 45
1, 764518, Control_c, 0, 64, 80
1, 764533, Control_c, 0, 64, 84
1, 764534, Note_off_c, 0, 58, 42
1, 764548, Control_c, 0, 64, 87
1, 764563, Control_c, 0, 64, 89
1, 764563, Control_c, 0, 67, 11
1, 764577, Control_c, 0, 64, 91
1, 764577, Control_c, 0, 67, 19
1, 764592, Control_c, 0, 64, 92
1, 764592, Control_c, 0, 67, 24
1, 764606, Note_off_c, 0, 61, 55
1, 764607, Control_c, 0, 64, 92
1, 764607, Control_c, 0, 67, 28
1, 764622, Control_c, 0, 67, 31
1, 764637, Control_c, 0, 67, 33
1, 764679, Note_off_c, 0, 63, 61
1, 764689, Control_c, 0, 67, 32
1, 764695, Note_off_c, 0, 51, 40
1, 764703, Control_c, 0, 67, 32
1, 764729, Note_off_c, 0, 75, 61
1, 764733, Control_c, 0, 67, 31
1, 764748, Control_c, 0, 67, 30
1, 764763, Control_c, 0, 67, 30
1, 764792, Control_c, 0, 67, 29
1, 764807, Control_c, 0, 67, 28
1, 764822, Control_c, 0, 64, 89
1, 764822, Control_c, 0, 67, 27
1, 764837, Control_c, 0, 64, 84
1, 764837, Control_c, 0, 67, 27
1, 764841, Note_on_c, 0, 62, 54
1, 764841, Note_on_c, 0, 70, 58
1, 764851, Control_c, 0, 64, 80
1, 764853, Note_on_c, 0, 58, 59
1, 764861, Note_on_c, 0, 67, 40
1, 764866, Control_c, 0, 64, 78
1, 764872, Note_on_c, 0, 55, 48
1, 764881, Control_c, 0, 64, 78
1, 764896, Control_c, 0, 67, 26
1, 765000, Control_c, 0, 67, 26
1, 765016, Note_off_c, 0, 62, 51
1, 765019, Note_off_c, 0, 58, 60
1, 765029, Note_off_c, 0, 55, 32
1, 765034, Note_off_c, 0, 67, 40
1, 765045, Control_c, 0, 67, 25
1, 765049, Note_off_c, 0, 70, 52
1, 765060, Control_c, 0, 67, 25
1, 765089, Control_c, 0, 67, 24
1, 765104, Control_c, 0, 64, 77
1, 765104, Control_c, 0, 67, 24
1, 765119, Control_c, 0, 64, 71
1, 765133, Control_c, 0, 64, 64
1, 765133, Control_c, 0, 67, 23
1, 765148, Control_c, 0, 64, 36
1, 765162, Note_on_c, 0, 58, 68
1, 765163, Control_c, 0, 64, 0
1, 765167, Note_on_c, 0, 74, 57
1, 765177, Note_on_c, 0, 67, 34
1, 765178, Note_on_c, 0, 62, 44
1, 765178, Control_c, 0, 67, 22
1, 765192, Note_on_c, 0, 46, 48
1, 765192, Control_c, 0, 67, 22
1, 765222, Control_c, 0, 67, 21
1, 765252, Control_c, 0, 64, 55
1, 765252, Control_c, 0, 67, 21
1, 765267, Control_c, 0, 64, 63
1, 765282, Control_c, 0, 64, 65
1, 765282, Control_c, 0, 67, 20
1, 765297, Control_c, 0, 64, 67
1, 765297, Control_c, 0, 67, 20
1, 765312, Control_c, 0, 64, 69
1, 765326, Control_c, 0, 64, 75
1, 765326, Control_c, 0, 67, 19
1, 765332, Note_off_c, 0, 62, 57
1, 765341, Control_c, 0, 64, 84
1, 765341, Control_c, 0, 67, 18
1, 765354, Note_off_c, 0, 74, 53
1, 765356, Note_off_c, 0, 67, 41
1, 765356, Control_c, 0, 64, 92
1, 765365, Note_off_c, 0, 46, 56
1, 765371, Control_c, 0, 64, 93
1, 765381, Note_off_c, 0, 58, 59
1, 765386, Control_c, 0, 64, 93
1, 765400, Control_c, 0, 64, 84
1, 765422, Control_c, 0, 64, 70
1, 765437, Control_c, 0, 64, 55
1, 765452, Control_c, 0, 64, 0
1, 765465, Note_on_c, 0, 74, 59
1, 765467, Note_on_c, 0, 58, 56
1, 765475, Note_on_c, 0, 67, 46
1, 765479, Note_on_c, 0, 62, 48
1, 765482, Control_c, 0, 64, 39
1, 765496, Control_c, 0, 64, 57
1, 765498, Note_on_c, 0, 50, 54
1, 765511, Control_c, 0, 64, 65
1, 765511, Control_c, 0, 67, 18
1, 765526, Control_c, 0, 64, 69
1, 765537, Note_off_c, 0, 50, 62
1, 765541, Control_c, 0, 64, 72
1, 765556, Control_c, 0, 64, 73
1, 765567, Note_off_c, 0, 67, 55
1, 765571, Control_c, 0, 64, 73
1, 765571, Control_c, 0, 67, 18
1, 765579, Note_off_c, 0, 74, 57
1, 765586, Control_c, 0, 64, 74
1, 765603, Note_off_c, 0, 58, 63
1, 765622, Note_off_c, 0, 62, 58
1, 765660, Control_c, 0, 64, 75
1, 765704, Control_c, 0, 64, 71
1, 765718, Control_c, 0, 64, 64
1, 765718, Control_c, 0, 67, 17
1, 765732, Note_on_c, 0, 69, 45
1, 765733, Control_c, 0, 64, 45
1, 765740, Note_on_c, 0, 60, 56
1, 765741, Note_on_c, 0, 66, 41
1, 765748, Control_c, 0, 64, 0
1, 765748, Control_c, 0, 67, 17
1, 765761, Note_on_c, 0, 50, 28
1, 765776, Note_on_c, 0, 62, 35
1, 765794, Control_c, 0, 67, 17
1, 765809, Control_c, 0, 67, 18
1, 765823, Control_c, 0, 64, 50
1, 765837, Note_off_c, 0, 62, 0
1, 765837, Note_on_c, 0, 62, 3
1, 765838, Control_c, 0, 64, 61
1, 765853, Control_c, 0, 64, 63
1, 765868, Control_c, 0, 64, 64
1, 765883, Control_c, 0, 67, 17
1, 765912, Note_off_c, 0, 69, 58
1, 765925, Note_off_c, 0, 62, 49
1, 765927, Control_c, 0, 64, 65
1, 765928, Note_off_c, 0, 66, 64
1, 765941, Note_off_c, 0, 50, 41
1, 766038, Note_off_c, 0, 60, 48
1, 766046, Control_c, 0, 64, 63
1, 766046, Control_c, 0, 67, 18
1, 766061, Control_c, 0, 64, 61
1, 766065, Note_on_c, 0, 70, 53
1, 766072, Note_on_c, 0, 67, 38
1, 766074, Note_on_c, 0, 58, 32
1, 766075, Control_c, 0, 64, 52
1, 766077, Note_on_c, 0, 62, 18
1, 766081, Note_on_c, 0, 55, 32
1, 766090, Control_c, 0, 64, 0
1, 766135, Control_c, 0, 67, 18
1, 766149, Control_c, 0, 67, 19
1, 766172, Control_c, 0, 67, 19
1, 766187, Control_c, 0, 67, 20
1, 766202, Control_c, 0, 67, 20
1, 766217, Control_c, 0, 67, 21
1, 766246, Control_c, 0, 64, 58
1, 766261, Control_c, 0, 64, 67
1, 766275, Control_c, 0, 64, 73
1, 766290, Control_c, 0, 64, 77
1, 766292, Note_off_c, 0, 62, 41
1, 766305, Control_c, 0, 64, 80
1, 766316, Note_off_c, 0, 58, 54
1, 766320, Control_c, 0, 64, 84
1, 766331, Note_off_c, 0, 55, 42
1, 766335, Control_c, 0, 64, 87
1, 766349, Control_c, 0, 64, 88
1, 766356, Note_off_c, 0, 70, 38
1, 766379, Control_c, 0, 67, 20
1, 766384, Note_off_c, 0, 67, 36
1, 766409, Control_c, 0, 67, 20
1, 766513, Control_c, 0, 67, 19
1, 766602, Control_c, 0, 64, 84
1, 766617, Control_c, 0, 64, 74
1, 766626, Note_on_c, 0, 70, 64
1, 766632, Control_c, 0, 64, 64
1, 766642, Note_on_c, 0, 67, 42
1, 766647, Control_c, 0, 64, 41
1, 766647, Control_c, 0, 67, 19
1, 766650, Note_on_c, 0, 62, 51
1, 766653, Note_on_c, 0, 43, 47
1, 766662, Control_c, 0, 64, 0
1, 766671, Note_on_c, 0, 55, 37
1, 766706, Control_c, 0, 64, 45
1, 766721, Control_c, 0, 64, 60
1, 766736, Control_c, 0, 64, 65
1, 766751, Control_c, 0, 64, 69
1, 766765, Control_c, 0, 64, 73
1, 766780, Control_c, 0, 64, 75
1, 766795, Control_c, 0, 64, 76
1, 766810, Control_c, 0, 64, 77
1, 766825, Control_c, 0, 64, 78
1, 766831, Note_off_c, 0, 62, 52
1, 766835, Note_off_c, 0, 55, 44
1, 766840, Control_c, 0, 64, 78
1, 766854, Control_c, 0, 64, 79
1, 766859, Note_off_c, 0, 67, 26
1, 766936, Control_c, 0, 67, 19
1, 766966, Control_c, 0, 67, 20
1, 766995, Control_c, 0, 67, 21
1, 767009, Note_off_c, 0, 43, 35
1, 767010, Control_c, 0, 64, 78
1, 767017, Note_on_c, 0, 69, 62
1, 767025, Control_c, 0, 64, 74
1, 767025, Control_c, 0, 67, 21
1, 767034, Note_on_c, 0, 67, 43
1, 767038, Note_on_c, 0, 45, 34
1, 767040, Control_c, 0, 64, 69
1, 767040, Control_c, 0, 67, 22
1, 767052, Note_on_c, 0, 61, 46
1, 767054, Control_c, 0, 64, 63
1, 767054, Control_c, 0, 67, 23
1, 767058, Note_on_c, 0, 52, 39
1, 767063, Note_off_c, 0, 70, 61
1, 767069, Control_c, 0, 64, 45
1, 767069, Control_c, 0, 67, 24
1, 767084, Control_c, 0, 64, 0
1, 767084, Control_c, 0, 67, 25
1, 767098, Control_c, 0, 67, 26
1, 767113, Control_c, 0, 67, 27
1, 767128, Control_c, 0, 67, 28
1, 767143, Control_c, 0, 67, 31
1, 767158, Control_c, 0, 67, 38
1, 767172, Control_c, 0, 67, 46
1, 767187, Control_c, 0, 67, 54
1, 767202, Control_c, 0, 64, 21
1, 767202, Control_c, 0, 67, 66
1, 767217, Control_c, 0, 64, 59
1, 767217, Control_c, 0, 67, 79
1, 767232, Control_c, 0, 64, 67
1, 767232, Control_c, 0, 67, 90
1, 767246, Control_c, 0, 64, 73
1, 767246, Control_c, 0, 67, 99
1, 767261, Control_c, 0, 64, 78
1, 767261, Control_c, 0, 67, 103
1, 767276, Control_c, 0, 64, 81
1, 767276, Control_c, 0, 67, 104
1, 767291, Control_c, 0, 64, 86
1, 767291, Control_c, 0, 67, 104
1, 767306, Control_c, 0, 64, 90
1, 767321, Control_c, 0, 64, 93
1, 767321, Control_c, 0, 67, 104
1, 767329, Note_off_c, 0, 52, 35
1, 767336, Control_c, 0, 64, 95
1, 767336, Control_c, 0, 67, 103
1, 767351, Control_c, 0, 64, 96
1, 767351, Control_c, 0, 67, 103
1, 767365, Control_c, 0, 64, 97
1, 767365, Control_c, 0, 67, 102
1, 767377, Note_off_c, 0, 67, 39
1, 767379, Note_off_c, 0, 45, 41
1, 767380, Control_c, 0, 67, 102
1, 767395, Control_c, 0, 67, 101
1, 767410, Control_c, 0, 64, 97
1, 767410, Control_c, 0, 67, 101
1, 767422, Note_off_c, 0, 61, 36
1, 767425, Control_c, 0, 67, 100
1, 767440, Control_c, 0, 67, 99
1, 767455, Control_c, 0, 67, 99
1, 767470, Control_c, 0, 67, 98
1, 767485, Control_c, 0, 67, 98
1, 767514, Control_c, 0, 67, 97
1, 767529, Control_c, 0, 67, 97
1, 767550, Note_off_c, 0, 69, 38
1, 767559, Control_c, 0, 64, 97
1, 767574, Control_c, 0, 67, 96
1, 767588, Control_c, 0, 64, 90
1, 767598, Note_on_c, 0, 70, 55
1, 767603, Control_c, 0, 64, 76
1, 767603, Control_c, 0, 67, 96
1, 767610, Note_on_c, 0, 43, 37
1, 767618, Control_c, 0, 64, 64
1, 767628, Note_on_c, 0, 55, 36
1, 767630, Note_on_c, 0, 62, 35
1, 767630, Note_on_c, 0, 67, 27
1, 767633, Control_c, 0, 64, 31
1, 767648, Control_c, 0, 64, 0
1, 767699, Control_c, 0, 64, 25
1, 767714, Control_c, 0, 64, 53
1, 767729, Control_c, 0, 64, 63
1, 767729, Control_c, 0, 67, 96
1, 767744, Note_off_c, 0, 55, 48
1, 767744, Control_c, 0, 64, 67
1, 767759, Control_c, 0, 64, 69
1, 767759, Control_c, 0, 67, 97
1, 767777, Note_off_c, 0, 62, 54
1, 767789, Control_c, 0, 64, 69
1, 767803, Control_c, 0, 64, 70
1, 767807, Note_off_c, 0, 67, 44
1, 767818, Control_c, 0, 64, 70
1, 767833, Control_c, 0, 67, 97
1, 767863, Control_c, 0, 67, 98
1, 767877, Note_off_c, 0, 43, 39
1, 767907, Control_c, 0, 67, 98
1, 767921, Control_c, 0, 64, 69
1, 767936, Control_c, 0, 64, 67
1, 767936, Control_c, 0, 67, 99
1, 767944, Note_on_c, 0, 67, 31
1, 767951, Control_c, 0, 64, 63
1, 767956, Note_on_c, 0, 69, 35
1, 767960, Note_on_c, 0, 61, 35
1, 767966, Control_c, 0, 64, 56
1, 767967, Note_on_c, 0, 45, 27
1, 767980, Note_off_c, 0, 70, 38
1, 767981, Control_c, 0, 64, 29
1, 767981, Control_c, 0, 67, 100
1, 767985, Note_on_c, 0, 52, 20
1, 767995, Control_c, 0, 64, 0
1, 768010, Control_c, 0, 67, 101
1, 768040, Control_c, 0, 67, 102
1, 768054, Control_c, 0, 67, 102
1, 768069, Control_c, 0, 67, 103
1, 768084, Control_c, 0, 67, 104
1, 768099, Control_c, 0, 67, 104
1, 768114, Control_c, 0, 67, 105
1, 768129, Control_c, 0, 64, 46
1, 768129, Control_c, 0, 67, 106
1, 768143, Control_c, 0, 64, 62
1, 768143, Control_c, 0, 67, 106
1, 768158, Control_c, 0, 64, 66
1, 768158, Control_c, 0, 67, 110
1, 768173, Control_c, 0, 64, 69
1, 768173, Control_c, 0, 67, 113
1, 768189, Control_c, 0, 64, 72
1, 768189, Control_c, 0, 67, 114
1, 768204, Control_c, 0, 64, 74
1, 768204, Control_c, 0, 67, 116
1, 768218, Control_c, 0, 64, 77
1, 768218, Control_c, 0, 67, 117
1, 768233, Note_off_c, 0, 61, 41
1, 768233, Control_c, 0, 64, 80
1, 768233, Control_c, 0, 67, 119
1, 768248, Control_c, 0, 64, 82
1, 768248, Control_c, 0, 67, 121
1, 768263, Note_off_c, 0, 52, 41
1, 768263, Control_c, 0, 64, 83
1, 768263, Control_c, 0, 67, 124
1, 768278, Control_c, 0, 67, 127
1, 768293, Control_c, 0, 67, 127
1, 768349, Note_off_c, 0, 67, 42
1, 768364, Note_off_c, 0, 45, 33
1, 768490, Note_off_c, 0, 69, 38
1, 768507, Control_c, 0, 64, 83
1, 768522, Control_c, 0, 64, 82
1, 768537, Control_c, 0, 64, 82
1, 768552, Control_c, 0, 64, 81
1, 768567, Control_c, 0, 64, 81
1, 768597, Control_c, 0, 64, 80
1, 768611, Control_c, 0, 64, 79
1, 768626, Control_c, 0, 64, 77
1, 768641, Control_c, 0, 64, 73
1, 768650, Note_on_c, 0, 70, 41
1, 768656, Control_c, 0, 64, 67
1, 768663, Note_on_c, 0, 67, 22
1, 768665, Note_on_c, 0, 62, 33
1, 768670, Control_c, 0, 64, 61
1, 768674, Note_on_c, 0, 43, 29
1, 768685, Control_c, 0, 64, 43
1, 768695, Note_on_c, 0, 55, 15
1, 768700, Control_c, 0, 64, 0
1, 768744, Control_c, 0, 64, 21
1, 768759, Control_c, 0, 64, 47
1, 768774, Control_c, 0, 64, 59
1, 768789, Control_c, 0, 64, 64
1, 768804, Control_c, 0, 64, 66
1, 768818, Control_c, 0, 64, 69
1, 768833, Control_c, 0, 64, 71
1, 768848, Control_c, 0, 64, 72
1, 768852, Note_off_c, 0, 55, 41
1, 768862, Control_c, 0, 64, 74
1, 768863, Note_off_c, 0, 67, 41
1, 768875, Note_off_c, 0, 62, 43
1, 768877, Control_c, 0, 64, 75
1, 768907, Control_c, 0, 64, 76
1, 769039, Note_off_c, 0, 43, 28
1, 769100, Control_c, 0, 64, 75
1, 769115, Control_c, 0, 64, 74
1, 769130, Control_c, 0, 64, 72
1, 769145, Control_c, 0, 64, 70
1, 769166, Control_c, 0, 64, 68
1, 769176, Note_on_c, 0, 61, 32
1, 769178, Note_on_c, 0, 69, 33
1, 769181, Control_c, 0, 64, 64
1, 769196, Control_c, 0, 64, 59
1, 769199, Note_on_c, 0, 45, 29
1, 769201, Note_on_c, 0, 67, 29
1, 769211, Control_c, 0, 64, 52
1, 769213, Note_off_c, 0, 70, 31
1, 769222, Note_on_c, 0, 52, 17
1, 769226, Control_c, 0, 64, 43
1, 769240, Control_c, 0, 64, 35
1, 769255, Control_c, 0, 64, 31
1, 769270, Control_c, 0, 64, 29
1, 769285, Control_c, 0, 64, 26
1, 769300, Control_c, 0, 64, 21
1, 769315, Control_c, 0, 64, 0
1, 770123, Control_c, 0, 64, 19
1, 770138, Control_c, 0, 64, 35
1, 770153, Control_c, 0, 64, 49
1, 770168, Control_c, 0, 64, 57
1, 770182, Control_c, 0, 64, 61
1, 770197, Control_c, 0, 64, 63
1, 770212, Control_c, 0, 64, 65
1, 770227, Control_c, 0, 64, 66
1, 770241, Control_c, 0, 64, 70
1, 770256, Control_c, 0, 64, 73
1, 770271, Control_c, 0, 64, 77
1, 770286, Control_c, 0, 64, 80
1, 770301, Control_c, 0, 64, 83
1, 770315, Control_c, 0, 64, 85
1, 770330, Control_c, 0, 64, 87
1, 770345, Control_c, 0, 64, 89
1, 770352, Note_off_c, 0, 61, 52
1, 770358, Note_off_c, 0, 45, 42
1, 770360, Control_c, 0, 64, 90
1, 770375, Control_c, 0, 64, 91
1, 770388, Note_off_c, 0, 52, 41
1, 770389, Control_c, 0, 64, 91
1, 770531, Note_off_c, 0, 67, 43
1, 770671, Note_off_c, 0, 69, 42
1, 770857, Control_c, 0, 64, 91
1, 770916, Control_c, 0, 64, 90
1, 770946, Control_c, 0, 64, 90
1, 770960, Control_c, 0, 64, 89
1, 770975, Control_c, 0, 64, 87
1, 770990, Control_c, 0, 64, 84
1, 771005, Control_c, 0, 64, 79
1, 771020, Control_c, 0, 64, 72
1, 771035, Control_c, 0, 64, 66
1, 771040, Note_on_c, 0, 72, 32
1, 771050, Note_on_c, 0, 53, 18
1, 771050, Control_c, 0, 64, 58
1, 771051, Note_on_c, 0, 60, 23
1, 771054, Note_on_c, 0, 57, 26
1, 771064, Control_c, 0, 64, 38
1, 771079, Control_c, 0, 64, 0
1, 771138, Control_c, 0, 64, 28
1, 771153, Control_c, 0, 64, 47
1, 771168, Control_c, 0, 64, 59
1, 771183, Control_c, 0, 64, 65
1, 771198, Control_c, 0, 64, 68
1, 771211, Control_c, 0, 64, 70
1, 771226, Control_c, 0, 64, 72
1, 771241, Control_c, 0, 64, 74
1, 771243, Note_off_c, 0, 53, 40
1, 771256, Control_c, 0, 64, 75
1, 771270, Control_c, 0, 64, 76
1, 771284, Note_off_c, 0, 57, 38
1, 771285, Control_c, 0, 64, 76
1, 771504, Note_off_c, 0, 60, 34
1, 771506, Note_on_c, 0, 69, 44
1, 771519, Note_on_c, 0, 53, 23
1, 771521, Note_on_c, 0, 57, 28
1, 771521, Note_off_c, 0, 72, 40
1, 771605, Control_c, 0, 64, 76
1, 771634, Control_c, 0, 64, 75
1, 771664, Control_c, 0, 64, 75
1, 771679, Control_c, 0, 64, 74
1, 771704, Note_off_c, 0, 53, 42
1, 771753, Control_c, 0, 64, 74
1, 771764, Note_off_c, 0, 57, 50
1, 771780, Note_on_c, 0, 60, 34
1, 771787, Note_on_c, 0, 72, 46
1, 771842, Control_c, 0, 64, 73
1, 771886, Control_c, 0, 64, 73
1, 771946, Control_c, 0, 64, 72
1, 772019, Note_on_c, 0, 62, 34
1, 772024, Note_on_c, 0, 74, 54
1, 772028, Note_on_c, 0, 57, 28
1, 772053, Note_on_c, 0, 53, 17
1, 772060, Note_off_c, 0, 60, 28
1, 772091, Note_off_c, 0, 69, 35
1, 772173, Note_off_c, 0, 53, 37
1, 772183, Note_off_c, 0, 57, 38
1, 772206, Control_c, 0, 64, 72
1, 772211, Note_off_c, 0, 62, 43
1, 772246, Note_off_c, 0, 72, 31
1, 772324, Control_c, 0, 64, 71
1, 772339, Control_c, 0, 64, 68
1, 772347, Note_on_c, 0, 57, 33
1, 772354, Note_on_c, 0, 77, 53
1, 772354, Control_c, 0, 64, 63
1, 772364, Note_on_c, 0, 65, 39
1, 772369, Control_c, 0, 64, 50
1, 772383, Control_c, 0, 64, 0
1, 772392, Note_on_c, 0, 53, 18
1, 772398, Note_off_c, 0, 74, 60
1, 772472, Control_c, 0, 64, 44
1, 772487, Control_c, 0, 64, 61
1, 772502, Control_c, 0, 64, 66
1, 772516, Control_c, 0, 64, 69
1, 772531, Control_c, 0, 64, 70
1, 772546, Control_c, 0, 64, 72
1, 772561, Control_c, 0, 64, 74
1, 772576, Control_c, 0, 64, 76
1, 772591, Control_c, 0, 64, 78
1, 772636, Note_off_c, 0, 57, 40
1, 772682, Note_off_c, 0, 53, 54
1, 772859, Note_on_c, 0, 53, 31
1, 772871, Note_on_c, 0, 57, 36
1, 772871, Note_on_c, 0, 69, 48
1, 772886, Note_off_c, 0, 65, 24
1, 772970, Control_c, 0, 64, 77
1, 773000, Control_c, 0, 64, 77
1, 773014, Note_off_c, 0, 57, 55
1, 773024, Note_off_c, 0, 77, 34
1, 773036, Note_off_c, 0, 53, 40
1, 773104, Control_c, 0, 64, 76
1, 773133, Control_c, 0, 64, 76
1, 773148, Control_c, 0, 64, 73
1, 773163, Control_c, 0, 64, 68
1, 773169, Note_on_c, 0, 70, 46
1, 773175, Note_on_c, 0, 58, 44
1, 773176, Note_on_c, 0, 55, 45
1, 773178, Control_c, 0, 64, 61
1, 773186, Note_on_c, 0, 53, 27
1, 773193, Control_c, 0, 64, 35
1, 773207, Control_c, 0, 64, 0
1, 773236, Note_off_c, 0, 69, 45
1, 773326, Control_c, 0, 64, 24
1, 773340, Control_c, 0, 64, 51
1, 773355, Control_c, 0, 64, 60
1, 773370, Control_c, 0, 64, 62
1, 773385, Control_c, 0, 64, 63
1, 773400, Control_c, 0, 64, 64
1, 773414, Control_c, 0, 64, 65
1, 773429, Control_c, 0, 64, 67
1, 773443, Note_on_c, 0, 67, 56
1, 773444, Control_c, 0, 64, 69
1, 773458, Control_c, 0, 64, 71
1, 773464, Note_off_c, 0, 53, 52
1, 773473, Control_c, 0, 64, 72
1, 773484, Note_off_c, 0, 55, 56
1, 773488, Control_c, 0, 64, 73
1, 773510, Note_off_c, 0, 58, 54
1, 773515, Note_off_c, 0, 70, 34
1, 773700, Note_on_c, 0, 74, 50
1, 773727, Note_on_c, 0, 53, 28
1, 773727, Note_on_c, 0, 62, 41
1, 773756, Poly_aftertouch_c, 0, 58, 127
1, 773800, Note_off_c, 0, 67, 37
1, 773824, Note_off_c, 0, 62, 36
1, 773844, Poly_aftertouch_c, 0, 58, 0
1, 773855, Note_off_c, 0, 53, 37
1, 773867, Control_c, 0, 64, 72
1, 773912, Control_c, 0, 64, 72
1, 773971, Control_c, 0, 64, 71
1, 773986, Control_c, 0, 64, 70
1, 774001, Control_c, 0, 64, 69
1, 774016, Control_c, 0, 64, 67
1, 774030, Control_c, 0, 64, 64
1, 774043, Note_on_c, 0, 72, 44
1, 774045, Control_c, 0, 64, 56
1, 774046, Note_off_c, 0, 74, 58
1, 774052, Note_on_c, 0, 53, 25
1, 774052, Note_on_c, 0, 60, 27
1, 774060, Control_c, 0, 64, 19
1, 774062, Note_on_c, 0, 57, 31
1, 774075, Control_c, 0, 64, 0
1, 774178, Control_c, 0, 64, 57
1, 774193, Control_c, 0, 64, 66
1, 774207, Control_c, 0, 64, 70
1, 774222, Control_c, 0, 64, 72
1, 774229, Note_off_c, 0, 72, 64
1, 774237, Control_c, 0, 64, 73
1, 774252, Control_c, 0, 64, 73
1, 774256, Note_off_c, 0, 57, 54
1, 774267, Control_c, 0, 64, 74
1, 774281, Control_c, 0, 64, 75
1, 774288, Note_off_c, 0, 53, 41
1, 774296, Control_c, 0, 64, 75
1, 774300, Note_off_c, 0, 60, 39
1, 774621, Note_on_c, 0, 91, 52
1, 774637, Note_on_c, 0, 67, 28
1, 774642, Note_on_c, 0, 60, 21
1, 774646, Note_on_c, 0, 58, 23
1, 774646, Note_on_c, 0, 79, 22
1, 774649, Note_on_c, 0, 53, 24
1, 774756, Note_off_c, 0, 53, 28
1, 774775, Note_off_c, 0, 60, 31
1, 774779, Note_off_c, 0, 67, 41
1, 774796, Note_off_c, 0, 58, 39
1, 774830, Note_off_c, 0, 79, 53
1, 774868, Control_c, 0, 64, 76
1, 774912, Control_c, 0, 64, 74
1, 774925, Note_on_c, 0, 53, 41
1, 774925, Note_on_c, 0, 93, 60
1, 774927, Control_c, 0, 64, 68
1, 774931, Note_on_c, 0, 81, 46
1, 774935, Note_on_c, 0, 60, 33
1, 774939, Note_on_c, 0, 69, 34
1, 774942, Control_c, 0, 64, 62
1, 774956, Control_c, 0, 64, 48
1, 774971, Control_c, 0, 64, 38
1, 774985, Control_c, 0, 64, 44
1, 774991, Note_off_c, 0, 69, 0
1, 774991, Note_on_c, 0, 69, 8
1, 774996, Note_off_c, 0, 81, 0
1, 774996, Note_on_c, 0, 81, 23
1, 775000, Control_c, 0, 64, 54
1, 775011, Note_off_c, 0, 91, 35
1, 775015, Control_c, 0, 64, 62
1, 775029, Control_c, 0, 64, 67
1, 775036, Note_off_c, 0, 93, 60
1, 775044, Control_c, 0, 64, 71
1, 775059, Control_c, 0, 64, 72
1, 775074, Control_c, 0, 64, 73
1, 775089, Control_c, 0, 64, 73
1, 775094, Note_off_c, 0, 81, 56
1, 775104, Control_c, 0, 64, 74
1, 775119, Control_c, 0, 64, 75
1, 775178, Note_off_c, 0, 53, 40
1, 775179, Note_off_c, 0, 69, 47
1, 775208, Note_off_c, 0, 60, 29
1, 775497, Note_on_c, 0, 67, 40
1, 775501, Note_on_c, 0, 58, 37
1, 775506, Note_on_c, 0, 48, 45
1, 775514, Note_on_c, 0, 53, 31
1, 775544, Note_on_c, 0, 60, 14
1, 775616, Control_c, 0, 64, 74
1, 775621, Note_off_c, 0, 60, 35
1, 775634, Note_off_c, 0, 67, 46
1, 775655, Note_off_c, 0, 58, 35
1, 775659, Note_off_c, 0, 53, 42
1, 775734, Control_c, 0, 64, 73
1, 775749, Control_c, 0, 64, 70
1, 775764, Control_c, 0, 64, 64
1, 775779, Control_c, 0, 64, 46
1, 775790, Note_off_c, 0, 48, 49
1, 775791, Note_on_c, 0, 41, 44
1, 775794, Control_c, 0, 64, 0
1, 775796, Note_on_c, 0, 53, 32
1, 775803, Note_on_c, 0, 57, 36
1, 775804, Note_on_c, 0, 60, 23
1, 775814, Note_on_c, 0, 65, 31
1, 775852, Control_c, 0, 64, 44
1, 775867, Control_c, 0, 64, 60
1, 775882, Control_c, 0, 64, 65
1, 775905, Control_c, 0, 64, 66
1, 775934, Control_c, 0, 64, 66
1, 775936, Note_off_c, 0, 41, 63
1, 775949, Control_c, 0, 64, 67
1, 775964, Control_c, 0, 64, 68
1, 775979, Control_c, 0, 64, 68
1, 775994, Control_c, 0, 64, 69
1, 776023, Control_c, 0, 64, 69
1, 776025, Note_off_c, 0, 57, 32
1, 776048, Note_off_c, 0, 65, 41
1, 776053, Note_off_c, 0, 60, 41
1, 776067, Control_c, 0, 64, 70
1, 776074, Note_off_c, 0, 53, 37
1, 776171, Control_c, 0, 64, 70
1, 776187, Control_c, 0, 64, 71
1, 776217, Control_c, 0, 64, 71
1, 776231, Control_c, 0, 64, 72
1, 776246, Control_c, 0, 64, 74
1, 776261, Control_c, 0, 64, 76
1, 776276, Control_c, 0, 64, 78
1, 776290, Control_c, 0, 64, 79
1, 776305, Control_c, 0, 64, 79
1, 776320, Control_c, 0, 64, 80
1, 776332, Note_on_c, 0, 91, 64
1, 776343, Note_on_c, 0, 60, 27
1, 776347, Note_on_c, 0, 79, 33
1, 776348, Note_on_c, 0, 58, 20
1, 776350, Note_on_c, 0, 67, 27
1, 776352, Note_on_c, 0, 53, 31
1, 776365, Control_c, 0, 64, 80
1, 776464, Note_off_c, 0, 60, 36
1, 776468, Note_off_c, 0, 53, 43
1, 776472, Note_off_c, 0, 67, 40
1, 776492, Note_off_c, 0, 58, 42
1, 776517, Note_off_c, 0, 79, 54
1, 776529, Control_c, 0, 64, 81
1, 776544, Control_c, 0, 64, 81
1, 776558, Control_c, 0, 64, 83
1, 776588, Control_c, 0, 64, 82
1, 776602, Control_c, 0, 64, 75
1, 776613, Note_on_c, 0, 93, 64
1, 776617, Control_c, 0, 64, 66
1, 776623, Note_on_c, 0, 81, 42
1, 776624, Note_on_c, 0, 53, 35
1, 776625, Note_on_c, 0, 60, 38
1, 776629, Note_on_c, 0, 69, 43
1, 776632, Control_c, 0, 64, 57
1, 776654, Control_c, 0, 64, 50
1, 776669, Control_c, 0, 64, 54
1, 776678, Note_off_c, 0, 91, 52
1, 776684, Control_c, 0, 64, 59
1, 776699, Control_c, 0, 64, 65
1, 776714, Control_c, 0, 64, 72
1, 776728, Control_c, 0, 64, 83
1, 776737, Note_off_c, 0, 93, 61
1, 776743, Control_c, 0, 64, 91
1, 776758, Control_c, 0, 64, 92
1, 776773, Control_c, 0, 64, 92
1, 776788, Control_c, 0, 64, 93
1, 776791, Note_off_c, 0, 81, 62
1, 776802, Control_c, 0, 64, 94
1, 776875, Note_off_c, 0, 69, 53
1, 776902, Note_off_c, 0, 53, 36
1, 776909, Note_off_c, 0, 60, 32
1, 777170, Note_on_c, 0, 67, 44
1, 777172, Note_on_c, 0, 48, 51
1, 777174, Control_c, 0, 64, 92
1, 777176, Note_on_c, 0, 58, 37
1, 777188, Control_c, 0, 64, 87
1, 777191, Note_on_c, 0, 53, 32
1, 777199, Note_on_c, 0, 60, 27
1, 777203, Control_c, 0, 64, 78
1, 777218, Control_c, 0, 64, 69
1, 777232, Control_c, 0, 64, 58
1, 777247, Control_c, 0, 64, 44
1, 777277, Control_c, 0, 64, 50
1, 777292, Control_c, 0, 64, 56
1, 777307, Control_c, 0, 64, 61
1, 777322, Control_c, 0, 64, 64
1, 777337, Control_c, 0, 64, 66
1, 777351, Control_c, 0, 64, 68
1, 777352, Note_off_c, 0, 67, 54
1, 777359, Note_off_c, 0, 58, 44
1, 777366, Control_c, 0, 64, 71
1, 777376, Note_off_c, 0, 60, 36
1, 777381, Control_c, 0, 64, 73
1, 777403, Control_c, 0, 64, 76
1, 777418, Control_c, 0, 64, 77
1, 777432, Control_c, 0, 64, 78
1, 777462, Control_c, 0, 64, 77
1, 777468, Note_off_c, 0, 53, 0
1, 777477, Control_c, 0, 64, 73
1, 777485, Note_on_c, 0, 41, 45
1, 777492, Control_c, 0, 64, 65
1, 777502, Note_on_c, 0, 57, 40
1, 777504, Poly_aftertouch_c, 0, 53, 127
1, 777506, Control_c, 0, 64, 45
1, 777509, Note_on_c, 0, 60, 28
1, 777511, Note_on_c, 0, 65, 31
1, 777521, Note_off_c, 0, 48, 49
1, 777521, Control_c, 0, 64, 0
1, 777581, Control_c, 0, 64, 37
1, 777596, Control_c, 0, 64, 55
1, 777611, Control_c, 0, 64, 64
1, 777625, Control_c, 0, 64, 67
1, 777640, Control_c, 0, 64, 71
1, 777655, Control_c, 0, 64, 73
1, 777670, Control_c, 0, 64, 75
1, 777685, Control_c, 0, 64, 77
1, 777699, Control_c, 0, 64, 80
1, 777714, Control_c, 0, 64, 84
1, 777729, Control_c, 0, 64, 87
1, 777744, Control_c, 0, 64, 88
1, 777758, Control_c, 0, 64, 88
1, 777762, Note_off_c, 0, 60, 41
1, 777782, Note_off_c, 0, 65, 41
1, 777796, Note_off_c, 0, 57, 35
1, 777835, Poly_aftertouch_c, 0, 53, 0
1, 777968, Note_off_c, 0, 41, 33
1, 778001, Note_on_c, 0, 53, 34
1, 778004, Note_on_c, 0, 48, 51
1, 778010, Note_on_c, 0, 67, 38
1, 778027, Note_on_c, 0, 60, 31
1, 778042, Note_on_c, 0, 58, 30
1, 778165, Note_off_c, 0, 67, 55
1, 778194, Note_off_c, 0, 60, 35
1, 778206, Note_off_c, 0, 58, 40
1, 778228, Note_off_c, 0, 53, 42
1, 778285, Control_c, 0, 64, 87
1, 778300, Control_c, 0, 64, 78
1, 778302, Note_off_c, 0, 48, 56
1, 778315, Control_c, 0, 64, 65
1, 778329, Control_c, 0, 64, 37
1, 778330, Note_on_c, 0, 41, 45
1, 778333, Note_on_c, 0, 60, 31
1, 778344, Note_on_c, 0, 53, 26
1, 778344, Note_on_c, 0, 65, 40
1, 778344, Control_c, 0, 64, 0
1, 778350, Note_on_c, 0, 57, 38
1, 778389, Control_c, 0, 64, 47
1, 778404, Control_c, 0, 64, 63
1, 778419, Control_c, 0, 64, 69
1, 778434, Control_c, 0, 64, 73
1, 778444, Note_off_c, 0, 41, 63
1, 778448, Control_c, 0, 64, 74
1, 778463, Control_c, 0, 64, 75
1, 778478, Control_c, 0, 64, 76
1, 778493, Control_c, 0, 64, 77
1, 778508, Control_c, 0, 64, 78
1, 778522, Control_c, 0, 64, 78
1, 778603, Note_off_c, 0, 60, 37
1, 778621, Note_off_c, 0, 57, 29
1, 778630, Note_off_c, 0, 65, 33
1, 778726, Note_off_c, 0, 53, 23
1, 778871, Note_on_c, 0, 91, 63
1, 778893, Note_on_c, 0, 79, 37
1, 778905, Note_on_c, 0, 67, 36
1, 778906, Note_on_c, 0, 60, 26
1, 778911, Note_on_c, 0, 53, 30
1, 778926, Note_on_c, 0, 58, 26
1, 779036, Note_off_c, 0, 67, 43
1, 779037, Note_off_c, 0, 60, 34
1, 779052, Note_off_c, 0, 58, 41
1, 779057, Note_off_c, 0, 53, 38
1, 779089, Note_off_c, 0, 79, 40
1, 779209, Note_on_c, 0, 93, 58
1, 779226, Control_c, 0, 64, 75
1, 779227, Note_on_c, 0, 81, 46
1, 779228, Note_on_c, 0, 60, 37
1, 779232, Note_on_c, 0, 69, 34
1, 779235, Note_on_c, 0, 53, 32
1, 779241, Control_c, 0, 64, 67
1, 779256, Control_c, 0, 64, 56
1, 779260, Note_off_c, 0, 91, 50
1, 779271, Control_c, 0, 64, 20
1, 779286, Control_c, 0, 64, 0
1, 779301, Control_c, 0, 64, 29
1, 779316, Control_c, 0, 64, 48
1, 779321, Note_off_c, 0, 93, 59
1, 779331, Control_c, 0, 64, 62
1, 779345, Control_c, 0, 64, 67
1, 779360, Control_c, 0, 64, 72
1, 779376, Control_c, 0, 64, 75
1, 779382, Note_off_c, 0, 81, 61
1, 779390, Control_c, 0, 64, 76
1, 779405, Control_c, 0, 64, 77
1, 779420, Control_c, 0, 64, 78
1, 779435, Control_c, 0, 64, 79
1, 779450, Control_c, 0, 64, 80
1, 779465, Control_c, 0, 64, 80
1, 779480, Control_c, 0, 64, 81
1, 779544, Note_off_c, 0, 69, 43
1, 779547, Note_off_c, 0, 53, 40
1, 779592, Note_off_c, 0, 60, 34
1, 779911, Note_on_c, 0, 67, 42
1, 779916, Note_on_c, 0, 48, 43
1, 779926, Note_on_c, 0, 58, 36
1, 779930, Note_on_c, 0, 53, 31
1, 779945, Note_on_c, 0, 60, 28
1, 780064, Note_off_c, 0, 53, 43
1, 780082, Note_off_c, 0, 67, 37
1, 780091, Note_off_c, 0, 58, 36
1, 780115, Note_off_c, 0, 60, 35
1, 780288, Control_c, 0, 64, 80
1, 780332, Control_c, 0, 64, 80
1, 780362, Control_c, 0, 64, 79
1, 780377, Control_c, 0, 64, 79
1, 780413, Control_c, 0, 64, 78
1, 780428, Control_c, 0, 64, 78
1, 780458, Control_c, 0, 64, 77
1, 780472, Control_c, 0, 64, 76
1, 780487, Control_c, 0, 64, 75
1, 780502, Control_c, 0, 64, 74
1, 780517, Note_on_c, 0, 65, 38
1, 780517, Control_c, 0, 64, 72
1, 780527, Note_on_c, 0, 57, 29
1, 780528, Note_on_c, 0, 53, 33
1, 780532, Control_c, 0, 64, 69
1, 780536, Note_on_c, 0, 41, 41
1, 780536, Note_on_c, 0, 60, 35
1, 780547, Control_c, 0, 64, 66
1, 780562, Control_c, 0, 64, 63
1, 780576, Control_c, 0, 64, 55
1, 780591, Control_c, 0, 64, 44
1, 780606, Control_c, 0, 64, 27
1, 780621, Control_c, 0, 64, 0
1, 780747, Note_off_c, 0, 48, 39
1, 781591, Control_c, 0, 64, 8
1, 781606, Control_c, 0, 64, 17
1, 781621, Control_c, 0, 64, 23
1, 781636, Control_c, 0, 64, 29
1, 781651, Control_c, 0, 64, 32
1, 781665, Control_c, 0, 64, 34
1, 781680, Control_c, 0, 64, 34
1, 781695, Control_c, 0, 64, 35
1, 781710, Control_c, 0, 64, 37
1, 781725, Control_c, 0, 64, 39
1, 781739, Control_c, 0, 64, 41
1, 781754, Control_c, 0, 64, 42
1, 781770, Control_c, 0, 64, 44
1, 781785, Control_c, 0, 64, 47
1, 781800, Control_c, 0, 64, 51
1, 781814, Control_c, 0, 64, 54
1, 781829, Control_c, 0, 64, 56
1, 781844, Control_c, 0, 64, 58
1, 781859, Control_c, 0, 64, 59
1, 781874, Control_c, 0, 64, 60
1, 781889, Control_c, 0, 64, 62
1, 781911, Control_c, 0, 64, 64
1, 781926, Control_c, 0, 64, 66
1, 781941, Control_c, 0, 64, 68
1, 781956, Control_c, 0, 64, 72
1, 781971, Control_c, 0, 64, 77
1, 781985, Control_c, 0, 64, 81
1, 782000, Control_c, 0, 64, 84
1, 782015, Control_c, 0, 64, 87
1, 782029, Control_c, 0, 64, 89
1, 782044, Control_c, 0, 64, 91
1, 782059, Control_c, 0, 64, 92
1, 782074, Control_c, 0, 64, 93
1, 782075, Note_off_c, 0, 41, 64
1, 782089, Control_c, 0, 64, 94
1, 782127, Note_off_c, 0, 65, 42
1, 782144, Note_off_c, 0, 60, 52
1, 782145, Note_off_c, 0, 57, 47
1, 782176, Note_off_c, 0, 53, 56
1, 782267, Control_c, 0, 64, 89
1, 782282, Control_c, 0, 64, 79
1, 782296, Control_c, 0, 64, 66
1, 782311, Control_c, 0, 64, 47
1, 782326, Control_c, 0, 64, 0
1, 782490, Note_on_c, 0, 69, 69
1, 782493, Note_on_c, 0, 57, 59
1, 782520, Note_off_c, 0, 69, 65
1, 782523, Note_off_c, 0, 57, 64
1, 782580, Note_on_c, 0, 69, 62
1, 782588, Note_on_c, 0, 57, 56
1, 782613, Note_off_c, 0, 57, 59
1, 782635, Note_off_c, 0, 69, 62
1, 782686, Note_on_c, 0, 71, 72
1, 782691, Note_on_c, 0, 52, 54
1, 782703, Note_on_c, 0, 64, 47
1, 782710, Note_on_c, 0, 68, 49
1, 782762, Control_c, 0, 64, 50
1, 782777, Control_c, 0, 64, 66
1, 782792, Control_c, 0, 64, 73
1, 782807, Control_c, 0, 64, 79
1, 782821, Control_c, 0, 64, 81
1, 782836, Control_c, 0, 64, 82
1, 782851, Control_c, 0, 64, 83
1, 782866, Control_c, 0, 64, 84
1, 782869, Note_off_c, 0, 71, 56
1, 782878, Note_off_c, 0, 64, 51
1, 782881, Control_c, 0, 64, 85
1, 782918, Note_off_c, 0, 68, 63
1, 782937, Note_off_c, 0, 52, 63
1, 783043, Control_c, 0, 64, 84
1, 783058, Control_c, 0, 64, 79
1, 783073, Control_c, 0, 64, 71
1, 783088, Control_c, 0, 64, 63
1, 783103, Control_c, 0, 64, 31
1, 783113, Note_on_c, 0, 69, 78
1, 783114, Note_on_c, 0, 57, 55
1, 783117, Control_c, 0, 64, 0
1, 783139, Note_off_c, 0, 57, 63
1, 783148, Note_off_c, 0, 69, 63
1, 783176, Control_c, 0, 67, 124
1, 783187, Poly_aftertouch_c, 0, 69, 0
1, 783192, Control_c, 0, 67, 120
1, 783196, Note_on_c, 0, 69, 67
1, 783206, Note_on_c, 0, 57, 48
1, 783207, Control_c, 0, 67, 116
1, 783222, Control_c, 0, 67, 114
1, 783233, Note_off_c, 0, 57, 55
1, 783236, Control_c, 0, 67, 113
1, 783247, Note_off_c, 0, 69, 65
1, 783251, Control_c, 0, 67, 114
1, 783266, Control_c, 0, 67, 115
1, 783281, Control_c, 0, 67, 115
1, 783292, Note_on_c, 0, 71, 80
1, 783296, Control_c, 0, 67, 116
1, 783301, Note_on_c, 0, 52, 60
1, 783306, Note_on_c, 0, 68, 71
1, 783307, Note_on_c, 0, 64, 62
1, 783310, Control_c, 0, 67, 117
1, 783340, Control_c, 0, 67, 117
1, 783371, Control_c, 0, 64, 44
1, 783371, Control_c, 0, 67, 118
1, 783393, Control_c, 0, 64, 61
1, 783408, Control_c, 0, 64, 66
1, 783423, Control_c, 0, 64, 69
1, 783438, Control_c, 0, 64, 71
1, 783453, Control_c, 0, 64, 73
1, 783467, Control_c, 0, 64, 73
1, 783482, Control_c, 0, 64, 74
1, 783482, Control_c, 0, 67, 117
1, 783507, Note_off_c, 0, 64, 58
1, 783512, Control_c, 0, 67, 117
1, 783514, Note_off_c, 0, 71, 54
1, 783548, Note_off_c, 0, 68, 61
1, 783591, Note_off_c, 0, 52, 64
1, 783719, Control_c, 0, 64, 73
1, 783720, Note_on_c, 0, 69, 79
1, 783725, Note_on_c, 0, 57, 61
1, 783734, Control_c, 0, 64, 72
1, 783749, Control_c, 0, 64, 71
1, 783755, Note_off_c, 0, 69, 63
1, 783755, Note_off_c, 0, 57, 63
1, 783763, Control_c, 0, 64, 67
1, 783778, Control_c, 0, 64, 62
1, 783788, Note_on_c, 0, 69, 63
1, 783793, Control_c, 0, 64, 46
1, 783793, Control_c, 0, 67, 116
1, 783808, Control_c, 0, 64, 0
1, 783842, Note_off_c, 0, 69, 66
1, 783896, Note_on_c, 0, 71, 78
1, 783902, Note_on_c, 0, 52, 67
1, 783905, Note_on_c, 0, 64, 59
1, 783912, Control_c, 0, 67, 116
1, 783918, Note_on_c, 0, 68, 42
1, 783924, Note_off_c, 0, 64, 64
1, 783924, Note_off_c, 0, 71, 61
1, 783933, Note_off_c, 0, 52, 67
1, 783941, Control_c, 0, 67, 115
1, 783946, Note_off_c, 0, 68, 58
1, 783956, Control_c, 0, 67, 115
1, 783986, Control_c, 0, 67, 114
1, 784015, Control_c, 0, 67, 113
1, 784030, Control_c, 0, 67, 112
1, 784045, Control_c, 0, 67, 112
1, 784060, Control_c, 0, 67, 110
1, 784074, Control_c, 0, 67, 105
1, 784089, Control_c, 0, 67, 98
1, 784104, Control_c, 0, 67, 90
1, 784109, Note_on_c, 0, 72, 77
1, 784118, Control_c, 0, 67, 77
1, 784119, Note_on_c, 0, 69, 65
1, 784121, Note_on_c, 0, 57, 62
1, 784121, Note_on_c, 0, 64, 61
1, 784141, Control_c, 0, 67, 61
1, 784148, Note_off_c, 0, 64, 64
1, 784151, Note_off_c, 0, 69, 72
1, 784156, Control_c, 0, 67, 43
1, 784157, Note_off_c, 0, 57, 65
1, 784164, Note_off_c, 0, 72, 62
1, 784172, Control_c, 0, 67, 28
1, 784187, Control_c, 0, 67, 19
1, 784202, Control_c, 0, 67, 15
1, 784216, Control_c, 0, 67, 12
1, 784231, Control_c, 0, 67, 9
1, 784246, Control_c, 0, 67, 0
1, 784318, Note_on_c, 0, 71, 79
1, 784325, Note_on_c, 0, 52, 50
1, 784330, Note_on_c, 0, 68, 69
1, 784336, Note_on_c, 0, 64, 57
1, 784354, Note_off_c, 0, 68, 69
1, 784359, Note_off_c, 0, 64, 61
1, 784365, Note_off_c, 0, 71, 62
1, 784366, Note_off_c, 0, 52, 64
1, 784527, Note_on_c, 0, 72, 90
1, 784532, Note_on_c, 0, 69, 84
1, 784534, Note_on_c, 0, 64, 77
1, 784538, Note_on_c, 0, 57, 66
1, 784553, Note_off_c, 0, 69, 69
1, 784556, Note_off_c, 0, 64, 70
1, 784566, Note_off_c, 0, 57, 65
1, 784573, Note_off_c, 0, 72, 65
1, 784828, Note_on_c, 0, 76, 99
1, 784838, Note_on_c, 0, 64, 87
1, 784838, Note_on_c, 0, 71, 85
1, 784842, Note_on_c, 0, 44, 85
1, 784844, Note_on_c, 0, 32, 82
1, 784853, Control_c, 0, 64, 62
1, 784868, Control_c, 0, 64, 79
1, 784883, Control_c, 0, 64, 92
1, 784905, Control_c, 0, 64, 94
1, 784920, Control_c, 0, 64, 98
1, 784935, Control_c, 0, 64, 106
1, 784949, Control_c, 0, 64, 125
1, 784965, Control_c, 0, 64, 127
1, 785230, Note_off_c, 0, 32, 36
1, 785230, Note_off_c, 0, 64, 59
1, 785230, Note_off_c, 0, 71, 53
1, 785242, Note_off_c, 0, 44, 58
1, 785306, Control_c, 0, 64, 98
1, 785320, Control_c, 0, 64, 79
1, 785335, Control_c, 0, 64, 64
1, 785344, Note_on_c, 0, 72, 70
1, 785346, Note_on_c, 0, 69, 51
1, 785350, Control_c, 0, 64, 0
1, 785351, Note_on_c, 0, 64, 55
1, 785353, Note_on_c, 0, 45, 47
1, 785360, Note_off_c, 0, 76, 53
1, 785367, Note_on_c, 0, 33, 46
1, 785498, Control_c, 0, 64, 49
1, 785512, Control_c, 0, 64, 62
1, 785512, Control_c, 0, 67, 16
1, 785527, Control_c, 0, 64, 66
1, 785527, Control_c, 0, 67, 26
1, 785542, Control_c, 0, 64, 68
1, 785542, Control_c, 0, 67, 39
1, 785556, Control_c, 0, 67, 48
1, 785557, Note_off_c, 0, 33, 59
1, 785571, Control_c, 0, 64, 66
1, 785571, Control_c, 0, 67, 55
1, 785578, Note_off_c, 0, 64, 64
1, 785586, Control_c, 0, 64, 64
1, 785586, Control_c, 0, 67, 58
1, 785598, Note_off_c, 0, 72, 62
1, 785601, Control_c, 0, 64, 59
1, 785601, Control_c, 0, 67, 62
1, 785603, Note_off_c, 0, 45, 65
1, 785610, Note_off_c, 0, 69, 66
1, 785616, Control_c, 0, 64, 38
1, 785616, Control_c, 0, 67, 67
1, 785631, Control_c, 0, 64, 0
1, 785631, Control_c, 0, 67, 73
1, 785653, Control_c, 0, 67, 80
1, 785668, Control_c, 0, 67, 86
1, 785683, Control_c, 0, 67, 92
1, 785698, Control_c, 0, 67, 97
1, 785713, Control_c, 0, 67, 102
1, 785727, Control_c, 0, 67, 105
1, 785742, Control_c, 0, 67, 107
1, 785787, Control_c, 0, 67, 107
1, 785817, Control_c, 0, 67, 108
1, 785835, Note_on_c, 0, 72, 78
1, 785838, Note_on_c, 0, 64, 48
1, 785851, Note_on_c, 0, 67, 46
1, 785859, Note_on_c, 0, 60, 28
1, 785865, Note_off_c, 0, 72, 63
1, 785877, Note_off_c, 0, 67, 58
1, 785939, Note_on_c, 0, 72, 71
1, 786001, Note_off_c, 0, 72, 62
1, 786020, Note_off_c, 0, 60, 38
1, 786048, Note_off_c, 0, 64, 56
1, 786061, Note_on_c, 0, 74, 79
1, 786078, Note_on_c, 0, 65, 52
1, 786080, Note_on_c, 0, 67, 62
1, 786085, Note_on_c, 0, 59, 45
1, 786128, Control_c, 0, 67, 107
1, 786142, Control_c, 0, 67, 107
1, 786157, Control_c, 0, 67, 106
1, 786172, Control_c, 0, 67, 105
1, 786187, Control_c, 0, 64, 53
1, 786187, Control_c, 0, 67, 105
1, 786202, Control_c, 0, 64, 64
1, 786202, Control_c, 0, 67, 104
1, 786217, Control_c, 0, 64, 70
1, 786217, Control_c, 0, 67, 104
1, 786232, Control_c, 0, 64, 73
1, 786247, Control_c, 0, 64, 74
1, 786247, Control_c, 0, 67, 103
1, 786261, Control_c, 0, 64, 76
1, 786261, Control_c, 0, 67, 103
1, 786276, Control_c, 0, 64, 77
1, 786291, Control_c, 0, 64, 79
1, 786291, Control_c, 0, 67, 102
1, 786306, Control_c, 0, 64, 79
1, 786321, Control_c, 0, 64, 80
1, 786324, Note_off_c, 0, 67, 55
1, 786333, Note_off_c, 0, 74, 60
1, 786336, Control_c, 0, 67, 101
1, 786366, Control_c, 0, 67, 101
1, 786417, Control_c, 0, 67, 100
1, 786447, Control_c, 0, 64, 79
1, 786447, Control_c, 0, 67, 99
1, 786448, Note_off_c, 0, 59, 52
1, 786461, Control_c, 0, 64, 77
1, 786476, Control_c, 0, 64, 74
1, 786476, Control_c, 0, 67, 99
1, 786485, Note_on_c, 0, 72, 72
1, 786490, Note_on_c, 0, 64, 51
1, 786491, Control_c, 0, 64, 68
1, 786493, Note_on_c, 0, 60, 47
1, 786493, Note_off_c, 0, 65, 37
1, 786501, Note_on_c, 0, 67, 47
1, 786506, Control_c, 0, 64, 60
1, 786509, Note_off_c, 0, 72, 67
1, 786521, Control_c, 0, 64, 32
1, 786528, Note_off_c, 0, 67, 58
1, 786536, Control_c, 0, 64, 0
1, 786536, Control_c, 0, 67, 98
1, 786574, Note_on_c, 0, 72, 64
1, 786603, Note_off_c, 0, 72, 64
1, 786612, Note_off_c, 0, 60, 55
1, 786614, Note_off_c, 0, 64, 52
1, 786655, Control_c, 0, 67, 99
1, 786675, Note_on_c, 0, 74, 78
1, 786697, Note_on_c, 0, 67, 55
1, 786700, Note_on_c, 0, 59, 40
1, 786700, Note_on_c, 0, 65, 45
1, 786804, Control_c, 0, 67, 98
1, 786818, Control_c, 0, 64, 37
1, 786818, Control_c, 0, 67, 98
1, 786833, Control_c, 0, 64, 58
1, 786833, Control_c, 0, 67, 97
1, 786848, Control_c, 0, 64, 64
1, 786863, Control_c, 0, 64, 66
1, 786863, Control_c, 0, 67, 97
1, 786878, Control_c, 0, 64, 67
1, 786907, Control_c, 0, 64, 67
1, 786907, Control_c, 0, 67, 96
1, 786912, Note_off_c, 0, 67, 57
1, 786922, Control_c, 0, 67, 96
1, 786926, Note_off_c, 0, 74, 61
1, 787065, Note_off_c, 0, 65, 47
1, 787070, Control_c, 0, 64, 67
1, 787083, Note_off_c, 0, 59, 53
1, 787084, Control_c, 0, 64, 66
1, 787099, Control_c, 0, 64, 65
1, 787114, Control_c, 0, 64, 62
1, 787122, Note_on_c, 0, 64, 40
1, 787123, Note_on_c, 0, 72, 75
1, 787136, Control_c, 0, 64, 54
1, 787138, Note_on_c, 0, 60, 42
1, 787145, Note_on_c, 0, 67, 48
1, 787151, Control_c, 0, 64, 0
1, 787154, Note_off_c, 0, 72, 67
1, 787171, Note_off_c, 0, 67, 61
1, 787197, Note_off_c, 0, 60, 52
1, 787210, Control_c, 0, 67, 97
1, 787226, Note_on_c, 0, 72, 70
1, 787240, Control_c, 0, 67, 97
1, 787279, Note_off_c, 0, 72, 60
1, 787296, Note_off_c, 0, 64, 22
1, 787313, Note_on_c, 0, 74, 79
1, 787316, Note_on_c, 0, 59, 55
1, 787329, Note_on_c, 0, 65, 58
1, 787329, Note_on_c, 0, 67, 67
1, 787389, Control_c, 0, 64, 53
1, 787404, Control_c, 0, 64, 62
1, 787419, Control_c, 0, 64, 64
1, 787424, Note_off_c, 0, 74, 64
1, 787434, Control_c, 0, 64, 66
1, 787448, Control_c, 0, 64, 68
1, 787463, Control_c, 0, 64, 71
1, 787463, Control_c, 0, 67, 97
1, 787478, Control_c, 0, 64, 73
1, 787489, Note_off_c, 0, 67, 56
1, 787493, Control_c, 0, 64, 74
1, 787574, Note_off_c, 0, 59, 60
1, 787597, Control_c, 0, 67, 96
1, 787606, Note_off_c, 0, 65, 58
1, 787701, Control_c, 0, 64, 74
1, 787715, Control_c, 0, 64, 69
1, 787730, Control_c, 0, 64, 61
1, 787737, Note_on_c, 0, 67, 64
1, 787738, Note_on_c, 0, 58, 58
1, 787744, Note_on_c, 0, 76, 74
1, 787745, Control_c, 0, 64, 0
1, 787755, Note_on_c, 0, 72, 55
1, 787761, Note_off_c, 0, 67, 66
1, 787770, Note_off_c, 0, 58, 62
1, 787772, Note_off_c, 0, 76, 64
1, 787779, Note_off_c, 0, 72, 64
1, 787833, Control_c, 0, 67, 96
1, 787836, Note_on_c, 0, 76, 59
1, 787848, Control_c, 0, 67, 95
1, 787863, Control_c, 0, 67, 94
1, 787886, Control_c, 0, 67, 91
1, 787888, Note_off_c, 0, 76, 61
1, 787901, Control_c, 0, 67, 81
1, 787915, Control_c, 0, 67, 67
1, 787928, Note_on_c, 0, 65, 63
1, 787929, Note_on_c, 0, 57, 57
1, 787930, Control_c, 0, 67, 51
1, 787936, Note_on_c, 0, 79, 75
1, 787943, Note_on_c, 0, 72, 68
1, 787945, Control_c, 0, 67, 37
1, 787950, Note_off_c, 0, 57, 63
1, 787956, Note_off_c, 0, 65, 66
1, 787959, Control_c, 0, 67, 22
1, 787974, Control_c, 0, 67, 8
1, 787976, Note_off_c, 0, 72, 60
1, 787989, Control_c, 0, 67, 0
1, 788019, Note_on_c, 0, 77, 73
1, 788020, Note_off_c, 0, 79, 59
1, 788092, Note_off_c, 0, 77, 59
1, 788128, Note_on_c, 0, 76, 68
1, 788146, Note_on_c, 0, 72, 57
1, 788148, Note_on_c, 0, 67, 58
1, 788148, Note_on_c, 0, 55, 58
1, 788154, Note_off_c, 0, 76, 68
1, 788166, Note_off_c, 0, 72, 65
1, 788169, Note_off_c, 0, 67, 62
1, 788176, Note_off_c, 0, 55, 66
1, 788353, Note_on_c, 0, 74, 70
1, 788354, Note_on_c, 0, 65, 64
1, 788356, Note_on_c, 0, 71, 63
1, 788364, Note_on_c, 0, 55, 47
1, 788381, Note_off_c, 0, 71, 66
1, 788383, Note_off_c, 0, 65, 65
1, 788390, Note_off_c, 0, 74, 63
1, 788393, Note_off_c, 0, 55, 55
1, 788562, Note_on_c, 0, 64, 62
1, 788562, Note_on_c, 0, 72, 86
1, 788570, Note_on_c, 0, 60, 53
1, 788581, Note_off_c, 0, 64, 64
1, 788592, Note_off_c, 0, 60, 58
1, 788600, Note_off_c, 0, 72, 63
1, 788779, Note_on_c, 0, 79, 97
1, 788785, Note_on_c, 0, 67, 90
1, 788793, Note_on_c, 0, 52, 83
1, 788793, Note_on_c, 0, 64, 76
1, 788797, Control_c, 0, 64, 66
1, 788812, Control_c, 0, 64, 81
1, 788827, Control_c, 0, 64, 99
1, 788842, Control_c, 0, 64, 127
1, 788845, Note_off_c, 0, 64, 59
1, 788851, Note_off_c, 0, 52, 65
1, 789034, Note_off_c, 0, 79, 58
1, 789072, Note_off_c, 0, 67, 59
1, 789186, Note_on_c, 0, 76, 87
1, 789194, Note_on_c, 0, 64, 76
1, 789196, Note_on_c, 0, 48, 71
1, 789198, Note_on_c, 0, 60, 64
1, 789198, Control_c, 0, 64, 89
1, 789212, Control_c, 0, 64, 67
1, 789218, Note_off_c, 0, 60, 65
1, 789224, Note_off_c, 0, 48, 63
1, 789225, Note_off_c, 0, 64, 62
1, 789227, Control_c, 0, 64, 18
1, 789236, Note_off_c, 0, 76, 62
1, 789242, Control_c, 0, 64, 0
1, 789403, Note_on_c, 0, 72, 75
1, 789405, Note_on_c, 0, 45, 60
1, 789407, Note_on_c, 0, 60, 67
1, 789417, Note_on_c, 0, 57, 34
1, 789434, Note_off_c, 0, 60, 64
1, 789436, Note_off_c, 0, 45, 66
1, 789444, Note_off_c, 0, 72, 57
1, 789452, Note_off_c, 0, 57, 32
1, 789591, Note_on_c, 0, 69, 80
1, 789593, Note_on_c, 0, 57, 64
1, 789598, Note_on_c, 0, 41, 71
1, 789604, Note_on_c, 0, 53, 59
1, 789631, Note_off_c, 0, 41, 65
1, 789633, Note_off_c, 0, 53, 67
1, 789639, Note_off_c, 0, 57, 59
1, 789639, Note_off_c, 0, 69, 65
1, 789784, Note_on_c, 0, 65, 90
1, 789790, Note_on_c, 0, 53, 82
1, 789791, Note_on_c, 0, 38, 69
1, 789794, Note_on_c, 0, 50, 64
1, 789812, Note_off_c, 0, 53, 72
1, 789824, Note_off_c, 0, 38, 63
1, 789830, Note_off_c, 0, 50, 58
1, 789836, Note_off_c, 0, 65, 62
1, 790010, Note_on_c, 0, 81, 96
1, 790011, Note_on_c, 0, 69, 93
1, 790016, Note_on_c, 0, 35, 73
1, 790016, Note_on_c, 0, 74, 79
1, 790016, Note_on_c, 0, 77, 89
1, 790019, Note_on_c, 0, 47, 79
1, 790021, Control_c, 0, 64, 52
1, 790035, Control_c, 0, 64, 64
1, 790043, Note_off_c, 0, 35, 67
1, 790050, Control_c, 0, 64, 73
1, 790065, Control_c, 0, 64, 85
1, 790074, Note_off_c, 0, 47, 63
1, 790080, Control_c, 0, 64, 103
1, 790095, Control_c, 0, 64, 127
1, 790119, Note_off_c, 0, 69, 65
1, 790147, Note_off_c, 0, 74, 61
1, 790157, Note_off_c, 0, 77, 61
1, 790172, Note_off_c, 0, 81, 56
1, 790476, Note_on_c, 0, 86, 99
1, 790482, Note_on_c, 0, 77, 94
1, 790485, Note_on_c, 0, 81, 90
1, 790490, Note_on_c, 0, 59, 77
1, 790491, Note_on_c, 0, 69, 84
1, 790494, Note_on_c, 0, 65, 75
1, 790532, Control_c, 0, 64, 79
1, 790547, Control_c, 0, 64, 60
1, 790563, Control_c, 0, 64, 0
1, 791162, Control_c, 0, 64, 52
1, 791177, Control_c, 0, 64, 64
1, 791192, Control_c, 0, 64, 69
1, 791207, Control_c, 0, 64, 73
1, 791222, Control_c, 0, 64, 77
1, 791237, Control_c, 0, 64, 81
1, 791251, Control_c, 0, 64, 85
1, 791266, Control_c, 0, 64, 91
1, 791281, Control_c, 0, 64, 98
1, 791296, Control_c, 0, 64, 104
1, 791310, Control_c, 0, 64, 107
1, 791316, Note_off_c, 0, 77, 60
1, 791320, Note_off_c, 0, 59, 38
1, 791325, Control_c, 0, 64, 108
1, 791340, Control_c, 0, 64, 109
1, 791360, Note_off_c, 0, 81, 54
1, 791386, Note_off_c, 0, 69, 55
1, 791486, Note_on_c, 0, 84, 62
1, 791504, Control_c, 0, 64, 108
1, 791519, Control_c, 0, 64, 106
1, 791533, Control_c, 0, 64, 102
1, 791548, Control_c, 0, 64, 95
1, 791551, Note_off_c, 0, 65, 50
1, 791563, Control_c, 0, 64, 89
1, 791571, Note_on_c, 0, 83, 58
1, 791578, Control_c, 0, 64, 81
1, 791593, Control_c, 0, 64, 72
1, 791603, Note_off_c, 0, 86, 48
1, 791607, Control_c, 0, 64, 65
1, 791614, Note_off_c, 0, 84, 38
1, 791630, Control_c, 0, 64, 51
1, 791645, Control_c, 0, 64, 0
1, 791657, Note_on_c, 0, 81, 64
1, 791657, Note_off_c, 0, 83, 55
1, 791742, Note_on_c, 0, 79, 67
1, 791748, Note_off_c, 0, 81, 58
1, 791749, Note_on_c, 0, 64, 33
1, 791754, Note_on_c, 0, 67, 31
1, 791760, Note_on_c, 0, 60, 34
1, 791781, Note_off_c, 0, 64, 57
1, 791782, Note_off_c, 0, 79, 57
1, 791796, Note_off_c, 0, 67, 52
1, 791798, Note_off_c, 0, 60, 55
1, 791867, Control_c, 0, 67, 8
1, 791881, Control_c, 0, 67, 12
1, 791896, Control_c, 0, 67, 17
1, 791911, Control_c, 0, 67, 22
1, 791925, Control_c, 0, 67, 27
1, 791940, Control_c, 0, 67, 32
1, 791955, Control_c, 0, 64, 52
1, 791955, Control_c, 0, 67, 37
1, 791970, Control_c, 0, 64, 63
1, 791970, Control_c, 0, 67, 40
1, 791978, Note_on_c, 0, 79, 65
1, 791979, Note_on_c, 0, 91, 90
1, 791982, Note_on_c, 0, 76, 63
1, 791985, Control_c, 0, 64, 69
1, 791985, Control_c, 0, 67, 44
1, 792000, Control_c, 0, 64, 76
1, 792000, Control_c, 0, 67, 47
1, 792008, Note_off_c, 0, 79, 62
1, 792009, Note_off_c, 0, 76, 66
1, 792015, Control_c, 0, 64, 82
1, 792015, Control_c, 0, 67, 49
1, 792029, Control_c, 0, 64, 87
1, 792029, Control_c, 0, 67, 51
1, 792044, Control_c, 0, 64, 92
1, 792044, Control_c, 0, 67, 53
1, 792059, Control_c, 0, 64, 97
1, 792059, Control_c, 0, 67, 56
1, 792074, Control_c, 0, 64, 100
1, 792074, Control_c, 0, 67, 58
1, 792089, Control_c, 0, 64, 101
1, 792089, Control_c, 0, 67, 61
1, 792104, Control_c, 0, 67, 64
1, 792119, Control_c, 0, 64, 102
1, 792119, Control_c, 0, 67, 67
1, 792133, Control_c, 0, 67, 69
1, 792148, Control_c, 0, 67, 71
1, 792164, Control_c, 0, 67, 73
1, 792178, Control_c, 0, 67, 73
1, 792193, Control_c, 0, 67, 74
1, 792274, Note_on_c, 0, 88, 75
1, 792292, Note_off_c, 0, 91, 57
1, 792298, Control_c, 0, 64, 101
1, 792298, Note_off_c, 0, 88, 67
1, 792312, Control_c, 0, 64, 98
1, 792327, Control_c, 0, 64, 90
1, 792342, Control_c, 0, 64, 78
1, 792356, Control_c, 0, 64, 69
1, 792377, Note_on_c, 0, 88, 85
1, 792378, Control_c, 0, 64, 60
1, 792379, Note_on_c, 0, 72, 50
1, 792381, Note_on_c, 0, 76, 50
1, 792393, Control_c, 0, 64, 34
1, 792402, Note_off_c, 0, 72, 60
1, 792403, Note_off_c, 0, 76, 63
1, 792408, Control_c, 0, 64, 0
1, 792463, Note_on_c, 0, 84, 74
1, 792479, Note_off_c, 0, 88, 61
1, 792489, Note_off_c, 0, 84, 67
1, 792553, Note_on_c, 0, 69, 60
1, 792557, Note_on_c, 0, 84, 87
1, 792569, Note_on_c, 0, 72, 36
1, 792575, Note_off_c, 0, 69, 68
1, 792597, Note_off_c, 0, 72, 53
1, 792640, Note_on_c, 0, 81, 72
1, 792651, Note_off_c, 0, 84, 59
1, 792660, Control_c, 0, 67, 73
1, 792673, Note_off_c, 0, 81, 63
1, 792674, Control_c, 0, 67, 73
1, 792704, Control_c, 0, 67, 72
1, 792745, Note_on_c, 0, 81, 78
1, 792748, Control_c, 0, 67, 72
1, 792760, Note_on_c, 0, 65, 21
1, 792763, Control_c, 0, 67, 70
1, 792778, Control_c, 0, 67, 69
1, 792793, Control_c, 0, 67, 67
1, 792800, Note_off_c, 0, 65, 50
1, 792808, Control_c, 0, 67, 66
1, 792822, Control_c, 0, 67, 64
1, 792828, Note_on_c, 0, 77, 75
1, 792837, Control_c, 0, 67, 63
1, 792844, Note_off_c, 0, 81, 59
1, 792852, Control_c, 0, 67, 61
1, 792859, Note_off_c, 0, 77, 63
1, 792867, Control_c, 0, 67, 53
1, 792882, Control_c, 0, 67, 42
1, 792897, Control_c, 0, 67, 30
1, 792912, Control_c, 0, 67, 18
1, 792925, Note_on_c, 0, 77, 77
1, 792927, Control_c, 0, 67, 8
1, 792935, Note_on_c, 0, 62, 63
1, 792939, Note_on_c, 0, 65, 64
1, 792942, Control_c, 0, 67, 0
1, 792962, Note_off_c, 0, 62, 65
1, 792968, Note_off_c, 0, 65, 66
1, 792980, Note_off_c, 0, 77, 61
1, 793204, Note_on_c, 0, 80, 73
1, 793214, Note_on_c, 0, 72, 58
1, 793217, Note_on_c, 0, 75, 60
1, 793218, Note_on_c, 0, 68, 51
1, 793222, Note_on_c, 0, 60, 41
1, 793234, Note_on_c, 0, 63, 38
1, 793965, Control_c, 0, 64, 46
1, 793980, Control_c, 0, 64, 62
1, 793995, Control_c, 0, 64, 69
1, 794009, Control_c, 0, 64, 75
1, 794024, Control_c, 0, 64, 81
1, 794039, Control_c, 0, 64, 84
1, 794054, Control_c, 0, 64, 90
1, 794069, Control_c, 0, 64, 103
1, 794083, Control_c, 0, 64, 127
1, 794098, Control_c, 0, 67, 15
1, 794113, Control_c, 0, 67, 25
1, 794128, Control_c, 0, 67, 38
1, 794143, Note_off_c, 0, 72, 38
1, 794143, Control_c, 0, 67, 48
1, 794158, Control_c, 0, 67, 57
1, 794173, Control_c, 0, 67, 67
1, 794188, Control_c, 0, 67, 77
1, 794202, Control_c, 0, 67, 88
1, 794217, Control_c, 0, 67, 99
1, 794220, Note_off_c, 0, 68, 61
1, 794226, Note_off_c, 0, 60, 34
1, 794232, Control_c, 0, 67, 112
1, 794247, Control_c, 0, 67, 124
1, 794255, Note_off_c, 0, 75, 39
1, 794261, Control_c, 0, 67, 127
1, 794400, Note_off_c, 0, 63, 36
1, 794643, Note_off_c, 0, 80, 36
1, 794729, Control_c, 0, 64, 121
1, 794732, Note_on_c, 0, 59, 25
1, 794743, Note_on_c, 0, 74, 39
1, 794744, Control_c, 0, 64, 95
1, 794754, Note_on_c, 0, 71, 44
1, 794754, Note_on_c, 0, 79, 52
1, 794758, Control_c, 0, 64, 83
1, 794762, Note_on_c, 0, 62, 34
1, 794766, Note_on_c, 0, 67, 46
1, 794773, Control_c, 0, 64, 74
1, 794788, Control_c, 0, 64, 65
1, 794803, Control_c, 0, 64, 53
1, 794818, Control_c, 0, 64, 0
1, 794859, Note_on_c, 0, 76, 57
1, 794870, Note_off_c, 0, 62, 43
1, 794871, Note_off_c, 0, 74, 49
1, 794873, Note_on_c, 0, 64, 47
1, 794924, Note_off_c, 0, 64, 61
1, 794929, Note_off_c, 0, 76, 61
1, 794958, Note_on_c, 0, 77, 60
1, 794965, Note_on_c, 0, 65, 43
1, 795025, Note_off_c, 0, 65, 59
1, 795055, Note_on_c, 0, 64, 50
1, 795055, Note_on_c, 0, 76, 67
1, 795085, Note_off_c, 0, 77, 50
1, 795099, Note_off_c, 0, 64, 59
1, 795127, Note_off_c, 0, 76, 60
1, 795152, Note_on_c, 0, 62, 45
1, 795158, Note_on_c, 0, 74, 54
1, 795251, Note_off_c, 0, 74, 55
1, 795252, Note_on_c, 0, 76, 57
1, 795309, Note_on_c, 0, 64, 23
1, 795377, Note_off_c, 0, 67, 26
1, 795389, Note_off_c, 0, 76, 57
1, 795425, Note_off_c, 0, 64, 39
1, 795428, Note_on_c, 0, 77, 53
1, 795448, Note_off_c, 0, 79, 39
1, 795455, Note_on_c, 0, 65, 27
1, 795483, Note_off_c, 0, 62, 23
1, 795536, Control_c, 0, 64, 55
1, 795551, Control_c, 0, 64, 66
1, 795566, Control_c, 0, 64, 72
1, 795580, Control_c, 0, 64, 79
1, 795589, Note_off_c, 0, 71, 57
1, 795595, Control_c, 0, 64, 83
1, 795610, Note_off_c, 0, 59, 39
1, 795610, Control_c, 0, 64, 85
1, 795625, Control_c, 0, 64, 87
1, 795640, Control_c, 0, 64, 89
1, 795648, Note_off_c, 0, 77, 61
1, 795654, Control_c, 0, 64, 90
1, 795789, Note_off_c, 0, 65, 43
1, 795869, Note_on_c, 0, 60, 53
1, 795877, Control_c, 0, 64, 87
1, 795878, Note_on_c, 0, 79, 66
1, 795884, Note_on_c, 0, 76, 64
1, 795892, Control_c, 0, 64, 83
1, 795897, Note_on_c, 0, 67, 19
1, 795901, Note_on_c, 0, 72, 50
1, 795906, Control_c, 0, 64, 80
1, 795913, Note_off_c, 0, 76, 65
1, 795914, Note_off_c, 0, 60, 61
1, 795920, Control_c, 0, 64, 77
1, 795928, Note_off_c, 0, 72, 63
1, 795935, Control_c, 0, 64, 76
1, 795940, Note_off_c, 0, 67, 53
1, 795946, Note_off_c, 0, 79, 59
1, 795950, Control_c, 0, 64, 75
1, 795965, Control_c, 0, 64, 74
1, 795979, Control_c, 0, 64, 73
1, 795994, Control_c, 0, 64, 71
1, 796009, Control_c, 0, 64, 68
1, 796024, Control_c, 0, 64, 63
1, 796039, Control_c, 0, 64, 53
1, 796054, Control_c, 0, 64, 0
1, 796062, Note_on_c, 0, 79, 72
1, 796073, Note_on_c, 0, 53, 60
1, 796086, Note_on_c, 0, 74, 57
1, 796096, Note_on_c, 0, 69, 46
1, 796134, Note_off_c, 0, 79, 56
1, 796137, Note_off_c, 0, 53, 64
1, 796152, Note_on_c, 0, 77, 74
1, 796164, Note_off_c, 0, 69, 55
1, 796164, Note_off_c, 0, 74, 60
1, 796197, Note_off_c, 0, 77, 60
1, 796210, Control_c, 0, 67, 127
1, 796225, Control_c, 0, 67, 113
1, 796240, Control_c, 0, 67, 97
1, 796255, Control_c, 0, 67, 75
1, 796262, Note_on_c, 0, 77, 69
1, 796264, Note_on_c, 0, 55, 59
1, 796269, Control_c, 0, 67, 56
1, 796283, Note_on_c, 0, 67, 56
1, 796284, Control_c, 0, 67, 39
1, 796299, Control_c, 0, 67, 26
1, 796304, Note_off_c, 0, 55, 62
1, 796310, Note_on_c, 0, 72, 35
1, 796314, Control_c, 0, 67, 19
1, 796328, Control_c, 0, 67, 13
1, 796343, Control_c, 0, 67, 0
1, 796344, Note_on_c, 0, 76, 68
1, 796349, Note_off_c, 0, 77, 61
1, 796352, Note_off_c, 0, 67, 53
1, 796371, Note_off_c, 0, 72, 63
1, 796371, Note_off_c, 0, 76, 67
1, 796444, Note_on_c, 0, 55, 59
1, 796459, Note_on_c, 0, 76, 78
1, 796477, Note_off_c, 0, 55, 63
1, 796535, Note_on_c, 0, 74, 61
1, 796540, Note_off_c, 0, 76, 60
1, 796572, Note_off_c, 0, 74, 60
1, 796667, Note_on_c, 0, 72, 68
1, 796692, Note_on_c, 0, 48, 45
1, 796696, Note_on_c, 0, 64, 51
1, 796709, Note_on_c, 0, 60, 38
1, 796714, Control_c, 0, 64, 39
1, 796729, Control_c, 0, 64, 62
1, 796744, Control_c, 0, 64, 72
1, 796759, Control_c, 0, 64, 88
1, 796774, Control_c, 0, 64, 127
1, 796789, Note_off_c, 0, 64, 64
1, 796823, Note_off_c, 0, 72, 65
1, 796839, Note_off_c, 0, 48, 61
1, 796892, Note_off_c, 0, 60, 59
1, 796990, Control_c, 0, 64, 113
1, 797005, Control_c, 0, 64, 82
1, 797019, Control_c, 0, 64, 66
1, 797034, Control_c, 0, 64, 0
1, 797127, Note_on_c, 0, 79, 75
1, 797136, Note_on_c, 0, 64, 49
1, 797163, Note_off_c, 0, 79, 61
1, 797164, Note_off_c, 0, 64, 62
1, 797226, Note_on_c, 0, 79, 72
1, 797237, Note_on_c, 0, 64, 51
1, 797262, Note_off_c, 0, 64, 60
1, 797270, Note_off_c, 0, 79, 58
1, 797335, Note_on_c, 0, 67, 78
1, 797353, Note_on_c, 0, 52, 53
1, 797374, Control_c, 0, 64, 39
1, 797389, Control_c, 0, 64, 62
1, 797404, Control_c, 0, 64, 68
1, 797419, Control_c, 0, 64, 72
1, 797434, Control_c, 0, 64, 77
1, 797449, Control_c, 0, 64, 84
1, 797463, Control_c, 0, 64, 94
1, 797478, Control_c, 0, 64, 110
1, 797493, Control_c, 0, 64, 127
1, 797554, Note_off_c, 0, 52, 66
1, 797557, Note_off_c, 0, 67, 60
1, 797708, Control_c, 0, 64, 83
1, 797723, Control_c, 0, 64, 65
1, 797738, Control_c, 0, 64, 0
1, 797768, Note_on_c, 0, 64, 57
1, 797770, Note_on_c, 0, 79, 75
1, 797800, Note_off_c, 0, 79, 61
1, 797806, Note_off_c, 0, 64, 59
1, 797863, Note_on_c, 0, 64, 50
1, 797869, Note_on_c, 0, 79, 68
1, 797898, Note_off_c, 0, 64, 65
1, 797926, Note_off_c, 0, 79, 56
1, 797966, Note_on_c, 0, 69, 84
1, 797977, Note_on_c, 0, 53, 71
1, 798005, Control_c, 0, 64, 14
1, 798020, Control_c, 0, 64, 58
1, 798035, Control_c, 0, 64, 65
1, 798049, Control_c, 0, 64, 69
1, 798064, Control_c, 0, 64, 73
1, 798079, Control_c, 0, 64, 78
1, 798093, Control_c, 0, 64, 83
1, 798108, Control_c, 0, 64, 87
1, 798123, Control_c, 0, 64, 89
1, 798138, Control_c, 0, 64, 90
1, 798153, Control_c, 0, 64, 91
1, 798167, Control_c, 0, 67, 8
1, 798182, Control_c, 0, 67, 12
1, 798184, Note_off_c, 0, 69, 63
1, 798189, Note_off_c, 0, 53, 65
1, 798197, Control_c, 0, 67, 16
1, 798212, Control_c, 0, 67, 19
1, 798227, Control_c, 0, 67, 20
1, 798236, Poly_aftertouch_c, 0, 75, 0
1, 798242, Control_c, 0, 67, 21
1, 798257, Control_c, 0, 67, 22
1, 798316, Control_c, 0, 64, 90
1, 798331, Control_c, 0, 64, 89
1, 798331, Control_c, 0, 67, 21
1, 798346, Control_c, 0, 64, 86
1, 798346, Control_c, 0, 67, 21
1, 798367, Control_c, 0, 64, 81
1, 798367, Control_c, 0, 67, 20
1, 798382, Control_c, 0, 64, 74
1, 798382, Control_c, 0, 67, 19
1, 798388, Note_on_c, 0, 64, 58
1, 798397, Control_c, 0, 64, 66
1, 798397, Control_c, 0, 67, 19
1, 798398, Note_on_c, 0, 79, 76
1, 798412, Control_c, 0, 64, 51
1, 798412, Control_c, 0, 67, 18
1, 798418, Note_off_c, 0, 64, 54
1, 798426, Control_c, 0, 64, 0
1, 798431, Note_off_c, 0, 79, 57
1, 798441, Control_c, 0, 67, 17
1, 798471, Control_c, 0, 67, 18
1, 798486, Control_c, 0, 67, 19
1, 798488, Note_on_c, 0, 64, 56
1, 798500, Note_on_c, 0, 79, 63
1, 798501, Control_c, 0, 67, 20
1, 798510, Note_off_c, 0, 64, 63
1, 798516, Control_c, 0, 67, 22
1, 798531, Control_c, 0, 67, 23
1, 798546, Control_c, 0, 67, 23
1, 798561, Control_c, 0, 67, 25
1, 798569, Note_off_c, 0, 79, 55
1, 798576, Control_c, 0, 67, 25
1, 798587, Note_on_c, 0, 55, 64
1, 798590, Note_on_c, 0, 71, 69
1, 798620, Control_c, 0, 67, 25
1, 798635, Control_c, 0, 67, 24
1, 798661, Note_off_c, 0, 55, 62
1, 798665, Control_c, 0, 67, 23
1, 798669, Note_off_c, 0, 71, 61
1, 798677, Note_on_c, 0, 79, 68
1, 798679, Note_on_c, 0, 65, 61
1, 798680, Control_c, 0, 67, 22
1, 798695, Control_c, 0, 67, 22
1, 798710, Control_c, 0, 67, 21
1, 798724, Control_c, 0, 67, 20
1, 798739, Control_c, 0, 67, 20
1, 798746, Note_off_c, 0, 65, 52
1, 798754, Control_c, 0, 67, 19
1, 798763, Note_on_c, 0, 72, 75
1, 798769, Control_c, 0, 67, 18
1, 798776, Note_off_c, 0, 79, 58
1, 798784, Control_c, 0, 67, 18
1, 798784, Note_on_c, 0, 57, 66
1, 798798, Control_c, 0, 67, 17
1, 798813, Control_c, 0, 67, 17
1, 798828, Control_c, 0, 67, 16
1, 798843, Note_off_c, 0, 57, 61
1, 798843, Control_c, 0, 64, 15
1, 798843, Control_c, 0, 67, 15
1, 798854, Note_off_c, 0, 72, 63
1, 798856, Note_on_c, 0, 79, 77
1, 798858, Control_c, 0, 64, 37
1, 798858, Control_c, 0, 67, 13
1, 798862, Note_on_c, 0, 65, 68
1, 798872, Control_c, 0, 64, 48
1, 798872, Control_c, 0, 67, 9
1, 798887, Control_c, 0, 64, 53
1, 798887, Control_c, 0, 67, 0
1, 798902, Control_c, 0, 64, 56
1, 798916, Control_c, 0, 64, 56
1, 798927, Note_off_c, 0, 65, 58
1, 798931, Control_c, 0, 64, 58
1, 798937, Note_off_c, 0, 79, 61
1, 798946, Control_c, 0, 64, 58
1, 798951, Note_on_c, 0, 74, 76
1, 798960, Note_on_c, 0, 59, 70
1, 799005, Control_c, 0, 64, 59
1, 799018, Note_off_c, 0, 59, 62
1, 799020, Control_c, 0, 64, 59
1, 799035, Control_c, 0, 64, 60
1, 799036, Note_on_c, 0, 79, 76
1, 799037, Note_on_c, 0, 65, 69
1, 799049, Note_off_c, 0, 74, 61
1, 799049, Control_c, 0, 64, 60
1, 799064, Control_c, 0, 64, 61
1, 799094, Control_c, 0, 64, 61
1, 799098, Note_off_c, 0, 65, 58
1, 799116, Control_c, 0, 64, 62
1, 799128, Note_off_c, 0, 79, 54
1, 799131, Control_c, 0, 64, 62
1, 799143, Note_on_c, 0, 76, 84
1, 799146, Note_on_c, 0, 60, 76
1, 799161, Control_c, 0, 64, 61
1, 799176, Control_c, 0, 64, 57
1, 799190, Control_c, 0, 64, 46
1, 799205, Control_c, 0, 64, 0
1, 799231, Note_on_c, 0, 64, 69
1, 799232, Note_on_c, 0, 79, 77
1, 799243, Note_off_c, 0, 60, 50
1, 799243, Note_off_c, 0, 76, 61
1, 799321, Note_on_c, 0, 74, 77
1, 799326, Note_off_c, 0, 64, 65
1, 799327, Note_off_c, 0, 79, 49
1, 799330, Note_on_c, 0, 59, 71
1, 799394, Note_off_c, 0, 59, 61
1, 799407, Note_on_c, 0, 80, 80
1, 799408, Note_off_c, 0, 74, 63
1, 799422, Note_on_c, 0, 64, 67
1, 799470, Note_off_c, 0, 64, 55
1, 799486, Note_on_c, 0, 72, 84
1, 799488, Control_c, 0, 64, 43
1, 799499, Note_on_c, 0, 57, 69
1, 799503, Control_c, 0, 64, 57
1, 799509, Note_off_c, 0, 80, 60
1, 799517, Control_c, 0, 64, 63
1, 799532, Control_c, 0, 64, 64
1, 799547, Control_c, 0, 64, 64
1, 799555, Note_off_c, 0, 57, 60
1, 799562, Control_c, 0, 64, 65
1, 799576, Note_off_c, 0, 72, 65
1, 799577, Control_c, 0, 64, 66
1, 799582, Note_on_c, 0, 81, 80
1, 799592, Control_c, 0, 64, 67
1, 799592, Note_on_c, 0, 64, 63
1, 799607, Control_c, 0, 64, 68
1, 799611, Note_off_c, 0, 81, 60
1, 799621, Control_c, 0, 64, 68
1, 799649, Note_off_c, 0, 64, 57
1, 799651, Control_c, 0, 64, 68
1, 799665, Control_c, 0, 64, 65
1, 799680, Control_c, 0, 64, 59
1, 799685, Note_on_c, 0, 53, 80
1, 799695, Control_c, 0, 64, 26
1, 799700, Note_on_c, 0, 81, 77
1, 799710, Control_c, 0, 64, 0
1, 799712, Note_on_c, 0, 79, 55
1, 799735, Note_off_c, 0, 79, 55
1, 799781, Note_on_c, 0, 86, 80
1, 799784, Note_off_c, 0, 53, 65
1, 799788, Note_on_c, 0, 62, 75
1, 799799, Control_c, 0, 64, 42
1, 799801, Note_off_c, 0, 81, 60
1, 799813, Control_c, 0, 64, 50
1, 799828, Control_c, 0, 64, 49
1, 799843, Control_c, 0, 64, 47
1, 799865, Control_c, 0, 64, 45
1, 799866, Note_on_c, 0, 83, 87
1, 799880, Control_c, 0, 64, 42
1, 799881, Note_off_c, 0, 62, 60
1, 799882, Note_off_c, 0, 86, 63
1, 799885, Note_on_c, 0, 55, 73
1, 799895, Control_c, 0, 64, 35
1, 799910, Control_c, 0, 64, 28
1, 799925, Control_c, 0, 64, 23
1, 799940, Control_c, 0, 64, 21
1, 799951, Note_off_c, 0, 55, 64
1, 799954, Control_c, 0, 64, 20
1, 799961, Note_on_c, 0, 88, 87
1, 799977, Note_on_c, 0, 64, 70
1, 799977, Note_off_c, 0, 83, 60
1, 799999, Control_c, 0, 64, 21
1, 800015, Note_off_c, 0, 64, 63
1, 800028, Control_c, 0, 64, 22
1, 800030, Note_off_c, 0, 88, 60
1, 800054, Note_on_c, 0, 83, 87
1, 800057, Note_on_c, 0, 55, 74
1, 800058, Control_c, 0, 64, 23
1, 800117, Control_c, 0, 64, 22
1, 800132, Control_c, 0, 64, 20
1, 800140, Note_on_c, 0, 65, 69
1, 800141, Note_off_c, 0, 55, 58
1, 800143, Note_on_c, 0, 91, 94
1, 800148, Control_c, 0, 64, 14
1, 800162, Control_c, 0, 64, 0
1, 800176, Note_off_c, 0, 65, 57
1, 800185, Note_off_c, 0, 83, 56
1, 800248, Note_on_c, 0, 84, 96
1, 800261, Note_on_c, 0, 60, 68
1, 800263, Note_on_c, 0, 64, 74
1, 800295, Control_c, 0, 64, 26
1, 800298, Note_off_c, 0, 91, 55
1, 800310, Control_c, 0, 64, 62
1, 800325, Control_c, 0, 64, 72
1, 800340, Control_c, 0, 64, 84
1, 800355, Control_c, 0, 64, 91
1, 800370, Control_c, 0, 64, 92
1, 800379, Note_off_c, 0, 84, 66
1, 800385, Control_c, 0, 64, 92
1, 800659, Control_c, 0, 64, 92
1, 800674, Control_c, 0, 64, 88
1, 800683, Note_on_c, 0, 72, 77
1, 800689, Control_c, 0, 64, 80
1, 800703, Control_c, 0, 64, 70
1, 800714, Note_off_c, 0, 72, 63
1, 800718, Control_c, 0, 64, 63
1, 800733, Control_c, 0, 64, 44
1, 800748, Control_c, 0, 64, 0
1, 800771, Note_off_c, 0, 64, 57
1, 800789, Note_on_c, 0, 72, 61
1, 800792, Note_off_c, 0, 60, 61
1, 800799, Note_on_c, 0, 71, 57
1, 800819, Note_off_c, 0, 71, 63
1, 800822, Note_off_c, 0, 72, 66
1, 800892, Note_on_c, 0, 73, 90
1, 800921, Note_on_c, 0, 70, 67
1, 800971, Control_c, 0, 64, 21
1, 800985, Control_c, 0, 64, 40
1, 801000, Control_c, 0, 64, 45
1, 801015, Control_c, 0, 64, 47
1, 801030, Control_c, 0, 64, 52
1, 801045, Control_c, 0, 64, 61
1, 801059, Control_c, 0, 64, 67
1, 801074, Control_c, 0, 64, 77
1, 801089, Control_c, 0, 64, 90
1, 801104, Control_c, 0, 64, 104
1, 801118, Note_off_c, 0, 70, 58
1, 801118, Control_c, 0, 64, 116
1, 801121, Note_on_c, 0, 60, 64
1, 801133, Control_c, 0, 64, 127
1, 801236, Note_off_c, 0, 73, 59
1, 801288, Note_on_c, 0, 68, 78
1, 801295, Note_on_c, 0, 72, 69
1, 801297, Control_c, 0, 64, 103
1, 801311, Control_c, 0, 64, 86
1, 801322, Note_off_c, 0, 72, 64
1, 801326, Control_c, 0, 64, 72
1, 801341, Control_c, 0, 64, 63
1, 801345, Note_off_c, 0, 68, 61
1, 801363, Control_c, 0, 64, 37
1, 801378, Control_c, 0, 64, 0
1, 801388, Note_on_c, 0, 72, 79
1, 801392, Note_on_c, 0, 68, 59
1, 801433, Note_off_c, 0, 68, 62
1, 801440, Note_off_c, 0, 72, 62
1, 801459, Note_off_c, 0, 60, 61
1, 801483, Note_on_c, 0, 70, 82
1, 801487, Note_on_c, 0, 67, 84
1, 801615, Control_c, 0, 64, 45
1, 801630, Control_c, 0, 64, 62
1, 801644, Control_c, 0, 64, 66
1, 801659, Control_c, 0, 64, 68
1, 801674, Control_c, 0, 64, 70
1, 801688, Note_off_c, 0, 67, 59
1, 801689, Control_c, 0, 64, 72
1, 801695, Note_on_c, 0, 60, 83
1, 801704, Control_c, 0, 64, 74
1, 801714, Note_off_c, 0, 70, 59
1, 801718, Control_c, 0, 64, 75
1, 801734, Control_c, 0, 64, 76
1, 801882, Control_c, 0, 64, 75
1, 801884, Note_on_c, 0, 65, 77
1, 801885, Note_on_c, 0, 68, 83
1, 801897, Control_c, 0, 64, 72
1, 801912, Control_c, 0, 64, 64
1, 801923, Note_off_c, 0, 65, 59
1, 801927, Control_c, 0, 64, 48
1, 801932, Note_off_c, 0, 68, 63
1, 801941, Control_c, 0, 64, 0
1, 801972, Note_on_c, 0, 68, 74
1, 801982, Note_on_c, 0, 65, 67
1, 802005, Note_off_c, 0, 60, 62
1, 802007, Note_off_c, 0, 65, 67
1, 802021, Note_off_c, 0, 68, 64
1, 802063, Note_on_c, 0, 67, 81
1, 802066, Note_on_c, 0, 64, 76
1, 802089, Note_off_c, 0, 64, 71
1, 802089, Note_off_c, 0, 67, 61
1, 802277, Note_on_c, 0, 64, 71
1, 802287, Note_on_c, 0, 67, 61
1, 802293, Note_on_c, 0, 61, 64
1, 802307, Note_off_c, 0, 64, 66
1, 802311, Note_off_c, 0, 67, 65
1, 802319, Note_off_c, 0, 61, 67
1, 802478, Note_on_c, 0, 68, 72
1, 802483, Note_on_c, 0, 59, 51
1, 802492, Note_on_c, 0, 65, 59
1, 802508, Note_off_c, 0, 59, 58
1, 802549, Note_off_c, 0, 65, 54
1, 802564, Note_off_c, 0, 68, 47
1, 802666, Note_on_c, 0, 67, 67
1, 802681, Note_on_c, 0, 60, 64
1, 802681, Note_on_c, 0, 64, 64
1, 802729, Note_off_c, 0, 60, 60
1, 802764, Control_c, 0, 64, 41
1, 802779, Control_c, 0, 64, 53
1, 802794, Control_c, 0, 64, 58
1, 802809, Control_c, 0, 64, 60
1, 802824, Control_c, 0, 64, 61
1, 802838, Control_c, 0, 64, 61
1, 802861, Control_c, 0, 64, 62
1, 802875, Note_on_c, 0, 48, 86
1, 802883, Note_off_c, 0, 64, 62
1, 802900, Note_off_c, 0, 67, 64
1, 802920, Control_c, 0, 64, 62
1, 803008, Control_c, 0, 64, 62
1, 803023, Control_c, 0, 64, 61
1, 803038, Control_c, 0, 64, 59
1, 803053, Control_c, 0, 64, 55
1, 803068, Control_c, 0, 64, 45
1, 803083, Note_on_c, 0, 60, 78
1, 803083, Control_c, 0, 64, 23
1, 803098, Control_c, 0, 64, 0
1, 803127, Note_off_c, 0, 60, 61
1, 803166, Note_on_c, 0, 60, 75
1, 803223, Note_off_c, 0, 60, 61
1, 803257, Note_on_c, 0, 61, 90
1, 803266, Note_on_c, 0, 58, 81
1, 803293, Note_off_c, 0, 48, 59
1, 803366, Control_c, 0, 64, 23
1, 803381, Control_c, 0, 64, 45
1, 803395, Control_c, 0, 64, 53
1, 803411, Control_c, 0, 64, 56
1, 803425, Control_c, 0, 64, 57
1, 803440, Control_c, 0, 64, 61
1, 803455, Control_c, 0, 64, 62
1, 803470, Control_c, 0, 64, 63
1, 803481, Note_on_c, 0, 48, 74
1, 803487, Note_off_c, 0, 58, 56
1, 803574, Control_c, 0, 64, 62
1, 803586, Note_off_c, 0, 61, 58
1, 803625, Control_c, 0, 64, 62
1, 803640, Control_c, 0, 64, 61
1, 803655, Control_c, 0, 64, 60
1, 803661, Note_on_c, 0, 56, 76
1, 803670, Control_c, 0, 64, 58
1, 803672, Note_on_c, 0, 60, 68
1, 803685, Control_c, 0, 64, 52
1, 803697, Note_off_c, 0, 60, 66
1, 803700, Note_off_c, 0, 56, 61
1, 803700, Control_c, 0, 64, 37
1, 803714, Control_c, 0, 64, 0
1, 803753, Note_on_c, 0, 60, 75
1, 803758, Note_on_c, 0, 56, 61
1, 803792, Note_off_c, 0, 56, 63
1, 803807, Note_off_c, 0, 60, 57
1, 803835, Note_off_c, 0, 48, 61
1, 803846, Note_on_c, 0, 58, 80
1, 803851, Note_on_c, 0, 55, 76
1, 803966, Control_c, 0, 64, 23
1, 803980, Control_c, 0, 64, 48
1, 803995, Control_c, 0, 64, 55
1, 803995, Control_c, 0, 67, 8
1, 804010, Control_c, 0, 64, 57
1, 804010, Control_c, 0, 67, 10
1, 804025, Control_c, 0, 64, 58
1, 804025, Control_c, 0, 67, 11
1, 804040, Control_c, 0, 64, 58
1, 804040, Control_c, 0, 67, 13
1, 804045, Note_on_c, 0, 48, 79
1, 804045, Note_off_c, 0, 55, 60
1, 804054, Control_c, 0, 64, 59
1, 804054, Control_c, 0, 67, 13
1, 804068, Note_off_c, 0, 58, 61
1, 804084, Control_c, 0, 64, 58
1, 804114, Control_c, 0, 67, 13
1, 804144, Control_c, 0, 67, 12
1, 804159, Control_c, 0, 64, 58
1, 804189, Control_c, 0, 64, 57
1, 804203, Control_c, 0, 64, 55
1, 804203, Control_c, 0, 67, 13
1, 804218, Control_c, 0, 64, 49
1, 804233, Control_c, 0, 64, 28
1, 804245, Note_on_c, 0, 53, 73
1, 804247, Note_on_c, 0, 56, 76
1, 804248, Control_c, 0, 64, 0
1, 804272, Note_off_c, 0, 56, 67
1, 804275, Note_off_c, 0, 53, 68
1, 804277, Control_c, 0, 67, 12
1, 804292, Control_c, 0, 67, 11
1, 804307, Control_c, 0, 67, 11
1, 804322, Control_c, 0, 67, 10
1, 804331, Note_on_c, 0, 56, 72
1, 804334, Note_off_c, 0, 48, 60
1, 804336, Control_c, 0, 67, 9
1, 804345, Note_on_c, 0, 53, 55
1, 804373, Control_c, 0, 67, 8
1, 804376, Note_off_c, 0, 53, 62
1, 804376, Note_off_c, 0, 56, 55
1, 804417, Note_on_c, 0, 55, 73
1, 804418, Control_c, 0, 67, 8
1, 804425, Note_on_c, 0, 52, 73
1, 804433, Control_c, 0, 67, 0
1, 804446, Note_off_c, 0, 55, 67
1, 804452, Note_off_c, 0, 52, 69
1, 804636, Note_on_c, 0, 55, 67
1, 804640, Note_on_c, 0, 52, 65
1, 804645, Note_on_c, 0, 49, 55
1, 804657, Note_off_c, 0, 55, 68
1, 804662, Note_off_c, 0, 52, 67
1, 804669, Note_off_c, 0, 49, 60
1, 804853, Note_on_c, 0, 53, 61
1, 804855, Note_on_c, 0, 56, 55
1, 804864, Note_on_c, 0, 47, 44
1, 804883, Note_off_c, 0, 53, 67
1, 804890, Note_off_c, 0, 56, 63
1, 804898, Note_off_c, 0, 47, 33
1, 805091, Note_on_c, 0, 55, 66
1, 805097, Note_on_c, 0, 48, 54
1, 805101, Note_on_c, 0, 52, 50
1, 805144, Note_off_c, 0, 48, 63
1, 805291, Note_on_c, 0, 36, 71
1, 805300, Note_off_c, 0, 52, 64
1, 805323, Note_off_c, 0, 36, 63
1, 805336, Note_off_c, 0, 55, 61
1, 805514, Note_on_c, 0, 48, 86
1, 805518, Note_on_c, 0, 60, 78
1, 805545, Note_off_c, 0, 60, 66
1, 805548, Note_off_c, 0, 48, 63
1, 805601, Note_on_c, 0, 48, 79
1, 805607, Note_on_c, 0, 60, 83
1, 805628, Note_off_c, 0, 60, 70
1, 805634, Note_off_c, 0, 48, 62
1, 805694, Note_on_c, 0, 61, 101
1, 805696, Note_on_c, 0, 49, 87
1, 805730, Control_c, 0, 64, 43
1, 805745, Control_c, 0, 64, 65
1, 805760, Control_c, 0, 64, 85
1, 805774, Control_c, 0, 64, 127
1, 805783, Note_off_c, 0, 49, 62
1, 805808, Note_off_c, 0, 61, 60
1, 805927, Note_on_c, 0, 63, 90
1, 805927, Note_on_c, 0, 70, 69
1, 805927, Note_on_c, 0, 75, 89
1, 805929, Note_on_c, 0, 67, 79
1, 806120, Note_off_c, 0, 63, 56
1, 806151, Note_off_c, 0, 75, 62
1, 806154, Note_off_c, 0, 67, 50
1, 806156, Note_on_c, 0, 48, 85
1, 806159, Note_on_c, 0, 60, 81
1, 806175, Note_off_c, 0, 70, 53
1, 806183, Note_off_c, 0, 60, 66
1, 806195, Note_off_c, 0, 48, 59
1, 806233, Note_on_c, 0, 48, 67
1, 806241, Note_on_c, 0, 60, 81
1, 806263, Note_off_c, 0, 60, 67
1, 806269, Note_off_c, 0, 48, 57
1, 806271, Control_c, 0, 64, 106
1, 806280, Note_on_c, 0, 55, 35
1, 806286, Control_c, 0, 64, 78
1, 806301, Control_c, 0, 64, 60
1, 806310, Note_off_c, 0, 55, 51
1, 806315, Control_c, 0, 64, 0
1, 806333, Note_on_c, 0, 61, 96
1, 806335, Note_on_c, 0, 49, 86
1, 806508, Control_c, 0, 64, 63
1, 806523, Control_c, 0, 64, 76
1, 806538, Control_c, 0, 64, 95
1, 806546, Note_on_c, 0, 75, 83
1, 806546, Note_on_c, 0, 70, 68
1, 806548, Note_on_c, 0, 67, 67
1, 806552, Note_on_c, 0, 63, 75
1, 806553, Control_c, 0, 64, 112
1, 806568, Control_c, 0, 64, 113
1, 806583, Note_off_c, 0, 49, 59
1, 806587, Note_off_c, 0, 61, 56
1, 806756, Note_on_c, 0, 48, 83
1, 806761, Note_on_c, 0, 60, 79
1, 806784, Note_off_c, 0, 60, 68
1, 806788, Note_off_c, 0, 48, 62
1, 806804, Note_off_c, 0, 70, 32
1, 806806, Note_off_c, 0, 67, 33
1, 806812, Control_c, 0, 64, 125
1, 806827, Control_c, 0, 64, 127
1, 806832, Note_off_c, 0, 63, 27
1, 806839, Note_on_c, 0, 48, 76
1, 806849, Note_on_c, 0, 60, 78
1, 806865, Note_off_c, 0, 48, 67
1, 806868, Note_off_c, 0, 60, 70
1, 806916, Control_c, 0, 64, 90
1, 806925, Note_on_c, 0, 61, 101
1, 806928, Note_on_c, 0, 49, 91
1, 806931, Control_c, 0, 64, 65
1, 806942, Note_off_c, 0, 75, 19
1, 806946, Control_c, 0, 64, 0
1, 806967, Note_off_c, 0, 61, 62
1, 806979, Note_off_c, 0, 49, 57
1, 807122, Note_on_c, 0, 58, 79
1, 807122, Note_on_c, 0, 63, 81
1, 807122, Note_on_c, 0, 75, 77
1, 807127, Note_on_c, 0, 46, 72
1, 807130, Note_on_c, 0, 67, 64
1, 807131, Note_on_c, 0, 70, 65
1, 807143, Note_off_c, 0, 58, 70
1, 807155, Note_off_c, 0, 46, 66
1, 807164, Note_off_c, 0, 67, 60
1, 807171, Note_off_c, 0, 63, 60
1, 807172, Note_off_c, 0, 70, 55
1, 807199, Note_off_c, 0, 75, 60
1, 807314, Note_on_c, 0, 43, 78
1, 807316, Note_on_c, 0, 55, 75
1, 807317, Note_on_c, 0, 63, 83
1, 807317, Note_on_c, 0, 75, 76
1, 807327, Note_on_c, 0, 70, 66
1, 807330, Note_on_c, 0, 67, 67
1, 807343, Note_off_c, 0, 55, 67
1, 807354, Note_off_c, 0, 43, 66
1, 807381, Note_off_c, 0, 67, 47
1, 807383, Note_off_c, 0, 63, 59
1, 807417, Note_off_c, 0, 70, 49
1, 807423, Note_off_c, 0, 75, 61
1, 807503, Note_on_c, 0, 51, 92
1, 807503, Note_on_c, 0, 63, 91
1, 807508, Note_on_c, 0, 39, 84
1, 807510, Note_on_c, 0, 75, 90
1, 807522, Note_on_c, 0, 67, 62
1, 807528, Note_on_c, 0, 70, 61
1, 807541, Note_off_c, 0, 39, 65
1, 807546, Note_off_c, 0, 63, 65
1, 807548, Note_off_c, 0, 67, 66
1, 807549, Note_off_c, 0, 51, 60
1, 807557, Note_off_c, 0, 70, 67
1, 807576, Note_off_c, 0, 75, 64
1, 807694, Note_on_c, 0, 79, 94
1, 807702, Note_on_c, 0, 49, 91
1, 807705, Note_on_c, 0, 70, 88
1, 807706, Note_on_c, 0, 37, 88
1, 807725, Note_off_c, 0, 70, 69
1, 807741, Note_off_c, 0, 37, 66
1, 807747, Note_off_c, 0, 79, 64
1, 807748, Note_off_c, 0, 49, 60
1, 807900, Note_on_c, 0, 75, 98
1, 807903, Note_on_c, 0, 46, 99
1, 807903, Note_on_c, 0, 82, 93
1, 807910, Note_on_c, 0, 34, 88
1, 807912, Note_on_c, 0, 79, 68
1, 807940, Note_off_c, 0, 79, 64
1, 807943, Note_off_c, 0, 34, 65
1, 807945, Note_off_c, 0, 46, 63
1, 807978, Note_off_c, 0, 82, 63
1, 807979, Note_off_c, 0, 75, 64
1, 808164, Note_on_c, 0, 85, 96
1, 808165, Note_on_c, 0, 75, 99
1, 808168, Note_on_c, 0, 43, 97
1, 808171, Note_on_c, 0, 82, 85
1, 808171, Note_on_c, 0, 31, 92
1, 808192, Control_c, 0, 64, 39
1, 808207, Control_c, 0, 64, 59
1, 808222, Control_c, 0, 64, 71
1, 808236, Control_c, 0, 64, 90
1, 808251, Control_c, 0, 64, 127
1, 808305, Note_off_c, 0, 31, 62
1, 808338, Note_off_c, 0, 43, 59
1, 808341, Note_off_c, 0, 85, 58
1, 808355, Control_c, 0, 64, 77
1, 808364, Note_off_c, 0, 75, 59
1, 808366, Note_off_c, 0, 82, 60
1, 808370, Control_c, 0, 64, 53
1, 808384, Control_c, 0, 64, 0
1, 808814, Control_c, 0, 67, 9
1, 808828, Control_c, 0, 67, 16
1, 808843, Control_c, 0, 67, 25
1, 808866, Control_c, 0, 67, 33
1, 808881, Control_c, 0, 67, 43
1, 808895, Control_c, 0, 67, 53
1, 808910, Control_c, 0, 67, 61
1, 808925, Control_c, 0, 67, 68
1, 808940, Control_c, 0, 67, 75
1, 808955, Control_c, 0, 67, 82
1, 808970, Control_c, 0, 67, 88
1, 808985, Control_c, 0, 67, 94
1, 809000, Control_c, 0, 67, 103
1, 809015, Control_c, 0, 67, 111
1, 809030, Control_c, 0, 67, 121
1, 809044, Control_c, 0, 67, 127
1, 809363, Note_on_c, 0, 63, 58
1, 809393, Note_off_c, 0, 63, 62
1, 809444, Note_on_c, 0, 63, 46
1, 809574, Note_on_c, 0, 72, 68
1, 809575, Note_off_c, 0, 63, 0
1, 809610, Note_on_c, 0, 68, 56
1, 809612, Note_on_c, 0, 63, 18
1, 809796, Note_on_c, 0, 44, 43
1, 809823, Note_off_c, 0, 44, 59
1, 809886, Note_off_c, 0, 68, 58
1, 809893, Note_on_c, 0, 44, 41
1, 809933, Note_off_c, 0, 44, 64
1, 809976, Note_off_c, 0, 72, 58
1, 809978, Note_on_c, 0, 51, 60
1, 809992, Note_on_c, 0, 70, 65
1, 809998, Note_on_c, 0, 67, 51
1, 810015, Note_off_c, 0, 51, 60
1, 810024, Note_off_c, 0, 63, 43
1, 810091, Note_off_c, 0, 67, 59
1, 810106, Note_off_c, 0, 70, 59
1, 810192, Note_on_c, 0, 72, 76
1, 810210, Note_on_c, 0, 68, 58
1, 810230, Note_on_c, 0, 63, 47
1, 810410, Note_on_c, 0, 44, 57
1, 810441, Note_off_c, 0, 68, 51
1, 810443, Note_off_c, 0, 44, 64
1, 810505, Note_on_c, 0, 44, 51
1, 810537, Note_off_c, 0, 72, 61
1, 810545, Note_off_c, 0, 44, 64
1, 810572, Control_c, 0, 67, 127
1, 810583, Note_on_c, 0, 51, 63
1, 810587, Control_c, 0, 67, 117
1, 810589, Note_on_c, 0, 70, 63
1, 810601, Note_on_c, 0, 67, 57
1, 810602, Control_c, 0, 67, 105
1, 810617, Note_off_c, 0, 51, 61
1, 810617, Control_c, 0, 67, 91
1, 810624, Note_off_c, 0, 63, 61
1, 810631, Control_c, 0, 67, 81
1, 810633, Note_off_c, 0, 67, 63
1, 810646, Control_c, 0, 67, 75
1, 810660, Note_off_c, 0, 70, 61
1, 810661, Control_c, 0, 67, 72
1, 810676, Control_c, 0, 67, 68
1, 810691, Control_c, 0, 67, 64
1, 810705, Control_c, 0, 67, 61
1, 810720, Control_c, 0, 67, 56
1, 810735, Control_c, 0, 67, 53
1, 810750, Control_c, 0, 67, 49
1, 810765, Control_c, 0, 67, 43
1, 810779, Control_c, 0, 67, 35
1, 810785, Note_on_c, 0, 73, 72
1, 810790, Note_on_c, 0, 46, 51
1, 810794, Control_c, 0, 67, 25
1, 810795, Note_on_c, 0, 70, 53
1, 810803, Note_on_c, 0, 65, 43
1, 810809, Control_c, 0, 67, 14
1, 810815, Note_off_c, 0, 46, 58
1, 810818, Note_off_c, 0, 70, 65
1, 810818, Note_off_c, 0, 73, 60
1, 810824, Control_c, 0, 67, 0
1, 810829, Note_off_c, 0, 65, 55
1, 810990, Note_on_c, 0, 49, 54
1, 810991, Note_on_c, 0, 73, 58
1, 810991, Note_on_c, 0, 70, 62
1, 811006, Note_on_c, 0, 65, 35
1, 811015, Note_off_c, 0, 49, 55
1, 811020, Note_off_c, 0, 70, 67
1, 811021, Note_off_c, 0, 73, 64
1, 811038, Note_off_c, 0, 65, 52
1, 811184, Note_on_c, 0, 72, 67
1, 811192, Note_on_c, 0, 69, 54
1, 811200, Note_on_c, 0, 65, 37
1, 811202, Note_on_c, 0, 53, 46
1, 811226, Note_off_c, 0, 69, 67
1, 811229, Note_off_c, 0, 65, 53
1, 811244, Note_off_c, 0, 72, 63
1, 811252, Note_off_c, 0, 53, 64
1, 811443, Note_on_c, 0, 73, 77
1, 811459, Note_on_c, 0, 70, 57
1, 811468, Note_on_c, 0, 65, 53
1, 811633, Note_on_c, 0, 46, 56
1, 811671, Note_off_c, 0, 46, 63
1, 811694, Note_off_c, 0, 70, 61
1, 811733, Note_on_c, 0, 46, 57
1, 811784, Note_off_c, 0, 46, 59
1, 811825, Note_on_c, 0, 53, 68
1, 811826, Note_on_c, 0, 72, 66
1, 811834, Note_on_c, 0, 69, 52
1, 811837, Note_off_c, 0, 73, 51
1, 811839, Control_c, 0, 64, 43
1, 811849, Note_off_c, 0, 65, 51
1, 811861, Control_c, 0, 64, 58
1, 811876, Control_c, 0, 64, 63
1, 811891, Control_c, 0, 64, 65
1, 811895, Note_off_c, 0, 69, 64
1, 811906, Control_c, 0, 64, 66
1, 811915, Note_off_c, 0, 72, 64
1, 811933, Note_off_c, 0, 53, 62
1, 811950, Control_c, 0, 64, 65
1, 811965, Control_c, 0, 64, 63
1, 811979, Control_c, 0, 64, 59
1, 811994, Control_c, 0, 64, 44
1, 812009, Control_c, 0, 64, 0
1, 812054, Note_on_c, 0, 77, 86
1, 812078, Note_on_c, 0, 73, 57
1, 812080, Note_on_c, 0, 68, 68
1, 812253, Note_on_c, 0, 49, 62
1, 812285, Note_off_c, 0, 49, 62
1, 812351, Note_on_c, 0, 49, 65
1, 812380, Note_off_c, 0, 73, 59
1, 812389, Note_off_c, 0, 49, 62
1, 812394, Note_off_c, 0, 77, 59
1, 812425, Note_on_c, 0, 75, 67
1, 812433, Note_on_c, 0, 72, 57
1, 812437, Note_on_c, 0, 56, 55
1, 812487, Note_off_c, 0, 68, 43
1, 812504, Note_off_c, 0, 56, 61
1, 812517, Note_off_c, 0, 72, 64
1, 812543, Control_c, 0, 64, 12
1, 812556, Note_off_c, 0, 75, 63
1, 812558, Control_c, 0, 64, 32
1, 812573, Control_c, 0, 64, 33
1, 812610, Control_c, 0, 64, 34
1, 812625, Control_c, 0, 64, 39
1, 812639, Control_c, 0, 64, 45
1, 812654, Control_c, 0, 64, 48
1, 812669, Note_on_c, 0, 77, 88
1, 812669, Control_c, 0, 64, 49
1, 812678, Note_on_c, 0, 73, 69
1, 812683, Note_on_c, 0, 68, 67
1, 812699, Control_c, 0, 64, 49
1, 812714, Control_c, 0, 64, 51
1, 812728, Control_c, 0, 64, 54
1, 812743, Control_c, 0, 64, 57
1, 812758, Control_c, 0, 64, 59
1, 812773, Control_c, 0, 64, 60
1, 812788, Control_c, 0, 64, 60
1, 812802, Control_c, 0, 64, 61
1, 812817, Control_c, 0, 64, 62
1, 812832, Control_c, 0, 64, 63
1, 812847, Control_c, 0, 64, 63
1, 812862, Control_c, 0, 64, 64
1, 812876, Note_on_c, 0, 49, 48
1, 812876, Control_c, 0, 64, 65
1, 812891, Control_c, 0, 64, 65
1, 812905, Note_off_c, 0, 49, 54
1, 812906, Control_c, 0, 64, 66
1, 812922, Control_c, 0, 64, 67
1, 812964, Note_off_c, 0, 73, 51
1, 812966, Control_c, 0, 64, 66
1, 812970, Note_on_c, 0, 49, 66
1, 812981, Control_c, 0, 64, 64
1, 812996, Control_c, 0, 64, 60
1, 813004, Note_off_c, 0, 49, 64
1, 813011, Control_c, 0, 64, 44
1, 813021, Note_off_c, 0, 77, 55
1, 813025, Control_c, 0, 64, 0
1, 813039, Note_on_c, 0, 75, 73
1, 813046, Note_on_c, 0, 56, 62
1, 813057, Note_on_c, 0, 72, 58
1, 813070, Note_off_c, 0, 56, 64
1, 813075, Note_off_c, 0, 68, 52
1, 813086, Note_off_c, 0, 72, 68
1, 813116, Note_off_c, 0, 75, 63
1, 813234, Note_on_c, 0, 77, 80
1, 813245, Note_on_c, 0, 68, 67
1, 813245, Note_on_c, 0, 73, 55
1, 813265, Note_off_c, 0, 68, 67
1, 813270, Note_off_c, 0, 73, 64
1, 813280, Note_off_c, 0, 77, 54
1, 813435, Note_on_c, 0, 77, 78
1, 813437, Note_on_c, 0, 49, 69
1, 813440, Note_on_c, 0, 68, 73
1, 813459, Note_on_c, 0, 73, 28
1, 813467, Note_off_c, 0, 77, 58
1, 813469, Note_off_c, 0, 49, 64
1, 813473, Note_off_c, 0, 68, 59
1, 813498, Note_off_c, 0, 73, 32
1, 813635, Note_on_c, 0, 70, 75
1, 813635, Note_on_c, 0, 79, 74
1, 813638, Note_on_c, 0, 61, 71
1, 813638, Note_on_c, 0, 63, 73
1, 813642, Note_on_c, 0, 75, 66
1, 813663, Note_off_c, 0, 61, 66
1, 813667, Note_off_c, 0, 63, 65
1, 813671, Note_off_c, 0, 70, 59
1, 813676, Note_off_c, 0, 75, 63
1, 813696, Note_off_c, 0, 79, 60
1, 813853, Note_on_c, 0, 80, 92
1, 813861, Note_on_c, 0, 68, 84
1, 813863, Control_c, 0, 64, 48
1, 813868, Note_on_c, 0, 75, 72
1, 813878, Control_c, 0, 64, 64
1, 813894, Control_c, 0, 64, 71
1, 813909, Control_c, 0, 64, 76
1, 813923, Control_c, 0, 64, 79
1, 813938, Control_c, 0, 64, 81
1, 813953, Control_c, 0, 64, 84
1, 813967, Control_c, 0, 64, 87
1, 813982, Control_c, 0, 64, 88
1, 813997, Control_c, 0, 64, 90
1, 814012, Control_c, 0, 64, 91
1, 814027, Control_c, 0, 64, 92
1, 814041, Control_c, 0, 64, 93
1, 814056, Control_c, 0, 64, 94
1, 814069, Note_on_c, 0, 63, 75
1, 814070, Note_on_c, 0, 60, 76
1, 814094, Control_c, 0, 64, 94
1, 814100, Note_off_c, 0, 63, 68
1, 814106, Note_off_c, 0, 60, 62
1, 814130, Note_off_c, 0, 68, 56
1, 814138, Control_c, 0, 64, 94
1, 814153, Control_c, 0, 64, 82
1, 814155, Note_on_c, 0, 60, 78
1, 814167, Control_c, 0, 64, 67
1, 814170, Note_on_c, 0, 63, 73
1, 814182, Control_c, 0, 64, 25
1, 814184, Note_off_c, 0, 63, 70
1, 814197, Control_c, 0, 64, 0
1, 814204, Note_off_c, 0, 60, 59
1, 814237, Note_on_c, 0, 63, 82
1, 814244, Note_on_c, 0, 61, 87
1, 814252, Note_on_c, 0, 79, 77
1, 814253, Note_on_c, 0, 70, 77
1, 814274, Note_off_c, 0, 80, 52
1, 814286, Control_c, 0, 64, 42
1, 814301, Control_c, 0, 64, 51
1, 814315, Control_c, 0, 64, 55
1, 814330, Control_c, 0, 64, 58
1, 814339, Note_off_c, 0, 70, 60
1, 814345, Control_c, 0, 64, 60
1, 814350, Note_off_c, 0, 75, 60
1, 814371, Note_off_c, 0, 79, 54
1, 814389, Control_c, 0, 64, 59
1, 814404, Control_c, 0, 64, 59
1, 814419, Control_c, 0, 64, 57
1, 814434, Control_c, 0, 64, 52
1, 814449, Control_c, 0, 64, 40
1, 814460, Note_on_c, 0, 80, 92
1, 814464, Control_c, 0, 64, 0
1, 814464, Note_on_c, 0, 68, 84
1, 814467, Note_on_c, 0, 75, 78
1, 814514, Note_off_c, 0, 63, 54
1, 814520, Note_off_c, 0, 61, 59
1, 814642, Control_c, 0, 64, 20
1, 814654, Note_on_c, 0, 63, 74
1, 814656, Note_on_c, 0, 60, 77
1, 814657, Control_c, 0, 64, 46
1, 814671, Control_c, 0, 64, 54
1, 814676, Note_off_c, 0, 63, 66
1, 814676, Note_off_c, 0, 68, 61
1, 814678, Note_off_c, 0, 60, 69
1, 814686, Control_c, 0, 64, 59
1, 814701, Control_c, 0, 64, 61
1, 814716, Control_c, 0, 64, 63
1, 814731, Control_c, 0, 64, 63
1, 814736, Note_on_c, 0, 60, 82
1, 814739, Note_on_c, 0, 63, 69
1, 814765, Note_off_c, 0, 63, 66
1, 814772, Note_off_c, 0, 60, 56
1, 814789, Control_c, 0, 64, 62
1, 814804, Control_c, 0, 64, 57
1, 814817, Note_on_c, 0, 70, 79
1, 814818, Note_on_c, 0, 63, 82
1, 814818, Note_on_c, 0, 79, 75
1, 814819, Control_c, 0, 64, 45
1, 814820, Note_on_c, 0, 61, 82
1, 814834, Control_c, 0, 64, 0
1, 814857, Note_off_c, 0, 80, 57
1, 814890, Note_off_c, 0, 70, 56
1, 814906, Note_off_c, 0, 75, 59
1, 814911, Note_off_c, 0, 79, 58
1, 815020, Note_on_c, 0, 80, 82
1, 815024, Note_on_c, 0, 68, 77
1, 815026, Note_on_c, 0, 75, 68
1, 815039, Note_off_c, 0, 61, 61
1, 815042, Note_off_c, 0, 63, 62
1, 815061, Note_off_c, 0, 75, 61
1, 815063, Note_off_c, 0, 68, 59
1, 815083, Note_off_c, 0, 80, 59
1, 815215, Note_on_c, 0, 80, 82
1, 815220, Note_on_c, 0, 63, 74
1, 815222, Note_on_c, 0, 60, 66
1, 815224, Note_on_c, 0, 68, 72
1, 815229, Note_on_c, 0, 75, 64
1, 815249, Note_off_c, 0, 68, 66
1, 815254, Note_off_c, 0, 60, 63
1, 815259, Note_off_c, 0, 63, 57
1, 815263, Note_off_c, 0, 75, 63
1, 815281, Note_off_c, 0, 80, 61
1, 815407, Note_on_c, 0, 82, 91
1, 815411, Note_on_c, 0, 63, 82
1, 815411, Note_on_c, 0, 70, 83
1, 815412, Note_on_c, 0, 58, 74
1, 815424, Note_on_c, 0, 75, 60
1, 815454, Note_off_c, 0, 75, 66
1, 815473, Note_off_c, 0, 70, 60
1, 815480, Control_c, 0, 64, 14
1, 815485, Note_off_c, 0, 63, 58
1, 815491, Note_off_c, 0, 58, 57
1, 815494, Control_c, 0, 64, 17
1, 815506, Note_off_c, 0, 82, 56
1, 815509, Control_c, 0, 64, 18
1, 815538, Control_c, 0, 64, 17
1, 815553, Control_c, 0, 64, 14
1, 815568, Control_c, 0, 64, 0
1, 815604, Note_on_c, 0, 84, 90
1, 815608, Note_on_c, 0, 72, 86
1, 815611, Note_on_c, 0, 75, 82
1, 815612, Note_on_c, 0, 63, 85
1, 815616, Note_on_c, 0, 56, 71
1, 815657, Note_off_c, 0, 72, 62
1, 815670, Note_off_c, 0, 56, 62
1, 815672, Note_off_c, 0, 84, 63
1, 815676, Note_off_c, 0, 75, 63
1, 815682, Note_off_c, 0, 63, 59
1, 815798, Control_c, 0, 64, 8
1, 815802, Note_on_c, 0, 85, 91
1, 815805, Note_on_c, 0, 61, 86
1, 815805, Note_on_c, 0, 73, 94
1, 815808, Note_on_c, 0, 53, 74
1, 815811, Note_on_c, 0, 80, 76
1, 815812, Control_c, 0, 64, 18
1, 815819, Note_on_c, 0, 56, 64
1, 815827, Control_c, 0, 64, 26
1, 815842, Control_c, 0, 64, 36
1, 815857, Control_c, 0, 64, 45
1, 815872, Control_c, 0, 64, 51
1, 815883, Note_off_c, 0, 53, 64
1, 815886, Control_c, 0, 64, 53
1, 815898, Note_off_c, 0, 61, 59
1, 815900, Note_off_c, 0, 56, 61
1, 815901, Control_c, 0, 64, 54
1, 815911, Note_off_c, 0, 73, 59
1, 815915, Note_off_c, 0, 80, 52
1, 815916, Control_c, 0, 64, 56
1, 815923, Note_off_c, 0, 85, 58
1, 815931, Control_c, 0, 64, 57
1, 815945, Control_c, 0, 64, 59
1, 815960, Control_c, 0, 64, 58
1, 815975, Control_c, 0, 64, 50
1, 815990, Control_c, 0, 64, 0
1, 816016, Note_on_c, 0, 60, 87
1, 816018, Note_on_c, 0, 75, 94
1, 816019, Note_on_c, 0, 87, 95
1, 816024, Note_on_c, 0, 56, 68
1, 816029, Note_on_c, 0, 51, 67
1, 816035, Note_on_c, 0, 80, 61
1, 816050, Note_on_c, 0, 85, 45
1, 816079, Control_c, 0, 64, 50
1, 816079, Note_off_c, 0, 85, 54
1, 816094, Control_c, 0, 64, 63
1, 816109, Control_c, 0, 64, 65
1, 816148, Note_off_c, 0, 75, 61
1, 816174, Note_off_c, 0, 80, 58
1, 816177, Note_off_c, 0, 60, 58
1, 816180, Note_off_c, 0, 51, 51
1, 816184, Control_c, 0, 64, 64
1, 816187, Note_off_c, 0, 56, 61
1, 816199, Control_c, 0, 64, 63
1, 816214, Control_c, 0, 64, 60
1, 816214, Note_off_c, 0, 87, 60
1, 816228, Control_c, 0, 64, 50
1, 816243, Control_c, 0, 64, 0
1, 816274, Note_on_c, 0, 89, 96
1, 816275, Note_on_c, 0, 80, 89
1, 816276, Note_on_c, 0, 77, 95
1, 816283, Note_on_c, 0, 59, 84
1, 816288, Note_on_c, 0, 56, 74
1, 816290, Note_on_c, 0, 50, 74
1, 816369, Control_c, 0, 64, 44
1, 816383, Control_c, 0, 64, 62
1, 816398, Control_c, 0, 64, 65
1, 816413, Control_c, 0, 64, 65
1, 816427, Note_off_c, 0, 89, 61
1, 816428, Control_c, 0, 64, 66
1, 816443, Control_c, 0, 64, 68
1, 816458, Control_c, 0, 64, 69
1, 816475, Note_off_c, 0, 77, 56
1, 816517, Control_c, 0, 64, 68
1, 816524, Note_off_c, 0, 80, 64
1, 816547, Control_c, 0, 64, 68
1, 816774, Note_on_c, 0, 68, 92
1, 816828, Note_off_c, 0, 68, 60
1, 816828, Control_c, 0, 64, 67
1, 816874, Note_on_c, 0, 68, 75
1, 816919, Control_c, 0, 64, 67
1, 816948, Control_c, 0, 64, 66
1, 816951, Note_off_c, 0, 68, 61
1, 816963, Control_c, 0, 64, 66
1, 816978, Control_c, 0, 64, 64
1, 816983, Note_on_c, 0, 71, 86
1, 816992, Control_c, 0, 64, 62
1, 817007, Control_c, 0, 64, 58
1, 817022, Control_c, 0, 64, 46
1, 817037, Control_c, 0, 64, 21
1, 817052, Control_c, 0, 64, 0
1, 817590, Note_off_c, 0, 50, 34
1, 817622, Note_off_c, 0, 59, 54
1, 817688, Note_off_c, 0, 56, 46
1, 818104, Control_c, 0, 67, 14
1, 818119, Control_c, 0, 67, 23
1, 818134, Control_c, 0, 67, 31
1, 818148, Control_c, 0, 67, 37
1, 818163, Control_c, 0, 67, 41
1, 818178, Control_c, 0, 67, 46
1, 818193, Control_c, 0, 67, 51
1, 818208, Control_c, 0, 67, 55
1, 818223, Control_c, 0, 67, 60
1, 818238, Control_c, 0, 67, 63
1, 818252, Control_c, 0, 67, 67
1, 818267, Control_c, 0, 67, 70
1, 818282, Control_c, 0, 67, 73
1, 818297, Control_c, 0, 67, 76
1, 818312, Control_c, 0, 67, 80
1, 818327, Control_c, 0, 67, 84
1, 818341, Control_c, 0, 67, 89
1, 818356, Control_c, 0, 67, 93
1, 818371, Control_c, 0, 67, 98
1, 818386, Control_c, 0, 67, 105
1, 818401, Control_c, 0, 67, 111
1, 818415, Control_c, 0, 67, 118
1, 818430, Control_c, 0, 67, 127
1, 818445, Control_c, 0, 67, 127
1, 818488, Note_off_c, 0, 71, 56
1, 818720, Control_c, 0, 64, 38
1, 818735, Control_c, 0, 64, 53
1, 818750, Control_c, 0, 64, 61
1, 818764, Control_c, 0, 64, 63
1, 818779, Control_c, 0, 64, 64
1, 818920, Note_on_c, 0, 51, 46
1, 818927, Control_c, 0, 64, 64
1, 818946, Note_off_c, 0, 51, 56
1, 818956, Control_c, 0, 64, 63
1, 818986, Control_c, 0, 64, 63
1, 819001, Control_c, 0, 64, 62
1, 819016, Control_c, 0, 64, 61
1, 819027, Note_on_c, 0, 51, 52
1, 819031, Control_c, 0, 64, 59
1, 819045, Control_c, 0, 64, 55
1, 819049, Note_off_c, 0, 51, 57
1, 819060, Control_c, 0, 64, 47
1, 819075, Control_c, 0, 64, 31
1, 819090, Control_c, 0, 64, 0
1, 819132, Note_on_c, 0, 56, 45
1, 819134, Note_on_c, 0, 59, 65
1, 819252, Control_c, 0, 64, 38
1, 819267, Control_c, 0, 64, 58
1, 819281, Control_c, 0, 64, 64
1, 819296, Control_c, 0, 64, 67
1, 819313, Control_c, 0, 64, 68
1, 819328, Control_c, 0, 64, 69
1, 819349, Control_c, 0, 64, 70
1, 819364, Control_c, 0, 64, 72
1, 819379, Control_c, 0, 64, 73
1, 819391, Note_off_c, 0, 56, 51
1, 819394, Control_c, 0, 64, 73
1, 819448, Note_on_c, 0, 63, 60
1, 819488, Note_off_c, 0, 63, 57
1, 819533, Note_on_c, 0, 63, 51
1, 819557, Note_off_c, 0, 59, 55
1, 819572, Control_c, 0, 64, 73
1, 819586, Control_c, 0, 64, 72
1, 819601, Control_c, 0, 64, 70
1, 819611, Note_on_c, 0, 58, 46
1, 819616, Control_c, 0, 64, 68
1, 819626, Note_on_c, 0, 75, 62
1, 819628, Note_on_c, 0, 55, 45
1, 819631, Control_c, 0, 64, 65
1, 819646, Control_c, 0, 64, 62
1, 819660, Control_c, 0, 64, 56
1, 819675, Control_c, 0, 64, 43
1, 819690, Control_c, 0, 64, 32
1, 819704, Control_c, 0, 64, 35
1, 819719, Control_c, 0, 64, 37
1, 819749, Control_c, 0, 64, 38
1, 819764, Control_c, 0, 64, 38
1, 819779, Control_c, 0, 64, 39
1, 819784, Note_off_c, 0, 55, 39
1, 819794, Control_c, 0, 64, 41
1, 819808, Control_c, 0, 64, 42
1, 819818, Note_off_c, 0, 58, 31
1, 819823, Control_c, 0, 64, 42
1, 819838, Control_c, 0, 64, 42
1, 819853, Control_c, 0, 64, 41
1, 819868, Control_c, 0, 64, 38
1, 819868, Note_on_c, 0, 59, 67
1, 819883, Control_c, 0, 64, 32
1, 819884, Note_off_c, 0, 63, 43
1, 819889, Note_on_c, 0, 56, 54
1, 819898, Control_c, 0, 64, 19
1, 819912, Control_c, 0, 64, 0
1, 819942, Note_off_c, 0, 75, 63
1, 819986, Control_c, 0, 64, 23
1, 820001, Control_c, 0, 64, 43
1, 820016, Control_c, 0, 64, 51
1, 820031, Control_c, 0, 64, 55
1, 820046, Control_c, 0, 64, 57
1, 820060, Control_c, 0, 64, 60
1, 820075, Control_c, 0, 64, 62
1, 820093, Note_on_c, 0, 63, 50
1, 820098, Control_c, 0, 64, 63
1, 820113, Control_c, 0, 64, 64
1, 820128, Control_c, 0, 64, 65
1, 820139, Note_off_c, 0, 56, 55
1, 820142, Control_c, 0, 64, 66
1, 820149, Note_off_c, 0, 63, 0
1, 820149, Note_on_c, 0, 63, 46
1, 820157, Control_c, 0, 64, 66
1, 820172, Control_c, 0, 64, 67
1, 820187, Control_c, 0, 64, 67
1, 820189, Note_off_c, 0, 59, 47
1, 820263, Note_on_c, 0, 75, 62
1, 820271, Note_on_c, 0, 58, 46
1, 820285, Note_on_c, 0, 55, 47
1, 820395, Control_c, 0, 64, 68
1, 820420, Note_off_c, 0, 75, 53
1, 820428, Note_off_c, 0, 55, 56
1, 820429, Note_off_c, 0, 63, 17
1, 820439, Control_c, 0, 64, 66
1, 820454, Control_c, 0, 64, 56
1, 820469, Control_c, 0, 64, 0
1, 820479, Note_off_c, 0, 58, 37
1, 820488, Note_on_c, 0, 59, 54
1, 820492, Note_on_c, 0, 56, 54
1, 820542, Control_c, 0, 64, 49
1, 820557, Control_c, 0, 64, 64
1, 820572, Control_c, 0, 64, 67
1, 820587, Control_c, 0, 64, 69
1, 820605, Note_off_c, 0, 56, 56
1, 820616, Control_c, 0, 64, 70
1, 820617, Note_off_c, 0, 59, 38
1, 820632, Control_c, 0, 64, 71
1, 820647, Control_c, 0, 64, 72
1, 820662, Control_c, 0, 64, 73
1, 820673, Note_on_c, 0, 59, 43
1, 820675, Note_on_c, 0, 56, 35
1, 820687, Note_on_c, 0, 75, 50
1, 820688, Note_on_c, 0, 63, 42
1, 820718, Note_off_c, 0, 56, 60
1, 820732, Note_off_c, 0, 59, 63
1, 820733, Note_off_c, 0, 63, 58
1, 820736, Note_off_c, 0, 75, 60
1, 820886, Note_on_c, 0, 56, 41
1, 820887, Note_on_c, 0, 79, 66
1, 820898, Note_on_c, 0, 61, 55
1, 820907, Note_on_c, 0, 58, 45
1, 820914, Note_on_c, 0, 67, 50
1, 820980, Note_off_c, 0, 79, 59
1, 821025, Note_off_c, 0, 58, 39
1, 821027, Note_off_c, 0, 67, 36
1, 821057, Note_off_c, 0, 61, 55
1, 821057, Note_off_c, 0, 56, 59
1, 821100, Control_c, 0, 64, 71
1, 821114, Control_c, 0, 64, 67
1, 821129, Control_c, 0, 64, 57
1, 821138, Note_on_c, 0, 59, 54
1, 821144, Control_c, 0, 64, 0
1, 821147, Note_on_c, 0, 80, 58
1, 821171, Note_on_c, 0, 63, 40
1, 821182, Note_on_c, 0, 68, 29
1, 821186, Note_on_c, 0, 56, 5
1, 821204, Control_c, 0, 64, 31
1, 821218, Control_c, 0, 64, 57
1, 821233, Control_c, 0, 64, 63
1, 821248, Control_c, 0, 64, 65
1, 821254, Note_off_c, 0, 56, 45
1, 821263, Control_c, 0, 64, 66
1, 821268, Note_off_c, 0, 68, 42
1, 821276, Note_off_c, 0, 59, 59
1, 821299, Note_off_c, 0, 80, 57
1, 821307, Control_c, 0, 64, 64
1, 821322, Control_c, 0, 64, 60
1, 821337, Control_c, 0, 64, 53
1, 821352, Control_c, 0, 64, 49
1, 821356, Note_on_c, 0, 82, 56
1, 821359, Note_on_c, 0, 61, 47
1, 821366, Control_c, 0, 64, 54
1, 821367, Note_off_c, 0, 63, 35
1, 821370, Note_on_c, 0, 56, 50
1, 821375, Note_on_c, 0, 58, 48
1, 821378, Note_on_c, 0, 70, 32
1, 821379, Control_c, 0, 64, 59
1, 821394, Control_c, 0, 64, 64
1, 821409, Control_c, 0, 64, 68
1, 821424, Control_c, 0, 64, 70
1, 821439, Control_c, 0, 64, 72
1, 821446, Note_off_c, 0, 56, 39
1, 821454, Control_c, 0, 64, 73
1, 821458, Note_off_c, 0, 70, 51
1, 821469, Control_c, 0, 64, 74
1, 821469, Note_off_c, 0, 61, 53
1, 821475, Note_off_c, 0, 82, 55
1, 821490, Note_off_c, 0, 58, 55
1, 821513, Control_c, 0, 64, 72
1, 821528, Control_c, 0, 64, 68
1, 821543, Control_c, 0, 64, 63
1, 821549, Note_on_c, 0, 59, 49
1, 821554, Note_on_c, 0, 83, 58
1, 821557, Control_c, 0, 64, 60
1, 821567, Note_on_c, 0, 56, 43
1, 821571, Note_on_c, 0, 71, 33
1, 821572, Control_c, 0, 64, 60
1, 821594, Control_c, 0, 64, 62
1, 821609, Control_c, 0, 64, 64
1, 821624, Control_c, 0, 64, 66
1, 821627, Note_off_c, 0, 71, 46
1, 821639, Note_off_c, 0, 59, 56
1, 821639, Control_c, 0, 64, 68
1, 821651, Note_off_c, 0, 83, 58
1, 821652, Note_off_c, 0, 56, 56
1, 821654, Control_c, 0, 64, 69
1, 821669, Control_c, 0, 64, 71
1, 821698, Control_c, 0, 64, 70
1, 821713, Control_c, 0, 64, 66
1, 821728, Control_c, 0, 64, 58
1, 821743, Control_c, 0, 64, 8
1, 821758, Control_c, 0, 64, 0
1, 821767, Note_on_c, 0, 61, 55
1, 821768, Note_on_c, 0, 85, 65
1, 821769, Note_on_c, 0, 73, 54
1, 821776, Note_on_c, 0, 58, 49
1, 821783, Note_on_c, 0, 56, 47
1, 821788, Control_c, 0, 64, 14
1, 821803, Control_c, 0, 64, 55
1, 821818, Control_c, 0, 64, 65
1, 821833, Control_c, 0, 64, 72
1, 821833, Note_off_c, 0, 56, 56
1, 821847, Control_c, 0, 64, 78
1, 821859, Note_off_c, 0, 73, 55
1, 821862, Control_c, 0, 64, 81
1, 821877, Control_c, 0, 64, 82
1, 821892, Control_c, 0, 64, 83
1, 821906, Control_c, 0, 64, 82
1, 821914, Note_off_c, 0, 58, 33
1, 821921, Control_c, 0, 64, 77
1, 821936, Control_c, 0, 64, 68
1, 821951, Control_c, 0, 64, 58
1, 821952, Note_on_c, 0, 56, 45
1, 821962, Note_off_c, 0, 61, 28
1, 821966, Control_c, 0, 64, 45
1, 821966, Control_c, 0, 67, 126
1, 821969, Note_on_c, 0, 75, 54
1, 821969, Note_on_c, 0, 87, 57
1, 821975, Note_on_c, 0, 63, 49
1, 821979, Note_on_c, 0, 59, 40
1, 821980, Control_c, 0, 64, 49
1, 821980, Control_c, 0, 67, 119
1, 821995, Control_c, 0, 64, 58
1, 821995, Control_c, 0, 67, 113
1, 822010, Control_c, 0, 64, 64
1, 822010, Control_c, 0, 67, 108
1, 822025, Control_c, 0, 64, 67
1, 822025, Control_c, 0, 67, 99
1, 822040, Control_c, 0, 64, 69
1, 822040, Control_c, 0, 67, 88
1, 822049, Note_off_c, 0, 56, 56
1, 822054, Control_c, 0, 67, 77
1, 822059, Note_off_c, 0, 85, 20
1, 822069, Control_c, 0, 67, 68
1, 822075, Note_off_c, 0, 75, 61
1, 822077, Note_off_c, 0, 59, 55
1, 822077, Note_off_c, 0, 63, 46
1, 822084, Control_c, 0, 64, 69
1, 822084, Control_c, 0, 67, 61
1, 822099, Control_c, 0, 67, 56
1, 822113, Control_c, 0, 64, 66
1, 822113, Control_c, 0, 67, 52
1, 822128, Control_c, 0, 64, 59
1, 822128, Control_c, 0, 67, 51
1, 822143, Control_c, 0, 64, 27
1, 822146, Note_off_c, 0, 87, 35
1, 822158, Control_c, 0, 64, 0
1, 822187, Note_on_c, 0, 88, 55
1, 822187, Control_c, 0, 64, 31
1, 822189, Note_on_c, 0, 56, 43
1, 822196, Note_on_c, 0, 64, 53
1, 822198, Note_on_c, 0, 76, 45
1, 822202, Note_on_c, 0, 61, 43
1, 822202, Control_c, 0, 64, 57
1, 822217, Control_c, 0, 64, 65
1, 822232, Control_c, 0, 64, 68
1, 822247, Control_c, 0, 67, 51
1, 822267, Note_off_c, 0, 64, 61
1, 822279, Note_off_c, 0, 76, 60
1, 822294, Note_off_c, 0, 56, 49
1, 822306, Control_c, 0, 67, 52
1, 822341, Note_off_c, 0, 61, 45
1, 822343, Control_c, 0, 67, 52
1, 822358, Control_c, 0, 67, 53
1, 822373, Control_c, 0, 67, 53
1, 822385, Note_off_c, 0, 88, 54
1, 822387, Control_c, 0, 67, 54
1, 822417, Control_c, 0, 67, 54
1, 822432, Control_c, 0, 64, 67
1, 822432, Control_c, 0, 67, 55
1, 822447, Control_c, 0, 64, 65
1, 822447, Control_c, 0, 67, 55
1, 822461, Control_c, 0, 64, 62
1, 822461, Control_c, 0, 67, 56
1, 822476, Control_c, 0, 64, 51
1, 822476, Control_c, 0, 67, 56
1, 822485, Note_on_c, 0, 87, 52
1, 822485, Note_on_c, 0, 59, 42
1, 822490, Note_on_c, 0, 56, 27
1, 822491, Note_on_c, 0, 75, 40
1, 822491, Control_c, 0, 64, 0
1, 822491, Control_c, 0, 67, 57
1, 822494, Note_on_c, 0, 63, 38
1, 822551, Control_c, 0, 67, 57
1, 822566, Control_c, 0, 67, 58
1, 822596, Control_c, 0, 64, 18
1, 822596, Control_c, 0, 67, 59
1, 822611, Control_c, 0, 64, 60
1, 822611, Control_c, 0, 67, 60
1, 822625, Control_c, 0, 64, 70
1, 822625, Control_c, 0, 67, 62
1, 822640, Control_c, 0, 64, 77
1, 822640, Control_c, 0, 67, 65
1, 822655, Control_c, 0, 64, 79
1, 822655, Control_c, 0, 67, 71
1, 822670, Control_c, 0, 64, 79
1, 822670, Control_c, 0, 67, 79
1, 822685, Control_c, 0, 64, 81
1, 822685, Control_c, 0, 67, 88
1, 822693, Note_off_c, 0, 63, 54
1, 822700, Control_c, 0, 64, 82
1, 822700, Control_c, 0, 67, 96
1, 822702, Note_off_c, 0, 87, 57
1, 822715, Control_c, 0, 64, 82
1, 822715, Control_c, 0, 67, 101
1, 822724, Note_off_c, 0, 59, 36
1, 822726, Note_off_c, 0, 75, 57
1, 822727, Note_off_c, 0, 56, 55
1, 822729, Control_c, 0, 67, 106
1, 822744, Control_c, 0, 67, 108
1, 822759, Control_c, 0, 67, 109
1, 822774, Control_c, 0, 67, 109
1, 822818, Control_c, 0, 67, 109
1, 822833, Control_c, 0, 67, 108
1, 822848, Control_c, 0, 67, 107
1, 822863, Control_c, 0, 64, 82
1, 822877, Control_c, 0, 67, 106
1, 822892, Control_c, 0, 64, 81
1, 822892, Control_c, 0, 67, 106
1, 822907, Control_c, 0, 64, 79
1, 822907, Control_c, 0, 67, 105
1, 822922, Control_c, 0, 64, 77
1, 822922, Control_c, 0, 67, 105
1, 822929, Note_on_c, 0, 51, 52
1, 822936, Control_c, 0, 64, 72
1, 822936, Control_c, 0, 67, 104
1, 822951, Control_c, 0, 64, 65
1, 822951, Control_c, 0, 67, 103
1, 822953, Note_off_c, 0, 51, 57
1, 822966, Control_c, 0, 64, 54
1, 822966, Control_c, 0, 67, 103
1, 822981, Control_c, 0, 64, 0
1, 822981, Control_c, 0, 67, 102
1, 822996, Control_c, 0, 67, 101
1, 823010, Control_c, 0, 67, 101
1, 823022, Note_on_c, 0, 51, 74
1, 823025, Control_c, 0, 67, 100
1, 823040, Control_c, 0, 67, 99
1, 823061, Note_off_c, 0, 51, 53
1, 823151, Control_c, 0, 67, 99
1, 823153, Note_on_c, 0, 59, 67
1, 823162, Note_on_c, 0, 56, 55
1, 823166, Control_c, 0, 67, 100
1, 823181, Control_c, 0, 67, 100
1, 823196, Control_c, 0, 67, 101
1, 823210, Control_c, 0, 67, 102
1, 823225, Control_c, 0, 67, 103
1, 823240, Control_c, 0, 67, 104
1, 823254, Control_c, 0, 67, 105
1, 823269, Control_c, 0, 64, 54
1, 823269, Control_c, 0, 67, 105
1, 823284, Control_c, 0, 64, 67
1, 823284, Control_c, 0, 67, 106
1, 823300, Control_c, 0, 64, 76
1, 823315, Control_c, 0, 64, 82
1, 823330, Control_c, 0, 64, 83
1, 823359, Control_c, 0, 67, 105
1, 823374, Control_c, 0, 67, 105
1, 823402, Note_off_c, 0, 56, 61
1, 823404, Control_c, 0, 67, 104
1, 823433, Control_c, 0, 67, 104
1, 823454, Note_on_c, 0, 63, 56
1, 823478, Control_c, 0, 67, 103
1, 823490, Note_off_c, 0, 63, 58
1, 823508, Control_c, 0, 67, 102
1, 823523, Control_c, 0, 67, 102
1, 823544, Note_on_c, 0, 63, 56
1, 823546, Note_off_c, 0, 59, 58
1, 823552, Control_c, 0, 64, 83
1, 823552, Control_c, 0, 67, 101
1, 823567, Control_c, 0, 64, 82
1, 823567, Control_c, 0, 67, 101
1, 823582, Control_c, 0, 64, 80
1, 823597, Control_c, 0, 64, 77
1, 823597, Control_c, 0, 67, 100
1, 823607, Note_on_c, 0, 58, 45
1, 823612, Control_c, 0, 64, 74
1, 823612, Control_c, 0, 67, 100
1, 823619, Note_on_c, 0, 55, 45
1, 823627, Control_c, 0, 64, 72
1, 823630, Note_on_c, 0, 75, 65
1, 823642, Control_c, 0, 64, 70
1, 823642, Control_c, 0, 67, 99
1, 823657, Control_c, 0, 64, 68
1, 823672, Control_c, 0, 64, 65
1, 823686, Control_c, 0, 64, 62
1, 823701, Control_c, 0, 64, 55
1, 823716, Control_c, 0, 64, 43
1, 823731, Control_c, 0, 64, 31
1, 823731, Control_c, 0, 67, 100
1, 823746, Control_c, 0, 64, 0
1, 823775, Control_c, 0, 67, 100
1, 823790, Control_c, 0, 67, 101
1, 823805, Control_c, 0, 67, 101
1, 823813, Note_off_c, 0, 58, 56
1, 823820, Control_c, 0, 67, 102
1, 823831, Note_on_c, 0, 59, 73
1, 823836, Note_on_c, 0, 56, 60
1, 823842, Control_c, 0, 67, 104
1, 823846, Note_off_c, 0, 55, 34
1, 823854, Note_off_c, 0, 63, 38
1, 823857, Control_c, 0, 67, 106
1, 823864, Note_off_c, 0, 75, 61
1, 823871, Control_c, 0, 67, 108
1, 823886, Control_c, 0, 67, 110
1, 823901, Control_c, 0, 67, 116
1, 823916, Control_c, 0, 67, 127
1, 824043, Note_on_c, 0, 63, 48
1, 824076, Note_off_c, 0, 63, 56
1, 824121, Note_on_c, 0, 63, 48
1, 824125, Note_off_c, 0, 56, 50
1, 824158, Note_off_c, 0, 59, 57
1, 824198, Note_on_c, 0, 55, 40
1, 824211, Note_on_c, 0, 58, 41
1, 824249, Note_on_c, 0, 75, 59
1, 824272, Control_c, 0, 64, 30
1, 824287, Control_c, 0, 64, 58
1, 824301, Control_c, 0, 64, 64
1, 824316, Control_c, 0, 64, 66
1, 824331, Control_c, 0, 64, 67
1, 824346, Control_c, 0, 64, 68
1, 824348, Note_off_c, 0, 55, 45
1, 824353, Note_off_c, 0, 58, 49
1, 824375, Control_c, 0, 64, 66
1, 824390, Control_c, 0, 64, 63
1, 824405, Control_c, 0, 64, 55
1, 824419, Note_off_c, 0, 63, 58
1, 824420, Control_c, 0, 64, 43
1, 824434, Note_on_c, 0, 59, 49
1, 824435, Note_off_c, 0, 75, 58
1, 824435, Control_c, 0, 64, 44
1, 824445, Note_on_c, 0, 56, 42
1, 824450, Control_c, 0, 64, 51
1, 824465, Control_c, 0, 64, 58
1, 824480, Control_c, 0, 64, 64
1, 824494, Control_c, 0, 64, 66
1, 824509, Control_c, 0, 64, 68
1, 824524, Control_c, 0, 64, 68
1, 824533, Note_off_c, 0, 56, 56
1, 824542, Note_off_c, 0, 59, 53
1, 824554, Control_c, 0, 64, 69
1, 824640, Note_on_c, 0, 63, 49
1, 824644, Note_on_c, 0, 75, 50
1, 824656, Note_on_c, 0, 59, 42
1, 824659, Note_on_c, 0, 56, 35
1, 824699, Note_off_c, 0, 56, 55
1, 824712, Note_off_c, 0, 59, 58
1, 824715, Note_off_c, 0, 75, 60
1, 824729, Note_off_c, 0, 63, 37
1, 824783, Control_c, 0, 64, 69
1, 824813, Control_c, 0, 64, 69
1, 824827, Control_c, 0, 64, 66
1, 824842, Control_c, 0, 64, 62
1, 824855, Note_on_c, 0, 63, 49
1, 824857, Control_c, 0, 64, 48
1, 824863, Note_on_c, 0, 59, 38
1, 824866, Note_on_c, 0, 75, 53
1, 824871, Note_on_c, 0, 54, 35
1, 824872, Control_c, 0, 64, 38
1, 824887, Control_c, 0, 64, 44
1, 824895, Note_on_c, 0, 57, 27
1, 824903, Control_c, 0, 64, 52
1, 824918, Control_c, 0, 64, 59
1, 824932, Control_c, 0, 64, 63
1, 824947, Control_c, 0, 64, 65
1, 824962, Control_c, 0, 64, 68
1, 824977, Control_c, 0, 64, 70
1, 824983, Note_off_c, 0, 63, 52
1, 824989, Note_off_c, 0, 54, 51
1, 824992, Control_c, 0, 64, 73
1, 824994, Note_off_c, 0, 75, 57
1, 824996, Note_off_c, 0, 59, 53
1, 825006, Note_off_c, 0, 57, 36
1, 825006, Control_c, 0, 64, 73
1, 825021, Control_c, 0, 64, 73
1, 825036, Control_c, 0, 64, 70
1, 825051, Control_c, 0, 64, 64
1, 825066, Control_c, 0, 64, 55
1, 825080, Control_c, 0, 64, 45
1, 825085, Note_on_c, 0, 76, 55
1, 825088, Note_on_c, 0, 64, 48
1, 825095, Control_c, 0, 64, 48
1, 825096, Note_on_c, 0, 55, 29
1, 825103, Note_on_c, 0, 59, 34
1, 825110, Control_c, 0, 64, 54
1, 825122, Note_on_c, 0, 52, 36
1, 825123, Control_c, 0, 64, 60
1, 825138, Control_c, 0, 64, 65
1, 825153, Control_c, 0, 64, 68
1, 825154, Note_off_c, 0, 64, 62
1, 825168, Control_c, 0, 64, 70
1, 825174, Note_off_c, 0, 76, 60
1, 825183, Control_c, 0, 64, 72
1, 825198, Control_c, 0, 64, 73
1, 825213, Control_c, 0, 64, 74
1, 825241, Note_off_c, 0, 52, 0
1, 825242, Control_c, 0, 64, 72
1, 825244, Note_off_c, 0, 55, 39
1, 825257, Control_c, 0, 64, 68
1, 825272, Control_c, 0, 64, 63
1, 825278, Poly_aftertouch_c, 0, 52, 127
1, 825287, Control_c, 0, 64, 58
1, 825289, Note_on_c, 0, 78, 61
1, 825290, Note_on_c, 0, 66, 53
1, 825302, Control_c, 0, 64, 57
1, 825307, Note_on_c, 0, 54, 40
1, 825323, Control_c, 0, 64, 60
1, 825338, Control_c, 0, 64, 63
1, 825339, Note_on_c, 0, 57, 37
1, 825341, Note_off_c, 0, 59, 42
1, 825353, Control_c, 0, 64, 65
1, 825368, Control_c, 0, 64, 67
1, 825377, Note_off_c, 0, 66, 63
1, 825383, Control_c, 0, 64, 68
1, 825398, Control_c, 0, 64, 70
1, 825407, Poly_aftertouch_c, 0, 52, 0
1, 825413, Control_c, 0, 64, 72
1, 825419, Note_off_c, 0, 78, 57
1, 825421, Note_off_c, 0, 54, 59
1, 825427, Control_c, 0, 64, 74
1, 825442, Note_off_c, 0, 57, 37
1, 825442, Control_c, 0, 64, 76
1, 825472, Control_c, 0, 64, 73
1, 825487, Control_c, 0, 64, 68
1, 825502, Control_c, 0, 64, 64
1, 825502, Control_c, 0, 67, 127
1, 825506, Note_on_c, 0, 79, 58
1, 825510, Note_on_c, 0, 67, 50
1, 825517, Control_c, 0, 64, 60
1, 825517, Control_c, 0, 67, 118
1, 825523, Note_on_c, 0, 55, 47
1, 825525, Note_on_c, 0, 52, 50
1, 825531, Control_c, 0, 67, 108
1, 825546, Control_c, 0, 64, 62
1, 825546, Control_c, 0, 67, 97
1, 825561, Control_c, 0, 64, 64
1, 825561, Control_c, 0, 67, 79
1, 825576, Control_c, 0, 64, 65
1, 825576, Control_c, 0, 67, 62
1, 825591, Control_c, 0, 64, 66
1, 825591, Control_c, 0, 67, 46
1, 825591, Note_off_c, 0, 67, 59
1, 825603, Note_off_c, 0, 79, 59
1, 825605, Control_c, 0, 64, 67
1, 825605, Control_c, 0, 67, 34
1, 825618, Note_off_c, 0, 52, 61
1, 825620, Control_c, 0, 64, 68
1, 825620, Control_c, 0, 67, 27
1, 825624, Note_off_c, 0, 55, 61
1, 825635, Control_c, 0, 64, 69
1, 825635, Control_c, 0, 67, 23
1, 825649, Control_c, 0, 64, 70
1, 825649, Control_c, 0, 67, 22
1, 825679, Control_c, 0, 64, 69
1, 825694, Control_c, 0, 64, 65
1, 825708, Note_on_c, 0, 81, 62
1, 825710, Control_c, 0, 64, 52
1, 825720, Note_on_c, 0, 69, 44
1, 825725, Note_on_c, 0, 54, 40
1, 825725, Control_c, 0, 64, 0
1, 825726, Note_on_c, 0, 57, 37
1, 825732, Note_on_c, 0, 52, 22
1, 825754, Control_c, 0, 64, 26
1, 825754, Control_c, 0, 67, 21
1, 825769, Control_c, 0, 64, 49
1, 825784, Control_c, 0, 64, 60
1, 825792, Note_off_c, 0, 69, 60
1, 825799, Control_c, 0, 64, 64
1, 825799, Control_c, 0, 67, 21
1, 825814, Control_c, 0, 64, 66
1, 825818, Note_off_c, 0, 81, 58
1, 825828, Control_c, 0, 64, 67
1, 825843, Control_c, 0, 64, 70
1, 825843, Control_c, 0, 67, 20
1, 825858, Control_c, 0, 64, 74
1, 825858, Control_c, 0, 67, 20
1, 825866, Note_off_c, 0, 54, 33
1, 825872, Control_c, 0, 64, 75
1, 825872, Control_c, 0, 67, 19
1, 825876, Note_off_c, 0, 52, 0
1, 825887, Control_c, 0, 67, 16
1, 825896, Note_on_c, 0, 52, 33
1, 825902, Control_c, 0, 67, 15
1, 825903, Note_off_c, 0, 57, 27
1, 825917, Control_c, 0, 67, 14
1, 825925, Note_on_c, 0, 83, 52
1, 825932, Control_c, 0, 67, 13
1, 825937, Note_on_c, 0, 71, 44
1, 825939, Note_on_c, 0, 59, 42
1, 825940, Note_on_c, 0, 55, 40
1, 825946, Control_c, 0, 67, 12
1, 825961, Control_c, 0, 67, 11
1, 825976, Control_c, 0, 67, 11
1, 825983, Note_off_c, 0, 71, 60
1, 825989, Note_off_c, 0, 52, 58
1, 825989, Note_off_c, 0, 59, 54
1, 826009, Note_off_c, 0, 55, 56
1, 826017, Note_off_c, 0, 83, 61
1, 826087, Control_c, 0, 64, 75
1, 826102, Control_c, 0, 64, 72
1, 826117, Control_c, 0, 64, 69
1, 826132, Control_c, 0, 64, 66
1, 826146, Control_c, 0, 64, 63
1, 826150, Note_on_c, 0, 52, 36
1, 826155, Note_on_c, 0, 72, 53
1, 826157, Note_on_c, 0, 54, 39
1, 826158, Note_on_c, 0, 84, 62
1, 826161, Control_c, 0, 64, 61
1, 826165, Note_on_c, 0, 60, 27
1, 826176, Control_c, 0, 64, 61
1, 826185, Note_on_c, 0, 57, 31
1, 826206, Control_c, 0, 64, 62
1, 826220, Control_c, 0, 64, 63
1, 826235, Control_c, 0, 64, 64
1, 826279, Note_off_c, 0, 72, 61
1, 826280, Control_c, 0, 64, 65
1, 826284, Note_off_c, 0, 84, 61
1, 826293, Note_off_c, 0, 52, 54
1, 826295, Note_off_c, 0, 54, 53
1, 826299, Note_off_c, 0, 60, 35
1, 826310, Control_c, 0, 67, 11
1, 826316, Note_off_c, 0, 57, 41
1, 826325, Control_c, 0, 67, 12
1, 826340, Control_c, 0, 67, 13
1, 826354, Control_c, 0, 64, 64
1, 826354, Control_c, 0, 67, 14
1, 826369, Control_c, 0, 64, 64
1, 826369, Control_c, 0, 67, 15
1, 826384, Control_c, 0, 64, 62
1, 826384, Control_c, 0, 67, 17
1, 826399, Control_c, 0, 64, 56
1, 826399, Control_c, 0, 67, 19
1, 826414, Control_c, 0, 64, 34
1, 826414, Control_c, 0, 67, 20
1, 826428, Control_c, 0, 64, 0
1, 826428, Control_c, 0, 67, 22
1, 826431, Note_on_c, 0, 52, 27
1, 826431, Note_on_c, 0, 83, 49
1, 826437, Note_on_c, 0, 71, 48
1, 826438, Note_on_c, 0, 59, 42
1, 826443, Control_c, 0, 67, 27
1, 826447, Note_on_c, 0, 55, 43
1, 826458, Control_c, 0, 67, 36
1, 826472, Control_c, 0, 67, 53
1, 826487, Control_c, 0, 67, 70
1, 826503, Control_c, 0, 67, 86
1, 826518, Control_c, 0, 67, 98
1, 826533, Control_c, 0, 64, 34
1, 826533, Control_c, 0, 67, 110
1, 826548, Control_c, 0, 64, 62
1, 826548, Control_c, 0, 67, 122
1, 826563, Control_c, 0, 64, 69
1, 826563, Control_c, 0, 67, 127
1, 826577, Control_c, 0, 64, 73
1, 826601, Note_off_c, 0, 83, 51
1, 826661, Note_off_c, 0, 71, 62
1, 826725, Control_c, 0, 64, 72
1, 826740, Control_c, 0, 64, 72
1, 826755, Control_c, 0, 64, 71
1, 826769, Control_c, 0, 64, 70
1, 826784, Control_c, 0, 64, 70
1, 826799, Control_c, 0, 64, 69
1, 826814, Control_c, 0, 64, 68
1, 826837, Control_c, 0, 64, 66
1, 826851, Control_c, 0, 64, 65
1, 826866, Control_c, 0, 64, 64
1, 826881, Control_c, 0, 64, 62
1, 826896, Control_c, 0, 64, 60
1, 826903, Note_on_c, 0, 76, 65
1, 826910, Control_c, 0, 64, 55
1, 826925, Control_c, 0, 64, 45
1, 826940, Control_c, 0, 64, 15
1, 826955, Control_c, 0, 64, 0
1, 826956, Note_off_c, 0, 76, 60
1, 826971, Note_off_c, 0, 52, 52
1, 826977, Note_off_c, 0, 59, 36
1, 826985, Note_on_c, 0, 76, 54
1, 827018, Note_off_c, 0, 55, 37
1, 827043, Note_off_c, 0, 76, 61
1, 827115, Note_on_c, 0, 66, 71
1, 827236, Control_c, 0, 64, 48
1, 827251, Control_c, 0, 64, 64
1, 827266, Control_c, 0, 64, 69
1, 827281, Control_c, 0, 64, 71
1, 827329, Note_on_c, 0, 60, 49
1, 827335, Note_on_c, 0, 54, 38
1, 827350, Note_on_c, 0, 57, 41
1, 827363, Note_on_c, 0, 52, 41
1, 827405, Note_off_c, 0, 66, 64
1, 827446, Control_c, 0, 64, 70
1, 827475, Control_c, 0, 64, 70
1, 827490, Control_c, 0, 64, 69
1, 827505, Control_c, 0, 64, 68
1, 827519, Control_c, 0, 64, 68
1, 827534, Control_c, 0, 64, 66
1, 827549, Control_c, 0, 64, 64
1, 827564, Control_c, 0, 64, 61
1, 827579, Note_on_c, 0, 76, 65
1, 827586, Control_c, 0, 64, 54
1, 827601, Control_c, 0, 64, 26
1, 827606, Note_off_c, 0, 76, 64
1, 827615, Control_c, 0, 64, 0
1, 827666, Note_on_c, 0, 76, 65
1, 827671, Note_off_c, 0, 60, 54
1, 827673, Note_off_c, 0, 52, 60
1, 827696, Note_off_c, 0, 54, 55
1, 827705, Note_off_c, 0, 57, 58
1, 827726, Note_off_c, 0, 76, 63
1, 827785, Note_on_c, 0, 71, 62
1, 827867, Control_c, 0, 64, 40
1, 827882, Control_c, 0, 64, 59
1, 827897, Control_c, 0, 64, 64
1, 827912, Control_c, 0, 64, 65
1, 827970, Note_off_c, 0, 71, 50
1, 828017, Note_on_c, 0, 59, 37
1, 828021, Note_on_c, 0, 52, 39
1, 828027, Note_on_c, 0, 55, 33
1, 828120, Control_c, 0, 64, 65
1, 828179, Control_c, 0, 64, 64
1, 828209, Control_c, 0, 64, 64
1, 828215, Note_on_c, 0, 83, 65
1, 828245, Note_off_c, 0, 59, 55
1, 828246, Note_off_c, 0, 52, 53
1, 828253, Control_c, 0, 64, 63
1, 828256, Note_off_c, 0, 55, 52
1, 828280, Note_off_c, 0, 83, 61
1, 828438, Control_c, 0, 64, 62
1, 828453, Control_c, 0, 64, 59
1, 828464, Note_on_c, 0, 83, 68
1, 828465, Note_on_c, 0, 54, 43
1, 828468, Control_c, 0, 64, 50
1, 828471, Note_on_c, 0, 57, 46
1, 828483, Control_c, 0, 64, 26
1, 828492, Note_on_c, 0, 52, 41
1, 828498, Control_c, 0, 64, 0
1, 828520, Note_off_c, 0, 83, 57
1, 828522, Note_off_c, 0, 57, 61
1, 828528, Note_off_c, 0, 52, 55
1, 828543, Note_off_c, 0, 54, 61
1, 828553, Note_on_c, 0, 81, 69
1, 828584, Note_off_c, 0, 81, 59
1, 828653, Note_on_c, 0, 52, 54
1, 828659, Note_on_c, 0, 81, 66
1, 828664, Note_on_c, 0, 59, 56
1, 828690, Control_c, 0, 64, 27
1, 828693, Note_on_c, 0, 55, 33
1, 828705, Control_c, 0, 64, 38
1, 828712, Note_off_c, 0, 81, 61
1, 828718, Note_off_c, 0, 59, 60
1, 828720, Control_c, 0, 64, 42
1, 828728, Note_off_c, 0, 55, 54
1, 828735, Control_c, 0, 64, 44
1, 828736, Note_off_c, 0, 52, 60
1, 828749, Control_c, 0, 64, 47
1, 828750, Note_on_c, 0, 83, 70
1, 828764, Control_c, 0, 64, 52
1, 828779, Control_c, 0, 64, 56
1, 828781, Note_off_c, 0, 83, 61
1, 828793, Control_c, 0, 64, 56
1, 828823, Control_c, 0, 64, 55
1, 828838, Control_c, 0, 64, 53
1, 828853, Control_c, 0, 64, 50
1, 828859, Note_on_c, 0, 60, 55
1, 828861, Note_on_c, 0, 57, 45
1, 828867, Control_c, 0, 64, 41
1, 828873, Note_on_c, 0, 83, 55
1, 828878, Note_on_c, 0, 54, 47
1, 828882, Control_c, 0, 64, 23
1, 828898, Control_c, 0, 64, 0
1, 828899, Note_on_c, 0, 52, 25
1, 828912, Note_off_c, 0, 60, 56
1, 828924, Note_off_c, 0, 57, 58
1, 828925, Note_off_c, 0, 54, 56
1, 828936, Note_off_c, 0, 52, 52
1, 828940, Note_off_c, 0, 83, 61
1, 829004, Note_on_c, 0, 84, 50
1, 829027, Note_off_c, 0, 84, 58
1, 829057, Note_on_c, 0, 52, 40
1, 829090, Note_on_c, 0, 83, 72
1, 829092, Note_on_c, 0, 55, 45
1, 829095, Note_on_c, 0, 59, 36
1, 829172, Control_c, 0, 64, 49
1, 829187, Control_c, 0, 64, 62
1, 829202, Control_c, 0, 64, 68
1, 829217, Control_c, 0, 64, 72
1, 829231, Control_c, 0, 64, 75
1, 829278, Note_off_c, 0, 83, 62
1, 829380, Control_c, 0, 64, 74
1, 829395, Control_c, 0, 64, 73
1, 829410, Control_c, 0, 64, 72
1, 829424, Control_c, 0, 64, 70
1, 829439, Control_c, 0, 64, 68
1, 829454, Control_c, 0, 64, 65
1, 829469, Control_c, 0, 64, 62
1, 829484, Control_c, 0, 64, 55
1, 829498, Control_c, 0, 64, 40
1, 829513, Control_c, 0, 64, 0
1, 829547, Note_on_c, 0, 76, 67
1, 829562, Note_off_c, 0, 59, 36
1, 829578, Note_off_c, 0, 76, 62
1, 829599, Note_off_c, 0, 52, 44
1, 829616, Note_off_c, 0, 55, 37
1, 829634, Note_on_c, 0, 76, 60
1, 829679, Note_off_c, 0, 76, 61
1, 829804, Note_on_c, 0, 66, 69
1, 829891, Control_c, 0, 64, 10
1, 829906, Control_c, 0, 64, 59
1, 829920, Control_c, 0, 64, 67
1, 829935, Control_c, 0, 64, 72
1, 829950, Control_c, 0, 64, 74
1, 829965, Control_c, 0, 64, 74
1, 829980, Control_c, 0, 64, 75
1, 829994, Control_c, 0, 64, 76
1, 830042, Note_on_c, 0, 60, 48
1, 830051, Note_on_c, 0, 54, 35
1, 830073, Note_on_c, 0, 52, 41
1, 830079, Note_on_c, 0, 57, 39
1, 830113, Note_off_c, 0, 66, 63
1, 830188, Control_c, 0, 64, 75
1, 830202, Control_c, 0, 64, 71
1, 830217, Control_c, 0, 64, 66
1, 830232, Control_c, 0, 64, 59
1, 830246, Control_c, 0, 64, 32
1, 830255, Note_on_c, 0, 76, 72
1, 830261, Control_c, 0, 64, 0
1, 830290, Note_off_c, 0, 76, 62
1, 830316, Note_off_c, 0, 60, 52
1, 830339, Note_off_c, 0, 52, 36
1, 830343, Note_on_c, 0, 76, 64
1, 830354, Note_off_c, 0, 57, 53
1, 830360, Note_off_c, 0, 54, 50
1, 830417, Note_off_c, 0, 76, 57
1, 830458, Note_on_c, 0, 71, 68
1, 830530, Control_c, 0, 64, 12
1, 830544, Control_c, 0, 64, 44
1, 830559, Control_c, 0, 64, 57
1, 830581, Control_c, 0, 64, 63
1, 830596, Control_c, 0, 64, 65
1, 830611, Control_c, 0, 64, 67
1, 830626, Control_c, 0, 64, 69
1, 830641, Control_c, 0, 64, 72
1, 830656, Control_c, 0, 64, 74
1, 830670, Control_c, 0, 64, 77
1, 830675, Note_on_c, 0, 59, 44
1, 830685, Control_c, 0, 64, 78
1, 830687, Note_on_c, 0, 55, 39
1, 830691, Note_on_c, 0, 52, 48
1, 830713, Note_off_c, 0, 71, 60
1, 830892, Control_c, 0, 64, 77
1, 830900, Note_on_c, 0, 76, 66
1, 830922, Control_c, 0, 64, 77
1, 830936, Control_c, 0, 64, 76
1, 830951, Control_c, 0, 64, 76
1, 830958, Note_off_c, 0, 76, 0
1, 830966, Control_c, 0, 64, 75
1, 830981, Note_on_c, 0, 76, 42
1, 830981, Control_c, 0, 64, 75
1, 830993, Note_off_c, 0, 52, 49
1, 830996, Control_c, 0, 64, 74
1, 831008, Note_off_c, 0, 59, 37
1, 831011, Control_c, 0, 64, 74
1, 831026, Control_c, 0, 64, 73
1, 831029, Note_off_c, 0, 55, 35
1, 831029, Note_off_c, 0, 76, 58
1, 831041, Control_c, 0, 64, 72
1, 831055, Control_c, 0, 64, 71
1, 831070, Control_c, 0, 64, 68
1, 831085, Control_c, 0, 64, 66
1, 831100, Control_c, 0, 64, 62
1, 831109, Note_on_c, 0, 66, 69
1, 831115, Control_c, 0, 64, 52
1, 831130, Control_c, 0, 64, 0
1, 831277, Control_c, 0, 64, 48
1, 831293, Control_c, 0, 64, 58
1, 831308, Control_c, 0, 64, 61
1, 831330, Control_c, 0, 64, 62
1, 831345, Control_c, 0, 64, 63
1, 831349, Note_on_c, 0, 60, 35
1, 831360, Control_c, 0, 64, 65
1, 831374, Note_on_c, 0, 57, 34
1, 831374, Control_c, 0, 64, 66
1, 831380, Note_on_c, 0, 54, 23
1, 831385, Note_on_c, 0, 52, 34
1, 831389, Control_c, 0, 64, 67
1, 831404, Control_c, 0, 64, 69
1, 831419, Control_c, 0, 64, 70
1, 831434, Note_off_c, 0, 66, 59
1, 831434, Control_c, 0, 64, 70
1, 831619, Note_on_c, 0, 76, 59
1, 831641, Control_c, 0, 64, 70
1, 831672, Note_off_c, 0, 76, 60
1, 831700, Control_c, 0, 64, 69
1, 831730, Control_c, 0, 64, 69
1, 831751, Note_on_c, 0, 76, 40
1, 831759, Control_c, 0, 64, 68
1, 831762, Note_off_c, 0, 54, 55
1, 831779, Note_off_c, 0, 60, 36
1, 831789, Control_c, 0, 64, 68
1, 831795, Note_off_c, 0, 76, 64
1, 831798, Note_off_c, 0, 52, 42
1, 831804, Control_c, 0, 64, 67
1, 831819, Control_c, 0, 64, 67
1, 831833, Control_c, 0, 64, 66
1, 831842, Note_off_c, 0, 57, 50
1, 831848, Control_c, 0, 64, 65
1, 831863, Control_c, 0, 64, 65
1, 831878, Control_c, 0, 64, 64
1, 831893, Control_c, 0, 64, 62
1, 831908, Control_c, 0, 64, 59
1, 831923, Control_c, 0, 64, 53
1, 831938, Control_c, 0, 64, 42
1, 831938, Note_on_c, 0, 71, 60
1, 831953, Control_c, 0, 64, 29
1, 831967, Control_c, 0, 64, 0
1, 832109, Control_c, 0, 64, 35
1, 832123, Control_c, 0, 64, 54
1, 832138, Control_c, 0, 64, 62
1, 832153, Control_c, 0, 64, 65
1, 832168, Control_c, 0, 64, 66
1, 832183, Control_c, 0, 64, 67
1, 832197, Control_c, 0, 64, 69
1, 832212, Control_c, 0, 64, 72
1, 832227, Control_c, 0, 64, 75
1, 832234, Note_on_c, 0, 59, 29
1, 832241, Note_on_c, 0, 52, 39
1, 832242, Note_off_c, 0, 71, 61
1, 832242, Control_c, 0, 64, 77
1, 832253, Note_on_c, 0, 55, 30
1, 832257, Control_c, 0, 64, 78
1, 832272, Control_c, 0, 64, 78
1, 832287, Control_c, 0, 64, 79
1, 832509, Control_c, 0, 64, 78
1, 832523, Control_c, 0, 64, 78
1, 832524, Note_off_c, 0, 59, 42
1, 832553, Control_c, 0, 64, 77
1, 832572, Note_off_c, 0, 52, 42
1, 832575, Note_off_c, 0, 55, 40
1, 832594, Note_on_c, 0, 67, 67
1, 832597, Control_c, 0, 64, 77
1, 832641, Control_c, 0, 64, 76
1, 832686, Note_off_c, 0, 67, 54
1, 832704, Note_on_c, 0, 71, 65
1, 832732, Note_off_c, 0, 71, 65
1, 832761, Control_c, 0, 64, 76
1, 832775, Control_c, 0, 64, 72
1, 832790, Control_c, 0, 64, 63
1, 832805, Control_c, 0, 64, 40
1, 832814, Note_on_c, 0, 54, 55
1, 832819, Note_on_c, 0, 45, 50
1, 832820, Note_on_c, 0, 71, 76
1, 832823, Note_on_c, 0, 66, 69
1, 832827, Note_on_c, 0, 57, 49
1, 832827, Control_c, 0, 64, 0
1, 832853, Note_off_c, 0, 45, 57
1, 832856, Control_c, 0, 67, 110
1, 832862, Note_off_c, 0, 57, 63
1, 832871, Note_off_c, 0, 54, 60
1, 832871, Control_c, 0, 67, 85
1, 832886, Control_c, 0, 67, 62
1, 832898, Note_on_c, 0, 69, 79
1, 832902, Control_c, 0, 67, 45
1, 832913, Note_off_c, 0, 71, 59
1, 832917, Control_c, 0, 67, 39
1, 832918, Note_off_c, 0, 66, 54
1, 832932, Control_c, 0, 67, 37
1, 832940, Note_off_c, 0, 69, 63
1, 832946, Control_c, 0, 67, 36
1, 832961, Control_c, 0, 67, 36
1, 832976, Control_c, 0, 67, 35
1, 832991, Control_c, 0, 67, 34
1, 833002, Note_on_c, 0, 69, 79
1, 833006, Control_c, 0, 67, 32
1, 833017, Note_on_c, 0, 59, 57
1, 833020, Note_on_c, 0, 47, 58
1, 833020, Control_c, 0, 67, 29
1, 833022, Note_on_c, 0, 55, 49
1, 833023, Note_on_c, 0, 64, 66
1, 833035, Control_c, 0, 67, 24
1, 833050, Control_c, 0, 67, 18
1, 833062, Note_off_c, 0, 55, 62
1, 833065, Control_c, 0, 67, 11
1, 833077, Note_off_c, 0, 47, 62
1, 833079, Control_c, 0, 67, 0
1, 833080, Note_off_c, 0, 59, 61
1, 833094, Note_on_c, 0, 67, 76
1, 833102, Note_off_c, 0, 69, 63
1, 833118, Note_off_c, 0, 64, 59
1, 833136, Note_off_c, 0, 67, 58
1, 833196, Note_on_c, 0, 67, 74
1, 833211, Note_on_c, 0, 47, 61
1, 833212, Note_on_c, 0, 57, 59
1, 833214, Note_on_c, 0, 59, 55
1, 833228, Note_on_c, 0, 63, 49
1, 833235, Note_off_c, 0, 47, 60
1, 833239, Note_off_c, 0, 57, 63
1, 833247, Note_off_c, 0, 59, 64
1, 833279, Note_off_c, 0, 63, 53
1, 833290, Note_on_c, 0, 66, 71
1, 833294, Note_off_c, 0, 67, 60
1, 833363, Note_off_c, 0, 66, 57
1, 833401, Note_on_c, 0, 64, 80
1, 833406, Note_on_c, 0, 55, 57
1, 833416, Note_on_c, 0, 59, 54
1, 833417, Note_on_c, 0, 52, 62
1, 833419, Control_c, 0, 64, 34
1, 833430, Note_off_c, 0, 55, 63
1, 833434, Control_c, 0, 64, 59
1, 833439, Note_off_c, 0, 59, 60
1, 833449, Control_c, 0, 64, 65
1, 833454, Note_off_c, 0, 52, 68
1, 833464, Control_c, 0, 64, 68
1, 833479, Control_c, 0, 64, 69
1, 833494, Control_c, 0, 64, 69
1, 833509, Control_c, 0, 64, 70
1, 833524, Control_c, 0, 64, 72
1, 833538, Control_c, 0, 64, 74
1, 833546, Note_off_c, 0, 64, 60
1, 833553, Control_c, 0, 64, 75
1, 833604, Control_c, 0, 64, 74
1, 833610, Note_on_c, 0, 64, 81
1, 833619, Control_c, 0, 64, 70
1, 833634, Control_c, 0, 64, 65
1, 833649, Control_c, 0, 64, 55
1, 833664, Control_c, 0, 64, 0
1, 833813, Control_c, 0, 64, 26
1, 833825, Note_on_c, 0, 71, 85
1, 833826, Note_on_c, 0, 68, 78
1, 833828, Control_c, 0, 64, 35
1, 833843, Control_c, 0, 64, 38
1, 833850, Note_off_c, 0, 68, 66
1, 833857, Control_c, 0, 64, 39
1, 833872, Note_off_c, 0, 71, 56
1, 833872, Control_c, 0, 64, 40
1, 833887, Control_c, 0, 64, 39
1, 833902, Note_on_c, 0, 71, 70
1, 833902, Control_c, 0, 64, 36
1, 833917, Control_c, 0, 64, 22
1, 833932, Control_c, 0, 64, 0
1, 833957, Note_off_c, 0, 71, 63
1, 833987, Note_off_c, 0, 64, 56
1, 833994, Note_on_c, 0, 72, 92
1, 834001, Note_on_c, 0, 69, 80
1, 834109, Control_c, 0, 64, 40
1, 834124, Control_c, 0, 64, 63
1, 834139, Control_c, 0, 64, 69
1, 834153, Note_off_c, 0, 69, 66
1, 834154, Control_c, 0, 64, 71
1, 834166, Note_off_c, 0, 72, 70
1, 834179, Note_on_c, 0, 64, 82
1, 834398, Control_c, 0, 64, 71
1, 834409, Note_on_c, 0, 71, 81
1, 834410, Note_on_c, 0, 68, 81
1, 834412, Control_c, 0, 64, 72
1, 834442, Note_off_c, 0, 68, 60
1, 834445, Note_off_c, 0, 71, 59
1, 834483, Note_on_c, 0, 71, 70
1, 834488, Control_c, 0, 64, 71
1, 834503, Control_c, 0, 64, 70
1, 834517, Control_c, 0, 64, 68
1, 834532, Control_c, 0, 64, 65
1, 834538, Note_off_c, 0, 71, 61
1, 834547, Control_c, 0, 64, 60
1, 834562, Control_c, 0, 64, 38
1, 834577, Control_c, 0, 64, 0
1, 834594, Note_on_c, 0, 74, 90
1, 834596, Note_on_c, 0, 77, 91
1, 834609, Note_off_c, 0, 64, 63
1, 834799, Note_on_c, 0, 64, 88
1, 834808, Note_off_c, 0, 74, 62
1, 834811, Note_off_c, 0, 77, 59
1, 834814, Control_c, 0, 64, 45
1, 834829, Control_c, 0, 64, 67
1, 834843, Control_c, 0, 64, 68
1, 834858, Control_c, 0, 64, 68
1, 834947, Control_c, 0, 64, 67
1, 834977, Control_c, 0, 64, 67
1, 834991, Control_c, 0, 64, 66
1, 834994, Note_on_c, 0, 76, 88
1, 834999, Note_on_c, 0, 72, 75
1, 835006, Control_c, 0, 64, 65
1, 835021, Control_c, 0, 64, 64
1, 835026, Note_off_c, 0, 72, 65
1, 835029, Note_off_c, 0, 76, 61
1, 835035, Control_c, 0, 64, 63
1, 835050, Control_c, 0, 64, 62
1, 835070, Poly_aftertouch_c, 0, 76, 0
1, 835073, Control_c, 0, 64, 60
1, 835078, Note_on_c, 0, 76, 69
1, 835088, Control_c, 0, 64, 58
1, 835095, Note_on_c, 0, 72, 48
1, 835103, Control_c, 0, 64, 51
1, 835115, Note_off_c, 0, 76, 63
1, 835117, Control_c, 0, 64, 33
1, 835118, Note_off_c, 0, 72, 59
1, 835132, Control_c, 0, 64, 0
1, 835177, Note_on_c, 0, 74, 82
1, 835179, Note_on_c, 0, 71, 80
1, 835202, Note_off_c, 0, 64, 65
1, 835202, Note_off_c, 0, 71, 66
1, 835222, Note_off_c, 0, 74, 62
1, 835379, Note_on_c, 0, 74, 76
1, 835380, Note_on_c, 0, 64, 68
1, 835388, Note_on_c, 0, 71, 62
1, 835399, Note_off_c, 0, 74, 73
1, 835406, Note_off_c, 0, 71, 65
1, 835574, Note_on_c, 0, 72, 84
1, 835586, Note_on_c, 0, 69, 72
1, 835592, Note_on_c, 0, 63, 61
1, 835607, Note_off_c, 0, 69, 73
1, 835611, Note_off_c, 0, 63, 63
1, 835616, Note_off_c, 0, 72, 64
1, 835749, Note_off_c, 0, 64, 64
1, 835774, Note_on_c, 0, 71, 90
1, 835780, Note_on_c, 0, 64, 59
1, 835786, Note_on_c, 0, 68, 77
1, 835958, Note_off_c, 0, 71, 63
1, 835972, Note_off_c, 0, 68, 67
1, 835977, Note_off_c, 0, 64, 64
1, 835979, Note_on_c, 0, 52, 86
1, 836193, Note_on_c, 0, 56, 81
1, 836193, Note_on_c, 0, 59, 80
1, 836216, Note_off_c, 0, 56, 67
1, 836224, Note_off_c, 0, 59, 62
1, 836270, Note_on_c, 0, 59, 82
1, 836323, Note_off_c, 0, 59, 60
1, 836357, Note_on_c, 0, 60, 95
1, 836364, Note_on_c, 0, 57, 82
1, 836438, Note_off_c, 0, 52, 62
1, 836558, Note_off_c, 0, 57, 58
1, 836579, Note_off_c, 0, 60, 64
1, 836579, Note_on_c, 0, 52, 88
1, 836629, Control_c, 0, 64, 44
1, 836644, Control_c, 0, 64, 61
1, 836659, Control_c, 0, 64, 63
1, 836703, Control_c, 0, 64, 62
1, 836718, Control_c, 0, 64, 62
1, 836732, Control_c, 0, 64, 59
1, 836747, Control_c, 0, 64, 55
1, 836762, Control_c, 0, 64, 44
1, 836777, Control_c, 0, 64, 12
1, 836783, Note_on_c, 0, 59, 77
1, 836784, Note_on_c, 0, 56, 71
1, 836792, Control_c, 0, 64, 0
1, 836801, Note_on_c, 0, 58, 7
1, 836810, Note_off_c, 0, 56, 64
1, 836810, Note_off_c, 0, 59, 65
1, 836827, Note_off_c, 0, 58, 46
1, 836859, Note_on_c, 0, 59, 70
1, 836910, Note_off_c, 0, 59, 62
1, 836967, Note_on_c, 0, 65, 90
1, 836973, Note_on_c, 0, 62, 85
1, 837030, Note_off_c, 0, 52, 64
1, 837074, Control_c, 0, 64, 18
1, 837089, Control_c, 0, 64, 46
1, 837104, Control_c, 0, 64, 54
1, 837119, Control_c, 0, 64, 57
1, 837134, Control_c, 0, 64, 59
1, 837149, Control_c, 0, 64, 60
1, 837164, Control_c, 0, 64, 60
1, 837174, Note_on_c, 0, 52, 83
1, 837178, Control_c, 0, 64, 58
1, 837183, Note_off_c, 0, 65, 58
1, 837192, Note_off_c, 0, 62, 60
1, 837193, Control_c, 0, 64, 54
1, 837208, Control_c, 0, 64, 47
1, 837223, Control_c, 0, 64, 35
1, 837238, Control_c, 0, 64, 8
1, 837253, Control_c, 0, 64, 0
1, 837283, Control_c, 0, 67, 13
1, 837297, Control_c, 0, 67, 21
1, 837319, Control_c, 0, 67, 30
1, 837334, Control_c, 0, 67, 38
1, 837349, Control_c, 0, 67, 44
1, 837363, Control_c, 0, 67, 50
1, 837374, Note_on_c, 0, 64, 86
1, 837378, Control_c, 0, 67, 54
1, 837379, Note_on_c, 0, 60, 68
1, 837393, Control_c, 0, 67, 55
1, 837405, Note_off_c, 0, 60, 67
1, 837408, Control_c, 0, 67, 56
1, 837423, Note_off_c, 0, 64, 64
1, 837423, Control_c, 0, 67, 57
1, 837438, Control_c, 0, 67, 57
1, 837452, Control_c, 0, 67, 58
1, 837454, Note_on_c, 0, 64, 63
1, 837467, Control_c, 0, 67, 59
1, 837471, Note_on_c, 0, 60, 64
1, 837482, Control_c, 0, 67, 60
1, 837497, Control_c, 0, 67, 60
1, 837498, Note_off_c, 0, 60, 65
1, 837507, Note_off_c, 0, 64, 64
1, 837512, Control_c, 0, 67, 61
1, 837551, Note_off_c, 0, 52, 65
1, 837564, Note_on_c, 0, 62, 72
1, 837565, Note_on_c, 0, 59, 64
1, 837589, Note_off_c, 0, 62, 67
1, 837590, Note_off_c, 0, 59, 65
1, 837645, Control_c, 0, 67, 60
1, 837675, Control_c, 0, 67, 60
1, 837691, Control_c, 0, 67, 59
1, 837706, Control_c, 0, 67, 59
1, 837721, Control_c, 0, 67, 58
1, 837735, Control_c, 0, 67, 58
1, 837750, Control_c, 0, 67, 57
1, 837762, Note_on_c, 0, 62, 70
1, 837763, Note_on_c, 0, 52, 60
1, 837779, Control_c, 0, 67, 56
1, 837785, Note_off_c, 0, 52, 65
1, 837786, Note_off_c, 0, 62, 67
1, 837790, Note_on_c, 0, 59, 29
1, 837794, Control_c, 0, 67, 56
1, 837824, Control_c, 0, 67, 55
1, 837827, Note_off_c, 0, 59, 48
1, 837853, Control_c, 0, 67, 54
1, 837868, Control_c, 0, 67, 54
1, 837883, Control_c, 0, 67, 53
1, 837898, Control_c, 0, 67, 52
1, 837913, Control_c, 0, 67, 51
1, 837927, Control_c, 0, 67, 50
1, 837942, Control_c, 0, 67, 49
1, 837954, Note_on_c, 0, 60, 74
1, 837957, Note_on_c, 0, 57, 68
1, 837957, Control_c, 0, 67, 47
1, 837968, Note_on_c, 0, 51, 42
1, 837972, Control_c, 0, 67, 45
1, 837982, Note_off_c, 0, 57, 67
1, 837986, Control_c, 0, 67, 42
1, 837995, Note_off_c, 0, 60, 59
1, 837998, Note_off_c, 0, 51, 34
1, 838001, Control_c, 0, 67, 39
1, 838016, Control_c, 0, 67, 36
1, 838031, Control_c, 0, 67, 33
1, 838046, Control_c, 0, 67, 28
1, 838068, Control_c, 0, 67, 22
1, 838083, Control_c, 0, 67, 14
1, 838098, Control_c, 0, 67, 9
1, 838113, Control_c, 0, 67, 0
1, 838156, Note_on_c, 0, 59, 74
1, 838161, Note_on_c, 0, 52, 58
1, 838175, Note_on_c, 0, 56, 65
1, 838188, Note_off_c, 0, 52, 66
1, 838347, Note_off_c, 0, 59, 61
1, 838360, Note_on_c, 0, 40, 76
1, 838380, Note_off_c, 0, 56, 63
1, 838563, Note_on_c, 0, 51, 71
1, 838563, Note_on_c, 0, 57, 65
1, 838568, Note_on_c, 0, 60, 62
1, 838590, Note_off_c, 0, 51, 66
1, 838591, Note_off_c, 0, 57, 65
1, 838591, Note_off_c, 0, 60, 64
1, 838656, Note_on_c, 0, 60, 46
1, 838663, Note_on_c, 0, 57, 48
1, 838681, Note_off_c, 0, 60, 57
1, 838695, Note_off_c, 0, 40, 64
1, 838696, Note_off_c, 0, 57, 51
1, 838740, Note_on_c, 0, 56, 53
1, 838741, Note_on_c, 0, 59, 61
1, 838755, Note_on_c, 0, 52, 54
1, 838949, Note_on_c, 0, 40, 69
1, 838951, Note_off_c, 0, 52, 64
1, 838967, Note_off_c, 0, 59, 57
1, 838991, Note_off_c, 0, 56, 60
1, 839143, Note_on_c, 0, 57, 56
1, 839144, Note_on_c, 0, 51, 61
1, 839147, Note_on_c, 0, 60, 50
1, 839172, Note_off_c, 0, 60, 55
1, 839173, Note_off_c, 0, 51, 64
1, 839173, Note_off_c, 0, 57, 64
1, 839232, Note_on_c, 0, 60, 45
1, 839237, Note_off_c, 0, 40, 64
1, 839244, Note_on_c, 0, 57, 47
1, 839247, Note_on_c, 0, 51, 43
1, 839277, Note_off_c, 0, 51, 52
1, 839280, Note_off_c, 0, 57, 53
1, 839293, Note_off_c, 0, 60, 51
1, 839325, Note_on_c, 0, 59, 63
1, 839327, Note_on_c, 0, 56, 54
1, 839337, Note_on_c, 0, 52, 48
1, 839577, Note_on_c, 0, 35, 81
1, 839626, Note_off_c, 0, 52, 54
1, 839645, Note_off_c, 0, 59, 55
1, 839676, Note_off_c, 0, 56, 60
1, 839837, Note_on_c, 0, 51, 58
1, 839840, Note_on_c, 0, 57, 58
1, 839840, Note_on_c, 0, 60, 47
1, 839867, Note_off_c, 0, 60, 53
1, 839869, Note_off_c, 0, 51, 61
1, 839895, Note_off_c, 0, 57, 0
1, 839922, Note_on_c, 0, 60, 60
1, 839933, Poly_aftertouch_c, 0, 57, 127
1, 839943, Note_on_c, 0, 51, 40
1, 839964, Note_off_c, 0, 35, 65
1, 839971, Note_off_c, 0, 51, 54
1, 839971, Poly_aftertouch_c, 0, 57, 0
1, 839980, Control_c, 0, 67, 13
1, 839995, Control_c, 0, 67, 19
1, 840010, Note_off_c, 0, 60, 57
1, 840010, Control_c, 0, 67, 23
1, 840020, Note_on_c, 0, 56, 48
1, 840023, Note_on_c, 0, 52, 47
1, 840025, Note_on_c, 0, 59, 53
1, 840025, Control_c, 0, 67, 25
1, 840055, Control_c, 0, 67, 25
1, 840100, Control_c, 0, 67, 25
1, 840114, Control_c, 0, 67, 24
1, 840129, Control_c, 0, 67, 24
1, 840159, Control_c, 0, 67, 23
1, 840173, Control_c, 0, 67, 23
1, 840210, Note_on_c, 0, 40, 51
1, 840232, Note_off_c, 0, 52, 58
1, 840264, Note_off_c, 0, 59, 55
1, 840317, Note_off_c, 0, 56, 56
1, 840422, Note_on_c, 0, 51, 62
1, 840439, Note_on_c, 0, 60, 33
1, 840445, Note_on_c, 0, 57, 33
1, 840448, Control_c, 0, 67, 22
1, 840451, Note_off_c, 0, 51, 63
1, 840462, Control_c, 0, 67, 21
1, 840467, Note_off_c, 0, 57, 0
1, 840477, Control_c, 0, 67, 19
1, 840486, Poly_aftertouch_c, 0, 57, 0
1, 840487, Note_off_c, 0, 60, 0
1, 840492, Control_c, 0, 67, 14
1, 840502, Note_on_c, 0, 60, 39
1, 840507, Note_on_c, 0, 57, 31
1, 840507, Control_c, 0, 67, 0
1, 840523, Note_off_c, 0, 40, 64
1, 840552, Note_off_c, 0, 57, 55
1, 840579, Note_off_c, 0, 60, 39
1, 840612, Note_on_c, 0, 56, 49
1, 840616, Note_on_c, 0, 59, 56
1, 840630, Note_on_c, 0, 52, 49
1, 840852, Note_on_c, 0, 35, 78
1, 840886, Note_off_c, 0, 52, 60
1, 840929, Note_off_c, 0, 59, 54
1, 840950, Note_off_c, 0, 56, 57
1, 841098, Note_on_c, 0, 57, 59
1, 841108, Note_on_c, 0, 51, 50
1, 841110, Note_on_c, 0, 60, 50
1, 841140, Note_off_c, 0, 57, 55
1, 841142, Note_off_c, 0, 51, 51
1, 841166, Note_off_c, 0, 60, 0
1, 841188, Note_on_c, 0, 57, 47
1, 841197, Note_on_c, 0, 60, 25
1, 841199, Note_off_c, 0, 35, 63
1, 841208, Note_on_c, 0, 51, 36
1, 841238, Note_off_c, 0, 51, 57
1, 841248, Note_off_c, 0, 57, 61
1, 841259, Note_off_c, 0, 60, 59
1, 841286, Control_c, 0, 67, 10
1, 841292, Note_on_c, 0, 59, 53
1, 841301, Control_c, 0, 67, 14
1, 841312, Note_on_c, 0, 56, 31
1, 841316, Control_c, 0, 67, 17
1, 841318, Note_on_c, 0, 52, 53
1, 841330, Control_c, 0, 67, 21
1, 841345, Control_c, 0, 67, 26
1, 841360, Control_c, 0, 67, 31
1, 841375, Control_c, 0, 67, 38
1, 841390, Control_c, 0, 67, 45
1, 841404, Control_c, 0, 67, 52
1, 841419, Control_c, 0, 67, 61
1, 841434, Control_c, 0, 67, 69
1, 841449, Control_c, 0, 67, 77
1, 841464, Control_c, 0, 67, 86
1, 841478, Control_c, 0, 67, 95
1, 841493, Control_c, 0, 67, 104
1, 841508, Control_c, 0, 64, 49
1, 841508, Control_c, 0, 67, 111
1, 841522, Control_c, 0, 64, 58
1, 841522, Control_c, 0, 67, 118
1, 841537, Control_c, 0, 64, 62
1, 841537, Control_c, 0, 67, 122
1, 841552, Control_c, 0, 64, 63
1, 841552, Control_c, 0, 67, 126
1, 841567, Control_c, 0, 64, 63
1, 841567, Control_c, 0, 67, 127
1, 841582, Control_c, 0, 64, 64
1, 841596, Control_c, 0, 64, 65
1, 841604, Note_off_c, 0, 52, 36
1, 841611, Control_c, 0, 64, 66
1, 841622, Note_on_c, 0, 40, 38
1, 841626, Control_c, 0, 64, 67
1, 841627, Note_off_c, 0, 59, 37
1, 841629, Note_off_c, 0, 56, 41
1, 841667, Note_off_c, 0, 40, 62
1, 841872, Control_c, 0, 64, 66
1, 841887, Control_c, 0, 64, 65
1, 841901, Control_c, 0, 64, 63
1, 841916, Control_c, 0, 64, 60
1, 841930, Note_on_c, 0, 57, 54
1, 841931, Note_on_c, 0, 69, 64
1, 841931, Control_c, 0, 64, 54
1, 841946, Control_c, 0, 64, 38
1, 841960, Control_c, 0, 64, 0
1, 841961, Note_off_c, 0, 69, 65
1, 841962, Note_off_c, 0, 57, 63
1, 842020, Note_on_c, 0, 69, 60
1, 842028, Note_on_c, 0, 57, 56
1, 842061, Note_off_c, 0, 57, 57
1, 842076, Note_off_c, 0, 69, 60
1, 842121, Note_on_c, 0, 71, 61
1, 842129, Note_on_c, 0, 52, 50
1, 842136, Note_on_c, 0, 64, 38
1, 842138, Note_on_c, 0, 68, 48
1, 842198, Control_c, 0, 64, 12
1, 842213, Control_c, 0, 64, 50
1, 842227, Control_c, 0, 64, 60
1, 842242, Control_c, 0, 64, 64
1, 842257, Control_c, 0, 64, 66
1, 842272, Control_c, 0, 64, 68
1, 842287, Control_c, 0, 64, 69
1, 842301, Control_c, 0, 64, 70
1, 842316, Control_c, 0, 64, 71
1, 842331, Control_c, 0, 64, 72
1, 842355, Note_off_c, 0, 71, 52
1, 842360, Control_c, 0, 64, 72
1, 842361, Note_off_c, 0, 52, 59
1, 842389, Note_off_c, 0, 68, 62
1, 842392, Note_off_c, 0, 64, 42
1, 842464, Control_c, 0, 64, 71
1, 842480, Control_c, 0, 64, 68
1, 842495, Control_c, 0, 64, 64
1, 842505, Note_on_c, 0, 69, 76
1, 842510, Control_c, 0, 64, 56
1, 842514, Note_on_c, 0, 57, 52
1, 842524, Control_c, 0, 64, 0
1, 842531, Note_off_c, 0, 69, 69
1, 842537, Note_off_c, 0, 57, 60
1, 842599, Note_on_c, 0, 69, 69
1, 842653, Note_off_c, 0, 69, 63
1, 842695, Note_on_c, 0, 71, 72
1, 842708, Note_on_c, 0, 52, 55
1, 842716, Note_on_c, 0, 68, 54
1, 842717, Note_on_c, 0, 64, 52
1, 842724, Control_c, 0, 64, 39
1, 842739, Control_c, 0, 64, 57
1, 842754, Control_c, 0, 64, 63
1, 842769, Control_c, 0, 64, 64
1, 842798, Control_c, 0, 64, 65
1, 842813, Control_c, 0, 64, 65
1, 842828, Control_c, 0, 64, 66
1, 842843, Control_c, 0, 64, 66
1, 842967, Note_off_c, 0, 52, 64
1, 842976, Note_off_c, 0, 71, 53
1, 842986, Note_off_c, 0, 68, 61
1, 842991, Note_off_c, 0, 64, 55
1, 843080, Control_c, 0, 64, 66
1, 843094, Control_c, 0, 64, 64
1, 843109, Control_c, 0, 64, 59
1, 843120, Note_on_c, 0, 69, 80
1, 843124, Control_c, 0, 64, 22
1, 843136, Note_on_c, 0, 57, 60
1, 843139, Control_c, 0, 64, 0
1, 843155, Note_off_c, 0, 69, 62
1, 843167, Note_off_c, 0, 57, 65
1, 843201, Note_on_c, 0, 69, 60
1, 843240, Note_off_c, 0, 69, 65
1, 843289, Note_on_c, 0, 71, 76
1, 843313, Note_on_c, 0, 52, 64
1, 843314, Note_on_c, 0, 64, 48
1, 843314, Note_on_c, 0, 68, 51
1, 843324, Note_off_c, 0, 71, 61
1, 843338, Note_off_c, 0, 68, 60
1, 843339, Note_off_c, 0, 64, 59
1, 843340, Note_off_c, 0, 52, 67
1, 843384, Control_c, 0, 67, 125
1, 843399, Control_c, 0, 67, 119
1, 843414, Control_c, 0, 67, 114
1, 843429, Control_c, 0, 67, 108
1, 843444, Control_c, 0, 67, 100
1, 843459, Control_c, 0, 67, 91
1, 843473, Control_c, 0, 67, 80
1, 843488, Control_c, 0, 67, 68
1, 843503, Note_on_c, 0, 69, 70
1, 843503, Control_c, 0, 67, 53
1, 843504, Note_on_c, 0, 72, 65
1, 843516, Note_on_c, 0, 57, 50
1, 843518, Control_c, 0, 67, 40
1, 843525, Note_on_c, 0, 64, 37
1, 843526, Note_off_c, 0, 69, 72
1, 843531, Note_off_c, 0, 72, 69
1, 843533, Control_c, 0, 67, 28
1, 843540, Note_off_c, 0, 57, 59
1, 843547, Control_c, 0, 67, 18
1, 843556, Note_off_c, 0, 64, 34
1, 843562, Control_c, 0, 67, 12
1, 843577, Control_c, 0, 67, 0
1, 843708, Note_on_c, 0, 71, 69
1, 843711, Note_on_c, 0, 68, 65
1, 843715, Note_on_c, 0, 52, 51
1, 843732, Note_off_c, 0, 68, 68
1, 843735, Note_off_c, 0, 71, 63
1, 843740, Note_off_c, 0, 52, 63
1, 843917, Note_on_c, 0, 72, 73
1, 843922, Note_on_c, 0, 64, 65
1, 843925, Note_on_c, 0, 57, 61
1, 843928, Note_on_c, 0, 69, 55
1, 843947, Note_off_c, 0, 57, 61
1, 843949, Note_off_c, 0, 64, 67
1, 843949, Note_off_c, 0, 69, 64
1, 843951, Note_off_c, 0, 72, 64
1, 844234, Note_on_c, 0, 76, 95
1, 844242, Note_on_c, 0, 44, 83
1, 844243, Note_on_c, 0, 71, 80
1, 844245, Note_on_c, 0, 32, 76
1, 844245, Note_on_c, 0, 64, 77
1, 844282, Control_c, 0, 64, 59
1, 844296, Control_c, 0, 64, 63
1, 844311, Control_c, 0, 64, 65
1, 844326, Control_c, 0, 64, 67
1, 844341, Control_c, 0, 64, 70
1, 844355, Control_c, 0, 64, 75
1, 844370, Control_c, 0, 64, 81
1, 844385, Control_c, 0, 64, 85
1, 844400, Control_c, 0, 64, 87
1, 844415, Control_c, 0, 64, 89
1, 844429, Control_c, 0, 64, 90
1, 844444, Control_c, 0, 64, 91
1, 844583, Note_off_c, 0, 71, 50
1, 844609, Note_off_c, 0, 64, 38
1, 844635, Note_off_c, 0, 32, 30
1, 844669, Note_off_c, 0, 44, 56
1, 844740, Control_c, 0, 64, 90
1, 844755, Control_c, 0, 64, 84
1, 844770, Control_c, 0, 64, 73
1, 844775, Note_off_c, 0, 76, 63
1, 844785, Control_c, 0, 64, 63
1, 844797, Note_on_c, 0, 72, 59
1, 844807, Control_c, 0, 64, 0
1, 844811, Note_on_c, 0, 69, 40
1, 844820, Note_on_c, 0, 64, 45
1, 844826, Note_on_c, 0, 45, 40
1, 844835, Note_on_c, 0, 33, 44
1, 844956, Control_c, 0, 64, 52
1, 844964, Note_off_c, 0, 33, 44
1, 844970, Control_c, 0, 64, 63
1, 844985, Control_c, 0, 64, 68
1, 844999, Note_off_c, 0, 64, 58
1, 845000, Control_c, 0, 64, 71
1, 845015, Control_c, 0, 64, 73
1, 845018, Note_off_c, 0, 72, 60
1, 845030, Control_c, 0, 64, 75
1, 845045, Control_c, 0, 64, 77
1, 845060, Control_c, 0, 64, 77
1, 845061, Note_off_c, 0, 45, 60
1, 845066, Note_off_c, 0, 69, 62
1, 845149, Control_c, 0, 64, 76
1, 845164, Control_c, 0, 64, 72
1, 845178, Control_c, 0, 64, 66
1, 845193, Control_c, 0, 64, 58
1, 845208, Control_c, 0, 64, 0
1, 845381, Note_on_c, 0, 69, 65
1, 845390, Note_on_c, 0, 61, 37
1, 845420, Note_on_c, 0, 57, 35
1, 845463, Note_off_c, 0, 69, 0
1, 845483, Note_on_c, 0, 69, 35
1, 845638, Note_off_c, 0, 69, 55
1, 845650, Note_on_c, 0, 71, 65
1, 845672, Note_on_c, 0, 56, 39
1, 845673, Note_on_c, 0, 62, 51
1, 845682, Note_off_c, 0, 57, 39
1, 845686, Note_on_c, 0, 64, 29
1, 845770, Note_off_c, 0, 61, 35
1, 845853, Control_c, 0, 64, 48
1, 845868, Control_c, 0, 64, 60
1, 845882, Control_c, 0, 64, 64
1, 845897, Control_c, 0, 64, 65
1, 845912, Control_c, 0, 64, 65
1, 845927, Control_c, 0, 64, 66
1, 845942, Control_c, 0, 64, 67
1, 845954, Note_off_c, 0, 64, 58
1, 845957, Control_c, 0, 64, 68
1, 845981, Note_off_c, 0, 71, 60
1, 846061, Control_c, 0, 64, 67
1, 846075, Control_c, 0, 64, 66
1, 846084, Note_off_c, 0, 56, 53
1, 846090, Control_c, 0, 64, 64
1, 846096, Note_on_c, 0, 61, 44
1, 846103, Note_on_c, 0, 57, 43
1, 846105, Control_c, 0, 64, 62
1, 846106, Note_on_c, 0, 69, 65
1, 846119, Control_c, 0, 64, 59
1, 846134, Control_c, 0, 64, 55
1, 846137, Note_off_c, 0, 69, 64
1, 846140, Note_off_c, 0, 62, 37
1, 846149, Control_c, 0, 64, 46
1, 846164, Control_c, 0, 64, 34
1, 846179, Control_c, 0, 64, 0
1, 846201, Note_on_c, 0, 69, 55
1, 846268, Note_off_c, 0, 69, 57
1, 846307, Note_off_c, 0, 57, 46
1, 846317, Note_on_c, 0, 71, 71
1, 846322, Note_on_c, 0, 62, 56
1, 846325, Note_off_c, 0, 61, 49
1, 846327, Note_on_c, 0, 64, 49
1, 846331, Note_on_c, 0, 56, 41
1, 846453, Control_c, 0, 64, 49
1, 846469, Control_c, 0, 64, 61
1, 846484, Control_c, 0, 64, 64
1, 846498, Control_c, 0, 64, 65
1, 846513, Control_c, 0, 64, 66
1, 846528, Control_c, 0, 64, 67
1, 846542, Control_c, 0, 64, 68
1, 846549, Note_off_c, 0, 64, 63
1, 846557, Control_c, 0, 64, 69
1, 846572, Control_c, 0, 64, 69
1, 846580, Note_off_c, 0, 71, 58
1, 846702, Note_off_c, 0, 56, 53
1, 846720, Control_c, 0, 64, 68
1, 846723, Note_on_c, 0, 57, 49
1, 846723, Note_on_c, 0, 61, 43
1, 846735, Control_c, 0, 64, 68
1, 846745, Note_on_c, 0, 69, 79
1, 846758, Note_off_c, 0, 62, 35
1, 846765, Control_c, 0, 64, 67
1, 846780, Control_c, 0, 64, 67
1, 846795, Control_c, 0, 64, 66
1, 846800, Note_off_c, 0, 69, 62
1, 846810, Control_c, 0, 64, 66
1, 846824, Control_c, 0, 64, 65
1, 846834, Note_on_c, 0, 69, 57
1, 846837, Control_c, 0, 64, 65
1, 846852, Control_c, 0, 64, 64
1, 846867, Control_c, 0, 64, 63
1, 846882, Control_c, 0, 64, 59
1, 846896, Control_c, 0, 64, 44
1, 846899, Note_off_c, 0, 57, 35
1, 846904, Note_off_c, 0, 69, 57
1, 846911, Control_c, 0, 64, 0
1, 846942, Note_on_c, 0, 56, 55
1, 846943, Note_on_c, 0, 71, 83
1, 846953, Note_on_c, 0, 62, 65
1, 846956, Note_on_c, 0, 64, 68
1, 846991, Note_off_c, 0, 61, 43
1, 847030, Control_c, 0, 64, 54
1, 847052, Control_c, 0, 64, 64
1, 847067, Control_c, 0, 64, 66
1, 847081, Note_off_c, 0, 71, 60
1, 847082, Control_c, 0, 64, 66
1, 847096, Control_c, 0, 64, 67
1, 847111, Control_c, 0, 64, 67
1, 847126, Control_c, 0, 64, 68
1, 847131, Note_off_c, 0, 64, 63
1, 847140, Control_c, 0, 64, 69
1, 847155, Control_c, 0, 64, 70
1, 847180, Note_off_c, 0, 56, 36
1, 847224, Note_off_c, 0, 62, 59
1, 847334, Control_c, 0, 64, 69
1, 847349, Control_c, 0, 64, 66
1, 847358, Note_on_c, 0, 73, 81
1, 847359, Note_on_c, 0, 64, 60
1, 847364, Control_c, 0, 64, 61
1, 847371, Note_on_c, 0, 55, 49
1, 847373, Note_on_c, 0, 69, 54
1, 847379, Note_on_c, 0, 57, 34
1, 847379, Control_c, 0, 64, 34
1, 847394, Control_c, 0, 64, 0
1, 847402, Note_off_c, 0, 69, 66
1, 847405, Note_off_c, 0, 73, 59
1, 847412, Note_off_c, 0, 55, 59
1, 847412, Note_off_c, 0, 64, 60
1, 847412, Note_off_c, 0, 57, 54
1, 847449, Note_on_c, 0, 73, 63
1, 847510, Note_off_c, 0, 73, 60
1, 847546, Note_on_c, 0, 62, 66
1, 847547, Note_on_c, 0, 54, 60
1, 847553, Note_on_c, 0, 76, 80
1, 847570, Note_on_c, 0, 69, 64
1, 847576, Note_off_c, 0, 62, 63
1, 847580, Note_off_c, 0, 54, 61
1, 847601, Note_off_c, 0, 69, 64
1, 847632, Note_on_c, 0, 74, 70
1, 847671, Note_off_c, 0, 76, 58
1, 847725, Note_off_c, 0, 74, 56
1, 847740, Note_on_c, 0, 73, 71
1, 847752, Note_on_c, 0, 69, 62
1, 847758, Note_on_c, 0, 64, 59
1, 847767, Note_off_c, 0, 73, 64
1, 847771, Note_on_c, 0, 52, 50
1, 847771, Note_off_c, 0, 69, 69
1, 847793, Note_off_c, 0, 64, 62
1, 847806, Note_off_c, 0, 52, 58
1, 847954, Note_on_c, 0, 71, 77
1, 847968, Note_on_c, 0, 62, 52
1, 847972, Note_on_c, 0, 52, 41
1, 847975, Note_on_c, 0, 68, 57
1, 847993, Note_off_c, 0, 71, 59
1, 847996, Note_off_c, 0, 68, 61
1, 848002, Note_off_c, 0, 52, 50
1, 848002, Note_off_c, 0, 62, 54
1, 848160, Note_on_c, 0, 69, 82
1, 848161, Note_on_c, 0, 61, 55
1, 848175, Note_on_c, 0, 57, 44
1, 848182, Note_off_c, 0, 61, 61
1, 848196, Note_off_c, 0, 69, 63
1, 848202, Note_off_c, 0, 57, 49
1, 848400, Note_on_c, 0, 76, 98
1, 848407, Note_on_c, 0, 64, 94
1, 848415, Note_on_c, 0, 61, 79
1, 848416, Note_on_c, 0, 49, 77
1, 848455, Control_c, 0, 64, 60
1, 848469, Control_c, 0, 64, 67
1, 848470, Note_off_c, 0, 61, 60
1, 848473, Note_off_c, 0, 49, 54
1, 848484, Control_c, 0, 64, 71
1, 848499, Control_c, 0, 64, 74
1, 848513, Control_c, 0, 64, 77
1, 848528, Control_c, 0, 64, 84
1, 848550, Control_c, 0, 64, 93
1, 848565, Control_c, 0, 64, 104
1, 848580, Control_c, 0, 64, 116
1, 848595, Control_c, 0, 64, 127
1, 848637, Note_off_c, 0, 76, 60
1, 848690, Note_off_c, 0, 64, 62
1, 848801, Note_on_c, 0, 61, 89
1, 848802, Control_c, 0, 64, 95
1, 848804, Note_on_c, 0, 73, 83
1, 848806, Note_on_c, 0, 45, 76
1, 848807, Note_on_c, 0, 57, 71
1, 848817, Control_c, 0, 64, 73
1, 848831, Note_off_c, 0, 57, 68
1, 848832, Control_c, 0, 64, 56
1, 848833, Note_off_c, 0, 45, 66
1, 848844, Note_off_c, 0, 61, 59
1, 848846, Control_c, 0, 64, 0
1, 848847, Note_off_c, 0, 73, 59
1, 849000, Note_on_c, 0, 69, 84
1, 849007, Note_on_c, 0, 54, 69
1, 849012, Note_on_c, 0, 57, 65
1, 849014, Note_on_c, 0, 42, 63
1, 849035, Note_off_c, 0, 54, 64
1, 849039, Note_off_c, 0, 57, 66
1, 849045, Note_off_c, 0, 42, 62
1, 849045, Note_off_c, 0, 69, 65
1, 849197, Note_on_c, 0, 54, 83
1, 849197, Note_on_c, 0, 66, 76
1, 849200, Note_on_c, 0, 38, 72
1, 849202, Note_on_c, 0, 50, 67
1, 849236, Note_off_c, 0, 50, 63
1, 849236, Note_off_c, 0, 66, 62
1, 849239, Note_off_c, 0, 54, 57
1, 849245, Note_off_c, 0, 38, 62
1, 849404, Note_on_c, 0, 62, 94
1, 849410, Note_on_c, 0, 35, 69
1, 849411, Note_on_c, 0, 50, 82
1, 849413, Note_on_c, 0, 47, 61
1, 849438, Note_off_c, 0, 50, 67
1, 849438, Note_off_c, 0, 35, 66
1, 849442, Note_off_c, 0, 47, 66
1, 849456, Note_off_c, 0, 62, 64
1, 849640, Control_c, 0, 64, 23
1, 849653, Note_on_c, 0, 44, 84
1, 849655, Note_on_c, 0, 32, 76
1, 849655, Control_c, 0, 64, 51
1, 849658, Note_on_c, 0, 71, 87
1, 849658, Note_on_c, 0, 78, 99
1, 849671, Control_c, 0, 64, 62
1, 849686, Control_c, 0, 64, 66
1, 849694, Note_off_c, 0, 32, 64
1, 849701, Control_c, 0, 64, 71
1, 849715, Control_c, 0, 64, 77
1, 849729, Note_on_c, 0, 79, 6
1, 849730, Control_c, 0, 64, 88
1, 849731, Note_off_c, 0, 44, 59
1, 849745, Control_c, 0, 64, 105
1, 849756, Poly_aftertouch_c, 0, 80, 127
1, 849759, Control_c, 0, 64, 127
1, 849779, Note_off_c, 0, 79, 35
1, 849790, Poly_aftertouch_c, 0, 80, 0
1, 849862, Note_off_c, 0, 71, 45
1, 849921, Note_off_c, 0, 78, 60
1, 850158, Note_on_c, 0, 83, 91
1, 850163, Note_on_c, 0, 74, 90
1, 850165, Note_on_c, 0, 78, 91
1, 850169, Note_on_c, 0, 66, 85
1, 850172, Note_on_c, 0, 62, 76
1, 850179, Note_on_c, 0, 56, 68
1, 850211, Control_c, 0, 64, 83
1, 850226, Control_c, 0, 64, 64
1, 850241, Control_c, 0, 64, 0
1, 850715, Control_c, 0, 64, 35
1, 850729, Control_c, 0, 64, 53
1, 850744, Control_c, 0, 64, 60
1, 850759, Control_c, 0, 64, 64
1, 850774, Control_c, 0, 64, 67
1, 850796, Control_c, 0, 64, 70
1, 850811, Control_c, 0, 64, 74
1, 850826, Control_c, 0, 64, 79
1, 850841, Control_c, 0, 64, 83
1, 850856, Control_c, 0, 64, 86
1, 850870, Control_c, 0, 64, 89
1, 850885, Control_c, 0, 64, 91
1, 850900, Control_c, 0, 64, 94
1, 850914, Control_c, 0, 64, 95
1, 850940, Note_off_c, 0, 78, 52
1, 850959, Control_c, 0, 67, 15
1, 850967, Note_off_c, 0, 56, 37
1, 850974, Control_c, 0, 67, 29
1, 850989, Control_c, 0, 67, 42
1, 851004, Control_c, 0, 67, 52
1, 851010, Note_off_c, 0, 74, 61
1, 851019, Control_c, 0, 67, 61
1, 851033, Control_c, 0, 67, 67
1, 851048, Control_c, 0, 67, 72
1, 851063, Control_c, 0, 67, 75
1, 851078, Note_off_c, 0, 66, 38
1, 851078, Control_c, 0, 67, 77
1, 851093, Control_c, 0, 67, 78
1, 851107, Control_c, 0, 67, 80
1, 851122, Control_c, 0, 67, 84
1, 851137, Control_c, 0, 67, 87
1, 851143, Note_off_c, 0, 62, 25
1, 851147, Note_on_c, 0, 81, 55
1, 851152, Control_c, 0, 67, 90
1, 851167, Control_c, 0, 64, 95
1, 851167, Control_c, 0, 67, 93
1, 851181, Control_c, 0, 64, 94
1, 851181, Control_c, 0, 67, 94
1, 851196, Control_c, 0, 64, 92
1, 851196, Control_c, 0, 67, 96
1, 851211, Control_c, 0, 64, 90
1, 851211, Control_c, 0, 67, 98
1, 851226, Control_c, 0, 64, 87
1, 851226, Control_c, 0, 67, 101
1, 851235, Note_on_c, 0, 80, 57
1, 851240, Control_c, 0, 64, 83
1, 851240, Control_c, 0, 67, 104
1, 851257, Control_c, 0, 64, 78
1, 851257, Control_c, 0, 67, 108
1, 851269, Note_off_c, 0, 83, 43
1, 851272, Control_c, 0, 64, 73
1, 851272, Control_c, 0, 67, 110
1, 851286, Control_c, 0, 64, 68
1, 851286, Control_c, 0, 67, 113
1, 851290, Note_off_c, 0, 81, 31
1, 851301, Control_c, 0, 64, 63
1, 851301, Control_c, 0, 67, 115
1, 851316, Control_c, 0, 64, 54
1, 851316, Control_c, 0, 67, 116
1, 851324, Note_on_c, 0, 78, 51
1, 851331, Control_c, 0, 64, 32
1, 851331, Control_c, 0, 67, 117
1, 851346, Control_c, 0, 64, 0
1, 851346, Control_c, 0, 67, 118
1, 851361, Control_c, 0, 67, 119
1, 851373, Note_off_c, 0, 80, 38
1, 851376, Control_c, 0, 67, 119
1, 851391, Control_c, 0, 67, 120
1, 851409, Note_on_c, 0, 64, 41
1, 851413, Note_on_c, 0, 76, 63
1, 851415, Note_on_c, 0, 57, 44
1, 851416, Note_on_c, 0, 61, 27
1, 851428, Note_off_c, 0, 78, 63
1, 851435, Control_c, 0, 67, 120
1, 851451, Note_off_c, 0, 61, 59
1, 851464, Note_off_c, 0, 57, 61
1, 851470, Note_off_c, 0, 64, 64
1, 851479, Note_off_c, 0, 76, 64
1, 851591, Control_c, 0, 67, 120
1, 851658, Note_on_c, 0, 88, 77
1, 851664, Control_c, 0, 64, 18
1, 851664, Control_c, 0, 67, 121
1, 851674, Note_on_c, 0, 76, 57
1, 851679, Control_c, 0, 64, 56
1, 851679, Control_c, 0, 67, 125
1, 851683, Note_on_c, 0, 73, 48
1, 851694, Control_c, 0, 64, 65
1, 851694, Control_c, 0, 67, 127
1, 851709, Control_c, 0, 64, 70
1, 851710, Note_off_c, 0, 76, 64
1, 851724, Control_c, 0, 64, 73
1, 851730, Note_off_c, 0, 73, 62
1, 851738, Control_c, 0, 64, 76
1, 851753, Control_c, 0, 64, 78
1, 851768, Control_c, 0, 64, 80
1, 851783, Control_c, 0, 64, 83
1, 851798, Control_c, 0, 64, 84
1, 851812, Control_c, 0, 64, 84
1, 851931, Note_off_c, 0, 88, 46
1, 851976, Note_on_c, 0, 85, 71
1, 852009, Note_off_c, 0, 85, 56
1, 852020, Control_c, 0, 64, 83
1, 852035, Control_c, 0, 64, 79
1, 852050, Control_c, 0, 64, 74
1, 852053, Note_on_c, 0, 69, 50
1, 852065, Control_c, 0, 64, 68
1, 852077, Note_on_c, 0, 73, 39
1, 852080, Control_c, 0, 64, 61
1, 852081, Note_on_c, 0, 86, 57
1, 852088, Note_off_c, 0, 69, 68
1, 852090, Note_on_c, 0, 85, 21
1, 852095, Control_c, 0, 64, 41
1, 852103, Note_off_c, 0, 73, 57
1, 852110, Control_c, 0, 64, 0
1, 852122, Note_off_c, 0, 86, 47
1, 852130, Note_off_c, 0, 85, 56
1, 852139, Note_on_c, 0, 81, 55
1, 852157, Note_off_c, 0, 81, 60
1, 852243, Note_on_c, 0, 69, 64
1, 852244, Note_on_c, 0, 66, 64
1, 852246, Note_on_c, 0, 83, 49
1, 852256, Note_on_c, 0, 82, 39
1, 852259, Note_on_c, 0, 81, 47
1, 852268, Note_off_c, 0, 69, 71
1, 852273, Note_off_c, 0, 66, 67
1, 852299, Note_off_c, 0, 81, 46
1, 852309, Note_off_c, 0, 82, 46
1, 852320, Note_off_c, 0, 83, 40
1, 852327, Note_on_c, 0, 78, 66
1, 852351, Note_off_c, 0, 78, 67
1, 852419, Note_on_c, 0, 66, 68
1, 852426, Note_on_c, 0, 78, 42
1, 852444, Note_on_c, 0, 62, 39
1, 852445, Note_off_c, 0, 66, 67
1, 852452, Note_on_c, 0, 79, 48
1, 852475, Note_off_c, 0, 62, 51
1, 852496, Note_off_c, 0, 79, 47
1, 852500, Note_off_c, 0, 78, 45
1, 852509, Note_on_c, 0, 74, 72
1, 852534, Note_off_c, 0, 74, 68
1, 852591, Control_c, 0, 67, 119
1, 852606, Control_c, 0, 67, 94
1, 852614, Note_on_c, 0, 59, 50
1, 852621, Control_c, 0, 67, 63
1, 852630, Note_on_c, 0, 74, 48
1, 852631, Note_on_c, 0, 62, 33
1, 852635, Control_c, 0, 67, 28
1, 852648, Note_off_c, 0, 59, 64
1, 852650, Control_c, 0, 67, 0
1, 852664, Note_off_c, 0, 62, 54
1, 852667, Note_off_c, 0, 74, 66
1, 852941, Note_on_c, 0, 77, 63
1, 852944, Note_on_c, 0, 72, 59
1, 852963, Note_on_c, 0, 69, 41
1, 852969, Note_on_c, 0, 60, 23
1, 852976, Note_on_c, 0, 57, 36
1, 852986, Note_on_c, 0, 65, 27
1, 853473, Control_c, 0, 64, 22
1, 853488, Control_c, 0, 64, 36
1, 853502, Control_c, 0, 64, 48
1, 853517, Control_c, 0, 64, 57
1, 853532, Control_c, 0, 64, 62
1, 853547, Control_c, 0, 64, 65
1, 853562, Control_c, 0, 64, 67
1, 853576, Control_c, 0, 64, 71
1, 853591, Control_c, 0, 64, 75
1, 853606, Control_c, 0, 64, 80
1, 853621, Control_c, 0, 64, 85
1, 853636, Control_c, 0, 64, 89
1, 853652, Control_c, 0, 64, 94
1, 853667, Control_c, 0, 64, 100
1, 853681, Control_c, 0, 64, 109
1, 853696, Control_c, 0, 64, 127
1, 853711, Control_c, 0, 67, 14
1, 853725, Control_c, 0, 67, 22
1, 853740, Control_c, 0, 67, 33
1, 853755, Control_c, 0, 67, 41
1, 853765, Note_off_c, 0, 69, 39
1, 853770, Control_c, 0, 67, 51
1, 853793, Control_c, 0, 67, 62
1, 853807, Control_c, 0, 67, 75
1, 853822, Control_c, 0, 67, 90
1, 853837, Control_c, 0, 67, 104
1, 853847, Note_off_c, 0, 77, 50
1, 853852, Control_c, 0, 67, 120
1, 853859, Note_off_c, 0, 57, 35
1, 853867, Control_c, 0, 67, 127
1, 853928, Note_off_c, 0, 65, 39
1, 853932, Note_off_c, 0, 60, 41
1, 854207, Control_c, 0, 64, 125
1, 854222, Control_c, 0, 64, 103
1, 854230, Note_off_c, 0, 72, 36
1, 854237, Control_c, 0, 64, 90
1, 854251, Control_c, 0, 64, 79
1, 854266, Control_c, 0, 64, 69
1, 854275, Note_on_c, 0, 76, 44
1, 854277, Note_on_c, 0, 68, 37
1, 854281, Control_c, 0, 64, 61
1, 854286, Note_on_c, 0, 59, 30
1, 854287, Note_on_c, 0, 71, 38
1, 854291, Note_on_c, 0, 64, 28
1, 854292, Note_on_c, 0, 56, 25
1, 854296, Control_c, 0, 64, 36
1, 854311, Control_c, 0, 64, 0
1, 854366, Note_on_c, 0, 61, 49
1, 854382, Note_on_c, 0, 73, 52
1, 854403, Note_off_c, 0, 59, 42
1, 854449, Note_off_c, 0, 71, 58
1, 854450, Note_off_c, 0, 61, 60
1, 854456, Note_off_c, 0, 73, 59
1, 854467, Note_on_c, 0, 74, 55
1, 854470, Note_off_c, 0, 76, 0
1, 854473, Note_on_c, 0, 62, 53
1, 854506, Poly_aftertouch_c, 0, 76, 127
1, 854520, Note_off_c, 0, 62, 51
1, 854566, Note_on_c, 0, 61, 54
1, 854572, Note_on_c, 0, 73, 53
1, 854634, Note_off_c, 0, 61, 55
1, 854646, Note_off_c, 0, 73, 60
1, 854649, Note_off_c, 0, 74, 38
1, 854664, Note_on_c, 0, 71, 52
1, 854670, Note_on_c, 0, 59, 44
1, 854777, Note_off_c, 0, 71, 55
1, 854777, Note_on_c, 0, 61, 36
1, 854789, Note_on_c, 0, 73, 49
1, 854801, Note_off_c, 0, 64, 25
1, 854850, Note_off_c, 0, 59, 32
1, 854882, Note_off_c, 0, 61, 51
1, 854885, Note_off_c, 0, 73, 51
1, 854895, Poly_aftertouch_c, 0, 76, 0
1, 854911, Note_on_c, 0, 74, 54
1, 854920, Note_on_c, 0, 62, 34
1, 855030, Control_c, 0, 64, 56
1, 855037, Note_off_c, 0, 68, 46
1, 855045, Control_c, 0, 64, 65
1, 855060, Control_c, 0, 64, 68
1, 855074, Control_c, 0, 64, 71
1, 855080, Note_off_c, 0, 56, 56
1, 855089, Control_c, 0, 64, 72
1, 855104, Control_c, 0, 64, 74
1, 855119, Control_c, 0, 64, 75
1, 855134, Control_c, 0, 64, 76
1, 855148, Control_c, 0, 64, 77
1, 855180, Note_off_c, 0, 74, 57
1, 855210, Note_off_c, 0, 62, 41
1, 855268, Control_c, 0, 64, 77
1, 855290, Control_c, 0, 64, 72
1, 855305, Control_c, 0, 64, 66
1, 855308, Note_on_c, 0, 57, 60
1, 855314, Note_on_c, 0, 69, 60
1, 855318, Note_on_c, 0, 64, 44
1, 855318, Note_on_c, 0, 73, 60
1, 855319, Note_on_c, 0, 76, 62
1, 855320, Control_c, 0, 64, 57
1, 855335, Control_c, 0, 64, 0
1, 855340, Note_off_c, 0, 57, 64
1, 855343, Note_off_c, 0, 64, 58
1, 855351, Note_off_c, 0, 73, 59
1, 855357, Note_off_c, 0, 69, 57
1, 855387, Note_off_c, 0, 76, 54
1, 855512, Note_on_c, 0, 76, 73
1, 855526, Note_on_c, 0, 66, 63
1, 855529, Note_on_c, 0, 50, 66
1, 855540, Note_on_c, 0, 71, 50
1, 855573, Note_off_c, 0, 50, 62
1, 855599, Note_on_c, 0, 74, 73
1, 855609, Note_off_c, 0, 71, 61
1, 855612, Note_off_c, 0, 66, 64
1, 855613, Note_off_c, 0, 76, 63
1, 855630, Note_off_c, 0, 74, 62
1, 855660, Control_c, 0, 67, 126
1, 855675, Control_c, 0, 67, 114
1, 855690, Control_c, 0, 67, 100
1, 855705, Control_c, 0, 67, 85
1, 855711, Note_on_c, 0, 52, 67
1, 855716, Note_on_c, 0, 74, 65
1, 855717, Note_on_c, 0, 64, 62
1, 855719, Note_on_c, 0, 69, 63
1, 855719, Control_c, 0, 67, 68
1, 855734, Control_c, 0, 67, 50
1, 855747, Note_off_c, 0, 52, 67
1, 855749, Control_c, 0, 67, 33
1, 855764, Control_c, 0, 67, 16
1, 855770, Note_off_c, 0, 74, 65
1, 855777, Note_on_c, 0, 73, 70
1, 855779, Control_c, 0, 67, 0
1, 855788, Note_off_c, 0, 69, 62
1, 855809, Note_off_c, 0, 64, 62
1, 855822, Note_off_c, 0, 73, 58
1, 855886, Note_on_c, 0, 52, 66
1, 855892, Note_on_c, 0, 73, 70
1, 855910, Note_on_c, 0, 62, 55
1, 855919, Note_off_c, 0, 52, 66
1, 855955, Note_off_c, 0, 62, 60
1, 855972, Note_on_c, 0, 71, 57
1, 855972, Note_off_c, 0, 73, 62
1, 856050, Note_off_c, 0, 71, 62
1, 856110, Note_on_c, 0, 69, 72
1, 856129, Note_on_c, 0, 61, 57
1, 856139, Note_on_c, 0, 57, 46
1, 856158, Control_c, 0, 64, 32
1, 856173, Control_c, 0, 64, 60
1, 856188, Control_c, 0, 64, 68
1, 856202, Control_c, 0, 64, 76
1, 856217, Control_c, 0, 64, 86
1, 856222, Note_off_c, 0, 61, 62
1, 856232, Control_c, 0, 64, 92
1, 856247, Control_c, 0, 64, 93
1, 856250, Note_off_c, 0, 69, 66
1, 856262, Control_c, 0, 64, 94
1, 856291, Note_off_c, 0, 57, 61
1, 856425, Control_c, 0, 67, 10
1, 856440, Control_c, 0, 64, 91
1, 856440, Control_c, 0, 67, 16
1, 856454, Control_c, 0, 64, 83
1, 856454, Control_c, 0, 67, 20
1, 856469, Control_c, 0, 64, 72
1, 856469, Control_c, 0, 67, 23
1, 856484, Control_c, 0, 64, 60
1, 856484, Control_c, 0, 67, 24
1, 856499, Control_c, 0, 64, 0
1, 856527, Note_on_c, 0, 61, 60
1, 856527, Note_on_c, 0, 76, 76
1, 856528, Control_c, 0, 67, 23
1, 856543, Control_c, 0, 67, 21
1, 856557, Note_off_c, 0, 76, 63
1, 856558, Control_c, 0, 67, 20
1, 856559, Note_off_c, 0, 61, 63
1, 856573, Control_c, 0, 67, 20
1, 856602, Control_c, 0, 67, 19
1, 856617, Control_c, 0, 67, 18
1, 856623, Note_on_c, 0, 61, 60
1, 856626, Note_on_c, 0, 76, 72
1, 856632, Control_c, 0, 67, 17
1, 856647, Control_c, 0, 67, 15
1, 856657, Note_off_c, 0, 61, 60
1, 856661, Control_c, 0, 67, 14
1, 856681, Note_off_c, 0, 76, 59
1, 856706, Control_c, 0, 67, 15
1, 856721, Control_c, 0, 67, 17
1, 856727, Note_on_c, 0, 64, 80
1, 856736, Control_c, 0, 67, 19
1, 856739, Note_on_c, 0, 49, 62
1, 856751, Control_c, 0, 67, 21
1, 856766, Control_c, 0, 67, 23
1, 856788, Control_c, 0, 67, 26
1, 856802, Control_c, 0, 64, 63
1, 856802, Control_c, 0, 67, 30
1, 856817, Control_c, 0, 64, 69
1, 856817, Control_c, 0, 67, 36
1, 856832, Control_c, 0, 64, 74
1, 856832, Control_c, 0, 67, 42
1, 856847, Control_c, 0, 64, 77
1, 856847, Control_c, 0, 67, 47
1, 856863, Control_c, 0, 64, 80
1, 856863, Control_c, 0, 67, 49
1, 856877, Control_c, 0, 64, 83
1, 856877, Control_c, 0, 67, 51
1, 856892, Control_c, 0, 64, 86
1, 856907, Control_c, 0, 64, 87
1, 856922, Control_c, 0, 64, 88
1, 856922, Control_c, 0, 67, 50
1, 856935, Note_off_c, 0, 49, 60
1, 856937, Control_c, 0, 67, 49
1, 856945, Note_off_c, 0, 64, 61
1, 856951, Control_c, 0, 67, 47
1, 856966, Control_c, 0, 67, 46
1, 856981, Control_c, 0, 67, 45
1, 857011, Control_c, 0, 67, 44
1, 857025, Control_c, 0, 67, 44
1, 857100, Control_c, 0, 64, 87
1, 857115, Control_c, 0, 64, 82
1, 857129, Control_c, 0, 64, 72
1, 857141, Note_on_c, 0, 61, 71
1, 857144, Control_c, 0, 64, 61
1, 857147, Note_on_c, 0, 76, 78
1, 857159, Control_c, 0, 64, 0
1, 857171, Note_off_c, 0, 61, 63
1, 857174, Note_off_c, 0, 76, 66
1, 857204, Control_c, 0, 67, 43
1, 857234, Note_on_c, 0, 61, 57
1, 857240, Note_on_c, 0, 76, 75
1, 857269, Note_off_c, 0, 61, 61
1, 857277, Note_off_c, 0, 76, 60
1, 857322, Control_c, 0, 67, 44
1, 857337, Control_c, 0, 67, 45
1, 857343, Note_on_c, 0, 66, 85
1, 857346, Note_on_c, 0, 50, 69
1, 857351, Control_c, 0, 67, 47
1, 857366, Control_c, 0, 67, 50
1, 857381, Control_c, 0, 67, 55
1, 857396, Control_c, 0, 64, 61
1, 857396, Control_c, 0, 67, 63
1, 857411, Control_c, 0, 64, 68
1, 857411, Control_c, 0, 67, 75
1, 857425, Control_c, 0, 64, 72
1, 857425, Control_c, 0, 67, 89
1, 857440, Control_c, 0, 64, 77
1, 857440, Control_c, 0, 67, 101
1, 857455, Control_c, 0, 64, 81
1, 857455, Control_c, 0, 67, 110
1, 857469, Control_c, 0, 64, 87
1, 857469, Control_c, 0, 67, 115
1, 857484, Control_c, 0, 64, 91
1, 857484, Control_c, 0, 67, 117
1, 857496, Note_off_c, 0, 50, 61
1, 857499, Control_c, 0, 64, 92
1, 857514, Control_c, 0, 67, 116
1, 857537, Control_c, 0, 67, 115
1, 857551, Control_c, 0, 67, 113
1, 857566, Control_c, 0, 67, 112
1, 857567, Note_off_c, 0, 66, 61
1, 857581, Control_c, 0, 67, 111
1, 857596, Control_c, 0, 67, 110
1, 857610, Control_c, 0, 67, 110
1, 857625, Control_c, 0, 67, 109
1, 857640, Control_c, 0, 67, 109
1, 857686, Control_c, 0, 67, 108
1, 857700, Control_c, 0, 64, 92
1, 857730, Control_c, 0, 64, 90
1, 857733, Note_on_c, 0, 76, 78
1, 857736, Note_on_c, 0, 61, 70
1, 857745, Control_c, 0, 64, 87
1, 857760, Control_c, 0, 64, 79
1, 857760, Control_c, 0, 67, 108
1, 857761, Note_off_c, 0, 61, 67
1, 857774, Control_c, 0, 64, 69
1, 857776, Note_off_c, 0, 76, 62
1, 857789, Control_c, 0, 64, 59
1, 857804, Control_c, 0, 64, 0
1, 857809, Note_on_c, 0, 61, 68
1, 857833, Note_on_c, 0, 76, 68
1, 857834, Control_c, 0, 67, 109
1, 857836, Note_off_c, 0, 61, 64
1, 857848, Control_c, 0, 67, 110
1, 857863, Control_c, 0, 67, 111
1, 857878, Control_c, 0, 67, 112
1, 857893, Control_c, 0, 67, 112
1, 857902, Note_off_c, 0, 76, 58
1, 857907, Control_c, 0, 67, 113
1, 857911, Note_on_c, 0, 52, 71
1, 857922, Note_on_c, 0, 68, 73
1, 857976, Note_off_c, 0, 52, 65
1, 857998, Note_off_c, 0, 68, 57
1, 858012, Control_c, 0, 67, 112
1, 858015, Note_on_c, 0, 76, 70
1, 858020, Note_on_c, 0, 62, 62
1, 858026, Control_c, 0, 67, 111
1, 858041, Control_c, 0, 67, 110
1, 858056, Control_c, 0, 67, 109
1, 858071, Control_c, 0, 67, 107
1, 858086, Control_c, 0, 67, 106
1, 858094, Note_on_c, 0, 69, 71
1, 858095, Note_off_c, 0, 76, 58
1, 858097, Note_off_c, 0, 62, 46
1, 858101, Control_c, 0, 67, 105
1, 858109, Note_on_c, 0, 54, 62
1, 858116, Control_c, 0, 67, 102
1, 858131, Control_c, 0, 67, 99
1, 858146, Control_c, 0, 67, 95
1, 858161, Control_c, 0, 67, 89
1, 858173, Note_off_c, 0, 54, 62
1, 858175, Control_c, 0, 67, 80
1, 858188, Note_on_c, 0, 76, 71
1, 858188, Note_on_c, 0, 62, 76
1, 858190, Control_c, 0, 67, 66
1, 858205, Control_c, 0, 67, 53
1, 858214, Note_off_c, 0, 69, 59
1, 858219, Control_c, 0, 67, 41
1, 858234, Control_c, 0, 67, 29
1, 858249, Control_c, 0, 67, 19
1, 858253, Note_off_c, 0, 62, 60
1, 858264, Control_c, 0, 67, 12
1, 858286, Control_c, 0, 67, 0
1, 858294, Note_on_c, 0, 71, 76
1, 858296, Note_on_c, 0, 56, 69
1, 858298, Note_off_c, 0, 76, 63
1, 858354, Note_off_c, 0, 56, 62
1, 858373, Note_on_c, 0, 62, 73
1, 858375, Control_c, 0, 64, 10
1, 858377, Note_off_c, 0, 71, 62
1, 858385, Note_on_c, 0, 76, 77
1, 858390, Control_c, 0, 64, 23
1, 858405, Control_c, 0, 64, 31
1, 858420, Control_c, 0, 64, 36
1, 858434, Control_c, 0, 64, 42
1, 858450, Control_c, 0, 64, 45
1, 858450, Note_off_c, 0, 76, 63
1, 858453, Note_off_c, 0, 62, 50
1, 858465, Control_c, 0, 64, 48
1, 858480, Control_c, 0, 64, 48
1, 858490, Note_on_c, 0, 57, 72
1, 858492, Note_on_c, 0, 73, 86
1, 858495, Control_c, 0, 64, 43
1, 858510, Control_c, 0, 64, 23
1, 858524, Control_c, 0, 64, 0
1, 858575, Note_on_c, 0, 61, 72
1, 858579, Note_on_c, 0, 76, 78
1, 858590, Note_off_c, 0, 57, 59
1, 858605, Note_off_c, 0, 73, 60
1, 858628, Control_c, 0, 64, 51
1, 858643, Control_c, 0, 64, 61
1, 858657, Control_c, 0, 64, 62
1, 858662, Note_on_c, 0, 71, 81
1, 858663, Note_off_c, 0, 76, 60
1, 858667, Note_off_c, 0, 61, 63
1, 858672, Control_c, 0, 64, 60
1, 858674, Note_on_c, 0, 56, 69
1, 858687, Control_c, 0, 64, 53
1, 858702, Control_c, 0, 64, 14
1, 858717, Control_c, 0, 64, 0
1, 858731, Note_off_c, 0, 56, 63
1, 858744, Note_on_c, 0, 77, 79
1, 858744, Note_off_c, 0, 71, 60
1, 858761, Note_on_c, 0, 61, 73
1, 858814, Note_off_c, 0, 77, 61
1, 858814, Note_off_c, 0, 61, 60
1, 858820, Control_c, 0, 64, 47
1, 858834, Control_c, 0, 64, 59
1, 858838, Note_on_c, 0, 69, 83
1, 858843, Note_on_c, 0, 54, 81
1, 858849, Control_c, 0, 64, 63
1, 858864, Control_c, 0, 64, 64
1, 858879, Control_c, 0, 64, 65
1, 858894, Control_c, 0, 64, 66
1, 858909, Control_c, 0, 64, 69
1, 858918, Note_off_c, 0, 54, 62
1, 858923, Note_on_c, 0, 61, 73
1, 858923, Control_c, 0, 64, 72
1, 858926, Note_on_c, 0, 78, 77
1, 858938, Control_c, 0, 64, 76
1, 858949, Note_off_c, 0, 69, 63
1, 858953, Control_c, 0, 64, 79
1, 858964, Note_off_c, 0, 61, 61
1, 858968, Control_c, 0, 64, 81
1, 858976, Note_off_c, 0, 78, 63
1, 858983, Control_c, 0, 64, 82
1, 858997, Control_c, 0, 64, 81
1, 859012, Control_c, 0, 64, 76
1, 859033, Note_on_c, 0, 50, 81
1, 859034, Control_c, 0, 64, 65
1, 859044, Note_on_c, 0, 78, 85
1, 859049, Control_c, 0, 64, 0
1, 859102, Note_off_c, 0, 50, 62
1, 859115, Note_on_c, 0, 59, 75
1, 859125, Note_on_c, 0, 83, 78
1, 859138, Control_c, 0, 64, 34
1, 859153, Note_off_c, 0, 78, 64
1, 859153, Control_c, 0, 64, 56
1, 859174, Note_off_c, 0, 83, 61
1, 859183, Control_c, 0, 64, 38
1, 859186, Note_off_c, 0, 59, 57
1, 859197, Control_c, 0, 64, 0
1, 859219, Note_on_c, 0, 52, 85
1, 859229, Note_on_c, 0, 80, 92
1, 859292, Note_off_c, 0, 52, 66
1, 859318, Note_on_c, 0, 61, 74
1, 859320, Note_on_c, 0, 85, 81
1, 859324, Note_off_c, 0, 80, 63
1, 859388, Note_off_c, 0, 61, 59
1, 859399, Note_on_c, 0, 52, 82
1, 859409, Note_on_c, 0, 80, 94
1, 859413, Note_off_c, 0, 85, 59
1, 859467, Note_off_c, 0, 52, 60
1, 859469, Note_on_c, 0, 62, 71
1, 859485, Note_off_c, 0, 80, 65
1, 859494, Note_off_c, 0, 62, 65
1, 859496, Note_on_c, 0, 88, 87
1, 859589, Note_on_c, 0, 57, 70
1, 859595, Note_on_c, 0, 81, 97
1, 859595, Note_on_c, 0, 61, 59
1, 859613, Control_c, 0, 64, 49
1, 859615, Note_off_c, 0, 61, 62
1, 859622, Note_off_c, 0, 57, 63
1, 859627, Control_c, 0, 64, 68
1, 859636, Note_off_c, 0, 88, 60
1, 859642, Control_c, 0, 64, 73
1, 859672, Control_c, 0, 64, 73
1, 859687, Control_c, 0, 64, 74
1, 859702, Control_c, 0, 64, 76
1, 859717, Control_c, 0, 64, 77
1, 859732, Control_c, 0, 64, 79
1, 859735, Note_off_c, 0, 81, 64
1, 859746, Control_c, 0, 64, 81
1, 859761, Control_c, 0, 64, 82
1, 859797, Control_c, 0, 64, 82
1, 859822, Note_on_c, 0, 45, 88
1, 859832, Note_on_c, 0, 33, 75
1, 859856, Note_on_c, 0, 31, 46
1, 859857, Note_off_c, 0, 31, 127
1, 860003, Note_on_c, 0, 70, 95
1, 860005, Control_c, 0, 64, 78
1, 860015, Note_on_c, 0, 68, 79
1, 860015, Note_on_c, 0, 76, 78
1, 860020, Control_c, 0, 64, 67
1, 860035, Control_c, 0, 64, 28
1, 860036, Note_off_c, 0, 68, 69
1, 860042, Note_on_c, 0, 71, 50
1, 860043, Note_off_c, 0, 70, 44
1, 860045, Note_off_c, 0, 76, 61
1, 860051, Control_c, 0, 64, 0
1, 860069, Note_off_c, 0, 71, 58
1, 860098, Note_on_c, 0, 68, 77
1, 860104, Note_on_c, 0, 76, 63
1, 860117, Note_on_c, 0, 71, 47
1, 860130, Note_off_c, 0, 68, 63
1, 860140, Note_off_c, 0, 71, 61
1, 860142, Note_off_c, 0, 76, 65
1, 860194, Note_on_c, 0, 76, 86
1, 860197, Note_on_c, 0, 73, 90
1, 860200, Note_on_c, 0, 69, 96
1, 860211, Note_off_c, 0, 33, 65
1, 860216, Note_off_c, 0, 45, 60
1, 860380, Note_off_c, 0, 69, 64
1, 860385, Note_on_c, 0, 45, 82
1, 860388, Note_on_c, 0, 33, 82
1, 860403, Note_off_c, 0, 73, 63
1, 860409, Note_off_c, 0, 76, 63
1, 860432, Note_on_c, 0, 43, 12
1, 860433, Note_off_c, 0, 43, 127
1, 860584, Note_on_c, 0, 76, 78
1, 860586, Note_on_c, 0, 68, 88
1, 860591, Note_on_c, 0, 71, 76
1, 860591, Note_on_c, 0, 74, 64
1, 860608, Note_off_c, 0, 68, 68
1, 860614, Note_off_c, 0, 71, 68
1, 860616, Note_off_c, 0, 76, 64
1, 860617, Note_off_c, 0, 74, 69
1, 860669, Note_on_c, 0, 71, 77
1, 860677, Note_on_c, 0, 68, 69
1, 860680, Note_on_c, 0, 76, 60
1, 860699, Note_off_c, 0, 68, 68
1, 860704, Note_off_c, 0, 71, 62
1, 860709, Note_off_c, 0, 76, 66
1, 860768, Note_on_c, 0, 76, 97
1, 860771, Note_on_c, 0, 69, 90
1, 860772, Note_on_c, 0, 73, 95
1, 860788, Note_off_c, 0, 33, 63
1, 860805, Note_off_c, 0, 45, 61
1, 860813, Control_c, 0, 64, 29
1, 860827, Control_c, 0, 64, 62
1, 860843, Control_c, 0, 64, 64
1, 860858, Control_c, 0, 64, 65
1, 860873, Control_c, 0, 64, 66
1, 860888, Control_c, 0, 64, 67
1, 860903, Control_c, 0, 64, 67
1, 860917, Control_c, 0, 64, 68
1, 860947, Control_c, 0, 64, 67
1, 860948, Note_off_c, 0, 76, 66
1, 860951, Note_off_c, 0, 69, 58
1, 860962, Control_c, 0, 64, 67
1, 860970, Note_off_c, 0, 73, 62
1, 860972, Note_on_c, 0, 45, 88
1, 860976, Note_on_c, 0, 33, 81
1, 860977, Control_c, 0, 64, 65
1, 860991, Control_c, 0, 64, 61
1, 861006, Control_c, 0, 64, 36
1, 861021, Control_c, 0, 64, 0
1, 861152, Note_on_c, 0, 80, 95
1, 861154, Note_on_c, 0, 71, 86
1, 861169, Note_on_c, 0, 74, 64
1, 861170, Note_on_c, 0, 76, 61
1, 861191, Note_off_c, 0, 71, 61
1, 861191, Note_off_c, 0, 76, 67
1, 861193, Note_off_c, 0, 74, 67
1, 861195, Note_off_c, 0, 80, 63
1, 861231, Note_on_c, 0, 80, 80
1, 861236, Note_on_c, 0, 71, 74
1, 861276, Note_on_c, 0, 74, 30
1, 861291, Note_off_c, 0, 80, 64
1, 861294, Note_off_c, 0, 71, 63
1, 861310, Note_off_c, 0, 74, 54
1, 861341, Note_on_c, 0, 81, 92
1, 861342, Note_off_c, 0, 33, 58
1, 861347, Note_on_c, 0, 76, 80
1, 861347, Note_on_c, 0, 73, 90
1, 861357, Note_off_c, 0, 45, 58
1, 861398, Control_c, 0, 64, 66
1, 861413, Control_c, 0, 64, 74
1, 861428, Control_c, 0, 64, 75
1, 861473, Control_c, 0, 64, 76
1, 861487, Control_c, 0, 64, 77
1, 861502, Control_c, 0, 64, 77
1, 861535, Note_off_c, 0, 73, 63
1, 861542, Note_off_c, 0, 81, 56
1, 861549, Note_off_c, 0, 76, 65
1, 861573, Note_on_c, 0, 45, 92
1, 861575, Note_on_c, 0, 33, 84
1, 861591, Control_c, 0, 64, 74
1, 861606, Control_c, 0, 64, 67
1, 861621, Control_c, 0, 64, 51
1, 861637, Control_c, 0, 64, 0
1, 861732, Note_on_c, 0, 76, 87
1, 861736, Note_on_c, 0, 80, 80
1, 861740, Note_on_c, 0, 83, 72
1, 861759, Note_off_c, 0, 80, 67
1, 861762, Note_off_c, 0, 76, 65
1, 861771, Note_off_c, 0, 83, 62
1, 861810, Note_on_c, 0, 83, 75
1, 861824, Note_on_c, 0, 76, 75
1, 861848, Note_off_c, 0, 76, 66
1, 861863, Note_on_c, 0, 81, 19
1, 861866, Note_off_c, 0, 83, 63
1, 861905, Note_off_c, 0, 81, 38
1, 861924, Note_on_c, 0, 76, 97
1, 861926, Note_on_c, 0, 85, 94
1, 861928, Note_on_c, 0, 81, 71
1, 861962, Control_c, 0, 64, 64
1, 861977, Control_c, 0, 64, 88
1, 861991, Control_c, 0, 64, 127
1, 862020, Poly_aftertouch_c, 0, 84, 127
1, 862021, Note_off_c, 0, 33, 61
1, 862039, Note_off_c, 0, 45, 59
1, 862088, Note_off_c, 0, 76, 61
1, 862113, Note_off_c, 0, 81, 63
1, 862127, Poly_aftertouch_c, 0, 84, 0
1, 862134, Note_off_c, 0, 85, 62
1, 862144, Note_on_c, 0, 45, 93
1, 862149, Note_on_c, 0, 33, 87
1, 862162, Control_c, 0, 64, 112
1, 862177, Control_c, 0, 64, 98
1, 862191, Control_c, 0, 64, 88
1, 862206, Control_c, 0, 64, 81
1, 862221, Control_c, 0, 64, 74
1, 862236, Control_c, 0, 64, 65
1, 862251, Control_c, 0, 64, 37
1, 862266, Control_c, 0, 64, 0
1, 862329, Note_on_c, 0, 80, 83
1, 862329, Note_on_c, 0, 83, 87
1, 862331, Note_on_c, 0, 88, 85
1, 862355, Note_off_c, 0, 83, 64
1, 862357, Note_off_c, 0, 80, 64
1, 862361, Note_off_c, 0, 88, 61
1, 862406, Note_on_c, 0, 80, 77
1, 862415, Note_on_c, 0, 83, 68
1, 862421, Note_on_c, 0, 88, 66
1, 862435, Note_off_c, 0, 83, 65
1, 862443, Note_off_c, 0, 80, 62
1, 862444, Control_c, 0, 64, 33
1, 862449, Note_off_c, 0, 88, 68
1, 862459, Control_c, 0, 64, 45
1, 862474, Control_c, 0, 64, 41
1, 862489, Control_c, 0, 64, 0
1, 862498, Note_on_c, 0, 88, 97
1, 862500, Note_on_c, 0, 81, 100
1, 862503, Note_on_c, 0, 85, 95
1, 862506, Note_off_c, 0, 33, 58
1, 862526, Note_off_c, 0, 45, 62
1, 862549, Poly_aftertouch_c, 0, 41, 0
1, 862555, Note_off_c, 0, 81, 55
1, 862559, Note_off_c, 0, 85, 64
1, 862559, Note_off_c, 0, 88, 61
1, 862581, Poly_aftertouch_c, 0, 38, 0
1, 862752, Note_on_c, 0, 81, 95
1, 862755, Note_on_c, 0, 88, 94
1, 862768, Note_on_c, 0, 85, 88
1, 862769, Note_on_c, 0, 49, 95
1, 862770, Note_on_c, 0, 37, 94
1, 862799, Note_off_c, 0, 37, 67
1, 862803, Note_off_c, 0, 81, 61
1, 862808, Note_off_c, 0, 49, 61
1, 862812, Note_off_c, 0, 88, 63
1, 862814, Note_off_c, 0, 85, 63
1, 863026, Note_on_c, 0, 86, 90
1, 863026, Note_on_c, 0, 92, 107
1, 863027, Note_on_c, 0, 83, 86
1, 863032, Note_on_c, 0, 52, 97
1, 863032, Note_on_c, 0, 40, 93
1, 863041, Note_on_c, 0, 88, 71
1, 863068, Note_off_c, 0, 40, 66
1, 863068, Note_off_c, 0, 52, 67
1, 863103, Note_off_c, 0, 86, 58
1, 863112, Note_off_c, 0, 83, 58
1, 863114, Note_off_c, 0, 88, 57
1, 863136, Note_off_c, 0, 92, 64
1, 863389, Note_on_c, 0, 93, 101
1, 863389, Note_on_c, 0, 81, 98
1, 863392, Note_on_c, 0, 33, 92
1, 863392, Note_on_c, 0, 45, 92
1, 863395, Note_on_c, 0, 85, 93
1, 863396, Note_on_c, 0, 88, 87
1, 863445, Control_c, 0, 64, 12
1, 863460, Control_c, 0, 64, 60
1, 863475, Control_c, 0, 64, 64
1, 863490, Control_c, 0, 64, 65
1, 863505, Control_c, 0, 64, 66
1, 863526, Control_c, 0, 64, 67
1, 863541, Control_c, 0, 64, 68
1, 863556, Control_c, 0, 64, 70
1, 863576, Note_off_c, 0, 93, 58
1, 863580, Note_off_c, 0, 81, 57
1, 863597, Note_off_c, 0, 45, 61
1, 863598, Note_off_c, 0, 33, 64
1, 863614, Note_off_c, 0, 88, 62
1, 863616, Control_c, 0, 64, 69
1, 863618, Note_off_c, 0, 85, 63
1, 863631, Control_c, 0, 64, 67
1, 863645, Control_c, 0, 64, 63
1, 863660, Control_c, 0, 64, 40
1, 863675, Control_c, 0, 64, 0
1, 865572, Control_c, 0, 67, 9
1, 865587, Control_c, 0, 67, 24
1, 865602, Control_c, 0, 67, 40
1, 865616, Control_c, 0, 67, 57
1, 865632, Control_c, 0, 67, 74
1, 865647, Control_c, 0, 64, 36
1, 865647, Control_c, 0, 67, 92
1, 865662, Control_c, 0, 64, 51
1, 865662, Control_c, 0, 67, 111
1, 865677, Control_c, 0, 64, 56
1, 865677, Control_c, 0, 67, 125
1, 865692, Control_c, 0, 64, 57
1, 865692, Control_c, 0, 67, 127
1, 865706, Control_c, 0, 64, 58
1, 865721, Control_c, 0, 64, 59
1, 865736, Control_c, 0, 64, 60
1, 865751, Control_c, 0, 64, 61
1, 865774, Control_c, 0, 64, 61
1, 865798, Note_on_c, 0, 76, 60
1, 865867, Note_off_c, 0, 76, 63
1, 865892, Note_on_c, 0, 77, 64
1, 865921, Control_c, 0, 64, 61
1, 865951, Control_c, 0, 64, 60
1, 865966, Control_c, 0, 64, 59
1, 865981, Control_c, 0, 64, 56
1, 865993, Note_on_c, 0, 76, 58
1, 865994, Note_on_c, 0, 60, 55
1, 865995, Control_c, 0, 64, 52
1, 866010, Control_c, 0, 64, 46
1, 866020, Note_off_c, 0, 77, 34
1, 866025, Control_c, 0, 64, 37
1, 866039, Control_c, 0, 64, 26
1, 866054, Control_c, 0, 64, 12
1, 866063, Note_off_c, 0, 76, 62
1, 866069, Control_c, 0, 64, 0
1, 866096, Note_on_c, 0, 64, 51
1, 866162, Note_off_c, 0, 64, 57
1, 866179, Note_on_c, 0, 74, 56
1, 866193, Note_on_c, 0, 59, 41
1, 866216, Note_off_c, 0, 60, 38
1, 866245, Note_off_c, 0, 74, 62
1, 866292, Note_on_c, 0, 64, 40
1, 866333, Note_off_c, 0, 64, 57
1, 866355, Note_on_c, 0, 57, 46
1, 866361, Note_off_c, 0, 59, 37
1, 866365, Note_on_c, 0, 72, 62
1, 866415, Note_off_c, 0, 72, 53
1, 866442, Note_on_c, 0, 64, 50
1, 866519, Note_off_c, 0, 64, 58
1, 866525, Note_off_c, 0, 57, 60
1, 866546, Note_on_c, 0, 62, 50
1, 866546, Note_on_c, 0, 71, 58
1, 866600, Note_off_c, 0, 71, 60
1, 866649, Note_on_c, 0, 64, 47
1, 866731, Note_on_c, 0, 71, 58
1, 866733, Note_off_c, 0, 64, 56
1, 866734, Note_on_c, 0, 60, 56
1, 866741, Note_off_c, 0, 62, 55
1, 866815, Note_on_c, 0, 69, 62
1, 866826, Note_off_c, 0, 71, 57
1, 866873, Note_off_c, 0, 69, 62
1, 866906, Note_on_c, 0, 57, 46
1, 866906, Note_on_c, 0, 64, 57
1, 867002, Note_on_c, 0, 69, 57
1, 867042, Note_off_c, 0, 64, 38
1, 867073, Note_off_c, 0, 60, 40
1, 867087, Note_on_c, 0, 56, 51
1, 867105, Note_off_c, 0, 57, 38
1, 867106, Note_on_c, 0, 72, 57
1, 867116, Note_off_c, 0, 69, 57
1, 867191, Note_on_c, 0, 71, 60
1, 867234, Note_off_c, 0, 72, 54
1, 867264, Note_off_c, 0, 71, 61
1, 867274, Note_on_c, 0, 52, 54
1, 867288, Note_on_c, 0, 64, 59
1, 867291, Note_off_c, 0, 56, 55
1, 867381, Note_on_c, 0, 71, 55
1, 867412, Note_off_c, 0, 64, 55
1, 867461, Note_on_c, 0, 60, 66
1, 867480, Note_on_c, 0, 68, 64
1, 867497, Note_off_c, 0, 71, 61
1, 867504, Note_off_c, 0, 52, 36
1, 867568, Note_on_c, 0, 69, 65
1, 867597, Note_off_c, 0, 68, 54
1, 867622, Note_off_c, 0, 69, 63
1, 867658, Note_on_c, 0, 57, 58
1, 867661, Note_on_c, 0, 64, 63
1, 867725, Note_off_c, 0, 60, 53
1, 867762, Note_on_c, 0, 69, 63
1, 867767, Note_off_c, 0, 64, 62
1, 867837, Note_on_c, 0, 56, 58
1, 867850, Note_off_c, 0, 69, 61
1, 867858, Note_on_c, 0, 72, 65
1, 867865, Note_off_c, 0, 57, 51
1, 867942, Note_on_c, 0, 71, 62
1, 867953, Note_off_c, 0, 72, 53
1, 867993, Note_off_c, 0, 71, 49
1, 868028, Note_on_c, 0, 64, 65
1, 868031, Note_on_c, 0, 52, 65
1, 868075, Note_off_c, 0, 56, 58
1, 868095, Note_off_c, 0, 64, 60
1, 868095, Control_c, 0, 64, 12
1, 868109, Control_c, 0, 64, 21
1, 868122, Note_on_c, 0, 71, 62
1, 868124, Control_c, 0, 64, 22
1, 868154, Control_c, 0, 64, 23
1, 868183, Note_off_c, 0, 71, 57
1, 868184, Control_c, 0, 64, 23
1, 868198, Control_c, 0, 64, 25
1, 868213, Control_c, 0, 64, 27
1, 868223, Note_on_c, 0, 67, 78
1, 868228, Control_c, 0, 64, 31
1, 868232, Note_on_c, 0, 74, 44
1, 868242, Control_c, 0, 64, 34
1, 868257, Control_c, 0, 64, 39
1, 868272, Control_c, 0, 64, 44
1, 868287, Control_c, 0, 64, 47
1, 868302, Control_c, 0, 64, 48
1, 868317, Control_c, 0, 64, 49
1, 868323, Note_on_c, 0, 72, 60
1, 868332, Control_c, 0, 64, 49
1, 868347, Control_c, 0, 64, 50
1, 868361, Control_c, 0, 64, 50
1, 868376, Control_c, 0, 64, 51
1, 868380, Note_off_c, 0, 74, 27
1, 868386, Note_off_c, 0, 72, 64
1, 868391, Control_c, 0, 64, 51
1, 868394, Note_on_c, 0, 71, 68
1, 868422, Note_on_c, 0, 50, 46
1, 868450, Control_c, 0, 64, 51
1, 868460, Note_off_c, 0, 67, 44
1, 868465, Control_c, 0, 64, 50
1, 868469, Note_off_c, 0, 50, 61
1, 868480, Control_c, 0, 64, 49
1, 868492, Note_on_c, 0, 48, 54
1, 868495, Control_c, 0, 64, 47
1, 868502, Note_on_c, 0, 72, 57
1, 868509, Control_c, 0, 64, 45
1, 868524, Control_c, 0, 64, 41
1, 868539, Control_c, 0, 64, 34
1, 868552, Note_off_c, 0, 71, 54
1, 868553, Control_c, 0, 64, 15
1, 868563, Note_off_c, 0, 72, 61
1, 868564, Note_on_c, 0, 74, 64
1, 868568, Control_c, 0, 64, 0
1, 868593, Note_off_c, 0, 48, 58
1, 868621, Note_on_c, 0, 47, 42
1, 868644, Note_off_c, 0, 74, 62
1, 868669, Note_on_c, 0, 67, 59
1, 868749, Note_off_c, 0, 47, 50
1, 868749, Note_off_c, 0, 67, 56
1, 868767, Note_on_c, 0, 43, 48
1, 868772, Note_on_c, 0, 75, 67
1, 868847, Note_off_c, 0, 75, 61
1, 868865, Note_on_c, 0, 67, 63
1, 868893, Note_off_c, 0, 52, 41
1, 868935, Note_off_c, 0, 67, 60
1, 868943, Note_on_c, 0, 48, 52
1, 868946, Note_on_c, 0, 76, 66
1, 869006, Note_off_c, 0, 76, 62
1, 869042, Note_on_c, 0, 67, 67
1, 869050, Note_off_c, 0, 43, 39
1, 869112, Note_off_c, 0, 67, 56
1, 869134, Note_on_c, 0, 50, 55
1, 869142, Note_on_c, 0, 77, 50
1, 869168, Note_off_c, 0, 48, 60
1, 869199, Note_off_c, 0, 77, 55
1, 869214, Note_on_c, 0, 67, 67
1, 869286, Note_off_c, 0, 50, 63
1, 869303, Note_off_c, 0, 67, 55
1, 869303, Note_on_c, 0, 52, 66
1, 869306, Note_on_c, 0, 79, 63
1, 869388, Note_off_c, 0, 79, 54
1, 869396, Note_on_c, 0, 67, 61
1, 869458, Note_off_c, 0, 67, 56
1, 869480, Note_on_c, 0, 53, 58
1, 869481, Note_off_c, 0, 52, 60
1, 869487, Note_on_c, 0, 81, 63
1, 869572, Note_off_c, 0, 81, 56
1, 869602, Note_on_c, 0, 71, 58
1, 869663, Note_off_c, 0, 53, 61
1, 869665, Note_on_c, 0, 52, 56
1, 869680, Note_on_c, 0, 79, 66
1, 869694, Note_off_c, 0, 71, 56
1, 869774, Note_on_c, 0, 72, 66
1, 869789, Note_off_c, 0, 79, 57
1, 869846, Note_on_c, 0, 56, 58
1, 869861, Note_off_c, 0, 52, 55
1, 869867, Note_on_c, 0, 77, 58
1, 869875, Note_off_c, 0, 72, 62
1, 869929, Note_off_c, 0, 77, 61
1, 869959, Note_on_c, 0, 71, 53
1, 870022, Note_off_c, 0, 71, 46
1, 870031, Note_on_c, 0, 76, 67
1, 870043, Note_on_c, 0, 57, 63
1, 870072, Note_off_c, 0, 56, 61
1, 870117, Note_on_c, 0, 72, 65
1, 870130, Note_off_c, 0, 76, 60
1, 870184, Note_off_c, 0, 72, 60
1, 870195, Note_off_c, 0, 57, 53
1, 870211, Note_on_c, 0, 74, 61
1, 870222, Note_on_c, 0, 65, 66
1, 870306, Note_on_c, 0, 69, 61
1, 870307, Note_off_c, 0, 74, 62
1, 870373, Note_off_c, 0, 69, 64
1, 870401, Note_on_c, 0, 72, 53
1, 870402, Note_on_c, 0, 64, 73
1, 870431, Note_off_c, 0, 65, 56
1, 870444, Note_off_c, 0, 72, 60
1, 870488, Note_on_c, 0, 69, 68
1, 870503, Control_c, 0, 64, 32
1, 870518, Control_c, 0, 64, 43
1, 870533, Control_c, 0, 64, 49
1, 870548, Control_c, 0, 64, 51
1, 870573, Note_off_c, 0, 69, 60
1, 870574, Note_on_c, 0, 57, 50
1, 870577, Note_on_c, 0, 53, 59
1, 870591, Note_on_c, 0, 74, 58
1, 870592, Control_c, 0, 64, 51
1, 870602, Note_off_c, 0, 64, 61
1, 870607, Control_c, 0, 64, 52
1, 870622, Control_c, 0, 64, 52
1, 870636, Control_c, 0, 64, 53
1, 870638, Note_off_c, 0, 57, 63
1, 870645, Note_off_c, 0, 53, 65
1, 870651, Control_c, 0, 64, 53
1, 870666, Control_c, 0, 64, 54
1, 870681, Control_c, 0, 64, 54
1, 870682, Note_on_c, 0, 69, 61
1, 870685, Note_off_c, 0, 74, 63
1, 870710, Control_c, 0, 64, 55
1, 870725, Control_c, 0, 64, 55
1, 870750, Note_on_c, 0, 76, 15
1, 870755, Control_c, 0, 64, 54
1, 870757, Note_off_c, 0, 69, 58
1, 870770, Control_c, 0, 64, 50
1, 870782, Note_on_c, 0, 57, 50
1, 870784, Note_on_c, 0, 60, 56
1, 870785, Control_c, 0, 64, 39
1, 870787, Note_on_c, 0, 52, 60
1, 870800, Control_c, 0, 64, 0
1, 870814, Note_off_c, 0, 76, 41
1, 870868, Note_off_c, 0, 60, 61
1, 870889, Note_on_c, 0, 64, 44
1, 870959, Note_off_c, 0, 64, 61
1, 870977, Control_c, 0, 64, 14
1, 870985, Note_off_c, 0, 57, 47
1, 870992, Note_off_c, 0, 52, 61
1, 870992, Control_c, 0, 64, 18
1, 871011, Note_on_c, 0, 76, 66
1, 871013, Note_on_c, 0, 56, 46
1, 871014, Control_c, 0, 64, 19
1, 871032, Note_on_c, 0, 59, 47
1, 871044, Control_c, 0, 64, 20
1, 871059, Control_c, 0, 64, 23
1, 871074, Control_c, 0, 64, 24
1, 871075, Note_off_c, 0, 56, 53
1, 871089, Control_c, 0, 64, 26
1, 871103, Control_c, 0, 64, 27
1, 871118, Control_c, 0, 64, 28
1, 871121, Note_on_c, 0, 77, 68
1, 871133, Control_c, 0, 64, 31
1, 871148, Control_c, 0, 64, 32
1, 871161, Note_off_c, 0, 76, 60
1, 871162, Control_c, 0, 64, 33
1, 871177, Control_c, 0, 64, 33
1, 871192, Control_c, 0, 64, 34
1, 871195, Note_off_c, 0, 77, 62
1, 871207, Control_c, 0, 64, 34
1, 871222, Control_c, 0, 64, 35
1, 871252, Control_c, 0, 64, 30
1, 871258, Note_on_c, 0, 60, 51
1, 871263, Note_off_c, 0, 59, 54
1, 871267, Control_c, 0, 64, 0
1, 871279, Note_on_c, 0, 77, 73
1, 871336, Note_off_c, 0, 77, 60
1, 871365, Note_on_c, 0, 76, 72
1, 871393, Note_off_c, 0, 76, 65
1, 871465, Note_on_c, 0, 76, 72
1, 871477, Note_off_c, 0, 60, 49
1, 871482, Note_on_c, 0, 59, 49
1, 871521, Note_off_c, 0, 76, 63
1, 871547, Note_on_c, 0, 74, 71
1, 871572, Note_off_c, 0, 74, 67
1, 871644, Note_on_c, 0, 74, 78
1, 871655, Note_on_c, 0, 57, 47
1, 871688, Note_off_c, 0, 59, 32
1, 871695, Note_off_c, 0, 74, 63
1, 871729, Note_on_c, 0, 72, 64
1, 871759, Note_off_c, 0, 72, 67
1, 871817, Note_on_c, 0, 72, 80
1, 871824, Note_off_c, 0, 57, 61
1, 871846, Note_on_c, 0, 62, 58
1, 871875, Note_off_c, 0, 72, 63
1, 871909, Note_on_c, 0, 71, 71
1, 871933, Note_off_c, 0, 71, 68
1, 872026, Note_on_c, 0, 71, 81
1, 872032, Note_on_c, 0, 60, 63
1, 872040, Note_off_c, 0, 62, 49
1, 872115, Note_on_c, 0, 69, 72
1, 872130, Note_off_c, 0, 71, 49
1, 872174, Note_off_c, 0, 69, 66
1, 872205, Note_on_c, 0, 64, 68
1, 872213, Note_on_c, 0, 57, 40
1, 872285, Note_off_c, 0, 64, 52
1, 872302, Note_on_c, 0, 69, 65
1, 872387, Control_c, 0, 67, 127
1, 872392, Note_off_c, 0, 69, 61
1, 872398, Note_on_c, 0, 72, 65
1, 872399, Note_off_c, 0, 60, 39
1, 872405, Note_on_c, 0, 56, 53
1, 872427, Note_off_c, 0, 57, 37
1, 872446, Control_c, 0, 67, 127
1, 872482, Note_on_c, 0, 71, 62
1, 872522, Note_off_c, 0, 72, 55
1, 872553, Note_off_c, 0, 71, 61
1, 872572, Control_c, 0, 67, 127
1, 872586, Note_on_c, 0, 64, 58
1, 872587, Control_c, 0, 67, 126
1, 872588, Note_on_c, 0, 52, 54
1, 872601, Control_c, 0, 67, 125
1, 872609, Note_off_c, 0, 56, 62
1, 872616, Control_c, 0, 67, 121
1, 872631, Control_c, 0, 67, 115
1, 872646, Control_c, 0, 67, 104
1, 872661, Control_c, 0, 67, 90
1, 872663, Note_on_c, 0, 71, 63
1, 872675, Control_c, 0, 67, 74
1, 872690, Control_c, 0, 67, 59
1, 872705, Control_c, 0, 67, 46
1, 872711, Note_off_c, 0, 64, 37
1, 872720, Control_c, 0, 67, 38
1, 872734, Control_c, 0, 67, 33
1, 872749, Control_c, 0, 67, 32
1, 872764, Control_c, 0, 67, 31
1, 872771, Note_on_c, 0, 68, 64
1, 872779, Note_on_c, 0, 60, 73
1, 872782, Note_off_c, 0, 71, 58
1, 872792, Note_off_c, 0, 52, 55
1, 872857, Note_on_c, 0, 69, 66
1, 872867, Note_off_c, 0, 68, 54
1, 872923, Note_off_c, 0, 69, 63
1, 872949, Note_on_c, 0, 64, 61
1, 872961, Note_on_c, 0, 57, 70
1, 872988, Control_c, 0, 67, 32
1, 873018, Control_c, 0, 67, 33
1, 873039, Note_on_c, 0, 69, 66
1, 873041, Note_off_c, 0, 60, 54
1, 873044, Note_off_c, 0, 64, 62
1, 873045, Control_c, 0, 67, 34
1, 873060, Control_c, 0, 67, 36
1, 873075, Control_c, 0, 67, 37
1, 873090, Control_c, 0, 67, 38
1, 873104, Control_c, 0, 67, 41
1, 873119, Control_c, 0, 67, 45
1, 873134, Note_off_c, 0, 69, 59
1, 873134, Control_c, 0, 67, 56
1, 873143, Note_on_c, 0, 56, 68
1, 873145, Note_on_c, 0, 72, 69
1, 873149, Control_c, 0, 67, 70
1, 873164, Control_c, 0, 67, 86
1, 873179, Control_c, 0, 67, 99
1, 873181, Note_off_c, 0, 57, 61
1, 873193, Control_c, 0, 67, 111
1, 873208, Control_c, 0, 67, 122
1, 873223, Control_c, 0, 67, 127
1, 873225, Note_on_c, 0, 71, 71
1, 873271, Note_off_c, 0, 72, 58
1, 873297, Note_off_c, 0, 71, 59
1, 873331, Note_on_c, 0, 52, 68
1, 873338, Note_on_c, 0, 64, 62
1, 873369, Note_off_c, 0, 56, 51
1, 873417, Note_off_c, 0, 64, 60
1, 873427, Note_on_c, 0, 71, 65
1, 873493, Note_off_c, 0, 71, 61
1, 873527, Control_c, 0, 64, 32
1, 873533, Note_on_c, 0, 67, 82
1, 873542, Control_c, 0, 64, 44
1, 873548, Note_on_c, 0, 74, 57
1, 873556, Control_c, 0, 64, 50
1, 873571, Control_c, 0, 64, 53
1, 873586, Control_c, 0, 64, 55
1, 873601, Control_c, 0, 64, 56
1, 873616, Control_c, 0, 64, 58
1, 873632, Control_c, 0, 64, 59
1, 873638, Note_on_c, 0, 72, 69
1, 873646, Control_c, 0, 64, 60
1, 873661, Control_c, 0, 64, 60
1, 873669, Note_off_c, 0, 74, 58
1, 873709, Note_on_c, 0, 71, 76
1, 873712, Note_off_c, 0, 72, 65
1, 873718, Note_on_c, 0, 50, 46
1, 873806, Note_on_c, 0, 48, 57
1, 873808, Note_off_c, 0, 50, 58
1, 873808, Note_on_c, 0, 72, 67
1, 873809, Control_c, 0, 64, 60
1, 873812, Note_off_c, 0, 67, 40
1, 873824, Control_c, 0, 64, 59
1, 873839, Control_c, 0, 64, 57
1, 873853, Control_c, 0, 64, 55
1, 873868, Control_c, 0, 64, 49
1, 873880, Note_off_c, 0, 48, 60
1, 873882, Note_on_c, 0, 74, 75
1, 873883, Control_c, 0, 64, 32
1, 873891, Note_on_c, 0, 47, 66
1, 873892, Note_off_c, 0, 71, 26
1, 873897, Note_off_c, 0, 72, 56
1, 873898, Control_c, 0, 64, 0
1, 873963, Note_off_c, 0, 74, 62
1, 873972, Control_c, 0, 67, 127
1, 873979, Note_on_c, 0, 67, 66
1, 873986, Control_c, 0, 67, 122
1, 874009, Control_c, 0, 67, 115
1, 874024, Control_c, 0, 67, 106
1, 874039, Control_c, 0, 67, 95
1, 874053, Control_c, 0, 67, 84
1, 874058, Note_off_c, 0, 47, 61
1, 874063, Note_on_c, 0, 43, 62
1, 874068, Control_c, 0, 67, 75
1, 874074, Note_on_c, 0, 75, 64
1, 874075, Note_off_c, 0, 67, 58
1, 874083, Control_c, 0, 67, 68
1, 874097, Control_c, 0, 67, 62
1, 874112, Control_c, 0, 67, 58
1, 874127, Control_c, 0, 67, 56
1, 874142, Control_c, 0, 67, 55
1, 874155, Note_off_c, 0, 75, 61
1, 874157, Control_c, 0, 67, 55
1, 874171, Control_c, 0, 67, 57
1, 874172, Note_on_c, 0, 67, 71
1, 874186, Control_c, 0, 67, 59
1, 874201, Control_c, 0, 67, 61
1, 874216, Control_c, 0, 67, 63
1, 874222, Note_off_c, 0, 52, 33
1, 874231, Control_c, 0, 67, 64
1, 874234, Note_on_c, 0, 48, 66
1, 874243, Note_off_c, 0, 67, 60
1, 874246, Control_c, 0, 67, 67
1, 874250, Note_on_c, 0, 76, 66
1, 874261, Control_c, 0, 67, 72
1, 874276, Control_c, 0, 67, 77
1, 874280, Note_off_c, 0, 43, 58
1, 874290, Control_c, 0, 67, 83
1, 874305, Control_c, 0, 67, 89
1, 874311, Note_off_c, 0, 76, 61
1, 874320, Control_c, 0, 67, 94
1, 874335, Control_c, 0, 67, 98
1, 874345, Note_on_c, 0, 67, 67
1, 874350, Control_c, 0, 67, 103
1, 874365, Control_c, 0, 67, 105
1, 874379, Control_c, 0, 67, 107
1, 874394, Control_c, 0, 67, 108
1, 874401, Note_off_c, 0, 67, 60
1, 874409, Control_c, 0, 67, 108
1, 874413, Note_on_c, 0, 51, 66
1, 874425, Note_off_c, 0, 48, 58
1, 874428, Note_on_c, 0, 78, 70
1, 874454, Control_c, 0, 67, 109
1, 874505, Note_off_c, 0, 78, 56
1, 874521, Note_on_c, 0, 71, 66
1, 874528, Control_c, 0, 67, 108
1, 874559, Control_c, 0, 67, 108
1, 874623, Note_on_c, 0, 52, 69
1, 874624, Note_off_c, 0, 51, 62
1, 874630, Note_on_c, 0, 79, 63
1, 874638, Note_off_c, 0, 71, 58
1, 874648, Control_c, 0, 67, 108
1, 874663, Control_c, 0, 67, 109
1, 874677, Control_c, 0, 67, 110
1, 874692, Control_c, 0, 67, 111
1, 874706, Note_on_c, 0, 78, 76
1, 874707, Control_c, 0, 67, 113
1, 874720, Note_off_c, 0, 79, 61
1, 874721, Control_c, 0, 67, 114
1, 874786, Note_off_c, 0, 78, 62
1, 874788, Control_c, 0, 67, 113
1, 874803, Note_on_c, 0, 71, 73
1, 874803, Control_c, 0, 67, 111
1, 874809, Note_on_c, 0, 51, 70
1, 874818, Control_c, 0, 67, 110
1, 874824, Note_off_c, 0, 52, 57
1, 874833, Control_c, 0, 67, 109
1, 874848, Control_c, 0, 67, 109
1, 874863, Control_c, 0, 67, 107
1, 874877, Control_c, 0, 67, 107
1, 874892, Note_on_c, 0, 78, 73
1, 874892, Control_c, 0, 67, 106
1, 874900, Note_off_c, 0, 71, 58
1, 874907, Control_c, 0, 67, 105
1, 874951, Control_c, 0, 67, 106
1, 874966, Control_c, 0, 67, 107
1, 874973, Note_on_c, 0, 52, 56
1, 874977, Note_on_c, 0, 79, 72
1, 874981, Control_c, 0, 67, 107
1, 874986, Note_off_c, 0, 78, 58
1, 874995, Control_c, 0, 67, 108
1, 875008, Note_off_c, 0, 51, 62
1, 875010, Control_c, 0, 67, 109
1, 875025, Control_c, 0, 67, 109
1, 875040, Control_c, 0, 67, 110
1, 875057, Note_off_c, 0, 79, 57
1, 875068, Note_on_c, 0, 71, 66
1, 875144, Note_off_c, 0, 71, 60
1, 875152, Note_on_c, 0, 54, 58
1, 875161, Note_on_c, 0, 81, 67
1, 875179, Note_off_c, 0, 52, 58
1, 875240, Note_off_c, 0, 81, 52
1, 875262, Note_on_c, 0, 71, 61
1, 875263, Control_c, 0, 64, 33
1, 875278, Control_c, 0, 64, 46
1, 875292, Control_c, 0, 64, 53
1, 875296, Note_off_c, 0, 54, 63
1, 875307, Control_c, 0, 64, 58
1, 875319, Note_on_c, 0, 55, 63
1, 875322, Control_c, 0, 64, 61
1, 875328, Note_off_c, 0, 71, 61
1, 875337, Control_c, 0, 64, 62
1, 875351, Note_on_c, 0, 83, 66
1, 875351, Control_c, 0, 64, 63
1, 875366, Control_c, 0, 67, 109
1, 875381, Control_c, 0, 64, 63
1, 875396, Control_c, 0, 67, 109
1, 875396, Note_off_c, 0, 83, 51
1, 875428, Note_on_c, 0, 71, 49
1, 875455, Control_c, 0, 64, 63
1, 875460, Note_off_c, 0, 71, 58
1, 875470, Control_c, 0, 64, 62
1, 875485, Control_c, 0, 64, 62
1, 875507, Control_c, 0, 64, 61
1, 875522, Control_c, 0, 64, 61
1, 875529, Note_on_c, 0, 60, 70
1, 875536, Control_c, 0, 64, 60
1, 875538, Note_on_c, 0, 88, 74
1, 875544, Note_off_c, 0, 55, 60
1, 875551, Control_c, 0, 64, 58
1, 875566, Control_c, 0, 64, 55
1, 875581, Control_c, 0, 64, 51
1, 875596, Control_c, 0, 64, 45
1, 875611, Control_c, 0, 64, 40
1, 875625, Control_c, 0, 64, 33
1, 875633, Note_on_c, 0, 78, 68
1, 875640, Control_c, 0, 64, 15
1, 875641, Note_off_c, 0, 88, 61
1, 875655, Control_c, 0, 64, 0
1, 875698, Note_on_c, 0, 59, 72
1, 875714, Note_off_c, 0, 78, 54
1, 875714, Control_c, 0, 67, 108
1, 875721, Note_on_c, 0, 86, 74
1, 875729, Control_c, 0, 67, 108
1, 875762, Note_off_c, 0, 60, 46
1, 875801, Note_on_c, 0, 79, 69
1, 875806, Note_off_c, 0, 86, 61
1, 875882, Note_on_c, 0, 63, 80
1, 875893, Note_off_c, 0, 79, 52
1, 875897, Note_on_c, 0, 84, 74
1, 875914, Note_off_c, 0, 59, 46
1, 875966, Control_c, 0, 67, 109
1, 875981, Control_c, 0, 67, 109
1, 875989, Note_off_c, 0, 84, 63
1, 875990, Note_on_c, 0, 78, 71
1, 875996, Control_c, 0, 67, 110
1, 876010, Control_c, 0, 67, 111
1, 876026, Control_c, 0, 67, 112
1, 876040, Control_c, 0, 67, 113
1, 876055, Control_c, 0, 67, 114
1, 876069, Note_on_c, 0, 64, 67
1, 876070, Control_c, 0, 67, 116
1, 876076, Note_off_c, 0, 63, 65
1, 876085, Control_c, 0, 67, 120
1, 876091, Note_on_c, 0, 83, 66
1, 876094, Note_off_c, 0, 78, 60
1, 876100, Control_c, 0, 67, 126
1, 876115, Control_c, 0, 67, 127
1, 876163, Note_on_c, 0, 79, 71
1, 876183, Note_off_c, 0, 83, 61
1, 876238, Note_off_c, 0, 79, 57
1, 876259, Note_on_c, 0, 81, 68
1, 876271, Note_on_c, 0, 53, 63
1, 876301, Note_off_c, 0, 81, 54
1, 876347, Note_on_c, 0, 71, 53
1, 876368, Note_off_c, 0, 64, 47
1, 876443, Note_off_c, 0, 53, 64
1, 876451, Note_on_c, 0, 52, 67
1, 876454, Note_on_c, 0, 79, 53
1, 876464, Note_off_c, 0, 71, 57
1, 876538, Note_on_c, 0, 72, 60
1, 876547, Note_off_c, 0, 79, 58
1, 876621, Note_on_c, 0, 77, 65
1, 876630, Note_on_c, 0, 56, 59
1, 876639, Note_off_c, 0, 72, 60
1, 876653, Note_off_c, 0, 52, 57
1, 876697, Note_off_c, 0, 77, 61
1, 876729, Note_on_c, 0, 71, 56
1, 876806, Note_on_c, 0, 76, 70
1, 876815, Note_on_c, 0, 57, 61
1, 876828, Note_off_c, 0, 71, 57
1, 876839, Note_off_c, 0, 56, 60
1, 876893, Note_off_c, 0, 57, 51
1, 876896, Note_on_c, 0, 72, 70
1, 876911, Note_off_c, 0, 76, 59
1, 876979, Note_off_c, 0, 72, 58
1, 876998, Note_on_c, 0, 65, 64
1, 876998, Note_on_c, 0, 74, 63
1, 877090, Note_on_c, 0, 69, 59
1, 877092, Note_off_c, 0, 74, 62
1, 877155, Note_off_c, 0, 69, 64
1, 877174, Note_on_c, 0, 64, 69
1, 877182, Note_on_c, 0, 72, 57
1, 877212, Note_off_c, 0, 65, 58
1, 877212, Control_c, 0, 64, 38
1, 877227, Control_c, 0, 64, 50
1, 877242, Control_c, 0, 64, 55
1, 877245, Note_off_c, 0, 72, 63
1, 877256, Control_c, 0, 64, 58
1, 877262, Note_on_c, 0, 69, 75
1, 877271, Control_c, 0, 64, 59
1, 877326, Note_on_c, 0, 53, 58
1, 877340, Note_on_c, 0, 57, 53
1, 877340, Note_off_c, 0, 64, 62
1, 877345, Control_c, 0, 64, 59
1, 877355, Note_off_c, 0, 69, 61
1, 877361, Note_on_c, 0, 74, 59
1, 877375, Control_c, 0, 64, 58
1, 877385, Note_off_c, 0, 57, 61
1, 877390, Control_c, 0, 64, 58
1, 877400, Note_off_c, 0, 53, 65
1, 877459, Note_on_c, 0, 69, 64
1, 877463, Control_c, 0, 64, 57
1, 877472, Note_off_c, 0, 74, 63
1, 877478, Control_c, 0, 64, 55
1, 877493, Control_c, 0, 64, 51
1, 877508, Control_c, 0, 64, 36
1, 877522, Control_c, 0, 64, 0
1, 877525, Note_off_c, 0, 69, 61
1, 877525, Note_on_c, 0, 60, 67
1, 877533, Note_on_c, 0, 57, 57
1, 877542, Note_on_c, 0, 52, 59
1, 877615, Note_off_c, 0, 60, 60
1, 877620, Note_on_c, 0, 64, 62
1, 877632, Poly_aftertouch_c, 0, 76, 0
1, 877657, Control_c, 0, 64, 34
1, 877672, Control_c, 0, 64, 38
1, 877686, Control_c, 0, 64, 39
1, 877716, Note_off_c, 0, 64, 58
1, 877731, Control_c, 0, 64, 39
1, 877751, Note_off_c, 0, 57, 34
1, 877753, Control_c, 0, 64, 38
1, 877760, Note_on_c, 0, 76, 63
1, 877763, Note_off_c, 0, 52, 60
1, 877768, Control_c, 0, 64, 38
1, 877779, Note_on_c, 0, 56, 45
1, 877782, Note_on_c, 0, 59, 51
1, 877783, Control_c, 0, 64, 37
1, 877798, Control_c, 0, 64, 36
1, 877813, Control_c, 0, 64, 35
1, 877827, Control_c, 0, 64, 34
1, 877842, Control_c, 0, 64, 32
1, 877857, Control_c, 0, 64, 31
1, 877872, Control_c, 0, 64, 30
1, 877876, Note_off_c, 0, 56, 53
1, 877882, Note_on_c, 0, 77, 68
1, 877887, Control_c, 0, 64, 29
1, 877901, Control_c, 0, 64, 28
1, 877909, Note_off_c, 0, 76, 63
1, 877916, Control_c, 0, 64, 27
1, 877931, Control_c, 0, 64, 26
1, 877945, Control_c, 0, 64, 25
1, 877975, Control_c, 0, 64, 24
1, 877990, Control_c, 0, 64, 23
1, 878005, Note_off_c, 0, 77, 61
1, 878005, Control_c, 0, 64, 19
1, 878014, Note_on_c, 0, 76, 72
1, 878018, Note_on_c, 0, 60, 49
1, 878020, Control_c, 0, 64, 10
1, 878034, Control_c, 0, 64, 0
1, 878055, Note_off_c, 0, 59, 37
1, 878098, Note_on_c, 0, 77, 74
1, 878114, Note_off_c, 0, 76, 61
1, 878164, Note_off_c, 0, 77, 59
1, 878186, Note_on_c, 0, 74, 65
1, 878192, Note_on_c, 0, 59, 39
1, 878228, Note_off_c, 0, 60, 52
1, 878269, Note_on_c, 0, 76, 62
1, 878282, Note_off_c, 0, 74, 60
1, 878362, Note_on_c, 0, 57, 55
1, 878363, Note_on_c, 0, 72, 66
1, 878376, Note_off_c, 0, 59, 50
1, 878379, Note_off_c, 0, 76, 64
1, 878446, Note_on_c, 0, 74, 63
1, 878454, Note_off_c, 0, 72, 62
1, 878511, Note_off_c, 0, 74, 60
1, 878543, Note_on_c, 0, 71, 58
1, 878544, Note_off_c, 0, 57, 62
1, 878556, Note_on_c, 0, 62, 54
1, 878634, Note_off_c, 0, 71, 57
1, 878646, Note_on_c, 0, 72, 51
1, 878765, Note_on_c, 0, 71, 56
1, 878768, Note_on_c, 0, 60, 69
1, 878815, Note_off_c, 0, 62, 56
1, 878823, Note_off_c, 0, 72, 51
1, 878848, Note_off_c, 0, 71, 57
1, 878855, Note_on_c, 0, 69, 54
1, 878904, Note_off_c, 0, 69, 61
1, 878963, Note_on_c, 0, 64, 46
1, 878987, Note_on_c, 0, 57, 32
1, 879055, Note_on_c, 0, 69, 46
1, 879077, Note_off_c, 0, 64, 53
1, 879154, Note_off_c, 0, 69, 52
1, 879162, Note_off_c, 0, 57, 40
1, 879170, Note_on_c, 0, 72, 50
1, 879174, Note_on_c, 0, 62, 71
1, 879184, Note_on_c, 0, 56, 46
1, 879191, Note_off_c, 0, 60, 60
1, 879272, Note_on_c, 0, 71, 43
1, 879298, Note_off_c, 0, 72, 58
1, 879312, Note_off_c, 0, 71, 60
1, 879346, Note_on_c, 0, 64, 52
1, 879354, Note_off_c, 0, 56, 61
1, 879373, Note_on_c, 0, 52, 46
1, 879435, Note_on_c, 0, 71, 52
1, 879468, Note_off_c, 0, 64, 46
1, 879550, Note_off_c, 0, 52, 47
1, 879571, Note_on_c, 0, 60, 66
1, 879581, Note_on_c, 0, 68, 59
1, 879588, Note_off_c, 0, 71, 59
1, 879621, Note_off_c, 0, 62, 57
1, 879675, Note_on_c, 0, 69, 56
1, 879717, Note_off_c, 0, 68, 38
1, 879734, Note_off_c, 0, 69, 63
1, 879766, Note_on_c, 0, 57, 44
1, 879771, Note_on_c, 0, 64, 56
1, 879868, Note_on_c, 0, 69, 55
1, 879877, Note_off_c, 0, 64, 61
1, 879953, Note_on_c, 0, 62, 64
1, 879958, Note_off_c, 0, 57, 40
1, 879960, Note_off_c, 0, 60, 62
1, 879963, Note_on_c, 0, 56, 52
1, 879965, Note_off_c, 0, 69, 59
1, 879966, Note_on_c, 0, 72, 64
1, 880029, Control_c, 0, 64, 30
1, 880044, Control_c, 0, 64, 48
1, 880059, Control_c, 0, 64, 51
1, 880073, Note_on_c, 0, 71, 63
1, 880111, Note_off_c, 0, 72, 57
1, 880136, Note_off_c, 0, 56, 61
1, 880148, Control_c, 0, 64, 50
1, 880155, Note_off_c, 0, 71, 56
1, 880165, Note_on_c, 0, 64, 64
1, 880175, Note_on_c, 0, 52, 50
1, 880178, Control_c, 0, 64, 49
1, 880193, Control_c, 0, 64, 48
1, 880208, Control_c, 0, 64, 47
1, 880222, Control_c, 0, 64, 45
1, 880237, Control_c, 0, 64, 43
1, 880252, Control_c, 0, 64, 41
1, 880254, Note_off_c, 0, 64, 61
1, 880259, Note_on_c, 0, 71, 57
1, 880266, Control_c, 0, 64, 36
1, 880281, Control_c, 0, 64, 26
1, 880288, Note_off_c, 0, 71, 65
1, 880296, Control_c, 0, 64, 0
1, 880339, Note_off_c, 0, 52, 46
1, 880341, Note_on_c, 0, 60, 66
1, 880350, Note_on_c, 0, 71, 72
1, 880401, Note_off_c, 0, 62, 52
1, 880445, Note_on_c, 0, 69, 73
1, 880488, Note_off_c, 0, 71, 57
1, 880527, Note_on_c, 0, 57, 50
1, 880528, Note_off_c, 0, 69, 63
1, 880533, Note_on_c, 0, 64, 70
1, 880637, Note_on_c, 0, 69, 72
1, 880668, Note_off_c, 0, 64, 63
1, 880713, Note_off_c, 0, 57, 31
1, 880742, Note_on_c, 0, 72, 69
1, 880751, Note_on_c, 0, 62, 55
1, 880767, Note_on_c, 0, 56, 51
1, 880771, Note_off_c, 0, 69, 61
1, 880774, Note_off_c, 0, 60, 57
1, 880838, Note_on_c, 0, 71, 67
1, 880895, Note_off_c, 0, 72, 59
1, 880918, Note_off_c, 0, 71, 61
1, 880922, Note_off_c, 0, 56, 62
1, 880926, Note_on_c, 0, 64, 66
1, 880943, Note_on_c, 0, 52, 52
1, 881033, Note_on_c, 0, 71, 60
1, 881061, Note_off_c, 0, 64, 56
1, 881108, Note_off_c, 0, 52, 35
1, 881126, Note_on_c, 0, 60, 59
1, 881142, Note_on_c, 0, 68, 63
1, 881157, Note_off_c, 0, 71, 56
1, 881170, Note_off_c, 0, 62, 55
1, 881227, Note_on_c, 0, 69, 55
1, 881245, Note_off_c, 0, 68, 51
1, 881285, Note_off_c, 0, 69, 58
1, 881314, Note_on_c, 0, 57, 46
1, 881327, Note_on_c, 0, 64, 55
1, 881433, Note_on_c, 0, 69, 41
1, 881439, Note_off_c, 0, 64, 56
1, 881497, Note_off_c, 0, 57, 35
1, 881520, Note_on_c, 0, 56, 48
1, 881525, Note_off_c, 0, 60, 58
1, 881528, Note_on_c, 0, 72, 56
1, 881531, Note_on_c, 0, 62, 55
1, 881535, Note_off_c, 0, 69, 59
1, 881636, Note_on_c, 0, 71, 55
1, 881683, Note_off_c, 0, 56, 60
1, 881683, Note_off_c, 0, 72, 48
1, 881695, Note_off_c, 0, 71, 58
1, 881724, Note_on_c, 0, 52, 50
1, 881736, Note_on_c, 0, 64, 52
1, 881770, Note_off_c, 0, 52, 64
1, 881784, Note_off_c, 0, 62, 61
1, 881828, Note_on_c, 0, 71, 53
1, 881829, Note_off_c, 0, 64, 61
1, 881895, Note_off_c, 0, 71, 48
1, 881916, Note_on_c, 0, 60, 55
1, 881920, Note_on_c, 0, 69, 57
1, 881936, Note_on_c, 0, 57, 24
1, 881936, Note_off_c, 0, 60, 60
1, 881958, Note_off_c, 0, 69, 62
1, 881975, Note_off_c, 0, 57, 31
1, 882020, Note_on_c, 0, 64, 49
1, 882096, Note_on_c, 0, 52, 57
1, 882101, Note_on_c, 0, 62, 55
1, 882111, Note_on_c, 0, 68, 59
1, 882119, Note_off_c, 0, 52, 61
1, 882124, Note_off_c, 0, 62, 58
1, 882154, Note_off_c, 0, 64, 37
1, 882202, Note_off_c, 0, 68, 51
1, 882213, Note_on_c, 0, 71, 58
1, 882290, Note_on_c, 0, 60, 61
1, 882293, Note_on_c, 0, 57, 55
1, 882303, Note_on_c, 0, 69, 61
1, 882308, Note_off_c, 0, 71, 57
1, 882309, Note_off_c, 0, 60, 64
1, 882313, Note_off_c, 0, 57, 62
1, 882350, Note_off_c, 0, 69, 58
1, 882375, Note_on_c, 0, 64, 59
1, 882482, Note_on_c, 0, 68, 57
1, 882482, Note_on_c, 0, 62, 66
1, 882498, Note_on_c, 0, 52, 38
1, 882508, Note_off_c, 0, 62, 67
1, 882526, Note_off_c, 0, 64, 49
1, 882533, Note_off_c, 0, 52, 32
1, 882559, Note_on_c, 0, 76, 48
1, 882588, Note_off_c, 0, 68, 57
1, 882657, Note_on_c, 0, 69, 64
1, 882668, Note_on_c, 0, 57, 55
1, 882670, Note_on_c, 0, 60, 55
1, 882691, Note_off_c, 0, 60, 60
1, 882693, Note_off_c, 0, 57, 63
1, 882732, Note_off_c, 0, 76, 37
1, 882751, Note_off_c, 0, 69, 59
1, 882768, Note_on_c, 0, 64, 54
1, 882845, Note_on_c, 0, 52, 61
1, 882845, Note_on_c, 0, 62, 59
1, 882855, Note_on_c, 0, 68, 60
1, 882867, Note_off_c, 0, 52, 62
1, 882867, Note_off_c, 0, 62, 64
1, 882875, Note_off_c, 0, 64, 54
1, 882944, Note_off_c, 0, 68, 38
1, 882969, Note_on_c, 0, 71, 47
1, 883060, Note_on_c, 0, 69, 66
1, 883063, Note_on_c, 0, 57, 47
1, 883066, Note_on_c, 0, 60, 41
1, 883070, Note_off_c, 0, 71, 53
1, 883084, Note_off_c, 0, 69, 71
1, 883095, Note_off_c, 0, 60, 57
1, 883108, Note_off_c, 0, 57, 60
1, 883143, Control_c, 0, 67, 110
1, 883158, Control_c, 0, 67, 72
1, 883173, Control_c, 0, 67, 25
1, 883188, Control_c, 0, 67, 0
1, 883468, Note_on_c, 0, 48, 89
1, 883478, Note_on_c, 0, 60, 96
1, 883509, Note_on_c, 0, 62, 82
1, 883514, Control_c, 0, 64, 59
1, 883531, Note_on_c, 0, 50, 80
1, 883534, Note_off_c, 0, 60, 61
1, 883539, Note_off_c, 0, 48, 61
1, 883543, Control_c, 0, 64, 56
1, 883558, Control_c, 0, 64, 54
1, 883588, Control_c, 0, 64, 53
1, 883595, Note_off_c, 0, 62, 62
1, 883598, Note_on_c, 0, 60, 80
1, 883603, Control_c, 0, 64, 49
1, 883603, Note_off_c, 0, 50, 59
1, 883618, Control_c, 0, 64, 46
1, 883632, Control_c, 0, 64, 46
1, 883636, Note_on_c, 0, 48, 62
1, 883676, Control_c, 0, 64, 45
1, 883685, Note_on_c, 0, 59, 84
1, 883691, Control_c, 0, 64, 44
1, 883696, Note_on_c, 0, 47, 70
1, 883706, Control_c, 0, 64, 41
1, 883721, Control_c, 0, 64, 39
1, 883743, Control_c, 0, 64, 39
1, 883746, Note_off_c, 0, 48, 60
1, 883758, Control_c, 0, 64, 39
1, 883773, Control_c, 0, 64, 40
1, 883774, Note_on_c, 0, 57, 88
1, 883781, Note_on_c, 0, 45, 73
1, 883788, Control_c, 0, 64, 41
1, 883797, Note_off_c, 0, 60, 60
1, 883803, Control_c, 0, 64, 42
1, 883811, Note_off_c, 0, 59, 57
1, 883817, Control_c, 0, 64, 39
1, 883820, Note_off_c, 0, 47, 50
1, 883832, Control_c, 0, 64, 22
1, 883847, Control_c, 0, 64, 0
1, 883858, Note_on_c, 0, 55, 91
1, 883868, Note_on_c, 0, 43, 88
1, 883874, Note_off_c, 0, 57, 60
1, 883880, Note_off_c, 0, 45, 65
1, 883901, Note_off_c, 0, 55, 66
1, 883916, Note_off_c, 0, 43, 63
1, 884066, Note_on_c, 0, 40, 85
1, 884068, Note_on_c, 0, 76, 95
1, 884070, Note_on_c, 0, 64, 93
1, 884071, Note_on_c, 0, 52, 82
1, 884104, Note_off_c, 0, 40, 65
1, 884104, Note_off_c, 0, 52, 64
1, 884107, Note_off_c, 0, 64, 67
1, 884109, Note_off_c, 0, 76, 69
1, 884336, Note_on_c, 0, 79, 100
1, 884340, Note_on_c, 0, 67, 97
1, 884342, Note_on_c, 0, 43, 88
1, 884342, Note_on_c, 0, 55, 87
1, 884366, Control_c, 0, 64, 71
1, 884381, Control_c, 0, 64, 127
1, 884401, Note_off_c, 0, 55, 59
1, 884404, Note_off_c, 0, 43, 61
1, 884676, Note_off_c, 0, 67, 58
1, 884736, Note_off_c, 0, 79, 53
1, 884788, Control_c, 0, 64, 103
1, 884792, Note_on_c, 0, 76, 83
1, 884798, Note_on_c, 0, 64, 81
1, 884800, Note_on_c, 0, 52, 81
1, 884804, Note_on_c, 0, 40, 78
1, 884804, Control_c, 0, 64, 60
1, 884819, Control_c, 0, 64, 0
1, 884842, Note_off_c, 0, 40, 67
1, 884848, Note_off_c, 0, 64, 63
1, 884855, Note_off_c, 0, 76, 63
1, 884867, Note_off_c, 0, 52, 64
1, 885242, Control_c, 0, 64, 46
1, 885251, Note_on_c, 0, 81, 95
1, 885254, Note_on_c, 0, 48, 68
1, 885256, Control_c, 0, 64, 69
1, 885260, Note_on_c, 0, 60, 62
1, 885260, Note_on_c, 0, 57, 57
1, 885271, Control_c, 0, 64, 78
1, 885286, Control_c, 0, 64, 81
1, 885299, Note_off_c, 0, 81, 64
1, 885301, Control_c, 0, 64, 83
1, 885307, Note_off_c, 0, 57, 59
1, 885316, Control_c, 0, 64, 87
1, 885319, Note_off_c, 0, 48, 61
1, 885319, Note_off_c, 0, 60, 55
1, 885330, Control_c, 0, 64, 93
1, 885345, Control_c, 0, 64, 99
1, 885360, Control_c, 0, 64, 106
1, 885375, Control_c, 0, 64, 111
1, 885390, Control_c, 0, 64, 118
1, 885404, Control_c, 0, 64, 127
1, 885478, Control_c, 0, 64, 94
1, 885493, Control_c, 0, 64, 68
1, 885496, Note_on_c, 0, 81, 94
1, 885502, Note_on_c, 0, 60, 64
1, 885506, Note_on_c, 0, 57, 50
1, 885508, Control_c, 0, 64, 0
1, 885511, Note_on_c, 0, 50, 48
1, 885513, Note_on_c, 0, 52, 52
1, 885528, Note_off_c, 0, 60, 66
1, 885530, Note_off_c, 0, 81, 65
1, 885531, Note_off_c, 0, 57, 56
1, 885535, Note_off_c, 0, 50, 58
1, 885537, Note_off_c, 0, 52, 64
1, 885582, Note_on_c, 0, 81, 87
1, 885626, Note_off_c, 0, 81, 62
1, 885654, Note_on_c, 0, 52, 71
1, 885655, Note_on_c, 0, 81, 86
1, 885660, Note_on_c, 0, 57, 61
1, 885666, Note_on_c, 0, 60, 67
1, 885692, Note_off_c, 0, 57, 64
1, 885693, Note_off_c, 0, 60, 66
1, 885696, Note_off_c, 0, 52, 62
1, 885720, Note_off_c, 0, 81, 52
1, 885743, Note_on_c, 0, 84, 91
1, 885838, Note_on_c, 0, 83, 91
1, 885842, Note_on_c, 0, 53, 66
1, 885844, Note_on_c, 0, 57, 62
1, 885844, Note_on_c, 0, 60, 64
1, 885865, Note_off_c, 0, 84, 61
1, 885865, Note_off_c, 0, 57, 61
1, 885872, Note_off_c, 0, 53, 68
1, 885873, Note_off_c, 0, 60, 64
1, 885928, Note_on_c, 0, 81, 87
1, 885994, Note_off_c, 0, 83, 50
1, 886025, Note_on_c, 0, 76, 98
1, 886029, Note_on_c, 0, 52, 82
1, 886032, Note_on_c, 0, 57, 71
1, 886032, Note_on_c, 0, 60, 82
1, 886046, Note_off_c, 0, 81, 57
1, 886059, Note_off_c, 0, 57, 66
1, 886062, Note_off_c, 0, 52, 66
1, 886062, Note_off_c, 0, 60, 61
1, 886071, Note_off_c, 0, 76, 67
1, 886250, Note_on_c, 0, 93, 100
1, 886254, Note_on_c, 0, 81, 96
1, 886256, Note_on_c, 0, 57, 65
1, 886256, Note_on_c, 0, 63, 90
1, 886258, Note_on_c, 0, 53, 74
1, 886258, Note_on_c, 0, 87, 88
1, 886281, Note_off_c, 0, 81, 63
1, 886281, Note_off_c, 0, 87, 60
1, 886292, Note_off_c, 0, 93, 60
1, 886304, Note_off_c, 0, 57, 61
1, 886308, Note_off_c, 0, 63, 61
1, 886313, Note_off_c, 0, 53, 62
1, 886513, Note_on_c, 0, 88, 98
1, 886515, Note_on_c, 0, 64, 95
1, 886515, Note_on_c, 0, 76, 100
1, 886519, Note_on_c, 0, 52, 89
1, 886522, Note_on_c, 0, 56, 81
1, 886538, Control_c, 0, 64, 20
1, 886553, Control_c, 0, 64, 67
1, 886568, Control_c, 0, 64, 75
1, 886582, Control_c, 0, 64, 79
1, 886597, Control_c, 0, 64, 81
1, 886600, Note_off_c, 0, 88, 61
1, 886612, Control_c, 0, 64, 85
1, 886625, Note_off_c, 0, 64, 55
1, 886626, Control_c, 0, 64, 91
1, 886628, Note_off_c, 0, 52, 61
1, 886641, Control_c, 0, 64, 92
1, 886656, Control_c, 0, 64, 89
1, 886666, Note_off_c, 0, 76, 67
1, 886671, Control_c, 0, 64, 71
1, 886686, Control_c, 0, 64, 20
1, 886695, Note_off_c, 0, 56, 62
1, 886700, Control_c, 0, 64, 0
1, 886961, Note_on_c, 0, 53, 94
1, 886965, Note_on_c, 0, 65, 99
1, 886975, Control_c, 0, 64, 68
1, 886984, Note_on_c, 0, 55, 76
1, 886987, Note_on_c, 0, 67, 80
1, 886989, Control_c, 0, 64, 97
1, 887004, Control_c, 0, 64, 127
1, 887024, Note_off_c, 0, 65, 62
1, 887064, Note_off_c, 0, 67, 62
1, 887071, Note_on_c, 0, 65, 73
1, 887081, Note_off_c, 0, 53, 0
1, 887095, Note_on_c, 0, 53, 58
1, 887115, Note_off_c, 0, 55, 60
1, 887168, Note_on_c, 0, 64, 86
1, 887175, Note_off_c, 0, 65, 59
1, 887192, Note_on_c, 0, 52, 70
1, 887248, Note_off_c, 0, 53, 60
1, 887253, Note_on_c, 0, 62, 94
1, 887263, Note_on_c, 0, 50, 77
1, 887287, Control_c, 0, 64, 110
1, 887290, Note_off_c, 0, 64, 60
1, 887295, Note_off_c, 0, 52, 60
1, 887302, Control_c, 0, 64, 72
1, 887317, Control_c, 0, 64, 23
1, 887331, Control_c, 0, 64, 0
1, 887339, Note_on_c, 0, 60, 98
1, 887343, Note_on_c, 0, 48, 85
1, 887356, Note_off_c, 0, 62, 62
1, 887365, Note_off_c, 0, 50, 62
1, 887387, Note_off_c, 0, 60, 65
1, 887399, Note_off_c, 0, 48, 63
1, 887564, Note_on_c, 0, 45, 82
1, 887564, Note_on_c, 0, 69, 93
1, 887566, Note_on_c, 0, 57, 81
1, 887566, Note_on_c, 0, 81, 89
1, 887582, Note_on_c, 0, 79, 59
1, 887603, Note_off_c, 0, 69, 69
1, 887603, Note_off_c, 0, 79, 39
1, 887613, Note_off_c, 0, 81, 62
1, 887613, Note_off_c, 0, 45, 63
1, 887617, Note_off_c, 0, 57, 62
1, 887833, Note_on_c, 0, 84, 101
1, 887837, Note_on_c, 0, 72, 95
1, 887840, Note_on_c, 0, 48, 92
1, 887842, Note_on_c, 0, 60, 88
1, 887871, Control_c, 0, 64, 62
1, 887886, Control_c, 0, 64, 85
1, 887901, Control_c, 0, 64, 114
1, 887916, Control_c, 0, 64, 127
1, 887929, Note_off_c, 0, 48, 58
1, 887947, Note_off_c, 0, 60, 54
1, 888186, Note_off_c, 0, 72, 62
1, 888229, Note_off_c, 0, 84, 56
1, 888265, Control_c, 0, 64, 74
1, 888268, Note_on_c, 0, 81, 86
1, 888275, Note_on_c, 0, 45, 78
1, 888275, Note_on_c, 0, 57, 78
1, 888275, Note_on_c, 0, 69, 80
1, 888280, Control_c, 0, 64, 0
1, 888325, Note_off_c, 0, 69, 67
1, 888327, Note_off_c, 0, 45, 65
1, 888331, Note_off_c, 0, 81, 62
1, 888351, Note_off_c, 0, 57, 62
1, 888679, Control_c, 0, 64, 64
1, 888694, Note_on_c, 0, 53, 71
1, 888694, Control_c, 0, 64, 74
1, 888695, Note_on_c, 0, 86, 101
1, 888706, Note_on_c, 0, 65, 62
1, 888709, Control_c, 0, 64, 77
1, 888716, Note_on_c, 0, 62, 49
1, 888739, Control_c, 0, 64, 78
1, 888742, Note_off_c, 0, 86, 66
1, 888754, Control_c, 0, 64, 79
1, 888755, Note_off_c, 0, 62, 60
1, 888764, Note_off_c, 0, 53, 64
1, 888776, Note_off_c, 0, 65, 54
1, 888859, Control_c, 0, 64, 78
1, 888874, Control_c, 0, 64, 73
1, 888889, Control_c, 0, 64, 65
1, 888903, Control_c, 0, 64, 40
1, 888918, Control_c, 0, 64, 0
1, 888930, Note_on_c, 0, 65, 54
1, 888933, Note_on_c, 0, 86, 89
1, 888935, Note_on_c, 0, 55, 42
1, 888940, Note_on_c, 0, 62, 47
1, 888964, Note_off_c, 0, 65, 64
1, 888968, Note_off_c, 0, 55, 56
1, 888974, Note_off_c, 0, 62, 58
1, 888975, Note_off_c, 0, 86, 65
1, 889024, Note_on_c, 0, 86, 77
1, 889067, Note_off_c, 0, 86, 63
1, 889097, Note_on_c, 0, 57, 75
1, 889105, Note_on_c, 0, 86, 82
1, 889116, Note_on_c, 0, 65, 57
1, 889137, Note_off_c, 0, 57, 61
1, 889141, Note_off_c, 0, 65, 65
1, 889196, Note_on_c, 0, 89, 83
1, 889208, Note_off_c, 0, 86, 40
1, 889281, Note_on_c, 0, 58, 65
1, 889282, Note_on_c, 0, 62, 52
1, 889290, Note_on_c, 0, 88, 87
1, 889293, Note_on_c, 0, 65, 46
1, 889306, Note_off_c, 0, 62, 58
1, 889308, Note_off_c, 0, 58, 67
1, 889317, Note_off_c, 0, 89, 59
1, 889320, Note_off_c, 0, 65, 55
1, 889375, Note_on_c, 0, 86, 87
1, 889418, Note_off_c, 0, 88, 57
1, 889483, Note_on_c, 0, 81, 93
1, 889489, Control_c, 0, 64, 52
1, 889491, Note_on_c, 0, 48, 83
1, 889491, Note_on_c, 0, 60, 81
1, 889493, Note_on_c, 0, 57, 69
1, 889503, Control_c, 0, 64, 62
1, 889511, Note_off_c, 0, 86, 61
1, 889518, Control_c, 0, 64, 64
1, 889528, Note_off_c, 0, 57, 58
1, 889533, Control_c, 0, 64, 65
1, 889547, Note_off_c, 0, 60, 60
1, 889548, Note_off_c, 0, 81, 62
1, 889548, Control_c, 0, 64, 66
1, 889549, Note_off_c, 0, 48, 59
1, 889563, Control_c, 0, 64, 67
1, 889577, Control_c, 0, 64, 69
1, 889592, Control_c, 0, 64, 69
1, 889667, Control_c, 0, 64, 68
1, 889682, Control_c, 0, 64, 64
1, 889697, Control_c, 0, 64, 51
1, 889698, Note_on_c, 0, 81, 91
1, 889702, Note_on_c, 0, 50, 70
1, 889705, Note_on_c, 0, 60, 68
1, 889712, Control_c, 0, 64, 0
1, 889728, Note_on_c, 0, 57, 40
1, 889740, Note_off_c, 0, 60, 65
1, 889746, Note_off_c, 0, 50, 62
1, 889748, Note_off_c, 0, 81, 64
1, 889755, Note_off_c, 0, 57, 51
1, 889794, Note_on_c, 0, 81, 78
1, 889841, Note_off_c, 0, 81, 63
1, 889866, Note_on_c, 0, 52, 80
1, 889875, Note_on_c, 0, 60, 65
1, 889878, Note_on_c, 0, 81, 86
1, 889884, Note_on_c, 0, 57, 41
1, 889904, Note_off_c, 0, 60, 66
1, 889909, Note_off_c, 0, 52, 63
1, 889912, Note_off_c, 0, 57, 50
1, 889947, Note_off_c, 0, 81, 55
1, 889968, Note_on_c, 0, 84, 78
1, 890051, Note_on_c, 0, 57, 57
1, 890051, Note_on_c, 0, 60, 74
1, 890051, Note_on_c, 0, 83, 88
1, 890052, Note_on_c, 0, 53, 72
1, 890073, Note_off_c, 0, 57, 61
1, 890075, Note_off_c, 0, 60, 67
1, 890082, Note_off_c, 0, 53, 66
1, 890087, Note_off_c, 0, 84, 59
1, 890152, Note_on_c, 0, 81, 83
1, 890179, Note_off_c, 0, 83, 52
1, 890238, Note_on_c, 0, 60, 81
1, 890239, Note_on_c, 0, 57, 68
1, 890241, Note_off_c, 0, 81, 57
1, 890242, Note_on_c, 0, 76, 86
1, 890243, Note_on_c, 0, 52, 75
1, 890265, Note_off_c, 0, 57, 66
1, 890271, Note_off_c, 0, 52, 68
1, 890274, Note_off_c, 0, 60, 58
1, 890285, Note_off_c, 0, 76, 65
1, 890453, Note_on_c, 0, 80, 88
1, 890456, Note_on_c, 0, 92, 92
1, 890459, Note_on_c, 0, 62, 91
1, 890462, Note_on_c, 0, 52, 82
1, 890470, Note_on_c, 0, 83, 65
1, 890490, Note_off_c, 0, 83, 66
1, 890500, Note_off_c, 0, 52, 68
1, 890505, Note_off_c, 0, 62, 64
1, 890528, Note_off_c, 0, 80, 60
1, 890573, Note_off_c, 0, 92, 34
1, 890715, Note_on_c, 0, 84, 91
1, 890716, Note_on_c, 0, 81, 97
1, 890716, Note_on_c, 0, 93, 101
1, 890721, Note_on_c, 0, 60, 85
1, 890724, Note_on_c, 0, 57, 76
1, 890734, Control_c, 0, 64, 58
1, 890748, Control_c, 0, 64, 71
1, 890763, Control_c, 0, 64, 79
1, 890778, Control_c, 0, 64, 87
1, 890792, Note_off_c, 0, 93, 62
1, 890793, Control_c, 0, 64, 92
1, 890808, Control_c, 0, 64, 98
1, 890823, Control_c, 0, 64, 100
1, 890826, Note_off_c, 0, 60, 56
1, 890838, Note_off_c, 0, 57, 58
1, 890844, Note_off_c, 0, 84, 63
1, 890852, Control_c, 0, 64, 96
1, 890858, Note_off_c, 0, 81, 66
1, 890867, Control_c, 0, 64, 82
1, 890882, Control_c, 0, 64, 68
1, 890897, Control_c, 0, 64, 43
1, 890912, Control_c, 0, 64, 0
1, 891210, Note_on_c, 0, 69, 91
1, 891210, Note_on_c, 0, 81, 92
1, 891211, Note_on_c, 0, 41, 92
1, 891211, Note_on_c, 0, 53, 93
1, 891213, Note_on_c, 0, 77, 90
1, 891246, Control_c, 0, 64, 65
1, 891261, Control_c, 0, 64, 71
1, 891276, Control_c, 0, 64, 72
1, 891305, Control_c, 0, 64, 73
1, 891308, Note_off_c, 0, 81, 57
1, 891320, Control_c, 0, 64, 75
1, 891321, Note_off_c, 0, 69, 63
1, 891333, Note_off_c, 0, 77, 60
1, 891335, Control_c, 0, 64, 76
1, 891350, Control_c, 0, 64, 77
1, 891365, Control_c, 0, 64, 78
1, 891379, Control_c, 0, 64, 78
1, 891482, Note_off_c, 0, 41, 53
1, 891488, Note_on_c, 0, 69, 76
1, 891490, Note_on_c, 0, 77, 76
1, 891490, Note_on_c, 0, 81, 70
1, 891514, Note_off_c, 0, 69, 68
1, 891521, Note_off_c, 0, 77, 61
1, 891523, Note_off_c, 0, 81, 58
1, 891541, Note_off_c, 0, 53, 53
1, 891572, Note_on_c, 0, 77, 68
1, 891582, Note_on_c, 0, 81, 53
1, 891592, Note_on_c, 0, 69, 60
1, 891605, Note_off_c, 0, 81, 60
1, 891610, Note_off_c, 0, 69, 67
1, 891615, Note_off_c, 0, 77, 60
1, 891616, Control_c, 0, 64, 76
1, 891630, Control_c, 0, 64, 68
1, 891645, Control_c, 0, 64, 35
1, 891657, Note_on_c, 0, 43, 76
1, 891660, Note_on_c, 0, 81, 85
1, 891660, Control_c, 0, 64, 0
1, 891661, Note_on_c, 0, 77, 66
1, 891663, Note_on_c, 0, 55, 82
1, 891663, Note_on_c, 0, 69, 79
1, 891735, Control_c, 0, 64, 18
1, 891750, Control_c, 0, 64, 58
1, 891765, Control_c, 0, 64, 67
1, 891768, Note_off_c, 0, 81, 57
1, 891778, Note_off_c, 0, 69, 61
1, 891779, Control_c, 0, 64, 72
1, 891794, Control_c, 0, 64, 75
1, 891807, Note_off_c, 0, 77, 61
1, 891809, Control_c, 0, 64, 76
1, 891824, Control_c, 0, 64, 77
1, 891839, Control_c, 0, 64, 78
1, 891854, Control_c, 0, 64, 78
1, 891869, Control_c, 0, 64, 79
1, 891898, Control_c, 0, 64, 79
1, 891901, Note_on_c, 0, 81, 71
1, 891902, Note_on_c, 0, 69, 68
1, 891903, Note_on_c, 0, 77, 76
1, 891913, Control_c, 0, 64, 80
1, 891921, Note_off_c, 0, 43, 51
1, 891928, Note_off_c, 0, 81, 64
1, 891928, Control_c, 0, 64, 81
1, 891928, Note_off_c, 0, 69, 69
1, 891931, Note_off_c, 0, 77, 64
1, 891942, Control_c, 0, 64, 82
1, 891950, Note_off_c, 0, 55, 56
1, 891957, Control_c, 0, 64, 83
1, 891979, Control_c, 0, 64, 85
1, 891992, Note_on_c, 0, 77, 72
1, 891992, Note_on_c, 0, 81, 73
1, 891995, Control_c, 0, 64, 86
1, 891999, Note_on_c, 0, 69, 75
1, 892022, Note_off_c, 0, 69, 70
1, 892024, Note_off_c, 0, 81, 62
1, 892025, Control_c, 0, 64, 85
1, 892027, Note_off_c, 0, 77, 60
1, 892040, Control_c, 0, 64, 76
1, 892054, Control_c, 0, 64, 60
1, 892068, Poly_aftertouch_c, 0, 77, 0
1, 892069, Note_on_c, 0, 81, 82
1, 892069, Control_c, 0, 64, 0
1, 892070, Note_on_c, 0, 45, 86
1, 892072, Note_on_c, 0, 57, 91
1, 892075, Note_on_c, 0, 77, 75
1, 892078, Note_on_c, 0, 69, 87
1, 892143, Control_c, 0, 64, 57
1, 892155, Note_off_c, 0, 81, 60
1, 892158, Control_c, 0, 64, 68
1, 892169, Note_off_c, 0, 69, 64
1, 892173, Control_c, 0, 64, 78
1, 892188, Control_c, 0, 64, 90
1, 892191, Note_off_c, 0, 77, 61
1, 892203, Control_c, 0, 64, 94
1, 892218, Control_c, 0, 64, 98
1, 892233, Control_c, 0, 64, 101
1, 892247, Control_c, 0, 64, 106
1, 892262, Control_c, 0, 64, 111
1, 892268, Note_off_c, 0, 45, 59
1, 892277, Control_c, 0, 64, 118
1, 892292, Control_c, 0, 64, 127
1, 892301, Note_on_c, 0, 69, 80
1, 892304, Note_on_c, 0, 77, 79
1, 892305, Note_on_c, 0, 81, 73
1, 892305, Note_off_c, 0, 57, 57
1, 892326, Note_off_c, 0, 69, 61
1, 892328, Note_off_c, 0, 81, 66
1, 892329, Note_off_c, 0, 77, 63
1, 892388, Note_on_c, 0, 77, 74
1, 892388, Note_on_c, 0, 81, 75
1, 892399, Note_on_c, 0, 69, 74
1, 892417, Note_off_c, 0, 81, 62
1, 892419, Note_off_c, 0, 69, 73
1, 892425, Note_off_c, 0, 77, 61
1, 892440, Control_c, 0, 64, 75
1, 892451, Note_on_c, 0, 58, 93
1, 892453, Note_on_c, 0, 46, 80
1, 892454, Control_c, 0, 64, 0
1, 892470, Note_on_c, 0, 77, 73
1, 892488, Note_on_c, 0, 81, 46
1, 892492, Note_on_c, 0, 83, 61
1, 892501, Note_on_c, 0, 45, 31
1, 892507, Note_off_c, 0, 77, 63
1, 892514, Note_off_c, 0, 81, 54
1, 892514, Note_off_c, 0, 83, 64
1, 892514, Control_c, 0, 64, 29
1, 892528, Control_c, 0, 64, 61
1, 892538, Note_off_c, 0, 45, 31
1, 892543, Control_c, 0, 64, 69
1, 892558, Note_off_c, 0, 46, 61
1, 892558, Control_c, 0, 64, 80
1, 892564, Note_on_c, 0, 84, 87
1, 892569, Note_on_c, 0, 81, 86
1, 892572, Control_c, 0, 64, 101
1, 892587, Control_c, 0, 64, 127
1, 892603, Note_off_c, 0, 58, 60
1, 892608, Note_off_c, 0, 84, 62
1, 892612, Note_off_c, 0, 81, 60
1, 892641, Note_on_c, 0, 82, 89
1, 892664, Note_on_c, 0, 79, 64
1, 892699, Note_off_c, 0, 79, 55
1, 892727, Note_on_c, 0, 81, 80
1, 892729, Note_on_c, 0, 77, 89
1, 892742, Note_off_c, 0, 82, 59
1, 892767, Note_off_c, 0, 81, 62
1, 892777, Note_off_c, 0, 77, 64
1, 892810, Poly_aftertouch_c, 0, 79, 0
1, 892821, Note_on_c, 0, 79, 55
1, 892829, Note_on_c, 0, 76, 98
1, 892833, Note_on_c, 0, 48, 93
1, 892836, Note_on_c, 0, 60, 88
1, 892848, Control_c, 0, 64, 67
1, 892851, Note_off_c, 0, 76, 65
1, 892863, Control_c, 0, 64, 0
1, 892868, Note_off_c, 0, 60, 61
1, 892875, Note_off_c, 0, 79, 63
1, 892879, Note_off_c, 0, 48, 62
1, 893069, Note_on_c, 0, 81, 89
1, 893070, Note_on_c, 0, 77, 91
1, 893073, Note_on_c, 0, 72, 86
1, 893074, Note_on_c, 0, 41, 87
1, 893074, Note_on_c, 0, 53, 88
1, 893096, Note_off_c, 0, 72, 67
1, 893096, Note_off_c, 0, 77, 63
1, 893106, Note_off_c, 0, 41, 67
1, 893110, Note_off_c, 0, 81, 62
1, 893115, Note_off_c, 0, 53, 63
1, 893335, Note_on_c, 0, 79, 95
1, 893338, Note_on_c, 0, 72, 90
1, 893339, Note_on_c, 0, 48, 91
1, 893339, Note_on_c, 0, 76, 91
1, 893343, Note_on_c, 0, 60, 93
1, 893381, Control_c, 0, 64, 69
1, 893395, Control_c, 0, 64, 91
1, 893410, Control_c, 0, 64, 127
1, 893479, Note_off_c, 0, 60, 50
1, 893480, Note_off_c, 0, 48, 54
1, 893549, Note_off_c, 0, 76, 61
1, 893553, Note_off_c, 0, 79, 60
1, 893597, Control_c, 0, 64, 101
1, 893607, Note_off_c, 0, 72, 64
1, 893612, Control_c, 0, 64, 75
1, 893626, Control_c, 0, 64, 54
1, 893641, Control_c, 0, 64, 0
1, 893881, Note_on_c, 0, 77, 87
1, 893881, Note_on_c, 0, 65, 89
1, 893885, Note_on_c, 0, 50, 90
1, 893886, Note_on_c, 0, 74, 83
1, 893888, Note_on_c, 0, 38, 87
1, 893893, Control_c, 0, 64, 28
1, 893908, Control_c, 0, 64, 74
1, 893923, Control_c, 0, 64, 88
1, 893938, Control_c, 0, 64, 91
1, 893949, Note_off_c, 0, 77, 60
1, 893953, Note_off_c, 0, 65, 61
1, 893967, Control_c, 0, 64, 91
1, 893982, Control_c, 0, 64, 92
1, 893982, Note_off_c, 0, 74, 61
1, 893997, Control_c, 0, 64, 92
1, 894010, Control_c, 0, 64, 93
1, 894122, Note_on_c, 0, 74, 63
1, 894122, Note_off_c, 0, 38, 46
1, 894125, Note_on_c, 0, 77, 62
1, 894130, Note_on_c, 0, 65, 51
1, 894145, Note_off_c, 0, 77, 63
1, 894148, Note_off_c, 0, 74, 67
1, 894149, Note_off_c, 0, 65, 62
1, 894170, Note_off_c, 0, 50, 54
1, 894204, Note_on_c, 0, 74, 70
1, 894218, Note_on_c, 0, 77, 58
1, 894230, Note_on_c, 0, 65, 47
1, 894238, Note_off_c, 0, 74, 68
1, 894240, Note_off_c, 0, 77, 61
1, 894240, Control_c, 0, 64, 92
1, 894255, Control_c, 0, 64, 89
1, 894257, Note_off_c, 0, 65, 55
1, 894270, Control_c, 0, 64, 76
1, 894285, Control_c, 0, 64, 61
1, 894293, Note_on_c, 0, 74, 70
1, 894296, Note_on_c, 0, 77, 82
1, 894298, Note_on_c, 0, 65, 75
1, 894299, Control_c, 0, 64, 0
1, 894301, Note_on_c, 0, 52, 82
1, 894302, Note_on_c, 0, 40, 76
1, 894373, Control_c, 0, 64, 44
1, 894385, Note_off_c, 0, 77, 57
1, 894388, Control_c, 0, 64, 63
1, 894394, Note_off_c, 0, 65, 60
1, 894404, Control_c, 0, 64, 67
1, 894419, Control_c, 0, 64, 69
1, 894420, Note_off_c, 0, 74, 63
1, 894434, Control_c, 0, 64, 70
1, 894463, Control_c, 0, 64, 71
1, 894478, Control_c, 0, 64, 73
1, 894493, Control_c, 0, 64, 74
1, 894508, Control_c, 0, 64, 76
1, 894510, Note_on_c, 0, 65, 69
1, 894510, Note_on_c, 0, 77, 70
1, 894512, Note_on_c, 0, 74, 71
1, 894522, Note_off_c, 0, 40, 55
1, 894522, Control_c, 0, 64, 78
1, 894531, Note_off_c, 0, 65, 67
1, 894534, Note_off_c, 0, 74, 70
1, 894537, Control_c, 0, 64, 80
1, 894539, Note_off_c, 0, 77, 65
1, 894552, Control_c, 0, 64, 83
1, 894564, Note_off_c, 0, 52, 55
1, 894567, Control_c, 0, 64, 86
1, 894579, Note_on_c, 0, 74, 68
1, 894581, Control_c, 0, 64, 90
1, 894592, Note_on_c, 0, 77, 63
1, 894595, Note_on_c, 0, 65, 67
1, 894596, Control_c, 0, 64, 94
1, 894611, Note_off_c, 0, 77, 66
1, 894611, Control_c, 0, 64, 97
1, 894618, Note_off_c, 0, 65, 62
1, 894626, Control_c, 0, 64, 98
1, 894627, Note_off_c, 0, 74, 61
1, 894656, Control_c, 0, 64, 84
1, 894667, Note_on_c, 0, 77, 96
1, 894671, Note_on_c, 0, 41, 87
1, 894671, Control_c, 0, 64, 62
1, 894671, Note_on_c, 0, 74, 66
1, 894672, Note_on_c, 0, 53, 91
1, 894672, Note_on_c, 0, 65, 84
1, 894686, Control_c, 0, 64, 0
1, 894745, Control_c, 0, 64, 44
1, 894753, Note_off_c, 0, 77, 59
1, 894758, Note_off_c, 0, 65, 61
1, 894760, Control_c, 0, 64, 64
1, 894774, Control_c, 0, 64, 73
1, 894789, Control_c, 0, 64, 82
1, 894796, Note_off_c, 0, 74, 64
1, 894804, Control_c, 0, 64, 86
1, 894819, Control_c, 0, 64, 88
1, 894833, Control_c, 0, 64, 89
1, 894848, Control_c, 0, 64, 91
1, 894863, Control_c, 0, 64, 93
1, 894878, Control_c, 0, 64, 96
1, 894881, Note_on_c, 0, 65, 79
1, 894886, Note_on_c, 0, 77, 78
1, 894889, Note_on_c, 0, 74, 77
1, 894893, Control_c, 0, 64, 99
1, 894907, Control_c, 0, 64, 105
1, 894909, Note_off_c, 0, 77, 66
1, 894911, Note_off_c, 0, 74, 69
1, 894913, Note_off_c, 0, 65, 62
1, 894915, Note_off_c, 0, 41, 56
1, 894922, Control_c, 0, 64, 111
1, 894937, Control_c, 0, 64, 127
1, 894948, Note_off_c, 0, 53, 58
1, 894969, Note_on_c, 0, 74, 74
1, 894972, Note_on_c, 0, 77, 69
1, 894975, Note_on_c, 0, 65, 69
1, 895002, Note_off_c, 0, 65, 66
1, 895010, Note_off_c, 0, 77, 57
1, 895014, Note_off_c, 0, 74, 63
1, 895050, Poly_aftertouch_c, 0, 77, 0
1, 895052, Poly_aftertouch_c, 0, 74, 0
1, 895056, Note_on_c, 0, 43, 89
1, 895058, Note_on_c, 0, 77, 68
1, 895059, Note_on_c, 0, 55, 93
1, 895059, Note_on_c, 0, 74, 71
1, 895061, Note_on_c, 0, 65, 73
1, 895063, Control_c, 0, 64, 64
1, 895077, Note_off_c, 0, 65, 69
1, 895078, Control_c, 0, 64, 0
1, 895097, Note_off_c, 0, 77, 60
1, 895101, Note_off_c, 0, 74, 64
1, 895148, Note_on_c, 0, 81, 90
1, 895152, Control_c, 0, 64, 58
1, 895160, Note_on_c, 0, 77, 72
1, 895166, Control_c, 0, 64, 67
1, 895181, Control_c, 0, 64, 78
1, 895187, Note_off_c, 0, 77, 61
1, 895197, Control_c, 0, 64, 98
1, 895212, Control_c, 0, 64, 127
1, 895230, Note_on_c, 0, 79, 85
1, 895245, Note_on_c, 0, 76, 81
1, 895255, Note_off_c, 0, 43, 59
1, 895275, Note_off_c, 0, 81, 52
1, 895282, Note_off_c, 0, 55, 59
1, 895323, Note_off_c, 0, 76, 62
1, 895324, Note_on_c, 0, 74, 87
1, 895324, Note_off_c, 0, 79, 59
1, 895377, Note_off_c, 0, 74, 68
1, 895419, Note_on_c, 0, 76, 99
1, 895419, Control_c, 0, 64, 85
1, 895425, Note_on_c, 0, 45, 94
1, 895426, Note_on_c, 0, 57, 90
1, 895434, Control_c, 0, 64, 57
1, 895435, Note_on_c, 0, 73, 61
1, 895436, Note_off_c, 0, 73, 127
1, 895446, Note_on_c, 0, 74, 56
1, 895449, Control_c, 0, 64, 0
1, 895460, Note_off_c, 0, 76, 67
1, 895461, Note_off_c, 0, 57, 63
1, 895469, Note_off_c, 0, 74, 61
1, 895470, Note_off_c, 0, 45, 64
1, 895654, Note_on_c, 0, 77, 95
1, 895655, Note_on_c, 0, 74, 90
1, 895656, Note_on_c, 0, 50, 90
1, 895658, Note_on_c, 0, 38, 91
1, 895658, Note_on_c, 0, 69, 86
1, 895679, Note_off_c, 0, 69, 71
1, 895682, Note_off_c, 0, 74, 60
1, 895691, Note_off_c, 0, 38, 66
1, 895699, Note_off_c, 0, 50, 63
1, 895699, Note_off_c, 0, 77, 61
1, 895923, Note_on_c, 0, 76, 95
1, 895924, Note_on_c, 0, 69, 93
1, 895924, Note_on_c, 0, 73, 96
1, 895926, Note_on_c, 0, 45, 90
1, 895929, Note_on_c, 0, 57, 93
1, 895961, Control_c, 0, 64, 40
1, 895976, Control_c, 0, 64, 72
1, 895991, Control_c, 0, 64, 90
1, 896006, Control_c, 0, 64, 104
1, 896021, Control_c, 0, 64, 121
1, 896036, Control_c, 0, 64, 127
1, 896100, Note_off_c, 0, 69, 64
1, 896106, Note_off_c, 0, 76, 66
1, 896109, Note_off_c, 0, 57, 59
1, 896121, Note_off_c, 0, 73, 58
1, 896132, Note_off_c, 0, 45, 62
1, 896169, Control_c, 0, 64, 81
1, 896184, Control_c, 0, 64, 58
1, 896199, Control_c, 0, 64, 0
1, 896498, Note_on_c, 0, 72, 91
1, 896499, Note_on_c, 0, 84, 85
1, 896501, Note_on_c, 0, 45, 98
1, 896502, Note_on_c, 0, 81, 82
1, 896503, Note_on_c, 0, 33, 91
1, 896532, Control_c, 0, 64, 69
1, 896546, Control_c, 0, 64, 111
1, 896561, Control_c, 0, 64, 127
1, 896618, Note_off_c, 0, 84, 58
1, 896630, Note_off_c, 0, 72, 59
1, 896637, Note_off_c, 0, 81, 59
1, 896763, Note_on_c, 0, 72, 60
1, 896768, Note_on_c, 0, 84, 50
1, 896772, Note_on_c, 0, 81, 55
1, 896778, Note_on_c, 0, 83, 46
1, 896780, Note_off_c, 0, 72, 68
1, 896792, Note_off_c, 0, 33, 55
1, 896792, Note_off_c, 0, 84, 63
1, 896793, Note_off_c, 0, 81, 62
1, 896803, Note_off_c, 0, 83, 56
1, 896826, Note_off_c, 0, 45, 59
1, 896844, Note_on_c, 0, 81, 74
1, 896846, Note_on_c, 0, 72, 63
1, 896862, Note_off_c, 0, 72, 67
1, 896867, Note_off_c, 0, 81, 68
1, 896889, Control_c, 0, 64, 100
1, 896904, Control_c, 0, 64, 66
1, 896918, Control_c, 0, 64, 0
1, 896923, Note_on_c, 0, 84, 87
1, 896927, Note_on_c, 0, 47, 96
1, 896930, Note_on_c, 0, 35, 90
1, 896930, Note_on_c, 0, 72, 81
1, 896933, Note_on_c, 0, 81, 82
1, 896992, Control_c, 0, 64, 8
1, 897007, Control_c, 0, 64, 55
1, 897022, Control_c, 0, 64, 64
1, 897033, Note_off_c, 0, 84, 58
1, 897036, Control_c, 0, 64, 66
1, 897042, Note_off_c, 0, 72, 64
1, 897051, Control_c, 0, 64, 67
1, 897057, Note_off_c, 0, 81, 61
1, 897081, Control_c, 0, 64, 68
1, 897096, Control_c, 0, 64, 69
1, 897110, Control_c, 0, 64, 70
1, 897125, Control_c, 0, 64, 71
1, 897138, Note_on_c, 0, 84, 74
1, 897140, Note_on_c, 0, 81, 71
1, 897140, Control_c, 0, 64, 72
1, 897144, Note_on_c, 0, 72, 65
1, 897155, Control_c, 0, 64, 74
1, 897159, Note_off_c, 0, 72, 68
1, 897160, Note_off_c, 0, 84, 71
1, 897163, Note_off_c, 0, 81, 68
1, 897169, Control_c, 0, 64, 76
1, 897172, Note_off_c, 0, 35, 60
1, 897184, Control_c, 0, 64, 77
1, 897199, Control_c, 0, 64, 78
1, 897214, Note_off_c, 0, 47, 56
1, 897222, Control_c, 0, 64, 79
1, 897226, Note_on_c, 0, 72, 71
1, 897230, Note_on_c, 0, 81, 78
1, 897232, Note_on_c, 0, 84, 75
1, 897237, Control_c, 0, 64, 79
1, 897250, Note_off_c, 0, 81, 67
1, 897251, Note_off_c, 0, 72, 67
1, 897251, Control_c, 0, 64, 78
1, 897255, Note_off_c, 0, 84, 68
1, 897266, Control_c, 0, 64, 68
1, 897281, Control_c, 0, 64, 0
1, 897294, Note_on_c, 0, 36, 88
1, 897294, Note_on_c, 0, 48, 93
1, 897303, Note_on_c, 0, 84, 89
1, 897307, Note_on_c, 0, 72, 80
1, 897313, Note_on_c, 0, 81, 80
1, 897369, Control_c, 0, 64, 53
1, 897384, Control_c, 0, 64, 64
1, 897399, Control_c, 0, 64, 69
1, 897400, Note_off_c, 0, 72, 64
1, 897401, Note_off_c, 0, 84, 61
1, 897414, Control_c, 0, 64, 73
1, 897422, Note_off_c, 0, 81, 60
1, 897429, Control_c, 0, 64, 75
1, 897443, Control_c, 0, 64, 78
1, 897458, Control_c, 0, 64, 80
1, 897473, Control_c, 0, 64, 82
1, 897488, Control_c, 0, 64, 84
1, 897503, Control_c, 0, 64, 85
1, 897505, Note_on_c, 0, 72, 81
1, 897509, Note_on_c, 0, 81, 79
1, 897511, Note_on_c, 0, 84, 71
1, 897513, Note_off_c, 0, 36, 57
1, 897518, Control_c, 0, 64, 87
1, 897533, Note_off_c, 0, 72, 65
1, 897533, Control_c, 0, 64, 91
1, 897533, Note_off_c, 0, 81, 64
1, 897536, Note_off_c, 0, 84, 63
1, 897547, Control_c, 0, 64, 98
1, 897559, Note_off_c, 0, 48, 57
1, 897562, Control_c, 0, 64, 110
1, 897577, Control_c, 0, 64, 127
1, 897586, Note_on_c, 0, 81, 77
1, 897590, Note_on_c, 0, 84, 81
1, 897596, Note_on_c, 0, 72, 69
1, 897615, Note_off_c, 0, 72, 73
1, 897622, Note_off_c, 0, 81, 59
1, 897628, Note_off_c, 0, 84, 61
1, 897652, Control_c, 0, 64, 83
1, 897658, Note_on_c, 0, 50, 103
1, 897659, Note_on_c, 0, 38, 89
1, 897666, Note_on_c, 0, 72, 80
1, 897667, Control_c, 0, 64, 50
1, 897669, Note_on_c, 0, 84, 69
1, 897673, Note_on_c, 0, 81, 73
1, 897682, Control_c, 0, 64, 0
1, 897697, Note_off_c, 0, 72, 62
1, 897705, Note_off_c, 0, 81, 63
1, 897711, Note_off_c, 0, 84, 64
1, 897741, Control_c, 0, 64, 56
1, 897756, Control_c, 0, 64, 66
1, 897769, Note_on_c, 0, 84, 80
1, 897771, Control_c, 0, 64, 74
1, 897774, Note_on_c, 0, 88, 79
1, 897777, Note_on_c, 0, 86, 69
1, 897785, Control_c, 0, 64, 86
1, 897800, Control_c, 0, 64, 100
1, 897813, Note_off_c, 0, 84, 55
1, 897815, Control_c, 0, 64, 127
1, 897845, Note_on_c, 0, 84, 47
1, 897849, Note_off_c, 0, 38, 60
1, 897853, Note_on_c, 0, 83, 80
1, 897868, Note_off_c, 0, 50, 56
1, 897869, Note_off_c, 0, 84, 58
1, 897871, Note_off_c, 0, 88, 61
1, 897919, Note_on_c, 0, 81, 86
1, 897920, Note_off_c, 0, 83, 61
1, 897923, Poly_aftertouch_c, 0, 42, 0
1, 897926, Note_off_c, 0, 86, 58
1, 897980, Note_off_c, 0, 81, 64
1, 898018, Note_on_c, 0, 83, 99
1, 898021, Note_on_c, 0, 40, 92
1, 898023, Note_on_c, 0, 52, 96
1, 898023, Note_on_c, 0, 80, 94
1, 898060, Control_c, 0, 64, 68
1, 898062, Note_off_c, 0, 40, 66
1, 898063, Note_off_c, 0, 83, 59
1, 898064, Note_off_c, 0, 80, 66
1, 898066, Note_off_c, 0, 52, 67
1, 898074, Control_c, 0, 64, 0
1, 898220, Note_on_c, 0, 84, 88
1, 898221, Note_on_c, 0, 81, 94
1, 898224, Note_on_c, 0, 57, 94
1, 898224, Note_on_c, 0, 45, 95
1, 898225, Note_on_c, 0, 76, 87
1, 898261, Note_off_c, 0, 57, 67
1, 898264, Note_off_c, 0, 76, 66
1, 898269, Note_off_c, 0, 45, 65
1, 898272, Note_off_c, 0, 84, 60
1, 898276, Note_off_c, 0, 81, 59
1, 898415, Note_on_c, 0, 83, 91
1, 898415, Note_on_c, 0, 52, 99
1, 898417, Note_on_c, 0, 80, 90
1, 898418, Note_on_c, 0, 40, 91
1, 898419, Note_on_c, 0, 76, 93
1, 898452, Note_off_c, 0, 40, 66
1, 898457, Note_off_c, 0, 76, 67
1, 898461, Note_off_c, 0, 80, 65
1, 898464, Note_off_c, 0, 52, 66
1, 898479, Note_off_c, 0, 83, 56
1, 898601, Note_on_c, 0, 84, 97
1, 898609, Note_on_c, 0, 81, 89
1, 898611, Note_on_c, 0, 57, 91
1, 898613, Note_on_c, 0, 76, 84
1, 898615, Note_on_c, 0, 45, 86
1, 898641, Note_off_c, 0, 81, 62
1, 898642, Note_off_c, 0, 76, 64
1, 898644, Note_off_c, 0, 45, 69
1, 898647, Note_off_c, 0, 84, 64
1, 898665, Note_off_c, 0, 57, 63
1, 898825, Note_on_c, 0, 56, 52
1, 898837, Note_on_c, 0, 52, 29
1, 898837, Note_on_c, 0, 71, 50
1, 898877, Note_off_c, 0, 71, 59
1, 898928, Note_on_c, 0, 64, 58
1, 898971, Note_off_c, 0, 52, 50
1, 898972, Note_off_c, 0, 56, 60
1, 898990, Note_off_c, 0, 64, 61
1, 899008, Note_on_c, 0, 48, 41
1, 899009, Note_on_c, 0, 72, 61
1, 899011, Note_on_c, 0, 57, 48
1, 899073, Note_off_c, 0, 72, 62
1, 899108, Note_on_c, 0, 64, 58
1, 899157, Note_off_c, 0, 57, 44
1, 899157, Note_off_c, 0, 64, 59
1, 899178, Note_off_c, 0, 48, 37
1, 899196, Note_on_c, 0, 56, 40
1, 899198, Note_on_c, 0, 71, 68
1, 899205, Note_on_c, 0, 52, 41
1, 899252, Note_off_c, 0, 71, 63
1, 899288, Note_on_c, 0, 64, 62
1, 899346, Note_off_c, 0, 64, 59
1, 899357, Note_off_c, 0, 56, 53
1, 899362, Note_on_c, 0, 48, 56
1, 899378, Note_on_c, 0, 57, 48
1, 899378, Note_on_c, 0, 72, 69
1, 899382, Note_off_c, 0, 52, 43
1, 899404, Note_off_c, 0, 48, 64
1, 899418, Note_off_c, 0, 57, 57
1, 899418, Note_off_c, 0, 72, 57
1, 899461, Note_on_c, 0, 64, 61
1, 899481, Note_off_c, 0, 64, 66
1, 899577, Note_on_c, 0, 83, 99
1, 899579, Note_on_c, 0, 40, 88
1, 899580, Note_on_c, 0, 80, 96
1, 899583, Note_on_c, 0, 52, 91
1, 899588, Note_on_c, 0, 76, 81
1, 899603, Note_off_c, 0, 80, 69
1, 899605, Note_off_c, 0, 76, 72
1, 899615, Note_off_c, 0, 40, 68
1, 899618, Note_off_c, 0, 83, 62
1, 899628, Note_off_c, 0, 52, 65
1, 899790, Note_on_c, 0, 84, 98
1, 899794, Note_on_c, 0, 81, 91
1, 899798, Note_on_c, 0, 57, 91
1, 899799, Note_on_c, 0, 76, 83
1, 899801, Note_on_c, 0, 45, 91
1, 899818, Note_off_c, 0, 76, 74
1, 899829, Note_off_c, 0, 81, 60
1, 899830, Note_off_c, 0, 84, 66
1, 899837, Note_off_c, 0, 57, 66
1, 899840, Note_off_c, 0, 45, 64
1, 899977, Note_on_c, 0, 83, 92
1, 899981, Note_on_c, 0, 80, 95
1, 899988, Note_on_c, 0, 76, 81
1, 899989, Note_on_c, 0, 52, 92
1, 899992, Note_on_c, 0, 40, 82
1, 900007, Note_off_c, 0, 76, 72
1, 900013, Note_off_c, 0, 80, 63
1, 900021, Note_off_c, 0, 40, 67
1, 900026, Note_off_c, 0, 83, 65
1, 900036, Note_off_c, 0, 52, 63
1, 900162, Note_on_c, 0, 84, 95
1, 900171, Note_on_c, 0, 81, 83
1, 900172, Note_on_c, 0, 45, 79
1, 900173, Note_on_c, 0, 76, 90
1, 900174, Note_on_c, 0, 57, 84
1, 900189, Note_off_c, 0, 81, 70
1, 900194, Control_c, 0, 64, 24
1, 900198, Note_off_c, 0, 76, 67
1, 900211, Note_off_c, 0, 45, 67
1, 900213, Note_off_c, 0, 84, 65
1, 900216, Control_c, 0, 64, 30
1, 900229, Note_off_c, 0, 57, 64
1, 900231, Control_c, 0, 64, 31
1, 900260, Control_c, 0, 64, 29
1, 900275, Control_c, 0, 64, 20
1, 900290, Control_c, 0, 64, 0
1, 900390, Note_on_c, 0, 56, 44
1, 900390, Note_on_c, 0, 71, 55
1, 900391, Note_on_c, 0, 52, 35
1, 900424, Control_c, 0, 67, 12
1, 900426, Note_off_c, 0, 71, 62
1, 900439, Control_c, 0, 67, 24
1, 900453, Control_c, 0, 67, 35
1, 900468, Control_c, 0, 67, 46
1, 900481, Note_on_c, 0, 64, 56
1, 900483, Control_c, 0, 67, 55
1, 900498, Control_c, 0, 67, 62
1, 900512, Control_c, 0, 67, 70
1, 900527, Control_c, 0, 67, 77
1, 900535, Note_off_c, 0, 56, 61
1, 900541, Note_off_c, 0, 52, 52
1, 900542, Control_c, 0, 67, 82
1, 900555, Note_off_c, 0, 64, 61
1, 900557, Control_c, 0, 67, 87
1, 900571, Note_on_c, 0, 48, 45
1, 900572, Note_on_c, 0, 57, 41
1, 900572, Control_c, 0, 67, 92
1, 900574, Note_on_c, 0, 72, 60
1, 900586, Control_c, 0, 67, 96
1, 900601, Control_c, 0, 67, 100
1, 900616, Control_c, 0, 67, 103
1, 900631, Control_c, 0, 67, 105
1, 900646, Control_c, 0, 67, 105
1, 900649, Note_off_c, 0, 72, 60
1, 900663, Note_on_c, 0, 64, 59
1, 900690, Control_c, 0, 67, 106
1, 900728, Note_off_c, 0, 57, 45
1, 900734, Control_c, 0, 67, 107
1, 900736, Note_off_c, 0, 48, 55
1, 900736, Note_off_c, 0, 64, 61
1, 900749, Control_c, 0, 67, 110
1, 900749, Note_on_c, 0, 56, 51
1, 900756, Note_on_c, 0, 71, 70
1, 900761, Note_on_c, 0, 52, 48
1, 900764, Control_c, 0, 67, 115
1, 900779, Control_c, 0, 67, 120
1, 900794, Control_c, 0, 67, 125
1, 900809, Control_c, 0, 67, 127
1, 900827, Note_off_c, 0, 71, 59
1, 900851, Note_on_c, 0, 64, 62
1, 900898, Control_c, 0, 64, 34
1, 900900, Note_on_c, 0, 48, 56
1, 900902, Note_off_c, 0, 64, 58
1, 900903, Note_off_c, 0, 52, 57
1, 900913, Control_c, 0, 64, 47
1, 900919, Note_off_c, 0, 56, 56
1, 900920, Note_on_c, 0, 57, 52
1, 900927, Control_c, 0, 64, 52
1, 900940, Note_on_c, 0, 72, 57
1, 900942, Control_c, 0, 64, 55
1, 900959, Note_off_c, 0, 48, 59
1, 900964, Control_c, 0, 64, 57
1, 900972, Note_off_c, 0, 57, 58
1, 900979, Control_c, 0, 64, 58
1, 900984, Note_off_c, 0, 72, 62
1, 900994, Control_c, 0, 64, 60
1, 901008, Control_c, 0, 64, 60
1, 901020, Note_on_c, 0, 64, 64
1, 901023, Control_c, 0, 64, 61
1, 901038, Control_c, 0, 64, 61
1, 901083, Control_c, 0, 64, 60
1, 901089, Note_off_c, 0, 64, 62
1, 901098, Control_c, 0, 64, 58
1, 901113, Control_c, 0, 64, 51
1, 901127, Control_c, 0, 64, 36
1, 901142, Control_c, 0, 64, 0
1, 901143, Note_on_c, 0, 56, 59
1, 901144, Note_on_c, 0, 71, 61
1, 901151, Note_on_c, 0, 52, 50
1, 901223, Note_off_c, 0, 71, 61
1, 901230, Note_on_c, 0, 72, 62
1, 901262, Note_off_c, 0, 72, 59
1, 901328, Note_on_c, 0, 72, 72
1, 901343, Note_on_c, 0, 57, 57
1, 901373, Note_off_c, 0, 56, 54
1, 901406, Note_off_c, 0, 72, 61
1, 901418, Note_on_c, 0, 74, 68
1, 901447, Note_off_c, 0, 74, 64
1, 901532, Note_off_c, 0, 57, 62
1, 901540, Note_on_c, 0, 74, 76
1, 901553, Note_on_c, 0, 59, 54
1, 901648, Note_off_c, 0, 74, 50
1, 901661, Note_on_c, 0, 76, 67
1, 901709, Note_off_c, 0, 76, 60
1, 901790, Note_off_c, 0, 59, 49
1, 901822, Note_on_c, 0, 62, 38
1, 901826, Note_on_c, 0, 76, 60
1, 901891, Control_c, 0, 64, 18
1, 901906, Control_c, 0, 64, 41
1, 901920, Control_c, 0, 64, 52
1, 901935, Control_c, 0, 64, 58
1, 901950, Note_off_c, 0, 52, 40
1, 901950, Control_c, 0, 64, 62
1, 901953, Note_off_c, 0, 76, 61
1, 901965, Control_c, 0, 64, 63
1, 901972, Note_on_c, 0, 77, 54
1, 901980, Control_c, 0, 64, 64
1, 901995, Control_c, 0, 64, 65
1, 902010, Control_c, 0, 64, 66
1, 902025, Control_c, 0, 64, 67
1, 902099, Control_c, 0, 64, 66
1, 902113, Control_c, 0, 64, 65
1, 902128, Control_c, 0, 64, 64
1, 902141, Note_on_c, 0, 76, 60
1, 902143, Control_c, 0, 64, 62
1, 902156, Note_on_c, 0, 60, 42
1, 902157, Control_c, 0, 64, 57
1, 902159, Note_off_c, 0, 62, 43
1, 902172, Control_c, 0, 64, 46
1, 902187, Control_c, 0, 64, 0
1, 902191, Note_off_c, 0, 77, 37
1, 902204, Note_off_c, 0, 76, 63
1, 902234, Note_on_c, 0, 64, 51
1, 902286, Note_off_c, 0, 64, 55
1, 902320, Note_off_c, 0, 60, 53
1, 902333, Note_on_c, 0, 74, 52
1, 902346, Note_on_c, 0, 59, 37
1, 902376, Note_off_c, 0, 74, 57
1, 902417, Note_on_c, 0, 64, 46
1, 902497, Note_off_c, 0, 64, 55
1, 902524, Note_on_c, 0, 57, 43
1, 902534, Note_on_c, 0, 72, 53
1, 902538, Note_off_c, 0, 59, 36
1, 902575, Note_off_c, 0, 72, 59
1, 902622, Note_on_c, 0, 64, 44
1, 902675, Note_off_c, 0, 64, 60
1, 902677, Note_off_c, 0, 57, 59
1, 902711, Note_on_c, 0, 62, 47
1, 902713, Note_on_c, 0, 71, 48
1, 902761, Note_off_c, 0, 71, 60
1, 902808, Note_on_c, 0, 64, 49
1, 902910, Note_on_c, 0, 60, 52
1, 902911, Note_on_c, 0, 71, 52
1, 902911, Note_off_c, 0, 62, 53
1, 902911, Note_off_c, 0, 64, 54
1, 903008, Note_on_c, 0, 69, 56
1, 903011, Note_off_c, 0, 71, 48
1, 903056, Note_off_c, 0, 69, 62
1, 903091, Note_on_c, 0, 64, 59
1, 903105, Note_on_c, 0, 57, 48
1, 903202, Note_on_c, 0, 69, 56
1, 903211, Note_off_c, 0, 64, 58
1, 903288, Note_off_c, 0, 60, 41
1, 903296, Note_on_c, 0, 56, 48
1, 903298, Note_on_c, 0, 72, 65
1, 903298, Note_off_c, 0, 69, 62
1, 903313, Note_off_c, 0, 57, 38
1, 903375, Control_c, 0, 67, 126
1, 903387, Note_on_c, 0, 71, 60
1, 903390, Control_c, 0, 67, 114
1, 903404, Control_c, 0, 67, 98
1, 903419, Control_c, 0, 67, 80
1, 903430, Note_off_c, 0, 72, 59
1, 903434, Control_c, 0, 67, 61
1, 903449, Control_c, 0, 67, 42
1, 903460, Note_off_c, 0, 71, 59
1, 903464, Control_c, 0, 67, 33
1, 903471, Note_on_c, 0, 52, 55
1, 903474, Note_on_c, 0, 64, 59
1, 903478, Control_c, 0, 67, 32
1, 903502, Note_off_c, 0, 56, 62
1, 903508, Control_c, 0, 67, 33
1, 903522, Control_c, 0, 67, 34
1, 903537, Control_c, 0, 67, 35
1, 903552, Control_c, 0, 67, 36
1, 903567, Control_c, 0, 67, 38
1, 903569, Note_on_c, 0, 71, 59
1, 903582, Control_c, 0, 67, 40
1, 903597, Control_c, 0, 67, 41
1, 903599, Note_off_c, 0, 64, 52
1, 903611, Control_c, 0, 67, 43
1, 903626, Control_c, 0, 67, 46
1, 903641, Control_c, 0, 67, 51
1, 903656, Control_c, 0, 67, 58
1, 903669, Note_on_c, 0, 60, 59
1, 903671, Control_c, 0, 67, 65
1, 903682, Note_off_c, 0, 71, 60
1, 903684, Note_on_c, 0, 68, 55
1, 903685, Control_c, 0, 67, 72
1, 903700, Control_c, 0, 67, 81
1, 903715, Control_c, 0, 67, 90
1, 903721, Note_off_c, 0, 52, 37
1, 903730, Control_c, 0, 67, 99
1, 903745, Control_c, 0, 67, 107
1, 903758, Note_on_c, 0, 69, 60
1, 903760, Control_c, 0, 67, 117
1, 903775, Control_c, 0, 67, 125
1, 903789, Control_c, 0, 67, 127
1, 903793, Note_off_c, 0, 68, 38
1, 903820, Note_off_c, 0, 69, 65
1, 903856, Note_on_c, 0, 64, 61
1, 903867, Note_on_c, 0, 57, 57
1, 903937, Note_off_c, 0, 60, 53
1, 903959, Note_off_c, 0, 64, 58
1, 903973, Note_on_c, 0, 69, 59
1, 904046, Note_off_c, 0, 69, 58
1, 904062, Note_on_c, 0, 56, 61
1, 904067, Note_on_c, 0, 72, 59
1, 904090, Note_off_c, 0, 57, 58
1, 904150, Note_on_c, 0, 71, 61
1, 904155, Note_off_c, 0, 72, 61
1, 904183, Control_c, 0, 64, 19
1, 904198, Control_c, 0, 64, 30
1, 904211, Note_off_c, 0, 71, 56
1, 904213, Control_c, 0, 64, 34
1, 904227, Control_c, 0, 64, 36
1, 904228, Note_on_c, 0, 52, 56
1, 904238, Note_on_c, 0, 64, 63
1, 904242, Control_c, 0, 64, 36
1, 904257, Control_c, 0, 64, 37
1, 904263, Note_off_c, 0, 56, 59
1, 904272, Control_c, 0, 64, 38
1, 904301, Control_c, 0, 64, 38
1, 904313, Note_off_c, 0, 64, 61
1, 904316, Control_c, 0, 64, 39
1, 904336, Note_on_c, 0, 71, 54
1, 904360, Control_c, 0, 64, 38
1, 904375, Control_c, 0, 64, 38
1, 904383, Note_off_c, 0, 71, 54
1, 904390, Control_c, 0, 64, 36
1, 904451, Note_on_c, 0, 67, 71
1, 904453, Note_on_c, 0, 74, 56
1, 904523, Control_c, 0, 64, 37
1, 904538, Control_c, 0, 64, 38
1, 904552, Control_c, 0, 64, 39
1, 904553, Note_on_c, 0, 72, 62
1, 904562, Note_off_c, 0, 74, 55
1, 904567, Control_c, 0, 64, 41
1, 904582, Control_c, 0, 64, 43
1, 904589, Note_on_c, 0, 50, 38
1, 904597, Control_c, 0, 64, 44
1, 904612, Control_c, 0, 64, 46
1, 904626, Note_on_c, 0, 71, 75
1, 904626, Control_c, 0, 64, 46
1, 904627, Note_off_c, 0, 72, 63
1, 904641, Control_c, 0, 64, 47
1, 904655, Note_off_c, 0, 67, 50
1, 904670, Control_c, 0, 64, 47
1, 904685, Control_c, 0, 64, 48
1, 904708, Control_c, 0, 64, 48
1, 904719, Note_on_c, 0, 72, 67
1, 904735, Note_off_c, 0, 50, 54
1, 904736, Note_on_c, 0, 48, 48
1, 904737, Control_c, 0, 64, 49
1, 904752, Control_c, 0, 64, 49
1, 904804, Note_on_c, 0, 74, 72
1, 904810, Note_off_c, 0, 72, 62
1, 904812, Control_c, 0, 64, 49
1, 904816, Note_off_c, 0, 71, 50
1, 904827, Control_c, 0, 64, 48
1, 904833, Note_off_c, 0, 48, 59
1, 904842, Control_c, 0, 64, 48
1, 904843, Note_on_c, 0, 47, 56
1, 904868, Note_off_c, 0, 74, 62
1, 904872, Control_c, 0, 64, 47
1, 904886, Control_c, 0, 64, 46
1, 904893, Note_on_c, 0, 67, 68
1, 904901, Control_c, 0, 64, 46
1, 904931, Control_c, 0, 64, 45
1, 904946, Control_c, 0, 64, 45
1, 904961, Control_c, 0, 64, 44
1, 904975, Control_c, 0, 64, 43
1, 904979, Note_off_c, 0, 67, 55
1, 904989, Note_on_c, 0, 75, 66
1, 904990, Control_c, 0, 64, 43
1, 904997, Note_off_c, 0, 47, 58
1, 905005, Control_c, 0, 64, 41
1, 905011, Note_on_c, 0, 43, 47
1, 905020, Control_c, 0, 64, 39
1, 905035, Control_c, 0, 64, 38
1, 905049, Control_c, 0, 64, 35
1, 905062, Note_off_c, 0, 75, 60
1, 905064, Control_c, 0, 64, 33
1, 905079, Control_c, 0, 64, 30
1, 905084, Note_on_c, 0, 67, 67
1, 905093, Control_c, 0, 64, 27
1, 905108, Control_c, 0, 64, 23
1, 905123, Control_c, 0, 64, 20
1, 905138, Control_c, 0, 64, 15
1, 905153, Control_c, 0, 64, 10
1, 905160, Note_off_c, 0, 52, 50
1, 905161, Note_off_c, 0, 67, 59
1, 905167, Control_c, 0, 64, 0
1, 905180, Note_on_c, 0, 76, 64
1, 905183, Note_on_c, 0, 48, 56
1, 905244, Note_off_c, 0, 76, 60
1, 905270, Note_on_c, 0, 67, 64
1, 905345, Note_off_c, 0, 67, 59
1, 905357, Note_on_c, 0, 77, 67
1, 905357, Note_off_c, 0, 43, 39
1, 905368, Note_on_c, 0, 50, 58
1, 905413, Note_off_c, 0, 48, 58
1, 905429, Note_off_c, 0, 77, 60
1, 905450, Note_on_c, 0, 67, 65
1, 905526, Note_off_c, 0, 50, 61
1, 905529, Note_off_c, 0, 67, 56
1, 905539, Note_on_c, 0, 79, 68
1, 905548, Note_on_c, 0, 52, 62
1, 905632, Note_off_c, 0, 79, 48
1, 905633, Note_on_c, 0, 67, 67
1, 905702, Note_off_c, 0, 67, 59
1, 905722, Note_on_c, 0, 53, 53
1, 905729, Note_off_c, 0, 52, 59
1, 905737, Note_on_c, 0, 81, 59
1, 905808, Note_off_c, 0, 81, 56
1, 905843, Note_on_c, 0, 71, 56
1, 905897, Note_off_c, 0, 53, 62
1, 905902, Note_on_c, 0, 52, 52
1, 905920, Note_on_c, 0, 79, 64
1, 905942, Note_off_c, 0, 71, 53
1, 906018, Note_on_c, 0, 72, 62
1, 906024, Note_off_c, 0, 79, 57
1, 906086, Note_on_c, 0, 56, 58
1, 906100, Note_on_c, 0, 77, 69
1, 906119, Note_off_c, 0, 52, 61
1, 906119, Note_off_c, 0, 72, 59
1, 906170, Note_off_c, 0, 77, 61
1, 906201, Note_on_c, 0, 71, 58
1, 906284, Note_on_c, 0, 76, 68
1, 906287, Note_off_c, 0, 71, 56
1, 906291, Note_on_c, 0, 57, 59
1, 906302, Note_off_c, 0, 56, 57
1, 906371, Note_on_c, 0, 72, 66
1, 906392, Note_off_c, 0, 76, 57
1, 906436, Note_off_c, 0, 57, 61
1, 906446, Note_off_c, 0, 72, 60
1, 906468, Note_on_c, 0, 65, 65
1, 906472, Note_on_c, 0, 74, 62
1, 906503, Control_c, 0, 64, 8
1, 906565, Note_on_c, 0, 69, 62
1, 906565, Note_off_c, 0, 74, 62
1, 906577, Control_c, 0, 64, 0
1, 906627, Note_off_c, 0, 69, 64
1, 906641, Note_on_c, 0, 64, 78
1, 906681, Control_c, 0, 64, 19
1, 906690, Note_off_c, 0, 65, 59
1, 906696, Control_c, 0, 64, 34
1, 906711, Control_c, 0, 64, 49
1, 906714, Note_on_c, 0, 72, 14
1, 906726, Control_c, 0, 64, 59
1, 906734, Note_on_c, 0, 69, 72
1, 906740, Control_c, 0, 64, 63
1, 906755, Control_c, 0, 64, 64
1, 906761, Note_off_c, 0, 72, 38
1, 906770, Control_c, 0, 64, 65
1, 906792, Note_off_c, 0, 69, 57
1, 906821, Note_on_c, 0, 57, 52
1, 906828, Note_off_c, 0, 64, 50
1, 906830, Note_on_c, 0, 53, 59
1, 906848, Note_on_c, 0, 74, 42
1, 906869, Note_off_c, 0, 57, 62
1, 906881, Note_off_c, 0, 53, 65
1, 906887, Note_off_c, 0, 74, 65
1, 906907, Note_on_c, 0, 69, 57
1, 906950, Note_off_c, 0, 69, 59
1, 906985, Control_c, 0, 64, 63
1, 907000, Control_c, 0, 64, 59
1, 907015, Control_c, 0, 64, 36
1, 907018, Note_on_c, 0, 60, 67
1, 907021, Note_on_c, 0, 76, 63
1, 907024, Note_on_c, 0, 57, 55
1, 907024, Note_on_c, 0, 52, 64
1, 907029, Control_c, 0, 64, 0
1, 907105, Note_off_c, 0, 60, 60
1, 907125, Note_off_c, 0, 76, 60
1, 907143, Note_on_c, 0, 64, 24
1, 907147, Control_c, 0, 64, 36
1, 907162, Control_c, 0, 64, 51
1, 907178, Control_c, 0, 64, 56
1, 907193, Control_c, 0, 64, 58
1, 907208, Control_c, 0, 64, 59
1, 907211, Note_off_c, 0, 57, 49
1, 907212, Note_off_c, 0, 64, 48
1, 907221, Note_off_c, 0, 52, 57
1, 907223, Control_c, 0, 64, 61
1, 907227, Note_on_c, 0, 76, 70
1, 907229, Note_on_c, 0, 56, 52
1, 907234, Note_on_c, 0, 59, 63
1, 907238, Control_c, 0, 64, 61
1, 907264, Note_off_c, 0, 56, 63
1, 907296, Control_c, 0, 64, 62
1, 907307, Note_on_c, 0, 77, 71
1, 907326, Control_c, 0, 64, 61
1, 907335, Note_off_c, 0, 76, 59
1, 907341, Control_c, 0, 64, 60
1, 907352, Note_off_c, 0, 77, 58
1, 907356, Control_c, 0, 64, 57
1, 907370, Control_c, 0, 64, 47
1, 907385, Control_c, 0, 64, 0
1, 907395, Note_off_c, 0, 59, 38
1, 907402, Note_on_c, 0, 60, 67
1, 907408, Note_on_c, 0, 77, 76
1, 907474, Note_off_c, 0, 77, 60
1, 907492, Note_on_c, 0, 76, 76
1, 907529, Note_off_c, 0, 76, 62
1, 907573, Note_on_c, 0, 76, 68
1, 907584, Note_on_c, 0, 59, 58
1, 907587, Note_off_c, 0, 60, 57
1, 907638, Note_off_c, 0, 76, 65
1, 907657, Note_on_c, 0, 74, 75
1, 907701, Note_off_c, 0, 74, 60
1, 907752, Note_on_c, 0, 57, 62
1, 907764, Note_on_c, 0, 74, 74
1, 907781, Note_off_c, 0, 59, 38
1, 907823, Note_off_c, 0, 74, 63
1, 907852, Note_on_c, 0, 72, 69
1, 907884, Note_off_c, 0, 72, 63
1, 907932, Note_off_c, 0, 57, 60
1, 907948, Note_on_c, 0, 62, 65
1, 907957, Note_on_c, 0, 72, 47
1, 907998, Note_off_c, 0, 72, 65
1, 908035, Note_on_c, 0, 71, 66
1, 908065, Note_off_c, 0, 71, 62
1, 908088, Note_off_c, 0, 62, 55
1, 908122, Note_on_c, 0, 60, 75
1, 908139, Note_on_c, 0, 71, 84
1, 908149, Control_c, 0, 67, 117
1, 908164, Control_c, 0, 67, 100
1, 908168, Note_off_c, 0, 60, 58
1, 908179, Control_c, 0, 67, 77
1, 908193, Control_c, 0, 67, 50
1, 908208, Control_c, 0, 67, 30
1, 908223, Control_c, 0, 67, 16
1, 908236, Note_on_c, 0, 69, 71
1, 908238, Control_c, 0, 67, 8
1, 908253, Control_c, 0, 67, 0
1, 908278, Note_off_c, 0, 71, 59
1, 908322, Note_off_c, 0, 69, 65
1, 908327, Note_on_c, 0, 68, 65
1, 908331, Note_on_c, 0, 57, 59
1, 908362, Note_off_c, 0, 57, 64
1, 908407, Note_on_c, 0, 69, 44
1, 908411, Note_off_c, 0, 68, 58
1, 908508, Note_off_c, 0, 69, 62
1, 908539, Note_on_c, 0, 74, 78
1, 908544, Note_on_c, 0, 55, 84
1, 908546, Note_on_c, 0, 72, 72
1, 908577, Note_off_c, 0, 55, 64
1, 908641, Note_on_c, 0, 71, 62
1, 908721, Note_off_c, 0, 71, 60
1, 908739, Note_on_c, 0, 69, 64
1, 908743, Note_off_c, 0, 72, 36
1, 908751, Note_on_c, 0, 53, 73
1, 908777, Note_off_c, 0, 53, 68
1, 908837, Note_off_c, 0, 74, 63
1, 908843, Note_on_c, 0, 71, 62
1, 908904, Note_off_c, 0, 69, 58
1, 908915, Note_off_c, 0, 71, 61
1, 908940, Note_on_c, 0, 76, 85
1, 908943, Note_on_c, 0, 52, 98
1, 908947, Note_on_c, 0, 74, 75
1, 908981, Note_off_c, 0, 52, 70
1, 909057, Note_on_c, 0, 72, 71
1, 909105, Note_off_c, 0, 74, 59
1, 909112, Note_off_c, 0, 76, 60
1, 909139, Note_off_c, 0, 72, 63
1, 909143, Note_on_c, 0, 48, 83
1, 909152, Note_on_c, 0, 71, 73
1, 909165, Note_off_c, 0, 48, 67
1, 909258, Note_on_c, 0, 72, 55
1, 909293, Note_off_c, 0, 72, 57
1, 909340, Note_on_c, 0, 78, 81
1, 909345, Note_on_c, 0, 47, 96
1, 909354, Note_off_c, 0, 71, 54
1, 909362, Note_on_c, 0, 76, 49
1, 909367, Note_on_c, 0, 77, 61
1, 909383, Note_off_c, 0, 47, 68
1, 909438, Note_on_c, 0, 75, 74
1, 909442, Note_off_c, 0, 77, 52
1, 909461, Note_off_c, 0, 76, 56
1, 909506, Note_off_c, 0, 75, 62
1, 909528, Note_on_c, 0, 73, 73
1, 909537, Note_on_c, 0, 45, 77
1, 909543, Note_off_c, 0, 78, 61
1, 909560, Note_off_c, 0, 45, 68
1, 909654, Note_off_c, 0, 73, 60
1, 909656, Note_on_c, 0, 76, 57
1, 909686, Note_off_c, 0, 76, 66
1, 909720, Note_on_c, 0, 79, 83
1, 909726, Note_on_c, 0, 43, 96
1, 909726, Note_on_c, 0, 78, 84
1, 909764, Note_off_c, 0, 43, 65
1, 909826, Note_off_c, 0, 79, 61
1, 909829, Note_on_c, 0, 76, 79
1, 909859, Note_off_c, 0, 78, 62
1, 909907, Note_off_c, 0, 76, 64
1, 909922, Note_on_c, 0, 40, 85
1, 909925, Note_on_c, 0, 75, 80
1, 909954, Note_off_c, 0, 40, 68
1, 910021, Note_on_c, 0, 76, 65
1, 910036, Note_off_c, 0, 75, 58
1, 910073, Note_off_c, 0, 76, 66
1, 910108, Note_on_c, 0, 81, 86
1, 910115, Note_on_c, 0, 38, 99
1, 910118, Note_on_c, 0, 79, 79
1, 910157, Note_off_c, 0, 38, 67
1, 910198, Note_on_c, 0, 78, 77
1, 910211, Note_off_c, 0, 79, 59
1, 910288, Note_off_c, 0, 78, 62
1, 910297, Note_on_c, 0, 76, 74
1, 910311, Note_on_c, 0, 36, 77
1, 910342, Note_off_c, 0, 36, 67
1, 910348, Note_off_c, 0, 81, 52
1, 910383, Note_on_c, 0, 78, 82
1, 910452, Note_off_c, 0, 76, 64
1, 910496, Note_on_c, 0, 75, 92
1, 910499, Note_on_c, 0, 35, 94
1, 910541, Note_off_c, 0, 35, 69
1, 910559, Note_off_c, 0, 78, 60
1, 910592, Note_on_c, 0, 83, 82
1, 910611, Note_off_c, 0, 75, 61
1, 910691, Note_on_c, 0, 33, 84
1, 910693, Note_on_c, 0, 76, 82
1, 910702, Note_off_c, 0, 83, 58
1, 910721, Note_off_c, 0, 33, 70
1, 910777, Note_on_c, 0, 84, 78
1, 910786, Note_off_c, 0, 76, 65
1, 910885, Note_on_c, 0, 76, 92
1, 910888, Note_on_c, 0, 35, 95
1, 910902, Note_off_c, 0, 84, 64
1, 910929, Note_off_c, 0, 35, 67
1, 910976, Note_on_c, 0, 79, 78
1, 911018, Note_off_c, 0, 76, 60
1, 911078, Note_on_c, 0, 35, 82
1, 911081, Note_on_c, 0, 75, 79
1, 911096, Note_off_c, 0, 79, 58
1, 911099, Note_off_c, 0, 35, 69
1, 911166, Note_on_c, 0, 78, 78
1, 911220, Note_off_c, 0, 75, 59
1, 911242, Note_off_c, 0, 78, 63
1, 911261, Note_on_c, 0, 42, 91
1, 911265, Note_on_c, 0, 76, 92
1, 911313, Note_off_c, 0, 76, 67
1, 911346, Note_off_c, 0, 42, 61
1, 911356, Note_on_c, 0, 40, 77
1, 911440, Note_off_c, 0, 40, 62
1, 911459, Note_on_c, 0, 39, 66
1, 911465, Note_on_c, 0, 88, 88
1, 911471, Note_on_c, 0, 76, 75
1, 911494, Note_off_c, 0, 76, 68
1, 911500, Note_off_c, 0, 88, 64
1, 911561, Note_on_c, 0, 40, 63
1, 911561, Note_off_c, 0, 39, 51
1, 911628, Note_off_c, 0, 40, 65
1, 911653, Note_on_c, 0, 43, 77
1, 911657, Note_on_c, 0, 86, 102
1, 911659, Note_on_c, 0, 74, 88
1, 911704, Note_off_c, 0, 74, 68
1, 911730, Note_off_c, 0, 86, 61
1, 911731, Note_off_c, 0, 43, 56
1, 911744, Note_on_c, 0, 42, 73
1, 911813, Note_off_c, 0, 42, 62
1, 911852, Note_on_c, 0, 84, 83
1, 911856, Note_on_c, 0, 40, 41
1, 911861, Note_on_c, 0, 72, 64
1, 911865, Note_on_c, 0, 41, 44
1, 911886, Note_off_c, 0, 72, 69
1, 911890, Note_off_c, 0, 84, 61
1, 911912, Note_off_c, 0, 41, 51
1, 911921, Note_on_c, 0, 42, 74
1, 911924, Note_off_c, 0, 40, 55
1, 912011, Note_off_c, 0, 42, 63
1, 912027, Note_on_c, 0, 45, 76
1, 912035, Note_on_c, 0, 83, 95
1, 912038, Note_on_c, 0, 71, 93
1, 912079, Note_on_c, 0, 75, 18
1, 912080, Note_off_c, 0, 75, 127
1, 912081, Note_off_c, 0, 71, 64
1, 912090, Note_off_c, 0, 83, 61
1, 912133, Note_off_c, 0, 45, 56
1, 912139, Note_on_c, 0, 43, 67
1, 912205, Note_off_c, 0, 43, 61
1, 912228, Note_on_c, 0, 42, 72
1, 912231, Note_on_c, 0, 79, 82
1, 912237, Note_on_c, 0, 67, 72
1, 912270, Note_off_c, 0, 67, 60
1, 912280, Note_off_c, 0, 79, 62
1, 912330, Note_off_c, 0, 42, 58
1, 912333, Note_on_c, 0, 43, 67
1, 912392, Note_off_c, 0, 43, 62
1, 912413, Note_on_c, 0, 78, 95
1, 912416, Note_on_c, 0, 66, 95
1, 912425, Note_on_c, 0, 47, 75
1, 912454, Note_off_c, 0, 66, 68
1, 912458, Note_off_c, 0, 78, 65
1, 912520, Note_off_c, 0, 47, 63
1, 912521, Note_on_c, 0, 46, 71
1, 912585, Note_off_c, 0, 46, 63
1, 912608, Note_on_c, 0, 64, 79
1, 912611, Note_on_c, 0, 44, 65
1, 912611, Note_on_c, 0, 76, 84
1, 912654, Note_off_c, 0, 64, 60
1, 912658, Note_off_c, 0, 76, 63
1, 912694, Note_on_c, 0, 46, 82
1, 912731, Note_off_c, 0, 44, 54
1, 912787, Note_off_c, 0, 46, 63
1, 912793, Note_on_c, 0, 74, 90
1, 912795, Note_on_c, 0, 62, 96
1, 912798, Note_on_c, 0, 49, 85
1, 912838, Note_off_c, 0, 62, 64
1, 912857, Note_off_c, 0, 74, 65
1, 912893, Note_on_c, 0, 47, 75
1, 912904, Note_off_c, 0, 49, 59
1, 912971, Note_off_c, 0, 47, 62
1, 912980, Note_on_c, 0, 46, 73
1, 912981, Note_on_c, 0, 83, 84
1, 912989, Note_on_c, 0, 71, 76
1, 913042, Note_off_c, 0, 71, 62
1, 913054, Note_off_c, 0, 83, 59
1, 913069, Note_on_c, 0, 47, 83
1, 913151, Note_off_c, 0, 46, 60
1, 913170, Note_off_c, 0, 47, 63
1, 913182, Note_on_c, 0, 50, 82
1, 913185, Note_on_c, 0, 81, 95
1, 913188, Note_on_c, 0, 69, 86
1, 913256, Control_c, 0, 64, 10
1, 913271, Control_c, 0, 64, 23
1, 913272, Note_off_c, 0, 69, 58
1, 913275, Note_off_c, 0, 81, 59
1, 913278, Note_on_c, 0, 49, 82
1, 913286, Control_c, 0, 64, 32
1, 913301, Note_off_c, 0, 50, 62
1, 913301, Control_c, 0, 64, 40
1, 913315, Control_c, 0, 64, 47
1, 913330, Control_c, 0, 64, 50
1, 913345, Control_c, 0, 64, 51
1, 913368, Note_on_c, 0, 47, 71
1, 913370, Note_off_c, 0, 49, 58
1, 913371, Note_on_c, 0, 79, 90
1, 913376, Note_on_c, 0, 67, 86
1, 913389, Control_c, 0, 64, 51
1, 913404, Control_c, 0, 64, 50
1, 913448, Control_c, 0, 64, 50
1, 913450, Note_off_c, 0, 79, 61
1, 913451, Note_off_c, 0, 67, 60
1, 913463, Control_c, 0, 64, 50
1, 913477, Note_on_c, 0, 49, 75
1, 913493, Control_c, 0, 64, 51
1, 913501, Note_off_c, 0, 47, 64
1, 913507, Control_c, 0, 64, 48
1, 913522, Control_c, 0, 64, 32
1, 913537, Control_c, 0, 64, 0
1, 913560, Note_on_c, 0, 50, 79
1, 913560, Note_on_c, 0, 78, 92
1, 913564, Note_on_c, 0, 66, 88
1, 913616, Note_off_c, 0, 66, 66
1, 913647, Note_off_c, 0, 78, 59
1, 913659, Note_on_c, 0, 54, 80
1, 913689, Note_off_c, 0, 49, 38
1, 913695, Note_off_c, 0, 50, 59
1, 913745, Note_off_c, 0, 54, 59
1, 913755, Note_on_c, 0, 45, 83
1, 913762, Note_on_c, 0, 81, 76
1, 913763, Note_on_c, 0, 72, 84
1, 913765, Note_on_c, 0, 78, 79
1, 913765, Note_on_c, 0, 83, 80
1, 913824, Note_off_c, 0, 83, 59
1, 913844, Note_on_c, 0, 54, 81
1, 913845, Note_off_c, 0, 72, 63
1, 913858, Note_off_c, 0, 78, 60
1, 913859, Note_off_c, 0, 81, 59
1, 913875, Note_off_c, 0, 45, 65
1, 913908, Note_off_c, 0, 54, 60
1, 913947, Note_on_c, 0, 47, 95
1, 913954, Note_on_c, 0, 76, 89
1, 913954, Note_on_c, 0, 79, 88
1, 913954, Note_on_c, 0, 71, 85
1, 913975, Control_c, 0, 64, 43
1, 913990, Control_c, 0, 64, 0
1, 914031, Note_on_c, 0, 55, 83
1, 914034, Note_off_c, 0, 47, 65
1, 914041, Note_off_c, 0, 71, 58
1, 914056, Note_off_c, 0, 76, 59
1, 914078, Note_off_c, 0, 79, 53
1, 914087, Note_off_c, 0, 55, 64
1, 914124, Note_on_c, 0, 47, 90
1, 914145, Note_on_c, 0, 71, 87
1, 914145, Note_on_c, 0, 75, 77
1, 914146, Note_on_c, 0, 78, 92
1, 914194, Note_off_c, 0, 71, 62
1, 914200, Note_off_c, 0, 75, 65
1, 914214, Note_on_c, 0, 59, 79
1, 914225, Note_off_c, 0, 78, 61
1, 914247, Note_off_c, 0, 59, 62
1, 914252, Note_off_c, 0, 47, 63
1, 914342, Note_on_c, 0, 76, 100
1, 914344, Note_on_c, 0, 64, 93
1, 914345, Control_c, 0, 64, 65
1, 914350, Note_on_c, 0, 40, 85
1, 914350, Note_on_c, 0, 52, 93
1, 914361, Control_c, 0, 64, 72
1, 914376, Control_c, 0, 64, 77
1, 914381, Note_off_c, 0, 40, 68
1, 914384, Note_off_c, 0, 64, 68
1, 914391, Control_c, 0, 64, 81
1, 914392, Note_off_c, 0, 52, 68
1, 914398, Note_off_c, 0, 76, 65
1, 914406, Control_c, 0, 64, 87
1, 914421, Control_c, 0, 64, 94
1, 914443, Control_c, 0, 64, 98
1, 914458, Control_c, 0, 64, 98
1, 914517, Control_c, 0, 64, 98
1, 914532, Control_c, 0, 64, 97
1, 914547, Control_c, 0, 64, 85
1, 914561, Control_c, 0, 64, 67
1, 914567, Note_on_c, 0, 52, 87
1, 914576, Control_c, 0, 64, 0
1, 914580, Note_on_c, 0, 76, 90
1, 914595, Note_off_c, 0, 52, 65
1, 914607, Note_off_c, 0, 76, 64
1, 914655, Note_on_c, 0, 76, 89
1, 914664, Note_on_c, 0, 52, 90
1, 914688, Note_on_c, 0, 50, 43
1, 914691, Note_off_c, 0, 76, 66
1, 914697, Note_off_c, 0, 52, 66
1, 914721, Note_off_c, 0, 50, 33
1, 914743, Note_on_c, 0, 52, 85
1, 914748, Note_on_c, 0, 76, 91
1, 914785, Note_off_c, 0, 52, 67
1, 914805, Note_off_c, 0, 76, 61
1, 914832, Note_on_c, 0, 79, 87
1, 914844, Note_on_c, 0, 55, 70
1, 914911, Note_off_c, 0, 79, 46
1, 914924, Note_off_c, 0, 55, 60
1, 914928, Note_on_c, 0, 78, 84
1, 914941, Note_on_c, 0, 54, 67
1, 914989, Note_off_c, 0, 54, 62
1, 915000, Note_off_c, 0, 78, 52
1, 915001, Note_on_c, 0, 76, 77
1, 915010, Note_on_c, 0, 52, 76
1, 915040, Note_off_c, 0, 52, 69
1, 915061, Note_off_c, 0, 76, 64
1, 915110, Note_on_c, 0, 83, 96
1, 915114, Note_on_c, 0, 71, 85
1, 915121, Note_on_c, 0, 47, 80
1, 915127, Note_on_c, 0, 59, 73
1, 915135, Note_on_c, 0, 48, 60
1, 915143, Note_on_c, 0, 60, 46
1, 915147, Note_off_c, 0, 47, 69
1, 915150, Note_off_c, 0, 59, 68
1, 915153, Note_off_c, 0, 71, 61
1, 915156, Note_off_c, 0, 83, 63
1, 915158, Note_off_c, 0, 48, 59
1, 915170, Note_off_c, 0, 60, 40
1, 915355, Note_on_c, 0, 84, 99
1, 915358, Note_on_c, 0, 72, 94
1, 915365, Note_on_c, 0, 48, 86
1, 915365, Note_on_c, 0, 60, 80
1, 915396, Note_off_c, 0, 48, 65
1, 915396, Note_off_c, 0, 84, 65
1, 915398, Note_off_c, 0, 72, 66
1, 915403, Note_off_c, 0, 60, 59
1, 915618, Note_on_c, 0, 83, 96
1, 915620, Note_on_c, 0, 59, 88
1, 915620, Note_on_c, 0, 71, 92
1, 915622, Note_on_c, 0, 47, 89
1, 915665, Control_c, 0, 64, 60
1, 915676, Note_off_c, 0, 47, 63
1, 915680, Control_c, 0, 64, 67
1, 915695, Control_c, 0, 64, 69
1, 915709, Control_c, 0, 64, 71
1, 915715, Note_off_c, 0, 59, 60
1, 915725, Control_c, 0, 64, 73
1, 915740, Control_c, 0, 64, 76
1, 915746, Note_off_c, 0, 71, 57
1, 915747, Note_off_c, 0, 83, 59
1, 915755, Control_c, 0, 64, 77
1, 915888, Control_c, 0, 64, 75
1, 915902, Control_c, 0, 64, 70
1, 915917, Control_c, 0, 64, 65
1, 915940, Control_c, 0, 64, 56
1, 915955, Control_c, 0, 64, 14
1, 915970, Control_c, 0, 64, 0
1, 916057, Note_on_c, 0, 64, 38
1, 916069, Note_on_c, 0, 83, 38
1, 916134, Note_on_c, 0, 84, 58
1, 916148, Note_off_c, 0, 83, 45
1, 916151, Note_off_c, 0, 64, 51
1, 916227, Note_on_c, 0, 81, 63
1, 916235, Note_on_c, 0, 72, 65
1, 916262, Note_off_c, 0, 84, 62
1, 916327, Note_on_c, 0, 83, 61
1, 916329, Note_off_c, 0, 81, 57
1, 916398, Note_off_c, 0, 83, 60
1, 916419, Note_on_c, 0, 79, 65
1, 916427, Note_on_c, 0, 71, 67
1, 916437, Note_off_c, 0, 72, 61
1, 916505, Note_on_c, 0, 81, 61
1, 916512, Note_off_c, 0, 79, 58
1, 916589, Note_on_c, 0, 78, 56
1, 916595, Note_off_c, 0, 71, 63
1, 916601, Note_on_c, 0, 69, 69
1, 916602, Note_off_c, 0, 81, 53
1, 916646, Note_off_c, 0, 78, 57
1, 916701, Note_on_c, 0, 79, 58
1, 916820, Note_off_c, 0, 79, 61
1, 916828, Note_on_c, 0, 67, 67
1, 916837, Note_on_c, 0, 78, 57
1, 916870, Note_off_c, 0, 69, 62
1, 916926, Control_c, 0, 64, 21
1, 916941, Control_c, 0, 64, 28
1, 916944, Note_on_c, 0, 76, 55
1, 916956, Control_c, 0, 64, 32
1, 916979, Note_off_c, 0, 78, 54
1, 916983, Note_off_c, 0, 76, 60
1, 917001, Control_c, 0, 64, 32
1, 917015, Control_c, 0, 64, 31
1, 917019, Note_on_c, 0, 64, 48
1, 917030, Control_c, 0, 64, 29
1, 917031, Note_on_c, 0, 71, 54
1, 917045, Control_c, 0, 64, 29
1, 917060, Control_c, 0, 64, 28
1, 917075, Control_c, 0, 64, 28
1, 917120, Note_on_c, 0, 76, 54
1, 917133, Note_off_c, 0, 71, 55
1, 917148, Control_c, 0, 64, 28
1, 917203, Note_off_c, 0, 64, 61
1, 917219, Note_on_c, 0, 69, 63
1, 917219, Note_off_c, 0, 67, 61
1, 917233, Note_off_c, 0, 76, 55
1, 917238, Note_on_c, 0, 79, 50
1, 917241, Note_on_c, 0, 63, 51
1, 917267, Control_c, 0, 64, 29
1, 917325, Note_on_c, 0, 78, 55
1, 917331, Note_off_c, 0, 79, 59
1, 917365, Note_off_c, 0, 63, 62
1, 917380, Note_off_c, 0, 78, 60
1, 917400, Control_c, 0, 64, 29
1, 917415, Note_on_c, 0, 59, 23
1, 917415, Note_on_c, 0, 71, 50
1, 917452, Control_c, 0, 64, 29
1, 917511, Note_off_c, 0, 71, 59
1, 917511, Control_c, 0, 64, 29
1, 917512, Note_on_c, 0, 78, 60
1, 917557, Control_c, 0, 64, 30
1, 917586, Control_c, 0, 64, 31
1, 917614, Note_on_c, 0, 67, 71
1, 917616, Control_c, 0, 64, 31
1, 917625, Note_on_c, 0, 75, 59
1, 917642, Note_off_c, 0, 78, 59
1, 917645, Control_c, 0, 64, 32
1, 917660, Control_c, 0, 64, 32
1, 917663, Note_off_c, 0, 69, 55
1, 917675, Control_c, 0, 64, 33
1, 917677, Note_off_c, 0, 59, 42
1, 917690, Control_c, 0, 64, 33
1, 917704, Control_c, 0, 64, 34
1, 917707, Note_on_c, 0, 76, 59
1, 917716, Note_off_c, 0, 75, 53
1, 917779, Note_off_c, 0, 76, 59
1, 917811, Note_on_c, 0, 64, 46
1, 917814, Note_on_c, 0, 71, 57
1, 917824, Control_c, 0, 64, 33
1, 917853, Control_c, 0, 64, 33
1, 917883, Control_c, 0, 64, 32
1, 917898, Control_c, 0, 64, 32
1, 917912, Control_c, 0, 64, 31
1, 917921, Note_on_c, 0, 76, 47
1, 917925, Note_off_c, 0, 71, 56
1, 917927, Control_c, 0, 64, 31
1, 917942, Control_c, 0, 64, 30
1, 917972, Control_c, 0, 64, 29
1, 917986, Control_c, 0, 64, 28
1, 917998, Note_on_c, 0, 63, 60
1, 917998, Note_off_c, 0, 67, 60
1, 918001, Control_c, 0, 64, 26
1, 918013, Note_on_c, 0, 69, 65
1, 918014, Note_on_c, 0, 79, 61
1, 918015, Note_off_c, 0, 76, 64
1, 918016, Control_c, 0, 64, 23
1, 918030, Control_c, 0, 64, 18
1, 918045, Control_c, 0, 64, 8
1, 918060, Control_c, 0, 64, 0
1, 918083, Note_off_c, 0, 79, 61
1, 918088, Note_on_c, 0, 78, 69
1, 918104, Control_c, 0, 64, 8
1, 918119, Control_c, 0, 64, 18
1, 918134, Control_c, 0, 64, 27
1, 918149, Control_c, 0, 64, 36
1, 918157, Note_off_c, 0, 78, 60
1, 918163, Note_off_c, 0, 63, 57
1, 918164, Control_c, 0, 64, 44
1, 918169, Note_off_c, 0, 69, 61
1, 918186, Control_c, 0, 64, 48
1, 918196, Note_on_c, 0, 71, 57
1, 918198, Note_on_c, 0, 59, 57
1, 918201, Control_c, 0, 64, 49
1, 918212, Note_off_c, 0, 64, 13
1, 918216, Control_c, 0, 64, 49
1, 918235, Note_off_c, 0, 59, 63
1, 918245, Control_c, 0, 64, 49
1, 918260, Control_c, 0, 64, 47
1, 918271, Note_off_c, 0, 71, 59
1, 918275, Control_c, 0, 64, 44
1, 918277, Note_on_c, 0, 78, 71
1, 918290, Control_c, 0, 64, 34
1, 918304, Control_c, 0, 64, 0
1, 918312, Note_off_c, 0, 78, 60
1, 918395, Control_c, 0, 64, 21
1, 918409, Control_c, 0, 64, 48
1, 918414, Note_on_c, 0, 76, 93
1, 918416, Note_on_c, 0, 40, 89
1, 918416, Note_on_c, 0, 52, 99
1, 918421, Note_on_c, 0, 64, 91
1, 918424, Control_c, 0, 64, 59
1, 918439, Control_c, 0, 64, 63
1, 918450, Note_off_c, 0, 40, 67
1, 918453, Control_c, 0, 64, 65
1, 918464, Note_off_c, 0, 52, 67
1, 918464, Note_off_c, 0, 64, 67
1, 918468, Control_c, 0, 64, 67
1, 918479, Note_off_c, 0, 76, 66
1, 918483, Control_c, 0, 64, 70
1, 918498, Control_c, 0, 64, 71
1, 918513, Control_c, 0, 64, 72
1, 918646, Note_on_c, 0, 52, 83
1, 918649, Note_on_c, 0, 76, 92
1, 918661, Control_c, 0, 64, 72
1, 918676, Control_c, 0, 64, 68
1, 918688, Note_off_c, 0, 52, 64
1, 918691, Control_c, 0, 64, 63
1, 918691, Note_off_c, 0, 76, 68
1, 918706, Control_c, 0, 64, 41
1, 918721, Control_c, 0, 64, 0
1, 918736, Note_on_c, 0, 76, 88
1, 918745, Note_on_c, 0, 52, 81
1, 918766, Note_on_c, 0, 50, 44
1, 918778, Note_off_c, 0, 76, 67
1, 918781, Note_off_c, 0, 52, 67
1, 918799, Note_off_c, 0, 50, 35
1, 918828, Note_on_c, 0, 76, 92
1, 918837, Note_on_c, 0, 52, 82
1, 918879, Note_off_c, 0, 52, 61
1, 918911, Note_on_c, 0, 79, 89
1, 918914, Control_c, 0, 64, 49
1, 918929, Note_off_c, 0, 76, 36
1, 918935, Control_c, 0, 64, 58
1, 918937, Note_on_c, 0, 55, 56
1, 918950, Note_on_c, 0, 53, 45
1, 918950, Control_c, 0, 64, 59
1, 918978, Note_off_c, 0, 53, 51
1, 918980, Control_c, 0, 64, 59
1, 919012, Note_on_c, 0, 78, 89
1, 919013, Note_on_c, 0, 54, 75
1, 919016, Note_off_c, 0, 79, 37
1, 919048, Note_off_c, 0, 55, 36
1, 919082, Note_off_c, 0, 54, 62
1, 919084, Control_c, 0, 64, 59
1, 919085, Note_on_c, 0, 76, 82
1, 919099, Control_c, 0, 64, 60
1, 919099, Note_off_c, 0, 78, 64
1, 919110, Note_on_c, 0, 52, 65
1, 919151, Note_off_c, 0, 76, 65
1, 919159, Control_c, 0, 64, 58
1, 919162, Note_off_c, 0, 52, 65
1, 919174, Control_c, 0, 64, 55
1, 919186, Note_on_c, 0, 83, 91
1, 919189, Control_c, 0, 64, 42
1, 919192, Note_on_c, 0, 71, 89
1, 919195, Note_on_c, 0, 59, 93
1, 919196, Note_on_c, 0, 47, 89
1, 919203, Control_c, 0, 64, 0
1, 919227, Note_off_c, 0, 71, 60
1, 919233, Note_off_c, 0, 83, 63
1, 919237, Note_off_c, 0, 47, 61
1, 919238, Note_off_c, 0, 59, 66
1, 919430, Note_on_c, 0, 88, 99
1, 919432, Note_on_c, 0, 76, 98
1, 919433, Note_on_c, 0, 48, 84
1, 919434, Note_on_c, 0, 82, 95
1, 919437, Note_on_c, 0, 60, 87
1, 919464, Note_off_c, 0, 76, 65
1, 919472, Note_off_c, 0, 88, 62
1, 919485, Note_off_c, 0, 60, 61
1, 919489, Note_off_c, 0, 48, 61
1, 919504, Note_off_c, 0, 82, 58
1, 919703, Note_on_c, 0, 83, 94
1, 919704, Note_on_c, 0, 71, 94
1, 919706, Note_on_c, 0, 47, 90
1, 919706, Note_on_c, 0, 59, 86
1, 919764, Note_off_c, 0, 47, 63
1, 919773, Control_c, 0, 64, 58
1, 919788, Control_c, 0, 64, 68
1, 919802, Control_c, 0, 64, 75
1, 919809, Note_off_c, 0, 59, 63
1, 919817, Control_c, 0, 64, 79
1, 919839, Note_off_c, 0, 83, 55
1, 919844, Note_off_c, 0, 71, 55
1, 919847, Control_c, 0, 64, 79
1, 919862, Control_c, 0, 64, 80
1, 919891, Control_c, 0, 64, 80
1, 919981, Control_c, 0, 64, 80
1, 919996, Control_c, 0, 64, 78
1, 920011, Control_c, 0, 64, 73
1, 920025, Control_c, 0, 64, 68
1, 920040, Control_c, 0, 64, 62
1, 920055, Control_c, 0, 64, 50
1, 920070, Control_c, 0, 64, 0
1, 920113, Note_on_c, 0, 63, 47
1, 920125, Note_on_c, 0, 83, 52
1, 920204, Note_on_c, 0, 85, 54
1, 920208, Note_off_c, 0, 83, 59
1, 920251, Note_off_c, 0, 85, 57
1, 920287, Note_on_c, 0, 81, 63
1, 920306, Note_on_c, 0, 73, 68
1, 920396, Note_on_c, 0, 83, 57
1, 920448, Note_off_c, 0, 81, 51
1, 920477, Control_c, 0, 67, 11
1, 920492, Note_on_c, 0, 80, 61
1, 920492, Control_c, 0, 67, 17
1, 920497, Note_off_c, 0, 63, 38
1, 920505, Note_on_c, 0, 71, 68
1, 920506, Control_c, 0, 67, 24
1, 920514, Note_off_c, 0, 83, 60
1, 920521, Control_c, 0, 67, 31
1, 920536, Control_c, 0, 67, 38
1, 920539, Note_off_c, 0, 73, 56
1, 920551, Control_c, 0, 67, 44
1, 920566, Control_c, 0, 67, 48
1, 920581, Control_c, 0, 67, 50
1, 920581, Note_on_c, 0, 81, 56
1, 920587, Note_off_c, 0, 80, 58
1, 920596, Control_c, 0, 67, 52
1, 920611, Control_c, 0, 67, 52
1, 920625, Control_c, 0, 67, 53
1, 920644, Note_off_c, 0, 81, 61
1, 920670, Note_on_c, 0, 78, 68
1, 920671, Note_on_c, 0, 69, 64
1, 920675, Note_off_c, 0, 71, 63
1, 920699, Control_c, 0, 67, 53
1, 920714, Control_c, 0, 67, 54
1, 920729, Control_c, 0, 67, 57
1, 920744, Control_c, 0, 67, 64
1, 920745, Note_off_c, 0, 78, 59
1, 920760, Control_c, 0, 67, 74
1, 920775, Control_c, 0, 67, 86
1, 920775, Note_on_c, 0, 80, 64
1, 920790, Control_c, 0, 67, 98
1, 920804, Control_c, 0, 67, 108
1, 920819, Control_c, 0, 67, 116
1, 920834, Control_c, 0, 67, 124
1, 920848, Control_c, 0, 67, 127
1, 920867, Note_on_c, 0, 68, 73
1, 920877, Note_on_c, 0, 78, 56
1, 920885, Note_off_c, 0, 69, 59
1, 920943, Note_off_c, 0, 80, 53
1, 920968, Note_on_c, 0, 76, 47
1, 920982, Note_off_c, 0, 78, 55
1, 921018, Note_off_c, 0, 76, 61
1, 921069, Note_on_c, 0, 71, 47
1, 921091, Note_on_c, 0, 64, 35
1, 921156, Note_off_c, 0, 71, 56
1, 921161, Note_on_c, 0, 76, 47
1, 921278, Note_on_c, 0, 69, 63
1, 921278, Note_on_c, 0, 80, 56
1, 921287, Note_off_c, 0, 68, 62
1, 921288, Note_off_c, 0, 64, 42
1, 921290, Note_off_c, 0, 76, 54
1, 921296, Note_on_c, 0, 63, 50
1, 921366, Note_on_c, 0, 78, 54
1, 921404, Note_off_c, 0, 80, 59
1, 921442, Note_off_c, 0, 78, 60
1, 921456, Note_off_c, 0, 63, 56
1, 921464, Note_on_c, 0, 59, 44
1, 921472, Note_on_c, 0, 71, 56
1, 921577, Note_on_c, 0, 78, 57
1, 921592, Note_off_c, 0, 71, 54
1, 921659, Note_off_c, 0, 59, 34
1, 921669, Note_on_c, 0, 68, 67
1, 921688, Note_on_c, 0, 75, 55
1, 921700, Note_off_c, 0, 78, 56
1, 921729, Note_off_c, 0, 69, 62
1, 921759, Note_on_c, 0, 76, 59
1, 921773, Note_off_c, 0, 75, 60
1, 921834, Note_off_c, 0, 76, 61
1, 921859, Note_on_c, 0, 64, 59
1, 921878, Note_on_c, 0, 71, 59
1, 922024, Note_off_c, 0, 68, 51
1, 922026, Note_off_c, 0, 71, 51
1, 922042, Poly_aftertouch_c, 0, 76, 127
1, 922053, Note_on_c, 0, 69, 64
1, 922060, Note_on_c, 0, 63, 57
1, 922072, Note_on_c, 0, 80, 71
1, 922090, Poly_aftertouch_c, 0, 76, 0
1, 922169, Note_off_c, 0, 80, 63
1, 922170, Note_on_c, 0, 78, 71
1, 922197, Control_c, 0, 64, 31
1, 922211, Control_c, 0, 64, 43
1, 922211, Control_c, 0, 67, 123
1, 922218, Note_off_c, 0, 69, 58
1, 922226, Control_c, 0, 64, 50
1, 922226, Control_c, 0, 67, 116
1, 922241, Control_c, 0, 64, 52
1, 922241, Control_c, 0, 67, 106
1, 922244, Note_off_c, 0, 78, 62
1, 922251, Note_on_c, 0, 71, 65
1, 922256, Control_c, 0, 67, 93
1, 922258, Note_on_c, 0, 59, 51
1, 922271, Control_c, 0, 67, 79
1, 922272, Note_off_c, 0, 64, 53
1, 922275, Note_off_c, 0, 63, 58
1, 922286, Control_c, 0, 64, 51
1, 922286, Control_c, 0, 67, 65
1, 922296, Note_off_c, 0, 59, 64
1, 922301, Control_c, 0, 64, 50
1, 922301, Control_c, 0, 67, 51
1, 922316, Control_c, 0, 64, 48
1, 922316, Control_c, 0, 67, 39
1, 922330, Control_c, 0, 64, 43
1, 922330, Control_c, 0, 67, 27
1, 922336, Note_off_c, 0, 71, 63
1, 922345, Note_on_c, 0, 78, 56
1, 922346, Control_c, 0, 64, 27
1, 922346, Control_c, 0, 67, 20
1, 922361, Control_c, 0, 64, 0
1, 922361, Control_c, 0, 67, 14
1, 922364, Note_off_c, 0, 78, 64
1, 922375, Control_c, 0, 67, 8
1, 922390, Control_c, 0, 67, 0
1, 922463, Note_on_c, 0, 64, 86
1, 922465, Note_on_c, 0, 52, 92
1, 922494, Note_on_c, 0, 54, 68
1, 922495, Control_c, 0, 64, 45
1, 922506, Note_off_c, 0, 64, 65
1, 922510, Control_c, 0, 64, 58
1, 922516, Note_on_c, 0, 67, 62
1, 922524, Control_c, 0, 64, 61
1, 922539, Control_c, 0, 64, 62
1, 922554, Control_c, 0, 64, 62
1, 922560, Note_off_c, 0, 67, 58
1, 922561, Note_on_c, 0, 64, 73
1, 922569, Control_c, 0, 64, 63
1, 922599, Note_on_c, 0, 51, 58
1, 922644, Note_off_c, 0, 52, 27
1, 922647, Note_off_c, 0, 54, 58
1, 922650, Note_on_c, 0, 63, 87
1, 922682, Note_off_c, 0, 64, 64
1, 922697, Note_on_c, 0, 49, 56
1, 922754, Control_c, 0, 64, 63
1, 922756, Note_off_c, 0, 51, 37
1, 922757, Note_on_c, 0, 61, 90
1, 922784, Note_off_c, 0, 49, 54
1, 922784, Control_c, 0, 64, 64
1, 922787, Note_off_c, 0, 63, 61
1, 922799, Note_off_c, 0, 61, 67
1, 922814, Control_c, 0, 64, 63
1, 922828, Control_c, 0, 64, 59
1, 922843, Note_on_c, 0, 47, 66
1, 922843, Control_c, 0, 64, 35
1, 922858, Note_on_c, 0, 59, 57
1, 922858, Control_c, 0, 64, 0
1, 922869, Note_off_c, 0, 47, 67
1, 922873, Note_on_c, 0, 57, 39
1, 922880, Note_off_c, 0, 59, 60
1, 922903, Note_off_c, 0, 57, 33
1, 922954, Note_on_c, 0, 76, 67
1, 923013, Note_off_c, 0, 76, 64
1, 923040, Note_on_c, 0, 64, 74
1, 923045, Note_on_c, 0, 56, 62
1, 923061, Note_on_c, 0, 69, 58
1, 923061, Note_on_c, 0, 71, 49
1, 923067, Note_off_c, 0, 64, 67
1, 923072, Note_off_c, 0, 56, 62
1, 923133, Note_off_c, 0, 69, 57
1, 923134, Note_on_c, 0, 80, 65
1, 923142, Note_off_c, 0, 71, 55
1, 923232, Note_on_c, 0, 61, 62
1, 923234, Note_on_c, 0, 57, 57
1, 923239, Note_on_c, 0, 73, 72
1, 923258, Control_c, 0, 64, 31
1, 923273, Control_c, 0, 64, 48
1, 923288, Control_c, 0, 64, 49
1, 923293, Note_off_c, 0, 80, 62
1, 923302, Control_c, 0, 64, 50
1, 923317, Control_c, 0, 64, 53
1, 923326, Note_on_c, 0, 78, 72
1, 923332, Control_c, 0, 64, 58
1, 923337, Note_off_c, 0, 73, 62
1, 923347, Control_c, 0, 64, 60
1, 923362, Control_c, 0, 64, 61
1, 923386, Note_off_c, 0, 57, 57
1, 923391, Note_off_c, 0, 78, 64
1, 923423, Note_on_c, 0, 73, 70
1, 923440, Note_on_c, 0, 66, 59
1, 923464, Note_off_c, 0, 61, 60
1, 923472, Control_c, 0, 64, 60
1, 923487, Control_c, 0, 64, 60
1, 923502, Control_c, 0, 64, 59
1, 923517, Control_c, 0, 64, 57
1, 923525, Note_on_c, 0, 85, 66
1, 923531, Note_off_c, 0, 73, 59
1, 923532, Control_c, 0, 64, 50
1, 923547, Control_c, 0, 64, 22
1, 923549, Note_off_c, 0, 66, 61
1, 923562, Control_c, 0, 64, 0
1, 923621, Note_on_c, 0, 59, 57
1, 923625, Note_on_c, 0, 80, 75
1, 923627, Note_on_c, 0, 68, 57
1, 923646, Note_off_c, 0, 85, 63
1, 923711, Note_off_c, 0, 80, 62
1, 923720, Note_on_c, 0, 83, 64
1, 923768, Note_off_c, 0, 83, 56
1, 923768, Control_c, 0, 64, 52
1, 923783, Control_c, 0, 64, 65
1, 923794, Note_on_c, 0, 78, 73
1, 923798, Control_c, 0, 64, 72
1, 923807, Note_on_c, 0, 69, 65
1, 923812, Note_off_c, 0, 68, 58
1, 923813, Control_c, 0, 64, 78
1, 923828, Control_c, 0, 64, 78
1, 923839, Note_off_c, 0, 69, 65
1, 923866, Note_off_c, 0, 59, 63
1, 923882, Note_off_c, 0, 78, 63
1, 923889, Note_on_c, 0, 90, 82
1, 923902, Control_c, 0, 64, 77
1, 923909, Note_off_c, 0, 90, 71
1, 923917, Control_c, 0, 64, 73
1, 923931, Control_c, 0, 64, 66
1, 923947, Control_c, 0, 64, 47
1, 923962, Control_c, 0, 64, 0
1, 924045, Note_on_c, 0, 52, 104
1, 924045, Note_on_c, 0, 64, 89
1, 924051, Control_c, 0, 64, 34
1, 924066, Control_c, 0, 64, 60
1, 924071, Note_on_c, 0, 66, 78
1, 924081, Note_on_c, 0, 54, 52
1, 924081, Control_c, 0, 64, 65
1, 924089, Note_off_c, 0, 64, 65
1, 924095, Control_c, 0, 64, 67
1, 924139, Note_on_c, 0, 64, 65
1, 924145, Note_off_c, 0, 66, 64
1, 924185, Note_on_c, 0, 51, 70
1, 924218, Note_off_c, 0, 52, 57
1, 924221, Control_c, 0, 64, 67
1, 924225, Note_off_c, 0, 54, 52
1, 924228, Note_on_c, 0, 63, 79
1, 924251, Control_c, 0, 64, 68
1, 924262, Note_off_c, 0, 64, 64
1, 924283, Note_on_c, 0, 49, 60
1, 924310, Control_c, 0, 64, 68
1, 924325, Note_on_c, 0, 61, 89
1, 924325, Control_c, 0, 64, 69
1, 924340, Control_c, 0, 64, 71
1, 924355, Control_c, 0, 64, 72
1, 924356, Note_off_c, 0, 51, 30
1, 924367, Note_off_c, 0, 63, 61
1, 924370, Control_c, 0, 64, 74
1, 924372, Note_off_c, 0, 49, 48
1, 924380, Note_off_c, 0, 61, 66
1, 924385, Control_c, 0, 64, 75
1, 924414, Control_c, 0, 64, 72
1, 924419, Note_on_c, 0, 47, 77
1, 924423, Note_on_c, 0, 59, 77
1, 924429, Control_c, 0, 64, 65
1, 924444, Control_c, 0, 64, 41
1, 924447, Note_off_c, 0, 47, 66
1, 924459, Control_c, 0, 64, 0
1, 924462, Note_off_c, 0, 59, 65
1, 924519, Note_on_c, 0, 76, 61
1, 924572, Note_off_c, 0, 76, 60
1, 924605, Note_on_c, 0, 64, 76
1, 924608, Note_on_c, 0, 71, 64
1, 924614, Note_on_c, 0, 56, 60
1, 924629, Note_off_c, 0, 64, 70
1, 924638, Note_off_c, 0, 56, 62
1, 924695, Note_on_c, 0, 80, 64
1, 924707, Note_off_c, 0, 71, 56
1, 924805, Note_on_c, 0, 61, 62
1, 924808, Note_on_c, 0, 57, 59
1, 924823, Note_on_c, 0, 73, 68
1, 924844, Control_c, 0, 64, 24
1, 924859, Control_c, 0, 64, 53
1, 924864, Note_off_c, 0, 80, 64
1, 924873, Control_c, 0, 64, 61
1, 924888, Control_c, 0, 64, 65
1, 924903, Control_c, 0, 64, 68
1, 924906, Note_on_c, 0, 78, 70
1, 924925, Control_c, 0, 64, 70
1, 924936, Note_off_c, 0, 73, 62
1, 924940, Control_c, 0, 64, 73
1, 924955, Control_c, 0, 64, 75
1, 924969, Control_c, 0, 64, 76
1, 924981, Note_off_c, 0, 78, 62
1, 924984, Control_c, 0, 64, 77
1, 924993, Note_on_c, 0, 66, 63
1, 925000, Note_on_c, 0, 73, 64
1, 925028, Control_c, 0, 64, 77
1, 925040, Note_off_c, 0, 61, 58
1, 925057, Note_off_c, 0, 57, 35
1, 925093, Note_off_c, 0, 73, 58
1, 925094, Note_on_c, 0, 85, 73
1, 925104, Note_off_c, 0, 66, 60
1, 925133, Control_c, 0, 64, 78
1, 925147, Control_c, 0, 64, 80
1, 925162, Control_c, 0, 64, 80
1, 925180, Note_on_c, 0, 59, 73
1, 925183, Note_on_c, 0, 68, 89
1, 925185, Note_on_c, 0, 80, 86
1, 925192, Control_c, 0, 64, 77
1, 925197, Note_off_c, 0, 85, 63
1, 925207, Control_c, 0, 64, 66
1, 925221, Control_c, 0, 64, 19
1, 925236, Control_c, 0, 64, 0
1, 925265, Note_on_c, 0, 83, 78
1, 925278, Note_off_c, 0, 80, 63
1, 925281, Control_c, 0, 64, 43
1, 925295, Control_c, 0, 64, 65
1, 925310, Control_c, 0, 64, 81
1, 925325, Control_c, 0, 64, 127
1, 925351, Note_off_c, 0, 83, 60
1, 925356, Note_on_c, 0, 69, 79
1, 925356, Note_on_c, 0, 78, 91
1, 925383, Note_off_c, 0, 68, 61
1, 925392, Note_off_c, 0, 69, 63
1, 925406, Note_off_c, 0, 59, 64
1, 925427, Note_on_c, 0, 90, 90
1, 925429, Note_off_c, 0, 78, 62
1, 925446, Note_off_c, 0, 90, 71
1, 925562, Control_c, 0, 64, 109
1, 925564, Note_on_c, 0, 52, 100
1, 925569, Note_on_c, 0, 64, 92
1, 925577, Control_c, 0, 64, 62
1, 925591, Note_on_c, 0, 54, 68
1, 925592, Control_c, 0, 64, 0
1, 925605, Note_on_c, 0, 66, 82
1, 925613, Note_off_c, 0, 64, 66
1, 925637, Control_c, 0, 64, 43
1, 925651, Control_c, 0, 64, 67
1, 925669, Note_on_c, 0, 64, 73
1, 925674, Control_c, 0, 64, 79
1, 925678, Note_off_c, 0, 52, 63
1, 925678, Note_off_c, 0, 66, 62
1, 925689, Control_c, 0, 64, 92
1, 925694, Note_on_c, 0, 51, 60
1, 925704, Control_c, 0, 64, 97
1, 925715, Note_off_c, 0, 54, 46
1, 925718, Control_c, 0, 64, 99
1, 925733, Control_c, 0, 64, 100
1, 925748, Control_c, 0, 64, 101
1, 925759, Note_on_c, 0, 63, 86
1, 925763, Control_c, 0, 64, 103
1, 925775, Note_off_c, 0, 64, 64
1, 925777, Control_c, 0, 64, 104
1, 925789, Note_on_c, 0, 49, 58
1, 925792, Control_c, 0, 64, 106
1, 925807, Control_c, 0, 64, 108
1, 925822, Control_c, 0, 64, 114
1, 925836, Note_on_c, 0, 61, 93
1, 925837, Control_c, 0, 64, 127
1, 925838, Note_off_c, 0, 51, 30
1, 925842, Note_off_c, 0, 49, 52
1, 925878, Note_off_c, 0, 63, 64
1, 925879, Note_off_c, 0, 61, 67
1, 925925, Note_on_c, 0, 48, 75
1, 925926, Note_on_c, 0, 60, 83
1, 925941, Control_c, 0, 64, 72
1, 925953, Note_off_c, 0, 48, 67
1, 925955, Control_c, 0, 64, 0
1, 925965, Note_off_c, 0, 60, 64
1, 926032, Note_on_c, 0, 87, 92
1, 926129, Note_on_c, 0, 63, 82
1, 926129, Note_on_c, 0, 68, 89
1, 926132, Note_on_c, 0, 80, 92
1, 926134, Note_on_c, 0, 60, 64
1, 926140, Note_off_c, 0, 87, 58
1, 926148, Control_c, 0, 64, 69
1, 926162, Control_c, 0, 64, 127
1, 926174, Note_off_c, 0, 68, 61
1, 926195, Note_off_c, 0, 63, 64
1, 926196, Note_off_c, 0, 60, 62
1, 926210, Note_off_c, 0, 80, 61
1, 926216, Note_on_c, 0, 92, 82
1, 926234, Note_off_c, 0, 92, 73
1, 926341, Note_on_c, 0, 52, 98
1, 926341, Control_c, 0, 64, 77
1, 926352, Note_on_c, 0, 64, 84
1, 926356, Control_c, 0, 64, 0
1, 926359, Note_on_c, 0, 54, 80
1, 926374, Note_on_c, 0, 66, 78
1, 926378, Note_off_c, 0, 64, 68
1, 926400, Control_c, 0, 64, 50
1, 926415, Note_on_c, 0, 65, 55
1, 926423, Control_c, 0, 64, 73
1, 926438, Control_c, 0, 64, 105
1, 926438, Note_on_c, 0, 64, 80
1, 926442, Note_off_c, 0, 65, 65
1, 926450, Note_off_c, 0, 66, 66
1, 926453, Control_c, 0, 64, 127
1, 926486, Note_on_c, 0, 51, 48
1, 926510, Note_off_c, 0, 52, 58
1, 926515, Note_off_c, 0, 54, 45
1, 926540, Note_on_c, 0, 63, 87
1, 926555, Note_off_c, 0, 64, 63
1, 926563, Note_on_c, 0, 49, 63
1, 926617, Note_on_c, 0, 61, 95
1, 926643, Note_off_c, 0, 63, 63
1, 926651, Note_off_c, 0, 61, 66
1, 926653, Note_off_c, 0, 49, 56
1, 926695, Note_on_c, 0, 48, 87
1, 926696, Note_off_c, 0, 51, 36
1, 926706, Note_on_c, 0, 60, 76
1, 926725, Note_off_c, 0, 48, 65
1, 926735, Note_off_c, 0, 60, 62
1, 926748, Control_c, 0, 64, 69
1, 926763, Control_c, 0, 64, 0
1, 926808, Note_on_c, 0, 87, 90
1, 926823, Control_c, 0, 64, 60
1, 926838, Control_c, 0, 64, 72
1, 926853, Control_c, 0, 64, 85
1, 926867, Control_c, 0, 64, 87
1, 926882, Control_c, 0, 64, 76
1, 926897, Control_c, 0, 64, 46
1, 926903, Note_on_c, 0, 80, 94
1, 926907, Note_on_c, 0, 63, 78
1, 926911, Control_c, 0, 64, 0
1, 926913, Note_on_c, 0, 60, 67
1, 926915, Note_on_c, 0, 68, 86
1, 926954, Note_off_c, 0, 87, 60
1, 926971, Control_c, 0, 64, 59
1, 926985, Control_c, 0, 64, 78
1, 927000, Control_c, 0, 64, 127
1, 927014, Note_on_c, 0, 92, 95
1, 927035, Note_on_c, 0, 90, 54
1, 927059, Control_c, 0, 67, 27
1, 927065, Note_off_c, 0, 90, 53
1, 927073, Note_off_c, 0, 80, 59
1, 927074, Control_c, 0, 67, 58
1, 927082, Note_off_c, 0, 92, 66
1, 927089, Control_c, 0, 67, 98
1, 927104, Control_c, 0, 67, 127
1, 927107, Note_off_c, 0, 68, 58
1, 927148, Note_off_c, 0, 60, 33
1, 927169, Note_off_c, 0, 63, 53
1, 927187, Control_c, 0, 64, 107
1, 927202, Control_c, 0, 64, 80
1, 927216, Control_c, 0, 64, 66
1, 927231, Control_c, 0, 64, 47
1, 927246, Control_c, 0, 64, 0
1, 927329, Note_on_c, 0, 75, 33
1, 927392, Note_off_c, 0, 75, 53
1, 927405, Note_on_c, 0, 60, 30
1, 927429, Note_on_c, 0, 63, 22
1, 927436, Note_on_c, 0, 68, 50
1, 927438, Control_c, 0, 64, 45
1, 927453, Control_c, 0, 64, 58
1, 927468, Control_c, 0, 64, 63
1, 927482, Control_c, 0, 64, 65
1, 927497, Control_c, 0, 64, 66
1, 927512, Control_c, 0, 64, 66
1, 927522, Note_off_c, 0, 68, 54
1, 927527, Control_c, 0, 64, 67
1, 927534, Note_on_c, 0, 80, 52
1, 927541, Control_c, 0, 64, 68
1, 927549, Note_off_c, 0, 60, 39
1, 927553, Note_off_c, 0, 63, 40
1, 927556, Control_c, 0, 64, 69
1, 927571, Control_c, 0, 64, 70
1, 927613, Note_off_c, 0, 80, 52
1, 927637, Note_on_c, 0, 63, 19
1, 927650, Note_on_c, 0, 60, 23
1, 927652, Note_on_c, 0, 68, 50
1, 927729, Note_off_c, 0, 68, 51
1, 927751, Note_on_c, 0, 80, 42
1, 927757, Note_off_c, 0, 63, 42
1, 927761, Note_off_c, 0, 60, 32
1, 927779, Control_c, 0, 64, 70
1, 927842, Note_off_c, 0, 80, 38
1, 927845, Note_on_c, 0, 63, 34
1, 927848, Note_on_c, 0, 60, 4
1, 927854, Note_on_c, 0, 68, 55
1, 927868, Control_c, 0, 64, 71
1, 927929, Note_off_c, 0, 68, 53
1, 927956, Note_off_c, 0, 63, 37
1, 927960, Note_on_c, 0, 80, 56
1, 927964, Note_off_c, 0, 60, 37
1, 928030, Note_off_c, 0, 80, 53
1, 928044, Note_on_c, 0, 68, 64
1, 928077, Note_on_c, 0, 63, 31
1, 928089, Note_on_c, 0, 60, 23
1, 928129, Note_off_c, 0, 68, 59
1, 928131, Note_off_c, 0, 63, 46
1, 928138, Note_off_c, 0, 60, 46
1, 928147, Note_on_c, 0, 80, 56
1, 928224, Note_off_c, 0, 80, 57
1, 928232, Note_on_c, 0, 68, 72
1, 928246, Note_on_c, 0, 60, 21
1, 928251, Note_on_c, 0, 63, 36
1, 928284, Note_off_c, 0, 60, 48
1, 928291, Note_off_c, 0, 63, 51
1, 928296, Note_off_c, 0, 68, 64
1, 928336, Note_on_c, 0, 80, 54
1, 928358, Note_off_c, 0, 80, 62
1, 928394, Control_c, 0, 64, 68
1, 928409, Control_c, 0, 64, 64
1, 928419, Note_on_c, 0, 75, 76
1, 928424, Note_on_c, 0, 60, 57
1, 928424, Control_c, 0, 64, 39
1, 928439, Control_c, 0, 64, 0
1, 928457, Note_on_c, 0, 77, 67
1, 928464, Note_off_c, 0, 75, 61
1, 928513, Note_on_c, 0, 75, 43
1, 928602, Note_off_c, 0, 77, 37
1, 928629, Note_on_c, 0, 73, 59
1, 928691, Note_on_c, 0, 68, 36
1, 928716, Note_off_c, 0, 73, 60
1, 928722, Note_off_c, 0, 75, 33
1, 928738, Note_on_c, 0, 72, 61
1, 928839, Note_on_c, 0, 70, 74
1, 928853, Note_on_c, 0, 61, 56
1, 928855, Note_off_c, 0, 72, 62
1, 928873, Note_off_c, 0, 60, 39
1, 928894, Note_off_c, 0, 68, 44
1, 928930, Note_off_c, 0, 70, 62
1, 928933, Note_on_c, 0, 77, 71
1, 928936, Control_c, 0, 64, 49
1, 928951, Control_c, 0, 64, 63
1, 928966, Control_c, 0, 64, 67
1, 928981, Control_c, 0, 64, 70
1, 928995, Control_c, 0, 64, 71
1, 929010, Control_c, 0, 64, 73
1, 929025, Control_c, 0, 64, 73
1, 929026, Note_off_c, 0, 77, 57
1, 929036, Note_on_c, 0, 68, 55
1, 929040, Control_c, 0, 64, 74
1, 929044, Note_on_c, 0, 70, 67
1, 929055, Control_c, 0, 64, 74
1, 929065, Note_off_c, 0, 61, 58
1, 929097, Note_off_c, 0, 70, 64
1, 929133, Note_on_c, 0, 82, 55
1, 929174, Note_off_c, 0, 82, 51
1, 929203, Control_c, 0, 64, 71
1, 929218, Control_c, 0, 64, 66
1, 929223, Note_off_c, 0, 68, 38
1, 929233, Control_c, 0, 64, 57
1, 929235, Note_on_c, 0, 63, 65
1, 929237, Note_on_c, 0, 78, 72
1, 929248, Control_c, 0, 64, 0
1, 929261, Note_off_c, 0, 78, 64
1, 929269, Note_on_c, 0, 80, 71
1, 929333, Note_on_c, 0, 78, 72
1, 929364, Note_off_c, 0, 80, 55
1, 929433, Control_c, 0, 64, 35
1, 929448, Control_c, 0, 64, 53
1, 929462, Control_c, 0, 64, 58
1, 929465, Note_off_c, 0, 78, 58
1, 929477, Control_c, 0, 64, 60
1, 929492, Note_on_c, 0, 77, 67
1, 929492, Control_c, 0, 64, 61
1, 929502, Note_on_c, 0, 68, 50
1, 929506, Control_c, 0, 64, 63
1, 929521, Control_c, 0, 64, 63
1, 929572, Note_off_c, 0, 77, 60
1, 929588, Note_on_c, 0, 75, 63
1, 929641, Control_c, 0, 64, 63
1, 929656, Control_c, 0, 64, 61
1, 929670, Note_on_c, 0, 65, 55
1, 929671, Control_c, 0, 64, 56
1, 929672, Note_off_c, 0, 75, 62
1, 929683, Note_off_c, 0, 68, 50
1, 929685, Control_c, 0, 64, 33
1, 929694, Note_on_c, 0, 73, 73
1, 929697, Note_off_c, 0, 63, 35
1, 929700, Control_c, 0, 64, 0
1, 929781, Note_on_c, 0, 80, 70
1, 929803, Note_off_c, 0, 73, 56
1, 929804, Control_c, 0, 64, 14
1, 929819, Control_c, 0, 64, 51
1, 929834, Control_c, 0, 64, 60
1, 929849, Control_c, 0, 64, 63
1, 929863, Control_c, 0, 64, 63
1, 929878, Control_c, 0, 64, 64
1, 929881, Note_on_c, 0, 68, 50
1, 929881, Note_on_c, 0, 73, 62
1, 929893, Control_c, 0, 64, 64
1, 929893, Note_off_c, 0, 80, 59
1, 929908, Control_c, 0, 64, 65
1, 929923, Control_c, 0, 64, 65
1, 929924, Note_off_c, 0, 65, 53
1, 929937, Control_c, 0, 64, 66
1, 929952, Control_c, 0, 64, 67
1, 929966, Control_c, 0, 64, 67
1, 929986, Note_on_c, 0, 85, 65
1, 929996, Control_c, 0, 64, 68
1, 929998, Note_off_c, 0, 73, 61
1, 930010, Control_c, 0, 64, 68
1, 930040, Control_c, 0, 64, 68
1, 930055, Control_c, 0, 64, 67
1, 930067, Note_on_c, 0, 65, 59
1, 930070, Control_c, 0, 64, 65
1, 930084, Note_on_c, 0, 73, 62
1, 930084, Control_c, 0, 64, 64
1, 930117, Note_off_c, 0, 68, 51
1, 930144, Control_c, 0, 64, 65
1, 930166, Control_c, 0, 64, 66
1, 930181, Control_c, 0, 64, 67
1, 930185, Note_off_c, 0, 73, 61
1, 930191, Note_on_c, 0, 80, 61
1, 930196, Control_c, 0, 64, 67
1, 930210, Control_c, 0, 64, 68
1, 930214, Note_off_c, 0, 85, 36
1, 930273, Note_off_c, 0, 80, 59
1, 930275, Note_off_c, 0, 65, 62
1, 930284, Note_on_c, 0, 68, 48
1, 930290, Note_on_c, 0, 73, 61
1, 930380, Note_off_c, 0, 73, 54
1, 930394, Note_on_c, 0, 85, 59
1, 930448, Control_c, 0, 64, 67
1, 930463, Control_c, 0, 64, 65
1, 930478, Control_c, 0, 64, 61
1, 930480, Note_on_c, 0, 65, 72
1, 930493, Control_c, 0, 64, 45
1, 930507, Note_on_c, 0, 73, 57
1, 930507, Control_c, 0, 64, 0
1, 930521, Note_off_c, 0, 68, 55
1, 930525, Note_off_c, 0, 85, 36
1, 930537, Control_c, 0, 64, 21
1, 930552, Control_c, 0, 64, 38
1, 930567, Control_c, 0, 64, 51
1, 930582, Control_c, 0, 64, 59
1, 930597, Control_c, 0, 64, 63
1, 930600, Note_off_c, 0, 73, 58
1, 930612, Control_c, 0, 64, 64
1, 930620, Note_on_c, 0, 80, 52
1, 930627, Control_c, 0, 64, 65
1, 930641, Control_c, 0, 64, 65
1, 930656, Control_c, 0, 64, 66
1, 930671, Control_c, 0, 64, 67
1, 930679, Note_off_c, 0, 80, 53
1, 930680, Note_on_c, 0, 68, 49
1, 930719, Note_on_c, 0, 73, 53
1, 930794, Note_off_c, 0, 73, 53
1, 930820, Note_on_c, 0, 85, 49
1, 930930, Control_c, 0, 64, 66
1, 930942, Note_off_c, 0, 85, 0
1, 930945, Control_c, 0, 64, 66
1, 930959, Control_c, 0, 64, 64
1, 930963, Note_on_c, 0, 64, 60
1, 930963, Note_on_c, 0, 73, 48
1, 930974, Control_c, 0, 64, 61
1, 930986, Note_off_c, 0, 68, 37
1, 930989, Control_c, 0, 64, 50
1, 930997, Note_off_c, 0, 65, 54
1, 931004, Control_c, 0, 64, 0
1, 931008, Poly_aftertouch_c, 0, 85, 0
1, 931077, Note_off_c, 0, 73, 54
1, 931092, Control_c, 0, 64, 44
1, 931095, Note_on_c, 0, 80, 57
1, 931107, Control_c, 0, 64, 60
1, 931122, Control_c, 0, 64, 64
1, 931138, Control_c, 0, 64, 65
1, 931162, Note_off_c, 0, 80, 58
1, 931168, Control_c, 0, 64, 65
1, 931193, Note_on_c, 0, 68, 52
1, 931194, Note_on_c, 0, 73, 58
1, 931197, Control_c, 0, 64, 66
1, 931249, Note_off_c, 0, 64, 57
1, 931256, Note_off_c, 0, 73, 51
1, 931282, Note_on_c, 0, 85, 52
1, 931330, Control_c, 0, 64, 66
1, 931345, Control_c, 0, 64, 67
1, 931375, Note_off_c, 0, 68, 58
1, 931375, Note_off_c, 0, 85, 52
1, 931376, Note_on_c, 0, 64, 59
1, 931378, Note_on_c, 0, 73, 58
1, 931390, Control_c, 0, 64, 66
1, 931405, Control_c, 0, 64, 65
1, 931467, Note_off_c, 0, 73, 57
1, 931477, Note_on_c, 0, 80, 53
1, 931479, Control_c, 0, 64, 66
1, 931494, Control_c, 0, 64, 66
1, 931548, Note_off_c, 0, 80, 56
1, 931569, Note_on_c, 0, 68, 41
1, 931572, Note_on_c, 0, 73, 59
1, 931573, Note_off_c, 0, 64, 58
1, 931632, Note_off_c, 0, 73, 62
1, 931661, Note_on_c, 0, 85, 66
1, 931664, Control_c, 0, 64, 67
1, 931689, Note_off_c, 0, 68, 61
1, 931698, Note_off_c, 0, 85, 57
1, 931738, Control_c, 0, 64, 65
1, 931753, Control_c, 0, 64, 62
1, 931768, Control_c, 0, 64, 46
1, 931773, Note_on_c, 0, 56, 66
1, 931781, Note_on_c, 0, 83, 76
1, 931782, Control_c, 0, 64, 0
1, 931807, Note_on_c, 0, 85, 65
1, 931824, Note_off_c, 0, 83, 57
1, 931842, Control_c, 0, 64, 28
1, 931856, Control_c, 0, 64, 57
1, 931870, Note_off_c, 0, 85, 39
1, 931871, Control_c, 0, 64, 64
1, 931874, Note_on_c, 0, 83, 60
1, 931886, Control_c, 0, 64, 65
1, 931901, Control_c, 0, 64, 65
1, 931931, Control_c, 0, 64, 66
1, 931946, Control_c, 0, 64, 66
1, 931960, Note_off_c, 0, 83, 60
1, 931961, Control_c, 0, 64, 67
1, 932003, Note_on_c, 0, 81, 71
1, 932012, Note_on_c, 0, 64, 52
1, 932016, Note_on_c, 0, 59, 55
1, 932029, Note_off_c, 0, 56, 57
1, 932042, Note_off_c, 0, 81, 57
1, 932065, Control_c, 0, 64, 67
1, 932079, Control_c, 0, 64, 68
1, 932083, Note_on_c, 0, 80, 64
1, 932091, Note_off_c, 0, 64, 62
1, 932094, Control_c, 0, 67, 116
1, 932109, Control_c, 0, 64, 69
1, 932109, Control_c, 0, 67, 95
1, 932118, Note_off_c, 0, 80, 63
1, 932123, Control_c, 0, 64, 70
1, 932123, Control_c, 0, 67, 70
1, 932138, Control_c, 0, 64, 71
1, 932138, Control_c, 0, 67, 40
1, 932153, Control_c, 0, 64, 72
1, 932153, Control_c, 0, 67, 16
1, 932168, Control_c, 0, 64, 71
1, 932168, Control_c, 0, 67, 0
1, 932180, Note_on_c, 0, 78, 83
1, 932180, Note_on_c, 0, 57, 74
1, 932183, Control_c, 0, 64, 66
1, 932198, Control_c, 0, 64, 51
1, 932212, Control_c, 0, 64, 0
1, 932226, Note_off_c, 0, 59, 27
1, 932257, Control_c, 0, 64, 41
1, 932269, Note_on_c, 0, 85, 77
1, 932272, Control_c, 0, 64, 60
1, 932275, Note_off_c, 0, 78, 60
1, 932287, Control_c, 0, 64, 66
1, 932302, Control_c, 0, 64, 70
1, 932317, Control_c, 0, 64, 72
1, 932331, Control_c, 0, 64, 72
1, 932346, Control_c, 0, 64, 73
1, 932361, Control_c, 0, 64, 75
1, 932374, Note_on_c, 0, 78, 85
1, 932376, Control_c, 0, 64, 76
1, 932382, Note_off_c, 0, 85, 59
1, 932388, Note_on_c, 0, 61, 53
1, 932391, Note_on_c, 0, 66, 68
1, 932391, Control_c, 0, 64, 78
1, 932412, Control_c, 0, 64, 79
1, 932413, Note_off_c, 0, 57, 59
1, 932427, Control_c, 0, 64, 80
1, 932439, Note_off_c, 0, 61, 58
1, 932442, Control_c, 0, 64, 82
1, 932457, Control_c, 0, 64, 83
1, 932472, Note_on_c, 0, 90, 90
1, 932472, Note_off_c, 0, 78, 61
1, 932472, Control_c, 0, 64, 85
1, 932487, Control_c, 0, 64, 87
1, 932489, Note_off_c, 0, 66, 60
1, 932502, Control_c, 0, 64, 89
1, 932516, Control_c, 0, 64, 92
1, 932531, Control_c, 0, 64, 97
1, 932546, Control_c, 0, 64, 101
1, 932550, Note_off_c, 0, 90, 63
1, 932561, Control_c, 0, 64, 102
1, 932576, Control_c, 0, 64, 101
1, 932585, Note_on_c, 0, 59, 91
1, 932588, Note_on_c, 0, 83, 90
1, 932591, Control_c, 0, 64, 92
1, 932605, Control_c, 0, 64, 72
1, 932620, Control_c, 0, 64, 43
1, 932635, Control_c, 0, 64, 0
1, 932677, Note_on_c, 0, 90, 93
1, 932694, Control_c, 0, 64, 61
1, 932709, Control_c, 0, 64, 73
1, 932713, Note_off_c, 0, 83, 59
1, 932724, Control_c, 0, 64, 87
1, 932740, Control_c, 0, 64, 101
1, 932754, Control_c, 0, 64, 106
1, 932769, Control_c, 0, 64, 119
1, 932782, Note_on_c, 0, 69, 79
1, 932784, Control_c, 0, 64, 127
1, 932786, Note_on_c, 0, 63, 74
1, 932799, Note_on_c, 0, 83, 89
1, 932809, Note_off_c, 0, 90, 60
1, 932809, Note_off_c, 0, 59, 61
1, 932829, Note_off_c, 0, 69, 64
1, 932836, Note_off_c, 0, 63, 63
1, 932882, Note_off_c, 0, 83, 58
1, 932887, Note_on_c, 0, 95, 93
1, 932915, Note_off_c, 0, 95, 66
1, 933026, Note_on_c, 0, 52, 104
1, 933028, Note_on_c, 0, 64, 93
1, 933051, Control_c, 0, 64, 77
1, 933066, Control_c, 0, 64, 39
1, 933071, Note_off_c, 0, 64, 63
1, 933080, Control_c, 0, 64, 0
1, 933089, Note_on_c, 0, 66, 51
1, 933115, Note_on_c, 0, 65, 49
1, 933116, Note_off_c, 0, 66, 36
1, 933128, Note_on_c, 0, 64, 77
1, 933140, Note_off_c, 0, 65, 58
1, 933219, Note_off_c, 0, 52, 65
1, 933248, Note_on_c, 0, 63, 86
1, 933256, Note_off_c, 0, 64, 65
1, 933342, Note_on_c, 0, 61, 92
1, 933482, Note_on_c, 0, 59, 92
1, 933485, Note_on_c, 0, 45, 93
1, 933488, Note_on_c, 0, 47, 90
1, 933521, Note_off_c, 0, 63, 22
1, 933531, Note_off_c, 0, 61, 60
1, 933593, Control_c, 0, 64, 22
1, 933607, Control_c, 0, 64, 24
1, 933637, Control_c, 0, 64, 27
1, 933652, Control_c, 0, 64, 32
1, 933667, Control_c, 0, 64, 36
1, 933682, Control_c, 0, 64, 39
1, 933697, Control_c, 0, 64, 42
1, 933710, Control_c, 0, 64, 44
1, 933725, Control_c, 0, 64, 45
1, 933740, Control_c, 0, 64, 45
1, 933755, Note_on_c, 0, 44, 68
1, 933777, Note_off_c, 0, 59, 60
1, 933799, Control_c, 0, 64, 47
1, 933814, Control_c, 0, 64, 50
1, 933822, Note_off_c, 0, 45, 62
1, 933829, Control_c, 0, 64, 52
1, 933844, Control_c, 0, 64, 53
1, 933846, Note_on_c, 0, 42, 74
1, 933858, Control_c, 0, 64, 55
1, 933873, Control_c, 0, 64, 57
1, 933885, Note_off_c, 0, 44, 60
1, 933888, Control_c, 0, 64, 59
1, 933910, Control_c, 0, 64, 58
1, 933922, Note_on_c, 0, 64, 87
1, 933925, Control_c, 0, 64, 54
1, 933928, Note_on_c, 0, 40, 83
1, 933940, Control_c, 0, 64, 38
1, 933943, Note_off_c, 0, 42, 64
1, 933950, Note_on_c, 0, 66, 87
1, 933955, Control_c, 0, 64, 0
1, 933964, Note_off_c, 0, 64, 67
1, 933990, Note_on_c, 0, 64, 77
1, 934006, Note_off_c, 0, 66, 67
1, 934117, Control_c, 0, 64, 23
1, 934132, Control_c, 0, 64, 36
1, 934147, Control_c, 0, 64, 42
1, 934156, Note_on_c, 0, 63, 95
1, 934162, Control_c, 0, 64, 43
1, 934174, Note_off_c, 0, 64, 64
1, 934197, Note_off_c, 0, 40, 64
1, 934198, Note_off_c, 0, 47, 61
1, 934222, Control_c, 0, 64, 44
1, 934236, Note_on_c, 0, 61, 94
1, 934236, Control_c, 0, 64, 44
1, 934266, Control_c, 0, 64, 44
1, 934281, Control_c, 0, 64, 41
1, 934296, Control_c, 0, 64, 29
1, 934310, Control_c, 0, 64, 0
1, 934328, Note_off_c, 0, 63, 57
1, 934338, Note_on_c, 0, 59, 96
1, 934347, Note_on_c, 0, 45, 86
1, 934347, Note_on_c, 0, 47, 80
1, 934383, Note_off_c, 0, 61, 62
1, 934415, Control_c, 0, 64, 37
1, 934430, Control_c, 0, 64, 57
1, 934445, Control_c, 0, 64, 60
1, 934460, Control_c, 0, 64, 61
1, 934474, Control_c, 0, 64, 62
1, 934489, Control_c, 0, 64, 64
1, 934504, Control_c, 0, 64, 66
1, 934519, Control_c, 0, 64, 68
1, 934533, Control_c, 0, 64, 69
1, 934548, Control_c, 0, 64, 70
1, 934583, Note_off_c, 0, 59, 54
1, 934607, Note_on_c, 0, 44, 71
1, 934607, Control_c, 0, 64, 71
1, 934638, Note_off_c, 0, 45, 56
1, 934696, Note_on_c, 0, 42, 75
1, 934701, Note_off_c, 0, 44, 63
1, 934733, Control_c, 0, 64, 69
1, 934748, Control_c, 0, 64, 64
1, 934763, Control_c, 0, 64, 43
1, 934778, Note_on_c, 0, 68, 83
1, 934778, Control_c, 0, 64, 0
1, 934782, Note_off_c, 0, 42, 63
1, 934782, Note_on_c, 0, 40, 80
1, 934782, Note_on_c, 0, 64, 80
1, 934813, Note_on_c, 0, 69, 79
1, 934813, Note_off_c, 0, 64, 65
1, 934818, Note_off_c, 0, 68, 64
1, 934847, Note_on_c, 0, 68, 75
1, 934860, Note_on_c, 0, 64, 63
1, 934875, Note_off_c, 0, 69, 68
1, 934896, Control_c, 0, 64, 54
1, 934908, Note_off_c, 0, 68, 65
1, 934911, Control_c, 0, 64, 64
1, 934925, Control_c, 0, 64, 67
1, 934940, Control_c, 0, 64, 70
1, 934955, Control_c, 0, 64, 72
1, 934970, Control_c, 0, 64, 74
1, 934985, Control_c, 0, 64, 75
1, 935000, Control_c, 0, 64, 75
1, 935009, Note_on_c, 0, 66, 84
1, 935015, Note_on_c, 0, 63, 78
1, 935023, Note_off_c, 0, 64, 65
1, 935074, Note_on_c, 0, 64, 76
1, 935074, Control_c, 0, 64, 75
1, 935081, Note_off_c, 0, 66, 64
1, 935095, Note_off_c, 0, 40, 64
1, 935102, Note_on_c, 0, 61, 77
1, 935104, Note_off_c, 0, 47, 62
1, 935115, Note_off_c, 0, 63, 60
1, 935119, Control_c, 0, 64, 74
1, 935134, Control_c, 0, 64, 72
1, 935149, Control_c, 0, 64, 66
1, 935160, Note_off_c, 0, 61, 62
1, 935164, Control_c, 0, 64, 54
1, 935178, Control_c, 0, 64, 0
1, 935180, Note_on_c, 0, 47, 79
1, 935181, Note_on_c, 0, 45, 77
1, 935184, Note_on_c, 0, 59, 90
1, 935184, Note_on_c, 0, 63, 91
1, 935229, Note_off_c, 0, 64, 58
1, 935229, Control_c, 0, 64, 44
1, 935244, Control_c, 0, 64, 63
1, 935259, Control_c, 0, 64, 65
1, 935274, Control_c, 0, 64, 66
1, 935289, Control_c, 0, 64, 68
1, 935304, Control_c, 0, 64, 71
1, 935311, Note_off_c, 0, 63, 66
1, 935318, Note_off_c, 0, 59, 61
1, 935319, Control_c, 0, 64, 74
1, 935341, Control_c, 0, 64, 74
1, 935363, Note_on_c, 0, 44, 75
1, 935370, Control_c, 0, 64, 74
1, 935377, Note_off_c, 0, 45, 53
1, 935385, Control_c, 0, 64, 69
1, 935400, Control_c, 0, 64, 59
1, 935414, Control_c, 0, 64, 0
1, 935459, Note_on_c, 0, 42, 71
1, 935479, Note_off_c, 0, 44, 57
1, 935545, Note_off_c, 0, 42, 63
1, 935546, Note_on_c, 0, 68, 84
1, 935548, Note_on_c, 0, 40, 81
1, 935551, Note_on_c, 0, 64, 81
1, 935578, Note_off_c, 0, 64, 67
1, 935580, Note_on_c, 0, 69, 75
1, 935593, Control_c, 0, 64, 61
1, 935600, Note_off_c, 0, 68, 0
1, 935607, Control_c, 0, 64, 68
1, 935613, Note_on_c, 0, 68, 66
1, 935617, Note_on_c, 0, 64, 66
1, 935640, Note_off_c, 0, 69, 67
1, 935673, Note_off_c, 0, 68, 64
1, 935696, Control_c, 0, 64, 68
1, 935711, Control_c, 0, 64, 69
1, 935726, Control_c, 0, 64, 69
1, 935755, Control_c, 0, 64, 70
1, 935775, Note_on_c, 0, 66, 82
1, 935777, Note_on_c, 0, 63, 79
1, 935784, Note_off_c, 0, 64, 65
1, 935844, Note_on_c, 0, 65, 66
1, 935855, Note_on_c, 0, 64, 68
1, 935855, Note_off_c, 0, 63, 61
1, 935859, Note_off_c, 0, 40, 63
1, 935860, Control_c, 0, 64, 69
1, 935867, Note_off_c, 0, 47, 62
1, 935873, Note_on_c, 0, 61, 73
1, 935879, Note_off_c, 0, 66, 62
1, 935920, Control_c, 0, 64, 67
1, 935935, Note_off_c, 0, 61, 57
1, 935935, Control_c, 0, 64, 57
1, 935944, Note_off_c, 0, 65, 51
1, 935949, Note_on_c, 0, 63, 91
1, 935950, Control_c, 0, 64, 0
1, 935958, Note_on_c, 0, 47, 85
1, 935958, Note_on_c, 0, 59, 86
1, 935959, Note_on_c, 0, 45, 85
1, 960539, Note_off_c, 0, 64, 35
1, 960575, Control_c, 0, 64, 48
1, 960590, Control_c, 0, 64, 62
1, 960605, Control_c, 0, 64, 65
1, 960635, Note_off_c, 0, 59, 58
1, 960638, Note_off_c, 0, 63, 66
1, 960642, Control_c, 0, 64, 65
1, 960656, Control_c, 0, 64, 66
1, 960671, Control_c, 0, 64, 67
1, 960686, Control_c, 0, 64, 68
1, 960701, Control_c, 0, 64, 68
1, 960716, Control_c, 0, 64, 69
1, 960719, Note_off_c, 0, 45, 65
1, 960728, Note_on_c, 0, 44, 69
1, 960790, Control_c, 0, 64, 69
1, 960805, Control_c, 0, 64, 70
1, 960820, Control_c, 0, 64, 70
1, 960833, Note_off_c, 0, 44, 53
1, 960835, Note_on_c, 0, 42, 63
1, 960864, Control_c, 0, 64, 69
1, 960879, Control_c, 0, 64, 64
1, 960894, Control_c, 0, 64, 42
1, 960909, Control_c, 0, 64, 0
1, 960910, Note_on_c, 0, 40, 85
1, 960910, Note_on_c, 0, 68, 80
1, 960915, Note_off_c, 0, 47, 62
1, 960917, Note_off_c, 0, 42, 63
1, 960941, Note_off_c, 0, 40, 68
1, 960969, Note_off_c, 0, 68, 63
1, 961025, Note_on_c, 0, 64, 62
1, 961114, Note_on_c, 0, 42, 70
1, 961125, Note_off_c, 0, 64, 58
1, 961130, Note_on_c, 0, 69, 67
1, 961145, Note_off_c, 0, 42, 66
1, 961194, Note_off_c, 0, 69, 63
1, 961234, Note_on_c, 0, 64, 64
1, 961316, Note_on_c, 0, 44, 66
1, 961330, Note_off_c, 0, 64, 64
1, 961331, Note_on_c, 0, 71, 66
1, 961345, Note_off_c, 0, 44, 66
1, 961389, Note_off_c, 0, 71, 58
1, 961433, Note_on_c, 0, 64, 70
1, 961515, Note_on_c, 0, 45, 80
1, 961518, Note_off_c, 0, 64, 63
1, 961537, Note_on_c, 0, 73, 70
1, 961537, Note_off_c, 0, 45, 68
1, 961614, Note_off_c, 0, 73, 57
1, 961620, Note_on_c, 0, 64, 67
1, 961709, Note_on_c, 0, 75, 71
1, 961711, Note_on_c, 0, 35, 88
1, 961712, Note_on_c, 0, 47, 87
1, 961735, Note_off_c, 0, 64, 55
1, 961784, Note_off_c, 0, 47, 59
1, 961798, Note_off_c, 0, 35, 65
1, 961809, Note_on_c, 0, 71, 76
1, 961823, Note_off_c, 0, 75, 64
1, 961907, Note_on_c, 0, 76, 79
1, 961916, Note_on_c, 0, 37, 87
1, 961916, Note_on_c, 0, 49, 92
1, 961924, Note_off_c, 0, 71, 59
1, 961974, Note_on_c, 0, 36, 10
1, 961980, Note_off_c, 0, 76, 61
1, 962003, Note_off_c, 0, 37, 63
1, 962009, Note_on_c, 0, 71, 76
1, 962023, Note_off_c, 0, 36, 28
1, 962023, Note_off_c, 0, 49, 60
1, 962116, Note_on_c, 0, 51, 92
1, 962117, Note_on_c, 0, 78, 96
1, 962121, Note_on_c, 0, 39, 84
1, 962155, Note_off_c, 0, 71, 59
1, 962199, Control_c, 0, 64, 25
1, 962206, Note_off_c, 0, 39, 59
1, 962213, Control_c, 0, 64, 27
1, 962214, Note_off_c, 0, 51, 60
1, 962224, Note_on_c, 0, 71, 80
1, 962243, Control_c, 0, 64, 28
1, 962248, Note_off_c, 0, 78, 62
1, 962258, Control_c, 0, 64, 31
1, 962273, Control_c, 0, 64, 39
1, 962288, Control_c, 0, 64, 50
1, 962302, Control_c, 0, 64, 60
1, 962317, Note_off_c, 0, 71, 62
1, 962317, Control_c, 0, 64, 65
1, 962318, Note_on_c, 0, 40, 82
1, 962320, Note_on_c, 0, 52, 86
1, 962325, Note_on_c, 0, 79, 89
1, 962332, Control_c, 0, 64, 69
1, 962346, Control_c, 0, 64, 75
1, 962361, Control_c, 0, 64, 82
1, 962364, Note_off_c, 0, 40, 64
1, 962376, Control_c, 0, 64, 93
1, 962391, Control_c, 0, 64, 105
1, 962405, Note_off_c, 0, 52, 63
1, 962406, Control_c, 0, 64, 127
1, 962413, Note_on_c, 0, 71, 78
1, 962437, Note_off_c, 0, 79, 56
1, 962466, Note_off_c, 0, 71, 59
1, 962535, Note_on_c, 0, 79, 95
1, 962544, Note_on_c, 0, 67, 85
1, 962546, Note_on_c, 0, 43, 82
1, 962546, Note_on_c, 0, 55, 90
1, 962546, Note_on_c, 0, 71, 85
1, 962546, Note_on_c, 0, 74, 79
1, 962548, Note_on_c, 0, 50, 75
1, 962554, Control_c, 0, 64, 97
1, 962569, Control_c, 0, 64, 45
1, 962584, Control_c, 0, 64, 0
1, 962643, Control_c, 0, 64, 39
1, 962658, Control_c, 0, 64, 64
1, 962671, Control_c, 0, 64, 72
1, 962686, Control_c, 0, 64, 81
1, 962701, Control_c, 0, 64, 86
1, 962716, Control_c, 0, 64, 90
1, 962731, Control_c, 0, 64, 97
1, 962745, Control_c, 0, 64, 110
1, 962760, Control_c, 0, 64, 127
1, 962869, Note_off_c, 0, 74, 55
1, 962927, Note_off_c, 0, 67, 55
1, 962935, Note_off_c, 0, 79, 51
1, 962937, Note_off_c, 0, 43, 54
1, 962943, Note_off_c, 0, 50, 55
1, 962946, Note_off_c, 0, 71, 38
1, 962953, Note_off_c, 0, 55, 61
1, 962996, Note_on_c, 0, 79, 93
1, 962999, Note_on_c, 0, 71, 80
1, 962999, Note_on_c, 0, 67, 90
1, 963000, Note_on_c, 0, 43, 79
1, 963002, Note_on_c, 0, 55, 82
1, 963002, Note_on_c, 0, 74, 88
1, 963003, Note_on_c, 0, 50, 73
1, 963020, Control_c, 0, 64, 93
1, 963035, Control_c, 0, 64, 50
1, 963050, Control_c, 0, 64, 0
1, 963095, Control_c, 0, 64, 47
1, 963109, Control_c, 0, 64, 64
1, 963124, Control_c, 0, 64, 69
1, 963133, Poly_aftertouch_c, 0, 76, 127
1, 963139, Control_c, 0, 64, 72
1, 963154, Control_c, 0, 64, 74
1, 963168, Control_c, 0, 64, 79
1, 963183, Control_c, 0, 64, 91
1, 963198, Control_c, 0, 64, 127
1, 963350, Note_off_c, 0, 79, 54
1, 963351, Note_off_c, 0, 43, 59
1, 963356, Note_off_c, 0, 74, 51
1, 963365, Note_off_c, 0, 67, 59
1, 963366, Note_off_c, 0, 55, 58
1, 963369, Note_off_c, 0, 50, 58
1, 963369, Note_off_c, 0, 71, 37
1, 963390, Poly_aftertouch_c, 0, 76, 0
1, 963428, Note_on_c, 0, 79, 93
1, 963429, Note_on_c, 0, 55, 85
1, 963430, Note_on_c, 0, 50, 71
1, 963430, Note_on_c, 0, 67, 90
1, 963431, Note_on_c, 0, 71, 82
1, 963432, Note_on_c, 0, 74, 78
1, 963434, Note_on_c, 0, 43, 74
1, 963434, Control_c, 0, 64, 70
1, 963449, Control_c, 0, 64, 0
1, 963509, Control_c, 0, 64, 61
1, 963524, Control_c, 0, 64, 71
1, 963539, Control_c, 0, 64, 83
1, 963554, Control_c, 0, 64, 95
1, 963563, Poly_aftertouch_c, 0, 76, 127
1, 963568, Control_c, 0, 64, 107
1, 963583, Control_c, 0, 64, 127
1, 963764, Note_off_c, 0, 71, 51
1, 963779, Note_off_c, 0, 67, 57
1, 963779, Note_off_c, 0, 74, 52
1, 963783, Note_off_c, 0, 79, 55
1, 963787, Note_off_c, 0, 43, 58
1, 963795, Note_off_c, 0, 55, 60
1, 963796, Note_off_c, 0, 50, 60
1, 963802, Poly_aftertouch_c, 0, 76, 0
1, 963843, Control_c, 0, 64, 90
1, 963858, Control_c, 0, 64, 39
1, 963864, Note_on_c, 0, 67, 90
1, 963865, Note_on_c, 0, 79, 95
1, 963869, Note_on_c, 0, 71, 81
1, 963872, Note_on_c, 0, 74, 82
1, 963873, Control_c, 0, 64, 0
1, 963873, Note_on_c, 0, 43, 80
1, 963874, Note_on_c, 0, 55, 88
1, 963876, Note_on_c, 0, 50, 76
1, 963902, Control_c, 0, 64, 53
1, 963917, Control_c, 0, 64, 76
1, 963932, Control_c, 0, 64, 127
1, 963944, Note_off_c, 0, 55, 62
1, 963947, Note_off_c, 0, 43, 62
1, 963970, Note_off_c, 0, 50, 61
1, 963980, Note_off_c, 0, 71, 60
1, 963986, Note_off_c, 0, 74, 64
1, 963986, Note_off_c, 0, 67, 61
1, 964004, Note_off_c, 0, 79, 62
1, 964376, Note_on_c, 0, 83, 98
1, 964376, Note_on_c, 0, 71, 96
1, 964378, Note_on_c, 0, 80, 93
1, 964379, Note_on_c, 0, 47, 101
1, 964380, Note_on_c, 0, 35, 99
1, 964385, Control_c, 0, 64, 78
1, 964400, Control_c, 0, 64, 0
1, 964475, Control_c, 0, 64, 70
1, 964489, Control_c, 0, 64, 127
1, 964588, Note_off_c, 0, 35, 63
1, 964636, Note_off_c, 0, 47, 60
1, 964663, Note_off_c, 0, 83, 51
1, 964682, Note_off_c, 0, 71, 48
1, 964726, Note_off_c, 0, 80, 56
1, 964794, Note_on_c, 0, 83, 96
1, 964796, Note_on_c, 0, 71, 95
1, 964800, Note_on_c, 0, 56, 105
1, 964800, Control_c, 0, 64, 72
1, 964803, Note_on_c, 0, 44, 86
1, 964803, Note_on_c, 0, 80, 96
1, 964815, Control_c, 0, 64, 0
1, 964859, Control_c, 0, 64, 21
1, 964874, Control_c, 0, 64, 68
1, 964889, Control_c, 0, 64, 127
1, 965020, Note_off_c, 0, 83, 48
1, 965043, Note_off_c, 0, 44, 58
1, 965074, Note_off_c, 0, 71, 49
1, 965080, Note_off_c, 0, 56, 57
1, 965151, Note_off_c, 0, 80, 60
1, 965205, Note_on_c, 0, 83, 104
1, 965205, Note_on_c, 0, 71, 97
1, 965208, Control_c, 0, 64, 75
1, 965210, Note_on_c, 0, 47, 97
1, 965210, Note_on_c, 0, 80, 90
1, 965211, Note_on_c, 0, 59, 98
1, 965223, Control_c, 0, 64, 0
1, 965267, Control_c, 0, 64, 56
1, 965282, Control_c, 0, 64, 82
1, 965297, Control_c, 0, 64, 127
1, 965313, Poly_aftertouch_c, 0, 81, 127
1, 965415, Note_off_c, 0, 80, 58
1, 965429, Poly_aftertouch_c, 0, 81, 0
1, 965432, Note_off_c, 0, 83, 42
1, 965461, Note_off_c, 0, 47, 60
1, 965490, Note_off_c, 0, 59, 55
1, 965503, Note_off_c, 0, 71, 27
1, 965622, Control_c, 0, 64, 78
1, 965629, Note_on_c, 0, 83, 98
1, 965634, Note_on_c, 0, 71, 97
1, 965635, Note_on_c, 0, 52, 98
1, 965636, Note_on_c, 0, 64, 93
1, 965637, Control_c, 0, 64, 0
1, 965640, Note_on_c, 0, 80, 81
1, 965652, Note_on_c, 0, 81, 88
1, 965681, Control_c, 0, 64, 48
1, 965696, Control_c, 0, 64, 77
1, 965711, Control_c, 0, 64, 127
1, 965724, Note_off_c, 0, 64, 64
1, 965744, Note_off_c, 0, 81, 55
1, 965762, Note_off_c, 0, 52, 65
1, 965776, Note_off_c, 0, 80, 58
1, 965781, Note_off_c, 0, 83, 56
1, 965846, Note_off_c, 0, 71, 49
1, 966016, Control_c, 0, 64, 76
1, 966031, Control_c, 0, 64, 0
1, 966049, Note_on_c, 0, 44, 100
1, 966052, Note_on_c, 0, 32, 89
1, 966052, Note_on_c, 0, 83, 93
1, 966053, Note_on_c, 0, 71, 91
1, 966056, Note_on_c, 0, 80, 97
1, 966090, Control_c, 0, 64, 66
1, 966105, Control_c, 0, 64, 127
1, 966111, Note_off_c, 0, 71, 56
1, 966114, Note_off_c, 0, 83, 58
1, 966133, Note_off_c, 0, 32, 59
1, 966145, Note_off_c, 0, 80, 63
1, 966146, Note_off_c, 0, 44, 62
1, 966177, Poly_aftertouch_c, 0, 31, 0
1, 966248, Note_on_c, 0, 81, 86
1, 966261, Note_on_c, 0, 78, 75
1, 966267, Note_on_c, 0, 71, 77
1, 966275, Note_on_c, 0, 45, 79
1, 966282, Note_on_c, 0, 33, 64
1, 966285, Note_on_c, 0, 35, 61
1, 966306, Note_off_c, 0, 81, 56
1, 966312, Note_off_c, 0, 33, 68
1, 966315, Note_off_c, 0, 35, 66
1, 966320, Note_off_c, 0, 45, 61
1, 966333, Note_on_c, 0, 80, 77
1, 966346, Note_off_c, 0, 78, 58
1, 966350, Note_off_c, 0, 71, 62
1, 966351, Note_on_c, 0, 76, 66
1, 966370, Note_off_c, 0, 76, 67
1, 966372, Note_off_c, 0, 80, 61
1, 966426, Note_on_c, 0, 80, 92
1, 966430, Note_on_c, 0, 35, 84
1, 966430, Note_on_c, 0, 71, 90
1, 966430, Control_c, 0, 64, 67
1, 966431, Note_on_c, 0, 47, 92
1, 966432, Note_on_c, 0, 76, 83
1, 966445, Control_c, 0, 64, 0
1, 966451, Note_off_c, 0, 76, 73
1, 966472, Note_off_c, 0, 80, 68
1, 966475, Note_off_c, 0, 35, 64
1, 966478, Note_off_c, 0, 47, 64
1, 966479, Note_off_c, 0, 71, 58
1, 966645, Note_on_c, 0, 71, 90
1, 966654, Note_on_c, 0, 78, 85
1, 966654, Note_on_c, 0, 47, 93
1, 966657, Note_on_c, 0, 35, 82
1, 966669, Note_off_c, 0, 78, 74
1, 966683, Note_off_c, 0, 35, 68
1, 966692, Note_off_c, 0, 71, 60
1, 966699, Note_off_c, 0, 47, 61
1, 966770, Note_on_c, 0, 70, 46
1, 966797, Note_off_c, 0, 70, 61
1, 966860, Note_on_c, 0, 76, 91
1, 966865, Note_on_c, 0, 52, 98
1, 966865, Note_on_c, 0, 71, 79
1, 966869, Note_on_c, 0, 68, 80
1, 966870, Note_on_c, 0, 40, 93
1, 966898, Control_c, 0, 64, 52
1, 966913, Control_c, 0, 64, 65
1, 966927, Control_c, 0, 64, 70
1, 966928, Note_off_c, 0, 71, 61
1, 966942, Control_c, 0, 64, 71
1, 966949, Note_off_c, 0, 76, 57
1, 966971, Note_on_c, 0, 62, 70
1, 966973, Note_on_c, 0, 64, 65
1, 966979, Note_off_c, 0, 68, 59
1, 967002, Control_c, 0, 64, 70
1, 967016, Control_c, 0, 64, 69
1, 967020, Note_off_c, 0, 62, 58
1, 967031, Control_c, 0, 64, 66
1, 967046, Control_c, 0, 64, 64
1, 967058, Note_on_c, 0, 76, 76
1, 967061, Control_c, 0, 64, 62
1, 967072, Note_off_c, 0, 64, 58
1, 967076, Control_c, 0, 64, 61
1, 967105, Control_c, 0, 64, 61
1, 967120, Control_c, 0, 64, 60
1, 967134, Control_c, 0, 64, 58
1, 967143, Note_on_c, 0, 77, 83
1, 967143, Note_off_c, 0, 76, 64
1, 967149, Control_c, 0, 64, 54
1, 967165, Control_c, 0, 64, 44
1, 967180, Control_c, 0, 64, 27
1, 967180, Control_c, 0, 67, 12
1, 967195, Control_c, 0, 64, 0
1, 967195, Control_c, 0, 67, 25
1, 967209, Control_c, 0, 67, 38
1, 967224, Control_c, 0, 67, 55
1, 967232, Note_on_c, 0, 76, 84
1, 967239, Control_c, 0, 67, 69
1, 967254, Control_c, 0, 67, 82
1, 967269, Control_c, 0, 67, 92
1, 967283, Control_c, 0, 67, 98
1, 967298, Control_c, 0, 67, 99
1, 967312, Note_off_c, 0, 76, 62
1, 967313, Control_c, 0, 67, 101
1, 967321, Note_off_c, 0, 40, 61
1, 967327, Control_c, 0, 67, 103
1, 967329, Note_on_c, 0, 64, 76
1, 967342, Control_c, 0, 67, 106
1, 967343, Note_off_c, 0, 77, 30
1, 967365, Control_c, 0, 67, 109
1, 967380, Control_c, 0, 67, 113
1, 967393, Note_off_c, 0, 52, 58
1, 967395, Control_c, 0, 67, 116
1, 967409, Control_c, 0, 67, 119
1, 967420, Note_off_c, 0, 64, 56
1, 967424, Control_c, 0, 67, 122
1, 967431, Note_on_c, 0, 76, 77
1, 967439, Control_c, 0, 67, 127
1, 967454, Control_c, 0, 67, 127
1, 967520, Note_off_c, 0, 76, 63
1, 967521, Note_on_c, 0, 77, 79
1, 967610, Note_on_c, 0, 76, 78
1, 967696, Note_off_c, 0, 76, 59
1, 967701, Note_on_c, 0, 68, 81
1, 967718, Note_off_c, 0, 77, 34
1, 967802, Note_on_c, 0, 76, 75
1, 967803, Note_on_c, 0, 52, 60
1, 967817, Note_off_c, 0, 68, 61
1, 967888, Note_on_c, 0, 77, 79
1, 967891, Note_off_c, 0, 76, 64
1, 967905, Note_off_c, 0, 52, 67
1, 967914, Control_c, 0, 67, 116
1, 967929, Control_c, 0, 67, 88
1, 967944, Control_c, 0, 67, 61
1, 967958, Control_c, 0, 67, 37
1, 967973, Control_c, 0, 67, 20
1, 967983, Note_on_c, 0, 76, 77
1, 967988, Control_c, 0, 67, 13
1, 967998, Note_off_c, 0, 77, 54
1, 968018, Control_c, 0, 67, 13
1, 968032, Control_c, 0, 67, 15
1, 968047, Control_c, 0, 67, 17
1, 968057, Note_off_c, 0, 76, 61
1, 968062, Control_c, 0, 67, 19
1, 968076, Note_on_c, 0, 71, 69
1, 968076, Control_c, 0, 67, 21
1, 968091, Control_c, 0, 67, 24
1, 968114, Control_c, 0, 67, 28
1, 968129, Control_c, 0, 67, 36
1, 968144, Control_c, 0, 67, 43
1, 968158, Control_c, 0, 67, 50
1, 968170, Note_on_c, 0, 56, 69
1, 968173, Control_c, 0, 67, 57
1, 968174, Note_on_c, 0, 76, 68
1, 968188, Control_c, 0, 67, 61
1, 968203, Control_c, 0, 67, 61
1, 968217, Note_off_c, 0, 71, 48
1, 968232, Control_c, 0, 67, 60
1, 968247, Note_off_c, 0, 76, 64
1, 968247, Control_c, 0, 67, 59
1, 968257, Note_on_c, 0, 77, 72
1, 968260, Note_off_c, 0, 56, 63
1, 968262, Control_c, 0, 67, 57
1, 968277, Control_c, 0, 67, 55
1, 968291, Control_c, 0, 67, 54
1, 968306, Control_c, 0, 67, 52
1, 968321, Control_c, 0, 67, 50
1, 968329, Note_off_c, 0, 77, 55
1, 968336, Control_c, 0, 67, 49
1, 968351, Control_c, 0, 67, 48
1, 968361, Note_on_c, 0, 76, 73
1, 968381, Control_c, 0, 67, 48
1, 968396, Control_c, 0, 67, 50
1, 968411, Control_c, 0, 67, 51
1, 968426, Control_c, 0, 67, 52
1, 968441, Control_c, 0, 67, 53
1, 968445, Note_off_c, 0, 76, 59
1, 968455, Control_c, 0, 67, 54
1, 968456, Note_on_c, 0, 74, 63
1, 968514, Control_c, 0, 67, 53
1, 968539, Note_on_c, 0, 76, 66
1, 968544, Note_off_c, 0, 74, 60
1, 968547, Note_on_c, 0, 59, 85
1, 968574, Control_c, 0, 67, 53
1, 968603, Control_c, 0, 67, 52
1, 968614, Note_off_c, 0, 76, 64
1, 968618, Control_c, 0, 67, 51
1, 968622, Note_on_c, 0, 77, 69
1, 968633, Control_c, 0, 67, 50
1, 968642, Note_off_c, 0, 59, 65
1, 968648, Control_c, 0, 67, 49
1, 968662, Control_c, 0, 67, 48
1, 968677, Control_c, 0, 67, 46
1, 968692, Control_c, 0, 67, 44
1, 968706, Control_c, 0, 67, 42
1, 968707, Note_off_c, 0, 77, 57
1, 968717, Note_on_c, 0, 76, 62
1, 968721, Control_c, 0, 67, 39
1, 968736, Control_c, 0, 67, 35
1, 968751, Control_c, 0, 67, 29
1, 968766, Control_c, 0, 67, 23
1, 968780, Control_c, 0, 67, 19
1, 968786, Note_off_c, 0, 76, 63
1, 968795, Control_c, 0, 67, 17
1, 968810, Control_c, 0, 67, 15
1, 968819, Note_on_c, 0, 71, 63
1, 968825, Control_c, 0, 67, 15
1, 968892, Control_c, 0, 67, 14
1, 968906, Control_c, 0, 67, 14
1, 968913, Note_on_c, 0, 76, 70
1, 968930, Note_on_c, 0, 62, 88
1, 968951, Control_c, 0, 67, 13
1, 968966, Control_c, 0, 67, 13
1, 968991, Note_off_c, 0, 76, 65
1, 968995, Control_c, 0, 67, 12
1, 968997, Note_off_c, 0, 71, 31
1, 969004, Note_on_c, 0, 77, 64
1, 969010, Control_c, 0, 67, 11
1, 969025, Control_c, 0, 67, 10
1, 969040, Control_c, 0, 67, 0
1, 969058, Note_off_c, 0, 62, 63
1, 969090, Note_off_c, 0, 77, 56
1, 969107, Note_on_c, 0, 76, 68
1, 969183, Note_off_c, 0, 76, 62
1, 969202, Note_on_c, 0, 74, 63
1, 969297, Note_on_c, 0, 76, 62
1, 969305, Note_off_c, 0, 74, 56
1, 969309, Note_on_c, 0, 65, 81
1, 969362, Note_off_c, 0, 76, 65
1, 969378, Note_on_c, 0, 77, 62
1, 969459, Note_off_c, 0, 65, 62
1, 969465, Note_off_c, 0, 77, 56
1, 969466, Note_on_c, 0, 76, 66
1, 969546, Note_off_c, 0, 76, 63
1, 969573, Note_on_c, 0, 71, 60
1, 969666, Note_on_c, 0, 76, 67
1, 969673, Note_on_c, 0, 62, 78
1, 969733, Note_off_c, 0, 76, 64
1, 969738, Note_off_c, 0, 71, 36
1, 969763, Note_on_c, 0, 77, 62
1, 969774, Control_c, 0, 67, 15
1, 969789, Control_c, 0, 67, 24
1, 969803, Control_c, 0, 67, 32
1, 969818, Control_c, 0, 67, 38
1, 969833, Control_c, 0, 67, 45
1, 969848, Note_off_c, 0, 62, 63
1, 969848, Control_c, 0, 67, 54
1, 969855, Note_on_c, 0, 76, 71
1, 969856, Note_off_c, 0, 77, 50
1, 969862, Control_c, 0, 67, 62
1, 969877, Control_c, 0, 67, 67
1, 969892, Control_c, 0, 67, 71
1, 969907, Control_c, 0, 67, 73
1, 969936, Note_off_c, 0, 76, 62
1, 969936, Control_c, 0, 67, 73
1, 969949, Note_on_c, 0, 74, 70
1, 969982, Control_c, 0, 67, 74
1, 970031, Note_off_c, 0, 74, 58
1, 970036, Note_on_c, 0, 59, 72
1, 970036, Note_on_c, 0, 76, 65
1, 970109, Note_off_c, 0, 76, 63
1, 970123, Note_on_c, 0, 77, 71
1, 970189, Note_off_c, 0, 59, 64
1, 970195, Note_off_c, 0, 77, 60
1, 970198, Note_on_c, 0, 76, 67
1, 970204, Control_c, 0, 67, 74
1, 970219, Control_c, 0, 67, 75
1, 970234, Control_c, 0, 67, 77
1, 970249, Control_c, 0, 67, 84
1, 970262, Note_off_c, 0, 76, 57
1, 970264, Control_c, 0, 67, 90
1, 970278, Control_c, 0, 67, 96
1, 970293, Control_c, 0, 67, 103
1, 970304, Note_on_c, 0, 71, 63
1, 970308, Control_c, 0, 67, 109
1, 970323, Control_c, 0, 67, 114
1, 970338, Control_c, 0, 67, 118
1, 970359, Control_c, 0, 67, 120
1, 970398, Note_on_c, 0, 56, 63
1, 970398, Note_on_c, 0, 76, 64
1, 970419, Control_c, 0, 67, 118
1, 970434, Control_c, 0, 67, 116
1, 970434, Note_off_c, 0, 71, 53
1, 970448, Control_c, 0, 67, 115
1, 970463, Control_c, 0, 67, 115
1, 970466, Note_off_c, 0, 76, 62
1, 970478, Control_c, 0, 67, 114
1, 970493, Control_c, 0, 67, 114
1, 970502, Note_on_c, 0, 77, 58
1, 970523, Control_c, 0, 67, 113
1, 970552, Note_off_c, 0, 56, 63
1, 970577, Note_off_c, 0, 77, 59
1, 970583, Note_on_c, 0, 76, 69
1, 970595, Note_on_c, 0, 74, 50
1, 970633, Note_off_c, 0, 74, 64
1, 970657, Note_off_c, 0, 76, 58
1, 970667, Note_on_c, 0, 68, 67
1, 970685, Control_c, 0, 67, 113
1, 970700, Control_c, 0, 67, 112
1, 970715, Control_c, 0, 67, 112
1, 970730, Control_c, 0, 67, 111
1, 970745, Control_c, 0, 67, 111
1, 970759, Control_c, 0, 67, 110
1, 970761, Note_on_c, 0, 52, 57
1, 970763, Note_on_c, 0, 74, 46
1, 970767, Note_off_c, 0, 68, 56
1, 970775, Control_c, 0, 67, 110
1, 970785, Note_on_c, 0, 76, 51
1, 970805, Control_c, 0, 67, 109
1, 970835, Control_c, 0, 67, 109
1, 970848, Note_off_c, 0, 74, 61
1, 970856, Note_on_c, 0, 77, 65
1, 970857, Note_off_c, 0, 76, 64
1, 970890, Note_off_c, 0, 52, 66
1, 970937, Note_off_c, 0, 77, 56
1, 970939, Control_c, 0, 67, 109
1, 970941, Note_on_c, 0, 76, 57
1, 970954, Control_c, 0, 67, 110
1, 970973, Note_on_c, 0, 74, 27
1, 970998, Control_c, 0, 67, 110
1, 971011, Note_off_c, 0, 74, 55
1, 971013, Control_c, 0, 67, 111
1, 971018, Note_off_c, 0, 76, 61
1, 971026, Note_on_c, 0, 68, 61
1, 971043, Control_c, 0, 67, 111
1, 971057, Control_c, 0, 67, 112
1, 971087, Control_c, 0, 67, 113
1, 971109, Control_c, 0, 67, 114
1, 971124, Control_c, 0, 67, 115
1, 971128, Note_on_c, 0, 74, 45
1, 971130, Note_on_c, 0, 47, 62
1, 971139, Control_c, 0, 67, 117
1, 971140, Note_off_c, 0, 68, 55
1, 971146, Note_on_c, 0, 76, 52
1, 971154, Control_c, 0, 67, 118
1, 971169, Control_c, 0, 67, 119
1, 971183, Control_c, 0, 67, 120
1, 971198, Control_c, 0, 67, 122
1, 971209, Note_off_c, 0, 74, 62
1, 971213, Control_c, 0, 67, 126
1, 971221, Note_off_c, 0, 76, 61
1, 971227, Note_on_c, 0, 77, 58
1, 971228, Control_c, 0, 67, 127
1, 971270, Note_off_c, 0, 47, 65
1, 971310, Note_off_c, 0, 77, 57
1, 971318, Note_on_c, 0, 76, 54
1, 971339, Note_on_c, 0, 74, 48
1, 971379, Note_off_c, 0, 74, 63
1, 971391, Note_off_c, 0, 76, 61
1, 971402, Note_on_c, 0, 68, 63
1, 971490, Note_on_c, 0, 40, 53
1, 971513, Note_on_c, 0, 74, 40
1, 971513, Note_on_c, 0, 76, 50
1, 971537, Note_off_c, 0, 68, 39
1, 971570, Note_off_c, 0, 74, 58
1, 971590, Note_off_c, 0, 76, 59
1, 971594, Note_on_c, 0, 77, 61
1, 971642, Note_off_c, 0, 40, 63
1, 971679, Note_off_c, 0, 77, 56
1, 971689, Note_on_c, 0, 76, 58
1, 971695, Note_on_c, 0, 74, 42
1, 971736, Note_off_c, 0, 74, 63
1, 971755, Note_off_c, 0, 76, 59
1, 971771, Note_on_c, 0, 68, 58
1, 971878, Note_on_c, 0, 76, 55
1, 971883, Note_on_c, 0, 74, 44
1, 971884, Note_on_c, 0, 47, 56
1, 971888, Note_off_c, 0, 68, 53
1, 971962, Note_off_c, 0, 74, 58
1, 971967, Note_off_c, 0, 76, 60
1, 971973, Note_on_c, 0, 77, 63
1, 971996, Note_off_c, 0, 47, 65
1, 972073, Note_off_c, 0, 77, 55
1, 972074, Note_on_c, 0, 76, 59
1, 972087, Note_on_c, 0, 74, 44
1, 972133, Note_off_c, 0, 74, 59
1, 972154, Note_off_c, 0, 76, 58
1, 972172, Note_on_c, 0, 68, 55
1, 972265, Note_on_c, 0, 40, 58
1, 972277, Note_on_c, 0, 76, 50
1, 972288, Note_on_c, 0, 74, 41
1, 972290, Note_off_c, 0, 68, 53
1, 972297, Note_off_c, 0, 40, 65
1, 972379, Note_off_c, 0, 76, 56
1, 972384, Note_off_c, 0, 74, 53
1, 972392, Note_on_c, 0, 77, 51
1, 972514, Note_on_c, 0, 76, 52
1, 972518, Note_on_c, 0, 74, 42
1, 972526, Note_on_c, 0, 40, 56
1, 972543, Note_off_c, 0, 77, 35
1, 972605, Note_off_c, 0, 74, 62
1, 972610, Note_off_c, 0, 76, 55
1, 972629, Note_on_c, 0, 68, 59
1, 972736, Note_off_c, 0, 68, 55
1, 972745, Note_on_c, 0, 74, 45
1, 972753, Note_on_c, 0, 76, 43
1, 972805, Note_off_c, 0, 74, 54
1, 972814, Note_off_c, 0, 76, 61
1, 972826, Note_on_c, 0, 77, 54
1, 972925, Note_off_c, 0, 77, 51
1, 972929, Note_on_c, 0, 76, 58
1, 972935, Note_on_c, 0, 74, 45
1, 972980, Note_off_c, 0, 74, 63
1, 973000, Note_off_c, 0, 76, 61
1, 973015, Note_on_c, 0, 68, 60
1, 973107, Note_off_c, 0, 68, 58
1, 973131, Note_on_c, 0, 76, 54
1, 973150, Note_on_c, 0, 74, 31
1, 973203, Note_off_c, 0, 76, 61
1, 973212, Note_off_c, 0, 74, 57
1, 973229, Note_on_c, 0, 77, 43
1, 973303, Control_c, 0, 64, 40
1, 973310, Note_on_c, 0, 76, 55
1, 973318, Control_c, 0, 64, 55
1, 973333, Control_c, 0, 64, 60
1, 973352, Note_on_c, 0, 74, 36
1, 973355, Control_c, 0, 64, 61
1, 973392, Note_off_c, 0, 76, 59
1, 973400, Control_c, 0, 64, 62
1, 973403, Note_off_c, 0, 40, 58
1, 973414, Control_c, 0, 64, 62
1, 973422, Note_off_c, 0, 77, 24
1, 973429, Control_c, 0, 64, 63
1, 973435, Note_on_c, 0, 68, 50
1, 973442, Note_off_c, 0, 74, 36
1, 973444, Control_c, 0, 64, 63
1, 973459, Control_c, 0, 64, 64
1, 973519, Note_off_c, 0, 68, 63
1, 973596, Note_on_c, 0, 76, 39
1, 973699, Note_off_c, 0, 76, 55
1, 973707, Note_on_c, 0, 77, 45
1, 973710, Control_c, 0, 64, 63
1, 973769, Control_c, 0, 64, 63
1, 973814, Control_c, 0, 64, 62
1, 973829, Control_c, 0, 64, 62
1, 973844, Control_c, 0, 64, 61
1, 973859, Control_c, 0, 64, 60
1, 973862, Note_on_c, 0, 76, 48
1, 973874, Control_c, 0, 64, 59
1, 973876, Note_on_c, 0, 60, 44
1, 973888, Control_c, 0, 64, 56
1, 973903, Control_c, 0, 64, 51
1, 973912, Note_off_c, 0, 77, 44
1, 973918, Control_c, 0, 64, 44
1, 973927, Note_off_c, 0, 76, 59
1, 973933, Control_c, 0, 64, 38
1, 973948, Control_c, 0, 64, 33
1, 973963, Control_c, 0, 64, 28
1, 973971, Note_on_c, 0, 64, 47
1, 973979, Control_c, 0, 64, 22
1, 973993, Control_c, 0, 64, 0
1, 974023, Note_off_c, 0, 64, 59
1, 974063, Note_off_c, 0, 60, 49
1, 974070, Note_on_c, 0, 59, 36
1, 974073, Note_on_c, 0, 74, 44
1, 974119, Note_off_c, 0, 74, 64
1, 974149, Control_c, 0, 64, 17
1, 974155, Note_on_c, 0, 64, 41
1, 974164, Control_c, 0, 64, 23
1, 974179, Control_c, 0, 64, 27
1, 974194, Control_c, 0, 64, 32
1, 974208, Control_c, 0, 64, 35
1, 974223, Control_c, 0, 64, 38
1, 974227, Note_off_c, 0, 64, 55
1, 974238, Control_c, 0, 64, 40
1, 974252, Control_c, 0, 64, 41
1, 974253, Note_on_c, 0, 57, 43
1, 974254, Note_on_c, 0, 72, 54
1, 974263, Note_off_c, 0, 59, 40
1, 974267, Control_c, 0, 64, 42
1, 974297, Control_c, 0, 64, 42
1, 974312, Note_off_c, 0, 72, 53
1, 974342, Control_c, 0, 64, 42
1, 974365, Note_on_c, 0, 64, 37
1, 974371, Control_c, 0, 64, 41
1, 974386, Control_c, 0, 64, 41
1, 974397, Note_off_c, 0, 57, 56
1, 974401, Control_c, 0, 64, 40
1, 974409, Note_off_c, 0, 64, 51
1, 974416, Control_c, 0, 64, 39
1, 974431, Control_c, 0, 64, 39
1, 974432, Note_on_c, 0, 62, 41
1, 974438, Note_on_c, 0, 71, 52
1, 974445, Control_c, 0, 64, 38
1, 974460, Control_c, 0, 64, 38
1, 974475, Control_c, 0, 64, 37
1, 974478, Note_off_c, 0, 71, 58
1, 974490, Control_c, 0, 64, 36
1, 974505, Control_c, 0, 64, 36
1, 974520, Control_c, 0, 64, 34
1, 974529, Note_on_c, 0, 64, 39
1, 974534, Control_c, 0, 64, 34
1, 974579, Control_c, 0, 64, 33
1, 974593, Control_c, 0, 64, 32
1, 974608, Control_c, 0, 64, 29
1, 974623, Control_c, 0, 64, 28
1, 974625, Note_on_c, 0, 71, 48
1, 974625, Note_off_c, 0, 64, 48
1, 974635, Note_on_c, 0, 60, 45
1, 974638, Note_off_c, 0, 62, 45
1, 974638, Control_c, 0, 64, 28
1, 974652, Control_c, 0, 64, 26
1, 974667, Control_c, 0, 64, 26
1, 974682, Control_c, 0, 64, 24
1, 974697, Control_c, 0, 64, 22
1, 974712, Control_c, 0, 64, 19
1, 974714, Note_on_c, 0, 69, 51
1, 974714, Note_off_c, 0, 71, 57
1, 974726, Control_c, 0, 64, 18
1, 974741, Control_c, 0, 64, 17
1, 974753, Note_off_c, 0, 69, 62
1, 974756, Control_c, 0, 64, 15
1, 974772, Control_c, 0, 64, 12
1, 974787, Control_c, 0, 64, 8
1, 974801, Note_on_c, 0, 57, 44
1, 974801, Note_on_c, 0, 64, 50
1, 974802, Control_c, 0, 64, 0
1, 974913, Note_on_c, 0, 69, 41
1, 974947, Note_off_c, 0, 64, 38
1, 974976, Note_off_c, 0, 60, 29
1, 975003, Note_off_c, 0, 57, 37
1, 975003, Note_off_c, 0, 69, 60
1, 975004, Note_on_c, 0, 56, 43
1, 975013, Note_on_c, 0, 72, 49
1, 975109, Note_on_c, 0, 71, 48
1, 975129, Note_off_c, 0, 72, 37
1, 975164, Note_off_c, 0, 71, 59
1, 975189, Note_off_c, 0, 56, 53
1, 975192, Note_on_c, 0, 64, 53
1, 975195, Note_on_c, 0, 52, 32
1, 975292, Note_on_c, 0, 71, 47
1, 975298, Note_off_c, 0, 64, 52
1, 975370, Note_on_c, 0, 60, 45
1, 975376, Note_on_c, 0, 68, 58
1, 975381, Note_off_c, 0, 52, 41
1, 975382, Note_off_c, 0, 71, 61
1, 975459, Note_on_c, 0, 69, 56
1, 975471, Note_off_c, 0, 68, 52
1, 975513, Note_off_c, 0, 69, 62
1, 975552, Note_on_c, 0, 64, 58
1, 975566, Note_on_c, 0, 57, 49
1, 975626, Note_off_c, 0, 60, 37
1, 975660, Note_off_c, 0, 64, 60
1, 975662, Note_on_c, 0, 69, 52
1, 975737, Note_on_c, 0, 56, 54
1, 975742, Note_off_c, 0, 69, 56
1, 975754, Note_on_c, 0, 72, 60
1, 975761, Note_off_c, 0, 57, 53
1, 975778, Control_c, 0, 64, 12
1, 975793, Control_c, 0, 64, 31
1, 975808, Control_c, 0, 64, 43
1, 975823, Control_c, 0, 64, 51
1, 975838, Note_off_c, 0, 72, 56
1, 975838, Control_c, 0, 64, 56
1, 975844, Note_on_c, 0, 71, 52
1, 975853, Control_c, 0, 64, 59
1, 975868, Control_c, 0, 64, 60
1, 975887, Note_off_c, 0, 71, 57
1, 975915, Note_on_c, 0, 52, 50
1, 975921, Note_on_c, 0, 64, 54
1, 975942, Control_c, 0, 64, 59
1, 975960, Note_off_c, 0, 56, 58
1, 975971, Control_c, 0, 64, 59
1, 975986, Control_c, 0, 64, 58
1, 975991, Note_off_c, 0, 64, 62
1, 976015, Control_c, 0, 64, 58
1, 976022, Note_on_c, 0, 71, 47
1, 976030, Control_c, 0, 64, 57
1, 976045, Control_c, 0, 64, 56
1, 976060, Control_c, 0, 64, 55
1, 976073, Note_off_c, 0, 71, 56
1, 976075, Control_c, 0, 64, 54
1, 976089, Control_c, 0, 64, 51
1, 976104, Control_c, 0, 64, 48
1, 976115, Note_on_c, 0, 74, 48
1, 976119, Control_c, 0, 64, 45
1, 976134, Control_c, 0, 64, 42
1, 976139, Note_on_c, 0, 67, 52
1, 976149, Control_c, 0, 64, 39
1, 976163, Control_c, 0, 64, 36
1, 976178, Control_c, 0, 64, 32
1, 976193, Control_c, 0, 64, 25
1, 976202, Note_off_c, 0, 74, 55
1, 976203, Note_on_c, 0, 72, 58
1, 976208, Control_c, 0, 64, 18
1, 976222, Control_c, 0, 64, 12
1, 976237, Control_c, 0, 64, 0
1, 976267, Note_off_c, 0, 72, 54
1, 976291, Note_on_c, 0, 71, 57
1, 976312, Note_on_c, 0, 50, 41
1, 976326, Note_off_c, 0, 67, 36
1, 976367, Note_off_c, 0, 50, 59
1, 976390, Note_on_c, 0, 48, 54
1, 976393, Note_on_c, 0, 72, 58
1, 976451, Note_off_c, 0, 71, 29
1, 976454, Note_off_c, 0, 72, 48
1, 976466, Note_off_c, 0, 48, 60
1, 976471, Note_on_c, 0, 74, 62
1, 976488, Note_on_c, 0, 47, 52
1, 976539, Note_off_c, 0, 74, 62
1, 976577, Note_on_c, 0, 67, 45
1, 976631, Note_off_c, 0, 47, 59
1, 976636, Note_off_c, 0, 67, 50
1, 976649, Note_on_c, 0, 43, 47
1, 976659, Note_on_c, 0, 75, 57
1, 976723, Note_off_c, 0, 75, 60
1, 976750, Note_on_c, 0, 67, 55
1, 976816, Note_off_c, 0, 67, 54
1, 976827, Note_off_c, 0, 52, 36
1, 976841, Note_on_c, 0, 76, 57
1, 976847, Note_on_c, 0, 48, 43
1, 976908, Note_off_c, 0, 76, 63
1, 976929, Note_on_c, 0, 67, 55
1, 976975, Note_off_c, 0, 43, 40
1, 976998, Note_off_c, 0, 67, 59
1, 977021, Note_on_c, 0, 77, 59
1, 977024, Note_on_c, 0, 50, 53
1, 977051, Note_off_c, 0, 48, 55
1, 977069, Note_off_c, 0, 77, 55
1, 977116, Note_on_c, 0, 67, 55
1, 977171, Note_off_c, 0, 50, 64
1, 977185, Note_off_c, 0, 67, 54
1, 977203, Note_on_c, 0, 52, 52
1, 977209, Note_on_c, 0, 79, 54
1, 977265, Note_off_c, 0, 79, 49
1, 977296, Note_on_c, 0, 67, 58
1, 977360, Note_off_c, 0, 67, 60
1, 977379, Note_on_c, 0, 53, 51
1, 977380, Note_off_c, 0, 52, 63
1, 977409, Note_on_c, 0, 81, 35
1, 977451, Note_off_c, 0, 81, 47
1, 977511, Note_on_c, 0, 71, 45
1, 977543, Note_off_c, 0, 53, 59
1, 977554, Note_on_c, 0, 52, 44
1, 977562, Note_off_c, 0, 71, 57
1, 977571, Note_on_c, 0, 79, 60
1, 977679, Note_off_c, 0, 79, 59
1, 977683, Note_on_c, 0, 72, 48
1, 977743, Note_off_c, 0, 52, 58
1, 977749, Note_on_c, 0, 56, 45
1, 977757, Note_on_c, 0, 77, 58
1, 977769, Note_off_c, 0, 72, 57
1, 977805, Note_off_c, 0, 77, 57
1, 977810, Control_c, 0, 64, 18
1, 977825, Control_c, 0, 64, 29
1, 977847, Control_c, 0, 64, 36
1, 977861, Note_on_c, 0, 71, 51
1, 977862, Control_c, 0, 64, 43
1, 977877, Control_c, 0, 64, 48
1, 977892, Control_c, 0, 64, 51
1, 977907, Control_c, 0, 64, 52
1, 977922, Control_c, 0, 64, 53
1, 977945, Note_on_c, 0, 57, 50
1, 977945, Note_off_c, 0, 71, 50
1, 977946, Note_on_c, 0, 76, 55
1, 977951, Control_c, 0, 64, 53
1, 977958, Note_off_c, 0, 56, 54
1, 977966, Control_c, 0, 64, 54
1, 977981, Control_c, 0, 64, 54
1, 978027, Note_off_c, 0, 57, 55
1, 978029, Note_on_c, 0, 72, 61
1, 978037, Note_off_c, 0, 76, 63
1, 978056, Control_c, 0, 64, 55
1, 978071, Control_c, 0, 64, 55
1, 978094, Note_off_c, 0, 72, 61
1, 978100, Control_c, 0, 64, 56
1, 978124, Note_on_c, 0, 74, 50
1, 978127, Note_on_c, 0, 65, 65
1, 978145, Control_c, 0, 64, 55
1, 978160, Control_c, 0, 64, 54
1, 978174, Control_c, 0, 64, 52
1, 978189, Control_c, 0, 64, 49
1, 978204, Control_c, 0, 64, 42
1, 978217, Note_off_c, 0, 74, 62
1, 978218, Control_c, 0, 64, 22
1, 978226, Note_on_c, 0, 69, 52
1, 978233, Control_c, 0, 64, 0
1, 978286, Note_off_c, 0, 69, 62
1, 978319, Note_on_c, 0, 64, 63
1, 978326, Note_on_c, 0, 72, 53
1, 978337, Control_c, 0, 64, 42
1, 978346, Note_off_c, 0, 65, 54
1, 978352, Control_c, 0, 64, 55
1, 978366, Control_c, 0, 64, 59
1, 978373, Note_off_c, 0, 72, 60
1, 978381, Control_c, 0, 64, 60
1, 978395, Note_on_c, 0, 69, 67
1, 978396, Control_c, 0, 64, 61
1, 978410, Control_c, 0, 64, 61
1, 978425, Control_c, 0, 64, 62
1, 978467, Note_off_c, 0, 69, 58
1, 978491, Note_off_c, 0, 64, 55
1, 978497, Note_on_c, 0, 57, 55
1, 978497, Note_on_c, 0, 74, 48
1, 978498, Note_on_c, 0, 53, 56
1, 978537, Note_off_c, 0, 57, 62
1, 978545, Note_off_c, 0, 53, 64
1, 978582, Note_off_c, 0, 74, 61
1, 978583, Note_on_c, 0, 69, 60
1, 978636, Note_off_c, 0, 69, 54
1, 978640, Control_c, 0, 64, 61
1, 978655, Control_c, 0, 64, 61
1, 978670, Control_c, 0, 64, 58
1, 978683, Note_on_c, 0, 76, 47
1, 978685, Control_c, 0, 64, 46
1, 978700, Control_c, 0, 64, 0
1, 978703, Note_on_c, 0, 57, 43
1, 978706, Note_on_c, 0, 60, 44
1, 978716, Note_on_c, 0, 52, 54
1, 978734, Note_off_c, 0, 76, 59
1, 978772, Note_off_c, 0, 60, 59
1, 978774, Note_on_c, 0, 64, 51
1, 978804, Control_c, 0, 64, 50
1, 978819, Control_c, 0, 64, 60
1, 978834, Control_c, 0, 64, 61
1, 978843, Note_off_c, 0, 64, 61
1, 978877, Note_off_c, 0, 52, 52
1, 978884, Note_off_c, 0, 57, 58
1, 978884, Note_on_c, 0, 76, 59
1, 978893, Control_c, 0, 64, 62
1, 978905, Note_on_c, 0, 56, 32
1, 978923, Note_on_c, 0, 59, 40
1, 978933, Note_off_c, 0, 56, 50
1, 978974, Note_off_c, 0, 59, 62
1, 978978, Note_on_c, 0, 77, 66
1, 978980, Note_off_c, 0, 76, 61
1, 978997, Control_c, 0, 64, 61
1, 979012, Control_c, 0, 64, 60
1, 979027, Control_c, 0, 64, 56
1, 979029, Note_off_c, 0, 77, 58
1, 979041, Control_c, 0, 64, 45
1, 979056, Control_c, 0, 64, 0
1, 979077, Note_on_c, 0, 60, 52
1, 979100, Note_on_c, 0, 77, 47
1, 979158, Note_off_c, 0, 77, 60
1, 979178, Note_on_c, 0, 76, 65
1, 979208, Note_off_c, 0, 76, 64
1, 979236, Note_off_c, 0, 60, 61
1, 979260, Note_on_c, 0, 76, 66
1, 979269, Note_on_c, 0, 65, 46
1, 979318, Note_off_c, 0, 76, 64
1, 979364, Note_on_c, 0, 74, 59
1, 979391, Note_off_c, 0, 74, 68
1, 979447, Note_on_c, 0, 74, 70
1, 979452, Note_on_c, 0, 64, 58
1, 979484, Note_off_c, 0, 65, 38
1, 979499, Note_off_c, 0, 74, 64
1, 979539, Note_on_c, 0, 72, 65
1, 979565, Note_off_c, 0, 72, 69
1, 979625, Note_on_c, 0, 72, 67
1, 979635, Note_on_c, 0, 62, 56
1, 979641, Note_off_c, 0, 64, 59
1, 979683, Note_off_c, 0, 72, 63
1, 979690, Note_off_c, 0, 62, 59
1, 979701, Control_c, 0, 64, 18
1, 979716, Control_c, 0, 64, 35
1, 979723, Note_on_c, 0, 71, 65
1, 979730, Control_c, 0, 64, 40
1, 979749, Note_off_c, 0, 71, 65
1, 979760, Control_c, 0, 64, 39
1, 979775, Control_c, 0, 64, 38
1, 979790, Control_c, 0, 64, 36
1, 979805, Control_c, 0, 64, 33
1, 979819, Control_c, 0, 64, 27
1, 979822, Note_on_c, 0, 71, 72
1, 979829, Note_on_c, 0, 60, 53
1, 979834, Control_c, 0, 64, 10
1, 979849, Control_c, 0, 64, 0
1, 979898, Note_off_c, 0, 71, 56
1, 979900, Note_on_c, 0, 69, 66
1, 979963, Note_off_c, 0, 69, 62
1, 980002, Note_on_c, 0, 64, 57
1, 980011, Note_on_c, 0, 57, 50
1, 980032, Note_off_c, 0, 60, 48
1, 980095, Note_on_c, 0, 69, 57
1, 980099, Note_off_c, 0, 64, 61
1, 980183, Note_off_c, 0, 57, 55
1, 980187, Note_off_c, 0, 69, 58
1, 980197, Note_on_c, 0, 56, 46
1, 980199, Note_on_c, 0, 72, 54
1, 980289, Note_on_c, 0, 71, 52
1, 980337, Note_off_c, 0, 72, 53
1, 980351, Note_off_c, 0, 56, 51
1, 980359, Note_off_c, 0, 71, 62
1, 980369, Note_on_c, 0, 52, 44
1, 980386, Note_on_c, 0, 64, 56
1, 980478, Note_on_c, 0, 71, 56
1, 980497, Note_off_c, 0, 64, 45
1, 980559, Note_on_c, 0, 60, 53
1, 980571, Note_off_c, 0, 52, 55
1, 980578, Note_on_c, 0, 68, 63
1, 980581, Note_off_c, 0, 71, 61
1, 980664, Note_on_c, 0, 69, 61
1, 980671, Note_off_c, 0, 68, 52
1, 980730, Note_off_c, 0, 69, 61
1, 980736, Note_on_c, 0, 57, 55
1, 980744, Note_on_c, 0, 64, 70
1, 980807, Note_off_c, 0, 60, 55
1, 980855, Note_on_c, 0, 69, 62
1, 980857, Note_off_c, 0, 64, 60
1, 980912, Note_on_c, 0, 56, 54
1, 980926, Note_off_c, 0, 69, 61
1, 980937, Note_off_c, 0, 57, 54
1, 980941, Note_on_c, 0, 72, 60
1, 981022, Note_on_c, 0, 71, 53
1, 981024, Note_off_c, 0, 72, 54
1, 981050, Control_c, 0, 64, 23
1, 981060, Note_on_c, 0, 52, 51
1, 981065, Control_c, 0, 64, 34
1, 981069, Note_off_c, 0, 71, 55
1, 981080, Control_c, 0, 64, 41
1, 981094, Note_off_c, 0, 56, 61
1, 981094, Control_c, 0, 64, 45
1, 981109, Note_on_c, 0, 64, 55
1, 981109, Control_c, 0, 64, 47
1, 981124, Control_c, 0, 64, 48
1, 981176, Note_off_c, 0, 64, 59
1, 981199, Control_c, 0, 64, 47
1, 981200, Note_on_c, 0, 71, 57
1, 981214, Control_c, 0, 64, 46
1, 981229, Control_c, 0, 64, 45
1, 981243, Control_c, 0, 64, 43
1, 981246, Note_off_c, 0, 71, 54
1, 981258, Control_c, 0, 64, 41
1, 981273, Control_c, 0, 64, 38
1, 981288, Control_c, 0, 64, 29
1, 981303, Control_c, 0, 64, 0
1, 981307, Note_on_c, 0, 74, 56
1, 981314, Note_on_c, 0, 67, 63
1, 981398, Note_on_c, 0, 72, 60
1, 981427, Note_off_c, 0, 74, 37
1, 981460, Note_off_c, 0, 72, 61
1, 981466, Control_c, 0, 64, 14
1, 981472, Note_on_c, 0, 71, 61
1, 981481, Control_c, 0, 64, 21
1, 981496, Control_c, 0, 64, 25
1, 981499, Note_off_c, 0, 67, 34
1, 981505, Note_on_c, 0, 50, 38
1, 981510, Control_c, 0, 64, 26
1, 981525, Control_c, 0, 64, 27
1, 981555, Control_c, 0, 64, 26
1, 981555, Note_off_c, 0, 50, 48
1, 981570, Control_c, 0, 64, 25
1, 981570, Note_on_c, 0, 72, 55
1, 981591, Control_c, 0, 64, 23
1, 981593, Note_on_c, 0, 48, 48
1, 981606, Control_c, 0, 64, 19
1, 981612, Note_off_c, 0, 71, 35
1, 981621, Control_c, 0, 64, 14
1, 981636, Control_c, 0, 64, 0
1, 981648, Note_off_c, 0, 48, 62
1, 981650, Note_off_c, 0, 72, 61
1, 981653, Note_on_c, 0, 74, 68
1, 981669, Note_on_c, 0, 47, 59
1, 981714, Note_off_c, 0, 74, 63
1, 981745, Note_on_c, 0, 67, 67
1, 981822, Note_off_c, 0, 47, 60
1, 981827, Note_off_c, 0, 67, 57
1, 981840, Note_on_c, 0, 43, 54
1, 981844, Note_on_c, 0, 75, 60
1, 981897, Note_off_c, 0, 75, 56
1, 981932, Note_on_c, 0, 67, 65
1, 982001, Note_off_c, 0, 67, 60
1, 982017, Note_off_c, 0, 52, 50
1, 982021, Note_on_c, 0, 76, 58
1, 982027, Note_on_c, 0, 48, 53
1, 982052, Control_c, 0, 64, 8
1, 982058, Note_off_c, 0, 76, 60
1, 982063, Note_off_c, 0, 43, 37
1, 982066, Control_c, 0, 64, 36
1, 982081, Control_c, 0, 64, 49
1, 982096, Control_c, 0, 64, 54
1, 982111, Control_c, 0, 64, 56
1, 982119, Note_on_c, 0, 67, 50
1, 982155, Control_c, 0, 64, 55
1, 982156, Note_off_c, 0, 67, 61
1, 982170, Control_c, 0, 64, 54
1, 982184, Control_c, 0, 64, 54
1, 982192, Note_on_c, 0, 78, 59
1, 982192, Note_off_c, 0, 48, 60
1, 982199, Control_c, 0, 64, 53
1, 982202, Note_on_c, 0, 51, 55
1, 982214, Control_c, 0, 64, 52
1, 982229, Control_c, 0, 64, 51
1, 982244, Control_c, 0, 64, 50
1, 982259, Control_c, 0, 64, 49
1, 982260, Note_off_c, 0, 78, 53
1, 982274, Control_c, 0, 64, 48
1, 982289, Control_c, 0, 64, 46
1, 982296, Note_on_c, 0, 71, 57
1, 982304, Control_c, 0, 64, 45
1, 982318, Control_c, 0, 64, 44
1, 982340, Control_c, 0, 64, 43
1, 982355, Control_c, 0, 64, 42
1, 982370, Control_c, 0, 64, 38
1, 982379, Note_off_c, 0, 51, 61
1, 982384, Control_c, 0, 64, 35
1, 982399, Note_on_c, 0, 79, 59
1, 982399, Control_c, 0, 64, 31
1, 982400, Note_off_c, 0, 71, 58
1, 982410, Note_on_c, 0, 52, 59
1, 982414, Control_c, 0, 64, 25
1, 982429, Control_c, 0, 64, 12
1, 982444, Control_c, 0, 64, 0
1, 982478, Note_off_c, 0, 79, 58
1, 982489, Note_on_c, 0, 78, 58
1, 982533, Note_off_c, 0, 78, 52
1, 982572, Note_on_c, 0, 51, 54
1, 982574, Note_off_c, 0, 52, 57
1, 982578, Note_on_c, 0, 71, 61
1, 982667, Note_on_c, 0, 78, 61
1, 982673, Note_off_c, 0, 71, 58
1, 982759, Note_on_c, 0, 52, 55
1, 982759, Note_on_c, 0, 79, 68
1, 982774, Note_off_c, 0, 78, 54
1, 982798, Note_off_c, 0, 51, 38
1, 982827, Note_off_c, 0, 79, 54
1, 982864, Note_on_c, 0, 71, 51
1, 982923, Note_off_c, 0, 71, 59
1, 982938, Note_off_c, 0, 52, 62
1, 982941, Note_on_c, 0, 54, 54
1, 982946, Note_on_c, 0, 81, 57
1, 982963, Control_c, 0, 64, 40
1, 982978, Control_c, 0, 64, 51
1, 982993, Control_c, 0, 64, 56
1, 983007, Control_c, 0, 64, 59
1, 983022, Control_c, 0, 64, 61
1, 983024, Note_off_c, 0, 81, 56
1, 983037, Control_c, 0, 64, 62
1, 983051, Note_on_c, 0, 71, 46
1, 983052, Control_c, 0, 64, 63
1, 983092, Note_off_c, 0, 54, 63
1, 983101, Note_off_c, 0, 71, 63
1, 983120, Note_on_c, 0, 55, 51
1, 983135, Note_on_c, 0, 83, 56
1, 983180, Note_off_c, 0, 83, 54
1, 983227, Note_on_c, 0, 71, 43
1, 983276, Note_off_c, 0, 71, 60
1, 983281, Control_c, 0, 64, 62
1, 983341, Control_c, 0, 64, 62
1, 983364, Note_on_c, 0, 60, 47
1, 983368, Note_on_c, 0, 88, 61
1, 983371, Control_c, 0, 64, 61
1, 983386, Control_c, 0, 64, 61
1, 983400, Control_c, 0, 64, 60
1, 983405, Note_off_c, 0, 55, 38
1, 983415, Control_c, 0, 64, 59
1, 983430, Control_c, 0, 64, 57
1, 983445, Control_c, 0, 64, 55
1, 983460, Control_c, 0, 64, 53
1, 983490, Note_off_c, 0, 88, 62
1, 983505, Note_on_c, 0, 78, 53
1, 983519, Control_c, 0, 64, 54
1, 983548, Control_c, 0, 64, 54
1, 983564, Control_c, 0, 64, 55
1, 983579, Control_c, 0, 64, 55
1, 983587, Note_on_c, 0, 59, 49
1, 983594, Control_c, 0, 64, 56
1, 983606, Note_on_c, 0, 86, 53
1, 983609, Control_c, 0, 64, 56
1, 983623, Control_c, 0, 64, 57
1, 983624, Note_off_c, 0, 60, 37
1, 983633, Note_off_c, 0, 78, 46
1, 983637, Control_c, 0, 64, 57
1, 983652, Control_c, 0, 64, 58
1, 983693, Note_off_c, 0, 86, 62
1, 983696, Note_on_c, 0, 79, 58
1, 983756, Control_c, 0, 64, 58
1, 983771, Control_c, 0, 64, 57
1, 983785, Note_on_c, 0, 63, 52
1, 983785, Control_c, 0, 64, 57
1, 983790, Note_on_c, 0, 84, 63
1, 983790, Note_off_c, 0, 79, 56
1, 983800, Control_c, 0, 64, 56
1, 983802, Note_off_c, 0, 59, 47
1, 983815, Control_c, 0, 64, 56
1, 983837, Control_c, 0, 64, 55
1, 983852, Control_c, 0, 64, 54
1, 983867, Control_c, 0, 64, 53
1, 983882, Control_c, 0, 64, 53
1, 983885, Note_off_c, 0, 84, 63
1, 983897, Control_c, 0, 64, 51
1, 983898, Note_on_c, 0, 78, 55
1, 983911, Control_c, 0, 64, 50
1, 983926, Control_c, 0, 64, 48
1, 983941, Control_c, 0, 64, 47
1, 983950, Note_off_c, 0, 63, 62
1, 983955, Control_c, 0, 64, 46
1, 983970, Control_c, 0, 64, 46
1, 983971, Note_on_c, 0, 64, 57
1, 983985, Control_c, 0, 64, 45
1, 983990, Note_on_c, 0, 83, 57
1, 983995, Note_off_c, 0, 78, 58
1, 984000, Control_c, 0, 64, 44
1, 984015, Control_c, 0, 64, 44
1, 984071, Note_on_c, 0, 79, 58
1, 984074, Note_off_c, 0, 83, 60
1, 984074, Control_c, 0, 64, 43
1, 984104, Control_c, 0, 64, 43
1, 984134, Control_c, 0, 64, 42
1, 984149, Control_c, 0, 64, 41
1, 984160, Note_on_c, 0, 81, 63
1, 984163, Note_on_c, 0, 53, 49
1, 984163, Note_off_c, 0, 79, 35
1, 984163, Control_c, 0, 64, 41
1, 984178, Control_c, 0, 64, 40
1, 984193, Control_c, 0, 64, 38
1, 984208, Control_c, 0, 64, 36
1, 984212, Note_off_c, 0, 81, 59
1, 984223, Control_c, 0, 64, 34
1, 984237, Control_c, 0, 64, 32
1, 984244, Note_on_c, 0, 71, 54
1, 984252, Note_off_c, 0, 64, 32
1, 984252, Control_c, 0, 64, 30
1, 984267, Control_c, 0, 64, 27
1, 984282, Control_c, 0, 64, 23
1, 984297, Control_c, 0, 64, 15
1, 984311, Control_c, 0, 64, 0
1, 984330, Note_off_c, 0, 53, 63
1, 984345, Note_on_c, 0, 52, 54
1, 984346, Note_on_c, 0, 79, 57
1, 984356, Note_off_c, 0, 71, 57
1, 984434, Note_on_c, 0, 72, 60
1, 984447, Note_off_c, 0, 79, 57
1, 984518, Note_on_c, 0, 77, 61
1, 984521, Note_off_c, 0, 72, 57
1, 984530, Note_off_c, 0, 52, 61
1, 984540, Note_on_c, 0, 56, 54
1, 984565, Control_c, 0, 64, 10
1, 984587, Control_c, 0, 64, 18
1, 984592, Note_off_c, 0, 77, 61
1, 984602, Control_c, 0, 64, 23
1, 984617, Control_c, 0, 64, 29
1, 984632, Control_c, 0, 64, 34
1, 984637, Note_on_c, 0, 71, 50
1, 984647, Control_c, 0, 64, 38
1, 984661, Control_c, 0, 64, 40
1, 984676, Control_c, 0, 64, 39
1, 984705, Note_off_c, 0, 71, 44
1, 984706, Control_c, 0, 64, 39
1, 984712, Note_on_c, 0, 76, 58
1, 984721, Control_c, 0, 64, 38
1, 984722, Note_on_c, 0, 57, 59
1, 984733, Note_off_c, 0, 56, 57
1, 984735, Control_c, 0, 64, 38
1, 984750, Control_c, 0, 64, 37
1, 984765, Control_c, 0, 64, 37
1, 984780, Control_c, 0, 64, 36
1, 984793, Note_on_c, 0, 72, 63
1, 984794, Control_c, 0, 64, 36
1, 984800, Note_off_c, 0, 76, 61
1, 984809, Control_c, 0, 64, 35
1, 984839, Control_c, 0, 64, 35
1, 984852, Note_off_c, 0, 57, 42
1, 984864, Note_off_c, 0, 72, 61
1, 984887, Note_on_c, 0, 74, 57
1, 984888, Note_on_c, 0, 65, 60
1, 984898, Control_c, 0, 64, 34
1, 984913, Control_c, 0, 64, 34
1, 984927, Control_c, 0, 64, 32
1, 984942, Control_c, 0, 64, 28
1, 984957, Control_c, 0, 64, 20
1, 984972, Control_c, 0, 64, 0
1, 984974, Note_off_c, 0, 74, 62
1, 984979, Note_on_c, 0, 69, 49
1, 985035, Note_off_c, 0, 69, 61
1, 985064, Note_on_c, 0, 72, 58
1, 985070, Note_on_c, 0, 64, 63
1, 985106, Note_off_c, 0, 65, 44
1, 985115, Note_off_c, 0, 72, 57
1, 985120, Control_c, 0, 64, 38
1, 985135, Control_c, 0, 64, 49
1, 985141, Note_on_c, 0, 69, 68
1, 985150, Control_c, 0, 64, 52
1, 985165, Control_c, 0, 64, 54
1, 985180, Control_c, 0, 64, 54
1, 985234, Note_off_c, 0, 69, 54
1, 985240, Control_c, 0, 64, 54
1, 985242, Note_on_c, 0, 57, 52
1, 985246, Note_on_c, 0, 53, 57
1, 985253, Note_on_c, 0, 74, 53
1, 985259, Note_off_c, 0, 64, 37
1, 985294, Note_off_c, 0, 57, 61
1, 985308, Note_off_c, 0, 53, 65
1, 985352, Note_off_c, 0, 74, 62
1, 985356, Note_on_c, 0, 69, 63
1, 985365, Control_c, 0, 64, 54
1, 985380, Control_c, 0, 64, 55
1, 985395, Control_c, 0, 64, 56
1, 985410, Control_c, 0, 64, 57
1, 985425, Control_c, 0, 64, 58
1, 985427, Note_off_c, 0, 69, 62
1, 985433, Note_on_c, 0, 76, 25
1, 985439, Control_c, 0, 64, 56
1, 985454, Note_on_c, 0, 60, 61
1, 985454, Control_c, 0, 64, 49
1, 985463, Note_on_c, 0, 57, 52
1, 985469, Control_c, 0, 64, 15
1, 985470, Note_on_c, 0, 52, 51
1, 985484, Control_c, 0, 64, 0
1, 985487, Note_off_c, 0, 76, 48
1, 985538, Note_on_c, 0, 64, 57
1, 985550, Note_off_c, 0, 60, 58
1, 985558, Control_c, 0, 64, 36
1, 985573, Control_c, 0, 64, 57
1, 985588, Control_c, 0, 64, 62
1, 985602, Control_c, 0, 64, 63
1, 985642, Note_off_c, 0, 64, 58
1, 985681, Note_off_c, 0, 57, 55
1, 985705, Note_on_c, 0, 76, 55
1, 985708, Note_off_c, 0, 52, 52
1, 985713, Note_on_c, 0, 56, 44
1, 985722, Note_on_c, 0, 59, 48
1, 985765, Control_c, 0, 64, 62
1, 985795, Control_c, 0, 64, 62
1, 985801, Note_off_c, 0, 56, 39
1, 985806, Note_off_c, 0, 76, 61
1, 985809, Control_c, 0, 64, 61
1, 985810, Note_on_c, 0, 77, 60
1, 985824, Control_c, 0, 64, 61
1, 985839, Control_c, 0, 64, 60
1, 985854, Control_c, 0, 64, 59
1, 985869, Control_c, 0, 64, 59
1, 985898, Control_c, 0, 64, 58
1, 985913, Control_c, 0, 64, 58
1, 985928, Control_c, 0, 64, 57
1, 985943, Control_c, 0, 64, 56
1, 985954, Note_off_c, 0, 77, 59
1, 985966, Note_on_c, 0, 76, 62
1, 985973, Note_on_c, 0, 60, 47
1, 985973, Control_c, 0, 64, 55
1, 985981, Note_off_c, 0, 59, 51
1, 985988, Control_c, 0, 64, 55
1, 986003, Control_c, 0, 64, 54
1, 986018, Control_c, 0, 64, 53
1, 986033, Control_c, 0, 64, 51
1, 986048, Control_c, 0, 64, 49
1, 986059, Note_on_c, 0, 77, 63
1, 986062, Control_c, 0, 64, 47
1, 986078, Note_off_c, 0, 76, 56
1, 986085, Control_c, 0, 64, 45
1, 986100, Control_c, 0, 64, 43
1, 986114, Control_c, 0, 64, 40
1, 986116, Note_off_c, 0, 77, 60
1, 986129, Control_c, 0, 64, 37
1, 986144, Control_c, 0, 64, 34
1, 986148, Note_on_c, 0, 74, 63
1, 986159, Control_c, 0, 64, 31
1, 986174, Control_c, 0, 64, 27
1, 986179, Note_on_c, 0, 59, 46
1, 986188, Control_c, 0, 64, 24
1, 986203, Control_c, 0, 64, 21
1, 986205, Note_off_c, 0, 60, 38
1, 986218, Control_c, 0, 64, 17
1, 986232, Control_c, 0, 64, 0
1, 986236, Note_on_c, 0, 76, 64
1, 986250, Note_off_c, 0, 74, 58
1, 986340, Note_on_c, 0, 57, 51
1, 986346, Note_off_c, 0, 76, 63
1, 986347, Note_on_c, 0, 72, 60
1, 986353, Note_off_c, 0, 59, 48
1, 986428, Note_on_c, 0, 74, 59
1, 986429, Note_off_c, 0, 72, 60
1, 986477, Note_off_c, 0, 74, 60
1, 986520, Note_on_c, 0, 71, 57
1, 986520, Note_off_c, 0, 57, 61
1, 986540, Note_on_c, 0, 62, 56
1, 986625, Note_on_c, 0, 72, 50
1, 986628, Note_off_c, 0, 71, 48
1, 986736, Control_c, 0, 64, 14
1, 986748, Note_on_c, 0, 71, 61
1, 986752, Control_c, 0, 64, 20
1, 986760, Note_on_c, 0, 60, 53
1, 986767, Control_c, 0, 64, 21
1, 986781, Control_c, 0, 64, 22
1, 986790, Note_off_c, 0, 62, 56
1, 986791, Note_off_c, 0, 72, 54
1, 986811, Note_off_c, 0, 71, 55
1, 986811, Control_c, 0, 64, 23
1, 986835, Note_on_c, 0, 69, 58
1, 986870, Note_off_c, 0, 69, 65
1, 986878, Control_c, 0, 64, 23
1, 986927, Note_on_c, 0, 64, 46
1, 986952, Control_c, 0, 64, 24
1, 986954, Note_on_c, 0, 57, 43
1, 986981, Control_c, 0, 64, 25
1, 986996, Control_c, 0, 64, 26
1, 987014, Note_on_c, 0, 69, 50
1, 987022, Note_off_c, 0, 64, 54
1, 987026, Control_c, 0, 64, 26
1, 987055, Control_c, 0, 64, 27
1, 987085, Control_c, 0, 64, 28
1, 987121, Note_off_c, 0, 57, 31
1, 987130, Control_c, 0, 64, 28
1, 987139, Note_on_c, 0, 72, 49
1, 987144, Control_c, 0, 64, 29
1, 987146, Note_off_c, 0, 69, 37
1, 987153, Note_on_c, 0, 62, 63
1, 987158, Note_off_c, 0, 60, 53
1, 987167, Note_on_c, 0, 56, 37
1, 987174, Control_c, 0, 64, 29
1, 987204, Control_c, 0, 64, 30
1, 987240, Note_on_c, 0, 71, 35
1, 987279, Note_off_c, 0, 71, 52
1, 987279, Note_off_c, 0, 72, 59
1, 987293, Control_c, 0, 64, 29
1, 987305, Note_on_c, 0, 64, 49
1, 987322, Control_c, 0, 64, 29
1, 987323, Note_off_c, 0, 56, 61
1, 987337, Control_c, 0, 64, 28
1, 987347, Note_on_c, 0, 52, 48
1, 987352, Control_c, 0, 64, 28
1, 987367, Control_c, 0, 64, 27
1, 987381, Control_c, 0, 64, 26
1, 987396, Control_c, 0, 64, 26
1, 987411, Control_c, 0, 64, 25
1, 987419, Note_on_c, 0, 71, 47
1, 987426, Control_c, 0, 64, 24
1, 987441, Control_c, 0, 64, 23
1, 987455, Control_c, 0, 64, 23
1, 987470, Control_c, 0, 64, 22
1, 987485, Control_c, 0, 64, 20
1, 987500, Control_c, 0, 64, 19
1, 987515, Control_c, 0, 64, 17
1, 987529, Control_c, 0, 64, 12
1, 987544, Control_c, 0, 64, 0
1, 987601, Note_on_c, 0, 61, 69
1, 987604, Note_on_c, 0, 68, 49
1, 987605, Note_off_c, 0, 64, 42
1, 987628, Note_off_c, 0, 52, 46
1, 987628, Note_off_c, 0, 71, 49
1, 987668, Note_off_c, 0, 62, 47
1, 987702, Note_on_c, 0, 69, 53
1, 987741, Note_off_c, 0, 68, 37
1, 987791, Note_off_c, 0, 69, 60
1, 987827, Note_on_c, 0, 64, 54
1, 987848, Note_on_c, 0, 57, 35
1, 987953, Note_on_c, 0, 69, 36
1, 987960, Note_off_c, 0, 64, 48
1, 988036, Note_off_c, 0, 57, 40
1, 988051, Note_on_c, 0, 62, 59
1, 988052, Note_on_c, 0, 73, 58
1, 988057, Control_c, 0, 64, 40
1, 988066, Note_on_c, 0, 56, 49
1, 988071, Control_c, 0, 64, 54
1, 988086, Control_c, 0, 64, 60
1, 988089, Note_off_c, 0, 61, 62
1, 988090, Note_off_c, 0, 69, 38
1, 988101, Control_c, 0, 64, 63
1, 988116, Control_c, 0, 64, 63
1, 988129, Control_c, 0, 64, 64
1, 988159, Control_c, 0, 64, 64
1, 988171, Note_on_c, 0, 71, 50
1, 988212, Note_off_c, 0, 56, 58
1, 988234, Note_off_c, 0, 73, 49
1, 988241, Note_off_c, 0, 71, 60
1, 988241, Note_on_c, 0, 52, 50
1, 988263, Control_c, 0, 64, 64
1, 988269, Note_on_c, 0, 64, 41
1, 988307, Control_c, 0, 64, 63
1, 988342, Note_off_c, 0, 64, 56
1, 988344, Control_c, 0, 64, 63
1, 988351, Note_on_c, 0, 71, 49
1, 988361, Control_c, 0, 64, 62
1, 988375, Control_c, 0, 64, 60
1, 988376, Note_off_c, 0, 71, 60
1, 988390, Control_c, 0, 64, 55
1, 988405, Control_c, 0, 64, 50
1, 988420, Control_c, 0, 64, 43
1, 988434, Control_c, 0, 64, 36
1, 988449, Note_on_c, 0, 71, 65
1, 988449, Control_c, 0, 64, 24
1, 988450, Note_on_c, 0, 60, 60
1, 988455, Note_off_c, 0, 52, 29
1, 988464, Control_c, 0, 64, 0
1, 988517, Note_off_c, 0, 62, 45
1, 988546, Note_on_c, 0, 69, 63
1, 988571, Note_off_c, 0, 71, 50
1, 988601, Note_off_c, 0, 69, 61
1, 988633, Note_on_c, 0, 64, 62
1, 988649, Note_on_c, 0, 57, 48
1, 988757, Note_on_c, 0, 69, 57
1, 988782, Note_off_c, 0, 64, 47
1, 988849, Control_c, 0, 64, 34
1, 988864, Control_c, 0, 64, 48
1, 988867, Note_on_c, 0, 72, 54
1, 988870, Note_off_c, 0, 57, 37
1, 988876, Note_off_c, 0, 69, 60
1, 988877, Note_on_c, 0, 62, 51
1, 988879, Control_c, 0, 64, 55
1, 988885, Note_on_c, 0, 56, 49
1, 988893, Control_c, 0, 64, 59
1, 988898, Note_off_c, 0, 60, 57
1, 988908, Control_c, 0, 64, 60
1, 988923, Control_c, 0, 64, 61
1, 988951, Note_on_c, 0, 71, 47
1, 989007, Note_off_c, 0, 71, 54
1, 989012, Control_c, 0, 64, 60
1, 989026, Control_c, 0, 64, 60
1, 989049, Note_off_c, 0, 56, 57
1, 989056, Control_c, 0, 64, 59
1, 989058, Note_on_c, 0, 64, 52
1, 989061, Note_off_c, 0, 72, 48
1, 989073, Note_on_c, 0, 52, 51
1, 989079, Control_c, 0, 64, 59
1, 989094, Control_c, 0, 64, 58
1, 989108, Control_c, 0, 64, 58
1, 989123, Control_c, 0, 64, 57
1, 989138, Control_c, 0, 64, 56
1, 989154, Control_c, 0, 64, 55
1, 989168, Note_on_c, 0, 71, 59
1, 989169, Control_c, 0, 64, 54
1, 989183, Control_c, 0, 64, 53
1, 989198, Control_c, 0, 64, 50
1, 989213, Control_c, 0, 64, 45
1, 989228, Control_c, 0, 64, 37
1, 989243, Control_c, 0, 64, 23
1, 989257, Control_c, 0, 64, 0
1, 989270, Note_off_c, 0, 64, 30
1, 989308, Note_on_c, 0, 61, 57
1, 989314, Note_on_c, 0, 68, 57
1, 989316, Note_off_c, 0, 71, 59
1, 989323, Note_off_c, 0, 52, 34
1, 989401, Note_off_c, 0, 62, 36
1, 989410, Note_on_c, 0, 69, 55
1, 989457, Note_off_c, 0, 68, 37
1, 989487, Note_off_c, 0, 69, 61
1, 989524, Note_on_c, 0, 64, 55
1, 989531, Note_on_c, 0, 57, 37
1, 989647, Note_on_c, 0, 69, 46
1, 989657, Note_off_c, 0, 64, 58
1, 989770, Note_on_c, 0, 73, 55
1, 989809, Note_on_c, 0, 62, 49
1, 989809, Note_off_c, 0, 57, 40
1, 989810, Note_off_c, 0, 69, 39
1, 989825, Note_on_c, 0, 56, 38
1, 989850, Note_off_c, 0, 61, 50
1, 989910, Note_on_c, 0, 71, 57
1, 990044, Note_off_c, 0, 73, 53
1, 990048, Note_off_c, 0, 71, 58
1, 990072, Note_on_c, 0, 52, 31
1, 990086, Note_on_c, 0, 64, 47
1, 990086, Note_off_c, 0, 56, 36
1, 990249, Note_on_c, 0, 71, 49
1, 990328, Note_off_c, 0, 64, 45
1, 990370, Note_off_c, 0, 52, 41
1, 990380, Note_off_c, 0, 71, 57
1, 990393, Note_off_c, 0, 62, 48
1, 990401, Note_on_c, 0, 61, 52
1, 990403, Note_on_c, 0, 57, 51
1, 990405, Note_on_c, 0, 69, 50
1, 990430, Note_off_c, 0, 57, 62
1, 990432, Note_off_c, 0, 61, 64
1, 990448, Note_off_c, 0, 69, 61
1, 990517, Note_on_c, 0, 64, 41
1, 990625, Note_on_c, 0, 68, 53
1, 990626, Note_on_c, 0, 62, 53
1, 990642, Note_on_c, 0, 52, 33
1, 990650, Note_off_c, 0, 62, 61
1, 990678, Note_off_c, 0, 52, 31
1, 990701, Note_off_c, 0, 64, 32
1, 990746, Note_off_c, 0, 68, 50
1, 990750, Note_on_c, 0, 71, 47
1, 990832, Note_on_c, 0, 61, 64
1, 990838, Note_on_c, 0, 57, 45
1, 990850, Note_on_c, 0, 69, 59
1, 990856, Note_off_c, 0, 71, 56
1, 990858, Note_off_c, 0, 61, 64
1, 990864, Note_off_c, 0, 57, 57
1, 990898, Note_off_c, 0, 69, 60
1, 990940, Note_on_c, 0, 64, 51
1, 991022, Note_on_c, 0, 62, 66
1, 991032, Note_on_c, 0, 52, 53
1, 991037, Note_on_c, 0, 68, 59
1, 991049, Note_off_c, 0, 62, 65
1, 991057, Note_off_c, 0, 52, 58
1, 991125, Note_off_c, 0, 64, 36
1, 991140, Note_on_c, 0, 76, 46
1, 991164, Note_off_c, 0, 68, 60
1, 991202, Note_on_c, 0, 61, 66
1, 991209, Note_on_c, 0, 57, 50
1, 991226, Note_on_c, 0, 69, 61
1, 991228, Note_off_c, 0, 61, 67
1, 991233, Note_off_c, 0, 57, 57
1, 991306, Note_off_c, 0, 69, 57
1, 991309, Note_on_c, 0, 64, 63
1, 991351, Note_off_c, 0, 76, 42
1, 991416, Note_on_c, 0, 68, 58
1, 991419, Note_on_c, 0, 52, 21
1, 991465, Note_off_c, 0, 52, 29
1, 991502, Note_off_c, 0, 64, 37
1, 991512, Note_on_c, 0, 71, 54
1, 991521, Note_off_c, 0, 68, 59
1, 991577, Control_c, 0, 64, 14
1, 991592, Control_c, 0, 64, 37
1, 991604, Note_on_c, 0, 61, 31
1, 991607, Control_c, 0, 64, 45
1, 991613, Note_on_c, 0, 69, 63
1, 991622, Control_c, 0, 64, 49
1, 991634, Note_on_c, 0, 57, 45
1, 991637, Control_c, 0, 64, 52
1, 991644, Note_off_c, 0, 61, 46
1, 991652, Control_c, 0, 64, 55
1, 991667, Control_c, 0, 64, 58
1, 991681, Control_c, 0, 64, 60
1, 991696, Control_c, 0, 64, 61
1, 991720, Note_off_c, 0, 57, 59
1, 991729, Note_on_c, 0, 52, 57
1, 991828, Note_off_c, 0, 52, 64
1, 991830, Note_on_c, 0, 57, 58
1, 991896, Note_off_c, 0, 57, 57
1, 991941, Note_on_c, 0, 61, 65
1, 991992, Control_c, 0, 64, 60
1, 992049, Note_on_c, 0, 64, 62
1, 992051, Note_off_c, 0, 71, 8
1, 992076, Note_off_c, 0, 61, 59
1, 992089, Control_c, 0, 64, 60
1, 992150, Note_off_c, 0, 69, 61
1, 992154, Note_off_c, 0, 64, 65
1, 992160, Note_on_c, 0, 66, 69
1, 992254, Note_on_c, 0, 63, 67
1, 992254, Note_off_c, 0, 66, 64
1, 992343, Note_off_c, 0, 63, 62
1, 992352, Note_on_c, 0, 66, 72
1, 992386, Control_c, 0, 64, 59
1, 992400, Control_c, 0, 64, 58
1, 992415, Control_c, 0, 64, 51
1, 992430, Control_c, 0, 64, 10
1, 992441, Note_off_c, 0, 66, 66
1, 992445, Control_c, 0, 64, 0
1, 992452, Note_on_c, 0, 64, 65
1, 992460, Control_c, 0, 67, 116
1, 992474, Control_c, 0, 67, 82
1, 992489, Control_c, 0, 67, 53
1, 992504, Control_c, 0, 67, 31
1, 992519, Control_c, 0, 64, 35
1, 992519, Control_c, 0, 67, 15
1, 992534, Control_c, 0, 64, 60
1, 992534, Control_c, 0, 67, 0
1, 992542, Note_off_c, 0, 64, 63
1, 992549, Control_c, 0, 64, 65
1, 992549, Note_on_c, 0, 66, 73
1, 992564, Control_c, 0, 64, 67
1, 992579, Control_c, 0, 64, 67
1, 992593, Control_c, 0, 64, 68
1, 992608, Control_c, 0, 64, 69
1, 992623, Control_c, 0, 64, 70
1, 992638, Control_c, 0, 64, 70
1, 992639, Note_off_c, 0, 66, 54
1, 992655, Note_on_c, 0, 63, 49
1, 992667, Control_c, 0, 64, 71
1, 992740, Note_off_c, 0, 63, 57
1, 992758, Note_on_c, 0, 66, 56
1, 992838, Control_c, 0, 64, 70
1, 992853, Control_c, 0, 64, 68
1, 992858, Note_off_c, 0, 66, 38
1, 992867, Control_c, 0, 64, 64
1, 992882, Control_c, 0, 64, 60
1, 992897, Control_c, 0, 64, 54
1, 992898, Note_on_c, 0, 64, 42
1, 992912, Note_on_c, 0, 85, 71
1, 992926, Control_c, 0, 64, 56
1, 992941, Control_c, 0, 64, 59
1, 992956, Control_c, 0, 64, 62
1, 992971, Control_c, 0, 64, 64
1, 992986, Control_c, 0, 64, 66
1, 992993, Poly_aftertouch_c, 0, 73, 127
1, 993000, Control_c, 0, 64, 68
1, 993015, Control_c, 0, 64, 69
1, 993022, Note_on_c, 0, 66, 49
1, 993030, Control_c, 0, 64, 70
1, 993032, Note_off_c, 0, 64, 38
1, 993045, Control_c, 0, 64, 71
1, 993060, Control_c, 0, 64, 71
1, 993091, Note_off_c, 0, 85, 65
1, 993094, Poly_aftertouch_c, 0, 73, 0
1, 993104, Control_c, 0, 64, 72
1, 993139, Note_off_c, 0, 66, 45
1, 993169, Note_on_c, 0, 62, 45
1, 993181, Note_on_c, 0, 83, 72
1, 993224, Note_on_c, 0, 71, 47
1, 993258, Note_off_c, 0, 62, 52
1, 993301, Note_off_c, 0, 71, 59
1, 993304, Note_on_c, 0, 64, 55
1, 993305, Note_off_c, 0, 83, 60
1, 993369, Note_off_c, 0, 64, 49
1, 993407, Note_on_c, 0, 81, 77
1, 993416, Control_c, 0, 64, 70
1, 993416, Note_on_c, 0, 61, 52
1, 993424, Note_on_c, 0, 69, 56
1, 993431, Control_c, 0, 64, 66
1, 993446, Control_c, 0, 64, 62
1, 993461, Control_c, 0, 64, 59
1, 993481, Note_off_c, 0, 61, 60
1, 993490, Control_c, 0, 64, 60
1, 993505, Control_c, 0, 64, 62
1, 993508, Note_on_c, 0, 62, 60
1, 993520, Control_c, 0, 64, 63
1, 993528, Note_off_c, 0, 69, 64
1, 993534, Control_c, 0, 64, 64
1, 993549, Control_c, 0, 64, 64
1, 993571, Control_c, 0, 64, 65
1, 993577, Note_off_c, 0, 62, 53
1, 993586, Control_c, 0, 64, 66
1, 993601, Control_c, 0, 64, 67
1, 993616, Control_c, 0, 64, 68
1, 993631, Control_c, 0, 64, 68
1, 993640, Note_on_c, 0, 80, 79
1, 993654, Note_on_c, 0, 59, 51
1, 993658, Note_on_c, 0, 68, 63
1, 993661, Control_c, 0, 64, 69
1, 993676, Note_off_c, 0, 81, 59
1, 993676, Control_c, 0, 64, 69
1, 993724, Note_off_c, 0, 59, 62
1, 993753, Note_on_c, 0, 61, 58
1, 993792, Note_off_c, 0, 61, 58
1, 993814, Note_off_c, 0, 68, 38
1, 993897, Control_c, 0, 64, 68
1, 993908, Note_on_c, 0, 81, 79
1, 993912, Control_c, 0, 64, 66
1, 993925, Note_on_c, 0, 69, 55
1, 993927, Control_c, 0, 64, 62
1, 993943, Control_c, 0, 64, 52
1, 993950, Note_on_c, 0, 49, 43
1, 993958, Control_c, 0, 64, 23
1, 993966, Note_off_c, 0, 80, 56
1, 993972, Control_c, 0, 64, 0
1, 994002, Control_c, 0, 64, 20
1, 994017, Control_c, 0, 64, 40
1, 994031, Note_on_c, 0, 57, 56
1, 994032, Control_c, 0, 64, 56
1, 994046, Control_c, 0, 64, 63
1, 994061, Control_c, 0, 64, 65
1, 994076, Control_c, 0, 64, 65
1, 994079, Note_off_c, 0, 49, 50
1, 994091, Control_c, 0, 64, 66
1, 994106, Control_c, 0, 64, 68
1, 994120, Control_c, 0, 64, 71
1, 994127, Note_on_c, 0, 52, 47
1, 994135, Control_c, 0, 64, 72
1, 994143, Note_off_c, 0, 69, 55
1, 994150, Control_c, 0, 64, 73
1, 994179, Control_c, 0, 64, 74
1, 994209, Note_off_c, 0, 57, 34
1, 994220, Note_on_c, 0, 49, 52
1, 994340, Note_off_c, 0, 49, 52
1, 994341, Note_off_c, 0, 52, 25
1, 994350, Control_c, 0, 64, 71
1, 994356, Note_on_c, 0, 83, 82
1, 994364, Control_c, 0, 64, 68
1, 994368, Note_on_c, 0, 47, 47
1, 994379, Control_c, 0, 64, 63
1, 994388, Note_off_c, 0, 81, 60
1, 994391, Note_on_c, 0, 71, 58
1, 994394, Control_c, 0, 64, 58
1, 994409, Control_c, 0, 64, 54
1, 994424, Control_c, 0, 64, 55
1, 994439, Control_c, 0, 64, 58
1, 994454, Control_c, 0, 64, 62
1, 994456, Note_on_c, 0, 56, 58
1, 994469, Control_c, 0, 64, 65
1, 994483, Control_c, 0, 64, 68
1, 994498, Control_c, 0, 64, 70
1, 994513, Control_c, 0, 64, 71
1, 994528, Control_c, 0, 64, 72
1, 994529, Note_off_c, 0, 47, 61
1, 994558, Note_on_c, 0, 52, 57
1, 994583, Note_off_c, 0, 71, 58
1, 994631, Note_off_c, 0, 56, 33
1, 994658, Note_on_c, 0, 47, 59
1, 994668, Note_off_c, 0, 52, 59
1, 994731, Note_off_c, 0, 47, 57
1, 994736, Control_c, 0, 64, 72
1, 994766, Control_c, 0, 64, 71
1, 994781, Control_c, 0, 64, 67
1, 994795, Control_c, 0, 64, 59
1, 994797, Note_on_c, 0, 46, 60
1, 994798, Note_on_c, 0, 85, 84
1, 994810, Control_c, 0, 64, 43
1, 994813, Note_on_c, 0, 73, 65
1, 994815, Note_off_c, 0, 83, 51
1, 994825, Control_c, 0, 64, 40
1, 994840, Control_c, 0, 64, 47
1, 994855, Control_c, 0, 64, 55
1, 994869, Control_c, 0, 64, 63
1, 994884, Control_c, 0, 64, 68
1, 994899, Control_c, 0, 64, 71
1, 994913, Control_c, 0, 64, 74
1, 994922, Note_on_c, 0, 55, 49
1, 994928, Control_c, 0, 64, 75
1, 994943, Note_off_c, 0, 46, 36
1, 994943, Control_c, 0, 64, 77
1, 994958, Control_c, 0, 64, 79
1, 994973, Control_c, 0, 64, 81
1, 994987, Control_c, 0, 64, 83
1, 994999, Note_off_c, 0, 73, 59
1, 995021, Note_on_c, 0, 52, 60
1, 995047, Control_c, 0, 64, 83
1, 995098, Note_off_c, 0, 55, 36
1, 995104, Note_on_c, 0, 46, 49
1, 995120, Note_off_c, 0, 52, 55
1, 995135, Note_off_c, 0, 85, 36
1, 995202, Control_c, 0, 64, 83
1, 995218, Note_off_c, 0, 46, 36
1, 995232, Control_c, 0, 64, 80
1, 995242, Note_on_c, 0, 86, 72
1, 995247, Control_c, 0, 64, 73
1, 995257, Note_on_c, 0, 47, 47
1, 995261, Control_c, 0, 64, 65
1, 995273, Note_on_c, 0, 74, 34
1, 995276, Control_c, 0, 64, 36
1, 995291, Control_c, 0, 64, 0
1, 995327, Note_off_c, 0, 74, 63
1, 995351, Control_c, 0, 64, 44
1, 995366, Control_c, 0, 64, 63
1, 995379, Note_on_c, 0, 54, 42
1, 995381, Control_c, 0, 64, 69
1, 995395, Control_c, 0, 64, 72
1, 995417, Note_off_c, 0, 86, 50
1, 995425, Control_c, 0, 64, 72
1, 995439, Control_c, 0, 64, 73
1, 995447, Note_off_c, 0, 54, 49
1, 995454, Control_c, 0, 64, 74
1, 995469, Control_c, 0, 64, 75
1, 995477, Note_on_c, 0, 50, 45
1, 995477, Note_on_c, 0, 83, 58
1, 995484, Control_c, 0, 64, 75
1, 995509, Note_on_c, 0, 71, 52
1, 995511, Note_off_c, 0, 47, 29
1, 995528, Control_c, 0, 64, 76
1, 995554, Note_off_c, 0, 83, 62
1, 995583, Note_off_c, 0, 50, 57
1, 995594, Note_off_c, 0, 71, 58
1, 995609, Note_on_c, 0, 54, 47
1, 995654, Note_off_c, 0, 54, 57
1, 995692, Control_c, 0, 64, 75
1, 995766, Control_c, 0, 64, 74
1, 995774, Note_on_c, 0, 73, 75
1, 995780, Note_on_c, 0, 61, 67
1, 995781, Control_c, 0, 64, 70
1, 995796, Control_c, 0, 64, 64
1, 995801, Note_on_c, 0, 52, 50
1, 995818, Control_c, 0, 64, 56
1, 995833, Control_c, 0, 64, 38
1, 995848, Control_c, 0, 64, 31
1, 995863, Control_c, 0, 64, 39
1, 995878, Control_c, 0, 64, 49
1, 995892, Control_c, 0, 64, 57
1, 995906, Note_on_c, 0, 57, 58
1, 995907, Control_c, 0, 64, 63
1, 995910, Note_off_c, 0, 52, 52
1, 995922, Control_c, 0, 64, 66
1, 995937, Control_c, 0, 64, 68
1, 995951, Control_c, 0, 64, 69
1, 995966, Control_c, 0, 64, 69
1, 995981, Control_c, 0, 64, 70
1, 995996, Control_c, 0, 64, 70
1, 996002, Note_on_c, 0, 55, 61
1, 996004, Note_off_c, 0, 61, 61
1, 996011, Control_c, 0, 64, 71
1, 996027, Note_off_c, 0, 57, 45
1, 996040, Control_c, 0, 64, 71
1, 996116, Note_on_c, 0, 52, 54
1, 996159, Control_c, 0, 64, 72
1, 996199, Note_off_c, 0, 52, 59
1, 996203, Control_c, 0, 64, 71
1, 996209, Note_on_c, 0, 50, 59
1, 996216, Note_off_c, 0, 55, 36
1, 996218, Control_c, 0, 64, 67
1, 996230, Note_on_c, 0, 74, 78
1, 996231, Note_on_c, 0, 62, 80
1, 996233, Control_c, 0, 64, 62
1, 996248, Control_c, 0, 64, 52
1, 996262, Control_c, 0, 64, 44
1, 996277, Control_c, 0, 64, 47
1, 996292, Note_off_c, 0, 73, 57
1, 996292, Control_c, 0, 64, 52
1, 996307, Control_c, 0, 64, 59
1, 996322, Control_c, 0, 64, 64
1, 996338, Control_c, 0, 64, 68
1, 996343, Note_on_c, 0, 59, 54
1, 996353, Control_c, 0, 64, 71
1, 996367, Control_c, 0, 64, 73
1, 996382, Control_c, 0, 64, 75
1, 996397, Control_c, 0, 64, 77
1, 996400, Note_off_c, 0, 50, 57
1, 996412, Control_c, 0, 64, 78
1, 996427, Control_c, 0, 64, 78
1, 996441, Control_c, 0, 64, 79
1, 996463, Note_on_c, 0, 55, 58
1, 996536, Note_off_c, 0, 59, 54
1, 996537, Note_off_c, 0, 62, 50
1, 996586, Note_off_c, 0, 55, 56
1, 996603, Note_on_c, 0, 50, 34
1, 996641, Control_c, 0, 64, 76
1, 996653, Note_off_c, 0, 50, 44
1, 996656, Control_c, 0, 64, 70
1, 996668, Note_on_c, 0, 76, 80
1, 996671, Control_c, 0, 64, 63
1, 996674, Note_on_c, 0, 64, 74
1, 996675, Note_on_c, 0, 49, 65
1, 996685, Control_c, 0, 64, 50
1, 996686, Note_off_c, 0, 74, 60
1, 996700, Control_c, 0, 64, 43
1, 996715, Control_c, 0, 64, 49
1, 996730, Control_c, 0, 64, 56
1, 996745, Control_c, 0, 64, 62
1, 996759, Control_c, 0, 64, 66
1, 996774, Control_c, 0, 64, 68
1, 996789, Control_c, 0, 64, 70
1, 996799, Note_on_c, 0, 57, 56
1, 996804, Control_c, 0, 64, 71
1, 996805, Note_off_c, 0, 49, 61
1, 996819, Control_c, 0, 64, 72
1, 996833, Note_off_c, 0, 76, 55
1, 996834, Control_c, 0, 64, 73
1, 996848, Control_c, 0, 64, 73
1, 996863, Control_c, 0, 64, 74
1, 996889, Note_on_c, 0, 55, 36
1, 996907, Control_c, 0, 64, 74
1, 996956, Note_off_c, 0, 64, 48
1, 996962, Note_off_c, 0, 55, 56
1, 996967, Control_c, 0, 64, 75
1, 996977, Note_on_c, 0, 49, 54
1, 996981, Control_c, 0, 64, 75
1, 996987, Note_off_c, 0, 57, 35
1, 996996, Control_c, 0, 64, 77
1, 997011, Control_c, 0, 64, 78
1, 997012, Note_off_c, 0, 49, 62
1, 997026, Control_c, 0, 64, 79
1, 997056, Control_c, 0, 64, 79
1, 997071, Control_c, 0, 64, 73
1, 997085, Control_c, 0, 64, 63
1, 997100, Control_c, 0, 64, 31
1, 997104, Note_on_c, 0, 78, 74
1, 997115, Control_c, 0, 64, 0
1, 997117, Note_on_c, 0, 66, 65
1, 997122, Note_on_c, 0, 50, 55
1, 997145, Control_c, 0, 64, 42
1, 997160, Control_c, 0, 64, 58
1, 997175, Control_c, 0, 64, 65
1, 997190, Control_c, 0, 64, 68
1, 997205, Control_c, 0, 64, 69
1, 997220, Control_c, 0, 64, 69
1, 997223, Note_off_c, 0, 78, 64
1, 997227, Note_off_c, 0, 50, 62
1, 997227, Note_off_c, 0, 66, 62
1, 997235, Control_c, 0, 64, 71
1, 997246, Note_on_c, 0, 57, 47
1, 997250, Control_c, 0, 64, 72
1, 997279, Control_c, 0, 64, 72
1, 997294, Note_off_c, 0, 57, 58
1, 997294, Control_c, 0, 64, 69
1, 997315, Control_c, 0, 64, 66
1, 997330, Control_c, 0, 64, 64
1, 997345, Control_c, 0, 64, 64
1, 997363, Note_on_c, 0, 74, 73
1, 997368, Note_on_c, 0, 62, 62
1, 997375, Control_c, 0, 64, 64
1, 997390, Control_c, 0, 64, 66
1, 997390, Note_on_c, 0, 54, 35
1, 997405, Control_c, 0, 64, 68
1, 997420, Control_c, 0, 64, 70
1, 997436, Note_off_c, 0, 62, 61
1, 997445, Note_off_c, 0, 54, 42
1, 997471, Note_on_c, 0, 57, 47
1, 997480, Note_off_c, 0, 74, 63
1, 997507, Note_off_c, 0, 57, 48
1, 997612, Control_c, 0, 67, 11
1, 997627, Control_c, 0, 64, 69
1, 997627, Control_c, 0, 67, 20
1, 997642, Control_c, 0, 64, 66
1, 997642, Control_c, 0, 67, 27
1, 997649, Note_on_c, 0, 52, 47
1, 997654, Note_on_c, 0, 83, 71
1, 997657, Control_c, 0, 64, 60
1, 997657, Control_c, 0, 67, 32
1, 997657, Note_on_c, 0, 56, 44
1, 997671, Control_c, 0, 64, 39
1, 997671, Control_c, 0, 67, 35
1, 997686, Control_c, 0, 64, 0
1, 997686, Control_c, 0, 67, 37
1, 997701, Control_c, 0, 67, 39
1, 997715, Control_c, 0, 67, 41
1, 997730, Control_c, 0, 67, 44
1, 997745, Control_c, 0, 67, 48
1, 997760, Control_c, 0, 67, 52
1, 997775, Control_c, 0, 64, 53
1, 997775, Control_c, 0, 67, 57
1, 997789, Control_c, 0, 64, 65
1, 997789, Control_c, 0, 67, 61
1, 997804, Control_c, 0, 64, 69
1, 997804, Control_c, 0, 67, 66
1, 997818, Note_off_c, 0, 52, 63
1, 997819, Control_c, 0, 64, 70
1, 997819, Control_c, 0, 67, 72
1, 997834, Control_c, 0, 67, 78
1, 997849, Control_c, 0, 67, 84
1, 997854, Note_on_c, 0, 71, 55
1, 997864, Note_off_c, 0, 83, 50
1, 997864, Control_c, 0, 64, 71
1, 997864, Control_c, 0, 67, 90
1, 997879, Control_c, 0, 67, 98
1, 997894, Control_c, 0, 67, 108
1, 997896, Note_off_c, 0, 56, 60
1, 997908, Control_c, 0, 67, 118
1, 997923, Control_c, 0, 67, 127
1, 997929, Note_off_c, 0, 71, 62
1, 997962, Note_on_c, 0, 81, 77
1, 998007, Note_on_c, 0, 73, 22
1, 998075, Note_off_c, 0, 73, 43
1, 998082, Note_on_c, 0, 71, 61
1, 998096, Note_off_c, 0, 81, 54
1, 998150, Note_off_c, 0, 71, 61
1, 998153, Control_c, 0, 64, 70
1, 998168, Control_c, 0, 64, 67
1, 998183, Control_c, 0, 64, 61
1, 998189, Note_on_c, 0, 80, 78
1, 998198, Control_c, 0, 64, 50
1, 998204, Note_on_c, 0, 71, 59
1, 998213, Control_c, 0, 64, 43
1, 998227, Control_c, 0, 64, 48
1, 998242, Control_c, 0, 64, 56
1, 998253, Note_off_c, 0, 71, 57
1, 998257, Control_c, 0, 64, 63
1, 998272, Control_c, 0, 64, 66
1, 998287, Note_on_c, 0, 71, 50
1, 998287, Control_c, 0, 64, 70
1, 998302, Control_c, 0, 64, 72
1, 998317, Control_c, 0, 64, 73
1, 998331, Control_c, 0, 64, 74
1, 998346, Control_c, 0, 64, 75
1, 998361, Control_c, 0, 64, 76
1, 998376, Control_c, 0, 64, 77
1, 998377, Note_off_c, 0, 71, 58
1, 998391, Control_c, 0, 64, 77
1, 998405, Control_c, 0, 64, 78
1, 998408, Note_on_c, 0, 78, 73
1, 998418, Note_on_c, 0, 69, 51
1, 998420, Control_c, 0, 64, 78
1, 998427, Note_off_c, 0, 80, 63
1, 998435, Control_c, 0, 64, 79
1, 998440, Note_off_c, 0, 69, 62
1, 998493, Note_off_c, 0, 78, 63
1, 998520, Note_on_c, 0, 71, 51
1, 998553, Control_c, 0, 64, 79
1, 998594, Note_off_c, 0, 71, 48
1, 998627, Control_c, 0, 64, 78
1, 998642, Control_c, 0, 64, 72
1, 998651, Note_on_c, 0, 76, 65
1, 998651, Note_on_c, 0, 61, 61
1, 998657, Control_c, 0, 64, 63
1, 998672, Control_c, 0, 64, 42
1, 998687, Control_c, 0, 64, 0
1, 998701, Control_c, 0, 64, 23
1, 998716, Control_c, 0, 64, 44
1, 998732, Control_c, 0, 64, 59
1, 998734, Note_on_c, 0, 68, 78
1, 998746, Note_off_c, 0, 76, 61
1, 998747, Control_c, 0, 64, 65
1, 998761, Control_c, 0, 64, 68
1, 998776, Control_c, 0, 64, 69
1, 998782, Note_off_c, 0, 61, 55
1, 998791, Control_c, 0, 64, 70
1, 998814, Control_c, 0, 64, 70
1, 998829, Control_c, 0, 64, 71
1, 998856, Note_on_c, 0, 73, 71
1, 998859, Note_on_c, 0, 64, 54
1, 998873, Control_c, 0, 64, 71
1, 998927, Note_off_c, 0, 68, 37
1, 998952, Note_on_c, 0, 76, 67
1, 998957, Note_on_c, 0, 61, 63
1, 998969, Note_off_c, 0, 64, 51
1, 998976, Control_c, 0, 64, 72
1, 999000, Note_off_c, 0, 73, 50
1, 999006, Control_c, 0, 64, 71
1, 999021, Control_c, 0, 64, 68
1, 999035, Control_c, 0, 64, 63
1, 999049, Note_on_c, 0, 57, 61
1, 999050, Note_on_c, 0, 78, 79
1, 999050, Control_c, 0, 64, 51
1, 999065, Control_c, 0, 64, 39
1, 999080, Control_c, 0, 64, 44
1, 999082, Note_off_c, 0, 76, 60
1, 999092, Note_off_c, 0, 61, 60
1, 999095, Control_c, 0, 64, 53
1, 999110, Control_c, 0, 64, 60
1, 999125, Control_c, 0, 64, 64
1, 999138, Note_off_c, 0, 57, 58
1, 999140, Control_c, 0, 64, 66
1, 999146, Note_on_c, 0, 69, 71
1, 999146, Note_off_c, 0, 78, 53
1, 999154, Control_c, 0, 64, 66
1, 999156, Note_on_c, 0, 66, 68
1, 999169, Control_c, 0, 64, 67
1, 999184, Control_c, 0, 64, 68
1, 999184, Control_c, 0, 67, 124
1, 999199, Control_c, 0, 64, 69
1, 999199, Control_c, 0, 67, 117
1, 999214, Control_c, 0, 64, 69
1, 999214, Control_c, 0, 67, 107
1, 999228, Control_c, 0, 67, 97
1, 999243, Control_c, 0, 67, 87
1, 999254, Note_on_c, 0, 61, 70
1, 999256, Note_on_c, 0, 73, 70
1, 999258, Control_c, 0, 67, 80
1, 999273, Control_c, 0, 64, 70
1, 999273, Control_c, 0, 67, 74
1, 999287, Note_off_c, 0, 66, 61
1, 999287, Control_c, 0, 67, 71
1, 999302, Control_c, 0, 64, 70
1, 999302, Control_c, 0, 67, 68
1, 999317, Control_c, 0, 67, 67
1, 999318, Note_off_c, 0, 69, 47
1, 999332, Control_c, 0, 64, 71
1, 999332, Control_c, 0, 67, 66
1, 999347, Control_c, 0, 64, 72
1, 999354, Note_on_c, 0, 78, 76
1, 999361, Control_c, 0, 64, 73
1, 999362, Note_on_c, 0, 57, 63
1, 999376, Control_c, 0, 64, 73
1, 999376, Control_c, 0, 67, 67
1, 999391, Control_c, 0, 64, 73
1, 999399, Note_off_c, 0, 61, 0
1, 999405, Note_off_c, 0, 73, 57
1, 999406, Control_c, 0, 64, 69
1, 999406, Control_c, 0, 67, 68
1, 999421, Control_c, 0, 64, 62
1, 999421, Control_c, 0, 67, 68
1, 999435, Control_c, 0, 64, 44
1, 999435, Control_c, 0, 67, 69
1, 999450, Note_on_c, 0, 56, 72
1, 999450, Control_c, 0, 64, 15
1, 999455, Note_on_c, 0, 80, 78
1, 999457, Poly_aftertouch_c, 0, 61, 0
1, 999465, Control_c, 0, 64, 31
1, 999479, Note_off_c, 0, 57, 60
1, 999479, Control_c, 0, 64, 45
1, 999494, Control_c, 0, 64, 57
1, 999495, Note_off_c, 0, 78, 62
1, 999509, Control_c, 0, 64, 62
1, 999525, Control_c, 0, 64, 64
1, 999540, Control_c, 0, 64, 64
1, 999542, Note_on_c, 0, 63, 64
1, 999551, Note_on_c, 0, 72, 68
1, 999554, Note_off_c, 0, 56, 60
1, 999563, Control_c, 0, 64, 65
1, 999565, Note_off_c, 0, 80, 55
1, 999578, Control_c, 0, 64, 66
1, 999592, Control_c, 0, 64, 68
1, 999607, Control_c, 0, 64, 71
1, 999607, Control_c, 0, 67, 70
1, 999622, Control_c, 0, 64, 73
1, 999622, Control_c, 0, 67, 71
1, 999637, Control_c, 0, 64, 74
1, 999637, Control_c, 0, 67, 72
1, 999647, Note_on_c, 0, 60, 64
1, 999652, Control_c, 0, 64, 76
1, 999652, Control_c, 0, 67, 73
1, 999654, Note_on_c, 0, 75, 74
1, 999666, Control_c, 0, 64, 77
1, 999666, Control_c, 0, 67, 74
1, 999681, Control_c, 0, 67, 76
1, 999685, Note_off_c, 0, 63, 38
1, 999696, Control_c, 0, 67, 78
1, 999710, Control_c, 0, 64, 74
1, 999710, Control_c, 0, 67, 81
1, 999725, Control_c, 0, 64, 66
1, 999725, Control_c, 0, 67, 85
1, 999740, Control_c, 0, 64, 46
1, 999740, Control_c, 0, 67, 91
1, 999748, Note_on_c, 0, 80, 71
1, 999751, Note_off_c, 0, 60, 57
1, 999755, Note_on_c, 0, 56, 59
1, 999755, Control_c, 0, 64, 0
1, 999755, Control_c, 0, 67, 100
1, 999757, Note_off_c, 0, 72, 38
1, 999770, Control_c, 0, 67, 108
1, 999784, Control_c, 0, 67, 115
1, 999786, Note_off_c, 0, 75, 62
1, 999799, Control_c, 0, 67, 123
1, 999814, Control_c, 0, 64, 8
1, 999814, Control_c, 0, 67, 127
1, 999829, Control_c, 0, 64, 54
1, 999835, Note_on_c, 0, 54, 68
1, 999843, Note_off_c, 0, 80, 61
1, 999844, Control_c, 0, 64, 64
1, 999852, Note_on_c, 0, 81, 78
1, 999858, Control_c, 0, 64, 67
1, 999865, Note_off_c, 0, 56, 60
1, 999873, Control_c, 0, 64, 68
1, 999903, Control_c, 0, 64, 69
1, 999911, Note_off_c, 0, 54, 55
1, 999918, Control_c, 0, 64, 69
1, 999921, Note_on_c, 0, 66, 64
1, 999933, Control_c, 0, 64, 70
1, 999949, Note_on_c, 0, 73, 72
1, 999962, Note_off_c, 0, 81, 58
1, 1000002, Note_off_c, 0, 66, 59
1, 1000025, Note_on_c, 0, 59, 37
1, 1000048, Note_on_c, 0, 78, 58
1, 1000073, Note_off_c, 0, 73, 51
1, 1000124, Note_on_c, 0, 63, 67
1, 1000126, Note_on_c, 0, 69, 67
1, 1000132, Note_off_c, 0, 59, 42
1, 1000147, Note_off_c, 0, 78, 60
1, 1000152, Note_off_c, 0, 63, 65
1, 1000184, Control_c, 0, 64, 70
1, 1000199, Control_c, 0, 64, 66
1, 1000214, Control_c, 0, 64, 56
1, 1000228, Note_off_c, 0, 69, 63
1, 1000228, Control_c, 0, 64, 0
1, 1000243, Note_on_c, 0, 64, 63
1, 1000244, Note_on_c, 0, 52, 69
1, 1000252, Note_on_c, 0, 76, 67
1, 1000310, Control_c, 0, 64, 53
1, 1000325, Control_c, 0, 64, 64
1, 1000341, Control_c, 0, 64, 69
1, 1000341, Control_c, 0, 67, 124
1, 1000356, Control_c, 0, 64, 70
1, 1000356, Control_c, 0, 67, 115
1, 1000365, Note_on_c, 0, 54, 7
1, 1000365, Note_off_c, 0, 52, 63
1, 1000366, Note_on_c, 0, 80, 69
1, 1000371, Control_c, 0, 64, 70
1, 1000371, Control_c, 0, 67, 104
1, 1000382, Note_off_c, 0, 76, 62
1, 1000386, Control_c, 0, 64, 71
1, 1000386, Control_c, 0, 67, 92
1, 1000401, Control_c, 0, 64, 72
1, 1000401, Control_c, 0, 67, 79
1, 1000401, Note_off_c, 0, 54, 43
1, 1000415, Control_c, 0, 64, 73
1, 1000415, Control_c, 0, 67, 67
1, 1000420, Note_off_c, 0, 80, 62
1, 1000430, Control_c, 0, 64, 73
1, 1000430, Control_c, 0, 67, 56
1, 1000439, Note_off_c, 0, 64, 65
1, 1000445, Control_c, 0, 64, 74
1, 1000445, Control_c, 0, 67, 47
1, 1000460, Control_c, 0, 67, 41
1, 1000475, Control_c, 0, 64, 74
1, 1000475, Control_c, 0, 67, 38
1, 1000475, Note_on_c, 0, 83, 69
1, 1000489, Control_c, 0, 67, 36
1, 1000504, Control_c, 0, 67, 34
1, 1000519, Control_c, 0, 67, 33
1, 1000533, Control_c, 0, 67, 31
1, 1000548, Control_c, 0, 67, 30
1, 1000563, Control_c, 0, 67, 29
1, 1000588, Note_on_c, 0, 88, 76
1, 1000601, Note_off_c, 0, 83, 48
1, 1000622, Control_c, 0, 67, 30
1, 1000637, Control_c, 0, 67, 31
1, 1000652, Control_c, 0, 67, 32
1, 1000666, Control_c, 0, 64, 73
1, 1000666, Control_c, 0, 67, 32
1, 1000680, Note_on_c, 0, 76, 57
1, 1000681, Control_c, 0, 64, 68
1, 1000681, Control_c, 0, 67, 33
1, 1000690, Note_on_c, 0, 92, 70
1, 1000696, Control_c, 0, 64, 59
1, 1000696, Control_c, 0, 67, 34
1, 1000711, Control_c, 0, 64, 0
1, 1000711, Control_c, 0, 67, 35
1, 1000725, Control_c, 0, 67, 37
1, 1000740, Note_off_c, 0, 88, 56
1, 1000740, Control_c, 0, 67, 38
1, 1000755, Control_c, 0, 67, 41
1, 1000770, Control_c, 0, 64, 47
1, 1000770, Control_c, 0, 67, 43
1, 1000785, Control_c, 0, 64, 63
1, 1000785, Control_c, 0, 67, 47
1, 1000799, Note_on_c, 0, 83, 64
1, 1000800, Control_c, 0, 64, 69
1, 1000800, Control_c, 0, 67, 51
1, 1000812, Note_off_c, 0, 92, 64
1, 1000815, Control_c, 0, 64, 75
1, 1000815, Control_c, 0, 67, 56
1, 1000830, Control_c, 0, 64, 76
1, 1000830, Control_c, 0, 67, 61
1, 1000845, Control_c, 0, 64, 77
1, 1000845, Control_c, 0, 67, 66
1, 1000857, Control_c, 0, 64, 78
1, 1000857, Control_c, 0, 67, 71
1, 1000872, Control_c, 0, 64, 79
1, 1000872, Control_c, 0, 67, 74
1, 1000875, Note_off_c, 0, 83, 61
1, 1000887, Control_c, 0, 64, 79
1, 1000887, Control_c, 0, 67, 76
1, 1000902, Control_c, 0, 67, 78
1, 1000907, Note_on_c, 0, 95, 77
1, 1000915, Note_on_c, 0, 80, 66
1, 1000917, Control_c, 0, 67, 78
1, 1000920, Note_off_c, 0, 76, 54
1, 1000961, Note_off_c, 0, 80, 62
1, 1000976, Control_c, 0, 67, 78
1, 1000977, Note_off_c, 0, 95, 65
1, 1001003, Note_on_c, 0, 83, 70
1, 1001006, Control_c, 0, 67, 77
1, 1001021, Control_c, 0, 67, 76
1, 1001036, Control_c, 0, 67, 75
1, 1001044, Note_off_c, 0, 83, 57
1, 1001050, Control_c, 0, 67, 73
1, 1001072, Control_c, 0, 67, 72
1, 1001087, Control_c, 0, 67, 71
1, 1001102, Control_c, 0, 67, 71
1, 1001117, Control_c, 0, 67, 70
1, 1001133, Control_c, 0, 67, 69
1, 1001148, Control_c, 0, 67, 68
1, 1001162, Control_c, 0, 64, 77
1, 1001162, Control_c, 0, 67, 67
1, 1001167, Note_on_c, 0, 59, 54
1, 1001167, Note_on_c, 0, 71, 69
1, 1001177, Control_c, 0, 64, 70
1, 1001177, Control_c, 0, 67, 65
1, 1001192, Control_c, 0, 64, 61
1, 1001192, Control_c, 0, 67, 64
1, 1001207, Control_c, 0, 64, 0
1, 1001207, Control_c, 0, 67, 62
1, 1001222, Control_c, 0, 67, 59
1, 1001236, Control_c, 0, 67, 55
1, 1001251, Control_c, 0, 64, 31
1, 1001251, Control_c, 0, 67, 50
1, 1001266, Control_c, 0, 64, 54
1, 1001266, Control_c, 0, 67, 46
1, 1001280, Note_on_c, 0, 69, 67
1, 1001280, Control_c, 0, 64, 63
1, 1001280, Control_c, 0, 67, 44
1, 1001295, Control_c, 0, 64, 65
1, 1001295, Control_c, 0, 67, 43
1, 1001304, Note_off_c, 0, 59, 46
1, 1001310, Control_c, 0, 64, 65
1, 1001310, Control_c, 0, 67, 42
1, 1001324, Note_off_c, 0, 71, 62
1, 1001325, Control_c, 0, 64, 66
1, 1001325, Control_c, 0, 67, 40
1, 1001340, Control_c, 0, 64, 68
1, 1001340, Control_c, 0, 67, 39
1, 1001354, Control_c, 0, 64, 71
1, 1001354, Control_c, 0, 67, 37
1, 1001369, Control_c, 0, 64, 76
1, 1001369, Control_c, 0, 67, 37
1, 1001384, Control_c, 0, 64, 78
1, 1001399, Control_c, 0, 64, 77
1, 1001411, Note_on_c, 0, 81, 75
1, 1001413, Note_off_c, 0, 69, 39
1, 1001414, Control_c, 0, 64, 72
1, 1001423, Note_on_c, 0, 66, 59
1, 1001429, Control_c, 0, 64, 64
1, 1001443, Note_on_c, 0, 72, 43
1, 1001444, Control_c, 0, 64, 50
1, 1001444, Control_c, 0, 67, 36
1, 1001459, Control_c, 0, 64, 35
1, 1001459, Control_c, 0, 67, 36
1, 1001473, Control_c, 0, 64, 43
1, 1001473, Control_c, 0, 67, 35
1, 1001488, Control_c, 0, 64, 55
1, 1001497, Note_off_c, 0, 66, 58
1, 1001503, Control_c, 0, 64, 62
1, 1001513, Note_on_c, 0, 69, 60
1, 1001518, Control_c, 0, 64, 66
1, 1001533, Control_c, 0, 64, 71
1, 1001545, Note_off_c, 0, 72, 61
1, 1001548, Control_c, 0, 64, 76
1, 1001562, Control_c, 0, 64, 80
1, 1001562, Control_c, 0, 67, 36
1, 1001577, Control_c, 0, 64, 81
1, 1001577, Control_c, 0, 67, 37
1, 1001580, Note_off_c, 0, 81, 58
1, 1001592, Control_c, 0, 67, 38
1, 1001608, Control_c, 0, 64, 75
1, 1001608, Control_c, 0, 67, 39
1, 1001621, Note_off_c, 0, 69, 60
1, 1001623, Control_c, 0, 64, 65
1, 1001623, Control_c, 0, 67, 40
1, 1001633, Note_on_c, 0, 63, 51
1, 1001637, Control_c, 0, 64, 40
1, 1001637, Control_c, 0, 67, 42
1, 1001640, Note_on_c, 0, 78, 66
1, 1001652, Control_c, 0, 64, 0
1, 1001652, Control_c, 0, 67, 43
1, 1001667, Control_c, 0, 67, 45
1, 1001667, Note_on_c, 0, 71, 46
1, 1001681, Control_c, 0, 64, 33
1, 1001681, Control_c, 0, 67, 46
1, 1001696, Control_c, 0, 64, 58
1, 1001696, Control_c, 0, 67, 46
1, 1001708, Note_off_c, 0, 63, 55
1, 1001711, Control_c, 0, 64, 65
1, 1001711, Control_c, 0, 67, 47
1, 1001726, Control_c, 0, 64, 68
1, 1001739, Note_on_c, 0, 69, 48
1, 1001741, Control_c, 0, 64, 70
1, 1001752, Note_off_c, 0, 71, 55
1, 1001755, Control_c, 0, 64, 72
1, 1001770, Control_c, 0, 64, 74
1, 1001770, Control_c, 0, 67, 47
1, 1001798, Note_off_c, 0, 69, 62
1, 1001822, Control_c, 0, 64, 73
1, 1001837, Control_c, 0, 64, 73
1, 1001840, Note_off_c, 0, 78, 59
1, 1001842, Note_on_c, 0, 59, 52
1, 1001847, Note_on_c, 0, 75, 53
1, 1001852, Control_c, 0, 64, 72
1, 1001881, Control_c, 0, 67, 48
1, 1001888, Note_on_c, 0, 71, 36
1, 1001927, Control_c, 0, 67, 48
1, 1001936, Note_off_c, 0, 59, 51
1, 1001937, Note_on_c, 0, 69, 48
1, 1001940, Note_off_c, 0, 75, 58
1, 1001957, Control_c, 0, 67, 49
1, 1001972, Control_c, 0, 67, 50
1, 1001974, Note_off_c, 0, 71, 34
1, 1001986, Control_c, 0, 67, 50
1, 1002001, Control_c, 0, 67, 51
1, 1002046, Control_c, 0, 64, 71
1, 1002046, Control_c, 0, 67, 51
1, 1002060, Control_c, 0, 64, 67
1, 1002060, Control_c, 0, 67, 52
1, 1002075, Control_c, 0, 64, 62
1, 1002075, Control_c, 0, 67, 52
1, 1002081, Note_off_c, 0, 69, 38
1, 1002090, Control_c, 0, 64, 48
1, 1002090, Control_c, 0, 67, 55
1, 1002094, Note_on_c, 0, 68, 48
1, 1002100, Note_on_c, 0, 64, 46
1, 1002103, Note_on_c, 0, 76, 52
1, 1002104, Control_c, 0, 64, 0
1, 1002104, Control_c, 0, 67, 58
1, 1002119, Control_c, 0, 67, 60
1, 1002134, Control_c, 0, 67, 63
1, 1002149, Control_c, 0, 67, 67
1, 1002164, Control_c, 0, 67, 74
1, 1002178, Control_c, 0, 67, 79
1, 1002193, Control_c, 0, 67, 84
1, 1002208, Control_c, 0, 64, 51
1, 1002208, Control_c, 0, 67, 87
1, 1002219, Note_on_c, 0, 80, 63
1, 1002223, Control_c, 0, 64, 64
1, 1002223, Control_c, 0, 67, 90
1, 1002238, Control_c, 0, 64, 68
1, 1002238, Control_c, 0, 67, 94
1, 1002239, Note_off_c, 0, 76, 63
1, 1002252, Control_c, 0, 64, 68
1, 1002252, Control_c, 0, 67, 98
1, 1002264, Note_off_c, 0, 64, 58
1, 1002267, Control_c, 0, 67, 103
1, 1002274, Note_off_c, 0, 80, 63
1, 1002282, Control_c, 0, 64, 69
1, 1002282, Control_c, 0, 67, 108
1, 1002289, Note_off_c, 0, 68, 63
1, 1002296, Control_c, 0, 64, 69
1, 1002296, Control_c, 0, 67, 112
1, 1002311, Control_c, 0, 64, 70
1, 1002311, Control_c, 0, 67, 118
1, 1002326, Control_c, 0, 67, 124
1, 1002335, Note_on_c, 0, 83, 59
1, 1002341, Control_c, 0, 67, 127
1, 1002425, Note_off_c, 0, 83, 54
1, 1002447, Note_on_c, 0, 88, 63
1, 1002490, Control_c, 0, 64, 67
1, 1002504, Control_c, 0, 64, 62
1, 1002508, Poly_aftertouch_c, 0, 87, 0
1, 1002519, Control_c, 0, 64, 43
1, 1002534, Control_c, 0, 64, 0
1, 1002536, Note_on_c, 0, 76, 50
1, 1002538, Note_on_c, 0, 92, 70
1, 1002566, Note_off_c, 0, 88, 61
1, 1002600, Control_c, 0, 64, 42
1, 1002615, Control_c, 0, 64, 59
1, 1002630, Control_c, 0, 64, 65
1, 1002638, Note_off_c, 0, 92, 57
1, 1002645, Control_c, 0, 64, 67
1, 1002657, Note_on_c, 0, 83, 58
1, 1002660, Control_c, 0, 64, 68
1, 1002690, Control_c, 0, 64, 69
1, 1002704, Control_c, 0, 64, 70
1, 1002719, Control_c, 0, 64, 71
1, 1002729, Note_off_c, 0, 83, 55
1, 1002750, Control_c, 0, 64, 71
1, 1002755, Note_off_c, 0, 76, 50
1, 1002759, Note_on_c, 0, 80, 57
1, 1002764, Note_on_c, 0, 95, 60
1, 1002791, Note_off_c, 0, 80, 65
1, 1002806, Note_off_c, 0, 95, 61
1, 1002851, Note_on_c, 0, 83, 56
1, 1002873, Note_off_c, 0, 83, 63
1, 1002942, Control_c, 0, 64, 71
1, 1002957, Control_c, 0, 64, 69
1, 1002972, Control_c, 0, 64, 63
1, 1002985, Note_on_c, 0, 71, 57
1, 1002987, Control_c, 0, 64, 46
1, 1002995, Note_on_c, 0, 59, 38
1, 1003001, Control_c, 0, 64, 0
1, 1003045, Control_c, 0, 64, 18
1, 1003053, Note_off_c, 0, 59, 53
1, 1003060, Control_c, 0, 64, 49
1, 1003075, Control_c, 0, 64, 60
1, 1003090, Control_c, 0, 64, 63
1, 1003098, Note_on_c, 0, 69, 47
1, 1003105, Control_c, 0, 64, 64
1, 1003119, Control_c, 0, 64, 64
1, 1003134, Control_c, 0, 64, 66
1, 1003143, Note_off_c, 0, 69, 59
1, 1003149, Control_c, 0, 64, 67
1, 1003164, Control_c, 0, 64, 69
1, 1003194, Control_c, 0, 64, 68
1, 1003205, Note_on_c, 0, 66, 48
1, 1003208, Note_on_c, 0, 81, 56
1, 1003209, Control_c, 0, 64, 64
1, 1003212, Note_on_c, 0, 72, 55
1, 1003223, Control_c, 0, 64, 55
1, 1003224, Note_off_c, 0, 71, 54
1, 1003238, Control_c, 0, 64, 39
1, 1003246, Note_off_c, 0, 66, 65
1, 1003268, Control_c, 0, 64, 48
1, 1003280, Note_on_c, 0, 69, 53
1, 1003283, Control_c, 0, 64, 55
1, 1003305, Note_off_c, 0, 72, 62
1, 1003305, Control_c, 0, 64, 62
1, 1003320, Control_c, 0, 64, 64
1, 1003334, Control_c, 0, 64, 66
1, 1003349, Control_c, 0, 64, 68
1, 1003364, Control_c, 0, 64, 70
1, 1003394, Control_c, 0, 64, 68
1, 1003399, Note_off_c, 0, 69, 39
1, 1003408, Control_c, 0, 64, 64
1, 1003420, Note_on_c, 0, 78, 59
1, 1003423, Note_on_c, 0, 63, 47
1, 1003423, Control_c, 0, 64, 57
1, 1003438, Control_c, 0, 64, 46
1, 1003453, Control_c, 0, 64, 46
1, 1003468, Control_c, 0, 64, 50
1, 1003474, Note_off_c, 0, 63, 61
1, 1003483, Control_c, 0, 64, 55
1, 1003498, Control_c, 0, 64, 60
1, 1003513, Control_c, 0, 64, 62
1, 1003515, Note_off_c, 0, 81, 33
1, 1003525, Note_on_c, 0, 69, 48
1, 1003528, Poly_aftertouch_c, 0, 71, 0
1, 1003528, Control_c, 0, 64, 63
1, 1003543, Control_c, 0, 64, 63
1, 1003579, Note_off_c, 0, 69, 59
1, 1003631, Note_on_c, 0, 75, 56
1, 1003641, Note_on_c, 0, 59, 48
1, 1003661, Note_on_c, 0, 71, 21
1, 1003662, Control_c, 0, 64, 63
1, 1003699, Note_off_c, 0, 71, 51
1, 1003699, Note_off_c, 0, 78, 37
1, 1003706, Control_c, 0, 64, 62
1, 1003719, Note_on_c, 0, 69, 51
1, 1003724, Note_off_c, 0, 59, 38
1, 1003744, Note_off_c, 0, 75, 64
1, 1003750, Control_c, 0, 64, 62
1, 1003781, Note_off_c, 0, 69, 58
1, 1003795, Control_c, 0, 64, 61
1, 1003854, Control_c, 0, 64, 61
1, 1003883, Control_c, 0, 64, 60
1, 1003898, Control_c, 0, 64, 59
1, 1003908, Note_on_c, 0, 64, 44
1, 1003912, Note_on_c, 0, 76, 58
1, 1003913, Control_c, 0, 64, 58
1, 1003928, Control_c, 0, 64, 54
1, 1003942, Control_c, 0, 64, 45
1, 1003950, Note_on_c, 0, 68, 38
1, 1003957, Control_c, 0, 64, 0
1, 1004013, Note_off_c, 0, 64, 56
1, 1004031, Control_c, 0, 64, 15
1, 1004054, Note_on_c, 0, 66, 53
1, 1004054, Control_c, 0, 64, 49
1, 1004069, Control_c, 0, 64, 61
1, 1004083, Control_c, 0, 64, 64
1, 1004098, Control_c, 0, 64, 64
1, 1004132, Note_off_c, 0, 66, 53
1, 1004143, Control_c, 0, 64, 65
1, 1004157, Control_c, 0, 64, 65
1, 1004162, Note_on_c, 0, 63, 52
1, 1004172, Control_c, 0, 64, 66
1, 1004201, Control_c, 0, 64, 66
1, 1004201, Control_c, 0, 67, 121
1, 1004216, Control_c, 0, 67, 113
1, 1004231, Control_c, 0, 67, 104
1, 1004232, Note_off_c, 0, 63, 61
1, 1004246, Control_c, 0, 64, 67
1, 1004246, Control_c, 0, 67, 97
1, 1004250, Note_on_c, 0, 66, 58
1, 1004261, Control_c, 0, 67, 92
1, 1004276, Control_c, 0, 67, 88
1, 1004291, Control_c, 0, 67, 84
1, 1004306, Control_c, 0, 67, 82
1, 1004320, Control_c, 0, 64, 67
1, 1004320, Control_c, 0, 67, 79
1, 1004336, Control_c, 0, 67, 74
1, 1004341, Note_off_c, 0, 66, 62
1, 1004351, Control_c, 0, 67, 68
1, 1004362, Note_on_c, 0, 64, 57
1, 1004366, Control_c, 0, 64, 66
1, 1004366, Control_c, 0, 67, 60
1, 1004380, Control_c, 0, 64, 64
1, 1004380, Control_c, 0, 67, 52
1, 1004386, Note_off_c, 0, 68, 46
1, 1004395, Control_c, 0, 64, 59
1, 1004395, Control_c, 0, 67, 43
1, 1004410, Control_c, 0, 64, 50
1, 1004410, Control_c, 0, 67, 37
1, 1004425, Control_c, 0, 64, 45
1, 1004425, Control_c, 0, 67, 31
1, 1004430, Note_off_c, 0, 76, 62
1, 1004440, Control_c, 0, 64, 48
1, 1004440, Control_c, 0, 67, 26
1, 1004446, Note_off_c, 0, 64, 61
1, 1004455, Control_c, 0, 64, 53
1, 1004455, Control_c, 0, 67, 22
1, 1004455, Note_on_c, 0, 66, 64
1, 1004470, Control_c, 0, 64, 58
1, 1004470, Control_c, 0, 67, 18
1, 1004484, Control_c, 0, 64, 62
1, 1004484, Control_c, 0, 67, 15
1, 1004499, Control_c, 0, 64, 64
1, 1004499, Control_c, 0, 67, 10
1, 1004514, Control_c, 0, 64, 64
1, 1004514, Control_c, 0, 67, 0
1, 1004544, Control_c, 0, 64, 65
1, 1004549, Note_off_c, 0, 66, 62
1, 1004559, Note_on_c, 0, 63, 55
1, 1004628, Note_off_c, 0, 63, 62
1, 1004647, Control_c, 0, 64, 65
1, 1004656, Note_on_c, 0, 66, 65
1, 1004721, Control_c, 0, 64, 64
1, 1004723, Note_off_c, 0, 66, 48
1, 1004736, Control_c, 0, 64, 58
1, 1004751, Control_c, 0, 64, 39
1, 1004765, Control_c, 0, 64, 0
1, 1004811, Note_on_c, 0, 64, 36
1, 1004814, Note_on_c, 0, 85, 73
1, 1004818, Control_c, 0, 64, 22
1, 1004832, Control_c, 0, 64, 50
1, 1004833, Note_on_c, 0, 73, 51
1, 1004847, Control_c, 0, 64, 59
1, 1004862, Control_c, 0, 64, 63
1, 1004877, Control_c, 0, 64, 64
1, 1004892, Control_c, 0, 64, 65
1, 1004906, Control_c, 0, 64, 67
1, 1004912, Note_on_c, 0, 66, 50
1, 1004921, Control_c, 0, 64, 69
1, 1004932, Note_off_c, 0, 64, 38
1, 1004936, Control_c, 0, 64, 71
1, 1004951, Control_c, 0, 64, 72
1, 1004966, Control_c, 0, 64, 73
1, 1004970, Note_off_c, 0, 73, 61
1, 1004980, Control_c, 0, 64, 73
1, 1004994, Note_off_c, 0, 85, 64
1, 1005010, Control_c, 0, 64, 74
1, 1005014, Note_off_c, 0, 66, 54
1, 1005024, Control_c, 0, 64, 75
1, 1005039, Control_c, 0, 64, 75
1, 1005051, Note_on_c, 0, 62, 55
1, 1005077, Note_on_c, 0, 83, 77
1, 1005084, Control_c, 0, 64, 74
1, 1005098, Control_c, 0, 64, 70
1, 1005104, Note_on_c, 0, 71, 56
1, 1005113, Control_c, 0, 64, 66
1, 1005129, Control_c, 0, 64, 65
1, 1005167, Note_off_c, 0, 62, 35
1, 1005174, Control_c, 0, 64, 66
1, 1005186, Note_on_c, 0, 64, 55
1, 1005189, Control_c, 0, 64, 66
1, 1005203, Control_c, 0, 64, 67
1, 1005213, Note_off_c, 0, 71, 61
1, 1005218, Control_c, 0, 64, 67
1, 1005222, Note_off_c, 0, 83, 61
1, 1005233, Control_c, 0, 64, 68
1, 1005242, Note_off_c, 0, 64, 48
1, 1005248, Control_c, 0, 64, 69
1, 1005262, Control_c, 0, 64, 69
1, 1005277, Control_c, 0, 64, 70
1, 1005292, Control_c, 0, 64, 68
1, 1005296, Note_on_c, 0, 81, 84
1, 1005303, Note_on_c, 0, 61, 51
1, 1005307, Control_c, 0, 64, 63
1, 1005317, Note_on_c, 0, 69, 63
1, 1005322, Control_c, 0, 64, 48
1, 1005337, Control_c, 0, 64, 8
1, 1005352, Control_c, 0, 64, 10
1, 1005367, Control_c, 0, 64, 32
1, 1005368, Note_off_c, 0, 61, 59
1, 1005382, Control_c, 0, 64, 48
1, 1005396, Control_c, 0, 64, 58
1, 1005397, Note_on_c, 0, 62, 55
1, 1005411, Control_c, 0, 64, 63
1, 1005426, Control_c, 0, 64, 64
1, 1005427, Note_off_c, 0, 69, 63
1, 1005440, Control_c, 0, 64, 65
1, 1005455, Control_c, 0, 64, 66
1, 1005470, Control_c, 0, 64, 67
1, 1005480, Note_off_c, 0, 62, 55
1, 1005485, Control_c, 0, 64, 68
1, 1005500, Control_c, 0, 64, 69
1, 1005528, Note_on_c, 0, 80, 79
1, 1005529, Control_c, 0, 64, 70
1, 1005535, Note_on_c, 0, 59, 34
1, 1005537, Note_on_c, 0, 68, 73
1, 1005552, Control_c, 0, 64, 70
1, 1005563, Note_off_c, 0, 81, 57
1, 1005566, Control_c, 0, 64, 71
1, 1005581, Control_c, 0, 64, 71
1, 1005600, Note_off_c, 0, 59, 47
1, 1005626, Control_c, 0, 64, 72
1, 1005644, Note_on_c, 0, 61, 53
1, 1005670, Control_c, 0, 64, 72
1, 1005677, Note_off_c, 0, 68, 58
1, 1005721, Note_off_c, 0, 61, 57
1, 1005831, Note_on_c, 0, 81, 87
1, 1005833, Control_c, 0, 64, 71
1, 1005838, Note_on_c, 0, 69, 73
1, 1005847, Control_c, 0, 64, 67
1, 1005850, Note_on_c, 0, 49, 46
1, 1005862, Control_c, 0, 64, 61
1, 1005877, Control_c, 0, 64, 23
1, 1005890, Note_off_c, 0, 80, 59
1, 1005892, Control_c, 0, 64, 0
1, 1005952, Control_c, 0, 64, 42
1, 1005961, Note_on_c, 0, 57, 57
1, 1005967, Control_c, 0, 64, 58
1, 1005982, Control_c, 0, 64, 63
1, 1005997, Control_c, 0, 64, 64
1, 1006012, Note_off_c, 0, 49, 36
1, 1006012, Control_c, 0, 64, 64
1, 1006026, Control_c, 0, 64, 65
1, 1006041, Control_c, 0, 64, 66
1, 1006056, Control_c, 0, 64, 68
1, 1006067, Note_on_c, 0, 52, 53
1, 1006070, Control_c, 0, 64, 69
1, 1006085, Control_c, 0, 64, 70
1, 1006129, Note_off_c, 0, 69, 59
1, 1006143, Note_off_c, 0, 57, 38
1, 1006145, Control_c, 0, 64, 70
1, 1006153, Note_on_c, 0, 49, 49
1, 1006204, Control_c, 0, 64, 71
1, 1006219, Control_c, 0, 64, 71
1, 1006249, Control_c, 0, 64, 69
1, 1006255, Note_on_c, 0, 83, 87
1, 1006261, Note_off_c, 0, 52, 36
1, 1006263, Note_on_c, 0, 47, 62
1, 1006264, Control_c, 0, 64, 62
1, 1006271, Note_off_c, 0, 81, 60
1, 1006273, Note_on_c, 0, 71, 69
1, 1006278, Control_c, 0, 64, 44
1, 1006298, Note_off_c, 0, 49, 36
1, 1006300, Control_c, 0, 64, 0
1, 1006315, Control_c, 0, 64, 23
1, 1006330, Control_c, 0, 64, 41
1, 1006344, Control_c, 0, 64, 55
1, 1006359, Note_on_c, 0, 56, 55
1, 1006359, Control_c, 0, 64, 63
1, 1006374, Control_c, 0, 64, 65
1, 1006404, Control_c, 0, 64, 65
1, 1006419, Control_c, 0, 64, 66
1, 1006434, Control_c, 0, 64, 67
1, 1006440, Note_off_c, 0, 47, 63
1, 1006449, Control_c, 0, 64, 67
1, 1006464, Control_c, 0, 64, 68
1, 1006473, Note_on_c, 0, 52, 57
1, 1006492, Note_off_c, 0, 71, 58
1, 1006508, Control_c, 0, 64, 68
1, 1006552, Control_c, 0, 64, 69
1, 1006565, Note_on_c, 0, 47, 63
1, 1006567, Control_c, 0, 64, 69
1, 1006573, Note_off_c, 0, 52, 50
1, 1006577, Note_off_c, 0, 56, 36
1, 1006582, Control_c, 0, 64, 70
1, 1006596, Control_c, 0, 64, 70
1, 1006611, Control_c, 0, 64, 71
1, 1006615, Note_off_c, 0, 47, 63
1, 1006622, Note_off_c, 0, 83, 55
1, 1006626, Control_c, 0, 64, 72
1, 1006641, Control_c, 0, 64, 73
1, 1006670, Control_c, 0, 64, 72
1, 1006685, Control_c, 0, 64, 67
1, 1006689, Note_on_c, 0, 46, 67
1, 1006697, Note_on_c, 0, 85, 78
1, 1006700, Note_on_c, 0, 73, 75
1, 1006700, Control_c, 0, 64, 58
1, 1006716, Control_c, 0, 64, 0
1, 1006746, Control_c, 0, 64, 10
1, 1006761, Control_c, 0, 64, 45
1, 1006775, Control_c, 0, 64, 60
1, 1006790, Control_c, 0, 64, 66
1, 1006805, Control_c, 0, 64, 68
1, 1006819, Control_c, 0, 64, 69
1, 1006828, Note_on_c, 0, 55, 56
1, 1006834, Control_c, 0, 64, 70
1, 1006849, Control_c, 0, 64, 71
1, 1006853, Note_off_c, 0, 73, 59
1, 1006859, Note_off_c, 0, 46, 30
1, 1006864, Control_c, 0, 64, 72
1, 1006879, Control_c, 0, 64, 72
1, 1006923, Note_on_c, 0, 52, 52
1, 1006923, Control_c, 0, 64, 73
1, 1006997, Note_off_c, 0, 55, 38
1, 1006997, Note_on_c, 0, 46, 58
1, 1007002, Note_off_c, 0, 85, 31
1, 1007062, Note_off_c, 0, 52, 59
1, 1007108, Control_c, 0, 64, 71
1, 1007118, Note_off_c, 0, 46, 58
1, 1007123, Control_c, 0, 64, 65
1, 1007138, Control_c, 0, 64, 45
1, 1007141, Note_on_c, 0, 86, 66
1, 1007152, Note_on_c, 0, 47, 51
1, 1007153, Control_c, 0, 64, 0
1, 1007163, Note_on_c, 0, 74, 46
1, 1007227, Control_c, 0, 64, 42
1, 1007242, Control_c, 0, 64, 63
1, 1007257, Control_c, 0, 64, 69
1, 1007259, Note_off_c, 0, 74, 64
1, 1007272, Control_c, 0, 64, 71
1, 1007282, Note_on_c, 0, 54, 44
1, 1007286, Control_c, 0, 64, 72
1, 1007297, Note_off_c, 0, 86, 61
1, 1007316, Control_c, 0, 64, 72
1, 1007317, Note_off_c, 0, 47, 33
1, 1007331, Control_c, 0, 64, 73
1, 1007346, Note_off_c, 0, 54, 49
1, 1007346, Control_c, 0, 64, 73
1, 1007390, Note_on_c, 0, 50, 46
1, 1007401, Note_on_c, 0, 83, 61
1, 1007424, Note_on_c, 0, 71, 45
1, 1007451, Note_off_c, 0, 83, 54
1, 1007462, Note_off_c, 0, 50, 56
1, 1007495, Note_on_c, 0, 54, 47
1, 1007548, Note_off_c, 0, 71, 43
1, 1007572, Note_off_c, 0, 54, 61
1, 1007642, Control_c, 0, 64, 73
1, 1007657, Control_c, 0, 64, 72
1, 1007672, Control_c, 0, 64, 71
1, 1007687, Control_c, 0, 64, 69
1, 1007702, Control_c, 0, 64, 66
1, 1007716, Control_c, 0, 64, 62
1, 1007721, Note_on_c, 0, 69, 54
1, 1007728, Note_on_c, 0, 38, 69
1, 1007731, Control_c, 0, 64, 52
1, 1007746, Control_c, 0, 64, 22
1, 1007761, Control_c, 0, 64, 0
1, 1007847, Note_on_c, 0, 78, 55
1, 1007872, Control_c, 0, 64, 46
1, 1007876, Note_off_c, 0, 69, 37
1, 1007887, Control_c, 0, 64, 58
1, 1007902, Control_c, 0, 64, 62
1, 1007916, Control_c, 0, 64, 64
1, 1007931, Control_c, 0, 64, 65
1, 1007946, Control_c, 0, 64, 67
1, 1007961, Control_c, 0, 64, 68
1, 1007975, Note_on_c, 0, 74, 51
1, 1007976, Control_c, 0, 64, 68
1, 1008029, Note_off_c, 0, 78, 54
1, 1008038, Note_off_c, 0, 74, 63
1, 1008079, Note_on_c, 0, 69, 49
1, 1008121, Note_off_c, 0, 69, 62
1, 1008139, Control_c, 0, 64, 68
1, 1008154, Control_c, 0, 64, 66
1, 1008161, Note_on_c, 0, 40, 78
1, 1008168, Control_c, 0, 64, 63
1, 1008183, Control_c, 0, 64, 54
1, 1008184, Note_on_c, 0, 69, 59
1, 1008198, Control_c, 0, 64, 36
1, 1008213, Control_c, 0, 64, 15
1, 1008215, Note_off_c, 0, 38, 60
1, 1008228, Control_c, 0, 64, 23
1, 1008242, Control_c, 0, 64, 34
1, 1008257, Control_c, 0, 64, 44
1, 1008272, Control_c, 0, 64, 55
1, 1008287, Control_c, 0, 64, 60
1, 1008291, Note_on_c, 0, 76, 64
1, 1008301, Note_off_c, 0, 69, 62
1, 1008302, Control_c, 0, 64, 62
1, 1008347, Control_c, 0, 64, 62
1, 1008362, Control_c, 0, 64, 63
1, 1008377, Control_c, 0, 64, 63
1, 1008388, Note_on_c, 0, 72, 57
1, 1008396, Note_off_c, 0, 76, 60
1, 1008446, Note_off_c, 0, 72, 59
1, 1008473, Note_on_c, 0, 69, 57
1, 1008536, Note_off_c, 0, 69, 63
1, 1008547, Control_c, 0, 64, 63
1, 1008562, Control_c, 0, 64, 62
1, 1008577, Control_c, 0, 64, 61
1, 1008592, Control_c, 0, 64, 58
1, 1008604, Note_on_c, 0, 42, 78
1, 1008606, Note_on_c, 0, 69, 52
1, 1008607, Control_c, 0, 64, 53
1, 1008621, Control_c, 0, 64, 45
1, 1008636, Control_c, 0, 64, 28
1, 1008651, Control_c, 0, 64, 0
1, 1008687, Note_off_c, 0, 40, 57
1, 1008724, Note_on_c, 0, 75, 58
1, 1008743, Note_off_c, 0, 69, 61
1, 1008828, Note_on_c, 0, 72, 47
1, 1008839, Note_off_c, 0, 75, 58
1, 1008902, Note_off_c, 0, 72, 59
1, 1008919, Note_on_c, 0, 69, 51
1, 1009028, Note_off_c, 0, 69, 52
1, 1009050, Note_on_c, 0, 43, 67
1, 1009060, Note_on_c, 0, 71, 50
1, 1009110, Note_off_c, 0, 42, 51
1, 1009176, Note_off_c, 0, 71, 52
1, 1009194, Note_on_c, 0, 76, 37
1, 1009240, Note_off_c, 0, 76, 49
1, 1009244, Control_c, 0, 64, 42
1, 1009259, Control_c, 0, 64, 55
1, 1009274, Control_c, 0, 64, 62
1, 1009276, Note_on_c, 0, 40, 64
1, 1009284, Note_off_c, 0, 43, 56
1, 1009285, Note_on_c, 0, 67, 47
1, 1009296, Control_c, 0, 64, 65
1, 1009310, Control_c, 0, 64, 68
1, 1009325, Control_c, 0, 64, 71
1, 1009340, Control_c, 0, 64, 74
1, 1009355, Control_c, 0, 64, 76
1, 1009370, Control_c, 0, 64, 77
1, 1009376, Note_off_c, 0, 40, 64
1, 1009418, Note_on_c, 0, 76, 56
1, 1009428, Note_off_c, 0, 67, 37
1, 1009497, Note_off_c, 0, 76, 57
1, 1009533, Control_c, 0, 64, 76
1, 1009548, Control_c, 0, 64, 73
1, 1009557, Note_on_c, 0, 79, 70
1, 1009562, Note_on_c, 0, 47, 62
1, 1009562, Control_c, 0, 64, 68
1, 1009567, Note_on_c, 0, 67, 57
1, 1009577, Control_c, 0, 64, 63
1, 1009592, Control_c, 0, 64, 51
1, 1009607, Control_c, 0, 64, 22
1, 1009621, Control_c, 0, 64, 0
1, 1009651, Control_c, 0, 64, 27
1, 1009666, Control_c, 0, 64, 42
1, 1009679, Note_on_c, 0, 55, 58
1, 1009681, Control_c, 0, 64, 55
1, 1009695, Control_c, 0, 64, 62
1, 1009710, Control_c, 0, 64, 64
1, 1009725, Control_c, 0, 64, 65
1, 1009776, Note_off_c, 0, 47, 38
1, 1009786, Note_on_c, 0, 50, 61
1, 1009835, Note_off_c, 0, 67, 56
1, 1009845, Note_off_c, 0, 55, 55
1, 1009891, Note_on_c, 0, 47, 65
1, 1009903, Control_c, 0, 64, 66
1, 1009912, Note_off_c, 0, 50, 55
1, 1009919, Control_c, 0, 64, 66
1, 1009948, Control_c, 0, 64, 66
1, 1009963, Control_c, 0, 64, 63
1, 1009976, Note_on_c, 0, 81, 87
1, 1009978, Control_c, 0, 64, 57
1, 1009985, Note_on_c, 0, 69, 76
1, 1009993, Control_c, 0, 64, 41
1, 1010005, Note_on_c, 0, 45, 61
1, 1010008, Control_c, 0, 64, 35
1, 1010023, Note_off_c, 0, 79, 61
1, 1010023, Control_c, 0, 64, 42
1, 1010031, Note_off_c, 0, 47, 56
1, 1010044, Control_c, 0, 64, 50
1, 1010059, Control_c, 0, 64, 59
1, 1010074, Control_c, 0, 64, 63
1, 1010089, Control_c, 0, 64, 64
1, 1010100, Note_on_c, 0, 53, 68
1, 1010104, Control_c, 0, 64, 65
1, 1010118, Control_c, 0, 64, 65
1, 1010133, Control_c, 0, 64, 67
1, 1010148, Control_c, 0, 64, 69
1, 1010163, Control_c, 0, 64, 70
1, 1010177, Note_off_c, 0, 45, 62
1, 1010201, Note_on_c, 0, 48, 50
1, 1010208, Control_c, 0, 64, 71
1, 1010286, Note_off_c, 0, 48, 63
1, 1010292, Note_on_c, 0, 45, 68
1, 1010309, Note_off_c, 0, 69, 59
1, 1010309, Note_off_c, 0, 53, 60
1, 1010332, Note_off_c, 0, 45, 62
1, 1010370, Control_c, 0, 64, 69
1, 1010385, Control_c, 0, 64, 64
1, 1010400, Control_c, 0, 64, 49
1, 1010404, Note_on_c, 0, 83, 89
1, 1010410, Note_on_c, 0, 44, 72
1, 1010415, Note_on_c, 0, 71, 78
1, 1010415, Control_c, 0, 64, 0
1, 1010429, Note_off_c, 0, 81, 60
1, 1010444, Control_c, 0, 64, 15
1, 1010459, Control_c, 0, 64, 46
1, 1010474, Control_c, 0, 64, 61
1, 1010489, Control_c, 0, 64, 65
1, 1010497, Note_on_c, 0, 53, 66
1, 1010504, Control_c, 0, 64, 65
1, 1010518, Control_c, 0, 64, 66
1, 1010530, Note_off_c, 0, 44, 62
1, 1010533, Control_c, 0, 64, 66
1, 1010548, Control_c, 0, 64, 67
1, 1010562, Control_c, 0, 64, 69
1, 1010588, Note_on_c, 0, 50, 53
1, 1010607, Control_c, 0, 64, 69
1, 1010697, Note_on_c, 0, 44, 46
1, 1010704, Note_off_c, 0, 50, 59
1, 1010709, Note_off_c, 0, 71, 57
1, 1010712, Control_c, 0, 64, 70
1, 1010720, Note_off_c, 0, 53, 36
1, 1010727, Control_c, 0, 64, 71
1, 1010741, Control_c, 0, 64, 72
1, 1010756, Control_c, 0, 64, 74
1, 1010759, Note_off_c, 0, 44, 64
1, 1010793, Control_c, 0, 64, 73
1, 1010808, Control_c, 0, 64, 68
1, 1010823, Control_c, 0, 64, 58
1, 1010838, Control_c, 0, 64, 0
1, 1010844, Note_on_c, 0, 84, 84
1, 1010846, Note_off_c, 0, 83, 56
1, 1010858, Note_on_c, 0, 72, 76
1, 1010858, Note_on_c, 0, 42, 66
1, 1010882, Control_c, 0, 64, 17
1, 1010897, Control_c, 0, 64, 54
1, 1010912, Control_c, 0, 64, 63
1, 1010927, Control_c, 0, 64, 65
1, 1010947, Note_on_c, 0, 51, 63
1, 1010956, Note_off_c, 0, 42, 63
1, 1010956, Control_c, 0, 64, 66
1, 1010962, Note_off_c, 0, 84, 61
1, 1010970, Note_off_c, 0, 72, 62
1, 1010971, Control_c, 0, 64, 67
1, 1010986, Control_c, 0, 64, 69
1, 1011001, Control_c, 0, 64, 72
1, 1011016, Control_c, 0, 64, 75
1, 1011030, Control_c, 0, 64, 77
1, 1011045, Control_c, 0, 64, 79
1, 1011072, Note_off_c, 0, 51, 54
1, 1011090, Control_c, 0, 64, 74
1, 1011094, Note_on_c, 0, 41, 64
1, 1011105, Control_c, 0, 64, 65
1, 1011120, Control_c, 0, 64, 38
1, 1011121, Note_on_c, 0, 81, 85
1, 1011132, Note_on_c, 0, 69, 71
1, 1011134, Control_c, 0, 64, 0
1, 1011179, Control_c, 0, 64, 50
1, 1011193, Control_c, 0, 64, 62
1, 1011201, Note_off_c, 0, 69, 66
1, 1011208, Control_c, 0, 64, 65
1, 1011223, Control_c, 0, 64, 65
1, 1011241, Note_on_c, 0, 48, 58
1, 1011247, Note_off_c, 0, 81, 60
1, 1011323, Note_off_c, 0, 41, 38
1, 1011342, Control_c, 0, 64, 66
1, 1011374, Note_off_c, 0, 48, 54
1, 1011416, Control_c, 0, 64, 65
1, 1011431, Control_c, 0, 64, 65
1, 1011437, Note_on_c, 0, 49, 45
1, 1011446, Control_c, 0, 64, 63
1, 1011448, Note_on_c, 0, 40, 47
1, 1011460, Note_on_c, 0, 88, 79
1, 1011460, Control_c, 0, 64, 59
1, 1011475, Control_c, 0, 64, 34
1, 1011490, Control_c, 0, 64, 0
1, 1011588, Control_c, 0, 64, 49
1, 1011603, Control_c, 0, 64, 65
1, 1011617, Control_c, 0, 64, 71
1, 1011632, Control_c, 0, 64, 72
1, 1011639, Note_off_c, 0, 40, 57
1, 1011642, Note_on_c, 0, 76, 59
1, 1011647, Control_c, 0, 64, 73
1, 1011656, Note_off_c, 0, 88, 59
1, 1011662, Control_c, 0, 64, 73
1, 1011662, Control_c, 0, 67, 9
1, 1011677, Control_c, 0, 64, 74
1, 1011677, Control_c, 0, 67, 21
1, 1011691, Control_c, 0, 64, 75
1, 1011691, Control_c, 0, 67, 32
1, 1011706, Note_off_c, 0, 49, 53
1, 1011706, Control_c, 0, 67, 44
1, 1011721, Control_c, 0, 67, 56
1, 1011736, Control_c, 0, 67, 67
1, 1011737, Note_off_c, 0, 76, 62
1, 1011751, Control_c, 0, 67, 77
1, 1011765, Control_c, 0, 67, 88
1, 1011770, Note_on_c, 0, 86, 69
1, 1011780, Control_c, 0, 67, 95
1, 1011781, Note_on_c, 0, 78, 56
1, 1011795, Control_c, 0, 67, 100
1, 1011810, Control_c, 0, 67, 105
1, 1011824, Control_c, 0, 67, 108
1, 1011839, Control_c, 0, 67, 112
1, 1011854, Control_c, 0, 67, 116
1, 1011855, Note_off_c, 0, 78, 57
1, 1011869, Control_c, 0, 67, 120
1, 1011880, Note_on_c, 0, 76, 64
1, 1011884, Control_c, 0, 67, 123
1, 1011898, Control_c, 0, 67, 124
1, 1011899, Note_off_c, 0, 86, 60
1, 1011962, Note_off_c, 0, 76, 60
1, 1011972, Control_c, 0, 64, 71
1, 1011987, Note_on_c, 0, 85, 77
1, 1011987, Control_c, 0, 64, 65
1, 1011990, Note_on_c, 0, 76, 62
1, 1012002, Control_c, 0, 64, 51
1, 1012017, Control_c, 0, 64, 22
1, 1012017, Control_c, 0, 67, 123
1, 1012032, Control_c, 0, 64, 27
1, 1012047, Control_c, 0, 64, 44
1, 1012062, Control_c, 0, 64, 56
1, 1012077, Control_c, 0, 64, 63
1, 1012077, Control_c, 0, 67, 123
1, 1012091, Control_c, 0, 64, 66
1, 1012106, Control_c, 0, 64, 68
1, 1012121, Control_c, 0, 64, 69
1, 1012121, Control_c, 0, 67, 122
1, 1012135, Control_c, 0, 64, 70
1, 1012135, Control_c, 0, 67, 121
1, 1012144, Note_off_c, 0, 85, 61
1, 1012150, Control_c, 0, 64, 71
1, 1012150, Control_c, 0, 67, 120
1, 1012165, Control_c, 0, 64, 72
1, 1012165, Control_c, 0, 67, 118
1, 1012180, Control_c, 0, 67, 117
1, 1012195, Control_c, 0, 64, 72
1, 1012195, Control_c, 0, 67, 116
1, 1012202, Note_on_c, 0, 83, 74
1, 1012204, Note_off_c, 0, 76, 55
1, 1012208, Note_on_c, 0, 74, 65
1, 1012209, Control_c, 0, 67, 116
1, 1012224, Control_c, 0, 64, 73
1, 1012239, Control_c, 0, 67, 115
1, 1012245, Note_off_c, 0, 74, 63
1, 1012254, Control_c, 0, 64, 73
1, 1012290, Note_off_c, 0, 83, 60
1, 1012327, Note_on_c, 0, 76, 60
1, 1012426, Note_off_c, 0, 76, 55
1, 1012426, Control_c, 0, 64, 72
1, 1012440, Control_c, 0, 64, 67
1, 1012448, Note_on_c, 0, 81, 63
1, 1012455, Control_c, 0, 64, 57
1, 1012455, Note_on_c, 0, 66, 53
1, 1012470, Control_c, 0, 64, 0
1, 1012485, Control_c, 0, 67, 116
1, 1012500, Control_c, 0, 67, 117
1, 1012514, Control_c, 0, 67, 117
1, 1012529, Control_c, 0, 64, 48
1, 1012529, Control_c, 0, 67, 118
1, 1012544, Control_c, 0, 64, 61
1, 1012544, Control_c, 0, 67, 118
1, 1012552, Note_off_c, 0, 81, 59
1, 1012556, Note_on_c, 0, 73, 74
1, 1012559, Control_c, 0, 64, 65
1, 1012574, Control_c, 0, 64, 66
1, 1012574, Control_c, 0, 67, 119
1, 1012588, Control_c, 0, 64, 66
1, 1012603, Control_c, 0, 64, 67
1, 1012604, Note_off_c, 0, 66, 60
1, 1012618, Control_c, 0, 64, 67
1, 1012633, Control_c, 0, 64, 68
1, 1012633, Control_c, 0, 67, 118
1, 1012647, Control_c, 0, 67, 118
1, 1012653, Note_on_c, 0, 69, 58
1, 1012660, Note_on_c, 0, 78, 78
1, 1012662, Control_c, 0, 67, 117
1, 1012677, Note_off_c, 0, 73, 56
1, 1012677, Control_c, 0, 67, 116
1, 1012692, Control_c, 0, 67, 115
1, 1012707, Control_c, 0, 67, 114
1, 1012721, Control_c, 0, 67, 113
1, 1012736, Control_c, 0, 67, 111
1, 1012751, Note_on_c, 0, 66, 65
1, 1012751, Control_c, 0, 67, 109
1, 1012754, Note_on_c, 0, 81, 76
1, 1012763, Note_off_c, 0, 69, 59
1, 1012765, Control_c, 0, 67, 107
1, 1012780, Control_c, 0, 67, 106
1, 1012824, Note_off_c, 0, 78, 52
1, 1012839, Control_c, 0, 64, 67
1, 1012843, Note_on_c, 0, 62, 72
1, 1012853, Note_on_c, 0, 83, 79
1, 1012854, Control_c, 0, 64, 63
1, 1012854, Control_c, 0, 67, 106
1, 1012869, Control_c, 0, 64, 46
1, 1012879, Note_off_c, 0, 66, 62
1, 1012884, Note_off_c, 0, 81, 59
1, 1012884, Control_c, 0, 64, 0
1, 1012928, Control_c, 0, 64, 18
1, 1012938, Note_off_c, 0, 83, 61
1, 1012943, Control_c, 0, 64, 50
1, 1012950, Note_on_c, 0, 74, 77
1, 1012955, Note_on_c, 0, 71, 68
1, 1012957, Control_c, 0, 64, 62
1, 1012972, Control_c, 0, 64, 64
1, 1012987, Control_c, 0, 64, 64
1, 1013002, Control_c, 0, 67, 106
1, 1013039, Note_off_c, 0, 62, 50
1, 1013039, Control_c, 0, 67, 105
1, 1013054, Control_c, 0, 64, 65
1, 1013062, Note_on_c, 0, 78, 79
1, 1013069, Control_c, 0, 64, 65
1, 1013072, Note_on_c, 0, 66, 73
1, 1013084, Control_c, 0, 64, 66
1, 1013084, Note_off_c, 0, 71, 58
1, 1013099, Control_c, 0, 64, 66
1, 1013112, Note_off_c, 0, 74, 60
1, 1013114, Control_c, 0, 64, 67
1, 1013129, Control_c, 0, 64, 68
1, 1013144, Control_c, 0, 64, 69
1, 1013156, Note_on_c, 0, 83, 68
1, 1013159, Control_c, 0, 64, 71
1, 1013174, Control_c, 0, 64, 73
1, 1013174, Control_c, 0, 67, 105
1, 1013178, Note_on_c, 0, 62, 67
1, 1013188, Control_c, 0, 64, 73
1, 1013189, Note_off_c, 0, 78, 59
1, 1013203, Control_c, 0, 64, 73
1, 1013218, Control_c, 0, 64, 69
1, 1013233, Control_c, 0, 64, 61
1, 1013238, Note_on_c, 0, 85, 81
1, 1013248, Control_c, 0, 64, 0
1, 1013251, Note_off_c, 0, 83, 57
1, 1013254, Note_off_c, 0, 66, 40
1, 1013257, Note_on_c, 0, 61, 80
1, 1013266, Note_off_c, 0, 62, 58
1, 1013292, Control_c, 0, 64, 20
1, 1013307, Control_c, 0, 64, 50
1, 1013322, Control_c, 0, 64, 60
1, 1013323, Note_off_c, 0, 85, 65
1, 1013336, Control_c, 0, 64, 63
1, 1013343, Note_on_c, 0, 77, 74
1, 1013351, Control_c, 0, 64, 64
1, 1013351, Control_c, 0, 67, 105
1, 1013359, Note_on_c, 0, 68, 66
1, 1013366, Control_c, 0, 67, 106
1, 1013377, Note_off_c, 0, 61, 58
1, 1013381, Control_c, 0, 64, 65
1, 1013381, Control_c, 0, 67, 106
1, 1013395, Control_c, 0, 64, 65
1, 1013410, Control_c, 0, 64, 66
1, 1013410, Control_c, 0, 67, 107
1, 1013425, Control_c, 0, 64, 67
1, 1013425, Control_c, 0, 67, 107
1, 1013440, Control_c, 0, 67, 108
1, 1013454, Note_on_c, 0, 65, 49
1, 1013457, Note_on_c, 0, 80, 46
1, 1013469, Control_c, 0, 64, 67
1, 1013469, Control_c, 0, 67, 108
1, 1013477, Note_on_c, 0, 81, 62
1, 1013484, Control_c, 0, 67, 109
1, 1013499, Control_c, 0, 64, 68
1, 1013514, Control_c, 0, 67, 109
1, 1013517, Note_off_c, 0, 68, 37
1, 1013529, Control_c, 0, 64, 68
1, 1013529, Control_c, 0, 67, 110
1, 1013541, Note_off_c, 0, 81, 53
1, 1013543, Control_c, 0, 64, 69
1, 1013543, Control_c, 0, 67, 110
1, 1013546, Note_on_c, 0, 85, 68
1, 1013552, Note_on_c, 0, 61, 60
1, 1013555, Note_off_c, 0, 65, 56
1, 1013558, Control_c, 0, 64, 71
1, 1013558, Control_c, 0, 67, 111
1, 1013564, Note_off_c, 0, 80, 44
1, 1013565, Note_off_c, 0, 77, 54
1, 1013573, Control_c, 0, 64, 72
1, 1013573, Control_c, 0, 67, 112
1, 1013588, Control_c, 0, 67, 114
1, 1013603, Control_c, 0, 64, 69
1, 1013603, Control_c, 0, 67, 114
1, 1013618, Control_c, 0, 64, 62
1, 1013618, Control_c, 0, 67, 115
1, 1013633, Control_c, 0, 64, 23
1, 1013633, Control_c, 0, 67, 115
1, 1013642, Note_off_c, 0, 85, 63
1, 1013642, Note_off_c, 0, 61, 49
1, 1013648, Control_c, 0, 64, 0
1, 1013650, Note_on_c, 0, 86, 74
1, 1013663, Note_on_c, 0, 59, 64
1, 1013677, Control_c, 0, 64, 23
1, 1013692, Control_c, 0, 64, 51
1, 1013707, Control_c, 0, 64, 62
1, 1013722, Control_c, 0, 64, 65
1, 1013737, Note_on_c, 0, 78, 69
1, 1013740, Note_off_c, 0, 59, 54
1, 1013751, Control_c, 0, 64, 65
1, 1013766, Note_off_c, 0, 86, 60
1, 1013769, Note_on_c, 0, 71, 51
1, 1013847, Note_on_c, 0, 83, 60
1, 1013865, Note_on_c, 0, 64, 52
1, 1013880, Note_off_c, 0, 78, 57
1, 1013897, Note_off_c, 0, 71, 56
1, 1013935, Note_off_c, 0, 83, 56
1, 1013948, Note_on_c, 0, 74, 55
1, 1013956, Note_off_c, 0, 64, 64
1, 1013979, Note_on_c, 0, 68, 51
1, 1013982, Control_c, 0, 64, 66
1, 1013996, Control_c, 0, 64, 66
1, 1014041, Control_c, 0, 64, 64
1, 1014043, Note_off_c, 0, 68, 52
1, 1014055, Note_off_c, 0, 74, 58
1, 1014056, Control_c, 0, 64, 56
1, 1014071, Control_c, 0, 64, 0
1, 1014074, Note_on_c, 0, 81, 58
1, 1014082, Note_on_c, 0, 69, 55
1, 1014085, Note_on_c, 0, 57, 60
1, 1014085, Control_c, 0, 67, 116
1, 1014115, Control_c, 0, 67, 116
1, 1014130, Control_c, 0, 67, 117
1, 1014145, Control_c, 0, 64, 49
1, 1014159, Control_c, 0, 64, 63
1, 1014174, Control_c, 0, 64, 68
1, 1014186, Note_on_c, 0, 85, 63
1, 1014188, Note_off_c, 0, 81, 61
1, 1014189, Control_c, 0, 64, 70
1, 1014196, Note_off_c, 0, 57, 62
1, 1014228, Note_off_c, 0, 85, 60
1, 1014248, Control_c, 0, 64, 71
1, 1014267, Note_off_c, 0, 69, 66
1, 1014280, Note_on_c, 0, 88, 75
1, 1014386, Note_on_c, 0, 93, 86
1, 1014396, Control_c, 0, 64, 71
1, 1014402, Note_off_c, 0, 88, 49
1, 1014410, Control_c, 0, 64, 72
1, 1014425, Control_c, 0, 64, 72
1, 1014440, Control_c, 0, 64, 73
1, 1014470, Control_c, 0, 64, 72
1, 1014484, Control_c, 0, 64, 66
1, 1014499, Control_c, 0, 64, 54
1, 1014503, Note_on_c, 0, 97, 79
1, 1014514, Control_c, 0, 64, 0
1, 1014524, Note_on_c, 0, 81, 71
1, 1014553, Note_off_c, 0, 93, 59
1, 1014566, Control_c, 0, 64, 37
1, 1014581, Control_c, 0, 64, 57
1, 1014581, Control_c, 0, 67, 117
1, 1014596, Control_c, 0, 64, 65
1, 1014596, Control_c, 0, 67, 118
1, 1014610, Control_c, 0, 64, 67
1, 1014623, Note_on_c, 0, 88, 77
1, 1014625, Control_c, 0, 64, 69
1, 1014640, Control_c, 0, 64, 71
1, 1014648, Note_off_c, 0, 97, 64
1, 1014655, Control_c, 0, 64, 73
1, 1014670, Control_c, 0, 64, 74
1, 1014684, Control_c, 0, 64, 76
1, 1014699, Control_c, 0, 64, 76
1, 1014715, Control_c, 0, 64, 77
1, 1014718, Note_off_c, 0, 88, 64
1, 1014732, Note_off_c, 0, 81, 57
1, 1014739, Note_on_c, 0, 100, 81
1, 1014745, Note_on_c, 0, 85, 68
1, 1014760, Control_c, 0, 67, 118
1, 1014774, Control_c, 0, 67, 119
1, 1014778, Note_off_c, 0, 85, 65
1, 1014789, Control_c, 0, 67, 121
1, 1014804, Control_c, 0, 67, 126
1, 1014816, Note_off_c, 0, 100, 64
1, 1014819, Control_c, 0, 67, 127
1, 1014834, Note_on_c, 0, 88, 70
1, 1014885, Note_off_c, 0, 88, 62
1, 1014990, Note_on_c, 0, 76, 79
1, 1015000, Note_on_c, 0, 64, 54
1, 1015011, Control_c, 0, 64, 76
1, 1015025, Control_c, 0, 64, 71
1, 1015040, Control_c, 0, 64, 63
1, 1015055, Control_c, 0, 64, 38
1, 1015070, Control_c, 0, 64, 0
1, 1015099, Note_off_c, 0, 64, 49
1, 1015099, Control_c, 0, 64, 17
1, 1015106, Note_on_c, 0, 74, 66
1, 1015114, Control_c, 0, 64, 44
1, 1015129, Control_c, 0, 64, 56
1, 1015144, Control_c, 0, 64, 62
1, 1015159, Control_c, 0, 64, 64
1, 1015174, Control_c, 0, 64, 65
1, 1015189, Control_c, 0, 64, 67
1, 1015200, Note_off_c, 0, 76, 39
1, 1015204, Control_c, 0, 64, 69
1, 1015218, Note_off_c, 0, 74, 40
1, 1015219, Control_c, 0, 64, 71
1, 1015245, Note_on_c, 0, 86, 80
1, 1015248, Control_c, 0, 64, 68
1, 1015252, Note_on_c, 0, 71, 51
1, 1015263, Control_c, 0, 64, 63
1, 1015268, Note_on_c, 0, 77, 60
1, 1015285, Control_c, 0, 64, 56
1, 1015300, Control_c, 0, 64, 53
1, 1015314, Control_c, 0, 64, 56
1, 1015324, Note_off_c, 0, 71, 55
1, 1015329, Control_c, 0, 64, 60
1, 1015344, Control_c, 0, 64, 63
1, 1015357, Note_on_c, 0, 74, 56
1, 1015359, Control_c, 0, 64, 66
1, 1015373, Note_off_c, 0, 77, 60
1, 1015374, Control_c, 0, 64, 70
1, 1015389, Control_c, 0, 64, 73
1, 1015403, Control_c, 0, 64, 75
1, 1015430, Note_off_c, 0, 86, 55
1, 1015433, Control_c, 0, 64, 74
1, 1015448, Control_c, 0, 64, 67
1, 1015463, Control_c, 0, 64, 60
1, 1015466, Note_off_c, 0, 74, 58
1, 1015468, Note_on_c, 0, 68, 51
1, 1015475, Note_on_c, 0, 83, 60
1, 1015478, Control_c, 0, 64, 46
1, 1015493, Control_c, 0, 64, 45
1, 1015506, Note_on_c, 0, 76, 56
1, 1015508, Control_c, 0, 64, 52
1, 1015523, Control_c, 0, 64, 59
1, 1015538, Control_c, 0, 64, 63
1, 1015553, Control_c, 0, 64, 65
1, 1015567, Control_c, 0, 64, 65
1, 1015580, Note_off_c, 0, 76, 62
1, 1015582, Control_c, 0, 64, 66
1, 1015588, Note_on_c, 0, 74, 44
1, 1015591, Note_off_c, 0, 68, 35
1, 1015597, Control_c, 0, 64, 66
1, 1015612, Control_c, 0, 64, 67
1, 1015627, Control_c, 0, 64, 67
1, 1015653, Note_off_c, 0, 74, 60
1, 1015658, Note_off_c, 0, 83, 60
1, 1015675, Note_on_c, 0, 80, 62
1, 1015700, Note_on_c, 0, 64, 50
1, 1015765, Poly_aftertouch_c, 0, 76, 127
1, 1015776, Note_off_c, 0, 80, 56
1, 1015787, Note_on_c, 0, 74, 42
1, 1015808, Note_off_c, 0, 64, 50
1, 1015821, Poly_aftertouch_c, 0, 76, 0
1, 1015893, Control_c, 0, 64, 66
1, 1015908, Control_c, 0, 64, 63
1, 1015919, Note_on_c, 0, 81, 60
1, 1015920, Note_off_c, 0, 74, 58
1, 1015922, Control_c, 0, 64, 49
1, 1015933, Note_on_c, 0, 73, 49
1, 1015937, Control_c, 0, 64, 0
1, 1015938, Note_on_c, 0, 69, 48
1, 1016012, Control_c, 0, 64, 44
1, 1016034, Control_c, 0, 64, 58
1, 1016038, Note_on_c, 0, 85, 59
1, 1016044, Note_off_c, 0, 81, 60
1, 1016049, Control_c, 0, 64, 62
1, 1016063, Control_c, 0, 64, 63
1, 1016077, Note_off_c, 0, 85, 62
1, 1016092, Note_off_c, 0, 69, 63
1, 1016093, Control_c, 0, 64, 64
1, 1016107, Control_c, 0, 64, 64
1, 1016123, Note_off_c, 0, 73, 62
1, 1016136, Note_on_c, 0, 88, 62
1, 1016152, Control_c, 0, 64, 65
1, 1016242, Note_on_c, 0, 93, 73
1, 1016269, Note_off_c, 0, 88, 38
1, 1016286, Control_c, 0, 64, 63
1, 1016301, Control_c, 0, 64, 60
1, 1016316, Control_c, 0, 64, 52
1, 1016331, Control_c, 0, 64, 46
1, 1016346, Control_c, 0, 64, 48
1, 1016350, Note_on_c, 0, 81, 57
1, 1016357, Note_on_c, 0, 97, 64
1, 1016360, Note_off_c, 0, 93, 59
1, 1016360, Control_c, 0, 64, 51
1, 1016375, Control_c, 0, 64, 56
1, 1016390, Control_c, 0, 64, 61
1, 1016405, Control_c, 0, 64, 64
1, 1016420, Control_c, 0, 64, 66
1, 1016435, Control_c, 0, 64, 68
1, 1016450, Control_c, 0, 64, 70
1, 1016450, Note_off_c, 0, 97, 59
1, 1016458, Note_on_c, 0, 88, 64
1, 1016465, Control_c, 0, 64, 71
1, 1016479, Control_c, 0, 64, 72
1, 1016534, Note_off_c, 0, 88, 59
1, 1016566, Note_on_c, 0, 100, 65
1, 1016570, Note_on_c, 0, 85, 55
1, 1016595, Note_off_c, 0, 81, 33
1, 1016609, Note_off_c, 0, 85, 64
1, 1016624, Note_off_c, 0, 100, 59
1, 1016661, Note_on_c, 0, 88, 56
1, 1016690, Note_off_c, 0, 88, 65
1, 1016812, Control_c, 0, 64, 71
1, 1016813, Note_on_c, 0, 76, 64
1, 1016822, Note_on_c, 0, 64, 33
1, 1016827, Control_c, 0, 64, 68
1, 1016842, Control_c, 0, 64, 64
1, 1016857, Control_c, 0, 64, 62
1, 1016872, Control_c, 0, 64, 62
1, 1016880, Note_off_c, 0, 64, 46
1, 1016886, Control_c, 0, 64, 62
1, 1016901, Control_c, 0, 64, 63
1, 1016916, Control_c, 0, 64, 63
1, 1016930, Control_c, 0, 64, 64
1, 1016937, Note_on_c, 0, 74, 38
1, 1016945, Control_c, 0, 64, 65
1, 1016960, Control_c, 0, 64, 65
1, 1016975, Control_c, 0, 64, 66
1, 1017001, Note_off_c, 0, 74, 50
1, 1017004, Control_c, 0, 64, 65
1, 1017019, Control_c, 0, 64, 63
1, 1017034, Note_on_c, 0, 86, 59
1, 1017034, Control_c, 0, 64, 61
1, 1017041, Note_on_c, 0, 71, 44
1, 1017049, Note_on_c, 0, 77, 56
1, 1017049, Note_off_c, 0, 76, 61
1, 1017049, Control_c, 0, 64, 60
1, 1017079, Control_c, 0, 64, 61
1, 1017082, Note_off_c, 0, 71, 60
1, 1017094, Control_c, 0, 64, 62
1, 1017109, Control_c, 0, 64, 63
1, 1017124, Control_c, 0, 64, 65
1, 1017139, Control_c, 0, 64, 66
1, 1017141, Note_off_c, 0, 77, 60
1, 1017143, Note_on_c, 0, 74, 44
1, 1017153, Control_c, 0, 64, 66
1, 1017168, Control_c, 0, 64, 67
1, 1017183, Control_c, 0, 64, 67
1, 1017240, Note_off_c, 0, 74, 62
1, 1017266, Note_on_c, 0, 68, 39
1, 1017266, Note_on_c, 0, 83, 55
1, 1017287, Note_on_c, 0, 76, 39
1, 1017327, Note_off_c, 0, 76, 54
1, 1017337, Note_off_c, 0, 68, 53
1, 1017365, Note_on_c, 0, 74, 47
1, 1017442, Note_off_c, 0, 74, 60
1, 1017493, Note_on_c, 0, 64, 50
1, 1017497, Note_on_c, 0, 80, 55
1, 1017532, Control_c, 0, 64, 67
1, 1017578, Poly_aftertouch_c, 0, 76, 127
1, 1017589, Note_on_c, 0, 74, 42
1, 1017607, Poly_aftertouch_c, 0, 76, 0
1, 1017626, Note_off_c, 0, 64, 36
1, 1017627, Note_off_c, 0, 86, 20
1, 1017631, Note_off_c, 0, 83, 23
1, 1017660, Note_off_c, 0, 80, 58
1, 1017724, Control_c, 0, 64, 66
1, 1017768, Control_c, 0, 64, 66
1, 1017778, Note_off_c, 0, 74, 38
1, 1017798, Control_c, 0, 64, 65
1, 1017799, Note_on_c, 0, 73, 43
1, 1017803, Note_on_c, 0, 81, 56
1, 1017804, Note_on_c, 0, 69, 32
1, 1017813, Control_c, 0, 64, 65
1, 1017827, Control_c, 0, 64, 64
1, 1017842, Control_c, 0, 64, 63
1, 1017857, Control_c, 0, 64, 61
1, 1017872, Control_c, 0, 64, 59
1, 1017887, Control_c, 0, 64, 57
1, 1017903, Control_c, 0, 64, 55
1, 1017904, Note_off_c, 0, 81, 48
1, 1017916, Note_on_c, 0, 83, 49
1, 1017918, Control_c, 0, 64, 54
1, 1017932, Control_c, 0, 64, 54
1, 1017947, Control_c, 0, 64, 53
1, 1017962, Control_c, 0, 64, 52
1, 1017976, Control_c, 0, 64, 51
1, 1017991, Control_c, 0, 64, 51
1, 1018006, Control_c, 0, 64, 50
1, 1018009, Note_on_c, 0, 80, 58
1, 1018014, Note_off_c, 0, 83, 60
1, 1018021, Control_c, 0, 64, 50
1, 1018036, Control_c, 0, 64, 49
1, 1018051, Control_c, 0, 64, 48
1, 1018065, Control_c, 0, 64, 48
1, 1018096, Control_c, 0, 64, 47
1, 1018107, Note_on_c, 0, 83, 54
1, 1018113, Note_off_c, 0, 80, 58
1, 1018125, Control_c, 0, 64, 47
1, 1018140, Control_c, 0, 64, 46
1, 1018191, Note_off_c, 0, 83, 61
1, 1018210, Note_on_c, 0, 81, 69
1, 1018214, Control_c, 0, 64, 47
1, 1018244, Control_c, 0, 64, 47
1, 1018259, Control_c, 0, 64, 48
1, 1018281, Control_c, 0, 64, 48
1, 1018296, Control_c, 0, 64, 49
1, 1018305, Note_on_c, 0, 83, 70
1, 1018311, Control_c, 0, 64, 49
1, 1018318, Note_off_c, 0, 81, 52
1, 1018326, Control_c, 0, 64, 50
1, 1018340, Control_c, 0, 64, 50
1, 1018355, Control_c, 0, 64, 51
1, 1018399, Control_c, 0, 64, 51
1, 1018411, Note_on_c, 0, 80, 66
1, 1018414, Control_c, 0, 64, 52
1, 1018423, Note_off_c, 0, 83, 59
1, 1018429, Control_c, 0, 64, 52
1, 1018474, Control_c, 0, 64, 53
1, 1018474, Control_c, 0, 67, 123
1, 1018489, Control_c, 0, 67, 111
1, 1018503, Control_c, 0, 67, 96
1, 1018507, Note_on_c, 0, 83, 66
1, 1018517, Note_off_c, 0, 80, 59
1, 1018518, Control_c, 0, 64, 53
1, 1018518, Control_c, 0, 67, 80
1, 1018533, Control_c, 0, 67, 62
1, 1018548, Control_c, 0, 64, 54
1, 1018548, Control_c, 0, 67, 48
1, 1018563, Control_c, 0, 64, 54
1, 1018563, Control_c, 0, 67, 37
1, 1018577, Control_c, 0, 67, 29
1, 1018581, Note_off_c, 0, 83, 61
1, 1018592, Control_c, 0, 64, 55
1, 1018592, Control_c, 0, 67, 23
1, 1018596, Note_on_c, 0, 81, 76
1, 1018607, Control_c, 0, 64, 55
1, 1018607, Control_c, 0, 67, 19
1, 1018622, Control_c, 0, 67, 15
1, 1018637, Control_c, 0, 67, 9
1, 1018651, Control_c, 0, 64, 56
1, 1018651, Control_c, 0, 67, 0
1, 1018681, Control_c, 0, 64, 56
1, 1018688, Note_on_c, 0, 82, 71
1, 1018697, Control_c, 0, 64, 57
1, 1018705, Note_off_c, 0, 81, 55
1, 1018712, Control_c, 0, 64, 57
1, 1018723, Note_off_c, 0, 73, 60
1, 1018727, Control_c, 0, 64, 58
1, 1018742, Control_c, 0, 64, 59
1, 1018771, Control_c, 0, 64, 59
1, 1018786, Control_c, 0, 64, 60
1, 1018790, Note_on_c, 0, 79, 73
1, 1018800, Control_c, 0, 64, 61
1, 1018815, Control_c, 0, 64, 62
1, 1018817, Note_off_c, 0, 69, 57
1, 1018818, Note_off_c, 0, 82, 62
1, 1018829, Control_c, 0, 64, 62
1, 1018844, Control_c, 0, 64, 63
1, 1018859, Control_c, 0, 64, 64
1, 1018873, Control_c, 0, 64, 64
1, 1018876, Note_on_c, 0, 81, 75
1, 1018888, Control_c, 0, 64, 65
1, 1018903, Control_c, 0, 64, 66
1, 1018904, Note_off_c, 0, 79, 57
1, 1018918, Control_c, 0, 64, 68
1, 1018933, Control_c, 0, 64, 70
1, 1018948, Control_c, 0, 64, 71
1, 1018963, Control_c, 0, 64, 73
1, 1018973, Note_on_c, 0, 77, 80
1, 1018975, Note_off_c, 0, 81, 60
1, 1018978, Control_c, 0, 64, 75
1, 1018992, Control_c, 0, 64, 77
1, 1019007, Control_c, 0, 64, 79
1, 1019029, Control_c, 0, 64, 81
1, 1019044, Control_c, 0, 64, 83
1, 1019059, Control_c, 0, 64, 84
1, 1019073, Note_on_c, 0, 79, 82
1, 1019074, Control_c, 0, 64, 84
1, 1019088, Control_c, 0, 64, 85
1, 1019103, Note_off_c, 0, 77, 60
1, 1019118, Control_c, 0, 64, 85
1, 1019174, Note_on_c, 0, 76, 80
1, 1019197, Note_off_c, 0, 79, 58
1, 1019243, Note_off_c, 0, 76, 64
1, 1019266, Note_on_c, 0, 77, 79
1, 1019316, Note_off_c, 0, 77, 52
1, 1019355, Note_on_c, 0, 38, 87
1, 1019355, Control_c, 0, 64, 83
1, 1019357, Note_on_c, 0, 50, 88
1, 1019370, Control_c, 0, 64, 73
1, 1019373, Note_on_c, 0, 82, 79
1, 1019385, Control_c, 0, 64, 63
1, 1019399, Control_c, 0, 64, 40
1, 1019414, Control_c, 0, 64, 0
1, 1019459, Control_c, 0, 64, 37
1, 1019465, Note_off_c, 0, 82, 56
1, 1019473, Note_on_c, 0, 81, 72
1, 1019473, Control_c, 0, 64, 53
1, 1019488, Control_c, 0, 64, 59
1, 1019504, Control_c, 0, 64, 61
1, 1019524, Note_off_c, 0, 81, 59
1, 1019548, Control_c, 0, 64, 62
1, 1019559, Note_on_c, 0, 81, 55
1, 1019563, Control_c, 0, 64, 63
1, 1019578, Control_c, 0, 64, 63
1, 1019593, Control_c, 0, 64, 64
1, 1019608, Control_c, 0, 64, 64
1, 1019622, Control_c, 0, 64, 65
1, 1019652, Control_c, 0, 64, 65
1, 1019657, Note_off_c, 0, 81, 56
1, 1019663, Note_on_c, 0, 79, 73
1, 1019667, Control_c, 0, 64, 66
1, 1019682, Control_c, 0, 64, 67
1, 1019690, Note_off_c, 0, 38, 61
1, 1019690, Note_off_c, 0, 50, 58
1, 1019696, Control_c, 0, 64, 67
1, 1019711, Control_c, 0, 64, 68
1, 1019713, Note_off_c, 0, 79, 60
1, 1019726, Control_c, 0, 64, 70
1, 1019756, Control_c, 0, 64, 68
1, 1019763, Note_on_c, 0, 40, 90
1, 1019763, Note_on_c, 0, 52, 100
1, 1019763, Note_on_c, 0, 79, 69
1, 1019778, Control_c, 0, 64, 64
1, 1019793, Control_c, 0, 64, 49
1, 1019808, Control_c, 0, 64, 0
1, 1019852, Control_c, 0, 64, 28
1, 1019855, Note_off_c, 0, 79, 57
1, 1019867, Control_c, 0, 64, 54
1, 1019877, Note_on_c, 0, 77, 68
1, 1019882, Control_c, 0, 64, 62
1, 1019896, Control_c, 0, 64, 64
1, 1019911, Control_c, 0, 64, 65
1, 1019926, Note_off_c, 0, 77, 60
1, 1019926, Control_c, 0, 64, 65
1, 1019941, Control_c, 0, 64, 67
1, 1019955, Note_on_c, 0, 77, 57
1, 1019955, Control_c, 0, 64, 68
1, 1019970, Control_c, 0, 64, 69
1, 1019985, Control_c, 0, 64, 69
1, 1020015, Control_c, 0, 64, 70
1, 1020030, Control_c, 0, 64, 70
1, 1020033, Note_off_c, 0, 77, 60
1, 1020045, Control_c, 0, 64, 71
1, 1020060, Control_c, 0, 64, 72
1, 1020066, Note_on_c, 0, 76, 72
1, 1020075, Control_c, 0, 64, 73
1, 1020081, Note_off_c, 0, 40, 63
1, 1020089, Control_c, 0, 64, 75
1, 1020104, Control_c, 0, 64, 77
1, 1020104, Note_off_c, 0, 52, 58
1, 1020119, Control_c, 0, 64, 80
1, 1020128, Note_off_c, 0, 76, 63
1, 1020134, Control_c, 0, 64, 82
1, 1020163, Control_c, 0, 64, 77
1, 1020164, Poly_aftertouch_c, 0, 76, 0
1, 1020173, Note_on_c, 0, 53, 91
1, 1020174, Note_on_c, 0, 41, 87
1, 1020174, Note_on_c, 0, 76, 63
1, 1020178, Control_c, 0, 64, 63
1, 1020193, Control_c, 0, 64, 0
1, 1020257, Note_on_c, 0, 74, 67
1, 1020267, Control_c, 0, 64, 51
1, 1020273, Note_off_c, 0, 76, 61
1, 1020281, Control_c, 0, 64, 66
1, 1020298, Control_c, 0, 64, 70
1, 1020313, Control_c, 0, 64, 71
1, 1020322, Note_off_c, 0, 74, 62
1, 1020327, Control_c, 0, 64, 72
1, 1020349, Note_on_c, 0, 69, 67
1, 1020357, Control_c, 0, 64, 72
1, 1020371, Control_c, 0, 64, 73
1, 1020386, Control_c, 0, 64, 73
1, 1020413, Note_off_c, 0, 41, 63
1, 1020424, Note_off_c, 0, 53, 65
1, 1020431, Control_c, 0, 64, 71
1, 1020437, Note_on_c, 0, 74, 69
1, 1020445, Control_c, 0, 64, 64
1, 1020460, Control_c, 0, 64, 0
1, 1020465, Note_off_c, 0, 69, 62
1, 1020553, Note_off_c, 0, 74, 61
1, 1020565, Note_on_c, 0, 77, 65
1, 1020572, Note_on_c, 0, 55, 87
1, 1020575, Note_on_c, 0, 43, 89
1, 1020613, Note_off_c, 0, 55, 64
1, 1020617, Note_off_c, 0, 43, 61
1, 1020633, Note_on_c, 0, 76, 62
1, 1020758, Note_off_c, 0, 76, 59
1, 1020771, Note_on_c, 0, 40, 88
1, 1020772, Note_on_c, 0, 52, 87
1, 1020783, Note_on_c, 0, 69, 58
1, 1020789, Note_off_c, 0, 77, 22
1, 1020799, Note_off_c, 0, 52, 69
1, 1020802, Note_off_c, 0, 40, 68
1, 1020857, Note_on_c, 0, 73, 63
1, 1020946, Note_off_c, 0, 69, 49
1, 1020972, Note_on_c, 0, 53, 92
1, 1020972, Note_on_c, 0, 41, 93
1, 1020982, Note_on_c, 0, 76, 61
1, 1021001, Control_c, 0, 64, 56
1, 1021016, Control_c, 0, 64, 68
1, 1021018, Note_off_c, 0, 73, 53
1, 1021031, Control_c, 0, 64, 71
1, 1021050, Note_on_c, 0, 74, 62
1, 1021075, Control_c, 0, 64, 72
1, 1021081, Note_off_c, 0, 76, 60
1, 1021090, Control_c, 0, 64, 73
1, 1021106, Control_c, 0, 64, 74
1, 1021108, Note_off_c, 0, 74, 66
1, 1021146, Note_on_c, 0, 69, 67
1, 1021209, Control_c, 0, 64, 74
1, 1021223, Note_off_c, 0, 41, 61
1, 1021224, Control_c, 0, 64, 75
1, 1021237, Note_on_c, 0, 74, 72
1, 1021237, Note_off_c, 0, 53, 63
1, 1021239, Control_c, 0, 64, 76
1, 1021253, Note_off_c, 0, 69, 64
1, 1021254, Control_c, 0, 64, 77
1, 1021306, Control_c, 0, 64, 75
1, 1021321, Control_c, 0, 64, 68
1, 1021326, Note_off_c, 0, 74, 62
1, 1021335, Control_c, 0, 64, 52
1, 1021347, Note_on_c, 0, 55, 90
1, 1021347, Note_on_c, 0, 77, 78
1, 1021350, Note_on_c, 0, 43, 90
1, 1021350, Control_c, 0, 64, 0
1, 1021392, Note_off_c, 0, 55, 65
1, 1021404, Note_off_c, 0, 43, 63
1, 1021425, Note_on_c, 0, 76, 73
1, 1021461, Note_off_c, 0, 77, 57
1, 1021516, Note_off_c, 0, 76, 57
1, 1021533, Note_on_c, 0, 69, 70
1, 1021534, Note_on_c, 0, 52, 85
1, 1021535, Note_on_c, 0, 40, 83
1, 1021566, Note_off_c, 0, 52, 66
1, 1021568, Note_off_c, 0, 40, 67
1, 1021626, Note_on_c, 0, 73, 70
1, 1021630, Note_off_c, 0, 69, 64
1, 1021687, Note_off_c, 0, 73, 60
1, 1021710, Note_on_c, 0, 74, 82
1, 1021718, Note_on_c, 0, 53, 91
1, 1021720, Note_on_c, 0, 41, 93
1, 1021747, Note_off_c, 0, 53, 67
1, 1021754, Note_off_c, 0, 41, 65
1, 1021788, Note_off_c, 0, 74, 60
1, 1021804, Note_on_c, 0, 69, 75
1, 1021887, Note_off_c, 0, 69, 64
1, 1021899, Note_on_c, 0, 49, 91
1, 1021904, Note_on_c, 0, 76, 82
1, 1021905, Note_on_c, 0, 37, 85
1, 1021924, Note_off_c, 0, 49, 65
1, 1021932, Note_off_c, 0, 37, 69
1, 1021979, Note_off_c, 0, 76, 62
1, 1022003, Note_on_c, 0, 69, 71
1, 1022078, Note_off_c, 0, 69, 63
1, 1022094, Note_on_c, 0, 77, 85
1, 1022104, Note_on_c, 0, 50, 89
1, 1022106, Note_on_c, 0, 38, 86
1, 1022139, Note_off_c, 0, 38, 67
1, 1022143, Note_off_c, 0, 50, 62
1, 1022150, Note_on_c, 0, 69, 69
1, 1022151, Note_off_c, 0, 77, 60
1, 1022280, Note_on_c, 0, 80, 69
1, 1022286, Note_on_c, 0, 47, 92
1, 1022286, Note_on_c, 0, 35, 82
1, 1022298, Note_off_c, 0, 69, 64
1, 1022307, Note_off_c, 0, 35, 68
1, 1022324, Note_off_c, 0, 47, 66
1, 1022328, Note_on_c, 0, 36, 32
1, 1022329, Note_off_c, 0, 36, 127
1, 1022364, Note_off_c, 0, 80, 61
1, 1022374, Note_on_c, 0, 74, 73
1, 1022427, Note_off_c, 0, 74, 64
1, 1022489, Note_on_c, 0, 53, 86
1, 1022493, Note_on_c, 0, 81, 97
1, 1022500, Note_on_c, 0, 69, 92
1, 1022537, Note_off_c, 0, 53, 65
1, 1022584, Note_on_c, 0, 52, 80
1, 1022647, Note_off_c, 0, 52, 67
1, 1022683, Note_on_c, 0, 52, 81
1, 1022706, Note_off_c, 0, 69, 61
1, 1022735, Note_off_c, 0, 52, 66
1, 1022781, Note_on_c, 0, 50, 77
1, 1022802, Note_off_c, 0, 81, 55
1, 1022817, Note_off_c, 0, 50, 61
1, 1022882, Note_on_c, 0, 83, 99
1, 1022883, Note_on_c, 0, 50, 80
1, 1022889, Note_on_c, 0, 71, 88
1, 1022893, Control_c, 0, 64, 19
1, 1022907, Control_c, 0, 64, 30
1, 1022922, Control_c, 0, 64, 37
1, 1022932, Note_off_c, 0, 50, 53
1, 1022937, Control_c, 0, 64, 42
1, 1022952, Control_c, 0, 64, 46
1, 1022967, Control_c, 0, 64, 49
1, 1022968, Note_on_c, 0, 48, 81
1, 1022981, Control_c, 0, 64, 51
1, 1022996, Control_c, 0, 64, 52
1, 1023020, Note_off_c, 0, 48, 61
1, 1023026, Control_c, 0, 64, 52
1, 1023041, Control_c, 0, 64, 50
1, 1023055, Control_c, 0, 64, 50
1, 1023070, Control_c, 0, 64, 49
1, 1023071, Note_on_c, 0, 48, 77
1, 1023115, Control_c, 0, 64, 50
1, 1023117, Note_off_c, 0, 48, 57
1, 1023151, Note_on_c, 0, 47, 77
1, 1023160, Control_c, 0, 64, 49
1, 1023173, Note_off_c, 0, 47, 67
1, 1023178, Note_off_c, 0, 71, 58
1, 1023243, Note_off_c, 0, 83, 57
1, 1023248, Control_c, 0, 64, 48
1, 1023257, Note_on_c, 0, 47, 78
1, 1023263, Control_c, 0, 64, 47
1, 1023267, Note_on_c, 0, 84, 96
1, 1023273, Note_on_c, 0, 72, 85
1, 1023278, Control_c, 0, 64, 46
1, 1023292, Control_c, 0, 64, 46
1, 1023307, Control_c, 0, 64, 46
1, 1023321, Control_c, 0, 64, 47
1, 1023336, Control_c, 0, 64, 47
1, 1023342, Note_off_c, 0, 47, 55
1, 1023343, Note_on_c, 0, 45, 82
1, 1023351, Control_c, 0, 64, 48
1, 1023365, Control_c, 0, 64, 49
1, 1023380, Control_c, 0, 64, 50
1, 1023425, Note_off_c, 0, 45, 64
1, 1023425, Control_c, 0, 64, 51
1, 1023433, Note_on_c, 0, 40, 80
1, 1023440, Control_c, 0, 64, 51
1, 1023455, Control_c, 0, 64, 53
1, 1023470, Control_c, 0, 64, 54
1, 1023485, Control_c, 0, 64, 56
1, 1023500, Control_c, 0, 64, 58
1, 1023522, Control_c, 0, 64, 58
1, 1023529, Note_off_c, 0, 40, 64
1, 1023537, Control_c, 0, 64, 59
1, 1023538, Note_off_c, 0, 72, 63
1, 1023540, Note_on_c, 0, 45, 81
1, 1023552, Control_c, 0, 64, 60
1, 1023567, Control_c, 0, 64, 61
1, 1023583, Note_off_c, 0, 84, 60
1, 1023604, Note_off_c, 0, 45, 64
1, 1023611, Control_c, 0, 64, 60
1, 1023626, Control_c, 0, 64, 59
1, 1023635, Note_on_c, 0, 48, 82
1, 1023641, Control_c, 0, 64, 53
1, 1023648, Note_on_c, 0, 86, 91
1, 1023652, Note_on_c, 0, 74, 75
1, 1023656, Control_c, 0, 64, 21
1, 1023670, Control_c, 0, 64, 0
1, 1023675, Note_off_c, 0, 74, 68
1, 1023680, Note_off_c, 0, 86, 62
1, 1023738, Note_off_c, 0, 48, 58
1, 1023738, Note_on_c, 0, 47, 74
1, 1023833, Note_on_c, 0, 40, 70
1, 1023842, Note_on_c, 0, 71, 79
1, 1023845, Note_on_c, 0, 83, 85
1, 1023869, Note_off_c, 0, 47, 52
1, 1023874, Note_off_c, 0, 71, 63
1, 1023884, Note_off_c, 0, 83, 61
1, 1023934, Note_on_c, 0, 44, 60
1, 1023938, Note_off_c, 0, 40, 63
1, 1024015, Note_off_c, 0, 44, 60
1, 1024039, Note_on_c, 0, 84, 97
1, 1024045, Note_on_c, 0, 47, 78
1, 1024048, Note_on_c, 0, 72, 89
1, 1024070, Control_c, 0, 64, 17
1, 1024085, Control_c, 0, 64, 40
1, 1024100, Control_c, 0, 64, 49
1, 1024114, Control_c, 0, 64, 53
1, 1024129, Control_c, 0, 64, 56
1, 1024140, Note_on_c, 0, 45, 73
1, 1024144, Control_c, 0, 64, 57
1, 1024146, Note_off_c, 0, 47, 60
1, 1024159, Control_c, 0, 64, 57
1, 1024188, Control_c, 0, 64, 57
1, 1024214, Note_off_c, 0, 45, 64
1, 1024219, Note_on_c, 0, 40, 60
1, 1024301, Control_c, 0, 64, 57
1, 1024316, Control_c, 0, 64, 58
1, 1024319, Note_off_c, 0, 40, 64
1, 1024321, Note_on_c, 0, 45, 67
1, 1024322, Note_off_c, 0, 72, 63
1, 1024331, Control_c, 0, 64, 60
1, 1024345, Control_c, 0, 64, 62
1, 1024360, Control_c, 0, 64, 63
1, 1024368, Note_off_c, 0, 84, 61
1, 1024382, Note_off_c, 0, 45, 64
1, 1024400, Note_on_c, 0, 48, 83
1, 1024405, Control_c, 0, 64, 62
1, 1024413, Note_on_c, 0, 86, 88
1, 1024418, Note_on_c, 0, 74, 79
1, 1024419, Control_c, 0, 64, 60
1, 1024434, Control_c, 0, 64, 55
1, 1024449, Control_c, 0, 64, 46
1, 1024464, Control_c, 0, 64, 33
1, 1024465, Note_off_c, 0, 86, 62
1, 1024468, Note_off_c, 0, 74, 65
1, 1024479, Control_c, 0, 64, 20
1, 1024491, Note_on_c, 0, 47, 80
1, 1024493, Control_c, 0, 64, 19
1, 1024495, Note_off_c, 0, 48, 62
1, 1024523, Control_c, 0, 64, 20
1, 1024537, Control_c, 0, 64, 23
1, 1024552, Control_c, 0, 64, 23
1, 1024567, Control_c, 0, 64, 25
1, 1024582, Control_c, 0, 64, 28
1, 1024585, Note_on_c, 0, 40, 67
1, 1024593, Note_on_c, 0, 83, 82
1, 1024596, Note_on_c, 0, 71, 84
1, 1024597, Control_c, 0, 64, 32
1, 1024612, Control_c, 0, 64, 36
1, 1024626, Control_c, 0, 64, 42
1, 1024641, Control_c, 0, 64, 47
1, 1024643, Note_off_c, 0, 47, 60
1, 1024656, Control_c, 0, 64, 51
1, 1024660, Note_off_c, 0, 71, 61
1, 1024671, Control_c, 0, 64, 55
1, 1024677, Note_on_c, 0, 44, 67
1, 1024686, Control_c, 0, 64, 59
1, 1024701, Control_c, 0, 64, 62
1, 1024708, Note_off_c, 0, 83, 57
1, 1024713, Note_off_c, 0, 40, 65
1, 1024716, Control_c, 0, 64, 63
1, 1024745, Control_c, 0, 64, 61
1, 1024749, Note_off_c, 0, 44, 59
1, 1024760, Control_c, 0, 64, 59
1, 1024775, Control_c, 0, 64, 56
1, 1024784, Note_on_c, 0, 84, 90
1, 1024785, Note_on_c, 0, 45, 88
1, 1024790, Control_c, 0, 64, 55
1, 1024790, Note_on_c, 0, 72, 80
1, 1024835, Note_off_c, 0, 84, 65
1, 1024840, Note_off_c, 0, 72, 66
1, 1024850, Control_c, 0, 64, 55
1, 1024861, Note_off_c, 0, 45, 64
1, 1024864, Control_c, 0, 64, 53
1, 1024879, Note_on_c, 0, 48, 85
1, 1024879, Control_c, 0, 64, 52
1, 1024894, Control_c, 0, 64, 51
1, 1024909, Control_c, 0, 64, 51
1, 1024919, Note_off_c, 0, 48, 61
1, 1024924, Control_c, 0, 64, 50
1, 1024938, Control_c, 0, 64, 50
1, 1024953, Control_c, 0, 64, 49
1, 1024972, Note_on_c, 0, 47, 83
1, 1024978, Note_on_c, 0, 80, 79
1, 1024984, Note_on_c, 0, 68, 79
1, 1024998, Control_c, 0, 64, 50
1, 1025020, Control_c, 0, 64, 49
1, 1025024, Note_off_c, 0, 68, 60
1, 1025035, Control_c, 0, 64, 49
1, 1025051, Note_off_c, 0, 80, 60
1, 1025065, Control_c, 0, 64, 47
1, 1025076, Note_off_c, 0, 47, 64
1, 1025079, Control_c, 0, 64, 43
1, 1025081, Note_on_c, 0, 50, 81
1, 1025095, Control_c, 0, 64, 34
1, 1025110, Control_c, 0, 64, 0
1, 1025166, Note_on_c, 0, 48, 87
1, 1025175, Note_on_c, 0, 81, 88
1, 1025179, Note_off_c, 0, 50, 60
1, 1025198, Note_on_c, 0, 69, 55
1, 1025199, Note_on_c, 0, 67, 60
1, 1025224, Note_off_c, 0, 67, 65
1, 1025227, Note_off_c, 0, 81, 60
1, 1025228, Note_off_c, 0, 69, 68
1, 1025244, Note_off_c, 0, 48, 60
1, 1025259, Note_on_c, 0, 52, 84
1, 1025300, Note_off_c, 0, 52, 64
1, 1025332, Control_c, 0, 64, 41
1, 1025347, Control_c, 0, 64, 52
1, 1025352, Note_on_c, 0, 53, 76
1, 1025361, Control_c, 0, 64, 58
1, 1025370, Note_on_c, 0, 65, 71
1, 1025376, Control_c, 0, 64, 61
1, 1025378, Note_on_c, 0, 77, 76
1, 1025384, Note_on_c, 0, 67, 67
1, 1025391, Control_c, 0, 64, 63
1, 1025406, Control_c, 0, 64, 65
1, 1025407, Note_off_c, 0, 67, 60
1, 1025418, Note_off_c, 0, 65, 63
1, 1025421, Control_c, 0, 64, 66
1, 1025435, Control_c, 0, 64, 68
1, 1025450, Note_off_c, 0, 53, 66
1, 1025450, Note_off_c, 0, 77, 62
1, 1025450, Control_c, 0, 64, 70
1, 1025451, Note_on_c, 0, 57, 77
1, 1025465, Control_c, 0, 64, 72
1, 1025472, Note_off_c, 0, 57, 65
1, 1025480, Control_c, 0, 64, 73
1, 1025509, Control_c, 0, 64, 72
1, 1025524, Control_c, 0, 64, 68
1, 1025539, Control_c, 0, 64, 62
1, 1025554, Control_c, 0, 64, 28
1, 1025568, Control_c, 0, 64, 0
1, 1025582, Note_on_c, 0, 52, 96
1, 1025583, Note_on_c, 0, 40, 89
1, 1025584, Note_on_c, 0, 76, 91
1, 1025653, Note_off_c, 0, 76, 63
1, 1025688, Note_on_c, 0, 89, 75
1, 1025722, Note_off_c, 0, 89, 63
1, 1025768, Control_c, 0, 64, 23
1, 1025779, Note_on_c, 0, 89, 75
1, 1025783, Control_c, 0, 64, 41
1, 1025798, Control_c, 0, 64, 49
1, 1025813, Control_c, 0, 64, 51
1, 1025828, Control_c, 0, 64, 51
1, 1025832, Note_off_c, 0, 89, 66
1, 1025843, Control_c, 0, 64, 51
1, 1025857, Control_c, 0, 64, 51
1, 1025870, Note_on_c, 0, 88, 88
1, 1025872, Control_c, 0, 64, 53
1, 1025882, Note_off_c, 0, 40, 64
1, 1025883, Note_off_c, 0, 52, 64
1, 1025887, Control_c, 0, 64, 55
1, 1025903, Control_c, 0, 64, 56
1, 1025913, Note_off_c, 0, 88, 65
1, 1025917, Control_c, 0, 64, 56
1, 1025932, Control_c, 0, 64, 53
1, 1025947, Control_c, 0, 64, 47
1, 1025962, Control_c, 0, 64, 26
1, 1025975, Note_on_c, 0, 88, 91
1, 1025977, Control_c, 0, 64, 0
1, 1025981, Note_on_c, 0, 42, 82
1, 1025981, Note_on_c, 0, 54, 99
1, 1026030, Note_off_c, 0, 88, 59
1, 1026065, Note_on_c, 0, 86, 81
1, 1026110, Note_off_c, 0, 86, 64
1, 1026159, Note_on_c, 0, 86, 82
1, 1026219, Note_off_c, 0, 86, 61
1, 1026248, Note_on_c, 0, 84, 84
1, 1026272, Note_off_c, 0, 42, 62
1, 1026281, Note_off_c, 0, 54, 60
1, 1026288, Note_off_c, 0, 84, 63
1, 1026347, Note_on_c, 0, 56, 95
1, 1026347, Note_on_c, 0, 84, 88
1, 1026349, Note_on_c, 0, 44, 83
1, 1026404, Note_on_c, 0, 43, 20
1, 1026421, Control_c, 0, 64, 51
1, 1026427, Note_on_c, 0, 83, 82
1, 1026436, Note_off_c, 0, 84, 62
1, 1026436, Control_c, 0, 64, 63
1, 1026451, Control_c, 0, 64, 64
1, 1026453, Note_off_c, 0, 43, 29
1, 1026490, Note_off_c, 0, 83, 59
1, 1026522, Note_on_c, 0, 76, 81
1, 1026566, Note_off_c, 0, 44, 64
1, 1026573, Note_off_c, 0, 56, 64
1, 1026577, Control_c, 0, 64, 63
1, 1026591, Control_c, 0, 64, 58
1, 1026606, Control_c, 0, 64, 19
1, 1026617, Note_on_c, 0, 83, 81
1, 1026617, Note_off_c, 0, 76, 54
1, 1026621, Control_c, 0, 64, 0
1, 1026714, Note_off_c, 0, 83, 58
1, 1026719, Note_on_c, 0, 86, 78
1, 1026727, Note_on_c, 0, 57, 97
1, 1026730, Note_on_c, 0, 45, 96
1, 1026759, Note_off_c, 0, 45, 67
1, 1026761, Note_off_c, 0, 57, 65
1, 1026818, Note_on_c, 0, 84, 78
1, 1026818, Note_off_c, 0, 86, 60
1, 1026874, Note_off_c, 0, 84, 63
1, 1026925, Note_on_c, 0, 81, 76
1, 1026936, Note_on_c, 0, 53, 93
1, 1026942, Note_on_c, 0, 41, 86
1, 1026987, Note_off_c, 0, 53, 67
1, 1026994, Note_off_c, 0, 41, 64
1, 1027018, Note_on_c, 0, 93, 91
1, 1027042, Note_off_c, 0, 93, 63
1, 1027044, Note_off_c, 0, 81, 61
1, 1027172, Note_on_c, 0, 40, 85
1, 1027177, Note_on_c, 0, 76, 95
1, 1027184, Note_on_c, 0, 64, 84
1, 1027239, Note_off_c, 0, 40, 65
1, 1027243, Control_c, 0, 64, 38
1, 1027264, Control_c, 0, 64, 41
1, 1027276, Note_on_c, 0, 53, 82
1, 1027279, Control_c, 0, 64, 42
1, 1027294, Control_c, 0, 64, 45
1, 1027309, Control_c, 0, 64, 49
1, 1027323, Note_off_c, 0, 53, 66
1, 1027324, Control_c, 0, 64, 50
1, 1027339, Control_c, 0, 64, 50
1, 1027354, Control_c, 0, 64, 52
1, 1027369, Control_c, 0, 64, 56
1, 1027377, Note_off_c, 0, 76, 65
1, 1027381, Note_on_c, 0, 53, 69
1, 1027384, Control_c, 0, 64, 60
1, 1027399, Control_c, 0, 64, 64
1, 1027407, Note_off_c, 0, 64, 64
1, 1027413, Control_c, 0, 64, 65
1, 1027428, Control_c, 0, 64, 66
1, 1027443, Control_c, 0, 64, 67
1, 1027446, Note_off_c, 0, 53, 64
1, 1027456, Note_on_c, 0, 52, 79
1, 1027458, Control_c, 0, 64, 67
1, 1027472, Control_c, 0, 64, 68
1, 1027488, Note_off_c, 0, 52, 66
1, 1027488, Control_c, 0, 64, 68
1, 1027518, Control_c, 0, 64, 67
1, 1027533, Control_c, 0, 64, 63
1, 1027548, Control_c, 0, 64, 37
1, 1027560, Note_on_c, 0, 52, 90
1, 1027561, Note_on_c, 0, 78, 93
1, 1027562, Control_c, 0, 64, 0
1, 1027564, Note_on_c, 0, 66, 93
1, 1027608, Note_off_c, 0, 52, 61
1, 1027648, Note_on_c, 0, 50, 86
1, 1027666, Control_c, 0, 64, 60
1, 1027681, Control_c, 0, 64, 69
1, 1027695, Control_c, 0, 64, 76
1, 1027698, Note_off_c, 0, 50, 64
1, 1027707, Note_off_c, 0, 78, 63
1, 1027710, Control_c, 0, 64, 77
1, 1027721, Note_off_c, 0, 66, 58
1, 1027747, Note_on_c, 0, 50, 79
1, 1027827, Note_on_c, 0, 48, 86
1, 1027834, Note_off_c, 0, 50, 58
1, 1027870, Note_off_c, 0, 48, 62
1, 1027873, Control_c, 0, 64, 73
1, 1027887, Control_c, 0, 64, 65
1, 1027893, Poly_aftertouch_c, 0, 80, 0
1, 1027902, Control_c, 0, 64, 19
1, 1027917, Control_c, 0, 64, 0
1, 1027939, Note_on_c, 0, 80, 88
1, 1027944, Note_on_c, 0, 48, 85
1, 1027946, Note_on_c, 0, 68, 88
1, 1028028, Note_on_c, 0, 47, 82
1, 1028042, Note_off_c, 0, 48, 58
1, 1028043, Control_c, 0, 64, 44
1, 1028058, Control_c, 0, 64, 55
1, 1028073, Control_c, 0, 64, 60
1, 1028087, Control_c, 0, 64, 62
1, 1028102, Control_c, 0, 64, 64
1, 1028117, Control_c, 0, 64, 65
1, 1028129, Note_on_c, 0, 40, 84
1, 1028132, Control_c, 0, 64, 66
1, 1028135, Note_off_c, 0, 47, 63
1, 1028154, Note_off_c, 0, 68, 60
1, 1028192, Control_c, 0, 64, 66
1, 1028206, Control_c, 0, 64, 67
1, 1028215, Note_on_c, 0, 47, 88
1, 1028221, Control_c, 0, 64, 67
1, 1028222, Note_off_c, 0, 40, 65
1, 1028236, Control_c, 0, 64, 68
1, 1028266, Control_c, 0, 64, 68
1, 1028275, Note_off_c, 0, 80, 35
1, 1028292, Note_off_c, 0, 47, 60
1, 1028296, Control_c, 0, 64, 68
1, 1028311, Control_c, 0, 64, 64
1, 1028317, Note_on_c, 0, 81, 88
1, 1028318, Note_on_c, 0, 69, 92
1, 1028321, Note_on_c, 0, 50, 79
1, 1028326, Control_c, 0, 64, 49
1, 1028341, Control_c, 0, 64, 0
1, 1028360, Note_off_c, 0, 81, 63
1, 1028364, Note_off_c, 0, 69, 65
1, 1028370, Note_off_c, 0, 50, 64
1, 1028410, Note_on_c, 0, 48, 81
1, 1028490, Note_on_c, 0, 45, 75
1, 1028497, Note_on_c, 0, 77, 89
1, 1028509, Note_on_c, 0, 65, 81
1, 1028518, Control_c, 0, 64, 40
1, 1028531, Note_off_c, 0, 48, 61
1, 1028533, Control_c, 0, 64, 39
1, 1028548, Control_c, 0, 64, 0
1, 1028562, Note_off_c, 0, 45, 65
1, 1028580, Note_off_c, 0, 65, 56
1, 1028594, Note_on_c, 0, 55, 56
1, 1028605, Note_off_c, 0, 77, 54
1, 1028617, Note_off_c, 0, 55, 62
1, 1028689, Note_on_c, 0, 56, 85
1, 1028689, Note_on_c, 0, 52, 84
1, 1028695, Note_on_c, 0, 64, 76
1, 1028696, Note_on_c, 0, 76, 81
1, 1028704, Note_on_c, 0, 71, 75
1, 1028710, Note_on_c, 0, 75, 56
1, 1028713, Note_off_c, 0, 52, 72
1, 1028717, Note_off_c, 0, 64, 71
1, 1028719, Note_off_c, 0, 56, 63
1, 1028737, Note_off_c, 0, 75, 36
1, 1028741, Note_off_c, 0, 71, 58
1, 1028760, Note_off_c, 0, 76, 65
1, 1028891, Note_on_c, 0, 56, 88
1, 1028891, Note_on_c, 0, 76, 89
1, 1028904, Note_on_c, 0, 71, 65
1, 1028917, Note_on_c, 0, 72, 55
1, 1028930, Note_off_c, 0, 71, 62
1, 1028937, Note_off_c, 0, 72, 61
1, 1028955, Note_off_c, 0, 56, 60
1, 1028970, Note_off_c, 0, 76, 59
1, 1028981, Note_on_c, 0, 68, 79
1, 1029024, Note_off_c, 0, 68, 60
1, 1029078, Note_on_c, 0, 72, 77
1, 1029080, Note_on_c, 0, 75, 87
1, 1029086, Note_on_c, 0, 57, 89
1, 1029107, Note_off_c, 0, 75, 65
1, 1029110, Note_off_c, 0, 72, 64
1, 1029172, Note_on_c, 0, 69, 58
1, 1029181, Note_off_c, 0, 57, 62
1, 1029193, Note_off_c, 0, 69, 65
1, 1029291, Note_on_c, 0, 93, 101
1, 1029297, Note_on_c, 0, 81, 96
1, 1029297, Note_on_c, 0, 41, 92
1, 1029301, Note_on_c, 0, 87, 85
1, 1029339, Note_off_c, 0, 81, 62
1, 1029352, Note_off_c, 0, 87, 62
1, 1029372, Note_off_c, 0, 93, 59
1, 1029386, Control_c, 0, 64, 18
1, 1029392, Note_on_c, 0, 53, 70
1, 1029397, Note_off_c, 0, 41, 62
1, 1029401, Control_c, 0, 64, 0
1, 1029433, Note_off_c, 0, 53, 62
1, 1029489, Note_on_c, 0, 92, 91
1, 1029490, Note_on_c, 0, 40, 91
1, 1029490, Note_on_c, 0, 80, 96
1, 1029492, Note_on_c, 0, 88, 72
1, 1029512, Control_c, 0, 64, 58
1, 1029526, Note_on_c, 0, 93, 52
1, 1029527, Control_c, 0, 64, 66
1, 1029530, Note_on_c, 0, 82, 47
1, 1029533, Note_off_c, 0, 88, 61
1, 1029537, Note_off_c, 0, 92, 67
1, 1029541, Control_c, 0, 64, 67
1, 1029551, Note_off_c, 0, 93, 39
1, 1029557, Note_off_c, 0, 82, 37
1, 1029558, Note_off_c, 0, 40, 66
1, 1029572, Note_on_c, 0, 52, 70
1, 1029573, Note_off_c, 0, 80, 62
1, 1029586, Control_c, 0, 64, 66
1, 1029591, Note_off_c, 0, 52, 67
1, 1029601, Control_c, 0, 64, 64
1, 1029615, Control_c, 0, 64, 60
1, 1029630, Control_c, 0, 64, 52
1, 1029645, Control_c, 0, 64, 21
1, 1029659, Control_c, 0, 64, 0
1, 1029687, Note_on_c, 0, 56, 86
1, 1029688, Note_on_c, 0, 71, 69
1, 1029698, Note_on_c, 0, 76, 55
1, 1029706, Note_on_c, 0, 77, 56
1, 1029719, Note_off_c, 0, 71, 64
1, 1029754, Note_off_c, 0, 56, 61
1, 1029772, Note_on_c, 0, 68, 80
1, 1029773, Note_off_c, 0, 77, 49
1, 1029789, Note_off_c, 0, 76, 50
1, 1029807, Note_off_c, 0, 68, 60
1, 1029867, Note_on_c, 0, 75, 95
1, 1029871, Note_on_c, 0, 72, 84
1, 1029873, Note_on_c, 0, 57, 91
1, 1029893, Note_off_c, 0, 72, 69
1, 1029907, Note_off_c, 0, 75, 65
1, 1029964, Note_off_c, 0, 57, 48
1, 1029965, Note_on_c, 0, 69, 77
1, 1029986, Note_off_c, 0, 69, 71
1, 1030072, Note_on_c, 0, 93, 101
1, 1030075, Control_c, 0, 64, 28
1, 1030078, Note_on_c, 0, 81, 94
1, 1030084, Note_on_c, 0, 87, 85
1, 1030088, Note_on_c, 0, 41, 92
1, 1030090, Control_c, 0, 64, 43
1, 1030105, Control_c, 0, 64, 46
1, 1030120, Control_c, 0, 64, 47
1, 1030121, Note_off_c, 0, 87, 61
1, 1030124, Note_off_c, 0, 93, 56
1, 1030125, Note_off_c, 0, 81, 61
1, 1030135, Control_c, 0, 64, 48
1, 1030149, Control_c, 0, 64, 51
1, 1030164, Control_c, 0, 64, 55
1, 1030179, Control_c, 0, 64, 56
1, 1030186, Note_on_c, 0, 53, 80
1, 1030194, Control_c, 0, 64, 57
1, 1030209, Control_c, 0, 64, 58
1, 1030211, Note_off_c, 0, 41, 61
1, 1030224, Control_c, 0, 64, 60
1, 1030227, Note_off_c, 0, 53, 62
1, 1030238, Control_c, 0, 64, 61
1, 1030260, Control_c, 0, 64, 60
1, 1030275, Control_c, 0, 64, 43
1, 1030290, Control_c, 0, 64, 0
1, 1030308, Note_on_c, 0, 92, 95
1, 1030314, Note_on_c, 0, 80, 95
1, 1030318, Note_on_c, 0, 40, 89
1, 1030318, Note_on_c, 0, 52, 92
1, 1030320, Note_on_c, 0, 88, 71
1, 1030353, Note_off_c, 0, 88, 63
1, 1030360, Note_off_c, 0, 92, 65
1, 1030364, Control_c, 0, 64, 24
1, 1030369, Note_off_c, 0, 80, 60
1, 1030379, Control_c, 0, 64, 61
1, 1030394, Control_c, 0, 64, 66
1, 1030453, Control_c, 0, 64, 65
1, 1030453, Control_c, 0, 67, 8
1, 1030468, Control_c, 0, 67, 11
1, 1030482, Control_c, 0, 67, 15
1, 1030497, Control_c, 0, 67, 18
1, 1030505, Note_on_c, 0, 76, 63
1, 1030512, Control_c, 0, 67, 21
1, 1030527, Control_c, 0, 64, 65
1, 1030527, Control_c, 0, 67, 24
1, 1030542, Control_c, 0, 67, 26
1, 1030556, Control_c, 0, 64, 64
1, 1030556, Control_c, 0, 67, 28
1, 1030571, Control_c, 0, 64, 63
1, 1030571, Control_c, 0, 67, 29
1, 1030586, Control_c, 0, 64, 61
1, 1030586, Control_c, 0, 67, 30
1, 1030594, Note_on_c, 0, 88, 69
1, 1030597, Note_off_c, 0, 40, 63
1, 1030600, Note_off_c, 0, 76, 60
1, 1030601, Control_c, 0, 64, 58
1, 1030601, Control_c, 0, 67, 32
1, 1030615, Control_c, 0, 64, 50
1, 1030615, Control_c, 0, 67, 36
1, 1030630, Control_c, 0, 64, 36
1, 1030630, Control_c, 0, 67, 42
1, 1030645, Control_c, 0, 64, 0
1, 1030645, Control_c, 0, 67, 49
1, 1030660, Control_c, 0, 67, 58
1, 1030663, Note_off_c, 0, 52, 62
1, 1030672, Note_on_c, 0, 89, 76
1, 1030676, Control_c, 0, 67, 70
1, 1030681, Note_off_c, 0, 88, 63
1, 1030691, Control_c, 0, 67, 82
1, 1030705, Control_c, 0, 67, 95
1, 1030720, Control_c, 0, 67, 107
1, 1030735, Control_c, 0, 67, 116
1, 1030750, Control_c, 0, 67, 123
1, 1030765, Note_on_c, 0, 88, 70
1, 1030765, Control_c, 0, 67, 127
1, 1030800, Note_off_c, 0, 89, 36
1, 1030828, Note_off_c, 0, 88, 63
1, 1030849, Note_on_c, 0, 76, 70
1, 1030936, Note_off_c, 0, 76, 62
1, 1030946, Note_on_c, 0, 88, 52
1, 1031008, Note_on_c, 0, 89, 21
1, 1031024, Note_off_c, 0, 88, 52
1, 1031110, Note_off_c, 0, 89, 54
1, 1031112, Note_on_c, 0, 57, 50
1, 1031116, Note_on_c, 0, 60, 54
1, 1031127, Note_on_c, 0, 88, 70
1, 1031143, Control_c, 0, 67, 127
1, 1031158, Control_c, 0, 67, 124
1, 1031172, Control_c, 0, 67, 122
1, 1031187, Control_c, 0, 67, 121
1, 1031202, Control_c, 0, 67, 120
1, 1031206, Note_on_c, 0, 89, 74
1, 1031208, Note_off_c, 0, 88, 59
1, 1031217, Control_c, 0, 67, 119
1, 1031263, Note_off_c, 0, 89, 64
1, 1031301, Note_on_c, 0, 86, 66
1, 1031388, Note_off_c, 0, 86, 61
1, 1031390, Note_on_c, 0, 88, 65
1, 1031480, Note_on_c, 0, 84, 70
1, 1031481, Note_off_c, 0, 60, 54
1, 1031482, Note_on_c, 0, 62, 59
1, 1031493, Note_on_c, 0, 59, 59
1, 1031494, Note_off_c, 0, 88, 62
1, 1031516, Note_off_c, 0, 57, 54
1, 1031559, Control_c, 0, 67, 119
1, 1031573, Note_on_c, 0, 86, 69
1, 1031584, Note_off_c, 0, 84, 57
1, 1031637, Note_off_c, 0, 86, 62
1, 1031671, Note_on_c, 0, 83, 61
1, 1031766, Note_on_c, 0, 84, 65
1, 1031774, Note_off_c, 0, 83, 53
1, 1031833, Control_c, 0, 67, 120
1, 1031848, Control_c, 0, 67, 121
1, 1031862, Control_c, 0, 67, 123
1, 1031877, Control_c, 0, 67, 124
1, 1031884, Note_on_c, 0, 83, 64
1, 1031885, Note_off_c, 0, 84, 53
1, 1031892, Control_c, 0, 67, 126
1, 1031901, Note_off_c, 0, 62, 62
1, 1031906, Note_on_c, 0, 60, 64
1, 1031907, Control_c, 0, 67, 127
1, 1031914, Note_on_c, 0, 64, 61
1, 1031922, Control_c, 0, 67, 127
1, 1031934, Note_off_c, 0, 59, 61
1, 1031946, Note_off_c, 0, 83, 60
1, 1031958, Note_on_c, 0, 81, 63
1, 1032010, Note_off_c, 0, 81, 60
1, 1032076, Note_on_c, 0, 76, 51
1, 1032155, Note_on_c, 0, 81, 59
1, 1032181, Note_off_c, 0, 76, 57
1, 1032246, Note_off_c, 0, 81, 55
1, 1032255, Note_off_c, 0, 60, 61
1, 1032263, Note_on_c, 0, 84, 59
1, 1032275, Note_on_c, 0, 62, 61
1, 1032367, Note_on_c, 0, 83, 51
1, 1032381, Note_off_c, 0, 84, 52
1, 1032431, Note_off_c, 0, 83, 54
1, 1032434, Note_off_c, 0, 64, 54
1, 1032457, Note_on_c, 0, 59, 50
1, 1032478, Note_on_c, 0, 76, 52
1, 1032573, Note_on_c, 0, 80, 60
1, 1032634, Note_off_c, 0, 76, 53
1, 1032663, Note_off_c, 0, 62, 60
1, 1032667, Note_on_c, 0, 60, 59
1, 1032672, Note_on_c, 0, 83, 61
1, 1032675, Note_on_c, 0, 64, 55
1, 1032677, Note_off_c, 0, 80, 56
1, 1032689, Note_off_c, 0, 59, 58
1, 1032752, Note_on_c, 0, 81, 64
1, 1032755, Note_off_c, 0, 83, 57
1, 1032800, Note_off_c, 0, 81, 56
1, 1032832, Note_on_c, 0, 76, 64
1, 1032926, Note_on_c, 0, 81, 59
1, 1032961, Note_off_c, 0, 76, 53
1, 1032992, Note_off_c, 0, 60, 60
1, 1033016, Note_on_c, 0, 62, 61
1, 1033027, Note_on_c, 0, 84, 61
1, 1033036, Note_off_c, 0, 81, 54
1, 1033123, Note_on_c, 0, 83, 62
1, 1033166, Note_off_c, 0, 84, 56
1, 1033196, Note_off_c, 0, 83, 59
1, 1033216, Note_on_c, 0, 59, 54
1, 1033223, Note_off_c, 0, 64, 39
1, 1033226, Note_on_c, 0, 76, 57
1, 1033334, Note_on_c, 0, 83, 53
1, 1033432, Note_off_c, 0, 76, 30
1, 1033456, Note_on_c, 0, 61, 63
1, 1033471, Note_on_c, 0, 80, 60
1, 1033471, Note_off_c, 0, 62, 55
1, 1033477, Note_off_c, 0, 59, 49
1, 1033480, Note_off_c, 0, 83, 56
1, 1033492, Note_on_c, 0, 64, 47
1, 1033563, Note_on_c, 0, 81, 57
1, 1033581, Note_off_c, 0, 80, 54
1, 1033603, Note_off_c, 0, 81, 59
1, 1033654, Note_on_c, 0, 76, 52
1, 1033756, Note_on_c, 0, 81, 44
1, 1033775, Note_off_c, 0, 76, 46
1, 1033837, Note_off_c, 0, 61, 60
1, 1033845, Note_on_c, 0, 85, 56
1, 1033850, Note_off_c, 0, 81, 50
1, 1033861, Note_on_c, 0, 62, 50
1, 1033933, Note_on_c, 0, 83, 56
1, 1034016, Note_off_c, 0, 83, 56
1, 1034022, Note_off_c, 0, 85, 36
1, 1034049, Note_on_c, 0, 76, 52
1, 1034067, Note_on_c, 0, 59, 41
1, 1034076, Note_off_c, 0, 64, 50
1, 1034152, Note_on_c, 0, 83, 53
1, 1034174, Note_off_c, 0, 76, 48
1, 1034258, Note_off_c, 0, 62, 57
1, 1034270, Note_off_c, 0, 59, 55
1, 1034273, Note_off_c, 0, 83, 57
1, 1034274, Note_on_c, 0, 61, 48
1, 1034276, Note_on_c, 0, 64, 43
1, 1034282, Note_on_c, 0, 80, 51
1, 1034355, Note_on_c, 0, 81, 58
1, 1034371, Note_off_c, 0, 80, 55
1, 1034395, Note_off_c, 0, 81, 61
1, 1034449, Note_on_c, 0, 76, 55
1, 1034551, Note_on_c, 0, 81, 46
1, 1034597, Note_off_c, 0, 76, 38
1, 1034610, Note_off_c, 0, 61, 59
1, 1034632, Note_off_c, 0, 81, 56
1, 1034633, Note_on_c, 0, 85, 62
1, 1034640, Note_on_c, 0, 62, 52
1, 1034717, Note_on_c, 0, 83, 59
1, 1034779, Note_off_c, 0, 83, 49
1, 1034813, Note_off_c, 0, 85, 34
1, 1034827, Note_on_c, 0, 76, 60
1, 1034837, Note_on_c, 0, 59, 48
1, 1034850, Note_off_c, 0, 62, 59
1, 1034870, Note_off_c, 0, 59, 64
1, 1034875, Note_off_c, 0, 64, 43
1, 1034936, Note_on_c, 0, 80, 48
1, 1034970, Note_off_c, 0, 76, 55
1, 1034991, Note_off_c, 0, 80, 54
1, 1035020, Note_on_c, 0, 60, 62
1, 1035021, Note_on_c, 0, 64, 64
1, 1035040, Note_on_c, 0, 81, 65
1, 1035041, Note_off_c, 0, 60, 64
1, 1035048, Note_off_c, 0, 64, 67
1, 1035083, Note_off_c, 0, 81, 58
1, 1035137, Note_on_c, 0, 76, 58
1, 1035206, Note_on_c, 0, 64, 63
1, 1035209, Note_on_c, 0, 62, 58
1, 1035221, Note_on_c, 0, 80, 68
1, 1035230, Note_off_c, 0, 62, 60
1, 1035233, Note_off_c, 0, 64, 66
1, 1035280, Note_off_c, 0, 76, 58
1, 1035305, Note_off_c, 0, 80, 52
1, 1035334, Note_on_c, 0, 83, 54
1, 1035393, Note_on_c, 0, 60, 65
1, 1035394, Note_on_c, 0, 64, 68
1, 1035416, Note_on_c, 0, 81, 74
1, 1035417, Note_off_c, 0, 60, 63
1, 1035419, Note_off_c, 0, 64, 69
1, 1035426, Note_off_c, 0, 83, 60
1, 1035468, Note_off_c, 0, 81, 61
1, 1035520, Note_on_c, 0, 76, 61
1, 1035590, Note_on_c, 0, 64, 70
1, 1035599, Note_on_c, 0, 62, 56
1, 1035604, Note_on_c, 0, 80, 70
1, 1035615, Note_off_c, 0, 64, 70
1, 1035621, Note_off_c, 0, 62, 59
1, 1035674, Note_off_c, 0, 76, 55
1, 1035700, Note_on_c, 0, 88, 69
1, 1035718, Note_off_c, 0, 80, 61
1, 1035780, Note_on_c, 0, 64, 66
1, 1035783, Note_on_c, 0, 60, 65
1, 1035792, Note_on_c, 0, 81, 74
1, 1035803, Note_off_c, 0, 60, 64
1, 1035807, Note_off_c, 0, 64, 68
1, 1035811, Note_off_c, 0, 88, 57
1, 1035814, Control_c, 0, 67, 122
1, 1035829, Control_c, 0, 67, 100
1, 1035844, Control_c, 0, 67, 72
1, 1035858, Control_c, 0, 67, 45
1, 1035862, Note_off_c, 0, 81, 55
1, 1035873, Control_c, 0, 67, 21
1, 1035888, Control_c, 0, 67, 0
1, 1035890, Note_on_c, 0, 76, 58
1, 1035971, Note_on_c, 0, 80, 64
1, 1035972, Note_on_c, 0, 62, 62
1, 1035975, Note_on_c, 0, 52, 61
1, 1035992, Note_off_c, 0, 62, 63
1, 1035999, Note_off_c, 0, 52, 67
1, 1036010, Note_off_c, 0, 76, 48
1, 1036040, Note_off_c, 0, 80, 60
1, 1036078, Note_on_c, 0, 83, 56
1, 1036171, Note_on_c, 0, 81, 79
1, 1036176, Note_on_c, 0, 60, 56
1, 1036187, Note_on_c, 0, 57, 50
1, 1036191, Note_off_c, 0, 83, 58
1, 1036194, Note_off_c, 0, 81, 67
1, 1036207, Note_off_c, 0, 60, 63
1, 1036225, Note_off_c, 0, 57, 63
1, 1036582, Note_on_c, 0, 48, 94
1, 1036583, Note_on_c, 0, 60, 96
1, 1036592, Control_c, 0, 64, 49
1, 1036607, Control_c, 0, 64, 62
1, 1036610, Note_on_c, 0, 62, 83
1, 1036617, Note_on_c, 0, 50, 79
1, 1036622, Control_c, 0, 64, 62
1, 1036634, Note_off_c, 0, 60, 64
1, 1036637, Control_c, 0, 64, 61
1, 1036645, Note_off_c, 0, 48, 64
1, 1036651, Control_c, 0, 64, 60
1, 1036666, Control_c, 0, 64, 59
1, 1036696, Note_off_c, 0, 62, 60
1, 1036696, Note_on_c, 0, 60, 81
1, 1036696, Control_c, 0, 64, 58
1, 1036711, Control_c, 0, 64, 55
1, 1036726, Control_c, 0, 64, 53
1, 1036739, Note_on_c, 0, 48, 66
1, 1036740, Note_off_c, 0, 50, 56
1, 1036741, Control_c, 0, 64, 52
1, 1036756, Control_c, 0, 64, 52
1, 1036770, Control_c, 0, 64, 51
1, 1036785, Control_c, 0, 64, 50
1, 1036800, Control_c, 0, 64, 48
1, 1036805, Note_on_c, 0, 59, 84
1, 1036815, Control_c, 0, 64, 46
1, 1036815, Note_on_c, 0, 47, 78
1, 1036827, Note_off_c, 0, 60, 60
1, 1036830, Control_c, 0, 64, 46
1, 1036874, Control_c, 0, 64, 45
1, 1036889, Control_c, 0, 64, 43
1, 1036894, Note_on_c, 0, 57, 85
1, 1036900, Note_on_c, 0, 45, 77
1, 1036904, Control_c, 0, 64, 38
1, 1036905, Note_off_c, 0, 48, 35
1, 1036918, Control_c, 0, 64, 30
1, 1036930, Note_off_c, 0, 59, 63
1, 1036933, Control_c, 0, 64, 18
1, 1036948, Control_c, 0, 64, 0
1, 1036954, Note_off_c, 0, 47, 54
1, 1036979, Note_on_c, 0, 55, 93
1, 1036987, Note_on_c, 0, 43, 87
1, 1037000, Note_off_c, 0, 57, 64
1, 1037009, Note_off_c, 0, 45, 65
1, 1037033, Note_off_c, 0, 55, 66
1, 1037043, Note_off_c, 0, 43, 63
1, 1037199, Note_on_c, 0, 64, 90
1, 1037199, Note_on_c, 0, 76, 99
1, 1037203, Note_on_c, 0, 40, 86
1, 1037206, Note_on_c, 0, 52, 83
1, 1037240, Note_off_c, 0, 40, 67
1, 1037240, Note_off_c, 0, 64, 67
1, 1037244, Note_off_c, 0, 52, 62
1, 1037244, Note_off_c, 0, 76, 67
1, 1037445, Control_c, 0, 64, 44
1, 1037456, Note_on_c, 0, 79, 101
1, 1037460, Note_on_c, 0, 67, 89
1, 1037460, Control_c, 0, 64, 60
1, 1037464, Note_on_c, 0, 43, 92
1, 1037464, Note_on_c, 0, 55, 88
1, 1037474, Control_c, 0, 64, 68
1, 1037489, Control_c, 0, 64, 78
1, 1037504, Control_c, 0, 64, 92
1, 1037514, Note_off_c, 0, 55, 62
1, 1037515, Note_off_c, 0, 43, 62
1, 1037519, Control_c, 0, 64, 113
1, 1037534, Control_c, 0, 64, 127
1, 1037744, Note_off_c, 0, 67, 56
1, 1037811, Note_off_c, 0, 79, 51
1, 1037867, Control_c, 0, 64, 81
1, 1037882, Note_on_c, 0, 76, 83
1, 1037882, Control_c, 0, 64, 61
1, 1037885, Note_on_c, 0, 52, 79
1, 1037886, Note_on_c, 0, 64, 85
1, 1037891, Note_on_c, 0, 40, 73
1, 1037897, Control_c, 0, 64, 0
1, 1037930, Note_off_c, 0, 40, 67
1, 1037931, Note_off_c, 0, 64, 64
1, 1037951, Note_off_c, 0, 52, 64
1, 1037952, Note_off_c, 0, 76, 62
1, 1038282, Control_c, 0, 64, 32
1, 1038297, Control_c, 0, 64, 60
1, 1038311, Note_on_c, 0, 81, 96
1, 1038312, Control_c, 0, 64, 64
1, 1038315, Note_on_c, 0, 48, 62
1, 1038322, Note_on_c, 0, 60, 56
1, 1038326, Note_on_c, 0, 57, 47
1, 1038327, Control_c, 0, 64, 65
1, 1038342, Control_c, 0, 64, 66
1, 1038357, Control_c, 0, 64, 67
1, 1038361, Note_off_c, 0, 81, 64
1, 1038371, Control_c, 0, 64, 68
1, 1038376, Note_off_c, 0, 57, 58
1, 1038386, Control_c, 0, 64, 69
1, 1038389, Note_off_c, 0, 48, 60
1, 1038395, Note_off_c, 0, 60, 54
1, 1038401, Control_c, 0, 64, 70
1, 1038512, Control_c, 0, 64, 70
1, 1038527, Control_c, 0, 64, 68
1, 1038542, Control_c, 0, 64, 64
1, 1038547, Note_on_c, 0, 50, 65
1, 1038554, Note_on_c, 0, 81, 92
1, 1038556, Control_c, 0, 64, 56
1, 1038558, Note_on_c, 0, 60, 47
1, 1038571, Control_c, 0, 64, 14
1, 1038584, Note_on_c, 0, 57, 19
1, 1038586, Control_c, 0, 64, 0
1, 1038590, Note_off_c, 0, 81, 64
1, 1038596, Note_off_c, 0, 60, 62
1, 1038602, Note_off_c, 0, 50, 59
1, 1038619, Note_off_c, 0, 57, 40
1, 1038643, Note_on_c, 0, 81, 80
1, 1038684, Note_off_c, 0, 81, 61
1, 1038720, Note_on_c, 0, 81, 82
1, 1038724, Note_on_c, 0, 57, 56
1, 1038735, Note_on_c, 0, 52, 65
1, 1038738, Note_on_c, 0, 60, 57
1, 1038760, Note_off_c, 0, 57, 61
1, 1038768, Note_off_c, 0, 52, 67
1, 1038768, Note_off_c, 0, 60, 64
1, 1038801, Note_off_c, 0, 81, 52
1, 1038815, Note_on_c, 0, 84, 85
1, 1038905, Note_on_c, 0, 83, 87
1, 1038921, Note_on_c, 0, 53, 57
1, 1038922, Note_off_c, 0, 84, 59
1, 1038923, Note_on_c, 0, 57, 53
1, 1038923, Note_on_c, 0, 60, 57
1, 1038947, Note_off_c, 0, 57, 58
1, 1038957, Note_off_c, 0, 53, 66
1, 1038957, Note_off_c, 0, 60, 62
1, 1038991, Note_on_c, 0, 81, 83
1, 1039040, Note_off_c, 0, 83, 50
1, 1039070, Note_off_c, 0, 81, 58
1, 1039085, Note_on_c, 0, 76, 95
1, 1039095, Note_on_c, 0, 52, 80
1, 1039096, Note_on_c, 0, 60, 70
1, 1039099, Note_on_c, 0, 57, 65
1, 1039130, Note_off_c, 0, 57, 61
1, 1039131, Note_off_c, 0, 60, 56
1, 1039132, Note_off_c, 0, 76, 66
1, 1039139, Note_off_c, 0, 52, 60
1, 1039313, Note_on_c, 0, 93, 100
1, 1039317, Note_on_c, 0, 63, 91
1, 1039317, Note_on_c, 0, 81, 97
1, 1039319, Note_on_c, 0, 87, 91
1, 1039322, Note_on_c, 0, 53, 75
1, 1039323, Note_on_c, 0, 57, 68
1, 1039350, Note_off_c, 0, 81, 62
1, 1039357, Note_off_c, 0, 87, 61
1, 1039358, Note_off_c, 0, 93, 62
1, 1039389, Note_off_c, 0, 63, 57
1, 1039391, Note_off_c, 0, 57, 51
1, 1039397, Note_off_c, 0, 53, 62
1, 1039596, Note_on_c, 0, 52, 85
1, 1039599, Note_on_c, 0, 64, 90
1, 1039602, Note_on_c, 0, 76, 100
1, 1039602, Note_on_c, 0, 88, 100
1, 1039608, Note_on_c, 0, 56, 81
1, 1039617, Control_c, 0, 64, 49
1, 1039632, Control_c, 0, 64, 64
1, 1039647, Control_c, 0, 64, 71
1, 1039662, Control_c, 0, 64, 79
1, 1039668, Note_off_c, 0, 88, 55
1, 1039677, Control_c, 0, 64, 85
1, 1039686, Note_off_c, 0, 52, 64
1, 1039692, Control_c, 0, 64, 88
1, 1039700, Note_off_c, 0, 64, 56
1, 1039707, Control_c, 0, 64, 91
1, 1039722, Control_c, 0, 64, 92
1, 1039737, Note_off_c, 0, 76, 64
1, 1039762, Note_off_c, 0, 56, 61
1, 1039766, Control_c, 0, 64, 88
1, 1039781, Control_c, 0, 64, 78
1, 1039795, Control_c, 0, 64, 67
1, 1039810, Control_c, 0, 64, 47
1, 1039825, Control_c, 0, 64, 0
1, 1040029, Note_on_c, 0, 53, 96
1, 1040032, Note_on_c, 0, 65, 94
1, 1040044, Note_on_c, 0, 55, 83
1, 1040055, Note_on_c, 0, 67, 85
1, 1040079, Note_off_c, 0, 65, 64
1, 1040094, Note_off_c, 0, 53, 59
1, 1040133, Note_off_c, 0, 67, 61
1, 1040143, Control_c, 0, 64, 18
1, 1040156, Note_on_c, 0, 65, 78
1, 1040158, Control_c, 0, 64, 29
1, 1040173, Control_c, 0, 64, 33
1, 1040186, Note_on_c, 0, 53, 64
1, 1040188, Control_c, 0, 64, 33
1, 1040190, Note_off_c, 0, 55, 58
1, 1040202, Control_c, 0, 64, 34
1, 1040217, Control_c, 0, 64, 34
1, 1040232, Control_c, 0, 64, 36
1, 1040247, Control_c, 0, 64, 38
1, 1040255, Note_on_c, 0, 64, 79
1, 1040263, Control_c, 0, 64, 39
1, 1040265, Note_off_c, 0, 65, 58
1, 1040270, Note_on_c, 0, 52, 69
1, 1040278, Control_c, 0, 64, 40
1, 1040292, Control_c, 0, 64, 41
1, 1040307, Control_c, 0, 64, 41
1, 1040337, Control_c, 0, 64, 39
1, 1040342, Note_on_c, 0, 62, 84
1, 1040348, Note_off_c, 0, 53, 47
1, 1040352, Control_c, 0, 64, 36
1, 1040363, Note_on_c, 0, 50, 68
1, 1040365, Note_off_c, 0, 52, 61
1, 1040366, Control_c, 0, 64, 28
1, 1040381, Control_c, 0, 64, 0
1, 1040383, Note_off_c, 0, 64, 62
1, 1040428, Note_on_c, 0, 60, 85
1, 1040434, Note_on_c, 0, 48, 83
1, 1040438, Note_off_c, 0, 62, 61
1, 1040444, Note_off_c, 0, 50, 63
1, 1040468, Note_off_c, 0, 48, 64
1, 1040471, Note_off_c, 0, 60, 62
1, 1040640, Note_on_c, 0, 69, 91
1, 1040640, Note_on_c, 0, 81, 91
1, 1040643, Note_on_c, 0, 45, 78
1, 1040649, Note_on_c, 0, 57, 72
1, 1040680, Note_off_c, 0, 69, 68
1, 1040687, Note_off_c, 0, 45, 61
1, 1040690, Note_off_c, 0, 57, 58
1, 1040692, Note_off_c, 0, 81, 62
1, 1040905, Control_c, 0, 64, 32
1, 1040908, Note_on_c, 0, 84, 95
1, 1040911, Note_on_c, 0, 48, 82
1, 1040912, Note_on_c, 0, 72, 91
1, 1040916, Note_on_c, 0, 60, 79
1, 1040920, Control_c, 0, 64, 58
1, 1040935, Control_c, 0, 64, 66
1, 1040950, Control_c, 0, 64, 72
1, 1040965, Control_c, 0, 64, 79
1, 1040980, Control_c, 0, 64, 83
1, 1040985, Note_off_c, 0, 48, 59
1, 1040995, Control_c, 0, 64, 84
1, 1040997, Note_off_c, 0, 60, 53
1, 1041009, Control_c, 0, 64, 85
1, 1041024, Control_c, 0, 64, 85
1, 1041069, Control_c, 0, 64, 86
1, 1041084, Control_c, 0, 64, 86
1, 1041114, Control_c, 0, 64, 87
1, 1041196, Note_off_c, 0, 72, 60
1, 1041262, Note_off_c, 0, 84, 57
1, 1041262, Control_c, 0, 64, 86
1, 1041277, Control_c, 0, 64, 84
1, 1041292, Control_c, 0, 64, 75
1, 1041306, Control_c, 0, 64, 64
1, 1041319, Note_on_c, 0, 45, 66
1, 1041321, Note_on_c, 0, 81, 79
1, 1041321, Control_c, 0, 64, 31
1, 1041325, Note_on_c, 0, 57, 66
1, 1041326, Note_on_c, 0, 69, 77
1, 1041336, Control_c, 0, 64, 0
1, 1041358, Note_off_c, 0, 45, 64
1, 1041370, Note_off_c, 0, 69, 63
1, 1041389, Note_off_c, 0, 57, 61
1, 1041400, Note_off_c, 0, 81, 62
1, 1041669, Control_c, 0, 64, 46
1, 1041684, Control_c, 0, 64, 58
1, 1041699, Control_c, 0, 64, 63
1, 1041713, Control_c, 0, 64, 65
1, 1041728, Control_c, 0, 64, 66
1, 1041743, Control_c, 0, 64, 67
1, 1041748, Note_on_c, 0, 53, 55
1, 1041749, Note_on_c, 0, 86, 96
1, 1041758, Control_c, 0, 64, 68
1, 1041767, Note_on_c, 0, 65, 41
1, 1041776, Note_on_c, 0, 62, 38
1, 1041788, Note_off_c, 0, 86, 66
1, 1041821, Note_off_c, 0, 53, 61
1, 1041826, Note_off_c, 0, 62, 43
1, 1041832, Note_off_c, 0, 65, 43
1, 1041832, Control_c, 0, 64, 69
1, 1041877, Control_c, 0, 64, 69
1, 1041936, Control_c, 0, 64, 68
1, 1041951, Control_c, 0, 64, 65
1, 1041966, Control_c, 0, 64, 61
1, 1041971, Note_on_c, 0, 55, 64
1, 1041981, Control_c, 0, 64, 46
1, 1041981, Note_on_c, 0, 86, 90
1, 1041996, Note_on_c, 0, 62, 30
1, 1041996, Control_c, 0, 64, 0
1, 1041999, Note_on_c, 0, 65, 29
1, 1042020, Note_off_c, 0, 86, 65
1, 1042035, Note_off_c, 0, 55, 55
1, 1042036, Note_off_c, 0, 65, 52
1, 1042039, Note_off_c, 0, 62, 48
1, 1042068, Note_on_c, 0, 86, 80
1, 1042107, Note_off_c, 0, 86, 62
1, 1042151, Note_on_c, 0, 86, 79
1, 1042172, Note_on_c, 0, 65, 62
1, 1042174, Note_on_c, 0, 57, 63
1, 1042195, Note_on_c, 0, 62, 25
1, 1042202, Note_off_c, 0, 65, 64
1, 1042205, Note_off_c, 0, 57, 62
1, 1042244, Note_off_c, 0, 62, 43
1, 1042244, Note_on_c, 0, 89, 81
1, 1042251, Note_off_c, 0, 86, 51
1, 1042337, Note_on_c, 0, 88, 89
1, 1042354, Note_on_c, 0, 62, 57
1, 1042354, Note_off_c, 0, 89, 58
1, 1042357, Note_on_c, 0, 58, 68
1, 1042375, Note_on_c, 0, 65, 30
1, 1042378, Note_off_c, 0, 62, 58
1, 1042384, Note_off_c, 0, 58, 67
1, 1042410, Note_off_c, 0, 65, 52
1, 1042426, Note_on_c, 0, 86, 87
1, 1042449, Note_off_c, 0, 88, 59
1, 1042523, Control_c, 0, 64, 51
1, 1042534, Note_on_c, 0, 81, 91
1, 1042537, Control_c, 0, 64, 63
1, 1042545, Note_on_c, 0, 48, 83
1, 1042551, Note_on_c, 0, 60, 75
1, 1042551, Note_off_c, 0, 86, 60
1, 1042552, Control_c, 0, 64, 67
1, 1042554, Note_on_c, 0, 57, 67
1, 1042567, Control_c, 0, 64, 69
1, 1042582, Control_c, 0, 64, 70
1, 1042583, Note_off_c, 0, 57, 64
1, 1042589, Note_off_c, 0, 81, 62
1, 1042596, Control_c, 0, 64, 71
1, 1042599, Note_off_c, 0, 60, 58
1, 1042600, Note_off_c, 0, 48, 60
1, 1042611, Control_c, 0, 64, 73
1, 1042626, Control_c, 0, 64, 74
1, 1042641, Control_c, 0, 64, 74
1, 1042686, Control_c, 0, 64, 74
1, 1042701, Control_c, 0, 64, 71
1, 1042716, Control_c, 0, 64, 66
1, 1042731, Control_c, 0, 64, 57
1, 1042746, Control_c, 0, 64, 0
1, 1042757, Note_on_c, 0, 81, 90
1, 1042761, Note_on_c, 0, 50, 60
1, 1042762, Note_on_c, 0, 60, 67
1, 1042785, Note_on_c, 0, 52, 48
1, 1042788, Note_off_c, 0, 60, 66
1, 1042789, Note_off_c, 0, 50, 56
1, 1042801, Note_off_c, 0, 81, 63
1, 1042816, Note_off_c, 0, 52, 34
1, 1042843, Note_on_c, 0, 81, 77
1, 1042887, Note_off_c, 0, 81, 63
1, 1042924, Note_on_c, 0, 52, 77
1, 1042927, Note_on_c, 0, 81, 86
1, 1042931, Note_on_c, 0, 60, 75
1, 1042934, Note_on_c, 0, 57, 62
1, 1042959, Note_off_c, 0, 60, 61
1, 1042962, Note_off_c, 0, 57, 65
1, 1042979, Note_off_c, 0, 52, 64
1, 1043002, Note_off_c, 0, 81, 56
1, 1043025, Note_on_c, 0, 84, 80
1, 1043114, Note_on_c, 0, 83, 91
1, 1043120, Note_on_c, 0, 60, 72
1, 1043122, Note_on_c, 0, 53, 70
1, 1043136, Note_on_c, 0, 57, 44
1, 1043141, Note_off_c, 0, 84, 61
1, 1043148, Note_off_c, 0, 60, 62
1, 1043153, Note_off_c, 0, 53, 66
1, 1043166, Note_off_c, 0, 57, 49
1, 1043194, Note_on_c, 0, 81, 85
1, 1043242, Note_off_c, 0, 83, 44
1, 1043290, Note_on_c, 0, 57, 74
1, 1043296, Note_on_c, 0, 76, 80
1, 1043298, Note_on_c, 0, 52, 82
1, 1043298, Note_on_c, 0, 60, 78
1, 1043302, Note_off_c, 0, 81, 59
1, 1043319, Note_off_c, 0, 57, 65
1, 1043325, Note_off_c, 0, 60, 63
1, 1043326, Note_on_c, 0, 77, 44
1, 1043327, Note_off_c, 0, 77, 127
1, 1043332, Note_off_c, 0, 52, 67
1, 1043336, Note_off_c, 0, 76, 65
1, 1043517, Note_on_c, 0, 80, 93
1, 1043519, Note_on_c, 0, 92, 97
1, 1043521, Note_on_c, 0, 62, 90
1, 1043524, Note_on_c, 0, 52, 84
1, 1043537, Note_on_c, 0, 83, 54
1, 1043558, Note_off_c, 0, 83, 39
1, 1043562, Note_off_c, 0, 52, 63
1, 1043564, Note_off_c, 0, 62, 65
1, 1043574, Note_off_c, 0, 80, 60
1, 1043612, Note_off_c, 0, 92, 64
1, 1043789, Note_on_c, 0, 93, 98
1, 1043790, Note_on_c, 0, 81, 97
1, 1043791, Note_on_c, 0, 57, 85
1, 1043792, Note_on_c, 0, 60, 84
1, 1043794, Note_on_c, 0, 84, 91
1, 1043813, Control_c, 0, 64, 64
1, 1043828, Control_c, 0, 64, 82
1, 1043842, Control_c, 0, 64, 93
1, 1043857, Control_c, 0, 64, 93
1, 1043869, Note_off_c, 0, 93, 61
1, 1043872, Control_c, 0, 64, 94
1, 1043903, Note_off_c, 0, 57, 57
1, 1043904, Note_off_c, 0, 60, 52
1, 1043916, Control_c, 0, 64, 93
1, 1043926, Note_off_c, 0, 84, 63
1, 1043931, Control_c, 0, 64, 84
1, 1043943, Note_off_c, 0, 81, 61
1, 1043946, Control_c, 0, 64, 67
1, 1043961, Control_c, 0, 64, 26
1, 1043975, Control_c, 0, 64, 0
1, 1044307, Note_on_c, 0, 81, 87
1, 1044309, Note_on_c, 0, 69, 89
1, 1044311, Note_on_c, 0, 77, 89
1, 1044313, Note_on_c, 0, 53, 95
1, 1044315, Note_on_c, 0, 41, 93
1, 1044331, Control_c, 0, 64, 67
1, 1044342, Note_on_c, 0, 42, 49
1, 1044346, Control_c, 0, 64, 82
1, 1044361, Control_c, 0, 64, 86
1, 1044370, Note_off_c, 0, 42, 53
1, 1044386, Note_off_c, 0, 81, 57
1, 1044390, Control_c, 0, 64, 87
1, 1044394, Note_off_c, 0, 69, 64
1, 1044405, Control_c, 0, 64, 88
1, 1044415, Note_off_c, 0, 77, 59
1, 1044420, Control_c, 0, 64, 90
1, 1044435, Control_c, 0, 64, 90
1, 1044450, Control_c, 0, 64, 91
1, 1044562, Note_off_c, 0, 41, 51
1, 1044581, Note_on_c, 0, 69, 80
1, 1044584, Note_on_c, 0, 77, 79
1, 1044590, Note_on_c, 0, 81, 67
1, 1044605, Note_off_c, 0, 69, 65
1, 1044616, Note_off_c, 0, 77, 61
1, 1044617, Note_off_c, 0, 81, 65
1, 1044634, Note_off_c, 0, 53, 57
1, 1044672, Note_on_c, 0, 77, 73
1, 1044691, Note_on_c, 0, 81, 44
1, 1044694, Note_on_c, 0, 69, 61
1, 1044709, Control_c, 0, 64, 91
1, 1044709, Note_off_c, 0, 69, 69
1, 1044711, Note_off_c, 0, 77, 59
1, 1044719, Note_off_c, 0, 81, 54
1, 1044724, Control_c, 0, 64, 91
1, 1044739, Control_c, 0, 64, 89
1, 1044750, Note_on_c, 0, 81, 82
1, 1044753, Note_on_c, 0, 77, 73
1, 1044753, Control_c, 0, 64, 76
1, 1044756, Note_on_c, 0, 43, 89
1, 1044757, Note_on_c, 0, 69, 91
1, 1044758, Note_on_c, 0, 55, 90
1, 1044768, Control_c, 0, 64, 62
1, 1044783, Control_c, 0, 64, 0
1, 1044828, Control_c, 0, 64, 55
1, 1044841, Note_off_c, 0, 81, 60
1, 1044843, Control_c, 0, 64, 65
1, 1044852, Note_off_c, 0, 69, 63
1, 1044857, Control_c, 0, 64, 72
1, 1044872, Control_c, 0, 64, 78
1, 1044882, Note_off_c, 0, 77, 61
1, 1044887, Control_c, 0, 64, 80
1, 1044901, Control_c, 0, 64, 80
1, 1044931, Control_c, 0, 64, 81
1, 1044962, Note_on_c, 0, 69, 78
1, 1044965, Note_on_c, 0, 77, 80
1, 1044970, Note_on_c, 0, 81, 72
1, 1044990, Note_off_c, 0, 69, 66
1, 1044990, Control_c, 0, 64, 81
1, 1044993, Note_off_c, 0, 77, 63
1, 1044994, Note_off_c, 0, 81, 68
1, 1045001, Note_off_c, 0, 43, 55
1, 1045005, Control_c, 0, 64, 83
1, 1045020, Control_c, 0, 64, 84
1, 1045029, Note_off_c, 0, 55, 57
1, 1045035, Control_c, 0, 64, 87
1, 1045042, Note_on_c, 0, 77, 75
1, 1045043, Note_on_c, 0, 81, 77
1, 1045049, Note_on_c, 0, 69, 73
1, 1045050, Control_c, 0, 64, 90
1, 1045066, Control_c, 0, 64, 93
1, 1045070, Note_off_c, 0, 69, 68
1, 1045076, Note_off_c, 0, 81, 60
1, 1045080, Control_c, 0, 64, 94
1, 1045087, Note_off_c, 0, 77, 62
1, 1045095, Control_c, 0, 64, 92
1, 1045110, Control_c, 0, 64, 78
1, 1045123, Note_on_c, 0, 81, 82
1, 1045125, Control_c, 0, 64, 60
1, 1045128, Note_on_c, 0, 77, 72
1, 1045131, Note_on_c, 0, 45, 90
1, 1045131, Note_on_c, 0, 69, 91
1, 1045132, Note_on_c, 0, 57, 94
1, 1045140, Control_c, 0, 64, 0
1, 1045199, Control_c, 0, 64, 54
1, 1045209, Note_off_c, 0, 81, 60
1, 1045213, Control_c, 0, 64, 67
1, 1045231, Note_off_c, 0, 69, 65
1, 1045236, Control_c, 0, 64, 77
1, 1045251, Control_c, 0, 64, 85
1, 1045256, Note_off_c, 0, 77, 61
1, 1045266, Control_c, 0, 64, 86
1, 1045281, Control_c, 0, 64, 87
1, 1045295, Control_c, 0, 64, 89
1, 1045310, Control_c, 0, 64, 91
1, 1045325, Control_c, 0, 64, 92
1, 1045339, Control_c, 0, 64, 94
1, 1045352, Note_on_c, 0, 69, 77
1, 1045354, Note_on_c, 0, 77, 79
1, 1045354, Control_c, 0, 64, 95
1, 1045360, Note_on_c, 0, 81, 65
1, 1045369, Control_c, 0, 64, 96
1, 1045370, Note_off_c, 0, 45, 54
1, 1045375, Note_off_c, 0, 69, 71
1, 1045379, Note_off_c, 0, 77, 64
1, 1045382, Note_off_c, 0, 57, 57
1, 1045383, Note_off_c, 0, 81, 64
1, 1045384, Control_c, 0, 64, 98
1, 1045399, Control_c, 0, 64, 100
1, 1045413, Control_c, 0, 64, 103
1, 1045428, Control_c, 0, 64, 107
1, 1045439, Note_on_c, 0, 77, 62
1, 1045443, Control_c, 0, 64, 119
1, 1045448, Note_on_c, 0, 69, 62
1, 1045453, Note_on_c, 0, 81, 56
1, 1045458, Control_c, 0, 64, 127
1, 1045468, Note_off_c, 0, 77, 64
1, 1045469, Note_off_c, 0, 69, 63
1, 1045472, Note_off_c, 0, 81, 60
1, 1045502, Control_c, 0, 64, 106
1, 1045517, Control_c, 0, 64, 74
1, 1045520, Note_on_c, 0, 58, 97
1, 1045520, Note_on_c, 0, 77, 74
1, 1045521, Note_on_c, 0, 69, 76
1, 1045522, Note_on_c, 0, 46, 87
1, 1045530, Note_on_c, 0, 81, 75
1, 1045532, Control_c, 0, 64, 47
1, 1045540, Note_off_c, 0, 69, 70
1, 1045546, Note_off_c, 0, 81, 66
1, 1045547, Control_c, 0, 64, 0
1, 1045556, Note_off_c, 0, 77, 60
1, 1045577, Control_c, 0, 64, 35
1, 1045592, Control_c, 0, 64, 63
1, 1045606, Control_c, 0, 64, 71
1, 1045617, Note_on_c, 0, 84, 90
1, 1045621, Control_c, 0, 64, 77
1, 1045627, Note_on_c, 0, 81, 70
1, 1045636, Control_c, 0, 64, 81
1, 1045651, Control_c, 0, 64, 85
1, 1045661, Note_off_c, 0, 81, 62
1, 1045663, Note_off_c, 0, 84, 63
1, 1045666, Control_c, 0, 64, 97
1, 1045681, Control_c, 0, 64, 112
1, 1045688, Note_off_c, 0, 46, 56
1, 1045695, Note_on_c, 0, 82, 85
1, 1045695, Control_c, 0, 64, 127
1, 1045704, Note_on_c, 0, 79, 67
1, 1045725, Note_off_c, 0, 58, 57
1, 1045734, Note_off_c, 0, 79, 60
1, 1045779, Note_on_c, 0, 81, 78
1, 1045783, Note_on_c, 0, 77, 86
1, 1045797, Note_off_c, 0, 82, 59
1, 1045812, Note_off_c, 0, 81, 59
1, 1045836, Note_off_c, 0, 77, 61
1, 1045886, Note_on_c, 0, 79, 101
1, 1045890, Control_c, 0, 64, 90
1, 1045892, Note_on_c, 0, 48, 92
1, 1045893, Note_on_c, 0, 76, 96
1, 1045895, Note_on_c, 0, 60, 87
1, 1045904, Control_c, 0, 64, 64
1, 1045908, Note_off_c, 0, 76, 75
1, 1045919, Control_c, 0, 64, 0
1, 1045920, Note_off_c, 0, 60, 63
1, 1045923, Note_off_c, 0, 79, 66
1, 1045936, Note_off_c, 0, 48, 63
1, 1046136, Note_on_c, 0, 81, 98
1, 1046141, Note_on_c, 0, 77, 93
1, 1046143, Note_on_c, 0, 72, 84
1, 1046144, Note_on_c, 0, 53, 85
1, 1046150, Note_on_c, 0, 41, 73
1, 1046161, Note_off_c, 0, 72, 73
1, 1046168, Note_on_c, 0, 43, 52
1, 1046170, Note_off_c, 0, 77, 60
1, 1046174, Note_off_c, 0, 53, 66
1, 1046176, Note_off_c, 0, 81, 62
1, 1046179, Note_off_c, 0, 41, 65
1, 1046197, Note_off_c, 0, 43, 52
1, 1046390, Note_on_c, 0, 79, 99
1, 1046397, Note_on_c, 0, 48, 92
1, 1046398, Note_on_c, 0, 76, 92
1, 1046399, Note_on_c, 0, 72, 85
1, 1046399, Note_on_c, 0, 60, 89
1, 1046430, Control_c, 0, 64, 72
1, 1046445, Control_c, 0, 64, 127
1, 1046459, Note_off_c, 0, 48, 55
1, 1046484, Note_off_c, 0, 60, 58
1, 1046590, Note_off_c, 0, 76, 60
1, 1046591, Note_off_c, 0, 79, 58
1, 1046637, Control_c, 0, 64, 86
1, 1046645, Note_off_c, 0, 72, 57
1, 1046653, Control_c, 0, 64, 66
1, 1046668, Control_c, 0, 64, 0
1, 1046918, Note_on_c, 0, 77, 95
1, 1046918, Note_on_c, 0, 50, 91
1, 1046918, Note_on_c, 0, 65, 90
1, 1046921, Note_on_c, 0, 74, 81
1, 1046925, Note_on_c, 0, 38, 82
1, 1046928, Control_c, 0, 64, 66
1, 1046942, Control_c, 0, 64, 82
1, 1046957, Control_c, 0, 64, 90
1, 1046980, Note_off_c, 0, 65, 60
1, 1046983, Note_off_c, 0, 77, 58
1, 1047001, Control_c, 0, 64, 91
1, 1047010, Note_off_c, 0, 74, 61
1, 1047130, Note_off_c, 0, 38, 48
1, 1047152, Note_on_c, 0, 74, 69
1, 1047160, Note_on_c, 0, 65, 56
1, 1047160, Note_on_c, 0, 77, 63
1, 1047176, Note_off_c, 0, 65, 66
1, 1047176, Note_off_c, 0, 74, 69
1, 1047181, Note_off_c, 0, 77, 63
1, 1047199, Note_off_c, 0, 50, 53
1, 1047228, Note_on_c, 0, 74, 63
1, 1047234, Note_on_c, 0, 65, 65
1, 1047235, Note_on_c, 0, 77, 58
1, 1047255, Note_off_c, 0, 77, 65
1, 1047260, Note_off_c, 0, 65, 59
1, 1047260, Note_off_c, 0, 74, 68
1, 1047268, Control_c, 0, 64, 90
1, 1047283, Control_c, 0, 64, 83
1, 1047298, Control_c, 0, 64, 68
1, 1047312, Control_c, 0, 64, 54
1, 1047314, Note_on_c, 0, 77, 81
1, 1047316, Note_on_c, 0, 40, 79
1, 1047316, Note_on_c, 0, 52, 84
1, 1047317, Note_on_c, 0, 74, 65
1, 1047323, Note_on_c, 0, 65, 74
1, 1047327, Control_c, 0, 64, 0
1, 1047386, Control_c, 0, 64, 56
1, 1047401, Control_c, 0, 64, 63
1, 1047402, Note_off_c, 0, 77, 59
1, 1047408, Note_off_c, 0, 65, 59
1, 1047416, Control_c, 0, 64, 65
1, 1047431, Control_c, 0, 64, 66
1, 1047432, Note_off_c, 0, 74, 63
1, 1047446, Control_c, 0, 64, 67
1, 1047462, Control_c, 0, 64, 67
1, 1047484, Control_c, 0, 64, 68
1, 1047499, Control_c, 0, 64, 68
1, 1047514, Control_c, 0, 64, 69
1, 1047529, Control_c, 0, 64, 69
1, 1047532, Note_on_c, 0, 65, 61
1, 1047537, Note_on_c, 0, 74, 63
1, 1047538, Note_on_c, 0, 77, 56
1, 1047544, Control_c, 0, 64, 70
1, 1047550, Note_off_c, 0, 40, 58
1, 1047553, Note_off_c, 0, 65, 65
1, 1047558, Control_c, 0, 64, 71
1, 1047558, Note_off_c, 0, 77, 62
1, 1047562, Note_off_c, 0, 74, 69
1, 1047573, Control_c, 0, 64, 71
1, 1047584, Note_off_c, 0, 52, 59
1, 1047588, Control_c, 0, 64, 72
1, 1047603, Control_c, 0, 64, 74
1, 1047610, Note_on_c, 0, 74, 61
1, 1047617, Control_c, 0, 64, 75
1, 1047618, Note_on_c, 0, 77, 61
1, 1047620, Note_on_c, 0, 65, 67
1, 1047632, Control_c, 0, 64, 75
1, 1047643, Note_off_c, 0, 77, 64
1, 1047650, Note_off_c, 0, 65, 59
1, 1047657, Note_off_c, 0, 74, 62
1, 1047662, Control_c, 0, 64, 75
1, 1047676, Control_c, 0, 64, 70
1, 1047691, Control_c, 0, 64, 63
1, 1047693, Poly_aftertouch_c, 0, 74, 0
1, 1047699, Note_on_c, 0, 41, 78
1, 1047699, Note_on_c, 0, 53, 85
1, 1047701, Note_on_c, 0, 77, 83
1, 1047703, Note_on_c, 0, 74, 55
1, 1047704, Note_on_c, 0, 65, 79
1, 1047706, Control_c, 0, 64, 48
1, 1047721, Control_c, 0, 64, 37
1, 1047735, Control_c, 0, 64, 47
1, 1047750, Control_c, 0, 64, 56
1, 1047765, Control_c, 0, 64, 63
1, 1047780, Control_c, 0, 64, 67
1, 1047782, Note_off_c, 0, 77, 58
1, 1047785, Note_off_c, 0, 65, 59
1, 1047795, Control_c, 0, 64, 70
1, 1047809, Control_c, 0, 64, 74
1, 1047810, Note_off_c, 0, 74, 64
1, 1047824, Control_c, 0, 64, 77
1, 1047839, Control_c, 0, 64, 79
1, 1047854, Control_c, 0, 64, 82
1, 1047869, Control_c, 0, 64, 85
1, 1047883, Control_c, 0, 64, 88
1, 1047898, Control_c, 0, 64, 91
1, 1047913, Note_on_c, 0, 65, 79
1, 1047913, Control_c, 0, 64, 94
1, 1047916, Note_on_c, 0, 74, 78
1, 1047922, Note_on_c, 0, 77, 68
1, 1047928, Control_c, 0, 64, 98
1, 1047937, Note_off_c, 0, 65, 66
1, 1047943, Control_c, 0, 64, 103
1, 1047945, Note_off_c, 0, 74, 62
1, 1047945, Note_off_c, 0, 77, 66
1, 1047958, Control_c, 0, 64, 110
1, 1047961, Note_off_c, 0, 41, 61
1, 1047973, Control_c, 0, 64, 127
1, 1047990, Note_off_c, 0, 53, 58
1, 1048002, Note_on_c, 0, 65, 75
1, 1048002, Note_on_c, 0, 74, 68
1, 1048002, Note_on_c, 0, 77, 80
1, 1048030, Note_off_c, 0, 65, 66
1, 1048030, Note_off_c, 0, 77, 58
1, 1048033, Note_off_c, 0, 74, 64
1, 1048074, Note_on_c, 0, 43, 93
1, 1048075, Note_on_c, 0, 55, 89
1, 1048075, Control_c, 0, 64, 78
1, 1048082, Note_on_c, 0, 74, 72
1, 1048089, Note_on_c, 0, 77, 65
1, 1048090, Control_c, 0, 64, 59
1, 1048105, Control_c, 0, 64, 0
1, 1048118, Note_off_c, 0, 77, 63
1, 1048127, Note_off_c, 0, 74, 64
1, 1048134, Control_c, 0, 64, 48
1, 1048149, Control_c, 0, 64, 63
1, 1048164, Control_c, 0, 64, 69
1, 1048171, Note_on_c, 0, 81, 86
1, 1048179, Note_on_c, 0, 77, 67
1, 1048179, Control_c, 0, 64, 74
1, 1048194, Control_c, 0, 64, 80
1, 1048208, Note_off_c, 0, 77, 63
1, 1048208, Control_c, 0, 64, 87
1, 1048231, Control_c, 0, 64, 96
1, 1048246, Control_c, 0, 64, 114
1, 1048262, Control_c, 0, 64, 127
1, 1048264, Note_on_c, 0, 79, 83
1, 1048277, Note_on_c, 0, 76, 86
1, 1048309, Note_off_c, 0, 43, 59
1, 1048314, Note_off_c, 0, 81, 50
1, 1048325, Note_off_c, 0, 55, 59
1, 1048351, Note_on_c, 0, 74, 88
1, 1048356, Note_off_c, 0, 76, 62
1, 1048357, Poly_aftertouch_c, 0, 77, 0
1, 1048365, Note_off_c, 0, 79, 59
1, 1048404, Note_off_c, 0, 74, 68
1, 1048445, Note_on_c, 0, 76, 100
1, 1048451, Note_on_c, 0, 73, 93
1, 1048452, Note_on_c, 0, 45, 93
1, 1048453, Note_on_c, 0, 57, 95
1, 1048454, Control_c, 0, 64, 81
1, 1048469, Control_c, 0, 64, 58
1, 1048476, Note_off_c, 0, 73, 62
1, 1048481, Note_off_c, 0, 76, 69
1, 1048483, Note_off_c, 0, 57, 62
1, 1048484, Control_c, 0, 64, 0
1, 1048495, Note_off_c, 0, 45, 62
1, 1048650, Note_on_c, 0, 77, 93
1, 1048655, Note_on_c, 0, 69, 89
1, 1048655, Note_on_c, 0, 74, 87
1, 1048658, Note_on_c, 0, 50, 87
1, 1048659, Note_on_c, 0, 38, 80
1, 1048673, Note_off_c, 0, 69, 74
1, 1048679, Note_off_c, 0, 74, 66
1, 1048682, Note_off_c, 0, 38, 66
1, 1048691, Note_off_c, 0, 77, 63
1, 1048695, Note_off_c, 0, 50, 61
1, 1048837, Note_on_c, 0, 76, 94
1, 1048843, Note_on_c, 0, 73, 85
1, 1048846, Note_on_c, 0, 57, 81
1, 1048847, Note_on_c, 0, 45, 84
1, 1048857, Note_on_c, 0, 69, 67
1, 1048865, Note_off_c, 0, 73, 64
1, 1048869, Note_off_c, 0, 57, 66
1, 1048873, Note_off_c, 0, 69, 69
1, 1048878, Note_off_c, 0, 45, 67
1, 1048888, Note_off_c, 0, 76, 67
1, 1048995, Control_c, 0, 64, 14
1, 1049010, Control_c, 0, 64, 41
1, 1049025, Control_c, 0, 64, 45
1, 1049035, Note_on_c, 0, 77, 98
1, 1049040, Control_c, 0, 64, 47
1, 1049043, Note_on_c, 0, 38, 77
1, 1049043, Note_on_c, 0, 50, 76
1, 1049044, Note_on_c, 0, 74, 78
1, 1049055, Note_on_c, 0, 69, 71
1, 1049055, Control_c, 0, 64, 50
1, 1049064, Note_off_c, 0, 74, 71
1, 1049070, Control_c, 0, 64, 51
1, 1049076, Note_off_c, 0, 38, 67
1, 1049078, Note_off_c, 0, 50, 63
1, 1049078, Note_off_c, 0, 69, 72
1, 1049079, Note_off_c, 0, 77, 64
1, 1049100, Control_c, 0, 64, 50
1, 1049115, Control_c, 0, 64, 49
1, 1049129, Control_c, 0, 64, 48
1, 1049144, Control_c, 0, 64, 46
1, 1049159, Control_c, 0, 64, 41
1, 1049174, Control_c, 0, 64, 28
1, 1049189, Control_c, 0, 64, 0
1, 1049254, Note_on_c, 0, 64, 57
1, 1049263, Note_on_c, 0, 45, 35
1, 1049270, Note_on_c, 0, 49, 44
1, 1049294, Note_off_c, 0, 64, 59
1, 1049352, Note_on_c, 0, 57, 55
1, 1049402, Note_off_c, 0, 49, 61
1, 1049407, Note_off_c, 0, 45, 48
1, 1049417, Note_off_c, 0, 57, 60
1, 1049428, Note_on_c, 0, 41, 49
1, 1049442, Note_on_c, 0, 65, 60
1, 1049451, Note_on_c, 0, 50, 33
1, 1049496, Note_off_c, 0, 65, 59
1, 1049533, Note_on_c, 0, 57, 55
1, 1049565, Note_off_c, 0, 41, 50
1, 1049574, Note_off_c, 0, 57, 60
1, 1049592, Note_off_c, 0, 50, 42
1, 1049624, Note_on_c, 0, 49, 44
1, 1049626, Note_on_c, 0, 64, 67
1, 1049630, Note_on_c, 0, 45, 44
1, 1049672, Note_off_c, 0, 64, 59
1, 1049732, Note_on_c, 0, 57, 56
1, 1049771, Note_off_c, 0, 57, 61
1, 1049804, Note_off_c, 0, 49, 55
1, 1049810, Note_on_c, 0, 41, 59
1, 1049815, Note_off_c, 0, 45, 50
1, 1049821, Note_on_c, 0, 65, 69
1, 1049825, Note_on_c, 0, 50, 51
1, 1049849, Note_off_c, 0, 41, 63
1, 1049861, Note_off_c, 0, 50, 64
1, 1049871, Note_off_c, 0, 65, 49
1, 1049900, Note_on_c, 0, 57, 41
1, 1049928, Note_off_c, 0, 57, 50
1, 1049997, Note_on_c, 0, 45, 98
1, 1049997, Note_on_c, 0, 57, 90
1, 1049999, Note_on_c, 0, 76, 95
1, 1050003, Note_on_c, 0, 73, 86
1, 1050003, Note_on_c, 0, 69, 85
1, 1050020, Note_off_c, 0, 69, 75
1, 1050024, Note_off_c, 0, 73, 66
1, 1050035, Note_off_c, 0, 57, 66
1, 1050040, Note_off_c, 0, 76, 65
1, 1050042, Note_off_c, 0, 45, 65
1, 1050189, Note_on_c, 0, 77, 95
1, 1050194, Note_on_c, 0, 74, 88
1, 1050195, Note_on_c, 0, 69, 87
1, 1050196, Note_on_c, 0, 50, 92
1, 1050199, Note_on_c, 0, 38, 87
1, 1050216, Note_off_c, 0, 69, 70
1, 1050227, Note_off_c, 0, 38, 67
1, 1050231, Note_off_c, 0, 77, 64
1, 1050235, Note_off_c, 0, 74, 60
1, 1050238, Note_off_c, 0, 50, 62
1, 1050376, Note_on_c, 0, 76, 98
1, 1050381, Note_on_c, 0, 73, 92
1, 1050384, Note_on_c, 0, 57, 87
1, 1050386, Note_on_c, 0, 69, 84
1, 1050387, Note_on_c, 0, 45, 87
1, 1050402, Note_off_c, 0, 69, 75
1, 1050409, Note_off_c, 0, 73, 61
1, 1050421, Note_off_c, 0, 45, 64
1, 1050423, Note_off_c, 0, 57, 65
1, 1050427, Note_off_c, 0, 76, 65
1, 1050575, Note_on_c, 0, 77, 97
1, 1050580, Note_on_c, 0, 69, 90
1, 1050581, Note_on_c, 0, 74, 85
1, 1050586, Note_on_c, 0, 50, 84
1, 1050588, Note_on_c, 0, 38, 81
1, 1050605, Note_off_c, 0, 74, 68
1, 1050608, Note_off_c, 0, 69, 66
1, 1050617, Note_off_c, 0, 77, 61
1, 1050618, Note_off_c, 0, 38, 66
1, 1050628, Note_off_c, 0, 50, 60
1, 1050833, Note_on_c, 0, 64, 62
1, 1050846, Note_on_c, 0, 49, 49
1, 1050849, Note_on_c, 0, 45, 34
1, 1050900, Note_off_c, 0, 64, 55
1, 1050926, Note_on_c, 0, 57, 62
1, 1051001, Note_off_c, 0, 45, 54
1, 1051003, Note_off_c, 0, 49, 61
1, 1051006, Note_off_c, 0, 57, 58
1, 1051020, Note_on_c, 0, 41, 44
1, 1051027, Note_on_c, 0, 50, 48
1, 1051027, Control_c, 0, 67, 8
1, 1051032, Note_on_c, 0, 65, 56
1, 1051042, Control_c, 0, 67, 9
1, 1051071, Control_c, 0, 67, 10
1, 1051082, Note_off_c, 0, 65, 55
1, 1051086, Control_c, 0, 67, 11
1, 1051101, Control_c, 0, 67, 13
1, 1051109, Note_on_c, 0, 57, 60
1, 1051116, Control_c, 0, 67, 18
1, 1051131, Control_c, 0, 67, 23
1, 1051145, Control_c, 0, 67, 28
1, 1051160, Control_c, 0, 67, 34
1, 1051175, Control_c, 0, 67, 42
1, 1051185, Note_off_c, 0, 57, 56
1, 1051190, Control_c, 0, 67, 48
1, 1051191, Note_off_c, 0, 41, 58
1, 1051201, Note_on_c, 0, 64, 61
1, 1051205, Note_on_c, 0, 49, 53
1, 1051205, Note_off_c, 0, 50, 45
1, 1051205, Control_c, 0, 67, 53
1, 1051210, Note_on_c, 0, 45, 46
1, 1051227, Control_c, 0, 67, 57
1, 1051242, Control_c, 0, 67, 61
1, 1051257, Control_c, 0, 67, 65
1, 1051271, Note_off_c, 0, 64, 56
1, 1051272, Control_c, 0, 67, 68
1, 1051286, Control_c, 0, 67, 70
1, 1051291, Note_on_c, 0, 57, 48
1, 1051316, Control_c, 0, 64, 23
1, 1051331, Control_c, 0, 64, 45
1, 1051342, Note_off_c, 0, 57, 58
1, 1051346, Control_c, 0, 64, 52
1, 1051346, Control_c, 0, 67, 69
1, 1051360, Control_c, 0, 64, 54
1, 1051360, Control_c, 0, 67, 69
1, 1051369, Note_on_c, 0, 41, 52
1, 1051375, Control_c, 0, 64, 56
1, 1051375, Control_c, 0, 67, 68
1, 1051383, Note_on_c, 0, 65, 56
1, 1051386, Note_off_c, 0, 45, 58
1, 1051390, Control_c, 0, 64, 56
1, 1051398, Note_on_c, 0, 50, 46
1, 1051405, Control_c, 0, 64, 57
1, 1051419, Note_off_c, 0, 65, 62
1, 1051420, Control_c, 0, 64, 58
1, 1051425, Note_off_c, 0, 49, 59
1, 1051429, Note_off_c, 0, 41, 63
1, 1051434, Control_c, 0, 64, 59
1, 1051445, Note_off_c, 0, 50, 61
1, 1051450, Control_c, 0, 64, 59
1, 1051465, Control_c, 0, 64, 60
1, 1051468, Note_on_c, 0, 57, 61
1, 1051480, Control_c, 0, 64, 60
1, 1051480, Control_c, 0, 67, 69
1, 1051495, Control_c, 0, 64, 61
1, 1051495, Control_c, 0, 67, 69
1, 1051510, Control_c, 0, 67, 70
1, 1051524, Control_c, 0, 67, 70
1, 1051538, Note_off_c, 0, 57, 59
1, 1051539, Control_c, 0, 64, 60
1, 1051539, Control_c, 0, 67, 71
1, 1051554, Control_c, 0, 64, 58
1, 1051554, Control_c, 0, 67, 72
1, 1051569, Control_c, 0, 64, 55
1, 1051569, Control_c, 0, 67, 75
1, 1051583, Control_c, 0, 64, 47
1, 1051583, Control_c, 0, 67, 78
1, 1051595, Note_on_c, 0, 45, 51
1, 1051595, Note_on_c, 0, 64, 63
1, 1051598, Control_c, 0, 64, 21
1, 1051598, Control_c, 0, 67, 82
1, 1051604, Note_on_c, 0, 49, 52
1, 1051613, Control_c, 0, 64, 0
1, 1051613, Control_c, 0, 67, 85
1, 1051628, Control_c, 0, 67, 90
1, 1051643, Control_c, 0, 67, 95
1, 1051657, Control_c, 0, 67, 100
1, 1051672, Control_c, 0, 67, 107
1, 1051673, Note_off_c, 0, 64, 61
1, 1051679, Note_on_c, 0, 65, 64
1, 1051687, Control_c, 0, 67, 112
1, 1051702, Control_c, 0, 67, 116
1, 1051710, Note_off_c, 0, 65, 63
1, 1051717, Control_c, 0, 67, 118
1, 1051732, Control_c, 0, 67, 120
1, 1051803, Note_on_c, 0, 65, 65
1, 1051821, Note_on_c, 0, 50, 50
1, 1051851, Note_off_c, 0, 49, 52
1, 1051893, Note_off_c, 0, 65, 56
1, 1051900, Note_on_c, 0, 67, 66
1, 1051909, Control_c, 0, 67, 121
1, 1051932, Note_off_c, 0, 67, 60
1, 1051939, Control_c, 0, 67, 122
1, 1051954, Control_c, 0, 67, 123
1, 1051976, Control_c, 0, 67, 125
1, 1051991, Control_c, 0, 67, 127
1, 1052006, Control_c, 0, 67, 127
1, 1052016, Note_off_c, 0, 50, 63
1, 1052033, Note_on_c, 0, 67, 67
1, 1052043, Note_on_c, 0, 52, 51
1, 1052143, Note_off_c, 0, 67, 57
1, 1052151, Note_on_c, 0, 69, 60
1, 1052194, Note_off_c, 0, 69, 63
1, 1052306, Note_on_c, 0, 69, 60
1, 1052310, Note_on_c, 0, 55, 43
1, 1052316, Note_off_c, 0, 52, 36
1, 1052332, Control_c, 0, 64, 28
1, 1052347, Control_c, 0, 64, 49
1, 1052361, Note_off_c, 0, 45, 51
1, 1052362, Control_c, 0, 64, 59
1, 1052377, Control_c, 0, 64, 63
1, 1052392, Control_c, 0, 64, 65
1, 1052406, Control_c, 0, 64, 67
1, 1052421, Control_c, 0, 64, 69
1, 1052436, Control_c, 0, 64, 70
1, 1052451, Control_c, 0, 64, 72
1, 1052459, Note_off_c, 0, 55, 62
1, 1052461, Note_on_c, 0, 70, 57
1, 1052465, Note_off_c, 0, 69, 38
1, 1052466, Control_c, 0, 64, 72
1, 1052480, Control_c, 0, 64, 73
1, 1052614, Control_c, 0, 64, 71
1, 1052629, Control_c, 0, 64, 69
1, 1052638, Note_on_c, 0, 69, 58
1, 1052641, Note_on_c, 0, 53, 37
1, 1052644, Control_c, 0, 64, 65
1, 1052659, Control_c, 0, 64, 63
1, 1052673, Control_c, 0, 64, 58
1, 1052684, Note_off_c, 0, 70, 54
1, 1052688, Control_c, 0, 64, 50
1, 1052703, Control_c, 0, 64, 38
1, 1052704, Note_off_c, 0, 53, 59
1, 1052724, Control_c, 0, 64, 31
1, 1052748, Note_on_c, 0, 57, 44
1, 1052769, Control_c, 0, 64, 31
1, 1052784, Control_c, 0, 64, 30
1, 1052799, Control_c, 0, 64, 28
1, 1052814, Control_c, 0, 64, 26
1, 1052814, Note_off_c, 0, 69, 64
1, 1052822, Note_off_c, 0, 57, 60
1, 1052829, Control_c, 0, 64, 24
1, 1052831, Note_on_c, 0, 67, 50
1, 1052842, Note_on_c, 0, 52, 49
1, 1052844, Control_c, 0, 64, 21
1, 1052858, Control_c, 0, 64, 18
1, 1052873, Control_c, 0, 64, 12
1, 1052887, Note_off_c, 0, 52, 64
1, 1052888, Control_c, 0, 64, 0
1, 1052930, Note_on_c, 0, 57, 57
1, 1052993, Note_off_c, 0, 57, 54
1, 1053009, Note_on_c, 0, 65, 55
1, 1053030, Note_on_c, 0, 50, 51
1, 1053049, Note_off_c, 0, 67, 37
1, 1053089, Note_off_c, 0, 50, 62
1, 1053106, Note_on_c, 0, 57, 59
1, 1053172, Note_off_c, 0, 57, 59
1, 1053209, Note_on_c, 0, 55, 51
1, 1053210, Note_on_c, 0, 64, 55
1, 1053215, Control_c, 0, 64, 34
1, 1053229, Control_c, 0, 64, 53
1, 1053235, Note_off_c, 0, 65, 47
1, 1053244, Control_c, 0, 64, 60
1, 1053251, Note_off_c, 0, 55, 60
1, 1053259, Control_c, 0, 64, 63
1, 1053273, Control_c, 0, 64, 64
1, 1053288, Control_c, 0, 64, 65
1, 1053289, Note_on_c, 0, 57, 49
1, 1053311, Note_off_c, 0, 64, 62
1, 1053362, Control_c, 0, 64, 64
1, 1053377, Control_c, 0, 64, 64
1, 1053378, Note_off_c, 0, 57, 58
1, 1053392, Control_c, 0, 64, 63
1, 1053397, Note_on_c, 0, 53, 55
1, 1053407, Control_c, 0, 64, 62
1, 1053408, Note_on_c, 0, 64, 58
1, 1053421, Control_c, 0, 64, 60
1, 1053436, Control_c, 0, 64, 57
1, 1053451, Control_c, 0, 64, 54
1, 1053473, Control_c, 0, 64, 49
1, 1053487, Control_c, 0, 64, 43
1, 1053493, Note_on_c, 0, 62, 66
1, 1053502, Control_c, 0, 64, 38
1, 1053517, Control_c, 0, 64, 34
1, 1053520, Note_off_c, 0, 64, 60
1, 1053532, Control_c, 0, 64, 29
1, 1053547, Control_c, 0, 64, 24
1, 1053559, Note_off_c, 0, 53, 65
1, 1053562, Control_c, 0, 64, 15
1, 1053568, Note_off_c, 0, 62, 58
1, 1053577, Control_c, 0, 64, 0
1, 1053591, Note_on_c, 0, 57, 63
1, 1053598, Note_on_c, 0, 50, 53
1, 1053686, Note_on_c, 0, 62, 59
1, 1053687, Note_off_c, 0, 57, 60
1, 1053695, Control_c, 0, 67, 124
1, 1053710, Control_c, 0, 67, 119
1, 1053725, Control_c, 0, 67, 112
1, 1053740, Control_c, 0, 67, 104
1, 1053754, Control_c, 0, 67, 97
1, 1053769, Control_c, 0, 67, 89
1, 1053773, Note_on_c, 0, 49, 53
1, 1053780, Note_off_c, 0, 50, 61
1, 1053783, Note_off_c, 0, 62, 60
1, 1053784, Note_on_c, 0, 65, 62
1, 1053784, Control_c, 0, 67, 82
1, 1053799, Control_c, 0, 67, 76
1, 1053814, Control_c, 0, 67, 71
1, 1053828, Control_c, 0, 67, 66
1, 1053844, Control_c, 0, 67, 61
1, 1053859, Control_c, 0, 67, 57
1, 1053874, Control_c, 0, 67, 54
1, 1053875, Note_on_c, 0, 64, 58
1, 1053889, Control_c, 0, 67, 51
1, 1053903, Control_c, 0, 67, 49
1, 1053918, Control_c, 0, 67, 49
1, 1053920, Note_off_c, 0, 65, 58
1, 1053933, Control_c, 0, 67, 48
1, 1053937, Note_off_c, 0, 64, 60
1, 1053948, Control_c, 0, 67, 48
1, 1053955, Note_on_c, 0, 57, 60
1, 1053955, Note_off_c, 0, 49, 59
1, 1053961, Note_on_c, 0, 45, 58
1, 1054060, Note_on_c, 0, 64, 56
1, 1054081, Control_c, 0, 67, 48
1, 1054091, Note_off_c, 0, 57, 45
1, 1054096, Control_c, 0, 67, 49
1, 1054110, Control_c, 0, 67, 51
1, 1054125, Control_c, 0, 67, 54
1, 1054140, Note_on_c, 0, 53, 72
1, 1054140, Control_c, 0, 67, 57
1, 1054155, Control_c, 0, 67, 60
1, 1054170, Control_c, 0, 67, 64
1, 1054174, Note_on_c, 0, 61, 65
1, 1054179, Note_off_c, 0, 45, 40
1, 1054184, Note_off_c, 0, 64, 62
1, 1054185, Control_c, 0, 67, 70
1, 1054200, Control_c, 0, 67, 79
1, 1054222, Control_c, 0, 67, 88
1, 1054237, Control_c, 0, 67, 95
1, 1054251, Control_c, 0, 67, 101
1, 1054266, Control_c, 0, 67, 106
1, 1054272, Note_on_c, 0, 62, 66
1, 1054281, Control_c, 0, 67, 110
1, 1054283, Note_off_c, 0, 61, 48
1, 1054295, Control_c, 0, 67, 112
1, 1054310, Control_c, 0, 67, 112
1, 1054325, Control_c, 0, 67, 113
1, 1054334, Note_off_c, 0, 62, 59
1, 1054360, Note_on_c, 0, 50, 63
1, 1054370, Note_on_c, 0, 57, 62
1, 1054385, Control_c, 0, 67, 112
1, 1054443, Note_off_c, 0, 53, 52
1, 1054444, Control_c, 0, 67, 113
1, 1054459, Note_on_c, 0, 62, 66
1, 1054459, Control_c, 0, 67, 114
1, 1054471, Note_off_c, 0, 57, 58
1, 1054474, Control_c, 0, 67, 114
1, 1054489, Control_c, 0, 67, 116
1, 1054503, Control_c, 0, 67, 119
1, 1054526, Note_off_c, 0, 62, 60
1, 1054533, Control_c, 0, 67, 119
1, 1054536, Note_on_c, 0, 49, 63
1, 1054554, Note_on_c, 0, 65, 68
1, 1054563, Control_c, 0, 67, 119
1, 1054576, Note_off_c, 0, 50, 59
1, 1054577, Control_c, 0, 67, 118
1, 1054592, Control_c, 0, 64, 24
1, 1054592, Control_c, 0, 67, 117
1, 1054607, Control_c, 0, 64, 40
1, 1054607, Control_c, 0, 67, 117
1, 1054622, Control_c, 0, 64, 47
1, 1054622, Control_c, 0, 67, 116
1, 1054631, Note_off_c, 0, 65, 60
1, 1054637, Control_c, 0, 64, 50
1, 1054637, Control_c, 0, 67, 115
1, 1054640, Note_on_c, 0, 64, 49
1, 1054653, Control_c, 0, 64, 50
1, 1054653, Control_c, 0, 67, 115
1, 1054667, Control_c, 0, 67, 113
1, 1054682, Control_c, 0, 67, 112
1, 1054696, Note_off_c, 0, 64, 57
1, 1054697, Control_c, 0, 67, 111
1, 1054698, Note_on_c, 0, 45, 53
1, 1054712, Control_c, 0, 64, 50
1, 1054712, Control_c, 0, 67, 109
1, 1054721, Note_on_c, 0, 57, 53
1, 1054726, Control_c, 0, 67, 109
1, 1054740, Note_off_c, 0, 49, 58
1, 1054741, Control_c, 0, 64, 49
1, 1054741, Control_c, 0, 67, 108
1, 1054770, Control_c, 0, 67, 108
1, 1054785, Control_c, 0, 64, 49
1, 1054789, Note_off_c, 0, 57, 57
1, 1054816, Note_on_c, 0, 64, 58
1, 1054844, Control_c, 0, 64, 47
1, 1054844, Control_c, 0, 67, 108
1, 1054859, Control_c, 0, 64, 44
1, 1054869, Note_off_c, 0, 64, 60
1, 1054874, Control_c, 0, 64, 39
1, 1054874, Control_c, 0, 67, 109
1, 1054889, Control_c, 0, 64, 23
1, 1054903, Control_c, 0, 64, 0
1, 1054903, Control_c, 0, 67, 110
1, 1054912, Note_on_c, 0, 60, 75
1, 1054914, Note_on_c, 0, 67, 69
1, 1054918, Control_c, 0, 67, 111
1, 1054933, Control_c, 0, 67, 113
1, 1054948, Control_c, 0, 67, 115
1, 1054970, Control_c, 0, 67, 117
1, 1054985, Control_c, 0, 64, 31
1, 1054985, Control_c, 0, 67, 119
1, 1054999, Control_c, 0, 64, 43
1, 1054999, Control_c, 0, 67, 122
1, 1055014, Note_on_c, 0, 65, 67
1, 1055014, Control_c, 0, 64, 49
1, 1055014, Control_c, 0, 67, 127
1, 1055029, Control_c, 0, 64, 51
1, 1055044, Control_c, 0, 64, 53
1, 1055058, Control_c, 0, 64, 54
1, 1055073, Control_c, 0, 64, 55
1, 1055088, Control_c, 0, 64, 57
1, 1055090, Note_off_c, 0, 65, 60
1, 1055092, Note_on_c, 0, 64, 72
1, 1055097, Note_off_c, 0, 67, 34
1, 1055103, Control_c, 0, 64, 58
1, 1055118, Control_c, 0, 64, 59
1, 1055118, Note_on_c, 0, 43, 56
1, 1055148, Control_c, 0, 64, 58
1, 1055163, Control_c, 0, 64, 58
1, 1055178, Control_c, 0, 64, 57
1, 1055189, Note_off_c, 0, 60, 40
1, 1055192, Control_c, 0, 64, 56
1, 1055194, Note_on_c, 0, 65, 65
1, 1055204, Note_on_c, 0, 41, 54
1, 1055204, Note_off_c, 0, 43, 54
1, 1055207, Control_c, 0, 64, 53
1, 1055222, Control_c, 0, 64, 48
1, 1055237, Control_c, 0, 64, 38
1, 1055251, Control_c, 0, 64, 21
1, 1055263, Note_off_c, 0, 41, 62
1, 1055266, Control_c, 0, 64, 0
1, 1055268, Note_on_c, 0, 67, 71
1, 1055287, Note_on_c, 0, 40, 63
1, 1055293, Note_off_c, 0, 64, 37
1, 1055297, Note_off_c, 0, 65, 51
1, 1055346, Note_off_c, 0, 67, 59
1, 1055375, Note_on_c, 0, 60, 61
1, 1055414, Control_c, 0, 67, 127
1, 1055440, Note_off_c, 0, 40, 62
1, 1055445, Control_c, 0, 67, 126
1, 1055458, Note_on_c, 0, 36, 60
1, 1055460, Control_c, 0, 67, 126
1, 1055467, Note_on_c, 0, 68, 66
1, 1055468, Note_off_c, 0, 60, 54
1, 1055475, Control_c, 0, 67, 125
1, 1055489, Control_c, 0, 67, 125
1, 1055504, Control_c, 0, 67, 124
1, 1055520, Control_c, 0, 67, 123
1, 1055535, Control_c, 0, 67, 122
1, 1055549, Control_c, 0, 67, 121
1, 1055564, Control_c, 0, 67, 120
1, 1055571, Note_off_c, 0, 68, 59
1, 1055574, Note_on_c, 0, 60, 67
1, 1055579, Control_c, 0, 67, 119
1, 1055594, Control_c, 0, 67, 119
1, 1055609, Control_c, 0, 67, 118
1, 1055619, Note_off_c, 0, 45, 39
1, 1055623, Control_c, 0, 67, 118
1, 1055653, Note_off_c, 0, 60, 60
1, 1055653, Control_c, 0, 67, 117
1, 1055654, Note_on_c, 0, 41, 62
1, 1055661, Note_on_c, 0, 69, 66
1, 1055682, Control_c, 0, 67, 117
1, 1055735, Note_off_c, 0, 69, 61
1, 1055765, Note_on_c, 0, 60, 64
1, 1055803, Note_off_c, 0, 36, 34
1, 1055848, Note_on_c, 0, 70, 70
1, 1055850, Note_off_c, 0, 60, 57
1, 1055861, Note_on_c, 0, 43, 63
1, 1055900, Note_off_c, 0, 41, 64
1, 1055946, Note_on_c, 0, 60, 66
1, 1055946, Note_off_c, 0, 70, 59
1, 1056001, Control_c, 0, 64, 10
1, 1056015, Control_c, 0, 64, 26
1, 1056023, Note_off_c, 0, 43, 61
1, 1056030, Control_c, 0, 64, 37
1, 1056033, Note_off_c, 0, 60, 60
1, 1056036, Note_on_c, 0, 72, 71
1, 1056039, Note_on_c, 0, 45, 63
1, 1056045, Control_c, 0, 64, 46
1, 1056045, Control_c, 0, 67, 116
1, 1056060, Control_c, 0, 64, 52
1, 1056075, Control_c, 0, 64, 55
1, 1056090, Control_c, 0, 64, 57
1, 1056105, Control_c, 0, 64, 57
1, 1056141, Note_on_c, 0, 60, 60
1, 1056149, Control_c, 0, 64, 57
1, 1056152, Note_off_c, 0, 72, 63
1, 1056164, Control_c, 0, 64, 56
1, 1056179, Control_c, 0, 64, 56
1, 1056187, Note_off_c, 0, 60, 56
1, 1056194, Control_c, 0, 64, 55
1, 1056209, Control_c, 0, 64, 54
1, 1056210, Note_off_c, 0, 45, 64
1, 1056214, Note_on_c, 0, 46, 69
1, 1056223, Control_c, 0, 64, 54
1, 1056233, Note_on_c, 0, 74, 71
1, 1056239, Control_c, 0, 64, 53
1, 1056239, Control_c, 0, 67, 117
1, 1056254, Control_c, 0, 64, 53
1, 1056269, Control_c, 0, 64, 52
1, 1056284, Control_c, 0, 64, 51
1, 1056298, Control_c, 0, 64, 50
1, 1056313, Control_c, 0, 64, 50
1, 1056313, Control_c, 0, 67, 117
1, 1056319, Note_on_c, 0, 64, 67
1, 1056319, Note_off_c, 0, 74, 59
1, 1056328, Control_c, 0, 64, 49
1, 1056343, Control_c, 0, 64, 48
1, 1056358, Control_c, 0, 64, 47
1, 1056372, Control_c, 0, 64, 43
1, 1056387, Control_c, 0, 64, 33
1, 1056400, Note_off_c, 0, 46, 62
1, 1056402, Control_c, 0, 64, 0
1, 1056411, Note_on_c, 0, 72, 71
1, 1056413, Note_on_c, 0, 45, 67
1, 1056444, Note_off_c, 0, 64, 55
1, 1056446, Control_c, 0, 67, 117
1, 1056498, Control_c, 0, 67, 116
1, 1056504, Note_on_c, 0, 65, 70
1, 1056528, Note_off_c, 0, 72, 59
1, 1056591, Note_on_c, 0, 49, 68
1, 1056597, Note_on_c, 0, 70, 70
1, 1056617, Note_off_c, 0, 65, 57
1, 1056647, Note_off_c, 0, 45, 59
1, 1056673, Note_off_c, 0, 70, 61
1, 1056676, Control_c, 0, 67, 117
1, 1056680, Note_on_c, 0, 64, 66
1, 1056690, Control_c, 0, 67, 118
1, 1056705, Control_c, 0, 67, 119
1, 1056720, Control_c, 0, 67, 121
1, 1056735, Control_c, 0, 67, 122
1, 1056750, Control_c, 0, 67, 123
1, 1056764, Control_c, 0, 67, 123
1, 1056778, Note_on_c, 0, 69, 70
1, 1056779, Control_c, 0, 67, 124
1, 1056783, Note_on_c, 0, 50, 69
1, 1056784, Note_off_c, 0, 64, 63
1, 1056794, Control_c, 0, 67, 124
1, 1056809, Control_c, 0, 67, 125
1, 1056814, Note_off_c, 0, 49, 55
1, 1056823, Control_c, 0, 67, 126
1, 1056838, Control_c, 0, 67, 127
1, 1056859, Note_on_c, 0, 65, 67
1, 1056868, Control_c, 0, 67, 127
1, 1056888, Note_off_c, 0, 69, 61
1, 1056950, Note_off_c, 0, 65, 61
1, 1056966, Note_on_c, 0, 67, 64
1, 1056972, Note_on_c, 0, 58, 76
1, 1056981, Note_off_c, 0, 50, 62
1, 1057063, Note_on_c, 0, 62, 68
1, 1057076, Control_c, 0, 64, 45
1, 1057078, Note_off_c, 0, 67, 58
1, 1057091, Control_c, 0, 64, 58
1, 1057106, Control_c, 0, 64, 63
1, 1057114, Note_off_c, 0, 58, 63
1, 1057121, Control_c, 0, 64, 64
1, 1057142, Note_off_c, 0, 62, 59
1, 1057151, Control_c, 0, 64, 63
1, 1057165, Note_on_c, 0, 57, 80
1, 1057166, Control_c, 0, 64, 53
1, 1057169, Note_on_c, 0, 65, 52
1, 1057181, Control_c, 0, 64, 0
1, 1057237, Note_on_c, 0, 62, 69
1, 1057238, Note_off_c, 0, 65, 61
1, 1057262, Control_c, 0, 64, 17
1, 1057276, Control_c, 0, 64, 49
1, 1057291, Control_c, 0, 64, 57
1, 1057306, Control_c, 0, 64, 59
1, 1057321, Control_c, 0, 64, 59
1, 1057336, Note_off_c, 0, 62, 58
1, 1057352, Note_on_c, 0, 67, 61
1, 1057355, Note_on_c, 0, 50, 66
1, 1057363, Note_on_c, 0, 46, 58
1, 1057381, Control_c, 0, 64, 60
1, 1057395, Control_c, 0, 64, 60
1, 1057401, Note_off_c, 0, 57, 61
1, 1057423, Note_off_c, 0, 50, 63
1, 1057433, Note_on_c, 0, 62, 75
1, 1057439, Control_c, 0, 64, 61
1, 1057440, Note_off_c, 0, 46, 62
1, 1057441, Note_off_c, 0, 67, 58
1, 1057454, Control_c, 0, 64, 61
1, 1057469, Control_c, 0, 64, 62
1, 1057484, Control_c, 0, 64, 63
1, 1057511, Note_on_c, 0, 69, 55
1, 1057513, Control_c, 0, 64, 62
1, 1057528, Control_c, 0, 64, 55
1, 1057539, Note_off_c, 0, 62, 46
1, 1057543, Control_c, 0, 64, 23
1, 1057550, Note_on_c, 0, 53, 79
1, 1057553, Note_on_c, 0, 45, 72
1, 1057556, Note_on_c, 0, 50, 65
1, 1057558, Control_c, 0, 64, 0
1, 1057605, Note_on_c, 0, 57, 62
1, 1057614, Note_off_c, 0, 69, 64
1, 1057635, Note_off_c, 0, 53, 63
1, 1057655, Note_off_c, 0, 57, 61
1, 1057726, Note_on_c, 0, 69, 75
1, 1057743, Note_off_c, 0, 50, 57
1, 1057753, Note_on_c, 0, 49, 64
1, 1057765, Note_on_c, 0, 52, 62
1, 1057780, Note_off_c, 0, 45, 57
1, 1057780, Control_c, 0, 64, 28
1, 1057795, Control_c, 0, 64, 36
1, 1057795, Note_off_c, 0, 49, 60
1, 1057810, Control_c, 0, 64, 41
1, 1057817, Note_on_c, 0, 70, 72
1, 1057825, Control_c, 0, 64, 43
1, 1057831, Note_off_c, 0, 69, 65
1, 1057840, Control_c, 0, 64, 44
1, 1057855, Control_c, 0, 64, 45
1, 1057857, Note_off_c, 0, 52, 65
1, 1057866, Note_off_c, 0, 70, 65
1, 1057869, Control_c, 0, 64, 45
1, 1057884, Control_c, 0, 64, 46
1, 1057914, Control_c, 0, 64, 44
1, 1057929, Control_c, 0, 64, 41
1, 1057941, Note_on_c, 0, 53, 70
1, 1057944, Control_c, 0, 64, 28
1, 1057945, Note_on_c, 0, 70, 80
1, 1057966, Control_c, 0, 64, 0
1, 1058038, Note_on_c, 0, 69, 79
1, 1058039, Note_off_c, 0, 70, 56
1, 1058081, Note_off_c, 0, 69, 64
1, 1058119, Poly_aftertouch_c, 0, 69, 0
1, 1058129, Note_on_c, 0, 69, 67
1, 1058133, Note_on_c, 0, 58, 70
1, 1058159, Control_c, 0, 67, 125
1, 1058173, Control_c, 0, 67, 121
1, 1058179, Note_off_c, 0, 53, 62
1, 1058188, Control_c, 0, 67, 116
1, 1058203, Control_c, 0, 67, 111
1, 1058215, Note_on_c, 0, 67, 77
1, 1058215, Note_off_c, 0, 69, 57
1, 1058218, Control_c, 0, 67, 108
1, 1058233, Control_c, 0, 67, 105
1, 1058248, Control_c, 0, 67, 103
1, 1058256, Note_off_c, 0, 67, 57
1, 1058262, Control_c, 0, 67, 102
1, 1058277, Control_c, 0, 67, 100
1, 1058292, Control_c, 0, 67, 98
1, 1058293, Note_off_c, 0, 58, 62
1, 1058307, Control_c, 0, 67, 97
1, 1058312, Note_on_c, 0, 57, 67
1, 1058322, Control_c, 0, 67, 96
1, 1058327, Note_on_c, 0, 67, 73
1, 1058393, Note_off_c, 0, 67, 53
1, 1058412, Note_on_c, 0, 65, 67
1, 1058440, Control_c, 0, 67, 95
1, 1058448, Note_off_c, 0, 65, 61
1, 1058469, Control_c, 0, 67, 95
1, 1058485, Note_off_c, 0, 57, 46
1, 1058497, Note_on_c, 0, 65, 73
1, 1058501, Note_on_c, 0, 55, 67
1, 1058528, Control_c, 0, 67, 95
1, 1058543, Control_c, 0, 67, 96
1, 1058561, Note_off_c, 0, 55, 64
1, 1058574, Note_off_c, 0, 65, 58
1, 1058593, Note_on_c, 0, 64, 73
1, 1058633, Control_c, 0, 67, 95
1, 1058637, Note_off_c, 0, 64, 58
1, 1058647, Control_c, 0, 67, 95
1, 1058662, Control_c, 0, 67, 94
1, 1058677, Control_c, 0, 67, 93
1, 1058692, Control_c, 0, 67, 90
1, 1058695, Note_on_c, 0, 53, 88
1, 1058700, Note_on_c, 0, 64, 77
1, 1058714, Control_c, 0, 67, 82
1, 1058729, Control_c, 0, 67, 73
1, 1058744, Control_c, 0, 67, 59
1, 1058749, Note_off_c, 0, 53, 66
1, 1058758, Control_c, 0, 67, 47
1, 1058773, Control_c, 0, 67, 34
1, 1058788, Control_c, 0, 67, 22
1, 1058799, Note_on_c, 0, 62, 73
1, 1058803, Control_c, 0, 67, 12
1, 1058818, Control_c, 0, 67, 0
1, 1058837, Note_off_c, 0, 64, 61
1, 1058895, Note_off_c, 0, 62, 61
1, 1058907, Note_on_c, 0, 61, 66
1, 1058920, Note_on_c, 0, 50, 67
1, 1058949, Note_off_c, 0, 50, 64
1, 1058985, Note_off_c, 0, 61, 58
1, 1058987, Note_on_c, 0, 62, 69
1, 1059080, Note_off_c, 0, 62, 55
1, 1059109, Note_on_c, 0, 48, 87
1, 1059109, Note_on_c, 0, 67, 80
1, 1059115, Note_on_c, 0, 65, 76
1, 1059151, Note_off_c, 0, 48, 61
1, 1059204, Note_on_c, 0, 64, 67
1, 1059238, Note_off_c, 0, 65, 52
1, 1059270, Note_off_c, 0, 64, 59
1, 1059306, Note_on_c, 0, 46, 76
1, 1059312, Note_on_c, 0, 62, 61
1, 1059332, Note_off_c, 0, 46, 65
1, 1059381, Note_off_c, 0, 67, 54
1, 1059390, Note_on_c, 0, 64, 62
1, 1059443, Note_off_c, 0, 62, 53
1, 1059466, Note_off_c, 0, 64, 64
1, 1059501, Note_on_c, 0, 69, 86
1, 1059507, Note_on_c, 0, 45, 93
1, 1059512, Note_on_c, 0, 67, 71
1, 1059553, Note_off_c, 0, 45, 64
1, 1059615, Note_on_c, 0, 65, 64
1, 1059697, Note_off_c, 0, 65, 61
1, 1059702, Note_on_c, 0, 41, 84
1, 1059705, Note_on_c, 0, 53, 74
1, 1059706, Note_on_c, 0, 64, 67
1, 1059725, Note_off_c, 0, 67, 53
1, 1059729, Note_off_c, 0, 41, 67
1, 1059729, Note_off_c, 0, 53, 68
1, 1059782, Note_off_c, 0, 69, 64
1, 1059804, Note_on_c, 0, 65, 51
1, 1059846, Note_off_c, 0, 65, 60
1, 1059905, Note_on_c, 0, 71, 86
1, 1059906, Note_on_c, 0, 52, 98
1, 1059908, Note_on_c, 0, 40, 95
1, 1059912, Note_on_c, 0, 69, 73
1, 1059938, Note_off_c, 0, 64, 37
1, 1059945, Note_off_c, 0, 52, 68
1, 1059951, Note_off_c, 0, 40, 67
1, 1060012, Note_on_c, 0, 68, 66
1, 1060031, Note_off_c, 0, 69, 61
1, 1060084, Note_off_c, 0, 68, 63
1, 1060097, Note_off_c, 0, 71, 41
1, 1060099, Note_on_c, 0, 38, 82
1, 1060099, Note_on_c, 0, 66, 73
1, 1060102, Note_on_c, 0, 50, 75
1, 1060127, Note_off_c, 0, 38, 65
1, 1060127, Note_off_c, 0, 50, 66
1, 1060185, Note_on_c, 0, 68, 72
1, 1060215, Note_off_c, 0, 66, 62
1, 1060275, Note_off_c, 0, 68, 61
1, 1060299, Note_on_c, 0, 72, 89
1, 1060302, Note_on_c, 0, 48, 98
1, 1060303, Note_on_c, 0, 36, 99
1, 1060311, Note_on_c, 0, 71, 82
1, 1060341, Note_off_c, 0, 48, 66
1, 1060354, Note_off_c, 0, 36, 64
1, 1060408, Note_on_c, 0, 69, 76
1, 1060430, Note_off_c, 0, 72, 61
1, 1060433, Note_off_c, 0, 71, 59
1, 1060478, Note_off_c, 0, 69, 63
1, 1060490, Note_on_c, 0, 33, 87
1, 1060493, Note_on_c, 0, 45, 84
1, 1060501, Note_on_c, 0, 68, 78
1, 1060519, Note_off_c, 0, 45, 69
1, 1060524, Note_off_c, 0, 33, 66
1, 1060584, Note_off_c, 0, 68, 63
1, 1060609, Note_on_c, 0, 69, 64
1, 1060663, Note_off_c, 0, 69, 65
1, 1060691, Note_on_c, 0, 74, 89
1, 1060697, Note_on_c, 0, 43, 100
1, 1060698, Note_on_c, 0, 31, 95
1, 1060698, Note_on_c, 0, 72, 81
1, 1060742, Note_off_c, 0, 43, 64
1, 1060748, Note_off_c, 0, 31, 63
1, 1060791, Note_on_c, 0, 71, 77
1, 1060838, Note_off_c, 0, 72, 57
1, 1060884, Note_off_c, 0, 71, 61
1, 1060887, Note_on_c, 0, 29, 89
1, 1060892, Note_on_c, 0, 69, 80
1, 1060897, Note_on_c, 0, 41, 71
1, 1060898, Note_off_c, 0, 74, 52
1, 1060907, Note_on_c, 0, 40, 68
1, 1060925, Note_off_c, 0, 29, 64
1, 1060929, Note_off_c, 0, 41, 66
1, 1060931, Note_off_c, 0, 40, 63
1, 1060997, Note_on_c, 0, 71, 71
1, 1061023, Note_off_c, 0, 69, 63
1, 1061086, Note_on_c, 0, 68, 94
1, 1061089, Note_on_c, 0, 40, 92
1, 1061090, Note_on_c, 0, 28, 95
1, 1061138, Note_off_c, 0, 71, 60
1, 1061151, Note_off_c, 0, 40, 65
1, 1061159, Note_off_c, 0, 28, 63
1, 1061193, Note_on_c, 0, 76, 78
1, 1061231, Note_off_c, 0, 68, 61
1, 1061278, Note_on_c, 0, 26, 83
1, 1061280, Note_on_c, 0, 69, 80
1, 1061283, Note_on_c, 0, 38, 78
1, 1061297, Note_off_c, 0, 76, 63
1, 1061316, Note_off_c, 0, 26, 64
1, 1061318, Note_off_c, 0, 38, 67
1, 1061377, Note_on_c, 0, 77, 85
1, 1061401, Note_off_c, 0, 69, 62
1, 1061470, Note_on_c, 0, 40, 98
1, 1061472, Note_on_c, 0, 28, 100
1, 1061484, Note_on_c, 0, 69, 87
1, 1061503, Note_off_c, 0, 77, 59
1, 1061524, Note_off_c, 0, 28, 64
1, 1061527, Note_off_c, 0, 40, 63
1, 1061572, Note_on_c, 0, 72, 77
1, 1061610, Note_off_c, 0, 69, 59
1, 1061670, Note_on_c, 0, 28, 82
1, 1061672, Note_on_c, 0, 68, 83
1, 1061673, Note_on_c, 0, 40, 82
1, 1061680, Note_off_c, 0, 72, 62
1, 1061693, Note_off_c, 0, 28, 66
1, 1061709, Note_off_c, 0, 40, 68
1, 1061764, Note_on_c, 0, 71, 75
1, 1061765, Note_off_c, 0, 68, 61
1, 1061859, Note_on_c, 0, 47, 88
1, 1061864, Note_on_c, 0, 69, 90
1, 1061881, Note_off_c, 0, 71, 41
1, 1061907, Note_off_c, 0, 69, 68
1, 1061943, Note_off_c, 0, 47, 48
1, 1061959, Note_on_c, 0, 45, 71
1, 1062036, Note_off_c, 0, 45, 63
1, 1062055, Note_on_c, 0, 44, 63
1, 1062059, Note_on_c, 0, 93, 94
1, 1062067, Note_on_c, 0, 81, 74
1, 1062093, Note_off_c, 0, 81, 64
1, 1062097, Note_off_c, 0, 93, 62
1, 1062159, Note_off_c, 0, 44, 55
1, 1062164, Note_on_c, 0, 45, 67
1, 1062239, Note_off_c, 0, 45, 64
1, 1062249, Note_on_c, 0, 91, 99
1, 1062251, Note_on_c, 0, 79, 91
1, 1062260, Note_on_c, 0, 48, 78
1, 1062293, Note_off_c, 0, 79, 65
1, 1062302, Note_off_c, 0, 91, 60
1, 1062332, Note_off_c, 0, 48, 56
1, 1062348, Note_on_c, 0, 47, 71
1, 1062414, Note_off_c, 0, 47, 63
1, 1062430, Note_on_c, 0, 45, 68
1, 1062438, Note_on_c, 0, 89, 83
1, 1062448, Note_on_c, 0, 77, 70
1, 1062476, Note_off_c, 0, 77, 66
1, 1062481, Note_off_c, 0, 89, 65
1, 1062523, Note_off_c, 0, 45, 64
1, 1062528, Note_on_c, 0, 47, 66
1, 1062603, Note_off_c, 0, 47, 64
1, 1062624, Note_on_c, 0, 50, 79
1, 1062628, Note_on_c, 0, 88, 96
1, 1062632, Note_on_c, 0, 76, 91
1, 1062670, Note_off_c, 0, 76, 67
1, 1062678, Note_off_c, 0, 88, 62
1, 1062716, Note_off_c, 0, 50, 55
1, 1062722, Note_on_c, 0, 48, 77
1, 1062789, Note_off_c, 0, 48, 61
1, 1062811, Note_on_c, 0, 47, 71
1, 1062824, Note_on_c, 0, 84, 89
1, 1062828, Note_on_c, 0, 72, 78
1, 1062869, Note_off_c, 0, 72, 63
1, 1062871, Note_off_c, 0, 84, 65
1, 1062901, Note_on_c, 0, 48, 75
1, 1062912, Note_off_c, 0, 47, 56
1, 1062966, Note_off_c, 0, 48, 62
1, 1063002, Note_on_c, 0, 52, 79
1, 1063014, Note_on_c, 0, 83, 95
1, 1063018, Note_on_c, 0, 71, 90
1, 1063066, Note_off_c, 0, 71, 64
1, 1063086, Note_off_c, 0, 83, 59
1, 1063090, Note_off_c, 0, 52, 62
1, 1063093, Note_on_c, 0, 51, 72
1, 1063190, Note_off_c, 0, 51, 61
1, 1063190, Note_on_c, 0, 49, 71
1, 1063211, Note_on_c, 0, 69, 82
1, 1063211, Note_on_c, 0, 81, 78
1, 1063247, Note_on_c, 0, 79, 20
1, 1063248, Note_off_c, 0, 79, 127
1, 1063262, Note_off_c, 0, 69, 65
1, 1063262, Note_off_c, 0, 81, 60
1, 1063289, Note_on_c, 0, 51, 78
1, 1063326, Note_off_c, 0, 49, 59
1, 1063374, Note_off_c, 0, 51, 61
1, 1063381, Note_on_c, 0, 54, 81
1, 1063392, Note_on_c, 0, 79, 95
1, 1063396, Note_on_c, 0, 67, 93
1, 1063439, Note_off_c, 0, 67, 64
1, 1063459, Note_off_c, 0, 79, 63
1, 1063460, Control_c, 0, 64, 8
1, 1063475, Control_c, 0, 64, 20
1, 1063483, Note_on_c, 0, 52, 74
1, 1063484, Note_off_c, 0, 54, 60
1, 1063489, Control_c, 0, 64, 29
1, 1063504, Control_c, 0, 64, 34
1, 1063519, Control_c, 0, 64, 36
1, 1063534, Control_c, 0, 64, 39
1, 1063548, Control_c, 0, 64, 39
1, 1063565, Note_off_c, 0, 52, 66
1, 1063568, Note_on_c, 0, 51, 70
1, 1063578, Control_c, 0, 64, 40
1, 1063581, Note_on_c, 0, 88, 94
1, 1063588, Note_on_c, 0, 76, 86
1, 1063593, Control_c, 0, 64, 40
1, 1063608, Control_c, 0, 64, 41
1, 1063623, Control_c, 0, 64, 42
1, 1063637, Control_c, 0, 64, 44
1, 1063652, Control_c, 0, 64, 46
1, 1063667, Control_c, 0, 64, 47
1, 1063673, Note_on_c, 0, 52, 78
1, 1063679, Note_off_c, 0, 76, 63
1, 1063682, Control_c, 0, 64, 48
1, 1063696, Note_off_c, 0, 88, 61
1, 1063697, Control_c, 0, 64, 48
1, 1063727, Control_c, 0, 64, 50
1, 1063742, Control_c, 0, 64, 52
1, 1063746, Note_off_c, 0, 51, 54
1, 1063752, Note_off_c, 0, 52, 64
1, 1063756, Control_c, 0, 64, 55
1, 1063771, Control_c, 0, 64, 56
1, 1063772, Note_on_c, 0, 55, 78
1, 1063781, Note_on_c, 0, 86, 89
1, 1063783, Note_on_c, 0, 74, 87
1, 1063786, Control_c, 0, 64, 54
1, 1063800, Control_c, 0, 64, 49
1, 1063815, Control_c, 0, 64, 42
1, 1063830, Control_c, 0, 64, 35
1, 1063845, Control_c, 0, 64, 34
1, 1063860, Control_c, 0, 64, 35
1, 1063861, Note_on_c, 0, 54, 80
1, 1063874, Control_c, 0, 64, 37
1, 1063880, Note_off_c, 0, 55, 62
1, 1063888, Note_off_c, 0, 86, 62
1, 1063893, Note_off_c, 0, 74, 61
1, 1063904, Control_c, 0, 64, 36
1, 1063919, Control_c, 0, 64, 32
1, 1063934, Control_c, 0, 64, 0
1, 1063955, Note_on_c, 0, 52, 74
1, 1063957, Note_off_c, 0, 54, 61
1, 1063970, Note_on_c, 0, 84, 88
1, 1063978, Note_on_c, 0, 72, 83
1, 1064002, Note_on_c, 0, 74, 54
1, 1064003, Note_off_c, 0, 74, 127
1, 1064058, Note_on_c, 0, 54, 81
1, 1064070, Note_off_c, 0, 84, 63
1, 1064078, Note_off_c, 0, 72, 64
1, 1064100, Note_off_c, 0, 52, 62
1, 1064152, Note_on_c, 0, 55, 73
1, 1064155, Note_on_c, 0, 83, 88
1, 1064158, Note_on_c, 0, 71, 90
1, 1064207, Control_c, 0, 64, 52
1, 1064222, Control_c, 0, 64, 56
1, 1064226, Note_off_c, 0, 71, 63
1, 1064238, Control_c, 0, 64, 34
1, 1064250, Note_off_c, 0, 54, 55
1, 1064253, Note_on_c, 0, 59, 76
1, 1064253, Control_c, 0, 64, 0
1, 1064254, Note_off_c, 0, 83, 61
1, 1064316, Note_off_c, 0, 59, 63
1, 1064342, Note_on_c, 0, 86, 89
1, 1064344, Note_on_c, 0, 50, 78
1, 1064345, Note_on_c, 0, 83, 90
1, 1064347, Note_on_c, 0, 77, 86
1, 1064361, Note_off_c, 0, 55, 56
1, 1064428, Note_on_c, 0, 59, 80
1, 1064436, Note_off_c, 0, 77, 62
1, 1064439, Note_off_c, 0, 83, 59
1, 1064447, Note_off_c, 0, 50, 62
1, 1064447, Note_off_c, 0, 86, 61
1, 1064493, Note_off_c, 0, 59, 63
1, 1064535, Control_c, 0, 64, 40
1, 1064538, Note_on_c, 0, 52, 85
1, 1064539, Note_on_c, 0, 84, 93
1, 1064543, Note_on_c, 0, 81, 91
1, 1064549, Note_on_c, 0, 76, 88
1, 1064550, Control_c, 0, 64, 64
1, 1064565, Control_c, 0, 64, 56
1, 1064579, Control_c, 0, 64, 0
1, 1064625, Note_on_c, 0, 60, 79
1, 1064640, Note_off_c, 0, 76, 64
1, 1064643, Note_off_c, 0, 52, 63
1, 1064670, Note_off_c, 0, 81, 52
1, 1064672, Note_off_c, 0, 84, 55
1, 1064684, Note_off_c, 0, 60, 63
1, 1064734, Control_c, 0, 64, 41
1, 1064740, Note_on_c, 0, 50, 82
1, 1064742, Note_on_c, 0, 52, 85
1, 1064746, Note_on_c, 0, 83, 83
1, 1064746, Note_on_c, 0, 80, 83
1, 1064748, Note_on_c, 0, 76, 90
1, 1064749, Control_c, 0, 64, 49
1, 1064764, Control_c, 0, 64, 0
1, 1064788, Note_off_c, 0, 50, 62
1, 1064800, Note_off_c, 0, 76, 67
1, 1064809, Note_off_c, 0, 80, 63
1, 1064819, Note_off_c, 0, 52, 53
1, 1064822, Note_on_c, 0, 64, 82
1, 1064824, Note_off_c, 0, 83, 61
1, 1064861, Note_off_c, 0, 64, 62
1, 1064898, Control_c, 0, 64, 17
1, 1064912, Control_c, 0, 64, 64
1, 1064927, Control_c, 0, 64, 75
1, 1064931, Note_on_c, 0, 81, 99
1, 1064935, Note_on_c, 0, 45, 94
1, 1064935, Note_on_c, 0, 69, 99
1, 1064942, Note_on_c, 0, 57, 82
1, 1064942, Control_c, 0, 64, 92
1, 1064956, Control_c, 0, 64, 127
1, 1064964, Note_off_c, 0, 57, 67
1, 1064972, Note_off_c, 0, 81, 65
1, 1064981, Note_off_c, 0, 45, 66
1, 1064988, Note_off_c, 0, 69, 67
1, 1065135, Control_c, 0, 64, 95
1, 1065137, Note_on_c, 0, 45, 85
1, 1065150, Control_c, 0, 64, 73
1, 1065151, Note_on_c, 0, 69, 84
1, 1065165, Control_c, 0, 64, 59
1, 1065167, Note_off_c, 0, 45, 68
1, 1065180, Control_c, 0, 64, 0
1, 1065185, Note_off_c, 0, 69, 66
1, 1065227, Note_on_c, 0, 45, 90
1, 1065232, Note_on_c, 0, 69, 75
1, 1065273, Note_off_c, 0, 69, 65
1, 1065315, Note_on_c, 0, 69, 80
1, 1065347, Note_off_c, 0, 45, 66
1, 1065378, Note_off_c, 0, 69, 61
1, 1065399, Note_on_c, 0, 48, 91
1, 1065406, Note_on_c, 0, 72, 80
1, 1065497, Note_on_c, 0, 71, 80
1, 1065498, Note_on_c, 0, 47, 77
1, 1065503, Note_off_c, 0, 48, 54
1, 1065506, Note_off_c, 0, 72, 63
1, 1065569, Note_on_c, 0, 45, 72
1, 1065569, Note_off_c, 0, 47, 64
1, 1065578, Note_on_c, 0, 69, 83
1, 1065588, Note_off_c, 0, 71, 60
1, 1065624, Note_off_c, 0, 45, 63
1, 1065636, Note_off_c, 0, 69, 65
1, 1065673, Note_on_c, 0, 52, 96
1, 1065673, Note_on_c, 0, 76, 92
1, 1065674, Note_on_c, 0, 64, 91
1, 1065713, Note_off_c, 0, 76, 70
1, 1065715, Note_off_c, 0, 52, 69
1, 1065715, Note_off_c, 0, 64, 65
1, 1065899, Note_on_c, 0, 77, 98
1, 1065902, Note_on_c, 0, 65, 92
1, 1065905, Note_on_c, 0, 53, 82
1, 1065907, Note_on_c, 0, 41, 78
1, 1065939, Note_off_c, 0, 41, 67
1, 1065939, Note_off_c, 0, 77, 66
1, 1065942, Note_off_c, 0, 65, 64
1, 1065944, Note_off_c, 0, 53, 63
1, 1066171, Note_on_c, 0, 76, 93
1, 1066173, Note_on_c, 0, 64, 93
1, 1066178, Note_on_c, 0, 40, 83
1, 1066178, Note_on_c, 0, 52, 93
1, 1066201, Control_c, 0, 64, 43
1, 1066216, Control_c, 0, 64, 62
1, 1066231, Control_c, 0, 64, 69
1, 1066237, Note_off_c, 0, 40, 64
1, 1066246, Control_c, 0, 64, 74
1, 1066261, Control_c, 0, 64, 79
1, 1066276, Control_c, 0, 64, 82
1, 1066290, Note_off_c, 0, 52, 63
1, 1066290, Control_c, 0, 64, 83
1, 1066304, Note_off_c, 0, 64, 62
1, 1066335, Note_off_c, 0, 76, 56
1, 1066424, Control_c, 0, 64, 82
1, 1066439, Control_c, 0, 64, 81
1, 1066439, Control_c, 0, 67, 8
1, 1066454, Control_c, 0, 64, 78
1, 1066454, Control_c, 0, 67, 12
1, 1066469, Control_c, 0, 64, 75
1, 1066469, Control_c, 0, 67, 17
1, 1066483, Control_c, 0, 64, 71
1, 1066483, Control_c, 0, 67, 23
1, 1066498, Control_c, 0, 64, 66
1, 1066498, Control_c, 0, 67, 31
1, 1066513, Control_c, 0, 64, 61
1, 1066513, Control_c, 0, 67, 38
1, 1066528, Control_c, 0, 64, 49
1, 1066528, Control_c, 0, 67, 47
1, 1066543, Control_c, 0, 64, 21
1, 1066543, Control_c, 0, 67, 54
1, 1066557, Control_c, 0, 64, 0
1, 1066557, Control_c, 0, 67, 61
1, 1066572, Control_c, 0, 67, 68
1, 1066587, Control_c, 0, 67, 74
1, 1066601, Control_c, 0, 67, 79
1, 1066605, Note_on_c, 0, 68, 57
1, 1066614, Note_on_c, 0, 88, 68
1, 1066616, Control_c, 0, 67, 83
1, 1066632, Control_c, 0, 67, 86
1, 1066647, Control_c, 0, 67, 88
1, 1066662, Control_c, 0, 67, 91
1, 1066677, Control_c, 0, 67, 95
1, 1066692, Control_c, 0, 67, 99
1, 1066705, Note_on_c, 0, 89, 66
1, 1066706, Control_c, 0, 67, 102
1, 1066713, Note_off_c, 0, 88, 51
1, 1066721, Control_c, 0, 67, 106
1, 1066736, Control_c, 0, 67, 110
1, 1066751, Control_c, 0, 67, 112
1, 1066766, Control_c, 0, 67, 114
1, 1066780, Control_c, 0, 67, 115
1, 1066802, Note_on_c, 0, 86, 66
1, 1066803, Note_on_c, 0, 77, 59
1, 1066810, Control_c, 0, 67, 115
1, 1066822, Note_off_c, 0, 89, 64
1, 1066824, Control_c, 0, 67, 116
1, 1066825, Note_off_c, 0, 68, 57
1, 1066890, Note_on_c, 0, 88, 71
1, 1066899, Control_c, 0, 67, 116
1, 1066900, Note_off_c, 0, 86, 57
1, 1066913, Control_c, 0, 67, 117
1, 1066928, Control_c, 0, 67, 119
1, 1066951, Control_c, 0, 67, 122
1, 1066966, Control_c, 0, 67, 125
1, 1066976, Note_off_c, 0, 88, 62
1, 1066980, Control_c, 0, 67, 127
1, 1066985, Note_on_c, 0, 76, 78
1, 1067001, Note_on_c, 0, 84, 66
1, 1067016, Note_off_c, 0, 77, 61
1, 1067077, Note_on_c, 0, 86, 68
1, 1067099, Note_off_c, 0, 84, 60
1, 1067169, Note_off_c, 0, 76, 65
1, 1067171, Note_on_c, 0, 74, 73
1, 1067174, Note_on_c, 0, 83, 59
1, 1067195, Note_off_c, 0, 86, 58
1, 1067232, Note_off_c, 0, 83, 61
1, 1067276, Note_on_c, 0, 84, 67
1, 1067361, Note_off_c, 0, 84, 63
1, 1067365, Note_on_c, 0, 83, 62
1, 1067367, Note_on_c, 0, 72, 77
1, 1067403, Note_off_c, 0, 74, 63
1, 1067459, Note_off_c, 0, 83, 51
1, 1067462, Note_on_c, 0, 81, 62
1, 1067503, Note_off_c, 0, 81, 59
1, 1067556, Note_on_c, 0, 76, 55
1, 1067566, Note_on_c, 0, 69, 39
1, 1067651, Note_on_c, 0, 81, 52
1, 1067653, Note_off_c, 0, 76, 58
1, 1067748, Note_off_c, 0, 81, 56
1, 1067764, Note_off_c, 0, 69, 48
1, 1067765, Note_on_c, 0, 84, 52
1, 1067766, Note_on_c, 0, 74, 64
1, 1067772, Note_off_c, 0, 72, 62
1, 1067798, Note_on_c, 0, 68, 44
1, 1067867, Note_on_c, 0, 83, 49
1, 1067906, Note_off_c, 0, 84, 48
1, 1067911, Note_off_c, 0, 83, 59
1, 1067946, Note_off_c, 0, 68, 62
1, 1067952, Note_on_c, 0, 76, 55
1, 1067963, Note_on_c, 0, 64, 45
1, 1068044, Note_off_c, 0, 76, 59
1, 1068058, Note_on_c, 0, 83, 46
1, 1068150, Note_off_c, 0, 64, 32
1, 1068160, Note_off_c, 0, 83, 61
1, 1068163, Note_on_c, 0, 80, 64
1, 1068167, Note_on_c, 0, 72, 62
1, 1068201, Note_off_c, 0, 74, 59
1, 1068246, Note_on_c, 0, 81, 62
1, 1068269, Note_off_c, 0, 80, 51
1, 1068294, Note_off_c, 0, 81, 55
1, 1068344, Note_on_c, 0, 76, 56
1, 1068350, Note_on_c, 0, 69, 52
1, 1068446, Note_on_c, 0, 81, 57
1, 1068447, Note_off_c, 0, 76, 63
1, 1068521, Note_off_c, 0, 72, 63
1, 1068526, Note_off_c, 0, 69, 59
1, 1068535, Note_on_c, 0, 68, 53
1, 1068538, Note_off_c, 0, 81, 59
1, 1068547, Note_on_c, 0, 84, 60
1, 1068548, Note_on_c, 0, 74, 61
1, 1068629, Note_on_c, 0, 83, 65
1, 1068639, Note_off_c, 0, 84, 55
1, 1068669, Note_off_c, 0, 68, 60
1, 1068693, Note_off_c, 0, 74, 58
1, 1068700, Note_off_c, 0, 83, 58
1, 1068700, Control_c, 0, 67, 127
1, 1068715, Control_c, 0, 67, 122
1, 1068730, Control_c, 0, 67, 116
1, 1068734, Note_on_c, 0, 76, 63
1, 1068744, Control_c, 0, 67, 103
1, 1068759, Control_c, 0, 67, 88
1, 1068774, Control_c, 0, 67, 71
1, 1068789, Control_c, 0, 67, 55
1, 1068795, Note_off_c, 0, 76, 64
1, 1068803, Control_c, 0, 67, 42
1, 1068818, Control_c, 0, 67, 32
1, 1068822, Note_on_c, 0, 83, 67
1, 1068833, Control_c, 0, 67, 26
1, 1068848, Control_c, 0, 67, 20
1, 1068859, Note_off_c, 0, 83, 60
1, 1068863, Control_c, 0, 67, 15
1, 1068878, Control_c, 0, 67, 9
1, 1068893, Control_c, 0, 67, 0
1, 1068908, Control_c, 0, 64, 37
1, 1068922, Control_c, 0, 64, 54
1, 1068937, Control_c, 0, 64, 61
1, 1068939, Note_on_c, 0, 45, 95
1, 1068941, Note_on_c, 0, 57, 92
1, 1068943, Note_on_c, 0, 81, 95
1, 1068946, Note_on_c, 0, 69, 95
1, 1068952, Control_c, 0, 64, 64
1, 1068967, Control_c, 0, 64, 66
1, 1068980, Note_off_c, 0, 57, 66
1, 1068982, Control_c, 0, 64, 68
1, 1068985, Note_off_c, 0, 81, 66
1, 1068988, Note_off_c, 0, 45, 64
1, 1068994, Note_off_c, 0, 69, 66
1, 1068996, Control_c, 0, 64, 70
1, 1069012, Control_c, 0, 64, 71
1, 1069027, Control_c, 0, 64, 71
1, 1069131, Control_c, 0, 64, 70
1, 1069146, Control_c, 0, 64, 68
1, 1069161, Control_c, 0, 64, 66
1, 1069175, Control_c, 0, 64, 64
1, 1069190, Control_c, 0, 64, 61
1, 1069200, Note_on_c, 0, 45, 85
1, 1069201, Note_on_c, 0, 69, 91
1, 1069212, Control_c, 0, 64, 54
1, 1069227, Control_c, 0, 64, 39
1, 1069238, Note_off_c, 0, 69, 69
1, 1069239, Note_off_c, 0, 45, 64
1, 1069242, Control_c, 0, 64, 0
1, 1069283, Note_on_c, 0, 69, 83
1, 1069285, Note_on_c, 0, 45, 79
1, 1069317, Note_off_c, 0, 69, 69
1, 1069329, Note_off_c, 0, 45, 60
1, 1069364, Note_on_c, 0, 45, 79
1, 1069366, Note_on_c, 0, 69, 91
1, 1069408, Note_off_c, 0, 45, 66
1, 1069415, Note_off_c, 0, 69, 66
1, 1069456, Note_on_c, 0, 48, 85
1, 1069459, Note_on_c, 0, 72, 80
1, 1069538, Control_c, 0, 64, 29
1, 1069540, Note_on_c, 0, 71, 79
1, 1069542, Note_off_c, 0, 72, 64
1, 1069549, Note_on_c, 0, 47, 72
1, 1069552, Control_c, 0, 64, 34
1, 1069562, Note_off_c, 0, 48, 53
1, 1069567, Control_c, 0, 64, 35
1, 1069597, Control_c, 0, 64, 35
1, 1069609, Note_on_c, 0, 69, 77
1, 1069611, Note_off_c, 0, 47, 63
1, 1069612, Control_c, 0, 64, 36
1, 1069617, Note_on_c, 0, 45, 72
1, 1069618, Note_off_c, 0, 71, 56
1, 1069626, Control_c, 0, 64, 37
1, 1069641, Control_c, 0, 64, 38
1, 1069656, Control_c, 0, 64, 40
1, 1069660, Note_off_c, 0, 45, 62
1, 1069671, Control_c, 0, 64, 42
1, 1069672, Note_off_c, 0, 69, 64
1, 1069686, Control_c, 0, 64, 41
1, 1069701, Control_c, 0, 64, 32
1, 1069707, Note_on_c, 0, 76, 91
1, 1069707, Note_on_c, 0, 64, 93
1, 1069712, Note_on_c, 0, 52, 96
1, 1069716, Control_c, 0, 64, 0
1, 1069748, Note_off_c, 0, 64, 65
1, 1069753, Note_off_c, 0, 76, 66
1, 1069757, Note_off_c, 0, 52, 67
1, 1069946, Note_on_c, 0, 81, 97
1, 1069953, Note_on_c, 0, 69, 95
1, 1069956, Note_on_c, 0, 75, 88
1, 1069957, Note_on_c, 0, 53, 86
1, 1069964, Note_on_c, 0, 41, 75
1, 1069965, Note_on_c, 0, 43, 69
1, 1069993, Note_off_c, 0, 69, 67
1, 1069999, Note_off_c, 0, 41, 65
1, 1069999, Note_off_c, 0, 81, 59
1, 1070006, Note_off_c, 0, 53, 65
1, 1070009, Note_off_c, 0, 43, 61
1, 1070021, Note_off_c, 0, 75, 62
1, 1070232, Note_on_c, 0, 76, 96
1, 1070234, Note_on_c, 0, 64, 96
1, 1070237, Note_on_c, 0, 52, 95
1, 1070239, Note_on_c, 0, 40, 89
1, 1070242, Control_c, 0, 64, 46
1, 1070257, Control_c, 0, 64, 62
1, 1070272, Control_c, 0, 64, 66
1, 1070287, Control_c, 0, 64, 69
1, 1070291, Note_off_c, 0, 40, 64
1, 1070302, Control_c, 0, 64, 72
1, 1070316, Control_c, 0, 64, 75
1, 1070330, Note_off_c, 0, 64, 63
1, 1070331, Control_c, 0, 64, 77
1, 1070346, Control_c, 0, 64, 78
1, 1070350, Note_off_c, 0, 52, 62
1, 1070369, Note_off_c, 0, 76, 54
1, 1070494, Control_c, 0, 64, 77
1, 1070509, Control_c, 0, 64, 77
1, 1070523, Control_c, 0, 64, 76
1, 1070523, Control_c, 0, 67, 11
1, 1070538, Control_c, 0, 64, 74
1, 1070538, Control_c, 0, 67, 15
1, 1070553, Control_c, 0, 64, 73
1, 1070553, Control_c, 0, 67, 19
1, 1070568, Control_c, 0, 64, 71
1, 1070568, Control_c, 0, 67, 25
1, 1070583, Control_c, 0, 64, 68
1, 1070583, Control_c, 0, 67, 30
1, 1070598, Control_c, 0, 64, 65
1, 1070598, Control_c, 0, 67, 35
1, 1070613, Control_c, 0, 64, 62
1, 1070613, Control_c, 0, 67, 41
1, 1070628, Control_c, 0, 64, 56
1, 1070628, Control_c, 0, 67, 48
1, 1070643, Control_c, 0, 64, 48
1, 1070643, Control_c, 0, 67, 55
1, 1070658, Control_c, 0, 64, 38
1, 1070658, Control_c, 0, 67, 65
1, 1070660, Note_on_c, 0, 68, 60
1, 1070666, Note_on_c, 0, 88, 60
1, 1070672, Control_c, 0, 64, 31
1, 1070672, Control_c, 0, 67, 75
1, 1070695, Control_c, 0, 64, 26
1, 1070695, Control_c, 0, 67, 85
1, 1070710, Note_off_c, 0, 68, 0
1, 1070710, Note_on_c, 0, 68, 35
1, 1070710, Control_c, 0, 64, 23
1, 1070710, Control_c, 0, 67, 96
1, 1070725, Control_c, 0, 67, 108
1, 1070740, Control_c, 0, 67, 120
1, 1070750, Note_off_c, 0, 88, 54
1, 1070754, Control_c, 0, 64, 22
1, 1070754, Control_c, 0, 67, 127
1, 1070756, Note_on_c, 0, 90, 55
1, 1070769, Control_c, 0, 64, 23
1, 1070784, Control_c, 0, 64, 25
1, 1070798, Control_c, 0, 64, 26
1, 1070820, Note_off_c, 0, 90, 62
1, 1070837, Note_on_c, 0, 78, 77
1, 1070858, Control_c, 0, 64, 25
1, 1070860, Note_on_c, 0, 86, 64
1, 1070872, Control_c, 0, 64, 22
1, 1070887, Control_c, 0, 64, 18
1, 1070902, Control_c, 0, 64, 14
1, 1070917, Control_c, 0, 64, 12
1, 1070932, Control_c, 0, 64, 10
1, 1070947, Control_c, 0, 64, 0
1, 1070951, Note_on_c, 0, 88, 72
1, 1070962, Note_off_c, 0, 86, 58
1, 1071037, Note_on_c, 0, 85, 75
1, 1071045, Note_on_c, 0, 76, 72
1, 1071047, Note_off_c, 0, 88, 63
1, 1071057, Note_off_c, 0, 78, 62
1, 1071072, Note_off_c, 0, 68, 37
1, 1071119, Note_on_c, 0, 86, 69
1, 1071131, Note_off_c, 0, 85, 53
1, 1071176, Note_off_c, 0, 86, 62
1, 1071215, Note_off_c, 0, 76, 64
1, 1071220, Note_on_c, 0, 83, 41
1, 1071221, Note_on_c, 0, 74, 71
1, 1071225, Note_on_c, 0, 81, 52
1, 1071267, Note_off_c, 0, 81, 45
1, 1071296, Note_on_c, 0, 85, 66
1, 1071307, Note_off_c, 0, 83, 58
1, 1071416, Note_on_c, 0, 83, 62
1, 1071418, Note_on_c, 0, 73, 74
1, 1071471, Note_off_c, 0, 74, 56
1, 1071496, Note_off_c, 0, 85, 26
1, 1071504, Note_off_c, 0, 83, 55
1, 1071508, Note_on_c, 0, 81, 66
1, 1071561, Note_off_c, 0, 81, 60
1, 1071618, Note_on_c, 0, 69, 49
1, 1071630, Note_on_c, 0, 76, 38
1, 1071706, Note_on_c, 0, 81, 53
1, 1071707, Note_off_c, 0, 76, 60
1, 1071792, Note_on_c, 0, 85, 60
1, 1071799, Note_off_c, 0, 81, 54
1, 1071814, Note_on_c, 0, 74, 62
1, 1071814, Note_off_c, 0, 69, 50
1, 1071831, Note_off_c, 0, 73, 58
1, 1071838, Note_on_c, 0, 68, 52
1, 1071918, Note_on_c, 0, 83, 32
1, 1071918, Note_on_c, 0, 84, 29
1, 1071950, Note_off_c, 0, 84, 54
1, 1071951, Note_off_c, 0, 83, 51
1, 1071962, Note_off_c, 0, 85, 45
1, 1071990, Note_on_c, 0, 76, 63
1, 1071994, Note_off_c, 0, 68, 60
1, 1072020, Note_on_c, 0, 64, 49
1, 1072109, Note_on_c, 0, 83, 50
1, 1072112, Note_off_c, 0, 76, 49
1, 1072220, Note_off_c, 0, 83, 60
1, 1072221, Note_on_c, 0, 73, 69
1, 1072225, Note_on_c, 0, 80, 64
1, 1072228, Note_off_c, 0, 64, 53
1, 1072261, Note_off_c, 0, 74, 61
1, 1072299, Note_on_c, 0, 81, 68
1, 1072318, Note_off_c, 0, 80, 53
1, 1072359, Note_off_c, 0, 81, 60
1, 1072398, Note_on_c, 0, 76, 65
1, 1072411, Note_on_c, 0, 69, 54
1, 1072494, Note_on_c, 0, 81, 59
1, 1072503, Note_off_c, 0, 76, 56
1, 1072571, Note_off_c, 0, 73, 54
1, 1072583, Note_off_c, 0, 81, 53
1, 1072595, Note_on_c, 0, 85, 72
1, 1072606, Note_on_c, 0, 68, 56
1, 1072606, Note_on_c, 0, 74, 58
1, 1072632, Note_off_c, 0, 69, 33
1, 1072700, Note_on_c, 0, 83, 63
1, 1072756, Control_c, 0, 64, 45
1, 1072759, Note_off_c, 0, 74, 59
1, 1072765, Note_off_c, 0, 85, 36
1, 1072771, Control_c, 0, 64, 55
1, 1072777, Note_off_c, 0, 83, 59
1, 1072786, Control_c, 0, 64, 59
1, 1072788, Note_on_c, 0, 64, 56
1, 1072790, Note_on_c, 0, 76, 64
1, 1072801, Control_c, 0, 64, 60
1, 1072831, Note_off_c, 0, 68, 55
1, 1072844, Note_off_c, 0, 64, 63
1, 1072845, Control_c, 0, 67, 122
1, 1072860, Control_c, 0, 64, 59
1, 1072860, Control_c, 0, 67, 105
1, 1072875, Control_c, 0, 64, 57
1, 1072875, Control_c, 0, 67, 84
1, 1072881, Note_off_c, 0, 76, 63
1, 1072890, Control_c, 0, 64, 52
1, 1072890, Control_c, 0, 67, 60
1, 1072894, Note_on_c, 0, 83, 52
1, 1072905, Control_c, 0, 64, 45
1, 1072905, Control_c, 0, 67, 41
1, 1072915, Note_off_c, 0, 83, 39
1, 1072919, Control_c, 0, 64, 38
1, 1072919, Control_c, 0, 67, 24
1, 1072941, Control_c, 0, 64, 36
1, 1072941, Control_c, 0, 67, 8
1, 1072956, Control_c, 0, 64, 37
1, 1072956, Control_c, 0, 67, 0
1, 1072971, Control_c, 0, 64, 39
1, 1072986, Control_c, 0, 64, 43
1, 1073000, Control_c, 0, 64, 48
1, 1073016, Control_c, 0, 64, 53
1, 1073031, Control_c, 0, 64, 56
1, 1073046, Control_c, 0, 64, 58
1, 1073050, Note_on_c, 0, 45, 92
1, 1073052, Note_on_c, 0, 57, 88
1, 1073061, Control_c, 0, 64, 58
1, 1073066, Note_on_c, 0, 60, 72
1, 1073067, Note_on_c, 0, 59, 62
1, 1073082, Note_on_c, 0, 47, 71
1, 1073089, Note_off_c, 0, 60, 68
1, 1073091, Note_off_c, 0, 57, 60
1, 1073105, Control_c, 0, 64, 59
1, 1073120, Note_off_c, 0, 59, 63
1, 1073120, Control_c, 0, 64, 60
1, 1073135, Control_c, 0, 64, 62
1, 1073143, Note_on_c, 0, 57, 66
1, 1073150, Control_c, 0, 64, 62
1, 1073164, Control_c, 0, 64, 63
1, 1073167, Note_off_c, 0, 45, 62
1, 1073179, Control_c, 0, 64, 64
1, 1073187, Note_off_c, 0, 47, 42
1, 1073194, Note_on_c, 0, 44, 53
1, 1073194, Control_c, 0, 64, 65
1, 1073209, Control_c, 0, 64, 65
1, 1073230, Note_on_c, 0, 56, 75
1, 1073239, Control_c, 0, 64, 66
1, 1073254, Control_c, 0, 64, 67
1, 1073255, Note_off_c, 0, 57, 55
1, 1073268, Control_c, 0, 64, 68
1, 1073274, Note_off_c, 0, 44, 62
1, 1073279, Note_on_c, 0, 42, 57
1, 1073283, Control_c, 0, 64, 69
1, 1073298, Control_c, 0, 64, 70
1, 1073313, Control_c, 0, 64, 71
1, 1073325, Note_on_c, 0, 54, 81
1, 1073328, Control_c, 0, 64, 73
1, 1073342, Control_c, 0, 64, 75
1, 1073357, Control_c, 0, 64, 76
1, 1073366, Note_off_c, 0, 42, 55
1, 1073372, Control_c, 0, 64, 77
1, 1073379, Note_off_c, 0, 56, 61
1, 1073381, Note_off_c, 0, 54, 65
1, 1073401, Control_c, 0, 64, 76
1, 1073416, Note_on_c, 0, 40, 72
1, 1073416, Control_c, 0, 64, 73
1, 1073418, Note_on_c, 0, 52, 81
1, 1073431, Control_c, 0, 64, 67
1, 1073442, Note_off_c, 0, 40, 68
1, 1073446, Control_c, 0, 64, 54
1, 1073448, Note_off_c, 0, 52, 69
1, 1073460, Control_c, 0, 64, 0
1, 1073528, Note_on_c, 0, 69, 57
1, 1073560, Note_off_c, 0, 69, 67
1, 1073615, Note_on_c, 0, 64, 59
1, 1073627, Note_on_c, 0, 57, 50
1, 1073629, Note_on_c, 0, 49, 59
1, 1073653, Note_off_c, 0, 57, 56
1, 1073654, Note_off_c, 0, 49, 37
1, 1073746, Note_on_c, 0, 73, 55
1, 1073754, Note_off_c, 0, 64, 56
1, 1073851, Note_on_c, 0, 54, 49
1, 1073856, Note_on_c, 0, 50, 48
1, 1073858, Note_on_c, 0, 66, 65
1, 1073916, Note_off_c, 0, 73, 54
1, 1073944, Note_on_c, 0, 71, 58
1, 1073946, Note_off_c, 0, 66, 65
1, 1074013, Note_off_c, 0, 71, 62
1, 1074040, Note_on_c, 0, 66, 67
1, 1074045, Note_off_c, 0, 50, 57
1, 1074045, Note_off_c, 0, 54, 63
1, 1074063, Note_on_c, 0, 59, 58
1, 1074124, Note_off_c, 0, 66, 61
1, 1074135, Note_on_c, 0, 78, 68
1, 1074140, Note_off_c, 0, 59, 51
1, 1074237, Note_on_c, 0, 73, 76
1, 1074237, Note_off_c, 0, 78, 62
1, 1074239, Note_on_c, 0, 61, 70
1, 1074249, Note_on_c, 0, 52, 58
1, 1074328, Note_off_c, 0, 73, 59
1, 1074330, Note_on_c, 0, 76, 73
1, 1074372, Control_c, 0, 64, 44
1, 1074387, Control_c, 0, 64, 54
1, 1074402, Control_c, 0, 64, 58
1, 1074411, Note_off_c, 0, 76, 62
1, 1074416, Control_c, 0, 64, 59
1, 1074422, Note_on_c, 0, 62, 58
1, 1074436, Note_on_c, 0, 71, 76
1, 1074438, Control_c, 0, 64, 60
1, 1074440, Note_off_c, 0, 61, 61
1, 1074454, Note_off_c, 0, 62, 64
1, 1074458, Note_off_c, 0, 52, 62
1, 1074483, Control_c, 0, 64, 59
1, 1074497, Control_c, 0, 64, 59
1, 1074512, Control_c, 0, 64, 57
1, 1074518, Note_off_c, 0, 71, 61
1, 1074527, Control_c, 0, 64, 53
1, 1074542, Control_c, 0, 64, 47
1, 1074557, Control_c, 0, 64, 41
1, 1074571, Control_c, 0, 64, 39
1, 1074586, Control_c, 0, 64, 40
1, 1074601, Control_c, 0, 64, 42
1, 1074617, Control_c, 0, 64, 45
1, 1074632, Control_c, 0, 64, 47
1, 1074642, Note_on_c, 0, 45, 95
1, 1074646, Control_c, 0, 64, 49
1, 1074650, Note_on_c, 0, 57, 91
1, 1074661, Control_c, 0, 64, 52
1, 1074676, Control_c, 0, 64, 54
1, 1074681, Note_on_c, 0, 59, 74
1, 1074690, Note_off_c, 0, 57, 65
1, 1074691, Control_c, 0, 64, 55
1, 1074701, Note_on_c, 0, 47, 84
1, 1074706, Control_c, 0, 64, 56
1, 1074715, Note_off_c, 0, 45, 66
1, 1074720, Control_c, 0, 64, 57
1, 1074730, Note_off_c, 0, 59, 65
1, 1074735, Control_c, 0, 64, 58
1, 1074750, Control_c, 0, 64, 58
1, 1074756, Note_on_c, 0, 57, 74
1, 1074765, Control_c, 0, 64, 59
1, 1074783, Note_on_c, 0, 45, 71
1, 1074783, Note_off_c, 0, 47, 62
1, 1074837, Note_on_c, 0, 56, 76
1, 1074858, Note_off_c, 0, 57, 61
1, 1074868, Note_on_c, 0, 44, 62
1, 1074869, Control_c, 0, 64, 59
1, 1074872, Note_off_c, 0, 45, 63
1, 1074884, Control_c, 0, 64, 60
1, 1074899, Control_c, 0, 64, 60
1, 1074913, Control_c, 0, 64, 61
1, 1074928, Control_c, 0, 64, 62
1, 1074943, Control_c, 0, 64, 62
1, 1074944, Note_on_c, 0, 54, 80
1, 1074947, Note_off_c, 0, 44, 62
1, 1074958, Note_on_c, 0, 42, 69
1, 1074987, Control_c, 0, 64, 61
1, 1074989, Note_off_c, 0, 56, 62
1, 1074999, Note_off_c, 0, 54, 65
1, 1075002, Control_c, 0, 64, 58
1, 1075017, Control_c, 0, 64, 40
1, 1075027, Note_on_c, 0, 52, 86
1, 1075030, Note_on_c, 0, 40, 76
1, 1075030, Note_off_c, 0, 42, 63
1, 1075031, Control_c, 0, 64, 0
1, 1075051, Note_off_c, 0, 52, 72
1, 1075053, Note_off_c, 0, 40, 67
1, 1075134, Note_on_c, 0, 69, 62
1, 1075172, Note_off_c, 0, 69, 62
1, 1075221, Note_on_c, 0, 64, 65
1, 1075241, Note_on_c, 0, 57, 60
1, 1075242, Note_on_c, 0, 49, 64
1, 1075263, Note_off_c, 0, 57, 62
1, 1075263, Note_off_c, 0, 49, 61
1, 1075329, Note_on_c, 0, 73, 62
1, 1075352, Note_off_c, 0, 64, 58
1, 1075442, Note_on_c, 0, 50, 64
1, 1075442, Note_on_c, 0, 54, 60
1, 1075445, Note_on_c, 0, 66, 74
1, 1075469, Control_c, 0, 64, 14
1, 1075484, Control_c, 0, 64, 55
1, 1075499, Note_off_c, 0, 73, 60
1, 1075499, Control_c, 0, 64, 63
1, 1075514, Control_c, 0, 64, 64
1, 1075529, Control_c, 0, 64, 65
1, 1075539, Note_off_c, 0, 66, 65
1, 1075542, Note_on_c, 0, 71, 61
1, 1075543, Control_c, 0, 64, 66
1, 1075558, Control_c, 0, 64, 67
1, 1075573, Control_c, 0, 64, 67
1, 1075609, Note_off_c, 0, 71, 63
1, 1075609, Note_off_c, 0, 50, 57
1, 1075630, Note_on_c, 0, 66, 75
1, 1075653, Note_on_c, 0, 59, 58
1, 1075658, Note_off_c, 0, 54, 62
1, 1075722, Control_c, 0, 64, 67
1, 1075724, Note_off_c, 0, 66, 63
1, 1075730, Note_on_c, 0, 78, 76
1, 1075736, Control_c, 0, 64, 66
1, 1075751, Control_c, 0, 64, 66
1, 1075766, Control_c, 0, 64, 64
1, 1075781, Control_c, 0, 64, 61
1, 1075791, Note_off_c, 0, 59, 38
1, 1075795, Control_c, 0, 64, 44
1, 1075810, Control_c, 0, 64, 0
1, 1075821, Note_on_c, 0, 61, 82
1, 1075821, Note_on_c, 0, 73, 85
1, 1075822, Note_on_c, 0, 52, 74
1, 1075826, Note_off_c, 0, 78, 59
1, 1075901, Note_on_c, 0, 76, 76
1, 1075913, Control_c, 0, 64, 56
1, 1075919, Note_off_c, 0, 73, 58
1, 1075936, Control_c, 0, 64, 64
1, 1075951, Control_c, 0, 64, 66
1, 1076000, Note_off_c, 0, 76, 62
1, 1076005, Note_on_c, 0, 62, 73
1, 1076009, Note_on_c, 0, 71, 81
1, 1076029, Note_off_c, 0, 61, 63
1, 1076029, Note_off_c, 0, 62, 68
1, 1076044, Note_off_c, 0, 52, 67
1, 1076075, Note_on_c, 0, 83, 84
1, 1076084, Control_c, 0, 64, 67
1, 1076089, Note_off_c, 0, 71, 64
1, 1076093, Note_off_c, 0, 83, 70
1, 1076099, Control_c, 0, 64, 67
1, 1076113, Control_c, 0, 64, 68
1, 1076128, Control_c, 0, 64, 69
1, 1076143, Control_c, 0, 64, 71
1, 1076158, Control_c, 0, 64, 72
1, 1076173, Control_c, 0, 64, 71
1, 1076187, Control_c, 0, 64, 62
1, 1076202, Control_c, 0, 64, 0
1, 1076215, Note_on_c, 0, 57, 91
1, 1076218, Note_on_c, 0, 45, 93
1, 1076240, Note_on_c, 0, 59, 78
1, 1076241, Note_on_c, 0, 47, 87
1, 1076255, Note_off_c, 0, 57, 66
1, 1076278, Control_c, 0, 64, 61
1, 1076292, Control_c, 0, 64, 69
1, 1076296, Note_off_c, 0, 59, 64
1, 1076300, Note_on_c, 0, 57, 75
1, 1076307, Control_c, 0, 64, 71
1, 1076338, Note_off_c, 0, 45, 62
1, 1076355, Note_off_c, 0, 47, 61
1, 1076396, Note_on_c, 0, 56, 88
1, 1076408, Note_off_c, 0, 57, 63
1, 1076419, Note_on_c, 0, 42, 56
1, 1076472, Note_off_c, 0, 42, 60
1, 1076488, Note_on_c, 0, 54, 94
1, 1076516, Note_off_c, 0, 56, 64
1, 1076528, Note_off_c, 0, 54, 66
1, 1076530, Control_c, 0, 64, 69
1, 1076545, Control_c, 0, 64, 65
1, 1076560, Control_c, 0, 64, 45
1, 1076562, Note_on_c, 0, 41, 75
1, 1076566, Note_on_c, 0, 53, 86
1, 1076575, Control_c, 0, 64, 0
1, 1076592, Note_off_c, 0, 41, 65
1, 1076604, Note_off_c, 0, 53, 68
1, 1076696, Note_on_c, 0, 80, 89
1, 1076786, Note_on_c, 0, 61, 93
1, 1076790, Note_on_c, 0, 73, 92
1, 1076791, Note_on_c, 0, 53, 75
1, 1076793, Note_on_c, 0, 56, 76
1, 1076804, Control_c, 0, 64, 61
1, 1076812, Note_off_c, 0, 80, 64
1, 1076819, Control_c, 0, 64, 83
1, 1076834, Control_c, 0, 64, 100
1, 1076836, Note_off_c, 0, 61, 63
1, 1076846, Note_off_c, 0, 53, 65
1, 1076848, Note_off_c, 0, 56, 61
1, 1076849, Control_c, 0, 64, 103
1, 1076864, Control_c, 0, 64, 112
1, 1076879, Control_c, 0, 64, 127
1, 1076879, Note_on_c, 0, 85, 84
1, 1076894, Note_off_c, 0, 85, 74
1, 1076902, Note_off_c, 0, 73, 60
1, 1076982, Control_c, 0, 64, 69
1, 1076997, Control_c, 0, 64, 0
1, 1077019, Note_on_c, 0, 57, 90
1, 1077020, Note_on_c, 0, 45, 91
1, 1077030, Note_on_c, 0, 47, 67
1, 1077040, Note_on_c, 0, 59, 83
1, 1077057, Control_c, 0, 64, 60
1, 1077067, Note_off_c, 0, 57, 64
1, 1077072, Control_c, 0, 64, 71
1, 1077087, Control_c, 0, 64, 78
1, 1077107, Note_off_c, 0, 59, 64
1, 1077109, Note_on_c, 0, 57, 69
1, 1077144, Note_off_c, 0, 45, 57
1, 1077146, Control_c, 0, 64, 79
1, 1077166, Note_on_c, 0, 44, 42
1, 1077190, Control_c, 0, 64, 79
1, 1077204, Note_off_c, 0, 47, 57
1, 1077205, Control_c, 0, 64, 81
1, 1077207, Note_on_c, 0, 56, 88
1, 1077218, Note_off_c, 0, 57, 63
1, 1077220, Control_c, 0, 64, 83
1, 1077224, Note_off_c, 0, 44, 62
1, 1077233, Control_c, 0, 64, 86
1, 1077247, Note_on_c, 0, 42, 61
1, 1077248, Control_c, 0, 64, 87
1, 1077263, Control_c, 0, 64, 88
1, 1077278, Control_c, 0, 64, 87
1, 1077293, Control_c, 0, 64, 76
1, 1077296, Note_on_c, 0, 54, 95
1, 1077308, Control_c, 0, 64, 59
1, 1077323, Control_c, 0, 64, 0
1, 1077323, Note_off_c, 0, 56, 63
1, 1077332, Note_off_c, 0, 54, 66
1, 1077354, Note_off_c, 0, 42, 58
1, 1077379, Note_on_c, 0, 41, 78
1, 1077389, Note_on_c, 0, 53, 82
1, 1077410, Note_off_c, 0, 41, 70
1, 1077434, Note_off_c, 0, 53, 66
1, 1077504, Note_on_c, 0, 80, 89
1, 1077601, Note_on_c, 0, 61, 97
1, 1077602, Note_on_c, 0, 53, 76
1, 1077604, Note_on_c, 0, 73, 89
1, 1077609, Note_on_c, 0, 56, 76
1, 1077627, Control_c, 0, 64, 53
1, 1077636, Note_off_c, 0, 80, 61
1, 1077641, Control_c, 0, 64, 67
1, 1077656, Control_c, 0, 64, 82
1, 1077671, Control_c, 0, 64, 127
1, 1077710, Note_on_c, 0, 85, 97
1, 1077761, Note_off_c, 0, 73, 58
1, 1077786, Note_off_c, 0, 61, 58
1, 1077788, Note_off_c, 0, 53, 37
1, 1077792, Note_on_c, 0, 86, 10
1, 1077820, Control_c, 0, 67, 17
1, 1077829, Note_off_c, 0, 56, 60
1, 1077835, Control_c, 0, 67, 30
1, 1077844, Note_off_c, 0, 86, 49
1, 1077850, Control_c, 0, 67, 44
1, 1077861, Note_off_c, 0, 85, 62
1, 1077864, Control_c, 0, 67, 59
1, 1077879, Control_c, 0, 67, 74
1, 1077894, Control_c, 0, 67, 89
1, 1077901, Poly_aftertouch_c, 0, 82, 0
1, 1077909, Control_c, 0, 67, 105
1, 1077924, Control_c, 0, 67, 122
1, 1077938, Control_c, 0, 67, 127
1, 1077968, Control_c, 0, 64, 109
1, 1077982, Control_c, 0, 64, 92
1, 1077997, Control_c, 0, 64, 80
1, 1078012, Control_c, 0, 64, 72
1, 1078027, Control_c, 0, 64, 65
1, 1078042, Control_c, 0, 64, 55
1, 1078056, Control_c, 0, 64, 10
1, 1078071, Control_c, 0, 64, 0
1, 1078479, Control_c, 0, 64, 32
1, 1078494, Control_c, 0, 64, 48
1, 1078508, Control_c, 0, 64, 54
1, 1078523, Control_c, 0, 64, 58
1, 1078537, Note_on_c, 0, 68, 31
1, 1078538, Control_c, 0, 64, 60
1, 1078553, Control_c, 0, 64, 62
1, 1078568, Control_c, 0, 64, 63
1, 1078582, Control_c, 0, 64, 65
1, 1078597, Control_c, 0, 64, 66
1, 1078613, Control_c, 0, 64, 68
1, 1078628, Control_c, 0, 64, 69
1, 1078643, Control_c, 0, 64, 72
1, 1078652, Note_on_c, 0, 56, 22
1, 1078658, Control_c, 0, 64, 74
1, 1078667, Note_on_c, 0, 53, 32
1, 1078673, Control_c, 0, 64, 76
1, 1078687, Control_c, 0, 64, 77
1, 1078691, Note_on_c, 0, 61, 42
1, 1078702, Control_c, 0, 64, 78
1, 1078706, Note_off_c, 0, 68, 40
1, 1078717, Control_c, 0, 64, 79
1, 1078731, Control_c, 0, 64, 80
1, 1078746, Note_off_c, 0, 61, 51
1, 1078791, Control_c, 0, 64, 80
1, 1078798, Note_on_c, 0, 73, 45
1, 1078804, Note_off_c, 0, 56, 39
1, 1078807, Note_off_c, 0, 53, 40
1, 1078873, Note_off_c, 0, 73, 49
1, 1078944, Note_on_c, 0, 53, 15
1, 1078950, Note_on_c, 0, 61, 41
1, 1078953, Note_on_c, 0, 56, 36
1, 1079022, Note_off_c, 0, 56, 47
1, 1079024, Note_off_c, 0, 61, 54
1, 1079055, Note_on_c, 0, 73, 22
1, 1079104, Note_off_c, 0, 53, 0
1, 1079127, Note_on_c, 0, 53, 13
1, 1079146, Note_off_c, 0, 73, 38
1, 1079147, Note_on_c, 0, 61, 53
1, 1079153, Note_on_c, 0, 56, 26
1, 1079221, Note_off_c, 0, 61, 55
1, 1079250, Note_off_c, 0, 56, 36
1, 1079266, Note_on_c, 0, 73, 46
1, 1079266, Note_off_c, 0, 53, 40
1, 1079324, Note_off_c, 0, 73, 55
1, 1079336, Note_on_c, 0, 53, 31
1, 1079336, Note_on_c, 0, 61, 64
1, 1079344, Note_on_c, 0, 56, 44
1, 1079398, Note_off_c, 0, 53, 57
1, 1079398, Note_off_c, 0, 56, 54
1, 1079423, Note_off_c, 0, 61, 58
1, 1079452, Note_on_c, 0, 73, 48
1, 1079494, Note_off_c, 0, 73, 57
1, 1079521, Note_on_c, 0, 56, 38
1, 1079521, Note_on_c, 0, 61, 62
1, 1079543, Note_on_c, 0, 53, 39
1, 1079575, Note_off_c, 0, 53, 55
1, 1079576, Note_off_c, 0, 56, 60
1, 1079591, Note_off_c, 0, 61, 61
1, 1079613, Note_on_c, 0, 73, 51
1, 1079650, Note_off_c, 0, 73, 58
1, 1079680, Control_c, 0, 64, 80
1, 1079695, Control_c, 0, 64, 79
1, 1079709, Control_c, 0, 64, 75
1, 1079724, Control_c, 0, 64, 69
1, 1079731, Note_on_c, 0, 68, 64
1, 1079739, Control_c, 0, 64, 62
1, 1079749, Note_on_c, 0, 53, 59
1, 1079753, Note_on_c, 0, 70, 56
1, 1079753, Control_c, 0, 64, 40
1, 1079768, Control_c, 0, 64, 0
1, 1079775, Note_off_c, 0, 68, 61
1, 1079807, Note_on_c, 0, 68, 52
1, 1079833, Note_off_c, 0, 70, 58
1, 1079997, Note_on_c, 0, 66, 63
1, 1080027, Note_on_c, 0, 61, 55
1, 1080068, Note_off_c, 0, 66, 61
1, 1080074, Note_off_c, 0, 68, 35
1, 1080077, Note_on_c, 0, 65, 70
1, 1080178, Note_on_c, 0, 63, 80
1, 1080184, Note_off_c, 0, 53, 61
1, 1080196, Note_on_c, 0, 54, 60
1, 1080199, Note_off_c, 0, 65, 59
1, 1080211, Note_off_c, 0, 61, 52
1, 1080273, Control_c, 0, 64, 34
1, 1080274, Note_on_c, 0, 70, 74
1, 1080283, Note_off_c, 0, 63, 63
1, 1080288, Control_c, 0, 64, 61
1, 1080302, Control_c, 0, 64, 67
1, 1080317, Control_c, 0, 64, 71
1, 1080332, Control_c, 0, 64, 73
1, 1080347, Control_c, 0, 64, 75
1, 1080361, Note_off_c, 0, 70, 61
1, 1080362, Control_c, 0, 64, 77
1, 1080376, Control_c, 0, 64, 78
1, 1080380, Note_on_c, 0, 63, 78
1, 1080385, Note_on_c, 0, 61, 64
1, 1080391, Control_c, 0, 64, 78
1, 1080406, Control_c, 0, 64, 79
1, 1080447, Note_off_c, 0, 63, 63
1, 1080451, Note_off_c, 0, 54, 46
1, 1080476, Note_on_c, 0, 75, 69
1, 1080518, Note_off_c, 0, 75, 57
1, 1080532, Control_c, 0, 64, 77
1, 1080533, Note_off_c, 0, 61, 57
1, 1080547, Control_c, 0, 64, 70
1, 1080562, Control_c, 0, 64, 60
1, 1080574, Note_on_c, 0, 56, 68
1, 1080576, Control_c, 0, 64, 0
1, 1080582, Note_on_c, 0, 71, 76
1, 1080606, Control_c, 0, 67, 127
1, 1080616, Note_on_c, 0, 73, 77
1, 1080621, Control_c, 0, 67, 125
1, 1080636, Control_c, 0, 67, 124
1, 1080637, Note_off_c, 0, 71, 62
1, 1080650, Control_c, 0, 67, 123
1, 1080665, Control_c, 0, 67, 117
1, 1080675, Note_on_c, 0, 71, 63
1, 1080680, Control_c, 0, 67, 107
1, 1080684, Note_off_c, 0, 73, 59
1, 1080695, Control_c, 0, 67, 93
1, 1080709, Control_c, 0, 64, 38
1, 1080709, Control_c, 0, 67, 79
1, 1080724, Control_c, 0, 64, 54
1, 1080724, Control_c, 0, 67, 69
1, 1080739, Control_c, 0, 64, 60
1, 1080739, Control_c, 0, 67, 66
1, 1080754, Control_c, 0, 64, 61
1, 1080754, Control_c, 0, 67, 67
1, 1080769, Control_c, 0, 67, 68
1, 1080799, Control_c, 0, 67, 67
1, 1080823, Note_off_c, 0, 71, 56
1, 1080840, Note_on_c, 0, 70, 74
1, 1080846, Note_on_c, 0, 61, 58
1, 1080858, Control_c, 0, 67, 68
1, 1080873, Control_c, 0, 67, 69
1, 1080902, Control_c, 0, 67, 70
1, 1080931, Note_off_c, 0, 70, 60
1, 1080932, Control_c, 0, 64, 60
1, 1080932, Control_c, 0, 67, 70
1, 1080933, Note_on_c, 0, 68, 74
1, 1080962, Control_c, 0, 64, 60
1, 1080976, Control_c, 0, 64, 59
1, 1080991, Control_c, 0, 64, 56
1, 1080995, Note_off_c, 0, 68, 61
1, 1081007, Control_c, 0, 64, 50
1, 1081007, Control_c, 0, 67, 71
1, 1081021, Note_on_c, 0, 58, 63
1, 1081022, Control_c, 0, 64, 36
1, 1081022, Control_c, 0, 67, 71
1, 1081025, Note_on_c, 0, 66, 71
1, 1081037, Control_c, 0, 64, 0
1, 1081037, Control_c, 0, 67, 72
1, 1081045, Note_off_c, 0, 61, 43
1, 1081045, Note_off_c, 0, 56, 48
1, 1081052, Control_c, 0, 67, 73
1, 1081067, Control_c, 0, 67, 73
1, 1081081, Control_c, 0, 67, 74
1, 1081123, Note_on_c, 0, 73, 65
1, 1081135, Note_off_c, 0, 66, 55
1, 1081140, Control_c, 0, 64, 37
1, 1081140, Control_c, 0, 67, 74
1, 1081155, Control_c, 0, 64, 60
1, 1081177, Control_c, 0, 64, 64
1, 1081222, Control_c, 0, 64, 65
1, 1081237, Control_c, 0, 64, 65
1, 1081246, Note_on_c, 0, 61, 56
1, 1081252, Control_c, 0, 64, 66
1, 1081253, Note_off_c, 0, 73, 57
1, 1081260, Note_on_c, 0, 66, 63
1, 1081267, Control_c, 0, 64, 66
1, 1081292, Note_off_c, 0, 58, 58
1, 1081311, Control_c, 0, 64, 67
1, 1081370, Control_c, 0, 67, 75
1, 1081385, Control_c, 0, 64, 67
1, 1081385, Control_c, 0, 67, 76
1, 1081390, Note_off_c, 0, 66, 60
1, 1081400, Control_c, 0, 64, 68
1, 1081400, Control_c, 0, 67, 77
1, 1081411, Note_on_c, 0, 78, 59
1, 1081414, Control_c, 0, 67, 78
1, 1081429, Control_c, 0, 67, 82
1, 1081430, Note_on_c, 0, 58, 65
1, 1081444, Control_c, 0, 67, 85
1, 1081448, Note_off_c, 0, 61, 57
1, 1081459, Control_c, 0, 67, 89
1, 1081465, Note_off_c, 0, 78, 54
1, 1081470, Note_on_c, 0, 66, 50
1, 1081473, Control_c, 0, 67, 94
1, 1081488, Control_c, 0, 67, 97
1, 1081503, Control_c, 0, 67, 100
1, 1081518, Control_c, 0, 64, 68
1, 1081518, Control_c, 0, 67, 104
1, 1081524, Note_off_c, 0, 66, 61
1, 1081532, Control_c, 0, 64, 69
1, 1081532, Control_c, 0, 67, 109
1, 1081547, Control_c, 0, 67, 115
1, 1081562, Control_c, 0, 67, 121
1, 1081577, Control_c, 0, 64, 69
1, 1081577, Control_c, 0, 67, 127
1, 1081590, Note_on_c, 0, 78, 45
1, 1081592, Control_c, 0, 64, 70
1, 1081592, Control_c, 0, 67, 127
1, 1081596, Note_off_c, 0, 58, 63
1, 1081605, Note_on_c, 0, 61, 57
1, 1081606, Control_c, 0, 64, 70
1, 1081621, Control_c, 0, 64, 71
1, 1081636, Control_c, 0, 64, 72
1, 1081638, Note_off_c, 0, 78, 59
1, 1081646, Note_on_c, 0, 66, 71
1, 1081681, Control_c, 0, 64, 72
1, 1081712, Note_off_c, 0, 66, 50
1, 1081770, Control_c, 0, 64, 73
1, 1081815, Control_c, 0, 64, 72
1, 1081823, Note_off_c, 0, 61, 55
1, 1081825, Note_on_c, 0, 66, 69
1, 1081829, Note_on_c, 0, 58, 61
1, 1081830, Control_c, 0, 64, 69
1, 1081845, Control_c, 0, 64, 64
1, 1081860, Control_c, 0, 64, 53
1, 1081875, Control_c, 0, 64, 19
1, 1081890, Control_c, 0, 64, 0
1, 1081926, Control_c, 0, 64, 29
1, 1081941, Control_c, 0, 64, 45
1, 1081952, Note_on_c, 0, 73, 53
1, 1081955, Note_off_c, 0, 66, 60
1, 1081955, Control_c, 0, 64, 54
1, 1081970, Control_c, 0, 64, 59
1, 1081985, Control_c, 0, 64, 61
1, 1082000, Control_c, 0, 64, 63
1, 1082015, Control_c, 0, 64, 63
1, 1082030, Control_c, 0, 64, 64
1, 1082031, Note_off_c, 0, 73, 56
1, 1082059, Control_c, 0, 64, 64
1, 1082066, Note_on_c, 0, 61, 46
1, 1082067, Note_on_c, 0, 66, 60
1, 1082151, Note_off_c, 0, 66, 62
1, 1082189, Note_on_c, 0, 78, 57
1, 1082267, Control_c, 0, 64, 64
1, 1082296, Control_c, 0, 64, 63
1, 1082311, Control_c, 0, 64, 62
1, 1082326, Control_c, 0, 64, 60
1, 1082335, Note_on_c, 0, 66, 53
1, 1082341, Control_c, 0, 64, 55
1, 1082354, Note_on_c, 0, 57, 54
1, 1082355, Control_c, 0, 64, 45
1, 1082370, Control_c, 0, 64, 20
1, 1082385, Note_off_c, 0, 61, 45
1, 1082385, Control_c, 0, 64, 0
1, 1082393, Note_off_c, 0, 58, 41
1, 1082429, Note_off_c, 0, 66, 58
1, 1082451, Note_off_c, 0, 78, 37
1, 1082454, Note_on_c, 0, 73, 43
1, 1082489, Control_c, 0, 64, 53
1, 1082504, Control_c, 0, 64, 62
1, 1082519, Control_c, 0, 64, 64
1, 1082523, Note_off_c, 0, 73, 54
1, 1082548, Control_c, 0, 64, 64
1, 1082549, Note_on_c, 0, 66, 57
1, 1082563, Control_c, 0, 64, 65
1, 1082575, Note_on_c, 0, 61, 50
1, 1082593, Control_c, 0, 64, 65
1, 1082615, Note_off_c, 0, 57, 54
1, 1082628, Note_off_c, 0, 66, 61
1, 1082657, Note_on_c, 0, 78, 49
1, 1082704, Control_c, 0, 64, 66
1, 1082719, Control_c, 0, 64, 66
1, 1082748, Note_on_c, 0, 57, 58
1, 1082749, Control_c, 0, 64, 65
1, 1082750, Note_on_c, 0, 66, 65
1, 1082751, Note_off_c, 0, 61, 56
1, 1082764, Control_c, 0, 64, 61
1, 1082778, Control_c, 0, 64, 48
1, 1082779, Note_off_c, 0, 78, 39
1, 1082793, Control_c, 0, 64, 17
1, 1082808, Control_c, 0, 64, 0
1, 1082823, Control_c, 0, 64, 25
1, 1082836, Note_off_c, 0, 66, 61
1, 1082838, Control_c, 0, 64, 42
1, 1082851, Note_on_c, 0, 73, 54
1, 1082852, Control_c, 0, 64, 54
1, 1082867, Control_c, 0, 64, 61
1, 1082882, Control_c, 0, 64, 63
1, 1082897, Control_c, 0, 64, 64
1, 1082927, Control_c, 0, 64, 64
1, 1082935, Note_on_c, 0, 61, 47
1, 1082942, Control_c, 0, 64, 65
1, 1082943, Note_on_c, 0, 66, 65
1, 1082946, Note_off_c, 0, 57, 58
1, 1082946, Note_off_c, 0, 73, 57
1, 1082957, Control_c, 0, 64, 65
1, 1083005, Note_off_c, 0, 66, 65
1, 1083016, Control_c, 0, 64, 66
1, 1083034, Note_on_c, 0, 78, 62
1, 1083038, Note_off_c, 0, 61, 59
1, 1083045, Control_c, 0, 64, 66
1, 1083060, Control_c, 0, 67, 118
1, 1083070, Note_off_c, 0, 78, 61
1, 1083075, Control_c, 0, 64, 66
1, 1083075, Control_c, 0, 67, 107
1, 1083090, Control_c, 0, 64, 63
1, 1083090, Control_c, 0, 67, 93
1, 1083104, Control_c, 0, 64, 53
1, 1083104, Control_c, 0, 67, 82
1, 1083119, Control_c, 0, 64, 0
1, 1083119, Control_c, 0, 67, 72
1, 1083134, Control_c, 0, 67, 61
1, 1083137, Note_on_c, 0, 49, 59
1, 1083145, Note_on_c, 0, 76, 72
1, 1083149, Control_c, 0, 67, 50
1, 1083164, Control_c, 0, 67, 40
1, 1083170, Note_on_c, 0, 78, 71
1, 1083176, Note_off_c, 0, 76, 66
1, 1083178, Control_c, 0, 67, 31
1, 1083193, Control_c, 0, 64, 37
1, 1083193, Control_c, 0, 67, 19
1, 1083208, Control_c, 0, 64, 56
1, 1083208, Control_c, 0, 67, 0
1, 1083224, Control_c, 0, 64, 61
1, 1083235, Note_on_c, 0, 76, 70
1, 1083237, Note_off_c, 0, 78, 57
1, 1083239, Control_c, 0, 64, 62
1, 1083253, Control_c, 0, 64, 62
1, 1083283, Control_c, 0, 64, 63
1, 1083297, Control_c, 0, 64, 63
1, 1083327, Control_c, 0, 64, 64
1, 1083341, Note_off_c, 0, 76, 53
1, 1083353, Note_off_c, 0, 49, 51
1, 1083360, Note_on_c, 0, 74, 76
1, 1083374, Note_on_c, 0, 52, 54
1, 1083377, Note_on_c, 0, 57, 55
1, 1083442, Note_off_c, 0, 74, 62
1, 1083469, Note_off_c, 0, 52, 59
1, 1083469, Note_on_c, 0, 73, 70
1, 1083505, Note_off_c, 0, 57, 60
1, 1083514, Control_c, 0, 64, 64
1, 1083530, Note_off_c, 0, 73, 62
1, 1083543, Control_c, 0, 64, 63
1, 1083553, Note_on_c, 0, 71, 81
1, 1083558, Control_c, 0, 64, 54
1, 1083561, Note_on_c, 0, 50, 75
1, 1083573, Control_c, 0, 64, 0
1, 1083647, Control_c, 0, 64, 53
1, 1083650, Note_on_c, 0, 78, 84
1, 1083662, Control_c, 0, 64, 65
1, 1083676, Control_c, 0, 64, 71
1, 1083687, Note_off_c, 0, 71, 58
1, 1083691, Control_c, 0, 64, 74
1, 1083706, Control_c, 0, 64, 76
1, 1083720, Control_c, 0, 64, 77
1, 1083735, Control_c, 0, 64, 80
1, 1083750, Note_on_c, 0, 54, 62
1, 1083750, Control_c, 0, 64, 81
1, 1083753, Note_on_c, 0, 59, 73
1, 1083765, Control_c, 0, 64, 83
1, 1083773, Note_on_c, 0, 71, 92
1, 1083780, Control_c, 0, 64, 84
1, 1083781, Note_off_c, 0, 78, 56
1, 1083783, Note_off_c, 0, 50, 51
1, 1083794, Control_c, 0, 64, 84
1, 1083809, Control_c, 0, 64, 85
1, 1083824, Control_c, 0, 64, 85
1, 1083826, Note_off_c, 0, 54, 60
1, 1083839, Control_c, 0, 64, 86
1, 1083869, Control_c, 0, 64, 86
1, 1083870, Note_off_c, 0, 71, 62
1, 1083883, Note_off_c, 0, 59, 58
1, 1083884, Control_c, 0, 64, 87
1, 1083889, Note_on_c, 0, 83, 79
1, 1083899, Control_c, 0, 64, 88
1, 1083914, Control_c, 0, 64, 90
1, 1083928, Control_c, 0, 64, 91
1, 1083942, Note_off_c, 0, 83, 61
1, 1083949, Note_on_c, 0, 52, 92
1, 1083958, Control_c, 0, 64, 89
1, 1083964, Note_on_c, 0, 76, 96
1, 1083972, Control_c, 0, 64, 73
1, 1083987, Control_c, 0, 64, 50
1, 1084001, Control_c, 0, 64, 0
1, 1084054, Note_on_c, 0, 83, 85
1, 1084060, Control_c, 0, 64, 42
1, 1084069, Note_off_c, 0, 76, 65
1, 1084075, Control_c, 0, 64, 64
1, 1084090, Control_c, 0, 64, 73
1, 1084105, Control_c, 0, 64, 83
1, 1084119, Control_c, 0, 64, 87
1, 1084134, Control_c, 0, 64, 91
1, 1084140, Note_on_c, 0, 56, 67
1, 1084149, Control_c, 0, 64, 98
1, 1084152, Note_off_c, 0, 52, 62
1, 1084155, Note_on_c, 0, 62, 79
1, 1084164, Control_c, 0, 64, 115
1, 1084175, Note_on_c, 0, 76, 88
1, 1084177, Note_off_c, 0, 83, 59
1, 1084187, Control_c, 0, 64, 127
1, 1084210, Note_off_c, 0, 56, 62
1, 1084262, Note_off_c, 0, 76, 63
1, 1084265, Note_on_c, 0, 88, 90
1, 1084304, Note_off_c, 0, 88, 64
1, 1084325, Note_off_c, 0, 62, 50
1, 1084342, Note_on_c, 0, 57, 75
1, 1084382, Note_on_c, 0, 61, 38
1, 1084409, Note_on_c, 0, 69, 94
1, 1084417, Note_off_c, 0, 61, 0
1, 1084417, Note_on_c, 0, 61, 15
1, 1084424, Control_c, 0, 64, 76
1, 1084439, Note_on_c, 0, 71, 85
1, 1084439, Control_c, 0, 64, 45
1, 1084454, Control_c, 0, 64, 0
1, 1084459, Note_off_c, 0, 69, 69
1, 1084483, Control_c, 0, 64, 31
1, 1084498, Control_c, 0, 64, 62
1, 1084510, Poly_aftertouch_c, 0, 60, 0
1, 1084512, Note_on_c, 0, 69, 84
1, 1084513, Control_c, 0, 64, 64
1, 1084516, Note_off_c, 0, 71, 65
1, 1084528, Control_c, 0, 64, 64
1, 1084543, Control_c, 0, 64, 62
1, 1084557, Control_c, 0, 64, 59
1, 1084569, Note_off_c, 0, 57, 60
1, 1084572, Note_off_c, 0, 61, 59
1, 1084572, Control_c, 0, 64, 51
1, 1084587, Control_c, 0, 64, 17
1, 1084602, Control_c, 0, 64, 0
1, 1084656, Note_on_c, 0, 68, 91
1, 1084669, Note_off_c, 0, 69, 65
1, 1084754, Note_on_c, 0, 66, 91
1, 1084864, Note_on_c, 0, 64, 91
1, 1084867, Note_on_c, 0, 50, 90
1, 1084870, Note_on_c, 0, 52, 92
1, 1084900, Note_off_c, 0, 66, 63
1, 1084903, Note_off_c, 0, 68, 22
1, 1084921, Control_c, 0, 64, 53
1, 1084936, Control_c, 0, 64, 61
1, 1084950, Control_c, 0, 64, 64
1, 1084965, Control_c, 0, 64, 64
1, 1084980, Control_c, 0, 64, 65
1, 1084996, Control_c, 0, 64, 65
1, 1085011, Control_c, 0, 64, 66
1, 1085040, Control_c, 0, 64, 66
1, 1085055, Control_c, 0, 64, 67
1, 1085099, Note_off_c, 0, 64, 66
1, 1085141, Note_on_c, 0, 49, 76
1, 1085198, Note_off_c, 0, 50, 59
1, 1085219, Note_on_c, 0, 47, 81
1, 1085224, Note_off_c, 0, 49, 64
1, 1085247, Control_c, 0, 64, 65
1, 1085262, Control_c, 0, 64, 54
1, 1085277, Control_c, 0, 64, 0
1, 1085297, Note_on_c, 0, 45, 86
1, 1085297, Note_on_c, 0, 69, 94
1, 1085314, Note_off_c, 0, 47, 63
1, 1085330, Note_on_c, 0, 71, 87
1, 1085341, Note_off_c, 0, 69, 70
1, 1085396, Note_off_c, 0, 71, 61
1, 1085401, Note_on_c, 0, 69, 81
1, 1085517, Note_on_c, 0, 68, 95
1, 1085535, Note_off_c, 0, 69, 65
1, 1085552, Note_off_c, 0, 45, 63
1, 1085562, Note_off_c, 0, 52, 62
1, 1085607, Note_on_c, 0, 66, 93
1, 1085705, Note_on_c, 0, 64, 95
1, 1085711, Note_on_c, 0, 50, 89
1, 1085712, Note_on_c, 0, 52, 92
1, 1085728, Note_off_c, 0, 68, 37
1, 1085757, Note_off_c, 0, 66, 62
1, 1085759, Control_c, 0, 64, 42
1, 1085773, Control_c, 0, 64, 59
1, 1085788, Control_c, 0, 64, 64
1, 1085803, Control_c, 0, 64, 66
1, 1085818, Control_c, 0, 64, 67
1, 1085833, Control_c, 0, 64, 69
1, 1085848, Control_c, 0, 64, 72
1, 1085863, Control_c, 0, 64, 74
1, 1085878, Control_c, 0, 64, 76
1, 1085893, Control_c, 0, 64, 77
1, 1085922, Control_c, 0, 64, 78
1, 1085931, Note_off_c, 0, 64, 58
1, 1085949, Note_on_c, 0, 49, 80
1, 1085996, Control_c, 0, 64, 77
1, 1085997, Note_off_c, 0, 50, 55
1, 1086011, Control_c, 0, 64, 76
1, 1086026, Control_c, 0, 64, 71
1, 1086030, Note_off_c, 0, 49, 65
1, 1086034, Note_on_c, 0, 47, 86
1, 1086041, Control_c, 0, 64, 65
1, 1086055, Control_c, 0, 64, 52
1, 1086070, Control_c, 0, 64, 0
1, 1086113, Note_on_c, 0, 45, 86
1, 1086116, Note_on_c, 0, 73, 89
1, 1086121, Note_on_c, 0, 69, 79
1, 1086125, Note_off_c, 0, 47, 64
1, 1086151, Note_on_c, 0, 74, 82
1, 1086159, Control_c, 0, 64, 35
1, 1086160, Note_off_c, 0, 73, 64
1, 1086174, Control_c, 0, 64, 52
1, 1086188, Control_c, 0, 64, 56
1, 1086203, Note_on_c, 0, 73, 75
1, 1086224, Note_off_c, 0, 74, 66
1, 1086234, Control_c, 0, 64, 57
1, 1086248, Control_c, 0, 64, 59
1, 1086251, Note_off_c, 0, 73, 63
1, 1086263, Control_c, 0, 64, 61
1, 1086278, Control_c, 0, 64, 61
1, 1086293, Control_c, 0, 64, 62
1, 1086307, Note_off_c, 0, 69, 67
1, 1086340, Poly_aftertouch_c, 0, 69, 0
1, 1086345, Note_on_c, 0, 68, 84
1, 1086349, Note_on_c, 0, 71, 79
1, 1086367, Control_c, 0, 64, 61
1, 1086381, Note_off_c, 0, 45, 64
1, 1086382, Control_c, 0, 64, 60
1, 1086384, Note_off_c, 0, 52, 59
1, 1086397, Control_c, 0, 64, 58
1, 1086419, Control_c, 0, 64, 53
1, 1086423, Note_on_c, 0, 69, 70
1, 1086434, Control_c, 0, 64, 40
1, 1086448, Note_off_c, 0, 68, 64
1, 1086448, Control_c, 0, 64, 0
1, 1086456, Note_on_c, 0, 66, 72
1, 1086528, Note_off_c, 0, 71, 0
1, 1086534, Note_on_c, 0, 68, 95
1, 1086534, Note_on_c, 0, 50, 84
1, 1086537, Note_on_c, 0, 64, 88
1, 1086543, Note_on_c, 0, 52, 87
1, 1086547, Note_off_c, 0, 66, 56
1, 1086556, Note_on_c, 0, 71, 4
1, 1086573, Note_off_c, 0, 69, 56
1, 1086590, Note_off_c, 0, 71, 44
1, 1086627, Control_c, 0, 64, 58
1, 1086642, Control_c, 0, 64, 65
1, 1086657, Control_c, 0, 64, 68
1, 1086671, Control_c, 0, 64, 69
1, 1086708, Note_off_c, 0, 64, 64
1, 1086716, Note_off_c, 0, 68, 63
1, 1086745, Control_c, 0, 64, 68
1, 1086755, Note_on_c, 0, 49, 81
1, 1086760, Control_c, 0, 64, 66
1, 1086770, Note_off_c, 0, 50, 57
1, 1086775, Control_c, 0, 64, 64
1, 1086790, Control_c, 0, 64, 57
1, 1086805, Control_c, 0, 64, 41
1, 1086820, Control_c, 0, 64, 0
1, 1086844, Note_off_c, 0, 49, 64
1, 1086848, Note_on_c, 0, 47, 77
1, 1086924, Note_off_c, 0, 47, 64
1, 1086938, Note_on_c, 0, 45, 86
1, 1086939, Note_on_c, 0, 73, 92
1, 1086947, Note_on_c, 0, 69, 78
1, 1086963, Note_on_c, 0, 74, 83
1, 1086976, Note_off_c, 0, 73, 59
1, 1086998, Control_c, 0, 64, 46
1, 1087013, Control_c, 0, 64, 58
1, 1087014, Note_on_c, 0, 73, 65
1, 1087027, Control_c, 0, 64, 61
1, 1087042, Control_c, 0, 64, 63
1, 1087043, Note_off_c, 0, 74, 66
1, 1087068, Note_off_c, 0, 73, 62
1, 1087071, Control_c, 0, 64, 63
1, 1087116, Control_c, 0, 64, 63
1, 1087145, Control_c, 0, 64, 62
1, 1087165, Note_on_c, 0, 68, 85
1, 1087168, Control_c, 0, 64, 61
1, 1087169, Note_off_c, 0, 69, 60
1, 1087169, Note_on_c, 0, 71, 77
1, 1087183, Control_c, 0, 64, 61
1, 1087198, Control_c, 0, 64, 60
1, 1087213, Control_c, 0, 64, 60
1, 1087227, Control_c, 0, 64, 59
1, 1087239, Note_on_c, 0, 69, 75
1, 1087244, Note_off_c, 0, 52, 64
1, 1087248, Note_off_c, 0, 45, 61
1, 1087257, Control_c, 0, 64, 59
1, 1087261, Note_off_c, 0, 68, 64
1, 1087265, Note_on_c, 0, 66, 70
1, 1087286, Control_c, 0, 64, 59
1, 1087316, Control_c, 0, 64, 56
1, 1087331, Control_c, 0, 64, 12
1, 1087334, Note_off_c, 0, 66, 63
1, 1087345, Control_c, 0, 64, 0
1, 1087354, Note_on_c, 0, 68, 94
1, 1087357, Note_on_c, 0, 50, 83
1, 1087358, Note_on_c, 0, 52, 86
1, 1087358, Note_on_c, 0, 64, 90
1, 1087413, Note_off_c, 0, 69, 52
1, 1087421, Control_c, 0, 64, 10
1, 1087423, Note_off_c, 0, 71, 46
1, 1087436, Control_c, 0, 64, 58
1, 1087450, Control_c, 0, 64, 64
1, 1087465, Control_c, 0, 64, 64
1, 1087500, Note_off_c, 0, 64, 61
1, 1087508, Note_off_c, 0, 68, 63
1, 1087563, Note_on_c, 0, 49, 78
1, 1087571, Note_off_c, 0, 50, 59
1, 1087644, Note_off_c, 0, 49, 62
1, 1087662, Note_on_c, 0, 47, 72
1, 1087702, Control_c, 0, 64, 63
1, 1087716, Control_c, 0, 64, 58
1, 1087731, Control_c, 0, 64, 0
1, 1087736, Note_off_c, 0, 47, 64
1, 1087745, Note_on_c, 0, 45, 83
1, 1087752, Note_on_c, 0, 73, 80
1, 1087756, Note_off_c, 0, 52, 44
1, 1087789, Note_off_c, 0, 45, 63
1, 1087825, Note_off_c, 0, 73, 59
1, 1087855, Note_on_c, 0, 69, 71
1, 1087942, Note_off_c, 0, 69, 63
1, 1087953, Note_on_c, 0, 47, 72
1, 1087953, Note_on_c, 0, 74, 70
1, 1087980, Note_off_c, 0, 47, 65
1, 1088022, Note_off_c, 0, 74, 62
1, 1088042, Note_on_c, 0, 69, 74
1, 1088128, Note_off_c, 0, 69, 63
1, 1088143, Note_on_c, 0, 76, 66
1, 1088144, Note_on_c, 0, 49, 75
1, 1088168, Note_off_c, 0, 49, 64
1, 1088191, Note_off_c, 0, 76, 62
1, 1088233, Note_on_c, 0, 69, 70
1, 1088320, Note_off_c, 0, 69, 64
1, 1088327, Note_on_c, 0, 50, 81
1, 1088334, Note_on_c, 0, 78, 77
1, 1088356, Note_off_c, 0, 50, 66
1, 1088422, Note_on_c, 0, 69, 69
1, 1088424, Note_off_c, 0, 78, 59
1, 1088509, Control_c, 0, 64, 36
1, 1088510, Note_on_c, 0, 80, 68
1, 1088522, Note_on_c, 0, 40, 80
1, 1088524, Control_c, 0, 64, 49
1, 1088525, Note_on_c, 0, 52, 78
1, 1088529, Note_off_c, 0, 69, 59
1, 1088539, Control_c, 0, 64, 49
1, 1088583, Control_c, 0, 64, 50
1, 1088598, Control_c, 0, 64, 51
1, 1088605, Note_off_c, 0, 52, 63
1, 1088613, Control_c, 0, 64, 53
1, 1088614, Note_on_c, 0, 76, 74
1, 1088620, Note_off_c, 0, 40, 65
1, 1088626, Note_off_c, 0, 80, 62
1, 1088628, Control_c, 0, 64, 55
1, 1088642, Control_c, 0, 64, 57
1, 1088665, Control_c, 0, 64, 58
1, 1088680, Control_c, 0, 64, 59
1, 1088695, Control_c, 0, 64, 59
1, 1088716, Note_on_c, 0, 81, 76
1, 1088723, Note_on_c, 0, 42, 83
1, 1088725, Note_on_c, 0, 54, 88
1, 1088731, Note_off_c, 0, 76, 62
1, 1088754, Control_c, 0, 64, 59
1, 1088799, Note_off_c, 0, 81, 59
1, 1088808, Note_on_c, 0, 76, 85
1, 1088820, Note_off_c, 0, 42, 63
1, 1088833, Note_off_c, 0, 54, 58
1, 1088842, Control_c, 0, 64, 59
1, 1088857, Control_c, 0, 64, 60
1, 1088872, Control_c, 0, 64, 61
1, 1088887, Control_c, 0, 64, 61
1, 1088902, Control_c, 0, 64, 59
1, 1088903, Note_on_c, 0, 83, 92
1, 1088913, Note_on_c, 0, 56, 90
1, 1088913, Note_on_c, 0, 44, 84
1, 1088916, Control_c, 0, 64, 54
1, 1088919, Note_off_c, 0, 76, 58
1, 1088931, Control_c, 0, 64, 45
1, 1088946, Control_c, 0, 64, 36
1, 1088975, Control_c, 0, 64, 42
1, 1088992, Control_c, 0, 64, 50
1, 1089002, Note_off_c, 0, 44, 62
1, 1089007, Control_c, 0, 64, 57
1, 1089013, Note_off_c, 0, 56, 60
1, 1089015, Note_on_c, 0, 76, 85
1, 1089021, Control_c, 0, 64, 61
1, 1089036, Control_c, 0, 64, 63
1, 1089042, Note_off_c, 0, 83, 60
1, 1089051, Control_c, 0, 64, 63
1, 1089065, Control_c, 0, 64, 64
1, 1089080, Control_c, 0, 64, 65
1, 1089095, Control_c, 0, 64, 66
1, 1089106, Note_on_c, 0, 57, 87
1, 1089108, Note_on_c, 0, 45, 84
1, 1089108, Note_off_c, 0, 76, 65
1, 1089110, Note_on_c, 0, 84, 92
1, 1089110, Control_c, 0, 64, 68
1, 1089125, Control_c, 0, 64, 70
1, 1089139, Control_c, 0, 64, 72
1, 1089154, Control_c, 0, 64, 73
1, 1089169, Control_c, 0, 64, 74
1, 1089172, Note_off_c, 0, 45, 59
1, 1089184, Control_c, 0, 64, 75
1, 1089199, Control_c, 0, 64, 77
1, 1089205, Note_off_c, 0, 57, 60
1, 1089212, Note_on_c, 0, 76, 72
1, 1089214, Control_c, 0, 64, 80
1, 1089225, Note_off_c, 0, 84, 61
1, 1089229, Control_c, 0, 64, 83
1, 1089243, Control_c, 0, 64, 86
1, 1089245, Note_off_c, 0, 76, 60
1, 1089258, Control_c, 0, 64, 89
1, 1089273, Control_c, 0, 64, 91
1, 1089288, Control_c, 0, 64, 92
1, 1089303, Control_c, 0, 64, 91
1, 1089318, Control_c, 0, 64, 89
1, 1089330, Note_on_c, 0, 84, 93
1, 1089332, Control_c, 0, 64, 75
1, 1089336, Note_on_c, 0, 48, 85
1, 1089336, Note_on_c, 0, 76, 86
1, 1089338, Note_on_c, 0, 55, 78
1, 1089339, Note_on_c, 0, 72, 85
1, 1089340, Note_on_c, 0, 60, 85
1, 1089341, Note_on_c, 0, 79, 75
1, 1089347, Control_c, 0, 64, 57
1, 1089362, Control_c, 0, 64, 0
1, 1089473, Control_c, 0, 64, 59
1, 1089488, Control_c, 0, 64, 67
1, 1089503, Control_c, 0, 64, 72
1, 1089518, Control_c, 0, 64, 74
1, 1089533, Control_c, 0, 64, 76
1, 1089547, Control_c, 0, 64, 78
1, 1089562, Control_c, 0, 64, 80
1, 1089577, Control_c, 0, 64, 82
1, 1089591, Control_c, 0, 64, 83
1, 1089606, Control_c, 0, 64, 83
1, 1089621, Control_c, 0, 64, 84
1, 1089636, Control_c, 0, 64, 84
1, 1089651, Control_c, 0, 64, 85
1, 1089665, Control_c, 0, 64, 87
1, 1089679, Note_off_c, 0, 72, 61
1, 1089680, Control_c, 0, 64, 89
1, 1089691, Note_off_c, 0, 48, 59
1, 1089694, Note_off_c, 0, 84, 59
1, 1089695, Control_c, 0, 64, 93
1, 1089701, Note_off_c, 0, 76, 59
1, 1089703, Note_off_c, 0, 55, 60
1, 1089703, Note_off_c, 0, 60, 60
1, 1089703, Note_off_c, 0, 79, 58
1, 1089710, Control_c, 0, 64, 99
1, 1089725, Control_c, 0, 64, 106
1, 1089739, Control_c, 0, 64, 105
1, 1089754, Control_c, 0, 64, 96
1, 1089757, Note_on_c, 0, 84, 90
1, 1089759, Note_on_c, 0, 60, 79
1, 1089762, Note_on_c, 0, 55, 68
1, 1089763, Note_on_c, 0, 76, 75
1, 1089764, Note_on_c, 0, 48, 73
1, 1089765, Note_on_c, 0, 72, 85
1, 1089765, Note_on_c, 0, 79, 74
1, 1089769, Control_c, 0, 64, 78
1, 1089785, Control_c, 0, 64, 66
1, 1089800, Control_c, 0, 64, 59
1, 1089815, Control_c, 0, 64, 58
1, 1089830, Control_c, 0, 64, 61
1, 1089844, Control_c, 0, 64, 64
1, 1089859, Control_c, 0, 64, 66
1, 1089874, Control_c, 0, 64, 68
1, 1089888, Control_c, 0, 64, 69
1, 1089903, Control_c, 0, 64, 71
1, 1089918, Control_c, 0, 64, 73
1, 1089933, Control_c, 0, 64, 74
1, 1089948, Control_c, 0, 64, 76
1, 1089963, Control_c, 0, 64, 77
1, 1089978, Control_c, 0, 64, 79
1, 1089993, Control_c, 0, 64, 80
1, 1090008, Control_c, 0, 64, 81
1, 1090023, Control_c, 0, 64, 82
1, 1090037, Control_c, 0, 64, 83
1, 1090052, Control_c, 0, 64, 84
1, 1090067, Control_c, 0, 64, 85
1, 1090081, Control_c, 0, 64, 87
1, 1090096, Control_c, 0, 64, 91
1, 1090100, Note_off_c, 0, 84, 58
1, 1090103, Note_off_c, 0, 72, 59
1, 1090111, Control_c, 0, 64, 97
1, 1090114, Note_off_c, 0, 48, 53
1, 1090118, Note_off_c, 0, 76, 56
1, 1090120, Note_off_c, 0, 60, 59
1, 1090124, Note_off_c, 0, 55, 62
1, 1090125, Note_off_c, 0, 79, 54
1, 1090126, Control_c, 0, 64, 106
1, 1090141, Control_c, 0, 64, 116
1, 1090163, Control_c, 0, 64, 115
1, 1090178, Control_c, 0, 64, 103
1, 1090182, Note_on_c, 0, 84, 94
1, 1090183, Note_on_c, 0, 60, 80
1, 1090185, Note_on_c, 0, 79, 76
1, 1090188, Note_on_c, 0, 55, 66
1, 1090188, Note_on_c, 0, 48, 68
1, 1090189, Note_on_c, 0, 72, 89
1, 1090191, Note_on_c, 0, 76, 81
1, 1090193, Control_c, 0, 64, 79
1, 1090208, Control_c, 0, 64, 62
1, 1090222, Control_c, 0, 64, 0
1, 1090252, Control_c, 0, 64, 45
1, 1090267, Control_c, 0, 64, 62
1, 1090282, Control_c, 0, 64, 67
1, 1090296, Control_c, 0, 64, 71
1, 1090311, Control_c, 0, 64, 72
1, 1090326, Control_c, 0, 64, 72
1, 1090341, Control_c, 0, 64, 74
1, 1090356, Control_c, 0, 64, 75
1, 1090370, Control_c, 0, 64, 75
1, 1090385, Control_c, 0, 64, 76
1, 1090400, Control_c, 0, 64, 77
1, 1090415, Control_c, 0, 64, 79
1, 1090416, Poly_aftertouch_c, 0, 81, 127
1, 1090430, Control_c, 0, 64, 81
1, 1090445, Control_c, 0, 64, 82
1, 1090460, Control_c, 0, 64, 83
1, 1090475, Control_c, 0, 64, 84
1, 1090489, Control_c, 0, 64, 84
1, 1090492, Note_off_c, 0, 79, 54
1, 1090499, Note_off_c, 0, 76, 62
1, 1090504, Control_c, 0, 64, 85
1, 1090506, Note_off_c, 0, 72, 64
1, 1090514, Note_off_c, 0, 84, 59
1, 1090516, Poly_aftertouch_c, 0, 81, 0
1, 1090519, Control_c, 0, 64, 87
1, 1090528, Note_off_c, 0, 48, 57
1, 1090533, Note_off_c, 0, 55, 62
1, 1090534, Note_off_c, 0, 60, 60
1, 1090534, Control_c, 0, 64, 88
1, 1090549, Control_c, 0, 64, 89
1, 1090563, Control_c, 0, 64, 88
1, 1090578, Control_c, 0, 64, 77
1, 1090582, Note_on_c, 0, 60, 71
1, 1090583, Note_on_c, 0, 48, 69
1, 1090583, Note_on_c, 0, 84, 95
1, 1090589, Note_on_c, 0, 55, 65
1, 1090590, Note_on_c, 0, 72, 88
1, 1090594, Note_on_c, 0, 76, 84
1, 1090594, Control_c, 0, 64, 63
1, 1090595, Note_on_c, 0, 79, 76
1, 1090609, Control_c, 0, 64, 0
1, 1090638, Control_c, 0, 64, 8
1, 1090653, Control_c, 0, 64, 59
1, 1090668, Control_c, 0, 64, 70
1, 1090683, Control_c, 0, 64, 83
1, 1090698, Control_c, 0, 64, 97
1, 1090712, Control_c, 0, 64, 104
1, 1090727, Control_c, 0, 64, 110
1, 1090742, Control_c, 0, 64, 121
1, 1090755, Note_off_c, 0, 76, 63
1, 1090757, Control_c, 0, 64, 127
1, 1090776, Note_off_c, 0, 79, 62
1, 1090783, Note_off_c, 0, 72, 62
1, 1090794, Note_off_c, 0, 48, 59
1, 1090796, Note_off_c, 0, 60, 60
1, 1090797, Note_off_c, 0, 84, 61
1, 1090819, Note_off_c, 0, 55, 61
1, 1091098, Note_on_c, 0, 88, 96
1, 1091102, Note_on_c, 0, 76, 98
1, 1091104, Note_on_c, 0, 85, 95
1, 1091105, Control_c, 0, 64, 75
1, 1091112, Note_on_c, 0, 52, 102
1, 1091114, Note_on_c, 0, 40, 88
1, 1091119, Control_c, 0, 64, 0
1, 1091208, Control_c, 0, 64, 60
1, 1091223, Control_c, 0, 64, 69
1, 1091238, Control_c, 0, 64, 77
1, 1091253, Control_c, 0, 64, 86
1, 1091267, Control_c, 0, 64, 95
1, 1091282, Control_c, 0, 64, 108
1, 1091297, Control_c, 0, 64, 127
1, 1091326, Note_off_c, 0, 40, 63
1, 1091375, Note_off_c, 0, 52, 62
1, 1091437, Note_off_c, 0, 88, 57
1, 1091441, Note_off_c, 0, 76, 56
1, 1091469, Note_off_c, 0, 85, 61
1, 1091533, Note_on_c, 0, 88, 101
1, 1091534, Note_on_c, 0, 76, 98
1, 1091535, Control_c, 0, 64, 95
1, 1091539, Note_on_c, 0, 61, 99
1, 1091540, Note_on_c, 0, 85, 97
1, 1091544, Note_on_c, 0, 49, 90
1, 1091550, Control_c, 0, 64, 56
1, 1091565, Control_c, 0, 64, 0
1, 1091595, Control_c, 0, 64, 32
1, 1091609, Control_c, 0, 64, 66
1, 1091624, Control_c, 0, 64, 91
1, 1091639, Control_c, 0, 64, 127
1, 1091722, Note_off_c, 0, 88, 53
1, 1091735, Note_off_c, 0, 49, 57
1, 1091741, Note_off_c, 0, 76, 55
1, 1091763, Note_off_c, 0, 61, 58
1, 1091839, Note_off_c, 0, 85, 49
1, 1091937, Note_on_c, 0, 88, 99
1, 1091941, Note_on_c, 0, 76, 101
1, 1091942, Control_c, 0, 64, 68
1, 1091945, Note_on_c, 0, 64, 96
1, 1091945, Note_on_c, 0, 85, 86
1, 1091947, Note_on_c, 0, 52, 93
1, 1091957, Control_c, 0, 64, 0
1, 1091960, Note_on_c, 0, 86, 82
1, 1092016, Control_c, 0, 64, 62
1, 1092031, Control_c, 0, 64, 80
1, 1092045, Note_off_c, 0, 86, 53
1, 1092046, Control_c, 0, 64, 127
1, 1092080, Note_off_c, 0, 88, 54
1, 1092129, Note_off_c, 0, 85, 63
1, 1092157, Note_off_c, 0, 52, 60
1, 1092159, Note_off_c, 0, 76, 31
1, 1092201, Note_off_c, 0, 64, 62
1, 1092327, Control_c, 0, 64, 87
1, 1092338, Note_on_c, 0, 88, 100
1, 1092340, Note_on_c, 0, 76, 103
1, 1092341, Note_on_c, 0, 69, 94
1, 1092342, Note_on_c, 0, 57, 89
1, 1092342, Control_c, 0, 64, 0
1, 1092343, Note_on_c, 0, 85, 96
1, 1092384, Note_on_c, 0, 86, 50
1, 1092408, Control_c, 0, 64, 63
1, 1092423, Control_c, 0, 64, 78
1, 1092431, Note_off_c, 0, 69, 63
1, 1092438, Control_c, 0, 64, 127
1, 1092462, Note_off_c, 0, 57, 62
1, 1092489, Note_off_c, 0, 86, 35
1, 1092493, Note_off_c, 0, 85, 60
1, 1092503, Note_off_c, 0, 88, 50
1, 1092525, Note_off_c, 0, 76, 56
1, 1092749, Control_c, 0, 64, 89
1, 1092755, Note_on_c, 0, 76, 96
1, 1092757, Note_on_c, 0, 88, 93
1, 1092758, Note_on_c, 0, 49, 94
1, 1092761, Note_on_c, 0, 37, 90
1, 1092761, Note_on_c, 0, 85, 92
1, 1092764, Control_c, 0, 64, 61
1, 1092779, Control_c, 0, 64, 0
1, 1092823, Control_c, 0, 64, 61
1, 1092828, Note_off_c, 0, 76, 62
1, 1092832, Note_off_c, 0, 37, 63
1, 1092835, Note_off_c, 0, 88, 61
1, 1092838, Control_c, 0, 64, 70
1, 1092838, Note_off_c, 0, 49, 60
1, 1092853, Control_c, 0, 64, 79
1, 1092857, Note_off_c, 0, 85, 64
1, 1092868, Control_c, 0, 64, 85
1, 1092882, Control_c, 0, 64, 87
1, 1092897, Control_c, 0, 64, 88
1, 1092912, Control_c, 0, 64, 89
1, 1092927, Control_c, 0, 64, 90
1, 1092942, Control_c, 0, 64, 90
1, 1092952, Note_on_c, 0, 86, 82
1, 1092969, Note_on_c, 0, 76, 74
1, 1092972, Note_on_c, 0, 83, 69
1, 1092976, Note_on_c, 0, 38, 80
1, 1092978, Note_on_c, 0, 50, 79
1, 1093027, Note_off_c, 0, 38, 63
1, 1093031, Note_off_c, 0, 50, 62
1, 1093038, Note_on_c, 0, 85, 78
1, 1093054, Note_off_c, 0, 83, 61
1, 1093057, Note_off_c, 0, 86, 59
1, 1093059, Note_off_c, 0, 76, 64
1, 1093062, Control_c, 0, 64, 88
1, 1093065, Note_on_c, 0, 81, 61
1, 1093077, Control_c, 0, 64, 77
1, 1093083, Note_off_c, 0, 81, 64
1, 1093085, Note_off_c, 0, 85, 64
1, 1093092, Control_c, 0, 64, 62
1, 1093106, Control_c, 0, 64, 0
1, 1093122, Note_on_c, 0, 40, 83
1, 1093125, Note_on_c, 0, 85, 85
1, 1093126, Note_on_c, 0, 52, 90
1, 1093131, Note_on_c, 0, 76, 83
1, 1093138, Note_on_c, 0, 81, 79
1, 1093160, Note_off_c, 0, 76, 69
1, 1093166, Note_off_c, 0, 81, 70
1, 1093174, Note_off_c, 0, 40, 64
1, 1093176, Note_off_c, 0, 52, 62
1, 1093193, Note_off_c, 0, 85, 61
1, 1093346, Note_on_c, 0, 83, 91
1, 1093348, Note_on_c, 0, 76, 90
1, 1093355, Note_on_c, 0, 40, 85
1, 1093357, Note_on_c, 0, 52, 86
1, 1093361, Note_on_c, 0, 80, 65
1, 1093381, Note_off_c, 0, 80, 68
1, 1093382, Note_off_c, 0, 83, 52
1, 1093387, Note_off_c, 0, 76, 65
1, 1093388, Note_off_c, 0, 52, 67
1, 1093405, Note_off_c, 0, 40, 63
1, 1093587, Control_c, 0, 64, 57
1, 1093593, Note_on_c, 0, 81, 87
1, 1093596, Note_on_c, 0, 76, 87
1, 1093598, Note_on_c, 0, 73, 90
1, 1093602, Control_c, 0, 64, 65
1, 1093605, Note_on_c, 0, 45, 88
1, 1093609, Note_on_c, 0, 33, 83
1, 1093617, Control_c, 0, 64, 68
1, 1093631, Control_c, 0, 64, 68
1, 1093670, Note_off_c, 0, 76, 63
1, 1093678, Note_off_c, 0, 73, 50
1, 1093679, Note_off_c, 0, 81, 54
1, 1093704, Note_on_c, 0, 69, 79
1, 1093706, Control_c, 0, 64, 68
1, 1093721, Control_c, 0, 64, 67
1, 1093736, Control_c, 0, 64, 66
1, 1093750, Control_c, 0, 64, 65
1, 1093765, Control_c, 0, 64, 64
1, 1093781, Control_c, 0, 64, 62
1, 1093796, Control_c, 0, 64, 61
1, 1093796, Control_c, 0, 67, 9
1, 1093801, Note_on_c, 0, 81, 77
1, 1093803, Note_off_c, 0, 69, 58
1, 1093810, Control_c, 0, 64, 58
1, 1093810, Control_c, 0, 67, 15
1, 1093825, Control_c, 0, 64, 54
1, 1093825, Control_c, 0, 67, 21
1, 1093840, Control_c, 0, 64, 51
1, 1093840, Control_c, 0, 67, 26
1, 1093855, Control_c, 0, 64, 47
1, 1093855, Control_c, 0, 67, 31
1, 1093870, Control_c, 0, 64, 41
1, 1093870, Control_c, 0, 67, 36
1, 1093885, Control_c, 0, 64, 31
1, 1093885, Control_c, 0, 67, 40
1, 1093891, Note_off_c, 0, 81, 62
1, 1093894, Note_on_c, 0, 83, 78
1, 1093907, Control_c, 0, 64, 0
1, 1093907, Control_c, 0, 67, 46
1, 1093922, Control_c, 0, 67, 53
1, 1093936, Control_c, 0, 67, 60
1, 1093951, Control_c, 0, 67, 66
1, 1093966, Control_c, 0, 67, 72
1, 1093981, Control_c, 0, 67, 77
1, 1093986, Note_on_c, 0, 81, 77
1, 1093996, Control_c, 0, 67, 80
1, 1094010, Control_c, 0, 67, 82
1, 1094013, Note_off_c, 0, 83, 49
1, 1094025, Control_c, 0, 67, 82
1, 1094040, Control_c, 0, 67, 84
1, 1094053, Note_off_c, 0, 81, 57
1, 1094055, Control_c, 0, 67, 86
1, 1094070, Note_on_c, 0, 69, 74
1, 1094070, Control_c, 0, 67, 88
1, 1094084, Control_c, 0, 67, 92
1, 1094090, Note_off_c, 0, 33, 61
1, 1094099, Control_c, 0, 67, 95
1, 1094114, Control_c, 0, 67, 97
1, 1094124, Note_off_c, 0, 45, 58
1, 1094129, Control_c, 0, 67, 99
1, 1094144, Control_c, 0, 67, 101
1, 1094159, Control_c, 0, 67, 105
1, 1094166, Note_off_c, 0, 69, 63
1, 1094167, Note_on_c, 0, 81, 68
1, 1094174, Control_c, 0, 67, 108
1, 1094188, Control_c, 0, 67, 111
1, 1094203, Control_c, 0, 67, 115
1, 1094218, Control_c, 0, 67, 119
1, 1094233, Control_c, 0, 67, 122
1, 1094238, Note_off_c, 0, 81, 61
1, 1094248, Control_c, 0, 67, 124
1, 1094262, Control_c, 0, 64, 28
1, 1094262, Control_c, 0, 67, 125
1, 1094266, Note_on_c, 0, 83, 56
1, 1094277, Control_c, 0, 64, 53
1, 1094277, Control_c, 0, 67, 126
1, 1094292, Control_c, 0, 64, 61
1, 1094307, Control_c, 0, 64, 64
1, 1094322, Control_c, 0, 64, 65
1, 1094332, Note_on_c, 0, 81, 61
1, 1094336, Control_c, 0, 64, 66
1, 1094351, Control_c, 0, 64, 66
1, 1094366, Control_c, 0, 64, 67
1, 1094386, Note_off_c, 0, 81, 59
1, 1094419, Note_on_c, 0, 69, 59
1, 1094425, Control_c, 0, 67, 125
1, 1094445, Note_off_c, 0, 83, 55
1, 1094448, Note_off_c, 0, 69, 68
1, 1094497, Note_on_c, 0, 81, 73
1, 1094499, Control_c, 0, 64, 66
1, 1094514, Control_c, 0, 64, 66
1, 1094528, Control_c, 0, 64, 65
1, 1094543, Control_c, 0, 64, 64
1, 1094558, Control_c, 0, 64, 63
1, 1094573, Control_c, 0, 64, 62
1, 1094588, Note_on_c, 0, 82, 68
1, 1094588, Control_c, 0, 64, 61
1, 1094596, Note_off_c, 0, 81, 54
1, 1094603, Control_c, 0, 64, 60
1, 1094618, Control_c, 0, 64, 56
1, 1094633, Control_c, 0, 64, 48
1, 1094655, Note_off_c, 0, 82, 63
1, 1094655, Control_c, 0, 64, 40
1, 1094670, Control_c, 0, 64, 31
1, 1094670, Control_c, 0, 67, 125
1, 1094682, Note_on_c, 0, 81, 70
1, 1094684, Control_c, 0, 64, 24
1, 1094684, Control_c, 0, 67, 124
1, 1094699, Control_c, 0, 64, 21
1, 1094699, Control_c, 0, 67, 124
1, 1094714, Control_c, 0, 64, 20
1, 1094729, Control_c, 0, 67, 123
1, 1094745, Note_off_c, 0, 81, 58
1, 1094759, Note_on_c, 0, 82, 70
1, 1094773, Control_c, 0, 64, 19
1, 1094773, Control_c, 0, 67, 123
1, 1094818, Control_c, 0, 64, 18
1, 1094818, Control_c, 0, 67, 122
1, 1094824, Note_off_c, 0, 82, 62
1, 1094848, Control_c, 0, 67, 122
1, 1094849, Note_on_c, 0, 81, 71
1, 1094907, Control_c, 0, 67, 122
1, 1094911, Note_off_c, 0, 81, 59
1, 1094922, Control_c, 0, 64, 17
1, 1094922, Control_c, 0, 67, 123
1, 1094931, Note_on_c, 0, 82, 70
1, 1094937, Control_c, 0, 67, 124
1, 1094951, Control_c, 0, 64, 15
1, 1094951, Control_c, 0, 67, 125
1, 1094966, Control_c, 0, 64, 14
1, 1094966, Control_c, 0, 67, 126
1, 1094981, Control_c, 0, 64, 8
1, 1094981, Control_c, 0, 67, 127
1, 1094992, Note_off_c, 0, 82, 61
1, 1094996, Control_c, 0, 64, 0
1, 1094996, Control_c, 0, 67, 127
1, 1095034, Note_on_c, 0, 81, 68
1, 1095037, Note_on_c, 0, 53, 54
1, 1095044, Note_on_c, 0, 50, 48
1, 1095097, Note_off_c, 0, 81, 46
1, 1095112, Note_on_c, 0, 82, 64
1, 1095213, Note_on_c, 0, 79, 62
1, 1095215, Note_off_c, 0, 82, 62
1, 1095294, Note_on_c, 0, 81, 67
1, 1095294, Note_off_c, 0, 79, 59
1, 1095339, Note_off_c, 0, 81, 59
1, 1095364, Note_off_c, 0, 53, 65
1, 1095384, Note_on_c, 0, 55, 52
1, 1095387, Note_on_c, 0, 77, 66
1, 1095408, Note_on_c, 0, 52, 52
1, 1095411, Note_off_c, 0, 50, 55
1, 1095475, Note_on_c, 0, 79, 62
1, 1095480, Note_off_c, 0, 77, 52
1, 1095554, Note_off_c, 0, 79, 56
1, 1095558, Note_on_c, 0, 76, 58
1, 1095614, Note_off_c, 0, 76, 59
1, 1095653, Note_on_c, 0, 77, 65
1, 1095714, Note_off_c, 0, 77, 54
1, 1095719, Note_off_c, 0, 55, 66
1, 1095733, Note_on_c, 0, 76, 69
1, 1095738, Note_on_c, 0, 57, 63
1, 1095741, Note_on_c, 0, 53, 59
1, 1095741, Note_off_c, 0, 52, 60
1, 1095821, Note_off_c, 0, 76, 61
1, 1095822, Note_on_c, 0, 74, 64
1, 1095869, Note_off_c, 0, 74, 62
1, 1095911, Note_on_c, 0, 69, 60
1, 1095944, Note_off_c, 0, 53, 65
1, 1095944, Note_off_c, 0, 57, 60
1, 1096001, Note_on_c, 0, 74, 54
1, 1096015, Note_off_c, 0, 69, 59
1, 1096073, Note_off_c, 0, 74, 58
1, 1096082, Note_on_c, 0, 55, 64
1, 1096091, Note_on_c, 0, 57, 60
1, 1096091, Note_on_c, 0, 77, 64
1, 1096101, Note_off_c, 0, 55, 66
1, 1096117, Note_off_c, 0, 57, 64
1, 1096190, Note_on_c, 0, 76, 57
1, 1096201, Note_off_c, 0, 77, 53
1, 1096236, Note_off_c, 0, 76, 59
1, 1096258, Note_on_c, 0, 52, 72
1, 1096269, Note_on_c, 0, 69, 61
1, 1096285, Note_off_c, 0, 52, 70
1, 1096308, Note_on_c, 0, 57, 3
1, 1096309, Note_off_c, 0, 57, 127
1, 1096359, Note_on_c, 0, 73, 63
1, 1096380, Note_off_c, 0, 69, 51
1, 1096440, Note_off_c, 0, 73, 51
1, 1096441, Note_on_c, 0, 57, 70
1, 1096445, Note_on_c, 0, 53, 74
1, 1096445, Note_on_c, 0, 76, 63
1, 1096448, Control_c, 0, 64, 48
1, 1096463, Control_c, 0, 64, 58
1, 1096478, Control_c, 0, 64, 60
1, 1096508, Control_c, 0, 64, 60
1, 1096523, Control_c, 0, 64, 61
1, 1096527, Note_on_c, 0, 74, 55
1, 1096531, Note_off_c, 0, 76, 54
1, 1096553, Control_c, 0, 64, 61
1, 1096565, Note_off_c, 0, 74, 58
1, 1096592, Note_on_c, 0, 69, 62
1, 1096612, Control_c, 0, 64, 62
1, 1096652, Note_off_c, 0, 53, 63
1, 1096671, Control_c, 0, 64, 62
1, 1096673, Note_off_c, 0, 57, 61
1, 1096696, Note_on_c, 0, 74, 60
1, 1096717, Control_c, 0, 64, 62
1, 1096720, Note_off_c, 0, 69, 60
1, 1096731, Control_c, 0, 64, 59
1, 1096746, Control_c, 0, 64, 52
1, 1096761, Control_c, 0, 64, 0
1, 1096767, Note_off_c, 0, 74, 61
1, 1096777, Note_on_c, 0, 55, 71
1, 1096779, Note_on_c, 0, 77, 82
1, 1096780, Note_on_c, 0, 57, 71
1, 1096809, Note_off_c, 0, 55, 67
1, 1096814, Note_off_c, 0, 57, 61
1, 1096859, Note_on_c, 0, 76, 67
1, 1096872, Note_off_c, 0, 77, 57
1, 1096922, Note_off_c, 0, 76, 63
1, 1096941, Note_on_c, 0, 57, 64
1, 1096943, Note_on_c, 0, 52, 68
1, 1096950, Note_on_c, 0, 69, 65
1, 1096971, Note_off_c, 0, 52, 68
1, 1096973, Note_off_c, 0, 57, 62
1, 1097044, Note_off_c, 0, 69, 63
1, 1097048, Note_on_c, 0, 73, 57
1, 1097113, Note_on_c, 0, 57, 76
1, 1097115, Note_on_c, 0, 53, 76
1, 1097120, Note_on_c, 0, 74, 58
1, 1097120, Note_off_c, 0, 73, 60
1, 1097142, Note_off_c, 0, 53, 67
1, 1097148, Note_off_c, 0, 57, 61
1, 1097185, Note_on_c, 0, 69, 59
1, 1097185, Note_off_c, 0, 74, 63
1, 1097269, Note_on_c, 0, 57, 74
1, 1097275, Note_on_c, 0, 76, 71
1, 1097277, Note_off_c, 0, 69, 63
1, 1097284, Note_on_c, 0, 52, 57
1, 1097297, Note_off_c, 0, 57, 64
1, 1097310, Note_off_c, 0, 52, 57
1, 1097353, Note_on_c, 0, 73, 74
1, 1097355, Note_off_c, 0, 76, 65
1, 1097405, Control_c, 0, 67, 122
1, 1097420, Control_c, 0, 67, 106
1, 1097433, Note_on_c, 0, 77, 75
1, 1097435, Control_c, 0, 67, 81
1, 1097439, Note_off_c, 0, 73, 58
1, 1097440, Note_on_c, 0, 57, 72
1, 1097445, Note_on_c, 0, 50, 64
1, 1097450, Control_c, 0, 67, 56
1, 1097465, Control_c, 0, 67, 32
1, 1097468, Note_off_c, 0, 57, 63
1, 1097474, Note_off_c, 0, 50, 65
1, 1097480, Control_c, 0, 67, 13
1, 1097483, Note_off_c, 0, 77, 63
1, 1097495, Control_c, 0, 67, 0
1, 1097515, Note_on_c, 0, 74, 72
1, 1097594, Note_off_c, 0, 74, 62
1, 1097595, Note_on_c, 0, 79, 68
1, 1097608, Note_on_c, 0, 48, 62
1, 1097608, Note_on_c, 0, 58, 64
1, 1097634, Note_off_c, 0, 58, 66
1, 1097638, Note_off_c, 0, 48, 64
1, 1097683, Note_off_c, 0, 79, 56
1, 1097692, Note_on_c, 0, 76, 58
1, 1097709, Control_c, 0, 64, 12
1, 1097733, Note_off_c, 0, 76, 60
1, 1097739, Control_c, 0, 64, 8
1, 1097769, Control_c, 0, 64, 12
1, 1097778, Note_on_c, 0, 84, 84
1, 1097784, Note_on_c, 0, 81, 79
1, 1097784, Note_on_c, 0, 57, 58
1, 1097784, Control_c, 0, 64, 20
1, 1097797, Note_on_c, 0, 72, 66
1, 1097799, Control_c, 0, 64, 31
1, 1097814, Control_c, 0, 64, 39
1, 1097828, Control_c, 0, 64, 48
1, 1097843, Control_c, 0, 64, 55
1, 1097858, Control_c, 0, 64, 59
1, 1097867, Note_off_c, 0, 57, 60
1, 1097870, Note_on_c, 0, 53, 60
1, 1097873, Control_c, 0, 64, 61
1, 1097888, Control_c, 0, 64, 61
1, 1097891, Note_off_c, 0, 81, 59
1, 1097903, Control_c, 0, 64, 62
1, 1097936, Note_off_c, 0, 53, 65
1, 1097944, Note_on_c, 0, 48, 68
1, 1097960, Note_off_c, 0, 72, 63
1, 1097963, Control_c, 0, 64, 62
1, 1097972, Note_off_c, 0, 84, 59
1, 1098018, Note_off_c, 0, 48, 59
1, 1098036, Control_c, 0, 64, 61
1, 1098040, Note_on_c, 0, 53, 51
1, 1098051, Control_c, 0, 64, 59
1, 1098066, Control_c, 0, 64, 54
1, 1098070, Note_off_c, 0, 53, 67
1, 1098081, Control_c, 0, 64, 32
1, 1098082, Note_on_c, 0, 57, 74
1, 1098096, Control_c, 0, 64, 0
1, 1098101, Note_on_c, 0, 82, 77
1, 1098106, Note_on_c, 0, 84, 71
1, 1098106, Note_on_c, 0, 72, 68
1, 1098133, Note_off_c, 0, 72, 66
1, 1098138, Note_off_c, 0, 84, 60
1, 1098138, Note_off_c, 0, 82, 63
1, 1098168, Note_off_c, 0, 57, 56
1, 1098180, Note_on_c, 0, 55, 67
1, 1098246, Note_off_c, 0, 55, 62
1, 1098252, Note_on_c, 0, 79, 74
1, 1098255, Note_on_c, 0, 84, 73
1, 1098256, Note_on_c, 0, 48, 70
1, 1098267, Note_on_c, 0, 72, 52
1, 1098279, Note_off_c, 0, 79, 62
1, 1098282, Note_off_c, 0, 84, 63
1, 1098288, Note_off_c, 0, 72, 61
1, 1098329, Note_off_c, 0, 48, 57
1, 1098344, Note_on_c, 0, 53, 62
1, 1098387, Note_off_c, 0, 53, 64
1, 1098428, Note_on_c, 0, 84, 86
1, 1098434, Note_on_c, 0, 81, 82
1, 1098438, Note_on_c, 0, 55, 67
1, 1098440, Note_on_c, 0, 72, 70
1, 1098472, Control_c, 0, 64, 23
1, 1098487, Control_c, 0, 64, 35
1, 1098502, Control_c, 0, 64, 40
1, 1098508, Note_off_c, 0, 55, 61
1, 1098509, Note_on_c, 0, 53, 73
1, 1098517, Control_c, 0, 64, 40
1, 1098532, Control_c, 0, 64, 38
1, 1098546, Control_c, 0, 64, 37
1, 1098561, Control_c, 0, 64, 38
1, 1098568, Note_off_c, 0, 53, 63
1, 1098577, Control_c, 0, 64, 39
1, 1098580, Note_on_c, 0, 48, 69
1, 1098592, Control_c, 0, 64, 40
1, 1098606, Control_c, 0, 64, 41
1, 1098621, Control_c, 0, 64, 43
1, 1098630, Note_off_c, 0, 81, 55
1, 1098630, Note_off_c, 0, 84, 59
1, 1098636, Control_c, 0, 64, 44
1, 1098637, Note_off_c, 0, 72, 62
1, 1098666, Control_c, 0, 64, 43
1, 1098674, Note_off_c, 0, 48, 62
1, 1098676, Note_on_c, 0, 53, 68
1, 1098681, Control_c, 0, 64, 39
1, 1098696, Control_c, 0, 64, 31
1, 1098711, Control_c, 0, 64, 0
1, 1098727, Note_on_c, 0, 82, 84
1, 1098732, Note_on_c, 0, 72, 78
1, 1098733, Note_off_c, 0, 53, 64
1, 1098738, Note_on_c, 0, 57, 77
1, 1098741, Note_on_c, 0, 84, 69
1, 1098765, Note_off_c, 0, 72, 60
1, 1098770, Note_off_c, 0, 84, 61
1, 1098796, Note_off_c, 0, 82, 59
1, 1098820, Note_off_c, 0, 57, 58
1, 1098829, Note_on_c, 0, 55, 68
1, 1098885, Note_on_c, 0, 84, 71
1, 1098892, Note_on_c, 0, 79, 63
1, 1098893, Note_on_c, 0, 48, 71
1, 1098898, Note_on_c, 0, 72, 59
1, 1098916, Note_off_c, 0, 79, 64
1, 1098919, Note_off_c, 0, 84, 61
1, 1098922, Note_off_c, 0, 55, 63
1, 1098922, Note_off_c, 0, 72, 61
1, 1098979, Note_off_c, 0, 48, 61
1, 1098989, Note_on_c, 0, 52, 62
1, 1099050, Note_off_c, 0, 52, 66
1, 1099051, Note_on_c, 0, 53, 70
1, 1099053, Note_on_c, 0, 81, 86
1, 1099061, Note_on_c, 0, 69, 74
1, 1099063, Note_on_c, 0, 72, 63
1, 1099095, Note_off_c, 0, 69, 61
1, 1099096, Note_off_c, 0, 72, 64
1, 1099113, Note_off_c, 0, 81, 59
1, 1099119, Note_on_c, 0, 48, 67
1, 1099129, Note_off_c, 0, 53, 62
1, 1099197, Note_on_c, 0, 55, 73
1, 1099209, Note_off_c, 0, 48, 61
1, 1099220, Note_on_c, 0, 79, 78
1, 1099226, Note_on_c, 0, 67, 70
1, 1099234, Note_on_c, 0, 72, 62
1, 1099244, Note_off_c, 0, 55, 61
1, 1099259, Note_off_c, 0, 67, 61
1, 1099261, Note_off_c, 0, 72, 66
1, 1099272, Note_off_c, 0, 79, 60
1, 1099288, Note_on_c, 0, 52, 73
1, 1099355, Note_off_c, 0, 52, 66
1, 1099363, Note_on_c, 0, 57, 85
1, 1099368, Note_on_c, 0, 77, 81
1, 1099373, Note_on_c, 0, 65, 71
1, 1099378, Note_on_c, 0, 72, 60
1, 1099408, Note_off_c, 0, 65, 59
1, 1099414, Note_off_c, 0, 77, 58
1, 1099431, Note_off_c, 0, 57, 55
1, 1099437, Note_off_c, 0, 72, 55
1, 1099450, Note_on_c, 0, 53, 70
1, 1099521, Note_off_c, 0, 53, 61
1, 1099522, Note_on_c, 0, 76, 73
1, 1099523, Note_on_c, 0, 59, 75
1, 1099523, Note_on_c, 0, 64, 64
1, 1099549, Note_off_c, 0, 64, 67
1, 1099563, Control_c, 0, 64, 31
1, 1099578, Control_c, 0, 64, 43
1, 1099580, Note_on_c, 0, 56, 74
1, 1099590, Note_off_c, 0, 76, 62
1, 1099592, Control_c, 0, 64, 49
1, 1099598, Note_off_c, 0, 59, 63
1, 1099607, Control_c, 0, 64, 51
1, 1099622, Control_c, 0, 64, 49
1, 1099628, Note_off_c, 0, 56, 62
1, 1099637, Control_c, 0, 64, 39
1, 1099652, Control_c, 0, 64, 0
1, 1099681, Note_on_c, 0, 48, 83
1, 1099681, Note_on_c, 0, 60, 87
1, 1099685, Note_on_c, 0, 83, 80
1, 1099696, Note_on_c, 0, 52, 72
1, 1099757, Note_on_c, 0, 81, 77
1, 1099768, Note_off_c, 0, 83, 55
1, 1099809, Note_off_c, 0, 48, 60
1, 1099817, Note_off_c, 0, 81, 61
1, 1099827, Note_off_c, 0, 52, 66
1, 1099830, Note_off_c, 0, 60, 60
1, 1099847, Note_on_c, 0, 76, 68
1, 1099939, Note_on_c, 0, 81, 71
1, 1099960, Note_off_c, 0, 76, 60
1, 1099993, Note_on_c, 0, 62, 88
1, 1099995, Note_on_c, 0, 50, 82
1, 1100020, Note_off_c, 0, 81, 58
1, 1100025, Note_on_c, 0, 84, 73
1, 1100031, Note_off_c, 0, 50, 62
1, 1100031, Note_on_c, 0, 52, 31
1, 1100032, Note_off_c, 0, 52, 127
1, 1100037, Note_off_c, 0, 62, 61
1, 1100090, Note_on_c, 0, 83, 54
1, 1100124, Note_off_c, 0, 84, 61
1, 1100138, Note_off_c, 0, 83, 61
1, 1100145, Note_on_c, 0, 59, 79
1, 1100149, Note_on_c, 0, 47, 71
1, 1100157, Note_on_c, 0, 52, 58
1, 1100162, Note_on_c, 0, 76, 74
1, 1100168, Note_off_c, 0, 59, 70
1, 1100179, Note_off_c, 0, 47, 67
1, 1100184, Note_off_c, 0, 52, 57
1, 1100253, Note_on_c, 0, 80, 68
1, 1100293, Note_off_c, 0, 76, 57
1, 1100313, Note_on_c, 0, 60, 94
1, 1100314, Note_on_c, 0, 48, 94
1, 1100319, Note_on_c, 0, 52, 73
1, 1100327, Control_c, 0, 64, 50
1, 1100332, Note_on_c, 0, 83, 75
1, 1100342, Control_c, 0, 64, 58
1, 1100347, Note_off_c, 0, 80, 56
1, 1100357, Control_c, 0, 64, 58
1, 1100371, Control_c, 0, 64, 57
1, 1100410, Note_on_c, 0, 81, 68
1, 1100420, Note_off_c, 0, 83, 58
1, 1100446, Control_c, 0, 64, 57
1, 1100461, Control_c, 0, 64, 56
1, 1100467, Note_off_c, 0, 81, 60
1, 1100467, Note_off_c, 0, 48, 60
1, 1100475, Control_c, 0, 64, 55
1, 1100476, Note_on_c, 0, 76, 70
1, 1100487, Note_off_c, 0, 52, 64
1, 1100489, Note_off_c, 0, 60, 61
1, 1100490, Control_c, 0, 64, 54
1, 1100505, Control_c, 0, 64, 54
1, 1100520, Control_c, 0, 64, 52
1, 1100535, Control_c, 0, 64, 50
1, 1100549, Control_c, 0, 64, 45
1, 1100564, Control_c, 0, 64, 34
1, 1100570, Note_on_c, 0, 81, 75
1, 1100579, Control_c, 0, 64, 0
1, 1100584, Note_off_c, 0, 76, 61
1, 1100610, Note_on_c, 0, 62, 93
1, 1100614, Note_on_c, 0, 50, 84
1, 1100629, Note_on_c, 0, 52, 63
1, 1100633, Note_off_c, 0, 81, 59
1, 1100646, Note_on_c, 0, 84, 82
1, 1100665, Note_off_c, 0, 52, 67
1, 1100667, Note_off_c, 0, 62, 64
1, 1100676, Note_off_c, 0, 50, 63
1, 1100727, Note_off_c, 0, 84, 62
1, 1100736, Note_on_c, 0, 83, 51
1, 1100762, Note_on_c, 0, 76, 72
1, 1100774, Note_on_c, 0, 59, 78
1, 1100775, Note_off_c, 0, 83, 60
1, 1100778, Note_on_c, 0, 52, 66
1, 1100781, Note_on_c, 0, 47, 70
1, 1100797, Note_off_c, 0, 59, 71
1, 1100808, Note_off_c, 0, 52, 67
1, 1100815, Note_off_c, 0, 47, 67
1, 1100846, Note_off_c, 0, 76, 61
1, 1100854, Note_on_c, 0, 80, 65
1, 1100895, Note_off_c, 0, 80, 61
1, 1100927, Control_c, 0, 64, 8
1, 1100942, Control_c, 0, 64, 17
1, 1100943, Note_on_c, 0, 88, 95
1, 1100944, Note_on_c, 0, 84, 92
1, 1100945, Note_on_c, 0, 47, 89
1, 1100949, Note_on_c, 0, 76, 91
1, 1100956, Control_c, 0, 64, 26
1, 1100972, Control_c, 0, 64, 32
1, 1100987, Control_c, 0, 64, 34
1, 1100994, Note_on_c, 0, 45, 54
1, 1101017, Control_c, 0, 64, 34
1, 1101032, Control_c, 0, 64, 34
1, 1101060, Note_off_c, 0, 47, 39
1, 1101065, Note_on_c, 0, 40, 80
1, 1101067, Note_off_c, 0, 45, 65
1, 1101076, Control_c, 0, 64, 34
1, 1101106, Control_c, 0, 64, 36
1, 1101120, Control_c, 0, 64, 39
1, 1101128, Note_off_c, 0, 76, 62
1, 1101130, Note_on_c, 0, 45, 77
1, 1101135, Control_c, 0, 64, 40
1, 1101137, Note_off_c, 0, 88, 57
1, 1101143, Note_off_c, 0, 40, 65
1, 1101150, Control_c, 0, 64, 41
1, 1101178, Note_off_c, 0, 84, 62
1, 1101194, Control_c, 0, 64, 40
1, 1101203, Note_off_c, 0, 45, 65
1, 1101209, Control_c, 0, 64, 39
1, 1101221, Note_on_c, 0, 48, 85
1, 1101224, Control_c, 0, 64, 37
1, 1101239, Note_on_c, 0, 76, 81
1, 1101239, Control_c, 0, 64, 36
1, 1101241, Note_on_c, 0, 86, 83
1, 1101243, Note_on_c, 0, 88, 82
1, 1101253, Control_c, 0, 64, 34
1, 1101268, Control_c, 0, 64, 32
1, 1101283, Control_c, 0, 64, 26
1, 1101286, Note_off_c, 0, 76, 65
1, 1101287, Note_off_c, 0, 86, 63
1, 1101289, Note_off_c, 0, 88, 62
1, 1101298, Note_off_c, 0, 48, 62
1, 1101298, Control_c, 0, 64, 0
1, 1101306, Note_on_c, 0, 47, 63
1, 1101326, Note_on_c, 0, 45, 44
1, 1101358, Note_off_c, 0, 45, 55
1, 1101370, Note_on_c, 0, 40, 68
1, 1101397, Note_on_c, 0, 83, 86
1, 1101401, Note_on_c, 0, 76, 77
1, 1101405, Note_on_c, 0, 88, 84
1, 1101405, Note_off_c, 0, 47, 64
1, 1101433, Note_off_c, 0, 76, 63
1, 1101444, Note_off_c, 0, 83, 60
1, 1101444, Note_off_c, 0, 88, 60
1, 1101445, Note_on_c, 0, 44, 68
1, 1101472, Note_off_c, 0, 40, 61
1, 1101534, Note_off_c, 0, 44, 63
1, 1101552, Note_on_c, 0, 88, 100
1, 1101552, Note_on_c, 0, 47, 83
1, 1101556, Note_on_c, 0, 84, 88
1, 1101558, Control_c, 0, 64, 35
1, 1101558, Note_on_c, 0, 76, 95
1, 1101572, Control_c, 0, 64, 49
1, 1101587, Control_c, 0, 64, 51
1, 1101602, Control_c, 0, 64, 52
1, 1101617, Control_c, 0, 64, 52
1, 1101629, Note_on_c, 0, 45, 81
1, 1101632, Control_c, 0, 64, 53
1, 1101643, Note_off_c, 0, 47, 62
1, 1101646, Control_c, 0, 64, 53
1, 1101661, Control_c, 0, 64, 53
1, 1101676, Control_c, 0, 64, 52
1, 1101701, Note_on_c, 0, 40, 75
1, 1101706, Note_off_c, 0, 45, 64
1, 1101721, Note_off_c, 0, 76, 58
1, 1101735, Note_off_c, 0, 88, 59
1, 1101735, Control_c, 0, 64, 52
1, 1101745, Note_off_c, 0, 84, 60
1, 1101750, Control_c, 0, 64, 53
1, 1101766, Control_c, 0, 64, 53
1, 1101789, Note_on_c, 0, 45, 75
1, 1101794, Note_off_c, 0, 40, 65
1, 1101795, Control_c, 0, 64, 53
1, 1101810, Control_c, 0, 64, 52
1, 1101825, Control_c, 0, 64, 50
1, 1101840, Control_c, 0, 64, 49
1, 1101850, Note_on_c, 0, 88, 95
1, 1101852, Note_on_c, 0, 48, 87
1, 1101852, Note_off_c, 0, 45, 65
1, 1101853, Note_on_c, 0, 86, 87
1, 1101853, Note_on_c, 0, 76, 85
1, 1101855, Control_c, 0, 64, 47
1, 1101869, Control_c, 0, 64, 43
1, 1101884, Control_c, 0, 64, 34
1, 1101897, Note_off_c, 0, 76, 67
1, 1101897, Note_off_c, 0, 86, 63
1, 1101899, Control_c, 0, 64, 0
1, 1101901, Note_off_c, 0, 88, 63
1, 1101932, Note_on_c, 0, 47, 82
1, 1101942, Note_off_c, 0, 48, 58
1, 1101993, Note_on_c, 0, 40, 76
1, 1102008, Note_on_c, 0, 83, 85
1, 1102009, Note_on_c, 0, 76, 87
1, 1102016, Note_on_c, 0, 88, 78
1, 1102033, Note_off_c, 0, 47, 63
1, 1102043, Note_off_c, 0, 76, 63
1, 1102046, Note_off_c, 0, 88, 59
1, 1102052, Note_off_c, 0, 83, 59
1, 1102058, Note_off_c, 0, 40, 66
1, 1102063, Note_on_c, 0, 44, 46
1, 1102091, Control_c, 0, 64, 22
1, 1102094, Note_off_c, 0, 44, 54
1, 1102106, Control_c, 0, 64, 41
1, 1102121, Control_c, 0, 64, 48
1, 1102143, Control_c, 0, 64, 51
1, 1102151, Note_on_c, 0, 88, 100
1, 1102156, Note_on_c, 0, 45, 92
1, 1102158, Control_c, 0, 64, 53
1, 1102165, Note_on_c, 0, 76, 73
1, 1102167, Note_on_c, 0, 84, 75
1, 1102168, Note_on_c, 0, 77, 76
1, 1102173, Control_c, 0, 64, 55
1, 1102187, Note_off_c, 0, 76, 71
1, 1102188, Control_c, 0, 64, 57
1, 1102189, Note_off_c, 0, 77, 69
1, 1102192, Note_off_c, 0, 84, 68
1, 1102202, Control_c, 0, 64, 56
1, 1102210, Note_off_c, 0, 88, 65
1, 1102215, Note_off_c, 0, 45, 64
1, 1102217, Control_c, 0, 64, 55
1, 1102232, Control_c, 0, 64, 54
1, 1102243, Note_on_c, 0, 52, 84
1, 1102247, Control_c, 0, 64, 49
1, 1102262, Control_c, 0, 64, 39
1, 1102276, Control_c, 0, 64, 0
1, 1102299, Note_off_c, 0, 52, 62
1, 1102308, Note_on_c, 0, 92, 89
1, 1102312, Note_on_c, 0, 40, 79
1, 1102316, Note_on_c, 0, 83, 62
1, 1102318, Note_on_c, 0, 88, 60
1, 1102335, Note_off_c, 0, 83, 65
1, 1102338, Note_off_c, 0, 88, 62
1, 1102339, Note_on_c, 0, 84, 40
1, 1102361, Note_off_c, 0, 92, 64
1, 1102365, Note_off_c, 0, 40, 65
1, 1102369, Note_off_c, 0, 84, 34
1, 1102394, Note_on_c, 0, 52, 77
1, 1102448, Note_off_c, 0, 52, 62
1, 1102452, Note_on_c, 0, 45, 87
1, 1102454, Note_on_c, 0, 84, 74
1, 1102458, Note_on_c, 0, 93, 87
1, 1102487, Note_off_c, 0, 84, 65
1, 1102500, Note_off_c, 0, 45, 65
1, 1102505, Note_off_c, 0, 93, 61
1, 1102526, Note_on_c, 0, 52, 86
1, 1102580, Note_off_c, 0, 52, 64
1, 1102591, Note_on_c, 0, 40, 85
1, 1102602, Note_on_c, 0, 83, 86
1, 1102602, Note_on_c, 0, 92, 90
1, 1102627, Note_on_c, 0, 88, 44
1, 1102647, Note_off_c, 0, 40, 65
1, 1102649, Note_off_c, 0, 83, 62
1, 1102657, Note_off_c, 0, 88, 34
1, 1102666, Note_on_c, 0, 52, 84
1, 1102675, Note_off_c, 0, 92, 65
1, 1102720, Note_off_c, 0, 52, 64
1, 1102737, Note_on_c, 0, 45, 94
1, 1102745, Note_on_c, 0, 84, 93
1, 1102745, Note_on_c, 0, 88, 81
1, 1102745, Note_on_c, 0, 93, 94
1, 1102783, Note_off_c, 0, 84, 65
1, 1102789, Note_off_c, 0, 88, 63
1, 1102792, Note_off_c, 0, 45, 64
1, 1102806, Note_on_c, 0, 52, 86
1, 1102810, Note_off_c, 0, 93, 61
1, 1102869, Note_off_c, 0, 52, 63
1, 1102877, Note_on_c, 0, 40, 89
1, 1102897, Note_on_c, 0, 95, 98
1, 1102899, Note_on_c, 0, 88, 91
1, 1102899, Note_on_c, 0, 92, 93
1, 1102938, Note_off_c, 0, 88, 64
1, 1102940, Note_off_c, 0, 92, 64
1, 1102944, Note_off_c, 0, 40, 65
1, 1102948, Note_off_c, 0, 95, 65
1, 1102962, Note_on_c, 0, 52, 90
1, 1103035, Note_off_c, 0, 52, 63
1, 1103036, Note_on_c, 0, 45, 89
1, 1103039, Note_on_c, 0, 96, 97
1, 1103045, Note_on_c, 0, 93, 95
1, 1103048, Note_on_c, 0, 88, 82
1, 1103075, Note_off_c, 0, 88, 65
1, 1103084, Control_c, 0, 64, 22
1, 1103096, Note_off_c, 0, 93, 56
1, 1103099, Control_c, 0, 64, 32
1, 1103102, Note_off_c, 0, 96, 60
1, 1103113, Note_off_c, 0, 45, 61
1, 1103114, Control_c, 0, 64, 34
1, 1103123, Note_on_c, 0, 52, 86
1, 1103128, Control_c, 0, 64, 35
1, 1103143, Control_c, 0, 64, 34
1, 1103159, Note_on_c, 0, 40, 85
1, 1103170, Note_off_c, 0, 52, 65
1, 1103173, Control_c, 0, 64, 36
1, 1103174, Note_on_c, 0, 95, 91
1, 1103188, Note_on_c, 0, 92, 79
1, 1103188, Control_c, 0, 64, 39
1, 1103190, Note_on_c, 0, 88, 70
1, 1103203, Control_c, 0, 64, 43
1, 1103209, Note_off_c, 0, 88, 67
1, 1103212, Note_off_c, 0, 92, 68
1, 1103217, Control_c, 0, 64, 45
1, 1103222, Note_off_c, 0, 95, 68
1, 1103232, Control_c, 0, 64, 46
1, 1103238, Note_on_c, 0, 52, 87
1, 1103242, Note_off_c, 0, 40, 56
1, 1103247, Control_c, 0, 64, 47
1, 1103262, Control_c, 0, 64, 43
1, 1103277, Control_c, 0, 64, 28
1, 1103291, Control_c, 0, 64, 0
1, 1103304, Note_off_c, 0, 52, 63
1, 1103333, Note_on_c, 0, 96, 106
1, 1103396, Control_c, 0, 64, 23
1, 1103404, Note_on_c, 0, 98, 95
1, 1103411, Control_c, 0, 64, 23
1, 1103426, Control_c, 0, 64, 22
1, 1103431, Note_off_c, 0, 96, 56
1, 1103456, Control_c, 0, 64, 23
1, 1103471, Control_c, 0, 64, 26
1, 1103476, Note_on_c, 0, 95, 92
1, 1103486, Control_c, 0, 64, 30
1, 1103499, Note_off_c, 0, 98, 65
1, 1103501, Control_c, 0, 64, 32
1, 1103515, Control_c, 0, 64, 34
1, 1103530, Control_c, 0, 64, 36
1, 1103542, Note_on_c, 0, 96, 86
1, 1103545, Control_c, 0, 64, 38
1, 1103559, Control_c, 0, 64, 40
1, 1103571, Note_off_c, 0, 95, 65
1, 1103574, Control_c, 0, 64, 43
1, 1103589, Control_c, 0, 64, 46
1, 1103596, Note_off_c, 0, 96, 64
1, 1103600, Note_on_c, 0, 93, 85
1, 1103604, Control_c, 0, 64, 49
1, 1103610, Note_on_c, 0, 48, 103
1, 1103612, Note_on_c, 0, 36, 98
1, 1103619, Control_c, 0, 64, 49
1, 1103634, Control_c, 0, 64, 48
1, 1103647, Note_off_c, 0, 93, 63
1, 1103656, Control_c, 0, 64, 45
1, 1103657, Note_off_c, 0, 48, 65
1, 1103660, Note_off_c, 0, 36, 66
1, 1103671, Control_c, 0, 64, 43
1, 1103684, Note_on_c, 0, 88, 75
1, 1103686, Control_c, 0, 64, 38
1, 1103686, Note_on_c, 0, 89, 66
1, 1103701, Control_c, 0, 64, 28
1, 1103703, Note_off_c, 0, 89, 65
1, 1103716, Control_c, 0, 64, 0
1, 1103747, Note_on_c, 0, 84, 86
1, 1103752, Note_on_c, 0, 33, 92
1, 1103754, Note_on_c, 0, 45, 89
1, 1103774, Note_off_c, 0, 88, 60
1, 1103784, Note_off_c, 0, 33, 67
1, 1103792, Note_off_c, 0, 45, 61
1, 1103803, Note_off_c, 0, 84, 62
1, 1103817, Note_on_c, 0, 81, 84
1, 1103895, Note_on_c, 0, 93, 97
1, 1103898, Note_off_c, 0, 81, 62
1, 1103957, Note_on_c, 0, 95, 88
1, 1104009, Note_off_c, 0, 93, 59
1, 1104023, Note_on_c, 0, 89, 87
1, 1104055, Note_off_c, 0, 95, 66
1, 1104100, Control_c, 0, 64, 8
1, 1104102, Note_on_c, 0, 93, 91
1, 1104115, Control_c, 0, 64, 15
1, 1104130, Control_c, 0, 64, 19
1, 1104132, Note_off_c, 0, 89, 66
1, 1104145, Control_c, 0, 64, 25
1, 1104160, Control_c, 0, 64, 31
1, 1104164, Note_off_c, 0, 93, 62
1, 1104175, Note_on_c, 0, 48, 104
1, 1104175, Note_on_c, 0, 36, 96
1, 1104175, Control_c, 0, 64, 34
1, 1104178, Note_on_c, 0, 88, 84
1, 1104190, Control_c, 0, 64, 35
1, 1104205, Control_c, 0, 64, 33
1, 1104212, Note_off_c, 0, 48, 66
1, 1104218, Note_off_c, 0, 36, 66
1, 1104218, Note_off_c, 0, 88, 64
1, 1104219, Control_c, 0, 64, 30
1, 1104234, Control_c, 0, 64, 26
1, 1104243, Note_on_c, 0, 84, 86
1, 1104249, Control_c, 0, 64, 17
1, 1104264, Control_c, 0, 64, 0
1, 1104309, Note_on_c, 0, 45, 93
1, 1104312, Note_on_c, 0, 33, 90
1, 1104316, Note_on_c, 0, 81, 80
1, 1104331, Note_off_c, 0, 84, 63
1, 1104355, Note_off_c, 0, 45, 65
1, 1104357, Note_off_c, 0, 33, 64
1, 1104377, Note_on_c, 0, 76, 83
1, 1104393, Note_off_c, 0, 81, 61
1, 1104464, Note_on_c, 0, 88, 85
1, 1104473, Note_off_c, 0, 76, 65
1, 1104531, Note_on_c, 0, 89, 84
1, 1104584, Note_off_c, 0, 88, 60
1, 1104595, Note_on_c, 0, 86, 85
1, 1104627, Note_off_c, 0, 89, 63
1, 1104666, Note_on_c, 0, 88, 86
1, 1104671, Control_c, 0, 64, 20
1, 1104686, Control_c, 0, 64, 24
1, 1104694, Note_off_c, 0, 86, 64
1, 1104701, Control_c, 0, 64, 25
1, 1104715, Control_c, 0, 64, 21
1, 1104726, Note_off_c, 0, 88, 63
1, 1104730, Control_c, 0, 64, 0
1, 1104732, Note_on_c, 0, 48, 99
1, 1104732, Note_on_c, 0, 36, 98
1, 1104733, Note_on_c, 0, 84, 81
1, 1104768, Note_off_c, 0, 48, 66
1, 1104774, Note_off_c, 0, 84, 63
1, 1104774, Note_off_c, 0, 36, 66
1, 1104793, Note_on_c, 0, 81, 87
1, 1104874, Note_on_c, 0, 76, 70
1, 1104881, Note_on_c, 0, 33, 73
1, 1104882, Note_on_c, 0, 45, 77
1, 1104890, Note_off_c, 0, 81, 58
1, 1104893, Note_on_c, 0, 77, 57
1, 1104914, Note_off_c, 0, 45, 65
1, 1104916, Note_off_c, 0, 77, 58
1, 1104917, Note_off_c, 0, 76, 64
1, 1104919, Note_off_c, 0, 33, 62
1, 1104928, Note_on_c, 0, 72, 81
1, 1105004, Note_off_c, 0, 72, 65
1, 1105009, Note_on_c, 0, 84, 77
1, 1105080, Note_on_c, 0, 86, 77
1, 1105115, Note_off_c, 0, 84, 61
1, 1105140, Note_on_c, 0, 83, 69
1, 1105163, Note_off_c, 0, 86, 61
1, 1105197, Control_c, 0, 64, 17
1, 1105209, Note_on_c, 0, 84, 80
1, 1105211, Control_c, 0, 64, 28
1, 1105226, Control_c, 0, 64, 38
1, 1105230, Note_off_c, 0, 83, 61
1, 1105241, Control_c, 0, 64, 46
1, 1105252, Note_off_c, 0, 84, 63
1, 1105256, Control_c, 0, 64, 52
1, 1105266, Note_on_c, 0, 36, 85
1, 1105268, Note_on_c, 0, 81, 80
1, 1105270, Note_on_c, 0, 48, 75
1, 1105271, Control_c, 0, 64, 52
1, 1105294, Note_off_c, 0, 81, 63
1, 1105296, Note_off_c, 0, 36, 68
1, 1105297, Note_off_c, 0, 48, 67
1, 1105315, Control_c, 0, 64, 53
1, 1105324, Note_on_c, 0, 76, 84
1, 1105330, Control_c, 0, 64, 55
1, 1105344, Control_c, 0, 64, 55
1, 1105359, Control_c, 0, 64, 55
1, 1105374, Control_c, 0, 64, 53
1, 1105387, Note_on_c, 0, 33, 72
1, 1105389, Control_c, 0, 64, 52
1, 1105397, Note_on_c, 0, 72, 72
1, 1105397, Note_off_c, 0, 76, 63
1, 1105401, Note_on_c, 0, 45, 58
1, 1105404, Control_c, 0, 64, 48
1, 1105412, Note_off_c, 0, 33, 66
1, 1105418, Control_c, 0, 64, 39
1, 1105426, Note_off_c, 0, 45, 58
1, 1105433, Control_c, 0, 64, 0
1, 1105439, Note_off_c, 0, 72, 57
1, 1105458, Note_on_c, 0, 69, 70
1, 1105535, Note_on_c, 0, 81, 80
1, 1105536, Note_off_c, 0, 69, 66
1, 1105603, Note_on_c, 0, 83, 76
1, 1105633, Note_off_c, 0, 81, 57
1, 1105673, Note_on_c, 0, 77, 78
1, 1105692, Note_off_c, 0, 83, 56
1, 1105730, Control_c, 0, 64, 14
1, 1105744, Note_on_c, 0, 81, 74
1, 1105744, Control_c, 0, 64, 23
1, 1105760, Control_c, 0, 64, 26
1, 1105770, Note_off_c, 0, 77, 59
1, 1105790, Control_c, 0, 64, 26
1, 1105798, Note_off_c, 0, 81, 60
1, 1105805, Control_c, 0, 64, 22
1, 1105808, Note_on_c, 0, 76, 78
1, 1105811, Note_on_c, 0, 36, 76
1, 1105811, Note_on_c, 0, 48, 76
1, 1105820, Control_c, 0, 64, 0
1, 1105820, Control_c, 0, 67, 8
1, 1105834, Control_c, 0, 67, 18
1, 1105837, Note_off_c, 0, 48, 67
1, 1105838, Note_off_c, 0, 36, 64
1, 1105849, Control_c, 0, 67, 31
1, 1105852, Note_off_c, 0, 76, 61
1, 1105864, Control_c, 0, 67, 44
1, 1105874, Note_on_c, 0, 72, 76
1, 1105886, Control_c, 0, 67, 56
1, 1105901, Control_c, 0, 67, 65
1, 1105916, Control_c, 0, 67, 73
1, 1105931, Control_c, 0, 67, 79
1, 1105938, Note_on_c, 0, 33, 73
1, 1105945, Control_c, 0, 67, 83
1, 1105948, Note_on_c, 0, 45, 57
1, 1105954, Note_on_c, 0, 69, 77
1, 1105959, Note_off_c, 0, 72, 66
1, 1105960, Control_c, 0, 67, 83
1, 1105963, Note_off_c, 0, 33, 66
1, 1105970, Note_off_c, 0, 45, 61
1, 1106005, Note_off_c, 0, 69, 63
1, 1106023, Note_on_c, 0, 64, 72
1, 1106079, Control_c, 0, 67, 84
1, 1106086, Note_off_c, 0, 64, 65
1, 1106100, Note_on_c, 0, 76, 74
1, 1106123, Control_c, 0, 67, 84
1, 1106138, Control_c, 0, 67, 85
1, 1106153, Control_c, 0, 67, 86
1, 1106167, Control_c, 0, 67, 88
1, 1106170, Note_on_c, 0, 77, 74
1, 1106182, Control_c, 0, 67, 91
1, 1106187, Note_off_c, 0, 76, 62
1, 1106197, Control_c, 0, 67, 95
1, 1106212, Control_c, 0, 67, 98
1, 1106227, Control_c, 0, 67, 101
1, 1106241, Note_on_c, 0, 74, 63
1, 1106241, Control_c, 0, 67, 103
1, 1106255, Note_off_c, 0, 77, 54
1, 1106256, Control_c, 0, 67, 104
1, 1106271, Control_c, 0, 67, 104
1, 1106285, Control_c, 0, 64, 23
1, 1106285, Control_c, 0, 67, 105
1, 1106300, Control_c, 0, 64, 28
1, 1106301, Note_on_c, 0, 76, 72
1, 1106315, Note_off_c, 0, 74, 64
1, 1106315, Control_c, 0, 64, 31
1, 1106315, Control_c, 0, 67, 105
1, 1106330, Control_c, 0, 67, 106
1, 1106339, Note_off_c, 0, 76, 61
1, 1106345, Note_on_c, 0, 36, 69
1, 1106345, Control_c, 0, 64, 29
1, 1106345, Control_c, 0, 67, 107
1, 1106347, Note_on_c, 0, 48, 66
1, 1106356, Note_on_c, 0, 72, 72
1, 1106360, Control_c, 0, 64, 22
1, 1106360, Control_c, 0, 67, 108
1, 1106371, Note_off_c, 0, 36, 65
1, 1106375, Control_c, 0, 64, 0
1, 1106375, Control_c, 0, 67, 108
1, 1106377, Note_off_c, 0, 48, 64
1, 1106384, Note_off_c, 0, 72, 67
1, 1106390, Control_c, 0, 67, 109
1, 1106408, Note_on_c, 0, 69, 77
1, 1106419, Control_c, 0, 67, 110
1, 1106434, Control_c, 0, 67, 111
1, 1106449, Control_c, 0, 67, 112
1, 1106464, Control_c, 0, 67, 114
1, 1106473, Note_on_c, 0, 33, 66
1, 1106479, Control_c, 0, 67, 115
1, 1106481, Note_on_c, 0, 45, 51
1, 1106488, Note_off_c, 0, 69, 59
1, 1106494, Control_c, 0, 67, 117
1, 1106494, Note_on_c, 0, 64, 47
1, 1106499, Note_off_c, 0, 33, 67
1, 1106506, Note_off_c, 0, 45, 58
1, 1106519, Note_off_c, 0, 64, 58
1, 1106548, Note_on_c, 0, 60, 65
1, 1106569, Control_c, 0, 67, 116
1, 1106583, Control_c, 0, 67, 116
1, 1106599, Note_off_c, 0, 60, 60
1, 1106622, Note_on_c, 0, 72, 65
1, 1106680, Control_c, 0, 67, 117
1, 1106694, Note_on_c, 0, 74, 63
1, 1106700, Note_off_c, 0, 72, 64
1, 1106709, Control_c, 0, 67, 118
1, 1106739, Control_c, 0, 67, 118
1, 1106754, Control_c, 0, 67, 119
1, 1106765, Note_on_c, 0, 71, 62
1, 1106769, Control_c, 0, 67, 120
1, 1106783, Control_c, 0, 67, 121
1, 1106798, Control_c, 0, 67, 123
1, 1106809, Note_off_c, 0, 74, 54
1, 1106813, Control_c, 0, 67, 124
1, 1106828, Note_on_c, 0, 72, 65
1, 1106828, Control_c, 0, 67, 127
1, 1106843, Control_c, 0, 67, 127
1, 1106861, Note_off_c, 0, 71, 61
1, 1106883, Note_on_c, 0, 36, 74
1, 1106883, Note_off_c, 0, 72, 63
1, 1106891, Note_on_c, 0, 69, 71
1, 1106908, Note_on_c, 0, 48, 34
1, 1106909, Note_off_c, 0, 48, 127
1, 1106914, Note_off_c, 0, 36, 66
1, 1106920, Note_off_c, 0, 69, 67
1, 1106973, Note_on_c, 0, 64, 51
1, 1106986, Note_on_c, 0, 65, 20
1, 1107012, Note_off_c, 0, 64, 54
1, 1107013, Note_on_c, 0, 33, 62
1, 1107027, Note_off_c, 0, 65, 49
1, 1107029, Note_on_c, 0, 60, 63
1, 1107032, Note_on_c, 0, 45, 32
1, 1107038, Note_off_c, 0, 33, 63
1, 1107066, Note_off_c, 0, 45, 32
1, 1107085, Note_on_c, 0, 57, 68
1, 1107091, Note_off_c, 0, 60, 61
1, 1107138, Note_off_c, 0, 57, 62
1, 1107139, Note_on_c, 0, 36, 65
1, 1107148, Note_on_c, 0, 48, 47
1, 1107154, Note_on_c, 0, 69, 68
1, 1107167, Note_off_c, 0, 36, 66
1, 1107177, Note_off_c, 0, 48, 35
1, 1107226, Note_on_c, 0, 64, 65
1, 1107242, Note_off_c, 0, 69, 58
1, 1107272, Note_on_c, 0, 33, 62
1, 1107283, Note_on_c, 0, 45, 43
1, 1107283, Note_on_c, 0, 60, 67
1, 1107290, Note_off_c, 0, 64, 62
1, 1107299, Note_off_c, 0, 33, 66
1, 1107311, Note_off_c, 0, 45, 55
1, 1107346, Note_off_c, 0, 60, 61
1, 1107353, Note_on_c, 0, 57, 64
1, 1107413, Note_off_c, 0, 57, 60
1, 1107418, Note_on_c, 0, 36, 62
1, 1107421, Note_on_c, 0, 48, 50
1, 1107430, Note_on_c, 0, 69, 75
1, 1107446, Note_off_c, 0, 48, 55
1, 1107448, Note_off_c, 0, 36, 65
1, 1107492, Note_on_c, 0, 64, 55
1, 1107529, Note_off_c, 0, 69, 45
1, 1107547, Note_on_c, 0, 60, 56
1, 1107547, Control_c, 0, 67, 126
1, 1107549, Note_off_c, 0, 64, 64
1, 1107555, Note_on_c, 0, 33, 52
1, 1107562, Control_c, 0, 67, 125
1, 1107563, Note_on_c, 0, 45, 41
1, 1107577, Control_c, 0, 67, 122
1, 1107582, Note_off_c, 0, 33, 56
1, 1107592, Control_c, 0, 67, 119
1, 1107593, Note_off_c, 0, 45, 52
1, 1107603, Note_off_c, 0, 60, 58
1, 1107604, Note_on_c, 0, 57, 58
1, 1107606, Control_c, 0, 67, 116
1, 1107621, Control_c, 0, 67, 110
1, 1107636, Control_c, 0, 67, 102
1, 1107651, Control_c, 0, 67, 94
1, 1107661, Note_off_c, 0, 57, 60
1, 1107666, Control_c, 0, 67, 84
1, 1107681, Control_c, 0, 67, 74
1, 1107695, Control_c, 0, 67, 64
1, 1107697, Note_on_c, 0, 45, 64
1, 1107700, Note_on_c, 0, 57, 49
1, 1107700, Note_on_c, 0, 69, 73
1, 1107710, Control_c, 0, 67, 51
1, 1107725, Control_c, 0, 67, 37
1, 1107727, Note_off_c, 0, 45, 66
1, 1107731, Note_off_c, 0, 57, 65
1, 1107740, Control_c, 0, 67, 21
1, 1107753, Note_off_c, 0, 69, 65
1, 1107755, Control_c, 0, 67, 11
1, 1107770, Control_c, 0, 67, 0
1, 1108315, Note_on_c, 0, 76, 91
1, 1108316, Note_on_c, 0, 47, 95
1, 1108316, Note_on_c, 0, 64, 98
1, 1108318, Note_on_c, 0, 68, 97
1, 1108321, Note_on_c, 0, 52, 100
1, 1108321, Note_on_c, 0, 71, 89
1, 1108322, Note_on_c, 0, 40, 88
1, 1108326, Control_c, 0, 64, 52
1, 1108341, Control_c, 0, 64, 66
1, 1108356, Control_c, 0, 64, 80
1, 1108370, Control_c, 0, 64, 111
1, 1108385, Control_c, 0, 64, 127
1, 1108386, Note_off_c, 0, 40, 66
1, 1108402, Note_off_c, 0, 52, 63
1, 1108408, Note_off_c, 0, 47, 64
1, 1108423, Note_off_c, 0, 64, 64
1, 1108439, Note_off_c, 0, 76, 61
1, 1108470, Note_off_c, 0, 68, 61
1, 1108475, Note_off_c, 0, 71, 58
1, 1108518, Control_c, 0, 64, 88
1, 1108533, Control_c, 0, 64, 61
1, 1108548, Control_c, 0, 64, 0
1, 1109038, Note_on_c, 0, 81, 94
1, 1109039, Note_on_c, 0, 69, 98
1, 1109040, Note_on_c, 0, 45, 97
1, 1109042, Note_on_c, 0, 72, 95
1, 1109042, Note_on_c, 0, 76, 92
1, 1109043, Note_on_c, 0, 33, 84
1, 1109043, Note_on_c, 0, 36, 81
1, 1109043, Note_on_c, 0, 40, 84
1, 1109059, Control_c, 0, 64, 35
1, 1109074, Control_c, 0, 64, 64
1, 1109089, Control_c, 0, 64, 75
1, 1109103, Control_c, 0, 64, 94
1, 1109118, Control_c, 0, 64, 127
1, 1109292, Poly_aftertouch_c, 0, 38, 127
1, 1109312, Note_off_c, 0, 69, 61
1, 1109321, Note_off_c, 0, 45, 59
1, 1109322, Note_off_c, 0, 33, 63
1, 1109323, Note_off_c, 0, 81, 58
1, 1109341, Control_c, 0, 64, 80
1, 1109342, Note_off_c, 0, 36, 58
1, 1109347, Note_off_c, 0, 72, 61
1, 1109351, Note_off_c, 0, 40, 63
1, 1109351, Note_off_c, 0, 76, 58
1, 1109356, Control_c, 0, 64, 50
1, 1109364, Poly_aftertouch_c, 0, 38, 0
1, 1109370, Control_c, 0, 64, 0
1, 1109445, End_track
0, 0, End_of_file
