0, 0, Header, 0, 1, 384
1, 0, Start_track
1, 0, Tempo, 512820
1, 0, Title_t, "Vier Impromptus Impromptu Nr. 4"
1, 0, Program_c, 0, 0
1, 0, Control_c, 0, 7, 100
1, 3, Control_c, 0, 10, 64
1, 3, Control_c, 0, 91, 127
1, 3, Program_c, 0, 0
1, 6, Control_c, 0, 7, 100
1, 6, Control_c, 0, 10, 64
1, 6, Control_c, 0, 91, 127
1, 748, Note_on_c, 0, 83, 50
1, 748, Note_on_c, 0, 44, 50
1, 756, Control_c, 0, 64, 127
1, 820, Note_on_c, 0, 87, 44
1, 820, Note_on_c, 0, 83, 0
1, 893, Note_on_c, 0, 87, 0
1, 893, Note_on_c, 0, 83, 50
1, 896, Note_on_c, 0, 44, 0
1, 967, Note_on_c, 0, 83, 0
1, 967, Note_on_c, 0, 80, 44
1, 1040, Note_on_c, 0, 80, 0
1, 1040, Note_on_c, 0, 80, 50
1, 1040, Note_on_c, 0, 56, 44
1, 1043, Note_on_c, 0, 63, 50
1, 1043, Note_on_c, 0, 59, 44
1, 1114, Note_on_c, 0, 80, 0
1, 1114, Note_on_c, 0, 83, 44
1, 1187, Note_on_c, 0, 83, 0
1, 1187, Note_on_c, 0, 80, 50
1, 1261, Note_on_c, 0, 80, 0
1, 1261, Note_on_c, 0, 75, 44
1, 1335, Note_on_c, 0, 75, 0
1, 1335, Note_on_c, 0, 75, 50
1, 1409, Note_on_c, 0, 75, 0
1, 1409, Note_on_c, 0, 80, 44
1, 1483, Note_on_c, 0, 80, 0
1, 1483, Note_on_c, 0, 75, 50
1, 1557, Note_on_c, 0, 75, 0
1, 1557, Note_on_c, 0, 71, 44
1, 1631, Note_on_c, 0, 71, 0
1, 1631, Note_on_c, 0, 71, 50
1, 1705, Note_on_c, 0, 71, 0
1, 1705, Note_on_c, 0, 75, 44
1, 1779, Note_on_c, 0, 75, 0
1, 1779, Note_on_c, 0, 71, 50
1, 1854, Note_on_c, 0, 71, 0
1, 1854, Note_on_c, 0, 68, 44
1, 1928, Note_on_c, 0, 68, 0
1, 1928, Note_on_c, 0, 68, 50
1, 2003, Note_on_c, 0, 68, 0
1, 2003, Note_on_c, 0, 71, 44
1, 2077, Note_on_c, 0, 71, 0
1, 2077, Note_on_c, 0, 68, 50
1, 2152, Note_on_c, 0, 68, 0
1, 2152, Note_on_c, 0, 63, 44
1, 2227, Note_on_c, 0, 63, 0
1, 2227, Note_on_c, 0, 67, 40
1, 2227, Note_on_c, 0, 70, 46
1, 2230, Note_on_c, 0, 59, 0
1, 2230, Note_on_c, 0, 63, 0
1, 2230, Note_on_c, 0, 56, 0
1, 2233, Note_on_c, 0, 58, 38
1, 2233, Note_on_c, 0, 51, 38
1, 2233, Note_on_c, 0, 63, 44
1, 2265, Control_c, 0, 64, 0
1, 2405, Note_on_c, 0, 70, 0
1, 2405, Note_on_c, 0, 67, 0
1, 2405, Note_on_c, 0, 63, 0
1, 2408, Note_on_c, 0, 51, 0
1, 2408, Note_on_c, 0, 58, 0
1, 2585, Note_on_c, 0, 83, 50
1, 2585, Note_on_c, 0, 44, 50
1, 2595, Control_c, 0, 64, 127
1, 2659, Note_on_c, 0, 83, 0
1, 2659, Note_on_c, 0, 87, 44
1, 2732, Note_on_c, 0, 87, 0
1, 2732, Note_on_c, 0, 83, 50
1, 2732, Note_on_c, 0, 44, 0
1, 2806, Note_on_c, 0, 83, 0
1, 2806, Note_on_c, 0, 80, 44
1, 2880, Note_on_c, 0, 80, 0
1, 2880, Note_on_c, 0, 80, 50
1, 2880, Note_on_c, 0, 56, 44
1, 2883, Note_on_c, 0, 63, 50
1, 2883, Note_on_c, 0, 59, 44
1, 2954, Note_on_c, 0, 80, 0
1, 2954, Note_on_c, 0, 83, 44
1, 3028, Note_on_c, 0, 83, 0
1, 3028, Note_on_c, 0, 80, 50
1, 3102, Note_on_c, 0, 80, 0
1, 3102, Note_on_c, 0, 75, 44
1, 3176, Note_on_c, 0, 75, 0
1, 3176, Note_on_c, 0, 75, 50
1, 3250, Note_on_c, 0, 75, 0
1, 3250, Note_on_c, 0, 80, 44
1, 3324, Note_on_c, 0, 80, 0
1, 3324, Note_on_c, 0, 75, 50
1, 3398, Note_on_c, 0, 75, 0
1, 3398, Note_on_c, 0, 71, 44
1, 3473, Note_on_c, 0, 71, 0
1, 3473, Note_on_c, 0, 71, 50
1, 3547, Note_on_c, 0, 71, 0
1, 3547, Note_on_c, 0, 75, 44
1, 3622, Note_on_c, 0, 75, 0
1, 3622, Note_on_c, 0, 71, 50
1, 3696, Note_on_c, 0, 71, 0
1, 3696, Note_on_c, 0, 68, 44
1, 3771, Note_on_c, 0, 68, 0
1, 3771, Note_on_c, 0, 68, 50
1, 3846, Note_on_c, 0, 68, 0
1, 3846, Note_on_c, 0, 71, 44
1, 3921, Note_on_c, 0, 71, 0
1, 3921, Note_on_c, 0, 68, 50
1, 3995, Note_on_c, 0, 68, 0
1, 3995, Note_on_c, 0, 63, 44
1, 4072, Note_on_c, 0, 63, 0
1, 4072, Note_on_c, 0, 67, 40
1, 4072, Note_on_c, 0, 70, 46
1, 4075, Note_on_c, 0, 59, 0
1, 4075, Note_on_c, 0, 63, 0
1, 4075, Note_on_c, 0, 56, 0
1, 4078, Note_on_c, 0, 51, 38
1, 4078, Note_on_c, 0, 63, 44
1, 4078, Note_on_c, 0, 58, 38
1, 4100, Control_c, 0, 64, 0
1, 4260, Note_on_c, 0, 70, 0
1, 4260, Note_on_c, 0, 67, 0
1, 4260, Note_on_c, 0, 58, 0
1, 4263, Note_on_c, 0, 63, 0
1, 4263, Note_on_c, 0, 51, 0
1, 4448, Note_on_c, 0, 68, 41
1, 4448, Note_on_c, 0, 71, 41
1, 4448, Note_on_c, 0, 63, 37
1, 4451, Note_on_c, 0, 56, 37
1, 4451, Note_on_c, 0, 59, 37
1, 4823, Note_on_c, 0, 71, 0
1, 4823, Note_on_c, 0, 68, 0
1, 4823, Note_on_c, 0, 67, 41
1, 4826, Note_on_c, 0, 70, 41
1, 4826, Note_on_c, 0, 76, 41
1, 4826, Note_on_c, 0, 59, 0
1, 4829, Note_on_c, 0, 56, 0
1, 4829, Note_on_c, 0, 63, 0
1, 4829, Note_on_c, 0, 51, 37
1, 4832, Note_on_c, 0, 58, 37
1, 4832, Note_on_c, 0, 64, 37
1, 5144, Note_on_c, 0, 76, 0
1, 5144, Note_on_c, 0, 70, 0
1, 5144, Note_on_c, 0, 67, 0
1, 5147, Note_on_c, 0, 67, 46
1, 5147, Note_on_c, 0, 70, 46
1, 5147, Note_on_c, 0, 76, 46
1, 5150, Note_on_c, 0, 64, 0
1, 5150, Note_on_c, 0, 58, 0
1, 5150, Note_on_c, 0, 51, 0
1, 5153, Note_on_c, 0, 58, 41
1, 5153, Note_on_c, 0, 64, 41
1, 5153, Note_on_c, 0, 51, 41
1, 5464, Note_on_c, 0, 76, 0
1, 5464, Note_on_c, 0, 70, 0
1, 5464, Note_on_c, 0, 67, 0
1, 5467, Note_on_c, 0, 67, 47
1, 5467, Note_on_c, 0, 70, 47
1, 5467, Note_on_c, 0, 76, 47
1, 5470, Note_on_c, 0, 51, 0
1, 5470, Note_on_c, 0, 64, 0
1, 5470, Note_on_c, 0, 58, 0
1, 5473, Note_on_c, 0, 51, 41
1, 5473, Note_on_c, 0, 64, 41
1, 5473, Note_on_c, 0, 58, 41
1, 5838, Note_on_c, 0, 76, 0
1, 5838, Note_on_c, 0, 70, 0
1, 5838, Note_on_c, 0, 67, 0
1, 5841, Note_on_c, 0, 67, 41
1, 5841, Note_on_c, 0, 70, 41
1, 5841, Note_on_c, 0, 75, 41
1, 5844, Note_on_c, 0, 58, 0
1, 5844, Note_on_c, 0, 64, 0
1, 5844, Note_on_c, 0, 51, 0
1, 5847, Note_on_c, 0, 58, 35
1, 5847, Note_on_c, 0, 51, 35
1, 5847, Note_on_c, 0, 63, 35
1, 6213, Note_on_c, 0, 75, 0
1, 6213, Note_on_c, 0, 70, 0
1, 6213, Note_on_c, 0, 67, 0
1, 6216, Note_on_c, 0, 67, 41
1, 6216, Note_on_c, 0, 70, 41
1, 6216, Note_on_c, 0, 73, 41
1, 6219, Note_on_c, 0, 63, 0
1, 6219, Note_on_c, 0, 51, 0
1, 6219, Note_on_c, 0, 58, 0
1, 6222, Note_on_c, 0, 61, 35
1, 6222, Note_on_c, 0, 58, 35
1, 6222, Note_on_c, 0, 51, 35
1, 6621, Note_on_c, 0, 73, 0
1, 6621, Note_on_c, 0, 70, 0
1, 6621, Note_on_c, 0, 67, 0
1, 6624, Note_on_c, 0, 83, 50
1, 6624, Note_on_c, 0, 51, 0
1, 6624, Note_on_c, 0, 58, 0
1, 6627, Note_on_c, 0, 61, 0
1, 6627, Note_on_c, 0, 44, 50
1, 6663, Control_c, 0, 64, 127
1, 6695, Note_on_c, 0, 83, 0
1, 6695, Note_on_c, 0, 87, 44
1, 6769, Note_on_c, 0, 87, 0
1, 6769, Note_on_c, 0, 83, 50
1, 6769, Note_on_c, 0, 44, 0
1, 6842, Note_on_c, 0, 83, 0
1, 6842, Note_on_c, 0, 80, 44
1, 6916, Note_on_c, 0, 80, 0
1, 6916, Note_on_c, 0, 80, 50
1, 6916, Note_on_c, 0, 56, 44
1, 6919, Note_on_c, 0, 63, 50
1, 6919, Note_on_c, 0, 59, 44
1, 6990, Note_on_c, 0, 80, 0
1, 6990, Note_on_c, 0, 83, 44
1, 7064, Note_on_c, 0, 83, 0
1, 7064, Note_on_c, 0, 80, 50
1, 7138, Note_on_c, 0, 80, 0
1, 7138, Note_on_c, 0, 75, 44
1, 7212, Note_on_c, 0, 75, 0
1, 7212, Note_on_c, 0, 75, 50
1, 7286, Note_on_c, 0, 75, 0
1, 7286, Note_on_c, 0, 80, 44
1, 7360, Note_on_c, 0, 80, 0
1, 7360, Note_on_c, 0, 75, 50
1, 7435, Note_on_c, 0, 75, 0
1, 7435, Note_on_c, 0, 71, 44
1, 7509, Note_on_c, 0, 71, 0
1, 7509, Note_on_c, 0, 71, 50
1, 7583, Note_on_c, 0, 71, 0
1, 7583, Note_on_c, 0, 75, 44
1, 7658, Note_on_c, 0, 75, 0
1, 7658, Note_on_c, 0, 71, 50
1, 7733, Note_on_c, 0, 71, 0
1, 7733, Note_on_c, 0, 68, 44
1, 7807, Note_on_c, 0, 68, 0
1, 7807, Note_on_c, 0, 68, 50
1, 7882, Note_on_c, 0, 68, 0
1, 7882, Note_on_c, 0, 71, 44
1, 7957, Note_on_c, 0, 71, 0
1, 7957, Note_on_c, 0, 68, 50
1, 8032, Note_on_c, 0, 68, 0
1, 8032, Note_on_c, 0, 63, 44
1, 8107, Note_on_c, 0, 63, 0
1, 8107, Note_on_c, 0, 67, 40
1, 8107, Note_on_c, 0, 70, 46
1, 8110, Note_on_c, 0, 59, 0
1, 8110, Note_on_c, 0, 63, 0
1, 8110, Note_on_c, 0, 56, 0
1, 8113, Note_on_c, 0, 51, 36
1, 8113, Note_on_c, 0, 63, 41
1, 8113, Note_on_c, 0, 58, 36
1, 8129, Control_c, 0, 64, 0
1, 8286, Note_on_c, 0, 70, 0
1, 8286, Note_on_c, 0, 67, 0
1, 8286, Note_on_c, 0, 58, 0
1, 8289, Note_on_c, 0, 63, 0
1, 8289, Note_on_c, 0, 51, 0
1, 8466, Note_on_c, 0, 83, 50
1, 8466, Note_on_c, 0, 44, 50
1, 8483, Control_c, 0, 64, 127
1, 8540, Note_on_c, 0, 83, 0
1, 8540, Note_on_c, 0, 87, 44
1, 8614, Note_on_c, 0, 87, 0
1, 8614, Note_on_c, 0, 83, 50
1, 8614, Note_on_c, 0, 44, 0
1, 8688, Note_on_c, 0, 83, 0
1, 8688, Note_on_c, 0, 80, 44
1, 8762, Note_on_c, 0, 80, 0
1, 8762, Note_on_c, 0, 80, 50
1, 8762, Note_on_c, 0, 59, 44
1, 8765, Note_on_c, 0, 63, 50
1, 8765, Note_on_c, 0, 56, 44
1, 8836, Note_on_c, 0, 80, 0
1, 8836, Note_on_c, 0, 83, 44
1, 8910, Note_on_c, 0, 83, 0
1, 8910, Note_on_c, 0, 80, 50
1, 8984, Note_on_c, 0, 80, 0
1, 8984, Note_on_c, 0, 75, 44
1, 9058, Note_on_c, 0, 75, 0
1, 9058, Note_on_c, 0, 75, 50
1, 9133, Note_on_c, 0, 75, 0
1, 9133, Note_on_c, 0, 80, 44
1, 9207, Note_on_c, 0, 80, 0
1, 9207, Note_on_c, 0, 75, 50
1, 9281, Note_on_c, 0, 75, 0
1, 9281, Note_on_c, 0, 71, 44
1, 9356, Note_on_c, 0, 71, 0
1, 9356, Note_on_c, 0, 71, 50
1, 9430, Note_on_c, 0, 71, 0
1, 9430, Note_on_c, 0, 75, 44
1, 9505, Note_on_c, 0, 75, 0
1, 9505, Note_on_c, 0, 71, 50
1, 9580, Note_on_c, 0, 71, 0
1, 9580, Note_on_c, 0, 68, 44
1, 9654, Note_on_c, 0, 68, 0
1, 9654, Note_on_c, 0, 68, 50
1, 9729, Note_on_c, 0, 68, 0
1, 9729, Note_on_c, 0, 71, 44
1, 9804, Note_on_c, 0, 71, 0
1, 9804, Note_on_c, 0, 68, 50
1, 9879, Note_on_c, 0, 68, 0
1, 9879, Note_on_c, 0, 63, 44
1, 9954, Note_on_c, 0, 63, 0
1, 9954, Note_on_c, 0, 70, 46
1, 9954, Note_on_c, 0, 67, 40
1, 9957, Note_on_c, 0, 56, 0
1, 9957, Note_on_c, 0, 63, 0
1, 9957, Note_on_c, 0, 59, 0
1, 9960, Note_on_c, 0, 58, 37
1, 9960, Note_on_c, 0, 63, 42
1, 9960, Note_on_c, 0, 51, 37
1, 9965, Control_c, 0, 64, 0
1, 10127, Note_on_c, 0, 67, 0
1, 10127, Note_on_c, 0, 70, 0
1, 10127, Note_on_c, 0, 51, 0
1, 10130, Note_on_c, 0, 63, 0
1, 10130, Note_on_c, 0, 58, 0
1, 10300, Note_on_c, 0, 68, 41
1, 10300, Note_on_c, 0, 71, 41
1, 10300, Note_on_c, 0, 59, 37
1, 10303, Note_on_c, 0, 56, 37
1, 10303, Note_on_c, 0, 63, 37
1, 10675, Note_on_c, 0, 71, 0
1, 10675, Note_on_c, 0, 68, 0
1, 10675, Note_on_c, 0, 76, 41
1, 10678, Note_on_c, 0, 70, 41
1, 10678, Note_on_c, 0, 66, 41
1, 10678, Note_on_c, 0, 63, 0
1, 10681, Note_on_c, 0, 56, 0
1, 10681, Note_on_c, 0, 59, 0
1, 10681, Note_on_c, 0, 64, 37
1, 10684, Note_on_c, 0, 54, 37
1, 10684, Note_on_c, 0, 58, 37
1, 10996, Note_on_c, 0, 66, 0
1, 10996, Note_on_c, 0, 70, 0
1, 10996, Note_on_c, 0, 76, 0
1, 10999, Note_on_c, 0, 66, 46
1, 10999, Note_on_c, 0, 70, 46
1, 10999, Note_on_c, 0, 76, 46
1, 11002, Note_on_c, 0, 58, 0
1, 11002, Note_on_c, 0, 54, 0
1, 11002, Note_on_c, 0, 64, 0
1, 11005, Note_on_c, 0, 54, 41
1, 11005, Note_on_c, 0, 64, 41
1, 11005, Note_on_c, 0, 58, 41
1, 11316, Note_on_c, 0, 76, 0
1, 11316, Note_on_c, 0, 70, 0
1, 11316, Note_on_c, 0, 66, 0
1, 11319, Note_on_c, 0, 66, 47
1, 11319, Note_on_c, 0, 70, 47
1, 11319, Note_on_c, 0, 76, 47
1, 11322, Note_on_c, 0, 58, 0
1, 11322, Note_on_c, 0, 64, 0
1, 11322, Note_on_c, 0, 54, 0
1, 11325, Note_on_c, 0, 58, 41
1, 11325, Note_on_c, 0, 64, 41
1, 11325, Note_on_c, 0, 54, 41
1, 11690, Note_on_c, 0, 76, 0
1, 11690, Note_on_c, 0, 70, 0
1, 11690, Note_on_c, 0, 66, 0
1, 11693, Note_on_c, 0, 75, 41
1, 11693, Note_on_c, 0, 70, 41
1, 11693, Note_on_c, 0, 66, 41
1, 11696, Note_on_c, 0, 54, 0
1, 11696, Note_on_c, 0, 64, 0
1, 11696, Note_on_c, 0, 58, 0
1, 11699, Note_on_c, 0, 54, 35
1, 11699, Note_on_c, 0, 63, 35
1, 11699, Note_on_c, 0, 58, 35
1, 12065, Note_on_c, 0, 66, 0
1, 12065, Note_on_c, 0, 70, 0
1, 12065, Note_on_c, 0, 75, 0
1, 12068, Note_on_c, 0, 70, 41
1, 12068, Note_on_c, 0, 66, 41
1, 12068, Note_on_c, 0, 74, 41
1, 12071, Note_on_c, 0, 58, 0
1, 12071, Note_on_c, 0, 63, 0
1, 12071, Note_on_c, 0, 54, 0
1, 12074, Note_on_c, 0, 62, 35
1, 12074, Note_on_c, 0, 54, 35
1, 12074, Note_on_c, 0, 58, 35
1, 12473, Note_on_c, 0, 74, 0
1, 12473, Note_on_c, 0, 66, 0
1, 12473, Note_on_c, 0, 70, 0
1, 12476, Note_on_c, 0, 87, 60
1, 12476, Control_c, 0, 91, 127
1, 12476, Note_on_c, 0, 58, 0
1, 12479, Note_on_c, 0, 54, 0
1, 12479, Note_on_c, 0, 62, 0
1, 12479, Note_on_c, 0, 47, 60
1, 12482, Control_c, 0, 64, 127
1, 12482, Control_c, 0, 91, 126
1, 12547, Note_on_c, 0, 87, 0
1, 12547, Note_on_c, 0, 90, 52
1, 12622, Note_on_c, 0, 90, 0
1, 12622, Note_on_c, 0, 87, 60
1, 12622, Note_on_c, 0, 47, 0
1, 12696, Note_on_c, 0, 87, 0
1, 12696, Note_on_c, 0, 83, 52
1, 12770, Note_on_c, 0, 83, 0
1, 12770, Note_on_c, 0, 83, 60
1, 12770, Note_on_c, 0, 63, 60
1, 12773, Note_on_c, 0, 54, 52
1, 12773, Note_on_c, 0, 59, 52
1, 12844, Note_on_c, 0, 83, 0
1, 12844, Note_on_c, 0, 87, 52
1, 12918, Note_on_c, 0, 87, 0
1, 12918, Note_on_c, 0, 83, 60
1, 12992, Note_on_c, 0, 83, 0
1, 12992, Note_on_c, 0, 78, 52
1, 13067, Note_on_c, 0, 78, 0
1, 13067, Note_on_c, 0, 78, 60
1, 13141, Note_on_c, 0, 78, 0
1, 13141, Note_on_c, 0, 83, 52
1, 13216, Note_on_c, 0, 83, 0
1, 13216, Note_on_c, 0, 78, 60
1, 13290, Note_on_c, 0, 78, 0
1, 13290, Note_on_c, 0, 75, 52
1, 13364, Note_on_c, 0, 75, 0
1, 13364, Note_on_c, 0, 75, 60
1, 13439, Note_on_c, 0, 75, 0
1, 13439, Note_on_c, 0, 78, 52
1, 13513, Note_on_c, 0, 78, 0
1, 13513, Note_on_c, 0, 75, 60
1, 13588, Note_on_c, 0, 75, 0
1, 13588, Note_on_c, 0, 71, 52
1, 13663, Note_on_c, 0, 71, 0
1, 13663, Note_on_c, 0, 71, 60
1, 13737, Note_on_c, 0, 71, 0
1, 13737, Note_on_c, 0, 75, 52
1, 13812, Note_on_c, 0, 75, 0
1, 13812, Note_on_c, 0, 71, 60
1, 13886, Note_on_c, 0, 71, 0
1, 13886, Note_on_c, 0, 66, 52
1, 13961, Note_on_c, 0, 66, 0
1, 13961, Note_on_c, 0, 70, 47
1, 13961, Note_on_c, 0, 73, 55
1, 13964, Note_on_c, 0, 59, 0
1, 13964, Note_on_c, 0, 54, 0
1, 13964, Note_on_c, 0, 63, 0
1, 13967, Note_on_c, 0, 54, 45
1, 13967, Note_on_c, 0, 64, 51
1, 13967, Control_c, 0, 64, 0
1, 14140, Note_on_c, 0, 73, 0
1, 14140, Note_on_c, 0, 70, 0
1, 14140, Note_on_c, 0, 64, 0
1, 14143, Note_on_c, 0, 54, 0
1, 14320, Note_on_c, 0, 87, 60
1, 14320, Control_c, 0, 91, 127
1, 14320, Note_on_c, 0, 47, 60
1, 14325, Control_c, 0, 91, 126
1, 14342, Control_c, 0, 64, 127
1, 14394, Note_on_c, 0, 87, 0
1, 14394, Note_on_c, 0, 90, 52
1, 14468, Note_on_c, 0, 90, 0
1, 14468, Note_on_c, 0, 87, 60
1, 14468, Note_on_c, 0, 47, 0
1, 14542, Note_on_c, 0, 87, 0
1, 14542, Note_on_c, 0, 83, 52
1, 14615, Note_on_c, 0, 83, 0
1, 14615, Note_on_c, 0, 83, 60
1, 14615, Note_on_c, 0, 59, 52
1, 14618, Note_on_c, 0, 63, 60
1, 14618, Note_on_c, 0, 54, 52
1, 14690, Note_on_c, 0, 83, 0
1, 14690, Note_on_c, 0, 87, 52
1, 14764, Note_on_c, 0, 87, 0
1, 14764, Note_on_c, 0, 83, 60
1, 14838, Note_on_c, 0, 83, 0
1, 14838, Note_on_c, 0, 78, 52
1, 14912, Note_on_c, 0, 78, 0
1, 14912, Note_on_c, 0, 78, 60
1, 14986, Note_on_c, 0, 78, 0
1, 14986, Note_on_c, 0, 83, 52
1, 15061, Note_on_c, 0, 83, 0
1, 15061, Note_on_c, 0, 78, 60
1, 15135, Note_on_c, 0, 78, 0
1, 15135, Note_on_c, 0, 75, 52
1, 15209, Note_on_c, 0, 75, 0
1, 15209, Note_on_c, 0, 75, 60
1, 15284, Note_on_c, 0, 75, 0
1, 15284, Note_on_c, 0, 78, 52
1, 15359, Note_on_c, 0, 78, 0
1, 15359, Note_on_c, 0, 75, 60
1, 15433, Note_on_c, 0, 75, 0
1, 15433, Note_on_c, 0, 71, 52
1, 15508, Note_on_c, 0, 71, 0
1, 15508, Note_on_c, 0, 71, 60
1, 15583, Note_on_c, 0, 71, 0
1, 15583, Note_on_c, 0, 75, 52
1, 15658, Note_on_c, 0, 75, 0
1, 15658, Note_on_c, 0, 71, 60
1, 15733, Note_on_c, 0, 71, 0
1, 15733, Note_on_c, 0, 66, 52
1, 15808, Note_on_c, 0, 66, 0
1, 15808, Note_on_c, 0, 70, 47
1, 15808, Note_on_c, 0, 73, 55
1, 15811, Note_on_c, 0, 54, 0
1, 15811, Note_on_c, 0, 63, 0
1, 15811, Note_on_c, 0, 59, 0
1, 15814, Note_on_c, 0, 64, 51
1, 15814, Note_on_c, 0, 54, 45
1, 15814, Control_c, 0, 64, 0
1, 15980, Note_on_c, 0, 73, 0
1, 15980, Note_on_c, 0, 70, 0
1, 15980, Note_on_c, 0, 54, 0
1, 15983, Note_on_c, 0, 64, 0
1, 16153, Note_on_c, 0, 71, 51
1, 16153, Note_on_c, 0, 75, 51
1, 16153, Note_on_c, 0, 59, 46
1, 16156, Note_on_c, 0, 63, 46
1, 16498, Note_on_c, 0, 75, 0
1, 16498, Note_on_c, 0, 71, 0
1, 16498, Note_on_c, 0, 70, 57
1, 16501, Note_on_c, 0, 80, 57
1, 16501, Note_on_c, 0, 73, 57
1, 16501, Note_on_c, 0, 63, 0
1, 16504, Note_on_c, 0, 59, 0
1, 16504, Note_on_c, 0, 54, 51
1, 16504, Note_on_c, 0, 64, 51
1, 16819, Note_on_c, 0, 73, 0
1, 16819, Note_on_c, 0, 80, 0
1, 16819, Note_on_c, 0, 70, 0
1, 16822, Note_on_c, 0, 80, 58
1, 16822, Note_on_c, 0, 73, 58
1, 16822, Note_on_c, 0, 70, 58
1, 16825, Note_on_c, 0, 64, 0
1, 16825, Note_on_c, 0, 54, 0
1, 16825, Note_on_c, 0, 54, 55
1, 16828, Note_on_c, 0, 64, 55
1, 17142, Note_on_c, 0, 70, 0
1, 17142, Note_on_c, 0, 73, 0
1, 17142, Note_on_c, 0, 80, 0
1, 17145, Note_on_c, 0, 80, 59
1, 17145, Note_on_c, 0, 73, 59
1, 17145, Note_on_c, 0, 70, 59
1, 17148, Note_on_c, 0, 64, 0
1, 17148, Note_on_c, 0, 54, 0
1, 17148, Note_on_c, 0, 54, 55
1, 17151, Note_on_c, 0, 64, 55
1, 17496, Note_on_c, 0, 70, 0
1, 17496, Note_on_c, 0, 73, 0
1, 17496, Note_on_c, 0, 80, 0
1, 17499, Note_on_c, 0, 78, 49
1, 17499, Note_on_c, 0, 70, 49
1, 17499, Note_on_c, 0, 75, 49
1, 17502, Note_on_c, 0, 64, 0
1, 17502, Note_on_c, 0, 54, 0
1, 17502, Note_on_c, 0, 63, 46
1, 17505, Note_on_c, 0, 54, 46
1, 17850, Note_on_c, 0, 75, 0
1, 17850, Note_on_c, 0, 70, 0
1, 17850, Note_on_c, 0, 78, 0
1, 17853, Note_on_c, 0, 76, 49
1, 17853, Note_on_c, 0, 70, 49
1, 17853, Note_on_c, 0, 54, 0
1, 17856, Note_on_c, 0, 63, 0
1, 17856, Note_on_c, 0, 61, 46
1, 17856, Note_on_c, 0, 54, 46
1, 18259, Note_on_c, 0, 70, 0
1, 18259, Note_on_c, 0, 76, 0
1, 18259, Note_on_c, 0, 86, 60
1, 18262, Control_c, 0, 91, 127
1, 18262, Note_on_c, 0, 54, 0
1, 18262, Note_on_c, 0, 61, 0
1, 18265, Note_on_c, 0, 47, 60
1, 18265, Control_c, 0, 91, 126
1, 18308, Control_c, 0, 64, 127
1, 18333, Note_on_c, 0, 86, 0
1, 18333, Note_on_c, 0, 90, 52
1, 18406, Note_on_c, 0, 90, 0
1, 18406, Note_on_c, 0, 86, 60
1, 18406, Note_on_c, 0, 47, 0
1, 18480, Note_on_c, 0, 86, 0
1, 18480, Note_on_c, 0, 83, 52
1, 18554, Note_on_c, 0, 83, 0
1, 18554, Note_on_c, 0, 83, 60
1, 18554, Note_on_c, 0, 59, 52
1, 18557, Note_on_c, 0, 62, 60
1, 18557, Note_on_c, 0, 54, 52
1, 18628, Note_on_c, 0, 83, 0
1, 18628, Note_on_c, 0, 86, 52
1, 18702, Note_on_c, 0, 86, 0
1, 18702, Note_on_c, 0, 83, 60
1, 18776, Note_on_c, 0, 83, 0
1, 18776, Note_on_c, 0, 78, 52
1, 18851, Note_on_c, 0, 78, 0
1, 18851, Note_on_c, 0, 78, 60
1, 18925, Note_on_c, 0, 78, 0
1, 18925, Note_on_c, 0, 83, 52
1, 18999, Note_on_c, 0, 83, 0
1, 18999, Note_on_c, 0, 78, 60
1, 19073, Note_on_c, 0, 78, 0
1, 19073, Note_on_c, 0, 74, 52
1, 19148, Note_on_c, 0, 74, 0
1, 19148, Note_on_c, 0, 74, 60
1, 19222, Note_on_c, 0, 74, 0
1, 19222, Note_on_c, 0, 78, 52
1, 19296, Note_on_c, 0, 78, 0
1, 19296, Note_on_c, 0, 74, 60
1, 19371, Note_on_c, 0, 74, 0
1, 19371, Note_on_c, 0, 71, 52
1, 19446, Note_on_c, 0, 71, 0
1, 19446, Note_on_c, 0, 71, 60
1, 19520, Note_on_c, 0, 71, 0
1, 19520, Note_on_c, 0, 74, 52
1, 19595, Note_on_c, 0, 74, 0
1, 19595, Note_on_c, 0, 71, 60
1, 19669, Note_on_c, 0, 71, 0
1, 19669, Note_on_c, 0, 66, 52
1, 19744, Note_on_c, 0, 66, 0
1, 19744, Note_on_c, 0, 73, 55
1, 19744, Note_on_c, 0, 70, 47
1, 19747, Note_on_c, 0, 54, 0
1, 19747, Note_on_c, 0, 62, 0
1, 19747, Note_on_c, 0, 59, 0
1, 19750, Note_on_c, 0, 54, 44
1, 19750, Note_on_c, 0, 64, 50
1, 19750, Control_c, 0, 64, 0
1, 19923, Note_on_c, 0, 70, 0
1, 19923, Note_on_c, 0, 73, 0
1, 19923, Note_on_c, 0, 64, 0
1, 19926, Note_on_c, 0, 54, 0
1, 20103, Note_on_c, 0, 86, 60
1, 20103, Control_c, 0, 91, 127
1, 20103, Note_on_c, 0, 47, 60
1, 20108, Control_c, 0, 91, 126
1, 20125, Control_c, 0, 64, 127
1, 20177, Note_on_c, 0, 86, 0
1, 20177, Note_on_c, 0, 90, 52
1, 20251, Note_on_c, 0, 90, 0
1, 20251, Note_on_c, 0, 86, 60
1, 20251, Note_on_c, 0, 47, 0
1, 20325, Note_on_c, 0, 86, 0
1, 20325, Note_on_c, 0, 83, 52
1, 20399, Note_on_c, 0, 83, 0
1, 20399, Note_on_c, 0, 83, 60
1, 20399, Note_on_c, 0, 62, 60
1, 20402, Note_on_c, 0, 54, 52
1, 20402, Note_on_c, 0, 59, 52
1, 20472, Note_on_c, 0, 83, 0
1, 20472, Note_on_c, 0, 86, 52
1, 20547, Note_on_c, 0, 86, 0
1, 20547, Note_on_c, 0, 83, 60
1, 20621, Note_on_c, 0, 83, 0
1, 20621, Note_on_c, 0, 78, 52
1, 20695, Note_on_c, 0, 78, 0
1, 20695, Note_on_c, 0, 78, 60
1, 20769, Note_on_c, 0, 78, 0
1, 20769, Note_on_c, 0, 83, 53
1, 20843, Note_on_c, 0, 83, 0
1, 20843, Note_on_c, 0, 78, 60
1, 20917, Note_on_c, 0, 78, 0
1, 20917, Note_on_c, 0, 74, 52
1, 20992, Note_on_c, 0, 74, 0
1, 20992, Note_on_c, 0, 74, 60
1, 21066, Note_on_c, 0, 74, 0
1, 21066, Note_on_c, 0, 78, 52
1, 21141, Note_on_c, 0, 78, 0
1, 21141, Note_on_c, 0, 74, 60
1, 21215, Note_on_c, 0, 74, 0
1, 21215, Note_on_c, 0, 71, 52
1, 21289, Note_on_c, 0, 71, 0
1, 21289, Note_on_c, 0, 71, 60
1, 21364, Note_on_c, 0, 71, 0
1, 21364, Note_on_c, 0, 74, 52
1, 21439, Note_on_c, 0, 74, 0
1, 21439, Note_on_c, 0, 71, 60
1, 21513, Note_on_c, 0, 71, 0
1, 21513, Note_on_c, 0, 66, 52
1, 21588, Note_on_c, 0, 66, 0
1, 21588, Note_on_c, 0, 70, 55
1, 21588, Note_on_c, 0, 73, 55
1, 21591, Note_on_c, 0, 59, 0
1, 21591, Note_on_c, 0, 54, 0
1, 21591, Note_on_c, 0, 62, 0
1, 21594, Note_on_c, 0, 54, 45
1, 21594, Note_on_c, 0, 64, 51
1, 21594, Control_c, 0, 64, 0
1, 21767, Note_on_c, 0, 73, 0
1, 21767, Note_on_c, 0, 70, 0
1, 21767, Note_on_c, 0, 64, 0
1, 21770, Note_on_c, 0, 54, 0
1, 21947, Note_on_c, 0, 74, 51
1, 21947, Note_on_c, 0, 66, 51
1, 21947, Note_on_c, 0, 71, 51
1, 21950, Note_on_c, 0, 62, 50
1, 21950, Note_on_c, 0, 59, 50
1, 22333, Note_on_c, 0, 71, 0
1, 22333, Note_on_c, 0, 66, 0
1, 22333, Note_on_c, 0, 74, 0
1, 22336, Note_on_c, 0, 73, 60
1, 22336, Note_on_c, 0, 76, 60
1, 22336, Note_on_c, 0, 83, 60
1, 22339, Note_on_c, 0, 59, 0
1, 22339, Note_on_c, 0, 62, 0
1, 22339, Note_on_c, 0, 57, 55
1, 22342, Note_on_c, 0, 67, 55
1, 22654, Note_on_c, 0, 83, 0
1, 22654, Note_on_c, 0, 76, 0
1, 22654, Note_on_c, 0, 73, 0
1, 22657, Note_on_c, 0, 83, 58
1, 22657, Note_on_c, 0, 76, 58
1, 22657, Note_on_c, 0, 73, 58
1, 22660, Note_on_c, 0, 67, 0
1, 22660, Note_on_c, 0, 57, 0
1, 22660, Note_on_c, 0, 57, 53
1, 22663, Note_on_c, 0, 67, 53
1, 22975, Note_on_c, 0, 73, 0
1, 22975, Note_on_c, 0, 76, 0
1, 22975, Note_on_c, 0, 83, 0
1, 22978, Note_on_c, 0, 83, 56
1, 22978, Note_on_c, 0, 73, 56
1, 22978, Note_on_c, 0, 76, 56
1, 22981, Note_on_c, 0, 67, 0
1, 22981, Note_on_c, 0, 57, 0
1, 22981, Note_on_c, 0, 67, 51
1, 22984, Note_on_c, 0, 57, 51
1, 23296, Note_on_c, 0, 76, 0
1, 23296, Note_on_c, 0, 73, 0
1, 23296, Note_on_c, 0, 83, 0
1, 23299, Note_on_c, 0, 73, 54
1, 23299, Note_on_c, 0, 78, 54
1, 23299, Note_on_c, 0, 81, 54
1, 23302, Note_on_c, 0, 57, 0
1, 23302, Note_on_c, 0, 67, 0
1, 23302, Note_on_c, 0, 66, 49
1, 23305, Note_on_c, 0, 57, 49
1, 23617, Note_on_c, 0, 81, 0
1, 23617, Note_on_c, 0, 78, 0
1, 23617, Note_on_c, 0, 73, 0
1, 23620, Note_on_c, 0, 73, 52
1, 23620, Note_on_c, 0, 79, 52
1, 23620, Note_on_c, 0, 57, 0
1, 23623, Note_on_c, 0, 66, 0
1, 23623, Note_on_c, 0, 64, 47
1, 23623, Note_on_c, 0, 57, 47
1, 23938, Note_on_c, 0, 79, 0
1, 23938, Note_on_c, 0, 73, 0
1, 23938, Note_on_c, 0, 74, 48
1, 23941, Note_on_c, 0, 78, 48
1, 23941, Note_on_c, 0, 57, 0
1, 23941, Note_on_c, 0, 64, 0
1, 23944, Note_on_c, 0, 59, 46
1, 23944, Note_on_c, 0, 62, 46
1, 24273, Note_on_c, 0, 78, 0
1, 24273, Note_on_c, 0, 74, 0
1, 24273, Note_on_c, 0, 79, 56
1, 24276, Note_on_c, 0, 73, 56
1, 24276, Note_on_c, 0, 70, 56
1, 24276, Note_on_c, 0, 62, 0
1, 24279, Note_on_c, 0, 59, 0
1, 24279, Note_on_c, 0, 64, 52
1, 24279, Note_on_c, 0, 54, 52
1, 24594, Note_on_c, 0, 70, 0
1, 24594, Note_on_c, 0, 73, 0
1, 24594, Note_on_c, 0, 79, 0
1, 24597, Note_on_c, 0, 79, 56
1, 24597, Note_on_c, 0, 73, 56
1, 24597, Note_on_c, 0, 70, 56
1, 24600, Note_on_c, 0, 54, 0
1, 24600, Note_on_c, 0, 64, 0
1, 24600, Note_on_c, 0, 64, 51
1, 24603, Note_on_c, 0, 54, 51
1, 24915, Note_on_c, 0, 70, 0
1, 24915, Note_on_c, 0, 73, 0
1, 24915, Note_on_c, 0, 79, 0
1, 24918, Note_on_c, 0, 73, 56
1, 24918, Note_on_c, 0, 70, 56
1, 24918, Note_on_c, 0, 79, 56
1, 24921, Note_on_c, 0, 54, 0
1, 24921, Note_on_c, 0, 64, 0
1, 24921, Note_on_c, 0, 64, 51
1, 24924, Note_on_c, 0, 54, 51
1, 25236, Note_on_c, 0, 79, 0
1, 25236, Note_on_c, 0, 70, 0
1, 25236, Note_on_c, 0, 73, 0
1, 25239, Note_on_c, 0, 70, 54
1, 25239, Note_on_c, 0, 73, 54
1, 25239, Note_on_c, 0, 78, 54
1, 25242, Note_on_c, 0, 54, 0
1, 25242, Note_on_c, 0, 64, 0
1, 25242, Note_on_c, 0, 54, 49
1, 25245, Note_on_c, 0, 61, 49
1, 25557, Note_on_c, 0, 78, 0
1, 25557, Note_on_c, 0, 73, 0
1, 25557, Note_on_c, 0, 70, 0
1, 25560, Note_on_c, 0, 76, 52
1, 25560, Note_on_c, 0, 73, 52
1, 25560, Note_on_c, 0, 61, 0
1, 25563, Note_on_c, 0, 54, 0
1, 25563, Note_on_c, 0, 54, 47
1, 25563, Note_on_c, 0, 58, 47
1, 25877, Note_on_c, 0, 73, 0
1, 25877, Note_on_c, 0, 76, 0
1, 25877, Note_on_c, 0, 75, 51
1, 25880, Note_on_c, 0, 71, 51
1, 25880, Note_on_c, 0, 58, 0
1, 25880, Note_on_c, 0, 54, 0
1, 25883, Note_on_c, 0, 56, 46
1, 25883, Note_on_c, 0, 59, 46
1, 26224, Note_on_c, 0, 71, 0
1, 26224, Note_on_c, 0, 75, 0
1, 26224, Note_on_c, 0, 76, 59
1, 26227, Note_on_c, 0, 64, 59
1, 26227, Note_on_c, 0, 68, 59
1, 26227, Note_on_c, 0, 59, 0
1, 26230, Note_on_c, 0, 56, 0
1, 26230, Note_on_c, 0, 56, 54
1, 26230, Note_on_c, 0, 61, 54
1, 26233, Note_on_c, 0, 49, 54
1, 26545, Note_on_c, 0, 68, 0
1, 26545, Note_on_c, 0, 64, 0
1, 26545, Note_on_c, 0, 76, 0
1, 26548, Note_on_c, 0, 76, 59
1, 26548, Note_on_c, 0, 68, 59
1, 26548, Note_on_c, 0, 64, 59
1, 26551, Note_on_c, 0, 49, 0
1, 26551, Note_on_c, 0, 61, 0
1, 26551, Note_on_c, 0, 56, 0
1, 26554, Note_on_c, 0, 49, 52
1, 26554, Note_on_c, 0, 61, 52
1, 26554, Note_on_c, 0, 56, 52
1, 26866, Note_on_c, 0, 64, 0
1, 26866, Note_on_c, 0, 68, 0
1, 26866, Note_on_c, 0, 76, 0
1, 26869, Note_on_c, 0, 68, 59
1, 26869, Note_on_c, 0, 64, 59
1, 26869, Note_on_c, 0, 76, 59
1, 26872, Note_on_c, 0, 56, 0
1, 26872, Note_on_c, 0, 61, 0
1, 26872, Note_on_c, 0, 49, 0
1, 26875, Note_on_c, 0, 61, 54
1, 26875, Note_on_c, 0, 49, 54
1, 26875, Note_on_c, 0, 56, 54
1, 27187, Note_on_c, 0, 76, 0
1, 27187, Note_on_c, 0, 64, 0
1, 27187, Note_on_c, 0, 68, 0
1, 27190, Note_on_c, 0, 63, 59
1, 27190, Note_on_c, 0, 75, 59
1, 27190, Note_on_c, 0, 68, 59
1, 27193, Note_on_c, 0, 56, 0
1, 27193, Note_on_c, 0, 49, 0
1, 27193, Note_on_c, 0, 61, 0
1, 27196, Note_on_c, 0, 51, 53
1, 27196, Note_on_c, 0, 56, 53
1, 27196, Note_on_c, 0, 59, 53
1, 27508, Note_on_c, 0, 68, 0
1, 27508, Note_on_c, 0, 75, 0
1, 27508, Note_on_c, 0, 63, 0
1, 27511, Note_on_c, 0, 68, 57
1, 27511, Note_on_c, 0, 73, 57
1, 27511, Note_on_c, 0, 61, 57
1, 27514, Note_on_c, 0, 59, 0
1, 27514, Note_on_c, 0, 56, 0
1, 27514, Note_on_c, 0, 51, 0
1, 27517, Note_on_c, 0, 52, 52
1, 27517, Note_on_c, 0, 56, 52
1, 27829, Note_on_c, 0, 61, 0
1, 27829, Note_on_c, 0, 73, 0
1, 27829, Note_on_c, 0, 68, 0
1, 27832, Note_on_c, 0, 71, 58
1, 27832, Note_on_c, 0, 68, 58
1, 27832, Note_on_c, 0, 63, 58
1, 27835, Note_on_c, 0, 56, 0
1, 27835, Note_on_c, 0, 52, 0
1, 27835, Note_on_c, 0, 56, 51
1, 27838, Note_on_c, 0, 51, 51
1, 27838, Note_on_c, 0, 59, 51
1, 28164, Note_on_c, 0, 63, 0
1, 28164, Note_on_c, 0, 68, 0
1, 28164, Note_on_c, 0, 71, 0
1, 28167, Note_on_c, 0, 63, 58
1, 28167, Note_on_c, 0, 68, 58
1, 28167, Note_on_c, 0, 71, 58
1, 28170, Note_on_c, 0, 59, 0
1, 28170, Note_on_c, 0, 51, 0
1, 28170, Note_on_c, 0, 56, 0
1, 28173, Note_on_c, 0, 56, 50
1, 28173, Note_on_c, 0, 59, 50
1, 28173, Note_on_c, 0, 51, 50
1, 28499, Note_on_c, 0, 71, 0
1, 28499, Note_on_c, 0, 68, 0
1, 28499, Note_on_c, 0, 63, 0
1, 28502, Note_on_c, 0, 63, 58
1, 28502, Note_on_c, 0, 68, 58
1, 28502, Note_on_c, 0, 71, 58
1, 28505, Note_on_c, 0, 51, 0
1, 28505, Note_on_c, 0, 59, 0
1, 28505, Note_on_c, 0, 56, 0
1, 28508, Note_on_c, 0, 51, 50
1, 28508, Note_on_c, 0, 59, 50
1, 28508, Note_on_c, 0, 56, 50
1, 28874, Note_on_c, 0, 71, 0
1, 28874, Note_on_c, 0, 68, 0
1, 28874, Note_on_c, 0, 63, 0
1, 28877, Note_on_c, 0, 70, 43
1, 28877, Note_on_c, 0, 67, 43
1, 28877, Note_on_c, 0, 63, 43
1, 28880, Note_on_c, 0, 56, 0
1, 28880, Note_on_c, 0, 59, 0
1, 28880, Note_on_c, 0, 51, 0
1, 28883, Note_on_c, 0, 55, 41
1, 28883, Note_on_c, 0, 51, 41
1, 28883, Note_on_c, 0, 58, 41
1, 29208, Note_on_c, 0, 63, 0
1, 29208, Note_on_c, 0, 67, 0
1, 29208, Note_on_c, 0, 70, 0
1, 29211, Note_on_c, 0, 70, 44
1, 29211, Note_on_c, 0, 63, 44
1, 29211, Note_on_c, 0, 67, 44
1, 29214, Note_on_c, 0, 58, 0
1, 29214, Note_on_c, 0, 51, 0
1, 29214, Note_on_c, 0, 55, 0
1, 29217, Note_on_c, 0, 51, 40
1, 29217, Note_on_c, 0, 58, 40
1, 29217, Note_on_c, 0, 55, 40
1, 29542, Note_on_c, 0, 67, 0
1, 29542, Note_on_c, 0, 63, 0
1, 29542, Note_on_c, 0, 70, 0
1, 29545, Note_on_c, 0, 63, 44
1, 29545, Note_on_c, 0, 67, 44
1, 29545, Note_on_c, 0, 70, 44
1, 29548, Note_on_c, 0, 55, 0
1, 29548, Note_on_c, 0, 58, 0
1, 29548, Note_on_c, 0, 51, 0
1, 29551, Note_on_c, 0, 55, 39
1, 29551, Note_on_c, 0, 58, 39
1, 29551, Note_on_c, 0, 51, 39
1, 29932, Note_on_c, 0, 70, 0
1, 29932, Note_on_c, 0, 67, 0
1, 29932, Note_on_c, 0, 63, 0
1, 29935, Note_on_c, 0, 84, 50
1, 29935, Control_c, 0, 91, 127
1, 29935, Note_on_c, 0, 51, 0
1, 29938, Note_on_c, 0, 58, 0
1, 29938, Note_on_c, 0, 55, 0
1, 29938, Note_on_c, 0, 44, 50
1, 29941, Control_c, 0, 91, 126
1, 29954, Control_c, 0, 64, 127
1, 30006, Note_on_c, 0, 84, 0
1, 30006, Note_on_c, 0, 87, 44
1, 30080, Note_on_c, 0, 87, 0
1, 30080, Note_on_c, 0, 84, 50
1, 30153, Note_on_c, 0, 84, 0
1, 30153, Note_on_c, 0, 80, 44
1, 30227, Note_on_c, 0, 80, 0
1, 30227, Note_on_c, 0, 80, 50
1, 30227, Note_on_c, 0, 44, 0
1, 30230, Note_on_c, 0, 60, 50
1, 30230, Note_on_c, 0, 56, 44
1, 30230, Note_on_c, 0, 51, 44
1, 30301, Note_on_c, 0, 80, 0
1, 30301, Note_on_c, 0, 84, 44
1, 30375, Note_on_c, 0, 84, 0
1, 30375, Note_on_c, 0, 80, 50
1, 30449, Note_on_c, 0, 80, 0
1, 30449, Note_on_c, 0, 75, 44
1, 30523, Note_on_c, 0, 75, 0
1, 30523, Note_on_c, 0, 75, 50
1, 30597, Note_on_c, 0, 75, 0
1, 30597, Note_on_c, 0, 80, 44
1, 30671, Note_on_c, 0, 80, 0
1, 30671, Note_on_c, 0, 75, 50
1, 30745, Note_on_c, 0, 75, 0
1, 30745, Note_on_c, 0, 72, 44
1, 30819, Note_on_c, 0, 72, 0
1, 30819, Note_on_c, 0, 72, 50
1, 30893, Note_on_c, 0, 72, 0
1, 30893, Note_on_c, 0, 75, 44
1, 30968, Note_on_c, 0, 75, 0
1, 30968, Note_on_c, 0, 72, 50
1, 31042, Note_on_c, 0, 72, 0
1, 31042, Note_on_c, 0, 68, 44
1, 31117, Note_on_c, 0, 68, 0
1, 31117, Note_on_c, 0, 68, 50
1, 31191, Note_on_c, 0, 68, 0
1, 31191, Note_on_c, 0, 72, 44
1, 31266, Note_on_c, 0, 72, 0
1, 31266, Note_on_c, 0, 68, 50
1, 31341, Note_on_c, 0, 68, 0
1, 31341, Note_on_c, 0, 63, 44
1, 31415, Note_on_c, 0, 63, 0
1, 31415, Note_on_c, 0, 67, 40
1, 31415, Note_on_c, 0, 70, 46
1, 31418, Note_on_c, 0, 51, 0
1, 31418, Note_on_c, 0, 56, 0
1, 31418, Note_on_c, 0, 60, 0
1, 31421, Note_on_c, 0, 61, 42
1, 31421, Note_on_c, 0, 51, 37
1, 31421, Control_c, 0, 64, 0
1, 31594, Note_on_c, 0, 70, 0
1, 31594, Note_on_c, 0, 67, 0
1, 31594, Note_on_c, 0, 51, 0
1, 31597, Note_on_c, 0, 61, 0
1, 31774, Note_on_c, 0, 84, 50
1, 31774, Control_c, 0, 91, 127
1, 31774, Note_on_c, 0, 44, 50
1, 31779, Control_c, 0, 91, 126
1, 31786, Control_c, 0, 64, 127
1, 31848, Note_on_c, 0, 84, 0
1, 31848, Note_on_c, 0, 87, 44
1, 31922, Note_on_c, 0, 87, 0
1, 31922, Note_on_c, 0, 84, 50
1, 31996, Note_on_c, 0, 84, 0
1, 31996, Note_on_c, 0, 80, 44
1, 32070, Note_on_c, 0, 80, 0
1, 32070, Note_on_c, 0, 80, 50
1, 32070, Note_on_c, 0, 44, 0
1, 32073, Note_on_c, 0, 51, 44
1, 32073, Note_on_c, 0, 56, 44
1, 32073, Note_on_c, 0, 60, 50
1, 32144, Note_on_c, 0, 80, 0
1, 32144, Note_on_c, 0, 84, 44
1, 32218, Note_on_c, 0, 84, 0
1, 32218, Note_on_c, 0, 80, 50
1, 32292, Note_on_c, 0, 80, 0
1, 32292, Note_on_c, 0, 75, 44
1, 32366, Note_on_c, 0, 75, 0
1, 32366, Note_on_c, 0, 75, 50
1, 32440, Note_on_c, 0, 75, 0
1, 32440, Note_on_c, 0, 80, 44
1, 32515, Note_on_c, 0, 80, 0
1, 32515, Note_on_c, 0, 75, 50
1, 32589, Note_on_c, 0, 75, 0
1, 32589, Note_on_c, 0, 72, 44
1, 32664, Note_on_c, 0, 72, 0
1, 32664, Note_on_c, 0, 72, 50
1, 32738, Note_on_c, 0, 72, 0
1, 32738, Note_on_c, 0, 75, 44
1, 32813, Note_on_c, 0, 75, 0
1, 32813, Note_on_c, 0, 72, 50
1, 32887, Note_on_c, 0, 72, 0
1, 32887, Note_on_c, 0, 68, 44
1, 32962, Note_on_c, 0, 68, 0
1, 32962, Note_on_c, 0, 68, 50
1, 33037, Note_on_c, 0, 68, 0
1, 33037, Note_on_c, 0, 72, 44
1, 33112, Note_on_c, 0, 72, 0
1, 33112, Note_on_c, 0, 68, 50
1, 33187, Note_on_c, 0, 68, 0
1, 33187, Note_on_c, 0, 63, 44
1, 33262, Note_on_c, 0, 63, 0
1, 33262, Note_on_c, 0, 67, 46
1, 33262, Note_on_c, 0, 70, 46
1, 33265, Note_on_c, 0, 60, 0
1, 33265, Note_on_c, 0, 56, 0
1, 33265, Note_on_c, 0, 51, 0
1, 33268, Note_on_c, 0, 51, 38
1, 33268, Note_on_c, 0, 61, 44
1, 33268, Control_c, 0, 64, 0
1, 33441, Note_on_c, 0, 70, 0
1, 33441, Note_on_c, 0, 67, 0
1, 33441, Note_on_c, 0, 61, 0
1, 33444, Note_on_c, 0, 51, 0
1, 33620, Control_c, 0, 91, 127
1, 33620, Note_on_c, 0, 87, 55
1, 33620, Note_on_c, 0, 44, 55
1, 33625, Control_c, 0, 91, 126
1, 33633, Control_c, 0, 64, 127
1, 33694, Note_on_c, 0, 87, 0
1, 33694, Note_on_c, 0, 92, 48
1, 33768, Note_on_c, 0, 92, 0
1, 33768, Note_on_c, 0, 87, 55
1, 33841, Note_on_c, 0, 87, 0
1, 33841, Note_on_c, 0, 84, 48
1, 33915, Note_on_c, 0, 84, 0
1, 33915, Note_on_c, 0, 84, 55
1, 33915, Note_on_c, 0, 44, 0
1, 33918, Note_on_c, 0, 51, 51
1, 33918, Note_on_c, 0, 56, 51
1, 33918, Note_on_c, 0, 60, 59
1, 33988, Note_on_c, 0, 84, 0
1, 33988, Note_on_c, 0, 87, 48
1, 34062, Note_on_c, 0, 87, 0
1, 34062, Note_on_c, 0, 84, 55
1, 34136, Note_on_c, 0, 84, 0
1, 34136, Note_on_c, 0, 80, 48
1, 34209, Note_on_c, 0, 80, 0
1, 34209, Note_on_c, 0, 80, 55
1, 34283, Note_on_c, 0, 80, 0
1, 34283, Note_on_c, 0, 84, 48
1, 34357, Note_on_c, 0, 84, 0
1, 34357, Note_on_c, 0, 80, 55
1, 34431, Note_on_c, 0, 80, 0
1, 34431, Note_on_c, 0, 75, 48
1, 34506, Note_on_c, 0, 75, 0
1, 34506, Note_on_c, 0, 75, 55
1, 34580, Note_on_c, 0, 75, 0
1, 34580, Note_on_c, 0, 80, 48
1, 34654, Note_on_c, 0, 80, 0
1, 34654, Note_on_c, 0, 75, 55
1, 34728, Note_on_c, 0, 75, 0
1, 34728, Note_on_c, 0, 72, 48
1, 34803, Note_on_c, 0, 72, 0
1, 34803, Note_on_c, 0, 72, 55
1, 34877, Note_on_c, 0, 72, 0
1, 34877, Note_on_c, 0, 75, 48
1, 34952, Note_on_c, 0, 75, 0
1, 34952, Note_on_c, 0, 72, 55
1, 35027, Note_on_c, 0, 72, 0
1, 35027, Note_on_c, 0, 68, 48
1, 35101, Note_on_c, 0, 68, 0
1, 35101, Note_on_c, 0, 67, 50
1, 35101, Note_on_c, 0, 70, 50
1, 35104, Note_on_c, 0, 60, 0
1, 35104, Note_on_c, 0, 56, 0
1, 35104, Note_on_c, 0, 51, 0
1, 35107, Note_on_c, 0, 51, 43
1, 35107, Note_on_c, 0, 61, 49
1, 35107, Control_c, 0, 64, 0
1, 35280, Note_on_c, 0, 70, 0
1, 35280, Note_on_c, 0, 67, 0
1, 35280, Note_on_c, 0, 61, 0
1, 35283, Note_on_c, 0, 51, 0
1, 35460, Note_on_c, 0, 87, 60
1, 35460, Control_c, 0, 91, 127
1, 35460, Note_on_c, 0, 44, 60
1, 35465, Control_c, 0, 91, 126
1, 35477, Control_c, 0, 64, 127
1, 35534, Note_on_c, 0, 87, 0
1, 35534, Note_on_c, 0, 92, 52
1, 35608, Note_on_c, 0, 92, 0
1, 35608, Note_on_c, 0, 87, 60
1, 35682, Note_on_c, 0, 87, 0
1, 35682, Note_on_c, 0, 84, 52
1, 35755, Note_on_c, 0, 84, 0
1, 35755, Note_on_c, 0, 84, 60
1, 35755, Note_on_c, 0, 44, 0
1, 35758, Note_on_c, 0, 60, 58
1, 35758, Note_on_c, 0, 51, 50
1, 35758, Note_on_c, 0, 56, 50
1, 35830, Note_on_c, 0, 84, 0
1, 35830, Note_on_c, 0, 87, 52
1, 35904, Note_on_c, 0, 87, 0
1, 35904, Note_on_c, 0, 84, 60
1, 35978, Note_on_c, 0, 84, 0
1, 35978, Note_on_c, 0, 80, 52
1, 36052, Note_on_c, 0, 80, 0
1, 36052, Note_on_c, 0, 80, 60
1, 36126, Note_on_c, 0, 80, 0
1, 36126, Note_on_c, 0, 84, 52
1, 36201, Note_on_c, 0, 84, 0
1, 36201, Note_on_c, 0, 80, 60
1, 36275, Note_on_c, 0, 80, 0
1, 36275, Note_on_c, 0, 75, 52
1, 36350, Note_on_c, 0, 75, 0
1, 36350, Note_on_c, 0, 75, 60
1, 36424, Note_on_c, 0, 75, 0
1, 36424, Note_on_c, 0, 80, 52
1, 36499, Note_on_c, 0, 80, 0
1, 36499, Note_on_c, 0, 75, 60
1, 36573, Note_on_c, 0, 75, 0
1, 36573, Note_on_c, 0, 72, 52
1, 36648, Note_on_c, 0, 72, 0
1, 36648, Note_on_c, 0, 72, 60
1, 36723, Note_on_c, 0, 72, 0
1, 36723, Note_on_c, 0, 75, 52
1, 36798, Note_on_c, 0, 75, 0
1, 36798, Note_on_c, 0, 72, 60
1, 36873, Note_on_c, 0, 72, 0
1, 36873, Note_on_c, 0, 68, 52
1, 36948, Note_on_c, 0, 68, 0
1, 36948, Note_on_c, 0, 67, 55
1, 36948, Note_on_c, 0, 70, 55
1, 36951, Note_on_c, 0, 56, 0
1, 36951, Note_on_c, 0, 51, 0
1, 36951, Note_on_c, 0, 60, 0
1, 36954, Note_on_c, 0, 61, 48
1, 36954, Note_on_c, 0, 51, 42
1, 36954, Control_c, 0, 64, 0
1, 37127, Note_on_c, 0, 70, 0
1, 37127, Note_on_c, 0, 67, 0
1, 37127, Note_on_c, 0, 51, 0
1, 37130, Note_on_c, 0, 61, 0
1, 37306, Note_on_c, 0, 72, 50
1, 37306, Note_on_c, 0, 44, 50
1, 37319, Control_c, 0, 64, 127
1, 37381, Note_on_c, 0, 72, 0
1, 37381, Note_on_c, 0, 75, 44
1, 37456, Note_on_c, 0, 75, 0
1, 37456, Note_on_c, 0, 72, 50
1, 37531, Note_on_c, 0, 72, 0
1, 37531, Note_on_c, 0, 68, 44
1, 37606, Note_on_c, 0, 68, 0
1, 37606, Note_on_c, 0, 68, 50
1, 37606, Note_on_c, 0, 44, 0
1, 37609, Note_on_c, 0, 60, 43
1, 37609, Note_on_c, 0, 56, 37
1, 37609, Note_on_c, 0, 54, 37
1, 37681, Note_on_c, 0, 68, 0
1, 37681, Note_on_c, 0, 72, 44
1, 37756, Note_on_c, 0, 72, 0
1, 37756, Note_on_c, 0, 68, 50
1, 37830, Note_on_c, 0, 68, 0
1, 37830, Note_on_c, 0, 63, 44
1, 37905, Note_on_c, 0, 63, 0
1, 37905, Note_on_c, 0, 68, 50
1, 37967, Control_c, 0, 64, 0
1, 37986, Note_on_c, 0, 68, 0
1, 38226, Note_on_c, 0, 73, 50
1, 38226, Note_on_c, 0, 54, 0
1, 38226, Note_on_c, 0, 56, 0
1, 38229, Note_on_c, 0, 60, 0
1, 38229, Control_c, 0, 64, 127
1, 38229, Note_on_c, 0, 49, 50
1, 38301, Note_on_c, 0, 73, 0
1, 38301, Note_on_c, 0, 77, 44
1, 38376, Note_on_c, 0, 77, 0
1, 38376, Note_on_c, 0, 73, 50
1, 38451, Note_on_c, 0, 73, 0
1, 38451, Note_on_c, 0, 68, 44
1, 38526, Note_on_c, 0, 68, 0
1, 38526, Note_on_c, 0, 68, 50
1, 38526, Note_on_c, 0, 49, 0
1, 38529, Note_on_c, 0, 61, 39
1, 38529, Note_on_c, 0, 53, 35
1, 38529, Note_on_c, 0, 56, 35
1, 38601, Note_on_c, 0, 68, 0
1, 38601, Note_on_c, 0, 73, 44
1, 38676, Note_on_c, 0, 73, 0
1, 38676, Note_on_c, 0, 68, 50
1, 38750, Note_on_c, 0, 68, 0
1, 38750, Note_on_c, 0, 65, 44
1, 38825, Note_on_c, 0, 65, 0
1, 38825, Note_on_c, 0, 68, 50
1, 38881, Control_c, 0, 64, 0
1, 38906, Note_on_c, 0, 68, 0
1, 39146, Note_on_c, 0, 75, 50
1, 39146, Note_on_c, 0, 56, 0
1, 39146, Note_on_c, 0, 53, 0
1, 39149, Note_on_c, 0, 61, 0
1, 39149, Note_on_c, 0, 39, 50
1, 39173, Control_c, 0, 64, 127
1, 39221, Note_on_c, 0, 75, 0
1, 39221, Note_on_c, 0, 79, 44
1, 39296, Note_on_c, 0, 79, 0
1, 39296, Note_on_c, 0, 75, 50
1, 39371, Note_on_c, 0, 75, 0
1, 39371, Note_on_c, 0, 70, 44
1, 39445, Note_on_c, 0, 70, 0
1, 39445, Note_on_c, 0, 70, 50
1, 39445, Note_on_c, 0, 39, 0
1, 39448, Note_on_c, 0, 51, 39
1, 39448, Note_on_c, 0, 58, 39
1, 39448, Note_on_c, 0, 61, 45
1, 39520, Note_on_c, 0, 70, 0
1, 39520, Note_on_c, 0, 75, 44
1, 39595, Note_on_c, 0, 75, 0
1, 39595, Note_on_c, 0, 70, 50
1, 39670, Note_on_c, 0, 70, 0
1, 39670, Note_on_c, 0, 67, 44
1, 39745, Note_on_c, 0, 67, 0
1, 39745, Note_on_c, 0, 70, 50
1, 39814, Control_c, 0, 64, 0
1, 39825, Note_on_c, 0, 70, 0
1, 40067, Note_on_c, 0, 75, 50
1, 40067, Note_on_c, 0, 61, 0
1, 40067, Note_on_c, 0, 58, 0
1, 40070, Note_on_c, 0, 51, 0
1, 40070, Note_on_c, 0, 44, 50
1, 40089, Control_c, 0, 64, 127
1, 40142, Note_on_c, 0, 75, 0
1, 40142, Note_on_c, 0, 80, 44
1, 40217, Note_on_c, 0, 80, 0
1, 40217, Note_on_c, 0, 75, 50
1, 40292, Note_on_c, 0, 75, 0
1, 40292, Note_on_c, 0, 72, 44
1, 40367, Note_on_c, 0, 72, 0
1, 40367, Note_on_c, 0, 72, 50
1, 40367, Note_on_c, 0, 44, 0
1, 40370, Note_on_c, 0, 56, 41
1, 40370, Note_on_c, 0, 51, 41
1, 40370, Note_on_c, 0, 60, 47
1, 40442, Note_on_c, 0, 72, 0
1, 40442, Note_on_c, 0, 75, 44
1, 40517, Note_on_c, 0, 75, 0
1, 40517, Note_on_c, 0, 72, 50
1, 40593, Note_on_c, 0, 72, 0
1, 40593, Note_on_c, 0, 68, 44
1, 40668, Note_on_c, 0, 68, 0
1, 40668, Note_on_c, 0, 72, 50
1, 40722, Control_c, 0, 64, 0
1, 40754, Note_on_c, 0, 72, 0
1, 41013, Note_on_c, 0, 84, 62
1, 41013, Note_on_c, 0, 60, 0
1, 41013, Note_on_c, 0, 51, 0
1, 41016, Note_on_c, 0, 56, 0
1, 41016, Note_on_c, 0, 44, 62
1, 41032, Control_c, 0, 64, 127
1, 41089, Note_on_c, 0, 84, 0
1, 41089, Note_on_c, 0, 87, 54
1, 41164, Note_on_c, 0, 87, 0
1, 41164, Note_on_c, 0, 84, 62
1, 41239, Note_on_c, 0, 84, 0
1, 41239, Note_on_c, 0, 80, 54
1, 41315, Note_on_c, 0, 80, 0
1, 41315, Note_on_c, 0, 80, 62
1, 41315, Note_on_c, 0, 44, 0
1, 41318, Note_on_c, 0, 60, 53
1, 41318, Note_on_c, 0, 54, 45
1, 41318, Note_on_c, 0, 56, 45
1, 41390, Note_on_c, 0, 80, 0
1, 41390, Note_on_c, 0, 84, 54
1, 41465, Note_on_c, 0, 84, 0
1, 41465, Note_on_c, 0, 80, 62
1, 41540, Note_on_c, 0, 80, 0
1, 41540, Note_on_c, 0, 75, 54
1, 41615, Note_on_c, 0, 75, 0
1, 41615, Note_on_c, 0, 80, 62
1, 41671, Control_c, 0, 64, 0
1, 41695, Note_on_c, 0, 80, 0
1, 41936, Note_on_c, 0, 85, 70
1, 41936, Note_on_c, 0, 56, 0
1, 41936, Note_on_c, 0, 54, 0
1, 41939, Note_on_c, 0, 60, 0
1, 41939, Note_on_c, 0, 49, 70
1, 41939, Control_c, 0, 64, 127
1, 42011, Note_on_c, 0, 85, 0
1, 42011, Note_on_c, 0, 89, 61
1, 42087, Note_on_c, 0, 89, 0
1, 42087, Note_on_c, 0, 85, 70
1, 42162, Note_on_c, 0, 85, 0
1, 42162, Note_on_c, 0, 80, 61
1, 42238, Note_on_c, 0, 80, 0
1, 42238, Note_on_c, 0, 80, 70
1, 42238, Note_on_c, 0, 49, 0
1, 42241, Note_on_c, 0, 61, 62
1, 42241, Note_on_c, 0, 53, 54
1, 42241, Note_on_c, 0, 56, 54
1, 42313, Note_on_c, 0, 80, 0
1, 42313, Note_on_c, 0, 85, 61
1, 42388, Note_on_c, 0, 85, 0
1, 42388, Note_on_c, 0, 80, 70
1, 42464, Note_on_c, 0, 80, 0
1, 42464, Note_on_c, 0, 77, 61
1, 42539, Note_on_c, 0, 77, 0
1, 42539, Note_on_c, 0, 80, 70
1, 42590, Control_c, 0, 64, 0
1, 42619, Note_on_c, 0, 80, 0
1, 42860, Note_on_c, 0, 87, 80
1, 42860, Note_on_c, 0, 56, 0
1, 42860, Note_on_c, 0, 53, 0
1, 42863, Note_on_c, 0, 61, 0
1, 42863, Note_on_c, 0, 39, 80
1, 42870, Control_c, 0, 64, 127
1, 42935, Note_on_c, 0, 87, 0
1, 42935, Note_on_c, 0, 91, 69
1, 43010, Note_on_c, 0, 91, 0
1, 43010, Note_on_c, 0, 87, 80
1, 43085, Note_on_c, 0, 87, 0
1, 43085, Note_on_c, 0, 82, 69
1, 43160, Note_on_c, 0, 82, 0
1, 43160, Note_on_c, 0, 82, 80
1, 43160, Note_on_c, 0, 39, 0
1, 43163, Note_on_c, 0, 58, 61
1, 43163, Note_on_c, 0, 51, 61
1, 43163, Note_on_c, 0, 61, 71
1, 43236, Note_on_c, 0, 82, 0
1, 43236, Note_on_c, 0, 87, 69
1, 43311, Note_on_c, 0, 87, 0
1, 43311, Note_on_c, 0, 82, 80
1, 43386, Note_on_c, 0, 82, 0
1, 43386, Note_on_c, 0, 79, 69
1, 43461, Note_on_c, 0, 79, 0
1, 43461, Note_on_c, 0, 82, 80
1, 43472, Control_c, 0, 64, 0
1, 43621, Note_on_c, 0, 82, 0
1, 43782, Note_on_c, 0, 87, 90
1, 43782, Note_on_c, 0, 61, 0
1, 43782, Note_on_c, 0, 51, 0
1, 43785, Note_on_c, 0, 58, 0
1, 43785, Note_on_c, 0, 44, 86
1, 43799, Control_c, 0, 64, 127
1, 43857, Note_on_c, 0, 87, 0
1, 43857, Note_on_c, 0, 92, 78
1, 43932, Note_on_c, 0, 92, 0
1, 43932, Note_on_c, 0, 87, 90
1, 44007, Note_on_c, 0, 87, 0
1, 44007, Note_on_c, 0, 84, 78
1, 44081, Note_on_c, 0, 84, 0
1, 44081, Note_on_c, 0, 84, 90
1, 44081, Note_on_c, 0, 44, 0
1, 44084, Note_on_c, 0, 56, 63
1, 44084, Note_on_c, 0, 60, 73
1, 44084, Note_on_c, 0, 51, 63
1, 44156, Note_on_c, 0, 84, 0
1, 44156, Note_on_c, 0, 87, 78
1, 44231, Note_on_c, 0, 87, 0
1, 44231, Note_on_c, 0, 84, 90
1, 44306, Note_on_c, 0, 84, 0
1, 44306, Note_on_c, 0, 80, 78
1, 44382, Note_on_c, 0, 80, 0
1, 44382, Note_on_c, 0, 84, 90
1, 44457, Control_c, 0, 64, 0
1, 44555, Note_on_c, 0, 84, 0
1, 44729, Note_on_c, 0, 72, 50
1, 44729, Note_on_c, 0, 51, 0
1, 44729, Note_on_c, 0, 60, 0
1, 44732, Note_on_c, 0, 56, 0
1, 44732, Note_on_c, 0, 44, 44
1, 44732, Note_on_c, 0, 51, 60
1, 44742, Control_c, 0, 64, 127
1, 44809, Note_on_c, 0, 72, 0
1, 44809, Note_on_c, 0, 75, 44
1, 44889, Note_on_c, 0, 75, 0
1, 44889, Note_on_c, 0, 72, 50
1, 44970, Note_on_c, 0, 72, 0
1, 44970, Note_on_c, 0, 68, 44
1, 45049, Note_on_c, 0, 68, 0
1, 45049, Note_on_c, 0, 68, 50
1, 45049, Note_on_c, 0, 51, 0
1, 45052, Note_on_c, 0, 56, 70
1, 45124, Note_on_c, 0, 68, 0
1, 45124, Note_on_c, 0, 72, 44
1, 45199, Note_on_c, 0, 72, 0
1, 45199, Note_on_c, 0, 68, 50
1, 45274, Note_on_c, 0, 68, 0
1, 45274, Note_on_c, 0, 63, 44
1, 45349, Note_on_c, 0, 63, 0
1, 45349, Note_on_c, 0, 68, 50
1, 45499, Note_on_c, 0, 68, 0
1, 45499, Note_on_c, 0, 56, 0
1, 45499, Note_on_c, 0, 55, 60
1, 45648, Note_on_c, 0, 73, 50
1, 45648, Note_on_c, 0, 55, 0
1, 45648, Note_on_c, 0, 44, 0
1, 45651, Note_on_c, 0, 53, 60
1, 45651, Note_on_c, 0, 49, 44
1, 45651, Control_c, 0, 64, 0
1, 45728, Note_on_c, 0, 73, 0
1, 45728, Note_on_c, 0, 77, 44
1, 45747, Control_c, 0, 64, 127
1, 45808, Note_on_c, 0, 77, 0
1, 45808, Note_on_c, 0, 73, 50
1, 45888, Note_on_c, 0, 73, 0
1, 45888, Note_on_c, 0, 68, 44
1, 45968, Note_on_c, 0, 68, 0
1, 45968, Note_on_c, 0, 68, 50
1, 45968, Note_on_c, 0, 53, 0
1, 45971, Note_on_c, 0, 61, 70
1, 46043, Note_on_c, 0, 68, 0
1, 46043, Note_on_c, 0, 73, 44
1, 46118, Note_on_c, 0, 73, 0
1, 46118, Note_on_c, 0, 68, 50
1, 46193, Note_on_c, 0, 68, 0
1, 46193, Note_on_c, 0, 65, 44
1, 46268, Note_on_c, 0, 65, 0
1, 46268, Note_on_c, 0, 68, 50
1, 46417, Note_on_c, 0, 68, 0
1, 46417, Note_on_c, 0, 61, 0
1, 46417, Note_on_c, 0, 60, 60
1, 46567, Note_on_c, 0, 75, 50
1, 46567, Note_on_c, 0, 60, 0
1, 46567, Note_on_c, 0, 49, 0
1, 46570, Control_c, 0, 64, 0
1, 46570, Note_on_c, 0, 58, 60
1, 46570, Note_on_c, 0, 51, 44
1, 46647, Note_on_c, 0, 75, 0
1, 46647, Note_on_c, 0, 79, 44
1, 46661, Control_c, 0, 64, 127
1, 46728, Note_on_c, 0, 79, 0
1, 46728, Note_on_c, 0, 75, 50
1, 46808, Note_on_c, 0, 75, 0
1, 46808, Note_on_c, 0, 70, 44
1, 46888, Note_on_c, 0, 70, 0
1, 46888, Note_on_c, 0, 70, 50
1, 46888, Note_on_c, 0, 58, 0
1, 46891, Note_on_c, 0, 63, 70
1, 46963, Note_on_c, 0, 70, 0
1, 46963, Note_on_c, 0, 75, 44
1, 47038, Note_on_c, 0, 75, 0
1, 47038, Note_on_c, 0, 70, 50
1, 47113, Note_on_c, 0, 70, 0
1, 47113, Note_on_c, 0, 67, 44
1, 47188, Note_on_c, 0, 67, 0
1, 47188, Note_on_c, 0, 70, 50
1, 47338, Note_on_c, 0, 70, 0
1, 47338, Note_on_c, 0, 63, 0
1, 47338, Note_on_c, 0, 61, 60
1, 47487, Note_on_c, 0, 75, 50
1, 47487, Note_on_c, 0, 61, 0
1, 47487, Note_on_c, 0, 51, 0
1, 47490, Note_on_c, 0, 56, 44
1, 47490, Note_on_c, 0, 60, 60
1, 47490, Control_c, 0, 64, 0
1, 47549, Control_c, 0, 64, 127
1, 47568, Note_on_c, 0, 75, 0
1, 47568, Note_on_c, 0, 80, 44
1, 47648, Note_on_c, 0, 80, 0
1, 47648, Note_on_c, 0, 75, 50
1, 47728, Note_on_c, 0, 75, 0
1, 47728, Note_on_c, 0, 72, 44
1, 47808, Note_on_c, 0, 72, 0
1, 47808, Note_on_c, 0, 72, 50
1, 47808, Note_on_c, 0, 60, 0
1, 47811, Note_on_c, 0, 63, 70
1, 47884, Note_on_c, 0, 72, 0
1, 47884, Note_on_c, 0, 75, 44
1, 47958, Note_on_c, 0, 75, 0
1, 47958, Note_on_c, 0, 72, 50
1, 48033, Note_on_c, 0, 72, 0
1, 48033, Note_on_c, 0, 68, 44
1, 48108, Note_on_c, 0, 68, 0
1, 48108, Note_on_c, 0, 72, 50
1, 48161, Control_c, 0, 64, 0
1, 48258, Note_on_c, 0, 72, 0
1, 48408, Note_on_c, 0, 84, 62
1, 48408, Note_on_c, 0, 63, 0
1, 48408, Note_on_c, 0, 56, 0
1, 48411, Note_on_c, 0, 44, 65
1, 48411, Note_on_c, 0, 51, 75
1, 48420, Control_c, 0, 64, 127
1, 48498, Note_on_c, 0, 84, 0
1, 48498, Note_on_c, 0, 87, 54
1, 48589, Note_on_c, 0, 87, 0
1, 48589, Note_on_c, 0, 84, 62
1, 48680, Note_on_c, 0, 84, 0
1, 48680, Note_on_c, 0, 80, 54
1, 48769, Note_on_c, 0, 80, 0
1, 48769, Note_on_c, 0, 80, 62
1, 48769, Note_on_c, 0, 51, 0
1, 48772, Note_on_c, 0, 56, 83
1, 48844, Note_on_c, 0, 80, 0
1, 48844, Note_on_c, 0, 84, 54
1, 48918, Note_on_c, 0, 84, 0
1, 48918, Note_on_c, 0, 80, 62
1, 48993, Note_on_c, 0, 80, 0
1, 48993, Note_on_c, 0, 75, 54
1, 49068, Note_on_c, 0, 75, 0
1, 49068, Note_on_c, 0, 80, 62
1, 49217, Note_on_c, 0, 80, 0
1, 49217, Note_on_c, 0, 56, 0
1, 49217, Note_on_c, 0, 55, 70
1, 49366, Note_on_c, 0, 85, 65
1, 49366, Note_on_c, 0, 55, 0
1, 49366, Note_on_c, 0, 44, 0
1, 49369, Note_on_c, 0, 53, 77
1, 49369, Note_on_c, 0, 49, 66
1, 49369, Control_c, 0, 64, 0
1, 49447, Note_on_c, 0, 85, 0
1, 49447, Note_on_c, 0, 89, 56
1, 49470, Control_c, 0, 64, 127
1, 49528, Note_on_c, 0, 89, 0
1, 49528, Note_on_c, 0, 85, 65
1, 49609, Note_on_c, 0, 85, 0
1, 49609, Note_on_c, 0, 80, 56
1, 49690, Note_on_c, 0, 80, 0
1, 49690, Note_on_c, 0, 80, 65
1, 49690, Note_on_c, 0, 53, 0
1, 49693, Note_on_c, 0, 61, 86
1, 49765, Note_on_c, 0, 80, 0
1, 49765, Note_on_c, 0, 85, 56
1, 49840, Note_on_c, 0, 85, 0
1, 49840, Note_on_c, 0, 80, 65
1, 49915, Note_on_c, 0, 80, 0
1, 49915, Note_on_c, 0, 77, 56
1, 49990, Note_on_c, 0, 77, 0
1, 49990, Note_on_c, 0, 80, 65
1, 50139, Note_on_c, 0, 80, 0
1, 50139, Note_on_c, 0, 61, 0
1, 50139, Note_on_c, 0, 60, 76
1, 50289, Note_on_c, 0, 87, 72
1, 50289, Note_on_c, 0, 60, 0
1, 50289, Note_on_c, 0, 49, 0
1, 50292, Note_on_c, 0, 58, 81
1, 50292, Note_on_c, 0, 51, 70
1, 50292, Control_c, 0, 64, 0
1, 50368, Note_on_c, 0, 87, 0
1, 50368, Note_on_c, 0, 91, 62
1, 50377, Control_c, 0, 64, 127
1, 50447, Note_on_c, 0, 91, 0
1, 50447, Note_on_c, 0, 87, 72
1, 50526, Note_on_c, 0, 87, 0
1, 50526, Note_on_c, 0, 82, 62
1, 50605, Note_on_c, 0, 82, 0
1, 50605, Note_on_c, 0, 82, 72
1, 50605, Note_on_c, 0, 58, 0
1, 50608, Note_on_c, 0, 63, 89
1, 50680, Note_on_c, 0, 82, 0
1, 50680, Note_on_c, 0, 87, 62
1, 50755, Note_on_c, 0, 87, 0
1, 50755, Note_on_c, 0, 82, 72
1, 50829, Note_on_c, 0, 82, 0
1, 50829, Note_on_c, 0, 79, 62
1, 50904, Note_on_c, 0, 79, 0
1, 50904, Note_on_c, 0, 82, 72
1, 51054, Note_on_c, 0, 82, 0
1, 51054, Note_on_c, 0, 63, 0
1, 51054, Note_on_c, 0, 61, 79
1, 51204, Note_on_c, 0, 87, 80
1, 51204, Note_on_c, 0, 61, 0
1, 51204, Note_on_c, 0, 51, 0
1, 51207, Note_on_c, 0, 56, 71
1, 51207, Note_on_c, 0, 60, 83
1, 51207, Control_c, 0, 64, 0
1, 51283, Note_on_c, 0, 87, 0
1, 51283, Note_on_c, 0, 92, 69
1, 51288, Control_c, 0, 64, 127
1, 51362, Note_on_c, 0, 92, 0
1, 51362, Note_on_c, 0, 87, 80
1, 51441, Note_on_c, 0, 87, 0
1, 51441, Note_on_c, 0, 84, 68
1, 51520, Note_on_c, 0, 84, 0
1, 51520, Note_on_c, 0, 84, 80
1, 51520, Note_on_c, 0, 60, 0
1, 51523, Note_on_c, 0, 63, 92
1, 51595, Note_on_c, 0, 84, 0
1, 51595, Note_on_c, 0, 87, 69
1, 51670, Note_on_c, 0, 87, 0
1, 51670, Note_on_c, 0, 84, 80
1, 51745, Note_on_c, 0, 84, 0
1, 51745, Note_on_c, 0, 80, 69
1, 51820, Note_on_c, 0, 80, 0
1, 51820, Note_on_c, 0, 84, 80
1, 51969, Note_on_c, 0, 84, 0
1, 51969, Note_on_c, 0, 63, 0
1, 51969, Note_on_c, 0, 60, 82
1, 52119, Note_on_c, 0, 87, 87
1, 52119, Note_on_c, 0, 60, 0
1, 52119, Note_on_c, 0, 56, 0
1, 52122, Note_on_c, 0, 58, 87
1, 52122, Note_on_c, 0, 51, 76
1, 52122, Control_c, 0, 64, 0
1, 52201, Note_on_c, 0, 87, 0
1, 52201, Note_on_c, 0, 91, 75
1, 52206, Control_c, 0, 64, 127
1, 52283, Note_on_c, 0, 91, 0
1, 52283, Note_on_c, 0, 87, 87
1, 52366, Note_on_c, 0, 87, 0
1, 52366, Note_on_c, 0, 82, 75
1, 52448, Note_on_c, 0, 82, 0
1, 52448, Note_on_c, 0, 82, 87
1, 52448, Note_on_c, 0, 58, 0
1, 52451, Note_on_c, 0, 63, 94
1, 52523, Note_on_c, 0, 82, 0
1, 52523, Note_on_c, 0, 87, 75
1, 52598, Note_on_c, 0, 87, 0
1, 52598, Note_on_c, 0, 82, 87
1, 52673, Note_on_c, 0, 82, 0
1, 52673, Note_on_c, 0, 79, 75
1, 52747, Note_on_c, 0, 79, 0
1, 52747, Note_on_c, 0, 82, 87
1, 52897, Note_on_c, 0, 82, 0
1, 52897, Note_on_c, 0, 63, 0
1, 52897, Note_on_c, 0, 61, 89
1, 53047, Note_on_c, 0, 87, 88
1, 53047, Note_on_c, 0, 61, 0
1, 53047, Note_on_c, 0, 51, 0
1, 53050, Note_on_c, 0, 56, 76
1, 53050, Note_on_c, 0, 60, 88
1, 53050, Control_c, 0, 64, 0
1, 53128, Note_on_c, 0, 87, 0
1, 53128, Note_on_c, 0, 92, 76
1, 53133, Control_c, 0, 64, 127
1, 53208, Note_on_c, 0, 92, 0
1, 53208, Note_on_c, 0, 87, 88
1, 53289, Note_on_c, 0, 87, 0
1, 53289, Note_on_c, 0, 84, 76
1, 53369, Note_on_c, 0, 84, 0
1, 53369, Note_on_c, 0, 84, 88
1, 53369, Note_on_c, 0, 60, 0
1, 53372, Note_on_c, 0, 63, 93
1, 53444, Note_on_c, 0, 84, 0
1, 53444, Note_on_c, 0, 87, 76
1, 53519, Note_on_c, 0, 87, 0
1, 53519, Note_on_c, 0, 84, 88
1, 53594, Note_on_c, 0, 84, 0
1, 53594, Note_on_c, 0, 80, 76
1, 53669, Note_on_c, 0, 80, 0
1, 53669, Note_on_c, 0, 84, 88
1, 53818, Note_on_c, 0, 84, 0
1, 53818, Note_on_c, 0, 63, 0
1, 53818, Note_on_c, 0, 60, 86
1, 53968, Note_on_c, 0, 89, 88
1, 53968, Note_on_c, 0, 60, 0
1, 53968, Note_on_c, 0, 56, 0
1, 53971, Note_on_c, 0, 60, 86
1, 53971, Note_on_c, 0, 53, 73
1, 53971, Control_c, 0, 64, 0
1, 54052, Note_on_c, 0, 89, 0
1, 54052, Note_on_c, 0, 93, 77
1, 54064, Control_c, 0, 64, 127
1, 54136, Note_on_c, 0, 93, 0
1, 54136, Note_on_c, 0, 89, 88
1, 54221, Note_on_c, 0, 89, 0
1, 54221, Note_on_c, 0, 84, 77
1, 54305, Note_on_c, 0, 84, 0
1, 54305, Note_on_c, 0, 84, 88
1, 54305, Note_on_c, 0, 60, 0
1, 54308, Note_on_c, 0, 65, 92
1, 54381, Note_on_c, 0, 84, 0
1, 54381, Note_on_c, 0, 89, 77
1, 54456, Note_on_c, 0, 89, 0
1, 54456, Note_on_c, 0, 84, 88
1, 54530, Note_on_c, 0, 84, 0
1, 54530, Note_on_c, 0, 81, 77
1, 54605, Note_on_c, 0, 81, 0
1, 54605, Note_on_c, 0, 84, 88
1, 54755, Note_on_c, 0, 84, 0
1, 54755, Note_on_c, 0, 65, 0
1, 54755, Note_on_c, 0, 63, 82
1, 54905, Note_on_c, 0, 89, 88
1, 54905, Note_on_c, 0, 63, 0
1, 54905, Note_on_c, 0, 53, 0
1, 54908, Note_on_c, 0, 58, 74
1, 54908, Note_on_c, 0, 61, 86
1, 54908, Control_c, 0, 64, 0
1, 54985, Note_on_c, 0, 89, 0
1, 54985, Note_on_c, 0, 94, 77
1, 54985, Control_c, 0, 64, 127
1, 55065, Note_on_c, 0, 94, 0
1, 55065, Note_on_c, 0, 89, 88
1, 55146, Note_on_c, 0, 89, 0
1, 55146, Note_on_c, 0, 85, 77
1, 55226, Note_on_c, 0, 85, 0
1, 55226, Note_on_c, 0, 85, 88
1, 55226, Note_on_c, 0, 61, 0
1, 55229, Note_on_c, 0, 65, 92
1, 55301, Note_on_c, 0, 85, 0
1, 55301, Note_on_c, 0, 89, 77
1, 55376, Note_on_c, 0, 89, 0
1, 55376, Note_on_c, 0, 85, 88
1, 55451, Note_on_c, 0, 85, 0
1, 55451, Note_on_c, 0, 82, 77
1, 55526, Note_on_c, 0, 82, 0
1, 55526, Note_on_c, 0, 85, 88
1, 55675, Note_on_c, 0, 85, 0
1, 55675, Note_on_c, 0, 65, 0
1, 55675, Note_on_c, 0, 61, 82
1, 55826, Note_on_c, 0, 89, 88
1, 55826, Note_on_c, 0, 61, 0
1, 55826, Note_on_c, 0, 58, 0
1, 55829, Note_on_c, 0, 53, 72
1, 55829, Note_on_c, 0, 60, 85
1, 55829, Control_c, 0, 64, 0
1, 55896, Control_c, 0, 64, 127
1, 55908, Note_on_c, 0, 89, 0
1, 55908, Note_on_c, 0, 93, 77
1, 55990, Note_on_c, 0, 93, 0
1, 55990, Note_on_c, 0, 89, 88
1, 56073, Note_on_c, 0, 89, 0
1, 56073, Note_on_c, 0, 84, 77
1, 56155, Note_on_c, 0, 84, 0
1, 56155, Note_on_c, 0, 84, 88
1, 56155, Note_on_c, 0, 60, 0
1, 56158, Note_on_c, 0, 65, 91
1, 56230, Note_on_c, 0, 84, 0
1, 56230, Note_on_c, 0, 89, 77
1, 56305, Note_on_c, 0, 89, 0
1, 56305, Note_on_c, 0, 84, 88
1, 56379, Note_on_c, 0, 84, 0
1, 56379, Note_on_c, 0, 81, 77
1, 56454, Note_on_c, 0, 81, 0
1, 56454, Note_on_c, 0, 84, 88
1, 56604, Note_on_c, 0, 84, 0
1, 56604, Note_on_c, 0, 65, 0
1, 56604, Note_on_c, 0, 63, 82
1, 56754, Note_on_c, 0, 89, 88
1, 56754, Note_on_c, 0, 63, 0
1, 56754, Note_on_c, 0, 53, 0
1, 56757, Note_on_c, 0, 58, 69
1, 56757, Note_on_c, 0, 61, 87
1, 56757, Control_c, 0, 64, 0
1, 56829, Control_c, 0, 64, 127
1, 56833, Note_on_c, 0, 89, 0
1, 56833, Note_on_c, 0, 94, 77
1, 56913, Note_on_c, 0, 94, 0
1, 56913, Note_on_c, 0, 89, 88
1, 56992, Note_on_c, 0, 89, 0
1, 56992, Note_on_c, 0, 85, 77
1, 57071, Note_on_c, 0, 85, 0
1, 57071, Note_on_c, 0, 85, 88
1, 57071, Note_on_c, 0, 61, 0
1, 57074, Note_on_c, 0, 65, 91
1, 57146, Note_on_c, 0, 85, 0
1, 57146, Note_on_c, 0, 89, 77
1, 57221, Note_on_c, 0, 89, 0
1, 57221, Note_on_c, 0, 85, 88
1, 57296, Note_on_c, 0, 85, 0
1, 57296, Note_on_c, 0, 82, 77
1, 57371, Note_on_c, 0, 82, 0
1, 57371, Note_on_c, 0, 85, 88
1, 57521, Note_on_c, 0, 85, 0
1, 57521, Note_on_c, 0, 65, 0
1, 57521, Note_on_c, 0, 61, 83
1, 57670, Note_on_c, 0, 92, 88
1, 57670, Note_on_c, 0, 61, 0
1, 57670, Note_on_c, 0, 58, 0
1, 57673, Note_on_c, 0, 63, 87
1, 57673, Note_on_c, 0, 56, 69
1, 57673, Control_c, 0, 64, 0
1, 57760, Note_on_c, 0, 92, 0
1, 57760, Note_on_c, 0, 96, 77
1, 57786, Control_c, 0, 64, 127
1, 57850, Note_on_c, 0, 96, 0
1, 57850, Note_on_c, 0, 92, 88
1, 57940, Note_on_c, 0, 92, 0
1, 57940, Note_on_c, 0, 87, 77
1, 58030, Note_on_c, 0, 87, 0
1, 58030, Note_on_c, 0, 87, 88
1, 58030, Note_on_c, 0, 63, 0
1, 58033, Note_on_c, 0, 68, 91
1, 58105, Note_on_c, 0, 87, 0
1, 58105, Note_on_c, 0, 92, 77
1, 58180, Note_on_c, 0, 92, 0
1, 58180, Note_on_c, 0, 87, 88
1, 58254, Note_on_c, 0, 87, 0
1, 58254, Note_on_c, 0, 84, 77
1, 58329, Note_on_c, 0, 84, 0
1, 58329, Note_on_c, 0, 87, 88
1, 58479, Note_on_c, 0, 87, 0
1, 58479, Note_on_c, 0, 68, 0
1, 58479, Note_on_c, 0, 66, 83
1, 58629, Note_on_c, 0, 92, 88
1, 58629, Note_on_c, 0, 66, 0
1, 58629, Note_on_c, 0, 56, 0
1, 58632, Note_on_c, 0, 61, 77
1, 58632, Note_on_c, 0, 65, 90
1, 58632, Control_c, 0, 64, 0
1, 58709, Note_on_c, 0, 92, 0
1, 58709, Note_on_c, 0, 97, 77
1, 58723, Control_c, 0, 64, 127
1, 58788, Note_on_c, 0, 97, 0
1, 58788, Note_on_c, 0, 92, 88
1, 58867, Note_on_c, 0, 92, 0
1, 58867, Note_on_c, 0, 89, 77
1, 58947, Note_on_c, 0, 89, 0
1, 58947, Note_on_c, 0, 89, 89
1, 58947, Note_on_c, 0, 65, 0
1, 58950, Note_on_c, 0, 68, 93
1, 59022, Note_on_c, 0, 89, 0
1, 59022, Note_on_c, 0, 92, 78
1, 59097, Note_on_c, 0, 92, 0
1, 59097, Note_on_c, 0, 89, 90
1, 59172, Note_on_c, 0, 89, 0
1, 59172, Note_on_c, 0, 85, 78
1, 59247, Note_on_c, 0, 85, 0
1, 59247, Note_on_c, 0, 89, 91
1, 59396, Note_on_c, 0, 89, 0
1, 59396, Note_on_c, 0, 68, 0
1, 59396, Note_on_c, 0, 65, 85
1, 59546, Note_on_c, 0, 92, 92
1, 59546, Note_on_c, 0, 65, 0
1, 59546, Note_on_c, 0, 61, 0
1, 59549, Note_on_c, 0, 63, 88
1, 59549, Note_on_c, 0, 56, 76
1, 59549, Control_c, 0, 64, 0
1, 59627, Note_on_c, 0, 92, 0
1, 59627, Note_on_c, 0, 96, 80
1, 59636, Control_c, 0, 64, 127
1, 59707, Note_on_c, 0, 96, 0
1, 59707, Note_on_c, 0, 92, 93
1, 59788, Note_on_c, 0, 92, 0
1, 59788, Note_on_c, 0, 87, 81
1, 59868, Note_on_c, 0, 87, 0
1, 59868, Note_on_c, 0, 87, 94
1, 59868, Note_on_c, 0, 63, 0
1, 59871, Note_on_c, 0, 68, 94
1, 59944, Note_on_c, 0, 87, 0
1, 59944, Note_on_c, 0, 92, 82
1, 60018, Note_on_c, 0, 92, 0
1, 60018, Note_on_c, 0, 87, 95
1, 60093, Note_on_c, 0, 87, 0
1, 60093, Note_on_c, 0, 84, 82
1, 60168, Note_on_c, 0, 84, 0
1, 60168, Note_on_c, 0, 87, 95
1, 60328, Note_on_c, 0, 87, 0
1, 60328, Note_on_c, 0, 68, 0
1, 60328, Note_on_c, 0, 66, 86
1, 60489, Note_on_c, 0, 92, 96
1, 60489, Note_on_c, 0, 66, 0
1, 60489, Note_on_c, 0, 56, 0
1, 60492, Note_on_c, 0, 61, 95
1, 60492, Note_on_c, 0, 65, 95
1, 60492, Control_c, 0, 64, 0
1, 60561, Note_on_c, 0, 92, 0
1, 60561, Note_on_c, 0, 97, 83
1, 60591, Control_c, 0, 64, 127
1, 60633, Note_on_c, 0, 97, 0
1, 60633, Note_on_c, 0, 92, 96
1, 60706, Note_on_c, 0, 92, 0
1, 60706, Note_on_c, 0, 89, 83
1, 60778, Note_on_c, 0, 89, 0
1, 60778, Note_on_c, 0, 89, 96
1, 60778, Note_on_c, 0, 65, 0
1, 60781, Note_on_c, 0, 61, 0
1, 60850, Note_on_c, 0, 89, 0
1, 60850, Note_on_c, 0, 92, 83
1, 60923, Note_on_c, 0, 92, 0
1, 60923, Note_on_c, 0, 89, 96
1, 60995, Note_on_c, 0, 89, 0
1, 60995, Note_on_c, 0, 85, 83
1, 61068, Note_on_c, 0, 85, 0
1, 61068, Note_on_c, 0, 85, 96
1, 61141, Note_on_c, 0, 85, 0
1, 61141, Note_on_c, 0, 89, 83
1, 61213, Note_on_c, 0, 89, 0
1, 61213, Note_on_c, 0, 85, 96
1, 61286, Note_on_c, 0, 85, 0
1, 61286, Note_on_c, 0, 80, 83
1, 61360, Note_on_c, 0, 80, 0
1, 61360, Note_on_c, 0, 80, 96
1, 61433, Note_on_c, 0, 80, 0
1, 61433, Note_on_c, 0, 85, 83
1, 61506, Note_on_c, 0, 85, 0
1, 61506, Note_on_c, 0, 80, 96
1, 61580, Note_on_c, 0, 80, 0
1, 61580, Note_on_c, 0, 77, 83
1, 61653, Note_on_c, 0, 77, 0
1, 61653, Note_on_c, 0, 77, 96
1, 61727, Note_on_c, 0, 77, 0
1, 61727, Note_on_c, 0, 80, 83
1, 61801, Note_on_c, 0, 80, 0
1, 61801, Note_on_c, 0, 77, 96
1, 61875, Note_on_c, 0, 77, 0
1, 61875, Note_on_c, 0, 73, 83
1, 61949, Note_on_c, 0, 73, 0
1, 61949, Note_on_c, 0, 73, 96
1, 62023, Note_on_c, 0, 73, 0
1, 62023, Note_on_c, 0, 77, 83
1, 62097, Note_on_c, 0, 77, 0
1, 62097, Note_on_c, 0, 73, 96
1, 62172, Note_on_c, 0, 73, 0
1, 62172, Note_on_c, 0, 68, 83
1, 62246, Note_on_c, 0, 68, 0
1, 62246, Note_on_c, 0, 80, 96
1, 62246, Note_on_c, 0, 68, 94
1, 62249, Control_c, 0, 64, 0
1, 62319, Note_on_c, 0, 80, 0
1, 62319, Note_on_c, 0, 85, 83
1, 62327, Control_c, 0, 64, 127
1, 62391, Note_on_c, 0, 85, 0
1, 62391, Note_on_c, 0, 80, 96
1, 62391, Note_on_c, 0, 68, 0
1, 62464, Note_on_c, 0, 80, 0
1, 62464, Note_on_c, 0, 77, 83
1, 62536, Note_on_c, 0, 77, 0
1, 62536, Note_on_c, 0, 77, 96
1, 62536, Note_on_c, 0, 65, 89
1, 62609, Note_on_c, 0, 77, 0
1, 62609, Note_on_c, 0, 80, 83
1, 62682, Note_on_c, 0, 80, 0
1, 62682, Note_on_c, 0, 77, 96
1, 62682, Note_on_c, 0, 65, 0
1, 62755, Note_on_c, 0, 77, 0
1, 62755, Note_on_c, 0, 73, 83
1, 62828, Note_on_c, 0, 73, 0
1, 62828, Note_on_c, 0, 73, 96
1, 62828, Note_on_c, 0, 61, 89
1, 62901, Note_on_c, 0, 73, 0
1, 62901, Note_on_c, 0, 77, 83
1, 62974, Note_on_c, 0, 77, 0
1, 62974, Note_on_c, 0, 73, 96
1, 62974, Note_on_c, 0, 61, 0
1, 63047, Note_on_c, 0, 73, 0
1, 63047, Note_on_c, 0, 68, 83
1, 63120, Note_on_c, 0, 68, 0
1, 63120, Note_on_c, 0, 68, 96
1, 63120, Note_on_c, 0, 56, 92
1, 63193, Note_on_c, 0, 68, 0
1, 63193, Note_on_c, 0, 73, 83
1, 63267, Note_on_c, 0, 73, 0
1, 63267, Note_on_c, 0, 68, 96
1, 63267, Note_on_c, 0, 56, 0
1, 63340, Note_on_c, 0, 68, 0
1, 63340, Note_on_c, 0, 65, 83
1, 63413, Note_on_c, 0, 65, 0
1, 63413, Note_on_c, 0, 65, 96
1, 63413, Note_on_c, 0, 53, 89
1, 63487, Note_on_c, 0, 65, 0
1, 63487, Note_on_c, 0, 68, 83
1, 63561, Note_on_c, 0, 68, 0
1, 63561, Note_on_c, 0, 65, 96
1, 63561, Note_on_c, 0, 53, 0
1, 63635, Note_on_c, 0, 65, 0
1, 63635, Note_on_c, 0, 61, 83
1, 63708, Note_on_c, 0, 61, 0
1, 63708, Note_on_c, 0, 61, 96
1, 63708, Note_on_c, 0, 49, 89
1, 63782, Note_on_c, 0, 61, 0
1, 63782, Note_on_c, 0, 65, 83
1, 63856, Note_on_c, 0, 65, 0
1, 63856, Note_on_c, 0, 61, 96
1, 63856, Note_on_c, 0, 49, 0
1, 63930, Note_on_c, 0, 61, 0
1, 63930, Note_on_c, 0, 56, 83
1, 64005, Note_on_c, 0, 56, 0
1, 64005, Note_on_c, 0, 61, 98
1, 64005, Note_on_c, 0, 52, 78
1, 64008, Note_on_c, 0, 46, 68
1, 64008, Note_on_c, 0, 49, 68
1, 64008, Note_on_c, 0, 43, 68
1, 64011, Control_c, 0, 64, 0
1, 64079, Note_on_c, 0, 61, 0
1, 64079, Note_on_c, 0, 64, 78
1, 64093, Control_c, 0, 64, 127
1, 64153, Note_on_c, 0, 64, 0
1, 64153, Note_on_c, 0, 61, 90
1, 64228, Note_on_c, 0, 61, 0
1, 64228, Note_on_c, 0, 58, 78
1, 64302, Note_on_c, 0, 58, 0
1, 64302, Note_on_c, 0, 58, 90
1, 64376, Note_on_c, 0, 58, 0
1, 64376, Note_on_c, 0, 61, 78
1, 64451, Note_on_c, 0, 61, 0
1, 64451, Note_on_c, 0, 58, 90
1, 64525, Note_on_c, 0, 58, 0
1, 64525, Note_on_c, 0, 55, 78
1, 64600, Note_on_c, 0, 55, 0
1, 64600, Note_on_c, 0, 61, 99
1, 64600, Note_on_c, 0, 43, 0
1, 64603, Note_on_c, 0, 52, 0
1, 64603, Note_on_c, 0, 46, 0
1, 64603, Note_on_c, 0, 49, 0
1, 64606, Note_on_c, 0, 52, 78
1, 64606, Note_on_c, 0, 46, 68
1, 64606, Note_on_c, 0, 43, 68
1, 64609, Note_on_c, 0, 49, 68
1, 64609, Control_c, 0, 64, 0
1, 64663, Control_c, 0, 64, 127
1, 64674, Note_on_c, 0, 61, 0
1, 64674, Note_on_c, 0, 64, 78
1, 64748, Note_on_c, 0, 64, 0
1, 64748, Note_on_c, 0, 61, 90
1, 64823, Note_on_c, 0, 61, 0
1, 64823, Note_on_c, 0, 58, 78
1, 64897, Note_on_c, 0, 58, 0
1, 64897, Note_on_c, 0, 58, 90
1, 64971, Note_on_c, 0, 58, 0
1, 64971, Note_on_c, 0, 61, 78
1, 65046, Note_on_c, 0, 61, 0
1, 65046, Note_on_c, 0, 58, 90
1, 65120, Note_on_c, 0, 58, 0
1, 65120, Note_on_c, 0, 55, 78
1, 65195, Note_on_c, 0, 55, 0
1, 65195, Note_on_c, 0, 61, 98
1, 65195, Note_on_c, 0, 49, 0
1, 65198, Note_on_c, 0, 52, 0
1, 65198, Note_on_c, 0, 46, 0
1, 65198, Note_on_c, 0, 43, 0
1, 65201, Note_on_c, 0, 52, 78
1, 65201, Note_on_c, 0, 46, 68
1, 65201, Note_on_c, 0, 49, 68
1, 65204, Note_on_c, 0, 43, 68
1, 65204, Control_c, 0, 64, 0
1, 65262, Control_c, 0, 64, 127
1, 65269, Note_on_c, 0, 61, 0
1, 65269, Note_on_c, 0, 64, 78
1, 65343, Note_on_c, 0, 64, 0
1, 65343, Note_on_c, 0, 61, 90
1, 65418, Note_on_c, 0, 61, 0
1, 65418, Note_on_c, 0, 58, 78
1, 65492, Note_on_c, 0, 58, 0
1, 65492, Note_on_c, 0, 58, 90
1, 65567, Note_on_c, 0, 58, 0
1, 65567, Note_on_c, 0, 61, 78
1, 65641, Note_on_c, 0, 61, 0
1, 65641, Note_on_c, 0, 58, 90
1, 65715, Note_on_c, 0, 58, 0
1, 65715, Note_on_c, 0, 55, 78
1, 65790, Note_on_c, 0, 55, 0
1, 65790, Note_on_c, 0, 61, 90
1, 65790, Note_on_c, 0, 43, 0
1, 65793, Note_on_c, 0, 52, 0
1, 65793, Note_on_c, 0, 46, 0
1, 65793, Note_on_c, 0, 49, 0
1, 65796, Note_on_c, 0, 51, 71
1, 65796, Note_on_c, 0, 46, 61
1, 65796, Note_on_c, 0, 49, 61
1, 65799, Note_on_c, 0, 43, 61
1, 65799, Control_c, 0, 64, 0
1, 65856, Control_c, 0, 64, 127
1, 65864, Note_on_c, 0, 61, 0
1, 65864, Note_on_c, 0, 63, 78
1, 65939, Note_on_c, 0, 63, 0
1, 65939, Note_on_c, 0, 61, 89
1, 66014, Note_on_c, 0, 61, 0
1, 66014, Note_on_c, 0, 58, 76
1, 66089, Note_on_c, 0, 58, 0
1, 66089, Note_on_c, 0, 58, 87
1, 66164, Note_on_c, 0, 58, 0
1, 66164, Note_on_c, 0, 61, 75
1, 66239, Note_on_c, 0, 61, 0
1, 66239, Note_on_c, 0, 58, 86
1, 66314, Note_on_c, 0, 58, 0
1, 66314, Note_on_c, 0, 55, 73
1, 66389, Note_on_c, 0, 55, 0
1, 66389, Note_on_c, 0, 61, 92
1, 66389, Note_on_c, 0, 43, 0
1, 66392, Note_on_c, 0, 51, 0
1, 66392, Note_on_c, 0, 46, 0
1, 66392, Note_on_c, 0, 49, 0
1, 66395, Note_on_c, 0, 51, 60
1, 66395, Note_on_c, 0, 46, 52
1, 66395, Note_on_c, 0, 43, 52
1, 66398, Note_on_c, 0, 49, 52
1, 66398, Control_c, 0, 64, 0
1, 66465, Note_on_c, 0, 61, 0
1, 66465, Note_on_c, 0, 63, 74
1, 66465, Control_c, 0, 64, 127
1, 66541, Note_on_c, 0, 63, 0
1, 66541, Note_on_c, 0, 61, 85
1, 66617, Note_on_c, 0, 61, 0
1, 66617, Note_on_c, 0, 58, 71
1, 66692, Note_on_c, 0, 58, 0
1, 66692, Note_on_c, 0, 58, 86
1, 66769, Note_on_c, 0, 58, 0
1, 66769, Note_on_c, 0, 61, 73
1, 66845, Note_on_c, 0, 61, 0
1, 66845, Note_on_c, 0, 58, 83
1, 66921, Note_on_c, 0, 58, 0
1, 66921, Note_on_c, 0, 55, 69
1, 66998, Note_on_c, 0, 55, 0
1, 66998, Note_on_c, 0, 61, 86
1, 66998, Note_on_c, 0, 49, 0
1, 67001, Note_on_c, 0, 51, 0
1, 67001, Note_on_c, 0, 46, 0
1, 67001, Note_on_c, 0, 43, 0
1, 67004, Note_on_c, 0, 51, 55
1, 67004, Note_on_c, 0, 46, 48
1, 67004, Note_on_c, 0, 49, 48
1, 67007, Note_on_c, 0, 43, 48
1, 67007, Control_c, 0, 64, 0
1, 67074, Note_on_c, 0, 61, 0
1, 67074, Note_on_c, 0, 63, 67
1, 67074, Control_c, 0, 64, 127
1, 67151, Note_on_c, 0, 63, 0
1, 67151, Note_on_c, 0, 61, 76
1, 67228, Note_on_c, 0, 61, 0
1, 67228, Note_on_c, 0, 58, 65
1, 67306, Note_on_c, 0, 58, 0
1, 67306, Note_on_c, 0, 58, 73
1, 67400, Note_on_c, 0, 58, 0
1, 67400, Note_on_c, 0, 61, 62
1, 67493, Note_on_c, 0, 61, 0
1, 67493, Note_on_c, 0, 58, 70
1, 67587, Note_on_c, 0, 58, 0
1, 67587, Note_on_c, 0, 55, 59
1, 67681, Note_on_c, 0, 55, 0
1, 67681, Note_on_c, 0, 63, 60
1, 67681, Note_on_c, 0, 43, 0
1, 67684, Note_on_c, 0, 51, 0
1, 67684, Note_on_c, 0, 46, 0
1, 67684, Note_on_c, 0, 49, 0
1, 67687, Control_c, 0, 64, 0
1, 67687, Note_on_c, 0, 44, 50
1, 67766, Control_c, 0, 64, 127
1, 67827, Note_on_c, 0, 60, 50
1, 67964, Note_on_c, 0, 60, 0
1, 67964, Note_on_c, 0, 56, 50
1, 68093, Note_on_c, 0, 56, 0
1, 68093, Note_on_c, 0, 63, 0
1, 68093, Note_on_c, 0, 68, 60
1, 68102, Control_c, 0, 64, 0
1, 68174, Control_c, 0, 64, 127
1, 68201, Note_on_c, 0, 63, 50
1, 68308, Note_on_c, 0, 63, 0
1, 68308, Note_on_c, 0, 60, 50
1, 68415, Note_on_c, 0, 60, 0
1, 68415, Note_on_c, 0, 68, 0
1, 68415, Note_on_c, 0, 67, 60
1, 68418, Note_on_c, 0, 44, 0
1, 68418, Note_on_c, 0, 48, 50
1, 68423, Control_c, 0, 64, 0
1, 68490, Control_c, 0, 64, 127
1, 68522, Note_on_c, 0, 63, 50
1, 68629, Note_on_c, 0, 63, 0
1, 68629, Note_on_c, 0, 60, 50
1, 68736, Note_on_c, 0, 60, 0
1, 68736, Note_on_c, 0, 67, 0
1, 68736, Note_on_c, 0, 65, 60
1, 68739, Note_on_c, 0, 48, 0
1, 68739, Note_on_c, 0, 49, 50
1, 68739, Control_c, 0, 64, 0
1, 68797, Control_c, 0, 64, 127
1, 68853, Note_on_c, 0, 61, 50
1, 68972, Note_on_c, 0, 61, 0
1, 68972, Note_on_c, 0, 56, 50
1, 69090, Note_on_c, 0, 56, 0
1, 69090, Note_on_c, 0, 65, 0
1, 69090, Note_on_c, 0, 73, 60
1, 69093, Note_on_c, 0, 49, 0
1, 69093, Note_on_c, 0, 46, 50
1, 69099, Control_c, 0, 64, 0
1, 69165, Control_c, 0, 64, 127
1, 69197, Note_on_c, 0, 65, 50
1, 69304, Note_on_c, 0, 65, 0
1, 69304, Note_on_c, 0, 61, 50
1, 69411, Note_on_c, 0, 61, 0
1, 69411, Note_on_c, 0, 73, 0
1, 69411, Note_on_c, 0, 70, 60
1, 69414, Note_on_c, 0, 46, 0
1, 69414, Note_on_c, 0, 49, 50
1, 69420, Control_c, 0, 64, 0
1, 69479, Control_c, 0, 64, 127
1, 69529, Note_on_c, 0, 65, 50
1, 69647, Note_on_c, 0, 65, 0
1, 69647, Note_on_c, 0, 61, 50
1, 69765, Note_on_c, 0, 61, 0
1, 69765, Note_on_c, 0, 70, 0
1, 69765, Note_on_c, 0, 70, 60
1, 69768, Note_on_c, 0, 49, 0
1, 69768, Note_on_c, 0, 51, 50
1, 69774, Control_c, 0, 64, 0
1, 69851, Control_c, 0, 64, 127
1, 69873, Note_on_c, 0, 63, 50
1, 69980, Note_on_c, 0, 63, 0
1, 69980, Note_on_c, 0, 61, 50
1, 70087, Note_on_c, 0, 61, 0
1, 70087, Note_on_c, 0, 70, 0
1, 70087, Note_on_c, 0, 68, 60
1, 70097, Control_c, 0, 64, 0
1, 70168, Control_c, 0, 64, 127
1, 70195, Note_on_c, 0, 63, 50
1, 70302, Note_on_c, 0, 63, 0
1, 70302, Note_on_c, 0, 60, 50
1, 70409, Note_on_c, 0, 60, 0
1, 70409, Note_on_c, 0, 68, 0
1, 70409, Note_on_c, 0, 68, 60
1, 70418, Control_c, 0, 64, 0
1, 70471, Control_c, 0, 64, 127
1, 70517, Note_on_c, 0, 63, 50
1, 70624, Note_on_c, 0, 63, 0
1, 70624, Note_on_c, 0, 60, 50
1, 70731, Note_on_c, 0, 60, 0
1, 70731, Note_on_c, 0, 68, 0
1, 70731, Note_on_c, 0, 68, 60
1, 70734, Note_on_c, 0, 51, 0
1, 70734, Note_on_c, 0, 39, 50
1, 70734, Control_c, 0, 64, 0
1, 70789, Control_c, 0, 64, 127
1, 70832, Note_on_c, 0, 63, 50
1, 70936, Note_on_c, 0, 63, 0
1, 70936, Note_on_c, 0, 60, 50
1, 71042, Note_on_c, 0, 60, 0
1, 71042, Note_on_c, 0, 68, 0
1, 71042, Note_on_c, 0, 67, 60
1, 71050, Control_c, 0, 64, 0
1, 71113, Control_c, 0, 64, 127
1, 71150, Note_on_c, 0, 63, 50
1, 71261, Note_on_c, 0, 63, 0
1, 71261, Note_on_c, 0, 58, 50
1, 71374, Note_on_c, 0, 58, 0
1, 71374, Note_on_c, 0, 67, 0
1, 71374, Note_on_c, 0, 67, 60
1, 71384, Control_c, 0, 64, 0
1, 71449, Control_c, 0, 64, 127
1, 71505, Note_on_c, 0, 63, 50
1, 71635, Note_on_c, 0, 63, 0
1, 71635, Note_on_c, 0, 58, 50
1, 71765, Note_on_c, 0, 58, 0
1, 71765, Note_on_c, 0, 67, 0
1, 71765, Note_on_c, 0, 63, 60
1, 71768, Note_on_c, 0, 39, 0
1, 71768, Note_on_c, 0, 44, 50
1, 71771, Control_c, 0, 64, 0
1, 71821, Control_c, 0, 64, 127
1, 71872, Note_on_c, 0, 60, 50
1, 71979, Note_on_c, 0, 60, 0
1, 71979, Note_on_c, 0, 56, 50
1, 72086, Note_on_c, 0, 56, 0
1, 72086, Note_on_c, 0, 63, 0
1, 72086, Note_on_c, 0, 68, 60
1, 72095, Control_c, 0, 64, 0
1, 72157, Control_c, 0, 64, 127
1, 72193, Note_on_c, 0, 63, 50
1, 72300, Note_on_c, 0, 63, 0
1, 72300, Note_on_c, 0, 60, 50
1, 72407, Note_on_c, 0, 60, 0
1, 72407, Note_on_c, 0, 68, 0
1, 72407, Note_on_c, 0, 67, 60
1, 72410, Note_on_c, 0, 44, 0
1, 72410, Note_on_c, 0, 48, 50
1, 72416, Control_c, 0, 64, 0
1, 72483, Control_c, 0, 64, 127
1, 72514, Note_on_c, 0, 63, 50
1, 72621, Note_on_c, 0, 63, 0
1, 72621, Note_on_c, 0, 60, 50
1, 72728, Note_on_c, 0, 60, 0
1, 72728, Note_on_c, 0, 67, 0
1, 72728, Note_on_c, 0, 65, 60
1, 72731, Note_on_c, 0, 48, 0
1, 72731, Note_on_c, 0, 49, 50
1, 72731, Control_c, 0, 64, 0
1, 72805, Control_c, 0, 64, 127
1, 72852, Note_on_c, 0, 61, 50
1, 72978, Note_on_c, 0, 61, 0
1, 72978, Note_on_c, 0, 56, 50
1, 73103, Note_on_c, 0, 56, 0
1, 73103, Note_on_c, 0, 65, 0
1, 73103, Note_on_c, 0, 77, 60
1, 73106, Note_on_c, 0, 49, 0
1, 73106, Note_on_c, 0, 46, 50
1, 73112, Control_c, 0, 64, 0
1, 73164, Control_c, 0, 64, 127
1, 73210, Note_on_c, 0, 68, 50
1, 73317, Note_on_c, 0, 68, 0
1, 73317, Note_on_c, 0, 65, 50
1, 73424, Note_on_c, 0, 65, 0
1, 73424, Note_on_c, 0, 77, 0
1, 73424, Note_on_c, 0, 73, 60
1, 73427, Note_on_c, 0, 46, 0
1, 73427, Note_on_c, 0, 58, 50
1, 73427, Note_on_c, 0, 49, 50
1, 73430, Control_c, 0, 64, 0
1, 73495, Control_c, 0, 64, 127
1, 73531, Note_on_c, 0, 68, 50
1, 73638, Note_on_c, 0, 68, 0
1, 73638, Note_on_c, 0, 65, 50
1, 73745, Note_on_c, 0, 65, 0
1, 73745, Note_on_c, 0, 73, 0
1, 73745, Note_on_c, 0, 73, 60
1, 73748, Note_on_c, 0, 49, 0
1, 73748, Control_c, 0, 64, 0
1, 73748, Note_on_c, 0, 51, 50
1, 73811, Control_c, 0, 64, 127
1, 73852, Note_on_c, 0, 68, 50
1, 73960, Note_on_c, 0, 68, 0
1, 73960, Note_on_c, 0, 63, 50
1, 74069, Note_on_c, 0, 63, 0
1, 74069, Note_on_c, 0, 73, 0
1, 74069, Note_on_c, 0, 72, 60
1, 74072, Note_on_c, 0, 58, 0
1, 74072, Note_on_c, 0, 56, 50
1, 74078, Control_c, 0, 64, 0
1, 74137, Control_c, 0, 64, 127
1, 74179, Note_on_c, 0, 68, 50
1, 74289, Note_on_c, 0, 68, 0
1, 74289, Note_on_c, 0, 63, 50
1, 74401, Note_on_c, 0, 63, 0
1, 74401, Note_on_c, 0, 72, 0
1, 74401, Note_on_c, 0, 72, 60
1, 74404, Note_on_c, 0, 56, 0
1, 74404, Note_on_c, 0, 56, 50
1, 74410, Control_c, 0, 64, 0
1, 74477, Control_c, 0, 64, 127
1, 74516, Note_on_c, 0, 68, 50
1, 74631, Note_on_c, 0, 68, 0
1, 74631, Note_on_c, 0, 63, 50
1, 74746, Note_on_c, 0, 63, 0
1, 74746, Note_on_c, 0, 72, 0
1, 74746, Note_on_c, 0, 72, 60
1, 74749, Note_on_c, 0, 51, 0
1, 74749, Note_on_c, 0, 51, 50
1, 74755, Control_c, 0, 64, 0
1, 74813, Control_c, 0, 64, 127
1, 74854, Note_on_c, 0, 63, 50
1, 74963, Note_on_c, 0, 63, 0
1, 74963, Note_on_c, 0, 61, 50
1, 75075, Note_on_c, 0, 61, 0
1, 75075, Note_on_c, 0, 72, 0
1, 75075, Note_on_c, 0, 70, 60
1, 75078, Note_on_c, 0, 56, 0
1, 75078, Note_on_c, 0, 55, 50
1, 75085, Control_c, 0, 64, 0
1, 75155, Control_c, 0, 64, 127
1, 75189, Note_on_c, 0, 63, 50
1, 75304, Note_on_c, 0, 63, 0
1, 75304, Note_on_c, 0, 61, 50
1, 75422, Note_on_c, 0, 61, 0
1, 75422, Note_on_c, 0, 70, 0
1, 75422, Note_on_c, 0, 70, 60
1, 75425, Note_on_c, 0, 55, 0
1, 75425, Note_on_c, 0, 55, 50
1, 75431, Control_c, 0, 64, 0
1, 75517, Control_c, 0, 64, 127
1, 75542, Note_on_c, 0, 63, 50
1, 75686, Note_on_c, 0, 63, 0
1, 75686, Note_on_c, 0, 61, 50
1, 75853, Note_on_c, 0, 61, 0
1, 75853, Note_on_c, 0, 70, 0
1, 75853, Note_on_c, 0, 72, 58
1, 75856, Note_on_c, 0, 55, 0
1, 75856, Note_on_c, 0, 51, 0
1, 75856, Control_c, 0, 64, 0
1, 75859, Note_on_c, 0, 44, 58
1, 75859, Control_c, 0, 91, 125
1, 75859, Control_c, 0, 91, 126
1, 75928, Note_on_c, 0, 72, 0
1, 75928, Note_on_c, 0, 75, 50
1, 75945, Control_c, 0, 64, 127
1, 76003, Note_on_c, 0, 75, 0
1, 76003, Note_on_c, 0, 72, 58
1, 76077, Note_on_c, 0, 72, 0
1, 76077, Note_on_c, 0, 68, 50
1, 76077, Note_on_c, 0, 44, 0
1, 76152, Note_on_c, 0, 68, 0
1, 76152, Note_on_c, 0, 68, 58
1, 76152, Note_on_c, 0, 60, 49
1, 76155, Note_on_c, 0, 56, 43
1, 76155, Note_on_c, 0, 54, 43
1, 76227, Note_on_c, 0, 68, 0
1, 76227, Note_on_c, 0, 72, 50
1, 76302, Note_on_c, 0, 72, 0
1, 76302, Note_on_c, 0, 68, 58
1, 76377, Note_on_c, 0, 68, 0
1, 76377, Note_on_c, 0, 63, 50
1, 76452, Note_on_c, 0, 63, 0
1, 76452, Note_on_c, 0, 68, 58
1, 76574, Control_c, 0, 64, 0
1, 76612, Note_on_c, 0, 68, 0
1, 76773, Note_on_c, 0, 73, 58
1, 76773, Note_on_c, 0, 54, 0
1, 76773, Note_on_c, 0, 56, 0
1, 76776, Note_on_c, 0, 60, 0
1, 76776, Note_on_c, 0, 49, 58
1, 76776, Control_c, 0, 64, 127
1, 76848, Note_on_c, 0, 73, 0
1, 76848, Note_on_c, 0, 77, 50
1, 76923, Note_on_c, 0, 77, 0
1, 76923, Note_on_c, 0, 73, 58
1, 76997, Note_on_c, 0, 73, 0
1, 76997, Note_on_c, 0, 68, 50
1, 76997, Note_on_c, 0, 49, 0
1, 77072, Note_on_c, 0, 68, 0
1, 77072, Note_on_c, 0, 68, 58
1, 77072, Note_on_c, 0, 56, 39
1, 77075, Note_on_c, 0, 61, 45
1, 77075, Note_on_c, 0, 53, 39
1, 77147, Note_on_c, 0, 68, 0
1, 77147, Note_on_c, 0, 73, 50
1, 77222, Note_on_c, 0, 73, 0
1, 77222, Note_on_c, 0, 68, 58
1, 77297, Note_on_c, 0, 68, 0
1, 77297, Note_on_c, 0, 65, 50
1, 77372, Note_on_c, 0, 65, 0
1, 77372, Note_on_c, 0, 68, 58
1, 77471, Control_c, 0, 64, 0
1, 77532, Note_on_c, 0, 68, 0
1, 77692, Note_on_c, 0, 75, 58
1, 77692, Note_on_c, 0, 53, 0
1, 77692, Note_on_c, 0, 61, 0
1, 77695, Note_on_c, 0, 56, 0
1, 77695, Note_on_c, 0, 39, 58
1, 77702, Control_c, 0, 64, 127
1, 77767, Note_on_c, 0, 75, 0
1, 77767, Note_on_c, 0, 79, 50
1, 77842, Note_on_c, 0, 79, 0
1, 77842, Note_on_c, 0, 75, 58
1, 77917, Note_on_c, 0, 75, 0
1, 77917, Note_on_c, 0, 70, 50
1, 77917, Note_on_c, 0, 39, 0
1, 77992, Note_on_c, 0, 70, 0
1, 77992, Note_on_c, 0, 70, 58
1, 77992, Note_on_c, 0, 61, 52
1, 77995, Note_on_c, 0, 58, 45
1, 77995, Note_on_c, 0, 51, 45
1, 78067, Note_on_c, 0, 70, 0
1, 78067, Note_on_c, 0, 75, 50
1, 78142, Note_on_c, 0, 75, 0
1, 78142, Note_on_c, 0, 70, 58
1, 78217, Note_on_c, 0, 70, 0
1, 78217, Note_on_c, 0, 67, 50
1, 78291, Note_on_c, 0, 67, 0
1, 78291, Note_on_c, 0, 70, 58
1, 78357, Control_c, 0, 64, 0
1, 78452, Note_on_c, 0, 70, 0
1, 78613, Note_on_c, 0, 75, 58
1, 78613, Note_on_c, 0, 51, 0
1, 78613, Note_on_c, 0, 58, 0
1, 78616, Note_on_c, 0, 61, 0
1, 78616, Note_on_c, 0, 44, 58
1, 78626, Control_c, 0, 64, 127
1, 78688, Note_on_c, 0, 75, 0
1, 78688, Note_on_c, 0, 80, 50
1, 78763, Note_on_c, 0, 80, 0
1, 78763, Note_on_c, 0, 75, 58
1, 78838, Note_on_c, 0, 75, 0
1, 78838, Note_on_c, 0, 72, 50
1, 78838, Note_on_c, 0, 44, 0
1, 78914, Note_on_c, 0, 72, 0
1, 78914, Note_on_c, 0, 72, 58
1, 78914, Note_on_c, 0, 60, 54
1, 78917, Note_on_c, 0, 51, 47
1, 78917, Note_on_c, 0, 56, 47
1, 78989, Note_on_c, 0, 72, 0
1, 78989, Note_on_c, 0, 75, 50
1, 79064, Note_on_c, 0, 75, 0
1, 79064, Note_on_c, 0, 72, 58
1, 79139, Note_on_c, 0, 72, 0
1, 79139, Note_on_c, 0, 68, 50
1, 79214, Note_on_c, 0, 68, 0
1, 79214, Note_on_c, 0, 72, 58
1, 79285, Control_c, 0, 64, 0
1, 79387, Note_on_c, 0, 72, 0
1, 79560, Note_on_c, 0, 84, 74
1, 79560, Note_on_c, 0, 56, 0
1, 79560, Note_on_c, 0, 51, 0
1, 79563, Note_on_c, 0, 60, 0
1, 79563, Note_on_c, 0, 44, 70
1, 79573, Control_c, 0, 64, 127
1, 79636, Note_on_c, 0, 84, 0
1, 79636, Note_on_c, 0, 87, 64
1, 79711, Note_on_c, 0, 87, 0
1, 79711, Note_on_c, 0, 84, 74
1, 79786, Note_on_c, 0, 84, 0
1, 79786, Note_on_c, 0, 80, 64
1, 79786, Note_on_c, 0, 44, 0
1, 79861, Note_on_c, 0, 80, 0
1, 79861, Note_on_c, 0, 80, 74
1, 79861, Note_on_c, 0, 54, 51
1, 79864, Note_on_c, 0, 56, 51
1, 79864, Note_on_c, 0, 60, 59
1, 79936, Note_on_c, 0, 80, 0
1, 79936, Note_on_c, 0, 84, 64
1, 80011, Note_on_c, 0, 84, 0
1, 80011, Note_on_c, 0, 80, 74
1, 80086, Note_on_c, 0, 80, 0
1, 80086, Note_on_c, 0, 75, 64
1, 80162, Note_on_c, 0, 75, 0
1, 80162, Note_on_c, 0, 80, 74
1, 80289, Control_c, 0, 64, 0
1, 80322, Note_on_c, 0, 80, 0
1, 80482, Note_on_c, 0, 85, 82
1, 80482, Note_on_c, 0, 60, 0
1, 80482, Note_on_c, 0, 56, 0
1, 80485, Note_on_c, 0, 54, 0
1, 80485, Note_on_c, 0, 49, 82
1, 80492, Control_c, 0, 64, 127
1, 80558, Note_on_c, 0, 85, 0
1, 80558, Note_on_c, 0, 89, 71
1, 80633, Note_on_c, 0, 89, 0
1, 80633, Note_on_c, 0, 85, 82
1, 80709, Note_on_c, 0, 85, 0
1, 80709, Note_on_c, 0, 80, 71
1, 80709, Note_on_c, 0, 49, 0
1, 80784, Note_on_c, 0, 80, 0
1, 80784, Note_on_c, 0, 80, 82
1, 80784, Note_on_c, 0, 61, 72
1, 80787, Note_on_c, 0, 53, 62
1, 80787, Note_on_c, 0, 56, 62
1, 80859, Note_on_c, 0, 80, 0
1, 80859, Note_on_c, 0, 85, 71
1, 80935, Note_on_c, 0, 85, 0
1, 80935, Note_on_c, 0, 80, 82
1, 81010, Note_on_c, 0, 80, 0
1, 81010, Note_on_c, 0, 77, 71
1, 81086, Note_on_c, 0, 77, 0
1, 81086, Note_on_c, 0, 80, 82
1, 81217, Control_c, 0, 64, 0
1, 81246, Note_on_c, 0, 80, 0
1, 81406, Note_on_c, 0, 87, 94
1, 81406, Note_on_c, 0, 56, 0
1, 81406, Note_on_c, 0, 53, 0
1, 81409, Note_on_c, 0, 61, 0
1, 81409, Note_on_c, 0, 39, 94
1, 81424, Control_c, 0, 64, 127
1, 81482, Note_on_c, 0, 87, 0
1, 81482, Note_on_c, 0, 91, 81
1, 81557, Note_on_c, 0, 91, 0
1, 81557, Note_on_c, 0, 87, 94
1, 81632, Note_on_c, 0, 87, 0
1, 81632, Note_on_c, 0, 82, 81
1, 81632, Note_on_c, 0, 39, 0
1, 81707, Note_on_c, 0, 82, 0
1, 81707, Note_on_c, 0, 82, 94
1, 81707, Note_on_c, 0, 61, 83
1, 81710, Note_on_c, 0, 51, 72
1, 81710, Note_on_c, 0, 58, 72
1, 81782, Note_on_c, 0, 82, 0
1, 81782, Note_on_c, 0, 87, 81
1, 81857, Note_on_c, 0, 87, 0
1, 81857, Note_on_c, 0, 82, 94
1, 81932, Note_on_c, 0, 82, 0
1, 81932, Note_on_c, 0, 79, 81
1, 82007, Note_on_c, 0, 79, 0
1, 82007, Note_on_c, 0, 82, 94
1, 82144, Control_c, 0, 64, 0
1, 82168, Note_on_c, 0, 82, 0
1, 82328, Note_on_c, 0, 87, 101
1, 82328, Note_on_c, 0, 58, 0
1, 82328, Note_on_c, 0, 51, 0
1, 82331, Note_on_c, 0, 61, 0
1, 82331, Note_on_c, 0, 44, 98
1, 82341, Control_c, 0, 64, 127
1, 82403, Note_on_c, 0, 87, 0
1, 82403, Note_on_c, 0, 92, 86
1, 82478, Note_on_c, 0, 92, 0
1, 82478, Note_on_c, 0, 87, 101
1, 82553, Note_on_c, 0, 87, 0
1, 82553, Note_on_c, 0, 84, 86
1, 82553, Note_on_c, 0, 44, 0
1, 82628, Note_on_c, 0, 84, 0
1, 82628, Note_on_c, 0, 84, 101
1, 82628, Note_on_c, 0, 60, 86
1, 82631, Note_on_c, 0, 51, 74
1, 82631, Note_on_c, 0, 56, 74
1, 82703, Note_on_c, 0, 84, 0
1, 82703, Note_on_c, 0, 87, 86
1, 82778, Note_on_c, 0, 87, 0
1, 82778, Note_on_c, 0, 84, 101
1, 82853, Note_on_c, 0, 84, 0
1, 82853, Note_on_c, 0, 80, 86
1, 82928, Note_on_c, 0, 80, 0
1, 82928, Note_on_c, 0, 84, 101
1, 83030, Control_c, 0, 64, 0
1, 83102, Note_on_c, 0, 84, 0
1, 83275, Note_on_c, 0, 72, 58
1, 83275, Note_on_c, 0, 56, 0
1, 83275, Note_on_c, 0, 51, 0
1, 83278, Note_on_c, 0, 60, 0
1, 83278, Note_on_c, 0, 51, 70
1, 83278, Note_on_c, 0, 44, 50
1, 83294, Control_c, 0, 64, 127
1, 83356, Note_on_c, 0, 72, 0
1, 83356, Note_on_c, 0, 75, 50
1, 83436, Note_on_c, 0, 75, 0
1, 83436, Note_on_c, 0, 72, 58
1, 83516, Note_on_c, 0, 72, 0
1, 83516, Note_on_c, 0, 68, 50
1, 83596, Note_on_c, 0, 68, 0
1, 83596, Note_on_c, 0, 68, 58
1, 83596, Note_on_c, 0, 51, 0
1, 83599, Note_on_c, 0, 56, 82
1, 83671, Note_on_c, 0, 68, 0
1, 83671, Note_on_c, 0, 72, 50
1, 83745, Note_on_c, 0, 72, 0
1, 83745, Note_on_c, 0, 68, 58
1, 83820, Note_on_c, 0, 68, 0
1, 83820, Note_on_c, 0, 63, 50
1, 83895, Note_on_c, 0, 63, 0
1, 83895, Note_on_c, 0, 68, 58
1, 84045, Note_on_c, 0, 68, 0
1, 84045, Note_on_c, 0, 56, 0
1, 84045, Note_on_c, 0, 55, 70
1, 84195, Note_on_c, 0, 73, 58
1, 84195, Note_on_c, 0, 55, 0
1, 84195, Note_on_c, 0, 44, 0
1, 84198, Note_on_c, 0, 49, 50
1, 84198, Note_on_c, 0, 53, 70
1, 84198, Control_c, 0, 64, 0
1, 84275, Note_on_c, 0, 73, 0
1, 84275, Note_on_c, 0, 77, 50
1, 84293, Control_c, 0, 64, 127
1, 84355, Note_on_c, 0, 77, 0
1, 84355, Note_on_c, 0, 73, 58
1, 84435, Note_on_c, 0, 73, 0
1, 84435, Note_on_c, 0, 68, 50
1, 84515, Note_on_c, 0, 68, 0
1, 84515, Note_on_c, 0, 68, 58
1, 84515, Note_on_c, 0, 53, 0
1, 84518, Note_on_c, 0, 61, 82
1, 84589, Note_on_c, 0, 68, 0
1, 84589, Note_on_c, 0, 73, 50
1, 84664, Note_on_c, 0, 73, 0
1, 84664, Note_on_c, 0, 68, 58
1, 84739, Note_on_c, 0, 68, 0
1, 84739, Note_on_c, 0, 65, 50
1, 84814, Note_on_c, 0, 65, 0
1, 84814, Note_on_c, 0, 68, 58
1, 84964, Note_on_c, 0, 68, 0
1, 84964, Note_on_c, 0, 61, 0
1, 84964, Note_on_c, 0, 60, 70
1, 85114, Note_on_c, 0, 75, 58
1, 85114, Note_on_c, 0, 60, 0
1, 85114, Note_on_c, 0, 49, 0
1, 85117, Note_on_c, 0, 51, 50
1, 85117, Note_on_c, 0, 58, 70
1, 85117, Control_c, 0, 64, 0
1, 85194, Note_on_c, 0, 75, 0
1, 85194, Note_on_c, 0, 79, 50
1, 85217, Control_c, 0, 64, 127
1, 85274, Note_on_c, 0, 79, 0
1, 85274, Note_on_c, 0, 75, 58
1, 85355, Note_on_c, 0, 75, 0
1, 85355, Note_on_c, 0, 70, 50
1, 85435, Note_on_c, 0, 70, 0
1, 85435, Note_on_c, 0, 70, 58
1, 85435, Note_on_c, 0, 58, 0
1, 85438, Note_on_c, 0, 63, 82
1, 85510, Note_on_c, 0, 70, 0
1, 85510, Note_on_c, 0, 75, 50
1, 85585, Note_on_c, 0, 75, 0
1, 85585, Note_on_c, 0, 70, 58
1, 85660, Note_on_c, 0, 70, 0
1, 85660, Note_on_c, 0, 67, 50
1, 85734, Note_on_c, 0, 67, 0
1, 85734, Note_on_c, 0, 70, 58
1, 85884, Note_on_c, 0, 70, 0
1, 85884, Note_on_c, 0, 63, 0
1, 85884, Note_on_c, 0, 61, 70
1, 86034, Note_on_c, 0, 75, 58
1, 86034, Note_on_c, 0, 61, 0
1, 86034, Note_on_c, 0, 51, 0
1, 86037, Note_on_c, 0, 56, 50
1, 86037, Note_on_c, 0, 60, 70
1, 86037, Control_c, 0, 64, 0
1, 86114, Note_on_c, 0, 75, 0
1, 86114, Note_on_c, 0, 80, 50
1, 86133, Control_c, 0, 64, 127
1, 86194, Note_on_c, 0, 80, 0
1, 86194, Note_on_c, 0, 75, 58
1, 86275, Note_on_c, 0, 75, 0
1, 86275, Note_on_c, 0, 72, 50
1, 86355, Note_on_c, 0, 72, 0
1, 86355, Note_on_c, 0, 72, 58
1, 86355, Note_on_c, 0, 60, 0
1, 86358, Note_on_c, 0, 63, 82
1, 86430, Note_on_c, 0, 72, 0
1, 86430, Note_on_c, 0, 75, 50
1, 86505, Note_on_c, 0, 75, 0
1, 86505, Note_on_c, 0, 72, 58
1, 86580, Note_on_c, 0, 72, 0
1, 86580, Note_on_c, 0, 68, 50
1, 86655, Note_on_c, 0, 68, 0
1, 86655, Note_on_c, 0, 72, 58
1, 86787, Control_c, 0, 64, 0
1, 86804, Note_on_c, 0, 72, 0
1, 86954, Note_on_c, 0, 84, 78
1, 86954, Note_on_c, 0, 63, 0
1, 86954, Note_on_c, 0, 56, 0
1, 86957, Note_on_c, 0, 44, 67
1, 86957, Note_on_c, 0, 51, 78
1, 86969, Control_c, 0, 64, 127
1, 87045, Note_on_c, 0, 84, 0
1, 87045, Note_on_c, 0, 87, 67
1, 87135, Note_on_c, 0, 87, 0
1, 87135, Note_on_c, 0, 84, 78
1, 87226, Note_on_c, 0, 84, 0
1, 87226, Note_on_c, 0, 80, 67
1, 87316, Note_on_c, 0, 80, 0
1, 87316, Note_on_c, 0, 80, 78
1, 87316, Note_on_c, 0, 51, 0
1, 87319, Note_on_c, 0, 56, 88
1, 87390, Note_on_c, 0, 80, 0
1, 87390, Note_on_c, 0, 84, 67
1, 87465, Note_on_c, 0, 84, 0
1, 87465, Note_on_c, 0, 80, 78
1, 87539, Note_on_c, 0, 80, 0
1, 87539, Note_on_c, 0, 75, 67
1, 87614, Note_on_c, 0, 75, 0
1, 87614, Note_on_c, 0, 80, 78
1, 87763, Note_on_c, 0, 80, 0
1, 87763, Note_on_c, 0, 56, 0
1, 87763, Note_on_c, 0, 55, 78
1, 87913, Note_on_c, 0, 85, 78
1, 87913, Note_on_c, 0, 55, 0
1, 87913, Note_on_c, 0, 44, 0
1, 87916, Note_on_c, 0, 49, 67
1, 87916, Note_on_c, 0, 53, 78
1, 87916, Control_c, 0, 64, 0
1, 87994, Note_on_c, 0, 85, 0
1, 87994, Note_on_c, 0, 89, 67
1, 88013, Control_c, 0, 64, 127
1, 88075, Note_on_c, 0, 89, 0
1, 88075, Note_on_c, 0, 85, 78
1, 88157, Note_on_c, 0, 85, 0
1, 88157, Note_on_c, 0, 80, 67
1, 88239, Note_on_c, 0, 80, 0
1, 88239, Note_on_c, 0, 80, 78
1, 88239, Note_on_c, 0, 53, 0
1, 88242, Note_on_c, 0, 61, 89
1, 88314, Note_on_c, 0, 80, 0
1, 88314, Note_on_c, 0, 85, 67
1, 88389, Note_on_c, 0, 85, 0
1, 88389, Note_on_c, 0, 80, 78
1, 88463, Note_on_c, 0, 80, 0
1, 88463, Note_on_c, 0, 77, 67
1, 88538, Note_on_c, 0, 77, 0
1, 88538, Note_on_c, 0, 80, 78
1, 88688, Note_on_c, 0, 80, 0
1, 88688, Note_on_c, 0, 61, 0
1, 88688, Note_on_c, 0, 60, 78
1, 88838, Note_on_c, 0, 87, 78
1, 88838, Note_on_c, 0, 60, 0
1, 88838, Note_on_c, 0, 49, 0
1, 88841, Note_on_c, 0, 51, 69
1, 88841, Note_on_c, 0, 58, 81
1, 88841, Control_c, 0, 64, 0
1, 88916, Note_on_c, 0, 87, 0
1, 88916, Note_on_c, 0, 91, 67
1, 88930, Control_c, 0, 64, 127
1, 88995, Note_on_c, 0, 91, 0
1, 88995, Note_on_c, 0, 87, 78
1, 89074, Note_on_c, 0, 87, 0
1, 89074, Note_on_c, 0, 82, 67
1, 89153, Note_on_c, 0, 82, 0
1, 89153, Note_on_c, 0, 82, 78
1, 89153, Note_on_c, 0, 58, 0
1, 89156, Note_on_c, 0, 63, 91
1, 89228, Note_on_c, 0, 82, 0
1, 89228, Note_on_c, 0, 87, 67
1, 89303, Note_on_c, 0, 87, 0
1, 89303, Note_on_c, 0, 82, 78
1, 89378, Note_on_c, 0, 82, 0
1, 89378, Note_on_c, 0, 79, 67
1, 89452, Note_on_c, 0, 79, 0
1, 89452, Note_on_c, 0, 82, 78
1, 89602, Note_on_c, 0, 82, 0
1, 89602, Note_on_c, 0, 63, 0
1, 89602, Note_on_c, 0, 61, 78
1, 89752, Note_on_c, 0, 87, 90
1, 89752, Note_on_c, 0, 61, 0
1, 89752, Note_on_c, 0, 51, 0
1, 89755, Note_on_c, 0, 60, 86
1, 89755, Note_on_c, 0, 56, 74
1, 89755, Control_c, 0, 64, 0
1, 89829, Note_on_c, 0, 87, 0
1, 89829, Note_on_c, 0, 92, 78
1, 89847, Control_c, 0, 64, 127
1, 89906, Note_on_c, 0, 92, 0
1, 89906, Note_on_c, 0, 87, 90
1, 89983, Note_on_c, 0, 87, 0
1, 89983, Note_on_c, 0, 84, 78
1, 90060, Note_on_c, 0, 84, 0
1, 90060, Note_on_c, 0, 84, 90
1, 90060, Note_on_c, 0, 60, 0
1, 90063, Note_on_c, 0, 63, 96
1, 90135, Note_on_c, 0, 84, 0
1, 90135, Note_on_c, 0, 87, 78
1, 90210, Note_on_c, 0, 87, 0
1, 90210, Note_on_c, 0, 84, 90
1, 90285, Note_on_c, 0, 84, 0
1, 90285, Note_on_c, 0, 80, 78
1, 90360, Note_on_c, 0, 80, 0
1, 90360, Note_on_c, 0, 84, 90
1, 90510, Note_on_c, 0, 84, 0
1, 90510, Note_on_c, 0, 63, 0
1, 90510, Note_on_c, 0, 60, 90
1, 90659, Note_on_c, 0, 87, 94
1, 90659, Note_on_c, 0, 60, 0
1, 90659, Note_on_c, 0, 56, 0
1, 90662, Note_on_c, 0, 58, 90
1, 90662, Note_on_c, 0, 51, 70
1, 90662, Control_c, 0, 64, 0
1, 90732, Control_c, 0, 64, 127
1, 90736, Note_on_c, 0, 87, 0
1, 90736, Note_on_c, 0, 91, 81
1, 90813, Note_on_c, 0, 91, 0
1, 90813, Note_on_c, 0, 87, 94
1, 90889, Note_on_c, 0, 87, 0
1, 90889, Note_on_c, 0, 82, 81
1, 90966, Note_on_c, 0, 82, 0
1, 90966, Note_on_c, 0, 82, 94
1, 90966, Note_on_c, 0, 58, 0
1, 90969, Note_on_c, 0, 63, 98
1, 91041, Note_on_c, 0, 82, 0
1, 91041, Note_on_c, 0, 87, 81
1, 91116, Note_on_c, 0, 87, 0
1, 91116, Note_on_c, 0, 82, 94
1, 91191, Note_on_c, 0, 82, 0
1, 91191, Note_on_c, 0, 79, 81
1, 91266, Note_on_c, 0, 79, 0
1, 91266, Note_on_c, 0, 82, 94
1, 91415, Note_on_c, 0, 82, 0
1, 91415, Note_on_c, 0, 63, 0
1, 91415, Note_on_c, 0, 61, 90
1, 91565, Note_on_c, 0, 87, 100
1, 91565, Note_on_c, 0, 61, 0
1, 91565, Note_on_c, 0, 51, 0
1, 91568, Note_on_c, 0, 56, 83
1, 91568, Note_on_c, 0, 60, 96
1, 91568, Control_c, 0, 64, 0
1, 91642, Note_on_c, 0, 87, 0
1, 91642, Note_on_c, 0, 92, 86
1, 91673, Control_c, 0, 64, 127
1, 91719, Note_on_c, 0, 92, 0
1, 91719, Note_on_c, 0, 87, 100
1, 91796, Note_on_c, 0, 87, 0
1, 91796, Note_on_c, 0, 84, 86
1, 91873, Note_on_c, 0, 84, 0
1, 91873, Note_on_c, 0, 84, 100
1, 91873, Note_on_c, 0, 60, 0
1, 91876, Note_on_c, 0, 63, 103
1, 91948, Note_on_c, 0, 84, 0
1, 91948, Note_on_c, 0, 87, 86
1, 92022, Note_on_c, 0, 87, 0
1, 92022, Note_on_c, 0, 84, 100
1, 92097, Note_on_c, 0, 84, 0
1, 92097, Note_on_c, 0, 80, 86
1, 92172, Note_on_c, 0, 80, 0
1, 92172, Note_on_c, 0, 84, 100
1, 92322, Note_on_c, 0, 84, 0
1, 92322, Note_on_c, 0, 63, 0
1, 92322, Note_on_c, 0, 60, 95
1, 92472, Note_on_c, 0, 87, 106
1, 92472, Note_on_c, 0, 60, 0
1, 92472, Note_on_c, 0, 56, 0
1, 92475, Note_on_c, 0, 58, 99
1, 92475, Note_on_c, 0, 51, 85
1, 92475, Control_c, 0, 64, 0
1, 92549, Note_on_c, 0, 87, 0
1, 92549, Note_on_c, 0, 91, 91
1, 92571, Control_c, 0, 64, 127
1, 92626, Note_on_c, 0, 91, 0
1, 92626, Note_on_c, 0, 87, 106
1, 92703, Note_on_c, 0, 87, 0
1, 92703, Note_on_c, 0, 82, 91
1, 92780, Note_on_c, 0, 82, 0
1, 92780, Note_on_c, 0, 82, 106
1, 92780, Note_on_c, 0, 58, 0
1, 92783, Note_on_c, 0, 63, 105
1, 92855, Note_on_c, 0, 82, 0
1, 92855, Note_on_c, 0, 87, 91
1, 92930, Note_on_c, 0, 87, 0
1, 92930, Note_on_c, 0, 82, 106
1, 93005, Note_on_c, 0, 82, 0
1, 93005, Note_on_c, 0, 79, 91
1, 93080, Note_on_c, 0, 79, 0
1, 93080, Note_on_c, 0, 82, 106
1, 93230, Note_on_c, 0, 82, 0
1, 93230, Note_on_c, 0, 63, 0
1, 93230, Note_on_c, 0, 61, 97
1, 93379, Note_on_c, 0, 87, 106
1, 93379, Note_on_c, 0, 61, 0
1, 93379, Note_on_c, 0, 51, 0
1, 93382, Note_on_c, 0, 56, 91
1, 93382, Note_on_c, 0, 60, 106
1, 93382, Control_c, 0, 64, 0
1, 93452, Note_on_c, 0, 87, 0
1, 93452, Note_on_c, 0, 92, 91
1, 93452, Control_c, 0, 64, 127
1, 93524, Note_on_c, 0, 92, 0
1, 93524, Note_on_c, 0, 87, 106
1, 93596, Note_on_c, 0, 87, 0
1, 93596, Note_on_c, 0, 84, 91
1, 93669, Note_on_c, 0, 84, 0
1, 93669, Note_on_c, 0, 84, 106
1, 93669, Note_on_c, 0, 60, 0
1, 93672, Note_on_c, 0, 56, 0
1, 93741, Note_on_c, 0, 84, 0
1, 93741, Note_on_c, 0, 87, 91
1, 93814, Note_on_c, 0, 87, 0
1, 93814, Note_on_c, 0, 84, 106
1, 93886, Note_on_c, 0, 84, 0
1, 93886, Note_on_c, 0, 80, 91
1, 93959, Note_on_c, 0, 80, 0
1, 93959, Note_on_c, 0, 80, 106
1, 94032, Note_on_c, 0, 80, 0
1, 94032, Note_on_c, 0, 84, 91
1, 94105, Note_on_c, 0, 84, 0
1, 94105, Note_on_c, 0, 80, 106
1, 94178, Note_on_c, 0, 80, 0
1, 94178, Note_on_c, 0, 75, 91
1, 94251, Note_on_c, 0, 75, 0
1, 94251, Note_on_c, 0, 75, 106
1, 94324, Note_on_c, 0, 75, 0
1, 94324, Note_on_c, 0, 80, 91
1, 94397, Note_on_c, 0, 80, 0
1, 94397, Note_on_c, 0, 75, 106
1, 94470, Note_on_c, 0, 75, 0
1, 94470, Note_on_c, 0, 72, 91
1, 94544, Note_on_c, 0, 72, 0
1, 94544, Note_on_c, 0, 72, 106
1, 94617, Note_on_c, 0, 72, 0
1, 94617, Note_on_c, 0, 75, 91
1, 94691, Note_on_c, 0, 75, 0
1, 94691, Note_on_c, 0, 72, 106
1, 94765, Note_on_c, 0, 72, 0
1, 94765, Note_on_c, 0, 68, 91
1, 94838, Note_on_c, 0, 68, 0
1, 94838, Note_on_c, 0, 68, 106
1, 94912, Note_on_c, 0, 68, 0
1, 94912, Note_on_c, 0, 72, 91
1, 94986, Note_on_c, 0, 72, 0
1, 94986, Note_on_c, 0, 68, 106
1, 95060, Note_on_c, 0, 68, 0
1, 95060, Note_on_c, 0, 63, 90
1, 95134, Note_on_c, 0, 63, 0
1, 95134, Note_on_c, 0, 75, 105
1, 95134, Control_c, 0, 64, 0
1, 95137, Note_on_c, 0, 63, 109
1, 95207, Note_on_c, 0, 75, 0
1, 95207, Note_on_c, 0, 80, 89
1, 95224, Control_c, 0, 64, 127
1, 95279, Note_on_c, 0, 80, 0
1, 95279, Note_on_c, 0, 75, 103
1, 95279, Note_on_c, 0, 63, 0
1, 95351, Note_on_c, 0, 75, 0
1, 95351, Note_on_c, 0, 72, 87
1, 95423, Note_on_c, 0, 72, 0
1, 95423, Note_on_c, 0, 72, 101
1, 95423, Note_on_c, 0, 60, 109
1, 95496, Note_on_c, 0, 72, 0
1, 95496, Note_on_c, 0, 75, 86
1, 95568, Note_on_c, 0, 75, 0
1, 95568, Note_on_c, 0, 72, 99
1, 95568, Note_on_c, 0, 60, 0
1, 95641, Note_on_c, 0, 72, 0
1, 95641, Note_on_c, 0, 68, 85
1, 95714, Note_on_c, 0, 68, 0
1, 95714, Note_on_c, 0, 68, 97
1, 95714, Note_on_c, 0, 56, 103
1, 95786, Note_on_c, 0, 68, 0
1, 95786, Note_on_c, 0, 72, 83
1, 95859, Note_on_c, 0, 72, 0
1, 95859, Note_on_c, 0, 68, 95
1, 95859, Note_on_c, 0, 56, 0
1, 95932, Note_on_c, 0, 68, 0
1, 95932, Note_on_c, 0, 63, 81
1, 96005, Note_on_c, 0, 63, 0
1, 96005, Note_on_c, 0, 63, 93
1, 96005, Note_on_c, 0, 51, 98
1, 96078, Note_on_c, 0, 63, 0
1, 96078, Note_on_c, 0, 68, 80
1, 96151, Note_on_c, 0, 68, 0
1, 96151, Note_on_c, 0, 63, 89
1, 96151, Note_on_c, 0, 51, 0
1, 96224, Note_on_c, 0, 63, 0
1, 96224, Note_on_c, 0, 60, 78
1, 96298, Note_on_c, 0, 60, 0
1, 96298, Note_on_c, 0, 60, 87
1, 96298, Note_on_c, 0, 48, 94
1, 96371, Note_on_c, 0, 60, 0
1, 96371, Note_on_c, 0, 63, 76
1, 96444, Note_on_c, 0, 63, 0
1, 96444, Note_on_c, 0, 60, 85
1, 96444, Note_on_c, 0, 48, 0
1, 96518, Note_on_c, 0, 60, 0
1, 96518, Note_on_c, 0, 56, 72
1, 96591, Note_on_c, 0, 56, 0
1, 96591, Note_on_c, 0, 63, 80
1, 96591, Note_on_c, 0, 51, 90
1, 96665, Note_on_c, 0, 63, 0
1, 96665, Note_on_c, 0, 68, 67
1, 96739, Note_on_c, 0, 68, 0
1, 96739, Note_on_c, 0, 63, 75
1, 96739, Note_on_c, 0, 51, 0
1, 96813, Note_on_c, 0, 63, 0
1, 96813, Note_on_c, 0, 60, 63
1, 96887, Note_on_c, 0, 60, 0
1, 96887, Note_on_c, 0, 56, 70
1, 96887, Note_on_c, 0, 44, 82
1, 96890, Control_c, 0, 64, 0
1, 96952, Control_c, 0, 64, 127
1, 96961, Note_on_c, 0, 56, 0
1, 96961, Note_on_c, 0, 60, 61
1, 97035, Note_on_c, 0, 60, 0
1, 97035, Note_on_c, 0, 56, 70
1, 97109, Note_on_c, 0, 56, 0
1, 97109, Note_on_c, 0, 51, 61
1, 97183, Note_on_c, 0, 51, 0
1, 97183, Note_on_c, 0, 56, 70
1, 97183, Note_on_c, 0, 44, 0
1, 97257, Note_on_c, 0, 56, 0
1, 97257, Note_on_c, 0, 60, 61
1, 97331, Note_on_c, 0, 60, 0
1, 97331, Note_on_c, 0, 56, 70
1, 97405, Note_on_c, 0, 56, 0
1, 97405, Note_on_c, 0, 51, 61
1, 97480, Note_on_c, 0, 51, 0
1, 97480, Note_on_c, 0, 56, 70
1, 97554, Note_on_c, 0, 56, 0
1, 97554, Note_on_c, 0, 60, 61
1, 97628, Note_on_c, 0, 60, 0
1, 97628, Note_on_c, 0, 56, 70
1, 97702, Note_on_c, 0, 56, 0
1, 97702, Note_on_c, 0, 51, 61
1, 97776, Note_on_c, 0, 51, 0
1, 97776, Note_on_c, 0, 56, 70
1, 97850, Note_on_c, 0, 56, 0
1, 97850, Note_on_c, 0, 60, 61
1, 97924, Note_on_c, 0, 60, 0
1, 97924, Note_on_c, 0, 56, 70
1, 97999, Note_on_c, 0, 56, 0
1, 97999, Note_on_c, 0, 51, 61
1, 98073, Note_on_c, 0, 51, 0
1, 98073, Note_on_c, 0, 56, 70
1, 98147, Note_on_c, 0, 56, 0
1, 98147, Note_on_c, 0, 60, 61
1, 98221, Note_on_c, 0, 60, 0
1, 98221, Note_on_c, 0, 56, 70
1, 98295, Note_on_c, 0, 56, 0
1, 98295, Note_on_c, 0, 51, 61
1, 98369, Note_on_c, 0, 51, 0
1, 98369, Note_on_c, 0, 56, 70
1, 98443, Note_on_c, 0, 56, 0
1, 98443, Note_on_c, 0, 60, 61
1, 98518, Note_on_c, 0, 60, 0
1, 98518, Note_on_c, 0, 56, 70
1, 98592, Note_on_c, 0, 56, 0
1, 98592, Note_on_c, 0, 51, 61
1, 98666, Note_on_c, 0, 51, 0
1, 98666, Note_on_c, 0, 68, 70
1, 98666, Note_on_c, 0, 63, 70
1, 98669, Note_on_c, 0, 36, 70
1, 98669, Note_on_c, 0, 48, 70
1, 98669, Note_on_c, 0, 44, 70
1, 98672, Control_c, 0, 64, 0
1, 98741, Note_on_c, 0, 63, 0
1, 98741, Note_on_c, 0, 66, 61
1, 98741, Control_c, 0, 64, 127
1, 98816, Note_on_c, 0, 66, 0
1, 98816, Note_on_c, 0, 63, 69
1, 98892, Note_on_c, 0, 63, 0
1, 98892, Note_on_c, 0, 56, 59
1, 98968, Note_on_c, 0, 56, 0
1, 98968, Note_on_c, 0, 63, 67
1, 99045, Note_on_c, 0, 63, 0
1, 99045, Note_on_c, 0, 66, 57
1, 99122, Note_on_c, 0, 66, 0
1, 99122, Note_on_c, 0, 63, 65
1, 99200, Note_on_c, 0, 63, 0
1, 99200, Note_on_c, 0, 56, 56
1, 99278, Note_on_c, 0, 56, 0
1, 99278, Note_on_c, 0, 63, 64
1, 99356, Note_on_c, 0, 63, 0
1, 99356, Note_on_c, 0, 66, 55
1, 99435, Note_on_c, 0, 66, 0
1, 99435, Note_on_c, 0, 63, 62
1, 99515, Note_on_c, 0, 63, 0
1, 99515, Note_on_c, 0, 56, 53
1, 99595, Note_on_c, 0, 56, 0
1, 99595, Note_on_c, 0, 63, 60
1, 99675, Note_on_c, 0, 63, 0
1, 99675, Note_on_c, 0, 66, 52
1, 99756, Note_on_c, 0, 66, 0
1, 99756, Note_on_c, 0, 63, 59
1, 99837, Note_on_c, 0, 63, 0
1, 99837, Note_on_c, 0, 56, 50
1, 99919, Note_on_c, 0, 56, 0
1, 99919, Note_on_c, 0, 63, 57
1, 100001, Note_on_c, 0, 63, 0
1, 100001, Note_on_c, 0, 66, 49
1, 100084, Note_on_c, 0, 66, 0
1, 100084, Note_on_c, 0, 63, 55
1, 100167, Note_on_c, 0, 63, 0
1, 100167, Note_on_c, 0, 56, 48
1, 100251, Note_on_c, 0, 56, 0
1, 100251, Note_on_c, 0, 63, 54
1, 100363, Note_on_c, 0, 63, 0
1, 100363, Note_on_c, 0, 66, 46
1, 100475, Note_on_c, 0, 66, 0
1, 100475, Note_on_c, 0, 63, 52
1, 100586, Note_on_c, 0, 63, 0
1, 100586, Note_on_c, 0, 56, 44
1, 100698, Note_on_c, 0, 56, 0
1, 100698, Note_on_c, 0, 68, 0
1, 100698, Note_on_c, 0, 68, 71
1, 100701, Note_on_c, 0, 44, 0
1, 100701, Note_on_c, 0, 48, 0
1, 100701, Note_on_c, 0, 36, 0
1, 100704, Note_on_c, 0, 37, 52
1, 100704, Control_c, 0, 64, 0
1, 100704, Control_c, 0, 91, 127
1, 100710, Control_c, 0, 91, 127
1, 100860, Control_c, 0, 64, 126
1, 100870, Note_on_c, 0, 56, 37
1, 100870, Note_on_c, 0, 64, 37
1, 100870, Note_on_c, 0, 37, 0
1, 100873, Note_on_c, 0, 52, 36
1, 100873, Note_on_c, 0, 49, 32
1, 100873, Note_on_c, 0, 44, 32
1, 101041, Note_on_c, 0, 64, 0
1, 101041, Note_on_c, 0, 56, 0
1, 101041, Note_on_c, 0, 56, 36
1, 101044, Note_on_c, 0, 64, 36
1, 101044, Note_on_c, 0, 44, 0
1, 101044, Note_on_c, 0, 49, 0
1, 101047, Note_on_c, 0, 52, 0
1, 101047, Note_on_c, 0, 44, 32
1, 101047, Note_on_c, 0, 49, 32
1, 101050, Note_on_c, 0, 52, 36
1, 101208, Note_on_c, 0, 64, 0
1, 101208, Note_on_c, 0, 56, 0
1, 101208, Note_on_c, 0, 56, 36
1, 101211, Note_on_c, 0, 64, 36
1, 101211, Note_on_c, 0, 52, 0
1, 101211, Note_on_c, 0, 49, 0
1, 101214, Note_on_c, 0, 44, 0
1, 101214, Note_on_c, 0, 44, 32
1, 101214, Note_on_c, 0, 49, 32
1, 101217, Note_on_c, 0, 52, 36
1, 101374, Note_on_c, 0, 64, 0
1, 101374, Note_on_c, 0, 56, 0
1, 101374, Note_on_c, 0, 56, 36
1, 101377, Note_on_c, 0, 64, 36
1, 101377, Note_on_c, 0, 52, 0
1, 101377, Note_on_c, 0, 49, 0
1, 101380, Note_on_c, 0, 44, 0
1, 101380, Note_on_c, 0, 44, 32
1, 101380, Note_on_c, 0, 49, 32
1, 101383, Note_on_c, 0, 52, 36
1, 101540, Note_on_c, 0, 64, 0
1, 101540, Note_on_c, 0, 56, 0
1, 101540, Note_on_c, 0, 56, 36
1, 101543, Note_on_c, 0, 64, 36
1, 101543, Note_on_c, 0, 52, 0
1, 101543, Note_on_c, 0, 49, 0
1, 101546, Note_on_c, 0, 44, 0
1, 101546, Note_on_c, 0, 44, 32
1, 101546, Note_on_c, 0, 49, 32
1, 101549, Note_on_c, 0, 52, 36
1, 101707, Note_on_c, 0, 64, 0
1, 101707, Note_on_c, 0, 56, 0
1, 101707, Note_on_c, 0, 68, 0
1, 101710, Note_on_c, 0, 68, 71
1, 101710, Note_on_c, 0, 52, 0
1, 101710, Note_on_c, 0, 49, 0
1, 101713, Note_on_c, 0, 44, 0
1, 101713, Note_on_c, 0, 44, 32
1, 101713, Note_on_c, 0, 49, 32
1, 101716, Note_on_c, 0, 52, 36
1, 101716, Control_c, 0, 64, 0
1, 101792, Control_c, 0, 64, 127
1, 101867, Note_on_c, 0, 56, 36
1, 101867, Note_on_c, 0, 64, 36
1, 101867, Note_on_c, 0, 52, 0
1, 101870, Note_on_c, 0, 49, 0
1, 101870, Note_on_c, 0, 44, 0
1, 101870, Note_on_c, 0, 44, 32
1, 101873, Note_on_c, 0, 49, 32
1, 101873, Note_on_c, 0, 52, 36
1, 102028, Note_on_c, 0, 64, 0
1, 102028, Note_on_c, 0, 56, 0
1, 102028, Note_on_c, 0, 68, 0
1, 102031, Note_on_c, 0, 69, 69
1, 102031, Note_on_c, 0, 52, 0
1, 102031, Note_on_c, 0, 49, 0
1, 102034, Note_on_c, 0, 44, 0
1, 102034, Note_on_c, 0, 44, 32
1, 102034, Note_on_c, 0, 49, 32
1, 102037, Note_on_c, 0, 52, 36
1, 102188, Note_on_c, 0, 57, 37
1, 102188, Note_on_c, 0, 64, 37
1, 102188, Note_on_c, 0, 52, 0
1, 102191, Note_on_c, 0, 49, 0
1, 102191, Note_on_c, 0, 44, 0
1, 102191, Note_on_c, 0, 44, 32
1, 102194, Note_on_c, 0, 49, 32
1, 102194, Note_on_c, 0, 52, 36
1, 102349, Note_on_c, 0, 64, 0
1, 102349, Note_on_c, 0, 57, 0
1, 102349, Note_on_c, 0, 69, 0
1, 102352, Note_on_c, 0, 68, 69
1, 102352, Note_on_c, 0, 52, 0
1, 102352, Note_on_c, 0, 49, 0
1, 102355, Note_on_c, 0, 44, 0
1, 102355, Note_on_c, 0, 44, 32
1, 102355, Note_on_c, 0, 49, 32
1, 102358, Note_on_c, 0, 52, 36
1, 102534, Note_on_c, 0, 56, 36
1, 102534, Note_on_c, 0, 64, 36
1, 102534, Note_on_c, 0, 52, 0
1, 102537, Note_on_c, 0, 49, 0
1, 102537, Note_on_c, 0, 44, 0
1, 102537, Note_on_c, 0, 49, 32
1, 102540, Note_on_c, 0, 44, 32
1, 102540, Note_on_c, 0, 52, 36
1, 102720, Note_on_c, 0, 64, 0
1, 102720, Note_on_c, 0, 56, 0
1, 102720, Note_on_c, 0, 68, 0
1, 102723, Note_on_c, 0, 69, 70
1, 102723, Note_on_c, 0, 52, 0
1, 102723, Note_on_c, 0, 44, 0
1, 102726, Note_on_c, 0, 49, 0
1, 102726, Note_on_c, 0, 36, 51
1, 102726, Control_c, 0, 64, 0
1, 102792, Control_c, 0, 64, 126
1, 102887, Note_on_c, 0, 57, 36
1, 102887, Note_on_c, 0, 66, 36
1, 102887, Note_on_c, 0, 36, 0
1, 102890, Note_on_c, 0, 51, 32
1, 102890, Note_on_c, 0, 54, 36
1, 102890, Note_on_c, 0, 44, 32
1, 103054, Note_on_c, 0, 66, 0
1, 103054, Note_on_c, 0, 57, 0
1, 103054, Note_on_c, 0, 57, 36
1, 103057, Note_on_c, 0, 66, 36
1, 103057, Note_on_c, 0, 44, 0
1, 103057, Note_on_c, 0, 54, 0
1, 103060, Note_on_c, 0, 51, 0
1, 103060, Note_on_c, 0, 44, 32
1, 103060, Note_on_c, 0, 51, 32
1, 103063, Note_on_c, 0, 54, 36
1, 103221, Note_on_c, 0, 66, 0
1, 103221, Note_on_c, 0, 57, 0
1, 103221, Note_on_c, 0, 57, 36
1, 103224, Note_on_c, 0, 66, 36
1, 103224, Note_on_c, 0, 54, 0
1, 103224, Note_on_c, 0, 51, 0
1, 103227, Note_on_c, 0, 44, 0
1, 103227, Note_on_c, 0, 44, 32
1, 103227, Note_on_c, 0, 51, 32
1, 103230, Note_on_c, 0, 54, 36
1, 103388, Note_on_c, 0, 66, 0
1, 103388, Note_on_c, 0, 57, 0
1, 103388, Note_on_c, 0, 57, 36
1, 103391, Note_on_c, 0, 66, 36
1, 103391, Note_on_c, 0, 54, 0
1, 103391, Note_on_c, 0, 51, 0
1, 103394, Note_on_c, 0, 44, 0
1, 103394, Note_on_c, 0, 44, 32
1, 103394, Note_on_c, 0, 51, 32
1, 103397, Note_on_c, 0, 54, 36
1, 103555, Note_on_c, 0, 66, 0
1, 103555, Note_on_c, 0, 57, 0
1, 103555, Note_on_c, 0, 57, 36
1, 103558, Note_on_c, 0, 66, 36
1, 103558, Note_on_c, 0, 54, 0
1, 103558, Note_on_c, 0, 51, 0
1, 103561, Note_on_c, 0, 44, 0
1, 103561, Note_on_c, 0, 44, 32
1, 103561, Note_on_c, 0, 51, 32
1, 103564, Note_on_c, 0, 54, 36
1, 103722, Note_on_c, 0, 66, 0
1, 103722, Note_on_c, 0, 57, 0
1, 103722, Note_on_c, 0, 69, 0
1, 103725, Note_on_c, 0, 68, 69
1, 103725, Note_on_c, 0, 54, 0
1, 103725, Note_on_c, 0, 51, 0
1, 103728, Note_on_c, 0, 44, 0
1, 103728, Note_on_c, 0, 44, 32
1, 103728, Note_on_c, 0, 51, 32
1, 103731, Note_on_c, 0, 54, 36
1, 103731, Control_c, 0, 64, 0
1, 103810, Control_c, 0, 64, 127
1, 103889, Note_on_c, 0, 56, 38
1, 103889, Note_on_c, 0, 66, 38
1, 103889, Note_on_c, 0, 54, 0
1, 103892, Note_on_c, 0, 51, 0
1, 103892, Note_on_c, 0, 44, 0
1, 103892, Note_on_c, 0, 44, 32
1, 103895, Note_on_c, 0, 51, 32
1, 103895, Note_on_c, 0, 54, 36
1, 104056, Note_on_c, 0, 66, 0
1, 104056, Note_on_c, 0, 56, 0
1, 104056, Note_on_c, 0, 56, 39
1, 104059, Note_on_c, 0, 66, 39
1, 104059, Note_on_c, 0, 54, 0
1, 104059, Note_on_c, 0, 51, 0
1, 104062, Note_on_c, 0, 44, 0
1, 104062, Note_on_c, 0, 44, 32
1, 104062, Note_on_c, 0, 51, 32
1, 104065, Note_on_c, 0, 54, 36
1, 104223, Note_on_c, 0, 66, 0
1, 104223, Note_on_c, 0, 56, 0
1, 104223, Note_on_c, 0, 56, 39
1, 104226, Note_on_c, 0, 66, 39
1, 104226, Note_on_c, 0, 54, 0
1, 104226, Note_on_c, 0, 51, 0
1, 104229, Note_on_c, 0, 44, 0
1, 104229, Note_on_c, 0, 44, 32
1, 104229, Note_on_c, 0, 51, 32
1, 104232, Note_on_c, 0, 54, 36
1, 104390, Note_on_c, 0, 66, 0
1, 104390, Note_on_c, 0, 56, 0
1, 104390, Note_on_c, 0, 56, 39
1, 104393, Note_on_c, 0, 66, 39
1, 104393, Note_on_c, 0, 54, 0
1, 104393, Note_on_c, 0, 51, 0
1, 104396, Note_on_c, 0, 44, 0
1, 104396, Note_on_c, 0, 51, 32
1, 104396, Note_on_c, 0, 44, 32
1, 104399, Note_on_c, 0, 54, 36
1, 104557, Note_on_c, 0, 66, 0
1, 104557, Note_on_c, 0, 56, 0
1, 104557, Note_on_c, 0, 56, 39
1, 104560, Note_on_c, 0, 66, 39
1, 104560, Note_on_c, 0, 54, 0
1, 104560, Note_on_c, 0, 44, 0
1, 104563, Note_on_c, 0, 51, 0
1, 104563, Note_on_c, 0, 44, 32
1, 104563, Note_on_c, 0, 51, 32
1, 104566, Note_on_c, 0, 54, 36
1, 104724, Note_on_c, 0, 66, 0
1, 104724, Note_on_c, 0, 56, 0
1, 104724, Note_on_c, 0, 68, 0
1, 104727, Note_on_c, 0, 68, 70
1, 104727, Note_on_c, 0, 54, 0
1, 104727, Note_on_c, 0, 51, 0
1, 104730, Note_on_c, 0, 44, 0
1, 104730, Note_on_c, 0, 37, 50
1, 104730, Control_c, 0, 64, 0
1, 104832, Control_c, 0, 64, 126
1, 104891, Note_on_c, 0, 56, 36
1, 104891, Note_on_c, 0, 64, 36
1, 104891, Note_on_c, 0, 37, 0
1, 104894, Note_on_c, 0, 52, 36
1, 104894, Note_on_c, 0, 49, 32
1, 104894, Note_on_c, 0, 44, 32
1, 105058, Note_on_c, 0, 64, 0
1, 105058, Note_on_c, 0, 56, 0
1, 105058, Note_on_c, 0, 56, 36
1, 105061, Note_on_c, 0, 64, 36
1, 105061, Note_on_c, 0, 44, 0
1, 105061, Note_on_c, 0, 49, 0
1, 105064, Note_on_c, 0, 52, 0
1, 105064, Note_on_c, 0, 44, 32
1, 105064, Note_on_c, 0, 49, 32
1, 105067, Note_on_c, 0, 52, 36
1, 105225, Note_on_c, 0, 64, 0
1, 105225, Note_on_c, 0, 56, 0
1, 105225, Note_on_c, 0, 56, 36
1, 105228, Note_on_c, 0, 64, 36
1, 105228, Note_on_c, 0, 52, 0
1, 105228, Note_on_c, 0, 49, 0
1, 105231, Note_on_c, 0, 44, 0
1, 105231, Note_on_c, 0, 44, 32
1, 105231, Note_on_c, 0, 49, 32
1, 105234, Note_on_c, 0, 52, 36
1, 105392, Note_on_c, 0, 64, 0
1, 105392, Note_on_c, 0, 56, 0
1, 105392, Note_on_c, 0, 56, 36
1, 105395, Note_on_c, 0, 64, 36
1, 105395, Note_on_c, 0, 52, 0
1, 105395, Note_on_c, 0, 49, 0
1, 105398, Note_on_c, 0, 44, 0
1, 105398, Note_on_c, 0, 44, 32
1, 105398, Note_on_c, 0, 49, 32
1, 105401, Note_on_c, 0, 52, 36
1, 105559, Note_on_c, 0, 64, 0
1, 105559, Note_on_c, 0, 56, 0
1, 105559, Note_on_c, 0, 56, 37
1, 105562, Note_on_c, 0, 64, 37
1, 105562, Note_on_c, 0, 52, 0
1, 105562, Note_on_c, 0, 49, 0
1, 105565, Note_on_c, 0, 44, 0
1, 105565, Note_on_c, 0, 44, 32
1, 105565, Note_on_c, 0, 49, 32
1, 105568, Note_on_c, 0, 52, 36
1, 105726, Note_on_c, 0, 64, 0
1, 105726, Note_on_c, 0, 56, 0
1, 105726, Note_on_c, 0, 68, 0
1, 105729, Note_on_c, 0, 76, 78
1, 105729, Note_on_c, 0, 52, 0
1, 105729, Note_on_c, 0, 49, 0
1, 105732, Note_on_c, 0, 44, 0
1, 105732, Control_c, 0, 64, 1
1, 105732, Note_on_c, 0, 44, 32
1, 105735, Note_on_c, 0, 49, 32
1, 105735, Note_on_c, 0, 52, 36
1, 105811, Control_c, 0, 64, 127
1, 105887, Note_on_c, 0, 64, 38
1, 105887, Note_on_c, 0, 68, 38
1, 105887, Note_on_c, 0, 52, 0
1, 105890, Note_on_c, 0, 49, 0
1, 105890, Note_on_c, 0, 44, 0
1, 105890, Note_on_c, 0, 44, 32
1, 105893, Note_on_c, 0, 49, 32
1, 105893, Note_on_c, 0, 52, 36
1, 106047, Note_on_c, 0, 68, 0
1, 106047, Note_on_c, 0, 64, 0
1, 106047, Note_on_c, 0, 76, 0
1, 106050, Note_on_c, 0, 75, 73
1, 106050, Note_on_c, 0, 52, 0
1, 106050, Note_on_c, 0, 49, 0
1, 106053, Note_on_c, 0, 44, 0
1, 106053, Note_on_c, 0, 44, 32
1, 106053, Note_on_c, 0, 49, 32
1, 106056, Note_on_c, 0, 52, 36
1, 106208, Note_on_c, 0, 63, 37
1, 106208, Note_on_c, 0, 68, 37
1, 106208, Note_on_c, 0, 52, 0
1, 106211, Note_on_c, 0, 49, 0
1, 106211, Note_on_c, 0, 44, 0
1, 106211, Note_on_c, 0, 44, 32
1, 106214, Note_on_c, 0, 49, 32
1, 106214, Note_on_c, 0, 52, 36
1, 106368, Note_on_c, 0, 68, 0
1, 106368, Note_on_c, 0, 63, 0
1, 106368, Note_on_c, 0, 75, 0
1, 106371, Note_on_c, 0, 73, 70
1, 106371, Note_on_c, 0, 52, 0
1, 106371, Note_on_c, 0, 49, 0
1, 106374, Note_on_c, 0, 44, 0
1, 106374, Note_on_c, 0, 44, 32
1, 106374, Note_on_c, 0, 49, 32
1, 106377, Note_on_c, 0, 52, 36
1, 106563, Note_on_c, 0, 61, 37
1, 106563, Note_on_c, 0, 68, 37
1, 106563, Note_on_c, 0, 52, 0
1, 106566, Note_on_c, 0, 49, 0
1, 106566, Note_on_c, 0, 44, 0
1, 106566, Note_on_c, 0, 49, 32
1, 106569, Note_on_c, 0, 44, 32
1, 106569, Note_on_c, 0, 52, 36
1, 106760, Note_on_c, 0, 68, 0
1, 106760, Note_on_c, 0, 61, 0
1, 106760, Note_on_c, 0, 73, 0
1, 106763, Note_on_c, 0, 73, 70
1, 106763, Note_on_c, 0, 52, 0
1, 106763, Note_on_c, 0, 44, 0
1, 106766, Note_on_c, 0, 49, 0
1, 106766, Control_c, 0, 64, 0
1, 106766, Note_on_c, 0, 39, 49
1, 106927, Note_on_c, 0, 61, 37
1, 106927, Note_on_c, 0, 68, 37
1, 106927, Note_on_c, 0, 39, 0
1, 106930, Control_c, 0, 64, 126
1, 106930, Note_on_c, 0, 51, 32
1, 106930, Note_on_c, 0, 54, 36
1, 106933, Note_on_c, 0, 44, 32
1, 107093, Note_on_c, 0, 68, 0
1, 107093, Note_on_c, 0, 61, 0
1, 107093, Note_on_c, 0, 61, 37
1, 107096, Note_on_c, 0, 68, 37
1, 107096, Note_on_c, 0, 44, 0
1, 107096, Note_on_c, 0, 54, 0
1, 107099, Note_on_c, 0, 51, 0
1, 107099, Note_on_c, 0, 44, 32
1, 107099, Note_on_c, 0, 51, 32
1, 107102, Note_on_c, 0, 54, 36
1, 107260, Note_on_c, 0, 68, 0
1, 107260, Note_on_c, 0, 61, 0
1, 107260, Note_on_c, 0, 61, 37
1, 107263, Note_on_c, 0, 68, 37
1, 107263, Note_on_c, 0, 54, 0
1, 107263, Note_on_c, 0, 51, 0
1, 107266, Note_on_c, 0, 44, 0
1, 107266, Note_on_c, 0, 44, 32
1, 107266, Note_on_c, 0, 51, 32
1, 107269, Note_on_c, 0, 54, 36
1, 107426, Note_on_c, 0, 68, 0
1, 107426, Note_on_c, 0, 61, 0
1, 107426, Note_on_c, 0, 61, 37
1, 107429, Note_on_c, 0, 68, 37
1, 107429, Note_on_c, 0, 54, 0
1, 107429, Note_on_c, 0, 51, 0
1, 107432, Note_on_c, 0, 44, 0
1, 107432, Note_on_c, 0, 44, 32
1, 107432, Note_on_c, 0, 51, 32
1, 107435, Note_on_c, 0, 54, 36
1, 107593, Note_on_c, 0, 68, 0
1, 107593, Note_on_c, 0, 61, 0
1, 107593, Note_on_c, 0, 61, 37
1, 107596, Note_on_c, 0, 68, 37
1, 107596, Note_on_c, 0, 54, 0
1, 107596, Note_on_c, 0, 51, 0
1, 107599, Note_on_c, 0, 44, 0
1, 107599, Note_on_c, 0, 44, 32
1, 107599, Note_on_c, 0, 51, 32
1, 107602, Note_on_c, 0, 54, 36
1, 107759, Note_on_c, 0, 68, 0
1, 107759, Note_on_c, 0, 61, 0
1, 107759, Note_on_c, 0, 73, 0
1, 107762, Note_on_c, 0, 72, 71
1, 107762, Note_on_c, 0, 54, 0
1, 107762, Note_on_c, 0, 51, 0
1, 107765, Note_on_c, 0, 44, 0
1, 107765, Note_on_c, 0, 44, 32
1, 107765, Note_on_c, 0, 51, 32
1, 107768, Note_on_c, 0, 54, 36
1, 107768, Control_c, 0, 64, 0
1, 107830, Control_c, 0, 64, 127
1, 107925, Note_on_c, 0, 60, 37
1, 107925, Note_on_c, 0, 68, 37
1, 107925, Note_on_c, 0, 54, 0
1, 107928, Note_on_c, 0, 51, 0
1, 107928, Note_on_c, 0, 44, 0
1, 107928, Note_on_c, 0, 44, 32
1, 107931, Note_on_c, 0, 51, 32
1, 107931, Note_on_c, 0, 54, 36
1, 108092, Note_on_c, 0, 68, 0
1, 108092, Note_on_c, 0, 60, 0
1, 108092, Note_on_c, 0, 60, 37
1, 108095, Note_on_c, 0, 68, 37
1, 108095, Note_on_c, 0, 54, 0
1, 108095, Note_on_c, 0, 51, 0
1, 108098, Note_on_c, 0, 44, 0
1, 108098, Note_on_c, 0, 44, 32
1, 108098, Note_on_c, 0, 51, 32
1, 108101, Note_on_c, 0, 54, 36
1, 108258, Note_on_c, 0, 68, 0
1, 108258, Note_on_c, 0, 60, 0
1, 108258, Note_on_c, 0, 60, 37
1, 108261, Note_on_c, 0, 68, 37
1, 108261, Note_on_c, 0, 54, 0
1, 108261, Note_on_c, 0, 51, 0
1, 108264, Note_on_c, 0, 44, 0
1, 108264, Note_on_c, 0, 44, 32
1, 108264, Note_on_c, 0, 51, 32
1, 108267, Note_on_c, 0, 54, 36
1, 108425, Note_on_c, 0, 68, 0
1, 108425, Note_on_c, 0, 60, 0
1, 108425, Note_on_c, 0, 60, 37
1, 108428, Note_on_c, 0, 68, 37
1, 108428, Note_on_c, 0, 54, 0
1, 108428, Note_on_c, 0, 51, 0
1, 108431, Note_on_c, 0, 44, 0
1, 108431, Note_on_c, 0, 51, 32
1, 108431, Note_on_c, 0, 44, 32
1, 108434, Note_on_c, 0, 54, 36
1, 108591, Note_on_c, 0, 68, 0
1, 108591, Note_on_c, 0, 60, 0
1, 108591, Note_on_c, 0, 60, 37
1, 108594, Note_on_c, 0, 68, 37
1, 108594, Note_on_c, 0, 54, 0
1, 108594, Note_on_c, 0, 44, 0
1, 108597, Note_on_c, 0, 51, 0
1, 108597, Note_on_c, 0, 44, 32
1, 108597, Note_on_c, 0, 51, 32
1, 108600, Note_on_c, 0, 54, 36
1, 108758, Note_on_c, 0, 68, 0
1, 108758, Note_on_c, 0, 60, 0
1, 108758, Note_on_c, 0, 72, 0
1, 108761, Note_on_c, 0, 72, 68
1, 108761, Note_on_c, 0, 54, 0
1, 108761, Note_on_c, 0, 51, 0
1, 108764, Note_on_c, 0, 44, 0
1, 108764, Note_on_c, 0, 40, 52
1, 108764, Control_c, 0, 64, 0
1, 108835, Control_c, 0, 64, 124
1, 108938, Note_on_c, 0, 60, 45
1, 108938, Note_on_c, 0, 69, 45
1, 108938, Note_on_c, 0, 40, 0
1, 108941, Note_on_c, 0, 52, 45
1, 108941, Note_on_c, 0, 45, 39
1, 109118, Note_on_c, 0, 69, 0
1, 109118, Note_on_c, 0, 60, 0
1, 109118, Note_on_c, 0, 72, 0
1, 109121, Note_on_c, 0, 73, 78
1, 109121, Note_on_c, 0, 45, 0
1, 109121, Note_on_c, 0, 52, 0
1, 109124, Note_on_c, 0, 45, 39
1, 109124, Note_on_c, 0, 52, 45
1, 109127, Control_c, 0, 64, 0
1, 109248, Control_c, 0, 64, 124
1, 109279, Note_on_c, 0, 61, 45
1, 109279, Note_on_c, 0, 69, 45
1, 109279, Note_on_c, 0, 52, 0
1, 109282, Note_on_c, 0, 45, 0
1, 109282, Note_on_c, 0, 45, 39
1, 109282, Note_on_c, 0, 52, 45
1, 109440, Note_on_c, 0, 69, 0
1, 109440, Note_on_c, 0, 61, 0
1, 109440, Note_on_c, 0, 61, 45
1, 109443, Note_on_c, 0, 69, 45
1, 109443, Note_on_c, 0, 52, 0
1, 109443, Note_on_c, 0, 45, 0
1, 109446, Note_on_c, 0, 45, 39
1, 109446, Note_on_c, 0, 52, 45
1, 109601, Note_on_c, 0, 69, 0
1, 109601, Note_on_c, 0, 61, 0
1, 109601, Note_on_c, 0, 61, 45
1, 109604, Note_on_c, 0, 69, 45
1, 109604, Note_on_c, 0, 52, 0
1, 109604, Note_on_c, 0, 45, 0
1, 109607, Note_on_c, 0, 45, 39
1, 109607, Note_on_c, 0, 52, 45
1, 109762, Note_on_c, 0, 69, 0
1, 109762, Note_on_c, 0, 61, 0
1, 109762, Note_on_c, 0, 61, 45
1, 109765, Note_on_c, 0, 69, 45
1, 109765, Note_on_c, 0, 52, 0
1, 109765, Note_on_c, 0, 45, 0
1, 109768, Note_on_c, 0, 52, 45
1, 109768, Note_on_c, 0, 45, 39
1, 109923, Note_on_c, 0, 69, 0
1, 109923, Note_on_c, 0, 61, 0
1, 109923, Note_on_c, 0, 61, 45
1, 109926, Note_on_c, 0, 69, 45
1, 109926, Note_on_c, 0, 45, 0
1, 109926, Note_on_c, 0, 52, 0
1, 109929, Note_on_c, 0, 45, 39
1, 109929, Note_on_c, 0, 52, 45
1, 110084, Note_on_c, 0, 69, 0
1, 110084, Note_on_c, 0, 61, 0
1, 110084, Note_on_c, 0, 73, 0
1, 110087, Note_on_c, 0, 73, 80
1, 110087, Note_on_c, 0, 52, 0
1, 110087, Note_on_c, 0, 45, 0
1, 110090, Note_on_c, 0, 40, 45
1, 110245, Note_on_c, 0, 61, 45
1, 110245, Note_on_c, 0, 69, 45
1, 110245, Note_on_c, 0, 52, 45
1, 110248, Note_on_c, 0, 45, 39
1, 110406, Note_on_c, 0, 69, 0
1, 110406, Note_on_c, 0, 61, 0
1, 110406, Note_on_c, 0, 73, 0
1, 110409, Note_on_c, 0, 73, 79
1, 110409, Note_on_c, 0, 45, 0
1, 110409, Note_on_c, 0, 52, 0
1, 110412, Note_on_c, 0, 40, 0
1, 110412, Note_on_c, 0, 40, 45
1, 110567, Note_on_c, 0, 61, 45
1, 110567, Note_on_c, 0, 69, 45
1, 110567, Note_on_c, 0, 52, 45
1, 110570, Note_on_c, 0, 45, 39
1, 110729, Note_on_c, 0, 69, 0
1, 110729, Note_on_c, 0, 61, 0
1, 110729, Note_on_c, 0, 73, 0
1, 110732, Note_on_c, 0, 73, 80
1, 110732, Note_on_c, 0, 45, 0
1, 110732, Note_on_c, 0, 52, 0
1, 110735, Note_on_c, 0, 40, 0
1, 110735, Note_on_c, 0, 35, 62
1, 110735, Control_c, 0, 64, 0
1, 110823, Control_c, 0, 64, 126
1, 110909, Note_on_c, 0, 61, 54
1, 110909, Note_on_c, 0, 68, 54
1, 110909, Note_on_c, 0, 35, 0
1, 110912, Note_on_c, 0, 47, 54
1, 110912, Note_on_c, 0, 40, 47
1, 111088, Note_on_c, 0, 68, 0
1, 111088, Note_on_c, 0, 61, 0
1, 111088, Note_on_c, 0, 73, 0
1, 111091, Note_on_c, 0, 74, 88
1, 111091, Note_on_c, 0, 40, 0
1, 111091, Note_on_c, 0, 47, 0
1, 111094, Note_on_c, 0, 40, 47
1, 111094, Note_on_c, 0, 47, 54
1, 111097, Control_c, 0, 64, 0
1, 111219, Control_c, 0, 64, 124
1, 111250, Note_on_c, 0, 62, 54
1, 111250, Note_on_c, 0, 68, 54
1, 111250, Note_on_c, 0, 47, 0
1, 111253, Note_on_c, 0, 40, 0
1, 111253, Note_on_c, 0, 40, 47
1, 111253, Note_on_c, 0, 47, 54
1, 111412, Note_on_c, 0, 68, 0
1, 111412, Note_on_c, 0, 62, 0
1, 111412, Note_on_c, 0, 62, 54
1, 111415, Note_on_c, 0, 68, 54
1, 111415, Note_on_c, 0, 47, 0
1, 111415, Note_on_c, 0, 40, 0
1, 111418, Note_on_c, 0, 47, 54
1, 111418, Note_on_c, 0, 40, 47
1, 111573, Note_on_c, 0, 68, 0
1, 111573, Note_on_c, 0, 62, 0
1, 111573, Note_on_c, 0, 62, 54
1, 111576, Note_on_c, 0, 68, 54
1, 111576, Note_on_c, 0, 40, 0
1, 111576, Note_on_c, 0, 47, 0
1, 111579, Note_on_c, 0, 40, 47
1, 111579, Note_on_c, 0, 47, 54
1, 111735, Note_on_c, 0, 68, 0
1, 111735, Note_on_c, 0, 62, 0
1, 111735, Note_on_c, 0, 62, 54
1, 111738, Note_on_c, 0, 68, 54
1, 111738, Note_on_c, 0, 47, 0
1, 111738, Note_on_c, 0, 40, 0
1, 111741, Note_on_c, 0, 40, 47
1, 111741, Note_on_c, 0, 47, 54
1, 111896, Note_on_c, 0, 68, 0
1, 111896, Note_on_c, 0, 62, 0
1, 111896, Note_on_c, 0, 62, 54
1, 111899, Note_on_c, 0, 68, 54
1, 111899, Note_on_c, 0, 47, 0
1, 111899, Note_on_c, 0, 40, 0
1, 111902, Note_on_c, 0, 40, 47
1, 111902, Note_on_c, 0, 47, 54
1, 112058, Note_on_c, 0, 68, 0
1, 112058, Note_on_c, 0, 62, 0
1, 112058, Note_on_c, 0, 74, 0
1, 112061, Note_on_c, 0, 74, 91
1, 112061, Note_on_c, 0, 47, 0
1, 112061, Note_on_c, 0, 40, 0
1, 112064, Note_on_c, 0, 35, 54
1, 112064, Control_c, 0, 64, 0
1, 112135, Control_c, 0, 64, 126
1, 112220, Note_on_c, 0, 62, 54
1, 112220, Note_on_c, 0, 68, 54
1, 112220, Note_on_c, 0, 40, 47
1, 112223, Note_on_c, 0, 47, 54
1, 112381, Note_on_c, 0, 68, 0
1, 112381, Note_on_c, 0, 62, 0
1, 112381, Note_on_c, 0, 74, 0
1, 112384, Note_on_c, 0, 74, 90
1, 112384, Note_on_c, 0, 47, 0
1, 112384, Note_on_c, 0, 40, 0
1, 112387, Note_on_c, 0, 35, 0
1, 112387, Note_on_c, 0, 40, 54
1, 112543, Note_on_c, 0, 62, 54
1, 112543, Note_on_c, 0, 68, 54
1, 112543, Note_on_c, 0, 52, 54
1, 112546, Note_on_c, 0, 47, 47
1, 112705, Note_on_c, 0, 68, 0
1, 112705, Note_on_c, 0, 62, 0
1, 112705, Note_on_c, 0, 74, 0
1, 112708, Note_on_c, 0, 76, 98
1, 112708, Note_on_c, 0, 47, 0
1, 112708, Note_on_c, 0, 52, 0
1, 112711, Note_on_c, 0, 40, 0
1, 112711, Note_on_c, 0, 39, 71
1, 112711, Control_c, 0, 64, 0
1, 112779, Control_c, 0, 64, 127
1, 112884, Note_on_c, 0, 64, 61
1, 112884, Note_on_c, 0, 68, 61
1, 112884, Note_on_c, 0, 51, 55
1, 112887, Note_on_c, 0, 47, 49
1, 113062, Note_on_c, 0, 68, 0
1, 113062, Note_on_c, 0, 64, 0
1, 113062, Note_on_c, 0, 76, 0
1, 113065, Note_on_c, 0, 75, 94
1, 113065, Note_on_c, 0, 47, 0
1, 113065, Note_on_c, 0, 51, 0
1, 113068, Note_on_c, 0, 47, 49
1, 113068, Note_on_c, 0, 51, 55
1, 113076, Control_c, 0, 64, 0
1, 113185, Control_c, 0, 64, 127
1, 113223, Note_on_c, 0, 63, 61
1, 113223, Note_on_c, 0, 68, 61
1, 113223, Note_on_c, 0, 51, 0
1, 113226, Note_on_c, 0, 47, 0
1, 113226, Note_on_c, 0, 47, 49
1, 113226, Note_on_c, 0, 51, 56
1, 113383, Note_on_c, 0, 68, 0
1, 113383, Note_on_c, 0, 63, 0
1, 113383, Note_on_c, 0, 63, 54
1, 113386, Note_on_c, 0, 68, 54
1, 113386, Note_on_c, 0, 51, 0
1, 113386, Note_on_c, 0, 47, 0
1, 113389, Note_on_c, 0, 47, 56
1, 113389, Note_on_c, 0, 51, 56
1, 113544, Note_on_c, 0, 68, 0
1, 113544, Note_on_c, 0, 63, 0
1, 113544, Note_on_c, 0, 63, 61
1, 113547, Note_on_c, 0, 68, 61
1, 113547, Note_on_c, 0, 51, 0
1, 113547, Note_on_c, 0, 47, 0
1, 113550, Note_on_c, 0, 47, 49
1, 113550, Note_on_c, 0, 51, 56
1, 113705, Note_on_c, 0, 68, 0
1, 113705, Note_on_c, 0, 63, 0
1, 113705, Note_on_c, 0, 75, 0
1, 113708, Note_on_c, 0, 76, 98
1, 113708, Note_on_c, 0, 51, 0
1, 113708, Note_on_c, 0, 47, 0
1, 113711, Note_on_c, 0, 39, 0
1, 113711, Note_on_c, 0, 39, 71
1, 113711, Control_c, 0, 64, 0
1, 113768, Control_c, 0, 64, 126
1, 113872, Note_on_c, 0, 64, 62
1, 113872, Note_on_c, 0, 67, 62
1, 113872, Note_on_c, 0, 49, 49
1, 113875, Note_on_c, 0, 51, 56
1, 113875, Note_on_c, 0, 46, 49
1, 114016, Control_c, 0, 64, 0
1, 114039, Note_on_c, 0, 67, 0
1, 114039, Note_on_c, 0, 64, 0
1, 114039, Note_on_c, 0, 76, 0
1, 114042, Note_on_c, 0, 75, 94
1, 114042, Note_on_c, 0, 46, 0
1, 114042, Note_on_c, 0, 51, 0
1, 114045, Note_on_c, 0, 49, 0
1, 114045, Note_on_c, 0, 51, 56
1, 114045, Note_on_c, 0, 49, 49
1, 114048, Note_on_c, 0, 46, 49
1, 114089, Control_c, 0, 64, 126
1, 114199, Note_on_c, 0, 63, 62
1, 114199, Note_on_c, 0, 67, 62
1, 114199, Note_on_c, 0, 46, 0
1, 114202, Note_on_c, 0, 49, 0
1, 114202, Note_on_c, 0, 51, 0
1, 114202, Note_on_c, 0, 51, 56
1, 114205, Note_on_c, 0, 49, 49
1, 114205, Note_on_c, 0, 46, 49
1, 114361, Note_on_c, 0, 67, 0
1, 114361, Note_on_c, 0, 63, 0
1, 114361, Note_on_c, 0, 63, 62
1, 114364, Note_on_c, 0, 67, 62
1, 114364, Note_on_c, 0, 46, 0
1, 114364, Note_on_c, 0, 49, 0
1, 114367, Note_on_c, 0, 51, 0
1, 114367, Note_on_c, 0, 51, 55
1, 114367, Note_on_c, 0, 49, 55
1, 114370, Note_on_c, 0, 46, 49
1, 114549, Note_on_c, 0, 67, 0
1, 114549, Note_on_c, 0, 63, 0
1, 114549, Note_on_c, 0, 63, 62
1, 114552, Note_on_c, 0, 67, 62
1, 114552, Note_on_c, 0, 46, 0
1, 114552, Note_on_c, 0, 49, 0
1, 114555, Note_on_c, 0, 51, 0
1, 114555, Note_on_c, 0, 51, 55
1, 114555, Note_on_c, 0, 49, 55
1, 114558, Note_on_c, 0, 46, 55
1, 114737, Note_on_c, 0, 67, 0
1, 114737, Note_on_c, 0, 63, 0
1, 114737, Note_on_c, 0, 75, 0
1, 114740, Note_on_c, 0, 68, 83
1, 114740, Note_on_c, 0, 46, 0
1, 114740, Note_on_c, 0, 39, 0
1, 114743, Note_on_c, 0, 51, 0
1, 114743, Note_on_c, 0, 49, 0
1, 114743, Note_on_c, 0, 44, 62
1, 114746, Control_c, 0, 64, 0
1, 114859, Control_c, 0, 64, 127
1, 114925, Note_on_c, 0, 59, 36
1, 114925, Note_on_c, 0, 63, 36
1, 114925, Note_on_c, 0, 51, 36
1, 114928, Note_on_c, 0, 47, 32
1, 115092, Note_on_c, 0, 63, 0
1, 115092, Note_on_c, 0, 59, 0
1, 115092, Note_on_c, 0, 59, 36
1, 115095, Note_on_c, 0, 63, 36
1, 115095, Note_on_c, 0, 47, 0
1, 115095, Note_on_c, 0, 51, 0
1, 115098, Note_on_c, 0, 51, 36
1, 115098, Note_on_c, 0, 47, 32
1, 115258, Note_on_c, 0, 63, 0
1, 115258, Note_on_c, 0, 59, 0
1, 115258, Note_on_c, 0, 59, 36
1, 115261, Note_on_c, 0, 63, 36
1, 115261, Note_on_c, 0, 47, 0
1, 115261, Note_on_c, 0, 51, 0
1, 115264, Note_on_c, 0, 51, 36
1, 115264, Note_on_c, 0, 47, 32
1, 115424, Note_on_c, 0, 63, 0
1, 115424, Note_on_c, 0, 59, 0
1, 115424, Note_on_c, 0, 59, 36
1, 115427, Note_on_c, 0, 63, 36
1, 115427, Note_on_c, 0, 47, 0
1, 115427, Note_on_c, 0, 51, 0
1, 115430, Note_on_c, 0, 51, 36
1, 115430, Note_on_c, 0, 47, 36
1, 115591, Note_on_c, 0, 63, 0
1, 115591, Note_on_c, 0, 59, 0
1, 115591, Note_on_c, 0, 59, 36
1, 115594, Note_on_c, 0, 63, 36
1, 115594, Note_on_c, 0, 47, 0
1, 115594, Note_on_c, 0, 51, 0
1, 115597, Note_on_c, 0, 51, 36
1, 115597, Note_on_c, 0, 47, 32
1, 115757, Note_on_c, 0, 63, 0
1, 115757, Note_on_c, 0, 59, 0
1, 115757, Note_on_c, 0, 68, 0
1, 115760, Note_on_c, 0, 68, 62
1, 115760, Note_on_c, 0, 47, 0
1, 115760, Note_on_c, 0, 51, 0
1, 115763, Note_on_c, 0, 44, 0
1, 115763, Note_on_c, 0, 44, 62
1, 115763, Control_c, 0, 64, 0
1, 115844, Control_c, 0, 64, 127
1, 115924, Note_on_c, 0, 60, 34
1, 115924, Note_on_c, 0, 66, 34
1, 115924, Note_on_c, 0, 63, 34
1, 115927, Note_on_c, 0, 51, 32
1, 115927, Note_on_c, 0, 54, 36
1, 116090, Note_on_c, 0, 63, 0
1, 116090, Note_on_c, 0, 66, 0
1, 116090, Note_on_c, 0, 60, 0
1, 116093, Note_on_c, 0, 60, 38
1, 116093, Note_on_c, 0, 63, 38
1, 116093, Note_on_c, 0, 66, 38
1, 116096, Note_on_c, 0, 54, 0
1, 116096, Note_on_c, 0, 51, 0
1, 116096, Note_on_c, 0, 54, 39
1, 116099, Note_on_c, 0, 51, 34
1, 116256, Note_on_c, 0, 66, 0
1, 116256, Note_on_c, 0, 63, 0
1, 116256, Note_on_c, 0, 60, 0
1, 116259, Note_on_c, 0, 60, 45
1, 116259, Note_on_c, 0, 63, 45
1, 116259, Note_on_c, 0, 66, 45
1, 116262, Note_on_c, 0, 51, 0
1, 116262, Note_on_c, 0, 54, 0
1, 116262, Note_on_c, 0, 54, 45
1, 116265, Note_on_c, 0, 51, 39
1, 116424, Note_on_c, 0, 66, 0
1, 116424, Note_on_c, 0, 63, 0
1, 116424, Note_on_c, 0, 60, 0
1, 116427, Note_on_c, 0, 60, 40
1, 116427, Note_on_c, 0, 63, 40
1, 116427, Note_on_c, 0, 66, 40
1, 116430, Note_on_c, 0, 51, 0
1, 116430, Note_on_c, 0, 54, 0
1, 116430, Note_on_c, 0, 54, 45
1, 116433, Note_on_c, 0, 51, 39
1, 116620, Note_on_c, 0, 66, 0
1, 116620, Note_on_c, 0, 63, 0
1, 116620, Note_on_c, 0, 60, 0
1, 116623, Note_on_c, 0, 60, 36
1, 116623, Note_on_c, 0, 63, 36
1, 116623, Note_on_c, 0, 66, 36
1, 116626, Note_on_c, 0, 51, 0
1, 116626, Note_on_c, 0, 54, 0
1, 116626, Note_on_c, 0, 54, 39
1, 116629, Note_on_c, 0, 51, 34
1, 116815, Note_on_c, 0, 66, 0
1, 116815, Note_on_c, 0, 68, 0
1, 116815, Note_on_c, 0, 60, 0
1, 116818, Note_on_c, 0, 63, 0
1, 116818, Note_on_c, 0, 68, 71
1, 116818, Note_on_c, 0, 51, 0
1, 116821, Note_on_c, 0, 54, 0
1, 116821, Note_on_c, 0, 44, 0
1, 116821, Note_on_c, 0, 37, 52
1, 116824, Control_c, 0, 64, 0
1, 116824, Control_c, 0, 91, 127
1, 116824, Control_c, 0, 91, 127
1, 116946, Control_c, 0, 64, 126
1, 116986, Note_on_c, 0, 56, 37
1, 116986, Note_on_c, 0, 64, 37
1, 116986, Note_on_c, 0, 37, 0
1, 116989, Note_on_c, 0, 52, 36
1, 116989, Note_on_c, 0, 49, 32
1, 116989, Note_on_c, 0, 44, 32
1, 117158, Note_on_c, 0, 64, 0
1, 117158, Note_on_c, 0, 56, 0
1, 117158, Note_on_c, 0, 56, 36
1, 117161, Note_on_c, 0, 64, 36
1, 117161, Note_on_c, 0, 44, 0
1, 117161, Note_on_c, 0, 49, 0
1, 117164, Note_on_c, 0, 52, 0
1, 117164, Note_on_c, 0, 44, 32
1, 117164, Note_on_c, 0, 49, 32
1, 117167, Note_on_c, 0, 52, 36
1, 117324, Note_on_c, 0, 64, 0
1, 117324, Note_on_c, 0, 56, 0
1, 117324, Note_on_c, 0, 56, 36
1, 117327, Note_on_c, 0, 64, 36
1, 117327, Note_on_c, 0, 52, 0
1, 117327, Note_on_c, 0, 49, 0
1, 117330, Note_on_c, 0, 44, 0
1, 117330, Note_on_c, 0, 44, 32
1, 117330, Note_on_c, 0, 49, 32
1, 117333, Note_on_c, 0, 52, 36
1, 117491, Note_on_c, 0, 64, 0
1, 117491, Note_on_c, 0, 56, 0
1, 117491, Note_on_c, 0, 56, 36
1, 117494, Note_on_c, 0, 64, 36
1, 117494, Note_on_c, 0, 52, 0
1, 117494, Note_on_c, 0, 49, 0
1, 117497, Note_on_c, 0, 44, 0
1, 117497, Note_on_c, 0, 44, 32
1, 117497, Note_on_c, 0, 49, 32
1, 117500, Note_on_c, 0, 52, 36
1, 117657, Note_on_c, 0, 64, 0
1, 117657, Note_on_c, 0, 56, 0
1, 117657, Note_on_c, 0, 56, 36
1, 117660, Note_on_c, 0, 64, 36
1, 117660, Note_on_c, 0, 52, 0
1, 117660, Note_on_c, 0, 49, 0
1, 117663, Note_on_c, 0, 44, 0
1, 117663, Note_on_c, 0, 44, 32
1, 117663, Note_on_c, 0, 49, 32
1, 117666, Note_on_c, 0, 52, 36
1, 117824, Note_on_c, 0, 64, 0
1, 117824, Note_on_c, 0, 56, 0
1, 117824, Note_on_c, 0, 68, 0
1, 117827, Note_on_c, 0, 68, 71
1, 117827, Note_on_c, 0, 52, 0
1, 117827, Note_on_c, 0, 49, 0
1, 117830, Note_on_c, 0, 44, 0
1, 117830, Note_on_c, 0, 44, 32
1, 117830, Note_on_c, 0, 49, 32
1, 117833, Note_on_c, 0, 52, 36
1, 117833, Control_c, 0, 64, 0
1, 117927, Control_c, 0, 64, 126
1, 117984, Note_on_c, 0, 56, 36
1, 117984, Note_on_c, 0, 64, 36
1, 117984, Note_on_c, 0, 52, 0
1, 117987, Note_on_c, 0, 49, 0
1, 117987, Note_on_c, 0, 44, 0
1, 117987, Note_on_c, 0, 44, 32
1, 117990, Note_on_c, 0, 49, 32
1, 117990, Note_on_c, 0, 52, 36
1, 118144, Note_on_c, 0, 64, 0
1, 118144, Note_on_c, 0, 56, 0
1, 118144, Note_on_c, 0, 68, 0
1, 118147, Note_on_c, 0, 69, 69
1, 118147, Note_on_c, 0, 52, 0
1, 118147, Note_on_c, 0, 49, 0
1, 118150, Note_on_c, 0, 44, 0
1, 118150, Note_on_c, 0, 44, 32
1, 118150, Note_on_c, 0, 49, 32
1, 118153, Note_on_c, 0, 52, 36
1, 118305, Note_on_c, 0, 57, 37
1, 118305, Note_on_c, 0, 64, 37
1, 118305, Note_on_c, 0, 52, 0
1, 118308, Note_on_c, 0, 49, 0
1, 118308, Note_on_c, 0, 44, 0
1, 118308, Note_on_c, 0, 44, 32
1, 118311, Note_on_c, 0, 49, 32
1, 118311, Note_on_c, 0, 52, 36
1, 118465, Note_on_c, 0, 64, 0
1, 118465, Note_on_c, 0, 57, 0
1, 118465, Note_on_c, 0, 69, 0
1, 118468, Note_on_c, 0, 68, 69
1, 118468, Note_on_c, 0, 52, 0
1, 118468, Note_on_c, 0, 49, 0
1, 118471, Note_on_c, 0, 44, 0
1, 118471, Note_on_c, 0, 44, 32
1, 118471, Note_on_c, 0, 49, 32
1, 118474, Note_on_c, 0, 52, 36
1, 118651, Note_on_c, 0, 56, 36
1, 118651, Note_on_c, 0, 64, 36
1, 118651, Note_on_c, 0, 52, 0
1, 118654, Note_on_c, 0, 49, 0
1, 118654, Note_on_c, 0, 44, 0
1, 118654, Note_on_c, 0, 49, 32
1, 118657, Note_on_c, 0, 44, 32
1, 118657, Note_on_c, 0, 52, 36
1, 118837, Note_on_c, 0, 64, 0
1, 118837, Note_on_c, 0, 56, 0
1, 118837, Note_on_c, 0, 68, 0
1, 118840, Note_on_c, 0, 69, 70
1, 118840, Note_on_c, 0, 52, 0
1, 118840, Note_on_c, 0, 44, 0
1, 118843, Note_on_c, 0, 49, 0
1, 118843, Note_on_c, 0, 36, 51
1, 118843, Control_c, 0, 64, 0
1, 118979, Control_c, 0, 64, 126
1, 119004, Note_on_c, 0, 57, 36
1, 119004, Note_on_c, 0, 66, 36
1, 119004, Note_on_c, 0, 36, 0
1, 119007, Note_on_c, 0, 51, 32
1, 119007, Note_on_c, 0, 54, 36
1, 119007, Note_on_c, 0, 44, 32
1, 119171, Note_on_c, 0, 66, 0
1, 119171, Note_on_c, 0, 57, 0
1, 119171, Note_on_c, 0, 57, 36
1, 119174, Note_on_c, 0, 66, 36
1, 119174, Note_on_c, 0, 44, 0
1, 119174, Note_on_c, 0, 54, 0
1, 119177, Note_on_c, 0, 51, 0
1, 119177, Note_on_c, 0, 44, 32
1, 119177, Note_on_c, 0, 51, 32
1, 119180, Note_on_c, 0, 54, 36
1, 119338, Note_on_c, 0, 66, 0
1, 119338, Note_on_c, 0, 57, 0
1, 119338, Note_on_c, 0, 57, 36
1, 119341, Note_on_c, 0, 66, 36
1, 119341, Note_on_c, 0, 54, 0
1, 119341, Note_on_c, 0, 51, 0
1, 119344, Note_on_c, 0, 44, 0
1, 119344, Note_on_c, 0, 44, 32
1, 119344, Note_on_c, 0, 51, 32
1, 119347, Note_on_c, 0, 54, 36
1, 119505, Note_on_c, 0, 66, 0
1, 119505, Note_on_c, 0, 57, 0
1, 119505, Note_on_c, 0, 57, 36
1, 119508, Note_on_c, 0, 66, 36
1, 119508, Note_on_c, 0, 54, 0
1, 119508, Note_on_c, 0, 51, 0
1, 119511, Note_on_c, 0, 44, 0
1, 119511, Note_on_c, 0, 44, 32
1, 119511, Note_on_c, 0, 51, 32
1, 119514, Note_on_c, 0, 54, 36
1, 119672, Note_on_c, 0, 66, 0
1, 119672, Note_on_c, 0, 57, 0
1, 119672, Note_on_c, 0, 57, 36
1, 119675, Note_on_c, 0, 66, 36
1, 119675, Note_on_c, 0, 54, 0
1, 119675, Note_on_c, 0, 51, 0
1, 119678, Note_on_c, 0, 44, 0
1, 119678, Note_on_c, 0, 44, 32
1, 119678, Note_on_c, 0, 51, 32
1, 119681, Note_on_c, 0, 54, 36
1, 119839, Note_on_c, 0, 66, 0
1, 119839, Note_on_c, 0, 57, 0
1, 119839, Note_on_c, 0, 69, 0
1, 119842, Note_on_c, 0, 68, 69
1, 119842, Note_on_c, 0, 54, 0
1, 119842, Note_on_c, 0, 51, 0
1, 119845, Note_on_c, 0, 44, 0
1, 119845, Note_on_c, 0, 44, 32
1, 119845, Note_on_c, 0, 51, 32
1, 119848, Note_on_c, 0, 54, 36
1, 119848, Control_c, 0, 64, 0
1, 119966, Control_c, 0, 64, 126
1, 120006, Note_on_c, 0, 56, 38
1, 120006, Note_on_c, 0, 66, 38
1, 120006, Note_on_c, 0, 54, 0
1, 120009, Note_on_c, 0, 51, 0
1, 120009, Note_on_c, 0, 44, 0
1, 120009, Note_on_c, 0, 44, 32
1, 120012, Note_on_c, 0, 51, 32
1, 120012, Note_on_c, 0, 54, 36
1, 120173, Note_on_c, 0, 66, 0
1, 120173, Note_on_c, 0, 56, 0
1, 120173, Note_on_c, 0, 56, 39
1, 120176, Note_on_c, 0, 66, 39
1, 120176, Note_on_c, 0, 54, 0
1, 120176, Note_on_c, 0, 51, 0
1, 120179, Note_on_c, 0, 44, 0
1, 120179, Note_on_c, 0, 44, 32
1, 120179, Note_on_c, 0, 51, 32
1, 120182, Note_on_c, 0, 54, 36
1, 120340, Note_on_c, 0, 66, 0
1, 120340, Note_on_c, 0, 56, 0
1, 120340, Note_on_c, 0, 56, 39
1, 120343, Note_on_c, 0, 66, 39
1, 120343, Note_on_c, 0, 54, 0
1, 120343, Note_on_c, 0, 51, 0
1, 120346, Note_on_c, 0, 44, 0
1, 120346, Note_on_c, 0, 44, 32
1, 120346, Note_on_c, 0, 51, 32
1, 120349, Note_on_c, 0, 54, 36
1, 120507, Note_on_c, 0, 66, 0
1, 120507, Note_on_c, 0, 56, 0
1, 120507, Note_on_c, 0, 56, 39
1, 120510, Note_on_c, 0, 66, 39
1, 120510, Note_on_c, 0, 54, 0
1, 120510, Note_on_c, 0, 51, 0
1, 120513, Note_on_c, 0, 44, 0
1, 120513, Note_on_c, 0, 51, 32
1, 120513, Note_on_c, 0, 44, 32
1, 120516, Note_on_c, 0, 54, 36
1, 120674, Note_on_c, 0, 66, 0
1, 120674, Note_on_c, 0, 56, 0
1, 120674, Note_on_c, 0, 56, 39
1, 120677, Note_on_c, 0, 66, 39
1, 120677, Note_on_c, 0, 54, 0
1, 120677, Note_on_c, 0, 44, 0
1, 120680, Note_on_c, 0, 51, 0
1, 120680, Note_on_c, 0, 44, 32
1, 120680, Note_on_c, 0, 51, 32
1, 120683, Note_on_c, 0, 54, 36
1, 120841, Note_on_c, 0, 66, 0
1, 120841, Note_on_c, 0, 56, 0
1, 120841, Note_on_c, 0, 68, 0
1, 120844, Note_on_c, 0, 68, 70
1, 120844, Note_on_c, 0, 54, 0
1, 120844, Note_on_c, 0, 51, 0
1, 120847, Note_on_c, 0, 44, 0
1, 120847, Note_on_c, 0, 37, 50
1, 120847, Control_c, 0, 64, 0
1, 120988, Control_c, 0, 64, 126
1, 121008, Note_on_c, 0, 56, 36
1, 121008, Note_on_c, 0, 64, 36
1, 121008, Note_on_c, 0, 37, 0
1, 121011, Note_on_c, 0, 52, 36
1, 121011, Note_on_c, 0, 49, 32
1, 121011, Note_on_c, 0, 44, 32
1, 121175, Note_on_c, 0, 64, 0
1, 121175, Note_on_c, 0, 56, 0
1, 121175, Note_on_c, 0, 56, 36
1, 121178, Note_on_c, 0, 64, 36
1, 121178, Note_on_c, 0, 44, 0
1, 121178, Note_on_c, 0, 49, 0
1, 121181, Note_on_c, 0, 52, 0
1, 121181, Note_on_c, 0, 44, 32
1, 121181, Note_on_c, 0, 49, 32
1, 121184, Note_on_c, 0, 52, 36
1, 121342, Note_on_c, 0, 64, 0
1, 121342, Note_on_c, 0, 56, 0
1, 121342, Note_on_c, 0, 56, 36
1, 121345, Note_on_c, 0, 64, 36
1, 121345, Note_on_c, 0, 52, 0
1, 121345, Note_on_c, 0, 49, 0
1, 121348, Note_on_c, 0, 44, 0
1, 121348, Note_on_c, 0, 44, 32
1, 121348, Note_on_c, 0, 49, 32
1, 121351, Note_on_c, 0, 52, 36
1, 121509, Note_on_c, 0, 64, 0
1, 121509, Note_on_c, 0, 56, 0
1, 121509, Note_on_c, 0, 56, 36
1, 121512, Note_on_c, 0, 64, 36
1, 121512, Note_on_c, 0, 52, 0
1, 121512, Note_on_c, 0, 49, 0
1, 121515, Note_on_c, 0, 44, 0
1, 121515, Note_on_c, 0, 44, 32
1, 121515, Note_on_c, 0, 49, 32
1, 121518, Note_on_c, 0, 52, 36
1, 121676, Note_on_c, 0, 64, 0
1, 121676, Note_on_c, 0, 56, 0
1, 121676, Note_on_c, 0, 56, 37
1, 121679, Note_on_c, 0, 64, 37
1, 121679, Note_on_c, 0, 52, 0
1, 121679, Note_on_c, 0, 49, 0
1, 121682, Note_on_c, 0, 44, 0
1, 121682, Note_on_c, 0, 44, 32
1, 121682, Note_on_c, 0, 49, 32
1, 121685, Note_on_c, 0, 52, 36
1, 121843, Note_on_c, 0, 64, 0
1, 121843, Note_on_c, 0, 56, 0
1, 121843, Note_on_c, 0, 68, 0
1, 121846, Note_on_c, 0, 76, 80
1, 121846, Note_on_c, 0, 52, 0
1, 121846, Note_on_c, 0, 49, 0
1, 121849, Note_on_c, 0, 44, 0
1, 121849, Note_on_c, 0, 44, 32
1, 121849, Note_on_c, 0, 49, 32
1, 121852, Note_on_c, 0, 52, 36
1, 121852, Control_c, 0, 64, 1
1, 121928, Control_c, 0, 64, 126
1, 122004, Note_on_c, 0, 64, 38
1, 122004, Note_on_c, 0, 68, 38
1, 122004, Note_on_c, 0, 52, 0
1, 122007, Note_on_c, 0, 49, 0
1, 122007, Note_on_c, 0, 44, 0
1, 122007, Note_on_c, 0, 44, 32
1, 122010, Note_on_c, 0, 49, 32
1, 122010, Note_on_c, 0, 52, 36
1, 122164, Note_on_c, 0, 68, 0
1, 122164, Note_on_c, 0, 64, 0
1, 122164, Note_on_c, 0, 76, 0
1, 122167, Note_on_c, 0, 75, 74
1, 122167, Note_on_c, 0, 52, 0
1, 122167, Note_on_c, 0, 49, 0
1, 122170, Note_on_c, 0, 44, 0
1, 122170, Note_on_c, 0, 44, 32
1, 122170, Note_on_c, 0, 49, 32
1, 122173, Note_on_c, 0, 52, 36
1, 122325, Note_on_c, 0, 63, 37
1, 122325, Note_on_c, 0, 68, 37
1, 122325, Note_on_c, 0, 52, 0
1, 122328, Note_on_c, 0, 49, 0
1, 122328, Note_on_c, 0, 44, 0
1, 122328, Note_on_c, 0, 44, 32
1, 122331, Note_on_c, 0, 49, 32
1, 122331, Note_on_c, 0, 52, 36
1, 122485, Note_on_c, 0, 68, 0
1, 122485, Note_on_c, 0, 63, 0
1, 122485, Note_on_c, 0, 75, 0
1, 122488, Note_on_c, 0, 73, 70
1, 122488, Note_on_c, 0, 52, 0
1, 122488, Note_on_c, 0, 49, 0
1, 122491, Note_on_c, 0, 44, 0
1, 122491, Note_on_c, 0, 44, 32
1, 122491, Note_on_c, 0, 49, 32
1, 122494, Note_on_c, 0, 52, 36
1, 122680, Note_on_c, 0, 61, 37
1, 122680, Note_on_c, 0, 68, 37
1, 122680, Note_on_c, 0, 52, 0
1, 122683, Note_on_c, 0, 49, 0
1, 122683, Note_on_c, 0, 44, 0
1, 122683, Note_on_c, 0, 49, 32
1, 122686, Note_on_c, 0, 44, 32
1, 122686, Note_on_c, 0, 52, 36
1, 122876, Note_on_c, 0, 68, 0
1, 122876, Note_on_c, 0, 61, 0
1, 122876, Note_on_c, 0, 73, 0
1, 122879, Note_on_c, 0, 73, 70
1, 122879, Note_on_c, 0, 52, 0
1, 122879, Note_on_c, 0, 44, 0
1, 122882, Note_on_c, 0, 49, 0
1, 122882, Note_on_c, 0, 39, 49
1, 122882, Control_c, 0, 64, 0
1, 123014, Control_c, 0, 64, 126
1, 123044, Note_on_c, 0, 61, 37
1, 123044, Note_on_c, 0, 68, 37
1, 123044, Note_on_c, 0, 39, 0
1, 123047, Note_on_c, 0, 51, 32
1, 123047, Note_on_c, 0, 54, 36
1, 123047, Note_on_c, 0, 44, 32
1, 123210, Note_on_c, 0, 68, 0
1, 123210, Note_on_c, 0, 61, 0
1, 123210, Note_on_c, 0, 61, 37
1, 123213, Note_on_c, 0, 68, 37
1, 123213, Note_on_c, 0, 44, 0
1, 123213, Note_on_c, 0, 54, 0
1, 123216, Note_on_c, 0, 51, 0
1, 123216, Note_on_c, 0, 44, 32
1, 123216, Note_on_c, 0, 51, 32
1, 123219, Note_on_c, 0, 54, 36
1, 123376, Note_on_c, 0, 68, 0
1, 123376, Note_on_c, 0, 61, 0
1, 123376, Note_on_c, 0, 61, 37
1, 123379, Note_on_c, 0, 68, 37
1, 123379, Note_on_c, 0, 54, 0
1, 123379, Note_on_c, 0, 51, 0
1, 123382, Note_on_c, 0, 44, 0
1, 123382, Note_on_c, 0, 44, 32
1, 123382, Note_on_c, 0, 51, 32
1, 123385, Note_on_c, 0, 54, 36
1, 123543, Note_on_c, 0, 68, 0
1, 123543, Note_on_c, 0, 61, 0
1, 123543, Note_on_c, 0, 61, 37
1, 123546, Note_on_c, 0, 68, 37
1, 123546, Note_on_c, 0, 54, 0
1, 123546, Note_on_c, 0, 51, 0
1, 123549, Note_on_c, 0, 44, 0
1, 123549, Note_on_c, 0, 44, 32
1, 123549, Note_on_c, 0, 51, 32
1, 123552, Note_on_c, 0, 54, 36
1, 123709, Note_on_c, 0, 68, 0
1, 123709, Note_on_c, 0, 61, 0
1, 123709, Note_on_c, 0, 61, 37
1, 123712, Note_on_c, 0, 68, 37
1, 123712, Note_on_c, 0, 54, 0
1, 123712, Note_on_c, 0, 51, 0
1, 123715, Note_on_c, 0, 44, 0
1, 123715, Note_on_c, 0, 44, 32
1, 123715, Note_on_c, 0, 51, 32
1, 123718, Note_on_c, 0, 54, 36
1, 123876, Note_on_c, 0, 68, 0
1, 123876, Note_on_c, 0, 61, 0
1, 123876, Note_on_c, 0, 73, 0
1, 123879, Note_on_c, 0, 72, 71
1, 123879, Note_on_c, 0, 54, 0
1, 123879, Note_on_c, 0, 51, 0
1, 123882, Note_on_c, 0, 44, 0
1, 123882, Note_on_c, 0, 44, 32
1, 123882, Note_on_c, 0, 51, 32
1, 123885, Note_on_c, 0, 54, 36
1, 123885, Control_c, 0, 64, 0
1, 123987, Control_c, 0, 64, 126
1, 124042, Note_on_c, 0, 60, 37
1, 124042, Note_on_c, 0, 68, 37
1, 124042, Note_on_c, 0, 54, 0
1, 124045, Note_on_c, 0, 51, 0
1, 124045, Note_on_c, 0, 44, 0
1, 124045, Note_on_c, 0, 44, 32
1, 124048, Note_on_c, 0, 51, 32
1, 124048, Note_on_c, 0, 54, 36
1, 124208, Note_on_c, 0, 68, 0
1, 124208, Note_on_c, 0, 60, 0
1, 124208, Note_on_c, 0, 60, 37
1, 124211, Note_on_c, 0, 68, 37
1, 124211, Note_on_c, 0, 54, 0
1, 124211, Note_on_c, 0, 51, 0
1, 124214, Note_on_c, 0, 44, 0
1, 124214, Note_on_c, 0, 44, 32
1, 124214, Note_on_c, 0, 51, 32
1, 124217, Note_on_c, 0, 54, 36
1, 124375, Note_on_c, 0, 68, 0
1, 124375, Note_on_c, 0, 60, 0
1, 124375, Note_on_c, 0, 60, 37
1, 124378, Note_on_c, 0, 68, 37
1, 124378, Note_on_c, 0, 54, 0
1, 124378, Note_on_c, 0, 51, 0
1, 124381, Note_on_c, 0, 44, 0
1, 124381, Note_on_c, 0, 44, 32
1, 124381, Note_on_c, 0, 51, 32
1, 124384, Note_on_c, 0, 54, 36
1, 124541, Note_on_c, 0, 68, 0
1, 124541, Note_on_c, 0, 60, 0
1, 124541, Note_on_c, 0, 60, 37
1, 124544, Note_on_c, 0, 68, 37
1, 124544, Note_on_c, 0, 54, 0
1, 124544, Note_on_c, 0, 51, 0
1, 124547, Note_on_c, 0, 44, 0
1, 124547, Note_on_c, 0, 51, 32
1, 124547, Note_on_c, 0, 44, 32
1, 124550, Note_on_c, 0, 54, 36
1, 124708, Note_on_c, 0, 68, 0
1, 124708, Note_on_c, 0, 60, 0
1, 124708, Note_on_c, 0, 60, 37
1, 124711, Note_on_c, 0, 68, 37
1, 124711, Note_on_c, 0, 54, 0
1, 124711, Note_on_c, 0, 44, 0
1, 124714, Note_on_c, 0, 51, 0
1, 124714, Note_on_c, 0, 44, 32
1, 124714, Note_on_c, 0, 51, 32
1, 124717, Note_on_c, 0, 54, 36
1, 124875, Note_on_c, 0, 68, 0
1, 124875, Note_on_c, 0, 60, 0
1, 124875, Note_on_c, 0, 72, 0
1, 124878, Note_on_c, 0, 72, 68
1, 124878, Note_on_c, 0, 54, 0
1, 124878, Note_on_c, 0, 51, 0
1, 124881, Note_on_c, 0, 44, 0
1, 124881, Note_on_c, 0, 40, 52
1, 124881, Control_c, 0, 64, 0
1, 124960, Control_c, 0, 64, 124
1, 125055, Note_on_c, 0, 60, 45
1, 125055, Note_on_c, 0, 69, 45
1, 125055, Note_on_c, 0, 40, 0
1, 125058, Note_on_c, 0, 52, 45
1, 125058, Note_on_c, 0, 45, 39
1, 125235, Note_on_c, 0, 69, 0
1, 125235, Note_on_c, 0, 60, 0
1, 125235, Note_on_c, 0, 72, 0
1, 125238, Note_on_c, 0, 73, 78
1, 125238, Note_on_c, 0, 45, 0
1, 125238, Note_on_c, 0, 52, 0
1, 125241, Note_on_c, 0, 45, 39
1, 125241, Note_on_c, 0, 52, 45
1, 125241, Control_c, 0, 64, 0
1, 125365, Control_c, 0, 64, 126
1, 125396, Note_on_c, 0, 61, 45
1, 125396, Note_on_c, 0, 69, 45
1, 125396, Note_on_c, 0, 52, 0
1, 125399, Note_on_c, 0, 45, 0
1, 125399, Note_on_c, 0, 45, 39
1, 125399, Note_on_c, 0, 52, 45
1, 125557, Note_on_c, 0, 69, 0
1, 125557, Note_on_c, 0, 61, 0
1, 125557, Note_on_c, 0, 61, 45
1, 125560, Note_on_c, 0, 69, 45
1, 125560, Note_on_c, 0, 52, 0
1, 125560, Note_on_c, 0, 45, 0
1, 125563, Note_on_c, 0, 45, 39
1, 125563, Note_on_c, 0, 52, 45
1, 125718, Note_on_c, 0, 69, 0
1, 125718, Note_on_c, 0, 61, 0
1, 125718, Note_on_c, 0, 61, 45
1, 125721, Note_on_c, 0, 69, 45
1, 125721, Note_on_c, 0, 52, 0
1, 125721, Note_on_c, 0, 45, 0
1, 125724, Note_on_c, 0, 45, 39
1, 125724, Note_on_c, 0, 52, 45
1, 125879, Note_on_c, 0, 69, 0
1, 125879, Note_on_c, 0, 61, 0
1, 125879, Note_on_c, 0, 61, 45
1, 125882, Note_on_c, 0, 69, 45
1, 125882, Note_on_c, 0, 52, 0
1, 125882, Note_on_c, 0, 45, 0
1, 125885, Note_on_c, 0, 52, 45
1, 125885, Note_on_c, 0, 45, 39
1, 126040, Note_on_c, 0, 69, 0
1, 126040, Note_on_c, 0, 61, 0
1, 126040, Note_on_c, 0, 61, 45
1, 126043, Note_on_c, 0, 69, 45
1, 126043, Note_on_c, 0, 45, 0
1, 126043, Note_on_c, 0, 52, 0
1, 126046, Note_on_c, 0, 45, 39
1, 126046, Note_on_c, 0, 52, 45
1, 126201, Note_on_c, 0, 69, 0
1, 126201, Note_on_c, 0, 61, 0
1, 126201, Note_on_c, 0, 73, 0
1, 126204, Note_on_c, 0, 73, 80
1, 126204, Note_on_c, 0, 52, 0
1, 126204, Note_on_c, 0, 45, 0
1, 126207, Note_on_c, 0, 40, 45
1, 126362, Note_on_c, 0, 61, 45
1, 126362, Note_on_c, 0, 69, 45
1, 126362, Note_on_c, 0, 52, 45
1, 126365, Note_on_c, 0, 45, 39
1, 126523, Note_on_c, 0, 69, 0
1, 126523, Note_on_c, 0, 61, 0
1, 126523, Note_on_c, 0, 73, 0
1, 126526, Note_on_c, 0, 73, 79
1, 126526, Note_on_c, 0, 45, 0
1, 126526, Note_on_c, 0, 52, 0
1, 126529, Note_on_c, 0, 40, 0
1, 126529, Note_on_c, 0, 40, 45
1, 126684, Note_on_c, 0, 61, 45
1, 126684, Note_on_c, 0, 69, 45
1, 126684, Note_on_c, 0, 52, 45
1, 126687, Note_on_c, 0, 45, 39
1, 126846, Note_on_c, 0, 69, 0
1, 126846, Note_on_c, 0, 61, 0
1, 126846, Note_on_c, 0, 73, 0
1, 126849, Note_on_c, 0, 73, 80
1, 126849, Note_on_c, 0, 45, 0
1, 126849, Note_on_c, 0, 52, 0
1, 126852, Note_on_c, 0, 40, 0
1, 126852, Note_on_c, 0, 35, 62
1, 126852, Control_c, 0, 64, 0
1, 126957, Control_c, 0, 64, 126
1, 127025, Note_on_c, 0, 61, 54
1, 127025, Note_on_c, 0, 68, 54
1, 127025, Note_on_c, 0, 35, 0
1, 127028, Note_on_c, 0, 47, 54
1, 127028, Note_on_c, 0, 40, 47
1, 127205, Note_on_c, 0, 68, 0
1, 127205, Note_on_c, 0, 61, 0
1, 127205, Note_on_c, 0, 73, 0
1, 127208, Note_on_c, 0, 74, 88
1, 127208, Note_on_c, 0, 40, 0
1, 127208, Note_on_c, 0, 47, 0
1, 127211, Note_on_c, 0, 40, 47
1, 127211, Note_on_c, 0, 47, 54
1, 127211, Control_c, 0, 64, 0
1, 127313, Control_c, 0, 64, 126
1, 127367, Note_on_c, 0, 62, 54
1, 127367, Note_on_c, 0, 68, 54
1, 127367, Note_on_c, 0, 47, 0
1, 127370, Note_on_c, 0, 40, 0
1, 127370, Note_on_c, 0, 40, 47
1, 127370, Note_on_c, 0, 47, 54
1, 127528, Note_on_c, 0, 68, 0
1, 127528, Note_on_c, 0, 62, 0
1, 127528, Note_on_c, 0, 62, 54
1, 127531, Note_on_c, 0, 68, 54
1, 127531, Note_on_c, 0, 47, 0
1, 127531, Note_on_c, 0, 40, 0
1, 127534, Note_on_c, 0, 47, 54
1, 127534, Note_on_c, 0, 40, 47
1, 127690, Note_on_c, 0, 68, 0
1, 127690, Note_on_c, 0, 62, 0
1, 127690, Note_on_c, 0, 62, 54
1, 127693, Note_on_c, 0, 68, 54
1, 127693, Note_on_c, 0, 40, 0
1, 127693, Note_on_c, 0, 47, 0
1, 127696, Note_on_c, 0, 40, 47
1, 127696, Note_on_c, 0, 47, 54
1, 127852, Note_on_c, 0, 68, 0
1, 127852, Note_on_c, 0, 62, 0
1, 127852, Note_on_c, 0, 62, 54
1, 127855, Note_on_c, 0, 68, 54
1, 127855, Note_on_c, 0, 47, 0
1, 127855, Note_on_c, 0, 40, 0
1, 127858, Note_on_c, 0, 40, 47
1, 127858, Note_on_c, 0, 47, 54
1, 128013, Note_on_c, 0, 68, 0
1, 128013, Note_on_c, 0, 62, 0
1, 128013, Note_on_c, 0, 62, 54
1, 128016, Note_on_c, 0, 68, 54
1, 128016, Note_on_c, 0, 47, 0
1, 128016, Note_on_c, 0, 40, 0
1, 128019, Note_on_c, 0, 40, 47
1, 128019, Note_on_c, 0, 47, 54
1, 128175, Note_on_c, 0, 68, 0
1, 128175, Note_on_c, 0, 62, 0
1, 128175, Note_on_c, 0, 74, 0
1, 128178, Note_on_c, 0, 74, 90
1, 128178, Note_on_c, 0, 47, 0
1, 128178, Note_on_c, 0, 40, 0
1, 128181, Note_on_c, 0, 35, 54
1, 128181, Control_c, 0, 64, 0
1, 128313, Control_c, 0, 64, 126
1, 128336, Note_on_c, 0, 62, 54
1, 128336, Note_on_c, 0, 68, 54
1, 128336, Note_on_c, 0, 40, 47
1, 128339, Note_on_c, 0, 47, 54
1, 128498, Note_on_c, 0, 68, 0
1, 128498, Note_on_c, 0, 62, 0
1, 128498, Note_on_c, 0, 74, 0
1, 128501, Note_on_c, 0, 74, 85
1, 128501, Note_on_c, 0, 47, 0
1, 128501, Note_on_c, 0, 40, 0
1, 128504, Note_on_c, 0, 35, 0
1, 128504, Note_on_c, 0, 40, 54
1, 128660, Note_on_c, 0, 62, 54
1, 128660, Note_on_c, 0, 68, 54
1, 128660, Note_on_c, 0, 52, 54
1, 128663, Note_on_c, 0, 47, 54
1, 128822, Note_on_c, 0, 68, 0
1, 128822, Note_on_c, 0, 62, 0
1, 128822, Note_on_c, 0, 74, 0
1, 128825, Note_on_c, 0, 76, 98
1, 128825, Note_on_c, 0, 47, 0
1, 128825, Note_on_c, 0, 52, 0
1, 128828, Note_on_c, 0, 40, 0
1, 128828, Note_on_c, 0, 39, 71
1, 128828, Control_c, 0, 64, 0
1, 128948, Control_c, 0, 64, 126
1, 129001, Note_on_c, 0, 64, 61
1, 129001, Note_on_c, 0, 68, 61
1, 129001, Note_on_c, 0, 51, 55
1, 129004, Note_on_c, 0, 47, 49
1, 129179, Note_on_c, 0, 68, 0
1, 129179, Note_on_c, 0, 64, 0
1, 129179, Note_on_c, 0, 76, 0
1, 129182, Note_on_c, 0, 75, 93
1, 129182, Note_on_c, 0, 47, 0
1, 129182, Note_on_c, 0, 51, 0
1, 129185, Note_on_c, 0, 47, 49
1, 129185, Note_on_c, 0, 51, 55
1, 129340, Note_on_c, 0, 63, 61
1, 129340, Note_on_c, 0, 68, 61
1, 129340, Note_on_c, 0, 51, 0
1, 129343, Note_on_c, 0, 47, 0
1, 129343, Note_on_c, 0, 47, 49
1, 129343, Note_on_c, 0, 51, 56
1, 129500, Note_on_c, 0, 68, 0
1, 129500, Note_on_c, 0, 63, 0
1, 129500, Note_on_c, 0, 63, 54
1, 129503, Note_on_c, 0, 68, 54
1, 129503, Note_on_c, 0, 51, 0
1, 129503, Note_on_c, 0, 47, 0
1, 129506, Note_on_c, 0, 47, 49
1, 129506, Note_on_c, 0, 51, 56
1, 129661, Note_on_c, 0, 68, 0
1, 129661, Note_on_c, 0, 63, 0
1, 129661, Note_on_c, 0, 63, 61
1, 129664, Note_on_c, 0, 68, 61
1, 129664, Note_on_c, 0, 51, 0
1, 129664, Note_on_c, 0, 47, 0
1, 129667, Note_on_c, 0, 47, 49
1, 129667, Note_on_c, 0, 51, 56
1, 129821, Note_on_c, 0, 68, 0
1, 129821, Note_on_c, 0, 63, 0
1, 129821, Note_on_c, 0, 75, 0
1, 129824, Note_on_c, 0, 76, 98
1, 129824, Note_on_c, 0, 51, 0
1, 129824, Note_on_c, 0, 47, 0
1, 129827, Note_on_c, 0, 39, 0
1, 129827, Note_on_c, 0, 39, 71
1, 129827, Control_c, 0, 64, 0
1, 129902, Control_c, 0, 64, 126
1, 129988, Note_on_c, 0, 64, 62
1, 129988, Note_on_c, 0, 67, 62
1, 129988, Note_on_c, 0, 49, 49
1, 129991, Note_on_c, 0, 51, 56
1, 129991, Note_on_c, 0, 46, 49
1, 130155, Note_on_c, 0, 67, 0
1, 130155, Note_on_c, 0, 64, 0
1, 130155, Note_on_c, 0, 76, 0
1, 130158, Note_on_c, 0, 75, 93
1, 130158, Note_on_c, 0, 46, 0
1, 130158, Note_on_c, 0, 51, 0
1, 130161, Note_on_c, 0, 49, 0
1, 130161, Note_on_c, 0, 51, 56
1, 130161, Note_on_c, 0, 49, 49
1, 130164, Note_on_c, 0, 46, 49
1, 130164, Control_c, 0, 64, 0
1, 130233, Control_c, 0, 64, 127
1, 130316, Note_on_c, 0, 63, 62
1, 130316, Note_on_c, 0, 67, 62
1, 130316, Note_on_c, 0, 46, 0
1, 130319, Note_on_c, 0, 49, 0
1, 130319, Note_on_c, 0, 51, 0
1, 130319, Note_on_c, 0, 51, 56
1, 130322, Note_on_c, 0, 49, 49
1, 130322, Note_on_c, 0, 46, 49
1, 130478, Note_on_c, 0, 67, 0
1, 130478, Note_on_c, 0, 63, 0
1, 130478, Note_on_c, 0, 63, 62
1, 130481, Note_on_c, 0, 67, 62
1, 130481, Note_on_c, 0, 46, 0
1, 130481, Note_on_c, 0, 49, 0
1, 130484, Note_on_c, 0, 51, 0
1, 130484, Note_on_c, 0, 51, 55
1, 130484, Note_on_c, 0, 49, 49
1, 130487, Note_on_c, 0, 46, 49
1, 130666, Note_on_c, 0, 67, 0
1, 130666, Note_on_c, 0, 63, 0
1, 130666, Note_on_c, 0, 63, 62
1, 130669, Note_on_c, 0, 67, 62
1, 130669, Note_on_c, 0, 46, 0
1, 130669, Note_on_c, 0, 49, 0
1, 130672, Note_on_c, 0, 51, 0
1, 130672, Note_on_c, 0, 51, 55
1, 130672, Note_on_c, 0, 49, 49
1, 130675, Note_on_c, 0, 46, 49
1, 130854, Note_on_c, 0, 67, 0
1, 130854, Note_on_c, 0, 63, 0
1, 130854, Note_on_c, 0, 75, 0
1, 130857, Note_on_c, 0, 68, 80
1, 130857, Note_on_c, 0, 46, 0
1, 130857, Note_on_c, 0, 39, 0
1, 130860, Note_on_c, 0, 51, 0
1, 130860, Note_on_c, 0, 49, 0
1, 130860, Note_on_c, 0, 44, 62
1, 130863, Control_c, 0, 64, 0
1, 131031, Control_c, 0, 64, 127
1, 131042, Note_on_c, 0, 59, 36
1, 131042, Note_on_c, 0, 63, 36
1, 131042, Note_on_c, 0, 56, 36
1, 131045, Note_on_c, 0, 51, 32
1, 131208, Note_on_c, 0, 63, 0
1, 131208, Note_on_c, 0, 59, 0
1, 131208, Note_on_c, 0, 59, 36
1, 131211, Note_on_c, 0, 63, 36
1, 131211, Note_on_c, 0, 51, 0
1, 131211, Note_on_c, 0, 56, 0
1, 131214, Note_on_c, 0, 56, 36
1, 131214, Note_on_c, 0, 51, 32
1, 131375, Note_on_c, 0, 63, 0
1, 131375, Note_on_c, 0, 59, 0
1, 131375, Note_on_c, 0, 59, 36
1, 131378, Note_on_c, 0, 63, 36
1, 131378, Note_on_c, 0, 51, 0
1, 131378, Note_on_c, 0, 56, 0
1, 131381, Note_on_c, 0, 56, 36
1, 131381, Note_on_c, 0, 51, 32
1, 131541, Note_on_c, 0, 63, 0
1, 131541, Note_on_c, 0, 59, 0
1, 131541, Note_on_c, 0, 59, 36
1, 131544, Note_on_c, 0, 63, 36
1, 131544, Note_on_c, 0, 51, 0
1, 131544, Note_on_c, 0, 56, 0
1, 131547, Note_on_c, 0, 56, 36
1, 131547, Note_on_c, 0, 51, 32
1, 131708, Note_on_c, 0, 63, 0
1, 131708, Note_on_c, 0, 59, 0
1, 131708, Note_on_c, 0, 59, 36
1, 131711, Note_on_c, 0, 63, 36
1, 131711, Note_on_c, 0, 51, 0
1, 131711, Note_on_c, 0, 56, 0
1, 131714, Note_on_c, 0, 56, 36
1, 131714, Note_on_c, 0, 51, 32
1, 131874, Note_on_c, 0, 63, 0
1, 131874, Note_on_c, 0, 59, 0
1, 131874, Note_on_c, 0, 59, 36
1, 131877, Note_on_c, 0, 63, 36
1, 131877, Note_on_c, 0, 51, 0
1, 131877, Note_on_c, 0, 56, 0
1, 131880, Note_on_c, 0, 51, 32
1, 131880, Note_on_c, 0, 56, 36
1, 132040, Note_on_c, 0, 63, 0
1, 132040, Note_on_c, 0, 59, 0
1, 132040, Note_on_c, 0, 59, 36
1, 132043, Note_on_c, 0, 63, 36
1, 132043, Note_on_c, 0, 56, 0
1, 132043, Note_on_c, 0, 51, 0
1, 132046, Note_on_c, 0, 51, 32
1, 132046, Note_on_c, 0, 56, 36
1, 132207, Note_on_c, 0, 63, 0
1, 132207, Note_on_c, 0, 59, 0
1, 132207, Note_on_c, 0, 68, 0
1, 132210, Note_on_c, 0, 68, 58
1, 132210, Note_on_c, 0, 56, 0
1, 132210, Note_on_c, 0, 51, 0
1, 132213, Note_on_c, 0, 44, 0
1, 132213, Note_on_c, 0, 44, 36
1, 132373, Note_on_c, 0, 59, 36
1, 132373, Note_on_c, 0, 63, 36
1, 132373, Note_on_c, 0, 51, 32
1, 132376, Note_on_c, 0, 56, 36
1, 132542, Note_on_c, 0, 63, 0
1, 132542, Note_on_c, 0, 59, 0
1, 132542, Note_on_c, 0, 68, 0
1, 132545, Note_on_c, 0, 68, 52
1, 132545, Note_on_c, 0, 56, 0
1, 132545, Note_on_c, 0, 51, 0
1, 132548, Note_on_c, 0, 44, 0
1, 132548, Note_on_c, 0, 44, 36
1, 132747, Note_on_c, 0, 59, 36
1, 132747, Note_on_c, 0, 63, 36
1, 132747, Note_on_c, 0, 51, 32
1, 132750, Note_on_c, 0, 56, 36
1, 132952, Note_on_c, 0, 63, 0
1, 132952, Note_on_c, 0, 59, 0
1, 132952, Note_on_c, 0, 68, 0
1, 132955, Note_on_c, 0, 68, 69
1, 132955, Note_on_c, 0, 56, 0
1, 132955, Note_on_c, 0, 51, 0
1, 132958, Note_on_c, 0, 44, 0
1, 132958, Control_c, 0, 64, 0
1, 132958, Note_on_c, 0, 32, 36
1, 133063, Control_c, 0, 64, 125
1, 133132, Note_on_c, 0, 63, 36
1, 133132, Note_on_c, 0, 60, 36
1, 133132, Note_on_c, 0, 32, 0
1, 133135, Note_on_c, 0, 54, 36
1, 133135, Note_on_c, 0, 51, 32
1, 133135, Note_on_c, 0, 44, 32
1, 133313, Note_on_c, 0, 60, 0
1, 133313, Note_on_c, 0, 63, 0
1, 133313, Note_on_c, 0, 68, 0
1, 133316, Note_on_c, 0, 69, 71
1, 133316, Note_on_c, 0, 44, 0
1, 133316, Note_on_c, 0, 51, 0
1, 133319, Note_on_c, 0, 54, 0
1, 133319, Note_on_c, 0, 54, 36
1, 133319, Note_on_c, 0, 51, 32
1, 133322, Note_on_c, 0, 44, 32
1, 133322, Control_c, 0, 64, 1
1, 133416, Control_c, 0, 64, 126
1, 133480, Note_on_c, 0, 60, 36
1, 133480, Note_on_c, 0, 63, 36
1, 133480, Note_on_c, 0, 44, 0
1, 133483, Note_on_c, 0, 51, 0
1, 133483, Note_on_c, 0, 54, 0
1, 133483, Note_on_c, 0, 54, 36
1, 133486, Note_on_c, 0, 51, 32
1, 133486, Note_on_c, 0, 44, 32
1, 133646, Note_on_c, 0, 63, 0
1, 133646, Note_on_c, 0, 60, 0
1, 133646, Note_on_c, 0, 60, 36
1, 133649, Note_on_c, 0, 63, 36
1, 133649, Note_on_c, 0, 44, 0
1, 133649, Note_on_c, 0, 51, 0
1, 133652, Note_on_c, 0, 54, 0
1, 133652, Note_on_c, 0, 44, 32
1, 133652, Note_on_c, 0, 51, 32
1, 133655, Note_on_c, 0, 54, 36
1, 133812, Note_on_c, 0, 63, 0
1, 133812, Note_on_c, 0, 60, 0
1, 133812, Note_on_c, 0, 60, 36
1, 133815, Note_on_c, 0, 63, 36
1, 133815, Note_on_c, 0, 54, 0
1, 133815, Note_on_c, 0, 51, 0
1, 133818, Note_on_c, 0, 44, 0
1, 133818, Note_on_c, 0, 51, 32
1, 133818, Note_on_c, 0, 44, 32
1, 133821, Note_on_c, 0, 54, 36
1, 133979, Note_on_c, 0, 63, 0
1, 133979, Note_on_c, 0, 60, 0
1, 133979, Note_on_c, 0, 60, 36
1, 133982, Note_on_c, 0, 63, 36
1, 133982, Note_on_c, 0, 54, 0
1, 133982, Note_on_c, 0, 44, 0
1, 133985, Note_on_c, 0, 51, 0
1, 133985, Note_on_c, 0, 44, 32
1, 133985, Note_on_c, 0, 51, 32
1, 133988, Note_on_c, 0, 54, 36
1, 134145, Note_on_c, 0, 63, 0
1, 134145, Note_on_c, 0, 60, 0
1, 134145, Note_on_c, 0, 60, 36
1, 134148, Note_on_c, 0, 63, 36
1, 134148, Note_on_c, 0, 54, 0
1, 134148, Note_on_c, 0, 51, 0
1, 134151, Note_on_c, 0, 44, 0
1, 134151, Note_on_c, 0, 54, 36
1, 134151, Note_on_c, 0, 51, 32
1, 134154, Note_on_c, 0, 44, 32
1, 134312, Note_on_c, 0, 63, 0
1, 134312, Note_on_c, 0, 60, 0
1, 134312, Note_on_c, 0, 69, 0
1, 134315, Note_on_c, 0, 68, 70
1, 134315, Note_on_c, 0, 44, 0
1, 134315, Note_on_c, 0, 51, 0
1, 134318, Note_on_c, 0, 54, 0
1, 134318, Note_on_c, 0, 54, 36
1, 134318, Note_on_c, 0, 51, 32
1, 134321, Note_on_c, 0, 44, 32
1, 134478, Note_on_c, 0, 60, 36
1, 134478, Note_on_c, 0, 63, 36
1, 134478, Note_on_c, 0, 44, 0
1, 134481, Note_on_c, 0, 51, 0
1, 134481, Note_on_c, 0, 54, 0
1, 134481, Note_on_c, 0, 54, 36
1, 134484, Note_on_c, 0, 51, 32
1, 134484, Note_on_c, 0, 44, 32
1, 134644, Note_on_c, 0, 63, 0
1, 134644, Note_on_c, 0, 60, 0
1, 134644, Note_on_c, 0, 68, 0
1, 134647, Note_on_c, 0, 66, 66
1, 134647, Note_on_c, 0, 44, 0
1, 134647, Note_on_c, 0, 51, 0
1, 134650, Note_on_c, 0, 54, 0
1, 134650, Note_on_c, 0, 44, 32
1, 134650, Note_on_c, 0, 51, 32
1, 134653, Note_on_c, 0, 54, 36
1, 134811, Note_on_c, 0, 60, 44
1, 134811, Note_on_c, 0, 63, 36
1, 134811, Note_on_c, 0, 54, 0
1, 134814, Note_on_c, 0, 51, 0
1, 134814, Note_on_c, 0, 44, 0
1, 134814, Note_on_c, 0, 51, 32
1, 134817, Note_on_c, 0, 44, 32
1, 134817, Note_on_c, 0, 54, 36
1, 134977, Note_on_c, 0, 63, 0
1, 134977, Note_on_c, 0, 60, 0
1, 134977, Note_on_c, 0, 66, 0
1, 134980, Note_on_c, 0, 64, 80
1, 134980, Note_on_c, 0, 54, 0
1, 134980, Note_on_c, 0, 44, 0
1, 134983, Note_on_c, 0, 51, 0
1, 134983, Note_on_c, 0, 32, 36
1, 134983, Control_c, 0, 64, 0
1, 135138, Note_on_c, 0, 56, 36
1, 135138, Note_on_c, 0, 61, 36
1, 135138, Note_on_c, 0, 32, 0
1, 135141, Note_on_c, 0, 52, 36
1, 135141, Note_on_c, 0, 49, 32
1, 135141, Note_on_c, 0, 44, 32
1, 135147, Control_c, 0, 64, 127
1, 135298, Note_on_c, 0, 61, 0
1, 135298, Note_on_c, 0, 56, 0
1, 135298, Note_on_c, 0, 64, 0
1, 135301, Note_on_c, 0, 68, 74
1, 135301, Note_on_c, 0, 44, 0
1, 135301, Note_on_c, 0, 49, 0
1, 135304, Note_on_c, 0, 52, 0
1, 135304, Note_on_c, 0, 44, 34
1, 135304, Note_on_c, 0, 49, 34
1, 135307, Note_on_c, 0, 52, 38
1, 135459, Note_on_c, 0, 64, 39
1, 135459, Note_on_c, 0, 61, 39
1, 135459, Note_on_c, 0, 52, 0
1, 135462, Note_on_c, 0, 49, 0
1, 135462, Note_on_c, 0, 44, 0
1, 135462, Note_on_c, 0, 44, 34
1, 135465, Note_on_c, 0, 49, 34
1, 135465, Note_on_c, 0, 52, 39
1, 135619, Note_on_c, 0, 61, 0
1, 135619, Note_on_c, 0, 64, 0
1, 135619, Note_on_c, 0, 68, 0
1, 135622, Note_on_c, 0, 73, 78
1, 135622, Note_on_c, 0, 52, 0
1, 135622, Note_on_c, 0, 49, 0
1, 135625, Note_on_c, 0, 44, 0
1, 135625, Note_on_c, 0, 44, 36
1, 135625, Note_on_c, 0, 49, 36
1, 135628, Note_on_c, 0, 52, 40
1, 135779, Note_on_c, 0, 64, 41
1, 135779, Note_on_c, 0, 68, 41
1, 135779, Note_on_c, 0, 52, 0
1, 135782, Note_on_c, 0, 49, 0
1, 135782, Note_on_c, 0, 44, 0
1, 135782, Note_on_c, 0, 52, 41
1, 135785, Note_on_c, 0, 44, 36
1, 135785, Note_on_c, 0, 49, 36
1, 135940, Note_on_c, 0, 68, 0
1, 135940, Note_on_c, 0, 64, 0
1, 135940, Note_on_c, 0, 73, 0
1, 135943, Note_on_c, 0, 76, 87
1, 135943, Note_on_c, 0, 49, 0
1, 135943, Note_on_c, 0, 44, 0
1, 135946, Note_on_c, 0, 52, 0
1, 135946, Note_on_c, 0, 44, 38
1, 135946, Note_on_c, 0, 49, 38
1, 135949, Note_on_c, 0, 52, 44
1, 136100, Note_on_c, 0, 68, 44
1, 136100, Note_on_c, 0, 73, 44
1, 136100, Note_on_c, 0, 52, 0
1, 136103, Note_on_c, 0, 49, 0
1, 136103, Note_on_c, 0, 44, 0
1, 136103, Note_on_c, 0, 49, 39
1, 136106, Note_on_c, 0, 44, 39
1, 136106, Note_on_c, 0, 52, 45
1, 136261, Note_on_c, 0, 73, 0
1, 136261, Note_on_c, 0, 68, 0
1, 136261, Note_on_c, 0, 76, 0
1, 136264, Note_on_c, 0, 80, 85
1, 136264, Note_on_c, 0, 52, 0
1, 136264, Note_on_c, 0, 44, 0
1, 136267, Note_on_c, 0, 49, 0
1, 136267, Note_on_c, 0, 44, 40
1, 136267, Note_on_c, 0, 49, 40
1, 136270, Note_on_c, 0, 52, 46
1, 136421, Note_on_c, 0, 73, 47
1, 136421, Note_on_c, 0, 76, 47
1, 136421, Note_on_c, 0, 52, 0
1, 136424, Note_on_c, 0, 49, 0
1, 136424, Note_on_c, 0, 44, 0
1, 136424, Note_on_c, 0, 52, 47
1, 136427, Note_on_c, 0, 44, 40
1, 136427, Note_on_c, 0, 49, 40
1, 136582, Note_on_c, 0, 76, 0
1, 136582, Note_on_c, 0, 73, 0
1, 136582, Note_on_c, 0, 80, 0
1, 136585, Note_on_c, 0, 85, 89
1, 136585, Note_on_c, 0, 49, 0
1, 136585, Note_on_c, 0, 44, 0
1, 136588, Note_on_c, 0, 52, 0
1, 136588, Note_on_c, 0, 44, 43
1, 136588, Note_on_c, 0, 49, 43
1, 136591, Note_on_c, 0, 52, 49
1, 136742, Note_on_c, 0, 76, 49
1, 136742, Note_on_c, 0, 80, 49
1, 136742, Note_on_c, 0, 52, 0
1, 136745, Note_on_c, 0, 49, 0
1, 136745, Note_on_c, 0, 44, 0
1, 136745, Note_on_c, 0, 52, 49
1, 136748, Note_on_c, 0, 44, 44
1, 136748, Note_on_c, 0, 49, 44
1, 136903, Note_on_c, 0, 80, 0
1, 136903, Note_on_c, 0, 76, 0
1, 136903, Note_on_c, 0, 85, 0
1, 136906, Note_on_c, 0, 87, 109
1, 136906, Note_on_c, 0, 49, 0
1, 136906, Note_on_c, 0, 44, 0
1, 136909, Note_on_c, 0, 52, 0
1, 136909, Note_on_c, 0, 33, 57
1, 136909, Control_c, 0, 64, 0
1, 137022, Control_c, 0, 64, 125
1, 137082, Note_on_c, 0, 75, 61
1, 137082, Note_on_c, 0, 79, 61
1, 137082, Note_on_c, 0, 33, 0
1, 137085, Note_on_c, 0, 52, 52
1, 137085, Note_on_c, 0, 49, 45
1, 137085, Note_on_c, 0, 45, 45
1, 137260, Note_on_c, 0, 79, 0
1, 137260, Note_on_c, 0, 75, 0
1, 137260, Note_on_c, 0, 87, 0
1, 137263, Note_on_c, 0, 88, 106
1, 137263, Note_on_c, 0, 45, 0
1, 137263, Note_on_c, 0, 49, 0
1, 137266, Note_on_c, 0, 52, 0
1, 137266, Note_on_c, 0, 45, 48
1, 137266, Note_on_c, 0, 49, 48
1, 137269, Note_on_c, 0, 52, 55
1, 137269, Control_c, 0, 64, 0
1, 137402, Control_c, 0, 64, 126
1, 137426, Note_on_c, 0, 79, 55
1, 137426, Note_on_c, 0, 76, 55
1, 137426, Note_on_c, 0, 52, 0
1, 137429, Note_on_c, 0, 49, 0
1, 137429, Note_on_c, 0, 45, 0
1, 137429, Note_on_c, 0, 52, 54
1, 137432, Note_on_c, 0, 45, 46
1, 137432, Note_on_c, 0, 49, 46
1, 137593, Note_on_c, 0, 76, 0
1, 137593, Note_on_c, 0, 79, 0
1, 137593, Note_on_c, 0, 79, 50
1, 137596, Note_on_c, 0, 76, 50
1, 137596, Note_on_c, 0, 49, 0
1, 137596, Note_on_c, 0, 45, 0
1, 137599, Note_on_c, 0, 52, 0
1, 137599, Note_on_c, 0, 52, 50
1, 137599, Note_on_c, 0, 45, 44
1, 137602, Note_on_c, 0, 49, 44
1, 137759, Note_on_c, 0, 76, 0
1, 137759, Note_on_c, 0, 79, 0
1, 137759, Note_on_c, 0, 79, 49
1, 137762, Note_on_c, 0, 76, 49
1, 137762, Note_on_c, 0, 49, 0
1, 137762, Note_on_c, 0, 45, 0
1, 137765, Note_on_c, 0, 52, 0
1, 137765, Note_on_c, 0, 52, 49
1, 137765, Note_on_c, 0, 45, 43
1, 137768, Note_on_c, 0, 49, 43
1, 137926, Note_on_c, 0, 76, 0
1, 137926, Note_on_c, 0, 79, 0
1, 137926, Note_on_c, 0, 79, 47
1, 137929, Note_on_c, 0, 76, 47
1, 137929, Note_on_c, 0, 49, 0
1, 137929, Note_on_c, 0, 45, 0
1, 137932, Note_on_c, 0, 52, 0
1, 137932, Note_on_c, 0, 52, 47
1, 137932, Note_on_c, 0, 45, 40
1, 137935, Note_on_c, 0, 49, 40
1, 138092, Note_on_c, 0, 76, 0
1, 138092, Note_on_c, 0, 79, 0
1, 138092, Note_on_c, 0, 76, 47
1, 138095, Note_on_c, 0, 79, 47
1, 138095, Note_on_c, 0, 49, 0
1, 138095, Note_on_c, 0, 45, 0
1, 138098, Note_on_c, 0, 52, 0
1, 138098, Note_on_c, 0, 45, 39
1, 138098, Note_on_c, 0, 49, 39
1, 138101, Note_on_c, 0, 52, 45
1, 138258, Note_on_c, 0, 79, 0
1, 138258, Note_on_c, 0, 76, 0
1, 138258, Note_on_c, 0, 88, 0
1, 138261, Note_on_c, 0, 87, 98
1, 138261, Note_on_c, 0, 52, 0
1, 138261, Note_on_c, 0, 49, 0
1, 138264, Note_on_c, 0, 45, 0
1, 138264, Note_on_c, 0, 51, 44
1, 138264, Note_on_c, 0, 45, 38
1, 138267, Control_c, 0, 64, 0
1, 138355, Control_c, 0, 64, 126
1, 138425, Note_on_c, 0, 75, 41
1, 138425, Note_on_c, 0, 79, 41
1, 138425, Note_on_c, 0, 45, 0
1, 138428, Note_on_c, 0, 51, 0
1, 138428, Note_on_c, 0, 51, 41
1, 138428, Note_on_c, 0, 45, 36
1, 138592, Note_on_c, 0, 79, 0
1, 138592, Note_on_c, 0, 75, 0
1, 138592, Note_on_c, 0, 87, 0
1, 138595, Note_on_c, 0, 85, 91
1, 138595, Note_on_c, 0, 45, 0
1, 138595, Note_on_c, 0, 51, 0
1, 138598, Note_on_c, 0, 51, 40
1, 138598, Note_on_c, 0, 45, 35
1, 138775, Note_on_c, 0, 73, 38
1, 138775, Note_on_c, 0, 79, 38
1, 138775, Note_on_c, 0, 45, 0
1, 138778, Note_on_c, 0, 51, 0
1, 138778, Note_on_c, 0, 51, 38
1, 138778, Note_on_c, 0, 45, 34
1, 138956, Note_on_c, 0, 79, 0
1, 138956, Note_on_c, 0, 73, 0
1, 138956, Note_on_c, 0, 85, 0
1, 138959, Note_on_c, 0, 85, 78
1, 138959, Note_on_c, 0, 45, 0
1, 138959, Note_on_c, 0, 51, 0
1, 138962, Note_on_c, 0, 32, 36
1, 138962, Control_c, 0, 64, 0
1, 139117, Note_on_c, 0, 75, 36
1, 139117, Note_on_c, 0, 80, 36
1, 139117, Note_on_c, 0, 32, 0
1, 139120, Control_c, 0, 64, 126
1, 139120, Note_on_c, 0, 44, 36
1, 139277, Note_on_c, 0, 80, 0
1, 139277, Note_on_c, 0, 75, 0
1, 139277, Note_on_c, 0, 85, 0
1, 139280, Note_on_c, 0, 84, 69
1, 139280, Note_on_c, 0, 44, 0
1, 139280, Note_on_c, 0, 48, 32
1, 139283, Note_on_c, 0, 51, 36
1, 139283, Note_on_c, 0, 44, 32
1, 139438, Note_on_c, 0, 75, 36
1, 139438, Note_on_c, 0, 80, 36
1, 139438, Note_on_c, 0, 44, 0
1, 139441, Note_on_c, 0, 51, 0
1, 139441, Note_on_c, 0, 48, 0
1, 139441, Note_on_c, 0, 48, 32
1, 139444, Note_on_c, 0, 51, 36
1, 139444, Note_on_c, 0, 44, 32
1, 139598, Note_on_c, 0, 80, 0
1, 139598, Note_on_c, 0, 75, 0
1, 139598, Note_on_c, 0, 84, 0
1, 139601, Note_on_c, 0, 80, 68
1, 139601, Note_on_c, 0, 44, 0
1, 139601, Note_on_c, 0, 51, 0
1, 139604, Note_on_c, 0, 48, 0
1, 139604, Note_on_c, 0, 48, 32
1, 139604, Note_on_c, 0, 51, 36
1, 139607, Note_on_c, 0, 44, 32
1, 139758, Note_on_c, 0, 72, 36
1, 139758, Note_on_c, 0, 75, 36
1, 139758, Note_on_c, 0, 44, 0
1, 139761, Note_on_c, 0, 51, 0
1, 139761, Note_on_c, 0, 48, 0
1, 139761, Note_on_c, 0, 48, 32
1, 139764, Note_on_c, 0, 51, 36
1, 139764, Note_on_c, 0, 44, 32
1, 139919, Note_on_c, 0, 75, 0
1, 139919, Note_on_c, 0, 72, 0
1, 139919, Note_on_c, 0, 80, 0
1, 139922, Note_on_c, 0, 75, 68
1, 139922, Note_on_c, 0, 44, 0
1, 139922, Note_on_c, 0, 51, 0
1, 139925, Note_on_c, 0, 48, 0
1, 139925, Note_on_c, 0, 48, 32
1, 139925, Note_on_c, 0, 51, 36
1, 139928, Note_on_c, 0, 44, 32
1, 140079, Note_on_c, 0, 68, 36
1, 140079, Note_on_c, 0, 72, 36
1, 140079, Note_on_c, 0, 44, 0
1, 140082, Note_on_c, 0, 51, 0
1, 140082, Note_on_c, 0, 48, 0
1, 140082, Note_on_c, 0, 48, 32
1, 140085, Note_on_c, 0, 51, 36
1, 140085, Note_on_c, 0, 44, 32
1, 140240, Note_on_c, 0, 72, 0
1, 140240, Note_on_c, 0, 68, 0
1, 140240, Note_on_c, 0, 75, 0
1, 140243, Note_on_c, 0, 72, 68
1, 140243, Note_on_c, 0, 44, 0
1, 140243, Note_on_c, 0, 51, 0
1, 140246, Note_on_c, 0, 48, 0
1, 140246, Note_on_c, 0, 48, 32
1, 140246, Note_on_c, 0, 51, 36
1, 140249, Note_on_c, 0, 44, 32
1, 140400, Note_on_c, 0, 63, 36
1, 140400, Note_on_c, 0, 68, 36
1, 140400, Note_on_c, 0, 44, 0
1, 140403, Note_on_c, 0, 51, 0
1, 140403, Note_on_c, 0, 48, 0
1, 140403, Note_on_c, 0, 48, 32
1, 140406, Note_on_c, 0, 51, 36
1, 140406, Note_on_c, 0, 44, 32
1, 140561, Note_on_c, 0, 68, 0
1, 140561, Note_on_c, 0, 63, 0
1, 140561, Note_on_c, 0, 72, 0
1, 140564, Note_on_c, 0, 68, 68
1, 140564, Note_on_c, 0, 44, 0
1, 140564, Note_on_c, 0, 51, 0
1, 140567, Note_on_c, 0, 48, 0
1, 140567, Note_on_c, 0, 48, 32
1, 140567, Note_on_c, 0, 51, 36
1, 140570, Note_on_c, 0, 44, 32
1, 140721, Note_on_c, 0, 60, 36
1, 140721, Note_on_c, 0, 63, 36
1, 140721, Note_on_c, 0, 44, 0
1, 140724, Note_on_c, 0, 51, 0
1, 140724, Note_on_c, 0, 48, 0
1, 140724, Note_on_c, 0, 48, 32
1, 140727, Note_on_c, 0, 51, 36
1, 140727, Note_on_c, 0, 44, 32
1, 140883, Note_on_c, 0, 63, 0
1, 140883, Note_on_c, 0, 60, 0
1, 140883, Note_on_c, 0, 68, 0
1, 140886, Note_on_c, 0, 68, 69
1, 140886, Note_on_c, 0, 44, 0
1, 140886, Note_on_c, 0, 51, 0
1, 140889, Note_on_c, 0, 48, 0
1, 140889, Note_on_c, 0, 32, 36
1, 140889, Control_c, 0, 64, 0
1, 140994, Control_c, 0, 64, 124
1, 141077, Note_on_c, 0, 63, 36
1, 141077, Note_on_c, 0, 60, 36
1, 141077, Note_on_c, 0, 32, 0
1, 141080, Note_on_c, 0, 54, 36
1, 141080, Note_on_c, 0, 51, 32
1, 141080, Note_on_c, 0, 44, 32
1, 141272, Note_on_c, 0, 60, 0
1, 141272, Note_on_c, 0, 63, 0
1, 141272, Note_on_c, 0, 68, 0
1, 141275, Note_on_c, 0, 69, 71
1, 141275, Note_on_c, 0, 44, 0
1, 141275, Note_on_c, 0, 51, 0
1, 141278, Note_on_c, 0, 54, 0
1, 141278, Note_on_c, 0, 54, 36
1, 141278, Note_on_c, 0, 51, 32
1, 141281, Note_on_c, 0, 44, 32
1, 141281, Control_c, 0, 64, 0
1, 141422, Control_c, 0, 64, 126
1, 141438, Note_on_c, 0, 60, 36
1, 141438, Note_on_c, 0, 63, 36
1, 141438, Note_on_c, 0, 44, 0
1, 141441, Note_on_c, 0, 51, 0
1, 141441, Note_on_c, 0, 54, 0
1, 141441, Note_on_c, 0, 54, 36
1, 141444, Note_on_c, 0, 51, 32
1, 141444, Note_on_c, 0, 44, 32
1, 141604, Note_on_c, 0, 63, 0
1, 141604, Note_on_c, 0, 60, 0
1, 141604, Note_on_c, 0, 60, 36
1, 141607, Note_on_c, 0, 63, 36
1, 141607, Note_on_c, 0, 44, 0
1, 141607, Note_on_c, 0, 51, 0
1, 141610, Note_on_c, 0, 54, 0
1, 141610, Note_on_c, 0, 44, 32
1, 141610, Note_on_c, 0, 51, 32
1, 141613, Note_on_c, 0, 54, 36
1, 141771, Note_on_c, 0, 63, 0
1, 141771, Note_on_c, 0, 60, 0
1, 141771, Note_on_c, 0, 60, 36
1, 141774, Note_on_c, 0, 63, 36
1, 141774, Note_on_c, 0, 54, 0
1, 141774, Note_on_c, 0, 51, 0
1, 141777, Note_on_c, 0, 44, 0
1, 141777, Note_on_c, 0, 51, 32
1, 141777, Note_on_c, 0, 44, 32
1, 141780, Note_on_c, 0, 54, 36
1, 141937, Note_on_c, 0, 63, 0
1, 141937, Note_on_c, 0, 60, 0
1, 141937, Note_on_c, 0, 60, 36
1, 141940, Note_on_c, 0, 63, 36
1, 141940, Note_on_c, 0, 54, 0
1, 141940, Note_on_c, 0, 44, 0
1, 141943, Note_on_c, 0, 51, 0
1, 141943, Note_on_c, 0, 44, 32
1, 141943, Note_on_c, 0, 51, 32
1, 141946, Note_on_c, 0, 54, 36
1, 142104, Note_on_c, 0, 63, 0
1, 142104, Note_on_c, 0, 60, 0
1, 142104, Note_on_c, 0, 60, 36
1, 142107, Note_on_c, 0, 63, 36
1, 142107, Note_on_c, 0, 54, 0
1, 142107, Note_on_c, 0, 51, 0
1, 142110, Note_on_c, 0, 44, 0
1, 142110, Note_on_c, 0, 54, 36
1, 142110, Note_on_c, 0, 51, 32
1, 142113, Note_on_c, 0, 44, 32
1, 142270, Note_on_c, 0, 63, 0
1, 142270, Note_on_c, 0, 60, 0
1, 142270, Note_on_c, 0, 69, 0
1, 142273, Note_on_c, 0, 68, 70
1, 142273, Note_on_c, 0, 44, 0
1, 142273, Note_on_c, 0, 51, 0
1, 142276, Note_on_c, 0, 54, 0
1, 142276, Note_on_c, 0, 54, 36
1, 142276, Note_on_c, 0, 51, 32
1, 142279, Note_on_c, 0, 44, 32
1, 142279, Control_c, 0, 64, 0
1, 142397, Control_c, 0, 64, 126
1, 142436, Note_on_c, 0, 60, 36
1, 142436, Note_on_c, 0, 63, 36
1, 142436, Note_on_c, 0, 44, 0
1, 142439, Note_on_c, 0, 51, 0
1, 142439, Note_on_c, 0, 54, 0
1, 142439, Note_on_c, 0, 54, 36
1, 142442, Note_on_c, 0, 51, 32
1, 142442, Note_on_c, 0, 44, 32
1, 142603, Note_on_c, 0, 63, 0
1, 142603, Note_on_c, 0, 60, 0
1, 142603, Note_on_c, 0, 68, 0
1, 142606, Note_on_c, 0, 66, 66
1, 142606, Note_on_c, 0, 44, 0
1, 142606, Note_on_c, 0, 51, 0
1, 142609, Note_on_c, 0, 54, 0
1, 142609, Note_on_c, 0, 44, 32
1, 142609, Note_on_c, 0, 51, 32
1, 142612, Note_on_c, 0, 54, 36
1, 142769, Note_on_c, 0, 60, 44
1, 142769, Note_on_c, 0, 63, 36
1, 142769, Note_on_c, 0, 54, 0
1, 142772, Note_on_c, 0, 51, 0
1, 142772, Note_on_c, 0, 44, 0
1, 142772, Note_on_c, 0, 51, 32
1, 142775, Note_on_c, 0, 44, 32
1, 142775, Note_on_c, 0, 54, 36
1, 142936, Note_on_c, 0, 63, 0
1, 142936, Note_on_c, 0, 60, 0
1, 142936, Note_on_c, 0, 66, 0
1, 142939, Note_on_c, 0, 64, 80
1, 142939, Note_on_c, 0, 54, 0
1, 142939, Note_on_c, 0, 44, 0
1, 142942, Note_on_c, 0, 51, 0
1, 142942, Note_on_c, 0, 32, 36
1, 142942, Control_c, 0, 64, 0
1, 143096, Note_on_c, 0, 56, 36
1, 143096, Note_on_c, 0, 61, 36
1, 143096, Note_on_c, 0, 32, 0
1, 143099, Note_on_c, 0, 52, 36
1, 143099, Note_on_c, 0, 49, 32
1, 143099, Note_on_c, 0, 44, 32
1, 143133, Control_c, 0, 64, 127
1, 143257, Note_on_c, 0, 61, 0
1, 143257, Note_on_c, 0, 56, 0
1, 143257, Note_on_c, 0, 64, 0
1, 143260, Note_on_c, 0, 68, 74
1, 143260, Note_on_c, 0, 44, 0
1, 143260, Note_on_c, 0, 49, 0
1, 143263, Note_on_c, 0, 52, 0
1, 143263, Note_on_c, 0, 44, 32
1, 143263, Note_on_c, 0, 49, 32
1, 143266, Note_on_c, 0, 52, 36
1, 143417, Note_on_c, 0, 64, 39
1, 143417, Note_on_c, 0, 61, 39
1, 143417, Note_on_c, 0, 52, 0
1, 143420, Note_on_c, 0, 49, 0
1, 143420, Note_on_c, 0, 44, 0
1, 143420, Note_on_c, 0, 44, 32
1, 143423, Note_on_c, 0, 49, 32
1, 143423, Note_on_c, 0, 52, 36
1, 143577, Note_on_c, 0, 61, 0
1, 143577, Note_on_c, 0, 64, 0
1, 143577, Note_on_c, 0, 68, 0
1, 143580, Note_on_c, 0, 73, 78
1, 143580, Note_on_c, 0, 52, 0
1, 143580, Note_on_c, 0, 49, 0
1, 143583, Note_on_c, 0, 44, 0
1, 143583, Note_on_c, 0, 44, 32
1, 143583, Note_on_c, 0, 49, 32
1, 143586, Note_on_c, 0, 52, 36
1, 143738, Note_on_c, 0, 64, 41
1, 143738, Note_on_c, 0, 68, 41
1, 143738, Note_on_c, 0, 52, 0
1, 143741, Note_on_c, 0, 49, 0
1, 143741, Note_on_c, 0, 44, 0
1, 143741, Note_on_c, 0, 44, 32
1, 143744, Note_on_c, 0, 49, 32
1, 143744, Note_on_c, 0, 52, 36
1, 143898, Note_on_c, 0, 68, 0
1, 143898, Note_on_c, 0, 64, 0
1, 143898, Note_on_c, 0, 73, 0
1, 143901, Note_on_c, 0, 76, 87
1, 143901, Note_on_c, 0, 52, 0
1, 143901, Note_on_c, 0, 49, 0
1, 143904, Note_on_c, 0, 44, 0
1, 143904, Note_on_c, 0, 44, 32
1, 143904, Note_on_c, 0, 49, 32
1, 143907, Note_on_c, 0, 52, 36
1, 144059, Note_on_c, 0, 68, 44
1, 144059, Note_on_c, 0, 73, 44
1, 144059, Note_on_c, 0, 52, 0
1, 144062, Note_on_c, 0, 49, 0
1, 144062, Note_on_c, 0, 44, 0
1, 144062, Note_on_c, 0, 49, 34
1, 144065, Note_on_c, 0, 44, 34
1, 144065, Note_on_c, 0, 52, 38
1, 144219, Note_on_c, 0, 73, 0
1, 144219, Note_on_c, 0, 68, 0
1, 144219, Note_on_c, 0, 76, 0
1, 144222, Note_on_c, 0, 80, 85
1, 144222, Note_on_c, 0, 52, 0
1, 144222, Note_on_c, 0, 44, 0
1, 144225, Note_on_c, 0, 49, 0
1, 144225, Note_on_c, 0, 44, 36
1, 144225, Note_on_c, 0, 49, 36
1, 144228, Note_on_c, 0, 52, 40
1, 144380, Note_on_c, 0, 73, 47
1, 144380, Note_on_c, 0, 76, 47
1, 144380, Note_on_c, 0, 52, 0
1, 144383, Note_on_c, 0, 49, 0
1, 144383, Note_on_c, 0, 44, 0
1, 144383, Note_on_c, 0, 44, 39
1, 144386, Note_on_c, 0, 49, 39
1, 144386, Note_on_c, 0, 52, 45
1, 144540, Note_on_c, 0, 76, 0
1, 144540, Note_on_c, 0, 73, 0
1, 144540, Note_on_c, 0, 80, 0
1, 144543, Note_on_c, 0, 85, 89
1, 144543, Note_on_c, 0, 52, 0
1, 144543, Note_on_c, 0, 49, 0
1, 144546, Note_on_c, 0, 44, 0
1, 144546, Note_on_c, 0, 44, 40
1, 144546, Note_on_c, 0, 49, 40
1, 144549, Note_on_c, 0, 52, 47
1, 144701, Note_on_c, 0, 76, 49
1, 144701, Note_on_c, 0, 80, 49
1, 144701, Note_on_c, 0, 52, 0
1, 144704, Note_on_c, 0, 49, 0
1, 144704, Note_on_c, 0, 44, 0
1, 144704, Note_on_c, 0, 44, 44
1, 144707, Note_on_c, 0, 49, 44
1, 144707, Note_on_c, 0, 52, 49
1, 144861, Note_on_c, 0, 80, 0
1, 144861, Note_on_c, 0, 76, 0
1, 144861, Note_on_c, 0, 85, 0
1, 144864, Note_on_c, 0, 87, 109
1, 144864, Note_on_c, 0, 52, 0
1, 144864, Note_on_c, 0, 49, 0
1, 144867, Note_on_c, 0, 44, 0
1, 144867, Note_on_c, 0, 33, 51
1, 144867, Control_c, 0, 64, 0
1, 144963, Control_c, 0, 64, 125
1, 145040, Note_on_c, 0, 75, 61
1, 145040, Note_on_c, 0, 79, 61
1, 145040, Note_on_c, 0, 33, 0
1, 145043, Note_on_c, 0, 52, 51
1, 145043, Note_on_c, 0, 49, 45
1, 145043, Note_on_c, 0, 45, 45
1, 145218, Note_on_c, 0, 79, 0
1, 145218, Note_on_c, 0, 75, 0
1, 145218, Note_on_c, 0, 87, 0
1, 145221, Note_on_c, 0, 88, 106
1, 145221, Note_on_c, 0, 45, 0
1, 145221, Note_on_c, 0, 49, 0
1, 145224, Note_on_c, 0, 52, 0
1, 145224, Note_on_c, 0, 45, 46
1, 145224, Note_on_c, 0, 49, 46
1, 145227, Note_on_c, 0, 52, 54
1, 145227, Control_c, 0, 64, 0
1, 145321, Control_c, 0, 64, 127
1, 145385, Note_on_c, 0, 79, 55
1, 145385, Note_on_c, 0, 76, 55
1, 145385, Note_on_c, 0, 52, 0
1, 145388, Note_on_c, 0, 49, 0
1, 145388, Note_on_c, 0, 45, 0
1, 145388, Note_on_c, 0, 45, 45
1, 145391, Note_on_c, 0, 49, 45
1, 145391, Note_on_c, 0, 52, 52
1, 145551, Note_on_c, 0, 76, 0
1, 145551, Note_on_c, 0, 79, 0
1, 145551, Note_on_c, 0, 79, 50
1, 145554, Note_on_c, 0, 76, 50
1, 145554, Note_on_c, 0, 52, 0
1, 145554, Note_on_c, 0, 49, 0
1, 145557, Note_on_c, 0, 45, 0
1, 145557, Note_on_c, 0, 45, 44
1, 145557, Note_on_c, 0, 49, 44
1, 145560, Note_on_c, 0, 52, 50
1, 145718, Note_on_c, 0, 76, 0
1, 145718, Note_on_c, 0, 79, 0
1, 145718, Note_on_c, 0, 79, 49
1, 145721, Note_on_c, 0, 76, 49
1, 145721, Note_on_c, 0, 52, 0
1, 145721, Note_on_c, 0, 49, 0
1, 145724, Note_on_c, 0, 45, 0
1, 145724, Note_on_c, 0, 45, 43
1, 145724, Note_on_c, 0, 49, 43
1, 145727, Note_on_c, 0, 52, 49
1, 145884, Note_on_c, 0, 76, 0
1, 145884, Note_on_c, 0, 79, 0
1, 145884, Note_on_c, 0, 79, 47
1, 145887, Note_on_c, 0, 76, 47
1, 145887, Note_on_c, 0, 52, 0
1, 145887, Note_on_c, 0, 49, 0
1, 145890, Note_on_c, 0, 45, 0
1, 145890, Note_on_c, 0, 45, 40
1, 145890, Note_on_c, 0, 49, 40
1, 145893, Note_on_c, 0, 52, 47
1, 146050, Note_on_c, 0, 76, 0
1, 146050, Note_on_c, 0, 79, 0
1, 146050, Note_on_c, 0, 76, 47
1, 146053, Note_on_c, 0, 79, 47
1, 146053, Note_on_c, 0, 52, 0
1, 146053, Note_on_c, 0, 49, 0
1, 146056, Note_on_c, 0, 45, 0
1, 146056, Note_on_c, 0, 45, 39
1, 146056, Note_on_c, 0, 49, 39
1, 146059, Note_on_c, 0, 52, 45
1, 146217, Note_on_c, 0, 79, 0
1, 146217, Note_on_c, 0, 76, 0
1, 146217, Note_on_c, 0, 88, 0
1, 146220, Note_on_c, 0, 87, 98
1, 146220, Note_on_c, 0, 52, 0
1, 146220, Note_on_c, 0, 49, 0
1, 146223, Note_on_c, 0, 45, 0
1, 146223, Note_on_c, 0, 45, 38
1, 146223, Note_on_c, 0, 49, 38
1, 146226, Note_on_c, 0, 52, 44
1, 146226, Control_c, 0, 64, 0
1, 146320, Control_c, 0, 64, 127
1, 146383, Note_on_c, 0, 75, 41
1, 146383, Note_on_c, 0, 79, 41
1, 146383, Note_on_c, 0, 52, 0
1, 146386, Note_on_c, 0, 49, 0
1, 146386, Note_on_c, 0, 45, 0
1, 146386, Note_on_c, 0, 45, 36
1, 146389, Note_on_c, 0, 49, 36
1, 146389, Note_on_c, 0, 52, 41
1, 146550, Note_on_c, 0, 79, 0
1, 146550, Note_on_c, 0, 75, 0
1, 146550, Note_on_c, 0, 87, 0
1, 146553, Note_on_c, 0, 85, 91
1, 146553, Note_on_c, 0, 52, 0
1, 146553, Note_on_c, 0, 49, 0
1, 146556, Note_on_c, 0, 45, 0
1, 146556, Note_on_c, 0, 45, 35
1, 146556, Note_on_c, 0, 49, 35
1, 146559, Note_on_c, 0, 52, 40
1, 146716, Note_on_c, 0, 73, 38
1, 146716, Note_on_c, 0, 79, 38
1, 146716, Note_on_c, 0, 52, 0
1, 146719, Note_on_c, 0, 49, 0
1, 146719, Note_on_c, 0, 45, 0
1, 146719, Note_on_c, 0, 45, 34
1, 146722, Note_on_c, 0, 49, 34
1, 146722, Note_on_c, 0, 52, 38
1, 146882, Note_on_c, 0, 79, 0
1, 146882, Note_on_c, 0, 73, 0
1, 146882, Note_on_c, 0, 85, 0
1, 146885, Note_on_c, 0, 85, 81
1, 146885, Note_on_c, 0, 52, 0
1, 146885, Note_on_c, 0, 49, 0
1, 146888, Note_on_c, 0, 45, 0
1, 146888, Note_on_c, 0, 32, 37
1, 146888, Control_c, 0, 64, 0
1, 147049, Note_on_c, 0, 73, 33
1, 147049, Note_on_c, 0, 76, 33
1, 147049, Note_on_c, 0, 80, 37
1, 147052, Note_on_c, 0, 32, 0
1, 147052, Note_on_c, 0, 52, 36
1, 147052, Note_on_c, 0, 49, 32
1, 147055, Note_on_c, 0, 44, 32
1, 147068, Control_c, 0, 64, 125
1, 147215, Note_on_c, 0, 80, 0
1, 147215, Note_on_c, 0, 76, 0
1, 147215, Note_on_c, 0, 73, 0
1, 147218, Note_on_c, 0, 73, 33
1, 147218, Note_on_c, 0, 76, 33
1, 147218, Note_on_c, 0, 80, 37
1, 147221, Note_on_c, 0, 44, 0
1, 147221, Note_on_c, 0, 49, 0
1, 147221, Note_on_c, 0, 52, 0
1, 147224, Note_on_c, 0, 52, 36
1, 147224, Note_on_c, 0, 49, 32
1, 147224, Note_on_c, 0, 44, 32
1, 147382, Note_on_c, 0, 80, 0
1, 147382, Note_on_c, 0, 76, 0
1, 147382, Note_on_c, 0, 73, 0
1, 147385, Note_on_c, 0, 73, 33
1, 147385, Note_on_c, 0, 76, 33
1, 147385, Note_on_c, 0, 80, 37
1, 147388, Note_on_c, 0, 44, 0
1, 147388, Note_on_c, 0, 49, 0
1, 147388, Note_on_c, 0, 52, 0
1, 147391, Note_on_c, 0, 52, 36
1, 147391, Note_on_c, 0, 49, 32
1, 147391, Note_on_c, 0, 44, 32
1, 147548, Note_on_c, 0, 80, 0
1, 147548, Note_on_c, 0, 76, 0
1, 147548, Note_on_c, 0, 73, 0
1, 147551, Note_on_c, 0, 73, 33
1, 147551, Note_on_c, 0, 76, 33
1, 147551, Note_on_c, 0, 80, 37
1, 147554, Note_on_c, 0, 44, 0
1, 147554, Note_on_c, 0, 49, 0
1, 147554, Note_on_c, 0, 52, 0
1, 147557, Note_on_c, 0, 52, 36
1, 147557, Note_on_c, 0, 49, 32
1, 147557, Note_on_c, 0, 44, 32
1, 147714, Note_on_c, 0, 80, 0
1, 147714, Note_on_c, 0, 76, 0
1, 147714, Note_on_c, 0, 73, 0
1, 147717, Note_on_c, 0, 73, 30
1, 147717, Note_on_c, 0, 76, 30
1, 147717, Note_on_c, 0, 80, 35
1, 147720, Note_on_c, 0, 44, 0
1, 147720, Note_on_c, 0, 49, 0
1, 147720, Note_on_c, 0, 52, 0
1, 147723, Note_on_c, 0, 52, 36
1, 147723, Note_on_c, 0, 49, 32
1, 147723, Note_on_c, 0, 44, 32
1, 147881, Note_on_c, 0, 80, 0
1, 147881, Note_on_c, 0, 85, 0
1, 147881, Note_on_c, 0, 73, 0
1, 147884, Note_on_c, 0, 76, 0
1, 147884, Note_on_c, 0, 80, 70
1, 147884, Note_on_c, 0, 44, 0
1, 147887, Note_on_c, 0, 49, 0
1, 147887, Note_on_c, 0, 52, 0
1, 147887, Note_on_c, 0, 32, 36
1, 147890, Control_c, 0, 64, 0
1, 148015, Control_c, 0, 64, 126
1, 148047, Note_on_c, 0, 72, 32
1, 148047, Note_on_c, 0, 75, 32
1, 148047, Note_on_c, 0, 32, 0
1, 148050, Note_on_c, 0, 51, 34
1, 148050, Note_on_c, 0, 48, 29
1, 148050, Note_on_c, 0, 44, 29
1, 148214, Note_on_c, 0, 75, 0
1, 148214, Note_on_c, 0, 72, 0
1, 148214, Note_on_c, 0, 72, 30
1, 148217, Note_on_c, 0, 75, 30
1, 148217, Note_on_c, 0, 44, 0
1, 148217, Note_on_c, 0, 48, 0
1, 148220, Note_on_c, 0, 51, 0
1, 148220, Note_on_c, 0, 51, 34
1, 148220, Note_on_c, 0, 48, 29
1, 148223, Note_on_c, 0, 44, 29
1, 148380, Note_on_c, 0, 75, 0
1, 148380, Note_on_c, 0, 72, 0
1, 148380, Note_on_c, 0, 72, 30
1, 148383, Note_on_c, 0, 75, 30
1, 148383, Note_on_c, 0, 44, 0
1, 148383, Note_on_c, 0, 48, 0
1, 148386, Note_on_c, 0, 51, 0
1, 148386, Note_on_c, 0, 51, 32
1, 148386, Note_on_c, 0, 48, 28
1, 148389, Note_on_c, 0, 44, 28
1, 148546, Note_on_c, 0, 75, 0
1, 148546, Note_on_c, 0, 72, 0
1, 148546, Note_on_c, 0, 72, 30
1, 148549, Note_on_c, 0, 75, 30
1, 148549, Note_on_c, 0, 44, 0
1, 148549, Note_on_c, 0, 48, 0
1, 148552, Note_on_c, 0, 51, 0
1, 148552, Note_on_c, 0, 51, 32
1, 148552, Note_on_c, 0, 48, 27
1, 148555, Note_on_c, 0, 44, 27
1, 148750, Note_on_c, 0, 75, 0
1, 148750, Note_on_c, 0, 72, 0
1, 148750, Note_on_c, 0, 72, 30
1, 148753, Note_on_c, 0, 75, 30
1, 148753, Note_on_c, 0, 44, 0
1, 148753, Note_on_c, 0, 48, 0
1, 148756, Note_on_c, 0, 51, 0
1, 148756, Note_on_c, 0, 51, 32
1, 148756, Note_on_c, 0, 48, 27
1, 148759, Note_on_c, 0, 44, 27
1, 148955, Note_on_c, 0, 75, 0
1, 148955, Note_on_c, 0, 72, 0
1, 148955, Note_on_c, 0, 80, 0
1, 148958, Note_on_c, 0, 68, 58
1, 148958, Note_on_c, 0, 44, 0
1, 148958, Note_on_c, 0, 48, 0
1, 148961, Note_on_c, 0, 51, 0
1, 148961, Note_on_c, 0, 37, 52
1, 148961, Control_c, 0, 64, 0
1, 148964, Control_c, 0, 91, 127
1, 148967, Control_c, 0, 91, 127
1, 149070, Control_c, 0, 64, 126
1, 149127, Note_on_c, 0, 65, 37
1, 149127, Note_on_c, 0, 56, 37
1, 149127, Note_on_c, 0, 37, 0
1, 149130, Note_on_c, 0, 53, 36
1, 149130, Note_on_c, 0, 49, 32
1, 149130, Note_on_c, 0, 44, 32
1, 149298, Note_on_c, 0, 56, 0
1, 149298, Note_on_c, 0, 65, 0
1, 149298, Note_on_c, 0, 65, 36
1, 149301, Note_on_c, 0, 56, 36
1, 149301, Note_on_c, 0, 44, 0
1, 149301, Note_on_c, 0, 49, 0
1, 149304, Note_on_c, 0, 53, 0
1, 149304, Note_on_c, 0, 53, 36
1, 149304, Note_on_c, 0, 44, 32
1, 149307, Note_on_c, 0, 49, 32
1, 149465, Note_on_c, 0, 56, 0
1, 149465, Note_on_c, 0, 65, 0
1, 149465, Note_on_c, 0, 65, 36
1, 149468, Note_on_c, 0, 56, 36
1, 149468, Note_on_c, 0, 49, 0
1, 149468, Note_on_c, 0, 44, 0
1, 149471, Note_on_c, 0, 53, 0
1, 149471, Note_on_c, 0, 53, 36
1, 149471, Note_on_c, 0, 44, 32
1, 149474, Note_on_c, 0, 49, 32
1, 149631, Note_on_c, 0, 56, 0
1, 149631, Note_on_c, 0, 65, 0
1, 149631, Note_on_c, 0, 65, 36
1, 149634, Note_on_c, 0, 56, 36
1, 149634, Note_on_c, 0, 49, 0
1, 149634, Note_on_c, 0, 44, 0
1, 149637, Note_on_c, 0, 53, 0
1, 149637, Note_on_c, 0, 53, 36
1, 149637, Note_on_c, 0, 44, 32
1, 149640, Note_on_c, 0, 49, 32
1, 149798, Note_on_c, 0, 56, 0
1, 149798, Note_on_c, 0, 65, 0
1, 149798, Note_on_c, 0, 65, 36
1, 149801, Note_on_c, 0, 56, 36
1, 149801, Note_on_c, 0, 49, 0
1, 149801, Note_on_c, 0, 44, 0
1, 149804, Note_on_c, 0, 53, 0
1, 149804, Note_on_c, 0, 53, 36
1, 149804, Note_on_c, 0, 44, 32
1, 149807, Note_on_c, 0, 49, 32
1, 149964, Note_on_c, 0, 56, 0
1, 149964, Note_on_c, 0, 65, 0
1, 149964, Note_on_c, 0, 68, 0
1, 149967, Note_on_c, 0, 68, 55
1, 149967, Note_on_c, 0, 49, 0
1, 149967, Note_on_c, 0, 44, 0
1, 149970, Note_on_c, 0, 53, 0
1, 149970, Note_on_c, 0, 53, 36
1, 149970, Note_on_c, 0, 44, 32
1, 149973, Note_on_c, 0, 49, 32
1, 149973, Control_c, 0, 64, 0
1, 150079, Control_c, 0, 64, 125
1, 150151, Note_on_c, 0, 65, 36
1, 150151, Note_on_c, 0, 56, 36
1, 150151, Note_on_c, 0, 49, 0
1, 150154, Note_on_c, 0, 44, 0
1, 150154, Note_on_c, 0, 53, 0
1, 150154, Note_on_c, 0, 53, 36
1, 150157, Note_on_c, 0, 44, 32
1, 150157, Note_on_c, 0, 49, 32
1, 150338, Note_on_c, 0, 56, 0
1, 150338, Note_on_c, 0, 65, 0
1, 150338, Note_on_c, 0, 68, 0
1, 150341, Note_on_c, 0, 70, 62
1, 150341, Note_on_c, 0, 49, 0
1, 150341, Note_on_c, 0, 44, 0
1, 150344, Note_on_c, 0, 53, 0
1, 150344, Note_on_c, 0, 53, 36
1, 150344, Note_on_c, 0, 44, 32
1, 150347, Note_on_c, 0, 49, 32
1, 150499, Note_on_c, 0, 58, 37
1, 150499, Note_on_c, 0, 65, 37
1, 150499, Note_on_c, 0, 49, 0
1, 150502, Note_on_c, 0, 44, 0
1, 150502, Note_on_c, 0, 53, 0
1, 150502, Note_on_c, 0, 53, 36
1, 150505, Note_on_c, 0, 44, 32
1, 150505, Note_on_c, 0, 49, 32
1, 150659, Note_on_c, 0, 65, 0
1, 150659, Note_on_c, 0, 58, 0
1, 150659, Note_on_c, 0, 70, 0
1, 150662, Note_on_c, 0, 68, 55
1, 150662, Note_on_c, 0, 49, 0
1, 150662, Note_on_c, 0, 44, 0
1, 150665, Note_on_c, 0, 53, 0
1, 150665, Note_on_c, 0, 53, 36
1, 150665, Note_on_c, 0, 44, 32
1, 150668, Note_on_c, 0, 49, 32
1, 150826, Note_on_c, 0, 65, 36
1, 150826, Note_on_c, 0, 56, 36
1, 150826, Note_on_c, 0, 49, 0
1, 150829, Note_on_c, 0, 44, 0
1, 150829, Note_on_c, 0, 53, 0
1, 150829, Note_on_c, 0, 53, 36
1, 150832, Note_on_c, 0, 49, 32
1, 150832, Note_on_c, 0, 44, 32
1, 150992, Note_on_c, 0, 56, 0
1, 150992, Note_on_c, 0, 65, 0
1, 150992, Note_on_c, 0, 68, 0
1, 150995, Note_on_c, 0, 70, 67
1, 150995, Note_on_c, 0, 44, 0
1, 150995, Note_on_c, 0, 49, 0
1, 150998, Note_on_c, 0, 53, 0
1, 150998, Note_on_c, 0, 36, 51
1, 150998, Control_c, 0, 64, 0
1, 151135, Control_c, 0, 64, 126
1, 151159, Note_on_c, 0, 56, 36
1, 151159, Note_on_c, 0, 66, 36
1, 151159, Note_on_c, 0, 36, 0
1, 151162, Note_on_c, 0, 51, 32
1, 151162, Note_on_c, 0, 54, 36
1, 151162, Note_on_c, 0, 44, 32
1, 151326, Note_on_c, 0, 66, 0
1, 151326, Note_on_c, 0, 56, 0
1, 151326, Note_on_c, 0, 56, 36
1, 151329, Note_on_c, 0, 66, 36
1, 151329, Note_on_c, 0, 44, 0
1, 151329, Note_on_c, 0, 54, 0
1, 151332, Note_on_c, 0, 51, 0
1, 151332, Note_on_c, 0, 44, 32
1, 151332, Note_on_c, 0, 51, 32
1, 151335, Note_on_c, 0, 54, 36
1, 151493, Note_on_c, 0, 66, 0
1, 151493, Note_on_c, 0, 56, 0
1, 151493, Note_on_c, 0, 56, 36
1, 151496, Note_on_c, 0, 66, 36
1, 151496, Note_on_c, 0, 54, 0
1, 151496, Note_on_c, 0, 51, 0
1, 151499, Note_on_c, 0, 44, 0
1, 151499, Note_on_c, 0, 44, 32
1, 151499, Note_on_c, 0, 51, 32
1, 151502, Note_on_c, 0, 54, 36
1, 151660, Note_on_c, 0, 66, 0
1, 151660, Note_on_c, 0, 56, 0
1, 151660, Note_on_c, 0, 56, 36
1, 151663, Note_on_c, 0, 66, 36
1, 151663, Note_on_c, 0, 54, 0
1, 151663, Note_on_c, 0, 51, 0
1, 151666, Note_on_c, 0, 44, 0
1, 151666, Note_on_c, 0, 44, 32
1, 151666, Note_on_c, 0, 51, 32
1, 151669, Note_on_c, 0, 54, 36
1, 151827, Note_on_c, 0, 66, 0
1, 151827, Note_on_c, 0, 56, 0
1, 151827, Note_on_c, 0, 56, 36
1, 151830, Note_on_c, 0, 66, 36
1, 151830, Note_on_c, 0, 54, 0
1, 151830, Note_on_c, 0, 51, 0
1, 151833, Note_on_c, 0, 44, 0
1, 151833, Note_on_c, 0, 44, 32
1, 151833, Note_on_c, 0, 51, 32
1, 151836, Note_on_c, 0, 54, 36
1, 151994, Note_on_c, 0, 66, 0
1, 151994, Note_on_c, 0, 56, 0
1, 151994, Note_on_c, 0, 70, 0
1, 151997, Note_on_c, 0, 68, 60
1, 151997, Note_on_c, 0, 54, 0
1, 151997, Note_on_c, 0, 51, 0
1, 152000, Note_on_c, 0, 44, 0
1, 152000, Note_on_c, 0, 44, 32
1, 152000, Note_on_c, 0, 51, 32
1, 152003, Note_on_c, 0, 54, 36
1, 152003, Control_c, 0, 64, 0
1, 152102, Control_c, 0, 64, 125
1, 152161, Note_on_c, 0, 56, 38
1, 152161, Note_on_c, 0, 66, 38
1, 152161, Note_on_c, 0, 54, 0
1, 152164, Note_on_c, 0, 51, 0
1, 152164, Note_on_c, 0, 44, 0
1, 152164, Note_on_c, 0, 44, 32
1, 152167, Note_on_c, 0, 51, 32
1, 152167, Note_on_c, 0, 54, 36
1, 152328, Note_on_c, 0, 66, 0
1, 152328, Note_on_c, 0, 56, 0
1, 152328, Note_on_c, 0, 56, 39
1, 152331, Note_on_c, 0, 66, 39
1, 152331, Note_on_c, 0, 54, 0
1, 152331, Note_on_c, 0, 51, 0
1, 152334, Note_on_c, 0, 44, 0
1, 152334, Note_on_c, 0, 44, 32
1, 152334, Note_on_c, 0, 51, 32
1, 152337, Note_on_c, 0, 54, 36
1, 152495, Note_on_c, 0, 66, 0
1, 152495, Note_on_c, 0, 56, 0
1, 152495, Note_on_c, 0, 56, 39
1, 152498, Note_on_c, 0, 66, 39
1, 152498, Note_on_c, 0, 54, 0
1, 152498, Note_on_c, 0, 51, 0
1, 152501, Note_on_c, 0, 44, 0
1, 152501, Note_on_c, 0, 44, 32
1, 152501, Note_on_c, 0, 51, 32
1, 152504, Note_on_c, 0, 54, 36
1, 152662, Note_on_c, 0, 66, 0
1, 152662, Note_on_c, 0, 56, 0
1, 152662, Note_on_c, 0, 56, 39
1, 152665, Note_on_c, 0, 66, 39
1, 152665, Note_on_c, 0, 54, 0
1, 152665, Note_on_c, 0, 51, 0
1, 152668, Note_on_c, 0, 44, 0
1, 152668, Note_on_c, 0, 51, 32
1, 152668, Note_on_c, 0, 44, 32
1, 152671, Note_on_c, 0, 54, 36
1, 152829, Note_on_c, 0, 66, 0
1, 152829, Note_on_c, 0, 56, 0
1, 152829, Note_on_c, 0, 56, 39
1, 152832, Note_on_c, 0, 66, 39
1, 152832, Note_on_c, 0, 54, 0
1, 152832, Note_on_c, 0, 44, 0
1, 152835, Note_on_c, 0, 51, 0
1, 152835, Note_on_c, 0, 44, 32
1, 152835, Note_on_c, 0, 51, 32
1, 152838, Note_on_c, 0, 54, 36
1, 152996, Note_on_c, 0, 66, 0
1, 152996, Note_on_c, 0, 56, 0
1, 152996, Note_on_c, 0, 68, 0
1, 152999, Note_on_c, 0, 68, 62
1, 152999, Note_on_c, 0, 54, 0
1, 152999, Note_on_c, 0, 51, 0
1, 153002, Note_on_c, 0, 44, 0
1, 153002, Note_on_c, 0, 37, 50
1, 153002, Control_c, 0, 64, 0
1, 153131, Control_c, 0, 64, 126
1, 153163, Note_on_c, 0, 65, 36
1, 153163, Note_on_c, 0, 56, 36
1, 153163, Note_on_c, 0, 37, 0
1, 153166, Note_on_c, 0, 53, 36
1, 153166, Note_on_c, 0, 49, 32
1, 153166, Note_on_c, 0, 44, 32
1, 153330, Note_on_c, 0, 56, 0
1, 153330, Note_on_c, 0, 65, 0
1, 153330, Note_on_c, 0, 65, 36
1, 153333, Note_on_c, 0, 56, 36
1, 153333, Note_on_c, 0, 44, 0
1, 153333, Note_on_c, 0, 49, 0
1, 153336, Note_on_c, 0, 53, 0
1, 153336, Note_on_c, 0, 53, 36
1, 153336, Note_on_c, 0, 44, 32
1, 153339, Note_on_c, 0, 49, 32
1, 153497, Note_on_c, 0, 56, 0
1, 153497, Note_on_c, 0, 65, 0
1, 153497, Note_on_c, 0, 65, 36
1, 153500, Note_on_c, 0, 56, 36
1, 153500, Note_on_c, 0, 49, 0
1, 153500, Note_on_c, 0, 44, 0
1, 153503, Note_on_c, 0, 53, 0
1, 153503, Note_on_c, 0, 53, 36
1, 153503, Note_on_c, 0, 44, 32
1, 153506, Note_on_c, 0, 49, 32
1, 153664, Note_on_c, 0, 56, 0
1, 153664, Note_on_c, 0, 65, 0
1, 153664, Note_on_c, 0, 65, 36
1, 153667, Note_on_c, 0, 56, 36
1, 153667, Note_on_c, 0, 49, 0
1, 153667, Note_on_c, 0, 44, 0
1, 153670, Note_on_c, 0, 53, 0
1, 153670, Note_on_c, 0, 53, 36
1, 153670, Note_on_c, 0, 44, 32
1, 153673, Note_on_c, 0, 49, 32
1, 153831, Note_on_c, 0, 56, 0
1, 153831, Note_on_c, 0, 65, 0
1, 153831, Note_on_c, 0, 65, 37
1, 153834, Note_on_c, 0, 56, 37
1, 153834, Note_on_c, 0, 49, 0
1, 153834, Note_on_c, 0, 44, 0
1, 153837, Note_on_c, 0, 53, 0
1, 153837, Note_on_c, 0, 53, 36
1, 153837, Note_on_c, 0, 44, 32
1, 153840, Note_on_c, 0, 49, 32
1, 153998, Note_on_c, 0, 56, 0
1, 153998, Note_on_c, 0, 65, 0
1, 153998, Note_on_c, 0, 68, 0
1, 154001, Note_on_c, 0, 77, 74
1, 154001, Note_on_c, 0, 49, 0
1, 154001, Note_on_c, 0, 44, 0
1, 154004, Note_on_c, 0, 53, 0
1, 154004, Note_on_c, 0, 53, 36
1, 154004, Note_on_c, 0, 44, 32
1, 154007, Note_on_c, 0, 49, 32
1, 154007, Control_c, 0, 64, 1
1, 154113, Control_c, 0, 64, 125
1, 154159, Note_on_c, 0, 65, 38
1, 154159, Note_on_c, 0, 68, 38
1, 154159, Note_on_c, 0, 49, 0
1, 154162, Note_on_c, 0, 44, 0
1, 154162, Note_on_c, 0, 53, 0
1, 154162, Note_on_c, 0, 53, 36
1, 154165, Note_on_c, 0, 44, 32
1, 154165, Note_on_c, 0, 49, 32
1, 154319, Note_on_c, 0, 68, 0
1, 154319, Note_on_c, 0, 65, 0
1, 154319, Note_on_c, 0, 77, 0
1, 154322, Note_on_c, 0, 75, 69
1, 154322, Note_on_c, 0, 49, 0
1, 154322, Note_on_c, 0, 44, 0
1, 154325, Note_on_c, 0, 53, 0
1, 154325, Note_on_c, 0, 53, 36
1, 154325, Note_on_c, 0, 44, 32
1, 154328, Note_on_c, 0, 49, 32
1, 154480, Note_on_c, 0, 63, 37
1, 154480, Note_on_c, 0, 68, 37
1, 154480, Note_on_c, 0, 49, 0
1, 154483, Note_on_c, 0, 44, 0
1, 154483, Note_on_c, 0, 53, 0
1, 154483, Note_on_c, 0, 53, 36
1, 154486, Note_on_c, 0, 44, 32
1, 154486, Note_on_c, 0, 49, 32
1, 154640, Note_on_c, 0, 68, 0
1, 154640, Note_on_c, 0, 63, 0
1, 154640, Note_on_c, 0, 75, 0
1, 154643, Note_on_c, 0, 73, 70
1, 154643, Note_on_c, 0, 49, 0
1, 154643, Note_on_c, 0, 44, 0
1, 154646, Note_on_c, 0, 53, 0
1, 154646, Note_on_c, 0, 53, 36
1, 154646, Note_on_c, 0, 44, 32
1, 154649, Note_on_c, 0, 49, 32
1, 154835, Note_on_c, 0, 61, 37
1, 154835, Note_on_c, 0, 68, 37
1, 154835, Note_on_c, 0, 49, 0
1, 154838, Note_on_c, 0, 44, 0
1, 154838, Note_on_c, 0, 53, 0
1, 154838, Note_on_c, 0, 53, 36
1, 154841, Note_on_c, 0, 49, 32
1, 154841, Note_on_c, 0, 44, 32
1, 155032, Note_on_c, 0, 68, 0
1, 155032, Note_on_c, 0, 61, 0
1, 155032, Note_on_c, 0, 73, 0
1, 155035, Note_on_c, 0, 73, 70
1, 155035, Note_on_c, 0, 44, 0
1, 155035, Note_on_c, 0, 49, 0
1, 155038, Note_on_c, 0, 53, 0
1, 155038, Note_on_c, 0, 39, 49
1, 155038, Control_c, 0, 64, 0
1, 155199, Note_on_c, 0, 61, 37
1, 155199, Note_on_c, 0, 68, 37
1, 155199, Note_on_c, 0, 39, 0
1, 155202, Note_on_c, 0, 51, 32
1, 155202, Note_on_c, 0, 54, 36
1, 155202, Note_on_c, 0, 44, 32
1, 155218, Control_c, 0, 64, 126
1, 155365, Note_on_c, 0, 68, 0
1, 155365, Note_on_c, 0, 61, 0
1, 155365, Note_on_c, 0, 61, 37
1, 155368, Note_on_c, 0, 68, 37
1, 155368, Note_on_c, 0, 44, 0
1, 155368, Note_on_c, 0, 54, 0
1, 155371, Note_on_c, 0, 51, 0
1, 155371, Note_on_c, 0, 44, 32
1, 155371, Note_on_c, 0, 51, 32
1, 155374, Note_on_c, 0, 54, 36
1, 155532, Note_on_c, 0, 68, 0
1, 155532, Note_on_c, 0, 61, 0
1, 155532, Note_on_c, 0, 61, 37
1, 155535, Note_on_c, 0, 68, 37
1, 155535, Note_on_c, 0, 54, 0
1, 155535, Note_on_c, 0, 51, 0
1, 155538, Note_on_c, 0, 44, 0
1, 155538, Note_on_c, 0, 44, 32
1, 155538, Note_on_c, 0, 51, 32
1, 155541, Note_on_c, 0, 54, 36
1, 155698, Note_on_c, 0, 68, 0
1, 155698, Note_on_c, 0, 61, 0
1, 155698, Note_on_c, 0, 61, 37
1, 155701, Note_on_c, 0, 68, 37
1, 155701, Note_on_c, 0, 54, 0
1, 155701, Note_on_c, 0, 51, 0
1, 155704, Note_on_c, 0, 44, 0
1, 155704, Note_on_c, 0, 44, 32
1, 155704, Note_on_c, 0, 51, 32
1, 155707, Note_on_c, 0, 54, 36
1, 155865, Note_on_c, 0, 68, 0
1, 155865, Note_on_c, 0, 61, 0
1, 155865, Note_on_c, 0, 61, 37
1, 155868, Note_on_c, 0, 68, 37
1, 155868, Note_on_c, 0, 54, 0
1, 155868, Note_on_c, 0, 51, 0
1, 155871, Note_on_c, 0, 44, 0
1, 155871, Note_on_c, 0, 44, 32
1, 155871, Note_on_c, 0, 51, 32
1, 155874, Note_on_c, 0, 54, 36
1, 156031, Note_on_c, 0, 68, 0
1, 156031, Note_on_c, 0, 61, 0
1, 156031, Note_on_c, 0, 73, 0
1, 156034, Note_on_c, 0, 72, 71
1, 156034, Note_on_c, 0, 54, 0
1, 156034, Note_on_c, 0, 51, 0
1, 156037, Note_on_c, 0, 44, 0
1, 156037, Note_on_c, 0, 44, 32
1, 156037, Note_on_c, 0, 51, 32
1, 156040, Note_on_c, 0, 54, 36
1, 156040, Control_c, 0, 64, 0
1, 156134, Control_c, 0, 64, 125
1, 156197, Note_on_c, 0, 60, 37
1, 156197, Note_on_c, 0, 68, 37
1, 156197, Note_on_c, 0, 54, 0
1, 156200, Note_on_c, 0, 51, 0
1, 156200, Note_on_c, 0, 44, 0
1, 156200, Note_on_c, 0, 44, 32
1, 156203, Note_on_c, 0, 51, 32
1, 156203, Note_on_c, 0, 54, 36
1, 156364, Note_on_c, 0, 68, 0
1, 156364, Note_on_c, 0, 60, 0
1, 156364, Note_on_c, 0, 60, 37
1, 156367, Note_on_c, 0, 68, 37
1, 156367, Note_on_c, 0, 54, 0
1, 156367, Note_on_c, 0, 51, 0
1, 156370, Note_on_c, 0, 44, 0
1, 156370, Note_on_c, 0, 44, 32
1, 156370, Note_on_c, 0, 51, 32
1, 156373, Note_on_c, 0, 54, 36
1, 156530, Note_on_c, 0, 68, 0
1, 156530, Note_on_c, 0, 60, 0
1, 156530, Note_on_c, 0, 60, 37
1, 156533, Note_on_c, 0, 68, 37
1, 156533, Note_on_c, 0, 54, 0
1, 156533, Note_on_c, 0, 51, 0
1, 156536, Note_on_c, 0, 44, 0
1, 156536, Note_on_c, 0, 44, 32
1, 156536, Note_on_c, 0, 51, 32
1, 156539, Note_on_c, 0, 54, 36
1, 156697, Note_on_c, 0, 68, 0
1, 156697, Note_on_c, 0, 60, 0
1, 156697, Note_on_c, 0, 60, 37
1, 156700, Note_on_c, 0, 68, 37
1, 156700, Note_on_c, 0, 54, 0
1, 156700, Note_on_c, 0, 51, 0
1, 156703, Note_on_c, 0, 44, 0
1, 156703, Note_on_c, 0, 51, 32
1, 156703, Note_on_c, 0, 44, 32
1, 156706, Note_on_c, 0, 54, 36
1, 156863, Note_on_c, 0, 68, 0
1, 156863, Note_on_c, 0, 60, 0
1, 156863, Note_on_c, 0, 60, 37
1, 156866, Note_on_c, 0, 68, 37
1, 156866, Note_on_c, 0, 54, 0
1, 156866, Note_on_c, 0, 44, 0
1, 156869, Note_on_c, 0, 51, 0
1, 156869, Note_on_c, 0, 44, 32
1, 156869, Note_on_c, 0, 51, 32
1, 156872, Note_on_c, 0, 54, 36
1, 157030, Note_on_c, 0, 68, 0
1, 157030, Note_on_c, 0, 60, 0
1, 157030, Note_on_c, 0, 72, 0
1, 157033, Note_on_c, 0, 72, 68
1, 157033, Note_on_c, 0, 54, 0
1, 157033, Note_on_c, 0, 51, 0
1, 157036, Note_on_c, 0, 44, 0
1, 157036, Note_on_c, 0, 40, 52
1, 157036, Control_c, 0, 64, 0
1, 157167, Control_c, 0, 64, 124
1, 157210, Note_on_c, 0, 60, 45
1, 157210, Note_on_c, 0, 69, 45
1, 157210, Note_on_c, 0, 40, 0
1, 157213, Note_on_c, 0, 52, 45
1, 157213, Note_on_c, 0, 45, 39
1, 157390, Note_on_c, 0, 69, 0
1, 157390, Note_on_c, 0, 60, 0
1, 157390, Note_on_c, 0, 72, 0
1, 157393, Note_on_c, 0, 73, 78
1, 157393, Note_on_c, 0, 45, 0
1, 157393, Note_on_c, 0, 52, 0
1, 157396, Note_on_c, 0, 45, 39
1, 157396, Note_on_c, 0, 52, 45
1, 157396, Control_c, 0, 64, 0
1, 157513, Control_c, 0, 64, 125
1, 157551, Note_on_c, 0, 61, 45
1, 157551, Note_on_c, 0, 69, 45
1, 157551, Note_on_c, 0, 52, 0
1, 157554, Note_on_c, 0, 45, 0
1, 157554, Note_on_c, 0, 45, 39
1, 157554, Note_on_c, 0, 52, 45
1, 157712, Note_on_c, 0, 69, 0
1, 157712, Note_on_c, 0, 61, 0
1, 157712, Note_on_c, 0, 61, 45
1, 157715, Note_on_c, 0, 69, 45
1, 157715, Note_on_c, 0, 52, 0
1, 157715, Note_on_c, 0, 45, 0
1, 157718, Note_on_c, 0, 45, 39
1, 157718, Note_on_c, 0, 52, 45
1, 157873, Note_on_c, 0, 69, 0
1, 157873, Note_on_c, 0, 61, 0
1, 157873, Note_on_c, 0, 61, 45
1, 157876, Note_on_c, 0, 69, 45
1, 157876, Note_on_c, 0, 52, 0
1, 157876, Note_on_c, 0, 45, 0
1, 157879, Note_on_c, 0, 45, 39
1, 157879, Note_on_c, 0, 52, 45
1, 158034, Note_on_c, 0, 69, 0
1, 158034, Note_on_c, 0, 61, 0
1, 158034, Note_on_c, 0, 61, 45
1, 158037, Note_on_c, 0, 69, 45
1, 158037, Note_on_c, 0, 52, 0
1, 158037, Note_on_c, 0, 45, 0
1, 158040, Note_on_c, 0, 52, 45
1, 158040, Note_on_c, 0, 45, 39
1, 158195, Note_on_c, 0, 69, 0
1, 158195, Note_on_c, 0, 61, 0
1, 158195, Note_on_c, 0, 61, 45
1, 158198, Note_on_c, 0, 69, 45
1, 158198, Note_on_c, 0, 45, 0
1, 158198, Note_on_c, 0, 52, 0
1, 158201, Note_on_c, 0, 45, 39
1, 158201, Note_on_c, 0, 52, 45
1, 158356, Note_on_c, 0, 69, 0
1, 158356, Note_on_c, 0, 61, 0
1, 158356, Note_on_c, 0, 73, 0
1, 158359, Note_on_c, 0, 73, 80
1, 158359, Note_on_c, 0, 52, 0
1, 158359, Note_on_c, 0, 45, 0
1, 158362, Note_on_c, 0, 40, 45
1, 158517, Note_on_c, 0, 61, 45
1, 158517, Note_on_c, 0, 69, 45
1, 158517, Note_on_c, 0, 52, 45
1, 158520, Note_on_c, 0, 45, 39
1, 158678, Note_on_c, 0, 69, 0
1, 158678, Note_on_c, 0, 61, 0
1, 158678, Note_on_c, 0, 73, 0
1, 158681, Note_on_c, 0, 73, 79
1, 158681, Note_on_c, 0, 45, 0
1, 158681, Note_on_c, 0, 52, 0
1, 158684, Note_on_c, 0, 40, 0
1, 158684, Note_on_c, 0, 40, 45
1, 158839, Note_on_c, 0, 61, 45
1, 158839, Note_on_c, 0, 69, 45
1, 158839, Note_on_c, 0, 52, 45
1, 158842, Note_on_c, 0, 45, 39
1, 159001, Note_on_c, 0, 69, 0
1, 159001, Note_on_c, 0, 61, 0
1, 159001, Note_on_c, 0, 73, 0
1, 159004, Note_on_c, 0, 73, 80
1, 159004, Note_on_c, 0, 45, 0
1, 159004, Note_on_c, 0, 52, 0
1, 159007, Note_on_c, 0, 40, 0
1, 159007, Note_on_c, 0, 35, 52
1, 159007, Control_c, 0, 64, 0
1, 159086, Control_c, 0, 64, 126
1, 159181, Note_on_c, 0, 61, 54
1, 159181, Note_on_c, 0, 68, 54
1, 159181, Note_on_c, 0, 35, 0
1, 159184, Note_on_c, 0, 47, 48
1, 159184, Note_on_c, 0, 40, 41
1, 159327, Control_c, 0, 64, 0
1, 159360, Note_on_c, 0, 68, 0
1, 159360, Note_on_c, 0, 61, 0
1, 159360, Note_on_c, 0, 73, 0
1, 159363, Note_on_c, 0, 74, 88
1, 159363, Note_on_c, 0, 40, 0
1, 159363, Note_on_c, 0, 47, 0
1, 159366, Note_on_c, 0, 40, 41
1, 159366, Note_on_c, 0, 47, 48
1, 159406, Control_c, 0, 64, 125
1, 159522, Note_on_c, 0, 62, 54
1, 159522, Note_on_c, 0, 68, 54
1, 159522, Note_on_c, 0, 47, 0
1, 159525, Note_on_c, 0, 40, 0
1, 159525, Note_on_c, 0, 40, 41
1, 159525, Note_on_c, 0, 47, 48
1, 159684, Note_on_c, 0, 68, 0
1, 159684, Note_on_c, 0, 62, 0
1, 159684, Note_on_c, 0, 62, 54
1, 159687, Note_on_c, 0, 68, 54
1, 159687, Note_on_c, 0, 47, 0
1, 159687, Note_on_c, 0, 40, 0
1, 159690, Note_on_c, 0, 47, 48
1, 159690, Note_on_c, 0, 40, 41
1, 159845, Note_on_c, 0, 68, 0
1, 159845, Note_on_c, 0, 62, 0
1, 159845, Note_on_c, 0, 62, 54
1, 159848, Note_on_c, 0, 68, 54
1, 159848, Note_on_c, 0, 40, 0
1, 159848, Note_on_c, 0, 47, 0
1, 159851, Note_on_c, 0, 40, 41
1, 159851, Note_on_c, 0, 47, 48
1, 160007, Note_on_c, 0, 68, 0
1, 160007, Note_on_c, 0, 62, 0
1, 160007, Note_on_c, 0, 62, 54
1, 160010, Note_on_c, 0, 68, 54
1, 160010, Note_on_c, 0, 47, 0
1, 160010, Note_on_c, 0, 40, 0
1, 160013, Note_on_c, 0, 40, 44
1, 160013, Note_on_c, 0, 47, 49
1, 160168, Note_on_c, 0, 68, 0
1, 160168, Note_on_c, 0, 62, 0
1, 160168, Note_on_c, 0, 62, 54
1, 160171, Note_on_c, 0, 68, 54
1, 160171, Note_on_c, 0, 47, 0
1, 160171, Note_on_c, 0, 40, 0
1, 160174, Note_on_c, 0, 40, 44
1, 160174, Note_on_c, 0, 47, 49
1, 160330, Note_on_c, 0, 68, 0
1, 160330, Note_on_c, 0, 62, 0
1, 160330, Note_on_c, 0, 74, 0
1, 160333, Note_on_c, 0, 74, 85
1, 160333, Note_on_c, 0, 47, 0
1, 160333, Note_on_c, 0, 40, 0
1, 160336, Note_on_c, 0, 35, 49
1, 160336, Control_c, 0, 64, 0
1, 160430, Control_c, 0, 64, 125
1, 160492, Note_on_c, 0, 62, 54
1, 160492, Note_on_c, 0, 68, 54
1, 160492, Note_on_c, 0, 40, 44
1, 160495, Note_on_c, 0, 47, 49
1, 160653, Note_on_c, 0, 68, 0
1, 160653, Note_on_c, 0, 62, 0
1, 160653, Note_on_c, 0, 74, 0
1, 160656, Note_on_c, 0, 74, 85
1, 160656, Note_on_c, 0, 47, 0
1, 160656, Note_on_c, 0, 40, 0
1, 160659, Note_on_c, 0, 35, 0
1, 160659, Note_on_c, 0, 35, 49
1, 160815, Note_on_c, 0, 62, 54
1, 160815, Note_on_c, 0, 68, 54
1, 160815, Note_on_c, 0, 47, 49
1, 160818, Note_on_c, 0, 40, 44
1, 160977, Note_on_c, 0, 68, 0
1, 160977, Note_on_c, 0, 62, 0
1, 160977, Note_on_c, 0, 74, 0
1, 160980, Note_on_c, 0, 77, 94
1, 160980, Note_on_c, 0, 40, 0
1, 160980, Note_on_c, 0, 47, 0
1, 160983, Note_on_c, 0, 35, 0
1, 160983, Note_on_c, 0, 38, 59
1, 160983, Control_c, 0, 64, 0
1, 161071, Control_c, 0, 64, 126
1, 161157, Note_on_c, 0, 65, 56
1, 161157, Note_on_c, 0, 74, 56
1, 161157, Note_on_c, 0, 38, 0
1, 161160, Note_on_c, 0, 45, 45
1, 161160, Note_on_c, 0, 50, 52
1, 161336, Note_on_c, 0, 74, 0
1, 161336, Note_on_c, 0, 65, 0
1, 161336, Note_on_c, 0, 77, 0
1, 161339, Note_on_c, 0, 78, 98
1, 161339, Note_on_c, 0, 50, 0
1, 161339, Note_on_c, 0, 45, 0
1, 161342, Note_on_c, 0, 45, 45
1, 161342, Note_on_c, 0, 50, 52
1, 161349, Control_c, 0, 64, 0
1, 161460, Control_c, 0, 64, 126
1, 161498, Note_on_c, 0, 66, 58
1, 161498, Note_on_c, 0, 74, 58
1, 161498, Note_on_c, 0, 50, 0
1, 161501, Note_on_c, 0, 45, 0
1, 161501, Note_on_c, 0, 45, 45
1, 161501, Note_on_c, 0, 50, 52
1, 161660, Note_on_c, 0, 74, 0
1, 161660, Note_on_c, 0, 66, 0
1, 161660, Note_on_c, 0, 66, 57
1, 161663, Note_on_c, 0, 74, 57
1, 161663, Note_on_c, 0, 50, 0
1, 161663, Note_on_c, 0, 45, 0
1, 161666, Note_on_c, 0, 45, 45
1, 161666, Note_on_c, 0, 50, 52
1, 161821, Note_on_c, 0, 74, 0
1, 161821, Note_on_c, 0, 66, 0
1, 161821, Note_on_c, 0, 66, 57
1, 161824, Note_on_c, 0, 74, 57
1, 161824, Note_on_c, 0, 50, 0
1, 161824, Note_on_c, 0, 45, 0
1, 161827, Note_on_c, 0, 45, 45
1, 161827, Note_on_c, 0, 50, 52
1, 161983, Note_on_c, 0, 74, 0
1, 161983, Note_on_c, 0, 66, 0
1, 161983, Note_on_c, 0, 66, 57
1, 161986, Note_on_c, 0, 74, 57
1, 161986, Note_on_c, 0, 50, 0
1, 161986, Note_on_c, 0, 45, 0
1, 161989, Note_on_c, 0, 50, 56
1, 161989, Note_on_c, 0, 45, 49
1, 162145, Note_on_c, 0, 74, 0
1, 162145, Note_on_c, 0, 66, 0
1, 162145, Note_on_c, 0, 66, 57
1, 162148, Note_on_c, 0, 74, 57
1, 162148, Note_on_c, 0, 45, 0
1, 162148, Note_on_c, 0, 50, 0
1, 162151, Note_on_c, 0, 50, 55
1, 162151, Note_on_c, 0, 45, 48
1, 162306, Note_on_c, 0, 74, 0
1, 162306, Note_on_c, 0, 66, 0
1, 162306, Note_on_c, 0, 78, 0
1, 162309, Note_on_c, 0, 78, 96
1, 162309, Note_on_c, 0, 45, 0
1, 162309, Note_on_c, 0, 50, 0
1, 162312, Note_on_c, 0, 38, 55
1, 162312, Control_c, 0, 64, 0
1, 162383, Control_c, 0, 64, 126
1, 162468, Note_on_c, 0, 66, 58
1, 162468, Note_on_c, 0, 74, 58
1, 162468, Note_on_c, 0, 50, 55
1, 162471, Note_on_c, 0, 45, 48
1, 162629, Note_on_c, 0, 74, 0
1, 162629, Note_on_c, 0, 66, 0
1, 162629, Note_on_c, 0, 78, 0
1, 162632, Note_on_c, 0, 78, 96
1, 162632, Note_on_c, 0, 45, 0
1, 162632, Note_on_c, 0, 50, 0
1, 162635, Note_on_c, 0, 38, 0
1, 162635, Note_on_c, 0, 38, 55
1, 162791, Note_on_c, 0, 66, 57
1, 162791, Note_on_c, 0, 74, 57
1, 162791, Note_on_c, 0, 50, 55
1, 162794, Note_on_c, 0, 45, 48
1, 162953, Note_on_c, 0, 74, 0
1, 162953, Note_on_c, 0, 66, 0
1, 162953, Note_on_c, 0, 78, 0
1, 162956, Note_on_c, 0, 78, 96
1, 162956, Note_on_c, 0, 45, 0
1, 162956, Note_on_c, 0, 50, 0
1, 162959, Note_on_c, 0, 38, 0
1, 162959, Note_on_c, 0, 33, 55
1, 162959, Control_c, 0, 64, 0
1, 163030, Control_c, 0, 64, 126
1, 163133, Note_on_c, 0, 66, 57
1, 163133, Note_on_c, 0, 73, 57
1, 163133, Note_on_c, 0, 45, 55
1, 163136, Note_on_c, 0, 40, 48
1, 163313, Note_on_c, 0, 73, 0
1, 163313, Note_on_c, 0, 66, 0
1, 163313, Note_on_c, 0, 78, 0
1, 163316, Note_on_c, 0, 79, 106
1, 163316, Note_on_c, 0, 40, 0
1, 163316, Note_on_c, 0, 45, 0
1, 163319, Note_on_c, 0, 33, 0
1, 163319, Note_on_c, 0, 33, 55
1, 163327, Control_c, 0, 64, 0
1, 163443, Control_c, 0, 64, 126
1, 163474, Note_on_c, 0, 67, 59
1, 163474, Note_on_c, 0, 73, 59
1, 163474, Note_on_c, 0, 33, 0
1, 163477, Note_on_c, 0, 45, 55
1, 163477, Note_on_c, 0, 40, 48
1, 163636, Note_on_c, 0, 73, 0
1, 163636, Note_on_c, 0, 67, 0
1, 163636, Note_on_c, 0, 67, 59
1, 163639, Note_on_c, 0, 73, 59
1, 163639, Note_on_c, 0, 40, 0
1, 163639, Note_on_c, 0, 45, 0
1, 163642, Note_on_c, 0, 45, 55
1, 163642, Note_on_c, 0, 40, 48
1, 163797, Note_on_c, 0, 73, 0
1, 163797, Note_on_c, 0, 67, 0
1, 163797, Note_on_c, 0, 67, 59
1, 163800, Note_on_c, 0, 73, 59
1, 163800, Note_on_c, 0, 40, 0
1, 163800, Note_on_c, 0, 45, 0
1, 163803, Note_on_c, 0, 45, 55
1, 163803, Note_on_c, 0, 40, 48
1, 163959, Note_on_c, 0, 73, 0
1, 163959, Note_on_c, 0, 67, 0
1, 163959, Note_on_c, 0, 67, 59
1, 163962, Note_on_c, 0, 73, 59
1, 163962, Note_on_c, 0, 40, 0
1, 163962, Note_on_c, 0, 45, 0
1, 163965, Note_on_c, 0, 45, 59
1, 163965, Note_on_c, 0, 40, 51
1, 164121, Note_on_c, 0, 73, 0
1, 164121, Note_on_c, 0, 67, 0
1, 164121, Note_on_c, 0, 67, 59
1, 164124, Note_on_c, 0, 73, 59
1, 164124, Note_on_c, 0, 40, 0
1, 164124, Note_on_c, 0, 45, 0
1, 164127, Note_on_c, 0, 45, 59
1, 164127, Note_on_c, 0, 40, 51
1, 164282, Note_on_c, 0, 73, 0
1, 164282, Note_on_c, 0, 67, 0
1, 164282, Note_on_c, 0, 79, 0
1, 164285, Note_on_c, 0, 79, 103
1, 164285, Note_on_c, 0, 40, 0
1, 164285, Note_on_c, 0, 45, 0
1, 164288, Note_on_c, 0, 33, 59
1, 164288, Control_c, 0, 64, 0
1, 164366, Control_c, 0, 64, 126
1, 164444, Note_on_c, 0, 67, 58
1, 164444, Note_on_c, 0, 73, 58
1, 164444, Note_on_c, 0, 45, 59
1, 164447, Note_on_c, 0, 40, 51
1, 164606, Note_on_c, 0, 73, 0
1, 164606, Note_on_c, 0, 67, 0
1, 164606, Note_on_c, 0, 79, 0
1, 164609, Note_on_c, 0, 79, 106
1, 164609, Note_on_c, 0, 40, 0
1, 164609, Note_on_c, 0, 45, 0
1, 164612, Note_on_c, 0, 33, 0
1, 164612, Note_on_c, 0, 33, 59
1, 164767, Note_on_c, 0, 67, 60
1, 164767, Note_on_c, 0, 73, 60
1, 164767, Note_on_c, 0, 45, 59
1, 164770, Note_on_c, 0, 40, 51
1, 164929, Note_on_c, 0, 73, 0
1, 164929, Note_on_c, 0, 67, 0
1, 164929, Note_on_c, 0, 79, 0
1, 164932, Note_on_c, 0, 81, 108
1, 164932, Note_on_c, 0, 40, 0
1, 164932, Note_on_c, 0, 45, 0
1, 164935, Note_on_c, 0, 33, 0
1, 164935, Note_on_c, 0, 32, 71
1, 164935, Control_c, 0, 64, 0
1, 165108, Note_on_c, 0, 73, 61
1, 165108, Note_on_c, 0, 69, 61
1, 165108, Note_on_c, 0, 32, 0
1, 165111, Note_on_c, 0, 44, 54
1, 165111, Note_on_c, 0, 49, 54
1, 165111, Note_on_c, 0, 52, 61
1, 165140, Control_c, 0, 64, 126
1, 165287, Note_on_c, 0, 69, 0
1, 165287, Note_on_c, 0, 73, 0
1, 165287, Note_on_c, 0, 81, 0
1, 165290, Note_on_c, 0, 80, 105
1, 165290, Note_on_c, 0, 52, 0
1, 165290, Note_on_c, 0, 49, 0
1, 165293, Note_on_c, 0, 44, 0
1, 165293, Note_on_c, 0, 44, 54
1, 165293, Note_on_c, 0, 49, 54
1, 165296, Note_on_c, 0, 52, 61
1, 165447, Note_on_c, 0, 68, 61
1, 165447, Note_on_c, 0, 73, 61
1, 165447, Note_on_c, 0, 52, 0
1, 165450, Note_on_c, 0, 49, 0
1, 165450, Note_on_c, 0, 44, 0
1, 165450, Note_on_c, 0, 44, 54
1, 165453, Note_on_c, 0, 49, 54
1, 165453, Note_on_c, 0, 52, 62
1, 165608, Note_on_c, 0, 73, 0
1, 165608, Note_on_c, 0, 68, 0
1, 165608, Note_on_c, 0, 68, 54
1, 165611, Note_on_c, 0, 73, 54
1, 165611, Note_on_c, 0, 52, 0
1, 165611, Note_on_c, 0, 49, 0
1, 165614, Note_on_c, 0, 44, 0
1, 165614, Note_on_c, 0, 44, 54
1, 165614, Note_on_c, 0, 49, 54
1, 165617, Note_on_c, 0, 52, 62
1, 165768, Note_on_c, 0, 73, 0
1, 165768, Note_on_c, 0, 68, 0
1, 165768, Note_on_c, 0, 68, 61
1, 165771, Note_on_c, 0, 73, 61
1, 165771, Note_on_c, 0, 52, 0
1, 165771, Note_on_c, 0, 49, 0
1, 165774, Note_on_c, 0, 44, 0
1, 165774, Note_on_c, 0, 44, 54
1, 165774, Note_on_c, 0, 49, 54
1, 165777, Note_on_c, 0, 52, 62
1, 165929, Note_on_c, 0, 73, 0
1, 165929, Note_on_c, 0, 68, 0
1, 165929, Note_on_c, 0, 80, 0
1, 165932, Note_on_c, 0, 81, 107
1, 165932, Note_on_c, 0, 52, 0
1, 165932, Note_on_c, 0, 49, 0
1, 165935, Note_on_c, 0, 44, 0
1, 165935, Note_on_c, 0, 32, 71
1, 165935, Control_c, 0, 64, 0
1, 166021, Control_c, 0, 64, 126
1, 166096, Note_on_c, 0, 69, 62
1, 166096, Note_on_c, 0, 72, 62
1, 166096, Note_on_c, 0, 32, 0
1, 166099, Note_on_c, 0, 44, 54
1, 166099, Note_on_c, 0, 51, 54
1, 166099, Note_on_c, 0, 54, 62
1, 166263, Note_on_c, 0, 72, 0
1, 166263, Note_on_c, 0, 69, 0
1, 166263, Note_on_c, 0, 81, 0
1, 166266, Note_on_c, 0, 80, 103
1, 166266, Note_on_c, 0, 54, 0
1, 166266, Note_on_c, 0, 51, 0
1, 166269, Note_on_c, 0, 44, 0
1, 166269, Note_on_c, 0, 44, 54
1, 166269, Note_on_c, 0, 51, 54
1, 166272, Note_on_c, 0, 54, 62
1, 166272, Control_c, 0, 64, 0
1, 166379, Control_c, 0, 64, 126
1, 166423, Note_on_c, 0, 68, 62
1, 166423, Note_on_c, 0, 72, 62
1, 166423, Note_on_c, 0, 54, 0
1, 166426, Note_on_c, 0, 51, 0
1, 166426, Note_on_c, 0, 44, 0
1, 166426, Note_on_c, 0, 44, 54
1, 166429, Note_on_c, 0, 51, 54
1, 166429, Note_on_c, 0, 54, 62
1, 166586, Note_on_c, 0, 72, 0
1, 166586, Note_on_c, 0, 68, 0
1, 166586, Note_on_c, 0, 68, 62
1, 166589, Note_on_c, 0, 72, 62
1, 166589, Note_on_c, 0, 54, 0
1, 166589, Note_on_c, 0, 51, 0
1, 166592, Note_on_c, 0, 44, 0
1, 166592, Note_on_c, 0, 44, 54
1, 166592, Note_on_c, 0, 51, 54
1, 166595, Note_on_c, 0, 54, 61
1, 166774, Note_on_c, 0, 72, 0
1, 166774, Note_on_c, 0, 68, 0
1, 166774, Note_on_c, 0, 68, 62
1, 166777, Note_on_c, 0, 72, 62
1, 166777, Note_on_c, 0, 54, 0
1, 166777, Note_on_c, 0, 51, 0
1, 166780, Note_on_c, 0, 44, 0
1, 166780, Note_on_c, 0, 44, 54
1, 166780, Note_on_c, 0, 51, 54
1, 166783, Note_on_c, 0, 54, 61
1, 166961, Note_on_c, 0, 72, 0
1, 166961, Note_on_c, 0, 68, 0
1, 166961, Note_on_c, 0, 80, 0
1, 166964, Note_on_c, 0, 73, 96
1, 166964, Note_on_c, 0, 54, 0
1, 166964, Note_on_c, 0, 51, 0
1, 166967, Note_on_c, 0, 44, 0
1, 166967, Note_on_c, 0, 37, 62
1, 166967, Control_c, 0, 64, 0
1, 167149, Note_on_c, 0, 68, 54
1, 167149, Note_on_c, 0, 61, 54
1, 167149, Note_on_c, 0, 64, 54
1, 167152, Note_on_c, 0, 37, 0
1, 167152, Control_c, 0, 64, 127
1, 167152, Note_on_c, 0, 44, 44
1, 167155, Note_on_c, 0, 49, 44
1, 167155, Note_on_c, 0, 52, 50
1, 167316, Note_on_c, 0, 64, 0
1, 167316, Note_on_c, 0, 61, 0
1, 167316, Note_on_c, 0, 68, 0
1, 167319, Note_on_c, 0, 68, 54
1, 167319, Note_on_c, 0, 61, 54
1, 167319, Note_on_c, 0, 64, 54
1, 167322, Note_on_c, 0, 52, 0
1, 167322, Note_on_c, 0, 49, 0
1, 167322, Note_on_c, 0, 44, 0
1, 167325, Note_on_c, 0, 44, 44
1, 167325, Note_on_c, 0, 49, 44
1, 167325, Note_on_c, 0, 52, 50
1, 167482, Note_on_c, 0, 64, 0
1, 167482, Note_on_c, 0, 61, 0
1, 167482, Note_on_c, 0, 68, 0
1, 167485, Note_on_c, 0, 68, 54
1, 167485, Note_on_c, 0, 61, 54
1, 167485, Note_on_c, 0, 64, 54
1, 167488, Note_on_c, 0, 52, 0
1, 167488, Note_on_c, 0, 49, 0
1, 167488, Note_on_c, 0, 44, 0
1, 167491, Note_on_c, 0, 44, 44
1, 167491, Note_on_c, 0, 49, 44
1, 167491, Note_on_c, 0, 52, 50
1, 167649, Note_on_c, 0, 64, 0
1, 167649, Note_on_c, 0, 61, 0
1, 167649, Note_on_c, 0, 68, 0
1, 167652, Note_on_c, 0, 68, 54
1, 167652, Note_on_c, 0, 61, 54
1, 167652, Note_on_c, 0, 64, 54
1, 167655, Note_on_c, 0, 52, 0
1, 167655, Note_on_c, 0, 49, 0
1, 167655, Note_on_c, 0, 44, 0
1, 167658, Note_on_c, 0, 44, 44
1, 167658, Note_on_c, 0, 49, 44
1, 167658, Note_on_c, 0, 52, 50
1, 167815, Note_on_c, 0, 64, 0
1, 167815, Note_on_c, 0, 61, 0
1, 167815, Note_on_c, 0, 68, 0
1, 167818, Note_on_c, 0, 68, 54
1, 167818, Note_on_c, 0, 61, 54
1, 167818, Note_on_c, 0, 64, 54
1, 167821, Note_on_c, 0, 52, 0
1, 167821, Note_on_c, 0, 49, 0
1, 167821, Note_on_c, 0, 44, 0
1, 167824, Note_on_c, 0, 44, 44
1, 167824, Note_on_c, 0, 49, 44
1, 167824, Note_on_c, 0, 52, 50
1, 167981, Note_on_c, 0, 64, 0
1, 167981, Note_on_c, 0, 61, 0
1, 167981, Note_on_c, 0, 68, 0
1, 167984, Note_on_c, 0, 68, 54
1, 167984, Note_on_c, 0, 61, 54
1, 167984, Note_on_c, 0, 64, 54
1, 167987, Note_on_c, 0, 52, 0
1, 167987, Note_on_c, 0, 49, 0
1, 167987, Note_on_c, 0, 44, 0
1, 167990, Note_on_c, 0, 49, 44
1, 167990, Note_on_c, 0, 44, 44
1, 167990, Note_on_c, 0, 52, 49
1, 168148, Note_on_c, 0, 64, 0
1, 168148, Note_on_c, 0, 61, 0
1, 168148, Note_on_c, 0, 68, 0
1, 168151, Note_on_c, 0, 68, 54
1, 168151, Note_on_c, 0, 61, 54
1, 168151, Note_on_c, 0, 64, 54
1, 168154, Note_on_c, 0, 52, 0
1, 168154, Note_on_c, 0, 44, 0
1, 168154, Note_on_c, 0, 49, 0
1, 168157, Note_on_c, 0, 44, 44
1, 168157, Note_on_c, 0, 49, 44
1, 168157, Note_on_c, 0, 52, 49
1, 168314, Note_on_c, 0, 64, 0
1, 168314, Note_on_c, 0, 73, 0
1, 168314, Note_on_c, 0, 68, 0
1, 168317, Note_on_c, 0, 61, 0
1, 168317, Note_on_c, 0, 68, 58
1, 168317, Note_on_c, 0, 52, 0
1, 168320, Note_on_c, 0, 49, 0
1, 168320, Note_on_c, 0, 44, 0
1, 168320, Note_on_c, 0, 44, 40
1, 168323, Note_on_c, 0, 49, 40
1, 168323, Note_on_c, 0, 52, 47
1, 168481, Note_on_c, 0, 61, 36
1, 168481, Note_on_c, 0, 64, 36
1, 168481, Note_on_c, 0, 52, 0
1, 168484, Note_on_c, 0, 49, 0
1, 168484, Note_on_c, 0, 44, 0
1, 168484, Note_on_c, 0, 44, 40
1, 168487, Note_on_c, 0, 49, 40
1, 168487, Note_on_c, 0, 52, 46
1, 168649, Note_on_c, 0, 64, 0
1, 168649, Note_on_c, 0, 61, 0
1, 168649, Note_on_c, 0, 68, 0
1, 168652, Note_on_c, 0, 68, 52
1, 168652, Note_on_c, 0, 52, 0
1, 168652, Note_on_c, 0, 49, 0
1, 168655, Note_on_c, 0, 44, 0
1, 168655, Note_on_c, 0, 44, 38
1, 168655, Note_on_c, 0, 49, 38
1, 168658, Note_on_c, 0, 52, 44
1, 168854, Note_on_c, 0, 61, 36
1, 168854, Note_on_c, 0, 64, 36
1, 168854, Note_on_c, 0, 52, 0
1, 168857, Note_on_c, 0, 49, 0
1, 168857, Note_on_c, 0, 44, 0
1, 168857, Note_on_c, 0, 44, 35
1, 168860, Note_on_c, 0, 49, 35
1, 168860, Note_on_c, 0, 52, 40
1, 169059, Note_on_c, 0, 64, 0
1, 169059, Note_on_c, 0, 61, 0
1, 169059, Note_on_c, 0, 68, 0
1, 169062, Note_on_c, 0, 68, 69
1, 169062, Note_on_c, 0, 52, 0
1, 169062, Note_on_c, 0, 49, 0
1, 169065, Note_on_c, 0, 44, 0
1, 169065, Note_on_c, 0, 32, 36
1, 169065, Control_c, 0, 64, 0
1, 169171, Control_c, 0, 64, 125
1, 169240, Note_on_c, 0, 63, 36
1, 169240, Note_on_c, 0, 60, 36
1, 169240, Note_on_c, 0, 32, 0
1, 169243, Note_on_c, 0, 54, 36
1, 169243, Note_on_c, 0, 51, 32
1, 169243, Note_on_c, 0, 44, 32
1, 169420, Note_on_c, 0, 60, 0
1, 169420, Note_on_c, 0, 63, 0
1, 169420, Note_on_c, 0, 68, 0
1, 169423, Note_on_c, 0, 69, 71
1, 169423, Note_on_c, 0, 44, 0
1, 169423, Note_on_c, 0, 51, 0
1, 169426, Note_on_c, 0, 54, 0
1, 169426, Note_on_c, 0, 54, 36
1, 169426, Note_on_c, 0, 51, 32
1, 169429, Note_on_c, 0, 44, 32
1, 169434, Control_c, 0, 64, 1
1, 169579, Control_c, 0, 64, 127
1, 169587, Note_on_c, 0, 60, 36
1, 169587, Note_on_c, 0, 63, 36
1, 169587, Note_on_c, 0, 44, 0
1, 169590, Note_on_c, 0, 51, 0
1, 169590, Note_on_c, 0, 54, 0
1, 169590, Note_on_c, 0, 54, 36
1, 169593, Note_on_c, 0, 51, 32
1, 169593, Note_on_c, 0, 44, 32
1, 169753, Note_on_c, 0, 63, 0
1, 169753, Note_on_c, 0, 60, 0
1, 169753, Note_on_c, 0, 60, 36
1, 169756, Note_on_c, 0, 63, 36
1, 169756, Note_on_c, 0, 44, 0
1, 169756, Note_on_c, 0, 51, 0
1, 169759, Note_on_c, 0, 54, 0
1, 169759, Note_on_c, 0, 44, 32
1, 169759, Note_on_c, 0, 51, 32
1, 169762, Note_on_c, 0, 54, 36
1, 169920, Note_on_c, 0, 63, 0
1, 169920, Note_on_c, 0, 60, 0
1, 169920, Note_on_c, 0, 60, 36
1, 169923, Note_on_c, 0, 63, 36
1, 169923, Note_on_c, 0, 54, 0
1, 169923, Note_on_c, 0, 51, 0
1, 169926, Note_on_c, 0, 44, 0
1, 169926, Note_on_c, 0, 51, 32
1, 169926, Note_on_c, 0, 44, 32
1, 169929, Note_on_c, 0, 54, 36
1, 170086, Note_on_c, 0, 63, 0
1, 170086, Note_on_c, 0, 60, 0
1, 170086, Note_on_c, 0, 60, 36
1, 170089, Note_on_c, 0, 63, 36
1, 170089, Note_on_c, 0, 54, 0
1, 170089, Note_on_c, 0, 44, 0
1, 170092, Note_on_c, 0, 51, 0
1, 170092, Note_on_c, 0, 44, 32
1, 170092, Note_on_c, 0, 51, 32
1, 170095, Note_on_c, 0, 54, 36
1, 170253, Note_on_c, 0, 63, 0
1, 170253, Note_on_c, 0, 60, 0
1, 170253, Note_on_c, 0, 60, 36
1, 170256, Note_on_c, 0, 63, 36
1, 170256, Note_on_c, 0, 54, 0
1, 170256, Note_on_c, 0, 51, 0
1, 170259, Note_on_c, 0, 44, 0
1, 170259, Note_on_c, 0, 54, 36
1, 170259, Note_on_c, 0, 51, 32
1, 170262, Note_on_c, 0, 44, 32
1, 170419, Note_on_c, 0, 63, 0
1, 170419, Note_on_c, 0, 60, 0
1, 170419, Note_on_c, 0, 69, 0
1, 170422, Note_on_c, 0, 68, 70
1, 170422, Note_on_c, 0, 44, 0
1, 170422, Note_on_c, 0, 51, 0
1, 170425, Note_on_c, 0, 54, 0
1, 170425, Note_on_c, 0, 54, 36
1, 170425, Note_on_c, 0, 51, 32
1, 170428, Note_on_c, 0, 44, 32
1, 170585, Note_on_c, 0, 60, 36
1, 170585, Note_on_c, 0, 63, 36
1, 170585, Note_on_c, 0, 44, 0
1, 170588, Note_on_c, 0, 51, 0
1, 170588, Note_on_c, 0, 54, 0
1, 170588, Note_on_c, 0, 54, 36
1, 170591, Note_on_c, 0, 51, 32
1, 170591, Note_on_c, 0, 44, 32
1, 170752, Note_on_c, 0, 63, 0
1, 170752, Note_on_c, 0, 60, 0
1, 170752, Note_on_c, 0, 68, 0
1, 170755, Note_on_c, 0, 66, 66
1, 170755, Note_on_c, 0, 44, 0
1, 170755, Note_on_c, 0, 51, 0
1, 170758, Note_on_c, 0, 54, 0
1, 170758, Note_on_c, 0, 44, 32
1, 170758, Note_on_c, 0, 51, 32
1, 170761, Note_on_c, 0, 54, 36
1, 170918, Note_on_c, 0, 60, 44
1, 170918, Note_on_c, 0, 63, 36
1, 170918, Note_on_c, 0, 54, 0
1, 170921, Note_on_c, 0, 51, 0
1, 170921, Note_on_c, 0, 44, 0
1, 170921, Note_on_c, 0, 51, 32
1, 170924, Note_on_c, 0, 44, 32
1, 170924, Note_on_c, 0, 54, 36
1, 171085, Note_on_c, 0, 63, 0
1, 171085, Note_on_c, 0, 60, 0
1, 171085, Note_on_c, 0, 66, 0
1, 171088, Note_on_c, 0, 64, 79
1, 171088, Note_on_c, 0, 54, 0
1, 171088, Note_on_c, 0, 44, 0
1, 171091, Note_on_c, 0, 51, 0
1, 171091, Note_on_c, 0, 32, 36
1, 171091, Control_c, 0, 64, 0
1, 171245, Note_on_c, 0, 56, 36
1, 171245, Note_on_c, 0, 61, 36
1, 171245, Note_on_c, 0, 32, 0
1, 171248, Note_on_c, 0, 52, 36
1, 171248, Note_on_c, 0, 49, 32
1, 171248, Note_on_c, 0, 44, 32
1, 171292, Control_c, 0, 64, 127
1, 171406, Note_on_c, 0, 61, 0
1, 171406, Note_on_c, 0, 56, 0
1, 171406, Note_on_c, 0, 64, 0
1, 171409, Note_on_c, 0, 68, 74
1, 171409, Note_on_c, 0, 44, 0
1, 171409, Note_on_c, 0, 49, 0
1, 171412, Note_on_c, 0, 52, 0
1, 171412, Note_on_c, 0, 44, 34
1, 171412, Note_on_c, 0, 49, 34
1, 171415, Note_on_c, 0, 52, 38
1, 171566, Note_on_c, 0, 64, 39
1, 171566, Note_on_c, 0, 61, 39
1, 171566, Note_on_c, 0, 52, 0
1, 171569, Note_on_c, 0, 49, 0
1, 171569, Note_on_c, 0, 44, 0
1, 171569, Note_on_c, 0, 44, 34
1, 171572, Note_on_c, 0, 49, 34
1, 171572, Note_on_c, 0, 52, 39
1, 171726, Note_on_c, 0, 61, 0
1, 171726, Note_on_c, 0, 64, 0
1, 171726, Note_on_c, 0, 68, 0
1, 171729, Note_on_c, 0, 73, 78
1, 171729, Note_on_c, 0, 52, 0
1, 171729, Note_on_c, 0, 49, 0
1, 171732, Note_on_c, 0, 44, 0
1, 171732, Note_on_c, 0, 44, 36
1, 171732, Note_on_c, 0, 49, 36
1, 171735, Note_on_c, 0, 52, 40
1, 171887, Note_on_c, 0, 64, 41
1, 171887, Note_on_c, 0, 68, 41
1, 171887, Note_on_c, 0, 52, 0
1, 171890, Note_on_c, 0, 49, 0
1, 171890, Note_on_c, 0, 44, 0
1, 171890, Note_on_c, 0, 52, 41
1, 171893, Note_on_c, 0, 44, 36
1, 171893, Note_on_c, 0, 49, 36
1, 172047, Note_on_c, 0, 68, 0
1, 172047, Note_on_c, 0, 64, 0
1, 172047, Note_on_c, 0, 73, 0
1, 172050, Note_on_c, 0, 76, 87
1, 172050, Note_on_c, 0, 49, 0
1, 172050, Note_on_c, 0, 44, 0
1, 172053, Note_on_c, 0, 52, 0
1, 172053, Note_on_c, 0, 44, 38
1, 172053, Note_on_c, 0, 49, 38
1, 172056, Note_on_c, 0, 52, 44
1, 172208, Note_on_c, 0, 68, 44
1, 172208, Note_on_c, 0, 73, 44
1, 172208, Note_on_c, 0, 52, 0
1, 172211, Note_on_c, 0, 49, 0
1, 172211, Note_on_c, 0, 44, 0
1, 172211, Note_on_c, 0, 49, 39
1, 172214, Note_on_c, 0, 44, 39
1, 172214, Note_on_c, 0, 52, 45
1, 172368, Note_on_c, 0, 73, 0
1, 172368, Note_on_c, 0, 68, 0
1, 172368, Note_on_c, 0, 76, 0
1, 172371, Note_on_c, 0, 80, 85
1, 172371, Note_on_c, 0, 52, 0
1, 172371, Note_on_c, 0, 44, 0
1, 172374, Note_on_c, 0, 49, 0
1, 172374, Note_on_c, 0, 44, 40
1, 172374, Note_on_c, 0, 49, 40
1, 172377, Note_on_c, 0, 52, 46
1, 172529, Note_on_c, 0, 73, 47
1, 172529, Note_on_c, 0, 76, 47
1, 172529, Note_on_c, 0, 52, 0
1, 172532, Note_on_c, 0, 49, 0
1, 172532, Note_on_c, 0, 44, 0
1, 172532, Note_on_c, 0, 52, 47
1, 172535, Note_on_c, 0, 44, 40
1, 172535, Note_on_c, 0, 49, 40
1, 172689, Note_on_c, 0, 76, 0
1, 172689, Note_on_c, 0, 73, 0
1, 172689, Note_on_c, 0, 80, 0
1, 172692, Note_on_c, 0, 85, 89
1, 172692, Note_on_c, 0, 49, 0
1, 172692, Note_on_c, 0, 44, 0
1, 172695, Note_on_c, 0, 52, 0
1, 172695, Note_on_c, 0, 44, 43
1, 172695, Note_on_c, 0, 49, 43
1, 172698, Note_on_c, 0, 52, 49
1, 172850, Note_on_c, 0, 76, 49
1, 172850, Note_on_c, 0, 80, 49
1, 172850, Note_on_c, 0, 52, 0
1, 172853, Note_on_c, 0, 49, 0
1, 172853, Note_on_c, 0, 44, 0
1, 172853, Note_on_c, 0, 52, 49
1, 172856, Note_on_c, 0, 44, 44
1, 172856, Note_on_c, 0, 49, 44
1, 173010, Note_on_c, 0, 80, 0
1, 173010, Note_on_c, 0, 76, 0
1, 173010, Note_on_c, 0, 85, 0
1, 173013, Note_on_c, 0, 87, 109
1, 173013, Note_on_c, 0, 49, 0
1, 173013, Note_on_c, 0, 44, 0
1, 173016, Note_on_c, 0, 52, 0
1, 173016, Note_on_c, 0, 33, 57
1, 173016, Control_c, 0, 64, 0
1, 173121, Control_c, 0, 64, 125
1, 173189, Note_on_c, 0, 75, 61
1, 173189, Note_on_c, 0, 79, 61
1, 173189, Note_on_c, 0, 33, 0
1, 173192, Note_on_c, 0, 52, 52
1, 173192, Note_on_c, 0, 49, 45
1, 173192, Note_on_c, 0, 45, 45
1, 173367, Note_on_c, 0, 79, 0
1, 173367, Note_on_c, 0, 75, 0
1, 173367, Note_on_c, 0, 87, 0
1, 173370, Note_on_c, 0, 88, 106
1, 173370, Note_on_c, 0, 45, 0
1, 173370, Note_on_c, 0, 49, 0
1, 173373, Note_on_c, 0, 52, 0
1, 173373, Note_on_c, 0, 45, 48
1, 173373, Note_on_c, 0, 49, 48
1, 173376, Note_on_c, 0, 52, 55
1, 173376, Control_c, 0, 64, 0
1, 173494, Control_c, 0, 64, 127
1, 173534, Note_on_c, 0, 79, 55
1, 173534, Note_on_c, 0, 76, 55
1, 173534, Note_on_c, 0, 52, 0
1, 173537, Note_on_c, 0, 49, 0
1, 173537, Note_on_c, 0, 45, 0
1, 173537, Note_on_c, 0, 52, 54
1, 173540, Note_on_c, 0, 45, 46
1, 173540, Note_on_c, 0, 49, 46
1, 173700, Note_on_c, 0, 76, 0
1, 173700, Note_on_c, 0, 79, 0
1, 173700, Note_on_c, 0, 79, 50
1, 173703, Note_on_c, 0, 76, 50
1, 173703, Note_on_c, 0, 49, 0
1, 173703, Note_on_c, 0, 45, 0
1, 173706, Note_on_c, 0, 52, 0
1, 173706, Note_on_c, 0, 52, 50
1, 173706, Note_on_c, 0, 45, 44
1, 173709, Note_on_c, 0, 49, 44
1, 173867, Note_on_c, 0, 76, 0
1, 173867, Note_on_c, 0, 79, 0
1, 173867, Note_on_c, 0, 79, 49
1, 173870, Note_on_c, 0, 76, 49
1, 173870, Note_on_c, 0, 49, 0
1, 173870, Note_on_c, 0, 45, 0
1, 173873, Note_on_c, 0, 52, 0
1, 173873, Note_on_c, 0, 52, 49
1, 173873, Note_on_c, 0, 45, 43
1, 173876, Note_on_c, 0, 49, 43
1, 174033, Note_on_c, 0, 76, 0
1, 174033, Note_on_c, 0, 79, 0
1, 174033, Note_on_c, 0, 79, 47
1, 174036, Note_on_c, 0, 76, 47
1, 174036, Note_on_c, 0, 49, 0
1, 174036, Note_on_c, 0, 45, 0
1, 174039, Note_on_c, 0, 52, 0
1, 174039, Note_on_c, 0, 52, 47
1, 174039, Note_on_c, 0, 45, 40
1, 174042, Note_on_c, 0, 49, 40
1, 174199, Note_on_c, 0, 76, 0
1, 174199, Note_on_c, 0, 79, 0
1, 174199, Note_on_c, 0, 76, 47
1, 174202, Note_on_c, 0, 79, 47
1, 174202, Note_on_c, 0, 49, 0
1, 174202, Note_on_c, 0, 45, 0
1, 174205, Note_on_c, 0, 52, 0
1, 174205, Note_on_c, 0, 45, 39
1, 174205, Note_on_c, 0, 49, 39
1, 174208, Note_on_c, 0, 52, 45
1, 174366, Note_on_c, 0, 79, 0
1, 174366, Note_on_c, 0, 76, 0
1, 174366, Note_on_c, 0, 88, 0
1, 174369, Note_on_c, 0, 87, 98
1, 174369, Note_on_c, 0, 52, 0
1, 174369, Note_on_c, 0, 49, 0
1, 174372, Note_on_c, 0, 45, 0
1, 174372, Note_on_c, 0, 51, 44
1, 174372, Note_on_c, 0, 45, 38
1, 174375, Control_c, 0, 64, 0
1, 174469, Control_c, 0, 64, 127
1, 174532, Note_on_c, 0, 75, 41
1, 174532, Note_on_c, 0, 79, 41
1, 174532, Note_on_c, 0, 45, 0
1, 174535, Note_on_c, 0, 51, 0
1, 174535, Note_on_c, 0, 51, 41
1, 174535, Note_on_c, 0, 45, 36
1, 174699, Note_on_c, 0, 79, 0
1, 174699, Note_on_c, 0, 75, 0
1, 174699, Note_on_c, 0, 87, 0
1, 174702, Note_on_c, 0, 85, 91
1, 174702, Note_on_c, 0, 45, 0
1, 174702, Note_on_c, 0, 51, 0
1, 174705, Note_on_c, 0, 51, 40
1, 174705, Note_on_c, 0, 45, 35
1, 174882, Note_on_c, 0, 73, 38
1, 174882, Note_on_c, 0, 79, 38
1, 174882, Note_on_c, 0, 45, 0
1, 174885, Note_on_c, 0, 51, 0
1, 174885, Note_on_c, 0, 51, 38
1, 174885, Note_on_c, 0, 45, 34
1, 175064, Note_on_c, 0, 79, 0
1, 175064, Note_on_c, 0, 73, 0
1, 175064, Note_on_c, 0, 85, 0
1, 175067, Note_on_c, 0, 85, 78
1, 175067, Note_on_c, 0, 45, 0
1, 175067, Note_on_c, 0, 51, 0
1, 175070, Note_on_c, 0, 32, 36
1, 175070, Control_c, 0, 64, 0
1, 175224, Note_on_c, 0, 75, 36
1, 175224, Note_on_c, 0, 80, 36
1, 175224, Note_on_c, 0, 32, 0
1, 175227, Control_c, 0, 64, 126
1, 175227, Note_on_c, 0, 44, 36
1, 175385, Note_on_c, 0, 80, 0
1, 175385, Note_on_c, 0, 75, 0
1, 175385, Note_on_c, 0, 85, 0
1, 175388, Note_on_c, 0, 84, 69
1, 175388, Note_on_c, 0, 44, 0
1, 175388, Note_on_c, 0, 48, 36
1, 175391, Note_on_c, 0, 51, 36
1, 175391, Note_on_c, 0, 44, 36
1, 175545, Note_on_c, 0, 75, 36
1, 175545, Note_on_c, 0, 80, 36
1, 175545, Note_on_c, 0, 44, 0
1, 175548, Note_on_c, 0, 51, 0
1, 175548, Note_on_c, 0, 48, 0
1, 175548, Note_on_c, 0, 48, 32
1, 175551, Note_on_c, 0, 51, 36
1, 175551, Note_on_c, 0, 44, 32
1, 175705, Note_on_c, 0, 80, 0
1, 175705, Note_on_c, 0, 75, 0
1, 175705, Note_on_c, 0, 84, 0
1, 175708, Note_on_c, 0, 80, 68
1, 175708, Note_on_c, 0, 44, 0
1, 175708, Note_on_c, 0, 51, 0
1, 175711, Note_on_c, 0, 48, 0
1, 175711, Note_on_c, 0, 48, 32
1, 175711, Note_on_c, 0, 51, 36
1, 175714, Note_on_c, 0, 44, 32
1, 175866, Note_on_c, 0, 72, 36
1, 175866, Note_on_c, 0, 75, 36
1, 175866, Note_on_c, 0, 44, 0
1, 175869, Note_on_c, 0, 51, 0
1, 175869, Note_on_c, 0, 48, 0
1, 175869, Note_on_c, 0, 48, 32
1, 175872, Note_on_c, 0, 51, 36
1, 175872, Note_on_c, 0, 44, 32
1, 176026, Note_on_c, 0, 75, 0
1, 176026, Note_on_c, 0, 72, 0
1, 176026, Note_on_c, 0, 80, 0
1, 176029, Note_on_c, 0, 75, 68
1, 176029, Note_on_c, 0, 44, 0
1, 176029, Note_on_c, 0, 51, 0
1, 176032, Note_on_c, 0, 48, 0
1, 176032, Note_on_c, 0, 48, 32
1, 176032, Note_on_c, 0, 51, 36
1, 176035, Note_on_c, 0, 44, 32
1, 176187, Note_on_c, 0, 68, 36
1, 176187, Note_on_c, 0, 72, 36
1, 176187, Note_on_c, 0, 44, 0
1, 176190, Note_on_c, 0, 51, 0
1, 176190, Note_on_c, 0, 48, 0
1, 176190, Note_on_c, 0, 48, 32
1, 176193, Note_on_c, 0, 51, 36
1, 176193, Note_on_c, 0, 44, 32
1, 176347, Note_on_c, 0, 72, 0
1, 176347, Note_on_c, 0, 68, 0
1, 176347, Note_on_c, 0, 75, 0
1, 176350, Note_on_c, 0, 72, 68
1, 176350, Note_on_c, 0, 44, 0
1, 176350, Note_on_c, 0, 51, 0
1, 176353, Note_on_c, 0, 48, 0
1, 176353, Note_on_c, 0, 48, 32
1, 176353, Note_on_c, 0, 51, 36
1, 176356, Note_on_c, 0, 44, 32
1, 176508, Note_on_c, 0, 63, 36
1, 176508, Note_on_c, 0, 68, 36
1, 176508, Note_on_c, 0, 44, 0
1, 176511, Note_on_c, 0, 51, 0
1, 176511, Note_on_c, 0, 48, 0
1, 176511, Note_on_c, 0, 48, 32
1, 176514, Note_on_c, 0, 51, 36
1, 176514, Note_on_c, 0, 44, 32
1, 176668, Note_on_c, 0, 68, 0
1, 176668, Note_on_c, 0, 63, 0
1, 176668, Note_on_c, 0, 72, 0
1, 176671, Note_on_c, 0, 68, 68
1, 176671, Note_on_c, 0, 44, 0
1, 176671, Note_on_c, 0, 51, 0
1, 176674, Note_on_c, 0, 48, 0
1, 176674, Note_on_c, 0, 48, 32
1, 176674, Note_on_c, 0, 51, 36
1, 176677, Note_on_c, 0, 44, 32
1, 176829, Note_on_c, 0, 60, 36
1, 176829, Note_on_c, 0, 63, 36
1, 176829, Note_on_c, 0, 44, 0
1, 176832, Note_on_c, 0, 51, 0
1, 176832, Note_on_c, 0, 48, 0
1, 176832, Note_on_c, 0, 48, 32
1, 176835, Note_on_c, 0, 51, 36
1, 176835, Note_on_c, 0, 44, 32
1, 176990, Note_on_c, 0, 63, 0
1, 176990, Note_on_c, 0, 60, 0
1, 176990, Note_on_c, 0, 68, 0
1, 176993, Note_on_c, 0, 68, 69
1, 176993, Note_on_c, 0, 44, 0
1, 176993, Note_on_c, 0, 51, 0
1, 176996, Note_on_c, 0, 48, 0
1, 176996, Note_on_c, 0, 32, 36
1, 176996, Control_c, 0, 64, 0
1, 177138, Control_c, 0, 64, 124
1, 177185, Note_on_c, 0, 63, 36
1, 177185, Note_on_c, 0, 60, 36
1, 177185, Note_on_c, 0, 32, 0
1, 177188, Note_on_c, 0, 54, 36
1, 177188, Note_on_c, 0, 51, 32
1, 177188, Note_on_c, 0, 44, 32
1, 177379, Note_on_c, 0, 60, 0
1, 177379, Note_on_c, 0, 63, 0
1, 177379, Note_on_c, 0, 68, 0
1, 177382, Note_on_c, 0, 69, 71
1, 177382, Note_on_c, 0, 44, 0
1, 177382, Note_on_c, 0, 51, 0
1, 177385, Note_on_c, 0, 54, 0
1, 177385, Note_on_c, 0, 54, 36
1, 177385, Note_on_c, 0, 51, 32
1, 177388, Note_on_c, 0, 44, 32
1, 177394, Control_c, 0, 64, 0
1, 177466, Control_c, 0, 64, 126
1, 177545, Note_on_c, 0, 60, 36
1, 177545, Note_on_c, 0, 63, 36
1, 177545, Note_on_c, 0, 44, 0
1, 177548, Note_on_c, 0, 51, 0
1, 177548, Note_on_c, 0, 54, 0
1, 177548, Note_on_c, 0, 54, 36
1, 177551, Note_on_c, 0, 51, 32
1, 177551, Note_on_c, 0, 44, 32
1, 177712, Note_on_c, 0, 63, 0
1, 177712, Note_on_c, 0, 60, 0
1, 177712, Note_on_c, 0, 60, 36
1, 177715, Note_on_c, 0, 63, 36
1, 177715, Note_on_c, 0, 44, 0
1, 177715, Note_on_c, 0, 51, 0
1, 177718, Note_on_c, 0, 54, 0
1, 177718, Note_on_c, 0, 44, 32
1, 177718, Note_on_c, 0, 51, 32
1, 177721, Note_on_c, 0, 54, 36
1, 177878, Note_on_c, 0, 63, 0
1, 177878, Note_on_c, 0, 60, 0
1, 177878, Note_on_c, 0, 60, 36
1, 177881, Note_on_c, 0, 63, 36
1, 177881, Note_on_c, 0, 54, 0
1, 177881, Note_on_c, 0, 51, 0
1, 177884, Note_on_c, 0, 44, 0
1, 177884, Note_on_c, 0, 51, 32
1, 177884, Note_on_c, 0, 44, 32
1, 177887, Note_on_c, 0, 54, 36
1, 178045, Note_on_c, 0, 63, 0
1, 178045, Note_on_c, 0, 60, 0
1, 178045, Note_on_c, 0, 60, 36
1, 178048, Note_on_c, 0, 63, 36
1, 178048, Note_on_c, 0, 54, 0
1, 178048, Note_on_c, 0, 44, 0
1, 178051, Note_on_c, 0, 51, 0
1, 178051, Note_on_c, 0, 44, 32
1, 178051, Note_on_c, 0, 51, 32
1, 178054, Note_on_c, 0, 54, 36
1, 178211, Note_on_c, 0, 63, 0
1, 178211, Note_on_c, 0, 60, 0
1, 178211, Note_on_c, 0, 60, 36
1, 178214, Note_on_c, 0, 63, 36
1, 178214, Note_on_c, 0, 54, 0
1, 178214, Note_on_c, 0, 51, 0
1, 178217, Note_on_c, 0, 44, 0
1, 178217, Note_on_c, 0, 54, 36
1, 178217, Note_on_c, 0, 51, 32
1, 178220, Note_on_c, 0, 44, 32
1, 178377, Note_on_c, 0, 63, 0
1, 178377, Note_on_c, 0, 60, 0
1, 178377, Note_on_c, 0, 69, 0
1, 178380, Note_on_c, 0, 68, 70
1, 178380, Note_on_c, 0, 44, 0
1, 178380, Note_on_c, 0, 51, 0
1, 178383, Note_on_c, 0, 54, 0
1, 178383, Note_on_c, 0, 54, 36
1, 178383, Note_on_c, 0, 51, 32
1, 178386, Note_on_c, 0, 44, 32
1, 178544, Note_on_c, 0, 60, 36
1, 178544, Note_on_c, 0, 63, 36
1, 178544, Note_on_c, 0, 44, 0
1, 178547, Note_on_c, 0, 51, 0
1, 178547, Note_on_c, 0, 54, 0
1, 178547, Note_on_c, 0, 54, 36
1, 178550, Note_on_c, 0, 51, 32
1, 178550, Note_on_c, 0, 44, 32
1, 178710, Note_on_c, 0, 63, 0
1, 178710, Note_on_c, 0, 60, 0
1, 178710, Note_on_c, 0, 68, 0
1, 178713, Note_on_c, 0, 66, 66
1, 178713, Note_on_c, 0, 44, 0
1, 178713, Note_on_c, 0, 51, 0
1, 178716, Note_on_c, 0, 54, 0
1, 178716, Note_on_c, 0, 44, 32
1, 178716, Note_on_c, 0, 51, 32
1, 178719, Note_on_c, 0, 54, 36
1, 178877, Note_on_c, 0, 60, 44
1, 178877, Note_on_c, 0, 63, 36
1, 178877, Note_on_c, 0, 54, 0
1, 178880, Note_on_c, 0, 51, 0
1, 178880, Note_on_c, 0, 44, 0
1, 178880, Note_on_c, 0, 51, 32
1, 178883, Note_on_c, 0, 44, 32
1, 178883, Note_on_c, 0, 54, 36
1, 179043, Note_on_c, 0, 63, 0
1, 179043, Note_on_c, 0, 60, 0
1, 179043, Note_on_c, 0, 66, 0
1, 179046, Note_on_c, 0, 64, 78
1, 179046, Note_on_c, 0, 54, 0
1, 179046, Note_on_c, 0, 44, 0
1, 179049, Note_on_c, 0, 51, 0
1, 179049, Note_on_c, 0, 32, 36
1, 179049, Control_c, 0, 64, 0
1, 179204, Note_on_c, 0, 56, 36
1, 179204, Note_on_c, 0, 61, 36
1, 179204, Note_on_c, 0, 32, 0
1, 179207, Note_on_c, 0, 52, 36
1, 179207, Note_on_c, 0, 49, 32
1, 179207, Note_on_c, 0, 44, 32
1, 179241, Control_c, 0, 64, 127
1, 179364, Note_on_c, 0, 61, 0
1, 179364, Note_on_c, 0, 56, 0
1, 179364, Note_on_c, 0, 64, 0
1, 179367, Note_on_c, 0, 68, 74
1, 179367, Note_on_c, 0, 44, 0
1, 179367, Note_on_c, 0, 49, 0
1, 179370, Note_on_c, 0, 52, 0
1, 179370, Note_on_c, 0, 44, 32
1, 179370, Note_on_c, 0, 49, 32
1, 179373, Note_on_c, 0, 52, 36
1, 179524, Note_on_c, 0, 64, 39
1, 179524, Note_on_c, 0, 61, 39
1, 179524, Note_on_c, 0, 52, 0
1, 179527, Note_on_c, 0, 49, 0
1, 179527, Note_on_c, 0, 44, 0
1, 179527, Note_on_c, 0, 44, 32
1, 179530, Note_on_c, 0, 49, 32
1, 179530, Note_on_c, 0, 52, 36
1, 179685, Note_on_c, 0, 61, 0
1, 179685, Note_on_c, 0, 64, 0
1, 179685, Note_on_c, 0, 68, 0
1, 179688, Note_on_c, 0, 73, 78
1, 179688, Note_on_c, 0, 52, 0
1, 179688, Note_on_c, 0, 49, 0
1, 179691, Note_on_c, 0, 44, 0
1, 179691, Note_on_c, 0, 44, 32
1, 179691, Note_on_c, 0, 49, 32
1, 179694, Note_on_c, 0, 52, 36
1, 179845, Note_on_c, 0, 64, 41
1, 179845, Note_on_c, 0, 68, 41
1, 179845, Note_on_c, 0, 52, 0
1, 179848, Note_on_c, 0, 49, 0
1, 179848, Note_on_c, 0, 44, 0
1, 179848, Note_on_c, 0, 44, 32
1, 179851, Note_on_c, 0, 49, 32
1, 179851, Note_on_c, 0, 52, 36
1, 180006, Note_on_c, 0, 68, 0
1, 180006, Note_on_c, 0, 64, 0
1, 180006, Note_on_c, 0, 73, 0
1, 180009, Note_on_c, 0, 76, 81
1, 180009, Note_on_c, 0, 52, 0
1, 180009, Note_on_c, 0, 49, 0
1, 180012, Note_on_c, 0, 44, 0
1, 180012, Note_on_c, 0, 44, 32
1, 180012, Note_on_c, 0, 49, 32
1, 180015, Note_on_c, 0, 52, 36
1, 180166, Note_on_c, 0, 68, 44
1, 180166, Note_on_c, 0, 73, 44
1, 180166, Note_on_c, 0, 52, 0
1, 180169, Note_on_c, 0, 49, 0
1, 180169, Note_on_c, 0, 44, 0
1, 180169, Note_on_c, 0, 49, 34
1, 180172, Note_on_c, 0, 44, 34
1, 180172, Note_on_c, 0, 52, 38
1, 180327, Note_on_c, 0, 73, 0
1, 180327, Note_on_c, 0, 68, 0
1, 180327, Note_on_c, 0, 76, 0
1, 180330, Note_on_c, 0, 80, 85
1, 180330, Note_on_c, 0, 52, 0
1, 180330, Note_on_c, 0, 44, 0
1, 180333, Note_on_c, 0, 49, 0
1, 180333, Note_on_c, 0, 44, 36
1, 180333, Note_on_c, 0, 49, 36
1, 180336, Note_on_c, 0, 52, 40
1, 180487, Note_on_c, 0, 73, 47
1, 180487, Note_on_c, 0, 76, 47
1, 180487, Note_on_c, 0, 52, 0
1, 180490, Note_on_c, 0, 49, 0
1, 180490, Note_on_c, 0, 44, 0
1, 180490, Note_on_c, 0, 44, 39
1, 180493, Note_on_c, 0, 49, 39
1, 180493, Note_on_c, 0, 52, 45
1, 180648, Note_on_c, 0, 76, 0
1, 180648, Note_on_c, 0, 73, 0
1, 180648, Note_on_c, 0, 80, 0
1, 180651, Note_on_c, 0, 85, 89
1, 180651, Note_on_c, 0, 52, 0
1, 180651, Note_on_c, 0, 49, 0
1, 180654, Note_on_c, 0, 44, 0
1, 180654, Note_on_c, 0, 44, 40
1, 180654, Note_on_c, 0, 49, 40
1, 180657, Note_on_c, 0, 52, 47
1, 180808, Note_on_c, 0, 76, 49
1, 180808, Note_on_c, 0, 80, 49
1, 180808, Note_on_c, 0, 52, 0
1, 180811, Note_on_c, 0, 49, 0
1, 180811, Note_on_c, 0, 44, 0
1, 180811, Note_on_c, 0, 44, 44
1, 180814, Note_on_c, 0, 49, 44
1, 180814, Note_on_c, 0, 52, 49
1, 180969, Note_on_c, 0, 80, 0
1, 180969, Note_on_c, 0, 76, 0
1, 180969, Note_on_c, 0, 85, 0
1, 180972, Note_on_c, 0, 87, 109
1, 180972, Note_on_c, 0, 52, 0
1, 180972, Note_on_c, 0, 49, 0
1, 180975, Note_on_c, 0, 44, 0
1, 180975, Note_on_c, 0, 33, 51
1, 180975, Control_c, 0, 64, 0
1, 181096, Control_c, 0, 64, 125
1, 181148, Note_on_c, 0, 75, 61
1, 181148, Note_on_c, 0, 79, 61
1, 181148, Note_on_c, 0, 33, 0
1, 181151, Note_on_c, 0, 52, 51
1, 181151, Note_on_c, 0, 49, 45
1, 181151, Note_on_c, 0, 45, 45
1, 181326, Note_on_c, 0, 79, 0
1, 181326, Note_on_c, 0, 75, 0
1, 181326, Note_on_c, 0, 87, 0
1, 181329, Note_on_c, 0, 88, 106
1, 181329, Note_on_c, 0, 45, 0
1, 181329, Note_on_c, 0, 49, 0
1, 181332, Note_on_c, 0, 52, 0
1, 181332, Note_on_c, 0, 45, 46
1, 181332, Note_on_c, 0, 49, 46
1, 181335, Note_on_c, 0, 52, 54
1, 181335, Control_c, 0, 64, 0
1, 181421, Control_c, 0, 64, 126
1, 181492, Note_on_c, 0, 79, 55
1, 181492, Note_on_c, 0, 76, 55
1, 181492, Note_on_c, 0, 52, 0
1, 181495, Note_on_c, 0, 49, 0
1, 181495, Note_on_c, 0, 45, 0
1, 181495, Note_on_c, 0, 45, 45
1, 181498, Note_on_c, 0, 49, 45
1, 181498, Note_on_c, 0, 52, 52
1, 181659, Note_on_c, 0, 76, 0
1, 181659, Note_on_c, 0, 79, 0
1, 181659, Note_on_c, 0, 79, 50
1, 181662, Note_on_c, 0, 76, 50
1, 181662, Note_on_c, 0, 52, 0
1, 181662, Note_on_c, 0, 49, 0
1, 181665, Note_on_c, 0, 45, 0
1, 181665, Note_on_c, 0, 45, 44
1, 181665, Note_on_c, 0, 49, 44
1, 181668, Note_on_c, 0, 52, 50
1, 181825, Note_on_c, 0, 76, 0
1, 181825, Note_on_c, 0, 79, 0
1, 181825, Note_on_c, 0, 79, 49
1, 181828, Note_on_c, 0, 76, 49
1, 181828, Note_on_c, 0, 52, 0
1, 181828, Note_on_c, 0, 49, 0
1, 181831, Note_on_c, 0, 45, 0
1, 181831, Note_on_c, 0, 45, 43
1, 181831, Note_on_c, 0, 49, 43
1, 181834, Note_on_c, 0, 52, 49
1, 181992, Note_on_c, 0, 76, 0
1, 181992, Note_on_c, 0, 79, 0
1, 181992, Note_on_c, 0, 79, 47
1, 181995, Note_on_c, 0, 76, 47
1, 181995, Note_on_c, 0, 52, 0
1, 181995, Note_on_c, 0, 49, 0
1, 181998, Note_on_c, 0, 45, 0
1, 181998, Note_on_c, 0, 45, 40
1, 181998, Note_on_c, 0, 49, 40
1, 182001, Note_on_c, 0, 52, 47
1, 182158, Note_on_c, 0, 76, 0
1, 182158, Note_on_c, 0, 79, 0
1, 182158, Note_on_c, 0, 76, 47
1, 182161, Note_on_c, 0, 79, 47
1, 182161, Note_on_c, 0, 52, 0
1, 182161, Note_on_c, 0, 49, 0
1, 182164, Note_on_c, 0, 45, 0
1, 182164, Note_on_c, 0, 45, 39
1, 182164, Note_on_c, 0, 49, 39
1, 182167, Note_on_c, 0, 52, 45
1, 182324, Note_on_c, 0, 79, 0
1, 182324, Note_on_c, 0, 76, 0
1, 182324, Note_on_c, 0, 88, 0
1, 182327, Note_on_c, 0, 87, 98
1, 182327, Note_on_c, 0, 52, 0
1, 182327, Note_on_c, 0, 49, 0
1, 182330, Note_on_c, 0, 45, 0
1, 182330, Note_on_c, 0, 45, 38
1, 182330, Note_on_c, 0, 49, 38
1, 182333, Note_on_c, 0, 52, 44
1, 182333, Control_c, 0, 64, 0
1, 182410, Control_c, 0, 64, 126
1, 182491, Note_on_c, 0, 75, 41
1, 182491, Note_on_c, 0, 79, 41
1, 182491, Note_on_c, 0, 52, 0
1, 182494, Note_on_c, 0, 49, 0
1, 182494, Note_on_c, 0, 45, 0
1, 182494, Note_on_c, 0, 45, 36
1, 182497, Note_on_c, 0, 49, 36
1, 182497, Note_on_c, 0, 52, 41
1, 182657, Note_on_c, 0, 79, 0
1, 182657, Note_on_c, 0, 75, 0
1, 182657, Note_on_c, 0, 87, 0
1, 182660, Note_on_c, 0, 85, 91
1, 182660, Note_on_c, 0, 52, 0
1, 182660, Note_on_c, 0, 49, 0
1, 182663, Note_on_c, 0, 45, 0
1, 182663, Note_on_c, 0, 45, 35
1, 182663, Note_on_c, 0, 49, 35
1, 182666, Note_on_c, 0, 52, 40
1, 182824, Note_on_c, 0, 73, 38
1, 182824, Note_on_c, 0, 79, 38
1, 182824, Note_on_c, 0, 52, 0
1, 182827, Note_on_c, 0, 49, 0
1, 182827, Note_on_c, 0, 45, 0
1, 182827, Note_on_c, 0, 45, 34
1, 182830, Note_on_c, 0, 49, 34
1, 182830, Note_on_c, 0, 52, 38
1, 182990, Note_on_c, 0, 79, 0
1, 182990, Note_on_c, 0, 73, 0
1, 182990, Note_on_c, 0, 85, 0
1, 182993, Note_on_c, 0, 85, 81
1, 182993, Note_on_c, 0, 52, 0
1, 182993, Note_on_c, 0, 49, 0
1, 182996, Note_on_c, 0, 45, 0
1, 182996, Note_on_c, 0, 32, 37
1, 182996, Control_c, 0, 64, 0
1, 183137, Control_c, 0, 64, 125
1, 183156, Note_on_c, 0, 73, 37
1, 183156, Note_on_c, 0, 76, 37
1, 183156, Note_on_c, 0, 80, 37
1, 183159, Note_on_c, 0, 32, 0
1, 183159, Note_on_c, 0, 52, 36
1, 183159, Note_on_c, 0, 49, 32
1, 183162, Note_on_c, 0, 44, 32
1, 183323, Note_on_c, 0, 80, 0
1, 183323, Note_on_c, 0, 76, 0
1, 183323, Note_on_c, 0, 73, 0
1, 183326, Note_on_c, 0, 73, 37
1, 183326, Note_on_c, 0, 76, 37
1, 183326, Note_on_c, 0, 80, 37
1, 183329, Note_on_c, 0, 44, 0
1, 183329, Note_on_c, 0, 49, 0
1, 183329, Note_on_c, 0, 52, 0
1, 183332, Note_on_c, 0, 52, 36
1, 183332, Note_on_c, 0, 49, 32
1, 183332, Note_on_c, 0, 44, 32
1, 183489, Note_on_c, 0, 80, 0
1, 183489, Note_on_c, 0, 76, 0
1, 183489, Note_on_c, 0, 73, 0
1, 183492, Note_on_c, 0, 73, 37
1, 183492, Note_on_c, 0, 76, 37
1, 183492, Note_on_c, 0, 80, 37
1, 183495, Note_on_c, 0, 44, 0
1, 183495, Note_on_c, 0, 49, 0
1, 183495, Note_on_c, 0, 52, 0
1, 183498, Note_on_c, 0, 52, 36
1, 183498, Note_on_c, 0, 49, 32
1, 183498, Note_on_c, 0, 44, 32
1, 183656, Note_on_c, 0, 80, 0
1, 183656, Note_on_c, 0, 76, 0
1, 183656, Note_on_c, 0, 73, 0
1, 183659, Note_on_c, 0, 73, 37
1, 183659, Note_on_c, 0, 76, 37
1, 183659, Note_on_c, 0, 80, 37
1, 183662, Note_on_c, 0, 44, 0
1, 183662, Note_on_c, 0, 49, 0
1, 183662, Note_on_c, 0, 52, 0
1, 183665, Note_on_c, 0, 52, 36
1, 183665, Note_on_c, 0, 49, 32
1, 183665, Note_on_c, 0, 44, 32
1, 183822, Note_on_c, 0, 80, 0
1, 183822, Note_on_c, 0, 76, 0
1, 183822, Note_on_c, 0, 73, 0
1, 183825, Note_on_c, 0, 73, 35
1, 183825, Note_on_c, 0, 76, 35
1, 183825, Note_on_c, 0, 80, 35
1, 183828, Note_on_c, 0, 44, 0
1, 183828, Note_on_c, 0, 49, 0
1, 183828, Note_on_c, 0, 52, 0
1, 183831, Note_on_c, 0, 52, 36
1, 183831, Note_on_c, 0, 49, 32
1, 183831, Note_on_c, 0, 44, 32
1, 183988, Note_on_c, 0, 80, 0
1, 183988, Note_on_c, 0, 85, 0
1, 183988, Note_on_c, 0, 73, 0
1, 183991, Note_on_c, 0, 76, 0
1, 183991, Note_on_c, 0, 80, 72
1, 183991, Note_on_c, 0, 44, 0
1, 183994, Note_on_c, 0, 49, 0
1, 183994, Note_on_c, 0, 52, 0
1, 183994, Note_on_c, 0, 32, 36
1, 183997, Control_c, 0, 64, 0
1, 184146, Control_c, 0, 64, 126
1, 184155, Note_on_c, 0, 72, 32
1, 184155, Note_on_c, 0, 75, 32
1, 184155, Note_on_c, 0, 32, 0
1, 184158, Note_on_c, 0, 51, 34
1, 184158, Note_on_c, 0, 48, 29
1, 184158, Note_on_c, 0, 44, 29
1, 184321, Note_on_c, 0, 75, 0
1, 184321, Note_on_c, 0, 72, 0
1, 184321, Note_on_c, 0, 72, 30
1, 184324, Note_on_c, 0, 75, 30
1, 184324, Note_on_c, 0, 44, 0
1, 184324, Note_on_c, 0, 48, 0
1, 184327, Note_on_c, 0, 51, 0
1, 184327, Note_on_c, 0, 51, 34
1, 184327, Note_on_c, 0, 48, 29
1, 184330, Note_on_c, 0, 44, 29
1, 184488, Note_on_c, 0, 75, 0
1, 184488, Note_on_c, 0, 72, 0
1, 184488, Note_on_c, 0, 72, 30
1, 184491, Note_on_c, 0, 75, 30
1, 184491, Note_on_c, 0, 44, 0
1, 184491, Note_on_c, 0, 48, 0
1, 184494, Note_on_c, 0, 51, 0
1, 184494, Note_on_c, 0, 51, 32
1, 184494, Note_on_c, 0, 48, 28
1, 184497, Note_on_c, 0, 44, 28
1, 184654, Note_on_c, 0, 75, 0
1, 184654, Note_on_c, 0, 72, 0
1, 184654, Note_on_c, 0, 72, 30
1, 184657, Note_on_c, 0, 75, 30
1, 184657, Note_on_c, 0, 44, 0
1, 184657, Note_on_c, 0, 48, 0
1, 184660, Note_on_c, 0, 51, 0
1, 184660, Note_on_c, 0, 51, 32
1, 184660, Note_on_c, 0, 48, 27
1, 184663, Note_on_c, 0, 44, 27
1, 184858, Note_on_c, 0, 75, 0
1, 184858, Note_on_c, 0, 72, 0
1, 184858, Note_on_c, 0, 72, 30
1, 184861, Note_on_c, 0, 75, 30
1, 184861, Note_on_c, 0, 44, 0
1, 184861, Note_on_c, 0, 48, 0
1, 184864, Note_on_c, 0, 51, 0
1, 184864, Note_on_c, 0, 51, 32
1, 184864, Note_on_c, 0, 48, 27
1, 184867, Note_on_c, 0, 44, 27
1, 185063, Note_on_c, 0, 75, 0
1, 185063, Note_on_c, 0, 72, 0
1, 185063, Note_on_c, 0, 80, 0
1, 185066, Note_on_c, 0, 68, 58
1, 185066, Note_on_c, 0, 44, 0
1, 185066, Note_on_c, 0, 48, 0
1, 185069, Note_on_c, 0, 51, 0
1, 185069, Note_on_c, 0, 37, 52
1, 185069, Control_c, 0, 64, 0
1, 185072, Control_c, 0, 91, 127
1, 185072, Control_c, 0, 91, 127
1, 185209, Control_c, 0, 64, 126
1, 185234, Note_on_c, 0, 65, 37
1, 185234, Note_on_c, 0, 56, 37
1, 185234, Note_on_c, 0, 37, 0
1, 185237, Note_on_c, 0, 53, 36
1, 185237, Note_on_c, 0, 49, 32
1, 185237, Note_on_c, 0, 44, 32
1, 185406, Note_on_c, 0, 56, 0
1, 185406, Note_on_c, 0, 65, 0
1, 185406, Note_on_c, 0, 65, 36
1, 185409, Note_on_c, 0, 56, 36
1, 185409, Note_on_c, 0, 44, 0
1, 185409, Note_on_c, 0, 49, 0
1, 185412, Note_on_c, 0, 53, 0
1, 185412, Note_on_c, 0, 53, 36
1, 185412, Note_on_c, 0, 44, 32
1, 185415, Note_on_c, 0, 49, 32
1, 185572, Note_on_c, 0, 56, 0
1, 185572, Note_on_c, 0, 65, 0
1, 185572, Note_on_c, 0, 65, 36
1, 185575, Note_on_c, 0, 56, 36
1, 185575, Note_on_c, 0, 49, 0
1, 185575, Note_on_c, 0, 44, 0
1, 185578, Note_on_c, 0, 53, 0
1, 185578, Note_on_c, 0, 53, 36
1, 185578, Note_on_c, 0, 44, 32
1, 185581, Note_on_c, 0, 49, 32
1, 185739, Note_on_c, 0, 56, 0
1, 185739, Note_on_c, 0, 65, 0
1, 185739, Note_on_c, 0, 65, 36
1, 185742, Note_on_c, 0, 56, 36
1, 185742, Note_on_c, 0, 49, 0
1, 185742, Note_on_c, 0, 44, 0
1, 185745, Note_on_c, 0, 53, 0
1, 185745, Note_on_c, 0, 53, 36
1, 185745, Note_on_c, 0, 44, 32
1, 185748, Note_on_c, 0, 49, 32
1, 185905, Note_on_c, 0, 56, 0
1, 185905, Note_on_c, 0, 65, 0
1, 185905, Note_on_c, 0, 65, 36
1, 185908, Note_on_c, 0, 56, 36
1, 185908, Note_on_c, 0, 49, 0
1, 185908, Note_on_c, 0, 44, 0
1, 185911, Note_on_c, 0, 53, 0
1, 185911, Note_on_c, 0, 53, 36
1, 185911, Note_on_c, 0, 44, 32
1, 185914, Note_on_c, 0, 49, 32
1, 186072, Note_on_c, 0, 56, 0
1, 186072, Note_on_c, 0, 65, 0
1, 186072, Note_on_c, 0, 68, 0
1, 186075, Note_on_c, 0, 68, 60
1, 186075, Note_on_c, 0, 49, 0
1, 186075, Note_on_c, 0, 44, 0
1, 186078, Note_on_c, 0, 53, 0
1, 186078, Note_on_c, 0, 53, 36
1, 186078, Note_on_c, 0, 44, 32
1, 186081, Note_on_c, 0, 49, 32
1, 186081, Control_c, 0, 64, 0
1, 186187, Control_c, 0, 64, 125
1, 186259, Note_on_c, 0, 65, 36
1, 186259, Note_on_c, 0, 56, 36
1, 186259, Note_on_c, 0, 49, 0
1, 186262, Note_on_c, 0, 44, 0
1, 186262, Note_on_c, 0, 53, 0
1, 186262, Note_on_c, 0, 53, 36
1, 186265, Note_on_c, 0, 44, 32
1, 186265, Note_on_c, 0, 49, 32
1, 186445, Note_on_c, 0, 56, 0
1, 186445, Note_on_c, 0, 65, 0
1, 186445, Note_on_c, 0, 68, 0
1, 186448, Note_on_c, 0, 70, 62
1, 186448, Note_on_c, 0, 49, 0
1, 186448, Note_on_c, 0, 44, 0
1, 186451, Note_on_c, 0, 53, 0
1, 186451, Note_on_c, 0, 53, 36
1, 186451, Note_on_c, 0, 44, 32
1, 186454, Note_on_c, 0, 49, 32
1, 186605, Note_on_c, 0, 58, 37
1, 186605, Note_on_c, 0, 65, 37
1, 186605, Note_on_c, 0, 49, 0
1, 186608, Note_on_c, 0, 44, 0
1, 186608, Note_on_c, 0, 53, 0
1, 186608, Note_on_c, 0, 53, 36
1, 186611, Note_on_c, 0, 44, 32
1, 186611, Note_on_c, 0, 49, 32
1, 186765, Note_on_c, 0, 65, 0
1, 186765, Note_on_c, 0, 58, 0
1, 186765, Note_on_c, 0, 70, 0
1, 186768, Note_on_c, 0, 68, 55
1, 186768, Note_on_c, 0, 49, 0
1, 186768, Note_on_c, 0, 44, 0
1, 186771, Note_on_c, 0, 53, 0
1, 186771, Note_on_c, 0, 53, 36
1, 186771, Note_on_c, 0, 44, 32
1, 186774, Note_on_c, 0, 49, 32
1, 186932, Note_on_c, 0, 65, 36
1, 186932, Note_on_c, 0, 56, 36
1, 186932, Note_on_c, 0, 49, 0
1, 186935, Note_on_c, 0, 44, 0
1, 186935, Note_on_c, 0, 53, 0
1, 186935, Note_on_c, 0, 53, 36
1, 186938, Note_on_c, 0, 49, 32
1, 186938, Note_on_c, 0, 44, 32
1, 187098, Note_on_c, 0, 56, 0
1, 187098, Note_on_c, 0, 65, 0
1, 187098, Note_on_c, 0, 68, 0
1, 187101, Note_on_c, 0, 70, 67
1, 187101, Note_on_c, 0, 44, 0
1, 187101, Note_on_c, 0, 49, 0
1, 187104, Note_on_c, 0, 53, 0
1, 187104, Note_on_c, 0, 36, 51
1, 187104, Control_c, 0, 64, 0
1, 187249, Control_c, 0, 64, 126
1, 187265, Note_on_c, 0, 56, 36
1, 187265, Note_on_c, 0, 66, 36
1, 187265, Note_on_c, 0, 36, 0
1, 187268, Note_on_c, 0, 51, 32
1, 187268, Note_on_c, 0, 54, 36
1, 187268, Note_on_c, 0, 44, 32
1, 187432, Note_on_c, 0, 66, 0
1, 187432, Note_on_c, 0, 56, 0
1, 187432, Note_on_c, 0, 56, 36
1, 187435, Note_on_c, 0, 66, 36
1, 187435, Note_on_c, 0, 44, 0
1, 187435, Note_on_c, 0, 54, 0
1, 187438, Note_on_c, 0, 51, 0
1, 187438, Note_on_c, 0, 44, 32
1, 187438, Note_on_c, 0, 51, 32
1, 187441, Note_on_c, 0, 54, 36
1, 187599, Note_on_c, 0, 66, 0
1, 187599, Note_on_c, 0, 56, 0
1, 187599, Note_on_c, 0, 56, 36
1, 187602, Note_on_c, 0, 66, 36
1, 187602, Note_on_c, 0, 54, 0
1, 187602, Note_on_c, 0, 51, 0
1, 187605, Note_on_c, 0, 44, 0
1, 187605, Note_on_c, 0, 44, 32
1, 187605, Note_on_c, 0, 51, 32
1, 187608, Note_on_c, 0, 54, 36
1, 187766, Note_on_c, 0, 66, 0
1, 187766, Note_on_c, 0, 56, 0
1, 187766, Note_on_c, 0, 56, 36
1, 187769, Note_on_c, 0, 66, 36
1, 187769, Note_on_c, 0, 54, 0
1, 187769, Note_on_c, 0, 51, 0
1, 187772, Note_on_c, 0, 44, 0
1, 187772, Note_on_c, 0, 44, 32
1, 187772, Note_on_c, 0, 51, 32
1, 187775, Note_on_c, 0, 54, 36
1, 187933, Note_on_c, 0, 66, 0
1, 187933, Note_on_c, 0, 56, 0
1, 187933, Note_on_c, 0, 56, 36
1, 187936, Note_on_c, 0, 66, 36
1, 187936, Note_on_c, 0, 54, 0
1, 187936, Note_on_c, 0, 51, 0
1, 187939, Note_on_c, 0, 44, 0
1, 187939, Note_on_c, 0, 44, 32
1, 187939, Note_on_c, 0, 51, 32
1, 187942, Note_on_c, 0, 54, 36
1, 188100, Note_on_c, 0, 66, 0
1, 188100, Note_on_c, 0, 56, 0
1, 188100, Note_on_c, 0, 70, 0
1, 188103, Note_on_c, 0, 68, 60
1, 188103, Note_on_c, 0, 54, 0
1, 188103, Note_on_c, 0, 51, 0
1, 188106, Note_on_c, 0, 44, 0
1, 188106, Note_on_c, 0, 44, 32
1, 188106, Note_on_c, 0, 51, 32
1, 188109, Note_on_c, 0, 54, 36
1, 188109, Control_c, 0, 64, 0
1, 188267, Note_on_c, 0, 56, 38
1, 188267, Note_on_c, 0, 66, 38
1, 188267, Note_on_c, 0, 54, 0
1, 188270, Note_on_c, 0, 51, 0
1, 188270, Note_on_c, 0, 44, 0
1, 188270, Note_on_c, 0, 44, 32
1, 188273, Note_on_c, 0, 51, 32
1, 188273, Note_on_c, 0, 54, 36
1, 188287, Control_c, 0, 64, 125
1, 188434, Note_on_c, 0, 66, 0
1, 188434, Note_on_c, 0, 56, 0
1, 188434, Note_on_c, 0, 56, 39
1, 188437, Note_on_c, 0, 66, 39
1, 188437, Note_on_c, 0, 54, 0
1, 188437, Note_on_c, 0, 51, 0
1, 188440, Note_on_c, 0, 44, 0
1, 188440, Note_on_c, 0, 44, 32
1, 188440, Note_on_c, 0, 51, 32
1, 188443, Note_on_c, 0, 54, 36
1, 188601, Note_on_c, 0, 66, 0
1, 188601, Note_on_c, 0, 56, 0
1, 188601, Note_on_c, 0, 56, 39
1, 188604, Note_on_c, 0, 66, 39
1, 188604, Note_on_c, 0, 54, 0
1, 188604, Note_on_c, 0, 51, 0
1, 188607, Note_on_c, 0, 44, 0
1, 188607, Note_on_c, 0, 44, 32
1, 188607, Note_on_c, 0, 51, 32
1, 188610, Note_on_c, 0, 54, 36
1, 188768, Note_on_c, 0, 66, 0
1, 188768, Note_on_c, 0, 56, 0
1, 188768, Note_on_c, 0, 56, 39
1, 188771, Note_on_c, 0, 66, 39
1, 188771, Note_on_c, 0, 54, 0
1, 188771, Note_on_c, 0, 51, 0
1, 188774, Note_on_c, 0, 44, 0
1, 188774, Note_on_c, 0, 51, 32
1, 188774, Note_on_c, 0, 44, 32
1, 188777, Note_on_c, 0, 54, 36
1, 188936, Note_on_c, 0, 66, 0
1, 188936, Note_on_c, 0, 56, 0
1, 188936, Note_on_c, 0, 56, 39
1, 188939, Note_on_c, 0, 66, 39
1, 188939, Note_on_c, 0, 54, 0
1, 188939, Note_on_c, 0, 44, 0
1, 188942, Note_on_c, 0, 51, 0
1, 188942, Note_on_c, 0, 44, 32
1, 188942, Note_on_c, 0, 51, 32
1, 188945, Note_on_c, 0, 54, 36
1, 189103, Note_on_c, 0, 66, 0
1, 189103, Note_on_c, 0, 56, 0
1, 189103, Note_on_c, 0, 68, 0
1, 189106, Note_on_c, 0, 68, 62
1, 189106, Note_on_c, 0, 54, 0
1, 189106, Note_on_c, 0, 51, 0
1, 189109, Note_on_c, 0, 44, 0
1, 189109, Note_on_c, 0, 37, 50
1, 189109, Control_c, 0, 64, 0
1, 189230, Control_c, 0, 64, 126
1, 189270, Note_on_c, 0, 65, 36
1, 189270, Note_on_c, 0, 56, 36
1, 189270, Note_on_c, 0, 37, 0
1, 189273, Note_on_c, 0, 53, 36
1, 189273, Note_on_c, 0, 49, 32
1, 189273, Note_on_c, 0, 44, 32
1, 189437, Note_on_c, 0, 56, 0
1, 189437, Note_on_c, 0, 65, 0
1, 189437, Note_on_c, 0, 65, 36
1, 189440, Note_on_c, 0, 56, 36
1, 189440, Note_on_c, 0, 44, 0
1, 189440, Note_on_c, 0, 49, 0
1, 189443, Note_on_c, 0, 53, 0
1, 189443, Note_on_c, 0, 53, 36
1, 189443, Note_on_c, 0, 44, 32
1, 189446, Note_on_c, 0, 49, 32
1, 189604, Note_on_c, 0, 56, 0
1, 189604, Note_on_c, 0, 65, 0
1, 189604, Note_on_c, 0, 65, 36
1, 189607, Note_on_c, 0, 56, 36
1, 189607, Note_on_c, 0, 49, 0
1, 189607, Note_on_c, 0, 44, 0
1, 189610, Note_on_c, 0, 53, 0
1, 189610, Note_on_c, 0, 53, 36
1, 189610, Note_on_c, 0, 44, 32
1, 189613, Note_on_c, 0, 49, 32
1, 189771, Note_on_c, 0, 56, 0
1, 189771, Note_on_c, 0, 65, 0
1, 189771, Note_on_c, 0, 65, 36
1, 189774, Note_on_c, 0, 56, 36
1, 189774, Note_on_c, 0, 49, 0
1, 189774, Note_on_c, 0, 44, 0
1, 189777, Note_on_c, 0, 53, 0
1, 189777, Note_on_c, 0, 53, 36
1, 189777, Note_on_c, 0, 44, 32
1, 189780, Note_on_c, 0, 49, 32
1, 189938, Note_on_c, 0, 56, 0
1, 189938, Note_on_c, 0, 65, 0
1, 189938, Note_on_c, 0, 65, 37
1, 189941, Note_on_c, 0, 56, 37
1, 189941, Note_on_c, 0, 49, 0
1, 189941, Note_on_c, 0, 44, 0
1, 189944, Note_on_c, 0, 53, 0
1, 189944, Note_on_c, 0, 53, 36
1, 189944, Note_on_c, 0, 44, 32
1, 189947, Note_on_c, 0, 49, 32
1, 190105, Note_on_c, 0, 56, 0
1, 190105, Note_on_c, 0, 65, 0
1, 190105, Note_on_c, 0, 68, 0
1, 190108, Note_on_c, 0, 77, 76
1, 190108, Note_on_c, 0, 49, 0
1, 190108, Note_on_c, 0, 44, 0
1, 190111, Note_on_c, 0, 53, 0
1, 190111, Note_on_c, 0, 53, 36
1, 190111, Note_on_c, 0, 44, 32
1, 190114, Note_on_c, 0, 49, 32
1, 190114, Control_c, 0, 64, 1
1, 190235, Control_c, 0, 64, 125
1, 190265, Note_on_c, 0, 65, 38
1, 190265, Note_on_c, 0, 68, 38
1, 190265, Note_on_c, 0, 49, 0
1, 190268, Note_on_c, 0, 44, 0
1, 190268, Note_on_c, 0, 53, 0
1, 190268, Note_on_c, 0, 53, 36
1, 190271, Note_on_c, 0, 44, 32
1, 190271, Note_on_c, 0, 49, 32
1, 190426, Note_on_c, 0, 68, 0
1, 190426, Note_on_c, 0, 65, 0
1, 190426, Note_on_c, 0, 77, 0
1, 190429, Note_on_c, 0, 75, 72
1, 190429, Note_on_c, 0, 49, 0
1, 190429, Note_on_c, 0, 44, 0
1, 190432, Note_on_c, 0, 53, 0
1, 190432, Note_on_c, 0, 53, 36
1, 190432, Note_on_c, 0, 44, 32
1, 190435, Note_on_c, 0, 49, 32
1, 190586, Note_on_c, 0, 63, 37
1, 190586, Note_on_c, 0, 68, 37
1, 190586, Note_on_c, 0, 49, 0
1, 190589, Note_on_c, 0, 44, 0
1, 190589, Note_on_c, 0, 53, 0
1, 190589, Note_on_c, 0, 53, 36
1, 190592, Note_on_c, 0, 44, 32
1, 190592, Note_on_c, 0, 49, 32
1, 190747, Note_on_c, 0, 68, 0
1, 190747, Note_on_c, 0, 63, 0
1, 190747, Note_on_c, 0, 75, 0
1, 190750, Note_on_c, 0, 73, 70
1, 190750, Note_on_c, 0, 49, 0
1, 190750, Note_on_c, 0, 44, 0
1, 190753, Note_on_c, 0, 53, 0
1, 190753, Note_on_c, 0, 53, 36
1, 190753, Note_on_c, 0, 44, 32
1, 190756, Note_on_c, 0, 49, 32
1, 190942, Note_on_c, 0, 61, 37
1, 190942, Note_on_c, 0, 68, 37
1, 190942, Note_on_c, 0, 49, 0
1, 190945, Note_on_c, 0, 44, 0
1, 190945, Note_on_c, 0, 53, 0
1, 190945, Note_on_c, 0, 53, 36
1, 190948, Note_on_c, 0, 49, 32
1, 190948, Note_on_c, 0, 44, 32
1, 191138, Note_on_c, 0, 68, 0
1, 191138, Note_on_c, 0, 61, 0
1, 191138, Note_on_c, 0, 73, 0
1, 191141, Note_on_c, 0, 73, 70
1, 191141, Note_on_c, 0, 44, 0
1, 191141, Note_on_c, 0, 49, 0
1, 191144, Note_on_c, 0, 53, 0
1, 191144, Note_on_c, 0, 39, 49
1, 191144, Control_c, 0, 64, 0
1, 191305, Note_on_c, 0, 61, 37
1, 191305, Note_on_c, 0, 68, 37
1, 191305, Note_on_c, 0, 39, 0
1, 191308, Note_on_c, 0, 51, 32
1, 191308, Note_on_c, 0, 54, 36
1, 191308, Note_on_c, 0, 44, 32
1, 191315, Control_c, 0, 64, 126
1, 191472, Note_on_c, 0, 68, 0
1, 191472, Note_on_c, 0, 61, 0
1, 191472, Note_on_c, 0, 61, 37
1, 191475, Note_on_c, 0, 68, 37
1, 191475, Note_on_c, 0, 44, 0
1, 191475, Note_on_c, 0, 54, 0
1, 191478, Note_on_c, 0, 51, 0
1, 191478, Note_on_c, 0, 44, 32
1, 191478, Note_on_c, 0, 51, 32
1, 191481, Note_on_c, 0, 54, 36
1, 191638, Note_on_c, 0, 68, 0
1, 191638, Note_on_c, 0, 61, 0
1, 191638, Note_on_c, 0, 61, 37
1, 191641, Note_on_c, 0, 68, 37
1, 191641, Note_on_c, 0, 54, 0
1, 191641, Note_on_c, 0, 51, 0
1, 191644, Note_on_c, 0, 44, 0
1, 191644, Note_on_c, 0, 44, 32
1, 191644, Note_on_c, 0, 51, 32
1, 191647, Note_on_c, 0, 54, 36
1, 191804, Note_on_c, 0, 68, 0
1, 191804, Note_on_c, 0, 61, 0
1, 191804, Note_on_c, 0, 61, 37
1, 191807, Note_on_c, 0, 68, 37
1, 191807, Note_on_c, 0, 54, 0
1, 191807, Note_on_c, 0, 51, 0
1, 191810, Note_on_c, 0, 44, 0
1, 191810, Note_on_c, 0, 44, 32
1, 191810, Note_on_c, 0, 51, 32
1, 191813, Note_on_c, 0, 54, 36
1, 191971, Note_on_c, 0, 68, 0
1, 191971, Note_on_c, 0, 61, 0
1, 191971, Note_on_c, 0, 61, 37
1, 191974, Note_on_c, 0, 68, 37
1, 191974, Note_on_c, 0, 54, 0
1, 191974, Note_on_c, 0, 51, 0
1, 191977, Note_on_c, 0, 44, 0
1, 191977, Note_on_c, 0, 44, 32
1, 191977, Note_on_c, 0, 51, 32
1, 191980, Note_on_c, 0, 54, 36
1, 192137, Note_on_c, 0, 68, 0
1, 192137, Note_on_c, 0, 61, 0
1, 192137, Note_on_c, 0, 73, 0
1, 192140, Note_on_c, 0, 72, 71
1, 192140, Note_on_c, 0, 54, 0
1, 192140, Note_on_c, 0, 51, 0
1, 192143, Note_on_c, 0, 44, 0
1, 192143, Note_on_c, 0, 44, 32
1, 192143, Note_on_c, 0, 51, 32
1, 192146, Note_on_c, 0, 54, 36
1, 192146, Control_c, 0, 64, 0
1, 192256, Control_c, 0, 64, 125
1, 192304, Note_on_c, 0, 60, 37
1, 192304, Note_on_c, 0, 68, 37
1, 192304, Note_on_c, 0, 54, 0
1, 192307, Note_on_c, 0, 51, 0
1, 192307, Note_on_c, 0, 44, 0
1, 192307, Note_on_c, 0, 44, 32
1, 192310, Note_on_c, 0, 51, 32
1, 192310, Note_on_c, 0, 54, 36
1, 192470, Note_on_c, 0, 68, 0
1, 192470, Note_on_c, 0, 60, 0
1, 192470, Note_on_c, 0, 60, 37
1, 192473, Note_on_c, 0, 68, 37
1, 192473, Note_on_c, 0, 54, 0
1, 192473, Note_on_c, 0, 51, 0
1, 192476, Note_on_c, 0, 44, 0
1, 192476, Note_on_c, 0, 44, 32
1, 192476, Note_on_c, 0, 51, 32
1, 192479, Note_on_c, 0, 54, 36
1, 192636, Note_on_c, 0, 68, 0
1, 192636, Note_on_c, 0, 60, 0
1, 192636, Note_on_c, 0, 60, 37
1, 192639, Note_on_c, 0, 68, 37
1, 192639, Note_on_c, 0, 54, 0
1, 192639, Note_on_c, 0, 51, 0
1, 192642, Note_on_c, 0, 44, 0
1, 192642, Note_on_c, 0, 44, 32
1, 192642, Note_on_c, 0, 51, 32
1, 192645, Note_on_c, 0, 54, 36
1, 192803, Note_on_c, 0, 68, 0
1, 192803, Note_on_c, 0, 60, 0
1, 192803, Note_on_c, 0, 60, 37
1, 192806, Note_on_c, 0, 68, 37
1, 192806, Note_on_c, 0, 54, 0
1, 192806, Note_on_c, 0, 51, 0
1, 192809, Note_on_c, 0, 44, 0
1, 192809, Note_on_c, 0, 51, 32
1, 192809, Note_on_c, 0, 44, 32
1, 192812, Note_on_c, 0, 54, 36
1, 192969, Note_on_c, 0, 68, 0
1, 192969, Note_on_c, 0, 60, 0
1, 192969, Note_on_c, 0, 60, 37
1, 192972, Note_on_c, 0, 68, 37
1, 192972, Note_on_c, 0, 54, 0
1, 192972, Note_on_c, 0, 44, 0
1, 192975, Note_on_c, 0, 51, 0
1, 192975, Note_on_c, 0, 44, 32
1, 192975, Note_on_c, 0, 51, 32
1, 192978, Note_on_c, 0, 54, 36
1, 193136, Note_on_c, 0, 68, 0
1, 193136, Note_on_c, 0, 60, 0
1, 193136, Note_on_c, 0, 72, 0
1, 193139, Note_on_c, 0, 72, 68
1, 193139, Note_on_c, 0, 54, 0
1, 193139, Note_on_c, 0, 51, 0
1, 193142, Note_on_c, 0, 44, 0
1, 193142, Note_on_c, 0, 40, 52
1, 193142, Control_c, 0, 64, 0
1, 193222, Control_c, 0, 64, 124
1, 193317, Note_on_c, 0, 60, 45
1, 193317, Note_on_c, 0, 69, 45
1, 193317, Note_on_c, 0, 40, 0
1, 193320, Note_on_c, 0, 52, 45
1, 193320, Note_on_c, 0, 45, 39
1, 193496, Note_on_c, 0, 69, 0
1, 193496, Note_on_c, 0, 60, 0
1, 193496, Note_on_c, 0, 72, 0
1, 193499, Note_on_c, 0, 73, 78
1, 193499, Note_on_c, 0, 45, 0
1, 193499, Note_on_c, 0, 52, 0
1, 193502, Note_on_c, 0, 45, 39
1, 193502, Note_on_c, 0, 52, 45
1, 193502, Control_c, 0, 64, 0
1, 193627, Control_c, 0, 64, 125
1, 193657, Note_on_c, 0, 61, 45
1, 193657, Note_on_c, 0, 69, 45
1, 193657, Note_on_c, 0, 52, 0
1, 193660, Note_on_c, 0, 45, 0
1, 193660, Note_on_c, 0, 45, 39
1, 193660, Note_on_c, 0, 52, 45
1, 193818, Note_on_c, 0, 69, 0
1, 193818, Note_on_c, 0, 61, 0
1, 193818, Note_on_c, 0, 61, 45
1, 193821, Note_on_c, 0, 69, 45
1, 193821, Note_on_c, 0, 52, 0
1, 193821, Note_on_c, 0, 45, 0
1, 193824, Note_on_c, 0, 45, 39
1, 193824, Note_on_c, 0, 52, 45
1, 193979, Note_on_c, 0, 69, 0
1, 193979, Note_on_c, 0, 61, 0
1, 193979, Note_on_c, 0, 61, 45
1, 193982, Note_on_c, 0, 69, 45
1, 193982, Note_on_c, 0, 52, 0
1, 193982, Note_on_c, 0, 45, 0
1, 193985, Note_on_c, 0, 45, 39
1, 193985, Note_on_c, 0, 52, 45
1, 194140, Note_on_c, 0, 69, 0
1, 194140, Note_on_c, 0, 61, 0
1, 194140, Note_on_c, 0, 61, 45
1, 194143, Note_on_c, 0, 69, 45
1, 194143, Note_on_c, 0, 52, 0
1, 194143, Note_on_c, 0, 45, 0
1, 194146, Note_on_c, 0, 52, 45
1, 194146, Note_on_c, 0, 45, 39
1, 194302, Note_on_c, 0, 69, 0
1, 194302, Note_on_c, 0, 61, 0
1, 194302, Note_on_c, 0, 61, 45
1, 194305, Note_on_c, 0, 69, 45
1, 194305, Note_on_c, 0, 45, 0
1, 194305, Note_on_c, 0, 52, 0
1, 194308, Note_on_c, 0, 45, 39
1, 194308, Note_on_c, 0, 52, 45
1, 194463, Note_on_c, 0, 69, 0
1, 194463, Note_on_c, 0, 61, 0
1, 194463, Note_on_c, 0, 73, 0
1, 194466, Note_on_c, 0, 73, 80
1, 194466, Note_on_c, 0, 52, 0
1, 194466, Note_on_c, 0, 45, 0
1, 194469, Note_on_c, 0, 40, 45
1, 194624, Note_on_c, 0, 61, 45
1, 194624, Note_on_c, 0, 69, 45
1, 194624, Note_on_c, 0, 52, 45
1, 194627, Note_on_c, 0, 45, 39
1, 194785, Note_on_c, 0, 69, 0
1, 194785, Note_on_c, 0, 61, 0
1, 194785, Note_on_c, 0, 73, 0
1, 194788, Note_on_c, 0, 73, 79
1, 194788, Note_on_c, 0, 45, 0
1, 194788, Note_on_c, 0, 52, 0
1, 194791, Note_on_c, 0, 40, 0
1, 194791, Note_on_c, 0, 40, 45
1, 194946, Note_on_c, 0, 61, 45
1, 194946, Note_on_c, 0, 69, 45
1, 194946, Note_on_c, 0, 52, 45
1, 194949, Note_on_c, 0, 45, 39
1, 195107, Note_on_c, 0, 69, 0
1, 195107, Note_on_c, 0, 61, 0
1, 195107, Note_on_c, 0, 73, 0
1, 195110, Note_on_c, 0, 73, 80
1, 195110, Note_on_c, 0, 45, 0
1, 195110, Note_on_c, 0, 52, 0
1, 195113, Note_on_c, 0, 40, 0
1, 195113, Note_on_c, 0, 35, 52
1, 195113, Control_c, 0, 64, 0
1, 195193, Control_c, 0, 64, 126
1, 195287, Note_on_c, 0, 61, 54
1, 195287, Note_on_c, 0, 68, 54
1, 195287, Note_on_c, 0, 35, 0
1, 195290, Note_on_c, 0, 47, 48
1, 195290, Note_on_c, 0, 40, 41
1, 195467, Note_on_c, 0, 68, 0
1, 195467, Note_on_c, 0, 61, 0
1, 195467, Note_on_c, 0, 73, 0
1, 195470, Note_on_c, 0, 74, 88
1, 195470, Note_on_c, 0, 40, 0
1, 195470, Note_on_c, 0, 47, 0
1, 195473, Note_on_c, 0, 40, 41
1, 195473, Note_on_c, 0, 47, 48
1, 195473, Control_c, 0, 64, 0
1, 195590, Control_c, 0, 64, 125
1, 195628, Note_on_c, 0, 62, 54
1, 195628, Note_on_c, 0, 68, 54
1, 195628, Note_on_c, 0, 47, 0
1, 195631, Note_on_c, 0, 40, 0
1, 195631, Note_on_c, 0, 40, 41
1, 195631, Note_on_c, 0, 47, 48
1, 195790, Note_on_c, 0, 68, 0
1, 195790, Note_on_c, 0, 62, 0
1, 195790, Note_on_c, 0, 62, 54
1, 195793, Note_on_c, 0, 68, 54
1, 195793, Note_on_c, 0, 47, 0
1, 195793, Note_on_c, 0, 40, 0
1, 195796, Note_on_c, 0, 47, 48
1, 195796, Note_on_c, 0, 40, 41
1, 195952, Note_on_c, 0, 68, 0
1, 195952, Note_on_c, 0, 62, 0
1, 195952, Note_on_c, 0, 62, 54
1, 195955, Note_on_c, 0, 68, 54
1, 195955, Note_on_c, 0, 40, 0
1, 195955, Note_on_c, 0, 47, 0
1, 195958, Note_on_c, 0, 40, 41
1, 195958, Note_on_c, 0, 47, 48
1, 196113, Note_on_c, 0, 68, 0
1, 196113, Note_on_c, 0, 62, 0
1, 196113, Note_on_c, 0, 62, 54
1, 196116, Note_on_c, 0, 68, 54
1, 196116, Note_on_c, 0, 47, 0
1, 196116, Note_on_c, 0, 40, 0
1, 196119, Note_on_c, 0, 40, 44
1, 196119, Note_on_c, 0, 47, 49
1, 196275, Note_on_c, 0, 68, 0
1, 196275, Note_on_c, 0, 62, 0
1, 196275, Note_on_c, 0, 62, 54
1, 196278, Note_on_c, 0, 68, 54
1, 196278, Note_on_c, 0, 47, 0
1, 196278, Note_on_c, 0, 40, 0
1, 196281, Note_on_c, 0, 40, 44
1, 196281, Note_on_c, 0, 47, 49
1, 196436, Note_on_c, 0, 68, 0
1, 196436, Note_on_c, 0, 62, 0
1, 196436, Note_on_c, 0, 74, 0
1, 196439, Note_on_c, 0, 74, 85
1, 196439, Note_on_c, 0, 47, 0
1, 196439, Note_on_c, 0, 40, 0
1, 196442, Note_on_c, 0, 35, 49
1, 196598, Note_on_c, 0, 62, 54
1, 196598, Note_on_c, 0, 68, 54
1, 196598, Note_on_c, 0, 40, 44
1, 196601, Note_on_c, 0, 47, 49
1, 196760, Note_on_c, 0, 68, 0
1, 196760, Note_on_c, 0, 62, 0
1, 196760, Note_on_c, 0, 74, 0
1, 196763, Note_on_c, 0, 74, 85
1, 196763, Note_on_c, 0, 47, 0
1, 196763, Note_on_c, 0, 40, 0
1, 196766, Note_on_c, 0, 35, 0
1, 196766, Note_on_c, 0, 35, 49
1, 196921, Note_on_c, 0, 62, 54
1, 196921, Note_on_c, 0, 68, 54
1, 196921, Note_on_c, 0, 47, 49
1, 196924, Note_on_c, 0, 40, 44
1, 197083, Note_on_c, 0, 68, 0
1, 197083, Note_on_c, 0, 62, 0
1, 197083, Note_on_c, 0, 74, 0
1, 197086, Note_on_c, 0, 77, 94
1, 197086, Note_on_c, 0, 40, 0
1, 197086, Note_on_c, 0, 47, 0
1, 197089, Note_on_c, 0, 35, 0
1, 197089, Note_on_c, 0, 38, 59
1, 197089, Control_c, 0, 64, 0
1, 197177, Control_c, 0, 64, 126
1, 197263, Note_on_c, 0, 65, 56
1, 197263, Note_on_c, 0, 74, 56
1, 197263, Note_on_c, 0, 38, 0
1, 197266, Note_on_c, 0, 45, 45
1, 197266, Note_on_c, 0, 50, 52
1, 197443, Note_on_c, 0, 74, 0
1, 197443, Note_on_c, 0, 65, 0
1, 197443, Note_on_c, 0, 77, 0
1, 197446, Note_on_c, 0, 78, 98
1, 197446, Note_on_c, 0, 50, 0
1, 197446, Note_on_c, 0, 45, 0
1, 197449, Note_on_c, 0, 45, 45
1, 197449, Note_on_c, 0, 50, 52
1, 197452, Control_c, 0, 64, 0
1, 197581, Control_c, 0, 64, 125
1, 197604, Note_on_c, 0, 66, 58
1, 197604, Note_on_c, 0, 74, 58
1, 197604, Note_on_c, 0, 50, 0
1, 197607, Note_on_c, 0, 45, 0
1, 197607, Note_on_c, 0, 45, 45
1, 197607, Note_on_c, 0, 50, 52
1, 197766, Note_on_c, 0, 74, 0
1, 197766, Note_on_c, 0, 66, 0
1, 197766, Note_on_c, 0, 66, 57
1, 197769, Note_on_c, 0, 74, 57
1, 197769, Note_on_c, 0, 50, 0
1, 197769, Note_on_c, 0, 45, 0
1, 197772, Note_on_c, 0, 45, 45
1, 197772, Note_on_c, 0, 50, 52
1, 197928, Note_on_c, 0, 74, 0
1, 197928, Note_on_c, 0, 66, 0
1, 197928, Note_on_c, 0, 66, 57
1, 197931, Note_on_c, 0, 74, 57
1, 197931, Note_on_c, 0, 50, 0
1, 197931, Note_on_c, 0, 45, 0
1, 197934, Note_on_c, 0, 45, 45
1, 197934, Note_on_c, 0, 50, 52
1, 198089, Note_on_c, 0, 74, 0
1, 198089, Note_on_c, 0, 66, 0
1, 198089, Note_on_c, 0, 66, 57
1, 198092, Note_on_c, 0, 74, 57
1, 198092, Note_on_c, 0, 50, 0
1, 198092, Note_on_c, 0, 45, 0
1, 198095, Note_on_c, 0, 50, 56
1, 198095, Note_on_c, 0, 45, 49
1, 198251, Note_on_c, 0, 74, 0
1, 198251, Note_on_c, 0, 66, 0
1, 198251, Note_on_c, 0, 66, 57
1, 198254, Note_on_c, 0, 74, 57
1, 198254, Note_on_c, 0, 45, 0
1, 198254, Note_on_c, 0, 50, 0
1, 198257, Note_on_c, 0, 50, 55
1, 198257, Note_on_c, 0, 45, 48
1, 198413, Note_on_c, 0, 74, 0
1, 198413, Note_on_c, 0, 66, 0
1, 198413, Note_on_c, 0, 78, 0
1, 198416, Note_on_c, 0, 78, 96
1, 198416, Note_on_c, 0, 45, 0
1, 198416, Note_on_c, 0, 50, 0
1, 198419, Note_on_c, 0, 38, 55
1, 198419, Control_c, 0, 64, 0
1, 198505, Control_c, 0, 64, 125
1, 198574, Note_on_c, 0, 66, 58
1, 198574, Note_on_c, 0, 74, 58
1, 198574, Note_on_c, 0, 50, 55
1, 198577, Note_on_c, 0, 45, 48
1, 198736, Note_on_c, 0, 74, 0
1, 198736, Note_on_c, 0, 66, 0
1, 198736, Note_on_c, 0, 78, 0
1, 198739, Note_on_c, 0, 78, 96
1, 198739, Note_on_c, 0, 45, 0
1, 198739, Note_on_c, 0, 50, 0
1, 198742, Note_on_c, 0, 38, 0
1, 198742, Note_on_c, 0, 38, 55
1, 198897, Note_on_c, 0, 66, 57
1, 198897, Note_on_c, 0, 74, 57
1, 198897, Note_on_c, 0, 50, 55
1, 198900, Note_on_c, 0, 45, 48
1, 199060, Note_on_c, 0, 74, 0
1, 199060, Note_on_c, 0, 66, 0
1, 199060, Note_on_c, 0, 78, 0
1, 199063, Note_on_c, 0, 78, 96
1, 199063, Note_on_c, 0, 45, 0
1, 199063, Note_on_c, 0, 50, 0
1, 199066, Note_on_c, 0, 38, 0
1, 199066, Note_on_c, 0, 33, 55
1, 199066, Control_c, 0, 64, 0
1, 199137, Control_c, 0, 64, 126
1, 199239, Note_on_c, 0, 66, 57
1, 199239, Note_on_c, 0, 73, 57
1, 199239, Note_on_c, 0, 45, 55
1, 199242, Note_on_c, 0, 40, 48
1, 199419, Note_on_c, 0, 73, 0
1, 199419, Note_on_c, 0, 66, 0
1, 199419, Note_on_c, 0, 78, 0
1, 199422, Note_on_c, 0, 79, 106
1, 199422, Note_on_c, 0, 40, 0
1, 199422, Note_on_c, 0, 45, 0
1, 199425, Note_on_c, 0, 33, 0
1, 199425, Note_on_c, 0, 33, 55
1, 199425, Control_c, 0, 64, 0
1, 199511, Control_c, 0, 64, 126
1, 199581, Note_on_c, 0, 67, 59
1, 199581, Note_on_c, 0, 73, 59
1, 199581, Note_on_c, 0, 33, 0
1, 199584, Note_on_c, 0, 45, 55
1, 199584, Note_on_c, 0, 40, 48
1, 199742, Note_on_c, 0, 73, 0
1, 199742, Note_on_c, 0, 67, 0
1, 199742, Note_on_c, 0, 67, 59
1, 199745, Note_on_c, 0, 73, 59
1, 199745, Note_on_c, 0, 40, 0
1, 199745, Note_on_c, 0, 45, 0
1, 199748, Note_on_c, 0, 45, 55
1, 199748, Note_on_c, 0, 40, 48
1, 199904, Note_on_c, 0, 73, 0
1, 199904, Note_on_c, 0, 67, 0
1, 199904, Note_on_c, 0, 67, 59
1, 199907, Note_on_c, 0, 73, 59
1, 199907, Note_on_c, 0, 40, 0
1, 199907, Note_on_c, 0, 45, 0
1, 199910, Note_on_c, 0, 45, 55
1, 199910, Note_on_c, 0, 40, 48
1, 200065, Note_on_c, 0, 73, 0
1, 200065, Note_on_c, 0, 67, 0
1, 200065, Note_on_c, 0, 67, 59
1, 200068, Note_on_c, 0, 73, 59
1, 200068, Note_on_c, 0, 40, 0
1, 200068, Note_on_c, 0, 45, 0
1, 200071, Note_on_c, 0, 45, 59
1, 200071, Note_on_c, 0, 40, 51
1, 200227, Note_on_c, 0, 73, 0
1, 200227, Note_on_c, 0, 67, 0
1, 200227, Note_on_c, 0, 67, 59
1, 200230, Note_on_c, 0, 73, 59
1, 200230, Note_on_c, 0, 40, 0
1, 200230, Note_on_c, 0, 45, 0
1, 200233, Note_on_c, 0, 45, 59
1, 200233, Note_on_c, 0, 40, 51
1, 200389, Note_on_c, 0, 73, 0
1, 200389, Note_on_c, 0, 67, 0
1, 200389, Note_on_c, 0, 79, 0
1, 200392, Note_on_c, 0, 79, 104
1, 200392, Note_on_c, 0, 40, 0
1, 200392, Note_on_c, 0, 45, 0
1, 200395, Note_on_c, 0, 33, 59
1, 200395, Control_c, 0, 64, 0
1, 200496, Control_c, 0, 64, 126
1, 200550, Note_on_c, 0, 67, 58
1, 200550, Note_on_c, 0, 73, 58
1, 200550, Note_on_c, 0, 45, 59
1, 200553, Note_on_c, 0, 40, 51
1, 200712, Note_on_c, 0, 73, 0
1, 200712, Note_on_c, 0, 67, 0
1, 200712, Note_on_c, 0, 79, 0
1, 200715, Note_on_c, 0, 79, 107
1, 200715, Note_on_c, 0, 40, 0
1, 200715, Note_on_c, 0, 45, 0
1, 200718, Note_on_c, 0, 33, 0
1, 200718, Note_on_c, 0, 33, 59
1, 200873, Note_on_c, 0, 67, 60
1, 200873, Note_on_c, 0, 73, 60
1, 200873, Note_on_c, 0, 45, 59
1, 200876, Note_on_c, 0, 40, 51
1, 201036, Note_on_c, 0, 73, 0
1, 201036, Note_on_c, 0, 67, 0
1, 201036, Note_on_c, 0, 79, 0
1, 201039, Note_on_c, 0, 81, 109
1, 201039, Note_on_c, 0, 40, 0
1, 201039, Note_on_c, 0, 45, 0
1, 201042, Note_on_c, 0, 33, 0
1, 201042, Note_on_c, 0, 32, 71
1, 201042, Control_c, 0, 64, 0
1, 201183, Control_c, 0, 64, 126
1, 201215, Note_on_c, 0, 73, 61
1, 201215, Note_on_c, 0, 69, 61
1, 201215, Note_on_c, 0, 32, 0
1, 201218, Note_on_c, 0, 44, 54
1, 201218, Note_on_c, 0, 49, 54
1, 201218, Note_on_c, 0, 52, 61
1, 201393, Note_on_c, 0, 69, 0
1, 201393, Note_on_c, 0, 73, 0
1, 201393, Note_on_c, 0, 81, 0
1, 201396, Note_on_c, 0, 80, 106
1, 201396, Note_on_c, 0, 52, 0
1, 201396, Note_on_c, 0, 49, 0
1, 201399, Note_on_c, 0, 44, 0
1, 201399, Note_on_c, 0, 44, 54
1, 201399, Note_on_c, 0, 49, 54
1, 201402, Note_on_c, 0, 52, 61
1, 201402, Control_c, 0, 64, 0
1, 201525, Control_c, 0, 64, 126
1, 201553, Note_on_c, 0, 68, 61
1, 201553, Note_on_c, 0, 73, 61
1, 201553, Note_on_c, 0, 52, 0
1, 201556, Note_on_c, 0, 49, 0
1, 201556, Note_on_c, 0, 44, 0
1, 201556, Note_on_c, 0, 44, 54
1, 201559, Note_on_c, 0, 49, 54
1, 201559, Note_on_c, 0, 52, 62
1, 201714, Note_on_c, 0, 73, 0
1, 201714, Note_on_c, 0, 68, 0
1, 201714, Note_on_c, 0, 68, 54
1, 201717, Note_on_c, 0, 73, 54
1, 201717, Note_on_c, 0, 52, 0
1, 201717, Note_on_c, 0, 49, 0
1, 201720, Note_on_c, 0, 44, 0
1, 201720, Note_on_c, 0, 44, 54
1, 201720, Note_on_c, 0, 49, 54
1, 201723, Note_on_c, 0, 52, 62
1, 201874, Note_on_c, 0, 73, 0
1, 201874, Note_on_c, 0, 68, 0
1, 201874, Note_on_c, 0, 68, 61
1, 201877, Note_on_c, 0, 73, 61
1, 201877, Note_on_c, 0, 52, 0
1, 201877, Note_on_c, 0, 49, 0
1, 201880, Note_on_c, 0, 44, 0
1, 201880, Note_on_c, 0, 44, 54
1, 201880, Note_on_c, 0, 49, 54
1, 201883, Note_on_c, 0, 52, 62
1, 202035, Note_on_c, 0, 73, 0
1, 202035, Note_on_c, 0, 68, 0
1, 202035, Note_on_c, 0, 80, 0
1, 202038, Note_on_c, 0, 81, 109
1, 202038, Note_on_c, 0, 52, 0
1, 202038, Note_on_c, 0, 49, 0
1, 202041, Note_on_c, 0, 44, 0
1, 202041, Note_on_c, 0, 32, 71
1, 202041, Control_c, 0, 64, 0
1, 202116, Control_c, 0, 64, 126
1, 202202, Note_on_c, 0, 69, 62
1, 202202, Note_on_c, 0, 72, 62
1, 202202, Note_on_c, 0, 32, 0
1, 202205, Note_on_c, 0, 44, 54
1, 202205, Note_on_c, 0, 51, 54
1, 202205, Note_on_c, 0, 54, 62
1, 202369, Note_on_c, 0, 72, 0
1, 202369, Note_on_c, 0, 69, 0
1, 202369, Note_on_c, 0, 81, 0
1, 202372, Note_on_c, 0, 80, 105
1, 202372, Note_on_c, 0, 54, 0
1, 202372, Note_on_c, 0, 51, 0
1, 202375, Note_on_c, 0, 44, 0
1, 202375, Note_on_c, 0, 44, 54
1, 202375, Note_on_c, 0, 51, 54
1, 202378, Note_on_c, 0, 54, 62
1, 202378, Control_c, 0, 64, 0
1, 202485, Control_c, 0, 64, 126
1, 202530, Note_on_c, 0, 68, 62
1, 202530, Note_on_c, 0, 72, 62
1, 202530, Note_on_c, 0, 54, 0
1, 202533, Note_on_c, 0, 51, 0
1, 202533, Note_on_c, 0, 44, 0
1, 202533, Note_on_c, 0, 44, 54
1, 202536, Note_on_c, 0, 51, 54
1, 202536, Note_on_c, 0, 54, 62
1, 202692, Note_on_c, 0, 72, 0
1, 202692, Note_on_c, 0, 68, 0
1, 202692, Note_on_c, 0, 68, 62
1, 202695, Note_on_c, 0, 72, 62
1, 202695, Note_on_c, 0, 54, 0
1, 202695, Note_on_c, 0, 51, 0
1, 202698, Note_on_c, 0, 44, 0
1, 202698, Note_on_c, 0, 44, 54
1, 202698, Note_on_c, 0, 51, 54
1, 202701, Note_on_c, 0, 54, 61
1, 202880, Note_on_c, 0, 72, 0
1, 202880, Note_on_c, 0, 68, 0
1, 202880, Note_on_c, 0, 68, 62
1, 202883, Note_on_c, 0, 72, 62
1, 202883, Note_on_c, 0, 54, 0
1, 202883, Note_on_c, 0, 51, 0
1, 202886, Note_on_c, 0, 44, 0
1, 202886, Note_on_c, 0, 44, 54
1, 202886, Note_on_c, 0, 51, 54
1, 202889, Note_on_c, 0, 54, 61
1, 203068, Note_on_c, 0, 72, 0
1, 203068, Note_on_c, 0, 68, 0
1, 203068, Note_on_c, 0, 80, 0
1, 203071, Note_on_c, 0, 73, 96
1, 203071, Note_on_c, 0, 54, 0
1, 203071, Note_on_c, 0, 51, 0
1, 203074, Note_on_c, 0, 44, 0
1, 203074, Note_on_c, 0, 37, 62
1, 203074, Control_c, 0, 64, 0
1, 203256, Note_on_c, 0, 68, 54
1, 203256, Note_on_c, 0, 61, 54
1, 203256, Note_on_c, 0, 64, 54
1, 203259, Note_on_c, 0, 37, 0
1, 203259, Note_on_c, 0, 44, 44
1, 203259, Note_on_c, 0, 49, 44
1, 203262, Note_on_c, 0, 52, 50
1, 203295, Control_c, 0, 64, 127
1, 203422, Note_on_c, 0, 64, 0
1, 203422, Note_on_c, 0, 61, 0
1, 203422, Note_on_c, 0, 68, 0
1, 203425, Note_on_c, 0, 68, 54
1, 203425, Note_on_c, 0, 61, 54
1, 203425, Note_on_c, 0, 64, 54
1, 203428, Note_on_c, 0, 52, 0
1, 203428, Note_on_c, 0, 49, 0
1, 203428, Note_on_c, 0, 44, 0
1, 203431, Note_on_c, 0, 44, 44
1, 203431, Note_on_c, 0, 49, 44
1, 203431, Note_on_c, 0, 52, 50
1, 203589, Note_on_c, 0, 64, 0
1, 203589, Note_on_c, 0, 61, 0
1, 203589, Note_on_c, 0, 68, 0
1, 203592, Note_on_c, 0, 68, 54
1, 203592, Note_on_c, 0, 61, 54
1, 203592, Note_on_c, 0, 64, 54
1, 203595, Note_on_c, 0, 52, 0
1, 203595, Note_on_c, 0, 49, 0
1, 203595, Note_on_c, 0, 44, 0
1, 203598, Note_on_c, 0, 44, 44
1, 203598, Note_on_c, 0, 49, 44
1, 203598, Note_on_c, 0, 52, 50
1, 203755, Note_on_c, 0, 64, 0
1, 203755, Note_on_c, 0, 61, 0
1, 203755, Note_on_c, 0, 68, 0
1, 203758, Note_on_c, 0, 68, 54
1, 203758, Note_on_c, 0, 61, 54
1, 203758, Note_on_c, 0, 64, 54
1, 203761, Note_on_c, 0, 52, 0
1, 203761, Note_on_c, 0, 49, 0
1, 203761, Note_on_c, 0, 44, 0
1, 203764, Note_on_c, 0, 44, 44
1, 203764, Note_on_c, 0, 49, 44
1, 203764, Note_on_c, 0, 52, 50
1, 203921, Note_on_c, 0, 64, 0
1, 203921, Note_on_c, 0, 61, 0
1, 203921, Note_on_c, 0, 68, 0
1, 203924, Note_on_c, 0, 68, 54
1, 203924, Note_on_c, 0, 61, 54
1, 203924, Note_on_c, 0, 64, 54
1, 203927, Note_on_c, 0, 52, 0
1, 203927, Note_on_c, 0, 49, 0
1, 203927, Note_on_c, 0, 44, 0
1, 203930, Note_on_c, 0, 44, 44
1, 203930, Note_on_c, 0, 49, 44
1, 203930, Note_on_c, 0, 52, 50
1, 204088, Note_on_c, 0, 64, 0
1, 204088, Note_on_c, 0, 61, 0
1, 204088, Note_on_c, 0, 68, 0
1, 204091, Note_on_c, 0, 68, 54
1, 204091, Note_on_c, 0, 61, 54
1, 204091, Note_on_c, 0, 64, 54
1, 204094, Note_on_c, 0, 52, 0
1, 204094, Note_on_c, 0, 49, 0
1, 204094, Note_on_c, 0, 44, 0
1, 204097, Note_on_c, 0, 49, 44
1, 204097, Note_on_c, 0, 44, 44
1, 204097, Note_on_c, 0, 52, 49
1, 204254, Note_on_c, 0, 64, 0
1, 204254, Note_on_c, 0, 61, 0
1, 204254, Note_on_c, 0, 68, 0
1, 204257, Note_on_c, 0, 68, 54
1, 204257, Note_on_c, 0, 61, 54
1, 204257, Note_on_c, 0, 64, 54
1, 204260, Note_on_c, 0, 52, 0
1, 204260, Note_on_c, 0, 44, 0
1, 204260, Note_on_c, 0, 49, 0
1, 204263, Note_on_c, 0, 44, 44
1, 204263, Note_on_c, 0, 49, 44
1, 204263, Note_on_c, 0, 52, 49
1, 204421, Note_on_c, 0, 64, 0
1, 204421, Note_on_c, 0, 73, 0
1, 204421, Note_on_c, 0, 68, 0
1, 204424, Note_on_c, 0, 61, 0
1, 204424, Note_on_c, 0, 68, 58
1, 204424, Note_on_c, 0, 52, 0
1, 204427, Note_on_c, 0, 49, 0
1, 204427, Note_on_c, 0, 44, 0
1, 204427, Note_on_c, 0, 44, 40
1, 204430, Note_on_c, 0, 49, 40
1, 204430, Note_on_c, 0, 52, 47
1, 204587, Note_on_c, 0, 61, 36
1, 204587, Note_on_c, 0, 64, 36
1, 204587, Note_on_c, 0, 52, 0
1, 204590, Note_on_c, 0, 49, 0
1, 204590, Note_on_c, 0, 44, 0
1, 204590, Note_on_c, 0, 44, 40
1, 204593, Note_on_c, 0, 49, 40
1, 204593, Note_on_c, 0, 52, 46
1, 204753, Note_on_c, 0, 64, 0
1, 204753, Note_on_c, 0, 61, 0
1, 204753, Note_on_c, 0, 68, 0
1, 204756, Note_on_c, 0, 68, 52
1, 204756, Note_on_c, 0, 52, 0
1, 204756, Note_on_c, 0, 49, 0
1, 204759, Note_on_c, 0, 44, 0
1, 204759, Note_on_c, 0, 44, 38
1, 204759, Note_on_c, 0, 49, 38
1, 204762, Note_on_c, 0, 52, 44
1, 204920, Note_on_c, 0, 61, 36
1, 204920, Note_on_c, 0, 64, 36
1, 204920, Note_on_c, 0, 52, 0
1, 204923, Note_on_c, 0, 49, 0
1, 204923, Note_on_c, 0, 44, 0
1, 204923, Note_on_c, 0, 44, 35
1, 204926, Note_on_c, 0, 49, 35
1, 204926, Note_on_c, 0, 52, 40
1, 205086, Note_on_c, 0, 64, 0
1, 205086, Note_on_c, 0, 61, 0
1, 205086, Note_on_c, 0, 68, 0
1, 205089, Note_on_c, 0, 68, 52
1, 205089, Note_on_c, 0, 52, 0
1, 205089, Note_on_c, 0, 49, 0
1, 205092, Note_on_c, 0, 44, 0
1, 205092, Note_on_c, 0, 37, 36
1, 205096, Control_c, 0, 64, 0
1, 205253, Note_on_c, 0, 61, 36
1, 205253, Note_on_c, 0, 64, 36
1, 205253, Note_on_c, 0, 37, 0
1, 205256, Note_on_c, 0, 52, 36
1, 205256, Note_on_c, 0, 49, 32
1, 205321, Control_c, 0, 64, 126
1, 205419, Note_on_c, 0, 64, 0
1, 205419, Note_on_c, 0, 61, 0
1, 205419, Note_on_c, 0, 61, 36
1, 205422, Note_on_c, 0, 64, 36
1, 205422, Note_on_c, 0, 49, 0
1, 205422, Note_on_c, 0, 52, 0
1, 205425, Note_on_c, 0, 52, 36
1, 205425, Note_on_c, 0, 49, 32
1, 205585, Note_on_c, 0, 64, 0
1, 205585, Note_on_c, 0, 61, 0
1, 205585, Note_on_c, 0, 61, 36
1, 205588, Note_on_c, 0, 64, 36
1, 205588, Note_on_c, 0, 49, 0
1, 205588, Note_on_c, 0, 52, 0
1, 205591, Note_on_c, 0, 52, 36
1, 205591, Note_on_c, 0, 49, 32
1, 205752, Note_on_c, 0, 64, 0
1, 205752, Note_on_c, 0, 61, 0
1, 205752, Note_on_c, 0, 61, 36
1, 205755, Note_on_c, 0, 64, 36
1, 205755, Note_on_c, 0, 49, 0
1, 205755, Note_on_c, 0, 52, 0
1, 205758, Note_on_c, 0, 52, 36
1, 205758, Note_on_c, 0, 49, 32
1, 205918, Note_on_c, 0, 64, 0
1, 205918, Note_on_c, 0, 61, 0
1, 205918, Note_on_c, 0, 61, 36
1, 205921, Note_on_c, 0, 64, 36
1, 205921, Note_on_c, 0, 49, 0
1, 205921, Note_on_c, 0, 52, 0
1, 205924, Note_on_c, 0, 52, 36
1, 205924, Note_on_c, 0, 49, 32
1, 206085, Note_on_c, 0, 64, 0
1, 206085, Note_on_c, 0, 61, 0
1, 206085, Note_on_c, 0, 61, 36
1, 206088, Note_on_c, 0, 64, 36
1, 206088, Note_on_c, 0, 49, 0
1, 206088, Note_on_c, 0, 52, 0
1, 206091, Note_on_c, 0, 49, 32
1, 206091, Note_on_c, 0, 52, 36
1, 206251, Note_on_c, 0, 64, 0
1, 206251, Note_on_c, 0, 61, 0
1, 206251, Note_on_c, 0, 61, 36
1, 206254, Note_on_c, 0, 64, 36
1, 206254, Note_on_c, 0, 52, 0
1, 206254, Note_on_c, 0, 49, 0
1, 206257, Note_on_c, 0, 49, 32
1, 206257, Note_on_c, 0, 52, 36
1, 206417, Note_on_c, 0, 64, 0
1, 206417, Note_on_c, 0, 61, 0
1, 206417, Note_on_c, 0, 68, 0
1, 206420, Note_on_c, 0, 68, 52
1, 206420, Note_on_c, 0, 52, 0
1, 206420, Note_on_c, 0, 49, 0
1, 206423, Note_on_c, 0, 49, 32
1, 206423, Note_on_c, 0, 52, 36
1, 206605, Note_on_c, 0, 61, 36
1, 206605, Note_on_c, 0, 64, 36
1, 206605, Note_on_c, 0, 52, 0
1, 206608, Note_on_c, 0, 49, 0
1, 206608, Note_on_c, 0, 49, 32
1, 206608, Note_on_c, 0, 52, 36
1, 206793, Note_on_c, 0, 64, 0
1, 206793, Note_on_c, 0, 61, 0
1, 206793, Note_on_c, 0, 68, 0
1, 206796, Note_on_c, 0, 70, 52
1, 206796, Note_on_c, 0, 52, 0
1, 206796, Note_on_c, 0, 49, 0
1, 206799, Note_on_c, 0, 49, 32
1, 206799, Note_on_c, 0, 52, 36
1, 206981, Note_on_c, 0, 61, 36
1, 206981, Note_on_c, 0, 64, 36
1, 206981, Note_on_c, 0, 52, 0
1, 206984, Note_on_c, 0, 49, 0
1, 206984, Note_on_c, 0, 49, 32
1, 206984, Note_on_c, 0, 52, 36
1, 207169, Note_on_c, 0, 64, 0
1, 207169, Note_on_c, 0, 61, 0
1, 207169, Note_on_c, 0, 70, 0
1, 207172, Note_on_c, 0, 68, 47
1, 207172, Note_on_c, 0, 52, 0
1, 207172, Note_on_c, 0, 49, 0
1, 207175, Note_on_c, 0, 39, 36
1, 207178, Control_c, 0, 64, 0
1, 207311, Control_c, 0, 64, 125
1, 207336, Note_on_c, 0, 58, 36
1, 207336, Note_on_c, 0, 61, 36
1, 207336, Note_on_c, 0, 39, 0
1, 207339, Note_on_c, 0, 51, 36
1, 207502, Note_on_c, 0, 61, 0
1, 207502, Note_on_c, 0, 58, 0
1, 207502, Note_on_c, 0, 58, 36
1, 207505, Note_on_c, 0, 61, 36
1, 207505, Note_on_c, 0, 51, 0
1, 207505, Note_on_c, 0, 51, 36
1, 207669, Note_on_c, 0, 61, 0
1, 207669, Note_on_c, 0, 58, 0
1, 207669, Note_on_c, 0, 58, 35
1, 207672, Note_on_c, 0, 61, 35
1, 207672, Note_on_c, 0, 51, 0
1, 207672, Note_on_c, 0, 51, 35
1, 207835, Note_on_c, 0, 61, 0
1, 207835, Note_on_c, 0, 58, 0
1, 207835, Note_on_c, 0, 58, 35
1, 207838, Note_on_c, 0, 61, 35
1, 207838, Note_on_c, 0, 51, 0
1, 207838, Note_on_c, 0, 51, 35
1, 208001, Note_on_c, 0, 61, 0
1, 208001, Note_on_c, 0, 58, 0
1, 208001, Note_on_c, 0, 58, 34
1, 208004, Note_on_c, 0, 61, 34
1, 208004, Note_on_c, 0, 51, 0
1, 208004, Note_on_c, 0, 51, 34
1, 208168, Note_on_c, 0, 61, 0
1, 208168, Note_on_c, 0, 58, 0
1, 208168, Note_on_c, 0, 58, 34
1, 208171, Note_on_c, 0, 61, 34
1, 208171, Note_on_c, 0, 51, 0
1, 208171, Note_on_c, 0, 51, 34
1, 208334, Note_on_c, 0, 61, 0
1, 208334, Note_on_c, 0, 58, 0
1, 208334, Note_on_c, 0, 58, 34
1, 208337, Note_on_c, 0, 61, 34
1, 208337, Note_on_c, 0, 51, 0
1, 208337, Note_on_c, 0, 51, 34
1, 208502, Note_on_c, 0, 61, 0
1, 208502, Note_on_c, 0, 58, 0
1, 208502, Note_on_c, 0, 58, 33
1, 208505, Note_on_c, 0, 61, 33
1, 208505, Note_on_c, 0, 51, 0
1, 208505, Note_on_c, 0, 51, 33
1, 208671, Note_on_c, 0, 61, 0
1, 208671, Note_on_c, 0, 58, 0
1, 208671, Note_on_c, 0, 58, 33
1, 208674, Note_on_c, 0, 61, 33
1, 208674, Note_on_c, 0, 51, 0
1, 208674, Note_on_c, 0, 51, 33
1, 208841, Note_on_c, 0, 61, 0
1, 208841, Note_on_c, 0, 58, 0
1, 208841, Note_on_c, 0, 58, 32
1, 208844, Note_on_c, 0, 61, 32
1, 208844, Note_on_c, 0, 51, 0
1, 208844, Note_on_c, 0, 51, 32
1, 209013, Note_on_c, 0, 61, 0
1, 209013, Note_on_c, 0, 58, 0
1, 209013, Note_on_c, 0, 58, 32
1, 209016, Note_on_c, 0, 61, 32
1, 209016, Note_on_c, 0, 51, 0
1, 209016, Note_on_c, 0, 51, 32
1, 209187, Note_on_c, 0, 61, 0
1, 209187, Note_on_c, 0, 58, 0
1, 209187, Note_on_c, 0, 68, 0
1, 209190, Note_on_c, 0, 67, 41
1, 209190, Note_on_c, 0, 51, 0
1, 209190, Note_on_c, 0, 39, 32
1, 209190, Control_c, 0, 64, 0
1, 209312, Control_c, 0, 64, 127
1, 209362, Note_on_c, 0, 58, 32
1, 209362, Note_on_c, 0, 61, 32
1, 209362, Note_on_c, 0, 39, 0
1, 209365, Note_on_c, 0, 51, 32
1, 209539, Note_on_c, 0, 61, 0
1, 209539, Note_on_c, 0, 58, 0
1, 209539, Note_on_c, 0, 58, 32
1, 209542, Note_on_c, 0, 61, 32
1, 209542, Note_on_c, 0, 51, 0
1, 209542, Note_on_c, 0, 51, 32
1, 209718, Note_on_c, 0, 61, 0
1, 209718, Note_on_c, 0, 58, 0
1, 209718, Note_on_c, 0, 58, 30
1, 209721, Note_on_c, 0, 61, 30
1, 209721, Note_on_c, 0, 51, 0
1, 209721, Note_on_c, 0, 51, 30
1, 209898, Note_on_c, 0, 61, 0
1, 209898, Note_on_c, 0, 58, 0
1, 209898, Note_on_c, 0, 58, 30
1, 209901, Note_on_c, 0, 61, 30
1, 209901, Note_on_c, 0, 51, 0
1, 209901, Note_on_c, 0, 51, 30
1, 210080, Note_on_c, 0, 61, 0
1, 210080, Note_on_c, 0, 58, 0
1, 210080, Note_on_c, 0, 58, 29
1, 210083, Note_on_c, 0, 61, 29
1, 210083, Note_on_c, 0, 51, 0
1, 210083, Note_on_c, 0, 51, 29
1, 210263, Note_on_c, 0, 61, 0
1, 210263, Note_on_c, 0, 58, 0
1, 210263, Note_on_c, 0, 58, 29
1, 210266, Note_on_c, 0, 61, 29
1, 210266, Note_on_c, 0, 51, 0
1, 210266, Note_on_c, 0, 51, 29
1, 210448, Note_on_c, 0, 61, 0
1, 210448, Note_on_c, 0, 58, 0
1, 210448, Note_on_c, 0, 58, 29
1, 210451, Note_on_c, 0, 61, 29
1, 210451, Note_on_c, 0, 51, 0
1, 210451, Note_on_c, 0, 51, 29
1, 210633, Note_on_c, 0, 61, 0
1, 210633, Note_on_c, 0, 58, 0
1, 210633, Note_on_c, 0, 58, 28
1, 210636, Note_on_c, 0, 61, 28
1, 210636, Note_on_c, 0, 51, 0
1, 210636, Note_on_c, 0, 51, 28
1, 210818, Note_on_c, 0, 61, 0
1, 210818, Note_on_c, 0, 58, 0
1, 210818, Note_on_c, 0, 58, 28
1, 210821, Note_on_c, 0, 61, 28
1, 210821, Note_on_c, 0, 51, 0
1, 210821, Note_on_c, 0, 51, 28
1, 211003, Note_on_c, 0, 61, 0
1, 211003, Note_on_c, 0, 58, 0
1, 211003, Note_on_c, 0, 58, 27
1, 211006, Note_on_c, 0, 61, 27
1, 211006, Note_on_c, 0, 51, 0
1, 211006, Note_on_c, 0, 51, 27
1, 211227, Note_on_c, 0, 61, 0
1, 211227, Note_on_c, 0, 58, 0
1, 211227, Note_on_c, 0, 58, 27
1, 211230, Note_on_c, 0, 61, 27
1, 211230, Note_on_c, 0, 51, 0
1, 211230, Note_on_c, 0, 51, 27
1, 211453, Note_on_c, 0, 61, 0
1, 211453, Note_on_c, 0, 58, 0
1, 211453, Note_on_c, 0, 67, 0
1, 211456, Note_on_c, 0, 67, 51
1, 211456, Note_on_c, 0, 51, 0
1, 211456, Control_c, 0, 64, 0
1, 211459, Note_on_c, 0, 39, 56
1, 211459, Control_c, 0, 91, 126
1, 211459, Control_c, 0, 91, 127
1, 211539, Note_on_c, 0, 67, 0
1, 211539, Note_on_c, 0, 70, 44
1, 211539, Control_c, 0, 64, 127
1, 211623, Note_on_c, 0, 70, 0
1, 211623, Note_on_c, 0, 67, 51
1, 211707, Note_on_c, 0, 67, 0
1, 211707, Note_on_c, 0, 64, 44
1, 211707, Note_on_c, 0, 39, 0
1, 211790, Note_on_c, 0, 64, 0
1, 211790, Note_on_c, 0, 70, 51
1, 211790, Note_on_c, 0, 61, 52
1, 211793, Note_on_c, 0, 58, 45
1, 211793, Note_on_c, 0, 51, 45
1, 211872, Note_on_c, 0, 70, 0
1, 211872, Note_on_c, 0, 73, 44
1, 211952, Note_on_c, 0, 73, 0
1, 211952, Note_on_c, 0, 70, 51
1, 212032, Note_on_c, 0, 70, 0
1, 212032, Note_on_c, 0, 67, 44
1, 212111, Note_on_c, 0, 67, 0
1, 212111, Note_on_c, 0, 73, 51
1, 212189, Note_on_c, 0, 73, 0
1, 212189, Note_on_c, 0, 76, 44
1, 212266, Note_on_c, 0, 76, 0
1, 212266, Note_on_c, 0, 73, 51
1, 212342, Note_on_c, 0, 73, 0
1, 212342, Note_on_c, 0, 70, 44
1, 212417, Note_on_c, 0, 70, 0
1, 212417, Note_on_c, 0, 76, 50
1, 212493, Note_on_c, 0, 76, 0
1, 212493, Note_on_c, 0, 79, 46
1, 212568, Note_on_c, 0, 79, 0
1, 212568, Note_on_c, 0, 76, 56
1, 212644, Note_on_c, 0, 76, 0
1, 212644, Note_on_c, 0, 73, 52
1, 212719, Note_on_c, 0, 73, 0
1, 212719, Note_on_c, 0, 79, 63
1, 212794, Note_on_c, 0, 79, 0
1, 212794, Note_on_c, 0, 82, 57
1, 212870, Note_on_c, 0, 82, 0
1, 212870, Note_on_c, 0, 79, 70
1, 212945, Note_on_c, 0, 79, 0
1, 212945, Note_on_c, 0, 76, 63
1, 213020, Note_on_c, 0, 76, 0
1, 213020, Note_on_c, 0, 82, 76
1, 213096, Note_on_c, 0, 82, 0
1, 213096, Note_on_c, 0, 85, 69
1, 213171, Note_on_c, 0, 85, 0
1, 213171, Note_on_c, 0, 82, 83
1, 213247, Note_on_c, 0, 82, 0
1, 213247, Note_on_c, 0, 79, 74
1, 213321, Note_on_c, 0, 79, 0
1, 213321, Note_on_c, 0, 85, 90
1, 213321, Note_on_c, 0, 51, 0
1, 213324, Note_on_c, 0, 58, 0
1, 213324, Note_on_c, 0, 61, 0
1, 213324, Note_on_c, 0, 55, 61
1, 213327, Note_on_c, 0, 51, 61
1, 213327, Note_on_c, 0, 58, 61
1, 213327, Note_on_c, 0, 61, 70
1, 213330, Control_c, 0, 64, 0
1, 213384, Control_c, 0, 64, 127
1, 213395, Note_on_c, 0, 85, 0
1, 213395, Note_on_c, 0, 88, 78
1, 213468, Note_on_c, 0, 88, 0
1, 213468, Note_on_c, 0, 85, 89
1, 213542, Note_on_c, 0, 85, 0
1, 213542, Note_on_c, 0, 82, 76
1, 213615, Note_on_c, 0, 82, 0
1, 213615, Note_on_c, 0, 85, 87
1, 213689, Note_on_c, 0, 85, 0
1, 213689, Note_on_c, 0, 88, 74
1, 213762, Note_on_c, 0, 88, 0
1, 213762, Note_on_c, 0, 85, 85
1, 213836, Note_on_c, 0, 85, 0
1, 213836, Note_on_c, 0, 82, 73
1, 213910, Note_on_c, 0, 82, 0
1, 213910, Note_on_c, 0, 85, 84
1, 213984, Note_on_c, 0, 85, 0
1, 213984, Note_on_c, 0, 88, 72
1, 214058, Note_on_c, 0, 88, 0
1, 214058, Note_on_c, 0, 85, 82
1, 214132, Note_on_c, 0, 85, 0
1, 214132, Note_on_c, 0, 82, 70
1, 214206, Note_on_c, 0, 82, 0
1, 214206, Note_on_c, 0, 85, 80
1, 214280, Note_on_c, 0, 85, 0
1, 214280, Note_on_c, 0, 88, 69
1, 214354, Note_on_c, 0, 88, 0
1, 214354, Note_on_c, 0, 85, 79
1, 214429, Note_on_c, 0, 85, 0
1, 214429, Note_on_c, 0, 82, 67
1, 214503, Note_on_c, 0, 82, 0
1, 214503, Note_on_c, 0, 85, 77
1, 214577, Note_on_c, 0, 85, 0
1, 214577, Note_on_c, 0, 88, 66
1, 214652, Note_on_c, 0, 88, 0
1, 214652, Note_on_c, 0, 85, 75
1, 214726, Note_on_c, 0, 85, 0
1, 214726, Note_on_c, 0, 82, 65
1, 214801, Note_on_c, 0, 82, 0
1, 214801, Note_on_c, 0, 85, 74
1, 214876, Note_on_c, 0, 85, 0
1, 214876, Note_on_c, 0, 88, 63
1, 214951, Note_on_c, 0, 88, 0
1, 214951, Note_on_c, 0, 85, 72
1, 215025, Note_on_c, 0, 85, 0
1, 215025, Note_on_c, 0, 82, 61
1, 215100, Note_on_c, 0, 82, 0
1, 215100, Note_on_c, 0, 85, 70
1, 215100, Note_on_c, 0, 61, 0
1, 215103, Note_on_c, 0, 55, 0
1, 215103, Note_on_c, 0, 51, 0
1, 215103, Note_on_c, 0, 58, 0
1, 215106, Note_on_c, 0, 51, 52
1, 215106, Note_on_c, 0, 61, 60
1, 215106, Note_on_c, 0, 58, 52
1, 215109, Note_on_c, 0, 55, 52
1, 215109, Control_c, 0, 64, 0
1, 215175, Note_on_c, 0, 85, 0
1, 215175, Note_on_c, 0, 87, 61
1, 215206, Control_c, 0, 64, 127
1, 215250, Note_on_c, 0, 87, 0
1, 215250, Note_on_c, 0, 85, 69
1, 215325, Note_on_c, 0, 85, 0
1, 215325, Note_on_c, 0, 82, 59
1, 215401, Note_on_c, 0, 82, 0
1, 215401, Note_on_c, 0, 85, 67
1, 215476, Note_on_c, 0, 85, 0
1, 215476, Note_on_c, 0, 87, 57
1, 215551, Note_on_c, 0, 87, 0
1, 215551, Note_on_c, 0, 85, 65
1, 215626, Note_on_c, 0, 85, 0
1, 215626, Note_on_c, 0, 82, 56
1, 215701, Note_on_c, 0, 82, 0
1, 215701, Note_on_c, 0, 85, 64
1, 215776, Note_on_c, 0, 85, 0
1, 215776, Note_on_c, 0, 87, 55
1, 215851, Note_on_c, 0, 87, 0
1, 215851, Note_on_c, 0, 85, 62
1, 215927, Note_on_c, 0, 85, 0
1, 215927, Note_on_c, 0, 82, 53
1, 216002, Note_on_c, 0, 82, 0
1, 216002, Note_on_c, 0, 85, 60
1, 216076, Note_on_c, 0, 85, 0
1, 216076, Note_on_c, 0, 87, 52
1, 216151, Note_on_c, 0, 87, 0
1, 216151, Note_on_c, 0, 85, 59
1, 216226, Note_on_c, 0, 85, 0
1, 216226, Note_on_c, 0, 82, 50
1, 216302, Note_on_c, 0, 82, 0
1, 216302, Note_on_c, 0, 85, 57
1, 216378, Note_on_c, 0, 85, 0
1, 216378, Note_on_c, 0, 87, 49
1, 216455, Note_on_c, 0, 87, 0
1, 216455, Note_on_c, 0, 85, 55
1, 216532, Note_on_c, 0, 85, 0
1, 216532, Note_on_c, 0, 82, 48
1, 216609, Note_on_c, 0, 82, 0
1, 216609, Note_on_c, 0, 85, 54
1, 216702, Note_on_c, 0, 85, 0
1, 216702, Note_on_c, 0, 87, 46
1, 216796, Note_on_c, 0, 87, 0
1, 216796, Note_on_c, 0, 85, 52
1, 216890, Note_on_c, 0, 85, 0
1, 216890, Note_on_c, 0, 82, 44
1, 216983, Note_on_c, 0, 82, 0
1, 216983, Note_on_c, 0, 83, 50
1, 216983, Control_c, 0, 91, 127
1, 216986, Note_on_c, 0, 55, 0
1, 216986, Note_on_c, 0, 51, 0
1, 216986, Note_on_c, 0, 61, 0
1, 216989, Note_on_c, 0, 58, 0
1, 216989, Control_c, 0, 64, 0
1, 216989, Note_on_c, 0, 44, 50
1, 216992, Control_c, 0, 91, 126
1, 217039, Control_c, 0, 64, 127
1, 217057, Note_on_c, 0, 83, 0
1, 217057, Note_on_c, 0, 87, 44
1, 217130, Note_on_c, 0, 87, 0
1, 217130, Note_on_c, 0, 83, 50
1, 217130, Note_on_c, 0, 44, 0
1, 217204, Note_on_c, 0, 83, 0
1, 217204, Note_on_c, 0, 80, 44
1, 217277, Note_on_c, 0, 80, 0
1, 217277, Note_on_c, 0, 80, 50
1, 217277, Note_on_c, 0, 59, 44
1, 217280, Note_on_c, 0, 56, 44
1, 217280, Note_on_c, 0, 63, 50
1, 217351, Note_on_c, 0, 80, 0
1, 217351, Note_on_c, 0, 83, 44
1, 217424, Note_on_c, 0, 83, 0
1, 217424, Note_on_c, 0, 80, 50
1, 217498, Note_on_c, 0, 80, 0
1, 217498, Note_on_c, 0, 75, 44
1, 217572, Note_on_c, 0, 75, 0
1, 217572, Note_on_c, 0, 75, 50
1, 217646, Note_on_c, 0, 75, 0
1, 217646, Note_on_c, 0, 80, 44
1, 217720, Note_on_c, 0, 80, 0
1, 217720, Note_on_c, 0, 75, 50
1, 217794, Note_on_c, 0, 75, 0
1, 217794, Note_on_c, 0, 71, 44
1, 217868, Note_on_c, 0, 71, 0
1, 217868, Note_on_c, 0, 71, 50
1, 217943, Note_on_c, 0, 71, 0
1, 217943, Note_on_c, 0, 75, 44
1, 218017, Note_on_c, 0, 75, 0
1, 218017, Note_on_c, 0, 71, 50
1, 218091, Note_on_c, 0, 71, 0
1, 218091, Note_on_c, 0, 68, 44
1, 218166, Note_on_c, 0, 68, 0
1, 218166, Note_on_c, 0, 68, 50
1, 218240, Note_on_c, 0, 68, 0
1, 218240, Note_on_c, 0, 71, 44
1, 218315, Note_on_c, 0, 71, 0
1, 218315, Note_on_c, 0, 68, 50
1, 218390, Note_on_c, 0, 68, 0
1, 218390, Note_on_c, 0, 63, 44
1, 218465, Note_on_c, 0, 63, 0
1, 218465, Note_on_c, 0, 67, 40
1, 218465, Note_on_c, 0, 70, 46
1, 218468, Note_on_c, 0, 63, 0
1, 218468, Note_on_c, 0, 56, 0
1, 218468, Note_on_c, 0, 59, 0
1, 218471, Note_on_c, 0, 51, 37
1, 218471, Note_on_c, 0, 58, 37
1, 218471, Note_on_c, 0, 63, 43
1, 218476, Control_c, 0, 64, 0
1, 218643, Note_on_c, 0, 70, 0
1, 218643, Note_on_c, 0, 67, 0
1, 218643, Note_on_c, 0, 63, 0
1, 218646, Note_on_c, 0, 58, 0
1, 218646, Note_on_c, 0, 51, 0
1, 218820, Note_on_c, 0, 83, 50
1, 218820, Note_on_c, 0, 44, 50
1, 218830, Control_c, 0, 64, 127
1, 218894, Note_on_c, 0, 83, 0
1, 218894, Note_on_c, 0, 87, 44
1, 218967, Note_on_c, 0, 87, 0
1, 218967, Note_on_c, 0, 83, 50
1, 218967, Note_on_c, 0, 44, 0
1, 219040, Note_on_c, 0, 83, 0
1, 219040, Note_on_c, 0, 80, 44
1, 219114, Note_on_c, 0, 80, 0
1, 219114, Note_on_c, 0, 80, 50
1, 219114, Note_on_c, 0, 59, 44
1, 219117, Note_on_c, 0, 56, 44
1, 219117, Note_on_c, 0, 63, 50
1, 219188, Note_on_c, 0, 80, 0
1, 219188, Note_on_c, 0, 83, 44
1, 219261, Note_on_c, 0, 83, 0
1, 219261, Note_on_c, 0, 80, 50
1, 219335, Note_on_c, 0, 80, 0
1, 219335, Note_on_c, 0, 75, 44
1, 219409, Note_on_c, 0, 75, 0
1, 219409, Note_on_c, 0, 75, 50
1, 219483, Note_on_c, 0, 75, 0
1, 219483, Note_on_c, 0, 80, 44
1, 219557, Note_on_c, 0, 80, 0
1, 219557, Note_on_c, 0, 75, 50
1, 219631, Note_on_c, 0, 75, 0
1, 219631, Note_on_c, 0, 71, 44
1, 219705, Note_on_c, 0, 71, 0
1, 219705, Note_on_c, 0, 71, 50
1, 219779, Note_on_c, 0, 71, 0
1, 219779, Note_on_c, 0, 75, 44
1, 219854, Note_on_c, 0, 75, 0
1, 219854, Note_on_c, 0, 71, 50
1, 219928, Note_on_c, 0, 71, 0
1, 219928, Note_on_c, 0, 68, 44
1, 220003, Note_on_c, 0, 68, 0
1, 220003, Note_on_c, 0, 68, 50
1, 220077, Note_on_c, 0, 68, 0
1, 220077, Note_on_c, 0, 71, 44
1, 220152, Note_on_c, 0, 71, 0
1, 220152, Note_on_c, 0, 68, 50
1, 220226, Note_on_c, 0, 68, 0
1, 220226, Note_on_c, 0, 63, 44
1, 220303, Note_on_c, 0, 63, 0
1, 220303, Note_on_c, 0, 67, 40
1, 220303, Note_on_c, 0, 70, 46
1, 220306, Note_on_c, 0, 63, 0
1, 220306, Note_on_c, 0, 56, 0
1, 220306, Note_on_c, 0, 59, 0
1, 220309, Note_on_c, 0, 51, 37
1, 220309, Note_on_c, 0, 58, 37
1, 220309, Note_on_c, 0, 63, 43
1, 220309, Control_c, 0, 64, 0
1, 220491, Note_on_c, 0, 70, 0
1, 220491, Note_on_c, 0, 67, 0
1, 220491, Note_on_c, 0, 63, 0
1, 220494, Note_on_c, 0, 58, 0
1, 220494, Note_on_c, 0, 51, 0
1, 220678, Note_on_c, 0, 68, 41
1, 220678, Note_on_c, 0, 71, 41
1, 220678, Note_on_c, 0, 63, 37
1, 220681, Note_on_c, 0, 59, 37
1, 220681, Note_on_c, 0, 56, 37
1, 221054, Note_on_c, 0, 71, 0
1, 221054, Note_on_c, 0, 68, 0
1, 221054, Note_on_c, 0, 67, 41
1, 221057, Note_on_c, 0, 70, 41
1, 221057, Note_on_c, 0, 76, 41
1, 221057, Note_on_c, 0, 56, 0
1, 221060, Note_on_c, 0, 59, 0
1, 221060, Note_on_c, 0, 63, 0
1, 221060, Note_on_c, 0, 51, 37
1, 221063, Note_on_c, 0, 64, 37
1, 221063, Note_on_c, 0, 58, 37
1, 221374, Note_on_c, 0, 76, 0
1, 221374, Note_on_c, 0, 70, 0
1, 221374, Note_on_c, 0, 67, 0
1, 221377, Note_on_c, 0, 67, 46
1, 221377, Note_on_c, 0, 70, 46
1, 221377, Note_on_c, 0, 76, 46
1, 221380, Note_on_c, 0, 58, 0
1, 221380, Note_on_c, 0, 64, 0
1, 221380, Note_on_c, 0, 51, 0
1, 221383, Note_on_c, 0, 51, 41
1, 221383, Note_on_c, 0, 58, 41
1, 221383, Note_on_c, 0, 64, 41
1, 221695, Note_on_c, 0, 76, 0
1, 221695, Note_on_c, 0, 70, 0
1, 221695, Note_on_c, 0, 67, 0
1, 221698, Note_on_c, 0, 70, 47
1, 221698, Note_on_c, 0, 67, 47
1, 221698, Note_on_c, 0, 76, 47
1, 221701, Note_on_c, 0, 64, 0
1, 221701, Note_on_c, 0, 58, 0
1, 221701, Note_on_c, 0, 51, 0
1, 221704, Note_on_c, 0, 51, 41
1, 221704, Note_on_c, 0, 58, 41
1, 221704, Note_on_c, 0, 64, 41
1, 222069, Note_on_c, 0, 76, 0
1, 222069, Note_on_c, 0, 67, 0
1, 222069, Note_on_c, 0, 70, 0
1, 222072, Note_on_c, 0, 67, 41
1, 222072, Note_on_c, 0, 70, 41
1, 222072, Note_on_c, 0, 75, 41
1, 222075, Note_on_c, 0, 64, 0
1, 222075, Note_on_c, 0, 58, 0
1, 222075, Note_on_c, 0, 51, 0
1, 222078, Note_on_c, 0, 51, 35
1, 222078, Note_on_c, 0, 58, 35
1, 222078, Note_on_c, 0, 63, 35
1, 222444, Note_on_c, 0, 75, 0
1, 222444, Note_on_c, 0, 70, 0
1, 222444, Note_on_c, 0, 67, 0
1, 222447, Note_on_c, 0, 67, 41
1, 222447, Note_on_c, 0, 70, 41
1, 222447, Note_on_c, 0, 73, 41
1, 222450, Note_on_c, 0, 63, 0
1, 222450, Note_on_c, 0, 58, 0
1, 222450, Note_on_c, 0, 51, 0
1, 222453, Note_on_c, 0, 61, 35
1, 222453, Note_on_c, 0, 51, 35
1, 222453, Note_on_c, 0, 58, 35
1, 222852, Note_on_c, 0, 73, 0
1, 222852, Note_on_c, 0, 70, 0
1, 222852, Note_on_c, 0, 67, 0
1, 222855, Note_on_c, 0, 83, 50
1, 222855, Note_on_c, 0, 58, 0
1, 222855, Note_on_c, 0, 51, 0
1, 222858, Note_on_c, 0, 61, 0
1, 222858, Note_on_c, 0, 44, 50
1, 222877, Control_c, 0, 64, 127
1, 222926, Note_on_c, 0, 83, 0
1, 222926, Note_on_c, 0, 87, 44
1, 222999, Note_on_c, 0, 87, 0
1, 222999, Note_on_c, 0, 83, 50
1, 222999, Note_on_c, 0, 44, 0
1, 223073, Note_on_c, 0, 83, 0
1, 223073, Note_on_c, 0, 80, 44
1, 223146, Note_on_c, 0, 80, 0
1, 223146, Note_on_c, 0, 80, 50
1, 223146, Note_on_c, 0, 59, 44
1, 223149, Note_on_c, 0, 56, 44
1, 223149, Note_on_c, 0, 63, 50
1, 223219, Note_on_c, 0, 80, 0
1, 223219, Note_on_c, 0, 83, 44
1, 223293, Note_on_c, 0, 83, 0
1, 223293, Note_on_c, 0, 80, 50
1, 223366, Note_on_c, 0, 80, 0
1, 223366, Note_on_c, 0, 75, 44
1, 223440, Note_on_c, 0, 75, 0
1, 223440, Note_on_c, 0, 75, 50
1, 223514, Note_on_c, 0, 75, 0
1, 223514, Note_on_c, 0, 80, 44
1, 223588, Note_on_c, 0, 80, 0
1, 223588, Note_on_c, 0, 75, 50
1, 223662, Note_on_c, 0, 75, 0
1, 223662, Note_on_c, 0, 71, 44
1, 223736, Note_on_c, 0, 71, 0
1, 223736, Note_on_c, 0, 71, 50
1, 223810, Note_on_c, 0, 71, 0
1, 223810, Note_on_c, 0, 75, 44
1, 223884, Note_on_c, 0, 75, 0
1, 223884, Note_on_c, 0, 71, 50
1, 223958, Note_on_c, 0, 71, 0
1, 223958, Note_on_c, 0, 68, 44
1, 224033, Note_on_c, 0, 68, 0
1, 224033, Note_on_c, 0, 68, 50
1, 224107, Note_on_c, 0, 68, 0
1, 224107, Note_on_c, 0, 71, 44
1, 224182, Note_on_c, 0, 71, 0
1, 224182, Note_on_c, 0, 68, 50
1, 224256, Note_on_c, 0, 68, 0
1, 224256, Note_on_c, 0, 63, 44
1, 224331, Note_on_c, 0, 63, 0
1, 224331, Note_on_c, 0, 67, 40
1, 224331, Note_on_c, 0, 70, 46
1, 224334, Note_on_c, 0, 63, 0
1, 224334, Note_on_c, 0, 56, 0
1, 224334, Note_on_c, 0, 59, 0
1, 224337, Note_on_c, 0, 51, 37
1, 224337, Note_on_c, 0, 58, 37
1, 224337, Note_on_c, 0, 63, 42
1, 224337, Control_c, 0, 64, 0
1, 224511, Note_on_c, 0, 70, 0
1, 224511, Note_on_c, 0, 67, 0
1, 224511, Note_on_c, 0, 63, 0
1, 224514, Note_on_c, 0, 58, 0
1, 224514, Note_on_c, 0, 51, 0
1, 224690, Note_on_c, 0, 83, 50
1, 224690, Note_on_c, 0, 44, 50
1, 224719, Control_c, 0, 64, 127
1, 224765, Note_on_c, 0, 83, 0
1, 224765, Note_on_c, 0, 87, 44
1, 224839, Note_on_c, 0, 87, 0
1, 224839, Note_on_c, 0, 83, 50
1, 224839, Note_on_c, 0, 44, 0
1, 224913, Note_on_c, 0, 83, 0
1, 224913, Note_on_c, 0, 80, 44
1, 224987, Note_on_c, 0, 80, 0
1, 224987, Note_on_c, 0, 80, 50
1, 224987, Note_on_c, 0, 59, 44
1, 224990, Note_on_c, 0, 56, 44
1, 224990, Note_on_c, 0, 63, 50
1, 225061, Note_on_c, 0, 80, 0
1, 225061, Note_on_c, 0, 83, 44
1, 225135, Note_on_c, 0, 83, 0
1, 225135, Note_on_c, 0, 80, 50
1, 225210, Note_on_c, 0, 80, 0
1, 225210, Note_on_c, 0, 75, 44
1, 225284, Note_on_c, 0, 75, 0
1, 225284, Note_on_c, 0, 75, 50
1, 225358, Note_on_c, 0, 75, 0
1, 225358, Note_on_c, 0, 80, 44
1, 225432, Note_on_c, 0, 80, 0
1, 225432, Note_on_c, 0, 75, 50
1, 225507, Note_on_c, 0, 75, 0
1, 225507, Note_on_c, 0, 71, 44
1, 225581, Note_on_c, 0, 71, 0
1, 225581, Note_on_c, 0, 71, 50
1, 225656, Note_on_c, 0, 71, 0
1, 225656, Note_on_c, 0, 75, 44
1, 225730, Note_on_c, 0, 75, 0
1, 225730, Note_on_c, 0, 71, 50
1, 225805, Note_on_c, 0, 71, 0
1, 225805, Note_on_c, 0, 68, 44
1, 225880, Note_on_c, 0, 68, 0
1, 225880, Note_on_c, 0, 68, 50
1, 225955, Note_on_c, 0, 68, 0
1, 225955, Note_on_c, 0, 71, 44
1, 226030, Note_on_c, 0, 71, 0
1, 226030, Note_on_c, 0, 68, 50
1, 226104, Note_on_c, 0, 68, 0
1, 226104, Note_on_c, 0, 63, 44
1, 226179, Note_on_c, 0, 63, 0
1, 226179, Note_on_c, 0, 67, 40
1, 226179, Note_on_c, 0, 70, 46
1, 226182, Note_on_c, 0, 63, 0
1, 226182, Note_on_c, 0, 56, 0
1, 226182, Note_on_c, 0, 59, 0
1, 226185, Note_on_c, 0, 51, 37
1, 226185, Note_on_c, 0, 58, 37
1, 226185, Note_on_c, 0, 63, 42
1, 226185, Control_c, 0, 64, 0
1, 226352, Note_on_c, 0, 70, 0
1, 226352, Note_on_c, 0, 67, 0
1, 226352, Note_on_c, 0, 63, 0
1, 226355, Note_on_c, 0, 58, 0
1, 226355, Note_on_c, 0, 51, 0
1, 226525, Note_on_c, 0, 68, 41
1, 226525, Note_on_c, 0, 71, 41
1, 226525, Note_on_c, 0, 63, 37
1, 226528, Note_on_c, 0, 59, 37
1, 226528, Note_on_c, 0, 56, 37
1, 226900, Note_on_c, 0, 71, 0
1, 226900, Note_on_c, 0, 68, 0
1, 226900, Note_on_c, 0, 66, 41
1, 226903, Note_on_c, 0, 70, 41
1, 226903, Note_on_c, 0, 76, 41
1, 226903, Note_on_c, 0, 56, 0
1, 226906, Note_on_c, 0, 59, 0
1, 226906, Note_on_c, 0, 63, 0
1, 226906, Note_on_c, 0, 54, 37
1, 226909, Note_on_c, 0, 64, 37
1, 226909, Note_on_c, 0, 58, 37
1, 227221, Note_on_c, 0, 76, 0
1, 227221, Note_on_c, 0, 70, 0
1, 227221, Note_on_c, 0, 66, 0
1, 227224, Note_on_c, 0, 66, 46
1, 227224, Note_on_c, 0, 70, 46
1, 227224, Note_on_c, 0, 76, 46
1, 227227, Note_on_c, 0, 58, 0
1, 227227, Note_on_c, 0, 64, 0
1, 227227, Note_on_c, 0, 54, 0
1, 227230, Note_on_c, 0, 54, 41
1, 227230, Note_on_c, 0, 58, 41
1, 227230, Note_on_c, 0, 64, 41
1, 227542, Note_on_c, 0, 76, 0
1, 227542, Note_on_c, 0, 70, 0
1, 227542, Note_on_c, 0, 66, 0
1, 227545, Note_on_c, 0, 66, 47
1, 227545, Note_on_c, 0, 70, 47
1, 227545, Note_on_c, 0, 76, 47
1, 227548, Note_on_c, 0, 64, 0
1, 227548, Note_on_c, 0, 58, 0
1, 227548, Note_on_c, 0, 54, 0
1, 227551, Note_on_c, 0, 54, 41
1, 227551, Note_on_c, 0, 58, 41
1, 227551, Note_on_c, 0, 64, 41
1, 227915, Note_on_c, 0, 76, 0
1, 227915, Note_on_c, 0, 70, 0
1, 227915, Note_on_c, 0, 66, 0
1, 227918, Note_on_c, 0, 66, 41
1, 227918, Note_on_c, 0, 70, 41
1, 227918, Note_on_c, 0, 75, 41
1, 227921, Note_on_c, 0, 64, 0
1, 227921, Note_on_c, 0, 58, 0
1, 227921, Note_on_c, 0, 54, 0
1, 227924, Note_on_c, 0, 54, 35
1, 227924, Note_on_c, 0, 58, 35
1, 227924, Note_on_c, 0, 63, 35
1, 228290, Note_on_c, 0, 75, 0
1, 228290, Note_on_c, 0, 70, 0
1, 228290, Note_on_c, 0, 66, 0
1, 228293, Note_on_c, 0, 66, 41
1, 228293, Note_on_c, 0, 74, 41
1, 228293, Note_on_c, 0, 70, 41
1, 228296, Note_on_c, 0, 63, 0
1, 228296, Note_on_c, 0, 58, 0
1, 228296, Note_on_c, 0, 54, 0
1, 228299, Note_on_c, 0, 54, 35
1, 228299, Note_on_c, 0, 62, 35
1, 228299, Note_on_c, 0, 58, 35
1, 228699, Note_on_c, 0, 70, 0
1, 228699, Note_on_c, 0, 74, 0
1, 228699, Note_on_c, 0, 66, 0
1, 228702, Note_on_c, 0, 87, 60
1, 228702, Control_c, 0, 91, 127
1, 228702, Note_on_c, 0, 58, 0
1, 228705, Note_on_c, 0, 62, 0
1, 228705, Note_on_c, 0, 54, 0
1, 228705, Note_on_c, 0, 47, 60
1, 228708, Control_c, 0, 91, 126
1, 228738, Control_c, 0, 64, 127
1, 228773, Note_on_c, 0, 87, 0
1, 228773, Note_on_c, 0, 90, 52
1, 228846, Note_on_c, 0, 90, 0
1, 228846, Note_on_c, 0, 87, 60
1, 228846, Note_on_c, 0, 47, 0
1, 228920, Note_on_c, 0, 87, 0
1, 228920, Note_on_c, 0, 83, 52
1, 228994, Note_on_c, 0, 83, 0
1, 228994, Note_on_c, 0, 83, 60
1, 228994, Note_on_c, 0, 63, 60
1, 228997, Note_on_c, 0, 59, 52
1, 228997, Note_on_c, 0, 54, 52
1, 229068, Note_on_c, 0, 83, 0
1, 229068, Note_on_c, 0, 87, 52
1, 229142, Note_on_c, 0, 87, 0
1, 229142, Note_on_c, 0, 83, 60
1, 229215, Note_on_c, 0, 83, 0
1, 229215, Note_on_c, 0, 78, 52
1, 229290, Note_on_c, 0, 78, 0
1, 229290, Note_on_c, 0, 78, 60
1, 229364, Note_on_c, 0, 78, 0
1, 229364, Note_on_c, 0, 83, 52
1, 229438, Note_on_c, 0, 83, 0
1, 229438, Note_on_c, 0, 78, 60
1, 229512, Note_on_c, 0, 78, 0
1, 229512, Note_on_c, 0, 75, 52
1, 229587, Note_on_c, 0, 75, 0
1, 229587, Note_on_c, 0, 75, 60
1, 229661, Note_on_c, 0, 75, 0
1, 229661, Note_on_c, 0, 78, 52
1, 229736, Note_on_c, 0, 78, 0
1, 229736, Note_on_c, 0, 75, 60
1, 229810, Note_on_c, 0, 75, 0
1, 229810, Note_on_c, 0, 71, 52
1, 229885, Note_on_c, 0, 71, 0
1, 229885, Note_on_c, 0, 71, 60
1, 229960, Note_on_c, 0, 71, 0
1, 229960, Note_on_c, 0, 75, 52
1, 230035, Note_on_c, 0, 75, 0
1, 230035, Note_on_c, 0, 71, 60
1, 230109, Note_on_c, 0, 71, 0
1, 230109, Note_on_c, 0, 66, 52
1, 230184, Note_on_c, 0, 66, 0
1, 230184, Note_on_c, 0, 70, 47
1, 230184, Note_on_c, 0, 73, 55
1, 230187, Note_on_c, 0, 54, 0
1, 230187, Note_on_c, 0, 59, 0
1, 230187, Note_on_c, 0, 63, 0
1, 230190, Note_on_c, 0, 64, 51
1, 230190, Note_on_c, 0, 54, 45
1, 230195, Control_c, 0, 64, 0
1, 230363, Note_on_c, 0, 73, 0
1, 230363, Note_on_c, 0, 70, 0
1, 230363, Note_on_c, 0, 54, 0
1, 230366, Note_on_c, 0, 64, 0
1, 230540, Note_on_c, 0, 87, 60
1, 230540, Control_c, 0, 91, 127
1, 230540, Note_on_c, 0, 47, 60
1, 230545, Control_c, 0, 91, 126
1, 230550, Control_c, 0, 64, 127
1, 230614, Note_on_c, 0, 87, 0
1, 230614, Note_on_c, 0, 90, 52
1, 230687, Note_on_c, 0, 90, 0
1, 230687, Note_on_c, 0, 87, 60
1, 230687, Note_on_c, 0, 47, 0
1, 230761, Note_on_c, 0, 87, 0
1, 230761, Note_on_c, 0, 83, 52
1, 230835, Note_on_c, 0, 83, 0
1, 230835, Note_on_c, 0, 83, 60
1, 230835, Note_on_c, 0, 63, 60
1, 230838, Note_on_c, 0, 59, 52
1, 230838, Note_on_c, 0, 54, 52
1, 230909, Note_on_c, 0, 83, 0
1, 230909, Note_on_c, 0, 87, 52
1, 230983, Note_on_c, 0, 87, 0
1, 230983, Note_on_c, 0, 83, 60
1, 231057, Note_on_c, 0, 83, 0
1, 231057, Note_on_c, 0, 78, 52
1, 231131, Note_on_c, 0, 78, 0
1, 231131, Note_on_c, 0, 78, 60
1, 231205, Note_on_c, 0, 78, 0
1, 231205, Note_on_c, 0, 83, 52
1, 231279, Note_on_c, 0, 83, 0
1, 231279, Note_on_c, 0, 78, 60
1, 231354, Note_on_c, 0, 78, 0
1, 231354, Note_on_c, 0, 75, 52
1, 231428, Note_on_c, 0, 75, 0
1, 231428, Note_on_c, 0, 75, 60
1, 231502, Note_on_c, 0, 75, 0
1, 231502, Note_on_c, 0, 78, 52
1, 231577, Note_on_c, 0, 78, 0
1, 231577, Note_on_c, 0, 75, 60
1, 231652, Note_on_c, 0, 75, 0
1, 231652, Note_on_c, 0, 71, 52
1, 231726, Note_on_c, 0, 71, 0
1, 231726, Note_on_c, 0, 71, 60
1, 231801, Note_on_c, 0, 71, 0
1, 231801, Note_on_c, 0, 75, 52
1, 231876, Note_on_c, 0, 75, 0
1, 231876, Note_on_c, 0, 71, 60
1, 231951, Note_on_c, 0, 71, 0
1, 231951, Note_on_c, 0, 66, 52
1, 232026, Note_on_c, 0, 66, 0
1, 232026, Note_on_c, 0, 70, 47
1, 232026, Note_on_c, 0, 73, 55
1, 232029, Note_on_c, 0, 54, 0
1, 232029, Note_on_c, 0, 59, 0
1, 232029, Note_on_c, 0, 63, 0
1, 232032, Note_on_c, 0, 64, 51
1, 232032, Note_on_c, 0, 54, 45
1, 232035, Control_c, 0, 64, 0
1, 232198, Note_on_c, 0, 73, 0
1, 232198, Note_on_c, 0, 70, 0
1, 232198, Note_on_c, 0, 54, 0
1, 232201, Note_on_c, 0, 64, 0
1, 232371, Note_on_c, 0, 71, 51
1, 232371, Note_on_c, 0, 75, 51
1, 232371, Note_on_c, 0, 63, 46
1, 232374, Note_on_c, 0, 59, 46
1, 232716, Note_on_c, 0, 75, 0
1, 232716, Note_on_c, 0, 71, 0
1, 232716, Note_on_c, 0, 70, 57
1, 232719, Note_on_c, 0, 73, 57
1, 232719, Note_on_c, 0, 80, 57
1, 232719, Note_on_c, 0, 59, 0
1, 232722, Note_on_c, 0, 63, 0
1, 232722, Note_on_c, 0, 54, 51
1, 232722, Note_on_c, 0, 64, 51
1, 233037, Note_on_c, 0, 80, 0
1, 233037, Note_on_c, 0, 73, 0
1, 233037, Note_on_c, 0, 70, 0
1, 233040, Note_on_c, 0, 70, 58
1, 233040, Note_on_c, 0, 73, 58
1, 233040, Note_on_c, 0, 80, 58
1, 233043, Note_on_c, 0, 64, 0
1, 233043, Note_on_c, 0, 54, 0
1, 233043, Note_on_c, 0, 54, 55
1, 233046, Note_on_c, 0, 64, 55
1, 233360, Note_on_c, 0, 80, 0
1, 233360, Note_on_c, 0, 73, 0
1, 233360, Note_on_c, 0, 70, 0
1, 233363, Note_on_c, 0, 70, 59
1, 233363, Note_on_c, 0, 73, 59
1, 233363, Note_on_c, 0, 80, 59
1, 233366, Note_on_c, 0, 64, 0
1, 233366, Note_on_c, 0, 54, 0
1, 233366, Note_on_c, 0, 54, 55
1, 233369, Note_on_c, 0, 64, 55
1, 233714, Note_on_c, 0, 80, 0
1, 233714, Note_on_c, 0, 73, 0
1, 233714, Note_on_c, 0, 70, 0
1, 233717, Note_on_c, 0, 78, 49
1, 233717, Note_on_c, 0, 70, 49
1, 233717, Note_on_c, 0, 75, 49
1, 233720, Note_on_c, 0, 64, 0
1, 233720, Note_on_c, 0, 54, 0
1, 233720, Note_on_c, 0, 63, 46
1, 233723, Note_on_c, 0, 54, 46
1, 234068, Note_on_c, 0, 75, 0
1, 234068, Note_on_c, 0, 70, 0
1, 234068, Note_on_c, 0, 78, 0
1, 234071, Note_on_c, 0, 76, 49
1, 234071, Note_on_c, 0, 70, 49
1, 234071, Note_on_c, 0, 54, 0
1, 234074, Note_on_c, 0, 63, 0
1, 234074, Note_on_c, 0, 61, 46
1, 234074, Note_on_c, 0, 54, 46
1, 234477, Note_on_c, 0, 70, 0
1, 234477, Note_on_c, 0, 76, 0
1, 234477, Note_on_c, 0, 86, 60
1, 234480, Control_c, 0, 91, 127
1, 234480, Note_on_c, 0, 54, 0
1, 234480, Note_on_c, 0, 61, 0
1, 234483, Note_on_c, 0, 47, 60
1, 234483, Control_c, 0, 91, 126
1, 234499, Control_c, 0, 64, 127
1, 234550, Note_on_c, 0, 86, 0
1, 234550, Note_on_c, 0, 90, 52
1, 234624, Note_on_c, 0, 90, 0
1, 234624, Note_on_c, 0, 86, 60
1, 234624, Note_on_c, 0, 47, 0
1, 234697, Note_on_c, 0, 86, 0
1, 234697, Note_on_c, 0, 83, 52
1, 234771, Note_on_c, 0, 83, 0
1, 234771, Note_on_c, 0, 83, 60
1, 234771, Note_on_c, 0, 62, 60
1, 234774, Note_on_c, 0, 59, 52
1, 234774, Note_on_c, 0, 54, 52
1, 234845, Note_on_c, 0, 83, 0
1, 234845, Note_on_c, 0, 86, 52
1, 234918, Note_on_c, 0, 86, 0
1, 234918, Note_on_c, 0, 83, 60
1, 234992, Note_on_c, 0, 83, 0
1, 234992, Note_on_c, 0, 78, 52
1, 235066, Note_on_c, 0, 78, 0
1, 235066, Note_on_c, 0, 78, 60
1, 235140, Note_on_c, 0, 78, 0
1, 235140, Note_on_c, 0, 83, 52
1, 235214, Note_on_c, 0, 83, 0
1, 235214, Note_on_c, 0, 78, 60
1, 235288, Note_on_c, 0, 78, 0
1, 235288, Note_on_c, 0, 74, 52
1, 235363, Note_on_c, 0, 74, 0
1, 235363, Note_on_c, 0, 74, 60
1, 235437, Note_on_c, 0, 74, 0
1, 235437, Note_on_c, 0, 78, 52
1, 235511, Note_on_c, 0, 78, 0
1, 235511, Note_on_c, 0, 74, 60
1, 235586, Note_on_c, 0, 74, 0
1, 235586, Note_on_c, 0, 71, 52
1, 235660, Note_on_c, 0, 71, 0
1, 235660, Note_on_c, 0, 71, 60
1, 235735, Note_on_c, 0, 71, 0
1, 235735, Note_on_c, 0, 74, 52
1, 235810, Note_on_c, 0, 74, 0
1, 235810, Note_on_c, 0, 71, 60
1, 235885, Note_on_c, 0, 71, 0
1, 235885, Note_on_c, 0, 66, 52
1, 235960, Note_on_c, 0, 66, 0
1, 235960, Note_on_c, 0, 70, 47
1, 235960, Note_on_c, 0, 73, 55
1, 235963, Note_on_c, 0, 54, 0
1, 235963, Note_on_c, 0, 59, 0
1, 235963, Note_on_c, 0, 62, 0
1, 235966, Note_on_c, 0, 64, 52
1, 235966, Note_on_c, 0, 54, 45
1, 235966, Control_c, 0, 64, 0
1, 236138, Note_on_c, 0, 73, 0
1, 236138, Note_on_c, 0, 70, 0
1, 236138, Note_on_c, 0, 54, 0
1, 236141, Note_on_c, 0, 64, 0
1, 236318, Note_on_c, 0, 86, 60
1, 236318, Control_c, 0, 91, 127
1, 236318, Note_on_c, 0, 47, 60
1, 236323, Control_c, 0, 91, 126
1, 236333, Control_c, 0, 64, 127
1, 236392, Note_on_c, 0, 86, 0
1, 236392, Note_on_c, 0, 90, 52
1, 236466, Note_on_c, 0, 90, 0
1, 236466, Note_on_c, 0, 86, 60
1, 236466, Note_on_c, 0, 47, 0
1, 236539, Note_on_c, 0, 86, 0
1, 236539, Note_on_c, 0, 83, 52
1, 236613, Note_on_c, 0, 83, 0
1, 236613, Note_on_c, 0, 83, 60
1, 236613, Note_on_c, 0, 62, 60
1, 236616, Note_on_c, 0, 59, 52
1, 236616, Note_on_c, 0, 54, 52
1, 236687, Note_on_c, 0, 83, 0
1, 236687, Note_on_c, 0, 86, 52
1, 236761, Note_on_c, 0, 86, 0
1, 236761, Note_on_c, 0, 83, 60
1, 236835, Note_on_c, 0, 83, 0
1, 236835, Note_on_c, 0, 78, 52
1, 236909, Note_on_c, 0, 78, 0
1, 236909, Note_on_c, 0, 78, 60
1, 236983, Note_on_c, 0, 78, 0
1, 236983, Note_on_c, 0, 83, 52
1, 237057, Note_on_c, 0, 83, 0
1, 237057, Note_on_c, 0, 78, 60
1, 237132, Note_on_c, 0, 78, 0
1, 237132, Note_on_c, 0, 74, 52
1, 237206, Note_on_c, 0, 74, 0
1, 237206, Note_on_c, 0, 74, 60
1, 237280, Note_on_c, 0, 74, 0
1, 237280, Note_on_c, 0, 78, 52
1, 237355, Note_on_c, 0, 78, 0
1, 237355, Note_on_c, 0, 74, 60
1, 237429, Note_on_c, 0, 74, 0
1, 237429, Note_on_c, 0, 71, 52
1, 237504, Note_on_c, 0, 71, 0
1, 237504, Note_on_c, 0, 71, 60
1, 237579, Note_on_c, 0, 71, 0
1, 237579, Note_on_c, 0, 74, 52
1, 237654, Note_on_c, 0, 74, 0
1, 237654, Note_on_c, 0, 71, 60
1, 237729, Note_on_c, 0, 71, 0
1, 237729, Note_on_c, 0, 66, 52
1, 237803, Note_on_c, 0, 66, 0
1, 237803, Note_on_c, 0, 70, 47
1, 237803, Note_on_c, 0, 73, 55
1, 237806, Note_on_c, 0, 54, 0
1, 237806, Note_on_c, 0, 59, 0
1, 237806, Note_on_c, 0, 62, 0
1, 237809, Note_on_c, 0, 64, 51
1, 237809, Note_on_c, 0, 54, 45
1, 237809, Control_c, 0, 64, 0
1, 237982, Note_on_c, 0, 73, 0
1, 237982, Note_on_c, 0, 70, 0
1, 237982, Note_on_c, 0, 54, 0
1, 237985, Note_on_c, 0, 64, 0
1, 238162, Note_on_c, 0, 74, 51
1, 238162, Note_on_c, 0, 66, 51
1, 238162, Note_on_c, 0, 71, 51
1, 238165, Note_on_c, 0, 62, 50
1, 238165, Note_on_c, 0, 59, 50
1, 238549, Note_on_c, 0, 71, 0
1, 238549, Note_on_c, 0, 66, 0
1, 238549, Note_on_c, 0, 74, 0
1, 238552, Note_on_c, 0, 73, 60
1, 238552, Note_on_c, 0, 76, 60
1, 238552, Note_on_c, 0, 83, 60
1, 238555, Note_on_c, 0, 59, 0
1, 238555, Note_on_c, 0, 62, 0
1, 238555, Note_on_c, 0, 57, 55
1, 238558, Note_on_c, 0, 67, 55
1, 238869, Note_on_c, 0, 83, 0
1, 238869, Note_on_c, 0, 76, 0
1, 238869, Note_on_c, 0, 73, 0
1, 238872, Note_on_c, 0, 73, 58
1, 238872, Note_on_c, 0, 76, 58
1, 238872, Note_on_c, 0, 83, 58
1, 238875, Note_on_c, 0, 67, 0
1, 238875, Note_on_c, 0, 57, 0
1, 238875, Note_on_c, 0, 57, 53
1, 238878, Note_on_c, 0, 67, 53
1, 239190, Note_on_c, 0, 83, 0
1, 239190, Note_on_c, 0, 76, 0
1, 239190, Note_on_c, 0, 73, 0
1, 239193, Note_on_c, 0, 73, 56
1, 239193, Note_on_c, 0, 76, 56
1, 239193, Note_on_c, 0, 83, 56
1, 239196, Note_on_c, 0, 67, 0
1, 239196, Note_on_c, 0, 57, 0
1, 239196, Note_on_c, 0, 57, 51
1, 239199, Note_on_c, 0, 67, 51
1, 239511, Note_on_c, 0, 83, 0
1, 239511, Note_on_c, 0, 76, 0
1, 239511, Note_on_c, 0, 73, 0
1, 239514, Note_on_c, 0, 73, 54
1, 239514, Note_on_c, 0, 78, 54
1, 239514, Note_on_c, 0, 81, 54
1, 239517, Note_on_c, 0, 67, 0
1, 239517, Note_on_c, 0, 57, 0
1, 239517, Note_on_c, 0, 57, 49
1, 239520, Note_on_c, 0, 66, 49
1, 239832, Note_on_c, 0, 81, 0
1, 239832, Note_on_c, 0, 78, 0
1, 239832, Note_on_c, 0, 73, 0
1, 239835, Note_on_c, 0, 73, 52
1, 239835, Note_on_c, 0, 79, 52
1, 239835, Note_on_c, 0, 66, 0
1, 239838, Note_on_c, 0, 57, 0
1, 239838, Note_on_c, 0, 57, 47
1, 239838, Note_on_c, 0, 64, 47
1, 240153, Note_on_c, 0, 79, 0
1, 240153, Note_on_c, 0, 73, 0
1, 240153, Note_on_c, 0, 74, 48
1, 240156, Note_on_c, 0, 78, 48
1, 240156, Note_on_c, 0, 64, 0
1, 240156, Note_on_c, 0, 57, 0
1, 240159, Note_on_c, 0, 62, 46
1, 240159, Note_on_c, 0, 59, 46
1, 240488, Note_on_c, 0, 78, 0
1, 240488, Note_on_c, 0, 74, 0
1, 240488, Note_on_c, 0, 70, 56
1, 240491, Note_on_c, 0, 73, 56
1, 240491, Note_on_c, 0, 79, 56
1, 240491, Note_on_c, 0, 59, 0
1, 240494, Note_on_c, 0, 62, 0
1, 240494, Note_on_c, 0, 54, 52
1, 240494, Note_on_c, 0, 64, 52
1, 240809, Note_on_c, 0, 79, 0
1, 240809, Note_on_c, 0, 73, 0
1, 240809, Note_on_c, 0, 70, 0
1, 240812, Note_on_c, 0, 70, 56
1, 240812, Note_on_c, 0, 73, 56
1, 240812, Note_on_c, 0, 79, 56
1, 240815, Note_on_c, 0, 64, 0
1, 240815, Note_on_c, 0, 54, 0
1, 240815, Note_on_c, 0, 54, 51
1, 240818, Note_on_c, 0, 64, 51
1, 241130, Note_on_c, 0, 79, 0
1, 241130, Note_on_c, 0, 73, 0
1, 241130, Note_on_c, 0, 70, 0
1, 241133, Note_on_c, 0, 73, 56
1, 241133, Note_on_c, 0, 79, 56
1, 241133, Note_on_c, 0, 70, 56
1, 241136, Note_on_c, 0, 64, 0
1, 241136, Note_on_c, 0, 54, 0
1, 241136, Note_on_c, 0, 54, 51
1, 241139, Note_on_c, 0, 64, 51
1, 241451, Note_on_c, 0, 70, 0
1, 241451, Note_on_c, 0, 79, 0
1, 241451, Note_on_c, 0, 73, 0
1, 241454, Note_on_c, 0, 78, 54
1, 241454, Note_on_c, 0, 73, 54
1, 241454, Note_on_c, 0, 70, 54
1, 241457, Note_on_c, 0, 64, 0
1, 241457, Note_on_c, 0, 54, 0
1, 241457, Note_on_c, 0, 61, 49
1, 241460, Note_on_c, 0, 54, 49
1, 241772, Note_on_c, 0, 70, 0
1, 241772, Note_on_c, 0, 73, 0
1, 241772, Note_on_c, 0, 78, 0
1, 241775, Note_on_c, 0, 76, 52
1, 241775, Note_on_c, 0, 73, 52
1, 241775, Note_on_c, 0, 54, 0
1, 241778, Note_on_c, 0, 61, 0
1, 241778, Note_on_c, 0, 58, 47
1, 241778, Note_on_c, 0, 54, 47
1, 242093, Note_on_c, 0, 73, 0
1, 242093, Note_on_c, 0, 76, 0
1, 242093, Note_on_c, 0, 75, 51
1, 242096, Note_on_c, 0, 71, 51
1, 242096, Note_on_c, 0, 54, 0
1, 242096, Note_on_c, 0, 58, 0
1, 242099, Note_on_c, 0, 59, 46
1, 242099, Note_on_c, 0, 56, 46
1, 242439, Note_on_c, 0, 71, 0
1, 242439, Note_on_c, 0, 75, 0
1, 242439, Note_on_c, 0, 68, 59
1, 242442, Note_on_c, 0, 64, 59
1, 242442, Note_on_c, 0, 76, 59
1, 242442, Note_on_c, 0, 56, 0
1, 242445, Note_on_c, 0, 59, 0
1, 242445, Note_on_c, 0, 49, 54
1, 242445, Note_on_c, 0, 56, 54
1, 242448, Note_on_c, 0, 61, 54
1, 242760, Note_on_c, 0, 76, 0
1, 242760, Note_on_c, 0, 64, 0
1, 242760, Note_on_c, 0, 68, 0
1, 242763, Note_on_c, 0, 76, 59
1, 242763, Note_on_c, 0, 68, 59
1, 242763, Note_on_c, 0, 64, 59
1, 242766, Note_on_c, 0, 61, 0
1, 242766, Note_on_c, 0, 56, 0
1, 242766, Note_on_c, 0, 49, 0
1, 242769, Note_on_c, 0, 49, 52
1, 242769, Note_on_c, 0, 56, 52
1, 242769, Note_on_c, 0, 61, 52
1, 243081, Note_on_c, 0, 64, 0
1, 243081, Note_on_c, 0, 68, 0
1, 243081, Note_on_c, 0, 76, 0
1, 243084, Note_on_c, 0, 68, 59
1, 243084, Note_on_c, 0, 64, 59
1, 243084, Note_on_c, 0, 76, 59
1, 243087, Note_on_c, 0, 61, 0
1, 243087, Note_on_c, 0, 56, 0
1, 243087, Note_on_c, 0, 49, 0
1, 243090, Note_on_c, 0, 49, 54
1, 243090, Note_on_c, 0, 61, 54
1, 243090, Note_on_c, 0, 56, 54
1, 243402, Note_on_c, 0, 76, 0
1, 243402, Note_on_c, 0, 64, 0
1, 243402, Note_on_c, 0, 68, 0
1, 243405, Note_on_c, 0, 75, 59
1, 243405, Note_on_c, 0, 68, 59
1, 243405, Note_on_c, 0, 63, 59
1, 243408, Note_on_c, 0, 56, 0
1, 243408, Note_on_c, 0, 61, 0
1, 243408, Note_on_c, 0, 49, 0
1, 243411, Note_on_c, 0, 51, 53
1, 243411, Note_on_c, 0, 59, 53
1, 243411, Note_on_c, 0, 56, 53
1, 243723, Note_on_c, 0, 63, 0
1, 243723, Note_on_c, 0, 68, 0
1, 243723, Note_on_c, 0, 75, 0
1, 243726, Note_on_c, 0, 61, 57
1, 243726, Note_on_c, 0, 73, 57
1, 243726, Note_on_c, 0, 68, 57
1, 243729, Note_on_c, 0, 56, 0
1, 243729, Note_on_c, 0, 59, 0
1, 243729, Note_on_c, 0, 51, 0
1, 243732, Note_on_c, 0, 56, 52
1, 243732, Note_on_c, 0, 52, 52
1, 244044, Note_on_c, 0, 68, 0
1, 244044, Note_on_c, 0, 73, 0
1, 244044, Note_on_c, 0, 61, 0
1, 244047, Note_on_c, 0, 63, 58
1, 244047, Note_on_c, 0, 68, 58
1, 244047, Note_on_c, 0, 71, 58
1, 244050, Note_on_c, 0, 52, 0
1, 244050, Note_on_c, 0, 56, 0
1, 244050, Note_on_c, 0, 51, 51
1, 244053, Note_on_c, 0, 56, 51
1, 244053, Note_on_c, 0, 59, 51
1, 244379, Note_on_c, 0, 71, 0
1, 244379, Note_on_c, 0, 68, 0
1, 244379, Note_on_c, 0, 63, 0
1, 244382, Note_on_c, 0, 63, 58
1, 244382, Note_on_c, 0, 68, 58
1, 244382, Note_on_c, 0, 71, 58
1, 244385, Note_on_c, 0, 59, 0
1, 244385, Note_on_c, 0, 56, 0
1, 244385, Note_on_c, 0, 51, 0
1, 244388, Note_on_c, 0, 51, 50
1, 244388, Note_on_c, 0, 56, 50
1, 244388, Note_on_c, 0, 59, 50
1, 244715, Note_on_c, 0, 71, 0
1, 244715, Note_on_c, 0, 68, 0
1, 244715, Note_on_c, 0, 63, 0
1, 244718, Note_on_c, 0, 63, 58
1, 244718, Note_on_c, 0, 68, 58
1, 244718, Note_on_c, 0, 71, 58
1, 244721, Note_on_c, 0, 59, 0
1, 244721, Note_on_c, 0, 56, 0
1, 244721, Note_on_c, 0, 51, 0
1, 244724, Note_on_c, 0, 51, 50
1, 244724, Note_on_c, 0, 56, 50
1, 244724, Note_on_c, 0, 59, 50
1, 245090, Note_on_c, 0, 71, 0
1, 245090, Note_on_c, 0, 68, 0
1, 245090, Note_on_c, 0, 63, 0
1, 245093, Note_on_c, 0, 63, 43
1, 245093, Note_on_c, 0, 67, 43
1, 245093, Note_on_c, 0, 70, 43
1, 245096, Note_on_c, 0, 59, 0
1, 245096, Note_on_c, 0, 56, 0
1, 245096, Note_on_c, 0, 51, 0
1, 245099, Note_on_c, 0, 51, 41
1, 245099, Note_on_c, 0, 55, 41
1, 245099, Note_on_c, 0, 58, 41
1, 245424, Note_on_c, 0, 70, 0
1, 245424, Note_on_c, 0, 67, 0
1, 245424, Note_on_c, 0, 63, 0
1, 245427, Note_on_c, 0, 63, 44
1, 245427, Note_on_c, 0, 67, 44
1, 245427, Note_on_c, 0, 70, 44
1, 245430, Note_on_c, 0, 58, 0
1, 245430, Note_on_c, 0, 55, 0
1, 245430, Note_on_c, 0, 51, 0
1, 245433, Note_on_c, 0, 51, 40
1, 245433, Note_on_c, 0, 55, 40
1, 245433, Note_on_c, 0, 58, 40
1, 245758, Note_on_c, 0, 70, 0
1, 245758, Note_on_c, 0, 67, 0
1, 245758, Note_on_c, 0, 63, 0
1, 245761, Note_on_c, 0, 63, 44
1, 245761, Note_on_c, 0, 67, 44
1, 245761, Note_on_c, 0, 70, 44
1, 245764, Note_on_c, 0, 58, 0
1, 245764, Note_on_c, 0, 55, 0
1, 245764, Note_on_c, 0, 51, 0
1, 245767, Note_on_c, 0, 51, 39
1, 245767, Note_on_c, 0, 55, 39
1, 245767, Note_on_c, 0, 58, 39
1, 246148, Note_on_c, 0, 70, 0
1, 246148, Note_on_c, 0, 67, 0
1, 246148, Note_on_c, 0, 63, 0
1, 246151, Note_on_c, 0, 84, 50
1, 246151, Control_c, 0, 91, 127
1, 246151, Note_on_c, 0, 58, 0
1, 246154, Note_on_c, 0, 55, 0
1, 246154, Note_on_c, 0, 51, 0
1, 246154, Note_on_c, 0, 44, 50
1, 246157, Control_c, 0, 91, 126
1, 246175, Control_c, 0, 64, 127
1, 246221, Note_on_c, 0, 84, 0
1, 246221, Note_on_c, 0, 87, 44
1, 246295, Note_on_c, 0, 87, 0
1, 246295, Note_on_c, 0, 84, 50
1, 246368, Note_on_c, 0, 84, 0
1, 246368, Note_on_c, 0, 80, 44
1, 246442, Note_on_c, 0, 80, 0
1, 246442, Note_on_c, 0, 80, 50
1, 246442, Note_on_c, 0, 44, 0
1, 246445, Note_on_c, 0, 51, 44
1, 246445, Note_on_c, 0, 60, 50
1, 246445, Note_on_c, 0, 56, 44
1, 246515, Note_on_c, 0, 80, 0
1, 246515, Note_on_c, 0, 84, 44
1, 246589, Note_on_c, 0, 84, 0
1, 246589, Note_on_c, 0, 80, 50
1, 246663, Note_on_c, 0, 80, 0
1, 246663, Note_on_c, 0, 75, 44
1, 246737, Note_on_c, 0, 75, 0
1, 246737, Note_on_c, 0, 75, 50
1, 246811, Note_on_c, 0, 75, 0
1, 246811, Note_on_c, 0, 80, 44
1, 246885, Note_on_c, 0, 80, 0
1, 246885, Note_on_c, 0, 75, 50
1, 246959, Note_on_c, 0, 75, 0
1, 246959, Note_on_c, 0, 72, 44
1, 247033, Note_on_c, 0, 72, 0
1, 247033, Note_on_c, 0, 72, 50
1, 247107, Note_on_c, 0, 72, 0
1, 247107, Note_on_c, 0, 75, 44
1, 247181, Note_on_c, 0, 75, 0
1, 247181, Note_on_c, 0, 72, 50
1, 247256, Note_on_c, 0, 72, 0
1, 247256, Note_on_c, 0, 68, 44
1, 247330, Note_on_c, 0, 68, 0
1, 247330, Note_on_c, 0, 68, 50
1, 247405, Note_on_c, 0, 68, 0
1, 247405, Note_on_c, 0, 72, 44
1, 247479, Note_on_c, 0, 72, 0
1, 247479, Note_on_c, 0, 68, 50
1, 247554, Note_on_c, 0, 68, 0
1, 247554, Note_on_c, 0, 63, 44
1, 247629, Note_on_c, 0, 63, 0
1, 247629, Note_on_c, 0, 67, 40
1, 247629, Note_on_c, 0, 70, 46
1, 247632, Note_on_c, 0, 56, 0
1, 247632, Note_on_c, 0, 60, 0
1, 247632, Note_on_c, 0, 51, 0
1, 247635, Note_on_c, 0, 61, 42
1, 247635, Note_on_c, 0, 51, 37
1, 247640, Control_c, 0, 64, 0
1, 247807, Note_on_c, 0, 70, 0
1, 247807, Note_on_c, 0, 67, 0
1, 247807, Note_on_c, 0, 51, 0
1, 247810, Note_on_c, 0, 61, 0
1, 247983, Note_on_c, 0, 84, 50
1, 247983, Control_c, 0, 91, 127
1, 247983, Note_on_c, 0, 44, 50
1, 247988, Control_c, 0, 91, 126
1, 248013, Control_c, 0, 64, 127
1, 248057, Note_on_c, 0, 84, 0
1, 248057, Note_on_c, 0, 87, 44
1, 248131, Note_on_c, 0, 87, 0
1, 248131, Note_on_c, 0, 84, 50
1, 248204, Note_on_c, 0, 84, 0
1, 248204, Note_on_c, 0, 80, 44
1, 248278, Note_on_c, 0, 80, 0
1, 248278, Note_on_c, 0, 80, 50
1, 248278, Note_on_c, 0, 44, 0
1, 248281, Note_on_c, 0, 51, 44
1, 248281, Note_on_c, 0, 60, 50
1, 248281, Note_on_c, 0, 56, 44
1, 248352, Note_on_c, 0, 80, 0
1, 248352, Note_on_c, 0, 84, 44
1, 248426, Note_on_c, 0, 84, 0
1, 248426, Note_on_c, 0, 80, 50
1, 248500, Note_on_c, 0, 80, 0
1, 248500, Note_on_c, 0, 75, 44
1, 248574, Note_on_c, 0, 75, 0
1, 248574, Note_on_c, 0, 75, 50
1, 248648, Note_on_c, 0, 75, 0
1, 248648, Note_on_c, 0, 80, 44
1, 248722, Note_on_c, 0, 80, 0
1, 248722, Note_on_c, 0, 75, 50
1, 248796, Note_on_c, 0, 75, 0
1, 248796, Note_on_c, 0, 72, 44
1, 248870, Note_on_c, 0, 72, 0
1, 248870, Note_on_c, 0, 72, 50
1, 248945, Note_on_c, 0, 72, 0
1, 248945, Note_on_c, 0, 75, 44
1, 249019, Note_on_c, 0, 75, 0
1, 249019, Note_on_c, 0, 72, 50
1, 249094, Note_on_c, 0, 72, 0
1, 249094, Note_on_c, 0, 68, 44
1, 249168, Note_on_c, 0, 68, 0
1, 249168, Note_on_c, 0, 68, 50
1, 249243, Note_on_c, 0, 68, 0
1, 249243, Note_on_c, 0, 72, 44
1, 249317, Note_on_c, 0, 72, 0
1, 249317, Note_on_c, 0, 68, 50
1, 249392, Note_on_c, 0, 68, 0
1, 249392, Note_on_c, 0, 63, 44
1, 249467, Note_on_c, 0, 63, 0
1, 249467, Note_on_c, 0, 67, 40
1, 249467, Note_on_c, 0, 70, 46
1, 249470, Note_on_c, 0, 56, 0
1, 249470, Note_on_c, 0, 60, 0
1, 249470, Note_on_c, 0, 51, 0
1, 249473, Note_on_c, 0, 61, 42
1, 249473, Note_on_c, 0, 51, 37
1, 249482, Control_c, 0, 64, 0
1, 249646, Note_on_c, 0, 70, 0
1, 249646, Note_on_c, 0, 67, 0
1, 249646, Note_on_c, 0, 51, 0
1, 249649, Note_on_c, 0, 61, 0
1, 249816, Note_on_c, 0, 87, 55
1, 249816, Control_c, 0, 91, 127
1, 249816, Note_on_c, 0, 44, 55
1, 249821, Control_c, 0, 91, 126
1, 249838, Control_c, 0, 64, 127
1, 249889, Note_on_c, 0, 87, 0
1, 249889, Note_on_c, 0, 92, 48
1, 249962, Note_on_c, 0, 92, 0
1, 249962, Note_on_c, 0, 87, 55
1, 250036, Note_on_c, 0, 87, 0
1, 250036, Note_on_c, 0, 84, 48
1, 250109, Note_on_c, 0, 84, 0
1, 250109, Note_on_c, 0, 84, 55
1, 250109, Note_on_c, 0, 44, 0
1, 250112, Note_on_c, 0, 51, 51
1, 250112, Note_on_c, 0, 60, 59
1, 250112, Note_on_c, 0, 56, 51
1, 250182, Note_on_c, 0, 84, 0
1, 250182, Note_on_c, 0, 87, 48
1, 250256, Note_on_c, 0, 87, 0
1, 250256, Note_on_c, 0, 84, 55
1, 250330, Note_on_c, 0, 84, 0
1, 250330, Note_on_c, 0, 80, 48
1, 250403, Note_on_c, 0, 80, 0
1, 250403, Note_on_c, 0, 80, 55
1, 250477, Note_on_c, 0, 80, 0
1, 250477, Note_on_c, 0, 84, 48
1, 250551, Note_on_c, 0, 84, 0
1, 250551, Note_on_c, 0, 80, 55
1, 250625, Note_on_c, 0, 80, 0
1, 250625, Note_on_c, 0, 75, 48
1, 250699, Note_on_c, 0, 75, 0
1, 250699, Note_on_c, 0, 75, 55
1, 250773, Note_on_c, 0, 75, 0
1, 250773, Note_on_c, 0, 80, 48
1, 250848, Note_on_c, 0, 80, 0
1, 250848, Note_on_c, 0, 75, 55
1, 250922, Note_on_c, 0, 75, 0
1, 250922, Note_on_c, 0, 72, 48
1, 250996, Note_on_c, 0, 72, 0
1, 250996, Note_on_c, 0, 72, 55
1, 251071, Note_on_c, 0, 72, 0
1, 251071, Note_on_c, 0, 75, 48
1, 251145, Note_on_c, 0, 75, 0
1, 251145, Note_on_c, 0, 72, 55
1, 251220, Note_on_c, 0, 72, 0
1, 251220, Note_on_c, 0, 68, 48
1, 251295, Note_on_c, 0, 68, 0
1, 251295, Note_on_c, 0, 67, 50
1, 251295, Note_on_c, 0, 70, 50
1, 251298, Note_on_c, 0, 56, 0
1, 251298, Note_on_c, 0, 60, 0
1, 251298, Note_on_c, 0, 51, 0
1, 251301, Note_on_c, 0, 61, 46
1, 251301, Note_on_c, 0, 51, 40
1, 251308, Control_c, 0, 64, 0
1, 251474, Note_on_c, 0, 70, 0
1, 251474, Note_on_c, 0, 67, 0
1, 251474, Note_on_c, 0, 51, 0
1, 251477, Note_on_c, 0, 61, 0
1, 251650, Note_on_c, 0, 87, 60
1, 251650, Control_c, 0, 91, 127
1, 251650, Note_on_c, 0, 44, 60
1, 251655, Control_c, 0, 91, 126
1, 251684, Control_c, 0, 64, 127
1, 251723, Note_on_c, 0, 87, 0
1, 251723, Note_on_c, 0, 92, 52
1, 251797, Note_on_c, 0, 92, 0
1, 251797, Note_on_c, 0, 87, 60
1, 251871, Note_on_c, 0, 87, 0
1, 251871, Note_on_c, 0, 84, 52
1, 251944, Note_on_c, 0, 84, 0
1, 251944, Note_on_c, 0, 84, 60
1, 251944, Note_on_c, 0, 44, 0
1, 251947, Note_on_c, 0, 51, 50
1, 251947, Note_on_c, 0, 60, 58
1, 251947, Note_on_c, 0, 56, 50
1, 252018, Note_on_c, 0, 84, 0
1, 252018, Note_on_c, 0, 87, 52
1, 252092, Note_on_c, 0, 87, 0
1, 252092, Note_on_c, 0, 84, 60
1, 252166, Note_on_c, 0, 84, 0
1, 252166, Note_on_c, 0, 80, 52
1, 252240, Note_on_c, 0, 80, 0
1, 252240, Note_on_c, 0, 80, 60
1, 252314, Note_on_c, 0, 80, 0
1, 252314, Note_on_c, 0, 84, 52
1, 252388, Note_on_c, 0, 84, 0
1, 252388, Note_on_c, 0, 80, 60
1, 252462, Note_on_c, 0, 80, 0
1, 252462, Note_on_c, 0, 75, 52
1, 252537, Note_on_c, 0, 75, 0
1, 252537, Note_on_c, 0, 75, 60
1, 252611, Note_on_c, 0, 75, 0
1, 252611, Note_on_c, 0, 80, 52
1, 252685, Note_on_c, 0, 80, 0
1, 252685, Note_on_c, 0, 75, 60
1, 252760, Note_on_c, 0, 75, 0
1, 252760, Note_on_c, 0, 72, 52
1, 252834, Note_on_c, 0, 72, 0
1, 252834, Note_on_c, 0, 72, 60
1, 252909, Note_on_c, 0, 72, 0
1, 252909, Note_on_c, 0, 75, 52
1, 252983, Note_on_c, 0, 75, 0
1, 252983, Note_on_c, 0, 72, 60
1, 253058, Note_on_c, 0, 72, 0
1, 253058, Note_on_c, 0, 68, 52
1, 253133, Note_on_c, 0, 68, 0
1, 253133, Note_on_c, 0, 67, 55
1, 253133, Note_on_c, 0, 70, 55
1, 253136, Note_on_c, 0, 56, 0
1, 253136, Note_on_c, 0, 60, 0
1, 253136, Note_on_c, 0, 51, 0
1, 253139, Note_on_c, 0, 61, 50
1, 253139, Note_on_c, 0, 51, 44
1, 253139, Control_c, 0, 64, 0
1, 253312, Note_on_c, 0, 70, 0
1, 253312, Note_on_c, 0, 67, 0
1, 253312, Note_on_c, 0, 51, 0
1, 253315, Note_on_c, 0, 61, 0
1, 253491, Note_on_c, 0, 72, 50
1, 253491, Note_on_c, 0, 44, 50
1, 253496, Control_c, 0, 64, 127
1, 253566, Note_on_c, 0, 72, 0
1, 253566, Note_on_c, 0, 75, 44
1, 253641, Note_on_c, 0, 75, 0
1, 253641, Note_on_c, 0, 72, 50
1, 253716, Note_on_c, 0, 72, 0
1, 253716, Note_on_c, 0, 68, 44
1, 253791, Note_on_c, 0, 68, 0
1, 253791, Note_on_c, 0, 68, 50
1, 253791, Note_on_c, 0, 44, 0
1, 253794, Note_on_c, 0, 54, 37
1, 253794, Note_on_c, 0, 60, 43
1, 253794, Note_on_c, 0, 56, 37
1, 253866, Note_on_c, 0, 68, 0
1, 253866, Note_on_c, 0, 72, 44
1, 253941, Note_on_c, 0, 72, 0
1, 253941, Note_on_c, 0, 68, 50
1, 254015, Note_on_c, 0, 68, 0
1, 254015, Note_on_c, 0, 63, 44
1, 254090, Note_on_c, 0, 63, 0
1, 254090, Note_on_c, 0, 68, 50
1, 254096, Control_c, 0, 64, 0
1, 254171, Note_on_c, 0, 68, 0
1, 254411, Note_on_c, 0, 73, 50
1, 254411, Note_on_c, 0, 56, 0
1, 254411, Note_on_c, 0, 60, 0
1, 254414, Note_on_c, 0, 54, 0
1, 254414, Note_on_c, 0, 49, 50
1, 254421, Control_c, 0, 64, 127
1, 254486, Note_on_c, 0, 73, 0
1, 254486, Note_on_c, 0, 77, 44
1, 254561, Note_on_c, 0, 77, 0
1, 254561, Note_on_c, 0, 73, 50
1, 254636, Note_on_c, 0, 73, 0
1, 254636, Note_on_c, 0, 68, 44
1, 254711, Note_on_c, 0, 68, 0
1, 254711, Note_on_c, 0, 68, 50
1, 254711, Note_on_c, 0, 49, 0
1, 254714, Note_on_c, 0, 61, 39
1, 254714, Note_on_c, 0, 56, 35
1, 254714, Note_on_c, 0, 53, 35
1, 254786, Note_on_c, 0, 68, 0
1, 254786, Note_on_c, 0, 73, 44
1, 254861, Note_on_c, 0, 73, 0
1, 254861, Note_on_c, 0, 68, 50
1, 254935, Note_on_c, 0, 68, 0
1, 254935, Note_on_c, 0, 65, 44
1, 255010, Note_on_c, 0, 65, 0
1, 255010, Note_on_c, 0, 68, 50
1, 255021, Control_c, 0, 64, 0
1, 255091, Note_on_c, 0, 68, 0
1, 255331, Note_on_c, 0, 75, 50
1, 255331, Note_on_c, 0, 53, 0
1, 255331, Note_on_c, 0, 56, 0
1, 255334, Note_on_c, 0, 61, 0
1, 255334, Note_on_c, 0, 39, 50
1, 255343, Control_c, 0, 64, 127
1, 255406, Note_on_c, 0, 75, 0
1, 255406, Note_on_c, 0, 79, 44
1, 255481, Note_on_c, 0, 79, 0
1, 255481, Note_on_c, 0, 75, 50
1, 255555, Note_on_c, 0, 75, 0
1, 255555, Note_on_c, 0, 70, 44
1, 255630, Note_on_c, 0, 70, 0
1, 255630, Note_on_c, 0, 70, 50
1, 255630, Note_on_c, 0, 39, 0
1, 255633, Note_on_c, 0, 51, 39
1, 255633, Note_on_c, 0, 61, 45
1, 255633, Note_on_c, 0, 58, 39
1, 255705, Note_on_c, 0, 70, 0
1, 255705, Note_on_c, 0, 75, 44
1, 255780, Note_on_c, 0, 75, 0
1, 255780, Note_on_c, 0, 70, 50
1, 255855, Note_on_c, 0, 70, 0
1, 255855, Note_on_c, 0, 67, 44
1, 255930, Note_on_c, 0, 67, 0
1, 255930, Note_on_c, 0, 70, 50
1, 255943, Control_c, 0, 64, 0
1, 256010, Note_on_c, 0, 70, 0
1, 256252, Note_on_c, 0, 75, 50
1, 256252, Note_on_c, 0, 58, 0
1, 256252, Note_on_c, 0, 61, 0
1, 256255, Note_on_c, 0, 51, 0
1, 256255, Note_on_c, 0, 44, 50
1, 256274, Control_c, 0, 64, 127
1, 256327, Note_on_c, 0, 75, 0
1, 256327, Note_on_c, 0, 80, 44
1, 256402, Note_on_c, 0, 80, 0
1, 256402, Note_on_c, 0, 75, 50
1, 256477, Note_on_c, 0, 75, 0
1, 256477, Note_on_c, 0, 72, 44
1, 256552, Note_on_c, 0, 72, 0
1, 256552, Note_on_c, 0, 72, 50
1, 256552, Note_on_c, 0, 44, 0
1, 256555, Note_on_c, 0, 60, 47
1, 256555, Note_on_c, 0, 56, 41
1, 256555, Note_on_c, 0, 51, 41
1, 256627, Note_on_c, 0, 72, 0
1, 256627, Note_on_c, 0, 75, 44
1, 256702, Note_on_c, 0, 75, 0
1, 256702, Note_on_c, 0, 72, 50
1, 256777, Note_on_c, 0, 72, 0
1, 256777, Note_on_c, 0, 68, 44
1, 256853, Note_on_c, 0, 68, 0
1, 256853, Note_on_c, 0, 72, 50
1, 256879, Control_c, 0, 64, 0
1, 256939, Note_on_c, 0, 72, 0
1, 257198, Note_on_c, 0, 84, 63
1, 257198, Note_on_c, 0, 51, 0
1, 257198, Note_on_c, 0, 56, 0
1, 257201, Note_on_c, 0, 60, 0
1, 257201, Note_on_c, 0, 44, 60
1, 257222, Control_c, 0, 64, 127
1, 257274, Note_on_c, 0, 84, 0
1, 257274, Note_on_c, 0, 87, 55
1, 257349, Note_on_c, 0, 87, 0
1, 257349, Note_on_c, 0, 84, 63
1, 257424, Note_on_c, 0, 84, 0
1, 257424, Note_on_c, 0, 80, 55
1, 257499, Note_on_c, 0, 80, 0
1, 257499, Note_on_c, 0, 80, 63
1, 257499, Note_on_c, 0, 44, 0
1, 257502, Note_on_c, 0, 54, 44
1, 257502, Note_on_c, 0, 60, 51
1, 257502, Note_on_c, 0, 56, 44
1, 257575, Note_on_c, 0, 80, 0
1, 257575, Note_on_c, 0, 84, 55
1, 257650, Note_on_c, 0, 84, 0
1, 257650, Note_on_c, 0, 80, 63
1, 257725, Note_on_c, 0, 80, 0
1, 257725, Note_on_c, 0, 75, 55
1, 257800, Note_on_c, 0, 75, 0
1, 257800, Note_on_c, 0, 80, 63
1, 257824, Control_c, 0, 64, 0
1, 257880, Note_on_c, 0, 80, 0
1, 258121, Note_on_c, 0, 85, 70
1, 258121, Note_on_c, 0, 56, 0
1, 258121, Note_on_c, 0, 60, 0
1, 258124, Note_on_c, 0, 54, 0
1, 258124, Note_on_c, 0, 49, 70
1, 258133, Control_c, 0, 64, 127
1, 258196, Note_on_c, 0, 85, 0
1, 258196, Note_on_c, 0, 89, 61
1, 258272, Note_on_c, 0, 89, 0
1, 258272, Note_on_c, 0, 85, 70
1, 258347, Note_on_c, 0, 85, 0
1, 258347, Note_on_c, 0, 80, 61
1, 258422, Note_on_c, 0, 80, 0
1, 258422, Note_on_c, 0, 80, 70
1, 258422, Note_on_c, 0, 49, 0
1, 258425, Note_on_c, 0, 56, 54
1, 258425, Note_on_c, 0, 61, 62
1, 258425, Note_on_c, 0, 53, 54
1, 258498, Note_on_c, 0, 80, 0
1, 258498, Note_on_c, 0, 85, 61
1, 258573, Note_on_c, 0, 85, 0
1, 258573, Note_on_c, 0, 80, 70
1, 258649, Note_on_c, 0, 80, 0
1, 258649, Note_on_c, 0, 77, 61
1, 258724, Note_on_c, 0, 77, 0
1, 258724, Note_on_c, 0, 80, 70
1, 258737, Control_c, 0, 64, 0
1, 258804, Note_on_c, 0, 80, 0
1, 259045, Note_on_c, 0, 87, 80
1, 259045, Note_on_c, 0, 53, 0
1, 259045, Note_on_c, 0, 61, 0
1, 259048, Note_on_c, 0, 56, 0
1, 259048, Note_on_c, 0, 39, 80
1, 259067, Control_c, 0, 64, 127
1, 259120, Note_on_c, 0, 87, 0
1, 259120, Note_on_c, 0, 91, 69
1, 259195, Note_on_c, 0, 91, 0
1, 259195, Note_on_c, 0, 87, 80
1, 259270, Note_on_c, 0, 87, 0
1, 259270, Note_on_c, 0, 82, 69
1, 259345, Note_on_c, 0, 82, 0
1, 259345, Note_on_c, 0, 82, 80
1, 259345, Note_on_c, 0, 39, 0
1, 259348, Note_on_c, 0, 61, 71
1, 259348, Note_on_c, 0, 58, 61
1, 259348, Note_on_c, 0, 51, 61
1, 259421, Note_on_c, 0, 82, 0
1, 259421, Note_on_c, 0, 87, 69
1, 259496, Note_on_c, 0, 87, 0
1, 259496, Note_on_c, 0, 82, 80
1, 259571, Note_on_c, 0, 82, 0
1, 259571, Note_on_c, 0, 79, 69
1, 259646, Note_on_c, 0, 79, 0
1, 259646, Note_on_c, 0, 82, 80
1, 259670, Control_c, 0, 64, 0
1, 259806, Note_on_c, 0, 82, 0
1, 259967, Note_on_c, 0, 87, 90
1, 259967, Note_on_c, 0, 51, 0
1, 259967, Note_on_c, 0, 58, 0
1, 259970, Note_on_c, 0, 61, 0
1, 259970, Note_on_c, 0, 44, 86
1, 259994, Control_c, 0, 64, 127
1, 260042, Note_on_c, 0, 87, 0
1, 260042, Note_on_c, 0, 92, 78
1, 260117, Note_on_c, 0, 92, 0
1, 260117, Note_on_c, 0, 87, 90
1, 260192, Note_on_c, 0, 87, 0
1, 260192, Note_on_c, 0, 84, 78
1, 260266, Note_on_c, 0, 84, 0
1, 260266, Note_on_c, 0, 84, 90
1, 260266, Note_on_c, 0, 44, 0
1, 260269, Note_on_c, 0, 60, 73
1, 260269, Note_on_c, 0, 56, 63
1, 260269, Note_on_c, 0, 51, 63
1, 260341, Note_on_c, 0, 84, 0
1, 260341, Note_on_c, 0, 87, 78
1, 260416, Note_on_c, 0, 87, 0
1, 260416, Note_on_c, 0, 84, 90
1, 260491, Note_on_c, 0, 84, 0
1, 260491, Note_on_c, 0, 80, 78
1, 260567, Note_on_c, 0, 80, 0
1, 260567, Note_on_c, 0, 84, 90
1, 260598, Control_c, 0, 64, 0
1, 260740, Note_on_c, 0, 84, 0
1, 260914, Note_on_c, 0, 72, 50
1, 260914, Note_on_c, 0, 51, 0
1, 260914, Note_on_c, 0, 56, 0
1, 260917, Note_on_c, 0, 60, 0
1, 260917, Note_on_c, 0, 51, 60
1, 260917, Note_on_c, 0, 44, 44
1, 260933, Control_c, 0, 64, 127
1, 260994, Note_on_c, 0, 72, 0
1, 260994, Note_on_c, 0, 75, 44
1, 261074, Note_on_c, 0, 75, 0
1, 261074, Note_on_c, 0, 72, 50
1, 261155, Note_on_c, 0, 72, 0
1, 261155, Note_on_c, 0, 68, 44
1, 261234, Note_on_c, 0, 68, 0
1, 261234, Note_on_c, 0, 68, 50
1, 261234, Note_on_c, 0, 51, 0
1, 261237, Note_on_c, 0, 56, 70
1, 261309, Note_on_c, 0, 68, 0
1, 261309, Note_on_c, 0, 72, 44
1, 261384, Note_on_c, 0, 72, 0
1, 261384, Note_on_c, 0, 68, 50
1, 261459, Note_on_c, 0, 68, 0
1, 261459, Note_on_c, 0, 63, 44
1, 261534, Note_on_c, 0, 63, 0
1, 261534, Note_on_c, 0, 68, 50
1, 261684, Note_on_c, 0, 68, 0
1, 261684, Note_on_c, 0, 56, 0
1, 261684, Note_on_c, 0, 55, 60
1, 261833, Note_on_c, 0, 73, 50
1, 261833, Note_on_c, 0, 55, 0
1, 261833, Note_on_c, 0, 44, 0
1, 261836, Note_on_c, 0, 53, 60
1, 261836, Note_on_c, 0, 49, 44
1, 261836, Control_c, 0, 64, 0
1, 261913, Note_on_c, 0, 73, 0
1, 261913, Note_on_c, 0, 77, 44
1, 261923, Control_c, 0, 64, 127
1, 261993, Note_on_c, 0, 77, 0
1, 261993, Note_on_c, 0, 73, 50
1, 262073, Note_on_c, 0, 73, 0
1, 262073, Note_on_c, 0, 68, 44
1, 262153, Note_on_c, 0, 68, 0
1, 262153, Note_on_c, 0, 68, 50
1, 262153, Note_on_c, 0, 53, 0
1, 262156, Note_on_c, 0, 61, 70
1, 262228, Note_on_c, 0, 68, 0
1, 262228, Note_on_c, 0, 73, 44
1, 262303, Note_on_c, 0, 73, 0
1, 262303, Note_on_c, 0, 68, 50
1, 262378, Note_on_c, 0, 68, 0
1, 262378, Note_on_c, 0, 65, 44
1, 262453, Note_on_c, 0, 65, 0
1, 262453, Note_on_c, 0, 68, 50
1, 262602, Note_on_c, 0, 68, 0
1, 262602, Note_on_c, 0, 61, 0
1, 262602, Note_on_c, 0, 60, 60
1, 262752, Note_on_c, 0, 75, 50
1, 262752, Note_on_c, 0, 60, 0
1, 262752, Note_on_c, 0, 49, 0
1, 262755, Note_on_c, 0, 58, 60
1, 262755, Note_on_c, 0, 51, 44
1, 262755, Control_c, 0, 64, 0
1, 262832, Note_on_c, 0, 75, 0
1, 262832, Note_on_c, 0, 79, 44
1, 262851, Control_c, 0, 64, 127
1, 262913, Note_on_c, 0, 79, 0
1, 262913, Note_on_c, 0, 75, 50
1, 262993, Note_on_c, 0, 75, 0
1, 262993, Note_on_c, 0, 70, 44
1, 263073, Note_on_c, 0, 70, 0
1, 263073, Note_on_c, 0, 70, 50
1, 263073, Note_on_c, 0, 58, 0
1, 263076, Note_on_c, 0, 63, 70
1, 263148, Note_on_c, 0, 70, 0
1, 263148, Note_on_c, 0, 75, 44
1, 263223, Note_on_c, 0, 75, 0
1, 263223, Note_on_c, 0, 70, 50
1, 263298, Note_on_c, 0, 70, 0
1, 263298, Note_on_c, 0, 67, 44
1, 263373, Note_on_c, 0, 67, 0
1, 263373, Note_on_c, 0, 70, 50
1, 263523, Note_on_c, 0, 70, 0
1, 263523, Note_on_c, 0, 63, 0
1, 263523, Note_on_c, 0, 61, 60
1, 263672, Note_on_c, 0, 75, 50
1, 263672, Note_on_c, 0, 61, 0
1, 263672, Note_on_c, 0, 51, 0
1, 263675, Note_on_c, 0, 60, 60
1, 263675, Note_on_c, 0, 56, 44
1, 263675, Control_c, 0, 64, 0
1, 263734, Control_c, 0, 64, 127
1, 263753, Note_on_c, 0, 75, 0
1, 263753, Note_on_c, 0, 80, 44
1, 263833, Note_on_c, 0, 80, 0
1, 263833, Note_on_c, 0, 75, 50
1, 263913, Note_on_c, 0, 75, 0
1, 263913, Note_on_c, 0, 72, 44
1, 263993, Note_on_c, 0, 72, 0
1, 263993, Note_on_c, 0, 72, 50
1, 263993, Note_on_c, 0, 60, 0
1, 263996, Note_on_c, 0, 63, 70
1, 264069, Note_on_c, 0, 72, 0
1, 264069, Note_on_c, 0, 75, 44
1, 264143, Note_on_c, 0, 75, 0
1, 264143, Note_on_c, 0, 72, 50
1, 264218, Note_on_c, 0, 72, 0
1, 264218, Note_on_c, 0, 68, 44
1, 264293, Note_on_c, 0, 68, 0
1, 264293, Note_on_c, 0, 72, 50
1, 264443, Note_on_c, 0, 72, 0
1, 264593, Note_on_c, 0, 84, 60
1, 264593, Note_on_c, 0, 63, 0
1, 264593, Note_on_c, 0, 56, 0
1, 264596, Note_on_c, 0, 51, 76
1, 264596, Note_on_c, 0, 44, 66
1, 264596, Control_c, 0, 64, 0
1, 264683, Note_on_c, 0, 84, 0
1, 264683, Note_on_c, 0, 87, 52
1, 264689, Control_c, 0, 64, 127
1, 264774, Note_on_c, 0, 87, 0
1, 264774, Note_on_c, 0, 84, 60
1, 264864, Note_on_c, 0, 84, 0
1, 264864, Note_on_c, 0, 80, 52
1, 264954, Note_on_c, 0, 80, 0
1, 264954, Note_on_c, 0, 80, 60
1, 264954, Note_on_c, 0, 51, 0
1, 264957, Note_on_c, 0, 56, 83
1, 265029, Note_on_c, 0, 80, 0
1, 265029, Note_on_c, 0, 84, 52
1, 265103, Note_on_c, 0, 84, 0
1, 265103, Note_on_c, 0, 80, 60
1, 265178, Note_on_c, 0, 80, 0
1, 265178, Note_on_c, 0, 75, 52
1, 265253, Note_on_c, 0, 75, 0
1, 265253, Note_on_c, 0, 80, 60
1, 265402, Note_on_c, 0, 80, 0
1, 265402, Note_on_c, 0, 56, 0
1, 265402, Note_on_c, 0, 55, 70
1, 265551, Note_on_c, 0, 85, 66
1, 265551, Note_on_c, 0, 55, 0
1, 265551, Note_on_c, 0, 44, 0
1, 265554, Note_on_c, 0, 53, 78
1, 265554, Note_on_c, 0, 49, 67
1, 265554, Control_c, 0, 64, 0
1, 265627, Control_c, 0, 64, 127
1, 265632, Note_on_c, 0, 85, 0
1, 265632, Note_on_c, 0, 89, 57
1, 265713, Note_on_c, 0, 89, 0
1, 265713, Note_on_c, 0, 85, 66
1, 265794, Note_on_c, 0, 85, 0
1, 265794, Note_on_c, 0, 80, 57
1, 265875, Note_on_c, 0, 80, 0
1, 265875, Note_on_c, 0, 80, 66
1, 265875, Note_on_c, 0, 53, 0
1, 265878, Note_on_c, 0, 61, 86
1, 265950, Note_on_c, 0, 80, 0
1, 265950, Note_on_c, 0, 85, 57
1, 266025, Note_on_c, 0, 85, 0
1, 266025, Note_on_c, 0, 80, 66
1, 266100, Note_on_c, 0, 80, 0
1, 266100, Note_on_c, 0, 77, 57
1, 266175, Note_on_c, 0, 77, 0
1, 266175, Note_on_c, 0, 80, 66
1, 266324, Note_on_c, 0, 80, 0
1, 266324, Note_on_c, 0, 61, 0
1, 266324, Note_on_c, 0, 60, 80
1, 266474, Note_on_c, 0, 87, 70
1, 266474, Note_on_c, 0, 60, 0
1, 266474, Note_on_c, 0, 49, 0
1, 266477, Note_on_c, 0, 58, 82
1, 266477, Note_on_c, 0, 51, 71
1, 266477, Control_c, 0, 64, 0
1, 266553, Note_on_c, 0, 87, 0
1, 266553, Note_on_c, 0, 91, 61
1, 266558, Control_c, 0, 64, 127
1, 266632, Note_on_c, 0, 91, 0
1, 266632, Note_on_c, 0, 87, 70
1, 266711, Note_on_c, 0, 87, 0
1, 266711, Note_on_c, 0, 82, 61
1, 266790, Note_on_c, 0, 82, 0
1, 266790, Note_on_c, 0, 82, 70
1, 266790, Note_on_c, 0, 58, 0
1, 266793, Note_on_c, 0, 63, 88
1, 266865, Note_on_c, 0, 82, 0
1, 266865, Note_on_c, 0, 87, 61
1, 266939, Note_on_c, 0, 87, 0
1, 266939, Note_on_c, 0, 82, 70
1, 267014, Note_on_c, 0, 82, 0
1, 267014, Note_on_c, 0, 79, 61
1, 267089, Note_on_c, 0, 79, 0
1, 267089, Note_on_c, 0, 82, 70
1, 267239, Note_on_c, 0, 82, 0
1, 267239, Note_on_c, 0, 63, 0
1, 267239, Note_on_c, 0, 61, 81
1, 267389, Note_on_c, 0, 87, 80
1, 267389, Note_on_c, 0, 61, 0
1, 267389, Note_on_c, 0, 51, 0
1, 267392, Note_on_c, 0, 60, 82
1, 267392, Note_on_c, 0, 56, 70
1, 267392, Control_c, 0, 64, 0
1, 267468, Note_on_c, 0, 87, 0
1, 267468, Note_on_c, 0, 92, 69
1, 267468, Control_c, 0, 64, 127
1, 267547, Note_on_c, 0, 92, 0
1, 267547, Note_on_c, 0, 87, 80
1, 267626, Note_on_c, 0, 87, 0
1, 267626, Note_on_c, 0, 84, 69
1, 267705, Note_on_c, 0, 84, 0
1, 267705, Note_on_c, 0, 84, 80
1, 267705, Note_on_c, 0, 60, 0
1, 267708, Note_on_c, 0, 63, 89
1, 267780, Note_on_c, 0, 84, 0
1, 267780, Note_on_c, 0, 87, 69
1, 267855, Note_on_c, 0, 87, 0
1, 267855, Note_on_c, 0, 84, 80
1, 267930, Note_on_c, 0, 84, 0
1, 267930, Note_on_c, 0, 80, 69
1, 268005, Note_on_c, 0, 80, 0
1, 268005, Note_on_c, 0, 84, 80
1, 268154, Note_on_c, 0, 84, 0
1, 268154, Note_on_c, 0, 63, 0
1, 268154, Note_on_c, 0, 60, 79
1, 268304, Note_on_c, 0, 87, 86
1, 268304, Note_on_c, 0, 60, 0
1, 268304, Note_on_c, 0, 56, 0
1, 268307, Note_on_c, 0, 58, 88
1, 268307, Note_on_c, 0, 51, 76
1, 268307, Control_c, 0, 64, 0
1, 268386, Note_on_c, 0, 87, 0
1, 268386, Note_on_c, 0, 91, 74
1, 268391, Control_c, 0, 64, 127
1, 268468, Note_on_c, 0, 91, 0
1, 268468, Note_on_c, 0, 87, 86
1, 268551, Note_on_c, 0, 87, 0
1, 268551, Note_on_c, 0, 82, 74
1, 268633, Note_on_c, 0, 82, 0
1, 268633, Note_on_c, 0, 82, 86
1, 268633, Note_on_c, 0, 58, 0
1, 268636, Note_on_c, 0, 63, 96
1, 268708, Note_on_c, 0, 82, 0
1, 268708, Note_on_c, 0, 87, 74
1, 268783, Note_on_c, 0, 87, 0
1, 268783, Note_on_c, 0, 82, 86
1, 268857, Note_on_c, 0, 82, 0
1, 268857, Note_on_c, 0, 79, 74
1, 268932, Note_on_c, 0, 79, 0
1, 268932, Note_on_c, 0, 82, 86
1, 269082, Note_on_c, 0, 82, 0
1, 269082, Note_on_c, 0, 63, 0
1, 269082, Note_on_c, 0, 61, 89
1, 269232, Note_on_c, 0, 87, 90
1, 269232, Note_on_c, 0, 61, 0
1, 269232, Note_on_c, 0, 51, 0
1, 269235, Note_on_c, 0, 60, 90
1, 269235, Note_on_c, 0, 56, 77
1, 269235, Control_c, 0, 64, 0
1, 269313, Note_on_c, 0, 87, 0
1, 269313, Note_on_c, 0, 92, 77
1, 269327, Control_c, 0, 64, 127
1, 269393, Note_on_c, 0, 92, 0
1, 269393, Note_on_c, 0, 87, 90
1, 269474, Note_on_c, 0, 87, 0
1, 269474, Note_on_c, 0, 84, 77
1, 269554, Note_on_c, 0, 84, 0
1, 269554, Note_on_c, 0, 84, 90
1, 269554, Note_on_c, 0, 60, 0
1, 269557, Note_on_c, 0, 63, 97
1, 269629, Note_on_c, 0, 84, 0
1, 269629, Note_on_c, 0, 87, 77
1, 269704, Note_on_c, 0, 87, 0
1, 269704, Note_on_c, 0, 84, 90
1, 269779, Note_on_c, 0, 84, 0
1, 269779, Note_on_c, 0, 80, 77
1, 269853, Note_on_c, 0, 80, 0
1, 269853, Note_on_c, 0, 84, 90
1, 270003, Note_on_c, 0, 84, 0
1, 270003, Note_on_c, 0, 63, 0
1, 270003, Note_on_c, 0, 60, 88
1, 270153, Note_on_c, 0, 89, 89
1, 270153, Note_on_c, 0, 60, 0
1, 270153, Note_on_c, 0, 56, 0
1, 270156, Note_on_c, 0, 53, 71
1, 270156, Note_on_c, 0, 60, 84
1, 270156, Control_c, 0, 64, 0
1, 270237, Note_on_c, 0, 89, 0
1, 270237, Note_on_c, 0, 93, 77
1, 270249, Control_c, 0, 64, 127
1, 270321, Note_on_c, 0, 93, 0
1, 270321, Note_on_c, 0, 89, 89
1, 270406, Note_on_c, 0, 89, 0
1, 270406, Note_on_c, 0, 84, 77
1, 270490, Note_on_c, 0, 84, 0
1, 270490, Note_on_c, 0, 84, 89
1, 270490, Note_on_c, 0, 60, 0
1, 270493, Note_on_c, 0, 65, 89
1, 270566, Note_on_c, 0, 84, 0
1, 270566, Note_on_c, 0, 89, 77
1, 270641, Note_on_c, 0, 89, 0
1, 270641, Note_on_c, 0, 84, 89
1, 270715, Note_on_c, 0, 84, 0
1, 270715, Note_on_c, 0, 81, 77
1, 270790, Note_on_c, 0, 81, 0
1, 270790, Note_on_c, 0, 84, 89
1, 270940, Note_on_c, 0, 84, 0
1, 270940, Note_on_c, 0, 65, 0
1, 270940, Note_on_c, 0, 63, 81
1, 271090, Note_on_c, 0, 89, 90
1, 271090, Note_on_c, 0, 63, 0
1, 271090, Note_on_c, 0, 53, 0
1, 271093, Note_on_c, 0, 61, 86
1, 271093, Note_on_c, 0, 58, 68
1, 271093, Control_c, 0, 64, 0
1, 271165, Control_c, 0, 64, 127
1, 271170, Note_on_c, 0, 89, 0
1, 271170, Note_on_c, 0, 94, 78
1, 271250, Note_on_c, 0, 94, 0
1, 271250, Note_on_c, 0, 89, 90
1, 271331, Note_on_c, 0, 89, 0
1, 271331, Note_on_c, 0, 85, 78
1, 271411, Note_on_c, 0, 85, 0
1, 271411, Note_on_c, 0, 85, 90
1, 271411, Note_on_c, 0, 61, 0
1, 271414, Note_on_c, 0, 65, 90
1, 271486, Note_on_c, 0, 85, 0
1, 271486, Note_on_c, 0, 89, 78
1, 271561, Note_on_c, 0, 89, 0
1, 271561, Note_on_c, 0, 85, 90
1, 271636, Note_on_c, 0, 85, 0
1, 271636, Note_on_c, 0, 82, 78
1, 271711, Note_on_c, 0, 82, 0
1, 271711, Note_on_c, 0, 85, 90
1, 271860, Note_on_c, 0, 85, 0
1, 271860, Note_on_c, 0, 65, 0
1, 271860, Note_on_c, 0, 61, 81
1, 272011, Note_on_c, 0, 89, 90
1, 272011, Note_on_c, 0, 61, 0
1, 272011, Note_on_c, 0, 58, 0
1, 272014, Note_on_c, 0, 60, 86
1, 272014, Note_on_c, 0, 53, 68
1, 272014, Control_c, 0, 64, 0
1, 272085, Control_c, 0, 64, 127
1, 272093, Note_on_c, 0, 89, 0
1, 272093, Note_on_c, 0, 93, 78
1, 272175, Note_on_c, 0, 93, 0
1, 272175, Note_on_c, 0, 89, 90
1, 272257, Note_on_c, 0, 89, 0
1, 272257, Note_on_c, 0, 84, 78
1, 272340, Note_on_c, 0, 84, 0
1, 272340, Note_on_c, 0, 84, 90
1, 272340, Note_on_c, 0, 60, 0
1, 272343, Note_on_c, 0, 65, 90
1, 272415, Note_on_c, 0, 84, 0
1, 272415, Note_on_c, 0, 89, 78
1, 272490, Note_on_c, 0, 89, 0
1, 272490, Note_on_c, 0, 84, 90
1, 272564, Note_on_c, 0, 84, 0
1, 272564, Note_on_c, 0, 81, 78
1, 272639, Note_on_c, 0, 81, 0
1, 272639, Note_on_c, 0, 84, 90
1, 272789, Note_on_c, 0, 84, 0
1, 272789, Note_on_c, 0, 65, 0
1, 272789, Note_on_c, 0, 63, 81
1, 272939, Note_on_c, 0, 89, 90
1, 272939, Note_on_c, 0, 63, 0
1, 272939, Note_on_c, 0, 53, 0
1, 272942, Note_on_c, 0, 61, 86
1, 272942, Note_on_c, 0, 58, 68
1, 272942, Control_c, 0, 64, 0
1, 273018, Note_on_c, 0, 89, 0
1, 273018, Note_on_c, 0, 94, 78
1, 273023, Control_c, 0, 64, 127
1, 273098, Note_on_c, 0, 94, 0
1, 273098, Note_on_c, 0, 89, 90
1, 273177, Note_on_c, 0, 89, 0
1, 273177, Note_on_c, 0, 85, 78
1, 273256, Note_on_c, 0, 85, 0
1, 273256, Note_on_c, 0, 85, 90
1, 273256, Note_on_c, 0, 61, 0
1, 273259, Note_on_c, 0, 65, 89
1, 273331, Note_on_c, 0, 85, 0
1, 273331, Note_on_c, 0, 89, 78
1, 273406, Note_on_c, 0, 89, 0
1, 273406, Note_on_c, 0, 85, 90
1, 273481, Note_on_c, 0, 85, 0
1, 273481, Note_on_c, 0, 82, 78
1, 273556, Note_on_c, 0, 82, 0
1, 273556, Note_on_c, 0, 85, 90
1, 273706, Note_on_c, 0, 85, 0
1, 273706, Note_on_c, 0, 65, 0
1, 273706, Note_on_c, 0, 61, 81
1, 273855, Note_on_c, 0, 92, 90
1, 273855, Note_on_c, 0, 61, 0
1, 273855, Note_on_c, 0, 58, 0
1, 273858, Note_on_c, 0, 63, 86
1, 273858, Note_on_c, 0, 56, 68
1, 273858, Control_c, 0, 64, 0
1, 273945, Note_on_c, 0, 92, 0
1, 273945, Note_on_c, 0, 96, 78
1, 273956, Control_c, 0, 64, 127
1, 274035, Note_on_c, 0, 96, 0
1, 274035, Note_on_c, 0, 92, 90
1, 274125, Note_on_c, 0, 92, 0
1, 274125, Note_on_c, 0, 87, 78
1, 274215, Note_on_c, 0, 87, 0
1, 274215, Note_on_c, 0, 87, 90
1, 274215, Note_on_c, 0, 63, 0
1, 274218, Note_on_c, 0, 68, 90
1, 274290, Note_on_c, 0, 87, 0
1, 274290, Note_on_c, 0, 92, 78
1, 274365, Note_on_c, 0, 92, 0
1, 274365, Note_on_c, 0, 87, 90
1, 274439, Note_on_c, 0, 87, 0
1, 274439, Note_on_c, 0, 84, 78
1, 274514, Note_on_c, 0, 84, 0
1, 274514, Note_on_c, 0, 87, 90
1, 274664, Note_on_c, 0, 87, 0
1, 274664, Note_on_c, 0, 68, 0
1, 274664, Note_on_c, 0, 66, 83
1, 274814, Note_on_c, 0, 92, 90
1, 274814, Note_on_c, 0, 66, 0
1, 274814, Note_on_c, 0, 56, 0
1, 274817, Note_on_c, 0, 61, 75
1, 274817, Note_on_c, 0, 65, 88
1, 274817, Control_c, 0, 64, 0
1, 274894, Note_on_c, 0, 92, 0
1, 274894, Note_on_c, 0, 97, 78
1, 274903, Control_c, 0, 64, 127
1, 274973, Note_on_c, 0, 97, 0
1, 274973, Note_on_c, 0, 92, 90
1, 275052, Note_on_c, 0, 92, 0
1, 275052, Note_on_c, 0, 89, 78
1, 275132, Note_on_c, 0, 89, 0
1, 275132, Note_on_c, 0, 89, 91
1, 275132, Note_on_c, 0, 65, 0
1, 275135, Note_on_c, 0, 68, 91
1, 275207, Note_on_c, 0, 89, 0
1, 275207, Note_on_c, 0, 92, 79
1, 275282, Note_on_c, 0, 92, 0
1, 275282, Note_on_c, 0, 89, 92
1, 275357, Note_on_c, 0, 89, 0
1, 275357, Note_on_c, 0, 85, 79
1, 275432, Note_on_c, 0, 85, 0
1, 275432, Note_on_c, 0, 89, 93
1, 275581, Note_on_c, 0, 89, 0
1, 275581, Note_on_c, 0, 68, 0
1, 275581, Note_on_c, 0, 65, 82
1, 275731, Note_on_c, 0, 92, 94
1, 275731, Note_on_c, 0, 65, 0
1, 275731, Note_on_c, 0, 61, 0
1, 275734, Note_on_c, 0, 63, 86
1, 275734, Note_on_c, 0, 56, 74
1, 275734, Control_c, 0, 64, 0
1, 275812, Note_on_c, 0, 92, 0
1, 275812, Note_on_c, 0, 96, 81
1, 275816, Control_c, 0, 64, 127
1, 275892, Note_on_c, 0, 96, 0
1, 275892, Note_on_c, 0, 92, 95
1, 275973, Note_on_c, 0, 92, 0
1, 275973, Note_on_c, 0, 87, 82
1, 276053, Note_on_c, 0, 87, 0
1, 276053, Note_on_c, 0, 87, 96
1, 276053, Note_on_c, 0, 63, 0
1, 276056, Note_on_c, 0, 68, 92
1, 276128, Note_on_c, 0, 87, 0
1, 276128, Note_on_c, 0, 92, 83
1, 276203, Note_on_c, 0, 92, 0
1, 276203, Note_on_c, 0, 87, 97
1, 276278, Note_on_c, 0, 87, 0
1, 276278, Note_on_c, 0, 84, 83
1, 276353, Note_on_c, 0, 84, 0
1, 276353, Note_on_c, 0, 87, 97
1, 276513, Note_on_c, 0, 87, 0
1, 276513, Note_on_c, 0, 68, 0
1, 276513, Note_on_c, 0, 66, 81
1, 276672, Note_on_c, 0, 92, 98
1, 276672, Note_on_c, 0, 66, 0
1, 276672, Note_on_c, 0, 56, 0
1, 276675, Note_on_c, 0, 65, 90
1, 276675, Note_on_c, 0, 61, 77
1, 276675, Control_c, 0, 64, 0
1, 276718, Control_c, 0, 64, 127
1, 276744, Note_on_c, 0, 92, 0
1, 276744, Note_on_c, 0, 97, 84
1, 276816, Note_on_c, 0, 97, 0
1, 276816, Note_on_c, 0, 92, 98
1, 276889, Note_on_c, 0, 92, 0
1, 276889, Note_on_c, 0, 89, 84
1, 276961, Note_on_c, 0, 89, 0
1, 276961, Note_on_c, 0, 89, 98
1, 276961, Note_on_c, 0, 61, 0
1, 276964, Note_on_c, 0, 65, 0
1, 277034, Note_on_c, 0, 89, 0
1, 277034, Note_on_c, 0, 92, 84
1, 277106, Note_on_c, 0, 92, 0
1, 277106, Note_on_c, 0, 89, 98
1, 277179, Note_on_c, 0, 89, 0
1, 277179, Note_on_c, 0, 85, 84
1, 277252, Note_on_c, 0, 85, 0
1, 277252, Note_on_c, 0, 85, 98
1, 277325, Note_on_c, 0, 85, 0
1, 277325, Note_on_c, 0, 89, 84
1, 277398, Note_on_c, 0, 89, 0
1, 277398, Note_on_c, 0, 85, 98
1, 277471, Note_on_c, 0, 85, 0
1, 277471, Note_on_c, 0, 80, 84
1, 277545, Note_on_c, 0, 80, 0
1, 277545, Note_on_c, 0, 80, 98
1, 277618, Note_on_c, 0, 80, 0
1, 277618, Note_on_c, 0, 85, 84
1, 277692, Note_on_c, 0, 85, 0
1, 277692, Note_on_c, 0, 80, 98
1, 277765, Note_on_c, 0, 80, 0
1, 277765, Note_on_c, 0, 77, 84
1, 277839, Note_on_c, 0, 77, 0
1, 277839, Note_on_c, 0, 77, 98
1, 277913, Note_on_c, 0, 77, 0
1, 277913, Note_on_c, 0, 80, 84
1, 277987, Note_on_c, 0, 80, 0
1, 277987, Note_on_c, 0, 77, 98
1, 278061, Note_on_c, 0, 77, 0
1, 278061, Note_on_c, 0, 73, 84
1, 278135, Note_on_c, 0, 73, 0
1, 278135, Note_on_c, 0, 73, 98
1, 278209, Note_on_c, 0, 73, 0
1, 278209, Note_on_c, 0, 77, 84
1, 278283, Note_on_c, 0, 77, 0
1, 278283, Note_on_c, 0, 73, 98
1, 278358, Note_on_c, 0, 73, 0
1, 278358, Note_on_c, 0, 68, 84
1, 278432, Note_on_c, 0, 68, 0
1, 278432, Note_on_c, 0, 80, 98
1, 278432, Note_on_c, 0, 68, 98
1, 278438, Control_c, 0, 64, 0
1, 278504, Note_on_c, 0, 80, 0
1, 278504, Note_on_c, 0, 85, 84
1, 278504, Control_c, 0, 64, 127
1, 278577, Note_on_c, 0, 85, 0
1, 278577, Note_on_c, 0, 80, 98
1, 278577, Note_on_c, 0, 68, 0
1, 278649, Note_on_c, 0, 80, 0
1, 278649, Note_on_c, 0, 77, 84
1, 278722, Note_on_c, 0, 77, 0
1, 278722, Note_on_c, 0, 77, 98
1, 278722, Note_on_c, 0, 65, 94
1, 278795, Note_on_c, 0, 77, 0
1, 278795, Note_on_c, 0, 80, 84
1, 278868, Note_on_c, 0, 80, 0
1, 278868, Note_on_c, 0, 77, 98
1, 278868, Note_on_c, 0, 65, 0
1, 278941, Note_on_c, 0, 77, 0
1, 278941, Note_on_c, 0, 73, 84
1, 279013, Note_on_c, 0, 73, 0
1, 279013, Note_on_c, 0, 73, 98
1, 279013, Note_on_c, 0, 61, 94
1, 279087, Note_on_c, 0, 73, 0
1, 279087, Note_on_c, 0, 77, 84
1, 279160, Note_on_c, 0, 77, 0
1, 279160, Note_on_c, 0, 73, 98
1, 279160, Note_on_c, 0, 61, 0
1, 279233, Note_on_c, 0, 73, 0
1, 279233, Note_on_c, 0, 68, 84
1, 279306, Note_on_c, 0, 68, 0
1, 279306, Note_on_c, 0, 68, 98
1, 279306, Note_on_c, 0, 56, 98
1, 279380, Note_on_c, 0, 68, 0
1, 279380, Note_on_c, 0, 73, 84
1, 279453, Note_on_c, 0, 73, 0
1, 279453, Note_on_c, 0, 68, 98
1, 279453, Note_on_c, 0, 56, 0
1, 279527, Note_on_c, 0, 68, 0
1, 279527, Note_on_c, 0, 65, 84
1, 279601, Note_on_c, 0, 65, 0
1, 279601, Note_on_c, 0, 65, 98
1, 279601, Note_on_c, 0, 53, 94
1, 279675, Note_on_c, 0, 65, 0
1, 279675, Note_on_c, 0, 68, 84
1, 279748, Note_on_c, 0, 68, 0
1, 279748, Note_on_c, 0, 65, 98
1, 279748, Note_on_c, 0, 53, 0
1, 279822, Note_on_c, 0, 65, 0
1, 279822, Note_on_c, 0, 61, 84
1, 279897, Note_on_c, 0, 61, 0
1, 279897, Note_on_c, 0, 61, 98
1, 279897, Note_on_c, 0, 49, 94
1, 279971, Note_on_c, 0, 61, 0
1, 279971, Note_on_c, 0, 65, 84
1, 280045, Note_on_c, 0, 65, 0
1, 280045, Note_on_c, 0, 61, 98
1, 280045, Note_on_c, 0, 49, 0
1, 280119, Note_on_c, 0, 61, 0
1, 280119, Note_on_c, 0, 56, 84
1, 280194, Note_on_c, 0, 56, 0
1, 280194, Note_on_c, 0, 61, 100
1, 280194, Note_on_c, 0, 52, 80
1, 280197, Note_on_c, 0, 49, 69
1, 280197, Note_on_c, 0, 46, 69
1, 280197, Note_on_c, 0, 43, 69
1, 280197, Control_c, 0, 64, 0
1, 280268, Note_on_c, 0, 61, 0
1, 280268, Note_on_c, 0, 64, 79
1, 280286, Control_c, 0, 64, 127
1, 280343, Note_on_c, 0, 64, 0
1, 280343, Note_on_c, 0, 61, 92
1, 280418, Note_on_c, 0, 61, 0
1, 280418, Note_on_c, 0, 58, 79
1, 280492, Note_on_c, 0, 58, 0
1, 280492, Note_on_c, 0, 58, 92
1, 280567, Note_on_c, 0, 58, 0
1, 280567, Note_on_c, 0, 61, 79
1, 280641, Note_on_c, 0, 61, 0
1, 280641, Note_on_c, 0, 58, 92
1, 280716, Note_on_c, 0, 58, 0
1, 280716, Note_on_c, 0, 55, 79
1, 280791, Note_on_c, 0, 55, 0
1, 280791, Note_on_c, 0, 61, 101
1, 280791, Note_on_c, 0, 43, 0
1, 280794, Note_on_c, 0, 52, 0
1, 280794, Note_on_c, 0, 49, 0
1, 280794, Note_on_c, 0, 46, 0
1, 280797, Note_on_c, 0, 52, 80
1, 280797, Note_on_c, 0, 49, 69
1, 280797, Note_on_c, 0, 46, 69
1, 280800, Note_on_c, 0, 43, 69
1, 280800, Control_c, 0, 64, 0
1, 280865, Note_on_c, 0, 61, 0
1, 280865, Note_on_c, 0, 64, 79
1, 280868, Control_c, 0, 64, 127
1, 280940, Note_on_c, 0, 64, 0
1, 280940, Note_on_c, 0, 61, 92
1, 281015, Note_on_c, 0, 61, 0
1, 281015, Note_on_c, 0, 58, 79
1, 281089, Note_on_c, 0, 58, 0
1, 281089, Note_on_c, 0, 58, 92
1, 281164, Note_on_c, 0, 58, 0
1, 281164, Note_on_c, 0, 61, 79
1, 281239, Note_on_c, 0, 61, 0
1, 281239, Note_on_c, 0, 58, 92
1, 281313, Note_on_c, 0, 58, 0
1, 281313, Note_on_c, 0, 55, 79
1, 281388, Note_on_c, 0, 55, 0
1, 281388, Note_on_c, 0, 61, 100
1, 281388, Note_on_c, 0, 43, 0
1, 281391, Note_on_c, 0, 52, 0
1, 281391, Note_on_c, 0, 49, 0
1, 281391, Note_on_c, 0, 46, 0
1, 281394, Note_on_c, 0, 52, 80
1, 281394, Note_on_c, 0, 49, 69
1, 281394, Note_on_c, 0, 46, 69
1, 281397, Note_on_c, 0, 43, 69
1, 281397, Control_c, 0, 64, 0
1, 281459, Control_c, 0, 64, 127
1, 281462, Note_on_c, 0, 61, 0
1, 281462, Note_on_c, 0, 64, 79
1, 281537, Note_on_c, 0, 64, 0
1, 281537, Note_on_c, 0, 61, 92
1, 281612, Note_on_c, 0, 61, 0
1, 281612, Note_on_c, 0, 58, 79
1, 281686, Note_on_c, 0, 58, 0
1, 281686, Note_on_c, 0, 58, 92
1, 281761, Note_on_c, 0, 58, 0
1, 281761, Note_on_c, 0, 61, 79
1, 281836, Note_on_c, 0, 61, 0
1, 281836, Note_on_c, 0, 58, 92
1, 281910, Note_on_c, 0, 58, 0
1, 281910, Note_on_c, 0, 55, 79
1, 281985, Note_on_c, 0, 55, 0
1, 281985, Note_on_c, 0, 61, 91
1, 281985, Note_on_c, 0, 43, 0
1, 281988, Note_on_c, 0, 52, 0
1, 281988, Note_on_c, 0, 49, 0
1, 281988, Note_on_c, 0, 46, 0
1, 281991, Note_on_c, 0, 51, 75
1, 281991, Note_on_c, 0, 49, 65
1, 281991, Note_on_c, 0, 46, 65
1, 281994, Note_on_c, 0, 43, 65
1, 281997, Control_c, 0, 64, 0
1, 282059, Note_on_c, 0, 61, 0
1, 282059, Note_on_c, 0, 63, 78
1, 282081, Control_c, 0, 64, 127
1, 282134, Note_on_c, 0, 63, 0
1, 282134, Note_on_c, 0, 61, 91
1, 282209, Note_on_c, 0, 61, 0
1, 282209, Note_on_c, 0, 58, 77
1, 282284, Note_on_c, 0, 58, 0
1, 282284, Note_on_c, 0, 58, 90
1, 282359, Note_on_c, 0, 58, 0
1, 282359, Note_on_c, 0, 61, 76
1, 282435, Note_on_c, 0, 61, 0
1, 282435, Note_on_c, 0, 58, 89
1, 282510, Note_on_c, 0, 58, 0
1, 282510, Note_on_c, 0, 55, 76
1, 282586, Note_on_c, 0, 55, 0
1, 282586, Note_on_c, 0, 61, 94
1, 282586, Note_on_c, 0, 43, 0
1, 282589, Note_on_c, 0, 51, 0
1, 282589, Note_on_c, 0, 49, 0
1, 282589, Note_on_c, 0, 46, 0
1, 282592, Note_on_c, 0, 51, 61
1, 282592, Note_on_c, 0, 49, 53
1, 282592, Note_on_c, 0, 46, 53
1, 282595, Note_on_c, 0, 43, 53
1, 282595, Control_c, 0, 64, 0
1, 282657, Control_c, 0, 64, 127
1, 282662, Note_on_c, 0, 61, 0
1, 282662, Note_on_c, 0, 63, 75
1, 282738, Note_on_c, 0, 63, 0
1, 282738, Note_on_c, 0, 61, 86
1, 282814, Note_on_c, 0, 61, 0
1, 282814, Note_on_c, 0, 58, 72
1, 282890, Note_on_c, 0, 58, 0
1, 282890, Note_on_c, 0, 58, 86
1, 282967, Note_on_c, 0, 58, 0
1, 282967, Note_on_c, 0, 61, 73
1, 283043, Note_on_c, 0, 61, 0
1, 283043, Note_on_c, 0, 58, 83
1, 283120, Note_on_c, 0, 58, 0
1, 283120, Note_on_c, 0, 55, 69
1, 283197, Note_on_c, 0, 55, 0
1, 283197, Note_on_c, 0, 61, 86
1, 283197, Note_on_c, 0, 43, 0
1, 283200, Note_on_c, 0, 51, 0
1, 283200, Note_on_c, 0, 49, 0
1, 283200, Note_on_c, 0, 46, 0
1, 283203, Note_on_c, 0, 51, 55
1, 283203, Note_on_c, 0, 49, 48
1, 283203, Note_on_c, 0, 46, 48
1, 283206, Note_on_c, 0, 43, 48
1, 283206, Control_c, 0, 64, 0
1, 283274, Note_on_c, 0, 61, 0
1, 283274, Note_on_c, 0, 63, 67
1, 283310, Control_c, 0, 64, 127
1, 283351, Note_on_c, 0, 63, 0
1, 283351, Note_on_c, 0, 61, 76
1, 283429, Note_on_c, 0, 61, 0
1, 283429, Note_on_c, 0, 58, 65
1, 283507, Note_on_c, 0, 58, 0
1, 283507, Note_on_c, 0, 58, 73
1, 283601, Note_on_c, 0, 58, 0
1, 283601, Note_on_c, 0, 61, 62
1, 283695, Note_on_c, 0, 61, 0
1, 283695, Note_on_c, 0, 58, 70
1, 283788, Note_on_c, 0, 58, 0
1, 283788, Note_on_c, 0, 55, 59
1, 283882, Note_on_c, 0, 55, 0
1, 283882, Note_on_c, 0, 63, 60
1, 283882, Note_on_c, 0, 43, 0
1, 283885, Note_on_c, 0, 51, 0
1, 283885, Note_on_c, 0, 49, 0
1, 283885, Note_on_c, 0, 46, 0
1, 283888, Control_c, 0, 64, 0
1, 283888, Note_on_c, 0, 44, 50
1, 283953, Control_c, 0, 64, 127
1, 284028, Note_on_c, 0, 60, 50
1, 284165, Note_on_c, 0, 60, 0
1, 284165, Note_on_c, 0, 56, 50
1, 284294, Note_on_c, 0, 56, 0
1, 284294, Note_on_c, 0, 63, 0
1, 284294, Note_on_c, 0, 68, 60
1, 284304, Control_c, 0, 64, 0
1, 284356, Control_c, 0, 64, 127
1, 284402, Note_on_c, 0, 63, 50
1, 284509, Note_on_c, 0, 63, 0
1, 284509, Note_on_c, 0, 60, 50
1, 284616, Note_on_c, 0, 60, 0
1, 284616, Note_on_c, 0, 68, 0
1, 284616, Note_on_c, 0, 67, 60
1, 284619, Note_on_c, 0, 44, 0
1, 284619, Note_on_c, 0, 48, 50
1, 284627, Control_c, 0, 64, 0
1, 284691, Control_c, 0, 64, 127
1, 284723, Note_on_c, 0, 63, 50
1, 284830, Note_on_c, 0, 63, 0
1, 284830, Note_on_c, 0, 60, 50
1, 284937, Note_on_c, 0, 60, 0
1, 284937, Note_on_c, 0, 67, 0
1, 284937, Note_on_c, 0, 65, 60
1, 284940, Note_on_c, 0, 48, 0
1, 284940, Note_on_c, 0, 49, 50
1, 284945, Control_c, 0, 64, 0
1, 285009, Control_c, 0, 64, 127
1, 285055, Note_on_c, 0, 61, 50
1, 285173, Note_on_c, 0, 61, 0
1, 285173, Note_on_c, 0, 56, 50
1, 285291, Note_on_c, 0, 56, 0
1, 285291, Note_on_c, 0, 65, 0
1, 285291, Note_on_c, 0, 73, 60
1, 285294, Note_on_c, 0, 49, 0
1, 285294, Note_on_c, 0, 46, 50
1, 285299, Control_c, 0, 64, 0
1, 285371, Control_c, 0, 64, 127
1, 285398, Note_on_c, 0, 65, 50
1, 285505, Note_on_c, 0, 65, 0
1, 285505, Note_on_c, 0, 61, 50
1, 285612, Note_on_c, 0, 61, 0
1, 285612, Note_on_c, 0, 73, 0
1, 285612, Note_on_c, 0, 70, 60
1, 285615, Note_on_c, 0, 46, 0
1, 285615, Note_on_c, 0, 49, 50
1, 285623, Control_c, 0, 64, 0
1, 285690, Control_c, 0, 64, 127
1, 285730, Note_on_c, 0, 65, 50
1, 285848, Note_on_c, 0, 65, 0
1, 285848, Note_on_c, 0, 61, 50
1, 285966, Note_on_c, 0, 61, 0
1, 285966, Note_on_c, 0, 70, 0
1, 285966, Note_on_c, 0, 70, 60
1, 285969, Note_on_c, 0, 49, 0
1, 285969, Control_c, 0, 64, 0
1, 285969, Note_on_c, 0, 51, 50
1, 286033, Control_c, 0, 64, 127
1, 286074, Note_on_c, 0, 63, 50
1, 286181, Note_on_c, 0, 63, 0
1, 286181, Note_on_c, 0, 61, 50
1, 286289, Note_on_c, 0, 61, 0
1, 286289, Note_on_c, 0, 70, 0
1, 286289, Note_on_c, 0, 68, 60
1, 286297, Control_c, 0, 64, 0
1, 286360, Control_c, 0, 64, 127
1, 286396, Note_on_c, 0, 63, 50
1, 286503, Note_on_c, 0, 63, 0
1, 286503, Note_on_c, 0, 60, 50
1, 286611, Note_on_c, 0, 60, 0
1, 286611, Note_on_c, 0, 68, 0
1, 286611, Note_on_c, 0, 68, 60
1, 286619, Control_c, 0, 64, 0
1, 286677, Control_c, 0, 64, 127
1, 286718, Note_on_c, 0, 63, 50
1, 286825, Note_on_c, 0, 63, 0
1, 286825, Note_on_c, 0, 60, 50
1, 286932, Note_on_c, 0, 60, 0
1, 286932, Note_on_c, 0, 68, 0
1, 286932, Note_on_c, 0, 68, 60
1, 286935, Note_on_c, 0, 51, 0
1, 286935, Note_on_c, 0, 39, 50
1, 286935, Control_c, 0, 64, 0
1, 286990, Control_c, 0, 64, 127
1, 287033, Note_on_c, 0, 63, 50
1, 287137, Note_on_c, 0, 63, 0
1, 287137, Note_on_c, 0, 60, 50
1, 287243, Note_on_c, 0, 60, 0
1, 287243, Note_on_c, 0, 68, 0
1, 287243, Note_on_c, 0, 67, 60
1, 287252, Control_c, 0, 64, 0
1, 287309, Control_c, 0, 64, 127
1, 287351, Note_on_c, 0, 63, 50
1, 287462, Note_on_c, 0, 63, 0
1, 287462, Note_on_c, 0, 58, 50
1, 287576, Note_on_c, 0, 58, 0
1, 287576, Note_on_c, 0, 67, 0
1, 287576, Note_on_c, 0, 67, 60
1, 287585, Control_c, 0, 64, 0
1, 287662, Control_c, 0, 64, 127
1, 287706, Note_on_c, 0, 63, 50
1, 287836, Note_on_c, 0, 63, 0
1, 287836, Note_on_c, 0, 58, 50
1, 287966, Note_on_c, 0, 58, 0
1, 287966, Note_on_c, 0, 67, 0
1, 287966, Note_on_c, 0, 63, 60
1, 287969, Note_on_c, 0, 39, 0
1, 287969, Note_on_c, 0, 44, 50
1, 287974, Control_c, 0, 64, 0
1, 288018, Control_c, 0, 64, 127
1, 288073, Note_on_c, 0, 60, 50
1, 288180, Note_on_c, 0, 60, 0
1, 288180, Note_on_c, 0, 56, 50
1, 288287, Note_on_c, 0, 56, 0
1, 288287, Note_on_c, 0, 63, 0
1, 288287, Note_on_c, 0, 68, 60
1, 288297, Control_c, 0, 64, 0
1, 288372, Control_c, 0, 64, 127
1, 288394, Note_on_c, 0, 63, 50
1, 288501, Note_on_c, 0, 63, 0
1, 288501, Note_on_c, 0, 60, 50
1, 288608, Note_on_c, 0, 60, 0
1, 288608, Note_on_c, 0, 68, 0
1, 288608, Note_on_c, 0, 67, 60
1, 288611, Note_on_c, 0, 44, 0
1, 288611, Note_on_c, 0, 48, 50
1, 288617, Control_c, 0, 64, 0
1, 288688, Control_c, 0, 64, 127
1, 288715, Note_on_c, 0, 63, 50
1, 288822, Note_on_c, 0, 63, 0
1, 288822, Note_on_c, 0, 60, 50
1, 288929, Note_on_c, 0, 60, 0
1, 288929, Note_on_c, 0, 67, 0
1, 288929, Note_on_c, 0, 65, 60
1, 288932, Note_on_c, 0, 48, 0
1, 288932, Note_on_c, 0, 49, 50
1, 288932, Control_c, 0, 64, 0
1, 289006, Control_c, 0, 64, 127
1, 289053, Note_on_c, 0, 61, 50
1, 289179, Note_on_c, 0, 61, 0
1, 289179, Note_on_c, 0, 56, 50
1, 289304, Note_on_c, 0, 56, 0
1, 289304, Note_on_c, 0, 65, 0
1, 289304, Note_on_c, 0, 77, 60
1, 289307, Note_on_c, 0, 49, 0
1, 289307, Note_on_c, 0, 46, 50
1, 289313, Control_c, 0, 64, 0
1, 289394, Control_c, 0, 64, 127
1, 289411, Note_on_c, 0, 68, 50
1, 289518, Note_on_c, 0, 68, 0
1, 289518, Note_on_c, 0, 65, 50
1, 289625, Note_on_c, 0, 65, 0
1, 289625, Note_on_c, 0, 77, 0
1, 289625, Note_on_c, 0, 73, 60
1, 289628, Note_on_c, 0, 46, 0
1, 289628, Note_on_c, 0, 58, 50
1, 289628, Note_on_c, 0, 49, 50
1, 289632, Control_c, 0, 64, 0
1, 289687, Control_c, 0, 64, 127
1, 289732, Note_on_c, 0, 68, 50
1, 289839, Note_on_c, 0, 68, 0
1, 289839, Note_on_c, 0, 65, 50
1, 289946, Note_on_c, 0, 65, 0
1, 289946, Note_on_c, 0, 73, 0
1, 289946, Note_on_c, 0, 73, 60
1, 289949, Note_on_c, 0, 49, 0
1, 289949, Note_on_c, 0, 51, 50
1, 289955, Control_c, 0, 64, 0
1, 290007, Control_c, 0, 64, 127
1, 290053, Note_on_c, 0, 68, 50
1, 290161, Note_on_c, 0, 68, 0
1, 290161, Note_on_c, 0, 63, 50
1, 290270, Note_on_c, 0, 63, 0
1, 290270, Note_on_c, 0, 73, 0
1, 290270, Note_on_c, 0, 72, 60
1, 290273, Note_on_c, 0, 58, 0
1, 290273, Note_on_c, 0, 56, 50
1, 290273, Control_c, 0, 64, 0
1, 290323, Control_c, 0, 64, 127
1, 290380, Note_on_c, 0, 68, 50
1, 290490, Note_on_c, 0, 68, 0
1, 290490, Note_on_c, 0, 63, 50
1, 290602, Note_on_c, 0, 63, 0
1, 290602, Note_on_c, 0, 72, 0
1, 290602, Note_on_c, 0, 72, 60
1, 290605, Note_on_c, 0, 56, 0
1, 290605, Note_on_c, 0, 56, 50
1, 290609, Control_c, 0, 64, 0
1, 290652, Control_c, 0, 64, 127
1, 290717, Note_on_c, 0, 68, 50
1, 290832, Note_on_c, 0, 68, 0
1, 290832, Note_on_c, 0, 63, 50
1, 290947, Note_on_c, 0, 63, 0
1, 290947, Note_on_c, 0, 72, 0
1, 290947, Note_on_c, 0, 72, 60
1, 290950, Note_on_c, 0, 51, 0
1, 290950, Note_on_c, 0, 51, 50
1, 290955, Control_c, 0, 64, 0
1, 290999, Control_c, 0, 64, 127
1, 291055, Note_on_c, 0, 63, 50
1, 291165, Note_on_c, 0, 63, 0
1, 291165, Note_on_c, 0, 61, 50
1, 291276, Note_on_c, 0, 61, 0
1, 291276, Note_on_c, 0, 72, 0
1, 291276, Note_on_c, 0, 70, 60
1, 291279, Note_on_c, 0, 56, 0
1, 291279, Note_on_c, 0, 55, 50
1, 291286, Control_c, 0, 64, 0
1, 291356, Control_c, 0, 64, 127
1, 291390, Note_on_c, 0, 63, 50
1, 291505, Note_on_c, 0, 63, 0
1, 291505, Note_on_c, 0, 61, 50
1, 291623, Note_on_c, 0, 61, 0
1, 291623, Note_on_c, 0, 70, 0
1, 291623, Note_on_c, 0, 70, 60
1, 291626, Note_on_c, 0, 55, 0
1, 291626, Note_on_c, 0, 55, 50
1, 291632, Control_c, 0, 64, 0
1, 291692, Control_c, 0, 64, 127
1, 291743, Note_on_c, 0, 63, 50
1, 291888, Note_on_c, 0, 63, 0
1, 291888, Note_on_c, 0, 61, 50
1, 292054, Note_on_c, 0, 61, 0
1, 292054, Note_on_c, 0, 70, 0
1, 292054, Note_on_c, 0, 72, 58
1, 292057, Note_on_c, 0, 55, 0
1, 292057, Note_on_c, 0, 51, 0
1, 292057, Note_on_c, 0, 44, 58
1, 292060, Control_c, 0, 91, 125
1, 292060, Control_c, 0, 64, 0
1, 292060, Control_c, 0, 91, 126
1, 292129, Note_on_c, 0, 72, 0
1, 292129, Note_on_c, 0, 75, 50
1, 292133, Control_c, 0, 64, 127
1, 292204, Note_on_c, 0, 75, 0
1, 292204, Note_on_c, 0, 72, 58
1, 292279, Note_on_c, 0, 72, 0
1, 292279, Note_on_c, 0, 68, 50
1, 292279, Note_on_c, 0, 44, 0
1, 292353, Note_on_c, 0, 68, 0
1, 292353, Note_on_c, 0, 68, 58
1, 292353, Note_on_c, 0, 54, 46
1, 292356, Note_on_c, 0, 60, 49
1, 292356, Note_on_c, 0, 56, 46
1, 292428, Note_on_c, 0, 68, 0
1, 292428, Note_on_c, 0, 72, 50
1, 292503, Note_on_c, 0, 72, 0
1, 292503, Note_on_c, 0, 68, 58
1, 292578, Note_on_c, 0, 68, 0
1, 292578, Note_on_c, 0, 63, 50
1, 292653, Note_on_c, 0, 63, 0
1, 292653, Note_on_c, 0, 68, 58
1, 292804, Control_c, 0, 64, 0
1, 292813, Note_on_c, 0, 68, 0
1, 292974, Note_on_c, 0, 73, 58
1, 292974, Note_on_c, 0, 56, 0
1, 292974, Note_on_c, 0, 60, 0
1, 292977, Note_on_c, 0, 54, 0
1, 292977, Note_on_c, 0, 49, 58
1, 292986, Control_c, 0, 64, 127
1, 293049, Note_on_c, 0, 73, 0
1, 293049, Note_on_c, 0, 77, 50
1, 293124, Note_on_c, 0, 77, 0
1, 293124, Note_on_c, 0, 73, 58
1, 293199, Note_on_c, 0, 73, 0
1, 293199, Note_on_c, 0, 68, 50
1, 293199, Note_on_c, 0, 49, 0
1, 293273, Note_on_c, 0, 68, 0
1, 293273, Note_on_c, 0, 68, 58
1, 293273, Note_on_c, 0, 61, 45
1, 293276, Note_on_c, 0, 56, 42
1, 293276, Note_on_c, 0, 53, 42
1, 293348, Note_on_c, 0, 68, 0
1, 293348, Note_on_c, 0, 73, 50
1, 293423, Note_on_c, 0, 73, 0
1, 293423, Note_on_c, 0, 68, 58
1, 293498, Note_on_c, 0, 68, 0
1, 293498, Note_on_c, 0, 65, 50
1, 293573, Note_on_c, 0, 65, 0
1, 293573, Note_on_c, 0, 68, 58
1, 293709, Control_c, 0, 64, 0
1, 293733, Note_on_c, 0, 68, 0
1, 293894, Note_on_c, 0, 75, 58
1, 293894, Note_on_c, 0, 53, 0
1, 293894, Note_on_c, 0, 56, 0
1, 293897, Note_on_c, 0, 61, 0
1, 293897, Note_on_c, 0, 39, 58
1, 293916, Control_c, 0, 64, 127
1, 293968, Note_on_c, 0, 75, 0
1, 293968, Note_on_c, 0, 79, 50
1, 294043, Note_on_c, 0, 79, 0
1, 294043, Note_on_c, 0, 75, 58
1, 294118, Note_on_c, 0, 75, 0
1, 294118, Note_on_c, 0, 70, 50
1, 294118, Note_on_c, 0, 39, 0
1, 294193, Note_on_c, 0, 70, 0
1, 294193, Note_on_c, 0, 70, 58
1, 294193, Note_on_c, 0, 51, 44
1, 294196, Note_on_c, 0, 61, 47
1, 294196, Note_on_c, 0, 58, 44
1, 294268, Note_on_c, 0, 70, 0
1, 294268, Note_on_c, 0, 75, 50
1, 294343, Note_on_c, 0, 75, 0
1, 294343, Note_on_c, 0, 70, 58
1, 294418, Note_on_c, 0, 70, 0
1, 294418, Note_on_c, 0, 67, 50
1, 294493, Note_on_c, 0, 67, 0
1, 294493, Note_on_c, 0, 70, 58
1, 294577, Control_c, 0, 64, 0
1, 294653, Note_on_c, 0, 70, 0
1, 294814, Note_on_c, 0, 75, 58
1, 294814, Note_on_c, 0, 58, 0
1, 294814, Note_on_c, 0, 61, 0
1, 294817, Note_on_c, 0, 51, 0
1, 294817, Note_on_c, 0, 44, 58
1, 294824, Control_c, 0, 64, 127
1, 294889, Note_on_c, 0, 75, 0
1, 294889, Note_on_c, 0, 80, 50
1, 294964, Note_on_c, 0, 80, 0
1, 294964, Note_on_c, 0, 75, 58
1, 295040, Note_on_c, 0, 75, 0
1, 295040, Note_on_c, 0, 72, 50
1, 295040, Note_on_c, 0, 44, 0
1, 295115, Note_on_c, 0, 72, 0
1, 295115, Note_on_c, 0, 72, 58
1, 295115, Note_on_c, 0, 60, 49
1, 295118, Note_on_c, 0, 56, 46
1, 295118, Note_on_c, 0, 51, 46
1, 295190, Note_on_c, 0, 72, 0
1, 295190, Note_on_c, 0, 75, 50
1, 295265, Note_on_c, 0, 75, 0
1, 295265, Note_on_c, 0, 72, 58
1, 295340, Note_on_c, 0, 72, 0
1, 295340, Note_on_c, 0, 68, 50
1, 295415, Note_on_c, 0, 68, 0
1, 295415, Note_on_c, 0, 72, 58
1, 295547, Control_c, 0, 64, 0
1, 295588, Note_on_c, 0, 72, 0
1, 295761, Note_on_c, 0, 84, 70
1, 295761, Note_on_c, 0, 51, 0
1, 295761, Note_on_c, 0, 56, 0
1, 295764, Note_on_c, 0, 60, 0
1, 295764, Note_on_c, 0, 44, 70
1, 295774, Control_c, 0, 64, 127
1, 295837, Note_on_c, 0, 84, 0
1, 295837, Note_on_c, 0, 87, 61
1, 295912, Note_on_c, 0, 87, 0
1, 295912, Note_on_c, 0, 84, 70
1, 295987, Note_on_c, 0, 84, 0
1, 295987, Note_on_c, 0, 80, 61
1, 295987, Note_on_c, 0, 44, 0
1, 296062, Note_on_c, 0, 80, 0
1, 296062, Note_on_c, 0, 80, 70
1, 296062, Note_on_c, 0, 54, 55
1, 296065, Note_on_c, 0, 60, 59
1, 296065, Note_on_c, 0, 56, 55
1, 296137, Note_on_c, 0, 80, 0
1, 296137, Note_on_c, 0, 84, 61
1, 296212, Note_on_c, 0, 84, 0
1, 296212, Note_on_c, 0, 80, 70
1, 296288, Note_on_c, 0, 80, 0
1, 296288, Note_on_c, 0, 75, 61
1, 296363, Note_on_c, 0, 75, 0
1, 296363, Note_on_c, 0, 80, 70
1, 296462, Control_c, 0, 64, 0
1, 296523, Note_on_c, 0, 80, 0
1, 296684, Note_on_c, 0, 85, 82
1, 296684, Note_on_c, 0, 56, 0
1, 296684, Note_on_c, 0, 60, 0
1, 296687, Note_on_c, 0, 54, 0
1, 296687, Note_on_c, 0, 49, 82
1, 296711, Control_c, 0, 64, 127
1, 296759, Note_on_c, 0, 85, 0
1, 296759, Note_on_c, 0, 89, 71
1, 296834, Note_on_c, 0, 89, 0
1, 296834, Note_on_c, 0, 85, 82
1, 296910, Note_on_c, 0, 85, 0
1, 296910, Note_on_c, 0, 80, 71
1, 296910, Note_on_c, 0, 49, 0
1, 296985, Note_on_c, 0, 80, 0
1, 296985, Note_on_c, 0, 80, 82
1, 296985, Note_on_c, 0, 56, 67
1, 296988, Note_on_c, 0, 61, 72
1, 296988, Note_on_c, 0, 53, 67
1, 297060, Note_on_c, 0, 80, 0
1, 297060, Note_on_c, 0, 85, 71
1, 297136, Note_on_c, 0, 85, 0
1, 297136, Note_on_c, 0, 80, 82
1, 297211, Note_on_c, 0, 80, 0
1, 297211, Note_on_c, 0, 77, 71
1, 297287, Note_on_c, 0, 77, 0
1, 297287, Note_on_c, 0, 80, 82
1, 297400, Control_c, 0, 64, 0
1, 297447, Note_on_c, 0, 80, 0
1, 297608, Note_on_c, 0, 87, 94
1, 297608, Note_on_c, 0, 53, 0
1, 297608, Note_on_c, 0, 61, 0
1, 297611, Note_on_c, 0, 56, 0
1, 297611, Note_on_c, 0, 39, 94
1, 297635, Control_c, 0, 64, 127
1, 297683, Note_on_c, 0, 87, 0
1, 297683, Note_on_c, 0, 91, 81
1, 297758, Note_on_c, 0, 91, 0
1, 297758, Note_on_c, 0, 87, 94
1, 297833, Note_on_c, 0, 87, 0
1, 297833, Note_on_c, 0, 82, 81
1, 297833, Note_on_c, 0, 39, 0
1, 297908, Note_on_c, 0, 82, 0
1, 297908, Note_on_c, 0, 82, 94
1, 297908, Note_on_c, 0, 61, 83
1, 297911, Note_on_c, 0, 58, 78
1, 297911, Note_on_c, 0, 51, 78
1, 297983, Note_on_c, 0, 82, 0
1, 297983, Note_on_c, 0, 87, 81
1, 298058, Note_on_c, 0, 87, 0
1, 298058, Note_on_c, 0, 82, 94
1, 298133, Note_on_c, 0, 82, 0
1, 298133, Note_on_c, 0, 79, 81
1, 298209, Note_on_c, 0, 79, 0
1, 298209, Note_on_c, 0, 82, 94
1, 298308, Control_c, 0, 64, 0
1, 298369, Note_on_c, 0, 82, 0
1, 298530, Note_on_c, 0, 87, 103
1, 298530, Note_on_c, 0, 51, 0
1, 298530, Note_on_c, 0, 58, 0
1, 298533, Note_on_c, 0, 61, 0
1, 298533, Note_on_c, 0, 44, 98
1, 298559, Control_c, 0, 64, 127
1, 298604, Note_on_c, 0, 87, 0
1, 298604, Note_on_c, 0, 92, 89
1, 298679, Note_on_c, 0, 92, 0
1, 298679, Note_on_c, 0, 87, 103
1, 298754, Note_on_c, 0, 87, 0
1, 298754, Note_on_c, 0, 84, 89
1, 298754, Note_on_c, 0, 44, 0
1, 298829, Note_on_c, 0, 84, 0
1, 298829, Note_on_c, 0, 84, 103
1, 298829, Note_on_c, 0, 60, 86
1, 298832, Note_on_c, 0, 56, 80
1, 298832, Note_on_c, 0, 51, 80
1, 298904, Note_on_c, 0, 84, 0
1, 298904, Note_on_c, 0, 87, 89
1, 298979, Note_on_c, 0, 87, 0
1, 298979, Note_on_c, 0, 84, 103
1, 299054, Note_on_c, 0, 84, 0
1, 299054, Note_on_c, 0, 80, 89
1, 299129, Note_on_c, 0, 80, 0
1, 299129, Note_on_c, 0, 84, 103
1, 299262, Control_c, 0, 64, 0
1, 299303, Note_on_c, 0, 84, 0
1, 299476, Note_on_c, 0, 72, 58
1, 299476, Note_on_c, 0, 51, 0
1, 299476, Note_on_c, 0, 56, 0
1, 299479, Note_on_c, 0, 60, 0
1, 299479, Note_on_c, 0, 51, 70
1, 299479, Note_on_c, 0, 44, 58
1, 299495, Control_c, 0, 64, 127
1, 299557, Note_on_c, 0, 72, 0
1, 299557, Note_on_c, 0, 75, 50
1, 299637, Note_on_c, 0, 75, 0
1, 299637, Note_on_c, 0, 72, 58
1, 299717, Note_on_c, 0, 72, 0
1, 299717, Note_on_c, 0, 68, 50
1, 299797, Note_on_c, 0, 68, 0
1, 299797, Note_on_c, 0, 68, 58
1, 299797, Note_on_c, 0, 51, 0
1, 299800, Note_on_c, 0, 56, 82
1, 299872, Note_on_c, 0, 68, 0
1, 299872, Note_on_c, 0, 72, 50
1, 299947, Note_on_c, 0, 72, 0
1, 299947, Note_on_c, 0, 68, 58
1, 300022, Note_on_c, 0, 68, 0
1, 300022, Note_on_c, 0, 63, 50
1, 300096, Note_on_c, 0, 63, 0
1, 300096, Note_on_c, 0, 68, 58
1, 300246, Note_on_c, 0, 68, 0
1, 300246, Note_on_c, 0, 56, 0
1, 300246, Note_on_c, 0, 55, 70
1, 300396, Note_on_c, 0, 73, 58
1, 300396, Note_on_c, 0, 55, 0
1, 300396, Note_on_c, 0, 44, 0
1, 300399, Note_on_c, 0, 53, 70
1, 300399, Note_on_c, 0, 49, 58
1, 300399, Control_c, 0, 64, 0
1, 300476, Note_on_c, 0, 73, 0
1, 300476, Note_on_c, 0, 77, 50
1, 300499, Control_c, 0, 64, 127
1, 300556, Note_on_c, 0, 77, 0
1, 300556, Note_on_c, 0, 73, 58
1, 300636, Note_on_c, 0, 73, 0
1, 300636, Note_on_c, 0, 68, 50
1, 300716, Note_on_c, 0, 68, 0
1, 300716, Note_on_c, 0, 68, 58
1, 300716, Note_on_c, 0, 53, 0
1, 300719, Note_on_c, 0, 61, 82
1, 300791, Note_on_c, 0, 68, 0
1, 300791, Note_on_c, 0, 73, 50
1, 300865, Note_on_c, 0, 73, 0
1, 300865, Note_on_c, 0, 68, 58
1, 300940, Note_on_c, 0, 68, 0
1, 300940, Note_on_c, 0, 65, 50
1, 301015, Note_on_c, 0, 65, 0
1, 301015, Note_on_c, 0, 68, 58
1, 301165, Note_on_c, 0, 68, 0
1, 301165, Note_on_c, 0, 61, 0
1, 301165, Note_on_c, 0, 60, 70
1, 301315, Note_on_c, 0, 75, 58
1, 301315, Note_on_c, 0, 60, 0
1, 301315, Note_on_c, 0, 49, 0
1, 301318, Note_on_c, 0, 58, 70
1, 301318, Note_on_c, 0, 51, 58
1, 301318, Control_c, 0, 64, 0
1, 301395, Note_on_c, 0, 75, 0
1, 301395, Note_on_c, 0, 79, 50
1, 301404, Control_c, 0, 64, 127
1, 301475, Note_on_c, 0, 79, 0
1, 301475, Note_on_c, 0, 75, 58
1, 301556, Note_on_c, 0, 75, 0
1, 301556, Note_on_c, 0, 70, 50
1, 301636, Note_on_c, 0, 70, 0
1, 301636, Note_on_c, 0, 70, 58
1, 301636, Note_on_c, 0, 58, 0
1, 301639, Note_on_c, 0, 63, 82
1, 301711, Note_on_c, 0, 70, 0
1, 301711, Note_on_c, 0, 75, 50
1, 301786, Note_on_c, 0, 75, 0
1, 301786, Note_on_c, 0, 70, 58
1, 301861, Note_on_c, 0, 70, 0
1, 301861, Note_on_c, 0, 67, 50
1, 301936, Note_on_c, 0, 67, 0
1, 301936, Note_on_c, 0, 70, 58
1, 302085, Note_on_c, 0, 70, 0
1, 302085, Note_on_c, 0, 63, 0
1, 302085, Note_on_c, 0, 61, 70
1, 302235, Note_on_c, 0, 75, 58
1, 302235, Note_on_c, 0, 61, 0
1, 302235, Note_on_c, 0, 51, 0
1, 302238, Note_on_c, 0, 60, 70
1, 302238, Note_on_c, 0, 56, 58
1, 302238, Control_c, 0, 64, 0
1, 302315, Note_on_c, 0, 75, 0
1, 302315, Note_on_c, 0, 80, 50
1, 302325, Control_c, 0, 64, 127
1, 302396, Note_on_c, 0, 80, 0
1, 302396, Note_on_c, 0, 75, 58
1, 302476, Note_on_c, 0, 75, 0
1, 302476, Note_on_c, 0, 72, 50
1, 302556, Note_on_c, 0, 72, 0
1, 302556, Note_on_c, 0, 72, 58
1, 302556, Note_on_c, 0, 60, 0
1, 302559, Note_on_c, 0, 63, 82
1, 302631, Note_on_c, 0, 72, 0
1, 302631, Note_on_c, 0, 75, 50
1, 302706, Note_on_c, 0, 75, 0
1, 302706, Note_on_c, 0, 72, 58
1, 302781, Note_on_c, 0, 72, 0
1, 302781, Note_on_c, 0, 68, 50
1, 302856, Note_on_c, 0, 68, 0
1, 302856, Note_on_c, 0, 72, 58
1, 303006, Note_on_c, 0, 72, 0
1, 303010, Control_c, 0, 64, 0
1, 303155, Note_on_c, 0, 84, 78
1, 303155, Note_on_c, 0, 63, 0
1, 303155, Note_on_c, 0, 56, 0
1, 303158, Control_c, 0, 64, 127
1, 303158, Note_on_c, 0, 51, 90
1, 303158, Note_on_c, 0, 44, 78
1, 303246, Note_on_c, 0, 84, 0
1, 303246, Note_on_c, 0, 87, 67
1, 303337, Note_on_c, 0, 87, 0
1, 303337, Note_on_c, 0, 84, 78
1, 303427, Note_on_c, 0, 84, 0
1, 303427, Note_on_c, 0, 80, 67
1, 303517, Note_on_c, 0, 80, 0
1, 303517, Note_on_c, 0, 80, 78
1, 303517, Note_on_c, 0, 51, 0
1, 303520, Note_on_c, 0, 56, 89
1, 303591, Note_on_c, 0, 80, 0
1, 303591, Note_on_c, 0, 84, 67
1, 303666, Note_on_c, 0, 84, 0
1, 303666, Note_on_c, 0, 80, 78
1, 303741, Note_on_c, 0, 80, 0
1, 303741, Note_on_c, 0, 75, 67
1, 303815, Note_on_c, 0, 75, 0
1, 303815, Note_on_c, 0, 80, 78
1, 303964, Note_on_c, 0, 80, 0
1, 303964, Note_on_c, 0, 56, 0
1, 303964, Note_on_c, 0, 55, 78
1, 304114, Note_on_c, 0, 85, 78
1, 304114, Note_on_c, 0, 55, 0
1, 304114, Note_on_c, 0, 44, 0
1, 304117, Note_on_c, 0, 53, 85
1, 304117, Note_on_c, 0, 49, 73
1, 304117, Control_c, 0, 64, 0
1, 304185, Control_c, 0, 64, 127
1, 304195, Note_on_c, 0, 85, 0
1, 304195, Note_on_c, 0, 89, 67
1, 304277, Note_on_c, 0, 89, 0
1, 304277, Note_on_c, 0, 85, 78
1, 304358, Note_on_c, 0, 85, 0
1, 304358, Note_on_c, 0, 80, 67
1, 304440, Note_on_c, 0, 80, 0
1, 304440, Note_on_c, 0, 80, 78
1, 304440, Note_on_c, 0, 53, 0
1, 304443, Note_on_c, 0, 61, 89
1, 304515, Note_on_c, 0, 80, 0
1, 304515, Note_on_c, 0, 85, 67
1, 304590, Note_on_c, 0, 85, 0
1, 304590, Note_on_c, 0, 80, 78
1, 304665, Note_on_c, 0, 80, 0
1, 304665, Note_on_c, 0, 77, 67
1, 304740, Note_on_c, 0, 77, 0
1, 304740, Note_on_c, 0, 80, 78
1, 304889, Note_on_c, 0, 80, 0
1, 304889, Note_on_c, 0, 61, 0
1, 304889, Note_on_c, 0, 60, 78
1, 305039, Note_on_c, 0, 87, 78
1, 305039, Note_on_c, 0, 60, 0
1, 305039, Note_on_c, 0, 49, 0
1, 305042, Note_on_c, 0, 58, 88
1, 305042, Note_on_c, 0, 51, 76
1, 305042, Control_c, 0, 64, 0
1, 305118, Note_on_c, 0, 87, 0
1, 305118, Note_on_c, 0, 91, 67
1, 305173, Control_c, 0, 64, 127
1, 305196, Note_on_c, 0, 91, 0
1, 305196, Note_on_c, 0, 87, 78
1, 305275, Note_on_c, 0, 87, 0
1, 305275, Note_on_c, 0, 82, 67
1, 305354, Note_on_c, 0, 82, 0
1, 305354, Note_on_c, 0, 82, 78
1, 305354, Note_on_c, 0, 58, 0
1, 305357, Note_on_c, 0, 63, 95
1, 305429, Note_on_c, 0, 82, 0
1, 305429, Note_on_c, 0, 87, 67
1, 305504, Note_on_c, 0, 87, 0
1, 305504, Note_on_c, 0, 82, 78
1, 305579, Note_on_c, 0, 82, 0
1, 305579, Note_on_c, 0, 79, 67
1, 305654, Note_on_c, 0, 79, 0
1, 305654, Note_on_c, 0, 82, 78
1, 305803, Note_on_c, 0, 82, 0
1, 305803, Note_on_c, 0, 63, 0
1, 305803, Note_on_c, 0, 61, 78
1, 305953, Note_on_c, 0, 87, 92
1, 305953, Note_on_c, 0, 61, 0
1, 305953, Note_on_c, 0, 51, 0
1, 305956, Note_on_c, 0, 60, 87
1, 305956, Note_on_c, 0, 56, 75
1, 305956, Control_c, 0, 64, 0
1, 306030, Note_on_c, 0, 87, 0
1, 306030, Note_on_c, 0, 92, 79
1, 306035, Control_c, 0, 64, 127
1, 306107, Note_on_c, 0, 92, 0
1, 306107, Note_on_c, 0, 87, 92
1, 306185, Note_on_c, 0, 87, 0
1, 306185, Note_on_c, 0, 84, 79
1, 306262, Note_on_c, 0, 84, 0
1, 306262, Note_on_c, 0, 84, 92
1, 306262, Note_on_c, 0, 60, 0
1, 306265, Note_on_c, 0, 63, 95
1, 306336, Note_on_c, 0, 84, 0
1, 306336, Note_on_c, 0, 87, 79
1, 306411, Note_on_c, 0, 87, 0
1, 306411, Note_on_c, 0, 84, 92
1, 306486, Note_on_c, 0, 84, 0
1, 306486, Note_on_c, 0, 80, 79
1, 306561, Note_on_c, 0, 80, 0
1, 306561, Note_on_c, 0, 84, 92
1, 306711, Note_on_c, 0, 84, 0
1, 306711, Note_on_c, 0, 63, 0
1, 306711, Note_on_c, 0, 60, 87
1, 306861, Note_on_c, 0, 87, 96
1, 306861, Note_on_c, 0, 60, 0
1, 306861, Note_on_c, 0, 56, 0
1, 306864, Note_on_c, 0, 58, 92
1, 306864, Note_on_c, 0, 51, 72
1, 306864, Control_c, 0, 64, 0
1, 306937, Note_on_c, 0, 87, 0
1, 306937, Note_on_c, 0, 91, 82
1, 306969, Control_c, 0, 64, 127
1, 307014, Note_on_c, 0, 91, 0
1, 307014, Note_on_c, 0, 87, 96
1, 307091, Note_on_c, 0, 87, 0
1, 307091, Note_on_c, 0, 82, 82
1, 307167, Note_on_c, 0, 82, 0
1, 307167, Note_on_c, 0, 82, 96
1, 307167, Note_on_c, 0, 58, 0
1, 307170, Note_on_c, 0, 63, 100
1, 307242, Note_on_c, 0, 82, 0
1, 307242, Note_on_c, 0, 87, 82
1, 307317, Note_on_c, 0, 87, 0
1, 307317, Note_on_c, 0, 82, 96
1, 307392, Note_on_c, 0, 82, 0
1, 307392, Note_on_c, 0, 79, 82
1, 307467, Note_on_c, 0, 79, 0
1, 307467, Note_on_c, 0, 82, 96
1, 307617, Note_on_c, 0, 82, 0
1, 307617, Note_on_c, 0, 63, 0
1, 307617, Note_on_c, 0, 61, 92
1, 307766, Note_on_c, 0, 87, 102
1, 307766, Note_on_c, 0, 61, 0
1, 307766, Note_on_c, 0, 51, 0
1, 307769, Note_on_c, 0, 60, 100
1, 307769, Note_on_c, 0, 56, 79
1, 307769, Control_c, 0, 64, 0
1, 307820, Control_c, 0, 64, 127
1, 307843, Note_on_c, 0, 87, 0
1, 307843, Note_on_c, 0, 92, 87
1, 307920, Note_on_c, 0, 92, 0
1, 307920, Note_on_c, 0, 87, 102
1, 307997, Note_on_c, 0, 87, 0
1, 307997, Note_on_c, 0, 84, 87
1, 308074, Note_on_c, 0, 84, 0
1, 308074, Note_on_c, 0, 84, 102
1, 308074, Note_on_c, 0, 60, 0
1, 308077, Note_on_c, 0, 63, 104
1, 308149, Note_on_c, 0, 84, 0
1, 308149, Note_on_c, 0, 87, 87
1, 308224, Note_on_c, 0, 87, 0
1, 308224, Note_on_c, 0, 84, 102
1, 308298, Note_on_c, 0, 84, 0
1, 308298, Note_on_c, 0, 80, 87
1, 308373, Note_on_c, 0, 80, 0
1, 308373, Note_on_c, 0, 84, 102
1, 308523, Note_on_c, 0, 84, 0
1, 308523, Note_on_c, 0, 63, 0
1, 308523, Note_on_c, 0, 60, 100
1, 308673, Note_on_c, 0, 87, 108
1, 308673, Note_on_c, 0, 60, 0
1, 308673, Note_on_c, 0, 56, 0
1, 308676, Note_on_c, 0, 58, 104
1, 308676, Note_on_c, 0, 51, 89
1, 308676, Control_c, 0, 64, 0
1, 308750, Note_on_c, 0, 87, 0
1, 308750, Note_on_c, 0, 91, 93
1, 308768, Control_c, 0, 64, 127
1, 308827, Note_on_c, 0, 91, 0
1, 308827, Note_on_c, 0, 87, 108
1, 308904, Note_on_c, 0, 87, 0
1, 308904, Note_on_c, 0, 82, 93
1, 308981, Note_on_c, 0, 82, 0
1, 308981, Note_on_c, 0, 82, 108
1, 308981, Note_on_c, 0, 58, 0
1, 308984, Note_on_c, 0, 63, 106
1, 309056, Note_on_c, 0, 82, 0
1, 309056, Note_on_c, 0, 87, 93
1, 309131, Note_on_c, 0, 87, 0
1, 309131, Note_on_c, 0, 82, 108
1, 309206, Note_on_c, 0, 82, 0
1, 309206, Note_on_c, 0, 79, 93
1, 309281, Note_on_c, 0, 79, 0
1, 309281, Note_on_c, 0, 82, 108
1, 309431, Note_on_c, 0, 82, 0
1, 309431, Note_on_c, 0, 63, 0
1, 309431, Note_on_c, 0, 61, 101
1, 309580, Note_on_c, 0, 87, 108
1, 309580, Note_on_c, 0, 61, 0
1, 309580, Note_on_c, 0, 51, 0
1, 309583, Note_on_c, 0, 56, 93
1, 309583, Note_on_c, 0, 60, 108
1, 309583, Control_c, 0, 64, 0
1, 309653, Note_on_c, 0, 87, 0
1, 309653, Note_on_c, 0, 92, 93
1, 309657, Control_c, 0, 64, 127
1, 309725, Note_on_c, 0, 92, 0
1, 309725, Note_on_c, 0, 87, 108
1, 309797, Note_on_c, 0, 87, 0
1, 309797, Note_on_c, 0, 84, 93
1, 309870, Note_on_c, 0, 84, 0
1, 309870, Note_on_c, 0, 84, 108
1, 309870, Note_on_c, 0, 60, 0
1, 309873, Note_on_c, 0, 56, 0
1, 309942, Note_on_c, 0, 84, 0
1, 309942, Note_on_c, 0, 87, 93
1, 310015, Note_on_c, 0, 87, 0
1, 310015, Note_on_c, 0, 84, 108
1, 310088, Note_on_c, 0, 84, 0
1, 310088, Note_on_c, 0, 80, 93
1, 310160, Note_on_c, 0, 80, 0
1, 310160, Note_on_c, 0, 80, 108
1, 310233, Note_on_c, 0, 80, 0
1, 310233, Note_on_c, 0, 84, 93
1, 310306, Note_on_c, 0, 84, 0
1, 310306, Note_on_c, 0, 80, 108
1, 310379, Note_on_c, 0, 80, 0
1, 310379, Note_on_c, 0, 75, 93
1, 310452, Note_on_c, 0, 75, 0
1, 310452, Note_on_c, 0, 75, 108
1, 310525, Note_on_c, 0, 75, 0
1, 310525, Note_on_c, 0, 80, 93
1, 310599, Note_on_c, 0, 80, 0
1, 310599, Note_on_c, 0, 75, 108
1, 310672, Note_on_c, 0, 75, 0
1, 310672, Note_on_c, 0, 72, 93
1, 310745, Note_on_c, 0, 72, 0
1, 310745, Note_on_c, 0, 72, 108
1, 310819, Note_on_c, 0, 72, 0
1, 310819, Note_on_c, 0, 75, 93
1, 310893, Note_on_c, 0, 75, 0
1, 310893, Note_on_c, 0, 72, 108
1, 310966, Note_on_c, 0, 72, 0
1, 310966, Note_on_c, 0, 68, 93
1, 311040, Note_on_c, 0, 68, 0
1, 311040, Note_on_c, 0, 68, 108
1, 311114, Note_on_c, 0, 68, 0
1, 311114, Note_on_c, 0, 72, 93
1, 311188, Note_on_c, 0, 72, 0
1, 311188, Note_on_c, 0, 68, 108
1, 311262, Note_on_c, 0, 68, 0
1, 311262, Note_on_c, 0, 63, 93
1, 311336, Note_on_c, 0, 63, 0
1, 311336, Note_on_c, 0, 75, 108
1, 311336, Note_on_c, 0, 63, 108
1, 311336, Control_c, 0, 64, 0
1, 311409, Note_on_c, 0, 75, 0
1, 311409, Note_on_c, 0, 80, 93
1, 311414, Control_c, 0, 64, 127
1, 311483, Note_on_c, 0, 80, 0
1, 311483, Note_on_c, 0, 75, 107
1, 311483, Note_on_c, 0, 63, 0
1, 311556, Note_on_c, 0, 75, 0
1, 311556, Note_on_c, 0, 72, 92
1, 311630, Note_on_c, 0, 72, 0
1, 311630, Note_on_c, 0, 72, 106
1, 311630, Note_on_c, 0, 60, 106
1, 311703, Note_on_c, 0, 72, 0
1, 311703, Note_on_c, 0, 75, 90
1, 311777, Note_on_c, 0, 75, 0
1, 311777, Note_on_c, 0, 72, 104
1, 311777, Note_on_c, 0, 60, 0
1, 311851, Note_on_c, 0, 72, 0
1, 311851, Note_on_c, 0, 68, 89
1, 311926, Note_on_c, 0, 68, 0
1, 311926, Note_on_c, 0, 68, 103
1, 311926, Note_on_c, 0, 56, 103
1, 312000, Note_on_c, 0, 68, 0
1, 312000, Note_on_c, 0, 72, 88
1, 312075, Note_on_c, 0, 72, 0
1, 312075, Note_on_c, 0, 68, 102
1, 312075, Note_on_c, 0, 56, 0
1, 312149, Note_on_c, 0, 68, 0
1, 312149, Note_on_c, 0, 63, 86
1, 312224, Note_on_c, 0, 63, 0
1, 312224, Note_on_c, 0, 63, 100
1, 312224, Note_on_c, 0, 51, 101
1, 312299, Note_on_c, 0, 63, 0
1, 312299, Note_on_c, 0, 68, 86
1, 312374, Note_on_c, 0, 68, 0
1, 312374, Note_on_c, 0, 63, 99
1, 312374, Note_on_c, 0, 51, 0
1, 312450, Note_on_c, 0, 63, 0
1, 312450, Note_on_c, 0, 60, 84
1, 312525, Note_on_c, 0, 60, 0
1, 312525, Note_on_c, 0, 60, 97
1, 312525, Note_on_c, 0, 48, 98
1, 312601, Note_on_c, 0, 60, 0
1, 312601, Note_on_c, 0, 63, 83
1, 312676, Note_on_c, 0, 63, 0
1, 312676, Note_on_c, 0, 60, 96
1, 312676, Note_on_c, 0, 48, 0
1, 312752, Note_on_c, 0, 60, 0
1, 312752, Note_on_c, 0, 56, 82
1, 312828, Note_on_c, 0, 56, 0
1, 312828, Note_on_c, 0, 63, 95
1, 312828, Note_on_c, 0, 51, 95
1, 312904, Note_on_c, 0, 63, 0
1, 312904, Note_on_c, 0, 68, 80
1, 312979, Note_on_c, 0, 68, 0
1, 312979, Note_on_c, 0, 63, 93
1, 312979, Note_on_c, 0, 51, 0
1, 313055, Note_on_c, 0, 63, 0
1, 313055, Note_on_c, 0, 60, 79
1, 313131, Note_on_c, 0, 60, 0
1, 313131, Note_on_c, 0, 56, 91
1, 313131, Note_on_c, 0, 44, 92
1, 313131, Control_c, 0, 64, 0
1, 313267, Control_c, 0, 64, 127
1, 313436, Note_on_c, 0, 56, 0
1, 313436, Note_on_c, 0, 44, 0
1, 313505, Control_c, 0, 64, 0
1, 314045, Note_on_c, 0, 87, 122
1, 314045, Note_on_c, 0, 82, 112
1, 314045, Note_on_c, 0, 79, 112
1, 314048, Note_on_c, 0, 75, 112
1, 314048, Note_on_c, 0, 39, 101
1, 314048, Note_on_c, 0, 51, 101
1, 314129, Control_c, 0, 64, 127
1, 314350, Note_on_c, 0, 75, 0
1, 314350, Note_on_c, 0, 87, 0
1, 314350, Note_on_c, 0, 82, 0
1, 314353, Note_on_c, 0, 79, 0
1, 314353, Note_on_c, 0, 51, 0
1, 314353, Note_on_c, 0, 39, 0
1, 314368, Control_c, 0, 64, 0
1, 314959, Note_on_c, 0, 84, 118
1, 314959, Note_on_c, 0, 80, 108
1, 314959, Note_on_c, 0, 72, 108
1, 314962, Note_on_c, 0, 75, 108
1, 314962, Note_on_c, 0, 32, 98
1, 314962, Note_on_c, 0, 44, 98
1, 315010, Control_c, 0, 64, 127
1, 315264, Note_on_c, 0, 75, 0
1, 315264, Note_on_c, 0, 84, 0
1, 315264, Note_on_c, 0, 80, 0
1, 315267, Note_on_c, 0, 72, 0
1, 315267, Note_on_c, 0, 44, 0
1, 315267, Note_on_c, 0, 32, 0
1, 315270, Control_c, 0, 64, 0
1, 316768, End_track
0, 0, End_of_file
