0, 0, Header, 1, 2, 192
1, 0, Start_track
1, 0, Title_t, "The Erlking"
1, 0, Text_t, "/title:             The Erlking\012"
1, 0, Text_t, "/composer:          Schubert-Liszt\012"
1, 0, Text_t, "/artist:            Friedman, Ignace\012"
1, 0, Text_t, "/roll_type:         Duo-Art\012"
1, 0, Text_t, "/roll_manufacturer: Aeolian\012"
1, 0, Text_t, "/roll_number:       6407d\012"
1, 0, Text_t, "/roll_tempo:        90\012"
1, 0, Text_t, "/owner-donor:       Graham Lloyd\012"
1, 0, Text_t, "/rendered_by:       Richard Stibbons/Kevin Keymer\012"
1, 0, Text_t, "/scanned_by:        Terry Smythe\012"
1, 0, Text_t, "/scanner_type:      Mk4 Bi-Color\012"
1, 0, Time_signature, 4, 2, 24, 8
1, 0, Key_signature, 0, "major"
1, 0, Tempo, 500000
1, 0, Marker_t, "Standard MIDI:LPI 300:Tempo  90: 12-08-2006"
1, 0, End_track
2, 0, Start_track
2, 0, Title_t, "The Erlking"
2, 0, Program_c, 0, 0
2, 768, Control_c, 0, 64, 127
2, 971, Note_on_c, 0, 55, 39
2, 971, Note_on_c, 0, 67, 41
2, 997, Note_on_c, 0, 67, 0
2, 997, Note_on_c, 0, 55, 0
2, 1052, Note_on_c, 0, 67, 46
2, 1053, Note_on_c, 0, 55, 60
2, 1078, Note_on_c, 0, 67, 0
2, 1079, Note_on_c, 0, 55, 0
2, 1113, Note_on_c, 0, 67, 54
2, 1114, Note_on_c, 0, 55, 60
2, 1129, Note_on_c, 0, 67, 0
2, 1130, Note_on_c, 0, 55, 0
2, 1153, Note_on_c, 0, 55, 60
2, 1153, Note_on_c, 0, 67, 58
2, 1169, Note_on_c, 0, 67, 0
2, 1170, Note_on_c, 0, 55, 0
2, 1193, Note_on_c, 0, 67, 60
2, 1194, Note_on_c, 0, 55, 60
2, 1210, Note_on_c, 0, 67, 0
2, 1211, Note_on_c, 0, 55, 0
2, 1234, Note_on_c, 0, 67, 60
2, 1235, Note_on_c, 0, 55, 60
2, 1249, Note_on_c, 0, 67, 0
2, 1250, Note_on_c, 0, 55, 0
2, 1273, Note_on_c, 0, 67, 60
2, 1274, Note_on_c, 0, 55, 60
2, 1289, Note_on_c, 0, 67, 0
2, 1290, Note_on_c, 0, 55, 0
2, 1313, Note_on_c, 0, 55, 60
2, 1313, Note_on_c, 0, 67, 60
2, 1330, Note_on_c, 0, 67, 0
2, 1330, Note_on_c, 0, 55, 0
2, 1353, Note_on_c, 0, 67, 59
2, 1354, Note_on_c, 0, 55, 60
2, 1369, Note_on_c, 0, 67, 0
2, 1370, Note_on_c, 0, 55, 0
2, 1393, Note_on_c, 0, 67, 60
2, 1394, Note_on_c, 0, 55, 60
2, 1419, Note_on_c, 0, 55, 0
2, 1419, Note_on_c, 0, 67, 0
2, 1442, Note_on_c, 0, 67, 59
2, 1443, Note_on_c, 0, 55, 60
2, 1457, Note_on_c, 0, 67, 0
2, 1458, Note_on_c, 0, 55, 0
2, 1482, Note_on_c, 0, 55, 60
2, 1482, Note_on_c, 0, 67, 60
2, 1499, Note_on_c, 0, 67, 0
2, 1499, Note_on_c, 0, 55, 0
2, 1520, Note_on_c, 0, 67, 60
2, 1521, Note_on_c, 0, 55, 60
2, 1530, Note_on_c, 0, 31, 62
2, 1531, Note_on_c, 0, 43, 63
2, 1546, Note_on_c, 0, 55, 0
2, 1546, Note_on_c, 0, 67, 0
2, 1558, Note_on_c, 0, 31, 0
2, 1558, Note_on_c, 0, 43, 0
2, 1572, Note_on_c, 0, 67, 60
2, 1573, Note_on_c, 0, 55, 61
2, 1594, Note_on_c, 0, 45, 63
2, 1595, Note_on_c, 0, 33, 65
2, 1598, Note_on_c, 0, 55, 0
2, 1598, Note_on_c, 0, 67, 0
2, 1619, Note_on_c, 0, 45, 0
2, 1619, Note_on_c, 0, 33, 0
2, 1623, Note_on_c, 0, 67, 64
2, 1624, Note_on_c, 0, 46, 60
2, 1624, Note_on_c, 0, 55, 59
2, 1625, Note_on_c, 0, 34, 58
2, 1640, Note_on_c, 0, 67, 0
2, 1641, Note_on_c, 0, 55, 0
2, 1650, Note_on_c, 0, 46, 0
2, 1651, Note_on_c, 0, 34, 0
2, 1664, Note_on_c, 0, 67, 66
2, 1665, Note_on_c, 0, 55, 64
2, 1675, Note_on_c, 0, 48, 63
2, 1676, Note_on_c, 0, 36, 64
2, 1680, Note_on_c, 0, 67, 0
2, 1681, Note_on_c, 0, 55, 0
2, 1691, Control_c, 0, 64, 0
2, 1701, Note_on_c, 0, 48, 0
2, 1702, Note_on_c, 0, 36, 0
2, 1705, Note_on_c, 0, 55, 72
2, 1705, Note_on_c, 0, 67, 68
2, 1715, Note_on_c, 0, 50, 73
2, 1715, Note_on_c, 0, 38, 74
2, 1730, Note_on_c, 0, 67, 0
2, 1731, Note_on_c, 0, 55, 0
2, 1741, Note_on_c, 0, 38, 0
2, 1753, Note_on_c, 0, 67, 68
2, 1754, Note_on_c, 0, 55, 70
2, 1760, Note_on_c, 0, 50, 0
2, 1764, Note_on_c, 0, 39, 68
2, 1764, Note_on_c, 0, 51, 68
2, 1770, Note_on_c, 0, 67, 0
2, 1790, Note_on_c, 0, 51, 0
2, 1790, Note_on_c, 0, 39, 0
2, 1793, Note_on_c, 0, 67, 66
2, 1794, Note_on_c, 0, 50, 73
2, 1795, Note_on_c, 0, 38, 74
2, 1820, Note_on_c, 0, 50, 0
2, 1820, Note_on_c, 0, 55, 0
2, 1820, Note_on_c, 0, 67, 0
2, 1821, Note_on_c, 0, 38, 0
2, 1844, Note_on_c, 0, 55, 68
2, 1844, Note_on_c, 0, 67, 61
2, 1855, Control_c, 0, 64, 127
2, 1869, Note_on_c, 0, 67, 0
2, 1870, Note_on_c, 0, 55, 0
2, 1893, Note_on_c, 0, 55, 63
2, 1893, Note_on_c, 0, 67, 60
2, 1919, Note_on_c, 0, 67, 0
2, 1919, Note_on_c, 0, 55, 0
2, 1930, Control_c, 0, 64, 0
2, 1943, Note_on_c, 0, 55, 67
2, 1943, Note_on_c, 0, 67, 60
2, 1944, Note_on_c, 0, 34, 69
2, 1944, Note_on_c, 0, 46, 70
2, 1968, Note_on_c, 0, 67, 0
2, 1969, Note_on_c, 0, 55, 0
2, 1970, Note_on_c, 0, 46, 0
2, 1971, Note_on_c, 0, 34, 0
2, 1993, Note_on_c, 0, 67, 60
2, 1994, Note_on_c, 0, 55, 63
2, 2019, Note_on_c, 0, 55, 0
2, 2019, Note_on_c, 0, 67, 0
2, 2034, Control_c, 0, 64, 127
2, 2043, Note_on_c, 0, 55, 60
2, 2043, Note_on_c, 0, 67, 60
2, 2068, Note_on_c, 0, 67, 0
2, 2069, Note_on_c, 0, 55, 0
2, 2070, Control_c, 0, 64, 0
2, 2093, Note_on_c, 0, 55, 62
2, 2093, Note_on_c, 0, 67, 60
2, 2094, Note_on_c, 0, 31, 65
2, 2094, Note_on_c, 0, 43, 66
2, 2108, Note_on_c, 0, 67, 0
2, 2108, Note_on_c, 0, 55, 0
2, 2132, Note_on_c, 0, 67, 59
2, 2133, Note_on_c, 0, 55, 64
2, 2148, Note_on_c, 0, 55, 0
2, 2148, Note_on_c, 0, 67, 0
2, 2172, Note_on_c, 0, 55, 62
2, 2172, Note_on_c, 0, 67, 60
2, 2197, Note_on_c, 0, 67, 0
2, 2198, Note_on_c, 0, 55, 0
2, 2222, Note_on_c, 0, 55, 60
2, 2222, Note_on_c, 0, 67, 60
2, 2224, Control_c, 0, 64, 127
2, 2239, Note_on_c, 0, 67, 0
2, 2239, Note_on_c, 0, 55, 0
2, 2263, Note_on_c, 0, 67, 59
2, 2264, Note_on_c, 0, 55, 60
2, 2278, Note_on_c, 0, 67, 0
2, 2279, Note_on_c, 0, 55, 0
2, 2302, Note_on_c, 0, 67, 60
2, 2303, Note_on_c, 0, 55, 60
2, 2319, Note_on_c, 0, 55, 0
2, 2319, Note_on_c, 0, 67, 0
2, 2343, Note_on_c, 0, 67, 59
2, 2344, Note_on_c, 0, 55, 60
2, 2360, Note_on_c, 0, 67, 0
2, 2361, Note_on_c, 0, 55, 0
2, 2384, Note_on_c, 0, 67, 60
2, 2385, Note_on_c, 0, 55, 60
2, 2399, Note_on_c, 0, 67, 0
2, 2400, Note_on_c, 0, 55, 0
2, 2401, Note_on_c, 0, 31, 0
2, 2421, Note_on_c, 0, 43, 0
2, 2422, Note_on_c, 0, 67, 60
2, 2423, Note_on_c, 0, 55, 60
2, 2448, Note_on_c, 0, 67, 0
2, 2449, Note_on_c, 0, 55, 0
2, 2472, Note_on_c, 0, 67, 60
2, 2473, Note_on_c, 0, 55, 60
2, 2488, Note_on_c, 0, 67, 0
2, 2489, Note_on_c, 0, 55, 0
2, 2512, Note_on_c, 0, 67, 60
2, 2513, Note_on_c, 0, 55, 60
2, 2537, Note_on_c, 0, 67, 0
2, 2538, Note_on_c, 0, 55, 0
2, 2560, Note_on_c, 0, 67, 60
2, 2561, Note_on_c, 0, 55, 60
2, 2577, Note_on_c, 0, 55, 0
2, 2577, Note_on_c, 0, 67, 0
2, 2593, Note_on_c, 0, 31, 63
2, 2593, Note_on_c, 0, 43, 64
2, 2601, Note_on_c, 0, 62, 65
2, 2601, Note_on_c, 0, 67, 60
2, 2602, Note_on_c, 0, 55, 66
2, 2602, Note_on_c, 0, 58, 67
2, 2616, Note_on_c, 0, 67, 0
2, 2617, Note_on_c, 0, 62, 0
2, 2618, Note_on_c, 0, 55, 0
2, 2618, Note_on_c, 0, 43, 0
2, 2618, Note_on_c, 0, 58, 0
2, 2619, Note_on_c, 0, 31, 0
2, 2640, Note_on_c, 0, 67, 60
2, 2641, Note_on_c, 0, 62, 64
2, 2642, Note_on_c, 0, 45, 65
2, 2642, Note_on_c, 0, 55, 66
2, 2642, Note_on_c, 0, 58, 67
2, 2643, Note_on_c, 0, 33, 68
2, 2666, Note_on_c, 0, 67, 0
2, 2667, Note_on_c, 0, 58, 0
2, 2667, Note_on_c, 0, 62, 0
2, 2668, Note_on_c, 0, 55, 0
2, 2668, Note_on_c, 0, 45, 0
2, 2669, Note_on_c, 0, 33, 0
2, 2682, Note_on_c, 0, 46, 65
2, 2683, Note_on_c, 0, 34, 67
2, 2690, Note_on_c, 0, 62, 68
2, 2690, Note_on_c, 0, 67, 60
2, 2691, Note_on_c, 0, 55, 69
2, 2692, Note_on_c, 0, 58, 70
2, 2706, Note_on_c, 0, 67, 0
2, 2707, Note_on_c, 0, 55, 0
2, 2707, Note_on_c, 0, 62, 0
2, 2708, Note_on_c, 0, 46, 0
2, 2708, Note_on_c, 0, 58, 0
2, 2709, Note_on_c, 0, 34, 0
2, 2719, Control_c, 0, 64, 0
2, 2721, Note_on_c, 0, 48, 67
2, 2722, Note_on_c, 0, 36, 68
2, 2729, Note_on_c, 0, 67, 60
2, 2730, Note_on_c, 0, 55, 69
2, 2730, Note_on_c, 0, 62, 70
2, 2731, Note_on_c, 0, 58, 71
2, 2746, Note_on_c, 0, 67, 0
2, 2747, Note_on_c, 0, 48, 0
2, 2747, Note_on_c, 0, 55, 0
2, 2747, Note_on_c, 0, 62, 0
2, 2747, Note_on_c, 0, 58, 0
2, 2748, Note_on_c, 0, 36, 0
2, 2761, Note_on_c, 0, 50, 66
2, 2762, Note_on_c, 0, 38, 67
2, 2771, Note_on_c, 0, 55, 68
2, 2771, Note_on_c, 0, 62, 69
2, 2771, Note_on_c, 0, 67, 60
2, 2771, Note_on_c, 0, 58, 70
2, 2786, Note_on_c, 0, 50, 0
2, 2787, Note_on_c, 0, 67, 0
2, 2787, Note_on_c, 0, 62, 0
2, 2787, Note_on_c, 0, 55, 0
2, 2788, Note_on_c, 0, 38, 0
2, 2788, Note_on_c, 0, 58, 0
2, 2802, Note_on_c, 0, 51, 63
2, 2803, Note_on_c, 0, 39, 62
2, 2812, Note_on_c, 0, 55, 61
2, 2812, Note_on_c, 0, 62, 60
2, 2812, Note_on_c, 0, 67, 60
2, 2813, Note_on_c, 0, 58, 59
2, 2827, Note_on_c, 0, 67, 0
2, 2828, Note_on_c, 0, 51, 0
2, 2828, Note_on_c, 0, 55, 0
2, 2828, Note_on_c, 0, 62, 0
2, 2828, Note_on_c, 0, 58, 0
2, 2829, Note_on_c, 0, 39, 0
2, 2842, Note_on_c, 0, 50, 67
2, 2843, Note_on_c, 0, 38, 68
2, 2851, Note_on_c, 0, 55, 69
2, 2851, Note_on_c, 0, 62, 70
2, 2851, Note_on_c, 0, 67, 60
2, 2852, Note_on_c, 0, 58, 71
2, 2867, Note_on_c, 0, 38, 0
2, 2867, Note_on_c, 0, 50, 0
2, 2877, Note_on_c, 0, 67, 0
2, 2878, Note_on_c, 0, 62, 0
2, 2878, Note_on_c, 0, 58, 0
2, 2878, Note_on_c, 0, 55, 0
2, 2901, Note_on_c, 0, 67, 60
2, 2902, Note_on_c, 0, 55, 63
2, 2903, Control_c, 0, 64, 127
2, 2917, Note_on_c, 0, 55, 0
2, 2917, Note_on_c, 0, 67, 0
2, 2941, Note_on_c, 0, 67, 59
2, 2942, Note_on_c, 0, 55, 60
2, 2958, Note_on_c, 0, 55, 0
2, 2958, Note_on_c, 0, 67, 0
2, 2981, Note_on_c, 0, 67, 59
2, 2982, Note_on_c, 0, 55, 60
2, 2992, Note_on_c, 0, 46, 60
2, 2993, Note_on_c, 0, 34, 60
2, 3007, Note_on_c, 0, 67, 0
2, 3008, Note_on_c, 0, 55, 0
2, 3018, Note_on_c, 0, 46, 0
2, 3018, Note_on_c, 0, 34, 0
2, 3030, Note_on_c, 0, 67, 60
2, 3031, Note_on_c, 0, 55, 60
2, 3056, Note_on_c, 0, 55, 0
2, 3056, Note_on_c, 0, 67, 0
2, 3067, Control_c, 0, 64, 0
2, 3079, Note_on_c, 0, 55, 60
2, 3079, Note_on_c, 0, 67, 60
2, 3104, Note_on_c, 0, 67, 0
2, 3105, Note_on_c, 0, 55, 0
2, 3128, Note_on_c, 0, 67, 60
2, 3129, Note_on_c, 0, 43, 57
2, 3130, Note_on_c, 0, 31, 56
2, 3144, Note_on_c, 0, 67, 0
2, 3166, Note_on_c, 0, 67, 60
2, 3167, Note_on_c, 0, 55, 59
2, 3182, Note_on_c, 0, 67, 0
2, 3183, Note_on_c, 0, 55, 0
2, 3187, Control_c, 0, 64, 127
2, 3205, Note_on_c, 0, 67, 60
2, 3206, Note_on_c, 0, 55, 60
2, 3221, Note_on_c, 0, 67, 0
2, 3222, Note_on_c, 0, 55, 0
2, 3243, Note_on_c, 0, 31, 0
2, 3245, Note_on_c, 0, 67, 60
2, 3246, Note_on_c, 0, 55, 60
2, 3260, Note_on_c, 0, 67, 0
2, 3261, Note_on_c, 0, 55, 0
2, 3283, Note_on_c, 0, 67, 60
2, 3284, Note_on_c, 0, 55, 60
2, 3299, Note_on_c, 0, 67, 0
2, 3300, Note_on_c, 0, 55, 0
2, 3323, Note_on_c, 0, 67, 60
2, 3323, Note_on_c, 0, 55, 60
2, 3341, Note_on_c, 0, 43, 0
2, 3347, Note_on_c, 0, 67, 0
2, 3348, Note_on_c, 0, 55, 0
2, 3371, Note_on_c, 0, 67, 60
2, 3372, Note_on_c, 0, 55, 60
2, 3397, Note_on_c, 0, 67, 0
2, 3398, Note_on_c, 0, 55, 0
2, 3422, Note_on_c, 0, 55, 60
2, 3422, Note_on_c, 0, 67, 60
2, 3448, Note_on_c, 0, 67, 0
2, 3449, Note_on_c, 0, 55, 0
2, 3471, Note_on_c, 0, 67, 60
2, 3472, Note_on_c, 0, 55, 60
2, 3497, Note_on_c, 0, 67, 0
2, 3498, Note_on_c, 0, 55, 0
2, 3523, Note_on_c, 0, 67, 60
2, 3524, Note_on_c, 0, 55, 60
2, 3539, Note_on_c, 0, 55, 0
2, 3539, Note_on_c, 0, 67, 0
2, 3563, Note_on_c, 0, 67, 60
2, 3563, Note_on_c, 0, 55, 60
2, 3578, Note_on_c, 0, 55, 0
2, 3578, Note_on_c, 0, 67, 0
2, 3601, Note_on_c, 0, 67, 59
2, 3602, Note_on_c, 0, 55, 60
2, 3616, Note_on_c, 0, 67, 0
2, 3617, Note_on_c, 0, 55, 0
2, 3619, Control_c, 0, 64, 0
2, 3638, Note_on_c, 0, 57, 62
2, 3638, Note_on_c, 0, 67, 64
2, 3639, Note_on_c, 0, 48, 64
2, 3640, Note_on_c, 0, 69, 66
2, 3641, Note_on_c, 0, 36, 65
2, 3655, Note_on_c, 0, 67, 0
2, 3655, Note_on_c, 0, 57, 0
2, 3656, Note_on_c, 0, 69, 0
2, 3678, Note_on_c, 0, 67, 63
2, 3679, Note_on_c, 0, 57, 63
2, 3680, Note_on_c, 0, 69, 63
2, 3694, Note_on_c, 0, 57, 0
2, 3694, Note_on_c, 0, 67, 0
2, 3695, Note_on_c, 0, 69, 0
2, 3700, Control_c, 0, 64, 127
2, 3719, Note_on_c, 0, 67, 60
2, 3720, Note_on_c, 0, 57, 60
2, 3721, Note_on_c, 0, 69, 61
2, 3745, Note_on_c, 0, 57, 0
2, 3745, Note_on_c, 0, 67, 0
2, 3746, Note_on_c, 0, 69, 0
2, 3768, Note_on_c, 0, 57, 60
2, 3768, Note_on_c, 0, 67, 60
2, 3769, Note_on_c, 0, 69, 60
2, 3793, Note_on_c, 0, 67, 0
2, 3793, Note_on_c, 0, 57, 0
2, 3794, Note_on_c, 0, 69, 0
2, 3816, Note_on_c, 0, 57, 61
2, 3816, Note_on_c, 0, 67, 64
2, 3817, Note_on_c, 0, 69, 66
2, 3831, Note_on_c, 0, 67, 0
2, 3832, Note_on_c, 0, 57, 0
2, 3833, Note_on_c, 0, 69, 0
2, 3855, Note_on_c, 0, 67, 68
2, 3856, Note_on_c, 0, 57, 66
2, 3857, Note_on_c, 0, 69, 70
2, 3871, Note_on_c, 0, 67, 0
2, 3872, Note_on_c, 0, 57, 0
2, 3873, Note_on_c, 0, 69, 0
2, 3895, Note_on_c, 0, 57, 68
2, 3895, Note_on_c, 0, 67, 72
2, 3896, Note_on_c, 0, 69, 72
2, 3910, Note_on_c, 0, 57, 0
2, 3911, Note_on_c, 0, 67, 0
2, 3912, Note_on_c, 0, 69, 0
2, 3934, Note_on_c, 0, 57, 74
2, 3934, Note_on_c, 0, 67, 77
2, 3935, Note_on_c, 0, 69, 79
2, 3949, Note_on_c, 0, 57, 0
2, 3950, Note_on_c, 0, 67, 0
2, 3951, Note_on_c, 0, 69, 0
2, 3952, Control_c, 0, 64, 0
2, 3973, Note_on_c, 0, 67, 81
2, 3974, Note_on_c, 0, 57, 80
2, 3975, Note_on_c, 0, 69, 84
2, 3998, Note_on_c, 0, 57, 0
2, 3998, Note_on_c, 0, 67, 0
2, 3999, Note_on_c, 0, 69, 0
2, 4009, Note_on_c, 0, 48, 0
2, 4010, Note_on_c, 0, 36, 0
2, 4022, Note_on_c, 0, 67, 87
2, 4023, Note_on_c, 0, 37, 88
2, 4023, Note_on_c, 0, 49, 89
2, 4024, Note_on_c, 0, 69, 90
2, 4039, Note_on_c, 0, 67, 0
2, 4040, Note_on_c, 0, 69, 0
2, 4063, Note_on_c, 0, 57, 91
2, 4063, Note_on_c, 0, 67, 96
2, 4064, Note_on_c, 0, 69, 98
2, 4065, Control_c, 0, 64, 127
2, 4078, Note_on_c, 0, 57, 0
2, 4079, Note_on_c, 0, 67, 0
2, 4080, Note_on_c, 0, 69, 0
2, 4103, Note_on_c, 0, 57, 95
2, 4103, Note_on_c, 0, 67, 100
2, 4104, Note_on_c, 0, 69, 102
2, 4109, Note_on_c, 0, 49, 0
2, 4110, Control_c, 0, 64, 0
2, 4119, Note_on_c, 0, 37, 0
2, 4127, Note_on_c, 0, 67, 0
2, 4128, Note_on_c, 0, 57, 0
2, 4129, Note_on_c, 0, 69, 0
2, 4152, Note_on_c, 0, 50, 102
2, 4152, Note_on_c, 0, 67, 104
2, 4152, Note_on_c, 0, 70, 106
2, 4153, Note_on_c, 0, 38, 104
2, 4153, Note_on_c, 0, 58, 105
2, 4178, Note_on_c, 0, 67, 0
2, 4179, Note_on_c, 0, 58, 0
2, 4201, Note_on_c, 0, 67, 102
2, 4202, Note_on_c, 0, 58, 101
2, 4227, Note_on_c, 0, 58, 0
2, 4227, Note_on_c, 0, 67, 0
2, 4233, Control_c, 0, 64, 127
2, 4236, Note_on_c, 0, 70, 0
2, 4251, Note_on_c, 0, 67, 97
2, 4252, Note_on_c, 0, 58, 96
2, 4276, Note_on_c, 0, 67, 0
2, 4277, Note_on_c, 0, 58, 0
2, 4299, Note_on_c, 0, 67, 94
2, 4300, Note_on_c, 0, 58, 91
2, 4314, Note_on_c, 0, 67, 0
2, 4315, Note_on_c, 0, 58, 0
2, 4337, Control_c, 0, 64, 0
2, 4338, Note_on_c, 0, 67, 89
2, 4339, Note_on_c, 0, 58, 86
2, 4354, Note_on_c, 0, 67, 0
2, 4355, Note_on_c, 0, 58, 0
2, 4377, Note_on_c, 0, 67, 86
2, 4377, Note_on_c, 0, 70, 85
2, 4378, Note_on_c, 0, 58, 82
2, 4403, Note_on_c, 0, 70, 0
2, 4403, Note_on_c, 0, 67, 0
2, 4404, Note_on_c, 0, 58, 0
2, 4427, Note_on_c, 0, 57, 78
2, 4427, Note_on_c, 0, 66, 77
2, 4427, Note_on_c, 0, 69, 77
2, 4451, Note_on_c, 0, 66, 0
2, 4451, Note_on_c, 0, 57, 0
2, 4452, Note_on_c, 0, 69, 0
2, 4475, Note_on_c, 0, 57, 74
2, 4475, Note_on_c, 0, 66, 71
2, 4476, Note_on_c, 0, 69, 71
2, 4496, Control_c, 0, 64, 127
2, 4499, Note_on_c, 0, 66, 0
2, 4499, Note_on_c, 0, 57, 0
2, 4500, Note_on_c, 0, 69, 0
2, 4523, Note_on_c, 0, 57, 70
2, 4523, Note_on_c, 0, 66, 68
2, 4523, Note_on_c, 0, 69, 68
2, 4547, Note_on_c, 0, 66, 0
2, 4547, Note_on_c, 0, 57, 0
2, 4549, Note_on_c, 0, 69, 0
2, 4574, Note_on_c, 0, 57, 68
2, 4574, Note_on_c, 0, 66, 68
2, 4576, Note_on_c, 0, 69, 68
2, 4591, Note_on_c, 0, 66, 0
2, 4591, Note_on_c, 0, 57, 0
2, 4592, Note_on_c, 0, 69, 0
2, 4615, Note_on_c, 0, 57, 68
2, 4615, Note_on_c, 0, 66, 68
2, 4616, Note_on_c, 0, 69, 68
2, 4630, Note_on_c, 0, 66, 0
2, 4630, Note_on_c, 0, 57, 0
2, 4631, Note_on_c, 0, 69, 0
2, 4654, Note_on_c, 0, 57, 67
2, 4654, Note_on_c, 0, 66, 66
2, 4655, Note_on_c, 0, 69, 66
2, 4662, Control_c, 0, 64, 0
2, 4668, Note_on_c, 0, 66, 0
2, 4669, Note_on_c, 0, 57, 0
2, 4670, Note_on_c, 0, 69, 0
2, 4693, Note_on_c, 0, 67, 61
2, 4694, Note_on_c, 0, 55, 63
2, 4695, Note_on_c, 0, 43, 62
2, 4718, Note_on_c, 0, 67, 0
2, 4718, Note_on_c, 0, 50, 0
2, 4719, Note_on_c, 0, 55, 0
2, 4720, Note_on_c, 0, 38, 0
2, 4742, Note_on_c, 0, 67, 60
2, 4743, Note_on_c, 0, 55, 60
2, 4768, Note_on_c, 0, 67, 0
2, 4770, Note_on_c, 0, 55, 0
2, 4776, Control_c, 0, 64, 127
2, 4793, Note_on_c, 0, 67, 60
2, 4794, Note_on_c, 0, 55, 60
2, 4819, Note_on_c, 0, 67, 0
2, 4820, Note_on_c, 0, 55, 0
2, 4843, Note_on_c, 0, 67, 60
2, 4844, Note_on_c, 0, 55, 60
2, 4869, Note_on_c, 0, 67, 0
2, 4870, Note_on_c, 0, 55, 0
2, 4892, Note_on_c, 0, 67, 60
2, 4893, Note_on_c, 0, 55, 60
2, 4908, Note_on_c, 0, 67, 0
2, 4909, Note_on_c, 0, 55, 0
2, 4931, Note_on_c, 0, 67, 60
2, 4932, Note_on_c, 0, 55, 60
2, 4948, Note_on_c, 0, 67, 0
2, 4949, Note_on_c, 0, 55, 0
2, 4971, Note_on_c, 0, 67, 60
2, 4972, Note_on_c, 0, 55, 61
2, 4987, Note_on_c, 0, 67, 0
2, 4988, Note_on_c, 0, 55, 0
2, 4988, Note_on_c, 0, 43, 0
2, 5010, Note_on_c, 0, 67, 62
2, 5011, Note_on_c, 0, 55, 64
2, 5027, Note_on_c, 0, 55, 0
2, 5027, Note_on_c, 0, 67, 0
2, 5050, Note_on_c, 0, 67, 64
2, 5051, Note_on_c, 0, 55, 67
2, 5065, Note_on_c, 0, 67, 0
2, 5066, Note_on_c, 0, 55, 0
2, 5088, Note_on_c, 0, 67, 68
2, 5089, Note_on_c, 0, 55, 68
2, 5104, Note_on_c, 0, 67, 0
2, 5105, Note_on_c, 0, 55, 0
2, 5128, Note_on_c, 0, 67, 68
2, 5129, Note_on_c, 0, 55, 68
2, 5154, Note_on_c, 0, 55, 0
2, 5154, Note_on_c, 0, 67, 0
2, 5197, Note_on_c, 0, 67, 67
2, 5198, Note_on_c, 0, 55, 72
2, 5198, Note_on_c, 0, 62, 73
2, 5199, Note_on_c, 0, 43, 74
2, 5199, Note_on_c, 0, 58, 75
2, 5200, Note_on_c, 0, 31, 76
2, 5215, Note_on_c, 0, 62, 0
2, 5215, Note_on_c, 0, 67, 0
2, 5215, Note_on_c, 0, 55, 0
2, 5216, Note_on_c, 0, 58, 0
2, 5226, Note_on_c, 0, 31, 0
2, 5226, Note_on_c, 0, 43, 0
2, 5240, Note_on_c, 0, 55, 73
2, 5240, Note_on_c, 0, 62, 74
2, 5240, Note_on_c, 0, 67, 65
2, 5241, Note_on_c, 0, 58, 75
2, 5250, Note_on_c, 0, 45, 76
2, 5251, Note_on_c, 0, 33, 76
2, 5266, Note_on_c, 0, 67, 0
2, 5266, Note_on_c, 0, 55, 0
2, 5266, Note_on_c, 0, 62, 0
2, 5267, Note_on_c, 0, 58, 0
2, 5276, Note_on_c, 0, 45, 0
2, 5277, Note_on_c, 0, 33, 0
2, 5291, Note_on_c, 0, 55, 76
2, 5291, Note_on_c, 0, 62, 77
2, 5291, Note_on_c, 0, 67, 68
2, 5291, Note_on_c, 0, 39, 78
2, 5291, Note_on_c, 0, 46, 79
2, 5291, Note_on_c, 0, 58, 80
2, 5292, Note_on_c, 0, 34, 81
2, 5307, Note_on_c, 0, 67, 0
2, 5307, Note_on_c, 0, 55, 0
2, 5307, Note_on_c, 0, 62, 0
2, 5308, Note_on_c, 0, 58, 0
2, 5317, Note_on_c, 0, 39, 0
2, 5317, Note_on_c, 0, 46, 0
2, 5318, Note_on_c, 0, 34, 0
2, 5331, Note_on_c, 0, 48, 72
2, 5331, Note_on_c, 0, 55, 71
2, 5331, Note_on_c, 0, 62, 70
2, 5331, Note_on_c, 0, 67, 68
2, 5332, Note_on_c, 0, 36, 69
2, 5332, Note_on_c, 0, 58, 68
2, 5346, Note_on_c, 0, 67, 0
2, 5347, Note_on_c, 0, 55, 0
2, 5347, Note_on_c, 0, 62, 0
2, 5347, Note_on_c, 0, 58, 0
2, 5357, Note_on_c, 0, 48, 0
2, 5358, Note_on_c, 0, 36, 0
2, 5371, Note_on_c, 0, 50, 72
2, 5371, Note_on_c, 0, 62, 74
2, 5371, Note_on_c, 0, 67, 68
2, 5372, Note_on_c, 0, 38, 75
2, 5372, Note_on_c, 0, 55, 76
2, 5373, Note_on_c, 0, 58, 77
2, 5397, Note_on_c, 0, 55, 0
2, 5397, Note_on_c, 0, 67, 0
2, 5397, Note_on_c, 0, 62, 0
2, 5398, Note_on_c, 0, 58, 0
2, 5398, Note_on_c, 0, 38, 0
2, 5408, Control_c, 0, 64, 0
2, 5417, Note_on_c, 0, 50, 0
2, 5421, Note_on_c, 0, 55, 68
2, 5421, Note_on_c, 0, 62, 68
2, 5421, Note_on_c, 0, 67, 68
2, 5422, Note_on_c, 0, 39, 67
2, 5422, Note_on_c, 0, 51, 68
2, 5422, Note_on_c, 0, 58, 67
2, 5436, Note_on_c, 0, 67, 0
2, 5437, Note_on_c, 0, 55, 0
2, 5437, Note_on_c, 0, 62, 0
2, 5438, Note_on_c, 0, 58, 0
2, 5448, Note_on_c, 0, 51, 0
2, 5448, Note_on_c, 0, 39, 0
2, 5451, Note_on_c, 0, 50, 76
2, 5452, Note_on_c, 0, 38, 77
2, 5460, Note_on_c, 0, 67, 66
2, 5461, Note_on_c, 0, 55, 78
2, 5461, Note_on_c, 0, 62, 79
2, 5462, Note_on_c, 0, 58, 80
2, 5479, Note_on_c, 0, 38, 0
2, 5486, Note_on_c, 0, 67, 0
2, 5487, Note_on_c, 0, 55, 0
2, 5487, Note_on_c, 0, 50, 0
2, 5487, Note_on_c, 0, 58, 0
2, 5487, Note_on_c, 0, 62, 0
2, 5511, Note_on_c, 0, 55, 72
2, 5511, Note_on_c, 0, 67, 60
2, 5512, Control_c, 0, 64, 127
2, 5537, Note_on_c, 0, 67, 0
2, 5538, Note_on_c, 0, 55, 0
2, 5561, Note_on_c, 0, 55, 67
2, 5561, Note_on_c, 0, 67, 60
2, 5577, Note_on_c, 0, 67, 0
2, 5578, Note_on_c, 0, 55, 0
2, 5601, Note_on_c, 0, 67, 60
2, 5612, Note_on_c, 0, 46, 67
2, 5613, Note_on_c, 0, 34, 68
2, 5627, Note_on_c, 0, 67, 0
2, 5638, Note_on_c, 0, 34, 0
2, 5638, Note_on_c, 0, 46, 0
2, 5651, Note_on_c, 0, 55, 64
2, 5651, Note_on_c, 0, 67, 60
2, 5676, Note_on_c, 0, 67, 0
2, 5676, Note_on_c, 0, 55, 0
2, 5699, Note_on_c, 0, 55, 62
2, 5699, Note_on_c, 0, 67, 60
2, 5724, Note_on_c, 0, 67, 0
2, 5725, Note_on_c, 0, 55, 0
2, 5726, Control_c, 0, 64, 0
2, 5748, Note_on_c, 0, 67, 60
2, 5749, Note_on_c, 0, 55, 57
2, 5750, Note_on_c, 0, 43, 56
2, 5751, Note_on_c, 0, 31, 55
2, 5775, Note_on_c, 0, 55, 0
2, 5775, Note_on_c, 0, 67, 0
2, 5799, Note_on_c, 0, 67, 59
2, 5800, Note_on_c, 0, 55, 59
2, 5816, Note_on_c, 0, 67, 0
2, 5817, Note_on_c, 0, 55, 0
2, 5838, Note_on_c, 0, 67, 60
2, 5839, Note_on_c, 0, 55, 60
2, 5849, Control_c, 0, 64, 127
2, 5863, Note_on_c, 0, 67, 0
2, 5864, Note_on_c, 0, 55, 0
2, 5886, Note_on_c, 0, 67, 60
2, 5887, Note_on_c, 0, 55, 60
2, 5912, Note_on_c, 0, 67, 0
2, 5913, Note_on_c, 0, 55, 0
2, 5938, Note_on_c, 0, 67, 60
2, 5939, Note_on_c, 0, 55, 60
2, 5954, Note_on_c, 0, 67, 0
2, 5955, Note_on_c, 0, 55, 0
2, 5978, Note_on_c, 0, 55, 60
2, 5978, Note_on_c, 0, 67, 60
2, 5993, Note_on_c, 0, 67, 0
2, 5994, Note_on_c, 0, 55, 0
2, 6017, Note_on_c, 0, 67, 60
2, 6018, Note_on_c, 0, 55, 60
2, 6043, Note_on_c, 0, 55, 0
2, 6043, Note_on_c, 0, 67, 0
2, 6067, Note_on_c, 0, 67, 59
2, 6068, Note_on_c, 0, 55, 60
2, 6093, Note_on_c, 0, 67, 0
2, 6094, Note_on_c, 0, 55, 0
2, 6095, Note_on_c, 0, 31, 0
2, 6107, Note_on_c, 0, 43, 0
2, 6119, Note_on_c, 0, 55, 60
2, 6144, Note_on_c, 0, 55, 0
2, 6168, Note_on_c, 0, 55, 60
2, 6193, Note_on_c, 0, 55, 0
2, 6213, Control_c, 0, 64, 0
2, 6216, Note_on_c, 0, 55, 60
2, 6241, Note_on_c, 0, 55, 0
2, 6265, Note_on_c, 0, 55, 60
2, 6265, Note_on_c, 0, 67, 60
2, 6286, Note_on_c, 0, 43, 60
2, 6287, Note_on_c, 0, 31, 62
2, 6291, Note_on_c, 0, 55, 0
2, 6292, Note_on_c, 0, 67, 0
2, 6306, Control_c, 0, 64, 127
2, 6312, Note_on_c, 0, 43, 0
2, 6313, Note_on_c, 0, 31, 0
2, 6315, Note_on_c, 0, 67, 60
2, 6316, Note_on_c, 0, 55, 60
2, 6326, Note_on_c, 0, 33, 62
2, 6341, Note_on_c, 0, 67, 0
2, 6342, Note_on_c, 0, 55, 0
2, 6352, Note_on_c, 0, 33, 0
2, 6353, Control_c, 0, 64, 0
2, 6357, Note_on_c, 0, 34, 67
2, 6366, Note_on_c, 0, 67, 60
2, 6367, Note_on_c, 0, 55, 68
2, 6383, Note_on_c, 0, 34, 0
2, 6392, Note_on_c, 0, 55, 0
2, 6392, Note_on_c, 0, 67, 0
2, 6397, Note_on_c, 0, 36, 67
2, 6416, Note_on_c, 0, 67, 60
2, 6417, Note_on_c, 0, 55, 65
2, 6423, Note_on_c, 0, 36, 0
2, 6437, Note_on_c, 0, 38, 66
2, 6442, Note_on_c, 0, 55, 0
2, 6442, Note_on_c, 0, 67, 0
2, 6448, Control_c, 0, 67, 127
2, 6463, Note_on_c, 0, 38, 0
2, 6465, Note_on_c, 0, 67, 57
2, 6466, Note_on_c, 0, 39, 61
2, 6490, Note_on_c, 0, 67, 0
2, 6501, Note_on_c, 0, 39, 0
2, 6505, Note_on_c, 0, 38, 65
2, 6514, Note_on_c, 0, 67, 57
2, 6515, Note_on_c, 0, 55, 66
2, 6539, Note_on_c, 0, 67, 0
2, 6540, Note_on_c, 0, 55, 0
2, 6563, Note_on_c, 0, 67, 57
2, 6564, Note_on_c, 0, 55, 61
2, 6574, Control_c, 0, 64, 127
2, 6589, Note_on_c, 0, 55, 0
2, 6589, Note_on_c, 0, 67, 0
2, 6614, Note_on_c, 0, 55, 58
2, 6614, Note_on_c, 0, 67, 57
2, 6621, Control_c, 0, 64, 0
2, 6630, Note_on_c, 0, 38, 0
2, 6638, Note_on_c, 0, 55, 0
2, 6639, Note_on_c, 0, 67, 0
2, 6662, Note_on_c, 0, 67, 57
2, 6663, Note_on_c, 0, 55, 57
2, 6675, Note_on_c, 0, 34, 55
2, 6689, Note_on_c, 0, 67, 0
2, 6690, Note_on_c, 0, 55, 0
2, 6701, Note_on_c, 0, 34, 0
2, 6715, Note_on_c, 0, 55, 57
2, 6715, Note_on_c, 0, 67, 57
2, 6741, Note_on_c, 0, 67, 0
2, 6741, Note_on_c, 0, 55, 0
2, 6764, Note_on_c, 0, 67, 56
2, 6765, Note_on_c, 0, 55, 57
2, 6790, Note_on_c, 0, 55, 0
2, 6790, Note_on_c, 0, 67, 0
2, 6795, Note_on_c, 0, 31, 53
2, 6795, Note_on_c, 0, 43, 52
2, 6814, Note_on_c, 0, 67, 57
2, 6839, Note_on_c, 0, 67, 0
2, 6843, Control_c, 0, 64, 127
2, 6862, Note_on_c, 0, 55, 56
2, 6862, Note_on_c, 0, 67, 57
2, 6887, Note_on_c, 0, 67, 0
2, 6888, Note_on_c, 0, 55, 0
2, 6910, Note_on_c, 0, 55, 57
2, 6910, Note_on_c, 0, 67, 57
2, 6910, Control_c, 0, 67, 0
2, 6917, Note_on_c, 0, 31, 0
2, 6925, Note_on_c, 0, 67, 0
2, 6926, Note_on_c, 0, 55, 0
2, 6948, Note_on_c, 0, 67, 60
2, 6949, Note_on_c, 0, 55, 60
2, 6974, Note_on_c, 0, 55, 0
2, 6974, Note_on_c, 0, 67, 0
2, 6998, Note_on_c, 0, 55, 60
2, 6998, Note_on_c, 0, 67, 60
2, 7005, Note_on_c, 0, 43, 0
2, 7014, Note_on_c, 0, 67, 0
2, 7014, Note_on_c, 0, 55, 0
2, 7038, Note_on_c, 0, 67, 59
2, 7039, Note_on_c, 0, 55, 60
2, 7064, Note_on_c, 0, 67, 0
2, 7065, Note_on_c, 0, 55, 0
2, 7089, Note_on_c, 0, 67, 60
2, 7090, Note_on_c, 0, 55, 60
2, 7105, Note_on_c, 0, 55, 0
2, 7105, Note_on_c, 0, 67, 0
2, 7127, Note_on_c, 0, 67, 59
2, 7128, Note_on_c, 0, 55, 60
2, 7153, Note_on_c, 0, 67, 0
2, 7154, Note_on_c, 0, 55, 0
2, 7178, Note_on_c, 0, 55, 60
2, 7178, Note_on_c, 0, 67, 60
2, 7193, Note_on_c, 0, 67, 0
2, 7194, Note_on_c, 0, 55, 0
2, 7217, Note_on_c, 0, 55, 60
2, 7217, Note_on_c, 0, 67, 60
2, 7242, Note_on_c, 0, 67, 0
2, 7243, Note_on_c, 0, 55, 0
2, 7265, Note_on_c, 0, 55, 60
2, 7265, Note_on_c, 0, 67, 60
2, 7291, Note_on_c, 0, 67, 0
2, 7291, Note_on_c, 0, 55, 0
2, 7303, Control_c, 0, 64, 0
2, 7317, Note_on_c, 0, 55, 60
2, 7317, Note_on_c, 0, 67, 60
2, 7327, Note_on_c, 0, 48, 60
2, 7333, Note_on_c, 0, 67, 0
2, 7333, Note_on_c, 0, 55, 0
2, 7338, Note_on_c, 0, 36, 61
2, 7357, Note_on_c, 0, 57, 59
2, 7357, Note_on_c, 0, 67, 61
2, 7358, Note_on_c, 0, 69, 61
2, 7377, Control_c, 0, 64, 127
2, 7382, Note_on_c, 0, 57, 0
2, 7383, Note_on_c, 0, 67, 0
2, 7384, Note_on_c, 0, 69, 0
2, 7406, Note_on_c, 0, 57, 60
2, 7406, Note_on_c, 0, 67, 60
2, 7407, Note_on_c, 0, 69, 60
2, 7422, Note_on_c, 0, 57, 0
2, 7423, Note_on_c, 0, 67, 0
2, 7424, Note_on_c, 0, 69, 0
2, 7446, Note_on_c, 0, 57, 60
2, 7446, Note_on_c, 0, 67, 60
2, 7448, Note_on_c, 0, 69, 60
2, 7471, Note_on_c, 0, 57, 0
2, 7472, Note_on_c, 0, 67, 0
2, 7473, Note_on_c, 0, 69, 0
2, 7495, Note_on_c, 0, 57, 60
2, 7495, Note_on_c, 0, 67, 60
2, 7496, Note_on_c, 0, 69, 60
2, 7510, Note_on_c, 0, 67, 0
2, 7510, Note_on_c, 0, 57, 0
2, 7511, Note_on_c, 0, 69, 0
2, 7533, Note_on_c, 0, 57, 60
2, 7534, Note_on_c, 0, 67, 60
2, 7535, Note_on_c, 0, 69, 61
2, 7549, Note_on_c, 0, 57, 0
2, 7550, Note_on_c, 0, 67, 0
2, 7551, Note_on_c, 0, 69, 0
2, 7573, Note_on_c, 0, 57, 60
2, 7573, Note_on_c, 0, 67, 60
2, 7574, Note_on_c, 0, 69, 60
2, 7598, Note_on_c, 0, 67, 0
2, 7598, Note_on_c, 0, 57, 0
2, 7600, Note_on_c, 0, 69, 0
2, 7622, Note_on_c, 0, 57, 61
2, 7622, Note_on_c, 0, 67, 63
2, 7623, Note_on_c, 0, 69, 65
2, 7638, Note_on_c, 0, 67, 0
2, 7638, Note_on_c, 0, 57, 0
2, 7639, Note_on_c, 0, 69, 0
2, 7661, Note_on_c, 0, 57, 63
2, 7661, Note_on_c, 0, 67, 64
2, 7662, Note_on_c, 0, 69, 64
2, 7676, Note_on_c, 0, 36, 0
2, 7685, Note_on_c, 0, 57, 0
2, 7686, Note_on_c, 0, 48, 0
2, 7687, Note_on_c, 0, 67, 0
2, 7688, Note_on_c, 0, 69, 0
2, 7711, Note_on_c, 0, 57, 64
2, 7711, Note_on_c, 0, 67, 64
2, 7712, Note_on_c, 0, 69, 64
2, 7725, Note_on_c, 0, 57, 0
2, 7726, Note_on_c, 0, 67, 0
2, 7727, Note_on_c, 0, 69, 0
2, 7739, Note_on_c, 0, 48, 67
2, 7739, Note_on_c, 0, 36, 68
2, 7748, Note_on_c, 0, 57, 69
2, 7748, Note_on_c, 0, 67, 65
2, 7750, Note_on_c, 0, 69, 67
2, 7774, Note_on_c, 0, 67, 0
2, 7774, Note_on_c, 0, 57, 0
2, 7775, Note_on_c, 0, 69, 0
2, 7797, Note_on_c, 0, 57, 68
2, 7797, Note_on_c, 0, 67, 68
2, 7798, Note_on_c, 0, 69, 68
2, 7822, Note_on_c, 0, 67, 0
2, 7822, Note_on_c, 0, 57, 0
2, 7823, Note_on_c, 0, 69, 0
2, 7832, Note_on_c, 0, 36, 0
2, 7840, Note_on_c, 0, 48, 0
2, 7844, Note_on_c, 0, 57, 68
2, 7845, Note_on_c, 0, 67, 68
2, 7846, Note_on_c, 0, 69, 69
2, 7850, Control_c, 0, 64, 0
2, 7859, Note_on_c, 0, 67, 0
2, 7859, Note_on_c, 0, 57, 0
2, 7860, Note_on_c, 0, 69, 0
2, 7874, Note_on_c, 0, 58, 68
2, 7883, Note_on_c, 0, 67, 68
2, 7883, Note_on_c, 0, 37, 72
2, 7883, Note_on_c, 0, 49, 73
2, 7883, Note_on_c, 0, 70, 68
2, 7907, Note_on_c, 0, 67, 0
2, 7908, Note_on_c, 0, 70, 0
2, 7909, Note_on_c, 0, 58, 0
2, 7932, Note_on_c, 0, 67, 61
2, 7933, Note_on_c, 0, 58, 68
2, 7933, Note_on_c, 0, 70, 61
2, 7958, Note_on_c, 0, 70, 0
2, 7958, Note_on_c, 0, 67, 0
2, 7959, Note_on_c, 0, 58, 0
2, 7982, Control_c, 0, 64, 127
2, 7982, Note_on_c, 0, 67, 60
2, 7982, Note_on_c, 0, 70, 60
2, 7983, Note_on_c, 0, 58, 63
2, 8008, Note_on_c, 0, 70, 0
2, 8008, Note_on_c, 0, 67, 0
2, 8009, Note_on_c, 0, 58, 0
2, 8032, Note_on_c, 0, 67, 60
2, 8032, Note_on_c, 0, 70, 61
2, 8033, Note_on_c, 0, 58, 61
2, 8057, Note_on_c, 0, 67, 0
2, 8058, Note_on_c, 0, 70, 0
2, 8059, Note_on_c, 0, 58, 0
2, 8081, Note_on_c, 0, 67, 60
2, 8082, Note_on_c, 0, 70, 62
2, 8083, Note_on_c, 0, 58, 61
2, 8107, Note_on_c, 0, 67, 0
2, 8108, Note_on_c, 0, 70, 0
2, 8109, Note_on_c, 0, 58, 0
2, 8132, Note_on_c, 0, 67, 64
2, 8133, Note_on_c, 0, 58, 65
2, 8133, Note_on_c, 0, 70, 67
2, 8149, Control_c, 0, 64, 0
2, 8158, Note_on_c, 0, 70, 0
2, 8158, Note_on_c, 0, 67, 0
2, 8159, Note_on_c, 0, 58, 0
2, 8182, Note_on_c, 0, 67, 68
2, 8182, Note_on_c, 0, 70, 69
2, 8183, Note_on_c, 0, 58, 68
2, 8207, Note_on_c, 0, 67, 0
2, 8208, Note_on_c, 0, 70, 0
2, 8209, Note_on_c, 0, 58, 0
2, 8228, Note_on_c, 0, 37, 0
2, 8231, Note_on_c, 0, 67, 64
2, 8232, Note_on_c, 0, 70, 64
2, 8233, Note_on_c, 0, 58, 63
2, 8257, Note_on_c, 0, 67, 0
2, 8258, Note_on_c, 0, 70, 0
2, 8259, Note_on_c, 0, 58, 0
2, 8268, Note_on_c, 0, 49, 0
2, 8282, Note_on_c, 0, 64, 60
2, 8282, Note_on_c, 0, 67, 61
2, 8283, Note_on_c, 0, 58, 61
2, 8284, Control_c, 0, 64, 127
2, 8303, Note_on_c, 0, 37, 60
2, 8303, Note_on_c, 0, 49, 58
2, 8307, Note_on_c, 0, 67, 0
2, 8308, Note_on_c, 0, 64, 0
2, 8309, Note_on_c, 0, 58, 0
2, 8331, Note_on_c, 0, 64, 65
2, 8332, Note_on_c, 0, 67, 66
2, 8333, Note_on_c, 0, 58, 60
2, 8357, Note_on_c, 0, 67, 0
2, 8357, Note_on_c, 0, 64, 0
2, 8358, Note_on_c, 0, 58, 0
2, 8380, Note_on_c, 0, 64, 68
2, 8380, Note_on_c, 0, 67, 68
2, 8381, Note_on_c, 0, 58, 64
2, 8397, Note_on_c, 0, 37, 0
2, 8397, Note_on_c, 0, 49, 0
2, 8408, Control_c, 0, 64, 0
2, 8430, Note_on_c, 0, 57, 67
2, 8431, Note_on_c, 0, 66, 67
2, 8432, Note_on_c, 0, 38, 66
2, 8435, Note_on_c, 0, 67, 0
2, 8435, Note_on_c, 0, 64, 0
2, 8436, Note_on_c, 0, 58, 0
2, 8466, Note_on_c, 0, 66, 0
2, 8490, Note_on_c, 0, 62, 62
2, 8490, Note_on_c, 0, 66, 64
2, 8491, Control_c, 0, 64, 127
2, 8502, Note_on_c, 0, 42, 64
2, 8506, Note_on_c, 0, 57, 0
2, 8515, Note_on_c, 0, 66, 0
2, 8516, Note_on_c, 0, 62, 0
2, 8526, Note_on_c, 0, 42, 0
2, 8531, Note_on_c, 0, 43, 64
2, 8535, Note_on_c, 0, 38, 0
2, 8535, Control_c, 0, 64, 0
2, 8538, Note_on_c, 0, 62, 63
2, 8539, Note_on_c, 0, 66, 64
2, 8555, Note_on_c, 0, 43, 0
2, 8559, Note_on_c, 0, 45, 67
2, 8564, Note_on_c, 0, 66, 0
2, 8565, Note_on_c, 0, 62, 0
2, 8589, Note_on_c, 0, 62, 68
2, 8589, Note_on_c, 0, 66, 66
2, 8608, Note_on_c, 0, 47, 71
2, 8615, Note_on_c, 0, 66, 0
2, 8615, Note_on_c, 0, 62, 0
2, 8625, Note_on_c, 0, 45, 0
2, 8628, Control_c, 0, 64, 127
2, 8638, Note_on_c, 0, 62, 75
2, 8638, Note_on_c, 0, 66, 68
2, 8639, Note_on_c, 0, 49, 76
2, 8654, Note_on_c, 0, 66, 0
2, 8655, Note_on_c, 0, 62, 0
2, 8664, Note_on_c, 0, 47, 0
2, 8665, Control_c, 0, 64, 0
2, 8677, Note_on_c, 0, 62, 74
2, 8677, Note_on_c, 0, 66, 68
2, 8684, Note_on_c, 0, 49, 0
2, 8688, Note_on_c, 0, 50, 73
2, 8694, Note_on_c, 0, 66, 0
2, 8695, Note_on_c, 0, 62, 0
2, 8701, Control_c, 0, 67, 127
2, 8717, Note_on_c, 0, 62, 67
2, 8717, Note_on_c, 0, 66, 62
2, 8743, Note_on_c, 0, 66, 0
2, 8744, Note_on_c, 0, 62, 0
2, 8758, Control_c, 0, 64, 127
2, 8767, Note_on_c, 0, 62, 65
2, 8767, Note_on_c, 0, 66, 65
2, 8782, Note_on_c, 0, 66, 0
2, 8783, Note_on_c, 0, 62, 0
2, 8802, Control_c, 0, 64, 0
2, 8805, Control_c, 0, 67, 0
2, 8806, Note_on_c, 0, 62, 68
2, 8806, Note_on_c, 0, 66, 68
2, 8831, Note_on_c, 0, 62, 0
2, 8835, Note_on_c, 0, 57, 72
2, 8850, Note_on_c, 0, 66, 0
2, 8867, Note_on_c, 0, 69, 72
2, 8895, Control_c, 0, 64, 127
2, 8973, Note_on_c, 0, 62, 67
2, 8974, Note_on_c, 0, 66, 60
2, 8979, Note_on_c, 0, 50, 0
2, 8999, Note_on_c, 0, 62, 0
2, 8999, Note_on_c, 0, 66, 0
2, 9022, Note_on_c, 0, 62, 60
2, 9029, Control_c, 0, 64, 0
2, 9033, Note_on_c, 0, 66, 60
2, 9058, Note_on_c, 0, 66, 0
2, 9058, Note_on_c, 0, 62, 0
2, 9059, Note_on_c, 0, 69, 0
2, 9059, Note_on_c, 0, 57, 0
2, 9063, Note_on_c, 0, 58, 65
2, 9083, Note_on_c, 0, 70, 63
2, 9131, Note_on_c, 0, 62, 69
2, 9131, Note_on_c, 0, 67, 63
2, 9142, Control_c, 0, 64, 127
2, 9156, Note_on_c, 0, 67, 0
2, 9157, Note_on_c, 0, 62, 0
2, 9180, Note_on_c, 0, 62, 63
2, 9180, Note_on_c, 0, 67, 60
2, 9197, Note_on_c, 0, 67, 0
2, 9197, Note_on_c, 0, 62, 0
2, 9221, Note_on_c, 0, 67, 58
2, 9222, Note_on_c, 0, 62, 59
2, 9236, Note_on_c, 0, 67, 0
2, 9237, Note_on_c, 0, 62, 0
2, 9259, Note_on_c, 0, 62, 57
2, 9259, Note_on_c, 0, 67, 56
2, 9275, Note_on_c, 0, 67, 0
2, 9275, Note_on_c, 0, 70, 0
2, 9276, Note_on_c, 0, 62, 0
2, 9299, Note_on_c, 0, 62, 56
2, 9299, Note_on_c, 0, 67, 56
2, 9305, Control_c, 0, 64, 0
2, 9324, Note_on_c, 0, 67, 0
2, 9325, Note_on_c, 0, 62, 0
2, 9335, Note_on_c, 0, 58, 0
2, 9339, Note_on_c, 0, 57, 61
2, 9340, Note_on_c, 0, 69, 61
2, 9390, Control_c, 0, 64, 127
2, 9424, Note_on_c, 0, 57, 0
2, 9439, Note_on_c, 0, 62, 61
2, 9440, Note_on_c, 0, 58, 60
2, 9446, Note_on_c, 0, 69, 0
2, 9466, Note_on_c, 0, 62, 0
2, 9467, Note_on_c, 0, 58, 0
2, 9489, Note_on_c, 0, 62, 60
2, 9490, Note_on_c, 0, 58, 60
2, 9499, Note_on_c, 0, 55, 58
2, 9499, Note_on_c, 0, 67, 54
2, 9505, Note_on_c, 0, 62, 0
2, 9506, Note_on_c, 0, 58, 0
2, 9525, Note_on_c, 0, 55, 0
2, 9529, Note_on_c, 0, 62, 59
2, 9530, Note_on_c, 0, 58, 60
2, 9555, Note_on_c, 0, 62, 0
2, 9556, Note_on_c, 0, 58, 0
2, 9579, Note_on_c, 0, 62, 60
2, 9585, Note_on_c, 0, 67, 0
2, 9595, Note_on_c, 0, 62, 0
2, 9615, Control_c, 0, 64, 0
2, 9617, Note_on_c, 0, 62, 62
2, 9618, Note_on_c, 0, 58, 63
2, 9633, Note_on_c, 0, 62, 0
2, 9634, Note_on_c, 0, 58, 0
2, 9648, Note_on_c, 0, 69, 68
2, 9667, Note_on_c, 0, 38, 66
2, 9676, Note_on_c, 0, 57, 67
2, 9711, Note_on_c, 0, 57, 0
2, 9716, Control_c, 0, 64, 127
2, 9732, Note_on_c, 0, 69, 0
2, 9741, Note_on_c, 0, 38, 0
2, 9755, Note_on_c, 0, 62, 61
2, 9755, Note_on_c, 0, 66, 65
2, 9756, Note_on_c, 0, 42, 62
2, 9780, Note_on_c, 0, 66, 0
2, 9781, Note_on_c, 0, 62, 0
2, 9782, Note_on_c, 0, 42, 0
2, 9786, Note_on_c, 0, 43, 66
2, 9804, Note_on_c, 0, 62, 67
2, 9805, Note_on_c, 0, 66, 67
2, 9812, Note_on_c, 0, 43, 0
2, 9815, Note_on_c, 0, 45, 68
2, 9822, Note_on_c, 0, 66, 0
2, 9823, Note_on_c, 0, 62, 0
2, 9848, Note_on_c, 0, 62, 68
2, 9848, Note_on_c, 0, 66, 68
2, 9852, Note_on_c, 0, 45, 0
2, 9852, Control_c, 0, 64, 0
2, 9856, Note_on_c, 0, 47, 67
2, 9863, Note_on_c, 0, 66, 0
2, 9864, Note_on_c, 0, 62, 0
2, 9888, Note_on_c, 0, 49, 68
2, 9888, Note_on_c, 0, 62, 68
2, 9888, Note_on_c, 0, 66, 68
2, 9893, Note_on_c, 0, 47, 0
2, 9903, Note_on_c, 0, 66, 0
2, 9903, Note_on_c, 0, 62, 0
2, 9913, Note_on_c, 0, 49, 0
2, 9927, Note_on_c, 0, 50, 65
2, 9928, Note_on_c, 0, 62, 64
2, 9928, Note_on_c, 0, 66, 68
2, 9944, Note_on_c, 0, 66, 0
2, 9945, Note_on_c, 0, 62, 0
2, 9968, Note_on_c, 0, 62, 61
2, 9968, Note_on_c, 0, 66, 63
2, 9977, Control_c, 0, 64, 127
2, 9993, Note_on_c, 0, 66, 0
2, 9994, Note_on_c, 0, 62, 0
2, 10016, Note_on_c, 0, 62, 60
2, 10017, Note_on_c, 0, 66, 61
2, 10043, Note_on_c, 0, 66, 0
2, 10043, Note_on_c, 0, 62, 0
2, 10043, Control_c, 0, 64, 0
2, 10067, Note_on_c, 0, 69, 63
2, 10075, Note_on_c, 0, 57, 63
2, 10125, Control_c, 0, 64, 127
2, 10144, Note_on_c, 0, 62, 60
2, 10144, Note_on_c, 0, 66, 60
2, 10169, Note_on_c, 0, 66, 0
2, 10170, Note_on_c, 0, 62, 0
2, 10194, Note_on_c, 0, 62, 60
2, 10194, Note_on_c, 0, 66, 60
2, 10201, Control_c, 0, 64, 0
2, 10219, Note_on_c, 0, 66, 0
2, 10220, Note_on_c, 0, 62, 0
2, 10229, Note_on_c, 0, 57, 0
2, 10230, Note_on_c, 0, 69, 0
2, 10234, Note_on_c, 0, 70, 65
2, 10235, Note_on_c, 0, 58, 67
2, 10282, Note_on_c, 0, 62, 65
2, 10282, Note_on_c, 0, 67, 60
2, 10307, Note_on_c, 0, 67, 0
2, 10307, Note_on_c, 0, 62, 0
2, 10312, Control_c, 0, 64, 127
2, 10331, Note_on_c, 0, 62, 60
2, 10331, Note_on_c, 0, 67, 60
2, 10356, Note_on_c, 0, 67, 0
2, 10357, Note_on_c, 0, 62, 0
2, 10380, Note_on_c, 0, 62, 60
2, 10380, Note_on_c, 0, 67, 60
2, 10386, Note_on_c, 0, 70, 0
2, 10386, Note_on_c, 0, 50, 0
2, 10387, Note_on_c, 0, 58, 0
2, 10397, Note_on_c, 0, 62, 0
2, 10397, Note_on_c, 0, 67, 0
2, 10421, Note_on_c, 0, 62, 60
2, 10421, Note_on_c, 0, 67, 60
2, 10437, Note_on_c, 0, 67, 0
2, 10438, Note_on_c, 0, 62, 0
2, 10461, Note_on_c, 0, 62, 59
2, 10461, Note_on_c, 0, 67, 62
2, 10468, Control_c, 0, 64, 0
2, 10487, Note_on_c, 0, 67, 0
2, 10488, Note_on_c, 0, 62, 0
2, 10512, Note_on_c, 0, 55, 66
2, 10512, Note_on_c, 0, 67, 67
2, 10551, Note_on_c, 0, 62, 68
2, 10573, Control_c, 0, 64, 127
2, 10577, Note_on_c, 0, 62, 0
2, 10600, Note_on_c, 0, 62, 74
2, 10601, Note_on_c, 0, 58, 73
2, 10617, Note_on_c, 0, 62, 0
2, 10618, Note_on_c, 0, 58, 0
2, 10626, Note_on_c, 0, 55, 0
2, 10640, Note_on_c, 0, 62, 70
2, 10641, Note_on_c, 0, 58, 69
2, 10656, Note_on_c, 0, 58, 0
2, 10656, Note_on_c, 0, 62, 0
2, 10678, Note_on_c, 0, 62, 66
2, 10679, Note_on_c, 0, 58, 64
2, 10694, Note_on_c, 0, 62, 0
2, 10695, Note_on_c, 0, 58, 0
2, 10717, Note_on_c, 0, 62, 61
2, 10719, Note_on_c, 0, 58, 60
2, 10763, Note_on_c, 0, 58, 0
2, 10763, Note_on_c, 0, 62, 0
2, 10764, Control_c, 0, 64, 0
2, 10784, Note_on_c, 0, 67, 0
2, 10797, Note_on_c, 0, 62, 63
2, 10798, Note_on_c, 0, 66, 68
2, 10798, Note_on_c, 0, 74, 70
2, 10799, Note_on_c, 0, 38, 65
2, 10878, Control_c, 0, 64, 127
2, 10878, Note_on_c, 0, 42, 64
2, 10903, Note_on_c, 0, 38, 0
2, 10911, Note_on_c, 0, 66, 0
2, 10912, Note_on_c, 0, 62, 0
2, 10913, Note_on_c, 0, 42, 0
2, 10917, Note_on_c, 0, 43, 68
2, 10953, Note_on_c, 0, 43, 0
2, 10955, Note_on_c, 0, 62, 68
2, 10955, Note_on_c, 0, 66, 66
2, 10956, Note_on_c, 0, 45, 68
2, 10981, Note_on_c, 0, 45, 0
2, 10981, Note_on_c, 0, 66, 0
2, 10982, Note_on_c, 0, 62, 0
2, 10983, Control_c, 0, 64, 0
2, 10996, Note_on_c, 0, 47, 73
2, 11004, Note_on_c, 0, 66, 67
2, 11005, Note_on_c, 0, 62, 75
2, 11020, Note_on_c, 0, 47, 0
2, 11021, Note_on_c, 0, 66, 0
2, 11027, Note_on_c, 0, 49, 76
2, 11046, Note_on_c, 0, 66, 68
2, 11052, Note_on_c, 0, 49, 0
2, 11061, Note_on_c, 0, 66, 0
2, 11065, Note_on_c, 0, 50, 76
2, 11084, Note_on_c, 0, 66, 73
2, 11099, Note_on_c, 0, 66, 0
2, 11124, Note_on_c, 0, 57, 75
2, 11124, Note_on_c, 0, 66, 75
2, 11140, Note_on_c, 0, 66, 0
2, 11140, Note_on_c, 0, 57, 0
2, 11165, Note_on_c, 0, 57, 78
2, 11165, Note_on_c, 0, 66, 77
2, 11167, Control_c, 0, 64, 127
2, 11190, Note_on_c, 0, 57, 0
2, 11191, Note_on_c, 0, 74, 0
2, 11191, Note_on_c, 0, 62, 0
2, 11191, Note_on_c, 0, 66, 0
2, 11213, Note_on_c, 0, 62, 84
2, 11214, Note_on_c, 0, 57, 84
2, 11214, Note_on_c, 0, 66, 81
2, 11229, Note_on_c, 0, 57, 0
2, 11230, Note_on_c, 0, 66, 0
2, 11230, Note_on_c, 0, 62, 0
2, 11252, Note_on_c, 0, 57, 82
2, 11253, Note_on_c, 0, 62, 80
2, 11253, Note_on_c, 0, 66, 80
2, 11277, Note_on_c, 0, 66, 0
2, 11278, Note_on_c, 0, 62, 0
2, 11278, Note_on_c, 0, 57, 0
2, 11302, Note_on_c, 0, 57, 75
2, 11302, Note_on_c, 0, 62, 73
2, 11302, Note_on_c, 0, 66, 73
2, 11317, Note_on_c, 0, 66, 0
2, 11317, Note_on_c, 0, 57, 0
2, 11318, Note_on_c, 0, 62, 0
2, 11341, Note_on_c, 0, 57, 69
2, 11341, Note_on_c, 0, 62, 67
2, 11341, Note_on_c, 0, 66, 69
2, 11366, Note_on_c, 0, 66, 0
2, 11366, Note_on_c, 0, 57, 0
2, 11367, Note_on_c, 0, 62, 0
2, 11389, Note_on_c, 0, 57, 63
2, 11389, Note_on_c, 0, 62, 62
2, 11389, Note_on_c, 0, 66, 65
2, 11406, Note_on_c, 0, 66, 0
2, 11406, Note_on_c, 0, 57, 0
2, 11407, Note_on_c, 0, 62, 0
2, 11430, Note_on_c, 0, 57, 60
2, 11430, Note_on_c, 0, 62, 60
2, 11430, Note_on_c, 0, 66, 62
2, 11455, Note_on_c, 0, 66, 0
2, 11455, Note_on_c, 0, 57, 0
2, 11456, Note_on_c, 0, 62, 0
2, 11479, Note_on_c, 0, 57, 59
2, 11479, Note_on_c, 0, 62, 61
2, 11479, Note_on_c, 0, 66, 62
2, 11495, Note_on_c, 0, 66, 0
2, 11495, Note_on_c, 0, 50, 0
2, 11495, Note_on_c, 0, 57, 0
2, 11496, Note_on_c, 0, 62, 0
2, 11519, Note_on_c, 0, 57, 64
2, 11519, Note_on_c, 0, 62, 64
2, 11519, Note_on_c, 0, 66, 64
2, 11534, Note_on_c, 0, 66, 0
2, 11534, Note_on_c, 0, 62, 0
2, 11535, Note_on_c, 0, 57, 0
2, 11558, Note_on_c, 0, 57, 63
2, 11558, Note_on_c, 0, 62, 65
2, 11558, Note_on_c, 0, 66, 66
2, 11583, Note_on_c, 0, 66, 0
2, 11584, Note_on_c, 0, 62, 0
2, 11584, Note_on_c, 0, 57, 0
2, 11608, Note_on_c, 0, 57, 67
2, 11608, Note_on_c, 0, 62, 68
2, 11608, Note_on_c, 0, 66, 68
2, 11623, Note_on_c, 0, 62, 0
2, 11624, Note_on_c, 0, 66, 0
2, 11625, Note_on_c, 0, 57, 0
2, 11648, Note_on_c, 0, 57, 67
2, 11648, Note_on_c, 0, 66, 66
2, 11649, Note_on_c, 0, 62, 66
2, 11673, Note_on_c, 0, 57, 0
2, 11674, Note_on_c, 0, 66, 0
2, 11675, Note_on_c, 0, 62, 0
2, 11718, Note_on_c, 0, 57, 65
2, 11718, Note_on_c, 0, 62, 72
2, 11718, Note_on_c, 0, 74, 73
2, 11743, Note_on_c, 0, 57, 0
2, 11744, Note_on_c, 0, 62, 0
2, 11768, Note_on_c, 0, 57, 67
2, 11768, Note_on_c, 0, 62, 65
2, 11768, Note_on_c, 0, 66, 64
2, 11794, Note_on_c, 0, 66, 0
2, 11794, Note_on_c, 0, 57, 0
2, 11795, Note_on_c, 0, 62, 0
2, 11819, Note_on_c, 0, 57, 61
2, 11819, Note_on_c, 0, 62, 60
2, 11828, Note_on_c, 0, 66, 60
2, 11843, Note_on_c, 0, 57, 0
2, 11853, Note_on_c, 0, 62, 0
2, 11862, Note_on_c, 0, 74, 0
2, 11865, Control_c, 0, 64, 0
2, 11891, Note_on_c, 0, 66, 0
2, 11898, Note_on_c, 0, 43, 64
2, 11925, Note_on_c, 0, 74, 69
2, 11927, Note_on_c, 0, 62, 68
2, 11966, Control_c, 0, 64, 127
2, 11990, Note_on_c, 0, 43, 0
2, 12018, Note_on_c, 0, 62, 0
2, 12070, Note_on_c, 0, 65, 60
2, 12070, Note_on_c, 0, 67, 62
2, 12071, Note_on_c, 0, 59, 64
2, 12071, Note_on_c, 0, 62, 64
2, 12096, Note_on_c, 0, 62, 0
2, 12096, Note_on_c, 0, 67, 0
2, 12096, Note_on_c, 0, 59, 0
2, 12096, Note_on_c, 0, 65, 0
2, 12120, Note_on_c, 0, 59, 63
2, 12120, Note_on_c, 0, 62, 64
2, 12120, Note_on_c, 0, 65, 64
2, 12120, Note_on_c, 0, 67, 63
2, 12145, Note_on_c, 0, 62, 0
2, 12146, Note_on_c, 0, 65, 0
2, 12146, Note_on_c, 0, 67, 0
2, 12146, Note_on_c, 0, 59, 0
2, 12169, Note_on_c, 0, 59, 64
2, 12169, Note_on_c, 0, 67, 64
2, 12170, Note_on_c, 0, 62, 64
2, 12170, Note_on_c, 0, 65, 64
2, 12183, Note_on_c, 0, 62, 0
2, 12184, Note_on_c, 0, 67, 0
2, 12184, Note_on_c, 0, 74, 0
2, 12184, Note_on_c, 0, 59, 0
2, 12184, Note_on_c, 0, 65, 0
2, 12207, Note_on_c, 0, 65, 63
2, 12208, Note_on_c, 0, 59, 64
2, 12208, Note_on_c, 0, 62, 64
2, 12208, Note_on_c, 0, 67, 64
2, 12233, Note_on_c, 0, 67, 0
2, 12233, Note_on_c, 0, 65, 0
2, 12233, Note_on_c, 0, 59, 0
2, 12233, Note_on_c, 0, 62, 0
2, 12257, Note_on_c, 0, 59, 64
2, 12257, Note_on_c, 0, 62, 62
2, 12257, Note_on_c, 0, 65, 62
2, 12257, Note_on_c, 0, 67, 61
2, 12273, Note_on_c, 0, 65, 0
2, 12274, Note_on_c, 0, 59, 0
2, 12274, Note_on_c, 0, 62, 0
2, 12274, Note_on_c, 0, 67, 0
2, 12298, Note_on_c, 0, 59, 59
2, 12298, Note_on_c, 0, 62, 60
2, 12298, Note_on_c, 0, 65, 60
2, 12298, Note_on_c, 0, 67, 59
2, 12323, Note_on_c, 0, 67, 0
2, 12323, Note_on_c, 0, 59, 0
2, 12323, Note_on_c, 0, 62, 0
2, 12323, Note_on_c, 0, 65, 0
2, 12347, Note_on_c, 0, 65, 60
2, 12347, Note_on_c, 0, 67, 62
2, 12348, Note_on_c, 0, 59, 61
2, 12348, Note_on_c, 0, 62, 62
2, 12364, Note_on_c, 0, 67, 0
2, 12364, Note_on_c, 0, 65, 0
2, 12365, Note_on_c, 0, 59, 0
2, 12365, Note_on_c, 0, 62, 0
2, 12388, Note_on_c, 0, 67, 64
2, 12389, Note_on_c, 0, 59, 64
2, 12389, Note_on_c, 0, 62, 64
2, 12415, Note_on_c, 0, 62, 0
2, 12415, Note_on_c, 0, 67, 0
2, 12416, Note_on_c, 0, 59, 0
2, 12427, Control_c, 0, 64, 0
2, 12439, Note_on_c, 0, 67, 61
2, 12440, Note_on_c, 0, 59, 64
2, 12440, Note_on_c, 0, 62, 64
2, 12440, Note_on_c, 0, 79, 60
2, 12465, Note_on_c, 0, 59, 0
2, 12466, Note_on_c, 0, 62, 0
2, 12485, Note_on_c, 0, 67, 0
2, 12489, Note_on_c, 0, 59, 64
2, 12501, Control_c, 0, 64, 127
2, 12508, Note_on_c, 0, 67, 64
2, 12509, Note_on_c, 0, 62, 66
2, 12515, Note_on_c, 0, 59, 0
2, 12534, Note_on_c, 0, 67, 0
2, 12535, Note_on_c, 0, 62, 0
2, 12558, Note_on_c, 0, 65, 66
2, 12558, Note_on_c, 0, 67, 67
2, 12559, Note_on_c, 0, 59, 68
2, 12559, Note_on_c, 0, 62, 68
2, 12584, Note_on_c, 0, 62, 0
2, 12584, Note_on_c, 0, 67, 0
2, 12584, Note_on_c, 0, 65, 0
2, 12585, Note_on_c, 0, 59, 0
2, 12608, Note_on_c, 0, 67, 70
2, 12624, Note_on_c, 0, 79, 0
2, 12635, Control_c, 0, 64, 0
2, 12668, Note_on_c, 0, 36, 68
2, 12697, Note_on_c, 0, 79, 72
2, 12748, Control_c, 0, 64, 127
2, 12761, Note_on_c, 0, 67, 0
2, 12774, Note_on_c, 0, 36, 0
2, 12785, Note_on_c, 0, 55, 61
2, 12785, Note_on_c, 0, 60, 60
2, 12802, Note_on_c, 0, 60, 0
2, 12802, Note_on_c, 0, 55, 0
2, 12804, Note_on_c, 0, 67, 62
2, 12805, Note_on_c, 0, 63, 60
2, 12829, Note_on_c, 0, 67, 0
2, 12830, Note_on_c, 0, 63, 0
2, 12834, Note_on_c, 0, 55, 60
2, 12852, Note_on_c, 0, 67, 60
2, 12853, Note_on_c, 0, 63, 60
2, 12859, Note_on_c, 0, 55, 0
2, 12878, Note_on_c, 0, 67, 0
2, 12879, Note_on_c, 0, 63, 0
2, 12883, Note_on_c, 0, 60, 60
2, 12899, Note_on_c, 0, 60, 0
2, 12902, Note_on_c, 0, 67, 60
2, 12903, Note_on_c, 0, 55, 60
2, 12903, Note_on_c, 0, 63, 60
2, 12919, Note_on_c, 0, 67, 0
2, 12920, Note_on_c, 0, 63, 0
2, 12920, Note_on_c, 0, 55, 0
2, 12942, Note_on_c, 0, 67, 60
2, 12943, Note_on_c, 0, 60, 60
2, 12944, Note_on_c, 0, 55, 60
2, 12944, Note_on_c, 0, 63, 60
2, 12948, Note_on_c, 0, 79, 0
2, 12968, Note_on_c, 0, 67, 0
2, 12969, Note_on_c, 0, 55, 0
2, 12969, Note_on_c, 0, 60, 0
2, 12970, Note_on_c, 0, 63, 0
2, 12994, Note_on_c, 0, 67, 60
2, 12995, Note_on_c, 0, 55, 60
2, 12995, Note_on_c, 0, 60, 60
2, 12995, Note_on_c, 0, 63, 59
2, 13010, Note_on_c, 0, 67, 0
2, 13011, Note_on_c, 0, 55, 0
2, 13011, Note_on_c, 0, 60, 0
2, 13011, Note_on_c, 0, 63, 0
2, 13035, Note_on_c, 0, 55, 60
2, 13035, Note_on_c, 0, 60, 60
2, 13036, Note_on_c, 0, 63, 59
2, 13036, Note_on_c, 0, 75, 65
2, 13060, Note_on_c, 0, 55, 0
2, 13061, Note_on_c, 0, 60, 0
2, 13062, Note_on_c, 0, 63, 0
2, 13084, Note_on_c, 0, 67, 60
2, 13085, Note_on_c, 0, 55, 60
2, 13085, Note_on_c, 0, 60, 60
2, 13085, Note_on_c, 0, 63, 59
2, 13109, Note_on_c, 0, 67, 0
2, 13110, Note_on_c, 0, 60, 0
2, 13110, Note_on_c, 0, 55, 0
2, 13111, Note_on_c, 0, 63, 0
2, 13132, Note_on_c, 0, 67, 60
2, 13133, Note_on_c, 0, 55, 60
2, 13134, Note_on_c, 0, 63, 60
2, 13158, Note_on_c, 0, 55, 0
2, 13158, Note_on_c, 0, 67, 0
2, 13159, Note_on_c, 0, 63, 0
2, 13172, Note_on_c, 0, 60, 60
2, 13173, Note_on_c, 0, 72, 63
2, 13174, Note_on_c, 0, 39, 60
2, 13180, Note_on_c, 0, 75, 0
2, 13200, Note_on_c, 0, 39, 0
2, 13209, Note_on_c, 0, 60, 0
2, 13223, Note_on_c, 0, 51, 60
2, 13231, Note_on_c, 0, 67, 60
2, 13232, Note_on_c, 0, 63, 60
2, 13241, Note_on_c, 0, 55, 60
2, 13247, Note_on_c, 0, 51, 0
2, 13256, Note_on_c, 0, 67, 0
2, 13257, Note_on_c, 0, 63, 0
2, 13265, Note_on_c, 0, 55, 0
2, 13278, Note_on_c, 0, 67, 59
2, 13279, Note_on_c, 0, 63, 60
2, 13303, Note_on_c, 0, 67, 0
2, 13304, Note_on_c, 0, 63, 0
2, 13325, Control_c, 0, 64, 0
2, 13349, Note_on_c, 0, 41, 60
2, 13373, Note_on_c, 0, 72, 0
2, 13386, Note_on_c, 0, 65, 63
2, 13387, Note_on_c, 0, 77, 66
2, 13421, Note_on_c, 0, 65, 0
2, 13426, Control_c, 0, 64, 127
2, 13451, Note_on_c, 0, 41, 0
2, 13452, Note_on_c, 0, 65, 60
2, 13453, Note_on_c, 0, 62, 60
2, 13454, Note_on_c, 0, 53, 60
2, 13454, Note_on_c, 0, 58, 60
2, 13470, Note_on_c, 0, 62, 0
2, 13470, Note_on_c, 0, 65, 0
2, 13471, Note_on_c, 0, 58, 0
2, 13471, Note_on_c, 0, 53, 0
2, 13494, Note_on_c, 0, 65, 62
2, 13523, Note_on_c, 0, 53, 64
2, 13523, Note_on_c, 0, 62, 66
2, 13524, Note_on_c, 0, 58, 67
2, 13539, Note_on_c, 0, 65, 0
2, 13540, Note_on_c, 0, 62, 0
2, 13540, Note_on_c, 0, 53, 0
2, 13541, Note_on_c, 0, 58, 0
2, 13563, Note_on_c, 0, 62, 67
2, 13563, Note_on_c, 0, 65, 64
2, 13564, Note_on_c, 0, 53, 66
2, 13564, Note_on_c, 0, 58, 65
2, 13578, Note_on_c, 0, 65, 0
2, 13578, Note_on_c, 0, 62, 0
2, 13579, Note_on_c, 0, 53, 0
2, 13580, Note_on_c, 0, 58, 0
2, 13601, Note_on_c, 0, 62, 61
2, 13601, Note_on_c, 0, 65, 62
2, 13602, Note_on_c, 0, 53, 60
2, 13603, Note_on_c, 0, 58, 60
2, 13618, Note_on_c, 0, 65, 0
2, 13619, Note_on_c, 0, 53, 0
2, 13619, Note_on_c, 0, 58, 0
2, 13619, Note_on_c, 0, 62, 0
2, 13642, Note_on_c, 0, 62, 60
2, 13642, Note_on_c, 0, 65, 60
2, 13643, Note_on_c, 0, 53, 60
2, 13643, Note_on_c, 0, 58, 60
2, 13650, Control_c, 0, 64, 0
2, 13667, Note_on_c, 0, 65, 0
2, 13668, Note_on_c, 0, 53, 0
2, 13668, Note_on_c, 0, 62, 0
2, 13669, Note_on_c, 0, 58, 0
2, 13686, Note_on_c, 0, 41, 60
2, 13719, Note_on_c, 0, 77, 0
2, 13742, Note_on_c, 0, 57, 60
2, 13742, Note_on_c, 0, 65, 60
2, 13743, Note_on_c, 0, 53, 60
2, 13743, Note_on_c, 0, 60, 60
2, 13743, Note_on_c, 0, 63, 59
2, 13764, Control_c, 0, 64, 127
2, 13768, Note_on_c, 0, 65, 0
2, 13768, Note_on_c, 0, 57, 0
2, 13769, Note_on_c, 0, 53, 0
2, 13769, Note_on_c, 0, 60, 0
2, 13770, Note_on_c, 0, 63, 0
2, 13791, Note_on_c, 0, 65, 63
2, 13792, Note_on_c, 0, 57, 64
2, 13793, Note_on_c, 0, 53, 64
2, 13793, Note_on_c, 0, 60, 64
2, 13793, Note_on_c, 0, 63, 63
2, 13800, Note_on_c, 0, 41, 0
2, 13816, Note_on_c, 0, 65, 0
2, 13817, Note_on_c, 0, 57, 0
2, 13818, Note_on_c, 0, 53, 0
2, 13818, Note_on_c, 0, 60, 0
2, 13818, Note_on_c, 0, 63, 0
2, 13833, Note_on_c, 0, 69, 67
2, 13841, Note_on_c, 0, 57, 64
2, 13842, Note_on_c, 0, 53, 64
2, 13867, Note_on_c, 0, 53, 0
2, 13867, Note_on_c, 0, 57, 0
2, 13890, Note_on_c, 0, 65, 63
2, 13891, Note_on_c, 0, 57, 64
2, 13891, Note_on_c, 0, 60, 64
2, 13892, Note_on_c, 0, 53, 63
2, 13892, Note_on_c, 0, 63, 64
2, 13898, Note_on_c, 0, 69, 0
2, 13916, Note_on_c, 0, 65, 0
2, 13916, Note_on_c, 0, 57, 0
2, 13917, Note_on_c, 0, 60, 0
2, 13917, Note_on_c, 0, 53, 0
2, 13917, Note_on_c, 0, 63, 0
2, 13940, Note_on_c, 0, 65, 64
2, 13941, Note_on_c, 0, 53, 63
2, 13941, Note_on_c, 0, 60, 62
2, 13941, Note_on_c, 0, 63, 61
2, 13958, Control_c, 0, 64, 0
2, 13965, Note_on_c, 0, 65, 0
2, 13966, Note_on_c, 0, 60, 0
2, 13967, Note_on_c, 0, 53, 0
2, 13968, Note_on_c, 0, 63, 0
2, 13990, Note_on_c, 0, 70, 65
2, 13991, Note_on_c, 0, 58, 60
2, 13992, Note_on_c, 0, 34, 60
2, 14041, Control_c, 0, 64, 127
2, 14067, Note_on_c, 0, 62, 60
2, 14067, Note_on_c, 0, 65, 60
2, 14069, Note_on_c, 0, 36, 60
2, 14092, Note_on_c, 0, 65, 0
2, 14093, Note_on_c, 0, 62, 0
2, 14109, Note_on_c, 0, 38, 63
2, 14117, Note_on_c, 0, 65, 64
2, 14118, Note_on_c, 0, 62, 65
2, 14124, Note_on_c, 0, 34, 0
2, 14125, Note_on_c, 0, 36, 0
2, 14135, Note_on_c, 0, 38, 0
2, 14143, Note_on_c, 0, 65, 0
2, 14144, Note_on_c, 0, 62, 0
2, 14149, Note_on_c, 0, 39, 71
2, 14167, Note_on_c, 0, 62, 72
2, 14167, Note_on_c, 0, 65, 70
2, 14175, Control_c, 0, 64, 0
2, 14179, Note_on_c, 0, 41, 75
2, 14192, Note_on_c, 0, 65, 0
2, 14193, Note_on_c, 0, 62, 0
2, 14194, Note_on_c, 0, 39, 0
2, 14215, Note_on_c, 0, 62, 79
2, 14215, Note_on_c, 0, 65, 78
2, 14222, Note_on_c, 0, 41, 0
2, 14226, Note_on_c, 0, 42, 82
2, 14230, Note_on_c, 0, 65, 0
2, 14231, Note_on_c, 0, 62, 0
2, 14251, Note_on_c, 0, 42, 0
2, 14254, Note_on_c, 0, 65, 77
2, 14255, Note_on_c, 0, 62, 86
2, 14267, Note_on_c, 0, 41, 87
2, 14280, Note_on_c, 0, 65, 0
2, 14281, Note_on_c, 0, 62, 0
2, 14287, Control_c, 0, 64, 127
2, 14305, Note_on_c, 0, 62, 79
2, 14305, Note_on_c, 0, 65, 70
2, 14310, Note_on_c, 0, 70, 0
2, 14311, Note_on_c, 0, 58, 0
2, 14330, Note_on_c, 0, 65, 0
2, 14331, Note_on_c, 0, 62, 0
2, 14352, Control_c, 0, 64, 0
2, 14354, Note_on_c, 0, 62, 72
2, 14354, Note_on_c, 0, 65, 64
2, 14380, Note_on_c, 0, 62, 0
2, 14385, Note_on_c, 0, 34, 68
2, 14388, Note_on_c, 0, 65, 0
2, 14400, Note_on_c, 0, 41, 0
2, 14423, Note_on_c, 0, 46, 66
2, 14432, Note_on_c, 0, 70, 66
2, 14433, Note_on_c, 0, 58, 67
2, 14453, Control_c, 0, 64, 127
2, 14468, Note_on_c, 0, 58, 0
2, 14468, Note_on_c, 0, 34, 0
2, 14468, Note_on_c, 0, 46, 0
2, 14477, Note_on_c, 0, 70, 0
2, 14481, Note_on_c, 0, 62, 61
2, 14481, Note_on_c, 0, 65, 61
2, 14499, Control_c, 0, 64, 0
2, 14506, Note_on_c, 0, 65, 0
2, 14507, Note_on_c, 0, 62, 0
2, 14520, Note_on_c, 0, 46, 62
2, 14529, Note_on_c, 0, 62, 64
2, 14529, Note_on_c, 0, 65, 60
2, 14554, Note_on_c, 0, 65, 0
2, 14555, Note_on_c, 0, 62, 0
2, 14579, Note_on_c, 0, 60, 64
2, 14598, Note_on_c, 0, 63, 61
2, 14599, Note_on_c, 0, 75, 72
2, 14610, Control_c, 0, 64, 127
2, 14644, Note_on_c, 0, 63, 0
2, 14653, Note_on_c, 0, 60, 0
2, 14663, Note_on_c, 0, 75, 0
2, 14676, Note_on_c, 0, 66, 63
2, 14677, Note_on_c, 0, 54, 61
2, 14677, Note_on_c, 0, 69, 65
2, 14678, Note_on_c, 0, 51, 62
2, 14701, Note_on_c, 0, 66, 0
2, 14702, Note_on_c, 0, 69, 0
2, 14702, Note_on_c, 0, 54, 0
2, 14703, Note_on_c, 0, 46, 0
2, 14703, Note_on_c, 0, 51, 0
2, 14725, Note_on_c, 0, 66, 67
2, 14726, Note_on_c, 0, 46, 67
2, 14726, Note_on_c, 0, 54, 68
2, 14726, Note_on_c, 0, 69, 69
2, 14727, Note_on_c, 0, 51, 67
2, 14751, Note_on_c, 0, 66, 0
2, 14752, Note_on_c, 0, 69, 0
2, 14752, Note_on_c, 0, 51, 0
2, 14752, Note_on_c, 0, 54, 0
2, 14753, Note_on_c, 0, 46, 0
2, 14775, Note_on_c, 0, 66, 68
2, 14776, Note_on_c, 0, 54, 68
2, 14776, Note_on_c, 0, 69, 69
2, 14777, Note_on_c, 0, 46, 68
2, 14777, Note_on_c, 0, 51, 68
2, 14791, Note_on_c, 0, 66, 0
2, 14792, Note_on_c, 0, 54, 0
2, 14793, Note_on_c, 0, 51, 0
2, 14793, Note_on_c, 0, 69, 0
2, 14794, Note_on_c, 0, 46, 0
2, 14815, Note_on_c, 0, 66, 68
2, 14816, Note_on_c, 0, 54, 68
2, 14816, Note_on_c, 0, 69, 69
2, 14817, Note_on_c, 0, 46, 68
2, 14817, Note_on_c, 0, 51, 68
2, 14830, Note_on_c, 0, 66, 0
2, 14831, Note_on_c, 0, 69, 0
2, 14832, Note_on_c, 0, 54, 0
2, 14832, Note_on_c, 0, 46, 0
2, 14832, Note_on_c, 0, 51, 0
2, 14854, Note_on_c, 0, 66, 68
2, 14855, Note_on_c, 0, 54, 68
2, 14855, Note_on_c, 0, 69, 69
2, 14856, Note_on_c, 0, 46, 68
2, 14856, Note_on_c, 0, 51, 68
2, 14879, Note_on_c, 0, 66, 0
2, 14880, Note_on_c, 0, 54, 0
2, 14880, Note_on_c, 0, 69, 0
2, 14881, Note_on_c, 0, 46, 0
2, 14881, Note_on_c, 0, 51, 0
2, 14904, Note_on_c, 0, 66, 68
2, 14905, Note_on_c, 0, 54, 68
2, 14905, Note_on_c, 0, 69, 69
2, 14906, Note_on_c, 0, 46, 68
2, 14906, Note_on_c, 0, 51, 68
2, 14919, Note_on_c, 0, 66, 0
2, 14920, Note_on_c, 0, 46, 0
2, 14920, Note_on_c, 0, 54, 0
2, 14920, Note_on_c, 0, 69, 0
2, 14920, Note_on_c, 0, 51, 0
2, 14942, Note_on_c, 0, 66, 68
2, 14943, Note_on_c, 0, 54, 67
2, 14943, Note_on_c, 0, 69, 68
2, 14944, Note_on_c, 0, 46, 66
2, 14944, Note_on_c, 0, 51, 65
2, 14967, Note_on_c, 0, 66, 0
2, 14968, Note_on_c, 0, 69, 0
2, 14969, Note_on_c, 0, 54, 0
2, 14970, Note_on_c, 0, 51, 0
2, 14970, Note_on_c, 0, 46, 0
2, 14992, Note_on_c, 0, 66, 62
2, 14993, Note_on_c, 0, 54, 60
2, 14994, Note_on_c, 0, 46, 60
2, 14994, Note_on_c, 0, 51, 60
2, 15009, Note_on_c, 0, 66, 0
2, 15010, Note_on_c, 0, 54, 0
2, 15011, Note_on_c, 0, 46, 0
2, 15011, Note_on_c, 0, 51, 0
2, 15032, Note_on_c, 0, 57, 62
2, 15033, Note_on_c, 0, 69, 67
2, 15082, Note_on_c, 0, 54, 60
2, 15082, Note_on_c, 0, 60, 60
2, 15083, Note_on_c, 0, 46, 59
2, 15083, Note_on_c, 0, 51, 60
2, 15107, Note_on_c, 0, 51, 0
2, 15107, Note_on_c, 0, 60, 0
2, 15107, Note_on_c, 0, 54, 0
2, 15107, Note_on_c, 0, 46, 0
2, 15131, Note_on_c, 0, 54, 59
2, 15131, Note_on_c, 0, 60, 60
2, 15131, Note_on_c, 0, 63, 59
2, 15131, Note_on_c, 0, 46, 60
2, 15131, Note_on_c, 0, 51, 60
2, 15155, Note_on_c, 0, 60, 0
2, 15156, Note_on_c, 0, 46, 0
2, 15156, Note_on_c, 0, 54, 0
2, 15156, Note_on_c, 0, 51, 0
2, 15157, Control_c, 0, 64, 0
2, 15164, Note_on_c, 0, 57, 0
2, 15165, Note_on_c, 0, 69, 0
2, 15166, Note_on_c, 0, 63, 0
2, 15190, Note_on_c, 0, 34, 60
2, 15208, Note_on_c, 0, 60, 64
2, 15256, Note_on_c, 0, 72, 68
2, 15297, Control_c, 0, 64, 127
2, 15316, Note_on_c, 0, 36, 60
2, 15322, Note_on_c, 0, 34, 0
2, 15330, Note_on_c, 0, 72, 0
2, 15340, Note_on_c, 0, 60, 0
2, 15344, Note_on_c, 0, 62, 60
2, 15344, Note_on_c, 0, 65, 60
2, 15360, Note_on_c, 0, 65, 0
2, 15361, Note_on_c, 0, 62, 0
2, 15366, Note_on_c, 0, 38, 60
2, 15382, Note_on_c, 0, 36, 0
2, 15384, Note_on_c, 0, 65, 56
2, 15385, Note_on_c, 0, 62, 56
2, 15392, Note_on_c, 0, 38, 0
2, 15396, Note_on_c, 0, 39, 59
2, 15410, Note_on_c, 0, 65, 0
2, 15411, Note_on_c, 0, 62, 0
2, 15434, Note_on_c, 0, 70, 62
2, 15435, Note_on_c, 0, 58, 65
2, 15445, Note_on_c, 0, 41, 66
2, 15451, Note_on_c, 0, 39, 0
2, 15484, Note_on_c, 0, 62, 69
2, 15484, Note_on_c, 0, 65, 69
2, 15491, Note_on_c, 0, 41, 0
2, 15491, Control_c, 0, 64, 0
2, 15495, Note_on_c, 0, 42, 73
2, 15509, Note_on_c, 0, 65, 0
2, 15510, Note_on_c, 0, 62, 0
2, 15521, Note_on_c, 0, 42, 0
2, 15534, Note_on_c, 0, 62, 77
2, 15534, Note_on_c, 0, 65, 72
2, 15536, Note_on_c, 0, 41, 78
2, 15559, Note_on_c, 0, 65, 0
2, 15560, Note_on_c, 0, 62, 0
2, 15571, Note_on_c, 0, 41, 0
2, 15583, Note_on_c, 0, 62, 85
2, 15583, Note_on_c, 0, 65, 77
2, 15599, Note_on_c, 0, 65, 0
2, 15600, Note_on_c, 0, 62, 0
2, 15623, Note_on_c, 0, 62, 81
2, 15623, Note_on_c, 0, 65, 74
2, 15649, Note_on_c, 0, 62, 0
2, 15658, Note_on_c, 0, 65, 0
2, 15683, Note_on_c, 0, 46, 75
2, 15683, Note_on_c, 0, 34, 73
2, 15691, Note_on_c, 0, 62, 72
2, 15691, Note_on_c, 0, 65, 75
2, 15707, Note_on_c, 0, 65, 0
2, 15707, Note_on_c, 0, 62, 0
2, 15713, Control_c, 0, 64, 127
2, 15739, Note_on_c, 0, 34, 0
2, 15740, Note_on_c, 0, 65, 69
2, 15741, Note_on_c, 0, 62, 69
2, 15748, Note_on_c, 0, 46, 0
2, 15756, Note_on_c, 0, 70, 0
2, 15757, Note_on_c, 0, 58, 0
2, 15766, Note_on_c, 0, 65, 0
2, 15767, Note_on_c, 0, 62, 0
2, 15779, Control_c, 0, 64, 0
2, 15790, Note_on_c, 0, 65, 73
2, 15791, Note_on_c, 0, 62, 76
2, 15805, Note_on_c, 0, 65, 0
2, 15806, Note_on_c, 0, 62, 0
2, 15822, Note_on_c, 0, 46, 79
2, 15840, Note_on_c, 0, 60, 82
2, 15841, Note_on_c, 0, 51, 84
2, 15841, Note_on_c, 0, 63, 85
2, 15841, Note_on_c, 0, 75, 82
2, 15851, Note_on_c, 0, 54, 86
2, 15856, Note_on_c, 0, 46, 0
2, 15875, Note_on_c, 0, 51, 0
2, 15875, Note_on_c, 0, 54, 0
2, 15889, Control_c, 0, 64, 127
2, 15898, Note_on_c, 0, 46, 93
2, 15898, Note_on_c, 0, 54, 94
2, 15898, Note_on_c, 0, 66, 90
2, 15899, Note_on_c, 0, 51, 95
2, 15899, Note_on_c, 0, 69, 92
2, 15913, Note_on_c, 0, 60, 0
2, 15923, Note_on_c, 0, 69, 0
2, 15923, Note_on_c, 0, 66, 0
2, 15923, Note_on_c, 0, 54, 0
2, 15923, Note_on_c, 0, 51, 0
2, 15924, Note_on_c, 0, 46, 0
2, 15946, Note_on_c, 0, 66, 90
2, 15947, Note_on_c, 0, 46, 88
2, 15947, Note_on_c, 0, 51, 87
2, 15947, Note_on_c, 0, 54, 86
2, 15947, Note_on_c, 0, 69, 89
2, 15971, Note_on_c, 0, 54, 0
2, 15971, Note_on_c, 0, 66, 0
2, 15972, Note_on_c, 0, 51, 0
2, 15972, Note_on_c, 0, 46, 0
2, 15972, Note_on_c, 0, 69, 0
2, 15995, Note_on_c, 0, 66, 84
2, 15995, Note_on_c, 0, 46, 80
2, 15995, Note_on_c, 0, 51, 79
2, 15995, Note_on_c, 0, 54, 78
2, 15995, Note_on_c, 0, 69, 83
2, 16010, Note_on_c, 0, 66, 0
2, 16011, Note_on_c, 0, 54, 0
2, 16012, Note_on_c, 0, 51, 0
2, 16012, Note_on_c, 0, 46, 0
2, 16012, Note_on_c, 0, 69, 0
2, 16031, Note_on_c, 0, 63, 0
2, 16035, Note_on_c, 0, 66, 76
2, 16036, Note_on_c, 0, 46, 71
2, 16036, Note_on_c, 0, 51, 70
2, 16036, Note_on_c, 0, 54, 69
2, 16036, Note_on_c, 0, 69, 76
2, 16050, Note_on_c, 0, 66, 0
2, 16051, Note_on_c, 0, 54, 0
2, 16052, Note_on_c, 0, 51, 0
2, 16052, Note_on_c, 0, 75, 0
2, 16052, Note_on_c, 0, 69, 0
2, 16052, Note_on_c, 0, 46, 0
2, 16075, Note_on_c, 0, 66, 70
2, 16076, Note_on_c, 0, 46, 65
2, 16076, Note_on_c, 0, 51, 64
2, 16076, Note_on_c, 0, 54, 63
2, 16091, Note_on_c, 0, 54, 0
2, 16091, Note_on_c, 0, 51, 0
2, 16091, Note_on_c, 0, 66, 0
2, 16092, Note_on_c, 0, 46, 0
2, 16115, Note_on_c, 0, 57, 65
2, 16115, Note_on_c, 0, 69, 73
2, 16165, Note_on_c, 0, 60, 63
2, 16166, Note_on_c, 0, 46, 64
2, 16166, Note_on_c, 0, 51, 64
2, 16166, Note_on_c, 0, 54, 63
2, 16166, Note_on_c, 0, 63, 64
2, 16190, Note_on_c, 0, 57, 0
2, 16191, Note_on_c, 0, 54, 0
2, 16191, Note_on_c, 0, 60, 0
2, 16192, Note_on_c, 0, 46, 0
2, 16192, Note_on_c, 0, 51, 0
2, 16192, Note_on_c, 0, 63, 0
2, 16215, Note_on_c, 0, 60, 66
2, 16216, Note_on_c, 0, 46, 67
2, 16216, Note_on_c, 0, 51, 68
2, 16216, Note_on_c, 0, 54, 67
2, 16216, Note_on_c, 0, 63, 68
2, 16240, Note_on_c, 0, 54, 0
2, 16240, Note_on_c, 0, 60, 0
2, 16241, Note_on_c, 0, 51, 0
2, 16241, Note_on_c, 0, 46, 0
2, 16241, Note_on_c, 0, 63, 0
2, 16242, Note_on_c, 0, 69, 0
2, 16265, Note_on_c, 0, 46, 68
2, 16265, Note_on_c, 0, 51, 68
2, 16265, Note_on_c, 0, 54, 67
2, 16265, Note_on_c, 0, 60, 68
2, 16265, Note_on_c, 0, 63, 67
2, 16289, Note_on_c, 0, 60, 0
2, 16290, Note_on_c, 0, 54, 0
2, 16290, Note_on_c, 0, 46, 0
2, 16290, Note_on_c, 0, 51, 0
2, 16290, Note_on_c, 0, 63, 0
2, 16313, Note_on_c, 0, 46, 68
2, 16313, Note_on_c, 0, 54, 67
2, 16313, Note_on_c, 0, 60, 66
2, 16313, Note_on_c, 0, 63, 65
2, 16329, Note_on_c, 0, 60, 0
2, 16329, Note_on_c, 0, 54, 0
2, 16330, Note_on_c, 0, 46, 0
2, 16330, Note_on_c, 0, 63, 0
2, 16352, Note_on_c, 0, 57, 60
2, 16353, Note_on_c, 0, 46, 60
2, 16353, Note_on_c, 0, 51, 60
2, 16353, Note_on_c, 0, 54, 59
2, 16354, Note_on_c, 0, 69, 77
2, 16378, Note_on_c, 0, 54, 0
2, 16379, Note_on_c, 0, 51, 0
2, 16379, Note_on_c, 0, 46, 0
2, 16397, Note_on_c, 0, 57, 0
2, 16398, Note_on_c, 0, 69, 0
2, 16406, Control_c, 0, 64, 0
2, 16429, Note_on_c, 0, 34, 60
2, 16457, Note_on_c, 0, 62, 62
2, 16458, Note_on_c, 0, 60, 65
2, 16459, Note_on_c, 0, 72, 78
2, 16484, Note_on_c, 0, 62, 0
2, 16507, Note_on_c, 0, 62, 64
2, 16507, Note_on_c, 0, 65, 69
2, 16514, Note_on_c, 0, 34, 0
2, 16518, Note_on_c, 0, 36, 64
2, 16526, Control_c, 0, 64, 127
2, 16532, Note_on_c, 0, 62, 0
2, 16532, Note_on_c, 0, 65, 0
2, 16555, Note_on_c, 0, 62, 65
2, 16555, Note_on_c, 0, 65, 68
2, 16561, Note_on_c, 0, 36, 0
2, 16561, Note_on_c, 0, 60, 0
2, 16565, Note_on_c, 0, 38, 68
2, 16571, Note_on_c, 0, 72, 0
2, 16579, Note_on_c, 0, 62, 0
2, 16588, Note_on_c, 0, 65, 0
2, 16589, Note_on_c, 0, 38, 0
2, 16593, Note_on_c, 0, 39, 70
2, 16598, Control_c, 0, 64, 0
2, 16603, Note_on_c, 0, 58, 75
2, 16612, Note_on_c, 0, 70, 70
2, 16628, Note_on_c, 0, 39, 0
2, 16632, Note_on_c, 0, 41, 79
2, 16667, Note_on_c, 0, 41, 0
2, 16669, Note_on_c, 0, 65, 74
2, 16670, Note_on_c, 0, 62, 78
2, 16671, Note_on_c, 0, 42, 78
2, 16695, Note_on_c, 0, 62, 0
2, 16695, Note_on_c, 0, 65, 0
2, 16706, Note_on_c, 0, 42, 0
2, 16711, Note_on_c, 0, 41, 83
2, 16718, Note_on_c, 0, 62, 85
2, 16718, Note_on_c, 0, 65, 69
2, 16729, Control_c, 0, 64, 127
2, 16735, Note_on_c, 0, 65, 0
2, 16735, Note_on_c, 0, 62, 0
2, 16758, Note_on_c, 0, 65, 65
2, 16759, Note_on_c, 0, 62, 79
2, 16764, Note_on_c, 0, 70, 0
2, 16765, Note_on_c, 0, 58, 0
2, 16784, Note_on_c, 0, 65, 0
2, 16785, Note_on_c, 0, 62, 0
2, 16805, Control_c, 0, 64, 0
2, 16809, Note_on_c, 0, 62, 73
2, 16809, Note_on_c, 0, 65, 61
2, 16830, Note_on_c, 0, 34, 72
2, 16853, Note_on_c, 0, 65, 0
2, 16854, Note_on_c, 0, 62, 0
2, 16864, Note_on_c, 0, 41, 0
2, 16886, Note_on_c, 0, 46, 66
2, 16886, Note_on_c, 0, 58, 64
2, 16895, Note_on_c, 0, 70, 66
2, 16934, Control_c, 0, 64, 127
2, 16943, Note_on_c, 0, 62, 61
2, 16953, Note_on_c, 0, 65, 62
2, 16969, Note_on_c, 0, 62, 0
2, 16970, Note_on_c, 0, 34, 0
2, 16971, Note_on_c, 0, 46, 0
2, 16979, Note_on_c, 0, 65, 0
2, 16980, Control_c, 0, 64, 0
2, 17002, Note_on_c, 0, 65, 62
2, 17003, Note_on_c, 0, 62, 63
2, 17027, Note_on_c, 0, 65, 0
2, 17028, Note_on_c, 0, 62, 0
2, 17052, Note_on_c, 0, 42, 69
2, 17097, Note_on_c, 0, 58, 0
2, 17100, Note_on_c, 0, 50, 77
2, 17111, Control_c, 0, 64, 127
2, 17116, Note_on_c, 0, 70, 0
2, 17120, Note_on_c, 0, 57, 80
2, 17120, Note_on_c, 0, 62, 81
2, 17120, Note_on_c, 0, 74, 104
2, 17121, Note_on_c, 0, 60, 82
2, 17145, Note_on_c, 0, 57, 0
2, 17146, Note_on_c, 0, 50, 0
2, 17146, Note_on_c, 0, 60, 0
2, 17147, Note_on_c, 0, 42, 0
2, 17195, Note_on_c, 0, 62, 0
2, 17218, Note_on_c, 0, 50, 79
2, 17218, Note_on_c, 0, 57, 77
2, 17218, Note_on_c, 0, 62, 76
2, 17219, Note_on_c, 0, 60, 75
2, 17229, Note_on_c, 0, 54, 74
2, 17243, Note_on_c, 0, 57, 0
2, 17244, Note_on_c, 0, 60, 0
2, 17244, Note_on_c, 0, 62, 0
2, 17254, Note_on_c, 0, 54, 0
2, 17267, Note_on_c, 0, 57, 78
2, 17267, Note_on_c, 0, 62, 79
2, 17268, Note_on_c, 0, 60, 80
2, 17291, Note_on_c, 0, 57, 0
2, 17292, Note_on_c, 0, 62, 0
2, 17292, Note_on_c, 0, 60, 0
2, 17301, Note_on_c, 0, 50, 0
2, 17315, Note_on_c, 0, 57, 83
2, 17315, Note_on_c, 0, 62, 82
2, 17315, Note_on_c, 0, 50, 81
2, 17315, Note_on_c, 0, 60, 80
2, 17340, Note_on_c, 0, 57, 0
2, 17341, Note_on_c, 0, 60, 0
2, 17341, Note_on_c, 0, 62, 0
2, 17350, Note_on_c, 0, 50, 0
2, 17364, Note_on_c, 0, 50, 74
2, 17364, Note_on_c, 0, 57, 75
2, 17364, Note_on_c, 0, 62, 76
2, 17365, Note_on_c, 0, 60, 77
2, 17389, Note_on_c, 0, 57, 0
2, 17390, Note_on_c, 0, 62, 0
2, 17390, Note_on_c, 0, 60, 0
2, 17390, Note_on_c, 0, 74, 0
2, 17400, Note_on_c, 0, 50, 0
2, 17414, Note_on_c, 0, 50, 83
2, 17414, Note_on_c, 0, 57, 84
2, 17414, Note_on_c, 0, 62, 85
2, 17415, Note_on_c, 0, 60, 86
2, 17439, Note_on_c, 0, 62, 0
2, 17439, Note_on_c, 0, 57, 0
2, 17440, Note_on_c, 0, 60, 0
2, 17450, Note_on_c, 0, 50, 0
2, 17464, Note_on_c, 0, 50, 91
2, 17464, Note_on_c, 0, 57, 92
2, 17464, Note_on_c, 0, 62, 93
2, 17465, Note_on_c, 0, 54, 94
2, 17465, Note_on_c, 0, 60, 95
2, 17489, Note_on_c, 0, 57, 0
2, 17490, Note_on_c, 0, 54, 0
2, 17490, Note_on_c, 0, 60, 0
2, 17490, Note_on_c, 0, 62, 0
2, 17513, Note_on_c, 0, 57, 96
2, 17513, Note_on_c, 0, 62, 96
2, 17514, Note_on_c, 0, 60, 95
2, 17530, Note_on_c, 0, 57, 0
2, 17531, Note_on_c, 0, 60, 0
2, 17531, Note_on_c, 0, 62, 0
2, 17552, Note_on_c, 0, 62, 96
2, 17553, Note_on_c, 0, 60, 95
2, 17568, Note_on_c, 0, 60, 0
2, 17568, Note_on_c, 0, 62, 0
2, 17581, Note_on_c, 0, 57, 92
2, 17583, Note_on_c, 0, 69, 108
2, 17640, Note_on_c, 0, 62, 91
2, 17641, Note_on_c, 0, 60, 85
2, 17656, Note_on_c, 0, 60, 0
2, 17656, Note_on_c, 0, 62, 0
2, 17679, Note_on_c, 0, 62, 80
2, 17680, Note_on_c, 0, 60, 78
2, 17704, Note_on_c, 0, 50, 0
2, 17705, Note_on_c, 0, 62, 0
2, 17705, Note_on_c, 0, 60, 0
2, 17714, Note_on_c, 0, 57, 0
2, 17720, Note_on_c, 0, 43, 71
2, 17734, Control_c, 0, 64, 0
2, 17745, Note_on_c, 0, 69, 0
2, 17747, Note_on_c, 0, 50, 69
2, 17748, Note_on_c, 0, 72, 94
2, 17767, Note_on_c, 0, 55, 68
2, 17801, Note_on_c, 0, 50, 0
2, 17815, Note_on_c, 0, 67, 86
2, 17816, Note_on_c, 0, 62, 67
2, 17826, Control_c, 0, 64, 127
2, 17835, Note_on_c, 0, 50, 65
2, 17841, Note_on_c, 0, 67, 0
2, 17842, Note_on_c, 0, 62, 0
2, 17842, Note_on_c, 0, 72, 0
2, 17843, Note_on_c, 0, 43, 0
2, 17851, Note_on_c, 0, 55, 0
2, 17865, Note_on_c, 0, 70, 80
2, 17869, Note_on_c, 0, 50, 0
2, 17890, Note_on_c, 0, 70, 0
2, 17893, Note_on_c, 0, 50, 60
2, 17894, Note_on_c, 0, 58, 60
2, 17914, Note_on_c, 0, 70, 76
2, 17918, Note_on_c, 0, 50, 0
2, 17919, Note_on_c, 0, 58, 0
2, 17933, Note_on_c, 0, 62, 60
2, 17942, Note_on_c, 0, 50, 60
2, 17943, Note_on_c, 0, 55, 60
2, 17944, Note_on_c, 0, 58, 60
2, 17953, Note_on_c, 0, 67, 70
2, 17959, Note_on_c, 0, 62, 0
2, 17968, Note_on_c, 0, 50, 0
2, 17969, Note_on_c, 0, 55, 0
2, 17969, Note_on_c, 0, 58, 0
2, 17969, Control_c, 0, 64, 0
2, 17992, Note_on_c, 0, 62, 60
2, 17993, Note_on_c, 0, 50, 60
2, 17993, Note_on_c, 0, 55, 60
2, 17994, Note_on_c, 0, 58, 59
2, 18018, Note_on_c, 0, 50, 0
2, 18019, Note_on_c, 0, 55, 0
2, 18019, Note_on_c, 0, 62, 0
2, 18019, Note_on_c, 0, 67, 0
2, 18020, Note_on_c, 0, 58, 0
2, 18029, Note_on_c, 0, 70, 0
2, 18035, Note_on_c, 0, 39, 60
2, 18062, Control_c, 0, 64, 127
2, 18072, Note_on_c, 0, 55, 64
2, 18098, Note_on_c, 0, 39, 0
2, 18102, Note_on_c, 0, 46, 64
2, 18112, Note_on_c, 0, 51, 64
2, 18112, Note_on_c, 0, 58, 64
2, 18112, Note_on_c, 0, 63, 63
2, 18128, Note_on_c, 0, 46, 0
2, 18128, Note_on_c, 0, 55, 0
2, 18137, Note_on_c, 0, 58, 0
2, 18137, Note_on_c, 0, 51, 0
2, 18137, Note_on_c, 0, 63, 0
2, 18159, Note_on_c, 0, 58, 64
2, 18160, Note_on_c, 0, 46, 64
2, 18160, Note_on_c, 0, 51, 64
2, 18160, Note_on_c, 0, 63, 63
2, 18185, Note_on_c, 0, 63, 0
2, 18185, Note_on_c, 0, 58, 0
2, 18185, Note_on_c, 0, 46, 0
2, 18185, Note_on_c, 0, 51, 0
2, 18208, Note_on_c, 0, 67, 92
2, 18209, Note_on_c, 0, 46, 64
2, 18209, Note_on_c, 0, 55, 64
2, 18209, Note_on_c, 0, 63, 63
2, 18210, Note_on_c, 0, 51, 64
2, 18234, Note_on_c, 0, 55, 0
2, 18235, Note_on_c, 0, 63, 0
2, 18235, Note_on_c, 0, 51, 0
2, 18235, Note_on_c, 0, 46, 0
2, 18255, Control_c, 0, 64, 0
2, 18258, Note_on_c, 0, 55, 64
2, 18259, Note_on_c, 0, 46, 64
2, 18259, Note_on_c, 0, 51, 64
2, 18259, Note_on_c, 0, 58, 63
2, 18259, Note_on_c, 0, 63, 64
2, 18283, Note_on_c, 0, 55, 0
2, 18284, Note_on_c, 0, 46, 0
2, 18284, Note_on_c, 0, 51, 0
2, 18284, Note_on_c, 0, 58, 0
2, 18284, Note_on_c, 0, 63, 0
2, 18307, Note_on_c, 0, 55, 66
2, 18308, Note_on_c, 0, 46, 69
2, 18308, Note_on_c, 0, 51, 70
2, 18308, Note_on_c, 0, 58, 71
2, 18308, Note_on_c, 0, 63, 72
2, 18332, Note_on_c, 0, 55, 0
2, 18333, Note_on_c, 0, 46, 0
2, 18333, Note_on_c, 0, 51, 0
2, 18333, Note_on_c, 0, 58, 0
2, 18333, Note_on_c, 0, 63, 0
2, 18347, Note_on_c, 0, 36, 80
2, 18379, Note_on_c, 0, 67, 0
2, 18383, Note_on_c, 0, 55, 85
2, 18383, Note_on_c, 0, 57, 86
2, 18384, Note_on_c, 0, 63, 87
2, 18384, Note_on_c, 0, 69, 94
2, 18403, Note_on_c, 0, 43, 85
2, 18413, Control_c, 0, 64, 127
2, 18417, Note_on_c, 0, 57, 0
2, 18437, Note_on_c, 0, 55, 0
2, 18437, Note_on_c, 0, 43, 0
2, 18441, Note_on_c, 0, 45, 78
2, 18457, Note_on_c, 0, 36, 0
2, 18460, Note_on_c, 0, 55, 75
2, 18460, Note_on_c, 0, 57, 74
2, 18461, Note_on_c, 0, 51, 73
2, 18476, Note_on_c, 0, 69, 0
2, 18480, Note_on_c, 0, 43, 71
2, 18484, Note_on_c, 0, 57, 0
2, 18485, Note_on_c, 0, 55, 0
2, 18485, Note_on_c, 0, 51, 0
2, 18486, Note_on_c, 0, 63, 0
2, 18494, Note_on_c, 0, 45, 0
2, 18505, Note_on_c, 0, 43, 0
2, 18509, Note_on_c, 0, 45, 68
2, 18509, Note_on_c, 0, 55, 68
2, 18509, Note_on_c, 0, 57, 67
2, 18510, Note_on_c, 0, 51, 68
2, 18510, Note_on_c, 0, 63, 68
2, 18519, Note_on_c, 0, 43, 67
2, 18534, Note_on_c, 0, 57, 0
2, 18535, Note_on_c, 0, 51, 0
2, 18535, Note_on_c, 0, 55, 0
2, 18536, Note_on_c, 0, 63, 0
2, 18544, Note_on_c, 0, 45, 0
2, 18545, Note_on_c, 0, 43, 0
2, 18559, Note_on_c, 0, 55, 68
2, 18560, Note_on_c, 0, 63, 68
2, 18568, Note_on_c, 0, 45, 68
2, 18569, Note_on_c, 0, 43, 68
2, 18585, Note_on_c, 0, 55, 0
2, 18586, Note_on_c, 0, 63, 0
2, 18589, Note_on_c, 0, 51, 68
2, 18593, Note_on_c, 0, 45, 0
2, 18594, Note_on_c, 0, 43, 0
2, 18607, Note_on_c, 0, 55, 67
2, 18608, Note_on_c, 0, 63, 66
2, 18613, Note_on_c, 0, 51, 0
2, 18622, Note_on_c, 0, 55, 0
2, 18623, Note_on_c, 0, 63, 0
2, 18632, Control_c, 0, 64, 0
2, 18636, Note_on_c, 0, 45, 62
2, 18637, Note_on_c, 0, 51, 61
2, 18646, Note_on_c, 0, 55, 61
2, 18647, Note_on_c, 0, 63, 60
2, 18661, Note_on_c, 0, 45, 0
2, 18662, Note_on_c, 0, 51, 0
2, 18662, Note_on_c, 0, 55, 0
2, 18663, Note_on_c, 0, 63, 0
2, 18685, Note_on_c, 0, 50, 63
2, 18685, Note_on_c, 0, 57, 65
2, 18685, Note_on_c, 0, 66, 84
2, 18686, Note_on_c, 0, 45, 66
2, 18686, Note_on_c, 0, 54, 67
2, 18686, Note_on_c, 0, 62, 68
2, 18687, Note_on_c, 0, 38, 67
2, 18711, Note_on_c, 0, 45, 0
2, 18711, Note_on_c, 0, 57, 0
2, 18711, Note_on_c, 0, 50, 0
2, 18712, Note_on_c, 0, 54, 0
2, 18712, Note_on_c, 0, 62, 0
2, 18712, Note_on_c, 0, 38, 0
2, 18735, Note_on_c, 0, 45, 68
2, 18735, Note_on_c, 0, 50, 68
2, 18735, Note_on_c, 0, 62, 67
2, 18736, Note_on_c, 0, 38, 68
2, 18736, Note_on_c, 0, 54, 68
2, 18745, Control_c, 0, 64, 127
2, 18760, Note_on_c, 0, 50, 0
2, 18760, Note_on_c, 0, 45, 0
2, 18761, Note_on_c, 0, 62, 0
2, 18761, Note_on_c, 0, 54, 0
2, 18762, Note_on_c, 0, 38, 0
2, 18771, Note_on_c, 0, 66, 0
2, 18784, Note_on_c, 0, 50, 68
2, 18784, Note_on_c, 0, 62, 68
2, 18785, Note_on_c, 0, 45, 67
2, 18785, Note_on_c, 0, 54, 68
2, 18786, Note_on_c, 0, 38, 67
2, 18809, Note_on_c, 0, 50, 0
2, 18810, Note_on_c, 0, 54, 0
2, 18810, Note_on_c, 0, 62, 0
2, 18810, Note_on_c, 0, 45, 0
2, 18811, Note_on_c, 0, 38, 0
2, 18833, Note_on_c, 0, 50, 68
2, 18833, Note_on_c, 0, 62, 68
2, 18834, Note_on_c, 0, 45, 67
2, 18835, Note_on_c, 0, 54, 68
2, 18836, Note_on_c, 0, 38, 68
2, 18859, Note_on_c, 0, 50, 0
2, 18860, Note_on_c, 0, 54, 0
2, 18860, Note_on_c, 0, 62, 0
2, 18860, Note_on_c, 0, 45, 0
2, 18861, Note_on_c, 0, 38, 0
2, 18883, Note_on_c, 0, 50, 68
2, 18884, Note_on_c, 0, 45, 68
2, 18885, Note_on_c, 0, 38, 68
2, 18885, Note_on_c, 0, 54, 68
2, 18899, Note_on_c, 0, 45, 0
2, 18899, Note_on_c, 0, 50, 0
2, 18900, Note_on_c, 0, 38, 0
2, 18909, Note_on_c, 0, 54, 0
2, 18909, Control_c, 0, 64, 0
2, 18922, Note_on_c, 0, 62, 67
2, 18923, Note_on_c, 0, 50, 68
2, 18923, Note_on_c, 0, 66, 68
2, 18923, Note_on_c, 0, 38, 68
2, 18923, Note_on_c, 0, 45, 68
2, 18947, Note_on_c, 0, 66, 0
2, 18947, Note_on_c, 0, 62, 0
2, 18947, Note_on_c, 0, 50, 0
2, 18948, Note_on_c, 0, 45, 0
2, 18949, Note_on_c, 0, 38, 0
2, 18991, Note_on_c, 0, 67, 72
2, 18992, Note_on_c, 0, 55, 78
2, 18992, Note_on_c, 0, 62, 79
2, 18993, Note_on_c, 0, 31, 80
2, 18993, Note_on_c, 0, 43, 81
2, 18993, Note_on_c, 0, 58, 82
2, 19020, Control_c, 0, 64, 127
2, 19026, Note_on_c, 0, 62, 0
2, 19026, Note_on_c, 0, 67, 0
2, 19026, Note_on_c, 0, 55, 0
2, 19027, Note_on_c, 0, 58, 0
2, 19097, Note_on_c, 0, 67, 81
2, 19098, Note_on_c, 0, 55, 98
2, 19123, Note_on_c, 0, 67, 0
2, 19124, Note_on_c, 0, 55, 0
2, 19167, Note_on_c, 0, 55, 101
2, 19167, Note_on_c, 0, 67, 89
2, 19192, Note_on_c, 0, 67, 0
2, 19193, Note_on_c, 0, 55, 0
2, 19235, Note_on_c, 0, 67, 88
2, 19236, Note_on_c, 0, 55, 102
2, 19261, Note_on_c, 0, 67, 0
2, 19262, Note_on_c, 0, 55, 0
2, 19296, Note_on_c, 0, 55, 102
2, 19296, Note_on_c, 0, 67, 88
2, 19321, Note_on_c, 0, 67, 0
2, 19322, Note_on_c, 0, 55, 0
2, 19345, Note_on_c, 0, 55, 105
2, 19345, Note_on_c, 0, 67, 86
2, 19370, Note_on_c, 0, 67, 0
2, 19371, Note_on_c, 0, 55, 0
2, 19394, Note_on_c, 0, 67, 85
2, 19395, Note_on_c, 0, 55, 106
2, 19395, Note_on_c, 0, 58, 106
2, 19419, Note_on_c, 0, 55, 0
2, 19419, Note_on_c, 0, 67, 0
2, 19420, Note_on_c, 0, 58, 0
2, 19442, Note_on_c, 0, 67, 91
2, 19443, Note_on_c, 0, 55, 104
2, 19444, Note_on_c, 0, 58, 103
2, 19458, Note_on_c, 0, 55, 0
2, 19458, Note_on_c, 0, 67, 0
2, 19459, Note_on_c, 0, 58, 0
2, 19482, Note_on_c, 0, 55, 100
2, 19482, Note_on_c, 0, 62, 98
2, 19482, Note_on_c, 0, 67, 95
2, 19483, Note_on_c, 0, 58, 97
2, 19499, Note_on_c, 0, 58, 0
2, 19499, Note_on_c, 0, 62, 0
2, 19499, Note_on_c, 0, 55, 0
2, 19499, Note_on_c, 0, 67, 0
2, 19522, Note_on_c, 0, 55, 93
2, 19522, Note_on_c, 0, 62, 92
2, 19522, Note_on_c, 0, 67, 93
2, 19523, Note_on_c, 0, 58, 91
2, 19538, Note_on_c, 0, 67, 0
2, 19538, Note_on_c, 0, 62, 0
2, 19538, Note_on_c, 0, 55, 0
2, 19539, Note_on_c, 0, 58, 0
2, 19561, Note_on_c, 0, 55, 91
2, 19561, Note_on_c, 0, 62, 90
2, 19562, Note_on_c, 0, 58, 89
2, 19562, Note_on_c, 0, 67, 91
2, 19587, Note_on_c, 0, 67, 0
2, 19587, Note_on_c, 0, 55, 0
2, 19587, Note_on_c, 0, 62, 0
2, 19588, Note_on_c, 0, 31, 0
2, 19588, Note_on_c, 0, 58, 0
2, 19588, Note_on_c, 0, 43, 0
2, 19611, Note_on_c, 0, 55, 85
2, 19611, Note_on_c, 0, 62, 87
2, 19611, Note_on_c, 0, 67, 91
2, 19612, Note_on_c, 0, 58, 88
2, 19626, Note_on_c, 0, 67, 0
2, 19627, Note_on_c, 0, 55, 0
2, 19627, Note_on_c, 0, 62, 0
2, 19627, Note_on_c, 0, 58, 0
2, 19650, Note_on_c, 0, 55, 89
2, 19650, Note_on_c, 0, 62, 87
2, 19650, Note_on_c, 0, 67, 88
2, 19651, Note_on_c, 0, 31, 86
2, 19651, Note_on_c, 0, 43, 85
2, 19651, Note_on_c, 0, 58, 84
2, 19666, Note_on_c, 0, 67, 0
2, 19667, Note_on_c, 0, 62, 0
2, 19667, Note_on_c, 0, 55, 0
2, 19667, Note_on_c, 0, 58, 0
2, 19676, Note_on_c, 0, 31, 0
2, 19677, Note_on_c, 0, 43, 0
2, 19690, Note_on_c, 0, 62, 75
2, 19690, Note_on_c, 0, 67, 83
2, 19691, Note_on_c, 0, 55, 76
2, 19691, Note_on_c, 0, 58, 76
2, 19699, Note_on_c, 0, 45, 75
2, 19700, Note_on_c, 0, 33, 76
2, 19715, Note_on_c, 0, 58, 0
2, 19715, Note_on_c, 0, 55, 0
2, 19715, Note_on_c, 0, 62, 0
2, 19715, Note_on_c, 0, 67, 0
2, 19724, Note_on_c, 0, 45, 0
2, 19725, Note_on_c, 0, 33, 0
2, 19739, Note_on_c, 0, 67, 80
2, 19739, Note_on_c, 0, 46, 76
2, 19739, Note_on_c, 0, 55, 76
2, 19739, Note_on_c, 0, 62, 75
2, 19740, Note_on_c, 0, 58, 76
2, 19742, Note_on_c, 0, 34, 76
2, 19764, Note_on_c, 0, 62, 0
2, 19764, Note_on_c, 0, 55, 0
2, 19764, Note_on_c, 0, 67, 0
2, 19765, Note_on_c, 0, 46, 0
2, 19765, Note_on_c, 0, 58, 0
2, 19765, Note_on_c, 0, 34, 0
2, 19788, Note_on_c, 0, 55, 70
2, 19788, Note_on_c, 0, 62, 72
2, 19788, Note_on_c, 0, 67, 78
2, 19789, Note_on_c, 0, 58, 73
2, 19798, Note_on_c, 0, 48, 74
2, 19799, Note_on_c, 0, 36, 75
2, 19813, Note_on_c, 0, 67, 0
2, 19813, Note_on_c, 0, 55, 0
2, 19814, Note_on_c, 0, 58, 0
2, 19814, Note_on_c, 0, 62, 0
2, 19823, Note_on_c, 0, 48, 0
2, 19824, Note_on_c, 0, 36, 0
2, 19833, Control_c, 0, 64, 0
2, 19836, Note_on_c, 0, 50, 86
2, 19836, Note_on_c, 0, 55, 87
2, 19836, Note_on_c, 0, 62, 88
2, 19836, Note_on_c, 0, 67, 84
2, 19837, Note_on_c, 0, 38, 89
2, 19837, Note_on_c, 0, 58, 90
2, 19861, Note_on_c, 0, 67, 0
2, 19861, Note_on_c, 0, 62, 0
2, 19862, Note_on_c, 0, 55, 0
2, 19862, Note_on_c, 0, 58, 0
2, 19863, Note_on_c, 0, 38, 0
2, 19872, Note_on_c, 0, 50, 0
2, 19886, Note_on_c, 0, 55, 98
2, 19886, Note_on_c, 0, 62, 99
2, 19886, Note_on_c, 0, 67, 88
2, 19887, Note_on_c, 0, 58, 100
2, 19888, Note_on_c, 0, 39, 101
2, 19888, Note_on_c, 0, 51, 102
2, 19902, Note_on_c, 0, 67, 0
2, 19903, Note_on_c, 0, 55, 0
2, 19904, Note_on_c, 0, 58, 0
2, 19904, Note_on_c, 0, 62, 0
2, 19914, Note_on_c, 0, 51, 0
2, 19914, Note_on_c, 0, 39, 0
2, 19927, Note_on_c, 0, 67, 91
2, 19928, Note_on_c, 0, 50, 107
2, 19928, Note_on_c, 0, 55, 107
2, 19928, Note_on_c, 0, 62, 106
2, 19929, Note_on_c, 0, 38, 107
2, 19929, Note_on_c, 0, 58, 107
2, 19953, Note_on_c, 0, 67, 0
2, 19954, Note_on_c, 0, 62, 0
2, 19954, Note_on_c, 0, 55, 0
2, 19955, Note_on_c, 0, 58, 0
2, 19973, Note_on_c, 0, 50, 0
2, 19974, Note_on_c, 0, 38, 0
2, 19986, Note_on_c, 0, 67, 77
2, 19987, Note_on_c, 0, 55, 96
2, 20011, Note_on_c, 0, 67, 0
2, 20012, Note_on_c, 0, 55, 0
2, 20034, Note_on_c, 0, 67, 70
2, 20035, Note_on_c, 0, 55, 90
2, 20059, Note_on_c, 0, 67, 0
2, 20060, Note_on_c, 0, 55, 0
2, 20082, Note_on_c, 0, 67, 65
2, 20093, Note_on_c, 0, 46, 83
2, 20094, Note_on_c, 0, 34, 82
2, 20107, Note_on_c, 0, 67, 0
2, 20118, Note_on_c, 0, 34, 0
2, 20118, Note_on_c, 0, 46, 0
2, 20130, Note_on_c, 0, 67, 60
2, 20131, Note_on_c, 0, 55, 76
2, 20151, Control_c, 0, 64, 127
2, 20155, Note_on_c, 0, 67, 0
2, 20156, Note_on_c, 0, 55, 0
2, 20178, Note_on_c, 0, 67, 60
2, 20179, Note_on_c, 0, 55, 71
2, 20204, Note_on_c, 0, 55, 0
2, 20204, Note_on_c, 0, 67, 0
2, 20224, Control_c, 0, 64, 0
2, 20226, Note_on_c, 0, 67, 60
2, 20227, Note_on_c, 0, 55, 66
2, 20247, Note_on_c, 0, 31, 64
2, 20247, Note_on_c, 0, 43, 62
2, 20251, Note_on_c, 0, 55, 0
2, 20251, Note_on_c, 0, 67, 0
2, 20274, Note_on_c, 0, 67, 59
2, 20275, Note_on_c, 0, 55, 60
2, 20300, Note_on_c, 0, 55, 0
2, 20300, Note_on_c, 0, 67, 0
2, 20322, Note_on_c, 0, 67, 59
2, 20323, Note_on_c, 0, 55, 60
2, 20325, Control_c, 0, 67, 127
2, 20347, Note_on_c, 0, 67, 0
2, 20348, Note_on_c, 0, 55, 0
2, 20371, Note_on_c, 0, 67, 57
2, 20372, Note_on_c, 0, 55, 57
2, 20392, Control_c, 0, 64, 127
2, 20396, Note_on_c, 0, 67, 0
2, 20397, Note_on_c, 0, 55, 0
2, 20420, Note_on_c, 0, 55, 57
2, 20420, Note_on_c, 0, 67, 57
2, 20445, Note_on_c, 0, 67, 0
2, 20446, Note_on_c, 0, 55, 0
2, 20469, Note_on_c, 0, 67, 57
2, 20470, Note_on_c, 0, 55, 57
2, 20495, Note_on_c, 0, 55, 0
2, 20495, Note_on_c, 0, 67, 0
2, 20519, Note_on_c, 0, 55, 57
2, 20519, Note_on_c, 0, 67, 57
2, 20534, Note_on_c, 0, 67, 0
2, 20534, Note_on_c, 0, 55, 0
2, 20557, Note_on_c, 0, 55, 57
2, 20557, Note_on_c, 0, 67, 57
2, 20582, Note_on_c, 0, 67, 0
2, 20583, Note_on_c, 0, 55, 0
2, 20606, Note_on_c, 0, 55, 60
2, 20606, Note_on_c, 0, 67, 57
2, 20622, Note_on_c, 0, 67, 0
2, 20622, Note_on_c, 0, 55, 0
2, 20632, Note_on_c, 0, 31, 0
2, 20644, Note_on_c, 0, 55, 57
2, 20644, Note_on_c, 0, 67, 54
2, 20669, Note_on_c, 0, 67, 0
2, 20669, Note_on_c, 0, 55, 0
2, 20679, Note_on_c, 0, 43, 0
2, 20692, Note_on_c, 0, 55, 53
2, 20693, Note_on_c, 0, 67, 51
2, 20717, Note_on_c, 0, 67, 0
2, 20718, Note_on_c, 0, 55, 0
2, 20741, Note_on_c, 0, 55, 50
2, 20741, Note_on_c, 0, 67, 49
2, 20766, Note_on_c, 0, 67, 0
2, 20767, Note_on_c, 0, 55, 0
2, 20790, Note_on_c, 0, 67, 50
2, 20791, Note_on_c, 0, 55, 52
2, 20806, Control_c, 0, 64, 0
2, 20815, Note_on_c, 0, 67, 0
2, 20816, Note_on_c, 0, 55, 0
2, 20839, Note_on_c, 0, 67, 54
2, 20840, Note_on_c, 0, 55, 52
2, 20841, Note_on_c, 0, 31, 51
2, 20865, Note_on_c, 0, 55, 0
2, 20865, Note_on_c, 0, 67, 0
2, 20888, Note_on_c, 0, 55, 50
2, 20888, Note_on_c, 0, 67, 57
2, 20889, Note_on_c, 0, 33, 51
2, 20912, Note_on_c, 0, 67, 0
2, 20913, Note_on_c, 0, 55, 0
2, 20917, Note_on_c, 0, 34, 56
2, 20936, Note_on_c, 0, 55, 56
2, 20936, Note_on_c, 0, 67, 57
2, 20956, Note_on_c, 0, 36, 58
2, 20961, Note_on_c, 0, 67, 0
2, 20961, Note_on_c, 0, 55, 0
2, 20962, Note_on_c, 0, 33, 0
2, 20972, Note_on_c, 0, 34, 0
2, 20985, Note_on_c, 0, 67, 57
2, 20986, Note_on_c, 0, 55, 57
2, 21001, Note_on_c, 0, 67, 0
2, 21002, Note_on_c, 0, 55, 0
2, 21003, Note_on_c, 0, 36, 0
2, 21007, Note_on_c, 0, 38, 61
2, 21024, Note_on_c, 0, 67, 57
2, 21025, Note_on_c, 0, 55, 59
2, 21040, Note_on_c, 0, 67, 0
2, 21041, Note_on_c, 0, 55, 0
2, 21052, Note_on_c, 0, 38, 0
2, 21056, Note_on_c, 0, 39, 57
2, 21064, Note_on_c, 0, 67, 57
2, 21065, Note_on_c, 0, 55, 57
2, 21081, Note_on_c, 0, 67, 0
2, 21082, Note_on_c, 0, 55, 0
2, 21092, Note_on_c, 0, 39, 0
2, 21096, Note_on_c, 0, 38, 60
2, 21105, Note_on_c, 0, 55, 61
2, 21105, Note_on_c, 0, 67, 57
2, 21121, Note_on_c, 0, 38, 0
2, 21130, Note_on_c, 0, 67, 0
2, 21130, Note_on_c, 0, 55, 0
2, 21153, Note_on_c, 0, 67, 56
2, 21154, Note_on_c, 0, 55, 57
2, 21179, Note_on_c, 0, 55, 0
2, 21179, Note_on_c, 0, 67, 0
2, 21203, Note_on_c, 0, 55, 57
2, 21203, Note_on_c, 0, 67, 57
2, 21227, Note_on_c, 0, 67, 0
2, 21228, Note_on_c, 0, 55, 0
2, 21251, Note_on_c, 0, 67, 57
2, 21251, Note_on_c, 0, 55, 57
2, 21257, Note_on_c, 0, 31, 0
2, 21261, Note_on_c, 0, 34, 57
2, 21275, Note_on_c, 0, 55, 0
2, 21275, Note_on_c, 0, 67, 0
2, 21286, Note_on_c, 0, 34, 0
2, 21298, Note_on_c, 0, 55, 57
2, 21298, Note_on_c, 0, 67, 57
2, 21323, Note_on_c, 0, 67, 0
2, 21323, Note_on_c, 0, 55, 0
2, 21346, Note_on_c, 0, 67, 57
2, 21347, Note_on_c, 0, 55, 57
2, 21371, Note_on_c, 0, 67, 0
2, 21372, Note_on_c, 0, 55, 0
2, 21395, Note_on_c, 0, 67, 57
2, 21395, Note_on_c, 0, 55, 57
2, 21416, Note_on_c, 0, 31, 55
2, 21419, Note_on_c, 0, 67, 0
2, 21420, Note_on_c, 0, 55, 0
2, 21443, Note_on_c, 0, 67, 57
2, 21444, Note_on_c, 0, 55, 55
2, 21469, Note_on_c, 0, 67, 0
2, 21470, Note_on_c, 0, 55, 0
2, 21485, Control_c, 0, 64, 127
2, 21493, Note_on_c, 0, 55, 57
2, 21493, Note_on_c, 0, 67, 57
2, 21511, Note_on_c, 0, 31, 0
2, 21518, Note_on_c, 0, 67, 0
2, 21519, Note_on_c, 0, 55, 0
2, 21542, Note_on_c, 0, 67, 58
2, 21543, Note_on_c, 0, 55, 60
2, 21567, Note_on_c, 0, 67, 0
2, 21568, Note_on_c, 0, 55, 0
2, 21591, Note_on_c, 0, 55, 58
2, 21591, Note_on_c, 0, 67, 56
2, 21616, Note_on_c, 0, 67, 0
2, 21617, Note_on_c, 0, 55, 0
2, 21641, Note_on_c, 0, 55, 53
2, 21641, Note_on_c, 0, 67, 52
2, 21666, Note_on_c, 0, 67, 0
2, 21667, Note_on_c, 0, 55, 0
2, 21690, Note_on_c, 0, 67, 50
2, 21691, Note_on_c, 0, 55, 50
2, 21716, Note_on_c, 0, 67, 0
2, 21717, Note_on_c, 0, 55, 0
2, 21740, Note_on_c, 0, 67, 49
2, 21741, Note_on_c, 0, 55, 49
2, 21766, Note_on_c, 0, 55, 0
2, 21767, Note_on_c, 0, 67, 0
2, 21768, Control_c, 0, 64, 0
2, 21791, Note_on_c, 0, 67, 49
2, 21792, Note_on_c, 0, 55, 49
2, 21809, Control_c, 0, 67, 0
2, 21816, Note_on_c, 0, 55, 0
2, 21816, Note_on_c, 0, 67, 0
2, 21839, Note_on_c, 0, 67, 51
2, 21859, Note_on_c, 0, 50, 56
2, 21865, Note_on_c, 0, 67, 0
2, 21870, Control_c, 0, 64, 127
2, 21888, Note_on_c, 0, 67, 55
2, 21913, Note_on_c, 0, 67, 0
2, 21936, Note_on_c, 0, 67, 56
2, 21937, Note_on_c, 0, 55, 56
2, 21962, Note_on_c, 0, 67, 0
2, 21963, Note_on_c, 0, 55, 0
2, 22004, Note_on_c, 0, 67, 56
2, 22005, Note_on_c, 0, 55, 56
2, 22030, Note_on_c, 0, 55, 0
2, 22048, Note_on_c, 0, 67, 0
2, 22109, Control_c, 0, 64, 0
2, 22130, Note_on_c, 0, 55, 74
2, 22238, Control_c, 0, 64, 127
2, 22252, Note_on_c, 0, 50, 0
2, 22275, Note_on_c, 0, 67, 60
2, 22300, Note_on_c, 0, 67, 0
2, 22323, Note_on_c, 0, 67, 60
2, 22330, Note_on_c, 0, 55, 0
2, 22348, Note_on_c, 0, 67, 0
2, 22373, Note_on_c, 0, 67, 57
2, 22374, Note_on_c, 0, 55, 60
2, 22388, Note_on_c, 0, 67, 0
2, 22389, Note_on_c, 0, 55, 0
2, 22411, Note_on_c, 0, 67, 57
2, 22412, Note_on_c, 0, 55, 60
2, 22427, Note_on_c, 0, 55, 0
2, 22427, Note_on_c, 0, 67, 0
2, 22450, Note_on_c, 0, 67, 60
2, 22451, Note_on_c, 0, 55, 60
2, 22466, Note_on_c, 0, 67, 0
2, 22467, Note_on_c, 0, 55, 0
2, 22489, Note_on_c, 0, 67, 60
2, 22490, Note_on_c, 0, 55, 60
2, 22514, Note_on_c, 0, 67, 0
2, 22515, Note_on_c, 0, 55, 0
2, 22537, Note_on_c, 0, 67, 57
2, 22538, Note_on_c, 0, 55, 56
2, 22562, Note_on_c, 0, 67, 0
2, 22585, Note_on_c, 0, 67, 53
2, 22594, Control_c, 0, 64, 0
2, 22611, Note_on_c, 0, 67, 0
2, 22611, Note_on_c, 0, 55, 0
2, 22615, Note_on_c, 0, 50, 56
2, 22634, Note_on_c, 0, 67, 48
2, 22659, Note_on_c, 0, 67, 0
2, 22684, Control_c, 0, 64, 127
2, 22702, Note_on_c, 0, 55, 60
2, 22702, Note_on_c, 0, 67, 55
2, 22717, Note_on_c, 0, 67, 0
2, 22727, Note_on_c, 0, 55, 0
2, 22740, Note_on_c, 0, 67, 58
2, 22758, Control_c, 0, 64, 0
2, 22765, Note_on_c, 0, 67, 0
2, 22788, Note_on_c, 0, 55, 64
2, 22813, Note_on_c, 0, 50, 0
2, 22848, Control_c, 0, 64, 127
2, 22857, Note_on_c, 0, 67, 61
2, 22882, Note_on_c, 0, 67, 0
2, 22906, Note_on_c, 0, 67, 59
2, 22921, Note_on_c, 0, 67, 0
2, 22944, Note_on_c, 0, 67, 56
2, 22969, Note_on_c, 0, 67, 0
2, 22993, Note_on_c, 0, 67, 52
2, 23008, Note_on_c, 0, 67, 0
2, 23031, Note_on_c, 0, 67, 52
2, 23040, Control_c, 0, 64, 0
2, 23057, Note_on_c, 0, 67, 0
2, 23072, Note_on_c, 0, 57, 55
2, 23087, Note_on_c, 0, 55, 0
2, 23128, Note_on_c, 0, 67, 52
2, 23129, Note_on_c, 0, 69, 53
2, 23130, Control_c, 0, 64, 127
2, 23144, Note_on_c, 0, 67, 0
2, 23145, Note_on_c, 0, 69, 0
2, 23167, Note_on_c, 0, 67, 52
2, 23168, Note_on_c, 0, 69, 54
2, 23191, Note_on_c, 0, 67, 0
2, 23192, Note_on_c, 0, 69, 0
2, 23214, Note_on_c, 0, 67, 56
2, 23215, Note_on_c, 0, 69, 57
2, 23229, Note_on_c, 0, 67, 0
2, 23230, Note_on_c, 0, 69, 0
2, 23247, Note_on_c, 0, 57, 0
2, 23251, Note_on_c, 0, 67, 56
2, 23253, Note_on_c, 0, 69, 57
2, 23275, Note_on_c, 0, 67, 0
2, 23277, Note_on_c, 0, 69, 0
2, 23291, Note_on_c, 0, 57, 65
2, 23299, Note_on_c, 0, 67, 56
2, 23300, Note_on_c, 0, 69, 57
2, 23317, Control_c, 0, 64, 0
2, 23324, Note_on_c, 0, 67, 0
2, 23325, Note_on_c, 0, 69, 0
2, 23334, Note_on_c, 0, 57, 0
2, 23339, Note_on_c, 0, 58, 66
2, 23396, Note_on_c, 0, 67, 51
2, 23397, Note_on_c, 0, 70, 53
2, 23421, Note_on_c, 0, 67, 0
2, 23422, Note_on_c, 0, 70, 0
2, 23428, Control_c, 0, 64, 127
2, 23444, Note_on_c, 0, 67, 52
2, 23445, Note_on_c, 0, 70, 53
2, 23470, Note_on_c, 0, 70, 0
2, 23470, Note_on_c, 0, 67, 0
2, 23494, Note_on_c, 0, 67, 51
2, 23494, Note_on_c, 0, 70, 53
2, 23509, Note_on_c, 0, 67, 0
2, 23510, Note_on_c, 0, 70, 0
2, 23532, Note_on_c, 0, 67, 52
2, 23533, Note_on_c, 0, 70, 53
2, 23551, Control_c, 0, 64, 0
2, 23557, Note_on_c, 0, 70, 0
2, 23557, Note_on_c, 0, 67, 0
2, 23573, Note_on_c, 0, 43, 53
2, 23580, Note_on_c, 0, 67, 55
2, 23581, Note_on_c, 0, 70, 57
2, 23587, Note_on_c, 0, 58, 0
2, 23605, Note_on_c, 0, 70, 0
2, 23605, Note_on_c, 0, 67, 0
2, 23631, Control_c, 0, 64, 127
2, 23649, Note_on_c, 0, 59, 62
2, 23706, Note_on_c, 0, 65, 60
2, 23707, Note_on_c, 0, 71, 61
2, 23716, Note_on_c, 0, 62, 60
2, 23716, Note_on_c, 0, 68, 60
2, 23731, Note_on_c, 0, 65, 0
2, 23732, Note_on_c, 0, 68, 0
2, 23733, Note_on_c, 0, 71, 0
2, 23733, Note_on_c, 0, 62, 0
2, 23754, Note_on_c, 0, 62, 60
2, 23754, Note_on_c, 0, 65, 60
2, 23755, Note_on_c, 0, 68, 59
2, 23756, Note_on_c, 0, 71, 61
2, 23761, Note_on_c, 0, 59, 0
2, 23762, Note_on_c, 0, 43, 0
2, 23779, Note_on_c, 0, 68, 0
2, 23779, Note_on_c, 0, 65, 0
2, 23780, Note_on_c, 0, 62, 0
2, 23781, Note_on_c, 0, 71, 0
2, 23803, Note_on_c, 0, 62, 60
2, 23803, Note_on_c, 0, 65, 60
2, 23804, Note_on_c, 0, 68, 59
2, 23805, Note_on_c, 0, 71, 61
2, 23829, Note_on_c, 0, 68, 0
2, 23829, Note_on_c, 0, 65, 0
2, 23830, Note_on_c, 0, 62, 0
2, 23830, Note_on_c, 0, 71, 0
2, 23852, Note_on_c, 0, 62, 60
2, 23852, Note_on_c, 0, 65, 60
2, 23853, Note_on_c, 0, 68, 59
2, 23854, Note_on_c, 0, 71, 61
2, 23872, Note_on_c, 0, 59, 64
2, 23877, Note_on_c, 0, 65, 0
2, 23878, Note_on_c, 0, 62, 0
2, 23878, Note_on_c, 0, 68, 0
2, 23879, Note_on_c, 0, 71, 0
2, 23901, Note_on_c, 0, 65, 60
2, 23902, Note_on_c, 0, 68, 60
2, 23903, Note_on_c, 0, 71, 61
2, 23937, Note_on_c, 0, 65, 0
2, 23947, Note_on_c, 0, 71, 0
2, 23956, Note_on_c, 0, 68, 0
2, 23967, Control_c, 0, 64, 0
2, 23991, Note_on_c, 0, 36, 60
2, 24014, Note_on_c, 0, 59, 0
2, 24036, Note_on_c, 0, 67, 79
2, 24037, Note_on_c, 0, 60, 60
2, 24037, Note_on_c, 0, 72, 82
2, 24038, Note_on_c, 0, 63, 60
2, 24078, Control_c, 0, 64, 127
2, 24082, Note_on_c, 0, 72, 0
2, 24082, Note_on_c, 0, 60, 0
2, 24101, Note_on_c, 0, 67, 0
2, 24102, Note_on_c, 0, 63, 0
2, 24124, Note_on_c, 0, 67, 72
2, 24125, Note_on_c, 0, 60, 67
2, 24125, Note_on_c, 0, 63, 68
2, 24125, Note_on_c, 0, 72, 73
2, 24135, Note_on_c, 0, 39, 69
2, 24149, Note_on_c, 0, 72, 0
2, 24150, Note_on_c, 0, 63, 0
2, 24150, Note_on_c, 0, 60, 0
2, 24160, Note_on_c, 0, 36, 0
2, 24167, Note_on_c, 0, 67, 0
2, 24184, Note_on_c, 0, 41, 77
2, 24190, Note_on_c, 0, 67, 77
2, 24191, Note_on_c, 0, 60, 79
2, 24191, Note_on_c, 0, 63, 80
2, 24191, Note_on_c, 0, 72, 79
2, 24199, Note_on_c, 0, 39, 0
2, 24215, Note_on_c, 0, 67, 0
2, 24216, Note_on_c, 0, 60, 0
2, 24216, Note_on_c, 0, 63, 0
2, 24216, Note_on_c, 0, 72, 0
2, 24222, Note_on_c, 0, 43, 86
2, 24237, Note_on_c, 0, 41, 0
2, 24239, Note_on_c, 0, 67, 87
2, 24240, Note_on_c, 0, 60, 89
2, 24240, Note_on_c, 0, 63, 90
2, 24240, Note_on_c, 0, 72, 89
2, 24256, Note_on_c, 0, 43, 0
2, 24260, Note_on_c, 0, 45, 93
2, 24264, Note_on_c, 0, 67, 0
2, 24265, Note_on_c, 0, 72, 0
2, 24265, Note_on_c, 0, 63, 0
2, 24265, Note_on_c, 0, 60, 0
2, 24267, Control_c, 0, 64, 0
2, 24287, Note_on_c, 0, 67, 92
2, 24288, Note_on_c, 0, 60, 98
2, 24288, Note_on_c, 0, 63, 99
2, 24288, Note_on_c, 0, 72, 95
2, 24298, Note_on_c, 0, 47, 100
2, 24312, Note_on_c, 0, 67, 0
2, 24313, Note_on_c, 0, 72, 0
2, 24313, Note_on_c, 0, 63, 0
2, 24313, Note_on_c, 0, 45, 0
2, 24313, Note_on_c, 0, 60, 0
2, 24332, Note_on_c, 0, 47, 0
2, 24336, Note_on_c, 0, 67, 95
2, 24337, Note_on_c, 0, 48, 102
2, 24337, Note_on_c, 0, 60, 103
2, 24338, Note_on_c, 0, 63, 104
2, 24338, Note_on_c, 0, 72, 95
2, 24361, Note_on_c, 0, 67, 0
2, 24362, Note_on_c, 0, 63, 0
2, 24362, Note_on_c, 0, 72, 0
2, 24362, Note_on_c, 0, 60, 0
2, 24384, Note_on_c, 0, 67, 91
2, 24385, Note_on_c, 0, 60, 98
2, 24386, Note_on_c, 0, 63, 97
2, 24386, Note_on_c, 0, 72, 93
2, 24387, Control_c, 0, 64, 127
2, 24410, Note_on_c, 0, 60, 0
2, 24410, Note_on_c, 0, 67, 0
2, 24411, Note_on_c, 0, 72, 0
2, 24411, Note_on_c, 0, 63, 0
2, 24433, Note_on_c, 0, 67, 91
2, 24434, Note_on_c, 0, 60, 93
2, 24434, Note_on_c, 0, 72, 93
2, 24435, Note_on_c, 0, 63, 92
2, 24458, Note_on_c, 0, 67, 0
2, 24459, Note_on_c, 0, 72, 0
2, 24460, Note_on_c, 0, 63, 0
2, 24460, Note_on_c, 0, 60, 0
2, 24481, Note_on_c, 0, 67, 92
2, 24482, Note_on_c, 0, 60, 90
2, 24482, Note_on_c, 0, 63, 89
2, 24482, Note_on_c, 0, 72, 92
2, 24506, Note_on_c, 0, 67, 0
2, 24507, Note_on_c, 0, 72, 0
2, 24507, Note_on_c, 0, 60, 0
2, 24508, Note_on_c, 0, 63, 0
2, 24530, Note_on_c, 0, 67, 85
2, 24531, Note_on_c, 0, 60, 84
2, 24532, Note_on_c, 0, 63, 83
2, 24532, Note_on_c, 0, 72, 84
2, 24556, Note_on_c, 0, 60, 0
2, 24556, Note_on_c, 0, 67, 0
2, 24557, Note_on_c, 0, 72, 0
2, 24557, Note_on_c, 0, 63, 0
2, 24568, Control_c, 0, 64, 0
2, 24579, Note_on_c, 0, 67, 79
2, 24580, Note_on_c, 0, 63, 77
2, 24580, Note_on_c, 0, 72, 79
2, 24600, Control_c, 0, 67, 127
2, 24604, Note_on_c, 0, 67, 0
2, 24605, Note_on_c, 0, 48, 0
2, 24605, Note_on_c, 0, 63, 0
2, 24605, Note_on_c, 0, 72, 0
2, 24627, Note_on_c, 0, 67, 70
2, 24628, Note_on_c, 0, 63, 69
2, 24628, Note_on_c, 0, 72, 69
2, 24629, Note_on_c, 0, 36, 68
2, 24641, Note_on_c, 0, 67, 0
2, 24642, Note_on_c, 0, 63, 0
2, 24642, Note_on_c, 0, 72, 0
2, 24657, Control_c, 0, 64, 127
2, 24664, Note_on_c, 0, 67, 65
2, 24665, Note_on_c, 0, 72, 65
2, 24666, Note_on_c, 0, 63, 63
2, 24683, Note_on_c, 0, 36, 0
2, 24689, Note_on_c, 0, 67, 0
2, 24690, Note_on_c, 0, 72, 0
2, 24691, Note_on_c, 0, 63, 0
2, 24697, Note_on_c, 0, 39, 62
2, 24714, Note_on_c, 0, 67, 60
2, 24715, Note_on_c, 0, 63, 60
2, 24716, Note_on_c, 0, 72, 60
2, 24730, Note_on_c, 0, 67, 0
2, 24731, Note_on_c, 0, 39, 0
2, 24731, Note_on_c, 0, 63, 0
2, 24731, Note_on_c, 0, 72, 0
2, 24736, Note_on_c, 0, 41, 62
2, 24754, Note_on_c, 0, 67, 57
2, 24755, Note_on_c, 0, 63, 60
2, 24755, Note_on_c, 0, 72, 58
2, 24761, Note_on_c, 0, 41, 0
2, 24765, Note_on_c, 0, 43, 63
2, 24779, Note_on_c, 0, 67, 0
2, 24779, Note_on_c, 0, 72, 0
2, 24779, Note_on_c, 0, 63, 0
2, 24801, Note_on_c, 0, 43, 0
2, 24803, Note_on_c, 0, 67, 57
2, 24803, Note_on_c, 0, 63, 66
2, 24804, Note_on_c, 0, 45, 66
2, 24804, Note_on_c, 0, 72, 58
2, 24820, Control_c, 0, 64, 0
2, 24828, Note_on_c, 0, 67, 0
2, 24829, Note_on_c, 0, 63, 0
2, 24829, Note_on_c, 0, 72, 0
2, 24849, Note_on_c, 0, 45, 0
2, 24852, Note_on_c, 0, 67, 57
2, 24853, Note_on_c, 0, 63, 60
2, 24853, Note_on_c, 0, 72, 58
2, 24862, Note_on_c, 0, 47, 62
2, 24877, Note_on_c, 0, 67, 0
2, 24878, Note_on_c, 0, 72, 0
2, 24879, Note_on_c, 0, 63, 0
2, 24888, Note_on_c, 0, 47, 0
2, 24892, Note_on_c, 0, 48, 64
2, 24911, Note_on_c, 0, 67, 57
2, 24912, Note_on_c, 0, 72, 58
2, 24921, Note_on_c, 0, 63, 61
2, 24926, Note_on_c, 0, 48, 0
2, 24933, Control_c, 0, 64, 127
2, 24936, Note_on_c, 0, 72, 0
2, 24947, Note_on_c, 0, 63, 0
2, 24969, Note_on_c, 0, 63, 57
2, 24988, Note_on_c, 0, 72, 58
2, 24996, Note_on_c, 0, 60, 57
2, 25012, Note_on_c, 0, 72, 0
2, 25020, Note_on_c, 0, 67, 0
2, 25021, Note_on_c, 0, 63, 0
2, 25030, Note_on_c, 0, 60, 0
2, 25073, Note_on_c, 0, 63, 61
2, 25091, Note_on_c, 0, 67, 56
2, 25116, Note_on_c, 0, 63, 0
2, 25124, Note_on_c, 0, 67, 0
2, 25130, Note_on_c, 0, 72, 62
2, 25177, Note_on_c, 0, 67, 57
2, 25178, Note_on_c, 0, 63, 49
2, 25202, Note_on_c, 0, 67, 0
2, 25203, Note_on_c, 0, 63, 0
2, 25225, Note_on_c, 0, 67, 52
2, 25226, Note_on_c, 0, 60, 49
2, 25227, Note_on_c, 0, 63, 49
2, 25250, Note_on_c, 0, 67, 0
2, 25251, Note_on_c, 0, 63, 0
2, 25251, Note_on_c, 0, 60, 0
2, 25269, Note_on_c, 0, 72, 0
2, 25272, Note_on_c, 0, 65, 49
2, 25273, Note_on_c, 0, 68, 49
2, 25274, Note_on_c, 0, 71, 50
2, 25281, Control_c, 0, 67, 0
2, 25282, Control_c, 0, 64, 0
2, 25350, Note_on_c, 0, 74, 55
2, 25356, Note_on_c, 0, 71, 0
2, 25364, Note_on_c, 0, 65, 0
2, 25365, Note_on_c, 0, 68, 0
2, 25381, Control_c, 0, 64, 127
2, 25398, Note_on_c, 0, 62, 56
2, 25398, Note_on_c, 0, 65, 63
2, 25399, Note_on_c, 0, 68, 62
2, 25400, Note_on_c, 0, 71, 62
2, 25423, Note_on_c, 0, 65, 0
2, 25423, Note_on_c, 0, 62, 0
2, 25424, Note_on_c, 0, 68, 0
2, 25425, Note_on_c, 0, 71, 0
2, 25448, Note_on_c, 0, 65, 56
2, 25449, Note_on_c, 0, 68, 56
2, 25449, Note_on_c, 0, 71, 57
2, 25473, Note_on_c, 0, 65, 0
2, 25474, Note_on_c, 0, 68, 0
2, 25475, Note_on_c, 0, 71, 0
2, 25497, Note_on_c, 0, 62, 56
2, 25497, Note_on_c, 0, 65, 56
2, 25498, Note_on_c, 0, 68, 55
2, 25498, Note_on_c, 0, 71, 57
2, 25522, Note_on_c, 0, 68, 0
2, 25522, Note_on_c, 0, 65, 0
2, 25522, Note_on_c, 0, 62, 0
2, 25523, Note_on_c, 0, 71, 0
2, 25545, Note_on_c, 0, 62, 56
2, 25545, Note_on_c, 0, 65, 56
2, 25545, Note_on_c, 0, 68, 55
2, 25546, Note_on_c, 0, 71, 57
2, 25570, Note_on_c, 0, 65, 0
2, 25571, Note_on_c, 0, 68, 0
2, 25571, Note_on_c, 0, 71, 0
2, 25571, Note_on_c, 0, 62, 0
2, 25594, Note_on_c, 0, 62, 56
2, 25594, Note_on_c, 0, 65, 56
2, 25595, Note_on_c, 0, 71, 56
2, 25618, Note_on_c, 0, 62, 0
2, 25619, Note_on_c, 0, 71, 0
2, 25619, Note_on_c, 0, 65, 0
2, 25642, Note_on_c, 0, 62, 56
2, 25642, Note_on_c, 0, 65, 56
2, 25643, Note_on_c, 0, 68, 55
2, 25643, Note_on_c, 0, 71, 57
2, 25657, Note_on_c, 0, 74, 0
2, 25666, Note_on_c, 0, 65, 0
2, 25667, Note_on_c, 0, 62, 0
2, 25667, Note_on_c, 0, 68, 0
2, 25667, Note_on_c, 0, 71, 0
2, 25690, Note_on_c, 0, 62, 56
2, 25690, Note_on_c, 0, 65, 56
2, 25691, Note_on_c, 0, 71, 56
2, 25714, Note_on_c, 0, 65, 0
2, 25715, Note_on_c, 0, 71, 0
2, 25715, Note_on_c, 0, 62, 0
2, 25737, Note_on_c, 0, 59, 56
2, 25737, Note_on_c, 0, 62, 56
2, 25737, Note_on_c, 0, 65, 56
2, 25737, Note_on_c, 0, 68, 55
2, 25738, Note_on_c, 0, 71, 57
2, 25761, Note_on_c, 0, 65, 0
2, 25762, Note_on_c, 0, 68, 0
2, 25762, Note_on_c, 0, 59, 0
2, 25763, Note_on_c, 0, 71, 0
2, 25765, Note_on_c, 0, 67, 59
2, 25804, Note_on_c, 0, 65, 55
2, 25828, Note_on_c, 0, 65, 0
2, 25829, Note_on_c, 0, 67, 0
2, 25830, Note_on_c, 0, 62, 0
2, 25852, Note_on_c, 0, 62, 53
2, 25852, Note_on_c, 0, 65, 53
2, 25852, Note_on_c, 0, 67, 52
2, 25878, Note_on_c, 0, 62, 0
2, 25895, Note_on_c, 0, 65, 0
2, 25896, Note_on_c, 0, 67, 0
2, 25946, Control_c, 0, 64, 0
2, 25967, Note_on_c, 0, 48, 52
2, 25968, Note_on_c, 0, 36, 54
2, 25987, Note_on_c, 0, 63, 55
2, 25987, Note_on_c, 0, 75, 64
2, 26027, Control_c, 0, 64, 127
2, 26041, Note_on_c, 0, 63, 0
2, 26059, Note_on_c, 0, 48, 0
2, 26071, Note_on_c, 0, 36, 0
2, 26075, Note_on_c, 0, 39, 60
2, 26078, Note_on_c, 0, 75, 0
2, 26091, Note_on_c, 0, 67, 56
2, 26092, Note_on_c, 0, 63, 58
2, 26106, Note_on_c, 0, 67, 0
2, 26107, Note_on_c, 0, 63, 0
2, 26118, Note_on_c, 0, 39, 0
2, 26123, Note_on_c, 0, 41, 60
2, 26129, Note_on_c, 0, 67, 56
2, 26130, Note_on_c, 0, 63, 61
2, 26147, Note_on_c, 0, 41, 0
2, 26151, Note_on_c, 0, 43, 65
2, 26155, Note_on_c, 0, 67, 0
2, 26156, Note_on_c, 0, 63, 0
2, 26178, Note_on_c, 0, 67, 54
2, 26179, Note_on_c, 0, 63, 63
2, 26186, Note_on_c, 0, 43, 0
2, 26190, Note_on_c, 0, 45, 66
2, 26195, Note_on_c, 0, 63, 0
2, 26195, Note_on_c, 0, 67, 0
2, 26216, Control_c, 0, 64, 0
2, 26217, Note_on_c, 0, 67, 52
2, 26218, Note_on_c, 0, 63, 63
2, 26232, Note_on_c, 0, 45, 0
2, 26236, Note_on_c, 0, 47, 64
2, 26242, Note_on_c, 0, 67, 0
2, 26243, Note_on_c, 0, 63, 0
2, 26260, Note_on_c, 0, 47, 0
2, 26264, Note_on_c, 0, 67, 52
2, 26265, Note_on_c, 0, 48, 65
2, 26265, Note_on_c, 0, 63, 66
2, 26289, Note_on_c, 0, 67, 0
2, 26290, Note_on_c, 0, 63, 0
2, 26312, Note_on_c, 0, 67, 52
2, 26313, Note_on_c, 0, 63, 61
2, 26314, Control_c, 0, 64, 127
2, 26336, Note_on_c, 0, 67, 0
2, 26337, Note_on_c, 0, 48, 0
2, 26338, Note_on_c, 0, 63, 0
2, 26360, Note_on_c, 0, 67, 52
2, 26361, Note_on_c, 0, 63, 57
2, 26386, Note_on_c, 0, 63, 0
2, 26393, Note_on_c, 0, 67, 0
2, 26417, Note_on_c, 0, 63, 61
2, 26428, Note_on_c, 0, 72, 61
2, 26443, Note_on_c, 0, 63, 0
2, 26465, Note_on_c, 0, 67, 60
2, 26485, Note_on_c, 0, 63, 60
2, 26489, Note_on_c, 0, 67, 0
2, 26512, Note_on_c, 0, 67, 60
2, 26521, Control_c, 0, 64, 0
2, 26537, Note_on_c, 0, 67, 0
2, 26541, Note_on_c, 0, 65, 60
2, 26542, Note_on_c, 0, 68, 60
2, 26543, Note_on_c, 0, 71, 61
2, 26549, Note_on_c, 0, 63, 0
2, 26568, Note_on_c, 0, 72, 0
2, 26610, Note_on_c, 0, 74, 64
2, 26626, Note_on_c, 0, 68, 0
2, 26627, Note_on_c, 0, 71, 0
2, 26632, Control_c, 0, 64, 127
2, 26635, Note_on_c, 0, 65, 0
2, 26658, Note_on_c, 0, 62, 60
2, 26658, Note_on_c, 0, 65, 64
2, 26658, Note_on_c, 0, 68, 63
2, 26659, Note_on_c, 0, 71, 63
2, 26683, Note_on_c, 0, 68, 0
2, 26683, Note_on_c, 0, 65, 0
2, 26684, Note_on_c, 0, 62, 0
2, 26707, Note_on_c, 0, 62, 60
2, 26707, Note_on_c, 0, 65, 60
2, 26708, Note_on_c, 0, 68, 59
2, 26713, Note_on_c, 0, 74, 0
2, 26733, Note_on_c, 0, 65, 0
2, 26734, Note_on_c, 0, 68, 0
2, 26734, Note_on_c, 0, 62, 0
2, 26735, Note_on_c, 0, 71, 0
2, 26758, Note_on_c, 0, 62, 60
2, 26758, Note_on_c, 0, 68, 60
2, 26759, Note_on_c, 0, 71, 60
2, 26783, Note_on_c, 0, 68, 0
2, 26783, Note_on_c, 0, 62, 0
2, 26784, Note_on_c, 0, 71, 0
2, 26806, Note_on_c, 0, 62, 60
2, 26806, Note_on_c, 0, 65, 60
2, 26807, Note_on_c, 0, 68, 59
2, 26807, Note_on_c, 0, 71, 61
2, 26869, Note_on_c, 0, 62, 0
2, 26873, Note_on_c, 0, 74, 70
2, 26879, Note_on_c, 0, 65, 0
2, 26890, Note_on_c, 0, 71, 0
2, 26898, Note_on_c, 0, 68, 0
2, 26916, Note_on_c, 0, 74, 0
2, 26930, Note_on_c, 0, 65, 62
2, 26931, Note_on_c, 0, 62, 60
2, 26931, Note_on_c, 0, 68, 61
2, 26941, Note_on_c, 0, 71, 61
2, 26956, Note_on_c, 0, 68, 0
2, 26956, Note_on_c, 0, 65, 0
2, 26956, Note_on_c, 0, 62, 0
2, 26979, Note_on_c, 0, 62, 60
2, 26979, Note_on_c, 0, 65, 60
2, 26979, Note_on_c, 0, 68, 59
2, 27003, Note_on_c, 0, 65, 0
2, 27004, Note_on_c, 0, 68, 0
2, 27004, Note_on_c, 0, 62, 0
2, 27005, Note_on_c, 0, 71, 0
2, 27027, Note_on_c, 0, 62, 60
2, 27027, Note_on_c, 0, 67, 62
2, 27028, Note_on_c, 0, 59, 60
2, 27052, Note_on_c, 0, 59, 0
2, 27053, Note_on_c, 0, 62, 0
2, 27075, Note_on_c, 0, 65, 60
2, 27076, Note_on_c, 0, 62, 60
2, 27100, Note_on_c, 0, 65, 0
2, 27101, Note_on_c, 0, 67, 0
2, 27102, Note_on_c, 0, 62, 0
2, 27124, Note_on_c, 0, 65, 60
2, 27124, Note_on_c, 0, 67, 60
2, 27125, Note_on_c, 0, 62, 60
2, 27142, Control_c, 0, 64, 0
2, 27149, Note_on_c, 0, 65, 0
2, 27150, Note_on_c, 0, 62, 0
2, 27158, Note_on_c, 0, 67, 0
2, 27192, Note_on_c, 0, 63, 60
2, 27193, Note_on_c, 0, 75, 64
2, 27194, Note_on_c, 0, 36, 60
2, 27243, Control_c, 0, 64, 127
2, 27286, Note_on_c, 0, 36, 0
2, 27288, Note_on_c, 0, 67, 60
2, 27289, Note_on_c, 0, 60, 67
2, 27291, Note_on_c, 0, 39, 68
2, 27313, Note_on_c, 0, 67, 0
2, 27314, Note_on_c, 0, 60, 0
2, 27314, Note_on_c, 0, 63, 0
2, 27335, Note_on_c, 0, 39, 0
2, 27337, Note_on_c, 0, 67, 60
2, 27338, Note_on_c, 0, 60, 67
2, 27338, Note_on_c, 0, 63, 68
2, 27339, Note_on_c, 0, 41, 69
2, 27362, Note_on_c, 0, 67, 0
2, 27363, Note_on_c, 0, 63, 0
2, 27363, Note_on_c, 0, 60, 0
2, 27364, Note_on_c, 0, 41, 0
2, 27368, Note_on_c, 0, 43, 62
2, 27386, Note_on_c, 0, 67, 60
2, 27387, Note_on_c, 0, 60, 60
2, 27387, Note_on_c, 0, 63, 60
2, 27392, Note_on_c, 0, 75, 0
2, 27393, Note_on_c, 0, 43, 0
2, 27411, Note_on_c, 0, 67, 0
2, 27412, Note_on_c, 0, 60, 0
2, 27412, Note_on_c, 0, 63, 0
2, 27416, Note_on_c, 0, 45, 62
2, 27434, Note_on_c, 0, 60, 60
2, 27434, Note_on_c, 0, 67, 60
2, 27435, Note_on_c, 0, 63, 60
2, 27450, Note_on_c, 0, 67, 0
2, 27450, Note_on_c, 0, 60, 0
2, 27451, Note_on_c, 0, 63, 0
2, 27460, Note_on_c, 0, 45, 0
2, 27464, Note_on_c, 0, 47, 62
2, 27472, Note_on_c, 0, 67, 60
2, 27473, Note_on_c, 0, 60, 63
2, 27473, Note_on_c, 0, 63, 64
2, 27489, Note_on_c, 0, 67, 0
2, 27489, Note_on_c, 0, 47, 0
2, 27490, Note_on_c, 0, 60, 0
2, 27491, Note_on_c, 0, 63, 0
2, 27491, Control_c, 0, 64, 0
2, 27492, Note_on_c, 0, 48, 63
2, 27511, Note_on_c, 0, 67, 60
2, 27513, Note_on_c, 0, 63, 61
2, 27536, Note_on_c, 0, 67, 0
2, 27537, Note_on_c, 0, 63, 0
2, 27559, Note_on_c, 0, 67, 60
2, 27560, Note_on_c, 0, 60, 60
2, 27560, Note_on_c, 0, 63, 60
2, 27560, Control_c, 0, 67, 127
2, 27583, Note_on_c, 0, 67, 0
2, 27584, Note_on_c, 0, 60, 0
2, 27585, Note_on_c, 0, 63, 0
2, 27607, Note_on_c, 0, 67, 57
2, 27608, Note_on_c, 0, 60, 57
2, 27609, Note_on_c, 0, 63, 57
2, 27619, Control_c, 0, 64, 127
2, 27623, Note_on_c, 0, 67, 0
2, 27624, Note_on_c, 0, 60, 0
2, 27625, Note_on_c, 0, 63, 0
2, 27647, Note_on_c, 0, 66, 57
2, 27648, Note_on_c, 0, 58, 57
2, 27648, Note_on_c, 0, 63, 57
2, 27663, Note_on_c, 0, 48, 0
2, 27672, Note_on_c, 0, 66, 0
2, 27673, Note_on_c, 0, 58, 0
2, 27674, Note_on_c, 0, 63, 0
2, 27696, Note_on_c, 0, 66, 56
2, 27697, Note_on_c, 0, 58, 57
2, 27697, Note_on_c, 0, 63, 57
2, 27721, Note_on_c, 0, 58, 0
2, 27721, Note_on_c, 0, 66, 0
2, 27743, Note_on_c, 0, 66, 56
2, 27744, Note_on_c, 0, 58, 57
2, 27751, Control_c, 0, 64, 0
2, 27767, Note_on_c, 0, 66, 0
2, 27768, Note_on_c, 0, 58, 0
2, 27768, Note_on_c, 0, 63, 0
2, 27783, Note_on_c, 0, 29, 56
2, 27791, Note_on_c, 0, 65, 58
2, 27792, Note_on_c, 0, 57, 57
2, 27792, Note_on_c, 0, 60, 57
2, 27793, Note_on_c, 0, 63, 56
2, 27817, Note_on_c, 0, 60, 0
2, 27817, Note_on_c, 0, 57, 0
2, 27817, Note_on_c, 0, 65, 0
2, 27818, Note_on_c, 0, 63, 0
2, 27840, Note_on_c, 0, 57, 57
2, 27840, Note_on_c, 0, 65, 57
2, 27841, Note_on_c, 0, 63, 57
2, 27851, Note_on_c, 0, 33, 55
2, 27861, Control_c, 0, 64, 127
2, 27865, Note_on_c, 0, 65, 0
2, 27866, Note_on_c, 0, 57, 0
2, 27867, Note_on_c, 0, 63, 0
2, 27868, Note_on_c, 0, 29, 0
2, 27887, Note_on_c, 0, 33, 0
2, 27889, Note_on_c, 0, 57, 50
2, 27889, Note_on_c, 0, 65, 57
2, 27890, Note_on_c, 0, 34, 49
2, 27890, Note_on_c, 0, 63, 48
2, 27913, Note_on_c, 0, 65, 0
2, 27913, Note_on_c, 0, 57, 0
2, 27914, Note_on_c, 0, 34, 0
2, 27914, Note_on_c, 0, 63, 0
2, 27929, Note_on_c, 0, 36, 51
2, 27937, Note_on_c, 0, 65, 57
2, 27938, Note_on_c, 0, 57, 49
2, 27938, Note_on_c, 0, 60, 48
2, 27939, Note_on_c, 0, 63, 47
2, 27962, Note_on_c, 0, 57, 0
2, 27962, Note_on_c, 0, 65, 0
2, 27963, Note_on_c, 0, 60, 0
2, 27964, Note_on_c, 0, 63, 0
2, 27965, Note_on_c, 0, 36, 0
2, 27978, Note_on_c, 0, 38, 55
2, 27986, Note_on_c, 0, 65, 57
2, 27987, Note_on_c, 0, 60, 57
2, 27987, Note_on_c, 0, 63, 58
2, 27994, Control_c, 0, 64, 0
2, 28011, Note_on_c, 0, 65, 0
2, 28012, Note_on_c, 0, 63, 0
2, 28012, Note_on_c, 0, 60, 0
2, 28013, Note_on_c, 0, 38, 0
2, 28018, Note_on_c, 0, 40, 58
2, 28035, Note_on_c, 0, 57, 56
2, 28035, Note_on_c, 0, 65, 57
2, 28036, Note_on_c, 0, 63, 57
2, 28042, Note_on_c, 0, 40, 0
2, 28043, Control_c, 0, 67, 0
2, 28046, Note_on_c, 0, 41, 63
2, 28050, Note_on_c, 0, 65, 0
2, 28060, Note_on_c, 0, 57, 0
2, 28061, Note_on_c, 0, 63, 0
2, 28073, Note_on_c, 0, 65, 60
2, 28098, Note_on_c, 0, 65, 0
2, 28112, Note_on_c, 0, 57, 62
2, 28112, Note_on_c, 0, 60, 61
2, 28113, Note_on_c, 0, 63, 60
2, 28114, Control_c, 0, 64, 127
2, 28129, Note_on_c, 0, 41, 0
2, 28150, Note_on_c, 0, 65, 60
2, 28174, Note_on_c, 0, 57, 0
2, 28175, Note_on_c, 0, 60, 0
2, 28186, Note_on_c, 0, 63, 0
2, 28193, Note_on_c, 0, 65, 0
2, 28256, Note_on_c, 0, 72, 63
2, 28266, Note_on_c, 0, 69, 67
2, 28300, Note_on_c, 0, 69, 0
2, 28303, Note_on_c, 0, 65, 61
2, 28304, Note_on_c, 0, 57, 60
2, 28305, Note_on_c, 0, 60, 60
2, 28305, Note_on_c, 0, 63, 60
2, 28329, Note_on_c, 0, 57, 0
2, 28329, Note_on_c, 0, 65, 0
2, 28330, Note_on_c, 0, 63, 0
2, 28330, Note_on_c, 0, 60, 0
2, 28339, Note_on_c, 0, 72, 0
2, 28352, Note_on_c, 0, 57, 60
2, 28353, Note_on_c, 0, 60, 60
2, 28377, Note_on_c, 0, 57, 0
2, 28378, Note_on_c, 0, 60, 0
2, 28379, Control_c, 0, 64, 0
2, 28389, Note_on_c, 0, 64, 60
2, 28408, Note_on_c, 0, 67, 60
2, 28428, Note_on_c, 0, 70, 61
2, 28466, Note_on_c, 0, 73, 64
2, 28495, Note_on_c, 0, 61, 60
2, 28496, Note_on_c, 0, 55, 60
2, 28497, Note_on_c, 0, 58, 60
2, 28516, Control_c, 0, 64, 127
2, 28520, Note_on_c, 0, 61, 0
2, 28520, Note_on_c, 0, 67, 0
2, 28520, Note_on_c, 0, 64, 0
2, 28521, Note_on_c, 0, 55, 0
2, 28522, Note_on_c, 0, 58, 0
2, 28545, Note_on_c, 0, 61, 60
2, 28545, Note_on_c, 0, 64, 60
2, 28546, Note_on_c, 0, 55, 60
2, 28547, Note_on_c, 0, 58, 60
2, 28571, Note_on_c, 0, 58, 0
2, 28571, Note_on_c, 0, 64, 0
2, 28571, Note_on_c, 0, 61, 0
2, 28571, Note_on_c, 0, 55, 0
2, 28594, Note_on_c, 0, 55, 59
2, 28594, Note_on_c, 0, 61, 60
2, 28594, Note_on_c, 0, 64, 60
2, 28595, Note_on_c, 0, 58, 59
2, 28619, Note_on_c, 0, 58, 0
2, 28619, Note_on_c, 0, 61, 0
2, 28619, Note_on_c, 0, 55, 0
2, 28619, Note_on_c, 0, 64, 0
2, 28638, Note_on_c, 0, 73, 0
2, 28642, Note_on_c, 0, 55, 60
2, 28642, Note_on_c, 0, 61, 60
2, 28642, Note_on_c, 0, 64, 60
2, 28643, Note_on_c, 0, 58, 59
2, 28667, Note_on_c, 0, 64, 0
2, 28667, Note_on_c, 0, 61, 0
2, 28667, Note_on_c, 0, 55, 0
2, 28668, Note_on_c, 0, 58, 0
2, 28677, Note_on_c, 0, 70, 0
2, 28690, Note_on_c, 0, 61, 60
2, 28690, Note_on_c, 0, 64, 60
2, 28691, Note_on_c, 0, 55, 60
2, 28691, Note_on_c, 0, 58, 60
2, 28715, Note_on_c, 0, 64, 0
2, 28715, Note_on_c, 0, 61, 0
2, 28716, Note_on_c, 0, 55, 0
2, 28716, Note_on_c, 0, 58, 0
2, 28739, Note_on_c, 0, 61, 59
2, 28739, Note_on_c, 0, 64, 60
2, 28740, Note_on_c, 0, 55, 60
2, 28740, Note_on_c, 0, 58, 60
2, 28763, Note_on_c, 0, 64, 0
2, 28764, Note_on_c, 0, 61, 0
2, 28765, Note_on_c, 0, 55, 0
2, 28765, Note_on_c, 0, 58, 0
2, 28787, Note_on_c, 0, 55, 59
2, 28787, Note_on_c, 0, 61, 60
2, 28787, Note_on_c, 0, 64, 60
2, 28788, Note_on_c, 0, 58, 59
2, 28811, Note_on_c, 0, 64, 0
2, 28811, Note_on_c, 0, 61, 0
2, 28812, Note_on_c, 0, 55, 0
2, 28813, Note_on_c, 0, 58, 0
2, 28835, Note_on_c, 0, 61, 60
2, 28835, Note_on_c, 0, 64, 60
2, 28836, Note_on_c, 0, 55, 60
2, 28837, Note_on_c, 0, 58, 60
2, 28861, Note_on_c, 0, 55, 0
2, 28861, Note_on_c, 0, 64, 0
2, 28872, Note_on_c, 0, 58, 0
2, 28885, Note_on_c, 0, 70, 63
2, 28891, Note_on_c, 0, 61, 0
2, 28923, Note_on_c, 0, 61, 60
2, 28924, Note_on_c, 0, 55, 60
2, 28925, Note_on_c, 0, 63, 60
2, 28926, Note_on_c, 0, 58, 60
2, 28940, Note_on_c, 0, 70, 0
2, 28950, Note_on_c, 0, 61, 0
2, 28951, Note_on_c, 0, 63, 0
2, 28951, Note_on_c, 0, 55, 0
2, 28951, Note_on_c, 0, 58, 0
2, 28973, Note_on_c, 0, 61, 60
2, 28974, Note_on_c, 0, 55, 60
2, 28975, Note_on_c, 0, 58, 60
2, 28975, Note_on_c, 0, 63, 60
2, 28999, Note_on_c, 0, 58, 0
2, 28999, Note_on_c, 0, 55, 0
2, 29000, Note_on_c, 0, 63, 0
2, 29001, Control_c, 0, 64, 0
2, 29008, Note_on_c, 0, 61, 0
2, 29022, Note_on_c, 0, 57, 58
2, 29091, Note_on_c, 0, 69, 67
2, 29092, Note_on_c, 0, 29, 60
2, 29092, Note_on_c, 0, 41, 60
2, 29117, Note_on_c, 0, 41, 0
2, 29134, Note_on_c, 0, 69, 0
2, 29140, Control_c, 0, 64, 127
2, 29162, Note_on_c, 0, 57, 0
2, 29183, Note_on_c, 0, 29, 0
2, 29187, Note_on_c, 0, 57, 60
2, 29187, Note_on_c, 0, 60, 60
2, 29188, Note_on_c, 0, 33, 59
2, 29211, Note_on_c, 0, 57, 0
2, 29212, Note_on_c, 0, 60, 0
2, 29222, Note_on_c, 0, 33, 0
2, 29226, Note_on_c, 0, 34, 60
2, 29234, Note_on_c, 0, 57, 61
2, 29235, Note_on_c, 0, 60, 62
2, 29254, Note_on_c, 0, 65, 68
2, 29260, Note_on_c, 0, 57, 0
2, 29261, Note_on_c, 0, 60, 0
2, 29262, Note_on_c, 0, 34, 0
2, 29267, Note_on_c, 0, 36, 67
2, 29291, Note_on_c, 0, 36, 0
2, 29294, Note_on_c, 0, 38, 68
2, 29300, Control_c, 0, 64, 0
2, 29301, Note_on_c, 0, 57, 68
2, 29302, Note_on_c, 0, 60, 68
2, 29326, Note_on_c, 0, 57, 0
2, 29327, Note_on_c, 0, 60, 0
2, 29346, Note_on_c, 0, 38, 0
2, 29350, Note_on_c, 0, 40, 67
2, 29367, Note_on_c, 0, 57, 69
2, 29368, Note_on_c, 0, 60, 71
2, 29374, Note_on_c, 0, 40, 0
2, 29379, Note_on_c, 0, 41, 73
2, 29391, Note_on_c, 0, 57, 0
2, 29392, Note_on_c, 0, 60, 0
2, 29407, Control_c, 0, 64, 127
2, 29422, Note_on_c, 0, 41, 0
2, 29434, Note_on_c, 0, 57, 69
2, 29435, Note_on_c, 0, 60, 68
2, 29459, Note_on_c, 0, 60, 0
2, 29459, Note_on_c, 0, 57, 0
2, 29502, Note_on_c, 0, 57, 64
2, 29503, Note_on_c, 0, 60, 62
2, 29507, Note_on_c, 0, 65, 0
2, 29527, Note_on_c, 0, 60, 0
2, 29535, Note_on_c, 0, 57, 0
2, 29541, Note_on_c, 0, 69, 64
2, 29541, Note_on_c, 0, 72, 65
2, 29568, Note_on_c, 0, 57, 60
2, 29569, Note_on_c, 0, 60, 60
2, 29576, Note_on_c, 0, 69, 0
2, 29593, Note_on_c, 0, 57, 0
2, 29594, Note_on_c, 0, 60, 0
2, 29616, Note_on_c, 0, 57, 60
2, 29617, Note_on_c, 0, 60, 60
2, 29641, Note_on_c, 0, 57, 0
2, 29642, Note_on_c, 0, 60, 0
2, 29645, Note_on_c, 0, 64, 60
2, 29652, Control_c, 0, 64, 0
2, 29661, Note_on_c, 0, 72, 0
2, 29684, Note_on_c, 0, 70, 61
2, 29708, Note_on_c, 0, 64, 0
2, 29723, Note_on_c, 0, 73, 65
2, 29760, Note_on_c, 0, 61, 60
2, 29761, Note_on_c, 0, 55, 60
2, 29762, Control_c, 0, 64, 127
2, 29762, Note_on_c, 0, 58, 60
2, 29786, Note_on_c, 0, 61, 0
2, 29787, Note_on_c, 0, 55, 0
2, 29788, Note_on_c, 0, 58, 0
2, 29809, Note_on_c, 0, 61, 60
2, 29810, Note_on_c, 0, 64, 60
2, 29811, Note_on_c, 0, 55, 60
2, 29812, Note_on_c, 0, 58, 60
2, 29836, Note_on_c, 0, 61, 0
2, 29837, Note_on_c, 0, 64, 0
2, 29838, Note_on_c, 0, 55, 0
2, 29838, Note_on_c, 0, 58, 0
2, 29860, Note_on_c, 0, 61, 59
2, 29860, Note_on_c, 0, 64, 60
2, 29861, Note_on_c, 0, 55, 60
2, 29862, Note_on_c, 0, 58, 60
2, 29866, Note_on_c, 0, 70, 0
2, 29867, Note_on_c, 0, 73, 0
2, 29885, Note_on_c, 0, 61, 0
2, 29886, Note_on_c, 0, 64, 0
2, 29886, Note_on_c, 0, 55, 0
2, 29887, Note_on_c, 0, 58, 0
2, 29908, Note_on_c, 0, 64, 63
2, 29909, Note_on_c, 0, 61, 64
2, 29910, Note_on_c, 0, 55, 65
2, 29910, Note_on_c, 0, 58, 66
2, 29934, Note_on_c, 0, 61, 0
2, 29935, Note_on_c, 0, 64, 0
2, 29935, Note_on_c, 0, 55, 0
2, 29936, Note_on_c, 0, 58, 0
2, 29958, Note_on_c, 0, 61, 68
2, 29958, Note_on_c, 0, 64, 67
2, 29959, Note_on_c, 0, 55, 68
2, 29960, Note_on_c, 0, 58, 68
2, 29972, Note_on_c, 0, 61, 0
2, 29973, Note_on_c, 0, 64, 0
2, 29974, Note_on_c, 0, 55, 0
2, 29974, Note_on_c, 0, 58, 0
2, 29996, Note_on_c, 0, 61, 65
2, 29996, Note_on_c, 0, 64, 64
2, 29997, Note_on_c, 0, 55, 64
2, 29998, Note_on_c, 0, 58, 63
2, 30012, Note_on_c, 0, 55, 0
2, 30012, Note_on_c, 0, 61, 0
2, 30012, Note_on_c, 0, 64, 0
2, 30013, Note_on_c, 0, 58, 0
2, 30035, Note_on_c, 0, 61, 60
2, 30035, Note_on_c, 0, 64, 61
2, 30046, Note_on_c, 0, 55, 60
2, 30056, Note_on_c, 0, 58, 62
2, 30071, Note_on_c, 0, 58, 0
2, 30093, Note_on_c, 0, 67, 63
2, 30094, Note_on_c, 0, 58, 61
2, 30119, Note_on_c, 0, 55, 0
2, 30136, Note_on_c, 0, 61, 0
2, 30137, Note_on_c, 0, 58, 0
2, 30141, Note_on_c, 0, 72, 62
2, 30169, Note_on_c, 0, 61, 56
2, 30170, Note_on_c, 0, 55, 54
2, 30171, Note_on_c, 0, 58, 53
2, 30185, Note_on_c, 0, 72, 0
2, 30195, Note_on_c, 0, 55, 0
2, 30223, Note_on_c, 0, 61, 0
2, 30224, Note_on_c, 0, 67, 0
2, 30225, Note_on_c, 0, 58, 0
2, 30257, Note_on_c, 0, 55, 52
2, 30257, Note_on_c, 0, 70, 59
2, 30258, Note_on_c, 0, 58, 52
2, 30266, Note_on_c, 0, 61, 52
2, 30290, Note_on_c, 0, 70, 0
2, 30291, Note_on_c, 0, 55, 0
2, 30299, Note_on_c, 0, 61, 0
2, 30299, Note_on_c, 0, 64, 0
2, 30300, Note_on_c, 0, 58, 0
2, 30323, Note_on_c, 0, 57, 52
2, 30347, Note_on_c, 0, 57, 0
2, 30359, Control_c, 0, 64, 0
2, 30380, Note_on_c, 0, 65, 52
2, 30383, Control_c, 0, 67, 127
2, 30430, Note_on_c, 0, 72, 53
2, 30441, Note_on_c, 0, 29, 56
2, 30479, Control_c, 0, 64, 127
2, 30502, Note_on_c, 0, 65, 0
2, 30513, Note_on_c, 0, 72, 0
2, 30522, Note_on_c, 0, 29, 0
2, 30526, Note_on_c, 0, 33, 62
2, 30562, Note_on_c, 0, 33, 0
2, 30565, Note_on_c, 0, 34, 61
2, 30573, Note_on_c, 0, 65, 53
2, 30574, Note_on_c, 0, 53, 60
2, 30581, Control_c, 0, 64, 0
2, 30590, Note_on_c, 0, 34, 0
2, 30598, Note_on_c, 0, 53, 0
2, 30598, Note_on_c, 0, 65, 0
2, 30612, Note_on_c, 0, 36, 58
2, 30620, Note_on_c, 0, 65, 53
2, 30621, Note_on_c, 0, 53, 58
2, 30635, Note_on_c, 0, 53, 0
2, 30635, Note_on_c, 0, 65, 0
2, 30637, Note_on_c, 0, 36, 0
2, 30650, Note_on_c, 0, 38, 57
2, 30658, Note_on_c, 0, 53, 58
2, 30658, Note_on_c, 0, 65, 53
2, 30682, Note_on_c, 0, 65, 0
2, 30682, Note_on_c, 0, 53, 0
2, 30683, Note_on_c, 0, 38, 0
2, 30697, Note_on_c, 0, 40, 60
2, 30705, Note_on_c, 0, 65, 53
2, 30706, Note_on_c, 0, 53, 62
2, 30721, Note_on_c, 0, 40, 0
2, 30729, Note_on_c, 0, 65, 0
2, 30730, Note_on_c, 0, 53, 0
2, 30735, Note_on_c, 0, 41, 64
2, 30753, Note_on_c, 0, 65, 53
2, 30777, Note_on_c, 0, 65, 0
2, 30782, Control_c, 0, 64, 127
2, 30800, Note_on_c, 0, 65, 53
2, 30801, Note_on_c, 0, 53, 58
2, 30815, Note_on_c, 0, 65, 0
2, 30816, Note_on_c, 0, 53, 0
2, 30837, Note_on_c, 0, 65, 53
2, 30838, Note_on_c, 0, 53, 56
2, 30862, Note_on_c, 0, 65, 0
2, 30863, Note_on_c, 0, 53, 0
2, 30887, Note_on_c, 0, 65, 53
2, 30888, Note_on_c, 0, 53, 54
2, 30912, Note_on_c, 0, 53, 0
2, 30912, Note_on_c, 0, 65, 0
2, 30913, Control_c, 0, 64, 0
2, 30934, Note_on_c, 0, 65, 53
2, 30935, Note_on_c, 0, 53, 53
2, 30959, Note_on_c, 0, 65, 0
2, 30960, Note_on_c, 0, 53, 0
2, 30982, Note_on_c, 0, 65, 53
2, 30983, Note_on_c, 0, 53, 53
2, 30984, Control_c, 0, 64, 127
2, 31008, Note_on_c, 0, 53, 0
2, 31008, Note_on_c, 0, 65, 0
2, 31032, Note_on_c, 0, 65, 52
2, 31033, Note_on_c, 0, 53, 53
2, 31055, Note_on_c, 0, 65, 0
2, 31056, Note_on_c, 0, 53, 0
2, 31078, Note_on_c, 0, 65, 53
2, 31079, Note_on_c, 0, 53, 53
2, 31093, Note_on_c, 0, 65, 0
2, 31094, Note_on_c, 0, 53, 0
2, 31116, Note_on_c, 0, 65, 53
2, 31117, Note_on_c, 0, 53, 53
2, 31141, Note_on_c, 0, 65, 0
2, 31142, Note_on_c, 0, 53, 0
2, 31164, Note_on_c, 0, 65, 53
2, 31165, Note_on_c, 0, 53, 53
2, 31172, Control_c, 0, 64, 0
2, 31180, Note_on_c, 0, 53, 0
2, 31180, Note_on_c, 0, 65, 0
2, 31203, Note_on_c, 0, 65, 52
2, 31204, Note_on_c, 0, 53, 53
2, 31218, Note_on_c, 0, 65, 0
2, 31219, Note_on_c, 0, 53, 0
2, 31241, Note_on_c, 0, 53, 53
2, 31241, Note_on_c, 0, 65, 53
2, 31242, Control_c, 0, 64, 127
2, 31265, Note_on_c, 0, 65, 0
2, 31266, Note_on_c, 0, 53, 0
2, 31288, Note_on_c, 0, 65, 53
2, 31289, Note_on_c, 0, 53, 52
2, 31313, Note_on_c, 0, 65, 0
2, 31314, Note_on_c, 0, 53, 0
2, 31337, Note_on_c, 0, 53, 50
2, 31337, Note_on_c, 0, 65, 50
2, 31361, Note_on_c, 0, 65, 0
2, 31362, Note_on_c, 0, 53, 0
2, 31374, Control_c, 0, 67, 0
2, 31384, Note_on_c, 0, 65, 52
2, 31385, Note_on_c, 0, 53, 52
2, 31402, Control_c, 0, 64, 0
2, 31408, Note_on_c, 0, 65, 0
2, 31409, Note_on_c, 0, 53, 0
2, 31451, Note_on_c, 0, 48, 54
2, 31451, Note_on_c, 0, 65, 52
2, 31468, Note_on_c, 0, 41, 0
2, 31475, Note_on_c, 0, 65, 0
2, 31500, Control_c, 0, 64, 127
2, 31519, Note_on_c, 0, 53, 52
2, 31519, Note_on_c, 0, 65, 52
2, 31543, Note_on_c, 0, 65, 0
2, 31543, Note_on_c, 0, 53, 0
2, 31566, Note_on_c, 0, 53, 52
2, 31566, Note_on_c, 0, 65, 52
2, 31620, Note_on_c, 0, 53, 0
2, 31622, Control_c, 0, 64, 0
2, 31630, Note_on_c, 0, 65, 0
2, 31644, Note_on_c, 0, 51, 55
2, 31659, Note_on_c, 0, 48, 0
2, 31758, Note_on_c, 0, 53, 55
2, 31758, Note_on_c, 0, 65, 52
2, 31768, Control_c, 0, 64, 127
2, 31782, Note_on_c, 0, 65, 0
2, 31782, Note_on_c, 0, 53, 0
2, 31805, Note_on_c, 0, 65, 51
2, 31806, Note_on_c, 0, 53, 52
2, 31830, Note_on_c, 0, 65, 0
2, 31831, Note_on_c, 0, 53, 0
2, 31854, Note_on_c, 0, 53, 52
2, 31854, Note_on_c, 0, 65, 52
2, 31878, Note_on_c, 0, 65, 0
2, 31878, Note_on_c, 0, 53, 0
2, 31900, Note_on_c, 0, 65, 51
2, 31901, Note_on_c, 0, 53, 52
2, 31925, Note_on_c, 0, 65, 0
2, 31926, Note_on_c, 0, 53, 0
2, 31948, Note_on_c, 0, 65, 52
2, 31949, Note_on_c, 0, 53, 52
2, 31973, Note_on_c, 0, 53, 0
2, 31973, Note_on_c, 0, 65, 0
2, 31993, Note_on_c, 0, 51, 0
2, 31995, Note_on_c, 0, 65, 52
2, 31996, Note_on_c, 0, 53, 52
2, 32020, Note_on_c, 0, 53, 0
2, 32020, Note_on_c, 0, 65, 0
2, 32043, Note_on_c, 0, 65, 52
2, 32044, Note_on_c, 0, 53, 52
2, 32068, Note_on_c, 0, 53, 0
2, 32069, Note_on_c, 0, 65, 0
2, 32092, Note_on_c, 0, 65, 52
2, 32093, Note_on_c, 0, 53, 52
2, 32117, Note_on_c, 0, 65, 0
2, 32118, Note_on_c, 0, 53, 0
2, 32133, Note_on_c, 0, 51, 54
2, 32141, Note_on_c, 0, 65, 52
2, 32165, Note_on_c, 0, 65, 0
2, 32189, Note_on_c, 0, 65, 52
2, 32190, Note_on_c, 0, 53, 52
2, 32214, Note_on_c, 0, 65, 0
2, 32215, Note_on_c, 0, 53, 0
2, 32238, Note_on_c, 0, 65, 52
2, 32239, Note_on_c, 0, 53, 52
2, 32264, Note_on_c, 0, 53, 0
2, 32273, Note_on_c, 0, 65, 0
2, 32294, Control_c, 0, 64, 0
2, 32315, Note_on_c, 0, 53, 55
2, 32341, Note_on_c, 0, 51, 0
2, 32402, Control_c, 0, 64, 127
2, 32419, Note_on_c, 0, 65, 52
2, 32443, Note_on_c, 0, 65, 0
2, 32443, Note_on_c, 0, 53, 0
2, 32467, Note_on_c, 0, 53, 52
2, 32467, Note_on_c, 0, 65, 52
2, 32491, Note_on_c, 0, 65, 0
2, 32492, Note_on_c, 0, 53, 0
2, 32515, Note_on_c, 0, 53, 51
2, 32515, Note_on_c, 0, 65, 54
2, 32539, Note_on_c, 0, 65, 0
2, 32540, Note_on_c, 0, 53, 0
2, 32564, Note_on_c, 0, 65, 56
2, 32565, Note_on_c, 0, 53, 55
2, 32589, Note_on_c, 0, 53, 0
2, 32589, Note_on_c, 0, 65, 0
2, 32613, Note_on_c, 0, 65, 55
2, 32614, Note_on_c, 0, 53, 56
2, 32637, Note_on_c, 0, 65, 0
2, 32638, Note_on_c, 0, 53, 0
2, 32659, Note_on_c, 0, 65, 56
2, 32660, Note_on_c, 0, 53, 56
2, 32675, Note_on_c, 0, 53, 0
2, 32675, Note_on_c, 0, 65, 0
2, 32699, Note_on_c, 0, 65, 56
2, 32699, Note_on_c, 0, 53, 56
2, 32723, Note_on_c, 0, 53, 0
2, 32723, Note_on_c, 0, 65, 0
2, 32747, Note_on_c, 0, 65, 53
2, 32747, Note_on_c, 0, 53, 53
2, 32771, Note_on_c, 0, 53, 0
2, 32771, Note_on_c, 0, 65, 0
2, 32795, Note_on_c, 0, 65, 51
2, 32795, Note_on_c, 0, 53, 52
2, 32819, Note_on_c, 0, 65, 0
2, 32820, Note_on_c, 0, 53, 0
2, 32844, Note_on_c, 0, 53, 52
2, 32844, Note_on_c, 0, 65, 52
2, 32868, Note_on_c, 0, 65, 0
2, 32869, Note_on_c, 0, 53, 0
2, 32873, Note_on_c, 0, 48, 57
2, 32892, Note_on_c, 0, 65, 52
2, 32893, Note_on_c, 0, 53, 55
2, 32917, Note_on_c, 0, 65, 0
2, 32918, Note_on_c, 0, 53, 0
2, 32950, Note_on_c, 0, 65, 52
2, 32951, Note_on_c, 0, 53, 51
2, 32966, Control_c, 0, 64, 0
2, 32974, Note_on_c, 0, 65, 0
2, 32993, Note_on_c, 0, 53, 0
2, 33008, Note_on_c, 0, 46, 51
2, 33009, Note_on_c, 0, 51, 53
2, 33013, Note_on_c, 0, 48, 0
2, 33093, Note_on_c, 0, 65, 52
2, 33094, Note_on_c, 0, 53, 52
2, 33095, Note_on_c, 0, 58, 52
2, 33114, Control_c, 0, 64, 127
2, 33118, Note_on_c, 0, 65, 0
2, 33119, Note_on_c, 0, 53, 0
2, 33120, Note_on_c, 0, 58, 0
2, 33142, Note_on_c, 0, 65, 64
2, 33143, Note_on_c, 0, 53, 58
2, 33144, Note_on_c, 0, 58, 59
2, 33167, Note_on_c, 0, 65, 0
2, 33168, Note_on_c, 0, 53, 0
2, 33169, Note_on_c, 0, 58, 0
2, 33190, Note_on_c, 0, 65, 59
2, 33191, Note_on_c, 0, 53, 60
2, 33192, Note_on_c, 0, 58, 60
2, 33215, Note_on_c, 0, 65, 0
2, 33216, Note_on_c, 0, 53, 0
2, 33216, Note_on_c, 0, 58, 0
2, 33217, Note_on_c, 0, 51, 0
2, 33238, Note_on_c, 0, 65, 60
2, 33239, Note_on_c, 0, 53, 60
2, 33240, Note_on_c, 0, 58, 60
2, 33264, Note_on_c, 0, 58, 0
2, 33264, Note_on_c, 0, 53, 0
2, 33264, Note_on_c, 0, 65, 0
2, 33287, Note_on_c, 0, 65, 59
2, 33288, Note_on_c, 0, 53, 60
2, 33288, Note_on_c, 0, 58, 60
2, 33295, Control_c, 0, 64, 0
2, 33307, Note_on_c, 0, 50, 57
2, 33312, Note_on_c, 0, 65, 0
2, 33313, Note_on_c, 0, 53, 0
2, 33314, Note_on_c, 0, 58, 0
2, 33384, Note_on_c, 0, 65, 59
2, 33385, Note_on_c, 0, 53, 59
2, 33386, Note_on_c, 0, 58, 60
2, 33391, Note_on_c, 0, 50, 0
2, 33396, Control_c, 0, 64, 127
2, 33410, Note_on_c, 0, 65, 0
2, 33433, Note_on_c, 0, 65, 70
2, 33434, Note_on_c, 0, 50, 66
2, 33457, Note_on_c, 0, 65, 0
2, 33458, Note_on_c, 0, 53, 0
2, 33459, Note_on_c, 0, 58, 0
2, 33481, Note_on_c, 0, 65, 65
2, 33482, Note_on_c, 0, 53, 60
2, 33483, Note_on_c, 0, 58, 59
2, 33506, Note_on_c, 0, 53, 0
2, 33506, Note_on_c, 0, 65, 0
2, 33507, Note_on_c, 0, 58, 0
2, 33516, Note_on_c, 0, 46, 0
2, 33530, Note_on_c, 0, 65, 60
2, 33531, Note_on_c, 0, 53, 56
2, 33531, Note_on_c, 0, 58, 56
2, 33545, Note_on_c, 0, 50, 0
2, 33554, Note_on_c, 0, 65, 0
2, 33555, Note_on_c, 0, 53, 0
2, 33556, Note_on_c, 0, 58, 0
2, 33577, Note_on_c, 0, 65, 57
2, 33578, Note_on_c, 0, 53, 56
2, 33579, Note_on_c, 0, 58, 56
2, 33602, Note_on_c, 0, 65, 0
2, 33603, Note_on_c, 0, 53, 0
2, 33604, Note_on_c, 0, 58, 0
2, 33626, Note_on_c, 0, 65, 53
2, 33627, Note_on_c, 0, 53, 56
2, 33627, Note_on_c, 0, 58, 56
2, 33650, Note_on_c, 0, 53, 0
2, 33650, Note_on_c, 0, 65, 0
2, 33651, Note_on_c, 0, 58, 0
2, 33665, Control_c, 0, 67, 127
2, 33672, Note_on_c, 0, 65, 56
2, 33673, Note_on_c, 0, 53, 57
2, 33674, Note_on_c, 0, 58, 57
2, 33697, Note_on_c, 0, 65, 0
2, 33698, Note_on_c, 0, 53, 0
2, 33699, Note_on_c, 0, 58, 0
2, 33720, Note_on_c, 0, 53, 57
2, 33720, Note_on_c, 0, 65, 57
2, 33721, Note_on_c, 0, 58, 57
2, 33744, Note_on_c, 0, 65, 0
2, 33745, Note_on_c, 0, 53, 0
2, 33746, Note_on_c, 0, 58, 0
2, 33747, Control_c, 0, 64, 0
2, 33786, Note_on_c, 0, 65, 57
2, 33787, Note_on_c, 0, 62, 57
2, 33788, Note_on_c, 0, 58, 57
2, 33807, Note_on_c, 0, 46, 57
2, 33811, Note_on_c, 0, 65, 0
2, 33812, Note_on_c, 0, 62, 0
2, 33813, Note_on_c, 0, 58, 0
2, 33834, Note_on_c, 0, 62, 56
2, 33834, Note_on_c, 0, 65, 57
2, 33835, Note_on_c, 0, 53, 57
2, 33836, Note_on_c, 0, 58, 57
2, 33859, Note_on_c, 0, 53, 0
2, 33859, Note_on_c, 0, 65, 0
2, 33859, Note_on_c, 0, 62, 0
2, 33860, Note_on_c, 0, 58, 0
2, 33881, Note_on_c, 0, 53, 57
2, 33881, Note_on_c, 0, 62, 57
2, 33881, Note_on_c, 0, 65, 57
2, 33882, Note_on_c, 0, 58, 56
2, 33888, Note_on_c, 0, 46, 0
2, 33905, Note_on_c, 0, 65, 0
2, 33948, Note_on_c, 0, 65, 57
2, 33960, Note_on_c, 0, 41, 62
2, 33972, Note_on_c, 0, 65, 0
2, 33973, Note_on_c, 0, 53, 0
2, 33973, Note_on_c, 0, 62, 0
2, 33974, Note_on_c, 0, 58, 0
2, 33984, Note_on_c, 0, 41, 0
2, 33996, Note_on_c, 0, 62, 61
2, 33996, Note_on_c, 0, 65, 57
2, 33997, Note_on_c, 0, 53, 60
2, 33997, Note_on_c, 0, 58, 59
2, 34020, Note_on_c, 0, 65, 0
2, 34021, Note_on_c, 0, 62, 0
2, 34021, Note_on_c, 0, 53, 0
2, 34022, Note_on_c, 0, 58, 0
2, 34043, Note_on_c, 0, 65, 57
2, 34044, Note_on_c, 0, 53, 57
2, 34044, Note_on_c, 0, 62, 57
2, 34045, Note_on_c, 0, 58, 56
2, 34069, Note_on_c, 0, 65, 0
2, 34102, Note_on_c, 0, 65, 57
2, 34104, Note_on_c, 0, 38, 58
2, 34127, Note_on_c, 0, 65, 0
2, 34127, Note_on_c, 0, 53, 0
2, 34127, Note_on_c, 0, 62, 0
2, 34128, Note_on_c, 0, 58, 0
2, 34128, Note_on_c, 0, 38, 0
2, 34150, Note_on_c, 0, 53, 56
2, 34151, Note_on_c, 0, 58, 57
2, 34159, Note_on_c, 0, 62, 57
2, 34168, Note_on_c, 0, 65, 57
2, 34170, Control_c, 0, 64, 127
2, 34174, Note_on_c, 0, 53, 0
2, 34175, Note_on_c, 0, 58, 0
2, 34194, Control_c, 0, 64, 0
2, 34196, Note_on_c, 0, 53, 57
2, 34197, Note_on_c, 0, 58, 57
2, 34220, Note_on_c, 0, 65, 0
2, 34221, Note_on_c, 0, 53, 0
2, 34222, Note_on_c, 0, 62, 0
2, 34222, Note_on_c, 0, 58, 0
2, 34255, Note_on_c, 0, 39, 59
2, 34263, Note_on_c, 0, 55, 61
2, 34263, Note_on_c, 0, 60, 62
2, 34263, Note_on_c, 0, 63, 63
2, 34287, Note_on_c, 0, 60, 0
2, 34287, Note_on_c, 0, 55, 0
2, 34288, Note_on_c, 0, 63, 0
2, 34292, Control_c, 0, 64, 127
2, 34310, Note_on_c, 0, 55, 57
2, 34310, Note_on_c, 0, 60, 57
2, 34311, Note_on_c, 0, 63, 56
2, 34334, Note_on_c, 0, 60, 0
2, 34334, Note_on_c, 0, 55, 0
2, 34335, Note_on_c, 0, 63, 0
2, 34355, Note_on_c, 0, 39, 0
2, 34357, Note_on_c, 0, 55, 57
2, 34357, Note_on_c, 0, 60, 57
2, 34357, Note_on_c, 0, 63, 56
2, 34381, Note_on_c, 0, 60, 0
2, 34382, Note_on_c, 0, 63, 0
2, 34382, Note_on_c, 0, 55, 0
2, 34404, Note_on_c, 0, 55, 56
2, 34405, Note_on_c, 0, 60, 57
2, 34405, Note_on_c, 0, 63, 57
2, 34429, Note_on_c, 0, 63, 0
2, 34429, Note_on_c, 0, 60, 0
2, 34429, Note_on_c, 0, 55, 0
2, 34452, Note_on_c, 0, 55, 57
2, 34452, Note_on_c, 0, 60, 57
2, 34452, Note_on_c, 0, 63, 56
2, 34476, Note_on_c, 0, 60, 0
2, 34476, Note_on_c, 0, 55, 0
2, 34477, Note_on_c, 0, 63, 0
2, 34499, Note_on_c, 0, 55, 57
2, 34499, Note_on_c, 0, 60, 57
2, 34499, Note_on_c, 0, 63, 56
2, 34523, Note_on_c, 0, 63, 0
2, 34523, Note_on_c, 0, 60, 0
2, 34523, Note_on_c, 0, 55, 0
2, 34524, Control_c, 0, 64, 0
2, 34547, Note_on_c, 0, 55, 57
2, 34547, Note_on_c, 0, 63, 57
2, 34567, Note_on_c, 0, 36, 57
2, 34571, Note_on_c, 0, 55, 0
2, 34572, Note_on_c, 0, 63, 0
2, 34595, Note_on_c, 0, 55, 56
2, 34595, Note_on_c, 0, 60, 57
2, 34595, Note_on_c, 0, 63, 56
2, 34607, Control_c, 0, 64, 127
2, 34619, Note_on_c, 0, 60, 0
2, 34619, Note_on_c, 0, 55, 0
2, 34620, Note_on_c, 0, 63, 0
2, 34642, Note_on_c, 0, 55, 57
2, 34642, Note_on_c, 0, 60, 57
2, 34643, Note_on_c, 0, 63, 56
2, 34668, Note_on_c, 0, 60, 0
2, 34668, Note_on_c, 0, 55, 0
2, 34669, Note_on_c, 0, 63, 0
2, 34692, Note_on_c, 0, 55, 57
2, 34693, Note_on_c, 0, 60, 57
2, 34693, Note_on_c, 0, 63, 57
2, 34717, Note_on_c, 0, 60, 0
2, 34717, Note_on_c, 0, 55, 0
2, 34718, Note_on_c, 0, 63, 0
2, 34740, Note_on_c, 0, 55, 57
2, 34741, Note_on_c, 0, 60, 57
2, 34741, Note_on_c, 0, 63, 57
2, 34765, Note_on_c, 0, 63, 0
2, 34765, Note_on_c, 0, 60, 0
2, 34765, Note_on_c, 0, 55, 0
2, 34788, Note_on_c, 0, 55, 57
2, 34788, Note_on_c, 0, 60, 57
2, 34788, Note_on_c, 0, 63, 56
2, 34795, Control_c, 0, 64, 0
2, 34812, Note_on_c, 0, 60, 0
2, 34812, Note_on_c, 0, 55, 0
2, 34813, Note_on_c, 0, 63, 0
2, 34814, Note_on_c, 0, 36, 0
2, 34817, Note_on_c, 0, 41, 57
2, 34836, Note_on_c, 0, 29, 57
2, 34844, Note_on_c, 0, 53, 58
2, 34844, Note_on_c, 0, 62, 58
2, 34845, Note_on_c, 0, 58, 57
2, 34869, Note_on_c, 0, 58, 0
2, 34869, Note_on_c, 0, 53, 0
2, 34869, Note_on_c, 0, 62, 0
2, 34891, Note_on_c, 0, 62, 57
2, 34892, Note_on_c, 0, 53, 57
2, 34892, Note_on_c, 0, 58, 57
2, 34911, Control_c, 0, 64, 127
2, 34915, Note_on_c, 0, 53, 0
2, 34916, Note_on_c, 0, 62, 0
2, 34917, Note_on_c, 0, 58, 0
2, 34938, Note_on_c, 0, 53, 57
2, 34938, Note_on_c, 0, 62, 57
2, 34939, Note_on_c, 0, 58, 56
2, 34954, Note_on_c, 0, 58, 0
2, 34954, Note_on_c, 0, 53, 0
2, 34954, Note_on_c, 0, 62, 0
2, 34976, Note_on_c, 0, 62, 57
2, 34977, Note_on_c, 0, 53, 57
2, 34978, Note_on_c, 0, 58, 57
2, 34993, Note_on_c, 0, 29, 0
2, 35002, Note_on_c, 0, 53, 0
2, 35002, Note_on_c, 0, 58, 0
2, 35002, Note_on_c, 0, 62, 0
2, 35024, Note_on_c, 0, 62, 57
2, 35025, Note_on_c, 0, 53, 57
2, 35026, Note_on_c, 0, 58, 57
2, 35050, Note_on_c, 0, 53, 0
2, 35050, Note_on_c, 0, 62, 0
2, 35051, Note_on_c, 0, 41, 0
2, 35051, Note_on_c, 0, 58, 0
2, 35071, Control_c, 0, 64, 0
2, 35072, Note_on_c, 0, 62, 57
2, 35073, Note_on_c, 0, 53, 57
2, 35073, Note_on_c, 0, 58, 57
2, 35097, Note_on_c, 0, 58, 0
2, 35097, Note_on_c, 0, 53, 0
2, 35097, Note_on_c, 0, 62, 0
2, 35111, Note_on_c, 0, 29, 54
2, 35111, Note_on_c, 0, 41, 52
2, 35119, Note_on_c, 0, 57, 51
2, 35120, Note_on_c, 0, 53, 50
2, 35120, Note_on_c, 0, 60, 49
2, 35144, Note_on_c, 0, 57, 0
2, 35145, Note_on_c, 0, 53, 0
2, 35145, Note_on_c, 0, 60, 0
2, 35149, Control_c, 0, 64, 127
2, 35164, Note_on_c, 0, 29, 0
2, 35167, Note_on_c, 0, 57, 57
2, 35168, Note_on_c, 0, 53, 57
2, 35168, Note_on_c, 0, 60, 57
2, 35192, Note_on_c, 0, 53, 0
2, 35192, Note_on_c, 0, 57, 0
2, 35193, Note_on_c, 0, 60, 0
2, 35203, Note_on_c, 0, 41, 0
2, 35215, Note_on_c, 0, 57, 63
2, 35216, Note_on_c, 0, 53, 62
2, 35240, Note_on_c, 0, 53, 0
2, 35240, Note_on_c, 0, 57, 0
2, 35282, Note_on_c, 0, 57, 58
2, 35283, Note_on_c, 0, 53, 56
2, 35283, Note_on_c, 0, 60, 55
2, 35302, Note_on_c, 0, 77, 66
2, 35307, Note_on_c, 0, 60, 0
2, 35307, Note_on_c, 0, 57, 0
2, 35308, Note_on_c, 0, 53, 0
2, 35320, Note_on_c, 0, 65, 62
2, 35344, Note_on_c, 0, 65, 0
2, 35349, Note_on_c, 0, 53, 53
2, 35349, Note_on_c, 0, 57, 53
2, 35349, Note_on_c, 0, 60, 52
2, 35372, Note_on_c, 0, 57, 0
2, 35373, Note_on_c, 0, 60, 0
2, 35373, Note_on_c, 0, 53, 0
2, 35395, Note_on_c, 0, 53, 52
2, 35419, Note_on_c, 0, 53, 0
2, 35441, Note_on_c, 0, 65, 53
2, 35448, Note_on_c, 0, 77, 0
2, 35466, Note_on_c, 0, 65, 0
2, 35468, Control_c, 0, 64, 0
2, 35479, Note_on_c, 0, 74, 57
2, 35490, Note_on_c, 0, 46, 53
2, 35500, Note_on_c, 0, 77, 61
2, 35504, Note_on_c, 0, 74, 0
2, 35524, Note_on_c, 0, 77, 0
2, 35538, Note_on_c, 0, 86, 67
2, 35585, Control_c, 0, 64, 127
2, 35612, Note_on_c, 0, 62, 50
2, 35613, Note_on_c, 0, 58, 49
2, 35649, Control_c, 0, 67, 0
2, 35657, Note_on_c, 0, 46, 0
2, 35660, Note_on_c, 0, 53, 52
2, 35683, Note_on_c, 0, 53, 0
2, 35683, Note_on_c, 0, 62, 0
2, 35684, Note_on_c, 0, 58, 0
2, 35698, Note_on_c, 0, 46, 52
2, 35742, Note_on_c, 0, 86, 0
2, 35753, Note_on_c, 0, 62, 52
2, 35754, Note_on_c, 0, 58, 52
2, 35769, Note_on_c, 0, 46, 0
2, 35777, Note_on_c, 0, 62, 0
2, 35778, Note_on_c, 0, 58, 0
2, 35781, Note_on_c, 0, 53, 52
2, 35806, Note_on_c, 0, 53, 0
2, 35829, Note_on_c, 0, 46, 52
2, 35876, Note_on_c, 0, 62, 52
2, 35877, Note_on_c, 0, 58, 52
2, 35895, Note_on_c, 0, 65, 52
2, 35901, Note_on_c, 0, 58, 0
2, 35901, Note_on_c, 0, 62, 0
2, 35914, Note_on_c, 0, 70, 56
2, 35915, Note_on_c, 0, 53, 52
2, 35921, Note_on_c, 0, 46, 0
2, 35934, Note_on_c, 0, 77, 54
2, 35939, Note_on_c, 0, 53, 0
2, 35959, Note_on_c, 0, 65, 0
2, 35968, Note_on_c, 0, 70, 0
2, 35973, Note_on_c, 0, 82, 59
2, 35974, Note_on_c, 0, 46, 53
2, 35979, Note_on_c, 0, 77, 0
2, 35998, Note_on_c, 0, 82, 0
2, 36030, Note_on_c, 0, 58, 52
2, 36064, Note_on_c, 0, 58, 0
2, 36064, Note_on_c, 0, 46, 0
2, 36068, Note_on_c, 0, 53, 51
2, 36091, Note_on_c, 0, 53, 0
2, 36095, Note_on_c, 0, 65, 52
2, 36103, Control_c, 0, 64, 0
2, 36115, Note_on_c, 0, 72, 55
2, 36116, Note_on_c, 0, 46, 52
2, 36119, Note_on_c, 0, 65, 0
2, 36133, Note_on_c, 0, 77, 58
2, 36139, Note_on_c, 0, 72, 0
2, 36173, Control_c, 0, 64, 127
2, 36190, Note_on_c, 0, 57, 52
2, 36191, Note_on_c, 0, 63, 52
2, 36214, Note_on_c, 0, 57, 0
2, 36216, Note_on_c, 0, 63, 0
2, 36216, Note_on_c, 0, 46, 0
2, 36219, Note_on_c, 0, 53, 51
2, 36244, Note_on_c, 0, 53, 0
2, 36267, Note_on_c, 0, 46, 52
2, 36312, Note_on_c, 0, 57, 52
2, 36313, Note_on_c, 0, 63, 52
2, 36336, Note_on_c, 0, 57, 0
2, 36337, Note_on_c, 0, 63, 0
2, 36341, Note_on_c, 0, 53, 52
2, 36347, Note_on_c, 0, 46, 0
2, 36365, Note_on_c, 0, 53, 0
2, 36389, Note_on_c, 0, 46, 52
2, 36412, Note_on_c, 0, 77, 0
2, 36435, Note_on_c, 0, 65, 52
2, 36444, Note_on_c, 0, 57, 52
2, 36445, Note_on_c, 0, 63, 52
2, 36459, Note_on_c, 0, 65, 0
2, 36465, Note_on_c, 0, 72, 56
2, 36468, Note_on_c, 0, 57, 0
2, 36469, Note_on_c, 0, 63, 0
2, 36473, Note_on_c, 0, 53, 52
2, 36473, Note_on_c, 0, 77, 58
2, 36479, Note_on_c, 0, 46, 0
2, 36488, Note_on_c, 0, 72, 0
2, 36497, Note_on_c, 0, 77, 0
2, 36507, Note_on_c, 0, 53, 0
2, 36521, Note_on_c, 0, 84, 62
2, 36531, Note_on_c, 0, 46, 52
2, 36555, Note_on_c, 0, 84, 0
2, 36605, Note_on_c, 0, 57, 52
2, 36606, Note_on_c, 0, 63, 52
2, 36612, Note_on_c, 0, 46, 0
2, 36629, Note_on_c, 0, 57, 0
2, 36630, Note_on_c, 0, 63, 0
2, 36633, Note_on_c, 0, 65, 56
2, 36634, Note_on_c, 0, 53, 53
2, 36640, Control_c, 0, 64, 0
2, 36657, Note_on_c, 0, 65, 0
2, 36658, Note_on_c, 0, 53, 0
2, 36671, Note_on_c, 0, 74, 54
2, 36681, Note_on_c, 0, 77, 52
2, 36690, Note_on_c, 0, 46, 56
2, 36694, Note_on_c, 0, 74, 0
2, 36704, Note_on_c, 0, 77, 0
2, 36727, Note_on_c, 0, 86, 60
2, 36735, Control_c, 0, 64, 127
2, 36759, Note_on_c, 0, 46, 0
2, 36762, Note_on_c, 0, 62, 56
2, 36763, Note_on_c, 0, 58, 56
2, 36787, Note_on_c, 0, 62, 0
2, 36791, Note_on_c, 0, 53, 56
2, 36797, Note_on_c, 0, 58, 0
2, 36815, Note_on_c, 0, 53, 0
2, 36838, Note_on_c, 0, 46, 56
2, 36873, Note_on_c, 0, 86, 0
2, 36895, Note_on_c, 0, 58, 56
2, 36900, Note_on_c, 0, 46, 0
2, 36919, Note_on_c, 0, 58, 0
2, 36922, Note_on_c, 0, 53, 56
2, 36947, Note_on_c, 0, 53, 0
2, 36971, Note_on_c, 0, 46, 56
2, 37017, Note_on_c, 0, 62, 56
2, 37017, Note_on_c, 0, 65, 56
2, 37026, Note_on_c, 0, 58, 56
2, 37035, Note_on_c, 0, 70, 55
2, 37041, Note_on_c, 0, 65, 0
2, 37042, Note_on_c, 0, 62, 0
2, 37043, Note_on_c, 0, 46, 0
2, 37051, Note_on_c, 0, 58, 0
2, 37054, Note_on_c, 0, 53, 55
2, 37054, Note_on_c, 0, 77, 52
2, 37059, Note_on_c, 0, 70, 0
2, 37079, Note_on_c, 0, 77, 0
2, 37079, Note_on_c, 0, 53, 0
2, 37102, Note_on_c, 0, 82, 57
2, 37103, Note_on_c, 0, 46, 53
2, 37137, Note_on_c, 0, 82, 0
2, 37159, Note_on_c, 0, 62, 52
2, 37160, Note_on_c, 0, 58, 52
2, 37176, Control_c, 0, 64, 0
2, 37187, Note_on_c, 0, 53, 52
2, 37206, Note_on_c, 0, 65, 52
2, 37212, Note_on_c, 0, 46, 0
2, 37229, Note_on_c, 0, 65, 0
2, 37230, Note_on_c, 0, 58, 0
2, 37234, Note_on_c, 0, 72, 56
2, 37239, Note_on_c, 0, 62, 0
2, 37239, Note_on_c, 0, 53, 0
2, 37254, Note_on_c, 0, 46, 51
2, 37262, Note_on_c, 0, 77, 58
2, 37268, Note_on_c, 0, 72, 0
2, 37293, Control_c, 0, 64, 127
2, 37301, Note_on_c, 0, 57, 52
2, 37302, Note_on_c, 0, 63, 52
2, 37326, Note_on_c, 0, 46, 0
2, 37338, Note_on_c, 0, 53, 52
2, 37362, Note_on_c, 0, 53, 0
2, 37362, Note_on_c, 0, 57, 0
2, 37363, Note_on_c, 0, 63, 0
2, 37377, Note_on_c, 0, 46, 52
2, 37432, Note_on_c, 0, 57, 52
2, 37433, Note_on_c, 0, 63, 52
2, 37458, Note_on_c, 0, 63, 0
2, 37458, Note_on_c, 0, 46, 0
2, 37466, Note_on_c, 0, 57, 0
2, 37471, Note_on_c, 0, 53, 52
2, 37495, Note_on_c, 0, 53, 0
2, 37508, Note_on_c, 0, 46, 52
2, 37554, Note_on_c, 0, 65, 52
2, 37561, Note_on_c, 0, 77, 0
2, 37564, Note_on_c, 0, 57, 52
2, 37565, Note_on_c, 0, 63, 52
2, 37574, Note_on_c, 0, 72, 55
2, 37578, Note_on_c, 0, 65, 0
2, 37588, Note_on_c, 0, 57, 0
2, 37589, Note_on_c, 0, 63, 0
2, 37590, Note_on_c, 0, 46, 0
2, 37602, Note_on_c, 0, 53, 52
2, 37602, Note_on_c, 0, 77, 58
2, 37608, Note_on_c, 0, 72, 0
2, 37626, Note_on_c, 0, 53, 0
2, 37627, Note_on_c, 0, 77, 0
2, 37641, Note_on_c, 0, 46, 52
2, 37641, Note_on_c, 0, 84, 62
2, 37666, Note_on_c, 0, 84, 0
2, 37715, Note_on_c, 0, 46, 0
2, 37717, Note_on_c, 0, 57, 52
2, 37718, Note_on_c, 0, 63, 52
2, 37755, Note_on_c, 0, 65, 52
2, 37756, Note_on_c, 0, 53, 52
2, 37763, Control_c, 0, 64, 0
2, 37779, Note_on_c, 0, 65, 0
2, 37793, Note_on_c, 0, 74, 56
2, 37794, Note_on_c, 0, 46, 52
2, 37798, Note_on_c, 0, 57, 0
2, 37799, Note_on_c, 0, 63, 0
2, 37811, Note_on_c, 0, 77, 54
2, 37816, Note_on_c, 0, 74, 0
2, 37827, Note_on_c, 0, 53, 0
2, 37832, Note_on_c, 0, 86, 58
2, 37835, Note_on_c, 0, 77, 0
2, 37858, Note_on_c, 0, 62, 52
2, 37859, Control_c, 0, 64, 127
2, 37865, Note_on_c, 0, 46, 0
2, 37868, Note_on_c, 0, 58, 52
2, 37896, Note_on_c, 0, 53, 52
2, 37920, Note_on_c, 0, 53, 0
2, 37920, Note_on_c, 0, 58, 0
2, 37920, Note_on_c, 0, 62, 0
2, 37934, Note_on_c, 0, 46, 52
2, 37968, Note_on_c, 0, 86, 0
2, 37980, Note_on_c, 0, 62, 52
2, 37981, Note_on_c, 0, 58, 52
2, 38005, Note_on_c, 0, 62, 0
2, 38015, Note_on_c, 0, 58, 0
2, 38016, Note_on_c, 0, 46, 0
2, 38020, Note_on_c, 0, 53, 52
2, 38043, Note_on_c, 0, 53, 0
2, 38057, Note_on_c, 0, 46, 52
2, 38103, Note_on_c, 0, 62, 52
2, 38103, Note_on_c, 0, 65, 52
2, 38104, Note_on_c, 0, 58, 52
2, 38123, Note_on_c, 0, 70, 55
2, 38128, Note_on_c, 0, 65, 0
2, 38129, Note_on_c, 0, 62, 0
2, 38130, Note_on_c, 0, 46, 0
2, 38139, Note_on_c, 0, 58, 0
2, 38143, Note_on_c, 0, 53, 52
2, 38144, Note_on_c, 0, 77, 59
2, 38158, Note_on_c, 0, 70, 0
2, 38168, Note_on_c, 0, 77, 0
2, 38168, Note_on_c, 0, 53, 0
2, 38191, Note_on_c, 0, 46, 52
2, 38200, Note_on_c, 0, 82, 55
2, 38234, Note_on_c, 0, 82, 0
2, 38246, Note_on_c, 0, 62, 51
2, 38247, Note_on_c, 0, 58, 52
2, 38266, Note_on_c, 0, 53, 53
2, 38271, Note_on_c, 0, 46, 0
2, 38272, Control_c, 0, 64, 0
2, 38285, Note_on_c, 0, 69, 55
2, 38309, Note_on_c, 0, 69, 0
2, 38312, Note_on_c, 0, 48, 56
2, 38313, Note_on_c, 0, 77, 60
2, 38316, Note_on_c, 0, 53, 0
2, 38317, Note_on_c, 0, 62, 0
2, 38318, Note_on_c, 0, 58, 0
2, 38332, Note_on_c, 0, 81, 60
2, 38338, Note_on_c, 0, 77, 0
2, 38356, Note_on_c, 0, 81, 0
2, 38381, Control_c, 0, 64, 127
2, 38382, Note_on_c, 0, 89, 62
2, 38404, Note_on_c, 0, 48, 0
2, 38434, Note_on_c, 0, 89, 0
2, 38435, Note_on_c, 0, 65, 56
2, 38435, Note_on_c, 0, 60, 56
2, 38459, Note_on_c, 0, 60, 0
2, 38459, Note_on_c, 0, 65, 0
2, 38463, Note_on_c, 0, 57, 56
2, 38487, Note_on_c, 0, 57, 0
2, 38501, Note_on_c, 0, 48, 56
2, 38556, Note_on_c, 0, 65, 55
2, 38557, Note_on_c, 0, 60, 53
2, 38558, Note_on_c, 0, 69, 54
2, 38580, Note_on_c, 0, 65, 0
2, 38581, Note_on_c, 0, 48, 0
2, 38582, Note_on_c, 0, 60, 0
2, 38582, Note_on_c, 0, 69, 0
2, 38585, Note_on_c, 0, 57, 52
2, 38595, Note_on_c, 0, 77, 55
2, 38609, Note_on_c, 0, 57, 0
2, 38624, Note_on_c, 0, 81, 58
2, 38629, Note_on_c, 0, 77, 0
2, 38632, Note_on_c, 0, 48, 52
2, 38653, Note_on_c, 0, 84, 60
2, 38656, Note_on_c, 0, 81, 0
2, 38706, Note_on_c, 0, 65, 55
2, 38707, Note_on_c, 0, 60, 52
2, 38713, Note_on_c, 0, 48, 0
2, 38731, Note_on_c, 0, 60, 0
2, 38731, Note_on_c, 0, 65, 0
2, 38736, Note_on_c, 0, 57, 52
2, 38760, Note_on_c, 0, 57, 0
2, 38774, Note_on_c, 0, 48, 52
2, 38840, Note_on_c, 0, 65, 52
2, 38841, Note_on_c, 0, 60, 52
2, 38846, Note_on_c, 0, 48, 0
2, 38857, Note_on_c, 0, 84, 0
2, 38867, Control_c, 0, 64, 0
2, 38868, Note_on_c, 0, 57, 52
2, 38888, Note_on_c, 0, 70, 53
2, 38899, Control_c, 0, 67, 127
2, 38915, Note_on_c, 0, 48, 49
2, 38916, Note_on_c, 0, 76, 52
2, 38919, Note_on_c, 0, 70, 0
2, 38920, Note_on_c, 0, 65, 0
2, 38921, Note_on_c, 0, 60, 0
2, 38955, Note_on_c, 0, 79, 55
2, 38959, Note_on_c, 0, 57, 0
2, 38960, Note_on_c, 0, 76, 0
2, 39002, Note_on_c, 0, 84, 60
2, 39003, Control_c, 0, 64, 127
2, 39007, Note_on_c, 0, 79, 0
2, 39034, Note_on_c, 0, 48, 0
2, 39084, Note_on_c, 0, 64, 54
2, 39085, Note_on_c, 0, 58, 49
2, 39091, Note_on_c, 0, 84, 0
2, 39119, Note_on_c, 0, 58, 0
2, 39131, Note_on_c, 0, 55, 49
2, 39131, Note_on_c, 0, 70, 51
2, 39150, Note_on_c, 0, 48, 49
2, 39151, Note_on_c, 0, 76, 48
2, 39155, Note_on_c, 0, 70, 0
2, 39155, Note_on_c, 0, 55, 0
2, 39165, Note_on_c, 0, 64, 0
2, 39179, Note_on_c, 0, 79, 45
2, 39185, Note_on_c, 0, 76, 0
2, 39208, Note_on_c, 0, 83, 48
2, 39214, Note_on_c, 0, 79, 0
2, 39233, Note_on_c, 0, 83, 0
2, 39235, Note_on_c, 0, 64, 53
2, 39236, Note_on_c, 0, 58, 49
2, 39242, Note_on_c, 0, 48, 0
2, 39247, Note_on_c, 0, 84, 57
2, 39260, Note_on_c, 0, 64, 0
2, 39270, Note_on_c, 0, 58, 0
2, 39275, Note_on_c, 0, 86, 60
2, 39281, Note_on_c, 0, 84, 0
2, 39284, Note_on_c, 0, 55, 49
2, 39318, Note_on_c, 0, 55, 0
2, 39323, Note_on_c, 0, 48, 49
2, 39323, Note_on_c, 0, 84, 64
2, 39329, Note_on_c, 0, 86, 0
2, 39347, Note_on_c, 0, 84, 0
2, 39398, Note_on_c, 0, 64, 53
2, 39399, Note_on_c, 0, 58, 49
2, 39422, Note_on_c, 0, 64, 0
2, 39423, Note_on_c, 0, 58, 0
2, 39423, Note_on_c, 0, 48, 0
2, 39437, Note_on_c, 0, 55, 48
2, 39446, Note_on_c, 0, 48, 49
2, 39446, Note_on_c, 0, 60, 49
2, 39454, Note_on_c, 0, 67, 54
2, 39462, Note_on_c, 0, 55, 0
2, 39470, Note_on_c, 0, 60, 0
2, 39479, Note_on_c, 0, 67, 0
2, 39484, Note_on_c, 0, 70, 54
2, 39494, Note_on_c, 0, 76, 55
2, 39508, Note_on_c, 0, 70, 0
2, 39518, Note_on_c, 0, 48, 0
2, 39531, Note_on_c, 0, 64, 52
2, 39532, Note_on_c, 0, 58, 49
2, 39555, Note_on_c, 0, 64, 0
2, 39556, Note_on_c, 0, 58, 0
2, 39557, Control_c, 0, 64, 0
2, 39566, Note_on_c, 0, 76, 0
2, 39569, Note_on_c, 0, 55, 49
2, 39627, Note_on_c, 0, 41, 49
2, 39634, Note_on_c, 0, 65, 48
2, 39654, Note_on_c, 0, 69, 51
2, 39659, Note_on_c, 0, 65, 0
2, 39659, Note_on_c, 0, 55, 0
2, 39664, Note_on_c, 0, 72, 54
2, 39679, Note_on_c, 0, 69, 0
2, 39683, Note_on_c, 0, 77, 54
2, 39683, Control_c, 0, 64, 127
2, 39719, Note_on_c, 0, 57, 49
2, 39720, Note_on_c, 0, 60, 49
2, 39726, Note_on_c, 0, 72, 0
2, 39743, Note_on_c, 0, 60, 0
2, 39744, Note_on_c, 0, 57, 0
2, 39746, Note_on_c, 0, 41, 0
2, 39757, Note_on_c, 0, 48, 49
2, 39781, Note_on_c, 0, 48, 0
2, 39787, Note_on_c, 0, 41, 49
2, 39842, Note_on_c, 0, 57, 49
2, 39843, Note_on_c, 0, 60, 49
2, 39850, Note_on_c, 0, 41, 0
2, 39866, Note_on_c, 0, 57, 0
2, 39867, Note_on_c, 0, 60, 0
2, 39871, Note_on_c, 0, 48, 49
2, 39895, Note_on_c, 0, 48, 0
2, 39909, Note_on_c, 0, 41, 49
2, 39973, Note_on_c, 0, 57, 49
2, 39974, Note_on_c, 0, 60, 49
2, 39991, Note_on_c, 0, 41, 0
2, 39998, Note_on_c, 0, 57, 0
2, 39999, Note_on_c, 0, 77, 0
2, 40000, Note_on_c, 0, 60, 0
2, 40013, Note_on_c, 0, 48, 49
2, 40038, Note_on_c, 0, 48, 0
2, 40043, Note_on_c, 0, 41, 50
2, 40060, Note_on_c, 0, 65, 53
2, 40061, Note_on_c, 0, 77, 55
2, 40103, Note_on_c, 0, 65, 0
2, 40107, Note_on_c, 0, 57, 52
2, 40107, Note_on_c, 0, 60, 53
2, 40124, Control_c, 0, 64, 0
2, 40131, Note_on_c, 0, 57, 0
2, 40132, Note_on_c, 0, 60, 0
2, 40132, Note_on_c, 0, 77, 0
2, 40133, Note_on_c, 0, 41, 0
2, 40135, Note_on_c, 0, 65, 53
2, 40144, Note_on_c, 0, 48, 53
2, 40155, Note_on_c, 0, 72, 52
2, 40159, Note_on_c, 0, 65, 0
2, 40168, Note_on_c, 0, 48, 0
2, 40178, Note_on_c, 0, 72, 0
2, 40182, Note_on_c, 0, 77, 55
2, 40183, Note_on_c, 0, 41, 53
2, 40191, Control_c, 0, 64, 127
2, 40206, Note_on_c, 0, 77, 0
2, 40219, Note_on_c, 0, 84, 60
2, 40264, Note_on_c, 0, 57, 53
2, 40265, Note_on_c, 0, 63, 53
2, 40288, Note_on_c, 0, 57, 0
2, 40289, Note_on_c, 0, 63, 0
2, 40290, Note_on_c, 0, 41, 0
2, 40303, Note_on_c, 0, 53, 53
2, 40326, Note_on_c, 0, 53, 0
2, 40350, Note_on_c, 0, 41, 53
2, 40392, Note_on_c, 0, 84, 0
2, 40414, Note_on_c, 0, 57, 53
2, 40415, Note_on_c, 0, 63, 53
2, 40421, Note_on_c, 0, 41, 0
2, 40438, Note_on_c, 0, 57, 0
2, 40439, Note_on_c, 0, 63, 0
2, 40442, Note_on_c, 0, 53, 53
2, 40466, Note_on_c, 0, 53, 0
2, 40480, Note_on_c, 0, 41, 53
2, 40534, Note_on_c, 0, 65, 53
2, 40544, Note_on_c, 0, 57, 53
2, 40551, Note_on_c, 0, 41, 0
2, 40554, Note_on_c, 0, 63, 53
2, 40569, Note_on_c, 0, 57, 0
2, 40569, Note_on_c, 0, 65, 0
2, 40572, Note_on_c, 0, 73, 57
2, 40579, Note_on_c, 0, 63, 0
2, 40582, Note_on_c, 0, 53, 53
2, 40583, Note_on_c, 0, 77, 58
2, 40597, Note_on_c, 0, 73, 0
2, 40607, Note_on_c, 0, 77, 0
2, 40607, Note_on_c, 0, 53, 0
2, 40621, Note_on_c, 0, 41, 53
2, 40630, Note_on_c, 0, 85, 61
2, 40654, Note_on_c, 0, 85, 0
2, 40696, Note_on_c, 0, 57, 53
2, 40697, Note_on_c, 0, 63, 53
2, 40704, Note_on_c, 0, 41, 0
2, 40714, Control_c, 0, 64, 0
2, 40724, Note_on_c, 0, 65, 53
2, 40725, Note_on_c, 0, 53, 53
2, 40734, Note_on_c, 0, 74, 54
2, 40749, Note_on_c, 0, 65, 0
2, 40758, Note_on_c, 0, 74, 0
2, 40763, Note_on_c, 0, 77, 56
2, 40773, Note_on_c, 0, 46, 53
2, 40787, Note_on_c, 0, 77, 0
2, 40787, Note_on_c, 0, 53, 0
2, 40787, Note_on_c, 0, 57, 0
2, 40788, Note_on_c, 0, 63, 0
2, 40803, Note_on_c, 0, 86, 58
2, 40812, Control_c, 0, 64, 127
2, 40838, Note_on_c, 0, 62, 51
2, 40839, Note_on_c, 0, 58, 50
2, 40863, Note_on_c, 0, 62, 0
2, 40864, Note_on_c, 0, 46, 0
2, 40874, Note_on_c, 0, 58, 0
2, 40877, Note_on_c, 0, 53, 49
2, 40883, Control_c, 0, 67, 0
2, 40900, Note_on_c, 0, 53, 0
2, 40902, Note_on_c, 0, 86, 0
2, 40923, Note_on_c, 0, 46, 52
2, 40968, Note_on_c, 0, 62, 52
2, 40969, Note_on_c, 0, 58, 52
2, 40978, Note_on_c, 0, 65, 52
2, 40994, Note_on_c, 0, 46, 0
2, 41002, Note_on_c, 0, 65, 0
2, 41006, Note_on_c, 0, 53, 52
2, 41006, Note_on_c, 0, 74, 53
2, 41016, Note_on_c, 0, 77, 52
2, 41030, Note_on_c, 0, 74, 0
2, 41031, Note_on_c, 0, 53, 0
2, 41041, Note_on_c, 0, 77, 0
2, 41046, Note_on_c, 0, 46, 52
2, 41064, Note_on_c, 0, 82, 57
2, 41069, Note_on_c, 0, 62, 0
2, 41070, Note_on_c, 0, 58, 0
2, 41110, Note_on_c, 0, 62, 52
2, 41111, Note_on_c, 0, 58, 52
2, 41134, Note_on_c, 0, 62, 0
2, 41135, Note_on_c, 0, 58, 0
2, 41135, Note_on_c, 0, 82, 0
2, 41136, Note_on_c, 0, 46, 0
2, 41139, Note_on_c, 0, 53, 52
2, 41164, Note_on_c, 0, 53, 0
2, 41178, Note_on_c, 0, 46, 52
2, 41196, Note_on_c, 0, 70, 58
2, 41197, Note_on_c, 0, 77, 60
2, 41197, Note_on_c, 0, 82, 63
2, 41243, Note_on_c, 0, 62, 52
2, 41244, Note_on_c, 0, 58, 52
2, 41258, Note_on_c, 0, 70, 0
2, 41267, Note_on_c, 0, 82, 0
2, 41268, Note_on_c, 0, 77, 0
2, 41282, Note_on_c, 0, 53, 52
2, 41297, Note_on_c, 0, 46, 0
2, 41298, Control_c, 0, 64, 0
2, 41301, Note_on_c, 0, 77, 60
2, 41302, Note_on_c, 0, 71, 62
2, 41302, Note_on_c, 0, 83, 65
2, 41325, Note_on_c, 0, 77, 0
2, 41325, Note_on_c, 0, 58, 0
2, 41325, Note_on_c, 0, 62, 0
2, 41326, Note_on_c, 0, 71, 0
2, 41330, Note_on_c, 0, 46, 52
2, 41348, Note_on_c, 0, 72, 59
2, 41354, Note_on_c, 0, 53, 0
2, 41355, Note_on_c, 0, 83, 0
2, 41358, Note_on_c, 0, 77, 56
2, 41387, Control_c, 0, 64, 127
2, 41387, Note_on_c, 0, 84, 62
2, 41413, Note_on_c, 0, 57, 52
2, 41414, Note_on_c, 0, 63, 52
2, 41437, Note_on_c, 0, 57, 0
2, 41438, Note_on_c, 0, 46, 0
2, 41438, Note_on_c, 0, 63, 0
2, 41451, Note_on_c, 0, 53, 51
2, 41475, Note_on_c, 0, 53, 0
2, 41489, Note_on_c, 0, 46, 52
2, 41523, Note_on_c, 0, 84, 0
2, 41532, Note_on_c, 0, 77, 0
2, 41544, Note_on_c, 0, 57, 52
2, 41545, Note_on_c, 0, 63, 52
2, 41551, Note_on_c, 0, 72, 0
2, 41569, Note_on_c, 0, 57, 0
2, 41570, Note_on_c, 0, 63, 0
2, 41571, Note_on_c, 0, 46, 0
2, 41574, Note_on_c, 0, 53, 52
2, 41599, Note_on_c, 0, 53, 0
2, 41623, Note_on_c, 0, 46, 52
2, 41677, Note_on_c, 0, 57, 52
2, 41687, Note_on_c, 0, 65, 57
2, 41688, Note_on_c, 0, 63, 52
2, 41704, Note_on_c, 0, 46, 0
2, 41712, Note_on_c, 0, 57, 0
2, 41713, Note_on_c, 0, 63, 0
2, 41716, Note_on_c, 0, 53, 52
2, 41716, Note_on_c, 0, 72, 60
2, 41721, Note_on_c, 0, 65, 0
2, 41739, Note_on_c, 0, 72, 0
2, 41739, Note_on_c, 0, 53, 0
2, 41744, Note_on_c, 0, 77, 60
2, 41764, Note_on_c, 0, 46, 52
2, 41828, Note_on_c, 0, 57, 52
2, 41828, Note_on_c, 0, 63, 52
2, 41834, Note_on_c, 0, 77, 0
2, 41837, Note_on_c, 0, 65, 52
2, 41843, Note_on_c, 0, 46, 0
2, 41846, Note_on_c, 0, 53, 52
2, 41861, Note_on_c, 0, 65, 0
2, 41872, Control_c, 0, 64, 0
2, 41873, Note_on_c, 0, 74, 56
2, 41893, Note_on_c, 0, 77, 58
2, 41897, Note_on_c, 0, 74, 0
2, 41903, Note_on_c, 0, 46, 52
2, 41917, Note_on_c, 0, 53, 0
2, 41917, Note_on_c, 0, 57, 0
2, 41918, Note_on_c, 0, 77, 0
2, 41919, Note_on_c, 0, 63, 0
2, 41923, Note_on_c, 0, 86, 65
2, 41962, Control_c, 0, 64, 127
2, 41979, Note_on_c, 0, 62, 52
2, 41980, Note_on_c, 0, 58, 52
2, 42003, Note_on_c, 0, 62, 0
2, 42004, Note_on_c, 0, 58, 0
2, 42007, Note_on_c, 0, 53, 52
2, 42023, Note_on_c, 0, 46, 0
2, 42031, Note_on_c, 0, 53, 0
2, 42045, Note_on_c, 0, 46, 52
2, 42090, Note_on_c, 0, 62, 52
2, 42091, Note_on_c, 0, 58, 52
2, 42109, Note_on_c, 0, 53, 52
2, 42115, Note_on_c, 0, 58, 0
2, 42115, Note_on_c, 0, 62, 0
2, 42133, Note_on_c, 0, 53, 0
2, 42134, Note_on_c, 0, 46, 0
2, 42165, Note_on_c, 0, 46, 52
2, 42209, Note_on_c, 0, 86, 0
2, 42211, Note_on_c, 0, 62, 52
2, 42212, Note_on_c, 0, 58, 52
2, 42230, Note_on_c, 0, 53, 52
2, 42230, Note_on_c, 0, 74, 56
2, 42240, Note_on_c, 0, 77, 57
2, 42246, Note_on_c, 0, 46, 0
2, 42256, Control_c, 0, 64, 0
2, 42264, Note_on_c, 0, 77, 0
2, 42287, Note_on_c, 0, 44, 55
2, 42292, Note_on_c, 0, 62, 0
2, 42292, Note_on_c, 0, 58, 0
2, 42298, Note_on_c, 0, 86, 60
2, 42311, Note_on_c, 0, 53, 0
2, 42352, Note_on_c, 0, 62, 55
2, 42353, Control_c, 0, 64, 127
2, 42371, Note_on_c, 0, 58, 52
2, 42375, Note_on_c, 0, 74, 0
2, 42376, Note_on_c, 0, 62, 0
2, 42377, Note_on_c, 0, 86, 0
2, 42390, Note_on_c, 0, 53, 52
2, 42395, Note_on_c, 0, 58, 0
2, 42419, Note_on_c, 0, 86, 58
2, 42427, Note_on_c, 0, 74, 58
2, 42428, Note_on_c, 0, 82, 61
2, 42451, Note_on_c, 0, 74, 0
2, 42453, Control_c, 0, 64, 0
2, 42463, Note_on_c, 0, 82, 0
2, 42470, Note_on_c, 0, 53, 0
2, 42493, Note_on_c, 0, 74, 56
2, 42499, Note_on_c, 0, 44, 0
2, 42500, Note_on_c, 0, 86, 0
2, 42504, Note_on_c, 0, 43, 56
2, 42512, Note_on_c, 0, 79, 62
2, 42532, Note_on_c, 0, 83, 65
2, 42536, Note_on_c, 0, 74, 0
2, 42537, Note_on_c, 0, 79, 0
2, 42555, Note_on_c, 0, 83, 0
2, 42561, Control_c, 0, 64, 127
2, 42570, Note_on_c, 0, 91, 69
2, 42630, Note_on_c, 0, 43, 0
2, 42633, Note_on_c, 0, 59, 56
2, 42634, Note_on_c, 0, 62, 56
2, 42657, Note_on_c, 0, 62, 0
2, 42658, Note_on_c, 0, 59, 0
2, 42659, Note_on_c, 0, 91, 0
2, 42670, Note_on_c, 0, 55, 56
2, 42694, Note_on_c, 0, 55, 0
2, 42708, Note_on_c, 0, 43, 56
2, 42763, Note_on_c, 0, 59, 56
2, 42763, Note_on_c, 0, 62, 56
2, 42787, Note_on_c, 0, 62, 0
2, 42787, Note_on_c, 0, 59, 0
2, 42788, Note_on_c, 0, 43, 0
2, 42801, Note_on_c, 0, 55, 56
2, 42801, Note_on_c, 0, 77, 63
2, 42801, Note_on_c, 0, 79, 64
2, 42802, Note_on_c, 0, 89, 67
2, 42817, Control_c, 0, 64, 0
2, 42837, Note_on_c, 0, 48, 56
2, 42862, Note_on_c, 0, 79, 0
2, 42862, Note_on_c, 0, 77, 0
2, 42863, Note_on_c, 0, 89, 0
2, 42881, Note_on_c, 0, 55, 0
2, 42894, Note_on_c, 0, 77, 62
2, 42894, Note_on_c, 0, 79, 63
2, 42895, Note_on_c, 0, 84, 66
2, 42896, Note_on_c, 0, 89, 67
2, 42933, Control_c, 0, 64, 127
2, 42942, Note_on_c, 0, 63, 56
2, 42942, Note_on_c, 0, 69, 60
2, 42947, Note_on_c, 0, 84, 0
2, 42947, Note_on_c, 0, 79, 0
2, 42966, Note_on_c, 0, 48, 0
2, 42966, Note_on_c, 0, 77, 0
2, 42967, Note_on_c, 0, 69, 0
2, 42978, Note_on_c, 0, 67, 58
2, 42979, Note_on_c, 0, 75, 60
2, 42980, Note_on_c, 0, 87, 63
2, 42987, Note_on_c, 0, 89, 0
2, 43003, Note_on_c, 0, 67, 0
2, 43005, Control_c, 0, 64, 0
2, 43023, Note_on_c, 0, 63, 0
2, 43023, Note_on_c, 0, 75, 0
2, 43037, Note_on_c, 0, 51, 56
2, 43043, Note_on_c, 0, 87, 0
2, 43043, Note_on_c, 0, 74, 64
2, 43044, Note_on_c, 0, 79, 65
2, 43045, Note_on_c, 0, 86, 68
2, 43081, Note_on_c, 0, 65, 62
2, 43091, Note_on_c, 0, 60, 56
2, 43101, Control_c, 0, 64, 127
2, 43104, Note_on_c, 0, 65, 0
2, 43115, Note_on_c, 0, 79, 0
2, 43115, Note_on_c, 0, 60, 0
2, 43120, Note_on_c, 0, 63, 56
2, 43142, Note_on_c, 0, 74, 0
2, 43143, Note_on_c, 0, 63, 0
2, 43144, Note_on_c, 0, 86, 0
2, 43147, Note_on_c, 0, 72, 62
2, 43148, Note_on_c, 0, 84, 64
2, 43154, Note_on_c, 0, 51, 0
2, 43191, Control_c, 0, 64, 0
2, 43209, Note_on_c, 0, 72, 0
2, 43213, Note_on_c, 0, 41, 53
2, 43246, Note_on_c, 0, 84, 0
2, 43249, Note_on_c, 0, 70, 61
2, 43249, Note_on_c, 0, 74, 62
2, 43250, Note_on_c, 0, 77, 61
2, 43251, Note_on_c, 0, 82, 64
2, 43306, Note_on_c, 0, 62, 52
2, 43307, Note_on_c, 0, 58, 52
2, 43307, Control_c, 0, 64, 127
2, 43330, Note_on_c, 0, 62, 0
2, 43331, Note_on_c, 0, 41, 0
2, 43331, Note_on_c, 0, 58, 0
2, 43352, Note_on_c, 0, 53, 52
2, 43376, Note_on_c, 0, 53, 0
2, 43381, Note_on_c, 0, 41, 52
2, 43435, Note_on_c, 0, 62, 52
2, 43436, Note_on_c, 0, 58, 52
2, 43461, Note_on_c, 0, 41, 0
2, 43461, Control_c, 0, 64, 0
2, 43482, Note_on_c, 0, 53, 51
2, 43496, Note_on_c, 0, 70, 0
2, 43505, Note_on_c, 0, 58, 0
2, 43505, Note_on_c, 0, 62, 0
2, 43505, Note_on_c, 0, 53, 0
2, 43509, Control_c, 0, 64, 127
2, 43519, Note_on_c, 0, 41, 52
2, 43541, Note_on_c, 0, 74, 0
2, 43561, Note_on_c, 0, 77, 0
2, 43572, Control_c, 0, 64, 0
2, 43584, Note_on_c, 0, 57, 52
2, 43585, Note_on_c, 0, 63, 52
2, 43599, Note_on_c, 0, 82, 0
2, 43611, Note_on_c, 0, 41, 0
2, 43622, Note_on_c, 0, 84, 52
2, 43641, Note_on_c, 0, 53, 52
2, 43645, Note_on_c, 0, 57, 0
2, 43646, Note_on_c, 0, 63, 0
2, 43652, Control_c, 0, 67, 127
2, 43665, Note_on_c, 0, 53, 0
2, 43682, Note_on_c, 0, 41, 49
2, 43691, Control_c, 0, 64, 127
2, 43695, Note_on_c, 0, 84, 0
2, 43728, Note_on_c, 0, 69, 54
2, 43752, Note_on_c, 0, 69, 0
2, 43755, Note_on_c, 0, 75, 54
2, 43763, Note_on_c, 0, 65, 53
2, 43764, Note_on_c, 0, 77, 54
2, 43779, Note_on_c, 0, 75, 0
2, 43780, Note_on_c, 0, 41, 0
2, 43783, Note_on_c, 0, 57, 53
2, 43785, Note_on_c, 0, 86, 58
2, 43787, Note_on_c, 0, 65, 0
2, 43787, Note_on_c, 0, 77, 0
2, 43808, Note_on_c, 0, 86, 0
2, 43847, Note_on_c, 0, 63, 53
2, 43881, Note_on_c, 0, 63, 0
2, 43888, Note_on_c, 0, 57, 0
2, 43902, Note_on_c, 0, 53, 49
2, 43930, Note_on_c, 0, 84, 40
2, 43963, Note_on_c, 0, 84, 0
2, 43971, Note_on_c, 0, 53, 0
2, 43972, Control_c, 0, 64, 0
2, 43994, Note_on_c, 0, 46, 56
2, 44002, Control_c, 0, 67, 0
2, 44022, Note_on_c, 0, 53, 63
2, 44059, Note_on_c, 0, 70, 52
2, 44060, Note_on_c, 0, 82, 55
2, 44069, Note_on_c, 0, 74, 53
2, 44087, Note_on_c, 0, 62, 76
2, 44088, Control_c, 0, 64, 127
2, 44101, Note_on_c, 0, 74, 0
2, 44101, Note_on_c, 0, 70, 0
2, 44102, Note_on_c, 0, 53, 0
2, 44103, Note_on_c, 0, 82, 0
2, 44112, Note_on_c, 0, 62, 0
2, 44151, Note_on_c, 0, 46, 0
2, 44163, Note_on_c, 0, 50, 67
2, 44181, Note_on_c, 0, 62, 68
2, 44205, Note_on_c, 0, 62, 0
2, 44227, Note_on_c, 0, 62, 68
2, 44227, Note_on_c, 0, 74, 69
2, 44242, Note_on_c, 0, 74, 0
2, 44242, Note_on_c, 0, 50, 0
2, 44251, Note_on_c, 0, 62, 0
2, 44264, Note_on_c, 0, 50, 68
2, 44264, Note_on_c, 0, 74, 69
2, 44285, Note_on_c, 0, 86, 72
2, 44288, Note_on_c, 0, 74, 0
2, 44302, Note_on_c, 0, 62, 72
2, 44309, Note_on_c, 0, 86, 0
2, 44327, Note_on_c, 0, 62, 0
2, 44333, Note_on_c, 0, 86, 77
2, 44357, Note_on_c, 0, 86, 0
2, 44359, Note_on_c, 0, 62, 80
2, 44362, Note_on_c, 0, 98, 85
2, 44364, Note_on_c, 0, 50, 0
2, 44383, Note_on_c, 0, 62, 0
2, 44386, Note_on_c, 0, 98, 0
2, 44387, Note_on_c, 0, 50, 84
2, 44387, Note_on_c, 0, 86, 86
2, 44411, Note_on_c, 0, 86, 0
2, 44412, Note_on_c, 0, 62, 87
2, 44436, Note_on_c, 0, 62, 0
2, 44442, Note_on_c, 0, 86, 92
2, 44446, Note_on_c, 0, 50, 0
2, 44466, Note_on_c, 0, 86, 0
2, 44469, Note_on_c, 0, 47, 91
2, 44469, Note_on_c, 0, 50, 90
2, 44469, Note_on_c, 0, 59, 89
2, 44469, Note_on_c, 0, 74, 94
2, 44487, Note_on_c, 0, 62, 88
2, 44493, Note_on_c, 0, 74, 0
2, 44493, Note_on_c, 0, 59, 0
2, 44493, Note_on_c, 0, 47, 0
2, 44493, Note_on_c, 0, 50, 0
2, 44512, Note_on_c, 0, 62, 0
2, 44515, Note_on_c, 0, 74, 84
2, 44533, Note_on_c, 0, 62, 83
2, 44541, Control_c, 0, 64, 0
2, 44557, Note_on_c, 0, 74, 0
2, 44561, Note_on_c, 0, 48, 80
2, 44567, Note_on_c, 0, 62, 0
2, 44573, Note_on_c, 0, 51, 78
2, 44619, Note_on_c, 0, 60, 80
2, 44619, Note_on_c, 0, 63, 86
2, 44619, Note_on_c, 0, 75, 90
2, 44643, Note_on_c, 0, 63, 0
2, 44666, Control_c, 0, 64, 127
2, 44674, Note_on_c, 0, 62, 78
2, 44675, Note_on_c, 0, 63, 77
2, 44680, Note_on_c, 0, 60, 0
2, 44699, Note_on_c, 0, 48, 0
2, 44699, Note_on_c, 0, 62, 0
2, 44699, Note_on_c, 0, 63, 0
2, 44700, Note_on_c, 0, 51, 0
2, 44722, Note_on_c, 0, 62, 70
2, 44723, Note_on_c, 0, 63, 69
2, 44746, Note_on_c, 0, 62, 0
2, 44747, Note_on_c, 0, 63, 0
2, 44769, Note_on_c, 0, 62, 66
2, 44770, Note_on_c, 0, 63, 64
2, 44785, Note_on_c, 0, 62, 0
2, 44785, Note_on_c, 0, 75, 0
2, 44786, Note_on_c, 0, 63, 0
2, 44807, Note_on_c, 0, 62, 69
2, 44808, Note_on_c, 0, 63, 71
2, 44815, Control_c, 0, 64, 0
2, 44822, Note_on_c, 0, 62, 0
2, 44823, Note_on_c, 0, 63, 0
2, 44844, Note_on_c, 0, 62, 76
2, 44845, Note_on_c, 0, 63, 78
2, 44860, Note_on_c, 0, 62, 0
2, 44861, Note_on_c, 0, 63, 0
2, 44873, Note_on_c, 0, 48, 81
2, 44873, Note_on_c, 0, 57, 82
2, 44874, Note_on_c, 0, 45, 83
2, 44875, Note_on_c, 0, 51, 84
2, 44884, Note_on_c, 0, 63, 83
2, 44885, Note_on_c, 0, 75, 103
2, 44909, Note_on_c, 0, 63, 0
2, 44914, Control_c, 0, 64, 127
2, 44931, Note_on_c, 0, 62, 79
2, 44932, Note_on_c, 0, 63, 78
2, 44945, Note_on_c, 0, 57, 0
2, 44946, Note_on_c, 0, 45, 0
2, 44947, Note_on_c, 0, 51, 0
2, 44955, Note_on_c, 0, 48, 0
2, 44956, Note_on_c, 0, 62, 0
2, 44957, Note_on_c, 0, 63, 0
2, 44978, Note_on_c, 0, 62, 74
2, 44979, Note_on_c, 0, 63, 76
2, 45003, Note_on_c, 0, 62, 0
2, 45004, Note_on_c, 0, 63, 0
2, 45005, Note_on_c, 0, 75, 0
2, 45025, Note_on_c, 0, 62, 79
2, 45026, Note_on_c, 0, 63, 80
2, 45040, Note_on_c, 0, 62, 0
2, 45041, Note_on_c, 0, 63, 0
2, 45060, Control_c, 0, 64, 0
2, 45062, Note_on_c, 0, 62, 87
2, 45063, Note_on_c, 0, 63, 88
2, 45078, Note_on_c, 0, 62, 0
2, 45079, Note_on_c, 0, 63, 0
2, 45101, Note_on_c, 0, 63, 93
2, 45101, Note_on_c, 0, 75, 94
2, 45110, Note_on_c, 0, 42, 91
2, 45129, Note_on_c, 0, 54, 90
2, 45157, Control_c, 0, 64, 127
2, 45181, Note_on_c, 0, 54, 0
2, 45181, Note_on_c, 0, 75, 0
2, 45182, Note_on_c, 0, 63, 0
2, 45183, Note_on_c, 0, 42, 0
2, 45185, Note_on_c, 0, 62, 85
2, 45186, Note_on_c, 0, 50, 84
2, 45210, Note_on_c, 0, 62, 0
2, 45214, Note_on_c, 0, 74, 85
2, 45228, Note_on_c, 0, 50, 0
2, 45238, Note_on_c, 0, 74, 0
2, 45242, Note_on_c, 0, 62, 79
2, 45251, Note_on_c, 0, 50, 78
2, 45261, Note_on_c, 0, 74, 80
2, 45266, Note_on_c, 0, 62, 0
2, 45284, Note_on_c, 0, 74, 0
2, 45294, Note_on_c, 0, 50, 0
2, 45299, Note_on_c, 0, 62, 79
2, 45299, Note_on_c, 0, 86, 80
2, 45314, Note_on_c, 0, 86, 0
2, 45317, Note_on_c, 0, 50, 80
2, 45322, Note_on_c, 0, 62, 0
2, 45337, Note_on_c, 0, 86, 86
2, 45345, Note_on_c, 0, 62, 85
2, 45357, Note_on_c, 0, 98, 86
2, 45361, Note_on_c, 0, 86, 0
2, 45369, Note_on_c, 0, 62, 0
2, 45370, Note_on_c, 0, 50, 0
2, 45384, Note_on_c, 0, 86, 85
2, 45391, Note_on_c, 0, 98, 0
2, 45392, Note_on_c, 0, 62, 90
2, 45408, Note_on_c, 0, 86, 0
2, 45416, Note_on_c, 0, 62, 0
2, 45431, Note_on_c, 0, 86, 86
2, 45454, Note_on_c, 0, 86, 0
2, 45456, Note_on_c, 0, 47, 82
2, 45476, Note_on_c, 0, 50, 81
2, 45476, Note_on_c, 0, 74, 82
2, 45481, Note_on_c, 0, 47, 0
2, 45486, Note_on_c, 0, 59, 81
2, 45486, Note_on_c, 0, 62, 82
2, 45500, Note_on_c, 0, 74, 0
2, 45500, Note_on_c, 0, 50, 0
2, 45510, Note_on_c, 0, 59, 0
2, 45519, Note_on_c, 0, 62, 0
2, 45522, Note_on_c, 0, 74, 80
2, 45530, Control_c, 0, 64, 0
2, 45541, Note_on_c, 0, 62, 76
2, 45551, Note_on_c, 0, 48, 75
2, 45556, Note_on_c, 0, 74, 0
2, 45562, Note_on_c, 0, 51, 74
2, 45565, Note_on_c, 0, 62, 0
2, 45597, Note_on_c, 0, 60, 75
2, 45607, Note_on_c, 0, 63, 79
2, 45607, Note_on_c, 0, 75, 84
2, 45631, Note_on_c, 0, 63, 0
2, 45635, Control_c, 0, 64, 127
2, 45649, Note_on_c, 0, 60, 0
2, 45652, Note_on_c, 0, 62, 73
2, 45653, Note_on_c, 0, 63, 72
2, 45658, Note_on_c, 0, 48, 0
2, 45659, Note_on_c, 0, 51, 0
2, 45676, Note_on_c, 0, 62, 0
2, 45677, Note_on_c, 0, 63, 0
2, 45698, Note_on_c, 0, 62, 67
2, 45699, Note_on_c, 0, 63, 69
2, 45723, Note_on_c, 0, 62, 0
2, 45724, Note_on_c, 0, 63, 0
2, 45745, Note_on_c, 0, 62, 70
2, 45746, Note_on_c, 0, 63, 68
2, 45752, Note_on_c, 0, 75, 0
2, 45760, Note_on_c, 0, 62, 0
2, 45761, Note_on_c, 0, 63, 0
2, 45782, Note_on_c, 0, 62, 72
2, 45783, Note_on_c, 0, 63, 74
2, 45798, Note_on_c, 0, 63, 0
2, 45798, Note_on_c, 0, 62, 0
2, 45807, Control_c, 0, 64, 0
2, 45819, Note_on_c, 0, 62, 80
2, 45820, Note_on_c, 0, 63, 82
2, 45835, Note_on_c, 0, 63, 0
2, 45835, Note_on_c, 0, 62, 0
2, 45857, Note_on_c, 0, 57, 87
2, 45858, Note_on_c, 0, 45, 89
2, 45858, Note_on_c, 0, 48, 90
2, 45858, Note_on_c, 0, 63, 91
2, 45859, Note_on_c, 0, 51, 92
2, 45859, Note_on_c, 0, 75, 104
2, 45877, Control_c, 0, 64, 127
2, 45882, Note_on_c, 0, 63, 0
2, 45899, Note_on_c, 0, 48, 0
2, 45899, Note_on_c, 0, 57, 0
2, 45900, Note_on_c, 0, 51, 0
2, 45909, Note_on_c, 0, 45, 0
2, 45912, Note_on_c, 0, 62, 82
2, 45913, Note_on_c, 0, 63, 81
2, 45937, Note_on_c, 0, 62, 0
2, 45937, Note_on_c, 0, 75, 0
2, 45938, Note_on_c, 0, 63, 0
2, 45960, Note_on_c, 0, 62, 82
2, 45961, Note_on_c, 0, 63, 84
2, 45984, Note_on_c, 0, 62, 0
2, 45985, Note_on_c, 0, 63, 0
2, 46007, Note_on_c, 0, 62, 88
2, 46008, Note_on_c, 0, 63, 89
2, 46032, Note_on_c, 0, 62, 0
2, 46033, Note_on_c, 0, 63, 0
2, 46034, Control_c, 0, 64, 0
2, 46056, Note_on_c, 0, 63, 88
2, 46057, Note_on_c, 0, 75, 91
2, 46058, Note_on_c, 0, 42, 87
2, 46081, Note_on_c, 0, 63, 0
2, 46085, Note_on_c, 0, 54, 89
2, 46093, Note_on_c, 0, 62, 90
2, 46119, Note_on_c, 0, 62, 0
2, 46120, Note_on_c, 0, 75, 0
2, 46132, Note_on_c, 0, 74, 82
2, 46141, Note_on_c, 0, 50, 83
2, 46146, Note_on_c, 0, 74, 0
2, 46152, Control_c, 0, 64, 127
2, 46166, Note_on_c, 0, 42, 0
2, 46168, Note_on_c, 0, 62, 83
2, 46168, Note_on_c, 0, 74, 80
2, 46184, Note_on_c, 0, 50, 0
2, 46185, Note_on_c, 0, 54, 0
2, 46192, Note_on_c, 0, 74, 0
2, 46193, Note_on_c, 0, 62, 0
2, 46206, Note_on_c, 0, 50, 85
2, 46208, Note_on_c, 0, 86, 85
2, 46231, Note_on_c, 0, 86, 0
2, 46234, Note_on_c, 0, 62, 85
2, 46238, Note_on_c, 0, 50, 0
2, 46253, Note_on_c, 0, 86, 89
2, 46257, Note_on_c, 0, 62, 0
2, 46261, Note_on_c, 0, 50, 90
2, 46273, Note_on_c, 0, 98, 94
2, 46277, Note_on_c, 0, 86, 0
2, 46297, Note_on_c, 0, 62, 92
2, 46298, Note_on_c, 0, 86, 94
2, 46305, Note_on_c, 0, 98, 0
2, 46320, Note_on_c, 0, 50, 0
2, 46321, Note_on_c, 0, 62, 0
2, 46322, Note_on_c, 0, 86, 0
2, 46344, Note_on_c, 0, 86, 101
2, 46361, Note_on_c, 0, 62, 98
2, 46369, Note_on_c, 0, 86, 0
2, 46372, Note_on_c, 0, 50, 95
2, 46380, Note_on_c, 0, 74, 92
2, 46386, Note_on_c, 0, 62, 0
2, 46400, Note_on_c, 0, 54, 92
2, 46425, Control_c, 0, 64, 0
2, 46445, Note_on_c, 0, 57, 88
2, 46446, Note_on_c, 0, 69, 99
2, 46496, Note_on_c, 0, 74, 0
2, 46509, Note_on_c, 0, 62, 76
2, 46529, Control_c, 0, 64, 127
2, 46533, Note_on_c, 0, 62, 0
2, 46543, Note_on_c, 0, 54, 0
2, 46546, Note_on_c, 0, 74, 61
2, 46551, Note_on_c, 0, 69, 0
2, 46552, Control_c, 0, 64, 0
2, 46579, Note_on_c, 0, 57, 0
2, 46583, Note_on_c, 0, 55, 73
2, 46583, Note_on_c, 0, 70, 65
2, 46584, Note_on_c, 0, 58, 74
2, 46593, Note_on_c, 0, 62, 75
2, 46597, Note_on_c, 0, 74, 0
2, 46607, Note_on_c, 0, 50, 0
2, 46625, Note_on_c, 0, 62, 0
2, 46629, Note_on_c, 0, 74, 61
2, 46630, Control_c, 0, 64, 127
2, 46675, Control_c, 0, 64, 0
2, 46683, Note_on_c, 0, 74, 0
2, 46687, Note_on_c, 0, 62, 64
2, 46702, Note_on_c, 0, 70, 0
2, 46712, Note_on_c, 0, 62, 0
2, 46715, Note_on_c, 0, 57, 68
2, 46715, Note_on_c, 0, 54, 69
2, 46720, Note_on_c, 0, 55, 0
2, 46721, Note_on_c, 0, 58, 0
2, 46724, Note_on_c, 0, 74, 64
2, 46725, Note_on_c, 0, 69, 65
2, 46762, Control_c, 0, 64, 127
2, 46765, Note_on_c, 0, 74, 0
2, 46770, Note_on_c, 0, 62, 64
2, 46794, Note_on_c, 0, 62, 0
2, 46796, Note_on_c, 0, 74, 61
2, 46811, Note_on_c, 0, 69, 0
2, 46831, Control_c, 0, 64, 0
2, 46838, Note_on_c, 0, 57, 0
2, 46839, Note_on_c, 0, 54, 0
2, 46842, Note_on_c, 0, 55, 74
2, 46842, Note_on_c, 0, 58, 75
2, 46851, Note_on_c, 0, 62, 76
2, 46851, Note_on_c, 0, 70, 62
2, 46856, Note_on_c, 0, 74, 0
2, 46874, Note_on_c, 0, 62, 0
2, 46887, Note_on_c, 0, 74, 60
2, 46931, Note_on_c, 0, 55, 0
2, 46933, Note_on_c, 0, 62, 67
2, 46934, Control_c, 0, 64, 127
2, 46938, Note_on_c, 0, 74, 0
2, 46958, Note_on_c, 0, 62, 0
2, 46967, Note_on_c, 0, 70, 0
2, 46968, Note_on_c, 0, 58, 0
2, 46969, Control_c, 0, 64, 0
2, 46972, Note_on_c, 0, 74, 66
2, 46973, Note_on_c, 0, 59, 70
2, 46974, Note_on_c, 0, 56, 71
2, 46974, Note_on_c, 0, 71, 67
2, 47015, Note_on_c, 0, 74, 0
2, 47019, Note_on_c, 0, 62, 67
2, 47052, Note_on_c, 0, 62, 0
2, 47056, Note_on_c, 0, 74, 61
2, 47076, Control_c, 0, 64, 127
2, 47090, Note_on_c, 0, 59, 0
2, 47091, Note_on_c, 0, 71, 0
2, 47091, Note_on_c, 0, 56, 0
2, 47094, Note_on_c, 0, 57, 69
2, 47095, Note_on_c, 0, 60, 70
2, 47096, Note_on_c, 0, 72, 66
2, 47101, Control_c, 0, 64, 0
2, 47104, Note_on_c, 0, 62, 72
2, 47118, Note_on_c, 0, 74, 0
2, 47138, Note_on_c, 0, 62, 0
2, 47160, Note_on_c, 0, 74, 62
2, 47193, Note_on_c, 0, 74, 0
2, 47196, Note_on_c, 0, 62, 62
2, 47217, Control_c, 0, 64, 127
2, 47221, Note_on_c, 0, 62, 0
2, 47234, Note_on_c, 0, 74, 61
2, 47267, Note_on_c, 0, 74, 0
2, 47272, Note_on_c, 0, 62, 60
2, 47277, Note_on_c, 0, 57, 0
2, 47296, Note_on_c, 0, 62, 0
2, 47310, Note_on_c, 0, 74, 61
2, 47317, Control_c, 0, 64, 0
2, 47325, Note_on_c, 0, 72, 0
2, 47342, Note_on_c, 0, 74, 0
2, 47343, Note_on_c, 0, 60, 0
2, 47346, Note_on_c, 0, 61, 65
2, 47346, Note_on_c, 0, 62, 66
2, 47347, Note_on_c, 0, 73, 66
2, 47348, Note_on_c, 0, 58, 67
2, 47372, Note_on_c, 0, 62, 0
2, 47411, Note_on_c, 0, 74, 61
2, 47421, Control_c, 0, 64, 127
2, 47435, Note_on_c, 0, 74, 0
2, 47439, Note_on_c, 0, 62, 61
2, 47463, Note_on_c, 0, 62, 0
2, 47466, Note_on_c, 0, 74, 58
2, 47490, Note_on_c, 0, 61, 0
2, 47491, Note_on_c, 0, 73, 0
2, 47492, Note_on_c, 0, 58, 0
2, 47513, Note_on_c, 0, 62, 53
2, 47529, Note_on_c, 0, 74, 0
2, 47542, Note_on_c, 0, 73, 60
2, 47547, Note_on_c, 0, 62, 0
2, 47547, Control_c, 0, 64, 0
2, 47550, Note_on_c, 0, 61, 63
2, 47551, Note_on_c, 0, 58, 64
2, 47565, Note_on_c, 0, 73, 0
2, 47573, Note_on_c, 0, 61, 0
2, 47575, Note_on_c, 0, 58, 0
2, 47605, Note_on_c, 0, 59, 62
2, 47624, Note_on_c, 0, 62, 59
2, 47625, Note_on_c, 0, 74, 73
2, 47649, Note_on_c, 0, 62, 0
2, 47675, Note_on_c, 0, 74, 0
2, 47708, Note_on_c, 0, 62, 54
2, 47708, Note_on_c, 0, 74, 60
2, 47732, Note_on_c, 0, 74, 0
2, 47733, Note_on_c, 0, 62, 0
2, 47764, Note_on_c, 0, 62, 52
2, 47765, Note_on_c, 0, 74, 56
2, 47766, Control_c, 0, 64, 127
2, 47789, Note_on_c, 0, 74, 0
2, 47790, Note_on_c, 0, 62, 0
2, 47820, Note_on_c, 0, 62, 52
2, 47820, Note_on_c, 0, 74, 53
2, 47844, Note_on_c, 0, 74, 0
2, 47845, Note_on_c, 0, 62, 0
2, 47867, Note_on_c, 0, 62, 55
2, 47867, Note_on_c, 0, 74, 55
2, 47891, Note_on_c, 0, 74, 0
2, 47891, Note_on_c, 0, 62, 0
2, 47914, Note_on_c, 0, 62, 56
2, 47914, Note_on_c, 0, 74, 57
2, 47938, Note_on_c, 0, 74, 0
2, 47939, Note_on_c, 0, 62, 0
2, 47961, Note_on_c, 0, 62, 56
2, 47961, Note_on_c, 0, 74, 57
2, 47984, Note_on_c, 0, 74, 0
2, 47985, Note_on_c, 0, 62, 0
2, 48006, Note_on_c, 0, 74, 57
2, 48007, Note_on_c, 0, 62, 56
2, 48031, Note_on_c, 0, 74, 0
2, 48032, Note_on_c, 0, 62, 0
2, 48054, Note_on_c, 0, 62, 56
2, 48054, Note_on_c, 0, 74, 57
2, 48078, Note_on_c, 0, 74, 0
2, 48079, Note_on_c, 0, 62, 0
2, 48100, Note_on_c, 0, 62, 56
2, 48100, Note_on_c, 0, 74, 57
2, 48111, Control_c, 0, 67, 127
2, 48124, Note_on_c, 0, 74, 0
2, 48125, Note_on_c, 0, 62, 0
2, 48147, Note_on_c, 0, 62, 53
2, 48148, Note_on_c, 0, 74, 54
2, 48172, Note_on_c, 0, 74, 0
2, 48173, Note_on_c, 0, 62, 0
2, 48195, Note_on_c, 0, 62, 52
2, 48196, Note_on_c, 0, 74, 52
2, 48219, Note_on_c, 0, 74, 0
2, 48220, Note_on_c, 0, 62, 0
2, 48242, Note_on_c, 0, 62, 49
2, 48243, Note_on_c, 0, 74, 50
2, 48266, Note_on_c, 0, 74, 0
2, 48267, Note_on_c, 0, 62, 0
2, 48289, Note_on_c, 0, 62, 48
2, 48289, Note_on_c, 0, 74, 51
2, 48313, Note_on_c, 0, 74, 0
2, 48314, Note_on_c, 0, 62, 0
2, 48336, Note_on_c, 0, 62, 51
2, 48343, Control_c, 0, 64, 0
2, 48351, Note_on_c, 0, 62, 0
2, 48351, Note_on_c, 0, 59, 0
2, 48365, Note_on_c, 0, 52, 55
2, 48365, Note_on_c, 0, 64, 53
2, 48365, Note_on_c, 0, 67, 52
2, 48365, Note_on_c, 0, 73, 54
2, 48389, Note_on_c, 0, 73, 0
2, 48389, Note_on_c, 0, 67, 0
2, 48389, Note_on_c, 0, 64, 0
2, 48411, Note_on_c, 0, 64, 53
2, 48411, Note_on_c, 0, 67, 53
2, 48412, Control_c, 0, 64, 127
2, 48412, Note_on_c, 0, 73, 54
2, 48435, Note_on_c, 0, 67, 0
2, 48435, Note_on_c, 0, 64, 0
2, 48436, Note_on_c, 0, 73, 0
2, 48456, Control_c, 0, 64, 0
2, 48459, Note_on_c, 0, 64, 53
2, 48459, Note_on_c, 0, 67, 53
2, 48459, Note_on_c, 0, 73, 53
2, 48464, Note_on_c, 0, 52, 0
2, 48483, Note_on_c, 0, 73, 0
2, 48491, Note_on_c, 0, 67, 0
2, 48491, Note_on_c, 0, 64, 0
2, 48505, Note_on_c, 0, 54, 56
2, 48523, Note_on_c, 0, 62, 54
2, 48523, Note_on_c, 0, 66, 53
2, 48524, Note_on_c, 0, 71, 53
2, 48546, Note_on_c, 0, 66, 0
2, 48547, Note_on_c, 0, 62, 0
2, 48548, Note_on_c, 0, 71, 0
2, 48569, Note_on_c, 0, 62, 53
2, 48569, Note_on_c, 0, 66, 53
2, 48570, Note_on_c, 0, 71, 53
2, 48587, Control_c, 0, 64, 127
2, 48592, Note_on_c, 0, 66, 0
2, 48592, Note_on_c, 0, 62, 0
2, 48593, Note_on_c, 0, 71, 0
2, 48603, Control_c, 0, 64, 0
2, 48614, Note_on_c, 0, 62, 53
2, 48614, Note_on_c, 0, 66, 53
2, 48615, Note_on_c, 0, 71, 53
2, 48620, Note_on_c, 0, 54, 0
2, 48635, Note_on_c, 0, 42, 53
2, 48639, Note_on_c, 0, 71, 0
2, 48647, Note_on_c, 0, 66, 0
2, 48648, Note_on_c, 0, 62, 0
2, 48668, Note_on_c, 0, 42, 0
2, 48707, Note_on_c, 0, 54, 55
2, 48715, Note_on_c, 0, 61, 59
2, 48716, Note_on_c, 0, 66, 49
2, 48716, Note_on_c, 0, 70, 50
2, 48726, Control_c, 0, 64, 127
2, 48739, Note_on_c, 0, 61, 0
2, 48740, Note_on_c, 0, 70, 0
2, 48741, Note_on_c, 0, 66, 0
2, 48763, Note_on_c, 0, 61, 55
2, 48763, Note_on_c, 0, 66, 49
2, 48763, Note_on_c, 0, 70, 49
2, 48787, Note_on_c, 0, 70, 0
2, 48787, Note_on_c, 0, 66, 0
2, 48787, Note_on_c, 0, 61, 0
2, 48809, Note_on_c, 0, 61, 51
2, 48810, Note_on_c, 0, 66, 49
2, 48810, Note_on_c, 0, 70, 50
2, 48836, Control_c, 0, 64, 0
2, 48852, Note_on_c, 0, 70, 0
2, 48852, Note_on_c, 0, 66, 0
2, 48852, Note_on_c, 0, 61, 0
2, 48854, Control_c, 0, 67, 0
2, 48883, Note_on_c, 0, 47, 52
2, 48967, Note_on_c, 0, 59, 56
2, 49071, Control_c, 0, 64, 127
2, 49079, Note_on_c, 0, 62, 52
2, 49079, Note_on_c, 0, 66, 52
2, 49080, Note_on_c, 0, 71, 52
2, 49102, Note_on_c, 0, 66, 0
2, 49102, Note_on_c, 0, 62, 0
2, 49103, Note_on_c, 0, 71, 0
2, 49134, Note_on_c, 0, 62, 52
2, 49134, Note_on_c, 0, 66, 52
2, 49135, Note_on_c, 0, 71, 52
2, 49148, Note_on_c, 0, 59, 0
2, 49158, Note_on_c, 0, 66, 0
2, 49159, Note_on_c, 0, 62, 0
2, 49159, Note_on_c, 0, 71, 0
2, 49188, Note_on_c, 0, 66, 51
2, 49189, Note_on_c, 0, 71, 53
2, 49207, Note_on_c, 0, 59, 56
2, 49211, Note_on_c, 0, 66, 0
2, 49212, Note_on_c, 0, 71, 0
2, 49261, Note_on_c, 0, 62, 53
2, 49261, Note_on_c, 0, 66, 49
2, 49262, Note_on_c, 0, 71, 49
2, 49285, Note_on_c, 0, 66, 0
2, 49286, Note_on_c, 0, 62, 0
2, 49286, Note_on_c, 0, 71, 0
2, 49307, Note_on_c, 0, 62, 47
2, 49307, Note_on_c, 0, 66, 49
2, 49308, Note_on_c, 0, 71, 51
2, 49331, Note_on_c, 0, 66, 0
2, 49331, Note_on_c, 0, 62, 0
2, 49332, Note_on_c, 0, 54, 0
2, 49333, Note_on_c, 0, 71, 0
2, 49355, Note_on_c, 0, 62, 52
2, 49355, Note_on_c, 0, 66, 55
2, 49355, Note_on_c, 0, 71, 57
2, 49379, Note_on_c, 0, 71, 0
2, 49379, Note_on_c, 0, 62, 0
2, 49379, Note_on_c, 0, 66, 0
2, 49401, Note_on_c, 0, 62, 51
2, 49401, Note_on_c, 0, 66, 54
2, 49402, Note_on_c, 0, 71, 54
2, 49425, Note_on_c, 0, 66, 0
2, 49426, Note_on_c, 0, 62, 0
2, 49426, Note_on_c, 0, 71, 0
2, 49447, Note_on_c, 0, 62, 54
2, 49447, Note_on_c, 0, 66, 55
2, 49448, Note_on_c, 0, 71, 57
2, 49463, Control_c, 0, 64, 0
2, 49472, Note_on_c, 0, 71, 0
2, 49472, Note_on_c, 0, 66, 0
2, 49473, Note_on_c, 0, 62, 0
2, 49475, Note_on_c, 0, 54, 60
2, 49508, Note_on_c, 0, 59, 0
2, 49522, Note_on_c, 0, 66, 55
2, 49523, Note_on_c, 0, 63, 57
2, 49523, Note_on_c, 0, 69, 57
2, 49546, Note_on_c, 0, 66, 0
2, 49547, Note_on_c, 0, 63, 0
2, 49547, Note_on_c, 0, 69, 0
2, 49568, Note_on_c, 0, 66, 53
2, 49569, Note_on_c, 0, 63, 54
2, 49569, Note_on_c, 0, 69, 53
2, 49570, Control_c, 0, 64, 127
2, 49583, Note_on_c, 0, 54, 0
2, 49601, Note_on_c, 0, 66, 0
2, 49602, Note_on_c, 0, 69, 0
2, 49602, Note_on_c, 0, 63, 0
2, 49626, Note_on_c, 0, 54, 54
2, 49650, Note_on_c, 0, 47, 0
2, 49665, Note_on_c, 0, 63, 52
2, 49665, Note_on_c, 0, 69, 53
2, 49669, Note_on_c, 0, 54, 0
2, 49672, Note_on_c, 0, 66, 52
2, 49697, Control_c, 0, 64, 0
2, 49715, Note_on_c, 0, 63, 0
2, 49717, Note_on_c, 0, 57, 57
2, 49741, Note_on_c, 0, 66, 0
2, 49742, Note_on_c, 0, 69, 0
2, 49755, Note_on_c, 0, 40, 59
2, 49790, Note_on_c, 0, 47, 59
2, 49815, Note_on_c, 0, 40, 0
2, 49818, Note_on_c, 0, 52, 52
2, 49833, Note_on_c, 0, 47, 0
2, 49848, Control_c, 0, 64, 127
2, 49851, Note_on_c, 0, 57, 0
2, 49855, Note_on_c, 0, 64, 51
2, 49855, Note_on_c, 0, 67, 52
2, 49856, Note_on_c, 0, 59, 52
2, 49880, Note_on_c, 0, 59, 0
2, 49880, Note_on_c, 0, 67, 0
2, 49880, Note_on_c, 0, 64, 0
2, 49902, Note_on_c, 0, 59, 52
2, 49902, Note_on_c, 0, 64, 52
2, 49902, Note_on_c, 0, 67, 51
2, 49918, Control_c, 0, 64, 0
2, 49926, Note_on_c, 0, 67, 0
2, 49926, Note_on_c, 0, 64, 0
2, 49926, Note_on_c, 0, 59, 0
2, 49948, Note_on_c, 0, 64, 54
2, 49948, Note_on_c, 0, 67, 55
2, 49949, Note_on_c, 0, 55, 54
2, 49972, Note_on_c, 0, 67, 0
2, 49972, Note_on_c, 0, 64, 0
2, 49995, Note_on_c, 0, 64, 55
2, 49995, Note_on_c, 0, 67, 56
2, 49996, Note_on_c, 0, 59, 56
2, 50019, Note_on_c, 0, 59, 0
2, 50019, Note_on_c, 0, 67, 0
2, 50020, Note_on_c, 0, 64, 0
2, 50025, Control_c, 0, 64, 127
2, 50028, Note_on_c, 0, 55, 0
2, 50041, Note_on_c, 0, 64, 55
2, 50042, Note_on_c, 0, 59, 56
2, 50042, Note_on_c, 0, 67, 56
2, 50065, Note_on_c, 0, 67, 0
2, 50065, Note_on_c, 0, 59, 0
2, 50066, Note_on_c, 0, 64, 0
2, 50079, Note_on_c, 0, 55, 54
2, 50089, Note_on_c, 0, 64, 56
2, 50090, Note_on_c, 0, 67, 57
2, 50113, Note_on_c, 0, 67, 0
2, 50113, Note_on_c, 0, 64, 0
2, 50114, Note_on_c, 0, 55, 0
2, 50124, Control_c, 0, 64, 0
2, 50154, Note_on_c, 0, 64, 60
2, 50154, Note_on_c, 0, 67, 60
2, 50173, Note_on_c, 0, 55, 60
2, 50178, Note_on_c, 0, 64, 0
2, 50179, Note_on_c, 0, 67, 0
2, 50201, Note_on_c, 0, 59, 60
2, 50201, Note_on_c, 0, 64, 60
2, 50201, Note_on_c, 0, 67, 59
2, 50225, Note_on_c, 0, 67, 0
2, 50225, Note_on_c, 0, 64, 0
2, 50226, Note_on_c, 0, 59, 0
2, 50231, Control_c, 0, 64, 127
2, 50248, Note_on_c, 0, 67, 60
2, 50249, Note_on_c, 0, 64, 60
2, 50250, Note_on_c, 0, 59, 60
2, 50273, Note_on_c, 0, 67, 0
2, 50274, Note_on_c, 0, 64, 0
2, 50274, Note_on_c, 0, 59, 0
2, 50295, Note_on_c, 0, 64, 59
2, 50295, Note_on_c, 0, 67, 60
2, 50296, Note_on_c, 0, 59, 60
2, 50320, Note_on_c, 0, 67, 0
2, 50321, Note_on_c, 0, 64, 0
2, 50321, Note_on_c, 0, 59, 0
2, 50342, Note_on_c, 0, 59, 60
2, 50342, Note_on_c, 0, 64, 60
2, 50342, Note_on_c, 0, 67, 59
2, 50366, Note_on_c, 0, 67, 0
2, 50367, Note_on_c, 0, 59, 0
2, 50367, Note_on_c, 0, 64, 0
2, 50388, Note_on_c, 0, 64, 59
2, 50388, Note_on_c, 0, 67, 60
2, 50389, Note_on_c, 0, 59, 60
2, 50404, Note_on_c, 0, 59, 0
2, 50404, Note_on_c, 0, 67, 0
2, 50405, Note_on_c, 0, 64, 0
2, 50413, Note_on_c, 0, 52, 0
2, 50426, Note_on_c, 0, 64, 60
2, 50426, Note_on_c, 0, 67, 60
2, 50427, Note_on_c, 0, 59, 60
2, 50451, Note_on_c, 0, 59, 0
2, 50451, Note_on_c, 0, 67, 0
2, 50451, Note_on_c, 0, 64, 0
2, 50470, Note_on_c, 0, 55, 0
2, 50472, Note_on_c, 0, 67, 57
2, 50473, Note_on_c, 0, 64, 56
2, 50474, Note_on_c, 0, 59, 56
2, 50496, Note_on_c, 0, 67, 0
2, 50497, Note_on_c, 0, 64, 0
2, 50498, Note_on_c, 0, 59, 0
2, 50519, Note_on_c, 0, 64, 52
2, 50519, Note_on_c, 0, 67, 52
2, 50520, Note_on_c, 0, 59, 53
2, 50530, Note_on_c, 0, 55, 55
2, 50534, Note_on_c, 0, 59, 0
2, 50534, Note_on_c, 0, 64, 0
2, 50534, Note_on_c, 0, 67, 0
2, 50548, Note_on_c, 0, 52, 54
2, 50557, Note_on_c, 0, 64, 52
2, 50557, Note_on_c, 0, 67, 52
2, 50581, Note_on_c, 0, 67, 0
2, 50582, Note_on_c, 0, 64, 0
2, 50604, Note_on_c, 0, 59, 52
2, 50604, Note_on_c, 0, 64, 52
2, 50604, Note_on_c, 0, 67, 51
2, 50620, Note_on_c, 0, 52, 0
2, 50628, Note_on_c, 0, 64, 0
2, 50628, Note_on_c, 0, 67, 0
2, 50628, Note_on_c, 0, 59, 0
2, 50639, Control_c, 0, 64, 0
2, 50651, Note_on_c, 0, 64, 52
2, 50651, Note_on_c, 0, 48, 52
2, 50651, Note_on_c, 0, 59, 52
2, 50651, Note_on_c, 0, 67, 52
2, 50675, Note_on_c, 0, 67, 0
2, 50675, Note_on_c, 0, 64, 0
2, 50675, Note_on_c, 0, 55, 0
2, 50675, Note_on_c, 0, 59, 0
2, 50689, Note_on_c, 0, 52, 51
2, 50698, Note_on_c, 0, 57, 54
2, 50699, Note_on_c, 0, 64, 52
2, 50699, Note_on_c, 0, 69, 53
2, 50722, Note_on_c, 0, 64, 0
2, 50723, Note_on_c, 0, 69, 0
2, 50744, Note_on_c, 0, 64, 51
2, 50745, Note_on_c, 0, 60, 52
2, 50746, Control_c, 0, 64, 127
2, 50746, Note_on_c, 0, 69, 53
2, 50767, Note_on_c, 0, 64, 0
2, 50768, Note_on_c, 0, 60, 0
2, 50769, Note_on_c, 0, 69, 0
2, 50790, Note_on_c, 0, 64, 52
2, 50791, Note_on_c, 0, 60, 52
2, 50792, Note_on_c, 0, 69, 53
2, 50795, Note_on_c, 0, 57, 0
2, 50805, Note_on_c, 0, 48, 0
2, 50815, Note_on_c, 0, 64, 0
2, 50816, Note_on_c, 0, 60, 0
2, 50817, Note_on_c, 0, 69, 0
2, 50838, Note_on_c, 0, 48, 52
2, 50838, Note_on_c, 0, 64, 52
2, 50839, Note_on_c, 0, 60, 52
2, 50840, Note_on_c, 0, 69, 53
2, 50864, Note_on_c, 0, 60, 0
2, 50864, Note_on_c, 0, 64, 0
2, 50865, Note_on_c, 0, 69, 0
2, 50867, Note_on_c, 0, 57, 55
2, 50887, Note_on_c, 0, 64, 52
2, 50888, Note_on_c, 0, 60, 53
2, 50889, Note_on_c, 0, 69, 53
2, 50892, Note_on_c, 0, 48, 0
2, 50911, Note_on_c, 0, 64, 0
2, 50912, Note_on_c, 0, 60, 0
2, 50913, Note_on_c, 0, 69, 0
2, 50934, Note_on_c, 0, 64, 52
2, 50935, Note_on_c, 0, 60, 54
2, 50936, Note_on_c, 0, 69, 55
2, 50958, Note_on_c, 0, 52, 0
2, 50959, Control_c, 0, 64, 0
2, 50970, Note_on_c, 0, 50, 58
2, 50979, Note_on_c, 0, 55, 59
2, 50994, Note_on_c, 0, 60, 0
2, 50994, Note_on_c, 0, 57, 0
2, 50994, Note_on_c, 0, 64, 0
2, 50995, Note_on_c, 0, 69, 0
2, 51016, Note_on_c, 0, 59, 63
2, 51026, Note_on_c, 0, 62, 61
2, 51026, Note_on_c, 0, 67, 57
2, 51050, Note_on_c, 0, 67, 0
2, 51050, Note_on_c, 0, 62, 0
2, 51051, Note_on_c, 0, 55, 0
2, 51064, Control_c, 0, 64, 127
2, 51079, Note_on_c, 0, 50, 0
2, 51082, Note_on_c, 0, 67, 56
2, 51083, Note_on_c, 0, 62, 56
2, 51106, Note_on_c, 0, 67, 0
2, 51126, Note_on_c, 0, 59, 0
2, 51138, Note_on_c, 0, 67, 56
2, 51149, Note_on_c, 0, 38, 60
2, 51162, Note_on_c, 0, 67, 0
2, 51166, Note_on_c, 0, 47, 57
2, 51194, Note_on_c, 0, 55, 56
2, 51194, Note_on_c, 0, 67, 56
2, 51201, Note_on_c, 0, 38, 0
2, 51218, Note_on_c, 0, 62, 0
2, 51218, Note_on_c, 0, 67, 0
2, 51235, Note_on_c, 0, 47, 0
2, 51249, Note_on_c, 0, 62, 56
2, 51249, Note_on_c, 0, 67, 56
2, 51250, Note_on_c, 0, 59, 56
2, 51274, Note_on_c, 0, 59, 0
2, 51274, Note_on_c, 0, 67, 0
2, 51274, Note_on_c, 0, 62, 0
2, 51303, Control_c, 0, 64, 0
2, 51306, Note_on_c, 0, 59, 54
2, 51306, Note_on_c, 0, 62, 53
2, 51306, Note_on_c, 0, 67, 54
2, 51318, Note_on_c, 0, 38, 52
2, 51326, Note_on_c, 0, 45, 52
2, 51350, Note_on_c, 0, 62, 0
2, 51359, Note_on_c, 0, 59, 0
2, 51363, Note_on_c, 0, 50, 58
2, 51368, Note_on_c, 0, 67, 0
2, 51381, Note_on_c, 0, 62, 56
2, 51381, Note_on_c, 0, 66, 56
2, 51382, Note_on_c, 0, 60, 56
2, 51388, Note_on_c, 0, 55, 0
2, 51405, Note_on_c, 0, 66, 0
2, 51406, Note_on_c, 0, 62, 0
2, 51406, Note_on_c, 0, 60, 0
2, 51428, Note_on_c, 0, 62, 55
2, 51428, Note_on_c, 0, 66, 56
2, 51429, Note_on_c, 0, 60, 56
2, 51439, Control_c, 0, 64, 127
2, 51452, Note_on_c, 0, 60, 0
2, 51452, Note_on_c, 0, 62, 0
2, 51452, Note_on_c, 0, 66, 0
2, 51474, Note_on_c, 0, 62, 55
2, 51475, Note_on_c, 0, 60, 56
2, 51475, Note_on_c, 0, 66, 56
2, 51498, Note_on_c, 0, 66, 0
2, 51498, Note_on_c, 0, 50, 0
2, 51499, Note_on_c, 0, 62, 0
2, 51499, Note_on_c, 0, 60, 0
2, 51518, Note_on_c, 0, 38, 0
2, 51521, Note_on_c, 0, 66, 56
2, 51539, Note_on_c, 0, 52, 58
2, 51543, Note_on_c, 0, 66, 0
2, 51544, Note_on_c, 0, 45, 0
2, 51585, Note_on_c, 0, 62, 58
2, 51585, Note_on_c, 0, 66, 56
2, 51586, Note_on_c, 0, 60, 57
2, 51609, Note_on_c, 0, 66, 0
2, 51632, Note_on_c, 0, 54, 60
2, 51649, Note_on_c, 0, 66, 56
2, 51654, Note_on_c, 0, 52, 0
2, 51681, Note_on_c, 0, 62, 0
2, 51681, Note_on_c, 0, 66, 0
2, 51682, Note_on_c, 0, 60, 0
2, 51702, Control_c, 0, 64, 0
2, 51719, Note_on_c, 0, 54, 0
2, 51722, Note_on_c, 0, 55, 64
2, 51723, Note_on_c, 0, 43, 65
2, 51785, Note_on_c, 0, 59, 63
2, 51785, Note_on_c, 0, 62, 61
2, 51785, Note_on_c, 0, 67, 60
2, 51808, Note_on_c, 0, 67, 0
2, 51808, Note_on_c, 0, 59, 0
2, 51809, Note_on_c, 0, 62, 0
2, 51823, Control_c, 0, 64, 127
2, 51830, Note_on_c, 0, 62, 60
2, 51831, Note_on_c, 0, 59, 60
2, 51831, Note_on_c, 0, 67, 60
2, 51854, Note_on_c, 0, 67, 0
2, 51854, Note_on_c, 0, 62, 0
2, 51854, Note_on_c, 0, 59, 0
2, 51877, Note_on_c, 0, 59, 59
2, 51877, Note_on_c, 0, 62, 60
2, 51877, Note_on_c, 0, 67, 60
2, 51882, Note_on_c, 0, 55, 0
2, 51900, Note_on_c, 0, 67, 0
2, 51901, Note_on_c, 0, 62, 0
2, 51901, Note_on_c, 0, 59, 0
2, 51911, Note_on_c, 0, 43, 0
2, 51923, Note_on_c, 0, 59, 60
2, 51923, Note_on_c, 0, 62, 60
2, 51923, Note_on_c, 0, 67, 60
2, 51947, Note_on_c, 0, 67, 0
2, 51947, Note_on_c, 0, 62, 0
2, 51947, Note_on_c, 0, 59, 0
2, 51969, Note_on_c, 0, 59, 60
2, 51969, Note_on_c, 0, 62, 60
2, 51969, Note_on_c, 0, 67, 60
2, 51993, Note_on_c, 0, 62, 0
2, 51993, Note_on_c, 0, 59, 0
2, 52020, Note_on_c, 0, 67, 0
2, 52027, Control_c, 0, 67, 127
2, 52032, Control_c, 0, 64, 0
2, 52044, Note_on_c, 0, 67, 57
2, 52054, Note_on_c, 0, 38, 59
2, 52067, Note_on_c, 0, 67, 0
2, 52089, Note_on_c, 0, 67, 57
2, 52090, Note_on_c, 0, 59, 57
2, 52090, Note_on_c, 0, 62, 57
2, 52091, Control_c, 0, 64, 127
2, 52114, Note_on_c, 0, 59, 0
2, 52115, Note_on_c, 0, 62, 0
2, 52115, Note_on_c, 0, 67, 0
2, 52135, Note_on_c, 0, 67, 56
2, 52136, Note_on_c, 0, 62, 57
2, 52137, Note_on_c, 0, 59, 57
2, 52160, Note_on_c, 0, 67, 0
2, 52182, Note_on_c, 0, 67, 57
2, 52188, Note_on_c, 0, 38, 0
2, 52202, Note_on_c, 0, 35, 62
2, 52205, Note_on_c, 0, 67, 0
2, 52206, Note_on_c, 0, 59, 0
2, 52206, Note_on_c, 0, 62, 0
2, 52227, Note_on_c, 0, 59, 62
2, 52227, Note_on_c, 0, 62, 60
2, 52227, Note_on_c, 0, 67, 57
2, 52250, Note_on_c, 0, 67, 0
2, 52251, Note_on_c, 0, 62, 0
2, 52251, Note_on_c, 0, 59, 0
2, 52270, Control_c, 0, 64, 0
2, 52272, Note_on_c, 0, 67, 61
2, 52273, Note_on_c, 0, 59, 65
2, 52273, Note_on_c, 0, 62, 65
2, 52297, Note_on_c, 0, 62, 0
2, 52297, Note_on_c, 0, 59, 0
2, 52297, Note_on_c, 0, 67, 0
2, 52298, Note_on_c, 0, 35, 0
2, 52311, Note_on_c, 0, 31, 66
2, 52311, Note_on_c, 0, 43, 66
2, 52318, Note_on_c, 0, 67, 60
2, 52319, Note_on_c, 0, 59, 66
2, 52319, Note_on_c, 0, 65, 59
2, 52342, Note_on_c, 0, 65, 0
2, 52342, Note_on_c, 0, 67, 0
2, 52342, Note_on_c, 0, 59, 0
2, 52363, Note_on_c, 0, 65, 54
2, 52363, Note_on_c, 0, 67, 53
2, 52364, Note_on_c, 0, 59, 60
2, 52387, Note_on_c, 0, 65, 0
2, 52388, Note_on_c, 0, 67, 0
2, 52388, Note_on_c, 0, 59, 0
2, 52392, Control_c, 0, 64, 127
2, 52409, Note_on_c, 0, 59, 56
2, 52409, Note_on_c, 0, 67, 53
2, 52410, Note_on_c, 0, 65, 52
2, 52433, Note_on_c, 0, 65, 0
2, 52433, Note_on_c, 0, 67, 0
2, 52434, Note_on_c, 0, 59, 0
2, 52456, Note_on_c, 0, 59, 53
2, 52456, Note_on_c, 0, 65, 53
2, 52456, Note_on_c, 0, 67, 52
2, 52463, Note_on_c, 0, 31, 0
2, 52480, Note_on_c, 0, 67, 0
2, 52481, Note_on_c, 0, 65, 0
2, 52481, Note_on_c, 0, 59, 0
2, 52503, Note_on_c, 0, 65, 53
2, 52503, Note_on_c, 0, 67, 53
2, 52504, Note_on_c, 0, 59, 53
2, 52527, Note_on_c, 0, 67, 0
2, 52527, Note_on_c, 0, 65, 0
2, 52528, Note_on_c, 0, 59, 0
2, 52548, Control_c, 0, 64, 0
2, 52550, Note_on_c, 0, 59, 53
2, 52550, Note_on_c, 0, 65, 53
2, 52550, Note_on_c, 0, 67, 52
2, 52573, Note_on_c, 0, 67, 0
2, 52573, Note_on_c, 0, 65, 0
2, 52574, Note_on_c, 0, 59, 0
2, 52590, Note_on_c, 0, 33, 55
2, 52597, Note_on_c, 0, 65, 53
2, 52597, Note_on_c, 0, 67, 53
2, 52598, Note_on_c, 0, 60, 57
2, 52621, Note_on_c, 0, 65, 0
2, 52622, Note_on_c, 0, 67, 0
2, 52623, Note_on_c, 0, 60, 0
2, 52663, Note_on_c, 0, 65, 53
2, 52663, Note_on_c, 0, 67, 53
2, 52664, Note_on_c, 0, 60, 54
2, 52665, Control_c, 0, 64, 127
2, 52687, Note_on_c, 0, 67, 0
2, 52688, Note_on_c, 0, 60, 0
2, 52696, Note_on_c, 0, 65, 0
2, 52727, Note_on_c, 0, 65, 53
2, 52727, Note_on_c, 0, 67, 53
2, 52728, Note_on_c, 0, 60, 53
2, 52735, Control_c, 0, 64, 0
2, 52751, Note_on_c, 0, 60, 0
2, 52761, Note_on_c, 0, 67, 0
2, 52770, Note_on_c, 0, 65, 0
2, 52781, Note_on_c, 0, 33, 0
2, 52802, Note_on_c, 0, 62, 52
2, 52802, Note_on_c, 0, 65, 50
2, 52802, Note_on_c, 0, 67, 49
2, 52804, Note_on_c, 0, 35, 54
2, 52826, Note_on_c, 0, 62, 0
2, 52835, Note_on_c, 0, 67, 0
2, 52839, Control_c, 0, 64, 127
2, 52842, Note_on_c, 0, 65, 0
2, 52862, Note_on_c, 0, 35, 0
2, 52882, Note_on_c, 0, 43, 0
2, 52893, Note_on_c, 0, 65, 49
2, 52893, Note_on_c, 0, 67, 49
2, 52917, Note_on_c, 0, 67, 0
2, 52917, Note_on_c, 0, 65, 0
2, 52965, Control_c, 0, 64, 0
2, 52987, Note_on_c, 0, 43, 49
2, 53031, Note_on_c, 0, 67, 56
2, 53032, Note_on_c, 0, 79, 58
2, 53074, Note_on_c, 0, 67, 0
2, 53075, Note_on_c, 0, 43, 0
2, 53080, Note_on_c, 0, 36, 49
2, 53117, Control_c, 0, 64, 127
2, 53124, Note_on_c, 0, 67, 54
2, 53126, Note_on_c, 0, 43, 50
2, 53131, Note_on_c, 0, 79, 0
2, 53144, Note_on_c, 0, 52, 51
2, 53149, Note_on_c, 0, 43, 0
2, 53177, Note_on_c, 0, 52, 0
2, 53195, Note_on_c, 0, 67, 0
2, 53210, Note_on_c, 0, 79, 57
2, 53243, Note_on_c, 0, 36, 0
2, 53265, Note_on_c, 0, 55, 53
2, 53266, Note_on_c, 0, 72, 54
2, 53266, Note_on_c, 0, 76, 54
2, 53289, Note_on_c, 0, 76, 0
2, 53289, Note_on_c, 0, 72, 0
2, 53289, Note_on_c, 0, 55, 0
2, 53308, Note_on_c, 0, 79, 0
2, 53310, Note_on_c, 0, 64, 53
2, 53311, Note_on_c, 0, 60, 53
2, 53312, Note_on_c, 0, 72, 54
2, 53312, Note_on_c, 0, 76, 54
2, 53334, Note_on_c, 0, 60, 0
2, 53334, Note_on_c, 0, 64, 0
2, 53335, Note_on_c, 0, 72, 0
2, 53336, Note_on_c, 0, 76, 0
2, 53357, Note_on_c, 0, 81, 58
2, 53358, Note_on_c, 0, 69, 58
2, 53381, Note_on_c, 0, 69, 0
2, 53392, Note_on_c, 0, 64, 53
2, 53393, Note_on_c, 0, 60, 53
2, 53409, Note_on_c, 0, 81, 0
2, 53417, Note_on_c, 0, 60, 0
2, 53417, Note_on_c, 0, 64, 0
2, 53428, Control_c, 0, 67, 0
2, 53430, Note_on_c, 0, 55, 56
2, 53436, Control_c, 0, 64, 0
2, 53439, Note_on_c, 0, 71, 53
2, 53440, Note_on_c, 0, 83, 54
2, 53449, Note_on_c, 0, 48, 56
2, 53462, Note_on_c, 0, 55, 0
2, 53472, Note_on_c, 0, 48, 0
2, 53482, Note_on_c, 0, 71, 0
2, 53483, Note_on_c, 0, 83, 0
2, 53504, Note_on_c, 0, 48, 56
2, 53505, Note_on_c, 0, 72, 58
2, 53506, Note_on_c, 0, 84, 61
2, 53531, Note_on_c, 0, 55, 56
2, 53532, Control_c, 0, 64, 127
2, 53536, Note_on_c, 0, 72, 0
2, 53546, Note_on_c, 0, 48, 0
2, 53555, Note_on_c, 0, 84, 0
2, 53555, Note_on_c, 0, 55, 0
2, 53559, Note_on_c, 0, 76, 57
2, 53559, Note_on_c, 0, 79, 57
2, 53582, Note_on_c, 0, 79, 0
2, 53583, Note_on_c, 0, 76, 0
2, 53585, Note_on_c, 0, 64, 56
2, 53586, Note_on_c, 0, 60, 56
2, 53605, Note_on_c, 0, 76, 57
2, 53605, Note_on_c, 0, 79, 57
2, 53609, Note_on_c, 0, 64, 0
2, 53610, Note_on_c, 0, 60, 0
2, 53628, Note_on_c, 0, 79, 0
2, 53629, Note_on_c, 0, 76, 0
2, 53632, Note_on_c, 0, 64, 58
2, 53633, Note_on_c, 0, 60, 56
2, 53634, Note_on_c, 0, 72, 60
2, 53634, Note_on_c, 0, 84, 63
2, 53656, Note_on_c, 0, 64, 0
2, 53657, Note_on_c, 0, 60, 0
2, 53671, Note_on_c, 0, 55, 56
2, 53686, Note_on_c, 0, 84, 0
2, 53687, Control_c, 0, 64, 0
2, 53696, Note_on_c, 0, 72, 0
2, 53699, Note_on_c, 0, 48, 56
2, 53723, Note_on_c, 0, 48, 0
2, 53723, Note_on_c, 0, 55, 0
2, 53726, Note_on_c, 0, 73, 59
2, 53727, Note_on_c, 0, 85, 62
2, 53750, Note_on_c, 0, 73, 0
2, 53761, Note_on_c, 0, 85, 0
2, 53765, Note_on_c, 0, 48, 56
2, 53776, Control_c, 0, 67, 127
2, 53793, Note_on_c, 0, 74, 58
2, 53795, Note_on_c, 0, 86, 62
2, 53802, Note_on_c, 0, 55, 53
2, 53840, Control_c, 0, 64, 127
2, 53853, Note_on_c, 0, 55, 0
2, 53856, Note_on_c, 0, 59, 53
2, 53856, Note_on_c, 0, 65, 54
2, 53857, Note_on_c, 0, 77, 54
2, 53857, Note_on_c, 0, 79, 54
2, 53861, Note_on_c, 0, 74, 0
2, 53872, Note_on_c, 0, 86, 0
2, 53879, Note_on_c, 0, 65, 0
2, 53880, Note_on_c, 0, 59, 0
2, 53881, Note_on_c, 0, 48, 0
2, 53881, Note_on_c, 0, 79, 0
2, 53881, Note_on_c, 0, 77, 0
2, 53902, Note_on_c, 0, 79, 54
2, 53903, Note_on_c, 0, 77, 54
2, 53926, Note_on_c, 0, 79, 0
2, 53927, Note_on_c, 0, 77, 0
2, 53930, Note_on_c, 0, 65, 53
2, 53931, Note_on_c, 0, 59, 53
2, 53950, Note_on_c, 0, 79, 56
2, 53955, Note_on_c, 0, 65, 0
2, 53968, Note_on_c, 0, 67, 53
2, 53973, Note_on_c, 0, 59, 0
2, 53977, Note_on_c, 0, 74, 54
2, 53978, Note_on_c, 0, 55, 53
2, 54001, Note_on_c, 0, 67, 0
2, 54014, Note_on_c, 0, 48, 53
2, 54019, Note_on_c, 0, 74, 0
2, 54020, Note_on_c, 0, 55, 0
2, 54029, Note_on_c, 0, 79, 0
2, 54037, Note_on_c, 0, 48, 0
2, 54039, Control_c, 0, 64, 0
2, 54060, Note_on_c, 0, 76, 56
2, 54069, Note_on_c, 0, 48, 53
2, 54107, Note_on_c, 0, 88, 59
2, 54115, Note_on_c, 0, 55, 53
2, 54155, Control_c, 0, 64, 127
2, 54170, Note_on_c, 0, 79, 54
2, 54171, Note_on_c, 0, 84, 56
2, 54176, Note_on_c, 0, 48, 0
2, 54176, Note_on_c, 0, 76, 0
2, 54179, Note_on_c, 0, 64, 52
2, 54179, Note_on_c, 0, 60, 53
2, 54184, Note_on_c, 0, 55, 0
2, 54193, Note_on_c, 0, 79, 0
2, 54193, Note_on_c, 0, 84, 0
2, 54194, Note_on_c, 0, 88, 0
2, 54202, Note_on_c, 0, 64, 0
2, 54202, Note_on_c, 0, 60, 0
2, 54216, Note_on_c, 0, 79, 53
2, 54216, Note_on_c, 0, 84, 56
2, 54233, Note_on_c, 0, 64, 52
2, 54234, Note_on_c, 0, 60, 53
2, 54239, Note_on_c, 0, 84, 0
2, 54239, Note_on_c, 0, 79, 0
2, 54251, Note_on_c, 0, 74, 56
2, 54253, Note_on_c, 0, 86, 59
2, 54257, Note_on_c, 0, 64, 0
2, 54257, Note_on_c, 0, 60, 0
2, 54279, Note_on_c, 0, 55, 53
2, 54304, Control_c, 0, 64, 0
2, 54325, Note_on_c, 0, 48, 53
2, 54330, Note_on_c, 0, 74, 0
2, 54332, Note_on_c, 0, 86, 0
2, 54335, Note_on_c, 0, 84, 62
2, 54336, Note_on_c, 0, 72, 61
2, 54341, Note_on_c, 0, 55, 0
2, 54360, Note_on_c, 0, 72, 0
2, 54360, Note_on_c, 0, 84, 0
2, 54392, Note_on_c, 0, 52, 53
2, 54393, Note_on_c, 0, 71, 61
2, 54393, Note_on_c, 0, 83, 64
2, 54397, Note_on_c, 0, 48, 0
2, 54431, Control_c, 0, 64, 127
2, 54436, Note_on_c, 0, 71, 0
2, 54440, Note_on_c, 0, 59, 53
2, 54444, Note_on_c, 0, 52, 0
2, 54448, Note_on_c, 0, 74, 54
2, 54449, Note_on_c, 0, 76, 54
2, 54455, Note_on_c, 0, 83, 0
2, 54462, Note_on_c, 0, 59, 0
2, 54466, Note_on_c, 0, 62, 53
2, 54470, Note_on_c, 0, 74, 0
2, 54471, Note_on_c, 0, 76, 0
2, 54491, Note_on_c, 0, 74, 54
2, 54492, Note_on_c, 0, 76, 54
2, 54498, Note_on_c, 0, 62, 0
2, 54501, Note_on_c, 0, 68, 53
2, 54508, Note_on_c, 0, 76, 0
2, 54515, Note_on_c, 0, 74, 0
2, 54525, Note_on_c, 0, 68, 0
2, 54528, Note_on_c, 0, 64, 55
2, 54529, Note_on_c, 0, 71, 57
2, 54529, Note_on_c, 0, 76, 58
2, 54537, Note_on_c, 0, 62, 53
2, 54554, Control_c, 0, 64, 0
2, 54562, Note_on_c, 0, 62, 0
2, 54583, Note_on_c, 0, 59, 53
2, 54608, Note_on_c, 0, 71, 0
2, 54629, Note_on_c, 0, 52, 53
2, 54635, Note_on_c, 0, 59, 0
2, 54653, Note_on_c, 0, 64, 0
2, 54653, Note_on_c, 0, 52, 0
2, 54654, Note_on_c, 0, 76, 0
2, 54658, Note_on_c, 0, 45, 53
2, 54666, Note_on_c, 0, 72, 65
2, 54666, Note_on_c, 0, 84, 68
2, 54694, Control_c, 0, 64, 127
2, 54700, Control_c, 0, 67, 0
2, 54711, Note_on_c, 0, 52, 56
2, 54712, Note_on_c, 0, 76, 62
2, 54712, Note_on_c, 0, 81, 63
2, 54727, Note_on_c, 0, 45, 0
2, 54735, Note_on_c, 0, 52, 0
2, 54735, Note_on_c, 0, 72, 0
2, 54735, Note_on_c, 0, 81, 0
2, 54736, Note_on_c, 0, 84, 0
2, 54736, Note_on_c, 0, 76, 0
2, 54749, Note_on_c, 0, 60, 56
2, 54757, Note_on_c, 0, 81, 59
2, 54758, Note_on_c, 0, 76, 57
2, 54772, Note_on_c, 0, 60, 0
2, 54781, Note_on_c, 0, 76, 0
2, 54781, Note_on_c, 0, 81, 0
2, 54793, Note_on_c, 0, 57, 56
2, 54803, Note_on_c, 0, 81, 61
2, 54803, Note_on_c, 0, 69, 60
2, 54817, Note_on_c, 0, 57, 0
2, 54837, Note_on_c, 0, 69, 0
2, 54840, Note_on_c, 0, 52, 56
2, 54847, Note_on_c, 0, 81, 0
2, 54866, Control_c, 0, 64, 0
2, 54873, Note_on_c, 0, 52, 0
2, 54877, Note_on_c, 0, 45, 56
2, 54905, Note_on_c, 0, 69, 56
2, 54905, Note_on_c, 0, 81, 59
2, 54928, Note_on_c, 0, 81, 0
2, 54928, Note_on_c, 0, 69, 0
2, 54931, Note_on_c, 0, 52, 56
2, 54942, Note_on_c, 0, 71, 62
2, 54942, Note_on_c, 0, 83, 65
2, 54969, Note_on_c, 0, 59, 56
2, 54974, Note_on_c, 0, 45, 0
2, 54979, Control_c, 0, 64, 127
2, 54986, Note_on_c, 0, 74, 57
2, 54987, Note_on_c, 0, 76, 57
2, 54992, Note_on_c, 0, 59, 0
2, 55009, Note_on_c, 0, 74, 0
2, 55010, Note_on_c, 0, 52, 0
2, 55011, Note_on_c, 0, 76, 0
2, 55013, Note_on_c, 0, 62, 56
2, 55032, Note_on_c, 0, 74, 57
2, 55033, Note_on_c, 0, 76, 57
2, 55038, Note_on_c, 0, 62, 0
2, 55038, Note_on_c, 0, 71, 0
2, 55050, Note_on_c, 0, 68, 55
2, 55055, Note_on_c, 0, 74, 0
2, 55056, Note_on_c, 0, 83, 0
2, 55056, Note_on_c, 0, 76, 0
2, 55073, Note_on_c, 0, 68, 0
2, 55076, Note_on_c, 0, 62, 56
2, 55077, Note_on_c, 0, 76, 59
2, 55086, Note_on_c, 0, 71, 60
2, 55099, Note_on_c, 0, 62, 0
2, 55113, Note_on_c, 0, 64, 58
2, 55122, Note_on_c, 0, 59, 56
2, 55136, Note_on_c, 0, 64, 0
2, 55145, Note_on_c, 0, 59, 0
2, 55146, Note_on_c, 0, 71, 0
2, 55146, Note_on_c, 0, 76, 0
2, 55167, Note_on_c, 0, 52, 56
2, 55174, Control_c, 0, 64, 0
2, 55177, Note_on_c, 0, 72, 59
2, 55200, Note_on_c, 0, 52, 0
2, 55204, Note_on_c, 0, 45, 56
2, 55213, Note_on_c, 0, 84, 63
2, 55268, Note_on_c, 0, 52, 56
2, 55280, Control_c, 0, 64, 127
2, 55287, Note_on_c, 0, 76, 57
2, 55287, Note_on_c, 0, 81, 59
2, 55301, Note_on_c, 0, 52, 0
2, 55305, Note_on_c, 0, 60, 56
2, 55309, Note_on_c, 0, 45, 0
2, 55310, Note_on_c, 0, 81, 0
2, 55311, Note_on_c, 0, 76, 0
2, 55329, Note_on_c, 0, 60, 0
2, 55332, Note_on_c, 0, 81, 59
2, 55333, Note_on_c, 0, 76, 57
2, 55351, Note_on_c, 0, 57, 56
2, 55357, Note_on_c, 0, 81, 0
2, 55357, Note_on_c, 0, 72, 0
2, 55358, Note_on_c, 0, 84, 0
2, 55358, Note_on_c, 0, 76, 0
2, 55375, Note_on_c, 0, 57, 0
2, 55379, Note_on_c, 0, 69, 60
2, 55379, Note_on_c, 0, 81, 63
2, 55388, Note_on_c, 0, 52, 56
2, 55421, Note_on_c, 0, 52, 0
2, 55422, Note_on_c, 0, 81, 0
2, 55422, Note_on_c, 0, 69, 0
2, 55435, Note_on_c, 0, 45, 56
2, 55451, Control_c, 0, 64, 0
2, 55463, Note_on_c, 0, 81, 62
2, 55464, Note_on_c, 0, 69, 62
2, 55487, Note_on_c, 0, 69, 0
2, 55487, Note_on_c, 0, 81, 0
2, 55490, Note_on_c, 0, 50, 56
2, 55508, Note_on_c, 0, 81, 63
2, 55519, Note_on_c, 0, 69, 63
2, 55522, Note_on_c, 0, 45, 0
2, 55537, Note_on_c, 0, 57, 56
2, 55555, Note_on_c, 0, 74, 58
2, 55556, Note_on_c, 0, 72, 57
2, 55557, Control_c, 0, 64, 127
2, 55570, Note_on_c, 0, 57, 0
2, 55571, Note_on_c, 0, 50, 0
2, 55579, Note_on_c, 0, 74, 0
2, 55580, Note_on_c, 0, 72, 0
2, 55581, Note_on_c, 0, 69, 0
2, 55584, Note_on_c, 0, 60, 56
2, 55599, Note_on_c, 0, 81, 0
2, 55602, Note_on_c, 0, 74, 57
2, 55603, Note_on_c, 0, 66, 56
2, 55604, Note_on_c, 0, 72, 57
2, 55609, Note_on_c, 0, 60, 0
2, 55636, Note_on_c, 0, 74, 0
2, 55637, Note_on_c, 0, 72, 0
2, 55644, Note_on_c, 0, 66, 0
2, 55648, Note_on_c, 0, 68, 61
2, 55649, Note_on_c, 0, 80, 63
2, 55685, Note_on_c, 0, 57, 56
2, 55708, Note_on_c, 0, 57, 0
2, 55709, Control_c, 0, 64, 0
2, 55716, Note_on_c, 0, 68, 0
2, 55717, Note_on_c, 0, 80, 0
2, 55730, Note_on_c, 0, 50, 56
2, 55731, Note_on_c, 0, 69, 54
2, 55731, Note_on_c, 0, 81, 55
2, 55754, Note_on_c, 0, 81, 0
2, 55754, Note_on_c, 0, 69, 0
2, 55767, Note_on_c, 0, 43, 56
2, 55776, Note_on_c, 0, 71, 59
2, 55776, Note_on_c, 0, 83, 62
2, 55781, Note_on_c, 0, 50, 0
2, 55822, Note_on_c, 0, 50, 56
2, 55831, Note_on_c, 0, 74, 57
2, 55832, Note_on_c, 0, 79, 57
2, 55833, Control_c, 0, 64, 127
2, 55837, Note_on_c, 0, 83, 0
2, 55844, Note_on_c, 0, 50, 0
2, 55854, Note_on_c, 0, 74, 0
2, 55855, Note_on_c, 0, 79, 0
2, 55863, Note_on_c, 0, 71, 0
2, 55864, Note_on_c, 0, 43, 0
2, 55867, Note_on_c, 0, 59, 56
2, 55877, Note_on_c, 0, 74, 57
2, 55890, Note_on_c, 0, 59, 0
2, 55899, Note_on_c, 0, 74, 0
2, 55922, Note_on_c, 0, 55, 56
2, 55922, Note_on_c, 0, 67, 58
2, 55923, Note_on_c, 0, 79, 60
2, 55947, Note_on_c, 0, 55, 0
2, 55964, Note_on_c, 0, 67, 0
2, 55969, Note_on_c, 0, 50, 56
2, 55984, Note_on_c, 0, 79, 0
2, 56007, Note_on_c, 0, 43, 56
2, 56013, Control_c, 0, 64, 0
2, 56015, Note_on_c, 0, 67, 52
2, 56016, Note_on_c, 0, 79, 52
2, 56017, Control_c, 0, 67, 127
2, 56020, Note_on_c, 0, 50, 0
2, 56038, Note_on_c, 0, 67, 0
2, 56049, Note_on_c, 0, 79, 0
2, 56070, Note_on_c, 0, 50, 53
2, 56071, Note_on_c, 0, 81, 57
2, 56072, Note_on_c, 0, 69, 56
2, 56095, Note_on_c, 0, 43, 0
2, 56117, Note_on_c, 0, 57, 53
2, 56125, Note_on_c, 0, 74, 54
2, 56126, Note_on_c, 0, 72, 54
2, 56136, Control_c, 0, 64, 127
2, 56140, Note_on_c, 0, 57, 0
2, 56148, Note_on_c, 0, 74, 0
2, 56149, Note_on_c, 0, 50, 0
2, 56150, Note_on_c, 0, 72, 0
2, 56159, Note_on_c, 0, 81, 0
2, 56160, Note_on_c, 0, 69, 0
2, 56171, Note_on_c, 0, 66, 49
2, 56172, Note_on_c, 0, 74, 50
2, 56173, Note_on_c, 0, 72, 50
2, 56196, Note_on_c, 0, 74, 0
2, 56196, Note_on_c, 0, 66, 0
2, 56197, Note_on_c, 0, 72, 0
2, 56201, Note_on_c, 0, 60, 49
2, 56219, Note_on_c, 0, 74, 51
2, 56219, Note_on_c, 0, 69, 53
2, 56224, Note_on_c, 0, 60, 0
2, 56245, Note_on_c, 0, 62, 51
2, 56254, Note_on_c, 0, 57, 52
2, 56269, Note_on_c, 0, 62, 0
2, 56278, Note_on_c, 0, 57, 0
2, 56278, Note_on_c, 0, 74, 0
2, 56279, Note_on_c, 0, 69, 0
2, 56300, Note_on_c, 0, 50, 53
2, 56307, Control_c, 0, 64, 0
2, 56318, Note_on_c, 0, 71, 58
2, 56337, Note_on_c, 0, 74, 59
2, 56338, Note_on_c, 0, 43, 53
2, 56350, Note_on_c, 0, 50, 0
2, 56373, Note_on_c, 0, 83, 61
2, 56410, Control_c, 0, 64, 127
2, 56413, Note_on_c, 0, 74, 0
2, 56414, Note_on_c, 0, 71, 0
2, 56423, Note_on_c, 0, 83, 0
2, 56432, Note_on_c, 0, 43, 0
2, 56435, Note_on_c, 0, 74, 54
2, 56435, Note_on_c, 0, 59, 53
2, 56444, Note_on_c, 0, 55, 53
2, 56458, Note_on_c, 0, 74, 0
2, 56463, Note_on_c, 0, 71, 54
2, 56467, Note_on_c, 0, 59, 0
2, 56468, Note_on_c, 0, 55, 0
2, 56487, Note_on_c, 0, 71, 0
2, 56499, Note_on_c, 0, 67, 56
2, 56500, Note_on_c, 0, 55, 53
2, 56501, Note_on_c, 0, 79, 58
2, 56524, Note_on_c, 0, 55, 0
2, 56536, Note_on_c, 0, 50, 53
2, 56552, Control_c, 0, 67, 0
2, 56559, Note_on_c, 0, 67, 0
2, 56560, Note_on_c, 0, 79, 0
2, 56565, Note_on_c, 0, 43, 56
2, 56589, Note_on_c, 0, 43, 0
2, 56589, Control_c, 0, 64, 0
2, 56596, Note_on_c, 0, 50, 0
2, 56600, Note_on_c, 0, 67, 51
2, 56601, Note_on_c, 0, 79, 51
2, 56629, Note_on_c, 0, 43, 56
2, 56633, Note_on_c, 0, 67, 0
2, 56634, Note_on_c, 0, 79, 0
2, 56665, Note_on_c, 0, 67, 56
2, 56666, Note_on_c, 0, 79, 60
2, 56675, Note_on_c, 0, 50, 56
2, 56694, Control_c, 0, 64, 127
2, 56702, Note_on_c, 0, 74, 57
2, 56703, Note_on_c, 0, 77, 57
2, 56707, Note_on_c, 0, 67, 0
2, 56708, Note_on_c, 0, 43, 0
2, 56717, Note_on_c, 0, 50, 0
2, 56725, Note_on_c, 0, 74, 0
2, 56726, Note_on_c, 0, 77, 0
2, 56727, Note_on_c, 0, 79, 0
2, 56740, Note_on_c, 0, 59, 56
2, 56741, Note_on_c, 0, 77, 57
2, 56748, Note_on_c, 0, 74, 57
2, 56754, Note_on_c, 0, 59, 0
2, 56771, Note_on_c, 0, 74, 0
2, 56772, Note_on_c, 0, 77, 0
2, 56775, Note_on_c, 0, 59, 56
2, 56776, Note_on_c, 0, 81, 61
2, 56777, Note_on_c, 0, 69, 60
2, 56800, Note_on_c, 0, 59, 0
2, 56819, Note_on_c, 0, 69, 0
2, 56821, Note_on_c, 0, 50, 56
2, 56822, Note_on_c, 0, 53, 56
2, 56828, Note_on_c, 0, 81, 0
2, 56841, Note_on_c, 0, 43, 56
2, 56844, Note_on_c, 0, 53, 0
2, 56864, Note_on_c, 0, 43, 0
2, 56865, Control_c, 0, 64, 0
2, 56868, Note_on_c, 0, 71, 53
2, 56868, Note_on_c, 0, 83, 54
2, 56872, Note_on_c, 0, 50, 0
2, 56887, Note_on_c, 0, 43, 63
2, 56891, Note_on_c, 0, 71, 0
2, 56892, Note_on_c, 0, 83, 0
2, 56915, Note_on_c, 0, 72, 57
2, 56915, Note_on_c, 0, 84, 61
2, 56950, Note_on_c, 0, 52, 61
2, 56950, Note_on_c, 0, 55, 60
2, 56969, Control_c, 0, 64, 127
2, 56969, Note_on_c, 0, 79, 61
2, 56970, Note_on_c, 0, 76, 60
2, 56975, Note_on_c, 0, 55, 0
2, 56975, Note_on_c, 0, 52, 0
2, 56994, Note_on_c, 0, 79, 0
2, 56994, Note_on_c, 0, 76, 0
2, 57016, Note_on_c, 0, 60, 60
2, 57016, Note_on_c, 0, 79, 61
2, 57017, Note_on_c, 0, 76, 60
2, 57022, Note_on_c, 0, 43, 0
2, 57031, Note_on_c, 0, 60, 0
2, 57032, Note_on_c, 0, 72, 0
2, 57032, Note_on_c, 0, 84, 0
2, 57040, Note_on_c, 0, 79, 0
2, 57041, Note_on_c, 0, 76, 0
2, 57054, Note_on_c, 0, 60, 60
2, 57062, Note_on_c, 0, 74, 64
2, 57064, Note_on_c, 0, 86, 67
2, 57071, Note_on_c, 0, 52, 60
2, 57072, Note_on_c, 0, 55, 60
2, 57077, Note_on_c, 0, 60, 0
2, 57094, Note_on_c, 0, 52, 0
2, 57095, Note_on_c, 0, 55, 0
2, 57104, Note_on_c, 0, 74, 0
2, 57105, Note_on_c, 0, 86, 0
2, 57126, Note_on_c, 0, 43, 60
2, 57134, Note_on_c, 0, 76, 65
2, 57135, Note_on_c, 0, 88, 68
2, 57140, Control_c, 0, 64, 0
2, 57149, Note_on_c, 0, 43, 0
2, 57168, Note_on_c, 0, 76, 0
2, 57177, Note_on_c, 0, 88, 0
2, 57180, Note_on_c, 0, 43, 63
2, 57181, Control_c, 0, 67, 127
2, 57208, Note_on_c, 0, 77, 65
2, 57209, Note_on_c, 0, 89, 69
2, 57245, Control_c, 0, 64, 127
2, 57262, Note_on_c, 0, 53, 60
2, 57270, Note_on_c, 0, 89, 0
2, 57276, Note_on_c, 0, 77, 0
2, 57277, Note_on_c, 0, 43, 0
2, 57282, Note_on_c, 0, 79, 59
2, 57282, Note_on_c, 0, 83, 60
2, 57286, Note_on_c, 0, 53, 0
2, 57297, Note_on_c, 0, 79, 0
2, 57298, Note_on_c, 0, 83, 0
2, 57306, Control_c, 0, 67, 0
2, 57309, Note_on_c, 0, 59, 58
2, 57319, Note_on_c, 0, 79, 57
2, 57320, Note_on_c, 0, 83, 59
2, 57332, Note_on_c, 0, 59, 0
2, 57342, Note_on_c, 0, 79, 0
2, 57343, Note_on_c, 0, 83, 0
2, 57353, Note_on_c, 0, 74, 59
2, 57354, Note_on_c, 0, 59, 54
2, 57356, Note_on_c, 0, 86, 63
2, 57378, Note_on_c, 0, 59, 0
2, 57378, Note_on_c, 0, 74, 0
2, 57382, Note_on_c, 0, 53, 52
2, 57389, Note_on_c, 0, 86, 0
2, 57406, Note_on_c, 0, 53, 0
2, 57425, Control_c, 0, 64, 0
2, 57446, Note_on_c, 0, 71, 59
2, 57447, Note_on_c, 0, 83, 63
2, 57456, Note_on_c, 0, 43, 53
2, 57469, Note_on_c, 0, 71, 0
2, 57470, Note_on_c, 0, 43, 0
2, 57470, Note_on_c, 0, 83, 0
2, 57491, Note_on_c, 0, 72, 60
2, 57491, Note_on_c, 0, 84, 64
2, 57492, Note_on_c, 0, 43, 55
2, 57545, Control_c, 0, 64, 127
2, 57545, Note_on_c, 0, 52, 56
2, 57545, Note_on_c, 0, 55, 55
2, 57545, Note_on_c, 0, 79, 57
2, 57546, Note_on_c, 0, 76, 56
2, 57562, Note_on_c, 0, 43, 0
2, 57569, Note_on_c, 0, 52, 0
2, 57570, Note_on_c, 0, 55, 0
2, 57570, Note_on_c, 0, 79, 0
2, 57571, Note_on_c, 0, 76, 0
2, 57580, Note_on_c, 0, 72, 0
2, 57589, Note_on_c, 0, 84, 0
2, 57592, Note_on_c, 0, 60, 56
2, 57593, Note_on_c, 0, 76, 57
2, 57593, Note_on_c, 0, 79, 57
2, 57616, Note_on_c, 0, 60, 0
2, 57617, Note_on_c, 0, 79, 0
2, 57617, Note_on_c, 0, 76, 0
2, 57638, Note_on_c, 0, 67, 58
2, 57639, Note_on_c, 0, 60, 56
2, 57640, Note_on_c, 0, 79, 61
2, 57659, Note_on_c, 0, 55, 56
2, 57663, Note_on_c, 0, 60, 0
2, 57681, Note_on_c, 0, 67, 0
2, 57682, Note_on_c, 0, 79, 0
2, 57682, Note_on_c, 0, 55, 0
2, 57701, Control_c, 0, 64, 0
2, 57713, Note_on_c, 0, 43, 56
2, 57722, Note_on_c, 0, 67, 52
2, 57723, Note_on_c, 0, 79, 52
2, 57738, Note_on_c, 0, 43, 0
2, 57746, Note_on_c, 0, 67, 0
2, 57747, Note_on_c, 0, 79, 0
2, 57761, Note_on_c, 0, 43, 56
2, 57779, Note_on_c, 0, 67, 57
2, 57779, Note_on_c, 0, 79, 60
2, 57816, Note_on_c, 0, 50, 56
2, 57817, Note_on_c, 0, 53, 56
2, 57826, Note_on_c, 0, 74, 57
2, 57826, Note_on_c, 0, 77, 57
2, 57827, Control_c, 0, 64, 127
2, 57839, Note_on_c, 0, 50, 0
2, 57840, Note_on_c, 0, 53, 0
2, 57850, Note_on_c, 0, 74, 0
2, 57850, Note_on_c, 0, 77, 0
2, 57860, Note_on_c, 0, 43, 0
2, 57863, Note_on_c, 0, 59, 56
2, 57872, Note_on_c, 0, 74, 57
2, 57873, Note_on_c, 0, 77, 57
2, 57886, Note_on_c, 0, 59, 0
2, 57886, Note_on_c, 0, 67, 0
2, 57887, Note_on_c, 0, 79, 0
2, 57896, Note_on_c, 0, 74, 0
2, 57897, Note_on_c, 0, 77, 0
2, 57910, Note_on_c, 0, 59, 56
2, 57910, Note_on_c, 0, 81, 62
2, 57911, Note_on_c, 0, 69, 61
2, 57934, Note_on_c, 0, 59, 0
2, 57943, Note_on_c, 0, 69, 0
2, 57947, Note_on_c, 0, 50, 56
2, 57947, Note_on_c, 0, 53, 56
2, 57952, Note_on_c, 0, 81, 0
2, 57970, Note_on_c, 0, 53, 0
2, 57971, Control_c, 0, 64, 0
2, 57974, Note_on_c, 0, 71, 61
2, 57974, Note_on_c, 0, 83, 64
2, 57987, Note_on_c, 0, 50, 0
2, 58006, Note_on_c, 0, 71, 0
2, 58007, Note_on_c, 0, 83, 0
2, 58010, Note_on_c, 0, 43, 56
2, 58033, Note_on_c, 0, 43, 0
2, 58037, Note_on_c, 0, 72, 62
2, 58037, Note_on_c, 0, 84, 65
2, 58055, Note_on_c, 0, 43, 56
2, 58064, Note_on_c, 0, 52, 56
2, 58065, Note_on_c, 0, 55, 56
2, 58074, Control_c, 0, 64, 127
2, 58083, Note_on_c, 0, 76, 58
2, 58083, Note_on_c, 0, 79, 57
2, 58088, Note_on_c, 0, 55, 0
2, 58107, Note_on_c, 0, 76, 0
2, 58107, Note_on_c, 0, 79, 0
2, 58115, Note_on_c, 0, 72, 0
2, 58115, Note_on_c, 0, 52, 0
2, 58116, Note_on_c, 0, 43, 0
2, 58116, Note_on_c, 0, 84, 0
2, 58119, Note_on_c, 0, 60, 59
2, 58128, Note_on_c, 0, 79, 60
2, 58129, Note_on_c, 0, 76, 61
2, 58142, Note_on_c, 0, 60, 0
2, 58152, Note_on_c, 0, 76, 0
2, 58152, Note_on_c, 0, 79, 0
2, 58164, Note_on_c, 0, 60, 61
2, 58173, Note_on_c, 0, 74, 65
2, 58174, Note_on_c, 0, 86, 68
2, 58182, Note_on_c, 0, 55, 60
2, 58187, Note_on_c, 0, 60, 0
2, 58190, Note_on_c, 0, 52, 60
2, 58205, Note_on_c, 0, 55, 0
2, 58213, Note_on_c, 0, 74, 0
2, 58214, Note_on_c, 0, 52, 0
2, 58225, Note_on_c, 0, 86, 0
2, 58246, Note_on_c, 0, 76, 60
2, 58247, Note_on_c, 0, 43, 60
2, 58247, Note_on_c, 0, 88, 60
2, 58270, Note_on_c, 0, 43, 0
2, 58270, Control_c, 0, 64, 0
2, 58271, Note_on_c, 0, 76, 0
2, 58280, Note_on_c, 0, 88, 0
2, 58301, Note_on_c, 0, 79, 62
2, 58302, Note_on_c, 0, 43, 64
2, 58347, Note_on_c, 0, 83, 67
2, 58348, Control_c, 0, 67, 127
2, 58371, Note_on_c, 0, 83, 0
2, 58384, Note_on_c, 0, 91, 66
2, 58420, Control_c, 0, 64, 127
2, 58443, Note_on_c, 0, 43, 0
2, 58456, Note_on_c, 0, 50, 53
2, 58463, Note_on_c, 0, 91, 0
2, 58472, Note_on_c, 0, 79, 0
2, 58512, Note_on_c, 0, 53, 53
2, 58518, Note_on_c, 0, 50, 0
2, 58530, Note_on_c, 0, 77, 62
2, 58531, Note_on_c, 0, 89, 65
2, 58535, Note_on_c, 0, 53, 0
2, 58553, Note_on_c, 0, 77, 0
2, 58555, Note_on_c, 0, 89, 0
2, 58557, Note_on_c, 0, 59, 51
2, 58590, Note_on_c, 0, 59, 0
2, 58620, Note_on_c, 0, 59, 49
2, 58620, Note_on_c, 0, 74, 51
2, 58621, Note_on_c, 0, 86, 52
2, 58643, Note_on_c, 0, 74, 0
2, 58643, Note_on_c, 0, 59, 0
2, 58644, Note_on_c, 0, 86, 0
2, 58666, Note_on_c, 0, 53, 49
2, 58674, Note_on_c, 0, 50, 49
2, 58689, Note_on_c, 0, 53, 0
2, 58693, Note_on_c, 0, 43, 49
2, 58711, Note_on_c, 0, 71, 53
2, 58711, Note_on_c, 0, 83, 56
2, 58724, Note_on_c, 0, 50, 0
2, 58725, Control_c, 0, 64, 0
2, 58769, Note_on_c, 0, 71, 0
2, 58770, Note_on_c, 0, 43, 0
2, 58773, Note_on_c, 0, 48, 49
2, 58784, Note_on_c, 0, 72, 56
2, 58811, Note_on_c, 0, 76, 54
2, 58816, Note_on_c, 0, 83, 0
2, 58834, Note_on_c, 0, 76, 0
2, 58865, Control_c, 0, 64, 127
2, 58883, Note_on_c, 0, 60, 49
2, 58883, Note_on_c, 0, 84, 57
2, 58925, Note_on_c, 0, 48, 0
2, 58926, Note_on_c, 0, 84, 0
2, 58944, Note_on_c, 0, 72, 0
2, 58953, Note_on_c, 0, 60, 0
2, 58990, Control_c, 0, 67, 0
2, 59011, Note_on_c, 0, 52, 59
2, 59011, Note_on_c, 0, 64, 60
2, 59034, Note_on_c, 0, 64, 0
2, 59053, Note_on_c, 0, 52, 0
2, 59066, Note_on_c, 0, 64, 62
2, 59067, Note_on_c, 0, 76, 64
2, 59090, Note_on_c, 0, 64, 0
2, 59091, Note_on_c, 0, 76, 0
2, 59113, Note_on_c, 0, 52, 69
2, 59114, Note_on_c, 0, 76, 71
2, 59137, Note_on_c, 0, 52, 0
2, 59138, Note_on_c, 0, 76, 0
2, 59141, Note_on_c, 0, 64, 73
2, 59143, Note_on_c, 0, 88, 77
2, 59157, Note_on_c, 0, 88, 0
2, 59164, Note_on_c, 0, 64, 0
2, 59176, Note_on_c, 0, 52, 77
2, 59178, Note_on_c, 0, 88, 82
2, 59195, Note_on_c, 0, 64, 80
2, 59200, Note_on_c, 0, 52, 0
2, 59201, Note_on_c, 0, 88, 0
2, 59206, Note_on_c, 0, 100, 90
2, 59229, Note_on_c, 0, 100, 0
2, 59231, Note_on_c, 0, 52, 83
2, 59232, Note_on_c, 0, 88, 93
2, 59254, Note_on_c, 0, 64, 0
2, 59255, Note_on_c, 0, 52, 0
2, 59256, Note_on_c, 0, 88, 0
2, 59287, Note_on_c, 0, 49, 87
2, 59288, Note_on_c, 0, 88, 93
2, 59304, Note_on_c, 0, 52, 89
2, 59304, Note_on_c, 0, 61, 88
2, 59311, Note_on_c, 0, 88, 0
2, 59314, Note_on_c, 0, 76, 88
2, 59318, Note_on_c, 0, 49, 0
2, 59327, Note_on_c, 0, 52, 0
2, 59331, Note_on_c, 0, 64, 85
2, 59336, Note_on_c, 0, 61, 0
2, 59337, Note_on_c, 0, 76, 0
2, 59359, Note_on_c, 0, 76, 82
2, 59363, Note_on_c, 0, 64, 0
2, 59374, Control_c, 0, 64, 0
2, 59385, Note_on_c, 0, 64, 77
2, 59393, Note_on_c, 0, 50, 77
2, 59408, Note_on_c, 0, 64, 0
2, 59409, Note_on_c, 0, 76, 0
2, 59411, Note_on_c, 0, 53, 75
2, 59448, Note_on_c, 0, 62, 76
2, 59457, Note_on_c, 0, 65, 79
2, 59458, Note_on_c, 0, 77, 81
2, 59476, Control_c, 0, 64, 127
2, 59480, Note_on_c, 0, 65, 0
2, 59481, Note_on_c, 0, 50, 0
2, 59490, Note_on_c, 0, 53, 0
2, 59499, Note_on_c, 0, 62, 0
2, 59511, Note_on_c, 0, 64, 72
2, 59511, Note_on_c, 0, 65, 71
2, 59535, Note_on_c, 0, 65, 0
2, 59535, Note_on_c, 0, 64, 0
2, 59557, Note_on_c, 0, 64, 68
2, 59557, Note_on_c, 0, 65, 68
2, 59582, Note_on_c, 0, 77, 0
2, 59618, Note_on_c, 0, 65, 0
2, 59618, Note_on_c, 0, 64, 0
2, 59641, Note_on_c, 0, 64, 67
2, 59641, Note_on_c, 0, 65, 68
2, 59655, Note_on_c, 0, 65, 0
2, 59655, Note_on_c, 0, 64, 0
2, 59677, Note_on_c, 0, 65, 69
2, 59678, Note_on_c, 0, 63, 57
2, 59685, Control_c, 0, 64, 0
2, 59692, Note_on_c, 0, 65, 0
2, 59693, Note_on_c, 0, 63, 0
2, 59713, Note_on_c, 0, 47, 61
2, 59714, Note_on_c, 0, 50, 64
2, 59714, Note_on_c, 0, 59, 65
2, 59714, Note_on_c, 0, 65, 75
2, 59715, Note_on_c, 0, 53, 66
2, 59715, Note_on_c, 0, 77, 77
2, 59738, Note_on_c, 0, 65, 0
2, 59739, Note_on_c, 0, 53, 0
2, 59759, Note_on_c, 0, 64, 79
2, 59759, Note_on_c, 0, 65, 78
2, 59782, Note_on_c, 0, 65, 0
2, 59783, Note_on_c, 0, 64, 0
2, 59788, Control_c, 0, 64, 127
2, 59804, Note_on_c, 0, 64, 75
2, 59804, Note_on_c, 0, 65, 75
2, 59809, Note_on_c, 0, 47, 0
2, 59809, Note_on_c, 0, 50, 0
2, 59810, Note_on_c, 0, 59, 0
2, 59828, Note_on_c, 0, 65, 0
2, 59828, Note_on_c, 0, 64, 0
2, 59849, Note_on_c, 0, 64, 75
2, 59849, Note_on_c, 0, 65, 75
2, 59874, Note_on_c, 0, 65, 0
2, 59874, Note_on_c, 0, 64, 0
2, 59875, Note_on_c, 0, 77, 0
2, 59895, Note_on_c, 0, 65, 75
2, 59896, Note_on_c, 0, 63, 75
2, 59903, Control_c, 0, 64, 0
2, 59911, Note_on_c, 0, 65, 0
2, 59912, Note_on_c, 0, 63, 0
2, 59932, Note_on_c, 0, 65, 77
2, 59933, Note_on_c, 0, 77, 80
2, 59934, Note_on_c, 0, 44, 75
2, 59947, Note_on_c, 0, 65, 0
2, 59948, Note_on_c, 0, 77, 0
2, 59952, Note_on_c, 0, 56, 79
2, 59968, Note_on_c, 0, 65, 83
2, 59969, Note_on_c, 0, 77, 85
2, 59997, Control_c, 0, 64, 127
2, 60001, Note_on_c, 0, 65, 0
2, 60005, Note_on_c, 0, 64, 88
2, 60006, Note_on_c, 0, 52, 84
2, 60020, Note_on_c, 0, 77, 0
2, 60020, Note_on_c, 0, 56, 0
2, 60021, Note_on_c, 0, 44, 0
2, 60029, Note_on_c, 0, 64, 0
2, 60038, Note_on_c, 0, 52, 0
2, 60043, Note_on_c, 0, 76, 87
2, 60051, Note_on_c, 0, 64, 85
2, 60067, Note_on_c, 0, 76, 0
2, 60075, Note_on_c, 0, 64, 0
2, 60080, Note_on_c, 0, 52, 80
2, 60099, Note_on_c, 0, 76, 88
2, 60104, Note_on_c, 0, 52, 0
2, 60107, Note_on_c, 0, 64, 85
2, 60118, Note_on_c, 0, 88, 86
2, 60123, Note_on_c, 0, 76, 0
2, 60131, Note_on_c, 0, 64, 0
2, 60141, Note_on_c, 0, 88, 0
2, 60144, Note_on_c, 0, 52, 78
2, 60162, Note_on_c, 0, 64, 81
2, 60164, Note_on_c, 0, 88, 86
2, 60167, Note_on_c, 0, 52, 0
2, 60182, Note_on_c, 0, 100, 87
2, 60184, Note_on_c, 0, 64, 0
2, 60187, Note_on_c, 0, 88, 0
2, 60205, Note_on_c, 0, 100, 0
2, 60207, Note_on_c, 0, 52, 86
2, 60209, Note_on_c, 0, 88, 85
2, 60226, Note_on_c, 0, 64, 83
2, 60227, Note_on_c, 0, 76, 86
2, 60231, Note_on_c, 0, 52, 0
2, 60232, Note_on_c, 0, 88, 0
2, 60249, Note_on_c, 0, 64, 0
2, 60250, Note_on_c, 0, 76, 0
2, 60254, Note_on_c, 0, 88, 93
2, 60271, Note_on_c, 0, 52, 92
2, 60272, Note_on_c, 0, 49, 93
2, 60280, Note_on_c, 0, 76, 88
2, 60285, Note_on_c, 0, 88, 0
2, 60302, Note_on_c, 0, 52, 0
2, 60303, Note_on_c, 0, 49, 0
2, 60303, Note_on_c, 0, 76, 0
2, 60315, Note_on_c, 0, 61, 89
2, 60315, Note_on_c, 0, 64, 88
2, 60333, Note_on_c, 0, 76, 88
2, 60338, Note_on_c, 0, 61, 0
2, 60367, Control_c, 0, 64, 0
2, 60383, Note_on_c, 0, 64, 0
2, 60387, Note_on_c, 0, 50, 82
2, 60393, Note_on_c, 0, 76, 0
2, 60405, Note_on_c, 0, 53, 81
2, 60432, Note_on_c, 0, 62, 78
2, 60441, Note_on_c, 0, 65, 85
2, 60442, Note_on_c, 0, 77, 87
2, 60464, Note_on_c, 0, 65, 0
2, 60468, Control_c, 0, 64, 127
2, 60482, Note_on_c, 0, 62, 0
2, 60482, Note_on_c, 0, 77, 0
2, 60482, Note_on_c, 0, 53, 0
2, 60485, Note_on_c, 0, 64, 77
2, 60485, Note_on_c, 0, 65, 76
2, 60491, Note_on_c, 0, 50, 0
2, 60508, Note_on_c, 0, 65, 0
2, 60509, Note_on_c, 0, 64, 0
2, 60530, Note_on_c, 0, 64, 72
2, 60531, Note_on_c, 0, 65, 71
2, 60554, Note_on_c, 0, 65, 0
2, 60555, Note_on_c, 0, 64, 0
2, 60576, Note_on_c, 0, 64, 73
2, 60576, Note_on_c, 0, 65, 75
2, 60600, Note_on_c, 0, 65, 0
2, 60600, Note_on_c, 0, 64, 0
2, 60621, Note_on_c, 0, 64, 82
2, 60621, Note_on_c, 0, 65, 84
2, 60635, Note_on_c, 0, 65, 0
2, 60635, Note_on_c, 0, 64, 0
2, 60637, Control_c, 0, 64, 0
2, 60658, Note_on_c, 0, 64, 88
2, 60659, Note_on_c, 0, 65, 90
2, 60673, Note_on_c, 0, 65, 0
2, 60674, Note_on_c, 0, 64, 0
2, 60686, Note_on_c, 0, 59, 83
2, 60695, Note_on_c, 0, 50, 82
2, 60695, Note_on_c, 0, 62, 81
2, 60695, Note_on_c, 0, 65, 90
2, 60696, Note_on_c, 0, 53, 80
2, 60696, Note_on_c, 0, 77, 92
2, 60718, Note_on_c, 0, 65, 0
2, 60742, Control_c, 0, 64, 127
2, 60749, Note_on_c, 0, 64, 83
2, 60749, Note_on_c, 0, 65, 82
2, 60763, Note_on_c, 0, 50, 0
2, 60764, Note_on_c, 0, 59, 0
2, 60764, Note_on_c, 0, 53, 0
2, 60773, Note_on_c, 0, 64, 0
2, 60773, Note_on_c, 0, 65, 0
2, 60774, Note_on_c, 0, 62, 0
2, 60774, Note_on_c, 0, 77, 0
2, 60795, Note_on_c, 0, 64, 83
2, 60795, Note_on_c, 0, 65, 85
2, 60818, Note_on_c, 0, 64, 0
2, 60819, Note_on_c, 0, 65, 0
2, 60841, Note_on_c, 0, 64, 89
2, 60841, Note_on_c, 0, 65, 91
2, 60864, Note_on_c, 0, 65, 0
2, 60865, Note_on_c, 0, 64, 0
2, 60867, Control_c, 0, 64, 0
2, 60886, Note_on_c, 0, 65, 93
2, 60887, Note_on_c, 0, 77, 94
2, 60909, Note_on_c, 0, 65, 0
2, 60910, Note_on_c, 0, 77, 0
2, 60940, Note_on_c, 0, 64, 92
2, 60941, Note_on_c, 0, 52, 90
2, 60942, Note_on_c, 0, 44, 89
2, 60942, Note_on_c, 0, 56, 88
2, 60964, Note_on_c, 0, 64, 0
2, 60978, Note_on_c, 0, 76, 87
2, 60987, Control_c, 0, 64, 127
2, 60999, Note_on_c, 0, 52, 0
2, 61000, Note_on_c, 0, 76, 0
2, 61003, Note_on_c, 0, 64, 81
2, 61022, Note_on_c, 0, 76, 83
2, 61027, Note_on_c, 0, 64, 0
2, 61045, Note_on_c, 0, 76, 0
2, 61049, Note_on_c, 0, 52, 83
2, 61050, Note_on_c, 0, 88, 87
2, 61067, Note_on_c, 0, 64, 85
2, 61072, Note_on_c, 0, 52, 0
2, 61073, Note_on_c, 0, 88, 0
2, 61073, Note_on_c, 0, 56, 0
2, 61082, Note_on_c, 0, 44, 0
2, 61089, Note_on_c, 0, 64, 0
2, 61095, Note_on_c, 0, 88, 92
2, 61113, Note_on_c, 0, 52, 91
2, 61114, Note_on_c, 0, 100, 92
2, 61118, Note_on_c, 0, 88, 0
2, 61130, Note_on_c, 0, 64, 87
2, 61136, Note_on_c, 0, 52, 0
2, 61137, Note_on_c, 0, 100, 0
2, 61140, Note_on_c, 0, 88, 93
2, 61153, Note_on_c, 0, 64, 0
2, 61163, Note_on_c, 0, 88, 0
2, 61165, Note_on_c, 0, 52, 93
2, 61185, Note_on_c, 0, 88, 91
2, 61191, Note_on_c, 0, 64, 87
2, 61208, Note_on_c, 0, 88, 0
2, 61211, Note_on_c, 0, 76, 86
2, 61215, Note_on_c, 0, 64, 0
2, 61244, Control_c, 0, 64, 0
2, 61247, Note_on_c, 0, 56, 86
2, 61283, Note_on_c, 0, 59, 88
2, 61284, Note_on_c, 0, 71, 92
2, 61301, Note_on_c, 0, 64, 89
2, 61315, Note_on_c, 0, 52, 0
2, 61316, Note_on_c, 0, 76, 0
2, 61331, Control_c, 0, 64, 127
2, 61342, Note_on_c, 0, 64, 0
2, 61357, Note_on_c, 0, 76, 82
2, 61372, Note_on_c, 0, 56, 0
2, 61380, Note_on_c, 0, 71, 0
2, 61392, Control_c, 0, 64, 0
2, 61403, Note_on_c, 0, 72, 81
2, 61411, Note_on_c, 0, 64, 81
2, 61416, Note_on_c, 0, 59, 0
2, 61420, Note_on_c, 0, 57, 77
2, 61421, Note_on_c, 0, 60, 78
2, 61427, Note_on_c, 0, 76, 0
2, 61433, Note_on_c, 0, 64, 0
2, 61466, Note_on_c, 0, 76, 77
2, 61467, Control_c, 0, 64, 127
2, 61509, Note_on_c, 0, 64, 73
2, 61516, Note_on_c, 0, 76, 0
2, 61534, Note_on_c, 0, 72, 0
2, 61542, Note_on_c, 0, 64, 0
2, 61543, Note_on_c, 0, 60, 0
2, 61551, Note_on_c, 0, 57, 0
2, 61554, Control_c, 0, 64, 0
2, 61555, Note_on_c, 0, 59, 66
2, 61556, Note_on_c, 0, 56, 67
2, 61556, Note_on_c, 0, 71, 68
2, 61556, Note_on_c, 0, 76, 69
2, 61606, Note_on_c, 0, 76, 0
2, 61609, Note_on_c, 0, 64, 62
2, 61629, Control_c, 0, 64, 127
2, 61632, Note_on_c, 0, 64, 0
2, 61646, Note_on_c, 0, 76, 61
2, 61651, Note_on_c, 0, 71, 0
2, 61661, Control_c, 0, 64, 0
2, 61678, Note_on_c, 0, 59, 0
2, 61679, Note_on_c, 0, 56, 0
2, 61682, Note_on_c, 0, 64, 64
2, 61683, Note_on_c, 0, 57, 67
2, 61683, Note_on_c, 0, 60, 68
2, 61684, Note_on_c, 0, 72, 66
2, 61698, Note_on_c, 0, 76, 0
2, 61715, Note_on_c, 0, 64, 0
2, 61739, Note_on_c, 0, 76, 61
2, 61739, Control_c, 0, 64, 127
2, 61762, Note_on_c, 0, 57, 0
2, 61774, Note_on_c, 0, 64, 60
2, 61789, Note_on_c, 0, 72, 0
2, 61790, Control_c, 0, 64, 0
2, 61807, Note_on_c, 0, 64, 0
2, 61808, Note_on_c, 0, 60, 0
2, 61811, Note_on_c, 0, 61, 65
2, 61812, Note_on_c, 0, 58, 66
2, 61821, Note_on_c, 0, 73, 64
2, 61855, Note_on_c, 0, 76, 0
2, 61867, Note_on_c, 0, 64, 60
2, 61878, Control_c, 0, 64, 127
2, 61896, Note_on_c, 0, 76, 59
2, 61901, Note_on_c, 0, 64, 0
2, 61902, Control_c, 0, 64, 0
2, 61909, Note_on_c, 0, 73, 0
2, 61919, Note_on_c, 0, 58, 0
2, 61936, Note_on_c, 0, 61, 0
2, 61940, Note_on_c, 0, 62, 63
2, 61940, Note_on_c, 0, 64, 60
2, 61940, Note_on_c, 0, 74, 62
2, 61941, Note_on_c, 0, 59, 64
2, 61955, Note_on_c, 0, 76, 0
2, 61982, Note_on_c, 0, 64, 0
2, 62004, Note_on_c, 0, 76, 55
2, 62005, Control_c, 0, 64, 127
2, 62037, Note_on_c, 0, 76, 0
2, 62040, Note_on_c, 0, 64, 52
2, 62064, Note_on_c, 0, 64, 0
2, 62077, Note_on_c, 0, 76, 53
2, 62099, Note_on_c, 0, 59, 0
2, 62118, Note_on_c, 0, 76, 0
2, 62121, Note_on_c, 0, 64, 52
2, 62145, Note_on_c, 0, 64, 0
2, 62158, Note_on_c, 0, 76, 53
2, 62163, Note_on_c, 0, 74, 0
2, 62172, Note_on_c, 0, 62, 0
2, 62174, Control_c, 0, 64, 0
2, 62191, Note_on_c, 0, 76, 0
2, 62194, Note_on_c, 0, 64, 57
2, 62195, Note_on_c, 0, 60, 56
2, 62195, Note_on_c, 0, 63, 57
2, 62195, Note_on_c, 0, 75, 59
2, 62217, Note_on_c, 0, 64, 0
2, 62248, Note_on_c, 0, 76, 53
2, 62249, Control_c, 0, 64, 127
2, 62285, Note_on_c, 0, 64, 52
2, 62291, Note_on_c, 0, 76, 0
2, 62308, Note_on_c, 0, 64, 0
2, 62309, Note_on_c, 0, 75, 0
2, 62314, Note_on_c, 0, 76, 53
2, 62327, Note_on_c, 0, 60, 0
2, 62328, Note_on_c, 0, 63, 0
2, 62348, Note_on_c, 0, 64, 52
2, 62372, Note_on_c, 0, 76, 0
2, 62389, Note_on_c, 0, 64, 0
2, 62394, Note_on_c, 0, 60, 62
2, 62395, Note_on_c, 0, 75, 57
2, 62396, Note_on_c, 0, 63, 63
2, 62418, Note_on_c, 0, 75, 0
2, 62419, Control_c, 0, 64, 0
2, 62435, Note_on_c, 0, 60, 0
2, 62440, Note_on_c, 0, 61, 64
2, 62455, Note_on_c, 0, 63, 0
2, 62458, Note_on_c, 0, 64, 64
2, 62459, Note_on_c, 0, 76, 66
2, 62481, Note_on_c, 0, 64, 0
2, 62482, Note_on_c, 0, 76, 0
2, 62502, Note_on_c, 0, 64, 57
2, 62503, Note_on_c, 0, 76, 56
2, 62525, Note_on_c, 0, 64, 0
2, 62526, Note_on_c, 0, 76, 0
2, 62531, Control_c, 0, 64, 127
2, 62547, Note_on_c, 0, 64, 53
2, 62548, Note_on_c, 0, 76, 55
2, 62570, Note_on_c, 0, 64, 0
2, 62571, Note_on_c, 0, 76, 0
2, 62592, Note_on_c, 0, 64, 58
2, 62593, Note_on_c, 0, 76, 60
2, 62615, Note_on_c, 0, 64, 0
2, 62616, Note_on_c, 0, 76, 0
2, 62636, Note_on_c, 0, 64, 63
2, 62637, Note_on_c, 0, 76, 65
2, 62659, Note_on_c, 0, 64, 0
2, 62660, Note_on_c, 0, 76, 0
2, 62680, Note_on_c, 0, 64, 67
2, 62681, Note_on_c, 0, 76, 69
2, 62703, Note_on_c, 0, 64, 0
2, 62704, Note_on_c, 0, 76, 0
2, 62726, Note_on_c, 0, 64, 69
2, 62727, Note_on_c, 0, 76, 72
2, 62749, Note_on_c, 0, 64, 0
2, 62750, Note_on_c, 0, 76, 0
2, 62771, Note_on_c, 0, 64, 75
2, 62771, Note_on_c, 0, 76, 78
2, 62794, Note_on_c, 0, 64, 0
2, 62795, Note_on_c, 0, 76, 0
2, 62816, Note_on_c, 0, 64, 76
2, 62817, Note_on_c, 0, 76, 76
2, 62839, Note_on_c, 0, 64, 0
2, 62840, Note_on_c, 0, 76, 0
2, 62860, Note_on_c, 0, 64, 71
2, 62861, Note_on_c, 0, 76, 70
2, 62883, Note_on_c, 0, 64, 0
2, 62884, Note_on_c, 0, 76, 0
2, 62904, Note_on_c, 0, 64, 65
2, 62905, Note_on_c, 0, 76, 65
2, 62927, Note_on_c, 0, 64, 0
2, 62928, Note_on_c, 0, 76, 0
2, 62958, Note_on_c, 0, 64, 64
2, 62959, Note_on_c, 0, 76, 63
2, 62972, Note_on_c, 0, 61, 0
2, 62981, Note_on_c, 0, 64, 0
2, 62982, Note_on_c, 0, 76, 0
2, 63003, Note_on_c, 0, 64, 59
2, 63005, Note_on_c, 0, 76, 58
2, 63026, Note_on_c, 0, 64, 0
2, 63027, Note_on_c, 0, 76, 0
2, 63049, Note_on_c, 0, 64, 54
2, 63050, Note_on_c, 0, 76, 56
2, 63071, Note_on_c, 0, 64, 0
2, 63072, Note_on_c, 0, 76, 0
2, 63093, Note_on_c, 0, 64, 56
2, 63094, Note_on_c, 0, 76, 57
2, 63109, Control_c, 0, 64, 0
2, 63116, Note_on_c, 0, 64, 0
2, 63117, Note_on_c, 0, 76, 0
2, 63121, Note_on_c, 0, 54, 44
2, 63138, Note_on_c, 0, 66, 54
2, 63139, Note_on_c, 0, 69, 53
2, 63139, Note_on_c, 0, 75, 52
2, 63161, Note_on_c, 0, 66, 0
2, 63162, Note_on_c, 0, 69, 0
2, 63163, Note_on_c, 0, 75, 0
2, 63184, Note_on_c, 0, 66, 55
2, 63185, Note_on_c, 0, 69, 57
2, 63185, Note_on_c, 0, 75, 57
2, 63203, Control_c, 0, 64, 127
2, 63207, Note_on_c, 0, 66, 0
2, 63208, Note_on_c, 0, 75, 0
2, 63208, Note_on_c, 0, 69, 0
2, 63228, Note_on_c, 0, 66, 55
2, 63229, Note_on_c, 0, 69, 57
2, 63229, Note_on_c, 0, 75, 57
2, 63252, Note_on_c, 0, 54, 0
2, 63257, Note_on_c, 0, 56, 58
2, 63263, Control_c, 0, 64, 0
2, 63275, Control_c, 0, 67, 127
2, 63278, Note_on_c, 0, 66, 0
2, 63279, Note_on_c, 0, 69, 0
2, 63280, Note_on_c, 0, 75, 0
2, 63282, Note_on_c, 0, 64, 58
2, 63283, Note_on_c, 0, 68, 58
2, 63283, Note_on_c, 0, 73, 59
2, 63306, Note_on_c, 0, 68, 0
2, 63307, Note_on_c, 0, 73, 0
2, 63307, Note_on_c, 0, 64, 0
2, 63328, Note_on_c, 0, 64, 52
2, 63328, Note_on_c, 0, 68, 53
2, 63329, Note_on_c, 0, 73, 53
2, 63340, Control_c, 0, 64, 127
2, 63352, Note_on_c, 0, 68, 0
2, 63361, Note_on_c, 0, 73, 0
2, 63361, Note_on_c, 0, 64, 0
2, 63383, Note_on_c, 0, 64, 53
2, 63383, Note_on_c, 0, 68, 53
2, 63384, Note_on_c, 0, 73, 53
2, 63400, Control_c, 0, 64, 0
2, 63400, Control_c, 0, 67, 0
2, 63409, Note_on_c, 0, 56, 0
2, 63440, Note_on_c, 0, 44, 56
2, 63443, Note_on_c, 0, 68, 0
2, 63470, Note_on_c, 0, 64, 0
2, 63480, Note_on_c, 0, 73, 0
2, 63485, Note_on_c, 0, 56, 61
2, 63512, Control_c, 0, 64, 127
2, 63530, Note_on_c, 0, 72, 57
2, 63539, Note_on_c, 0, 68, 56
2, 63539, Note_on_c, 0, 63, 57
2, 63563, Note_on_c, 0, 72, 0
2, 63572, Note_on_c, 0, 68, 0
2, 63573, Note_on_c, 0, 63, 0
2, 63573, Note_on_c, 0, 44, 0
2, 63586, Note_on_c, 0, 72, 57
2, 63594, Note_on_c, 0, 68, 57
2, 63595, Note_on_c, 0, 63, 59
2, 63610, Note_on_c, 0, 72, 0
2, 63618, Note_on_c, 0, 68, 0
2, 63619, Note_on_c, 0, 63, 0
2, 63633, Note_on_c, 0, 72, 61
2, 63639, Control_c, 0, 64, 0
2, 63641, Note_on_c, 0, 68, 60
2, 63642, Note_on_c, 0, 63, 60
2, 63688, Note_on_c, 0, 37, 58
2, 63755, Note_on_c, 0, 68, 0
2, 63756, Note_on_c, 0, 63, 0
2, 63756, Note_on_c, 0, 72, 0
2, 63760, Note_on_c, 0, 49, 82
2, 63783, Note_on_c, 0, 56, 0
2, 63788, Control_c, 0, 64, 127
2, 63828, Note_on_c, 0, 37, 0
2, 63837, Note_on_c, 0, 49, 0
2, 63858, Note_on_c, 0, 61, 75
2, 63925, Note_on_c, 0, 61, 0
2, 63947, Note_on_c, 0, 61, 64
2, 63948, Note_on_c, 0, 73, 54
2, 63971, Note_on_c, 0, 73, 0
2, 63971, Note_on_c, 0, 61, 0
2, 64020, Note_on_c, 0, 61, 60
2, 64021, Note_on_c, 0, 73, 53
2, 64043, Note_on_c, 0, 61, 0
2, 64044, Note_on_c, 0, 73, 0
2, 64066, Note_on_c, 0, 61, 55
2, 64067, Note_on_c, 0, 73, 53
2, 64089, Note_on_c, 0, 61, 0
2, 64090, Note_on_c, 0, 73, 0
2, 64111, Note_on_c, 0, 61, 53
2, 64112, Note_on_c, 0, 73, 53
2, 64135, Note_on_c, 0, 73, 0
2, 64135, Note_on_c, 0, 61, 0
2, 64157, Note_on_c, 0, 61, 52
2, 64158, Note_on_c, 0, 73, 53
2, 64181, Note_on_c, 0, 61, 0
2, 64182, Note_on_c, 0, 73, 0
2, 64203, Note_on_c, 0, 61, 52
2, 64204, Note_on_c, 0, 73, 53
2, 64226, Note_on_c, 0, 73, 0
2, 64226, Note_on_c, 0, 61, 0
2, 64250, Note_on_c, 0, 61, 52
2, 64250, Note_on_c, 0, 73, 53
2, 64273, Note_on_c, 0, 73, 0
2, 64273, Note_on_c, 0, 61, 0
2, 64295, Note_on_c, 0, 61, 54
2, 64305, Note_on_c, 0, 73, 55
2, 64329, Note_on_c, 0, 73, 0
2, 64342, Note_on_c, 0, 44, 67
2, 64342, Note_on_c, 0, 56, 69
2, 64358, Note_on_c, 0, 73, 58
2, 64382, Note_on_c, 0, 73, 0
2, 64382, Note_on_c, 0, 61, 0
2, 64412, Note_on_c, 0, 61, 64
2, 64413, Note_on_c, 0, 73, 61
2, 64427, Note_on_c, 0, 61, 0
2, 64428, Note_on_c, 0, 73, 0
2, 64450, Note_on_c, 0, 61, 61
2, 64450, Note_on_c, 0, 73, 61
2, 64456, Note_on_c, 0, 44, 0
2, 64457, Note_on_c, 0, 56, 0
2, 64474, Note_on_c, 0, 61, 0
2, 64483, Note_on_c, 0, 73, 0
2, 64504, Note_on_c, 0, 57, 64
2, 64505, Note_on_c, 0, 45, 66
2, 64512, Control_c, 0, 64, 0
2, 64576, Note_on_c, 0, 61, 65
2, 64576, Note_on_c, 0, 73, 61
2, 64599, Note_on_c, 0, 73, 0
2, 64599, Note_on_c, 0, 61, 0
2, 64621, Note_on_c, 0, 61, 60
2, 64622, Note_on_c, 0, 73, 61
2, 64645, Note_on_c, 0, 73, 0
2, 64645, Note_on_c, 0, 61, 0
2, 64667, Note_on_c, 0, 61, 60
2, 64667, Note_on_c, 0, 73, 61
2, 64690, Note_on_c, 0, 61, 0
2, 64691, Note_on_c, 0, 73, 0
2, 64713, Note_on_c, 0, 61, 60
2, 64714, Note_on_c, 0, 73, 61
2, 64734, Control_c, 0, 64, 127
2, 64736, Note_on_c, 0, 61, 0
2, 64737, Note_on_c, 0, 73, 0
2, 64755, Note_on_c, 0, 45, 0
2, 64759, Note_on_c, 0, 61, 60
2, 64759, Note_on_c, 0, 73, 61
2, 64782, Note_on_c, 0, 61, 0
2, 64783, Note_on_c, 0, 73, 0
2, 64804, Note_on_c, 0, 61, 60
2, 64805, Note_on_c, 0, 73, 61
2, 64818, Note_on_c, 0, 57, 0
2, 64827, Note_on_c, 0, 61, 0
2, 64828, Note_on_c, 0, 73, 0
2, 64850, Note_on_c, 0, 61, 60
2, 64851, Note_on_c, 0, 73, 61
2, 64873, Note_on_c, 0, 61, 0
2, 64874, Note_on_c, 0, 73, 0
2, 64896, Note_on_c, 0, 61, 60
2, 64897, Note_on_c, 0, 73, 61
2, 64920, Note_on_c, 0, 73, 0
2, 64942, Note_on_c, 0, 57, 68
2, 64943, Note_on_c, 0, 73, 61
2, 64944, Note_on_c, 0, 45, 71
2, 64957, Note_on_c, 0, 61, 0
2, 64966, Note_on_c, 0, 57, 0
2, 64967, Note_on_c, 0, 73, 0
2, 64976, Note_on_c, 0, 45, 0
2, 64988, Note_on_c, 0, 61, 67
2, 64989, Note_on_c, 0, 73, 61
2, 65011, Note_on_c, 0, 73, 0
2, 65011, Note_on_c, 0, 61, 0
2, 65033, Note_on_c, 0, 61, 64
2, 65033, Note_on_c, 0, 73, 61
2, 65055, Note_on_c, 0, 61, 0
2, 65070, Note_on_c, 0, 45, 62
2, 65071, Note_on_c, 0, 33, 61
2, 65083, Note_on_c, 0, 73, 0
2, 65094, Note_on_c, 0, 33, 0
2, 65101, Note_on_c, 0, 45, 0
2, 65141, Note_on_c, 0, 57, 62
2, 65142, Note_on_c, 0, 45, 66
2, 65166, Note_on_c, 0, 45, 0
2, 65195, Note_on_c, 0, 64, 60
2, 65195, Note_on_c, 0, 67, 60
2, 65195, Note_on_c, 0, 73, 60
2, 65196, Note_on_c, 0, 69, 61
2, 65219, Note_on_c, 0, 73, 0
2, 65219, Note_on_c, 0, 67, 0
2, 65219, Note_on_c, 0, 64, 0
2, 65220, Note_on_c, 0, 69, 0
2, 65241, Note_on_c, 0, 64, 60
2, 65241, Note_on_c, 0, 67, 60
2, 65242, Note_on_c, 0, 73, 60
2, 65243, Note_on_c, 0, 69, 61
2, 65265, Note_on_c, 0, 64, 0
2, 65266, Note_on_c, 0, 73, 0
2, 65266, Note_on_c, 0, 67, 0
2, 65267, Note_on_c, 0, 69, 0
2, 65288, Note_on_c, 0, 64, 60
2, 65288, Note_on_c, 0, 67, 60
2, 65289, Note_on_c, 0, 73, 60
2, 65290, Note_on_c, 0, 69, 61
2, 65312, Note_on_c, 0, 73, 0
2, 65312, Note_on_c, 0, 67, 0
2, 65312, Note_on_c, 0, 64, 0
2, 65313, Note_on_c, 0, 69, 0
2, 65334, Note_on_c, 0, 64, 59
2, 65334, Note_on_c, 0, 67, 60
2, 65334, Note_on_c, 0, 73, 60
2, 65335, Note_on_c, 0, 69, 61
2, 65357, Note_on_c, 0, 67, 0
2, 65358, Note_on_c, 0, 73, 0
2, 65358, Note_on_c, 0, 64, 0
2, 65359, Note_on_c, 0, 69, 0
2, 65376, Note_on_c, 0, 57, 0
2, 65379, Note_on_c, 0, 64, 60
2, 65379, Note_on_c, 0, 67, 60
2, 65379, Note_on_c, 0, 73, 60
2, 65380, Note_on_c, 0, 69, 61
2, 65402, Note_on_c, 0, 67, 0
2, 65402, Note_on_c, 0, 64, 0
2, 65403, Note_on_c, 0, 73, 0
2, 65404, Note_on_c, 0, 69, 0
2, 65425, Note_on_c, 0, 64, 60
2, 65425, Note_on_c, 0, 67, 60
2, 65426, Note_on_c, 0, 73, 60
2, 65427, Note_on_c, 0, 69, 61
2, 65435, Note_on_c, 0, 57, 66
2, 65436, Note_on_c, 0, 45, 67
2, 65450, Note_on_c, 0, 67, 0
2, 65450, Note_on_c, 0, 64, 0
2, 65451, Note_on_c, 0, 73, 0
2, 65452, Note_on_c, 0, 69, 0
2, 65472, Note_on_c, 0, 64, 59
2, 65473, Note_on_c, 0, 67, 60
2, 65473, Note_on_c, 0, 73, 61
2, 65474, Note_on_c, 0, 69, 60
2, 65496, Note_on_c, 0, 67, 0
2, 65497, Note_on_c, 0, 73, 0
2, 65497, Note_on_c, 0, 64, 0
2, 65498, Note_on_c, 0, 69, 0
2, 65518, Note_on_c, 0, 67, 60
2, 65519, Note_on_c, 0, 64, 60
2, 65519, Note_on_c, 0, 73, 61
2, 65520, Note_on_c, 0, 69, 60
2, 65542, Note_on_c, 0, 73, 0
2, 65542, Note_on_c, 0, 67, 0
2, 65543, Note_on_c, 0, 64, 0
2, 65543, Note_on_c, 0, 69, 0
2, 65559, Note_on_c, 0, 57, 0
2, 65563, Note_on_c, 0, 64, 60
2, 65563, Note_on_c, 0, 67, 60
2, 65564, Note_on_c, 0, 73, 60
2, 65565, Note_on_c, 0, 69, 61
2, 65570, Note_on_c, 0, 45, 0
2, 65587, Note_on_c, 0, 73, 0
2, 65587, Note_on_c, 0, 64, 0
2, 65587, Note_on_c, 0, 67, 0
2, 65588, Note_on_c, 0, 69, 0
2, 65609, Note_on_c, 0, 64, 60
2, 65609, Note_on_c, 0, 67, 60
2, 65610, Note_on_c, 0, 73, 60
2, 65611, Note_on_c, 0, 69, 61
2, 65633, Note_on_c, 0, 73, 0
2, 65633, Note_on_c, 0, 64, 0
2, 65633, Note_on_c, 0, 67, 0
2, 65634, Note_on_c, 0, 69, 0
2, 65654, Note_on_c, 0, 64, 60
2, 65654, Note_on_c, 0, 67, 60
2, 65655, Note_on_c, 0, 57, 81
2, 65655, Note_on_c, 0, 73, 61
2, 65656, Note_on_c, 0, 45, 82
2, 65656, Note_on_c, 0, 69, 61
2, 65678, Note_on_c, 0, 57, 0
2, 65698, Note_on_c, 0, 45, 0
2, 65735, Control_c, 0, 64, 0
2, 65743, Note_on_c, 0, 64, 0
2, 65766, Note_on_c, 0, 38, 83
2, 65778, Note_on_c, 0, 67, 0
2, 65797, Note_on_c, 0, 69, 0
2, 65809, Note_on_c, 0, 62, 82
2, 65823, Note_on_c, 0, 73, 0
2, 65836, Note_on_c, 0, 50, 78
2, 65901, Control_c, 0, 64, 127
2, 65926, Note_on_c, 0, 65, 60
2, 65927, Note_on_c, 0, 74, 61
2, 65928, Note_on_c, 0, 69, 61
2, 65950, Note_on_c, 0, 74, 0
2, 65950, Note_on_c, 0, 65, 0
2, 65951, Note_on_c, 0, 62, 0
2, 65952, Note_on_c, 0, 69, 0
2, 65972, Note_on_c, 0, 65, 60
2, 65972, Note_on_c, 0, 74, 61
2, 65973, Note_on_c, 0, 69, 60
2, 65995, Note_on_c, 0, 74, 0
2, 65995, Note_on_c, 0, 65, 0
2, 65996, Note_on_c, 0, 69, 0
2, 66006, Note_on_c, 0, 38, 0
2, 66017, Note_on_c, 0, 65, 60
2, 66017, Note_on_c, 0, 74, 61
2, 66018, Note_on_c, 0, 69, 60
2, 66039, Note_on_c, 0, 65, 0
2, 66040, Note_on_c, 0, 74, 0
2, 66041, Note_on_c, 0, 69, 0
2, 66050, Note_on_c, 0, 50, 0
2, 66062, Note_on_c, 0, 65, 60
2, 66062, Note_on_c, 0, 74, 61
2, 66063, Note_on_c, 0, 69, 60
2, 66085, Note_on_c, 0, 74, 0
2, 66085, Note_on_c, 0, 65, 0
2, 66086, Note_on_c, 0, 69, 0
2, 66107, Note_on_c, 0, 65, 60
2, 66107, Note_on_c, 0, 74, 61
2, 66107, Note_on_c, 0, 69, 60
2, 66130, Note_on_c, 0, 65, 0
2, 66131, Note_on_c, 0, 69, 0
2, 66131, Note_on_c, 0, 74, 0
2, 66152, Note_on_c, 0, 65, 60
2, 66153, Note_on_c, 0, 74, 61
2, 66154, Note_on_c, 0, 69, 61
2, 66211, Note_on_c, 0, 74, 0
2, 66211, Note_on_c, 0, 65, 0
2, 66212, Note_on_c, 0, 69, 0
2, 66232, Note_on_c, 0, 65, 60
2, 66233, Note_on_c, 0, 74, 61
2, 66234, Note_on_c, 0, 69, 61
2, 66256, Note_on_c, 0, 74, 0
2, 66256, Note_on_c, 0, 65, 0
2, 66257, Note_on_c, 0, 69, 0
2, 66277, Note_on_c, 0, 62, 102
2, 66277, Note_on_c, 0, 65, 60
2, 66277, Note_on_c, 0, 74, 60
2, 66278, Note_on_c, 0, 50, 103
2, 66279, Note_on_c, 0, 69, 61
2, 66301, Note_on_c, 0, 74, 0
2, 66301, Note_on_c, 0, 65, 0
2, 66302, Note_on_c, 0, 62, 0
2, 66303, Note_on_c, 0, 69, 0
2, 66320, Note_on_c, 0, 50, 0
2, 66323, Note_on_c, 0, 65, 60
2, 66323, Note_on_c, 0, 74, 61
2, 66324, Note_on_c, 0, 69, 61
2, 66347, Note_on_c, 0, 69, 0
2, 66347, Note_on_c, 0, 74, 0
2, 66347, Note_on_c, 0, 65, 0
2, 66348, Control_c, 0, 64, 0
2, 66369, Note_on_c, 0, 65, 59
2, 66370, Note_on_c, 0, 74, 61
2, 66371, Note_on_c, 0, 69, 61
2, 66379, Note_on_c, 0, 43, 88
2, 66405, Note_on_c, 0, 50, 87
2, 66428, Note_on_c, 0, 65, 0
2, 66429, Note_on_c, 0, 74, 0
2, 66438, Note_on_c, 0, 50, 0
2, 66448, Note_on_c, 0, 69, 0
2, 66469, Note_on_c, 0, 50, 82
2, 66469, Note_on_c, 0, 62, 84
2, 66490, Control_c, 0, 64, 127
2, 66521, Note_on_c, 0, 43, 0
2, 66533, Note_on_c, 0, 64, 60
2, 66533, Note_on_c, 0, 70, 61
2, 66533, Note_on_c, 0, 74, 60
2, 66547, Note_on_c, 0, 62, 0
2, 66556, Note_on_c, 0, 70, 0
2, 66556, Note_on_c, 0, 74, 0
2, 66557, Note_on_c, 0, 64, 0
2, 66565, Note_on_c, 0, 50, 0
2, 66578, Note_on_c, 0, 64, 60
2, 66578, Note_on_c, 0, 70, 61
2, 66578, Note_on_c, 0, 74, 60
2, 66601, Note_on_c, 0, 74, 0
2, 66601, Note_on_c, 0, 70, 0
2, 66601, Note_on_c, 0, 64, 0
2, 66623, Note_on_c, 0, 64, 60
2, 66623, Note_on_c, 0, 70, 61
2, 66624, Note_on_c, 0, 74, 60
2, 66646, Note_on_c, 0, 74, 0
2, 66646, Note_on_c, 0, 64, 0
2, 66647, Note_on_c, 0, 70, 0
2, 66652, Note_on_c, 0, 46, 76
2, 66652, Note_on_c, 0, 58, 77
2, 66678, Note_on_c, 0, 64, 60
2, 66678, Note_on_c, 0, 70, 61
2, 66678, Note_on_c, 0, 74, 60
2, 66701, Note_on_c, 0, 74, 0
2, 66701, Note_on_c, 0, 64, 0
2, 66701, Note_on_c, 0, 70, 0
2, 66711, Note_on_c, 0, 46, 0
2, 66722, Note_on_c, 0, 64, 60
2, 66723, Note_on_c, 0, 70, 61
2, 66723, Note_on_c, 0, 74, 61
2, 66729, Note_on_c, 0, 58, 0
2, 66746, Note_on_c, 0, 64, 0
2, 66746, Note_on_c, 0, 70, 0
2, 66746, Note_on_c, 0, 74, 0
2, 66759, Note_on_c, 0, 55, 72
2, 66760, Note_on_c, 0, 43, 73
2, 66777, Note_on_c, 0, 64, 60
2, 66777, Note_on_c, 0, 70, 63
2, 66777, Note_on_c, 0, 74, 64
2, 66792, Note_on_c, 0, 43, 0
2, 66792, Note_on_c, 0, 55, 0
2, 66801, Note_on_c, 0, 70, 0
2, 66801, Note_on_c, 0, 64, 0
2, 66801, Note_on_c, 0, 74, 0
2, 66803, Control_c, 0, 64, 0
2, 66823, Note_on_c, 0, 52, 72
2, 66824, Note_on_c, 0, 40, 74
2, 66831, Note_on_c, 0, 74, 68
2, 66832, Note_on_c, 0, 64, 68
2, 66832, Note_on_c, 0, 70, 69
2, 66855, Note_on_c, 0, 70, 0
2, 66855, Note_on_c, 0, 74, 0
2, 66855, Note_on_c, 0, 64, 0
2, 66878, Control_c, 0, 64, 127
2, 66886, Note_on_c, 0, 64, 68
2, 66886, Note_on_c, 0, 70, 69
2, 66886, Note_on_c, 0, 74, 68
2, 66909, Note_on_c, 0, 74, 0
2, 66910, Note_on_c, 0, 64, 0
2, 66910, Note_on_c, 0, 70, 0
2, 66928, Note_on_c, 0, 40, 0
2, 66931, Note_on_c, 0, 64, 68
2, 66931, Note_on_c, 0, 70, 69
2, 66932, Note_on_c, 0, 74, 68
2, 66937, Note_on_c, 0, 52, 0
2, 66954, Note_on_c, 0, 64, 0
2, 66955, Note_on_c, 0, 74, 0
2, 66956, Note_on_c, 0, 70, 0
2, 66977, Note_on_c, 0, 46, 71
2, 66978, Note_on_c, 0, 58, 73
2, 66986, Note_on_c, 0, 64, 68
2, 66986, Note_on_c, 0, 67, 68
2, 66986, Note_on_c, 0, 74, 68
2, 67008, Note_on_c, 0, 67, 0
2, 67009, Note_on_c, 0, 64, 0
2, 67009, Note_on_c, 0, 74, 0
2, 67031, Note_on_c, 0, 64, 67
2, 67031, Note_on_c, 0, 67, 68
2, 67031, Note_on_c, 0, 74, 68
2, 67055, Note_on_c, 0, 74, 0
2, 67055, Note_on_c, 0, 64, 0
2, 67055, Note_on_c, 0, 67, 0
2, 67074, Note_on_c, 0, 46, 0
2, 67077, Note_on_c, 0, 67, 73
2, 67077, Note_on_c, 0, 74, 75
2, 67078, Note_on_c, 0, 64, 75
2, 67084, Note_on_c, 0, 58, 0
2, 67085, Control_c, 0, 64, 0
2, 67101, Note_on_c, 0, 74, 0
2, 67102, Note_on_c, 0, 67, 0
2, 67102, Note_on_c, 0, 64, 0
2, 67105, Note_on_c, 0, 57, 79
2, 67106, Note_on_c, 0, 45, 80
2, 67142, Note_on_c, 0, 65, 75
2, 67142, Note_on_c, 0, 74, 76
2, 67143, Note_on_c, 0, 69, 75
2, 67165, Note_on_c, 0, 74, 0
2, 67165, Note_on_c, 0, 65, 0
2, 67166, Note_on_c, 0, 69, 0
2, 67187, Note_on_c, 0, 65, 75
2, 67187, Note_on_c, 0, 74, 76
2, 67188, Note_on_c, 0, 69, 75
2, 67211, Note_on_c, 0, 69, 0
2, 67211, Note_on_c, 0, 65, 0
2, 67211, Note_on_c, 0, 74, 0
2, 67241, Note_on_c, 0, 65, 75
2, 67242, Note_on_c, 0, 74, 76
2, 67243, Note_on_c, 0, 69, 76
2, 67261, Control_c, 0, 64, 127
2, 67265, Note_on_c, 0, 74, 0
2, 67265, Note_on_c, 0, 65, 0
2, 67266, Note_on_c, 0, 69, 0
2, 67286, Note_on_c, 0, 65, 77
2, 67286, Note_on_c, 0, 74, 80
2, 67287, Note_on_c, 0, 69, 81
2, 67309, Note_on_c, 0, 74, 0
2, 67309, Note_on_c, 0, 65, 0
2, 67309, Note_on_c, 0, 57, 0
2, 67310, Note_on_c, 0, 45, 0
2, 67310, Note_on_c, 0, 69, 0
2, 67331, Note_on_c, 0, 65, 82
2, 67331, Note_on_c, 0, 74, 84
2, 67332, Note_on_c, 0, 69, 83
2, 67342, Note_on_c, 0, 33, 78
2, 67348, Control_c, 0, 64, 0
2, 67355, Note_on_c, 0, 69, 0
2, 67355, Note_on_c, 0, 65, 0
2, 67368, Note_on_c, 0, 45, 75
2, 67374, Note_on_c, 0, 33, 0
2, 67381, Note_on_c, 0, 74, 0
2, 67391, Note_on_c, 0, 45, 0
2, 67429, Note_on_c, 0, 64, 77
2, 67429, Note_on_c, 0, 73, 82
2, 67430, Note_on_c, 0, 45, 80
2, 67431, Note_on_c, 0, 69, 83
2, 67448, Note_on_c, 0, 57, 78
2, 67452, Note_on_c, 0, 73, 0
2, 67453, Note_on_c, 0, 64, 0
2, 67454, Note_on_c, 0, 69, 0
2, 67469, Control_c, 0, 64, 127
2, 67494, Note_on_c, 0, 64, 88
2, 67495, Note_on_c, 0, 73, 91
2, 67496, Note_on_c, 0, 69, 92
2, 67518, Note_on_c, 0, 73, 0
2, 67519, Note_on_c, 0, 64, 0
2, 67520, Note_on_c, 0, 69, 0
2, 67555, Note_on_c, 0, 57, 0
2, 67559, Note_on_c, 0, 73, 93
2, 67560, Note_on_c, 0, 64, 92
2, 67561, Note_on_c, 0, 69, 93
2, 67566, Note_on_c, 0, 45, 0
2, 67583, Note_on_c, 0, 64, 0
2, 67584, Note_on_c, 0, 73, 0
2, 67585, Note_on_c, 0, 69, 0
2, 67606, Note_on_c, 0, 64, 92
2, 67606, Note_on_c, 0, 73, 93
2, 67607, Note_on_c, 0, 69, 92
2, 67629, Note_on_c, 0, 64, 0
2, 67630, Note_on_c, 0, 73, 0
2, 67631, Note_on_c, 0, 69, 0
2, 67661, Note_on_c, 0, 57, 74
2, 67661, Note_on_c, 0, 64, 94
2, 67662, Note_on_c, 0, 45, 72
2, 67662, Note_on_c, 0, 73, 96
2, 67663, Note_on_c, 0, 69, 97
2, 67694, Note_on_c, 0, 57, 0
2, 67695, Note_on_c, 0, 64, 0
2, 67704, Note_on_c, 0, 73, 0
2, 67705, Note_on_c, 0, 69, 0
2, 67714, Note_on_c, 0, 45, 0
2, 67736, Note_on_c, 0, 73, 103
2, 67737, Note_on_c, 0, 64, 102
2, 67737, Note_on_c, 0, 69, 103
2, 67787, Note_on_c, 0, 69, 0
2, 67787, Note_on_c, 0, 73, 0
2, 67813, Note_on_c, 0, 64, 0
2, 67843, Control_c, 0, 64, 0
2, 67871, Note_on_c, 0, 50, 98
2, 67872, Note_on_c, 0, 45, 95
2, 67873, Note_on_c, 0, 38, 94
2, 67889, Note_on_c, 0, 62, 94
2, 67889, Note_on_c, 0, 65, 76
2, 67890, Note_on_c, 0, 74, 76
2, 67891, Note_on_c, 0, 69, 77
2, 67931, Note_on_c, 0, 62, 0
2, 67940, Note_on_c, 0, 74, 0
2, 67945, Control_c, 0, 64, 127
2, 67949, Note_on_c, 0, 65, 0
2, 67988, Note_on_c, 0, 62, 88
2, 67988, Note_on_c, 0, 74, 77
2, 68003, Note_on_c, 0, 69, 0
2, 68011, Note_on_c, 0, 74, 0
2, 68012, Note_on_c, 0, 62, 0
2, 68060, Note_on_c, 0, 62, 80
2, 68060, Note_on_c, 0, 74, 66
2, 68083, Note_on_c, 0, 74, 0
2, 68084, Note_on_c, 0, 62, 0
2, 68132, Note_on_c, 0, 62, 74
2, 68133, Note_on_c, 0, 74, 59
2, 68156, Note_on_c, 0, 74, 0
2, 68157, Note_on_c, 0, 62, 0
2, 68195, Note_on_c, 0, 62, 90
2, 68195, Note_on_c, 0, 74, 80
2, 68210, Note_on_c, 0, 45, 0
2, 68219, Note_on_c, 0, 62, 0
2, 68219, Note_on_c, 0, 74, 0
2, 68250, Note_on_c, 0, 62, 97
2, 68250, Note_on_c, 0, 74, 87
2, 68273, Note_on_c, 0, 74, 0
2, 68274, Note_on_c, 0, 62, 0
2, 68295, Note_on_c, 0, 74, 90
2, 68296, Note_on_c, 0, 62, 102
2, 68301, Note_on_c, 0, 50, 0
2, 68318, Note_on_c, 0, 74, 0
2, 68319, Note_on_c, 0, 62, 0
2, 68320, Note_on_c, 0, 38, 0
2, 68340, Note_on_c, 0, 62, 102
2, 68340, Note_on_c, 0, 74, 95
2, 68364, Note_on_c, 0, 74, 0
2, 68364, Note_on_c, 0, 62, 0
2, 68387, Note_on_c, 0, 62, 100
2, 68387, Note_on_c, 0, 74, 96
2, 68411, Note_on_c, 0, 74, 0
2, 68411, Note_on_c, 0, 62, 0
2, 68432, Note_on_c, 0, 62, 96
2, 68433, Note_on_c, 0, 74, 94
2, 68455, Note_on_c, 0, 74, 0
2, 68456, Note_on_c, 0, 62, 0
2, 68477, Note_on_c, 0, 74, 93
2, 68478, Note_on_c, 0, 62, 93
2, 68500, Note_on_c, 0, 74, 0
2, 68501, Note_on_c, 0, 62, 0
2, 68523, Note_on_c, 0, 62, 92
2, 68523, Note_on_c, 0, 74, 92
2, 68547, Note_on_c, 0, 74, 0
2, 68548, Note_on_c, 0, 62, 0
2, 68569, Note_on_c, 0, 74, 88
2, 68570, Note_on_c, 0, 38, 91
2, 68571, Note_on_c, 0, 26, 92
2, 68592, Note_on_c, 0, 74, 0
2, 68593, Note_on_c, 0, 38, 0
2, 68594, Note_on_c, 0, 26, 0
2, 68614, Note_on_c, 0, 74, 88
2, 68615, Note_on_c, 0, 62, 85
2, 68616, Note_on_c, 0, 69, 90
2, 68617, Note_on_c, 0, 28, 84
2, 68617, Note_on_c, 0, 40, 84
2, 68638, Note_on_c, 0, 74, 0
2, 68639, Note_on_c, 0, 62, 0
2, 68640, Note_on_c, 0, 28, 0
2, 68640, Note_on_c, 0, 69, 0
2, 68640, Note_on_c, 0, 40, 0
2, 68660, Note_on_c, 0, 62, 87
2, 68660, Note_on_c, 0, 74, 95
2, 68661, Note_on_c, 0, 29, 86
2, 68661, Note_on_c, 0, 41, 85
2, 68661, Note_on_c, 0, 69, 96
2, 68683, Note_on_c, 0, 74, 0
2, 68683, Note_on_c, 0, 62, 0
2, 68684, Note_on_c, 0, 69, 0
2, 68684, Note_on_c, 0, 29, 0
2, 68685, Note_on_c, 0, 41, 0
2, 68705, Note_on_c, 0, 62, 92
2, 68706, Note_on_c, 0, 74, 101
2, 68707, Note_on_c, 0, 43, 94
2, 68708, Note_on_c, 0, 31, 95
2, 68708, Note_on_c, 0, 69, 102
2, 68723, Control_c, 0, 64, 0
2, 68729, Note_on_c, 0, 74, 0
2, 68730, Note_on_c, 0, 62, 0
2, 68731, Note_on_c, 0, 31, 0
2, 68731, Note_on_c, 0, 43, 0
2, 68731, Note_on_c, 0, 69, 0
2, 68752, Note_on_c, 0, 62, 103
2, 68752, Note_on_c, 0, 74, 103
2, 68753, Note_on_c, 0, 45, 104
2, 68753, Note_on_c, 0, 69, 103
2, 68754, Note_on_c, 0, 33, 105
2, 68776, Note_on_c, 0, 45, 0
2, 68776, Note_on_c, 0, 62, 0
2, 68776, Note_on_c, 0, 74, 0
2, 68777, Note_on_c, 0, 69, 0
2, 68778, Note_on_c, 0, 33, 0
2, 68798, Note_on_c, 0, 74, 103
2, 68799, Note_on_c, 0, 62, 102
2, 68800, Note_on_c, 0, 46, 102
2, 68800, Note_on_c, 0, 69, 103
2, 68801, Note_on_c, 0, 34, 102
2, 68823, Note_on_c, 0, 74, 0
2, 68824, Note_on_c, 0, 69, 0
2, 68824, Note_on_c, 0, 34, 0
2, 68824, Note_on_c, 0, 46, 0
2, 68837, Note_on_c, 0, 45, 107
2, 68838, Note_on_c, 0, 33, 107
2, 68845, Note_on_c, 0, 74, 103
2, 68846, Note_on_c, 0, 69, 103
2, 68861, Note_on_c, 0, 33, 0
2, 68869, Note_on_c, 0, 74, 0
2, 68869, Note_on_c, 0, 62, 0
2, 68869, Note_on_c, 0, 45, 0
2, 68870, Note_on_c, 0, 69, 0
2, 68884, Control_c, 0, 64, 127
2, 68891, Note_on_c, 0, 62, 98
2, 68891, Note_on_c, 0, 74, 96
2, 68914, Note_on_c, 0, 74, 0
2, 68915, Note_on_c, 0, 62, 0
2, 68937, Note_on_c, 0, 74, 93
2, 68938, Note_on_c, 0, 62, 94
2, 68961, Note_on_c, 0, 74, 0
2, 68983, Note_on_c, 0, 74, 93
2, 68993, Note_on_c, 0, 29, 94
2, 68993, Note_on_c, 0, 41, 93
2, 69006, Note_on_c, 0, 74, 0
2, 69007, Note_on_c, 0, 62, 0
2, 69016, Note_on_c, 0, 29, 0
2, 69017, Note_on_c, 0, 41, 0
2, 69046, Note_on_c, 0, 62, 92
2, 69046, Note_on_c, 0, 74, 93
2, 69069, Note_on_c, 0, 74, 0
2, 69070, Note_on_c, 0, 62, 0
2, 69090, Control_c, 0, 64, 0
2, 69101, Note_on_c, 0, 62, 92
2, 69101, Note_on_c, 0, 74, 93
2, 69124, Note_on_c, 0, 74, 0
2, 69138, Note_on_c, 0, 26, 88
2, 69138, Note_on_c, 0, 38, 86
2, 69145, Note_on_c, 0, 74, 87
2, 69168, Note_on_c, 0, 74, 0
2, 69169, Note_on_c, 0, 62, 0
2, 69190, Note_on_c, 0, 62, 82
2, 69190, Note_on_c, 0, 74, 79
2, 69213, Note_on_c, 0, 74, 0
2, 69213, Note_on_c, 0, 62, 0
2, 69235, Note_on_c, 0, 62, 78
2, 69235, Note_on_c, 0, 74, 75
2, 69236, Control_c, 0, 64, 127
2, 69258, Note_on_c, 0, 74, 0
2, 69259, Note_on_c, 0, 62, 0
2, 69280, Note_on_c, 0, 62, 73
2, 69280, Note_on_c, 0, 74, 71
2, 69303, Note_on_c, 0, 74, 0
2, 69304, Note_on_c, 0, 62, 0
2, 69324, Note_on_c, 0, 26, 0
2, 69326, Note_on_c, 0, 62, 66
2, 69326, Note_on_c, 0, 74, 67
2, 69348, Note_on_c, 0, 74, 0
2, 69349, Note_on_c, 0, 62, 0
2, 69359, Note_on_c, 0, 38, 0
2, 69371, Note_on_c, 0, 62, 62
2, 69371, Note_on_c, 0, 74, 64
2, 69395, Note_on_c, 0, 74, 0
2, 69395, Note_on_c, 0, 62, 0
2, 69418, Note_on_c, 0, 62, 60
2, 69418, Note_on_c, 0, 74, 62
2, 69441, Note_on_c, 0, 74, 0
2, 69442, Note_on_c, 0, 62, 0
2, 69463, Note_on_c, 0, 62, 60
2, 69464, Note_on_c, 0, 74, 61
2, 69487, Note_on_c, 0, 74, 0
2, 69488, Note_on_c, 0, 62, 0
2, 69510, Note_on_c, 0, 62, 60
2, 69510, Note_on_c, 0, 74, 61
2, 69532, Note_on_c, 0, 74, 0
2, 69532, Note_on_c, 0, 62, 0
2, 69539, Control_c, 0, 67, 127
2, 69555, Note_on_c, 0, 62, 57
2, 69555, Note_on_c, 0, 74, 58
2, 69577, Note_on_c, 0, 74, 0
2, 69578, Note_on_c, 0, 62, 0
2, 69598, Note_on_c, 0, 62, 57
2, 69598, Note_on_c, 0, 74, 58
2, 69605, Control_c, 0, 64, 0
2, 69621, Note_on_c, 0, 74, 0
2, 69622, Note_on_c, 0, 62, 0
2, 69652, Note_on_c, 0, 62, 57
2, 69652, Note_on_c, 0, 74, 58
2, 69675, Note_on_c, 0, 74, 0
2, 69676, Note_on_c, 0, 62, 0
2, 69679, Note_on_c, 0, 50, 58
2, 69680, Note_on_c, 0, 38, 58
2, 69705, Note_on_c, 0, 62, 56
2, 69705, Note_on_c, 0, 74, 58
2, 69715, Control_c, 0, 64, 127
2, 69718, Note_on_c, 0, 50, 0
2, 69727, Note_on_c, 0, 74, 0
2, 69728, Note_on_c, 0, 62, 0
2, 69732, Note_on_c, 0, 40, 57
2, 69749, Note_on_c, 0, 62, 56
2, 69749, Note_on_c, 0, 74, 58
2, 69755, Control_c, 0, 64, 0
2, 69759, Note_on_c, 0, 41, 54
2, 69772, Note_on_c, 0, 74, 0
2, 69773, Note_on_c, 0, 62, 0
2, 69783, Note_on_c, 0, 40, 0
2, 69794, Note_on_c, 0, 74, 58
2, 69795, Note_on_c, 0, 62, 50
2, 69796, Note_on_c, 0, 43, 49
2, 69817, Note_on_c, 0, 74, 0
2, 69818, Note_on_c, 0, 62, 0
2, 69828, Note_on_c, 0, 41, 0
2, 69831, Note_on_c, 0, 45, 49
2, 69846, Note_on_c, 0, 43, 0
2, 69848, Note_on_c, 0, 74, 58
2, 69849, Note_on_c, 0, 62, 52
2, 69872, Note_on_c, 0, 62, 0
2, 69872, Note_on_c, 0, 74, 0
2, 69885, Note_on_c, 0, 46, 54
2, 69890, Note_on_c, 0, 45, 0
2, 69902, Note_on_c, 0, 62, 56
2, 69902, Note_on_c, 0, 74, 58
2, 69925, Note_on_c, 0, 74, 0
2, 69926, Note_on_c, 0, 62, 0
2, 69931, Note_on_c, 0, 45, 51
2, 69946, Note_on_c, 0, 46, 0
2, 69957, Note_on_c, 0, 62, 54
2, 69957, Note_on_c, 0, 74, 58
2, 69971, Note_on_c, 0, 45, 0
2, 69980, Note_on_c, 0, 74, 0
2, 69981, Note_on_c, 0, 62, 0
2, 69982, Note_on_c, 0, 38, 0
2, 70011, Note_on_c, 0, 62, 57
2, 70011, Note_on_c, 0, 74, 58
2, 70034, Note_on_c, 0, 74, 0
2, 70035, Note_on_c, 0, 62, 0
2, 70057, Note_on_c, 0, 74, 58
2, 70058, Note_on_c, 0, 62, 57
2, 70077, Note_on_c, 0, 41, 57
2, 70080, Note_on_c, 0, 74, 0
2, 70082, Note_on_c, 0, 62, 0
2, 70102, Note_on_c, 0, 74, 57
2, 70103, Note_on_c, 0, 62, 57
2, 70126, Note_on_c, 0, 74, 0
2, 70127, Note_on_c, 0, 62, 0
2, 70148, Note_on_c, 0, 62, 57
2, 70149, Note_on_c, 0, 74, 58
2, 70171, Note_on_c, 0, 74, 0
2, 70173, Note_on_c, 0, 41, 0
2, 70181, Note_on_c, 0, 62, 0
2, 70201, Note_on_c, 0, 62, 57
2, 70201, Note_on_c, 0, 74, 58
2, 70224, Note_on_c, 0, 74, 0
2, 70224, Note_on_c, 0, 62, 0
2, 70245, Note_on_c, 0, 50, 57
2, 70246, Note_on_c, 0, 38, 57
2, 70253, Note_on_c, 0, 62, 57
2, 70254, Note_on_c, 0, 74, 58
2, 70264, Control_c, 0, 64, 127
2, 70277, Note_on_c, 0, 74, 0
2, 70277, Note_on_c, 0, 62, 0
2, 70307, Note_on_c, 0, 62, 57
2, 70307, Note_on_c, 0, 74, 58
2, 70323, Note_on_c, 0, 38, 0
2, 70330, Note_on_c, 0, 74, 0
2, 70331, Note_on_c, 0, 62, 0
2, 70353, Note_on_c, 0, 62, 58
2, 70353, Note_on_c, 0, 74, 60
2, 70376, Note_on_c, 0, 74, 0
2, 70376, Note_on_c, 0, 50, 0
2, 70377, Note_on_c, 0, 62, 0
2, 70396, Control_c, 0, 67, 0
2, 70398, Note_on_c, 0, 62, 60
2, 70399, Note_on_c, 0, 74, 60
2, 70422, Note_on_c, 0, 74, 0
2, 70423, Note_on_c, 0, 62, 0
2, 70452, Note_on_c, 0, 62, 57
2, 70452, Note_on_c, 0, 74, 56
2, 70475, Note_on_c, 0, 74, 0
2, 70475, Note_on_c, 0, 62, 0
2, 70497, Note_on_c, 0, 62, 53
2, 70498, Note_on_c, 0, 74, 54
2, 70520, Note_on_c, 0, 74, 0
2, 70521, Note_on_c, 0, 62, 0
2, 70542, Note_on_c, 0, 62, 56
2, 70543, Note_on_c, 0, 74, 59
2, 70583, Note_on_c, 0, 74, 0
2, 70584, Note_on_c, 0, 62, 0
2, 70605, Note_on_c, 0, 74, 61
2, 70606, Note_on_c, 0, 62, 60
2, 70629, Note_on_c, 0, 62, 0
2, 70629, Note_on_c, 0, 74, 0
2, 70660, Note_on_c, 0, 50, 60
2, 70660, Note_on_c, 0, 62, 60
2, 70668, Note_on_c, 0, 74, 62
2, 70670, Note_on_c, 0, 86, 63
2, 70683, Note_on_c, 0, 62, 0
2, 70691, Note_on_c, 0, 50, 0
2, 70714, Note_on_c, 0, 50, 60
2, 70714, Note_on_c, 0, 62, 60
2, 70737, Note_on_c, 0, 50, 0
2, 70738, Note_on_c, 0, 62, 0
2, 70766, Note_on_c, 0, 50, 60
2, 70766, Note_on_c, 0, 62, 60
2, 70789, Note_on_c, 0, 62, 0
2, 70790, Note_on_c, 0, 50, 0
2, 70816, Note_on_c, 0, 74, 0
2, 70835, Note_on_c, 0, 86, 0
2, 70835, Control_c, 0, 64, 0
2, 70857, Note_on_c, 0, 27, 60
2, 70938, Note_on_c, 0, 75, 64
2, 70938, Note_on_c, 0, 87, 79
2, 70947, Note_on_c, 0, 39, 68
2, 70955, Control_c, 0, 64, 127
2, 70960, Note_on_c, 0, 27, 0
2, 70970, Note_on_c, 0, 39, 0
2, 70979, Note_on_c, 0, 87, 0
2, 70997, Note_on_c, 0, 75, 0
2, 71062, Note_on_c, 0, 55, 75
2, 71062, Note_on_c, 0, 67, 78
2, 71063, Note_on_c, 0, 58, 77
2, 71063, Note_on_c, 0, 63, 78
2, 71063, Note_on_c, 0, 79, 79
2, 71064, Note_on_c, 0, 75, 78
2, 71078, Note_on_c, 0, 75, 0
2, 71078, Note_on_c, 0, 79, 0
2, 71087, Note_on_c, 0, 55, 0
2, 71087, Note_on_c, 0, 58, 0
2, 71087, Note_on_c, 0, 67, 0
2, 71088, Note_on_c, 0, 63, 0
2, 71109, Note_on_c, 0, 70, 76
2, 71110, Note_on_c, 0, 58, 73
2, 71110, Note_on_c, 0, 63, 72
2, 71110, Note_on_c, 0, 79, 74
2, 71111, Note_on_c, 0, 75, 73
2, 71133, Note_on_c, 0, 70, 0
2, 71134, Note_on_c, 0, 79, 0
2, 71134, Note_on_c, 0, 58, 0
2, 71134, Note_on_c, 0, 63, 0
2, 71143, Note_on_c, 0, 75, 0
2, 71155, Note_on_c, 0, 55, 68
2, 71155, Note_on_c, 0, 67, 66
2, 71156, Note_on_c, 0, 58, 67
2, 71157, Note_on_c, 0, 63, 66
2, 71178, Note_on_c, 0, 67, 0
2, 71179, Note_on_c, 0, 55, 0
2, 71179, Note_on_c, 0, 58, 0
2, 71189, Note_on_c, 0, 63, 0
2, 71210, Note_on_c, 0, 55, 61
2, 71210, Note_on_c, 0, 67, 62
2, 71211, Note_on_c, 0, 58, 60
2, 71211, Note_on_c, 0, 63, 60
2, 71234, Note_on_c, 0, 58, 0
2, 71234, Note_on_c, 0, 55, 0
2, 71235, Note_on_c, 0, 63, 0
2, 71256, Note_on_c, 0, 55, 60
2, 71256, Note_on_c, 0, 70, 65
2, 71257, Note_on_c, 0, 58, 60
2, 71257, Note_on_c, 0, 63, 60
2, 71257, Note_on_c, 0, 82, 68
2, 71279, Note_on_c, 0, 70, 0
2, 71279, Note_on_c, 0, 67, 0
2, 71280, Note_on_c, 0, 58, 0
2, 71280, Note_on_c, 0, 82, 0
2, 71281, Note_on_c, 0, 55, 0
2, 71281, Note_on_c, 0, 63, 0
2, 71301, Note_on_c, 0, 67, 63
2, 71302, Note_on_c, 0, 55, 60
2, 71302, Note_on_c, 0, 70, 66
2, 71303, Note_on_c, 0, 58, 60
2, 71303, Note_on_c, 0, 63, 60
2, 71303, Note_on_c, 0, 82, 69
2, 71325, Note_on_c, 0, 67, 0
2, 71326, Note_on_c, 0, 63, 0
2, 71326, Note_on_c, 0, 58, 0
2, 71326, Note_on_c, 0, 55, 0
2, 71342, Note_on_c, 0, 70, 0
2, 71363, Note_on_c, 0, 67, 59
2, 71364, Note_on_c, 0, 55, 60
2, 71364, Note_on_c, 0, 58, 60
2, 71364, Note_on_c, 0, 63, 59
2, 71364, Note_on_c, 0, 75, 61
2, 71364, Note_on_c, 0, 79, 60
2, 71379, Note_on_c, 0, 82, 0
2, 71387, Note_on_c, 0, 58, 0
2, 71387, Note_on_c, 0, 67, 0
2, 71387, Note_on_c, 0, 55, 0
2, 71388, Note_on_c, 0, 79, 0
2, 71388, Note_on_c, 0, 63, 0
2, 71388, Note_on_c, 0, 75, 0
2, 71410, Note_on_c, 0, 55, 60
2, 71410, Note_on_c, 0, 67, 60
2, 71411, Note_on_c, 0, 58, 60
2, 71411, Note_on_c, 0, 63, 60
2, 71411, Note_on_c, 0, 79, 61
2, 71411, Note_on_c, 0, 75, 60
2, 71434, Note_on_c, 0, 58, 0
2, 71434, Note_on_c, 0, 55, 0
2, 71435, Note_on_c, 0, 63, 0
2, 71435, Note_on_c, 0, 79, 0
2, 71435, Note_on_c, 0, 75, 0
2, 71464, Note_on_c, 0, 55, 60
2, 71465, Note_on_c, 0, 58, 60
2, 71465, Note_on_c, 0, 63, 60
2, 71465, Note_on_c, 0, 75, 64
2, 71466, Note_on_c, 0, 87, 67
2, 71487, Note_on_c, 0, 55, 0
2, 71487, Note_on_c, 0, 67, 0
2, 71488, Note_on_c, 0, 63, 0
2, 71488, Note_on_c, 0, 58, 0
2, 71509, Note_on_c, 0, 67, 60
2, 71509, Note_on_c, 0, 70, 61
2, 71510, Note_on_c, 0, 55, 60
2, 71511, Note_on_c, 0, 58, 60
2, 71511, Note_on_c, 0, 63, 60
2, 71533, Note_on_c, 0, 70, 0
2, 71533, Note_on_c, 0, 67, 0
2, 71534, Note_on_c, 0, 58, 0
2, 71534, Note_on_c, 0, 55, 0
2, 71534, Note_on_c, 0, 63, 0
2, 71555, Note_on_c, 0, 67, 60
2, 71555, Note_on_c, 0, 70, 61
2, 71556, Note_on_c, 0, 55, 60
2, 71556, Note_on_c, 0, 58, 60
2, 71556, Note_on_c, 0, 63, 59
2, 71579, Note_on_c, 0, 55, 0
2, 71579, Note_on_c, 0, 70, 0
2, 71579, Note_on_c, 0, 67, 0
2, 71580, Note_on_c, 0, 58, 0
2, 71580, Note_on_c, 0, 63, 0
2, 71589, Note_on_c, 0, 75, 0
2, 71626, Note_on_c, 0, 87, 0
2, 71670, Control_c, 0, 64, 0
2, 71674, Note_on_c, 0, 39, 69
2, 71682, Note_on_c, 0, 51, 70
2, 71709, Note_on_c, 0, 74, 76
2, 71710, Note_on_c, 0, 86, 79
2, 71791, Control_c, 0, 64, 127
2, 71798, Note_on_c, 0, 59, 74
2, 71798, Note_on_c, 0, 62, 73
2, 71798, Note_on_c, 0, 68, 73
2, 71799, Note_on_c, 0, 80, 73
2, 71800, Note_on_c, 0, 56, 72
2, 71800, Note_on_c, 0, 83, 75
2, 71821, Note_on_c, 0, 74, 0
2, 71822, Note_on_c, 0, 59, 0
2, 71822, Note_on_c, 0, 68, 0
2, 71823, Note_on_c, 0, 56, 0
2, 71823, Note_on_c, 0, 62, 0
2, 71823, Note_on_c, 0, 83, 0
2, 71823, Note_on_c, 0, 51, 0
2, 71824, Note_on_c, 0, 39, 0
2, 71824, Note_on_c, 0, 80, 0
2, 71825, Note_on_c, 0, 86, 0
2, 71844, Note_on_c, 0, 59, 68
2, 71845, Note_on_c, 0, 62, 67
2, 71845, Note_on_c, 0, 68, 66
2, 71846, Note_on_c, 0, 56, 66
2, 71846, Note_on_c, 0, 80, 66
2, 71846, Note_on_c, 0, 83, 67
2, 71868, Note_on_c, 0, 59, 0
2, 71869, Note_on_c, 0, 80, 0
2, 71869, Note_on_c, 0, 62, 0
2, 71870, Note_on_c, 0, 56, 0
2, 71870, Note_on_c, 0, 83, 0
2, 71888, Control_c, 0, 64, 0
2, 71891, Note_on_c, 0, 59, 64
2, 71891, Note_on_c, 0, 62, 64
2, 71891, Note_on_c, 0, 74, 68
2, 71891, Note_on_c, 0, 56, 63
2, 71892, Note_on_c, 0, 86, 71
2, 71914, Note_on_c, 0, 62, 0
2, 71915, Note_on_c, 0, 56, 0
2, 71915, Note_on_c, 0, 68, 0
2, 71915, Note_on_c, 0, 59, 0
2, 71933, Note_on_c, 0, 86, 0
2, 71940, Note_on_c, 0, 74, 0
2, 71943, Note_on_c, 0, 62, 64
2, 71944, Note_on_c, 0, 59, 64
2, 71944, Note_on_c, 0, 68, 64
2, 71945, Control_c, 0, 64, 127
2, 71945, Note_on_c, 0, 56, 64
2, 71967, Note_on_c, 0, 59, 0
2, 71968, Note_on_c, 0, 62, 0
2, 71969, Note_on_c, 0, 56, 0
2, 71990, Note_on_c, 0, 59, 66
2, 71990, Note_on_c, 0, 62, 67
2, 71991, Note_on_c, 0, 56, 68
2, 71991, Note_on_c, 0, 75, 70
2, 71992, Note_on_c, 0, 87, 73
2, 72013, Note_on_c, 0, 59, 0
2, 72014, Note_on_c, 0, 75, 0
2, 72014, Note_on_c, 0, 56, 0
2, 72014, Note_on_c, 0, 62, 0
2, 72015, Note_on_c, 0, 87, 0
2, 72044, Note_on_c, 0, 59, 68
2, 72044, Note_on_c, 0, 62, 68
2, 72045, Note_on_c, 0, 56, 67
2, 72045, Note_on_c, 0, 77, 72
2, 72046, Note_on_c, 0, 89, 75
2, 72067, Note_on_c, 0, 59, 0
2, 72067, Note_on_c, 0, 68, 0
2, 72068, Note_on_c, 0, 62, 0
2, 72069, Note_on_c, 0, 56, 0
2, 72070, Note_on_c, 0, 89, 0
2, 72087, Note_on_c, 0, 77, 0
2, 72107, Note_on_c, 0, 62, 68
2, 72108, Note_on_c, 0, 59, 68
2, 72108, Note_on_c, 0, 68, 68
2, 72109, Note_on_c, 0, 56, 68
2, 72109, Note_on_c, 0, 80, 69
2, 72109, Note_on_c, 0, 83, 70
2, 72123, Note_on_c, 0, 80, 0
2, 72124, Note_on_c, 0, 83, 0
2, 72131, Note_on_c, 0, 62, 0
2, 72131, Note_on_c, 0, 68, 0
2, 72131, Note_on_c, 0, 59, 0
2, 72132, Note_on_c, 0, 56, 0
2, 72145, Note_on_c, 0, 80, 66
2, 72146, Note_on_c, 0, 83, 67
2, 72154, Note_on_c, 0, 59, 64
2, 72154, Note_on_c, 0, 62, 63
2, 72154, Note_on_c, 0, 68, 63
2, 72155, Note_on_c, 0, 56, 62
2, 72168, Note_on_c, 0, 83, 0
2, 72176, Note_on_c, 0, 59, 0
2, 72177, Note_on_c, 0, 62, 0
2, 72177, Note_on_c, 0, 80, 0
2, 72177, Note_on_c, 0, 56, 0
2, 72197, Note_on_c, 0, 62, 59
2, 72198, Note_on_c, 0, 59, 60
2, 72199, Note_on_c, 0, 56, 60
2, 72199, Note_on_c, 0, 75, 65
2, 72200, Note_on_c, 0, 87, 68
2, 72221, Note_on_c, 0, 59, 0
2, 72221, Note_on_c, 0, 68, 0
2, 72222, Note_on_c, 0, 62, 0
2, 72223, Note_on_c, 0, 56, 0
2, 72244, Note_on_c, 0, 59, 60
2, 72244, Note_on_c, 0, 62, 60
2, 72244, Note_on_c, 0, 68, 62
2, 72245, Note_on_c, 0, 56, 59
2, 72250, Note_on_c, 0, 75, 0
2, 72251, Note_on_c, 0, 87, 0
2, 72267, Note_on_c, 0, 59, 0
2, 72268, Note_on_c, 0, 62, 0
2, 72268, Note_on_c, 0, 56, 0
2, 72298, Note_on_c, 0, 74, 64
2, 72299, Note_on_c, 0, 59, 60
2, 72299, Note_on_c, 0, 62, 60
2, 72299, Note_on_c, 0, 56, 59
2, 72299, Note_on_c, 0, 86, 69
2, 72322, Note_on_c, 0, 62, 0
2, 72322, Note_on_c, 0, 59, 0
2, 72322, Note_on_c, 0, 68, 0
2, 72340, Note_on_c, 0, 56, 0
2, 72374, Note_on_c, 0, 74, 0
2, 72375, Note_on_c, 0, 86, 0
2, 72420, Control_c, 0, 64, 0
2, 72423, Note_on_c, 0, 39, 70
2, 72423, Note_on_c, 0, 51, 71
2, 72433, Note_on_c, 0, 75, 75
2, 72434, Note_on_c, 0, 87, 78
2, 72513, Note_on_c, 0, 58, 74
2, 72520, Note_on_c, 0, 67, 79
2, 72521, Note_on_c, 0, 63, 78
2, 72522, Control_c, 0, 64, 127
2, 72530, Note_on_c, 0, 70, 79
2, 72531, Note_on_c, 0, 55, 76
2, 72531, Note_on_c, 0, 82, 80
2, 72537, Note_on_c, 0, 58, 0
2, 72544, Note_on_c, 0, 67, 0
2, 72545, Note_on_c, 0, 63, 0
2, 72553, Note_on_c, 0, 70, 0
2, 72554, Note_on_c, 0, 82, 0
2, 72555, Note_on_c, 0, 75, 0
2, 72563, Note_on_c, 0, 51, 0
2, 72564, Note_on_c, 0, 39, 0
2, 72566, Note_on_c, 0, 67, 74
2, 72567, Note_on_c, 0, 58, 78
2, 72567, Note_on_c, 0, 63, 79
2, 72573, Note_on_c, 0, 87, 0
2, 72575, Note_on_c, 0, 70, 77
2, 72576, Note_on_c, 0, 82, 80
2, 72577, Note_on_c, 0, 75, 79
2, 72589, Note_on_c, 0, 67, 0
2, 72590, Note_on_c, 0, 55, 0
2, 72591, Note_on_c, 0, 58, 0
2, 72591, Note_on_c, 0, 63, 0
2, 72600, Note_on_c, 0, 70, 0
2, 72601, Note_on_c, 0, 82, 0
2, 72601, Note_on_c, 0, 75, 0
2, 72612, Note_on_c, 0, 67, 83
2, 72613, Note_on_c, 0, 55, 82
2, 72614, Note_on_c, 0, 58, 82
2, 72614, Note_on_c, 0, 63, 82
2, 72623, Note_on_c, 0, 70, 83
2, 72623, Note_on_c, 0, 82, 84
2, 72624, Note_on_c, 0, 75, 81
2, 72637, Note_on_c, 0, 55, 0
2, 72637, Note_on_c, 0, 67, 0
2, 72638, Note_on_c, 0, 63, 0
2, 72638, Note_on_c, 0, 58, 0
2, 72647, Note_on_c, 0, 70, 0
2, 72648, Note_on_c, 0, 82, 0
2, 72648, Note_on_c, 0, 75, 0
2, 72659, Note_on_c, 0, 67, 75
2, 72660, Note_on_c, 0, 55, 78
2, 72661, Note_on_c, 0, 58, 77
2, 72661, Note_on_c, 0, 63, 76
2, 72670, Note_on_c, 0, 70, 78
2, 72671, Note_on_c, 0, 82, 81
2, 72672, Note_on_c, 0, 75, 80
2, 72685, Note_on_c, 0, 55, 0
2, 72685, Note_on_c, 0, 67, 0
2, 72686, Note_on_c, 0, 63, 0
2, 72686, Note_on_c, 0, 58, 0
2, 72694, Note_on_c, 0, 70, 0
2, 72695, Note_on_c, 0, 82, 0
2, 72696, Note_on_c, 0, 75, 0
2, 72707, Note_on_c, 0, 67, 85
2, 72708, Note_on_c, 0, 55, 84
2, 72708, Note_on_c, 0, 63, 85
2, 72709, Note_on_c, 0, 58, 86
2, 72718, Note_on_c, 0, 70, 87
2, 72718, Note_on_c, 0, 82, 90
2, 72719, Note_on_c, 0, 75, 89
2, 72732, Note_on_c, 0, 55, 0
2, 72732, Note_on_c, 0, 67, 0
2, 72733, Note_on_c, 0, 58, 0
2, 72733, Note_on_c, 0, 63, 0
2, 72742, Note_on_c, 0, 70, 0
2, 72743, Note_on_c, 0, 82, 0
2, 72744, Note_on_c, 0, 75, 0
2, 72763, Note_on_c, 0, 67, 88
2, 72764, Note_on_c, 0, 55, 87
2, 72764, Note_on_c, 0, 70, 88
2, 72765, Note_on_c, 0, 58, 86
2, 72765, Note_on_c, 0, 63, 85
2, 72765, Note_on_c, 0, 82, 89
2, 72766, Note_on_c, 0, 75, 86
2, 72787, Note_on_c, 0, 70, 0
2, 72788, Note_on_c, 0, 67, 0
2, 72788, Note_on_c, 0, 55, 0
2, 72789, Note_on_c, 0, 63, 0
2, 72789, Note_on_c, 0, 58, 0
2, 72789, Note_on_c, 0, 82, 0
2, 72789, Note_on_c, 0, 75, 0
2, 72810, Note_on_c, 0, 55, 81
2, 72810, Note_on_c, 0, 67, 80
2, 72811, Note_on_c, 0, 58, 80
2, 72811, Note_on_c, 0, 63, 79
2, 72811, Note_on_c, 0, 82, 82
2, 72812, Note_on_c, 0, 75, 79
2, 72833, Note_on_c, 0, 67, 0
2, 72834, Note_on_c, 0, 55, 0
2, 72834, Note_on_c, 0, 58, 0
2, 72835, Note_on_c, 0, 63, 0
2, 72835, Note_on_c, 0, 82, 0
2, 72835, Note_on_c, 0, 75, 0
2, 72855, Note_on_c, 0, 67, 74
2, 72856, Note_on_c, 0, 55, 73
2, 72857, Note_on_c, 0, 58, 72
2, 72857, Note_on_c, 0, 63, 71
2, 72857, Note_on_c, 0, 82, 75
2, 72858, Note_on_c, 0, 75, 72
2, 72879, Note_on_c, 0, 67, 0
2, 72880, Note_on_c, 0, 82, 0
2, 72880, Note_on_c, 0, 63, 0
2, 72880, Note_on_c, 0, 55, 0
2, 72880, Note_on_c, 0, 58, 0
2, 72881, Note_on_c, 0, 75, 0
2, 72901, Note_on_c, 0, 67, 70
2, 72902, Note_on_c, 0, 55, 68
2, 72902, Note_on_c, 0, 58, 68
2, 72903, Note_on_c, 0, 63, 67
2, 72912, Note_on_c, 0, 74, 73
2, 72913, Note_on_c, 0, 86, 76
2, 72925, Note_on_c, 0, 55, 0
2, 72925, Note_on_c, 0, 67, 0
2, 72926, Note_on_c, 0, 63, 0
2, 72926, Note_on_c, 0, 58, 0
2, 72957, Note_on_c, 0, 67, 71
2, 72958, Note_on_c, 0, 55, 68
2, 72959, Note_on_c, 0, 58, 68
2, 72959, Note_on_c, 0, 63, 68
2, 72968, Note_on_c, 0, 79, 70
2, 72968, Note_on_c, 0, 82, 71
2, 72974, Note_on_c, 0, 86, 0
2, 72982, Note_on_c, 0, 58, 0
2, 72982, Note_on_c, 0, 55, 0
2, 72982, Note_on_c, 0, 67, 0
2, 72982, Note_on_c, 0, 63, 0
2, 72991, Note_on_c, 0, 82, 0
2, 72992, Note_on_c, 0, 79, 0
2, 73004, Note_on_c, 0, 67, 68
2, 73005, Note_on_c, 0, 55, 68
2, 73005, Note_on_c, 0, 63, 68
2, 73006, Note_on_c, 0, 58, 67
2, 73015, Note_on_c, 0, 82, 71
2, 73016, Note_on_c, 0, 79, 69
2, 73028, Note_on_c, 0, 67, 0
2, 73029, Note_on_c, 0, 74, 0
2, 73029, Note_on_c, 0, 55, 0
2, 73030, Note_on_c, 0, 58, 0
2, 73030, Note_on_c, 0, 63, 0
2, 73047, Note_on_c, 0, 79, 0
2, 73057, Note_on_c, 0, 82, 0
2, 73093, Control_c, 0, 64, 0
2, 73122, Note_on_c, 0, 55, 74
2, 73123, Note_on_c, 0, 43, 76
2, 73131, Note_on_c, 0, 73, 77
2, 73132, Note_on_c, 0, 85, 80
2, 73181, Note_on_c, 0, 73, 0
2, 73194, Control_c, 0, 64, 127
2, 73199, Note_on_c, 0, 55, 0
2, 73209, Note_on_c, 0, 43, 0
2, 73211, Note_on_c, 0, 61, 85
2, 73211, Note_on_c, 0, 64, 89
2, 73211, Note_on_c, 0, 67, 88
2, 73212, Note_on_c, 0, 70, 90
2, 73212, Note_on_c, 0, 73, 90
2, 73213, Note_on_c, 0, 58, 86
2, 73218, Note_on_c, 0, 85, 0
2, 73235, Note_on_c, 0, 70, 0
2, 73235, Note_on_c, 0, 61, 0
2, 73235, Note_on_c, 0, 67, 0
2, 73235, Note_on_c, 0, 64, 0
2, 73236, Note_on_c, 0, 58, 0
2, 73236, Note_on_c, 0, 73, 0
2, 73258, Note_on_c, 0, 61, 85
2, 73258, Note_on_c, 0, 64, 84
2, 73258, Note_on_c, 0, 67, 83
2, 73258, Note_on_c, 0, 70, 83
2, 73259, Note_on_c, 0, 58, 84
2, 73259, Note_on_c, 0, 73, 82
2, 73281, Note_on_c, 0, 70, 0
2, 73281, Note_on_c, 0, 67, 0
2, 73281, Note_on_c, 0, 64, 0
2, 73282, Note_on_c, 0, 61, 0
2, 73282, Note_on_c, 0, 58, 0
2, 73282, Note_on_c, 0, 73, 0
2, 73303, Note_on_c, 0, 61, 80
2, 73303, Note_on_c, 0, 64, 76
2, 73303, Note_on_c, 0, 67, 75
2, 73304, Note_on_c, 0, 70, 75
2, 73304, Note_on_c, 0, 73, 74
2, 73305, Note_on_c, 0, 58, 78
2, 73327, Note_on_c, 0, 73, 0
2, 73327, Note_on_c, 0, 70, 0
2, 73327, Note_on_c, 0, 67, 0
2, 73327, Note_on_c, 0, 61, 0
2, 73327, Note_on_c, 0, 64, 0
2, 73328, Note_on_c, 0, 58, 0
2, 73347, Note_on_c, 0, 61, 74
2, 73347, Note_on_c, 0, 64, 68
2, 73348, Note_on_c, 0, 67, 67
2, 73348, Note_on_c, 0, 70, 69
2, 73348, Note_on_c, 0, 73, 68
2, 73349, Note_on_c, 0, 58, 72
2, 73371, Note_on_c, 0, 73, 0
2, 73371, Note_on_c, 0, 70, 0
2, 73371, Note_on_c, 0, 67, 0
2, 73371, Note_on_c, 0, 61, 0
2, 73371, Note_on_c, 0, 64, 0
2, 73372, Note_on_c, 0, 58, 0
2, 73392, Note_on_c, 0, 61, 69
2, 73392, Note_on_c, 0, 64, 68
2, 73392, Note_on_c, 0, 67, 67
2, 73393, Note_on_c, 0, 70, 69
2, 73393, Note_on_c, 0, 73, 69
2, 73394, Note_on_c, 0, 58, 68
2, 73415, Note_on_c, 0, 67, 0
2, 73415, Note_on_c, 0, 64, 0
2, 73416, Note_on_c, 0, 70, 0
2, 73416, Note_on_c, 0, 61, 0
2, 73416, Note_on_c, 0, 73, 0
2, 73417, Note_on_c, 0, 58, 0
2, 73447, Note_on_c, 0, 55, 70
2, 73447, Note_on_c, 0, 73, 72
2, 73448, Note_on_c, 0, 85, 75
2, 73449, Note_on_c, 0, 43, 73
2, 73470, Note_on_c, 0, 73, 0
2, 73471, Note_on_c, 0, 55, 0
2, 73471, Note_on_c, 0, 85, 0
2, 73472, Note_on_c, 0, 43, 0
2, 73500, Note_on_c, 0, 64, 67
2, 73500, Note_on_c, 0, 67, 68
2, 73500, Note_on_c, 0, 70, 68
2, 73500, Note_on_c, 0, 73, 69
2, 73509, Note_on_c, 0, 61, 69
2, 73511, Note_on_c, 0, 58, 68
2, 73523, Note_on_c, 0, 73, 0
2, 73523, Note_on_c, 0, 70, 0
2, 73523, Note_on_c, 0, 64, 0
2, 73523, Note_on_c, 0, 67, 0
2, 73532, Note_on_c, 0, 61, 0
2, 73533, Note_on_c, 0, 58, 0
2, 73545, Note_on_c, 0, 64, 68
2, 73545, Note_on_c, 0, 70, 69
2, 73545, Note_on_c, 0, 73, 68
2, 73546, Note_on_c, 0, 67, 68
2, 73554, Note_on_c, 0, 61, 68
2, 73555, Note_on_c, 0, 58, 68
2, 73568, Note_on_c, 0, 67, 0
2, 73568, Note_on_c, 0, 70, 0
2, 73568, Note_on_c, 0, 64, 0
2, 73569, Note_on_c, 0, 73, 0
2, 73577, Note_on_c, 0, 61, 0
2, 73578, Note_on_c, 0, 58, 0
2, 73600, Note_on_c, 0, 55, 70
2, 73600, Note_on_c, 0, 73, 74
2, 73600, Note_on_c, 0, 85, 77
2, 73601, Note_on_c, 0, 43, 73
2, 73622, Note_on_c, 0, 73, 0
2, 73623, Note_on_c, 0, 55, 0
2, 73624, Note_on_c, 0, 85, 0
2, 73624, Note_on_c, 0, 43, 0
2, 73653, Note_on_c, 0, 61, 69
2, 73653, Note_on_c, 0, 64, 68
2, 73653, Note_on_c, 0, 67, 67
2, 73653, Note_on_c, 0, 70, 69
2, 73653, Note_on_c, 0, 73, 68
2, 73654, Note_on_c, 0, 58, 68
2, 73676, Note_on_c, 0, 73, 0
2, 73676, Note_on_c, 0, 70, 0
2, 73676, Note_on_c, 0, 67, 0
2, 73676, Note_on_c, 0, 61, 0
2, 73676, Note_on_c, 0, 64, 0
2, 73677, Note_on_c, 0, 58, 0
2, 73697, Note_on_c, 0, 67, 68
2, 73698, Note_on_c, 0, 61, 68
2, 73698, Note_on_c, 0, 64, 68
2, 73698, Note_on_c, 0, 70, 68
2, 73698, Note_on_c, 0, 73, 69
2, 73709, Note_on_c, 0, 58, 68
2, 73721, Note_on_c, 0, 70, 0
2, 73721, Note_on_c, 0, 64, 0
2, 73721, Note_on_c, 0, 67, 0
2, 73722, Note_on_c, 0, 61, 0
2, 73722, Note_on_c, 0, 73, 0
2, 73723, Control_c, 0, 64, 0
2, 73732, Note_on_c, 0, 58, 0
2, 73779, Note_on_c, 0, 74, 75
2, 73782, Note_on_c, 0, 86, 85
2, 73789, Note_on_c, 0, 44, 82
2, 73789, Note_on_c, 0, 56, 83
2, 73825, Control_c, 0, 64, 127
2, 73848, Note_on_c, 0, 56, 0
2, 73865, Note_on_c, 0, 86, 0
2, 73868, Note_on_c, 0, 59, 77
2, 73868, Note_on_c, 0, 62, 76
2, 73868, Note_on_c, 0, 65, 77
2, 73869, Note_on_c, 0, 68, 76
2, 73870, Note_on_c, 0, 56, 75
2, 73870, Note_on_c, 0, 71, 76
2, 73892, Note_on_c, 0, 68, 0
2, 73892, Note_on_c, 0, 62, 0
2, 73892, Note_on_c, 0, 59, 0
2, 73892, Note_on_c, 0, 65, 0
2, 73893, Note_on_c, 0, 56, 0
2, 73893, Note_on_c, 0, 71, 0
2, 73893, Note_on_c, 0, 44, 0
2, 73910, Note_on_c, 0, 74, 0
2, 73914, Note_on_c, 0, 59, 69
2, 73914, Note_on_c, 0, 62, 68
2, 73914, Note_on_c, 0, 65, 69
2, 73914, Note_on_c, 0, 68, 68
2, 73915, Note_on_c, 0, 56, 67
2, 73915, Note_on_c, 0, 71, 69
2, 73937, Note_on_c, 0, 65, 0
2, 73938, Note_on_c, 0, 68, 0
2, 73938, Note_on_c, 0, 59, 0
2, 73938, Note_on_c, 0, 62, 0
2, 73939, Note_on_c, 0, 71, 0
2, 73939, Note_on_c, 0, 56, 0
2, 73959, Note_on_c, 0, 62, 68
2, 73959, Note_on_c, 0, 65, 68
2, 73960, Note_on_c, 0, 59, 68
2, 73960, Note_on_c, 0, 68, 68
2, 73961, Note_on_c, 0, 56, 68
2, 73962, Note_on_c, 0, 71, 69
2, 73984, Note_on_c, 0, 68, 0
2, 73984, Note_on_c, 0, 59, 0
2, 73984, Note_on_c, 0, 62, 0
2, 73984, Note_on_c, 0, 65, 0
2, 73985, Note_on_c, 0, 71, 0
2, 73985, Note_on_c, 0, 56, 0
2, 74006, Note_on_c, 0, 59, 68
2, 74006, Note_on_c, 0, 62, 68
2, 74006, Note_on_c, 0, 65, 68
2, 74006, Note_on_c, 0, 68, 67
2, 74007, Note_on_c, 0, 56, 67
2, 74007, Note_on_c, 0, 71, 69
2, 74028, Note_on_c, 0, 65, 0
2, 74029, Note_on_c, 0, 68, 0
2, 74029, Note_on_c, 0, 59, 0
2, 74030, Note_on_c, 0, 62, 0
2, 74030, Note_on_c, 0, 56, 0
2, 74030, Note_on_c, 0, 71, 0
2, 74051, Note_on_c, 0, 62, 67
2, 74051, Note_on_c, 0, 65, 68
2, 74052, Note_on_c, 0, 59, 68
2, 74052, Note_on_c, 0, 68, 68
2, 74053, Note_on_c, 0, 56, 68
2, 74053, Note_on_c, 0, 71, 69
2, 74075, Note_on_c, 0, 68, 0
2, 74075, Note_on_c, 0, 59, 0
2, 74075, Note_on_c, 0, 62, 0
2, 74075, Note_on_c, 0, 65, 0
2, 74076, Note_on_c, 0, 71, 0
2, 74076, Note_on_c, 0, 56, 0
2, 74089, Note_on_c, 0, 74, 72
2, 74090, Note_on_c, 0, 44, 74
2, 74090, Note_on_c, 0, 56, 75
2, 74091, Note_on_c, 0, 86, 76
2, 74112, Note_on_c, 0, 74, 0
2, 74113, Note_on_c, 0, 44, 0
2, 74113, Note_on_c, 0, 56, 0
2, 74113, Note_on_c, 0, 86, 0
2, 74142, Note_on_c, 0, 65, 82
2, 74143, Note_on_c, 0, 62, 81
2, 74144, Note_on_c, 0, 59, 82
2, 74144, Note_on_c, 0, 68, 84
2, 74145, Note_on_c, 0, 56, 83
2, 74145, Note_on_c, 0, 71, 86
2, 74166, Note_on_c, 0, 62, 0
2, 74166, Note_on_c, 0, 65, 0
2, 74167, Note_on_c, 0, 68, 0
2, 74167, Note_on_c, 0, 59, 0
2, 74168, Note_on_c, 0, 71, 0
2, 74168, Note_on_c, 0, 56, 0
2, 74197, Note_on_c, 0, 65, 90
2, 74198, Note_on_c, 0, 59, 89
2, 74198, Note_on_c, 0, 62, 90
2, 74198, Note_on_c, 0, 68, 91
2, 74199, Note_on_c, 0, 56, 91
2, 74199, Note_on_c, 0, 71, 93
2, 74221, Note_on_c, 0, 68, 0
2, 74221, Note_on_c, 0, 65, 0
2, 74222, Note_on_c, 0, 56, 0
2, 74222, Note_on_c, 0, 59, 0
2, 74222, Note_on_c, 0, 71, 0
2, 74222, Note_on_c, 0, 62, 0
2, 74251, Note_on_c, 0, 62, 92
2, 74251, Note_on_c, 0, 65, 92
2, 74252, Note_on_c, 0, 71, 92
2, 74274, Note_on_c, 0, 65, 0
2, 74275, Note_on_c, 0, 62, 0
2, 74276, Note_on_c, 0, 71, 0
2, 74279, Note_on_c, 0, 59, 95
2, 74279, Note_on_c, 0, 68, 95
2, 74280, Note_on_c, 0, 56, 96
2, 74303, Note_on_c, 0, 68, 0
2, 74303, Note_on_c, 0, 59, 0
2, 74304, Note_on_c, 0, 56, 0
2, 74342, Note_on_c, 0, 68, 96
2, 74343, Note_on_c, 0, 44, 101
2, 74343, Note_on_c, 0, 80, 100
2, 74344, Note_on_c, 0, 32, 102
2, 74376, Note_on_c, 0, 32, 0
2, 74376, Note_on_c, 0, 44, 0
2, 74377, Control_c, 0, 64, 0
2, 74393, Note_on_c, 0, 68, 0
2, 74404, Note_on_c, 0, 80, 0
2, 74408, Note_on_c, 0, 33, 97
2, 74442, Note_on_c, 0, 81, 103
2, 74443, Note_on_c, 0, 69, 103
2, 74452, Note_on_c, 0, 45, 101
2, 74487, Control_c, 0, 64, 127
2, 74510, Note_on_c, 0, 69, 0
2, 74519, Note_on_c, 0, 45, 0
2, 74520, Note_on_c, 0, 81, 0
2, 74531, Note_on_c, 0, 33, 0
2, 74532, Note_on_c, 0, 57, 95
2, 74532, Note_on_c, 0, 65, 93
2, 74533, Note_on_c, 0, 50, 94
2, 74533, Note_on_c, 0, 53, 93
2, 74534, Note_on_c, 0, 69, 93
2, 74555, Note_on_c, 0, 65, 0
2, 74555, Note_on_c, 0, 57, 0
2, 74556, Note_on_c, 0, 53, 0
2, 74556, Note_on_c, 0, 50, 0
2, 74557, Note_on_c, 0, 69, 0
2, 74578, Note_on_c, 0, 62, 88
2, 74578, Note_on_c, 0, 65, 87
2, 74579, Note_on_c, 0, 50, 86
2, 74579, Note_on_c, 0, 57, 85
2, 74579, Note_on_c, 0, 53, 84
2, 74580, Note_on_c, 0, 69, 87
2, 74602, Note_on_c, 0, 57, 0
2, 74603, Note_on_c, 0, 53, 0
2, 74603, Note_on_c, 0, 50, 0
2, 74603, Note_on_c, 0, 62, 0
2, 74603, Note_on_c, 0, 65, 0
2, 74604, Note_on_c, 0, 69, 0
2, 74626, Note_on_c, 0, 57, 77
2, 74626, Note_on_c, 0, 62, 78
2, 74626, Note_on_c, 0, 65, 81
2, 74627, Note_on_c, 0, 50, 77
2, 74627, Note_on_c, 0, 53, 78
2, 74627, Note_on_c, 0, 69, 81
2, 74650, Note_on_c, 0, 65, 0
2, 74650, Note_on_c, 0, 57, 0
2, 74651, Note_on_c, 0, 50, 0
2, 74651, Note_on_c, 0, 62, 0
2, 74651, Note_on_c, 0, 53, 0
2, 74652, Note_on_c, 0, 69, 0
2, 74672, Note_on_c, 0, 65, 84
2, 74673, Note_on_c, 0, 50, 85
2, 74673, Note_on_c, 0, 53, 86
2, 74673, Note_on_c, 0, 57, 87
2, 74673, Note_on_c, 0, 62, 88
2, 74696, Note_on_c, 0, 57, 0
2, 74696, Note_on_c, 0, 65, 0
2, 74697, Note_on_c, 0, 50, 0
2, 74697, Note_on_c, 0, 53, 0
2, 74697, Note_on_c, 0, 62, 0
2, 74718, Note_on_c, 0, 57, 94
2, 74719, Note_on_c, 0, 50, 96
2, 74719, Note_on_c, 0, 53, 97
2, 74719, Note_on_c, 0, 62, 98
2, 74719, Note_on_c, 0, 65, 94
2, 74720, Note_on_c, 0, 69, 96
2, 74741, Note_on_c, 0, 65, 0
2, 74742, Note_on_c, 0, 53, 0
2, 74742, Note_on_c, 0, 57, 0
2, 74742, Note_on_c, 0, 50, 0
2, 74743, Note_on_c, 0, 62, 0
2, 74744, Note_on_c, 0, 69, 0
2, 74780, Control_c, 0, 64, 0
2, 74799, Note_on_c, 0, 81, 93
2, 74800, Note_on_c, 0, 45, 86
2, 74801, Note_on_c, 0, 33, 85
2, 74801, Note_on_c, 0, 69, 93
2, 74881, Control_c, 0, 64, 127
2, 74888, Note_on_c, 0, 62, 101
2, 74888, Note_on_c, 0, 64, 102
2, 74889, Note_on_c, 0, 52, 102
2, 74889, Note_on_c, 0, 57, 102
2, 74895, Note_on_c, 0, 33, 0
2, 74903, Note_on_c, 0, 81, 0
2, 74911, Note_on_c, 0, 57, 0
2, 74912, Note_on_c, 0, 62, 0
2, 74912, Note_on_c, 0, 64, 0
2, 74913, Note_on_c, 0, 52, 0
2, 74913, Note_on_c, 0, 45, 0
2, 74914, Note_on_c, 0, 69, 0
2, 74933, Note_on_c, 0, 57, 96
2, 74933, Note_on_c, 0, 62, 94
2, 74933, Note_on_c, 0, 64, 97
2, 74934, Note_on_c, 0, 52, 93
2, 74935, Note_on_c, 0, 45, 92
2, 74935, Note_on_c, 0, 69, 97
2, 74957, Note_on_c, 0, 52, 0
2, 74957, Note_on_c, 0, 64, 0
2, 74957, Note_on_c, 0, 57, 0
2, 74958, Note_on_c, 0, 62, 0
2, 74958, Note_on_c, 0, 45, 0
2, 74959, Note_on_c, 0, 69, 0
2, 74979, Note_on_c, 0, 64, 95
2, 74980, Note_on_c, 0, 52, 95
2, 74980, Note_on_c, 0, 57, 96
2, 74980, Note_on_c, 0, 62, 97
2, 74981, Note_on_c, 0, 45, 98
2, 74981, Note_on_c, 0, 69, 98
2, 75003, Note_on_c, 0, 45, 0
2, 75003, Note_on_c, 0, 57, 0
2, 75003, Note_on_c, 0, 64, 0
2, 75003, Note_on_c, 0, 52, 0
2, 75004, Note_on_c, 0, 62, 0
2, 75004, Note_on_c, 0, 69, 0
2, 75025, Note_on_c, 0, 64, 101
2, 75026, Note_on_c, 0, 45, 102
2, 75043, Note_on_c, 0, 55, 102
2, 75044, Note_on_c, 0, 69, 103
2, 75048, Note_on_c, 0, 64, 0
2, 75049, Note_on_c, 0, 45, 0
2, 75066, Note_on_c, 0, 55, 0
2, 75067, Note_on_c, 0, 69, 0
2, 75132, Note_on_c, 0, 73, 101
2, 75132, Note_on_c, 0, 79, 96
2, 75132, Note_on_c, 0, 81, 97
2, 75133, Note_on_c, 0, 33, 90
2, 75133, Note_on_c, 0, 37, 89
2, 75133, Note_on_c, 0, 45, 88
2, 75133, Note_on_c, 0, 69, 94
2, 75155, Note_on_c, 0, 81, 0
2, 75155, Note_on_c, 0, 73, 0
2, 75155, Note_on_c, 0, 79, 0
2, 75156, Note_on_c, 0, 69, 0
2, 75174, Note_on_c, 0, 45, 0
2, 75182, Note_on_c, 0, 37, 0
2, 75192, Note_on_c, 0, 33, 0
2, 75371, Control_c, 0, 64, 0
2, 75390, Note_on_c, 0, 74, 103
2, 75391, Note_on_c, 0, 62, 103
2, 75392, Note_on_c, 0, 33, 103
2, 75392, Note_on_c, 0, 69, 104
2, 75393, Note_on_c, 0, 38, 103
2, 75394, Note_on_c, 0, 26, 103
2, 75473, Control_c, 0, 64, 127
2, 75494, Note_on_c, 0, 62, 0
2, 75495, Note_on_c, 0, 69, 0
2, 75496, Note_on_c, 0, 26, 0
2, 75503, Note_on_c, 0, 74, 0
2, 75504, Note_on_c, 0, 38, 0
2, 75504, Note_on_c, 0, 33, 0
2, 75541, Note_on_c, 0, 65, 75
2, 75542, Note_on_c, 0, 53, 79
2, 75574, Note_on_c, 0, 65, 0
2, 75575, Note_on_c, 0, 53, 0
2, 75587, Note_on_c, 0, 77, 83
2, 75605, Note_on_c, 0, 65, 83
2, 75611, Note_on_c, 0, 77, 0
2, 75623, Note_on_c, 0, 53, 85
2, 75628, Note_on_c, 0, 65, 0
2, 75633, Note_on_c, 0, 77, 89
2, 75656, Note_on_c, 0, 77, 0
2, 75656, Note_on_c, 0, 53, 0
2, 75659, Note_on_c, 0, 65, 91
2, 75660, Note_on_c, 0, 89, 95
2, 75682, Note_on_c, 0, 65, 0
2, 75683, Note_on_c, 0, 89, 0
2, 75686, Note_on_c, 0, 53, 92
2, 75711, Note_on_c, 0, 65, 96
2, 75714, Note_on_c, 0, 89, 96
2, 75717, Note_on_c, 0, 53, 0
2, 75731, Note_on_c, 0, 101, 97
2, 75734, Note_on_c, 0, 65, 0
2, 75735, Note_on_c, 0, 89, 0
2, 75747, Note_on_c, 0, 53, 91
2, 75762, Note_on_c, 0, 101, 0
2, 75763, Note_on_c, 0, 65, 81
2, 75765, Note_on_c, 0, 89, 83
2, 75778, Note_on_c, 0, 53, 0
2, 75787, Note_on_c, 0, 89, 0
2, 75795, Note_on_c, 0, 65, 0
2, 75818, Note_on_c, 0, 50, 84
2, 75819, Note_on_c, 0, 53, 82
2, 75820, Note_on_c, 0, 89, 78
2, 75842, Note_on_c, 0, 53, 0
2, 75843, Note_on_c, 0, 89, 0
2, 75846, Note_on_c, 0, 77, 80
2, 75854, Note_on_c, 0, 62, 79
2, 75859, Note_on_c, 0, 50, 0
2, 75863, Note_on_c, 0, 65, 80
2, 75869, Note_on_c, 0, 77, 0
2, 75886, Note_on_c, 0, 62, 0
2, 75899, Note_on_c, 0, 77, 77
2, 75904, Note_on_c, 0, 65, 0
2, 75925, Note_on_c, 0, 65, 74
2, 75940, Note_on_c, 0, 77, 0
2, 75941, Control_c, 0, 64, 0
2, 75947, Note_on_c, 0, 65, 0
2, 75986, Note_on_c, 0, 66, 73
2, 75987, Note_on_c, 0, 78, 78
2, 75988, Note_on_c, 0, 51, 75
2, 75988, Note_on_c, 0, 54, 76
2, 75988, Note_on_c, 0, 63, 77
2, 76010, Note_on_c, 0, 66, 0
2, 76040, Note_on_c, 0, 65, 71
2, 76041, Note_on_c, 0, 66, 69
2, 76050, Control_c, 0, 64, 127
2, 76063, Note_on_c, 0, 65, 0
2, 76064, Note_on_c, 0, 66, 0
2, 76065, Note_on_c, 0, 63, 0
2, 76065, Note_on_c, 0, 78, 0
2, 76066, Note_on_c, 0, 51, 0
2, 76074, Note_on_c, 0, 54, 0
2, 76086, Note_on_c, 0, 65, 65
2, 76087, Note_on_c, 0, 66, 64
2, 76109, Note_on_c, 0, 65, 0
2, 76110, Note_on_c, 0, 66, 0
2, 76131, Note_on_c, 0, 65, 63
2, 76132, Note_on_c, 0, 66, 61
2, 76155, Note_on_c, 0, 66, 0
2, 76155, Note_on_c, 0, 65, 0
2, 76176, Note_on_c, 0, 65, 68
2, 76176, Note_on_c, 0, 66, 70
2, 76201, Control_c, 0, 64, 0
2, 76216, Note_on_c, 0, 66, 0
2, 76216, Note_on_c, 0, 65, 0
2, 76246, Note_on_c, 0, 66, 76
2, 76247, Note_on_c, 0, 48, 96
2, 76247, Note_on_c, 0, 78, 80
2, 76248, Note_on_c, 0, 54, 97
2, 76248, Note_on_c, 0, 60, 98
2, 76249, Note_on_c, 0, 51, 99
2, 76271, Note_on_c, 0, 66, 0
2, 76292, Note_on_c, 0, 65, 75
2, 76292, Note_on_c, 0, 66, 75
2, 76294, Control_c, 0, 64, 127
2, 76315, Note_on_c, 0, 66, 0
2, 76315, Note_on_c, 0, 48, 0
2, 76315, Note_on_c, 0, 65, 0
2, 76316, Note_on_c, 0, 54, 0
2, 76316, Note_on_c, 0, 78, 0
2, 76317, Note_on_c, 0, 51, 0
2, 76326, Note_on_c, 0, 60, 0
2, 76337, Note_on_c, 0, 65, 80
2, 76337, Note_on_c, 0, 66, 81
2, 76360, Note_on_c, 0, 65, 0
2, 76361, Note_on_c, 0, 66, 0
2, 76382, Note_on_c, 0, 65, 81
2, 76382, Note_on_c, 0, 66, 79
2, 76405, Note_on_c, 0, 65, 0
2, 76406, Note_on_c, 0, 66, 0
2, 76409, Control_c, 0, 64, 0
2, 76428, Note_on_c, 0, 66, 86
2, 76429, Note_on_c, 0, 78, 89
2, 76451, Note_on_c, 0, 66, 0
2, 76452, Note_on_c, 0, 78, 0
2, 76474, Note_on_c, 0, 66, 86
2, 76475, Note_on_c, 0, 78, 89
2, 76475, Note_on_c, 0, 45, 78
2, 76492, Note_on_c, 0, 57, 77
2, 76497, Note_on_c, 0, 66, 0
2, 76511, Control_c, 0, 64, 127
2, 76518, Note_on_c, 0, 65, 88
2, 76531, Note_on_c, 0, 78, 0
2, 76540, Note_on_c, 0, 57, 0
2, 76540, Note_on_c, 0, 65, 0
2, 76540, Note_on_c, 0, 77, 84
2, 76541, Note_on_c, 0, 45, 0
2, 76553, Note_on_c, 0, 53, 75
2, 76576, Note_on_c, 0, 53, 0
2, 76576, Note_on_c, 0, 77, 0
2, 76579, Note_on_c, 0, 65, 85
2, 76598, Note_on_c, 0, 77, 84
2, 76603, Note_on_c, 0, 65, 0
2, 76617, Note_on_c, 0, 53, 80
2, 76621, Note_on_c, 0, 77, 0
2, 76635, Note_on_c, 0, 89, 88
2, 76640, Note_on_c, 0, 53, 0
2, 76651, Note_on_c, 0, 65, 87
2, 76658, Note_on_c, 0, 89, 0
2, 76673, Note_on_c, 0, 65, 0
2, 76678, Note_on_c, 0, 53, 89
2, 76679, Note_on_c, 0, 89, 94
2, 76700, Note_on_c, 0, 53, 0
2, 76701, Note_on_c, 0, 89, 0
2, 76703, Note_on_c, 0, 65, 86
2, 76706, Note_on_c, 0, 101, 91
2, 76723, Note_on_c, 0, 89, 90
2, 76726, Note_on_c, 0, 65, 0
2, 76729, Note_on_c, 0, 101, 0
2, 76746, Note_on_c, 0, 89, 0
2, 76749, Note_on_c, 0, 53, 94
2, 76766, Note_on_c, 0, 65, 94
2, 76772, Note_on_c, 0, 53, 0
2, 76777, Note_on_c, 0, 89, 96
2, 76788, Note_on_c, 0, 65, 0
2, 76799, Note_on_c, 0, 89, 0
2, 76801, Note_on_c, 0, 50, 92
2, 76801, Note_on_c, 0, 53, 92
2, 76802, Note_on_c, 0, 77, 93
2, 76825, Note_on_c, 0, 77, 0
2, 76825, Note_on_c, 0, 53, 0
2, 76851, Note_on_c, 0, 50, 0
2, 76855, Note_on_c, 0, 65, 90
2, 76856, Note_on_c, 0, 77, 92
2, 76871, Control_c, 0, 64, 0
2, 76896, Note_on_c, 0, 77, 0
2, 76905, Note_on_c, 0, 65, 0
2, 76944, Note_on_c, 0, 66, 92
2, 76944, Note_on_c, 0, 78, 96
2, 76945, Note_on_c, 0, 54, 93
2, 76946, Note_on_c, 0, 51, 94
2, 76946, Note_on_c, 0, 63, 95
2, 76967, Note_on_c, 0, 66, 0
2, 76991, Control_c, 0, 64, 127
2, 76998, Note_on_c, 0, 65, 86
2, 76998, Note_on_c, 0, 66, 85
2, 77022, Note_on_c, 0, 66, 0
2, 77022, Note_on_c, 0, 65, 0
2, 77043, Note_on_c, 0, 65, 81
2, 77044, Note_on_c, 0, 66, 79
2, 77050, Note_on_c, 0, 63, 0
2, 77050, Note_on_c, 0, 51, 0
2, 77050, Note_on_c, 0, 54, 0
2, 77066, Note_on_c, 0, 66, 0
2, 77067, Note_on_c, 0, 65, 0
2, 77067, Note_on_c, 0, 78, 0
2, 77088, Note_on_c, 0, 65, 74
2, 77089, Note_on_c, 0, 66, 72
2, 77111, Note_on_c, 0, 66, 0
2, 77112, Note_on_c, 0, 65, 0
2, 77131, Control_c, 0, 64, 0
2, 77132, Note_on_c, 0, 65, 76
2, 77132, Note_on_c, 0, 66, 77
2, 77147, Note_on_c, 0, 66, 0
2, 77147, Note_on_c, 0, 65, 0
2, 77168, Note_on_c, 0, 65, 81
2, 77168, Note_on_c, 0, 66, 83
2, 77181, Note_on_c, 0, 65, 0
2, 77195, Note_on_c, 0, 48, 90
2, 77195, Note_on_c, 0, 78, 87
2, 77195, Note_on_c, 0, 51, 91
2, 77195, Note_on_c, 0, 54, 92
2, 77195, Note_on_c, 0, 60, 93
2, 77218, Note_on_c, 0, 66, 0
2, 77232, Control_c, 0, 64, 127
2, 77239, Note_on_c, 0, 65, 80
2, 77239, Note_on_c, 0, 66, 79
2, 77253, Note_on_c, 0, 78, 0
2, 77254, Note_on_c, 0, 54, 0
2, 77262, Note_on_c, 0, 60, 0
2, 77262, Note_on_c, 0, 65, 0
2, 77262, Note_on_c, 0, 66, 0
2, 77263, Note_on_c, 0, 51, 0
2, 77283, Note_on_c, 0, 65, 77
2, 77283, Note_on_c, 0, 66, 79
2, 77306, Note_on_c, 0, 66, 0
2, 77306, Note_on_c, 0, 65, 0
2, 77307, Note_on_c, 0, 48, 0
2, 77328, Note_on_c, 0, 65, 84
2, 77329, Note_on_c, 0, 66, 86
2, 77352, Note_on_c, 0, 66, 0
2, 77352, Note_on_c, 0, 65, 0
2, 77354, Control_c, 0, 64, 0
2, 77374, Note_on_c, 0, 66, 90
2, 77391, Note_on_c, 0, 78, 88
2, 77396, Note_on_c, 0, 66, 0
2, 77401, Note_on_c, 0, 45, 89
2, 77409, Note_on_c, 0, 65, 84
2, 77410, Note_on_c, 0, 57, 88
2, 77424, Note_on_c, 0, 78, 0
2, 77441, Note_on_c, 0, 65, 0
2, 77455, Note_on_c, 0, 53, 85
2, 77455, Note_on_c, 0, 77, 80
2, 77474, Control_c, 0, 64, 127
2, 77486, Note_on_c, 0, 77, 0
2, 77486, Note_on_c, 0, 53, 0
2, 77490, Note_on_c, 0, 65, 74
2, 77508, Note_on_c, 0, 77, 74
2, 77512, Note_on_c, 0, 65, 0
2, 77513, Note_on_c, 0, 57, 0
2, 77527, Note_on_c, 0, 53, 76
2, 77529, Note_on_c, 0, 89, 73
2, 77532, Note_on_c, 0, 77, 0
2, 77552, Note_on_c, 0, 89, 0
2, 77554, Note_on_c, 0, 65, 72
2, 77560, Note_on_c, 0, 53, 0
2, 77560, Note_on_c, 0, 45, 0
2, 77574, Note_on_c, 0, 89, 76
2, 77585, Note_on_c, 0, 65, 0
2, 77590, Note_on_c, 0, 53, 85
2, 77595, Note_on_c, 0, 89, 0
2, 77615, Note_on_c, 0, 65, 74
2, 77618, Note_on_c, 0, 89, 79
2, 77630, Note_on_c, 0, 53, 0
2, 77640, Note_on_c, 0, 89, 0
2, 77647, Note_on_c, 0, 65, 0
2, 77660, Note_on_c, 0, 53, 92
2, 77670, Note_on_c, 0, 89, 84
2, 77676, Note_on_c, 0, 65, 82
2, 77686, Note_on_c, 0, 77, 84
2, 77691, Note_on_c, 0, 53, 0
2, 77693, Note_on_c, 0, 89, 0
2, 77708, Note_on_c, 0, 65, 0
2, 77718, Note_on_c, 0, 77, 0
2, 77722, Note_on_c, 0, 53, 87
2, 77739, Note_on_c, 0, 65, 82
2, 77740, Note_on_c, 0, 77, 82
2, 77762, Note_on_c, 0, 65, 0
2, 77763, Note_on_c, 0, 77, 0
2, 77771, Note_on_c, 0, 53, 0
2, 77783, Note_on_c, 0, 65, 73
2, 77809, Control_c, 0, 64, 0
2, 77833, Note_on_c, 0, 65, 0
2, 77838, Note_on_c, 0, 77, 79
2, 77861, Note_on_c, 0, 77, 0
2, 77864, Note_on_c, 0, 47, 79
2, 77864, Note_on_c, 0, 62, 79
2, 77864, Note_on_c, 0, 65, 83
2, 77865, Note_on_c, 0, 50, 78
2, 77865, Note_on_c, 0, 53, 78
2, 77865, Note_on_c, 0, 59, 77
2, 77892, Control_c, 0, 64, 127
2, 77904, Note_on_c, 0, 47, 0
2, 77905, Note_on_c, 0, 62, 0
2, 77905, Note_on_c, 0, 59, 0
2, 77913, Note_on_c, 0, 50, 0
2, 77951, Note_on_c, 0, 47, 86
2, 77951, Note_on_c, 0, 50, 87
2, 77951, Note_on_c, 0, 59, 88
2, 77951, Note_on_c, 0, 62, 87
2, 77974, Note_on_c, 0, 59, 0
2, 77974, Note_on_c, 0, 50, 0
2, 77974, Note_on_c, 0, 47, 0
2, 77974, Note_on_c, 0, 65, 0
2, 77975, Note_on_c, 0, 53, 0
2, 77975, Note_on_c, 0, 62, 0
2, 78023, Note_on_c, 0, 62, 82
2, 78023, Note_on_c, 0, 65, 80
2, 78024, Note_on_c, 0, 47, 79
2, 78024, Note_on_c, 0, 50, 78
2, 78024, Note_on_c, 0, 53, 77
2, 78024, Note_on_c, 0, 59, 76
2, 78047, Note_on_c, 0, 47, 0
2, 78047, Note_on_c, 0, 62, 0
2, 78047, Note_on_c, 0, 65, 0
2, 78048, Note_on_c, 0, 50, 0
2, 78048, Note_on_c, 0, 53, 0
2, 78048, Note_on_c, 0, 59, 0
2, 78078, Note_on_c, 0, 62, 75
2, 78078, Note_on_c, 0, 65, 76
2, 78079, Note_on_c, 0, 47, 75
2, 78079, Note_on_c, 0, 50, 75
2, 78079, Note_on_c, 0, 53, 74
2, 78079, Note_on_c, 0, 59, 75
2, 78102, Note_on_c, 0, 59, 0
2, 78102, Note_on_c, 0, 65, 0
2, 78102, Note_on_c, 0, 47, 0
2, 78102, Note_on_c, 0, 50, 0
2, 78103, Note_on_c, 0, 62, 0
2, 78103, Note_on_c, 0, 53, 0
2, 78124, Note_on_c, 0, 47, 74
2, 78124, Note_on_c, 0, 50, 75
2, 78124, Note_on_c, 0, 53, 74
2, 78124, Note_on_c, 0, 59, 75
2, 78124, Note_on_c, 0, 62, 74
2, 78124, Note_on_c, 0, 65, 75
2, 78147, Note_on_c, 0, 47, 0
2, 78148, Note_on_c, 0, 53, 0
2, 78148, Note_on_c, 0, 59, 0
2, 78148, Note_on_c, 0, 50, 0
2, 78148, Note_on_c, 0, 65, 0
2, 78148, Note_on_c, 0, 62, 0
2, 78149, Control_c, 0, 64, 0
2, 78168, Note_on_c, 0, 47, 75
2, 78168, Note_on_c, 0, 59, 75
2, 78168, Note_on_c, 0, 62, 74
2, 78168, Note_on_c, 0, 65, 75
2, 78169, Note_on_c, 0, 50, 75
2, 78169, Note_on_c, 0, 53, 75
2, 78192, Note_on_c, 0, 53, 0
2, 78192, Note_on_c, 0, 47, 0
2, 78192, Note_on_c, 0, 62, 0
2, 78192, Note_on_c, 0, 65, 0
2, 78192, Note_on_c, 0, 50, 0
2, 78193, Note_on_c, 0, 59, 0
2, 78213, Note_on_c, 0, 48, 76
2, 78213, Note_on_c, 0, 62, 78
2, 78213, Note_on_c, 0, 66, 78
2, 78214, Note_on_c, 0, 50, 79
2, 78215, Note_on_c, 0, 54, 80
2, 78215, Note_on_c, 0, 60, 81
2, 78237, Note_on_c, 0, 60, 0
2, 78237, Note_on_c, 0, 62, 0
2, 78237, Note_on_c, 0, 48, 0
2, 78237, Note_on_c, 0, 50, 0
2, 78258, Note_on_c, 0, 48, 75
2, 78258, Note_on_c, 0, 50, 75
2, 78258, Note_on_c, 0, 60, 74
2, 78258, Note_on_c, 0, 62, 75
2, 78269, Control_c, 0, 64, 127
2, 78280, Note_on_c, 0, 50, 0
2, 78280, Note_on_c, 0, 48, 0
2, 78280, Note_on_c, 0, 66, 0
2, 78281, Note_on_c, 0, 54, 0
2, 78281, Note_on_c, 0, 60, 0
2, 78281, Note_on_c, 0, 62, 0
2, 78301, Note_on_c, 0, 66, 75
2, 78302, Note_on_c, 0, 48, 75
2, 78302, Note_on_c, 0, 50, 75
2, 78302, Note_on_c, 0, 62, 74
2, 78303, Note_on_c, 0, 54, 75
2, 78303, Note_on_c, 0, 60, 75
2, 78325, Note_on_c, 0, 60, 0
2, 78325, Note_on_c, 0, 66, 0
2, 78325, Note_on_c, 0, 50, 0
2, 78326, Note_on_c, 0, 48, 0
2, 78326, Note_on_c, 0, 62, 0
2, 78326, Note_on_c, 0, 54, 0
2, 78347, Note_on_c, 0, 62, 75
2, 78347, Note_on_c, 0, 48, 75
2, 78347, Note_on_c, 0, 50, 75
2, 78347, Note_on_c, 0, 66, 75
2, 78348, Note_on_c, 0, 54, 74
2, 78348, Note_on_c, 0, 60, 75
2, 78371, Note_on_c, 0, 60, 0
2, 78371, Note_on_c, 0, 48, 0
2, 78371, Note_on_c, 0, 50, 0
2, 78371, Note_on_c, 0, 62, 0
2, 78371, Note_on_c, 0, 54, 0
2, 78371, Note_on_c, 0, 66, 0
2, 78391, Control_c, 0, 64, 0
2, 78392, Note_on_c, 0, 50, 82
2, 78392, Note_on_c, 0, 62, 83
2, 78392, Note_on_c, 0, 66, 82
2, 78393, Note_on_c, 0, 48, 82
2, 78393, Note_on_c, 0, 54, 83
2, 78393, Note_on_c, 0, 60, 82
2, 78415, Note_on_c, 0, 66, 0
2, 78416, Note_on_c, 0, 62, 0
2, 78416, Note_on_c, 0, 48, 0
2, 78416, Note_on_c, 0, 50, 0
2, 78416, Note_on_c, 0, 60, 0
2, 78417, Note_on_c, 0, 54, 0
2, 78438, Note_on_c, 0, 48, 83
2, 78438, Note_on_c, 0, 50, 83
2, 78438, Note_on_c, 0, 66, 83
2, 78439, Note_on_c, 0, 54, 82
2, 78439, Note_on_c, 0, 60, 83
2, 78461, Note_on_c, 0, 66, 0
2, 78461, Note_on_c, 0, 50, 0
2, 78462, Note_on_c, 0, 48, 0
2, 78462, Note_on_c, 0, 54, 0
2, 78462, Note_on_c, 0, 60, 0
2, 78482, Note_on_c, 0, 67, 85
2, 78483, Note_on_c, 0, 50, 85
2, 78483, Note_on_c, 0, 55, 86
2, 78483, Note_on_c, 0, 62, 87
2, 78484, Note_on_c, 0, 58, 88
2, 78485, Note_on_c, 0, 46, 89
2, 78506, Note_on_c, 0, 62, 0
2, 78506, Note_on_c, 0, 50, 0
2, 78507, Note_on_c, 0, 58, 0
2, 78507, Note_on_c, 0, 46, 0
2, 78520, Control_c, 0, 64, 127
2, 78527, Note_on_c, 0, 62, 83
2, 78528, Note_on_c, 0, 50, 83
2, 78529, Note_on_c, 0, 46, 83
2, 78529, Note_on_c, 0, 58, 83
2, 78551, Note_on_c, 0, 50, 0
2, 78551, Note_on_c, 0, 67, 0
2, 78552, Note_on_c, 0, 46, 0
2, 78552, Note_on_c, 0, 55, 0
2, 78552, Note_on_c, 0, 58, 0
2, 78552, Note_on_c, 0, 62, 0
2, 78573, Note_on_c, 0, 62, 82
2, 78573, Note_on_c, 0, 67, 83
2, 78574, Note_on_c, 0, 50, 83
2, 78574, Note_on_c, 0, 55, 83
2, 78575, Note_on_c, 0, 46, 82
2, 78575, Note_on_c, 0, 58, 83
2, 78596, Note_on_c, 0, 67, 0
2, 78597, Note_on_c, 0, 62, 0
2, 78597, Note_on_c, 0, 50, 0
2, 78598, Note_on_c, 0, 55, 0
2, 78598, Note_on_c, 0, 58, 0
2, 78599, Note_on_c, 0, 46, 0
2, 78619, Note_on_c, 0, 50, 83
2, 78619, Note_on_c, 0, 55, 83
2, 78619, Note_on_c, 0, 62, 82
2, 78619, Note_on_c, 0, 67, 83
2, 78620, Note_on_c, 0, 46, 83
2, 78620, Note_on_c, 0, 58, 83
2, 78641, Note_on_c, 0, 67, 0
2, 78642, Note_on_c, 0, 62, 0
2, 78642, Note_on_c, 0, 50, 0
2, 78642, Note_on_c, 0, 55, 0
2, 78643, Note_on_c, 0, 58, 0
2, 78644, Note_on_c, 0, 46, 0
2, 78664, Note_on_c, 0, 67, 82
2, 78665, Note_on_c, 0, 62, 83
2, 78666, Note_on_c, 0, 50, 83
2, 78666, Note_on_c, 0, 55, 83
2, 78667, Note_on_c, 0, 46, 82
2, 78667, Note_on_c, 0, 58, 83
2, 78689, Note_on_c, 0, 50, 0
2, 78689, Note_on_c, 0, 67, 0
2, 78690, Note_on_c, 0, 62, 0
2, 78690, Note_on_c, 0, 58, 0
2, 78691, Note_on_c, 0, 55, 0
2, 78691, Note_on_c, 0, 46, 0
2, 78692, Control_c, 0, 64, 0
2, 78712, Note_on_c, 0, 62, 79
2, 78712, Note_on_c, 0, 67, 78
2, 78713, Note_on_c, 0, 50, 78
2, 78713, Note_on_c, 0, 55, 77
2, 78713, Note_on_c, 0, 58, 76
2, 78714, Note_on_c, 0, 46, 75
2, 78736, Note_on_c, 0, 50, 0
2, 78736, Note_on_c, 0, 62, 0
2, 78736, Note_on_c, 0, 67, 0
2, 78737, Note_on_c, 0, 55, 0
2, 78738, Note_on_c, 0, 46, 0
2, 78747, Note_on_c, 0, 58, 0
2, 78758, Note_on_c, 0, 48, 75
2, 78758, Note_on_c, 0, 57, 75
2, 78758, Note_on_c, 0, 67, 80
2, 78759, Note_on_c, 0, 45, 74
2, 78759, Note_on_c, 0, 55, 75
2, 78760, Note_on_c, 0, 36, 74
2, 78760, Note_on_c, 0, 63, 75
2, 78781, Note_on_c, 0, 57, 0
2, 78782, Note_on_c, 0, 45, 0
2, 78782, Note_on_c, 0, 48, 0
2, 78783, Note_on_c, 0, 63, 0
2, 78784, Note_on_c, 0, 36, 0
2, 78803, Note_on_c, 0, 48, 81
2, 78803, Note_on_c, 0, 57, 83
2, 78804, Note_on_c, 0, 45, 84
2, 78805, Control_c, 0, 64, 127
2, 78805, Note_on_c, 0, 63, 86
2, 78806, Note_on_c, 0, 36, 87
2, 78827, Note_on_c, 0, 57, 0
2, 78827, Note_on_c, 0, 67, 0
2, 78828, Note_on_c, 0, 55, 0
2, 78828, Note_on_c, 0, 45, 0
2, 78828, Note_on_c, 0, 48, 0
2, 78829, Note_on_c, 0, 63, 0
2, 78830, Note_on_c, 0, 36, 0
2, 78850, Note_on_c, 0, 48, 92
2, 78850, Note_on_c, 0, 55, 92
2, 78850, Note_on_c, 0, 57, 91
2, 78850, Note_on_c, 0, 67, 88
2, 78851, Note_on_c, 0, 45, 92
2, 78851, Note_on_c, 0, 36, 92
2, 78851, Note_on_c, 0, 63, 92
2, 78873, Note_on_c, 0, 67, 0
2, 78873, Note_on_c, 0, 57, 0
2, 78874, Note_on_c, 0, 48, 0
2, 78874, Note_on_c, 0, 45, 0
2, 78874, Note_on_c, 0, 55, 0
2, 78875, Note_on_c, 0, 63, 0
2, 78875, Note_on_c, 0, 36, 0
2, 78895, Note_on_c, 0, 67, 90
2, 78896, Note_on_c, 0, 45, 92
2, 78896, Note_on_c, 0, 48, 92
2, 78896, Note_on_c, 0, 55, 91
2, 78896, Note_on_c, 0, 63, 92
2, 78897, Note_on_c, 0, 36, 91
2, 78918, Note_on_c, 0, 67, 0
2, 78919, Note_on_c, 0, 45, 0
2, 78919, Note_on_c, 0, 48, 0
2, 78920, Note_on_c, 0, 55, 0
2, 78920, Note_on_c, 0, 63, 0
2, 78921, Note_on_c, 0, 36, 0
2, 78940, Note_on_c, 0, 48, 92
2, 78940, Note_on_c, 0, 57, 92
2, 78940, Note_on_c, 0, 67, 92
2, 78941, Note_on_c, 0, 45, 91
2, 78941, Note_on_c, 0, 55, 92
2, 78941, Note_on_c, 0, 63, 91
2, 78942, Note_on_c, 0, 36, 92
2, 78956, Control_c, 0, 64, 0
2, 78963, Note_on_c, 0, 67, 0
2, 78963, Note_on_c, 0, 57, 0
2, 78964, Note_on_c, 0, 45, 0
2, 78964, Note_on_c, 0, 48, 0
2, 78965, Note_on_c, 0, 55, 0
2, 78965, Note_on_c, 0, 63, 0
2, 78966, Note_on_c, 0, 36, 0
2, 78986, Note_on_c, 0, 48, 92
2, 78986, Note_on_c, 0, 57, 92
2, 78986, Note_on_c, 0, 67, 92
2, 78987, Note_on_c, 0, 45, 91
2, 78987, Note_on_c, 0, 55, 92
2, 78987, Note_on_c, 0, 63, 91
2, 78988, Note_on_c, 0, 36, 92
2, 79009, Note_on_c, 0, 67, 0
2, 79010, Note_on_c, 0, 55, 0
2, 79010, Note_on_c, 0, 48, 0
2, 79010, Note_on_c, 0, 45, 0
2, 79010, Note_on_c, 0, 57, 0
2, 79011, Note_on_c, 0, 63, 0
2, 79012, Note_on_c, 0, 36, 0
2, 79040, Note_on_c, 0, 67, 95
2, 79041, Note_on_c, 0, 62, 92
2, 79042, Note_on_c, 0, 50, 92
2, 79042, Note_on_c, 0, 55, 92
2, 79043, Note_on_c, 0, 38, 91
2, 79043, Note_on_c, 0, 46, 92
2, 79043, Note_on_c, 0, 58, 91
2, 79065, Note_on_c, 0, 55, 0
2, 79065, Note_on_c, 0, 50, 0
2, 79065, Note_on_c, 0, 62, 0
2, 79066, Note_on_c, 0, 58, 0
2, 79066, Note_on_c, 0, 46, 0
2, 79067, Note_on_c, 0, 38, 0
2, 79078, Control_c, 0, 64, 127
2, 79086, Note_on_c, 0, 50, 92
2, 79086, Note_on_c, 0, 55, 92
2, 79086, Note_on_c, 0, 62, 91
2, 79087, Note_on_c, 0, 46, 92
2, 79087, Note_on_c, 0, 58, 92
2, 79088, Note_on_c, 0, 38, 91
2, 79109, Note_on_c, 0, 62, 0
2, 79109, Note_on_c, 0, 55, 0
2, 79109, Note_on_c, 0, 50, 0
2, 79110, Note_on_c, 0, 58, 0
2, 79111, Note_on_c, 0, 38, 0
2, 79111, Note_on_c, 0, 46, 0
2, 79137, Note_on_c, 0, 67, 0
2, 79139, Note_on_c, 0, 62, 92
2, 79140, Note_on_c, 0, 50, 92
2, 79140, Note_on_c, 0, 55, 92
2, 79140, Note_on_c, 0, 58, 91
2, 79141, Note_on_c, 0, 46, 92
2, 79142, Note_on_c, 0, 38, 92
2, 79163, Note_on_c, 0, 50, 0
2, 79163, Note_on_c, 0, 62, 0
2, 79164, Note_on_c, 0, 58, 0
2, 79164, Note_on_c, 0, 55, 0
2, 79165, Note_on_c, 0, 38, 0
2, 79165, Note_on_c, 0, 46, 0
2, 79195, Note_on_c, 0, 50, 91
2, 79195, Note_on_c, 0, 55, 92
2, 79195, Note_on_c, 0, 62, 91
2, 79196, Note_on_c, 0, 46, 92
2, 79196, Note_on_c, 0, 58, 92
2, 79197, Note_on_c, 0, 38, 91
2, 79218, Note_on_c, 0, 50, 0
2, 79219, Note_on_c, 0, 58, 0
2, 79219, Note_on_c, 0, 55, 0
2, 79219, Note_on_c, 0, 62, 0
2, 79220, Note_on_c, 0, 46, 0
2, 79220, Note_on_c, 0, 38, 0
2, 79239, Note_on_c, 0, 62, 91
2, 79240, Note_on_c, 0, 50, 92
2, 79240, Note_on_c, 0, 55, 92
2, 79240, Note_on_c, 0, 58, 91
2, 79241, Note_on_c, 0, 46, 92
2, 79242, Note_on_c, 0, 38, 92
2, 79263, Note_on_c, 0, 50, 0
2, 79263, Note_on_c, 0, 62, 0
2, 79264, Note_on_c, 0, 55, 0
2, 79265, Note_on_c, 0, 58, 0
2, 79265, Note_on_c, 0, 46, 0
2, 79265, Note_on_c, 0, 38, 0
2, 79284, Control_c, 0, 64, 0
2, 79286, Note_on_c, 0, 50, 93
2, 79286, Note_on_c, 0, 55, 94
2, 79286, Note_on_c, 0, 62, 95
2, 79287, Note_on_c, 0, 46, 96
2, 79287, Note_on_c, 0, 58, 97
2, 79288, Note_on_c, 0, 38, 98
2, 79310, Note_on_c, 0, 62, 0
2, 79310, Note_on_c, 0, 50, 0
2, 79310, Note_on_c, 0, 55, 0
2, 79311, Note_on_c, 0, 46, 0
2, 79311, Note_on_c, 0, 58, 0
2, 79312, Note_on_c, 0, 38, 0
2, 79341, Note_on_c, 0, 57, 102
2, 79341, Note_on_c, 0, 62, 102
2, 79341, Note_on_c, 0, 66, 103
2, 79342, Note_on_c, 0, 50, 101
2, 79343, Note_on_c, 0, 45, 102
2, 79343, Note_on_c, 0, 54, 102
2, 79344, Note_on_c, 0, 38, 101
2, 79366, Note_on_c, 0, 45, 0
2, 79367, Note_on_c, 0, 38, 0
2, 79375, Note_on_c, 0, 50, 0
2, 79375, Note_on_c, 0, 62, 0
2, 79375, Note_on_c, 0, 57, 0
2, 79376, Note_on_c, 0, 54, 0
2, 79396, Note_on_c, 0, 50, 102
2, 79404, Note_on_c, 0, 62, 102
2, 79405, Note_on_c, 0, 45, 102
2, 79405, Note_on_c, 0, 54, 102
2, 79405, Note_on_c, 0, 60, 101
2, 79406, Control_c, 0, 64, 127
2, 79406, Note_on_c, 0, 38, 102
2, 79427, Note_on_c, 0, 66, 0
2, 79428, Note_on_c, 0, 45, 0
2, 79428, Note_on_c, 0, 62, 0
2, 79428, Note_on_c, 0, 60, 0
2, 79429, Note_on_c, 0, 38, 0
2, 79437, Note_on_c, 0, 50, 0
2, 79438, Note_on_c, 0, 54, 0
2, 79458, Note_on_c, 0, 62, 102
2, 79458, Note_on_c, 0, 66, 102
2, 79459, Note_on_c, 0, 50, 102
2, 79459, Note_on_c, 0, 60, 102
2, 79460, Note_on_c, 0, 45, 101
2, 79460, Note_on_c, 0, 54, 102
2, 79461, Note_on_c, 0, 38, 101
2, 79482, Note_on_c, 0, 45, 0
2, 79482, Note_on_c, 0, 50, 0
2, 79482, Note_on_c, 0, 66, 0
2, 79483, Note_on_c, 0, 60, 0
2, 79483, Note_on_c, 0, 62, 0
2, 79484, Note_on_c, 0, 54, 0
2, 79484, Note_on_c, 0, 38, 0
2, 79512, Note_on_c, 0, 62, 101
2, 79513, Note_on_c, 0, 50, 102
2, 79513, Note_on_c, 0, 60, 102
2, 79513, Note_on_c, 0, 66, 102
2, 79514, Note_on_c, 0, 45, 101
2, 79514, Note_on_c, 0, 54, 102
2, 79515, Note_on_c, 0, 38, 101
2, 79571, Note_on_c, 0, 50, 0
2, 79572, Note_on_c, 0, 45, 0
2, 79573, Note_on_c, 0, 38, 0
2, 79581, Note_on_c, 0, 54, 0
2, 79590, Note_on_c, 0, 60, 0
2, 79598, Note_on_c, 0, 62, 0
2, 79616, Note_on_c, 0, 66, 0
2, 79617, Control_c, 0, 64, 0
2, 79655, Note_on_c, 0, 67, 91
2, 79656, Note_on_c, 0, 55, 96
2, 79657, Note_on_c, 0, 31, 97
2, 79657, Note_on_c, 0, 43, 98
2, 79657, Note_on_c, 0, 58, 99
2, 79665, Note_on_c, 0, 62, 100
2, 79667, Note_on_c, 0, 34, 101
2, 79667, Note_on_c, 0, 38, 102
2, 79706, Note_on_c, 0, 55, 0
2, 79707, Note_on_c, 0, 43, 0
2, 79707, Note_on_c, 0, 31, 0
2, 79724, Note_on_c, 0, 58, 0
2, 79725, Note_on_c, 0, 38, 0
2, 79733, Note_on_c, 0, 62, 0
2, 79734, Note_on_c, 0, 34, 0
2, 79738, Control_c, 0, 64, 127
2, 79763, Note_on_c, 0, 55, 88
2, 79764, Note_on_c, 0, 31, 86
2, 79764, Note_on_c, 0, 43, 85
2, 79786, Note_on_c, 0, 55, 0
2, 79787, Note_on_c, 0, 43, 0
2, 79787, Note_on_c, 0, 31, 0
2, 79794, Note_on_c, 0, 67, 0
2, 79842, Note_on_c, 0, 67, 82
2, 79843, Note_on_c, 0, 55, 78
2, 79844, Note_on_c, 0, 43, 77
2, 79845, Note_on_c, 0, 31, 76
2, 79867, Note_on_c, 0, 55, 0
2, 79868, Note_on_c, 0, 31, 0
2, 79868, Note_on_c, 0, 43, 0
2, 79876, Note_on_c, 0, 67, 0
2, 79915, Note_on_c, 0, 67, 75
2, 79916, Note_on_c, 0, 55, 78
2, 79917, Note_on_c, 0, 31, 79
2, 79917, Note_on_c, 0, 43, 80
2, 79938, Note_on_c, 0, 55, 0
2, 79939, Note_on_c, 0, 43, 0
2, 79940, Note_on_c, 0, 31, 0
2, 79947, Note_on_c, 0, 67, 0
2, 79985, Note_on_c, 0, 55, 83
2, 79985, Note_on_c, 0, 67, 84
2, 79986, Note_on_c, 0, 43, 83
2, 79987, Note_on_c, 0, 31, 83
2, 80008, Note_on_c, 0, 55, 0
2, 80009, Note_on_c, 0, 43, 0
2, 80010, Note_on_c, 0, 31, 0
2, 80017, Note_on_c, 0, 67, 0
2, 80047, Note_on_c, 0, 67, 86
2, 80048, Note_on_c, 0, 55, 93
2, 80049, Note_on_c, 0, 43, 94
2, 80050, Note_on_c, 0, 31, 95
2, 80070, Note_on_c, 0, 67, 0
2, 80071, Note_on_c, 0, 55, 0
2, 80072, Note_on_c, 0, 43, 0
2, 80072, Note_on_c, 0, 31, 0
2, 80099, Note_on_c, 0, 67, 91
2, 80100, Note_on_c, 0, 55, 101
2, 80101, Note_on_c, 0, 43, 102
2, 80102, Note_on_c, 0, 31, 103
2, 80125, Note_on_c, 0, 31, 0
2, 80125, Note_on_c, 0, 43, 0
2, 80132, Note_on_c, 0, 67, 0
2, 80133, Note_on_c, 0, 55, 0
2, 80161, Control_c, 0, 64, 0
2, 80163, Note_on_c, 0, 67, 100
2, 80164, Note_on_c, 0, 55, 105
2, 80165, Note_on_c, 0, 43, 106
2, 80166, Note_on_c, 0, 31, 106
2, 80188, Note_on_c, 0, 31, 0
2, 80195, Note_on_c, 0, 67, 0
2, 80195, Note_on_c, 0, 55, 0
2, 80205, Note_on_c, 0, 43, 0
2, 80218, Note_on_c, 0, 31, 99
2, 80251, Note_on_c, 0, 55, 95
2, 80251, Note_on_c, 0, 67, 94
2, 80270, Control_c, 0, 64, 127
2, 80270, Note_on_c, 0, 33, 87
2, 80283, Note_on_c, 0, 67, 0
2, 80284, Note_on_c, 0, 55, 0
2, 80298, Note_on_c, 0, 34, 83
2, 80322, Note_on_c, 0, 67, 88
2, 80323, Note_on_c, 0, 55, 79
2, 80342, Note_on_c, 0, 36, 81
2, 80346, Note_on_c, 0, 67, 0
2, 80347, Note_on_c, 0, 55, 0
2, 80348, Note_on_c, 0, 33, 0
2, 80358, Note_on_c, 0, 34, 0
2, 80370, Note_on_c, 0, 38, 84
2, 80377, Note_on_c, 0, 67, 79
2, 80384, Note_on_c, 0, 36, 0
2, 80400, Note_on_c, 0, 67, 0
2, 80402, Note_on_c, 0, 38, 0
2, 80415, Note_on_c, 0, 39, 81
2, 80431, Note_on_c, 0, 67, 75
2, 80432, Note_on_c, 0, 55, 77
2, 80442, Note_on_c, 0, 38, 79
2, 80455, Note_on_c, 0, 55, 0
2, 80462, Note_on_c, 0, 67, 0
2, 80465, Note_on_c, 0, 39, 0
2, 80483, Note_on_c, 0, 31, 0
2, 80493, Note_on_c, 0, 67, 70
2, 80494, Note_on_c, 0, 55, 72
2, 80509, Note_on_c, 0, 38, 0
2, 80516, Note_on_c, 0, 67, 0
2, 80517, Note_on_c, 0, 55, 0
2, 80546, Note_on_c, 0, 67, 68
2, 80547, Note_on_c, 0, 55, 69
2, 80569, Note_on_c, 0, 55, 0
2, 80578, Note_on_c, 0, 67, 0
2, 80583, Note_on_c, 0, 34, 68
2, 80592, Note_on_c, 0, 38, 68
2, 80616, Note_on_c, 0, 62, 70
2, 80617, Note_on_c, 0, 46, 73
2, 80624, Note_on_c, 0, 34, 0
2, 80656, Note_on_c, 0, 62, 0
2, 80657, Note_on_c, 0, 38, 0
2, 80657, Note_on_c, 0, 46, 0
2, 80695, Note_on_c, 0, 62, 68
2, 80695, Note_on_c, 0, 67, 68
2, 80696, Note_on_c, 0, 55, 68
2, 80711, Control_c, 0, 64, 0
2, 80718, Note_on_c, 0, 67, 0
2, 80719, Note_on_c, 0, 55, 0
2, 80745, Note_on_c, 0, 62, 0
2, 80774, Note_on_c, 0, 62, 72
2, 80774, Note_on_c, 0, 67, 77
2, 80775, Note_on_c, 0, 55, 76
2, 80776, Note_on_c, 0, 31, 77
2, 80776, Note_on_c, 0, 38, 78
2, 80776, Note_on_c, 0, 43, 79
2, 80802, Control_c, 0, 64, 127
2, 80834, Note_on_c, 0, 43, 0
2, 80842, Note_on_c, 0, 55, 0
2, 80850, Note_on_c, 0, 67, 0
2, 80861, Note_on_c, 0, 31, 0
2, 80880, Note_on_c, 0, 67, 68
2, 80881, Note_on_c, 0, 55, 70
2, 80882, Note_on_c, 0, 43, 69
2, 80900, Note_on_c, 0, 31, 68
2, 80903, Note_on_c, 0, 67, 0
2, 80904, Note_on_c, 0, 55, 0
2, 80905, Note_on_c, 0, 43, 0
2, 80923, Note_on_c, 0, 31, 0
2, 80951, Note_on_c, 0, 67, 71
2, 80952, Note_on_c, 0, 55, 68
2, 80953, Note_on_c, 0, 31, 68
2, 80953, Note_on_c, 0, 43, 68
2, 80974, Note_on_c, 0, 67, 0
2, 80975, Note_on_c, 0, 55, 0
2, 80976, Note_on_c, 0, 31, 0
2, 80976, Note_on_c, 0, 43, 0
2, 81013, Note_on_c, 0, 67, 68
2, 81014, Note_on_c, 0, 55, 68
2, 81015, Note_on_c, 0, 31, 68
2, 81015, Note_on_c, 0, 43, 68
2, 81035, Note_on_c, 0, 67, 0
2, 81036, Note_on_c, 0, 55, 0
2, 81037, Note_on_c, 0, 43, 0
2, 81038, Note_on_c, 0, 31, 0
2, 81075, Note_on_c, 0, 67, 76
2, 81076, Note_on_c, 0, 55, 76
2, 81077, Note_on_c, 0, 43, 77
2, 81078, Note_on_c, 0, 31, 78
2, 81098, Note_on_c, 0, 55, 0
2, 81098, Note_on_c, 0, 67, 0
2, 81099, Note_on_c, 0, 43, 0
2, 81100, Note_on_c, 0, 31, 0
2, 81136, Note_on_c, 0, 67, 78
2, 81137, Note_on_c, 0, 55, 82
2, 81138, Note_on_c, 0, 43, 83
2, 81139, Note_on_c, 0, 31, 84
2, 81159, Note_on_c, 0, 67, 0
2, 81160, Note_on_c, 0, 55, 0
2, 81160, Note_on_c, 0, 31, 0
2, 81161, Note_on_c, 0, 38, 0
2, 81161, Note_on_c, 0, 43, 0
2, 81179, Note_on_c, 0, 62, 0
2, 81208, Note_on_c, 0, 62, 89
2, 81210, Note_on_c, 0, 38, 87
2, 81297, Note_on_c, 0, 67, 88
2, 81298, Note_on_c, 0, 55, 60
2, 81299, Note_on_c, 0, 43, 60
2, 81299, Note_on_c, 0, 31, 60
2, 81305, Control_c, 0, 64, 0
2, 81321, Note_on_c, 0, 67, 0
2, 81322, Note_on_c, 0, 55, 0
2, 81323, Note_on_c, 0, 43, 0
2, 81323, Note_on_c, 0, 31, 0
2, 81344, Note_on_c, 0, 31, 62
2, 81391, Note_on_c, 0, 62, 0
2, 81409, Note_on_c, 0, 38, 0
2, 81413, Control_c, 0, 64, 127
2, 81420, Note_on_c, 0, 67, 60
2, 81421, Note_on_c, 0, 43, 74
2, 81443, Note_on_c, 0, 67, 0
2, 81456, Note_on_c, 0, 55, 71
2, 81479, Note_on_c, 0, 55, 0
2, 81510, Note_on_c, 0, 33, 73
2, 81528, Note_on_c, 0, 55, 76
2, 81528, Note_on_c, 0, 67, 63
2, 81539, Note_on_c, 0, 34, 78
2, 81551, Note_on_c, 0, 55, 0
2, 81560, Note_on_c, 0, 67, 0
2, 81561, Control_c, 0, 64, 0
2, 81569, Note_on_c, 0, 33, 0
2, 81583, Note_on_c, 0, 36, 80
2, 81589, Note_on_c, 0, 67, 67
2, 81590, Note_on_c, 0, 55, 81
2, 81597, Note_on_c, 0, 34, 0
2, 81614, Note_on_c, 0, 36, 0
2, 81617, Note_on_c, 0, 38, 79
2, 81630, Note_on_c, 0, 67, 0
2, 81630, Note_on_c, 0, 55, 0
2, 81649, Note_on_c, 0, 38, 0
2, 81651, Note_on_c, 0, 55, 83
2, 81651, Note_on_c, 0, 67, 68
2, 81653, Control_c, 0, 64, 127
2, 81653, Note_on_c, 0, 39, 85
2, 81673, Note_on_c, 0, 67, 0
2, 81673, Note_on_c, 0, 55, 0
2, 81674, Note_on_c, 0, 39, 0
2, 81695, Note_on_c, 0, 38, 83
2, 81700, Note_on_c, 0, 43, 0
2, 81702, Note_on_c, 0, 67, 68
2, 81703, Note_on_c, 0, 55, 86
2, 81709, Note_on_c, 0, 31, 0
2, 81725, Note_on_c, 0, 67, 0
2, 81726, Note_on_c, 0, 55, 0
2, 81727, Note_on_c, 0, 38, 0
2, 81772, Note_on_c, 0, 67, 68
2, 81773, Note_on_c, 0, 55, 77
2, 81795, Note_on_c, 0, 67, 0
2, 81796, Note_on_c, 0, 55, 0
2, 81818, Note_on_c, 0, 34, 77
2, 81825, Note_on_c, 0, 67, 68
2, 81826, Note_on_c, 0, 55, 79
2, 81827, Note_on_c, 0, 46, 80
2, 81849, Note_on_c, 0, 55, 0
2, 81850, Note_on_c, 0, 46, 0
2, 81857, Note_on_c, 0, 67, 0
2, 81859, Note_on_c, 0, 34, 0
2, 81887, Note_on_c, 0, 67, 67
2, 81888, Note_on_c, 0, 55, 76
2, 81903, Control_c, 0, 64, 0
2, 81910, Note_on_c, 0, 67, 0
2, 81911, Note_on_c, 0, 55, 0
2, 81933, Note_on_c, 0, 31, 82
2, 81960, Note_on_c, 0, 38, 83
2, 81967, Note_on_c, 0, 67, 75
2, 81968, Note_on_c, 0, 55, 80
2, 81969, Note_on_c, 0, 43, 79
2, 82026, Note_on_c, 0, 31, 0
2, 82031, Control_c, 0, 64, 127
2, 82034, Note_on_c, 0, 67, 0
2, 82035, Note_on_c, 0, 55, 0
2, 82036, Note_on_c, 0, 43, 0
2, 82054, Note_on_c, 0, 38, 0
2, 82056, Note_on_c, 0, 67, 85
2, 82057, Note_on_c, 0, 55, 88
2, 82058, Note_on_c, 0, 31, 87
2, 82058, Note_on_c, 0, 43, 87
2, 82078, Note_on_c, 0, 67, 0
2, 82079, Note_on_c, 0, 55, 0
2, 82080, Note_on_c, 0, 31, 0
2, 82080, Note_on_c, 0, 43, 0
2, 82111, Note_on_c, 0, 43, 83
2, 82112, Note_on_c, 0, 31, 81
2, 82118, Note_on_c, 0, 55, 80
2, 82118, Note_on_c, 0, 67, 81
2, 82134, Note_on_c, 0, 43, 0
2, 82135, Note_on_c, 0, 31, 0
2, 82141, Note_on_c, 0, 67, 0
2, 82142, Note_on_c, 0, 55, 0
2, 82152, Control_c, 0, 64, 0
2, 82172, Note_on_c, 0, 67, 76
2, 82173, Note_on_c, 0, 55, 76
2, 82174, Note_on_c, 0, 31, 79
2, 82174, Note_on_c, 0, 43, 80
2, 82195, Note_on_c, 0, 67, 0
2, 82196, Note_on_c, 0, 55, 0
2, 82197, Note_on_c, 0, 31, 0
2, 82197, Note_on_c, 0, 43, 0
2, 82226, Note_on_c, 0, 31, 82
2, 82226, Note_on_c, 0, 43, 83
2, 82226, Note_on_c, 0, 69, 83
2, 82234, Note_on_c, 0, 57, 82
2, 82235, Note_on_c, 0, 55, 83
2, 82235, Note_on_c, 0, 45, 83
2, 82243, Note_on_c, 0, 63, 83
2, 82266, Note_on_c, 0, 63, 0
2, 82267, Note_on_c, 0, 31, 0
2, 82272, Control_c, 0, 64, 127
2, 82275, Note_on_c, 0, 45, 0
2, 82276, Note_on_c, 0, 69, 0
2, 82277, Note_on_c, 0, 43, 0
2, 82284, Note_on_c, 0, 57, 0
2, 82285, Note_on_c, 0, 55, 0
2, 82306, Note_on_c, 0, 57, 83
2, 82307, Note_on_c, 0, 45, 83
2, 82307, Note_on_c, 0, 43, 83
2, 82307, Note_on_c, 0, 55, 83
2, 82307, Note_on_c, 0, 69, 84
2, 82308, Note_on_c, 0, 31, 82
2, 82308, Note_on_c, 0, 39, 83
2, 82316, Note_on_c, 0, 63, 84
2, 82330, Note_on_c, 0, 57, 0
2, 82331, Note_on_c, 0, 69, 0
2, 82331, Note_on_c, 0, 45, 0
2, 82331, Note_on_c, 0, 55, 0
2, 82332, Note_on_c, 0, 31, 0
2, 82332, Note_on_c, 0, 43, 0
2, 82332, Note_on_c, 0, 39, 0
2, 82340, Note_on_c, 0, 63, 0
2, 82360, Note_on_c, 0, 45, 93
2, 82360, Note_on_c, 0, 55, 93
2, 82360, Note_on_c, 0, 57, 92
2, 82361, Note_on_c, 0, 63, 93
2, 82361, Note_on_c, 0, 69, 88
2, 82362, Note_on_c, 0, 31, 93
2, 82362, Note_on_c, 0, 39, 93
2, 82362, Note_on_c, 0, 43, 92
2, 82382, Note_on_c, 0, 57, 0
2, 82383, Note_on_c, 0, 45, 0
2, 82383, Note_on_c, 0, 55, 0
2, 82384, Note_on_c, 0, 63, 0
2, 82384, Note_on_c, 0, 69, 0
2, 82384, Note_on_c, 0, 43, 0
2, 82385, Note_on_c, 0, 39, 0
2, 82385, Note_on_c, 0, 31, 0
2, 82414, Note_on_c, 0, 55, 95
2, 82414, Note_on_c, 0, 57, 96
2, 82415, Note_on_c, 0, 45, 97
2, 82415, Note_on_c, 0, 63, 97
2, 82415, Note_on_c, 0, 69, 94
2, 82416, Note_on_c, 0, 39, 96
2, 82416, Note_on_c, 0, 43, 97
2, 82417, Note_on_c, 0, 31, 96
2, 82437, Note_on_c, 0, 57, 0
2, 82438, Note_on_c, 0, 69, 0
2, 82438, Note_on_c, 0, 55, 0
2, 82438, Note_on_c, 0, 45, 0
2, 82439, Note_on_c, 0, 43, 0
2, 82440, Note_on_c, 0, 39, 0
2, 82441, Control_c, 0, 64, 0
2, 82457, Note_on_c, 0, 63, 0
2, 82479, Note_on_c, 0, 38, 92
2, 82501, Note_on_c, 0, 31, 0
2, 82503, Note_on_c, 0, 62, 93
2, 82503, Note_on_c, 0, 70, 94
2, 82504, Note_on_c, 0, 58, 93
2, 82505, Note_on_c, 0, 43, 93
2, 82514, Control_c, 0, 64, 127
2, 82519, Note_on_c, 0, 38, 0
2, 82536, Note_on_c, 0, 58, 0
2, 82536, Note_on_c, 0, 62, 0
2, 82544, Note_on_c, 0, 70, 0
2, 82575, Note_on_c, 0, 45, 88
2, 82583, Note_on_c, 0, 62, 86
2, 82583, Note_on_c, 0, 70, 84
2, 82584, Note_on_c, 0, 58, 85
2, 82606, Note_on_c, 0, 70, 0
2, 82606, Note_on_c, 0, 62, 0
2, 82606, Note_on_c, 0, 45, 0
2, 82607, Note_on_c, 0, 58, 0
2, 82612, Note_on_c, 0, 46, 79
2, 82626, Note_on_c, 0, 43, 0
2, 82637, Note_on_c, 0, 48, 80
2, 82637, Note_on_c, 0, 62, 81
2, 82637, Note_on_c, 0, 70, 79
2, 82638, Note_on_c, 0, 58, 82
2, 82643, Note_on_c, 0, 46, 0
2, 82659, Note_on_c, 0, 70, 0
2, 82660, Note_on_c, 0, 62, 0
2, 82661, Note_on_c, 0, 58, 0
2, 82664, Note_on_c, 0, 50, 81
2, 82668, Note_on_c, 0, 48, 0
2, 82690, Note_on_c, 0, 62, 80
2, 82690, Note_on_c, 0, 70, 74
2, 82691, Note_on_c, 0, 58, 78
2, 82695, Note_on_c, 0, 50, 0
2, 82700, Note_on_c, 0, 51, 76
2, 82713, Note_on_c, 0, 70, 0
2, 82714, Note_on_c, 0, 62, 0
2, 82715, Note_on_c, 0, 58, 0
2, 82732, Note_on_c, 0, 51, 0
2, 82735, Note_on_c, 0, 62, 77
2, 82735, Note_on_c, 0, 70, 71
2, 82736, Note_on_c, 0, 50, 78
2, 82737, Note_on_c, 0, 58, 79
2, 82759, Note_on_c, 0, 70, 0
2, 82760, Note_on_c, 0, 62, 0
2, 82761, Note_on_c, 0, 58, 0
2, 82786, Note_on_c, 0, 50, 0
2, 82798, Note_on_c, 0, 62, 72
2, 82798, Note_on_c, 0, 70, 69
2, 82799, Note_on_c, 0, 58, 71
2, 82820, Note_on_c, 0, 70, 0
2, 82821, Note_on_c, 0, 58, 0
2, 82821, Note_on_c, 0, 62, 0
2, 82851, Note_on_c, 0, 62, 71
2, 82851, Note_on_c, 0, 70, 69
2, 82852, Note_on_c, 0, 46, 74
2, 82852, Note_on_c, 0, 58, 75
2, 82853, Note_on_c, 0, 34, 76
2, 82874, Note_on_c, 0, 70, 0
2, 82875, Note_on_c, 0, 62, 0
2, 82876, Note_on_c, 0, 58, 0
2, 82876, Note_on_c, 0, 46, 0
2, 82877, Note_on_c, 0, 34, 0
2, 82877, Control_c, 0, 64, 0
2, 82905, Note_on_c, 0, 62, 68
2, 82905, Note_on_c, 0, 70, 69
2, 82906, Note_on_c, 0, 58, 68
2, 82928, Note_on_c, 0, 62, 0
2, 82929, Note_on_c, 0, 58, 0
2, 82936, Note_on_c, 0, 70, 0
2, 82958, Note_on_c, 0, 67, 68
2, 82959, Note_on_c, 0, 70, 69
2, 82960, Note_on_c, 0, 43, 71
2, 82960, Note_on_c, 0, 58, 72
2, 82961, Note_on_c, 0, 31, 73
2, 82961, Note_on_c, 0, 34, 74
2, 82983, Note_on_c, 0, 43, 0
2, 82993, Note_on_c, 0, 34, 0
2, 83000, Note_on_c, 0, 70, 0
2, 83001, Note_on_c, 0, 67, 0
2, 83002, Note_on_c, 0, 31, 0
2, 83002, Note_on_c, 0, 58, 0
2, 83005, Control_c, 0, 64, 127
2, 83023, Note_on_c, 0, 43, 70
2, 83024, Note_on_c, 0, 31, 71
2, 83024, Note_on_c, 0, 34, 72
2, 83030, Note_on_c, 0, 67, 68
2, 83030, Note_on_c, 0, 70, 69
2, 83031, Note_on_c, 0, 58, 73
2, 83045, Note_on_c, 0, 31, 0
2, 83045, Note_on_c, 0, 43, 0
2, 83046, Note_on_c, 0, 34, 0
2, 83053, Note_on_c, 0, 70, 0
2, 83054, Note_on_c, 0, 58, 0
2, 83062, Note_on_c, 0, 67, 0
2, 83084, Note_on_c, 0, 67, 68
2, 83085, Note_on_c, 0, 58, 71
2, 83086, Note_on_c, 0, 31, 72
2, 83086, Note_on_c, 0, 43, 73
2, 83087, Note_on_c, 0, 34, 74
2, 83094, Note_on_c, 0, 70, 69
2, 83109, Note_on_c, 0, 43, 0
2, 83109, Note_on_c, 0, 58, 0
2, 83110, Note_on_c, 0, 34, 0
2, 83110, Note_on_c, 0, 31, 0
2, 83118, Note_on_c, 0, 67, 0
2, 83118, Note_on_c, 0, 70, 0
2, 83131, Note_on_c, 0, 43, 71
2, 83132, Note_on_c, 0, 31, 73
2, 83132, Note_on_c, 0, 34, 74
2, 83140, Note_on_c, 0, 58, 75
2, 83147, Note_on_c, 0, 67, 68
2, 83148, Note_on_c, 0, 70, 69
2, 83154, Note_on_c, 0, 34, 0
2, 83154, Note_on_c, 0, 43, 0
2, 83155, Note_on_c, 0, 31, 0
2, 83163, Note_on_c, 0, 58, 0
2, 83171, Note_on_c, 0, 70, 0
2, 83171, Note_on_c, 0, 67, 0
2, 83184, Note_on_c, 0, 45, 75
2, 83185, Note_on_c, 0, 39, 77
2, 83185, Note_on_c, 0, 43, 78
2, 83186, Note_on_c, 0, 31, 79
2, 83193, Note_on_c, 0, 67, 74
2, 83194, Note_on_c, 0, 60, 80
2, 83195, Note_on_c, 0, 69, 76
2, 83195, Note_on_c, 0, 72, 77
2, 83208, Note_on_c, 0, 45, 0
2, 83209, Note_on_c, 0, 31, 0
2, 83210, Note_on_c, 0, 39, 0
2, 83210, Note_on_c, 0, 43, 0
2, 83216, Note_on_c, 0, 67, 0
2, 83217, Note_on_c, 0, 72, 0
2, 83218, Note_on_c, 0, 60, 0
2, 83218, Note_on_c, 0, 69, 0
2, 83239, Note_on_c, 0, 67, 84
2, 83240, Note_on_c, 0, 45, 86
2, 83240, Note_on_c, 0, 60, 87
2, 83240, Note_on_c, 0, 72, 87
2, 83241, Note_on_c, 0, 43, 88
2, 83241, Note_on_c, 0, 69, 88
2, 83263, Note_on_c, 0, 72, 0
2, 83263, Note_on_c, 0, 60, 0
2, 83263, Note_on_c, 0, 67, 0
2, 83263, Note_on_c, 0, 45, 0
2, 83264, Note_on_c, 0, 69, 0
2, 83265, Note_on_c, 0, 43, 0
2, 83293, Note_on_c, 0, 67, 94
2, 83294, Note_on_c, 0, 45, 92
2, 83294, Note_on_c, 0, 60, 92
2, 83295, Note_on_c, 0, 43, 91
2, 83295, Note_on_c, 0, 72, 94
2, 83296, Note_on_c, 0, 31, 92
2, 83296, Note_on_c, 0, 33, 92
2, 83296, Note_on_c, 0, 39, 91
2, 83296, Note_on_c, 0, 69, 93
2, 83316, Note_on_c, 0, 67, 0
2, 83317, Note_on_c, 0, 45, 0
2, 83317, Note_on_c, 0, 60, 0
2, 83318, Note_on_c, 0, 69, 0
2, 83318, Note_on_c, 0, 72, 0
2, 83319, Note_on_c, 0, 33, 0
2, 83319, Note_on_c, 0, 39, 0
2, 83319, Note_on_c, 0, 43, 0
2, 83319, Note_on_c, 0, 31, 0
2, 83320, Control_c, 0, 64, 0
2, 83339, Note_on_c, 0, 67, 95
2, 83340, Note_on_c, 0, 45, 101
2, 83340, Note_on_c, 0, 60, 102
2, 83340, Note_on_c, 0, 72, 98
2, 83341, Note_on_c, 0, 39, 101
2, 83341, Note_on_c, 0, 43, 102
2, 83341, Note_on_c, 0, 69, 99
2, 83342, Note_on_c, 0, 31, 101
2, 83342, Note_on_c, 0, 33, 102
2, 83363, Note_on_c, 0, 72, 0
2, 83363, Note_on_c, 0, 60, 0
2, 83363, Note_on_c, 0, 67, 0
2, 83363, Note_on_c, 0, 45, 0
2, 83364, Note_on_c, 0, 43, 0
2, 83364, Note_on_c, 0, 31, 0
2, 83364, Note_on_c, 0, 33, 0
2, 83364, Note_on_c, 0, 69, 0
2, 83365, Note_on_c, 0, 39, 0
2, 83386, Note_on_c, 0, 31, 100
2, 83392, Note_on_c, 0, 62, 98
2, 83392, Note_on_c, 0, 74, 103
2, 83395, Note_on_c, 0, 34, 97
2, 83401, Note_on_c, 0, 67, 103
2, 83401, Note_on_c, 0, 70, 104
2, 83419, Note_on_c, 0, 43, 99
2, 83424, Note_on_c, 0, 62, 0
2, 83429, Control_c, 0, 64, 127
2, 83432, Note_on_c, 0, 67, 0
2, 83432, Note_on_c, 0, 74, 0
2, 83432, Note_on_c, 0, 70, 0
2, 83434, Note_on_c, 0, 34, 0
2, 83442, Note_on_c, 0, 43, 0
2, 83452, Note_on_c, 0, 31, 0
2, 83453, Note_on_c, 0, 67, 95
2, 83453, Note_on_c, 0, 74, 95
2, 83454, Note_on_c, 0, 62, 96
2, 83454, Note_on_c, 0, 70, 93
2, 83472, Note_on_c, 0, 45, 98
2, 83477, Note_on_c, 0, 62, 0
2, 83484, Note_on_c, 0, 67, 0
2, 83489, Note_on_c, 0, 46, 98
2, 83493, Note_on_c, 0, 74, 0
2, 83493, Note_on_c, 0, 70, 0
2, 83495, Control_c, 0, 64, 0
2, 83503, Note_on_c, 0, 45, 0
2, 83507, Note_on_c, 0, 48, 95
2, 83514, Note_on_c, 0, 67, 85
2, 83514, Note_on_c, 0, 74, 85
2, 83515, Note_on_c, 0, 62, 94
2, 83515, Note_on_c, 0, 70, 84
2, 83521, Note_on_c, 0, 46, 0
2, 83532, Note_on_c, 0, 50, 94
2, 83537, Note_on_c, 0, 67, 0
2, 83537, Note_on_c, 0, 74, 0
2, 83537, Note_on_c, 0, 70, 0
2, 83538, Note_on_c, 0, 48, 0
2, 83538, Note_on_c, 0, 62, 0
2, 83555, Note_on_c, 0, 50, 0
2, 83558, Note_on_c, 0, 67, 78
2, 83558, Note_on_c, 0, 74, 78
2, 83559, Note_on_c, 0, 51, 93
2, 83580, Note_on_c, 0, 74, 0
2, 83581, Note_on_c, 0, 67, 0
2, 83582, Note_on_c, 0, 51, 0
2, 83594, Note_on_c, 0, 50, 93
2, 83602, Note_on_c, 0, 67, 75
2, 83602, Note_on_c, 0, 74, 76
2, 83603, Note_on_c, 0, 62, 95
2, 83603, Note_on_c, 0, 70, 76
2, 83625, Note_on_c, 0, 74, 0
2, 83625, Note_on_c, 0, 67, 0
2, 83626, Note_on_c, 0, 62, 0
2, 83633, Note_on_c, 0, 70, 0
2, 83634, Note_on_c, 0, 50, 0
2, 83639, Control_c, 0, 64, 127
2, 83654, Note_on_c, 0, 67, 75
2, 83655, Note_on_c, 0, 62, 88
2, 83655, Note_on_c, 0, 70, 77
2, 83655, Note_on_c, 0, 74, 78
2, 83677, Note_on_c, 0, 74, 0
2, 83677, Note_on_c, 0, 67, 0
2, 83678, Note_on_c, 0, 62, 0
2, 83686, Note_on_c, 0, 70, 0
2, 83700, Note_on_c, 0, 46, 88
2, 83701, Note_on_c, 0, 34, 89
2, 83708, Note_on_c, 0, 62, 90
2, 83708, Note_on_c, 0, 67, 82
2, 83708, Note_on_c, 0, 70, 84
2, 83708, Note_on_c, 0, 74, 83
2, 83723, Note_on_c, 0, 46, 0
2, 83724, Note_on_c, 0, 34, 0
2, 83732, Note_on_c, 0, 62, 0
2, 83732, Note_on_c, 0, 67, 0
2, 83732, Note_on_c, 0, 74, 0
2, 83734, Control_c, 0, 64, 0
2, 83753, Note_on_c, 0, 74, 84
2, 83754, Note_on_c, 0, 62, 88
2, 83754, Note_on_c, 0, 67, 83
2, 83764, Note_on_c, 0, 31, 89
2, 83775, Note_on_c, 0, 74, 0
2, 83776, Note_on_c, 0, 62, 0
2, 83784, Note_on_c, 0, 67, 0
2, 83802, Note_on_c, 0, 70, 0
2, 83817, Control_c, 0, 64, 127
2, 83817, Note_on_c, 0, 43, 95
2, 83833, Note_on_c, 0, 62, 99
2, 83833, Note_on_c, 0, 74, 89
2, 83857, Note_on_c, 0, 43, 0
2, 83864, Note_on_c, 0, 74, 0
2, 83865, Note_on_c, 0, 62, 0
2, 83867, Note_on_c, 0, 31, 0
2, 83903, Note_on_c, 0, 65, 94
2, 83904, Note_on_c, 0, 71, 93
2, 83905, Note_on_c, 0, 31, 93
2, 83905, Note_on_c, 0, 38, 92
2, 83905, Note_on_c, 0, 43, 91
2, 83906, Note_on_c, 0, 35, 90
2, 83925, Note_on_c, 0, 65, 0
2, 83927, Note_on_c, 0, 71, 0
2, 83928, Note_on_c, 0, 43, 0
2, 83928, Note_on_c, 0, 31, 0
2, 83929, Note_on_c, 0, 38, 0
2, 83929, Note_on_c, 0, 35, 0
2, 83956, Note_on_c, 0, 65, 88
2, 83957, Note_on_c, 0, 71, 87
2, 83958, Note_on_c, 0, 31, 83
2, 83958, Note_on_c, 0, 35, 82
2, 83958, Note_on_c, 0, 38, 81
2, 83958, Note_on_c, 0, 43, 80
2, 83978, Note_on_c, 0, 65, 0
2, 83979, Note_on_c, 0, 71, 0
2, 83980, Note_on_c, 0, 38, 0
2, 83980, Note_on_c, 0, 35, 0
2, 83980, Note_on_c, 0, 43, 0
2, 83980, Note_on_c, 0, 31, 0
2, 83999, Note_on_c, 0, 65, 81
2, 84000, Note_on_c, 0, 71, 84
2, 84001, Note_on_c, 0, 31, 78
2, 84001, Note_on_c, 0, 38, 79
2, 84001, Note_on_c, 0, 43, 80
2, 84002, Note_on_c, 0, 35, 81
2, 84022, Note_on_c, 0, 65, 0
2, 84023, Note_on_c, 0, 71, 0
2, 84024, Note_on_c, 0, 43, 0
2, 84024, Note_on_c, 0, 31, 0
2, 84025, Note_on_c, 0, 38, 0
2, 84025, Note_on_c, 0, 35, 0
2, 84054, Note_on_c, 0, 43, 83
2, 84055, Note_on_c, 0, 31, 82
2, 84055, Note_on_c, 0, 38, 81
2, 84061, Note_on_c, 0, 67, 89
2, 84062, Note_on_c, 0, 79, 91
2, 84078, Note_on_c, 0, 43, 0
2, 84079, Note_on_c, 0, 31, 0
2, 84087, Note_on_c, 0, 38, 0
2, 84124, Note_on_c, 0, 74, 85
2, 84125, Note_on_c, 0, 71, 84
2, 84126, Note_on_c, 0, 43, 82
2, 84127, Note_on_c, 0, 38, 83
2, 84128, Note_on_c, 0, 31, 83
2, 84147, Note_on_c, 0, 67, 0
2, 84148, Note_on_c, 0, 74, 0
2, 84149, Note_on_c, 0, 71, 0
2, 84149, Note_on_c, 0, 79, 0
2, 84150, Note_on_c, 0, 43, 0
2, 84151, Note_on_c, 0, 31, 0
2, 84151, Note_on_c, 0, 38, 0
2, 84179, Note_on_c, 0, 74, 84
2, 84179, Note_on_c, 0, 71, 84
2, 84180, Note_on_c, 0, 43, 83
2, 84181, Note_on_c, 0, 31, 83
2, 84181, Note_on_c, 0, 38, 83
2, 84202, Note_on_c, 0, 74, 0
2, 84203, Note_on_c, 0, 71, 0
2, 84203, Note_on_c, 0, 43, 0
2, 84204, Note_on_c, 0, 31, 0
2, 84222, Note_on_c, 0, 38, 0
2, 84226, Note_on_c, 0, 31, 83
2, 84230, Control_c, 0, 64, 0
2, 84241, Note_on_c, 0, 62, 83
2, 84241, Note_on_c, 0, 74, 87
2, 84242, Note_on_c, 0, 43, 83
2, 84248, Note_on_c, 0, 31, 0
2, 84292, Note_on_c, 0, 43, 0
2, 84305, Note_on_c, 0, 36, 79
2, 84334, Note_on_c, 0, 74, 0
2, 84335, Note_on_c, 0, 62, 0
2, 84359, Control_c, 0, 64, 127
2, 84367, Note_on_c, 0, 63, 81
2, 84368, Note_on_c, 0, 38, 82
2, 84368, Note_on_c, 0, 75, 88
2, 84404, Note_on_c, 0, 39, 83
2, 84418, Note_on_c, 0, 38, 0
2, 84419, Note_on_c, 0, 67, 89
2, 84420, Note_on_c, 0, 72, 89
2, 84430, Note_on_c, 0, 41, 85
2, 84443, Note_on_c, 0, 72, 0
2, 84443, Note_on_c, 0, 67, 0
2, 84452, Note_on_c, 0, 39, 0
2, 84460, Note_on_c, 0, 75, 0
2, 84460, Note_on_c, 0, 63, 0
2, 84465, Note_on_c, 0, 43, 84
2, 84470, Note_on_c, 0, 41, 0
2, 84471, Note_on_c, 0, 67, 82
2, 84472, Note_on_c, 0, 72, 82
2, 84494, Note_on_c, 0, 67, 0
2, 84495, Note_on_c, 0, 72, 0
2, 84505, Note_on_c, 0, 43, 0
2, 84508, Note_on_c, 0, 44, 84
2, 84515, Note_on_c, 0, 67, 77
2, 84516, Note_on_c, 0, 72, 77
2, 84539, Note_on_c, 0, 72, 0
2, 84539, Note_on_c, 0, 67, 0
2, 84540, Note_on_c, 0, 44, 0
2, 84554, Note_on_c, 0, 43, 83
2, 84560, Note_on_c, 0, 67, 72
2, 84561, Note_on_c, 0, 72, 72
2, 84583, Note_on_c, 0, 67, 0
2, 84584, Note_on_c, 0, 72, 0
2, 84602, Note_on_c, 0, 36, 0
2, 84611, Note_on_c, 0, 67, 68
2, 84612, Note_on_c, 0, 72, 69
2, 84635, Note_on_c, 0, 72, 0
2, 84635, Note_on_c, 0, 67, 0
2, 84636, Note_on_c, 0, 43, 0
2, 84650, Note_on_c, 0, 39, 76
2, 84666, Note_on_c, 0, 67, 68
2, 84667, Note_on_c, 0, 72, 69
2, 84689, Note_on_c, 0, 67, 0
2, 84690, Note_on_c, 0, 72, 0
2, 84719, Note_on_c, 0, 67, 67
2, 84720, Note_on_c, 0, 72, 69
2, 84721, Note_on_c, 0, 36, 79
2, 84734, Note_on_c, 0, 39, 0
2, 84741, Note_on_c, 0, 67, 0
2, 84751, Note_on_c, 0, 72, 0
2, 84770, Control_c, 0, 64, 0
2, 84779, Note_on_c, 0, 60, 73
2, 84798, Note_on_c, 0, 48, 75
2, 84803, Note_on_c, 0, 60, 0
2, 84816, Note_on_c, 0, 72, 69
2, 84833, Note_on_c, 0, 60, 75
2, 84838, Note_on_c, 0, 72, 0
2, 84855, Note_on_c, 0, 60, 0
2, 84869, Note_on_c, 0, 72, 69
2, 84887, Control_c, 0, 64, 127
2, 84891, Note_on_c, 0, 72, 0
2, 84895, Note_on_c, 0, 60, 70
2, 84917, Note_on_c, 0, 60, 0
2, 84922, Note_on_c, 0, 72, 69
2, 84944, Note_on_c, 0, 72, 0
2, 84947, Note_on_c, 0, 60, 72
2, 84964, Note_on_c, 0, 36, 0
2, 84971, Note_on_c, 0, 60, 0
2, 84975, Note_on_c, 0, 72, 73
2, 84980, Note_on_c, 0, 48, 0
2, 84982, Control_c, 0, 64, 0
2, 85007, Note_on_c, 0, 72, 0
2, 85011, Note_on_c, 0, 60, 75
2, 85029, Note_on_c, 0, 37, 73
2, 85029, Note_on_c, 0, 49, 74
2, 85034, Note_on_c, 0, 60, 0
2, 85038, Note_on_c, 0, 72, 76
2, 85060, Note_on_c, 0, 72, 0
2, 85063, Note_on_c, 0, 60, 75
2, 85086, Note_on_c, 0, 60, 0
2, 85090, Note_on_c, 0, 72, 76
2, 85091, Control_c, 0, 64, 127
2, 85113, Note_on_c, 0, 49, 0
2, 85114, Note_on_c, 0, 37, 0
2, 85115, Control_c, 0, 64, 0
2, 85121, Note_on_c, 0, 72, 0
2, 85125, Note_on_c, 0, 60, 75
2, 85143, Note_on_c, 0, 72, 76
2, 85148, Note_on_c, 0, 60, 0
2, 85152, Note_on_c, 0, 50, 77
2, 85154, Note_on_c, 0, 38, 78
2, 85170, Control_c, 0, 64, 127
2, 85175, Note_on_c, 0, 72, 0
2, 85178, Note_on_c, 0, 60, 75
2, 85201, Note_on_c, 0, 60, 0
2, 85203, Control_c, 0, 64, 0
2, 85205, Note_on_c, 0, 72, 76
2, 85211, Note_on_c, 0, 38, 0
2, 85235, Note_on_c, 0, 72, 0
2, 85235, Note_on_c, 0, 50, 0
2, 85240, Note_on_c, 0, 60, 75
2, 85259, Note_on_c, 0, 51, 77
2, 85259, Note_on_c, 0, 39, 79
2, 85263, Note_on_c, 0, 60, 0
2, 85268, Note_on_c, 0, 72, 76
2, 85290, Note_on_c, 0, 72, 0
2, 85304, Note_on_c, 0, 60, 78
2, 85321, Note_on_c, 0, 72, 76
2, 85326, Note_on_c, 0, 60, 0
2, 85335, Note_on_c, 0, 51, 0
2, 85345, Note_on_c, 0, 39, 0
2, 85355, Note_on_c, 0, 52, 78
2, 85355, Note_on_c, 0, 60, 79
2, 85356, Note_on_c, 0, 40, 80
2, 85360, Note_on_c, 0, 72, 0
2, 85379, Note_on_c, 0, 60, 0
2, 85392, Note_on_c, 0, 72, 76
2, 85423, Note_on_c, 0, 72, 0
2, 85427, Note_on_c, 0, 60, 80
2, 85432, Note_on_c, 0, 52, 0
2, 85432, Note_on_c, 0, 40, 0
2, 85446, Control_c, 0, 64, 127
2, 85451, Note_on_c, 0, 60, 0
2, 85453, Note_on_c, 0, 53, 86
2, 85454, Note_on_c, 0, 72, 87
2, 85455, Note_on_c, 0, 41, 87
2, 85485, Note_on_c, 0, 72, 0
2, 85485, Note_on_c, 0, 53, 0
2, 85486, Note_on_c, 0, 41, 0
2, 85489, Note_on_c, 0, 60, 93
2, 85512, Note_on_c, 0, 60, 0
2, 85517, Note_on_c, 0, 72, 92
2, 85543, Note_on_c, 0, 55, 97
2, 85544, Note_on_c, 0, 43, 99
2, 85551, Note_on_c, 0, 60, 100
2, 85556, Note_on_c, 0, 72, 0
2, 85565, Note_on_c, 0, 55, 0
2, 85573, Note_on_c, 0, 60, 0
2, 85574, Note_on_c, 0, 43, 0
2, 85577, Note_on_c, 0, 72, 97
2, 85591, Note_on_c, 0, 72, 0
2, 85611, Note_on_c, 0, 60, 102
2, 85620, Note_on_c, 0, 72, 101
2, 85634, Note_on_c, 0, 60, 0
2, 85651, Note_on_c, 0, 72, 0
2, 85670, Control_c, 0, 64, 0
2, 85690, Note_on_c, 0, 68, 104
2, 85691, Note_on_c, 0, 44, 102
2, 85691, Note_on_c, 0, 60, 102
2, 85691, Note_on_c, 0, 63, 101
2, 85691, Note_on_c, 0, 72, 106
2, 85691, Note_on_c, 0, 32, 102
2, 85691, Note_on_c, 0, 39, 102
2, 85783, Note_on_c, 0, 60, 0
2, 85784, Note_on_c, 0, 63, 0
2, 85788, Control_c, 0, 64, 127
2, 85792, Note_on_c, 0, 44, 0
2, 85793, Note_on_c, 0, 32, 0
2, 85801, Note_on_c, 0, 68, 0
2, 85801, Note_on_c, 0, 72, 0
2, 85802, Note_on_c, 0, 39, 0
2, 85813, Note_on_c, 0, 48, 84
2, 85813, Note_on_c, 0, 60, 83
2, 85813, Note_on_c, 0, 63, 82
2, 85814, Note_on_c, 0, 51, 81
2, 85814, Note_on_c, 0, 56, 82
2, 85836, Note_on_c, 0, 56, 0
2, 85836, Note_on_c, 0, 60, 0
2, 85837, Note_on_c, 0, 51, 0
2, 85837, Note_on_c, 0, 63, 0
2, 85854, Note_on_c, 0, 48, 0
2, 85859, Note_on_c, 0, 60, 87
2, 85859, Note_on_c, 0, 63, 86
2, 85859, Note_on_c, 0, 51, 85
2, 85859, Note_on_c, 0, 56, 84
2, 85882, Note_on_c, 0, 60, 0
2, 85883, Note_on_c, 0, 63, 0
2, 85883, Note_on_c, 0, 51, 0
2, 85883, Note_on_c, 0, 56, 0
2, 85904, Note_on_c, 0, 60, 81
2, 85904, Note_on_c, 0, 63, 80
2, 85920, Note_on_c, 0, 48, 79
2, 85926, Note_on_c, 0, 63, 0
2, 85926, Note_on_c, 0, 60, 0
2, 85948, Note_on_c, 0, 63, 76
2, 85949, Note_on_c, 0, 51, 75
2, 85949, Note_on_c, 0, 56, 75
2, 85971, Note_on_c, 0, 56, 0
2, 85971, Note_on_c, 0, 63, 0
2, 85972, Note_on_c, 0, 51, 0
2, 85992, Note_on_c, 0, 63, 75
2, 85993, Note_on_c, 0, 51, 75
2, 85993, Note_on_c, 0, 56, 75
2, 86015, Note_on_c, 0, 56, 0
2, 86015, Note_on_c, 0, 51, 0
2, 86015, Note_on_c, 0, 63, 0
2, 86035, Note_on_c, 0, 60, 75
2, 86036, Note_on_c, 0, 63, 75
2, 86041, Note_on_c, 0, 48, 0
2, 86068, Note_on_c, 0, 60, 0
2, 86069, Note_on_c, 0, 63, 0
2, 86089, Note_on_c, 0, 48, 75
2, 86089, Note_on_c, 0, 60, 75
2, 86089, Note_on_c, 0, 68, 93
2, 86090, Note_on_c, 0, 56, 74
2, 86091, Note_on_c, 0, 51, 75
2, 86113, Note_on_c, 0, 60, 0
2, 86113, Note_on_c, 0, 48, 0
2, 86114, Note_on_c, 0, 56, 0
2, 86123, Note_on_c, 0, 51, 0
2, 86144, Note_on_c, 0, 60, 75
2, 86161, Note_on_c, 0, 48, 75
2, 86162, Note_on_c, 0, 51, 75
2, 86162, Note_on_c, 0, 56, 75
2, 86170, Note_on_c, 0, 63, 74
2, 86183, Note_on_c, 0, 68, 0
2, 86184, Note_on_c, 0, 56, 0
2, 86184, Note_on_c, 0, 60, 0
2, 86184, Note_on_c, 0, 48, 0
2, 86185, Note_on_c, 0, 51, 0
2, 86194, Note_on_c, 0, 63, 0
2, 86202, Control_c, 0, 64, 0
2, 86222, Note_on_c, 0, 55, 75
2, 86223, Note_on_c, 0, 44, 75
2, 86248, Note_on_c, 0, 61, 77
2, 86249, Note_on_c, 0, 73, 91
2, 86307, Note_on_c, 0, 44, 0
2, 86312, Control_c, 0, 64, 127
2, 86327, Note_on_c, 0, 64, 75
2, 86328, Note_on_c, 0, 44, 69
2, 86328, Note_on_c, 0, 49, 68
2, 86328, Note_on_c, 0, 52, 67
2, 86350, Note_on_c, 0, 64, 0
2, 86350, Note_on_c, 0, 61, 0
2, 86351, Note_on_c, 0, 49, 0
2, 86351, Note_on_c, 0, 55, 0
2, 86351, Note_on_c, 0, 52, 0
2, 86352, Note_on_c, 0, 44, 0
2, 86368, Note_on_c, 0, 73, 0
2, 86371, Note_on_c, 0, 61, 60
2, 86371, Note_on_c, 0, 64, 66
2, 86381, Note_on_c, 0, 52, 60
2, 86382, Note_on_c, 0, 44, 60
2, 86395, Note_on_c, 0, 64, 0
2, 86395, Note_on_c, 0, 61, 0
2, 86400, Note_on_c, 0, 49, 60
2, 86405, Note_on_c, 0, 52, 0
2, 86406, Note_on_c, 0, 44, 0
2, 86417, Note_on_c, 0, 61, 60
2, 86417, Note_on_c, 0, 64, 63
2, 86432, Note_on_c, 0, 49, 0
2, 86439, Note_on_c, 0, 64, 0
2, 86439, Note_on_c, 0, 61, 0
2, 86469, Note_on_c, 0, 52, 60
2, 86469, Note_on_c, 0, 70, 68
2, 86470, Note_on_c, 0, 49, 62
2, 86470, Note_on_c, 0, 58, 63
2, 86471, Note_on_c, 0, 44, 64
2, 86493, Note_on_c, 0, 52, 0
2, 86494, Note_on_c, 0, 58, 0
2, 86494, Note_on_c, 0, 44, 0
2, 86494, Note_on_c, 0, 49, 0
2, 86510, Note_on_c, 0, 70, 0
2, 86531, Note_on_c, 0, 67, 71
2, 86532, Note_on_c, 0, 52, 68
2, 86532, Note_on_c, 0, 55, 68
2, 86533, Note_on_c, 0, 44, 67
2, 86533, Note_on_c, 0, 49, 68
2, 86555, Note_on_c, 0, 52, 0
2, 86556, Note_on_c, 0, 44, 0
2, 86556, Note_on_c, 0, 49, 0
2, 86594, Note_on_c, 0, 64, 68
2, 86595, Note_on_c, 0, 52, 68
2, 86595, Note_on_c, 0, 61, 68
2, 86596, Note_on_c, 0, 44, 67
2, 86597, Note_on_c, 0, 49, 68
2, 86618, Note_on_c, 0, 61, 0
2, 86618, Note_on_c, 0, 64, 0
2, 86619, Note_on_c, 0, 52, 0
2, 86619, Note_on_c, 0, 49, 0
2, 86620, Note_on_c, 0, 44, 0
2, 86640, Note_on_c, 0, 61, 68
2, 86640, Note_on_c, 0, 64, 68
2, 86653, Note_on_c, 0, 67, 0
2, 86654, Note_on_c, 0, 55, 0
2, 86658, Note_on_c, 0, 52, 68
2, 86659, Note_on_c, 0, 49, 68
2, 86662, Note_on_c, 0, 61, 0
2, 86662, Note_on_c, 0, 64, 0
2, 86680, Note_on_c, 0, 52, 0
2, 86680, Note_on_c, 0, 49, 0
2, 86683, Note_on_c, 0, 70, 72
2, 86684, Note_on_c, 0, 58, 68
2, 86709, Note_on_c, 0, 44, 68
2, 86710, Note_on_c, 0, 49, 68
2, 86732, Note_on_c, 0, 49, 0
2, 86733, Note_on_c, 0, 44, 0
2, 86736, Note_on_c, 0, 61, 68
2, 86736, Note_on_c, 0, 64, 68
2, 86758, Note_on_c, 0, 64, 0
2, 86759, Note_on_c, 0, 61, 0
2, 86764, Note_on_c, 0, 44, 67
2, 86764, Note_on_c, 0, 49, 67
2, 86780, Note_on_c, 0, 61, 66
2, 86780, Note_on_c, 0, 64, 65
2, 86786, Note_on_c, 0, 49, 0
2, 86786, Note_on_c, 0, 44, 0
2, 86813, Control_c, 0, 64, 0
2, 86820, Note_on_c, 0, 64, 0
2, 86829, Note_on_c, 0, 61, 0
2, 86834, Note_on_c, 0, 32, 60
2, 86865, Note_on_c, 0, 70, 0
2, 86866, Note_on_c, 0, 58, 0
2, 86886, Note_on_c, 0, 68, 65
2, 86888, Note_on_c, 0, 56, 60
2, 86913, Note_on_c, 0, 44, 62
2, 86931, Control_c, 0, 64, 127
2, 86944, Note_on_c, 0, 32, 0
2, 86970, Note_on_c, 0, 44, 0
2, 86999, Note_on_c, 0, 60, 68
2, 86999, Note_on_c, 0, 63, 68
2, 87005, Note_on_c, 0, 56, 0
2, 87021, Note_on_c, 0, 60, 0
2, 87022, Note_on_c, 0, 63, 0
2, 87025, Note_on_c, 0, 48, 68
2, 87026, Note_on_c, 0, 51, 68
2, 87026, Note_on_c, 0, 56, 68
2, 87043, Note_on_c, 0, 63, 67
2, 87048, Note_on_c, 0, 48, 0
2, 87049, Note_on_c, 0, 56, 0
2, 87050, Note_on_c, 0, 51, 0
2, 87058, Note_on_c, 0, 68, 0
2, 87059, Note_on_c, 0, 63, 0
2, 87070, Note_on_c, 0, 48, 67
2, 87071, Note_on_c, 0, 51, 66
2, 87071, Note_on_c, 0, 56, 65
2, 87080, Note_on_c, 0, 60, 64
2, 87080, Note_on_c, 0, 63, 63
2, 87093, Note_on_c, 0, 48, 0
2, 87094, Note_on_c, 0, 56, 0
2, 87095, Note_on_c, 0, 51, 0
2, 87103, Note_on_c, 0, 60, 0
2, 87104, Note_on_c, 0, 63, 0
2, 87124, Note_on_c, 0, 48, 60
2, 87124, Note_on_c, 0, 60, 60
2, 87125, Note_on_c, 0, 51, 59
2, 87125, Note_on_c, 0, 56, 60
2, 87125, Note_on_c, 0, 63, 59
2, 87147, Note_on_c, 0, 56, 0
2, 87147, Note_on_c, 0, 60, 0
2, 87147, Note_on_c, 0, 48, 0
2, 87148, Note_on_c, 0, 51, 0
2, 87148, Note_on_c, 0, 63, 0
2, 87168, Note_on_c, 0, 56, 59
2, 87168, Note_on_c, 0, 60, 60
2, 87168, Note_on_c, 0, 63, 59
2, 87178, Note_on_c, 0, 48, 60
2, 87179, Note_on_c, 0, 51, 60
2, 87192, Note_on_c, 0, 60, 0
2, 87193, Note_on_c, 0, 63, 0
2, 87194, Note_on_c, 0, 56, 0
2, 87203, Note_on_c, 0, 51, 0
2, 87203, Note_on_c, 0, 48, 0
2, 87216, Note_on_c, 0, 60, 59
2, 87216, Note_on_c, 0, 63, 60
2, 87225, Note_on_c, 0, 48, 59
2, 87226, Note_on_c, 0, 51, 60
2, 87226, Note_on_c, 0, 56, 60
2, 87239, Note_on_c, 0, 60, 0
2, 87240, Note_on_c, 0, 63, 0
2, 87248, Note_on_c, 0, 48, 0
2, 87249, Note_on_c, 0, 51, 0
2, 87249, Note_on_c, 0, 56, 0
2, 87260, Note_on_c, 0, 60, 59
2, 87261, Note_on_c, 0, 63, 60
2, 87277, Note_on_c, 0, 48, 60
2, 87283, Note_on_c, 0, 63, 0
2, 87283, Note_on_c, 0, 60, 0
2, 87287, Note_on_c, 0, 56, 59
2, 87288, Note_on_c, 0, 51, 60
2, 87301, Note_on_c, 0, 48, 0
2, 87311, Note_on_c, 0, 51, 0
2, 87311, Note_on_c, 0, 56, 0
2, 87314, Note_on_c, 0, 60, 59
2, 87315, Note_on_c, 0, 63, 60
2, 87316, Control_c, 0, 67, 127
2, 87323, Note_on_c, 0, 48, 57
2, 87333, Note_on_c, 0, 56, 57
2, 87338, Note_on_c, 0, 60, 0
2, 87339, Note_on_c, 0, 63, 0
2, 87355, Note_on_c, 0, 48, 0
2, 87356, Note_on_c, 0, 56, 0
2, 87385, Note_on_c, 0, 60, 57
2, 87386, Note_on_c, 0, 63, 57
2, 87395, Note_on_c, 0, 56, 57
2, 87395, Note_on_c, 0, 51, 57
2, 87409, Note_on_c, 0, 63, 0
2, 87409, Note_on_c, 0, 60, 0
2, 87419, Note_on_c, 0, 56, 0
2, 87419, Note_on_c, 0, 51, 0
2, 87447, Note_on_c, 0, 48, 56
2, 87447, Note_on_c, 0, 60, 57
2, 87448, Note_on_c, 0, 63, 56
2, 87466, Note_on_c, 0, 51, 60
2, 87470, Note_on_c, 0, 48, 0
2, 87471, Note_on_c, 0, 60, 0
2, 87471, Note_on_c, 0, 63, 0
2, 87490, Note_on_c, 0, 51, 0
2, 87518, Note_on_c, 0, 48, 63
2, 87519, Note_on_c, 0, 60, 61
2, 87519, Note_on_c, 0, 63, 60
2, 87520, Note_on_c, 0, 51, 59
2, 87542, Note_on_c, 0, 48, 0
2, 87543, Note_on_c, 0, 60, 0
2, 87543, Note_on_c, 0, 63, 0
2, 87544, Note_on_c, 0, 51, 0
2, 87599, Note_on_c, 0, 48, 53
2, 87599, Note_on_c, 0, 60, 53
2, 87600, Note_on_c, 0, 56, 52
2, 87600, Note_on_c, 0, 63, 53
2, 87601, Note_on_c, 0, 51, 52
2, 87622, Note_on_c, 0, 60, 0
2, 87623, Note_on_c, 0, 48, 0
2, 87623, Note_on_c, 0, 56, 0
2, 87624, Note_on_c, 0, 63, 0
2, 87624, Note_on_c, 0, 51, 0
2, 87680, Note_on_c, 0, 48, 52
2, 87681, Note_on_c, 0, 51, 53
2, 87681, Note_on_c, 0, 56, 53
2, 87681, Note_on_c, 0, 60, 52
2, 87682, Note_on_c, 0, 63, 53
2, 87704, Note_on_c, 0, 60, 0
2, 87704, Note_on_c, 0, 56, 0
2, 87704, Note_on_c, 0, 48, 0
2, 87705, Note_on_c, 0, 51, 0
2, 87705, Note_on_c, 0, 63, 0
2, 87779, Note_on_c, 0, 48, 52
2, 87779, Note_on_c, 0, 60, 53
2, 87779, Note_on_c, 0, 63, 52
2, 87779, Note_on_c, 0, 51, 53
2, 87779, Note_on_c, 0, 56, 53
2, 87802, Note_on_c, 0, 60, 0
2, 87802, Note_on_c, 0, 48, 0
2, 87803, Note_on_c, 0, 51, 0
2, 87803, Note_on_c, 0, 63, 0
2, 87803, Note_on_c, 0, 56, 0
2, 87876, Note_on_c, 0, 48, 53
2, 87876, Note_on_c, 0, 60, 53
2, 87876, Note_on_c, 0, 63, 52
2, 87877, Note_on_c, 0, 51, 53
2, 87877, Note_on_c, 0, 56, 53
2, 87899, Note_on_c, 0, 60, 0
2, 87899, Note_on_c, 0, 48, 0
2, 87900, Note_on_c, 0, 51, 0
2, 87908, Note_on_c, 0, 63, 0
2, 87908, Note_on_c, 0, 56, 0
2, 87982, Note_on_c, 0, 63, 52
2, 87991, Note_on_c, 0, 48, 53
2, 87991, Note_on_c, 0, 60, 53
2, 87992, Note_on_c, 0, 51, 52
2, 87992, Note_on_c, 0, 56, 53
2, 88005, Note_on_c, 0, 63, 0
2, 88013, Note_on_c, 0, 48, 0
2, 88013, Note_on_c, 0, 60, 0
2, 88014, Note_on_c, 0, 51, 0
2, 88014, Note_on_c, 0, 56, 0
2, 88079, Note_on_c, 0, 63, 53
2, 88088, Note_on_c, 0, 60, 50
2, 88096, Note_on_c, 0, 48, 49
2, 88097, Note_on_c, 0, 56, 49
2, 88098, Note_on_c, 0, 51, 49
2, 88103, Note_on_c, 0, 63, 0
2, 88112, Note_on_c, 0, 60, 0
2, 88120, Note_on_c, 0, 56, 0
2, 88120, Note_on_c, 0, 48, 0
2, 88121, Note_on_c, 0, 51, 0
2, 88191, Note_on_c, 0, 63, 49
2, 88210, Note_on_c, 0, 48, 49
2, 88211, Note_on_c, 0, 51, 49
2, 88211, Note_on_c, 0, 56, 49
2, 88358, Note_on_c, 0, 48, 0
2, 88359, Note_on_c, 0, 63, 0
2, 88359, Note_on_c, 0, 51, 0
2, 88359, Control_c, 0, 67, 0
2, 88655, Note_on_c, 0, 56, 0
2, 88725, Control_c, 0, 64, 0
2, 89007, Note_on_c, 0, 68, 40
2, 89008, Note_on_c, 0, 56, 52
2, 89104, Control_c, 0, 64, 127
2, 89169, Note_on_c, 0, 68, 0
2, 89178, Note_on_c, 0, 56, 0
2, 89223, Note_on_c, 0, 68, 66
2, 89233, Note_on_c, 0, 56, 50
2, 89247, Control_c, 0, 64, 0
2, 89360, Note_on_c, 0, 56, 0
2, 89367, Note_on_c, 0, 68, 0
2, 89371, Note_on_c, 0, 70, 69
2, 89372, Note_on_c, 0, 58, 52
2, 89455, Note_on_c, 0, 70, 0
2, 89456, Note_on_c, 0, 58, 0
2, 89459, Note_on_c, 0, 60, 52
2, 89459, Note_on_c, 0, 72, 77
2, 89650, Control_c, 0, 64, 127
2, 89832, Control_c, 0, 67, 127
2, 89915, Control_c, 0, 64, 0
2, 89950, Note_on_c, 0, 60, 0
2, 89959, Note_on_c, 0, 72, 0
2, 89962, Note_on_c, 0, 70, 67
2, 89963, Note_on_c, 0, 58, 49
2, 90104, Control_c, 0, 64, 127
2, 90177, Note_on_c, 0, 70, 0
2, 90280, Note_on_c, 0, 58, 0
2, 90559, Control_c, 0, 64, 0
2, 90606, Note_on_c, 0, 68, 49
2, 90607, Note_on_c, 0, 56, 49
2, 90704, Control_c, 0, 64, 127
2, 90803, Control_c, 0, 64, 0
2, 90840, Note_on_c, 0, 55, 49
2, 90840, Note_on_c, 0, 67, 49
2, 90854, Note_on_c, 0, 68, 0
2, 90855, Note_on_c, 0, 56, 0
2, 91007, Control_c, 0, 64, 127
2, 91037, Note_on_c, 0, 67, 0
2, 91055, Note_on_c, 0, 55, 0
2, 91580, Note_on_c, 0, 37, 39
2, 91588, Note_on_c, 0, 52, 53
2, 91588, Note_on_c, 0, 55, 53
2, 91589, Note_on_c, 0, 49, 52
2, 91589, Note_on_c, 0, 58, 53
2, 91590, Note_on_c, 0, 40, 52
2, 91590, Note_on_c, 0, 43, 53
2, 91597, Note_on_c, 0, 64, 53
2, 91663, Note_on_c, 0, 64, 0
2, 91664, Note_on_c, 0, 37, 0
2, 91673, Note_on_c, 0, 40, 0
2, 91673, Note_on_c, 0, 43, 0
2, 91681, Note_on_c, 0, 52, 0
2, 91682, Note_on_c, 0, 49, 0
2, 91691, Note_on_c, 0, 55, 0
2, 91700, Note_on_c, 0, 58, 0
2, 91907, Control_c, 0, 64, 0
2, 91951, Control_c, 0, 67, 0
2, 92543, Control_c, 0, 67, 127
2, 92611, Note_on_c, 0, 49, 49
2, 92612, Note_on_c, 0, 37, 49
2, 92682, Control_c, 0, 64, 127
2, 92722, Note_on_c, 0, 37, 0
2, 92729, Note_on_c, 0, 49, 0
2, 93137, Control_c, 0, 64, 0
2, 93147, Note_on_c, 0, 50, 49
2, 93157, Note_on_c, 0, 38, 49
2, 93410, Control_c, 0, 64, 127
2, 93474, Control_c, 0, 67, 0
2, 93475, Note_on_c, 0, 38, 0
2, 93525, Note_on_c, 0, 50, 0
2, 93799, Control_c, 0, 67, 127
2, 94083, Note_on_c, 0, 66, 43
2, 94092, Note_on_c, 0, 50, 53
2, 94092, Note_on_c, 0, 62, 53
2, 94093, Note_on_c, 0, 45, 52
2, 94093, Note_on_c, 0, 54, 53
2, 94093, Note_on_c, 0, 60, 52
2, 94094, Note_on_c, 0, 38, 53
2, 94095, Note_on_c, 0, 42, 53
2, 94133, Note_on_c, 0, 66, 0
2, 94134, Note_on_c, 0, 54, 0
2, 94141, Note_on_c, 0, 60, 0
2, 94142, Note_on_c, 0, 62, 0
2, 94143, Note_on_c, 0, 42, 0
2, 94143, Note_on_c, 0, 38, 0
2, 94151, Note_on_c, 0, 45, 0
2, 94160, Note_on_c, 0, 50, 0
2, 94231, Control_c, 0, 64, 0
2, 94767, Note_on_c, 0, 62, 38
2, 94767, Note_on_c, 0, 67, 53
2, 94768, Note_on_c, 0, 55, 38
2, 94769, Note_on_c, 0, 58, 38
2, 94770, Note_on_c, 0, 31, 38
2, 94770, Note_on_c, 0, 34, 38
2, 94770, Note_on_c, 0, 38, 37
2, 94770, Note_on_c, 0, 43, 38
2, 94805, Control_c, 0, 64, 127
2, 94842, Note_on_c, 0, 55, 0
2, 94843, Note_on_c, 0, 31, 0
2, 94843, Note_on_c, 0, 34, 0
2, 94851, Note_on_c, 0, 62, 0
2, 94852, Note_on_c, 0, 58, 0
2, 94859, Note_on_c, 0, 67, 0
2, 94861, Note_on_c, 0, 43, 0
2, 94862, Note_on_c, 0, 38, 0
2, 94976, Control_c, 0, 64, 0
2, 95087, Control_c, 0, 67, 0
2, 95087, End_track
0, 0, End_of_file
