0, 0, Header, 1, 5, 120
1, 0, Start_track
1, 0, Time_signature, 4, 2, 24, 8
1, 0, Key_signature, 0, "major"
1, 0, Tempo, 571429
1, 0, End_track
2, 0, Start_track
2, 0, MIDI_port, 0
2, 0, Title_t, "Arabesque No 1"
2, 0, Program_c, 0, 0
2, 0, Control_c, 0, 7, 127
2, 0, Control_c, 0, 10, 64
2, 294, Control_c, 0, 91, 110
2, 298, Control_c, 0, 64, 40
2, 302, Control_c, 0, 64, 56
2, 306, Control_c, 0, 64, 72
2, 311, Control_c, 0, 64, 88
2, 315, Control_c, 0, 64, 104
2, 319, Control_c, 0, 64, 127
2, 360, Note_on_c, 0, 61, 40
2, 422, Note_on_c, 0, 64, 47
2, 464, Note_on_c, 0, 69, 60
2, 488, Note_on_c, 0, 61, 0
2, 503, Note_on_c, 0, 64, 0
2, 503, Note_on_c, 0, 73, 55
2, 504, Note_on_c, 0, 69, 0
2, 540, Note_on_c, 0, 73, 0
2, 542, Note_on_c, 0, 76, 68
2, 567, Note_on_c, 0, 76, 0
2, 577, Note_on_c, 0, 78, 67
2, 611, Note_on_c, 0, 78, 0
2, 616, Note_on_c, 0, 80, 69
2, 618, Control_c, 0, 64, 56
2, 621, Control_c, 0, 64, 0
2, 642, Control_c, 0, 64, 104
2, 646, Control_c, 0, 64, 127
2, 652, Note_on_c, 0, 75, 64
2, 689, Note_on_c, 0, 75, 0
2, 689, Note_on_c, 0, 71, 58
2, 707, Note_on_c, 0, 71, 0
2, 720, Note_on_c, 0, 80, 0
2, 723, Note_on_c, 0, 68, 54
2, 755, Note_on_c, 0, 68, 0
2, 760, Note_on_c, 0, 63, 57
2, 796, Note_on_c, 0, 59, 56
2, 797, Note_on_c, 0, 63, 0
2, 828, Note_on_c, 0, 59, 0
2, 837, Note_on_c, 0, 57, 55
2, 847, Control_c, 0, 64, 72
2, 851, Control_c, 0, 64, 0
2, 871, Control_c, 0, 64, 72
2, 873, Note_on_c, 0, 61, 51
2, 876, Control_c, 0, 64, 127
2, 912, Note_on_c, 0, 66, 35
2, 940, Note_on_c, 0, 69, 60
2, 942, Note_on_c, 0, 57, 0
2, 944, Note_on_c, 0, 61, 0
2, 952, Note_on_c, 0, 66, 0
2, 969, Note_on_c, 0, 69, 0
2, 978, Note_on_c, 0, 73, 61
2, 1004, Note_on_c, 0, 73, 0
2, 1012, Note_on_c, 0, 75, 68
2, 1044, Note_on_c, 0, 75, 0
2, 1048, Note_on_c, 0, 76, 74
2, 1077, Control_c, 0, 64, 104
2, 1081, Control_c, 0, 64, 24
2, 1085, Note_on_c, 0, 71, 60
2, 1085, Control_c, 0, 64, 0
2, 1106, Control_c, 0, 64, 88
2, 1110, Control_c, 0, 64, 127
2, 1113, Note_on_c, 0, 71, 0
2, 1122, Note_on_c, 0, 68, 49
2, 1141, Note_on_c, 0, 68, 0
2, 1145, Note_on_c, 0, 76, 0
2, 1157, Note_on_c, 0, 64, 59
2, 1185, Note_on_c, 0, 64, 0
2, 1193, Note_on_c, 0, 59, 60
2, 1229, Note_on_c, 0, 56, 61
2, 1234, Note_on_c, 0, 59, 0
2, 1268, Note_on_c, 0, 56, 0
2, 1268, Note_on_c, 0, 54, 65
2, 1275, Control_c, 0, 64, 72
2, 1278, Control_c, 0, 64, 0
2, 1303, Control_c, 0, 64, 88
2, 1307, Control_c, 0, 64, 127
2, 1309, Note_on_c, 0, 57, 55
2, 1340, Note_on_c, 0, 61, 57
2, 1360, Note_on_c, 0, 54, 0
2, 1361, Note_on_c, 0, 57, 0
2, 1363, Note_on_c, 0, 61, 0
2, 1380, Note_on_c, 0, 73, 71
2, 1412, Note_on_c, 0, 66, 54
2, 1416, Note_on_c, 0, 73, 0
2, 1447, Note_on_c, 0, 69, 66
2, 1481, Note_on_c, 0, 69, 0
2, 1487, Note_on_c, 0, 78, 74
2, 1493, Note_on_c, 0, 52, 52
2, 1493, Control_c, 0, 64, 56
2, 1497, Control_c, 0, 64, 0
2, 1521, Control_c, 0, 64, 88
2, 1525, Control_c, 0, 64, 127
2, 1528, Note_on_c, 0, 57, 54
2, 1564, Note_on_c, 0, 61, 61
2, 1578, Note_on_c, 0, 52, 0
2, 1580, Note_on_c, 0, 57, 0
2, 1585, Note_on_c, 0, 61, 0
2, 1585, Note_on_c, 0, 66, 0
2, 1588, Note_on_c, 0, 78, 0
2, 1597, Note_on_c, 0, 73, 71
2, 1633, Note_on_c, 0, 73, 0
2, 1634, Note_on_c, 0, 66, 61
2, 1669, Note_on_c, 0, 69, 65
2, 1680, Note_on_c, 0, 66, 0
2, 1701, Note_on_c, 0, 51, 71
2, 1715, Control_c, 0, 64, 104
2, 1719, Control_c, 0, 64, 40
2, 1723, Control_c, 0, 64, 0
2, 1745, Note_on_c, 0, 57, 54
2, 1747, Control_c, 0, 64, 88
2, 1751, Control_c, 0, 64, 127
2, 1773, Note_on_c, 0, 69, 0
2, 1778, Note_on_c, 0, 61, 54
2, 1798, Note_on_c, 0, 57, 0
2, 1800, Note_on_c, 0, 51, 0
2, 1812, Note_on_c, 0, 61, 0
2, 1816, Note_on_c, 0, 73, 73
2, 1852, Note_on_c, 0, 73, 0
2, 1853, Note_on_c, 0, 66, 56
2, 1893, Note_on_c, 0, 69, 66
2, 1945, Note_on_c, 0, 49, 44
2, 1946, Note_on_c, 0, 78, 73
2, 1949, Control_c, 0, 64, 104
2, 1953, Control_c, 0, 64, 24
2, 1955, Note_on_c, 0, 69, 0
2, 1957, Control_c, 0, 64, 0
2, 1981, Control_c, 0, 64, 88
2, 1985, Control_c, 0, 64, 127
2, 1995, Note_on_c, 0, 66, 0
2, 1997, Note_on_c, 0, 49, 0
2, 1997, Note_on_c, 0, 57, 48
2, 2048, Note_on_c, 0, 64, 40
2, 2086, Note_on_c, 0, 78, 0
2, 2088, Note_on_c, 0, 57, 0
2, 2090, Note_on_c, 0, 81, 70
2, 2111, Note_on_c, 0, 64, 0
2, 2148, Note_on_c, 0, 69, 52
2, 2208, Note_on_c, 0, 73, 46
2, 2213, Note_on_c, 0, 69, 0
2, 2227, Note_on_c, 0, 73, 0
2, 2229, Note_on_c, 0, 81, 0
2, 2284, Note_on_c, 0, 47, 58
2, 2299, Control_c, 0, 64, 104
2, 2304, Control_c, 0, 64, 40
2, 2308, Control_c, 0, 64, 0
2, 2332, Control_c, 0, 64, 104
2, 2336, Control_c, 0, 64, 127
2, 2338, Note_on_c, 0, 54, 44
2, 2359, Note_on_c, 0, 47, 0
2, 2379, Note_on_c, 0, 54, 0
2, 2388, Note_on_c, 0, 57, 46
2, 2423, Note_on_c, 0, 57, 0
2, 2434, Note_on_c, 0, 61, 46
2, 2437, Note_on_c, 0, 81, 80
2, 2482, Note_on_c, 0, 63, 37
2, 2521, Note_on_c, 0, 66, 49
2, 2539, Note_on_c, 0, 61, 0
2, 2541, Note_on_c, 0, 66, 0
2, 2542, Note_on_c, 0, 63, 0
2, 2564, Note_on_c, 0, 69, 55
2, 2612, Note_on_c, 0, 73, 54
2, 2660, Note_on_c, 0, 73, 0
2, 2663, Note_on_c, 0, 75, 51
2, 2671, Note_on_c, 0, 81, 0
2, 2697, Note_on_c, 0, 69, 0
2, 2713, Note_on_c, 0, 75, 0
2, 2716, Note_on_c, 0, 73, 56
2, 2746, Note_on_c, 0, 73, 0
2, 2783, Note_on_c, 0, 80, 69
2, 2789, Note_on_c, 0, 71, 39
2, 2829, Note_on_c, 0, 71, 0
2, 2854, Note_on_c, 0, 80, 0
2, 2893, Note_on_c, 0, 78, 54
2, 2899, Note_on_c, 0, 69, 40
2, 2910, Note_on_c, 0, 69, 0
2, 2926, Note_on_c, 0, 78, 0
2, 3025, Note_on_c, 0, 40, 44
2, 3038, Control_c, 0, 64, 88
2, 3042, Control_c, 0, 64, 24
2, 3046, Control_c, 0, 64, 0
2, 3070, Control_c, 0, 64, 72
2, 3074, Control_c, 0, 64, 127
2, 3086, Note_on_c, 0, 47, 47
2, 3094, Note_on_c, 0, 40, 0
2, 3132, Note_on_c, 0, 47, 0
2, 3137, Note_on_c, 0, 76, 63
2, 3142, Note_on_c, 0, 52, 48
2, 3175, Note_on_c, 0, 76, 0
2, 3182, Note_on_c, 0, 78, 64
2, 3189, Note_on_c, 0, 52, 0
2, 3205, Note_on_c, 0, 78, 0
2, 3206, Note_on_c, 0, 56, 22
2, 3216, Note_on_c, 0, 73, 60
2, 3241, Note_on_c, 0, 73, 0
2, 3241, Note_on_c, 0, 56, 0
2, 3250, Note_on_c, 0, 76, 62
2, 3250, Note_on_c, 0, 59, 41
2, 3274, Note_on_c, 0, 76, 0
2, 3280, Note_on_c, 0, 59, 0
2, 3281, Note_on_c, 0, 71, 67
2, 3293, Note_on_c, 0, 56, 51
2, 3305, Note_on_c, 0, 71, 0
2, 3311, Note_on_c, 0, 73, 64
2, 3316, Note_on_c, 0, 56, 0
2, 3338, Note_on_c, 0, 73, 0
2, 3338, Note_on_c, 0, 52, 43
2, 3345, Note_on_c, 0, 68, 65
2, 3368, Note_on_c, 0, 52, 0
2, 3372, Note_on_c, 0, 68, 0
2, 3374, Note_on_c, 0, 47, 36
2, 3375, Note_on_c, 0, 71, 60
2, 3402, Note_on_c, 0, 71, 0
2, 3403, Note_on_c, 0, 66, 65
2, 3411, Note_on_c, 0, 47, 0
2, 3434, Note_on_c, 0, 66, 0
2, 3436, Note_on_c, 0, 68, 64
2, 3446, Control_c, 0, 64, 72
2, 3446, Note_on_c, 0, 40, 43
2, 3450, Control_c, 0, 64, 0
2, 3469, Note_on_c, 0, 68, 0
2, 3473, Note_on_c, 0, 64, 70
2, 3474, Control_c, 0, 64, 104
2, 3478, Control_c, 0, 64, 127
2, 3487, Note_on_c, 0, 40, 0
2, 3490, Note_on_c, 0, 49, 43
2, 3501, Note_on_c, 0, 68, 55
2, 3507, Note_on_c, 0, 64, 0
2, 3532, Note_on_c, 0, 68, 0
2, 3534, Note_on_c, 0, 49, 0
2, 3536, Note_on_c, 0, 63, 65
2, 3544, Note_on_c, 0, 52, 55
2, 3567, Note_on_c, 0, 52, 0
2, 3590, Note_on_c, 0, 56, 53
2, 3633, Note_on_c, 0, 56, 0
2, 3636, Note_on_c, 0, 61, 47
2, 3672, Note_on_c, 0, 61, 0
2, 3675, Note_on_c, 0, 56, 55
2, 3685, Note_on_c, 0, 63, 0
2, 3695, Note_on_c, 0, 56, 0
2, 3724, Note_on_c, 0, 61, 60
2, 3729, Note_on_c, 0, 52, 49
2, 3756, Note_on_c, 0, 52, 0
2, 3766, Note_on_c, 0, 49, 47
2, 3795, Note_on_c, 0, 49, 0
2, 3819, Note_on_c, 0, 61, 0
2, 3836, Note_on_c, 0, 59, 48
2, 3853, Control_c, 0, 64, 72
2, 3855, Note_on_c, 0, 40, 48
2, 3858, Control_c, 0, 64, 0
2, 3886, Note_on_c, 0, 59, 0
2, 3886, Control_c, 0, 64, 127
2, 3917, Note_on_c, 0, 47, 32
2, 3940, Note_on_c, 0, 40, 0
2, 3952, Note_on_c, 0, 76, 65
2, 3960, Note_on_c, 0, 47, 0
2, 3968, Note_on_c, 0, 52, 53
2, 3980, Note_on_c, 0, 76, 0
2, 3984, Note_on_c, 0, 78, 73
2, 4006, Note_on_c, 0, 78, 0
2, 4007, Note_on_c, 0, 52, 0
2, 4016, Note_on_c, 0, 56, 47
2, 4017, Note_on_c, 0, 73, 70
2, 4046, Note_on_c, 0, 73, 0
2, 4048, Note_on_c, 0, 76, 75
2, 4053, Note_on_c, 0, 56, 0
2, 4059, Note_on_c, 0, 59, 56
2, 4074, Note_on_c, 0, 76, 0
2, 4079, Note_on_c, 0, 71, 73
2, 4086, Note_on_c, 0, 59, 0
2, 4098, Note_on_c, 0, 56, 54
2, 4102, Note_on_c, 0, 71, 0
2, 4108, Note_on_c, 0, 73, 69
2, 4120, Note_on_c, 0, 56, 0
2, 4136, Note_on_c, 0, 73, 0
2, 4142, Note_on_c, 0, 68, 71
2, 4142, Note_on_c, 0, 52, 43
2, 4164, Note_on_c, 0, 52, 0
2, 4169, Note_on_c, 0, 68, 0
2, 4172, Note_on_c, 0, 71, 70
2, 4175, Note_on_c, 0, 47, 37
2, 4200, Note_on_c, 0, 71, 0
2, 4202, Note_on_c, 0, 66, 67
2, 4220, Note_on_c, 0, 47, 0
2, 4229, Control_c, 0, 64, 56
2, 4233, Control_c, 0, 64, 0
2, 4234, Note_on_c, 0, 66, 0
2, 4234, Note_on_c, 0, 68, 69
2, 4242, Note_on_c, 0, 40, 49
2, 4249, Control_c, 0, 64, 40
2, 4253, Control_c, 0, 64, 127
2, 4266, Note_on_c, 0, 68, 0
2, 4271, Note_on_c, 0, 64, 74
2, 4278, Note_on_c, 0, 40, 0
2, 4289, Note_on_c, 0, 49, 46
2, 4300, Note_on_c, 0, 64, 0
2, 4301, Note_on_c, 0, 68, 62
2, 4328, Note_on_c, 0, 49, 0
2, 4334, Note_on_c, 0, 68, 0
2, 4336, Note_on_c, 0, 52, 54
2, 4337, Note_on_c, 0, 63, 68
2, 4358, Note_on_c, 0, 52, 0
2, 4380, Note_on_c, 0, 56, 47
2, 4420, Note_on_c, 0, 56, 0
2, 4432, Note_on_c, 0, 61, 51
2, 4470, Note_on_c, 0, 61, 0
2, 4470, Note_on_c, 0, 63, 0
2, 4476, Note_on_c, 0, 56, 49
2, 4496, Note_on_c, 0, 56, 0
2, 4521, Note_on_c, 0, 61, 61
2, 4530, Note_on_c, 0, 52, 41
2, 4557, Note_on_c, 0, 52, 0
2, 4571, Note_on_c, 0, 49, 44
2, 4596, Note_on_c, 0, 61, 0
2, 4617, Note_on_c, 0, 49, 0
2, 4631, Note_on_c, 0, 59, 60
2, 4632, Note_on_c, 0, 42, 40
2, 4632, Control_c, 0, 64, 56
2, 4636, Control_c, 0, 64, 0
2, 4658, Note_on_c, 0, 59, 0
2, 4660, Control_c, 0, 64, 56
2, 4664, Note_on_c, 0, 57, 60
2, 4665, Control_c, 0, 64, 127
2, 4675, Note_on_c, 0, 49, 47
2, 4692, Note_on_c, 0, 57, 0
2, 4697, Note_on_c, 0, 59, 66
2, 4704, Note_on_c, 0, 42, 0
2, 4715, Note_on_c, 0, 49, 0
2, 4725, Note_on_c, 0, 52, 48
2, 4727, Note_on_c, 0, 59, 0
2, 4731, Note_on_c, 0, 61, 73
2, 4760, Note_on_c, 0, 52, 0
2, 4770, Note_on_c, 0, 54, 43
2, 4809, Note_on_c, 0, 54, 0
2, 4813, Note_on_c, 0, 57, 58
2, 4837, Note_on_c, 0, 57, 0
2, 4849, Note_on_c, 0, 61, 0
2, 4853, Note_on_c, 0, 64, 75
2, 4855, Note_on_c, 0, 54, 46
2, 4882, Note_on_c, 0, 64, 0
2, 4891, Note_on_c, 0, 54, 0
2, 4891, Note_on_c, 0, 63, 71
2, 4900, Note_on_c, 0, 52, 51
2, 4922, Note_on_c, 0, 63, 0
2, 4930, Note_on_c, 0, 52, 0
2, 4932, Note_on_c, 0, 64, 75
2, 4940, Note_on_c, 0, 49, 46
2, 4966, Note_on_c, 0, 64, 0
2, 4973, Note_on_c, 0, 61, 68
2, 4975, Note_on_c, 0, 49, 0
2, 4979, Note_on_c, 0, 44, 58
2, 4984, Control_c, 0, 64, 104
2, 4988, Control_c, 0, 64, 40
2, 4992, Control_c, 0, 64, 0
2, 5009, Note_on_c, 0, 49, 43
2, 5011, Control_c, 0, 64, 56
2, 5012, Note_on_c, 0, 44, 0
2, 5016, Control_c, 0, 64, 127
2, 5059, Note_on_c, 0, 49, 0
2, 5061, Note_on_c, 0, 68, 71
2, 5065, Note_on_c, 0, 52, 56
2, 5068, Note_on_c, 0, 61, 0
2, 5086, Note_on_c, 0, 52, 0
2, 5098, Note_on_c, 0, 56, 60
2, 5128, Note_on_c, 0, 56, 0
2, 5139, Note_on_c, 0, 59, 56
2, 5168, Note_on_c, 0, 59, 0
2, 5173, Note_on_c, 0, 56, 61
2, 5194, Note_on_c, 0, 68, 0
2, 5206, Note_on_c, 0, 56, 0
2, 5212, Note_on_c, 0, 64, 76
2, 5216, Note_on_c, 0, 52, 57
2, 5246, Note_on_c, 0, 52, 0
2, 5247, Note_on_c, 0, 49, 56
2, 5283, Note_on_c, 0, 49, 0
2, 5283, Note_on_c, 0, 64, 0
2, 5290, Control_c, 0, 64, 104
2, 5293, Note_on_c, 0, 45, 62
2, 5294, Note_on_c, 0, 63, 69
2, 5295, Control_c, 0, 64, 24
2, 5298, Control_c, 0, 64, 0
2, 5318, Control_c, 0, 64, 72
2, 5320, Note_on_c, 0, 63, 0
2, 5320, Note_on_c, 0, 61, 68
2, 5323, Control_c, 0, 64, 127
2, 5334, Note_on_c, 0, 45, 0
2, 5340, Note_on_c, 0, 52, 55
2, 5352, Note_on_c, 0, 63, 73
2, 5354, Note_on_c, 0, 61, 0
2, 5374, Note_on_c, 0, 52, 0
2, 5380, Note_on_c, 0, 63, 0
2, 5380, Note_on_c, 0, 64, 79
2, 5384, Note_on_c, 0, 54, 52
2, 5417, Note_on_c, 0, 54, 0
2, 5426, Note_on_c, 0, 57, 61
2, 5451, Note_on_c, 0, 57, 0
2, 5459, Note_on_c, 0, 61, 56
2, 5488, Note_on_c, 0, 61, 0
2, 5500, Note_on_c, 0, 68, 69
2, 5504, Note_on_c, 0, 57, 54
2, 5511, Note_on_c, 0, 64, 0
2, 5529, Note_on_c, 0, 57, 0
2, 5529, Note_on_c, 0, 68, 0
2, 5537, Note_on_c, 0, 66, 71
2, 5542, Note_on_c, 0, 54, 53
2, 5563, Note_on_c, 0, 66, 0
2, 5567, Note_on_c, 0, 54, 0
2, 5571, Note_on_c, 0, 68, 75
2, 5581, Note_on_c, 0, 52, 50
2, 5603, Note_on_c, 0, 68, 0
2, 5605, Control_c, 0, 64, 104
2, 5609, Control_c, 0, 64, 56
2, 5611, Note_on_c, 0, 64, 79
2, 5613, Control_c, 0, 64, 0
2, 5614, Note_on_c, 0, 52, 0
2, 5619, Note_on_c, 0, 46, 59
2, 5638, Control_c, 0, 64, 104
2, 5642, Control_c, 0, 64, 127
2, 5646, Note_on_c, 0, 46, 0
2, 5654, Note_on_c, 0, 52, 59
2, 5675, Note_on_c, 0, 64, 0
2, 5678, Note_on_c, 0, 52, 0
2, 5693, Note_on_c, 0, 56, 48
2, 5696, Note_on_c, 0, 73, 79
2, 5720, Note_on_c, 0, 56, 0
2, 5725, Note_on_c, 0, 61, 50
2, 5748, Note_on_c, 0, 61, 0
2, 5764, Note_on_c, 0, 49, 67
2, 5766, Control_c, 0, 64, 72
2, 5770, Control_c, 0, 64, 0
2, 5791, Control_c, 0, 64, 88
2, 5795, Control_c, 0, 64, 127
2, 5797, Note_on_c, 0, 49, 0
2, 5799, Note_on_c, 0, 54, 60
2, 5825, Note_on_c, 0, 73, 0
2, 5827, Note_on_c, 0, 54, 0
2, 5831, Note_on_c, 0, 70, 76
2, 5833, Note_on_c, 0, 58, 53
2, 5853, Note_on_c, 0, 58, 0
2, 5855, Note_on_c, 0, 70, 0
2, 5856, Note_on_c, 0, 73, 74
2, 5863, Note_on_c, 0, 64, 61
2, 5877, Note_on_c, 0, 64, 0
2, 5880, Note_on_c, 0, 70, 74
2, 5883, Note_on_c, 0, 73, 0
2, 5903, Note_on_c, 0, 70, 0
2, 5905, Note_on_c, 0, 68, 74
2, 5911, Note_on_c, 0, 52, 54
2, 5912, Control_c, 0, 64, 88
2, 5916, Control_c, 0, 64, 24
2, 5920, Control_c, 0, 64, 0
2, 5936, Control_c, 0, 64, 88
2, 5940, Note_on_c, 0, 52, 0
2, 5940, Control_c, 0, 64, 127
2, 5947, Note_on_c, 0, 58, 48
2, 5961, Note_on_c, 0, 68, 0
2, 5977, Note_on_c, 0, 58, 0
2, 5984, Note_on_c, 0, 76, 84
2, 5987, Note_on_c, 0, 61, 50
2, 6015, Note_on_c, 0, 61, 0
2, 6021, Note_on_c, 0, 68, 53
2, 6040, Note_on_c, 0, 68, 0
2, 6053, Control_c, 0, 64, 56
2, 6055, Note_on_c, 0, 54, 68
2, 6057, Control_c, 0, 64, 0
2, 6069, Control_c, 0, 64, 24
2, 6073, Control_c, 0, 64, 104
2, 6077, Control_c, 0, 64, 127
2, 6090, Note_on_c, 0, 54, 0
2, 6092, Note_on_c, 0, 61, 58
2, 6093, Note_on_c, 0, 76, 0
2, 6125, Note_on_c, 0, 61, 0
2, 6127, Note_on_c, 0, 73, 65
2, 6134, Note_on_c, 0, 64, 58
2, 6154, Note_on_c, 0, 73, 0
2, 6161, Note_on_c, 0, 76, 71
2, 6162, Note_on_c, 0, 64, 0
2, 6169, Note_on_c, 0, 70, 48
2, 6181, Note_on_c, 0, 76, 0
2, 6186, Note_on_c, 0, 73, 67
2, 6198, Note_on_c, 0, 70, 0
2, 6218, Note_on_c, 0, 73, 0
2, 6222, Note_on_c, 0, 58, 45
2, 6231, Control_c, 0, 64, 88
2, 6232, Note_on_c, 0, 80, 74
2, 6235, Control_c, 0, 64, 0
2, 6259, Control_c, 0, 64, 56
2, 6263, Control_c, 0, 64, 127
2, 6270, Note_on_c, 0, 58, 0
2, 6274, Note_on_c, 0, 64, 52
2, 6300, Note_on_c, 0, 64, 0
2, 6309, Note_on_c, 0, 68, 48
2, 6335, Note_on_c, 0, 68, 0
2, 6344, Note_on_c, 0, 78, 72
2, 6346, Note_on_c, 0, 73, 44
2, 6349, Note_on_c, 0, 80, 0
2, 6368, Note_on_c, 0, 73, 0
2, 6384, Note_on_c, 0, 78, 0
2, 6384, Note_on_c, 0, 80, 77
2, 6389, Note_on_c, 0, 61, 40
2, 6396, Control_c, 0, 64, 24
2, 6400, Control_c, 0, 64, 0
2, 6416, Control_c, 0, 64, 88
2, 6420, Control_c, 0, 64, 127
2, 6424, Note_on_c, 0, 61, 0
2, 6424, Note_on_c, 0, 66, 61
2, 6453, Note_on_c, 0, 66, 0
2, 6460, Note_on_c, 0, 70, 53
2, 6488, Note_on_c, 0, 70, 0
2, 6496, Note_on_c, 0, 76, 58
2, 6497, Note_on_c, 0, 78, 65
2, 6498, Note_on_c, 0, 80, 0
2, 6504, Note_on_c, 0, 76, 0
2, 6534, Note_on_c, 0, 78, 0
2, 6542, Note_on_c, 0, 80, 67
2, 6544, Note_on_c, 0, 58, 45
2, 6550, Control_c, 0, 64, 40
2, 6554, Control_c, 0, 64, 0
2, 6570, Control_c, 0, 64, 72
2, 6574, Control_c, 0, 64, 127
2, 6579, Note_on_c, 0, 58, 0
2, 6588, Note_on_c, 0, 64, 47
2, 6613, Note_on_c, 0, 64, 0
2, 6629, Note_on_c, 0, 68, 39
2, 6655, Note_on_c, 0, 68, 0
2, 6664, Note_on_c, 0, 80, 0
2, 6667, Note_on_c, 0, 78, 63
2, 6670, Note_on_c, 0, 73, 33
2, 6694, Note_on_c, 0, 73, 0
2, 6714, Note_on_c, 0, 78, 0
2, 6717, Note_on_c, 0, 80, 60
2, 6730, Note_on_c, 0, 61, 40
2, 6735, Control_c, 0, 64, 104
2, 6739, Control_c, 0, 64, 24
2, 6743, Control_c, 0, 64, 0
2, 6760, Control_c, 0, 64, 40
2, 6764, Control_c, 0, 64, 104
2, 6768, Control_c, 0, 64, 127
2, 6770, Note_on_c, 0, 61, 0
2, 6772, Note_on_c, 0, 66, 39
2, 6774, Note_on_c, 0, 78, 55
2, 6776, Note_on_c, 0, 80, 0
2, 6816, Note_on_c, 0, 66, 0
2, 6822, Note_on_c, 0, 70, 37
2, 6867, Note_on_c, 0, 78, 0
2, 6878, Note_on_c, 0, 80, 61
2, 6878, Note_on_c, 0, 76, 40
2, 6895, Note_on_c, 0, 76, 0
2, 6906, Note_on_c, 0, 70, 0
2, 6930, Note_on_c, 0, 80, 0
2, 6963, Note_on_c, 0, 81, 66
2, 6978, Note_on_c, 0, 61, 32
2, 6990, Control_c, 0, 64, 88
2, 6994, Control_c, 0, 64, 0
2, 7018, Control_c, 0, 64, 40
2, 7021, Note_on_c, 0, 64, 49
2, 7022, Control_c, 0, 64, 127
2, 7058, Note_on_c, 0, 69, 53
2, 7078, Note_on_c, 0, 64, 0
2, 7082, Note_on_c, 0, 61, 0
2, 7085, Note_on_c, 0, 69, 0
2, 7095, Note_on_c, 0, 73, 56
2, 7125, Note_on_c, 0, 73, 0
2, 7129, Note_on_c, 0, 81, 0
2, 7131, Note_on_c, 0, 76, 63
2, 7154, Note_on_c, 0, 76, 0
2, 7163, Note_on_c, 0, 78, 64
2, 7193, Note_on_c, 0, 78, 0
2, 7199, Note_on_c, 0, 80, 68
2, 7220, Control_c, 0, 64, 72
2, 7224, Control_c, 0, 64, 0
2, 7232, Note_on_c, 0, 75, 62
2, 7244, Control_c, 0, 64, 56
2, 7248, Control_c, 0, 64, 127
2, 7259, Note_on_c, 0, 75, 0
2, 7266, Note_on_c, 0, 71, 46
2, 7286, Note_on_c, 0, 71, 0
2, 7298, Note_on_c, 0, 80, 0
2, 7300, Note_on_c, 0, 68, 46
2, 7332, Note_on_c, 0, 68, 0
2, 7332, Note_on_c, 0, 63, 54
2, 7367, Note_on_c, 0, 63, 0
2, 7367, Note_on_c, 0, 59, 51
2, 7400, Note_on_c, 0, 59, 0
2, 7404, Note_on_c, 0, 78, 75
2, 7410, Note_on_c, 0, 57, 48
2, 7413, Control_c, 0, 64, 72
2, 7417, Control_c, 0, 64, 0
2, 7437, Control_c, 0, 64, 24
2, 7442, Control_c, 0, 64, 104
2, 7443, Note_on_c, 0, 61, 48
2, 7446, Control_c, 0, 64, 127
2, 7478, Note_on_c, 0, 66, 52
2, 7481, Note_on_c, 0, 57, 0
2, 7491, Note_on_c, 0, 78, 0
2, 7499, Note_on_c, 0, 66, 0
2, 7500, Note_on_c, 0, 61, 0
2, 7508, Note_on_c, 0, 69, 52
2, 7536, Note_on_c, 0, 69, 0
2, 7541, Note_on_c, 0, 73, 57
2, 7570, Note_on_c, 0, 73, 0
2, 7576, Note_on_c, 0, 75, 60
2, 7601, Note_on_c, 0, 75, 0
2, 7608, Note_on_c, 0, 76, 73
2, 7614, Control_c, 0, 64, 40
2, 7619, Control_c, 0, 64, 0
2, 7643, Control_c, 0, 64, 127
2, 7643, Note_on_c, 0, 71, 54
2, 7672, Note_on_c, 0, 71, 0
2, 7680, Note_on_c, 0, 68, 36
2, 7692, Note_on_c, 0, 68, 0
2, 7703, Note_on_c, 0, 76, 0
2, 7711, Note_on_c, 0, 64, 54
2, 7742, Note_on_c, 0, 64, 0
2, 7752, Note_on_c, 0, 59, 38
2, 7777, Note_on_c, 0, 59, 0
2, 7783, Note_on_c, 0, 56, 49
2, 7814, Note_on_c, 0, 56, 0
2, 7838, Note_on_c, 0, 75, 70
2, 7846, Note_on_c, 0, 55, 46
2, 7857, Control_c, 0, 64, 40
2, 7861, Control_c, 0, 64, 0
2, 7880, Note_on_c, 0, 55, 0
2, 7881, Control_c, 0, 64, 56
2, 7884, Note_on_c, 0, 61, 53
2, 7885, Control_c, 0, 64, 127
2, 7908, Note_on_c, 0, 61, 0
2, 7918, Note_on_c, 0, 63, 53
2, 7938, Note_on_c, 0, 63, 0
2, 7948, Note_on_c, 0, 70, 46
2, 7972, Note_on_c, 0, 70, 0
2, 7977, Note_on_c, 0, 63, 60
2, 8001, Note_on_c, 0, 63, 0
2, 8010, Note_on_c, 0, 61, 47
2, 8022, Note_on_c, 0, 75, 0
2, 8039, Note_on_c, 0, 61, 0
2, 8043, Note_on_c, 0, 76, 82
2, 8043, Note_on_c, 0, 56, 51
2, 8043, Control_c, 0, 64, 88
2, 8047, Control_c, 0, 64, 0
2, 8067, Control_c, 0, 64, 72
2, 8071, Control_c, 0, 64, 127
2, 8075, Note_on_c, 0, 61, 56
2, 8076, Note_on_c, 0, 56, 0
2, 8096, Note_on_c, 0, 61, 0
2, 8102, Note_on_c, 0, 64, 62
2, 8124, Note_on_c, 0, 76, 0
2, 8129, Note_on_c, 0, 64, 0
2, 8136, Note_on_c, 0, 80, 84
2, 8137, Note_on_c, 0, 71, 57
2, 8161, Note_on_c, 0, 71, 0
2, 8167, Note_on_c, 0, 64, 52
2, 8173, Note_on_c, 0, 80, 0
2, 8182, Note_on_c, 0, 83, 80
2, 8188, Note_on_c, 0, 64, 0
2, 8194, Note_on_c, 0, 61, 53
2, 8231, Note_on_c, 0, 83, 0
2, 8232, Note_on_c, 0, 61, 0
2, 8240, Note_on_c, 0, 75, 76
2, 8244, Note_on_c, 0, 55, 49
2, 8244, Control_c, 0, 64, 56
2, 8248, Control_c, 0, 64, 0
2, 8269, Control_c, 0, 64, 56
2, 8273, Note_on_c, 0, 55, 0
2, 8273, Control_c, 0, 64, 127
2, 8276, Note_on_c, 0, 61, 50
2, 8306, Note_on_c, 0, 61, 0
2, 8307, Note_on_c, 0, 63, 49
2, 8330, Note_on_c, 0, 63, 0
2, 8337, Note_on_c, 0, 70, 58
2, 8366, Note_on_c, 0, 63, 58
2, 8367, Note_on_c, 0, 70, 0
2, 8393, Note_on_c, 0, 61, 46
2, 8396, Note_on_c, 0, 63, 0
2, 8401, Note_on_c, 0, 61, 0
2, 8426, Control_c, 0, 64, 104
2, 8429, Control_c, 0, 64, 24
2, 8431, Note_on_c, 0, 52, 52
2, 8434, Control_c, 0, 64, 0
2, 8446, Control_c, 0, 64, 56
2, 8450, Control_c, 0, 64, 127
2, 8457, Note_on_c, 0, 52, 0
2, 8464, Note_on_c, 0, 75, 0
2, 8468, Note_on_c, 0, 73, 71
2, 8470, Note_on_c, 0, 57, 50
2, 8485, Note_on_c, 0, 57, 0
2, 8491, Note_on_c, 0, 61, 51
2, 8508, Note_on_c, 0, 73, 0
2, 8515, Note_on_c, 0, 61, 0
2, 8515, Note_on_c, 0, 76, 82
2, 8526, Note_on_c, 0, 68, 46
2, 8551, Note_on_c, 0, 68, 0
2, 8554, Note_on_c, 0, 61, 42
2, 8557, Note_on_c, 0, 76, 0
2, 8560, Note_on_c, 0, 80, 80
2, 8572, Note_on_c, 0, 61, 0
2, 8576, Note_on_c, 0, 57, 48
2, 8608, Note_on_c, 0, 80, 0
2, 8618, Note_on_c, 0, 57, 0
2, 8626, Note_on_c, 0, 71, 72
2, 8632, Note_on_c, 0, 51, 59
2, 8640, Control_c, 0, 64, 56
2, 8644, Control_c, 0, 64, 0
2, 8667, Note_on_c, 0, 51, 0
2, 8668, Control_c, 0, 64, 88
2, 8670, Note_on_c, 0, 57, 54
2, 8672, Control_c, 0, 64, 127
2, 8696, Note_on_c, 0, 57, 0
2, 8700, Note_on_c, 0, 59, 60
2, 8724, Note_on_c, 0, 59, 0
2, 8731, Note_on_c, 0, 66, 47
2, 8755, Note_on_c, 0, 66, 0
2, 8758, Note_on_c, 0, 59, 54
2, 8777, Note_on_c, 0, 59, 0
2, 8785, Note_on_c, 0, 57, 50
2, 8804, Note_on_c, 0, 57, 0
2, 8814, Control_c, 0, 64, 40
2, 8814, Note_on_c, 0, 49, 71
2, 8818, Control_c, 0, 64, 0
2, 8830, Control_c, 0, 64, 72
2, 8833, Control_c, 0, 64, 127
2, 8842, Note_on_c, 0, 49, 0
2, 8852, Note_on_c, 0, 54, 52
2, 8858, Note_on_c, 0, 71, 0
2, 8860, Note_on_c, 0, 69, 75
2, 8874, Note_on_c, 0, 54, 0
2, 8881, Note_on_c, 0, 57, 56
2, 8903, Note_on_c, 0, 57, 0
2, 8906, Note_on_c, 0, 73, 71
2, 8912, Note_on_c, 0, 69, 0
2, 8914, Note_on_c, 0, 64, 54
2, 8937, Note_on_c, 0, 64, 0
2, 8943, Note_on_c, 0, 73, 0
2, 8947, Note_on_c, 0, 57, 43
2, 8952, Note_on_c, 0, 76, 82
2, 8959, Note_on_c, 0, 57, 0
2, 8964, Note_on_c, 0, 54, 48
2, 8983, Note_on_c, 0, 76, 0
2, 9009, Note_on_c, 0, 54, 0
2, 9011, Note_on_c, 0, 68, 70
2, 9024, Note_on_c, 0, 48, 45
2, 9024, Control_c, 0, 64, 88
2, 9028, Control_c, 0, 64, 0
2, 9049, Note_on_c, 0, 48, 0
2, 9051, Note_on_c, 0, 54, 50
2, 9052, Control_c, 0, 64, 104
2, 9056, Control_c, 0, 64, 127
2, 9076, Note_on_c, 0, 54, 0
2, 9078, Note_on_c, 0, 56, 53
2, 9100, Note_on_c, 0, 56, 0
2, 9109, Note_on_c, 0, 63, 47
2, 9136, Note_on_c, 0, 63, 0
2, 9138, Note_on_c, 0, 56, 57
2, 9163, Note_on_c, 0, 56, 0
2, 9169, Note_on_c, 0, 54, 38
2, 9197, Note_on_c, 0, 54, 0
2, 9197, Control_c, 0, 64, 72
2, 9199, Note_on_c, 0, 49, 62
2, 9201, Control_c, 0, 64, 0
2, 9217, Control_c, 0, 64, 72
2, 9221, Control_c, 0, 64, 127
2, 9223, Note_on_c, 0, 68, 0
2, 9236, Note_on_c, 0, 69, 76
2, 9240, Note_on_c, 0, 49, 0
2, 9240, Note_on_c, 0, 54, 53
2, 9267, Note_on_c, 0, 54, 0
2, 9267, Note_on_c, 0, 69, 0
2, 9269, Note_on_c, 0, 73, 67
2, 9276, Note_on_c, 0, 57, 62
2, 9296, Note_on_c, 0, 73, 0
2, 9300, Note_on_c, 0, 57, 0
2, 9304, Note_on_c, 0, 76, 81
2, 9307, Note_on_c, 0, 64, 53
2, 9328, Note_on_c, 0, 64, 0
2, 9330, Note_on_c, 0, 76, 0
2, 9333, Note_on_c, 0, 80, 77
2, 9336, Note_on_c, 0, 57, 50
2, 9360, Note_on_c, 0, 57, 0
2, 9367, Note_on_c, 0, 80, 0
2, 9368, Note_on_c, 0, 78, 77
2, 9368, Note_on_c, 0, 54, 40
2, 9400, Note_on_c, 0, 78, 0
2, 9406, Note_on_c, 0, 54, 0
2, 9408, Note_on_c, 0, 75, 73
2, 9421, Note_on_c, 0, 48, 52
2, 9423, Control_c, 0, 64, 88
2, 9427, Control_c, 0, 64, 0
2, 9449, Note_on_c, 0, 48, 0
2, 9450, Note_on_c, 0, 54, 54
2, 9452, Control_c, 0, 64, 104
2, 9456, Control_c, 0, 64, 127
2, 9481, Note_on_c, 0, 54, 0
2, 9481, Note_on_c, 0, 56, 45
2, 9507, Note_on_c, 0, 56, 0
2, 9516, Note_on_c, 0, 75, 0
2, 9516, Note_on_c, 0, 63, 48
2, 9522, Note_on_c, 0, 68, 69
2, 9544, Note_on_c, 0, 63, 0
2, 9550, Note_on_c, 0, 56, 39
2, 9577, Note_on_c, 0, 56, 0
2, 9579, Note_on_c, 0, 54, 46
2, 9590, Note_on_c, 0, 68, 0
2, 9619, Note_on_c, 0, 54, 0
2, 9626, Note_on_c, 0, 47, 63
2, 9641, Control_c, 0, 64, 104
2, 9645, Control_c, 0, 64, 24
2, 9649, Control_c, 0, 64, 0
2, 9665, Control_c, 0, 64, 104
2, 9669, Note_on_c, 0, 47, 0
2, 9669, Control_c, 0, 64, 127
2, 9670, Note_on_c, 0, 54, 58
2, 9694, Note_on_c, 0, 66, 72
2, 9706, Note_on_c, 0, 54, 0
2, 9710, Note_on_c, 0, 57, 48
2, 9732, Note_on_c, 0, 66, 0
2, 9736, Note_on_c, 0, 57, 0
2, 9740, Note_on_c, 0, 69, 74
2, 9744, Note_on_c, 0, 62, 51
2, 9771, Note_on_c, 0, 62, 0
2, 9776, Note_on_c, 0, 69, 0
2, 9778, Note_on_c, 0, 57, 22
2, 9788, Note_on_c, 0, 57, 0
2, 9788, Note_on_c, 0, 73, 76
2, 9792, Note_on_c, 0, 54, 50
2, 9818, Note_on_c, 0, 54, 0
2, 9837, Note_on_c, 0, 73, 0
2, 9844, Note_on_c, 0, 64, 70
2, 9856, Note_on_c, 0, 47, 58
2, 9859, Control_c, 0, 64, 72
2, 9863, Control_c, 0, 64, 0
2, 9883, Control_c, 0, 64, 72
2, 9886, Note_on_c, 0, 47, 0
2, 9888, Control_c, 0, 64, 127
2, 9889, Note_on_c, 0, 52, 62
2, 9910, Note_on_c, 0, 52, 0
2, 9914, Note_on_c, 0, 56, 36
2, 9944, Note_on_c, 0, 56, 0
2, 9952, Note_on_c, 0, 62, 57
2, 9963, Note_on_c, 0, 64, 0
2, 9977, Note_on_c, 0, 62, 0
2, 9981, Note_on_c, 0, 56, 49
2, 10000, Note_on_c, 0, 56, 0
2, 10006, Note_on_c, 0, 52, 54
2, 10045, Note_on_c, 0, 52, 0
2, 10046, Note_on_c, 0, 47, 66
2, 10057, Control_c, 0, 64, 24
2, 10061, Control_c, 0, 64, 0
2, 10073, Control_c, 0, 64, 72
2, 10074, Note_on_c, 0, 47, 0
2, 10077, Control_c, 0, 64, 127
2, 10082, Note_on_c, 0, 54, 60
2, 10086, Note_on_c, 0, 66, 64
2, 10110, Note_on_c, 0, 66, 0
2, 10114, Note_on_c, 0, 54, 0
2, 10120, Note_on_c, 0, 69, 68
2, 10121, Note_on_c, 0, 57, 63
2, 10139, Note_on_c, 0, 69, 0
2, 10147, Note_on_c, 0, 57, 0
2, 10152, Note_on_c, 0, 73, 71
2, 10157, Note_on_c, 0, 62, 49
2, 10183, Note_on_c, 0, 73, 0
2, 10184, Note_on_c, 0, 62, 0
2, 10184, Note_on_c, 0, 76, 82
2, 10190, Note_on_c, 0, 57, 41
2, 10205, Note_on_c, 0, 76, 0
2, 10207, Note_on_c, 0, 57, 0
2, 10209, Note_on_c, 0, 54, 57
2, 10216, Note_on_c, 0, 74, 80
2, 10247, Note_on_c, 0, 54, 0
2, 10249, Note_on_c, 0, 74, 0
2, 10255, Note_on_c, 0, 68, 76
2, 10259, Control_c, 0, 64, 88
2, 10263, Control_c, 0, 64, 0
2, 10264, Note_on_c, 0, 47, 53
2, 10283, Control_c, 0, 64, 56
2, 10287, Control_c, 0, 64, 127
2, 10294, Note_on_c, 0, 47, 0
2, 10298, Note_on_c, 0, 52, 62
2, 10304, Note_on_c, 0, 68, 0
2, 10320, Note_on_c, 0, 52, 0
2, 10324, Note_on_c, 0, 56, 54
2, 10365, Note_on_c, 0, 56, 0
2, 10365, Note_on_c, 0, 66, 77
2, 10371, Note_on_c, 0, 62, 53
2, 10404, Note_on_c, 0, 62, 0
2, 10406, Note_on_c, 0, 56, 52
2, 10431, Note_on_c, 0, 66, 0
2, 10437, Note_on_c, 0, 52, 66
2, 10438, Note_on_c, 0, 56, 0
2, 10444, Note_on_c, 0, 52, 0
2, 10487, Note_on_c, 0, 40, 53
2, 10489, Control_c, 0, 64, 88
2, 10493, Control_c, 0, 64, 24
2, 10497, Control_c, 0, 64, 0
2, 10517, Control_c, 0, 64, 104
2, 10521, Control_c, 0, 64, 127
2, 10527, Note_on_c, 0, 47, 57
2, 10529, Note_on_c, 0, 40, 0
2, 10555, Note_on_c, 0, 47, 0
2, 10560, Note_on_c, 0, 52, 62
2, 10585, Note_on_c, 0, 52, 0
2, 10603, Note_on_c, 0, 62, 75
2, 10605, Note_on_c, 0, 54, 50
2, 10642, Note_on_c, 0, 56, 54
2, 10657, Note_on_c, 0, 62, 0
2, 10690, Note_on_c, 0, 54, 0
2, 10692, Note_on_c, 0, 59, 51
2, 10695, Note_on_c, 0, 56, 0
2, 10699, Note_on_c, 0, 59, 0
2, 10764, Note_on_c, 0, 61, 70
2, 10771, Control_c, 0, 64, 72
2, 10773, Note_on_c, 0, 33, 55
2, 10776, Control_c, 0, 64, 0
2, 10800, Control_c, 0, 64, 88
2, 10804, Control_c, 0, 64, 127
2, 10806, Note_on_c, 0, 33, 0
2, 10809, Note_on_c, 0, 45, 64
2, 10821, Note_on_c, 0, 45, 0
2, 10848, Note_on_c, 0, 52, 69
2, 10884, Note_on_c, 0, 55, 69
2, 10898, Note_on_c, 0, 52, 0
2, 10914, Note_on_c, 0, 55, 0
2, 10920, Note_on_c, 0, 57, 67
2, 10945, Note_on_c, 0, 57, 0
2, 10954, Note_on_c, 0, 59, 61
2, 10984, Note_on_c, 0, 59, 0
2, 10992, Note_on_c, 0, 57, 65
2, 11026, Note_on_c, 0, 52, 52
2, 11029, Note_on_c, 0, 57, 0
2, 11047, Note_on_c, 0, 52, 0
2, 11062, Note_on_c, 0, 55, 69
2, 11084, Note_on_c, 0, 55, 0
2, 11101, Note_on_c, 0, 57, 65
2, 11128, Note_on_c, 0, 57, 0
2, 11136, Note_on_c, 0, 59, 59
2, 11172, Note_on_c, 0, 59, 0
2, 11174, Note_on_c, 0, 57, 60
2, 11215, Note_on_c, 0, 57, 0
2, 11225, Note_on_c, 0, 55, 65
2, 11275, Control_c, 0, 64, 72
2, 11279, Control_c, 0, 64, 40
2, 11284, Control_c, 0, 64, 72
2, 11288, Control_c, 0, 64, 127
2, 11302, Note_on_c, 0, 61, 0
2, 11362, Note_on_c, 0, 61, 68
2, 11488, Note_on_c, 0, 64, 76
2, 11496, Note_on_c, 0, 61, 0
2, 11602, Note_on_c, 0, 55, 0
2, 11604, Note_on_c, 0, 61, 70
2, 11612, Note_on_c, 0, 64, 0
2, 11676, Note_on_c, 0, 61, 0
2, 11744, Note_on_c, 0, 38, 54
2, 11750, Note_on_c, 0, 66, 71
2, 11760, Control_c, 0, 64, 56
2, 11764, Control_c, 0, 64, 0
2, 11792, Control_c, 0, 64, 104
2, 11796, Control_c, 0, 64, 127
2, 11810, Note_on_c, 0, 45, 56
2, 11819, Note_on_c, 0, 38, 0
2, 11860, Note_on_c, 0, 54, 58
2, 11868, Note_on_c, 0, 57, 60
2, 11891, Note_on_c, 0, 57, 0
2, 11907, Note_on_c, 0, 59, 62
2, 11936, Note_on_c, 0, 59, 0
2, 11940, Note_on_c, 0, 61, 64
2, 11968, Note_on_c, 0, 61, 0
2, 11974, Note_on_c, 0, 59, 72
2, 12001, Note_on_c, 0, 59, 0
2, 12007, Note_on_c, 0, 57, 70
2, 12036, Note_on_c, 0, 57, 0
2, 12042, Note_on_c, 0, 59, 70
2, 12070, Note_on_c, 0, 59, 0
2, 12078, Note_on_c, 0, 61, 60
2, 12107, Note_on_c, 0, 61, 0
2, 12113, Note_on_c, 0, 59, 70
2, 12117, Note_on_c, 0, 54, 0
2, 12127, Note_on_c, 0, 45, 0
2, 12145, Note_on_c, 0, 59, 0
2, 12152, Note_on_c, 0, 57, 70
2, 12191, Note_on_c, 0, 57, 0
2, 12209, Note_on_c, 0, 61, 64
2, 12217, Note_on_c, 0, 35, 47
2, 12227, Control_c, 0, 64, 104
2, 12232, Control_c, 0, 64, 0
2, 12254, Note_on_c, 0, 66, 0
2, 12256, Control_c, 0, 64, 88
2, 12260, Control_c, 0, 64, 127
2, 12266, Note_on_c, 0, 35, 0
2, 12270, Note_on_c, 0, 47, 60
2, 12279, Note_on_c, 0, 47, 0
2, 12322, Note_on_c, 0, 54, 54
2, 12324, Note_on_c, 0, 66, 83
2, 12383, Note_on_c, 0, 57, 47
2, 12384, Note_on_c, 0, 61, 0
2, 12426, Note_on_c, 0, 66, 0
2, 12436, Note_on_c, 0, 69, 86
2, 12442, Note_on_c, 0, 63, 54
2, 12442, Note_on_c, 0, 59, 55
2, 12451, Note_on_c, 0, 57, 0
2, 12507, Note_on_c, 0, 59, 0
2, 12520, Note_on_c, 0, 54, 0
2, 12521, Note_on_c, 0, 69, 0
2, 12544, Note_on_c, 0, 66, 81
2, 12589, Note_on_c, 0, 66, 0
2, 12651, Control_c, 0, 64, 104
2, 12652, Note_on_c, 0, 71, 88
2, 12655, Note_on_c, 0, 32, 44
2, 12656, Control_c, 0, 64, 24
2, 12660, Control_c, 0, 64, 0
2, 12680, Control_c, 0, 64, 72
2, 12684, Control_c, 0, 64, 127
2, 12700, Note_on_c, 0, 44, 64
2, 12702, Note_on_c, 0, 32, 0
2, 12710, Note_on_c, 0, 44, 0
2, 12728, Note_on_c, 0, 63, 0
2, 12751, Note_on_c, 0, 71, 0
2, 12755, Note_on_c, 0, 68, 78
2, 12760, Note_on_c, 0, 52, 47
2, 12801, Note_on_c, 0, 56, 59
2, 12851, Note_on_c, 0, 68, 0
2, 12856, Note_on_c, 0, 71, 83
2, 12861, Note_on_c, 0, 64, 66
2, 12866, Note_on_c, 0, 59, 54
2, 12894, Control_c, 0, 64, 72
2, 12898, Control_c, 0, 64, 56
2, 12902, Control_c, 0, 64, 72
2, 12906, Control_c, 0, 64, 127
2, 12947, Note_on_c, 0, 59, 0
2, 12950, Note_on_c, 0, 52, 0
2, 12957, Note_on_c, 0, 56, 0
2, 12966, Note_on_c, 0, 68, 82
2, 12978, Note_on_c, 0, 71, 0
2, 13010, Note_on_c, 0, 68, 0
2, 13073, Note_on_c, 0, 30, 53
2, 13093, Note_on_c, 0, 73, 85
2, 13095, Control_c, 0, 64, 40
2, 13099, Note_on_c, 0, 69, 58
2, 13099, Control_c, 0, 64, 0
2, 13128, Control_c, 0, 64, 127
2, 13141, Note_on_c, 0, 42, 59
2, 13150, Note_on_c, 0, 30, 0
2, 13152, Note_on_c, 0, 42, 0
2, 13185, Note_on_c, 0, 49, 48
2, 13191, Note_on_c, 0, 69, 0
2, 13221, Note_on_c, 0, 52, 69
2, 13230, Note_on_c, 0, 64, 0
2, 13230, Note_on_c, 0, 73, 0
2, 13232, Note_on_c, 0, 49, 0
2, 13256, Note_on_c, 0, 54, 69
2, 13291, Note_on_c, 0, 57, 66
2, 13325, Note_on_c, 0, 61, 67
2, 13358, Note_on_c, 0, 64, 73
2, 13374, Note_on_c, 0, 61, 0
2, 13385, Note_on_c, 0, 64, 0
2, 13391, Note_on_c, 0, 66, 70
2, 13424, Note_on_c, 0, 66, 0
2, 13424, Note_on_c, 0, 69, 74
2, 13452, Note_on_c, 0, 69, 0
2, 13455, Note_on_c, 0, 68, 71
2, 13487, Note_on_c, 0, 66, 73
2, 13489, Note_on_c, 0, 68, 0
2, 13526, Note_on_c, 0, 66, 0
2, 13537, Note_on_c, 0, 64, 74
2, 13571, Control_c, 0, 64, 88
2, 13575, Control_c, 0, 64, 24
2, 13580, Control_c, 0, 64, 0
2, 13592, Control_c, 0, 64, 88
2, 13596, Control_c, 0, 64, 127
2, 13607, Note_on_c, 0, 64, 0
2, 13631, Note_on_c, 0, 52, 0
2, 13639, Note_on_c, 0, 57, 0
2, 13641, Note_on_c, 0, 54, 0
2, 13651, Note_on_c, 0, 69, 82
2, 13653, Note_on_c, 0, 66, 60
2, 13673, Note_on_c, 0, 66, 0
2, 13724, Note_on_c, 0, 69, 0
2, 13762, Note_on_c, 0, 71, 78
2, 13763, Note_on_c, 0, 68, 54
2, 13770, Note_on_c, 0, 63, 48
2, 13802, Note_on_c, 0, 68, 0
2, 13832, Note_on_c, 0, 71, 0
2, 13873, Note_on_c, 0, 73, 83
2, 13873, Note_on_c, 0, 69, 53
2, 13877, Note_on_c, 0, 61, 56
2, 13884, Note_on_c, 0, 63, 0
2, 13893, Note_on_c, 0, 61, 0
2, 13905, Note_on_c, 0, 69, 0
2, 13920, Note_on_c, 0, 73, 0
2, 14003, Note_on_c, 0, 73, 77
2, 14008, Note_on_c, 0, 30, 37
2, 14010, Note_on_c, 0, 69, 49
2, 14023, Note_on_c, 0, 69, 0
2, 14027, Control_c, 0, 64, 72
2, 14031, Control_c, 0, 64, 0
2, 14056, Control_c, 0, 64, 56
2, 14060, Control_c, 0, 64, 127
2, 14074, Note_on_c, 0, 42, 62
2, 14077, Note_on_c, 0, 30, 0
2, 14085, Note_on_c, 0, 42, 0
2, 14122, Note_on_c, 0, 49, 61
2, 14146, Note_on_c, 0, 73, 0
2, 14159, Note_on_c, 0, 52, 64
2, 14170, Note_on_c, 0, 49, 0
2, 14190, Note_on_c, 0, 54, 67
2, 14210, Note_on_c, 0, 52, 0
2, 14226, Note_on_c, 0, 57, 66
2, 14259, Note_on_c, 0, 61, 65
2, 14292, Note_on_c, 0, 64, 74
2, 14298, Note_on_c, 0, 61, 0
2, 14315, Note_on_c, 0, 64, 0
2, 14323, Note_on_c, 0, 66, 67
2, 14352, Note_on_c, 0, 66, 0
2, 14352, Note_on_c, 0, 69, 81
2, 14379, Note_on_c, 0, 69, 0
2, 14383, Note_on_c, 0, 68, 71
2, 14417, Note_on_c, 0, 66, 65
2, 14419, Note_on_c, 0, 68, 0
2, 14459, Note_on_c, 0, 66, 0
2, 14459, Note_on_c, 0, 64, 74
2, 14467, Control_c, 0, 64, 40
2, 14471, Control_c, 0, 64, 0
2, 14491, Control_c, 0, 64, 56
2, 14495, Control_c, 0, 64, 127
2, 14523, Note_on_c, 0, 64, 0
2, 14569, Note_on_c, 0, 69, 75
2, 14570, Note_on_c, 0, 66, 55
2, 14598, Note_on_c, 0, 66, 0
2, 14607, Note_on_c, 0, 69, 0
2, 14608, Note_on_c, 0, 61, 50
2, 14611, Note_on_c, 0, 54, 0
2, 14637, Note_on_c, 0, 61, 0
2, 14646, Note_on_c, 0, 64, 53
2, 14665, Note_on_c, 0, 64, 0
2, 14679, Note_on_c, 0, 57, 0
2, 14688, Note_on_c, 0, 71, 70
2, 14690, Note_on_c, 0, 68, 48
2, 14692, Note_on_c, 0, 54, 51
2, 14709, Control_c, 0, 64, 56
2, 14713, Control_c, 0, 64, 0
2, 14716, Note_on_c, 0, 68, 0
2, 14726, Note_on_c, 0, 63, 47
2, 14729, Control_c, 0, 64, 56
2, 14733, Control_c, 0, 64, 127
2, 14742, Note_on_c, 0, 71, 0
2, 14756, Note_on_c, 0, 66, 57
2, 14760, Note_on_c, 0, 63, 0
2, 14780, Note_on_c, 0, 66, 0
2, 14788, Note_on_c, 0, 73, 72
2, 14791, Note_on_c, 0, 69, 65
2, 14810, Note_on_c, 0, 69, 0
2, 14822, Note_on_c, 0, 61, 58
2, 14824, Note_on_c, 0, 73, 0
2, 14850, Note_on_c, 0, 61, 0
2, 14850, Note_on_c, 0, 69, 52
2, 14878, Note_on_c, 0, 69, 0
2, 14885, Note_on_c, 0, 54, 0
2, 14891, Note_on_c, 0, 75, 73
2, 14898, Note_on_c, 0, 71, 59
2, 14898, Note_on_c, 0, 47, 47
2, 14903, Control_c, 0, 64, 56
2, 14907, Control_c, 0, 64, 0
2, 14918, Control_c, 0, 64, 24
2, 14923, Control_c, 0, 64, 104
2, 14924, Note_on_c, 0, 71, 0
2, 14926, Note_on_c, 0, 66, 56
2, 14927, Control_c, 0, 64, 127
2, 14934, Note_on_c, 0, 75, 0
2, 14959, Note_on_c, 0, 66, 0
2, 14960, Note_on_c, 0, 69, 63
2, 14976, Note_on_c, 0, 69, 0
2, 14989, Note_on_c, 0, 76, 82
2, 14992, Note_on_c, 0, 73, 65
2, 14999, Note_on_c, 0, 54, 40
2, 15014, Note_on_c, 0, 76, 0
2, 15021, Note_on_c, 0, 73, 0
2, 15022, Note_on_c, 0, 68, 57
2, 15053, Note_on_c, 0, 68, 0
2, 15054, Note_on_c, 0, 71, 61
2, 15073, Note_on_c, 0, 71, 0
2, 15076, Note_on_c, 0, 47, 0
2, 15082, Note_on_c, 0, 78, 71
2, 15085, Note_on_c, 0, 75, 71
2, 15090, Note_on_c, 0, 57, 58
2, 15092, Note_on_c, 0, 54, 0
2, 15108, Note_on_c, 0, 75, 0
2, 15113, Note_on_c, 0, 78, 0
2, 15116, Note_on_c, 0, 69, 61
2, 15140, Note_on_c, 0, 57, 0
2, 15143, Note_on_c, 0, 73, 71
2, 15146, Note_on_c, 0, 69, 0
2, 15171, Note_on_c, 0, 73, 0
2, 15173, Note_on_c, 0, 59, 57
2, 15176, Note_on_c, 0, 80, 74
2, 15177, Note_on_c, 0, 76, 76
2, 15199, Note_on_c, 0, 76, 0
2, 15207, Note_on_c, 0, 80, 0
2, 15211, Note_on_c, 0, 71, 64
2, 15237, Note_on_c, 0, 75, 76
2, 15244, Note_on_c, 0, 71, 0
2, 15262, Note_on_c, 0, 75, 0
2, 15265, Note_on_c, 0, 59, 0
2, 15267, Note_on_c, 0, 81, 82
2, 15268, Note_on_c, 0, 63, 64
2, 15269, Note_on_c, 0, 78, 73
2, 15294, Note_on_c, 0, 81, 0
2, 15297, Note_on_c, 0, 78, 0
2, 15298, Note_on_c, 0, 73, 68
2, 15328, Note_on_c, 0, 76, 70
2, 15333, Note_on_c, 0, 73, 0
2, 15352, Note_on_c, 0, 76, 0
2, 15356, Note_on_c, 0, 83, 87
2, 15359, Note_on_c, 0, 80, 75
2, 15364, Note_on_c, 0, 66, 64
2, 15370, Note_on_c, 0, 63, 0
2, 15385, Note_on_c, 0, 83, 0
2, 15389, Note_on_c, 0, 80, 0
2, 15392, Note_on_c, 0, 75, 69
2, 15406, Note_on_c, 0, 66, 0
2, 15423, Note_on_c, 0, 78, 69
2, 15432, Note_on_c, 0, 75, 0
2, 15452, Note_on_c, 0, 78, 0
2, 15452, Note_on_c, 0, 69, 66
2, 15455, Note_on_c, 0, 85, 77
2, 15460, Note_on_c, 0, 81, 70
2, 15481, Note_on_c, 0, 81, 0
2, 15492, Note_on_c, 0, 76, 56
2, 15520, Note_on_c, 0, 85, 0
2, 15529, Note_on_c, 0, 80, 69
2, 15530, Note_on_c, 0, 76, 0
2, 15562, Note_on_c, 0, 80, 0
2, 15572, Note_on_c, 0, 87, 79
2, 15576, Note_on_c, 0, 69, 0
2, 15576, Note_on_c, 0, 83, 60
2, 15577, Note_on_c, 0, 71, 65
2, 15593, Note_on_c, 0, 83, 0
2, 15605, Note_on_c, 0, 71, 0
2, 15614, Note_on_c, 0, 78, 53
2, 15661, Note_on_c, 0, 81, 70
2, 15669, Note_on_c, 0, 87, 0
2, 15686, Note_on_c, 0, 81, 0
2, 15694, Note_on_c, 0, 78, 0
2, 15746, Note_on_c, 0, 90, 87
2, 15750, Note_on_c, 0, 78, 26
2, 15750, Control_c, 0, 64, 104
2, 15751, Note_on_c, 0, 83, 70
2, 15753, Note_on_c, 0, 80, 47
2, 15753, Note_on_c, 0, 28, 44
2, 15755, Control_c, 0, 64, 0
2, 15783, Control_c, 0, 64, 127
2, 15802, Note_on_c, 0, 28, 0
2, 15804, Note_on_c, 0, 40, 68
2, 15810, Note_on_c, 0, 40, 0
2, 15856, Note_on_c, 0, 47, 53
2, 15868, Note_on_c, 0, 90, 0
2, 15881, Note_on_c, 0, 78, 0
2, 15889, Note_on_c, 0, 47, 0
2, 15893, Note_on_c, 0, 52, 53
2, 15932, Note_on_c, 0, 52, 0
2, 15939, Note_on_c, 0, 88, 82
2, 15940, Note_on_c, 0, 56, 49
2, 15943, Note_on_c, 0, 76, 58
2, 15988, Note_on_c, 0, 56, 0
2, 15990, Note_on_c, 0, 59, 64
2, 16005, Note_on_c, 0, 59, 0
2, 16044, Note_on_c, 0, 64, 49
2, 16088, Note_on_c, 0, 68, 63
2, 16095, Note_on_c, 0, 76, 0
2, 16121, Note_on_c, 0, 68, 0
2, 16127, Note_on_c, 0, 64, 0
2, 16159, Note_on_c, 0, 80, 0
2, 16161, Note_on_c, 0, 83, 0
2, 16164, Note_on_c, 0, 76, 70
2, 16237, Note_on_c, 0, 76, 0
2, 16241, Note_on_c, 0, 88, 0
2, 16425, Note_on_c, 0, 64, 53
2, 16460, Note_on_c, 0, 64, 0
2, 16680, Note_on_c, 0, 76, 70
2, 16689, Note_on_c, 0, 59, 37
2, 16691, Note_on_c, 0, 69, 31
2, 16692, Note_on_c, 0, 66, 20
2, 16693, Control_c, 0, 64, 40
2, 16696, Control_c, 0, 64, 0
2, 16720, Control_c, 0, 64, 72
2, 16722, Note_on_c, 0, 76, 0
2, 16724, Control_c, 0, 64, 127
2, 16728, Note_on_c, 0, 74, 74
2, 16753, Note_on_c, 0, 61, 36
2, 16763, Note_on_c, 0, 74, 0
2, 16774, Note_on_c, 0, 76, 73
2, 16794, Note_on_c, 0, 61, 0
2, 16806, Note_on_c, 0, 76, 0
2, 16828, Note_on_c, 0, 73, 64
2, 16835, Note_on_c, 0, 62, 43
2, 16854, Control_c, 0, 64, 104
2, 16857, Control_c, 0, 64, 40
2, 16862, Control_c, 0, 64, 0
2, 16905, Control_c, 0, 64, 56
2, 16909, Control_c, 0, 64, 127
2, 16934, Note_on_c, 0, 59, 0
2, 16942, Note_on_c, 0, 66, 0
2, 16948, Note_on_c, 0, 62, 0
2, 16995, Note_on_c, 0, 73, 0
2, 17007, Note_on_c, 0, 69, 0
2, 17017, Note_on_c, 0, 71, 74
2, 17040, Note_on_c, 0, 71, 0
2, 17080, Note_on_c, 0, 71, 72
2, 17084, Control_c, 0, 64, 88
2, 17084, Note_on_c, 0, 68, 46
2, 17084, Note_on_c, 0, 62, 42
2, 17087, Note_on_c, 0, 52, 44
2, 17088, Control_c, 0, 64, 24
2, 17092, Control_c, 0, 64, 0
2, 17108, Control_c, 0, 64, 72
2, 17112, Control_c, 0, 64, 127
2, 17133, Note_on_c, 0, 71, 0
2, 17134, Note_on_c, 0, 62, 0
2, 17138, Note_on_c, 0, 68, 0
2, 17138, Note_on_c, 0, 52, 0
2, 17140, Note_on_c, 0, 73, 72
2, 17156, Note_on_c, 0, 73, 0
2, 17205, Note_on_c, 0, 69, 76
2, 17209, Note_on_c, 0, 66, 43
2, 17210, Note_on_c, 0, 61, 39
2, 17215, Note_on_c, 0, 54, 35
2, 17216, Control_c, 0, 64, 104
2, 17221, Control_c, 0, 64, 24
2, 17225, Control_c, 0, 64, 0
2, 17245, Control_c, 0, 64, 72
2, 17249, Control_c, 0, 64, 127
2, 17257, Note_on_c, 0, 61, 0
2, 17264, Note_on_c, 0, 69, 0
2, 17267, Note_on_c, 0, 54, 0
2, 17269, Note_on_c, 0, 66, 0
2, 17340, Note_on_c, 0, 66, 69
2, 17345, Note_on_c, 0, 63, 42
2, 17349, Note_on_c, 0, 57, 44
2, 17354, Note_on_c, 0, 47, 39
2, 17382, Control_c, 0, 64, 72
2, 17386, Control_c, 0, 64, 0
2, 17418, Control_c, 0, 64, 88
2, 17422, Control_c, 0, 64, 127
2, 17500, Note_on_c, 0, 66, 0
2, 17503, Note_on_c, 0, 57, 0
2, 17508, Note_on_c, 0, 47, 0
2, 17562, Note_on_c, 0, 63, 0
2, 17563, Note_on_c, 0, 68, 68
2, 17627, Note_on_c, 0, 68, 0
2, 17681, Note_on_c, 0, 66, 69
2, 17682, Note_on_c, 0, 56, 50
2, 17684, Note_on_c, 0, 47, 47
2, 17685, Note_on_c, 0, 40, 41
2, 17686, Control_c, 0, 64, 40
2, 17686, Note_on_c, 0, 62, 54
2, 17689, Control_c, 0, 64, 0
2, 17695, Note_on_c, 0, 62, 0
2, 17708, Note_on_c, 0, 40, 0
2, 17709, Control_c, 0, 64, 72
2, 17712, Note_on_c, 0, 47, 0
2, 17713, Control_c, 0, 64, 127
2, 17719, Note_on_c, 0, 56, 0
2, 17736, Note_on_c, 0, 66, 0
2, 17748, Note_on_c, 0, 64, 80
2, 17761, Note_on_c, 0, 64, 0
2, 17838, Note_on_c, 0, 78, 81
2, 17844, Note_on_c, 0, 74, 65
2, 17848, Note_on_c, 0, 71, 45
2, 17849, Note_on_c, 0, 56, 36
2, 17850, Note_on_c, 0, 62, 36
2, 17852, Note_on_c, 0, 66, 22
2, 17878, Control_c, 0, 64, 88
2, 17882, Control_c, 0, 64, 0
2, 17915, Control_c, 0, 64, 104
2, 17919, Control_c, 0, 64, 127
2, 17970, Note_on_c, 0, 74, 0
2, 17990, Note_on_c, 0, 66, 0
2, 18031, Note_on_c, 0, 62, 0
2, 18057, Note_on_c, 0, 78, 0
2, 18061, Note_on_c, 0, 76, 66
2, 18064, Control_c, 0, 64, 56
2, 18065, Note_on_c, 0, 64, 42
2, 18068, Control_c, 0, 64, 24
2, 18072, Control_c, 0, 64, 40
2, 18076, Note_on_c, 0, 71, 0
2, 18076, Control_c, 0, 64, 88
2, 18080, Note_on_c, 0, 76, 0
2, 18080, Control_c, 0, 64, 127
2, 18086, Note_on_c, 0, 64, 0
2, 18094, Note_on_c, 0, 56, 0
2, 18167, Note_on_c, 0, 66, 73
2, 18168, Control_c, 0, 64, 56
2, 18171, Note_on_c, 0, 61, 53
2, 18172, Note_on_c, 0, 57, 60
2, 18173, Control_c, 0, 64, 0
2, 18173, Note_on_c, 0, 52, 52
2, 18176, Note_on_c, 0, 45, 54
2, 18189, Control_c, 0, 64, 56
2, 18193, Control_c, 0, 64, 127
2, 18195, Note_on_c, 0, 45, 0
2, 18197, Note_on_c, 0, 52, 0
2, 18199, Note_on_c, 0, 57, 0
2, 18219, Note_on_c, 0, 66, 0
2, 18228, Note_on_c, 0, 64, 83
2, 18234, Note_on_c, 0, 61, 0
2, 18241, Note_on_c, 0, 64, 0
2, 18317, Note_on_c, 0, 80, 90
2, 18322, Note_on_c, 0, 64, 48
2, 18324, Note_on_c, 0, 69, 60
2, 18325, Note_on_c, 0, 73, 40
2, 18325, Note_on_c, 0, 52, 47
2, 18326, Note_on_c, 0, 61, 39
2, 18330, Note_on_c, 0, 57, 35
2, 18346, Control_c, 0, 64, 56
2, 18350, Control_c, 0, 64, 0
2, 18383, Control_c, 0, 64, 127
2, 18402, Note_on_c, 0, 69, 0
2, 18407, Note_on_c, 0, 73, 0
2, 18455, Note_on_c, 0, 80, 0
2, 18490, Note_on_c, 0, 52, 0
2, 18513, Note_on_c, 0, 83, 81
2, 18537, Note_on_c, 0, 57, 0
2, 18548, Note_on_c, 0, 64, 0
2, 18558, Note_on_c, 0, 61, 0
2, 18567, Note_on_c, 0, 83, 0
2, 18589, Note_on_c, 0, 81, 79
2, 18632, Note_on_c, 0, 81, 0
2, 18641, Note_on_c, 0, 78, 82
2, 18660, Note_on_c, 0, 78, 0
2, 18707, Note_on_c, 0, 76, 82
2, 18708, Note_on_c, 0, 66, 38
2, 18710, Control_c, 0, 64, 104
2, 18713, Note_on_c, 0, 69, 53
2, 18713, Note_on_c, 0, 59, 44
2, 18713, Control_c, 0, 64, 24
2, 18718, Control_c, 0, 64, 0
2, 18724, Note_on_c, 0, 69, 0
2, 18738, Note_on_c, 0, 76, 0
2, 18738, Control_c, 0, 64, 40
2, 18739, Note_on_c, 0, 69, 12
2, 18742, Control_c, 0, 64, 104
2, 18746, Control_c, 0, 64, 127
2, 18750, Note_on_c, 0, 74, 79
2, 18767, Note_on_c, 0, 61, 44
2, 18782, Note_on_c, 0, 74, 0
2, 18788, Note_on_c, 0, 76, 77
2, 18806, Note_on_c, 0, 61, 0
2, 18825, Note_on_c, 0, 76, 0
2, 18838, Note_on_c, 0, 73, 70
2, 18844, Note_on_c, 0, 62, 45
2, 18863, Control_c, 0, 64, 104
2, 18867, Control_c, 0, 64, 72
2, 18871, Control_c, 0, 64, 24
2, 18875, Control_c, 0, 64, 0
2, 18911, Control_c, 0, 64, 72
2, 18915, Control_c, 0, 64, 127
2, 18972, Note_on_c, 0, 66, 0
2, 18986, Note_on_c, 0, 73, 0
2, 18995, Note_on_c, 0, 69, 0
2, 19003, Note_on_c, 0, 71, 72
2, 19028, Note_on_c, 0, 71, 0
2, 19060, Control_c, 0, 64, 72
2, 19063, Note_on_c, 0, 71, 79
2, 19064, Note_on_c, 0, 68, 54
2, 19065, Control_c, 0, 64, 0
2, 19066, Note_on_c, 0, 65, 47
2, 19076, Control_c, 0, 64, 56
2, 19080, Control_c, 0, 64, 104
2, 19085, Control_c, 0, 64, 127
2, 19098, Note_on_c, 0, 65, 0
2, 19101, Note_on_c, 0, 62, 0
2, 19105, Note_on_c, 0, 59, 0
2, 19110, Note_on_c, 0, 71, 0
2, 19113, Note_on_c, 0, 68, 0
2, 19114, Note_on_c, 0, 73, 77
2, 19132, Note_on_c, 0, 73, 0
2, 19180, Note_on_c, 0, 69, 77
2, 19182, Control_c, 0, 64, 88
2, 19184, Note_on_c, 0, 54, 45
2, 19184, Note_on_c, 0, 61, 36
2, 19186, Control_c, 0, 64, 0
2, 19188, Note_on_c, 0, 64, 47
2, 19202, Control_c, 0, 64, 40
2, 19206, Control_c, 0, 64, 104
2, 19209, Control_c, 0, 64, 127
2, 19221, Note_on_c, 0, 61, 0
2, 19228, Note_on_c, 0, 54, 0
2, 19254, Note_on_c, 0, 69, 0
2, 19304, Note_on_c, 0, 66, 69
2, 19316, Note_on_c, 0, 57, 44
2, 19317, Note_on_c, 0, 47, 40
2, 19323, Control_c, 0, 64, 56
2, 19327, Control_c, 0, 64, 0
2, 19363, Control_c, 0, 64, 88
2, 19367, Control_c, 0, 64, 127
2, 19424, Control_c, 0, 64, 40
2, 19428, Control_c, 0, 64, 0
2, 19430, Note_on_c, 0, 64, 0
2, 19432, Note_on_c, 0, 63, 46
2, 19440, Control_c, 0, 64, 24
2, 19444, Control_c, 0, 64, 88
2, 19448, Control_c, 0, 64, 127
2, 19454, Note_on_c, 0, 66, 0
2, 19484, Note_on_c, 0, 57, 0
2, 19504, Note_on_c, 0, 66, 74
2, 19507, Note_on_c, 0, 63, 0
2, 19513, Note_on_c, 0, 47, 0
2, 19536, Note_on_c, 0, 66, 0
2, 19574, Note_on_c, 0, 66, 75
2, 19574, Note_on_c, 0, 45, 47
2, 19574, Note_on_c, 0, 51, 43
2, 19577, Control_c, 0, 64, 72
2, 19577, Note_on_c, 0, 61, 50
2, 19581, Control_c, 0, 64, 0
2, 19601, Control_c, 0, 64, 104
2, 19605, Control_c, 0, 64, 127
2, 19633, Note_on_c, 0, 45, 0
2, 19634, Note_on_c, 0, 68, 76
2, 19640, Note_on_c, 0, 66, 0
2, 19643, Note_on_c, 0, 61, 0
2, 19670, Note_on_c, 0, 68, 0
2, 19688, Note_on_c, 0, 51, 0
2, 19697, Note_on_c, 0, 66, 72
2, 19702, Control_c, 0, 64, 56
2, 19703, Note_on_c, 0, 59, 54
2, 19706, Note_on_c, 0, 44, 42
2, 19706, Control_c, 0, 64, 0
2, 19711, Note_on_c, 0, 52, 41
2, 19730, Control_c, 0, 64, 127
2, 19737, Note_on_c, 0, 59, 0
2, 19748, Note_on_c, 0, 66, 0
2, 19750, Note_on_c, 0, 64, 82
2, 19766, Note_on_c, 0, 52, 0
2, 19782, Note_on_c, 0, 64, 0
2, 19788, Note_on_c, 0, 59, 79
2, 19799, Note_on_c, 0, 44, 0
2, 19808, Note_on_c, 0, 59, 0
2, 19841, Note_on_c, 0, 61, 72
2, 19846, Note_on_c, 0, 57, 53
2, 19846, Note_on_c, 0, 42, 43
2, 19848, Note_on_c, 0, 52, 49
2, 19863, Control_c, 0, 64, 72
2, 19868, Control_c, 0, 64, 0
2, 19932, Control_c, 0, 64, 72
2, 19936, Control_c, 0, 64, 127
2, 19983, Note_on_c, 0, 52, 0
2, 19996, Note_on_c, 0, 42, 0
2, 20002, Note_on_c, 0, 61, 0
2, 20010, Note_on_c, 0, 57, 0
2, 20102, Note_on_c, 0, 64, 64
2, 20105, Note_on_c, 0, 61, 46
2, 20109, Note_on_c, 0, 57, 41
2, 20110, Note_on_c, 0, 47, 42
2, 20114, Note_on_c, 0, 35, 43
2, 20118, Control_c, 0, 64, 88
2, 20122, Control_c, 0, 64, 24
2, 20126, Control_c, 0, 64, 0
2, 20146, Note_on_c, 0, 35, 0
2, 20146, Control_c, 0, 64, 24
2, 20149, Note_on_c, 0, 61, 0
2, 20150, Control_c, 0, 64, 88
2, 20151, Note_on_c, 0, 64, 0
2, 20154, Control_c, 0, 64, 127
2, 20155, Note_on_c, 0, 57, 0
2, 20161, Note_on_c, 0, 47, 0
2, 20234, Note_on_c, 0, 64, 67
2, 20238, Note_on_c, 0, 59, 47
2, 20242, Note_on_c, 0, 47, 39
2, 20242, Note_on_c, 0, 57, 25
2, 20244, Note_on_c, 0, 40, 45
2, 20251, Control_c, 0, 64, 88
2, 20255, Control_c, 0, 64, 24
2, 20259, Control_c, 0, 64, 0
2, 20286, Control_c, 0, 64, 88
2, 20291, Control_c, 0, 64, 127
2, 20343, Note_on_c, 0, 57, 0
2, 20354, Note_on_c, 0, 56, 43
2, 20372, Control_c, 0, 64, 56
2, 20376, Control_c, 0, 64, 0
2, 20384, Note_on_c, 0, 59, 0
2, 20400, Control_c, 0, 64, 72
2, 20404, Control_c, 0, 64, 127
2, 20414, Note_on_c, 0, 40, 0
2, 20416, Note_on_c, 0, 47, 0
2, 20478, Note_on_c, 0, 40, 41
2, 20489, Control_c, 0, 64, 104
2, 20493, Control_c, 0, 64, 40
2, 20497, Control_c, 0, 64, 0
2, 20517, Control_c, 0, 64, 72
2, 20521, Control_c, 0, 64, 127
2, 20582, Note_on_c, 0, 64, 0
2, 20588, Note_on_c, 0, 56, 0
2, 20608, Note_on_c, 0, 52, 41
2, 20618, Control_c, 0, 64, 56
2, 20622, Control_c, 0, 64, 0
2, 20634, Control_c, 0, 64, 24
2, 20638, Control_c, 0, 64, 72
2, 20642, Control_c, 0, 64, 127
2, 20649, Note_on_c, 0, 40, 0
2, 20655, Note_on_c, 0, 52, 0
2, 20718, Control_c, 0, 64, 72
2, 20722, Control_c, 0, 64, 0
2, 20726, Note_on_c, 0, 50, 42
2, 20747, Control_c, 0, 64, 24
2, 20750, Note_on_c, 0, 50, 0
2, 20751, Control_c, 0, 64, 72
2, 20755, Control_c, 0, 64, 127
2, 20759, Note_on_c, 0, 54, 43
2, 20782, Note_on_c, 0, 54, 0
2, 20797, Note_on_c, 0, 57, 49
2, 20823, Note_on_c, 0, 57, 0
2, 20826, Note_on_c, 0, 61, 58
2, 20830, Note_on_c, 0, 42, 46
2, 20840, Control_c, 0, 64, 104
2, 20844, Control_c, 0, 64, 40
2, 20848, Control_c, 0, 64, 0
2, 20856, Note_on_c, 0, 61, 0
2, 20860, Control_c, 0, 64, 56
2, 20860, Note_on_c, 0, 59, 59
2, 20863, Control_c, 0, 64, 88
2, 20867, Control_c, 0, 64, 127
2, 20894, Note_on_c, 0, 57, 57
2, 20895, Note_on_c, 0, 59, 0
2, 20909, Note_on_c, 0, 57, 0
2, 20925, Note_on_c, 0, 56, 58
2, 20952, Note_on_c, 0, 56, 0
2, 20962, Note_on_c, 0, 59, 66
2, 20981, Note_on_c, 0, 59, 0
2, 20984, Note_on_c, 0, 42, 0
2, 20992, Note_on_c, 0, 62, 73
2, 21018, Note_on_c, 0, 62, 0
2, 21022, Note_on_c, 0, 66, 72
2, 21025, Control_c, 0, 64, 88
2, 21025, Note_on_c, 0, 40, 44
2, 21029, Control_c, 0, 64, 40
2, 21033, Control_c, 0, 64, 0
2, 21045, Control_c, 0, 64, 24
2, 21049, Note_on_c, 0, 66, 0
2, 21050, Control_c, 0, 64, 56
2, 21054, Note_on_c, 0, 64, 69
2, 21054, Control_c, 0, 64, 104
2, 21058, Control_c, 0, 64, 127
2, 21084, Note_on_c, 0, 62, 75
2, 21089, Note_on_c, 0, 64, 0
2, 21102, Note_on_c, 0, 62, 0
2, 21110, Note_on_c, 0, 40, 0
2, 21114, Note_on_c, 0, 61, 63
2, 21139, Note_on_c, 0, 61, 0
2, 21148, Note_on_c, 0, 64, 74
2, 21168, Note_on_c, 0, 64, 0
2, 21176, Note_on_c, 0, 68, 71
2, 21203, Note_on_c, 0, 68, 0
2, 21209, Note_on_c, 0, 71, 82
2, 21214, Note_on_c, 0, 45, 47
2, 21215, Control_c, 0, 64, 72
2, 21217, Note_on_c, 0, 33, 40
2, 21219, Control_c, 0, 64, 0
2, 21233, Note_on_c, 0, 71, 0
2, 21235, Control_c, 0, 64, 40
2, 21239, Control_c, 0, 64, 88
2, 21239, Note_on_c, 0, 69, 77
2, 21243, Control_c, 0, 64, 127
2, 21268, Note_on_c, 0, 33, 0
2, 21268, Note_on_c, 0, 45, 0
2, 21268, Note_on_c, 0, 68, 81
2, 21272, Note_on_c, 0, 69, 0
2, 21290, Note_on_c, 0, 68, 0
2, 21300, Note_on_c, 0, 66, 77
2, 21319, Note_on_c, 0, 66, 0
2, 21331, Note_on_c, 0, 69, 86
2, 21350, Note_on_c, 0, 69, 0
2, 21361, Note_on_c, 0, 73, 83
2, 21387, Note_on_c, 0, 73, 0
2, 21394, Note_on_c, 0, 76, 90
2, 21396, Note_on_c, 0, 50, 59
2, 21398, Note_on_c, 0, 38, 50
2, 21400, Control_c, 0, 64, 88
2, 21404, Control_c, 0, 64, 0
2, 21419, Note_on_c, 0, 76, 0
2, 21424, Note_on_c, 0, 74, 86
2, 21429, Control_c, 0, 64, 72
2, 21433, Control_c, 0, 64, 127
2, 21455, Note_on_c, 0, 50, 0
2, 21455, Note_on_c, 0, 73, 85
2, 21460, Note_on_c, 0, 74, 0
2, 21462, Note_on_c, 0, 38, 0
2, 21479, Note_on_c, 0, 73, 0
2, 21488, Note_on_c, 0, 71, 83
2, 21520, Note_on_c, 0, 74, 89
2, 21550, Note_on_c, 0, 78, 85
2, 21560, Note_on_c, 0, 74, 0
2, 21586, Control_c, 0, 64, 56
2, 21590, Control_c, 0, 64, 0
2, 21596, Note_on_c, 0, 81, 97
2, 21599, Note_on_c, 0, 78, 0
2, 21602, Note_on_c, 0, 35, 59
2, 21604, Note_on_c, 0, 47, 49
2, 21606, Note_on_c, 0, 71, 0
2, 21612, Note_on_c, 0, 35, 0
2, 21614, Control_c, 0, 64, 72
2, 21618, Control_c, 0, 64, 127
2, 21624, Note_on_c, 0, 47, 0
2, 21703, Note_on_c, 0, 74, 77
2, 21705, Note_on_c, 0, 71, 60
2, 21705, Note_on_c, 0, 66, 59
2, 21706, Note_on_c, 0, 81, 0
2, 21707, Note_on_c, 0, 62, 57
2, 21707, Note_on_c, 0, 54, 54
2, 21709, Note_on_c, 0, 59, 53
2, 21717, Note_on_c, 0, 59, 0
2, 21719, Note_on_c, 0, 62, 0
2, 21721, Note_on_c, 0, 66, 0
2, 21729, Note_on_c, 0, 54, 0
2, 21756, Note_on_c, 0, 71, 0
2, 21756, Note_on_c, 0, 80, 87
2, 21771, Note_on_c, 0, 74, 0
2, 21783, Note_on_c, 0, 80, 0
2, 21820, Note_on_c, 0, 78, 85
2, 21823, Control_c, 0, 64, 56
2, 21825, Note_on_c, 0, 74, 69
2, 21825, Note_on_c, 0, 68, 57
2, 21826, Note_on_c, 0, 52, 56
2, 21828, Note_on_c, 0, 40, 49
2, 21828, Control_c, 0, 64, 0
2, 21844, Control_c, 0, 64, 56
2, 21847, Note_on_c, 0, 52, 0
2, 21848, Control_c, 0, 64, 127
2, 21854, Note_on_c, 0, 74, 0
2, 21856, Note_on_c, 0, 40, 0
2, 21865, Note_on_c, 0, 78, 0
2, 21877, Note_on_c, 0, 76, 96
2, 21885, Note_on_c, 0, 68, 0
2, 21916, Note_on_c, 0, 76, 0
2, 21935, Note_on_c, 0, 78, 85
2, 21937, Control_c, 0, 64, 56
2, 21940, Note_on_c, 0, 73, 54
2, 21942, Control_c, 0, 64, 0
2, 21943, Note_on_c, 0, 69, 56
2, 21943, Note_on_c, 0, 33, 54
2, 21945, Note_on_c, 0, 45, 53
2, 21952, Note_on_c, 0, 33, 0
2, 21962, Control_c, 0, 64, 88
2, 21964, Note_on_c, 0, 45, 0
2, 21966, Control_c, 0, 64, 127
2, 21976, Note_on_c, 0, 78, 0
2, 21986, Note_on_c, 0, 73, 0
2, 21992, Note_on_c, 0, 76, 88
2, 22028, Note_on_c, 0, 76, 0
2, 22037, Note_on_c, 0, 74, 86
2, 22041, Note_on_c, 0, 52, 63
2, 22062, Note_on_c, 0, 52, 0
2, 22080, Note_on_c, 0, 74, 0
2, 22088, Note_on_c, 0, 73, 81
2, 22099, Note_on_c, 0, 69, 0
2, 22117, Note_on_c, 0, 73, 0
2, 22144, Note_on_c, 0, 74, 84
2, 22151, Note_on_c, 0, 66, 50
2, 22155, Control_c, 0, 64, 40
2, 22155, Note_on_c, 0, 69, 36
2, 22159, Control_c, 0, 64, 0
2, 22175, Control_c, 0, 64, 24
2, 22179, Control_c, 0, 64, 88
2, 22184, Control_c, 0, 64, 127
2, 22200, Note_on_c, 0, 69, 0
2, 22202, Note_on_c, 0, 66, 0
2, 22202, Note_on_c, 0, 74, 0
2, 22202, Note_on_c, 0, 73, 78
2, 22208, Note_on_c, 0, 64, 48
2, 22248, Note_on_c, 0, 64, 0
2, 22259, Note_on_c, 0, 73, 0
2, 22262, Note_on_c, 0, 62, 44
2, 22263, Note_on_c, 0, 71, 70
2, 22276, Control_c, 0, 64, 56
2, 22280, Control_c, 0, 64, 0
2, 22304, Control_c, 0, 64, 40
2, 22308, Control_c, 0, 64, 104
2, 22310, Note_on_c, 0, 62, 0
2, 22312, Control_c, 0, 64, 127
2, 22321, Note_on_c, 0, 71, 0
2, 22322, Note_on_c, 0, 69, 65
2, 22322, Note_on_c, 0, 61, 40
2, 22341, Note_on_c, 0, 69, 0
2, 22342, Note_on_c, 0, 61, 0
2, 22393, Control_c, 0, 64, 88
2, 22397, Control_c, 0, 64, 0
2, 22401, Note_on_c, 0, 50, 72
2, 22430, Control_c, 0, 64, 56
2, 22432, Note_on_c, 0, 50, 0
2, 22434, Control_c, 0, 64, 104
2, 22438, Control_c, 0, 64, 127
2, 22438, Note_on_c, 0, 54, 61
2, 22462, Note_on_c, 0, 54, 0
2, 22474, Note_on_c, 0, 57, 67
2, 22509, Note_on_c, 0, 57, 0
2, 22509, Note_on_c, 0, 61, 68
2, 22513, Note_on_c, 0, 42, 40
2, 22514, Control_c, 0, 64, 56
2, 22518, Control_c, 0, 64, 0
2, 22526, Control_c, 0, 64, 24
2, 22530, Control_c, 0, 64, 56
2, 22534, Control_c, 0, 64, 104
2, 22538, Control_c, 0, 64, 127
2, 22540, Note_on_c, 0, 61, 0
2, 22542, Note_on_c, 0, 59, 62
2, 22573, Note_on_c, 0, 57, 70
2, 22576, Note_on_c, 0, 42, 0
2, 22578, Note_on_c, 0, 59, 0
2, 22592, Note_on_c, 0, 57, 0
2, 22595, Control_c, 0, 64, 56
2, 22599, Control_c, 0, 64, 24
2, 22603, Control_c, 0, 64, 40
2, 22606, Note_on_c, 0, 56, 75
2, 22607, Control_c, 0, 64, 88
2, 22611, Control_c, 0, 64, 127
2, 22643, Note_on_c, 0, 59, 70
2, 22658, Note_on_c, 0, 56, 0
2, 22666, Note_on_c, 0, 59, 0
2, 22672, Note_on_c, 0, 62, 76
2, 22704, Note_on_c, 0, 66, 71
2, 22708, Note_on_c, 0, 40, 55
2, 22712, Note_on_c, 0, 62, 0
2, 22712, Control_c, 0, 64, 72
2, 22723, Control_c, 0, 64, 127
2, 22731, Note_on_c, 0, 66, 0
2, 22736, Note_on_c, 0, 64, 73
2, 22739, Note_on_c, 0, 40, 0
2, 22764, Note_on_c, 0, 62, 81
2, 22770, Note_on_c, 0, 64, 0
2, 22782, Note_on_c, 0, 62, 0
2, 22796, Note_on_c, 0, 61, 77
2, 22818, Note_on_c, 0, 61, 0
2, 22827, Note_on_c, 0, 64, 81
2, 22846, Note_on_c, 0, 64, 0
2, 22855, Note_on_c, 0, 68, 77
2, 22885, Note_on_c, 0, 68, 0
2, 22888, Note_on_c, 0, 71, 87
2, 22889, Note_on_c, 0, 45, 59
2, 22890, Control_c, 0, 64, 72
2, 22892, Note_on_c, 0, 33, 42
2, 22893, Control_c, 0, 64, 0
2, 22902, Control_c, 0, 64, 24
2, 22905, Control_c, 0, 64, 72
2, 22909, Control_c, 0, 64, 127
2, 22913, Note_on_c, 0, 71, 0
2, 22918, Note_on_c, 0, 33, 0
2, 22918, Note_on_c, 0, 69, 85
2, 22921, Note_on_c, 0, 45, 0
2, 22948, Note_on_c, 0, 68, 82
2, 22949, Note_on_c, 0, 69, 0
2, 22969, Note_on_c, 0, 68, 0
2, 22979, Note_on_c, 0, 66, 78
2, 22996, Note_on_c, 0, 66, 0
2, 23009, Note_on_c, 0, 69, 89
2, 23027, Note_on_c, 0, 69, 0
2, 23038, Note_on_c, 0, 73, 86
2, 23065, Note_on_c, 0, 73, 0
2, 23070, Note_on_c, 0, 76, 93
2, 23074, Note_on_c, 0, 50, 58
2, 23078, Note_on_c, 0, 38, 48
2, 23079, Control_c, 0, 64, 104
2, 23083, Control_c, 0, 64, 40
2, 23087, Control_c, 0, 64, 0
2, 23096, Control_c, 0, 64, 72
2, 23098, Note_on_c, 0, 76, 0
2, 23098, Note_on_c, 0, 74, 85
2, 23100, Control_c, 0, 64, 127
2, 23119, Note_on_c, 0, 50, 0
2, 23123, Note_on_c, 0, 38, 0
2, 23128, Note_on_c, 0, 73, 89
2, 23137, Note_on_c, 0, 74, 0
2, 23152, Note_on_c, 0, 73, 0
2, 23160, Note_on_c, 0, 71, 93
2, 23191, Note_on_c, 0, 74, 92
2, 23220, Note_on_c, 0, 78, 89
2, 23230, Note_on_c, 0, 74, 0
2, 23261, Note_on_c, 0, 71, 0
2, 23261, Control_c, 0, 64, 40
2, 23264, Note_on_c, 0, 78, 0
2, 23264, Control_c, 0, 64, 0
2, 23266, Note_on_c, 0, 81, 97
2, 23268, Note_on_c, 0, 35, 65
2, 23272, Note_on_c, 0, 47, 67
2, 23281, Control_c, 0, 64, 72
2, 23284, Note_on_c, 0, 35, 0
2, 23285, Control_c, 0, 64, 127
2, 23289, Note_on_c, 0, 47, 0
2, 23368, Note_on_c, 0, 74, 76
2, 23371, Note_on_c, 0, 71, 61
2, 23372, Note_on_c, 0, 66, 60
2, 23376, Note_on_c, 0, 62, 51
2, 23376, Note_on_c, 0, 54, 44
2, 23377, Note_on_c, 0, 59, 46
2, 23400, Note_on_c, 0, 81, 0
2, 23414, Note_on_c, 0, 74, 0
2, 23419, Note_on_c, 0, 80, 84
2, 23444, Note_on_c, 0, 54, 0
2, 23452, Note_on_c, 0, 59, 0
2, 23452, Note_on_c, 0, 66, 0
2, 23455, Note_on_c, 0, 62, 0
2, 23468, Note_on_c, 0, 80, 0
2, 23473, Note_on_c, 0, 78, 90
2, 23514, Note_on_c, 0, 78, 0
2, 23521, Note_on_c, 0, 80, 86
2, 23533, Note_on_c, 0, 71, 0
2, 23570, Note_on_c, 0, 80, 0
2, 23577, Note_on_c, 0, 71, 86
2, 23610, Note_on_c, 0, 74, 90
2, 23639, Note_on_c, 0, 78, 88
2, 23649, Note_on_c, 0, 74, 0
2, 23676, Control_c, 0, 64, 104
2, 23681, Control_c, 0, 64, 0
2, 23686, Note_on_c, 0, 78, 0
2, 23688, Note_on_c, 0, 81, 97
2, 23693, Note_on_c, 0, 38, 67
2, 23693, Note_on_c, 0, 50, 66
2, 23705, Control_c, 0, 64, 56
2, 23707, Note_on_c, 0, 71, 0
2, 23709, Note_on_c, 0, 38, 0
2, 23709, Control_c, 0, 64, 127
2, 23714, Note_on_c, 0, 50, 0
2, 23802, Note_on_c, 0, 74, 69
2, 23806, Note_on_c, 0, 71, 53
2, 23807, Note_on_c, 0, 66, 53
2, 23809, Note_on_c, 0, 59, 47
2, 23810, Note_on_c, 0, 54, 48
2, 23811, Note_on_c, 0, 62, 50
2, 23816, Note_on_c, 0, 81, 0
2, 23872, Note_on_c, 0, 80, 84
2, 23927, Note_on_c, 0, 80, 0
2, 23927, Note_on_c, 0, 74, 0
2, 23937, Note_on_c, 0, 78, 79
2, 23949, Note_on_c, 0, 66, 0
2, 23951, Note_on_c, 0, 54, 0
2, 23956, Note_on_c, 0, 62, 0
2, 23958, Note_on_c, 0, 59, 0
2, 23995, Note_on_c, 0, 78, 0
2, 23999, Note_on_c, 0, 71, 0
2, 24003, Note_on_c, 0, 80, 85
2, 24022, Note_on_c, 0, 80, 0
2, 24090, Note_on_c, 0, 76, 77
2, 24094, Note_on_c, 0, 62, 49
2, 24094, Note_on_c, 0, 68, 47
2, 24095, Control_c, 0, 64, 24
2, 24096, Note_on_c, 0, 52, 37
2, 24100, Control_c, 0, 64, 0
2, 24125, Note_on_c, 0, 76, 0
2, 24128, Control_c, 0, 64, 88
2, 24132, Control_c, 0, 64, 127
2, 24138, Note_on_c, 0, 74, 73
2, 24171, Note_on_c, 0, 74, 0
2, 24173, Note_on_c, 0, 76, 81
2, 24186, Note_on_c, 0, 68, 0
2, 24193, Note_on_c, 0, 76, 0
2, 24227, Note_on_c, 0, 73, 71
2, 24258, Control_c, 0, 64, 104
2, 24262, Control_c, 0, 64, 24
2, 24266, Control_c, 0, 64, 0
2, 24285, Control_c, 0, 64, 24
2, 24289, Control_c, 0, 64, 72
2, 24293, Control_c, 0, 64, 127
2, 24322, Note_on_c, 0, 52, 0
2, 24334, Control_c, 0, 64, 72
2, 24337, Note_on_c, 0, 54, 47
2, 24337, Control_c, 0, 64, 0
2, 24339, Note_on_c, 0, 66, 51
2, 24354, Control_c, 0, 64, 56
2, 24358, Control_c, 0, 64, 127
2, 24382, Note_on_c, 0, 73, 0
2, 24390, Note_on_c, 0, 71, 70
2, 24417, Note_on_c, 0, 71, 0
2, 24440, Note_on_c, 0, 54, 0
2, 24456, Note_on_c, 0, 56, 43
2, 24456, Note_on_c, 0, 71, 68
2, 24459, Control_c, 0, 64, 104
2, 24463, Control_c, 0, 64, 40
2, 24464, Note_on_c, 0, 65, 37
2, 24467, Control_c, 0, 64, 0
2, 24488, Control_c, 0, 64, 56
2, 24492, Control_c, 0, 64, 127
2, 24502, Note_on_c, 0, 66, 0
2, 24508, Note_on_c, 0, 71, 0
2, 24512, Note_on_c, 0, 73, 70
2, 24515, Note_on_c, 0, 65, 0
2, 24518, Note_on_c, 0, 62, 0
2, 24532, Note_on_c, 0, 56, 0
2, 24559, Note_on_c, 0, 73, 0
2, 24579, Note_on_c, 0, 69, 71
2, 24586, Note_on_c, 0, 64, 48
2, 24591, Note_on_c, 0, 57, 42
2, 24592, Control_c, 0, 64, 88
2, 24592, Note_on_c, 0, 61, 26
2, 24596, Control_c, 0, 64, 0
2, 24621, Control_c, 0, 64, 104
2, 24625, Control_c, 0, 64, 127
2, 24678, Note_on_c, 0, 57, 0
2, 24683, Note_on_c, 0, 61, 0
2, 24691, Note_on_c, 0, 69, 0
2, 24701, Note_on_c, 0, 64, 0
2, 24703, Note_on_c, 0, 66, 69
2, 24822, Control_c, 0, 64, 72
2, 24826, Control_c, 0, 64, 0
2, 24831, Note_on_c, 0, 63, 44
2, 24834, Note_on_c, 0, 57, 41
2, 24834, Note_on_c, 0, 47, 46
2, 24850, Control_c, 0, 64, 56
2, 24854, Control_c, 0, 64, 127
2, 24867, Note_on_c, 0, 57, 0
2, 24868, Note_on_c, 0, 47, 0
2, 24888, Note_on_c, 0, 66, 0
2, 24892, Note_on_c, 0, 63, 0
2, 24896, Note_on_c, 0, 68, 73
2, 24931, Note_on_c, 0, 68, 0
2, 24968, Note_on_c, 0, 66, 69
2, 24970, Note_on_c, 0, 56, 46
2, 24971, Control_c, 0, 64, 56
2, 24973, Note_on_c, 0, 62, 55
2, 24976, Control_c, 0, 64, 0
2, 24976, Note_on_c, 0, 47, 55
2, 24978, Note_on_c, 0, 40, 39
2, 24983, Note_on_c, 0, 62, 0
2, 24992, Control_c, 0, 64, 56
2, 24996, Control_c, 0, 64, 127
2, 24999, Note_on_c, 0, 47, 0
2, 25001, Note_on_c, 0, 40, 0
2, 25019, Note_on_c, 0, 56, 0
2, 25026, Note_on_c, 0, 66, 0
2, 25028, Note_on_c, 0, 64, 82
2, 25042, Note_on_c, 0, 64, 0
2, 25118, Note_on_c, 0, 78, 78
2, 25124, Note_on_c, 0, 71, 45
2, 25124, Note_on_c, 0, 74, 53
2, 25127, Note_on_c, 0, 56, 42
2, 25127, Note_on_c, 0, 66, 34
2, 25128, Note_on_c, 0, 62, 42
2, 25149, Control_c, 0, 64, 56
2, 25153, Control_c, 0, 64, 0
2, 25186, Control_c, 0, 64, 72
2, 25190, Control_c, 0, 64, 127
2, 25278, Note_on_c, 0, 74, 0
2, 25279, Note_on_c, 0, 66, 0
2, 25319, Note_on_c, 0, 62, 0
2, 25349, Note_on_c, 0, 76, 67
2, 25352, Note_on_c, 0, 64, 44
2, 25354, Note_on_c, 0, 78, 0
2, 25360, Note_on_c, 0, 71, 0
2, 25369, Note_on_c, 0, 76, 0
2, 25371, Note_on_c, 0, 64, 0
2, 25382, Note_on_c, 0, 56, 0
2, 25460, Note_on_c, 0, 66, 69
2, 25464, Control_c, 0, 64, 104
2, 25465, Note_on_c, 0, 57, 58
2, 25465, Note_on_c, 0, 61, 51
2, 25468, Control_c, 0, 64, 24
2, 25469, Note_on_c, 0, 45, 45
2, 25472, Control_c, 0, 64, 0
2, 25474, Note_on_c, 0, 52, 42
2, 25492, Control_c, 0, 64, 72
2, 25496, Note_on_c, 0, 45, 0
2, 25496, Control_c, 0, 64, 127
2, 25498, Note_on_c, 0, 52, 0
2, 25514, Note_on_c, 0, 66, 0
2, 25514, Note_on_c, 0, 57, 0
2, 25526, Note_on_c, 0, 64, 82
2, 25531, Note_on_c, 0, 61, 0
2, 25541, Note_on_c, 0, 64, 0
2, 25616, Note_on_c, 0, 80, 92
2, 25622, Note_on_c, 0, 69, 64
2, 25624, Note_on_c, 0, 64, 55
2, 25625, Note_on_c, 0, 61, 37
2, 25625, Note_on_c, 0, 52, 52
2, 25625, Note_on_c, 0, 73, 37
2, 25628, Note_on_c, 0, 57, 42
2, 25637, Control_c, 0, 64, 72
2, 25641, Control_c, 0, 64, 0
2, 25674, Control_c, 0, 64, 56
2, 25678, Control_c, 0, 64, 127
2, 25714, Note_on_c, 0, 69, 0
2, 25715, Note_on_c, 0, 73, 0
2, 25750, Note_on_c, 0, 80, 0
2, 25812, Note_on_c, 0, 83, 88
2, 25854, Note_on_c, 0, 83, 0
2, 25889, Note_on_c, 0, 81, 83
2, 25913, Note_on_c, 0, 52, 0
2, 25918, Note_on_c, 0, 64, 0
2, 25918, Note_on_c, 0, 57, 0
2, 25928, Note_on_c, 0, 61, 0
2, 25939, Note_on_c, 0, 81, 0
2, 25947, Note_on_c, 0, 78, 84
2, 25967, Note_on_c, 0, 78, 0
2, 26021, Note_on_c, 0, 66, 33
2, 26023, Note_on_c, 0, 59, 43
2, 26025, Note_on_c, 0, 76, 83
2, 26032, Note_on_c, 0, 69, 55
2, 26033, Control_c, 0, 64, 72
2, 26036, Control_c, 0, 64, 0
2, 26061, Note_on_c, 0, 76, 0
2, 26061, Control_c, 0, 64, 40
2, 26065, Control_c, 0, 64, 104
2, 26067, Note_on_c, 0, 74, 83
2, 26069, Control_c, 0, 64, 127
2, 26084, Note_on_c, 0, 61, 50
2, 26099, Note_on_c, 0, 74, 0
2, 26103, Note_on_c, 0, 76, 87
2, 26129, Note_on_c, 0, 61, 0
2, 26146, Note_on_c, 0, 76, 0
2, 26162, Note_on_c, 0, 73, 71
2, 26171, Note_on_c, 0, 62, 40
2, 26190, Control_c, 0, 64, 104
2, 26194, Control_c, 0, 64, 56
2, 26198, Control_c, 0, 64, 0
2, 26230, Control_c, 0, 64, 40
2, 26234, Control_c, 0, 64, 104
2, 26238, Control_c, 0, 64, 127
2, 26305, Note_on_c, 0, 66, 0
2, 26307, Note_on_c, 0, 73, 0
2, 26320, Note_on_c, 0, 69, 0
2, 26326, Note_on_c, 0, 71, 73
2, 26351, Note_on_c, 0, 71, 0
2, 26388, Control_c, 0, 64, 72
2, 26388, Note_on_c, 0, 71, 80
2, 26391, Note_on_c, 0, 68, 51
2, 26392, Control_c, 0, 64, 0
2, 26394, Note_on_c, 0, 65, 47
2, 26411, Note_on_c, 0, 68, 0
2, 26412, Control_c, 0, 64, 40
2, 26416, Control_c, 0, 64, 127
2, 26418, Note_on_c, 0, 65, 0
2, 26421, Note_on_c, 0, 62, 0
2, 26430, Note_on_c, 0, 59, 0
2, 26438, Note_on_c, 0, 71, 0
2, 26448, Note_on_c, 0, 73, 76
2, 26466, Note_on_c, 0, 73, 0
2, 26512, Note_on_c, 0, 69, 78
2, 26517, Note_on_c, 0, 61, 32
2, 26519, Note_on_c, 0, 64, 51
2, 26521, Note_on_c, 0, 54, 37
2, 26521, Control_c, 0, 64, 88
2, 26525, Control_c, 0, 64, 24
2, 26529, Control_c, 0, 64, 0
2, 26553, Control_c, 0, 64, 72
2, 26557, Control_c, 0, 64, 127
2, 26602, Note_on_c, 0, 61, 0
2, 26612, Note_on_c, 0, 54, 0
2, 26618, Note_on_c, 0, 69, 0
2, 26621, Note_on_c, 0, 64, 0
2, 26628, Note_on_c, 0, 68, 72
2, 26747, Note_on_c, 0, 63, 55
2, 26751, Control_c, 0, 64, 72
2, 26753, Note_on_c, 0, 57, 47
2, 26755, Control_c, 0, 64, 0
2, 26758, Note_on_c, 0, 47, 42
2, 26787, Control_c, 0, 64, 104
2, 26791, Control_c, 0, 64, 127
2, 26813, Note_on_c, 0, 66, 71
2, 26819, Note_on_c, 0, 68, 0
2, 26821, Note_on_c, 0, 47, 0
2, 26821, Note_on_c, 0, 57, 0
2, 26830, Note_on_c, 0, 63, 0
2, 26840, Note_on_c, 0, 66, 0
2, 26889, Note_on_c, 0, 66, 71
2, 26894, Note_on_c, 0, 61, 44
2, 26896, Control_c, 0, 64, 40
2, 26897, Note_on_c, 0, 51, 38
2, 26899, Note_on_c, 0, 45, 44
2, 26900, Control_c, 0, 64, 0
2, 26920, Control_c, 0, 64, 56
2, 26923, Control_c, 0, 64, 127
2, 26948, Note_on_c, 0, 45, 0
2, 26948, Note_on_c, 0, 66, 0
2, 26949, Note_on_c, 0, 68, 74
2, 26958, Note_on_c, 0, 61, 0
2, 26986, Note_on_c, 0, 68, 0
2, 27005, Note_on_c, 0, 51, 0
2, 27012, Note_on_c, 0, 66, 71
2, 27016, Control_c, 0, 64, 104
2, 27020, Note_on_c, 0, 59, 44
2, 27021, Control_c, 0, 64, 24
2, 27024, Note_on_c, 0, 44, 29
2, 27025, Control_c, 0, 64, 0
2, 27026, Note_on_c, 0, 52, 42
2, 27045, Control_c, 0, 64, 40
2, 27049, Control_c, 0, 64, 104
2, 27053, Control_c, 0, 64, 127
2, 27056, Note_on_c, 0, 59, 0
2, 27064, Note_on_c, 0, 64, 80
2, 27066, Note_on_c, 0, 66, 0
2, 27092, Note_on_c, 0, 52, 0
2, 27098, Note_on_c, 0, 64, 0
2, 27104, Note_on_c, 0, 59, 78
2, 27120, Note_on_c, 0, 44, 0
2, 27122, Note_on_c, 0, 59, 0
2, 27160, Note_on_c, 0, 61, 73
2, 27169, Note_on_c, 0, 57, 43
2, 27170, Note_on_c, 0, 52, 44
2, 27170, Note_on_c, 0, 42, 36
2, 27174, Control_c, 0, 64, 88
2, 27178, Control_c, 0, 64, 40
2, 27182, Control_c, 0, 64, 0
2, 27246, Control_c, 0, 64, 104
2, 27251, Control_c, 0, 64, 127
2, 27308, Note_on_c, 0, 52, 0
2, 27318, Note_on_c, 0, 42, 0
2, 27326, Note_on_c, 0, 57, 0
2, 27328, Note_on_c, 0, 61, 0
2, 27419, Note_on_c, 0, 64, 72
2, 27420, Note_on_c, 0, 61, 49
2, 27424, Control_c, 0, 64, 88
2, 27427, Note_on_c, 0, 57, 38
2, 27428, Control_c, 0, 64, 24
2, 27429, Note_on_c, 0, 35, 41
2, 27429, Note_on_c, 0, 47, 36
2, 27432, Control_c, 0, 64, 0
2, 27453, Note_on_c, 0, 35, 0
2, 27453, Control_c, 0, 64, 24
2, 27457, Control_c, 0, 64, 104
2, 27459, Note_on_c, 0, 61, 0
2, 27461, Control_c, 0, 64, 127
2, 27463, Note_on_c, 0, 47, 0
2, 27466, Note_on_c, 0, 64, 0
2, 27470, Note_on_c, 0, 57, 0
2, 27554, Note_on_c, 0, 64, 66
2, 27557, Note_on_c, 0, 40, 40
2, 27558, Note_on_c, 0, 59, 43
2, 27559, Note_on_c, 0, 57, 36
2, 27559, Note_on_c, 0, 47, 34
2, 27570, Control_c, 0, 64, 72
2, 27573, Control_c, 0, 64, 24
2, 27578, Control_c, 0, 64, 0
2, 27606, Control_c, 0, 64, 40
2, 27610, Control_c, 0, 64, 88
2, 27613, Control_c, 0, 64, 127
2, 27668, Note_on_c, 0, 57, 0
2, 27681, Note_on_c, 0, 59, 0
2, 27683, Note_on_c, 0, 56, 43
2, 27695, Control_c, 0, 64, 88
2, 27699, Control_c, 0, 64, 0
2, 27731, Control_c, 0, 64, 40
2, 27735, Control_c, 0, 64, 104
2, 27739, Note_on_c, 0, 40, 0
2, 27739, Control_c, 0, 64, 127
2, 27749, Note_on_c, 0, 47, 0
2, 27809, Note_on_c, 0, 40, 49
2, 27828, Control_c, 0, 64, 104
2, 27832, Control_c, 0, 64, 40
2, 27836, Control_c, 0, 64, 0
2, 27856, Control_c, 0, 64, 56
2, 27859, Control_c, 0, 64, 127
2, 27942, Note_on_c, 0, 52, 55
2, 27945, Control_c, 0, 64, 72
2, 27949, Control_c, 0, 64, 0
2, 27969, Control_c, 0, 64, 56
2, 27973, Control_c, 0, 64, 127
2, 27989, Note_on_c, 0, 52, 0
2, 27990, Note_on_c, 0, 40, 0
2, 27991, Note_on_c, 0, 56, 0
2, 27993, Note_on_c, 0, 64, 0
2, 28086, Control_c, 0, 64, 104
2, 28088, Note_on_c, 0, 67, 76
2, 28088, Note_on_c, 0, 40, 39
2, 28090, Note_on_c, 0, 48, 46
2, 28091, Control_c, 0, 64, 0
2, 28092, Note_on_c, 0, 55, 54
2, 28096, Note_on_c, 0, 60, 51
2, 28114, Control_c, 0, 64, 88
2, 28117, Note_on_c, 0, 48, 0
2, 28118, Control_c, 0, 64, 127
2, 28121, Note_on_c, 0, 67, 0
2, 28121, Note_on_c, 0, 40, 0
2, 28131, Note_on_c, 0, 65, 77
2, 28133, Note_on_c, 0, 55, 0
2, 28133, Note_on_c, 0, 60, 0
2, 28167, Note_on_c, 0, 65, 0
2, 28167, Note_on_c, 0, 67, 83
2, 28191, Note_on_c, 0, 67, 0
2, 28212, Note_on_c, 0, 64, 82
2, 28217, Note_on_c, 0, 60, 64
2, 28217, Note_on_c, 0, 57, 55
2, 28220, Note_on_c, 0, 48, 49
2, 28221, Note_on_c, 0, 41, 42
2, 28227, Control_c, 0, 64, 88
2, 28231, Control_c, 0, 64, 40
2, 28235, Control_c, 0, 64, 0
2, 28264, Control_c, 0, 64, 56
2, 28268, Control_c, 0, 64, 127
2, 28287, Note_on_c, 0, 48, 0
2, 28295, Note_on_c, 0, 41, 0
2, 28302, Note_on_c, 0, 60, 0
2, 28307, Note_on_c, 0, 57, 0
2, 28312, Note_on_c, 0, 64, 0
2, 28427, Note_on_c, 0, 62, 79
2, 28434, Note_on_c, 0, 59, 50
2, 28435, Note_on_c, 0, 53, 55
2, 28435, Note_on_c, 0, 43, 56
2, 28437, Note_on_c, 0, 55, 40
2, 28437, Control_c, 0, 64, 56
2, 28441, Control_c, 0, 64, 0
2, 28461, Control_c, 0, 64, 56
2, 28465, Control_c, 0, 64, 127
2, 28472, Note_on_c, 0, 53, 0
2, 28475, Note_on_c, 0, 43, 0
2, 28482, Note_on_c, 0, 62, 0
2, 28482, Note_on_c, 0, 59, 0
2, 28484, Note_on_c, 0, 55, 0
2, 28545, Note_on_c, 0, 60, 83
2, 28550, Note_on_c, 0, 57, 55
2, 28552, Note_on_c, 0, 52, 55
2, 28556, Note_on_c, 0, 45, 51
2, 28562, Control_c, 0, 64, 72
2, 28565, Control_c, 0, 64, 0
2, 28594, Control_c, 0, 64, 24
2, 28598, Note_on_c, 0, 45, 0
2, 28598, Note_on_c, 0, 52, 0
2, 28599, Note_on_c, 0, 57, 0
2, 28599, Control_c, 0, 64, 104
2, 28602, Control_c, 0, 64, 127
2, 28613, Note_on_c, 0, 60, 0
2, 28672, Note_on_c, 0, 55, 80
2, 28675, Control_c, 0, 64, 104
2, 28679, Note_on_c, 0, 53, 45
2, 28679, Note_on_c, 0, 50, 52
2, 28679, Control_c, 0, 64, 56
2, 28682, Note_on_c, 0, 47, 49
2, 28683, Control_c, 0, 64, 0
2, 28736, Control_c, 0, 64, 127
2, 28798, Note_on_c, 0, 53, 0
2, 28812, Note_on_c, 0, 50, 0
2, 28816, Note_on_c, 0, 55, 0
2, 28829, Note_on_c, 0, 47, 0
2, 28869, Note_on_c, 0, 60, 81
2, 28874, Note_on_c, 0, 52, 51
2, 28876, Note_on_c, 0, 57, 56
2, 28878, Note_on_c, 0, 45, 49
2, 28881, Control_c, 0, 64, 72
2, 28885, Control_c, 0, 64, 0
2, 28896, Note_on_c, 0, 57, 0
2, 28901, Control_c, 0, 64, 24
2, 28905, Note_on_c, 0, 60, 0
2, 28905, Control_c, 0, 64, 104
2, 28909, Control_c, 0, 64, 127
2, 28914, Note_on_c, 0, 52, 0
2, 28928, Note_on_c, 0, 45, 0
2, 28975, Note_on_c, 0, 62, 79
2, 28978, Control_c, 0, 64, 88
2, 28978, Note_on_c, 0, 53, 59
2, 28980, Note_on_c, 0, 59, 66
2, 28982, Control_c, 0, 64, 0
2, 28982, Note_on_c, 0, 43, 60
2, 29002, Control_c, 0, 64, 40
2, 29006, Note_on_c, 0, 53, 0
2, 29006, Control_c, 0, 64, 104
2, 29010, Control_c, 0, 64, 127
2, 29012, Note_on_c, 0, 43, 0
2, 29013, Note_on_c, 0, 59, 0
2, 29016, Note_on_c, 0, 62, 0
2, 29073, Note_on_c, 0, 65, 87
2, 29078, Note_on_c, 0, 60, 66
2, 29079, Control_c, 0, 64, 56
2, 29079, Note_on_c, 0, 57, 56
2, 29080, Note_on_c, 0, 41, 61
2, 29083, Control_c, 0, 64, 0
2, 29103, Control_c, 0, 64, 56
2, 29107, Control_c, 0, 64, 127
2, 29111, Note_on_c, 0, 41, 0
2, 29112, Note_on_c, 0, 60, 0
2, 29115, Note_on_c, 0, 57, 0
2, 29120, Note_on_c, 0, 65, 0
2, 29171, Control_c, 0, 64, 56
2, 29172, Note_on_c, 0, 67, 90
2, 29173, Note_on_c, 0, 55, 76
2, 29174, Note_on_c, 0, 60, 80
2, 29176, Control_c, 0, 64, 0
2, 29177, Note_on_c, 0, 52, 59
2, 29178, Note_on_c, 0, 40, 56
2, 29190, Note_on_c, 0, 55, 0
2, 29192, Control_c, 0, 64, 72
2, 29194, Note_on_c, 0, 60, 0
2, 29196, Control_c, 0, 64, 127
2, 29206, Note_on_c, 0, 67, 0
2, 29213, Note_on_c, 0, 52, 0
2, 29215, Note_on_c, 0, 40, 0
2, 29267, Control_c, 0, 64, 40
2, 29271, Note_on_c, 0, 69, 84
2, 29272, Note_on_c, 0, 60, 77
2, 29272, Control_c, 0, 64, 0
2, 29274, Note_on_c, 0, 65, 74
2, 29279, Note_on_c, 0, 50, 74
2, 29282, Note_on_c, 0, 38, 62
2, 29287, Note_on_c, 0, 60, 0
2, 29288, Control_c, 0, 64, 56
2, 29290, Note_on_c, 0, 65, 0
2, 29292, Control_c, 0, 64, 127
2, 29298, Note_on_c, 0, 69, 0
2, 29300, Note_on_c, 0, 50, 0
2, 29306, Note_on_c, 0, 38, 0
2, 29333, Note_on_c, 0, 72, 86
2, 29374, Note_on_c, 0, 72, 0
2, 29397, Note_on_c, 0, 31, 64
2, 29401, Control_c, 0, 64, 72
2, 29405, Control_c, 0, 64, 0
2, 29407, Note_on_c, 0, 74, 92
2, 29412, Note_on_c, 0, 71, 64
2, 29412, Note_on_c, 0, 65, 60
2, 29441, Control_c, 0, 64, 88
2, 29445, Control_c, 0, 64, 127
2, 29462, Note_on_c, 0, 31, 0
2, 29464, Note_on_c, 0, 43, 65
2, 29472, Note_on_c, 0, 43, 0
2, 29514, Note_on_c, 0, 50, 54
2, 29551, Note_on_c, 0, 53, 68
2, 29573, Note_on_c, 0, 65, 0
2, 29582, Note_on_c, 0, 50, 0
2, 29582, Note_on_c, 0, 71, 0
2, 29600, Note_on_c, 0, 67, 82
2, 29604, Note_on_c, 0, 53, 0
2, 29604, Note_on_c, 0, 55, 70
2, 29642, Note_on_c, 0, 55, 0
2, 29648, Note_on_c, 0, 59, 60
2, 29658, Note_on_c, 0, 59, 0
2, 29691, Note_on_c, 0, 62, 64
2, 29698, Note_on_c, 0, 67, 0
2, 29718, Note_on_c, 0, 74, 0
2, 29739, Note_on_c, 0, 65, 61
2, 29742, Note_on_c, 0, 62, 0
2, 29762, Note_on_c, 0, 65, 0
2, 29799, Note_on_c, 0, 79, 78
2, 29801, Control_c, 0, 64, 40
2, 29805, Control_c, 0, 64, 0
2, 29805, Note_on_c, 0, 64, 51
2, 29807, Note_on_c, 0, 72, 48
2, 29808, Note_on_c, 0, 67, 49
2, 29837, Note_on_c, 0, 77, 75
2, 29838, Control_c, 0, 64, 56
2, 29841, Note_on_c, 0, 79, 0
2, 29842, Control_c, 0, 64, 104
2, 29845, Control_c, 0, 64, 127
2, 29862, Note_on_c, 0, 77, 0
2, 29868, Note_on_c, 0, 79, 69
2, 29886, Control_c, 0, 64, 56
2, 29890, Control_c, 0, 64, 0
2, 29895, Note_on_c, 0, 79, 0
2, 29900, Note_on_c, 0, 76, 73
2, 29918, Control_c, 0, 64, 72
2, 29922, Control_c, 0, 64, 127
2, 29970, Note_on_c, 0, 67, 0
2, 29976, Note_on_c, 0, 64, 0
2, 29994, Note_on_c, 0, 69, 54
2, 29996, Note_on_c, 0, 65, 36
2, 30011, Control_c, 0, 64, 72
2, 30015, Control_c, 0, 64, 0
2, 30039, Control_c, 0, 64, 88
2, 30043, Control_c, 0, 64, 127
2, 30072, Note_on_c, 0, 76, 0
2, 30088, Note_on_c, 0, 74, 70
2, 30116, Note_on_c, 0, 72, 0
2, 30117, Note_on_c, 0, 69, 0
2, 30125, Note_on_c, 0, 65, 0
2, 30147, Note_on_c, 0, 74, 0
2, 30188, Note_on_c, 0, 76, 70
2, 30197, Note_on_c, 0, 70, 38
2, 30198, Note_on_c, 0, 67, 39
2, 30202, Note_on_c, 0, 72, 35
2, 30216, Control_c, 0, 64, 104
2, 30220, Control_c, 0, 64, 40
2, 30224, Control_c, 0, 64, 0
2, 30249, Control_c, 0, 64, 72
2, 30253, Control_c, 0, 64, 127
2, 30305, Note_on_c, 0, 70, 0
2, 30319, Note_on_c, 0, 72, 0
2, 30328, Note_on_c, 0, 76, 0
2, 30332, Note_on_c, 0, 67, 0
2, 30374, Note_on_c, 0, 77, 70
2, 30378, Note_on_c, 0, 72, 26
2, 30381, Note_on_c, 0, 65, 36
2, 30382, Note_on_c, 0, 69, 43
2, 30398, Control_c, 0, 64, 56
2, 30402, Control_c, 0, 64, 0
2, 30430, Control_c, 0, 64, 72
2, 30434, Control_c, 0, 64, 127
2, 30464, Note_on_c, 0, 72, 0
2, 30471, Note_on_c, 0, 77, 0
2, 30477, Note_on_c, 0, 69, 0
2, 30478, Note_on_c, 0, 65, 0
2, 30560, Note_on_c, 0, 79, 69
2, 30562, Note_on_c, 0, 64, 41
2, 30564, Control_c, 0, 64, 40
2, 30566, Note_on_c, 0, 67, 39
2, 30568, Control_c, 0, 64, 0
2, 30569, Note_on_c, 0, 72, 30
2, 30596, Control_c, 0, 64, 56
2, 30598, Note_on_c, 0, 79, 0
2, 30599, Control_c, 0, 64, 104
2, 30600, Note_on_c, 0, 77, 73
2, 30603, Control_c, 0, 64, 127
2, 30628, Note_on_c, 0, 77, 0
2, 30634, Note_on_c, 0, 79, 70
2, 30665, Note_on_c, 0, 79, 0
2, 30672, Note_on_c, 0, 76, 71
2, 30692, Control_c, 0, 64, 88
2, 30697, Control_c, 0, 64, 40
2, 30701, Control_c, 0, 64, 0
2, 30733, Control_c, 0, 64, 40
2, 30736, Control_c, 0, 64, 104
2, 30741, Control_c, 0, 64, 127
2, 30878, Note_on_c, 0, 76, 0
2, 30880, Note_on_c, 0, 79, 63
2, 30926, Note_on_c, 0, 79, 0
2, 30942, Note_on_c, 0, 67, 0
2, 31006, Note_on_c, 0, 72, 0
2, 31008, Note_on_c, 0, 80, 64
2, 31011, Control_c, 0, 64, 88
2, 31014, Note_on_c, 0, 68, 30
2, 31015, Control_c, 0, 64, 0
2, 31040, Control_c, 0, 64, 40
2, 31044, Control_c, 0, 64, 104
2, 31048, Control_c, 0, 64, 127
2, 31050, Note_on_c, 0, 78, 58
2, 31052, Note_on_c, 0, 80, 0
2, 31081, Note_on_c, 0, 78, 0
2, 31086, Note_on_c, 0, 80, 60
2, 31118, Note_on_c, 0, 80, 0
2, 31126, Note_on_c, 0, 76, 66
2, 31148, Control_c, 0, 64, 88
2, 31152, Control_c, 0, 64, 40
2, 31156, Control_c, 0, 64, 0
2, 31180, Control_c, 0, 64, 88
2, 31185, Control_c, 0, 64, 127
2, 31242, Note_on_c, 0, 73, 31
2, 31257, Note_on_c, 0, 76, 0
2, 31348, Note_on_c, 0, 64, 0
2, 31350, Note_on_c, 0, 80, 57
2, 31420, Note_on_c, 0, 68, 0
2, 31422, Note_on_c, 0, 63, 35
2, 31455, Note_on_c, 0, 73, 0
2, 31456, Note_on_c, 0, 63, 0
2, 31465, Note_on_c, 0, 80, 0
2, 31523, Note_on_c, 0, 81, 66
2, 31534, Note_on_c, 0, 61, 33
2, 31552, Control_c, 0, 64, 72
2, 31556, Control_c, 0, 64, 0
2, 31588, Control_c, 0, 64, 104
2, 31588, Note_on_c, 0, 64, 37
2, 31592, Control_c, 0, 64, 127
2, 31626, Note_on_c, 0, 69, 61
2, 31664, Note_on_c, 0, 73, 61
2, 31676, Note_on_c, 0, 64, 0
2, 31681, Note_on_c, 0, 69, 0
2, 31684, Note_on_c, 0, 61, 0
2, 31690, Note_on_c, 0, 81, 0
2, 31696, Note_on_c, 0, 73, 0
2, 31703, Note_on_c, 0, 76, 71
2, 31731, Note_on_c, 0, 76, 0
2, 31735, Note_on_c, 0, 78, 71
2, 31764, Note_on_c, 0, 78, 0
2, 31772, Note_on_c, 0, 80, 68
2, 31782, Control_c, 0, 64, 104
2, 31786, Control_c, 0, 64, 40
2, 31790, Control_c, 0, 64, 0
2, 31807, Note_on_c, 0, 75, 67
2, 31810, Control_c, 0, 64, 56
2, 31814, Control_c, 0, 64, 127
2, 31842, Note_on_c, 0, 71, 52
2, 31853, Note_on_c, 0, 75, 0
2, 31860, Note_on_c, 0, 71, 0
2, 31869, Note_on_c, 0, 68, 43
2, 31870, Note_on_c, 0, 80, 0
2, 31902, Note_on_c, 0, 68, 0
2, 31903, Note_on_c, 0, 63, 44
2, 31938, Note_on_c, 0, 63, 0
2, 31941, Note_on_c, 0, 59, 54
2, 31973, Note_on_c, 0, 59, 0
2, 31976, Note_on_c, 0, 78, 72
2, 31979, Control_c, 0, 64, 88
2, 31983, Note_on_c, 0, 57, 49
2, 31984, Control_c, 0, 64, 24
2, 31988, Control_c, 0, 64, 0
2, 32012, Control_c, 0, 64, 88
2, 32016, Control_c, 0, 64, 127
2, 32017, Note_on_c, 0, 61, 42
2, 32024, Note_on_c, 0, 57, 0
2, 32051, Note_on_c, 0, 66, 44
2, 32070, Note_on_c, 0, 61, 0
2, 32073, Note_on_c, 0, 66, 0
2, 32079, Note_on_c, 0, 78, 0
2, 32084, Note_on_c, 0, 69, 53
2, 32112, Note_on_c, 0, 69, 0
2, 32114, Note_on_c, 0, 73, 49
2, 32140, Note_on_c, 0, 73, 0
2, 32147, Note_on_c, 0, 75, 62
2, 32176, Note_on_c, 0, 75, 0
2, 32184, Note_on_c, 0, 76, 70
2, 32189, Control_c, 0, 64, 56
2, 32193, Control_c, 0, 64, 0
2, 32213, Control_c, 0, 64, 56
2, 32218, Control_c, 0, 64, 127
2, 32218, Note_on_c, 0, 71, 52
2, 32246, Note_on_c, 0, 71, 0
2, 32251, Note_on_c, 0, 68, 43
2, 32257, Note_on_c, 0, 76, 0
2, 32264, Note_on_c, 0, 68, 0
2, 32278, Note_on_c, 0, 64, 52
2, 32315, Note_on_c, 0, 64, 0
2, 32317, Note_on_c, 0, 59, 46
2, 32352, Note_on_c, 0, 56, 54
2, 32355, Note_on_c, 0, 59, 0
2, 32383, Note_on_c, 0, 56, 0
2, 32387, Control_c, 0, 64, 104
2, 32388, Note_on_c, 0, 54, 65
2, 32390, Control_c, 0, 64, 40
2, 32395, Control_c, 0, 64, 0
2, 32415, Control_c, 0, 64, 56
2, 32419, Control_c, 0, 64, 127
2, 32426, Note_on_c, 0, 57, 49
2, 32466, Note_on_c, 0, 61, 46
2, 32475, Note_on_c, 0, 54, 0
2, 32485, Note_on_c, 0, 57, 0
2, 32487, Note_on_c, 0, 61, 0
2, 32496, Note_on_c, 0, 73, 74
2, 32530, Note_on_c, 0, 66, 61
2, 32549, Note_on_c, 0, 73, 0
2, 32566, Note_on_c, 0, 69, 76
2, 32577, Note_on_c, 0, 66, 0
2, 32601, Control_c, 0, 64, 88
2, 32602, Note_on_c, 0, 69, 0
2, 32605, Control_c, 0, 64, 24
2, 32605, Note_on_c, 0, 78, 80
2, 32606, Note_on_c, 0, 52, 60
2, 32609, Control_c, 0, 64, 0
2, 32633, Control_c, 0, 64, 24
2, 32637, Control_c, 0, 64, 88
2, 32641, Control_c, 0, 64, 127
2, 32644, Note_on_c, 0, 57, 55
2, 32680, Note_on_c, 0, 61, 58
2, 32698, Note_on_c, 0, 57, 0
2, 32698, Note_on_c, 0, 52, 0
2, 32700, Note_on_c, 0, 61, 0
2, 32703, Note_on_c, 0, 78, 0
2, 32711, Note_on_c, 0, 73, 74
2, 32742, Note_on_c, 0, 73, 0
2, 32744, Note_on_c, 0, 66, 61
2, 32777, Note_on_c, 0, 69, 75
2, 32810, Note_on_c, 0, 51, 75
2, 32819, Control_c, 0, 64, 88
2, 32823, Control_c, 0, 64, 0
2, 32850, Control_c, 0, 64, 88
2, 32852, Note_on_c, 0, 57, 60
2, 32855, Control_c, 0, 64, 127
2, 32888, Note_on_c, 0, 61, 61
2, 32905, Note_on_c, 0, 66, 0
2, 32908, Note_on_c, 0, 69, 0
2, 32922, Note_on_c, 0, 73, 73
2, 32951, Note_on_c, 0, 57, 0
2, 32953, Note_on_c, 0, 61, 0
2, 32953, Note_on_c, 0, 51, 0
2, 32959, Note_on_c, 0, 66, 63
2, 32962, Note_on_c, 0, 73, 0
2, 32997, Note_on_c, 0, 69, 71
2, 33049, Note_on_c, 0, 78, 73
2, 33051, Note_on_c, 0, 49, 49
2, 33053, Control_c, 0, 64, 72
2, 33057, Control_c, 0, 64, 0
2, 33075, Note_on_c, 0, 69, 0
2, 33093, Control_c, 0, 64, 127
2, 33104, Note_on_c, 0, 49, 0
2, 33104, Note_on_c, 0, 57, 45
2, 33112, Note_on_c, 0, 66, 0
2, 33152, Note_on_c, 0, 64, 59
2, 33191, Note_on_c, 0, 78, 0
2, 33200, Note_on_c, 0, 81, 73
2, 33204, Note_on_c, 0, 64, 0
2, 33225, Note_on_c, 0, 57, 0
2, 33258, Note_on_c, 0, 69, 50
2, 33314, Note_on_c, 0, 73, 39
2, 33339, Note_on_c, 0, 69, 0
2, 33343, Note_on_c, 0, 81, 0
2, 33345, Note_on_c, 0, 73, 0
2, 33372, Note_on_c, 0, 47, 55
2, 33400, Control_c, 0, 64, 88
2, 33403, Control_c, 0, 64, 0
2, 33432, Control_c, 0, 64, 88
2, 33432, Note_on_c, 0, 54, 40
2, 33436, Control_c, 0, 64, 127
2, 33468, Note_on_c, 0, 47, 0
2, 33474, Note_on_c, 0, 54, 0
2, 33478, Note_on_c, 0, 57, 57
2, 33506, Note_on_c, 0, 57, 0
2, 33519, Note_on_c, 0, 81, 82
2, 33523, Note_on_c, 0, 61, 40
2, 33566, Note_on_c, 0, 63, 49
2, 33608, Note_on_c, 0, 66, 55
2, 33656, Note_on_c, 0, 69, 58
2, 33701, Note_on_c, 0, 73, 49
2, 33746, Note_on_c, 0, 73, 0
2, 33747, Note_on_c, 0, 75, 62
2, 33750, Note_on_c, 0, 81, 0
2, 33794, Note_on_c, 0, 75, 0
2, 33801, Note_on_c, 0, 69, 0
2, 33801, Note_on_c, 0, 73, 56
2, 33830, Note_on_c, 0, 73, 0
2, 33864, Note_on_c, 0, 80, 67
2, 33871, Note_on_c, 0, 71, 39
2, 33908, Note_on_c, 0, 71, 0
2, 33923, Note_on_c, 0, 66, 0
2, 33925, Note_on_c, 0, 61, 0
2, 33925, Note_on_c, 0, 63, 0
2, 33939, Note_on_c, 0, 80, 0
2, 33974, Note_on_c, 0, 78, 53
2, 33981, Note_on_c, 0, 69, 46
2, 34006, Note_on_c, 0, 69, 0
2, 34018, Note_on_c, 0, 78, 0
2, 34092, Note_on_c, 0, 40, 50
2, 34114, Control_c, 0, 64, 72
2, 34117, Control_c, 0, 64, 0
2, 34150, Control_c, 0, 64, 88
2, 34154, Control_c, 0, 64, 127
2, 34169, Note_on_c, 0, 47, 53
2, 34198, Note_on_c, 0, 40, 0
2, 34214, Note_on_c, 0, 76, 70
2, 34228, Note_on_c, 0, 47, 0
2, 34229, Note_on_c, 0, 52, 50
2, 34252, Note_on_c, 0, 76, 0
2, 34258, Note_on_c, 0, 78, 69
2, 34271, Note_on_c, 0, 52, 0
2, 34284, Note_on_c, 0, 78, 0
2, 34294, Note_on_c, 0, 73, 68
2, 34297, Note_on_c, 0, 56, 48
2, 34322, Note_on_c, 0, 73, 0
2, 34328, Note_on_c, 0, 76, 75
2, 34329, Note_on_c, 0, 56, 0
2, 34340, Note_on_c, 0, 59, 53
2, 34353, Note_on_c, 0, 76, 0
2, 34362, Note_on_c, 0, 71, 70
2, 34366, Note_on_c, 0, 59, 0
2, 34374, Note_on_c, 0, 56, 37
2, 34384, Note_on_c, 0, 71, 0
2, 34392, Note_on_c, 0, 73, 65
2, 34403, Note_on_c, 0, 56, 0
2, 34420, Note_on_c, 0, 73, 0
2, 34426, Note_on_c, 0, 68, 67
2, 34453, Note_on_c, 0, 68, 0
2, 34455, Note_on_c, 0, 71, 70
2, 34463, Note_on_c, 0, 47, 26
2, 34482, Note_on_c, 0, 71, 0
2, 34484, Note_on_c, 0, 66, 69
2, 34509, Note_on_c, 0, 47, 0
2, 34513, Note_on_c, 0, 66, 0
2, 34517, Note_on_c, 0, 68, 69
2, 34526, Control_c, 0, 64, 88
2, 34528, Note_on_c, 0, 40, 48
2, 34530, Control_c, 0, 64, 0
2, 34549, Note_on_c, 0, 68, 0
2, 34552, Note_on_c, 0, 64, 75
2, 34554, Control_c, 0, 64, 72
2, 34557, Control_c, 0, 64, 127
2, 34574, Note_on_c, 0, 49, 36
2, 34578, Note_on_c, 0, 40, 0
2, 34582, Note_on_c, 0, 68, 64
2, 34588, Note_on_c, 0, 64, 0
2, 34614, Note_on_c, 0, 68, 0
2, 34618, Note_on_c, 0, 63, 65
2, 34620, Note_on_c, 0, 49, 0
2, 34625, Note_on_c, 0, 52, 60
2, 34651, Note_on_c, 0, 52, 0
2, 34670, Note_on_c, 0, 56, 49
2, 34710, Note_on_c, 0, 56, 0
2, 34716, Note_on_c, 0, 61, 56
2, 34727, Note_on_c, 0, 63, 0
2, 34754, Note_on_c, 0, 61, 0
2, 34758, Note_on_c, 0, 56, 47
2, 34777, Note_on_c, 0, 56, 0
2, 34807, Note_on_c, 0, 61, 61
2, 34811, Note_on_c, 0, 52, 55
2, 34844, Note_on_c, 0, 52, 0
2, 34854, Note_on_c, 0, 49, 42
2, 34878, Note_on_c, 0, 49, 0
2, 34906, Note_on_c, 0, 61, 0
2, 34925, Note_on_c, 0, 59, 58
2, 34938, Note_on_c, 0, 40, 39
2, 34941, Control_c, 0, 64, 104
2, 34945, Control_c, 0, 64, 56
2, 34949, Control_c, 0, 64, 0
2, 34982, Control_c, 0, 64, 127
2, 34983, Note_on_c, 0, 59, 0
2, 35007, Note_on_c, 0, 47, 29
2, 35037, Note_on_c, 0, 40, 0
2, 35048, Note_on_c, 0, 76, 65
2, 35050, Note_on_c, 0, 47, 0
2, 35056, Note_on_c, 0, 52, 49
2, 35078, Note_on_c, 0, 76, 0
2, 35083, Note_on_c, 0, 78, 75
2, 35090, Note_on_c, 0, 52, 0
2, 35104, Note_on_c, 0, 78, 0
2, 35106, Note_on_c, 0, 56, 33
2, 35117, Note_on_c, 0, 73, 71
2, 35144, Note_on_c, 0, 73, 0
2, 35145, Note_on_c, 0, 56, 0
2, 35146, Note_on_c, 0, 76, 79
2, 35152, Note_on_c, 0, 59, 58
2, 35171, Note_on_c, 0, 76, 0
2, 35178, Note_on_c, 0, 71, 78
2, 35179, Note_on_c, 0, 59, 0
2, 35190, Note_on_c, 0, 56, 47
2, 35200, Note_on_c, 0, 71, 0
2, 35207, Note_on_c, 0, 73, 74
2, 35214, Note_on_c, 0, 56, 0
2, 35233, Note_on_c, 0, 73, 0
2, 35235, Note_on_c, 0, 52, 53
2, 35238, Note_on_c, 0, 68, 71
2, 35258, Note_on_c, 0, 52, 0
2, 35263, Note_on_c, 0, 68, 0
2, 35265, Note_on_c, 0, 47, 47
2, 35267, Note_on_c, 0, 71, 74
2, 35291, Note_on_c, 0, 71, 0
2, 35294, Note_on_c, 0, 66, 71
2, 35314, Note_on_c, 0, 47, 0
2, 35323, Note_on_c, 0, 66, 0
2, 35325, Note_on_c, 0, 68, 75
2, 35329, Control_c, 0, 64, 88
2, 35331, Note_on_c, 0, 40, 42
2, 35333, Control_c, 0, 64, 0
2, 35354, Note_on_c, 0, 68, 0
2, 35356, Control_c, 0, 64, 88
2, 35358, Note_on_c, 0, 64, 78
2, 35361, Control_c, 0, 64, 127
2, 35371, Note_on_c, 0, 40, 0
2, 35373, Note_on_c, 0, 49, 34
2, 35389, Note_on_c, 0, 68, 58
2, 35391, Note_on_c, 0, 64, 0
2, 35418, Note_on_c, 0, 49, 0
2, 35419, Note_on_c, 0, 68, 0
2, 35422, Note_on_c, 0, 63, 70
2, 35427, Note_on_c, 0, 52, 56
2, 35451, Note_on_c, 0, 52, 0
2, 35470, Note_on_c, 0, 56, 46
2, 35506, Note_on_c, 0, 56, 0
2, 35511, Note_on_c, 0, 61, 60
2, 35517, Note_on_c, 0, 63, 0
2, 35551, Note_on_c, 0, 56, 50
2, 35555, Note_on_c, 0, 61, 0
2, 35575, Note_on_c, 0, 56, 0
2, 35592, Note_on_c, 0, 61, 69
2, 35607, Note_on_c, 0, 52, 49
2, 35638, Note_on_c, 0, 49, 58
2, 35640, Note_on_c, 0, 52, 0
2, 35677, Note_on_c, 0, 61, 0
2, 35678, Note_on_c, 0, 49, 0
2, 35694, Note_on_c, 0, 59, 66
2, 35700, Note_on_c, 0, 42, 39
2, 35700, Control_c, 0, 64, 56
2, 35704, Control_c, 0, 64, 0
2, 35721, Note_on_c, 0, 59, 0
2, 35726, Note_on_c, 0, 57, 61
2, 35736, Control_c, 0, 64, 72
2, 35740, Control_c, 0, 64, 127
2, 35742, Note_on_c, 0, 49, 43
2, 35746, Note_on_c, 0, 57, 0
2, 35757, Note_on_c, 0, 59, 70
2, 35783, Note_on_c, 0, 59, 0
2, 35783, Note_on_c, 0, 49, 0
2, 35787, Note_on_c, 0, 42, 0
2, 35787, Note_on_c, 0, 61, 77
2, 35791, Note_on_c, 0, 52, 62
2, 35827, Note_on_c, 0, 52, 0
2, 35829, Note_on_c, 0, 54, 53
2, 35866, Note_on_c, 0, 54, 0
2, 35872, Note_on_c, 0, 57, 66
2, 35897, Note_on_c, 0, 57, 0
2, 35908, Note_on_c, 0, 61, 0
2, 35913, Note_on_c, 0, 54, 51
2, 35914, Note_on_c, 0, 64, 78
2, 35945, Note_on_c, 0, 64, 0
2, 35946, Note_on_c, 0, 54, 0
2, 35953, Note_on_c, 0, 63, 71
2, 35957, Note_on_c, 0, 52, 54
2, 35980, Note_on_c, 0, 63, 0
2, 35987, Note_on_c, 0, 52, 0
2, 35992, Note_on_c, 0, 64, 78
2, 35995, Note_on_c, 0, 49, 53
2, 36026, Note_on_c, 0, 64, 0
2, 36030, Note_on_c, 0, 49, 0
2, 36035, Note_on_c, 0, 61, 73
2, 36037, Note_on_c, 0, 44, 60
2, 36043, Control_c, 0, 64, 88
2, 36047, Control_c, 0, 64, 0
2, 36074, Note_on_c, 0, 49, 54
2, 36076, Control_c, 0, 64, 72
2, 36078, Note_on_c, 0, 44, 0
2, 36080, Control_c, 0, 64, 127
2, 36115, Note_on_c, 0, 49, 0
2, 36119, Note_on_c, 0, 68, 75
2, 36125, Note_on_c, 0, 52, 51
2, 36128, Note_on_c, 0, 61, 0
2, 36149, Note_on_c, 0, 52, 0
2, 36158, Note_on_c, 0, 56, 54
2, 36188, Note_on_c, 0, 56, 0
2, 36198, Note_on_c, 0, 59, 60
2, 36233, Note_on_c, 0, 56, 57
2, 36236, Note_on_c, 0, 59, 0
2, 36267, Note_on_c, 0, 56, 0
2, 36267, Note_on_c, 0, 68, 0
2, 36275, Note_on_c, 0, 64, 79
2, 36277, Note_on_c, 0, 52, 59
2, 36312, Note_on_c, 0, 52, 0
2, 36315, Note_on_c, 0, 49, 50
2, 36348, Note_on_c, 0, 49, 0
2, 36354, Note_on_c, 0, 64, 0
2, 36354, Control_c, 0, 64, 56
2, 36355, Note_on_c, 0, 45, 62
2, 36358, Control_c, 0, 64, 0
2, 36358, Note_on_c, 0, 63, 77
2, 36381, Control_c, 0, 64, 104
2, 36385, Note_on_c, 0, 63, 0
2, 36386, Control_c, 0, 64, 127
2, 36389, Note_on_c, 0, 61, 73
2, 36399, Note_on_c, 0, 45, 0
2, 36402, Note_on_c, 0, 52, 56
2, 36418, Note_on_c, 0, 61, 0
2, 36419, Note_on_c, 0, 63, 68
2, 36437, Note_on_c, 0, 52, 0
2, 36445, Note_on_c, 0, 64, 87
2, 36446, Note_on_c, 0, 54, 55
2, 36447, Note_on_c, 0, 63, 0
2, 36482, Note_on_c, 0, 54, 0
2, 36489, Note_on_c, 0, 57, 62
2, 36517, Note_on_c, 0, 57, 0
2, 36524, Note_on_c, 0, 61, 61
2, 36551, Note_on_c, 0, 61, 0
2, 36567, Note_on_c, 0, 57, 47
2, 36568, Note_on_c, 0, 68, 75
2, 36586, Note_on_c, 0, 64, 0
2, 36600, Note_on_c, 0, 57, 0
2, 36601, Note_on_c, 0, 68, 0
2, 36605, Note_on_c, 0, 54, 54
2, 36606, Note_on_c, 0, 66, 75
2, 36631, Note_on_c, 0, 54, 0
2, 36633, Note_on_c, 0, 66, 0
2, 36640, Note_on_c, 0, 68, 76
2, 36642, Note_on_c, 0, 52, 56
2, 36672, Note_on_c, 0, 68, 0
2, 36677, Control_c, 0, 64, 56
2, 36679, Note_on_c, 0, 64, 80
2, 36681, Control_c, 0, 64, 0
2, 36684, Note_on_c, 0, 52, 0
2, 36685, Note_on_c, 0, 46, 69
2, 36709, Control_c, 0, 64, 88
2, 36711, Note_on_c, 0, 46, 0
2, 36713, Control_c, 0, 64, 127
2, 36723, Note_on_c, 0, 52, 54
2, 36746, Note_on_c, 0, 52, 0
2, 36749, Note_on_c, 0, 64, 0
2, 36762, Note_on_c, 0, 56, 39
2, 36764, Note_on_c, 0, 73, 79
2, 36792, Note_on_c, 0, 56, 0
2, 36798, Note_on_c, 0, 61, 49
2, 36822, Note_on_c, 0, 61, 0
2, 36834, Note_on_c, 0, 49, 71
2, 36838, Control_c, 0, 64, 88
2, 36842, Control_c, 0, 64, 0
2, 36862, Control_c, 0, 64, 72
2, 36866, Control_c, 0, 64, 127
2, 36873, Note_on_c, 0, 49, 0
2, 36873, Note_on_c, 0, 54, 59
2, 36897, Note_on_c, 0, 73, 0
2, 36900, Note_on_c, 0, 54, 0
2, 36903, Note_on_c, 0, 70, 69
2, 36907, Note_on_c, 0, 58, 58
2, 36926, Note_on_c, 0, 70, 0
2, 36928, Note_on_c, 0, 73, 72
2, 36930, Note_on_c, 0, 58, 0
2, 36941, Note_on_c, 0, 64, 56
2, 36951, Note_on_c, 0, 70, 75
2, 36955, Note_on_c, 0, 73, 0
2, 36963, Note_on_c, 0, 64, 0
2, 36974, Note_on_c, 0, 70, 0
2, 36977, Note_on_c, 0, 68, 77
2, 36984, Note_on_c, 0, 52, 63
2, 36988, Control_c, 0, 64, 56
2, 36992, Control_c, 0, 64, 0
2, 37012, Control_c, 0, 64, 88
2, 37016, Note_on_c, 0, 52, 0
2, 37016, Control_c, 0, 64, 127
2, 37021, Note_on_c, 0, 58, 51
2, 37038, Note_on_c, 0, 68, 0
2, 37047, Note_on_c, 0, 58, 0
2, 37058, Note_on_c, 0, 76, 82
2, 37060, Note_on_c, 0, 61, 52
2, 37087, Note_on_c, 0, 61, 0
2, 37096, Note_on_c, 0, 68, 57
2, 37116, Note_on_c, 0, 68, 0
2, 37132, Note_on_c, 0, 54, 69
2, 37132, Control_c, 0, 64, 104
2, 37136, Control_c, 0, 64, 24
2, 37141, Control_c, 0, 64, 0
2, 37157, Control_c, 0, 64, 72
2, 37161, Control_c, 0, 64, 127
2, 37163, Note_on_c, 0, 54, 0
2, 37169, Note_on_c, 0, 61, 57
2, 37190, Note_on_c, 0, 76, 0
2, 37196, Note_on_c, 0, 61, 0
2, 37201, Note_on_c, 0, 73, 70
2, 37206, Note_on_c, 0, 64, 62
2, 37227, Note_on_c, 0, 64, 0
2, 37230, Note_on_c, 0, 73, 0
2, 37230, Note_on_c, 0, 76, 80
2, 37232, Note_on_c, 0, 70, 53
2, 37253, Note_on_c, 0, 76, 0
2, 37255, Note_on_c, 0, 73, 77
2, 37262, Note_on_c, 0, 70, 0
2, 37278, Note_on_c, 0, 58, 49
2, 37287, Note_on_c, 0, 73, 0
2, 37298, Control_c, 0, 64, 104
2, 37302, Control_c, 0, 64, 24
2, 37306, Note_on_c, 0, 80, 80
2, 37306, Control_c, 0, 64, 0
2, 37327, Control_c, 0, 64, 56
2, 37331, Control_c, 0, 64, 127
2, 37341, Note_on_c, 0, 58, 0
2, 37344, Note_on_c, 0, 64, 52
2, 37370, Note_on_c, 0, 64, 0
2, 37378, Note_on_c, 0, 68, 50
2, 37407, Note_on_c, 0, 68, 0
2, 37416, Note_on_c, 0, 73, 49
2, 37417, Note_on_c, 0, 78, 75
2, 37418, Note_on_c, 0, 80, 0
2, 37439, Note_on_c, 0, 73, 0
2, 37455, Note_on_c, 0, 78, 0
2, 37458, Note_on_c, 0, 61, 57
2, 37459, Note_on_c, 0, 80, 73
2, 37464, Control_c, 0, 64, 88
2, 37468, Control_c, 0, 64, 24
2, 37472, Control_c, 0, 64, 0
2, 37483, Control_c, 0, 64, 56
2, 37488, Note_on_c, 0, 61, 0
2, 37488, Control_c, 0, 64, 127
2, 37495, Note_on_c, 0, 66, 51
2, 37521, Note_on_c, 0, 66, 0
2, 37534, Note_on_c, 0, 70, 51
2, 37555, Note_on_c, 0, 70, 0
2, 37566, Note_on_c, 0, 76, 60
2, 37571, Note_on_c, 0, 78, 64
2, 37574, Note_on_c, 0, 76, 0
2, 37575, Note_on_c, 0, 80, 0
2, 37607, Note_on_c, 0, 78, 0
2, 37613, Note_on_c, 0, 80, 64
2, 37616, Note_on_c, 0, 58, 44
2, 37621, Control_c, 0, 64, 72
2, 37625, Control_c, 0, 64, 0
2, 37646, Note_on_c, 0, 58, 0
2, 37646, Control_c, 0, 64, 72
2, 37650, Control_c, 0, 64, 127
2, 37652, Note_on_c, 0, 64, 53
2, 37679, Note_on_c, 0, 64, 0
2, 37690, Note_on_c, 0, 68, 43
2, 37722, Note_on_c, 0, 68, 0
2, 37728, Note_on_c, 0, 80, 0
2, 37732, Note_on_c, 0, 78, 61
2, 37736, Note_on_c, 0, 73, 40
2, 37748, Note_on_c, 0, 73, 0
2, 37769, Note_on_c, 0, 78, 0
2, 37779, Note_on_c, 0, 80, 61
2, 37788, Note_on_c, 0, 61, 35
2, 37795, Control_c, 0, 64, 72
2, 37798, Control_c, 0, 64, 0
2, 37825, Note_on_c, 0, 61, 0
2, 37827, Control_c, 0, 64, 127
2, 37831, Note_on_c, 0, 66, 37
2, 37832, Note_on_c, 0, 78, 55
2, 37837, Note_on_c, 0, 80, 0
2, 37887, Note_on_c, 0, 70, 43
2, 37929, Note_on_c, 0, 78, 0
2, 37940, Note_on_c, 0, 80, 57
2, 37940, Note_on_c, 0, 76, 53
2, 37955, Note_on_c, 0, 70, 0
2, 37957, Note_on_c, 0, 76, 0
2, 37961, Note_on_c, 0, 66, 0
2, 38013, Note_on_c, 0, 80, 0
2, 38017, Note_on_c, 0, 81, 65
2, 38029, Note_on_c, 0, 61, 32
2, 38041, Control_c, 0, 64, 104
2, 38045, Control_c, 0, 64, 40
2, 38049, Control_c, 0, 64, 0
2, 38067, Note_on_c, 0, 64, 54
2, 38077, Control_c, 0, 64, 72
2, 38082, Control_c, 0, 64, 127
2, 38104, Note_on_c, 0, 69, 58
2, 38135, Note_on_c, 0, 73, 62
2, 38144, Note_on_c, 0, 64, 0
2, 38149, Note_on_c, 0, 69, 0
2, 38154, Note_on_c, 0, 61, 0
2, 38169, Note_on_c, 0, 73, 0
2, 38174, Note_on_c, 0, 76, 64
2, 38179, Note_on_c, 0, 81, 0
2, 38196, Note_on_c, 0, 76, 0
2, 38206, Note_on_c, 0, 78, 64
2, 38236, Note_on_c, 0, 78, 0
2, 38241, Note_on_c, 0, 80, 65
2, 38251, Control_c, 0, 64, 72
2, 38254, Control_c, 0, 64, 0
2, 38275, Control_c, 0, 64, 72
2, 38276, Note_on_c, 0, 75, 64
2, 38279, Control_c, 0, 64, 127
2, 38304, Note_on_c, 0, 75, 0
2, 38308, Note_on_c, 0, 71, 48
2, 38320, Note_on_c, 0, 71, 0
2, 38334, Note_on_c, 0, 80, 0
2, 38334, Note_on_c, 0, 68, 56
2, 38361, Note_on_c, 0, 68, 0
2, 38367, Note_on_c, 0, 63, 48
2, 38400, Note_on_c, 0, 63, 0
2, 38402, Note_on_c, 0, 59, 60
2, 38433, Note_on_c, 0, 59, 0
2, 38438, Note_on_c, 0, 78, 70
2, 38444, Note_on_c, 0, 57, 41
2, 38445, Control_c, 0, 64, 72
2, 38449, Control_c, 0, 64, 0
2, 38473, Control_c, 0, 64, 104
2, 38474, Note_on_c, 0, 61, 49
2, 38477, Control_c, 0, 64, 127
2, 38504, Note_on_c, 0, 66, 53
2, 38513, Note_on_c, 0, 57, 0
2, 38519, Note_on_c, 0, 61, 0
2, 38525, Note_on_c, 0, 66, 0
2, 38530, Note_on_c, 0, 78, 0
2, 38536, Note_on_c, 0, 69, 54
2, 38558, Note_on_c, 0, 69, 0
2, 38572, Note_on_c, 0, 73, 43
2, 38594, Note_on_c, 0, 73, 0
2, 38602, Note_on_c, 0, 75, 65
2, 38630, Note_on_c, 0, 75, 0
2, 38637, Note_on_c, 0, 76, 70
2, 38658, Control_c, 0, 64, 104
2, 38662, Control_c, 0, 64, 24
2, 38666, Control_c, 0, 64, 0
2, 38674, Note_on_c, 0, 71, 58
2, 38691, Control_c, 0, 64, 127
2, 38702, Note_on_c, 0, 71, 0
2, 38703, Note_on_c, 0, 68, 49
2, 38707, Note_on_c, 0, 76, 0
2, 38716, Note_on_c, 0, 68, 0
2, 38725, Note_on_c, 0, 64, 49
2, 38762, Note_on_c, 0, 64, 0
2, 38764, Note_on_c, 0, 59, 58
2, 38795, Note_on_c, 0, 56, 56
2, 38797, Note_on_c, 0, 59, 0
2, 38811, Note_on_c, 0, 56, 0
2, 38846, Note_on_c, 0, 81, 80
2, 38852, Note_on_c, 0, 61, 38
2, 38868, Control_c, 0, 64, 88
2, 38872, Control_c, 0, 64, 0
2, 38882, Note_on_c, 0, 61, 0
2, 38886, Note_on_c, 0, 64, 52
2, 38897, Control_c, 0, 64, 72
2, 38901, Control_c, 0, 64, 127
2, 38918, Note_on_c, 0, 64, 0
2, 38919, Note_on_c, 0, 69, 66
2, 38940, Note_on_c, 0, 81, 0
2, 38945, Note_on_c, 0, 69, 0
2, 38953, Note_on_c, 0, 83, 82
2, 38954, Note_on_c, 0, 73, 43
2, 38955, Note_on_c, 0, 76, 65
2, 38979, Note_on_c, 0, 73, 0
2, 38982, Note_on_c, 0, 69, 47
2, 38992, Note_on_c, 0, 83, 0
2, 38998, Note_on_c, 0, 69, 0
2, 38998, Note_on_c, 0, 85, 85
2, 38998, Note_on_c, 0, 64, 60
2, 39015, Note_on_c, 0, 64, 0
2, 39036, Note_on_c, 0, 85, 0
2, 39045, Note_on_c, 0, 59, 55
2, 39046, Control_c, 0, 64, 88
2, 39047, Note_on_c, 0, 81, 78
2, 39050, Control_c, 0, 64, 0
2, 39070, Control_c, 0, 64, 56
2, 39074, Control_c, 0, 64, 127
2, 39080, Note_on_c, 0, 59, 0
2, 39082, Note_on_c, 0, 63, 44
2, 39086, Note_on_c, 0, 81, 0
2, 39093, Note_on_c, 0, 80, 80
2, 39100, Note_on_c, 0, 76, 0
2, 39108, Note_on_c, 0, 63, 0
2, 39116, Note_on_c, 0, 68, 42
2, 39117, Note_on_c, 0, 80, 0
2, 39138, Note_on_c, 0, 68, 0
2, 39143, Note_on_c, 0, 81, 79
2, 39149, Note_on_c, 0, 71, 54
2, 39149, Note_on_c, 0, 75, 42
2, 39173, Note_on_c, 0, 71, 0
2, 39176, Note_on_c, 0, 68, 39
2, 39180, Note_on_c, 0, 81, 0
2, 39193, Note_on_c, 0, 80, 85
2, 39199, Note_on_c, 0, 68, 0
2, 39200, Note_on_c, 0, 63, 49
2, 39202, Note_on_c, 0, 75, 0
2, 39236, Note_on_c, 0, 63, 0
2, 39248, Note_on_c, 0, 73, 67
2, 39248, Note_on_c, 0, 57, 51
2, 39252, Control_c, 0, 64, 72
2, 39256, Control_c, 0, 64, 0
2, 39280, Note_on_c, 0, 57, 0
2, 39280, Control_c, 0, 64, 104
2, 39281, Note_on_c, 0, 61, 46
2, 39284, Control_c, 0, 64, 127
2, 39309, Note_on_c, 0, 61, 0
2, 39312, Note_on_c, 0, 66, 53
2, 39328, Note_on_c, 0, 80, 0
2, 39340, Note_on_c, 0, 66, 0
2, 39345, Note_on_c, 0, 78, 77
2, 39350, Note_on_c, 0, 69, 46
2, 39357, Note_on_c, 0, 73, 0
2, 39374, Note_on_c, 0, 66, 53
2, 39375, Note_on_c, 0, 69, 0
2, 39401, Note_on_c, 0, 66, 0
2, 39401, Note_on_c, 0, 61, 39
2, 39426, Note_on_c, 0, 61, 0
2, 39440, Note_on_c, 0, 56, 53
2, 39444, Note_on_c, 0, 71, 68
2, 39450, Control_c, 0, 64, 104
2, 39453, Control_c, 0, 64, 40
2, 39458, Control_c, 0, 64, 0
2, 39468, Note_on_c, 0, 56, 0
2, 39471, Note_on_c, 0, 59, 61
2, 39478, Control_c, 0, 64, 104
2, 39482, Control_c, 0, 64, 127
2, 39497, Note_on_c, 0, 59, 0
2, 39503, Note_on_c, 0, 64, 53
2, 39506, Note_on_c, 0, 78, 0
2, 39528, Note_on_c, 0, 64, 0
2, 39535, Note_on_c, 0, 76, 78
2, 39538, Note_on_c, 0, 68, 42
2, 39559, Note_on_c, 0, 71, 0
2, 39569, Note_on_c, 0, 68, 0
2, 39571, Note_on_c, 0, 64, 51
2, 39584, Note_on_c, 0, 64, 0
2, 39586, Note_on_c, 0, 59, 49
2, 39600, Note_on_c, 0, 59, 0
2, 39631, Control_c, 0, 64, 24
2, 39634, Note_on_c, 0, 69, 69
2, 39634, Note_on_c, 0, 54, 55
2, 39636, Control_c, 0, 64, 0
2, 39652, Control_c, 0, 64, 72
2, 39656, Control_c, 0, 64, 127
2, 39662, Note_on_c, 0, 57, 40
2, 39677, Note_on_c, 0, 74, 79
2, 39678, Note_on_c, 0, 76, 0
2, 39686, Note_on_c, 0, 69, 0
2, 39686, Note_on_c, 0, 54, 0
2, 39698, Note_on_c, 0, 57, 0
2, 39698, Note_on_c, 0, 62, 62
2, 39714, Note_on_c, 0, 74, 0
2, 39725, Note_on_c, 0, 76, 82
2, 39727, Note_on_c, 0, 62, 0
2, 39730, Note_on_c, 0, 69, 62
2, 39732, Note_on_c, 0, 66, 55
2, 39762, Note_on_c, 0, 66, 0
2, 39764, Note_on_c, 0, 76, 0
2, 39767, Note_on_c, 0, 62, 56
2, 39769, Note_on_c, 0, 78, 84
2, 39777, Note_on_c, 0, 62, 0
2, 39783, Note_on_c, 0, 57, 49
2, 39790, Note_on_c, 0, 69, 0
2, 39791, Note_on_c, 0, 57, 0
2, 39809, Note_on_c, 0, 78, 0
2, 39821, Note_on_c, 0, 74, 87
2, 39828, Note_on_c, 0, 52, 52
2, 39830, Control_c, 0, 64, 56
2, 39833, Control_c, 0, 64, 0
2, 39854, Control_c, 0, 64, 40
2, 39858, Control_c, 0, 64, 127
2, 39860, Note_on_c, 0, 52, 0
2, 39860, Note_on_c, 0, 74, 0
2, 39861, Note_on_c, 0, 56, 47
2, 39869, Note_on_c, 0, 73, 73
2, 39887, Note_on_c, 0, 56, 0
2, 39887, Note_on_c, 0, 61, 44
2, 39903, Note_on_c, 0, 73, 0
2, 39910, Note_on_c, 0, 61, 0
2, 39916, Note_on_c, 0, 74, 84
2, 39916, Note_on_c, 0, 68, 55
2, 39920, Note_on_c, 0, 64, 54
2, 39941, Note_on_c, 0, 68, 0
2, 39941, Note_on_c, 0, 74, 0
2, 39946, Note_on_c, 0, 64, 0
2, 39946, Note_on_c, 0, 61, 47
2, 39960, Note_on_c, 0, 73, 84
2, 39964, Note_on_c, 0, 61, 0
2, 40018, Note_on_c, 0, 66, 71
2, 40020, Note_on_c, 0, 50, 62
2, 40027, Control_c, 0, 64, 88
2, 40031, Control_c, 0, 64, 0
2, 40049, Note_on_c, 0, 54, 51
2, 40054, Note_on_c, 0, 50, 0
2, 40055, Control_c, 0, 64, 56
2, 40059, Control_c, 0, 64, 127
2, 40076, Note_on_c, 0, 54, 0
2, 40085, Note_on_c, 0, 59, 49
2, 40092, Note_on_c, 0, 73, 0
2, 40109, Note_on_c, 0, 59, 0
2, 40109, Note_on_c, 0, 66, 0
2, 40114, Note_on_c, 0, 71, 79
2, 40120, Note_on_c, 0, 62, 52
2, 40147, Note_on_c, 0, 62, 0
2, 40150, Note_on_c, 0, 59, 50
2, 40166, Note_on_c, 0, 59, 0
2, 40174, Note_on_c, 0, 54, 52
2, 40201, Note_on_c, 0, 54, 0
2, 40209, Note_on_c, 0, 64, 65
2, 40213, Note_on_c, 0, 49, 57
2, 40217, Control_c, 0, 64, 104
2, 40221, Control_c, 0, 64, 40
2, 40224, Control_c, 0, 64, 0
2, 40246, Note_on_c, 0, 49, 0
2, 40249, Control_c, 0, 64, 88
2, 40251, Note_on_c, 0, 52, 54
2, 40253, Control_c, 0, 64, 127
2, 40280, Note_on_c, 0, 57, 46
2, 40281, Note_on_c, 0, 52, 0
2, 40286, Note_on_c, 0, 57, 0
2, 40296, Note_on_c, 0, 71, 0
2, 40307, Note_on_c, 0, 69, 77
2, 40313, Note_on_c, 0, 61, 38
2, 40325, Note_on_c, 0, 64, 0
2, 40342, Note_on_c, 0, 61, 0
2, 40346, Note_on_c, 0, 52, 50
2, 40364, Note_on_c, 0, 52, 0
2, 40374, Note_on_c, 0, 49, 46
2, 40392, Note_on_c, 0, 49, 0
2, 40402, Note_on_c, 0, 62, 70
2, 40406, Control_c, 0, 64, 56
2, 40411, Control_c, 0, 64, 0
2, 40411, Note_on_c, 0, 47, 39
2, 40435, Control_c, 0, 64, 88
2, 40439, Control_c, 0, 64, 127
2, 40442, Note_on_c, 0, 47, 0
2, 40444, Note_on_c, 0, 69, 0
2, 40448, Note_on_c, 0, 53, 58
2, 40449, Note_on_c, 0, 68, 71
2, 40471, Note_on_c, 0, 62, 0
2, 40473, Note_on_c, 0, 53, 0
2, 40480, Note_on_c, 0, 56, 47
2, 40486, Note_on_c, 0, 68, 0
2, 40491, Note_on_c, 0, 69, 84
2, 40496, Note_on_c, 0, 56, 0
2, 40506, Note_on_c, 0, 59, 33
2, 40526, Note_on_c, 0, 69, 0
2, 40527, Note_on_c, 0, 59, 0
2, 40527, Note_on_c, 0, 56, 40
2, 40533, Note_on_c, 0, 68, 77
2, 40540, Note_on_c, 0, 56, 0
2, 40541, Note_on_c, 0, 53, 40
2, 40549, Note_on_c, 0, 53, 0
2, 40578, Note_on_c, 0, 68, 0
2, 40587, Note_on_c, 0, 73, 76
2, 40588, Control_c, 0, 64, 56
2, 40590, Note_on_c, 0, 61, 57
2, 40591, Note_on_c, 0, 45, 52
2, 40592, Control_c, 0, 64, 0
2, 40616, Control_c, 0, 64, 104
2, 40617, Note_on_c, 0, 73, 0
2, 40620, Control_c, 0, 64, 127
2, 40622, Note_on_c, 0, 49, 50
2, 40624, Note_on_c, 0, 45, 0
2, 40637, Note_on_c, 0, 61, 0
2, 40637, Note_on_c, 0, 69, 81
2, 40647, Note_on_c, 0, 49, 0
2, 40654, Note_on_c, 0, 54, 37
2, 40674, Note_on_c, 0, 54, 0
2, 40676, Note_on_c, 0, 69, 0
2, 40686, Note_on_c, 0, 57, 41
2, 40688, Note_on_c, 0, 66, 77
2, 40714, Note_on_c, 0, 57, 0
2, 40720, Note_on_c, 0, 54, 43
2, 40734, Note_on_c, 0, 54, 0
2, 40739, Note_on_c, 0, 49, 51
2, 40778, Note_on_c, 0, 49, 0
2, 40784, Note_on_c, 0, 59, 64
2, 40786, Note_on_c, 0, 44, 60
2, 40802, Control_c, 0, 64, 72
2, 40806, Control_c, 0, 64, 0
2, 40823, Note_on_c, 0, 44, 0
2, 40826, Note_on_c, 0, 47, 58
2, 40834, Control_c, 0, 64, 104
2, 40838, Note_on_c, 0, 66, 0
2, 40838, Control_c, 0, 64, 127
2, 40841, Note_on_c, 0, 64, 74
2, 40863, Note_on_c, 0, 47, 0
2, 40870, Note_on_c, 0, 52, 53
2, 40882, Note_on_c, 0, 64, 0
2, 40890, Note_on_c, 0, 66, 72
2, 40902, Note_on_c, 0, 52, 0
2, 40902, Note_on_c, 0, 56, 46
2, 40930, Note_on_c, 0, 59, 0
2, 40934, Note_on_c, 0, 66, 0
2, 40936, Note_on_c, 0, 56, 0
2, 40940, Note_on_c, 0, 52, 39
2, 40945, Note_on_c, 0, 64, 75
2, 40953, Note_on_c, 0, 52, 0
2, 40960, Note_on_c, 0, 47, 45
2, 40967, Note_on_c, 0, 47, 0
2, 40971, Note_on_c, 0, 64, 0
2, 41021, Note_on_c, 0, 42, 55
2, 41023, Note_on_c, 0, 69, 76
2, 41044, Control_c, 0, 64, 72
2, 41048, Control_c, 0, 64, 0
2, 41077, Control_c, 0, 64, 127
2, 41079, Note_on_c, 0, 49, 48
2, 41112, Note_on_c, 0, 49, 0
2, 41112, Note_on_c, 0, 42, 0
2, 41120, Note_on_c, 0, 52, 59
2, 41124, Note_on_c, 0, 69, 0
2, 41151, Note_on_c, 0, 54, 57
2, 41156, Note_on_c, 0, 52, 0
2, 41172, Note_on_c, 0, 54, 0
2, 41189, Note_on_c, 0, 57, 63
2, 41209, Note_on_c, 0, 57, 0
2, 41224, Note_on_c, 0, 59, 69
2, 41247, Note_on_c, 0, 59, 0
2, 41256, Note_on_c, 0, 61, 65
2, 41286, Note_on_c, 0, 64, 74
2, 41294, Note_on_c, 0, 61, 0
2, 41301, Note_on_c, 0, 64, 0
2, 41319, Note_on_c, 0, 69, 80
2, 41338, Note_on_c, 0, 69, 0
2, 41349, Note_on_c, 0, 71, 78
2, 41369, Note_on_c, 0, 71, 0
2, 41378, Note_on_c, 0, 73, 77
2, 41406, Note_on_c, 0, 76, 75
2, 41418, Note_on_c, 0, 73, 0
2, 41422, Note_on_c, 0, 76, 0
2, 41439, Note_on_c, 0, 81, 84
2, 41461, Note_on_c, 0, 81, 0
2, 41469, Note_on_c, 0, 83, 89
2, 41493, Note_on_c, 0, 83, 0
2, 41500, Note_on_c, 0, 85, 89
2, 41538, Note_on_c, 0, 88, 83
2, 41546, Note_on_c, 0, 85, 0
2, 41570, Note_on_c, 0, 85, 82
2, 41573, Note_on_c, 0, 88, 0
2, 41605, Note_on_c, 0, 83, 77
2, 41638, Note_on_c, 0, 85, 0
2, 41639, Note_on_c, 0, 83, 0
2, 41641, Note_on_c, 0, 81, 71
2, 41649, Note_on_c, 0, 81, 0
2, 41673, Note_on_c, 0, 76, 79
2, 41694, Note_on_c, 0, 76, 0
2, 41707, Note_on_c, 0, 73, 73
2, 41738, Note_on_c, 0, 73, 0
2, 41745, Note_on_c, 0, 71, 75
2, 41775, Note_on_c, 0, 71, 0
2, 41781, Note_on_c, 0, 69, 67
2, 41802, Note_on_c, 0, 69, 0
2, 41825, Note_on_c, 0, 64, 64
2, 41850, Note_on_c, 0, 64, 0
2, 41880, Note_on_c, 0, 68, 74
2, 41891, Control_c, 0, 64, 88
2, 41893, Note_on_c, 0, 35, 51
2, 41895, Control_c, 0, 64, 0
2, 41920, Control_c, 0, 64, 104
2, 41924, Control_c, 0, 64, 127
2, 41930, Note_on_c, 0, 47, 61
2, 41931, Note_on_c, 0, 35, 0
2, 41941, Note_on_c, 0, 47, 0
2, 41966, Note_on_c, 0, 51, 69
2, 42002, Note_on_c, 0, 56, 55
2, 42018, Note_on_c, 0, 68, 0
2, 42044, Note_on_c, 0, 59, 59
2, 42067, Note_on_c, 0, 59, 0
2, 42078, Note_on_c, 0, 63, 65
2, 42118, Note_on_c, 0, 63, 0
2, 42118, Note_on_c, 0, 68, 49
2, 42133, Note_on_c, 0, 68, 0
2, 42154, Note_on_c, 0, 71, 49
2, 42181, Note_on_c, 0, 56, 0
2, 42185, Note_on_c, 0, 71, 0
2, 42188, Note_on_c, 0, 51, 0
2, 42189, Note_on_c, 0, 75, 58
2, 42219, Note_on_c, 0, 75, 0
2, 42223, Note_on_c, 0, 80, 65
2, 42260, Note_on_c, 0, 80, 0
2, 42265, Note_on_c, 0, 83, 59
2, 42286, Note_on_c, 0, 83, 0
2, 42296, Note_on_c, 0, 71, 59
2, 42313, Note_on_c, 0, 71, 0
2, 42351, Note_on_c, 0, 66, 69
2, 42351, Note_on_c, 0, 35, 35
2, 42364, Control_c, 0, 64, 104
2, 42368, Control_c, 0, 64, 24
2, 42372, Control_c, 0, 64, 0
2, 42388, Control_c, 0, 64, 40
2, 42391, Control_c, 0, 64, 127
2, 42393, Note_on_c, 0, 35, 0
2, 42396, Note_on_c, 0, 47, 55
2, 42401, Note_on_c, 0, 47, 0
2, 42436, Note_on_c, 0, 66, 0
2, 42436, Note_on_c, 0, 51, 51
2, 42475, Note_on_c, 0, 57, 59
2, 42510, Note_on_c, 0, 57, 0
2, 42510, Note_on_c, 0, 59, 49
2, 42540, Note_on_c, 0, 63, 49
2, 42570, Note_on_c, 0, 63, 0
2, 42581, Note_on_c, 0, 69, 50
2, 42614, Note_on_c, 0, 69, 0
2, 42624, Note_on_c, 0, 71, 47
2, 42633, Note_on_c, 0, 71, 0
2, 42660, Note_on_c, 0, 75, 54
2, 42683, Note_on_c, 0, 75, 0
2, 42701, Note_on_c, 0, 81, 59
2, 42706, Note_on_c, 0, 59, 0
2, 42713, Note_on_c, 0, 51, 0
2, 42730, Note_on_c, 0, 81, 0
2, 42745, Note_on_c, 0, 83, 55
2, 42766, Note_on_c, 0, 83, 0
2, 42792, Note_on_c, 0, 71, 44
2, 42810, Note_on_c, 0, 71, 0
2, 42884, Note_on_c, 0, 64, 56
2, 42884, Note_on_c, 0, 40, 58
2, 42908, Control_c, 0, 64, 104
2, 42913, Control_c, 0, 64, 24
2, 42917, Control_c, 0, 64, 0
2, 42937, Note_on_c, 0, 64, 0
2, 42937, Control_c, 0, 64, 72
2, 42941, Control_c, 0, 64, 127
2, 42958, Note_on_c, 0, 47, 44
2, 42972, Note_on_c, 0, 40, 0
2, 42992, Note_on_c, 0, 47, 0
2, 43004, Note_on_c, 0, 52, 49
2, 43012, Note_on_c, 0, 88, 68
2, 43034, Note_on_c, 0, 52, 0
2, 43043, Note_on_c, 0, 88, 0
2, 43047, Note_on_c, 0, 90, 77
2, 43056, Note_on_c, 0, 56, 46
2, 43072, Note_on_c, 0, 90, 0
2, 43080, Note_on_c, 0, 85, 73
2, 43091, Note_on_c, 0, 56, 0
2, 43102, Note_on_c, 0, 59, 53
2, 43105, Note_on_c, 0, 85, 0
2, 43109, Note_on_c, 0, 88, 78
2, 43130, Note_on_c, 0, 59, 0
2, 43135, Note_on_c, 0, 88, 0
2, 43140, Note_on_c, 0, 56, 50
2, 43141, Note_on_c, 0, 83, 77
2, 43162, Note_on_c, 0, 83, 0
2, 43169, Note_on_c, 0, 85, 75
2, 43170, Note_on_c, 0, 56, 0
2, 43188, Note_on_c, 0, 52, 58
2, 43196, Note_on_c, 0, 85, 0
2, 43199, Note_on_c, 0, 80, 75
2, 43215, Note_on_c, 0, 52, 0
2, 43221, Note_on_c, 0, 47, 55
2, 43226, Note_on_c, 0, 80, 0
2, 43230, Note_on_c, 0, 83, 77
2, 43256, Note_on_c, 0, 83, 0
2, 43257, Note_on_c, 0, 78, 73
2, 43266, Note_on_c, 0, 47, 0
2, 43283, Note_on_c, 0, 40, 47
2, 43286, Note_on_c, 0, 78, 0
2, 43288, Note_on_c, 0, 80, 80
2, 43296, Control_c, 0, 64, 88
2, 43300, Control_c, 0, 64, 24
2, 43303, Control_c, 0, 64, 0
2, 43319, Note_on_c, 0, 80, 0
2, 43320, Control_c, 0, 64, 104
2, 43321, Note_on_c, 0, 76, 82
2, 43324, Control_c, 0, 64, 127
2, 43332, Note_on_c, 0, 49, 46
2, 43336, Note_on_c, 0, 40, 0
2, 43351, Note_on_c, 0, 80, 77
2, 43358, Note_on_c, 0, 76, 0
2, 43375, Note_on_c, 0, 49, 0
2, 43381, Note_on_c, 0, 52, 56
2, 43383, Note_on_c, 0, 80, 0
2, 43385, Note_on_c, 0, 75, 76
2, 43410, Note_on_c, 0, 52, 0
2, 43427, Note_on_c, 0, 56, 45
2, 43472, Note_on_c, 0, 56, 0
2, 43477, Note_on_c, 0, 61, 47
2, 43509, Note_on_c, 0, 75, 0
2, 43514, Note_on_c, 0, 61, 0
2, 43532, Note_on_c, 0, 56, 45
2, 43563, Note_on_c, 0, 56, 0
2, 43568, Note_on_c, 0, 73, 70
2, 43576, Note_on_c, 0, 52, 45
2, 43599, Note_on_c, 0, 52, 0
2, 43614, Note_on_c, 0, 49, 45
2, 43640, Note_on_c, 0, 49, 0
2, 43662, Note_on_c, 0, 73, 0
2, 43678, Note_on_c, 0, 71, 59
2, 43686, Note_on_c, 0, 40, 36
2, 43688, Control_c, 0, 64, 72
2, 43692, Control_c, 0, 64, 0
2, 43715, Control_c, 0, 64, 72
2, 43719, Control_c, 0, 64, 127
2, 43730, Note_on_c, 0, 47, 50
2, 43740, Note_on_c, 0, 40, 0
2, 43756, Note_on_c, 0, 47, 0
2, 43765, Note_on_c, 0, 71, 0
2, 43769, Note_on_c, 0, 52, 53
2, 43777, Note_on_c, 0, 76, 68
2, 43798, Note_on_c, 0, 52, 0
2, 43806, Note_on_c, 0, 76, 0
2, 43806, Note_on_c, 0, 78, 67
2, 43812, Note_on_c, 0, 56, 23
2, 43829, Note_on_c, 0, 78, 0
2, 43835, Note_on_c, 0, 73, 60
2, 43850, Note_on_c, 0, 56, 0
2, 43858, Note_on_c, 0, 73, 0
2, 43860, Note_on_c, 0, 76, 73
2, 43862, Note_on_c, 0, 59, 47
2, 43889, Note_on_c, 0, 76, 0
2, 43893, Note_on_c, 0, 71, 74
2, 43894, Note_on_c, 0, 59, 0
2, 43898, Note_on_c, 0, 56, 47
2, 43914, Note_on_c, 0, 71, 0
2, 43919, Note_on_c, 0, 73, 68
2, 43921, Note_on_c, 0, 56, 0
2, 43941, Note_on_c, 0, 52, 58
2, 43944, Note_on_c, 0, 73, 0
2, 43949, Note_on_c, 0, 68, 65
2, 43956, Note_on_c, 0, 52, 0
2, 43974, Note_on_c, 0, 68, 0
2, 43976, Note_on_c, 0, 47, 35
2, 43978, Note_on_c, 0, 71, 64
2, 44004, Note_on_c, 0, 71, 0
2, 44004, Note_on_c, 0, 66, 64
2, 44010, Note_on_c, 0, 47, 0
2, 44035, Note_on_c, 0, 66, 0
2, 44035, Note_on_c, 0, 68, 65
2, 44044, Note_on_c, 0, 40, 39
2, 44047, Control_c, 0, 64, 40
2, 44051, Control_c, 0, 64, 0
2, 44068, Note_on_c, 0, 68, 0
2, 44070, Note_on_c, 0, 64, 64
2, 44075, Control_c, 0, 64, 88
2, 44079, Control_c, 0, 64, 127
2, 44091, Note_on_c, 0, 49, 50
2, 44098, Note_on_c, 0, 68, 61
2, 44101, Note_on_c, 0, 64, 0
2, 44101, Note_on_c, 0, 40, 0
2, 44130, Note_on_c, 0, 68, 0
2, 44132, Note_on_c, 0, 49, 0
2, 44136, Note_on_c, 0, 63, 64
2, 44141, Note_on_c, 0, 52, 43
2, 44164, Note_on_c, 0, 52, 0
2, 44183, Note_on_c, 0, 56, 44
2, 44227, Note_on_c, 0, 56, 0
2, 44228, Note_on_c, 0, 61, 51
2, 44234, Note_on_c, 0, 63, 0
2, 44263, Note_on_c, 0, 61, 0
2, 44264, Note_on_c, 0, 56, 46
2, 44280, Note_on_c, 0, 56, 0
2, 44315, Note_on_c, 0, 61, 60
2, 44325, Note_on_c, 0, 52, 32
2, 44344, Note_on_c, 0, 52, 0
2, 44346, Note_on_c, 0, 61, 0
2, 44354, Note_on_c, 0, 49, 55
2, 44378, Note_on_c, 0, 49, 0
2, 44399, Note_on_c, 0, 40, 58
2, 44410, Note_on_c, 0, 40, 0
2, 44414, Control_c, 0, 64, 104
2, 44418, Control_c, 0, 64, 40
2, 44421, Control_c, 0, 64, 0
2, 44435, Note_on_c, 0, 59, 63
2, 44442, Control_c, 0, 64, 40
2, 44446, Control_c, 0, 64, 104
2, 44450, Control_c, 0, 64, 127
2, 44460, Note_on_c, 0, 59, 0
2, 44464, Note_on_c, 0, 52, 65
2, 44476, Note_on_c, 0, 52, 0
2, 44493, Note_on_c, 0, 47, 62
2, 44510, Note_on_c, 0, 47, 0
2, 44518, Note_on_c, 0, 61, 63
2, 44535, Note_on_c, 0, 61, 0
2, 44541, Note_on_c, 0, 56, 65
2, 44561, Note_on_c, 0, 56, 0
2, 44570, Note_on_c, 0, 52, 72
2, 44584, Note_on_c, 0, 52, 0
2, 44594, Note_on_c, 0, 64, 70
2, 44613, Note_on_c, 0, 64, 0
2, 44621, Note_on_c, 0, 59, 64
2, 44628, Note_on_c, 0, 59, 0
2, 44637, Note_on_c, 0, 59, 70
2, 44649, Note_on_c, 0, 59, 0
2, 44666, Note_on_c, 0, 66, 72
2, 44682, Note_on_c, 0, 66, 0
2, 44690, Note_on_c, 0, 61, 61
2, 44704, Note_on_c, 0, 61, 0
2, 44711, Note_on_c, 0, 52, 71
2, 44717, Control_c, 0, 64, 72
2, 44721, Control_c, 0, 64, 0
2, 44732, Note_on_c, 0, 52, 0
2, 44733, Control_c, 0, 64, 88
2, 44736, Note_on_c, 0, 71, 71
2, 44736, Control_c, 0, 64, 127
2, 44755, Note_on_c, 0, 71, 0
2, 44760, Note_on_c, 0, 64, 47
2, 44770, Note_on_c, 0, 64, 0
2, 44781, Note_on_c, 0, 59, 60
2, 44800, Note_on_c, 0, 59, 0
2, 44800, Note_on_c, 0, 73, 76
2, 44815, Note_on_c, 0, 73, 0
2, 44823, Note_on_c, 0, 68, 64
2, 44839, Note_on_c, 0, 68, 0
2, 44844, Note_on_c, 0, 64, 70
2, 44860, Note_on_c, 0, 64, 0
2, 44864, Note_on_c, 0, 76, 75
2, 44879, Note_on_c, 0, 76, 0
2, 44884, Note_on_c, 0, 71, 66
2, 44893, Note_on_c, 0, 71, 0
2, 44908, Note_on_c, 0, 71, 74
2, 44916, Note_on_c, 0, 71, 0
2, 44926, Note_on_c, 0, 78, 76
2, 44941, Note_on_c, 0, 78, 0
2, 44951, Note_on_c, 0, 73, 51
2, 44960, Note_on_c, 0, 73, 0
2, 44967, Note_on_c, 0, 64, 62
2, 44979, Control_c, 0, 64, 104
2, 44983, Control_c, 0, 64, 72
2, 44992, Note_on_c, 0, 83, 68
2, 44995, Note_on_c, 0, 64, 0
2, 44995, Control_c, 0, 64, 127
2, 45010, Note_on_c, 0, 83, 0
2, 45016, Note_on_c, 0, 76, 56
2, 45024, Note_on_c, 0, 76, 0
2, 45045, Note_on_c, 0, 71, 38
2, 45059, Note_on_c, 0, 71, 0
2, 45060, Note_on_c, 0, 85, 73
2, 45074, Note_on_c, 0, 85, 0
2, 45084, Note_on_c, 0, 80, 58
2, 45102, Note_on_c, 0, 80, 0
2, 45107, Note_on_c, 0, 76, 59
2, 45128, Note_on_c, 0, 76, 0
2, 45128, Note_on_c, 0, 88, 69
2, 45147, Note_on_c, 0, 88, 0
2, 45154, Note_on_c, 0, 83, 55
2, 45165, Note_on_c, 0, 83, 0
2, 45180, Note_on_c, 0, 83, 59
2, 45200, Note_on_c, 0, 83, 0
2, 45210, Note_on_c, 0, 90, 60
2, 45226, Note_on_c, 0, 90, 0
2, 45234, Note_on_c, 0, 85, 56
2, 45258, Note_on_c, 0, 85, 0
2, 45289, Note_on_c, 0, 92, 73
2, 45294, Note_on_c, 0, 88, 51
2, 45298, Note_on_c, 0, 76, 45
2, 45302, Note_on_c, 0, 83, 38
2, 45325, Note_on_c, 0, 88, 0
2, 45330, Note_on_c, 0, 76, 0
2, 45331, Note_on_c, 0, 92, 0
2, 45332, Note_on_c, 0, 83, 0
2, 45409, Note_on_c, 0, 92, 58
2, 45416, Note_on_c, 0, 88, 37
2, 45420, Note_on_c, 0, 83, 31
2, 45420, Note_on_c, 0, 76, 31
2, 45428, Note_on_c, 0, 88, 0
2, 45433, Note_on_c, 0, 76, 0
2, 45438, Note_on_c, 0, 83, 0
2, 45441, Note_on_c, 0, 92, 0
2, 45682, Note_on_c, 0, 92, 49
2, 45692, Note_on_c, 0, 76, 37
2, 45692, Note_on_c, 0, 88, 28
2, 45692, Note_on_c, 0, 83, 24
2, 45711, Note_on_c, 0, 88, 0
2, 45718, Note_on_c, 0, 92, 0
2, 45718, Note_on_c, 0, 76, 0
2, 45719, Note_on_c, 0, 83, 0
2, 45919, Note_on_c, 0, 64, 48
2, 45922, Note_on_c, 0, 52, 41
2, 45923, Note_on_c, 0, 40, 33
2, 45943, Control_c, 0, 64, 104
2, 45947, Control_c, 0, 64, 72
2, 45951, Control_c, 0, 64, 24
2, 45956, Control_c, 0, 64, 0
2, 45980, Control_c, 0, 64, 40
2, 45984, Control_c, 0, 64, 127
2, 46003, Note_on_c, 0, 52, 0
2, 46005, Note_on_c, 0, 40, 0
2, 46020, Note_on_c, 0, 64, 0
2, 46439, Control_c, 0, 64, 104
2, 46451, Control_c, 0, 64, 88
2, 46463, Control_c, 0, 64, 72
2, 46476, Control_c, 0, 64, 56
2, 46480, Control_c, 0, 64, 40
2, 46484, Control_c, 0, 64, 24
2, 46492, Control_c, 0, 64, 0
2, 46492, End_track
3, 0, Start_track
3, 0, MIDI_port, 0
3, 0, Title_t, "Debussy"
3, 0, End_track
4, 0, Start_track
4, 0, MIDI_port, 0
4, 0, Title_t, "Copyright1998"
4, 0, End_track
5, 0, Start_track
5, 0, MIDI_port, 0
5, 0, Title_t, "Robert Finley"
5, 0, End_track
0, 0, End_of_file
