0, 0, Header, 0, 1, 384
1, 0, Start_track
1, 0, Tempo, 512820
1, 0, Title_t, ""
1, 0, Control_c, 0, 64, 127
1, 0, Note_on_c, 0, 61, 23
1, 163, Note_on_c, 0, 64, 26
1, 287, Note_on_c, 0, 69, 23
1, 395, Note_off_c, 0, 64, 64
1, 403, Note_on_c, 0, 73, 26
1, 423, Note_off_c, 0, 61, 64
1, 423, Note_off_c, 0, 69, 64
1, 531, Note_off_c, 0, 73, 64
1, 531, Note_on_c, 0, 76, 32
1, 620, Note_on_c, 0, 78, 42
1, 626, Note_off_c, 0, 76, 64
1, 732, Note_on_c, 0, 80, 45
1, 738, Note_off_c, 0, 78, 64
1, 744, Control_c, 0, 64, 0
1, 840, Note_on_c, 0, 75, 43
1, 947, Control_c, 0, 64, 127
1, 953, Note_on_c, 0, 71, 54
1, 986, Note_off_c, 0, 75, 64
1, 999, Note_off_c, 0, 80, 64
1, 1021, Note_off_c, 0, 71, 64
1, 1038, Note_on_c, 0, 68, 35
1, 1144, Note_off_c, 0, 68, 64
1, 1150, Note_on_c, 0, 63, 43
1, 1250, Note_on_c, 0, 59, 41
1, 1250, Note_off_c, 0, 63, 64
1, 1312, Note_off_c, 0, 59, 64
1, 1351, Note_on_c, 0, 57, 36
1, 1392, Control_c, 0, 64, 0
1, 1478, Note_on_c, 0, 61, 42
1, 1576, Note_on_c, 0, 66, 34
1, 1630, Control_c, 0, 64, 127
1, 1677, Note_off_c, 0, 57, 64
1, 1682, Note_off_c, 0, 66, 64
1, 1687, Note_on_c, 0, 69, 33
1, 1737, Note_off_c, 0, 61, 64
1, 1774, Note_on_c, 0, 73, 42
1, 1790, Note_off_c, 0, 69, 64
1, 1879, Note_off_c, 0, 73, 64
1, 1886, Note_on_c, 0, 75, 37
1, 1991, Control_c, 0, 64, 0
1, 2017, Note_off_c, 0, 75, 64
1, 2022, Note_on_c, 0, 76, 35
1, 2134, Note_on_c, 0, 71, 30
1, 2214, Note_on_c, 0, 68, 25
1, 2230, Control_c, 0, 64, 127
1, 2242, Note_off_c, 0, 76, 64
1, 2315, Note_off_c, 0, 71, 64
1, 2336, Note_on_c, 0, 64, 24
1, 2350, Note_off_c, 0, 68, 64
1, 2440, Note_off_c, 0, 64, 64
1, 2464, Note_on_c, 0, 59, 19
1, 2524, Note_off_c, 0, 59, 64
1, 2557, Note_on_c, 0, 56, 31
1, 2641, Note_off_c, 0, 56, 64
1, 2687, Control_c, 0, 64, 0
1, 2687, Note_on_c, 0, 54, 41
1, 2822, Note_on_c, 0, 57, 34
1, 2919, Note_on_c, 0, 61, 33
1, 3028, Note_on_c, 0, 73, 54
1, 3081, Control_c, 0, 64, 127
1, 3091, Note_off_c, 0, 57, 64
1, 3156, Note_on_c, 0, 66, 23
1, 3247, Note_off_c, 0, 61, 64
1, 3289, Note_on_c, 0, 69, 26
1, 3303, Note_off_c, 0, 66, 64
1, 3351, Note_off_c, 0, 69, 64
1, 3381, Note_off_c, 0, 54, 64
1, 3421, Note_on_c, 0, 78, 52
1, 3440, Note_on_c, 0, 52, 35
1, 3471, Note_off_c, 0, 73, 64
1, 3537, Control_c, 0, 64, 0
1, 3579, Note_on_c, 0, 57, 34
1, 3702, Note_on_c, 0, 61, 28
1, 3729, Control_c, 0, 64, 127
1, 3810, Note_off_c, 0, 57, 64
1, 3841, Note_on_c, 0, 73, 44
1, 3864, Note_off_c, 0, 78, 64
1, 3914, Note_off_c, 0, 61, 64
1, 3949, Note_on_c, 0, 66, 22
1, 4075, Note_on_c, 0, 69, 19
1, 4078, Note_off_c, 0, 66, 64
1, 4142, Note_off_c, 0, 52, 64
1, 4142, Note_on_c, 0, 51, 51
1, 4156, Note_off_c, 0, 69, 64
1, 4215, Note_off_c, 0, 73, 64
1, 4298, Note_on_c, 0, 57, 39
1, 4385, Note_on_c, 0, 61, 43
1, 4459, Note_off_c, 0, 57, 64
1, 4479, Note_on_c, 0, 73, 73
1, 4484, Control_c, 0, 64, 0
1, 4593, Note_on_c, 0, 66, 44
1, 4651, Control_c, 0, 64, 127
1, 4707, Note_on_c, 0, 69, 39
1, 4738, Note_off_c, 0, 66, 64
1, 4744, Note_off_c, 0, 61, 64
1, 4777, Note_off_c, 0, 69, 64
1, 4802, Note_off_c, 0, 51, 64
1, 4813, Note_on_c, 0, 78, 73
1, 4813, Note_on_c, 0, 49, 41
1, 4891, Control_c, 0, 64, 0
1, 4906, Note_off_c, 0, 73, 64
1, 4958, Note_on_c, 0, 57, 38
1, 5038, Note_off_c, 0, 49, 64
1, 5047, Control_c, 0, 64, 127
1, 5073, Note_off_c, 0, 57, 64
1, 5097, Note_on_c, 0, 64, 42
1, 5175, Note_off_c, 0, 64, 64
1, 5254, Note_on_c, 0, 81, 65
1, 5365, Note_off_c, 0, 78, 64
1, 5395, Note_on_c, 0, 69, 18
1, 5527, Note_on_c, 0, 73, 30
1, 5527, Note_off_c, 0, 69, 64
1, 5590, Note_off_c, 0, 73, 64
1, 5657, Note_on_c, 0, 47, 42
1, 5682, Control_c, 0, 64, 0
1, 5805, Note_on_c, 0, 54, 55
1, 5861, Control_c, 0, 64, 127
1, 5891, Note_off_c, 0, 81, 64
1, 5902, Note_off_c, 0, 47, 64
1, 5941, Note_off_c, 0, 54, 64
1, 5964, Note_on_c, 0, 57, 49
1, 6072, Note_off_c, 0, 57, 64
1, 6100, Note_on_c, 0, 81, 81
1, 6106, Note_on_c, 0, 61, 51
1, 6256, Note_on_c, 0, 63, 50
1, 6273, Note_off_c, 0, 61, 64
1, 6406, Note_on_c, 0, 66, 36
1, 6410, Note_off_c, 0, 63, 64
1, 6546, Note_off_c, 0, 66, 64
1, 6571, Note_on_c, 0, 69, 35
1, 6727, Note_off_c, 0, 69, 64
1, 6736, Note_on_c, 0, 73, 46
1, 6949, Note_off_c, 0, 73, 64
1, 6953, Note_on_c, 0, 75, 43
1, 7154, Note_off_c, 0, 75, 64
1, 7175, Note_on_c, 0, 73, 27
1, 7459, Note_off_c, 0, 73, 64
1, 7471, Note_on_c, 0, 80, 40
1, 7479, Note_on_c, 0, 71, 27
1, 7515, Note_off_c, 0, 81, 64
1, 7685, Note_off_c, 0, 71, 64
1, 7864, Note_on_c, 0, 78, 34
1, 7867, Note_on_c, 0, 69, 10
1, 7933, Note_off_c, 0, 80, 64
1, 7992, Note_off_c, 0, 69, 64
1, 8434, Note_on_c, 0, 40, 42
1, 8507, Note_off_c, 0, 78, 64
1, 8510, Control_c, 0, 64, 0
1, 8688, Note_on_c, 0, 47, 38
1, 8763, Control_c, 0, 64, 127
1, 8828, Note_off_c, 0, 40, 64
1, 8867, Note_off_c, 0, 47, 64
1, 8891, Note_on_c, 0, 76, 47
1, 8908, Note_on_c, 0, 52, 41
1, 9040, Note_off_c, 0, 52, 64
1, 9045, Note_on_c, 0, 78, 62
1, 9081, Note_on_c, 0, 56, 30
1, 9118, Note_off_c, 0, 76, 64
1, 9157, Note_on_c, 0, 73, 59
1, 9187, Note_off_c, 0, 78, 64
1, 9264, Note_off_c, 0, 56, 64
1, 9270, Note_on_c, 0, 76, 66
1, 9289, Note_on_c, 0, 59, 33
1, 9310, Note_off_c, 0, 73, 64
1, 9381, Note_on_c, 0, 71, 66
1, 9398, Note_off_c, 0, 76, 64
1, 9410, Note_off_c, 0, 59, 64
1, 9431, Note_on_c, 0, 56, 42
1, 9469, Note_off_c, 0, 71, 64
1, 9477, Note_on_c, 0, 73, 66
1, 9482, Note_off_c, 0, 56, 64
1, 9580, Note_on_c, 0, 68, 62
1, 9605, Note_off_c, 0, 73, 64
1, 9605, Note_on_c, 0, 52, 31
1, 9686, Note_on_c, 0, 71, 83
1, 9705, Note_off_c, 0, 68, 64
1, 9728, Note_off_c, 0, 52, 64
1, 9749, Note_on_c, 0, 47, 34
1, 9786, Note_on_c, 0, 66, 59
1, 9792, Note_off_c, 0, 71, 64
1, 9878, Note_off_c, 0, 47, 64
1, 9888, Control_c, 0, 64, 0
1, 9888, Note_on_c, 0, 68, 68
1, 9905, Note_on_c, 0, 40, 45
1, 9914, Note_off_c, 0, 66, 64
1, 10000, Note_on_c, 0, 64, 67
1, 10008, Note_off_c, 0, 68, 64
1, 10061, Note_on_c, 0, 49, 32
1, 10092, Note_on_c, 0, 68, 49
1, 10112, Note_off_c, 0, 64, 64
1, 10171, Note_off_c, 0, 40, 64
1, 10198, Note_off_c, 0, 68, 64
1, 10198, Note_on_c, 0, 63, 68
1, 10228, Note_off_c, 0, 49, 64
1, 10235, Note_on_c, 0, 52, 40
1, 10235, Control_c, 0, 64, 127
1, 10301, Note_off_c, 0, 52, 64
1, 10374, Note_on_c, 0, 56, 24
1, 10487, Note_off_c, 0, 56, 64
1, 10547, Note_on_c, 0, 61, 31
1, 10671, Note_off_c, 0, 61, 64
1, 10747, Note_on_c, 0, 56, 32
1, 10828, Note_off_c, 0, 56, 64
1, 10945, Note_on_c, 0, 61, 52
1, 10994, Note_on_c, 0, 52, 17
1, 11061, Note_off_c, 0, 52, 64
1, 11122, Note_off_c, 0, 63, 64
1, 11128, Note_on_c, 0, 49, 24
1, 11226, Note_off_c, 0, 49, 64
1, 11315, Control_c, 0, 64, 0
1, 11323, Note_on_c, 0, 59, 41
1, 11323, Note_on_c, 0, 40, 47
1, 11343, Note_off_c, 0, 61, 64
1, 11488, Note_off_c, 0, 59, 64
1, 11507, Control_c, 0, 64, 127
1, 11551, Note_on_c, 0, 47, 21
1, 11632, Note_off_c, 0, 40, 64
1, 11680, Note_off_c, 0, 47, 64
1, 11750, Note_on_c, 0, 76, 43
1, 11783, Note_on_c, 0, 52, 16
1, 11878, Note_off_c, 0, 52, 64
1, 11903, Note_on_c, 0, 78, 53
1, 11936, Note_off_c, 0, 76, 64
1, 11936, Note_on_c, 0, 56, 21
1, 12009, Note_on_c, 0, 73, 52
1, 12019, Note_off_c, 0, 78, 64
1, 12122, Note_off_c, 0, 56, 64
1, 12126, Note_on_c, 0, 76, 64
1, 12146, Note_off_c, 0, 73, 64
1, 12168, Note_on_c, 0, 59, 17
1, 12234, Note_on_c, 0, 71, 69
1, 12245, Note_off_c, 0, 76, 64
1, 12249, Note_off_c, 0, 59, 64
1, 12295, Note_off_c, 0, 71, 64
1, 12306, Note_on_c, 0, 56, 32
1, 12329, Note_on_c, 0, 73, 66
1, 12354, Note_off_c, 0, 56, 64
1, 12438, Note_on_c, 0, 68, 58
1, 12452, Note_off_c, 0, 73, 64
1, 12471, Note_on_c, 0, 52, 27
1, 12538, Note_on_c, 0, 71, 76
1, 12557, Note_off_c, 0, 68, 64
1, 12565, Note_off_c, 0, 52, 64
1, 12613, Note_on_c, 0, 47, 18
1, 12643, Note_off_c, 0, 71, 64
1, 12650, Note_on_c, 0, 66, 59
1, 12742, Note_off_c, 0, 47, 64
1, 12758, Note_on_c, 0, 68, 61
1, 12767, Note_on_c, 0, 40, 41
1, 12772, Note_off_c, 0, 66, 64
1, 12789, Control_c, 0, 64, 0
1, 12861, Note_off_c, 0, 68, 64
1, 12869, Note_on_c, 0, 64, 57
1, 12922, Note_on_c, 0, 49, 29
1, 12970, Note_on_c, 0, 68, 47
1, 12983, Note_off_c, 0, 64, 64
1, 13053, Note_off_c, 0, 40, 64
1, 13078, Note_on_c, 0, 63, 65
1, 13092, Note_off_c, 0, 68, 64
1, 13112, Control_c, 0, 64, 127
1, 13115, Note_off_c, 0, 49, 64
1, 13129, Note_on_c, 0, 52, 38
1, 13184, Note_off_c, 0, 52, 64
1, 13254, Note_on_c, 0, 56, 35
1, 13416, Note_off_c, 0, 56, 64
1, 13429, Note_on_c, 0, 61, 38
1, 13580, Note_off_c, 0, 61, 64
1, 13644, Note_on_c, 0, 56, 34
1, 13798, Note_off_c, 0, 56, 64
1, 13869, Note_on_c, 0, 61, 51
1, 13881, Note_on_c, 0, 52, 32
1, 13981, Note_off_c, 0, 63, 64
1, 14026, Note_off_c, 0, 52, 64
1, 14043, Note_on_c, 0, 49, 34
1, 14151, Note_off_c, 0, 49, 64
1, 14188, Note_on_c, 0, 59, 59
1, 14215, Note_off_c, 0, 61, 64
1, 14215, Note_on_c, 0, 42, 25
1, 14228, Control_c, 0, 64, 0
1, 14321, Note_on_c, 0, 57, 56
1, 14362, Note_off_c, 0, 59, 64
1, 14383, Note_on_c, 0, 49, 37
1, 14454, Note_on_c, 0, 59, 51
1, 14488, Note_off_c, 0, 57, 64
1, 14603, Note_on_c, 0, 52, 37
1, 14607, Note_on_c, 0, 61, 52
1, 14610, Note_off_c, 0, 59, 64
1, 14658, Note_off_c, 0, 42, 64
1, 14658, Note_off_c, 0, 49, 64
1, 14681, Control_c, 0, 64, 127
1, 14780, Note_off_c, 0, 52, 64
1, 14784, Note_on_c, 0, 54, 43
1, 14944, Note_off_c, 0, 54, 64
1, 14968, Note_on_c, 0, 57, 30
1, 15104, Note_off_c, 0, 57, 64
1, 15148, Note_on_c, 0, 64, 49
1, 15153, Note_on_c, 0, 54, 32
1, 15190, Note_off_c, 0, 61, 64
1, 15213, Note_off_c, 0, 54, 64
1, 15296, Note_on_c, 0, 63, 69
1, 15324, Note_on_c, 0, 52, 35
1, 15337, Note_off_c, 0, 64, 64
1, 15419, Note_off_c, 0, 52, 64
1, 15454, Note_on_c, 0, 49, 39
1, 15466, Note_on_c, 0, 64, 74
1, 15486, Note_off_c, 0, 63, 64
1, 15511, Note_off_c, 0, 49, 64
1, 15617, Control_c, 0, 64, 0
1, 15624, Note_on_c, 0, 44, 39
1, 15635, Note_on_c, 0, 61, 67
1, 15672, Note_off_c, 0, 64, 64
1, 15791, Note_on_c, 0, 49, 34
1, 15797, Control_c, 0, 64, 127
1, 15816, Note_off_c, 0, 61, 64
1, 15903, Note_off_c, 0, 44, 64
1, 15917, Note_off_c, 0, 49, 64
1, 15951, Note_on_c, 0, 68, 65
1, 15987, Note_on_c, 0, 52, 24
1, 16048, Note_off_c, 0, 52, 64
1, 16120, Note_on_c, 0, 56, 27
1, 16220, Note_off_c, 0, 56, 64
1, 16287, Note_on_c, 0, 59, 27
1, 16421, Note_off_c, 0, 59, 64
1, 16444, Note_on_c, 0, 56, 39
1, 16504, Note_off_c, 0, 56, 64
1, 16611, Note_on_c, 0, 52, 41
1, 16625, Note_on_c, 0, 64, 54
1, 16664, Note_off_c, 0, 52, 64
1, 16700, Note_off_c, 0, 68, 64
1, 16762, Note_on_c, 0, 49, 42
1, 16798, Note_off_c, 0, 64, 64
1, 16856, Note_off_c, 0, 49, 64
1, 16912, Note_on_c, 0, 63, 62
1, 16925, Note_on_c, 0, 45, 36
1, 17021, Note_on_c, 0, 61, 62
1, 17039, Note_off_c, 0, 63, 64
1, 17103, Note_on_c, 0, 52, 42
1, 17131, Note_on_c, 0, 63, 59
1, 17165, Note_off_c, 0, 61, 64
1, 17176, Control_c, 0, 64, 0
1, 17253, Note_on_c, 0, 54, 53
1, 17260, Note_off_c, 0, 63, 64
1, 17266, Note_on_c, 0, 64, 65
1, 17365, Note_off_c, 0, 45, 64
1, 17379, Control_c, 0, 64, 127
1, 17407, Note_off_c, 0, 52, 64
1, 17416, Note_on_c, 0, 57, 36
1, 17424, Note_off_c, 0, 54, 64
1, 17566, Note_on_c, 0, 61, 51
1, 17566, Note_off_c, 0, 57, 64
1, 17681, Note_off_c, 0, 61, 64
1, 17728, Note_on_c, 0, 68, 66
1, 17748, Note_on_c, 0, 57, 42
1, 17756, Note_off_c, 0, 64, 64
1, 17893, Note_on_c, 0, 66, 63
1, 17900, Note_off_c, 0, 57, 64
1, 17909, Note_on_c, 0, 54, 48
1, 17932, Note_off_c, 0, 68, 64
1, 18034, Note_on_c, 0, 68, 67
1, 18034, Note_off_c, 0, 54, 64
1, 18057, Note_on_c, 0, 52, 50
1, 18089, Note_off_c, 0, 66, 64
1, 18151, Note_off_c, 0, 52, 64
1, 18177, Note_on_c, 0, 64, 70
1, 18182, Note_off_c, 0, 68, 64
1, 18193, Note_on_c, 0, 46, 42
1, 18193, Control_c, 0, 64, 0
1, 18355, Note_on_c, 0, 52, 61
1, 18372, Note_off_c, 0, 64, 64
1, 18386, Control_c, 0, 64, 127
1, 18418, Note_off_c, 0, 46, 64
1, 18480, Note_on_c, 0, 56, 48
1, 18488, Note_on_c, 0, 73, 67
1, 18505, Note_off_c, 0, 52, 64
1, 18614, Note_on_c, 0, 61, 42
1, 18633, Note_off_c, 0, 56, 64
1, 18772, Note_off_c, 0, 61, 64
1, 18819, Note_on_c, 0, 49, 48
1, 18925, Control_c, 0, 64, 0
1, 18982, Note_on_c, 0, 54, 62
1, 19068, Control_c, 0, 64, 127
1, 19099, Note_off_c, 0, 49, 64
1, 19113, Note_on_c, 0, 70, 60
1, 19120, Note_on_c, 0, 58, 43
1, 19138, Note_off_c, 0, 73, 64
1, 19148, Note_off_c, 0, 54, 64
1, 19240, Note_on_c, 0, 73, 64
1, 19248, Note_off_c, 0, 58, 64
1, 19265, Note_off_c, 0, 70, 64
1, 19269, Note_on_c, 0, 64, 62
1, 19329, Note_off_c, 0, 64, 64
1, 19333, Note_on_c, 0, 70, 58
1, 19376, Note_off_c, 0, 73, 64
1, 19429, Note_on_c, 0, 52, 60
1, 19450, Note_on_c, 0, 68, 75
1, 19450, Control_c, 0, 64, 0
1, 19472, Note_off_c, 0, 70, 64
1, 19594, Note_on_c, 0, 58, 40
1, 19608, Note_off_c, 0, 52, 64
1, 19608, Control_c, 0, 64, 127
1, 19656, Note_off_c, 0, 68, 64
1, 19745, Note_off_c, 0, 58, 64
1, 19745, Note_on_c, 0, 61, 48
1, 19755, Note_on_c, 0, 76, 85
1, 19819, Note_off_c, 0, 61, 64
1, 19893, Note_on_c, 0, 68, 40
1, 19975, Note_off_c, 0, 68, 64
1, 20048, Note_on_c, 0, 54, 69
1, 20101, Control_c, 0, 64, 0
1, 20205, Note_on_c, 0, 61, 66
1, 20243, Control_c, 0, 64, 127
1, 20243, Note_off_c, 0, 54, 64
1, 20321, Note_on_c, 0, 73, 78
1, 20329, Note_off_c, 0, 76, 64
1, 20346, Note_off_c, 0, 61, 64
1, 20346, Note_on_c, 0, 64, 56
1, 20402, Note_off_c, 0, 64, 64
1, 20444, Note_on_c, 0, 76, 77
1, 20463, Note_off_c, 0, 73, 64
1, 20478, Note_on_c, 0, 70, 48
1, 20553, Note_on_c, 0, 73, 78
1, 20566, Note_off_c, 0, 76, 64
1, 20608, Note_off_c, 0, 70, 64
1, 20667, Note_on_c, 0, 80, 84
1, 20672, Note_on_c, 0, 58, 38
1, 20686, Control_c, 0, 64, 0
1, 20720, Note_off_c, 0, 73, 64
1, 20840, Note_on_c, 0, 64, 50
1, 20890, Control_c, 0, 64, 127
1, 20921, Note_off_c, 0, 58, 64
1, 20993, Note_on_c, 0, 68, 44
1, 21001, Note_off_c, 0, 64, 64
1, 21073, Note_off_c, 0, 68, 64
1, 21127, Note_on_c, 0, 78, 83
1, 21137, Note_on_c, 0, 73, 46
1, 21187, Note_off_c, 0, 80, 64
1, 21249, Note_off_c, 0, 73, 64
1, 21286, Note_on_c, 0, 80, 79
1, 21296, Note_on_c, 0, 61, 48
1, 21296, Control_c, 0, 64, 0
1, 21343, Note_off_c, 0, 78, 64
1, 21446, Note_on_c, 0, 66, 41
1, 21478, Control_c, 0, 64, 127
1, 21510, Note_off_c, 0, 61, 64
1, 21584, Note_on_c, 0, 70, 44
1, 21600, Note_off_c, 0, 66, 64
1, 21644, Note_off_c, 0, 70, 64
1, 21734, Note_on_c, 0, 78, 70
1, 21740, Note_on_c, 0, 76, 47
1, 21776, Note_off_c, 0, 76, 64
1, 21797, Note_off_c, 0, 80, 64
1, 21953, Note_on_c, 0, 80, 67
1, 21957, Control_c, 0, 64, 0
1, 21960, Note_on_c, 0, 58, 31
1, 22021, Note_off_c, 0, 78, 64
1, 22123, Note_on_c, 0, 64, 38
1, 22149, Control_c, 0, 64, 127
1, 22193, Note_off_c, 0, 58, 64
1, 22277, Note_off_c, 0, 64, 64
1, 22308, Note_on_c, 0, 68, 27
1, 22433, Note_off_c, 0, 68, 64
1, 22481, Note_on_c, 0, 73, 26
1, 22491, Note_on_c, 0, 78, 53
1, 22539, Note_off_c, 0, 80, 64
1, 22622, Note_off_c, 0, 73, 64
1, 22740, Note_on_c, 0, 80, 52
1, 22765, Note_on_c, 0, 61, 24
1, 22776, Note_off_c, 0, 78, 64
1, 22784, Control_c, 0, 64, 0
1, 23032, Note_on_c, 0, 78, 40
1, 23059, Note_on_c, 0, 66, 16
1, 23104, Note_off_c, 0, 80, 64
1, 23263, Control_c, 0, 64, 127
1, 23282, Note_off_c, 0, 61, 64
1, 23330, Note_on_c, 0, 70, 16
1, 23372, Note_off_c, 0, 66, 64
1, 23467, Note_off_c, 0, 70, 64
1, 23670, Note_on_c, 0, 80, 41
1, 23681, Note_on_c, 0, 76, 15
1, 23778, Note_off_c, 0, 76, 64
1, 23793, Note_off_c, 0, 78, 64
1, 24183, Note_on_c, 0, 61, 18
1, 24190, Note_on_c, 0, 81, 50
1, 24246, Control_c, 0, 64, 0
1, 24321, Note_off_c, 0, 80, 64
1, 24400, Note_on_c, 0, 64, 27
1, 24533, Note_on_c, 0, 69, 26
1, 24616, Note_off_c, 0, 64, 64
1, 24630, Note_off_c, 0, 61, 64
1, 24642, Control_c, 0, 64, 127
1, 24653, Note_off_c, 0, 69, 64
1, 24673, Note_on_c, 0, 73, 24
1, 24795, Note_off_c, 0, 73, 64
1, 24806, Note_on_c, 0, 76, 30
1, 24903, Note_on_c, 0, 78, 41
1, 24912, Note_off_c, 0, 76, 64
1, 25016, Note_on_c, 0, 80, 64
1, 25016, Note_off_c, 0, 78, 64
1, 25062, Note_off_c, 0, 81, 64
1, 25144, Note_on_c, 0, 75, 37
1, 25229, Note_off_c, 0, 75, 64
1, 25260, Note_on_c, 0, 71, 28
1, 25277, Control_c, 0, 64, 0
1, 25330, Note_on_c, 0, 68, 33
1, 25388, Note_off_c, 0, 71, 64
1, 25420, Control_c, 0, 64, 127
1, 25438, Note_off_c, 0, 68, 64
1, 25453, Note_on_c, 0, 63, 35
1, 25561, Note_on_c, 0, 59, 35
1, 25569, Note_off_c, 0, 63, 64
1, 25667, Note_on_c, 0, 78, 65
1, 25667, Note_on_c, 0, 57, 22
1, 25676, Note_off_c, 0, 59, 64
1, 25743, Note_off_c, 0, 80, 64
1, 25792, Control_c, 0, 64, 0
1, 25798, Note_on_c, 0, 61, 34
1, 25898, Note_on_c, 0, 66, 23
1, 25960, Control_c, 0, 64, 127
1, 25960, Note_off_c, 0, 57, 64
1, 25999, Note_off_c, 0, 66, 64
1, 26016, Note_on_c, 0, 69, 24
1, 26099, Note_off_c, 0, 61, 64
1, 26126, Note_off_c, 0, 69, 64
1, 26126, Note_on_c, 0, 73, 29
1, 26224, Note_off_c, 0, 73, 64
1, 26239, Note_on_c, 0, 75, 34
1, 26294, Note_off_c, 0, 75, 64
1, 26371, Note_on_c, 0, 76, 43
1, 26420, Note_off_c, 0, 78, 64
1, 26488, Control_c, 0, 64, 0
1, 26500, Note_on_c, 0, 71, 26
1, 26595, Note_on_c, 0, 68, 18
1, 26717, Note_on_c, 0, 64, 25
1, 26726, Control_c, 0, 64, 127
1, 26768, Note_off_c, 0, 71, 64
1, 26771, Note_off_c, 0, 68, 64
1, 26804, Note_off_c, 0, 64, 64
1, 26849, Note_on_c, 0, 59, 6
1, 26849, Note_off_c, 0, 76, 64
1, 26941, Note_on_c, 0, 56, 31
1, 26944, Note_off_c, 0, 59, 64
1, 27012, Note_off_c, 0, 56, 64
1, 27136, Note_on_c, 0, 75, 56
1, 27172, Note_on_c, 0, 55, 39
1, 27194, Control_c, 0, 64, 0
1, 27299, Note_on_c, 0, 61, 35
1, 27350, Control_c, 0, 64, 127
1, 27367, Note_off_c, 0, 55, 64
1, 27409, Note_on_c, 0, 63, 41
1, 27434, Note_off_c, 0, 61, 64
1, 27459, Note_off_c, 0, 63, 64
1, 27509, Note_on_c, 0, 70, 45
1, 27633, Note_on_c, 0, 63, 48
1, 27650, Note_off_c, 0, 70, 64
1, 27721, Note_on_c, 0, 61, 36
1, 27751, Note_off_c, 0, 63, 64
1, 27782, Note_off_c, 0, 61, 64
1, 27818, Note_on_c, 0, 56, 34
1, 27824, Note_on_c, 0, 76, 75
1, 27854, Control_c, 0, 64, 0
1, 27913, Note_off_c, 0, 75, 64
1, 27954, Note_on_c, 0, 61, 44
1, 28034, Control_c, 0, 64, 127
1, 28090, Note_on_c, 0, 64, 47
1, 28096, Note_off_c, 0, 56, 64
1, 28115, Note_off_c, 0, 61, 64
1, 28144, Note_off_c, 0, 64, 64
1, 28155, Note_on_c, 0, 80, 83
1, 28230, Note_on_c, 0, 71, 45
1, 28241, Note_off_c, 0, 76, 64
1, 28299, Note_off_c, 0, 71, 64
1, 28356, Note_on_c, 0, 64, 46
1, 28370, Note_on_c, 0, 83, 100
1, 28422, Note_off_c, 0, 80, 64
1, 28422, Note_off_c, 0, 64, 64
1, 28472, Note_on_c, 0, 61, 31
1, 28548, Note_off_c, 0, 61, 64
1, 28573, Note_on_c, 0, 55, 40
1, 28647, Note_on_c, 0, 75, 66
1, 28656, Control_c, 0, 64, 0
1, 28682, Note_off_c, 0, 83, 64
1, 28801, Note_on_c, 0, 61, 40
1, 28848, Note_off_c, 0, 55, 64
1, 28848, Control_c, 0, 64, 127
1, 28935, Note_on_c, 0, 63, 39
1, 28949, Note_off_c, 0, 61, 64
1, 28991, Note_off_c, 0, 63, 64
1, 29051, Note_on_c, 0, 70, 36
1, 29130, Note_off_c, 0, 70, 64
1, 29180, Note_on_c, 0, 63, 43
1, 29238, Note_off_c, 0, 63, 64
1, 29264, Note_on_c, 0, 61, 23
1, 29316, Note_off_c, 0, 61, 64
1, 29466, Note_on_c, 0, 52, 57
1, 29592, Control_c, 0, 64, 0
1, 29637, Note_on_c, 0, 57, 35
1, 29676, Note_on_c, 0, 73, 62
1, 29717, Note_off_c, 0, 75, 64
1, 29732, Note_off_c, 0, 52, 64
1, 29735, Control_c, 0, 64, 127
1, 29760, Note_on_c, 0, 61, 38
1, 29770, Note_off_c, 0, 57, 64
1, 29821, Note_off_c, 0, 61, 64
1, 29879, Note_on_c, 0, 68, 33
1, 29890, Note_on_c, 0, 76, 66
1, 29949, Note_off_c, 0, 73, 64
1, 29966, Note_off_c, 0, 68, 64
1, 30023, Note_on_c, 0, 61, 46
1, 30086, Note_on_c, 0, 80, 55
1, 30105, Note_off_c, 0, 61, 64
1, 30129, Note_off_c, 0, 76, 64
1, 30158, Note_on_c, 0, 57, 9
1, 30232, Note_off_c, 0, 57, 64
1, 30264, Note_on_c, 0, 71, 65
1, 30271, Note_on_c, 0, 51, 31
1, 30286, Control_c, 0, 64, 0
1, 30289, Note_off_c, 0, 80, 64
1, 30409, Note_on_c, 0, 57, 43
1, 30491, Control_c, 0, 64, 127
1, 30528, Note_off_c, 0, 57, 64
1, 30531, Note_off_c, 0, 51, 64
1, 30536, Note_on_c, 0, 59, 27
1, 30592, Note_off_c, 0, 59, 64
1, 30637, Note_on_c, 0, 66, 33
1, 30707, Note_off_c, 0, 66, 64
1, 30763, Note_on_c, 0, 59, 22
1, 30860, Note_on_c, 0, 57, 33
1, 30868, Note_off_c, 0, 59, 64
1, 30905, Note_off_c, 0, 57, 64
1, 31074, Note_on_c, 0, 49, 43
1, 31255, Note_on_c, 0, 54, 35
1, 31289, Note_on_c, 0, 69, 36
1, 31327, Note_off_c, 0, 71, 64
1, 31400, Note_on_c, 0, 57, 22
1, 31437, Control_c, 0, 64, 0
1, 31494, Note_on_c, 0, 73, 47
1, 31498, Note_off_c, 0, 57, 64
1, 31498, Note_off_c, 0, 54, 64
1, 31522, Note_on_c, 0, 64, 38
1, 31665, Control_c, 0, 64, 127
1, 31671, Note_off_c, 0, 64, 64
1, 31690, Note_on_c, 0, 57, 29
1, 31721, Note_off_c, 0, 69, 64
1, 31721, Note_on_c, 0, 76, 35
1, 31728, Note_off_c, 0, 73, 64
1, 31770, Note_off_c, 0, 57, 64
1, 31826, Note_on_c, 0, 54, 46
1, 31885, Note_off_c, 0, 54, 64
1, 31885, Note_off_c, 0, 49, 64
1, 32002, Note_on_c, 0, 68, 32
1, 32013, Control_c, 0, 64, 0
1, 32022, Note_on_c, 0, 48, 34
1, 32077, Note_off_c, 0, 76, 64
1, 32194, Note_on_c, 0, 54, 38
1, 32241, Control_c, 0, 64, 127
1, 32263, Note_off_c, 0, 48, 64
1, 32317, Note_on_c, 0, 56, 39
1, 32348, Note_off_c, 0, 54, 64
1, 32381, Note_off_c, 0, 56, 64
1, 32412, Note_on_c, 0, 63, 45
1, 32525, Note_off_c, 0, 63, 64
1, 32553, Note_on_c, 0, 56, 53
1, 32651, Note_off_c, 0, 56, 64
1, 32651, Note_on_c, 0, 54, 51
1, 32709, Note_off_c, 0, 68, 64
1, 32738, Note_off_c, 0, 54, 64
1, 32757, Note_on_c, 0, 49, 53
1, 32791, Control_c, 0, 64, 0
1, 32893, Note_on_c, 0, 69, 58
1, 32924, Note_on_c, 0, 54, 41
1, 33007, Control_c, 0, 64, 127
1, 33065, Note_on_c, 0, 73, 73
1, 33086, Note_off_c, 0, 69, 64
1, 33096, Note_on_c, 0, 57, 30
1, 33096, Note_off_c, 0, 54, 64
1, 33144, Note_off_c, 0, 49, 64
1, 33186, Note_off_c, 0, 57, 64
1, 33235, Note_on_c, 0, 76, 71
1, 33258, Note_on_c, 0, 64, 37
1, 33275, Note_off_c, 0, 73, 64
1, 33320, Note_off_c, 0, 64, 64
1, 33398, Note_on_c, 0, 80, 61
1, 33423, Note_off_c, 0, 76, 64
1, 33426, Note_on_c, 0, 57, 19
1, 33562, Note_off_c, 0, 57, 64
1, 33567, Note_on_c, 0, 78, 56
1, 33582, Note_on_c, 0, 54, 20
1, 33596, Note_off_c, 0, 80, 64
1, 33651, Note_off_c, 0, 54, 64
1, 33777, Note_on_c, 0, 75, 46
1, 33790, Note_on_c, 0, 48, 29
1, 33810, Control_c, 0, 64, 0
1, 33827, Note_off_c, 0, 78, 64
1, 33965, Note_on_c, 0, 54, 38
1, 34038, Control_c, 0, 64, 127
1, 34038, Note_off_c, 0, 48, 64
1, 34130, Note_on_c, 0, 56, 28
1, 34139, Note_off_c, 0, 54, 64
1, 34194, Note_off_c, 0, 56, 64
1, 34289, Note_on_c, 0, 63, 29
1, 34344, Note_on_c, 0, 68, 31
1, 34412, Note_off_c, 0, 63, 64
1, 34486, Note_on_c, 0, 56, 32
1, 34529, Note_off_c, 0, 75, 64
1, 34598, Note_off_c, 0, 56, 64
1, 34614, Note_on_c, 0, 54, 36
1, 34729, Note_off_c, 0, 54, 64
1, 34751, Note_on_c, 0, 47, 31
1, 34765, Note_off_c, 0, 68, 64
1, 34770, Control_c, 0, 64, 0
1, 34910, Note_on_c, 0, 54, 48
1, 34924, Note_off_c, 0, 47, 64
1, 34937, Control_c, 0, 64, 127
1, 34952, Note_on_c, 0, 66, 46
1, 35039, Note_on_c, 0, 57, 32
1, 35043, Note_off_c, 0, 54, 64
1, 35141, Note_off_c, 0, 57, 64
1, 35160, Note_on_c, 0, 69, 63
1, 35197, Note_on_c, 0, 62, 36
1, 35225, Note_off_c, 0, 66, 64
1, 35266, Note_off_c, 0, 62, 64
1, 35334, Note_on_c, 0, 57, 17
1, 35375, Note_on_c, 0, 73, 54
1, 35398, Note_off_c, 0, 57, 64
1, 35406, Note_on_c, 0, 54, 57
1, 35423, Note_off_c, 0, 69, 64
1, 35445, Note_off_c, 0, 54, 64
1, 35589, Note_on_c, 0, 47, 38
1, 35589, Note_on_c, 0, 64, 65
1, 35596, Control_c, 0, 64, 0
1, 35623, Note_off_c, 0, 73, 64
1, 35745, Note_on_c, 0, 52, 44
1, 35809, Note_off_c, 0, 47, 64
1, 35815, Note_off_c, 0, 52, 64
1, 35824, Control_c, 0, 64, 127
1, 35838, Note_on_c, 0, 56, 29
1, 35950, Note_off_c, 0, 56, 64
1, 35996, Note_on_c, 0, 62, 37
1, 36055, Note_off_c, 0, 62, 64
1, 36117, Note_on_c, 0, 56, 36
1, 36180, Note_off_c, 0, 56, 64
1, 36228, Note_on_c, 0, 52, 32
1, 36270, Note_off_c, 0, 64, 64
1, 36298, Note_off_c, 0, 52, 64
1, 36345, Note_on_c, 0, 47, 39
1, 36423, Control_c, 0, 64, 0
1, 36500, Note_on_c, 0, 66, 50
1, 36521, Note_on_c, 0, 54, 43
1, 36560, Note_off_c, 0, 47, 64
1, 36590, Control_c, 0, 64, 127
1, 36660, Note_on_c, 0, 69, 59
1, 36684, Note_on_c, 0, 57, 35
1, 36695, Note_off_c, 0, 54, 64
1, 36699, Note_off_c, 0, 66, 64
1, 36759, Note_off_c, 0, 57, 64
1, 36804, Note_on_c, 0, 73, 66
1, 36827, Note_off_c, 0, 69, 64
1, 36827, Note_on_c, 0, 62, 43
1, 36888, Note_off_c, 0, 62, 64
1, 36941, Note_on_c, 0, 76, 68
1, 36964, Note_on_c, 0, 57, 20
1, 36977, Note_off_c, 0, 73, 64
1, 37028, Note_off_c, 0, 57, 64
1, 37039, Note_on_c, 0, 54, 56
1, 37058, Note_on_c, 0, 74, 77
1, 37078, Note_off_c, 0, 54, 64
1, 37088, Note_off_c, 0, 76, 64
1, 37184, Note_on_c, 0, 68, 72
1, 37189, Control_c, 0, 64, 0
1, 37189, Note_off_c, 0, 74, 64
1, 37211, Note_on_c, 0, 47, 39
1, 37301, Note_on_c, 0, 52, 41
1, 37376, Note_off_c, 0, 47, 64
1, 37383, Control_c, 0, 64, 127
1, 37404, Note_on_c, 0, 56, 34
1, 37418, Note_off_c, 0, 52, 64
1, 37525, Note_off_c, 0, 56, 64
1, 37525, Note_on_c, 0, 66, 62
1, 37570, Note_on_c, 0, 62, 22
1, 37609, Note_off_c, 0, 68, 64
1, 37631, Note_off_c, 0, 62, 64
1, 37662, Note_on_c, 0, 56, 28
1, 37720, Note_off_c, 0, 56, 64
1, 37749, Note_on_c, 0, 52, 36
1, 37798, Note_off_c, 0, 52, 64
1, 37911, Note_on_c, 0, 40, 58
1, 37921, Control_c, 0, 64, 0
1, 38064, Note_on_c, 0, 47, 41
1, 38113, Control_c, 0, 64, 127
1, 38124, Note_off_c, 0, 40, 64
1, 38142, Note_off_c, 0, 47, 64
1, 38200, Note_on_c, 0, 52, 43
1, 38286, Note_off_c, 0, 52, 64
1, 38320, Note_on_c, 0, 54, 51
1, 38356, Note_on_c, 0, 62, 67
1, 38401, Note_off_c, 0, 66, 64
1, 38473, Note_on_c, 0, 56, 36
1, 38484, Note_off_c, 0, 54, 64
1, 38540, Note_off_c, 0, 56, 64
1, 38646, Note_on_c, 0, 59, 32
1, 38690, Note_off_c, 0, 59, 64
1, 38868, Note_on_c, 0, 33, 47
1, 38877, Note_on_c, 0, 61, 58
1, 38904, Control_c, 0, 64, 0
1, 38922, Note_off_c, 0, 62, 64
1, 39105, Note_on_c, 0, 45, 31
1, 39247, Note_on_c, 0, 52, 51
1, 39336, Control_c, 0, 64, 127
1, 39381, Note_off_c, 0, 52, 64
1, 39381, Note_on_c, 0, 55, 46
1, 39501, Note_on_c, 0, 57, 37
1, 39517, Note_off_c, 0, 55, 64
1, 39573, Note_off_c, 0, 57, 64
1, 39601, Note_on_c, 0, 59, 52
1, 39702, Note_on_c, 0, 57, 41
1, 39718, Note_off_c, 0, 59, 64
1, 39811, Note_on_c, 0, 52, 54
1, 39821, Note_off_c, 0, 57, 64
1, 39921, Note_off_c, 0, 52, 64
1, 39928, Note_on_c, 0, 55, 42
1, 40022, Note_on_c, 0, 57, 44
1, 40036, Note_off_c, 0, 55, 64
1, 40133, Note_off_c, 0, 57, 64
1, 40133, Note_on_c, 0, 59, 48
1, 40247, Note_on_c, 0, 57, 34
1, 40256, Note_off_c, 0, 59, 64
1, 40429, Note_on_c, 0, 55, 48
1, 40450, Note_off_c, 0, 57, 64
1, 40498, Control_c, 0, 64, 0
1, 40665, Control_c, 0, 64, 127
1, 40677, Note_off_c, 0, 61, 64
1, 40841, Note_on_c, 0, 61, 55
1, 41217, Note_on_c, 0, 64, 61
1, 41272, Note_off_c, 0, 61, 64
1, 41367, Note_off_c, 0, 33, 64
1, 41499, Note_off_c, 0, 45, 64
1, 41585, Note_on_c, 0, 61, 62
1, 41655, Note_off_c, 0, 55, 64
1, 41705, Note_off_c, 0, 64, 64
1, 41961, Note_on_c, 0, 38, 36
1, 41967, Note_on_c, 0, 66, 38
1, 41995, Control_c, 0, 64, 0
1, 42049, Note_off_c, 0, 61, 64
1, 42248, Note_on_c, 0, 45, 34
1, 42259, Control_c, 0, 64, 127
1, 42332, Note_off_c, 0, 38, 64
1, 42499, Note_on_c, 0, 54, 34
1, 42512, Note_on_c, 0, 57, 28
1, 42641, Note_off_c, 0, 57, 64
1, 42663, Note_on_c, 0, 59, 38
1, 42752, Note_off_c, 0, 59, 64
1, 42765, Note_on_c, 0, 61, 49
1, 42886, Note_off_c, 0, 61, 64
1, 42886, Note_on_c, 0, 59, 46
1, 42992, Note_off_c, 0, 59, 64
1, 42997, Note_on_c, 0, 57, 48
1, 43033, Note_off_c, 0, 54, 64
1, 43105, Note_off_c, 0, 57, 64
1, 43122, Note_on_c, 0, 59, 43
1, 43169, Note_off_c, 0, 45, 64
1, 43209, Note_off_c, 0, 59, 64
1, 43212, Note_on_c, 0, 61, 53
1, 43340, Note_off_c, 0, 61, 64
1, 43340, Note_on_c, 0, 59, 54
1, 43445, Note_on_c, 0, 57, 51
1, 43453, Note_off_c, 0, 59, 64
1, 43541, Note_off_c, 0, 57, 64
1, 43541, Control_c, 0, 64, 0
1, 43541, Note_on_c, 0, 35, 47
1, 43568, Note_on_c, 0, 61, 59
1, 43716, Note_off_c, 0, 35, 64
1, 43733, Control_c, 0, 64, 127
1, 43754, Note_on_c, 0, 47, 42
1, 43758, Note_off_c, 0, 66, 64
1, 43796, Note_off_c, 0, 47, 64
1, 43891, Note_on_c, 0, 54, 52
1, 43900, Note_on_c, 0, 66, 57
1, 44042, Note_off_c, 0, 61, 64
1, 44059, Note_on_c, 0, 57, 39
1, 44233, Note_on_c, 0, 63, 55
1, 44236, Note_on_c, 0, 69, 60
1, 44265, Note_off_c, 0, 57, 64
1, 44268, Note_on_c, 0, 59, 47
1, 44286, Note_off_c, 0, 66, 64
1, 44398, Note_off_c, 0, 59, 64
1, 44485, Note_off_c, 0, 54, 64
1, 44568, Note_on_c, 0, 66, 67
1, 44649, Note_off_c, 0, 69, 64
1, 44872, Note_on_c, 0, 32, 59
1, 44883, Note_on_c, 0, 71, 65
1, 44908, Control_c, 0, 64, 0
1, 44927, Note_off_c, 0, 66, 64
1, 45041, Note_on_c, 0, 44, 69
1, 45052, Note_off_c, 0, 32, 64
1, 45062, Control_c, 0, 64, 127
1, 45073, Note_off_c, 0, 44, 64
1, 45198, Note_on_c, 0, 68, 70
1, 45203, Note_on_c, 0, 52, 71
1, 45251, Note_off_c, 0, 71, 64
1, 45346, Note_on_c, 0, 56, 72
1, 45443, Note_off_c, 0, 63, 64
1, 45484, Note_off_c, 0, 56, 64
1, 45520, Note_on_c, 0, 71, 91
1, 45520, Note_on_c, 0, 64, 73
1, 45534, Note_on_c, 0, 59, 69
1, 45562, Note_off_c, 0, 52, 64
1, 45579, Note_off_c, 0, 68, 64
1, 45694, Note_off_c, 0, 59, 64
1, 45810, Note_on_c, 0, 68, 78
1, 45866, Note_off_c, 0, 71, 64
1, 46131, Control_c, 0, 64, 0
1, 46139, Note_on_c, 0, 30, 71
1, 46139, Note_on_c, 0, 73, 78
1, 46147, Note_on_c, 0, 69, 60
1, 46193, Note_off_c, 0, 68, 64
1, 46279, Note_off_c, 0, 30, 64
1, 46284, Note_on_c, 0, 42, 59
1, 46315, Note_off_c, 0, 42, 64
1, 46321, Control_c, 0, 64, 127
1, 46454, Note_on_c, 0, 49, 55
1, 46580, Note_on_c, 0, 52, 64
1, 46593, Note_off_c, 0, 49, 64
1, 46666, Note_on_c, 0, 54, 69
1, 46674, Note_off_c, 0, 52, 64
1, 46705, Note_off_c, 0, 69, 64
1, 46727, Note_off_c, 0, 54, 64
1, 46757, Note_on_c, 0, 57, 52
1, 46783, Note_off_c, 0, 64, 64
1, 46813, Note_off_c, 0, 57, 64
1, 46836, Note_on_c, 0, 61, 82
1, 46920, Note_off_c, 0, 61, 64
1, 46933, Note_on_c, 0, 64, 78
1, 47011, Note_on_c, 0, 66, 72
1, 47053, Note_off_c, 0, 64, 64
1, 47100, Note_on_c, 0, 69, 69
1, 47137, Note_off_c, 0, 66, 64
1, 47209, Note_on_c, 0, 68, 70
1, 47299, Note_off_c, 0, 69, 64
1, 47299, Note_on_c, 0, 61, 4
1, 47306, Note_on_c, 0, 66, 68
1, 47357, Note_off_c, 0, 68, 64
1, 47393, Note_off_c, 0, 61, 64
1, 47413, Note_off_c, 0, 66, 64
1, 47424, Note_on_c, 0, 64, 82
1, 47722, Note_on_c, 0, 66, 45
1, 47728, Note_on_c, 0, 69, 70
1, 47777, Note_off_c, 0, 73, 64
1, 48019, Note_off_c, 0, 64, 64
1, 48022, Note_off_c, 0, 66, 64
1, 48081, Note_on_c, 0, 71, 81
1, 48086, Note_on_c, 0, 68, 52
1, 48090, Note_on_c, 0, 63, 51
1, 48131, Note_off_c, 0, 69, 64
1, 48298, Note_off_c, 0, 63, 64
1, 48362, Note_off_c, 0, 68, 64
1, 48401, Note_on_c, 0, 73, 69
1, 48407, Note_on_c, 0, 69, 52
1, 48412, Note_on_c, 0, 61, 38
1, 48434, Note_off_c, 0, 71, 64
1, 48465, Note_off_c, 0, 61, 64
1, 48513, Note_off_c, 0, 69, 64
1, 48591, Note_off_c, 0, 73, 64
1, 48702, Note_on_c, 0, 30, 55
1, 48755, Note_on_c, 0, 73, 62
1, 48761, Note_on_c, 0, 69, 43
1, 48778, Control_c, 0, 64, 0
1, 48892, Note_off_c, 0, 30, 64
1, 48898, Note_on_c, 0, 42, 50
1, 48933, Note_off_c, 0, 42, 64
1, 48933, Control_c, 0, 64, 127
1, 49048, Note_on_c, 0, 49, 60
1, 49175, Note_on_c, 0, 52, 77
1, 49184, Note_off_c, 0, 49, 64
1, 49229, Note_off_c, 0, 69, 64
1, 49278, Note_on_c, 0, 54, 73
1, 49278, Note_off_c, 0, 52, 64
1, 49366, Note_off_c, 0, 54, 64
1, 49382, Note_on_c, 0, 57, 54
1, 49430, Note_off_c, 0, 57, 64
1, 49462, Note_on_c, 0, 61, 79
1, 49512, Note_off_c, 0, 61, 64
1, 49563, Note_on_c, 0, 64, 71
1, 49643, Note_on_c, 0, 66, 66
1, 49672, Note_off_c, 0, 64, 64
1, 49746, Note_on_c, 0, 69, 71
1, 49774, Note_off_c, 0, 66, 64
1, 49853, Note_on_c, 0, 68, 67
1, 49933, Note_off_c, 0, 69, 64
1, 49958, Note_on_c, 0, 66, 66
1, 49997, Note_off_c, 0, 68, 64
1, 50073, Note_off_c, 0, 66, 64
1, 50079, Note_on_c, 0, 64, 80
1, 50150, Note_off_c, 0, 73, 64
1, 50377, Note_on_c, 0, 69, 64
1, 50384, Note_on_c, 0, 66, 49
1, 50390, Note_off_c, 0, 64, 64
1, 50479, Note_on_c, 0, 61, 52
1, 50513, Note_off_c, 0, 66, 64
1, 50558, Note_off_c, 0, 61, 64
1, 50582, Note_on_c, 0, 64, 50
1, 50610, Note_off_c, 0, 69, 64
1, 50621, Note_off_c, 0, 64, 64
1, 50688, Note_on_c, 0, 71, 84
1, 50692, Note_on_c, 0, 68, 61
1, 50697, Note_on_c, 0, 54, 75
1, 50794, Note_on_c, 0, 63, 56
1, 50820, Note_off_c, 0, 71, 64
1, 50820, Note_off_c, 0, 68, 64
1, 50891, Note_off_c, 0, 63, 64
1, 50895, Note_on_c, 0, 66, 28
1, 50950, Note_off_c, 0, 66, 64
1, 50964, Note_on_c, 0, 73, 80
1, 50972, Note_on_c, 0, 69, 62
1, 50983, Note_off_c, 0, 54, 64
1, 51065, Note_on_c, 0, 64, 67
1, 51075, Note_off_c, 0, 69, 64
1, 51134, Note_off_c, 0, 73, 64
1, 51145, Note_on_c, 0, 68, 57
1, 51151, Note_off_c, 0, 64, 64
1, 51193, Note_off_c, 0, 68, 64
1, 51281, Note_on_c, 0, 75, 78
1, 51281, Note_on_c, 0, 71, 79
1, 51288, Note_on_c, 0, 47, 55
1, 51307, Control_c, 0, 64, 0
1, 51387, Note_on_c, 0, 66, 41
1, 51460, Note_off_c, 0, 71, 64
1, 51476, Control_c, 0, 64, 127
1, 51476, Note_off_c, 0, 47, 64
1, 51480, Note_on_c, 0, 69, 38
1, 51496, Note_off_c, 0, 66, 64
1, 51502, Note_off_c, 0, 75, 64
1, 51529, Note_off_c, 0, 69, 64
1, 51596, Note_on_c, 0, 76, 79
1, 51600, Note_on_c, 0, 73, 58
1, 51607, Note_on_c, 0, 54, 65
1, 51663, Note_off_c, 0, 54, 64
1, 51678, Note_on_c, 0, 68, 39
1, 51760, Note_off_c, 0, 76, 64
1, 51769, Note_on_c, 0, 71, 52
1, 51788, Note_off_c, 0, 68, 64
1, 51795, Note_off_c, 0, 73, 64
1, 51809, Note_off_c, 0, 71, 64
1, 51869, Note_on_c, 0, 78, 79
1, 51877, Note_on_c, 0, 75, 64
1, 51886, Note_on_c, 0, 57, 50
1, 51964, Note_on_c, 0, 69, 44
1, 51972, Note_off_c, 0, 75, 64
1, 52001, Note_off_c, 0, 57, 64
1, 52050, Note_off_c, 0, 78, 64
1, 52056, Note_on_c, 0, 73, 47
1, 52068, Note_off_c, 0, 69, 64
1, 52096, Note_off_c, 0, 73, 64
1, 52145, Note_on_c, 0, 80, 83
1, 52157, Note_on_c, 0, 59, 60
1, 52160, Note_on_c, 0, 76, 59
1, 52245, Note_on_c, 0, 71, 56
1, 52245, Note_off_c, 0, 59, 64
1, 52271, Note_off_c, 0, 76, 64
1, 52313, Note_on_c, 0, 75, 60
1, 52324, Note_off_c, 0, 71, 64
1, 52335, Note_off_c, 0, 80, 64
1, 52348, Note_off_c, 0, 75, 64
1, 52424, Note_on_c, 0, 81, 89
1, 52432, Note_on_c, 0, 63, 69
1, 52432, Note_on_c, 0, 78, 67
1, 52482, Note_off_c, 0, 63, 64
1, 52505, Note_on_c, 0, 73, 56
1, 52596, Note_off_c, 0, 78, 64
1, 52605, Note_on_c, 0, 76, 44
1, 52610, Note_off_c, 0, 73, 64
1, 52616, Note_off_c, 0, 81, 64
1, 52642, Note_off_c, 0, 76, 64
1, 52710, Note_on_c, 0, 83, 111
1, 52714, Note_on_c, 0, 66, 52
1, 52719, Note_on_c, 0, 80, 70
1, 52803, Note_on_c, 0, 75, 61
1, 52838, Note_off_c, 0, 80, 64
1, 52852, Note_off_c, 0, 66, 64
1, 52876, Note_off_c, 0, 83, 64
1, 52906, Note_off_c, 0, 75, 64
1, 52911, Note_on_c, 0, 78, 48
1, 52961, Note_off_c, 0, 78, 64
1, 53028, Note_on_c, 0, 85, 86
1, 53034, Note_on_c, 0, 81, 69
1, 53034, Note_on_c, 0, 69, 44
1, 53118, Note_off_c, 0, 81, 64
1, 53129, Note_off_c, 0, 69, 64
1, 53153, Note_on_c, 0, 76, 33
1, 53271, Note_off_c, 0, 76, 64
1, 53274, Note_on_c, 0, 80, 44
1, 53329, Note_off_c, 0, 85, 64
1, 53332, Note_off_c, 0, 80, 64
1, 53438, Note_on_c, 0, 87, 62
1, 53438, Note_on_c, 0, 83, 76
1, 53446, Note_on_c, 0, 71, 39
1, 53504, Note_off_c, 0, 71, 64
1, 53580, Note_on_c, 0, 78, 40
1, 53610, Note_off_c, 0, 83, 64
1, 53711, Note_off_c, 0, 78, 64
1, 53742, Note_on_c, 0, 81, 38
1, 53847, Note_off_c, 0, 81, 64
1, 53883, Note_off_c, 0, 87, 64
1, 54037, Note_on_c, 0, 90, 65
1, 54048, Note_on_c, 0, 80, 38
1, 54048, Note_on_c, 0, 28, 29
1, 54054, Note_on_c, 0, 83, 54
1, 54112, Control_c, 0, 64, 0
1, 54383, Note_off_c, 0, 28, 64
1, 54394, Note_on_c, 0, 40, 48
1, 54424, Control_c, 0, 64, 127
1, 54435, Note_off_c, 0, 40, 64
1, 54705, Note_on_c, 0, 47, 42
1, 54892, Note_off_c, 0, 47, 64
1, 54940, Note_on_c, 0, 52, 35
1, 55117, Note_off_c, 0, 52, 64
1, 55182, Note_on_c, 0, 56, 30
1, 55224, Note_on_c, 0, 88, 44
1, 55301, Note_off_c, 0, 90, 64
1, 55318, Note_off_c, 0, 56, 64
1, 55447, Note_on_c, 0, 59, 24
1, 55499, Note_off_c, 0, 59, 64
1, 55627, Note_off_c, 0, 83, 64
1, 55709, Note_on_c, 0, 64, 27
1, 55741, Note_off_c, 0, 80, 64
1, 55777, Note_off_c, 0, 88, 64
1, 55889, Note_off_c, 0, 64, 64
1, 55959, Note_on_c, 0, 68, 31
1, 56207, Note_off_c, 0, 68, 64
1, 56226, Note_on_c, 0, 76, 47
1, 57305, Note_on_c, 0, 64, 22
1, 57731, Control_c, 0, 64, 0
1, 58138, Control_c, 0, 64, 127
1, 58494, Note_off_c, 0, 64, 64
1, 58546, Note_on_c, 0, 69, 21
1, 58556, Note_on_c, 0, 66, 8
1, 58560, Note_on_c, 0, 59, 16
1, 58929, Note_on_c, 0, 74, 37
1, 58951, Note_off_c, 0, 76, 64
1, 59037, Note_on_c, 0, 61, 19
1, 59045, Note_off_c, 0, 59, 64
1, 59157, Control_c, 0, 64, 0
1, 59157, Note_on_c, 0, 76, 41
1, 59196, Note_off_c, 0, 74, 64
1, 59301, Control_c, 0, 64, 127
1, 59425, Note_on_c, 0, 73, 36
1, 59436, Note_off_c, 0, 61, 64
1, 59469, Note_on_c, 0, 62, 14
1, 59516, Note_off_c, 0, 76, 64
1, 59673, Control_c, 0, 64, 0
1, 59876, Control_c, 0, 64, 127
1, 60059, Note_off_c, 0, 62, 64
1, 60076, Note_off_c, 0, 66, 64
1, 60145, Note_off_c, 0, 73, 64
1, 60157, Note_on_c, 0, 71, 42
1, 60268, Note_off_c, 0, 69, 64
1, 60294, Note_off_c, 0, 71, 64
1, 60466, Note_on_c, 0, 71, 55
1, 60466, Note_on_c, 0, 68, 33
1, 60486, Note_on_c, 0, 62, 21
1, 60491, Note_on_c, 0, 52, 29
1, 60511, Control_c, 0, 64, 0
1, 60680, Control_c, 0, 64, 127
1, 60687, Note_off_c, 0, 62, 64
1, 60726, Note_on_c, 0, 73, 53
1, 60730, Note_off_c, 0, 71, 64
1, 60730, Note_off_c, 0, 52, 64
1, 60747, Note_off_c, 0, 68, 64
1, 60968, Note_on_c, 0, 61, 18
1, 60968, Note_on_c, 0, 66, 26
1, 60971, Note_on_c, 0, 69, 43
1, 60974, Note_off_c, 0, 73, 64
1, 60974, Note_on_c, 0, 54, 26
1, 60979, Control_c, 0, 64, 0
1, 61159, Control_c, 0, 64, 127
1, 61173, Note_off_c, 0, 61, 64
1, 61190, Note_off_c, 0, 54, 64
1, 61213, Note_off_c, 0, 69, 64
1, 61232, Note_off_c, 0, 66, 64
1, 61442, Note_on_c, 0, 66, 29
1, 61447, Note_on_c, 0, 63, 32
1, 61452, Note_on_c, 0, 47, 10
1, 61452, Note_on_c, 0, 57, 16
1, 61566, Control_c, 0, 64, 0
1, 61890, Control_c, 0, 64, 127
1, 62290, Note_off_c, 0, 66, 64
1, 62435, Note_off_c, 0, 63, 64
1, 62480, Note_on_c, 0, 68, 29
1, 62483, Note_off_c, 0, 57, 64
1, 62549, Note_off_c, 0, 47, 64
1, 62734, Note_off_c, 0, 68, 64
1, 62929, Note_on_c, 0, 66, 27
1, 62937, Note_on_c, 0, 62, 18
1, 62937, Note_on_c, 0, 56, 17
1, 62937, Note_on_c, 0, 47, 19
1, 62940, Note_on_c, 0, 40, 26
1, 62945, Control_c, 0, 64, 0
1, 63101, Note_off_c, 0, 56, 64
1, 63101, Note_off_c, 0, 40, 64
1, 63101, Note_off_c, 0, 47, 64
1, 63113, Control_c, 0, 64, 127
1, 63152, Note_off_c, 0, 62, 64
1, 63215, Note_off_c, 0, 66, 64
1, 63230, Note_on_c, 0, 64, 39
1, 63288, Note_off_c, 0, 64, 64
1, 63640, Note_on_c, 0, 78, 59
1, 63653, Note_on_c, 0, 74, 32
1, 63653, Note_on_c, 0, 56, 18
1, 63653, Note_on_c, 0, 66, 19
1, 63658, Note_on_c, 0, 71, 31
1, 63658, Note_on_c, 0, 62, 25
1, 64357, Note_off_c, 0, 66, 64
1, 64566, Note_off_c, 0, 74, 64
1, 64592, Note_off_c, 0, 71, 64
1, 64606, Note_off_c, 0, 62, 64
1, 64639, Note_off_c, 0, 78, 64
1, 64642, Note_on_c, 0, 76, 31
1, 64651, Note_on_c, 0, 64, 22
1, 64700, Note_off_c, 0, 64, 64
1, 64703, Note_off_c, 0, 76, 64
1, 64723, Note_off_c, 0, 56, 64
1, 65280, Note_on_c, 0, 66, 33
1, 65288, Note_on_c, 0, 57, 29
1, 65288, Note_on_c, 0, 61, 32
1, 65291, Note_on_c, 0, 52, 34
1, 65291, Note_on_c, 0, 45, 24
1, 65317, Control_c, 0, 64, 0
1, 65461, Note_off_c, 0, 57, 64
1, 65472, Note_off_c, 0, 52, 64
1, 65486, Control_c, 0, 64, 127
1, 65486, Note_off_c, 0, 45, 64
1, 65537, Note_off_c, 0, 61, 64
1, 65561, Note_on_c, 0, 64, 61
1, 65570, Note_off_c, 0, 66, 64
1, 65594, Note_off_c, 0, 64, 64
1, 65888, Note_on_c, 0, 80, 69
1, 65907, Note_on_c, 0, 57, 21
1, 65907, Note_on_c, 0, 61, 18
1, 65910, Note_on_c, 0, 64, 28
1, 65910, Note_on_c, 0, 52, 33
1, 65910, Note_on_c, 0, 69, 17
1, 65910, Note_on_c, 0, 73, 24
1, 66073, Control_c, 0, 64, 0
1, 66252, Control_c, 0, 64, 127
1, 66356, Note_off_c, 0, 69, 64
1, 66444, Note_off_c, 0, 73, 64
1, 66489, Note_off_c, 0, 80, 64
1, 66812, Note_on_c, 0, 83, 88
1, 67282, Note_on_c, 0, 81, 59
1, 67319, Note_off_c, 0, 83, 64
1, 67511, Control_c, 0, 64, 0
1, 67631, Control_c, 0, 64, 127
1, 67687, Note_off_c, 0, 52, 64
1, 67692, Note_off_c, 0, 57, 64
1, 67707, Note_off_c, 0, 81, 64
1, 67707, Note_off_c, 0, 64, 64
1, 67715, Note_on_c, 0, 78, 54
1, 67762, Note_off_c, 0, 61, 64
1, 67815, Note_off_c, 0, 78, 64
1, 68038, Note_on_c, 0, 76, 50
1, 68051, Note_on_c, 0, 69, 26
1, 68051, Note_on_c, 0, 59, 23
1, 68054, Note_on_c, 0, 66, 19
1, 68122, Control_c, 0, 64, 0
1, 68238, Note_on_c, 0, 74, 59
1, 68274, Note_off_c, 0, 76, 64
1, 68289, Control_c, 0, 64, 127
1, 68336, Note_on_c, 0, 61, 38
1, 68361, Note_off_c, 0, 59, 64
1, 68405, Note_on_c, 0, 76, 61
1, 68428, Note_off_c, 0, 74, 64
1, 68601, Control_c, 0, 64, 0
1, 68614, Note_on_c, 0, 73, 54
1, 68617, Note_off_c, 0, 61, 64
1, 68644, Note_off_c, 0, 76, 64
1, 68662, Note_on_c, 0, 62, 32
1, 69154, Control_c, 0, 64, 127
1, 69271, Note_on_c, 0, 71, 63
1, 69297, Note_off_c, 0, 73, 64
1, 69386, Note_off_c, 0, 66, 64
1, 69386, Note_off_c, 0, 71, 64
1, 69539, Note_off_c, 0, 69, 64
1, 69543, Note_on_c, 0, 71, 57
1, 69548, Control_c, 0, 64, 0
1, 69556, Note_on_c, 0, 68, 37
1, 69559, Note_on_c, 0, 65, 20
1, 69692, Control_c, 0, 64, 127
1, 69695, Note_off_c, 0, 65, 64
1, 69735, Note_off_c, 0, 71, 64
1, 69745, Note_off_c, 0, 62, 64
1, 69773, Note_on_c, 0, 73, 45
1, 69840, Note_off_c, 0, 68, 64
1, 69999, Note_on_c, 0, 69, 51
1, 70008, Note_off_c, 0, 73, 64
1, 70008, Note_on_c, 0, 64, 44
1, 70013, Note_on_c, 0, 61, 25
1, 70024, Note_on_c, 0, 54, 24
1, 70027, Control_c, 0, 64, 0
1, 70219, Control_c, 0, 64, 127
1, 70233, Note_off_c, 0, 61, 64
1, 70492, Note_off_c, 0, 54, 64
1, 70492, Note_on_c, 0, 66, 41
1, 70496, Note_on_c, 0, 57, 28
1, 70508, Note_on_c, 0, 47, 26
1, 70589, Note_off_c, 0, 69, 64
1, 70675, Control_c, 0, 64, 0
1, 70891, Control_c, 0, 64, 127
1, 70946, Note_on_c, 0, 63, 42
1, 70957, Note_off_c, 0, 64, 64
1, 70974, Control_c, 0, 64, 0
1, 71138, Note_off_c, 0, 66, 64
1, 71153, Control_c, 0, 64, 127
1, 71250, Note_on_c, 0, 66, 49
1, 71383, Note_off_c, 0, 66, 64
1, 71403, Note_off_c, 0, 63, 64
1, 71416, Note_off_c, 0, 57, 64
1, 71492, Note_off_c, 0, 47, 64
1, 71508, Note_on_c, 0, 61, 46
1, 71511, Note_on_c, 0, 66, 41
1, 71515, Note_on_c, 0, 51, 35
1, 71525, Note_on_c, 0, 45, 30
1, 71550, Control_c, 0, 64, 0
1, 71742, Control_c, 0, 64, 127
1, 71746, Note_on_c, 0, 68, 58
1, 71752, Note_off_c, 0, 66, 64
1, 71841, Note_off_c, 0, 51, 64
1, 71852, Note_off_c, 0, 61, 64
1, 71852, Note_off_c, 0, 68, 64
1, 71869, Note_off_c, 0, 45, 64
1, 71974, Note_on_c, 0, 66, 50
1, 71974, Note_on_c, 0, 44, 41
1, 71982, Control_c, 0, 64, 0
1, 71986, Note_on_c, 0, 59, 42
1, 71993, Note_on_c, 0, 52, 38
1, 72178, Note_on_c, 0, 64, 57
1, 72185, Control_c, 0, 64, 127
1, 72205, Note_off_c, 0, 59, 64
1, 72208, Note_off_c, 0, 66, 64
1, 72303, Note_off_c, 0, 52, 64
1, 72334, Note_off_c, 0, 64, 64
1, 72344, Note_on_c, 0, 59, 60
1, 72561, Note_on_c, 0, 61, 56
1, 72567, Note_on_c, 0, 42, 32
1, 72567, Control_c, 0, 64, 0
1, 72582, Note_on_c, 0, 57, 31
1, 72589, Note_on_c, 0, 52, 42
1, 72606, Note_off_c, 0, 44, 64
1, 72606, Note_off_c, 0, 59, 64
1, 73011, Control_c, 0, 64, 127
1, 73035, Note_off_c, 0, 52, 64
1, 73094, Note_off_c, 0, 42, 64
1, 73164, Note_off_c, 0, 61, 64
1, 73183, Note_off_c, 0, 57, 64
1, 73462, Note_on_c, 0, 57, 32
1, 73462, Note_on_c, 0, 64, 44
1, 73462, Note_on_c, 0, 61, 29
1, 73479, Note_on_c, 0, 35, 27
1, 73482, Note_on_c, 0, 47, 21
1, 73670, Note_off_c, 0, 47, 64
1, 73747, Note_off_c, 0, 64, 64
1, 73752, Note_off_c, 0, 57, 64
1, 73949, Note_on_c, 0, 57, 39
1, 73949, Note_on_c, 0, 64, 47
1, 73952, Note_on_c, 0, 59, 41
1, 73952, Note_on_c, 0, 40, 32
1, 73961, Note_on_c, 0, 47, 30
1, 73977, Note_off_c, 0, 35, 64
1, 73988, Note_off_c, 0, 61, 64
1, 74030, Control_c, 0, 64, 0
1, 74429, Note_on_c, 0, 56, 41
1, 74445, Note_off_c, 0, 57, 64
1, 74665, Control_c, 0, 64, 127
1, 74710, Note_off_c, 0, 40, 64
1, 74887, Note_off_c, 0, 47, 64
1, 74890, Note_on_c, 0, 40, 55
1, 75181, Control_c, 0, 64, 0
1, 75419, Note_off_c, 0, 40, 64
1, 75443, Note_on_c, 0, 52, 45
1, 75593, Note_off_c, 0, 64, 64
1, 75637, Control_c, 0, 64, 127
1, 75656, Note_off_c, 0, 59, 64
1, 75721, Note_off_c, 0, 56, 64
1, 75732, Note_off_c, 0, 52, 64
1, 76124, Note_on_c, 0, 50, 33
1, 76128, Control_c, 0, 64, 0
1, 76305, Note_on_c, 0, 54, 45
1, 76305, Control_c, 0, 64, 127
1, 76412, Note_off_c, 0, 50, 64
1, 76429, Note_on_c, 0, 57, 31
1, 76467, Note_off_c, 0, 54, 64
1, 76532, Note_on_c, 0, 42, 30
1, 76546, Note_on_c, 0, 61, 46
1, 76574, Note_off_c, 0, 57, 64
1, 76671, Note_off_c, 0, 61, 64
1, 76671, Note_on_c, 0, 59, 44
1, 76779, Note_on_c, 0, 57, 48
1, 76779, Note_off_c, 0, 59, 64
1, 76827, Note_off_c, 0, 57, 64
1, 76885, Note_on_c, 0, 56, 57
1, 77005, Note_on_c, 0, 59, 49
1, 77099, Note_on_c, 0, 62, 57
1, 77127, Note_off_c, 0, 56, 64
1, 77136, Note_off_c, 0, 59, 64
1, 77147, Control_c, 0, 64, 0
1, 77174, Note_off_c, 0, 42, 64
1, 77194, Note_on_c, 0, 66, 54
1, 77198, Note_on_c, 0, 40, 54
1, 77214, Note_off_c, 0, 62, 64
1, 77295, Note_on_c, 0, 64, 65
1, 77303, Control_c, 0, 64, 127
1, 77337, Note_off_c, 0, 40, 64
1, 77367, Note_off_c, 0, 66, 64
1, 77392, Note_on_c, 0, 62, 60
1, 77418, Note_off_c, 0, 64, 64
1, 77440, Note_off_c, 0, 62, 64
1, 77490, Note_on_c, 0, 61, 79
1, 77542, Control_c, 0, 64, 0
1, 77587, Note_on_c, 0, 64, 71
1, 77665, Note_off_c, 0, 61, 64
1, 77670, Note_on_c, 0, 68, 68
1, 77729, Note_off_c, 0, 64, 64
1, 77769, Note_on_c, 0, 45, 55
1, 77769, Note_on_c, 0, 71, 87
1, 77769, Note_on_c, 0, 33, 54
1, 77802, Note_off_c, 0, 68, 64
1, 77805, Control_c, 0, 64, 127
1, 77865, Note_on_c, 0, 69, 69
1, 77871, Note_off_c, 0, 45, 64
1, 77876, Note_off_c, 0, 33, 64
1, 77941, Note_off_c, 0, 71, 64
1, 77958, Note_on_c, 0, 68, 72
1, 77993, Note_off_c, 0, 69, 64
1, 78055, Note_on_c, 0, 66, 79
1, 78055, Note_off_c, 0, 68, 64
1, 78148, Note_on_c, 0, 69, 79
1, 78195, Note_off_c, 0, 66, 64
1, 78230, Note_on_c, 0, 73, 76
1, 78264, Note_off_c, 0, 69, 64
1, 78331, Note_on_c, 0, 76, 81
1, 78334, Note_on_c, 0, 50, 61
1, 78334, Note_on_c, 0, 38, 63
1, 78364, Note_off_c, 0, 73, 64
1, 78381, Control_c, 0, 64, 0
1, 78412, Note_on_c, 0, 74, 92
1, 78489, Note_off_c, 0, 50, 64
1, 78489, Note_off_c, 0, 38, 64
1, 78504, Note_on_c, 0, 73, 83
1, 78521, Note_off_c, 0, 76, 64
1, 78531, Control_c, 0, 64, 127
1, 78548, Note_off_c, 0, 74, 64
1, 78601, Note_on_c, 0, 71, 101
1, 78620, Note_off_c, 0, 73, 64
1, 78645, Control_c, 0, 64, 0
1, 78698, Note_on_c, 0, 74, 100
1, 78751, Note_off_c, 0, 71, 64
1, 78799, Note_on_c, 0, 78, 94
1, 78846, Note_off_c, 0, 74, 64
1, 78907, Note_on_c, 0, 35, 90
1, 78907, Note_on_c, 0, 81, 97
1, 78907, Note_on_c, 0, 47, 73
1, 78953, Note_off_c, 0, 78, 64
1, 78969, Note_off_c, 0, 35, 64
1, 78992, Note_off_c, 0, 47, 64
1, 79005, Control_c, 0, 64, 127
1, 79244, Note_on_c, 0, 74, 80
1, 79250, Note_on_c, 0, 71, 78
1, 79250, Note_on_c, 0, 54, 60
1, 79253, Note_on_c, 0, 66, 70
1, 79253, Note_on_c, 0, 59, 48
1, 79256, Note_on_c, 0, 62, 54
1, 79290, Note_off_c, 0, 81, 64
1, 79306, Note_off_c, 0, 59, 64
1, 79320, Note_off_c, 0, 62, 64
1, 79342, Note_off_c, 0, 66, 64
1, 79365, Note_off_c, 0, 54, 64
1, 79409, Note_on_c, 0, 80, 88
1, 79451, Note_off_c, 0, 71, 64
1, 79456, Note_off_c, 0, 74, 64
1, 79598, Note_on_c, 0, 68, 73
1, 79598, Note_on_c, 0, 78, 85
1, 79598, Note_on_c, 0, 74, 69
1, 79606, Note_on_c, 0, 52, 88
1, 79609, Note_on_c, 0, 40, 88
1, 79657, Note_off_c, 0, 80, 64
1, 79663, Control_c, 0, 64, 0
1, 79721, Note_off_c, 0, 52, 64
1, 79738, Note_off_c, 0, 74, 64
1, 79758, Note_off_c, 0, 40, 64
1, 79772, Note_on_c, 0, 76, 81
1, 79783, Control_c, 0, 64, 127
1, 79827, Note_off_c, 0, 78, 64
1, 79832, Note_off_c, 0, 68, 64
1, 79888, Note_off_c, 0, 76, 64
1, 79903, Control_c, 0, 64, 0
1, 79919, Note_on_c, 0, 78, 78
1, 79922, Note_on_c, 0, 69, 61
1, 79930, Note_on_c, 0, 33, 75
1, 79930, Note_on_c, 0, 45, 54
1, 79935, Note_on_c, 0, 73, 43
1, 79974, Note_off_c, 0, 33, 64
1, 80005, Note_off_c, 0, 73, 64
1, 80020, Note_off_c, 0, 45, 64
1, 80058, Control_c, 0, 64, 127
1, 80102, Note_on_c, 0, 76, 73
1, 80201, Note_off_c, 0, 78, 64
1, 80265, Note_on_c, 0, 74, 82
1, 80281, Note_on_c, 0, 52, 46
1, 80309, Note_off_c, 0, 76, 64
1, 80429, Note_on_c, 0, 73, 69
1, 80442, Note_off_c, 0, 74, 64
1, 80521, Note_off_c, 0, 69, 64
1, 80529, Note_off_c, 0, 73, 64
1, 80538, Control_c, 0, 64, 0
1, 80626, Note_on_c, 0, 74, 61
1, 80626, Note_on_c, 0, 69, 33
1, 80638, Note_on_c, 0, 66, 31
1, 80718, Note_off_c, 0, 52, 64
1, 80790, Control_c, 0, 64, 127
1, 80844, Note_off_c, 0, 66, 64
1, 80880, Note_on_c, 0, 73, 48
1, 80896, Note_on_c, 0, 64, 25
1, 80918, Note_off_c, 0, 74, 64
1, 80956, Note_off_c, 0, 69, 64
1, 80964, Note_off_c, 0, 64, 64
1, 81081, Note_on_c, 0, 71, 45
1, 81091, Note_off_c, 0, 73, 64
1, 81119, Note_on_c, 0, 62, 9
1, 81178, Note_off_c, 0, 71, 64
1, 81209, Note_off_c, 0, 62, 64
1, 81286, Note_on_c, 0, 69, 31
1, 81289, Note_on_c, 0, 61, 29
1, 81339, Note_off_c, 0, 69, 64
1, 81370, Note_off_c, 0, 61, 64
1, 81634, Note_on_c, 0, 50, 41
1, 81641, Control_c, 0, 64, 0
1, 81755, Note_on_c, 0, 54, 55
1, 81785, Control_c, 0, 64, 127
1, 81788, Note_off_c, 0, 50, 64
1, 81872, Note_on_c, 0, 57, 36
1, 81882, Note_off_c, 0, 54, 64
1, 81963, Note_on_c, 0, 42, 53
1, 81966, Note_on_c, 0, 61, 50
1, 81985, Note_off_c, 0, 57, 64
1, 82067, Note_off_c, 0, 61, 64
1, 82072, Note_on_c, 0, 59, 46
1, 82150, Note_off_c, 0, 59, 64
1, 82153, Note_on_c, 0, 57, 47
1, 82201, Note_off_c, 0, 57, 64
1, 82259, Note_on_c, 0, 56, 54
1, 82336, Control_c, 0, 64, 0
1, 82384, Note_on_c, 0, 59, 48
1, 82473, Note_on_c, 0, 62, 60
1, 82481, Note_off_c, 0, 56, 64
1, 82504, Control_c, 0, 64, 127
1, 82520, Note_off_c, 0, 59, 64
1, 82552, Note_off_c, 0, 42, 64
1, 82576, Note_on_c, 0, 40, 65
1, 82576, Note_on_c, 0, 66, 58
1, 82602, Note_off_c, 0, 62, 64
1, 82671, Note_on_c, 0, 64, 68
1, 82688, Note_off_c, 0, 40, 64
1, 82738, Note_off_c, 0, 66, 64
1, 82758, Note_on_c, 0, 62, 69
1, 82797, Note_off_c, 0, 64, 64
1, 82819, Note_off_c, 0, 62, 64
1, 82864, Note_on_c, 0, 61, 77
1, 82949, Note_on_c, 0, 64, 76
1, 83006, Note_off_c, 0, 61, 64
1, 83039, Note_on_c, 0, 68, 69
1, 83098, Note_off_c, 0, 64, 64
1, 83126, Control_c, 0, 64, 0
1, 83136, Note_on_c, 0, 71, 90
1, 83141, Note_on_c, 0, 45, 65
1, 83141, Note_on_c, 0, 33, 56
1, 83178, Note_off_c, 0, 68, 64
1, 83226, Note_on_c, 0, 69, 75
1, 83307, Control_c, 0, 64, 127
1, 83315, Note_off_c, 0, 71, 64
1, 83319, Note_on_c, 0, 68, 78
1, 83323, Note_off_c, 0, 33, 64
1, 83359, Note_off_c, 0, 69, 64
1, 83407, Note_off_c, 0, 45, 64
1, 83407, Note_on_c, 0, 66, 83
1, 83426, Note_off_c, 0, 68, 64
1, 83492, Note_on_c, 0, 69, 81
1, 83524, Note_off_c, 0, 66, 64
1, 83571, Note_on_c, 0, 73, 81
1, 83613, Note_off_c, 0, 69, 64
1, 83657, Note_on_c, 0, 50, 83
1, 83665, Note_on_c, 0, 76, 84
1, 83665, Note_on_c, 0, 38, 76
1, 83707, Note_off_c, 0, 73, 64
1, 83750, Note_on_c, 0, 74, 94
1, 83764, Note_off_c, 0, 50, 64
1, 83785, Note_off_c, 0, 38, 64
1, 83838, Note_on_c, 0, 73, 86
1, 83858, Note_off_c, 0, 76, 64
1, 83881, Control_c, 0, 64, 0
1, 83897, Note_off_c, 0, 74, 64
1, 83936, Note_on_c, 0, 71, 107
1, 83961, Note_off_c, 0, 73, 64
1, 84030, Note_on_c, 0, 74, 101
1, 84083, Note_off_c, 0, 71, 64
1, 84122, Note_on_c, 0, 78, 93
1, 84167, Note_off_c, 0, 74, 64
1, 84223, Note_on_c, 0, 47, 91
1, 84223, Note_on_c, 0, 81, 100
1, 84228, Note_on_c, 0, 35, 103
1, 84271, Note_off_c, 0, 78, 64
1, 84312, Note_off_c, 0, 35, 64
1, 84312, Control_c, 0, 64, 127
1, 84323, Note_off_c, 0, 47, 64
1, 84551, Note_on_c, 0, 66, 76
1, 84555, Note_on_c, 0, 71, 85
1, 84555, Note_on_c, 0, 74, 87
1, 84555, Note_on_c, 0, 54, 66
1, 84560, Note_on_c, 0, 59, 55
1, 84566, Note_on_c, 0, 62, 66
1, 84615, Note_off_c, 0, 59, 64
1, 84633, Note_off_c, 0, 81, 64
1, 84663, Note_off_c, 0, 66, 64
1, 84744, Note_on_c, 0, 80, 93
1, 84808, Note_off_c, 0, 62, 64
1, 84813, Note_off_c, 0, 54, 64
1, 84816, Note_off_c, 0, 74, 64
1, 84819, Note_off_c, 0, 71, 64
1, 84897, Note_on_c, 0, 78, 92
1, 84950, Note_off_c, 0, 80, 64
1, 85050, Note_on_c, 0, 80, 98
1, 85090, Note_off_c, 0, 78, 64
1, 85218, Note_on_c, 0, 71, 103
1, 85253, Note_off_c, 0, 80, 64
1, 85261, Control_c, 0, 64, 0
1, 85332, Note_on_c, 0, 74, 97
1, 85384, Note_off_c, 0, 71, 64
1, 85434, Note_on_c, 0, 78, 89
1, 85479, Note_off_c, 0, 74, 64
1, 85538, Note_on_c, 0, 38, 81
1, 85541, Note_on_c, 0, 81, 98
1, 85541, Note_on_c, 0, 50, 76
1, 85602, Note_off_c, 0, 78, 64
1, 85644, Note_off_c, 0, 38, 64
1, 85655, Control_c, 0, 64, 127
1, 85694, Note_off_c, 0, 50, 64
1, 85914, Note_on_c, 0, 66, 56
1, 85914, Note_on_c, 0, 71, 74
1, 85917, Note_on_c, 0, 74, 78
1, 85924, Note_on_c, 0, 54, 46
1, 85924, Note_on_c, 0, 62, 44
1, 85927, Note_on_c, 0, 59, 35
1, 86151, Note_on_c, 0, 80, 84
1, 86218, Note_off_c, 0, 81, 64
1, 86399, Note_on_c, 0, 78, 84
1, 86452, Note_off_c, 0, 80, 64
1, 86554, Note_off_c, 0, 62, 64
1, 86569, Note_off_c, 0, 59, 64
1, 86582, Note_off_c, 0, 66, 64
1, 86593, Note_off_c, 0, 78, 64
1, 86611, Note_off_c, 0, 74, 64
1, 86636, Note_off_c, 0, 71, 64
1, 86663, Note_off_c, 0, 54, 64
1, 86680, Note_on_c, 0, 80, 86
1, 86750, Note_off_c, 0, 80, 64
1, 86980, Note_on_c, 0, 52, 33
1, 87089, Note_on_c, 0, 62, 26
1, 87098, Note_on_c, 0, 76, 63
1, 87107, Note_on_c, 0, 68, 33
1, 87157, Control_c, 0, 64, 0
1, 87318, Note_on_c, 0, 74, 64
1, 87345, Note_off_c, 0, 76, 64
1, 87505, Note_on_c, 0, 76, 55
1, 87527, Note_off_c, 0, 74, 64
1, 87682, Control_c, 0, 64, 127
1, 87744, Note_on_c, 0, 73, 40
1, 87761, Note_off_c, 0, 76, 64
1, 87909, Control_c, 0, 64, 0
1, 88065, Control_c, 0, 64, 127
1, 88206, Note_on_c, 0, 66, 27
1, 88210, Note_on_c, 0, 54, 37
1, 88235, Note_off_c, 0, 52, 64
1, 88281, Control_c, 0, 64, 0
1, 88290, Note_off_c, 0, 68, 64
1, 88438, Note_on_c, 0, 71, 63
1, 88449, Control_c, 0, 64, 127
1, 88468, Note_off_c, 0, 73, 64
1, 88555, Note_off_c, 0, 71, 64
1, 88678, Note_off_c, 0, 54, 64
1, 88711, Note_on_c, 0, 65, 39
1, 88711, Note_on_c, 0, 71, 67
1, 88719, Note_on_c, 0, 56, 26
1, 88760, Control_c, 0, 64, 0
1, 88764, Note_off_c, 0, 66, 64
1, 88927, Note_on_c, 0, 73, 57
1, 88927, Control_c, 0, 64, 127
1, 88930, Note_off_c, 0, 71, 64
1, 88942, Note_off_c, 0, 62, 64
1, 89024, Note_off_c, 0, 65, 64
1, 89089, Note_off_c, 0, 56, 64
1, 89156, Note_on_c, 0, 69, 50
1, 89164, Note_on_c, 0, 64, 50
1, 89179, Note_on_c, 0, 61, 19
1, 89184, Note_on_c, 0, 57, 20
1, 89203, Control_c, 0, 64, 0
1, 89254, Note_off_c, 0, 73, 64
1, 89710, Note_on_c, 0, 66, 40
1, 89728, Note_off_c, 0, 69, 64
1, 89886, Control_c, 0, 64, 127
1, 89911, Note_off_c, 0, 57, 64
1, 89925, Note_off_c, 0, 61, 64
1, 90331, Note_on_c, 0, 63, 33
1, 90346, Note_on_c, 0, 57, 18
1, 90370, Note_on_c, 0, 47, 25
1, 90390, Control_c, 0, 64, 0
1, 90471, Note_off_c, 0, 64, 64
1, 90816, Note_on_c, 0, 68, 41
1, 90856, Note_off_c, 0, 66, 64
1, 90965, Control_c, 0, 64, 127
1, 90965, Note_off_c, 0, 57, 64
1, 90970, Note_off_c, 0, 63, 64
1, 90981, Note_off_c, 0, 47, 64
1, 91323, Note_off_c, 0, 68, 64
1, 91345, Note_on_c, 0, 66, 24
1, 91359, Note_on_c, 0, 56, 15
1, 91359, Note_on_c, 0, 62, 19
1, 91362, Note_on_c, 0, 47, 21
1, 91365, Note_on_c, 0, 40, 30
1, 91408, Control_c, 0, 64, 0
1, 91564, Control_c, 0, 64, 127
1, 91583, Note_off_c, 0, 56, 64
1, 91611, Note_off_c, 0, 47, 64
1, 91616, Note_off_c, 0, 40, 64
1, 91725, Note_off_c, 0, 62, 64
1, 91758, Note_on_c, 0, 64, 40
1, 91764, Note_off_c, 0, 66, 64
1, 91869, Note_off_c, 0, 64, 64
1, 92126, Note_on_c, 0, 78, 53
1, 92129, Note_on_c, 0, 56, 17
1, 92132, Note_on_c, 0, 62, 22
1, 92132, Note_on_c, 0, 74, 22
1, 92137, Note_on_c, 0, 66, 24
1, 92148, Note_on_c, 0, 71, 27
1, 92625, Note_off_c, 0, 66, 64
1, 93157, Note_off_c, 0, 74, 64
1, 93179, Note_off_c, 0, 71, 64
1, 93259, Note_off_c, 0, 78, 64
1, 93288, Note_off_c, 0, 62, 64
1, 93293, Note_on_c, 0, 76, 33
1, 93316, Note_on_c, 0, 64, 20
1, 93388, Note_off_c, 0, 76, 64
1, 93388, Note_off_c, 0, 64, 64
1, 93405, Note_off_c, 0, 56, 64
1, 93741, Note_on_c, 0, 66, 40
1, 93745, Control_c, 0, 64, 0
1, 93755, Note_on_c, 0, 45, 16
1, 93755, Note_on_c, 0, 57, 31
1, 93758, Note_on_c, 0, 61, 27
1, 93764, Note_on_c, 0, 52, 28
1, 93919, Note_off_c, 0, 57, 64
1, 93929, Note_off_c, 0, 52, 64
1, 93937, Control_c, 0, 64, 127
1, 93948, Note_off_c, 0, 45, 64
1, 93970, Note_off_c, 0, 61, 64
1, 94031, Note_on_c, 0, 64, 68
1, 94059, Note_off_c, 0, 66, 64
1, 94107, Note_off_c, 0, 64, 64
1, 94355, Note_on_c, 0, 80, 78
1, 94377, Note_on_c, 0, 69, 27
1, 94380, Note_on_c, 0, 52, 33
1, 94380, Note_on_c, 0, 57, 28
1, 94380, Note_on_c, 0, 64, 23
1, 94380, Note_on_c, 0, 73, 24
1, 94388, Note_on_c, 0, 61, 26
1, 94561, Control_c, 0, 64, 0
1, 94753, Control_c, 0, 64, 127
1, 94841, Note_off_c, 0, 69, 64
1, 94887, Note_off_c, 0, 73, 64
1, 95218, Note_on_c, 0, 83, 85
1, 95419, Note_off_c, 0, 80, 64
1, 95560, Note_on_c, 0, 81, 65
1, 95638, Note_off_c, 0, 83, 64
1, 95658, Note_off_c, 0, 52, 64
1, 95689, Note_off_c, 0, 57, 64
1, 95755, Note_off_c, 0, 61, 64
1, 95792, Note_off_c, 0, 64, 64
1, 95817, Note_off_c, 0, 81, 64
1, 95822, Note_on_c, 0, 78, 64
1, 95917, Note_off_c, 0, 78, 64
1, 96067, Note_on_c, 0, 76, 49
1, 96071, Note_on_c, 0, 66, 19
1, 96076, Note_on_c, 0, 69, 26
1, 96087, Note_on_c, 0, 59, 13
1, 96118, Control_c, 0, 64, 0
1, 96268, Note_on_c, 0, 74, 61
1, 96312, Note_off_c, 0, 76, 64
1, 96333, Control_c, 0, 64, 127
1, 96377, Note_on_c, 0, 61, 33
1, 96439, Note_off_c, 0, 59, 64
1, 96443, Note_on_c, 0, 76, 59
1, 96461, Note_off_c, 0, 74, 64
1, 96666, Note_on_c, 0, 73, 52
1, 96681, Note_off_c, 0, 76, 64
1, 96684, Note_off_c, 0, 61, 64
1, 96697, Note_on_c, 0, 62, 31
1, 96837, Control_c, 0, 64, 0
1, 97198, Control_c, 0, 64, 127
1, 97341, Note_on_c, 0, 71, 57
1, 97358, Note_off_c, 0, 66, 64
1, 97375, Note_off_c, 0, 73, 64
1, 97450, Note_off_c, 0, 71, 64
1, 97581, Note_on_c, 0, 71, 49
1, 97591, Note_on_c, 0, 68, 36
1, 97591, Control_c, 0, 64, 0
1, 97605, Note_on_c, 0, 65, 30
1, 97630, Note_off_c, 0, 69, 64
1, 97736, Control_c, 0, 64, 127
1, 97755, Note_off_c, 0, 65, 64
1, 97795, Note_off_c, 0, 71, 64
1, 97795, Note_off_c, 0, 62, 64
1, 97809, Note_on_c, 0, 73, 52
1, 97858, Note_off_c, 0, 68, 64
1, 98053, Note_on_c, 0, 69, 42
1, 98062, Note_on_c, 0, 61, 20
1, 98070, Note_on_c, 0, 64, 27
1, 98077, Note_on_c, 0, 54, 22
1, 98115, Note_off_c, 0, 73, 64
1, 98132, Control_c, 0, 64, 0
1, 98444, Control_c, 0, 64, 127
1, 98524, Note_on_c, 0, 68, 43
1, 98530, Note_off_c, 0, 69, 64
1, 98772, Note_off_c, 0, 61, 64
1, 98984, Control_c, 0, 64, 0
1, 98989, Note_on_c, 0, 47, 30
1, 98989, Note_on_c, 0, 63, 38
1, 99004, Note_on_c, 0, 57, 17
1, 99004, Note_off_c, 0, 54, 64
1, 99021, Note_off_c, 0, 64, 64
1, 99223, Control_c, 0, 64, 127
1, 99283, Note_on_c, 0, 66, 38
1, 99299, Note_off_c, 0, 68, 64
1, 99393, Note_off_c, 0, 66, 64
1, 99439, Note_off_c, 0, 57, 64
1, 99511, Note_off_c, 0, 47, 64
1, 99535, Control_c, 0, 64, 0
1, 99541, Note_on_c, 0, 66, 39
1, 99541, Note_on_c, 0, 61, 35
1, 99545, Note_on_c, 0, 51, 33
1, 99549, Note_on_c, 0, 45, 29
1, 99577, Note_off_c, 0, 63, 64
1, 99750, Control_c, 0, 64, 127
1, 99773, Note_on_c, 0, 68, 52
1, 99787, Note_off_c, 0, 66, 64
1, 99865, Note_off_c, 0, 61, 64
1, 99868, Note_off_c, 0, 68, 64
1, 99901, Note_off_c, 0, 45, 64
1, 99970, Note_off_c, 0, 51, 64
1, 99981, Note_on_c, 0, 44, 40
1, 99990, Control_c, 0, 64, 0
1, 99996, Note_on_c, 0, 66, 40
1, 100001, Note_on_c, 0, 52, 38
1, 100009, Note_on_c, 0, 59, 33
1, 100185, Note_on_c, 0, 64, 55
1, 100193, Note_off_c, 0, 59, 64
1, 100193, Control_c, 0, 64, 127
1, 100227, Note_off_c, 0, 66, 64
1, 100293, Note_off_c, 0, 52, 64
1, 100346, Note_off_c, 0, 64, 64
1, 100350, Note_on_c, 0, 59, 66
1, 100581, Note_off_c, 0, 44, 64
1, 100591, Note_on_c, 0, 61, 59
1, 100606, Note_on_c, 0, 42, 26
1, 100609, Note_on_c, 0, 57, 29
1, 100609, Note_on_c, 0, 52, 40
1, 100633, Note_off_c, 0, 59, 64
1, 100673, Control_c, 0, 64, 0
1, 100998, Note_off_c, 0, 52, 64
1, 101068, Control_c, 0, 64, 127
1, 101227, Note_off_c, 0, 42, 64
1, 101265, Note_off_c, 0, 61, 64
1, 101265, Note_off_c, 0, 57, 64
1, 101577, Note_on_c, 0, 57, 19
1, 101577, Note_on_c, 0, 64, 38
1, 101577, Note_on_c, 0, 61, 16
1, 101586, Note_on_c, 0, 35, 16
1, 101592, Note_on_c, 0, 47, 10
1, 101667, Control_c, 0, 64, 0
1, 101793, Note_off_c, 0, 47, 64
1, 101814, Note_off_c, 0, 35, 64
1, 101823, Control_c, 0, 64, 127
1, 101837, Note_off_c, 0, 61, 64
1, 101871, Note_off_c, 0, 64, 64
1, 101914, Note_off_c, 0, 57, 64
1, 102113, Note_on_c, 0, 64, 39
1, 102118, Note_on_c, 0, 57, 29
1, 102118, Note_on_c, 0, 59, 25
1, 102128, Note_on_c, 0, 40, 31
1, 102128, Note_on_c, 0, 47, 21
1, 102194, Control_c, 0, 64, 0
1, 102514, Note_off_c, 0, 57, 64
1, 102586, Note_on_c, 0, 56, 35
1, 102750, Note_off_c, 0, 59, 64
1, 102764, Note_off_c, 0, 56, 64
1, 102770, Control_c, 0, 64, 127
1, 102770, Note_off_c, 0, 64, 64
1, 102776, Note_off_c, 0, 40, 64
1, 102814, Note_off_c, 0, 47, 64
1, 103074, Note_on_c, 0, 40, 42
1, 103470, Note_off_c, 0, 40, 64
1, 103566, Note_on_c, 0, 50, 36
1, 103890, Note_off_c, 0, 50, 64
1, 104185, Note_on_c, 0, 67, 80
1, 104194, Note_on_c, 0, 55, 45
1, 104208, Note_on_c, 0, 60, 43
1, 104208, Note_on_c, 0, 40, 52
1, 104244, Control_c, 0, 64, 0
1, 104366, Note_on_c, 0, 65, 67
1, 104392, Note_off_c, 0, 67, 64
1, 104424, Control_c, 0, 64, 127
1, 104431, Note_off_c, 0, 60, 64
1, 104461, Note_off_c, 0, 55, 64
1, 104488, Note_on_c, 0, 67, 70
1, 104500, Note_off_c, 0, 65, 64
1, 104629, Note_on_c, 0, 64, 83
1, 104633, Note_on_c, 0, 57, 53
1, 104637, Note_off_c, 0, 40, 64
1, 104637, Note_on_c, 0, 41, 52
1, 104648, Note_on_c, 0, 48, 29
1, 104648, Note_on_c, 0, 60, 42
1, 104651, Control_c, 0, 64, 0
1, 104661, Note_off_c, 0, 67, 64
1, 105119, Control_c, 0, 64, 127
1, 105129, Note_off_c, 0, 60, 64
1, 105185, Note_off_c, 0, 57, 64
1, 105250, Note_off_c, 0, 48, 64
1, 105411, Note_on_c, 0, 62, 74
1, 105417, Note_on_c, 0, 50, 52
1, 105417, Note_on_c, 0, 53, 72
1, 105421, Note_on_c, 0, 59, 59
1, 105424, Note_on_c, 0, 43, 54
1, 105441, Note_off_c, 0, 64, 64
1, 105461, Note_off_c, 0, 41, 64
1, 105526, Control_c, 0, 64, 0
1, 105643, Note_off_c, 0, 59, 64
1, 105658, Control_c, 0, 64, 127
1, 105670, Note_off_c, 0, 53, 64
1, 105681, Note_off_c, 0, 50, 64
1, 105806, Note_on_c, 0, 60, 84
1, 105809, Note_on_c, 0, 45, 57
1, 105815, Note_on_c, 0, 48, 45
1, 105815, Note_on_c, 0, 57, 55
1, 105821, Note_on_c, 0, 52, 73
1, 105828, Note_off_c, 0, 43, 64
1, 105831, Note_off_c, 0, 62, 64
1, 105839, Control_c, 0, 64, 0
1, 106005, Note_off_c, 0, 57, 64
1, 106041, Control_c, 0, 64, 127
1, 106058, Note_off_c, 0, 52, 64
1, 106076, Note_off_c, 0, 48, 64
1, 106241, Note_on_c, 0, 55, 70
1, 106241, Note_on_c, 0, 50, 53
1, 106250, Note_on_c, 0, 47, 57
1, 106250, Note_on_c, 0, 53, 88
1, 106261, Note_off_c, 0, 60, 64
1, 106272, Note_off_c, 0, 45, 64
1, 106328, Control_c, 0, 64, 0
1, 106714, Control_c, 0, 64, 127
1, 106884, Note_off_c, 0, 50, 64
1, 106973, Note_off_c, 0, 53, 64
1, 107001, Note_on_c, 0, 60, 84
1, 107004, Note_off_c, 0, 55, 64
1, 107004, Note_on_c, 0, 57, 60
1, 107007, Note_on_c, 0, 45, 61
1, 107010, Note_on_c, 0, 52, 75
1, 107015, Note_off_c, 0, 47, 64
1, 107172, Note_off_c, 0, 57, 64
1, 107185, Note_off_c, 0, 52, 64
1, 107193, Note_off_c, 0, 60, 64
1, 107384, Note_on_c, 0, 53, 97
1, 107388, Note_on_c, 0, 62, 83
1, 107388, Note_on_c, 0, 43, 64
1, 107398, Note_on_c, 0, 59, 70
1, 107403, Note_off_c, 0, 45, 64
1, 107408, Control_c, 0, 64, 0
1, 107534, Note_off_c, 0, 53, 64
1, 107545, Note_off_c, 0, 59, 64
1, 107551, Control_c, 0, 64, 127
1, 107561, Note_off_c, 0, 62, 64
1, 107739, Note_on_c, 0, 65, 84
1, 107739, Note_on_c, 0, 57, 70
1, 107748, Note_off_c, 0, 43, 64
1, 107748, Note_on_c, 0, 41, 76
1, 107748, Note_on_c, 0, 60, 65
1, 107815, Control_c, 0, 64, 0
1, 107921, Note_off_c, 0, 60, 64
1, 107959, Control_c, 0, 64, 127
1, 107966, Note_off_c, 0, 65, 64
1, 107969, Note_off_c, 0, 57, 64
1, 108077, Note_off_c, 0, 41, 64
1, 108083, Note_on_c, 0, 67, 89
1, 108094, Note_on_c, 0, 40, 73
1, 108094, Note_on_c, 0, 55, 72
1, 108099, Note_on_c, 0, 60, 59
1, 108104, Control_c, 0, 64, 0
1, 108228, Note_off_c, 0, 55, 64
1, 108241, Note_off_c, 0, 60, 64
1, 108247, Control_c, 0, 64, 127
1, 108278, Note_off_c, 0, 40, 64
1, 108288, Note_off_c, 0, 67, 64
1, 108462, Note_on_c, 0, 69, 72
1, 108473, Note_on_c, 0, 60, 57
1, 108473, Note_on_c, 0, 38, 45
1, 108476, Note_on_c, 0, 65, 55
1, 108495, Note_on_c, 0, 50, 45
1, 108511, Control_c, 0, 64, 0
1, 108618, Note_off_c, 0, 50, 64
1, 108642, Control_c, 0, 64, 127
1, 108650, Note_off_c, 0, 60, 64
1, 108673, Note_off_c, 0, 65, 64
1, 108682, Note_off_c, 0, 38, 64
1, 108715, Note_on_c, 0, 72, 80
1, 108765, Note_off_c, 0, 69, 64
1, 108826, Note_off_c, 0, 72, 64
1, 108937, Note_on_c, 0, 31, 56
1, 108987, Note_on_c, 0, 74, 83
1, 108987, Note_on_c, 0, 71, 68
1, 108991, Note_on_c, 0, 65, 46
1, 109038, Control_c, 0, 64, 0
1, 109196, Note_off_c, 0, 31, 64
1, 109224, Note_on_c, 0, 43, 45
1, 109253, Control_c, 0, 64, 127
1, 109266, Note_off_c, 0, 43, 64
1, 109459, Note_on_c, 0, 50, 44
1, 109650, Note_on_c, 0, 53, 78
1, 109829, Note_off_c, 0, 53, 64
1, 109838, Note_on_c, 0, 55, 59
1, 109851, Note_on_c, 0, 67, 70
1, 109864, Note_off_c, 0, 50, 64
1, 109877, Note_off_c, 0, 65, 64
1, 109927, Note_off_c, 0, 71, 64
1, 109979, Note_off_c, 0, 55, 64
1, 110024, Note_on_c, 0, 59, 56
1, 110065, Note_off_c, 0, 74, 64
1, 110065, Note_off_c, 0, 59, 64
1, 110127, Note_off_c, 0, 67, 64
1, 110194, Note_on_c, 0, 62, 63
1, 110369, Note_on_c, 0, 65, 63
1, 110372, Note_off_c, 0, 62, 64
1, 110564, Note_on_c, 0, 64, 46
1, 110568, Note_off_c, 0, 65, 64
1, 110576, Note_on_c, 0, 79, 90
1, 110584, Note_on_c, 0, 67, 49
1, 110584, Note_on_c, 0, 72, 52
1, 110596, Control_c, 0, 64, 0
1, 110748, Note_on_c, 0, 77, 83
1, 110790, Note_off_c, 0, 79, 64
1, 110898, Note_on_c, 0, 79, 81
1, 110919, Control_c, 0, 64, 127
1, 110933, Note_off_c, 0, 77, 64
1, 111085, Note_on_c, 0, 76, 68
1, 111099, Control_c, 0, 64, 0
1, 111150, Note_off_c, 0, 79, 64
1, 111375, Control_c, 0, 64, 127
1, 111447, Note_on_c, 0, 69, 48
1, 111464, Note_on_c, 0, 65, 40
1, 111493, Note_off_c, 0, 64, 64
1, 111497, Note_off_c, 0, 67, 64
1, 111626, Control_c, 0, 64, 0
1, 111830, Control_c, 0, 64, 127
1, 111859, Note_on_c, 0, 74, 75
1, 111915, Control_c, 0, 64, 0
1, 111929, Note_off_c, 0, 76, 64
1, 112082, Control_c, 0, 64, 127
1, 112167, Note_off_c, 0, 72, 64
1, 112231, Note_off_c, 0, 65, 64
1, 112249, Note_on_c, 0, 70, 44
1, 112249, Note_on_c, 0, 76, 64
1, 112253, Note_on_c, 0, 72, 26
1, 112266, Note_on_c, 0, 67, 27
1, 112277, Note_off_c, 0, 69, 64
1, 112362, Note_off_c, 0, 74, 64
1, 112405, Control_c, 0, 64, 0
1, 112826, Control_c, 0, 64, 127
1, 113077, Note_off_c, 0, 67, 64
1, 113113, Note_off_c, 0, 70, 64
1, 113131, Note_on_c, 0, 77, 50
1, 113156, Note_on_c, 0, 69, 25
1, 113166, Note_on_c, 0, 65, 24
1, 113256, Control_c, 0, 64, 0
1, 113277, Note_off_c, 0, 76, 64
1, 113556, Control_c, 0, 64, 127
1, 113618, Note_off_c, 0, 72, 64
1, 113663, Note_off_c, 0, 77, 64
1, 113726, Note_off_c, 0, 69, 64
1, 113795, Note_off_c, 0, 65, 64
1, 113935, Note_on_c, 0, 79, 65
1, 113947, Note_on_c, 0, 72, 31
1, 113947, Note_on_c, 0, 64, 32
1, 113958, Note_on_c, 0, 67, 25
1, 114108, Note_on_c, 0, 77, 66
1, 114150, Note_off_c, 0, 79, 64
1, 114255, Note_on_c, 0, 79, 71
1, 114277, Note_off_c, 0, 77, 64
1, 114418, Control_c, 0, 64, 0
1, 114433, Note_on_c, 0, 76, 57
1, 114489, Note_off_c, 0, 79, 64
1, 114971, Control_c, 0, 64, 127
1, 115236, Note_on_c, 0, 79, 50
1, 115333, Note_off_c, 0, 76, 64
1, 115635, Note_off_c, 0, 67, 64
1, 115801, Note_on_c, 0, 80, 33
1, 115805, Note_off_c, 0, 79, 64
1, 115824, Note_on_c, 0, 68, 20
1, 115869, Control_c, 0, 64, 0
1, 116030, Note_on_c, 0, 78, 35
1, 116064, Note_off_c, 0, 80, 64
1, 116226, Note_on_c, 0, 80, 37
1, 116241, Note_off_c, 0, 78, 64
1, 116241, Control_c, 0, 64, 127
1, 116518, Note_on_c, 0, 76, 28
1, 116553, Control_c, 0, 64, 0
1, 116579, Note_off_c, 0, 80, 64
1, 116755, Control_c, 0, 64, 127
1, 116841, Note_off_c, 0, 72, 64
1, 117097, Note_on_c, 0, 73, 17
1, 117308, Control_c, 0, 64, 0
1, 117487, Control_c, 0, 64, 127
1, 117709, Note_on_c, 0, 80, 23
1, 117718, Note_off_c, 0, 76, 64
1, 117894, Control_c, 0, 64, 0
1, 118027, Control_c, 0, 64, 127
1, 118133, Note_off_c, 0, 64, 64
1, 118208, Note_on_c, 0, 63, 8
1, 118456, Note_off_c, 0, 68, 64
1, 118545, Note_off_c, 0, 63, 64
1, 118783, Note_on_c, 0, 61, 15
1, 118799, Note_on_c, 0, 81, 39
1, 118960, Note_off_c, 0, 73, 64
1, 118977, Note_off_c, 0, 80, 64
1, 119061, Note_on_c, 0, 64, 17
1, 119153, Control_c, 0, 64, 0
1, 119205, Note_on_c, 0, 69, 18
1, 119309, Control_c, 0, 64, 127
1, 119326, Note_on_c, 0, 73, 19
1, 119340, Note_off_c, 0, 69, 64
1, 119387, Note_off_c, 0, 64, 64
1, 119465, Note_off_c, 0, 73, 64
1, 119469, Note_on_c, 0, 76, 30
1, 119552, Note_off_c, 0, 76, 64
1, 119559, Note_on_c, 0, 78, 41
1, 119599, Note_off_c, 0, 61, 64
1, 119668, Note_off_c, 0, 78, 64
1, 119673, Note_on_c, 0, 80, 61
1, 119696, Note_off_c, 0, 81, 64
1, 119797, Note_on_c, 0, 75, 27
1, 119879, Note_off_c, 0, 75, 64
1, 119919, Note_on_c, 0, 71, 32
1, 120003, Control_c, 0, 64, 0
1, 120006, Note_on_c, 0, 68, 26
1, 120123, Control_c, 0, 64, 127
1, 120127, Note_on_c, 0, 63, 36
1, 120136, Note_off_c, 0, 71, 64
1, 120167, Note_off_c, 0, 68, 64
1, 120245, Note_on_c, 0, 59, 37
1, 120259, Note_off_c, 0, 63, 64
1, 120325, Note_off_c, 0, 59, 64
1, 120328, Note_on_c, 0, 78, 68
1, 120340, Note_on_c, 0, 57, 24
1, 120428, Note_off_c, 0, 80, 64
1, 120460, Note_on_c, 0, 61, 33
1, 120520, Control_c, 0, 64, 0
1, 120565, Note_on_c, 0, 66, 20
1, 120671, Note_on_c, 0, 69, 30
1, 120687, Control_c, 0, 64, 127
1, 120701, Note_off_c, 0, 66, 64
1, 120721, Note_off_c, 0, 57, 64
1, 120769, Note_on_c, 0, 73, 34
1, 120769, Note_off_c, 0, 69, 64
1, 120785, Note_off_c, 0, 61, 64
1, 120858, Note_off_c, 0, 73, 64
1, 120869, Note_on_c, 0, 75, 28
1, 120924, Note_off_c, 0, 75, 64
1, 120960, Note_on_c, 0, 76, 51
1, 121047, Note_off_c, 0, 78, 64
1, 121080, Note_on_c, 0, 71, 43
1, 121167, Note_on_c, 0, 68, 35
1, 121203, Control_c, 0, 64, 0
1, 121222, Note_off_c, 0, 71, 64
1, 121256, Note_on_c, 0, 64, 36
1, 121326, Note_off_c, 0, 68, 64
1, 121334, Control_c, 0, 64, 127
1, 121375, Note_on_c, 0, 59, 31
1, 121398, Note_off_c, 0, 64, 64
1, 121459, Note_off_c, 0, 59, 64
1, 121467, Note_on_c, 0, 56, 37
1, 121546, Note_off_c, 0, 56, 64
1, 121584, Note_on_c, 0, 54, 49
1, 121679, Note_off_c, 0, 76, 64
1, 121721, Note_on_c, 0, 57, 39
1, 121828, Note_on_c, 0, 61, 42
1, 121910, Control_c, 0, 64, 0
1, 121945, Note_on_c, 0, 73, 64
1, 122056, Note_on_c, 0, 66, 35
1, 122089, Control_c, 0, 64, 127
1, 122162, Note_off_c, 0, 57, 64
1, 122187, Note_on_c, 0, 69, 26
1, 122233, Note_off_c, 0, 66, 64
1, 122248, Note_off_c, 0, 61, 64
1, 122329, Note_on_c, 0, 52, 39
1, 122343, Note_on_c, 0, 78, 57
1, 122350, Note_off_c, 0, 69, 64
1, 122374, Note_off_c, 0, 54, 64
1, 122410, Note_off_c, 0, 73, 64
1, 122449, Control_c, 0, 64, 0
1, 122521, Note_on_c, 0, 57, 30
1, 122635, Note_on_c, 0, 61, 27
1, 122641, Control_c, 0, 64, 127
1, 122750, Note_on_c, 0, 73, 42
1, 122779, Note_off_c, 0, 78, 64
1, 122841, Note_off_c, 0, 57, 64
1, 122869, Note_on_c, 0, 66, 25
1, 122930, Note_off_c, 0, 61, 64
1, 122992, Note_off_c, 0, 66, 64
1, 123003, Note_on_c, 0, 69, 23
1, 123067, Note_on_c, 0, 51, 45
1, 123081, Note_off_c, 0, 52, 64
1, 123156, Control_c, 0, 64, 0
1, 123217, Note_on_c, 0, 57, 36
1, 123300, Control_c, 0, 64, 127
1, 123303, Note_off_c, 0, 73, 64
1, 123310, Note_off_c, 0, 69, 64
1, 123310, Note_on_c, 0, 61, 56
1, 123389, Note_off_c, 0, 57, 64
1, 123406, Note_on_c, 0, 73, 66
1, 123516, Note_on_c, 0, 66, 43
1, 123627, Note_off_c, 0, 61, 64
1, 123630, Note_on_c, 0, 69, 35
1, 123633, Note_off_c, 0, 51, 64
1, 123640, Note_off_c, 0, 66, 64
1, 123696, Note_off_c, 0, 69, 64
1, 123730, Note_on_c, 0, 49, 46
1, 123733, Note_on_c, 0, 78, 75
1, 123791, Control_c, 0, 64, 0
1, 123817, Note_off_c, 0, 73, 64
1, 123899, Note_on_c, 0, 57, 39
1, 123934, Control_c, 0, 64, 127
1, 123941, Note_off_c, 0, 49, 64
1, 123964, Note_off_c, 0, 57, 64
1, 124014, Note_on_c, 0, 64, 41
1, 124119, Note_off_c, 0, 64, 64
1, 124176, Note_on_c, 0, 81, 56
1, 124321, Note_on_c, 0, 69, 28
1, 124365, Note_off_c, 0, 78, 64
1, 124470, Note_on_c, 0, 73, 33
1, 124477, Note_off_c, 0, 69, 64
1, 124560, Note_off_c, 0, 73, 64
1, 124607, Note_on_c, 0, 47, 48
1, 124643, Control_c, 0, 64, 0
1, 124749, Note_on_c, 0, 54, 57
1, 124822, Control_c, 0, 64, 127
1, 124825, Note_off_c, 0, 47, 64
1, 124846, Note_off_c, 0, 81, 64
1, 124877, Note_off_c, 0, 54, 64
1, 124910, Note_on_c, 0, 57, 47
1, 124972, Note_off_c, 0, 57, 64
1, 125027, Note_on_c, 0, 81, 76
1, 125033, Note_on_c, 0, 61, 52
1, 125178, Note_on_c, 0, 63, 49
1, 125189, Note_off_c, 0, 61, 64
1, 125328, Note_off_c, 0, 63, 64
1, 125328, Note_on_c, 0, 66, 32
1, 125449, Note_off_c, 0, 66, 64
1, 125484, Note_on_c, 0, 69, 39
1, 125621, Note_off_c, 0, 69, 64
1, 125655, Note_on_c, 0, 73, 44
1, 125811, Note_off_c, 0, 73, 64
1, 125853, Note_on_c, 0, 75, 44
1, 126023, Note_off_c, 0, 75, 64
1, 126070, Note_on_c, 0, 73, 23
1, 126264, Note_off_c, 0, 73, 64
1, 126335, Note_on_c, 0, 80, 42
1, 126349, Note_on_c, 0, 71, 28
1, 126399, Note_off_c, 0, 81, 64
1, 126496, Note_off_c, 0, 71, 64
1, 126742, Note_on_c, 0, 78, 41
1, 126760, Note_on_c, 0, 69, 11
1, 126845, Note_off_c, 0, 69, 64
1, 126849, Note_off_c, 0, 80, 64
1, 127354, Note_on_c, 0, 40, 37
1, 127410, Control_c, 0, 64, 0
1, 127443, Note_off_c, 0, 78, 64
1, 127630, Note_on_c, 0, 47, 32
1, 127781, Control_c, 0, 64, 127
1, 127816, Note_off_c, 0, 40, 64
1, 127842, Note_off_c, 0, 47, 64
1, 127847, Note_on_c, 0, 76, 41
1, 127875, Note_on_c, 0, 52, 36
1, 128011, Note_on_c, 0, 78, 54
1, 128022, Note_off_c, 0, 52, 64
1, 128067, Note_on_c, 0, 56, 35
1, 128075, Note_off_c, 0, 76, 64
1, 128122, Note_on_c, 0, 73, 50
1, 128132, Note_off_c, 0, 78, 64
1, 128223, Note_off_c, 0, 56, 64
1, 128235, Note_on_c, 0, 76, 59
1, 128270, Note_on_c, 0, 59, 29
1, 128270, Note_off_c, 0, 73, 64
1, 128351, Note_on_c, 0, 71, 60
1, 128359, Note_off_c, 0, 59, 64
1, 128371, Note_off_c, 0, 76, 64
1, 128409, Note_on_c, 0, 56, 35
1, 128446, Note_on_c, 0, 73, 60
1, 128457, Note_off_c, 0, 56, 64
1, 128482, Note_off_c, 0, 71, 64
1, 128554, Note_on_c, 0, 68, 55
1, 128579, Note_off_c, 0, 73, 64
1, 128579, Note_on_c, 0, 52, 41
1, 128657, Note_off_c, 0, 52, 64
1, 128661, Note_on_c, 0, 71, 77
1, 128678, Note_off_c, 0, 68, 64
1, 128738, Note_on_c, 0, 47, 25
1, 128760, Note_on_c, 0, 66, 62
1, 128760, Note_off_c, 0, 71, 64
1, 128858, Note_off_c, 0, 47, 64
1, 128869, Note_on_c, 0, 68, 72
1, 128869, Control_c, 0, 64, 0
1, 128884, Note_on_c, 0, 40, 51
1, 128892, Note_off_c, 0, 66, 64
1, 128983, Note_on_c, 0, 64, 64
1, 128983, Note_off_c, 0, 68, 64
1, 129043, Note_on_c, 0, 49, 39
1, 129076, Note_on_c, 0, 68, 55
1, 129097, Note_off_c, 0, 64, 64
1, 129165, Note_off_c, 0, 40, 64
1, 129178, Note_off_c, 0, 68, 64
1, 129185, Note_on_c, 0, 63, 75
1, 129231, Note_on_c, 0, 52, 35
1, 129237, Note_off_c, 0, 49, 64
1, 129268, Control_c, 0, 64, 127
1, 129309, Note_off_c, 0, 52, 64
1, 129365, Note_on_c, 0, 56, 47
1, 129513, Note_off_c, 0, 56, 64
1, 129530, Note_on_c, 0, 61, 41
1, 129663, Note_off_c, 0, 61, 64
1, 129727, Note_on_c, 0, 56, 36
1, 129794, Note_off_c, 0, 56, 64
1, 129884, Note_on_c, 0, 61, 59
1, 129920, Note_on_c, 0, 52, 28
1, 129978, Note_off_c, 0, 63, 64
1, 130009, Note_off_c, 0, 52, 64
1, 130086, Note_on_c, 0, 49, 31
1, 130145, Note_off_c, 0, 49, 64
1, 130285, Note_on_c, 0, 59, 55
1, 130299, Control_c, 0, 64, 0
1, 130315, Note_off_c, 0, 61, 64
1, 130326, Note_on_c, 0, 40, 44
1, 130515, Control_c, 0, 64, 127
1, 130538, Note_off_c, 0, 59, 64
1, 130561, Note_on_c, 0, 47, 21
1, 130669, Note_off_c, 0, 40, 64
1, 130713, Note_off_c, 0, 47, 64
1, 130775, Note_on_c, 0, 76, 47
1, 130806, Note_on_c, 0, 52, 18
1, 130920, Note_off_c, 0, 52, 64
1, 130936, Note_on_c, 0, 78, 47
1, 130964, Note_off_c, 0, 76, 64
1, 130964, Note_on_c, 0, 56, 27
1, 131034, Note_on_c, 0, 73, 44
1, 131054, Note_off_c, 0, 78, 64
1, 131145, Note_off_c, 0, 56, 64
1, 131156, Note_on_c, 0, 76, 54
1, 131178, Note_off_c, 0, 73, 64
1, 131187, Note_on_c, 0, 59, 20
1, 131270, Note_off_c, 0, 76, 64
1, 131274, Note_on_c, 0, 71, 50
1, 131277, Note_off_c, 0, 59, 64
1, 131321, Note_on_c, 0, 56, 34
1, 131326, Note_off_c, 0, 71, 64
1, 131359, Note_on_c, 0, 73, 45
1, 131377, Note_off_c, 0, 56, 64
1, 131447, Note_off_c, 0, 73, 64
1, 131468, Note_on_c, 0, 68, 42
1, 131485, Note_on_c, 0, 52, 36
1, 131538, Note_off_c, 0, 68, 64
1, 131577, Note_on_c, 0, 71, 51
1, 131608, Note_off_c, 0, 52, 64
1, 131644, Note_off_c, 0, 71, 64
1, 131652, Note_on_c, 0, 47, 22
1, 131681, Note_on_c, 0, 66, 41
1, 131797, Note_off_c, 0, 47, 64
1, 131827, Note_off_c, 0, 66, 64
1, 131833, Note_on_c, 0, 68, 39
1, 131837, Note_on_c, 0, 40, 39
1, 131905, Control_c, 0, 64, 0
1, 131939, Note_off_c, 0, 68, 64
1, 131961, Note_on_c, 0, 64, 39
1, 132054, Note_off_c, 0, 64, 64
1, 132064, Note_on_c, 0, 49, 26
1, 132071, Note_on_c, 0, 68, 41
1, 132249, Note_off_c, 0, 40, 64
1, 132256, Note_on_c, 0, 63, 51
1, 132288, Note_off_c, 0, 68, 64
1, 132288, Note_on_c, 0, 52, 44
1, 132296, Note_off_c, 0, 49, 64
1, 132337, Control_c, 0, 64, 127
1, 132368, Note_off_c, 0, 52, 64
1, 132460, Note_on_c, 0, 56, 41
1, 132630, Note_off_c, 0, 56, 64
1, 132636, Note_on_c, 0, 61, 41
1, 132764, Note_off_c, 0, 61, 64
1, 132816, Note_on_c, 0, 56, 32
1, 132864, Note_off_c, 0, 56, 64
1, 132953, Note_on_c, 0, 61, 57
1, 133000, Note_on_c, 0, 52, 25
1, 133050, Note_off_c, 0, 63, 64
1, 133065, Note_off_c, 0, 52, 64
1, 133143, Note_on_c, 0, 49, 29
1, 133202, Note_off_c, 0, 49, 64
1, 133355, Note_on_c, 0, 59, 45
1, 133362, Note_off_c, 0, 61, 64
1, 133399, Note_on_c, 0, 42, 20
1, 133530, Note_on_c, 0, 57, 42
1, 133538, Note_off_c, 0, 59, 64
1, 133583, Control_c, 0, 64, 0
1, 133625, Note_on_c, 0, 49, 23
1, 133681, Note_on_c, 0, 59, 44
1, 133700, Note_off_c, 0, 57, 64
1, 133833, Note_on_c, 0, 61, 48
1, 133844, Note_off_c, 0, 59, 64
1, 133853, Note_off_c, 0, 42, 64
1, 133853, Note_off_c, 0, 49, 64
1, 133853, Note_on_c, 0, 52, 44
1, 133883, Control_c, 0, 64, 127
1, 133987, Note_off_c, 0, 52, 64
1, 134004, Note_on_c, 0, 54, 50
1, 134132, Note_off_c, 0, 54, 64
1, 134185, Note_on_c, 0, 57, 37
1, 134316, Note_off_c, 0, 57, 64
1, 134366, Note_on_c, 0, 64, 59
1, 134366, Note_on_c, 0, 54, 35
1, 134413, Note_off_c, 0, 61, 64
1, 134416, Note_off_c, 0, 54, 64
1, 134513, Note_on_c, 0, 63, 68
1, 134536, Note_off_c, 0, 64, 64
1, 134549, Note_on_c, 0, 52, 27
1, 134600, Note_off_c, 0, 52, 64
1, 134674, Note_on_c, 0, 64, 67
1, 134674, Note_on_c, 0, 49, 31
1, 134705, Note_off_c, 0, 63, 64
1, 134731, Note_off_c, 0, 49, 64
1, 134847, Note_on_c, 0, 61, 54
1, 134847, Note_on_c, 0, 44, 45
1, 134853, Control_c, 0, 64, 0
1, 134895, Note_off_c, 0, 64, 64
1, 135060, Note_on_c, 0, 49, 34
1, 135140, Control_c, 0, 64, 127
1, 135148, Note_off_c, 0, 49, 64
1, 135185, Note_off_c, 0, 44, 64
1, 135244, Note_off_c, 0, 61, 64
1, 135252, Note_on_c, 0, 52, 35
1, 135255, Note_on_c, 0, 68, 45
1, 135307, Note_off_c, 0, 52, 64
1, 135408, Note_on_c, 0, 56, 29
1, 135547, Note_off_c, 0, 56, 64
1, 135577, Note_on_c, 0, 59, 33
1, 135638, Note_off_c, 0, 59, 64
1, 135739, Note_on_c, 0, 56, 23
1, 135794, Note_off_c, 0, 56, 64
1, 135879, Note_on_c, 0, 64, 60
1, 135892, Note_on_c, 0, 52, 36
1, 135943, Note_off_c, 0, 52, 64
1, 136040, Note_on_c, 0, 49, 39
1, 136062, Note_off_c, 0, 68, 64
1, 136090, Note_off_c, 0, 49, 64
1, 136195, Control_c, 0, 64, 0
1, 136198, Note_on_c, 0, 45, 51
1, 136205, Note_on_c, 0, 63, 65
1, 136243, Note_off_c, 0, 64, 64
1, 136361, Note_on_c, 0, 61, 58
1, 136386, Note_off_c, 0, 63, 64
1, 136414, Note_on_c, 0, 52, 50
1, 136511, Note_on_c, 0, 63, 52
1, 136549, Note_off_c, 0, 61, 64
1, 136578, Control_c, 0, 64, 127
1, 136617, Note_on_c, 0, 54, 49
1, 136669, Note_on_c, 0, 64, 61
1, 136669, Note_off_c, 0, 63, 64
1, 136687, Note_off_c, 0, 45, 64
1, 136722, Note_off_c, 0, 52, 64
1, 136792, Note_off_c, 0, 54, 64
1, 136817, Note_on_c, 0, 57, 41
1, 136936, Note_off_c, 0, 57, 64
1, 136967, Note_on_c, 0, 61, 44
1, 137067, Note_off_c, 0, 61, 64
1, 137124, Note_on_c, 0, 68, 60
1, 137154, Note_on_c, 0, 57, 30
1, 137166, Note_off_c, 0, 64, 64
1, 137240, Note_off_c, 0, 57, 64
1, 137308, Note_on_c, 0, 66, 58
1, 137312, Note_on_c, 0, 54, 48
1, 137347, Note_off_c, 0, 68, 64
1, 137382, Note_off_c, 0, 54, 64
1, 137461, Note_on_c, 0, 68, 68
1, 137478, Note_on_c, 0, 52, 40
1, 137531, Note_off_c, 0, 66, 64
1, 137531, Note_off_c, 0, 52, 64
1, 137599, Control_c, 0, 64, 0
1, 137633, Note_on_c, 0, 46, 46
1, 137655, Note_on_c, 0, 64, 59
1, 137673, Note_off_c, 0, 68, 64
1, 137867, Note_on_c, 0, 52, 51
1, 137898, Control_c, 0, 64, 127
1, 137935, Note_off_c, 0, 46, 64
1, 138012, Note_off_c, 0, 52, 64
1, 138023, Note_on_c, 0, 73, 60
1, 138034, Note_on_c, 0, 56, 30
1, 138067, Note_off_c, 0, 64, 64
1, 138109, Note_off_c, 0, 56, 64
1, 138173, Note_on_c, 0, 61, 47
1, 138258, Note_off_c, 0, 61, 64
1, 138335, Note_on_c, 0, 49, 62
1, 138413, Control_c, 0, 64, 0
1, 138500, Note_on_c, 0, 54, 61
1, 138566, Note_off_c, 0, 49, 64
1, 138569, Control_c, 0, 64, 127
1, 138644, Note_on_c, 0, 70, 66
1, 138664, Note_off_c, 0, 73, 64
1, 138664, Note_off_c, 0, 54, 64
1, 138664, Note_on_c, 0, 58, 33
1, 138756, Note_off_c, 0, 58, 64
1, 138784, Note_on_c, 0, 73, 62
1, 138808, Note_off_c, 0, 70, 64
1, 138834, Note_on_c, 0, 64, 47
1, 138868, Note_on_c, 0, 70, 52
1, 138900, Note_off_c, 0, 64, 64
1, 138910, Note_off_c, 0, 73, 64
1, 138951, Control_c, 0, 64, 0
1, 138962, Note_on_c, 0, 52, 64
1, 138982, Note_on_c, 0, 68, 68
1, 138998, Note_off_c, 0, 70, 64
1, 139124, Note_on_c, 0, 58, 50
1, 139155, Control_c, 0, 64, 127
1, 139163, Note_off_c, 0, 52, 64
1, 139285, Note_on_c, 0, 61, 54
1, 139285, Note_off_c, 0, 58, 64
1, 139296, Note_on_c, 0, 76, 78
1, 139321, Note_off_c, 0, 68, 64
1, 139380, Note_off_c, 0, 61, 64
1, 139430, Note_on_c, 0, 68, 50
1, 139519, Note_off_c, 0, 68, 64
1, 139564, Note_on_c, 0, 54, 75
1, 139623, Control_c, 0, 64, 0
1, 139715, Note_on_c, 0, 61, 67
1, 139761, Note_off_c, 0, 54, 64
1, 139767, Control_c, 0, 64, 127
1, 139807, Note_off_c, 0, 76, 64
1, 139840, Note_on_c, 0, 73, 76
1, 139864, Note_off_c, 0, 61, 64
1, 139871, Note_on_c, 0, 64, 58
1, 139965, Note_on_c, 0, 76, 78
1, 139965, Note_off_c, 0, 64, 64
1, 139984, Note_off_c, 0, 73, 64
1, 140003, Note_on_c, 0, 70, 47
1, 140063, Note_on_c, 0, 73, 79
1, 140090, Note_off_c, 0, 76, 64
1, 140105, Note_off_c, 0, 70, 64
1, 140157, Note_on_c, 0, 58, 50
1, 140174, Control_c, 0, 64, 0
1, 140180, Note_on_c, 0, 80, 88
1, 140230, Note_off_c, 0, 73, 64
1, 140316, Note_on_c, 0, 64, 64
1, 140366, Control_c, 0, 64, 127
1, 140400, Note_off_c, 0, 58, 64
1, 140455, Note_on_c, 0, 68, 61
1, 140481, Note_off_c, 0, 64, 64
1, 140592, Note_on_c, 0, 78, 88
1, 140597, Note_off_c, 0, 68, 64
1, 140597, Note_on_c, 0, 73, 64
1, 140655, Note_off_c, 0, 80, 64
1, 140695, Note_off_c, 0, 73, 64
1, 140745, Note_on_c, 0, 61, 69
1, 140751, Note_on_c, 0, 80, 85
1, 140773, Control_c, 0, 64, 0
1, 140807, Note_off_c, 0, 78, 64
1, 140884, Note_on_c, 0, 66, 53
1, 140942, Control_c, 0, 64, 127
1, 140953, Note_off_c, 0, 61, 64
1, 141026, Note_on_c, 0, 70, 58
1, 141073, Note_off_c, 0, 66, 64
1, 141126, Note_off_c, 0, 70, 64
1, 141146, Note_on_c, 0, 78, 82
1, 141151, Note_on_c, 0, 76, 58
1, 141183, Note_off_c, 0, 76, 64
1, 141215, Note_off_c, 0, 80, 64
1, 141307, Note_on_c, 0, 58, 66
1, 141314, Note_on_c, 0, 80, 86
1, 141336, Control_c, 0, 64, 0
1, 141386, Note_off_c, 0, 78, 64
1, 141463, Note_on_c, 0, 64, 62
1, 141505, Control_c, 0, 64, 127
1, 141513, Note_off_c, 0, 58, 64
1, 141606, Note_on_c, 0, 68, 61
1, 141625, Note_off_c, 0, 64, 64
1, 141725, Note_off_c, 0, 68, 64
1, 141764, Note_on_c, 0, 78, 86
1, 141770, Note_on_c, 0, 73, 43
1, 141826, Note_off_c, 0, 80, 64
1, 141895, Note_off_c, 0, 73, 64
1, 141987, Note_on_c, 0, 80, 78
1, 141987, Note_on_c, 0, 61, 44
1, 142020, Control_c, 0, 64, 0
1, 142046, Note_off_c, 0, 78, 64
1, 142226, Note_on_c, 0, 78, 65
1, 142235, Note_on_c, 0, 66, 35
1, 142339, Note_off_c, 0, 80, 64
1, 142416, Note_off_c, 0, 61, 64
1, 142486, Note_on_c, 0, 70, 31
1, 142498, Control_c, 0, 64, 127
1, 142506, Note_off_c, 0, 66, 64
1, 142647, Note_off_c, 0, 70, 64
1, 142796, Note_on_c, 0, 80, 57
1, 142826, Note_on_c, 0, 76, 17
1, 142887, Note_off_c, 0, 76, 64
1, 142890, Note_off_c, 0, 78, 64
1, 143238, Note_on_c, 0, 81, 51
1, 143282, Note_on_c, 0, 61, 19
1, 143327, Control_c, 0, 64, 0
1, 143380, Note_off_c, 0, 80, 64
1, 143459, Note_on_c, 0, 64, 34
1, 143614, Note_on_c, 0, 69, 24
1, 143675, Control_c, 0, 64, 127
1, 143715, Note_off_c, 0, 61, 64
1, 143729, Note_off_c, 0, 64, 64
1, 143737, Note_off_c, 0, 69, 64
1, 143742, Note_on_c, 0, 73, 24
1, 143878, Note_off_c, 0, 73, 64
1, 143890, Note_on_c, 0, 76, 27
1, 143965, Note_off_c, 0, 76, 64
1, 143987, Note_on_c, 0, 78, 36
1, 144102, Note_off_c, 0, 78, 64
1, 144112, Note_on_c, 0, 80, 56
1, 144157, Note_off_c, 0, 81, 64
1, 144247, Note_on_c, 0, 75, 34
1, 144319, Note_off_c, 0, 75, 64
1, 144378, Note_on_c, 0, 71, 44
1, 144464, Control_c, 0, 64, 0
1, 144483, Note_on_c, 0, 68, 24
1, 144601, Note_off_c, 0, 71, 64
1, 144608, Note_on_c, 0, 63, 41
1, 144608, Control_c, 0, 64, 127
1, 144643, Note_off_c, 0, 68, 64
1, 144734, Note_off_c, 0, 63, 64
1, 144746, Note_on_c, 0, 59, 29
1, 144821, Note_off_c, 0, 59, 64
1, 144865, Note_on_c, 0, 78, 62
1, 144887, Note_on_c, 0, 57, 18
1, 144959, Note_off_c, 0, 80, 64
1, 144980, Control_c, 0, 64, 0
1, 145007, Note_on_c, 0, 61, 37
1, 145122, Note_on_c, 0, 66, 22
1, 145185, Control_c, 0, 64, 127
1, 145197, Note_off_c, 0, 57, 64
1, 145239, Note_off_c, 0, 66, 64
1, 145249, Note_on_c, 0, 69, 25
1, 145352, Note_off_c, 0, 61, 64
1, 145383, Note_off_c, 0, 69, 64
1, 145383, Note_on_c, 0, 73, 28
1, 145455, Note_off_c, 0, 73, 64
1, 145492, Note_on_c, 0, 75, 38
1, 145550, Note_off_c, 0, 75, 64
1, 145606, Note_on_c, 0, 76, 42
1, 145673, Note_off_c, 0, 78, 64
1, 145759, Control_c, 0, 64, 0
1, 145759, Note_on_c, 0, 71, 30
1, 145865, Note_on_c, 0, 68, 14
1, 145949, Note_off_c, 0, 71, 64
1, 145963, Note_on_c, 0, 64, 25
1, 145999, Control_c, 0, 64, 127
1, 146008, Note_off_c, 0, 68, 64
1, 146055, Note_off_c, 0, 64, 64
1, 146071, Note_off_c, 0, 76, 64
1, 146090, Note_on_c, 0, 59, 26
1, 146166, Note_off_c, 0, 59, 64
1, 146211, Note_on_c, 0, 56, 34
1, 146261, Note_off_c, 0, 56, 64
1, 146427, Note_on_c, 0, 81, 64
1, 146461, Note_on_c, 0, 61, 33
1, 146562, Control_c, 0, 64, 0
1, 146606, Note_on_c, 0, 64, 38
1, 146723, Note_off_c, 0, 64, 64
1, 146729, Control_c, 0, 64, 127
1, 146735, Note_on_c, 0, 69, 29
1, 146807, Note_off_c, 0, 69, 64
1, 146866, Note_on_c, 0, 73, 33
1, 146884, Note_on_c, 0, 83, 101
1, 146891, Note_off_c, 0, 81, 64
1, 146898, Note_on_c, 0, 76, 45
1, 146955, Note_off_c, 0, 76, 64
1, 146966, Note_off_c, 0, 73, 64
1, 147060, Note_on_c, 0, 69, 21
1, 147080, Note_off_c, 0, 83, 64
1, 147086, Note_off_c, 0, 61, 64
1, 147110, Note_on_c, 0, 85, 75
1, 147146, Note_off_c, 0, 69, 64
1, 147180, Note_on_c, 0, 64, 32
1, 147222, Note_off_c, 0, 64, 64
1, 147317, Note_on_c, 0, 81, 74
1, 147322, Note_off_c, 0, 85, 64
1, 147339, Note_on_c, 0, 59, 35
1, 147455, Note_on_c, 0, 63, 43
1, 147473, Control_c, 0, 64, 0
1, 147506, Note_on_c, 0, 80, 78
1, 147554, Note_off_c, 0, 81, 64
1, 147575, Note_on_c, 0, 68, 44
1, 147584, Note_off_c, 0, 63, 64
1, 147629, Control_c, 0, 64, 127
1, 147682, Note_off_c, 0, 68, 64
1, 147689, Note_on_c, 0, 75, 60
1, 147698, Note_on_c, 0, 81, 84
1, 147698, Note_off_c, 0, 59, 64
1, 147710, Note_on_c, 0, 71, 57
1, 147743, Note_off_c, 0, 80, 64
1, 147787, Note_off_c, 0, 71, 64
1, 147824, Note_on_c, 0, 68, 44
1, 147891, Note_on_c, 0, 80, 82
1, 147912, Note_off_c, 0, 81, 64
1, 147940, Note_on_c, 0, 63, 41
1, 147940, Note_off_c, 0, 68, 64
1, 148041, Note_off_c, 0, 63, 64
1, 148066, Note_on_c, 0, 57, 39
1, 148076, Note_on_c, 0, 73, 58
1, 148099, Note_off_c, 0, 75, 64
1, 148121, Control_c, 0, 64, 0
1, 148194, Note_on_c, 0, 61, 52
1, 148311, Control_c, 0, 64, 127
1, 148325, Note_on_c, 0, 66, 38
1, 148361, Note_off_c, 0, 57, 64
1, 148409, Note_off_c, 0, 61, 64
1, 148433, Note_off_c, 0, 66, 64
1, 148472, Note_on_c, 0, 69, 31
1, 148508, Note_on_c, 0, 78, 72
1, 148565, Note_off_c, 0, 69, 64
1, 148595, Note_off_c, 0, 80, 64
1, 148626, Note_on_c, 0, 66, 37
1, 148740, Note_on_c, 0, 61, 41
1, 148746, Note_off_c, 0, 66, 64
1, 148785, Note_off_c, 0, 61, 64
1, 148851, Note_on_c, 0, 56, 52
1, 148854, Note_on_c, 0, 71, 66
1, 148912, Control_c, 0, 64, 0
1, 148924, Note_off_c, 0, 73, 64
1, 148988, Note_on_c, 0, 59, 44
1, 149105, Note_off_c, 0, 59, 64
1, 149114, Control_c, 0, 64, 127
1, 149121, Note_on_c, 0, 64, 43
1, 149160, Note_off_c, 0, 56, 64
1, 149169, Note_off_c, 0, 64, 64
1, 149203, Note_on_c, 0, 76, 72
1, 149227, Note_on_c, 0, 68, 38
1, 149280, Note_off_c, 0, 68, 64
1, 149313, Note_off_c, 0, 78, 64
1, 149347, Note_on_c, 0, 64, 41
1, 149366, Note_off_c, 0, 71, 64
1, 149440, Note_off_c, 0, 64, 64
1, 149444, Note_on_c, 0, 59, 47
1, 149492, Note_off_c, 0, 59, 64
1, 149618, Note_on_c, 0, 54, 67
1, 149793, Note_on_c, 0, 57, 46
1, 149826, Note_on_c, 0, 74, 83
1, 149879, Note_off_c, 0, 76, 64
1, 149930, Note_off_c, 0, 57, 64
1, 149938, Note_on_c, 0, 62, 37
1, 149999, Note_off_c, 0, 62, 64
1, 150055, Note_on_c, 0, 76, 77
1, 150068, Note_on_c, 0, 69, 47
1, 150074, Control_c, 0, 64, 0
1, 150079, Note_on_c, 0, 66, 41
1, 150105, Note_off_c, 0, 74, 64
1, 150183, Note_off_c, 0, 66, 64
1, 150194, Control_c, 0, 64, 127
1, 150217, Note_on_c, 0, 62, 41
1, 150259, Note_on_c, 0, 78, 67
1, 150292, Note_off_c, 0, 54, 64
1, 150295, Note_on_c, 0, 57, 52
1, 150303, Note_off_c, 0, 76, 64
1, 150319, Note_off_c, 0, 62, 64
1, 150345, Note_off_c, 0, 57, 64
1, 150425, Note_off_c, 0, 78, 64
1, 150462, Note_on_c, 0, 52, 74
1, 150472, Note_on_c, 0, 75, 20
1, 150497, Note_on_c, 0, 74, 77
1, 150520, Note_off_c, 0, 75, 64
1, 150617, Note_on_c, 0, 56, 43
1, 150692, Note_on_c, 0, 73, 73
1, 150712, Note_off_c, 0, 74, 64
1, 150740, Note_on_c, 0, 61, 54
1, 150760, Note_off_c, 0, 56, 64
1, 150852, Note_off_c, 0, 61, 64
1, 150868, Note_on_c, 0, 68, 53
1, 150868, Note_on_c, 0, 74, 82
1, 150876, Control_c, 0, 64, 0
1, 150880, Note_on_c, 0, 64, 58
1, 150885, Note_off_c, 0, 73, 64
1, 150926, Note_off_c, 0, 69, 64
1, 150985, Note_on_c, 0, 61, 56
1, 150997, Note_off_c, 0, 64, 64
1, 151008, Control_c, 0, 64, 127
1, 151060, Note_off_c, 0, 52, 64
1, 151063, Note_on_c, 0, 73, 71
1, 151078, Note_off_c, 0, 74, 64
1, 151110, Note_on_c, 0, 56, 57
1, 151130, Note_off_c, 0, 61, 64
1, 151219, Note_on_c, 0, 50, 63
1, 151242, Note_off_c, 0, 56, 64
1, 151242, Note_on_c, 0, 66, 59
1, 151266, Note_off_c, 0, 68, 64
1, 151272, Control_c, 0, 64, 0
1, 151362, Note_on_c, 0, 54, 62
1, 151464, Control_c, 0, 64, 127
1, 151469, Note_on_c, 0, 59, 48
1, 151473, Note_off_c, 0, 50, 64
1, 151531, Note_off_c, 0, 54, 64
1, 151567, Note_off_c, 0, 59, 64
1, 151579, Note_on_c, 0, 71, 81
1, 151606, Note_on_c, 0, 62, 49
1, 151623, Note_off_c, 0, 73, 64
1, 151704, Note_off_c, 0, 62, 64
1, 151727, Note_on_c, 0, 59, 30
1, 151784, Note_on_c, 0, 54, 59
1, 151788, Note_off_c, 0, 59, 64
1, 151827, Note_off_c, 0, 54, 64
1, 151929, Note_on_c, 0, 64, 63
1, 151949, Note_on_c, 0, 49, 52
1, 151975, Note_off_c, 0, 66, 64
1, 152075, Control_c, 0, 64, 0
1, 152080, Note_on_c, 0, 52, 50
1, 152180, Note_on_c, 0, 57, 39
1, 152206, Note_off_c, 0, 52, 64
1, 152255, Control_c, 0, 64, 127
1, 152280, Note_off_c, 0, 57, 64
1, 152323, Note_on_c, 0, 61, 47
1, 152347, Note_on_c, 0, 69, 59
1, 152380, Note_off_c, 0, 71, 64
1, 152412, Note_off_c, 0, 61, 64
1, 152476, Note_on_c, 0, 57, 40
1, 152498, Note_off_c, 0, 49, 64
1, 152596, Note_on_c, 0, 52, 46
1, 152612, Note_off_c, 0, 57, 64
1, 152628, Note_off_c, 0, 64, 64
1, 152674, Note_off_c, 0, 52, 64
1, 152777, Note_on_c, 0, 62, 73
1, 152788, Note_on_c, 0, 47, 62
1, 152902, Control_c, 0, 64, 0
1, 152972, Note_on_c, 0, 53, 67
1, 152988, Note_on_c, 0, 68, 76
1, 153033, Note_off_c, 0, 69, 64
1, 153061, Note_on_c, 0, 56, 43
1, 153082, Note_off_c, 0, 53, 64
1, 153082, Control_c, 0, 64, 127
1, 153110, Note_off_c, 0, 47, 64
1, 153136, Note_off_c, 0, 56, 64
1, 153166, Note_on_c, 0, 69, 75
1, 153188, Note_on_c, 0, 59, 52
1, 153214, Note_off_c, 0, 68, 64
1, 153301, Note_on_c, 0, 56, 44
1, 153333, Note_on_c, 0, 68, 81
1, 153356, Note_off_c, 0, 62, 64
1, 153356, Note_off_c, 0, 69, 64
1, 153379, Note_off_c, 0, 59, 64
1, 153386, Note_on_c, 0, 53, 66
1, 153411, Note_off_c, 0, 56, 64
1, 153422, Note_off_c, 0, 53, 64
1, 153521, Note_on_c, 0, 61, 57
1, 153525, Note_on_c, 0, 73, 63
1, 153537, Note_on_c, 0, 45, 59
1, 153562, Note_off_c, 0, 68, 64
1, 153598, Control_c, 0, 64, 0
1, 153679, Note_on_c, 0, 49, 50
1, 153724, Note_on_c, 0, 69, 63
1, 153799, Note_on_c, 0, 54, 52
1, 153813, Control_c, 0, 64, 127
1, 153824, Note_off_c, 0, 73, 64
1, 153840, Note_off_c, 0, 45, 64
1, 153857, Note_off_c, 0, 49, 64
1, 153880, Note_off_c, 0, 54, 64
1, 153946, Note_on_c, 0, 57, 34
1, 153969, Note_on_c, 0, 66, 63
1, 153999, Note_off_c, 0, 69, 64
1, 154097, Note_off_c, 0, 57, 64
1, 154103, Note_on_c, 0, 54, 59
1, 154220, Note_off_c, 0, 61, 64
1, 154220, Note_on_c, 0, 49, 40
1, 154228, Note_off_c, 0, 54, 64
1, 154273, Note_off_c, 0, 49, 64
1, 154340, Note_on_c, 0, 59, 68
1, 154358, Note_on_c, 0, 44, 48
1, 154521, Note_on_c, 0, 47, 35
1, 154606, Note_on_c, 0, 64, 77
1, 154631, Note_off_c, 0, 66, 64
1, 154663, Control_c, 0, 64, 0
1, 154724, Note_on_c, 0, 52, 49
1, 154746, Note_off_c, 0, 47, 64
1, 154855, Control_c, 0, 64, 127
1, 154900, Note_off_c, 0, 52, 64
1, 154911, Note_on_c, 0, 56, 36
1, 154963, Note_on_c, 0, 66, 63
1, 155005, Note_off_c, 0, 64, 64
1, 155035, Note_off_c, 0, 56, 64
1, 155128, Note_off_c, 0, 44, 64
1, 155128, Note_on_c, 0, 52, 53
1, 155236, Note_on_c, 0, 64, 70
1, 155269, Note_off_c, 0, 52, 64
1, 155328, Note_on_c, 0, 47, 36
1, 155337, Note_off_c, 0, 66, 64
1, 155434, Note_off_c, 0, 47, 64
1, 155473, Note_off_c, 0, 59, 64
1, 155624, Note_on_c, 0, 69, 49
1, 155635, Note_on_c, 0, 42, 29
1, 155719, Control_c, 0, 64, 0
1, 155808, Note_off_c, 0, 64, 64
1, 155869, Note_on_c, 0, 49, 42
1, 155982, Control_c, 0, 64, 127
1, 156016, Note_off_c, 0, 42, 64
1, 156022, Note_off_c, 0, 49, 64
1, 156069, Note_on_c, 0, 52, 46
1, 156189, Note_off_c, 0, 52, 64
1, 156211, Note_on_c, 0, 54, 50
1, 156375, Note_on_c, 0, 57, 43
1, 156404, Note_off_c, 0, 54, 64
1, 156454, Note_off_c, 0, 57, 64
1, 156509, Note_on_c, 0, 59, 43
1, 156514, Note_off_c, 0, 69, 64
1, 156620, Note_off_c, 0, 59, 64
1, 156637, Note_on_c, 0, 61, 50
1, 156772, Note_on_c, 0, 64, 42
1, 156838, Note_off_c, 0, 61, 64
1, 156896, Note_on_c, 0, 69, 47
1, 156919, Note_off_c, 0, 64, 64
1, 157022, Note_on_c, 0, 71, 63
1, 157047, Note_off_c, 0, 69, 64
1, 157134, Note_off_c, 0, 71, 64
1, 157138, Note_on_c, 0, 73, 52
1, 157234, Note_off_c, 0, 73, 64
1, 157251, Note_on_c, 0, 76, 67
1, 157389, Note_on_c, 0, 81, 68
1, 157401, Note_off_c, 0, 76, 64
1, 157506, Note_on_c, 0, 83, 91
1, 157521, Note_off_c, 0, 81, 64
1, 157621, Note_on_c, 0, 85, 61
1, 157638, Note_off_c, 0, 83, 64
1, 157752, Note_on_c, 0, 88, 61
1, 157765, Note_off_c, 0, 85, 64
1, 157861, Note_on_c, 0, 85, 44
1, 157886, Note_off_c, 0, 88, 64
1, 157985, Note_on_c, 0, 83, 77
1, 157997, Note_off_c, 0, 85, 64
1, 158097, Note_off_c, 0, 83, 64
1, 158122, Note_on_c, 0, 81, 44
1, 158166, Note_off_c, 0, 81, 64
1, 158231, Note_on_c, 0, 76, 25
1, 158345, Note_on_c, 0, 73, 41
1, 158361, Note_off_c, 0, 76, 64
1, 158484, Note_off_c, 0, 73, 64
1, 158489, Note_on_c, 0, 71, 43
1, 158582, Note_off_c, 0, 71, 64
1, 158635, Note_on_c, 0, 69, 31
1, 158694, Note_off_c, 0, 69, 64
1, 158802, Note_on_c, 0, 64, 39
1, 159025, Note_on_c, 0, 68, 59
1, 159025, Control_c, 0, 64, 0
1, 159044, Note_off_c, 0, 64, 64
1, 159056, Note_on_c, 0, 35, 42
1, 159237, Note_off_c, 0, 35, 64
1, 159242, Control_c, 0, 64, 127
1, 159287, Note_on_c, 0, 47, 24
1, 159342, Note_off_c, 0, 47, 64
1, 159459, Note_on_c, 0, 51, 46
1, 159599, Note_off_c, 0, 51, 64
1, 159607, Note_on_c, 0, 56, 39
1, 159696, Note_off_c, 0, 56, 64
1, 159757, Note_on_c, 0, 59, 53
1, 159800, Note_off_c, 0, 59, 64
1, 159832, Note_off_c, 0, 68, 64
1, 159861, Note_on_c, 0, 63, 50
1, 159970, Note_off_c, 0, 63, 64
1, 159999, Note_on_c, 0, 68, 48
1, 160048, Note_off_c, 0, 68, 64
1, 160114, Note_on_c, 0, 71, 60
1, 160164, Note_off_c, 0, 71, 64
1, 160239, Note_on_c, 0, 75, 46
1, 160364, Note_on_c, 0, 80, 55
1, 160387, Note_off_c, 0, 75, 64
1, 160490, Note_off_c, 0, 80, 64
1, 160504, Note_on_c, 0, 83, 73
1, 160552, Note_off_c, 0, 83, 64
1, 160643, Note_on_c, 0, 71, 45
1, 160794, Note_on_c, 0, 66, 46
1, 160800, Control_c, 0, 64, 0
1, 160808, Note_on_c, 0, 35, 31
1, 160833, Note_off_c, 0, 71, 64
1, 160933, Note_off_c, 0, 35, 64
1, 160974, Note_on_c, 0, 47, 24
1, 160980, Control_c, 0, 64, 127
1, 161025, Note_off_c, 0, 47, 64
1, 161120, Note_on_c, 0, 51, 27
1, 161197, Note_off_c, 0, 51, 64
1, 161243, Note_on_c, 0, 57, 24
1, 161351, Note_off_c, 0, 57, 64
1, 161403, Note_on_c, 0, 59, 21
1, 161498, Note_on_c, 0, 63, 36
1, 161559, Note_off_c, 0, 66, 64
1, 161566, Note_off_c, 0, 63, 64
1, 161648, Note_on_c, 0, 69, 36
1, 161693, Note_off_c, 0, 69, 64
1, 161788, Note_on_c, 0, 71, 36
1, 161833, Note_off_c, 0, 71, 64
1, 161841, Note_off_c, 0, 59, 64
1, 161900, Note_on_c, 0, 75, 35
1, 161961, Note_off_c, 0, 75, 64
1, 162083, Note_on_c, 0, 81, 25
1, 162254, Note_off_c, 0, 81, 64
1, 162264, Note_on_c, 0, 83, 43
1, 162376, Note_off_c, 0, 83, 64
1, 162482, Note_on_c, 0, 71, 38
1, 162535, Note_off_c, 0, 71, 64
1, 162752, Note_on_c, 0, 64, 32
1, 162756, Note_on_c, 0, 40, 31
1, 162838, Control_c, 0, 64, 0
1, 163050, Note_off_c, 0, 64, 64
1, 163050, Control_c, 0, 64, 127
1, 163081, Note_on_c, 0, 47, 20
1, 163225, Note_off_c, 0, 40, 64
1, 163267, Note_off_c, 0, 47, 64
1, 163440, Note_on_c, 0, 88, 29
1, 163452, Note_on_c, 0, 52, 25
1, 163638, Note_off_c, 0, 52, 64
1, 163663, Note_off_c, 0, 88, 64
1, 163663, Note_on_c, 0, 90, 31
1, 163730, Note_off_c, 0, 90, 64
1, 163730, Note_on_c, 0, 56, 18
1, 163794, Note_on_c, 0, 85, 38
1, 163888, Note_off_c, 0, 56, 64
1, 163947, Note_on_c, 0, 88, 33
1, 163957, Note_off_c, 0, 85, 64
1, 163975, Note_on_c, 0, 59, 11
1, 164070, Note_off_c, 0, 88, 64
1, 164083, Note_off_c, 0, 59, 64
1, 164094, Note_on_c, 0, 83, 58
1, 164126, Note_on_c, 0, 56, 28
1, 164168, Note_off_c, 0, 83, 64
1, 164192, Note_off_c, 0, 56, 64
1, 164204, Note_on_c, 0, 85, 42
1, 164334, Note_on_c, 0, 80, 44
1, 164342, Note_on_c, 0, 52, 37
1, 164346, Note_off_c, 0, 85, 64
1, 164418, Note_off_c, 0, 52, 64
1, 164463, Note_off_c, 0, 80, 64
1, 164463, Note_on_c, 0, 83, 72
1, 164526, Note_on_c, 0, 47, 15
1, 164543, Note_off_c, 0, 83, 64
1, 164579, Note_on_c, 0, 78, 51
1, 164599, Note_off_c, 0, 47, 64
1, 164705, Note_on_c, 0, 80, 56
1, 164716, Note_off_c, 0, 78, 64
1, 164716, Note_on_c, 0, 40, 34
1, 164849, Note_off_c, 0, 80, 64
1, 164849, Note_on_c, 0, 76, 44
1, 164886, Control_c, 0, 64, 0
1, 164939, Note_on_c, 0, 49, 28
1, 164980, Note_on_c, 0, 80, 41
1, 165017, Note_off_c, 0, 76, 64
1, 165044, Note_off_c, 0, 40, 64
1, 165067, Control_c, 0, 64, 127
1, 165123, Note_off_c, 0, 49, 64
1, 165168, Note_on_c, 0, 75, 46
1, 165181, Note_off_c, 0, 80, 64
1, 165198, Note_on_c, 0, 52, 13
1, 165275, Note_off_c, 0, 52, 64
1, 165346, Note_on_c, 0, 56, 20
1, 165516, Note_off_c, 0, 56, 64
1, 165535, Note_on_c, 0, 61, 27
1, 165691, Note_off_c, 0, 61, 64
1, 165743, Note_on_c, 0, 56, 35
1, 165900, Note_off_c, 0, 56, 64
1, 165948, Note_on_c, 0, 73, 40
1, 165966, Note_on_c, 0, 52, 32
1, 166058, Note_off_c, 0, 75, 64
1, 166115, Note_off_c, 0, 52, 64
1, 166175, Note_on_c, 0, 49, 38
1, 166229, Note_off_c, 0, 49, 64
1, 166454, Note_on_c, 0, 71, 45
1, 166468, Note_on_c, 0, 40, 38
1, 166535, Note_off_c, 0, 73, 64
1, 166541, Control_c, 0, 64, 0
1, 166705, Note_on_c, 0, 47, 34
1, 166756, Note_off_c, 0, 40, 64
1, 166756, Control_c, 0, 64, 127
1, 166834, Note_off_c, 0, 47, 64
1, 166930, Note_on_c, 0, 76, 35
1, 166950, Note_on_c, 0, 52, 25
1, 167005, Note_off_c, 0, 71, 64
1, 167059, Note_off_c, 0, 52, 64
1, 167065, Note_on_c, 0, 78, 38
1, 167098, Note_off_c, 0, 76, 64
1, 167134, Note_on_c, 0, 56, 16
1, 167134, Note_off_c, 0, 78, 64
1, 167173, Note_on_c, 0, 73, 35
1, 167276, Note_off_c, 0, 56, 64
1, 167296, Note_off_c, 0, 73, 64
1, 167296, Note_on_c, 0, 76, 41
1, 167329, Note_on_c, 0, 59, 15
1, 167418, Note_off_c, 0, 76, 64
1, 167424, Note_on_c, 0, 71, 40
1, 167437, Note_off_c, 0, 59, 64
1, 167487, Note_off_c, 0, 71, 64
1, 167487, Note_on_c, 0, 56, 28
1, 167512, Note_on_c, 0, 73, 42
1, 167543, Note_off_c, 0, 56, 64
1, 167632, Note_off_c, 0, 73, 64
1, 167632, Note_on_c, 0, 68, 38
1, 167657, Note_on_c, 0, 52, 26
1, 167727, Note_off_c, 0, 52, 64
1, 167749, Note_off_c, 0, 68, 64
1, 167749, Note_on_c, 0, 71, 51
1, 167833, Note_on_c, 0, 47, 13
1, 167855, Note_off_c, 0, 71, 64
1, 167864, Note_on_c, 0, 66, 32
1, 167939, Note_off_c, 0, 47, 64
1, 167994, Note_on_c, 0, 68, 35
1, 168011, Note_off_c, 0, 66, 64
1, 168011, Note_on_c, 0, 40, 37
1, 168109, Note_off_c, 0, 68, 64
1, 168132, Note_on_c, 0, 64, 40
1, 168218, Control_c, 0, 64, 0
1, 168237, Note_on_c, 0, 68, 32
1, 168237, Note_on_c, 0, 49, 26
1, 168257, Note_off_c, 0, 64, 64
1, 168382, Note_off_c, 0, 40, 64
1, 168424, Note_on_c, 0, 63, 45
1, 168435, Control_c, 0, 64, 127
1, 168443, Note_off_c, 0, 68, 64
1, 168460, Note_off_c, 0, 49, 64
1, 168474, Note_on_c, 0, 52, 26
1, 168558, Note_off_c, 0, 52, 64
1, 168647, Note_on_c, 0, 56, 21
1, 168822, Note_off_c, 0, 56, 64
1, 168856, Note_on_c, 0, 61, 18
1, 168995, Note_off_c, 0, 61, 64
1, 169076, Note_on_c, 0, 56, 19
1, 169162, Note_off_c, 0, 56, 64
1, 169341, Note_on_c, 0, 61, 35
1, 169341, Note_on_c, 0, 52, 31
1, 169418, Note_off_c, 0, 63, 64
1, 169460, Note_off_c, 0, 52, 64
1, 169529, Note_off_c, 0, 61, 64
1, 169605, Note_on_c, 0, 49, 20
1, 169664, Note_off_c, 0, 49, 64
1, 169997, Note_on_c, 0, 40, 46
1, 170149, Note_on_c, 0, 59, 34
1, 170302, Note_on_c, 0, 52, 32
1, 170430, Note_off_c, 0, 59, 64
1, 170430, Note_off_c, 0, 52, 64
1, 170504, Note_on_c, 0, 47, 36
1, 170627, Control_c, 0, 64, 0
1, 170639, Note_on_c, 0, 61, 42
1, 170724, Control_c, 0, 64, 127
1, 170763, Note_on_c, 0, 56, 42
1, 170816, Note_off_c, 0, 61, 64
1, 170822, Note_off_c, 0, 56, 64
1, 170915, Note_off_c, 0, 40, 64
1, 170920, Note_on_c, 0, 52, 40
1, 170945, Note_off_c, 0, 47, 64
1, 171062, Note_on_c, 0, 64, 44
1, 171165, Note_off_c, 0, 64, 64
1, 171181, Note_off_c, 0, 52, 64
1, 171185, Note_on_c, 0, 59, 25
1, 171242, Note_off_c, 0, 59, 64
1, 171263, Note_on_c, 0, 56, 36
1, 171388, Note_on_c, 0, 66, 35
1, 171449, Note_off_c, 0, 56, 64
1, 171490, Note_on_c, 0, 61, 42
1, 171538, Note_off_c, 0, 66, 64
1, 171543, Note_off_c, 0, 61, 64
1, 171627, Note_on_c, 0, 52, 41
1, 171748, Note_on_c, 0, 71, 42
1, 171802, Note_off_c, 0, 52, 64
1, 171823, Note_off_c, 0, 71, 64
1, 171845, Note_on_c, 0, 64, 39
1, 171894, Note_off_c, 0, 64, 64
1, 171961, Note_on_c, 0, 59, 35
1, 172076, Note_on_c, 0, 73, 36
1, 172153, Note_off_c, 0, 59, 64
1, 172182, Note_on_c, 0, 68, 28
1, 172227, Note_off_c, 0, 73, 64
1, 172240, Note_off_c, 0, 68, 64
1, 172302, Note_on_c, 0, 64, 29
1, 172418, Note_on_c, 0, 76, 32
1, 172483, Note_off_c, 0, 64, 64
1, 172486, Note_off_c, 0, 76, 64
1, 172521, Note_on_c, 0, 71, 29
1, 172582, Note_off_c, 0, 71, 64
1, 172621, Note_on_c, 0, 68, 27
1, 172739, Note_on_c, 0, 78, 40
1, 172761, Note_off_c, 0, 68, 64
1, 172850, Note_on_c, 0, 73, 42
1, 172878, Note_off_c, 0, 78, 64
1, 172898, Note_off_c, 0, 73, 64
1, 172982, Note_on_c, 0, 64, 31
1, 173056, Note_off_c, 0, 64, 64
1, 173084, Note_on_c, 0, 83, 73
1, 173209, Note_off_c, 0, 83, 64
1, 173212, Note_on_c, 0, 76, 24
1, 173263, Note_off_c, 0, 76, 64
1, 173315, Note_on_c, 0, 71, 31
1, 173425, Note_on_c, 0, 85, 35
1, 173503, Note_off_c, 0, 71, 64
1, 173516, Note_on_c, 0, 80, 44
1, 173544, Note_off_c, 0, 85, 64
1, 173574, Note_off_c, 0, 80, 64
1, 173649, Note_on_c, 0, 76, 26
1, 173759, Note_on_c, 0, 88, 43
1, 173812, Note_off_c, 0, 76, 64
1, 173873, Note_off_c, 0, 88, 64
1, 173884, Note_on_c, 0, 83, 57
1, 173936, Note_off_c, 0, 83, 64
1, 174000, Note_on_c, 0, 80, 28
1, 174121, Note_on_c, 0, 90, 44
1, 174196, Note_off_c, 0, 90, 64
1, 174207, Note_off_c, 0, 80, 64
1, 174254, Note_on_c, 0, 85, 22
1, 174361, Note_off_c, 0, 85, 64
1, 174421, Note_on_c, 0, 92, 28
1, 174429, Note_on_c, 0, 88, 18
1, 174429, Note_on_c, 0, 83, 36
1, 174435, Note_on_c, 0, 76, 15
1, 174486, Control_c, 0, 64, 0
1, 174647, Note_off_c, 0, 76, 64
1, 174678, Control_c, 0, 64, 127
1, 174684, Note_off_c, 0, 83, 64
1, 174705, Note_off_c, 0, 88, 64
1, 174733, Note_off_c, 0, 92, 64
1, 175004, Note_on_c, 0, 92, 34
1, 175009, Note_on_c, 0, 88, 21
1, 175009, Note_on_c, 0, 83, 29
1, 175009, Note_on_c, 0, 76, 12
1, 175330, Note_off_c, 0, 88, 64
1, 175482, Note_off_c, 0, 76, 64
1, 175496, Note_off_c, 0, 83, 64
1, 175517, Note_off_c, 0, 92, 64
1, 176199, Note_on_c, 0, 83, 27
1, 176199, Note_on_c, 0, 92, 14
1, 176204, Note_on_c, 0, 88, 14
1, 176204, Note_on_c, 0, 76, 7
1, 176299, Note_off_c, 0, 76, 64
1, 176311, Note_off_c, 0, 83, 64
1, 176324, Note_off_c, 0, 88, 64
1, 176418, Note_off_c, 0, 92, 64
1, 177375, Note_on_c, 0, 64, 21
1, 177375, Note_on_c, 0, 52, 17
1, 177380, Note_on_c, 0, 40, 25
1, 177478, Note_off_c, 0, 52, 64
1, 177492, Note_off_c, 0, 40, 64
1, 177500, Note_off_c, 0, 64, 64
1, 177914, Control_c, 0, 64, 0
1, 179712, Control_c, 0, 64, 0
1, 181210, End_track
0, 0, End_of_file
