0, 0, Header, 1, 2, 480
1, 0, Start_track
1, 0, Title_t, "untitled"
1, 0, Time_signature, 4, 2, 24, 8
1, 0, Key_signature, 0, "major"
1, 0, Tempo, 500000
1, 0, Marker_t, "Doctor Gradus ad Parnassum"
1, 120960, Marker_t, "Jimbo's Lullaby"
1, 311040, Marker_t, "Serenade for the Doll"
1, 451200, Marker_t, "The Snow is Dancing"
1, 595200, Marker_t, "The Little Shepherd"
1, 718080, Marker_t, "Golliwogg's Cakewalk"
1, 718080, End_track
2, 0, Start_track
2, 0, Title_t, "Debussy: Children's Corner"
2, 0, Control_c, 0, 7, 100
2, 0, Control_c, 0, 91, 127
2, 0, Note_on_c, 0, 36, 49
2, 148, Note_on_c, 0, 48, 58
2, 264, Note_on_c, 0, 36, 0
2, 416, Note_on_c, 0, 55, 27
2, 524, Note_on_c, 0, 60, 51
2, 536, Note_on_c, 0, 55, 0
2, 636, Note_on_c, 0, 60, 0
2, 668, Note_on_c, 0, 62, 41
2, 738, Note_on_c, 0, 62, 0
2, 738, Note_on_c, 0, 64, 68
2, 800, Note_on_c, 0, 64, 0
2, 842, Note_on_c, 0, 55, 58
2, 914, Note_on_c, 0, 55, 0
2, 928, Note_on_c, 0, 60, 65
2, 1002, Note_on_c, 0, 60, 0
2, 1022, Note_on_c, 0, 64, 62
2, 1082, Note_on_c, 0, 64, 0
2, 1102, Note_on_c, 0, 62, 73
2, 1168, Note_on_c, 0, 62, 0
2, 1192, Note_on_c, 0, 53, 87
2, 1254, Note_on_c, 0, 53, 0
2, 1280, Note_on_c, 0, 60, 67
2, 1360, Note_on_c, 0, 62, 75
2, 1390, Note_on_c, 0, 60, 0
2, 1444, Note_on_c, 0, 65, 75
2, 1470, Note_on_c, 0, 62, 0
2, 1528, Note_on_c, 0, 65, 0
2, 1544, Note_on_c, 0, 57, 45
2, 1612, Note_on_c, 0, 57, 0
2, 1620, Note_on_c, 0, 59, 69
2, 1700, Note_on_c, 0, 59, 0
2, 1700, Note_on_c, 0, 65, 59
2, 1784, Note_on_c, 0, 65, 0
2, 1799, Note_on_c, 0, 64, 81
2, 1858, Note_on_c, 0, 64, 0
2, 1894, Note_on_c, 0, 55, 69
2, 1954, Note_on_c, 0, 55, 0
2, 1976, Note_on_c, 0, 60, 70
2, 2040, Note_on_c, 0, 60, 0
2, 2054, Note_on_c, 0, 64, 75
2, 2122, Note_on_c, 0, 64, 0
2, 2142, Note_on_c, 0, 67, 73
2, 2228, Note_on_c, 0, 67, 0
2, 2230, Note_on_c, 0, 59, 62
2, 2282, Note_on_c, 0, 59, 0
2, 2302, Note_on_c, 0, 60, 61
2, 2380, Note_on_c, 0, 67, 67
2, 2382, Note_on_c, 0, 60, 0
2, 2454, Note_on_c, 0, 67, 0
2, 2482, Note_on_c, 0, 65, 69
2, 2560, Note_on_c, 0, 57, 60
2, 2570, Note_on_c, 0, 65, 0
2, 2622, Note_on_c, 0, 57, 0
2, 2634, Note_on_c, 0, 60, 85
2, 2696, Note_on_c, 0, 60, 0
2, 2734, Note_on_c, 0, 65, 66
2, 2794, Note_on_c, 0, 65, 0
2, 2814, Note_on_c, 0, 69, 54
2, 2900, Note_on_c, 0, 59, 65
2, 2918, Note_on_c, 0, 69, 0
2, 2966, Note_on_c, 0, 59, 0
2, 2998, Note_on_c, 0, 65, 52
2, 3054, Note_on_c, 0, 65, 0
2, 3066, Note_on_c, 0, 69, 58
2, 3142, Note_on_c, 0, 69, 0
2, 3172, Note_on_c, 0, 67, 57
2, 3228, Note_on_c, 0, 60, 58
2, 3242, Note_on_c, 0, 67, 0
2, 3292, Note_on_c, 0, 60, 0
2, 3316, Note_on_c, 0, 64, 67
2, 3374, Note_on_c, 0, 64, 0
2, 3430, Note_on_c, 0, 67, 58
2, 3454, Note_on_c, 0, 48, 0
2, 3492, Note_on_c, 0, 67, 0
2, 3492, Note_on_c, 0, 60, 41
2, 3502, Note_on_c, 0, 72, 61
2, 3600, Note_on_c, 0, 64, 59
2, 3624, Note_on_c, 0, 72, 0
2, 3658, Note_on_c, 0, 64, 0
2, 3694, Note_on_c, 0, 67, 54
2, 3776, Note_on_c, 0, 67, 0
2, 3786, Note_on_c, 0, 72, 61
2, 3866, Note_on_c, 0, 72, 0
2, 3902, Note_on_c, 0, 74, 65
2, 3922, Note_on_c, 0, 59, 51
2, 3960, Note_on_c, 0, 74, 0
2, 3998, Note_on_c, 0, 64, 60
2, 4064, Note_on_c, 0, 64, 0
2, 4094, Note_on_c, 0, 67, 56
2, 4144, Note_on_c, 0, 74, 68
2, 4168, Note_on_c, 0, 67, 0
2, 4228, Note_on_c, 0, 74, 0
2, 4258, Note_on_c, 0, 72, 75
2, 4268, Note_on_c, 0, 57, 60
2, 4284, Note_on_c, 0, 59, 0
2, 4338, Note_on_c, 0, 72, 0
2, 4352, Note_on_c, 0, 64, 73
2, 4410, Note_on_c, 0, 64, 0
2, 4446, Note_on_c, 0, 67, 64
2, 4508, Note_on_c, 0, 72, 77
2, 4510, Note_on_c, 0, 67, 0
2, 4596, Note_on_c, 0, 72, 0
2, 4596, Note_on_c, 0, 57, 0
2, 4612, Note_on_c, 0, 71, 91
2, 4615, Note_on_c, 0, 59, 60
2, 4686, Note_on_c, 0, 64, 70
2, 4689, Note_on_c, 0, 71, 0
2, 4744, Note_on_c, 0, 60, 0
2, 4744, Note_on_c, 0, 64, 0
2, 4774, Note_on_c, 0, 67, 73
2, 4842, Note_on_c, 0, 67, 0
2, 4848, Note_on_c, 0, 71, 84
2, 4946, Note_on_c, 0, 71, 0
2, 4948, Note_on_c, 0, 69, 76
2, 4956, Note_on_c, 0, 60, 76
2, 4962, Note_on_c, 0, 59, 0
2, 5030, Note_on_c, 0, 69, 0
2, 5046, Note_on_c, 0, 64, 52
2, 5112, Note_on_c, 0, 64, 0
2, 5122, Note_on_c, 0, 67, 74
2, 5184, Note_on_c, 0, 67, 0
2, 5208, Note_on_c, 0, 69, 69
2, 5286, Note_on_c, 0, 69, 0
2, 5290, Note_on_c, 0, 59, 70
2, 5294, Note_on_c, 0, 60, 0
2, 5298, Note_on_c, 0, 67, 58
2, 5372, Note_on_c, 0, 60, 66
2, 5375, Note_on_c, 0, 67, 0
2, 5450, Note_on_c, 0, 60, 0
2, 5462, Note_on_c, 0, 64, 62
2, 5530, Note_on_c, 0, 64, 0
2, 5534, Note_on_c, 0, 67, 66
2, 5622, Note_on_c, 0, 67, 0
2, 5630, Note_on_c, 0, 65, 65
2, 5642, Note_on_c, 0, 59, 0
2, 5648, Note_on_c, 0, 57, 57
2, 5708, Note_on_c, 0, 65, 0
2, 5716, Note_on_c, 0, 60, 54
2, 5804, Note_on_c, 0, 64, 50
2, 5806, Note_on_c, 0, 60, 0
2, 5872, Note_on_c, 0, 65, 60
2, 5875, Note_on_c, 0, 64, 0
2, 5974, Note_on_c, 0, 64, 67
2, 6002, Note_on_c, 0, 57, 0
2, 6005, Note_on_c, 0, 65, 0
2, 6018, Note_on_c, 0, 55, 54
2, 6070, Note_on_c, 0, 59, 53
2, 6096, Note_on_c, 0, 64, 0
2, 6140, Note_on_c, 0, 59, 0
2, 6158, Note_on_c, 0, 60, 51
2, 6236, Note_on_c, 0, 64, 57
2, 6250, Note_on_c, 0, 60, 0
2, 6340, Note_on_c, 0, 64, 0
2, 6354, Note_on_c, 0, 62, 77
2, 6374, Note_on_c, 0, 53, 64
2, 6377, Note_on_c, 0, 55, 0
2, 6416, Note_on_c, 0, 62, 0
2, 6426, Note_on_c, 0, 57, 56
2, 6512, Note_on_c, 0, 57, 0
2, 6518, Note_on_c, 0, 60, 67
2, 6612, Note_on_c, 0, 62, 79
2, 6624, Note_on_c, 0, 60, 0
2, 6676, Note_on_c, 0, 62, 0
2, 6708, Note_on_c, 0, 67, 68
2, 6720, Note_on_c, 0, 53, 0
2, 6730, Note_on_c, 0, 52, 61
2, 6790, Note_on_c, 0, 67, 0
2, 6804, Note_on_c, 0, 59, 58
2, 6874, Note_on_c, 0, 59, 0
2, 6890, Note_on_c, 0, 64, 64
2, 6962, Note_on_c, 0, 64, 0
2, 6970, Note_on_c, 0, 67, 67
2, 7036, Note_on_c, 0, 67, 0
2, 7046, Note_on_c, 0, 69, 56
2, 7064, Note_on_c, 0, 57, 51
2, 7070, Note_on_c, 0, 52, 0
2, 7126, Note_on_c, 0, 69, 0
2, 7132, Note_on_c, 0, 60, 64
2, 7206, Note_on_c, 0, 60, 0
2, 7222, Note_on_c, 0, 64, 52
2, 7282, Control_c, 0, 64, 127
2, 7288, Note_on_c, 0, 64, 0
2, 7293, Note_on_c, 0, 69, 77
2, 7344, Control_c, 0, 64, 0
2, 7358, Note_on_c, 0, 57, 0
2, 7364, Note_on_c, 0, 69, 0
2, 7384, Note_on_c, 0, 55, 62
2, 7416, Note_on_c, 0, 64, 68
2, 7520, Note_on_c, 0, 59, 50
2, 7528, Control_c, 0, 64, 127
2, 7558, Note_on_c, 0, 64, 0
2, 7582, Note_on_c, 0, 59, 0
2, 7592, Note_on_c, 0, 60, 65
2, 7654, Note_on_c, 0, 64, 67
2, 7656, Note_on_c, 0, 60, 0
2, 7728, Control_c, 0, 64, 0
2, 7754, Note_on_c, 0, 62, 84
2, 7758, Note_on_c, 0, 55, 0
2, 7768, Note_on_c, 0, 53, 91
2, 7778, Note_on_c, 0, 64, 0
2, 7838, Note_on_c, 0, 57, 62
2, 7882, Note_on_c, 0, 62, 0
2, 7944, Control_c, 0, 64, 127
2, 7947, Note_on_c, 0, 57, 0
2, 7947, Note_on_c, 0, 60, 41
2, 8012, Note_on_c, 0, 62, 73
2, 8018, Note_on_c, 0, 60, 0
2, 8050, Control_c, 0, 64, 0
2, 8090, Note_on_c, 0, 53, 0
2, 8104, Note_on_c, 0, 60, 72
2, 8126, Note_on_c, 0, 52, 77
2, 8129, Note_on_c, 0, 62, 0
2, 8200, Note_on_c, 0, 55, 76
2, 8228, Note_on_c, 0, 60, 0
2, 8278, Note_on_c, 0, 55, 0
2, 8292, Note_on_c, 0, 57, 62
2, 8295, Control_c, 0, 64, 127
2, 8360, Note_on_c, 0, 52, 0
2, 8364, Note_on_c, 0, 57, 0
2, 8374, Control_c, 0, 64, 0
2, 8380, Note_on_c, 0, 60, 76
2, 8466, Note_on_c, 0, 50, 49
2, 8470, Note_on_c, 0, 59, 84
2, 8474, Note_on_c, 0, 60, 0
2, 8562, Note_on_c, 0, 53, 92
2, 8572, Note_on_c, 0, 59, 0
2, 8618, Control_c, 0, 64, 127
2, 8624, Note_on_c, 0, 53, 0
2, 8648, Note_on_c, 0, 55, 65
2, 8688, Note_on_c, 0, 50, 0
2, 8722, Note_on_c, 0, 59, 70
2, 8734, Note_on_c, 0, 55, 0
2, 8772, Control_c, 0, 64, 0
2, 8782, Note_on_c, 0, 59, 0
2, 8812, Note_on_c, 0, 41, 75
2, 8896, Note_on_c, 0, 48, 59
2, 8970, Note_on_c, 0, 48, 0
2, 8970, Note_on_c, 0, 50, 74
2, 9018, Control_c, 0, 64, 127
2, 9038, Note_on_c, 0, 50, 0
2, 9062, Note_on_c, 0, 52, 66
2, 9096, Note_on_c, 0, 41, 0
2, 9134, Note_on_c, 0, 52, 0
2, 9160, Note_on_c, 0, 53, 87
2, 9230, Note_on_c, 0, 53, 0
2, 9236, Note_on_c, 0, 57, 64
2, 9318, Note_on_c, 0, 57, 0
2, 9346, Note_on_c, 0, 60, 72
2, 9434, Note_on_c, 0, 62, 82
2, 9442, Note_on_c, 0, 60, 0
2, 9488, Note_on_c, 0, 62, 0
2, 9526, Note_on_c, 0, 64, 103
2, 9574, Note_on_c, 0, 64, 0
2, 9624, Note_on_c, 0, 62, 74
2, 9712, Note_on_c, 0, 60, 85
2, 9736, Note_on_c, 0, 62, 0
2, 9790, Note_on_c, 0, 60, 0
2, 9800, Note_on_c, 0, 57, 72
2, 9888, Note_on_c, 0, 57, 0
2, 9902, Note_on_c, 0, 53, 87
2, 9964, Note_on_c, 0, 53, 0
2, 9976, Note_on_c, 0, 52, 80
2, 10030, Note_on_c, 0, 52, 0
2, 10056, Note_on_c, 0, 50, 75
2, 10116, Note_on_c, 0, 50, 0
2, 10124, Control_c, 0, 64, 0
2, 10128, Note_on_c, 0, 48, 67
2, 10208, Note_on_c, 0, 48, 0
2, 10240, Note_on_c, 0, 41, 82
2, 10346, Note_on_c, 0, 48, 57
2, 10416, Note_on_c, 0, 48, 0
2, 10419, Note_on_c, 0, 50, 59
2, 10452, Note_on_c, 0, 41, 0
2, 10508, Control_c, 0, 64, 127
2, 10510, Note_on_c, 0, 52, 65
2, 10512, Note_on_c, 0, 50, 0
2, 10562, Note_on_c, 0, 52, 0
2, 10622, Note_on_c, 0, 53, 82
2, 10688, Note_on_c, 0, 53, 0
2, 10714, Note_on_c, 0, 57, 52
2, 10788, Note_on_c, 0, 57, 0
2, 10806, Note_on_c, 0, 60, 57
2, 10890, Note_on_c, 0, 60, 0
2, 10890, Note_on_c, 0, 62, 58
2, 10950, Note_on_c, 0, 62, 0
2, 11006, Note_on_c, 0, 64, 61
2, 11056, Note_on_c, 0, 64, 0
2, 11106, Note_on_c, 0, 62, 44
2, 11172, Note_on_c, 0, 62, 0
2, 11186, Note_on_c, 0, 60, 46
2, 11260, Note_on_c, 0, 60, 0
2, 11292, Note_on_c, 0, 59, 39
2, 11366, Note_on_c, 0, 59, 0
2, 11396, Note_on_c, 0, 57, 39
2, 11474, Note_on_c, 0, 57, 0
2, 11500, Note_on_c, 0, 52, 37
2, 11560, Note_on_c, 0, 50, 51
2, 11563, Note_on_c, 0, 52, 0
2, 11616, Note_on_c, 0, 48, 54
2, 11642, Note_on_c, 0, 50, 0
2, 11718, Note_on_c, 0, 48, 0
2, 11738, Control_c, 0, 64, 0
2, 11744, Note_on_c, 0, 41, 75
2, 11846, Note_on_c, 0, 48, 46
2, 11908, Note_on_c, 0, 50, 73
2, 11932, Note_on_c, 0, 41, 0
2, 11952, Control_c, 0, 64, 127
2, 11990, Note_on_c, 0, 48, 0
2, 12008, Note_on_c, 0, 52, 89
2, 12040, Note_on_c, 0, 50, 0
2, 12056, Note_on_c, 0, 52, 0
2, 12102, Note_on_c, 0, 53, 93
2, 12182, Note_on_c, 0, 56, 81
2, 12208, Note_on_c, 0, 53, 0
2, 12274, Note_on_c, 0, 60, 92
2, 12318, Note_on_c, 0, 56, 0
2, 12372, Note_on_c, 0, 62, 90
2, 12416, Note_on_c, 0, 60, 0
2, 12428, Note_on_c, 0, 62, 0
2, 12456, Note_on_c, 0, 64, 108
2, 12496, Note_on_c, 0, 64, 0
2, 12536, Note_on_c, 0, 62, 75
2, 12638, Note_on_c, 0, 60, 88
2, 12654, Note_on_c, 0, 62, 0
2, 12722, Note_on_c, 0, 56, 70
2, 12772, Note_on_c, 0, 60, 0
2, 12808, Note_on_c, 0, 53, 97
2, 12856, Note_on_c, 0, 56, 0
2, 12882, Note_on_c, 0, 52, 82
2, 12885, Note_on_c, 0, 53, 0
2, 12946, Note_on_c, 0, 52, 0
2, 12970, Note_on_c, 0, 50, 70
2, 13032, Note_on_c, 0, 48, 77
2, 13034, Note_on_c, 0, 50, 0
2, 13090, Control_c, 0, 64, 0
2, 13122, Note_on_c, 0, 48, 0
2, 13154, Note_on_c, 0, 41, 85
2, 13262, Note_on_c, 0, 48, 49
2, 13316, Note_on_c, 0, 50, 75
2, 13338, Note_on_c, 0, 48, 0
2, 13344, Note_on_c, 0, 41, 0
2, 13382, Control_c, 0, 64, 127
2, 13400, Note_on_c, 0, 50, 0
2, 13408, Note_on_c, 0, 52, 72
2, 13456, Note_on_c, 0, 52, 0
2, 13498, Note_on_c, 0, 53, 87
2, 13562, Note_on_c, 0, 56, 64
2, 13594, Note_on_c, 0, 53, 0
2, 13654, Note_on_c, 0, 60, 58
2, 13658, Note_on_c, 0, 56, 0
2, 13750, Note_on_c, 0, 62, 68
2, 13794, Note_on_c, 0, 60, 0
2, 13804, Note_on_c, 0, 62, 0
2, 13864, Note_on_c, 0, 64, 77
2, 13908, Note_on_c, 0, 64, 0
2, 13952, Note_on_c, 0, 62, 46
2, 14014, Note_on_c, 0, 60, 60
2, 14030, Note_on_c, 0, 62, 0
2, 14110, Note_on_c, 0, 58, 57
2, 14150, Note_on_c, 0, 60, 0
2, 14208, Note_on_c, 0, 56, 47
2, 14228, Note_on_c, 0, 58, 0
2, 14272, Note_on_c, 0, 52, 69
2, 14286, Note_on_c, 0, 56, 0
2, 14328, Note_on_c, 0, 52, 0
2, 14368, Note_on_c, 0, 50, 51
2, 14422, Note_on_c, 0, 48, 69
2, 14430, Note_on_c, 0, 50, 0
2, 14474, Note_on_c, 0, 48, 0
2, 14534, Control_c, 0, 64, 0
2, 14540, Note_on_c, 0, 40, 111
2, 14634, Note_on_c, 0, 47, 80
2, 14694, Note_on_c, 0, 40, 0
2, 14697, Note_on_c, 0, 47, 0
2, 14716, Note_on_c, 0, 52, 91
2, 14786, Note_on_c, 0, 56, 81
2, 14818, Note_on_c, 0, 52, 0
2, 14855, Note_on_c, 0, 47, 99
2, 14864, Note_on_c, 0, 56, 0
2, 14940, Note_on_c, 0, 52, 95
2, 14960, Note_on_c, 0, 47, 0
2, 14992, Note_on_c, 0, 52, 0
2, 15004, Note_on_c, 0, 56, 96
2, 15086, Note_on_c, 0, 59, 107
2, 15138, Note_on_c, 0, 56, 0
2, 15144, Note_on_c, 0, 59, 0
2, 15166, Note_on_c, 0, 52, 123
2, 15254, Note_on_c, 0, 56, 105
2, 15270, Note_on_c, 0, 52, 0
2, 15296, Note_on_c, 0, 56, 0
2, 15330, Note_on_c, 0, 59, 119
2, 15424, Note_on_c, 0, 64, 110
2, 15448, Note_on_c, 0, 59, 0
2, 15476, Note_on_c, 0, 56, 112
2, 15486, Note_on_c, 0, 64, 0
2, 15572, Note_on_c, 0, 59, 107
2, 15590, Note_on_c, 0, 56, 0
2, 15606, Note_on_c, 0, 59, 0
2, 15662, Note_on_c, 0, 64, 110
2, 15742, Note_on_c, 0, 64, 0
2, 15754, Note_on_c, 0, 68, 108
2, 15800, Note_on_c, 0, 68, 0
2, 15862, Note_on_c, 0, 64, 123
2, 17376, Note_on_c, 0, 64, 0
2, 17674, Note_on_c, 0, 69, 45
2, 17738, Note_on_c, 0, 69, 0
2, 17744, Note_on_c, 0, 65, 60
2, 17798, Note_on_c, 0, 65, 0
2, 17822, Note_on_c, 0, 62, 60
2, 17876, Note_on_c, 0, 62, 0
2, 17922, Note_on_c, 0, 64, 67
2, 17970, Note_on_c, 0, 64, 0
2, 17998, Note_on_c, 0, 65, 70
2, 18056, Note_on_c, 0, 65, 0
2, 18074, Note_on_c, 0, 62, 59
2, 18132, Note_on_c, 0, 62, 0
2, 18142, Note_on_c, 0, 59, 61
2, 18198, Note_on_c, 0, 59, 0
2, 18236, Note_on_c, 0, 64, 75
2, 18286, Note_on_c, 0, 64, 0
2, 18304, Note_on_c, 0, 69, 62
2, 18406, Note_on_c, 0, 69, 0
2, 18406, Note_on_c, 0, 65, 60
2, 18460, Note_on_c, 0, 65, 0
2, 18482, Note_on_c, 0, 62, 77
2, 18532, Note_on_c, 0, 62, 0
2, 18554, Note_on_c, 0, 64, 85
2, 18598, Note_on_c, 0, 64, 0
2, 18654, Note_on_c, 0, 65, 68
2, 18712, Note_on_c, 0, 65, 0
2, 18722, Note_on_c, 0, 62, 84
2, 18772, Note_on_c, 0, 62, 0
2, 18792, Note_on_c, 0, 59, 83
2, 18836, Note_on_c, 0, 59, 0
2, 18890, Note_on_c, 0, 67, 99
2, 18940, Note_on_c, 0, 67, 0
2, 18966, Note_on_c, 0, 72, 92
2, 19058, Note_on_c, 0, 69, 74
2, 19080, Note_on_c, 0, 72, 0
2, 19114, Note_on_c, 0, 69, 0
2, 19134, Note_on_c, 0, 65, 64
2, 19182, Note_on_c, 0, 65, 0
2, 19212, Note_on_c, 0, 64, 100
2, 19260, Note_on_c, 0, 64, 0
2, 19306, Note_on_c, 0, 69, 58
2, 19370, Note_on_c, 0, 69, 0
2, 19392, Note_on_c, 0, 65, 64
2, 19440, Note_on_c, 0, 65, 0
2, 19468, Note_on_c, 0, 62, 62
2, 19524, Note_on_c, 0, 62, 0
2, 19558, Note_on_c, 0, 60, 67
2, 19608, Note_on_c, 0, 65, 66
2, 19616, Note_on_c, 0, 60, 0
2, 19690, Note_on_c, 0, 65, 0
2, 19718, Note_on_c, 0, 62, 52
2, 19770, Note_on_c, 0, 62, 0
2, 19794, Note_on_c, 0, 59, 60
2, 19846, Note_on_c, 0, 59, 0
2, 19902, Note_on_c, 0, 57, 56
2, 19956, Note_on_c, 0, 57, 0
2, 19984, Note_on_c, 0, 62, 31
2, 20056, Note_on_c, 0, 62, 0
2, 20062, Note_on_c, 0, 59, 80
2, 20108, Note_on_c, 0, 59, 0
2, 20130, Note_on_c, 0, 55, 69
2, 20188, Note_on_c, 0, 55, 0
2, 20264, Note_on_c, 0, 64, 82
2, 20312, Note_on_c, 0, 64, 0
2, 20326, Note_on_c, 0, 69, 73
2, 20430, Note_on_c, 0, 65, 64
2, 20433, Note_on_c, 0, 69, 0
2, 20480, Note_on_c, 0, 65, 0
2, 20510, Note_on_c, 0, 62, 60
2, 20564, Note_on_c, 0, 62, 0
2, 20600, Note_on_c, 0, 64, 72
2, 20646, Note_on_c, 0, 64, 0
2, 20694, Note_on_c, 0, 65, 59
2, 20746, Note_on_c, 0, 65, 0
2, 20760, Note_on_c, 0, 62, 67
2, 20816, Note_on_c, 0, 62, 0
2, 20844, Note_on_c, 0, 59, 61
2, 20904, Note_on_c, 0, 59, 0
2, 20936, Note_on_c, 0, 64, 69
2, 20988, Note_on_c, 0, 64, 0
2, 21002, Note_on_c, 0, 69, 62
2, 21086, Note_on_c, 0, 69, 0
2, 21094, Note_on_c, 0, 65, 61
2, 21150, Note_on_c, 0, 65, 0
2, 21184, Note_on_c, 0, 62, 57
2, 21244, Note_on_c, 0, 62, 0
2, 21264, Note_on_c, 0, 64, 82
2, 21312, Note_on_c, 0, 64, 0
2, 21348, Note_on_c, 0, 65, 68
2, 21408, Note_on_c, 0, 65, 0
2, 21440, Note_on_c, 0, 62, 72
2, 21488, Note_on_c, 0, 62, 0
2, 21492, Note_on_c, 0, 59, 82
2, 21538, Note_on_c, 0, 59, 0
2, 21598, Note_on_c, 0, 67, 100
2, 21662, Note_on_c, 0, 67, 0
2, 21670, Note_on_c, 0, 72, 81
2, 21764, Note_on_c, 0, 69, 73
2, 21794, Note_on_c, 0, 72, 0
2, 21822, Note_on_c, 0, 69, 0
2, 21828, Note_on_c, 0, 65, 79
2, 21872, Note_on_c, 0, 65, 0
2, 21926, Note_on_c, 0, 64, 99
2, 21976, Note_on_c, 0, 64, 0
2, 22010, Note_on_c, 0, 69, 64
2, 22072, Note_on_c, 0, 69, 0
2, 22100, Note_on_c, 0, 65, 60
2, 22150, Note_on_c, 0, 65, 0
2, 22160, Note_on_c, 0, 62, 76
2, 22226, Note_on_c, 0, 62, 0
2, 22260, Note_on_c, 0, 60, 75
2, 22314, Note_on_c, 0, 60, 0
2, 22330, Note_on_c, 0, 65, 64
2, 22402, Note_on_c, 0, 65, 0
2, 22428, Note_on_c, 0, 62, 65
2, 22480, Note_on_c, 0, 62, 0
2, 22498, Note_on_c, 0, 59, 65
2, 22556, Note_on_c, 0, 59, 0
2, 22600, Note_on_c, 0, 57, 66
2, 22652, Note_on_c, 0, 57, 0
2, 22672, Note_on_c, 0, 62, 66
2, 22766, Note_on_c, 0, 62, 0
2, 22769, Note_on_c, 0, 59, 59
2, 22824, Note_on_c, 0, 59, 0
2, 22852, Note_on_c, 0, 55, 62
2, 22910, Note_on_c, 0, 55, 0
2, 22948, Note_on_c, 0, 53, 93
2, 22998, Note_on_c, 0, 53, 0
2, 23050, Note_on_c, 0, 59, 61
2, 23098, Note_on_c, 0, 59, 0
2, 23101, Note_on_c, 0, 56, 77
2, 23162, Note_on_c, 0, 56, 0
2, 23184, Note_on_c, 0, 52, 79
2, 23240, Note_on_c, 0, 52, 0
2, 23300, Note_on_c, 0, 55, 100
2, 23362, Note_on_c, 0, 55, 0
2, 23402, Note_on_c, 0, 61, 70
2, 23470, Note_on_c, 0, 58, 58
2, 23504, Note_on_c, 0, 61, 0
2, 23536, Note_on_c, 0, 54, 87
2, 23540, Note_on_c, 0, 58, 0
2, 23598, Note_on_c, 0, 54, 0
2, 23650, Note_on_c, 0, 53, 92
2, 23698, Note_on_c, 0, 53, 0
2, 23730, Note_on_c, 0, 59, 82
2, 23798, Note_on_c, 0, 59, 0
2, 23816, Note_on_c, 0, 56, 66
2, 23888, Note_on_c, 0, 56, 0
2, 23900, Note_on_c, 0, 52, 75
2, 23952, Note_on_c, 0, 52, 0
2, 23992, Note_on_c, 0, 55, 89
2, 24042, Note_on_c, 0, 55, 0
2, 24074, Note_on_c, 0, 61, 81
2, 24162, Note_on_c, 0, 58, 67
2, 24200, Note_on_c, 0, 61, 0
2, 24230, Note_on_c, 0, 54, 93
2, 24233, Note_on_c, 0, 58, 0
2, 24282, Note_on_c, 0, 54, 0
2, 24330, Note_on_c, 0, 53, 108
2, 24374, Note_on_c, 0, 53, 0
2, 24414, Note_on_c, 0, 59, 77
2, 24470, Note_on_c, 0, 59, 0
2, 24496, Note_on_c, 0, 56, 73
2, 24570, Note_on_c, 0, 56, 0
2, 24580, Note_on_c, 0, 52, 87
2, 24630, Note_on_c, 0, 52, 0
2, 24682, Note_on_c, 0, 53, 103
2, 24726, Note_on_c, 0, 53, 0
2, 24768, Note_on_c, 0, 59, 72
2, 24826, Note_on_c, 0, 59, 0
2, 24848, Note_on_c, 0, 56, 66
2, 24918, Note_on_c, 0, 56, 0
2, 24934, Note_on_c, 0, 52, 76
2, 24986, Note_on_c, 0, 52, 0
2, 25018, Note_on_c, 0, 53, 95
2, 25068, Note_on_c, 0, 53, 0
2, 25116, Note_on_c, 0, 59, 62
2, 25172, Note_on_c, 0, 59, 0
2, 25175, Note_on_c, 0, 56, 70
2, 25254, Note_on_c, 0, 56, 0
2, 25270, Note_on_c, 0, 52, 70
2, 25320, Note_on_c, 0, 52, 0
2, 25366, Note_on_c, 0, 53, 84
2, 25414, Note_on_c, 0, 53, 0
2, 25456, Note_on_c, 0, 59, 64
2, 25530, Note_on_c, 0, 59, 0
2, 25548, Note_on_c, 0, 56, 67
2, 25618, Note_on_c, 0, 56, 0
2, 25644, Note_on_c, 0, 52, 82
2, 25688, Note_on_c, 0, 52, 0
2, 25752, Note_on_c, 0, 52, 105
2, 25794, Note_on_c, 0, 52, 0
2, 25876, Note_on_c, 0, 57, 69
2, 25936, Note_on_c, 0, 57, 0
2, 25974, Note_on_c, 0, 53, 102
2, 26020, Note_on_c, 0, 53, 0
2, 26040, Note_on_c, 0, 50, 81
2, 26090, Note_on_c, 0, 50, 0
2, 26122, Note_on_c, 0, 55, 89
2, 26166, Note_on_c, 0, 55, 0
2, 26218, Note_on_c, 0, 60, 79
2, 26302, Note_on_c, 0, 56, 64
2, 26322, Note_on_c, 0, 60, 0
2, 26368, Note_on_c, 0, 56, 0
2, 26390, Note_on_c, 0, 53, 81
2, 26444, Note_on_c, 0, 53, 0
2, 26464, Note_on_c, 0, 52, 107
2, 26508, Note_on_c, 0, 52, 0
2, 26560, Note_on_c, 0, 57, 64
2, 26620, Note_on_c, 0, 57, 0
2, 26648, Note_on_c, 0, 53, 99
2, 26694, Note_on_c, 0, 53, 0
2, 26722, Note_on_c, 0, 50, 88
2, 26768, Note_on_c, 0, 50, 0
2, 26812, Note_on_c, 0, 55, 103
2, 26872, Note_on_c, 0, 55, 0
2, 26912, Note_on_c, 0, 60, 76
2, 26982, Note_on_c, 0, 56, 72
2, 27024, Note_on_c, 0, 60, 0
2, 27066, Note_on_c, 0, 56, 0
2, 27072, Note_on_c, 0, 53, 107
2, 27118, Note_on_c, 0, 53, 0
2, 27178, Note_on_c, 0, 52, 97
2, 27230, Note_on_c, 0, 52, 0
2, 27268, Note_on_c, 0, 57, 64
2, 27344, Note_on_c, 0, 57, 0
2, 27360, Note_on_c, 0, 53, 93
2, 27430, Note_on_c, 0, 53, 0
2, 27448, Note_on_c, 0, 50, 74
2, 27506, Note_on_c, 0, 50, 0
2, 27534, Note_on_c, 0, 52, 85
2, 27586, Note_on_c, 0, 52, 0
2, 27632, Note_on_c, 0, 57, 58
2, 27726, Note_on_c, 0, 53, 95
2, 27764, Note_on_c, 0, 57, 0
2, 27782, Note_on_c, 0, 53, 0
2, 27808, Note_on_c, 0, 50, 72
2, 27868, Note_on_c, 0, 50, 0
2, 27884, Note_on_c, 0, 52, 72
2, 27942, Note_on_c, 0, 52, 0
2, 27986, Note_on_c, 0, 57, 66
2, 28118, Note_on_c, 0, 53, 69
2, 28120, Note_on_c, 0, 57, 0
2, 28176, Note_on_c, 0, 53, 0
2, 28186, Note_on_c, 0, 50, 61
2, 28250, Note_on_c, 0, 50, 0
2, 28276, Note_on_c, 0, 52, 61
2, 28340, Note_on_c, 0, 52, 0
2, 28360, Note_on_c, 0, 57, 59
2, 28464, Note_on_c, 0, 57, 0
2, 28488, Note_on_c, 0, 53, 42
2, 28534, Note_on_c, 0, 50, 62
2, 28548, Note_on_c, 0, 53, 0
2, 28598, Note_on_c, 0, 50, 0
2, 28632, Note_on_c, 0, 52, 70
2, 28696, Note_on_c, 0, 52, 0
2, 28738, Note_on_c, 0, 59, 47
2, 28806, Note_on_c, 0, 56, 58
2, 28814, Note_on_c, 0, 59, 0
2, 28876, Note_on_c, 0, 56, 0
2, 28918, Note_on_c, 0, 50, 51
2, 28988, Note_on_c, 0, 50, 0
2, 29020, Note_on_c, 0, 52, 54
2, 29090, Note_on_c, 0, 52, 0
2, 29104, Note_on_c, 0, 59, 39
2, 29176, Note_on_c, 0, 56, 52
2, 29192, Note_on_c, 0, 59, 0
2, 29224, Control_c, 0, 64, 127
2, 29284, Note_on_c, 0, 50, 54
2, 29310, Note_on_c, 0, 56, 0
2, 29316, Control_c, 0, 64, 0
2, 29356, Note_on_c, 0, 50, 0
2, 29396, Note_on_c, 0, 52, 56
2, 29472, Note_on_c, 0, 52, 0
2, 29508, Note_on_c, 0, 59, 49
2, 29546, Control_c, 0, 64, 127
2, 29594, Note_on_c, 0, 56, 44
2, 29608, Note_on_c, 0, 59, 0
2, 29608, Control_c, 0, 64, 0
2, 29698, Note_on_c, 0, 56, 0
2, 29712, Note_on_c, 0, 50, 46
2, 29790, Note_on_c, 0, 50, 0
2, 29812, Note_on_c, 0, 52, 51
2, 29950, Note_on_c, 0, 59, 49
2, 29974, Note_on_c, 0, 52, 0
2, 30022, Control_c, 0, 64, 127
2, 30036, Note_on_c, 0, 59, 0
2, 30068, Note_on_c, 0, 56, 50
2, 30160, Note_on_c, 0, 56, 0
2, 30226, Note_on_c, 0, 50, 35
2, 30310, Note_on_c, 0, 50, 0
2, 30346, Note_on_c, 0, 36, 46
2, 30360, Control_c, 0, 64, 0
2, 30554, Note_on_c, 0, 48, 51
2, 30762, Note_on_c, 0, 55, 39
2, 30868, Note_on_c, 0, 55, 0
2, 30876, Note_on_c, 0, 60, 43
2, 30988, Note_on_c, 0, 60, 0
2, 30991, Note_on_c, 0, 62, 47
2, 31020, Control_c, 0, 64, 127
2, 31056, Note_on_c, 0, 62, 0
2, 31086, Note_on_c, 0, 64, 64
2, 31154, Note_on_c, 0, 64, 0
2, 31194, Note_on_c, 0, 55, 56
2, 31260, Note_on_c, 0, 55, 0
2, 31263, Note_on_c, 0, 60, 61
2, 31340, Note_on_c, 0, 64, 66
2, 31354, Note_on_c, 0, 60, 0
2, 31418, Note_on_c, 0, 64, 0
2, 31438, Note_on_c, 0, 62, 73
2, 31540, Note_on_c, 0, 53, 81
2, 31590, Note_on_c, 0, 62, 0
2, 31638, Note_on_c, 0, 60, 59
2, 31652, Control_c, 0, 64, 0
2, 31662, Note_on_c, 0, 53, 0
2, 31708, Note_on_c, 0, 62, 66
2, 31818, Note_on_c, 0, 65, 76
2, 31820, Control_c, 0, 64, 127
2, 31832, Note_on_c, 0, 60, 0
2, 31844, Note_on_c, 0, 62, 0
2, 31906, Note_on_c, 0, 57, 59
2, 31930, Note_on_c, 0, 65, 0
2, 31984, Note_on_c, 0, 57, 0
2, 32002, Note_on_c, 0, 59, 74
2, 32066, Note_on_c, 0, 59, 0
2, 32092, Note_on_c, 0, 65, 67
2, 32188, Control_c, 0, 64, 0
2, 32190, Note_on_c, 0, 64, 81
2, 32196, Note_on_c, 0, 65, 0
2, 32284, Note_on_c, 0, 55, 64
2, 32332, Note_on_c, 0, 64, 0
2, 32364, Note_on_c, 0, 55, 0
2, 32374, Note_on_c, 0, 60, 73
2, 32420, Control_c, 0, 64, 127
2, 32442, Note_on_c, 0, 64, 61
2, 32448, Note_on_c, 0, 60, 0
2, 32526, Control_c, 0, 64, 0
2, 32538, Note_on_c, 0, 67, 73
2, 32548, Note_on_c, 0, 45, 73
2, 32560, Note_on_c, 0, 64, 0
2, 32636, Note_on_c, 0, 59, 57
2, 32638, Note_on_c, 0, 67, 0
2, 32724, Note_on_c, 0, 64, 54
2, 32750, Note_on_c, 0, 48, 0
2, 32762, Note_on_c, 0, 36, 0
2, 32774, Note_on_c, 0, 59, 0
2, 32798, Note_on_c, 0, 64, 0
2, 32814, Note_on_c, 0, 67, 61
2, 32834, Control_c, 0, 64, 127
2, 32904, Note_on_c, 0, 67, 0
2, 32916, Note_on_c, 0, 50, 90
2, 32926, Note_on_c, 0, 66, 68
2, 33002, Note_on_c, 0, 57, 60
2, 33018, Control_c, 0, 64, 0
2, 33034, Note_on_c, 0, 45, 0
2, 33044, Note_on_c, 0, 66, 0
2, 33116, Note_on_c, 0, 62, 75
2, 33156, Note_on_c, 0, 57, 0
2, 33182, Note_on_c, 0, 66, 67
2, 33218, Control_c, 0, 64, 127
2, 33230, Note_on_c, 0, 62, 0
2, 33282, Note_on_c, 0, 69, 60
2, 33298, Note_on_c, 0, 47, 84
2, 33330, Note_on_c, 0, 66, 0
2, 33356, Control_c, 0, 64, 0
2, 33362, Note_on_c, 0, 69, 0
2, 33370, Note_on_c, 0, 50, 0
2, 33386, Note_on_c, 0, 60, 67
2, 33496, Note_on_c, 0, 66, 64
2, 33540, Control_c, 0, 64, 127
2, 33544, Note_on_c, 0, 60, 0
2, 33588, Note_on_c, 0, 69, 69
2, 33618, Note_on_c, 0, 66, 0
2, 33664, Note_on_c, 0, 69, 0
2, 33714, Note_on_c, 0, 67, 87
2, 33726, Control_c, 0, 64, 0
2, 33734, Note_on_c, 0, 47, 0
2, 33738, Note_on_c, 0, 52, 92
2, 33830, Note_on_c, 0, 67, 0
2, 33834, Note_on_c, 0, 62, 66
2, 33948, Note_on_c, 0, 67, 67
2, 33978, Note_on_c, 0, 62, 0
2, 34032, Control_c, 0, 64, 127
2, 34050, Note_on_c, 0, 67, 0
2, 34068, Note_on_c, 0, 71, 79
2, 34204, Note_on_c, 0, 71, 0
2, 34228, Note_on_c, 0, 76, 85
2, 34360, Note_on_c, 0, 71, 82
2, 34366, Note_on_c, 0, 76, 0
2, 34424, Note_on_c, 0, 71, 0
2, 34470, Note_on_c, 0, 67, 74
2, 34534, Note_on_c, 0, 67, 0
2, 34562, Note_on_c, 0, 62, 62
2, 34620, Note_on_c, 0, 62, 0
2, 34664, Note_on_c, 0, 61, 84
2, 34678, Control_c, 0, 64, 0
2, 34770, Note_on_c, 0, 64, 75
2, 34792, Note_on_c, 0, 52, 0
2, 34846, Control_c, 0, 64, 127
2, 34862, Note_on_c, 0, 64, 0
2, 34876, Note_on_c, 0, 61, 0
2, 34880, Note_on_c, 0, 67, 65
2, 34960, Note_on_c, 0, 67, 0
2, 34972, Note_on_c, 0, 69, 60
2, 35048, Note_on_c, 0, 69, 0
2, 35130, Note_on_c, 0, 78, 93
2, 35184, Note_on_c, 0, 78, 0
2, 35244, Note_on_c, 0, 69, 52
2, 35368, Note_on_c, 0, 67, 61
2, 35402, Note_on_c, 0, 69, 0
2, 35448, Note_on_c, 0, 67, 0
2, 35454, Note_on_c, 0, 64, 64
2, 35518, Note_on_c, 0, 64, 0
2, 35580, Note_on_c, 0, 52, 91
2, 35600, Control_c, 0, 64, 0
2, 35680, Note_on_c, 0, 62, 75
2, 35754, Control_c, 0, 64, 127
2, 35766, Note_on_c, 0, 52, 0
2, 35780, Note_on_c, 0, 67, 72
2, 35792, Note_on_c, 0, 62, 0
2, 35860, Note_on_c, 0, 67, 0
2, 35876, Note_on_c, 0, 71, 83
2, 35948, Note_on_c, 0, 71, 0
2, 36014, Note_on_c, 0, 76, 95
2, 36058, Note_on_c, 0, 76, 0
2, 36116, Note_on_c, 0, 71, 77
2, 36232, Note_on_c, 0, 67, 66
2, 36312, Note_on_c, 0, 62, 67
2, 36344, Note_on_c, 0, 67, 0
2, 36376, Note_on_c, 0, 62, 0
2, 36420, Note_on_c, 0, 71, 0
2, 36436, Note_on_c, 0, 61, 89
2, 36522, Control_c, 0, 64, 0
2, 36568, Note_on_c, 0, 64, 79
2, 36674, Note_on_c, 0, 61, 0
2, 36680, Note_on_c, 0, 67, 68
2, 36690, Control_c, 0, 64, 127
2, 36752, Note_on_c, 0, 67, 0
2, 36754, Note_on_c, 0, 70, 64
2, 36858, Note_on_c, 0, 70, 0
2, 36874, Note_on_c, 0, 64, 0
2, 36910, Note_on_c, 0, 78, 90
2, 36956, Note_on_c, 0, 78, 0
2, 37006, Note_on_c, 0, 70, 69
2, 37116, Note_on_c, 0, 67, 72
2, 37204, Note_on_c, 0, 70, 0
2, 37204, Note_on_c, 0, 64, 70
2, 37216, Note_on_c, 0, 67, 0
2, 37260, Note_on_c, 0, 64, 0
2, 37290, Control_c, 0, 64, 0
2, 37304, Note_on_c, 0, 59, 97
2, 37418, Note_on_c, 0, 64, 82
2, 37460, Control_c, 0, 64, 127
2, 37468, Note_on_c, 0, 59, 0
2, 37502, Note_on_c, 0, 67, 81
2, 37544, Note_on_c, 0, 64, 0
2, 37596, Note_on_c, 0, 74, 85
2, 37620, Note_on_c, 0, 67, 0
2, 37664, Note_on_c, 0, 74, 0
2, 37694, Note_on_c, 0, 78, 112
2, 37752, Note_on_c, 0, 78, 0
2, 37798, Note_on_c, 0, 74, 72
2, 37900, Note_on_c, 0, 67, 66
2, 37982, Note_on_c, 0, 74, 0
2, 37982, Note_on_c, 0, 64, 75
2, 38016, Note_on_c, 0, 67, 0
2, 38038, Note_on_c, 0, 64, 0
2, 38078, Note_on_c, 0, 58, 87
2, 38104, Control_c, 0, 64, 0
2, 38194, Note_on_c, 0, 64, 92
2, 38256, Note_on_c, 0, 58, 0
2, 38264, Note_on_c, 0, 67, 82
2, 38274, Control_c, 0, 64, 127
2, 38350, Note_on_c, 0, 64, 0
2, 38356, Note_on_c, 0, 73, 76
2, 38394, Note_on_c, 0, 67, 0
2, 38462, Note_on_c, 0, 78, 108
2, 38470, Note_on_c, 0, 73, 0
2, 38516, Note_on_c, 0, 78, 0
2, 38564, Note_on_c, 0, 73, 58
2, 38668, Note_on_c, 0, 67, 81
2, 38760, Note_on_c, 0, 64, 75
2, 38774, Note_on_c, 0, 73, 0
2, 38826, Note_on_c, 0, 64, 0
2, 38836, Note_on_c, 0, 67, 0
2, 38886, Note_on_c, 0, 57, 89
2, 38934, Control_c, 0, 64, 0
2, 39016, Note_on_c, 0, 64, 83
2, 39124, Note_on_c, 0, 57, 0
2, 39124, Note_on_c, 0, 67, 79
2, 39134, Control_c, 0, 64, 127
2, 39164, Note_on_c, 0, 64, 0
2, 39242, Note_on_c, 0, 72, 72
2, 39262, Note_on_c, 0, 67, 0
2, 39320, Note_on_c, 0, 72, 0
2, 39436, Note_on_c, 0, 79, 99
2, 39550, Note_on_c, 0, 79, 0
2, 39570, Note_on_c, 0, 72, 66
2, 39686, Note_on_c, 0, 67, 66
2, 39696, Note_on_c, 0, 72, 0
2, 39758, Note_on_c, 0, 67, 0
2, 39784, Note_on_c, 0, 64, 62
2, 39874, Note_on_c, 0, 64, 0
2, 39944, Note_on_c, 0, 78, 97
2, 40036, Note_on_c, 0, 72, 68
2, 40112, Note_on_c, 0, 78, 0
2, 40146, Note_on_c, 0, 67, 65
2, 40160, Note_on_c, 0, 72, 0
2, 40222, Note_on_c, 0, 67, 0
2, 40225, Note_on_c, 0, 64, 60
2, 40300, Note_on_c, 0, 64, 0
2, 40338, Note_on_c, 0, 76, 99
2, 40388, Note_on_c, 0, 76, 0
2, 40424, Note_on_c, 0, 72, 69
2, 40536, Note_on_c, 0, 67, 67
2, 40570, Note_on_c, 0, 72, 0
2, 40604, Note_on_c, 0, 64, 66
2, 40628, Note_on_c, 0, 67, 0
2, 40668, Note_on_c, 0, 64, 0
2, 40702, Note_on_c, 0, 58, 77
2, 40716, Control_c, 0, 64, 0
2, 40838, Note_on_c, 0, 64, 72
2, 40896, Note_on_c, 0, 58, 0
2, 40900, Control_c, 0, 64, 127
2, 40926, Note_on_c, 0, 64, 0
2, 40938, Note_on_c, 0, 67, 68
2, 41030, Note_on_c, 0, 72, 60
2, 41052, Note_on_c, 0, 67, 0
2, 41090, Note_on_c, 0, 72, 0
2, 41156, Note_on_c, 0, 74, 84
2, 41262, Note_on_c, 0, 72, 53
2, 41362, Note_on_c, 0, 76, 95
2, 41370, Note_on_c, 0, 67, 68
2, 41378, Note_on_c, 0, 74, 0
2, 41434, Note_on_c, 0, 72, 0
2, 41448, Note_on_c, 0, 67, 0
2, 41468, Note_on_c, 0, 64, 69
2, 41538, Note_on_c, 0, 76, 0
2, 41542, Note_on_c, 0, 64, 0
2, 41616, Note_on_c, 0, 78, 97
2, 41740, Note_on_c, 0, 72, 65
2, 41790, Note_on_c, 0, 78, 0
2, 41848, Note_on_c, 0, 67, 58
2, 41864, Note_on_c, 0, 72, 0
2, 41934, Note_on_c, 0, 67, 0
2, 41946, Note_on_c, 0, 64, 60
2, 42016, Note_on_c, 0, 64, 0
2, 42148, Note_on_c, 0, 72, 62
2, 42258, Note_on_c, 0, 72, 0
2, 42260, Note_on_c, 0, 67, 50
2, 42322, Note_on_c, 0, 64, 61
2, 42352, Note_on_c, 0, 67, 0
2, 42386, Note_on_c, 0, 64, 0
2, 42424, Note_on_c, 0, 59, 77
2, 42438, Control_c, 0, 64, 0
2, 42546, Note_on_c, 0, 64, 69
2, 42606, Control_c, 0, 64, 127
2, 42622, Note_on_c, 0, 59, 0
2, 42626, Note_on_c, 0, 67, 73
2, 42654, Note_on_c, 0, 64, 0
2, 42728, Note_on_c, 0, 71, 88
2, 42732, Note_on_c, 0, 67, 0
2, 42822, Note_on_c, 0, 71, 0
2, 42854, Note_on_c, 0, 74, 91
2, 42948, Note_on_c, 0, 71, 69
2, 43046, Note_on_c, 0, 76, 97
2, 43060, Note_on_c, 0, 67, 72
2, 43090, Note_on_c, 0, 74, 0
2, 43146, Note_on_c, 0, 64, 72
2, 43150, Note_on_c, 0, 67, 0
2, 43196, Note_on_c, 0, 71, 0
2, 43214, Note_on_c, 0, 76, 0
2, 43234, Note_on_c, 0, 64, 0
2, 43286, Note_on_c, 0, 78, 108
2, 43422, Note_on_c, 0, 71, 67
2, 43425, Note_on_c, 0, 78, 0
2, 43530, Note_on_c, 0, 67, 62
2, 43600, Note_on_c, 0, 67, 0
2, 43642, Note_on_c, 0, 64, 41
2, 43650, Note_on_c, 0, 71, 0
2, 43714, Note_on_c, 0, 64, 0
2, 43872, Note_on_c, 0, 71, 64
2, 43972, Note_on_c, 0, 71, 0
2, 43975, Note_on_c, 0, 67, 47
2, 44050, Note_on_c, 0, 64, 43
2, 44054, Note_on_c, 0, 67, 0
2, 44126, Note_on_c, 0, 64, 0
2, 44142, Control_c, 0, 64, 0
2, 44152, Note_on_c, 0, 60, 65
2, 44274, Note_on_c, 0, 64, 64
2, 44328, Control_c, 0, 64, 127
2, 44356, Note_on_c, 0, 64, 0
2, 44362, Note_on_c, 0, 60, 0
2, 44380, Note_on_c, 0, 67, 52
2, 44466, Note_on_c, 0, 67, 0
2, 44472, Note_on_c, 0, 70, 53
2, 44554, Note_on_c, 0, 70, 0
2, 44668, Note_on_c, 0, 74, 85
2, 44792, Note_on_c, 0, 70, 53
2, 44868, Note_on_c, 0, 74, 0
2, 44898, Note_on_c, 0, 70, 0
2, 44918, Note_on_c, 0, 67, 52
2, 44996, Note_on_c, 0, 67, 0
2, 45024, Note_on_c, 0, 64, 51
2, 45094, Note_on_c, 0, 64, 0
2, 45116, Note_on_c, 0, 76, 75
2, 45204, Note_on_c, 0, 70, 57
2, 45260, Note_on_c, 0, 76, 0
2, 45302, Note_on_c, 0, 67, 57
2, 45368, Note_on_c, 0, 70, 0
2, 45374, Note_on_c, 0, 67, 0
2, 45422, Note_on_c, 0, 64, 42
2, 45472, Note_on_c, 0, 72, 82
2, 45490, Note_on_c, 0, 64, 0
2, 45520, Note_on_c, 0, 72, 0
2, 45584, Note_on_c, 0, 70, 54
2, 45678, Note_on_c, 0, 67, 69
2, 45716, Note_on_c, 0, 70, 0
2, 45744, Note_on_c, 0, 67, 0
2, 45766, Note_on_c, 0, 64, 53
2, 45844, Note_on_c, 0, 64, 0
2, 45938, Note_on_c, 0, 74, 76
2, 45956, Control_c, 0, 64, 0
2, 45960, Note_on_c, 0, 55, 60
2, 46050, Note_on_c, 0, 70, 66
2, 46053, Note_on_c, 0, 74, 0
2, 46124, Control_c, 0, 64, 127
2, 46140, Note_on_c, 0, 55, 0
2, 46168, Note_on_c, 0, 69, 52
2, 46206, Note_on_c, 0, 70, 0
2, 46244, Note_on_c, 0, 69, 0
2, 46258, Note_on_c, 0, 67, 62
2, 46322, Note_on_c, 0, 67, 0
2, 46358, Note_on_c, 0, 65, 66
2, 46420, Note_on_c, 0, 65, 0
2, 46458, Note_on_c, 0, 64, 69
2, 46532, Note_on_c, 0, 64, 0
2, 46542, Note_on_c, 0, 62, 74
2, 46626, Note_on_c, 0, 62, 0
2, 46638, Note_on_c, 0, 60, 54
2, 46702, Note_on_c, 0, 60, 0
2, 46728, Note_on_c, 0, 62, 70
2, 46830, Note_on_c, 0, 58, 59
2, 46852, Note_on_c, 0, 62, 0
2, 46902, Note_on_c, 0, 57, 62
2, 46944, Note_on_c, 0, 58, 0
2, 46978, Note_on_c, 0, 57, 0
2, 46998, Note_on_c, 0, 55, 77
2, 47060, Note_on_c, 0, 55, 0
2, 47090, Note_on_c, 0, 53, 99
2, 47180, Note_on_c, 0, 52, 100
2, 47212, Note_on_c, 0, 53, 0
2, 47278, Note_on_c, 0, 52, 0
2, 47288, Note_on_c, 0, 50, 80
2, 47366, Note_on_c, 0, 50, 0
2, 47368, Note_on_c, 0, 48, 74
2, 47438, Note_on_c, 0, 48, 0
2, 47458, Note_on_c, 0, 46, 89
2, 47538, Control_c, 0, 64, 0
2, 47570, Note_on_c, 0, 45, 88
2, 47586, Note_on_c, 0, 46, 0
2, 47690, Note_on_c, 0, 43, 91
2, 47714, Note_on_c, 0, 45, 0
2, 47824, Note_on_c, 0, 41, 91
2, 47840, Note_on_c, 0, 43, 0
2, 47990, Note_on_c, 0, 62, 75
2, 47994, Note_on_c, 0, 41, 0
2, 48018, Note_on_c, 0, 40, 82
2, 48106, Note_on_c, 0, 58, 47
2, 48204, Note_on_c, 0, 58, 0
2, 48222, Note_on_c, 0, 55, 54
2, 48308, Note_on_c, 0, 58, 41
2, 48325, Note_on_c, 0, 55, 0
2, 48338, Control_c, 0, 64, 127
2, 48434, Note_on_c, 0, 58, 0
2, 48466, Note_on_c, 0, 64, 82
2, 48482, Note_on_c, 0, 38, 56
2, 48485, Note_on_c, 0, 40, 0
2, 48492, Control_c, 0, 64, 0
2, 48532, Note_on_c, 0, 62, 0
2, 48594, Note_on_c, 0, 58, 50
2, 48710, Note_on_c, 0, 58, 0
2, 48716, Note_on_c, 0, 55, 50
2, 48838, Note_on_c, 0, 58, 51
2, 48844, Control_c, 0, 64, 127
2, 48858, Note_on_c, 0, 55, 0
2, 48932, Note_on_c, 0, 58, 0
2, 48952, Control_c, 0, 64, 0
2, 48988, Note_on_c, 0, 36, 59
2, 48998, Note_on_c, 0, 60, 75
2, 49004, Note_on_c, 0, 38, 0
2, 49020, Note_on_c, 0, 64, 0
2, 49158, Note_on_c, 0, 58, 51
2, 49296, Note_on_c, 0, 58, 0
2, 49338, Note_on_c, 0, 55, 53
2, 49442, Note_on_c, 0, 55, 0
2, 49458, Control_c, 0, 64, 127
2, 49542, Note_on_c, 0, 58, 47
2, 49694, Note_on_c, 0, 60, 0
2, 49796, Note_on_c, 0, 58, 0
2, 49816, Note_on_c, 0, 34, 56
2, 49874, Control_c, 0, 64, 0
2, 49890, Note_on_c, 0, 36, 0
2, 50372, Note_on_c, 0, 53, 67
2, 50474, Control_c, 0, 64, 127
2, 50710, Note_on_c, 0, 58, 54
2, 50754, Note_on_c, 0, 53, 0
2, 51010, Note_on_c, 0, 60, 53
2, 51076, Note_on_c, 0, 58, 0
2, 51236, Note_on_c, 0, 60, 0
2, 51292, Note_on_c, 0, 62, 75
2, 51344, Note_on_c, 0, 62, 0
2, 51550, Note_on_c, 0, 65, 50
2, 51624, Note_on_c, 0, 65, 0
2, 51804, Note_on_c, 0, 70, 52
2, 51934, Note_on_c, 0, 70, 0
2, 52076, Note_on_c, 0, 72, 51
2, 52172, Note_on_c, 0, 34, 0
2, 52360, Note_on_c, 0, 72, 0
2, 52395, Note_on_c, 0, 74, 58
2, 52712, Note_on_c, 0, 53, 74
2, 52718, Note_on_c, 0, 74, 0
2, 53050, Note_on_c, 0, 58, 65
2, 53324, Note_on_c, 0, 58, 0
2, 53340, Note_on_c, 0, 62, 87
2, 53418, Note_on_c, 0, 62, 0
2, 53506, Note_on_c, 0, 53, 0
2, 53604, Note_on_c, 0, 60, 68
2, 53848, Note_on_c, 0, 54, 67
2, 53968, Note_on_c, 0, 60, 0
2, 54014, Note_on_c, 0, 34, 13
2, 54108, Note_on_c, 0, 58, 51
2, 54330, Note_on_c, 0, 34, 0
2, 54402, Note_on_c, 0, 60, 59
2, 54816, Note_on_c, 0, 63, 58
2, 54828, Note_on_c, 0, 34, 60
2, 55128, Control_c, 0, 64, 0
2, 55544, Control_c, 0, 64, 127
2, 55874, Note_on_c, 0, 39, 59
2, 55946, Note_on_c, 0, 34, 0
2, 56190, Control_c, 0, 64, 0
2, 56266, Control_c, 0, 64, 127
2, 56406, Note_on_c, 0, 34, 64
2, 56552, Note_on_c, 0, 39, 0
2, 56758, Control_c, 0, 64, 0
2, 57202, Control_c, 0, 64, 127
2, 57406, Note_on_c, 0, 39, 52
2, 57482, Note_on_c, 0, 34, 0
2, 57618, Control_c, 0, 64, 0
2, 58002, Control_c, 0, 64, 127
2, 58614, Note_on_c, 0, 34, 53
2, 58678, Control_c, 0, 64, 0
2, 58680, Note_on_c, 0, 39, 0
2, 58940, Control_c, 0, 64, 127
2, 58982, Note_on_c, 0, 60, 0
2, 59084, Note_on_c, 0, 58, 0
2, 59118, Note_on_c, 0, 54, 0
2, 59184, Note_on_c, 0, 63, 0
2, 59206, Note_on_c, 0, 32, 58
2, 59318, Note_on_c, 0, 34, 0
2, 59354, Control_c, 0, 64, 0
2, 59598, Note_on_c, 0, 51, 38
2, 59722, Control_c, 0, 64, 127
2, 59884, Note_on_c, 0, 56, 46
2, 60122, Note_on_c, 0, 58, 36
2, 60144, Note_on_c, 0, 56, 0
2, 60366, Note_on_c, 0, 51, 0
2, 60368, Note_on_c, 0, 58, 0
2, 60376, Note_on_c, 0, 60, 47
2, 60580, Note_on_c, 0, 51, 41
2, 60624, Note_on_c, 0, 60, 0
2, 60790, Note_on_c, 0, 56, 57
2, 61014, Note_on_c, 0, 60, 58
2, 61026, Note_on_c, 0, 56, 0
2, 61029, Note_on_c, 0, 51, 0
2, 61068, Note_on_c, 0, 32, 0
2, 61216, Note_on_c, 0, 60, 0
2, 61230, Note_on_c, 0, 58, 46
2, 61370, Note_on_c, 0, 58, 0
2, 61452, Note_on_c, 0, 51, 44
2, 61636, Note_on_c, 0, 70, 60
2, 61640, Note_on_c, 0, 66, 47
2, 61646, Note_on_c, 0, 54, 53
2, 61722, Note_on_c, 0, 51, 0
2, 61880, Note_on_c, 0, 54, 0
2, 61884, Note_on_c, 0, 58, 34
2, 62068, Note_on_c, 0, 58, 0
2, 62156, Note_on_c, 0, 61, 51
2, 62424, Note_on_c, 0, 61, 0
2, 62454, Note_on_c, 0, 51, 47
2, 62578, Note_on_c, 0, 70, 0
2, 62650, Note_on_c, 0, 66, 0
2, 62760, Note_on_c, 0, 54, 56
2, 62768, Note_on_c, 0, 68, 46
2, 62844, Note_on_c, 0, 65, 16
2, 62848, Note_on_c, 0, 51, 0
2, 62870, Note_on_c, 0, 68, 0
2, 62902, Note_on_c, 0, 65, 0
2, 63056, Note_on_c, 0, 61, 46
2, 63138, Note_on_c, 0, 54, 0
2, 63246, Note_on_c, 0, 61, 0
2, 63276, Note_on_c, 0, 32, 74
2, 63318, Control_c, 0, 64, 0
2, 63506, Note_on_c, 0, 51, 54
2, 63594, Control_c, 0, 64, 127
2, 63668, Note_on_c, 0, 32, 0
2, 63730, Note_on_c, 0, 56, 56
2, 63776, Note_on_c, 0, 51, 0
2, 63946, Note_on_c, 0, 58, 57
2, 63976, Note_on_c, 0, 56, 0
2, 64148, Note_on_c, 0, 66, 81
2, 64155, Note_on_c, 0, 63, 65
2, 64162, Note_on_c, 0, 58, 0
2, 64174, Note_on_c, 0, 60, 57
2, 64358, Note_on_c, 0, 60, 0
2, 64374, Note_on_c, 0, 51, 58
2, 64588, Note_on_c, 0, 56, 67
2, 64646, Note_on_c, 0, 51, 0
2, 64698, Note_on_c, 0, 66, 0
2, 64798, Note_on_c, 0, 60, 79
2, 64822, Note_on_c, 0, 56, 0
2, 64830, Note_on_c, 0, 63, 0
2, 65012, Note_on_c, 0, 58, 58
2, 65056, Note_on_c, 0, 60, 0
2, 65216, Note_on_c, 0, 51, 62
2, 65298, Note_on_c, 0, 58, 0
2, 65392, Note_on_c, 0, 70, 83
2, 65402, Note_on_c, 0, 66, 61
2, 65412, Note_on_c, 0, 54, 72
2, 65664, Note_on_c, 0, 58, 53
2, 65684, Control_c, 0, 64, 0
2, 65710, Note_on_c, 0, 54, 0
2, 65836, Control_c, 0, 64, 127
2, 65904, Note_on_c, 0, 51, 0
2, 65940, Note_on_c, 0, 61, 60
2, 65982, Note_on_c, 0, 58, 0
2, 66208, Note_on_c, 0, 70, 0
2, 66213, Note_on_c, 0, 51, 49
2, 66232, Note_on_c, 0, 61, 0
2, 66244, Note_on_c, 0, 66, 0
2, 66502, Note_on_c, 0, 54, 57
2, 66514, Note_on_c, 0, 68, 60
2, 66526, Note_on_c, 0, 65, 60
2, 66556, Note_on_c, 0, 51, 0
2, 66616, Note_on_c, 0, 65, 0
2, 66634, Note_on_c, 0, 68, 0
2, 66814, Note_on_c, 0, 54, 0
2, 66822, Note_on_c, 0, 61, 60
2, 67038, Note_on_c, 0, 61, 0
2, 67100, Note_on_c, 0, 32, 69
2, 67236, Control_c, 0, 64, 0
2, 67402, Note_on_c, 0, 54, 61
2, 67560, Control_c, 0, 64, 127
2, 67648, Note_on_c, 0, 60, 70
2, 67854, Note_on_c, 0, 61, 73
2, 67870, Note_on_c, 0, 60, 0
2, 67962, Note_on_c, 0, 54, 0
2, 68050, Note_on_c, 0, 61, 0
2, 68084, Note_on_c, 0, 63, 67
2, 68096, Control_c, 0, 64, 0
2, 68250, Control_c, 0, 64, 127
2, 68286, Note_on_c, 0, 54, 59
2, 68312, Note_on_c, 0, 32, 0
2, 68332, Note_on_c, 0, 63, 0
2, 68490, Note_on_c, 0, 60, 60
2, 68622, Note_on_c, 0, 54, 0
2, 68680, Note_on_c, 0, 63, 69
2, 68690, Note_on_c, 0, 60, 0
2, 68882, Note_on_c, 0, 61, 67
2, 68920, Note_on_c, 0, 63, 0
2, 69070, Note_on_c, 0, 54, 68
2, 69178, Note_on_c, 0, 61, 0
2, 69262, Note_on_c, 0, 54, 0
2, 69272, Note_on_c, 0, 58, 68
2, 69458, Note_on_c, 0, 61, 68
2, 69512, Note_on_c, 0, 58, 0
2, 69648, Note_on_c, 0, 65, 70
2, 69656, Note_on_c, 0, 61, 0
2, 69842, Note_on_c, 0, 54, 69
2, 69847, Note_on_c, 0, 65, 0
2, 70054, Note_on_c, 0, 54, 0
2, 70054, Note_on_c, 0, 58, 58
2, 70306, Note_on_c, 0, 65, 65
2, 70314, Note_on_c, 0, 58, 0
2, 70668, Note_on_c, 0, 68, 87
2, 70942, Note_on_c, 0, 54, 62
2, 70978, Note_on_c, 0, 65, 0
2, 71202, Note_on_c, 0, 60, 57
2, 71230, Control_c, 0, 64, 0
2, 71322, Control_c, 0, 64, 127
2, 71428, Note_on_c, 0, 60, 0
2, 71434, Note_on_c, 0, 61, 56
2, 71522, Note_on_c, 0, 54, 0
2, 71622, Note_on_c, 0, 61, 0
2, 71660, Note_on_c, 0, 63, 58
2, 71862, Note_on_c, 0, 54, 56
2, 71950, Note_on_c, 0, 63, 0
2, 72104, Note_on_c, 0, 60, 41
2, 72192, Note_on_c, 0, 68, 0
2, 72322, Note_on_c, 0, 63, 49
2, 72334, Note_on_c, 0, 60, 0
2, 72520, Note_on_c, 0, 54, 0
2, 72538, Note_on_c, 0, 51, 69
2, 72554, Note_on_c, 0, 61, 47
2, 72594, Note_on_c, 0, 63, 0
2, 72630, Control_c, 0, 64, 0
2, 72782, Control_c, 0, 64, 127
2, 72787, Note_on_c, 0, 54, 59
2, 72834, Note_on_c, 0, 61, 0
2, 73028, Note_on_c, 0, 58, 45
2, 73060, Control_c, 0, 64, 0
2, 73228, Control_c, 0, 64, 127
2, 73282, Note_on_c, 0, 61, 53
2, 73298, Note_on_c, 0, 54, 0
2, 73306, Note_on_c, 0, 58, 0
2, 73612, Note_on_c, 0, 65, 42
2, 73628, Control_c, 0, 64, 0
2, 73650, Note_on_c, 0, 44, 53
2, 73664, Note_on_c, 0, 61, 0
2, 73786, Note_on_c, 0, 51, 0
2, 73878, Note_on_c, 0, 65, 0
2, 73906, Note_on_c, 0, 54, 54
2, 73920, Control_c, 0, 64, 127
2, 74260, Note_on_c, 0, 58, 39
2, 74294, Note_on_c, 0, 54, 0
2, 74778, Note_on_c, 0, 65, 35
2, 74946, Note_on_c, 0, 44, 0
2, 75108, Note_on_c, 0, 58, 0
2, 75450, Note_on_c, 0, 43, 52
2, 75456, Note_on_c, 0, 65, 0
2, 75456, Note_on_c, 0, 31, 43
2, 75502, Control_c, 0, 64, 0
2, 75786, Note_on_c, 0, 55, 39
2, 75938, Note_on_c, 0, 60, 52
2, 76042, Note_on_c, 0, 55, 0
2, 76094, Note_on_c, 0, 62, 51
2, 76104, Note_on_c, 0, 60, 0
2, 76190, Note_on_c, 0, 62, 0
2, 76214, Note_on_c, 0, 64, 58
2, 76292, Note_on_c, 0, 64, 0
2, 76314, Note_on_c, 0, 55, 51
2, 76394, Note_on_c, 0, 60, 67
2, 76400, Note_on_c, 0, 55, 0
2, 76494, Note_on_c, 0, 60, 0
2, 76512, Note_on_c, 0, 64, 54
2, 76566, Note_on_c, 0, 64, 0
2, 76588, Note_on_c, 0, 62, 73
2, 76660, Note_on_c, 0, 62, 0
2, 76682, Note_on_c, 0, 53, 69
2, 76770, Note_on_c, 0, 53, 0
2, 76786, Note_on_c, 0, 60, 37
2, 76842, Note_on_c, 0, 62, 76
2, 76898, Note_on_c, 0, 60, 0
2, 76938, Note_on_c, 0, 65, 75
2, 76952, Note_on_c, 0, 62, 0
2, 77006, Note_on_c, 0, 65, 0
2, 77016, Note_on_c, 0, 57, 59
2, 77094, Note_on_c, 0, 57, 0
2, 77112, Note_on_c, 0, 59, 72
2, 77172, Note_on_c, 0, 59, 0
2, 77198, Note_on_c, 0, 65, 61
2, 77288, Note_on_c, 0, 64, 79
2, 77296, Note_on_c, 0, 65, 0
2, 77372, Note_on_c, 0, 55, 79
2, 77374, Note_on_c, 0, 64, 0
2, 77444, Note_on_c, 0, 55, 0
2, 77468, Note_on_c, 0, 60, 66
2, 77534, Note_on_c, 0, 60, 0
2, 77538, Note_on_c, 0, 64, 80
2, 77630, Note_on_c, 0, 64, 0
2, 77638, Note_on_c, 0, 67, 82
2, 77712, Note_on_c, 0, 67, 0
2, 77730, Note_on_c, 0, 59, 53
2, 77790, Note_on_c, 0, 59, 0
2, 77798, Note_on_c, 0, 60, 73
2, 77858, Note_on_c, 0, 60, 0
2, 77876, Note_on_c, 0, 67, 70
2, 77972, Note_on_c, 0, 67, 0
2, 77984, Note_on_c, 0, 65, 73
2, 78042, Note_on_c, 0, 65, 0
2, 78068, Note_on_c, 0, 57, 68
2, 78140, Note_on_c, 0, 57, 0
2, 78160, Note_on_c, 0, 60, 70
2, 78222, Note_on_c, 0, 60, 0
2, 78240, Note_on_c, 0, 65, 65
2, 78322, Note_on_c, 0, 65, 0
2, 78334, Note_on_c, 0, 69, 54
2, 78414, Note_on_c, 0, 69, 0
2, 78436, Note_on_c, 0, 59, 52
2, 78498, Note_on_c, 0, 59, 0
2, 78504, Note_on_c, 0, 65, 57
2, 78578, Note_on_c, 0, 65, 0
2, 78578, Note_on_c, 0, 69, 50
2, 78654, Note_on_c, 0, 31, 0
2, 78668, Note_on_c, 0, 69, 0
2, 78668, Note_on_c, 0, 36, 54
2, 78694, Note_on_c, 0, 67, 69
2, 78762, Note_on_c, 0, 67, 0
2, 78772, Note_on_c, 0, 60, 50
2, 78844, Note_on_c, 0, 36, 0
2, 78852, Note_on_c, 0, 60, 0
2, 78862, Note_on_c, 0, 43, 0
2, 78878, Note_on_c, 0, 64, 57
2, 78882, Control_c, 0, 64, 127
2, 78942, Note_on_c, 0, 64, 0
2, 78990, Note_on_c, 0, 67, 45
2, 79066, Note_on_c, 0, 67, 0
2, 79094, Note_on_c, 0, 72, 51
2, 79110, Note_on_c, 0, 60, 62
2, 79129, Control_c, 0, 64, 0
2, 79200, Note_on_c, 0, 64, 49
2, 79230, Note_on_c, 0, 72, 0
2, 79272, Note_on_c, 0, 64, 0
2, 79282, Note_on_c, 0, 67, 61
2, 79352, Note_on_c, 0, 67, 0
2, 79378, Note_on_c, 0, 72, 62
2, 79440, Note_on_c, 0, 72, 0
2, 79474, Note_on_c, 0, 74, 65
2, 79484, Note_on_c, 0, 59, 45
2, 79538, Note_on_c, 0, 74, 0
2, 79566, Note_on_c, 0, 64, 64
2, 79624, Note_on_c, 0, 64, 0
2, 79660, Note_on_c, 0, 67, 52
2, 79722, Note_on_c, 0, 67, 0
2, 79742, Note_on_c, 0, 74, 73
2, 79798, Note_on_c, 0, 74, 0
2, 79812, Note_on_c, 0, 59, 0
2, 79824, Note_on_c, 0, 57, 61
2, 79836, Note_on_c, 0, 72, 72
2, 79904, Note_on_c, 0, 72, 0
2, 79944, Note_on_c, 0, 64, 46
2, 80008, Note_on_c, 0, 64, 0
2, 80011, Note_on_c, 0, 67, 61
2, 80076, Note_on_c, 0, 67, 0
2, 80116, Note_on_c, 0, 72, 49
2, 80164, Note_on_c, 0, 57, 0
2, 80184, Note_on_c, 0, 72, 0
2, 80184, Note_on_c, 0, 59, 68
2, 80198, Note_on_c, 0, 71, 85
2, 80268, Note_on_c, 0, 71, 0
2, 80288, Note_on_c, 0, 64, 49
2, 80360, Note_on_c, 0, 64, 0
2, 80364, Note_on_c, 0, 67, 64
2, 80382, Note_on_c, 0, 60, 0
2, 80432, Note_on_c, 0, 67, 0
2, 80446, Note_on_c, 0, 71, 68
2, 80530, Note_on_c, 0, 71, 0
2, 80538, Note_on_c, 0, 69, 65
2, 80548, Note_on_c, 0, 59, 0
2, 80554, Note_on_c, 0, 60, 81
2, 80632, Note_on_c, 0, 69, 0
2, 80634, Note_on_c, 0, 64, 46
2, 80712, Note_on_c, 0, 64, 0
2, 80724, Note_on_c, 0, 67, 47
2, 80792, Note_on_c, 0, 67, 0
2, 80792, Note_on_c, 0, 69, 61
2, 80876, Note_on_c, 0, 60, 0
2, 80876, Note_on_c, 0, 67, 60
2, 80896, Note_on_c, 0, 69, 0
2, 80902, Note_on_c, 0, 59, 50
2, 80982, Note_on_c, 0, 67, 0
2, 80985, Note_on_c, 0, 60, 43
2, 81058, Note_on_c, 0, 60, 0
2, 81074, Note_on_c, 0, 64, 57
2, 81134, Note_on_c, 0, 64, 0
2, 81154, Note_on_c, 0, 67, 52
2, 81236, Note_on_c, 0, 67, 0
2, 81239, Note_on_c, 0, 59, 0
2, 81246, Note_on_c, 0, 65, 60
2, 81272, Note_on_c, 0, 57, 34
2, 81320, Note_on_c, 0, 65, 0
2, 81354, Note_on_c, 0, 60, 31
2, 81438, Note_on_c, 0, 60, 0
2, 81510, Note_on_c, 0, 65, 62
2, 81578, Note_on_c, 0, 65, 0
2, 81590, Note_on_c, 0, 57, 0
2, 81598, Note_on_c, 0, 64, 66
2, 81634, Note_on_c, 0, 55, 43
2, 81710, Note_on_c, 0, 57, 35
2, 81742, Note_on_c, 0, 64, 0
2, 81790, Note_on_c, 0, 57, 0
2, 81790, Note_on_c, 0, 60, 61
2, 81848, Control_c, 0, 64, 127
2, 81870, Note_on_c, 0, 60, 0
2, 81884, Note_on_c, 0, 64, 61
2, 81966, Note_on_c, 0, 64, 0
2, 81974, Note_on_c, 0, 62, 84
2, 81994, Note_on_c, 0, 55, 0
2, 81997, Note_on_c, 0, 53, 75
2, 82048, Control_c, 0, 64, 0
2, 82064, Note_on_c, 0, 57, 51
2, 82118, Note_on_c, 0, 62, 0
2, 82146, Note_on_c, 0, 60, 62
2, 82154, Note_on_c, 0, 57, 0
2, 82202, Control_c, 0, 64, 127
2, 82224, Note_on_c, 0, 62, 66
2, 82236, Note_on_c, 0, 60, 0
2, 82294, Control_c, 0, 64, 0
2, 82326, Note_on_c, 0, 67, 82
2, 82328, Note_on_c, 0, 53, 0
2, 82334, Note_on_c, 0, 62, 0
2, 82356, Note_on_c, 0, 52, 64
2, 82424, Note_on_c, 0, 59, 60
2, 82478, Control_c, 0, 64, 127
2, 82502, Note_on_c, 0, 59, 0
2, 82510, Note_on_c, 0, 67, 0
2, 82514, Note_on_c, 0, 64, 73
2, 82574, Note_on_c, 0, 64, 0
2, 82580, Note_on_c, 0, 67, 74
2, 82654, Note_on_c, 0, 52, 0
2, 82662, Control_c, 0, 64, 0
2, 82676, Note_on_c, 0, 69, 81
2, 82698, Note_on_c, 0, 67, 0
2, 82700, Note_on_c, 0, 57, 58
2, 82756, Note_on_c, 0, 60, 67
2, 82822, Note_on_c, 0, 69, 0
2, 82858, Note_on_c, 0, 64, 62
2, 82861, Control_c, 0, 64, 127
2, 82867, Note_on_c, 0, 60, 0
2, 82918, Note_on_c, 0, 64, 0
2, 82928, Note_on_c, 0, 69, 65
2, 82948, Note_on_c, 0, 57, 0
2, 82978, Note_on_c, 0, 69, 0
2, 83032, Control_c, 0, 64, 0
2, 83058, Note_on_c, 0, 64, 95
2, 83062, Note_on_c, 0, 55, 52
2, 83174, Note_on_c, 0, 57, 61
2, 83216, Control_c, 0, 64, 127
2, 83248, Note_on_c, 0, 64, 0
2, 83258, Note_on_c, 0, 60, 64
2, 83276, Note_on_c, 0, 57, 0
2, 83334, Note_on_c, 0, 60, 0
2, 83334, Note_on_c, 0, 64, 64
2, 83400, Control_c, 0, 64, 0
2, 83402, Note_on_c, 0, 55, 0
2, 83428, Note_on_c, 0, 62, 80
2, 83440, Note_on_c, 0, 64, 0
2, 83464, Note_on_c, 0, 53, 79
2, 83516, Note_on_c, 0, 57, 53
2, 83566, Note_on_c, 0, 62, 0
2, 83592, Note_on_c, 0, 60, 66
2, 83600, Control_c, 0, 64, 127
2, 83618, Note_on_c, 0, 57, 0
2, 83670, Note_on_c, 0, 60, 0
2, 83680, Note_on_c, 0, 62, 57
2, 83768, Note_on_c, 0, 53, 0
2, 83768, Control_c, 0, 64, 0
2, 83794, Note_on_c, 0, 60, 73
2, 83822, Note_on_c, 0, 52, 60
2, 83834, Note_on_c, 0, 62, 0
2, 83896, Note_on_c, 0, 55, 59
2, 83954, Note_on_c, 0, 60, 0
2, 83984, Control_c, 0, 64, 127
2, 83992, Note_on_c, 0, 57, 51
2, 83994, Note_on_c, 0, 55, 0
2, 84070, Note_on_c, 0, 60, 45
2, 84080, Note_on_c, 0, 57, 0
2, 84132, Note_on_c, 0, 52, 0
2, 84168, Control_c, 0, 64, 0
2, 84184, Note_on_c, 0, 50, 51
2, 84194, Note_on_c, 0, 59, 66
2, 84208, Note_on_c, 0, 60, 0
2, 84304, Note_on_c, 0, 53, 82
2, 84334, Note_on_c, 0, 59, 0
2, 84372, Note_on_c, 0, 53, 0
2, 84384, Control_c, 0, 64, 127
2, 84410, Note_on_c, 0, 55, 51
2, 84492, Note_on_c, 0, 50, 0
2, 84510, Note_on_c, 0, 55, 0
2, 84512, Note_on_c, 0, 59, 61
2, 84580, Note_on_c, 0, 59, 0
2, 84642, Note_on_c, 0, 41, 69
2, 84644, Control_c, 0, 64, 0
2, 84726, Note_on_c, 0, 48, 57
2, 84798, Note_on_c, 0, 48, 0
2, 84810, Note_on_c, 0, 50, 60
2, 84872, Note_on_c, 0, 50, 0
2, 84876, Control_c, 0, 64, 127
2, 84888, Note_on_c, 0, 52, 82
2, 84940, Note_on_c, 0, 41, 0
2, 84952, Note_on_c, 0, 52, 0
2, 85004, Note_on_c, 0, 53, 77
2, 85080, Note_on_c, 0, 53, 0
2, 85080, Note_on_c, 0, 57, 61
2, 85156, Note_on_c, 0, 57, 0
2, 85170, Note_on_c, 0, 60, 72
2, 85248, Note_on_c, 0, 62, 77
2, 85282, Note_on_c, 0, 60, 0
2, 85308, Note_on_c, 0, 62, 0
2, 85338, Note_on_c, 0, 64, 104
2, 85378, Note_on_c, 0, 64, 0
2, 85460, Note_on_c, 0, 62, 69
2, 85542, Note_on_c, 0, 62, 0
2, 85546, Note_on_c, 0, 60, 73
2, 85616, Note_on_c, 0, 60, 0
2, 85636, Note_on_c, 0, 57, 56
2, 85726, Note_on_c, 0, 57, 0
2, 85732, Note_on_c, 0, 53, 84
2, 85786, Note_on_c, 0, 53, 0
2, 85830, Note_on_c, 0, 52, 65
2, 85902, Note_on_c, 0, 52, 0
2, 85922, Note_on_c, 0, 50, 67
2, 85990, Note_on_c, 0, 50, 0
2, 86000, Note_on_c, 0, 48, 72
2, 86064, Note_on_c, 0, 48, 0
2, 86090, Control_c, 0, 64, 0
2, 86116, Note_on_c, 0, 41, 75
2, 86240, Note_on_c, 0, 48, 36
2, 86284, Note_on_c, 0, 50, 76
2, 86292, Note_on_c, 0, 41, 0
2, 86314, Note_on_c, 0, 48, 0
2, 86352, Note_on_c, 0, 50, 0
2, 86366, Control_c, 0, 64, 127
2, 86390, Note_on_c, 0, 52, 51
2, 86444, Note_on_c, 0, 52, 0
2, 86472, Note_on_c, 0, 53, 82
2, 86528, Note_on_c, 0, 53, 0
2, 86568, Note_on_c, 0, 57, 46
2, 86642, Note_on_c, 0, 57, 0
2, 86660, Note_on_c, 0, 60, 54
2, 86734, Note_on_c, 0, 62, 61
2, 86736, Note_on_c, 0, 60, 0
2, 86790, Note_on_c, 0, 62, 0
2, 86844, Note_on_c, 0, 64, 56
2, 86900, Note_on_c, 0, 64, 0
2, 86908, Note_on_c, 0, 62, 43
2, 86982, Note_on_c, 0, 62, 0
2, 87008, Note_on_c, 0, 60, 49
2, 87076, Note_on_c, 0, 60, 0
2, 87084, Note_on_c, 0, 59, 60
2, 87152, Note_on_c, 0, 59, 0
2, 87202, Note_on_c, 0, 57, 46
2, 87266, Note_on_c, 0, 57, 0
2, 87288, Note_on_c, 0, 52, 46
2, 87348, Note_on_c, 0, 52, 0
2, 87362, Note_on_c, 0, 50, 62
2, 87426, Note_on_c, 0, 50, 0
2, 87429, Note_on_c, 0, 48, 66
2, 87494, Note_on_c, 0, 48, 0
2, 87502, Control_c, 0, 64, 0
2, 87542, Note_on_c, 0, 41, 66
2, 87656, Note_on_c, 0, 48, 57
2, 87726, Note_on_c, 0, 41, 0
2, 87726, Note_on_c, 0, 50, 57
2, 87760, Note_on_c, 0, 48, 0
2, 87764, Control_c, 0, 64, 127
2, 87820, Note_on_c, 0, 52, 69
2, 87823, Note_on_c, 0, 50, 0
2, 87866, Note_on_c, 0, 52, 0
2, 87916, Note_on_c, 0, 53, 68
2, 87980, Note_on_c, 0, 53, 0
2, 87986, Note_on_c, 0, 56, 65
2, 88070, Note_on_c, 0, 56, 0
2, 88088, Note_on_c, 0, 60, 59
2, 88154, Note_on_c, 0, 62, 81
2, 88180, Note_on_c, 0, 60, 0
2, 88212, Note_on_c, 0, 62, 0
2, 88270, Note_on_c, 0, 64, 98
2, 88310, Note_on_c, 0, 64, 0
2, 88380, Note_on_c, 0, 62, 65
2, 88448, Note_on_c, 0, 62, 0
2, 88468, Note_on_c, 0, 60, 64
2, 88530, Note_on_c, 0, 60, 0
2, 88540, Note_on_c, 0, 56, 61
2, 88642, Note_on_c, 0, 53, 82
2, 88644, Note_on_c, 0, 56, 0
2, 88694, Note_on_c, 0, 53, 0
2, 88722, Note_on_c, 0, 52, 69
2, 88776, Note_on_c, 0, 52, 0
2, 88808, Note_on_c, 0, 50, 60
2, 88866, Note_on_c, 0, 50, 0
2, 88868, Note_on_c, 0, 48, 66
2, 88942, Note_on_c, 0, 48, 0
2, 88962, Control_c, 0, 64, 0
2, 88976, Note_on_c, 0, 41, 76
2, 89104, Note_on_c, 0, 48, 52
2, 89146, Note_on_c, 0, 41, 0
2, 89152, Note_on_c, 0, 50, 69
2, 89188, Note_on_c, 0, 48, 0
2, 89208, Control_c, 0, 64, 127
2, 89220, Note_on_c, 0, 50, 0
2, 89240, Note_on_c, 0, 52, 67
2, 89288, Note_on_c, 0, 52, 0
2, 89352, Note_on_c, 0, 53, 62
2, 89408, Note_on_c, 0, 56, 62
2, 89420, Note_on_c, 0, 53, 0
2, 89486, Note_on_c, 0, 56, 0
2, 89518, Note_on_c, 0, 60, 54
2, 89604, Note_on_c, 0, 60, 0
2, 89606, Note_on_c, 0, 62, 49
2, 89666, Note_on_c, 0, 62, 0
2, 89712, Note_on_c, 0, 64, 56
2, 89766, Note_on_c, 0, 64, 0
2, 89810, Note_on_c, 0, 62, 26
2, 89870, Note_on_c, 0, 60, 65
2, 89884, Note_on_c, 0, 62, 0
2, 89988, Note_on_c, 0, 60, 0
2, 89994, Note_on_c, 0, 58, 45
2, 90076, Note_on_c, 0, 58, 0
2, 90094, Note_on_c, 0, 56, 47
2, 90166, Note_on_c, 0, 52, 46
2, 90176, Note_on_c, 0, 56, 0
2, 90238, Note_on_c, 0, 52, 0
2, 90258, Note_on_c, 0, 50, 49
2, 90318, Note_on_c, 0, 48, 69
2, 90326, Note_on_c, 0, 50, 0
2, 90370, Note_on_c, 0, 48, 0
2, 90422, Control_c, 0, 64, 0
2, 90442, Note_on_c, 0, 40, 100
2, 90575, Note_on_c, 0, 48, 69
2, 90579, Note_on_c, 0, 40, 0
2, 90642, Note_on_c, 0, 52, 72
2, 90662, Note_on_c, 0, 48, 0
2, 90684, Control_c, 0, 64, 127
2, 90712, Note_on_c, 0, 56, 69
2, 90735, Note_on_c, 0, 52, 0
2, 90760, Control_c, 0, 64, 0
2, 90776, Note_on_c, 0, 56, 0
2, 90800, Note_on_c, 0, 48, 69
2, 90874, Note_on_c, 0, 52, 97
2, 90887, Note_on_c, 0, 48, 0
2, 90952, Note_on_c, 0, 56, 76
2, 90966, Note_on_c, 0, 52, 0
2, 91062, Note_on_c, 0, 60, 33
2, 91072, Note_on_c, 0, 56, 0
2, 91118, Note_on_c, 0, 52, 105
2, 91124, Note_on_c, 0, 60, 0
2, 91218, Note_on_c, 0, 56, 83
2, 91260, Note_on_c, 0, 52, 0
2, 91316, Note_on_c, 0, 60, 85
2, 91322, Note_on_c, 0, 56, 0
2, 91386, Note_on_c, 0, 64, 93
2, 91398, Note_on_c, 0, 60, 0
2, 91440, Note_on_c, 0, 64, 0
2, 91490, Note_on_c, 0, 56, 89
2, 91582, Note_on_c, 0, 60, 87
2, 91614, Note_on_c, 0, 56, 0
2, 91680, Note_on_c, 0, 64, 87
2, 91682, Note_on_c, 0, 60, 0
2, 91712, Control_c, 0, 64, 127
2, 91748, Note_on_c, 0, 68, 73
2, 91758, Control_c, 0, 64, 0
2, 91766, Note_on_c, 0, 64, 0
2, 91818, Note_on_c, 0, 56, 90
2, 91822, Note_on_c, 0, 68, 0
2, 91896, Note_on_c, 0, 60, 82
2, 91984, Note_on_c, 0, 56, 0
2, 91984, Note_on_c, 0, 64, 81
2, 91996, Note_on_c, 0, 60, 0
2, 92004, Control_c, 0, 64, 127
2, 92046, Note_on_c, 0, 68, 72
2, 92074, Note_on_c, 0, 64, 0
2, 92094, Note_on_c, 0, 68, 0
2, 92128, Control_c, 0, 64, 0
2, 92146, Note_on_c, 0, 60, 106
2, 92234, Note_on_c, 0, 64, 99
2, 92250, Note_on_c, 0, 60, 0
2, 92304, Note_on_c, 0, 68, 80
2, 92320, Note_on_c, 0, 64, 0
2, 92328, Control_c, 0, 64, 127
2, 92384, Note_on_c, 0, 72, 91
2, 92414, Note_on_c, 0, 68, 0
2, 92424, Note_on_c, 0, 72, 0
2, 92482, Note_on_c, 0, 64, 114
2, 92568, Note_on_c, 0, 68, 85
2, 92598, Note_on_c, 0, 64, 0
2, 92648, Note_on_c, 0, 72, 88
2, 92690, Note_on_c, 0, 68, 0
2, 92722, Note_on_c, 0, 76, 91
2, 92742, Note_on_c, 0, 72, 0
2, 92764, Note_on_c, 0, 76, 0
2, 92804, Control_c, 0, 64, 0
2, 92810, Note_on_c, 0, 68, 106
2, 92896, Note_on_c, 0, 72, 103
2, 92978, Note_on_c, 0, 68, 0
2, 92978, Note_on_c, 0, 76, 64
2, 92981, Note_on_c, 0, 72, 0
2, 92988, Control_c, 0, 64, 127
2, 93046, Note_on_c, 0, 80, 98
2, 93098, Note_on_c, 0, 76, 0
2, 93126, Control_c, 0, 64, 0
2, 93130, Note_on_c, 0, 80, 0
2, 93138, Note_on_c, 0, 72, 114
2, 93230, Note_on_c, 0, 76, 79
2, 93310, Note_on_c, 0, 79, 107
2, 93340, Note_on_c, 0, 76, 0
2, 93342, Control_c, 0, 64, 127
2, 93354, Note_on_c, 0, 72, 0
2, 93390, Note_on_c, 0, 84, 114
2, 93462, Note_on_c, 0, 79, 0
2, 93472, Note_on_c, 0, 72, 112
2, 93524, Note_on_c, 0, 84, 0
2, 93550, Note_on_c, 0, 76, 99
2, 93630, Note_on_c, 0, 79, 118
2, 93658, Note_on_c, 0, 76, 0
2, 93686, Note_on_c, 0, 72, 0
2, 93702, Note_on_c, 0, 84, 89
2, 93750, Note_on_c, 0, 79, 0
2, 93802, Note_on_c, 0, 74, 127
2, 93852, Note_on_c, 0, 84, 0
2, 93894, Control_c, 0, 64, 0
2, 93910, Note_on_c, 0, 76, 104
2, 93950, Note_on_c, 0, 79, 103
2, 94028, Note_on_c, 0, 76, 0
2, 94034, Note_on_c, 0, 74, 0
2, 94036, Note_on_c, 0, 86, 103
2, 94064, Control_c, 0, 64, 127
2, 94094, Note_on_c, 0, 79, 0
2, 94124, Note_on_c, 0, 72, 122
2, 94170, Control_c, 0, 64, 0
2, 94188, Note_on_c, 0, 86, 0
2, 94214, Note_on_c, 0, 76, 111
2, 94284, Note_on_c, 0, 79, 113
2, 94314, Note_on_c, 0, 72, 0
2, 94326, Control_c, 0, 64, 127
2, 94329, Note_on_c, 0, 76, 0
2, 94374, Note_on_c, 0, 84, 111
2, 94426, Note_on_c, 0, 79, 0
2, 94474, Note_on_c, 0, 84, 0
2, 94492, Note_on_c, 0, 77, 119
2, 94582, Note_on_c, 0, 80, 99
2, 94692, Note_on_c, 0, 84, 106
2, 94746, Note_on_c, 0, 80, 0
2, 94790, Note_on_c, 0, 89, 96
2, 94792, Note_on_c, 0, 77, 0
2, 94844, Note_on_c, 0, 84, 0
2, 94872, Note_on_c, 0, 75, 106
2, 94878, Control_c, 0, 64, 0
2, 94918, Note_on_c, 0, 89, 0
2, 94954, Note_on_c, 0, 80, 105
2, 95016, Note_on_c, 0, 84, 93
2, 95056, Note_on_c, 0, 80, 0
2, 95062, Control_c, 0, 64, 127
2, 95100, Note_on_c, 0, 75, 0
2, 95112, Note_on_c, 0, 87, 97
2, 95158, Note_on_c, 0, 84, 0
2, 95198, Note_on_c, 0, 74, 118
2, 95224, Note_on_c, 0, 87, 0
2, 95262, Note_on_c, 0, 75, 99
2, 95356, Note_on_c, 0, 80, 93
2, 95382, Note_on_c, 0, 75, 0
2, 95410, Note_on_c, 0, 74, 0
2, 95441, Note_on_c, 0, 86, 103
2, 95506, Note_on_c, 0, 80, 0
2, 95526, Note_on_c, 0, 72, 107
2, 95554, Control_c, 0, 64, 0
2, 95598, Note_on_c, 0, 86, 0
2, 95614, Note_on_c, 0, 75, 111
2, 95694, Note_on_c, 0, 80, 103
2, 95722, Note_on_c, 0, 75, 0
2, 95722, Control_c, 0, 64, 127
2, 95738, Note_on_c, 0, 72, 0
2, 95778, Note_on_c, 0, 84, 115
2, 95842, Note_on_c, 0, 80, 0
2, 95866, Note_on_c, 0, 74, 125
2, 95876, Control_c, 0, 64, 0
2, 95918, Note_on_c, 0, 84, 0
2, 95980, Note_on_c, 0, 76, 99
2, 96030, Note_on_c, 0, 79, 103
2, 96070, Note_on_c, 0, 76, 0
2, 96076, Control_c, 0, 64, 127
2, 96110, Note_on_c, 0, 86, 103
2, 96114, Note_on_c, 0, 74, 0
2, 96162, Note_on_c, 0, 79, 0
2, 96206, Note_on_c, 0, 72, 116
2, 96214, Control_c, 0, 64, 0
2, 96222, Note_on_c, 0, 86, 0
2, 96286, Note_on_c, 0, 76, 103
2, 96354, Note_on_c, 0, 79, 93
2, 96368, Control_c, 0, 64, 127
2, 96392, Note_on_c, 0, 76, 0
2, 96420, Note_on_c, 0, 72, 0
2, 96446, Note_on_c, 0, 84, 105
2, 96502, Note_on_c, 0, 79, 0
2, 96534, Note_on_c, 0, 71, 125
2, 96546, Note_on_c, 0, 84, 0
2, 96618, Note_on_c, 0, 72, 93
2, 96686, Note_on_c, 0, 76, 82
2, 96740, Note_on_c, 0, 72, 0
2, 96776, Note_on_c, 0, 83, 120
2, 96780, Note_on_c, 0, 71, 0
2, 96848, Note_on_c, 0, 76, 0
2, 96866, Note_on_c, 0, 69, 110
2, 96904, Note_on_c, 0, 83, 0
2, 96906, Control_c, 0, 64, 0
2, 96956, Note_on_c, 0, 72, 100
2, 97024, Note_on_c, 0, 76, 85
2, 97060, Note_on_c, 0, 72, 0
2, 97076, Control_c, 0, 64, 127
2, 97102, Note_on_c, 0, 69, 0
2, 97110, Note_on_c, 0, 81, 99
2, 97168, Note_on_c, 0, 76, 0
2, 97198, Note_on_c, 0, 67, 115
2, 97218, Note_on_c, 0, 81, 0
2, 97260, Control_c, 0, 64, 0
2, 97284, Note_on_c, 0, 69, 81
2, 97388, Note_on_c, 0, 72, 73
2, 97428, Control_c, 0, 64, 127
2, 97450, Note_on_c, 0, 69, 0
2, 97466, Note_on_c, 0, 79, 100
2, 97480, Note_on_c, 0, 67, 0
2, 97526, Note_on_c, 0, 72, 0
2, 97552, Note_on_c, 0, 65, 110
2, 97568, Note_on_c, 0, 79, 0
2, 97628, Control_c, 0, 64, 0
2, 97654, Note_on_c, 0, 67, 91
2, 97732, Note_on_c, 0, 72, 72
2, 97764, Note_on_c, 0, 67, 0
2, 97782, Control_c, 0, 64, 127
2, 97788, Note_on_c, 0, 65, 0
2, 97814, Note_on_c, 0, 77, 81
2, 97862, Note_on_c, 0, 72, 0
2, 97892, Note_on_c, 0, 77, 0
2, 97892, Note_on_c, 0, 64, 102
2, 97952, Control_c, 0, 64, 0
2, 97972, Note_on_c, 0, 65, 88
2, 98048, Note_on_c, 0, 68, 73
2, 98098, Note_on_c, 0, 65, 0
2, 98120, Control_c, 0, 64, 127
2, 98128, Note_on_c, 0, 64, 0
2, 98138, Note_on_c, 0, 76, 74
2, 98196, Note_on_c, 0, 68, 0
2, 98216, Note_on_c, 0, 62, 88
2, 98242, Control_c, 0, 64, 0
2, 98246, Note_on_c, 0, 76, 0
2, 98302, Note_on_c, 0, 64, 79
2, 98388, Note_on_c, 0, 68, 73
2, 98422, Note_on_c, 0, 64, 0
2, 98422, Note_on_c, 0, 62, 0
2, 98442, Control_c, 0, 64, 127
2, 98474, Note_on_c, 0, 74, 82
2, 98526, Note_on_c, 0, 68, 0
2, 98546, Note_on_c, 0, 74, 0
2, 98568, Note_on_c, 0, 62, 81
2, 98596, Control_c, 0, 64, 0
2, 98652, Note_on_c, 0, 64, 85
2, 98740, Note_on_c, 0, 67, 66
2, 98776, Note_on_c, 0, 64, 0
2, 98796, Control_c, 0, 64, 127
2, 98820, Note_on_c, 0, 62, 0
2, 98820, Note_on_c, 0, 74, 81
2, 98878, Note_on_c, 0, 67, 0
2, 98884, Note_on_c, 0, 74, 0
2, 98906, Note_on_c, 0, 60, 83
2, 98950, Control_c, 0, 64, 0
2, 98980, Note_on_c, 0, 64, 90
2, 99068, Note_on_c, 0, 67, 84
2, 99124, Note_on_c, 0, 64, 0
2, 99140, Note_on_c, 0, 72, 84
2, 99150, Control_c, 0, 64, 127
2, 99156, Note_on_c, 0, 60, 0
2, 99200, Note_on_c, 0, 67, 0
2, 99238, Note_on_c, 0, 62, 110
2, 99248, Note_on_c, 0, 72, 0
2, 99288, Control_c, 0, 64, 0
2, 99346, Note_on_c, 0, 64, 91
2, 99408, Note_on_c, 0, 67, 81
2, 99472, Control_c, 0, 64, 127
2, 99498, Note_on_c, 0, 74, 96
2, 99501, Note_on_c, 0, 64, 0
2, 99524, Note_on_c, 0, 62, 0
2, 99548, Note_on_c, 0, 67, 0
2, 99580, Note_on_c, 0, 60, 103
2, 99596, Control_c, 0, 64, 0
2, 99622, Note_on_c, 0, 74, 0
2, 99670, Note_on_c, 0, 64, 96
2, 99732, Note_on_c, 0, 67, 89
2, 99740, Note_on_c, 0, 60, 0
2, 99764, Control_c, 0, 64, 127
2, 99772, Note_on_c, 0, 64, 0
2, 99800, Note_on_c, 0, 72, 93
2, 99852, Note_on_c, 0, 67, 0
2, 99856, Note_on_c, 0, 72, 0
2, 99890, Note_on_c, 0, 65, 98
2, 99934, Control_c, 0, 64, 0
2, 99976, Note_on_c, 0, 68, 83
2, 100048, Note_on_c, 0, 72, 97
2, 100114, Note_on_c, 0, 68, 0
2, 100117, Control_c, 0, 64, 127
2, 100126, Note_on_c, 0, 65, 0
2, 100146, Note_on_c, 0, 77, 96
2, 100202, Note_on_c, 0, 72, 0
2, 100228, Note_on_c, 0, 63, 106
2, 100256, Control_c, 0, 64, 0
2, 100264, Note_on_c, 0, 77, 0
2, 100320, Note_on_c, 0, 68, 67
2, 100362, Note_on_c, 0, 72, 82
2, 100424, Control_c, 0, 64, 127
2, 100426, Note_on_c, 0, 68, 0
2, 100436, Note_on_c, 0, 63, 0
2, 100446, Note_on_c, 0, 75, 96
2, 100480, Note_on_c, 0, 72, 0
2, 100520, Note_on_c, 0, 75, 0
2, 100548, Note_on_c, 0, 62, 106
2, 100620, Note_on_c, 0, 63, 60
2, 100690, Note_on_c, 0, 68, 82
2, 100738, Note_on_c, 0, 63, 0
2, 100768, Note_on_c, 0, 74, 96
2, 100788, Note_on_c, 0, 62, 0
2, 100830, Note_on_c, 0, 68, 0
2, 100864, Note_on_c, 0, 60, 104
2, 100900, Note_on_c, 0, 74, 0
2, 100948, Note_on_c, 0, 63, 107
2, 101020, Note_on_c, 0, 68, 89
2, 101050, Note_on_c, 0, 63, 0
2, 101082, Note_on_c, 0, 60, 0
2, 101094, Note_on_c, 0, 72, 93
2, 101168, Note_on_c, 0, 68, 0
2, 101200, Note_on_c, 0, 62, 111
2, 101210, Note_on_c, 0, 72, 0
2, 101240, Control_c, 0, 64, 0
2, 101288, Note_on_c, 0, 64, 99
2, 101366, Note_on_c, 0, 67, 88
2, 101416, Note_on_c, 0, 64, 0
2, 101446, Note_on_c, 0, 74, 102
2, 101460, Note_on_c, 0, 62, 0
2, 101470, Control_c, 0, 64, 127
2, 101502, Note_on_c, 0, 67, 0
2, 101524, Note_on_c, 0, 60, 114
2, 101576, Note_on_c, 0, 74, 0
2, 101592, Control_c, 0, 64, 0
2, 101636, Note_on_c, 0, 64, 97
2, 101684, Note_on_c, 0, 67, 90
2, 101750, Note_on_c, 0, 64, 0
2, 101760, Note_on_c, 0, 72, 92
2, 101766, Note_on_c, 0, 60, 0
2, 101792, Control_c, 0, 64, 127
2, 101810, Note_on_c, 0, 67, 0
2, 101848, Note_on_c, 0, 59, 110
2, 101882, Note_on_c, 0, 72, 0
2, 101928, Note_on_c, 0, 60, 95
2, 101928, Control_c, 0, 64, 0
2, 101984, Note_on_c, 0, 64, 90
2, 102064, Note_on_c, 0, 60, 0
2, 102067, Note_on_c, 0, 71, 108
2, 102086, Note_on_c, 0, 59, 0
2, 102100, Control_c, 0, 64, 127
2, 102124, Note_on_c, 0, 64, 0
2, 102166, Note_on_c, 0, 57, 106
2, 102182, Note_on_c, 0, 71, 0
2, 102222, Control_c, 0, 64, 0
2, 102242, Note_on_c, 0, 60, 103
2, 102312, Note_on_c, 0, 64, 102
2, 102346, Note_on_c, 0, 60, 0
2, 102386, Note_on_c, 0, 57, 0
2, 102394, Note_on_c, 0, 69, 79
2, 102408, Control_c, 0, 64, 127
2, 102438, Note_on_c, 0, 64, 0
2, 102496, Note_on_c, 0, 55, 106
2, 102508, Note_on_c, 0, 69, 0
2, 102560, Control_c, 0, 64, 0
2, 102570, Note_on_c, 0, 57, 82
2, 102654, Note_on_c, 0, 60, 72
2, 102718, Note_on_c, 0, 57, 0
2, 102732, Note_on_c, 0, 67, 84
2, 102742, Note_on_c, 0, 55, 0
2, 102760, Control_c, 0, 64, 127
2, 102788, Note_on_c, 0, 60, 0
2, 102816, Note_on_c, 0, 67, 0
2, 102842, Note_on_c, 0, 53, 111
2, 102884, Control_c, 0, 64, 0
2, 102906, Note_on_c, 0, 55, 74
2, 102970, Note_on_c, 0, 60, 65
2, 103034, Note_on_c, 0, 53, 0
2, 103036, Note_on_c, 0, 55, 0
2, 103062, Note_on_c, 0, 65, 70
2, 103068, Control_c, 0, 64, 127
2, 103098, Note_on_c, 0, 60, 0
2, 103124, Note_on_c, 0, 65, 0
2, 103182, Note_on_c, 0, 52, 89
2, 103240, Note_on_c, 0, 53, 85
2, 103252, Control_c, 0, 64, 0
2, 103296, Note_on_c, 0, 56, 73
2, 103372, Note_on_c, 0, 53, 0
2, 103382, Note_on_c, 0, 64, 81
2, 103400, Note_on_c, 0, 52, 0
2, 103450, Note_on_c, 0, 56, 0
2, 103452, Control_c, 0, 64, 127
2, 103494, Note_on_c, 0, 50, 80
2, 103496, Note_on_c, 0, 64, 0
2, 103544, Control_c, 0, 64, 0
2, 103597, Note_on_c, 0, 52, 60
2, 103626, Note_on_c, 0, 56, 74
2, 103642, Note_on_c, 0, 50, 0
2, 103646, Note_on_c, 0, 52, 0
2, 103698, Control_c, 0, 64, 127
2, 103724, Note_on_c, 0, 62, 72
2, 103760, Note_on_c, 0, 56, 0
2, 103808, Note_on_c, 0, 62, 0
2, 103820, Note_on_c, 0, 50, 80
2, 103912, Note_on_c, 0, 52, 80
2, 104008, Note_on_c, 0, 55, 62
2, 104016, Note_on_c, 0, 52, 0
2, 104076, Note_on_c, 0, 62, 58
2, 104116, Note_on_c, 0, 55, 0
2, 104119, Note_on_c, 0, 50, 0
2, 104134, Note_on_c, 0, 62, 0
2, 104144, Control_c, 0, 64, 0
2, 104156, Note_on_c, 0, 48, 66
2, 104220, Note_on_c, 0, 52, 77
2, 104282, Note_on_c, 0, 55, 75
2, 104285, Note_on_c, 0, 48, 0
2, 104312, Control_c, 0, 64, 127
2, 104330, Note_on_c, 0, 52, 0
2, 104352, Note_on_c, 0, 60, 72
2, 104414, Note_on_c, 0, 55, 0
2, 104446, Note_on_c, 0, 60, 0
2, 104458, Note_on_c, 0, 50, 111
2, 104464, Note_on_c, 0, 41, 102
2, 104528, Note_on_c, 0, 53, 99
2, 104612, Note_on_c, 0, 57, 67
2, 104654, Note_on_c, 0, 53, 0
2, 104704, Note_on_c, 0, 62, 75
2, 104738, Note_on_c, 0, 50, 0
2, 104748, Note_on_c, 0, 57, 0
2, 104758, Control_c, 0, 64, 0
2, 104761, Note_on_c, 0, 62, 0
2, 104790, Note_on_c, 0, 48, 96
2, 104838, Note_on_c, 0, 53, 107
2, 104878, Note_on_c, 0, 48, 0
2, 104896, Note_on_c, 0, 41, 0
2, 104912, Note_on_c, 0, 57, 76
2, 104942, Control_c, 0, 64, 127
2, 104954, Note_on_c, 0, 53, 0
2, 104984, Note_on_c, 0, 60, 99
2, 105024, Note_on_c, 0, 60, 0
2, 105026, Note_on_c, 0, 57, 0
2, 105144, Note_on_c, 0, 62, 113
2, 105220, Note_on_c, 0, 64, 100
2, 105302, Note_on_c, 0, 67, 74
2, 105334, Note_on_c, 0, 64, 0
2, 105380, Note_on_c, 0, 74, 77
2, 105418, Control_c, 0, 64, 0
2, 105430, Note_on_c, 0, 67, 0
2, 105450, Note_on_c, 0, 74, 0
2, 105468, Note_on_c, 0, 60, 112
2, 105478, Note_on_c, 0, 62, 0
2, 105530, Note_on_c, 0, 64, 85
2, 105616, Note_on_c, 0, 67, 89
2, 105616, Control_c, 0, 64, 127
2, 105634, Note_on_c, 0, 60, 0
2, 105648, Note_on_c, 0, 64, 0
2, 105692, Note_on_c, 0, 72, 82
2, 105732, Note_on_c, 0, 67, 0
2, 105798, Note_on_c, 0, 62, 126
2, 105804, Note_on_c, 0, 53, 119
2, 105828, Note_on_c, 0, 72, 0
2, 105860, Note_on_c, 0, 65, 83
2, 105952, Note_on_c, 0, 69, 89
2, 106006, Note_on_c, 0, 65, 0
2, 106050, Note_on_c, 0, 74, 99
2, 106080, Control_c, 0, 64, 0
2, 106086, Note_on_c, 0, 69, 0
2, 106096, Note_on_c, 0, 62, 0
2, 106120, Note_on_c, 0, 60, 114
2, 106182, Note_on_c, 0, 65, 106
2, 106202, Note_on_c, 0, 53, 0
2, 106226, Note_on_c, 0, 60, 0
2, 106248, Control_c, 0, 64, 127
2, 106254, Note_on_c, 0, 74, 0
2, 106262, Note_on_c, 0, 69, 97
2, 106316, Note_on_c, 0, 65, 0
2, 106358, Note_on_c, 0, 72, 95
2, 106398, Note_on_c, 0, 69, 0
2, 106408, Note_on_c, 0, 72, 0
2, 106444, Note_on_c, 0, 67, 126
2, 106446, Note_on_c, 0, 60, 116
2, 106510, Control_c, 0, 64, 0
2, 106570, Note_on_c, 0, 76, 92
2, 106620, Note_on_c, 0, 72, 89
2, 106688, Note_on_c, 0, 76, 0
2, 106691, Note_on_c, 0, 64, 97
2, 106730, Note_on_c, 0, 72, 0
2, 106740, Control_c, 0, 64, 127
2, 106764, Note_on_c, 0, 64, 0
2, 106786, Note_on_c, 0, 67, 0
2, 106796, Note_on_c, 0, 69, 112
2, 106834, Note_on_c, 0, 60, 0
2, 106864, Note_on_c, 0, 76, 95
2, 106894, Note_on_c, 0, 69, 0
2, 106966, Note_on_c, 0, 71, 118
2, 107036, Note_on_c, 0, 76, 0
2, 107036, Note_on_c, 0, 64, 103
2, 107124, Note_on_c, 0, 67, 127
2, 107130, Note_on_c, 0, 71, 0
2, 107132, Note_on_c, 0, 60, 118
2, 107140, Note_on_c, 0, 64, 0
2, 107154, Control_c, 0, 64, 0
2, 107198, Note_on_c, 0, 76, 102
2, 107288, Note_on_c, 0, 72, 104
2, 107362, Note_on_c, 0, 76, 0
2, 107368, Note_on_c, 0, 64, 102
2, 107378, Note_on_c, 0, 67, 0
2, 107378, Note_on_c, 0, 60, 0
2, 107400, Control_c, 0, 64, 127
2, 107438, Note_on_c, 0, 64, 0
2, 107440, Note_on_c, 0, 72, 0
2, 107480, Note_on_c, 0, 69, 114
2, 107526, Note_on_c, 0, 76, 110
2, 107594, Note_on_c, 0, 69, 0
2, 107636, Note_on_c, 0, 71, 126
2, 107684, Note_on_c, 0, 76, 0
2, 107716, Note_on_c, 0, 64, 103
2, 107738, Control_c, 0, 64, 0
2, 107792, Note_on_c, 0, 67, 121
2, 107795, Note_on_c, 0, 60, 113
2, 107802, Note_on_c, 0, 71, 0
2, 107828, Note_on_c, 0, 64, 0
2, 107850, Note_on_c, 0, 76, 102
2, 107888, Note_on_c, 0, 67, 0
2, 107891, Note_on_c, 0, 60, 0
2, 107926, Note_on_c, 0, 72, 102
2, 107938, Control_c, 0, 64, 127
2, 108008, Note_on_c, 0, 76, 0
2, 108020, Note_on_c, 0, 64, 99
2, 108046, Control_c, 0, 64, 0
2, 108056, Note_on_c, 0, 72, 0
2, 108059, Note_on_c, 0, 64, 0
2, 108114, Note_on_c, 0, 70, 121
2, 108128, Note_on_c, 0, 63, 107
2, 108164, Note_on_c, 0, 70, 0
2, 108166, Note_on_c, 0, 63, 0
2, 108182, Note_on_c, 0, 79, 114
2, 108230, Control_c, 0, 64, 127
2, 108268, Note_on_c, 0, 75, 100
2, 108316, Note_on_c, 0, 79, 0
2, 108338, Control_c, 0, 64, 0
2, 108348, Note_on_c, 0, 67, 95
2, 108386, Note_on_c, 0, 75, 0
2, 108398, Note_on_c, 0, 67, 0
2, 108426, Note_on_c, 0, 73, 118
2, 108428, Note_on_c, 0, 66, 102
2, 108508, Note_on_c, 0, 82, 92
2, 108516, Note_on_c, 0, 66, 0
2, 108522, Control_c, 0, 64, 127
2, 108540, Note_on_c, 0, 73, 0
2, 108580, Note_on_c, 0, 78, 97
2, 108630, Control_c, 0, 64, 0
2, 108652, Note_on_c, 0, 70, 88
2, 108658, Note_on_c, 0, 82, 0
2, 108696, Note_on_c, 0, 78, 0
2, 108710, Note_on_c, 0, 70, 0
2, 108728, Note_on_c, 0, 74, 127
2, 108731, Note_on_c, 0, 67, 118
2, 108798, Note_on_c, 0, 74, 0
2, 108801, Note_on_c, 0, 83, 127
2, 108852, Note_on_c, 0, 67, 0
2, 108860, Control_c, 0, 64, 127
2, 108880, Note_on_c, 0, 79, 107
2, 108930, Note_on_c, 0, 83, 0
2, 108966, Note_on_c, 0, 71, 84
2, 108976, Note_on_c, 0, 79, 0
2, 109020, Note_on_c, 0, 71, 0
2, 109072, Note_on_c, 0, 67, 126
2, 109076, Note_on_c, 0, 60, 114
2, 109152, Control_c, 0, 64, 0
2, 109156, Note_on_c, 0, 76, 92
2, 109210, Note_on_c, 0, 72, 89
2, 109296, Note_on_c, 0, 76, 0
2, 109302, Note_on_c, 0, 64, 102
2, 109362, Note_on_c, 0, 64, 0
2, 109368, Note_on_c, 0, 67, 0
2, 109368, Control_c, 0, 64, 127
2, 109382, Note_on_c, 0, 72, 0
2, 109414, Control_c, 0, 64, 0
2, 109420, Note_on_c, 0, 69, 99
2, 109482, Note_on_c, 0, 76, 100
2, 109492, Note_on_c, 0, 60, 0
2, 109520, Note_on_c, 0, 69, 0
2, 109520, Control_c, 0, 64, 127
2, 109588, Note_on_c, 0, 71, 114
2, 109624, Note_on_c, 0, 76, 0
2, 109664, Note_on_c, 0, 64, 97
2, 109674, Control_c, 0, 64, 0
2, 109736, Note_on_c, 0, 64, 0
2, 109748, Note_on_c, 0, 71, 0
2, 109748, Note_on_c, 0, 67, 123
2, 109756, Note_on_c, 0, 60, 107
2, 109828, Note_on_c, 0, 76, 96
2, 109912, Note_on_c, 0, 72, 95
2, 109950, Control_c, 0, 64, 127
2, 109984, Note_on_c, 0, 64, 99
2, 109988, Note_on_c, 0, 76, 0
2, 110012, Note_on_c, 0, 67, 0
2, 110028, Control_c, 0, 64, 0
2, 110038, Note_on_c, 0, 64, 0
2, 110040, Note_on_c, 0, 72, 0
2, 110078, Note_on_c, 0, 60, 0
2, 110080, Note_on_c, 0, 69, 110
2, 110144, Note_on_c, 0, 76, 106
2, 110180, Note_on_c, 0, 69, 0
2, 110182, Control_c, 0, 64, 127
2, 110236, Note_on_c, 0, 71, 112
2, 110290, Note_on_c, 0, 76, 0
2, 110290, Control_c, 0, 64, 0
2, 110306, Note_on_c, 0, 64, 98
2, 110376, Note_on_c, 0, 71, 0
2, 110390, Note_on_c, 0, 67, 111
2, 110392, Note_on_c, 0, 60, 112
2, 110408, Note_on_c, 0, 64, 0
2, 110456, Note_on_c, 0, 60, 0
2, 110456, Note_on_c, 0, 76, 89
2, 110459, Note_on_c, 0, 67, 0
2, 110504, Control_c, 0, 64, 127
2, 110532, Note_on_c, 0, 72, 92
2, 110610, Note_on_c, 0, 76, 0
2, 110612, Control_c, 0, 64, 0
2, 110614, Note_on_c, 0, 64, 104
2, 110650, Note_on_c, 0, 72, 0
2, 110660, Note_on_c, 0, 64, 0
2, 110690, Note_on_c, 0, 70, 106
2, 110700, Note_on_c, 0, 63, 108
2, 110744, Note_on_c, 0, 63, 0
2, 110754, Note_on_c, 0, 70, 0
2, 110770, Note_on_c, 0, 79, 119
2, 110812, Control_c, 0, 64, 127
2, 110848, Note_on_c, 0, 75, 93
2, 110876, Note_on_c, 0, 79, 0
2, 110904, Control_c, 0, 64, 0
2, 110910, Note_on_c, 0, 67, 96
2, 110952, Note_on_c, 0, 75, 0
2, 110968, Note_on_c, 0, 67, 0
2, 110998, Note_on_c, 0, 73, 113
2, 111002, Note_on_c, 0, 66, 92
2, 111088, Note_on_c, 0, 73, 0
2, 111088, Note_on_c, 0, 82, 100
2, 111118, Control_c, 0, 64, 127
2, 111152, Note_on_c, 0, 66, 0
2, 111152, Note_on_c, 0, 78, 96
2, 111222, Note_on_c, 0, 70, 87
2, 111234, Note_on_c, 0, 82, 0
2, 111234, Control_c, 0, 64, 0
2, 111286, Note_on_c, 0, 78, 0
2, 111304, Note_on_c, 0, 74, 127
2, 111306, Note_on_c, 0, 67, 118
2, 111308, Note_on_c, 0, 70, 0
2, 111378, Note_on_c, 0, 74, 0
2, 111380, Note_on_c, 0, 83, 127
2, 111386, Note_on_c, 0, 67, 0
2, 111434, Note_on_c, 0, 79, 103
2, 111456, Control_c, 0, 64, 127
2, 111496, Note_on_c, 0, 83, 0
2, 111499, Note_on_c, 0, 71, 106
2, 111538, Note_on_c, 0, 71, 0
2, 111538, Note_on_c, 0, 79, 0
2, 111642, Note_on_c, 0, 79, 127
2, 111714, Note_on_c, 0, 88, 102
2, 111800, Note_on_c, 0, 84, 105
2, 111872, Control_c, 0, 64, 0
2, 111876, Note_on_c, 0, 88, 0
2, 111892, Note_on_c, 0, 76, 77
2, 111934, Note_on_c, 0, 79, 0
2, 111940, Note_on_c, 0, 84, 0
2, 111958, Note_on_c, 0, 72, 115
2, 111960, Note_on_c, 0, 76, 0
2, 112020, Note_on_c, 0, 88, 107
2, 112032, Note_on_c, 0, 72, 0
2, 112056, Control_c, 0, 64, 127
2, 112102, Note_on_c, 0, 84, 97
2, 112168, Note_on_c, 0, 88, 0
2, 112174, Note_on_c, 0, 76, 73
2, 112210, Note_on_c, 0, 84, 0
2, 112230, Note_on_c, 0, 76, 0
2, 112274, Note_on_c, 0, 67, 118
2, 112336, Note_on_c, 0, 76, 83
2, 112414, Note_on_c, 0, 72, 83
2, 112426, Note_on_c, 0, 67, 0
2, 112474, Note_on_c, 0, 76, 0
2, 112500, Note_on_c, 0, 64, 98
2, 112548, Control_c, 0, 64, 0
2, 112583, Note_on_c, 0, 60, 121
2, 112604, Note_on_c, 0, 72, 0
2, 112616, Note_on_c, 0, 64, 0
2, 112632, Note_on_c, 0, 76, 92
2, 112704, Note_on_c, 0, 72, 76
2, 112706, Note_on_c, 0, 60, 0
2, 112748, Control_c, 0, 64, 127
2, 112782, Note_on_c, 0, 76, 0
2, 112794, Note_on_c, 0, 64, 100
2, 112810, Note_on_c, 0, 72, 0
2, 112850, Note_on_c, 0, 64, 0
2, 112912, Note_on_c, 0, 55, 127
2, 112978, Control_c, 0, 64, 0
2, 112978, Note_on_c, 0, 64, 106
2, 113032, Note_on_c, 0, 55, 0
2, 113044, Note_on_c, 0, 60, 83
2, 113054, Control_c, 0, 64, 127
2, 113096, Note_on_c, 0, 64, 0
2, 113136, Note_on_c, 0, 52, 107
2, 113152, Note_on_c, 0, 60, 0
2, 113162, Control_c, 0, 64, 0
2, 113226, Note_on_c, 0, 48, 127
2, 113248, Note_on_c, 0, 52, 0
2, 113298, Note_on_c, 0, 64, 102
2, 113346, Note_on_c, 0, 48, 0
2, 113376, Control_c, 0, 64, 127
2, 113381, Note_on_c, 0, 60, 89
2, 113438, Note_on_c, 0, 64, 0
2, 113464, Note_on_c, 0, 52, 108
2, 113500, Control_c, 0, 64, 0
2, 113514, Note_on_c, 0, 60, 0
2, 113534, Note_on_c, 0, 43, 127
2, 113578, Note_on_c, 0, 52, 0
2, 113624, Note_on_c, 0, 64, 110
2, 113682, Note_on_c, 0, 43, 0
2, 113694, Note_on_c, 0, 60, 88
2, 113700, Control_c, 0, 64, 127
2, 113744, Note_on_c, 0, 64, 0
2, 113770, Note_on_c, 0, 52, 111
2, 113808, Control_c, 0, 64, 0
2, 113848, Note_on_c, 0, 60, 0
2, 113864, Note_on_c, 0, 36, 127
2, 113882, Note_on_c, 0, 52, 0
2, 113928, Note_on_c, 0, 64, 112
2, 113960, Note_on_c, 0, 36, 0
2, 114000, Note_on_c, 0, 60, 100
2, 114008, Control_c, 0, 64, 127
2, 114040, Note_on_c, 0, 64, 0
2, 114082, Note_on_c, 0, 52, 106
2, 114104, Note_on_c, 0, 60, 0
2, 114128, Note_on_c, 0, 52, 0
2, 114206, Control_c, 0, 64, 0
2, 114248, Note_on_c, 0, 52, 127
2, 114252, Note_on_c, 0, 45, 121
2, 114254, Note_on_c, 0, 41, 127
2, 114256, Note_on_c, 0, 48, 127
2, 115514, Control_c, 0, 64, 127
2, 115524, Note_on_c, 0, 52, 0
2, 115528, Note_on_c, 0, 48, 0
2, 116296, Note_on_c, 0, 50, 122
2, 116299, Note_on_c, 0, 47, 114
2, 116390, Control_c, 0, 64, 0
2, 116728, Control_c, 0, 64, 127
2, 116782, Note_on_c, 0, 45, 0
2, 116806, Note_on_c, 0, 41, 0
2, 116814, Note_on_c, 0, 47, 0
2, 116874, Note_on_c, 0, 50, 0
2, 117122, Note_on_c, 0, 52, 127
2, 117122, Note_on_c, 0, 48, 127
2, 117122, Note_on_c, 0, 43, 127
2, 117125, Note_on_c, 0, 36, 127
2, 117202, Note_on_c, 0, 36, 0
2, 117224, Note_on_c, 0, 48, 0
2, 117232, Note_on_c, 0, 43, 0
2, 117244, Note_on_c, 0, 52, 0
2, 117310, Control_c, 0, 64, 0
2, 118728, Note_on_c, 0, 36, 127
2, 118728, Note_on_c, 0, 24, 127
2, 118832, Note_on_c, 0, 24, 0
2, 118834, Note_on_c, 0, 36, 0
2, 118878, Control_c, 0, 64, 127
2, 118908, Control_c, 0, 64, 0
2, 120960, Control_c, 0, 64, 127
2, 120960, Note_on_c, 0, 41, 52
2, 121630, Note_on_c, 0, 38, 51
2, 121654, Note_on_c, 0, 41, 0
2, 121674, Control_c, 0, 64, 0
2, 122258, Control_c, 0, 64, 127
2, 122774, Note_on_c, 0, 41, 58
2, 122836, Note_on_c, 0, 38, 0
2, 122996, Control_c, 0, 64, 0
2, 123068, Note_on_c, 0, 43, 61
2, 123116, Note_on_c, 0, 41, 0
2, 123356, Note_on_c, 0, 36, 62
2, 123436, Note_on_c, 0, 43, 0
2, 123672, Note_on_c, 0, 38, 61
2, 123738, Note_on_c, 0, 36, 0
2, 124006, Note_on_c, 0, 41, 59
2, 124038, Note_on_c, 0, 38, 0
2, 124702, Control_c, 0, 64, 127
2, 125324, Note_on_c, 0, 38, 43
2, 125334, Note_on_c, 0, 41, 0
2, 125546, Control_c, 0, 64, 0
2, 125628, Note_on_c, 0, 36, 49
2, 125640, Note_on_c, 0, 38, 0
2, 125746, Control_c, 0, 64, 127
2, 125820, Note_on_c, 0, 36, 0
2, 125924, Note_on_c, 0, 36, 49
2, 126038, Control_c, 0, 64, 0
2, 126236, Note_on_c, 0, 36, 0
2, 126239, Control_c, 0, 64, 127
2, 126258, Note_on_c, 0, 38, 44
2, 126268, Control_c, 0, 64, 0
2, 126460, Note_on_c, 0, 38, 0
2, 126468, Control_c, 0, 64, 127
2, 126608, Note_on_c, 0, 38, 42
2, 126884, Control_c, 0, 64, 0
2, 127128, Control_c, 0, 64, 127
2, 127244, Note_on_c, 0, 38, 0
2, 127254, Note_on_c, 0, 36, 45
2, 127390, Control_c, 0, 64, 0
2, 127698, Control_c, 0, 64, 127
2, 127888, Note_on_c, 0, 41, 57
2, 127906, Note_on_c, 0, 36, 0
2, 127974, Control_c, 0, 64, 0
2, 128342, Control_c, 0, 64, 127
2, 128572, Control_c, 0, 64, 0
2, 128576, Note_on_c, 0, 41, 0
2, 128576, Note_on_c, 0, 38, 52
2, 129124, Note_on_c, 0, 55, 72
2, 129130, Note_on_c, 0, 53, 93
2, 129260, Note_on_c, 0, 53, 0
2, 129270, Note_on_c, 0, 55, 0
2, 129440, Note_on_c, 0, 55, 52
2, 129446, Note_on_c, 0, 53, 54
2, 129518, Note_on_c, 0, 53, 0
2, 129582, Note_on_c, 0, 55, 0
2, 129940, Control_c, 0, 64, 127
2, 130140, Control_c, 0, 64, 0
2, 130386, Control_c, 0, 64, 127
2, 130786, Control_c, 0, 64, 0
2, 131492, Control_c, 0, 64, 127
2, 131600, Control_c, 0, 64, 0
2, 131888, Note_on_c, 0, 43, 43
2, 131890, Note_on_c, 0, 41, 42
2, 132068, Note_on_c, 0, 41, 0
2, 132078, Note_on_c, 0, 43, 0
2, 132522, Control_c, 0, 64, 127
2, 132682, Note_on_c, 0, 38, 0
2, 132682, Note_on_c, 0, 36, 42
2, 133004, Note_on_c, 0, 33, 43
2, 133028, Control_c, 0, 64, 0
2, 133062, Note_on_c, 0, 36, 0
2, 133298, Note_on_c, 0, 31, 53
2, 133310, Note_on_c, 0, 33, 0
2, 133504, Control_c, 0, 64, 127
2, 133602, Note_on_c, 0, 31, 0
2, 133602, Note_on_c, 0, 29, 57
2, 133982, Note_on_c, 0, 31, 57
2, 134014, Note_on_c, 0, 29, 0
2, 134044, Control_c, 0, 64, 0
2, 134734, Control_c, 0, 64, 127
2, 135192, Note_on_c, 0, 33, 41
2, 135230, Note_on_c, 0, 31, 0
2, 135258, Control_c, 0, 64, 0
2, 135512, Note_on_c, 0, 36, 44
2, 135564, Note_on_c, 0, 33, 0
2, 135852, Note_on_c, 0, 31, 45
2, 135860, Note_on_c, 0, 36, 0
2, 136148, Control_c, 0, 64, 127
2, 136164, Note_on_c, 0, 31, 0
2, 136474, Note_on_c, 0, 38, 45
2, 136610, Control_c, 0, 64, 0
2, 136962, Control_c, 0, 64, 127
2, 137076, Note_on_c, 0, 36, 54
2, 137122, Note_on_c, 0, 38, 0
2, 137332, Control_c, 0, 64, 0
2, 137592, Control_c, 0, 64, 127
2, 137692, Note_on_c, 0, 33, 50
2, 137724, Note_on_c, 0, 36, 0
2, 137868, Control_c, 0, 64, 0
2, 138176, Control_c, 0, 64, 127
2, 138290, Note_on_c, 0, 31, 43
2, 138300, Note_on_c, 0, 33, 0
2, 138346, Control_c, 0, 64, 0
2, 138580, Note_on_c, 0, 31, 0
2, 138585, Note_on_c, 0, 29, 53
2, 138914, Control_c, 0, 64, 127
2, 138922, Note_on_c, 0, 31, 60
2, 138946, Note_on_c, 0, 29, 0
2, 139068, Control_c, 0, 64, 0
2, 139390, Control_c, 0, 64, 127
2, 139538, Note_on_c, 0, 33, 60
2, 139584, Note_on_c, 0, 31, 0
2, 139590, Control_c, 0, 64, 0
2, 139912, Control_c, 0, 64, 127
2, 140174, Note_on_c, 0, 36, 50
2, 140190, Control_c, 0, 64, 0
2, 140202, Note_on_c, 0, 33, 0
2, 140588, Control_c, 0, 64, 127
2, 140766, Note_on_c, 0, 36, 0
2, 140920, Note_on_c, 0, 79, 74
2, 140942, Control_c, 0, 64, 0
2, 140944, Note_on_c, 0, 31, 50
2, 141464, Control_c, 0, 64, 127
2, 141590, Note_on_c, 0, 31, 0
2, 141646, Note_on_c, 0, 79, 0
2, 142130, Note_on_c, 0, 67, 28
2, 142130, Note_on_c, 0, 65, 27
2, 142139, Note_on_c, 0, 55, 19
2, 142145, Note_on_c, 0, 53, 29
2, 142189, Note_on_c, 0, 55, 0
2, 142199, Note_on_c, 0, 53, 0
2, 142202, Note_on_c, 0, 65, 0
2, 142214, Note_on_c, 0, 67, 0
2, 142474, Note_on_c, 0, 65, 24
2, 142474, Note_on_c, 0, 67, 37
2, 142479, Note_on_c, 0, 55, 28
2, 142483, Note_on_c, 0, 53, 41
2, 142549, Note_on_c, 0, 55, 0
2, 142551, Note_on_c, 0, 53, 0
2, 142556, Note_on_c, 0, 65, 0
2, 142568, Note_on_c, 0, 67, 0
2, 144020, Note_on_c, 0, 67, 49
2, 144026, Note_on_c, 0, 65, 30
2, 144026, Note_on_c, 0, 55, 36
2, 144028, Note_on_c, 0, 53, 54
2, 145152, Note_on_c, 0, 65, 0
2, 145158, Note_on_c, 0, 67, 0
2, 145986, Note_on_c, 0, 63, 83
2, 146054, Note_on_c, 0, 53, 0
2, 146056, Note_on_c, 0, 55, 0
2, 146642, Note_on_c, 0, 67, 42
2, 146646, Note_on_c, 0, 65, 45
2, 146650, Note_on_c, 0, 55, 45
2, 146650, Note_on_c, 0, 53, 44
2, 148066, Note_on_c, 0, 63, 0
2, 148256, Note_on_c, 0, 61, 72
2, 148342, Note_on_c, 0, 67, 0
2, 148356, Note_on_c, 0, 53, 0
2, 148366, Note_on_c, 0, 55, 0
2, 148382, Note_on_c, 0, 65, 0
2, 148834, Note_on_c, 0, 65, 20
2, 148836, Note_on_c, 0, 67, 35
2, 148840, Note_on_c, 0, 55, 42
2, 148840, Note_on_c, 0, 53, 52
2, 150004, Note_on_c, 0, 61, 0
2, 150248, Note_on_c, 0, 65, 0
2, 150428, Note_on_c, 0, 63, 79
2, 150468, Note_on_c, 0, 53, 0
2, 150476, Note_on_c, 0, 55, 0
2, 150490, Note_on_c, 0, 67, 0
2, 151028, Note_on_c, 0, 55, 45
2, 151034, Note_on_c, 0, 67, 61
2, 151034, Note_on_c, 0, 65, 42
2, 151036, Note_on_c, 0, 53, 38
2, 151148, Note_on_c, 0, 63, 0
2, 151662, Note_on_c, 0, 63, 84
2, 151802, Note_on_c, 0, 67, 0
2, 151976, Note_on_c, 0, 65, 0
2, 152834, Note_on_c, 0, 61, 69
2, 152858, Note_on_c, 0, 63, 0
2, 152862, Note_on_c, 0, 55, 0
2, 152870, Note_on_c, 0, 53, 0
2, 153448, Note_on_c, 0, 67, 36
2, 153454, Note_on_c, 0, 65, 28
2, 153474, Note_on_c, 0, 55, 30
2, 153474, Note_on_c, 0, 53, 30
2, 154466, Note_on_c, 0, 55, 0
2, 154516, Note_on_c, 0, 53, 0
2, 155158, Note_on_c, 0, 39, 44
2, 155178, Note_on_c, 0, 67, 0
2, 155300, Note_on_c, 0, 65, 0
2, 155302, Note_on_c, 0, 61, 0
2, 155462, Control_c, 0, 64, 0
2, 156030, Control_c, 0, 64, 127
2, 156200, Control_c, 0, 64, 0
2, 156320, Note_on_c, 0, 43, 58
2, 156324, Note_on_c, 0, 41, 59
2, 156398, Note_on_c, 0, 41, 0
2, 156426, Note_on_c, 0, 43, 0
2, 156614, Note_on_c, 0, 43, 46
2, 156620, Note_on_c, 0, 41, 45
2, 156700, Note_on_c, 0, 41, 0
2, 156736, Note_on_c, 0, 43, 0
2, 157030, Control_c, 0, 64, 127
2, 157770, Note_on_c, 0, 37, 56
2, 157844, Control_c, 0, 64, 0
2, 157847, Note_on_c, 0, 39, 0
2, 158344, Note_on_c, 0, 43, 59
2, 158346, Note_on_c, 0, 41, 58
2, 158414, Note_on_c, 0, 41, 0
2, 158424, Note_on_c, 0, 43, 0
2, 158950, Control_c, 0, 64, 127
2, 159826, Control_c, 0, 64, 0
2, 160040, Control_c, 0, 64, 127
2, 160812, Note_on_c, 0, 34, 33
2, 160874, Note_on_c, 0, 37, 0
2, 161086, Control_c, 0, 64, 0
2, 161362, Control_c, 0, 64, 127
2, 161950, Note_on_c, 0, 34, 0
2, 161982, Note_on_c, 0, 30, 36
2, 162498, Control_c, 0, 64, 0
2, 162714, Control_c, 0, 64, 127
2, 162768, Note_on_c, 0, 30, 0
2, 163816, Note_on_c, 0, 29, 41
2, 163818, Note_on_c, 0, 31, 29
2, 163820, Note_on_c, 0, 43, 39
2, 163820, Note_on_c, 0, 41, 23
2, 164014, Note_on_c, 0, 41, 0
2, 164024, Note_on_c, 0, 29, 0
2, 164044, Note_on_c, 0, 31, 0
2, 164054, Note_on_c, 0, 43, 0
2, 164096, Control_c, 0, 64, 0
2, 166672, Note_on_c, 0, 67, 54
2, 166676, Note_on_c, 0, 65, 39
2, 166682, Note_on_c, 0, 55, 50
2, 166685, Note_on_c, 0, 53, 54
2, 166802, Control_c, 0, 64, 127
2, 166920, Note_on_c, 0, 53, 0
2, 166954, Note_on_c, 0, 67, 0
2, 166978, Note_on_c, 0, 55, 0
2, 167248, Note_on_c, 0, 48, 35
2, 167250, Note_on_c, 0, 62, 52
2, 167254, Note_on_c, 0, 50, 50
2, 167262, Note_on_c, 0, 65, 0
2, 167262, Note_on_c, 0, 60, 33
2, 167324, Control_c, 0, 64, 0
2, 167508, Control_c, 0, 64, 127
2, 167536, Note_on_c, 0, 50, 0
2, 167580, Note_on_c, 0, 48, 0
2, 167832, Note_on_c, 0, 62, 0
2, 167832, Note_on_c, 0, 41, 47
2, 167838, Note_on_c, 0, 60, 0
2, 167848, Note_on_c, 0, 67, 28
2, 167850, Note_on_c, 0, 65, 28
2, 168090, Note_on_c, 0, 41, 0
2, 168310, Note_on_c, 0, 67, 0
2, 168390, Note_on_c, 0, 65, 0
2, 168410, Note_on_c, 0, 34, 34
2, 168416, Note_on_c, 0, 62, 35
2, 168422, Note_on_c, 0, 60, 30
2, 168518, Note_on_c, 0, 34, 0
2, 168902, Note_on_c, 0, 60, 0
2, 168980, Note_on_c, 0, 67, 50
2, 168980, Note_on_c, 0, 65, 43
2, 168988, Note_on_c, 0, 55, 43
2, 168996, Note_on_c, 0, 53, 52
2, 169012, Note_on_c, 0, 62, 0
2, 169044, Control_c, 0, 64, 0
2, 169198, Control_c, 0, 64, 127
2, 169250, Note_on_c, 0, 53, 0
2, 169314, Note_on_c, 0, 55, 0
2, 169538, Note_on_c, 0, 67, 0
2, 169582, Note_on_c, 0, 48, 50
2, 169582, Note_on_c, 0, 62, 45
2, 169584, Note_on_c, 0, 50, 31
2, 169586, Note_on_c, 0, 60, 31
2, 169599, Note_on_c, 0, 65, 0
2, 169810, Note_on_c, 0, 50, 0
2, 169868, Note_on_c, 0, 48, 0
2, 170102, Note_on_c, 0, 60, 0
2, 170136, Note_on_c, 0, 41, 35
2, 170140, Note_on_c, 0, 62, 0
2, 170140, Note_on_c, 0, 67, 35
2, 170140, Note_on_c, 0, 65, 26
2, 170286, Note_on_c, 0, 41, 0
2, 170562, Note_on_c, 0, 67, 0
2, 170718, Note_on_c, 0, 34, 31
2, 170722, Note_on_c, 0, 65, 0
2, 170750, Note_on_c, 0, 62, 29
2, 170756, Note_on_c, 0, 60, 19
2, 170866, Note_on_c, 0, 34, 0
2, 170902, Note_on_c, 0, 60, 0
2, 170910, Note_on_c, 0, 62, 0
2, 171352, Note_on_c, 0, 65, 69
2, 171362, Note_on_c, 0, 55, 44
2, 171366, Note_on_c, 0, 53, 59
2, 171502, Control_c, 0, 64, 0
2, 171641, Note_on_c, 0, 53, 0
2, 171656, Control_c, 0, 64, 127
2, 171666, Note_on_c, 0, 55, 0
2, 172016, Note_on_c, 0, 62, 66
2, 172038, Note_on_c, 0, 48, 36
2, 172038, Note_on_c, 0, 50, 39
2, 172056, Control_c, 0, 64, 0
2, 172158, Note_on_c, 0, 65, 0
2, 172256, Control_c, 0, 64, 127
2, 172294, Note_on_c, 0, 50, 0
2, 172336, Note_on_c, 0, 48, 0
2, 172632, Note_on_c, 0, 41, 33
2, 172826, Note_on_c, 0, 41, 0
2, 173190, Note_on_c, 0, 65, 46
2, 173200, Note_on_c, 0, 34, 35
2, 173308, Note_on_c, 0, 62, 0
2, 173346, Note_on_c, 0, 34, 0
2, 173480, Note_on_c, 0, 67, 58
2, 173524, Note_on_c, 0, 65, 0
2, 173758, Note_on_c, 0, 60, 60
2, 173758, Note_on_c, 0, 55, 42
2, 173766, Note_on_c, 0, 53, 46
2, 173778, Note_on_c, 0, 67, 0
2, 173838, Note_on_c, 0, 53, 0
2, 173890, Note_on_c, 0, 55, 0
2, 174026, Note_on_c, 0, 62, 65
2, 174118, Note_on_c, 0, 60, 0
2, 174336, Note_on_c, 0, 65, 64
2, 174360, Note_on_c, 0, 48, 36
2, 174360, Note_on_c, 0, 50, 28
2, 174363, Note_on_c, 0, 62, 0
2, 174534, Note_on_c, 0, 50, 0
2, 174570, Note_on_c, 0, 48, 0
2, 174910, Note_on_c, 0, 41, 35
2, 175110, Note_on_c, 0, 41, 0
2, 175474, Note_on_c, 0, 62, 54
2, 175484, Note_on_c, 0, 34, 31
2, 175546, Note_on_c, 0, 65, 0
2, 175608, Note_on_c, 0, 34, 0
2, 175730, Note_on_c, 0, 62, 0
2, 175738, Note_on_c, 0, 60, 64
2, 175894, Note_on_c, 0, 60, 0
2, 176008, Note_on_c, 0, 60, 51
2, 176026, Note_on_c, 0, 55, 44
2, 176029, Note_on_c, 0, 53, 61
2, 176112, Control_c, 0, 64, 0
2, 176250, Control_c, 0, 64, 127
2, 176272, Note_on_c, 0, 53, 0
2, 176284, Note_on_c, 0, 55, 0
2, 176320, Note_on_c, 0, 62, 82
2, 176384, Note_on_c, 0, 60, 0
2, 176464, Note_on_c, 0, 62, 0
2, 176624, Note_on_c, 0, 62, 79
2, 176628, Note_on_c, 0, 48, 39
2, 176631, Note_on_c, 0, 50, 28
2, 176724, Note_on_c, 0, 48, 0
2, 176776, Note_on_c, 0, 50, 0
2, 177172, Note_on_c, 0, 60, 69
2, 177230, Note_on_c, 0, 41, 41
2, 177312, Note_on_c, 0, 62, 0
2, 177326, Control_c, 0, 64, 0
2, 177486, Control_c, 0, 64, 127
2, 177588, Note_on_c, 0, 41, 0
2, 177770, Note_on_c, 0, 65, 57
2, 177796, Note_on_c, 0, 34, 36
2, 177810, Note_on_c, 0, 60, 0
2, 177880, Control_c, 0, 64, 0
2, 177986, Note_on_c, 0, 34, 0
2, 178002, Control_c, 0, 64, 127
2, 178350, Note_on_c, 0, 62, 49
2, 178366, Note_on_c, 0, 55, 33
2, 178368, Note_on_c, 0, 53, 43
2, 178388, Note_on_c, 0, 65, 0
2, 178556, Control_c, 0, 64, 0
2, 178658, Note_on_c, 0, 53, 0
2, 178674, Note_on_c, 0, 55, 0
2, 178678, Control_c, 0, 64, 127
2, 178980, Note_on_c, 0, 48, 33
2, 178990, Note_on_c, 0, 50, 31
2, 179206, Note_on_c, 0, 50, 0
2, 179242, Note_on_c, 0, 48, 0
2, 179548, Note_on_c, 0, 41, 36
2, 179728, Note_on_c, 0, 41, 0
2, 180128, Note_on_c, 0, 72, 58
2, 180140, Note_on_c, 0, 34, 34
2, 180254, Note_on_c, 0, 34, 0
2, 180402, Note_on_c, 0, 69, 54
2, 180464, Note_on_c, 0, 62, 0
2, 180526, Note_on_c, 0, 72, 0
2, 180706, Note_on_c, 0, 67, 64
2, 180718, Note_on_c, 0, 53, 53
2, 180724, Note_on_c, 0, 55, 36
2, 180724, Note_on_c, 0, 62, 33
2, 180726, Note_on_c, 0, 60, 35
2, 180742, Note_on_c, 0, 69, 0
2, 180768, Control_c, 0, 64, 0
2, 180922, Control_c, 0, 64, 127
2, 180960, Note_on_c, 0, 53, 0
2, 180978, Note_on_c, 0, 55, 0
2, 180980, Note_on_c, 0, 65, 73
2, 181020, Note_on_c, 0, 67, 0
2, 181276, Note_on_c, 0, 67, 77
2, 181299, Note_on_c, 0, 50, 46
2, 181302, Note_on_c, 0, 48, 29
2, 181328, Note_on_c, 0, 65, 0
2, 181398, Note_on_c, 0, 50, 0
2, 181454, Note_on_c, 0, 48, 0
2, 181866, Note_on_c, 0, 41, 52
2, 181964, Note_on_c, 0, 41, 0
2, 182422, Note_on_c, 0, 69, 41
2, 182428, Note_on_c, 0, 34, 35
2, 182518, Note_on_c, 0, 67, 0
2, 182534, Note_on_c, 0, 34, 0
2, 182714, Note_on_c, 0, 60, 0
2, 182718, Note_on_c, 0, 72, 62
2, 182726, Note_on_c, 0, 62, 0
2, 182766, Note_on_c, 0, 69, 0
2, 183026, Note_on_c, 0, 67, 69
2, 183030, Note_on_c, 0, 53, 58
2, 183032, Note_on_c, 0, 72, 0
2, 183035, Note_on_c, 0, 55, 44
2, 183040, Note_on_c, 0, 62, 20
2, 183046, Note_on_c, 0, 60, 19
2, 183088, Control_c, 0, 64, 0
2, 183208, Note_on_c, 0, 53, 0
2, 183250, Control_c, 0, 64, 127
2, 183258, Note_on_c, 0, 55, 0
2, 183360, Note_on_c, 0, 67, 0
2, 183626, Note_on_c, 0, 60, 0
2, 183636, Note_on_c, 0, 74, 91
2, 183639, Note_on_c, 0, 50, 46
2, 183646, Note_on_c, 0, 48, 23
2, 183714, Note_on_c, 0, 50, 0
2, 183750, Note_on_c, 0, 48, 0
2, 184198, Note_on_c, 0, 72, 83
2, 184238, Note_on_c, 0, 41, 46
2, 184314, Note_on_c, 0, 62, 0
2, 184316, Note_on_c, 0, 41, 0
2, 184436, Note_on_c, 0, 74, 0
2, 184750, Note_on_c, 0, 69, 69
2, 184778, Note_on_c, 0, 34, 43
2, 184782, Note_on_c, 0, 72, 0
2, 184856, Note_on_c, 0, 34, 0
2, 184896, Note_on_c, 0, 69, 0
2, 185278, Note_on_c, 0, 67, 61
2, 185288, Note_on_c, 0, 60, 42
2, 185290, Note_on_c, 0, 62, 49
2, 185292, Note_on_c, 0, 55, 35
2, 185292, Note_on_c, 0, 53, 51
2, 185486, Control_c, 0, 64, 0
2, 185554, Note_on_c, 0, 65, 75
2, 185576, Note_on_c, 0, 67, 0
2, 185638, Control_c, 0, 64, 127
2, 185796, Note_on_c, 0, 53, 0
2, 185862, Note_on_c, 0, 67, 88
2, 185870, Note_on_c, 0, 55, 0
2, 185886, Control_c, 0, 64, 0
2, 185896, Note_on_c, 0, 65, 0
2, 185896, Note_on_c, 0, 50, 33
2, 185906, Note_on_c, 0, 48, 26
2, 186038, Control_c, 0, 64, 127
2, 186052, Note_on_c, 0, 50, 0
2, 186066, Note_on_c, 0, 48, 0
2, 186408, Note_on_c, 0, 67, 0
2, 186408, Note_on_c, 0, 69, 49
2, 186470, Note_on_c, 0, 41, 35
2, 186682, Note_on_c, 0, 69, 0
2, 186956, Note_on_c, 0, 72, 61
2, 186984, Note_on_c, 0, 34, 30
2, 186990, Control_c, 0, 64, 0
2, 187114, Note_on_c, 0, 41, 0
2, 187144, Control_c, 0, 64, 127
2, 187156, Note_on_c, 0, 34, 0
2, 187166, Note_on_c, 0, 62, 0
2, 187186, Note_on_c, 0, 72, 0
2, 187214, Note_on_c, 0, 60, 0
2, 187550, Note_on_c, 0, 67, 49
2, 187556, Note_on_c, 0, 55, 27
2, 187562, Note_on_c, 0, 62, 31
2, 187562, Note_on_c, 0, 60, 31
2, 187562, Note_on_c, 0, 53, 42
2, 187862, Note_on_c, 0, 55, 0
2, 187956, Note_on_c, 0, 53, 0
2, 188124, Note_on_c, 0, 50, 30
2, 188128, Note_on_c, 0, 48, 36
2, 188194, Note_on_c, 0, 48, 0
2, 188204, Note_on_c, 0, 50, 0
2, 188698, Note_on_c, 0, 41, 39
2, 189000, Note_on_c, 0, 41, 0
2, 189228, Note_on_c, 0, 34, 27
2, 189336, Note_on_c, 0, 34, 0
2, 189536, Note_on_c, 0, 62, 0
2, 189558, Note_on_c, 0, 60, 0
2, 189574, Note_on_c, 0, 67, 0
2, 189806, Note_on_c, 0, 32, 44
2, 189834, Control_c, 0, 64, 0
2, 190366, Note_on_c, 0, 44, 72
2, 190372, Note_on_c, 0, 46, 57
2, 190456, Note_on_c, 0, 46, 0
2, 190456, Note_on_c, 0, 44, 0
2, 190670, Note_on_c, 0, 46, 49
2, 190675, Note_on_c, 0, 44, 53
2, 191062, Note_on_c, 0, 43, 72
2, 191328, Note_on_c, 0, 44, 0
2, 191334, Note_on_c, 0, 46, 0
2, 191612, Note_on_c, 0, 46, 56
2, 191617, Note_on_c, 0, 44, 62
2, 191696, Note_on_c, 0, 44, 0
2, 191716, Note_on_c, 0, 46, 0
2, 191798, Note_on_c, 0, 32, 0
2, 192090, Note_on_c, 0, 43, 0
2, 192194, Note_on_c, 0, 32, 51
2, 192746, Note_on_c, 0, 41, 73
2, 192800, Control_c, 0, 64, 127
2, 192884, Note_on_c, 0, 41, 0
2, 193022, Note_on_c, 0, 41, 54
2, 193030, Control_c, 0, 64, 0
2, 193254, Note_on_c, 0, 41, 0
2, 193288, Note_on_c, 0, 39, 61
2, 193548, Note_on_c, 0, 44, 75
2, 193550, Note_on_c, 0, 46, 61
2, 193576, Note_on_c, 0, 32, 0
2, 193584, Control_c, 0, 64, 127
2, 193608, Note_on_c, 0, 44, 0
2, 193636, Note_on_c, 0, 39, 0
2, 193636, Note_on_c, 0, 46, 0
2, 193822, Note_on_c, 0, 48, 82
2, 193918, Note_on_c, 0, 48, 0
2, 194060, Note_on_c, 0, 58, 74
2, 194064, Note_on_c, 0, 56, 79
2, 194114, Note_on_c, 0, 56, 0
2, 194120, Control_c, 0, 64, 0
2, 194125, Note_on_c, 0, 58, 0
2, 194346, Note_on_c, 0, 32, 58
2, 194846, Note_on_c, 0, 46, 64
2, 194856, Note_on_c, 0, 44, 67
2, 194982, Note_on_c, 0, 44, 0
2, 194984, Note_on_c, 0, 46, 0
2, 195110, Note_on_c, 0, 46, 39
2, 195118, Note_on_c, 0, 44, 50
2, 195418, Note_on_c, 0, 43, 73
2, 195532, Note_on_c, 0, 44, 0
2, 195564, Control_c, 0, 64, 127
2, 195582, Note_on_c, 0, 46, 0
2, 195940, Note_on_c, 0, 46, 37
2, 195944, Note_on_c, 0, 44, 50
2, 195960, Note_on_c, 0, 43, 0
2, 195963, Control_c, 0, 64, 0
2, 196452, Note_on_c, 0, 44, 0
2, 196472, Control_c, 0, 64, 127
2, 196492, Note_on_c, 0, 46, 0
2, 196526, Note_on_c, 0, 41, 57
2, 196762, Control_c, 0, 64, 0
2, 197050, Note_on_c, 0, 46, 46
2, 197050, Note_on_c, 0, 48, 54
2, 197116, Note_on_c, 0, 46, 0
2, 197128, Note_on_c, 0, 48, 0
2, 197588, Note_on_c, 0, 58, 53
2, 197592, Note_on_c, 0, 60, 47
2, 197672, Note_on_c, 0, 60, 0
2, 197685, Note_on_c, 0, 58, 0
2, 197842, Note_on_c, 0, 32, 0
2, 198122, Note_on_c, 0, 32, 68
2, 198134, Note_on_c, 0, 41, 0
2, 198422, Control_c, 0, 64, 127
2, 198674, Note_on_c, 0, 44, 84
2, 198914, Note_on_c, 0, 32, 0
2, 199188, Note_on_c, 0, 46, 60
2, 199190, Note_on_c, 0, 66, 72
2, 199190, Control_c, 0, 64, 0
2, 199194, Note_on_c, 0, 58, 61
2, 199196, Note_on_c, 0, 61, 67
2, 199202, Note_on_c, 0, 44, 0
2, 199268, Note_on_c, 0, 58, 0
2, 199272, Note_on_c, 0, 61, 0
2, 199304, Note_on_c, 0, 66, 0
2, 199444, Note_on_c, 0, 66, 81
2, 199456, Note_on_c, 0, 58, 66
2, 199462, Note_on_c, 0, 61, 81
2, 199546, Note_on_c, 0, 58, 0
2, 199556, Note_on_c, 0, 61, 0
2, 199572, Note_on_c, 0, 66, 0
2, 199718, Note_on_c, 0, 56, 77
2, 199722, Note_on_c, 0, 65, 88
2, 199730, Note_on_c, 0, 60, 82
2, 199730, Note_on_c, 0, 44, 60
2, 199754, Note_on_c, 0, 46, 0
2, 200020, Control_c, 0, 64, 127
2, 200056, Note_on_c, 0, 56, 0
2, 200076, Note_on_c, 0, 60, 0
2, 200080, Note_on_c, 0, 65, 0
2, 200266, Control_c, 0, 64, 0
2, 200288, Note_on_c, 0, 56, 62
2, 200291, Note_on_c, 0, 65, 66
2, 200302, Note_on_c, 0, 32, 69
2, 200302, Note_on_c, 0, 60, 66
2, 200324, Note_on_c, 0, 44, 0
2, 200682, Control_c, 0, 64, 127
2, 200824, Note_on_c, 0, 44, 87
2, 200838, Note_on_c, 0, 56, 0
2, 200844, Note_on_c, 0, 65, 0
2, 200850, Control_c, 0, 64, 0
2, 200852, Note_on_c, 0, 60, 0
2, 201032, Note_on_c, 0, 32, 0
2, 201234, Control_c, 0, 64, 127
2, 201296, Control_c, 0, 64, 0
2, 201338, Note_on_c, 0, 63, 80
2, 201344, Note_on_c, 0, 46, 66
2, 201346, Note_on_c, 0, 54, 69
2, 201350, Note_on_c, 0, 58, 44
2, 201378, Note_on_c, 0, 44, 0
2, 201410, Note_on_c, 0, 54, 0
2, 201418, Note_on_c, 0, 58, 0
2, 201456, Note_on_c, 0, 63, 0
2, 201602, Note_on_c, 0, 63, 83
2, 201604, Note_on_c, 0, 58, 59
2, 201614, Note_on_c, 0, 54, 74
2, 201672, Note_on_c, 0, 54, 0
2, 201694, Note_on_c, 0, 63, 0
2, 201738, Note_on_c, 0, 58, 0
2, 201864, Note_on_c, 0, 61, 90
2, 201870, Note_on_c, 0, 44, 72
2, 201878, Note_on_c, 0, 56, 68
2, 201884, Note_on_c, 0, 53, 102
2, 201896, Note_on_c, 0, 46, 0
2, 202030, Note_on_c, 0, 53, 0
2, 202048, Control_c, 0, 64, 127
2, 202074, Note_on_c, 0, 56, 0
2, 202120, Note_on_c, 0, 61, 0
2, 202390, Note_on_c, 0, 44, 0
2, 202396, Note_on_c, 0, 70, 84
2, 202410, Note_on_c, 0, 62, 67
2, 202410, Note_on_c, 0, 59, 66
2, 202410, Note_on_c, 0, 65, 65
2, 202420, Note_on_c, 0, 32, 66
2, 202464, Control_c, 0, 64, 0
2, 202738, Note_on_c, 0, 59, 0
2, 202740, Control_c, 0, 64, 127
2, 202790, Note_on_c, 0, 62, 0
2, 202796, Note_on_c, 0, 65, 0
2, 202822, Note_on_c, 0, 70, 0
2, 202892, Note_on_c, 0, 32, 0
2, 202936, Note_on_c, 0, 44, 77
2, 203002, Control_c, 0, 64, 0
2, 203442, Note_on_c, 0, 66, 58
2, 203446, Note_on_c, 0, 61, 52
2, 203450, Note_on_c, 0, 58, 44
2, 203470, Note_on_c, 0, 46, 51
2, 203480, Note_on_c, 0, 44, 0
2, 203516, Note_on_c, 0, 66, 0
2, 203518, Note_on_c, 0, 61, 0
2, 203540, Note_on_c, 0, 58, 0
2, 203694, Note_on_c, 0, 66, 54
2, 203704, Note_on_c, 0, 58, 52
2, 203707, Note_on_c, 0, 61, 57
2, 203760, Note_on_c, 0, 66, 0
2, 203778, Note_on_c, 0, 58, 0
2, 203790, Note_on_c, 0, 61, 0
2, 203976, Note_on_c, 0, 44, 56
2, 203982, Note_on_c, 0, 65, 56
2, 203984, Note_on_c, 0, 60, 52
2, 203986, Note_on_c, 0, 56, 54
2, 204024, Note_on_c, 0, 46, 0
2, 204054, Note_on_c, 0, 60, 0
2, 204060, Note_on_c, 0, 65, 0
2, 204090, Note_on_c, 0, 56, 0
2, 204256, Note_on_c, 0, 60, 31
2, 204256, Note_on_c, 0, 56, 50
2, 204258, Note_on_c, 0, 65, 38
2, 204322, Note_on_c, 0, 65, 0
2, 204326, Note_on_c, 0, 56, 0
2, 204334, Note_on_c, 0, 60, 0
2, 204502, Note_on_c, 0, 65, 50
2, 204510, Note_on_c, 0, 32, 62
2, 204510, Note_on_c, 0, 56, 45
2, 204510, Note_on_c, 0, 60, 30
2, 204532, Note_on_c, 0, 44, 0
2, 204572, Note_on_c, 0, 65, 0
2, 204582, Note_on_c, 0, 56, 0
2, 204600, Note_on_c, 0, 60, 0
2, 204752, Note_on_c, 0, 60, 53
2, 204754, Note_on_c, 0, 56, 47
2, 204756, Note_on_c, 0, 65, 43
2, 204828, Note_on_c, 0, 65, 0
2, 204830, Control_c, 0, 64, 127
2, 204854, Note_on_c, 0, 60, 0
2, 204862, Note_on_c, 0, 56, 0
2, 204984, Control_c, 0, 64, 0
2, 204998, Note_on_c, 0, 44, 58
2, 205124, Note_on_c, 0, 32, 0
2, 205336, Control_c, 0, 64, 127
2, 205476, Control_c, 0, 64, 0
2, 205522, Note_on_c, 0, 54, 64
2, 205524, Note_on_c, 0, 58, 38
2, 205527, Note_on_c, 0, 63, 64
2, 205531, Note_on_c, 0, 44, 0
2, 205540, Note_on_c, 0, 46, 39
2, 205596, Note_on_c, 0, 63, 0
2, 205609, Note_on_c, 0, 58, 0
2, 205616, Note_on_c, 0, 54, 0
2, 205787, Note_on_c, 0, 63, 70
2, 205794, Note_on_c, 0, 58, 38
2, 205804, Note_on_c, 0, 54, 57
2, 205866, Note_on_c, 0, 54, 0
2, 205882, Note_on_c, 0, 58, 0
2, 205916, Note_on_c, 0, 63, 0
2, 206066, Note_on_c, 0, 61, 81
2, 206076, Note_on_c, 0, 54, 65
2, 206076, Note_on_c, 0, 58, 39
2, 206084, Note_on_c, 0, 44, 56
2, 206118, Note_on_c, 0, 46, 0
2, 206350, Control_c, 0, 64, 127
2, 206420, Note_on_c, 0, 58, 0
2, 206538, Note_on_c, 0, 54, 0
2, 206614, Note_on_c, 0, 63, 72
2, 206622, Note_on_c, 0, 56, 53
2, 206634, Note_on_c, 0, 53, 77
2, 206650, Note_on_c, 0, 32, 39
2, 206740, Note_on_c, 0, 61, 0
2, 206743, Note_on_c, 0, 44, 0
2, 206766, Control_c, 0, 64, 0
2, 206928, Note_on_c, 0, 56, 0
2, 206933, Control_c, 0, 64, 127
2, 206976, Note_on_c, 0, 53, 0
2, 207146, Note_on_c, 0, 52, 62
2, 207148, Note_on_c, 0, 58, 68
2, 207150, Note_on_c, 0, 55, 72
2, 207160, Note_on_c, 0, 44, 60
2, 207198, Note_on_c, 0, 32, 0
2, 207232, Note_on_c, 0, 63, 0
2, 207366, Control_c, 0, 64, 0
2, 207676, Note_on_c, 0, 46, 52
2, 207688, Control_c, 0, 64, 127
2, 207696, Note_on_c, 0, 44, 0
2, 207934, Control_c, 0, 64, 0
2, 208148, Control_c, 0, 64, 127
2, 208202, Note_on_c, 0, 44, 62
2, 208300, Note_on_c, 0, 46, 0
2, 208758, Note_on_c, 0, 32, 45
2, 208790, Note_on_c, 0, 44, 0
2, 208902, Control_c, 0, 64, 0
2, 209178, Control_c, 0, 64, 127
2, 209302, Control_c, 0, 64, 0
2, 209310, Note_on_c, 0, 44, 54
2, 209348, Note_on_c, 0, 32, 0
2, 209462, Note_on_c, 0, 52, 0
2, 209486, Control_c, 0, 64, 127
2, 209508, Note_on_c, 0, 55, 0
2, 209566, Note_on_c, 0, 58, 0
2, 209864, Note_on_c, 0, 44, 0
2, 209874, Note_on_c, 0, 46, 39
2, 210378, Control_c, 0, 64, 0
2, 210408, Note_on_c, 0, 44, 54
2, 210448, Note_on_c, 0, 46, 0
2, 210954, Note_on_c, 0, 34, 50
2, 210982, Note_on_c, 0, 44, 0
2, 211068, Control_c, 0, 64, 127
2, 211372, Note_on_c, 0, 34, 0
2, 211452, Control_c, 0, 64, 0
2, 211480, Note_on_c, 0, 55, 84
2, 211492, Note_on_c, 0, 51, 62
2, 211494, Note_on_c, 0, 33, 60
2, 211558, Note_on_c, 0, 33, 0
2, 211750, Note_on_c, 0, 45, 58
2, 211818, Note_on_c, 0, 45, 0
2, 212006, Note_on_c, 0, 35, 77
2, 212054, Note_on_c, 0, 35, 0
2, 212278, Note_on_c, 0, 47, 61
2, 212332, Note_on_c, 0, 47, 0
2, 212536, Note_on_c, 0, 49, 66
2, 212552, Note_on_c, 0, 33, 61
2, 212612, Note_on_c, 0, 33, 0
2, 212650, Note_on_c, 0, 51, 0
2, 212800, Note_on_c, 0, 45, 57
2, 212860, Note_on_c, 0, 45, 0
2, 213048, Note_on_c, 0, 35, 77
2, 213094, Note_on_c, 0, 35, 0
2, 213304, Note_on_c, 0, 47, 60
2, 213358, Note_on_c, 0, 55, 0
2, 213361, Note_on_c, 0, 47, 0
2, 213546, Note_on_c, 0, 49, 0
2, 213556, Note_on_c, 0, 33, 75
2, 213556, Note_on_c, 0, 51, 81
2, 213559, Note_on_c, 0, 55, 90
2, 213618, Note_on_c, 0, 33, 0
2, 213810, Note_on_c, 0, 45, 57
2, 213874, Note_on_c, 0, 45, 0
2, 213928, Note_on_c, 0, 51, 0
2, 214058, Note_on_c, 0, 51, 69
2, 214068, Note_on_c, 0, 35, 80
2, 214116, Note_on_c, 0, 35, 0
2, 214324, Note_on_c, 0, 47, 64
2, 214382, Note_on_c, 0, 47, 0
2, 214562, Note_on_c, 0, 49, 60
2, 214562, Note_on_c, 0, 33, 69
2, 214636, Note_on_c, 0, 33, 0
2, 214664, Note_on_c, 0, 51, 0
2, 214828, Note_on_c, 0, 45, 57
2, 214894, Note_on_c, 0, 45, 0
2, 215074, Note_on_c, 0, 35, 54
2, 215092, Note_on_c, 0, 55, 0
2, 215118, Note_on_c, 0, 49, 0
2, 215124, Note_on_c, 0, 35, 0
2, 215154, Control_c, 0, 64, 127
2, 215334, Note_on_c, 0, 47, 52
2, 215396, Note_on_c, 0, 47, 0
2, 215478, Control_c, 0, 64, 0
2, 215570, Note_on_c, 0, 55, 65
2, 215570, Note_on_c, 0, 33, 54
2, 215573, Note_on_c, 0, 67, 68
2, 215576, Note_on_c, 0, 63, 57
2, 215650, Note_on_c, 0, 33, 0
2, 215832, Note_on_c, 0, 45, 49
2, 215902, Note_on_c, 0, 45, 0
2, 216074, Note_on_c, 0, 35, 64
2, 216122, Note_on_c, 0, 35, 0
2, 216314, Note_on_c, 0, 47, 58
2, 216368, Note_on_c, 0, 47, 0
2, 216534, Note_on_c, 0, 37, 85
2, 216586, Note_on_c, 0, 37, 0
2, 216766, Note_on_c, 0, 49, 87
2, 216838, Note_on_c, 0, 49, 0
2, 216996, Note_on_c, 0, 55, 0
2, 216996, Note_on_c, 0, 39, 103
2, 217044, Note_on_c, 0, 39, 0
2, 217118, Note_on_c, 0, 63, 0
2, 217121, Control_c, 0, 64, 127
2, 217130, Note_on_c, 0, 67, 0
2, 217220, Note_on_c, 0, 51, 104
2, 217312, Note_on_c, 0, 51, 0
2, 217368, Control_c, 0, 64, 0
2, 217464, Note_on_c, 0, 73, 99
2, 217466, Note_on_c, 0, 61, 89
2, 217469, Note_on_c, 0, 41, 108
2, 217474, Note_on_c, 0, 69, 75
2, 217528, Note_on_c, 0, 41, 0
2, 217708, Note_on_c, 0, 53, 118
2, 217794, Note_on_c, 0, 53, 0
2, 217950, Note_on_c, 0, 39, 87
2, 218008, Note_on_c, 0, 39, 0
2, 218208, Note_on_c, 0, 51, 70
2, 218278, Note_on_c, 0, 51, 0
2, 218448, Note_on_c, 0, 37, 67
2, 218504, Note_on_c, 0, 37, 0
2, 218682, Note_on_c, 0, 49, 64
2, 218742, Note_on_c, 0, 49, 0
2, 218924, Note_on_c, 0, 35, 51
2, 218978, Note_on_c, 0, 35, 0
2, 219018, Note_on_c, 0, 73, 0
2, 219026, Control_c, 0, 64, 127
2, 219036, Note_on_c, 0, 69, 0
2, 219038, Note_on_c, 0, 61, 0
2, 219180, Note_on_c, 0, 47, 50
2, 219238, Note_on_c, 0, 47, 0
2, 219364, Control_c, 0, 64, 0
2, 219418, Note_on_c, 0, 55, 80
2, 219420, Note_on_c, 0, 51, 61
2, 219436, Note_on_c, 0, 33, 30
2, 219590, Note_on_c, 0, 33, 0
2, 219672, Note_on_c, 0, 45, 53
2, 219742, Note_on_c, 0, 45, 0
2, 219948, Note_on_c, 0, 35, 61
2, 219998, Note_on_c, 0, 35, 0
2, 220192, Note_on_c, 0, 47, 58
2, 220252, Note_on_c, 0, 47, 0
2, 220450, Note_on_c, 0, 33, 45
2, 220450, Note_on_c, 0, 49, 56
2, 220520, Note_on_c, 0, 33, 0
2, 220610, Note_on_c, 0, 51, 0
2, 220720, Note_on_c, 0, 45, 39
2, 220792, Note_on_c, 0, 45, 0
2, 220936, Note_on_c, 0, 35, 66
2, 220990, Note_on_c, 0, 35, 0
2, 221180, Note_on_c, 0, 47, 56
2, 221220, Note_on_c, 0, 55, 0
2, 221236, Note_on_c, 0, 47, 0
2, 221416, Note_on_c, 0, 55, 95
2, 221418, Note_on_c, 0, 51, 93
2, 221438, Note_on_c, 0, 33, 52
2, 221448, Note_on_c, 0, 49, 0
2, 221532, Note_on_c, 0, 33, 0
2, 221678, Note_on_c, 0, 45, 50
2, 221746, Control_c, 0, 64, 127
2, 221754, Note_on_c, 0, 45, 0
2, 221816, Note_on_c, 0, 51, 0
2, 221868, Control_c, 0, 64, 0
2, 221904, Note_on_c, 0, 51, 70
2, 221944, Note_on_c, 0, 35, 66
2, 222016, Note_on_c, 0, 35, 0
2, 222182, Note_on_c, 0, 47, 53
2, 222246, Note_on_c, 0, 47, 0
2, 222412, Note_on_c, 0, 33, 62
2, 222422, Note_on_c, 0, 49, 69
2, 222484, Note_on_c, 0, 33, 0
2, 222518, Note_on_c, 0, 51, 0
2, 222668, Note_on_c, 0, 45, 54
2, 222730, Note_on_c, 0, 45, 0
2, 222922, Note_on_c, 0, 35, 50
2, 222960, Control_c, 0, 64, 127
2, 222966, Note_on_c, 0, 49, 0
2, 222988, Note_on_c, 0, 35, 0
2, 222992, Note_on_c, 0, 55, 0
2, 223182, Note_on_c, 0, 47, 51
2, 223244, Note_on_c, 0, 47, 0
2, 223376, Control_c, 0, 64, 0
2, 223460, Note_on_c, 0, 83, 127
2, 223466, Note_on_c, 0, 71, 115
2, 223466, Note_on_c, 0, 79, 111
2, 223474, Note_on_c, 0, 33, 68
2, 223535, Note_on_c, 0, 33, 0
2, 223712, Note_on_c, 0, 45, 59
2, 223772, Note_on_c, 0, 45, 0
2, 223954, Note_on_c, 0, 35, 72
2, 224004, Note_on_c, 0, 35, 0
2, 224182, Note_on_c, 0, 47, 61
2, 224242, Note_on_c, 0, 47, 0
2, 224426, Note_on_c, 0, 37, 73
2, 224480, Note_on_c, 0, 37, 0
2, 224664, Note_on_c, 0, 49, 73
2, 224740, Note_on_c, 0, 49, 0
2, 224900, Note_on_c, 0, 39, 88
2, 224948, Note_on_c, 0, 39, 0
2, 225142, Note_on_c, 0, 51, 84
2, 225200, Note_on_c, 0, 51, 0
2, 225384, Note_on_c, 0, 41, 114
2, 225446, Note_on_c, 0, 41, 0
2, 225622, Note_on_c, 0, 53, 115
2, 225684, Note_on_c, 0, 53, 0
2, 225854, Note_on_c, 0, 43, 103
2, 225930, Note_on_c, 0, 43, 0
2, 226092, Note_on_c, 0, 55, 97
2, 226198, Note_on_c, 0, 55, 0
2, 226326, Note_on_c, 0, 45, 92
2, 226428, Note_on_c, 0, 45, 0
2, 226558, Note_on_c, 0, 57, 81
2, 226638, Note_on_c, 0, 57, 0
2, 226706, Note_on_c, 0, 79, 0
2, 226720, Note_on_c, 0, 71, 0
2, 226812, Note_on_c, 0, 47, 64
2, 226814, Note_on_c, 0, 83, 0
2, 226868, Note_on_c, 0, 47, 0
2, 227044, Note_on_c, 0, 59, 65
2, 227092, Note_on_c, 0, 59, 0
2, 227330, Note_on_c, 0, 59, 64
2, 227334, Note_on_c, 0, 55, 66
2, 227336, Note_on_c, 0, 49, 47
2, 227554, Control_c, 0, 64, 127
2, 227614, Note_on_c, 0, 59, 0
2, 227658, Note_on_c, 0, 61, 56
2, 227664, Note_on_c, 0, 49, 0
2, 227664, Note_on_c, 0, 55, 0
2, 227816, Control_c, 0, 64, 0
2, 227882, Note_on_c, 0, 59, 72
2, 227882, Note_on_c, 0, 55, 72
2, 227944, Note_on_c, 0, 55, 0
2, 227964, Note_on_c, 0, 59, 0
2, 228120, Note_on_c, 0, 61, 0
2, 228126, Note_on_c, 0, 59, 80
2, 228132, Note_on_c, 0, 55, 74
2, 228194, Note_on_c, 0, 55, 0
2, 228214, Note_on_c, 0, 59, 0
2, 228360, Note_on_c, 0, 58, 60
2, 228364, Note_on_c, 0, 49, 70
2, 228366, Note_on_c, 0, 54, 84
2, 228476, Note_on_c, 0, 54, 0
2, 228506, Note_on_c, 0, 58, 0
2, 228594, Note_on_c, 0, 49, 0
2, 228604, Note_on_c, 0, 58, 49
2, 228610, Note_on_c, 0, 54, 68
2, 228626, Note_on_c, 0, 61, 67
2, 228670, Note_on_c, 0, 54, 0
2, 228734, Note_on_c, 0, 58, 0
2, 228858, Note_on_c, 0, 58, 50
2, 228878, Note_on_c, 0, 54, 50
2, 228940, Note_on_c, 0, 54, 0
2, 228948, Note_on_c, 0, 58, 0
2, 229084, Note_on_c, 0, 61, 0
2, 229102, Note_on_c, 0, 58, 58
2, 229110, Note_on_c, 0, 54, 65
2, 229176, Note_on_c, 0, 54, 0
2, 229196, Note_on_c, 0, 58, 0
2, 229360, Note_on_c, 0, 57, 67
2, 229360, Note_on_c, 0, 49, 58
2, 229372, Note_on_c, 0, 53, 83
2, 229568, Control_c, 0, 64, 127
2, 229584, Note_on_c, 0, 49, 0
2, 229604, Note_on_c, 0, 61, 53
2, 229612, Note_on_c, 0, 53, 0
2, 229658, Note_on_c, 0, 57, 0
2, 229690, Control_c, 0, 64, 0
2, 229830, Note_on_c, 0, 57, 65
2, 229842, Note_on_c, 0, 53, 99
2, 229894, Note_on_c, 0, 53, 0
2, 229914, Note_on_c, 0, 57, 0
2, 230018, Note_on_c, 0, 61, 0
2, 230070, Note_on_c, 0, 57, 80
2, 230070, Note_on_c, 0, 53, 104
2, 230140, Note_on_c, 0, 53, 0
2, 230170, Note_on_c, 0, 57, 0
2, 230298, Note_on_c, 0, 52, 88
2, 230300, Note_on_c, 0, 56, 72
2, 230306, Note_on_c, 0, 49, 59
2, 230514, Note_on_c, 0, 49, 0
2, 230550, Control_c, 0, 64, 127
2, 230564, Note_on_c, 0, 61, 62
2, 230610, Note_on_c, 0, 56, 0
2, 230796, Note_on_c, 0, 52, 0
2, 230812, Control_c, 0, 64, 0
2, 230812, Note_on_c, 0, 60, 88
2, 230815, Note_on_c, 0, 56, 75
2, 230966, Note_on_c, 0, 61, 0
2, 230996, Control_c, 0, 64, 127
2, 231028, Note_on_c, 0, 56, 0
2, 231068, Note_on_c, 0, 60, 0
2, 231302, Note_on_c, 0, 59, 88
2, 231308, Note_on_c, 0, 55, 72
2, 231316, Note_on_c, 0, 49, 60
2, 231334, Control_c, 0, 64, 0
2, 231544, Note_on_c, 0, 49, 0
2, 231574, Note_on_c, 0, 61, 59
2, 231580, Control_c, 0, 64, 127
2, 231670, Note_on_c, 0, 55, 0
2, 231812, Note_on_c, 0, 59, 0
2, 231822, Note_on_c, 0, 64, 96
2, 231825, Note_on_c, 0, 57, 75
2, 231888, Control_c, 0, 64, 0
2, 232032, Note_on_c, 0, 61, 0
2, 232086, Control_c, 0, 64, 127
2, 232091, Note_on_c, 0, 57, 0
2, 232312, Note_on_c, 0, 67, 73
2, 232328, Note_on_c, 0, 61, 35
2, 232330, Note_on_c, 0, 59, 42
2, 232342, Note_on_c, 0, 64, 0
2, 232348, Control_c, 0, 64, 0
2, 232580, Control_c, 0, 64, 127
2, 232604, Note_on_c, 0, 59, 0
2, 232616, Note_on_c, 0, 61, 0
2, 232636, Note_on_c, 0, 49, 31
2, 232869, Note_on_c, 0, 64, 54
2, 232874, Note_on_c, 0, 57, 42
2, 232902, Control_c, 0, 64, 0
2, 232908, Note_on_c, 0, 67, 0
2, 233070, Control_c, 0, 64, 127
2, 233086, Note_on_c, 0, 64, 0
2, 233088, Note_on_c, 0, 49, 0
2, 233362, Note_on_c, 0, 57, 0
2, 233368, Note_on_c, 0, 59, 60
2, 233371, Note_on_c, 0, 49, 26
2, 233378, Note_on_c, 0, 55, 39
2, 233424, Control_c, 0, 64, 0
2, 233624, Control_c, 0, 64, 127
2, 233644, Note_on_c, 0, 61, 51
2, 233690, Note_on_c, 0, 49, 0
2, 233868, Note_on_c, 0, 59, 0
2, 233914, Note_on_c, 0, 57, 50
2, 233917, Note_on_c, 0, 52, 61
2, 233920, Note_on_c, 0, 55, 0
2, 234022, Note_on_c, 0, 52, 0
2, 234025, Note_on_c, 0, 61, 0
2, 234410, Note_on_c, 0, 57, 0
2, 234428, Note_on_c, 0, 61, 49
2, 234434, Note_on_c, 0, 59, 53
2, 234440, Note_on_c, 0, 55, 46
2, 234546, Control_c, 0, 64, 0
2, 234736, Note_on_c, 0, 61, 0
2, 234738, Note_on_c, 0, 49, 44
2, 234759, Control_c, 0, 64, 127
2, 234954, Note_on_c, 0, 49, 0
2, 235102, Note_on_c, 0, 49, 30
2, 235176, Note_on_c, 0, 49, 0
2, 235520, Note_on_c, 0, 49, 57
2, 235694, Note_on_c, 0, 49, 0
2, 235698, Note_on_c, 0, 55, 0
2, 235782, Note_on_c, 0, 61, 51
2, 236038, Note_on_c, 0, 57, 83
2, 236042, Note_on_c, 0, 52, 52
2, 236044, Note_on_c, 0, 59, 0
2, 236216, Note_on_c, 0, 52, 0
2, 236510, Note_on_c, 0, 59, 95
2, 236516, Note_on_c, 0, 55, 54
2, 236522, Note_on_c, 0, 49, 39
2, 236572, Note_on_c, 0, 57, 0
2, 236572, Control_c, 0, 64, 0
2, 236768, Note_on_c, 0, 55, 0
2, 236774, Control_c, 0, 64, 127
2, 236790, Note_on_c, 0, 49, 0
2, 236793, Note_on_c, 0, 61, 0
2, 236896, Note_on_c, 0, 59, 0
2, 237038, Note_on_c, 0, 64, 95
2, 237048, Note_on_c, 0, 57, 57
2, 237292, Note_on_c, 0, 57, 0
2, 237422, Note_on_c, 0, 64, 0
2, 237568, Note_on_c, 0, 59, 81
2, 237578, Note_on_c, 0, 49, 43
2, 237580, Note_on_c, 0, 55, 61
2, 237634, Control_c, 0, 64, 0
2, 237896, Note_on_c, 0, 49, 0
2, 237908, Note_on_c, 0, 61, 47
2, 237910, Control_c, 0, 64, 127
2, 238182, Note_on_c, 0, 61, 0
2, 238670, Note_on_c, 0, 59, 0
2, 238690, Note_on_c, 0, 57, 50
2, 238696, Note_on_c, 0, 55, 0
2, 238696, Note_on_c, 0, 49, 36
2, 238698, Note_on_c, 0, 52, 24
2, 238756, Control_c, 0, 64, 0
2, 239033, Control_c, 0, 64, 127
2, 239110, Note_on_c, 0, 52, 0
2, 239256, Note_on_c, 0, 57, 0
2, 239262, Control_c, 0, 64, 0
2, 239264, Note_on_c, 0, 59, 44
2, 239272, Note_on_c, 0, 55, 35
2, 239478, Control_c, 0, 64, 127
2, 239500, Note_on_c, 0, 49, 0
2, 239532, Note_on_c, 0, 55, 0
2, 239722, Note_on_c, 0, 59, 0
2, 239724, Control_c, 0, 64, 0
2, 239760, Note_on_c, 0, 61, 50
2, 239762, Note_on_c, 0, 58, 37
2, 239782, Note_on_c, 0, 42, 49
2, 240042, Note_on_c, 0, 49, 44
2, 240062, Control_c, 0, 64, 127
2, 240066, Note_on_c, 0, 61, 0
2, 240122, Note_on_c, 0, 49, 0
2, 240274, Note_on_c, 0, 61, 60
2, 240400, Note_on_c, 0, 61, 0
2, 240508, Note_on_c, 0, 49, 52
2, 240572, Note_on_c, 0, 49, 0
2, 240756, Note_on_c, 0, 49, 50
2, 240828, Note_on_c, 0, 49, 0
2, 241004, Note_on_c, 0, 49, 42
2, 241072, Note_on_c, 0, 49, 0
2, 241238, Note_on_c, 0, 61, 52
2, 241304, Note_on_c, 0, 42, 0
2, 241340, Note_on_c, 0, 58, 0
2, 241472, Note_on_c, 0, 49, 51
2, 241512, Note_on_c, 0, 61, 0
2, 241538, Note_on_c, 0, 49, 0
2, 241720, Note_on_c, 0, 42, 61
2, 241752, Control_c, 0, 64, 0
2, 241958, Note_on_c, 0, 49, 44
2, 242024, Note_on_c, 0, 42, 0
2, 242164, Note_on_c, 0, 49, 0
2, 242194, Note_on_c, 0, 61, 51
2, 242200, Note_on_c, 0, 58, 30
2, 242202, Note_on_c, 0, 42, 52
2, 242280, Note_on_c, 0, 42, 0
2, 242314, Note_on_c, 0, 58, 0
2, 242436, Note_on_c, 0, 42, 67
2, 242442, Note_on_c, 0, 49, 52
2, 242502, Note_on_c, 0, 42, 0
2, 242666, Note_on_c, 0, 61, 0
2, 242668, Note_on_c, 0, 41, 88
2, 242734, Note_on_c, 0, 41, 0
2, 242880, Note_on_c, 0, 49, 0
2, 242898, Note_on_c, 0, 41, 80
2, 242962, Note_on_c, 0, 41, 0
2, 243126, Note_on_c, 0, 49, 51
2, 243126, Note_on_c, 0, 41, 73
2, 243178, Note_on_c, 0, 41, 0
2, 243252, Note_on_c, 0, 49, 0
2, 243364, Note_on_c, 0, 41, 80
2, 243416, Note_on_c, 0, 41, 0
2, 243614, Note_on_c, 0, 40, 82
2, 243842, Control_c, 0, 64, 127
2, 243846, Note_on_c, 0, 49, 49
2, 243892, Note_on_c, 0, 40, 0
2, 244024, Note_on_c, 0, 49, 0
2, 244042, Control_c, 0, 64, 0
2, 244066, Note_on_c, 0, 40, 89
2, 244074, Note_on_c, 0, 61, 59
2, 244080, Note_on_c, 0, 58, 43
2, 244134, Note_on_c, 0, 40, 0
2, 244162, Note_on_c, 0, 58, 0
2, 244220, Note_on_c, 0, 61, 0
2, 244296, Note_on_c, 0, 40, 106
2, 244310, Note_on_c, 0, 49, 62
2, 244390, Note_on_c, 0, 40, 0
2, 244466, Note_on_c, 0, 49, 0
2, 244552, Note_on_c, 0, 39, 84
2, 244778, Note_on_c, 0, 49, 54
2, 244872, Control_c, 0, 64, 127
2, 244900, Note_on_c, 0, 49, 0
2, 245018, Note_on_c, 0, 46, 64
2, 245024, Control_c, 0, 64, 0
2, 245042, Note_on_c, 0, 39, 0
2, 245262, Note_on_c, 0, 49, 50
2, 245350, Note_on_c, 0, 49, 0
2, 245394, Control_c, 0, 64, 127
2, 245397, Note_on_c, 0, 46, 0
2, 245506, Note_on_c, 0, 42, 50
2, 245516, Control_c, 0, 64, 0
2, 245754, Note_on_c, 0, 49, 39
2, 245826, Note_on_c, 0, 42, 0
2, 245854, Control_c, 0, 64, 127
2, 245942, Note_on_c, 0, 49, 0
2, 245946, Control_c, 0, 64, 0
2, 245990, Note_on_c, 0, 61, 45
2, 246002, Note_on_c, 0, 42, 45
2, 246002, Note_on_c, 0, 58, 31
2, 246084, Note_on_c, 0, 42, 0
2, 246236, Note_on_c, 0, 42, 57
2, 246242, Note_on_c, 0, 61, 0
2, 246242, Note_on_c, 0, 49, 47
2, 246302, Note_on_c, 0, 42, 0
2, 246306, Note_on_c, 0, 58, 0
2, 246458, Note_on_c, 0, 41, 82
2, 246514, Note_on_c, 0, 41, 0
2, 246674, Note_on_c, 0, 41, 83
2, 246688, Note_on_c, 0, 49, 0
2, 246734, Note_on_c, 0, 41, 0
2, 246892, Note_on_c, 0, 41, 91
2, 246904, Note_on_c, 0, 49, 64
2, 246946, Note_on_c, 0, 41, 0
2, 246974, Note_on_c, 0, 49, 0
2, 247116, Note_on_c, 0, 41, 90
2, 247160, Note_on_c, 0, 41, 0
2, 247392, Note_on_c, 0, 63, 89
2, 247400, Note_on_c, 0, 46, 43
2, 247402, Note_on_c, 0, 58, 41
2, 247402, Note_on_c, 0, 51, 37
2, 247714, Control_c, 0, 64, 127
2, 247728, Note_on_c, 0, 63, 0
2, 247896, Note_on_c, 0, 63, 89
2, 247920, Note_on_c, 0, 39, 47
2, 247958, Note_on_c, 0, 46, 0
2, 247988, Note_on_c, 0, 63, 0
2, 248050, Note_on_c, 0, 58, 0
2, 248084, Note_on_c, 0, 51, 0
2, 248124, Note_on_c, 0, 63, 87
2, 248184, Note_on_c, 0, 63, 0
2, 248254, Note_on_c, 0, 39, 0
2, 248328, Control_c, 0, 64, 0
2, 248346, Note_on_c, 0, 61, 87
2, 248348, Note_on_c, 0, 58, 39
2, 248348, Note_on_c, 0, 53, 95
2, 248350, Note_on_c, 0, 46, 41
2, 248474, Note_on_c, 0, 61, 0
2, 248566, Note_on_c, 0, 61, 80
2, 248684, Note_on_c, 0, 61, 0
2, 248802, Note_on_c, 0, 61, 82
2, 248844, Note_on_c, 0, 39, 53
2, 248926, Note_on_c, 0, 61, 0
2, 249018, Note_on_c, 0, 61, 75
2, 249038, Note_on_c, 0, 46, 0
2, 249096, Control_c, 0, 64, 127
2, 249114, Note_on_c, 0, 53, 0
2, 249118, Note_on_c, 0, 58, 0
2, 249184, Note_on_c, 0, 61, 0
2, 249310, Note_on_c, 0, 39, 0
2, 249314, Note_on_c, 0, 60, 85
2, 249324, Note_on_c, 0, 58, 53
2, 249324, Note_on_c, 0, 46, 47
2, 249324, Note_on_c, 0, 54, 97
2, 249374, Control_c, 0, 64, 0
2, 249590, Note_on_c, 0, 60, 0
2, 249618, Control_c, 0, 64, 127
2, 249754, Note_on_c, 0, 54, 0
2, 249808, Note_on_c, 0, 55, 92
2, 249812, Note_on_c, 0, 60, 89
2, 249818, Control_c, 0, 64, 0
2, 249840, Note_on_c, 0, 39, 43
2, 249940, Note_on_c, 0, 60, 0
2, 250002, Control_c, 0, 64, 127
2, 250034, Note_on_c, 0, 46, 0
2, 250036, Note_on_c, 0, 60, 57
2, 250140, Note_on_c, 0, 55, 0
2, 250146, Note_on_c, 0, 58, 0
2, 250204, Note_on_c, 0, 60, 0
2, 250288, Note_on_c, 0, 59, 73
2, 250294, Note_on_c, 0, 56, 54
2, 250296, Note_on_c, 0, 46, 42
2, 250402, Note_on_c, 0, 39, 0
2, 250402, Control_c, 0, 64, 0
2, 250648, Control_c, 0, 64, 127
2, 250786, Note_on_c, 0, 66, 69
2, 250792, Note_on_c, 0, 59, 0
2, 250808, Note_on_c, 0, 46, 0
2, 250834, Note_on_c, 0, 39, 41
2, 250848, Note_on_c, 0, 56, 0
2, 251040, Note_on_c, 0, 66, 0
2, 251104, Note_on_c, 0, 39, 0
2, 251292, Note_on_c, 0, 63, 89
2, 251300, Note_on_c, 0, 58, 53
2, 251300, Note_on_c, 0, 46, 38
2, 251306, Note_on_c, 0, 51, 51
2, 251324, Control_c, 0, 64, 0
2, 251740, Control_c, 0, 64, 127
2, 251760, Note_on_c, 0, 51, 0
2, 251776, Note_on_c, 0, 46, 0
2, 251799, Note_on_c, 0, 39, 43
2, 251850, Note_on_c, 0, 58, 0
2, 251876, Note_on_c, 0, 63, 0
2, 252048, Note_on_c, 0, 39, 0
2, 252336, Note_on_c, 0, 70, 67
2, 252368, Note_on_c, 0, 46, 45
2, 252458, Note_on_c, 0, 70, 0
2, 252618, Note_on_c, 0, 70, 31
2, 252744, Note_on_c, 0, 70, 0
2, 252770, Note_on_c, 0, 46, 0
2, 252892, Note_on_c, 0, 39, 39
2, 253126, Note_on_c, 0, 39, 0
2, 253392, Note_on_c, 0, 37, 42
2, 253468, Note_on_c, 0, 63, 12
2, 253566, Note_on_c, 0, 37, 0
2, 253894, Note_on_c, 0, 39, 41
2, 254102, Note_on_c, 0, 39, 0
2, 254390, Note_on_c, 0, 34, 39
2, 254394, Note_on_c, 0, 58, 33
2, 254524, Note_on_c, 0, 58, 0
2, 254524, Note_on_c, 0, 34, 0
2, 254658, Note_on_c, 0, 58, 27
2, 254720, Note_on_c, 0, 63, 0
2, 254862, Note_on_c, 0, 58, 0
2, 254906, Note_on_c, 0, 39, 36
2, 254990, Note_on_c, 0, 39, 0
2, 255398, Note_on_c, 0, 63, 81
2, 255412, Note_on_c, 0, 51, 46
2, 255412, Note_on_c, 0, 58, 42
2, 255415, Note_on_c, 0, 46, 41
2, 255428, Control_c, 0, 64, 0
2, 255748, Control_c, 0, 64, 127
2, 255792, Note_on_c, 0, 51, 0
2, 255836, Note_on_c, 0, 46, 0
2, 255924, Note_on_c, 0, 39, 45
2, 255930, Note_on_c, 0, 63, 0
2, 255933, Note_on_c, 0, 58, 0
2, 256172, Note_on_c, 0, 39, 0
2, 256508, Note_on_c, 0, 70, 52
2, 256534, Note_on_c, 0, 46, 42
2, 256656, Note_on_c, 0, 70, 0
2, 256826, Note_on_c, 0, 70, 39
2, 256832, Note_on_c, 0, 46, 0
2, 256970, Note_on_c, 0, 70, 0
2, 257028, Note_on_c, 0, 39, 56
2, 257188, Note_on_c, 0, 39, 0
2, 257578, Note_on_c, 0, 37, 38
2, 257592, Note_on_c, 0, 63, 23
2, 257926, Note_on_c, 0, 37, 0
2, 258136, Note_on_c, 0, 39, 47
2, 258148, Note_on_c, 0, 51, 12
2, 258242, Note_on_c, 0, 39, 0
2, 258688, Note_on_c, 0, 58, 33
2, 258702, Note_on_c, 0, 35, 57
2, 258820, Note_on_c, 0, 58, 0
2, 259024, Note_on_c, 0, 58, 39
2, 259068, Control_c, 0, 64, 0
2, 259184, Note_on_c, 0, 58, 0
2, 259252, Control_c, 0, 64, 127
2, 259294, Note_on_c, 0, 51, 0
2, 259308, Note_on_c, 0, 35, 0
2, 259382, Note_on_c, 0, 39, 37
2, 259390, Note_on_c, 0, 63, 0
2, 259514, Note_on_c, 0, 39, 0
2, 260174, Control_c, 0, 64, 0
2, 260214, Note_on_c, 0, 77, 81
2, 260226, Note_on_c, 0, 34, 38
2, 260228, Note_on_c, 0, 41, 50
2, 260230, Note_on_c, 0, 70, 37
2, 260512, Control_c, 0, 64, 127
2, 260572, Note_on_c, 0, 70, 0
2, 261004, Note_on_c, 0, 70, 37
2, 261006, Note_on_c, 0, 74, 66
2, 261034, Note_on_c, 0, 77, 0
2, 261086, Note_on_c, 0, 70, 0
2, 261096, Control_c, 0, 64, 0
2, 261296, Note_on_c, 0, 70, 49
2, 261364, Note_on_c, 0, 70, 0
2, 261560, Note_on_c, 0, 69, 41
2, 261638, Note_on_c, 0, 69, 0
2, 261834, Control_c, 0, 64, 127
2, 261834, Note_on_c, 0, 69, 41
2, 261900, Note_on_c, 0, 74, 0
2, 261904, Note_on_c, 0, 69, 0
2, 262102, Note_on_c, 0, 77, 79
2, 262112, Note_on_c, 0, 69, 51
2, 262188, Control_c, 0, 64, 0
2, 262210, Note_on_c, 0, 69, 0
2, 262356, Control_c, 0, 64, 127
2, 262378, Note_on_c, 0, 79, 91
2, 262381, Note_on_c, 0, 69, 42
2, 262426, Note_on_c, 0, 77, 0
2, 262470, Note_on_c, 0, 69, 0
2, 262632, Note_on_c, 0, 79, 0
2, 262654, Note_on_c, 0, 72, 75
2, 262664, Note_on_c, 0, 67, 45
2, 262694, Control_c, 0, 64, 0
2, 262902, Note_on_c, 0, 74, 80
2, 262905, Note_on_c, 0, 67, 0
2, 262940, Control_c, 0, 64, 127
2, 262966, Note_on_c, 0, 72, 0
2, 263156, Control_c, 0, 64, 0
2, 263188, Note_on_c, 0, 77, 69
2, 263191, Note_on_c, 0, 67, 51
2, 263232, Note_on_c, 0, 74, 0
2, 263264, Note_on_c, 0, 67, 0
2, 263446, Note_on_c, 0, 67, 53
2, 263478, Control_c, 0, 64, 127
2, 263526, Note_on_c, 0, 67, 0
2, 263678, Control_c, 0, 64, 0
2, 263760, Note_on_c, 0, 65, 52
2, 263990, Note_on_c, 0, 41, 0
2, 264000, Control_c, 0, 64, 127
2, 264290, Note_on_c, 0, 65, 0
2, 264290, Note_on_c, 0, 74, 77
2, 264318, Note_on_c, 0, 77, 0
2, 264332, Note_on_c, 0, 41, 53
2, 264442, Note_on_c, 0, 34, 0
2, 264594, Note_on_c, 0, 72, 81
2, 264600, Note_on_c, 0, 74, 0
2, 264682, Note_on_c, 0, 72, 0
2, 264914, Note_on_c, 0, 72, 83
2, 264920, Note_on_c, 0, 70, 50
2, 264938, Note_on_c, 0, 34, 47
2, 265232, Note_on_c, 0, 74, 91
2, 265242, Note_on_c, 0, 72, 0
2, 265286, Note_on_c, 0, 74, 0
2, 265308, Note_on_c, 0, 70, 0
2, 265500, Note_on_c, 0, 74, 85
2, 265505, Note_on_c, 0, 70, 57
2, 265536, Control_c, 0, 64, 0
2, 265582, Note_on_c, 0, 70, 0
2, 265768, Note_on_c, 0, 70, 53
2, 265836, Note_on_c, 0, 70, 0
2, 266012, Note_on_c, 0, 69, 44
2, 266018, Note_on_c, 0, 72, 72
2, 266056, Note_on_c, 0, 74, 0
2, 266092, Note_on_c, 0, 69, 0
2, 266288, Note_on_c, 0, 69, 46
2, 266362, Note_on_c, 0, 69, 0
2, 266552, Note_on_c, 0, 69, 39
2, 266555, Note_on_c, 0, 77, 60
2, 266576, Note_on_c, 0, 72, 0
2, 266638, Note_on_c, 0, 69, 0
2, 266820, Note_on_c, 0, 69, 37
2, 266908, Note_on_c, 0, 69, 0
2, 266996, Control_c, 0, 64, 127
2, 267148, Note_on_c, 0, 74, 57
2, 267150, Note_on_c, 0, 67, 41
2, 267228, Control_c, 0, 64, 0
2, 267240, Note_on_c, 0, 77, 0
2, 267458, Control_c, 0, 64, 127
2, 267486, Note_on_c, 0, 67, 0
2, 267668, Note_on_c, 0, 67, 51
2, 267688, Control_c, 0, 64, 0
2, 267738, Note_on_c, 0, 67, 0
2, 267944, Note_on_c, 0, 67, 42
2, 268058, Note_on_c, 0, 67, 0
2, 268300, Note_on_c, 0, 65, 37
2, 268516, Note_on_c, 0, 41, 0
2, 268518, Control_c, 0, 64, 127
2, 268568, Note_on_c, 0, 74, 0
2, 268830, Note_on_c, 0, 72, 64
2, 268830, Note_on_c, 0, 62, 28
2, 268850, Note_on_c, 0, 41, 52
2, 268860, Note_on_c, 0, 34, 0
2, 268902, Note_on_c, 0, 65, 0
2, 268936, Note_on_c, 0, 41, 0
2, 269122, Note_on_c, 0, 69, 59
2, 269140, Note_on_c, 0, 62, 0
2, 269200, Note_on_c, 0, 72, 0
2, 269396, Note_on_c, 0, 67, 62
2, 269406, Note_on_c, 0, 53, 68
2, 269408, Note_on_c, 0, 55, 50
2, 269410, Note_on_c, 0, 60, 38
2, 269410, Note_on_c, 0, 62, 31
2, 269426, Note_on_c, 0, 69, 0
2, 269502, Control_c, 0, 64, 0
2, 269674, Note_on_c, 0, 65, 64
2, 269686, Control_c, 0, 64, 127
2, 269692, Note_on_c, 0, 67, 0
2, 269738, Note_on_c, 0, 55, 0
2, 269782, Note_on_c, 0, 53, 0
2, 269966, Note_on_c, 0, 67, 65
2, 269986, Note_on_c, 0, 48, 38
2, 269986, Note_on_c, 0, 50, 29
2, 270034, Note_on_c, 0, 65, 0
2, 270118, Note_on_c, 0, 50, 0
2, 270182, Note_on_c, 0, 48, 0
2, 270500, Note_on_c, 0, 41, 47
2, 270664, Note_on_c, 0, 41, 0
2, 270998, Note_on_c, 0, 69, 45
2, 271026, Note_on_c, 0, 34, 44
2, 271100, Note_on_c, 0, 67, 0
2, 271180, Note_on_c, 0, 34, 0
2, 271280, Note_on_c, 0, 60, 0
2, 271288, Note_on_c, 0, 72, 65
2, 271302, Note_on_c, 0, 62, 0
2, 271306, Note_on_c, 0, 69, 0
2, 271594, Note_on_c, 0, 72, 0
2, 271598, Note_on_c, 0, 53, 59
2, 271602, Note_on_c, 0, 67, 51
2, 271606, Control_c, 0, 64, 0
2, 271606, Note_on_c, 0, 55, 44
2, 271608, Note_on_c, 0, 60, 37
2, 271612, Note_on_c, 0, 62, 34
2, 271806, Control_c, 0, 64, 127
2, 271812, Note_on_c, 0, 55, 0
2, 271880, Note_on_c, 0, 53, 0
2, 272158, Note_on_c, 0, 74, 85
2, 272180, Note_on_c, 0, 67, 0
2, 272182, Note_on_c, 0, 48, 38
2, 272278, Note_on_c, 0, 48, 0
2, 272598, Note_on_c, 0, 60, 0
2, 272708, Note_on_c, 0, 72, 85
2, 272738, Note_on_c, 0, 41, 41
2, 272742, Note_on_c, 0, 62, 0
2, 272854, Note_on_c, 0, 41, 0
2, 272960, Note_on_c, 0, 74, 0
2, 273230, Note_on_c, 0, 69, 76
2, 273230, Note_on_c, 0, 34, 41
2, 273264, Note_on_c, 0, 72, 0
2, 273358, Note_on_c, 0, 34, 0
2, 273384, Note_on_c, 0, 69, 0
2, 273734, Note_on_c, 0, 67, 68
2, 273742, Note_on_c, 0, 62, 53
2, 273745, Note_on_c, 0, 53, 54
2, 273750, Note_on_c, 0, 60, 33
2, 273752, Note_on_c, 0, 55, 28
2, 273866, Control_c, 0, 64, 0
2, 274018, Note_on_c, 0, 65, 69
2, 274034, Control_c, 0, 64, 127
2, 274036, Note_on_c, 0, 67, 0
2, 274096, Note_on_c, 0, 55, 0
2, 274192, Note_on_c, 0, 53, 0
2, 274308, Note_on_c, 0, 67, 68
2, 274342, Control_c, 0, 64, 0
2, 274358, Note_on_c, 0, 50, 23
2, 274366, Note_on_c, 0, 48, 21
2, 274392, Note_on_c, 0, 65, 0
2, 274494, Control_c, 0, 64, 127
2, 274546, Note_on_c, 0, 50, 0
2, 274564, Note_on_c, 0, 48, 0
2, 274838, Note_on_c, 0, 69, 49
2, 274854, Note_on_c, 0, 67, 0
2, 274878, Note_on_c, 0, 41, 38
2, 275002, Control_c, 0, 64, 0
2, 275156, Control_c, 0, 64, 127
2, 275340, Note_on_c, 0, 69, 0
2, 275426, Note_on_c, 0, 72, 41
2, 275468, Note_on_c, 0, 34, 31
2, 275692, Control_c, 0, 64, 0
2, 275816, Control_c, 0, 64, 127
2, 275872, Note_on_c, 0, 41, 0
2, 276118, Note_on_c, 0, 67, 46
2, 276140, Note_on_c, 0, 41, 38
2, 276300, Note_on_c, 0, 34, 0
2, 276340, Note_on_c, 0, 72, 0
2, 276628, Note_on_c, 0, 34, 34
2, 276698, Note_on_c, 0, 34, 0
2, 276890, Note_on_c, 0, 34, 41
2, 276958, Note_on_c, 0, 34, 0
2, 277138, Control_c, 0, 64, 0
2, 277158, Note_on_c, 0, 33, 53
2, 277228, Note_on_c, 0, 33, 0
2, 277424, Note_on_c, 0, 33, 49
2, 277500, Note_on_c, 0, 33, 0
2, 277696, Note_on_c, 0, 33, 53
2, 277766, Note_on_c, 0, 33, 0
2, 277988, Note_on_c, 0, 33, 54
2, 278052, Note_on_c, 0, 33, 0
2, 278304, Note_on_c, 0, 32, 54
2, 278398, Control_c, 0, 64, 127
2, 278524, Note_on_c, 0, 32, 0
2, 278752, Control_c, 0, 64, 0
2, 278794, Note_on_c, 0, 32, 52
2, 278874, Note_on_c, 0, 32, 0
2, 279058, Note_on_c, 0, 32, 53
2, 279150, Note_on_c, 0, 32, 0
2, 279390, Note_on_c, 0, 31, 56
2, 279642, Control_c, 0, 64, 127
2, 279816, Note_on_c, 0, 31, 0
2, 279956, Note_on_c, 0, 38, 51
2, 280060, Note_on_c, 0, 41, 0
2, 280074, Note_on_c, 0, 60, 0
2, 280074, Note_on_c, 0, 67, 0
2, 280078, Note_on_c, 0, 62, 0
2, 280242, Note_on_c, 0, 65, 72
2, 280274, Note_on_c, 0, 38, 0
2, 280312, Note_on_c, 0, 65, 0
2, 280688, Note_on_c, 0, 67, 62
2, 280694, Note_on_c, 0, 34, 62
2, 280698, Note_on_c, 0, 60, 38
2, 280700, Note_on_c, 0, 41, 65
2, 280700, Note_on_c, 0, 62, 42
2, 280794, Control_c, 0, 64, 0
2, 281090, Note_on_c, 0, 34, 0
2, 281254, Note_on_c, 0, 34, 58
2, 281344, Note_on_c, 0, 34, 0
2, 281522, Note_on_c, 0, 34, 62
2, 281628, Note_on_c, 0, 34, 0
2, 281786, Note_on_c, 0, 33, 59
2, 281890, Note_on_c, 0, 33, 0
2, 282068, Note_on_c, 0, 33, 51
2, 282166, Note_on_c, 0, 33, 0
2, 282364, Note_on_c, 0, 33, 58
2, 282440, Note_on_c, 0, 33, 0
2, 282654, Note_on_c, 0, 33, 56
2, 282720, Note_on_c, 0, 33, 0
2, 282972, Note_on_c, 0, 32, 49
2, 283130, Control_c, 0, 64, 127
2, 283172, Note_on_c, 0, 32, 0
2, 283330, Control_c, 0, 64, 0
2, 283548, Note_on_c, 0, 32, 36
2, 283670, Note_on_c, 0, 32, 0
2, 283930, Note_on_c, 0, 32, 33
2, 284314, Control_c, 0, 64, 127
2, 284322, Note_on_c, 0, 41, 0
2, 284878, Note_on_c, 0, 67, 0
2, 284888, Note_on_c, 0, 32, 0
2, 284922, Note_on_c, 0, 62, 0
2, 284948, Note_on_c, 0, 31, 30
2, 284950, Note_on_c, 0, 60, 0
2, 284974, Control_c, 0, 64, 0
2, 285543, Note_on_c, 0, 31, 0
2, 285574, Control_c, 0, 64, 127
2, 285616, Note_on_c, 0, 50, 64
2, 285616, Note_on_c, 0, 48, 51
2, 285680, Control_c, 0, 64, 0
2, 286194, Note_on_c, 0, 30, 65
2, 286350, Note_on_c, 0, 30, 0
2, 286373, Control_c, 0, 64, 127
2, 286450, Control_c, 0, 64, 0
2, 286850, Note_on_c, 0, 29, 47
2, 287294, Control_c, 0, 64, 127
2, 287406, Note_on_c, 0, 38, 41
2, 287412, Note_on_c, 0, 29, 0
2, 287552, Note_on_c, 0, 48, 0
2, 287560, Note_on_c, 0, 50, 0
2, 287642, Note_on_c, 0, 38, 0
2, 288001, Control_c, 0, 64, 0
2, 288174, Note_on_c, 0, 50, 57
2, 288174, Note_on_c, 0, 48, 56
2, 288798, Note_on_c, 0, 30, 53
2, 288960, Note_on_c, 0, 30, 0
2, 289432, Note_on_c, 0, 29, 47
2, 290042, Note_on_c, 0, 38, 43
2, 290044, Note_on_c, 0, 29, 0
2, 290288, Note_on_c, 0, 48, 0
2, 290306, Control_c, 0, 64, 127
2, 290312, Note_on_c, 0, 50, 0
2, 290520, Note_on_c, 0, 38, 0
2, 290890, Note_on_c, 0, 50, 60
2, 290890, Note_on_c, 0, 48, 51
2, 291028, Control_c, 0, 64, 0
2, 292054, Note_on_c, 0, 30, 46
2, 292120, Control_c, 0, 64, 127
2, 292428, Note_on_c, 0, 30, 0
2, 293056, Control_c, 0, 64, 0
2, 293304, Note_on_c, 0, 29, 52
2, 293624, Control_c, 0, 64, 127
2, 293714, Note_on_c, 0, 29, 0
2, 294408, Control_c, 0, 64, 0
2, 294546, Note_on_c, 0, 26, 38
2, 294946, Control_c, 0, 64, 127
2, 295166, Note_on_c, 0, 26, 0
2, 295178, Note_on_c, 0, 48, 0
2, 295252, Note_on_c, 0, 50, 0
2, 295988, Note_on_c, 0, 55, 47
2, 295994, Note_on_c, 0, 53, 76
2, 295994, Note_on_c, 0, 22, 49
2, 296882, Control_c, 0, 64, 0
2, 297066, Control_c, 0, 64, 127
2, 297194, Note_on_c, 0, 53, 0
2, 297284, Note_on_c, 0, 55, 0
2, 298410, Note_on_c, 0, 75, 52
2, 298512, Note_on_c, 0, 75, 0
2, 301218, Note_on_c, 0, 73, 27
2, 301422, Note_on_c, 0, 73, 0
2, 303278, Note_on_c, 0, 22, 0
2, 304954, Note_on_c, 0, 22, 26
2, 305066, Note_on_c, 0, 22, 0
2, 305194, Control_c, 0, 64, 0
2, 307200, Control_c, 0, 64, 0
2, 311040, Control_c, 0, 64, 0
2, 311040, Control_c, 0, 64, 127
2, 311040, Note_on_c, 0, 64, 42
2, 311100, Note_on_c, 0, 64, 0
2, 311220, Note_on_c, 0, 64, 52
2, 311234, Note_on_c, 0, 71, 67
2, 311286, Note_on_c, 0, 64, 0
2, 311294, Note_on_c, 0, 71, 0
2, 311336, Control_c, 0, 64, 0
2, 311400, Note_on_c, 0, 64, 64
2, 311460, Note_on_c, 0, 64, 0
2, 311574, Note_on_c, 0, 64, 54
2, 311584, Note_on_c, 0, 71, 74
2, 311644, Note_on_c, 0, 64, 0
2, 311652, Note_on_c, 0, 71, 0
2, 311780, Note_on_c, 0, 64, 60
2, 311828, Note_on_c, 0, 64, 0
2, 311872, Control_c, 0, 64, 127
2, 311950, Note_on_c, 0, 64, 51
2, 311956, Note_on_c, 0, 71, 80
2, 311966, Control_c, 0, 64, 0
2, 312018, Note_on_c, 0, 64, 0
2, 312020, Note_on_c, 0, 71, 0
2, 312148, Note_on_c, 0, 64, 61
2, 312200, Note_on_c, 0, 64, 0
2, 312314, Note_on_c, 0, 64, 50
2, 312324, Note_on_c, 0, 71, 70
2, 312386, Note_on_c, 0, 64, 0
2, 312389, Note_on_c, 0, 71, 0
2, 312514, Note_on_c, 0, 64, 41
2, 312582, Note_on_c, 0, 64, 0
2, 312678, Note_on_c, 0, 64, 57
2, 312690, Note_on_c, 0, 71, 58
2, 312748, Note_on_c, 0, 64, 0
2, 312762, Note_on_c, 0, 71, 0
2, 312870, Note_on_c, 0, 64, 41
2, 312938, Note_on_c, 0, 64, 0
2, 313034, Note_on_c, 0, 64, 58
2, 313038, Note_on_c, 0, 71, 66
2, 313096, Note_on_c, 0, 64, 0
2, 313106, Note_on_c, 0, 71, 0
2, 313244, Note_on_c, 0, 64, 54
2, 313302, Note_on_c, 0, 64, 0
2, 313408, Note_on_c, 0, 64, 53
2, 313426, Note_on_c, 0, 71, 57
2, 313470, Note_on_c, 0, 64, 0
2, 313490, Note_on_c, 0, 71, 0
2, 313590, Note_on_c, 0, 63, 64
2, 313590, Note_on_c, 0, 68, 72
2, 313642, Note_on_c, 0, 63, 0
2, 313648, Note_on_c, 0, 68, 0
2, 313772, Note_on_c, 0, 71, 66
2, 313786, Note_on_c, 0, 64, 45
2, 313836, Note_on_c, 0, 71, 0
2, 313848, Note_on_c, 0, 64, 0
2, 313946, Note_on_c, 0, 68, 49
2, 313962, Note_on_c, 0, 73, 81
2, 314038, Note_on_c, 0, 73, 0
2, 314056, Note_on_c, 0, 68, 0
2, 314134, Note_on_c, 0, 71, 68
2, 314146, Note_on_c, 0, 64, 56
2, 314198, Note_on_c, 0, 71, 0
2, 314200, Note_on_c, 0, 64, 0
2, 314312, Note_on_c, 0, 66, 69
2, 314318, Note_on_c, 0, 61, 53
2, 314318, Note_on_c, 0, 64, 59
2, 314372, Note_on_c, 0, 64, 0
2, 314530, Note_on_c, 0, 71, 58
2, 314533, Note_on_c, 0, 64, 44
2, 314592, Control_c, 0, 64, 127
2, 314602, Note_on_c, 0, 71, 0
2, 314605, Note_on_c, 0, 64, 0
2, 314614, Note_on_c, 0, 61, 0
2, 314886, Note_on_c, 0, 71, 52
2, 314904, Note_on_c, 0, 64, 38
2, 314908, Note_on_c, 0, 66, 0
2, 314956, Note_on_c, 0, 71, 0
2, 314974, Note_on_c, 0, 64, 0
2, 315038, Control_c, 0, 64, 0
2, 315052, Note_on_c, 0, 63, 77
2, 315074, Note_on_c, 0, 68, 65
2, 315102, Note_on_c, 0, 63, 0
2, 315126, Note_on_c, 0, 68, 0
2, 315234, Note_on_c, 0, 73, 89
2, 315250, Note_on_c, 0, 71, 80
2, 315256, Note_on_c, 0, 68, 34
2, 315260, Note_on_c, 0, 64, 67
2, 315274, Note_on_c, 0, 73, 0
2, 315310, Note_on_c, 0, 71, 0
2, 315316, Note_on_c, 0, 64, 0
2, 315326, Note_on_c, 0, 68, 0
2, 315422, Note_on_c, 0, 61, 81
2, 315432, Note_on_c, 0, 66, 79
2, 315534, Note_on_c, 0, 61, 0
2, 315552, Note_on_c, 0, 66, 0
2, 315622, Note_on_c, 0, 71, 67
2, 315624, Note_on_c, 0, 64, 67
2, 315678, Note_on_c, 0, 64, 0
2, 315684, Note_on_c, 0, 71, 0
2, 315782, Note_on_c, 0, 63, 67
2, 315808, Note_on_c, 0, 68, 96
2, 315834, Note_on_c, 0, 63, 0
2, 315862, Note_on_c, 0, 68, 0
2, 315990, Note_on_c, 0, 71, 70
2, 315993, Note_on_c, 0, 64, 68
2, 316054, Note_on_c, 0, 64, 0
2, 316057, Note_on_c, 0, 71, 0
2, 316130, Note_on_c, 0, 56, 80
2, 316160, Note_on_c, 0, 61, 92
2, 316208, Note_on_c, 0, 61, 0
2, 316252, Note_on_c, 0, 56, 0
2, 316282, Control_c, 0, 64, 127
2, 316314, Control_c, 0, 64, 0
2, 316344, Note_on_c, 0, 71, 75
2, 316344, Note_on_c, 0, 64, 65
2, 316400, Note_on_c, 0, 64, 0
2, 316408, Note_on_c, 0, 71, 0
2, 316492, Note_on_c, 0, 61, 74
2, 316524, Note_on_c, 0, 66, 83
2, 316526, Note_on_c, 0, 64, 65
2, 316578, Note_on_c, 0, 64, 0
2, 316668, Control_c, 0, 64, 127
2, 316748, Note_on_c, 0, 71, 60
2, 316753, Note_on_c, 0, 64, 50
2, 316818, Note_on_c, 0, 71, 0
2, 316822, Note_on_c, 0, 64, 0
2, 317066, Control_c, 0, 64, 0
2, 317130, Note_on_c, 0, 64, 56
2, 317135, Note_on_c, 0, 71, 57
2, 317198, Note_on_c, 0, 64, 0
2, 317226, Note_on_c, 0, 71, 0
2, 317328, Control_c, 0, 64, 127
2, 317420, Control_c, 0, 64, 0
2, 317524, Note_on_c, 0, 71, 58
2, 317529, Note_on_c, 0, 64, 46
2, 317596, Note_on_c, 0, 64, 0
2, 317606, Note_on_c, 0, 71, 0
2, 317674, Note_on_c, 0, 63, 45
2, 317696, Note_on_c, 0, 66, 0
2, 317704, Note_on_c, 0, 68, 49
2, 317706, Note_on_c, 0, 61, 0
2, 317938, Note_on_c, 0, 71, 52
2, 317938, Note_on_c, 0, 64, 42
2, 318020, Note_on_c, 0, 64, 0
2, 318025, Note_on_c, 0, 71, 0
2, 318096, Control_c, 0, 64, 127
2, 318250, Control_c, 0, 64, 0
2, 318344, Note_on_c, 0, 64, 35
2, 318344, Note_on_c, 0, 71, 43
2, 318372, Control_c, 0, 64, 127
2, 318414, Note_on_c, 0, 71, 0
2, 318416, Note_on_c, 0, 64, 0
2, 318460, Note_on_c, 0, 68, 0
2, 318560, Note_on_c, 0, 63, 0
2, 318764, Note_on_c, 0, 64, 67
2, 318766, Note_on_c, 0, 71, 58
2, 318816, Note_on_c, 0, 64, 0
2, 318832, Note_on_c, 0, 71, 0
2, 318910, Control_c, 0, 64, 0
2, 318952, Note_on_c, 0, 40, 118
2, 318962, Note_on_c, 0, 59, 113
2, 318992, Note_on_c, 0, 40, 0
2, 319080, Control_c, 0, 64, 127
2, 319130, Note_on_c, 0, 59, 0
2, 319154, Note_on_c, 0, 71, 107
2, 319164, Note_on_c, 0, 64, 95
2, 319202, Note_on_c, 0, 64, 0
2, 319242, Note_on_c, 0, 71, 0
2, 319340, Note_on_c, 0, 64, 92
2, 319380, Note_on_c, 0, 64, 0
2, 319528, Note_on_c, 0, 71, 84
2, 319530, Note_on_c, 0, 64, 54
2, 319580, Note_on_c, 0, 71, 0
2, 319584, Note_on_c, 0, 64, 0
2, 319586, Control_c, 0, 64, 0
2, 319712, Note_on_c, 0, 64, 75
2, 319756, Note_on_c, 0, 64, 0
2, 319832, Control_c, 0, 64, 127
2, 319852, Note_on_c, 0, 64, 61
2, 319876, Note_on_c, 0, 71, 88
2, 319898, Note_on_c, 0, 64, 0
2, 319924, Note_on_c, 0, 71, 0
2, 320032, Control_c, 0, 64, 0
2, 320072, Note_on_c, 0, 64, 77
2, 320130, Note_on_c, 0, 64, 0
2, 320248, Note_on_c, 0, 71, 79
2, 320296, Note_on_c, 0, 71, 0
2, 320356, Note_on_c, 0, 70, 73
2, 320390, Note_on_c, 0, 75, 89
2, 320412, Note_on_c, 0, 70, 0
2, 320438, Note_on_c, 0, 75, 0
2, 320578, Note_on_c, 0, 71, 57
2, 320581, Note_on_c, 0, 64, 58
2, 320638, Note_on_c, 0, 64, 0
2, 320642, Note_on_c, 0, 71, 0
2, 320716, Note_on_c, 0, 75, 70
2, 320742, Note_on_c, 0, 80, 84
2, 320774, Note_on_c, 0, 75, 0
2, 320798, Note_on_c, 0, 80, 0
2, 320926, Note_on_c, 0, 71, 58
2, 320948, Note_on_c, 0, 64, 41
2, 320992, Note_on_c, 0, 71, 0
2, 321010, Note_on_c, 0, 64, 0
2, 321094, Note_on_c, 0, 68, 52
2, 321108, Note_on_c, 0, 73, 72
2, 321318, Note_on_c, 0, 71, 49
2, 321340, Note_on_c, 0, 64, 37
2, 321414, Note_on_c, 0, 64, 0
2, 321462, Note_on_c, 0, 71, 0
2, 321466, Note_on_c, 0, 68, 0
2, 321522, Control_c, 0, 64, 127
2, 321672, Note_on_c, 0, 71, 67
2, 321704, Note_on_c, 0, 64, 41
2, 321746, Note_on_c, 0, 71, 0
2, 321770, Note_on_c, 0, 64, 0
2, 321786, Note_on_c, 0, 73, 0
2, 321800, Control_c, 0, 64, 0
2, 321844, Note_on_c, 0, 75, 83
2, 321856, Note_on_c, 0, 70, 67
2, 321890, Note_on_c, 0, 75, 0
2, 321904, Note_on_c, 0, 70, 0
2, 322026, Note_on_c, 0, 63, 93
2, 322036, Note_on_c, 0, 68, 81
2, 322042, Note_on_c, 0, 71, 53
2, 322052, Note_on_c, 0, 64, 44
2, 322066, Note_on_c, 0, 63, 0
2, 322096, Note_on_c, 0, 68, 0
2, 322112, Note_on_c, 0, 71, 0
2, 322120, Note_on_c, 0, 64, 0
2, 322216, Note_on_c, 0, 68, 90
2, 322226, Note_on_c, 0, 73, 89
2, 322286, Note_on_c, 0, 68, 0
2, 322364, Note_on_c, 0, 73, 0
2, 322382, Control_c, 0, 64, 127
2, 322402, Note_on_c, 0, 71, 67
2, 322414, Control_c, 0, 64, 0
2, 322422, Note_on_c, 0, 64, 49
2, 322486, Note_on_c, 0, 64, 0
2, 322489, Note_on_c, 0, 71, 0
2, 322572, Note_on_c, 0, 70, 61
2, 322602, Note_on_c, 0, 75, 96
2, 322642, Note_on_c, 0, 70, 0
2, 322654, Note_on_c, 0, 75, 0
2, 322786, Note_on_c, 0, 71, 49
2, 322798, Note_on_c, 0, 64, 50
2, 322866, Note_on_c, 0, 64, 0
2, 322870, Note_on_c, 0, 71, 0
2, 322942, Note_on_c, 0, 75, 76
2, 322945, Note_on_c, 0, 80, 89
2, 322968, Control_c, 0, 64, 127
2, 323006, Note_on_c, 0, 75, 0
2, 323074, Control_c, 0, 64, 0
2, 323086, Note_on_c, 0, 80, 0
2, 323140, Note_on_c, 0, 71, 52
2, 323150, Note_on_c, 0, 64, 41
2, 323212, Note_on_c, 0, 71, 0
2, 323216, Note_on_c, 0, 64, 0
2, 323274, Control_c, 0, 64, 127
2, 323290, Note_on_c, 0, 68, 57
2, 323304, Control_c, 0, 64, 0
2, 323316, Note_on_c, 0, 73, 70
2, 323504, Control_c, 0, 64, 127
2, 323540, Note_on_c, 0, 71, 43
2, 323558, Note_on_c, 0, 64, 35
2, 323600, Note_on_c, 0, 68, 0
2, 323626, Note_on_c, 0, 71, 0
2, 323628, Note_on_c, 0, 64, 0
2, 323640, Note_on_c, 0, 73, 0
2, 323914, Note_on_c, 0, 64, 35
2, 323914, Note_on_c, 0, 71, 30
2, 323982, Note_on_c, 0, 64, 0
2, 324002, Note_on_c, 0, 71, 0
2, 324052, Note_on_c, 0, 63, 61
2, 324072, Control_c, 0, 64, 0
2, 324080, Note_on_c, 0, 68, 56
2, 324136, Note_on_c, 0, 63, 0
2, 324242, Control_c, 0, 64, 127
2, 324252, Note_on_c, 0, 68, 0
2, 324278, Note_on_c, 0, 71, 46
2, 324300, Note_on_c, 0, 64, 29
2, 324362, Note_on_c, 0, 71, 0
2, 324368, Note_on_c, 0, 64, 0
2, 324396, Control_c, 0, 64, 0
2, 324420, Note_on_c, 0, 61, 57
2, 324446, Note_on_c, 0, 66, 39
2, 324542, Note_on_c, 0, 61, 0
2, 324596, Control_c, 0, 64, 127
2, 324614, Note_on_c, 0, 66, 0
2, 324644, Note_on_c, 0, 71, 41
2, 324666, Note_on_c, 0, 64, 23
2, 324722, Note_on_c, 0, 71, 0
2, 324738, Note_on_c, 0, 64, 0
2, 324798, Note_on_c, 0, 68, 39
2, 324818, Note_on_c, 0, 63, 43
2, 324826, Control_c, 0, 64, 0
2, 325028, Note_on_c, 0, 71, 37
2, 325040, Control_c, 0, 64, 127
2, 325060, Note_on_c, 0, 64, 29
2, 325110, Note_on_c, 0, 63, 0
2, 325124, Note_on_c, 0, 71, 0
2, 325128, Note_on_c, 0, 64, 0
2, 325322, Note_on_c, 0, 68, 0
2, 325432, Note_on_c, 0, 64, 49
2, 325444, Note_on_c, 0, 71, 27
2, 325486, Note_on_c, 0, 64, 0
2, 325496, Note_on_c, 0, 71, 0
2, 325748, Control_c, 0, 64, 0
2, 325778, Note_on_c, 0, 47, 95
2, 325781, Note_on_c, 0, 59, 100
2, 325828, Note_on_c, 0, 54, 97
2, 325862, Note_on_c, 0, 47, 0
2, 325914, Note_on_c, 0, 54, 0
2, 325962, Control_c, 0, 64, 127
2, 325988, Note_on_c, 0, 66, 65
2, 325993, Note_on_c, 0, 59, 0
2, 325993, Note_on_c, 0, 71, 92
2, 326054, Note_on_c, 0, 71, 0
2, 326126, Note_on_c, 0, 66, 0
2, 326150, Note_on_c, 0, 59, 89
2, 326194, Control_c, 0, 64, 0
2, 326204, Note_on_c, 0, 59, 0
2, 326316, Control_c, 0, 64, 127
2, 326342, Note_on_c, 0, 66, 49
2, 326342, Note_on_c, 0, 71, 59
2, 326406, Note_on_c, 0, 71, 0
2, 326412, Note_on_c, 0, 66, 0
2, 326504, Note_on_c, 0, 59, 75
2, 326550, Note_on_c, 0, 59, 0
2, 326680, Note_on_c, 0, 71, 64
2, 326686, Note_on_c, 0, 66, 42
2, 326698, Note_on_c, 0, 59, 14
2, 326730, Control_c, 0, 64, 0
2, 326744, Note_on_c, 0, 71, 0
2, 326756, Note_on_c, 0, 66, 0
2, 326764, Note_on_c, 0, 59, 0
2, 326854, Note_on_c, 0, 59, 99
2, 326920, Note_on_c, 0, 59, 0
2, 326946, Control_c, 0, 64, 127
2, 327022, Note_on_c, 0, 59, 52
2, 327025, Note_on_c, 0, 71, 72
2, 327032, Note_on_c, 0, 66, 58
2, 327082, Note_on_c, 0, 59, 0
2, 327086, Note_on_c, 0, 71, 0
2, 327096, Note_on_c, 0, 66, 0
2, 327176, Control_c, 0, 64, 0
2, 327200, Note_on_c, 0, 61, 108
2, 327240, Note_on_c, 0, 61, 0
2, 327316, Control_c, 0, 64, 127
2, 327348, Note_on_c, 0, 61, 60
2, 327356, Note_on_c, 0, 66, 70
2, 327362, Note_on_c, 0, 71, 79
2, 327426, Note_on_c, 0, 61, 0
2, 327429, Note_on_c, 0, 66, 0
2, 327434, Note_on_c, 0, 71, 0
2, 327514, Control_c, 0, 64, 0
2, 327542, Note_on_c, 0, 64, 114
2, 327604, Note_on_c, 0, 64, 0
2, 327668, Control_c, 0, 64, 127
2, 327714, Note_on_c, 0, 64, 59
2, 327719, Note_on_c, 0, 71, 81
2, 327722, Note_on_c, 0, 66, 59
2, 327778, Note_on_c, 0, 71, 0
2, 327778, Note_on_c, 0, 64, 0
2, 327788, Note_on_c, 0, 66, 0
2, 327838, Control_c, 0, 64, 0
2, 327902, Note_on_c, 0, 63, 108
2, 328004, Note_on_c, 0, 63, 0
2, 328022, Control_c, 0, 64, 127
2, 328092, Note_on_c, 0, 63, 52
2, 328110, Note_on_c, 0, 66, 56
2, 328132, Note_on_c, 0, 71, 52
2, 328204, Note_on_c, 0, 71, 0
2, 328214, Note_on_c, 0, 63, 0
2, 328264, Note_on_c, 0, 66, 0
2, 328458, Note_on_c, 0, 63, 54
2, 328460, Note_on_c, 0, 66, 46
2, 328492, Note_on_c, 0, 71, 31
2, 328512, Note_on_c, 0, 63, 0
2, 328558, Note_on_c, 0, 66, 0
2, 328576, Note_on_c, 0, 71, 0
2, 328634, Note_on_c, 0, 62, 92
2, 328674, Note_on_c, 0, 62, 0
2, 328820, Note_on_c, 0, 71, 73
2, 328826, Note_on_c, 0, 62, 38
2, 328828, Note_on_c, 0, 66, 45
2, 328880, Note_on_c, 0, 71, 0
2, 328894, Note_on_c, 0, 66, 0
2, 328894, Note_on_c, 0, 62, 0
2, 328990, Control_c, 0, 64, 0
2, 328996, Note_on_c, 0, 61, 83
2, 328998, Note_on_c, 0, 56, 82
2, 329086, Note_on_c, 0, 61, 0
2, 329170, Note_on_c, 0, 61, 60
2, 329188, Control_c, 0, 64, 127
2, 329193, Note_on_c, 0, 66, 49
2, 329193, Note_on_c, 0, 71, 62
2, 329258, Note_on_c, 0, 71, 0
2, 329258, Note_on_c, 0, 66, 0
2, 329280, Note_on_c, 0, 61, 0
2, 329348, Note_on_c, 0, 61, 84
2, 329406, Note_on_c, 0, 61, 0
2, 329500, Note_on_c, 0, 61, 53
2, 329522, Note_on_c, 0, 71, 66
2, 329532, Note_on_c, 0, 66, 37
2, 329576, Note_on_c, 0, 61, 0
2, 329584, Note_on_c, 0, 71, 0
2, 329602, Note_on_c, 0, 66, 0
2, 329672, Note_on_c, 0, 61, 79
2, 329728, Note_on_c, 0, 61, 0
2, 329824, Note_on_c, 0, 61, 53
2, 329834, Note_on_c, 0, 71, 77
2, 329844, Note_on_c, 0, 66, 51
2, 329896, Note_on_c, 0, 71, 0
2, 329898, Note_on_c, 0, 61, 0
2, 329910, Note_on_c, 0, 66, 0
2, 329972, Control_c, 0, 64, 0
2, 330022, Note_on_c, 0, 61, 92
2, 330112, Control_c, 0, 64, 127
2, 330142, Note_on_c, 0, 61, 0
2, 330190, Note_on_c, 0, 61, 31
2, 330192, Note_on_c, 0, 66, 52
2, 330192, Note_on_c, 0, 71, 72
2, 330250, Note_on_c, 0, 61, 0
2, 330258, Note_on_c, 0, 71, 0
2, 330274, Note_on_c, 0, 66, 0
2, 330326, Control_c, 0, 64, 0
2, 330356, Note_on_c, 0, 63, 115
2, 330458, Note_on_c, 0, 63, 0
2, 330494, Control_c, 0, 64, 127
2, 330514, Note_on_c, 0, 63, 66
2, 330516, Note_on_c, 0, 66, 57
2, 330520, Note_on_c, 0, 71, 87
2, 330562, Note_on_c, 0, 63, 0
2, 330600, Note_on_c, 0, 66, 0
2, 330610, Note_on_c, 0, 71, 0
2, 330676, Note_on_c, 0, 66, 100
2, 330696, Control_c, 0, 64, 0
2, 330832, Control_c, 0, 64, 127
2, 330860, Note_on_c, 0, 71, 88
2, 330934, Note_on_c, 0, 71, 0
2, 330962, Note_on_c, 0, 66, 0
2, 331034, Control_c, 0, 64, 0
2, 331050, Note_on_c, 0, 65, 99
2, 331170, Note_on_c, 0, 56, 0
2, 331222, Note_on_c, 0, 68, 57
2, 331230, Note_on_c, 0, 71, 62
2, 331302, Note_on_c, 0, 68, 0
2, 331324, Control_c, 0, 64, 127
2, 331330, Note_on_c, 0, 71, 0
2, 331580, Note_on_c, 0, 68, 43
2, 331582, Note_on_c, 0, 71, 57
2, 331658, Note_on_c, 0, 65, 0
2, 331664, Note_on_c, 0, 68, 0
2, 331672, Note_on_c, 0, 71, 0
2, 331802, Control_c, 0, 64, 0
2, 331814, Note_on_c, 0, 64, 83
2, 331964, Note_on_c, 0, 64, 0
2, 331970, Control_c, 0, 64, 127
2, 331986, Note_on_c, 0, 68, 51
2, 331998, Note_on_c, 0, 71, 59
2, 332056, Note_on_c, 0, 68, 0
2, 332059, Note_on_c, 0, 71, 0
2, 332140, Control_c, 0, 64, 0
2, 332148, Note_on_c, 0, 63, 87
2, 332158, Note_on_c, 0, 56, 70
2, 332268, Note_on_c, 0, 63, 0
2, 332294, Control_c, 0, 64, 127
2, 332348, Note_on_c, 0, 68, 43
2, 332360, Note_on_c, 0, 71, 49
2, 332368, Note_on_c, 0, 63, 57
2, 332430, Note_on_c, 0, 71, 0
2, 332440, Note_on_c, 0, 63, 0
2, 332446, Note_on_c, 0, 68, 0
2, 332710, Note_on_c, 0, 63, 45
2, 332715, Note_on_c, 0, 71, 57
2, 332722, Note_on_c, 0, 68, 36
2, 332780, Note_on_c, 0, 63, 0
2, 332794, Note_on_c, 0, 71, 0
2, 332806, Note_on_c, 0, 68, 0
2, 332862, Control_c, 0, 64, 0
2, 332886, Note_on_c, 0, 61, 92
2, 333030, Control_c, 0, 64, 127
2, 333035, Note_on_c, 0, 63, 73
2, 333038, Note_on_c, 0, 68, 58
2, 333048, Note_on_c, 0, 71, 68
2, 333051, Note_on_c, 0, 61, 0
2, 333090, Note_on_c, 0, 63, 0
2, 333110, Note_on_c, 0, 71, 0
2, 333116, Note_on_c, 0, 68, 0
2, 333214, Control_c, 0, 64, 0
2, 333228, Note_on_c, 0, 65, 102
2, 333306, Note_on_c, 0, 65, 0
2, 333338, Control_c, 0, 64, 127
2, 333398, Note_on_c, 0, 65, 70
2, 333404, Note_on_c, 0, 68, 66
2, 333408, Note_on_c, 0, 71, 80
2, 333520, Note_on_c, 0, 71, 0
2, 333523, Note_on_c, 0, 65, 0
2, 333534, Note_on_c, 0, 68, 0
2, 333572, Note_on_c, 0, 61, 104
2, 333598, Control_c, 0, 64, 0
2, 333716, Note_on_c, 0, 65, 81
2, 333718, Note_on_c, 0, 68, 64
2, 333721, Note_on_c, 0, 71, 82
2, 333738, Note_on_c, 0, 61, 0
2, 333752, Control_c, 0, 64, 127
2, 333778, Note_on_c, 0, 65, 0
2, 333792, Note_on_c, 0, 71, 0
2, 333816, Note_on_c, 0, 68, 0
2, 333892, Control_c, 0, 64, 0
2, 333904, Note_on_c, 0, 65, 104
2, 333966, Note_on_c, 0, 65, 0
2, 334002, Note_on_c, 0, 56, 0
2, 334014, Control_c, 0, 64, 127
2, 334058, Note_on_c, 0, 65, 73
2, 334064, Note_on_c, 0, 68, 65
2, 334066, Note_on_c, 0, 71, 89
2, 334116, Note_on_c, 0, 65, 0
2, 334122, Note_on_c, 0, 71, 0
2, 334136, Note_on_c, 0, 68, 0
2, 334230, Control_c, 0, 64, 0
2, 334242, Note_on_c, 0, 63, 102
2, 334245, Note_on_c, 0, 56, 80
2, 334444, Control_c, 0, 64, 127
2, 334464, Note_on_c, 0, 71, 68
2, 334464, Note_on_c, 0, 68, 49
2, 334548, Note_on_c, 0, 68, 0
2, 334560, Note_on_c, 0, 71, 0
2, 334598, Note_on_c, 0, 63, 0
2, 334814, Note_on_c, 0, 63, 64
2, 334824, Note_on_c, 0, 68, 46
2, 334834, Note_on_c, 0, 71, 61
2, 334882, Note_on_c, 0, 63, 0
2, 334900, Note_on_c, 0, 68, 0
2, 334904, Note_on_c, 0, 71, 0
2, 334982, Control_c, 0, 64, 0
2, 334998, Note_on_c, 0, 61, 96
2, 335162, Note_on_c, 0, 63, 74
2, 335166, Control_c, 0, 64, 127
2, 335170, Note_on_c, 0, 68, 56
2, 335172, Note_on_c, 0, 71, 80
2, 335186, Note_on_c, 0, 61, 0
2, 335214, Note_on_c, 0, 63, 0
2, 335236, Note_on_c, 0, 71, 0
2, 335239, Note_on_c, 0, 68, 0
2, 335320, Control_c, 0, 64, 0
2, 335344, Note_on_c, 0, 65, 107
2, 335450, Note_on_c, 0, 65, 0
2, 335458, Control_c, 0, 64, 127
2, 335516, Note_on_c, 0, 71, 90
2, 335519, Note_on_c, 0, 68, 68
2, 335524, Note_on_c, 0, 65, 84
2, 335588, Note_on_c, 0, 65, 0
2, 335620, Note_on_c, 0, 68, 0
2, 335640, Note_on_c, 0, 71, 0
2, 335670, Note_on_c, 0, 61, 108
2, 335720, Control_c, 0, 64, 0
2, 335828, Note_on_c, 0, 68, 80
2, 335830, Note_on_c, 0, 71, 99
2, 335834, Note_on_c, 0, 65, 90
2, 335858, Control_c, 0, 64, 127
2, 335880, Note_on_c, 0, 61, 0
2, 335884, Note_on_c, 0, 65, 0
2, 335888, Note_on_c, 0, 71, 0
2, 335906, Note_on_c, 0, 56, 0
2, 335914, Note_on_c, 0, 68, 0
2, 335994, Note_on_c, 0, 65, 110
2, 336070, Note_on_c, 0, 65, 0
2, 336160, Note_on_c, 0, 68, 81
2, 336168, Note_on_c, 0, 65, 61
2, 336168, Note_on_c, 0, 71, 92
2, 336217, Note_on_c, 0, 71, 0
2, 336224, Note_on_c, 0, 65, 0
2, 336228, Note_on_c, 0, 68, 0
2, 336318, Control_c, 0, 64, 0
2, 336360, Note_on_c, 0, 68, 114
2, 336502, Control_c, 0, 64, 127
2, 336558, Note_on_c, 0, 71, 79
2, 336618, Note_on_c, 0, 71, 0
2, 336652, Note_on_c, 0, 68, 0
2, 336924, Note_on_c, 0, 68, 62
2, 336942, Note_on_c, 0, 71, 61
2, 336996, Note_on_c, 0, 68, 0
2, 336999, Note_on_c, 0, 71, 0
2, 337104, Note_on_c, 0, 67, 102
2, 337228, Note_on_c, 0, 67, 0
2, 337276, Note_on_c, 0, 68, 68
2, 337292, Note_on_c, 0, 71, 73
2, 337348, Note_on_c, 0, 71, 0
2, 337364, Note_on_c, 0, 68, 0
2, 337454, Note_on_c, 0, 66, 95
2, 337518, Control_c, 0, 64, 0
2, 337618, Note_on_c, 0, 68, 67
2, 337632, Note_on_c, 0, 71, 68
2, 337692, Note_on_c, 0, 71, 0
2, 337716, Control_c, 0, 64, 127
2, 337738, Note_on_c, 0, 68, 0
2, 337976, Note_on_c, 0, 66, 0
2, 338002, Note_on_c, 0, 68, 50
2, 338020, Note_on_c, 0, 71, 60
2, 338080, Note_on_c, 0, 71, 0
2, 338083, Note_on_c, 0, 68, 0
2, 338194, Note_on_c, 0, 65, 82
2, 338302, Note_on_c, 0, 65, 0
2, 338346, Note_on_c, 0, 68, 59
2, 338360, Note_on_c, 0, 71, 68
2, 338416, Note_on_c, 0, 71, 0
2, 338426, Note_on_c, 0, 68, 0
2, 338500, Control_c, 0, 64, 0
2, 338512, Note_on_c, 0, 68, 97
2, 338686, Control_c, 0, 64, 127
2, 338702, Note_on_c, 0, 71, 61
2, 338760, Note_on_c, 0, 71, 0
2, 338784, Note_on_c, 0, 68, 0
2, 338866, Note_on_c, 0, 75, 82
2, 338962, Note_on_c, 0, 75, 0
2, 339034, Note_on_c, 0, 68, 53
2, 339048, Note_on_c, 0, 71, 62
2, 339106, Note_on_c, 0, 68, 0
2, 339109, Note_on_c, 0, 71, 0
2, 339214, Note_on_c, 0, 67, 72
2, 339358, Note_on_c, 0, 68, 53
2, 339372, Note_on_c, 0, 67, 0
2, 339380, Note_on_c, 0, 71, 53
2, 339440, Note_on_c, 0, 68, 0
2, 339446, Note_on_c, 0, 71, 0
2, 339544, Note_on_c, 0, 66, 73
2, 339546, Control_c, 0, 64, 0
2, 339694, Note_on_c, 0, 68, 49
2, 339698, Note_on_c, 0, 66, 0
2, 339706, Note_on_c, 0, 71, 58
2, 339714, Control_c, 0, 64, 127
2, 339768, Note_on_c, 0, 68, 0
2, 339776, Note_on_c, 0, 71, 0
2, 339862, Note_on_c, 0, 80, 83
2, 339920, Note_on_c, 0, 80, 0
2, 340036, Note_on_c, 0, 68, 52
2, 340066, Note_on_c, 0, 71, 62
2, 340132, Note_on_c, 0, 71, 0
2, 340148, Note_on_c, 0, 68, 0
2, 340252, Note_on_c, 0, 65, 52
2, 340312, Note_on_c, 0, 65, 0
2, 340392, Note_on_c, 0, 68, 45
2, 340428, Note_on_c, 0, 71, 41
2, 340468, Note_on_c, 0, 68, 0
2, 340504, Note_on_c, 0, 71, 0
2, 340606, Control_c, 0, 64, 0
2, 340612, Note_on_c, 0, 68, 60
2, 340820, Control_c, 0, 64, 127
2, 340825, Note_on_c, 0, 71, 42
2, 340848, Note_on_c, 0, 68, 0
2, 340904, Note_on_c, 0, 71, 0
2, 341012, Note_on_c, 0, 74, 66
2, 341130, Note_on_c, 0, 74, 0
2, 341220, Note_on_c, 0, 71, 36
2, 341300, Note_on_c, 0, 71, 0
2, 341386, Note_on_c, 0, 67, 42
2, 341474, Note_on_c, 0, 67, 0
2, 341532, Note_on_c, 0, 71, 51
2, 341604, Note_on_c, 0, 71, 0
2, 341740, Note_on_c, 0, 66, 46
2, 341820, Control_c, 0, 64, 0
2, 341940, Note_on_c, 0, 71, 57
2, 342020, Note_on_c, 0, 71, 0
2, 342020, Control_c, 0, 64, 127
2, 342150, Note_on_c, 0, 75, 49
2, 342280, Note_on_c, 0, 75, 0
2, 342280, Note_on_c, 0, 66, 0
2, 342402, Note_on_c, 0, 71, 42
2, 342476, Note_on_c, 0, 71, 0
2, 342640, Note_on_c, 0, 65, 41
2, 342746, Note_on_c, 0, 65, 0
2, 342932, Note_on_c, 0, 71, 57
2, 342990, Note_on_c, 0, 71, 0
2, 343284, Note_on_c, 0, 59, 52
2, 343310, Control_c, 0, 64, 0
2, 343310, Note_on_c, 0, 40, 41
2, 343312, Note_on_c, 0, 52, 37
2, 343316, Note_on_c, 0, 64, 44
2, 343464, Note_on_c, 0, 59, 0
2, 343484, Note_on_c, 0, 40, 0
2, 343510, Control_c, 0, 64, 127
2, 343514, Note_on_c, 0, 52, 0
2, 343580, Note_on_c, 0, 64, 0
2, 343594, Note_on_c, 0, 71, 76
2, 343650, Note_on_c, 0, 71, 0
2, 343928, Note_on_c, 0, 80, 98
2, 343972, Note_on_c, 0, 63, 45
2, 343974, Note_on_c, 0, 75, 42
2, 343974, Note_on_c, 0, 71, 50
2, 343984, Note_on_c, 0, 64, 41
2, 344040, Note_on_c, 0, 75, 0
2, 344062, Note_on_c, 0, 64, 0
2, 344074, Note_on_c, 0, 71, 0
2, 344242, Note_on_c, 0, 75, 45
2, 344248, Note_on_c, 0, 68, 30
2, 344252, Note_on_c, 0, 71, 77
2, 344308, Note_on_c, 0, 75, 0
2, 344318, Note_on_c, 0, 71, 0
2, 344320, Note_on_c, 0, 68, 0
2, 344362, Note_on_c, 0, 80, 0
2, 344476, Note_on_c, 0, 85, 111
2, 344496, Note_on_c, 0, 80, 67
2, 344546, Note_on_c, 0, 80, 0
2, 344693, Note_on_c, 0, 71, 58
2, 344696, Note_on_c, 0, 63, 0
2, 344696, Note_on_c, 0, 75, 61
2, 344700, Note_on_c, 0, 64, 37
2, 344726, Note_on_c, 0, 85, 0
2, 344748, Note_on_c, 0, 75, 0
2, 344753, Note_on_c, 0, 71, 0
2, 344762, Note_on_c, 0, 64, 0
2, 344904, Note_on_c, 0, 78, 107
2, 344932, Note_on_c, 0, 61, 50
2, 344936, Note_on_c, 0, 73, 47
2, 344940, Note_on_c, 0, 69, 42
2, 344946, Note_on_c, 0, 64, 19
2, 344994, Note_on_c, 0, 73, 0
2, 345014, Note_on_c, 0, 64, 0
2, 345020, Note_on_c, 0, 69, 0
2, 345148, Note_on_c, 0, 73, 53
2, 345158, Note_on_c, 0, 69, 52
2, 345165, Note_on_c, 0, 66, 43
2, 345168, Control_c, 0, 64, 0
2, 345172, Note_on_c, 0, 64, 49
2, 345258, Note_on_c, 0, 69, 0
2, 345334, Note_on_c, 0, 73, 0
2, 345346, Note_on_c, 0, 64, 0
2, 345354, Control_c, 0, 64, 127
2, 345408, Note_on_c, 0, 66, 0
2, 345560, Note_on_c, 0, 73, 50
2, 345562, Note_on_c, 0, 69, 49
2, 345566, Note_on_c, 0, 64, 42
2, 345567, Note_on_c, 0, 66, 44
2, 345626, Note_on_c, 0, 64, 0
2, 345633, Note_on_c, 0, 66, 0
2, 345634, Note_on_c, 0, 73, 0
2, 345638, Note_on_c, 0, 69, 0
2, 345668, Note_on_c, 0, 78, 0
2, 345812, Note_on_c, 0, 80, 85
2, 345830, Control_c, 0, 64, 0
2, 345833, Note_on_c, 0, 61, 0
2, 345844, Note_on_c, 0, 75, 45
2, 345848, Note_on_c, 0, 63, 47
2, 345849, Note_on_c, 0, 64, 43
2, 345851, Note_on_c, 0, 71, 61
2, 345902, Note_on_c, 0, 75, 0
2, 345998, Control_c, 0, 64, 127
2, 346023, Note_on_c, 0, 71, 0
2, 346027, Note_on_c, 0, 64, 0
2, 346028, Note_on_c, 0, 68, 56
2, 346030, Note_on_c, 0, 75, 45
2, 346066, Note_on_c, 0, 80, 0
2, 346088, Note_on_c, 0, 75, 0
2, 346101, Note_on_c, 0, 63, 0
2, 346106, Note_on_c, 0, 68, 0
2, 346202, Note_on_c, 0, 78, 104
2, 346202, Note_on_c, 0, 69, 57
2, 346214, Control_c, 0, 64, 0
2, 346218, Note_on_c, 0, 61, 57
2, 346220, Note_on_c, 0, 73, 74
2, 346226, Note_on_c, 0, 64, 50
2, 346272, Note_on_c, 0, 73, 0
2, 346380, Note_on_c, 0, 64, 0
2, 346383, Note_on_c, 0, 69, 0
2, 346394, Note_on_c, 0, 66, 69
2, 346400, Control_c, 0, 64, 127
2, 346410, Note_on_c, 0, 73, 56
2, 346452, Note_on_c, 0, 66, 0
2, 346466, Note_on_c, 0, 73, 0
2, 346472, Note_on_c, 0, 78, 0
2, 346564, Note_on_c, 0, 61, 0
2, 346566, Note_on_c, 0, 63, 70
2, 346568, Control_c, 0, 64, 0
2, 346570, Note_on_c, 0, 80, 106
2, 346578, Note_on_c, 0, 75, 83
2, 346582, Note_on_c, 0, 71, 67
2, 346586, Note_on_c, 0, 64, 66
2, 346624, Note_on_c, 0, 75, 0
2, 346650, Note_on_c, 0, 64, 0
2, 346662, Note_on_c, 0, 71, 0
2, 346754, Note_on_c, 0, 68, 76
2, 346760, Note_on_c, 0, 71, 64
2, 346766, Control_c, 0, 64, 127
2, 346782, Note_on_c, 0, 64, 56
2, 346800, Note_on_c, 0, 68, 0
2, 346810, Note_on_c, 0, 75, 30
2, 346844, Note_on_c, 0, 80, 0
2, 346872, Note_on_c, 0, 75, 0
2, 346936, Control_c, 0, 64, 0
2, 346960, Note_on_c, 0, 85, 113
2, 346972, Note_on_c, 0, 71, 0
2, 346982, Note_on_c, 0, 64, 0
2, 346990, Note_on_c, 0, 80, 72
2, 347036, Note_on_c, 0, 80, 0
2, 347090, Control_c, 0, 64, 127
2, 347152, Note_on_c, 0, 75, 75
2, 347152, Note_on_c, 0, 80, 45
2, 347154, Note_on_c, 0, 71, 68
2, 347156, Note_on_c, 0, 64, 56
2, 347186, Note_on_c, 0, 85, 0
2, 347206, Note_on_c, 0, 80, 0
2, 347212, Note_on_c, 0, 71, 0
2, 347214, Note_on_c, 0, 75, 0
2, 347216, Note_on_c, 0, 64, 0
2, 347382, Note_on_c, 0, 78, 108
2, 347408, Note_on_c, 0, 63, 0
2, 347413, Note_on_c, 0, 69, 68
2, 347414, Note_on_c, 0, 73, 49
2, 347416, Note_on_c, 0, 61, 64
2, 347424, Note_on_c, 0, 64, 38
2, 347472, Note_on_c, 0, 73, 0
2, 347486, Note_on_c, 0, 64, 0
2, 347493, Note_on_c, 0, 69, 0
2, 347628, Control_c, 0, 64, 0
2, 347634, Note_on_c, 0, 69, 65
2, 347635, Note_on_c, 0, 73, 65
2, 347636, Note_on_c, 0, 66, 50
2, 347645, Note_on_c, 0, 64, 68
2, 347808, Note_on_c, 0, 69, 0
2, 347812, Note_on_c, 0, 64, 0
2, 347826, Note_on_c, 0, 73, 0
2, 347828, Control_c, 0, 64, 127
2, 347864, Note_on_c, 0, 66, 0
2, 348004, Note_on_c, 0, 73, 54
2, 348008, Note_on_c, 0, 66, 43
2, 348010, Note_on_c, 0, 69, 45
2, 348014, Note_on_c, 0, 64, 52
2, 348026, Control_c, 0, 64, 0
2, 348110, Note_on_c, 0, 64, 0
2, 348132, Note_on_c, 0, 69, 0
2, 348196, Control_c, 0, 64, 127
2, 348252, Note_on_c, 0, 66, 0
2, 348264, Note_on_c, 0, 73, 0
2, 348427, Note_on_c, 0, 66, 51
2, 348427, Note_on_c, 0, 69, 52
2, 348428, Note_on_c, 0, 73, 42
2, 348434, Note_on_c, 0, 64, 41
2, 348483, Note_on_c, 0, 66, 0
2, 348494, Note_on_c, 0, 73, 0
2, 348494, Note_on_c, 0, 64, 0
2, 348497, Note_on_c, 0, 78, 0
2, 348497, Note_on_c, 0, 69, 0
2, 348514, Note_on_c, 0, 61, 0
2, 348594, Note_on_c, 0, 80, 103
2, 348606, Note_on_c, 0, 75, 72
2, 348612, Note_on_c, 0, 63, 61
2, 348614, Note_on_c, 0, 71, 65
2, 348622, Note_on_c, 0, 64, 39
2, 348652, Note_on_c, 0, 75, 0
2, 348782, Note_on_c, 0, 64, 0
2, 348784, Note_on_c, 0, 68, 69
2, 348800, Note_on_c, 0, 71, 0
2, 348810, Note_on_c, 0, 75, 54
2, 348844, Note_on_c, 0, 80, 0
2, 348864, Note_on_c, 0, 68, 0
2, 348866, Note_on_c, 0, 75, 0
2, 348876, Note_on_c, 0, 63, 0
2, 348962, Note_on_c, 0, 78, 103
2, 348965, Note_on_c, 0, 69, 53
2, 348982, Note_on_c, 0, 73, 74
2, 348990, Note_on_c, 0, 61, 46
2, 348990, Note_on_c, 0, 64, 61
2, 348996, Control_c, 0, 64, 0
2, 349034, Note_on_c, 0, 73, 0
2, 349092, Note_on_c, 0, 64, 0
2, 349158, Note_on_c, 0, 69, 0
2, 349158, Note_on_c, 0, 73, 66
2, 349161, Note_on_c, 0, 66, 67
2, 349164, Control_c, 0, 64, 127
2, 349214, Note_on_c, 0, 66, 0
2, 349230, Note_on_c, 0, 78, 0
2, 349266, Note_on_c, 0, 73, 0
2, 349326, Note_on_c, 0, 61, 0
2, 349348, Control_c, 0, 64, 0
2, 349368, Note_on_c, 0, 71, 60
2, 349370, Note_on_c, 0, 80, 77
2, 349372, Note_on_c, 0, 75, 58
2, 349372, Note_on_c, 0, 63, 34
2, 349382, Note_on_c, 0, 64, 54
2, 349424, Note_on_c, 0, 75, 0
2, 349518, Control_c, 0, 64, 127
2, 349526, Note_on_c, 0, 71, 0
2, 349556, Note_on_c, 0, 64, 0
2, 349598, Note_on_c, 0, 63, 0
2, 349604, Note_on_c, 0, 80, 0
2, 349612, Note_on_c, 0, 75, 58
2, 349616, Note_on_c, 0, 68, 49
2, 349664, Note_on_c, 0, 75, 0
2, 349678, Note_on_c, 0, 68, 0
2, 349908, Note_on_c, 0, 73, 84
2, 349918, Note_on_c, 0, 64, 64
2, 349920, Note_on_c, 0, 59, 47
2, 349923, Note_on_c, 0, 68, 52
2, 349926, Note_on_c, 0, 61, 51
2, 349996, Note_on_c, 0, 61, 0
2, 350188, Note_on_c, 0, 61, 57
2, 350194, Control_c, 0, 64, 0
2, 350346, Control_c, 0, 64, 127
2, 350394, Note_on_c, 0, 61, 0
2, 350554, Note_on_c, 0, 75, 80
2, 350576, Note_on_c, 0, 61, 57
2, 350590, Note_on_c, 0, 73, 0
2, 350644, Note_on_c, 0, 61, 0
2, 350764, Note_on_c, 0, 73, 95
2, 350810, Note_on_c, 0, 75, 0
2, 350830, Note_on_c, 0, 64, 0
2, 350928, Note_on_c, 0, 68, 0
2, 350956, Note_on_c, 0, 61, 66
2, 351016, Note_on_c, 0, 61, 0
2, 351046, Note_on_c, 0, 59, 0
2, 351160, Note_on_c, 0, 75, 92
2, 351162, Note_on_c, 0, 58, 64
2, 351184, Note_on_c, 0, 67, 62
2, 351196, Note_on_c, 0, 64, 49
2, 351240, Note_on_c, 0, 73, 0
2, 351384, Note_on_c, 0, 61, 65
2, 351454, Control_c, 0, 64, 0
2, 351636, Note_on_c, 0, 61, 0
2, 351652, Control_c, 0, 64, 127
2, 351760, Note_on_c, 0, 73, 74
2, 351784, Note_on_c, 0, 61, 52
2, 351800, Note_on_c, 0, 75, 0
2, 351878, Note_on_c, 0, 61, 0
2, 351924, Note_on_c, 0, 64, 0
2, 351946, Note_on_c, 0, 75, 99
2, 351984, Note_on_c, 0, 73, 0
2, 352034, Note_on_c, 0, 67, 0
2, 352118, Note_on_c, 0, 61, 58
2, 352184, Note_on_c, 0, 61, 0
2, 352346, Note_on_c, 0, 61, 65
2, 352348, Note_on_c, 0, 73, 92
2, 352350, Note_on_c, 0, 71, 89
2, 352354, Note_on_c, 0, 58, 0
2, 352362, Note_on_c, 0, 64, 66
2, 352370, Note_on_c, 0, 56, 59
2, 352404, Note_on_c, 0, 75, 0
2, 352406, Control_c, 0, 64, 0
2, 352462, Note_on_c, 0, 61, 0
2, 352602, Note_on_c, 0, 61, 65
2, 352622, Control_c, 0, 64, 127
2, 352718, Note_on_c, 0, 61, 0
2, 352974, Note_on_c, 0, 75, 81
2, 353006, Note_on_c, 0, 61, 47
2, 353014, Note_on_c, 0, 73, 0
2, 353090, Note_on_c, 0, 61, 0
2, 353198, Note_on_c, 0, 73, 83
2, 353210, Note_on_c, 0, 64, 0
2, 353238, Note_on_c, 0, 75, 0
2, 353364, Note_on_c, 0, 61, 56
2, 353548, Note_on_c, 0, 56, 0
2, 353548, Control_c, 0, 64, 0
2, 353572, Note_on_c, 0, 71, 0
2, 353572, Note_on_c, 0, 75, 70
2, 353596, Note_on_c, 0, 70, 42
2, 353596, Note_on_c, 0, 55, 50
2, 353599, Note_on_c, 0, 64, 49
2, 353640, Note_on_c, 0, 73, 0
2, 353704, Note_on_c, 0, 61, 0
2, 353820, Control_c, 0, 64, 127
2, 353836, Note_on_c, 0, 61, 50
2, 353922, Note_on_c, 0, 61, 0
2, 354180, Note_on_c, 0, 73, 59
2, 354196, Note_on_c, 0, 75, 0
2, 354224, Note_on_c, 0, 61, 37
2, 354236, Note_on_c, 0, 55, 0
2, 354248, Note_on_c, 0, 64, 0
2, 354300, Note_on_c, 0, 61, 0
2, 354346, Note_on_c, 0, 70, 0
2, 354412, Note_on_c, 0, 75, 65
2, 354504, Note_on_c, 0, 73, 0
2, 354507, Note_on_c, 0, 75, 0
2, 354602, Note_on_c, 0, 61, 65
2, 354832, Note_on_c, 0, 54, 70
2, 354880, Control_c, 0, 64, 0
2, 354998, Note_on_c, 0, 68, 42
2, 355010, Note_on_c, 0, 64, 36
2, 355014, Note_on_c, 0, 59, 46
2, 355092, Note_on_c, 0, 64, 0
2, 355096, Control_c, 0, 64, 127
2, 355120, Note_on_c, 0, 59, 0
2, 355123, Note_on_c, 0, 61, 0
2, 355156, Control_c, 0, 64, 0
2, 355160, Note_on_c, 0, 68, 0
2, 355168, Note_on_c, 0, 63, 88
2, 355246, Note_on_c, 0, 63, 0
2, 355354, Note_on_c, 0, 61, 93
2, 355354, Note_on_c, 0, 68, 58
2, 355362, Note_on_c, 0, 59, 61
2, 355366, Note_on_c, 0, 64, 59
2, 355422, Note_on_c, 0, 59, 0
2, 355426, Note_on_c, 0, 64, 0
2, 355428, Note_on_c, 0, 68, 0
2, 355458, Note_on_c, 0, 61, 0
2, 355544, Note_on_c, 0, 63, 98
2, 355720, Note_on_c, 0, 68, 64
2, 355732, Note_on_c, 0, 64, 65
2, 355736, Note_on_c, 0, 59, 58
2, 355754, Note_on_c, 0, 63, 0
2, 355754, Control_c, 0, 64, 127
2, 355788, Note_on_c, 0, 64, 0
2, 355802, Note_on_c, 0, 68, 0
2, 355804, Note_on_c, 0, 59, 0
2, 355914, Note_on_c, 0, 61, 87
2, 355924, Control_c, 0, 64, 0
2, 356096, Note_on_c, 0, 61, 0
2, 356116, Note_on_c, 0, 59, 54
2, 356116, Note_on_c, 0, 67, 51
2, 356119, Note_on_c, 0, 64, 56
2, 356140, Control_c, 0, 64, 127
2, 356182, Note_on_c, 0, 64, 0
2, 356184, Note_on_c, 0, 59, 0
2, 356192, Note_on_c, 0, 67, 0
2, 356232, Control_c, 0, 64, 0
2, 356268, Note_on_c, 0, 63, 79
2, 356336, Note_on_c, 0, 63, 0
2, 356458, Note_on_c, 0, 67, 52
2, 356461, Note_on_c, 0, 64, 44
2, 356461, Note_on_c, 0, 59, 45
2, 356461, Note_on_c, 0, 61, 57
2, 356522, Note_on_c, 0, 61, 0
2, 356524, Note_on_c, 0, 64, 0
2, 356526, Note_on_c, 0, 59, 0
2, 356526, Note_on_c, 0, 67, 0
2, 356644, Note_on_c, 0, 63, 66
2, 356786, Note_on_c, 0, 63, 0
2, 356812, Note_on_c, 0, 54, 0
2, 356816, Control_c, 0, 64, 127
2, 356820, Note_on_c, 0, 67, 50
2, 356828, Note_on_c, 0, 64, 41
2, 356834, Note_on_c, 0, 59, 34
2, 356896, Note_on_c, 0, 64, 0
2, 356899, Note_on_c, 0, 67, 0
2, 356908, Note_on_c, 0, 59, 0
2, 356980, Note_on_c, 0, 61, 57
2, 356992, Note_on_c, 0, 54, 57
2, 357000, Control_c, 0, 64, 0
2, 357154, Note_on_c, 0, 66, 49
2, 357164, Note_on_c, 0, 59, 49
2, 357166, Note_on_c, 0, 64, 44
2, 357218, Note_on_c, 0, 61, 0
2, 357230, Control_c, 0, 64, 127
2, 357236, Note_on_c, 0, 64, 0
2, 357244, Note_on_c, 0, 59, 0
2, 357268, Note_on_c, 0, 66, 0
2, 357314, Note_on_c, 0, 63, 65
2, 357338, Control_c, 0, 64, 0
2, 357388, Note_on_c, 0, 63, 0
2, 357498, Note_on_c, 0, 66, 41
2, 357506, Note_on_c, 0, 59, 35
2, 357508, Note_on_c, 0, 61, 62
2, 357512, Note_on_c, 0, 64, 50
2, 357570, Note_on_c, 0, 61, 0
2, 357578, Note_on_c, 0, 66, 0
2, 357578, Note_on_c, 0, 64, 0
2, 357580, Note_on_c, 0, 59, 0
2, 357696, Note_on_c, 0, 63, 57
2, 357856, Note_on_c, 0, 66, 34
2, 357864, Note_on_c, 0, 64, 37
2, 357864, Note_on_c, 0, 59, 34
2, 357894, Note_on_c, 0, 63, 0
2, 357906, Control_c, 0, 64, 127
2, 357936, Note_on_c, 0, 64, 0
2, 357942, Note_on_c, 0, 59, 0
2, 357986, Note_on_c, 0, 66, 0
2, 358044, Control_c, 0, 64, 0
2, 358066, Note_on_c, 0, 61, 50
2, 358206, Note_on_c, 0, 61, 0
2, 358214, Control_c, 0, 64, 127
2, 358278, Note_on_c, 0, 54, 0
2, 358288, Note_on_c, 0, 58, 30
2, 358298, Note_on_c, 0, 66, 31
2, 358308, Note_on_c, 0, 64, 37
2, 358376, Note_on_c, 0, 64, 0
2, 358396, Note_on_c, 0, 58, 0
2, 358414, Note_on_c, 0, 66, 0
2, 358490, Note_on_c, 0, 51, 45
2, 358660, Control_c, 0, 64, 0
2, 358732, Note_on_c, 0, 58, 21
2, 358734, Note_on_c, 0, 66, 22
2, 358740, Note_on_c, 0, 64, 42
2, 358816, Note_on_c, 0, 51, 0
2, 358832, Note_on_c, 0, 66, 0
2, 358844, Control_c, 0, 64, 127
2, 358856, Note_on_c, 0, 58, 0
2, 358864, Note_on_c, 0, 64, 0
2, 358980, Note_on_c, 0, 49, 51
2, 359073, Note_on_c, 0, 49, 0
2, 359208, Note_on_c, 0, 58, 22
2, 359218, Note_on_c, 0, 66, 18
2, 359308, Note_on_c, 0, 58, 0
2, 359342, Note_on_c, 0, 66, 0
2, 359442, Control_c, 0, 64, 0
2, 359460, Note_on_c, 0, 47, 42
2, 359512, Note_on_c, 0, 54, 47
2, 359528, Note_on_c, 0, 59, 39
2, 359616, Note_on_c, 0, 54, 0
2, 359620, Note_on_c, 0, 47, 0
2, 359642, Control_c, 0, 64, 127
2, 359748, Note_on_c, 0, 59, 0
2, 359776, Note_on_c, 0, 71, 56
2, 359788, Note_on_c, 0, 66, 36
2, 359868, Note_on_c, 0, 66, 0
2, 359874, Note_on_c, 0, 71, 0
2, 360030, Note_on_c, 0, 59, 57
2, 360096, Note_on_c, 0, 59, 0
2, 360236, Note_on_c, 0, 71, 64
2, 360236, Note_on_c, 0, 66, 46
2, 360242, Note_on_c, 0, 59, 37
2, 360306, Note_on_c, 0, 71, 0
2, 360308, Note_on_c, 0, 66, 0
2, 360310, Note_on_c, 0, 59, 0
2, 360426, Note_on_c, 0, 59, 46
2, 360488, Note_on_c, 0, 59, 0
2, 360610, Note_on_c, 0, 59, 39
2, 360624, Note_on_c, 0, 71, 60
2, 360642, Note_on_c, 0, 66, 30
2, 360676, Note_on_c, 0, 59, 0
2, 360694, Note_on_c, 0, 71, 0
2, 360720, Note_on_c, 0, 66, 0
2, 360804, Note_on_c, 0, 59, 53
2, 360870, Note_on_c, 0, 59, 0
2, 361000, Note_on_c, 0, 59, 45
2, 361003, Note_on_c, 0, 71, 69
2, 361022, Note_on_c, 0, 66, 33
2, 361066, Note_on_c, 0, 71, 0
2, 361066, Note_on_c, 0, 59, 0
2, 361100, Note_on_c, 0, 66, 0
2, 361194, Note_on_c, 0, 59, 57
2, 361252, Note_on_c, 0, 59, 0
2, 361376, Note_on_c, 0, 59, 43
2, 361384, Note_on_c, 0, 71, 69
2, 361400, Note_on_c, 0, 66, 36
2, 361442, Note_on_c, 0, 59, 0
2, 361448, Note_on_c, 0, 71, 0
2, 361472, Note_on_c, 0, 66, 0
2, 361570, Note_on_c, 0, 59, 60
2, 361628, Note_on_c, 0, 59, 0
2, 361794, Note_on_c, 0, 59, 61
2, 361800, Note_on_c, 0, 71, 69
2, 361824, Note_on_c, 0, 66, 41
2, 361858, Note_on_c, 0, 59, 0
2, 361896, Note_on_c, 0, 71, 0
2, 361902, Note_on_c, 0, 66, 0
2, 362086, Note_on_c, 0, 61, 75
2, 362089, Note_on_c, 0, 59, 70
2, 362208, Control_c, 0, 64, 0
2, 362316, Note_on_c, 0, 71, 66
2, 362334, Note_on_c, 0, 66, 43
2, 362428, Note_on_c, 0, 71, 0
2, 362440, Control_c, 0, 64, 127
2, 362478, Note_on_c, 0, 66, 0
2, 362676, Note_on_c, 0, 71, 72
2, 362684, Note_on_c, 0, 62, 81
2, 362686, Note_on_c, 0, 66, 45
2, 362704, Note_on_c, 0, 61, 0
2, 362746, Note_on_c, 0, 71, 0
2, 362772, Note_on_c, 0, 66, 0
2, 362862, Note_on_c, 0, 62, 0
2, 362874, Note_on_c, 0, 64, 105
2, 362962, Control_c, 0, 64, 0
2, 363052, Note_on_c, 0, 71, 75
2, 363064, Note_on_c, 0, 66, 45
2, 363122, Note_on_c, 0, 71, 0
2, 363130, Control_c, 0, 64, 127
2, 363158, Note_on_c, 0, 66, 0
2, 363220, Note_on_c, 0, 64, 0
2, 363234, Note_on_c, 0, 61, 99
2, 363346, Control_c, 0, 64, 0
2, 363434, Note_on_c, 0, 71, 76
2, 363442, Note_on_c, 0, 66, 47
2, 363536, Note_on_c, 0, 71, 0
2, 363542, Note_on_c, 0, 66, 0
2, 363546, Control_c, 0, 64, 127
2, 363608, Note_on_c, 0, 62, 95
2, 363662, Note_on_c, 0, 61, 0
2, 363684, Control_c, 0, 64, 0
2, 363794, Note_on_c, 0, 71, 77
2, 363808, Note_on_c, 0, 66, 46
2, 363884, Control_c, 0, 64, 127
2, 363892, Note_on_c, 0, 71, 0
2, 363920, Note_on_c, 0, 66, 0
2, 363982, Note_on_c, 0, 64, 102
2, 363992, Control_c, 0, 64, 0
2, 364000, Note_on_c, 0, 62, 0
2, 364150, Note_on_c, 0, 59, 0
2, 364166, Note_on_c, 0, 66, 50
2, 364169, Note_on_c, 0, 71, 67
2, 364176, Control_c, 0, 64, 127
2, 364236, Note_on_c, 0, 71, 0
2, 364244, Note_on_c, 0, 66, 0
2, 364312, Note_on_c, 0, 59, 57
2, 364314, Control_c, 0, 64, 0
2, 364356, Note_on_c, 0, 65, 95
2, 364444, Note_on_c, 0, 64, 0
2, 364560, Note_on_c, 0, 67, 45
2, 364563, Note_on_c, 0, 71, 52
2, 364710, Note_on_c, 0, 67, 0
2, 364728, Note_on_c, 0, 71, 0
2, 364776, Control_c, 0, 64, 127
2, 364960, Note_on_c, 0, 67, 51
2, 364972, Note_on_c, 0, 71, 60
2, 365052, Note_on_c, 0, 71, 0
2, 365064, Note_on_c, 0, 67, 0
2, 365148, Note_on_c, 0, 64, 74
2, 365178, Note_on_c, 0, 65, 0
2, 365298, Control_c, 0, 64, 0
2, 365358, Note_on_c, 0, 67, 41
2, 365368, Note_on_c, 0, 71, 58
2, 365470, Note_on_c, 0, 71, 0
2, 365484, Note_on_c, 0, 67, 0
2, 365590, Control_c, 0, 64, 127
2, 365748, Note_on_c, 0, 67, 38
2, 365758, Note_on_c, 0, 71, 47
2, 365838, Note_on_c, 0, 71, 0
2, 365841, Note_on_c, 0, 67, 0
2, 365918, Note_on_c, 0, 64, 0
2, 365921, Note_on_c, 0, 62, 45
2, 365988, Control_c, 0, 64, 0
2, 366152, Note_on_c, 0, 67, 29
2, 366156, Note_on_c, 0, 71, 43
2, 366316, Note_on_c, 0, 71, 0
2, 366324, Note_on_c, 0, 67, 0
2, 366342, Control_c, 0, 64, 127
2, 366510, Note_on_c, 0, 59, 0
2, 366526, Note_on_c, 0, 62, 0
2, 366564, Note_on_c, 0, 71, 43
2, 366588, Note_on_c, 0, 67, 16
2, 366640, Note_on_c, 0, 71, 0
2, 366670, Note_on_c, 0, 67, 0
2, 366750, Note_on_c, 0, 61, 60
2, 366766, Note_on_c, 0, 59, 60
2, 366952, Note_on_c, 0, 71, 58
2, 366968, Note_on_c, 0, 66, 30
2, 366972, Control_c, 0, 64, 0
2, 367072, Note_on_c, 0, 71, 0
2, 367100, Note_on_c, 0, 66, 0
2, 367186, Control_c, 0, 64, 127
2, 367294, Note_on_c, 0, 71, 60
2, 367304, Note_on_c, 0, 62, 65
2, 367308, Note_on_c, 0, 66, 35
2, 367350, Note_on_c, 0, 61, 0
2, 367378, Note_on_c, 0, 71, 0
2, 367390, Note_on_c, 0, 66, 0
2, 367482, Note_on_c, 0, 64, 88
2, 367488, Note_on_c, 0, 62, 0
2, 367634, Control_c, 0, 64, 0
2, 367664, Note_on_c, 0, 71, 73
2, 367664, Note_on_c, 0, 66, 42
2, 367744, Note_on_c, 0, 71, 0
2, 367770, Note_on_c, 0, 66, 0
2, 367786, Control_c, 0, 64, 127
2, 367836, Note_on_c, 0, 61, 97
2, 367858, Note_on_c, 0, 64, 0
2, 367940, Control_c, 0, 64, 0
2, 368034, Note_on_c, 0, 71, 65
2, 368036, Note_on_c, 0, 66, 43
2, 368110, Control_c, 0, 64, 127
2, 368118, Note_on_c, 0, 71, 0
2, 368172, Note_on_c, 0, 66, 0
2, 368224, Note_on_c, 0, 61, 0
2, 368224, Note_on_c, 0, 62, 91
2, 368294, Control_c, 0, 64, 0
2, 368410, Note_on_c, 0, 71, 67
2, 368412, Note_on_c, 0, 66, 44
2, 368478, Control_c, 0, 64, 127
2, 368482, Note_on_c, 0, 71, 0
2, 368534, Note_on_c, 0, 66, 0
2, 368580, Note_on_c, 0, 64, 89
2, 368596, Note_on_c, 0, 62, 0
2, 368599, Control_c, 0, 64, 0
2, 368738, Control_c, 0, 64, 127
2, 368744, Note_on_c, 0, 66, 43
2, 368748, Note_on_c, 0, 71, 54
2, 368816, Note_on_c, 0, 71, 0
2, 368828, Note_on_c, 0, 59, 0
2, 368848, Note_on_c, 0, 66, 0
2, 368866, Note_on_c, 0, 64, 0
2, 368870, Note_on_c, 0, 55, 60
2, 368976, Note_on_c, 0, 65, 68
2, 369078, Control_c, 0, 64, 0
2, 369218, Note_on_c, 0, 69, 33
2, 369220, Note_on_c, 0, 71, 47
2, 369354, Control_c, 0, 64, 127
2, 369392, Note_on_c, 0, 71, 0
2, 369402, Note_on_c, 0, 69, 0
2, 369634, Note_on_c, 0, 69, 36
2, 369640, Note_on_c, 0, 71, 54
2, 369720, Note_on_c, 0, 71, 0
2, 369736, Note_on_c, 0, 69, 0
2, 369768, Note_on_c, 0, 65, 0
2, 369838, Note_on_c, 0, 64, 56
2, 369922, Control_c, 0, 64, 0
2, 370004, Note_on_c, 0, 71, 53
2, 370009, Note_on_c, 0, 67, 44
2, 370140, Note_on_c, 0, 71, 0
2, 370146, Note_on_c, 0, 67, 0
2, 370168, Control_c, 0, 64, 127
2, 370406, Note_on_c, 0, 71, 54
2, 370412, Note_on_c, 0, 67, 44
2, 370482, Note_on_c, 0, 71, 0
2, 370496, Note_on_c, 0, 64, 0
2, 370501, Note_on_c, 0, 67, 0
2, 370616, Note_on_c, 0, 62, 44
2, 370690, Control_c, 0, 64, 0
2, 370810, Note_on_c, 0, 71, 52
2, 370826, Note_on_c, 0, 65, 29
2, 370920, Note_on_c, 0, 65, 0
2, 370932, Note_on_c, 0, 71, 0
2, 371044, Control_c, 0, 64, 127
2, 371188, Note_on_c, 0, 62, 0
2, 371222, Note_on_c, 0, 67, 38
2, 371234, Note_on_c, 0, 55, 0
2, 371236, Note_on_c, 0, 65, 20
2, 371326, Note_on_c, 0, 65, 0
2, 371344, Note_on_c, 0, 67, 0
2, 371408, Note_on_c, 0, 62, 59
2, 371416, Note_on_c, 0, 58, 30
2, 371582, Control_c, 0, 64, 0
2, 371616, Note_on_c, 0, 67, 41
2, 371626, Note_on_c, 0, 65, 34
2, 371740, Note_on_c, 0, 65, 0
2, 371794, Note_on_c, 0, 67, 0
2, 371812, Control_c, 0, 64, 127
2, 371906, Note_on_c, 0, 62, 0
2, 371946, Note_on_c, 0, 64, 58
2, 371952, Note_on_c, 0, 67, 31
2, 371964, Note_on_c, 0, 65, 38
2, 372020, Note_on_c, 0, 64, 0
2, 372042, Note_on_c, 0, 65, 0
2, 372052, Note_on_c, 0, 67, 0
2, 372132, Note_on_c, 0, 62, 74
2, 372166, Control_c, 0, 64, 0
2, 372294, Note_on_c, 0, 67, 45
2, 372304, Note_on_c, 0, 65, 44
2, 372366, Control_c, 0, 64, 127
2, 372378, Note_on_c, 0, 62, 0
2, 372382, Note_on_c, 0, 65, 0
2, 372386, Note_on_c, 0, 67, 0
2, 372488, Control_c, 0, 64, 0
2, 372508, Note_on_c, 0, 61, 60
2, 372690, Note_on_c, 0, 69, 44
2, 372714, Note_on_c, 0, 64, 41
2, 372780, Control_c, 0, 64, 127
2, 372784, Note_on_c, 0, 69, 0
2, 372792, Note_on_c, 0, 64, 0
2, 373010, Control_c, 0, 64, 0
2, 373060, Note_on_c, 0, 69, 35
2, 373078, Note_on_c, 0, 64, 41
2, 373150, Note_on_c, 0, 64, 0
2, 373164, Control_c, 0, 64, 127
2, 373172, Note_on_c, 0, 69, 0
2, 373354, Note_on_c, 0, 58, 0
2, 373430, Note_on_c, 0, 61, 0
2, 373448, Note_on_c, 0, 69, 34
2, 373458, Note_on_c, 0, 64, 38
2, 373526, Note_on_c, 0, 64, 0
2, 373536, Note_on_c, 0, 69, 0
2, 373638, Note_on_c, 0, 62, 70
2, 373656, Note_on_c, 0, 58, 41
2, 373810, Control_c, 0, 64, 0
2, 373850, Note_on_c, 0, 65, 44
2, 373860, Note_on_c, 0, 67, 36
2, 373978, Note_on_c, 0, 67, 0
2, 373988, Note_on_c, 0, 65, 0
2, 374024, Control_c, 0, 64, 127
2, 374136, Note_on_c, 0, 62, 0
2, 374176, Note_on_c, 0, 65, 44
2, 374176, Note_on_c, 0, 67, 49
2, 374194, Note_on_c, 0, 64, 61
2, 374256, Note_on_c, 0, 64, 0
2, 374256, Note_on_c, 0, 65, 0
2, 374266, Note_on_c, 0, 67, 0
2, 374340, Note_on_c, 0, 62, 92
2, 374394, Control_c, 0, 64, 0
2, 374516, Control_c, 0, 64, 127
2, 374526, Note_on_c, 0, 67, 60
2, 374530, Note_on_c, 0, 65, 54
2, 374604, Note_on_c, 0, 65, 0
2, 374612, Note_on_c, 0, 62, 0
2, 374616, Note_on_c, 0, 67, 0
2, 374694, Note_on_c, 0, 61, 87
2, 374700, Control_c, 0, 64, 0
2, 374876, Note_on_c, 0, 69, 54
2, 374880, Note_on_c, 0, 64, 65
2, 374916, Control_c, 0, 64, 127
2, 374938, Note_on_c, 0, 64, 0
2, 374952, Note_on_c, 0, 69, 0
2, 375024, Control_c, 0, 64, 0
2, 375032, Note_on_c, 0, 62, 91
2, 375092, Note_on_c, 0, 61, 0
2, 375208, Note_on_c, 0, 65, 70
2, 375210, Note_on_c, 0, 69, 50
2, 375222, Control_c, 0, 64, 127
2, 375266, Note_on_c, 0, 65, 0
2, 375282, Note_on_c, 0, 69, 0
2, 375334, Note_on_c, 0, 58, 0
2, 375346, Control_c, 0, 64, 0
2, 375376, Note_on_c, 0, 64, 93
2, 375394, Note_on_c, 0, 62, 0
2, 375398, Note_on_c, 0, 57, 62
2, 375530, Control_c, 0, 64, 127
2, 375538, Note_on_c, 0, 67, 68
2, 375541, Note_on_c, 0, 69, 49
2, 375592, Note_on_c, 0, 67, 0
2, 375600, Note_on_c, 0, 69, 0
2, 375630, Note_on_c, 0, 57, 0
2, 375712, Note_on_c, 0, 65, 84
2, 375714, Control_c, 0, 64, 0
2, 375726, Note_on_c, 0, 61, 75
2, 375766, Note_on_c, 0, 64, 0
2, 375906, Note_on_c, 0, 68, 62
2, 375909, Note_on_c, 0, 70, 47
2, 376004, Note_on_c, 0, 68, 0
2, 376026, Note_on_c, 0, 70, 0
2, 376038, Control_c, 0, 64, 127
2, 376212, Note_on_c, 0, 65, 0
2, 376224, Note_on_c, 0, 67, 80
2, 376230, Note_on_c, 0, 68, 53
2, 376230, Note_on_c, 0, 70, 54
2, 376310, Note_on_c, 0, 68, 0
2, 376324, Note_on_c, 0, 70, 0
2, 376370, Note_on_c, 0, 67, 0
2, 376384, Note_on_c, 0, 65, 91
2, 376506, Note_on_c, 0, 68, 60
2, 376509, Note_on_c, 0, 70, 56
2, 376592, Note_on_c, 0, 70, 0
2, 376624, Note_on_c, 0, 68, 0
2, 376698, Note_on_c, 0, 65, 0
2, 376698, Control_c, 0, 64, 0
2, 376706, Note_on_c, 0, 64, 90
2, 376868, Note_on_c, 0, 67, 69
2, 376874, Note_on_c, 0, 72, 67
2, 377004, Control_c, 0, 64, 127
2, 377006, Note_on_c, 0, 72, 0
2, 377018, Note_on_c, 0, 67, 0
2, 377254, Note_on_c, 0, 72, 72
2, 377258, Note_on_c, 0, 67, 62
2, 377326, Note_on_c, 0, 72, 0
2, 377336, Note_on_c, 0, 67, 0
2, 377522, Note_on_c, 0, 61, 0
2, 377600, Note_on_c, 0, 64, 0
2, 377614, Note_on_c, 0, 67, 72
2, 377618, Note_on_c, 0, 72, 64
2, 377680, Note_on_c, 0, 67, 0
2, 377688, Note_on_c, 0, 72, 0
2, 377786, Note_on_c, 0, 65, 97
2, 377788, Note_on_c, 0, 61, 69
2, 377866, Control_c, 0, 64, 0
2, 377952, Note_on_c, 0, 68, 73
2, 377962, Note_on_c, 0, 70, 62
2, 378080, Control_c, 0, 64, 127
2, 378098, Note_on_c, 0, 68, 0
2, 378120, Note_on_c, 0, 70, 0
2, 378182, Note_on_c, 0, 65, 0
2, 378238, Note_on_c, 0, 68, 77
2, 378250, Note_on_c, 0, 70, 75
2, 378253, Note_on_c, 0, 67, 92
2, 378360, Note_on_c, 0, 67, 0
2, 378368, Note_on_c, 0, 68, 0
2, 378412, Note_on_c, 0, 70, 0
2, 378412, Note_on_c, 0, 65, 115
2, 378554, Note_on_c, 0, 70, 79
2, 378556, Note_on_c, 0, 68, 85
2, 378690, Note_on_c, 0, 68, 0
2, 378726, Note_on_c, 0, 70, 0
2, 378740, Note_on_c, 0, 65, 0
2, 378740, Note_on_c, 0, 64, 123
2, 378772, Control_c, 0, 64, 0
2, 378890, Note_on_c, 0, 72, 91
2, 378893, Note_on_c, 0, 67, 88
2, 378956, Control_c, 0, 64, 127
2, 379020, Note_on_c, 0, 67, 0
2, 379042, Note_on_c, 0, 72, 0
2, 379045, Note_on_c, 0, 65, 119
2, 379096, Control_c, 0, 64, 0
2, 379110, Note_on_c, 0, 64, 0
2, 379196, Note_on_c, 0, 68, 92
2, 379204, Note_on_c, 0, 72, 87
2, 379264, Control_c, 0, 64, 127
2, 379324, Note_on_c, 0, 72, 0
2, 379324, Note_on_c, 0, 61, 0
2, 379327, Note_on_c, 0, 68, 0
2, 379350, Note_on_c, 0, 67, 119
2, 379353, Note_on_c, 0, 65, 0
2, 379362, Note_on_c, 0, 60, 100
2, 379372, Control_c, 0, 64, 0
2, 379408, Note_on_c, 0, 60, 0
2, 379438, Note_on_c, 0, 67, 0
2, 379480, Control_c, 0, 64, 127
2, 379504, Note_on_c, 0, 70, 84
2, 379514, Note_on_c, 0, 72, 85
2, 379564, Note_on_c, 0, 72, 0
2, 379566, Note_on_c, 0, 70, 0
2, 379684, Note_on_c, 0, 65, 99
2, 379694, Control_c, 0, 64, 0
2, 379828, Note_on_c, 0, 68, 97
2, 379842, Note_on_c, 0, 65, 0
2, 379896, Note_on_c, 0, 68, 0
2, 379994, Note_on_c, 0, 72, 76
2, 380048, Note_on_c, 0, 72, 0
2, 380152, Note_on_c, 0, 75, 93
2, 380198, Note_on_c, 0, 75, 0
2, 380326, Note_on_c, 0, 74, 96
2, 380362, Note_on_c, 0, 74, 0
2, 380484, Note_on_c, 0, 72, 85
2, 380532, Note_on_c, 0, 72, 0
2, 380648, Note_on_c, 0, 70, 85
2, 380710, Note_on_c, 0, 70, 0
2, 380806, Note_on_c, 0, 68, 85
2, 380860, Note_on_c, 0, 68, 0
2, 380972, Note_on_c, 0, 67, 75
2, 381026, Note_on_c, 0, 67, 0
2, 381130, Note_on_c, 0, 65, 77
2, 381178, Note_on_c, 0, 65, 0
2, 381286, Note_on_c, 0, 63, 84
2, 381328, Note_on_c, 0, 63, 0
2, 381452, Note_on_c, 0, 62, 85
2, 381498, Note_on_c, 0, 62, 0
2, 381622, Note_on_c, 0, 60, 90
2, 381732, Note_on_c, 0, 60, 0
2, 381782, Note_on_c, 0, 63, 96
2, 381840, Note_on_c, 0, 63, 0
2, 381968, Note_on_c, 0, 60, 85
2, 381970, Note_on_c, 0, 63, 82
2, 381972, Note_on_c, 0, 67, 92
2, 382014, Note_on_c, 0, 60, 0
2, 382016, Note_on_c, 0, 63, 0
2, 382024, Note_on_c, 0, 67, 0
2, 382328, Note_on_c, 0, 58, 61
2, 382334, Note_on_c, 0, 62, 72
2, 382336, Note_on_c, 0, 67, 69
2, 382336, Note_on_c, 0, 63, 57
2, 382382, Note_on_c, 0, 62, 0
2, 382388, Note_on_c, 0, 58, 0
2, 382398, Note_on_c, 0, 63, 0
2, 382414, Note_on_c, 0, 67, 0
2, 382702, Note_on_c, 0, 60, 64
2, 382788, Note_on_c, 0, 60, 0
2, 382844, Control_c, 0, 64, 127
2, 382872, Note_on_c, 0, 63, 70
2, 382930, Note_on_c, 0, 63, 0
2, 382952, Control_c, 0, 64, 0
2, 383046, Note_on_c, 0, 63, 50
2, 383048, Note_on_c, 0, 60, 51
2, 383052, Note_on_c, 0, 56, 56
2, 383052, Note_on_c, 0, 67, 59
2, 383106, Note_on_c, 0, 63, 0
2, 383112, Note_on_c, 0, 56, 0
2, 383114, Note_on_c, 0, 60, 0
2, 383120, Note_on_c, 0, 67, 0
2, 383541, Note_on_c, 0, 67, 49
2, 383541, Note_on_c, 0, 58, 33
2, 383545, Note_on_c, 0, 62, 49
2, 383547, Note_on_c, 0, 55, 51
2, 383614, Note_on_c, 0, 62, 0
2, 383628, Note_on_c, 0, 67, 0
2, 383641, Note_on_c, 0, 55, 0
2, 383656, Note_on_c, 0, 58, 0
2, 384996, Note_on_c, 0, 56, 96
2, 385004, Note_on_c, 0, 58, 91
2, 385092, Note_on_c, 0, 56, 0
2, 385112, Note_on_c, 0, 58, 0
2, 385180, Control_c, 0, 64, 127
2, 385242, Control_c, 0, 64, 0
2, 385336, Note_on_c, 0, 56, 84
2, 385348, Note_on_c, 0, 58, 81
2, 385458, Note_on_c, 0, 56, 0
2, 385474, Note_on_c, 0, 58, 0
2, 385682, Note_on_c, 0, 56, 73
2, 385686, Note_on_c, 0, 58, 73
2, 385784, Note_on_c, 0, 56, 0
2, 385796, Note_on_c, 0, 58, 0
2, 386024, Note_on_c, 0, 56, 51
2, 386038, Note_on_c, 0, 58, 53
2, 386112, Note_on_c, 0, 58, 0
2, 386120, Note_on_c, 0, 56, 0
2, 386148, Control_c, 0, 64, 127
2, 386210, Control_c, 0, 64, 0
2, 386384, Note_on_c, 0, 56, 42
2, 386392, Note_on_c, 0, 58, 45
2, 386466, Note_on_c, 0, 58, 0
2, 386470, Note_on_c, 0, 56, 0
2, 386502, Control_c, 0, 64, 127
2, 386532, Control_c, 0, 64, 0
2, 386726, Note_on_c, 0, 56, 37
2, 386752, Note_on_c, 0, 58, 41
2, 386824, Control_c, 0, 64, 127
2, 386826, Note_on_c, 0, 58, 0
2, 386826, Note_on_c, 0, 56, 0
2, 386854, Control_c, 0, 64, 0
2, 387080, Note_on_c, 0, 56, 28
2, 387096, Note_on_c, 0, 58, 37
2, 387146, Control_c, 0, 64, 127
2, 387166, Note_on_c, 0, 56, 0
2, 387168, Note_on_c, 0, 58, 0
2, 387176, Control_c, 0, 64, 0
2, 387420, Note_on_c, 0, 56, 30
2, 387440, Note_on_c, 0, 58, 39
2, 387510, Note_on_c, 0, 58, 0
2, 387518, Note_on_c, 0, 56, 0
2, 387756, Note_on_c, 0, 56, 36
2, 387776, Note_on_c, 0, 63, 50
2, 387782, Note_on_c, 0, 58, 42
2, 387810, Note_on_c, 0, 60, 26
2, 387868, Note_on_c, 0, 58, 0
2, 387880, Note_on_c, 0, 56, 0
2, 387900, Control_c, 0, 64, 127
2, 387960, Note_on_c, 0, 66, 38
2, 388038, Control_c, 0, 64, 0
2, 388058, Note_on_c, 0, 63, 0
2, 388112, Note_on_c, 0, 58, 39
2, 388112, Note_on_c, 0, 56, 44
2, 388115, Note_on_c, 0, 70, 43
2, 388166, Note_on_c, 0, 60, 0
2, 388184, Note_on_c, 0, 56, 0
2, 388192, Note_on_c, 0, 58, 0
2, 388216, Note_on_c, 0, 66, 0
2, 388252, Control_c, 0, 64, 127
2, 388376, Control_c, 0, 64, 0
2, 388428, Note_on_c, 0, 60, 50
2, 388430, Note_on_c, 0, 56, 43
2, 388430, Note_on_c, 0, 63, 54
2, 388434, Note_on_c, 0, 58, 47
2, 388464, Note_on_c, 0, 70, 0
2, 388494, Note_on_c, 0, 60, 0
2, 388494, Note_on_c, 0, 56, 0
2, 388497, Note_on_c, 0, 63, 0
2, 388497, Note_on_c, 0, 58, 0
2, 388752, Note_on_c, 0, 56, 27
2, 388778, Note_on_c, 0, 58, 43
2, 388780, Note_on_c, 0, 62, 58
2, 388790, Note_on_c, 0, 65, 46
2, 388820, Control_c, 0, 64, 127
2, 388850, Note_on_c, 0, 56, 0
2, 388852, Note_on_c, 0, 58, 0
2, 388954, Note_on_c, 0, 68, 65
2, 389008, Note_on_c, 0, 62, 0
2, 389070, Note_on_c, 0, 65, 0
2, 389100, Note_on_c, 0, 56, 52
2, 389106, Note_on_c, 0, 58, 47
2, 389116, Note_on_c, 0, 72, 83
2, 389128, Control_c, 0, 64, 0
2, 389172, Note_on_c, 0, 56, 0
2, 389176, Note_on_c, 0, 58, 0
2, 389272, Note_on_c, 0, 68, 0
2, 389410, Note_on_c, 0, 56, 50
2, 389424, Note_on_c, 0, 62, 51
2, 389427, Note_on_c, 0, 58, 52
2, 389436, Note_on_c, 0, 65, 42
2, 389480, Note_on_c, 0, 56, 0
2, 389488, Note_on_c, 0, 58, 0
2, 389488, Note_on_c, 0, 72, 0
2, 389494, Note_on_c, 0, 62, 0
2, 389514, Note_on_c, 0, 65, 0
2, 389528, Control_c, 0, 64, 127
2, 389574, Control_c, 0, 64, 0
2, 389750, Note_on_c, 0, 56, 28
2, 389764, Note_on_c, 0, 63, 51
2, 389768, Note_on_c, 0, 58, 44
2, 389784, Note_on_c, 0, 60, 37
2, 389842, Note_on_c, 0, 58, 0
2, 389844, Note_on_c, 0, 56, 0
2, 389882, Control_c, 0, 64, 127
2, 389960, Note_on_c, 0, 66, 43
2, 389978, Note_on_c, 0, 63, 0
2, 390052, Note_on_c, 0, 60, 0
2, 390082, Control_c, 0, 64, 0
2, 390114, Note_on_c, 0, 70, 50
2, 390118, Note_on_c, 0, 56, 50
2, 390124, Note_on_c, 0, 58, 43
2, 390186, Note_on_c, 0, 56, 0
2, 390194, Note_on_c, 0, 58, 0
2, 390208, Note_on_c, 0, 66, 0
2, 390266, Control_c, 0, 64, 127
2, 390269, Note_on_c, 0, 63, 73
2, 390269, Note_on_c, 0, 60, 68
2, 390308, Note_on_c, 0, 70, 0
2, 390388, Control_c, 0, 64, 0
2, 390420, Note_on_c, 0, 66, 77
2, 390426, Note_on_c, 0, 58, 53
2, 390438, Note_on_c, 0, 56, 49
2, 390494, Note_on_c, 0, 58, 0
2, 390499, Note_on_c, 0, 56, 0
2, 390556, Note_on_c, 0, 60, 0
2, 390568, Note_on_c, 0, 70, 84
2, 390574, Control_c, 0, 64, 127
2, 390576, Note_on_c, 0, 63, 0
2, 390634, Note_on_c, 0, 66, 0
2, 390666, Control_c, 0, 64, 0
2, 390734, Note_on_c, 0, 62, 80
2, 390736, Note_on_c, 0, 58, 59
2, 390738, Note_on_c, 0, 65, 85
2, 390744, Note_on_c, 0, 56, 54
2, 390750, Note_on_c, 0, 70, 0
2, 390868, Note_on_c, 0, 56, 0
2, 390868, Note_on_c, 0, 58, 0
2, 390880, Control_c, 0, 64, 127
2, 390892, Note_on_c, 0, 68, 92
2, 390984, Note_on_c, 0, 65, 0
2, 391032, Note_on_c, 0, 62, 0
2, 391044, Note_on_c, 0, 58, 80
2, 391050, Note_on_c, 0, 72, 105
2, 391060, Note_on_c, 0, 56, 79
2, 391104, Note_on_c, 0, 68, 0
2, 391106, Note_on_c, 0, 56, 0
2, 391112, Note_on_c, 0, 58, 0
2, 391116, Note_on_c, 0, 72, 0
2, 391142, Control_c, 0, 64, 0
2, 391348, Note_on_c, 0, 56, 95
2, 391351, Note_on_c, 0, 62, 90
2, 391360, Note_on_c, 0, 58, 98
2, 391363, Note_on_c, 0, 65, 88
2, 391368, Note_on_c, 0, 68, 103
2, 391382, Note_on_c, 0, 72, 114
2, 391402, Note_on_c, 0, 56, 0
2, 391410, Note_on_c, 0, 62, 0
2, 391426, Note_on_c, 0, 58, 0
2, 391440, Note_on_c, 0, 65, 0
2, 391462, Note_on_c, 0, 68, 0
2, 391486, Note_on_c, 0, 72, 0
2, 391786, Note_on_c, 0, 58, 22
2, 391786, Note_on_c, 0, 60, 51
2, 391878, Control_c, 0, 64, 127
2, 391882, Note_on_c, 0, 60, 0
2, 391894, Note_on_c, 0, 58, 0
2, 391956, Control_c, 0, 64, 0
2, 392122, Note_on_c, 0, 62, 47
2, 392124, Note_on_c, 0, 58, 29
2, 392138, Note_on_c, 0, 60, 46
2, 392140, Note_on_c, 0, 65, 42
2, 392210, Note_on_c, 0, 60, 0
2, 392218, Note_on_c, 0, 58, 0
2, 392282, Note_on_c, 0, 68, 65
2, 392466, Note_on_c, 0, 72, 83
2, 392474, Note_on_c, 0, 60, 57
2, 392480, Note_on_c, 0, 58, 35
2, 392538, Note_on_c, 0, 60, 0
2, 392560, Note_on_c, 0, 58, 0
2, 392586, Note_on_c, 0, 68, 0
2, 392648, Control_c, 0, 64, 127
2, 392682, Note_on_c, 0, 65, 0
2, 392724, Control_c, 0, 64, 0
2, 392732, Note_on_c, 0, 62, 0
2, 392798, Note_on_c, 0, 72, 0
2, 392798, Note_on_c, 0, 58, 46
2, 392810, Note_on_c, 0, 60, 60
2, 392866, Note_on_c, 0, 58, 0
2, 392869, Note_on_c, 0, 60, 0
2, 392924, Control_c, 0, 64, 127
2, 393000, Control_c, 0, 64, 0
2, 393114, Note_on_c, 0, 67, 54
2, 393122, Note_on_c, 0, 64, 47
2, 393125, Note_on_c, 0, 58, 37
2, 393128, Note_on_c, 0, 60, 49
2, 393198, Note_on_c, 0, 60, 0
2, 393198, Note_on_c, 0, 58, 0
2, 393246, Control_c, 0, 64, 127
2, 393280, Note_on_c, 0, 70, 66
2, 393416, Control_c, 0, 64, 0
2, 393450, Note_on_c, 0, 74, 99
2, 393452, Note_on_c, 0, 60, 66
2, 393454, Note_on_c, 0, 58, 50
2, 393514, Note_on_c, 0, 60, 0
2, 393526, Note_on_c, 0, 64, 0
2, 393530, Note_on_c, 0, 67, 0
2, 393530, Note_on_c, 0, 70, 0
2, 393530, Note_on_c, 0, 58, 0
2, 393594, Note_on_c, 0, 74, 0
2, 393599, Control_c, 0, 64, 127
2, 393722, Control_c, 0, 64, 0
2, 393782, Note_on_c, 0, 58, 39
2, 393787, Note_on_c, 0, 62, 74
2, 393790, Note_on_c, 0, 65, 68
2, 393814, Note_on_c, 0, 60, 38
2, 393858, Note_on_c, 0, 65, 0
2, 393872, Note_on_c, 0, 62, 0
2, 393884, Note_on_c, 0, 60, 0
2, 393894, Note_on_c, 0, 58, 0
2, 393932, Note_on_c, 0, 68, 77
2, 393954, Control_c, 0, 64, 127
2, 394000, Control_c, 0, 64, 0
2, 394098, Note_on_c, 0, 68, 0
2, 394104, Note_on_c, 0, 72, 68
2, 394116, Note_on_c, 0, 60, 57
2, 394120, Note_on_c, 0, 58, 43
2, 394180, Note_on_c, 0, 60, 0
2, 394194, Note_on_c, 0, 58, 0
2, 394200, Note_on_c, 0, 72, 0
2, 394214, Control_c, 0, 64, 127
2, 394270, Note_on_c, 0, 65, 65
2, 394276, Note_on_c, 0, 62, 62
2, 394306, Control_c, 0, 64, 0
2, 394408, Note_on_c, 0, 58, 57
2, 394420, Note_on_c, 0, 60, 73
2, 394423, Note_on_c, 0, 68, 73
2, 394472, Note_on_c, 0, 58, 0
2, 394474, Note_on_c, 0, 60, 0
2, 394484, Note_on_c, 0, 65, 0
2, 394486, Note_on_c, 0, 62, 0
2, 394522, Control_c, 0, 64, 127
2, 394572, Note_on_c, 0, 72, 84
2, 394598, Control_c, 0, 64, 0
2, 394614, Note_on_c, 0, 68, 0
2, 394736, Note_on_c, 0, 60, 65
2, 394739, Note_on_c, 0, 58, 39
2, 394742, Note_on_c, 0, 64, 73
2, 394748, Note_on_c, 0, 67, 82
2, 394770, Note_on_c, 0, 72, 0
2, 394812, Note_on_c, 0, 60, 0
2, 394828, Control_c, 0, 64, 127
2, 394834, Note_on_c, 0, 58, 0
2, 394860, Control_c, 0, 64, 0
2, 394896, Note_on_c, 0, 70, 82
2, 394964, Note_on_c, 0, 67, 0
2, 394996, Note_on_c, 0, 64, 0
2, 395014, Control_c, 0, 64, 127
2, 395042, Note_on_c, 0, 60, 75
2, 395056, Note_on_c, 0, 74, 95
2, 395058, Note_on_c, 0, 58, 49
2, 395076, Control_c, 0, 64, 0
2, 395082, Note_on_c, 0, 70, 0
2, 395094, Note_on_c, 0, 60, 0
2, 395096, Note_on_c, 0, 74, 0
2, 395120, Note_on_c, 0, 58, 0
2, 395350, Note_on_c, 0, 58, 89
2, 395350, Note_on_c, 0, 64, 91
2, 395353, Note_on_c, 0, 60, 115
2, 395360, Note_on_c, 0, 67, 89
2, 395364, Note_on_c, 0, 70, 87
2, 395372, Note_on_c, 0, 74, 119
2, 395390, Note_on_c, 0, 58, 0
2, 395394, Note_on_c, 0, 60, 0
2, 395398, Note_on_c, 0, 64, 0
2, 395414, Control_c, 0, 64, 127
2, 395420, Note_on_c, 0, 67, 0
2, 395434, Note_on_c, 0, 70, 0
2, 395460, Note_on_c, 0, 74, 0
2, 395490, Control_c, 0, 64, 0
2, 395716, Note_on_c, 0, 67, 67
2, 395720, Note_on_c, 0, 64, 62
2, 395864, Note_on_c, 0, 70, 66
2, 395892, Note_on_c, 0, 67, 0
2, 395962, Note_on_c, 0, 64, 0
2, 396032, Note_on_c, 0, 74, 97
2, 396034, Note_on_c, 0, 58, 62
2, 396042, Note_on_c, 0, 70, 0
2, 396045, Note_on_c, 0, 60, 56
2, 396058, Control_c, 0, 64, 127
2, 396072, Note_on_c, 0, 74, 0
2, 396088, Note_on_c, 0, 58, 0
2, 396088, Control_c, 0, 64, 0
2, 396104, Note_on_c, 0, 60, 0
2, 396350, Note_on_c, 0, 77, 112
2, 396350, Note_on_c, 0, 66, 82
2, 396353, Note_on_c, 0, 63, 88
2, 396356, Note_on_c, 0, 61, 91
2, 396364, Note_on_c, 0, 70, 72
2, 396392, Note_on_c, 0, 66, 0
2, 396396, Note_on_c, 0, 63, 0
2, 396398, Note_on_c, 0, 61, 0
2, 396408, Note_on_c, 0, 70, 0
2, 396444, Note_on_c, 0, 77, 0
2, 396680, Note_on_c, 0, 70, 85
2, 396690, Note_on_c, 0, 80, 120
2, 396700, Note_on_c, 0, 64, 92
2, 396702, Note_on_c, 0, 73, 88
2, 396702, Note_on_c, 0, 66, 82
2, 396728, Note_on_c, 0, 70, 0
2, 396738, Note_on_c, 0, 73, 0
2, 396738, Note_on_c, 0, 64, 0
2, 396750, Control_c, 0, 64, 127
2, 396754, Note_on_c, 0, 66, 0
2, 396790, Note_on_c, 0, 80, 0
2, 397032, Note_on_c, 0, 61, 110
2, 397090, Note_on_c, 0, 61, 0
2, 397366, Note_on_c, 0, 54, 115
2, 397402, Note_on_c, 0, 54, 0
2, 397580, Control_c, 0, 64, 0
2, 397704, Note_on_c, 0, 67, 84
2, 397722, Note_on_c, 0, 64, 73
2, 397854, Note_on_c, 0, 70, 81
2, 397862, Note_on_c, 0, 67, 0
2, 397912, Note_on_c, 0, 64, 0
2, 398004, Note_on_c, 0, 58, 76
2, 398010, Note_on_c, 0, 74, 103
2, 398012, Note_on_c, 0, 60, 84
2, 398032, Note_on_c, 0, 70, 0
2, 398064, Note_on_c, 0, 58, 0
2, 398067, Note_on_c, 0, 60, 0
2, 398096, Note_on_c, 0, 74, 0
2, 398148, Note_on_c, 0, 70, 92
2, 398150, Note_on_c, 0, 67, 89
2, 398298, Note_on_c, 0, 63, 93
2, 398298, Note_on_c, 0, 61, 83
2, 398312, Note_on_c, 0, 70, 0
2, 398312, Note_on_c, 0, 73, 97
2, 398338, Note_on_c, 0, 67, 0
2, 398346, Note_on_c, 0, 61, 0
2, 398346, Note_on_c, 0, 63, 0
2, 398448, Note_on_c, 0, 77, 87
2, 398460, Note_on_c, 0, 73, 0
2, 398486, Note_on_c, 0, 77, 0
2, 398604, Note_on_c, 0, 70, 83
2, 398620, Note_on_c, 0, 66, 89
2, 398628, Note_on_c, 0, 73, 108
2, 398632, Note_on_c, 0, 64, 97
2, 398634, Note_on_c, 0, 80, 125
2, 398676, Note_on_c, 0, 73, 0
2, 398680, Note_on_c, 0, 64, 0
2, 398686, Control_c, 0, 64, 127
2, 398698, Note_on_c, 0, 70, 0
2, 398706, Note_on_c, 0, 66, 0
2, 398744, Note_on_c, 0, 80, 0
2, 398968, Note_on_c, 0, 61, 96
2, 399024, Note_on_c, 0, 61, 0
2, 399146, Control_c, 0, 64, 0
2, 399318, Note_on_c, 0, 54, 105
2, 399368, Note_on_c, 0, 54, 0
2, 399618, Note_on_c, 0, 70, 77
2, 399642, Note_on_c, 0, 66, 89
2, 399642, Note_on_c, 0, 73, 107
2, 399645, Note_on_c, 0, 80, 121
2, 399650, Note_on_c, 0, 64, 102
2, 399712, Note_on_c, 0, 64, 0
2, 399726, Note_on_c, 0, 70, 0
2, 399729, Control_c, 0, 64, 127
2, 399738, Note_on_c, 0, 73, 0
2, 399756, Note_on_c, 0, 66, 0
2, 399786, Note_on_c, 0, 80, 0
2, 399998, Note_on_c, 0, 61, 93
2, 400090, Note_on_c, 0, 61, 0
2, 400114, Control_c, 0, 64, 0
2, 400322, Note_on_c, 0, 54, 92
2, 400374, Note_on_c, 0, 54, 0
2, 400588, Note_on_c, 0, 70, 57
2, 400632, Note_on_c, 0, 73, 76
2, 400648, Note_on_c, 0, 66, 59
2, 400654, Note_on_c, 0, 80, 103
2, 400662, Note_on_c, 0, 64, 61
2, 400668, Control_c, 0, 64, 127
2, 400708, Note_on_c, 0, 73, 0
2, 400718, Note_on_c, 0, 70, 0
2, 400718, Note_on_c, 0, 64, 0
2, 400732, Note_on_c, 0, 66, 0
2, 400746, Note_on_c, 0, 80, 0
2, 401006, Note_on_c, 0, 61, 57
2, 401064, Note_on_c, 0, 61, 0
2, 401236, Control_c, 0, 64, 0
2, 401346, Note_on_c, 0, 54, 62
2, 401406, Note_on_c, 0, 54, 0
2, 401676, Note_on_c, 0, 64, 51
2, 401736, Note_on_c, 0, 64, 0
2, 402050, Note_on_c, 0, 61, 65
2, 402108, Note_on_c, 0, 61, 0
2, 402418, Note_on_c, 0, 80, 76
2, 402430, Note_on_c, 0, 54, 59
2, 402494, Note_on_c, 0, 54, 0
2, 402600, Note_on_c, 0, 85, 82
2, 402634, Note_on_c, 0, 80, 0
2, 402812, Note_on_c, 0, 78, 75
2, 402817, Note_on_c, 0, 73, 50
2, 402822, Note_on_c, 0, 69, 52
2, 402824, Note_on_c, 0, 66, 31
2, 402826, Note_on_c, 0, 85, 0
2, 402828, Note_on_c, 0, 64, 51
2, 402890, Note_on_c, 0, 69, 0
2, 402896, Note_on_c, 0, 64, 0
2, 402898, Note_on_c, 0, 66, 0
2, 402898, Note_on_c, 0, 73, 0
2, 403180, Note_on_c, 0, 73, 46
2, 403196, Note_on_c, 0, 66, 29
2, 403197, Note_on_c, 0, 69, 38
2, 403202, Note_on_c, 0, 64, 39
2, 403254, Note_on_c, 0, 73, 0
2, 403260, Note_on_c, 0, 64, 0
2, 403269, Note_on_c, 0, 69, 0
2, 403274, Note_on_c, 0, 66, 0
2, 403498, Note_on_c, 0, 80, 65
2, 403510, Note_on_c, 0, 78, 0
2, 403510, Note_on_c, 0, 73, 38
2, 403520, Note_on_c, 0, 69, 46
2, 403526, Note_on_c, 0, 66, 39
2, 403530, Note_on_c, 0, 64, 38
2, 403588, Note_on_c, 0, 73, 0
2, 403590, Note_on_c, 0, 64, 0
2, 403594, Note_on_c, 0, 69, 0
2, 403606, Note_on_c, 0, 66, 0
2, 403664, Note_on_c, 0, 85, 65
2, 403669, Note_on_c, 0, 80, 0
2, 403762, Note_on_c, 0, 85, 0
2, 403838, Note_on_c, 0, 73, 57
2, 403841, Note_on_c, 0, 78, 77
2, 403850, Note_on_c, 0, 66, 36
2, 403852, Note_on_c, 0, 69, 42
2, 403856, Note_on_c, 0, 64, 31
2, 403894, Note_on_c, 0, 78, 0
2, 403899, Note_on_c, 0, 73, 0
2, 403920, Note_on_c, 0, 69, 0
2, 403922, Note_on_c, 0, 64, 0
2, 403924, Note_on_c, 0, 66, 0
2, 404196, Note_on_c, 0, 80, 74
2, 404206, Note_on_c, 0, 66, 43
2, 404209, Note_on_c, 0, 69, 53
2, 404212, Note_on_c, 0, 64, 50
2, 404212, Note_on_c, 0, 73, 22
2, 404264, Note_on_c, 0, 80, 0
2, 404276, Note_on_c, 0, 64, 0
2, 404276, Note_on_c, 0, 73, 0
2, 404281, Note_on_c, 0, 69, 0
2, 404282, Note_on_c, 0, 66, 0
2, 404530, Note_on_c, 0, 73, 67
2, 404544, Note_on_c, 0, 69, 41
2, 404548, Note_on_c, 0, 64, 26
2, 404552, Note_on_c, 0, 66, 42
2, 404616, Note_on_c, 0, 64, 0
2, 404618, Note_on_c, 0, 73, 0
2, 404628, Note_on_c, 0, 69, 0
2, 404648, Note_on_c, 0, 66, 0
2, 404896, Note_on_c, 0, 78, 70
2, 404900, Note_on_c, 0, 73, 51
2, 404904, Note_on_c, 0, 69, 36
2, 404908, Note_on_c, 0, 66, 41
2, 404912, Note_on_c, 0, 64, 42
2, 404990, Note_on_c, 0, 69, 0
2, 404992, Note_on_c, 0, 66, 0
2, 404993, Note_on_c, 0, 64, 0
2, 404998, Note_on_c, 0, 73, 0
2, 405254, Note_on_c, 0, 73, 36
2, 405256, Note_on_c, 0, 69, 38
2, 405264, Note_on_c, 0, 66, 35
2, 405276, Note_on_c, 0, 64, 43
2, 405332, Note_on_c, 0, 73, 0
2, 405336, Note_on_c, 0, 69, 0
2, 405338, Note_on_c, 0, 64, 0
2, 405348, Note_on_c, 0, 66, 0
2, 405606, Note_on_c, 0, 73, 44
2, 405610, Note_on_c, 0, 66, 36
2, 405610, Note_on_c, 0, 64, 30
2, 405612, Note_on_c, 0, 69, 35
2, 405674, Note_on_c, 0, 64, 0
2, 405686, Note_on_c, 0, 69, 0
2, 405690, Note_on_c, 0, 66, 0
2, 405716, Note_on_c, 0, 73, 0
2, 405922, Note_on_c, 0, 80, 92
2, 405936, Note_on_c, 0, 72, 67
2, 405938, Note_on_c, 0, 69, 52
2, 405944, Note_on_c, 0, 66, 31
2, 405948, Note_on_c, 0, 63, 60
2, 405964, Note_on_c, 0, 78, 0
2, 405990, Note_on_c, 0, 72, 0
2, 406002, Note_on_c, 0, 63, 0
2, 406014, Note_on_c, 0, 69, 0
2, 406022, Note_on_c, 0, 66, 0
2, 406026, Note_on_c, 0, 80, 0
2, 406266, Note_on_c, 0, 73, 79
2, 406270, Note_on_c, 0, 78, 97
2, 406270, Note_on_c, 0, 69, 51
2, 406272, Note_on_c, 0, 61, 69
2, 406274, Note_on_c, 0, 66, 38
2, 406338, Note_on_c, 0, 66, 0
2, 406342, Note_on_c, 0, 61, 0
2, 406344, Note_on_c, 0, 69, 0
2, 406344, Note_on_c, 0, 73, 0
2, 406378, Note_on_c, 0, 78, 0
2, 406602, Note_on_c, 0, 80, 103
2, 406607, Note_on_c, 0, 60, 62
2, 406608, Note_on_c, 0, 69, 64
2, 406614, Note_on_c, 0, 66, 62
2, 406614, Note_on_c, 0, 74, 77
2, 406656, Note_on_c, 0, 74, 0
2, 406662, Note_on_c, 0, 69, 0
2, 406670, Note_on_c, 0, 60, 0
2, 406676, Note_on_c, 0, 66, 0
2, 406698, Note_on_c, 0, 80, 0
2, 406956, Note_on_c, 0, 73, 96
2, 406960, Note_on_c, 0, 68, 65
2, 406962, Note_on_c, 0, 65, 75
2, 406968, Note_on_c, 0, 59, 61
2, 406968, Note_on_c, 0, 61, 61
2, 407032, Note_on_c, 0, 65, 0
2, 407034, Note_on_c, 0, 61, 0
2, 407035, Note_on_c, 0, 68, 0
2, 407036, Note_on_c, 0, 59, 0
2, 407308, Note_on_c, 0, 68, 53
2, 407316, Note_on_c, 0, 65, 58
2, 407318, Note_on_c, 0, 61, 52
2, 407324, Note_on_c, 0, 59, 56
2, 407374, Note_on_c, 0, 65, 0
2, 407379, Note_on_c, 0, 61, 0
2, 407386, Note_on_c, 0, 59, 0
2, 407416, Note_on_c, 0, 68, 0
2, 407648, Note_on_c, 0, 68, 53
2, 407660, Note_on_c, 0, 65, 60
2, 407670, Note_on_c, 0, 61, 53
2, 407672, Note_on_c, 0, 59, 47
2, 407714, Note_on_c, 0, 65, 0
2, 407732, Note_on_c, 0, 59, 0
2, 407738, Note_on_c, 0, 61, 0
2, 407762, Note_on_c, 0, 68, 0
2, 407956, Note_on_c, 0, 75, 98
2, 407964, Note_on_c, 0, 73, 0
2, 407964, Note_on_c, 0, 67, 85
2, 407966, Note_on_c, 0, 64, 97
2, 407966, Note_on_c, 0, 58, 77
2, 407969, Note_on_c, 0, 61, 81
2, 408016, Note_on_c, 0, 64, 0
2, 408020, Note_on_c, 0, 67, 0
2, 408028, Note_on_c, 0, 61, 0
2, 408046, Note_on_c, 0, 58, 0
2, 408066, Note_on_c, 0, 75, 0
2, 408316, Note_on_c, 0, 68, 76
2, 408318, Note_on_c, 0, 64, 80
2, 408318, Note_on_c, 0, 73, 90
2, 408321, Note_on_c, 0, 56, 70
2, 408324, Note_on_c, 0, 61, 69
2, 408366, Note_on_c, 0, 64, 0
2, 408369, Note_on_c, 0, 68, 0
2, 408376, Note_on_c, 0, 61, 0
2, 408384, Note_on_c, 0, 56, 0
2, 408396, Note_on_c, 0, 73, 0
2, 408654, Note_on_c, 0, 75, 79
2, 408654, Note_on_c, 0, 61, 69
2, 408656, Note_on_c, 0, 64, 67
2, 408658, Note_on_c, 0, 55, 47
2, 408660, Note_on_c, 0, 69, 60
2, 408698, Note_on_c, 0, 75, 0
2, 408704, Note_on_c, 0, 64, 0
2, 408714, Note_on_c, 0, 61, 0
2, 408717, Note_on_c, 0, 69, 0
2, 408726, Note_on_c, 0, 55, 0
2, 408996, Note_on_c, 0, 68, 108
2, 408998, Note_on_c, 0, 64, 114
2, 408999, Note_on_c, 0, 54, 116
2, 409002, Note_on_c, 0, 58, 106
2, 409006, Note_on_c, 0, 61, 113
2, 409056, Control_c, 0, 64, 127
2, 409084, Note_on_c, 0, 54, 0
2, 409102, Note_on_c, 0, 61, 0
2, 409108, Note_on_c, 0, 64, 0
2, 409110, Note_on_c, 0, 58, 0
2, 409126, Note_on_c, 0, 68, 0
2, 409134, Control_c, 0, 64, 0
2, 409354, Note_on_c, 0, 68, 105
2, 409358, Note_on_c, 0, 61, 102
2, 409368, Note_on_c, 0, 58, 93
2, 409371, Note_on_c, 0, 64, 108
2, 409378, Note_on_c, 0, 54, 85
2, 409410, Control_c, 0, 64, 127
2, 409420, Note_on_c, 0, 54, 0
2, 409420, Note_on_c, 0, 64, 0
2, 409432, Note_on_c, 0, 58, 0
2, 409448, Note_on_c, 0, 61, 0
2, 409456, Control_c, 0, 64, 0
2, 409478, Note_on_c, 0, 68, 0
2, 409685, Note_on_c, 0, 61, 96
2, 409688, Note_on_c, 0, 64, 106
2, 409690, Note_on_c, 0, 58, 103
2, 409694, Note_on_c, 0, 68, 103
2, 409696, Note_on_c, 0, 54, 93
2, 409736, Note_on_c, 0, 54, 0
2, 409742, Note_on_c, 0, 64, 0
2, 409748, Control_c, 0, 64, 127
2, 409753, Note_on_c, 0, 61, 0
2, 409782, Note_on_c, 0, 58, 0
2, 409810, Control_c, 0, 64, 0
2, 409820, Note_on_c, 0, 68, 0
2, 410032, Note_on_c, 0, 68, 99
2, 410040, Note_on_c, 0, 61, 99
2, 410046, Note_on_c, 0, 64, 106
2, 410048, Note_on_c, 0, 58, 103
2, 410054, Note_on_c, 0, 54, 106
2, 410090, Note_on_c, 0, 54, 0
2, 410102, Control_c, 0, 64, 127
2, 410116, Note_on_c, 0, 64, 0
2, 410122, Note_on_c, 0, 61, 0
2, 410144, Note_on_c, 0, 58, 0
2, 410162, Note_on_c, 0, 68, 0
2, 410178, Control_c, 0, 64, 0
2, 410348, Note_on_c, 0, 61, 91
2, 410356, Note_on_c, 0, 58, 83
2, 410364, Note_on_c, 0, 68, 92
2, 410364, Note_on_c, 0, 54, 97
2, 410370, Note_on_c, 0, 64, 88
2, 410402, Note_on_c, 0, 61, 0
2, 410406, Note_on_c, 0, 54, 0
2, 410420, Note_on_c, 0, 64, 0
2, 410426, Note_on_c, 0, 58, 0
2, 410454, Control_c, 0, 64, 127
2, 410484, Note_on_c, 0, 68, 0
2, 410516, Control_c, 0, 64, 0
2, 410686, Note_on_c, 0, 61, 84
2, 410696, Note_on_c, 0, 58, 77
2, 410706, Note_on_c, 0, 68, 83
2, 410706, Note_on_c, 0, 54, 81
2, 410712, Note_on_c, 0, 64, 83
2, 410742, Note_on_c, 0, 61, 0
2, 410750, Note_on_c, 0, 54, 0
2, 410752, Note_on_c, 0, 58, 0
2, 410762, Note_on_c, 0, 64, 0
2, 410802, Note_on_c, 0, 68, 0
2, 410808, Control_c, 0, 64, 127
2, 410838, Control_c, 0, 64, 0
2, 411024, Note_on_c, 0, 61, 61
2, 411038, Note_on_c, 0, 54, 70
2, 411044, Note_on_c, 0, 57, 72
2, 411048, Note_on_c, 0, 63, 68
2, 411056, Note_on_c, 0, 68, 59
2, 411096, Note_on_c, 0, 54, 0
2, 411104, Note_on_c, 0, 57, 0
2, 411108, Note_on_c, 0, 61, 0
2, 411108, Note_on_c, 0, 63, 0
2, 411132, Note_on_c, 0, 68, 0
2, 411146, Control_c, 0, 64, 127
2, 411192, Control_c, 0, 64, 0
2, 411358, Note_on_c, 0, 61, 60
2, 411380, Note_on_c, 0, 63, 56
2, 411382, Note_on_c, 0, 57, 52
2, 411384, Note_on_c, 0, 54, 35
2, 411384, Note_on_c, 0, 68, 47
2, 411426, Note_on_c, 0, 61, 0
2, 411442, Note_on_c, 0, 63, 0
2, 411446, Note_on_c, 0, 57, 0
2, 411460, Note_on_c, 0, 54, 0
2, 411468, Note_on_c, 0, 68, 0
2, 411500, Control_c, 0, 64, 127
2, 411530, Control_c, 0, 64, 0
2, 411698, Note_on_c, 0, 61, 47
2, 411708, Note_on_c, 0, 54, 56
2, 411710, Note_on_c, 0, 63, 45
2, 411730, Note_on_c, 0, 57, 31
2, 411734, Note_on_c, 0, 68, 43
2, 411770, Note_on_c, 0, 54, 0
2, 411776, Note_on_c, 0, 61, 0
2, 411778, Note_on_c, 0, 63, 0
2, 411796, Note_on_c, 0, 57, 0
2, 411802, Note_on_c, 0, 68, 0
2, 411838, Control_c, 0, 64, 127
2, 411884, Control_c, 0, 64, 0
2, 412040, Note_on_c, 0, 57, 43
2, 412056, Note_on_c, 0, 47, 76
2, 412072, Note_on_c, 0, 59, 51
2, 412118, Note_on_c, 0, 57, 0
2, 412140, Note_on_c, 0, 59, 0
2, 412394, Note_on_c, 0, 57, 38
2, 412399, Note_on_c, 0, 59, 42
2, 412470, Note_on_c, 0, 57, 0
2, 412506, Note_on_c, 0, 59, 0
2, 412728, Note_on_c, 0, 57, 42
2, 412750, Note_on_c, 0, 59, 28
2, 412802, Note_on_c, 0, 57, 0
2, 412838, Note_on_c, 0, 59, 0
2, 413054, Note_on_c, 0, 56, 45
2, 413096, Note_on_c, 0, 59, 49
2, 413102, Note_on_c, 0, 61, 54
2, 413118, Note_on_c, 0, 40, 64
2, 413180, Note_on_c, 0, 56, 0
2, 413188, Note_on_c, 0, 59, 0
2, 413208, Note_on_c, 0, 61, 0
2, 413454, Note_on_c, 0, 56, 46
2, 413484, Note_on_c, 0, 59, 43
2, 413494, Note_on_c, 0, 61, 50
2, 413542, Note_on_c, 0, 56, 0
2, 413570, Note_on_c, 0, 59, 0
2, 413576, Note_on_c, 0, 61, 0
2, 413816, Note_on_c, 0, 56, 46
2, 413826, Note_on_c, 0, 59, 52
2, 413848, Note_on_c, 0, 61, 46
2, 413896, Note_on_c, 0, 56, 0
2, 413902, Note_on_c, 0, 59, 0
2, 413922, Note_on_c, 0, 61, 0
2, 413954, Note_on_c, 0, 47, 0
2, 413972, Note_on_c, 0, 49, 79
2, 413990, Control_c, 0, 64, 127
2, 414122, Note_on_c, 0, 56, 53
2, 414148, Note_on_c, 0, 59, 59
2, 414166, Note_on_c, 0, 61, 56
2, 414204, Note_on_c, 0, 51, 59
2, 414212, Note_on_c, 0, 56, 0
2, 414240, Note_on_c, 0, 59, 0
2, 414246, Note_on_c, 0, 61, 0
2, 414260, Note_on_c, 0, 49, 0
2, 414310, Control_c, 0, 64, 0
2, 414530, Note_on_c, 0, 56, 37
2, 414566, Note_on_c, 0, 59, 46
2, 414584, Note_on_c, 0, 61, 50
2, 414632, Note_on_c, 0, 56, 0
2, 414668, Note_on_c, 0, 61, 0
2, 414672, Note_on_c, 0, 59, 0
2, 414710, Control_c, 0, 64, 127
2, 414966, Note_on_c, 0, 56, 30
2, 414996, Note_on_c, 0, 61, 46
2, 415060, Note_on_c, 0, 56, 0
2, 415062, Note_on_c, 0, 51, 0
2, 415082, Note_on_c, 0, 61, 0
2, 415110, Note_on_c, 0, 40, 0
2, 415138, Note_on_c, 0, 49, 53
2, 415310, Control_c, 0, 64, 0
2, 415326, Note_on_c, 0, 55, 23
2, 415348, Note_on_c, 0, 58, 27
2, 415380, Note_on_c, 0, 48, 38
2, 415386, Note_on_c, 0, 62, 43
2, 415416, Note_on_c, 0, 49, 0
2, 415424, Note_on_c, 0, 40, 61
2, 415498, Note_on_c, 0, 55, 0
2, 415554, Note_on_c, 0, 58, 0
2, 415616, Note_on_c, 0, 62, 0
2, 415726, Control_c, 0, 64, 127
2, 415904, Note_on_c, 0, 55, 26
2, 415928, Note_on_c, 0, 58, 24
2, 415964, Note_on_c, 0, 62, 43
2, 416060, Note_on_c, 0, 48, 0
2, 416118, Note_on_c, 0, 55, 0
2, 416148, Note_on_c, 0, 50, 58
2, 416168, Note_on_c, 0, 58, 0
2, 416171, Note_on_c, 0, 40, 0
2, 416188, Note_on_c, 0, 62, 0
2, 416272, Note_on_c, 0, 50, 0
2, 416334, Note_on_c, 0, 52, 87
2, 416484, Note_on_c, 0, 52, 0
2, 416486, Note_on_c, 0, 54, 91
2, 416508, Control_c, 0, 64, 0
2, 416604, Note_on_c, 0, 54, 0
2, 416656, Note_on_c, 0, 55, 88
2, 416732, Note_on_c, 0, 55, 0
2, 416814, Note_on_c, 0, 57, 75
2, 416872, Note_on_c, 0, 57, 0
2, 416974, Note_on_c, 0, 58, 62
2, 417076, Note_on_c, 0, 58, 0
2, 417324, Note_on_c, 0, 60, 57
2, 417472, Note_on_c, 0, 60, 0
2, 417598, Note_on_c, 0, 40, 59
2, 417666, Note_on_c, 0, 56, 33
2, 417674, Note_on_c, 0, 61, 54
2, 417684, Note_on_c, 0, 59, 56
2, 417686, Note_on_c, 0, 47, 68
2, 417752, Note_on_c, 0, 59, 0
2, 417782, Note_on_c, 0, 56, 0
2, 417842, Note_on_c, 0, 61, 0
2, 417876, Control_c, 0, 64, 127
2, 418074, Note_on_c, 0, 61, 57
2, 418076, Control_c, 0, 64, 0
2, 418088, Note_on_c, 0, 59, 43
2, 418088, Note_on_c, 0, 56, 23
2, 418166, Note_on_c, 0, 61, 0
2, 418182, Note_on_c, 0, 56, 0
2, 418190, Note_on_c, 0, 59, 0
2, 418410, Note_on_c, 0, 56, 50
2, 418420, Note_on_c, 0, 61, 58
2, 418423, Note_on_c, 0, 59, 49
2, 418488, Note_on_c, 0, 56, 0
2, 418502, Note_on_c, 0, 61, 0
2, 418502, Note_on_c, 0, 59, 0
2, 418505, Control_c, 0, 64, 127
2, 418546, Note_on_c, 0, 47, 0
2, 418570, Note_on_c, 0, 49, 72
2, 418690, Control_c, 0, 64, 0
2, 418706, Note_on_c, 0, 56, 58
2, 418732, Note_on_c, 0, 59, 50
2, 418738, Note_on_c, 0, 61, 66
2, 418768, Note_on_c, 0, 51, 62
2, 418782, Note_on_c, 0, 49, 0
2, 418784, Note_on_c, 0, 56, 0
2, 418810, Note_on_c, 0, 59, 0
2, 418810, Note_on_c, 0, 61, 0
2, 419074, Note_on_c, 0, 56, 47
2, 419106, Note_on_c, 0, 61, 47
2, 419106, Note_on_c, 0, 59, 51
2, 419188, Note_on_c, 0, 61, 0
2, 419190, Note_on_c, 0, 56, 0
2, 419218, Note_on_c, 0, 59, 0
2, 419462, Note_on_c, 0, 56, 39
2, 419472, Note_on_c, 0, 61, 54
2, 419486, Note_on_c, 0, 59, 34
2, 419560, Note_on_c, 0, 56, 0
2, 419568, Note_on_c, 0, 61, 0
2, 419576, Note_on_c, 0, 59, 0
2, 419594, Note_on_c, 0, 51, 0
2, 419630, Note_on_c, 0, 40, 0
2, 419640, Note_on_c, 0, 49, 54
2, 419642, Control_c, 0, 64, 127
2, 419854, Note_on_c, 0, 55, 41
2, 419858, Control_c, 0, 64, 0
2, 419872, Note_on_c, 0, 58, 28
2, 419914, Note_on_c, 0, 62, 38
2, 419938, Note_on_c, 0, 48, 50
2, 419984, Note_on_c, 0, 40, 61
2, 420028, Note_on_c, 0, 49, 0
2, 420148, Note_on_c, 0, 55, 0
2, 420166, Note_on_c, 0, 62, 0
2, 420182, Note_on_c, 0, 58, 0
2, 420304, Control_c, 0, 64, 127
2, 420488, Note_on_c, 0, 55, 41
2, 420502, Note_on_c, 0, 40, 0
2, 420502, Note_on_c, 0, 58, 29
2, 420524, Note_on_c, 0, 62, 41
2, 420700, Note_on_c, 0, 48, 0
2, 420738, Note_on_c, 0, 50, 65
2, 420764, Note_on_c, 0, 55, 0
2, 420772, Note_on_c, 0, 62, 0
2, 420822, Note_on_c, 0, 58, 0
2, 420830, Note_on_c, 0, 50, 0
2, 420944, Note_on_c, 0, 52, 64
2, 421056, Control_c, 0, 64, 0
2, 421078, Note_on_c, 0, 52, 0
2, 421110, Note_on_c, 0, 54, 74
2, 421236, Note_on_c, 0, 54, 0
2, 421290, Note_on_c, 0, 55, 66
2, 421394, Note_on_c, 0, 55, 0
2, 421460, Note_on_c, 0, 57, 45
2, 421542, Note_on_c, 0, 57, 0
2, 421628, Note_on_c, 0, 58, 46
2, 421742, Note_on_c, 0, 58, 0
2, 422016, Note_on_c, 0, 60, 43
2, 422200, Note_on_c, 0, 60, 0
2, 422894, Note_on_c, 0, 60, 41
2, 423044, Note_on_c, 0, 62, 57
2, 423048, Note_on_c, 0, 60, 0
2, 423120, Note_on_c, 0, 62, 0
2, 423204, Note_on_c, 0, 64, 68
2, 423282, Note_on_c, 0, 64, 0
2, 423360, Note_on_c, 0, 66, 53
2, 423428, Note_on_c, 0, 66, 0
2, 423510, Note_on_c, 0, 67, 65
2, 423602, Note_on_c, 0, 67, 0
2, 423684, Note_on_c, 0, 69, 38
2, 423762, Note_on_c, 0, 69, 0
2, 423834, Note_on_c, 0, 70, 49
2, 423924, Note_on_c, 0, 70, 0
2, 424198, Note_on_c, 0, 72, 43
2, 424288, Note_on_c, 0, 72, 0
2, 424910, Note_on_c, 0, 72, 33
2, 425108, Note_on_c, 0, 74, 45
2, 425124, Note_on_c, 0, 72, 0
2, 425194, Note_on_c, 0, 74, 0
2, 425266, Note_on_c, 0, 76, 44
2, 425282, Control_c, 0, 64, 127
2, 425390, Note_on_c, 0, 78, 69
2, 425430, Note_on_c, 0, 76, 0
2, 425474, Note_on_c, 0, 78, 0
2, 425564, Note_on_c, 0, 79, 88
2, 425664, Note_on_c, 0, 79, 0
2, 425716, Note_on_c, 0, 81, 88
2, 425762, Note_on_c, 0, 81, 0
2, 425872, Note_on_c, 0, 82, 103
2, 425896, Control_c, 0, 64, 0
2, 425918, Note_on_c, 0, 82, 0
2, 426250, Control_c, 0, 64, 127
2, 426410, Note_on_c, 0, 59, 76
2, 426412, Note_on_c, 0, 66, 74
2, 426418, Note_on_c, 0, 71, 93
2, 426426, Note_on_c, 0, 69, 97
2, 426430, Note_on_c, 0, 75, 106
2, 426432, Note_on_c, 0, 78, 111
2, 426442, Note_on_c, 0, 83, 127
2, 426452, Note_on_c, 0, 59, 0
2, 426476, Note_on_c, 0, 66, 0
2, 426486, Note_on_c, 0, 69, 0
2, 426610, Note_on_c, 0, 75, 0
2, 426618, Note_on_c, 0, 71, 0
2, 426620, Note_on_c, 0, 78, 0
2, 426740, Note_on_c, 0, 83, 0
2, 426942, Control_c, 0, 64, 0
2, 427788, Note_on_c, 0, 64, 38
2, 427910, Control_c, 0, 64, 127
2, 427924, Note_on_c, 0, 64, 0
2, 427970, Note_on_c, 0, 71, 49
2, 428054, Note_on_c, 0, 71, 0
2, 428154, Note_on_c, 0, 64, 53
2, 428208, Note_on_c, 0, 64, 0
2, 428294, Note_on_c, 0, 71, 51
2, 428372, Note_on_c, 0, 71, 0
2, 428436, Note_on_c, 0, 64, 68
2, 428504, Note_on_c, 0, 64, 0
2, 428600, Note_on_c, 0, 71, 67
2, 428662, Control_c, 0, 64, 0
2, 428672, Note_on_c, 0, 71, 0
2, 428724, Note_on_c, 0, 63, 70
2, 428742, Note_on_c, 0, 68, 85
2, 428758, Note_on_c, 0, 64, 56
2, 428796, Note_on_c, 0, 63, 0
2, 428822, Note_on_c, 0, 64, 0
2, 428850, Note_on_c, 0, 68, 0
2, 428878, Note_on_c, 0, 71, 72
2, 428964, Note_on_c, 0, 71, 0
2, 429018, Note_on_c, 0, 68, 49
2, 429040, Note_on_c, 0, 73, 81
2, 429066, Note_on_c, 0, 64, 59
2, 429098, Note_on_c, 0, 73, 0
2, 429106, Note_on_c, 0, 68, 0
2, 429130, Note_on_c, 0, 64, 0
2, 429208, Note_on_c, 0, 71, 66
2, 429262, Control_c, 0, 64, 127
2, 429284, Note_on_c, 0, 71, 0
2, 429322, Control_c, 0, 64, 0
2, 429334, Note_on_c, 0, 61, 84
2, 429368, Note_on_c, 0, 66, 90
2, 429386, Note_on_c, 0, 64, 54
2, 429470, Note_on_c, 0, 64, 0
2, 429552, Note_on_c, 0, 71, 60
2, 429570, Control_c, 0, 64, 127
2, 429580, Note_on_c, 0, 61, 0
2, 429648, Note_on_c, 0, 71, 0
2, 429724, Note_on_c, 0, 64, 54
2, 429790, Note_on_c, 0, 64, 0
2, 429875, Note_on_c, 0, 66, 0
2, 429902, Note_on_c, 0, 71, 62
2, 430000, Note_on_c, 0, 71, 0
2, 430072, Note_on_c, 0, 64, 53
2, 430138, Note_on_c, 0, 64, 0
2, 430220, Note_on_c, 0, 71, 61
2, 430292, Note_on_c, 0, 71, 0
2, 430360, Note_on_c, 0, 64, 65
2, 430368, Control_c, 0, 64, 0
2, 430500, Note_on_c, 0, 64, 0
2, 430518, Note_on_c, 0, 71, 72
2, 430584, Note_on_c, 0, 71, 0
2, 430602, Note_on_c, 0, 70, 66
2, 430628, Note_on_c, 0, 75, 100
2, 430666, Note_on_c, 0, 70, 0
2, 430674, Note_on_c, 0, 64, 68
2, 430740, Note_on_c, 0, 75, 0
2, 430743, Note_on_c, 0, 64, 0
2, 430820, Note_on_c, 0, 71, 60
2, 430888, Note_on_c, 0, 71, 0
2, 430930, Note_on_c, 0, 75, 70
2, 430940, Note_on_c, 0, 80, 106
2, 430954, Note_on_c, 0, 64, 66
2, 430976, Note_on_c, 0, 75, 0
2, 431014, Note_on_c, 0, 64, 0
2, 431052, Note_on_c, 0, 80, 0
2, 431106, Control_c, 0, 64, 127
2, 431118, Note_on_c, 0, 71, 62
2, 431168, Control_c, 0, 64, 0
2, 431182, Note_on_c, 0, 71, 0
2, 431236, Note_on_c, 0, 68, 80
2, 431272, Note_on_c, 0, 73, 80
2, 431292, Note_on_c, 0, 64, 44
2, 431358, Note_on_c, 0, 64, 0
2, 431364, Note_on_c, 0, 68, 0
2, 431382, Control_c, 0, 64, 127
2, 431442, Note_on_c, 0, 71, 51
2, 431514, Note_on_c, 0, 73, 0
2, 431516, Note_on_c, 0, 71, 0
2, 431584, Note_on_c, 0, 64, 52
2, 431648, Note_on_c, 0, 64, 0
2, 431744, Note_on_c, 0, 71, 52
2, 431820, Note_on_c, 0, 71, 0
2, 431898, Note_on_c, 0, 64, 47
2, 431958, Note_on_c, 0, 64, 0
2, 432058, Note_on_c, 0, 71, 53
2, 432132, Note_on_c, 0, 71, 0
2, 432212, Control_c, 0, 64, 0
2, 432215, Note_on_c, 0, 64, 47
2, 432288, Note_on_c, 0, 64, 0
2, 432360, Note_on_c, 0, 71, 52
2, 432444, Note_on_c, 0, 71, 0
2, 432488, Note_on_c, 0, 63, 68
2, 432504, Note_on_c, 0, 68, 79
2, 432516, Note_on_c, 0, 64, 59
2, 432538, Note_on_c, 0, 63, 0
2, 432572, Note_on_c, 0, 68, 0
2, 432582, Note_on_c, 0, 64, 0
2, 432662, Note_on_c, 0, 71, 64
2, 432762, Note_on_c, 0, 71, 0
2, 432780, Note_on_c, 0, 68, 66
2, 432800, Note_on_c, 0, 73, 76
2, 432818, Note_on_c, 0, 64, 58
2, 432850, Note_on_c, 0, 73, 0
2, 432850, Note_on_c, 0, 68, 0
2, 432880, Note_on_c, 0, 64, 0
2, 432958, Note_on_c, 0, 71, 58
2, 433038, Note_on_c, 0, 71, 0
2, 433060, Note_on_c, 0, 61, 72
2, 433098, Note_on_c, 0, 66, 46
2, 433100, Note_on_c, 0, 64, 53
2, 433118, Note_on_c, 0, 61, 0
2, 433164, Note_on_c, 0, 64, 0
2, 433170, Note_on_c, 0, 66, 0
2, 433242, Note_on_c, 0, 71, 54
2, 433324, Note_on_c, 0, 71, 0
2, 433350, Note_on_c, 0, 70, 89
2, 433370, Note_on_c, 0, 75, 103
2, 433380, Note_on_c, 0, 64, 66
2, 433448, Note_on_c, 0, 70, 0
2, 433451, Note_on_c, 0, 64, 0
2, 433472, Control_c, 0, 64, 127
2, 433500, Note_on_c, 0, 75, 0
2, 433524, Note_on_c, 0, 71, 69
2, 433548, Control_c, 0, 64, 0
2, 433606, Note_on_c, 0, 71, 0
2, 433658, Note_on_c, 0, 75, 89
2, 433668, Note_on_c, 0, 64, 62
2, 433672, Note_on_c, 0, 80, 106
2, 433712, Note_on_c, 0, 75, 0
2, 433758, Note_on_c, 0, 64, 0
2, 433766, Note_on_c, 0, 80, 0
2, 433778, Control_c, 0, 64, 127
2, 433826, Note_on_c, 0, 71, 72
2, 433856, Control_c, 0, 64, 0
2, 433910, Note_on_c, 0, 71, 0
2, 433934, Note_on_c, 0, 68, 77
2, 433978, Note_on_c, 0, 64, 60
2, 433978, Note_on_c, 0, 73, 69
2, 433988, Note_on_c, 0, 68, 0
2, 434040, Note_on_c, 0, 73, 0
2, 434040, Note_on_c, 0, 64, 0
2, 434086, Control_c, 0, 64, 127
2, 434112, Note_on_c, 0, 71, 57
2, 434132, Control_c, 0, 64, 0
2, 434190, Note_on_c, 0, 71, 0
2, 434242, Note_on_c, 0, 63, 67
2, 434258, Note_on_c, 0, 68, 62
2, 434264, Note_on_c, 0, 64, 57
2, 434292, Note_on_c, 0, 63, 0
2, 434324, Note_on_c, 0, 68, 0
2, 434332, Note_on_c, 0, 64, 0
2, 434364, Control_c, 0, 64, 127
2, 434394, Control_c, 0, 64, 0
2, 434402, Note_on_c, 0, 71, 66
2, 434492, Note_on_c, 0, 71, 0
2, 434524, Note_on_c, 0, 73, 65
2, 434527, Note_on_c, 0, 68, 49
2, 434570, Note_on_c, 0, 64, 47
2, 434592, Note_on_c, 0, 73, 0
2, 434598, Note_on_c, 0, 68, 0
2, 434624, Control_c, 0, 64, 127
2, 434630, Note_on_c, 0, 64, 0
2, 434654, Control_c, 0, 64, 0
2, 434710, Note_on_c, 0, 71, 51
2, 434792, Note_on_c, 0, 71, 0
2, 434798, Note_on_c, 0, 61, 64
2, 434858, Note_on_c, 0, 61, 0
2, 434858, Note_on_c, 0, 66, 53
2, 434866, Note_on_c, 0, 64, 49
2, 434900, Control_c, 0, 64, 127
2, 434916, Note_on_c, 0, 66, 0
2, 434930, Note_on_c, 0, 64, 0
2, 435008, Control_c, 0, 64, 0
2, 435016, Note_on_c, 0, 71, 50
2, 435094, Note_on_c, 0, 71, 0
2, 435099, Note_on_c, 0, 70, 80
2, 435122, Note_on_c, 0, 75, 98
2, 435144, Note_on_c, 0, 64, 66
2, 435186, Note_on_c, 0, 70, 0
2, 435208, Control_c, 0, 64, 127
2, 435210, Note_on_c, 0, 64, 0
2, 435230, Note_on_c, 0, 75, 0
2, 435266, Note_on_c, 0, 71, 74
2, 435270, Control_c, 0, 64, 0
2, 435376, Note_on_c, 0, 71, 0
2, 435400, Note_on_c, 0, 75, 80
2, 435408, Note_on_c, 0, 80, 99
2, 435426, Note_on_c, 0, 64, 64
2, 435460, Note_on_c, 0, 75, 0
2, 435498, Note_on_c, 0, 80, 0
2, 435498, Control_c, 0, 64, 127
2, 435538, Note_on_c, 0, 64, 0
2, 435576, Note_on_c, 0, 71, 80
2, 435632, Note_on_c, 0, 71, 0
2, 435654, Control_c, 0, 64, 0
2, 435708, Note_on_c, 0, 68, 80
2, 435710, Note_on_c, 0, 73, 84
2, 435782, Note_on_c, 0, 68, 0
2, 435834, Note_on_c, 0, 73, 0
2, 435854, Control_c, 0, 64, 127
2, 435874, Note_on_c, 0, 71, 83
2, 435876, Note_on_c, 0, 64, 64
2, 435938, Note_on_c, 0, 71, 0
2, 435940, Note_on_c, 0, 64, 0
2, 436008, Note_on_c, 0, 63, 76
2, 436010, Note_on_c, 0, 68, 67
2, 436068, Note_on_c, 0, 63, 0
2, 436132, Note_on_c, 0, 68, 0
2, 436158, Note_on_c, 0, 71, 84
2, 436172, Note_on_c, 0, 64, 64
2, 436230, Note_on_c, 0, 64, 0
2, 436234, Note_on_c, 0, 71, 0
2, 436298, Note_on_c, 0, 73, 84
2, 436312, Note_on_c, 0, 68, 64
2, 436371, Note_on_c, 0, 68, 0
2, 436420, Note_on_c, 0, 73, 0
2, 436448, Note_on_c, 0, 71, 88
2, 436452, Control_c, 0, 64, 0
2, 436460, Note_on_c, 0, 64, 73
2, 436552, Note_on_c, 0, 64, 0
2, 436566, Note_on_c, 0, 71, 0
2, 436598, Note_on_c, 0, 68, 81
2, 436602, Note_on_c, 0, 63, 85
2, 436652, Control_c, 0, 64, 127
2, 436676, Note_on_c, 0, 63, 0
2, 436740, Note_on_c, 0, 68, 0
2, 436746, Note_on_c, 0, 71, 80
2, 436766, Note_on_c, 0, 64, 66
2, 436828, Note_on_c, 0, 64, 0
2, 436836, Control_c, 0, 64, 0
2, 436854, Note_on_c, 0, 71, 0
2, 436890, Note_on_c, 0, 73, 72
2, 436898, Note_on_c, 0, 68, 58
2, 436968, Note_on_c, 0, 68, 0
2, 437022, Note_on_c, 0, 73, 0
2, 437036, Control_c, 0, 64, 127
2, 437042, Note_on_c, 0, 71, 75
2, 437068, Note_on_c, 0, 64, 53
2, 437122, Note_on_c, 0, 71, 0
2, 437124, Note_on_c, 0, 64, 0
2, 437185, Note_on_c, 0, 63, 66
2, 437188, Note_on_c, 0, 68, 49
2, 437258, Note_on_c, 0, 63, 0
2, 437288, Note_on_c, 0, 68, 0
2, 437298, Control_c, 0, 64, 0
2, 437334, Note_on_c, 0, 71, 69
2, 437354, Note_on_c, 0, 64, 57
2, 437420, Note_on_c, 0, 64, 0
2, 437432, Note_on_c, 0, 71, 0
2, 437484, Note_on_c, 0, 73, 57
2, 437496, Note_on_c, 0, 68, 39
2, 437498, Control_c, 0, 64, 127
2, 437572, Note_on_c, 0, 68, 0
2, 437586, Note_on_c, 0, 73, 0
2, 437646, Note_on_c, 0, 71, 61
2, 437666, Control_c, 0, 64, 0
2, 437674, Note_on_c, 0, 64, 49
2, 437730, Note_on_c, 0, 71, 0
2, 437738, Note_on_c, 0, 64, 0
2, 437772, Note_on_c, 0, 68, 43
2, 437778, Note_on_c, 0, 63, 44
2, 437820, Control_c, 0, 64, 127
2, 437850, Note_on_c, 0, 63, 0
2, 437874, Note_on_c, 0, 68, 0
2, 437954, Note_on_c, 0, 71, 45
2, 437986, Note_on_c, 0, 64, 16
2, 438030, Note_on_c, 0, 71, 0
2, 438050, Note_on_c, 0, 64, 0
2, 438050, Control_c, 0, 64, 0
2, 438084, Note_on_c, 0, 73, 38
2, 438100, Note_on_c, 0, 68, 34
2, 438158, Control_c, 0, 64, 127
2, 438170, Note_on_c, 0, 73, 0
2, 438172, Note_on_c, 0, 68, 0
2, 438228, Note_on_c, 0, 71, 46
2, 438276, Note_on_c, 0, 64, 30
2, 438296, Control_c, 0, 64, 0
2, 438316, Note_on_c, 0, 71, 0
2, 438342, Note_on_c, 0, 64, 0
2, 438358, Note_on_c, 0, 68, 37
2, 438370, Note_on_c, 0, 63, 45
2, 438388, Control_c, 0, 64, 127
2, 438442, Note_on_c, 0, 63, 0
2, 438466, Control_c, 0, 64, 0
2, 438470, Note_on_c, 0, 68, 0
2, 438536, Note_on_c, 0, 71, 49
2, 438548, Note_on_c, 0, 64, 44
2, 438572, Control_c, 0, 64, 127
2, 438618, Note_on_c, 0, 64, 0
2, 438618, Note_on_c, 0, 71, 0
2, 438618, Control_c, 0, 64, 0
2, 438658, Note_on_c, 0, 68, 37
2, 438658, Note_on_c, 0, 73, 47
2, 438738, Note_on_c, 0, 68, 0
2, 438742, Note_on_c, 0, 73, 0
2, 438808, Note_on_c, 0, 71, 54
2, 438829, Note_on_c, 0, 64, 41
2, 438894, Note_on_c, 0, 64, 0
2, 438894, Note_on_c, 0, 71, 0
2, 438936, Note_on_c, 0, 68, 42
2, 438946, Note_on_c, 0, 63, 46
2, 439012, Note_on_c, 0, 63, 0
2, 439034, Note_on_c, 0, 68, 0
2, 439104, Note_on_c, 0, 71, 53
2, 439116, Note_on_c, 0, 64, 37
2, 439228, Note_on_c, 0, 64, 0
2, 439240, Note_on_c, 0, 71, 0
2, 439300, Note_on_c, 0, 68, 39
2, 439306, Note_on_c, 0, 63, 34
2, 439434, Note_on_c, 0, 63, 0
2, 439434, Control_c, 0, 64, 127
2, 439510, Note_on_c, 0, 68, 0
2, 439756, Control_c, 0, 64, 0
2, 440358, Note_on_c, 0, 71, 41
2, 440361, Note_on_c, 0, 63, 36
2, 440364, Note_on_c, 0, 59, 34
2, 440366, Note_on_c, 0, 68, 23
2, 440368, Note_on_c, 0, 56, 21
2, 440446, Control_c, 0, 64, 127
2, 440498, Note_on_c, 0, 59, 0
2, 440526, Note_on_c, 0, 63, 0
2, 440548, Note_on_c, 0, 71, 0
2, 440551, Note_on_c, 0, 56, 0
2, 440602, Note_on_c, 0, 68, 0
2, 440662, Control_c, 0, 64, 0
2, 441378, Note_on_c, 0, 52, 50
2, 441544, Note_on_c, 0, 59, 45
2, 441554, Control_c, 0, 64, 127
2, 441620, Note_on_c, 0, 52, 0
2, 441628, Note_on_c, 0, 59, 0
2, 441702, Note_on_c, 0, 64, 37
2, 441790, Note_on_c, 0, 64, 0
2, 441828, Note_on_c, 0, 68, 47
2, 441898, Note_on_c, 0, 68, 0
2, 442004, Note_on_c, 0, 76, 66
2, 442054, Note_on_c, 0, 76, 0
2, 442144, Note_on_c, 0, 80, 73
2, 442236, Note_on_c, 0, 80, 0
2, 442340, Note_on_c, 0, 88, 81
2, 442416, Note_on_c, 0, 88, 0
2, 443648, Note_on_c, 0, 100, 73
2, 443713, Note_on_c, 0, 100, 0
2, 445440, Control_c, 0, 64, 0
2, 447360, Control_c, 0, 64, 0
2, 451200, Control_c, 0, 64, 127
2, 451200, Note_on_c, 0, 76, 22
2, 451266, Control_c, 0, 64, 0
2, 451270, Note_on_c, 0, 76, 0
2, 451438, Note_on_c, 0, 77, 47
2, 451496, Note_on_c, 0, 77, 0
2, 451676, Note_on_c, 0, 79, 54
2, 451742, Note_on_c, 0, 79, 0
2, 451916, Note_on_c, 0, 81, 52
2, 451976, Note_on_c, 0, 81, 0
2, 452142, Note_on_c, 0, 76, 45
2, 452204, Note_on_c, 0, 76, 0
2, 452360, Note_on_c, 0, 77, 60
2, 452426, Note_on_c, 0, 77, 0
2, 452592, Note_on_c, 0, 79, 68
2, 452660, Note_on_c, 0, 79, 0
2, 452830, Note_on_c, 0, 81, 56
2, 452890, Note_on_c, 0, 81, 0
2, 453000, Note_on_c, 0, 64, 60
2, 453056, Note_on_c, 0, 64, 0
2, 453096, Note_on_c, 0, 76, 53
2, 453152, Note_on_c, 0, 76, 0
2, 453228, Note_on_c, 0, 65, 45
2, 453288, Note_on_c, 0, 65, 0
2, 453304, Note_on_c, 0, 77, 68
2, 453364, Note_on_c, 0, 77, 0
2, 453424, Note_on_c, 0, 67, 52
2, 453496, Note_on_c, 0, 67, 0
2, 453540, Note_on_c, 0, 79, 65
2, 453600, Note_on_c, 0, 79, 0
2, 453644, Note_on_c, 0, 69, 49
2, 453708, Note_on_c, 0, 69, 0
2, 453754, Note_on_c, 0, 81, 51
2, 453814, Note_on_c, 0, 81, 0
2, 453854, Note_on_c, 0, 64, 57
2, 453904, Note_on_c, 0, 64, 0
2, 453954, Note_on_c, 0, 76, 43
2, 454018, Note_on_c, 0, 76, 0
2, 454072, Note_on_c, 0, 65, 42
2, 454136, Note_on_c, 0, 65, 0
2, 454154, Note_on_c, 0, 77, 50
2, 454210, Note_on_c, 0, 77, 0
2, 454290, Note_on_c, 0, 67, 34
2, 454372, Note_on_c, 0, 79, 57
2, 454382, Note_on_c, 0, 67, 0
2, 454438, Note_on_c, 0, 79, 0
2, 454498, Note_on_c, 0, 69, 46
2, 454560, Note_on_c, 0, 69, 0
2, 454620, Note_on_c, 0, 81, 45
2, 454684, Note_on_c, 0, 81, 0
2, 454750, Note_on_c, 0, 70, 60
2, 454766, Note_on_c, 0, 64, 57
2, 454846, Note_on_c, 0, 64, 0
2, 454858, Note_on_c, 0, 76, 57
2, 454920, Note_on_c, 0, 76, 0
2, 455010, Note_on_c, 0, 65, 38
2, 455080, Note_on_c, 0, 65, 0
2, 455090, Note_on_c, 0, 77, 49
2, 455166, Note_on_c, 0, 77, 0
2, 455202, Note_on_c, 0, 67, 56
2, 455276, Note_on_c, 0, 67, 0
2, 455306, Note_on_c, 0, 79, 61
2, 455366, Note_on_c, 0, 79, 0
2, 455416, Note_on_c, 0, 69, 53
2, 455486, Note_on_c, 0, 69, 0
2, 455514, Note_on_c, 0, 81, 53
2, 455572, Note_on_c, 0, 81, 0
2, 455638, Note_on_c, 0, 64, 52
2, 455698, Note_on_c, 0, 64, 0
2, 455732, Note_on_c, 0, 76, 44
2, 455798, Note_on_c, 0, 76, 0
2, 455892, Note_on_c, 0, 65, 19
2, 455954, Note_on_c, 0, 77, 49
2, 455959, Note_on_c, 0, 65, 0
2, 456032, Note_on_c, 0, 77, 0
2, 456106, Note_on_c, 0, 67, 41
2, 456180, Note_on_c, 0, 79, 60
2, 456184, Note_on_c, 0, 67, 0
2, 456242, Note_on_c, 0, 79, 0
2, 456274, Control_c, 0, 64, 127
2, 456309, Note_on_c, 0, 69, 53
2, 456379, Note_on_c, 0, 69, 0
2, 456412, Note_on_c, 0, 81, 42
2, 456448, Note_on_c, 0, 70, 0
2, 456478, Note_on_c, 0, 81, 0
2, 456526, Note_on_c, 0, 72, 87
2, 456548, Note_on_c, 0, 64, 75
2, 456632, Note_on_c, 0, 64, 0
2, 456650, Note_on_c, 0, 76, 49
2, 456714, Note_on_c, 0, 76, 0
2, 456766, Control_c, 0, 64, 0
2, 456768, Note_on_c, 0, 65, 60
2, 456822, Note_on_c, 0, 65, 0
2, 456854, Note_on_c, 0, 77, 65
2, 456930, Note_on_c, 0, 77, 0
2, 456978, Note_on_c, 0, 67, 64
2, 457048, Note_on_c, 0, 67, 0
2, 457088, Note_on_c, 0, 79, 64
2, 457152, Note_on_c, 0, 79, 0
2, 457198, Note_on_c, 0, 69, 54
2, 457274, Note_on_c, 0, 69, 0
2, 457312, Note_on_c, 0, 81, 44
2, 457378, Note_on_c, 0, 81, 0
2, 457392, Note_on_c, 0, 64, 80
2, 457458, Note_on_c, 0, 64, 0
2, 457512, Note_on_c, 0, 76, 46
2, 457578, Note_on_c, 0, 76, 0
2, 457622, Note_on_c, 0, 65, 53
2, 457680, Note_on_c, 0, 65, 0
2, 457712, Note_on_c, 0, 77, 56
2, 457774, Note_on_c, 0, 77, 0
2, 457828, Note_on_c, 0, 67, 53
2, 457904, Note_on_c, 0, 67, 0
2, 457934, Note_on_c, 0, 79, 57
2, 458004, Note_on_c, 0, 79, 0
2, 458040, Note_on_c, 0, 69, 49
2, 458116, Note_on_c, 0, 69, 0
2, 458118, Control_c, 0, 64, 127
2, 458138, Note_on_c, 0, 72, 0
2, 458148, Note_on_c, 0, 81, 45
2, 458212, Note_on_c, 0, 81, 0
2, 458262, Note_on_c, 0, 70, 88
2, 458282, Note_on_c, 0, 64, 64
2, 458368, Note_on_c, 0, 64, 0
2, 458372, Note_on_c, 0, 76, 51
2, 458410, Control_c, 0, 64, 0
2, 458438, Note_on_c, 0, 76, 0
2, 458510, Note_on_c, 0, 65, 33
2, 458588, Note_on_c, 0, 65, 0
2, 458588, Note_on_c, 0, 77, 54
2, 458656, Note_on_c, 0, 77, 0
2, 458688, Control_c, 0, 64, 127
2, 458718, Note_on_c, 0, 67, 52
2, 458790, Note_on_c, 0, 67, 0
2, 458804, Note_on_c, 0, 79, 70
2, 458864, Note_on_c, 0, 79, 0
2, 458936, Note_on_c, 0, 69, 47
2, 459008, Note_on_c, 0, 69, 0
2, 459042, Note_on_c, 0, 81, 51
2, 459056, Control_c, 0, 64, 0
2, 459102, Note_on_c, 0, 81, 0
2, 459160, Note_on_c, 0, 64, 68
2, 459224, Note_on_c, 0, 64, 0
2, 459262, Note_on_c, 0, 76, 43
2, 459326, Note_on_c, 0, 76, 0
2, 459386, Note_on_c, 0, 65, 29
2, 459458, Note_on_c, 0, 65, 0
2, 459472, Note_on_c, 0, 77, 42
2, 459532, Note_on_c, 0, 77, 0
2, 459598, Note_on_c, 0, 67, 37
2, 459676, Note_on_c, 0, 67, 0
2, 459692, Note_on_c, 0, 79, 43
2, 459770, Note_on_c, 0, 79, 0
2, 459804, Note_on_c, 0, 69, 43
2, 459878, Note_on_c, 0, 69, 0
2, 459900, Control_c, 0, 64, 127
2, 459920, Note_on_c, 0, 70, 0
2, 459920, Note_on_c, 0, 81, 31
2, 459998, Note_on_c, 0, 81, 0
2, 460028, Note_on_c, 0, 73, 62
2, 460070, Note_on_c, 0, 64, 60
2, 460070, Control_c, 0, 64, 0
2, 460144, Note_on_c, 0, 64, 0
2, 460154, Note_on_c, 0, 76, 42
2, 460228, Note_on_c, 0, 76, 0
2, 460284, Note_on_c, 0, 65, 45
2, 460350, Note_on_c, 0, 65, 0
2, 460360, Note_on_c, 0, 77, 49
2, 460424, Note_on_c, 0, 77, 0
2, 460494, Note_on_c, 0, 67, 46
2, 460566, Note_on_c, 0, 67, 0
2, 460590, Note_on_c, 0, 79, 52
2, 460658, Note_on_c, 0, 79, 0
2, 460698, Note_on_c, 0, 69, 43
2, 460776, Note_on_c, 0, 69, 0
2, 460806, Note_on_c, 0, 81, 44
2, 460872, Note_on_c, 0, 81, 0
2, 460916, Note_on_c, 0, 64, 62
2, 460984, Note_on_c, 0, 64, 0
2, 461026, Note_on_c, 0, 76, 41
2, 461092, Note_on_c, 0, 76, 0
2, 461144, Note_on_c, 0, 65, 44
2, 461210, Note_on_c, 0, 65, 0
2, 461258, Note_on_c, 0, 77, 27
2, 461334, Note_on_c, 0, 77, 0
2, 461370, Note_on_c, 0, 67, 46
2, 461442, Note_on_c, 0, 67, 0
2, 461456, Note_on_c, 0, 79, 53
2, 461532, Note_on_c, 0, 79, 0
2, 461586, Note_on_c, 0, 69, 44
2, 461660, Note_on_c, 0, 69, 0
2, 461682, Control_c, 0, 64, 127
2, 461702, Note_on_c, 0, 73, 0
2, 461702, Note_on_c, 0, 81, 27
2, 461782, Note_on_c, 0, 81, 0
2, 461792, Control_c, 0, 64, 0
2, 461832, Note_on_c, 0, 74, 42
2, 461844, Note_on_c, 0, 62, 77
2, 461898, Note_on_c, 0, 74, 0
2, 461954, Note_on_c, 0, 76, 38
2, 462028, Note_on_c, 0, 76, 0
2, 462068, Note_on_c, 0, 72, 68
2, 462130, Note_on_c, 0, 72, 0
2, 462178, Note_on_c, 0, 77, 43
2, 462240, Note_on_c, 0, 77, 0
2, 462264, Note_on_c, 0, 70, 62
2, 462318, Note_on_c, 0, 70, 0
2, 462372, Note_on_c, 0, 79, 54
2, 462438, Note_on_c, 0, 79, 0
2, 462468, Note_on_c, 0, 69, 62
2, 462522, Note_on_c, 0, 69, 0
2, 462582, Note_on_c, 0, 81, 44
2, 462646, Note_on_c, 0, 81, 0
2, 462684, Note_on_c, 0, 72, 76
2, 462734, Note_on_c, 0, 72, 0
2, 462780, Note_on_c, 0, 74, 52
2, 462838, Note_on_c, 0, 74, 0
2, 462872, Note_on_c, 0, 70, 60
2, 462932, Note_on_c, 0, 70, 0
2, 462980, Note_on_c, 0, 76, 46
2, 463042, Note_on_c, 0, 76, 0
2, 463076, Note_on_c, 0, 69, 57
2, 463136, Note_on_c, 0, 69, 0
2, 463174, Note_on_c, 0, 77, 49
2, 463230, Note_on_c, 0, 77, 0
2, 463282, Note_on_c, 0, 67, 68
2, 463306, Note_on_c, 0, 62, 0
2, 463336, Note_on_c, 0, 67, 0
2, 463342, Control_c, 0, 64, 127
2, 463398, Note_on_c, 0, 79, 45
2, 463469, Note_on_c, 0, 74, 42
2, 463470, Note_on_c, 0, 79, 0
2, 463480, Note_on_c, 0, 62, 87
2, 463528, Control_c, 0, 64, 0
2, 463535, Note_on_c, 0, 74, 0
2, 463602, Note_on_c, 0, 76, 54
2, 463666, Note_on_c, 0, 76, 0
2, 463706, Note_on_c, 0, 72, 77
2, 463760, Note_on_c, 0, 72, 0
2, 463800, Note_on_c, 0, 77, 64
2, 463856, Note_on_c, 0, 77, 0
2, 463900, Note_on_c, 0, 70, 74
2, 463958, Note_on_c, 0, 70, 0
2, 464010, Note_on_c, 0, 79, 72
2, 464066, Note_on_c, 0, 79, 0
2, 464104, Note_on_c, 0, 69, 67
2, 464158, Note_on_c, 0, 69, 0
2, 464202, Note_on_c, 0, 81, 66
2, 464260, Note_on_c, 0, 81, 0
2, 464318, Note_on_c, 0, 72, 69
2, 464376, Note_on_c, 0, 72, 0
2, 464408, Note_on_c, 0, 74, 65
2, 464460, Note_on_c, 0, 74, 0
2, 464506, Note_on_c, 0, 70, 60
2, 464570, Note_on_c, 0, 70, 0
2, 464608, Note_on_c, 0, 76, 62
2, 464662, Note_on_c, 0, 76, 0
2, 464714, Note_on_c, 0, 69, 47
2, 464782, Note_on_c, 0, 69, 0
2, 464806, Note_on_c, 0, 77, 60
2, 464858, Note_on_c, 0, 77, 0
2, 464918, Note_on_c, 0, 67, 66
2, 464956, Note_on_c, 0, 62, 0
2, 464974, Note_on_c, 0, 67, 0
2, 465010, Note_on_c, 0, 79, 72
2, 465018, Control_c, 0, 64, 127
2, 465064, Control_c, 0, 64, 0
2, 465066, Note_on_c, 0, 79, 0
2, 465112, Note_on_c, 0, 69, 64
2, 465118, Note_on_c, 0, 62, 83
2, 465176, Note_on_c, 0, 69, 0
2, 465202, Note_on_c, 0, 76, 61
2, 465270, Note_on_c, 0, 76, 0
2, 465312, Note_on_c, 0, 72, 87
2, 465366, Note_on_c, 0, 72, 0
2, 465406, Note_on_c, 0, 77, 73
2, 465460, Note_on_c, 0, 77, 0
2, 465502, Note_on_c, 0, 70, 76
2, 465556, Note_on_c, 0, 70, 0
2, 465608, Note_on_c, 0, 74, 72
2, 465660, Note_on_c, 0, 74, 0
2, 465704, Note_on_c, 0, 67, 77
2, 465764, Note_on_c, 0, 67, 0
2, 465810, Note_on_c, 0, 76, 61
2, 465870, Note_on_c, 0, 76, 0
2, 465902, Note_on_c, 0, 69, 67
2, 465960, Note_on_c, 0, 69, 0
2, 466004, Note_on_c, 0, 72, 61
2, 466062, Note_on_c, 0, 72, 0
2, 466092, Note_on_c, 0, 65, 68
2, 466150, Note_on_c, 0, 65, 0
2, 466196, Note_on_c, 0, 74, 67
2, 466246, Note_on_c, 0, 74, 0
2, 466294, Note_on_c, 0, 67, 59
2, 466354, Note_on_c, 0, 67, 0
2, 466374, Note_on_c, 0, 70, 59
2, 466440, Note_on_c, 0, 70, 0
2, 466492, Note_on_c, 0, 64, 75
2, 466538, Note_on_c, 0, 64, 0
2, 466542, Note_on_c, 0, 62, 0
2, 466570, Note_on_c, 0, 72, 66
2, 466620, Note_on_c, 0, 72, 0
2, 466690, Note_on_c, 0, 69, 43
2, 466694, Note_on_c, 0, 62, 72
2, 466758, Note_on_c, 0, 69, 0
2, 466762, Note_on_c, 0, 76, 70
2, 466816, Note_on_c, 0, 76, 0
2, 466896, Note_on_c, 0, 72, 73
2, 466950, Note_on_c, 0, 72, 0
2, 466980, Note_on_c, 0, 77, 73
2, 467034, Note_on_c, 0, 77, 0
2, 467100, Note_on_c, 0, 70, 64
2, 467160, Note_on_c, 0, 70, 0
2, 467186, Note_on_c, 0, 74, 75
2, 467236, Note_on_c, 0, 74, 0
2, 467302, Note_on_c, 0, 67, 65
2, 467358, Note_on_c, 0, 67, 0
2, 467386, Note_on_c, 0, 76, 57
2, 467442, Note_on_c, 0, 76, 0
2, 467488, Note_on_c, 0, 69, 66
2, 467550, Note_on_c, 0, 69, 0
2, 467602, Note_on_c, 0, 72, 56
2, 467664, Note_on_c, 0, 72, 0
2, 467698, Note_on_c, 0, 65, 66
2, 467760, Note_on_c, 0, 65, 0
2, 467796, Note_on_c, 0, 74, 66
2, 467848, Note_on_c, 0, 74, 0
2, 467912, Note_on_c, 0, 69, 45
2, 467976, Note_on_c, 0, 69, 0
2, 467982, Note_on_c, 0, 76, 51
2, 468046, Note_on_c, 0, 76, 0
2, 468116, Note_on_c, 0, 74, 68
2, 468156, Note_on_c, 0, 62, 0
2, 468168, Note_on_c, 0, 74, 0
2, 468228, Control_c, 0, 64, 127
2, 468234, Note_on_c, 0, 77, 56
2, 468294, Note_on_c, 0, 77, 0
2, 468362, Note_on_c, 0, 73, 69
2, 468368, Control_c, 0, 64, 0
2, 468470, Note_on_c, 0, 73, 0
2, 468478, Note_on_c, 0, 77, 54
2, 468520, Control_c, 0, 64, 127
2, 468542, Note_on_c, 0, 77, 0
2, 468612, Note_on_c, 0, 81, 72
2, 468682, Note_on_c, 0, 81, 0
2, 468716, Note_on_c, 0, 76, 54
2, 468774, Note_on_c, 0, 76, 0
2, 468812, Note_on_c, 0, 73, 65
2, 468870, Note_on_c, 0, 73, 0
2, 468920, Note_on_c, 0, 77, 74
2, 468970, Note_on_c, 0, 77, 0
2, 469034, Note_on_c, 0, 81, 75
2, 469106, Note_on_c, 0, 81, 0
2, 469128, Note_on_c, 0, 76, 60
2, 469184, Note_on_c, 0, 76, 0
2, 469226, Note_on_c, 0, 73, 74
2, 469226, Control_c, 0, 64, 0
2, 469338, Note_on_c, 0, 77, 77
2, 469370, Note_on_c, 0, 73, 0
2, 469380, Control_c, 0, 64, 127
2, 469398, Note_on_c, 0, 77, 0
2, 469442, Note_on_c, 0, 79, 83
2, 469516, Note_on_c, 0, 79, 0
2, 469538, Note_on_c, 0, 76, 66
2, 469602, Note_on_c, 0, 76, 0
2, 469654, Note_on_c, 0, 73, 69
2, 469708, Note_on_c, 0, 73, 0
2, 469764, Note_on_c, 0, 77, 69
2, 469820, Note_on_c, 0, 77, 0
2, 469854, Note_on_c, 0, 79, 84
2, 469912, Note_on_c, 0, 79, 0
2, 469962, Note_on_c, 0, 76, 74
2, 470018, Note_on_c, 0, 76, 0
2, 470042, Control_c, 0, 64, 0
2, 470048, Note_on_c, 0, 70, 93
2, 470068, Note_on_c, 0, 73, 72
2, 470176, Note_on_c, 0, 77, 74
2, 470196, Note_on_c, 0, 73, 0
2, 470226, Control_c, 0, 64, 127
2, 470246, Note_on_c, 0, 77, 0
2, 470300, Note_on_c, 0, 82, 77
2, 470366, Note_on_c, 0, 82, 0
2, 470404, Note_on_c, 0, 76, 59
2, 470460, Note_on_c, 0, 76, 0
2, 470530, Note_on_c, 0, 73, 51
2, 470584, Note_on_c, 0, 73, 0
2, 470608, Note_on_c, 0, 77, 70
2, 470662, Note_on_c, 0, 77, 0
2, 470734, Note_on_c, 0, 82, 62
2, 470800, Note_on_c, 0, 82, 0
2, 470834, Note_on_c, 0, 76, 49
2, 470892, Note_on_c, 0, 76, 0
2, 470956, Note_on_c, 0, 73, 51
2, 471012, Note_on_c, 0, 73, 0
2, 471050, Note_on_c, 0, 77, 54
2, 471110, Note_on_c, 0, 77, 0
2, 471150, Note_on_c, 0, 82, 59
2, 471224, Note_on_c, 0, 82, 0
2, 471272, Note_on_c, 0, 76, 46
2, 471334, Note_on_c, 0, 76, 0
2, 471386, Note_on_c, 0, 73, 51
2, 471440, Note_on_c, 0, 73, 0
2, 471476, Note_on_c, 0, 77, 57
2, 471532, Note_on_c, 0, 77, 0
2, 471574, Note_on_c, 0, 82, 57
2, 471640, Note_on_c, 0, 82, 0
2, 471680, Note_on_c, 0, 76, 53
2, 471738, Note_on_c, 0, 76, 0
2, 471778, Control_c, 0, 64, 0
2, 471788, Note_on_c, 0, 73, 52
2, 471850, Note_on_c, 0, 73, 0
2, 471894, Note_on_c, 0, 77, 51
2, 471962, Note_on_c, 0, 77, 0
2, 471978, Control_c, 0, 64, 127
2, 471981, Note_on_c, 0, 81, 64
2, 472016, Note_on_c, 0, 70, 0
2, 472042, Note_on_c, 0, 81, 0
2, 472092, Note_on_c, 0, 76, 47
2, 472158, Note_on_c, 0, 76, 0
2, 472198, Note_on_c, 0, 73, 50
2, 472256, Note_on_c, 0, 73, 0
2, 472314, Note_on_c, 0, 77, 45
2, 472374, Note_on_c, 0, 77, 0
2, 472396, Note_on_c, 0, 81, 59
2, 472450, Note_on_c, 0, 81, 0
2, 472502, Note_on_c, 0, 76, 50
2, 472562, Note_on_c, 0, 76, 0
2, 472606, Note_on_c, 0, 73, 56
2, 472608, Control_c, 0, 64, 0
2, 472716, Note_on_c, 0, 77, 49
2, 472750, Note_on_c, 0, 73, 0
2, 472776, Control_c, 0, 64, 127
2, 472780, Note_on_c, 0, 77, 0
2, 472788, Note_on_c, 0, 79, 64
2, 472850, Note_on_c, 0, 79, 0
2, 472904, Note_on_c, 0, 76, 46
2, 472968, Note_on_c, 0, 76, 0
2, 473010, Note_on_c, 0, 73, 44
2, 473078, Note_on_c, 0, 73, 0
2, 473124, Note_on_c, 0, 77, 46
2, 473182, Note_on_c, 0, 77, 0
2, 473234, Note_on_c, 0, 79, 45
2, 473304, Note_on_c, 0, 79, 0
2, 473346, Note_on_c, 0, 76, 38
2, 473408, Note_on_c, 0, 76, 0
2, 473498, Control_c, 0, 64, 0
2, 473510, Note_on_c, 0, 73, 54
2, 473518, Note_on_c, 0, 66, 49
2, 473520, Note_on_c, 0, 70, 53
2, 473654, Note_on_c, 0, 70, 0
2, 473658, Note_on_c, 0, 73, 0
2, 473660, Note_on_c, 0, 75, 57
2, 473668, Control_c, 0, 64, 127
2, 473670, Note_on_c, 0, 66, 0
2, 473724, Note_on_c, 0, 75, 0
2, 473814, Note_on_c, 0, 82, 72
2, 473860, Note_on_c, 0, 82, 0
2, 473936, Note_on_c, 0, 77, 42
2, 473998, Note_on_c, 0, 77, 0
2, 474070, Note_on_c, 0, 73, 24
2, 474126, Note_on_c, 0, 75, 57
2, 474148, Note_on_c, 0, 73, 0
2, 474186, Note_on_c, 0, 75, 0
2, 474254, Note_on_c, 0, 82, 29
2, 474318, Note_on_c, 0, 82, 0
2, 474328, Note_on_c, 0, 77, 57
2, 474386, Note_on_c, 0, 77, 0
2, 474436, Control_c, 0, 64, 0
2, 474462, Note_on_c, 0, 70, 74
2, 474464, Note_on_c, 0, 63, 80
2, 474466, Note_on_c, 0, 66, 64
2, 474595, Note_on_c, 0, 66, 0
2, 474602, Note_on_c, 0, 63, 0
2, 474602, Note_on_c, 0, 71, 54
2, 474620, Control_c, 0, 64, 127
2, 474622, Note_on_c, 0, 70, 0
2, 474674, Note_on_c, 0, 71, 0
2, 474710, Note_on_c, 0, 78, 81
2, 474766, Note_on_c, 0, 78, 0
2, 474790, Note_on_c, 0, 73, 60
2, 474872, Note_on_c, 0, 73, 0
2, 474934, Note_on_c, 0, 70, 52
2, 474992, Note_on_c, 0, 70, 0
2, 475010, Note_on_c, 0, 71, 77
2, 475070, Note_on_c, 0, 71, 0
2, 475120, Note_on_c, 0, 78, 58
2, 475176, Note_on_c, 0, 78, 0
2, 475218, Note_on_c, 0, 73, 66
2, 475279, Note_on_c, 0, 73, 0
2, 475282, Control_c, 0, 64, 0
2, 475326, Note_on_c, 0, 73, 45
2, 475327, Note_on_c, 0, 66, 67
2, 475332, Note_on_c, 0, 70, 58
2, 475431, Note_on_c, 0, 70, 0
2, 475434, Note_on_c, 0, 66, 0
2, 475434, Note_on_c, 0, 75, 70
2, 475436, Note_on_c, 0, 73, 0
2, 475450, Control_c, 0, 64, 127
2, 475508, Note_on_c, 0, 75, 0
2, 475566, Note_on_c, 0, 82, 89
2, 475630, Note_on_c, 0, 82, 0
2, 475668, Note_on_c, 0, 77, 61
2, 475728, Note_on_c, 0, 77, 0
2, 475798, Note_on_c, 0, 73, 62
2, 475852, Note_on_c, 0, 73, 0
2, 475884, Note_on_c, 0, 75, 66
2, 475938, Note_on_c, 0, 75, 0
2, 475998, Note_on_c, 0, 82, 46
2, 476076, Note_on_c, 0, 82, 0
2, 476086, Note_on_c, 0, 77, 58
2, 476146, Note_on_c, 0, 77, 0
2, 476158, Control_c, 0, 64, 0
2, 476196, Note_on_c, 0, 70, 60
2, 476204, Note_on_c, 0, 66, 54
2, 476206, Note_on_c, 0, 63, 69
2, 476262, Note_on_c, 0, 63, 0
2, 476268, Note_on_c, 0, 70, 0
2, 476274, Note_on_c, 0, 66, 0
2, 476308, Note_on_c, 0, 71, 56
2, 476311, Control_c, 0, 64, 127
2, 476374, Note_on_c, 0, 71, 0
2, 476402, Note_on_c, 0, 78, 81
2, 476464, Note_on_c, 0, 78, 0
2, 476488, Note_on_c, 0, 73, 53
2, 476556, Note_on_c, 0, 73, 0
2, 476614, Note_on_c, 0, 70, 60
2, 476682, Note_on_c, 0, 70, 0
2, 476724, Note_on_c, 0, 71, 68
2, 476786, Note_on_c, 0, 71, 0
2, 476826, Note_on_c, 0, 78, 70
2, 476874, Note_on_c, 0, 78, 0
2, 476960, Note_on_c, 0, 73, 59
2, 477016, Note_on_c, 0, 73, 0
2, 477142, Control_c, 0, 64, 0
2, 477144, Note_on_c, 0, 66, 52
2, 477148, Note_on_c, 0, 59, 37
2, 477150, Note_on_c, 0, 63, 74
2, 477294, Note_on_c, 0, 68, 57
2, 477316, Note_on_c, 0, 59, 0
2, 477316, Note_on_c, 0, 66, 0
2, 477326, Note_on_c, 0, 63, 0
2, 477326, Control_c, 0, 64, 127
2, 477364, Note_on_c, 0, 68, 0
2, 477466, Note_on_c, 0, 75, 67
2, 477520, Note_on_c, 0, 75, 0
2, 477572, Note_on_c, 0, 70, 42
2, 477656, Note_on_c, 0, 70, 0
2, 477690, Note_on_c, 0, 66, 36
2, 477768, Note_on_c, 0, 66, 0
2, 477776, Note_on_c, 0, 68, 58
2, 477844, Note_on_c, 0, 68, 0
2, 477876, Note_on_c, 0, 75, 61
2, 477940, Note_on_c, 0, 75, 0
2, 477994, Note_on_c, 0, 70, 60
2, 478052, Note_on_c, 0, 70, 0
2, 478082, Note_on_c, 0, 66, 62
2, 478140, Note_on_c, 0, 66, 0
2, 478192, Note_on_c, 0, 68, 56
2, 478252, Note_on_c, 0, 68, 0
2, 478286, Note_on_c, 0, 75, 57
2, 478344, Note_on_c, 0, 75, 0
2, 478368, Note_on_c, 0, 70, 57
2, 478438, Note_on_c, 0, 70, 0
2, 478484, Note_on_c, 0, 66, 51
2, 478546, Note_on_c, 0, 66, 0
2, 478580, Note_on_c, 0, 68, 53
2, 478644, Note_on_c, 0, 68, 0
2, 478674, Note_on_c, 0, 75, 70
2, 478728, Note_on_c, 0, 75, 0
2, 478774, Note_on_c, 0, 70, 45
2, 478846, Note_on_c, 0, 70, 0
2, 478872, Note_on_c, 0, 63, 106
2, 478875, Control_c, 0, 64, 0
2, 478894, Note_on_c, 0, 66, 56
2, 478976, Note_on_c, 0, 66, 0
2, 479002, Note_on_c, 0, 68, 56
2, 479046, Control_c, 0, 64, 127
2, 479068, Note_on_c, 0, 68, 0
2, 479122, Note_on_c, 0, 75, 67
2, 479170, Note_on_c, 0, 63, 0
2, 479180, Note_on_c, 0, 75, 0
2, 479214, Note_on_c, 0, 70, 60
2, 479290, Note_on_c, 0, 70, 0
2, 479334, Note_on_c, 0, 66, 52
2, 479398, Note_on_c, 0, 66, 0
2, 479446, Note_on_c, 0, 68, 50
2, 479514, Note_on_c, 0, 68, 0
2, 479514, Note_on_c, 0, 75, 66
2, 479574, Note_on_c, 0, 75, 0
2, 479636, Note_on_c, 0, 70, 53
2, 479690, Control_c, 0, 64, 0
2, 479706, Note_on_c, 0, 61, 97
2, 479716, Note_on_c, 0, 70, 0
2, 479738, Note_on_c, 0, 63, 69
2, 479738, Note_on_c, 0, 66, 53
2, 479822, Note_on_c, 0, 66, 0
2, 479834, Note_on_c, 0, 68, 60
2, 479844, Control_c, 0, 64, 127
2, 479890, Note_on_c, 0, 61, 0
2, 479906, Note_on_c, 0, 68, 0
2, 479906, Note_on_c, 0, 63, 0
2, 479966, Note_on_c, 0, 75, 64
2, 480028, Note_on_c, 0, 75, 0
2, 480034, Note_on_c, 0, 70, 54
2, 480118, Note_on_c, 0, 70, 0
2, 480170, Note_on_c, 0, 66, 53
2, 480238, Note_on_c, 0, 66, 0
2, 480282, Note_on_c, 0, 68, 45
2, 480356, Note_on_c, 0, 68, 0
2, 480364, Note_on_c, 0, 75, 53
2, 480420, Note_on_c, 0, 75, 0
2, 480474, Note_on_c, 0, 70, 42
2, 480564, Note_on_c, 0, 70, 0
2, 480628, Control_c, 0, 64, 0
2, 480630, Note_on_c, 0, 59, 69
2, 480646, Note_on_c, 0, 66, 49
2, 480652, Note_on_c, 0, 63, 52
2, 480726, Note_on_c, 0, 66, 0
2, 480744, Note_on_c, 0, 63, 0
2, 480748, Note_on_c, 0, 68, 57
2, 480764, Note_on_c, 0, 59, 0
2, 480782, Control_c, 0, 64, 127
2, 480852, Note_on_c, 0, 68, 0
2, 480914, Note_on_c, 0, 75, 58
2, 480970, Note_on_c, 0, 75, 0
2, 481000, Note_on_c, 0, 70, 44
2, 481092, Note_on_c, 0, 70, 0
2, 481118, Note_on_c, 0, 66, 45
2, 481190, Note_on_c, 0, 66, 0
2, 481216, Note_on_c, 0, 68, 52
2, 481292, Note_on_c, 0, 68, 0
2, 481316, Note_on_c, 0, 75, 50
2, 481384, Note_on_c, 0, 75, 0
2, 481418, Note_on_c, 0, 70, 44
2, 481498, Note_on_c, 0, 70, 0
2, 481528, Note_on_c, 0, 66, 54
2, 481606, Note_on_c, 0, 66, 0
2, 481638, Note_on_c, 0, 68, 42
2, 481718, Note_on_c, 0, 68, 0
2, 481744, Note_on_c, 0, 75, 53
2, 481808, Note_on_c, 0, 75, 0
2, 481848, Note_on_c, 0, 70, 36
2, 481932, Note_on_c, 0, 70, 0
2, 481948, Note_on_c, 0, 66, 46
2, 482014, Note_on_c, 0, 66, 0
2, 482046, Note_on_c, 0, 68, 44
2, 482130, Note_on_c, 0, 68, 0
2, 482140, Note_on_c, 0, 75, 62
2, 482202, Note_on_c, 0, 75, 0
2, 482244, Note_on_c, 0, 70, 45
2, 482332, Note_on_c, 0, 70, 0
2, 482364, Control_c, 0, 64, 0
2, 482378, Note_on_c, 0, 63, 75
2, 482382, Note_on_c, 0, 66, 57
2, 482466, Note_on_c, 0, 68, 51
2, 482468, Note_on_c, 0, 66, 0
2, 482546, Note_on_c, 0, 68, 0
2, 482548, Control_c, 0, 64, 127
2, 482602, Note_on_c, 0, 75, 60
2, 482676, Note_on_c, 0, 75, 0
2, 482702, Note_on_c, 0, 70, 51
2, 482792, Note_on_c, 0, 70, 0
2, 482852, Note_on_c, 0, 66, 43
2, 482920, Note_on_c, 0, 68, 41
2, 482928, Note_on_c, 0, 66, 0
2, 483004, Note_on_c, 0, 68, 0
2, 483024, Note_on_c, 0, 75, 57
2, 483080, Note_on_c, 0, 75, 0
2, 483098, Note_on_c, 0, 63, 0
2, 483132, Note_on_c, 0, 70, 39
2, 483212, Note_on_c, 0, 61, 79
2, 483218, Note_on_c, 0, 70, 0
2, 483226, Control_c, 0, 64, 0
2, 483240, Note_on_c, 0, 63, 42
2, 483244, Note_on_c, 0, 66, 45
2, 483324, Note_on_c, 0, 66, 0
2, 483330, Note_on_c, 0, 68, 46
2, 483378, Control_c, 0, 64, 127
2, 483412, Note_on_c, 0, 68, 0
2, 483452, Note_on_c, 0, 75, 65
2, 483492, Note_on_c, 0, 61, 0
2, 483520, Note_on_c, 0, 75, 0
2, 483538, Note_on_c, 0, 70, 42
2, 483634, Note_on_c, 0, 70, 0
2, 483674, Note_on_c, 0, 66, 51
2, 483742, Note_on_c, 0, 66, 0
2, 483752, Note_on_c, 0, 63, 0
2, 483774, Note_on_c, 0, 68, 46
2, 483856, Note_on_c, 0, 68, 0
2, 483880, Note_on_c, 0, 75, 45
2, 483940, Note_on_c, 0, 75, 0
2, 483996, Note_on_c, 0, 70, 37
2, 484088, Note_on_c, 0, 70, 0
2, 484100, Control_c, 0, 64, 0
2, 484128, Note_on_c, 0, 60, 77
2, 484136, Note_on_c, 0, 63, 51
2, 484140, Note_on_c, 0, 66, 31
2, 484264, Note_on_c, 0, 68, 50
2, 484270, Control_c, 0, 64, 127
2, 484312, Note_on_c, 0, 60, 0
2, 484422, Note_on_c, 0, 75, 59
2, 484425, Note_on_c, 0, 66, 0
2, 484478, Note_on_c, 0, 75, 0
2, 484496, Note_on_c, 0, 68, 0
2, 484496, Note_on_c, 0, 70, 45
2, 484602, Note_on_c, 0, 70, 0
2, 484634, Note_on_c, 0, 66, 53
2, 484694, Note_on_c, 0, 63, 0
2, 484728, Note_on_c, 0, 66, 0
2, 484740, Note_on_c, 0, 68, 39
2, 484820, Note_on_c, 0, 68, 0
2, 484828, Note_on_c, 0, 75, 65
2, 484888, Note_on_c, 0, 75, 0
2, 484938, Note_on_c, 0, 70, 44
2, 485022, Note_on_c, 0, 70, 0
2, 485038, Control_c, 0, 64, 0
2, 485038, Note_on_c, 0, 61, 65
2, 485042, Note_on_c, 0, 63, 58
2, 485046, Note_on_c, 0, 66, 53
2, 485112, Note_on_c, 0, 63, 0
2, 485134, Note_on_c, 0, 66, 0
2, 485150, Note_on_c, 0, 61, 0
2, 485158, Note_on_c, 0, 68, 43
2, 485176, Control_c, 0, 64, 127
2, 485256, Note_on_c, 0, 68, 0
2, 485280, Note_on_c, 0, 77, 67
2, 485328, Note_on_c, 0, 77, 0
2, 485350, Note_on_c, 0, 70, 41
2, 485474, Note_on_c, 0, 70, 0
2, 485486, Note_on_c, 0, 66, 61
2, 485504, Note_on_c, 0, 58, 43
2, 485554, Note_on_c, 0, 66, 0
2, 485580, Note_on_c, 0, 58, 0
2, 485588, Note_on_c, 0, 68, 39
2, 485720, Note_on_c, 0, 77, 70
2, 485764, Note_on_c, 0, 77, 0
2, 485780, Note_on_c, 0, 70, 52
2, 485844, Note_on_c, 0, 68, 0
2, 485938, Note_on_c, 0, 70, 0
2, 485966, Note_on_c, 0, 60, 70
2, 485976, Note_on_c, 0, 63, 56
2, 485980, Note_on_c, 0, 66, 49
2, 485992, Control_c, 0, 64, 0
2, 486122, Note_on_c, 0, 68, 53
2, 486127, Note_on_c, 0, 60, 0
2, 486127, Control_c, 0, 64, 127
2, 486150, Note_on_c, 0, 63, 0
2, 486178, Note_on_c, 0, 66, 0
2, 486216, Note_on_c, 0, 68, 0
2, 486252, Note_on_c, 0, 75, 75
2, 486306, Note_on_c, 0, 75, 0
2, 486350, Note_on_c, 0, 70, 51
2, 486430, Note_on_c, 0, 70, 0
2, 486458, Note_on_c, 0, 66, 69
2, 486538, Note_on_c, 0, 66, 0
2, 486566, Note_on_c, 0, 68, 52
2, 486646, Note_on_c, 0, 68, 0
2, 486652, Note_on_c, 0, 75, 72
2, 486714, Note_on_c, 0, 75, 0
2, 486776, Note_on_c, 0, 70, 43
2, 486858, Note_on_c, 0, 70, 0
2, 486866, Note_on_c, 0, 61, 76
2, 486866, Control_c, 0, 64, 0
2, 486882, Note_on_c, 0, 66, 53
2, 486884, Note_on_c, 0, 63, 66
2, 486942, Note_on_c, 0, 63, 0
2, 486966, Note_on_c, 0, 66, 0
2, 486966, Note_on_c, 0, 61, 0
2, 486980, Note_on_c, 0, 68, 44
2, 487004, Control_c, 0, 64, 127
2, 487080, Note_on_c, 0, 68, 0
2, 487110, Note_on_c, 0, 77, 72
2, 487154, Note_on_c, 0, 77, 0
2, 487198, Note_on_c, 0, 70, 35
2, 487294, Note_on_c, 0, 70, 0
2, 487344, Note_on_c, 0, 58, 70
2, 487362, Note_on_c, 0, 66, 38
2, 487394, Note_on_c, 0, 58, 0
2, 487452, Note_on_c, 0, 66, 0
2, 487480, Note_on_c, 0, 68, 56
2, 487568, Note_on_c, 0, 68, 0
2, 487608, Note_on_c, 0, 77, 76
2, 487650, Note_on_c, 0, 77, 0
2, 487738, Note_on_c, 0, 70, 54
2, 487794, Note_on_c, 0, 70, 0
2, 488052, Note_on_c, 0, 78, 108
2, 488106, Note_on_c, 0, 54, 53
2, 488138, Note_on_c, 0, 60, 36
2, 488188, Control_c, 0, 64, 0
2, 488248, Note_on_c, 0, 60, 0
2, 488254, Note_on_c, 0, 66, 38
2, 488356, Note_on_c, 0, 66, 0
2, 488358, Note_on_c, 0, 62, 43
2, 488404, Control_c, 0, 64, 127
2, 488424, Note_on_c, 0, 62, 0
2, 488434, Note_on_c, 0, 68, 67
2, 488494, Note_on_c, 0, 68, 0
2, 488530, Note_on_c, 0, 54, 0
2, 488572, Note_on_c, 0, 60, 46
2, 488642, Note_on_c, 0, 60, 0
2, 488664, Note_on_c, 0, 66, 47
2, 488728, Note_on_c, 0, 66, 0
2, 488766, Note_on_c, 0, 62, 57
2, 488820, Note_on_c, 0, 62, 0
2, 488866, Note_on_c, 0, 68, 53
2, 488932, Note_on_c, 0, 68, 0
2, 488986, Control_c, 0, 64, 0
2, 489010, Note_on_c, 0, 50, 60
2, 489016, Note_on_c, 0, 74, 100
2, 489026, Note_on_c, 0, 60, 43
2, 489114, Note_on_c, 0, 60, 0
2, 489154, Note_on_c, 0, 78, 0
2, 489157, Note_on_c, 0, 50, 0
2, 489157, Control_c, 0, 64, 127
2, 489162, Note_on_c, 0, 66, 59
2, 489236, Note_on_c, 0, 66, 0
2, 489264, Note_on_c, 0, 62, 59
2, 489322, Note_on_c, 0, 62, 0
2, 489362, Note_on_c, 0, 68, 60
2, 489418, Note_on_c, 0, 68, 0
2, 489488, Note_on_c, 0, 60, 57
2, 489548, Note_on_c, 0, 60, 0
2, 489586, Note_on_c, 0, 66, 39
2, 489658, Note_on_c, 0, 66, 0
2, 489698, Note_on_c, 0, 62, 66
2, 489748, Note_on_c, 0, 62, 0
2, 489788, Note_on_c, 0, 68, 57
2, 489856, Note_on_c, 0, 68, 0
2, 489908, Control_c, 0, 64, 0
2, 489920, Note_on_c, 0, 76, 85
2, 489930, Note_on_c, 0, 52, 72
2, 489936, Note_on_c, 0, 60, 42
2, 490004, Note_on_c, 0, 74, 0
2, 490062, Note_on_c, 0, 66, 50
2, 490096, Note_on_c, 0, 60, 0
2, 490108, Control_c, 0, 64, 127
2, 490158, Note_on_c, 0, 66, 0
2, 490158, Note_on_c, 0, 52, 0
2, 490182, Note_on_c, 0, 62, 34
2, 490252, Note_on_c, 0, 62, 0
2, 490262, Note_on_c, 0, 68, 42
2, 490330, Note_on_c, 0, 68, 0
2, 490368, Note_on_c, 0, 60, 52
2, 490432, Note_on_c, 0, 60, 0
2, 490472, Note_on_c, 0, 66, 37
2, 490556, Note_on_c, 0, 66, 0
2, 490556, Note_on_c, 0, 62, 65
2, 490620, Note_on_c, 0, 62, 0
2, 490672, Note_on_c, 0, 68, 53
2, 490732, Note_on_c, 0, 68, 0
2, 490780, Note_on_c, 0, 60, 66
2, 490834, Note_on_c, 0, 60, 0
2, 490848, Note_on_c, 0, 66, 54
2, 490916, Note_on_c, 0, 66, 0
2, 490978, Note_on_c, 0, 62, 70
2, 491030, Note_on_c, 0, 62, 0
2, 491050, Note_on_c, 0, 68, 61
2, 491088, Note_on_c, 0, 76, 0
2, 491118, Note_on_c, 0, 68, 0
2, 491202, Note_on_c, 0, 76, 92
2, 491212, Note_on_c, 0, 52, 73
2, 491212, Note_on_c, 0, 60, 62
2, 491214, Control_c, 0, 64, 0
2, 491304, Note_on_c, 0, 60, 0
2, 491350, Note_on_c, 0, 66, 61
2, 491368, Control_c, 0, 64, 127
2, 491376, Note_on_c, 0, 52, 0
2, 491412, Note_on_c, 0, 62, 52
2, 491420, Note_on_c, 0, 66, 0
2, 491476, Note_on_c, 0, 62, 0
2, 491550, Note_on_c, 0, 68, 58
2, 491564, Note_on_c, 0, 76, 0
2, 491606, Note_on_c, 0, 68, 0
2, 491708, Note_on_c, 0, 78, 99
2, 491722, Note_on_c, 0, 54, 64
2, 491722, Control_c, 0, 64, 0
2, 491722, Note_on_c, 0, 60, 50
2, 491808, Note_on_c, 0, 60, 0
2, 491874, Note_on_c, 0, 66, 41
2, 491906, Control_c, 0, 64, 127
2, 491952, Note_on_c, 0, 62, 37
2, 491964, Note_on_c, 0, 66, 0
2, 491996, Note_on_c, 0, 54, 0
2, 492024, Note_on_c, 0, 62, 0
2, 492060, Note_on_c, 0, 68, 53
2, 492078, Note_on_c, 0, 78, 0
2, 492118, Note_on_c, 0, 68, 0
2, 492206, Note_on_c, 0, 78, 90
2, 492248, Note_on_c, 0, 60, 36
2, 492336, Note_on_c, 0, 60, 0
2, 492364, Note_on_c, 0, 66, 41
2, 492440, Note_on_c, 0, 66, 0
2, 492448, Note_on_c, 0, 62, 53
2, 492506, Note_on_c, 0, 62, 0
2, 492536, Note_on_c, 0, 68, 42
2, 492590, Note_on_c, 0, 78, 0
2, 492614, Note_on_c, 0, 68, 0
2, 492644, Control_c, 0, 64, 0
2, 492668, Note_on_c, 0, 74, 88
2, 492670, Note_on_c, 0, 60, 57
2, 492674, Note_on_c, 0, 50, 58
2, 492748, Note_on_c, 0, 60, 0
2, 492790, Note_on_c, 0, 50, 0
2, 492792, Control_c, 0, 64, 127
2, 492832, Note_on_c, 0, 66, 44
2, 492898, Note_on_c, 0, 62, 44
2, 492930, Note_on_c, 0, 74, 0
2, 492962, Note_on_c, 0, 62, 0
2, 492986, Note_on_c, 0, 66, 0
2, 493004, Note_on_c, 0, 68, 54
2, 493074, Note_on_c, 0, 68, 0
2, 493122, Note_on_c, 0, 60, 39
2, 493140, Note_on_c, 0, 74, 79
2, 493206, Note_on_c, 0, 60, 0
2, 493326, Note_on_c, 0, 66, 34
2, 493329, Note_on_c, 0, 62, 60
2, 493382, Note_on_c, 0, 62, 0
2, 493444, Note_on_c, 0, 66, 0
2, 493484, Note_on_c, 0, 74, 0
2, 493490, Note_on_c, 0, 68, 42
2, 493566, Note_on_c, 0, 68, 0
2, 493596, Control_c, 0, 64, 0
2, 493628, Note_on_c, 0, 76, 73
2, 493638, Note_on_c, 0, 60, 45
2, 493644, Note_on_c, 0, 52, 44
2, 493770, Note_on_c, 0, 66, 53
2, 493774, Note_on_c, 0, 60, 0
2, 493780, Control_c, 0, 64, 127
2, 493808, Note_on_c, 0, 52, 0
2, 493840, Note_on_c, 0, 66, 0
2, 493918, Note_on_c, 0, 62, 42
2, 493990, Note_on_c, 0, 62, 0
2, 494000, Note_on_c, 0, 68, 49
2, 494066, Note_on_c, 0, 68, 0
2, 494116, Note_on_c, 0, 60, 51
2, 494182, Note_on_c, 0, 60, 0
2, 494192, Note_on_c, 0, 66, 46
2, 494260, Note_on_c, 0, 66, 0
2, 494316, Note_on_c, 0, 62, 56
2, 494376, Note_on_c, 0, 62, 0
2, 494388, Note_on_c, 0, 68, 50
2, 494450, Note_on_c, 0, 68, 0
2, 494526, Note_on_c, 0, 60, 57
2, 494586, Note_on_c, 0, 60, 0
2, 494598, Note_on_c, 0, 66, 39
2, 494704, Note_on_c, 0, 66, 0
2, 494726, Note_on_c, 0, 62, 51
2, 494784, Note_on_c, 0, 62, 0
2, 494810, Note_on_c, 0, 68, 45
2, 494880, Note_on_c, 0, 68, 0
2, 494948, Note_on_c, 0, 60, 44
2, 495018, Note_on_c, 0, 60, 0
2, 495034, Note_on_c, 0, 66, 35
2, 495074, Note_on_c, 0, 76, 0
2, 495162, Note_on_c, 0, 66, 0
2, 495164, Note_on_c, 0, 62, 42
2, 495244, Note_on_c, 0, 62, 0
2, 495254, Note_on_c, 0, 68, 42
2, 495338, Note_on_c, 0, 68, 0
2, 495394, Control_c, 0, 64, 0
2, 495424, Note_on_c, 0, 76, 75
2, 495440, Note_on_c, 0, 52, 43
2, 495440, Note_on_c, 0, 60, 36
2, 495516, Note_on_c, 0, 60, 0
2, 495562, Control_c, 0, 64, 127
2, 495578, Note_on_c, 0, 66, 42
2, 495580, Note_on_c, 0, 52, 0
2, 495688, Note_on_c, 0, 66, 0
2, 495696, Note_on_c, 0, 62, 36
2, 495766, Note_on_c, 0, 62, 0
2, 495780, Note_on_c, 0, 68, 51
2, 495848, Note_on_c, 0, 68, 0
2, 495918, Note_on_c, 0, 60, 36
2, 496002, Note_on_c, 0, 60, 0
2, 496005, Note_on_c, 0, 66, 35
2, 496084, Note_on_c, 0, 66, 0
2, 496134, Note_on_c, 0, 62, 53
2, 496190, Note_on_c, 0, 62, 0
2, 496192, Note_on_c, 0, 68, 51
2, 496332, Control_c, 0, 64, 0
2, 496352, Note_on_c, 0, 48, 54
2, 496360, Note_on_c, 0, 72, 62
2, 496368, Note_on_c, 0, 76, 0
2, 496368, Note_on_c, 0, 60, 29
2, 496376, Note_on_c, 0, 68, 0
2, 496492, Note_on_c, 0, 60, 0
2, 496496, Note_on_c, 0, 48, 0
2, 496502, Control_c, 0, 64, 127
2, 496520, Note_on_c, 0, 66, 38
2, 496616, Note_on_c, 0, 66, 0
2, 496648, Note_on_c, 0, 62, 31
2, 496712, Note_on_c, 0, 68, 49
2, 496718, Note_on_c, 0, 62, 0
2, 496812, Note_on_c, 0, 68, 0
2, 496848, Note_on_c, 0, 60, 45
2, 496918, Note_on_c, 0, 60, 0
2, 496992, Note_on_c, 0, 66, 29
2, 497074, Note_on_c, 0, 62, 57
2, 497094, Note_on_c, 0, 66, 0
2, 497132, Note_on_c, 0, 62, 0
2, 497206, Note_on_c, 0, 68, 34
2, 497284, Note_on_c, 0, 68, 0
2, 497330, Control_c, 0, 64, 0
2, 497364, Note_on_c, 0, 74, 72
2, 497369, Note_on_c, 0, 58, 35
2, 497372, Note_on_c, 0, 50, 53
2, 497416, Note_on_c, 0, 72, 0
2, 497542, Note_on_c, 0, 65, 43
2, 497564, Note_on_c, 0, 58, 0
2, 497570, Note_on_c, 0, 50, 0
2, 497576, Control_c, 0, 64, 127
2, 497638, Note_on_c, 0, 65, 0
2, 497696, Note_on_c, 0, 60, 27
2, 497758, Note_on_c, 0, 60, 0
2, 497758, Note_on_c, 0, 67, 54
2, 497836, Note_on_c, 0, 67, 0
2, 497882, Note_on_c, 0, 58, 47
2, 497952, Note_on_c, 0, 58, 0
2, 497984, Note_on_c, 0, 65, 43
2, 498054, Note_on_c, 0, 65, 0
2, 498086, Note_on_c, 0, 60, 56
2, 498154, Note_on_c, 0, 60, 0
2, 498166, Note_on_c, 0, 67, 59
2, 498242, Note_on_c, 0, 67, 0
2, 498290, Note_on_c, 0, 58, 50
2, 498362, Note_on_c, 0, 58, 0
2, 498390, Note_on_c, 0, 65, 35
2, 498480, Note_on_c, 0, 65, 0
2, 498512, Note_on_c, 0, 60, 47
2, 498546, Note_on_c, 0, 74, 0
2, 498564, Note_on_c, 0, 67, 50
2, 498580, Note_on_c, 0, 60, 0
2, 498640, Note_on_c, 0, 67, 0
2, 498728, Control_c, 0, 64, 0
2, 498734, Note_on_c, 0, 50, 41
2, 498734, Note_on_c, 0, 74, 100
2, 498746, Note_on_c, 0, 58, 30
2, 498896, Note_on_c, 0, 65, 37
2, 498898, Control_c, 0, 64, 127
2, 498910, Note_on_c, 0, 58, 0
2, 498932, Note_on_c, 0, 50, 0
2, 498952, Note_on_c, 0, 60, 56
2, 498976, Note_on_c, 0, 65, 0
2, 499012, Note_on_c, 0, 60, 0
2, 499038, Note_on_c, 0, 67, 53
2, 499046, Note_on_c, 0, 74, 0
2, 499104, Note_on_c, 0, 67, 0
2, 499194, Note_on_c, 0, 76, 92
2, 499204, Control_c, 0, 64, 0
2, 499206, Note_on_c, 0, 52, 72
2, 499206, Note_on_c, 0, 60, 41
2, 499354, Note_on_c, 0, 66, 46
2, 499379, Note_on_c, 0, 60, 0
2, 499388, Note_on_c, 0, 52, 0
2, 499388, Control_c, 0, 64, 127
2, 499424, Note_on_c, 0, 62, 47
2, 499456, Note_on_c, 0, 66, 0
2, 499482, Note_on_c, 0, 62, 0
2, 499500, Note_on_c, 0, 68, 61
2, 499526, Note_on_c, 0, 76, 0
2, 499550, Note_on_c, 0, 68, 0
2, 499628, Note_on_c, 0, 76, 76
2, 499666, Note_on_c, 0, 60, 39
2, 499746, Note_on_c, 0, 60, 0
2, 499804, Note_on_c, 0, 66, 38
2, 499846, Note_on_c, 0, 62, 58
2, 499898, Note_on_c, 0, 62, 0
2, 499908, Note_on_c, 0, 66, 0
2, 499956, Note_on_c, 0, 68, 56
2, 499978, Note_on_c, 0, 76, 0
2, 500018, Control_c, 0, 64, 0
2, 500058, Note_on_c, 0, 68, 0
2, 500058, Note_on_c, 0, 48, 54
2, 500066, Note_on_c, 0, 72, 75
2, 500072, Note_on_c, 0, 60, 41
2, 500176, Note_on_c, 0, 60, 0
2, 500196, Note_on_c, 0, 48, 0
2, 500202, Control_c, 0, 64, 127
2, 500242, Note_on_c, 0, 66, 31
2, 500298, Note_on_c, 0, 62, 50
2, 500342, Note_on_c, 0, 72, 0
2, 500362, Note_on_c, 0, 62, 0
2, 500365, Note_on_c, 0, 66, 0
2, 500376, Note_on_c, 0, 68, 36
2, 500476, Note_on_c, 0, 68, 0
2, 500508, Note_on_c, 0, 72, 69
2, 500532, Note_on_c, 0, 60, 28
2, 500600, Note_on_c, 0, 60, 0
2, 500710, Note_on_c, 0, 62, 58
2, 500713, Note_on_c, 0, 66, 30
2, 500772, Note_on_c, 0, 62, 0
2, 500806, Note_on_c, 0, 66, 0
2, 500848, Note_on_c, 0, 68, 50
2, 500910, Note_on_c, 0, 68, 0
2, 500920, Note_on_c, 0, 72, 0
2, 500972, Control_c, 0, 64, 0
2, 500979, Note_on_c, 0, 74, 80
2, 500980, Note_on_c, 0, 50, 56
2, 500986, Note_on_c, 0, 58, 37
2, 501144, Note_on_c, 0, 65, 44
2, 501157, Note_on_c, 0, 58, 0
2, 501198, Control_c, 0, 64, 127
2, 501224, Note_on_c, 0, 65, 0
2, 501252, Note_on_c, 0, 60, 52
2, 501324, Note_on_c, 0, 60, 0
2, 501352, Note_on_c, 0, 67, 51
2, 501428, Note_on_c, 0, 67, 0
2, 501472, Note_on_c, 0, 58, 45
2, 501540, Note_on_c, 0, 58, 0
2, 501556, Note_on_c, 0, 65, 49
2, 501622, Note_on_c, 0, 65, 0
2, 501676, Note_on_c, 0, 60, 49
2, 501744, Note_on_c, 0, 60, 0
2, 501754, Note_on_c, 0, 67, 50
2, 501828, Note_on_c, 0, 67, 0
2, 501874, Note_on_c, 0, 58, 37
2, 501958, Note_on_c, 0, 58, 0
2, 502010, Note_on_c, 0, 65, 24
2, 502102, Note_on_c, 0, 60, 45
2, 502104, Note_on_c, 0, 65, 0
2, 502178, Note_on_c, 0, 60, 0
2, 502202, Note_on_c, 0, 67, 37
2, 502300, Note_on_c, 0, 67, 0
2, 502310, Note_on_c, 0, 58, 35
2, 502386, Note_on_c, 0, 58, 0
2, 502422, Note_on_c, 0, 65, 39
2, 502498, Note_on_c, 0, 65, 0
2, 502542, Note_on_c, 0, 60, 37
2, 502556, Note_on_c, 0, 50, 0
2, 502612, Note_on_c, 0, 60, 0
2, 502644, Note_on_c, 0, 67, 44
2, 502686, Note_on_c, 0, 74, 0
2, 502738, Note_on_c, 0, 67, 0
2, 502822, Note_on_c, 0, 62, 72
2, 502822, Note_on_c, 0, 50, 79
2, 502846, Control_c, 0, 64, 0
2, 502888, Note_on_c, 0, 62, 0
2, 502928, Note_on_c, 0, 64, 54
2, 503004, Note_on_c, 0, 64, 0
2, 503032, Note_on_c, 0, 60, 74
2, 503106, Note_on_c, 0, 60, 0
2, 503132, Note_on_c, 0, 65, 54
2, 503200, Note_on_c, 0, 65, 0
2, 503242, Note_on_c, 0, 58, 51
2, 503304, Note_on_c, 0, 58, 0
2, 503340, Note_on_c, 0, 67, 53
2, 503418, Note_on_c, 0, 67, 0
2, 503444, Note_on_c, 0, 57, 54
2, 503502, Note_on_c, 0, 57, 0
2, 503556, Note_on_c, 0, 69, 46
2, 503630, Note_on_c, 0, 69, 0
2, 503664, Note_on_c, 0, 60, 77
2, 503738, Note_on_c, 0, 60, 0
2, 503756, Note_on_c, 0, 62, 92
2, 503826, Note_on_c, 0, 62, 0
2, 503862, Note_on_c, 0, 58, 47
2, 503932, Note_on_c, 0, 58, 0
2, 503970, Note_on_c, 0, 64, 53
2, 504030, Note_on_c, 0, 64, 0
2, 504092, Note_on_c, 0, 57, 43
2, 504156, Note_on_c, 0, 65, 58
2, 504158, Note_on_c, 0, 57, 0
2, 504198, Control_c, 0, 64, 127
2, 504214, Note_on_c, 0, 65, 0
2, 504308, Note_on_c, 0, 55, 59
2, 504336, Note_on_c, 0, 50, 0
2, 504364, Note_on_c, 0, 55, 0
2, 504392, Note_on_c, 0, 67, 60
2, 504488, Note_on_c, 0, 67, 0
2, 504506, Control_c, 0, 64, 0
2, 504522, Note_on_c, 0, 62, 85
2, 504538, Note_on_c, 0, 50, 87
2, 504628, Note_on_c, 0, 64, 70
2, 504638, Note_on_c, 0, 62, 0
2, 504644, Control_c, 0, 64, 127
2, 504686, Note_on_c, 0, 64, 0
2, 504748, Note_on_c, 0, 60, 73
2, 504822, Note_on_c, 0, 60, 0
2, 504838, Note_on_c, 0, 65, 57
2, 504890, Control_c, 0, 64, 0
2, 504896, Note_on_c, 0, 65, 0
2, 504936, Note_on_c, 0, 58, 53
2, 505004, Note_on_c, 0, 58, 0
2, 505012, Control_c, 0, 64, 127
2, 505030, Note_on_c, 0, 67, 60
2, 505118, Note_on_c, 0, 67, 0
2, 505140, Note_on_c, 0, 57, 62
2, 505194, Note_on_c, 0, 57, 0
2, 505258, Note_on_c, 0, 69, 36
2, 505320, Control_c, 0, 64, 0
2, 505340, Note_on_c, 0, 69, 0
2, 505354, Note_on_c, 0, 60, 70
2, 505452, Note_on_c, 0, 60, 0
2, 505454, Note_on_c, 0, 62, 83
2, 505512, Note_on_c, 0, 62, 0
2, 505552, Note_on_c, 0, 58, 45
2, 505630, Note_on_c, 0, 58, 0
2, 505642, Control_c, 0, 64, 127
2, 505678, Note_on_c, 0, 64, 45
2, 505742, Note_on_c, 0, 64, 0
2, 505780, Control_c, 0, 64, 0
2, 505788, Note_on_c, 0, 57, 31
2, 505872, Note_on_c, 0, 57, 0
2, 505882, Note_on_c, 0, 65, 42
2, 505950, Note_on_c, 0, 65, 0
2, 505980, Control_c, 0, 64, 127
2, 506024, Note_on_c, 0, 55, 39
2, 506096, Note_on_c, 0, 55, 0
2, 506099, Note_on_c, 0, 67, 49
2, 506136, Note_on_c, 0, 50, 0
2, 506172, Note_on_c, 0, 67, 0
2, 506348, Control_c, 0, 64, 0
2, 506353, Note_on_c, 0, 60, 75
2, 506410, Note_on_c, 0, 55, 62
2, 506538, Note_on_c, 0, 62, 53
2, 506562, Note_on_c, 0, 55, 0
2, 506580, Control_c, 0, 64, 127
2, 506620, Note_on_c, 0, 62, 0
2, 506674, Note_on_c, 0, 48, 33
2, 506724, Note_on_c, 0, 63, 68
2, 506748, Note_on_c, 0, 48, 0
2, 506808, Note_on_c, 0, 63, 0
2, 506874, Note_on_c, 0, 43, 58
2, 506952, Note_on_c, 0, 65, 54
2, 506966, Note_on_c, 0, 43, 0
2, 507050, Note_on_c, 0, 65, 0
2, 507104, Note_on_c, 0, 36, 38
2, 507164, Note_on_c, 0, 67, 68
2, 507210, Note_on_c, 0, 36, 0
2, 507232, Note_on_c, 0, 67, 0
2, 507336, Note_on_c, 0, 43, 58
2, 507400, Note_on_c, 0, 43, 0
2, 507408, Note_on_c, 0, 62, 68
2, 507474, Note_on_c, 0, 62, 0
2, 507566, Note_on_c, 0, 48, 56
2, 507622, Note_on_c, 0, 48, 0
2, 507638, Note_on_c, 0, 63, 65
2, 507812, Note_on_c, 0, 63, 0
2, 507822, Note_on_c, 0, 57, 61
2, 507888, Note_on_c, 0, 57, 0
2, 507924, Note_on_c, 0, 65, 42
2, 508002, Note_on_c, 0, 65, 0
2, 508068, Note_on_c, 0, 53, 88
2, 508126, Note_on_c, 0, 53, 0
2, 508164, Note_on_c, 0, 67, 51
2, 508196, Note_on_c, 0, 60, 0
2, 508248, Note_on_c, 0, 67, 0
2, 508362, Note_on_c, 0, 60, 93
2, 508376, Note_on_c, 0, 55, 67
2, 508408, Control_c, 0, 64, 0
2, 508522, Note_on_c, 0, 62, 82
2, 508554, Note_on_c, 0, 55, 0
2, 508604, Note_on_c, 0, 62, 0
2, 508607, Control_c, 0, 64, 127
2, 508650, Note_on_c, 0, 48, 47
2, 508704, Note_on_c, 0, 63, 75
2, 508714, Note_on_c, 0, 48, 0
2, 508782, Note_on_c, 0, 63, 0
2, 508856, Note_on_c, 0, 43, 51
2, 508910, Note_on_c, 0, 43, 0
2, 508914, Note_on_c, 0, 65, 60
2, 508990, Note_on_c, 0, 65, 0
2, 509074, Note_on_c, 0, 36, 53
2, 509150, Note_on_c, 0, 67, 54
2, 509160, Note_on_c, 0, 36, 0
2, 509226, Note_on_c, 0, 67, 0
2, 509306, Note_on_c, 0, 43, 54
2, 509380, Note_on_c, 0, 62, 60
2, 509384, Note_on_c, 0, 43, 0
2, 509450, Note_on_c, 0, 62, 0
2, 509546, Note_on_c, 0, 48, 49
2, 509606, Note_on_c, 0, 48, 0
2, 509616, Note_on_c, 0, 63, 45
2, 509716, Note_on_c, 0, 63, 0
2, 509810, Note_on_c, 0, 57, 23
2, 509898, Note_on_c, 0, 65, 42
2, 509914, Note_on_c, 0, 57, 0
2, 509998, Note_on_c, 0, 65, 0
2, 510046, Note_on_c, 0, 53, 65
2, 510110, Note_on_c, 0, 53, 0
2, 510174, Note_on_c, 0, 67, 45
2, 510258, Note_on_c, 0, 60, 0
2, 510306, Note_on_c, 0, 67, 0
2, 510384, Note_on_c, 0, 62, 74
2, 510452, Control_c, 0, 64, 0
2, 510668, Note_on_c, 0, 60, 45
2, 510744, Control_c, 0, 64, 127
2, 510812, Note_on_c, 0, 63, 76
2, 510818, Note_on_c, 0, 62, 0
2, 510842, Note_on_c, 0, 60, 0
2, 510986, Note_on_c, 0, 60, 39
2, 511036, Control_c, 0, 64, 0
2, 511092, Note_on_c, 0, 82, 87
2, 511126, Note_on_c, 0, 63, 0
2, 511154, Note_on_c, 0, 65, 58
2, 511174, Control_c, 0, 64, 127
2, 511182, Note_on_c, 0, 60, 0
2, 511312, Note_on_c, 0, 82, 0
2, 511338, Note_on_c, 0, 65, 0
2, 511368, Note_on_c, 0, 82, 96
2, 511371, Note_on_c, 0, 60, 46
2, 511452, Note_on_c, 0, 60, 0
2, 511508, Note_on_c, 0, 82, 0
2, 511516, Note_on_c, 0, 67, 68
2, 511582, Note_on_c, 0, 82, 88
2, 511694, Note_on_c, 0, 60, 51
2, 511712, Note_on_c, 0, 82, 0
2, 511804, Note_on_c, 0, 82, 85
2, 511828, Note_on_c, 0, 60, 0
2, 511852, Note_on_c, 0, 62, 58
2, 511962, Note_on_c, 0, 82, 0
2, 512004, Note_on_c, 0, 60, 52
2, 512010, Note_on_c, 0, 82, 113
2, 512020, Note_on_c, 0, 62, 0
2, 512024, Note_on_c, 0, 67, 0
2, 512118, Note_on_c, 0, 60, 0
2, 512124, Note_on_c, 0, 82, 0
2, 512136, Note_on_c, 0, 63, 76
2, 512168, Note_on_c, 0, 82, 115
2, 512284, Note_on_c, 0, 60, 68
2, 512292, Note_on_c, 0, 63, 0
2, 512300, Note_on_c, 0, 82, 0
2, 512346, Note_on_c, 0, 82, 111
2, 512364, Note_on_c, 0, 60, 0
2, 512430, Note_on_c, 0, 65, 66
2, 512468, Note_on_c, 0, 82, 0
2, 512528, Note_on_c, 0, 65, 0
2, 512540, Note_on_c, 0, 82, 97
2, 512578, Note_on_c, 0, 60, 69
2, 512650, Note_on_c, 0, 60, 0
2, 512658, Note_on_c, 0, 82, 0
2, 512724, Note_on_c, 0, 82, 96
2, 512738, Note_on_c, 0, 67, 61
2, 512858, Note_on_c, 0, 82, 0
2, 512962, Note_on_c, 0, 60, 30
2, 512998, Note_on_c, 0, 82, 93
2, 513080, Control_c, 0, 64, 0
2, 513102, Note_on_c, 0, 62, 54
2, 513110, Note_on_c, 0, 60, 0
2, 513278, Control_c, 0, 64, 127
2, 513386, Note_on_c, 0, 62, 0
2, 513388, Note_on_c, 0, 60, 36
2, 513472, Note_on_c, 0, 67, 0
2, 513482, Note_on_c, 0, 60, 0
2, 513484, Note_on_c, 0, 81, 90
2, 513510, Note_on_c, 0, 63, 60
2, 513628, Note_on_c, 0, 82, 0
2, 513682, Note_on_c, 0, 60, 47
2, 513764, Note_on_c, 0, 63, 0
2, 513784, Note_on_c, 0, 60, 0
2, 513814, Note_on_c, 0, 79, 106
2, 513850, Note_on_c, 0, 65, 49
2, 513902, Note_on_c, 0, 81, 0
2, 513936, Note_on_c, 0, 65, 0
2, 513978, Note_on_c, 0, 60, 50
2, 514050, Note_on_c, 0, 60, 0
2, 514100, Note_on_c, 0, 67, 70
2, 514223, Note_on_c, 0, 60, 65
2, 514360, Note_on_c, 0, 62, 80
2, 514374, Note_on_c, 0, 60, 0
2, 514376, Note_on_c, 0, 67, 0
2, 514514, Note_on_c, 0, 60, 64
2, 514536, Note_on_c, 0, 62, 0
2, 514636, Note_on_c, 0, 63, 90
2, 514644, Note_on_c, 0, 60, 0
2, 514694, Note_on_c, 0, 79, 0
2, 514756, Note_on_c, 0, 60, 49
2, 514782, Note_on_c, 0, 63, 0
2, 514902, Note_on_c, 0, 82, 108
2, 514934, Note_on_c, 0, 60, 0
2, 514942, Note_on_c, 0, 65, 61
2, 515130, Note_on_c, 0, 65, 0
2, 515150, Note_on_c, 0, 60, 65
2, 515200, Note_on_c, 0, 81, 110
2, 515264, Note_on_c, 0, 60, 0
2, 515306, Note_on_c, 0, 82, 0
2, 515316, Note_on_c, 0, 67, 62
2, 515400, Note_on_c, 0, 79, 120
2, 515454, Note_on_c, 0, 81, 0
2, 515484, Note_on_c, 0, 60, 47
2, 515490, Note_on_c, 0, 79, 0
2, 515596, Note_on_c, 0, 60, 0
2, 515598, Note_on_c, 0, 79, 100
2, 515598, Control_c, 0, 64, 0
2, 515620, Note_on_c, 0, 62, 59
2, 515768, Note_on_c, 0, 60, 60
2, 515782, Control_c, 0, 64, 127
2, 515787, Note_on_c, 0, 62, 0
2, 515810, Note_on_c, 0, 67, 0
2, 515906, Note_on_c, 0, 60, 0
2, 515922, Note_on_c, 0, 63, 60
2, 516072, Note_on_c, 0, 63, 0
2, 516096, Note_on_c, 0, 60, 50
2, 516274, Note_on_c, 0, 77, 77
2, 516290, Control_c, 0, 64, 0
2, 516312, Note_on_c, 0, 60, 0
2, 516317, Note_on_c, 0, 65, 47
2, 516386, Note_on_c, 0, 79, 0
2, 516460, Control_c, 0, 64, 127
2, 516474, Note_on_c, 0, 65, 0
2, 516502, Note_on_c, 0, 76, 67
2, 516504, Note_on_c, 0, 60, 43
2, 516558, Note_on_c, 0, 77, 0
2, 516656, Note_on_c, 0, 60, 0
2, 516668, Note_on_c, 0, 67, 56
2, 516681, Note_on_c, 0, 76, 0
2, 516681, Note_on_c, 0, 74, 77
2, 516752, Note_on_c, 0, 67, 0
2, 516844, Note_on_c, 0, 58, 42
2, 516872, Note_on_c, 0, 73, 66
2, 516890, Control_c, 0, 64, 0
2, 516920, Note_on_c, 0, 58, 0
2, 516942, Note_on_c, 0, 74, 0
2, 516994, Note_on_c, 0, 67, 49
2, 517058, Control_c, 0, 64, 127
2, 517078, Note_on_c, 0, 67, 0
2, 517134, Note_on_c, 0, 58, 34
2, 517178, Note_on_c, 0, 70, 57
2, 517206, Note_on_c, 0, 58, 0
2, 517268, Note_on_c, 0, 67, 45
2, 517274, Note_on_c, 0, 73, 0
2, 517342, Note_on_c, 0, 67, 0
2, 517374, Note_on_c, 0, 58, 52
2, 517436, Note_on_c, 0, 58, 0
2, 517506, Note_on_c, 0, 67, 53
2, 517574, Note_on_c, 0, 67, 0
2, 517600, Note_on_c, 0, 58, 50
2, 517668, Note_on_c, 0, 58, 0
2, 517744, Note_on_c, 0, 67, 60
2, 517806, Note_on_c, 0, 67, 0
2, 517826, Note_on_c, 0, 58, 52
2, 517908, Note_on_c, 0, 58, 0
2, 517966, Note_on_c, 0, 67, 75
2, 518024, Note_on_c, 0, 67, 0
2, 518070, Note_on_c, 0, 58, 56
2, 518166, Note_on_c, 0, 58, 0
2, 518202, Note_on_c, 0, 67, 54
2, 518264, Note_on_c, 0, 67, 0
2, 518302, Note_on_c, 0, 70, 0
2, 518318, Note_on_c, 0, 58, 57
2, 518398, Note_on_c, 0, 58, 0
2, 518444, Note_on_c, 0, 77, 96
2, 518472, Note_on_c, 0, 65, 60
2, 518472, Control_c, 0, 64, 0
2, 518608, Note_on_c, 0, 58, 41
2, 518610, Control_c, 0, 64, 127
2, 518613, Note_on_c, 0, 65, 0
2, 518670, Note_on_c, 0, 76, 70
2, 518710, Note_on_c, 0, 58, 0
2, 518772, Note_on_c, 0, 65, 53
2, 518798, Note_on_c, 0, 77, 0
2, 518828, Note_on_c, 0, 74, 81
2, 518882, Note_on_c, 0, 76, 0
2, 518886, Note_on_c, 0, 58, 27
2, 518890, Note_on_c, 0, 65, 0
2, 518980, Note_on_c, 0, 73, 91
2, 518982, Note_on_c, 0, 58, 0
2, 519006, Note_on_c, 0, 74, 0
2, 519014, Note_on_c, 0, 64, 80
2, 519024, Control_c, 0, 64, 0
2, 519154, Note_on_c, 0, 58, 68
2, 519180, Control_c, 0, 64, 127
2, 519183, Note_on_c, 0, 64, 0
2, 519222, Note_on_c, 0, 70, 88
2, 519270, Note_on_c, 0, 64, 69
2, 519288, Note_on_c, 0, 58, 0
2, 519324, Note_on_c, 0, 73, 0
2, 519370, Note_on_c, 0, 58, 58
2, 519382, Note_on_c, 0, 70, 0
2, 519396, Note_on_c, 0, 64, 0
2, 519486, Control_c, 0, 64, 0
2, 519486, Note_on_c, 0, 77, 114
2, 519520, Note_on_c, 0, 65, 99
2, 519542, Note_on_c, 0, 58, 0
2, 519640, Control_c, 0, 64, 127
2, 519650, Note_on_c, 0, 65, 0
2, 519664, Note_on_c, 0, 58, 69
2, 519694, Note_on_c, 0, 76, 105
2, 519738, Note_on_c, 0, 77, 0
2, 519794, Note_on_c, 0, 58, 0
2, 519800, Note_on_c, 0, 65, 84
2, 519826, Note_on_c, 0, 76, 0
2, 519829, Note_on_c, 0, 74, 114
2, 519850, Note_on_c, 0, 65, 0
2, 519860, Note_on_c, 0, 74, 0
2, 519946, Note_on_c, 0, 58, 67
2, 519950, Note_on_c, 0, 73, 91
2, 520024, Note_on_c, 0, 76, 81
2, 520024, Note_on_c, 0, 61, 73
2, 520024, Control_c, 0, 64, 0
2, 520076, Note_on_c, 0, 64, 54
2, 520078, Note_on_c, 0, 78, 89
2, 520092, Note_on_c, 0, 73, 0
2, 520100, Note_on_c, 0, 66, 97
2, 520120, Note_on_c, 0, 85, 119
2, 520166, Note_on_c, 0, 58, 0
2, 520192, Control_c, 0, 64, 127
2, 520244, Note_on_c, 0, 76, 0
2, 520272, Note_on_c, 0, 78, 0
2, 520272, Note_on_c, 0, 61, 0
2, 520282, Note_on_c, 0, 60, 82
2, 520288, Note_on_c, 0, 64, 0
2, 520310, Note_on_c, 0, 66, 0
2, 520360, Note_on_c, 0, 82, 88
2, 520394, Note_on_c, 0, 58, 80
2, 520426, Note_on_c, 0, 60, 0
2, 520440, Note_on_c, 0, 85, 0
2, 520464, Note_on_c, 0, 58, 0
2, 520500, Note_on_c, 0, 60, 85
2, 520604, Note_on_c, 0, 58, 75
2, 520607, Note_on_c, 0, 60, 0
2, 520716, Note_on_c, 0, 58, 0
2, 520724, Note_on_c, 0, 60, 61
2, 520726, Note_on_c, 0, 82, 0
2, 520810, Note_on_c, 0, 60, 0
2, 520820, Note_on_c, 0, 58, 67
2, 520912, Note_on_c, 0, 58, 0
2, 520944, Note_on_c, 0, 60, 83
2, 521016, Note_on_c, 0, 60, 0
2, 521038, Note_on_c, 0, 58, 80
2, 521104, Note_on_c, 0, 58, 0
2, 521148, Note_on_c, 0, 60, 72
2, 521210, Note_on_c, 0, 60, 0
2, 521242, Note_on_c, 0, 58, 69
2, 521310, Note_on_c, 0, 58, 0
2, 521352, Note_on_c, 0, 60, 74
2, 521392, Control_c, 0, 64, 0
2, 521418, Note_on_c, 0, 60, 0
2, 521450, Note_on_c, 0, 58, 70
2, 521530, Note_on_c, 0, 58, 0
2, 521544, Control_c, 0, 64, 127
2, 521560, Note_on_c, 0, 60, 75
2, 521630, Note_on_c, 0, 60, 0
2, 521672, Note_on_c, 0, 58, 54
2, 521740, Note_on_c, 0, 58, 0
2, 521788, Note_on_c, 0, 60, 69
2, 521806, Control_c, 0, 64, 0
2, 521824, Note_on_c, 0, 61, 64
2, 521856, Note_on_c, 0, 60, 0
2, 521874, Note_on_c, 0, 64, 75
2, 521888, Note_on_c, 0, 58, 68
2, 521902, Note_on_c, 0, 73, 88
2, 521908, Note_on_c, 0, 66, 56
2, 521966, Note_on_c, 0, 58, 0
2, 522018, Note_on_c, 0, 60, 68
2, 522052, Control_c, 0, 64, 127
2, 522096, Note_on_c, 0, 60, 0
2, 522124, Note_on_c, 0, 58, 54
2, 522164, Note_on_c, 0, 70, 53
2, 522180, Note_on_c, 0, 73, 0
2, 522200, Note_on_c, 0, 58, 0
2, 522260, Note_on_c, 0, 60, 61
2, 522276, Note_on_c, 0, 70, 0
2, 522322, Note_on_c, 0, 60, 0
2, 522350, Note_on_c, 0, 58, 57
2, 522360, Note_on_c, 0, 64, 0
2, 522372, Note_on_c, 0, 61, 0
2, 522420, Note_on_c, 0, 58, 0
2, 522454, Note_on_c, 0, 66, 0
2, 522482, Note_on_c, 0, 60, 53
2, 522550, Note_on_c, 0, 60, 0
2, 522574, Note_on_c, 0, 58, 52
2, 522652, Note_on_c, 0, 58, 0
2, 522696, Note_on_c, 0, 60, 46
2, 522764, Note_on_c, 0, 60, 0
2, 522802, Note_on_c, 0, 58, 57
2, 522864, Note_on_c, 0, 58, 0
2, 522912, Note_on_c, 0, 60, 59
2, 522984, Note_on_c, 0, 60, 0
2, 523014, Note_on_c, 0, 58, 65
2, 523094, Note_on_c, 0, 58, 0
2, 523140, Note_on_c, 0, 60, 67
2, 523198, Note_on_c, 0, 60, 0
2, 523240, Note_on_c, 0, 58, 56
2, 523328, Note_on_c, 0, 58, 0
2, 523331, Note_on_c, 0, 60, 29
2, 523440, Note_on_c, 0, 58, 46
2, 523450, Control_c, 0, 64, 0
2, 523456, Note_on_c, 0, 60, 0
2, 523536, Note_on_c, 0, 60, 69
2, 523539, Note_on_c, 0, 58, 0
2, 523652, Note_on_c, 0, 60, 0
2, 523654, Note_on_c, 0, 58, 39
2, 523746, Note_on_c, 0, 60, 60
2, 523780, Note_on_c, 0, 58, 0
2, 523874, Note_on_c, 0, 46, 74
2, 523874, Note_on_c, 0, 58, 38
2, 523877, Note_on_c, 0, 60, 0
2, 523968, Note_on_c, 0, 60, 58
2, 523984, Note_on_c, 0, 45, 93
2, 524006, Note_on_c, 0, 58, 0
2, 524014, Note_on_c, 0, 46, 0
2, 524092, Note_on_c, 0, 46, 89
2, 524094, Note_on_c, 0, 60, 0
2, 524094, Note_on_c, 0, 58, 41
2, 524126, Note_on_c, 0, 45, 0
2, 524180, Note_on_c, 0, 46, 0
2, 524192, Note_on_c, 0, 60, 51
2, 524224, Note_on_c, 0, 58, 0
2, 524314, Note_on_c, 0, 60, 0
2, 524314, Note_on_c, 0, 42, 107
2, 524316, Note_on_c, 0, 58, 36
2, 524418, Note_on_c, 0, 46, 89
2, 524420, Note_on_c, 0, 60, 59
2, 524424, Note_on_c, 0, 42, 0
2, 524452, Note_on_c, 0, 58, 0
2, 524506, Note_on_c, 0, 45, 105
2, 524542, Note_on_c, 0, 58, 47
2, 524548, Note_on_c, 0, 46, 0
2, 524556, Note_on_c, 0, 60, 0
2, 524606, Note_on_c, 0, 46, 96
2, 524640, Note_on_c, 0, 60, 68
2, 524644, Note_on_c, 0, 45, 0
2, 524666, Note_on_c, 0, 58, 0
2, 524728, Note_on_c, 0, 48, 99
2, 524736, Note_on_c, 0, 46, 0
2, 524754, Note_on_c, 0, 58, 43
2, 524766, Note_on_c, 0, 60, 0
2, 524858, Note_on_c, 0, 60, 64
2, 524884, Note_on_c, 0, 58, 0
2, 524966, Note_on_c, 0, 60, 0
2, 524966, Note_on_c, 0, 58, 49
2, 525068, Note_on_c, 0, 60, 57
2, 525090, Note_on_c, 0, 58, 0
2, 525184, Note_on_c, 0, 60, 0
2, 525184, Note_on_c, 0, 58, 42
2, 525278, Note_on_c, 0, 60, 62
2, 525302, Note_on_c, 0, 49, 92
2, 525305, Note_on_c, 0, 58, 0
2, 525310, Note_on_c, 0, 48, 0
2, 525390, Note_on_c, 0, 58, 44
2, 525404, Note_on_c, 0, 60, 0
2, 525408, Note_on_c, 0, 50, 106
2, 525454, Note_on_c, 0, 49, 0
2, 525478, Control_c, 0, 64, 127
2, 525486, Note_on_c, 0, 60, 75
2, 525516, Note_on_c, 0, 58, 0
2, 525594, Note_on_c, 0, 58, 52
2, 525610, Note_on_c, 0, 60, 0
2, 525692, Note_on_c, 0, 60, 82
2, 525712, Note_on_c, 0, 50, 0
2, 525712, Note_on_c, 0, 51, 103
2, 525720, Note_on_c, 0, 58, 0
2, 525812, Note_on_c, 0, 60, 0
2, 525814, Note_on_c, 0, 58, 57
2, 525822, Note_on_c, 0, 52, 127
2, 525860, Note_on_c, 0, 51, 0
2, 525894, Control_c, 0, 64, 0
2, 525922, Note_on_c, 0, 61, 93
2, 525944, Note_on_c, 0, 58, 0
2, 526018, Note_on_c, 0, 58, 64
2, 526054, Note_on_c, 0, 61, 0
2, 526114, Note_on_c, 0, 61, 100
2, 526140, Control_c, 0, 64, 127
2, 526143, Note_on_c, 0, 58, 0
2, 526174, Note_on_c, 0, 61, 0
2, 526254, Note_on_c, 0, 58, 80
2, 526348, Note_on_c, 0, 61, 111
2, 526366, Note_on_c, 0, 58, 0
2, 526480, Note_on_c, 0, 61, 0
2, 526480, Note_on_c, 0, 70, 81
2, 526570, Note_on_c, 0, 73, 88
2, 526574, Note_on_c, 0, 70, 0
2, 526618, Note_on_c, 0, 73, 0
2, 526666, Note_on_c, 0, 58, 74
2, 526768, Note_on_c, 0, 58, 0
2, 526776, Note_on_c, 0, 61, 87
2, 526816, Note_on_c, 0, 52, 0
2, 526828, Note_on_c, 0, 61, 0
2, 526908, Note_on_c, 0, 58, 72
2, 527008, Note_on_c, 0, 61, 83
2, 527032, Note_on_c, 0, 58, 0
2, 527046, Control_c, 0, 64, 0
2, 527122, Note_on_c, 0, 58, 49
2, 527154, Note_on_c, 0, 61, 0
2, 527248, Note_on_c, 0, 60, 67
2, 527256, Note_on_c, 0, 58, 0
2, 527374, Note_on_c, 0, 58, 31
2, 527377, Note_on_c, 0, 46, 70
2, 527380, Note_on_c, 0, 60, 0
2, 527468, Note_on_c, 0, 46, 0
2, 527468, Note_on_c, 0, 60, 66
2, 527471, Note_on_c, 0, 45, 77
2, 527502, Note_on_c, 0, 58, 0
2, 527576, Note_on_c, 0, 46, 85
2, 527586, Note_on_c, 0, 58, 44
2, 527598, Note_on_c, 0, 45, 0
2, 527604, Note_on_c, 0, 60, 0
2, 527684, Note_on_c, 0, 46, 0
2, 527690, Note_on_c, 0, 60, 58
2, 527720, Note_on_c, 0, 58, 0
2, 527814, Note_on_c, 0, 42, 96
2, 527816, Note_on_c, 0, 58, 41
2, 527824, Note_on_c, 0, 60, 0
2, 527922, Note_on_c, 0, 60, 60
2, 527925, Note_on_c, 0, 46, 92
2, 527944, Note_on_c, 0, 42, 0
2, 527947, Note_on_c, 0, 58, 0
2, 528008, Note_on_c, 0, 45, 103
2, 528028, Note_on_c, 0, 58, 50
2, 528046, Note_on_c, 0, 60, 0
2, 528066, Note_on_c, 0, 46, 0
2, 528118, Note_on_c, 0, 46, 107
2, 528134, Note_on_c, 0, 60, 66
2, 528166, Note_on_c, 0, 58, 0
2, 528180, Note_on_c, 0, 45, 0
2, 528220, Note_on_c, 0, 48, 95
2, 528230, Note_on_c, 0, 58, 65
2, 528256, Note_on_c, 0, 60, 0
2, 528306, Note_on_c, 0, 46, 0
2, 528330, Note_on_c, 0, 60, 82
2, 528350, Note_on_c, 0, 58, 0
2, 528452, Note_on_c, 0, 58, 54
2, 528466, Note_on_c, 0, 60, 0
2, 528562, Note_on_c, 0, 60, 54
2, 528580, Note_on_c, 0, 58, 0
2, 528692, Note_on_c, 0, 60, 0
2, 528696, Note_on_c, 0, 58, 36
2, 528818, Note_on_c, 0, 60, 50
2, 528828, Control_c, 0, 64, 127
2, 528832, Note_on_c, 0, 58, 0
2, 528856, Note_on_c, 0, 49, 88
2, 528878, Note_on_c, 0, 48, 0
2, 528932, Note_on_c, 0, 58, 50
2, 528934, Note_on_c, 0, 60, 0
2, 528972, Note_on_c, 0, 51, 108
2, 529026, Note_on_c, 0, 49, 0
2, 529038, Note_on_c, 0, 60, 66
2, 529064, Note_on_c, 0, 58, 0
2, 529104, Control_c, 0, 64, 0
2, 529160, Note_on_c, 0, 58, 54
2, 529176, Note_on_c, 0, 60, 0
2, 529258, Control_c, 0, 64, 127
2, 529270, Note_on_c, 0, 60, 60
2, 529276, Note_on_c, 0, 51, 0
2, 529300, Note_on_c, 0, 58, 0
2, 529302, Note_on_c, 0, 53, 122
2, 529372, Note_on_c, 0, 60, 0
2, 529390, Note_on_c, 0, 53, 0
2, 529400, Note_on_c, 0, 58, 45
2, 529434, Note_on_c, 0, 54, 108
2, 529442, Control_c, 0, 64, 0
2, 529534, Note_on_c, 0, 61, 77
2, 529548, Note_on_c, 0, 58, 0
2, 529632, Note_on_c, 0, 58, 46
2, 529642, Note_on_c, 0, 61, 0
2, 529726, Note_on_c, 0, 61, 81
2, 529750, Control_c, 0, 64, 127
2, 529762, Note_on_c, 0, 58, 0
2, 529786, Note_on_c, 0, 61, 0
2, 529874, Note_on_c, 0, 58, 54
2, 529892, Note_on_c, 0, 54, 0
2, 529938, Note_on_c, 0, 58, 0
2, 529966, Note_on_c, 0, 61, 88
2, 530042, Note_on_c, 0, 61, 0
2, 530104, Note_on_c, 0, 70, 77
2, 530196, Note_on_c, 0, 73, 75
2, 530216, Note_on_c, 0, 70, 0
2, 530314, Note_on_c, 0, 73, 0
2, 530314, Note_on_c, 0, 70, 62
2, 530402, Note_on_c, 0, 70, 0
2, 530412, Note_on_c, 0, 73, 64
2, 530468, Note_on_c, 0, 73, 0
2, 530548, Note_on_c, 0, 70, 62
2, 530622, Note_on_c, 0, 70, 0
2, 530644, Note_on_c, 0, 73, 59
2, 530716, Note_on_c, 0, 73, 0
2, 530790, Note_on_c, 0, 70, 99
2, 530848, Control_c, 0, 64, 0
2, 530980, Control_c, 0, 64, 127
2, 530994, Note_on_c, 0, 73, 69
2, 531022, Note_on_c, 0, 70, 0
2, 531072, Note_on_c, 0, 73, 0
2, 531086, Note_on_c, 0, 70, 67
2, 531208, Note_on_c, 0, 73, 72
2, 531210, Note_on_c, 0, 70, 0
2, 531260, Note_on_c, 0, 73, 0
2, 531330, Note_on_c, 0, 68, 96
2, 531340, Note_on_c, 0, 82, 93
2, 531494, Note_on_c, 0, 82, 0
2, 531500, Note_on_c, 0, 73, 68
2, 531580, Note_on_c, 0, 73, 0
2, 531592, Note_on_c, 0, 82, 98
2, 531610, Note_on_c, 0, 70, 56
2, 531678, Note_on_c, 0, 70, 0
2, 531694, Note_on_c, 0, 82, 0
2, 531724, Note_on_c, 0, 73, 73
2, 531766, Note_on_c, 0, 82, 92
2, 531818, Note_on_c, 0, 73, 0
2, 531876, Note_on_c, 0, 82, 0
2, 531948, Control_c, 0, 64, 0
2, 531948, Note_on_c, 0, 82, 90
2, 531951, Note_on_c, 0, 66, 92
2, 532004, Note_on_c, 0, 68, 0
2, 532066, Note_on_c, 0, 73, 70
2, 532110, Note_on_c, 0, 82, 0
2, 532116, Control_c, 0, 64, 127
2, 532164, Note_on_c, 0, 73, 0
2, 532164, Note_on_c, 0, 82, 106
2, 532172, Note_on_c, 0, 70, 74
2, 532268, Note_on_c, 0, 70, 0
2, 532268, Note_on_c, 0, 82, 0
2, 532292, Note_on_c, 0, 73, 77
2, 532332, Note_on_c, 0, 82, 100
2, 532432, Note_on_c, 0, 82, 0
2, 532456, Note_on_c, 0, 73, 0
2, 532476, Note_on_c, 0, 70, 65
2, 532494, Note_on_c, 0, 65, 91
2, 532504, Note_on_c, 0, 82, 92
2, 532514, Note_on_c, 0, 66, 0
2, 532530, Control_c, 0, 64, 0
2, 532588, Note_on_c, 0, 70, 0
2, 532628, Note_on_c, 0, 73, 70
2, 532660, Note_on_c, 0, 82, 0
2, 532670, Control_c, 0, 64, 127
2, 532706, Note_on_c, 0, 82, 111
2, 532754, Note_on_c, 0, 73, 0
2, 532802, Note_on_c, 0, 70, 59
2, 532836, Note_on_c, 0, 82, 0
2, 532874, Note_on_c, 0, 70, 0
2, 532894, Note_on_c, 0, 82, 96
2, 532936, Note_on_c, 0, 73, 69
2, 533036, Note_on_c, 0, 82, 0
2, 533130, Note_on_c, 0, 73, 0
2, 533198, Note_on_c, 0, 82, 87
2, 533218, Note_on_c, 0, 64, 82
2, 533238, Note_on_c, 0, 70, 47
2, 533282, Note_on_c, 0, 65, 0
2, 533282, Control_c, 0, 64, 0
2, 533324, Note_on_c, 0, 70, 0
2, 533496, Note_on_c, 0, 73, 47
2, 533546, Control_c, 0, 64, 127
2, 533608, Note_on_c, 0, 73, 0
2, 533658, Note_on_c, 0, 81, 91
2, 533678, Note_on_c, 0, 70, 47
2, 533764, Note_on_c, 0, 70, 0
2, 533764, Note_on_c, 0, 82, 0
2, 533838, Note_on_c, 0, 73, 50
2, 533956, Note_on_c, 0, 73, 0
2, 534014, Note_on_c, 0, 70, 45
2, 534016, Note_on_c, 0, 79, 97
2, 534084, Note_on_c, 0, 70, 0
2, 534088, Note_on_c, 0, 81, 0
2, 534156, Note_on_c, 0, 73, 49
2, 534238, Note_on_c, 0, 73, 0
2, 534296, Note_on_c, 0, 70, 42
2, 534318, Note_on_c, 0, 64, 0
2, 534366, Note_on_c, 0, 70, 0
2, 534398, Note_on_c, 0, 73, 54
2, 534480, Note_on_c, 0, 73, 0
2, 534544, Control_c, 0, 64, 0
2, 534554, Note_on_c, 0, 70, 28
2, 534564, Note_on_c, 0, 65, 50
2, 534658, Note_on_c, 0, 70, 0
2, 534712, Note_on_c, 0, 73, 44
2, 534760, Control_c, 0, 64, 127
2, 534796, Note_on_c, 0, 73, 0
2, 534862, Note_on_c, 0, 70, 45
2, 534932, Note_on_c, 0, 70, 0
2, 534958, Note_on_c, 0, 79, 0
2, 534998, Note_on_c, 0, 73, 53
2, 535062, Note_on_c, 0, 82, 104
2, 535076, Note_on_c, 0, 73, 0
2, 535144, Note_on_c, 0, 70, 45
2, 535212, Note_on_c, 0, 70, 0
2, 535270, Note_on_c, 0, 73, 56
2, 535306, Note_on_c, 0, 81, 108
2, 535364, Note_on_c, 0, 73, 0
2, 535416, Note_on_c, 0, 70, 52
2, 535424, Note_on_c, 0, 82, 0
2, 535480, Note_on_c, 0, 70, 0
2, 535483, Note_on_c, 0, 65, 0
2, 535492, Note_on_c, 0, 79, 123
2, 535526, Note_on_c, 0, 73, 65
2, 535550, Note_on_c, 0, 81, 0
2, 535578, Note_on_c, 0, 79, 0
2, 535608, Note_on_c, 0, 73, 0
2, 535670, Note_on_c, 0, 70, 54
2, 535678, Note_on_c, 0, 79, 97
2, 535742, Note_on_c, 0, 70, 0
2, 535778, Note_on_c, 0, 73, 66
2, 535894, Note_on_c, 0, 73, 0
2, 535894, Note_on_c, 0, 70, 60
2, 536020, Note_on_c, 0, 70, 0
2, 536032, Note_on_c, 0, 73, 67
2, 536112, Control_c, 0, 64, 0
2, 536115, Note_on_c, 0, 73, 0
2, 536164, Note_on_c, 0, 77, 88
2, 536172, Note_on_c, 0, 67, 57
2, 536250, Note_on_c, 0, 67, 0
2, 536254, Note_on_c, 0, 79, 0
2, 536312, Control_c, 0, 64, 127
2, 536318, Note_on_c, 0, 70, 57
2, 536382, Note_on_c, 0, 76, 74
2, 536394, Note_on_c, 0, 70, 0
2, 536428, Note_on_c, 0, 77, 0
2, 536470, Note_on_c, 0, 67, 41
2, 536538, Note_on_c, 0, 67, 0
2, 536544, Note_on_c, 0, 76, 0
2, 536556, Note_on_c, 0, 74, 84
2, 536568, Note_on_c, 0, 70, 64
2, 536628, Note_on_c, 0, 70, 0
2, 536734, Note_on_c, 0, 73, 76
2, 536752, Note_on_c, 0, 64, 50
2, 536776, Note_on_c, 0, 74, 0
2, 536812, Note_on_c, 0, 64, 0
2, 536860, Note_on_c, 0, 67, 52
2, 536928, Note_on_c, 0, 67, 0
2, 536972, Note_on_c, 0, 70, 67
2, 536975, Note_on_c, 0, 64, 75
2, 537032, Note_on_c, 0, 64, 0
2, 537076, Note_on_c, 0, 67, 79
2, 537134, Note_on_c, 0, 73, 0
2, 537156, Note_on_c, 0, 67, 0
2, 537172, Control_c, 0, 64, 0
2, 537184, Note_on_c, 0, 61, 81
2, 537320, Note_on_c, 0, 65, 74
2, 537328, Note_on_c, 0, 61, 0
2, 537356, Control_c, 0, 64, 127
2, 537380, Note_on_c, 0, 65, 0
2, 537406, Note_on_c, 0, 61, 70
2, 537520, Note_on_c, 0, 61, 0
2, 537530, Note_on_c, 0, 65, 77
2, 537578, Note_on_c, 0, 65, 0
2, 537614, Note_on_c, 0, 58, 83
2, 537686, Note_on_c, 0, 58, 0
2, 537712, Note_on_c, 0, 70, 0
2, 537734, Note_on_c, 0, 61, 92
2, 537824, Note_on_c, 0, 61, 0
2, 537834, Note_on_c, 0, 58, 72
2, 537944, Note_on_c, 0, 61, 90
2, 537948, Note_on_c, 0, 58, 0
2, 538048, Control_c, 0, 64, 0
2, 538072, Note_on_c, 0, 77, 110
2, 538084, Note_on_c, 0, 68, 70
2, 538092, Note_on_c, 0, 51, 56
2, 538092, Note_on_c, 0, 59, 72
2, 538095, Note_on_c, 0, 61, 0
2, 538208, Note_on_c, 0, 59, 0
2, 538216, Note_on_c, 0, 62, 82
2, 538256, Note_on_c, 0, 76, 93
2, 538278, Control_c, 0, 64, 127
2, 538302, Note_on_c, 0, 77, 0
2, 538330, Note_on_c, 0, 62, 0
2, 538346, Note_on_c, 0, 59, 58
2, 538402, Note_on_c, 0, 74, 111
2, 538436, Note_on_c, 0, 59, 0
2, 538446, Note_on_c, 0, 74, 0
2, 538449, Note_on_c, 0, 76, 0
2, 538462, Note_on_c, 0, 62, 73
2, 538474, Note_on_c, 0, 68, 0
2, 538534, Note_on_c, 0, 62, 0
2, 538592, Note_on_c, 0, 73, 93
2, 538600, Control_c, 0, 64, 0
2, 538608, Note_on_c, 0, 67, 66
2, 538618, Note_on_c, 0, 58, 52
2, 538707, Note_on_c, 0, 58, 0
2, 538754, Note_on_c, 0, 63, 76
2, 538800, Control_c, 0, 64, 127
2, 538822, Note_on_c, 0, 63, 0
2, 538822, Note_on_c, 0, 67, 0
2, 538870, Note_on_c, 0, 58, 52
2, 538878, Note_on_c, 0, 70, 88
2, 538910, Note_on_c, 0, 51, 0
2, 538913, Note_on_c, 0, 73, 0
2, 538948, Note_on_c, 0, 58, 0
2, 538964, Note_on_c, 0, 70, 0
2, 538976, Note_on_c, 0, 63, 85
2, 539110, Note_on_c, 0, 63, 0
2, 539146, Note_on_c, 0, 77, 118
2, 539148, Note_on_c, 0, 59, 91
2, 539148, Note_on_c, 0, 68, 81
2, 539152, Note_on_c, 0, 51, 72
2, 539288, Note_on_c, 0, 59, 0
2, 539300, Note_on_c, 0, 62, 76
2, 539352, Note_on_c, 0, 76, 100
2, 539394, Note_on_c, 0, 77, 0
2, 539422, Note_on_c, 0, 59, 85
2, 539425, Note_on_c, 0, 62, 0
2, 539476, Note_on_c, 0, 74, 112
2, 539519, Note_on_c, 0, 68, 0
2, 539526, Note_on_c, 0, 76, 0
2, 539529, Note_on_c, 0, 74, 0
2, 539534, Note_on_c, 0, 62, 84
2, 539536, Note_on_c, 0, 59, 0
2, 539644, Note_on_c, 0, 73, 113
2, 539647, Note_on_c, 0, 62, 0
2, 539651, Note_on_c, 0, 67, 99
2, 539658, Note_on_c, 0, 58, 76
2, 539660, Control_c, 0, 64, 0
2, 539780, Note_on_c, 0, 63, 107
2, 539794, Note_on_c, 0, 58, 0
2, 539844, Control_c, 0, 64, 127
2, 539884, Note_on_c, 0, 67, 0
2, 539888, Note_on_c, 0, 70, 104
2, 539896, Note_on_c, 0, 63, 0
2, 539896, Note_on_c, 0, 58, 67
2, 539944, Note_on_c, 0, 51, 0
2, 539944, Note_on_c, 0, 73, 0
2, 539986, Note_on_c, 0, 63, 84
2, 540000, Note_on_c, 0, 70, 0
2, 540026, Note_on_c, 0, 58, 0
2, 540080, Note_on_c, 0, 63, 0
2, 540134, Note_on_c, 0, 77, 127
2, 540137, Note_on_c, 0, 68, 112
2, 540144, Note_on_c, 0, 59, 125
2, 540274, Note_on_c, 0, 68, 0
2, 540274, Note_on_c, 0, 62, 116
2, 540276, Note_on_c, 0, 59, 0
2, 540338, Note_on_c, 0, 76, 114
2, 540358, Note_on_c, 0, 77, 0
2, 540364, Note_on_c, 0, 62, 0
2, 540414, Note_on_c, 0, 62, 113
2, 540417, Note_on_c, 0, 64, 56
2, 540448, Note_on_c, 0, 62, 0
2, 540480, Note_on_c, 0, 64, 0
2, 540484, Note_on_c, 0, 74, 119
2, 540514, Note_on_c, 0, 65, 113
2, 540530, Note_on_c, 0, 76, 0
2, 540574, Note_on_c, 0, 74, 0
2, 540590, Note_on_c, 0, 65, 0
2, 540694, Note_on_c, 0, 54, 125
2, 540696, Note_on_c, 0, 73, 122
2, 540700, Note_on_c, 0, 61, 127
2, 540702, Note_on_c, 0, 70, 113
2, 540706, Control_c, 0, 64, 0
2, 540825, Note_on_c, 0, 54, 0
2, 540832, Note_on_c, 0, 66, 108
2, 540835, Note_on_c, 0, 61, 0
2, 540844, Control_c, 0, 64, 127
2, 540868, Note_on_c, 0, 73, 0
2, 540884, Note_on_c, 0, 70, 0
2, 540934, Note_on_c, 0, 66, 0
2, 540936, Note_on_c, 0, 63, 127
2, 540966, Control_c, 0, 64, 0
2, 540988, Note_on_c, 0, 63, 0
2, 541052, Note_on_c, 0, 63, 110
2, 541098, Note_on_c, 0, 63, 0
2, 541176, Note_on_c, 0, 63, 113
2, 541224, Note_on_c, 0, 63, 0
2, 541278, Note_on_c, 0, 63, 122
2, 541324, Note_on_c, 0, 63, 0
2, 541410, Note_on_c, 0, 63, 110
2, 541452, Note_on_c, 0, 63, 0
2, 541520, Note_on_c, 0, 63, 106
2, 541582, Note_on_c, 0, 63, 0
2, 541661, Note_on_c, 0, 73, 110
2, 541666, Note_on_c, 0, 70, 105
2, 541666, Note_on_c, 0, 58, 107
2, 541668, Note_on_c, 0, 61, 121
2, 541776, Note_on_c, 0, 65, 103
2, 541798, Note_on_c, 0, 61, 0
2, 541816, Note_on_c, 0, 58, 0
2, 541820, Note_on_c, 0, 65, 0
2, 541836, Note_on_c, 0, 73, 0
2, 541860, Note_on_c, 0, 70, 0
2, 541908, Note_on_c, 0, 63, 110
2, 541946, Note_on_c, 0, 63, 0
2, 541998, Note_on_c, 0, 63, 108
2, 542068, Note_on_c, 0, 63, 0
2, 542134, Note_on_c, 0, 63, 119
2, 542182, Note_on_c, 0, 63, 0
2, 542250, Note_on_c, 0, 63, 110
2, 542308, Note_on_c, 0, 63, 0
2, 542378, Note_on_c, 0, 63, 113
2, 542414, Note_on_c, 0, 63, 0
2, 542482, Note_on_c, 0, 63, 103
2, 542562, Note_on_c, 0, 63, 0
2, 542622, Note_on_c, 0, 73, 106
2, 542624, Note_on_c, 0, 70, 104
2, 542624, Note_on_c, 0, 61, 119
2, 542628, Note_on_c, 0, 55, 127
2, 542656, Note_on_c, 0, 61, 0
2, 542662, Note_on_c, 0, 55, 0
2, 542718, Control_c, 0, 64, 127
2, 542744, Note_on_c, 0, 63, 106
2, 542788, Note_on_c, 0, 73, 0
2, 542798, Note_on_c, 0, 70, 0
2, 542806, Note_on_c, 0, 63, 0
2, 542862, Note_on_c, 0, 63, 114
2, 542894, Note_on_c, 0, 63, 0
2, 542962, Note_on_c, 0, 63, 97
2, 542965, Control_c, 0, 64, 0
2, 543040, Note_on_c, 0, 63, 0
2, 543094, Note_on_c, 0, 63, 113
2, 543130, Note_on_c, 0, 63, 0
2, 543182, Note_on_c, 0, 63, 108
2, 543262, Note_on_c, 0, 63, 0
2, 543320, Note_on_c, 0, 63, 103
2, 543354, Note_on_c, 0, 63, 0
2, 543402, Note_on_c, 0, 63, 115
2, 543482, Note_on_c, 0, 63, 0
2, 543536, Note_on_c, 0, 63, 113
2, 543570, Note_on_c, 0, 63, 0
2, 543624, Note_on_c, 0, 63, 113
2, 543706, Note_on_c, 0, 63, 0
2, 543744, Note_on_c, 0, 63, 93
2, 543782, Note_on_c, 0, 63, 0
2, 543834, Note_on_c, 0, 63, 112
2, 543888, Note_on_c, 0, 63, 0
2, 543958, Note_on_c, 0, 63, 113
2, 544000, Note_on_c, 0, 63, 0
2, 544056, Note_on_c, 0, 63, 119
2, 544090, Note_on_c, 0, 63, 0
2, 544160, Note_on_c, 0, 63, 108
2, 544200, Note_on_c, 0, 63, 0
2, 544254, Note_on_c, 0, 63, 121
2, 544336, Note_on_c, 0, 63, 0
2, 544394, Note_on_c, 0, 73, 113
2, 544394, Note_on_c, 0, 70, 107
2, 544400, Note_on_c, 0, 61, 127
2, 544400, Note_on_c, 0, 54, 123
2, 544468, Note_on_c, 0, 61, 0
2, 544484, Note_on_c, 0, 54, 0
2, 544494, Note_on_c, 0, 66, 105
2, 544546, Control_c, 0, 64, 127
2, 544576, Note_on_c, 0, 66, 0
2, 544581, Note_on_c, 0, 70, 0
2, 544586, Note_on_c, 0, 73, 0
2, 544624, Control_c, 0, 64, 0
2, 544627, Note_on_c, 0, 63, 114
2, 544664, Note_on_c, 0, 63, 0
2, 544718, Note_on_c, 0, 63, 108
2, 544770, Note_on_c, 0, 63, 0
2, 544846, Note_on_c, 0, 63, 115
2, 544896, Note_on_c, 0, 63, 0
2, 544958, Note_on_c, 0, 63, 96
2, 544994, Note_on_c, 0, 63, 0
2, 545050, Note_on_c, 0, 63, 113
2, 545100, Note_on_c, 0, 63, 0
2, 545152, Note_on_c, 0, 63, 120
2, 545242, Note_on_c, 0, 63, 0
2, 545272, Note_on_c, 0, 73, 111
2, 545274, Note_on_c, 0, 70, 103
2, 545280, Note_on_c, 0, 61, 127
2, 545284, Note_on_c, 0, 58, 108
2, 545374, Note_on_c, 0, 61, 0
2, 545374, Note_on_c, 0, 65, 103
2, 545408, Control_c, 0, 64, 127
2, 545412, Note_on_c, 0, 58, 0
2, 545446, Note_on_c, 0, 73, 0
2, 545462, Note_on_c, 0, 65, 0
2, 545468, Note_on_c, 0, 70, 0
2, 545496, Note_on_c, 0, 63, 118
2, 545530, Control_c, 0, 64, 0
2, 545532, Note_on_c, 0, 63, 0
2, 545588, Note_on_c, 0, 63, 110
2, 545670, Note_on_c, 0, 63, 0
2, 545726, Note_on_c, 0, 63, 126
2, 545766, Note_on_c, 0, 63, 0
2, 545826, Note_on_c, 0, 63, 103
2, 545866, Note_on_c, 0, 63, 0
2, 545930, Note_on_c, 0, 63, 111
2, 545972, Note_on_c, 0, 63, 0
2, 546026, Note_on_c, 0, 63, 119
2, 546134, Note_on_c, 0, 63, 0
2, 546144, Note_on_c, 0, 73, 111
2, 546146, Note_on_c, 0, 55, 115
2, 546148, Note_on_c, 0, 61, 127
2, 546149, Note_on_c, 0, 70, 103
2, 546180, Note_on_c, 0, 55, 0
2, 546190, Note_on_c, 0, 61, 0
2, 546236, Control_c, 0, 64, 127
2, 546272, Note_on_c, 0, 63, 106
2, 546298, Note_on_c, 0, 73, 0
2, 546316, Note_on_c, 0, 70, 0
2, 546344, Note_on_c, 0, 63, 0
2, 546376, Note_on_c, 0, 63, 96
2, 546406, Control_c, 0, 64, 0
2, 546412, Note_on_c, 0, 63, 0
2, 546476, Note_on_c, 0, 63, 100
2, 546552, Note_on_c, 0, 63, 0
2, 546586, Note_on_c, 0, 63, 68
2, 546630, Note_on_c, 0, 63, 0
2, 546680, Note_on_c, 0, 63, 108
2, 546718, Note_on_c, 0, 63, 0
2, 546790, Note_on_c, 0, 63, 99
2, 546832, Note_on_c, 0, 63, 0
2, 546886, Note_on_c, 0, 63, 103
2, 546934, Note_on_c, 0, 63, 0
2, 547008, Note_on_c, 0, 63, 112
2, 547066, Note_on_c, 0, 63, 0
2, 547102, Note_on_c, 0, 62, 100
2, 547150, Note_on_c, 0, 62, 0
2, 547222, Note_on_c, 0, 66, 79
2, 547268, Note_on_c, 0, 66, 0
2, 547316, Note_on_c, 0, 65, 76
2, 547368, Note_on_c, 0, 65, 0
2, 547424, Note_on_c, 0, 63, 88
2, 547474, Note_on_c, 0, 63, 0
2, 547522, Note_on_c, 0, 65, 76
2, 547572, Note_on_c, 0, 65, 0
2, 547626, Note_on_c, 0, 66, 65
2, 547684, Note_on_c, 0, 66, 0
2, 547732, Note_on_c, 0, 67, 67
2, 547794, Note_on_c, 0, 67, 0
2, 547834, Note_on_c, 0, 63, 76
2, 547884, Note_on_c, 0, 63, 0
2, 547924, Note_on_c, 0, 62, 69
2, 547980, Note_on_c, 0, 62, 0
2, 548028, Note_on_c, 0, 66, 62
2, 548088, Note_on_c, 0, 66, 0
2, 548140, Note_on_c, 0, 65, 58
2, 548196, Note_on_c, 0, 65, 0
2, 548246, Note_on_c, 0, 63, 70
2, 548298, Note_on_c, 0, 63, 0
2, 548326, Note_on_c, 0, 65, 52
2, 548392, Note_on_c, 0, 65, 0
2, 548440, Note_on_c, 0, 66, 52
2, 548498, Note_on_c, 0, 66, 0
2, 548532, Note_on_c, 0, 67, 67
2, 548592, Note_on_c, 0, 67, 0
2, 548646, Note_on_c, 0, 66, 76
2, 548694, Note_on_c, 0, 66, 0
2, 548730, Note_on_c, 0, 65, 66
2, 548786, Note_on_c, 0, 65, 0
2, 548830, Note_on_c, 0, 70, 80
2, 548882, Note_on_c, 0, 70, 0
2, 548930, Note_on_c, 0, 69, 64
2, 548992, Note_on_c, 0, 69, 0
2, 549032, Note_on_c, 0, 66, 73
2, 549090, Note_on_c, 0, 66, 0
2, 549122, Note_on_c, 0, 68, 73
2, 549182, Note_on_c, 0, 68, 0
2, 549220, Note_on_c, 0, 70, 73
2, 549280, Note_on_c, 0, 70, 0
2, 549330, Note_on_c, 0, 71, 87
2, 549386, Note_on_c, 0, 71, 0
2, 549430, Note_on_c, 0, 66, 73
2, 549484, Note_on_c, 0, 66, 0
2, 549522, Note_on_c, 0, 65, 80
2, 549576, Note_on_c, 0, 65, 0
2, 549610, Note_on_c, 0, 70, 83
2, 549672, Note_on_c, 0, 70, 0
2, 549706, Note_on_c, 0, 69, 70
2, 549776, Note_on_c, 0, 69, 0
2, 549808, Note_on_c, 0, 66, 79
2, 549864, Note_on_c, 0, 66, 0
2, 549892, Note_on_c, 0, 68, 81
2, 549966, Note_on_c, 0, 68, 0
2, 550000, Note_on_c, 0, 70, 81
2, 550048, Note_on_c, 0, 70, 0
2, 550096, Note_on_c, 0, 71, 90
2, 550150, Note_on_c, 0, 71, 0
2, 550214, Note_on_c, 0, 70, 73
2, 550276, Note_on_c, 0, 70, 0
2, 550318, Note_on_c, 0, 69, 65
2, 550376, Note_on_c, 0, 69, 0
2, 550412, Note_on_c, 0, 73, 73
2, 550476, Note_on_c, 0, 73, 0
2, 550526, Note_on_c, 0, 72, 72
2, 550580, Note_on_c, 0, 72, 0
2, 550620, Note_on_c, 0, 70, 62
2, 550682, Note_on_c, 0, 70, 0
2, 550720, Note_on_c, 0, 71, 70
2, 550774, Note_on_c, 0, 71, 0
2, 550814, Note_on_c, 0, 73, 68
2, 550874, Note_on_c, 0, 73, 0
2, 550910, Note_on_c, 0, 74, 69
2, 550960, Note_on_c, 0, 74, 0
2, 551016, Note_on_c, 0, 70, 65
2, 551076, Note_on_c, 0, 70, 0
2, 551106, Note_on_c, 0, 69, 57
2, 551172, Note_on_c, 0, 69, 0
2, 551202, Note_on_c, 0, 73, 62
2, 551272, Note_on_c, 0, 73, 0
2, 551308, Note_on_c, 0, 72, 62
2, 551370, Note_on_c, 0, 72, 0
2, 551412, Note_on_c, 0, 70, 64
2, 551470, Note_on_c, 0, 70, 0
2, 551512, Note_on_c, 0, 71, 74
2, 551572, Note_on_c, 0, 71, 0
2, 551600, Note_on_c, 0, 73, 68
2, 551660, Note_on_c, 0, 73, 0
2, 551702, Note_on_c, 0, 74, 73
2, 551760, Note_on_c, 0, 74, 0
2, 551818, Note_on_c, 0, 70, 59
2, 551874, Note_on_c, 0, 70, 0
2, 551908, Note_on_c, 0, 71, 74
2, 551968, Note_on_c, 0, 71, 0
2, 552016, Note_on_c, 0, 73, 56
2, 552082, Note_on_c, 0, 73, 0
2, 552124, Note_on_c, 0, 74, 59
2, 552180, Note_on_c, 0, 74, 0
2, 552234, Note_on_c, 0, 70, 45
2, 552300, Note_on_c, 0, 70, 0
2, 552324, Note_on_c, 0, 71, 62
2, 552392, Note_on_c, 0, 71, 0
2, 552440, Note_on_c, 0, 73, 43
2, 552510, Note_on_c, 0, 73, 0
2, 552550, Note_on_c, 0, 74, 51
2, 552612, Note_on_c, 0, 74, 0
2, 552662, Note_on_c, 0, 70, 42
2, 552736, Note_on_c, 0, 70, 0
2, 552782, Note_on_c, 0, 71, 45
2, 552854, Note_on_c, 0, 71, 0
2, 552874, Note_on_c, 0, 73, 42
2, 552946, Note_on_c, 0, 73, 0
2, 552994, Note_on_c, 0, 74, 51
2, 553050, Note_on_c, 0, 74, 0
2, 553120, Note_on_c, 0, 70, 38
2, 553202, Note_on_c, 0, 70, 0
2, 553240, Note_on_c, 0, 71, 47
2, 553308, Note_on_c, 0, 71, 0
2, 553352, Note_on_c, 0, 73, 39
2, 553424, Note_on_c, 0, 73, 0
2, 553468, Note_on_c, 0, 74, 58
2, 553504, Control_c, 0, 64, 127
2, 553518, Note_on_c, 0, 74, 0
2, 553664, Note_on_c, 0, 74, 31
2, 553670, Note_on_c, 0, 62, 59
2, 553772, Note_on_c, 0, 74, 0
2, 553780, Control_c, 0, 64, 0
2, 553808, Note_on_c, 0, 76, 52
2, 553880, Note_on_c, 0, 76, 0
2, 553942, Note_on_c, 0, 72, 47
2, 554010, Note_on_c, 0, 72, 0
2, 554050, Note_on_c, 0, 77, 41
2, 554118, Note_on_c, 0, 77, 0
2, 554144, Note_on_c, 0, 70, 44
2, 554218, Note_on_c, 0, 70, 0
2, 554252, Note_on_c, 0, 79, 53
2, 554320, Note_on_c, 0, 79, 0
2, 554350, Note_on_c, 0, 69, 49
2, 554412, Note_on_c, 0, 69, 0
2, 554468, Note_on_c, 0, 81, 45
2, 554536, Note_on_c, 0, 81, 0
2, 554570, Note_on_c, 0, 72, 54
2, 554642, Note_on_c, 0, 72, 0
2, 554668, Note_on_c, 0, 74, 47
2, 554728, Note_on_c, 0, 74, 0
2, 554766, Note_on_c, 0, 70, 54
2, 554828, Note_on_c, 0, 70, 0
2, 554870, Note_on_c, 0, 76, 46
2, 554938, Note_on_c, 0, 76, 0
2, 554976, Note_on_c, 0, 69, 51
2, 555040, Note_on_c, 0, 69, 0
2, 555086, Note_on_c, 0, 77, 50
2, 555144, Note_on_c, 0, 77, 0
2, 555194, Note_on_c, 0, 67, 58
2, 555228, Note_on_c, 0, 62, 0
2, 555254, Note_on_c, 0, 67, 0
2, 555294, Note_on_c, 0, 79, 57
2, 555368, Note_on_c, 0, 79, 0
2, 555410, Note_on_c, 0, 74, 87
2, 555418, Note_on_c, 0, 62, 75
2, 555522, Note_on_c, 0, 76, 51
2, 555528, Note_on_c, 0, 74, 0
2, 555596, Note_on_c, 0, 76, 0
2, 555650, Note_on_c, 0, 72, 68
2, 555706, Note_on_c, 0, 72, 0
2, 555738, Note_on_c, 0, 77, 64
2, 555800, Note_on_c, 0, 77, 0
2, 555838, Note_on_c, 0, 70, 73
2, 555898, Note_on_c, 0, 70, 0
2, 555952, Note_on_c, 0, 79, 70
2, 556016, Note_on_c, 0, 79, 0
2, 556064, Note_on_c, 0, 69, 54
2, 556126, Note_on_c, 0, 69, 0
2, 556162, Note_on_c, 0, 81, 68
2, 556222, Note_on_c, 0, 81, 0
2, 556292, Note_on_c, 0, 72, 59
2, 556356, Note_on_c, 0, 72, 0
2, 556392, Note_on_c, 0, 74, 49
2, 556454, Note_on_c, 0, 74, 0
2, 556502, Note_on_c, 0, 70, 50
2, 556570, Note_on_c, 0, 70, 0
2, 556600, Note_on_c, 0, 76, 45
2, 556664, Note_on_c, 0, 76, 0
2, 556722, Note_on_c, 0, 69, 31
2, 556798, Note_on_c, 0, 69, 0
2, 556816, Note_on_c, 0, 77, 45
2, 556878, Note_on_c, 0, 77, 0
2, 556914, Note_on_c, 0, 67, 51
2, 556962, Note_on_c, 0, 62, 0
2, 556980, Note_on_c, 0, 67, 0
2, 556992, Control_c, 0, 64, 127
2, 557032, Note_on_c, 0, 79, 53
2, 557094, Note_on_c, 0, 79, 0
2, 557132, Control_c, 0, 64, 0
2, 557142, Note_on_c, 0, 62, 64
2, 557144, Note_on_c, 0, 69, 49
2, 557214, Note_on_c, 0, 69, 0
2, 557252, Note_on_c, 0, 76, 53
2, 557314, Note_on_c, 0, 76, 0
2, 557360, Note_on_c, 0, 72, 54
2, 557422, Note_on_c, 0, 72, 0
2, 557456, Note_on_c, 0, 77, 62
2, 557512, Note_on_c, 0, 77, 0
2, 557552, Note_on_c, 0, 70, 62
2, 557614, Note_on_c, 0, 70, 0
2, 557678, Note_on_c, 0, 74, 53
2, 557736, Note_on_c, 0, 74, 0
2, 557760, Note_on_c, 0, 67, 62
2, 557820, Note_on_c, 0, 67, 0
2, 557870, Note_on_c, 0, 76, 58
2, 557930, Note_on_c, 0, 76, 0
2, 557968, Note_on_c, 0, 69, 47
2, 558034, Note_on_c, 0, 69, 0
2, 558084, Note_on_c, 0, 72, 45
2, 558150, Note_on_c, 0, 72, 0
2, 558158, Note_on_c, 0, 65, 54
2, 558214, Note_on_c, 0, 65, 0
2, 558276, Note_on_c, 0, 74, 60
2, 558332, Note_on_c, 0, 74, 0
2, 558366, Note_on_c, 0, 67, 58
2, 558428, Note_on_c, 0, 67, 0
2, 558472, Note_on_c, 0, 70, 45
2, 558548, Note_on_c, 0, 70, 0
2, 558590, Note_on_c, 0, 64, 51
2, 558608, Note_on_c, 0, 62, 0
2, 558648, Note_on_c, 0, 64, 0
2, 558672, Note_on_c, 0, 72, 50
2, 558730, Note_on_c, 0, 72, 0
2, 558784, Note_on_c, 0, 69, 57
2, 558796, Note_on_c, 0, 62, 54
2, 558866, Note_on_c, 0, 69, 0
2, 558872, Note_on_c, 0, 76, 67
2, 558930, Note_on_c, 0, 76, 0
2, 558994, Note_on_c, 0, 72, 68
2, 559058, Note_on_c, 0, 72, 0
2, 559082, Note_on_c, 0, 77, 76
2, 559148, Note_on_c, 0, 77, 0
2, 559204, Note_on_c, 0, 70, 67
2, 559274, Note_on_c, 0, 70, 0
2, 559296, Note_on_c, 0, 74, 73
2, 559350, Note_on_c, 0, 74, 0
2, 559412, Note_on_c, 0, 67, 69
2, 559468, Note_on_c, 0, 67, 0
2, 559502, Note_on_c, 0, 76, 72
2, 559560, Note_on_c, 0, 76, 0
2, 559612, Note_on_c, 0, 69, 54
2, 559672, Note_on_c, 0, 69, 0
2, 559726, Note_on_c, 0, 72, 54
2, 559788, Note_on_c, 0, 72, 0
2, 559832, Note_on_c, 0, 65, 45
2, 559894, Note_on_c, 0, 65, 0
2, 559926, Note_on_c, 0, 74, 70
2, 559978, Note_on_c, 0, 74, 0
2, 560034, Note_on_c, 0, 69, 49
2, 560106, Note_on_c, 0, 69, 0
2, 560138, Note_on_c, 0, 76, 57
2, 560192, Note_on_c, 0, 76, 0
2, 560246, Note_on_c, 0, 62, 0
2, 560270, Note_on_c, 0, 74, 64
2, 560318, Note_on_c, 0, 74, 0
2, 560342, Control_c, 0, 64, 127
2, 560362, Note_on_c, 0, 77, 61
2, 560388, Control_c, 0, 64, 0
2, 560420, Note_on_c, 0, 77, 0
2, 560470, Note_on_c, 0, 73, 62
2, 560570, Note_on_c, 0, 73, 0
2, 560596, Note_on_c, 0, 77, 62
2, 560634, Control_c, 0, 64, 127
2, 560684, Note_on_c, 0, 77, 0
2, 560716, Note_on_c, 0, 81, 76
2, 560778, Note_on_c, 0, 81, 0
2, 560820, Note_on_c, 0, 76, 61
2, 560878, Note_on_c, 0, 76, 0
2, 560924, Note_on_c, 0, 73, 66
2, 560986, Note_on_c, 0, 73, 0
2, 561032, Note_on_c, 0, 77, 75
2, 561092, Note_on_c, 0, 77, 0
2, 561144, Note_on_c, 0, 81, 80
2, 561214, Note_on_c, 0, 81, 0
2, 561232, Note_on_c, 0, 76, 70
2, 561290, Note_on_c, 0, 76, 0
2, 561326, Control_c, 0, 64, 0
2, 561348, Note_on_c, 0, 73, 67
2, 561438, Note_on_c, 0, 73, 0
2, 561450, Note_on_c, 0, 77, 77
2, 561510, Control_c, 0, 64, 127
2, 561513, Note_on_c, 0, 77, 0
2, 561550, Note_on_c, 0, 79, 81
2, 561620, Note_on_c, 0, 79, 0
2, 561656, Note_on_c, 0, 76, 65
2, 561712, Note_on_c, 0, 76, 0
2, 561762, Note_on_c, 0, 73, 57
2, 561818, Note_on_c, 0, 73, 0
2, 561878, Note_on_c, 0, 77, 64
2, 561934, Note_on_c, 0, 77, 0
2, 561974, Note_on_c, 0, 79, 65
2, 562030, Note_on_c, 0, 79, 0
2, 562076, Note_on_c, 0, 76, 62
2, 562142, Note_on_c, 0, 76, 0
2, 562202, Note_on_c, 0, 70, 80
2, 562206, Note_on_c, 0, 73, 62
2, 562232, Control_c, 0, 64, 0
2, 562350, Note_on_c, 0, 77, 68
2, 562398, Note_on_c, 0, 73, 0
2, 562416, Note_on_c, 0, 77, 0
2, 562462, Control_c, 0, 64, 127
2, 562498, Note_on_c, 0, 82, 53
2, 562568, Note_on_c, 0, 82, 0
2, 562590, Note_on_c, 0, 76, 49
2, 562654, Note_on_c, 0, 76, 0
2, 562730, Note_on_c, 0, 73, 47
2, 562792, Note_on_c, 0, 73, 0
2, 562834, Note_on_c, 0, 77, 57
2, 562902, Note_on_c, 0, 77, 0
2, 562936, Note_on_c, 0, 82, 50
2, 563004, Note_on_c, 0, 82, 0
2, 563042, Note_on_c, 0, 76, 50
2, 563104, Note_on_c, 0, 76, 0
2, 563168, Note_on_c, 0, 73, 39
2, 563230, Note_on_c, 0, 73, 0
2, 563262, Note_on_c, 0, 77, 53
2, 563332, Note_on_c, 0, 77, 0
2, 563362, Note_on_c, 0, 82, 59
2, 563424, Note_on_c, 0, 82, 0
2, 563490, Note_on_c, 0, 76, 49
2, 563552, Note_on_c, 0, 76, 0
2, 563574, Note_on_c, 0, 73, 57
2, 563630, Note_on_c, 0, 73, 0
2, 563706, Note_on_c, 0, 77, 62
2, 563764, Note_on_c, 0, 77, 0
2, 563767, Note_on_c, 0, 82, 64
2, 563822, Note_on_c, 0, 82, 0
2, 563890, Note_on_c, 0, 76, 66
2, 563944, Note_on_c, 0, 76, 0
2, 563984, Control_c, 0, 64, 0
2, 564004, Note_on_c, 0, 73, 60
2, 564080, Note_on_c, 0, 73, 0
2, 564094, Note_on_c, 0, 77, 68
2, 564152, Note_on_c, 0, 77, 0
2, 564168, Control_c, 0, 64, 127
2, 564192, Note_on_c, 0, 81, 70
2, 564246, Note_on_c, 0, 81, 0
2, 564304, Note_on_c, 0, 76, 59
2, 564312, Note_on_c, 0, 70, 0
2, 564362, Note_on_c, 0, 76, 0
2, 564404, Note_on_c, 0, 73, 62
2, 564466, Note_on_c, 0, 73, 0
2, 564506, Note_on_c, 0, 77, 60
2, 564560, Note_on_c, 0, 77, 0
2, 564602, Note_on_c, 0, 81, 59
2, 564652, Note_on_c, 0, 81, 0
2, 564702, Note_on_c, 0, 76, 52
2, 564764, Note_on_c, 0, 76, 0
2, 564782, Control_c, 0, 64, 0
2, 564792, Note_on_c, 0, 73, 52
2, 564914, Note_on_c, 0, 77, 53
2, 564940, Note_on_c, 0, 73, 0
2, 564952, Control_c, 0, 64, 127
2, 564976, Note_on_c, 0, 77, 0
2, 564994, Note_on_c, 0, 79, 70
2, 565066, Note_on_c, 0, 79, 0
2, 565140, Note_on_c, 0, 76, 19
2, 565206, Note_on_c, 0, 76, 0
2, 565218, Note_on_c, 0, 73, 54
2, 565280, Note_on_c, 0, 73, 0
2, 565346, Note_on_c, 0, 77, 53
2, 565406, Note_on_c, 0, 77, 0
2, 565440, Note_on_c, 0, 79, 50
2, 565506, Note_on_c, 0, 79, 0
2, 565538, Note_on_c, 0, 76, 49
2, 565600, Note_on_c, 0, 76, 0
2, 565644, Note_on_c, 0, 73, 43
2, 565648, Note_on_c, 0, 70, 68
2, 565674, Control_c, 0, 64, 0
2, 565714, Note_on_c, 0, 73, 0
2, 565778, Note_on_c, 0, 77, 51
2, 565852, Note_on_c, 0, 77, 0
2, 565874, Control_c, 0, 64, 127
2, 565900, Note_on_c, 0, 82, 56
2, 565964, Note_on_c, 0, 82, 0
2, 566008, Note_on_c, 0, 76, 38
2, 566080, Note_on_c, 0, 76, 0
2, 566144, Note_on_c, 0, 73, 46
2, 566208, Note_on_c, 0, 73, 0
2, 566272, Note_on_c, 0, 77, 46
2, 566338, Note_on_c, 0, 77, 0
2, 566394, Note_on_c, 0, 82, 39
2, 566472, Note_on_c, 0, 82, 0
2, 566472, Note_on_c, 0, 70, 0
2, 566512, Note_on_c, 0, 76, 42
2, 566574, Note_on_c, 0, 76, 0
2, 566698, Note_on_c, 0, 67, 74
2, 566718, Note_on_c, 0, 70, 45
2, 566798, Note_on_c, 0, 70, 0
2, 566852, Note_on_c, 0, 75, 60
2, 566942, Note_on_c, 0, 75, 0
2, 566966, Note_on_c, 0, 79, 74
2, 566980, Control_c, 0, 64, 0
2, 567076, Note_on_c, 0, 79, 0
2, 567080, Note_on_c, 0, 73, 60
2, 567134, Control_c, 0, 64, 127
2, 567146, Note_on_c, 0, 73, 0
2, 567202, Note_on_c, 0, 70, 52
2, 567284, Note_on_c, 0, 67, 0
2, 567286, Note_on_c, 0, 70, 0
2, 567334, Note_on_c, 0, 75, 47
2, 567402, Note_on_c, 0, 79, 74
2, 567408, Note_on_c, 0, 75, 0
2, 567454, Note_on_c, 0, 79, 0
2, 567538, Note_on_c, 0, 73, 47
2, 567594, Note_on_c, 0, 73, 0
2, 567666, Note_on_c, 0, 64, 85
2, 567688, Note_on_c, 0, 67, 62
2, 567804, Note_on_c, 0, 72, 49
2, 567820, Note_on_c, 0, 67, 0
2, 567910, Note_on_c, 0, 72, 0
2, 567932, Note_on_c, 0, 76, 79
2, 567986, Note_on_c, 0, 70, 52
2, 567990, Note_on_c, 0, 76, 0
2, 568054, Note_on_c, 0, 70, 0
2, 568132, Control_c, 0, 64, 0
2, 568164, Note_on_c, 0, 67, 52
2, 568234, Note_on_c, 0, 67, 0
2, 568256, Control_c, 0, 64, 127
2, 568262, Note_on_c, 0, 72, 58
2, 568328, Note_on_c, 0, 72, 0
2, 568333, Note_on_c, 0, 64, 0
2, 568350, Note_on_c, 0, 76, 54
2, 568404, Note_on_c, 0, 76, 0
2, 568462, Note_on_c, 0, 70, 53
2, 568566, Note_on_c, 0, 70, 0
2, 568612, Note_on_c, 0, 61, 77
2, 568648, Note_on_c, 0, 64, 38
2, 568710, Note_on_c, 0, 64, 0
2, 568714, Note_on_c, 0, 69, 54
2, 568732, Control_c, 0, 64, 0
2, 568796, Note_on_c, 0, 69, 0
2, 568846, Note_on_c, 0, 73, 57
2, 568870, Control_c, 0, 64, 127
2, 568912, Note_on_c, 0, 73, 0
2, 568962, Note_on_c, 0, 67, 50
2, 569024, Note_on_c, 0, 67, 0
2, 569106, Note_on_c, 0, 64, 59
2, 569156, Note_on_c, 0, 64, 0
2, 569194, Note_on_c, 0, 69, 52
2, 569266, Note_on_c, 0, 69, 0
2, 569326, Note_on_c, 0, 73, 53
2, 569378, Note_on_c, 0, 73, 0
2, 569420, Note_on_c, 0, 61, 0
2, 569434, Note_on_c, 0, 67, 77
2, 569486, Note_on_c, 0, 67, 0
2, 569650, Note_on_c, 0, 55, 91
2, 569838, Note_on_c, 0, 63, 67
2, 569938, Note_on_c, 0, 63, 0
2, 570014, Note_on_c, 0, 61, 54
2, 570082, Note_on_c, 0, 61, 0
2, 570140, Note_on_c, 0, 63, 53
2, 570214, Note_on_c, 0, 63, 0
2, 570250, Note_on_c, 0, 61, 73
2, 570325, Note_on_c, 0, 61, 0
2, 570370, Note_on_c, 0, 63, 64
2, 570432, Note_on_c, 0, 63, 0
2, 570474, Note_on_c, 0, 61, 74
2, 570533, Note_on_c, 0, 61, 0
2, 570594, Note_on_c, 0, 63, 72
2, 570680, Note_on_c, 0, 63, 0
2, 570796, Note_on_c, 0, 69, 61
2, 570806, Control_c, 0, 64, 0
2, 570948, Note_on_c, 0, 63, 49
2, 570990, Control_c, 0, 64, 127
2, 571002, Note_on_c, 0, 69, 0
2, 571036, Note_on_c, 0, 63, 0
2, 571128, Note_on_c, 0, 61, 47
2, 571206, Note_on_c, 0, 61, 0
2, 571270, Note_on_c, 0, 63, 45
2, 571336, Note_on_c, 0, 63, 0
2, 571454, Note_on_c, 0, 67, 46
2, 571496, Control_c, 0, 64, 0
2, 571592, Note_on_c, 0, 64, 44
2, 571666, Control_c, 0, 64, 127
2, 571674, Note_on_c, 0, 64, 0
2, 571676, Note_on_c, 0, 67, 0
2, 571754, Note_on_c, 0, 61, 43
2, 571842, Note_on_c, 0, 61, 0
2, 571880, Note_on_c, 0, 55, 0
2, 571932, Note_on_c, 0, 64, 37
2, 572008, Note_on_c, 0, 64, 0
2, 572078, Note_on_c, 0, 61, 38
2, 572212, Note_on_c, 0, 61, 0
2, 572238, Note_on_c, 0, 55, 42
2, 572326, Note_on_c, 0, 55, 0
2, 572398, Note_on_c, 0, 61, 35
2, 572476, Note_on_c, 0, 61, 0
2, 572598, Note_on_c, 0, 61, 33
2, 572706, Note_on_c, 0, 61, 0
2, 572724, Note_on_c, 0, 55, 30
2, 572818, Note_on_c, 0, 55, 0
2, 572862, Note_on_c, 0, 61, 36
2, 572942, Note_on_c, 0, 61, 0
2, 572968, Note_on_c, 0, 55, 39
2, 573042, Note_on_c, 0, 55, 0
2, 573086, Note_on_c, 0, 61, 39
2, 573174, Note_on_c, 0, 61, 0
2, 573216, Note_on_c, 0, 55, 44
2, 573282, Note_on_c, 0, 55, 0
2, 573314, Note_on_c, 0, 61, 45
2, 573398, Note_on_c, 0, 61, 0
2, 573436, Note_on_c, 0, 55, 36
2, 573502, Note_on_c, 0, 55, 0
2, 573530, Note_on_c, 0, 61, 51
2, 573618, Note_on_c, 0, 61, 0
2, 573658, Note_on_c, 0, 55, 43
2, 573728, Note_on_c, 0, 55, 0
2, 573768, Note_on_c, 0, 61, 58
2, 573836, Note_on_c, 0, 61, 0
2, 573880, Note_on_c, 0, 55, 38
2, 573924, Control_c, 0, 64, 0
2, 573958, Note_on_c, 0, 55, 0
2, 573980, Note_on_c, 0, 54, 74
2, 574046, Note_on_c, 0, 54, 0
2, 574098, Note_on_c, 0, 61, 64
2, 574182, Note_on_c, 0, 61, 0
2, 574208, Note_on_c, 0, 54, 70
2, 574220, Note_on_c, 0, 82, 49
2, 574282, Note_on_c, 0, 54, 0
2, 574308, Note_on_c, 0, 81, 73
2, 574314, Note_on_c, 0, 82, 0
2, 574334, Note_on_c, 0, 61, 57
2, 574374, Note_on_c, 0, 81, 0
2, 574411, Note_on_c, 0, 61, 0
2, 574434, Note_on_c, 0, 82, 87
2, 574446, Note_on_c, 0, 54, 70
2, 574490, Note_on_c, 0, 82, 0
2, 574502, Note_on_c, 0, 54, 0
2, 574564, Note_on_c, 0, 61, 64
2, 574638, Note_on_c, 0, 61, 0
2, 574668, Note_on_c, 0, 78, 69
2, 574670, Note_on_c, 0, 54, 69
2, 574728, Note_on_c, 0, 54, 0
2, 574728, Note_on_c, 0, 78, 0
2, 574764, Note_on_c, 0, 82, 70
2, 574790, Note_on_c, 0, 61, 59
2, 574856, Note_on_c, 0, 61, 0
2, 574884, Note_on_c, 0, 81, 96
2, 574898, Note_on_c, 0, 82, 0
2, 574910, Note_on_c, 0, 54, 49
2, 574978, Note_on_c, 0, 54, 0
2, 574992, Note_on_c, 0, 82, 73
2, 574995, Note_on_c, 0, 61, 49
2, 575008, Note_on_c, 0, 81, 0
2, 575074, Note_on_c, 0, 61, 0
2, 575124, Note_on_c, 0, 54, 41
2, 575127, Note_on_c, 0, 84, 105
2, 575168, Note_on_c, 0, 82, 0
2, 575188, Note_on_c, 0, 54, 0
2, 575238, Note_on_c, 0, 61, 59
2, 575310, Note_on_c, 0, 61, 0
2, 575386, Note_on_c, 0, 54, 41
2, 575460, Note_on_c, 0, 54, 0
2, 575474, Note_on_c, 0, 61, 52
2, 575564, Note_on_c, 0, 61, 0
2, 575584, Control_c, 0, 64, 127
2, 575628, Note_on_c, 0, 54, 42
2, 575696, Note_on_c, 0, 54, 0
2, 575782, Note_on_c, 0, 61, 45
2, 575798, Note_on_c, 0, 85, 82
2, 575804, Note_on_c, 0, 84, 0
2, 575856, Note_on_c, 0, 61, 0
2, 575916, Note_on_c, 0, 86, 105
2, 575928, Note_on_c, 0, 54, 45
2, 575950, Note_on_c, 0, 85, 0
2, 575952, Control_c, 0, 64, 0
2, 575994, Note_on_c, 0, 54, 0
2, 576024, Note_on_c, 0, 61, 53
2, 576110, Note_on_c, 0, 61, 0
2, 576142, Note_on_c, 0, 54, 45
2, 576152, Control_c, 0, 64, 127
2, 576208, Note_on_c, 0, 54, 0
2, 576258, Note_on_c, 0, 61, 75
2, 576294, Note_on_c, 0, 87, 65
2, 576304, Note_on_c, 0, 86, 0
2, 576308, Note_on_c, 0, 61, 0
2, 576406, Note_on_c, 0, 66, 54
2, 576426, Note_on_c, 0, 88, 85
2, 576440, Note_on_c, 0, 87, 0
2, 576474, Note_on_c, 0, 66, 0
2, 576542, Note_on_c, 0, 73, 62
2, 576602, Note_on_c, 0, 73, 0
2, 576658, Note_on_c, 0, 66, 44
2, 576658, Control_c, 0, 64, 0
2, 576734, Note_on_c, 0, 66, 0
2, 576776, Note_on_c, 0, 73, 57
2, 576906, Note_on_c, 0, 73, 0
2, 576948, Note_on_c, 0, 66, 50
2, 576966, Control_c, 0, 64, 127
2, 577162, Note_on_c, 0, 66, 0
2, 577400, Note_on_c, 0, 89, 49
2, 577442, Note_on_c, 0, 88, 0
2, 577504, Control_c, 0, 64, 0
2, 577508, Note_on_c, 0, 89, 0
2, 577522, Note_on_c, 0, 90, 61
2, 577842, Control_c, 0, 64, 127
2, 578002, Note_on_c, 0, 92, 51
2, 578018, Note_on_c, 0, 90, 0
2, 578178, Note_on_c, 0, 92, 0
2, 578202, Note_on_c, 0, 93, 60
2, 578352, Note_on_c, 0, 94, 57
2, 578364, Note_on_c, 0, 93, 0
2, 578498, Note_on_c, 0, 94, 0
2, 578498, Note_on_c, 0, 93, 45
2, 578588, Note_on_c, 0, 93, 0
2, 578600, Note_on_c, 0, 94, 44
2, 578724, Note_on_c, 0, 94, 0
2, 578738, Note_on_c, 0, 93, 51
2, 578822, Note_on_c, 0, 93, 0
2, 578842, Note_on_c, 0, 94, 43
2, 578936, Note_on_c, 0, 94, 0
2, 578968, Note_on_c, 0, 93, 50
2, 579046, Note_on_c, 0, 93, 0
2, 579080, Note_on_c, 0, 94, 39
2, 579188, Note_on_c, 0, 94, 0
2, 579204, Note_on_c, 0, 93, 64
2, 579210, Note_on_c, 0, 62, 60
2, 579210, Note_on_c, 0, 64, 64
2, 579324, Note_on_c, 0, 93, 0
2, 579348, Note_on_c, 0, 95, 64
2, 579422, Note_on_c, 0, 64, 0
2, 579425, Note_on_c, 0, 95, 0
2, 579440, Note_on_c, 0, 65, 49
2, 579466, Note_on_c, 0, 93, 42
2, 579548, Note_on_c, 0, 93, 0
2, 579584, Note_on_c, 0, 95, 68
2, 579650, Note_on_c, 0, 65, 0
2, 579656, Note_on_c, 0, 95, 0
2, 579656, Note_on_c, 0, 67, 49
2, 579690, Note_on_c, 0, 93, 54
2, 579744, Note_on_c, 0, 67, 0
2, 579772, Note_on_c, 0, 93, 0
2, 579818, Note_on_c, 0, 95, 66
2, 579880, Note_on_c, 0, 95, 0
2, 579902, Note_on_c, 0, 69, 41
2, 579930, Note_on_c, 0, 93, 54
2, 580008, Note_on_c, 0, 93, 0
2, 580048, Note_on_c, 0, 95, 61
2, 580146, Note_on_c, 0, 95, 0
2, 580180, Note_on_c, 0, 69, 0
2, 580182, Note_on_c, 0, 93, 54
2, 580194, Control_c, 0, 64, 0
2, 580270, Note_on_c, 0, 62, 0
2, 580314, Note_on_c, 0, 94, 54
2, 580320, Note_on_c, 0, 93, 0
2, 580418, Note_on_c, 0, 93, 49
2, 580452, Note_on_c, 0, 94, 0
2, 580542, Note_on_c, 0, 94, 44
2, 580548, Note_on_c, 0, 93, 0
2, 580668, Note_on_c, 0, 93, 39
2, 580668, Control_c, 0, 64, 127
2, 580682, Note_on_c, 0, 94, 0
2, 580770, Note_on_c, 0, 93, 0
2, 580790, Note_on_c, 0, 94, 39
2, 580908, Note_on_c, 0, 94, 0
2, 580939, Note_on_c, 0, 93, 51
2, 581014, Note_on_c, 0, 93, 0
2, 581048, Note_on_c, 0, 94, 41
2, 581164, Note_on_c, 0, 94, 0
2, 581188, Note_on_c, 0, 93, 56
2, 581214, Note_on_c, 0, 76, 45
2, 581220, Note_on_c, 0, 74, 57
2, 581294, Note_on_c, 0, 93, 0
2, 581338, Note_on_c, 0, 95, 52
2, 581390, Note_on_c, 0, 76, 0
2, 581400, Note_on_c, 0, 77, 53
2, 581420, Note_on_c, 0, 95, 0
2, 581458, Note_on_c, 0, 93, 50
2, 581532, Note_on_c, 0, 93, 0
2, 581584, Note_on_c, 0, 95, 57
2, 581652, Note_on_c, 0, 95, 0
2, 581654, Note_on_c, 0, 79, 69
2, 581658, Note_on_c, 0, 77, 0
2, 581698, Note_on_c, 0, 93, 50
2, 581768, Note_on_c, 0, 93, 0
2, 581814, Note_on_c, 0, 95, 59
2, 581860, Note_on_c, 0, 79, 0
2, 581878, Note_on_c, 0, 95, 0
2, 581920, Note_on_c, 0, 93, 46
2, 581922, Note_on_c, 0, 81, 64
2, 581952, Note_on_c, 0, 74, 0
2, 581994, Note_on_c, 0, 93, 0
2, 582006, Note_on_c, 0, 81, 0
2, 582038, Note_on_c, 0, 95, 66
2, 582098, Note_on_c, 0, 95, 0
2, 582158, Note_on_c, 0, 93, 52
2, 582250, Note_on_c, 0, 93, 0
2, 582274, Note_on_c, 0, 94, 58
2, 582410, Note_on_c, 0, 94, 0
2, 582413, Note_on_c, 0, 93, 56
2, 582502, Note_on_c, 0, 93, 0
2, 582538, Note_on_c, 0, 95, 53
2, 582622, Note_on_c, 0, 95, 0
2, 582650, Note_on_c, 0, 81, 64
2, 582660, Note_on_c, 0, 93, 58
2, 582664, Note_on_c, 0, 74, 62
2, 582742, Note_on_c, 0, 93, 0
2, 582770, Note_on_c, 0, 94, 52
2, 582846, Note_on_c, 0, 74, 0
2, 582868, Note_on_c, 0, 94, 0
2, 582888, Note_on_c, 0, 93, 51
2, 582902, Note_on_c, 0, 81, 0
2, 582966, Note_on_c, 0, 93, 0
2, 583000, Note_on_c, 0, 95, 62
2, 583098, Note_on_c, 0, 95, 0
2, 583132, Note_on_c, 0, 93, 51
2, 583138, Note_on_c, 0, 86, 70
2, 583212, Note_on_c, 0, 93, 0
2, 583238, Note_on_c, 0, 94, 53
2, 583256, Note_on_c, 0, 86, 0
2, 583350, Note_on_c, 0, 94, 0
2, 583353, Note_on_c, 0, 93, 46
2, 583446, Note_on_c, 0, 93, 0
2, 583486, Note_on_c, 0, 95, 51
2, 583564, Note_on_c, 0, 95, 0
2, 583576, Note_on_c, 0, 81, 52
2, 583584, Note_on_c, 0, 74, 41
2, 583588, Note_on_c, 0, 93, 44
2, 583670, Note_on_c, 0, 93, 0
2, 583702, Note_on_c, 0, 94, 46
2, 583730, Note_on_c, 0, 74, 0
2, 583762, Note_on_c, 0, 81, 0
2, 583806, Note_on_c, 0, 93, 38
2, 583810, Note_on_c, 0, 94, 0
2, 583898, Note_on_c, 0, 93, 0
2, 583938, Note_on_c, 0, 95, 45
2, 584024, Note_on_c, 0, 95, 0
2, 584042, Note_on_c, 0, 93, 38
2, 584054, Note_on_c, 0, 86, 56
2, 584134, Note_on_c, 0, 93, 0
2, 584142, Note_on_c, 0, 86, 0
2, 584164, Note_on_c, 0, 94, 41
2, 584264, Note_on_c, 0, 94, 0
2, 584264, Note_on_c, 0, 93, 35
2, 584362, Note_on_c, 0, 93, 0
2, 584404, Note_on_c, 0, 95, 43
2, 584486, Note_on_c, 0, 95, 0
2, 584500, Note_on_c, 0, 93, 35
2, 584510, Note_on_c, 0, 81, 47
2, 584518, Note_on_c, 0, 74, 45
2, 584606, Note_on_c, 0, 93, 0
2, 584620, Note_on_c, 0, 94, 44
2, 584642, Note_on_c, 0, 74, 0
2, 584720, Note_on_c, 0, 94, 0
2, 584726, Note_on_c, 0, 93, 31
2, 584736, Note_on_c, 0, 81, 0
2, 584826, Note_on_c, 0, 93, 0
2, 584868, Note_on_c, 0, 95, 41
2, 584956, Note_on_c, 0, 95, 0
2, 584984, Note_on_c, 0, 93, 30
2, 584994, Note_on_c, 0, 86, 47
2, 585078, Note_on_c, 0, 93, 0
2, 585114, Note_on_c, 0, 94, 35
2, 585154, Note_on_c, 0, 86, 0
2, 585208, Note_on_c, 0, 94, 0
2, 585234, Note_on_c, 0, 93, 36
2, 585330, Note_on_c, 0, 93, 0
2, 585382, Note_on_c, 0, 95, 34
2, 585488, Note_on_c, 0, 95, 0
2, 585502, Note_on_c, 0, 81, 36
2, 585506, Note_on_c, 0, 93, 33
2, 585508, Note_on_c, 0, 74, 39
2, 585604, Note_on_c, 0, 93, 0
2, 585664, Note_on_c, 0, 94, 22
2, 585738, Note_on_c, 0, 74, 0
2, 585792, Note_on_c, 0, 93, 41
2, 585798, Note_on_c, 0, 94, 0
2, 585856, Note_on_c, 0, 81, 0
2, 585892, Note_on_c, 0, 93, 0
2, 585940, Note_on_c, 0, 95, 41
2, 586216, Note_on_c, 0, 95, 0
2, 586310, Note_on_c, 0, 86, 36
2, 586426, Note_on_c, 0, 93, 49
2, 586512, Note_on_c, 0, 93, 0
2, 586550, Note_on_c, 0, 98, 37
2, 586668, Note_on_c, 0, 105, 49
2, 587338, Note_on_c, 0, 98, 0
2, 588856, Note_on_c, 0, 105, 0
2, 588894, Note_on_c, 0, 86, 0
2, 589642, Control_c, 0, 64, 0
2, 591360, Control_c, 0, 64, 0
2, 595200, Control_c, 0, 64, 0
2, 595200, Control_c, 0, 64, 127
2, 595200, Note_on_c, 0, 80, 59
2, 596950, Note_on_c, 0, 78, 51
2, 597132, Note_on_c, 0, 80, 0
2, 597246, Note_on_c, 0, 76, 61
2, 597338, Note_on_c, 0, 78, 0
2, 597500, Note_on_c, 0, 74, 74
2, 597560, Note_on_c, 0, 76, 0
2, 597632, Control_c, 0, 64, 0
2, 597846, Control_c, 0, 64, 127
2, 597922, Note_on_c, 0, 76, 54
2, 597932, Note_on_c, 0, 74, 0
2, 598076, Note_on_c, 0, 74, 67
2, 598094, Note_on_c, 0, 76, 0
2, 598186, Note_on_c, 0, 73, 73
2, 598204, Note_on_c, 0, 74, 0
2, 598326, Note_on_c, 0, 71, 84
2, 598354, Note_on_c, 0, 73, 0
2, 598384, Control_c, 0, 64, 0
2, 598708, Control_c, 0, 64, 127
2, 598740, Note_on_c, 0, 71, 0
2, 598762, Note_on_c, 0, 83, 98
2, 598846, Control_c, 0, 64, 0
2, 599184, Control_c, 0, 64, 127
2, 599370, Note_on_c, 0, 80, 69
2, 599434, Note_on_c, 0, 83, 0
2, 599538, Control_c, 0, 64, 0
2, 599936, Control_c, 0, 64, 127
2, 601142, Note_on_c, 0, 78, 37
2, 601322, Note_on_c, 0, 80, 0
2, 601408, Note_on_c, 0, 76, 35
2, 601478, Note_on_c, 0, 78, 0
2, 601718, Note_on_c, 0, 76, 0
2, 601720, Note_on_c, 0, 74, 35
2, 601996, Control_c, 0, 64, 0
2, 602440, Control_c, 0, 64, 127
2, 603040, Note_on_c, 0, 74, 0
2, 603720, Note_on_c, 0, 76, 51
2, 603846, Note_on_c, 0, 74, 77
2, 604070, Control_c, 0, 64, 0
2, 604136, Note_on_c, 0, 76, 0
2, 604454, Control_c, 0, 64, 127
2, 604602, Note_on_c, 0, 74, 0
2, 605452, Note_on_c, 0, 77, 74
2, 605550, Note_on_c, 0, 74, 87
2, 605632, Note_on_c, 0, 77, 0
2, 605684, Control_c, 0, 64, 0
2, 606082, Control_c, 0, 64, 127
2, 606300, Note_on_c, 0, 74, 0
2, 607700, Note_on_c, 0, 79, 39
2, 607878, Note_on_c, 0, 77, 42
2, 607886, Note_on_c, 0, 79, 0
2, 608082, Note_on_c, 0, 74, 44
2, 608130, Note_on_c, 0, 77, 0
2, 608264, Control_c, 0, 64, 0
2, 608802, Control_c, 0, 64, 127
2, 609458, Note_on_c, 0, 74, 0
2, 611444, Control_c, 0, 64, 0
2, 612310, Note_on_c, 0, 73, 60
2, 612322, Note_on_c, 0, 67, 44
2, 612332, Note_on_c, 0, 65, 36
2, 612612, Note_on_c, 0, 71, 65
2, 612616, Note_on_c, 0, 73, 0
2, 612682, Note_on_c, 0, 73, 74
2, 612718, Note_on_c, 0, 71, 0
2, 612960, Note_on_c, 0, 74, 69
2, 613008, Note_on_c, 0, 73, 0
2, 613030, Note_on_c, 0, 74, 0
2, 613050, Note_on_c, 0, 76, 60
2, 613060, Note_on_c, 0, 67, 0
2, 613060, Note_on_c, 0, 68, 43
2, 613326, Note_on_c, 0, 74, 56
2, 613342, Note_on_c, 0, 76, 0
2, 613390, Note_on_c, 0, 74, 0
2, 613426, Note_on_c, 0, 73, 44
2, 613580, Control_c, 0, 64, 127
2, 613584, Note_on_c, 0, 65, 0
2, 613688, Note_on_c, 0, 73, 0
2, 613696, Note_on_c, 0, 68, 0
2, 613698, Note_on_c, 0, 71, 53
2, 613758, Note_on_c, 0, 73, 68
2, 613768, Note_on_c, 0, 65, 52
2, 613770, Note_on_c, 0, 71, 0
2, 613776, Note_on_c, 0, 67, 69
2, 614042, Note_on_c, 0, 71, 82
2, 614050, Note_on_c, 0, 73, 0
2, 614088, Control_c, 0, 64, 0
2, 614120, Note_on_c, 0, 73, 81
2, 614130, Note_on_c, 0, 71, 0
2, 614362, Note_on_c, 0, 74, 88
2, 614378, Note_on_c, 0, 73, 0
2, 614464, Note_on_c, 0, 74, 0
2, 614476, Note_on_c, 0, 76, 80
2, 614490, Note_on_c, 0, 67, 0
2, 614500, Note_on_c, 0, 68, 52
2, 614606, Note_on_c, 0, 77, 82
2, 614626, Note_on_c, 0, 76, 0
2, 614716, Note_on_c, 0, 76, 59
2, 614748, Note_on_c, 0, 77, 0
2, 614826, Note_on_c, 0, 74, 89
2, 614856, Note_on_c, 0, 76, 0
2, 614894, Note_on_c, 0, 74, 0
2, 614932, Note_on_c, 0, 73, 76
2, 615009, Control_c, 0, 64, 127
2, 615032, Note_on_c, 0, 71, 98
2, 615034, Note_on_c, 0, 73, 0
2, 615086, Control_c, 0, 64, 0
2, 615116, Note_on_c, 0, 71, 0
2, 615130, Note_on_c, 0, 68, 0
2, 615152, Note_on_c, 0, 67, 60
2, 615174, Note_on_c, 0, 73, 83
2, 615192, Note_on_c, 0, 65, 0
2, 615212, Note_on_c, 0, 64, 46
2, 615594, Control_c, 0, 64, 127
2, 615656, Note_on_c, 0, 74, 57
2, 615664, Note_on_c, 0, 73, 0
2, 615700, Control_c, 0, 64, 0
2, 615812, Note_on_c, 0, 74, 0
2, 615830, Note_on_c, 0, 71, 58
2, 616346, Control_c, 0, 64, 127
2, 616896, Note_on_c, 0, 64, 0
2, 616906, Note_on_c, 0, 67, 0
2, 616938, Note_on_c, 0, 63, 30
2, 616944, Note_on_c, 0, 66, 23
2, 617192, Control_c, 0, 64, 0
2, 617698, Control_c, 0, 64, 127
2, 617946, Note_on_c, 0, 71, 0
2, 618092, Note_on_c, 0, 66, 0
2, 618098, Note_on_c, 0, 63, 0
2, 618484, Note_on_c, 0, 73, 38
2, 618500, Note_on_c, 0, 65, 37
2, 618510, Note_on_c, 0, 62, 30
2, 618796, Note_on_c, 0, 73, 0
2, 618802, Note_on_c, 0, 71, 62
2, 618850, Control_c, 0, 64, 0
2, 618888, Note_on_c, 0, 73, 52
2, 618896, Note_on_c, 0, 71, 0
2, 619034, Control_c, 0, 64, 127
2, 619134, Note_on_c, 0, 74, 65
2, 619142, Note_on_c, 0, 73, 0
2, 619192, Note_on_c, 0, 65, 0
2, 619226, Note_on_c, 0, 74, 0
2, 619234, Control_c, 0, 64, 0
2, 619236, Note_on_c, 0, 62, 0
2, 619246, Note_on_c, 0, 64, 35
2, 619249, Note_on_c, 0, 76, 47
2, 619270, Note_on_c, 0, 57, 20
2, 619480, Control_c, 0, 64, 127
2, 619514, Note_on_c, 0, 76, 0
2, 619534, Note_on_c, 0, 74, 47
2, 619606, Note_on_c, 0, 74, 0
2, 619644, Note_on_c, 0, 73, 45
2, 619650, Control_c, 0, 64, 0
2, 619848, Control_c, 0, 64, 127
2, 619906, Note_on_c, 0, 73, 0
2, 619932, Note_on_c, 0, 71, 47
2, 620018, Note_on_c, 0, 64, 0
2, 620030, Note_on_c, 0, 71, 0
2, 620046, Note_on_c, 0, 57, 0
2, 620050, Note_on_c, 0, 65, 37
2, 620052, Note_on_c, 0, 73, 66
2, 620070, Note_on_c, 0, 62, 26
2, 620202, Control_c, 0, 64, 0
2, 620330, Note_on_c, 0, 71, 88
2, 620340, Note_on_c, 0, 73, 0
2, 620402, Control_c, 0, 64, 127
2, 620436, Note_on_c, 0, 73, 65
2, 620464, Note_on_c, 0, 71, 0
2, 620678, Control_c, 0, 64, 0
2, 620690, Note_on_c, 0, 74, 93
2, 620778, Note_on_c, 0, 73, 0
2, 620882, Note_on_c, 0, 76, 84
2, 620894, Control_c, 0, 64, 127
2, 620898, Note_on_c, 0, 65, 0
2, 620902, Note_on_c, 0, 64, 51
2, 620926, Note_on_c, 0, 62, 0
2, 620930, Note_on_c, 0, 57, 24
2, 620942, Note_on_c, 0, 74, 0
2, 621086, Note_on_c, 0, 77, 88
2, 621120, Note_on_c, 0, 76, 0
2, 621186, Control_c, 0, 64, 0
2, 621262, Note_on_c, 0, 76, 82
2, 621280, Note_on_c, 0, 77, 0
2, 621408, Note_on_c, 0, 74, 83
2, 621418, Note_on_c, 0, 76, 0
2, 621492, Control_c, 0, 64, 127
2, 621528, Note_on_c, 0, 73, 73
2, 621532, Note_on_c, 0, 74, 0
2, 621670, Note_on_c, 0, 71, 93
2, 621673, Note_on_c, 0, 64, 0
2, 621673, Note_on_c, 0, 73, 0
2, 621740, Control_c, 0, 64, 0
2, 621830, Note_on_c, 0, 73, 83
2, 621832, Note_on_c, 0, 65, 65
2, 621836, Note_on_c, 0, 62, 58
2, 621841, Note_on_c, 0, 71, 0
2, 622010, Note_on_c, 0, 57, 0
2, 622362, Note_on_c, 0, 74, 82
2, 622394, Note_on_c, 0, 73, 0
2, 622518, Note_on_c, 0, 71, 90
2, 622578, Note_on_c, 0, 74, 0
2, 623044, Control_c, 0, 64, 127
2, 623734, Note_on_c, 0, 66, 54
2, 623956, Note_on_c, 0, 65, 0
2, 624044, Control_c, 0, 64, 0
2, 624336, Control_c, 0, 64, 127
2, 624548, Note_on_c, 0, 62, 0
2, 624686, Note_on_c, 0, 61, 37
2, 624686, Note_on_c, 0, 64, 49
2, 624792, Note_on_c, 0, 66, 0
2, 624904, Control_c, 0, 64, 0
2, 625048, Note_on_c, 0, 69, 52
2, 625128, Note_on_c, 0, 71, 0
2, 625134, Control_c, 0, 64, 127
2, 625320, Note_on_c, 0, 64, 0
2, 625356, Note_on_c, 0, 61, 0
2, 625396, Note_on_c, 0, 68, 56
2, 625416, Note_on_c, 0, 69, 0
2, 625546, Note_on_c, 0, 68, 0
2, 625912, Note_on_c, 0, 66, 39
2, 625918, Note_on_c, 0, 57, 29
2, 625926, Note_on_c, 0, 62, 31
2, 625932, Note_on_c, 0, 47, 33
2, 625980, Control_c, 0, 64, 0
2, 626302, Control_c, 0, 64, 127
2, 626442, Note_on_c, 0, 66, 0
2, 626462, Note_on_c, 0, 68, 35
2, 626508, Note_on_c, 0, 47, 0
2, 626578, Note_on_c, 0, 68, 0
2, 626600, Note_on_c, 0, 57, 0
2, 626605, Note_on_c, 0, 64, 46
2, 626618, Note_on_c, 0, 52, 41
2, 626620, Note_on_c, 0, 56, 33
2, 626640, Control_c, 0, 64, 0
2, 627348, Control_c, 0, 64, 127
2, 627700, Note_on_c, 0, 52, 0
2, 627754, Note_on_c, 0, 56, 0
2, 628706, Note_on_c, 0, 52, 57
2, 629172, Note_on_c, 0, 64, 0
2, 629986, Note_on_c, 0, 50, 28
2, 630014, Note_on_c, 0, 52, 0
2, 630132, Note_on_c, 0, 49, 42
2, 630146, Note_on_c, 0, 50, 0
2, 630180, Note_on_c, 0, 62, 0
2, 630238, Note_on_c, 0, 49, 0
2, 630266, Note_on_c, 0, 47, 36
2, 630360, Note_on_c, 0, 47, 0
2, 630366, Note_on_c, 0, 61, 42
2, 630366, Note_on_c, 0, 64, 53
2, 630368, Note_on_c, 0, 45, 49
2, 630372, Note_on_c, 0, 52, 38
2, 630405, Control_c, 0, 64, 0
2, 630788, Control_c, 0, 64, 127
2, 630830, Note_on_c, 0, 52, 0
2, 630936, Note_on_c, 0, 45, 0
2, 631610, Note_on_c, 0, 33, 30
2, 631612, Note_on_c, 0, 40, 59
2, 631810, Note_on_c, 0, 64, 0
2, 631856, Note_on_c, 0, 61, 0
2, 632572, Note_on_c, 0, 40, 0
2, 633186, Note_on_c, 0, 88, 57
2, 633192, Note_on_c, 0, 85, 42
2, 635758, Note_on_c, 0, 33, 0
2, 635764, Note_on_c, 0, 88, 0
2, 635858, Note_on_c, 0, 85, 0
2, 636490, Control_c, 0, 64, 0
2, 637386, Note_on_c, 0, 68, 53
2, 637620, Note_on_c, 0, 71, 84
2, 637642, Control_c, 0, 64, 127
2, 637698, Note_on_c, 0, 68, 0
2, 637750, Control_c, 0, 64, 0
2, 637858, Note_on_c, 0, 73, 79
2, 637906, Note_on_c, 0, 71, 0
2, 639010, Control_c, 0, 64, 127
2, 639138, Note_on_c, 0, 76, 64
2, 639192, Note_on_c, 0, 73, 0
2, 639210, Control_c, 0, 64, 0
2, 639518, Control_c, 0, 64, 127
2, 639608, Note_on_c, 0, 75, 73
2, 639714, Note_on_c, 0, 76, 0
2, 639808, Control_c, 0, 64, 0
2, 640016, Note_on_c, 0, 73, 61
2, 640040, Control_c, 0, 64, 127
2, 640176, Note_on_c, 0, 75, 0
2, 640218, Note_on_c, 0, 71, 91
2, 640284, Note_on_c, 0, 73, 0
2, 640430, Note_on_c, 0, 68, 81
2, 640508, Note_on_c, 0, 71, 0
2, 640546, Control_c, 0, 64, 0
2, 640776, Control_c, 0, 64, 127
2, 640848, Note_on_c, 0, 78, 81
2, 640894, Note_on_c, 0, 68, 0
2, 640946, Control_c, 0, 64, 0
2, 641206, Control_c, 0, 64, 127
2, 641406, Note_on_c, 0, 76, 59
2, 641480, Note_on_c, 0, 78, 0
2, 641560, Control_c, 0, 64, 0
2, 641852, Control_c, 0, 64, 127
2, 641998, Note_on_c, 0, 75, 49
2, 642008, Note_on_c, 0, 76, 0
2, 642174, Note_on_c, 0, 73, 39
2, 642177, Note_on_c, 0, 75, 0
2, 642252, Note_on_c, 0, 73, 0
2, 642294, Note_on_c, 0, 71, 50
2, 642440, Note_on_c, 0, 68, 35
2, 642452, Control_c, 0, 64, 0
2, 642512, Note_on_c, 0, 71, 0
2, 643004, Control_c, 0, 64, 127
2, 644008, Note_on_c, 0, 75, 45
2, 644026, Note_on_c, 0, 68, 0
2, 644050, Control_c, 0, 64, 0
2, 644294, Control_c, 0, 64, 127
2, 644510, Note_on_c, 0, 73, 47
2, 644570, Note_on_c, 0, 75, 0
2, 644686, Note_on_c, 0, 73, 0
2, 644688, Note_on_c, 0, 71, 57
2, 644774, Note_on_c, 0, 71, 0
2, 644806, Note_on_c, 0, 68, 52
2, 644970, Note_on_c, 0, 68, 0
2, 644972, Note_on_c, 0, 66, 54
2, 644990, Note_on_c, 0, 64, 54
2, 644992, Note_on_c, 0, 59, 36
2, 644996, Note_on_c, 0, 57, 35
2, 645002, Control_c, 0, 64, 0
2, 645388, Note_on_c, 0, 63, 47
2, 645402, Control_c, 0, 64, 127
2, 645456, Note_on_c, 0, 64, 0
2, 645632, Control_c, 0, 64, 0
2, 645800, Control_c, 0, 64, 127
2, 645852, Note_on_c, 0, 61, 56
2, 645878, Note_on_c, 0, 63, 0
2, 646550, Note_on_c, 0, 57, 0
2, 646562, Note_on_c, 0, 59, 0
2, 646622, Note_on_c, 0, 61, 0
2, 647230, Note_on_c, 0, 75, 65
2, 647246, Note_on_c, 0, 64, 30
2, 647248, Note_on_c, 0, 57, 26
2, 647262, Note_on_c, 0, 54, 29
2, 647268, Note_on_c, 0, 66, 0
2, 647338, Control_c, 0, 64, 0
2, 647506, Control_c, 0, 64, 127
2, 647534, Note_on_c, 0, 64, 0
2, 647672, Note_on_c, 0, 57, 0
2, 647724, Note_on_c, 0, 73, 57
2, 647728, Note_on_c, 0, 63, 46
2, 647752, Note_on_c, 0, 54, 0
2, 647760, Note_on_c, 0, 56, 33
2, 647800, Note_on_c, 0, 59, 23
2, 647838, Note_on_c, 0, 75, 0
2, 647878, Note_on_c, 0, 71, 76
2, 647892, Note_on_c, 0, 63, 0
2, 647952, Note_on_c, 0, 73, 0
2, 647984, Note_on_c, 0, 68, 59
2, 648022, Note_on_c, 0, 71, 0
2, 648086, Note_on_c, 0, 56, 0
2, 648086, Note_on_c, 0, 66, 66
2, 648086, Note_on_c, 0, 61, 56
2, 648089, Note_on_c, 0, 59, 0
2, 648098, Note_on_c, 0, 57, 58
2, 648122, Note_on_c, 0, 68, 0
2, 648122, Control_c, 0, 64, 0
2, 648340, Note_on_c, 0, 61, 0
2, 648352, Control_c, 0, 64, 127
2, 648460, Note_on_c, 0, 63, 72
2, 648468, Note_on_c, 0, 57, 0
2, 648484, Note_on_c, 0, 56, 53
2, 648490, Note_on_c, 0, 59, 45
2, 648536, Control_c, 0, 64, 0
2, 648658, Control_c, 0, 64, 127
2, 648742, Note_on_c, 0, 63, 0
2, 648778, Note_on_c, 0, 56, 0
2, 648780, Note_on_c, 0, 59, 0
2, 648816, Note_on_c, 0, 75, 81
2, 648828, Control_c, 0, 64, 0
2, 648842, Note_on_c, 0, 57, 37
2, 648844, Note_on_c, 0, 64, 51
2, 648846, Note_on_c, 0, 54, 45
2, 648874, Note_on_c, 0, 66, 0
2, 649042, Note_on_c, 0, 64, 0
2, 649044, Control_c, 0, 64, 127
2, 649192, Note_on_c, 0, 57, 0
2, 649208, Note_on_c, 0, 73, 59
2, 649222, Note_on_c, 0, 63, 52
2, 649228, Note_on_c, 0, 54, 0
2, 649236, Note_on_c, 0, 56, 47
2, 649240, Note_on_c, 0, 59, 36
2, 649288, Note_on_c, 0, 75, 0
2, 649364, Note_on_c, 0, 71, 73
2, 649430, Note_on_c, 0, 73, 0
2, 649444, Note_on_c, 0, 63, 0
2, 649480, Note_on_c, 0, 68, 58
2, 649546, Note_on_c, 0, 71, 0
2, 649608, Note_on_c, 0, 59, 0
2, 649640, Note_on_c, 0, 66, 58
2, 649642, Control_c, 0, 64, 0
2, 649648, Note_on_c, 0, 61, 44
2, 649660, Note_on_c, 0, 57, 42
2, 649692, Note_on_c, 0, 68, 0
2, 649708, Note_on_c, 0, 56, 0
2, 650026, Control_c, 0, 64, 127
2, 650066, Note_on_c, 0, 61, 0
2, 650104, Note_on_c, 0, 57, 0
2, 650470, Note_on_c, 0, 69, 47
2, 650470, Note_on_c, 0, 49, 57
2, 650610, Note_on_c, 0, 66, 0
2, 651080, Note_on_c, 0, 68, 50
2, 651106, Note_on_c, 0, 69, 0
2, 651248, Note_on_c, 0, 68, 0
2, 651258, Note_on_c, 0, 66, 49
2, 651418, Note_on_c, 0, 66, 0
2, 651430, Note_on_c, 0, 64, 51
2, 651486, Note_on_c, 0, 64, 0
2, 651668, Note_on_c, 0, 61, 69
2, 651690, Note_on_c, 0, 42, 42
2, 651690, Note_on_c, 0, 57, 12
2, 651692, Note_on_c, 0, 52, 52
2, 651700, Control_c, 0, 64, 0
2, 651800, Note_on_c, 0, 49, 0
2, 652024, Control_c, 0, 64, 127
2, 652098, Note_on_c, 0, 52, 0
2, 652196, Note_on_c, 0, 57, 0
2, 652228, Note_on_c, 0, 63, 52
2, 652370, Note_on_c, 0, 61, 0
2, 652378, Note_on_c, 0, 57, 30
2, 652380, Note_on_c, 0, 59, 45
2, 652392, Note_on_c, 0, 51, 39
2, 652400, Note_on_c, 0, 47, 37
2, 652402, Note_on_c, 0, 63, 0
2, 652454, Control_c, 0, 64, 0
2, 652534, Note_on_c, 0, 42, 0
2, 652960, Control_c, 0, 64, 127
2, 653696, Note_on_c, 0, 51, 0
2, 653756, Note_on_c, 0, 47, 0
2, 654688, Note_on_c, 0, 47, 36
2, 655154, Note_on_c, 0, 57, 0
2, 655354, Note_on_c, 0, 59, 0
2, 655930, Note_on_c, 0, 45, 33
2, 655958, Note_on_c, 0, 47, 0
2, 656066, Note_on_c, 0, 44, 50
2, 656092, Note_on_c, 0, 45, 0
2, 656206, Note_on_c, 0, 42, 51
2, 656242, Note_on_c, 0, 44, 0
2, 656366, Note_on_c, 0, 59, 51
2, 656372, Note_on_c, 0, 56, 56
2, 656374, Note_on_c, 0, 42, 0
2, 656388, Note_on_c, 0, 47, 44
2, 656388, Control_c, 0, 64, 0
2, 656392, Note_on_c, 0, 40, 56
2, 656848, Control_c, 0, 64, 127
2, 656898, Note_on_c, 0, 47, 0
2, 656964, Note_on_c, 0, 40, 0
2, 658004, Note_on_c, 0, 35, 36
2, 658008, Note_on_c, 0, 28, 29
2, 658312, Note_on_c, 0, 59, 0
2, 658350, Note_on_c, 0, 56, 0
2, 659070, Note_on_c, 0, 35, 0
2, 659786, Note_on_c, 0, 80, 38
2, 659786, Note_on_c, 0, 83, 76
2, 661632, Note_on_c, 0, 28, 0
2, 663022, Note_on_c, 0, 83, 0
2, 663022, Note_on_c, 0, 80, 0
2, 663086, Control_c, 0, 64, 0
2, 663638, Note_on_c, 0, 74, 70
2, 663786, Note_on_c, 0, 77, 96
2, 663832, Note_on_c, 0, 74, 0
2, 663900, Note_on_c, 0, 78, 100
2, 663900, Control_c, 0, 64, 127
2, 663948, Note_on_c, 0, 77, 0
2, 664018, Note_on_c, 0, 80, 106
2, 664040, Control_c, 0, 64, 0
2, 664068, Note_on_c, 0, 78, 0
2, 665022, Control_c, 0, 64, 127
2, 665386, Note_on_c, 0, 81, 91
2, 665452, Note_on_c, 0, 80, 0
2, 665544, Control_c, 0, 64, 0
2, 665836, Control_c, 0, 64, 127
2, 665860, Note_on_c, 0, 80, 98
2, 666000, Note_on_c, 0, 81, 0
2, 666066, Control_c, 0, 64, 0
2, 666214, Note_on_c, 0, 78, 99
2, 666282, Control_c, 0, 64, 127
2, 666454, Note_on_c, 0, 77, 113
2, 666500, Note_on_c, 0, 80, 0
2, 666538, Note_on_c, 0, 78, 0
2, 666696, Note_on_c, 0, 74, 107
2, 666712, Control_c, 0, 64, 0
2, 666748, Note_on_c, 0, 77, 0
2, 666894, Note_on_c, 0, 83, 127
2, 666928, Note_on_c, 0, 74, 0
2, 667056, Note_on_c, 0, 81, 105
2, 667128, Note_on_c, 0, 83, 0
2, 667142, Control_c, 0, 64, 127
2, 667182, Note_on_c, 0, 80, 105
2, 667250, Note_on_c, 0, 81, 0
2, 667316, Note_on_c, 0, 78, 102
2, 667384, Note_on_c, 0, 80, 0
2, 667460, Note_on_c, 0, 77, 103
2, 667498, Note_on_c, 0, 78, 0
2, 667650, Control_c, 0, 64, 0
2, 667656, Note_on_c, 0, 74, 99
2, 667764, Note_on_c, 0, 77, 0
2, 668464, Control_c, 0, 64, 127
2, 669320, Note_on_c, 0, 78, 57
2, 669324, Control_c, 0, 64, 0
2, 669374, Note_on_c, 0, 74, 0
2, 669770, Control_c, 0, 64, 127
2, 670328, Note_on_c, 0, 77, 59
2, 670330, Note_on_c, 0, 70, 39
2, 670340, Note_on_c, 0, 61, 44
2, 670380, Note_on_c, 0, 78, 0
2, 670638, Note_on_c, 0, 77, 0
2, 670662, Note_on_c, 0, 75, 66
2, 670692, Control_c, 0, 64, 0
2, 670748, Note_on_c, 0, 77, 57
2, 670766, Note_on_c, 0, 75, 0
2, 670968, Control_c, 0, 64, 127
2, 671004, Note_on_c, 0, 77, 0
2, 671008, Note_on_c, 0, 78, 60
2, 671080, Note_on_c, 0, 70, 0
2, 671090, Control_c, 0, 64, 0
2, 671106, Note_on_c, 0, 78, 0
2, 671127, Note_on_c, 0, 80, 59
2, 671148, Note_on_c, 0, 69, 47
2, 671414, Note_on_c, 0, 78, 58
2, 671430, Note_on_c, 0, 80, 0
2, 671430, Control_c, 0, 64, 127
2, 671522, Control_c, 0, 64, 0
2, 671542, Note_on_c, 0, 77, 57
2, 671547, Note_on_c, 0, 78, 0
2, 671782, Control_c, 0, 64, 127
2, 671790, Note_on_c, 0, 77, 0
2, 671816, Note_on_c, 0, 75, 62
2, 671930, Note_on_c, 0, 75, 0
2, 671930, Note_on_c, 0, 77, 72
2, 671934, Note_on_c, 0, 68, 47
2, 671944, Note_on_c, 0, 69, 0
2, 672044, Control_c, 0, 64, 0
2, 672196, Note_on_c, 0, 75, 72
2, 672200, Note_on_c, 0, 77, 0
2, 672274, Control_c, 0, 64, 127
2, 672312, Note_on_c, 0, 77, 75
2, 672326, Note_on_c, 0, 75, 0
2, 672352, Control_c, 0, 64, 0
2, 672550, Note_on_c, 0, 78, 89
2, 672560, Note_on_c, 0, 77, 0
2, 672566, Control_c, 0, 64, 127
2, 672674, Control_c, 0, 64, 0
2, 672684, Note_on_c, 0, 80, 92
2, 672706, Note_on_c, 0, 78, 0
2, 672716, Note_on_c, 0, 69, 43
2, 672728, Note_on_c, 0, 68, 0
2, 672818, Note_on_c, 0, 81, 97
2, 672836, Note_on_c, 0, 80, 0
2, 672926, Note_on_c, 0, 80, 79
2, 672960, Note_on_c, 0, 81, 0
2, 673042, Note_on_c, 0, 78, 93
2, 673064, Note_on_c, 0, 80, 0
2, 673134, Control_c, 0, 64, 127
2, 673166, Note_on_c, 0, 77, 88
2, 673174, Note_on_c, 0, 78, 0
2, 673274, Note_on_c, 0, 75, 88
2, 673304, Note_on_c, 0, 77, 0
2, 673304, Control_c, 0, 64, 0
2, 673404, Note_on_c, 0, 70, 54
2, 673404, Note_on_c, 0, 73, 90
2, 673416, Note_on_c, 0, 66, 41
2, 673426, Note_on_c, 0, 69, 0
2, 673442, Note_on_c, 0, 75, 0
2, 673570, Note_on_c, 0, 61, 0
2, 673770, Note_on_c, 0, 75, 62
2, 673806, Note_on_c, 0, 73, 0
2, 673850, Note_on_c, 0, 72, 69
2, 673932, Note_on_c, 0, 75, 0
2, 674332, Control_c, 0, 64, 127
2, 674790, Note_on_c, 0, 68, 52
2, 674794, Note_on_c, 0, 66, 0
2, 674794, Note_on_c, 0, 65, 46
2, 674900, Note_on_c, 0, 70, 0
2, 675148, Control_c, 0, 64, 0
2, 675348, Control_c, 0, 64, 127
2, 675474, Note_on_c, 0, 65, 0
2, 675542, Note_on_c, 0, 66, 59
2, 675544, Note_on_c, 0, 63, 41
2, 675614, Note_on_c, 0, 68, 0
2, 675762, Control_c, 0, 64, 0
2, 675790, Note_on_c, 0, 73, 81
2, 675882, Note_on_c, 0, 72, 0
2, 675976, Control_c, 0, 64, 127
2, 676050, Note_on_c, 0, 73, 0
2, 676080, Note_on_c, 0, 75, 96
2, 676161, Note_on_c, 0, 63, 0
2, 676178, Note_on_c, 0, 75, 0
2, 676178, Note_on_c, 0, 66, 0
2, 676340, Note_on_c, 0, 77, 105
2, 676348, Note_on_c, 0, 73, 80
2, 676356, Note_on_c, 0, 70, 57
2, 676470, Control_c, 0, 64, 0
2, 676730, Note_on_c, 0, 78, 87
2, 676746, Control_c, 0, 64, 127
2, 676749, Note_on_c, 0, 77, 0
2, 676828, Note_on_c, 0, 75, 99
2, 676926, Note_on_c, 0, 78, 0
2, 677000, Note_on_c, 0, 73, 0
2, 677066, Note_on_c, 0, 72, 91
2, 677069, Note_on_c, 0, 70, 0
2, 677069, Note_on_c, 0, 68, 64
2, 677264, Note_on_c, 0, 77, 108
2, 677310, Note_on_c, 0, 75, 0
2, 677350, Note_on_c, 0, 72, 0
2, 677382, Note_on_c, 0, 70, 92
2, 677384, Note_on_c, 0, 66, 68
2, 677388, Note_on_c, 0, 68, 0
2, 677420, Control_c, 0, 64, 0
2, 677502, Note_on_c, 0, 78, 112
2, 677550, Note_on_c, 0, 77, 0
2, 677556, Note_on_c, 0, 70, 0
2, 677562, Note_on_c, 0, 66, 0
2, 677590, Control_c, 0, 64, 127
2, 677680, Note_on_c, 0, 78, 0
2, 677812, Note_on_c, 0, 80, 113
2, 677815, Note_on_c, 0, 77, 112
2, 677818, Note_on_c, 0, 73, 97
2, 677944, Control_c, 0, 64, 0
2, 678190, Control_c, 0, 64, 127
2, 678232, Note_on_c, 0, 82, 96
2, 678266, Note_on_c, 0, 80, 0
2, 678326, Note_on_c, 0, 78, 115
2, 678418, Note_on_c, 0, 82, 0
2, 678570, Note_on_c, 0, 75, 89
2, 678580, Note_on_c, 0, 72, 87
2, 678608, Note_on_c, 0, 77, 0
2, 678636, Control_c, 0, 64, 0
2, 678640, Note_on_c, 0, 73, 0
2, 678850, Control_c, 0, 64, 127
2, 678864, Note_on_c, 0, 80, 106
2, 678916, Note_on_c, 0, 75, 0
2, 678940, Note_on_c, 0, 78, 0
2, 678958, Note_on_c, 0, 72, 0
2, 679100, Note_on_c, 0, 80, 0
2, 679166, Note_on_c, 0, 82, 97
2, 679262, Note_on_c, 0, 82, 0
2, 679546, Note_on_c, 0, 84, 120
2, 679550, Note_on_c, 0, 58, 69
2, 679554, Note_on_c, 0, 73, 79
2, 679556, Note_on_c, 0, 65, 68
2, 679726, Control_c, 0, 64, 0
2, 680070, Note_on_c, 0, 85, 95
2, 680114, Note_on_c, 0, 84, 0
2, 680176, Note_on_c, 0, 82, 88
2, 680230, Note_on_c, 0, 85, 0
2, 680448, Control_c, 0, 64, 127
2, 680710, Note_on_c, 0, 58, 0
2, 680752, Note_on_c, 0, 65, 0
2, 680816, Note_on_c, 0, 82, 0
2, 681032, Note_on_c, 0, 73, 0
2, 681532, Note_on_c, 0, 70, 59
2, 681538, Note_on_c, 0, 58, 26
2, 681544, Note_on_c, 0, 65, 42
2, 681550, Note_on_c, 0, 51, 38
2, 682042, Note_on_c, 0, 67, 45
2, 682046, Control_c, 0, 64, 0
2, 682086, Note_on_c, 0, 65, 0
2, 682150, Note_on_c, 0, 63, 50
2, 682600, Control_c, 0, 64, 127
2, 682804, Note_on_c, 0, 63, 0
2, 682828, Note_on_c, 0, 51, 0
2, 682864, Note_on_c, 0, 58, 0
2, 682890, Note_on_c, 0, 67, 0
2, 682920, Note_on_c, 0, 70, 0
2, 683806, Note_on_c, 0, 84, 77
2, 683818, Note_on_c, 0, 73, 30
2, 683821, Note_on_c, 0, 58, 22
2, 683830, Note_on_c, 0, 65, 37
2, 683952, Control_c, 0, 64, 0
2, 684260, Control_c, 0, 64, 127
2, 684530, Note_on_c, 0, 84, 0
2, 684536, Note_on_c, 0, 85, 52
2, 684690, Note_on_c, 0, 82, 52
2, 684704, Note_on_c, 0, 85, 0
2, 684736, Control_c, 0, 64, 0
2, 685058, Control_c, 0, 64, 127
2, 685268, Note_on_c, 0, 65, 0
2, 685320, Note_on_c, 0, 82, 0
2, 685372, Note_on_c, 0, 58, 0
2, 685418, Note_on_c, 0, 73, 0
2, 686054, Note_on_c, 0, 70, 33
2, 686060, Note_on_c, 0, 65, 36
2, 686064, Note_on_c, 0, 58, 20
2, 686072, Note_on_c, 0, 51, 23
2, 686692, Note_on_c, 0, 65, 0
2, 686718, Note_on_c, 0, 67, 29
2, 686888, Note_on_c, 0, 63, 44
2, 687302, Control_c, 0, 64, 0
2, 687562, Control_c, 0, 64, 127
2, 687974, Note_on_c, 0, 63, 0
2, 688738, Note_on_c, 0, 63, 27
2, 689382, Note_on_c, 0, 58, 0
2, 689386, Note_on_c, 0, 51, 0
2, 690142, Note_on_c, 0, 70, 0
2, 690344, Note_on_c, 0, 67, 0
2, 690528, Control_c, 0, 64, 0
2, 690850, Control_c, 0, 64, 127
2, 691210, Note_on_c, 0, 63, 0
2, 691560, Note_on_c, 0, 73, 47
2, 691570, Note_on_c, 0, 65, 30
2, 691570, Note_on_c, 0, 62, 33
2, 691680, Control_c, 0, 64, 0
2, 691864, Control_c, 0, 64, 127
2, 691878, Note_on_c, 0, 73, 0
2, 691918, Note_on_c, 0, 71, 43
2, 691926, Control_c, 0, 64, 0
2, 691964, Note_on_c, 0, 73, 57
2, 692004, Note_on_c, 0, 71, 0
2, 692248, Control_c, 0, 64, 127
2, 692272, Note_on_c, 0, 73, 0
2, 692276, Note_on_c, 0, 74, 59
2, 692316, Note_on_c, 0, 62, 0
2, 692332, Note_on_c, 0, 65, 0
2, 692344, Note_on_c, 0, 74, 0
2, 692372, Control_c, 0, 64, 0
2, 692380, Note_on_c, 0, 76, 45
2, 692398, Note_on_c, 0, 57, 24
2, 692410, Note_on_c, 0, 64, 19
2, 692694, Control_c, 0, 64, 127
2, 692710, Note_on_c, 0, 76, 0
2, 692710, Note_on_c, 0, 74, 35
2, 692788, Control_c, 0, 64, 0
2, 692814, Note_on_c, 0, 73, 38
2, 692822, Note_on_c, 0, 74, 0
2, 693018, Control_c, 0, 64, 127
2, 693124, Note_on_c, 0, 73, 0
2, 693153, Note_on_c, 0, 71, 38
2, 693238, Note_on_c, 0, 64, 0
2, 693256, Note_on_c, 0, 65, 42
2, 693258, Note_on_c, 0, 62, 24
2, 693261, Note_on_c, 0, 71, 0
2, 693262, Note_on_c, 0, 73, 65
2, 693310, Control_c, 0, 64, 0
2, 693326, Note_on_c, 0, 57, 0
2, 693556, Control_c, 0, 64, 127
2, 693574, Note_on_c, 0, 73, 0
2, 693574, Note_on_c, 0, 71, 67
2, 693662, Control_c, 0, 64, 0
2, 693664, Note_on_c, 0, 73, 56
2, 693670, Note_on_c, 0, 71, 0
2, 693908, Control_c, 0, 64, 127
2, 693982, Note_on_c, 0, 74, 68
2, 694004, Note_on_c, 0, 73, 0
2, 694078, Note_on_c, 0, 74, 0
2, 694088, Note_on_c, 0, 62, 0
2, 694094, Note_on_c, 0, 65, 0
2, 694094, Control_c, 0, 64, 0
2, 694128, Note_on_c, 0, 64, 35
2, 694144, Note_on_c, 0, 57, 31
2, 694170, Note_on_c, 0, 76, 44
2, 694370, Note_on_c, 0, 77, 60
2, 694386, Note_on_c, 0, 76, 0
2, 694386, Control_c, 0, 64, 127
2, 694416, Control_c, 0, 64, 0
2, 694568, Note_on_c, 0, 76, 52
2, 694578, Note_on_c, 0, 77, 0
2, 694704, Note_on_c, 0, 76, 0
2, 694708, Note_on_c, 0, 74, 56
2, 694834, Note_on_c, 0, 74, 0
2, 694844, Note_on_c, 0, 73, 45
2, 694974, Note_on_c, 0, 71, 70
2, 694984, Note_on_c, 0, 73, 0
2, 695056, Note_on_c, 0, 71, 0
2, 695108, Note_on_c, 0, 65, 43
2, 695116, Note_on_c, 0, 64, 0
2, 695120, Note_on_c, 0, 73, 59
2, 695120, Note_on_c, 0, 62, 37
2, 695204, Note_on_c, 0, 57, 0
2, 695444, Control_c, 0, 64, 127
2, 695498, Note_on_c, 0, 73, 0
2, 695512, Note_on_c, 0, 74, 61
2, 695590, Note_on_c, 0, 74, 0
2, 695652, Note_on_c, 0, 71, 61
2, 695906, Control_c, 0, 64, 0
2, 696182, Control_c, 0, 64, 127
2, 696938, Note_on_c, 0, 66, 36
2, 696960, Note_on_c, 0, 65, 0
2, 697196, Control_c, 0, 64, 0
2, 697474, Control_c, 0, 64, 127
2, 697538, Note_on_c, 0, 62, 0
2, 697918, Note_on_c, 0, 66, 0
2, 697946, Note_on_c, 0, 61, 33
2, 697946, Note_on_c, 0, 64, 37
2, 697996, Control_c, 0, 64, 0
2, 698302, Control_c, 0, 64, 127
2, 698446, Note_on_c, 0, 69, 28
2, 698464, Note_on_c, 0, 71, 0
2, 698598, Note_on_c, 0, 64, 0
2, 698628, Note_on_c, 0, 61, 0
2, 698768, Note_on_c, 0, 69, 0
2, 698824, Note_on_c, 0, 68, 42
2, 698976, Note_on_c, 0, 68, 0
2, 699306, Note_on_c, 0, 66, 39
2, 699309, Note_on_c, 0, 57, 29
2, 699310, Note_on_c, 0, 47, 28
2, 699311, Note_on_c, 0, 62, 29
2, 699318, Control_c, 0, 64, 0
2, 699702, Control_c, 0, 64, 127
2, 699716, Note_on_c, 0, 57, 0
2, 700126, Note_on_c, 0, 68, 34
2, 700176, Note_on_c, 0, 66, 0
2, 700259, Note_on_c, 0, 47, 0
2, 700346, Note_on_c, 0, 68, 0
2, 700348, Note_on_c, 0, 64, 47
2, 700358, Note_on_c, 0, 52, 31
2, 700360, Note_on_c, 0, 56, 26
2, 700516, Control_c, 0, 64, 0
2, 701008, Control_c, 0, 64, 127
2, 701916, Note_on_c, 0, 52, 0
2, 702824, Note_on_c, 0, 52, 51
2, 703182, Note_on_c, 0, 56, 0
2, 703394, Note_on_c, 0, 62, 0
2, 703502, Note_on_c, 0, 64, 0
2, 704186, Note_on_c, 0, 52, 0
2, 704210, Note_on_c, 0, 50, 29
2, 704364, Note_on_c, 0, 49, 50
2, 704367, Note_on_c, 0, 50, 0
2, 704520, Note_on_c, 0, 49, 0
2, 704536, Note_on_c, 0, 47, 43
2, 704642, Note_on_c, 0, 47, 0
2, 704760, Note_on_c, 0, 64, 35
2, 704762, Note_on_c, 0, 61, 33
2, 704766, Note_on_c, 0, 45, 21
2, 704771, Note_on_c, 0, 52, 41
2, 704864, Control_c, 0, 64, 0
2, 705310, Control_c, 0, 64, 127
2, 705427, Note_on_c, 0, 52, 0
2, 705568, Note_on_c, 0, 45, 0
2, 706684, Note_on_c, 0, 33, 27
2, 706692, Note_on_c, 0, 40, 46
2, 707206, Note_on_c, 0, 64, 0
2, 707252, Note_on_c, 0, 61, 0
2, 708920, Note_on_c, 0, 88, 43
2, 708922, Note_on_c, 0, 85, 34
2, 713512, Note_on_c, 0, 40, 0
2, 713664, Note_on_c, 0, 85, 0
2, 713689, Note_on_c, 0, 88, 0
2, 713748, Note_on_c, 0, 33, 0
2, 714240, Control_c, 0, 64, 0
2, 718080, Note_on_c, 0, 70, 92
2, 718083, Note_on_c, 0, 82, 104
2, 718170, Control_c, 0, 64, 127
2, 718172, Note_on_c, 0, 68, 98
2, 718190, Note_on_c, 0, 80, 104
2, 718193, Note_on_c, 0, 70, 0
2, 718216, Note_on_c, 0, 68, 0
2, 718248, Note_on_c, 0, 82, 0
2, 718278, Control_c, 0, 64, 0
2, 718290, Note_on_c, 0, 80, 0
2, 718452, Note_on_c, 0, 82, 88
2, 718458, Note_on_c, 0, 70, 79
2, 718538, Note_on_c, 0, 70, 0
2, 718552, Note_on_c, 0, 77, 103
2, 718554, Note_on_c, 0, 82, 0
2, 718558, Note_on_c, 0, 65, 84
2, 718598, Note_on_c, 0, 65, 0
2, 718638, Note_on_c, 0, 77, 0
2, 718812, Note_on_c, 0, 82, 95
2, 718822, Note_on_c, 0, 70, 92
2, 718850, Note_on_c, 0, 82, 0
2, 718860, Note_on_c, 0, 70, 0
2, 719082, Note_on_c, 0, 68, 103
2, 719088, Note_on_c, 0, 80, 108
2, 719186, Note_on_c, 0, 68, 0
2, 719186, Note_on_c, 0, 65, 91
2, 719189, Note_on_c, 0, 77, 102
2, 719200, Control_c, 0, 64, 127
2, 719246, Note_on_c, 0, 80, 0
2, 719318, Note_on_c, 0, 65, 0
2, 719320, Note_on_c, 0, 77, 0
2, 719322, Control_c, 0, 64, 0
2, 719458, Note_on_c, 0, 75, 82
2, 719464, Note_on_c, 0, 63, 76
2, 719516, Note_on_c, 0, 63, 0
2, 719537, Note_on_c, 0, 59, 112
2, 719541, Note_on_c, 0, 71, 127
2, 719544, Note_on_c, 0, 75, 0
2, 719652, Note_on_c, 0, 59, 0
2, 719692, Control_c, 0, 64, 127
2, 719704, Note_on_c, 0, 71, 0
2, 719952, Control_c, 0, 64, 0
2, 720258, Note_on_c, 0, 56, 80
2, 720258, Note_on_c, 0, 68, 82
2, 720360, Note_on_c, 0, 56, 0
2, 720360, Note_on_c, 0, 65, 82
2, 720367, Note_on_c, 0, 53, 115
2, 720410, Note_on_c, 0, 68, 0
2, 720452, Note_on_c, 0, 63, 97
2, 720472, Note_on_c, 0, 65, 0
2, 720475, Note_on_c, 0, 51, 92
2, 720488, Note_on_c, 0, 53, 0
2, 720552, Note_on_c, 0, 51, 0
2, 720564, Note_on_c, 0, 59, 125
2, 720566, Note_on_c, 0, 47, 115
2, 720568, Note_on_c, 0, 63, 0
2, 720690, Control_c, 0, 64, 127
2, 720722, Note_on_c, 0, 47, 0
2, 720740, Note_on_c, 0, 59, 0
2, 720936, Control_c, 0, 64, 0
2, 721304, Note_on_c, 0, 56, 74
2, 721306, Note_on_c, 0, 44, 81
2, 721406, Note_on_c, 0, 53, 113
2, 721426, Note_on_c, 0, 41, 90
2, 721429, Note_on_c, 0, 44, 0
2, 721429, Note_on_c, 0, 56, 0
2, 721500, Note_on_c, 0, 51, 95
2, 721502, Note_on_c, 0, 39, 92
2, 721518, Note_on_c, 0, 53, 0
2, 721540, Note_on_c, 0, 41, 0
2, 721596, Control_c, 0, 64, 127
2, 721601, Note_on_c, 0, 35, 127
2, 721601, Note_on_c, 0, 47, 122
2, 721626, Note_on_c, 0, 39, 0
2, 721642, Control_c, 0, 64, 0
2, 721660, Note_on_c, 0, 51, 0
2, 721670, Note_on_c, 0, 35, 0
2, 721722, Note_on_c, 0, 47, 0
2, 721866, Note_on_c, 0, 50, 127
2, 721868, Note_on_c, 0, 34, 127
2, 721870, Note_on_c, 0, 55, 125
2, 721876, Note_on_c, 0, 46, 123
2, 721946, Note_on_c, 0, 34, 0
2, 721962, Note_on_c, 0, 46, 0
2, 721978, Note_on_c, 0, 50, 0
2, 722020, Note_on_c, 0, 55, 0
2, 723324, Note_on_c, 0, 39, 80
2, 723330, Note_on_c, 0, 46, 58
2, 723368, Note_on_c, 0, 39, 0
2, 723388, Note_on_c, 0, 46, 0
2, 723574, Note_on_c, 0, 58, 72
2, 723577, Note_on_c, 0, 51, 87
2, 723582, Note_on_c, 0, 55, 87
2, 723586, Note_on_c, 0, 53, 107
2, 723624, Note_on_c, 0, 53, 0
2, 723627, Note_on_c, 0, 55, 0
2, 723676, Note_on_c, 0, 51, 0
2, 723708, Note_on_c, 0, 58, 0
2, 723824, Note_on_c, 0, 46, 80
2, 723836, Note_on_c, 0, 39, 80
2, 723880, Note_on_c, 0, 39, 0
2, 723883, Note_on_c, 0, 46, 0
2, 724086, Note_on_c, 0, 51, 107
2, 724088, Note_on_c, 0, 58, 91
2, 724090, Note_on_c, 0, 55, 103
2, 724092, Note_on_c, 0, 53, 127
2, 724122, Note_on_c, 0, 53, 0
2, 724124, Note_on_c, 0, 51, 0
2, 724130, Note_on_c, 0, 58, 0
2, 724132, Note_on_c, 0, 55, 0
2, 724182, Note_on_c, 0, 58, 87
2, 724185, Note_on_c, 0, 51, 93
2, 724256, Note_on_c, 0, 51, 0
2, 724288, Note_on_c, 0, 58, 0
2, 724320, Note_on_c, 0, 46, 105
2, 724330, Note_on_c, 0, 39, 90
2, 724360, Note_on_c, 0, 46, 0
2, 724368, Note_on_c, 0, 39, 0
2, 724584, Note_on_c, 0, 58, 79
2, 724584, Note_on_c, 0, 51, 85
2, 724586, Note_on_c, 0, 53, 121
2, 724586, Note_on_c, 0, 55, 97
2, 724620, Note_on_c, 0, 53, 0
2, 724628, Note_on_c, 0, 55, 0
2, 724638, Note_on_c, 0, 51, 0
2, 724646, Note_on_c, 0, 58, 0
2, 724836, Note_on_c, 0, 46, 83
2, 724846, Note_on_c, 0, 39, 88
2, 724890, Note_on_c, 0, 46, 0
2, 724896, Note_on_c, 0, 39, 0
2, 725090, Note_on_c, 0, 58, 76
2, 725096, Note_on_c, 0, 51, 76
2, 725098, Note_on_c, 0, 53, 112
2, 725102, Note_on_c, 0, 55, 84
2, 725134, Note_on_c, 0, 53, 0
2, 725144, Note_on_c, 0, 55, 0
2, 725154, Note_on_c, 0, 51, 0
2, 725182, Note_on_c, 0, 58, 0
2, 725362, Note_on_c, 0, 46, 81
2, 725364, Note_on_c, 0, 39, 91
2, 725410, Note_on_c, 0, 39, 0
2, 725410, Note_on_c, 0, 46, 0
2, 725606, Note_on_c, 0, 53, 127
2, 725609, Note_on_c, 0, 55, 110
2, 725610, Note_on_c, 0, 51, 100
2, 725610, Note_on_c, 0, 58, 84
2, 725648, Note_on_c, 0, 51, 0
2, 725653, Note_on_c, 0, 55, 0
2, 725654, Note_on_c, 0, 58, 0
2, 725680, Note_on_c, 0, 53, 0
2, 725704, Note_on_c, 0, 51, 103
2, 725706, Note_on_c, 0, 58, 85
2, 725788, Note_on_c, 0, 51, 0
2, 725812, Note_on_c, 0, 58, 0
2, 725850, Note_on_c, 0, 46, 100
2, 725850, Note_on_c, 0, 39, 96
2, 725883, Note_on_c, 0, 39, 0
2, 725890, Note_on_c, 0, 46, 0
2, 726122, Note_on_c, 0, 55, 88
2, 726122, Note_on_c, 0, 58, 67
2, 726122, Note_on_c, 0, 53, 88
2, 726124, Note_on_c, 0, 51, 59
2, 726166, Note_on_c, 0, 53, 0
2, 726166, Note_on_c, 0, 55, 0
2, 726178, Note_on_c, 0, 58, 0
2, 726178, Note_on_c, 0, 51, 0
2, 726374, Note_on_c, 0, 46, 79
2, 726380, Note_on_c, 0, 39, 75
2, 726426, Note_on_c, 0, 39, 0
2, 726428, Note_on_c, 0, 46, 0
2, 726632, Note_on_c, 0, 51, 49
2, 726634, Note_on_c, 0, 55, 68
2, 726636, Note_on_c, 0, 58, 59
2, 726636, Note_on_c, 0, 53, 100
2, 726678, Note_on_c, 0, 53, 0
2, 726684, Note_on_c, 0, 55, 0
2, 726696, Note_on_c, 0, 51, 0
2, 726710, Note_on_c, 0, 58, 0
2, 726892, Note_on_c, 0, 46, 69
2, 726900, Note_on_c, 0, 39, 60
2, 726944, Note_on_c, 0, 46, 0
2, 726948, Note_on_c, 0, 39, 0
2, 727132, Note_on_c, 0, 58, 69
2, 727132, Note_on_c, 0, 53, 98
2, 727132, Note_on_c, 0, 55, 58
2, 727136, Note_on_c, 0, 51, 73
2, 727172, Note_on_c, 0, 53, 0
2, 727182, Note_on_c, 0, 58, 0
2, 727186, Note_on_c, 0, 51, 0
2, 727194, Note_on_c, 0, 55, 0
2, 727428, Note_on_c, 0, 70, 111
2, 727436, Note_on_c, 0, 46, 90
2, 727441, Note_on_c, 0, 39, 83
2, 727480, Note_on_c, 0, 46, 0
2, 727480, Control_c, 0, 64, 127
2, 727483, Note_on_c, 0, 39, 0
2, 727536, Note_on_c, 0, 68, 100
2, 727598, Note_on_c, 0, 70, 0
2, 727620, Control_c, 0, 64, 0
2, 727674, Note_on_c, 0, 63, 100
2, 727675, Note_on_c, 0, 53, 105
2, 727676, Note_on_c, 0, 56, 77
2, 727678, Note_on_c, 0, 59, 83
2, 727688, Note_on_c, 0, 68, 0
2, 727717, Note_on_c, 0, 53, 0
2, 727730, Note_on_c, 0, 56, 0
2, 727734, Note_on_c, 0, 59, 0
2, 727796, Note_on_c, 0, 70, 83
2, 727818, Note_on_c, 0, 63, 0
2, 727900, Note_on_c, 0, 70, 0
2, 727910, Note_on_c, 0, 46, 87
2, 727913, Note_on_c, 0, 65, 112
2, 727920, Note_on_c, 0, 39, 76
2, 727954, Note_on_c, 0, 46, 0
2, 727960, Note_on_c, 0, 65, 0
2, 727962, Note_on_c, 0, 39, 0
2, 728180, Note_on_c, 0, 70, 107
2, 728190, Note_on_c, 0, 59, 96
2, 728190, Note_on_c, 0, 63, 93
2, 728190, Note_on_c, 0, 53, 91
2, 728192, Note_on_c, 0, 56, 79
2, 728226, Note_on_c, 0, 63, 0
2, 728228, Note_on_c, 0, 59, 0
2, 728236, Note_on_c, 0, 53, 0
2, 728246, Note_on_c, 0, 56, 0
2, 728252, Note_on_c, 0, 70, 0
2, 728450, Note_on_c, 0, 68, 103
2, 728458, Note_on_c, 0, 46, 57
2, 728462, Note_on_c, 0, 39, 67
2, 728508, Note_on_c, 0, 39, 0
2, 728526, Note_on_c, 0, 46, 0
2, 728558, Control_c, 0, 64, 127
2, 728561, Note_on_c, 0, 65, 88
2, 728594, Note_on_c, 0, 68, 0
2, 728634, Control_c, 0, 64, 0
2, 728674, Note_on_c, 0, 59, 82
2, 728676, Note_on_c, 0, 56, 81
2, 728678, Note_on_c, 0, 53, 81
2, 728704, Note_on_c, 0, 65, 0
2, 728723, Note_on_c, 0, 56, 0
2, 728726, Note_on_c, 0, 59, 0
2, 728730, Note_on_c, 0, 53, 0
2, 728810, Note_on_c, 0, 63, 87
2, 728868, Note_on_c, 0, 63, 0
2, 728898, Note_on_c, 0, 46, 80
2, 728899, Note_on_c, 0, 59, 88
2, 728900, Note_on_c, 0, 39, 72
2, 728943, Note_on_c, 0, 59, 0
2, 728944, Note_on_c, 0, 39, 0
2, 728946, Note_on_c, 0, 46, 0
2, 729149, Note_on_c, 0, 63, 102
2, 729150, Note_on_c, 0, 56, 77
2, 729153, Note_on_c, 0, 59, 91
2, 729155, Note_on_c, 0, 53, 93
2, 729185, Note_on_c, 0, 63, 0
2, 729191, Note_on_c, 0, 59, 0
2, 729202, Note_on_c, 0, 56, 0
2, 729203, Note_on_c, 0, 53, 0
2, 729412, Note_on_c, 0, 46, 81
2, 729414, Note_on_c, 0, 39, 92
2, 729416, Note_on_c, 0, 58, 90
2, 729450, Note_on_c, 0, 39, 0
2, 729460, Note_on_c, 0, 46, 0
2, 729470, Note_on_c, 0, 58, 0
2, 729524, Note_on_c, 0, 58, 83
2, 729646, Note_on_c, 0, 55, 91
2, 729662, Note_on_c, 0, 53, 107
2, 729690, Note_on_c, 0, 55, 0
2, 729700, Note_on_c, 0, 53, 0
2, 729752, Note_on_c, 0, 58, 0
2, 729800, Note_on_c, 0, 60, 72
2, 729862, Note_on_c, 0, 60, 0
2, 729890, Note_on_c, 0, 58, 84
2, 729893, Note_on_c, 0, 46, 80
2, 729900, Note_on_c, 0, 39, 70
2, 729940, Note_on_c, 0, 46, 0
2, 729944, Note_on_c, 0, 39, 0
2, 730016, Control_c, 0, 64, 127
2, 730102, Note_on_c, 0, 58, 0
2, 730136, Note_on_c, 0, 70, 110
2, 730140, Note_on_c, 0, 63, 110
2, 730142, Note_on_c, 0, 55, 88
2, 730148, Note_on_c, 0, 53, 112
2, 730170, Control_c, 0, 64, 0
2, 730186, Note_on_c, 0, 53, 0
2, 730188, Note_on_c, 0, 55, 0
2, 730196, Note_on_c, 0, 63, 0
2, 730218, Note_on_c, 0, 70, 0
2, 730394, Note_on_c, 0, 58, 108
2, 730399, Note_on_c, 0, 46, 80
2, 730406, Note_on_c, 0, 39, 84
2, 730448, Note_on_c, 0, 39, 0
2, 730458, Note_on_c, 0, 46, 0
2, 730652, Note_on_c, 0, 55, 82
2, 730663, Note_on_c, 0, 53, 97
2, 730698, Note_on_c, 0, 55, 0
2, 730705, Note_on_c, 0, 53, 0
2, 730902, Note_on_c, 0, 46, 62
2, 730914, Note_on_c, 0, 39, 52
2, 730956, Note_on_c, 0, 46, 0
2, 730968, Note_on_c, 0, 39, 0
2, 731164, Note_on_c, 0, 55, 68
2, 731172, Note_on_c, 0, 53, 97
2, 731214, Note_on_c, 0, 53, 0
2, 731216, Note_on_c, 0, 55, 0
2, 731230, Note_on_c, 0, 58, 0
2, 731416, Note_on_c, 0, 46, 80
2, 731416, Note_on_c, 0, 58, 80
2, 731426, Note_on_c, 0, 39, 53
2, 731464, Note_on_c, 0, 46, 0
2, 731480, Note_on_c, 0, 39, 0
2, 731528, Note_on_c, 0, 56, 77
2, 731542, Note_on_c, 0, 58, 0
2, 731646, Note_on_c, 0, 53, 87
2, 731650, Note_on_c, 0, 51, 56
2, 731690, Note_on_c, 0, 53, 0
2, 731712, Note_on_c, 0, 51, 0
2, 731752, Note_on_c, 0, 56, 0
2, 731792, Note_on_c, 0, 58, 57
2, 731868, Note_on_c, 0, 58, 0
2, 731888, Note_on_c, 0, 46, 80
2, 731900, Note_on_c, 0, 39, 47
2, 731908, Note_on_c, 0, 60, 87
2, 731940, Note_on_c, 0, 46, 0
2, 731958, Note_on_c, 0, 60, 0
2, 731958, Note_on_c, 0, 39, 0
2, 732154, Note_on_c, 0, 51, 77
2, 732154, Note_on_c, 0, 56, 95
2, 732157, Note_on_c, 0, 53, 95
2, 732199, Note_on_c, 0, 53, 0
2, 732200, Note_on_c, 0, 51, 0
2, 732210, Note_on_c, 0, 56, 0
2, 732406, Note_on_c, 0, 39, 76
2, 732408, Note_on_c, 0, 46, 88
2, 732418, Note_on_c, 0, 58, 106
2, 732454, Note_on_c, 0, 39, 0
2, 732460, Note_on_c, 0, 46, 0
2, 732530, Note_on_c, 0, 56, 107
2, 732584, Note_on_c, 0, 58, 0
2, 732647, Note_on_c, 0, 53, 105
2, 732648, Note_on_c, 0, 51, 85
2, 732654, Note_on_c, 0, 56, 0
2, 732689, Note_on_c, 0, 53, 0
2, 732697, Note_on_c, 0, 51, 0
2, 732776, Note_on_c, 0, 58, 96
2, 732882, Note_on_c, 0, 59, 114
2, 732888, Note_on_c, 0, 46, 93
2, 732898, Note_on_c, 0, 39, 49
2, 732932, Note_on_c, 0, 46, 0
2, 732932, Note_on_c, 0, 58, 0
2, 732960, Note_on_c, 0, 39, 0
2, 732966, Note_on_c, 0, 59, 0
2, 733128, Note_on_c, 0, 56, 111
2, 733140, Note_on_c, 0, 51, 61
2, 733140, Note_on_c, 0, 53, 34
2, 733188, Note_on_c, 0, 53, 0
2, 733198, Note_on_c, 0, 51, 0
2, 733210, Note_on_c, 0, 56, 0
2, 733412, Note_on_c, 0, 58, 127
2, 733416, Note_on_c, 0, 46, 127
2, 733500, Note_on_c, 0, 43, 123
2, 733510, Note_on_c, 0, 46, 0
2, 733510, Note_on_c, 0, 55, 127
2, 733520, Control_c, 0, 64, 127
2, 733572, Note_on_c, 0, 58, 0
2, 733574, Note_on_c, 0, 43, 0
2, 733598, Note_on_c, 0, 55, 0
2, 733688, Control_c, 0, 64, 0
2, 733784, Note_on_c, 0, 53, 127
2, 733792, Note_on_c, 0, 41, 127
2, 733878, Note_on_c, 0, 51, 127
2, 733884, Note_on_c, 0, 39, 127
2, 733922, Note_on_c, 0, 41, 0
2, 733925, Note_on_c, 0, 53, 0
2, 733950, Note_on_c, 0, 39, 0
2, 733976, Note_on_c, 0, 51, 0
2, 734150, Note_on_c, 0, 50, 127
2, 734158, Note_on_c, 0, 38, 127
2, 734226, Note_on_c, 0, 50, 0
2, 734256, Note_on_c, 0, 38, 0
2, 734416, Note_on_c, 0, 48, 127
2, 734424, Note_on_c, 0, 36, 127
2, 734518, Note_on_c, 0, 36, 0
2, 734520, Note_on_c, 0, 48, 0
2, 734690, Note_on_c, 0, 43, 125
2, 734692, Note_on_c, 0, 31, 127
2, 734794, Note_on_c, 0, 31, 0
2, 734824, Note_on_c, 0, 43, 0
2, 734954, Note_on_c, 0, 48, 122
2, 734954, Note_on_c, 0, 36, 127
2, 735048, Note_on_c, 0, 36, 0
2, 735060, Note_on_c, 0, 48, 0
2, 735208, Note_on_c, 0, 38, 127
2, 735208, Note_on_c, 0, 50, 127
2, 735282, Note_on_c, 0, 50, 0
2, 735300, Note_on_c, 0, 38, 0
2, 735548, Note_on_c, 0, 70, 123
2, 735548, Note_on_c, 0, 39, 127
2, 735548, Note_on_c, 0, 46, 121
2, 735586, Note_on_c, 0, 46, 0
2, 735596, Note_on_c, 0, 39, 0
2, 735624, Control_c, 0, 64, 127
2, 735682, Note_on_c, 0, 68, 105
2, 735754, Note_on_c, 0, 70, 0
2, 735810, Control_c, 0, 64, 0
2, 735814, Note_on_c, 0, 63, 111
2, 735815, Note_on_c, 0, 53, 127
2, 735816, Note_on_c, 0, 59, 110
2, 735816, Note_on_c, 0, 56, 103
2, 735836, Note_on_c, 0, 68, 0
2, 735855, Note_on_c, 0, 53, 0
2, 735892, Note_on_c, 0, 59, 0
2, 735926, Note_on_c, 0, 56, 0
2, 735928, Note_on_c, 0, 70, 97
2, 735970, Note_on_c, 0, 63, 0
2, 736052, Note_on_c, 0, 46, 126
2, 736060, Note_on_c, 0, 39, 121
2, 736060, Note_on_c, 0, 65, 119
2, 736074, Note_on_c, 0, 70, 0
2, 736098, Note_on_c, 0, 39, 0
2, 736134, Note_on_c, 0, 46, 0
2, 736146, Note_on_c, 0, 65, 0
2, 736146, Control_c, 0, 64, 127
2, 736178, Control_c, 0, 64, 0
2, 736320, Note_on_c, 0, 70, 119
2, 736326, Note_on_c, 0, 59, 118
2, 736326, Note_on_c, 0, 53, 127
2, 736327, Note_on_c, 0, 56, 116
2, 736328, Note_on_c, 0, 63, 110
2, 736357, Note_on_c, 0, 53, 0
2, 736368, Note_on_c, 0, 63, 0
2, 736368, Note_on_c, 0, 59, 0
2, 736417, Note_on_c, 0, 56, 0
2, 736428, Note_on_c, 0, 70, 0
2, 736590, Note_on_c, 0, 68, 119
2, 736590, Note_on_c, 0, 46, 113
2, 736598, Note_on_c, 0, 39, 110
2, 736634, Note_on_c, 0, 39, 0
2, 736637, Note_on_c, 0, 46, 0
2, 736700, Control_c, 0, 64, 127
2, 736714, Note_on_c, 0, 65, 110
2, 736746, Control_c, 0, 64, 0
2, 736762, Note_on_c, 0, 68, 0
2, 736836, Note_on_c, 0, 59, 103
2, 736842, Note_on_c, 0, 56, 102
2, 736845, Note_on_c, 0, 53, 122
2, 736883, Note_on_c, 0, 53, 0
2, 736896, Note_on_c, 0, 59, 0
2, 736902, Note_on_c, 0, 65, 0
2, 736946, Note_on_c, 0, 56, 0
2, 736954, Note_on_c, 0, 63, 115
2, 737064, Note_on_c, 0, 59, 118
2, 737066, Note_on_c, 0, 46, 113
2, 737072, Note_on_c, 0, 39, 108
2, 737108, Note_on_c, 0, 63, 0
2, 737111, Note_on_c, 0, 39, 0
2, 737118, Note_on_c, 0, 46, 0
2, 737150, Note_on_c, 0, 59, 0
2, 737324, Note_on_c, 0, 63, 122
2, 737327, Note_on_c, 0, 59, 115
2, 737330, Note_on_c, 0, 56, 112
2, 737333, Note_on_c, 0, 53, 127
2, 737385, Note_on_c, 0, 53, 0
2, 737416, Note_on_c, 0, 56, 0
2, 737424, Note_on_c, 0, 59, 0
2, 737438, Note_on_c, 0, 63, 0
2, 737594, Note_on_c, 0, 58, 100
2, 737596, Note_on_c, 0, 46, 113
2, 737596, Note_on_c, 0, 39, 119
2, 737640, Note_on_c, 0, 39, 0
2, 737642, Note_on_c, 0, 46, 0
2, 737644, Note_on_c, 0, 58, 0
2, 737652, Control_c, 0, 64, 127
2, 737704, Note_on_c, 0, 58, 97
2, 737760, Control_c, 0, 64, 0
2, 737850, Note_on_c, 0, 55, 119
2, 737850, Note_on_c, 0, 53, 127
2, 737894, Note_on_c, 0, 55, 0
2, 737908, Note_on_c, 0, 53, 0
2, 737946, Note_on_c, 0, 58, 0
2, 737982, Note_on_c, 0, 60, 105
2, 738098, Note_on_c, 0, 58, 107
2, 738101, Note_on_c, 0, 60, 0
2, 738104, Note_on_c, 0, 46, 118
2, 738112, Note_on_c, 0, 39, 108
2, 738148, Note_on_c, 0, 39, 0
2, 738154, Note_on_c, 0, 46, 0
2, 738252, Control_c, 0, 64, 127
2, 738348, Note_on_c, 0, 55, 114
2, 738348, Note_on_c, 0, 70, 121
2, 738348, Note_on_c, 0, 53, 127
2, 738351, Note_on_c, 0, 63, 123
2, 738362, Note_on_c, 0, 58, 0
2, 738398, Note_on_c, 0, 53, 0
2, 738404, Note_on_c, 0, 63, 0
2, 738422, Control_c, 0, 64, 0
2, 738425, Note_on_c, 0, 55, 0
2, 738460, Note_on_c, 0, 70, 0
2, 738612, Note_on_c, 0, 58, 118
2, 738615, Note_on_c, 0, 46, 106
2, 738622, Note_on_c, 0, 39, 108
2, 738664, Note_on_c, 0, 39, 0
2, 738680, Note_on_c, 0, 46, 0
2, 738872, Note_on_c, 0, 55, 110
2, 738886, Note_on_c, 0, 53, 127
2, 738922, Note_on_c, 0, 53, 0
2, 738944, Note_on_c, 0, 55, 0
2, 739132, Note_on_c, 0, 46, 103
2, 739137, Note_on_c, 0, 39, 106
2, 739182, Note_on_c, 0, 39, 0
2, 739194, Note_on_c, 0, 46, 0
2, 739370, Note_on_c, 0, 55, 97
2, 739402, Note_on_c, 0, 53, 92
2, 739416, Note_on_c, 0, 55, 0
2, 739419, Note_on_c, 0, 58, 0
2, 739448, Note_on_c, 0, 53, 0
2, 739646, Note_on_c, 0, 42, 80
2, 739646, Note_on_c, 0, 49, 77
2, 739656, Note_on_c, 0, 58, 84
2, 739690, Note_on_c, 0, 42, 0
2, 739694, Note_on_c, 0, 49, 0
2, 739704, Note_on_c, 0, 58, 0
2, 739758, Note_on_c, 0, 58, 75
2, 739882, Note_on_c, 0, 56, 75
2, 739886, Note_on_c, 0, 54, 84
2, 739891, Note_on_c, 0, 49, 56
2, 739931, Note_on_c, 0, 54, 0
2, 739938, Note_on_c, 0, 56, 0
2, 739963, Note_on_c, 0, 49, 0
2, 739970, Note_on_c, 0, 58, 0
2, 740044, Note_on_c, 0, 60, 75
2, 740098, Note_on_c, 0, 60, 0
2, 740128, Note_on_c, 0, 58, 85
2, 740136, Note_on_c, 0, 42, 75
2, 740136, Note_on_c, 0, 49, 74
2, 740178, Note_on_c, 0, 42, 0
2, 740186, Note_on_c, 0, 49, 0
2, 740202, Note_on_c, 0, 58, 0
2, 740390, Note_on_c, 0, 61, 100
2, 740396, Note_on_c, 0, 56, 77
2, 740400, Note_on_c, 0, 54, 91
2, 740400, Note_on_c, 0, 49, 57
2, 740452, Note_on_c, 0, 54, 0
2, 740460, Note_on_c, 0, 56, 0
2, 740462, Note_on_c, 0, 49, 0
2, 740482, Note_on_c, 0, 61, 0
2, 740648, Note_on_c, 0, 49, 91
2, 740648, Note_on_c, 0, 63, 97
2, 740666, Note_on_c, 0, 42, 51
2, 740688, Note_on_c, 0, 49, 0
2, 740724, Note_on_c, 0, 42, 0
2, 740754, Note_on_c, 0, 63, 0
2, 740902, Note_on_c, 0, 58, 84
2, 740906, Note_on_c, 0, 65, 104
2, 740908, Note_on_c, 0, 54, 92
2, 740910, Note_on_c, 0, 49, 66
2, 740976, Note_on_c, 0, 49, 0
2, 740996, Note_on_c, 0, 54, 0
2, 741004, Note_on_c, 0, 58, 0
2, 741006, Note_on_c, 0, 65, 0
2, 741158, Note_on_c, 0, 63, 106
2, 741158, Note_on_c, 0, 49, 103
2, 741172, Note_on_c, 0, 42, 74
2, 741206, Note_on_c, 0, 49, 0
2, 741216, Note_on_c, 0, 42, 0
2, 741268, Note_on_c, 0, 63, 0
2, 741392, Note_on_c, 0, 66, 114
2, 741404, Note_on_c, 0, 59, 116
2, 741406, Note_on_c, 0, 49, 97
2, 741408, Note_on_c, 0, 54, 105
2, 741498, Note_on_c, 0, 49, 0
2, 741516, Note_on_c, 0, 66, 0
2, 741526, Note_on_c, 0, 54, 0
2, 741528, Note_on_c, 0, 59, 0
2, 741698, Note_on_c, 0, 65, 127
2, 741806, Note_on_c, 0, 65, 0
2, 741844, Note_on_c, 0, 65, 127
2, 741894, Control_c, 0, 64, 127
2, 741972, Note_on_c, 0, 64, 110
2, 741975, Note_on_c, 0, 61, 106
2, 742024, Note_on_c, 0, 65, 0
2, 742046, Note_on_c, 0, 64, 0
2, 742062, Control_c, 0, 64, 0
2, 742088, Note_on_c, 0, 67, 114
2, 742098, Note_on_c, 0, 61, 0
2, 742188, Note_on_c, 0, 63, 114
2, 742190, Note_on_c, 0, 65, 127
2, 742192, Note_on_c, 0, 60, 105
2, 742242, Note_on_c, 0, 67, 0
2, 742290, Note_on_c, 0, 60, 0
2, 742292, Note_on_c, 0, 63, 0
2, 742318, Note_on_c, 0, 65, 0
2, 742452, Note_on_c, 0, 67, 125
2, 742452, Note_on_c, 0, 63, 116
2, 742462, Note_on_c, 0, 74, 127
2, 742470, Note_on_c, 0, 57, 91
2, 742476, Note_on_c, 0, 53, 107
2, 742528, Note_on_c, 0, 53, 0
2, 742532, Note_on_c, 0, 67, 0
2, 742540, Note_on_c, 0, 57, 0
2, 742558, Note_on_c, 0, 63, 0
2, 742568, Note_on_c, 0, 74, 0
2, 742754, Note_on_c, 0, 58, 106
2, 742756, Note_on_c, 0, 70, 121
2, 742758, Note_on_c, 0, 62, 127
2, 742766, Note_on_c, 0, 53, 127
2, 742768, Note_on_c, 0, 46, 93
2, 742816, Control_c, 0, 64, 127
2, 742822, Note_on_c, 0, 53, 0
2, 742824, Note_on_c, 0, 46, 0
2, 742838, Note_on_c, 0, 62, 0
2, 742840, Note_on_c, 0, 58, 0
2, 742882, Note_on_c, 0, 70, 0
2, 743296, Note_on_c, 0, 82, 112
2, 743296, Note_on_c, 0, 94, 119
2, 743299, Note_on_c, 0, 46, 111
2, 743300, Note_on_c, 0, 34, 106
2, 743334, Note_on_c, 0, 82, 0
2, 743336, Note_on_c, 0, 34, 0
2, 743353, Note_on_c, 0, 46, 0
2, 743362, Note_on_c, 0, 94, 0
2, 743506, Control_c, 0, 64, 0
2, 743884, Note_on_c, 0, 63, 92
2, 743888, Note_on_c, 0, 56, 89
2, 743892, Note_on_c, 0, 60, 69
2, 743904, Note_on_c, 0, 58, 60
2, 743940, Note_on_c, 0, 56, 0
2, 743956, Note_on_c, 0, 58, 0
2, 743986, Note_on_c, 0, 60, 0
2, 744021, Note_on_c, 0, 62, 75
2, 744026, Note_on_c, 0, 63, 0
2, 744032, Note_on_c, 0, 65, 59
2, 744080, Note_on_c, 0, 62, 0
2, 744130, Note_on_c, 0, 65, 0
2, 744138, Note_on_c, 0, 68, 59
2, 744140, Note_on_c, 0, 70, 68
2, 744198, Note_on_c, 0, 70, 0
2, 744202, Note_on_c, 0, 68, 0
2, 744262, Note_on_c, 0, 63, 64
2, 744268, Note_on_c, 0, 67, 66
2, 744338, Note_on_c, 0, 63, 0
2, 744342, Note_on_c, 0, 67, 0
2, 744368, Note_on_c, 0, 65, 69
2, 744370, Note_on_c, 0, 56, 68
2, 744376, Note_on_c, 0, 62, 81
2, 744380, Note_on_c, 0, 58, 54
2, 744422, Note_on_c, 0, 56, 0
2, 744425, Note_on_c, 0, 65, 0
2, 744430, Note_on_c, 0, 62, 0
2, 744438, Note_on_c, 0, 58, 0
2, 744628, Note_on_c, 0, 68, 59
2, 744628, Note_on_c, 0, 60, 69
2, 744631, Note_on_c, 0, 63, 66
2, 744636, Note_on_c, 0, 70, 53
2, 744686, Note_on_c, 0, 68, 0
2, 744691, Note_on_c, 0, 60, 0
2, 744691, Note_on_c, 0, 63, 0
2, 744694, Note_on_c, 0, 70, 0
2, 744736, Control_c, 0, 64, 127
2, 744766, Control_c, 0, 64, 0
2, 744900, Note_on_c, 0, 56, 56
2, 744908, Note_on_c, 0, 65, 73
2, 744916, Note_on_c, 0, 62, 69
2, 744916, Note_on_c, 0, 58, 42
2, 744970, Note_on_c, 0, 56, 0
2, 744973, Note_on_c, 0, 62, 0
2, 744982, Note_on_c, 0, 58, 0
2, 745012, Control_c, 0, 64, 127
2, 745044, Note_on_c, 0, 65, 0
2, 745166, Note_on_c, 0, 68, 38
2, 745168, Note_on_c, 0, 70, 42
2, 745230, Note_on_c, 0, 70, 0
2, 745230, Note_on_c, 0, 68, 0
2, 745436, Note_on_c, 0, 56, 46
2, 745439, Note_on_c, 0, 58, 41
2, 745448, Note_on_c, 0, 94, 79
2, 745454, Note_on_c, 0, 82, 46
2, 745488, Note_on_c, 0, 94, 0
2, 745498, Note_on_c, 0, 56, 0
2, 745505, Note_on_c, 0, 58, 0
2, 745524, Note_on_c, 0, 82, 0
2, 745704, Note_on_c, 0, 70, 53
2, 745712, Note_on_c, 0, 68, 46
2, 745764, Note_on_c, 0, 70, 0
2, 745778, Note_on_c, 0, 68, 0
2, 745842, Control_c, 0, 64, 0
2, 745942, Note_on_c, 0, 63, 108
2, 745944, Note_on_c, 0, 60, 91
2, 745946, Note_on_c, 0, 58, 76
2, 745949, Note_on_c, 0, 55, 87
2, 745992, Note_on_c, 0, 55, 0
2, 746010, Note_on_c, 0, 58, 0
2, 746060, Note_on_c, 0, 60, 0
2, 746060, Note_on_c, 0, 62, 95
2, 746063, Note_on_c, 0, 65, 90
2, 746106, Note_on_c, 0, 63, 0
2, 746120, Control_c, 0, 64, 127
2, 746186, Note_on_c, 0, 70, 75
2, 746188, Note_on_c, 0, 62, 0
2, 746196, Control_c, 0, 64, 0
2, 746206, Note_on_c, 0, 67, 72
2, 746232, Note_on_c, 0, 65, 0
2, 746238, Note_on_c, 0, 70, 0
2, 746256, Note_on_c, 0, 67, 0
2, 746332, Note_on_c, 0, 67, 53
2, 746334, Note_on_c, 0, 63, 70
2, 746420, Note_on_c, 0, 65, 89
2, 746422, Note_on_c, 0, 63, 0
2, 746422, Note_on_c, 0, 62, 91
2, 746424, Note_on_c, 0, 55, 92
2, 746426, Note_on_c, 0, 58, 76
2, 746460, Note_on_c, 0, 67, 0
2, 746469, Note_on_c, 0, 55, 0
2, 746486, Note_on_c, 0, 62, 0
2, 746490, Note_on_c, 0, 58, 0
2, 746516, Note_on_c, 0, 65, 0
2, 746670, Note_on_c, 0, 70, 74
2, 746676, Note_on_c, 0, 63, 92
2, 746688, Note_on_c, 0, 67, 76
2, 746688, Note_on_c, 0, 60, 72
2, 746724, Note_on_c, 0, 70, 0
2, 746734, Note_on_c, 0, 67, 0
2, 746748, Note_on_c, 0, 60, 0
2, 746770, Note_on_c, 0, 63, 0
2, 746918, Note_on_c, 0, 65, 77
2, 746922, Note_on_c, 0, 62, 80
2, 746922, Note_on_c, 0, 58, 66
2, 746924, Note_on_c, 0, 55, 67
2, 746980, Note_on_c, 0, 55, 0
2, 746986, Note_on_c, 0, 58, 0
2, 746988, Note_on_c, 0, 62, 0
2, 747014, Note_on_c, 0, 65, 0
2, 747160, Note_on_c, 0, 70, 72
2, 747168, Note_on_c, 0, 63, 87
2, 747188, Note_on_c, 0, 60, 73
2, 747212, Note_on_c, 0, 67, 29
2, 747215, Note_on_c, 0, 70, 0
2, 747272, Note_on_c, 0, 67, 0
2, 747382, Note_on_c, 0, 60, 0
2, 747420, Note_on_c, 0, 58, 64
2, 747420, Note_on_c, 0, 62, 89
2, 747420, Note_on_c, 0, 65, 89
2, 747438, Note_on_c, 0, 63, 0
2, 747466, Note_on_c, 0, 62, 0
2, 747488, Note_on_c, 0, 55, 19
2, 747496, Note_on_c, 0, 65, 0
2, 747546, Note_on_c, 0, 55, 0
2, 747580, Note_on_c, 0, 58, 0
2, 747610, Control_c, 0, 64, 127
2, 747669, Note_on_c, 0, 72, 88
2, 747669, Note_on_c, 0, 70, 67
2, 747672, Note_on_c, 0, 67, 66
2, 747672, Note_on_c, 0, 63, 85
2, 747710, Note_on_c, 0, 72, 0
2, 747718, Note_on_c, 0, 63, 0
2, 747720, Note_on_c, 0, 70, 0
2, 747732, Note_on_c, 0, 67, 0
2, 747978, Control_c, 0, 64, 0
2, 747984, Note_on_c, 0, 46, 87
2, 747985, Note_on_c, 0, 63, 96
2, 747990, Note_on_c, 0, 56, 87
2, 747990, Note_on_c, 0, 60, 85
2, 748082, Note_on_c, 0, 48, 97
2, 748124, Note_on_c, 0, 46, 0
2, 748200, Note_on_c, 0, 48, 0
2, 748388, Note_on_c, 0, 50, 97
2, 748476, Note_on_c, 0, 50, 0
2, 748488, Note_on_c, 0, 48, 96
2, 748594, Note_on_c, 0, 48, 0
2, 748762, Note_on_c, 0, 46, 81
2, 748820, Note_on_c, 0, 46, 0
2, 749040, Note_on_c, 0, 46, 92
2, 749146, Control_c, 0, 64, 127
2, 749164, Note_on_c, 0, 48, 96
2, 749208, Control_c, 0, 64, 0
2, 749214, Note_on_c, 0, 46, 0
2, 749242, Note_on_c, 0, 48, 0
2, 749470, Note_on_c, 0, 50, 89
2, 749554, Note_on_c, 0, 50, 0
2, 749574, Note_on_c, 0, 48, 82
2, 749646, Note_on_c, 0, 48, 0
2, 749854, Note_on_c, 0, 46, 66
2, 749884, Note_on_c, 0, 60, 0
2, 749910, Note_on_c, 0, 46, 0
2, 750007, Note_on_c, 0, 63, 0
2, 750168, Note_on_c, 0, 46, 59
2, 750178, Note_on_c, 0, 55, 64
2, 750196, Note_on_c, 0, 56, 0
2, 750196, Note_on_c, 0, 60, 52
2, 750196, Note_on_c, 0, 63, 66
2, 750300, Note_on_c, 0, 48, 65
2, 750310, Note_on_c, 0, 46, 0
2, 750412, Note_on_c, 0, 48, 0
2, 750628, Note_on_c, 0, 50, 62
2, 750704, Note_on_c, 0, 50, 0
2, 750734, Note_on_c, 0, 48, 58
2, 750798, Note_on_c, 0, 48, 0
2, 751038, Note_on_c, 0, 46, 45
2, 751104, Note_on_c, 0, 46, 0
2, 751112, Control_c, 0, 64, 127
2, 751128, Note_on_c, 0, 63, 0
2, 751134, Note_on_c, 0, 60, 0
2, 751150, Note_on_c, 0, 55, 0
2, 751220, Control_c, 0, 64, 0
2, 751468, Note_on_c, 0, 46, 87
2, 751474, Note_on_c, 0, 34, 91
2, 751566, Note_on_c, 0, 48, 105
2, 751584, Note_on_c, 0, 46, 0
2, 751584, Note_on_c, 0, 36, 87
2, 751588, Note_on_c, 0, 35, 84
2, 751612, Note_on_c, 0, 34, 0
2, 751664, Note_on_c, 0, 38, 115
2, 751665, Note_on_c, 0, 50, 125
2, 751704, Note_on_c, 0, 36, 0
2, 751710, Note_on_c, 0, 35, 0
2, 751734, Note_on_c, 0, 48, 0
2, 751752, Note_on_c, 0, 38, 0
2, 751778, Note_on_c, 0, 48, 127
2, 751784, Note_on_c, 0, 36, 127
2, 751790, Control_c, 0, 64, 127
2, 751843, Note_on_c, 0, 50, 0
2, 751924, Note_on_c, 0, 36, 0
2, 752044, Note_on_c, 0, 34, 127
2, 752050, Note_on_c, 0, 46, 120
2, 752050, Note_on_c, 0, 22, 127
2, 752096, Note_on_c, 0, 48, 0
2, 752128, Note_on_c, 0, 22, 0
2, 752136, Note_on_c, 0, 34, 0
2, 752174, Note_on_c, 0, 46, 0
2, 752312, Control_c, 0, 64, 0
2, 752448, Note_on_c, 0, 56, 106
2, 752460, Note_on_c, 0, 63, 111
2, 752468, Note_on_c, 0, 60, 103
2, 752470, Note_on_c, 0, 58, 37
2, 752512, Note_on_c, 0, 56, 0
2, 752548, Note_on_c, 0, 58, 0
2, 752556, Note_on_c, 0, 60, 0
2, 752600, Note_on_c, 0, 62, 88
2, 752602, Note_on_c, 0, 65, 82
2, 752638, Note_on_c, 0, 63, 0
2, 752706, Note_on_c, 0, 62, 0
2, 752726, Note_on_c, 0, 70, 73
2, 752729, Note_on_c, 0, 68, 72
2, 752764, Note_on_c, 0, 65, 0
2, 752787, Note_on_c, 0, 68, 0
2, 752802, Note_on_c, 0, 70, 0
2, 752840, Note_on_c, 0, 63, 80
2, 752866, Note_on_c, 0, 67, 60
2, 752904, Note_on_c, 0, 63, 0
2, 752962, Note_on_c, 0, 67, 0
2, 752965, Note_on_c, 0, 65, 75
2, 752967, Note_on_c, 0, 62, 84
2, 752968, Note_on_c, 0, 56, 90
2, 752970, Note_on_c, 0, 58, 85
2, 753024, Note_on_c, 0, 56, 0
2, 753025, Note_on_c, 0, 62, 0
2, 753032, Note_on_c, 0, 58, 0
2, 753037, Note_on_c, 0, 65, 0
2, 753230, Note_on_c, 0, 68, 62
2, 753230, Note_on_c, 0, 60, 75
2, 753232, Note_on_c, 0, 63, 81
2, 753232, Note_on_c, 0, 70, 64
2, 753281, Note_on_c, 0, 68, 0
2, 753286, Note_on_c, 0, 70, 0
2, 753286, Note_on_c, 0, 63, 0
2, 753291, Note_on_c, 0, 60, 0
2, 753510, Note_on_c, 0, 65, 69
2, 753512, Note_on_c, 0, 62, 74
2, 753516, Note_on_c, 0, 58, 45
2, 753517, Note_on_c, 0, 56, 56
2, 753572, Control_c, 0, 64, 127
2, 753580, Note_on_c, 0, 62, 0
2, 753582, Note_on_c, 0, 58, 0
2, 753589, Note_on_c, 0, 56, 0
2, 753627, Note_on_c, 0, 65, 0
2, 753780, Note_on_c, 0, 70, 51
2, 753786, Note_on_c, 0, 68, 35
2, 753844, Note_on_c, 0, 70, 0
2, 753862, Note_on_c, 0, 68, 0
2, 754052, Note_on_c, 0, 94, 84
2, 754055, Note_on_c, 0, 82, 65
2, 754062, Note_on_c, 0, 56, 51
2, 754092, Note_on_c, 0, 94, 0
2, 754095, Note_on_c, 0, 58, 22
2, 754116, Note_on_c, 0, 82, 0
2, 754122, Note_on_c, 0, 56, 0
2, 754160, Note_on_c, 0, 58, 0
2, 754304, Note_on_c, 0, 70, 53
2, 754312, Note_on_c, 0, 68, 56
2, 754362, Note_on_c, 0, 70, 0
2, 754370, Note_on_c, 0, 68, 0
2, 754492, Control_c, 0, 64, 0
2, 754552, Note_on_c, 0, 63, 105
2, 754552, Note_on_c, 0, 60, 93
2, 754554, Note_on_c, 0, 55, 96
2, 754556, Note_on_c, 0, 58, 73
2, 754598, Note_on_c, 0, 55, 0
2, 754625, Note_on_c, 0, 58, 0
2, 754674, Note_on_c, 0, 62, 92
2, 754682, Note_on_c, 0, 65, 82
2, 754698, Note_on_c, 0, 60, 0
2, 754728, Note_on_c, 0, 63, 0
2, 754792, Note_on_c, 0, 70, 75
2, 754816, Note_on_c, 0, 67, 67
2, 754826, Note_on_c, 0, 62, 0
2, 754846, Note_on_c, 0, 70, 0
2, 754872, Note_on_c, 0, 67, 0
2, 754898, Note_on_c, 0, 65, 0
2, 754928, Note_on_c, 0, 67, 91
2, 754932, Note_on_c, 0, 63, 77
2, 755010, Note_on_c, 0, 63, 0
2, 755034, Note_on_c, 0, 65, 98
2, 755036, Note_on_c, 0, 62, 97
2, 755038, Note_on_c, 0, 58, 81
2, 755039, Note_on_c, 0, 55, 74
2, 755088, Note_on_c, 0, 67, 0
2, 755091, Note_on_c, 0, 55, 0
2, 755092, Note_on_c, 0, 58, 0
2, 755146, Note_on_c, 0, 65, 0
2, 755150, Note_on_c, 0, 62, 0
2, 755276, Note_on_c, 0, 70, 79
2, 755284, Note_on_c, 0, 67, 58
2, 755285, Note_on_c, 0, 63, 87
2, 755285, Note_on_c, 0, 60, 77
2, 755330, Note_on_c, 0, 70, 0
2, 755342, Note_on_c, 0, 67, 0
2, 755377, Note_on_c, 0, 60, 0
2, 755405, Note_on_c, 0, 63, 0
2, 755524, Note_on_c, 0, 65, 87
2, 755526, Note_on_c, 0, 62, 83
2, 755528, Note_on_c, 0, 55, 82
2, 755528, Note_on_c, 0, 58, 65
2, 755554, Control_c, 0, 64, 127
2, 755576, Note_on_c, 0, 55, 0
2, 755590, Note_on_c, 0, 58, 0
2, 755594, Note_on_c, 0, 62, 0
2, 755644, Note_on_c, 0, 65, 0
2, 755660, Control_c, 0, 64, 0
2, 755756, Note_on_c, 0, 70, 81
2, 755766, Note_on_c, 0, 67, 73
2, 755770, Note_on_c, 0, 60, 99
2, 755770, Note_on_c, 0, 63, 100
2, 755816, Note_on_c, 0, 67, 0
2, 755824, Note_on_c, 0, 70, 0
2, 755906, Control_c, 0, 64, 127
2, 755934, Note_on_c, 0, 60, 0
2, 755980, Note_on_c, 0, 63, 0
2, 756020, Note_on_c, 0, 65, 112
2, 756024, Note_on_c, 0, 62, 102
2, 756028, Note_on_c, 0, 58, 77
2, 756028, Note_on_c, 0, 55, 51
2, 756060, Note_on_c, 0, 62, 0
2, 756086, Note_on_c, 0, 58, 0
2, 756100, Note_on_c, 0, 65, 0
2, 756100, Note_on_c, 0, 55, 0
2, 756260, Note_on_c, 0, 72, 121
2, 756266, Note_on_c, 0, 70, 97
2, 756269, Note_on_c, 0, 67, 104
2, 756269, Note_on_c, 0, 63, 100
2, 756308, Note_on_c, 0, 67, 0
2, 756311, Note_on_c, 0, 63, 0
2, 756311, Note_on_c, 0, 70, 0
2, 756322, Control_c, 0, 64, 0
2, 756332, Note_on_c, 0, 72, 0
2, 756550, Note_on_c, 0, 70, 103
2, 756556, Note_on_c, 0, 82, 121
2, 756556, Note_on_c, 0, 59, 96
2, 756559, Note_on_c, 0, 75, 113
2, 756559, Note_on_c, 0, 71, 127
2, 756566, Note_on_c, 0, 63, 99
2, 756628, Control_c, 0, 64, 127
2, 756652, Note_on_c, 0, 70, 0
2, 756668, Note_on_c, 0, 68, 87
2, 756671, Note_on_c, 0, 80, 108
2, 756740, Note_on_c, 0, 82, 0
2, 756838, Note_on_c, 0, 80, 0
2, 756874, Control_c, 0, 64, 0
2, 756956, Note_on_c, 0, 68, 0
2, 756956, Note_on_c, 0, 82, 105
2, 756962, Note_on_c, 0, 70, 98
2, 757044, Note_on_c, 0, 77, 114
2, 757054, Note_on_c, 0, 65, 102
2, 757062, Note_on_c, 0, 70, 0
2, 757090, Control_c, 0, 64, 127
2, 757100, Note_on_c, 0, 82, 0
2, 757128, Note_on_c, 0, 63, 0
2, 757178, Note_on_c, 0, 77, 0
2, 757304, Note_on_c, 0, 65, 0
2, 757328, Note_on_c, 0, 70, 113
2, 757331, Note_on_c, 0, 82, 120
2, 757416, Note_on_c, 0, 70, 0
2, 757470, Note_on_c, 0, 82, 0
2, 757582, Control_c, 0, 64, 0
2, 757614, Note_on_c, 0, 68, 119
2, 757617, Note_on_c, 0, 80, 120
2, 757686, Note_on_c, 0, 65, 102
2, 757730, Note_on_c, 0, 77, 110
2, 757736, Note_on_c, 0, 68, 0
2, 757796, Control_c, 0, 64, 127
2, 757798, Note_on_c, 0, 75, 0
2, 757806, Note_on_c, 0, 71, 0
2, 757816, Note_on_c, 0, 80, 0
2, 757902, Note_on_c, 0, 59, 0
2, 757920, Note_on_c, 0, 65, 0
2, 757932, Note_on_c, 0, 77, 0
2, 758010, Note_on_c, 0, 63, 95
2, 758010, Note_on_c, 0, 75, 100
2, 758070, Note_on_c, 0, 63, 0
2, 758094, Note_on_c, 0, 71, 127
2, 758100, Note_on_c, 0, 59, 127
2, 758124, Note_on_c, 0, 75, 0
2, 758210, Note_on_c, 0, 59, 0
2, 758248, Note_on_c, 0, 71, 0
2, 758610, Control_c, 0, 64, 0
2, 758774, Note_on_c, 0, 68, 92
2, 758780, Note_on_c, 0, 56, 100
2, 758870, Note_on_c, 0, 65, 99
2, 758878, Note_on_c, 0, 53, 127
2, 758904, Note_on_c, 0, 56, 0
2, 758934, Note_on_c, 0, 68, 0
2, 758982, Note_on_c, 0, 63, 107
2, 758986, Note_on_c, 0, 51, 104
2, 759006, Note_on_c, 0, 65, 0
2, 759018, Note_on_c, 0, 53, 0
2, 759092, Note_on_c, 0, 47, 113
2, 759092, Note_on_c, 0, 59, 126
2, 759102, Control_c, 0, 64, 127
2, 759122, Note_on_c, 0, 51, 0
2, 759124, Note_on_c, 0, 63, 0
2, 759176, Note_on_c, 0, 47, 0
2, 759202, Note_on_c, 0, 59, 0
2, 759352, Note_on_c, 0, 50, 127
2, 759354, Note_on_c, 0, 55, 127
2, 759354, Note_on_c, 0, 46, 127
2, 759357, Note_on_c, 0, 34, 127
2, 759419, Note_on_c, 0, 34, 0
2, 759438, Note_on_c, 0, 46, 0
2, 759462, Note_on_c, 0, 50, 0
2, 759486, Control_c, 0, 64, 0
2, 759494, Note_on_c, 0, 55, 0
2, 760154, Note_on_c, 0, 58, 73
2, 760157, Note_on_c, 0, 51, 84
2, 760158, Note_on_c, 0, 55, 96
2, 760160, Note_on_c, 0, 53, 126
2, 760200, Note_on_c, 0, 53, 0
2, 760204, Note_on_c, 0, 55, 0
2, 760224, Note_on_c, 0, 51, 0
2, 760230, Note_on_c, 0, 58, 0
2, 760424, Note_on_c, 0, 46, 81
2, 760430, Note_on_c, 0, 39, 85
2, 760474, Note_on_c, 0, 46, 0
2, 760476, Note_on_c, 0, 39, 0
2, 760673, Note_on_c, 0, 58, 76
2, 760676, Note_on_c, 0, 55, 103
2, 760677, Note_on_c, 0, 53, 114
2, 760679, Note_on_c, 0, 51, 83
2, 760715, Note_on_c, 0, 53, 0
2, 760726, Note_on_c, 0, 55, 0
2, 760765, Note_on_c, 0, 51, 0
2, 760793, Note_on_c, 0, 58, 0
2, 760952, Note_on_c, 0, 46, 92
2, 760955, Note_on_c, 0, 39, 90
2, 761060, Note_on_c, 0, 46, 0
2, 761063, Note_on_c, 0, 39, 0
2, 762105, Note_on_c, 0, 58, 64
2, 762108, Note_on_c, 0, 51, 74
2, 762110, Note_on_c, 0, 55, 75
2, 762110, Note_on_c, 0, 53, 95
2, 762152, Note_on_c, 0, 53, 0
2, 762162, Note_on_c, 0, 55, 0
2, 762169, Note_on_c, 0, 51, 0
2, 762179, Note_on_c, 0, 58, 0
2, 762374, Note_on_c, 0, 46, 65
2, 762377, Note_on_c, 0, 39, 69
2, 762424, Note_on_c, 0, 39, 0
2, 762432, Note_on_c, 0, 46, 0
2, 762630, Note_on_c, 0, 58, 53
2, 762633, Note_on_c, 0, 55, 69
2, 762634, Note_on_c, 0, 53, 75
2, 762635, Note_on_c, 0, 51, 62
2, 762684, Note_on_c, 0, 53, 0
2, 762684, Note_on_c, 0, 55, 0
2, 762687, Note_on_c, 0, 51, 0
2, 762706, Note_on_c, 0, 58, 0
2, 762956, Note_on_c, 0, 46, 51
2, 762956, Note_on_c, 0, 39, 52
2, 763020, Note_on_c, 0, 39, 0
2, 763032, Note_on_c, 0, 46, 0
2, 764241, Note_on_c, 0, 58, 46
2, 764244, Note_on_c, 0, 55, 59
2, 764244, Note_on_c, 0, 53, 67
2, 764246, Note_on_c, 0, 51, 62
2, 764300, Note_on_c, 0, 53, 0
2, 764300, Note_on_c, 0, 55, 0
2, 764302, Note_on_c, 0, 51, 0
2, 764315, Note_on_c, 0, 58, 0
2, 764520, Note_on_c, 0, 46, 53
2, 764523, Note_on_c, 0, 39, 59
2, 764572, Note_on_c, 0, 39, 0
2, 764584, Note_on_c, 0, 46, 0
2, 764774, Note_on_c, 0, 58, 45
2, 764774, Note_on_c, 0, 55, 37
2, 764775, Note_on_c, 0, 53, 70
2, 764778, Note_on_c, 0, 51, 28
2, 764829, Note_on_c, 0, 53, 0
2, 764842, Note_on_c, 0, 55, 0
2, 764845, Note_on_c, 0, 51, 0
2, 764850, Note_on_c, 0, 58, 0
2, 765102, Note_on_c, 0, 39, 52
2, 765818, Note_on_c, 0, 41, 57
2, 765866, Note_on_c, 0, 39, 0
2, 766772, Note_on_c, 0, 49, 45
2, 766774, Note_on_c, 0, 42, 53
2, 766820, Note_on_c, 0, 41, 0
2, 766920, Note_on_c, 0, 42, 0
2, 767098, Note_on_c, 0, 61, 50
2, 767100, Note_on_c, 0, 58, 57
2, 767100, Note_on_c, 0, 57, 45
2, 767164, Note_on_c, 0, 57, 0
2, 767167, Note_on_c, 0, 58, 0
2, 767174, Note_on_c, 0, 61, 0
2, 767430, Note_on_c, 0, 42, 53
2, 767486, Note_on_c, 0, 42, 0
2, 767680, Note_on_c, 0, 57, 52
2, 767688, Note_on_c, 0, 61, 67
2, 767688, Note_on_c, 0, 58, 50
2, 767758, Note_on_c, 0, 61, 0
2, 767764, Note_on_c, 0, 57, 0
2, 767766, Note_on_c, 0, 58, 0
2, 768030, Note_on_c, 0, 42, 54
2, 768078, Note_on_c, 0, 42, 0
2, 768308, Note_on_c, 0, 55, 49
2, 768316, Note_on_c, 0, 56, 53
2, 768318, Note_on_c, 0, 59, 58
2, 768368, Note_on_c, 0, 55, 0
2, 768375, Note_on_c, 0, 59, 0
2, 768382, Note_on_c, 0, 56, 0
2, 768634, Note_on_c, 0, 42, 56
2, 768686, Note_on_c, 0, 42, 0
2, 768892, Note_on_c, 0, 56, 37
2, 768932, Note_on_c, 0, 57, 64
2, 768960, Note_on_c, 0, 56, 0
2, 768963, Note_on_c, 0, 65, 33
2, 768970, Note_on_c, 0, 60, 33
2, 768973, Note_on_c, 0, 49, 0
2, 768988, Note_on_c, 0, 57, 0
2, 769034, Note_on_c, 0, 65, 0
2, 769048, Note_on_c, 0, 60, 0
2, 769134, Note_on_c, 0, 51, 67
2, 769200, Note_on_c, 0, 42, 52
2, 769206, Note_on_c, 0, 49, 75
2, 769210, Note_on_c, 0, 51, 0
2, 769294, Note_on_c, 0, 42, 0
2, 769468, Note_on_c, 0, 57, 62
2, 769496, Note_on_c, 0, 58, 80
2, 769500, Note_on_c, 0, 61, 84
2, 769530, Note_on_c, 0, 57, 0
2, 769568, Note_on_c, 0, 61, 0
2, 769576, Note_on_c, 0, 58, 0
2, 769808, Note_on_c, 0, 42, 69
2, 769852, Note_on_c, 0, 42, 0
2, 770054, Note_on_c, 0, 57, 69
2, 770088, Note_on_c, 0, 58, 69
2, 770096, Note_on_c, 0, 61, 68
2, 770108, Note_on_c, 0, 57, 0
2, 770152, Note_on_c, 0, 61, 0
2, 770154, Note_on_c, 0, 58, 0
2, 770374, Note_on_c, 0, 42, 64
2, 770424, Note_on_c, 0, 42, 0
2, 770638, Note_on_c, 0, 55, 77
2, 770650, Note_on_c, 0, 56, 73
2, 770672, Note_on_c, 0, 59, 64
2, 770688, Note_on_c, 0, 55, 0
2, 770704, Note_on_c, 0, 56, 0
2, 770722, Note_on_c, 0, 59, 0
2, 770956, Note_on_c, 0, 42, 65
2, 771000, Note_on_c, 0, 42, 0
2, 771166, Note_on_c, 0, 56, 53
2, 771218, Note_on_c, 0, 57, 68
2, 771222, Note_on_c, 0, 56, 0
2, 771238, Note_on_c, 0, 65, 52
2, 771252, Note_on_c, 0, 60, 41
2, 771268, Note_on_c, 0, 57, 0
2, 771294, Note_on_c, 0, 65, 0
2, 771322, Note_on_c, 0, 60, 0
2, 771342, Note_on_c, 0, 49, 0
2, 771534, Note_on_c, 0, 49, 52
2, 771786, Note_on_c, 0, 57, 47
2, 771808, Note_on_c, 0, 58, 69
2, 771812, Note_on_c, 0, 61, 74
2, 771814, Note_on_c, 0, 42, 65
2, 771844, Note_on_c, 0, 57, 0
2, 771866, Note_on_c, 0, 42, 0
2, 771874, Note_on_c, 0, 58, 0
2, 771890, Note_on_c, 0, 61, 0
2, 772088, Note_on_c, 0, 41, 81
2, 772134, Note_on_c, 0, 41, 0
2, 772352, Note_on_c, 0, 39, 68
2, 772408, Note_on_c, 0, 39, 0
2, 772698, Note_on_c, 0, 37, 65
2, 772752, Note_on_c, 0, 37, 0
2, 773208, Note_on_c, 0, 57, 46
2, 773242, Note_on_c, 0, 58, 39
2, 773245, Note_on_c, 0, 61, 66
2, 773280, Note_on_c, 0, 57, 0
2, 773282, Note_on_c, 0, 49, 0
2, 773330, Note_on_c, 0, 61, 0
2, 773332, Note_on_c, 0, 58, 0
2, 774108, Note_on_c, 0, 42, 46
2, 774176, Note_on_c, 0, 42, 0
2, 774402, Note_on_c, 0, 41, 50
2, 774470, Note_on_c, 0, 41, 0
2, 774668, Note_on_c, 0, 39, 43
2, 774740, Note_on_c, 0, 39, 0
2, 774948, Note_on_c, 0, 37, 51
2, 775004, Note_on_c, 0, 37, 0
2, 775240, Note_on_c, 0, 35, 50
2, 775298, Note_on_c, 0, 35, 0
2, 775488, Note_on_c, 0, 48, 38
2, 775502, Note_on_c, 0, 34, 57
2, 775520, Note_on_c, 0, 49, 58
2, 775554, Note_on_c, 0, 47, 34
2, 775570, Note_on_c, 0, 34, 0
2, 775626, Note_on_c, 0, 47, 0
2, 775632, Note_on_c, 0, 48, 0
2, 775648, Note_on_c, 0, 49, 0
2, 775774, Note_on_c, 0, 32, 61
2, 775824, Note_on_c, 0, 32, 0
2, 776098, Note_on_c, 0, 49, 84
2, 776100, Note_on_c, 0, 42, 67
2, 776170, Note_on_c, 0, 42, 0
2, 776342, Note_on_c, 0, 57, 50
2, 776354, Note_on_c, 0, 58, 79
2, 776364, Note_on_c, 0, 61, 89
2, 776394, Note_on_c, 0, 57, 0
2, 776404, Note_on_c, 0, 58, 0
2, 776412, Note_on_c, 0, 61, 0
2, 776660, Note_on_c, 0, 42, 67
2, 776710, Note_on_c, 0, 42, 0
2, 776914, Note_on_c, 0, 57, 66
2, 776928, Note_on_c, 0, 58, 74
2, 776936, Note_on_c, 0, 61, 91
2, 776966, Note_on_c, 0, 57, 0
2, 776980, Note_on_c, 0, 58, 0
2, 776988, Note_on_c, 0, 61, 0
2, 777234, Note_on_c, 0, 42, 70
2, 777280, Note_on_c, 0, 42, 0
2, 777490, Note_on_c, 0, 55, 82
2, 777502, Note_on_c, 0, 56, 90
2, 777508, Note_on_c, 0, 59, 97
2, 777536, Note_on_c, 0, 55, 0
2, 777552, Note_on_c, 0, 59, 0
2, 777554, Note_on_c, 0, 56, 0
2, 777784, Note_on_c, 0, 42, 60
2, 777834, Note_on_c, 0, 42, 0
2, 778010, Note_on_c, 0, 56, 62
2, 778050, Note_on_c, 0, 65, 87
2, 778052, Note_on_c, 0, 57, 70
2, 778055, Note_on_c, 0, 60, 69
2, 778066, Note_on_c, 0, 56, 0
2, 778097, Note_on_c, 0, 65, 0
2, 778102, Note_on_c, 0, 57, 0
2, 778105, Note_on_c, 0, 49, 0
2, 778114, Note_on_c, 0, 60, 0
2, 778236, Note_on_c, 0, 51, 76
2, 778296, Note_on_c, 0, 42, 76
2, 778302, Note_on_c, 0, 49, 99
2, 778336, Note_on_c, 0, 42, 0
2, 778336, Note_on_c, 0, 51, 0
2, 778548, Note_on_c, 0, 57, 72
2, 778560, Note_on_c, 0, 58, 87
2, 778566, Note_on_c, 0, 61, 96
2, 778594, Note_on_c, 0, 57, 0
2, 778622, Note_on_c, 0, 58, 0
2, 778624, Note_on_c, 0, 61, 0
2, 778850, Note_on_c, 0, 42, 70
2, 778896, Note_on_c, 0, 42, 0
2, 779096, Note_on_c, 0, 57, 60
2, 779114, Note_on_c, 0, 58, 79
2, 779120, Note_on_c, 0, 61, 89
2, 779148, Note_on_c, 0, 57, 0
2, 779168, Note_on_c, 0, 58, 0
2, 779174, Note_on_c, 0, 61, 0
2, 779404, Note_on_c, 0, 42, 66
2, 779462, Note_on_c, 0, 42, 0
2, 779652, Note_on_c, 0, 56, 87
2, 779660, Note_on_c, 0, 59, 81
2, 779666, Note_on_c, 0, 55, 58
2, 779712, Note_on_c, 0, 59, 0
2, 779718, Note_on_c, 0, 55, 0
2, 779718, Note_on_c, 0, 56, 0
2, 779952, Note_on_c, 0, 42, 58
2, 780002, Note_on_c, 0, 42, 0
2, 780158, Note_on_c, 0, 56, 57
2, 780206, Note_on_c, 0, 65, 76
2, 780206, Note_on_c, 0, 57, 60
2, 780226, Note_on_c, 0, 56, 0
2, 780226, Note_on_c, 0, 60, 53
2, 780252, Note_on_c, 0, 65, 0
2, 780258, Note_on_c, 0, 57, 0
2, 780264, Note_on_c, 0, 49, 0
2, 780286, Note_on_c, 0, 60, 0
2, 780440, Note_on_c, 0, 49, 53
2, 780692, Note_on_c, 0, 57, 52
2, 780724, Note_on_c, 0, 58, 62
2, 780730, Note_on_c, 0, 61, 69
2, 780736, Note_on_c, 0, 42, 53
2, 780760, Note_on_c, 0, 57, 0
2, 780796, Note_on_c, 0, 42, 0
2, 780799, Note_on_c, 0, 58, 0
2, 780802, Note_on_c, 0, 61, 0
2, 780994, Note_on_c, 0, 41, 67
2, 781046, Note_on_c, 0, 41, 0
2, 781262, Note_on_c, 0, 39, 58
2, 781320, Note_on_c, 0, 39, 0
2, 781590, Note_on_c, 0, 37, 54
2, 781784, Note_on_c, 0, 37, 0
2, 782932, Control_c, 0, 64, 127
2, 783136, Note_on_c, 0, 39, 51
2, 783470, Note_on_c, 0, 49, 0
2, 783644, Note_on_c, 0, 57, 80
2, 783682, Note_on_c, 0, 41, 56
2, 783916, Control_c, 0, 64, 0
2, 784030, Note_on_c, 0, 42, 77
2, 784048, Note_on_c, 0, 39, 0
2, 784124, Note_on_c, 0, 41, 0
2, 784162, Control_c, 0, 64, 127
2, 784368, Note_on_c, 0, 45, 64
2, 784392, Note_on_c, 0, 42, 0
2, 784416, Note_on_c, 0, 65, 102
2, 784592, Control_c, 0, 64, 0
2, 784762, Control_c, 0, 64, 127
2, 784786, Note_on_c, 0, 46, 62
2, 784830, Note_on_c, 0, 45, 0
2, 785008, Control_c, 0, 64, 0
2, 785176, Control_c, 0, 64, 127
2, 785232, Note_on_c, 0, 47, 57
2, 785270, Note_on_c, 0, 46, 0
2, 785439, Control_c, 0, 64, 0
2, 785638, Control_c, 0, 64, 127
2, 785760, Note_on_c, 0, 64, 75
2, 785772, Note_on_c, 0, 58, 28
2, 785792, Note_on_c, 0, 47, 0
2, 785800, Note_on_c, 0, 48, 35
2, 785894, Note_on_c, 0, 57, 0
2, 785910, Note_on_c, 0, 65, 0
2, 785960, Control_c, 0, 64, 0
2, 786174, Control_c, 0, 64, 127
2, 786200, Note_on_c, 0, 48, 0
2, 786262, Note_on_c, 0, 58, 0
2, 786568, Note_on_c, 0, 63, 53
2, 786590, Note_on_c, 0, 44, 38
2, 786592, Note_on_c, 0, 64, 0
2, 786594, Note_on_c, 0, 49, 33
2, 786608, Note_on_c, 0, 59, 29
2, 786668, Control_c, 0, 64, 0
2, 786904, Note_on_c, 0, 49, 0
2, 786928, Control_c, 0, 64, 127
2, 786940, Note_on_c, 0, 44, 0
2, 786962, Note_on_c, 0, 59, 0
2, 786996, Note_on_c, 0, 63, 0
2, 787420, Note_on_c, 0, 74, 27
2, 787422, Note_on_c, 0, 71, 53
2, 787428, Note_on_c, 0, 65, 33
2, 787436, Note_on_c, 0, 75, 50
2, 787460, Note_on_c, 0, 56, 19
2, 787490, Note_on_c, 0, 71, 0
2, 787490, Note_on_c, 0, 74, 0
2, 787498, Note_on_c, 0, 75, 0
2, 787506, Note_on_c, 0, 65, 0
2, 787526, Note_on_c, 0, 56, 0
2, 787658, Note_on_c, 0, 73, 49
2, 787664, Note_on_c, 0, 72, 42
2, 787668, Note_on_c, 0, 71, 54
2, 787674, Note_on_c, 0, 56, 35
2, 787688, Note_on_c, 0, 65, 38
2, 787722, Note_on_c, 0, 73, 0
2, 787728, Note_on_c, 0, 72, 0
2, 787730, Note_on_c, 0, 71, 0
2, 787746, Note_on_c, 0, 56, 0
2, 787758, Note_on_c, 0, 65, 0
2, 787848, Note_on_c, 0, 74, 77
2, 787858, Note_on_c, 0, 65, 49
2, 787866, Note_on_c, 0, 71, 52
2, 787868, Note_on_c, 0, 59, 52
2, 787870, Note_on_c, 0, 56, 33
2, 787884, Note_on_c, 0, 75, 73
2, 787904, Note_on_c, 0, 74, 0
2, 787924, Note_on_c, 0, 71, 0
2, 787926, Note_on_c, 0, 65, 0
2, 787928, Note_on_c, 0, 59, 0
2, 787940, Note_on_c, 0, 75, 0
2, 787943, Note_on_c, 0, 56, 0
2, 787943, Control_c, 0, 64, 0
2, 788248, Note_on_c, 0, 74, 70
2, 788251, Note_on_c, 0, 75, 75
2, 788251, Note_on_c, 0, 71, 68
2, 788255, Note_on_c, 0, 65, 61
2, 788266, Note_on_c, 0, 56, 52
2, 788276, Note_on_c, 0, 59, 57
2, 788296, Note_on_c, 0, 74, 0
2, 788318, Note_on_c, 0, 71, 0
2, 788321, Note_on_c, 0, 75, 0
2, 788330, Note_on_c, 0, 59, 0
2, 788334, Note_on_c, 0, 65, 0
2, 788336, Note_on_c, 0, 56, 0
2, 788460, Note_on_c, 0, 72, 64
2, 788460, Note_on_c, 0, 73, 66
2, 788480, Note_on_c, 0, 65, 65
2, 788480, Note_on_c, 0, 71, 69
2, 788502, Note_on_c, 0, 56, 34
2, 788504, Note_on_c, 0, 59, 42
2, 788514, Note_on_c, 0, 72, 0
2, 788526, Note_on_c, 0, 73, 0
2, 788532, Note_on_c, 0, 71, 0
2, 788532, Note_on_c, 0, 65, 0
2, 788562, Note_on_c, 0, 59, 0
2, 788570, Note_on_c, 0, 56, 0
2, 788672, Note_on_c, 0, 74, 57
2, 788675, Note_on_c, 0, 56, 37
2, 788680, Note_on_c, 0, 71, 47
2, 788690, Note_on_c, 0, 59, 22
2, 788692, Note_on_c, 0, 65, 50
2, 788702, Note_on_c, 0, 75, 53
2, 788734, Note_on_c, 0, 74, 0
2, 788752, Note_on_c, 0, 71, 0
2, 788755, Note_on_c, 0, 65, 0
2, 788770, Note_on_c, 0, 59, 0
2, 788796, Note_on_c, 0, 56, 0
2, 788840, Note_on_c, 0, 75, 0
2, 789614, Note_on_c, 0, 57, 79
2, 789802, Control_c, 0, 64, 127
2, 790336, Note_on_c, 0, 65, 97
2, 790368, Note_on_c, 0, 49, 64
2, 791838, Note_on_c, 0, 64, 62
2, 791930, Note_on_c, 0, 65, 0
2, 791967, Control_c, 0, 64, 0
2, 792198, Control_c, 0, 64, 127
2, 792384, Note_on_c, 0, 57, 0
2, 792398, Control_c, 0, 64, 0
2, 792438, Note_on_c, 0, 63, 58
2, 792444, Note_on_c, 0, 42, 41
2, 792448, Note_on_c, 0, 58, 45
2, 792456, Note_on_c, 0, 64, 0
2, 792640, Note_on_c, 0, 42, 0
2, 792640, Note_on_c, 0, 49, 0
2, 792643, Control_c, 0, 64, 127
2, 792656, Note_on_c, 0, 58, 0
2, 792700, Note_on_c, 0, 63, 0
2, 793096, Note_on_c, 0, 70, 50
2, 793102, Note_on_c, 0, 74, 64
2, 793116, Note_on_c, 0, 66, 37
2, 793126, Note_on_c, 0, 61, 45
2, 793130, Note_on_c, 0, 75, 56
2, 793132, Note_on_c, 0, 58, 28
2, 793160, Note_on_c, 0, 74, 0
2, 793166, Note_on_c, 0, 70, 0
2, 793190, Note_on_c, 0, 66, 0
2, 793192, Note_on_c, 0, 61, 0
2, 793192, Note_on_c, 0, 75, 0
2, 793216, Note_on_c, 0, 58, 0
2, 793316, Note_on_c, 0, 70, 65
2, 793332, Note_on_c, 0, 72, 53
2, 793335, Note_on_c, 0, 73, 72
2, 793338, Note_on_c, 0, 66, 61
2, 793342, Note_on_c, 0, 58, 36
2, 793352, Note_on_c, 0, 61, 54
2, 793384, Note_on_c, 0, 72, 0
2, 793390, Note_on_c, 0, 73, 0
2, 793396, Control_c, 0, 64, 0
2, 793401, Note_on_c, 0, 70, 0
2, 793406, Note_on_c, 0, 66, 0
2, 793410, Note_on_c, 0, 61, 0
2, 793416, Note_on_c, 0, 58, 0
2, 793522, Note_on_c, 0, 74, 87
2, 793530, Note_on_c, 0, 70, 64
2, 793534, Note_on_c, 0, 66, 72
2, 793542, Note_on_c, 0, 58, 43
2, 793544, Note_on_c, 0, 61, 58
2, 793552, Note_on_c, 0, 75, 76
2, 793570, Note_on_c, 0, 74, 0
2, 793600, Note_on_c, 0, 70, 0
2, 793602, Note_on_c, 0, 66, 0
2, 793606, Note_on_c, 0, 75, 0
2, 793610, Note_on_c, 0, 61, 0
2, 793628, Note_on_c, 0, 58, 0
2, 793948, Note_on_c, 0, 70, 69
2, 793952, Note_on_c, 0, 74, 82
2, 793956, Note_on_c, 0, 66, 64
2, 793958, Note_on_c, 0, 75, 81
2, 793960, Note_on_c, 0, 58, 56
2, 793962, Note_on_c, 0, 61, 68
2, 794000, Note_on_c, 0, 74, 0
2, 794022, Note_on_c, 0, 66, 0
2, 794024, Note_on_c, 0, 61, 0
2, 794028, Note_on_c, 0, 58, 0
2, 794030, Note_on_c, 0, 70, 0
2, 794036, Note_on_c, 0, 75, 0
2, 794158, Note_on_c, 0, 72, 62
2, 794168, Note_on_c, 0, 66, 66
2, 794168, Note_on_c, 0, 70, 62
2, 794174, Note_on_c, 0, 73, 75
2, 794182, Note_on_c, 0, 61, 60
2, 794182, Note_on_c, 0, 58, 52
2, 794210, Note_on_c, 0, 72, 0
2, 794224, Note_on_c, 0, 70, 0
2, 794230, Note_on_c, 0, 73, 0
2, 794238, Note_on_c, 0, 61, 0
2, 794240, Note_on_c, 0, 66, 0
2, 794248, Note_on_c, 0, 58, 0
2, 794368, Note_on_c, 0, 70, 73
2, 794380, Note_on_c, 0, 74, 62
2, 794386, Note_on_c, 0, 66, 58
2, 794398, Note_on_c, 0, 75, 80
2, 794412, Note_on_c, 0, 61, 57
2, 794420, Note_on_c, 0, 58, 33
2, 794432, Note_on_c, 0, 74, 0
2, 794450, Note_on_c, 0, 70, 0
2, 794454, Note_on_c, 0, 66, 0
2, 794464, Note_on_c, 0, 75, 0
2, 794474, Note_on_c, 0, 61, 0
2, 794500, Note_on_c, 0, 58, 0
2, 795290, Note_on_c, 0, 69, 106
2, 795300, Note_on_c, 0, 57, 74
2, 795640, Control_c, 0, 64, 127
2, 795960, Note_on_c, 0, 77, 125
2, 795962, Note_on_c, 0, 69, 0
2, 795964, Note_on_c, 0, 65, 98
2, 796000, Note_on_c, 0, 57, 0
2, 796132, Control_c, 0, 64, 0
2, 796366, Note_on_c, 0, 68, 105
2, 796366, Note_on_c, 0, 80, 119
2, 796378, Control_c, 0, 64, 127
2, 796426, Note_on_c, 0, 65, 0
2, 796458, Note_on_c, 0, 77, 0
2, 796578, Control_c, 0, 64, 0
2, 796854, Control_c, 0, 64, 127
2, 797060, Note_on_c, 0, 78, 111
2, 797076, Note_on_c, 0, 66, 88
2, 797086, Note_on_c, 0, 68, 0
2, 797116, Note_on_c, 0, 66, 0
2, 797128, Note_on_c, 0, 80, 0
2, 797322, Note_on_c, 0, 78, 0
2, 797410, Note_on_c, 0, 75, 110
2, 797412, Note_on_c, 0, 70, 85
2, 797424, Note_on_c, 0, 49, 99
2, 797454, Control_c, 0, 64, 0
2, 797606, Control_c, 0, 64, 127
2, 797616, Note_on_c, 0, 49, 0
2, 797686, Note_on_c, 0, 78, 106
2, 797722, Note_on_c, 0, 75, 0
2, 797750, Note_on_c, 0, 70, 0
2, 797850, Note_on_c, 0, 68, 87
2, 797856, Note_on_c, 0, 65, 75
2, 797870, Note_on_c, 0, 56, 46
2, 797870, Note_on_c, 0, 59, 72
2, 797890, Note_on_c, 0, 78, 0
2, 797986, Note_on_c, 0, 77, 106
2, 798034, Note_on_c, 0, 68, 0
2, 798058, Note_on_c, 0, 59, 0
2, 798116, Note_on_c, 0, 65, 0
2, 798116, Note_on_c, 0, 73, 103
2, 798116, Note_on_c, 0, 66, 89
2, 798128, Note_on_c, 0, 63, 89
2, 798154, Note_on_c, 0, 77, 0
2, 798284, Note_on_c, 0, 66, 0
2, 798294, Note_on_c, 0, 63, 0
2, 798358, Note_on_c, 0, 65, 100
2, 798360, Note_on_c, 0, 73, 0
2, 798360, Note_on_c, 0, 61, 99
2, 798396, Note_on_c, 0, 56, 0
2, 798399, Note_on_c, 0, 61, 0
2, 798426, Note_on_c, 0, 65, 0
2, 798590, Note_on_c, 0, 68, 93
2, 798602, Note_on_c, 0, 63, 90
2, 798612, Note_on_c, 0, 54, 67
2, 798618, Note_on_c, 0, 59, 64
2, 798698, Control_c, 0, 64, 0
2, 798766, Note_on_c, 0, 71, 100
2, 798832, Note_on_c, 0, 63, 0
2, 798835, Note_on_c, 0, 68, 0
2, 798912, Control_c, 0, 64, 127
2, 798942, Note_on_c, 0, 54, 0
2, 798948, Note_on_c, 0, 61, 81
2, 798960, Control_c, 0, 64, 0
2, 798968, Note_on_c, 0, 53, 95
2, 799128, Control_c, 0, 64, 127
2, 799156, Note_on_c, 0, 59, 0
2, 799156, Note_on_c, 0, 71, 0
2, 799156, Note_on_c, 0, 70, 81
2, 799194, Note_on_c, 0, 61, 0
2, 799200, Note_on_c, 0, 70, 0
2, 799309, Note_on_c, 0, 53, 0
2, 799338, Note_on_c, 0, 61, 96
2, 799356, Note_on_c, 0, 51, 53
2, 799358, Note_on_c, 0, 59, 84
2, 799428, Note_on_c, 0, 59, 0
2, 799528, Control_c, 0, 64, 0
2, 799544, Note_on_c, 0, 59, 35
2, 799650, Note_on_c, 0, 58, 62
2, 799664, Note_on_c, 0, 51, 0
2, 799664, Note_on_c, 0, 49, 61
2, 799728, Note_on_c, 0, 59, 0
2, 799850, Control_c, 0, 64, 127
2, 799892, Note_on_c, 0, 49, 0
2, 800084, Note_on_c, 0, 42, 60
2, 800584, Note_on_c, 0, 49, 46
2, 800910, Note_on_c, 0, 57, 72
2, 800966, Note_on_c, 0, 58, 0
2, 800971, Note_on_c, 0, 49, 0
2, 801122, Note_on_c, 0, 61, 0
2, 801272, Note_on_c, 0, 49, 52
2, 801510, Note_on_c, 0, 49, 0
2, 801586, Note_on_c, 0, 65, 76
2, 801598, Note_on_c, 0, 43, 56
2, 801614, Note_on_c, 0, 42, 0
2, 801617, Control_c, 0, 64, 0
2, 801966, Note_on_c, 0, 49, 50
2, 802232, Control_c, 0, 64, 127
2, 802446, Control_c, 0, 64, 0
2, 802526, Note_on_c, 0, 58, 37
2, 802624, Note_on_c, 0, 57, 0
2, 802768, Note_on_c, 0, 49, 0
2, 802816, Control_c, 0, 64, 127
2, 803122, Note_on_c, 0, 64, 53
2, 803134, Note_on_c, 0, 49, 31
2, 803170, Note_on_c, 0, 65, 0
2, 803430, Note_on_c, 0, 49, 0
2, 803502, Note_on_c, 0, 43, 0
2, 803505, Note_on_c, 0, 58, 0
2, 803536, Note_on_c, 0, 49, 12
2, 803626, Note_on_c, 0, 49, 0
2, 803846, Control_c, 0, 64, 0
2, 803868, Note_on_c, 0, 63, 47
2, 803882, Note_on_c, 0, 64, 0
2, 803890, Note_on_c, 0, 49, 29
2, 803894, Note_on_c, 0, 59, 30
2, 803898, Note_on_c, 0, 44, 39
2, 804056, Note_on_c, 0, 44, 0
2, 804058, Note_on_c, 0, 59, 0
2, 804061, Control_c, 0, 64, 127
2, 804070, Note_on_c, 0, 49, 0
2, 804100, Note_on_c, 0, 63, 0
2, 804530, Note_on_c, 0, 74, 43
2, 804536, Note_on_c, 0, 66, 42
2, 804548, Note_on_c, 0, 71, 51
2, 804548, Note_on_c, 0, 75, 51
2, 804556, Note_on_c, 0, 56, 46
2, 804574, Note_on_c, 0, 59, 31
2, 804612, Note_on_c, 0, 75, 0
2, 804612, Note_on_c, 0, 71, 0
2, 804612, Note_on_c, 0, 74, 0
2, 804615, Control_c, 0, 64, 0
2, 804624, Note_on_c, 0, 66, 0
2, 804626, Note_on_c, 0, 56, 0
2, 804642, Note_on_c, 0, 59, 0
2, 804762, Note_on_c, 0, 73, 60
2, 804767, Note_on_c, 0, 72, 53
2, 804774, Note_on_c, 0, 65, 67
2, 804780, Note_on_c, 0, 71, 43
2, 804784, Note_on_c, 0, 59, 37
2, 804790, Note_on_c, 0, 56, 51
2, 804822, Note_on_c, 0, 65, 0
2, 804822, Note_on_c, 0, 73, 0
2, 804822, Note_on_c, 0, 72, 0
2, 804846, Note_on_c, 0, 71, 0
2, 804850, Note_on_c, 0, 59, 0
2, 804854, Note_on_c, 0, 56, 0
2, 804966, Note_on_c, 0, 74, 67
2, 804980, Note_on_c, 0, 63, 73
2, 804986, Note_on_c, 0, 71, 45
2, 805008, Note_on_c, 0, 75, 59
2, 805011, Note_on_c, 0, 56, 42
2, 805011, Note_on_c, 0, 59, 37
2, 805032, Note_on_c, 0, 74, 0
2, 805042, Note_on_c, 0, 63, 0
2, 805054, Note_on_c, 0, 71, 0
2, 805078, Note_on_c, 0, 59, 0
2, 805088, Note_on_c, 0, 56, 0
2, 805094, Note_on_c, 0, 75, 0
2, 805910, Note_on_c, 0, 54, 79
2, 806164, Control_c, 0, 64, 127
2, 806300, Note_on_c, 0, 57, 80
2, 806322, Note_on_c, 0, 53, 93
2, 806358, Note_on_c, 0, 54, 0
2, 806472, Control_c, 0, 64, 0
2, 806684, Note_on_c, 0, 51, 70
2, 806704, Control_c, 0, 64, 127
2, 806730, Note_on_c, 0, 53, 0
2, 806780, Control_c, 0, 64, 0
2, 806994, Control_c, 0, 64, 127
2, 807068, Note_on_c, 0, 65, 88
2, 808136, Note_on_c, 0, 48, 38
2, 808158, Note_on_c, 0, 51, 0
2, 808302, Control_c, 0, 64, 0
2, 808562, Control_c, 0, 64, 127
2, 808682, Note_on_c, 0, 64, 52
2, 808732, Note_on_c, 0, 65, 0
2, 808748, Control_c, 0, 64, 0
2, 808916, Control_c, 0, 64, 127
2, 808942, Note_on_c, 0, 57, 0
2, 808996, Note_on_c, 0, 48, 0
2, 809066, Note_on_c, 0, 64, 0
2, 809300, Control_c, 0, 64, 0
2, 809312, Note_on_c, 0, 63, 44
2, 809336, Note_on_c, 0, 58, 31
2, 809339, Note_on_c, 0, 42, 34
2, 809352, Note_on_c, 0, 49, 22
2, 809462, Note_on_c, 0, 58, 0
2, 809512, Note_on_c, 0, 42, 0
2, 809530, Control_c, 0, 64, 127
2, 809546, Note_on_c, 0, 49, 0
2, 809578, Note_on_c, 0, 63, 0
2, 809990, Note_on_c, 0, 66, 44
2, 809990, Note_on_c, 0, 74, 50
2, 809990, Note_on_c, 0, 70, 37
2, 810000, Note_on_c, 0, 58, 39
2, 810008, Note_on_c, 0, 75, 53
2, 810010, Note_on_c, 0, 61, 43
2, 810052, Note_on_c, 0, 74, 0
2, 810066, Note_on_c, 0, 66, 0
2, 810066, Note_on_c, 0, 70, 0
2, 810068, Control_c, 0, 64, 0
2, 810070, Note_on_c, 0, 75, 0
2, 810074, Note_on_c, 0, 58, 0
2, 810082, Note_on_c, 0, 61, 0
2, 810222, Note_on_c, 0, 70, 54
2, 810228, Note_on_c, 0, 72, 49
2, 810228, Note_on_c, 0, 58, 60
2, 810234, Note_on_c, 0, 65, 62
2, 810234, Note_on_c, 0, 73, 46
2, 810244, Note_on_c, 0, 61, 56
2, 810284, Note_on_c, 0, 65, 0
2, 810284, Note_on_c, 0, 72, 0
2, 810284, Note_on_c, 0, 70, 0
2, 810296, Note_on_c, 0, 73, 0
2, 810302, Note_on_c, 0, 61, 0
2, 810302, Note_on_c, 0, 58, 0
2, 810426, Note_on_c, 0, 74, 72
2, 810454, Note_on_c, 0, 58, 58
2, 810457, Note_on_c, 0, 70, 44
2, 810460, Note_on_c, 0, 63, 67
2, 810474, Note_on_c, 0, 61, 57
2, 810486, Note_on_c, 0, 74, 0
2, 810504, Note_on_c, 0, 75, 43
2, 810522, Note_on_c, 0, 63, 0
2, 810534, Note_on_c, 0, 61, 0
2, 810534, Note_on_c, 0, 70, 0
2, 810578, Note_on_c, 0, 58, 0
2, 810584, Note_on_c, 0, 75, 0
2, 811444, Note_on_c, 0, 73, 103
2, 811468, Note_on_c, 0, 61, 81
2, 811712, Control_c, 0, 64, 127
2, 812092, Note_on_c, 0, 73, 0
2, 812100, Note_on_c, 0, 69, 91
2, 812103, Note_on_c, 0, 81, 122
2, 812116, Note_on_c, 0, 61, 0
2, 812296, Control_c, 0, 64, 0
2, 812526, Control_c, 0, 64, 127
2, 812556, Note_on_c, 0, 83, 127
2, 812564, Note_on_c, 0, 71, 120
2, 812604, Note_on_c, 0, 69, 0
2, 812640, Note_on_c, 0, 81, 0
2, 812804, Control_c, 0, 64, 0
2, 813048, Control_c, 0, 64, 127
2, 813152, Note_on_c, 0, 83, 0
2, 813154, Note_on_c, 0, 71, 0
2, 813176, Note_on_c, 0, 82, 115
2, 813188, Note_on_c, 0, 70, 90
2, 813228, Note_on_c, 0, 70, 0
2, 813294, Note_on_c, 0, 82, 0
2, 813574, Note_on_c, 0, 77, 119
2, 813576, Note_on_c, 0, 70, 85
2, 813596, Note_on_c, 0, 47, 93
2, 813732, Note_on_c, 0, 47, 0
2, 813842, Note_on_c, 0, 80, 107
2, 813894, Note_on_c, 0, 77, 0
2, 813910, Note_on_c, 0, 70, 0
2, 814018, Note_on_c, 0, 63, 77
2, 814020, Note_on_c, 0, 68, 88
2, 814040, Note_on_c, 0, 54, 57
2, 814040, Note_on_c, 0, 56, 58
2, 814058, Note_on_c, 0, 59, 58
2, 814154, Note_on_c, 0, 78, 100
2, 814190, Note_on_c, 0, 68, 0
2, 814193, Note_on_c, 0, 80, 0
2, 814214, Note_on_c, 0, 78, 0
2, 814284, Note_on_c, 0, 75, 105
2, 814296, Note_on_c, 0, 66, 91
2, 814486, Note_on_c, 0, 66, 0
2, 814508, Note_on_c, 0, 63, 0
2, 814514, Note_on_c, 0, 75, 0
2, 814534, Note_on_c, 0, 65, 111
2, 814752, Note_on_c, 0, 63, 97
2, 814752, Note_on_c, 0, 70, 103
2, 814760, Note_on_c, 0, 59, 0
2, 814818, Note_on_c, 0, 65, 0
2, 814908, Control_c, 0, 64, 0
2, 814958, Note_on_c, 0, 73, 97
2, 815038, Note_on_c, 0, 70, 0
2, 815076, Control_c, 0, 64, 127
2, 815112, Note_on_c, 0, 56, 0
2, 815118, Note_on_c, 0, 63, 0
2, 815130, Note_on_c, 0, 61, 92
2, 815244, Note_on_c, 0, 71, 115
2, 815318, Note_on_c, 0, 73, 0
2, 815344, Note_on_c, 0, 61, 0
2, 815392, Note_on_c, 0, 59, 83
2, 815398, Note_on_c, 0, 65, 110
2, 815400, Note_on_c, 0, 71, 0
2, 815466, Note_on_c, 0, 54, 0
2, 815610, Note_on_c, 0, 58, 87
2, 815616, Note_on_c, 0, 59, 0
2, 815620, Note_on_c, 0, 65, 0
2, 815710, Note_on_c, 0, 66, 88
2, 815766, Note_on_c, 0, 58, 0
2, 815822, Note_on_c, 0, 56, 100
2, 815862, Note_on_c, 0, 56, 0
2, 816166, Note_on_c, 0, 54, 105
2, 816166, Note_on_c, 0, 46, 106
2, 816172, Note_on_c, 0, 63, 96
2, 816174, Note_on_c, 0, 59, 85
2, 816214, Control_c, 0, 64, 0
2, 816232, Note_on_c, 0, 66, 0
2, 816364, Note_on_c, 0, 49, 100
2, 816424, Note_on_c, 0, 46, 0
2, 816674, Control_c, 0, 64, 127
2, 816684, Note_on_c, 0, 49, 0
2, 816684, Note_on_c, 0, 47, 93
2, 816810, Note_on_c, 0, 37, 102
2, 816812, Control_c, 0, 64, 0
2, 816868, Note_on_c, 0, 47, 0
2, 817166, Control_c, 0, 64, 127
2, 817626, Note_on_c, 0, 39, 88
2, 817674, Control_c, 0, 64, 0
2, 817690, Note_on_c, 0, 37, 0
2, 817888, Control_c, 0, 64, 127
2, 817924, Note_on_c, 0, 41, 92
2, 817940, Note_on_c, 0, 39, 0
2, 817980, Control_c, 0, 64, 0
2, 818020, Note_on_c, 0, 39, 74
2, 818046, Note_on_c, 0, 41, 0
2, 818304, Control_c, 0, 64, 127
2, 818384, Note_on_c, 0, 37, 61
2, 818406, Note_on_c, 0, 39, 0
2, 818566, Control_c, 0, 64, 0
2, 818780, Control_c, 0, 64, 127
2, 818834, Note_on_c, 0, 54, 0
2, 818893, Note_on_c, 0, 59, 0
2, 818936, Note_on_c, 0, 63, 0
2, 819242, Note_on_c, 0, 70, 39
2, 819326, Note_on_c, 0, 70, 0
2, 819374, Note_on_c, 0, 68, 45
2, 819458, Note_on_c, 0, 68, 0
2, 819758, Note_on_c, 0, 70, 44
2, 819856, Note_on_c, 0, 70, 0
2, 820530, Note_on_c, 0, 70, 39
2, 820626, Note_on_c, 0, 70, 0
2, 820670, Note_on_c, 0, 68, 36
2, 820756, Note_on_c, 0, 68, 0
2, 821084, Note_on_c, 0, 70, 54
2, 821100, Note_on_c, 0, 37, 0
2, 821140, Note_on_c, 0, 70, 0
2, 821582, Note_on_c, 0, 46, 85
2, 821585, Note_on_c, 0, 61, 67
2, 821588, Note_on_c, 0, 54, 70
2, 821600, Note_on_c, 0, 59, 70
2, 821792, Note_on_c, 0, 49, 89
2, 821808, Control_c, 0, 64, 0
2, 821818, Note_on_c, 0, 46, 0
2, 822052, Control_c, 0, 64, 127
2, 822122, Note_on_c, 0, 46, 67
2, 822132, Note_on_c, 0, 49, 0
2, 822298, Control_c, 0, 64, 0
2, 822300, Note_on_c, 0, 37, 73
2, 822378, Note_on_c, 0, 46, 0
2, 822514, Note_on_c, 0, 39, 76
2, 822552, Note_on_c, 0, 37, 0
2, 822898, Control_c, 0, 64, 127
2, 822958, Note_on_c, 0, 39, 0
2, 823000, Note_on_c, 0, 41, 64
2, 823144, Control_c, 0, 64, 0
2, 823206, Note_on_c, 0, 54, 0
2, 823209, Note_on_c, 0, 39, 60
2, 823218, Note_on_c, 0, 53, 80
2, 823220, Note_on_c, 0, 41, 0
2, 823742, Note_on_c, 0, 39, 0
2, 823754, Note_on_c, 0, 37, 59
2, 823958, Control_c, 0, 64, 127
2, 823978, Note_on_c, 0, 53, 0
2, 824060, Note_on_c, 0, 59, 0
2, 824110, Note_on_c, 0, 61, 0
2, 824676, Note_on_c, 0, 70, 38
2, 824776, Note_on_c, 0, 70, 0
2, 824844, Note_on_c, 0, 68, 42
2, 824922, Note_on_c, 0, 68, 0
2, 825324, Note_on_c, 0, 70, 42
2, 825372, Note_on_c, 0, 37, 0
2, 825460, Note_on_c, 0, 70, 0
2, 826224, Note_on_c, 0, 70, 41
2, 826328, Note_on_c, 0, 70, 0
2, 826402, Note_on_c, 0, 68, 37
2, 826480, Note_on_c, 0, 68, 0
2, 827062, Note_on_c, 0, 70, 34
2, 827170, Note_on_c, 0, 70, 0
2, 828082, Note_on_c, 0, 70, 51
2, 828184, Note_on_c, 0, 70, 0
2, 828256, Note_on_c, 0, 68, 44
2, 828364, Note_on_c, 0, 68, 0
2, 828384, Control_c, 0, 64, 0
2, 828646, Note_on_c, 0, 70, 50
2, 828716, Note_on_c, 0, 70, 0
2, 828824, Note_on_c, 0, 65, 45
2, 828894, Note_on_c, 0, 65, 0
2, 829254, Note_on_c, 0, 70, 38
2, 829322, Note_on_c, 0, 70, 0
2, 829636, Note_on_c, 0, 68, 49
2, 829766, Note_on_c, 0, 68, 0
2, 829786, Note_on_c, 0, 65, 35
2, 829882, Note_on_c, 0, 65, 0
2, 830112, Note_on_c, 0, 63, 49
2, 830178, Note_on_c, 0, 63, 0
2, 830252, Note_on_c, 0, 59, 54
2, 830306, Note_on_c, 0, 59, 0
2, 830554, Note_on_c, 0, 63, 62
2, 830602, Note_on_c, 0, 63, 0
2, 830840, Note_on_c, 0, 58, 73
2, 830848, Note_on_c, 0, 39, 69
2, 830848, Note_on_c, 0, 46, 42
2, 830890, Note_on_c, 0, 58, 0
2, 830894, Note_on_c, 0, 39, 0
2, 830924, Note_on_c, 0, 46, 0
2, 830960, Note_on_c, 0, 58, 51
2, 831104, Note_on_c, 0, 53, 74
2, 831114, Note_on_c, 0, 55, 52
2, 831152, Note_on_c, 0, 53, 0
2, 831172, Note_on_c, 0, 55, 0
2, 831194, Note_on_c, 0, 58, 0
2, 831246, Note_on_c, 0, 60, 58
2, 831306, Note_on_c, 0, 60, 0
2, 831344, Note_on_c, 0, 46, 58
2, 831346, Note_on_c, 0, 58, 61
2, 831349, Note_on_c, 0, 39, 72
2, 831394, Note_on_c, 0, 39, 0
2, 831406, Note_on_c, 0, 46, 0
2, 831568, Note_on_c, 0, 58, 0
2, 831600, Note_on_c, 0, 63, 88
2, 831614, Note_on_c, 0, 70, 80
2, 831620, Note_on_c, 0, 55, 83
2, 831642, Note_on_c, 0, 63, 0
2, 831645, Note_on_c, 0, 53, 58
2, 831664, Note_on_c, 0, 70, 0
2, 831666, Note_on_c, 0, 55, 0
2, 831710, Note_on_c, 0, 53, 0
2, 831868, Note_on_c, 0, 58, 69
2, 831876, Note_on_c, 0, 39, 65
2, 831886, Note_on_c, 0, 46, 31
2, 831926, Note_on_c, 0, 39, 0
2, 831960, Note_on_c, 0, 46, 0
2, 832156, Note_on_c, 0, 55, 60
2, 832162, Note_on_c, 0, 53, 75
2, 832212, Note_on_c, 0, 55, 0
2, 832214, Note_on_c, 0, 53, 0
2, 832400, Note_on_c, 0, 46, 67
2, 832402, Note_on_c, 0, 39, 75
2, 832446, Note_on_c, 0, 39, 0
2, 832458, Note_on_c, 0, 46, 0
2, 832656, Note_on_c, 0, 55, 85
2, 832666, Note_on_c, 0, 53, 82
2, 832700, Note_on_c, 0, 55, 0
2, 832716, Note_on_c, 0, 53, 0
2, 832754, Note_on_c, 0, 58, 0
2, 832912, Note_on_c, 0, 58, 92
2, 832924, Note_on_c, 0, 46, 72
2, 832932, Note_on_c, 0, 39, 73
2, 832974, Note_on_c, 0, 46, 0
2, 832976, Note_on_c, 0, 39, 0
2, 833026, Note_on_c, 0, 56, 90
2, 833050, Note_on_c, 0, 58, 0
2, 833168, Note_on_c, 0, 51, 64
2, 833184, Note_on_c, 0, 53, 67
2, 833202, Note_on_c, 0, 56, 0
2, 833222, Note_on_c, 0, 51, 0
2, 833242, Note_on_c, 0, 53, 0
2, 833280, Note_on_c, 0, 58, 64
2, 833388, Note_on_c, 0, 60, 96
2, 833402, Note_on_c, 0, 39, 83
2, 833404, Note_on_c, 0, 58, 0
2, 833404, Note_on_c, 0, 46, 72
2, 833434, Note_on_c, 0, 60, 0
2, 833444, Note_on_c, 0, 39, 0
2, 833454, Note_on_c, 0, 46, 0
2, 833644, Note_on_c, 0, 51, 90
2, 833645, Note_on_c, 0, 56, 90
2, 833646, Note_on_c, 0, 53, 81
2, 833686, Note_on_c, 0, 51, 0
2, 833697, Note_on_c, 0, 53, 0
2, 833709, Note_on_c, 0, 56, 0
2, 833910, Note_on_c, 0, 58, 106
2, 833913, Note_on_c, 0, 46, 96
2, 833924, Note_on_c, 0, 39, 88
2, 833960, Note_on_c, 0, 46, 0
2, 833968, Note_on_c, 0, 39, 0
2, 834022, Note_on_c, 0, 56, 99
2, 834096, Note_on_c, 0, 58, 0
2, 834148, Note_on_c, 0, 53, 107
2, 834160, Note_on_c, 0, 51, 89
2, 834190, Note_on_c, 0, 53, 0
2, 834216, Note_on_c, 0, 51, 0
2, 834224, Note_on_c, 0, 56, 0
2, 834272, Note_on_c, 0, 58, 85
2, 834386, Note_on_c, 0, 59, 106
2, 834414, Note_on_c, 0, 58, 0
2, 834416, Note_on_c, 0, 46, 61
2, 834428, Note_on_c, 0, 39, 56
2, 834470, Note_on_c, 0, 59, 0
2, 834476, Note_on_c, 0, 46, 0
2, 834484, Note_on_c, 0, 39, 0
2, 834636, Note_on_c, 0, 56, 102
2, 834642, Note_on_c, 0, 51, 82
2, 834644, Note_on_c, 0, 53, 107
2, 834686, Note_on_c, 0, 53, 0
2, 834688, Note_on_c, 0, 51, 0
2, 834712, Note_on_c, 0, 56, 0
2, 834910, Note_on_c, 0, 58, 125
2, 834913, Note_on_c, 0, 46, 123
2, 834996, Note_on_c, 0, 43, 125
2, 835006, Note_on_c, 0, 55, 127
2, 835018, Note_on_c, 0, 46, 0
2, 835068, Note_on_c, 0, 58, 0
2, 835070, Note_on_c, 0, 43, 0
2, 835082, Control_c, 0, 64, 127
2, 835086, Note_on_c, 0, 55, 0
2, 835236, Control_c, 0, 64, 0
2, 835290, Note_on_c, 0, 53, 127
2, 835298, Note_on_c, 0, 41, 126
2, 835374, Note_on_c, 0, 51, 127
2, 835384, Note_on_c, 0, 39, 127
2, 835418, Note_on_c, 0, 53, 0
2, 835421, Note_on_c, 0, 41, 0
2, 835462, Note_on_c, 0, 39, 0
2, 835470, Note_on_c, 0, 51, 0
2, 835650, Note_on_c, 0, 50, 127
2, 835656, Note_on_c, 0, 38, 127
2, 835726, Note_on_c, 0, 50, 0
2, 835754, Note_on_c, 0, 38, 0
2, 835898, Note_on_c, 0, 48, 127
2, 835906, Note_on_c, 0, 36, 127
2, 835986, Note_on_c, 0, 36, 0
2, 835996, Note_on_c, 0, 48, 0
2, 836154, Note_on_c, 0, 43, 127
2, 836157, Note_on_c, 0, 31, 127
2, 836260, Note_on_c, 0, 31, 0
2, 836286, Note_on_c, 0, 43, 0
2, 836404, Note_on_c, 0, 48, 123
2, 836410, Note_on_c, 0, 36, 127
2, 836506, Note_on_c, 0, 36, 0
2, 836518, Note_on_c, 0, 48, 0
2, 836650, Note_on_c, 0, 38, 127
2, 836654, Note_on_c, 0, 50, 127
2, 836716, Note_on_c, 0, 38, 0
2, 836722, Note_on_c, 0, 50, 0
2, 836956, Note_on_c, 0, 70, 125
2, 836962, Note_on_c, 0, 46, 125
2, 836962, Note_on_c, 0, 39, 127
2, 837018, Control_c, 0, 64, 127
2, 837036, Note_on_c, 0, 46, 0
2, 837072, Note_on_c, 0, 39, 0
2, 837086, Note_on_c, 0, 68, 108
2, 837168, Note_on_c, 0, 70, 0
2, 837206, Note_on_c, 0, 56, 121
2, 837216, Note_on_c, 0, 53, 127
2, 837218, Control_c, 0, 64, 0
2, 837226, Note_on_c, 0, 63, 116
2, 837228, Note_on_c, 0, 59, 120
2, 837256, Note_on_c, 0, 68, 0
2, 837290, Note_on_c, 0, 56, 0
2, 837300, Note_on_c, 0, 53, 0
2, 837342, Note_on_c, 0, 70, 105
2, 837356, Note_on_c, 0, 59, 0
2, 837390, Note_on_c, 0, 63, 0
2, 837456, Note_on_c, 0, 46, 127
2, 837459, Note_on_c, 0, 39, 127
2, 837459, Note_on_c, 0, 65, 120
2, 837500, Note_on_c, 0, 39, 0
2, 837502, Note_on_c, 0, 70, 0
2, 837504, Note_on_c, 0, 46, 0
2, 837540, Control_c, 0, 64, 127
2, 837544, Note_on_c, 0, 65, 0
2, 837586, Control_c, 0, 64, 0
2, 837720, Note_on_c, 0, 70, 122
2, 837724, Note_on_c, 0, 56, 123
2, 837725, Note_on_c, 0, 53, 127
2, 837725, Note_on_c, 0, 60, 49
2, 837726, Note_on_c, 0, 59, 123
2, 837727, Note_on_c, 0, 63, 113
2, 837791, Note_on_c, 0, 63, 0
2, 837794, Note_on_c, 0, 53, 0
2, 837797, Note_on_c, 0, 60, 0
2, 837800, Note_on_c, 0, 56, 0
2, 837826, Note_on_c, 0, 59, 0
2, 837860, Note_on_c, 0, 70, 0
2, 837940, Control_c, 0, 64, 127
2, 837970, Control_c, 0, 64, 0
2, 837984, Note_on_c, 0, 68, 125
2, 837987, Note_on_c, 0, 46, 121
2, 837992, Note_on_c, 0, 39, 119
2, 838038, Note_on_c, 0, 39, 0
2, 838046, Note_on_c, 0, 46, 0
2, 838098, Note_on_c, 0, 65, 118
2, 838170, Note_on_c, 0, 68, 0
2, 838220, Note_on_c, 0, 59, 103
2, 838223, Note_on_c, 0, 56, 113
2, 838224, Note_on_c, 0, 53, 127
2, 838260, Note_on_c, 0, 53, 0
2, 838290, Note_on_c, 0, 56, 0
2, 838328, Note_on_c, 0, 59, 0
2, 838370, Note_on_c, 0, 63, 116
2, 838418, Note_on_c, 0, 65, 0
2, 838470, Note_on_c, 0, 46, 123
2, 838473, Note_on_c, 0, 39, 127
2, 838473, Note_on_c, 0, 59, 122
2, 838540, Note_on_c, 0, 63, 0
2, 838552, Note_on_c, 0, 39, 0
2, 838572, Note_on_c, 0, 46, 0
2, 838582, Note_on_c, 0, 59, 0
2, 838726, Note_on_c, 0, 59, 126
2, 838728, Note_on_c, 0, 63, 127
2, 838728, Note_on_c, 0, 56, 125
2, 838731, Note_on_c, 0, 53, 127
2, 838810, Note_on_c, 0, 56, 0
2, 838823, Note_on_c, 0, 53, 0
2, 838846, Note_on_c, 0, 59, 0
2, 838906, Note_on_c, 0, 63, 0
2, 838990, Note_on_c, 0, 46, 115
2, 838994, Note_on_c, 0, 39, 118
2, 839006, Note_on_c, 0, 58, 113
2, 839034, Note_on_c, 0, 39, 0
2, 839048, Note_on_c, 0, 46, 0
2, 839106, Note_on_c, 0, 58, 0
2, 839124, Note_on_c, 0, 58, 81
2, 839242, Note_on_c, 0, 55, 122
2, 839246, Note_on_c, 0, 53, 127
2, 839288, Note_on_c, 0, 53, 0
2, 839310, Note_on_c, 0, 55, 0
2, 839332, Note_on_c, 0, 58, 0
2, 839374, Note_on_c, 0, 60, 106
2, 839480, Note_on_c, 0, 58, 107
2, 839482, Note_on_c, 0, 60, 0
2, 839494, Note_on_c, 0, 46, 108
2, 839500, Note_on_c, 0, 39, 115
2, 839542, Note_on_c, 0, 39, 0
2, 839558, Note_on_c, 0, 46, 0
2, 839734, Note_on_c, 0, 63, 115
2, 839737, Note_on_c, 0, 70, 115
2, 839746, Note_on_c, 0, 55, 126
2, 839752, Note_on_c, 0, 53, 127
2, 839758, Note_on_c, 0, 58, 0
2, 839784, Note_on_c, 0, 53, 0
2, 839788, Note_on_c, 0, 55, 0
2, 839830, Control_c, 0, 64, 127
2, 839842, Note_on_c, 0, 63, 0
2, 839856, Note_on_c, 0, 70, 0
2, 839992, Note_on_c, 0, 58, 115
2, 840000, Control_c, 0, 64, 0
2, 840002, Note_on_c, 0, 46, 107
2, 840006, Note_on_c, 0, 39, 111
2, 840062, Note_on_c, 0, 39, 0
2, 840065, Note_on_c, 0, 46, 0
2, 840254, Note_on_c, 0, 55, 115
2, 840264, Note_on_c, 0, 53, 126
2, 840296, Note_on_c, 0, 55, 0
2, 840298, Note_on_c, 0, 53, 0
2, 840508, Note_on_c, 0, 46, 103
2, 840518, Note_on_c, 0, 39, 99
2, 840560, Note_on_c, 0, 39, 0
2, 840572, Note_on_c, 0, 46, 0
2, 840644, Control_c, 0, 64, 127
2, 840674, Control_c, 0, 64, 0
2, 840758, Note_on_c, 0, 55, 111
2, 840764, Note_on_c, 0, 53, 127
2, 840800, Note_on_c, 0, 53, 0
2, 840804, Note_on_c, 0, 55, 0
2, 840810, Note_on_c, 0, 58, 0
2, 841026, Note_on_c, 0, 42, 91
2, 841028, Note_on_c, 0, 49, 92
2, 841038, Note_on_c, 0, 58, 100
2, 841068, Note_on_c, 0, 49, 0
2, 841070, Note_on_c, 0, 42, 0
2, 841080, Note_on_c, 0, 58, 0
2, 841138, Note_on_c, 0, 58, 83
2, 841270, Note_on_c, 0, 56, 96
2, 841302, Note_on_c, 0, 54, 85
2, 841305, Note_on_c, 0, 58, 0
2, 841308, Note_on_c, 0, 49, 69
2, 841320, Note_on_c, 0, 56, 0
2, 841348, Note_on_c, 0, 54, 0
2, 841366, Note_on_c, 0, 49, 0
2, 841412, Note_on_c, 0, 60, 81
2, 841476, Note_on_c, 0, 60, 0
2, 841502, Note_on_c, 0, 58, 83
2, 841520, Note_on_c, 0, 42, 105
2, 841526, Note_on_c, 0, 49, 93
2, 841566, Note_on_c, 0, 49, 0
2, 841566, Note_on_c, 0, 42, 0
2, 841616, Note_on_c, 0, 58, 0
2, 841760, Note_on_c, 0, 61, 108
2, 841770, Note_on_c, 0, 57, 103
2, 841774, Note_on_c, 0, 54, 108
2, 841782, Note_on_c, 0, 49, 88
2, 841810, Note_on_c, 0, 57, 0
2, 841826, Note_on_c, 0, 54, 0
2, 841850, Note_on_c, 0, 49, 0
2, 841886, Note_on_c, 0, 61, 0
2, 842014, Note_on_c, 0, 63, 118
2, 842018, Note_on_c, 0, 49, 112
2, 842020, Note_on_c, 0, 42, 96
2, 842054, Note_on_c, 0, 49, 0
2, 842058, Note_on_c, 0, 42, 0
2, 842148, Note_on_c, 0, 63, 0
2, 842262, Note_on_c, 0, 65, 125
2, 842262, Note_on_c, 0, 58, 105
2, 842270, Note_on_c, 0, 54, 115
2, 842276, Note_on_c, 0, 49, 90
2, 842306, Note_on_c, 0, 58, 0
2, 842354, Note_on_c, 0, 49, 0
2, 842370, Note_on_c, 0, 65, 0
2, 842378, Note_on_c, 0, 54, 0
2, 842504, Note_on_c, 0, 63, 127
2, 842510, Note_on_c, 0, 42, 115
2, 842516, Note_on_c, 0, 49, 115
2, 842544, Note_on_c, 0, 42, 0
2, 842556, Note_on_c, 0, 49, 0
2, 842640, Note_on_c, 0, 63, 0
2, 842742, Note_on_c, 0, 66, 125
2, 842762, Note_on_c, 0, 54, 111
2, 842764, Note_on_c, 0, 59, 118
2, 842766, Note_on_c, 0, 49, 105
2, 842808, Note_on_c, 0, 49, 0
2, 842812, Note_on_c, 0, 54, 0
2, 842856, Note_on_c, 0, 59, 0
2, 842864, Note_on_c, 0, 66, 0
2, 843000, Note_on_c, 0, 65, 127
2, 843056, Control_c, 0, 64, 127
2, 843090, Note_on_c, 0, 65, 0
2, 843126, Note_on_c, 0, 65, 127
2, 843266, Note_on_c, 0, 65, 0
2, 843272, Note_on_c, 0, 64, 110
2, 843274, Note_on_c, 0, 61, 113
2, 843334, Note_on_c, 0, 64, 0
2, 843370, Note_on_c, 0, 67, 125
2, 843386, Note_on_c, 0, 61, 0
2, 843478, Note_on_c, 0, 65, 127
2, 843490, Note_on_c, 0, 67, 0
2, 843490, Note_on_c, 0, 63, 119
2, 843493, Note_on_c, 0, 60, 106
2, 843580, Control_c, 0, 64, 0
2, 843592, Note_on_c, 0, 63, 0
2, 843606, Note_on_c, 0, 65, 0
2, 843614, Note_on_c, 0, 60, 0
2, 843640, Control_c, 0, 64, 127
2, 843730, Note_on_c, 0, 67, 126
2, 843736, Note_on_c, 0, 53, 121
2, 843739, Note_on_c, 0, 57, 96
2, 843746, Note_on_c, 0, 63, 119
2, 843754, Note_on_c, 0, 74, 127
2, 843780, Control_c, 0, 64, 0
2, 843812, Note_on_c, 0, 67, 0
2, 843824, Note_on_c, 0, 57, 0
2, 843834, Note_on_c, 0, 63, 0
2, 843842, Note_on_c, 0, 53, 0
2, 843864, Note_on_c, 0, 74, 0
2, 844031, Note_on_c, 0, 62, 127
2, 844032, Note_on_c, 0, 58, 113
2, 844034, Note_on_c, 0, 70, 127
2, 844034, Note_on_c, 0, 53, 127
2, 844037, Note_on_c, 0, 46, 88
2, 844069, Note_on_c, 0, 62, 0
2, 844078, Note_on_c, 0, 53, 0
2, 844086, Control_c, 0, 64, 127
2, 844088, Note_on_c, 0, 46, 0
2, 844126, Note_on_c, 0, 58, 0
2, 844142, Note_on_c, 0, 70, 0
2, 844642, Note_on_c, 0, 34, 121
2, 844642, Note_on_c, 0, 82, 122
2, 844642, Note_on_c, 0, 94, 125
2, 844645, Note_on_c, 0, 46, 122
2, 844684, Note_on_c, 0, 94, 0
2, 844684, Note_on_c, 0, 34, 0
2, 844714, Note_on_c, 0, 82, 0
2, 844724, Note_on_c, 0, 46, 0
2, 844946, Control_c, 0, 64, 0
2, 845164, Note_on_c, 0, 63, 90
2, 845174, Note_on_c, 0, 60, 77
2, 845174, Note_on_c, 0, 56, 105
2, 845174, Note_on_c, 0, 58, 72
2, 845220, Note_on_c, 0, 56, 0
2, 845224, Note_on_c, 0, 58, 0
2, 845246, Note_on_c, 0, 60, 0
2, 845302, Note_on_c, 0, 62, 84
2, 845306, Note_on_c, 0, 65, 75
2, 845318, Note_on_c, 0, 63, 0
2, 845368, Note_on_c, 0, 62, 0
2, 845418, Note_on_c, 0, 70, 74
2, 845426, Note_on_c, 0, 68, 68
2, 845458, Note_on_c, 0, 65, 0
2, 845466, Note_on_c, 0, 70, 0
2, 845478, Note_on_c, 0, 68, 0
2, 845556, Note_on_c, 0, 63, 46
2, 845562, Note_on_c, 0, 67, 60
2, 845634, Note_on_c, 0, 67, 0
2, 845640, Note_on_c, 0, 63, 0
2, 845656, Note_on_c, 0, 58, 65
2, 845656, Note_on_c, 0, 62, 80
2, 845658, Note_on_c, 0, 56, 64
2, 845658, Note_on_c, 0, 65, 66
2, 845708, Note_on_c, 0, 62, 0
2, 845710, Note_on_c, 0, 58, 0
2, 845712, Note_on_c, 0, 56, 0
2, 845746, Note_on_c, 0, 65, 0
2, 845910, Note_on_c, 0, 63, 79
2, 845910, Note_on_c, 0, 70, 50
2, 845920, Note_on_c, 0, 68, 44
2, 845922, Note_on_c, 0, 60, 62
2, 845968, Note_on_c, 0, 63, 0
2, 845972, Note_on_c, 0, 70, 0
2, 845982, Note_on_c, 0, 60, 0
2, 845986, Note_on_c, 0, 68, 0
2, 846194, Note_on_c, 0, 65, 83
2, 846200, Note_on_c, 0, 62, 82
2, 846202, Note_on_c, 0, 56, 59
2, 846210, Note_on_c, 0, 58, 46
2, 846252, Control_c, 0, 64, 127
2, 846254, Note_on_c, 0, 62, 0
2, 846258, Note_on_c, 0, 56, 0
2, 846276, Note_on_c, 0, 58, 0
2, 846316, Note_on_c, 0, 65, 0
2, 846466, Note_on_c, 0, 68, 50
2, 846472, Note_on_c, 0, 70, 34
2, 846524, Note_on_c, 0, 68, 0
2, 846544, Note_on_c, 0, 70, 0
2, 846736, Note_on_c, 0, 94, 84
2, 846744, Note_on_c, 0, 82, 61
2, 846744, Note_on_c, 0, 56, 42
2, 846747, Note_on_c, 0, 58, 36
2, 846774, Note_on_c, 0, 94, 0
2, 846798, Note_on_c, 0, 82, 0
2, 846808, Note_on_c, 0, 56, 0
2, 846816, Note_on_c, 0, 58, 0
2, 846990, Note_on_c, 0, 70, 58
2, 846994, Note_on_c, 0, 68, 64
2, 847044, Note_on_c, 0, 68, 0
2, 847044, Note_on_c, 0, 70, 0
2, 847190, Control_c, 0, 64, 0
2, 847238, Note_on_c, 0, 55, 102
2, 847240, Note_on_c, 0, 63, 98
2, 847240, Note_on_c, 0, 60, 88
2, 847242, Note_on_c, 0, 58, 81
2, 847278, Note_on_c, 0, 55, 0
2, 847302, Note_on_c, 0, 58, 0
2, 847326, Note_on_c, 0, 60, 0
2, 847342, Note_on_c, 0, 65, 92
2, 847344, Note_on_c, 0, 62, 95
2, 847398, Note_on_c, 0, 63, 0
2, 847450, Control_c, 0, 64, 127
2, 847470, Note_on_c, 0, 70, 79
2, 847486, Note_on_c, 0, 67, 67
2, 847500, Note_on_c, 0, 62, 0
2, 847522, Note_on_c, 0, 70, 0
2, 847534, Note_on_c, 0, 65, 0
2, 847540, Note_on_c, 0, 67, 0
2, 847574, Control_c, 0, 64, 0
2, 847602, Note_on_c, 0, 67, 79
2, 847610, Note_on_c, 0, 63, 72
2, 847700, Note_on_c, 0, 63, 0
2, 847702, Note_on_c, 0, 62, 91
2, 847708, Note_on_c, 0, 65, 80
2, 847722, Note_on_c, 0, 55, 99
2, 847725, Note_on_c, 0, 58, 72
2, 847742, Note_on_c, 0, 67, 0
2, 847762, Note_on_c, 0, 55, 0
2, 847778, Note_on_c, 0, 58, 0
2, 847794, Note_on_c, 0, 62, 0
2, 847834, Note_on_c, 0, 65, 0
2, 847956, Note_on_c, 0, 70, 79
2, 847962, Note_on_c, 0, 63, 92
2, 847964, Note_on_c, 0, 60, 81
2, 847980, Note_on_c, 0, 67, 67
2, 848008, Note_on_c, 0, 70, 0
2, 848032, Note_on_c, 0, 67, 0
2, 848046, Note_on_c, 0, 60, 0
2, 848080, Note_on_c, 0, 63, 0
2, 848206, Note_on_c, 0, 65, 97
2, 848210, Note_on_c, 0, 55, 102
2, 848210, Note_on_c, 0, 62, 100
2, 848212, Note_on_c, 0, 58, 79
2, 848250, Note_on_c, 0, 55, 0
2, 848266, Note_on_c, 0, 58, 0
2, 848316, Note_on_c, 0, 62, 0
2, 848322, Note_on_c, 0, 65, 0
2, 848448, Note_on_c, 0, 70, 99
2, 848448, Note_on_c, 0, 60, 111
2, 848454, Note_on_c, 0, 63, 112
2, 848468, Note_on_c, 0, 67, 80
2, 848502, Note_on_c, 0, 70, 0
2, 848514, Note_on_c, 0, 67, 0
2, 848662, Note_on_c, 0, 63, 0
2, 848670, Note_on_c, 0, 60, 0
2, 848701, Note_on_c, 0, 65, 115
2, 848706, Note_on_c, 0, 58, 99
2, 848707, Note_on_c, 0, 55, 84
2, 848708, Note_on_c, 0, 62, 111
2, 848744, Note_on_c, 0, 62, 0
2, 848755, Note_on_c, 0, 55, 0
2, 848786, Note_on_c, 0, 58, 0
2, 848814, Note_on_c, 0, 65, 0
2, 848834, Control_c, 0, 64, 127
2, 848942, Note_on_c, 0, 72, 113
2, 848945, Note_on_c, 0, 70, 93
2, 848947, Note_on_c, 0, 67, 100
2, 848947, Note_on_c, 0, 63, 100
2, 848976, Note_on_c, 0, 72, 0
2, 848983, Note_on_c, 0, 63, 0
2, 848986, Note_on_c, 0, 70, 0
2, 848987, Note_on_c, 0, 67, 0
2, 848988, Control_c, 0, 64, 0
2, 849252, Note_on_c, 0, 64, 103
2, 849254, Note_on_c, 0, 57, 88
2, 849255, Note_on_c, 0, 61, 83
2, 849270, Note_on_c, 0, 47, 54
2, 849328, Note_on_c, 0, 47, 0
2, 849342, Control_c, 0, 64, 127
2, 849370, Note_on_c, 0, 49, 99
2, 849416, Note_on_c, 0, 49, 0
2, 849540, Control_c, 0, 64, 0
2, 849662, Note_on_c, 0, 51, 87
2, 849710, Note_on_c, 0, 51, 0
2, 849760, Note_on_c, 0, 49, 103
2, 849840, Note_on_c, 0, 49, 0
2, 850042, Note_on_c, 0, 47, 82
2, 850086, Note_on_c, 0, 47, 0
2, 850126, Note_on_c, 0, 57, 0
2, 850308, Note_on_c, 0, 46, 68
2, 850310, Note_on_c, 0, 56, 62
2, 850316, Note_on_c, 0, 65, 70
2, 850316, Note_on_c, 0, 60, 70
2, 850414, Note_on_c, 0, 48, 66
2, 850421, Note_on_c, 0, 61, 0
2, 850462, Note_on_c, 0, 64, 0
2, 850474, Note_on_c, 0, 46, 0
2, 850536, Note_on_c, 0, 48, 0
2, 850570, Control_c, 0, 64, 127
2, 850646, Control_c, 0, 64, 0
2, 850716, Note_on_c, 0, 50, 82
2, 850806, Note_on_c, 0, 50, 0
2, 850830, Note_on_c, 0, 48, 73
2, 850886, Note_on_c, 0, 48, 0
2, 851016, Control_c, 0, 64, 127
2, 851042, Note_on_c, 0, 60, 0
2, 851086, Note_on_c, 0, 65, 0
2, 851120, Note_on_c, 0, 46, 47
2, 851190, Note_on_c, 0, 46, 0
2, 851198, Note_on_c, 0, 56, 0
2, 851387, Note_on_c, 0, 55, 60
2, 851388, Note_on_c, 0, 58, 59
2, 851390, Note_on_c, 0, 53, 103
2, 851394, Note_on_c, 0, 46, 60
2, 851430, Control_c, 0, 64, 0
2, 851482, Note_on_c, 0, 46, 0
2, 851510, Note_on_c, 0, 48, 66
2, 851578, Note_on_c, 0, 48, 0
2, 851786, Note_on_c, 0, 50, 75
2, 851860, Note_on_c, 0, 50, 0
2, 851904, Note_on_c, 0, 48, 61
2, 851964, Note_on_c, 0, 48, 0
2, 852180, Note_on_c, 0, 46, 53
2, 852240, Note_on_c, 0, 46, 0
2, 852486, Note_on_c, 0, 53, 0
2, 852520, Control_c, 0, 64, 127
2, 852584, Note_on_c, 0, 51, 62
2, 852589, Note_on_c, 0, 55, 0
2, 852594, Note_on_c, 0, 58, 0
2, 852660, Note_on_c, 0, 51, 0
2, 852748, Note_on_c, 0, 46, 104
2, 852751, Note_on_c, 0, 34, 74
2, 852856, Note_on_c, 0, 36, 107
2, 852858, Note_on_c, 0, 48, 99
2, 852860, Note_on_c, 0, 46, 0
2, 852899, Note_on_c, 0, 34, 0
2, 852942, Note_on_c, 0, 38, 121
2, 852944, Note_on_c, 0, 50, 121
2, 852980, Note_on_c, 0, 36, 0
2, 853008, Note_on_c, 0, 48, 0
2, 853042, Note_on_c, 0, 38, 0
2, 853066, Note_on_c, 0, 48, 127
2, 853072, Note_on_c, 0, 36, 122
2, 853142, Note_on_c, 0, 36, 0
2, 853142, Note_on_c, 0, 50, 0
2, 853282, Note_on_c, 0, 48, 0
2, 853306, Note_on_c, 0, 34, 127
2, 853309, Note_on_c, 0, 22, 127
2, 853340, Note_on_c, 0, 32, 59
2, 853400, Note_on_c, 0, 32, 0
2, 853412, Note_on_c, 0, 34, 0
2, 853414, Note_on_c, 0, 22, 0
2, 853504, Control_c, 0, 64, 0
2, 853720, Note_on_c, 0, 63, 93
2, 853720, Note_on_c, 0, 56, 81
2, 853720, Note_on_c, 0, 58, 74
2, 853723, Note_on_c, 0, 60, 81
2, 853810, Note_on_c, 0, 58, 0
2, 853810, Note_on_c, 0, 56, 0
2, 853842, Note_on_c, 0, 60, 0
2, 853868, Note_on_c, 0, 62, 77
2, 853870, Note_on_c, 0, 65, 74
2, 853886, Note_on_c, 0, 63, 0
2, 853960, Note_on_c, 0, 62, 0
2, 853996, Note_on_c, 0, 70, 64
2, 854004, Note_on_c, 0, 68, 41
2, 854048, Note_on_c, 0, 65, 0
2, 854066, Note_on_c, 0, 70, 0
2, 854070, Note_on_c, 0, 68, 0
2, 854134, Note_on_c, 0, 63, 47
2, 854142, Note_on_c, 0, 67, 57
2, 854208, Note_on_c, 0, 63, 0
2, 854222, Note_on_c, 0, 67, 0
2, 854228, Note_on_c, 0, 62, 80
2, 854230, Note_on_c, 0, 65, 67
2, 854232, Note_on_c, 0, 56, 64
2, 854232, Note_on_c, 0, 58, 60
2, 854280, Note_on_c, 0, 65, 0
2, 854280, Note_on_c, 0, 62, 0
2, 854286, Note_on_c, 0, 56, 0
2, 854296, Note_on_c, 0, 58, 0
2, 854485, Note_on_c, 0, 70, 56
2, 854490, Note_on_c, 0, 63, 77
2, 854491, Note_on_c, 0, 60, 62
2, 854540, Note_on_c, 0, 63, 0
2, 854543, Note_on_c, 0, 70, 0
2, 854551, Note_on_c, 0, 60, 0
2, 854767, Note_on_c, 0, 65, 69
2, 854768, Note_on_c, 0, 56, 58
2, 854770, Note_on_c, 0, 62, 69
2, 854771, Note_on_c, 0, 58, 45
2, 854822, Note_on_c, 0, 62, 0
2, 854834, Note_on_c, 0, 56, 0
2, 854839, Note_on_c, 0, 58, 0
2, 854856, Control_c, 0, 64, 127
2, 854893, Note_on_c, 0, 65, 0
2, 855042, Note_on_c, 0, 70, 39
2, 855054, Note_on_c, 0, 68, 34
2, 855108, Note_on_c, 0, 70, 0
2, 855124, Note_on_c, 0, 68, 0
2, 855312, Note_on_c, 0, 94, 84
2, 855312, Note_on_c, 0, 82, 54
2, 855313, Note_on_c, 0, 56, 43
2, 855313, Note_on_c, 0, 58, 34
2, 855350, Note_on_c, 0, 94, 0
2, 855372, Note_on_c, 0, 82, 0
2, 855377, Note_on_c, 0, 56, 0
2, 855385, Note_on_c, 0, 58, 0
2, 855556, Note_on_c, 0, 68, 73
2, 855570, Note_on_c, 0, 70, 51
2, 855616, Note_on_c, 0, 68, 0
2, 855626, Note_on_c, 0, 70, 0
2, 855762, Control_c, 0, 64, 0
2, 855810, Note_on_c, 0, 63, 98
2, 855810, Note_on_c, 0, 55, 105
2, 855816, Note_on_c, 0, 60, 89
2, 855820, Note_on_c, 0, 58, 70
2, 855854, Note_on_c, 0, 55, 0
2, 855886, Note_on_c, 0, 58, 0
2, 855922, Note_on_c, 0, 62, 96
2, 855925, Note_on_c, 0, 65, 92
2, 855946, Note_on_c, 0, 60, 0
2, 855978, Control_c, 0, 64, 127
2, 855980, Note_on_c, 0, 63, 0
2, 856040, Control_c, 0, 64, 0
2, 856052, Note_on_c, 0, 70, 89
2, 856056, Note_on_c, 0, 62, 0
2, 856070, Note_on_c, 0, 67, 79
2, 856106, Note_on_c, 0, 70, 0
2, 856116, Note_on_c, 0, 67, 0
2, 856152, Note_on_c, 0, 65, 0
2, 856194, Note_on_c, 0, 67, 57
2, 856204, Note_on_c, 0, 63, 74
2, 856270, Note_on_c, 0, 63, 0
2, 856304, Note_on_c, 0, 62, 95
2, 856304, Note_on_c, 0, 65, 89
2, 856310, Note_on_c, 0, 55, 112
2, 856346, Note_on_c, 0, 55, 0
2, 856352, Note_on_c, 0, 67, 0
2, 856378, Note_on_c, 0, 62, 0
2, 856434, Note_on_c, 0, 65, 0
2, 856552, Note_on_c, 0, 70, 83
2, 856555, Note_on_c, 0, 60, 83
2, 856556, Note_on_c, 0, 67, 65
2, 856557, Note_on_c, 0, 63, 98
2, 856604, Note_on_c, 0, 70, 0
2, 856612, Note_on_c, 0, 67, 0
2, 856649, Note_on_c, 0, 60, 0
2, 856663, Note_on_c, 0, 63, 0
2, 856801, Note_on_c, 0, 62, 91
2, 856801, Note_on_c, 0, 65, 92
2, 856803, Note_on_c, 0, 58, 53
2, 856806, Note_on_c, 0, 55, 104
2, 856848, Note_on_c, 0, 55, 0
2, 856873, Note_on_c, 0, 58, 0
2, 856906, Note_on_c, 0, 62, 0
2, 856918, Note_on_c, 0, 65, 0
2, 857052, Note_on_c, 0, 70, 96
2, 857056, Note_on_c, 0, 67, 77
2, 857058, Note_on_c, 0, 63, 108
2, 857060, Note_on_c, 0, 60, 105
2, 857104, Note_on_c, 0, 70, 0
2, 857106, Note_on_c, 0, 67, 0
2, 857260, Note_on_c, 0, 60, 0
2, 857284, Note_on_c, 0, 63, 0
2, 857304, Note_on_c, 0, 65, 118
2, 857305, Note_on_c, 0, 62, 110
2, 857305, Note_on_c, 0, 55, 110
2, 857306, Note_on_c, 0, 58, 98
2, 857339, Note_on_c, 0, 62, 0
2, 857342, Note_on_c, 0, 55, 0
2, 857344, Control_c, 0, 64, 127
2, 857392, Note_on_c, 0, 58, 0
2, 857416, Note_on_c, 0, 65, 0
2, 857544, Note_on_c, 0, 72, 123
2, 857548, Note_on_c, 0, 70, 91
2, 857549, Note_on_c, 0, 63, 112
2, 857550, Note_on_c, 0, 69, 50
2, 857552, Note_on_c, 0, 67, 66
2, 857592, Note_on_c, 0, 70, 0
2, 857600, Note_on_c, 0, 63, 0
2, 857614, Note_on_c, 0, 67, 0
2, 857630, Note_on_c, 0, 69, 0
2, 857658, Note_on_c, 0, 72, 0
2, 857730, Control_c, 0, 64, 0
2, 857888, Note_on_c, 0, 82, 125
2, 857888, Note_on_c, 0, 71, 127
2, 857888, Note_on_c, 0, 75, 119
2, 857890, Note_on_c, 0, 70, 110
2, 857894, Note_on_c, 0, 63, 107
2, 857898, Note_on_c, 0, 59, 102
2, 858004, Note_on_c, 0, 80, 108
2, 858007, Note_on_c, 0, 68, 100
2, 858018, Note_on_c, 0, 70, 0
2, 858038, Control_c, 0, 64, 127
2, 858080, Note_on_c, 0, 82, 0
2, 858166, Note_on_c, 0, 80, 0
2, 858206, Control_c, 0, 64, 0
2, 858280, Note_on_c, 0, 82, 100
2, 858298, Note_on_c, 0, 70, 98
2, 858354, Note_on_c, 0, 68, 0
2, 858362, Note_on_c, 0, 77, 118
2, 858384, Note_on_c, 0, 70, 0
2, 858384, Note_on_c, 0, 65, 95
2, 858408, Note_on_c, 0, 82, 0
2, 858452, Control_c, 0, 64, 127
2, 858472, Note_on_c, 0, 63, 0
2, 858504, Note_on_c, 0, 77, 0
2, 858514, Control_c, 0, 64, 0
2, 858534, Note_on_c, 0, 65, 0
2, 858634, Note_on_c, 0, 82, 120
2, 858634, Note_on_c, 0, 70, 114
2, 858672, Note_on_c, 0, 70, 0
2, 858744, Control_c, 0, 64, 127
2, 858784, Note_on_c, 0, 82, 0
2, 858852, Control_c, 0, 64, 0
2, 858914, Note_on_c, 0, 68, 120
2, 858918, Note_on_c, 0, 80, 114
2, 858990, Note_on_c, 0, 65, 105
2, 858992, Note_on_c, 0, 77, 110
2, 859003, Note_on_c, 0, 75, 0
2, 859032, Note_on_c, 0, 68, 0
2, 859046, Note_on_c, 0, 59, 0
2, 859051, Note_on_c, 0, 71, 0
2, 859086, Note_on_c, 0, 80, 0
2, 859114, Control_c, 0, 64, 127
2, 859170, Note_on_c, 0, 77, 0
2, 859240, Note_on_c, 0, 65, 0
2, 859274, Note_on_c, 0, 63, 92
2, 859284, Note_on_c, 0, 75, 93
2, 859312, Control_c, 0, 64, 0
2, 859324, Note_on_c, 0, 63, 0
2, 859358, Note_on_c, 0, 71, 127
2, 859368, Note_on_c, 0, 59, 127
2, 859400, Note_on_c, 0, 75, 0
2, 859452, Note_on_c, 0, 59, 0
2, 859482, Control_c, 0, 64, 127
2, 859520, Note_on_c, 0, 71, 0
2, 860066, Control_c, 0, 64, 0
2, 860080, Note_on_c, 0, 68, 89
2, 860090, Note_on_c, 0, 56, 108
2, 860174, Note_on_c, 0, 53, 127
2, 860176, Note_on_c, 0, 65, 103
2, 860208, Note_on_c, 0, 56, 0
2, 860246, Note_on_c, 0, 68, 0
2, 860272, Note_on_c, 0, 63, 112
2, 860272, Note_on_c, 0, 51, 105
2, 860308, Note_on_c, 0, 65, 0
2, 860311, Note_on_c, 0, 53, 0
2, 860370, Note_on_c, 0, 47, 121
2, 860378, Note_on_c, 0, 59, 127
2, 860414, Note_on_c, 0, 51, 0
2, 860420, Control_c, 0, 64, 127
2, 860432, Note_on_c, 0, 63, 0
2, 860440, Note_on_c, 0, 47, 0
2, 860486, Note_on_c, 0, 59, 0
2, 860630, Note_on_c, 0, 55, 127
2, 860634, Note_on_c, 0, 46, 127
2, 860634, Note_on_c, 0, 50, 127
2, 860642, Note_on_c, 0, 34, 126
2, 860744, Note_on_c, 0, 34, 0
2, 860744, Note_on_c, 0, 46, 0
2, 860772, Control_c, 0, 64, 0
2, 860774, Note_on_c, 0, 50, 0
2, 860806, Note_on_c, 0, 55, 0
2, 861394, Note_on_c, 0, 51, 100
2, 861394, Note_on_c, 0, 58, 84
2, 861397, Note_on_c, 0, 55, 106
2, 861400, Note_on_c, 0, 53, 126
2, 861432, Note_on_c, 0, 53, 0
2, 861438, Note_on_c, 0, 55, 0
2, 861464, Note_on_c, 0, 51, 0
2, 861484, Note_on_c, 0, 58, 0
2, 861662, Note_on_c, 0, 46, 88
2, 861664, Note_on_c, 0, 39, 93
2, 861700, Note_on_c, 0, 39, 0
2, 861706, Note_on_c, 0, 46, 0
2, 861904, Note_on_c, 0, 55, 113
2, 861904, Note_on_c, 0, 58, 80
2, 861906, Note_on_c, 0, 51, 83
2, 861907, Note_on_c, 0, 53, 119
2, 861943, Note_on_c, 0, 53, 0
2, 861962, Note_on_c, 0, 55, 0
2, 861966, Note_on_c, 0, 51, 0
2, 862029, Note_on_c, 0, 58, 0
2, 862180, Note_on_c, 0, 46, 103
2, 862180, Note_on_c, 0, 39, 96
2, 862217, Note_on_c, 0, 39, 0
2, 862224, Note_on_c, 0, 46, 0
2, 862262, Control_c, 0, 64, 127
2, 862448, Control_c, 0, 64, 0
2, 863354, Note_on_c, 0, 58, 65
2, 863360, Note_on_c, 0, 55, 82
2, 863361, Note_on_c, 0, 51, 60
2, 863362, Note_on_c, 0, 53, 92
2, 863406, Note_on_c, 0, 53, 0
2, 863408, Note_on_c, 0, 55, 0
2, 863415, Note_on_c, 0, 51, 0
2, 863428, Note_on_c, 0, 58, 0
2, 863618, Note_on_c, 0, 39, 76
2, 863620, Note_on_c, 0, 46, 73
2, 863662, Note_on_c, 0, 39, 0
2, 863672, Note_on_c, 0, 46, 0
2, 863874, Note_on_c, 0, 58, 62
2, 863876, Note_on_c, 0, 51, 58
2, 863877, Note_on_c, 0, 55, 96
2, 863878, Note_on_c, 0, 53, 97
2, 863920, Note_on_c, 0, 53, 0
2, 863920, Note_on_c, 0, 55, 0
2, 863932, Note_on_c, 0, 51, 0
2, 863956, Note_on_c, 0, 58, 0
2, 864172, Note_on_c, 0, 46, 60
2, 864173, Note_on_c, 0, 39, 64
2, 864316, Note_on_c, 0, 46, 0
2, 864321, Note_on_c, 0, 39, 0
2, 864398, Control_c, 0, 64, 127
2, 864444, Control_c, 0, 64, 0
2, 865294, Note_on_c, 0, 58, 43
2, 865298, Note_on_c, 0, 55, 43
2, 865301, Note_on_c, 0, 53, 47
2, 865304, Note_on_c, 0, 51, 38
2, 865359, Note_on_c, 0, 53, 0
2, 865364, Note_on_c, 0, 55, 0
2, 865376, Note_on_c, 0, 51, 0
2, 865406, Note_on_c, 0, 58, 0
2, 865444, Control_c, 0, 64, 127
2, 865536, Control_c, 0, 64, 0
2, 865594, Note_on_c, 0, 39, 59
2, 865594, Note_on_c, 0, 46, 51
2, 865666, Note_on_c, 0, 46, 0
2, 865682, Note_on_c, 0, 39, 0
2, 865869, Note_on_c, 0, 58, 24
2, 865874, Note_on_c, 0, 55, 28
2, 865878, Note_on_c, 0, 51, 43
2, 865878, Note_on_c, 0, 53, 62
2, 865936, Note_on_c, 0, 53, 0
2, 865944, Note_on_c, 0, 51, 0
2, 865948, Note_on_c, 0, 55, 0
2, 866025, Note_on_c, 0, 58, 0
2, 867130, Note_on_c, 0, 47, 127
2, 867133, Note_on_c, 0, 35, 127
2, 867229, Note_on_c, 0, 35, 0
2, 867296, Note_on_c, 0, 47, 0
2, 867302, Control_c, 0, 64, 127
2, 867364, Note_on_c, 0, 34, 116
2, 867364, Note_on_c, 0, 46, 89
2, 867416, Note_on_c, 0, 44, 106
2, 867420, Note_on_c, 0, 32, 106
2, 867440, Control_c, 0, 64, 0
2, 867480, Note_on_c, 0, 43, 105
2, 867483, Note_on_c, 0, 31, 91
2, 867492, Note_on_c, 0, 34, 0
2, 867498, Note_on_c, 0, 46, 0
2, 867560, Note_on_c, 0, 41, 119
2, 867563, Note_on_c, 0, 44, 0
2, 867563, Note_on_c, 0, 29, 53
2, 867578, Note_on_c, 0, 32, 0
2, 867591, Note_on_c, 0, 31, 0
2, 867610, Note_on_c, 0, 43, 0
2, 867653, Note_on_c, 0, 41, 0
2, 867656, Note_on_c, 0, 39, 127
2, 867658, Note_on_c, 0, 51, 127
2, 867660, Note_on_c, 0, 27, 127
2, 867705, Note_on_c, 0, 29, 0
2, 867782, Note_on_c, 0, 39, 0
2, 867804, Note_on_c, 0, 27, 0
2, 867822, Note_on_c, 0, 51, 0
2, 868942, Note_on_c, 0, 51, 127
2, 868944, Note_on_c, 0, 39, 127
2, 868946, Note_on_c, 0, 27, 127
2, 869024, Note_on_c, 0, 51, 0
2, 869024, Control_c, 0, 64, 127
2, 869034, Note_on_c, 0, 27, 0
2, 869040, Note_on_c, 0, 39, 0
2, 869176, Control_c, 0, 64, 0
2, 871680, Control_c, 0, 64, 0
2, 871680, End_track
0, 0, End_of_file
