0, 0, Header, 0, 1, 480
1, 0, Start_track
1, 0, SMPTE_offset, 96, 0, 0, 0, 0
1, 0, Time_signature, 4, 2, 24, 8
1, 0, Key_signature, 0, "major"
1, 0, Tempo, 500000
1, 0, Control_c, 0, 64, 127
1, 0, Control_c, 0, 64, 0
1, 0, Note_on_c, 0, 64, 34
1, 86, Control_c, 0, 64, 127
1, 128, Note_on_c, 0, 71, 36
1, 172, Note_on_c, 0, 76, 24
1, 188, Note_on_c, 0, 80, 26
1, 202, Note_on_c, 0, 83, 49
1, 222, Note_off_c, 0, 71, 64
1, 232, Note_off_c, 0, 64, 64
1, 248, Note_off_c, 0, 76, 64
1, 260, Note_off_c, 0, 80, 64
1, 266, Note_off_c, 0, 83, 64
1, 300, Control_c, 0, 64, 0
1, 336, Note_on_c, 0, 66, 51
1, 496, Note_on_c, 0, 71, 54
1, 512, Note_on_c, 0, 76, 39
1, 516, Note_on_c, 0, 81, 47
1, 534, Note_off_c, 0, 66, 64
1, 541, Note_on_c, 0, 83, 45
1, 554, Note_off_c, 0, 71, 64
1, 562, Control_c, 0, 64, 127
1, 578, Note_off_c, 0, 76, 64
1, 588, Note_off_c, 0, 81, 64
1, 604, Note_off_c, 0, 83, 64
1, 624, Control_c, 0, 64, 0
1, 658, Note_on_c, 0, 59, 62
1, 704, Note_off_c, 0, 59, 64
1, 810, Note_on_c, 0, 61, 75
1, 820, Note_on_c, 0, 81, 42
1, 824, Note_on_c, 0, 71, 44
1, 826, Note_on_c, 0, 76, 37
1, 834, Note_on_c, 0, 83, 57
1, 880, Note_off_c, 0, 61, 64
1, 884, Note_off_c, 0, 71, 64
1, 888, Note_off_c, 0, 76, 64
1, 890, Note_off_c, 0, 81, 64
1, 898, Note_off_c, 0, 83, 64
1, 992, Note_on_c, 0, 64, 84
1, 1158, Note_on_c, 0, 71, 55
1, 1176, Control_c, 0, 64, 127
1, 1178, Note_on_c, 0, 80, 44
1, 1186, Note_on_c, 0, 76, 32
1, 1188, Note_on_c, 0, 83, 56
1, 1210, Note_off_c, 0, 71, 64
1, 1230, Note_off_c, 0, 64, 64
1, 1246, Note_off_c, 0, 76, 64
1, 1246, Note_off_c, 0, 83, 64
1, 1252, Note_off_c, 0, 80, 64
1, 1284, Control_c, 0, 64, 0
1, 1352, Note_on_c, 0, 71, 85
1, 1524, Note_on_c, 0, 76, 54
1, 1528, Note_on_c, 0, 80, 39
1, 1530, Note_on_c, 0, 83, 71
1, 1546, Note_off_c, 0, 71, 64
1, 1574, Note_off_c, 0, 76, 64
1, 1582, Note_off_c, 0, 83, 64
1, 1585, Note_off_c, 0, 80, 64
1, 1592, Control_c, 0, 64, 127
1, 1638, Control_c, 0, 64, 0
1, 1686, Note_on_c, 0, 66, 47
1, 1868, Note_on_c, 0, 71, 47
1, 1890, Note_on_c, 0, 76, 30
1, 1900, Note_on_c, 0, 81, 33
1, 1916, Note_on_c, 0, 83, 63
1, 1922, Note_off_c, 0, 71, 64
1, 1968, Note_off_c, 0, 76, 64
1, 1978, Note_off_c, 0, 83, 64
1, 1982, Note_off_c, 0, 81, 64
1, 1990, Control_c, 0, 64, 127
1, 2126, Note_off_c, 0, 66, 64
1, 2190, Control_c, 0, 64, 0
1, 2220, Note_on_c, 0, 71, 40
1, 2222, Note_on_c, 0, 64, 42
1, 2244, Note_on_c, 0, 83, 41
1, 2254, Note_on_c, 0, 80, 18
1, 2276, Note_off_c, 0, 64, 64
1, 2279, Note_on_c, 0, 76, 5
1, 2290, Note_off_c, 0, 71, 64
1, 2320, Note_off_c, 0, 83, 64
1, 2336, Note_off_c, 0, 80, 64
1, 2358, Note_off_c, 0, 76, 64
1, 2376, Note_on_c, 0, 66, 65
1, 2430, Note_off_c, 0, 66, 64
1, 2556, Note_on_c, 0, 59, 64
1, 2678, Note_on_c, 0, 71, 61
1, 2681, Control_c, 0, 64, 127
1, 2708, Note_on_c, 0, 76, 41
1, 2711, Note_on_c, 0, 80, 51
1, 2722, Note_on_c, 0, 83, 57
1, 2726, Note_off_c, 0, 71, 64
1, 2728, Note_off_c, 0, 59, 64
1, 2772, Note_off_c, 0, 76, 64
1, 2786, Note_off_c, 0, 83, 64
1, 2808, Note_off_c, 0, 80, 64
1, 2868, Note_on_c, 0, 61, 86
1, 2898, Control_c, 0, 64, 0
1, 2916, Note_off_c, 0, 61, 64
1, 3058, Note_on_c, 0, 66, 75
1, 3226, Note_on_c, 0, 81, 48
1, 3229, Note_on_c, 0, 76, 44
1, 3229, Note_on_c, 0, 83, 67
1, 3278, Note_off_c, 0, 76, 64
1, 3282, Note_off_c, 0, 83, 64
1, 3290, Note_off_c, 0, 81, 64
1, 3384, Note_on_c, 0, 71, 67
1, 3432, Note_off_c, 0, 71, 64
1, 3528, Control_c, 0, 64, 127
1, 3550, Note_on_c, 0, 83, 79
1, 3558, Note_on_c, 0, 75, 50
1, 3558, Control_c, 0, 64, 0
1, 3564, Note_on_c, 0, 81, 43
1, 3608, Note_off_c, 0, 75, 64
1, 3611, Note_off_c, 0, 83, 64
1, 3618, Note_off_c, 0, 81, 64
1, 3714, Note_on_c, 0, 71, 63
1, 3764, Note_off_c, 0, 71, 64
1, 3834, Note_off_c, 0, 66, 64
1, 3882, Note_on_c, 0, 81, 45
1, 3882, Note_on_c, 0, 75, 46
1, 3885, Note_on_c, 0, 83, 75
1, 3936, Note_off_c, 0, 81, 64
1, 3938, Note_off_c, 0, 75, 64
1, 3938, Note_off_c, 0, 83, 64
1, 4032, Note_on_c, 0, 68, 67
1, 4202, Note_on_c, 0, 71, 52
1, 4218, Control_c, 0, 64, 127
1, 4236, Note_off_c, 0, 68, 64
1, 4236, Note_on_c, 0, 75, 37
1, 4244, Note_on_c, 0, 83, 60
1, 4252, Note_on_c, 0, 80, 29
1, 4268, Note_off_c, 0, 71, 64
1, 4300, Note_off_c, 0, 75, 64
1, 4310, Note_off_c, 0, 83, 64
1, 4314, Note_off_c, 0, 80, 64
1, 4372, Control_c, 0, 64, 0
1, 4398, Note_on_c, 0, 66, 52
1, 4572, Note_on_c, 0, 71, 51
1, 4575, Note_off_c, 0, 66, 64
1, 4580, Note_on_c, 0, 80, 41
1, 4584, Note_on_c, 0, 75, 38
1, 4602, Control_c, 0, 64, 127
1, 4628, Note_off_c, 0, 71, 64
1, 4636, Note_off_c, 0, 80, 64
1, 4636, Note_off_c, 0, 75, 64
1, 4726, Note_on_c, 0, 64, 60
1, 4756, Control_c, 0, 64, 0
1, 4774, Note_off_c, 0, 64, 64
1, 4876, Note_on_c, 0, 63, 60
1, 4879, Note_on_c, 0, 68, 39
1, 4886, Note_on_c, 0, 75, 40
1, 4886, Note_on_c, 0, 71, 46
1, 4918, Note_off_c, 0, 63, 64
1, 4938, Note_off_c, 0, 68, 64
1, 4940, Note_off_c, 0, 75, 64
1, 4940, Note_off_c, 0, 71, 64
1, 5032, Note_on_c, 0, 61, 76
1, 5178, Note_on_c, 0, 64, 42
1, 5198, Note_on_c, 0, 68, 35
1, 5210, Note_on_c, 0, 73, 33
1, 5218, Control_c, 0, 64, 127
1, 5238, Note_off_c, 0, 61, 64
1, 5238, Note_off_c, 0, 64, 64
1, 5238, Note_on_c, 0, 76, 20
1, 5266, Note_off_c, 0, 68, 64
1, 5269, Note_off_c, 0, 73, 64
1, 5314, Note_off_c, 0, 76, 64
1, 5340, Control_c, 0, 64, 0
1, 5348, Note_on_c, 0, 59, 78
1, 5516, Note_on_c, 0, 64, 65
1, 5522, Note_on_c, 0, 68, 50
1, 5522, Note_on_c, 0, 73, 50
1, 5562, Note_off_c, 0, 64, 64
1, 5568, Note_off_c, 0, 59, 64
1, 5572, Note_off_c, 0, 68, 64
1, 5572, Note_off_c, 0, 73, 64
1, 5572, Control_c, 0, 64, 127
1, 5660, Note_on_c, 0, 57, 63
1, 5678, Control_c, 0, 64, 0
1, 5708, Note_off_c, 0, 57, 64
1, 5796, Note_on_c, 0, 68, 52
1, 5806, Note_on_c, 0, 56, 72
1, 5806, Note_on_c, 0, 61, 43
1, 5818, Note_on_c, 0, 64, 41
1, 5844, Note_off_c, 0, 56, 64
1, 5858, Note_off_c, 0, 68, 64
1, 5870, Note_off_c, 0, 64, 64
1, 5874, Note_off_c, 0, 61, 64
1, 5976, Note_on_c, 0, 55, 81
1, 6124, Note_on_c, 0, 62, 53
1, 6124, Note_on_c, 0, 71, 57
1, 6142, Note_on_c, 0, 67, 39
1, 6182, Note_off_c, 0, 71, 64
1, 6186, Note_off_c, 0, 62, 64
1, 6212, Note_off_c, 0, 67, 64
1, 6286, Note_on_c, 0, 59, 57
1, 6346, Note_off_c, 0, 59, 64
1, 6450, Note_on_c, 0, 71, 48
1, 6456, Note_on_c, 0, 62, 42
1, 6462, Note_on_c, 0, 67, 40
1, 6516, Note_off_c, 0, 71, 64
1, 6520, Note_off_c, 0, 62, 64
1, 6548, Note_off_c, 0, 67, 64
1, 6610, Note_on_c, 0, 59, 49
1, 6670, Note_off_c, 0, 59, 64
1, 6676, Control_c, 0, 64, 127
1, 6766, Note_on_c, 0, 71, 42
1, 6774, Note_on_c, 0, 62, 34
1, 6788, Note_on_c, 0, 67, 25
1, 6824, Note_off_c, 0, 71, 64
1, 6828, Note_off_c, 0, 55, 64
1, 6836, Note_off_c, 0, 62, 64
1, 6866, Note_off_c, 0, 67, 64
1, 6924, Control_c, 0, 64, 0
1, 6948, Note_on_c, 0, 47, 46
1, 6962, Note_on_c, 0, 59, 36
1, 7060, Note_off_c, 0, 59, 64
1, 7138, Note_on_c, 0, 57, 27
1, 7148, Note_on_c, 0, 67, 12
1, 7154, Note_on_c, 0, 63, 28
1, 7220, Note_off_c, 0, 63, 64
1, 7223, Note_off_c, 0, 57, 64
1, 7250, Note_off_c, 0, 67, 64
1, 7294, Note_on_c, 0, 59, 48
1, 7396, Note_off_c, 0, 59, 64
1, 7476, Note_on_c, 0, 67, 38
1, 7476, Note_on_c, 0, 57, 32
1, 7476, Control_c, 0, 64, 127
1, 7496, Note_on_c, 0, 63, 31
1, 7506, Control_c, 0, 64, 0
1, 7552, Note_off_c, 0, 57, 64
1, 7556, Note_off_c, 0, 67, 64
1, 7564, Note_off_c, 0, 63, 64
1, 7628, Note_on_c, 0, 59, 38
1, 7676, Control_c, 0, 64, 127
1, 7688, Note_off_c, 0, 59, 64
1, 7768, Note_off_c, 0, 47, 64
1, 7798, Note_on_c, 0, 67, 42
1, 7818, Note_on_c, 0, 63, 34
1, 7818, Note_on_c, 0, 57, 24
1, 7858, Note_off_c, 0, 67, 64
1, 7860, Control_c, 0, 64, 0
1, 7880, Note_off_c, 0, 63, 64
1, 7888, Note_off_c, 0, 57, 64
1, 7986, Note_on_c, 0, 52, 68
1, 7996, Note_on_c, 0, 40, 53
1, 8106, Control_c, 0, 64, 127
1, 8152, Note_on_c, 0, 59, 45
1, 8164, Note_off_c, 0, 52, 64
1, 8166, Note_off_c, 0, 40, 64
1, 8168, Note_on_c, 0, 71, 31
1, 8172, Note_on_c, 0, 68, 32
1, 8180, Note_on_c, 0, 64, 40
1, 8230, Note_off_c, 0, 59, 64
1, 8242, Note_off_c, 0, 68, 64
1, 8242, Note_off_c, 0, 64, 64
1, 8245, Note_off_c, 0, 71, 64
1, 8290, Control_c, 0, 64, 0
1, 8324, Note_on_c, 0, 54, 85
1, 8334, Note_on_c, 0, 42, 66
1, 8390, Note_off_c, 0, 54, 64
1, 8438, Note_off_c, 0, 42, 64
1, 8476, Control_c, 0, 64, 127
1, 8512, Note_on_c, 0, 71, 60
1, 8514, Note_on_c, 0, 68, 46
1, 8522, Note_on_c, 0, 59, 42
1, 8528, Note_on_c, 0, 64, 50
1, 8566, Note_off_c, 0, 71, 64
1, 8578, Note_off_c, 0, 68, 64
1, 8584, Note_off_c, 0, 59, 64
1, 8586, Note_off_c, 0, 64, 64
1, 8650, Note_on_c, 0, 35, 93
1, 8650, Note_on_c, 0, 47, 73
1, 8674, Control_c, 0, 64, 0
1, 8682, Note_off_c, 0, 35, 64
1, 8692, Note_off_c, 0, 47, 64
1, 8820, Note_on_c, 0, 49, 83
1, 8824, Note_on_c, 0, 37, 83
1, 8826, Note_on_c, 0, 68, 42
1, 8838, Note_on_c, 0, 71, 43
1, 8838, Note_on_c, 0, 59, 36
1, 8850, Note_on_c, 0, 64, 36
1, 8856, Note_off_c, 0, 37, 64
1, 8864, Note_off_c, 0, 49, 64
1, 8886, Note_off_c, 0, 68, 64
1, 8898, Note_off_c, 0, 59, 64
1, 8900, Note_off_c, 0, 71, 64
1, 8906, Note_off_c, 0, 64, 64
1, 8980, Note_on_c, 0, 40, 96
1, 8983, Note_on_c, 0, 52, 94
1, 9138, Note_off_c, 0, 40, 64
1, 9154, Note_on_c, 0, 59, 48
1, 9158, Note_on_c, 0, 69, 31
1, 9166, Control_c, 0, 64, 127
1, 9166, Note_on_c, 0, 71, 48
1, 9176, Note_on_c, 0, 64, 45
1, 9178, Note_off_c, 0, 52, 64
1, 9208, Note_off_c, 0, 59, 64
1, 9230, Note_off_c, 0, 64, 64
1, 9248, Note_off_c, 0, 69, 64
1, 9251, Note_off_c, 0, 71, 64
1, 9274, Control_c, 0, 64, 0
1, 9328, Note_on_c, 0, 47, 74
1, 9330, Note_on_c, 0, 59, 73
1, 9478, Note_off_c, 0, 59, 64
1, 9518, Note_on_c, 0, 64, 60
1, 9520, Note_on_c, 0, 68, 43
1, 9520, Control_c, 0, 64, 127
1, 9524, Note_on_c, 0, 71, 52
1, 9532, Note_off_c, 0, 47, 64
1, 9576, Note_off_c, 0, 64, 64
1, 9582, Note_off_c, 0, 71, 64
1, 9585, Note_off_c, 0, 68, 64
1, 9668, Note_on_c, 0, 54, 78
1, 9674, Control_c, 0, 64, 0
1, 9678, Note_on_c, 0, 42, 63
1, 9860, Note_on_c, 0, 69, 47
1, 9870, Note_on_c, 0, 71, 43
1, 9872, Note_on_c, 0, 59, 32
1, 9908, Note_on_c, 0, 64, 24
1, 9972, Note_off_c, 0, 69, 64
1, 9975, Note_off_c, 0, 59, 64
1, 9978, Note_off_c, 0, 71, 64
1, 9980, Note_off_c, 0, 64, 64
1, 10010, Control_c, 0, 64, 127
1, 10028, Note_off_c, 0, 54, 64
1, 10028, Note_off_c, 0, 42, 64
1, 10198, Note_on_c, 0, 52, 72
1, 10198, Note_on_c, 0, 40, 84
1, 10210, Note_on_c, 0, 68, 37
1, 10212, Note_on_c, 0, 59, 39
1, 10212, Note_on_c, 0, 71, 45
1, 10226, Control_c, 0, 64, 0
1, 10234, Note_off_c, 0, 40, 64
1, 10237, Note_off_c, 0, 52, 64
1, 10237, Note_on_c, 0, 64, 29
1, 10284, Note_off_c, 0, 71, 64
1, 10290, Note_off_c, 0, 68, 64
1, 10290, Note_off_c, 0, 59, 64
1, 10304, Note_off_c, 0, 64, 64
1, 10352, Note_on_c, 0, 54, 81
1, 10372, Note_on_c, 0, 42, 62
1, 10392, Note_off_c, 0, 54, 64
1, 10418, Note_off_c, 0, 42, 64
1, 10442, Control_c, 0, 64, 127
1, 10536, Note_on_c, 0, 35, 84
1, 10550, Note_on_c, 0, 47, 55
1, 10572, Note_off_c, 0, 35, 64
1, 10600, Note_off_c, 0, 47, 64
1, 10738, Note_on_c, 0, 71, 61
1, 10741, Note_on_c, 0, 59, 57
1, 10748, Note_on_c, 0, 68, 39
1, 10766, Note_on_c, 0, 64, 42
1, 10816, Note_off_c, 0, 59, 64
1, 10816, Note_off_c, 0, 68, 64
1, 10824, Note_off_c, 0, 64, 64
1, 10854, Note_off_c, 0, 71, 64
1, 10876, Note_on_c, 0, 37, 81
1, 10880, Note_on_c, 0, 49, 84
1, 10916, Note_off_c, 0, 37, 64
1, 10962, Note_off_c, 0, 49, 64
1, 11072, Control_c, 0, 64, 0
1, 11082, Note_on_c, 0, 44, 81
1, 11152, Note_on_c, 0, 56, 65
1, 11334, Note_off_c, 0, 44, 64
1, 11356, Note_on_c, 0, 63, 61
1, 11356, Note_on_c, 0, 59, 52
1, 11406, Note_off_c, 0, 59, 64
1, 11416, Note_off_c, 0, 63, 64
1, 11424, Control_c, 0, 64, 127
1, 11430, Note_off_c, 0, 56, 64
1, 11520, Note_on_c, 0, 59, 76
1, 11562, Note_off_c, 0, 59, 64
1, 11680, Note_on_c, 0, 63, 61
1, 11690, Note_on_c, 0, 68, 55
1, 11726, Note_off_c, 0, 63, 64
1, 11736, Note_off_c, 0, 68, 64
1, 11836, Note_on_c, 0, 63, 78
1, 11870, Note_off_c, 0, 63, 64
1, 11984, Note_on_c, 0, 68, 68
1, 11990, Note_on_c, 0, 71, 65
1, 12034, Note_off_c, 0, 68, 64
1, 12037, Note_off_c, 0, 71, 64
1, 12070, Control_c, 0, 64, 0
1, 12160, Note_on_c, 0, 75, 70
1, 12162, Note_on_c, 0, 68, 46
1, 12170, Note_on_c, 0, 72, 53
1, 12340, Note_on_c, 0, 63, 48
1, 12392, Control_c, 0, 64, 127
1, 12430, Note_off_c, 0, 63, 64
1, 12474, Note_off_c, 0, 68, 64
1, 12500, Control_c, 0, 64, 0
1, 12520, Note_on_c, 0, 67, 37
1, 12520, Note_on_c, 0, 71, 50
1, 12544, Note_off_c, 0, 72, 64
1, 12642, Note_off_c, 0, 67, 64
1, 12712, Note_on_c, 0, 63, 32
1, 12716, Control_c, 0, 64, 127
1, 12794, Note_off_c, 0, 71, 64
1, 12796, Note_off_c, 0, 63, 64
1, 12842, Note_on_c, 0, 70, 31
1, 12848, Note_on_c, 0, 66, 22
1, 12918, Note_off_c, 0, 70, 64
1, 12930, Note_off_c, 0, 66, 64
1, 12932, Note_off_c, 0, 75, 64
1, 13008, Note_on_c, 0, 71, 44
1, 13016, Note_on_c, 0, 67, 42
1, 13018, Note_on_c, 0, 63, 23
1, 13024, Control_c, 0, 64, 0
1, 13084, Note_off_c, 0, 63, 64
1, 13086, Note_off_c, 0, 67, 64
1, 13150, Note_off_c, 0, 71, 64
1, 13162, Note_on_c, 0, 75, 42
1, 13172, Note_on_c, 0, 68, 38
1, 13190, Note_on_c, 0, 72, 37
1, 13354, Note_on_c, 0, 63, 26
1, 13428, Note_off_c, 0, 63, 64
1, 13438, Control_c, 0, 64, 127
1, 13486, Note_off_c, 0, 68, 64
1, 13516, Note_off_c, 0, 72, 64
1, 13524, Note_on_c, 0, 71, 32
1, 13524, Note_on_c, 0, 67, 27
1, 13530, Control_c, 0, 64, 0
1, 13662, Note_off_c, 0, 67, 64
1, 13698, Control_c, 0, 64, 127
1, 13700, Note_on_c, 0, 63, 30
1, 13774, Note_off_c, 0, 71, 64
1, 13776, Note_off_c, 0, 63, 64
1, 13830, Note_on_c, 0, 66, 30
1, 13848, Note_on_c, 0, 70, 23
1, 13851, Control_c, 0, 64, 0
1, 13910, Note_off_c, 0, 66, 64
1, 13922, Note_off_c, 0, 70, 64
1, 13966, Note_off_c, 0, 75, 64
1, 13984, Note_on_c, 0, 63, 35
1, 13986, Note_on_c, 0, 67, 23
1, 13992, Note_on_c, 0, 71, 50
1, 14006, Control_c, 0, 64, 127
1, 14050, Note_off_c, 0, 63, 64
1, 14064, Note_off_c, 0, 71, 64
1, 14067, Control_c, 0, 64, 0
1, 14126, Note_off_c, 0, 67, 64
1, 14148, Note_on_c, 0, 75, 50
1, 14172, Note_on_c, 0, 68, 37
1, 14184, Note_on_c, 0, 72, 32
1, 14246, Note_off_c, 0, 68, 64
1, 14246, Note_off_c, 0, 72, 64
1, 14282, Control_c, 0, 64, 127
1, 14332, Note_off_c, 0, 75, 64
1, 14344, Note_on_c, 0, 63, 24
1, 14416, Note_off_c, 0, 63, 64
1, 14470, Note_on_c, 0, 77, 67
1, 14492, Note_on_c, 0, 72, 37
1, 14495, Note_on_c, 0, 75, 43
1, 14556, Note_off_c, 0, 75, 64
1, 14604, Note_off_c, 0, 72, 64
1, 14658, Note_on_c, 0, 63, 30
1, 14730, Note_off_c, 0, 63, 64
1, 14794, Note_on_c, 0, 80, 75
1, 14806, Note_on_c, 0, 71, 59
1, 14809, Note_off_c, 0, 77, 64
1, 14834, Note_on_c, 0, 74, 41
1, 14878, Note_off_c, 0, 71, 64
1, 14956, Note_off_c, 0, 74, 64
1, 14978, Note_on_c, 0, 63, 42
1, 15024, Note_off_c, 0, 80, 64
1, 15046, Note_off_c, 0, 63, 64
1, 15132, Note_on_c, 0, 79, 69
1, 15140, Note_on_c, 0, 70, 38
1, 15143, Note_on_c, 0, 73, 36
1, 15174, Control_c, 0, 64, 0
1, 15222, Note_off_c, 0, 73, 64
1, 15310, Note_on_c, 0, 63, 41
1, 15312, Note_off_c, 0, 70, 64
1, 15342, Control_c, 0, 64, 127
1, 15384, Note_off_c, 0, 63, 64
1, 15464, Note_off_c, 0, 79, 64
1, 15470, Note_on_c, 0, 68, 26
1, 15476, Note_on_c, 0, 73, 26
1, 15482, Note_on_c, 0, 77, 43
1, 15496, Control_c, 0, 64, 0
1, 15560, Note_off_c, 0, 73, 64
1, 15644, Note_on_c, 0, 63, 31
1, 15666, Control_c, 0, 64, 127
1, 15686, Note_off_c, 0, 68, 64
1, 15748, Note_off_c, 0, 63, 64
1, 15758, Control_c, 0, 64, 0
1, 15780, Note_off_c, 0, 77, 64
1, 15783, Note_on_c, 0, 79, 47
1, 15800, Note_on_c, 0, 73, 33
1, 15806, Note_on_c, 0, 67, 28
1, 15854, Note_off_c, 0, 79, 64
1, 15894, Note_off_c, 0, 73, 64
1, 15896, Control_c, 0, 64, 127
1, 15970, Note_on_c, 0, 63, 31
1, 16046, Note_off_c, 0, 63, 64
1, 16114, Note_off_c, 0, 67, 64
1, 16124, Note_on_c, 0, 75, 53
1, 16126, Note_on_c, 0, 68, 39
1, 16130, Note_on_c, 0, 72, 40
1, 16188, Control_c, 0, 64, 0
1, 16300, Note_on_c, 0, 63, 25
1, 16402, Note_off_c, 0, 63, 64
1, 16402, Control_c, 0, 64, 127
1, 16456, Note_off_c, 0, 68, 64
1, 16464, Control_c, 0, 64, 0
1, 16478, Note_off_c, 0, 72, 64
1, 16482, Note_on_c, 0, 67, 27
1, 16484, Note_on_c, 0, 71, 35
1, 16652, Note_on_c, 0, 63, 32
1, 16656, Note_off_c, 0, 67, 64
1, 16680, Control_c, 0, 64, 127
1, 16750, Note_off_c, 0, 63, 64
1, 16766, Note_off_c, 0, 71, 64
1, 16792, Note_on_c, 0, 70, 38
1, 16800, Note_on_c, 0, 66, 30
1, 16864, Control_c, 0, 64, 0
1, 16882, Note_off_c, 0, 70, 64
1, 16898, Note_off_c, 0, 66, 64
1, 16946, Note_on_c, 0, 71, 62
1, 16954, Note_on_c, 0, 67, 44
1, 16958, Note_on_c, 0, 63, 27
1, 16966, Note_off_c, 0, 75, 64
1, 16986, Control_c, 0, 64, 127
1, 17032, Note_off_c, 0, 63, 64
1, 17064, Control_c, 0, 64, 0
1, 17098, Note_off_c, 0, 67, 64
1, 17110, Note_on_c, 0, 75, 55
1, 17113, Note_off_c, 0, 71, 64
1, 17122, Note_on_c, 0, 68, 32
1, 17122, Note_on_c, 0, 72, 42
1, 17278, Note_on_c, 0, 63, 32
1, 17294, Control_c, 0, 64, 127
1, 17348, Note_off_c, 0, 63, 64
1, 17386, Control_c, 0, 64, 0
1, 17408, Note_off_c, 0, 68, 64
1, 17440, Note_on_c, 0, 67, 39
1, 17443, Note_on_c, 0, 71, 44
1, 17456, Note_off_c, 0, 72, 64
1, 17556, Control_c, 0, 64, 127
1, 17588, Note_off_c, 0, 67, 64
1, 17626, Note_on_c, 0, 63, 30
1, 17712, Note_off_c, 0, 63, 64
1, 17716, Note_off_c, 0, 71, 64
1, 17746, Note_on_c, 0, 66, 37
1, 17752, Note_on_c, 0, 70, 36
1, 17786, Control_c, 0, 64, 0
1, 17830, Note_off_c, 0, 70, 64
1, 17868, Note_off_c, 0, 66, 64
1, 17894, Note_off_c, 0, 75, 64
1, 17894, Note_on_c, 0, 67, 53
1, 17906, Note_on_c, 0, 71, 60
1, 17926, Note_on_c, 0, 63, 35
1, 17956, Control_c, 0, 64, 127
1, 17986, Note_off_c, 0, 67, 64
1, 18002, Note_off_c, 0, 63, 64
1, 18016, Control_c, 0, 64, 0
1, 18062, Note_on_c, 0, 75, 72
1, 18066, Note_on_c, 0, 68, 55
1, 18076, Note_off_c, 0, 71, 64
1, 18084, Note_on_c, 0, 72, 38
1, 18138, Note_off_c, 0, 72, 64
1, 18154, Control_c, 0, 64, 127
1, 18168, Note_off_c, 0, 68, 64
1, 18202, Note_off_c, 0, 75, 64
1, 18238, Note_on_c, 0, 63, 44
1, 18320, Note_off_c, 0, 63, 64
1, 18386, Note_on_c, 0, 72, 52
1, 18386, Note_on_c, 0, 77, 79
1, 18392, Note_on_c, 0, 75, 57
1, 18432, Control_c, 0, 64, 0
1, 18462, Note_off_c, 0, 75, 64
1, 18542, Note_off_c, 0, 72, 64
1, 18544, Note_on_c, 0, 63, 50
1, 18584, Control_c, 0, 64, 127
1, 18636, Note_off_c, 0, 63, 64
1, 18692, Note_on_c, 0, 80, 75
1, 18698, Note_on_c, 0, 71, 57
1, 18708, Control_c, 0, 64, 0
1, 18708, Note_on_c, 0, 74, 54
1, 18710, Note_off_c, 0, 77, 64
1, 18816, Note_off_c, 0, 71, 64
1, 18846, Control_c, 0, 64, 127
1, 18858, Note_off_c, 0, 74, 64
1, 18868, Note_on_c, 0, 63, 38
1, 18902, Note_off_c, 0, 80, 64
1, 18942, Note_off_c, 0, 63, 64
1, 19006, Note_on_c, 0, 79, 75
1, 19006, Note_on_c, 0, 70, 48
1, 19022, Note_on_c, 0, 73, 32
1, 19046, Control_c, 0, 64, 0
1, 19104, Note_off_c, 0, 73, 64
1, 19142, Note_off_c, 0, 70, 64
1, 19176, Note_on_c, 0, 63, 45
1, 19214, Control_c, 0, 64, 127
1, 19236, Note_off_c, 0, 63, 64
1, 19316, Note_off_c, 0, 79, 64
1, 19319, Note_on_c, 0, 77, 53
1, 19322, Note_on_c, 0, 73, 32
1, 19328, Note_on_c, 0, 70, 22
1, 19338, Control_c, 0, 64, 0
1, 19384, Note_off_c, 0, 77, 64
1, 19414, Note_off_c, 0, 73, 64
1, 19470, Note_off_c, 0, 70, 64
1, 19480, Note_on_c, 0, 68, 30
1, 19502, Note_on_c, 0, 77, 7
1, 19522, Control_c, 0, 64, 127
1, 19586, Note_off_c, 0, 68, 64
1, 19640, Note_off_c, 0, 77, 64
1, 19656, Note_on_c, 0, 70, 23
1, 19660, Note_on_c, 0, 75, 33
1, 19676, Control_c, 0, 64, 0
1, 19678, Note_on_c, 0, 73, 14
1, 19752, Note_off_c, 0, 75, 64
1, 19776, Note_off_c, 0, 73, 64
1, 19822, Note_on_c, 0, 67, 20
1, 19828, Note_off_c, 0, 70, 64
1, 19844, Control_c, 0, 64, 127
1, 19894, Note_off_c, 0, 67, 64
1, 19978, Note_on_c, 0, 78, 58
1, 19984, Control_c, 0, 64, 0
1, 19987, Note_on_c, 0, 75, 46
1, 19993, Note_on_c, 0, 71, 40
1, 20118, Note_off_c, 0, 71, 64
1, 20164, Note_on_c, 0, 66, 26
1, 20182, Control_c, 0, 64, 127
1, 20258, Note_off_c, 0, 66, 64
1, 20336, Note_on_c, 0, 70, 26
1, 20346, Note_on_c, 0, 74, 39
1, 20368, Control_c, 0, 64, 0
1, 20371, Note_off_c, 0, 75, 64
1, 20512, Note_on_c, 0, 66, 18
1, 20536, Control_c, 0, 64, 127
1, 20568, Note_off_c, 0, 70, 64
1, 20608, Note_off_c, 0, 74, 64
1, 20630, Note_off_c, 0, 66, 64
1, 20640, Note_on_c, 0, 69, 36
1, 20650, Note_on_c, 0, 73, 42
1, 20708, Note_off_c, 0, 73, 64
1, 20710, Note_off_c, 0, 69, 64
1, 20790, Note_on_c, 0, 66, 27
1, 20790, Note_on_c, 0, 70, 41
1, 20793, Note_on_c, 0, 74, 61
1, 20808, Note_off_c, 0, 78, 64
1, 20856, Note_off_c, 0, 66, 64
1, 20860, Note_off_c, 0, 74, 64
1, 20882, Note_off_c, 0, 70, 64
1, 20934, Control_c, 0, 64, 0
1, 20950, Note_on_c, 0, 78, 67
1, 20950, Note_on_c, 0, 75, 61
1, 20976, Note_on_c, 0, 71, 34
1, 21116, Note_on_c, 0, 66, 38
1, 21124, Note_off_c, 0, 71, 64
1, 21152, Control_c, 0, 64, 127
1, 21210, Note_off_c, 0, 66, 64
1, 21288, Note_on_c, 0, 70, 43
1, 21294, Note_on_c, 0, 74, 61
1, 21336, Note_off_c, 0, 75, 64
1, 21350, Control_c, 0, 64, 0
1, 21458, Note_on_c, 0, 66, 26
1, 21508, Note_off_c, 0, 70, 64
1, 21550, Control_c, 0, 64, 127
1, 21566, Note_off_c, 0, 74, 64
1, 21572, Note_off_c, 0, 66, 64
1, 21594, Note_on_c, 0, 69, 45
1, 21602, Note_on_c, 0, 73, 52
1, 21652, Note_off_c, 0, 69, 64
1, 21690, Note_off_c, 0, 73, 64
1, 21698, Note_off_c, 0, 78, 64
1, 21750, Note_on_c, 0, 70, 48
1, 21750, Note_on_c, 0, 74, 62
1, 21756, Note_on_c, 0, 66, 38
1, 21826, Note_off_c, 0, 66, 64
1, 21872, Control_c, 0, 64, 0
1, 21888, Note_off_c, 0, 70, 64
1, 21902, Note_on_c, 0, 78, 73
1, 21905, Note_on_c, 0, 71, 66
1, 21908, Note_on_c, 0, 75, 57
1, 21910, Note_off_c, 0, 74, 64
1, 22065, Note_on_c, 0, 66, 23
1, 22088, Control_c, 0, 64, 127
1, 22094, Note_off_c, 0, 75, 64
1, 22110, Note_off_c, 0, 78, 64
1, 22139, Note_off_c, 0, 66, 64
1, 22224, Note_on_c, 0, 80, 74
1, 22236, Note_on_c, 0, 78, 44
1, 22246, Note_on_c, 0, 75, 47
1, 22298, Note_off_c, 0, 71, 64
1, 22334, Control_c, 0, 64, 0
1, 22384, Note_on_c, 0, 66, 23
1, 22386, Note_off_c, 0, 75, 64
1, 22436, Note_off_c, 0, 78, 64
1, 22458, Note_off_c, 0, 66, 64
1, 22488, Control_c, 0, 64, 127
1, 22550, Control_c, 0, 64, 0
1, 22553, Note_on_c, 0, 83, 85
1, 22562, Note_on_c, 0, 74, 46
1, 22570, Note_on_c, 0, 77, 35
1, 22588, Note_off_c, 0, 80, 64
1, 22664, Note_off_c, 0, 77, 64
1, 22686, Note_off_c, 0, 74, 64
1, 22686, Control_c, 0, 64, 127
1, 22720, Note_on_c, 0, 66, 23
1, 22728, Note_off_c, 0, 83, 64
1, 22810, Note_off_c, 0, 66, 64
1, 22878, Note_on_c, 0, 82, 55
1, 22890, Note_on_c, 0, 73, 35
1, 22898, Note_on_c, 0, 76, 29
1, 22934, Control_c, 0, 64, 0
1, 23002, Note_off_c, 0, 76, 64
1, 23044, Note_off_c, 0, 73, 64
1, 23052, Note_on_c, 0, 66, 22
1, 23102, Control_c, 0, 64, 127
1, 23162, Note_off_c, 0, 66, 64
1, 23224, Note_on_c, 0, 80, 41
1, 23224, Control_c, 0, 64, 0
1, 23227, Note_off_c, 0, 82, 64
1, 23227, Note_on_c, 0, 71, 42
1, 23234, Note_on_c, 0, 76, 31
1, 23320, Note_off_c, 0, 76, 64
1, 23354, Note_off_c, 0, 71, 64
1, 23376, Note_on_c, 0, 66, 25
1, 23394, Control_c, 0, 64, 127
1, 23494, Note_off_c, 0, 66, 64
1, 23534, Control_c, 0, 64, 0
1, 23546, Note_off_c, 0, 80, 64
1, 23546, Note_on_c, 0, 82, 42
1, 23554, Note_on_c, 0, 70, 24
1, 23576, Note_on_c, 0, 76, 17
1, 23642, Note_off_c, 0, 76, 64
1, 23660, Note_off_c, 0, 82, 64
1, 23670, Control_c, 0, 64, 127
1, 23724, Note_on_c, 0, 66, 21
1, 23744, Note_off_c, 0, 70, 64
1, 23798, Note_off_c, 0, 66, 64
1, 23852, Note_on_c, 0, 78, 58
1, 23860, Note_on_c, 0, 71, 58
1, 23870, Note_on_c, 0, 75, 38
1, 23886, Control_c, 0, 64, 0
1, 23990, Note_off_c, 0, 71, 64
1, 24030, Note_on_c, 0, 66, 31
1, 24056, Control_c, 0, 64, 127
1, 24126, Note_off_c, 0, 66, 64
1, 24194, Control_c, 0, 64, 0
1, 24202, Note_off_c, 0, 75, 64
1, 24206, Note_on_c, 0, 70, 25
1, 24216, Note_on_c, 0, 74, 41
1, 24352, Note_on_c, 0, 66, 27
1, 24386, Note_off_c, 0, 70, 64
1, 24408, Control_c, 0, 64, 127
1, 24464, Note_off_c, 0, 74, 64
1, 24464, Note_off_c, 0, 66, 64
1, 24498, Note_on_c, 0, 73, 45
1, 24516, Note_on_c, 0, 69, 11
1, 24566, Note_off_c, 0, 73, 64
1, 24572, Note_off_c, 0, 69, 64
1, 24578, Control_c, 0, 64, 0
1, 24656, Note_on_c, 0, 66, 34
1, 24664, Note_on_c, 0, 70, 36
1, 24672, Note_on_c, 0, 74, 49
1, 24682, Note_off_c, 0, 78, 64
1, 24716, Control_c, 0, 64, 127
1, 24742, Note_off_c, 0, 66, 64
1, 24772, Note_off_c, 0, 70, 64
1, 24826, Note_on_c, 0, 75, 49
1, 24826, Note_on_c, 0, 78, 44
1, 24838, Control_c, 0, 64, 0
1, 24846, Note_on_c, 0, 71, 39
1, 24848, Note_off_c, 0, 74, 64
1, 24988, Note_off_c, 0, 71, 64
1, 25000, Note_on_c, 0, 66, 22
1, 25038, Control_c, 0, 64, 127
1, 25114, Note_off_c, 0, 66, 64
1, 25168, Note_on_c, 0, 70, 29
1, 25178, Control_c, 0, 64, 0
1, 25190, Note_on_c, 0, 74, 36
1, 25228, Note_off_c, 0, 75, 64
1, 25348, Note_on_c, 0, 66, 22
1, 25390, Note_off_c, 0, 70, 64
1, 25390, Control_c, 0, 64, 127
1, 25436, Note_off_c, 0, 74, 64
1, 25458, Note_off_c, 0, 66, 64
1, 25480, Note_on_c, 0, 73, 42
1, 25486, Note_on_c, 0, 69, 28
1, 25550, Note_off_c, 0, 73, 64
1, 25567, Note_off_c, 0, 69, 64
1, 25638, Note_off_c, 0, 78, 64
1, 25641, Note_on_c, 0, 70, 44
1, 25641, Note_on_c, 0, 66, 23
1, 25660, Note_on_c, 0, 74, 50
1, 25712, Note_off_c, 0, 66, 64
1, 25738, Note_off_c, 0, 74, 64
1, 25778, Note_off_c, 0, 70, 64
1, 25796, Note_on_c, 0, 78, 55
1, 25810, Note_on_c, 0, 71, 57
1, 25820, Note_on_c, 0, 75, 49
1, 25820, Control_c, 0, 64, 0
1, 25976, Note_on_c, 0, 66, 29
1, 25979, Note_off_c, 0, 75, 64
1, 25996, Note_off_c, 0, 78, 64
1, 26006, Control_c, 0, 64, 127
1, 26078, Note_off_c, 0, 66, 64
1, 26100, Note_on_c, 0, 80, 71
1, 26102, Note_on_c, 0, 78, 41
1, 26118, Note_on_c, 0, 75, 42
1, 26190, Note_off_c, 0, 71, 64
1, 26192, Control_c, 0, 64, 0
1, 26270, Note_on_c, 0, 66, 46
1, 26300, Note_off_c, 0, 75, 64
1, 26328, Control_c, 0, 64, 127
1, 26364, Note_off_c, 0, 78, 64
1, 26376, Note_off_c, 0, 66, 64
1, 26432, Note_on_c, 0, 83, 97
1, 26438, Note_on_c, 0, 74, 62
1, 26444, Note_on_c, 0, 77, 58
1, 26452, Control_c, 0, 64, 0
1, 26470, Note_off_c, 0, 80, 64
1, 26570, Note_off_c, 0, 74, 64
1, 26572, Note_off_c, 0, 77, 64
1, 26578, Note_on_c, 0, 66, 57
1, 26588, Note_off_c, 0, 83, 64
1, 26590, Control_c, 0, 64, 127
1, 26688, Note_off_c, 0, 66, 64
1, 26746, Note_on_c, 0, 82, 61
1, 26750, Note_on_c, 0, 73, 50
1, 26752, Note_on_c, 0, 76, 48
1, 26758, Control_c, 0, 64, 0
1, 26854, Note_off_c, 0, 76, 64
1, 26916, Note_off_c, 0, 73, 64
1, 26916, Note_on_c, 0, 66, 47
1, 26944, Control_c, 0, 64, 127
1, 27000, Note_off_c, 0, 66, 64
1, 27028, Note_off_c, 0, 82, 64
1, 27062, Note_on_c, 0, 80, 50
1, 27064, Note_on_c, 0, 71, 52
1, 27082, Control_c, 0, 64, 0
1, 27082, Note_on_c, 0, 76, 33
1, 27162, Note_off_c, 0, 76, 64
1, 27182, Note_off_c, 0, 71, 64
1, 27234, Note_on_c, 0, 66, 29
1, 27236, Control_c, 0, 64, 127
1, 27324, Note_off_c, 0, 66, 64
1, 27354, Note_off_c, 0, 80, 64
1, 27366, Note_on_c, 0, 70, 39
1, 27368, Note_on_c, 0, 78, 44
1, 27388, Note_on_c, 0, 76, 23
1, 27440, Note_off_c, 0, 78, 64
1, 27462, Note_off_c, 0, 76, 64
1, 27464, Note_off_c, 0, 70, 64
1, 27482, Note_on_c, 0, 66, 36
1, 27528, Control_c, 0, 64, 0
1, 27550, Note_off_c, 0, 66, 64
1, 27628, Note_on_c, 0, 66, 43
1, 27640, Note_on_c, 0, 78, 49
1, 27642, Note_on_c, 0, 75, 52
1, 27642, Note_on_c, 0, 83, 81
1, 27654, Note_on_c, 0, 63, 49
1, 27674, Note_on_c, 0, 59, 36
1, 27694, Note_off_c, 0, 75, 64
1, 27696, Note_off_c, 0, 78, 64
1, 27702, Note_off_c, 0, 63, 64
1, 27704, Note_off_c, 0, 83, 64
1, 27708, Note_off_c, 0, 66, 64
1, 27726, Note_off_c, 0, 59, 64
1, 27798, Note_on_c, 0, 71, 63
1, 27856, Note_off_c, 0, 71, 64
1, 27936, Note_on_c, 0, 83, 83
1, 27939, Note_on_c, 0, 66, 47
1, 27939, Note_on_c, 0, 75, 53
1, 27939, Note_on_c, 0, 78, 48
1, 27962, Note_on_c, 0, 63, 40
1, 27965, Note_on_c, 0, 59, 34
1, 27994, Note_off_c, 0, 66, 64
1, 27994, Note_off_c, 0, 78, 64
1, 27996, Note_off_c, 0, 75, 64
1, 28014, Note_off_c, 0, 83, 64
1, 28017, Note_off_c, 0, 63, 64
1, 28020, Note_off_c, 0, 59, 64
1, 28080, Note_on_c, 0, 71, 77
1, 28124, Note_off_c, 0, 71, 64
1, 28240, Note_on_c, 0, 69, 44
1, 28250, Note_on_c, 0, 85, 74
1, 28256, Note_on_c, 0, 61, 39
1, 28256, Note_on_c, 0, 76, 52
1, 28256, Note_on_c, 0, 81, 46
1, 28264, Control_c, 0, 64, 127
1, 28272, Note_on_c, 0, 57, 19
1, 28282, Note_on_c, 0, 64, 40
1, 28312, Note_off_c, 0, 81, 64
1, 28316, Note_off_c, 0, 69, 64
1, 28318, Note_off_c, 0, 76, 64
1, 28328, Note_off_c, 0, 61, 64
1, 28332, Note_off_c, 0, 64, 64
1, 28342, Control_c, 0, 64, 0
1, 28345, Note_off_c, 0, 57, 64
1, 28356, Note_off_c, 0, 85, 64
1, 28376, Note_on_c, 0, 73, 66
1, 28432, Note_off_c, 0, 73, 64
1, 28528, Note_on_c, 0, 68, 78
1, 28540, Note_on_c, 0, 56, 51
1, 28540, Note_on_c, 0, 59, 63
1, 28544, Note_on_c, 0, 87, 74
1, 28552, Note_on_c, 0, 83, 79
1, 28558, Control_c, 0, 64, 127
1, 28558, Note_on_c, 0, 63, 54
1, 28558, Note_on_c, 0, 80, 57
1, 28576, Note_off_c, 0, 68, 64
1, 28588, Control_c, 0, 64, 0
1, 28591, Note_off_c, 0, 59, 64
1, 28594, Note_off_c, 0, 56, 64
1, 28600, Note_off_c, 0, 63, 64
1, 28602, Note_off_c, 0, 83, 64
1, 28614, Note_off_c, 0, 80, 64
1, 28680, Note_off_c, 0, 87, 64
1, 28680, Note_on_c, 0, 63, 55
1, 28684, Note_on_c, 0, 56, 39
1, 28684, Note_on_c, 0, 68, 62
1, 28692, Note_on_c, 0, 59, 46
1, 28696, Note_on_c, 0, 75, 65
1, 28732, Note_off_c, 0, 68, 64
1, 28742, Note_off_c, 0, 56, 64
1, 28744, Note_off_c, 0, 59, 64
1, 28744, Note_off_c, 0, 75, 64
1, 28750, Note_off_c, 0, 63, 64
1, 28832, Note_on_c, 0, 87, 65
1, 28840, Note_on_c, 0, 83, 84
1, 28840, Note_on_c, 0, 56, 38
1, 28840, Note_on_c, 0, 68, 40
1, 28846, Note_on_c, 0, 59, 36
1, 28846, Note_on_c, 0, 80, 59
1, 28846, Note_on_c, 0, 63, 44
1, 28849, Control_c, 0, 64, 127
1, 28880, Note_off_c, 0, 83, 64
1, 28880, Control_c, 0, 64, 0
1, 28900, Note_off_c, 0, 59, 64
1, 28906, Note_off_c, 0, 80, 64
1, 28912, Note_off_c, 0, 56, 64
1, 28914, Note_off_c, 0, 68, 64
1, 28930, Note_off_c, 0, 63, 64
1, 28956, Note_off_c, 0, 87, 64
1, 28984, Note_on_c, 0, 75, 42
1, 29036, Note_off_c, 0, 75, 64
1, 29144, Note_on_c, 0, 85, 61
1, 29144, Note_on_c, 0, 69, 40
1, 29152, Note_on_c, 0, 61, 44
1, 29152, Note_on_c, 0, 81, 44
1, 29168, Note_on_c, 0, 64, 34
1, 29178, Note_on_c, 0, 57, 15
1, 29204, Note_off_c, 0, 81, 64
1, 29207, Note_off_c, 0, 69, 64
1, 29220, Note_off_c, 0, 64, 64
1, 29238, Note_off_c, 0, 61, 64
1, 29242, Note_off_c, 0, 57, 64
1, 29248, Note_off_c, 0, 85, 64
1, 29278, Note_on_c, 0, 73, 51
1, 29334, Note_off_c, 0, 73, 64
1, 29440, Note_on_c, 0, 66, 34
1, 29450, Note_on_c, 0, 78, 45
1, 29456, Note_on_c, 0, 75, 39
1, 29460, Note_on_c, 0, 83, 62
1, 29462, Note_on_c, 0, 63, 36
1, 29472, Note_on_c, 0, 59, 22
1, 29502, Note_off_c, 0, 66, 64
1, 29510, Note_off_c, 0, 78, 64
1, 29514, Note_off_c, 0, 83, 64
1, 29516, Note_off_c, 0, 75, 64
1, 29518, Note_off_c, 0, 63, 64
1, 29576, Note_on_c, 0, 66, 37
1, 29588, Note_on_c, 0, 71, 58
1, 29590, Note_on_c, 0, 63, 64
1, 29634, Note_off_c, 0, 63, 64
1, 29637, Note_off_c, 0, 66, 64
1, 29641, Note_off_c, 0, 71, 64
1, 29648, Note_off_c, 0, 59, 64
1, 29732, Note_on_c, 0, 63, 44
1, 29732, Note_on_c, 0, 59, 45
1, 29732, Note_on_c, 0, 66, 34
1, 29738, Note_on_c, 0, 78, 46
1, 29738, Note_on_c, 0, 75, 52
1, 29742, Note_on_c, 0, 83, 70
1, 29786, Note_off_c, 0, 63, 64
1, 29794, Note_off_c, 0, 78, 64
1, 29796, Note_off_c, 0, 75, 64
1, 29796, Note_off_c, 0, 83, 64
1, 29798, Note_off_c, 0, 59, 64
1, 29830, Note_off_c, 0, 66, 64
1, 29838, Note_on_c, 0, 71, 68
1, 29884, Note_off_c, 0, 71, 64
1, 30006, Note_on_c, 0, 69, 48
1, 30012, Note_on_c, 0, 61, 62
1, 30026, Note_on_c, 0, 81, 60
1, 30036, Note_on_c, 0, 85, 70
1, 30042, Note_on_c, 0, 57, 53
1, 30045, Note_on_c, 0, 76, 41
1, 30056, Note_off_c, 0, 61, 64
1, 30068, Note_off_c, 0, 69, 64
1, 30080, Note_off_c, 0, 85, 64
1, 30090, Note_off_c, 0, 57, 64
1, 30092, Note_off_c, 0, 81, 64
1, 30104, Note_off_c, 0, 76, 64
1, 30126, Note_on_c, 0, 73, 59
1, 30176, Note_off_c, 0, 73, 64
1, 30372, Note_on_c, 0, 86, 44
1, 30374, Note_on_c, 0, 38, 47
1, 30374, Note_on_c, 0, 79, 40
1, 30380, Note_on_c, 0, 31, 45
1, 30382, Note_on_c, 0, 83, 43
1, 30390, Note_on_c, 0, 43, 30
1, 30458, Note_off_c, 0, 83, 64
1, 30474, Note_off_c, 0, 86, 64
1, 30474, Note_off_c, 0, 79, 64
1, 30474, Note_off_c, 0, 31, 64
1, 30506, Note_off_c, 0, 38, 64
1, 30508, Control_c, 0, 64, 127
1, 30514, Note_on_c, 0, 74, 48
1, 30516, Note_off_c, 0, 43, 64
1, 30562, Note_off_c, 0, 74, 64
1, 30682, Note_on_c, 0, 79, 52
1, 30696, Note_on_c, 0, 83, 63
1, 30738, Note_on_c, 0, 74, 22
1, 30766, Note_off_c, 0, 83, 64
1, 30794, Note_off_c, 0, 79, 64
1, 30818, Note_off_c, 0, 74, 64
1, 30818, Note_on_c, 0, 50, 52
1, 30870, Note_on_c, 0, 71, 20
1, 30896, Note_on_c, 0, 55, 43
1, 30932, Note_off_c, 0, 71, 64
1, 30974, Note_on_c, 0, 59, 46
1, 30982, Note_off_c, 0, 50, 64
1, 30984, Control_c, 0, 64, 0
1, 31002, Note_on_c, 0, 71, 63
1, 31018, Note_on_c, 0, 79, 51
1, 31020, Note_on_c, 0, 62, 57
1, 31020, Note_on_c, 0, 74, 44
1, 31024, Note_off_c, 0, 55, 64
1, 31052, Note_off_c, 0, 59, 64
1, 31090, Note_off_c, 0, 74, 64
1, 31122, Control_c, 0, 64, 127
1, 31134, Note_off_c, 0, 62, 64
1, 31150, Note_off_c, 0, 79, 64
1, 31164, Note_off_c, 0, 71, 64
1, 31172, Note_on_c, 0, 67, 54
1, 31224, Note_off_c, 0, 67, 64
1, 31308, Control_c, 0, 64, 0
1, 31336, Note_on_c, 0, 83, 100
1, 31336, Note_on_c, 0, 66, 46
1, 31346, Note_on_c, 0, 59, 51
1, 31348, Note_on_c, 0, 78, 50
1, 31350, Note_on_c, 0, 63, 51
1, 31354, Note_on_c, 0, 75, 49
1, 31400, Note_off_c, 0, 63, 64
1, 31406, Note_off_c, 0, 59, 64
1, 31412, Note_off_c, 0, 75, 64
1, 31422, Note_off_c, 0, 78, 64
1, 31424, Note_off_c, 0, 66, 64
1, 31462, Note_off_c, 0, 83, 64
1, 31488, Note_on_c, 0, 71, 71
1, 31542, Note_off_c, 0, 71, 64
1, 31640, Note_on_c, 0, 83, 97
1, 31648, Note_on_c, 0, 66, 42
1, 31650, Note_on_c, 0, 63, 44
1, 31656, Note_on_c, 0, 59, 44
1, 31662, Note_on_c, 0, 75, 38
1, 31666, Note_on_c, 0, 78, 33
1, 31690, Control_c, 0, 64, 127
1, 31700, Note_off_c, 0, 63, 64
1, 31710, Note_off_c, 0, 66, 64
1, 31713, Note_off_c, 0, 59, 64
1, 31732, Note_off_c, 0, 78, 64
1, 31734, Note_off_c, 0, 75, 64
1, 31754, Control_c, 0, 64, 0
1, 31762, Note_off_c, 0, 83, 64
1, 31774, Note_on_c, 0, 71, 73
1, 31818, Note_off_c, 0, 71, 64
1, 31916, Note_on_c, 0, 69, 57
1, 31922, Note_on_c, 0, 57, 51
1, 31928, Note_on_c, 0, 85, 75
1, 31930, Note_on_c, 0, 64, 46
1, 31931, Note_on_c, 0, 76, 60
1, 31931, Note_on_c, 0, 61, 58
1, 31931, Note_on_c, 0, 81, 54
1, 31976, Note_off_c, 0, 69, 64
1, 31978, Note_off_c, 0, 64, 64
1, 31979, Note_off_c, 0, 61, 64
1, 31984, Note_off_c, 0, 57, 64
1, 31988, Note_off_c, 0, 76, 64
1, 32054, Note_on_c, 0, 73, 69
1, 32066, Note_on_c, 0, 61, 50
1, 32069, Note_off_c, 0, 85, 64
1, 32069, Note_on_c, 0, 69, 49
1, 32070, Note_on_c, 0, 64, 46
1, 32078, Note_on_c, 0, 57, 30
1, 32088, Note_off_c, 0, 81, 64
1, 32108, Note_off_c, 0, 73, 64
1, 32118, Note_off_c, 0, 64, 64
1, 32120, Note_off_c, 0, 69, 64
1, 32126, Note_off_c, 0, 61, 64
1, 32148, Note_off_c, 0, 57, 64
1, 32214, Note_on_c, 0, 87, 80
1, 32226, Note_on_c, 0, 68, 66
1, 32232, Note_on_c, 0, 56, 50
1, 32232, Note_on_c, 0, 59, 64
1, 32240, Note_on_c, 0, 63, 58
1, 32240, Note_on_c, 0, 80, 59
1, 32252, Note_on_c, 0, 84, 42
1, 32254, Note_on_c, 0, 83, 61
1, 32272, Note_off_c, 0, 68, 64
1, 32282, Note_off_c, 0, 63, 64
1, 32284, Note_off_c, 0, 59, 64
1, 32286, Note_off_c, 0, 56, 64
1, 32304, Note_off_c, 0, 83, 64
1, 32307, Note_off_c, 0, 80, 64
1, 32307, Note_off_c, 0, 84, 64
1, 32356, Note_on_c, 0, 75, 73
1, 32359, Note_on_c, 0, 56, 54
1, 32370, Note_off_c, 0, 87, 64
1, 32370, Note_on_c, 0, 68, 48
1, 32382, Note_on_c, 0, 59, 44
1, 32388, Note_on_c, 0, 63, 32
1, 32422, Note_off_c, 0, 56, 64
1, 32426, Note_off_c, 0, 68, 64
1, 32430, Note_off_c, 0, 59, 64
1, 32438, Note_off_c, 0, 63, 64
1, 32448, Note_off_c, 0, 75, 64
1, 32512, Note_on_c, 0, 87, 68
1, 32512, Note_on_c, 0, 56, 59
1, 32515, Note_on_c, 0, 83, 83
1, 32520, Note_on_c, 0, 59, 51
1, 32522, Note_on_c, 0, 68, 56
1, 32525, Note_on_c, 0, 63, 54
1, 32540, Note_on_c, 0, 80, 41
1, 32558, Note_off_c, 0, 83, 64
1, 32588, Note_off_c, 0, 56, 64
1, 32592, Note_off_c, 0, 63, 64
1, 32610, Note_off_c, 0, 80, 64
1, 32613, Note_off_c, 0, 68, 64
1, 32622, Note_off_c, 0, 59, 64
1, 32624, Note_off_c, 0, 87, 64
1, 32644, Note_on_c, 0, 75, 67
1, 32706, Note_off_c, 0, 75, 64
1, 32814, Note_on_c, 0, 85, 73
1, 32826, Note_on_c, 0, 76, 51
1, 32826, Note_on_c, 0, 81, 57
1, 32832, Note_on_c, 0, 61, 56
1, 32834, Note_on_c, 0, 57, 36
1, 32844, Note_on_c, 0, 69, 25
1, 32854, Note_on_c, 0, 64, 35
1, 32876, Note_off_c, 0, 81, 64
1, 32898, Note_off_c, 0, 76, 64
1, 32909, Note_off_c, 0, 61, 64
1, 32909, Note_off_c, 0, 57, 64
1, 32916, Note_off_c, 0, 64, 64
1, 32918, Note_off_c, 0, 85, 64
1, 32920, Note_off_c, 0, 69, 64
1, 32944, Note_on_c, 0, 73, 62
1, 32994, Note_off_c, 0, 73, 64
1, 33106, Note_on_c, 0, 83, 100
1, 33108, Note_on_c, 0, 63, 50
1, 33111, Note_on_c, 0, 66, 60
1, 33112, Note_on_c, 0, 78, 53
1, 33112, Note_on_c, 0, 59, 47
1, 33120, Note_on_c, 0, 75, 50
1, 33154, Note_off_c, 0, 63, 64
1, 33157, Note_off_c, 0, 66, 64
1, 33162, Note_off_c, 0, 59, 64
1, 33166, Note_off_c, 0, 78, 64
1, 33174, Note_off_c, 0, 75, 64
1, 33220, Note_off_c, 0, 83, 64
1, 33240, Note_on_c, 0, 59, 57
1, 33248, Note_on_c, 0, 63, 50
1, 33248, Note_on_c, 0, 71, 67
1, 33250, Note_on_c, 0, 66, 36
1, 33292, Note_off_c, 0, 59, 64
1, 33294, Note_off_c, 0, 63, 64
1, 33300, Note_off_c, 0, 71, 64
1, 33304, Note_off_c, 0, 66, 64
1, 33390, Note_on_c, 0, 83, 99
1, 33393, Note_on_c, 0, 78, 65
1, 33402, Note_on_c, 0, 66, 46
1, 33402, Note_on_c, 0, 63, 52
1, 33402, Note_on_c, 0, 59, 55
1, 33412, Note_on_c, 0, 75, 44
1, 33454, Note_off_c, 0, 63, 64
1, 33457, Note_off_c, 0, 78, 64
1, 33460, Note_off_c, 0, 59, 64
1, 33462, Note_off_c, 0, 75, 64
1, 33484, Note_off_c, 0, 66, 64
1, 33498, Note_off_c, 0, 83, 64
1, 33522, Note_on_c, 0, 71, 72
1, 33568, Note_off_c, 0, 71, 64
1, 33694, Note_on_c, 0, 61, 60
1, 33696, Note_on_c, 0, 69, 29
1, 33706, Note_on_c, 0, 57, 48
1, 33708, Note_on_c, 0, 81, 55
1, 33708, Note_on_c, 0, 85, 74
1, 33720, Note_on_c, 0, 76, 41
1, 33742, Note_off_c, 0, 61, 64
1, 33752, Note_off_c, 0, 57, 64
1, 33770, Note_off_c, 0, 81, 64
1, 33772, Note_off_c, 0, 69, 64
1, 33780, Note_off_c, 0, 76, 64
1, 33806, Note_on_c, 0, 73, 56
1, 33812, Note_off_c, 0, 85, 64
1, 33858, Note_off_c, 0, 73, 64
1, 34016, Note_on_c, 0, 31, 71
1, 34022, Note_on_c, 0, 86, 62
1, 34028, Note_on_c, 0, 38, 59
1, 34028, Note_on_c, 0, 79, 55
1, 34030, Note_on_c, 0, 83, 66
1, 34060, Note_off_c, 0, 31, 64
1, 34074, Note_off_c, 0, 38, 64
1, 34094, Note_off_c, 0, 83, 64
1, 34118, Control_c, 0, 64, 127
1, 34140, Note_off_c, 0, 86, 64
1, 34144, Note_off_c, 0, 79, 64
1, 34164, Note_on_c, 0, 74, 50
1, 34214, Note_off_c, 0, 74, 64
1, 34304, Note_on_c, 0, 62, 77
1, 34320, Note_on_c, 0, 83, 80
1, 34324, Note_on_c, 0, 79, 62
1, 34340, Note_on_c, 0, 74, 24
1, 34344, Note_off_c, 0, 62, 64
1, 34350, Control_c, 0, 64, 0
1, 34384, Note_off_c, 0, 79, 64
1, 34410, Note_off_c, 0, 83, 64
1, 34440, Note_off_c, 0, 74, 64
1, 34456, Note_on_c, 0, 64, 62
1, 34456, Note_on_c, 0, 71, 60
1, 34498, Note_off_c, 0, 64, 64
1, 34504, Note_off_c, 0, 71, 64
1, 34598, Note_on_c, 0, 71, 41
1, 34602, Note_on_c, 0, 62, 72
1, 34604, Note_on_c, 0, 79, 50
1, 34610, Note_on_c, 0, 74, 42
1, 34666, Note_off_c, 0, 74, 64
1, 34674, Note_off_c, 0, 79, 64
1, 34686, Note_off_c, 0, 71, 64
1, 34696, Note_off_c, 0, 62, 64
1, 34718, Control_c, 0, 64, 127
1, 34728, Note_on_c, 0, 67, 50
1, 34784, Note_off_c, 0, 67, 64
1, 34842, Control_c, 0, 64, 0
1, 34890, Note_on_c, 0, 59, 66
1, 34958, Note_off_c, 0, 59, 64
1, 35036, Note_on_c, 0, 61, 64
1, 35038, Note_on_c, 0, 74, 59
1, 35084, Note_off_c, 0, 61, 64
1, 35087, Note_off_c, 0, 74, 64
1, 35180, Note_on_c, 0, 74, 46
1, 35192, Note_on_c, 0, 62, 65
1, 35308, Note_off_c, 0, 62, 64
1, 35318, Note_off_c, 0, 74, 64
1, 35322, Note_on_c, 0, 71, 55
1, 35332, Control_c, 0, 64, 127
1, 35374, Note_off_c, 0, 71, 64
1, 35410, Control_c, 0, 64, 0
1, 35466, Note_on_c, 0, 64, 67
1, 35472, Note_on_c, 0, 71, 42
1, 35482, Note_on_c, 0, 79, 54
1, 35494, Note_on_c, 0, 74, 37
1, 35510, Note_off_c, 0, 64, 64
1, 35546, Note_off_c, 0, 79, 64
1, 35549, Note_off_c, 0, 74, 64
1, 35558, Note_off_c, 0, 71, 64
1, 35608, Note_on_c, 0, 66, 55
1, 35652, Note_off_c, 0, 66, 64
1, 35760, Note_on_c, 0, 64, 75
1, 35774, Note_on_c, 0, 86, 57
1, 35784, Note_on_c, 0, 79, 61
1, 35784, Note_on_c, 0, 83, 67
1, 35808, Note_off_c, 0, 64, 64
1, 35832, Note_off_c, 0, 86, 64
1, 35840, Note_off_c, 0, 79, 64
1, 35840, Note_off_c, 0, 83, 64
1, 35906, Note_on_c, 0, 74, 61
1, 35910, Note_on_c, 0, 66, 61
1, 35950, Note_off_c, 0, 74, 64
1, 35952, Note_off_c, 0, 66, 64
1, 36056, Note_on_c, 0, 79, 69
1, 36059, Note_on_c, 0, 64, 78
1, 36059, Note_on_c, 0, 83, 85
1, 36063, Note_on_c, 0, 74, 34
1, 36144, Note_off_c, 0, 79, 64
1, 36147, Note_off_c, 0, 83, 64
1, 36186, Note_off_c, 0, 64, 64
1, 36200, Note_on_c, 0, 71, 64
1, 36206, Note_off_c, 0, 74, 64
1, 36248, Note_off_c, 0, 71, 64
1, 36340, Note_on_c, 0, 59, 65
1, 36342, Note_on_c, 0, 79, 76
1, 36350, Note_on_c, 0, 71, 48
1, 36368, Note_on_c, 0, 74, 48
1, 36396, Note_off_c, 0, 59, 64
1, 36414, Note_off_c, 0, 74, 64
1, 36432, Note_off_c, 0, 79, 64
1, 36435, Note_off_c, 0, 71, 64
1, 36472, Note_on_c, 0, 67, 67
1, 36484, Note_on_c, 0, 62, 62
1, 36522, Note_off_c, 0, 67, 64
1, 36528, Note_off_c, 0, 62, 64
1, 36632, Note_on_c, 0, 64, 89
1, 36634, Note_on_c, 0, 79, 80
1, 36636, Note_on_c, 0, 71, 73
1, 36642, Note_on_c, 0, 61, 73
1, 36646, Note_on_c, 0, 76, 43
1, 36656, Note_on_c, 0, 59, 47
1, 36686, Control_c, 0, 64, 127
1, 36746, Note_off_c, 0, 79, 64
1, 36768, Note_on_c, 0, 67, 67
1, 36772, Note_off_c, 0, 71, 64
1, 36790, Note_off_c, 0, 76, 64
1, 36818, Note_off_c, 0, 67, 64
1, 36852, Note_off_c, 0, 64, 64
1, 36886, Note_off_c, 0, 61, 64
1, 36914, Note_off_c, 0, 59, 64
1, 36922, Note_on_c, 0, 83, 105
1, 36932, Note_on_c, 0, 76, 59
1, 36934, Note_on_c, 0, 79, 76
1, 36994, Note_off_c, 0, 76, 64
1, 37058, Note_on_c, 0, 71, 74
1, 37068, Note_off_c, 0, 83, 64
1, 37092, Note_off_c, 0, 79, 64
1, 37102, Note_off_c, 0, 71, 64
1, 37234, Note_on_c, 0, 88, 82
1, 37237, Note_on_c, 0, 79, 74
1, 37240, Note_on_c, 0, 83, 78
1, 37308, Note_off_c, 0, 79, 64
1, 37370, Note_off_c, 0, 88, 64
1, 37378, Note_off_c, 0, 83, 64
1, 37382, Note_on_c, 0, 76, 48
1, 37434, Note_off_c, 0, 76, 64
1, 37500, Control_c, 0, 64, 0
1, 37558, Note_on_c, 0, 86, 58
1, 37561, Note_on_c, 0, 43, 45
1, 37561, Note_on_c, 0, 31, 49
1, 37565, Note_on_c, 0, 79, 54
1, 37570, Note_on_c, 0, 38, 51
1, 37584, Note_on_c, 0, 83, 63
1, 37614, Note_off_c, 0, 31, 64
1, 37626, Note_off_c, 0, 43, 64
1, 37628, Note_off_c, 0, 38, 64
1, 37680, Note_off_c, 0, 83, 64
1, 37698, Control_c, 0, 64, 127
1, 37700, Note_off_c, 0, 86, 64
1, 37706, Note_off_c, 0, 79, 64
1, 37714, Note_on_c, 0, 74, 54
1, 37760, Note_off_c, 0, 74, 64
1, 37856, Note_on_c, 0, 83, 81
1, 37864, Note_on_c, 0, 79, 66
1, 37866, Note_on_c, 0, 62, 60
1, 37868, Control_c, 0, 64, 0
1, 37871, Note_on_c, 0, 74, 31
1, 37914, Note_off_c, 0, 62, 64
1, 37922, Note_off_c, 0, 79, 64
1, 37964, Note_off_c, 0, 83, 64
1, 37982, Note_off_c, 0, 74, 64
1, 38000, Note_on_c, 0, 71, 72
1, 38008, Note_on_c, 0, 64, 52
1, 38046, Note_off_c, 0, 71, 64
1, 38058, Note_off_c, 0, 64, 64
1, 38130, Note_on_c, 0, 79, 83
1, 38138, Note_on_c, 0, 74, 62
1, 38138, Note_on_c, 0, 71, 43
1, 38141, Note_on_c, 0, 62, 71
1, 38196, Note_off_c, 0, 74, 64
1, 38222, Control_c, 0, 64, 127
1, 38238, Note_off_c, 0, 71, 64
1, 38242, Note_off_c, 0, 79, 64
1, 38248, Note_off_c, 0, 62, 64
1, 38268, Note_on_c, 0, 67, 74
1, 38310, Note_off_c, 0, 67, 64
1, 38344, Control_c, 0, 64, 0
1, 38430, Note_on_c, 0, 59, 80
1, 38444, Note_on_c, 0, 86, 79
1, 38444, Note_on_c, 0, 79, 83
1, 38447, Note_on_c, 0, 83, 92
1, 38486, Note_off_c, 0, 59, 64
1, 38498, Note_off_c, 0, 79, 64
1, 38546, Note_off_c, 0, 83, 64
1, 38556, Note_on_c, 0, 61, 83
1, 38560, Note_off_c, 0, 86, 64
1, 38584, Note_on_c, 0, 74, 65
1, 38604, Note_off_c, 0, 61, 64
1, 38630, Note_off_c, 0, 74, 64
1, 38726, Note_on_c, 0, 62, 89
1, 38726, Note_on_c, 0, 83, 87
1, 38726, Note_on_c, 0, 79, 69
1, 38750, Note_on_c, 0, 74, 15
1, 38834, Note_off_c, 0, 62, 64
1, 38834, Note_off_c, 0, 83, 64
1, 38837, Control_c, 0, 64, 127
1, 38842, Note_off_c, 0, 79, 64
1, 38854, Note_on_c, 0, 71, 78
1, 38884, Note_off_c, 0, 74, 64
1, 38900, Note_off_c, 0, 71, 64
1, 38944, Control_c, 0, 64, 0
1, 38996, Note_on_c, 0, 64, 74
1, 39024, Note_on_c, 0, 71, 44
1, 39024, Note_on_c, 0, 79, 35
1, 39040, Note_off_c, 0, 64, 64
1, 39046, Note_on_c, 0, 74, 11
1, 39088, Note_off_c, 0, 71, 64
1, 39094, Note_off_c, 0, 79, 64
1, 39104, Note_off_c, 0, 74, 64
1, 39122, Note_on_c, 0, 67, 73
1, 39136, Note_on_c, 0, 66, 73
1, 39164, Note_off_c, 0, 67, 64
1, 39178, Note_off_c, 0, 66, 64
1, 39274, Note_on_c, 0, 86, 88
1, 39282, Note_on_c, 0, 79, 88
1, 39284, Note_on_c, 0, 64, 93
1, 39284, Note_on_c, 0, 83, 95
1, 39344, Note_off_c, 0, 64, 64
1, 39348, Note_off_c, 0, 79, 64
1, 39392, Note_off_c, 0, 83, 64
1, 39402, Note_off_c, 0, 86, 64
1, 39414, Note_on_c, 0, 74, 78
1, 39422, Note_on_c, 0, 66, 79
1, 39460, Note_off_c, 0, 74, 64
1, 39480, Note_off_c, 0, 66, 64
1, 39564, Note_on_c, 0, 79, 78
1, 39566, Note_on_c, 0, 83, 98
1, 39568, Note_on_c, 0, 64, 97
1, 39582, Note_on_c, 0, 74, 53
1, 39682, Note_off_c, 0, 64, 64
1, 39690, Note_off_c, 0, 83, 64
1, 39692, Note_off_c, 0, 79, 64
1, 39704, Note_on_c, 0, 71, 81
1, 39718, Note_off_c, 0, 74, 64
1, 39752, Note_off_c, 0, 71, 64
1, 39846, Note_on_c, 0, 59, 78
1, 39854, Note_on_c, 0, 71, 65
1, 39854, Note_on_c, 0, 79, 79
1, 39886, Note_on_c, 0, 74, 49
1, 39926, Note_off_c, 0, 59, 64
1, 39932, Note_off_c, 0, 71, 64
1, 39942, Note_off_c, 0, 74, 64
1, 39954, Note_off_c, 0, 79, 64
1, 39976, Note_on_c, 0, 62, 80
1, 39978, Note_on_c, 0, 67, 83
1, 40014, Note_off_c, 0, 62, 64
1, 40022, Note_off_c, 0, 67, 64
1, 40126, Note_on_c, 0, 64, 97
1, 40134, Note_on_c, 0, 59, 73
1, 40138, Note_on_c, 0, 61, 73
1, 40140, Note_on_c, 0, 76, 56
1, 40142, Note_on_c, 0, 79, 78
1, 40150, Note_on_c, 0, 73, 52
1, 40234, Control_c, 0, 64, 127
1, 40264, Note_off_c, 0, 79, 64
1, 40264, Note_on_c, 0, 67, 74
1, 40306, Note_off_c, 0, 64, 64
1, 40309, Note_off_c, 0, 67, 64
1, 40320, Note_off_c, 0, 76, 64
1, 40328, Note_off_c, 0, 73, 64
1, 40426, Note_on_c, 0, 82, 83
1, 40429, Note_on_c, 0, 67, 79
1, 40429, Note_on_c, 0, 79, 78
1, 40462, Note_on_c, 0, 76, 33
1, 40530, Note_off_c, 0, 79, 64
1, 40548, Note_on_c, 0, 70, 75
1, 40560, Note_off_c, 0, 59, 64
1, 40560, Note_off_c, 0, 76, 64
1, 40562, Note_off_c, 0, 67, 64
1, 40588, Note_off_c, 0, 61, 64
1, 40612, Note_off_c, 0, 70, 64
1, 40634, Note_off_c, 0, 82, 64
1, 40728, Note_on_c, 0, 70, 91
1, 40731, Note_on_c, 0, 85, 94
1, 40736, Note_on_c, 0, 79, 78
1, 40754, Note_on_c, 0, 76, 50
1, 40842, Note_off_c, 0, 70, 64
1, 40868, Note_off_c, 0, 79, 64
1, 40868, Note_on_c, 0, 73, 75
1, 40904, Note_off_c, 0, 76, 64
1, 40930, Note_off_c, 0, 73, 64
1, 40944, Note_off_c, 0, 85, 64
1, 41002, Control_c, 0, 64, 0
1, 41042, Note_on_c, 0, 71, 88
1, 41045, Note_on_c, 0, 88, 103
1, 41048, Note_on_c, 0, 59, 62
1, 41050, Note_on_c, 0, 76, 100
1, 41054, Note_on_c, 0, 68, 61
1, 41065, Note_on_c, 0, 86, 96
1, 41080, Note_on_c, 0, 64, 48
1, 41100, Note_off_c, 0, 59, 64
1, 41108, Note_off_c, 0, 71, 64
1, 41126, Note_off_c, 0, 64, 64
1, 41128, Note_off_c, 0, 68, 64
1, 41170, Note_off_c, 0, 88, 64
1, 41196, Note_on_c, 0, 71, 61
1, 41196, Note_on_c, 0, 68, 58
1, 41202, Control_c, 0, 64, 127
1, 41210, Note_on_c, 0, 59, 31
1, 41213, Note_on_c, 0, 64, 37
1, 41230, Note_off_c, 0, 76, 64
1, 41234, Note_off_c, 0, 86, 64
1, 41264, Note_off_c, 0, 71, 64
1, 41270, Note_off_c, 0, 64, 64
1, 41278, Note_off_c, 0, 59, 64
1, 41308, Note_off_c, 0, 68, 64
1, 41372, Note_on_c, 0, 71, 84
1, 41378, Note_on_c, 0, 90, 97
1, 41380, Note_on_c, 0, 78, 101
1, 41382, Note_on_c, 0, 68, 43
1, 41384, Note_on_c, 0, 59, 45
1, 41386, Control_c, 0, 64, 0
1, 41400, Note_on_c, 0, 64, 53
1, 41416, Note_off_c, 0, 71, 64
1, 41430, Note_off_c, 0, 68, 64
1, 41444, Note_off_c, 0, 64, 64
1, 41446, Note_off_c, 0, 59, 64
1, 41528, Note_off_c, 0, 90, 64
1, 41540, Control_c, 0, 64, 127
1, 41545, Note_on_c, 0, 69, 70
1, 41550, Note_off_c, 0, 78, 64
1, 41552, Note_on_c, 0, 61, 74
1, 41554, Note_on_c, 0, 59, 43
1, 41576, Note_on_c, 0, 64, 29
1, 41594, Note_off_c, 0, 69, 64
1, 41604, Note_off_c, 0, 59, 64
1, 41630, Note_off_c, 0, 64, 64
1, 41650, Note_off_c, 0, 61, 64
1, 41692, Note_on_c, 0, 83, 110
1, 41700, Note_on_c, 0, 71, 94
1, 41706, Note_on_c, 0, 69, 48
1, 41710, Note_on_c, 0, 64, 48
1, 41716, Note_on_c, 0, 61, 54
1, 41716, Note_on_c, 0, 59, 30
1, 41734, Note_off_c, 0, 71, 64
1, 41736, Note_off_c, 0, 83, 64
1, 41756, Control_c, 0, 64, 0
1, 41759, Note_off_c, 0, 69, 64
1, 41770, Note_off_c, 0, 64, 64
1, 41770, Note_off_c, 0, 61, 64
1, 41773, Note_off_c, 0, 59, 64
1, 41842, Note_on_c, 0, 69, 50
1, 41844, Note_on_c, 0, 73, 95
1, 41844, Note_on_c, 0, 85, 97
1, 41844, Note_on_c, 0, 61, 56
1, 41846, Note_on_c, 0, 64, 64
1, 41848, Note_on_c, 0, 59, 60
1, 41892, Note_off_c, 0, 64, 64
1, 41895, Note_off_c, 0, 59, 64
1, 41898, Note_off_c, 0, 73, 64
1, 41930, Note_off_c, 0, 61, 64
1, 41936, Note_off_c, 0, 69, 64
1, 41948, Note_off_c, 0, 85, 64
1, 42038, Note_on_c, 0, 71, 94
1, 42040, Note_on_c, 0, 88, 110
1, 42044, Note_on_c, 0, 59, 75
1, 42044, Note_on_c, 0, 76, 95
1, 42045, Note_on_c, 0, 64, 57
1, 42052, Note_on_c, 0, 68, 63
1, 42078, Control_c, 0, 64, 127
1, 42082, Note_off_c, 0, 76, 64
1, 42106, Note_off_c, 0, 64, 64
1, 42118, Note_off_c, 0, 59, 64
1, 42124, Note_off_c, 0, 88, 64
1, 42128, Note_off_c, 0, 71, 64
1, 42136, Note_off_c, 0, 68, 64
1, 42208, Note_on_c, 0, 68, 62
1, 42216, Note_on_c, 0, 71, 59
1, 42219, Note_on_c, 0, 64, 57
1, 42222, Note_on_c, 0, 59, 47
1, 42280, Note_off_c, 0, 64, 64
1, 42280, Note_off_c, 0, 59, 64
1, 42300, Note_off_c, 0, 71, 64
1, 42320, Note_off_c, 0, 68, 64
1, 42384, Note_on_c, 0, 71, 81
1, 42390, Note_on_c, 0, 83, 119
1, 42392, Note_on_c, 0, 95, 106
1, 42392, Note_on_c, 0, 68, 49
1, 42404, Note_on_c, 0, 59, 49
1, 42432, Control_c, 0, 64, 0
1, 42438, Note_off_c, 0, 71, 64
1, 42438, Note_on_c, 0, 64, 39
1, 42441, Note_off_c, 0, 68, 64
1, 42458, Note_off_c, 0, 59, 64
1, 42492, Note_off_c, 0, 64, 64
1, 42554, Note_on_c, 0, 59, 57
1, 42554, Note_on_c, 0, 69, 76
1, 42564, Note_on_c, 0, 61, 72
1, 42578, Note_on_c, 0, 64, 40
1, 42580, Note_off_c, 0, 95, 64
1, 42596, Note_off_c, 0, 83, 64
1, 42612, Note_off_c, 0, 69, 64
1, 42614, Note_off_c, 0, 59, 64
1, 42630, Note_off_c, 0, 64, 64
1, 42632, Note_off_c, 0, 61, 64
1, 42632, Control_c, 0, 64, 127
1, 42718, Note_on_c, 0, 61, 55
1, 42722, Note_on_c, 0, 69, 65
1, 42724, Note_on_c, 0, 78, 95
1, 42726, Note_on_c, 0, 90, 95
1, 42730, Note_on_c, 0, 64, 50
1, 42734, Note_on_c, 0, 59, 38
1, 42786, Note_off_c, 0, 64, 64
1, 42788, Note_off_c, 0, 59, 64
1, 42794, Note_off_c, 0, 69, 64
1, 42800, Control_c, 0, 64, 0
1, 42802, Note_off_c, 0, 61, 64
1, 42878, Note_on_c, 0, 69, 67
1, 42880, Note_on_c, 0, 61, 61
1, 42888, Note_on_c, 0, 59, 55
1, 42888, Note_on_c, 0, 64, 52
1, 42932, Note_off_c, 0, 64, 64
1, 42936, Note_off_c, 0, 59, 64
1, 42944, Note_off_c, 0, 69, 64
1, 42966, Note_off_c, 0, 61, 64
1, 43040, Note_on_c, 0, 71, 103
1, 43050, Note_on_c, 0, 68, 76
1, 43050, Note_on_c, 0, 59, 67
1, 43053, Note_off_c, 0, 90, 64
1, 43062, Control_c, 0, 64, 127
1, 43082, Note_on_c, 0, 64, 42
1, 43085, Note_off_c, 0, 71, 64
1, 43092, Note_on_c, 0, 65, 23
1, 43098, Note_off_c, 0, 59, 64
1, 43100, Note_off_c, 0, 78, 64
1, 43120, Note_off_c, 0, 68, 64
1, 43134, Note_off_c, 0, 64, 64
1, 43166, Note_off_c, 0, 65, 64
1, 43186, Note_on_c, 0, 68, 74
1, 43192, Note_on_c, 0, 59, 54
1, 43192, Note_on_c, 0, 71, 78
1, 43198, Note_on_c, 0, 64, 64
1, 43206, Note_on_c, 0, 88, 100
1, 43212, Note_on_c, 0, 76, 88
1, 43238, Note_off_c, 0, 71, 64
1, 43244, Note_off_c, 0, 59, 64
1, 43247, Note_off_c, 0, 76, 64
1, 43247, Control_c, 0, 64, 0
1, 43254, Note_off_c, 0, 64, 64
1, 43254, Note_off_c, 0, 88, 64
1, 43268, Note_off_c, 0, 68, 64
1, 43346, Note_on_c, 0, 71, 77
1, 43350, Note_on_c, 0, 59, 59
1, 43360, Note_on_c, 0, 68, 41
1, 43362, Note_on_c, 0, 78, 95
1, 43362, Note_on_c, 0, 90, 94
1, 43378, Note_on_c, 0, 64, 47
1, 43406, Note_off_c, 0, 90, 64
1, 43408, Note_off_c, 0, 71, 64
1, 43414, Note_off_c, 0, 68, 64
1, 43418, Note_off_c, 0, 59, 64
1, 43424, Note_off_c, 0, 64, 64
1, 43428, Note_off_c, 0, 78, 64
1, 43532, Note_on_c, 0, 69, 81
1, 43540, Note_on_c, 0, 83, 117
1, 43542, Note_on_c, 0, 61, 67
1, 43544, Note_on_c, 0, 71, 106
1, 43544, Note_on_c, 0, 59, 49
1, 43552, Note_on_c, 0, 64, 42
1, 43570, Control_c, 0, 64, 127
1, 43586, Note_off_c, 0, 69, 64
1, 43594, Note_off_c, 0, 59, 64
1, 43606, Note_off_c, 0, 64, 64
1, 43616, Note_off_c, 0, 61, 64
1, 43630, Note_off_c, 0, 71, 64
1, 43676, Note_off_c, 0, 83, 64
1, 43686, Note_on_c, 0, 69, 57
1, 43689, Note_on_c, 0, 61, 62
1, 43692, Note_on_c, 0, 59, 34
1, 43696, Note_on_c, 0, 64, 49
1, 43744, Note_off_c, 0, 69, 64
1, 43748, Note_off_c, 0, 59, 64
1, 43752, Note_off_c, 0, 64, 64
1, 43762, Note_off_c, 0, 61, 64
1, 43850, Note_on_c, 0, 85, 94
1, 43850, Note_on_c, 0, 73, 84
1, 43862, Note_on_c, 0, 69, 61
1, 43870, Note_on_c, 0, 64, 52
1, 43884, Note_off_c, 0, 73, 64
1, 43886, Note_on_c, 0, 61, 31
1, 43914, Note_off_c, 0, 69, 64
1, 43917, Note_off_c, 0, 64, 64
1, 43922, Control_c, 0, 64, 0
1, 43934, Note_off_c, 0, 85, 64
1, 43944, Note_off_c, 0, 61, 64
1, 44030, Note_on_c, 0, 88, 107
1, 44032, Note_on_c, 0, 71, 97
1, 44032, Note_on_c, 0, 59, 84
1, 44038, Note_on_c, 0, 76, 93
1, 44042, Note_on_c, 0, 68, 71
1, 44080, Note_on_c, 0, 64, 36
1, 44110, Note_off_c, 0, 68, 64
1, 44113, Note_off_c, 0, 59, 64
1, 44120, Note_off_c, 0, 71, 64
1, 44140, Note_off_c, 0, 64, 64
1, 44168, Control_c, 0, 64, 127
1, 44184, Note_on_c, 0, 59, 73
1, 44184, Note_on_c, 0, 68, 61
1, 44187, Note_on_c, 0, 71, 75
1, 44210, Note_on_c, 0, 64, 69
1, 44236, Note_off_c, 0, 88, 64
1, 44242, Note_off_c, 0, 59, 64
1, 44252, Note_off_c, 0, 64, 64
1, 44270, Note_off_c, 0, 71, 64
1, 44290, Note_off_c, 0, 68, 64
1, 44308, Note_off_c, 0, 76, 64
1, 44344, Note_on_c, 0, 71, 75
1, 44352, Note_on_c, 0, 59, 51
1, 44358, Note_on_c, 0, 68, 50
1, 44374, Note_on_c, 0, 64, 42
1, 44410, Note_off_c, 0, 68, 64
1, 44412, Note_off_c, 0, 71, 64
1, 44422, Note_off_c, 0, 64, 64
1, 44424, Note_off_c, 0, 59, 64
1, 44444, Control_c, 0, 64, 0
1, 44520, Note_on_c, 0, 83, 113
1, 44528, Note_on_c, 0, 71, 102
1, 44530, Note_on_c, 0, 69, 67
1, 44534, Note_on_c, 0, 59, 54
1, 44540, Note_on_c, 0, 61, 73
1, 44572, Note_on_c, 0, 64, 38
1, 44584, Note_off_c, 0, 59, 64
1, 44606, Note_off_c, 0, 69, 64
1, 44626, Note_off_c, 0, 64, 64
1, 44634, Note_off_c, 0, 71, 64
1, 44660, Control_c, 0, 64, 127
1, 44676, Note_on_c, 0, 69, 56
1, 44696, Note_on_c, 0, 59, 37
1, 44706, Note_on_c, 0, 64, 68
1, 44718, Note_off_c, 0, 83, 64
1, 44738, Note_off_c, 0, 69, 64
1, 44752, Note_off_c, 0, 64, 64
1, 44756, Note_off_c, 0, 59, 64
1, 44770, Note_off_c, 0, 61, 64
1, 44848, Note_on_c, 0, 61, 61
1, 44856, Note_on_c, 0, 64, 57
1, 44862, Note_on_c, 0, 69, 58
1, 44902, Note_off_c, 0, 64, 64
1, 44920, Note_off_c, 0, 69, 64
1, 44936, Note_off_c, 0, 61, 64
1, 44936, Control_c, 0, 64, 0
1, 45030, Note_on_c, 0, 88, 105
1, 45030, Note_on_c, 0, 76, 105
1, 45036, Note_on_c, 0, 59, 74
1, 45036, Note_on_c, 0, 71, 92
1, 45036, Note_on_c, 0, 68, 79
1, 45062, Note_on_c, 0, 64, 65
1, 45084, Note_off_c, 0, 71, 64
1, 45104, Note_off_c, 0, 64, 64
1, 45112, Note_off_c, 0, 59, 64
1, 45138, Note_off_c, 0, 68, 64
1, 45170, Note_off_c, 0, 76, 64
1, 45182, Control_c, 0, 64, 127
1, 45194, Note_on_c, 0, 68, 68
1, 45206, Note_on_c, 0, 71, 73
1, 45212, Note_on_c, 0, 64, 39
1, 45214, Note_off_c, 0, 88, 64
1, 45214, Note_on_c, 0, 59, 50
1, 45264, Note_off_c, 0, 71, 64
1, 45268, Note_off_c, 0, 64, 64
1, 45268, Note_off_c, 0, 59, 64
1, 45318, Note_off_c, 0, 68, 64
1, 45336, Control_c, 0, 64, 0
1, 45374, Note_on_c, 0, 90, 97
1, 45374, Note_on_c, 0, 71, 82
1, 45377, Note_on_c, 0, 78, 103
1, 45380, Note_on_c, 0, 59, 61
1, 45380, Note_on_c, 0, 68, 55
1, 45406, Note_on_c, 0, 64, 50
1, 45418, Note_off_c, 0, 71, 64
1, 45434, Note_off_c, 0, 59, 64
1, 45437, Note_off_c, 0, 68, 64
1, 45450, Note_off_c, 0, 64, 64
1, 45506, Note_off_c, 0, 90, 64
1, 45520, Note_off_c, 0, 78, 64
1, 45520, Control_c, 0, 64, 127
1, 45548, Note_on_c, 0, 69, 72
1, 45556, Note_on_c, 0, 61, 69
1, 45562, Note_on_c, 0, 59, 42
1, 45590, Note_on_c, 0, 64, 23
1, 45604, Note_off_c, 0, 69, 64
1, 45614, Note_off_c, 0, 59, 64
1, 45640, Note_off_c, 0, 61, 64
1, 45648, Note_off_c, 0, 64, 64
1, 45708, Note_on_c, 0, 61, 67
1, 45714, Note_on_c, 0, 71, 99
1, 45714, Note_on_c, 0, 83, 106
1, 45718, Note_on_c, 0, 69, 52
1, 45720, Note_on_c, 0, 64, 61
1, 45752, Note_off_c, 0, 71, 64
1, 45752, Note_off_c, 0, 83, 64
1, 45768, Note_off_c, 0, 69, 64
1, 45772, Note_off_c, 0, 64, 64
1, 45782, Note_off_c, 0, 61, 64
1, 45828, Control_c, 0, 64, 0
1, 45868, Note_on_c, 0, 73, 84
1, 45868, Note_on_c, 0, 85, 92
1, 45871, Note_on_c, 0, 69, 47
1, 45876, Note_on_c, 0, 61, 54
1, 45884, Note_on_c, 0, 59, 42
1, 45906, Note_on_c, 0, 64, 25
1, 45912, Note_off_c, 0, 73, 64
1, 45920, Note_off_c, 0, 85, 64
1, 45924, Note_off_c, 0, 69, 64
1, 45936, Note_off_c, 0, 59, 64
1, 45939, Note_off_c, 0, 61, 64
1, 45972, Note_off_c, 0, 64, 64
1, 46042, Note_on_c, 0, 88, 103
1, 46044, Note_on_c, 0, 71, 89
1, 46044, Note_on_c, 0, 76, 98
1, 46046, Note_on_c, 0, 68, 73
1, 46046, Note_on_c, 0, 59, 57
1, 46056, Note_on_c, 0, 64, 48
1, 46086, Note_off_c, 0, 71, 64
1, 46086, Note_off_c, 0, 76, 64
1, 46094, Note_off_c, 0, 59, 64
1, 46106, Note_off_c, 0, 64, 64
1, 46120, Control_c, 0, 64, 127
1, 46123, Note_off_c, 0, 68, 64
1, 46132, Note_off_c, 0, 88, 64
1, 46192, Note_on_c, 0, 68, 67
1, 46202, Note_on_c, 0, 59, 58
1, 46205, Note_on_c, 0, 71, 73
1, 46210, Note_on_c, 0, 64, 50
1, 46260, Note_off_c, 0, 71, 64
1, 46260, Note_off_c, 0, 64, 64
1, 46262, Note_off_c, 0, 59, 64
1, 46308, Note_off_c, 0, 68, 64
1, 46372, Note_on_c, 0, 71, 79
1, 46375, Note_on_c, 0, 95, 103
1, 46375, Note_on_c, 0, 83, 119
1, 46378, Note_on_c, 0, 59, 54
1, 46378, Note_on_c, 0, 68, 44
1, 46396, Control_c, 0, 64, 0
1, 46404, Note_on_c, 0, 64, 50
1, 46422, Note_off_c, 0, 71, 64
1, 46434, Note_off_c, 0, 68, 64
1, 46436, Note_off_c, 0, 59, 64
1, 46450, Note_off_c, 0, 64, 64
1, 46542, Note_on_c, 0, 69, 69
1, 46546, Note_off_c, 0, 95, 64
1, 46548, Note_off_c, 0, 83, 64
1, 46552, Note_on_c, 0, 59, 46
1, 46558, Note_on_c, 0, 61, 66
1, 46564, Control_c, 0, 64, 127
1, 46576, Note_on_c, 0, 64, 25
1, 46596, Note_off_c, 0, 69, 64
1, 46604, Note_off_c, 0, 59, 64
1, 46612, Note_off_c, 0, 61, 64
1, 46628, Note_off_c, 0, 64, 64
1, 46704, Note_on_c, 0, 90, 90
1, 46704, Note_on_c, 0, 61, 49
1, 46706, Note_on_c, 0, 78, 92
1, 46710, Note_on_c, 0, 69, 60
1, 46722, Note_on_c, 0, 59, 33
1, 46722, Note_on_c, 0, 64, 42
1, 46762, Note_off_c, 0, 69, 64
1, 46774, Note_off_c, 0, 64, 64
1, 46777, Note_off_c, 0, 59, 64
1, 46790, Note_off_c, 0, 61, 64
1, 46842, Control_c, 0, 64, 0
1, 46856, Note_on_c, 0, 61, 76
1, 46862, Note_on_c, 0, 69, 44
1, 46864, Note_on_c, 0, 64, 62
1, 46876, Note_on_c, 0, 59, 39
1, 46918, Note_off_c, 0, 64, 64
1, 46926, Note_off_c, 0, 69, 64
1, 46928, Note_off_c, 0, 59, 64
1, 46938, Note_off_c, 0, 61, 64
1, 47008, Note_on_c, 0, 59, 76
1, 47014, Note_on_c, 0, 71, 97
1, 47020, Note_on_c, 0, 68, 74
1, 47040, Control_c, 0, 64, 127
1, 47056, Note_off_c, 0, 71, 64
1, 47058, Note_off_c, 0, 59, 64
1, 47061, Note_off_c, 0, 90, 64
1, 47070, Note_off_c, 0, 68, 64
1, 47076, Note_on_c, 0, 64, 21
1, 47079, Note_off_c, 0, 78, 64
1, 47148, Note_on_c, 0, 68, 66
1, 47164, Note_on_c, 0, 71, 64
1, 47164, Note_on_c, 0, 76, 87
1, 47166, Note_on_c, 0, 88, 85
1, 47186, Note_on_c, 0, 59, 25
1, 47206, Note_off_c, 0, 76, 64
1, 47212, Note_off_c, 0, 71, 64
1, 47220, Note_off_c, 0, 64, 64
1, 47222, Note_off_c, 0, 88, 64
1, 47248, Note_off_c, 0, 68, 64
1, 47252, Note_off_c, 0, 59, 64
1, 47312, Note_on_c, 0, 71, 57
1, 47315, Note_on_c, 0, 78, 94
1, 47318, Note_on_c, 0, 90, 88
1, 47318, Note_on_c, 0, 68, 50
1, 47321, Note_on_c, 0, 59, 55
1, 47348, Note_on_c, 0, 64, 34
1, 47358, Note_off_c, 0, 90, 64
1, 47360, Note_off_c, 0, 71, 64
1, 47368, Note_off_c, 0, 68, 64
1, 47374, Note_off_c, 0, 59, 64
1, 47394, Control_c, 0, 64, 0
1, 47402, Note_off_c, 0, 64, 64
1, 47405, Note_off_c, 0, 78, 64
1, 47478, Note_on_c, 0, 69, 81
1, 47490, Note_on_c, 0, 59, 48
1, 47492, Note_on_c, 0, 83, 116
1, 47494, Note_on_c, 0, 71, 110
1, 47494, Note_on_c, 0, 61, 68
1, 47508, Note_on_c, 0, 64, 38
1, 47524, Note_off_c, 0, 69, 64
1, 47540, Note_off_c, 0, 59, 64
1, 47556, Note_off_c, 0, 61, 64
1, 47558, Note_off_c, 0, 64, 64
1, 47593, Control_c, 0, 64, 127
1, 47604, Note_off_c, 0, 71, 64
1, 47630, Note_on_c, 0, 61, 65
1, 47636, Note_on_c, 0, 59, 41
1, 47638, Note_off_c, 0, 83, 64
1, 47638, Note_on_c, 0, 69, 60
1, 47660, Note_on_c, 0, 64, 34
1, 47686, Note_off_c, 0, 59, 64
1, 47696, Note_off_c, 0, 69, 64
1, 47712, Note_off_c, 0, 64, 64
1, 47740, Note_off_c, 0, 61, 64
1, 47782, Note_on_c, 0, 69, 57
1, 47784, Note_on_c, 0, 85, 92
1, 47788, Note_on_c, 0, 73, 79
1, 47794, Note_on_c, 0, 59, 44
1, 47804, Note_on_c, 0, 64, 46
1, 47820, Note_off_c, 0, 73, 64
1, 47832, Note_on_c, 0, 61, 39
1, 47848, Note_off_c, 0, 59, 64
1, 47854, Note_off_c, 0, 69, 64
1, 47854, Note_off_c, 0, 64, 64
1, 47856, Control_c, 0, 64, 0
1, 47866, Note_off_c, 0, 85, 64
1, 47898, Note_off_c, 0, 61, 64
1, 47954, Note_on_c, 0, 76, 95
1, 47954, Note_on_c, 0, 71, 94
1, 47954, Note_on_c, 0, 80, 95
1, 47957, Note_on_c, 0, 88, 99
1, 47966, Note_on_c, 0, 64, 69
1, 47986, Note_off_c, 0, 88, 64
1, 47988, Note_off_c, 0, 76, 64
1, 48022, Note_off_c, 0, 80, 64
1, 48025, Control_c, 0, 64, 127
1, 48044, Note_off_c, 0, 71, 64
1, 48078, Note_off_c, 0, 64, 64
1, 48104, Note_on_c, 0, 75, 92
1, 48110, Note_on_c, 0, 87, 81
1, 48122, Note_on_c, 0, 63, 77
1, 48150, Note_off_c, 0, 87, 64
1, 48180, Note_off_c, 0, 75, 64
1, 48208, Note_off_c, 0, 63, 64
1, 48264, Note_on_c, 0, 73, 85
1, 48266, Note_on_c, 0, 85, 82
1, 48270, Control_c, 0, 64, 0
1, 48272, Note_on_c, 0, 61, 67
1, 48322, Note_off_c, 0, 85, 64
1, 48328, Note_off_c, 0, 61, 64
1, 48352, Note_off_c, 0, 73, 64
1, 48404, Note_on_c, 0, 68, 78
1, 48410, Note_on_c, 0, 80, 83
1, 48414, Note_on_c, 0, 59, 75
1, 48417, Note_on_c, 0, 71, 88
1, 48426, Note_on_c, 0, 83, 91
1, 48456, Control_c, 0, 64, 127
1, 48459, Note_off_c, 0, 59, 64
1, 48462, Note_off_c, 0, 71, 64
1, 48465, Note_off_c, 0, 83, 64
1, 48474, Note_off_c, 0, 68, 64
1, 48516, Note_off_c, 0, 80, 64
1, 48554, Note_on_c, 0, 59, 60
1, 48556, Note_on_c, 0, 68, 51
1, 48568, Note_on_c, 0, 71, 75
1, 48570, Note_on_c, 0, 83, 64
1, 48608, Note_off_c, 0, 59, 64
1, 48610, Note_off_c, 0, 71, 64
1, 48622, Note_off_c, 0, 68, 64
1, 48625, Note_off_c, 0, 83, 64
1, 48712, Note_on_c, 0, 85, 89
1, 48712, Note_on_c, 0, 61, 69
1, 48715, Note_on_c, 0, 73, 79
1, 48758, Note_off_c, 0, 61, 64
1, 48778, Note_off_c, 0, 73, 64
1, 48778, Control_c, 0, 64, 0
1, 48812, Note_off_c, 0, 85, 64
1, 48866, Note_on_c, 0, 63, 84
1, 48866, Note_on_c, 0, 68, 68
1, 48872, Note_on_c, 0, 75, 90
1, 48876, Note_on_c, 0, 87, 86
1, 48888, Note_on_c, 0, 80, 73
1, 48912, Note_off_c, 0, 63, 64
1, 48912, Note_off_c, 0, 87, 64
1, 48915, Note_off_c, 0, 68, 64
1, 48928, Note_off_c, 0, 75, 64
1, 48928, Note_off_c, 0, 80, 64
1, 48992, Control_c, 0, 64, 127
1, 49014, Note_on_c, 0, 87, 67
1, 49014, Note_on_c, 0, 75, 78
1, 49032, Note_on_c, 0, 68, 51
1, 49060, Note_on_c, 0, 63, 50
1, 49066, Note_off_c, 0, 87, 64
1, 49082, Note_off_c, 0, 68, 64
1, 49104, Note_off_c, 0, 75, 64
1, 49107, Note_off_c, 0, 63, 64
1, 49190, Note_on_c, 0, 71, 95
1, 49193, Note_on_c, 0, 59, 64
1, 49206, Note_on_c, 0, 83, 64
1, 49226, Note_off_c, 0, 71, 64
1, 49238, Note_off_c, 0, 59, 64
1, 49258, Note_off_c, 0, 83, 64
1, 49284, Control_c, 0, 64, 0
1, 49330, Note_on_c, 0, 79, 98
1, 49332, Note_on_c, 0, 63, 82
1, 49338, Note_on_c, 0, 67, 82
1, 49340, Note_on_c, 0, 55, 82
1, 49346, Note_on_c, 0, 75, 68
1, 49370, Note_off_c, 0, 63, 64
1, 49382, Note_off_c, 0, 75, 64
1, 49388, Note_off_c, 0, 55, 64
1, 49390, Note_off_c, 0, 79, 64
1, 49394, Note_off_c, 0, 67, 64
1, 49470, Note_on_c, 0, 55, 64
1, 49474, Note_on_c, 0, 63, 59
1, 49484, Note_on_c, 0, 75, 33
1, 49484, Note_on_c, 0, 79, 67
1, 49484, Note_on_c, 0, 67, 66
1, 49487, Control_c, 0, 64, 127
1, 49530, Note_off_c, 0, 75, 64
1, 49530, Note_off_c, 0, 79, 64
1, 49530, Note_off_c, 0, 67, 64
1, 49538, Note_off_c, 0, 55, 64
1, 49542, Note_off_c, 0, 63, 64
1, 49620, Note_on_c, 0, 83, 113
1, 49626, Note_on_c, 0, 71, 83
1, 49640, Note_on_c, 0, 59, 74
1, 49650, Note_off_c, 0, 83, 64
1, 49674, Note_off_c, 0, 71, 64
1, 49678, Note_off_c, 0, 59, 64
1, 49700, Control_c, 0, 64, 0
1, 49792, Note_on_c, 0, 76, 97
1, 49794, Note_on_c, 0, 64, 100
1, 49798, Note_on_c, 0, 59, 75
1, 49800, Note_on_c, 0, 68, 83
1, 49808, Note_on_c, 0, 52, 67
1, 49820, Note_off_c, 0, 76, 64
1, 49830, Note_off_c, 0, 64, 64
1, 49844, Note_off_c, 0, 59, 64
1, 49854, Note_off_c, 0, 52, 64
1, 49857, Note_off_c, 0, 68, 64
1, 49898, Control_c, 0, 64, 127
1, 49934, Note_on_c, 0, 63, 90
1, 49934, Note_on_c, 0, 75, 84
1, 49942, Note_on_c, 0, 51, 75
1, 49976, Control_c, 0, 64, 0
1, 49992, Note_off_c, 0, 75, 64
1, 50000, Note_off_c, 0, 63, 64
1, 50026, Note_off_c, 0, 51, 64
1, 50074, Note_on_c, 0, 49, 73
1, 50094, Note_on_c, 0, 73, 76
1, 50098, Note_on_c, 0, 61, 83
1, 50142, Note_off_c, 0, 49, 64
1, 50142, Note_off_c, 0, 73, 64
1, 50148, Note_off_c, 0, 61, 64
1, 50218, Note_on_c, 0, 56, 84
1, 50221, Note_on_c, 0, 47, 84
1, 50236, Note_on_c, 0, 71, 85
1, 50238, Note_on_c, 0, 68, 74
1, 50242, Note_on_c, 0, 59, 81
1, 50276, Note_off_c, 0, 47, 64
1, 50278, Note_off_c, 0, 71, 64
1, 50280, Note_off_c, 0, 59, 64
1, 50286, Note_off_c, 0, 68, 64
1, 50300, Note_off_c, 0, 56, 64
1, 50366, Note_on_c, 0, 47, 63
1, 50368, Note_on_c, 0, 56, 68
1, 50374, Note_on_c, 0, 71, 55
1, 50378, Note_on_c, 0, 59, 56
1, 50388, Note_on_c, 0, 68, 45
1, 50420, Note_off_c, 0, 59, 64
1, 50422, Note_off_c, 0, 47, 64
1, 50424, Note_off_c, 0, 71, 64
1, 50436, Note_off_c, 0, 68, 64
1, 50456, Note_off_c, 0, 56, 64
1, 50520, Note_on_c, 0, 73, 79
1, 50530, Note_on_c, 0, 61, 59
1, 50530, Note_on_c, 0, 49, 75
1, 50562, Note_off_c, 0, 73, 64
1, 50572, Note_off_c, 0, 49, 64
1, 50580, Note_off_c, 0, 61, 64
1, 50670, Note_on_c, 0, 56, 79
1, 50673, Note_on_c, 0, 63, 83
1, 50678, Note_on_c, 0, 75, 79
1, 50680, Note_on_c, 0, 68, 70
1, 50682, Note_on_c, 0, 51, 81
1, 50716, Note_off_c, 0, 63, 64
1, 50718, Note_off_c, 0, 75, 64
1, 50726, Note_off_c, 0, 51, 64
1, 50736, Note_off_c, 0, 68, 64
1, 50744, Note_off_c, 0, 56, 64
1, 50774, Control_c, 0, 64, 127
1, 50814, Note_on_c, 0, 75, 55
1, 50814, Note_on_c, 0, 56, 62
1, 50817, Note_on_c, 0, 63, 70
1, 50846, Note_on_c, 0, 51, 56
1, 50852, Control_c, 0, 64, 0
1, 50858, Note_off_c, 0, 75, 64
1, 50882, Note_off_c, 0, 56, 64
1, 50886, Note_off_c, 0, 63, 64
1, 50898, Note_off_c, 0, 51, 64
1, 50964, Note_on_c, 0, 47, 79
1, 50978, Note_on_c, 0, 59, 89
1, 50996, Note_on_c, 0, 71, 47
1, 51018, Note_off_c, 0, 59, 64
1, 51030, Note_off_c, 0, 47, 64
1, 51064, Note_off_c, 0, 71, 64
1, 51120, Note_on_c, 0, 51, 89
1, 51128, Note_on_c, 0, 55, 96
1, 51132, Note_on_c, 0, 63, 84
1, 51132, Note_on_c, 0, 67, 74
1, 51138, Note_on_c, 0, 43, 78
1, 51170, Note_off_c, 0, 51, 64
1, 51180, Note_off_c, 0, 63, 64
1, 51180, Note_off_c, 0, 43, 64
1, 51183, Note_off_c, 0, 55, 64
1, 51186, Note_off_c, 0, 67, 64
1, 51250, Control_c, 0, 64, 127
1, 51270, Note_on_c, 0, 43, 54
1, 51278, Note_on_c, 0, 51, 62
1, 51281, Control_c, 0, 64, 0
1, 51284, Note_on_c, 0, 55, 73
1, 51288, Note_on_c, 0, 63, 60
1, 51291, Note_on_c, 0, 67, 39
1, 51326, Note_off_c, 0, 55, 64
1, 51330, Note_off_c, 0, 63, 64
1, 51342, Note_off_c, 0, 43, 64
1, 51356, Note_off_c, 0, 67, 64
1, 51414, Note_on_c, 0, 71, 83
1, 51416, Note_off_c, 0, 51, 64
1, 51434, Note_on_c, 0, 47, 77
1, 51456, Note_off_c, 0, 71, 64
1, 51472, Note_off_c, 0, 47, 64
1, 51576, Note_on_c, 0, 56, 94
1, 51588, Note_on_c, 0, 64, 83
1, 51590, Note_on_c, 0, 52, 97
1, 51594, Note_on_c, 0, 59, 54
1, 51594, Note_on_c, 0, 40, 102
1, 51620, Note_off_c, 0, 52, 64
1, 51620, Note_on_c, 0, 58, 25
1, 51622, Note_off_c, 0, 40, 64
1, 51674, Note_off_c, 0, 64, 64
1, 51690, Note_off_c, 0, 58, 64
1, 51694, Note_off_c, 0, 59, 64
1, 51724, Note_on_c, 0, 51, 90
1, 51732, Note_on_c, 0, 39, 88
1, 51735, Note_on_c, 0, 63, 78
1, 51774, Note_off_c, 0, 39, 64
1, 51788, Note_off_c, 0, 56, 64
1, 51792, Note_off_c, 0, 51, 64
1, 51856, Note_off_c, 0, 63, 64
1, 51874, Note_on_c, 0, 61, 70
1, 51884, Note_on_c, 0, 49, 70
1, 51892, Note_on_c, 0, 37, 75
1, 51926, Note_off_c, 0, 49, 64
1, 51929, Note_off_c, 0, 37, 64
1, 51960, Note_off_c, 0, 61, 64
1, 52022, Note_on_c, 0, 59, 80
1, 52022, Note_on_c, 0, 47, 82
1, 52025, Note_on_c, 0, 35, 97
1, 52025, Note_on_c, 0, 57, 65
1, 52060, Note_off_c, 0, 47, 64
1, 52060, Note_off_c, 0, 35, 64
1, 52070, Note_off_c, 0, 59, 64
1, 52084, Note_off_c, 0, 57, 64
1, 52154, Note_on_c, 0, 59, 60
1, 52154, Note_on_c, 0, 57, 67
1, 52168, Note_on_c, 0, 47, 35
1, 52171, Note_on_c, 0, 35, 76
1, 52208, Note_off_c, 0, 35, 64
1, 52212, Note_off_c, 0, 57, 64
1, 52214, Note_off_c, 0, 47, 64
1, 52234, Note_off_c, 0, 59, 64
1, 52304, Note_on_c, 0, 61, 76
1, 52318, Note_on_c, 0, 49, 85
1, 52324, Note_on_c, 0, 37, 82
1, 52364, Note_off_c, 0, 49, 64
1, 52370, Note_off_c, 0, 37, 64
1, 52382, Note_off_c, 0, 61, 64
1, 52458, Note_on_c, 0, 56, 84
1, 52468, Note_on_c, 0, 64, 87
1, 52476, Note_on_c, 0, 59, 62
1, 52478, Note_on_c, 0, 52, 100
1, 52486, Note_on_c, 0, 40, 77
1, 52508, Note_off_c, 0, 52, 64
1, 52526, Note_off_c, 0, 40, 64
1, 52534, Note_off_c, 0, 59, 64
1, 52610, Note_on_c, 0, 51, 77
1, 52612, Note_off_c, 0, 64, 64
1, 52614, Note_on_c, 0, 63, 74
1, 52622, Note_on_c, 0, 39, 68
1, 52632, Note_off_c, 0, 56, 64
1, 52654, Note_off_c, 0, 51, 64
1, 52660, Note_off_c, 0, 39, 64
1, 52714, Note_off_c, 0, 63, 64
1, 52748, Note_on_c, 0, 61, 71
1, 52754, Note_on_c, 0, 49, 66
1, 52764, Note_on_c, 0, 37, 63
1, 52800, Note_off_c, 0, 49, 64
1, 52814, Note_off_c, 0, 37, 64
1, 52820, Note_off_c, 0, 61, 64
1, 52902, Note_on_c, 0, 59, 74
1, 52905, Note_on_c, 0, 35, 78
1, 52905, Note_on_c, 0, 57, 60
1, 52908, Note_on_c, 0, 47, 64
1, 52942, Note_off_c, 0, 35, 64
1, 52950, Note_off_c, 0, 59, 64
1, 52950, Note_off_c, 0, 47, 64
1, 52974, Note_off_c, 0, 57, 64
1, 53040, Note_on_c, 0, 47, 38
1, 53046, Note_on_c, 0, 35, 61
1, 53049, Note_on_c, 0, 59, 45
1, 53078, Note_on_c, 0, 57, 15
1, 53086, Note_off_c, 0, 47, 64
1, 53088, Note_off_c, 0, 35, 64
1, 53118, Note_off_c, 0, 59, 64
1, 53136, Note_off_c, 0, 57, 64
1, 53192, Note_on_c, 0, 61, 66
1, 53206, Note_on_c, 0, 49, 70
1, 53212, Note_on_c, 0, 37, 54
1, 53246, Note_off_c, 0, 61, 64
1, 53248, Note_off_c, 0, 49, 64
1, 53262, Note_off_c, 0, 37, 64
1, 53348, Note_on_c, 0, 56, 62
1, 53364, Note_on_c, 0, 52, 91
1, 53367, Note_on_c, 0, 64, 60
1, 53371, Note_on_c, 0, 59, 41
1, 53380, Note_on_c, 0, 40, 44
1, 53396, Note_off_c, 0, 52, 64
1, 53428, Note_off_c, 0, 56, 64
1, 53432, Note_off_c, 0, 40, 64
1, 53434, Note_off_c, 0, 59, 64
1, 53442, Note_off_c, 0, 64, 64
1, 53504, Note_on_c, 0, 63, 68
1, 53504, Note_on_c, 0, 51, 81
1, 53507, Note_on_c, 0, 39, 80
1, 53542, Note_off_c, 0, 51, 64
1, 53542, Note_off_c, 0, 39, 64
1, 53582, Note_off_c, 0, 63, 64
1, 53638, Note_on_c, 0, 61, 66
1, 53654, Note_on_c, 0, 49, 50
1, 53656, Note_on_c, 0, 37, 62
1, 53696, Note_off_c, 0, 61, 64
1, 53700, Note_off_c, 0, 37, 64
1, 53708, Note_off_c, 0, 49, 64
1, 53786, Note_on_c, 0, 59, 67
1, 53786, Note_on_c, 0, 47, 79
1, 53792, Note_on_c, 0, 35, 89
1, 53796, Note_on_c, 0, 57, 48
1, 53824, Note_off_c, 0, 47, 64
1, 53826, Note_off_c, 0, 35, 64
1, 53838, Note_off_c, 0, 59, 64
1, 53860, Note_off_c, 0, 57, 64
1, 53924, Note_on_c, 0, 59, 54
1, 53936, Note_on_c, 0, 47, 33
1, 53946, Note_on_c, 0, 35, 57
1, 53954, Note_on_c, 0, 57, 26
1, 53990, Note_off_c, 0, 47, 64
1, 53996, Note_off_c, 0, 35, 64
1, 54028, Note_off_c, 0, 59, 64
1, 54028, Note_off_c, 0, 57, 64
1, 54066, Note_on_c, 0, 61, 62
1, 54090, Note_on_c, 0, 49, 50
1, 54092, Note_on_c, 0, 37, 41
1, 54138, Note_off_c, 0, 61, 64
1, 54144, Note_off_c, 0, 49, 64
1, 54154, Note_off_c, 0, 37, 64
1, 54244, Note_on_c, 0, 56, 72
1, 54247, Note_on_c, 0, 52, 98
1, 54252, Note_on_c, 0, 40, 89
1, 54255, Note_on_c, 0, 64, 85
1, 54268, Note_on_c, 0, 59, 56
1, 54278, Note_off_c, 0, 52, 64
1, 54284, Note_off_c, 0, 40, 64
1, 54322, Note_off_c, 0, 59, 64
1, 54366, Note_off_c, 0, 64, 64
1, 54386, Control_c, 0, 64, 127
1, 54424, Note_off_c, 0, 56, 64
1, 54586, Control_c, 0, 64, 0
1, 54710, Note_on_c, 0, 52, 84
1, 54762, Note_off_c, 0, 52, 64
1, 54836, Note_on_c, 0, 52, 80
1, 54900, Note_off_c, 0, 52, 64
1, 54976, Note_on_c, 0, 52, 77
1, 55074, Note_off_c, 0, 52, 64
1, 55128, Note_on_c, 0, 52, 47
1, 55176, Note_off_c, 0, 52, 64
1, 55274, Note_on_c, 0, 52, 44
1, 55328, Note_off_c, 0, 52, 64
1, 55402, Note_on_c, 0, 52, 66
1, 55450, Note_off_c, 0, 52, 64
1, 55528, Note_on_c, 0, 52, 76
1, 55584, Note_off_c, 0, 52, 64
1, 55672, Note_on_c, 0, 52, 67
1, 55718, Note_off_c, 0, 52, 64
1, 55798, Note_on_c, 0, 52, 67
1, 55888, Note_off_c, 0, 52, 64
1, 55952, Note_on_c, 0, 52, 77
1, 56004, Note_off_c, 0, 52, 64
1, 56082, Note_on_c, 0, 52, 76
1, 56140, Note_off_c, 0, 52, 64
1, 56222, Note_on_c, 0, 52, 68
1, 56292, Note_off_c, 0, 52, 64
1, 56380, Note_on_c, 0, 52, 74
1, 56426, Note_off_c, 0, 52, 64
1, 56512, Note_on_c, 0, 52, 57
1, 56582, Note_off_c, 0, 52, 64
1, 56662, Note_on_c, 0, 52, 68
1, 56712, Note_off_c, 0, 52, 64
1, 56810, Note_on_c, 0, 52, 39
1, 56868, Note_off_c, 0, 52, 64
1, 56944, Note_on_c, 0, 52, 62
1, 56994, Note_off_c, 0, 52, 64
1, 57082, Note_on_c, 0, 52, 52
1, 57144, Note_off_c, 0, 52, 64
1, 57228, Note_on_c, 0, 52, 63
1, 57288, Note_off_c, 0, 52, 64
1, 57362, Note_on_c, 0, 52, 74
1, 57424, Note_off_c, 0, 52, 64
1, 57498, Note_on_c, 0, 54, 63
1, 57560, Note_off_c, 0, 54, 64
1, 57646, Note_on_c, 0, 56, 65
1, 57690, Note_off_c, 0, 56, 64
1, 57778, Note_on_c, 0, 56, 53
1, 57834, Note_off_c, 0, 56, 64
1, 57926, Note_on_c, 0, 56, 46
1, 57978, Note_off_c, 0, 56, 64
1, 58064, Note_on_c, 0, 54, 63
1, 58080, Note_on_c, 0, 57, 46
1, 58082, Note_on_c, 0, 63, 55
1, 58088, Note_on_c, 0, 61, 44
1, 58116, Note_off_c, 0, 54, 64
1, 58148, Note_off_c, 0, 63, 64
1, 58151, Note_off_c, 0, 57, 64
1, 58158, Note_off_c, 0, 61, 64
1, 58224, Note_on_c, 0, 56, 60
1, 58272, Note_off_c, 0, 56, 64
1, 58346, Note_on_c, 0, 56, 53
1, 58416, Note_off_c, 0, 56, 64
1, 58488, Note_on_c, 0, 56, 64
1, 58550, Note_off_c, 0, 56, 64
1, 58628, Note_on_c, 0, 56, 62
1, 58680, Note_off_c, 0, 56, 64
1, 58754, Note_on_c, 0, 56, 53
1, 58802, Note_off_c, 0, 56, 64
1, 58886, Note_on_c, 0, 54, 62
1, 58906, Note_on_c, 0, 57, 41
1, 58916, Note_on_c, 0, 63, 50
1, 58920, Note_on_c, 0, 61, 42
1, 58938, Note_off_c, 0, 54, 64
1, 58976, Note_off_c, 0, 57, 64
1, 58998, Note_off_c, 0, 61, 64
1, 59016, Note_off_c, 0, 63, 64
1, 59054, Note_on_c, 0, 56, 61
1, 59102, Note_off_c, 0, 56, 64
1, 59180, Note_on_c, 0, 56, 55
1, 59236, Note_off_c, 0, 56, 64
1, 59312, Note_on_c, 0, 56, 55
1, 59362, Note_off_c, 0, 56, 64
1, 59452, Note_on_c, 0, 56, 42
1, 59508, Note_off_c, 0, 56, 64
1, 59576, Note_on_c, 0, 56, 64
1, 59620, Note_off_c, 0, 56, 64
1, 59696, Note_on_c, 0, 56, 34
1, 59710, Note_on_c, 0, 52, 63
1, 59713, Note_on_c, 0, 61, 55
1, 59756, Note_off_c, 0, 52, 64
1, 59820, Note_off_c, 0, 56, 64
1, 59848, Note_off_c, 0, 61, 64
1, 59896, Note_on_c, 0, 56, 39
1, 59972, Note_off_c, 0, 56, 64
1, 60000, Note_on_c, 0, 56, 64
1, 60044, Note_off_c, 0, 56, 64
1, 60096, Note_on_c, 0, 56, 2
1, 60132, Note_on_c, 0, 61, 42
1, 60148, Note_on_c, 0, 64, 44
1, 60178, Note_off_c, 0, 56, 64
1, 60196, Note_off_c, 0, 61, 64
1, 60208, Note_off_c, 0, 64, 64
1, 60254, Note_on_c, 0, 56, 58
1, 60316, Note_off_c, 0, 56, 64
1, 60380, Note_on_c, 0, 56, 65
1, 60468, Note_off_c, 0, 56, 64
1, 60530, Note_on_c, 0, 61, 53
1, 60542, Note_on_c, 0, 68, 45
1, 60548, Note_on_c, 0, 64, 51
1, 60598, Note_off_c, 0, 61, 64
1, 60610, Note_off_c, 0, 64, 64
1, 60654, Note_off_c, 0, 68, 64
1, 60664, Note_on_c, 0, 56, 52
1, 60716, Note_off_c, 0, 56, 64
1, 60786, Note_on_c, 0, 56, 51
1, 60844, Note_off_c, 0, 56, 64
1, 60938, Note_on_c, 0, 56, 59
1, 60988, Note_off_c, 0, 56, 64
1, 61070, Note_on_c, 0, 56, 50
1, 61130, Note_off_c, 0, 56, 64
1, 61216, Note_on_c, 0, 56, 57
1, 61260, Note_off_c, 0, 56, 64
1, 61376, Note_on_c, 0, 54, 49
1, 61394, Note_on_c, 0, 57, 38
1, 61396, Note_on_c, 0, 63, 43
1, 61404, Note_on_c, 0, 61, 39
1, 61432, Note_off_c, 0, 54, 64
1, 61470, Note_off_c, 0, 57, 64
1, 61528, Note_off_c, 0, 61, 64
1, 61536, Note_off_c, 0, 63, 64
1, 61536, Note_on_c, 0, 56, 60
1, 61584, Note_off_c, 0, 56, 64
1, 61660, Note_on_c, 0, 56, 49
1, 61724, Note_off_c, 0, 56, 64
1, 61794, Note_on_c, 0, 56, 61
1, 61840, Note_off_c, 0, 56, 64
1, 61930, Note_on_c, 0, 56, 37
1, 61992, Note_off_c, 0, 56, 64
1, 62050, Note_on_c, 0, 56, 69
1, 62090, Note_off_c, 0, 56, 64
1, 62198, Note_on_c, 0, 54, 54
1, 62218, Note_on_c, 0, 57, 46
1, 62238, Note_on_c, 0, 61, 48
1, 62244, Note_on_c, 0, 63, 55
1, 62248, Note_off_c, 0, 54, 64
1, 62320, Note_off_c, 0, 57, 64
1, 62364, Note_on_c, 0, 56, 64
1, 62386, Note_off_c, 0, 63, 64
1, 62400, Note_off_c, 0, 61, 64
1, 62410, Note_off_c, 0, 56, 64
1, 62478, Note_on_c, 0, 56, 54
1, 62542, Note_off_c, 0, 56, 64
1, 62610, Note_on_c, 0, 56, 62
1, 62664, Note_off_c, 0, 56, 64
1, 62754, Note_on_c, 0, 56, 48
1, 62804, Note_off_c, 0, 56, 64
1, 62880, Note_on_c, 0, 56, 59
1, 62924, Note_off_c, 0, 56, 64
1, 63018, Note_on_c, 0, 52, 64
1, 63018, Note_on_c, 0, 56, 18
1, 63034, Note_on_c, 0, 61, 53
1, 63064, Note_off_c, 0, 52, 64
1, 63116, Note_off_c, 0, 56, 64
1, 63152, Note_off_c, 0, 61, 64
1, 63164, Note_on_c, 0, 56, 34
1, 63242, Note_off_c, 0, 56, 64
1, 63280, Note_on_c, 0, 56, 64
1, 63324, Note_off_c, 0, 56, 64
1, 63402, Note_on_c, 0, 56, 63
1, 63430, Note_on_c, 0, 61, 54
1, 63444, Note_on_c, 0, 64, 49
1, 63462, Note_off_c, 0, 56, 64
1, 63494, Note_off_c, 0, 61, 64
1, 63506, Note_off_c, 0, 64, 64
1, 63550, Note_on_c, 0, 56, 53
1, 63608, Note_off_c, 0, 56, 64
1, 63668, Note_on_c, 0, 56, 70
1, 63772, Note_off_c, 0, 56, 64
1, 63824, Note_on_c, 0, 61, 52
1, 63844, Note_on_c, 0, 68, 46
1, 63852, Note_on_c, 0, 64, 51
1, 63900, Note_off_c, 0, 61, 64
1, 63904, Note_off_c, 0, 64, 64
1, 63956, Note_on_c, 0, 56, 38
1, 63974, Note_off_c, 0, 68, 64
1, 64024, Note_off_c, 0, 56, 64
1, 64086, Note_on_c, 0, 56, 58
1, 64136, Note_off_c, 0, 56, 64
1, 64246, Note_on_c, 0, 70, 57
1, 64262, Note_on_c, 0, 64, 45
1, 64276, Note_on_c, 0, 68, 37
1, 64388, Note_on_c, 0, 61, 48
1, 64444, Note_off_c, 0, 61, 64
1, 64466, Control_c, 0, 64, 127
1, 64530, Note_on_c, 0, 61, 45
1, 64622, Note_off_c, 0, 61, 64
1, 64678, Note_on_c, 0, 71, 88
1, 64726, Control_c, 0, 64, 0
1, 64776, Note_off_c, 0, 70, 64
1, 64796, Note_on_c, 0, 59, 44
1, 64846, Note_off_c, 0, 59, 64
1, 64942, Note_on_c, 0, 59, 37
1, 64972, Control_c, 0, 64, 127
1, 65010, Note_off_c, 0, 59, 64
1, 65100, Note_on_c, 0, 73, 69
1, 65192, Note_off_c, 0, 71, 64
1, 65204, Control_c, 0, 64, 0
1, 65220, Note_on_c, 0, 58, 41
1, 65286, Note_off_c, 0, 58, 64
1, 65350, Note_on_c, 0, 58, 47
1, 65402, Control_c, 0, 64, 127
1, 65448, Note_off_c, 0, 58, 64
1, 65516, Note_on_c, 0, 70, 54
1, 65556, Control_c, 0, 64, 0
1, 65624, Note_off_c, 0, 73, 64
1, 65668, Note_on_c, 0, 61, 58
1, 65726, Note_off_c, 0, 61, 64
1, 65772, Control_c, 0, 64, 127
1, 65814, Note_on_c, 0, 71, 79
1, 65820, Note_on_c, 0, 61, 53
1, 65880, Note_off_c, 0, 61, 64
1, 65900, Note_off_c, 0, 70, 64
1, 65956, Note_on_c, 0, 73, 70
1, 66022, Note_off_c, 0, 71, 64
1, 66032, Control_c, 0, 64, 0
1, 66086, Note_on_c, 0, 59, 49
1, 66136, Note_off_c, 0, 59, 64
1, 66218, Note_on_c, 0, 59, 47
1, 66232, Control_c, 0, 64, 127
1, 66280, Note_off_c, 0, 59, 64
1, 66346, Note_on_c, 0, 75, 68
1, 66370, Note_off_c, 0, 73, 64
1, 66370, Control_c, 0, 64, 0
1, 66472, Note_on_c, 0, 58, 40
1, 66508, Control_c, 0, 64, 127
1, 66528, Note_off_c, 0, 68, 64
1, 66530, Note_off_c, 0, 64, 64
1, 66532, Note_off_c, 0, 58, 64
1, 66540, Note_off_c, 0, 75, 64
1, 66606, Note_on_c, 0, 58, 36
1, 66688, Note_off_c, 0, 58, 64
1, 66774, Note_on_c, 0, 61, 42
1, 66774, Note_on_c, 0, 67, 54
1, 66836, Note_on_c, 0, 64, 25
1, 66902, Note_on_c, 0, 57, 37
1, 66908, Control_c, 0, 64, 0
1, 66964, Note_off_c, 0, 57, 64
1, 67030, Note_on_c, 0, 57, 51
1, 67092, Control_c, 0, 64, 127
1, 67102, Note_off_c, 0, 57, 64
1, 67200, Note_on_c, 0, 68, 44
1, 67202, Control_c, 0, 64, 0
1, 67232, Note_off_c, 0, 67, 64
1, 67312, Note_on_c, 0, 56, 43
1, 67356, Note_off_c, 0, 64, 64
1, 67358, Note_off_c, 0, 61, 64
1, 67368, Note_off_c, 0, 56, 64
1, 67384, Control_c, 0, 64, 127
1, 67390, Note_off_c, 0, 68, 64
1, 67442, Note_on_c, 0, 56, 42
1, 67522, Note_off_c, 0, 56, 64
1, 67610, Note_on_c, 0, 68, 39
1, 67610, Note_on_c, 0, 70, 55
1, 67624, Note_on_c, 0, 64, 43
1, 67630, Control_c, 0, 64, 0
1, 67752, Note_on_c, 0, 61, 45
1, 67808, Note_off_c, 0, 61, 64
1, 67872, Note_on_c, 0, 61, 62
1, 67892, Control_c, 0, 64, 127
1, 67972, Note_off_c, 0, 61, 64
1, 68024, Note_on_c, 0, 71, 88
1, 68132, Note_off_c, 0, 70, 64
1, 68152, Control_c, 0, 64, 0
1, 68172, Note_on_c, 0, 59, 54
1, 68218, Note_off_c, 0, 59, 64
1, 68312, Note_on_c, 0, 59, 45
1, 68322, Control_c, 0, 64, 127
1, 68392, Note_off_c, 0, 59, 64
1, 68442, Note_on_c, 0, 73, 79
1, 68520, Note_off_c, 0, 71, 64
1, 68538, Control_c, 0, 64, 0
1, 68572, Note_on_c, 0, 58, 44
1, 68634, Note_off_c, 0, 58, 64
1, 68698, Note_on_c, 0, 58, 52
1, 68722, Control_c, 0, 64, 127
1, 68772, Note_off_c, 0, 58, 64
1, 68826, Note_on_c, 0, 70, 67
1, 68856, Note_off_c, 0, 73, 64
1, 68890, Control_c, 0, 64, 0
1, 68974, Note_on_c, 0, 61, 57
1, 69026, Note_off_c, 0, 61, 64
1, 69106, Control_c, 0, 64, 127
1, 69120, Note_on_c, 0, 71, 65
1, 69146, Note_on_c, 0, 61, 59
1, 69196, Note_off_c, 0, 70, 64
1, 69198, Note_off_c, 0, 61, 64
1, 69260, Note_on_c, 0, 73, 62
1, 69290, Control_c, 0, 64, 0
1, 69296, Note_off_c, 0, 71, 64
1, 69400, Note_on_c, 0, 59, 50
1, 69450, Note_off_c, 0, 59, 64
1, 69520, Control_c, 0, 64, 127
1, 69532, Note_on_c, 0, 59, 44
1, 69606, Note_off_c, 0, 59, 64
1, 69668, Note_on_c, 0, 76, 59
1, 69674, Control_c, 0, 64, 0
1, 69684, Note_off_c, 0, 73, 64
1, 69800, Note_on_c, 0, 58, 21
1, 69836, Note_off_c, 0, 64, 64
1, 69842, Control_c, 0, 64, 127
1, 69872, Note_off_c, 0, 58, 64
1, 69888, Note_off_c, 0, 76, 64
1, 69934, Note_on_c, 0, 58, 48
1, 69946, Note_off_c, 0, 68, 64
1, 69988, Note_off_c, 0, 58, 64
1, 70026, Control_c, 0, 64, 0
1, 70064, Note_on_c, 0, 58, 63
1, 70064, Note_on_c, 0, 75, 84
1, 70072, Note_on_c, 0, 67, 77
1, 70074, Note_on_c, 0, 51, 87
1, 70076, Note_on_c, 0, 63, 75
1, 70098, Note_off_c, 0, 75, 64
1, 70110, Note_off_c, 0, 58, 64
1, 70110, Note_off_c, 0, 51, 64
1, 70113, Note_off_c, 0, 67, 64
1, 70136, Control_c, 0, 64, 127
1, 70144, Note_off_c, 0, 63, 64
1, 70220, Note_on_c, 0, 63, 68
1, 70260, Note_off_c, 0, 63, 64
1, 70356, Note_on_c, 0, 63, 68
1, 70396, Note_off_c, 0, 63, 64
1, 70426, Control_c, 0, 64, 0
1, 70464, Note_on_c, 0, 63, 66
1, 70564, Note_off_c, 0, 63, 64
1, 70642, Note_on_c, 0, 63, 45
1, 70696, Note_off_c, 0, 63, 64
1, 70742, Note_on_c, 0, 63, 57
1, 70782, Note_off_c, 0, 63, 64
1, 70856, Note_on_c, 0, 63, 62
1, 70952, Note_off_c, 0, 63, 64
1, 71018, Note_on_c, 0, 63, 38
1, 71080, Note_off_c, 0, 63, 64
1, 71126, Note_on_c, 0, 63, 40
1, 71172, Note_off_c, 0, 63, 64
1, 71236, Note_on_c, 0, 63, 69
1, 71338, Note_off_c, 0, 63, 64
1, 71412, Note_on_c, 0, 63, 42
1, 71468, Note_off_c, 0, 63, 64
1, 71532, Note_on_c, 0, 63, 65
1, 71574, Note_off_c, 0, 63, 64
1, 71636, Note_on_c, 0, 63, 80
1, 71674, Note_off_c, 0, 63, 64
1, 71762, Note_on_c, 0, 63, 66
1, 71808, Note_off_c, 0, 63, 64
1, 71900, Note_on_c, 0, 63, 64
1, 71938, Note_off_c, 0, 63, 64
1, 72026, Note_on_c, 0, 61, 66
1, 72046, Note_on_c, 0, 68, 46
1, 72046, Note_on_c, 0, 64, 55
1, 72054, Note_on_c, 0, 70, 42
1, 72090, Note_off_c, 0, 61, 64
1, 72100, Note_off_c, 0, 64, 64
1, 72118, Note_off_c, 0, 68, 64
1, 72120, Note_off_c, 0, 70, 64
1, 72182, Note_on_c, 0, 63, 69
1, 72222, Note_off_c, 0, 63, 64
1, 72304, Note_on_c, 0, 63, 65
1, 72352, Note_off_c, 0, 63, 64
1, 72442, Note_on_c, 0, 63, 71
1, 72506, Note_off_c, 0, 63, 64
1, 72576, Note_on_c, 0, 63, 78
1, 72620, Note_off_c, 0, 63, 64
1, 72714, Note_on_c, 0, 63, 65
1, 72752, Note_off_c, 0, 63, 64
1, 72832, Note_on_c, 0, 61, 67
1, 72848, Note_on_c, 0, 64, 65
1, 72860, Note_on_c, 0, 68, 48
1, 72866, Note_on_c, 0, 70, 51
1, 72886, Note_off_c, 0, 61, 64
1, 72902, Note_off_c, 0, 64, 64
1, 72944, Note_off_c, 0, 68, 64
1, 72948, Note_off_c, 0, 70, 64
1, 72990, Note_on_c, 0, 63, 68
1, 73032, Note_off_c, 0, 63, 64
1, 73110, Note_on_c, 0, 63, 60
1, 73158, Note_off_c, 0, 63, 64
1, 73244, Note_on_c, 0, 63, 65
1, 73296, Note_off_c, 0, 63, 64
1, 73382, Note_on_c, 0, 63, 69
1, 73430, Note_off_c, 0, 63, 64
1, 73526, Note_on_c, 0, 63, 65
1, 73564, Note_off_c, 0, 63, 64
1, 73646, Note_on_c, 0, 63, 44
1, 73664, Note_on_c, 0, 59, 57
1, 73667, Note_on_c, 0, 68, 53
1, 73712, Note_off_c, 0, 59, 64
1, 73766, Note_off_c, 0, 63, 64
1, 73776, Note_off_c, 0, 68, 64
1, 73808, Note_on_c, 0, 63, 33
1, 73856, Note_off_c, 0, 63, 64
1, 73920, Note_on_c, 0, 63, 72
1, 73964, Note_off_c, 0, 63, 64
1, 74038, Note_on_c, 0, 63, 61
1, 74070, Note_on_c, 0, 68, 48
1, 74072, Note_on_c, 0, 71, 68
1, 74122, Note_off_c, 0, 63, 64
1, 74134, Note_off_c, 0, 68, 64
1, 74158, Note_off_c, 0, 71, 64
1, 74192, Note_on_c, 0, 63, 71
1, 74230, Note_off_c, 0, 63, 64
1, 74304, Note_on_c, 0, 63, 64
1, 74384, Note_off_c, 0, 63, 64
1, 74406, Note_on_c, 0, 68, 62
1, 74432, Note_on_c, 0, 75, 76
1, 74438, Note_on_c, 0, 71, 75
1, 74490, Note_off_c, 0, 68, 64
1, 74494, Note_off_c, 0, 71, 64
1, 74544, Note_off_c, 0, 75, 64
1, 74572, Note_on_c, 0, 63, 72
1, 74610, Note_off_c, 0, 63, 64
1, 74680, Note_on_c, 0, 63, 66
1, 74754, Note_off_c, 0, 63, 64
1, 74828, Note_on_c, 0, 63, 80
1, 74898, Note_off_c, 0, 63, 64
1, 74966, Note_on_c, 0, 63, 78
1, 75006, Note_off_c, 0, 63, 64
1, 75096, Note_on_c, 0, 63, 63
1, 75134, Note_off_c, 0, 63, 64
1, 75214, Note_on_c, 0, 61, 53
1, 75238, Note_on_c, 0, 64, 56
1, 75256, Note_on_c, 0, 68, 42
1, 75256, Note_on_c, 0, 70, 44
1, 75294, Note_off_c, 0, 61, 64
1, 75304, Note_off_c, 0, 64, 64
1, 75374, Note_off_c, 0, 68, 64
1, 75374, Note_off_c, 0, 70, 64
1, 75388, Note_on_c, 0, 63, 64
1, 75430, Note_off_c, 0, 63, 64
1, 75504, Note_on_c, 0, 63, 59
1, 75566, Note_off_c, 0, 63, 64
1, 75650, Note_on_c, 0, 63, 67
1, 75710, Note_off_c, 0, 63, 64
1, 75790, Note_on_c, 0, 63, 62
1, 75838, Note_off_c, 0, 63, 64
1, 75930, Note_on_c, 0, 63, 52
1, 75978, Note_off_c, 0, 63, 64
1, 76032, Note_on_c, 0, 61, 50
1, 76078, Note_on_c, 0, 64, 43
1, 76086, Note_on_c, 0, 68, 33
1, 76088, Note_off_c, 0, 61, 64
1, 76108, Note_on_c, 0, 70, 31
1, 76147, Note_off_c, 0, 64, 64
1, 76206, Note_on_c, 0, 63, 65
1, 76214, Note_off_c, 0, 70, 64
1, 76217, Note_off_c, 0, 68, 64
1, 76248, Note_off_c, 0, 63, 64
1, 76320, Note_on_c, 0, 63, 57
1, 76382, Note_off_c, 0, 63, 64
1, 76458, Note_on_c, 0, 63, 72
1, 76506, Note_off_c, 0, 63, 64
1, 76592, Note_on_c, 0, 63, 54
1, 76638, Note_off_c, 0, 63, 64
1, 76712, Note_on_c, 0, 63, 64
1, 76752, Note_off_c, 0, 63, 64
1, 76846, Note_on_c, 0, 59, 56
1, 76854, Note_on_c, 0, 63, 28
1, 76868, Note_on_c, 0, 68, 52
1, 76892, Note_off_c, 0, 59, 64
1, 76946, Note_off_c, 0, 63, 64
1, 76990, Note_off_c, 0, 68, 64
1, 77002, Note_on_c, 0, 63, 36
1, 77056, Note_off_c, 0, 63, 64
1, 77116, Note_on_c, 0, 63, 73
1, 77154, Note_off_c, 0, 63, 64
1, 77222, Note_on_c, 0, 63, 59
1, 77262, Note_on_c, 0, 68, 51
1, 77268, Note_on_c, 0, 71, 67
1, 77322, Note_off_c, 0, 63, 64
1, 77322, Note_off_c, 0, 68, 64
1, 77330, Note_off_c, 0, 71, 64
1, 77386, Note_on_c, 0, 63, 59
1, 77430, Note_off_c, 0, 63, 64
1, 77494, Note_on_c, 0, 63, 76
1, 77562, Note_off_c, 0, 63, 64
1, 77636, Note_on_c, 0, 68, 61
1, 77660, Note_on_c, 0, 75, 63
1, 77668, Note_on_c, 0, 71, 62
1, 77710, Note_off_c, 0, 68, 64
1, 77716, Note_off_c, 0, 71, 64
1, 77776, Note_on_c, 0, 63, 55
1, 77806, Note_off_c, 0, 75, 64
1, 77822, Note_off_c, 0, 63, 64
1, 77898, Note_on_c, 0, 63, 62
1, 77954, Note_off_c, 0, 63, 64
1, 78082, Note_on_c, 0, 77, 65
1, 78092, Note_on_c, 0, 75, 38
1, 78092, Note_on_c, 0, 71, 48
1, 78204, Note_on_c, 0, 68, 45
1, 78260, Note_off_c, 0, 68, 64
1, 78294, Control_c, 0, 64, 127
1, 78332, Note_on_c, 0, 68, 45
1, 78432, Note_off_c, 0, 68, 64
1, 78486, Note_on_c, 0, 78, 82
1, 78540, Control_c, 0, 64, 0
1, 78598, Note_off_c, 0, 77, 64
1, 78616, Note_on_c, 0, 66, 37
1, 78670, Note_off_c, 0, 66, 64
1, 78736, Note_on_c, 0, 66, 44
1, 78770, Control_c, 0, 64, 127
1, 78840, Note_off_c, 0, 66, 64
1, 78856, Note_on_c, 0, 80, 84
1, 78934, Note_off_c, 0, 78, 64
1, 78984, Control_c, 0, 64, 0
1, 79006, Note_on_c, 0, 65, 54
1, 79052, Note_off_c, 0, 65, 64
1, 79142, Note_on_c, 0, 65, 49
1, 79170, Control_c, 0, 64, 127
1, 79204, Note_off_c, 0, 65, 64
1, 79252, Note_on_c, 0, 77, 89
1, 79262, Note_off_c, 0, 80, 64
1, 79392, Note_on_c, 0, 68, 62
1, 79436, Note_off_c, 0, 68, 64
1, 79532, Note_on_c, 0, 78, 88
1, 79540, Note_on_c, 0, 68, 42
1, 79594, Note_off_c, 0, 68, 64
1, 79602, Note_off_c, 0, 77, 64
1, 79680, Note_on_c, 0, 80, 89
1, 79692, Control_c, 0, 64, 0
1, 79744, Note_off_c, 0, 78, 64
1, 79822, Note_on_c, 0, 66, 41
1, 79880, Note_off_c, 0, 66, 64
1, 79908, Control_c, 0, 64, 127
1, 79982, Note_on_c, 0, 66, 29
1, 80050, Note_off_c, 0, 66, 64
1, 80060, Control_c, 0, 64, 0
1, 80082, Note_on_c, 0, 82, 78
1, 80108, Note_off_c, 0, 80, 64
1, 80222, Note_on_c, 0, 65, 41
1, 80230, Control_c, 0, 64, 127
1, 80266, Note_off_c, 0, 71, 64
1, 80268, Note_off_c, 0, 75, 64
1, 80276, Note_off_c, 0, 65, 64
1, 80292, Note_off_c, 0, 82, 64
1, 80378, Note_on_c, 0, 65, 29
1, 80432, Note_off_c, 0, 65, 64
1, 80506, Note_on_c, 0, 68, 43
1, 80508, Note_on_c, 0, 74, 69
1, 80530, Note_on_c, 0, 71, 49
1, 80614, Control_c, 0, 64, 0
1, 80654, Note_on_c, 0, 64, 39
1, 80710, Note_off_c, 0, 64, 64
1, 80790, Note_on_c, 0, 64, 54
1, 80828, Control_c, 0, 64, 127
1, 80848, Note_off_c, 0, 64, 64
1, 80956, Note_on_c, 0, 75, 56
1, 80996, Note_off_c, 0, 74, 64
1, 80998, Control_c, 0, 64, 0
1, 81124, Note_on_c, 0, 63, 28
1, 81150, Note_off_c, 0, 71, 64
1, 81166, Note_off_c, 0, 68, 64
1, 81168, Control_c, 0, 64, 127
1, 81186, Note_off_c, 0, 75, 64
1, 81192, Note_off_c, 0, 63, 64
1, 81250, Note_on_c, 0, 63, 23
1, 81316, Note_off_c, 0, 63, 64
1, 81404, Note_on_c, 0, 77, 66
1, 81416, Note_on_c, 0, 75, 36
1, 81428, Note_on_c, 0, 71, 35
1, 81536, Note_on_c, 0, 68, 53
1, 81582, Control_c, 0, 64, 0
1, 81585, Note_off_c, 0, 68, 64
1, 81654, Note_on_c, 0, 68, 55
1, 81750, Control_c, 0, 64, 127
1, 81770, Note_off_c, 0, 68, 64
1, 81780, Note_on_c, 0, 78, 78
1, 81876, Note_off_c, 0, 77, 64
1, 81890, Control_c, 0, 64, 0
1, 81895, Note_on_c, 0, 66, 20
1, 81965, Note_off_c, 0, 66, 64
1, 82030, Note_on_c, 0, 66, 10
1, 82074, Control_c, 0, 64, 127
1, 82138, Note_off_c, 0, 66, 64
1, 82178, Note_on_c, 0, 80, 77
1, 82284, Note_off_c, 0, 78, 64
1, 82288, Control_c, 0, 64, 0
1, 82296, Note_on_c, 0, 65, 37
1, 82354, Note_off_c, 0, 65, 64
1, 82436, Note_on_c, 0, 65, 44
1, 82488, Control_c, 0, 64, 127
1, 82516, Note_off_c, 0, 65, 64
1, 82614, Note_on_c, 0, 77, 77
1, 82674, Note_off_c, 0, 80, 64
1, 82704, Control_c, 0, 64, 0
1, 82740, Note_on_c, 0, 68, 52
1, 82788, Note_off_c, 0, 68, 64
1, 82880, Note_on_c, 0, 68, 32
1, 82890, Note_on_c, 0, 78, 79
1, 82904, Control_c, 0, 64, 127
1, 82942, Note_off_c, 0, 68, 64
1, 82952, Note_off_c, 0, 77, 64
1, 83026, Control_c, 0, 64, 0
1, 83036, Note_on_c, 0, 80, 78
1, 83076, Note_off_c, 0, 78, 64
1, 83160, Note_on_c, 0, 66, 20
1, 83230, Note_off_c, 0, 66, 64
1, 83240, Control_c, 0, 64, 127
1, 83304, Note_on_c, 0, 66, 40
1, 83360, Note_off_c, 0, 66, 64
1, 83410, Control_c, 0, 64, 0
1, 83438, Note_on_c, 0, 83, 82
1, 83440, Note_off_c, 0, 80, 64
1, 83552, Note_on_c, 0, 65, 50
1, 83598, Note_off_c, 0, 65, 64
1, 83610, Control_c, 0, 64, 127
1, 83644, Note_off_c, 0, 71, 64
1, 83662, Note_off_c, 0, 75, 64
1, 83664, Note_off_c, 0, 83, 64
1, 83690, Note_on_c, 0, 65, 50
1, 83736, Note_off_c, 0, 65, 64
1, 83850, Note_on_c, 0, 82, 88
1, 83853, Note_on_c, 0, 70, 78
1, 83862, Note_on_c, 0, 58, 81
1, 83862, Note_on_c, 0, 74, 81
1, 83938, Note_off_c, 0, 58, 64
1, 83996, Note_on_c, 0, 65, 79
1, 84028, Note_off_c, 0, 70, 64
1, 84044, Note_off_c, 0, 65, 64
1, 84074, Note_off_c, 0, 74, 64
1, 84128, Note_off_c, 0, 82, 64
1, 84130, Note_on_c, 0, 58, 67
1, 84210, Control_c, 0, 64, 0
1, 84224, Note_off_c, 0, 58, 64
1, 84260, Note_on_c, 0, 65, 76
1, 84318, Note_off_c, 0, 65, 64
1, 84394, Note_on_c, 0, 58, 62
1, 84486, Note_off_c, 0, 58, 64
1, 84540, Note_on_c, 0, 65, 64
1, 84578, Note_off_c, 0, 65, 64
1, 84670, Note_on_c, 0, 58, 48
1, 84792, Note_off_c, 0, 58, 64
1, 84810, Note_on_c, 0, 65, 42
1, 84882, Note_off_c, 0, 65, 64
1, 84942, Note_on_c, 0, 58, 36
1, 85020, Note_off_c, 0, 58, 64
1, 85086, Note_on_c, 0, 65, 42
1, 85160, Note_off_c, 0, 65, 64
1, 85206, Note_on_c, 0, 58, 41
1, 85280, Note_off_c, 0, 58, 64
1, 85330, Note_on_c, 0, 65, 42
1, 85404, Note_off_c, 0, 65, 64
1, 85464, Note_on_c, 0, 58, 55
1, 85470, Note_on_c, 0, 51, 62
1, 85514, Note_off_c, 0, 58, 64
1, 85530, Note_off_c, 0, 51, 64
1, 85594, Note_on_c, 0, 55, 57
1, 85604, Note_on_c, 0, 60, 38
1, 85646, Note_off_c, 0, 55, 64
1, 85668, Note_off_c, 0, 60, 64
1, 85706, Note_on_c, 0, 58, 53
1, 85712, Note_on_c, 0, 51, 61
1, 85764, Note_off_c, 0, 58, 64
1, 85774, Note_off_c, 0, 51, 64
1, 85846, Note_on_c, 0, 60, 53
1, 85854, Note_on_c, 0, 55, 57
1, 85904, Note_off_c, 0, 60, 64
1, 85906, Note_off_c, 0, 55, 64
1, 85956, Note_on_c, 0, 58, 51
1, 85968, Note_on_c, 0, 51, 42
1, 86008, Note_off_c, 0, 58, 64
1, 86026, Note_off_c, 0, 51, 64
1, 86092, Note_on_c, 0, 60, 42
1, 86102, Note_on_c, 0, 55, 43
1, 86148, Note_off_c, 0, 60, 64
1, 86158, Note_off_c, 0, 55, 64
1, 86222, Note_on_c, 0, 55, 70
1, 86225, Note_on_c, 0, 62, 73
1, 86270, Note_off_c, 0, 62, 64
1, 86276, Note_off_c, 0, 55, 64
1, 86354, Note_on_c, 0, 63, 60
1, 86358, Note_on_c, 0, 58, 42
1, 86402, Note_off_c, 0, 63, 64
1, 86428, Note_off_c, 0, 58, 64
1, 86464, Note_on_c, 0, 55, 57
1, 86482, Note_on_c, 0, 62, 47
1, 86522, Note_off_c, 0, 55, 64
1, 86532, Note_off_c, 0, 62, 64
1, 86602, Note_on_c, 0, 63, 60
1, 86606, Note_on_c, 0, 58, 48
1, 86660, Note_off_c, 0, 58, 64
1, 86664, Note_off_c, 0, 63, 64
1, 86738, Note_on_c, 0, 55, 52
1, 86746, Note_on_c, 0, 62, 31
1, 86788, Note_off_c, 0, 55, 64
1, 86812, Note_off_c, 0, 62, 64
1, 86856, Note_on_c, 0, 55, 65
1, 86862, Note_on_c, 0, 60, 50
1, 86908, Note_off_c, 0, 55, 64
1, 86916, Note_off_c, 0, 60, 64
1, 86968, Note_on_c, 0, 51, 69
1, 86986, Note_on_c, 0, 58, 39
1, 87030, Note_off_c, 0, 51, 64
1, 87046, Note_off_c, 0, 58, 64
1, 87106, Note_on_c, 0, 60, 40
1, 87120, Note_on_c, 0, 55, 45
1, 87162, Note_off_c, 0, 60, 64
1, 87176, Note_off_c, 0, 55, 64
1, 87190, Note_on_c, 0, 51, 65
1, 87198, Note_on_c, 0, 58, 46
1, 87260, Note_off_c, 0, 58, 64
1, 87270, Note_off_c, 0, 51, 64
1, 87334, Note_on_c, 0, 60, 54
1, 87350, Note_on_c, 0, 55, 54
1, 87396, Note_off_c, 0, 60, 64
1, 87402, Note_off_c, 0, 55, 64
1, 87446, Note_on_c, 0, 58, 59
1, 87464, Note_on_c, 0, 51, 55
1, 87500, Note_off_c, 0, 58, 64
1, 87518, Note_off_c, 0, 51, 64
1, 87566, Note_on_c, 0, 55, 65
1, 87569, Note_on_c, 0, 60, 49
1, 87616, Note_off_c, 0, 55, 64
1, 87624, Note_off_c, 0, 60, 64
1, 87678, Note_on_c, 0, 55, 79
1, 87686, Note_on_c, 0, 58, 61
1, 87722, Note_off_c, 0, 55, 64
1, 87732, Note_off_c, 0, 58, 64
1, 87788, Note_on_c, 0, 58, 51
1, 87798, Note_on_c, 0, 62, 74
1, 87848, Note_off_c, 0, 62, 64
1, 87882, Note_off_c, 0, 58, 64
1, 87938, Note_on_c, 0, 55, 55
1, 88002, Note_off_c, 0, 55, 64
1, 88016, Note_on_c, 0, 43, 93
1, 88019, Note_on_c, 0, 50, 88
1, 88048, Note_off_c, 0, 43, 64
1, 88058, Note_off_c, 0, 50, 64
1, 88128, Note_on_c, 0, 58, 52
1, 88142, Note_on_c, 0, 67, 55
1, 88144, Note_on_c, 0, 62, 45
1, 88194, Note_off_c, 0, 67, 64
1, 88194, Note_off_c, 0, 62, 64
1, 88230, Note_off_c, 0, 58, 64
1, 88270, Note_on_c, 0, 55, 58
1, 88324, Note_off_c, 0, 55, 64
1, 88398, Note_on_c, 0, 58, 69
1, 88412, Note_on_c, 0, 51, 65
1, 88444, Note_off_c, 0, 58, 64
1, 88458, Note_off_c, 0, 51, 64
1, 88522, Note_on_c, 0, 55, 59
1, 88524, Note_on_c, 0, 60, 52
1, 88578, Note_off_c, 0, 55, 64
1, 88578, Note_off_c, 0, 60, 64
1, 88636, Note_on_c, 0, 58, 52
1, 88640, Note_on_c, 0, 51, 47
1, 88696, Note_off_c, 0, 58, 64
1, 88696, Note_off_c, 0, 51, 64
1, 88774, Note_on_c, 0, 55, 63
1, 88776, Note_on_c, 0, 60, 63
1, 88828, Note_off_c, 0, 55, 64
1, 88830, Note_off_c, 0, 60, 64
1, 88900, Note_on_c, 0, 51, 62
1, 88904, Note_on_c, 0, 58, 52
1, 88952, Note_off_c, 0, 51, 64
1, 88955, Note_off_c, 0, 58, 64
1, 89032, Note_on_c, 0, 55, 64
1, 89032, Note_on_c, 0, 60, 55
1, 89082, Note_off_c, 0, 60, 64
1, 89084, Note_off_c, 0, 55, 64
1, 89158, Note_on_c, 0, 55, 59
1, 89184, Note_on_c, 0, 62, 56
1, 89224, Note_off_c, 0, 55, 64
1, 89230, Note_off_c, 0, 62, 64
1, 89288, Note_on_c, 0, 58, 45
1, 89290, Note_on_c, 0, 63, 52
1, 89340, Note_off_c, 0, 63, 64
1, 89358, Note_off_c, 0, 58, 64
1, 89412, Note_on_c, 0, 55, 51
1, 89418, Note_on_c, 0, 62, 47
1, 89470, Note_off_c, 0, 55, 64
1, 89473, Note_off_c, 0, 62, 64
1, 89540, Note_on_c, 0, 58, 51
1, 89542, Note_on_c, 0, 63, 61
1, 89600, Note_off_c, 0, 58, 64
1, 89600, Note_off_c, 0, 63, 64
1, 89676, Note_on_c, 0, 62, 43
1, 89690, Note_on_c, 0, 55, 37
1, 89734, Note_off_c, 0, 62, 64
1, 89802, Note_on_c, 0, 60, 57
1, 89854, Note_off_c, 0, 60, 64
1, 89860, Note_off_c, 0, 55, 64
1, 89924, Note_on_c, 0, 58, 50
1, 89930, Note_on_c, 0, 51, 55
1, 89982, Note_off_c, 0, 58, 64
1, 89994, Note_off_c, 0, 51, 64
1, 90070, Note_on_c, 0, 55, 62
1, 90070, Note_on_c, 0, 60, 45
1, 90120, Note_off_c, 0, 55, 64
1, 90128, Note_off_c, 0, 60, 64
1, 90176, Note_on_c, 0, 58, 50
1, 90192, Note_on_c, 0, 51, 44
1, 90246, Note_off_c, 0, 58, 64
1, 90256, Note_off_c, 0, 51, 64
1, 90314, Note_on_c, 0, 55, 57
1, 90320, Note_on_c, 0, 60, 44
1, 90372, Note_off_c, 0, 55, 64
1, 90384, Note_off_c, 0, 60, 64
1, 90434, Note_on_c, 0, 58, 46
1, 90446, Note_on_c, 0, 51, 45
1, 90496, Note_off_c, 0, 58, 64
1, 90502, Note_off_c, 0, 51, 64
1, 90544, Note_on_c, 0, 60, 54
1, 90556, Note_on_c, 0, 55, 50
1, 90600, Note_off_c, 0, 60, 64
1, 90610, Note_off_c, 0, 55, 64
1, 90688, Note_on_c, 0, 58, 69
1, 90691, Note_on_c, 0, 55, 58
1, 90742, Note_off_c, 0, 55, 64
1, 90745, Note_off_c, 0, 58, 64
1, 90810, Note_on_c, 0, 58, 51
1, 90810, Note_on_c, 0, 62, 43
1, 90868, Note_off_c, 0, 62, 64
1, 90874, Note_off_c, 0, 58, 64
1, 90916, Note_on_c, 0, 55, 59
1, 90978, Note_off_c, 0, 55, 64
1, 91036, Note_on_c, 0, 43, 64
1, 91040, Note_on_c, 0, 50, 75
1, 91080, Note_off_c, 0, 43, 64
1, 91082, Note_off_c, 0, 50, 64
1, 91130, Note_on_c, 0, 58, 41
1, 91156, Note_on_c, 0, 67, 29
1, 91158, Note_on_c, 0, 62, 20
1, 91228, Note_off_c, 0, 67, 64
1, 91244, Note_off_c, 0, 62, 64
1, 91268, Note_off_c, 0, 58, 64
1, 91274, Note_on_c, 0, 55, 45
1, 91336, Note_off_c, 0, 55, 64
1, 91466, Note_on_c, 0, 65, 40
1, 91469, Note_on_c, 0, 59, 39
1, 91478, Note_on_c, 0, 63, 35
1, 91486, Note_on_c, 0, 51, 17
1, 91570, Note_off_c, 0, 51, 64
1, 91584, Control_c, 0, 64, 127
1, 91608, Note_on_c, 0, 44, 31
1, 91680, Note_off_c, 0, 44, 64
1, 91754, Note_on_c, 0, 51, 34
1, 91820, Note_off_c, 0, 51, 64
1, 91882, Note_on_c, 0, 67, 56
1, 91882, Note_on_c, 0, 62, 44
1, 91892, Note_off_c, 0, 63, 64
1, 91896, Note_on_c, 0, 44, 33
1, 91908, Note_off_c, 0, 65, 64
1, 91960, Note_off_c, 0, 44, 64
1, 92006, Note_on_c, 0, 51, 35
1, 92082, Note_off_c, 0, 51, 64
1, 92130, Note_on_c, 0, 44, 45
1, 92202, Note_off_c, 0, 44, 64
1, 92252, Note_off_c, 0, 62, 64
1, 92280, Note_on_c, 0, 63, 52
1, 92280, Note_on_c, 0, 65, 61
1, 92282, Note_on_c, 0, 51, 40
1, 92292, Control_c, 0, 64, 0
1, 92330, Note_off_c, 0, 67, 64
1, 92362, Note_off_c, 0, 51, 64
1, 92410, Note_on_c, 0, 44, 43
1, 92414, Control_c, 0, 64, 127
1, 92454, Note_off_c, 0, 65, 64
1, 92462, Note_off_c, 0, 63, 64
1, 92478, Note_off_c, 0, 44, 64
1, 92544, Note_on_c, 0, 65, 45
1, 92570, Note_on_c, 0, 51, 36
1, 92638, Note_off_c, 0, 51, 64
1, 92678, Note_on_c, 0, 70, 58
1, 92690, Note_on_c, 0, 44, 42
1, 92690, Note_on_c, 0, 62, 46
1, 92700, Note_off_c, 0, 65, 64
1, 92756, Note_off_c, 0, 44, 64
1, 92828, Note_on_c, 0, 51, 35
1, 92902, Note_off_c, 0, 51, 64
1, 92916, Note_off_c, 0, 62, 64
1, 92966, Note_on_c, 0, 67, 63
1, 92968, Note_on_c, 0, 44, 36
1, 93000, Note_off_c, 0, 70, 64
1, 93028, Note_off_c, 0, 44, 64
1, 93078, Note_off_c, 0, 67, 64
1, 93078, Note_on_c, 0, 51, 35
1, 93086, Note_on_c, 0, 65, 52
1, 93102, Note_on_c, 0, 63, 47
1, 93158, Note_off_c, 0, 51, 64
1, 93196, Note_on_c, 0, 44, 45
1, 93232, Note_off_c, 0, 65, 64
1, 93260, Note_off_c, 0, 44, 64
1, 93314, Note_off_c, 0, 63, 64
1, 93350, Note_on_c, 0, 51, 34
1, 93358, Note_on_c, 0, 65, 44
1, 93446, Note_off_c, 0, 51, 64
1, 93448, Control_c, 0, 64, 0
1, 93452, Note_off_c, 0, 65, 64
1, 93466, Note_on_c, 0, 67, 54
1, 93472, Note_on_c, 0, 62, 38
1, 93482, Note_on_c, 0, 44, 38
1, 93564, Note_off_c, 0, 44, 64
1, 93612, Control_c, 0, 64, 127
1, 93630, Note_on_c, 0, 51, 32
1, 93634, Note_off_c, 0, 67, 64
1, 93708, Note_off_c, 0, 51, 64
1, 93754, Note_on_c, 0, 67, 25
1, 93778, Note_off_c, 0, 62, 64
1, 93778, Note_on_c, 0, 44, 38
1, 93812, Control_c, 0, 64, 0
1, 93842, Note_off_c, 0, 44, 64
1, 93876, Note_off_c, 0, 67, 64
1, 93884, Note_on_c, 0, 65, 47
1, 93894, Note_on_c, 0, 63, 46
1, 93920, Note_on_c, 0, 51, 35
1, 93932, Note_off_c, 0, 59, 64
1, 93950, Control_c, 0, 64, 127
1, 93952, Note_off_c, 0, 63, 64
1, 93992, Note_off_c, 0, 51, 64
1, 93998, Note_off_c, 0, 65, 64
1, 94038, Note_on_c, 0, 44, 32
1, 94104, Note_off_c, 0, 44, 64
1, 94174, Note_on_c, 0, 51, 29
1, 94246, Note_off_c, 0, 51, 64
1, 94286, Note_on_c, 0, 87, 53
1, 94302, Note_on_c, 0, 44, 29
1, 94306, Note_on_c, 0, 75, 6
1, 94334, Note_off_c, 0, 87, 64
1, 94362, Note_off_c, 0, 75, 64
1, 94372, Note_off_c, 0, 44, 64
1, 94444, Note_on_c, 0, 51, 23
1, 94518, Note_off_c, 0, 51, 64
1, 94568, Note_on_c, 0, 44, 30
1, 94638, Note_off_c, 0, 44, 64
1, 94712, Note_on_c, 0, 65, 69
1, 94732, Note_on_c, 0, 59, 49
1, 94734, Note_on_c, 0, 63, 30
1, 94746, Note_on_c, 0, 51, 22
1, 94820, Note_off_c, 0, 51, 64
1, 94862, Note_on_c, 0, 44, 40
1, 94924, Note_off_c, 0, 44, 64
1, 94998, Note_on_c, 0, 51, 33
1, 95047, Note_off_c, 0, 63, 64
1, 95064, Note_off_c, 0, 51, 64
1, 95112, Note_on_c, 0, 67, 77
1, 95124, Note_on_c, 0, 44, 42
1, 95132, Note_on_c, 0, 62, 53
1, 95184, Note_off_c, 0, 65, 64
1, 95186, Note_off_c, 0, 44, 64
1, 95248, Note_on_c, 0, 51, 37
1, 95314, Note_off_c, 0, 51, 64
1, 95374, Note_on_c, 0, 44, 47
1, 95434, Note_off_c, 0, 44, 64
1, 95514, Note_on_c, 0, 51, 38
1, 95524, Note_on_c, 0, 63, 61
1, 95526, Note_on_c, 0, 65, 70
1, 95534, Note_off_c, 0, 62, 64
1, 95548, Control_c, 0, 64, 0
1, 95588, Note_off_c, 0, 51, 64
1, 95594, Note_off_c, 0, 67, 64
1, 95628, Note_on_c, 0, 44, 47
1, 95686, Control_c, 0, 64, 127
1, 95698, Note_off_c, 0, 44, 64
1, 95718, Note_off_c, 0, 65, 64
1, 95744, Note_off_c, 0, 63, 64
1, 95784, Note_on_c, 0, 51, 37
1, 95792, Note_on_c, 0, 65, 58
1, 95868, Note_off_c, 0, 51, 64
1, 95920, Note_on_c, 0, 44, 43
1, 95934, Note_on_c, 0, 70, 63
1, 95952, Note_on_c, 0, 62, 54
1, 95960, Note_off_c, 0, 65, 64
1, 96010, Control_c, 0, 64, 0
1, 96052, Note_off_c, 0, 44, 64
1, 96092, Note_on_c, 0, 51, 40
1, 96148, Control_c, 0, 64, 127
1, 96162, Note_off_c, 0, 51, 64
1, 96212, Note_off_c, 0, 62, 64
1, 96218, Note_on_c, 0, 44, 41
1, 96226, Note_on_c, 0, 67, 56
1, 96264, Note_off_c, 0, 70, 64
1, 96294, Note_off_c, 0, 44, 64
1, 96346, Control_c, 0, 64, 0
1, 96351, Note_on_c, 0, 63, 57
1, 96354, Note_off_c, 0, 67, 64
1, 96354, Note_on_c, 0, 65, 46
1, 96368, Note_on_c, 0, 51, 36
1, 96452, Note_off_c, 0, 51, 64
1, 96486, Control_c, 0, 64, 127
1, 96490, Note_off_c, 0, 65, 64
1, 96498, Note_on_c, 0, 44, 42
1, 96564, Note_off_c, 0, 44, 64
1, 96582, Note_on_c, 0, 65, 45
1, 96608, Note_off_c, 0, 63, 64
1, 96642, Note_on_c, 0, 51, 29
1, 96712, Note_off_c, 0, 65, 64
1, 96718, Note_off_c, 0, 51, 64
1, 96722, Note_on_c, 0, 67, 44
1, 96740, Note_on_c, 0, 62, 41
1, 96762, Control_c, 0, 64, 0
1, 96764, Note_on_c, 0, 44, 36
1, 96830, Note_off_c, 0, 44, 64
1, 96898, Note_on_c, 0, 51, 34
1, 96900, Control_c, 0, 64, 127
1, 96916, Note_off_c, 0, 67, 64
1, 96974, Note_off_c, 0, 51, 64
1, 96988, Note_on_c, 0, 67, 47
1, 97018, Note_on_c, 0, 44, 41
1, 97070, Note_off_c, 0, 62, 64
1, 97070, Control_c, 0, 64, 0
1, 97080, Note_off_c, 0, 44, 64
1, 97152, Note_on_c, 0, 51, 31
1, 97155, Note_off_c, 0, 67, 64
1, 97155, Note_on_c, 0, 65, 51
1, 97160, Note_off_c, 0, 59, 64
1, 97165, Note_on_c, 0, 59, 32
1, 97170, Note_on_c, 0, 63, 49
1, 97192, Control_c, 0, 64, 127
1, 97216, Note_off_c, 0, 63, 64
1, 97229, Note_off_c, 0, 59, 64
1, 97232, Note_off_c, 0, 51, 64
1, 97235, Note_off_c, 0, 65, 64
1, 97272, Note_on_c, 0, 44, 40
1, 97346, Note_off_c, 0, 44, 64
1, 97450, Note_on_c, 0, 51, 20
1, 97524, Note_off_c, 0, 51, 64
1, 97562, Note_on_c, 0, 44, 31
1, 97570, Note_on_c, 0, 87, 43
1, 97588, Note_on_c, 0, 75, 31
1, 97620, Note_off_c, 0, 87, 64
1, 97656, Note_off_c, 0, 44, 64
1, 97668, Note_off_c, 0, 75, 64
1, 97722, Note_on_c, 0, 51, 22
1, 97804, Note_off_c, 0, 51, 64
1, 97862, Note_on_c, 0, 44, 35
1, 97964, Note_off_c, 0, 44, 64
1, 98058, Note_on_c, 0, 66, 38
1, 98064, Note_on_c, 0, 59, 32
1, 98068, Control_c, 0, 64, 0
1, 98070, Note_on_c, 0, 62, 30
1, 98086, Note_on_c, 0, 47, 25
1, 98170, Note_off_c, 0, 47, 64
1, 98230, Note_on_c, 0, 40, 36
1, 98238, Control_c, 0, 64, 127
1, 98296, Note_off_c, 0, 40, 64
1, 98308, Note_off_c, 0, 59, 64
1, 98348, Note_on_c, 0, 47, 33
1, 98424, Note_off_c, 0, 47, 64
1, 98496, Note_on_c, 0, 40, 41
1, 98499, Note_off_c, 0, 62, 64
1, 98506, Note_on_c, 0, 56, 28
1, 98508, Note_on_c, 0, 68, 41
1, 98516, Note_on_c, 0, 64, 38
1, 98532, Note_off_c, 0, 66, 64
1, 98558, Note_off_c, 0, 40, 64
1, 98642, Note_off_c, 0, 56, 64
1, 98652, Note_on_c, 0, 47, 25
1, 98722, Note_off_c, 0, 47, 64
1, 98784, Note_on_c, 0, 40, 48
1, 98842, Note_off_c, 0, 40, 64
1, 98858, Note_off_c, 0, 64, 64
1, 98890, Note_off_c, 0, 68, 64
1, 98908, Note_on_c, 0, 66, 40
1, 98910, Note_on_c, 0, 47, 30
1, 98922, Note_on_c, 0, 59, 39
1, 98940, Note_on_c, 0, 62, 31
1, 98998, Note_off_c, 0, 47, 64
1, 99048, Note_off_c, 0, 59, 64
1, 99058, Note_off_c, 0, 66, 64
1, 99090, Note_on_c, 0, 40, 36
1, 99118, Note_off_c, 0, 62, 64
1, 99148, Note_off_c, 0, 40, 64
1, 99186, Note_on_c, 0, 66, 53
1, 99222, Note_on_c, 0, 47, 34
1, 99296, Note_off_c, 0, 47, 64
1, 99324, Note_on_c, 0, 40, 58
1, 99326, Note_on_c, 0, 71, 67
1, 99330, Note_on_c, 0, 62, 58
1, 99332, Note_off_c, 0, 66, 64
1, 99356, Note_on_c, 0, 68, 17
1, 99384, Note_off_c, 0, 40, 64
1, 99432, Note_off_c, 0, 68, 64
1, 99482, Note_on_c, 0, 47, 33
1, 99534, Note_off_c, 0, 62, 64
1, 99564, Note_off_c, 0, 47, 64
1, 99584, Note_on_c, 0, 68, 67
1, 99614, Note_on_c, 0, 40, 55
1, 99618, Note_off_c, 0, 71, 64
1, 99668, Note_off_c, 0, 40, 64
1, 99730, Note_on_c, 0, 66, 60
1, 99738, Note_on_c, 0, 59, 50
1, 99738, Note_on_c, 0, 62, 36
1, 99741, Note_off_c, 0, 68, 64
1, 99741, Note_on_c, 0, 47, 35
1, 99818, Note_off_c, 0, 47, 64
1, 99856, Note_off_c, 0, 66, 64
1, 99894, Note_on_c, 0, 40, 42
1, 99936, Note_off_c, 0, 59, 64
1, 99950, Note_off_c, 0, 40, 64
1, 100004, Note_on_c, 0, 47, 33
1, 100014, Note_on_c, 0, 66, 40
1, 100078, Note_off_c, 0, 47, 64
1, 100104, Note_off_c, 0, 66, 64
1, 100106, Note_on_c, 0, 68, 61
1, 100114, Note_on_c, 0, 56, 50
1, 100116, Note_off_c, 0, 62, 64
1, 100126, Note_on_c, 0, 40, 63
1, 100140, Note_on_c, 0, 64, 50
1, 100178, Note_off_c, 0, 40, 64
1, 100250, Note_on_c, 0, 47, 39
1, 100268, Note_off_c, 0, 68, 64
1, 100280, Note_off_c, 0, 56, 64
1, 100338, Note_off_c, 0, 47, 64
1, 100402, Note_on_c, 0, 40, 50
1, 100410, Note_on_c, 0, 68, 66
1, 100422, Note_off_c, 0, 64, 64
1, 100460, Note_off_c, 0, 40, 64
1, 100492, Note_off_c, 0, 68, 64
1, 100518, Note_on_c, 0, 47, 34
1, 100540, Note_on_c, 0, 59, 50
1, 100546, Note_on_c, 0, 66, 56
1, 100551, Note_on_c, 0, 62, 54
1, 100598, Note_off_c, 0, 62, 64
1, 100608, Note_off_c, 0, 47, 64
1, 100618, Note_off_c, 0, 59, 64
1, 100646, Note_off_c, 0, 66, 64
1, 100682, Note_on_c, 0, 40, 54
1, 100740, Note_off_c, 0, 40, 64
1, 100846, Note_on_c, 0, 47, 27
1, 100920, Note_off_c, 0, 47, 64
1, 100972, Note_on_c, 0, 88, 44
1, 100978, Note_on_c, 0, 76, 40
1, 100988, Note_on_c, 0, 40, 43
1, 101026, Note_off_c, 0, 88, 64
1, 101032, Note_off_c, 0, 76, 64
1, 101048, Note_off_c, 0, 40, 64
1, 101118, Note_on_c, 0, 47, 26
1, 101200, Note_off_c, 0, 47, 64
1, 101278, Note_on_c, 0, 40, 39
1, 101332, Note_off_c, 0, 40, 64
1, 101370, Note_on_c, 0, 66, 60
1, 101370, Note_on_c, 0, 59, 54
1, 101378, Note_on_c, 0, 62, 50
1, 101394, Note_on_c, 0, 47, 28
1, 101464, Note_off_c, 0, 47, 64
1, 101512, Note_off_c, 0, 59, 64
1, 101516, Note_on_c, 0, 40, 52
1, 101574, Note_off_c, 0, 40, 64
1, 101642, Note_on_c, 0, 47, 35
1, 101668, Note_off_c, 0, 62, 64
1, 101734, Note_off_c, 0, 47, 64
1, 101768, Note_on_c, 0, 68, 73
1, 101768, Note_on_c, 0, 56, 66
1, 101792, Note_on_c, 0, 40, 54
1, 101795, Note_on_c, 0, 64, 64
1, 101818, Note_off_c, 0, 66, 64
1, 101850, Note_off_c, 0, 40, 64
1, 101934, Note_on_c, 0, 47, 28
1, 101978, Note_off_c, 0, 56, 64
1, 102006, Note_off_c, 0, 47, 64
1, 102050, Note_on_c, 0, 40, 68
1, 102102, Note_off_c, 0, 40, 64
1, 102142, Note_off_c, 0, 64, 64
1, 102144, Note_on_c, 0, 66, 72
1, 102152, Note_on_c, 0, 59, 70
1, 102164, Note_on_c, 0, 62, 55
1, 102176, Note_on_c, 0, 47, 49
1, 102208, Note_off_c, 0, 68, 64
1, 102260, Note_off_c, 0, 47, 64
1, 102310, Note_off_c, 0, 66, 64
1, 102310, Note_on_c, 0, 40, 64
1, 102364, Note_off_c, 0, 40, 64
1, 102376, Note_off_c, 0, 59, 64
1, 102424, Note_on_c, 0, 66, 60
1, 102434, Note_on_c, 0, 47, 42
1, 102446, Note_off_c, 0, 62, 64
1, 102530, Note_off_c, 0, 47, 64
1, 102556, Note_on_c, 0, 71, 84
1, 102558, Note_on_c, 0, 62, 55
1, 102558, Note_on_c, 0, 68, 52
1, 102570, Note_on_c, 0, 40, 63
1, 102586, Note_off_c, 0, 66, 64
1, 102660, Note_off_c, 0, 40, 64
1, 102664, Note_off_c, 0, 68, 64
1, 102710, Note_on_c, 0, 47, 41
1, 102792, Note_off_c, 0, 62, 64
1, 102795, Note_off_c, 0, 47, 64
1, 102814, Note_on_c, 0, 68, 76
1, 102842, Note_on_c, 0, 40, 64
1, 102864, Note_off_c, 0, 71, 64
1, 102900, Note_off_c, 0, 40, 64
1, 102946, Note_on_c, 0, 59, 66
1, 102948, Note_on_c, 0, 62, 66
1, 102950, Note_on_c, 0, 66, 72
1, 102964, Note_on_c, 0, 47, 42
1, 102980, Note_off_c, 0, 68, 64
1, 103048, Note_off_c, 0, 47, 64
1, 103096, Note_off_c, 0, 66, 64
1, 103110, Note_on_c, 0, 40, 59
1, 103160, Note_off_c, 0, 59, 64
1, 103162, Note_off_c, 0, 40, 64
1, 103224, Note_on_c, 0, 66, 55
1, 103227, Note_on_c, 0, 47, 41
1, 103302, Note_off_c, 0, 47, 64
1, 103334, Note_on_c, 0, 56, 63
1, 103338, Note_on_c, 0, 68, 70
1, 103348, Note_on_c, 0, 64, 61
1, 103350, Note_off_c, 0, 62, 64
1, 103358, Note_on_c, 0, 40, 57
1, 103362, Note_off_c, 0, 66, 64
1, 103400, Control_c, 0, 64, 0
1, 103422, Note_off_c, 0, 40, 64
1, 103484, Note_on_c, 0, 47, 39
1, 103508, Control_c, 0, 64, 127
1, 103526, Note_off_c, 0, 68, 64
1, 103564, Note_off_c, 0, 47, 64
1, 103574, Note_off_c, 0, 56, 64
1, 103602, Note_on_c, 0, 68, 50
1, 103620, Note_on_c, 0, 40, 61
1, 103656, Note_off_c, 0, 64, 64
1, 103676, Note_off_c, 0, 40, 64
1, 103744, Note_on_c, 0, 66, 60
1, 103747, Note_on_c, 0, 59, 54
1, 103747, Note_on_c, 0, 47, 36
1, 103750, Note_off_c, 0, 68, 64
1, 103760, Note_on_c, 0, 62, 39
1, 103794, Note_off_c, 0, 59, 64
1, 103818, Note_off_c, 0, 62, 64
1, 103828, Note_off_c, 0, 66, 64
1, 103844, Note_off_c, 0, 47, 64
1, 103918, Note_on_c, 0, 40, 49
1, 103988, Note_off_c, 0, 40, 64
1, 104062, Note_on_c, 0, 47, 39
1, 104130, Note_off_c, 0, 47, 64
1, 104156, Note_on_c, 0, 76, 13
1, 104160, Note_on_c, 0, 88, 73
1, 104198, Note_off_c, 0, 88, 64
1, 104198, Note_on_c, 0, 40, 53
1, 104214, Note_off_c, 0, 76, 64
1, 104250, Note_off_c, 0, 40, 64
1, 104314, Note_on_c, 0, 47, 34
1, 104394, Note_off_c, 0, 47, 64
1, 104444, Note_on_c, 0, 40, 59
1, 104502, Note_off_c, 0, 40, 64
1, 104580, Note_on_c, 0, 66, 67
1, 104594, Note_on_c, 0, 57, 55
1, 104597, Control_c, 0, 64, 0
1, 104600, Note_on_c, 0, 47, 34
1, 104604, Note_on_c, 0, 63, 54
1, 104688, Note_off_c, 0, 47, 64
1, 104712, Note_off_c, 0, 57, 64
1, 104736, Control_c, 0, 64, 127
1, 104740, Note_off_c, 0, 63, 64
1, 104740, Note_on_c, 0, 40, 52
1, 104776, Note_off_c, 0, 66, 64
1, 104804, Note_off_c, 0, 40, 64
1, 104860, Note_on_c, 0, 66, 50
1, 104870, Note_on_c, 0, 47, 36
1, 104962, Note_off_c, 0, 47, 64
1, 104980, Note_on_c, 0, 73, 78
1, 104992, Note_on_c, 0, 64, 76
1, 105000, Note_off_c, 0, 66, 64
1, 105008, Note_on_c, 0, 69, 39
1, 105014, Note_on_c, 0, 40, 63
1, 105068, Note_off_c, 0, 40, 64
1, 105074, Note_off_c, 0, 69, 64
1, 105126, Note_off_c, 0, 73, 64
1, 105144, Note_on_c, 0, 47, 34
1, 105232, Note_off_c, 0, 47, 64
1, 105254, Note_on_c, 0, 69, 71
1, 105282, Note_on_c, 0, 40, 55
1, 105330, Note_off_c, 0, 40, 64
1, 105378, Note_off_c, 0, 64, 64
1, 105378, Note_on_c, 0, 61, 81
1, 105381, Note_on_c, 0, 66, 66
1, 105396, Note_on_c, 0, 63, 79
1, 105406, Note_on_c, 0, 47, 45
1, 105409, Note_off_c, 0, 69, 64
1, 105466, Note_off_c, 0, 47, 64
1, 105502, Note_on_c, 0, 40, 68
1, 105554, Note_off_c, 0, 40, 64
1, 105640, Note_on_c, 0, 47, 49
1, 105734, Note_off_c, 0, 47, 64
1, 105780, Note_on_c, 0, 40, 61
1, 105786, Note_on_c, 0, 59, 73
1, 105832, Note_off_c, 0, 61, 64
1, 105864, Note_off_c, 0, 40, 64
1, 105904, Note_off_c, 0, 63, 64
1, 105916, Note_on_c, 0, 47, 42
1, 106004, Note_off_c, 0, 47, 64
1, 106044, Note_on_c, 0, 40, 67
1, 106076, Note_off_c, 0, 59, 64
1, 106090, Note_off_c, 0, 66, 64
1, 106120, Note_off_c, 0, 40, 64
1, 106166, Control_c, 0, 64, 0
1, 106182, Note_on_c, 0, 66, 66
1, 106190, Note_on_c, 0, 47, 46
1, 106192, Note_on_c, 0, 57, 76
1, 106202, Note_on_c, 0, 63, 57
1, 106280, Note_off_c, 0, 57, 64
1, 106302, Note_off_c, 0, 63, 64
1, 106305, Control_c, 0, 64, 127
1, 106320, Note_off_c, 0, 47, 64
1, 106336, Note_on_c, 0, 40, 61
1, 106364, Note_off_c, 0, 66, 64
1, 106400, Note_off_c, 0, 40, 64
1, 106446, Note_on_c, 0, 66, 56
1, 106482, Note_on_c, 0, 47, 44
1, 106558, Note_off_c, 0, 47, 64
1, 106566, Note_on_c, 0, 73, 78
1, 106574, Note_on_c, 0, 64, 87
1, 106582, Note_on_c, 0, 69, 53
1, 106584, Note_on_c, 0, 40, 71
1, 106618, Note_off_c, 0, 66, 64
1, 106674, Note_off_c, 0, 40, 64
1, 106720, Note_on_c, 0, 47, 52
1, 106722, Note_off_c, 0, 69, 64
1, 106734, Note_off_c, 0, 73, 64
1, 106838, Note_off_c, 0, 47, 64
1, 106841, Note_on_c, 0, 69, 67
1, 106845, Note_on_c, 0, 40, 68
1, 106916, Note_off_c, 0, 40, 64
1, 106972, Note_on_c, 0, 66, 71
1, 106975, Note_on_c, 0, 61, 82
1, 106984, Note_on_c, 0, 63, 84
1, 106986, Note_on_c, 0, 47, 51
1, 107020, Note_off_c, 0, 64, 64
1, 107040, Note_off_c, 0, 69, 64
1, 107114, Note_off_c, 0, 47, 64
1, 107124, Note_on_c, 0, 40, 73
1, 107180, Control_c, 0, 64, 0
1, 107244, Note_off_c, 0, 40, 64
1, 107258, Note_on_c, 0, 47, 53
1, 107318, Control_c, 0, 64, 127
1, 107348, Note_off_c, 0, 47, 64
1, 107366, Note_on_c, 0, 59, 82
1, 107376, Note_on_c, 0, 40, 64
1, 107468, Note_off_c, 0, 61, 64
1, 107496, Note_off_c, 0, 40, 64
1, 107501, Note_on_c, 0, 47, 68
1, 107544, Note_off_c, 0, 63, 64
1, 107616, Note_on_c, 0, 40, 83
1, 107622, Note_off_c, 0, 47, 64
1, 107706, Note_off_c, 0, 66, 64
1, 107752, Note_off_c, 0, 40, 64
1, 107758, Note_on_c, 0, 47, 87
1, 107764, Control_c, 0, 64, 0
1, 107786, Note_off_c, 0, 59, 64
1, 107874, Note_on_c, 0, 40, 89
1, 107876, Note_off_c, 0, 47, 64
1, 107886, Control_c, 0, 64, 127
1, 107998, Note_off_c, 0, 40, 64
1, 108014, Note_on_c, 0, 47, 85
1, 108052, Note_off_c, 0, 47, 64
1, 108120, Note_on_c, 0, 57, 78
1, 108126, Note_on_c, 0, 63, 78
1, 108134, Note_on_c, 0, 61, 63
1, 108254, Note_on_c, 0, 54, 81
1, 108286, Note_off_c, 0, 57, 64
1, 108286, Note_off_c, 0, 63, 64
1, 108318, Note_off_c, 0, 61, 64
1, 108362, Note_off_c, 0, 54, 64
1, 108362, Note_on_c, 0, 57, 42
1, 108382, Note_on_c, 0, 63, 52
1, 108388, Note_on_c, 0, 61, 61
1, 108424, Note_off_c, 0, 57, 64
1, 108470, Note_off_c, 0, 61, 64
1, 108488, Note_off_c, 0, 63, 64
1, 108556, Note_on_c, 0, 59, 94
1, 108670, Note_off_c, 0, 59, 64
1, 108680, Note_on_c, 0, 54, 92
1, 108808, Note_off_c, 0, 54, 64
1, 108816, Note_on_c, 0, 59, 89
1, 108906, Note_off_c, 0, 59, 64
1, 108940, Note_on_c, 0, 73, 75
1, 108942, Note_on_c, 0, 69, 63
1, 108944, Note_on_c, 0, 66, 62
1, 109066, Note_on_c, 0, 63, 75
1, 109106, Note_off_c, 0, 73, 64
1, 109109, Note_off_c, 0, 66, 64
1, 109138, Note_off_c, 0, 69, 64
1, 109182, Note_off_c, 0, 63, 64
1, 109196, Note_on_c, 0, 73, 46
1, 109199, Note_on_c, 0, 66, 45
1, 109202, Note_on_c, 0, 69, 59
1, 109268, Note_off_c, 0, 69, 64
1, 109296, Note_off_c, 0, 66, 64
1, 109304, Note_off_c, 0, 73, 64
1, 109358, Note_on_c, 0, 47, 93
1, 109476, Note_off_c, 0, 47, 64
1, 109486, Note_on_c, 0, 40, 84
1, 109618, Note_on_c, 0, 47, 85
1, 109732, Note_on_c, 0, 63, 84
1, 109740, Note_on_c, 0, 57, 78
1, 109750, Note_on_c, 0, 61, 66
1, 109760, Note_off_c, 0, 40, 64
1, 109778, Note_off_c, 0, 47, 64
1, 109842, Note_on_c, 0, 54, 92
1, 109860, Note_off_c, 0, 63, 64
1, 109880, Note_off_c, 0, 57, 64
1, 109886, Note_off_c, 0, 61, 64
1, 109946, Note_off_c, 0, 54, 64
1, 109956, Note_on_c, 0, 57, 53
1, 109972, Note_on_c, 0, 61, 45
1, 109975, Note_on_c, 0, 63, 69
1, 110000, Note_off_c, 0, 57, 64
1, 110036, Note_off_c, 0, 61, 64
1, 110072, Note_off_c, 0, 63, 64
1, 110128, Note_on_c, 0, 59, 95
1, 110242, Note_on_c, 0, 54, 97
1, 110260, Note_off_c, 0, 59, 64
1, 110370, Note_on_c, 0, 59, 88
1, 110386, Note_off_c, 0, 54, 64
1, 110424, Note_off_c, 0, 59, 64
1, 110486, Note_on_c, 0, 73, 73
1, 110486, Note_on_c, 0, 66, 66
1, 110492, Note_on_c, 0, 69, 62
1, 110602, Note_on_c, 0, 63, 87
1, 110636, Note_off_c, 0, 66, 64
1, 110638, Note_off_c, 0, 73, 64
1, 110638, Note_off_c, 0, 69, 64
1, 110706, Note_off_c, 0, 63, 64
1, 110708, Note_on_c, 0, 66, 50
1, 110712, Note_on_c, 0, 69, 43
1, 110712, Note_on_c, 0, 73, 52
1, 110768, Note_off_c, 0, 66, 64
1, 110794, Note_off_c, 0, 69, 64
1, 110850, Note_off_c, 0, 73, 64
1, 110892, Note_on_c, 0, 66, 91
1, 111030, Note_off_c, 0, 66, 64
1, 111030, Note_on_c, 0, 59, 84
1, 111150, Note_on_c, 0, 66, 82
1, 111222, Note_off_c, 0, 59, 64
1, 111298, Note_on_c, 0, 83, 106
1, 111300, Note_on_c, 0, 69, 80
1, 111306, Note_on_c, 0, 75, 73
1, 111350, Note_off_c, 0, 66, 64
1, 111434, Note_on_c, 0, 71, 91
1, 111440, Note_off_c, 0, 69, 64
1, 111444, Note_on_c, 0, 59, 78
1, 111458, Note_off_c, 0, 83, 64
1, 111484, Note_off_c, 0, 75, 64
1, 111562, Note_off_c, 0, 71, 64
1, 111576, Note_on_c, 0, 75, 55
1, 111580, Note_on_c, 0, 83, 100
1, 111586, Note_on_c, 0, 69, 75
1, 111600, Note_off_c, 0, 59, 64
1, 111686, Note_off_c, 0, 69, 64
1, 111710, Note_on_c, 0, 59, 66
1, 111712, Note_on_c, 0, 71, 94
1, 111724, Note_off_c, 0, 75, 64
1, 111724, Note_off_c, 0, 83, 64
1, 111818, Note_off_c, 0, 71, 64
1, 111830, Note_on_c, 0, 69, 58
1, 111832, Note_on_c, 0, 75, 49
1, 111836, Note_on_c, 0, 83, 89
1, 111840, Note_on_c, 0, 66, 61
1, 111851, Note_off_c, 0, 59, 64
1, 111904, Note_off_c, 0, 69, 64
1, 111958, Note_on_c, 0, 71, 91
1, 111960, Note_off_c, 0, 66, 64
1, 111962, Note_off_c, 0, 83, 64
1, 111968, Note_on_c, 0, 59, 66
1, 111972, Note_off_c, 0, 75, 64
1, 112080, Note_off_c, 0, 71, 64
1, 112090, Note_off_c, 0, 59, 64
1, 112092, Note_on_c, 0, 83, 95
1, 112092, Note_on_c, 0, 69, 70
1, 112095, Note_on_c, 0, 75, 56
1, 112108, Note_on_c, 0, 66, 55
1, 112166, Note_off_c, 0, 75, 64
1, 112178, Note_off_c, 0, 69, 64
1, 112216, Note_on_c, 0, 71, 97
1, 112218, Note_off_c, 0, 83, 64
1, 112234, Note_off_c, 0, 66, 64
1, 112237, Note_on_c, 0, 59, 79
1, 112330, Note_off_c, 0, 71, 64
1, 112346, Note_off_c, 0, 59, 64
1, 112346, Note_on_c, 0, 75, 70
1, 112349, Note_on_c, 0, 83, 105
1, 112356, Note_on_c, 0, 69, 76
1, 112368, Note_on_c, 0, 66, 60
1, 112430, Note_off_c, 0, 69, 64
1, 112476, Note_on_c, 0, 71, 103
1, 112482, Note_off_c, 0, 75, 64
1, 112482, Note_on_c, 0, 59, 95
1, 112492, Note_off_c, 0, 83, 64
1, 112498, Note_off_c, 0, 66, 64
1, 112598, Note_on_c, 0, 69, 80
1, 112601, Note_off_c, 0, 71, 64
1, 112604, Note_on_c, 0, 75, 67
1, 112606, Note_on_c, 0, 83, 91
1, 112614, Note_on_c, 0, 66, 59
1, 112626, Note_off_c, 0, 59, 64
1, 112674, Note_off_c, 0, 69, 64
1, 112714, Note_on_c, 0, 71, 96
1, 112730, Note_on_c, 0, 59, 72
1, 112733, Note_off_c, 0, 83, 64
1, 112760, Note_off_c, 0, 75, 64
1, 112764, Note_off_c, 0, 66, 64
1, 112820, Note_off_c, 0, 71, 64
1, 112840, Note_on_c, 0, 75, 62
1, 112844, Note_on_c, 0, 83, 99
1, 112852, Note_on_c, 0, 69, 83
1, 112864, Note_on_c, 0, 66, 52
1, 112872, Note_off_c, 0, 59, 64
1, 112948, Note_off_c, 0, 69, 64
1, 112964, Note_on_c, 0, 71, 100
1, 112970, Note_off_c, 0, 83, 64
1, 112982, Note_on_c, 0, 59, 74
1, 113000, Note_off_c, 0, 66, 64
1, 113008, Note_off_c, 0, 75, 64
1, 113074, Note_off_c, 0, 71, 64
1, 113092, Note_on_c, 0, 75, 67
1, 113102, Note_on_c, 0, 83, 108
1, 113108, Note_on_c, 0, 69, 81
1, 113112, Note_on_c, 0, 66, 64
1, 113124, Note_off_c, 0, 59, 64
1, 113186, Note_off_c, 0, 69, 64
1, 113224, Note_on_c, 0, 71, 103
1, 113234, Note_on_c, 0, 59, 78
1, 113244, Note_off_c, 0, 83, 64
1, 113247, Note_off_c, 0, 75, 64
1, 113254, Note_off_c, 0, 66, 64
1, 113320, Note_off_c, 0, 71, 64
1, 113364, Note_on_c, 0, 83, 89
1, 113366, Note_on_c, 0, 69, 83
1, 113370, Note_on_c, 0, 75, 75
1, 113382, Note_on_c, 0, 66, 69
1, 113384, Note_off_c, 0, 59, 64
1, 113466, Note_off_c, 0, 83, 64
1, 113480, Note_off_c, 0, 69, 64
1, 113495, Note_on_c, 0, 71, 81
1, 113504, Note_off_c, 0, 75, 64
1, 113522, Note_off_c, 0, 66, 64
1, 113526, Note_on_c, 0, 59, 97
1, 113536, Note_off_c, 0, 71, 64
1, 113638, Note_off_c, 0, 59, 64
1, 113734, Note_on_c, 0, 59, 100
1, 113832, Note_off_c, 0, 59, 64
1, 114270, Control_c, 0, 64, 0
1, 114348, Note_on_c, 0, 64, 111
1, 114524, Note_on_c, 0, 71, 70
1, 114540, Note_on_c, 0, 80, 60
1, 114542, Note_on_c, 0, 76, 51
1, 114546, Control_c, 0, 64, 127
1, 114556, Note_on_c, 0, 83, 88
1, 114594, Note_off_c, 0, 64, 64
1, 114612, Note_off_c, 0, 76, 64
1, 114646, Note_off_c, 0, 71, 64
1, 114708, Note_off_c, 0, 83, 64
1, 114712, Note_off_c, 0, 80, 64
1, 114726, Note_on_c, 0, 66, 93
1, 114792, Control_c, 0, 64, 0
1, 114916, Note_on_c, 0, 71, 72
1, 114936, Note_on_c, 0, 81, 63
1, 114938, Note_on_c, 0, 76, 54
1, 114938, Note_on_c, 0, 83, 96
1, 114976, Control_c, 0, 64, 127
1, 114998, Note_off_c, 0, 66, 64
1, 115032, Note_off_c, 0, 76, 64
1, 115035, Note_off_c, 0, 71, 64
1, 115078, Note_off_c, 0, 83, 64
1, 115086, Note_off_c, 0, 81, 64
1, 115090, Note_on_c, 0, 59, 90
1, 115182, Note_off_c, 0, 59, 64
1, 115228, Note_on_c, 0, 61, 95
1, 115230, Note_on_c, 0, 71, 82
1, 115236, Note_on_c, 0, 83, 89
1, 115236, Note_on_c, 0, 81, 65
1, 115248, Note_on_c, 0, 76, 46
1, 115306, Note_off_c, 0, 76, 64
1, 115322, Note_off_c, 0, 81, 64
1, 115324, Note_off_c, 0, 61, 64
1, 115327, Note_off_c, 0, 71, 64
1, 115360, Control_c, 0, 64, 0
1, 115364, Note_off_c, 0, 83, 64
1, 115404, Note_on_c, 0, 64, 106
1, 115586, Note_on_c, 0, 83, 92
1, 115588, Note_on_c, 0, 80, 61
1, 115590, Note_on_c, 0, 71, 65
1, 115600, Note_on_c, 0, 76, 51
1, 115606, Control_c, 0, 64, 127
1, 115638, Note_off_c, 0, 71, 64
1, 115640, Note_off_c, 0, 64, 64
1, 115664, Note_off_c, 0, 76, 64
1, 115744, Note_off_c, 0, 83, 64
1, 115748, Note_off_c, 0, 80, 64
1, 115774, Note_on_c, 0, 71, 115
1, 115776, Control_c, 0, 64, 0
1, 115960, Note_on_c, 0, 80, 55
1, 115968, Note_on_c, 0, 83, 86
1, 115976, Control_c, 0, 64, 127
1, 115978, Note_off_c, 0, 71, 64
1, 115978, Note_on_c, 0, 76, 50
1, 116068, Note_off_c, 0, 83, 64
1, 116072, Note_off_c, 0, 76, 64
1, 116088, Note_off_c, 0, 80, 64
1, 116126, Note_on_c, 0, 66, 93
1, 116284, Control_c, 0, 64, 0
1, 116302, Note_on_c, 0, 71, 68
1, 116305, Note_on_c, 0, 81, 58
1, 116305, Note_on_c, 0, 83, 87
1, 116305, Note_on_c, 0, 76, 54
1, 116480, Note_off_c, 0, 71, 64
1, 116482, Control_c, 0, 64, 127
1, 116488, Note_off_c, 0, 83, 64
1, 116490, Note_off_c, 0, 81, 64
1, 116504, Note_off_c, 0, 76, 64
1, 116556, Note_off_c, 0, 66, 64
1, 116624, Note_on_c, 0, 64, 94
1, 116634, Note_on_c, 0, 71, 75
1, 116642, Note_on_c, 0, 83, 92
1, 116642, Note_on_c, 0, 76, 45
1, 116645, Note_on_c, 0, 80, 50
1, 116714, Note_off_c, 0, 71, 64
1, 116717, Note_off_c, 0, 64, 64
1, 116722, Note_off_c, 0, 76, 64
1, 116736, Note_off_c, 0, 80, 64
1, 116754, Note_off_c, 0, 83, 64
1, 116788, Note_on_c, 0, 66, 92
1, 116916, Note_off_c, 0, 66, 64
1, 116944, Control_c, 0, 64, 0
1, 116966, Note_on_c, 0, 59, 104
1, 117126, Note_on_c, 0, 80, 62
1, 117132, Note_on_c, 0, 71, 67
1, 117135, Note_on_c, 0, 83, 78
1, 117138, Note_on_c, 0, 76, 50
1, 117160, Control_c, 0, 64, 127
1, 117174, Note_off_c, 0, 59, 64
1, 117216, Note_off_c, 0, 71, 64
1, 117228, Note_off_c, 0, 76, 64
1, 117272, Note_off_c, 0, 80, 64
1, 117276, Note_off_c, 0, 83, 64
1, 117288, Note_on_c, 0, 61, 100
1, 117354, Note_off_c, 0, 61, 64
1, 117434, Control_c, 0, 64, 0
1, 117466, Note_on_c, 0, 66, 94
1, 117616, Note_on_c, 0, 81, 57
1, 117622, Note_on_c, 0, 76, 57
1, 117622, Note_on_c, 0, 83, 79
1, 117672, Note_off_c, 0, 76, 64
1, 117690, Note_off_c, 0, 83, 64
1, 117712, Control_c, 0, 64, 127
1, 117730, Note_off_c, 0, 81, 64
1, 117776, Note_on_c, 0, 71, 78
1, 117830, Note_off_c, 0, 71, 64
1, 117882, Control_c, 0, 64, 0
1, 117934, Note_on_c, 0, 81, 68
1, 117937, Note_on_c, 0, 83, 94
1, 117942, Note_on_c, 0, 75, 64
1, 117990, Note_off_c, 0, 75, 64
1, 118038, Note_off_c, 0, 81, 64
1, 118054, Note_off_c, 0, 83, 64
1, 118080, Note_on_c, 0, 71, 84
1, 118112, Control_c, 0, 64, 127
1, 118130, Note_off_c, 0, 71, 64
1, 118248, Note_on_c, 0, 83, 95
1, 118254, Note_on_c, 0, 81, 57
1, 118257, Note_on_c, 0, 75, 65
1, 118270, Note_off_c, 0, 66, 64
1, 118310, Note_off_c, 0, 81, 64
1, 118312, Note_off_c, 0, 75, 64
1, 118378, Note_off_c, 0, 83, 64
1, 118424, Note_on_c, 0, 68, 98
1, 118526, Control_c, 0, 64, 0
1, 118626, Note_on_c, 0, 83, 89
1, 118626, Note_on_c, 0, 71, 62
1, 118634, Note_on_c, 0, 80, 46
1, 118638, Note_on_c, 0, 75, 41
1, 118696, Control_c, 0, 64, 127
1, 118699, Note_off_c, 0, 80, 64
1, 118704, Note_off_c, 0, 68, 64
1, 118724, Note_off_c, 0, 75, 64
1, 118752, Note_off_c, 0, 83, 64
1, 118755, Note_off_c, 0, 71, 64
1, 118802, Note_on_c, 0, 66, 89
1, 118850, Control_c, 0, 64, 0
1, 118968, Note_on_c, 0, 80, 72
1, 118968, Note_on_c, 0, 71, 69
1, 118976, Note_on_c, 0, 75, 49
1, 119006, Note_off_c, 0, 80, 64
1, 119014, Note_off_c, 0, 66, 64
1, 119016, Note_off_c, 0, 71, 64
1, 119018, Control_c, 0, 64, 127
1, 119024, Note_off_c, 0, 75, 64
1, 119134, Note_on_c, 0, 64, 85
1, 119196, Note_off_c, 0, 64, 64
1, 119256, Note_on_c, 0, 71, 62
1, 119264, Note_on_c, 0, 75, 51
1, 119266, Note_on_c, 0, 68, 47
1, 119278, Note_on_c, 0, 63, 92
1, 119312, Note_off_c, 0, 71, 64
1, 119316, Note_off_c, 0, 75, 64
1, 119336, Note_off_c, 0, 68, 64
1, 119382, Note_off_c, 0, 63, 64
1, 119385, Control_c, 0, 64, 0
1, 119440, Note_on_c, 0, 61, 97
1, 119578, Note_on_c, 0, 64, 71
1, 119588, Note_on_c, 0, 76, 59
1, 119592, Note_on_c, 0, 68, 47
1, 119592, Note_on_c, 0, 73, 45
1, 119632, Control_c, 0, 64, 127
1, 119640, Note_off_c, 0, 61, 64
1, 119662, Note_off_c, 0, 76, 64
1, 119665, Note_off_c, 0, 73, 64
1, 119680, Note_off_c, 0, 64, 64
1, 119690, Note_off_c, 0, 68, 64
1, 119796, Note_on_c, 0, 59, 95
1, 119848, Control_c, 0, 64, 0
1, 119980, Note_on_c, 0, 73, 49
1, 119980, Note_on_c, 0, 64, 65
1, 119980, Note_on_c, 0, 68, 49
1, 120024, Note_off_c, 0, 64, 64
1, 120026, Note_off_c, 0, 73, 64
1, 120030, Note_off_c, 0, 68, 64
1, 120032, Control_c, 0, 64, 127
1, 120054, Note_off_c, 0, 59, 64
1, 120122, Note_on_c, 0, 57, 84
1, 120200, Note_off_c, 0, 57, 64
1, 120254, Note_on_c, 0, 68, 52
1, 120264, Note_on_c, 0, 56, 86
1, 120268, Note_on_c, 0, 61, 49
1, 120274, Note_on_c, 0, 64, 46
1, 120321, Note_off_c, 0, 68, 64
1, 120328, Note_off_c, 0, 64, 64
1, 120338, Note_off_c, 0, 61, 64
1, 120362, Note_off_c, 0, 56, 64
1, 120370, Control_c, 0, 64, 0
1, 120438, Note_on_c, 0, 55, 102
1, 120610, Note_on_c, 0, 71, 59
1, 120613, Note_on_c, 0, 62, 57
1, 120620, Note_on_c, 0, 67, 47
1, 120672, Note_off_c, 0, 71, 64
1, 120686, Note_off_c, 0, 62, 64
1, 120714, Note_off_c, 0, 67, 64
1, 120724, Control_c, 0, 64, 127
1, 120774, Note_on_c, 0, 59, 70
1, 120894, Note_off_c, 0, 59, 64
1, 120936, Note_on_c, 0, 62, 66
1, 120938, Note_on_c, 0, 71, 60
1, 120942, Note_on_c, 0, 67, 57
1, 120970, Control_c, 0, 64, 0
1, 120994, Note_off_c, 0, 62, 64
1, 120998, Note_off_c, 0, 71, 64
1, 121028, Note_off_c, 0, 67, 64
1, 121108, Note_on_c, 0, 59, 69
1, 121154, Control_c, 0, 64, 127
1, 121214, Note_off_c, 0, 59, 64
1, 121250, Note_on_c, 0, 62, 61
1, 121250, Note_on_c, 0, 67, 58
1, 121250, Note_on_c, 0, 71, 55
1, 121256, Note_off_c, 0, 55, 64
1, 121300, Note_off_c, 0, 62, 64
1, 121300, Note_off_c, 0, 71, 64
1, 121308, Note_off_c, 0, 67, 64
1, 121396, Note_on_c, 0, 47, 92
1, 121418, Note_on_c, 0, 59, 55
1, 121468, Note_off_c, 0, 59, 64
1, 121556, Note_on_c, 0, 67, 68
1, 121564, Note_on_c, 0, 57, 63
1, 121572, Note_on_c, 0, 63, 51
1, 121640, Note_off_c, 0, 67, 64
1, 121642, Note_off_c, 0, 63, 64
1, 121650, Note_off_c, 0, 57, 64
1, 121704, Note_on_c, 0, 59, 78
1, 121752, Control_c, 0, 64, 0
1, 121878, Note_on_c, 0, 67, 64
1, 121881, Note_on_c, 0, 57, 58
1, 121886, Note_off_c, 0, 59, 64
1, 121886, Note_on_c, 0, 63, 51
1, 121968, Control_c, 0, 64, 127
1, 121972, Note_off_c, 0, 57, 64
1, 121976, Note_off_c, 0, 63, 64
1, 121978, Note_off_c, 0, 67, 64
1, 122050, Note_on_c, 0, 59, 63
1, 122090, Note_off_c, 0, 59, 64
1, 122128, Note_off_c, 0, 47, 64
1, 122198, Note_on_c, 0, 67, 62
1, 122204, Note_on_c, 0, 57, 49
1, 122212, Note_on_c, 0, 63, 53
1, 122270, Note_off_c, 0, 57, 64
1, 122280, Note_off_c, 0, 63, 64
1, 122300, Note_off_c, 0, 67, 64
1, 122436, Note_on_c, 0, 52, 110
1, 122438, Note_on_c, 0, 40, 108
1, 122490, Control_c, 0, 64, 0
1, 122616, Note_on_c, 0, 68, 54
1, 122619, Note_on_c, 0, 71, 66
1, 122624, Note_on_c, 0, 64, 59
1, 122626, Note_on_c, 0, 59, 45
1, 122660, Note_off_c, 0, 40, 64
1, 122666, Note_off_c, 0, 52, 64
1, 122690, Control_c, 0, 64, 127
1, 122694, Note_off_c, 0, 71, 64
1, 122706, Note_off_c, 0, 64, 64
1, 122708, Note_off_c, 0, 59, 64
1, 122746, Note_off_c, 0, 68, 64
1, 122782, Control_c, 0, 64, 0
1, 122802, Note_on_c, 0, 54, 103
1, 122812, Note_on_c, 0, 42, 89
1, 122934, Note_off_c, 0, 54, 64
1, 122952, Control_c, 0, 64, 127
1, 122966, Note_on_c, 0, 59, 71
1, 122966, Note_on_c, 0, 68, 61
1, 122970, Note_on_c, 0, 71, 69
1, 122978, Note_off_c, 0, 42, 64
1, 122984, Note_on_c, 0, 64, 59
1, 123046, Note_off_c, 0, 64, 64
1, 123066, Note_off_c, 0, 59, 64
1, 123076, Note_off_c, 0, 71, 64
1, 123088, Note_off_c, 0, 68, 64
1, 123116, Note_on_c, 0, 47, 91
1, 123116, Note_on_c, 0, 35, 101
1, 123148, Note_off_c, 0, 35, 64
1, 123150, Note_off_c, 0, 47, 64
1, 123260, Control_c, 0, 64, 0
1, 123280, Note_on_c, 0, 49, 95
1, 123290, Note_on_c, 0, 37, 89
1, 123292, Note_on_c, 0, 59, 61
1, 123306, Note_on_c, 0, 71, 48
1, 123308, Note_on_c, 0, 69, 24
1, 123310, Note_on_c, 0, 64, 49
1, 123374, Note_off_c, 0, 49, 64
1, 123380, Note_off_c, 0, 71, 64
1, 123382, Note_off_c, 0, 64, 64
1, 123384, Note_off_c, 0, 69, 64
1, 123386, Note_off_c, 0, 37, 64
1, 123388, Note_off_c, 0, 59, 64
1, 123428, Control_c, 0, 64, 127
1, 123478, Note_on_c, 0, 52, 105
1, 123478, Note_on_c, 0, 40, 106
1, 123520, Control_c, 0, 64, 0
1, 123632, Note_on_c, 0, 68, 61
1, 123634, Note_on_c, 0, 59, 74
1, 123634, Note_on_c, 0, 71, 75
1, 123648, Note_on_c, 0, 64, 60
1, 123654, Note_off_c, 0, 40, 64
1, 123696, Note_off_c, 0, 52, 64
1, 123704, Control_c, 0, 64, 127
1, 123722, Note_off_c, 0, 64, 64
1, 123724, Note_off_c, 0, 59, 64
1, 123770, Note_off_c, 0, 68, 64
1, 123773, Note_off_c, 0, 71, 64
1, 123796, Control_c, 0, 64, 0
1, 123810, Note_on_c, 0, 59, 88
1, 123818, Note_on_c, 0, 47, 92
1, 123948, Note_off_c, 0, 59, 64
1, 123970, Note_on_c, 0, 68, 58
1, 123974, Note_on_c, 0, 71, 75
1, 123980, Control_c, 0, 64, 127
1, 123982, Note_on_c, 0, 64, 76
1, 124002, Note_off_c, 0, 47, 64
1, 124036, Note_off_c, 0, 71, 64
1, 124036, Note_off_c, 0, 64, 64
1, 124054, Note_off_c, 0, 68, 64
1, 124120, Control_c, 0, 64, 0
1, 124130, Note_on_c, 0, 54, 97
1, 124136, Note_on_c, 0, 42, 86
1, 124302, Note_on_c, 0, 69, 63
1, 124304, Note_on_c, 0, 59, 78
1, 124312, Note_on_c, 0, 71, 80
1, 124315, Note_on_c, 0, 64, 70
1, 124380, Control_c, 0, 64, 127
1, 124428, Note_off_c, 0, 54, 64
1, 124431, Note_off_c, 0, 59, 64
1, 124450, Note_off_c, 0, 69, 64
1, 124466, Note_off_c, 0, 64, 64
1, 124472, Note_off_c, 0, 71, 64
1, 124480, Note_off_c, 0, 42, 64
1, 124612, Note_on_c, 0, 40, 97
1, 124618, Note_on_c, 0, 52, 81
1, 124620, Note_on_c, 0, 59, 70
1, 124622, Note_on_c, 0, 71, 78
1, 124622, Note_on_c, 0, 68, 52
1, 124636, Note_on_c, 0, 64, 55
1, 124644, Note_off_c, 0, 40, 64
1, 124656, Note_off_c, 0, 52, 64
1, 124706, Note_off_c, 0, 64, 64
1, 124722, Note_off_c, 0, 68, 64
1, 124738, Note_off_c, 0, 59, 64
1, 124748, Note_off_c, 0, 71, 64
1, 124764, Note_on_c, 0, 54, 86
1, 124776, Note_on_c, 0, 42, 79
1, 124798, Note_off_c, 0, 54, 64
1, 124814, Note_off_c, 0, 42, 64
1, 124944, Note_on_c, 0, 35, 88
1, 124950, Control_c, 0, 64, 0
1, 124958, Note_on_c, 0, 47, 68
1, 125092, Note_off_c, 0, 47, 64
1, 125102, Note_on_c, 0, 59, 59
1, 125102, Note_on_c, 0, 71, 66
1, 125105, Note_on_c, 0, 68, 49
1, 125112, Note_off_c, 0, 35, 64
1, 125118, Note_on_c, 0, 64, 52
1, 125148, Control_c, 0, 64, 127
1, 125210, Note_off_c, 0, 64, 64
1, 125232, Note_off_c, 0, 59, 64
1, 125246, Note_on_c, 0, 49, 90
1, 125249, Note_on_c, 0, 37, 81
1, 125252, Note_off_c, 0, 68, 64
1, 125276, Note_off_c, 0, 71, 64
1, 125286, Note_off_c, 0, 37, 64
1, 125302, Control_c, 0, 64, 0
1, 125322, Note_off_c, 0, 49, 64
1, 125418, Note_on_c, 0, 56, 90
1, 125430, Note_on_c, 0, 44, 79
1, 125568, Note_on_c, 0, 59, 75
1, 125572, Note_on_c, 0, 68, 69
1, 125578, Note_off_c, 0, 44, 64
1, 125578, Control_c, 0, 64, 127
1, 125580, Note_on_c, 0, 63, 62
1, 125606, Note_off_c, 0, 59, 64
1, 125612, Note_off_c, 0, 56, 64
1, 125620, Note_off_c, 0, 63, 64
1, 125644, Note_off_c, 0, 68, 64
1, 125748, Note_on_c, 0, 59, 93
1, 125828, Note_off_c, 0, 59, 64
1, 125886, Note_on_c, 0, 63, 79
1, 125894, Note_on_c, 0, 71, 82
1, 125898, Note_on_c, 0, 68, 55
1, 125944, Note_off_c, 0, 63, 64
1, 125952, Note_off_c, 0, 68, 64
1, 125964, Note_off_c, 0, 71, 64
1, 126044, Note_on_c, 0, 63, 97
1, 126124, Note_off_c, 0, 63, 64
1, 126186, Note_on_c, 0, 75, 72
1, 126189, Note_on_c, 0, 68, 59
1, 126193, Note_on_c, 0, 71, 60
1, 126230, Note_off_c, 0, 68, 64
1, 126240, Note_off_c, 0, 71, 64
1, 126266, Note_off_c, 0, 75, 64
1, 126334, Note_on_c, 0, 68, 76
1, 126414, Note_off_c, 0, 68, 64
1, 126480, Note_on_c, 0, 80, 79
1, 126480, Note_on_c, 0, 71, 79
1, 126483, Note_on_c, 0, 75, 67
1, 126522, Note_off_c, 0, 71, 64
1, 126528, Note_off_c, 0, 75, 64
1, 126572, Note_off_c, 0, 80, 64
1, 126636, Note_on_c, 0, 71, 102
1, 126746, Note_off_c, 0, 71, 64
1, 126762, Note_on_c, 0, 75, 77
1, 126765, Note_on_c, 0, 80, 79
1, 126772, Note_on_c, 0, 83, 101
1, 126804, Note_off_c, 0, 75, 64
1, 126810, Note_off_c, 0, 80, 64
1, 126820, Note_off_c, 0, 83, 64
1, 126928, Note_on_c, 0, 75, 92
1, 127042, Note_off_c, 0, 75, 64
1, 127052, Note_on_c, 0, 80, 79
1, 127054, Note_on_c, 0, 87, 74
1, 127058, Note_on_c, 0, 83, 93
1, 127146, Control_c, 0, 64, 0
1, 127188, Note_off_c, 0, 83, 64
1, 127190, Note_on_c, 0, 75, 87
1, 127196, Note_on_c, 0, 71, 82
1, 127196, Note_on_c, 0, 67, 74
1, 127200, Note_off_c, 0, 80, 64
1, 127214, Note_off_c, 0, 87, 64
1, 127326, Note_off_c, 0, 75, 64
1, 127342, Note_on_c, 0, 79, 79
1, 127345, Note_on_c, 0, 83, 89
1, 127345, Control_c, 0, 64, 127
1, 127350, Note_on_c, 0, 87, 53
1, 127358, Note_off_c, 0, 71, 64
1, 127361, Note_off_c, 0, 67, 64
1, 127402, Note_off_c, 0, 79, 64
1, 127408, Note_off_c, 0, 83, 64
1, 127408, Note_off_c, 0, 87, 64
1, 127494, Note_on_c, 0, 75, 75
1, 127518, Note_on_c, 0, 67, 62
1, 127534, Note_on_c, 0, 71, 57
1, 127584, Note_off_c, 0, 67, 64
1, 127586, Note_off_c, 0, 71, 64
1, 127606, Note_off_c, 0, 75, 64
1, 127632, Note_on_c, 0, 87, 73
1, 127634, Note_on_c, 0, 79, 85
1, 127637, Note_on_c, 0, 83, 97
1, 127734, Note_off_c, 0, 79, 64
1, 127744, Note_off_c, 0, 87, 64
1, 127764, Note_off_c, 0, 83, 64
1, 127772, Note_on_c, 0, 75, 83
1, 127780, Note_on_c, 0, 67, 72
1, 127796, Note_on_c, 0, 71, 64
1, 127850, Note_off_c, 0, 71, 64
1, 127886, Note_off_c, 0, 75, 64
1, 127896, Note_on_c, 0, 87, 79
1, 127906, Note_on_c, 0, 83, 101
1, 127906, Note_on_c, 0, 79, 91
1, 127910, Note_off_c, 0, 67, 64
1, 128006, Control_c, 0, 64, 0
1, 128008, Note_off_c, 0, 79, 64
1, 128038, Note_on_c, 0, 75, 94
1, 128046, Note_on_c, 0, 69, 62
1, 128048, Note_off_c, 0, 87, 64
1, 128048, Note_on_c, 0, 66, 73
1, 128052, Note_on_c, 0, 71, 73
1, 128066, Note_off_c, 0, 83, 64
1, 128176, Control_c, 0, 64, 127
1, 128186, Note_on_c, 0, 87, 75
1, 128188, Note_on_c, 0, 78, 86
1, 128190, Note_off_c, 0, 75, 64
1, 128190, Note_off_c, 0, 69, 64
1, 128190, Note_on_c, 0, 83, 93
1, 128192, Note_on_c, 0, 81, 73
1, 128210, Note_off_c, 0, 71, 64
1, 128218, Note_off_c, 0, 66, 64
1, 128312, Note_off_c, 0, 78, 64
1, 128334, Note_on_c, 0, 75, 95
1, 128346, Note_on_c, 0, 69, 53
1, 128350, Note_off_c, 0, 83, 64
1, 128352, Note_off_c, 0, 81, 64
1, 128356, Note_on_c, 0, 71, 84
1, 128358, Note_on_c, 0, 66, 64
1, 128360, Note_off_c, 0, 87, 64
1, 128404, Note_off_c, 0, 71, 64
1, 128428, Note_off_c, 0, 69, 64
1, 128436, Note_off_c, 0, 75, 64
1, 128476, Note_off_c, 0, 66, 64
1, 128486, Note_on_c, 0, 78, 83
1, 128486, Note_on_c, 0, 87, 79
1, 128493, Note_on_c, 0, 83, 94
1, 128497, Note_on_c, 0, 81, 65
1, 128558, Note_off_c, 0, 81, 64
1, 128596, Note_off_c, 0, 78, 64
1, 128632, Note_off_c, 0, 83, 64
1, 128634, Note_on_c, 0, 59, 99
1, 128640, Note_off_c, 0, 87, 64
1, 128662, Note_off_c, 0, 59, 64
1, 128740, Note_on_c, 0, 78, 81
1, 128748, Note_on_c, 0, 87, 59
1, 128758, Note_on_c, 0, 81, 63
1, 128758, Note_on_c, 0, 83, 83
1, 128800, Note_off_c, 0, 81, 64
1, 128808, Note_off_c, 0, 83, 64
1, 128830, Note_off_c, 0, 78, 64
1, 128838, Note_off_c, 0, 87, 64
1, 128866, Control_c, 0, 64, 0
1, 128954, Note_on_c, 0, 64, 102
1, 128957, Note_on_c, 0, 80, 95
1, 128957, Note_on_c, 0, 76, 103
1, 128957, Note_on_c, 0, 88, 99
1, 128957, Note_on_c, 0, 71, 101
1, 128988, Note_off_c, 0, 76, 64
1, 128988, Note_off_c, 0, 88, 64
1, 128994, Note_off_c, 0, 71, 64
1, 129008, Note_off_c, 0, 64, 64
1, 129048, Note_off_c, 0, 80, 64
1, 129060, Control_c, 0, 64, 127
1, 129102, Note_on_c, 0, 75, 93
1, 129104, Note_on_c, 0, 87, 86
1, 129110, Note_on_c, 0, 63, 86
1, 129113, Control_c, 0, 64, 0
1, 129146, Note_off_c, 0, 87, 64
1, 129196, Note_off_c, 0, 75, 64
1, 129214, Note_off_c, 0, 63, 64
1, 129250, Note_on_c, 0, 73, 86
1, 129256, Note_on_c, 0, 85, 76
1, 129262, Note_on_c, 0, 61, 70
1, 129298, Note_off_c, 0, 85, 64
1, 129320, Note_off_c, 0, 61, 64
1, 129338, Note_off_c, 0, 73, 64
1, 129390, Control_c, 0, 64, 127
1, 129394, Note_on_c, 0, 68, 86
1, 129402, Note_on_c, 0, 71, 103
1, 129404, Note_on_c, 0, 59, 87
1, 129404, Note_on_c, 0, 80, 76
1, 129404, Note_on_c, 0, 83, 101
1, 129438, Note_off_c, 0, 83, 64
1, 129440, Note_off_c, 0, 71, 64
1, 129442, Note_off_c, 0, 59, 64
1, 129446, Note_off_c, 0, 80, 64
1, 129450, Note_off_c, 0, 68, 64
1, 129528, Control_c, 0, 64, 0
1, 129528, Note_on_c, 0, 83, 97
1, 129534, Note_on_c, 0, 71, 78
1, 129534, Note_on_c, 0, 68, 66
1, 129537, Note_on_c, 0, 59, 64
1, 129548, Note_on_c, 0, 80, 52
1, 129574, Note_off_c, 0, 83, 64
1, 129574, Note_off_c, 0, 71, 64
1, 129586, Note_off_c, 0, 59, 64
1, 129592, Note_off_c, 0, 80, 64
1, 129620, Note_off_c, 0, 68, 64
1, 129686, Note_on_c, 0, 85, 84
1, 129692, Note_on_c, 0, 73, 71
1, 129704, Note_on_c, 0, 61, 69
1, 129720, Note_off_c, 0, 85, 64
1, 129734, Note_off_c, 0, 73, 64
1, 129748, Note_off_c, 0, 61, 64
1, 129838, Note_on_c, 0, 75, 95
1, 129842, Note_on_c, 0, 87, 86
1, 129850, Note_on_c, 0, 68, 77
1, 129850, Note_on_c, 0, 80, 75
1, 129853, Note_on_c, 0, 63, 90
1, 129872, Note_off_c, 0, 75, 64
1, 129896, Note_off_c, 0, 80, 64
1, 129898, Note_off_c, 0, 87, 64
1, 129898, Note_off_c, 0, 68, 64
1, 129898, Note_off_c, 0, 63, 64
1, 129928, Control_c, 0, 64, 127
1, 129986, Note_on_c, 0, 87, 52
1, 129986, Note_on_c, 0, 75, 70
1, 129998, Note_on_c, 0, 68, 49
1, 130030, Note_off_c, 0, 87, 64
1, 130030, Note_on_c, 0, 63, 52
1, 130046, Note_off_c, 0, 75, 64
1, 130046, Note_off_c, 0, 68, 64
1, 130078, Note_off_c, 0, 63, 64
1, 130080, Control_c, 0, 64, 0
1, 130144, Note_on_c, 0, 71, 93
1, 130147, Note_on_c, 0, 59, 67
1, 130152, Note_on_c, 0, 83, 78
1, 130190, Note_off_c, 0, 71, 64
1, 130193, Note_off_c, 0, 59, 64
1, 130196, Note_off_c, 0, 83, 64
1, 130280, Note_on_c, 0, 63, 86
1, 130286, Note_on_c, 0, 67, 91
1, 130286, Note_on_c, 0, 79, 84
1, 130289, Note_on_c, 0, 75, 73
1, 130308, Note_on_c, 0, 55, 67
1, 130330, Note_off_c, 0, 63, 64
1, 130333, Note_off_c, 0, 79, 64
1, 130333, Note_off_c, 0, 75, 64
1, 130337, Note_off_c, 0, 67, 64
1, 130354, Note_off_c, 0, 55, 64
1, 130388, Control_c, 0, 64, 127
1, 130422, Note_on_c, 0, 55, 66
1, 130434, Note_on_c, 0, 67, 65
1, 130434, Note_on_c, 0, 63, 59
1, 130444, Note_on_c, 0, 79, 36
1, 130447, Note_on_c, 0, 75, 38
1, 130464, Control_c, 0, 64, 0
1, 130480, Note_off_c, 0, 67, 64
1, 130496, Note_off_c, 0, 63, 64
1, 130499, Note_off_c, 0, 55, 64
1, 130502, Note_off_c, 0, 75, 64
1, 130514, Note_off_c, 0, 79, 64
1, 130566, Note_on_c, 0, 83, 110
1, 130570, Note_on_c, 0, 71, 91
1, 130586, Note_on_c, 0, 59, 76
1, 130594, Note_off_c, 0, 83, 64
1, 130616, Note_off_c, 0, 71, 64
1, 130622, Note_off_c, 0, 59, 64
1, 130732, Note_on_c, 0, 52, 100
1, 130732, Note_on_c, 0, 64, 99
1, 130732, Note_on_c, 0, 59, 71
1, 130738, Note_on_c, 0, 68, 78
1, 130760, Note_on_c, 0, 76, 23
1, 130766, Note_off_c, 0, 64, 64
1, 130769, Note_off_c, 0, 59, 64
1, 130788, Note_off_c, 0, 52, 64
1, 130788, Note_off_c, 0, 68, 64
1, 130788, Control_c, 0, 64, 127
1, 130828, Note_off_c, 0, 76, 64
1, 130862, Note_on_c, 0, 75, 88
1, 130862, Note_on_c, 0, 63, 100
1, 130872, Note_on_c, 0, 51, 78
1, 130880, Control_c, 0, 64, 0
1, 130906, Note_off_c, 0, 75, 64
1, 130958, Note_off_c, 0, 63, 64
1, 130984, Note_off_c, 0, 51, 64
1, 131010, Note_on_c, 0, 73, 83
1, 131010, Note_on_c, 0, 61, 93
1, 131014, Note_on_c, 0, 49, 78
1, 131072, Note_off_c, 0, 73, 64
1, 131078, Note_off_c, 0, 49, 64
1, 131120, Note_off_c, 0, 61, 64
1, 131150, Note_on_c, 0, 56, 91
1, 131150, Note_on_c, 0, 47, 92
1, 131162, Note_on_c, 0, 71, 97
1, 131168, Note_on_c, 0, 59, 101
1, 131168, Note_on_c, 0, 68, 73
1, 131171, Control_c, 0, 64, 127
1, 131196, Note_off_c, 0, 47, 64
1, 131200, Note_off_c, 0, 59, 64
1, 131208, Note_off_c, 0, 68, 64
1, 131212, Note_off_c, 0, 56, 64
1, 131218, Note_off_c, 0, 71, 64
1, 131288, Note_on_c, 0, 56, 74
1, 131292, Note_on_c, 0, 71, 91
1, 131294, Note_on_c, 0, 47, 70
1, 131294, Control_c, 0, 64, 0
1, 131294, Note_on_c, 0, 59, 58
1, 131316, Note_on_c, 0, 68, 35
1, 131330, Note_off_c, 0, 71, 64
1, 131336, Note_off_c, 0, 59, 64
1, 131344, Note_off_c, 0, 47, 64
1, 131366, Note_off_c, 0, 68, 64
1, 131380, Note_off_c, 0, 56, 64
1, 131442, Note_on_c, 0, 49, 84
1, 131446, Note_on_c, 0, 61, 86
1, 131446, Note_on_c, 0, 73, 86
1, 131478, Note_off_c, 0, 73, 64
1, 131488, Note_off_c, 0, 61, 64
1, 131506, Note_off_c, 0, 49, 64
1, 131588, Note_on_c, 0, 56, 81
1, 131590, Note_on_c, 0, 63, 96
1, 131592, Note_on_c, 0, 75, 90
1, 131594, Note_on_c, 0, 51, 84
1, 131596, Note_on_c, 0, 68, 77
1, 131624, Note_off_c, 0, 75, 64
1, 131627, Note_off_c, 0, 63, 64
1, 131636, Note_off_c, 0, 68, 64
1, 131642, Note_off_c, 0, 56, 64
1, 131650, Note_off_c, 0, 51, 64
1, 131710, Control_c, 0, 64, 127
1, 131716, Note_on_c, 0, 75, 70
1, 131724, Note_on_c, 0, 56, 61
1, 131726, Note_on_c, 0, 63, 76
1, 131738, Note_on_c, 0, 68, 17
1, 131738, Note_on_c, 0, 51, 65
1, 131762, Note_off_c, 0, 75, 64
1, 131792, Note_off_c, 0, 56, 64
1, 131808, Note_off_c, 0, 68, 64
1, 131820, Note_off_c, 0, 63, 64
1, 131838, Note_off_c, 0, 51, 64
1, 131848, Control_c, 0, 64, 0
1, 131876, Note_on_c, 0, 47, 69
1, 131882, Note_on_c, 0, 59, 94
1, 131904, Note_on_c, 0, 71, 40
1, 131920, Note_off_c, 0, 59, 64
1, 131926, Note_off_c, 0, 47, 64
1, 131976, Note_off_c, 0, 71, 64
1, 132010, Note_on_c, 0, 51, 85
1, 132026, Note_on_c, 0, 63, 83
1, 132028, Note_on_c, 0, 55, 85
1, 132030, Note_on_c, 0, 67, 73
1, 132058, Note_on_c, 0, 43, 27
1, 132064, Note_off_c, 0, 51, 64
1, 132068, Note_off_c, 0, 63, 64
1, 132072, Note_off_c, 0, 55, 64
1, 132078, Note_off_c, 0, 67, 64
1, 132126, Note_off_c, 0, 43, 64
1, 132154, Note_on_c, 0, 51, 67
1, 132156, Control_c, 0, 64, 127
1, 132170, Note_on_c, 0, 55, 71
1, 132170, Note_on_c, 0, 67, 38
1, 132173, Note_on_c, 0, 43, 38
1, 132182, Note_on_c, 0, 63, 55
1, 132212, Note_off_c, 0, 55, 64
1, 132216, Control_c, 0, 64, 0
1, 132224, Note_off_c, 0, 63, 64
1, 132236, Note_off_c, 0, 67, 64
1, 132242, Note_off_c, 0, 43, 64
1, 132270, Note_off_c, 0, 51, 64
1, 132306, Note_on_c, 0, 71, 92
1, 132309, Note_on_c, 0, 47, 83
1, 132340, Note_off_c, 0, 71, 64
1, 132348, Note_off_c, 0, 47, 64
1, 132452, Note_on_c, 0, 52, 98
1, 132460, Note_on_c, 0, 56, 89
1, 132460, Note_on_c, 0, 64, 75
1, 132463, Note_on_c, 0, 59, 50
1, 132510, Note_off_c, 0, 64, 64
1, 132524, Control_c, 0, 64, 127
1, 132526, Note_off_c, 0, 59, 64
1, 132554, Control_c, 0, 64, 0
1, 132564, Note_off_c, 0, 52, 64
1, 132590, Note_on_c, 0, 51, 79
1, 132612, Note_on_c, 0, 63, 79
1, 132694, Note_off_c, 0, 56, 64
1, 132698, Note_off_c, 0, 63, 64
1, 132714, Note_off_c, 0, 51, 64
1, 132740, Note_on_c, 0, 49, 71
1, 132754, Note_on_c, 0, 61, 70
1, 132806, Note_off_c, 0, 61, 64
1, 132808, Note_off_c, 0, 49, 64
1, 132892, Note_on_c, 0, 47, 78
1, 132906, Note_on_c, 0, 57, 57
1, 132914, Note_on_c, 0, 59, 63
1, 132938, Note_off_c, 0, 47, 64
1, 132954, Note_off_c, 0, 59, 64
1, 132984, Note_off_c, 0, 57, 64
1, 133026, Note_on_c, 0, 47, 58
1, 133032, Note_on_c, 0, 59, 53
1, 133092, Note_off_c, 0, 47, 64
1, 133146, Note_off_c, 0, 59, 64
1, 133172, Note_on_c, 0, 61, 69
1, 133178, Note_on_c, 0, 49, 73
1, 133232, Note_off_c, 0, 49, 64
1, 133246, Note_off_c, 0, 61, 64
1, 133322, Note_on_c, 0, 56, 71
1, 133332, Note_on_c, 0, 52, 88
1, 133336, Note_on_c, 0, 64, 74
1, 133342, Note_on_c, 0, 59, 52
1, 133400, Note_off_c, 0, 59, 64
1, 133438, Note_off_c, 0, 64, 64
1, 133448, Note_off_c, 0, 52, 64
1, 133454, Note_on_c, 0, 51, 73
1, 133474, Note_on_c, 0, 63, 70
1, 133518, Note_off_c, 0, 56, 64
1, 133548, Note_off_c, 0, 51, 64
1, 133562, Note_off_c, 0, 63, 64
1, 133600, Note_on_c, 0, 49, 62
1, 133612, Note_on_c, 0, 61, 65
1, 133662, Note_off_c, 0, 49, 64
1, 133676, Note_off_c, 0, 61, 64
1, 133744, Note_on_c, 0, 47, 71
1, 133750, Note_on_c, 0, 57, 59
1, 133756, Note_on_c, 0, 59, 58
1, 133792, Note_off_c, 0, 47, 64
1, 133802, Note_off_c, 0, 59, 64
1, 133886, Note_on_c, 0, 59, 49
1, 133892, Control_c, 0, 64, 127
1, 133896, Note_on_c, 0, 47, 49
1, 133964, Note_off_c, 0, 47, 64
1, 133986, Note_off_c, 0, 57, 64
1, 134020, Note_off_c, 0, 59, 64
1, 134020, Note_on_c, 0, 61, 48
1, 134042, Note_on_c, 0, 49, 61
1, 134060, Control_c, 0, 64, 0
1, 134092, Note_off_c, 0, 49, 64
1, 134096, Note_off_c, 0, 61, 64
1, 134174, Note_on_c, 0, 56, 55
1, 134186, Note_on_c, 0, 52, 71
1, 134198, Note_on_c, 0, 64, 50
1, 134198, Note_on_c, 0, 59, 42
1, 134238, Note_off_c, 0, 52, 64
1, 134260, Note_off_c, 0, 59, 64
1, 134266, Note_off_c, 0, 64, 64
1, 134276, Control_c, 0, 64, 127
1, 134318, Note_on_c, 0, 51, 49
1, 134326, Note_on_c, 0, 63, 51
1, 134350, Note_off_c, 0, 56, 64
1, 134378, Note_off_c, 0, 51, 64
1, 134386, Note_off_c, 0, 63, 64
1, 134446, Note_on_c, 0, 49, 53
1, 134462, Note_on_c, 0, 61, 44
1, 134498, Note_off_c, 0, 49, 64
1, 134530, Note_off_c, 0, 61, 64
1, 134552, Control_c, 0, 64, 0
1, 134598, Note_on_c, 0, 47, 57
1, 134606, Note_on_c, 0, 57, 46
1, 134612, Note_on_c, 0, 59, 38
1, 134652, Note_off_c, 0, 47, 64
1, 134666, Note_off_c, 0, 59, 64
1, 134732, Note_on_c, 0, 47, 51
1, 134735, Control_c, 0, 64, 127
1, 134740, Note_on_c, 0, 59, 53
1, 134806, Note_off_c, 0, 57, 64
1, 134816, Note_off_c, 0, 47, 64
1, 134836, Note_off_c, 0, 59, 64
1, 134872, Note_on_c, 0, 61, 52
1, 134882, Note_on_c, 0, 49, 57
1, 134936, Control_c, 0, 64, 0
1, 134944, Note_off_c, 0, 61, 64
1, 134950, Note_off_c, 0, 49, 64
1, 135021, Note_on_c, 0, 52, 61
1, 135026, Note_on_c, 0, 56, 41
1, 135034, Note_on_c, 0, 64, 48
1, 135056, Note_on_c, 0, 59, 19
1, 135102, Note_off_c, 0, 52, 64
1, 135116, Note_off_c, 0, 64, 64
1, 135134, Note_off_c, 0, 59, 64
1, 135146, Note_on_c, 0, 51, 53
1, 135152, Control_c, 0, 64, 127
1, 135158, Note_off_c, 0, 56, 64
1, 135166, Note_on_c, 0, 63, 41
1, 135206, Note_off_c, 0, 51, 64
1, 135264, Note_off_c, 0, 63, 64
1, 135292, Note_on_c, 0, 49, 44
1, 135308, Note_on_c, 0, 61, 34
1, 135348, Note_off_c, 0, 49, 64
1, 135382, Note_off_c, 0, 61, 64
1, 135412, Control_c, 0, 64, 0
1, 135440, Note_on_c, 0, 47, 47
1, 135443, Note_on_c, 0, 57, 30
1, 135492, Note_off_c, 0, 47, 64
1, 135552, Note_on_c, 0, 47, 69
1, 135596, Control_c, 0, 64, 127
1, 135602, Note_on_c, 0, 59, 34
1, 135610, Note_off_c, 0, 47, 64
1, 135638, Note_off_c, 0, 57, 64
1, 135678, Note_off_c, 0, 59, 64
1, 135700, Note_on_c, 0, 49, 67
1, 135716, Note_on_c, 0, 61, 42
1, 135720, Control_c, 0, 64, 0
1, 135750, Note_off_c, 0, 49, 64
1, 135794, Note_off_c, 0, 61, 64
1, 135870, Note_on_c, 0, 47, 68
1, 135872, Note_on_c, 0, 56, 46
1, 135880, Note_on_c, 0, 59, 43
1, 135894, Note_on_c, 0, 64, 44
1, 135938, Note_off_c, 0, 47, 64
1, 136016, Note_on_c, 0, 40, 73
1, 136060, Note_off_c, 0, 40, 64
1, 136172, Note_on_c, 0, 47, 33
1, 136240, Note_off_c, 0, 47, 64
1, 136300, Note_on_c, 0, 40, 58
1, 136350, Note_off_c, 0, 40, 64
1, 136440, Note_on_c, 0, 47, 40
1, 136504, Note_off_c, 0, 47, 64
1, 136578, Note_on_c, 0, 40, 62
1, 136626, Note_off_c, 0, 40, 64
1, 136718, Note_on_c, 0, 47, 53
1, 136784, Note_off_c, 0, 47, 64
1, 136800, Note_off_c, 0, 64, 64
1, 136846, Note_on_c, 0, 40, 64
1, 136900, Note_off_c, 0, 40, 64
1, 136914, Note_off_c, 0, 59, 64
1, 136944, Note_off_c, 0, 56, 64
1, 136986, Note_on_c, 0, 47, 49
1, 137046, Note_off_c, 0, 47, 64
1, 137114, Note_on_c, 0, 40, 62
1, 137170, Note_off_c, 0, 40, 64
1, 137262, Note_on_c, 0, 47, 43
1, 137326, Note_off_c, 0, 47, 64
1, 137396, Note_on_c, 0, 40, 51
1, 137446, Note_off_c, 0, 40, 64
1, 137528, Note_on_c, 0, 47, 63
1, 137590, Note_off_c, 0, 47, 64
1, 137646, Note_on_c, 0, 40, 63
1, 137700, Note_off_c, 0, 40, 64
1, 137796, Note_on_c, 0, 47, 43
1, 137862, Note_off_c, 0, 47, 64
1, 137948, Note_on_c, 0, 40, 52
1, 138004, Note_off_c, 0, 40, 64
1, 138072, Note_on_c, 0, 47, 45
1, 138132, Note_off_c, 0, 47, 64
1, 138216, Note_on_c, 0, 40, 51
1, 138268, Note_off_c, 0, 40, 64
1, 138346, Note_on_c, 0, 47, 49
1, 138430, Note_off_c, 0, 47, 64
1, 138488, Note_on_c, 0, 40, 49
1, 138550, Note_off_c, 0, 40, 64
1, 138634, Note_on_c, 0, 47, 25
1, 138704, Note_off_c, 0, 47, 64
1, 138788, Note_on_c, 0, 40, 39
1, 138850, Note_off_c, 0, 40, 64
1, 138916, Note_on_c, 0, 47, 26
1, 138986, Note_off_c, 0, 47, 64
1, 139058, Note_on_c, 0, 40, 37
1, 139116, Note_off_c, 0, 40, 64
1, 139222, Note_on_c, 0, 66, 38
1, 139240, Note_on_c, 0, 59, 37
1, 139240, Note_on_c, 0, 56, 31
1, 139254, Note_on_c, 0, 62, 34
1, 139330, Control_c, 0, 64, 127
1, 141146, Note_off_c, 0, 59, 64
1, 141306, Note_on_c, 0, 68, 31
1, 141416, Note_off_c, 0, 66, 64
1, 141436, Control_c, 0, 64, 0
1, 141526, Note_on_c, 0, 59, 2
1, 141666, Control_c, 0, 64, 127
1, 141686, Note_off_c, 0, 56, 64
1, 141700, Note_off_c, 0, 59, 64
1, 141754, Note_off_c, 0, 62, 64
1, 142220, Control_c, 0, 64, 0
1, 142223, Note_on_c, 0, 65, 36
1, 142244, Note_on_c, 0, 59, 26
1, 142244, Note_on_c, 0, 56, 18
1, 142264, Note_on_c, 0, 61, 14
1, 142274, Note_off_c, 0, 68, 64
1, 142380, Note_off_c, 0, 59, 64
1, 142388, Control_c, 0, 64, 127
1, 142414, Note_off_c, 0, 56, 64
1, 142414, Note_off_c, 0, 61, 64
1, 142560, Note_off_c, 0, 65, 64
1, 142720, Note_on_c, 0, 68, 29
1, 142786, Note_off_c, 0, 68, 64
1, 142828, Note_on_c, 0, 61, 35
1, 142944, Note_off_c, 0, 61, 64
1, 142960, Note_on_c, 0, 68, 25
1, 143026, Note_off_c, 0, 68, 64
1, 143102, Note_on_c, 0, 80, 42
1, 143182, Note_off_c, 0, 80, 64
1, 143220, Note_on_c, 0, 73, 36
1, 143290, Note_off_c, 0, 73, 64
1, 143334, Note_on_c, 0, 80, 50
1, 143386, Note_off_c, 0, 80, 64
1, 143476, Note_on_c, 0, 80, 42
1, 143582, Note_off_c, 0, 80, 64
1, 143600, Note_on_c, 0, 73, 42
1, 143680, Note_off_c, 0, 73, 64
1, 143732, Note_on_c, 0, 80, 56
1, 143786, Note_off_c, 0, 80, 64
1, 143888, Note_on_c, 0, 92, 41
1, 143916, Note_on_c, 0, 85, 25
1, 143964, Note_off_c, 0, 92, 64
1, 143988, Note_off_c, 0, 85, 64
1, 144330, Note_on_c, 0, 80, 39
1, 144346, Note_on_c, 0, 73, 16
1, 144406, Note_off_c, 0, 80, 64
1, 144442, Note_off_c, 0, 73, 64
1, 144776, Note_on_c, 0, 80, 26
1, 144779, Note_on_c, 0, 73, 22
1, 144890, Note_off_c, 0, 73, 64
1, 144964, Note_off_c, 0, 80, 64
1, 145226, Note_on_c, 0, 68, 25
1, 145234, Note_on_c, 0, 61, 17
1, 145312, Note_off_c, 0, 68, 64
1, 145348, Note_off_c, 0, 61, 64
1, 145706, Note_on_c, 0, 66, 54
1, 145710, Note_on_c, 0, 59, 23
1, 145712, Note_on_c, 0, 62, 3
1, 145716, Note_on_c, 0, 56, 27
1, 146214, Control_c, 0, 64, 0
1, 146398, Control_c, 0, 64, 127
1, 146948, Note_off_c, 0, 62, 64
1, 147690, Note_on_c, 0, 68, 32
1, 147776, Note_off_c, 0, 66, 64
1, 148034, Note_off_c, 0, 59, 64
1, 148198, Note_off_c, 0, 56, 64
1, 148584, Note_off_c, 0, 68, 64
1, 148584, Note_on_c, 0, 69, 31
1, 148596, Control_c, 0, 64, 0
1, 148612, Note_on_c, 0, 54, 20
1, 148616, Note_on_c, 0, 59, 23
1, 148620, Note_on_c, 0, 63, 25
1, 148686, Note_off_c, 0, 63, 64
1, 148734, Note_off_c, 0, 54, 64
1, 148744, Note_off_c, 0, 59, 64
1, 148750, Control_c, 0, 64, 127
1, 148838, Note_off_c, 0, 69, 64
1, 149018, Note_on_c, 0, 69, 27
1, 149086, Note_off_c, 0, 69, 64
1, 149128, Note_on_c, 0, 63, 30
1, 149198, Note_off_c, 0, 63, 64
1, 149262, Note_on_c, 0, 69, 29
1, 149330, Note_off_c, 0, 69, 64
1, 149406, Note_on_c, 0, 81, 39
1, 149470, Note_off_c, 0, 81, 64
1, 149534, Note_on_c, 0, 75, 30
1, 149604, Note_off_c, 0, 75, 64
1, 149644, Note_on_c, 0, 81, 39
1, 149694, Note_off_c, 0, 81, 64
1, 149776, Note_on_c, 0, 81, 43
1, 149896, Note_off_c, 0, 81, 64
1, 149904, Note_on_c, 0, 75, 47
1, 150016, Note_off_c, 0, 75, 64
1, 150052, Note_on_c, 0, 81, 51
1, 150104, Note_off_c, 0, 81, 64
1, 150210, Note_on_c, 0, 87, 26
1, 150210, Note_on_c, 0, 93, 29
1, 150270, Note_off_c, 0, 87, 64
1, 150280, Note_off_c, 0, 93, 64
1, 150680, Note_on_c, 0, 81, 33
1, 150685, Note_on_c, 0, 75, 17
1, 150790, Note_off_c, 0, 81, 64
1, 150808, Note_off_c, 0, 75, 64
1, 151472, Note_on_c, 0, 69, 22
1, 151478, Note_on_c, 0, 63, 22
1, 151940, Note_off_c, 0, 63, 64
1, 151944, Note_on_c, 0, 54, 36
1, 151950, Note_on_c, 0, 60, 41
1, 151976, Control_c, 0, 64, 0
1, 152144, Control_c, 0, 64, 127
1, 152198, Note_off_c, 0, 69, 64
1, 152348, Note_off_c, 0, 54, 64
1, 152370, Note_off_c, 0, 60, 64
1, 152432, Note_on_c, 0, 69, 25
1, 152514, Note_off_c, 0, 69, 64
1, 152558, Note_on_c, 0, 63, 42
1, 152624, Note_off_c, 0, 63, 64
1, 152698, Note_on_c, 0, 69, 19
1, 152788, Note_off_c, 0, 69, 64
1, 152814, Note_on_c, 0, 81, 61
1, 152916, Note_off_c, 0, 81, 64
1, 152936, Note_on_c, 0, 75, 50
1, 153048, Note_on_c, 0, 81, 51
1, 153080, Note_off_c, 0, 75, 64
1, 153096, Note_off_c, 0, 81, 64
1, 153210, Note_on_c, 0, 81, 47
1, 153302, Note_off_c, 0, 81, 64
1, 153344, Note_on_c, 0, 75, 45
1, 153450, Note_off_c, 0, 75, 64
1, 153476, Note_on_c, 0, 81, 43
1, 153540, Note_off_c, 0, 81, 64
1, 153638, Note_on_c, 0, 93, 42
1, 153640, Note_on_c, 0, 87, 30
1, 153700, Note_off_c, 0, 87, 64
1, 153702, Note_off_c, 0, 93, 64
1, 154128, Note_on_c, 0, 75, 22
1, 154131, Note_on_c, 0, 81, 32
1, 154316, Note_off_c, 0, 75, 64
1, 154374, Note_off_c, 0, 81, 64
1, 154964, Note_on_c, 0, 69, 19
1, 154966, Note_on_c, 0, 63, 22
1, 155056, Note_off_c, 0, 63, 64
1, 155132, Note_off_c, 0, 69, 64
1, 155562, Note_on_c, 0, 76, 61
1, 155576, Note_on_c, 0, 69, 23
1, 155582, Note_on_c, 0, 54, 26
1, 155588, Note_on_c, 0, 64, 20
1, 155594, Note_on_c, 0, 60, 19
1, 155602, Control_c, 0, 64, 0
1, 155732, Note_off_c, 0, 64, 64
1, 155770, Note_off_c, 0, 60, 64
1, 155770, Control_c, 0, 64, 127
1, 155814, Note_off_c, 0, 54, 64
1, 156082, Note_on_c, 0, 45, 25
1, 156176, Note_off_c, 0, 45, 64
1, 156236, Note_on_c, 0, 38, 37
1, 156302, Note_off_c, 0, 38, 64
1, 156344, Note_on_c, 0, 45, 39
1, 156414, Note_off_c, 0, 45, 64
1, 156488, Note_on_c, 0, 38, 27
1, 156488, Note_on_c, 0, 78, 70
1, 156558, Note_off_c, 0, 38, 64
1, 156588, Note_on_c, 0, 45, 34
1, 156618, Note_off_c, 0, 76, 64
1, 156682, Note_off_c, 0, 45, 64
1, 156748, Note_on_c, 0, 38, 35
1, 156808, Note_off_c, 0, 38, 64
1, 156844, Note_on_c, 0, 45, 42
1, 156914, Note_off_c, 0, 45, 64
1, 156980, Note_on_c, 0, 38, 47
1, 157044, Note_off_c, 0, 38, 64
1, 157104, Note_on_c, 0, 45, 38
1, 157107, Note_on_c, 0, 76, 71
1, 157186, Note_off_c, 0, 45, 64
1, 157196, Note_off_c, 0, 78, 64
1, 157308, Note_on_c, 0, 38, 36
1, 157390, Note_on_c, 0, 81, 82
1, 157430, Note_off_c, 0, 76, 64
1, 157456, Note_off_c, 0, 38, 64
1, 157814, Note_on_c, 0, 45, 37
1, 157996, Note_off_c, 0, 45, 64
1, 158254, Note_on_c, 0, 79, 89
1, 158402, Note_off_c, 0, 81, 64
1, 158584, Note_off_c, 0, 69, 64
1, 158642, Note_on_c, 0, 38, 49
1, 158710, Note_off_c, 0, 38, 64
1, 158906, Note_on_c, 0, 78, 79
1, 158980, Note_off_c, 0, 79, 64
1, 159180, Note_on_c, 0, 76, 74
1, 159182, Note_on_c, 0, 70, 46
1, 159192, Note_on_c, 0, 64, 30
1, 159198, Note_on_c, 0, 61, 25
1, 159212, Note_on_c, 0, 54, 26
1, 159286, Note_off_c, 0, 78, 64
1, 159366, Control_c, 0, 64, 0
1, 159812, Control_c, 0, 64, 127
1, 160062, Note_on_c, 0, 78, 60
1, 160152, Note_off_c, 0, 76, 64
1, 160672, Control_c, 0, 64, 0
1, 160812, Control_c, 0, 64, 127
1, 160918, Note_off_c, 0, 64, 64
1, 160932, Note_off_c, 0, 61, 64
1, 160936, Note_off_c, 0, 54, 64
1, 160958, Note_on_c, 0, 73, 42
1, 160978, Note_off_c, 0, 78, 64
1, 161142, Note_off_c, 0, 70, 64
1, 161324, Note_off_c, 0, 73, 64
1, 161426, Note_on_c, 0, 85, 37
1, 161498, Note_off_c, 0, 85, 64
1, 161550, Note_on_c, 0, 78, 34
1, 161658, Note_on_c, 0, 85, 42
1, 161696, Note_off_c, 0, 78, 64
1, 161708, Note_off_c, 0, 85, 64
1, 161812, Note_on_c, 0, 73, 27
1, 161836, Note_on_c, 0, 66, 10
1, 161944, Note_off_c, 0, 66, 64
1, 161998, Note_off_c, 0, 73, 64
1, 162302, Note_on_c, 0, 54, 26
1, 162302, Note_on_c, 0, 61, 27
1, 162388, Note_off_c, 0, 54, 64
1, 162616, Note_off_c, 0, 61, 64
1, 162840, Control_c, 0, 64, 0
1, 162856, Note_on_c, 0, 76, 66
1, 162876, Note_on_c, 0, 69, 31
1, 162880, Note_on_c, 0, 60, 30
1, 162881, Note_on_c, 0, 54, 32
1, 162883, Note_on_c, 0, 64, 31
1, 163024, Control_c, 0, 64, 127
1, 163045, Note_off_c, 0, 64, 64
1, 163050, Note_off_c, 0, 60, 64
1, 163088, Note_off_c, 0, 54, 64
1, 163352, Note_on_c, 0, 45, 22
1, 163458, Note_off_c, 0, 45, 64
1, 163496, Note_on_c, 0, 38, 38
1, 163572, Note_off_c, 0, 38, 64
1, 163624, Note_on_c, 0, 45, 41
1, 163690, Note_off_c, 0, 45, 64
1, 163770, Note_on_c, 0, 38, 34
1, 163794, Note_on_c, 0, 78, 72
1, 163862, Note_off_c, 0, 38, 64
1, 163930, Note_on_c, 0, 45, 40
1, 164012, Note_off_c, 0, 45, 64
1, 164020, Note_off_c, 0, 76, 64
1, 164040, Note_on_c, 0, 38, 41
1, 164140, Note_off_c, 0, 38, 64
1, 164172, Note_on_c, 0, 45, 42
1, 164246, Note_off_c, 0, 45, 64
1, 164320, Note_on_c, 0, 38, 33
1, 164398, Note_off_c, 0, 38, 64
1, 164404, Note_off_c, 0, 78, 64
1, 164414, Note_on_c, 0, 76, 74
1, 164454, Note_on_c, 0, 45, 30
1, 164532, Note_off_c, 0, 45, 64
1, 164646, Note_on_c, 0, 38, 43
1, 164676, Note_on_c, 0, 81, 80
1, 164738, Note_off_c, 0, 76, 64
1, 164776, Note_off_c, 0, 38, 64
1, 165126, Note_on_c, 0, 45, 38
1, 165242, Note_off_c, 0, 45, 64
1, 165676, Note_on_c, 0, 79, 77
1, 165770, Note_off_c, 0, 81, 64
1, 165956, Note_off_c, 0, 69, 64
1, 166066, Note_on_c, 0, 38, 55
1, 166122, Note_off_c, 0, 38, 64
1, 166352, Note_on_c, 0, 78, 73
1, 166414, Note_off_c, 0, 79, 64
1, 166606, Note_on_c, 0, 76, 67
1, 166614, Note_on_c, 0, 70, 30
1, 166618, Note_on_c, 0, 64, 32
1, 166626, Note_on_c, 0, 54, 35
1, 166632, Note_on_c, 0, 61, 28
1, 166696, Note_off_c, 0, 78, 64
1, 166742, Control_c, 0, 64, 0
1, 167142, Control_c, 0, 64, 127
1, 167528, Note_on_c, 0, 78, 58
1, 167622, Note_off_c, 0, 76, 64
1, 167832, Control_c, 0, 64, 0
1, 168032, Control_c, 0, 64, 127
1, 168312, Note_off_c, 0, 54, 64
1, 168334, Note_off_c, 0, 64, 64
1, 168392, Note_off_c, 0, 61, 64
1, 168606, Note_on_c, 0, 73, 35
1, 168640, Note_off_c, 0, 78, 64
1, 168722, Note_off_c, 0, 70, 64
1, 168960, Note_off_c, 0, 73, 64
1, 169050, Note_on_c, 0, 85, 34
1, 169120, Note_off_c, 0, 85, 64
1, 169186, Note_on_c, 0, 78, 30
1, 169320, Note_on_c, 0, 85, 20
1, 169370, Note_off_c, 0, 78, 64
1, 169394, Note_off_c, 0, 85, 64
1, 169456, Note_on_c, 0, 73, 23
1, 169468, Note_on_c, 0, 66, 8
1, 169594, Note_off_c, 0, 66, 64
1, 169698, Note_off_c, 0, 73, 64
1, 169948, Note_on_c, 0, 61, 11
1, 169950, Note_on_c, 0, 54, 15
1, 170034, Note_off_c, 0, 54, 64
1, 170082, Note_off_c, 0, 61, 64
1, 170536, Note_on_c, 0, 74, 66
1, 170552, Control_c, 0, 64, 0
1, 170556, Note_on_c, 0, 54, 36
1, 170558, Note_on_c, 0, 62, 30
1, 170574, Note_on_c, 0, 47, 29
1, 170582, Note_on_c, 0, 66, 12
1, 170782, Control_c, 0, 64, 127
1, 170826, Note_off_c, 0, 74, 64
1, 170848, Note_off_c, 0, 47, 64
1, 170906, Note_off_c, 0, 62, 64
1, 170994, Note_off_c, 0, 66, 64
1, 171042, Note_on_c, 0, 71, 69
1, 171066, Note_on_c, 0, 64, 35
1, 171066, Note_on_c, 0, 67, 25
1, 171072, Note_off_c, 0, 54, 64
1, 171078, Note_on_c, 0, 48, 32
1, 171082, Note_on_c, 0, 55, 31
1, 171090, Control_c, 0, 64, 0
1, 171290, Control_c, 0, 64, 127
1, 171293, Note_off_c, 0, 67, 64
1, 171548, Note_off_c, 0, 64, 64
1, 171560, Note_on_c, 0, 67, 64
1, 171590, Note_off_c, 0, 71, 64
1, 171766, Control_c, 0, 64, 0
1, 171780, Note_on_c, 0, 64, 70
1, 171783, Note_off_c, 0, 48, 64
1, 171786, Note_on_c, 0, 60, 41
1, 171790, Note_on_c, 0, 45, 29
1, 171848, Note_off_c, 0, 67, 64
1, 172518, Control_c, 0, 64, 127
1, 172710, Note_off_c, 0, 55, 64
1, 172754, Note_off_c, 0, 60, 64
1, 172968, Note_on_c, 0, 62, 69
1, 172976, Note_on_c, 0, 54, 48
1, 172996, Note_on_c, 0, 59, 34
1, 173000, Note_off_c, 0, 45, 64
1, 173006, Note_on_c, 0, 47, 29
1, 173028, Note_off_c, 0, 64, 64
1, 173102, Control_c, 0, 64, 0
1, 173210, Note_off_c, 0, 54, 64
1, 173242, Control_c, 0, 64, 127
1, 173322, Note_off_c, 0, 59, 64
1, 173444, Note_off_c, 0, 47, 64
1, 173466, Note_on_c, 0, 67, 76
1, 173480, Note_on_c, 0, 60, 49
1, 173480, Note_on_c, 0, 45, 44
1, 173492, Note_on_c, 0, 64, 43
1, 173514, Note_off_c, 0, 62, 64
1, 173656, Control_c, 0, 64, 0
1, 173748, Control_c, 0, 64, 127
1, 173774, Note_off_c, 0, 64, 64
1, 173880, Note_off_c, 0, 67, 64
1, 173981, Note_on_c, 0, 69, 78
1, 173988, Note_on_c, 0, 66, 56
1, 174004, Note_on_c, 0, 38, 52
1, 174224, Note_off_c, 0, 60, 64
1, 174232, Note_off_c, 0, 45, 64
1, 174306, Note_off_c, 0, 66, 64
1, 174368, Note_off_c, 0, 38, 64
1, 174392, Note_on_c, 0, 71, 95
1, 174392, Control_c, 0, 64, 0
1, 174398, Note_off_c, 0, 69, 64
1, 174404, Note_on_c, 0, 67, 63
1, 174406, Note_on_c, 0, 43, 62
1, 174410, Note_on_c, 0, 59, 76
1, 174413, Note_on_c, 0, 31, 73
1, 174494, Note_off_c, 0, 31, 64
1, 174506, Note_off_c, 0, 59, 64
1, 174528, Note_off_c, 0, 67, 64
1, 174532, Note_off_c, 0, 43, 64
1, 174532, Control_c, 0, 64, 127
1, 174566, Note_off_c, 0, 71, 64
1, 174784, Note_on_c, 0, 74, 88
1, 174892, Note_off_c, 0, 74, 64
1, 174960, Note_on_c, 0, 74, 62
1, 174962, Note_on_c, 0, 78, 92
1, 174972, Note_on_c, 0, 62, 44
1, 174976, Note_on_c, 0, 66, 52
1, 174986, Note_on_c, 0, 50, 49
1, 175002, Note_on_c, 0, 59, 43
1, 175010, Note_on_c, 0, 55, 38
1, 175013, Note_on_c, 0, 71, 38
1, 175362, Control_c, 0, 64, 0
1, 175422, Control_c, 0, 64, 127
1, 175454, Note_off_c, 0, 50, 64
1, 175476, Note_off_c, 0, 66, 64
1, 175478, Note_off_c, 0, 55, 64
1, 175504, Note_off_c, 0, 59, 64
1, 175506, Note_off_c, 0, 71, 64
1, 175538, Note_off_c, 0, 74, 64
1, 175572, Note_off_c, 0, 62, 64
1, 175622, Note_off_c, 0, 78, 64
1, 175922, Note_on_c, 0, 81, 88
1, 175944, Note_on_c, 0, 66, 43
1, 175980, Note_on_c, 0, 59, 25
1, 175982, Note_on_c, 0, 62, 31
1, 175988, Note_on_c, 0, 71, 24
1, 176484, Control_c, 0, 64, 0
1, 176544, Control_c, 0, 64, 127
1, 176570, Note_off_c, 0, 59, 64
1, 176598, Note_off_c, 0, 62, 64
1, 176612, Note_off_c, 0, 66, 64
1, 176628, Note_off_c, 0, 81, 64
1, 176652, Note_off_c, 0, 71, 64
1, 177070, Note_on_c, 0, 79, 71
1, 177086, Note_on_c, 0, 67, 32
1, 177237, Note_off_c, 0, 79, 64
1, 177572, Note_on_c, 0, 74, 73
1, 177590, Note_off_c, 0, 67, 64
1, 177598, Note_on_c, 0, 69, 21
1, 177900, Note_off_c, 0, 69, 64
1, 178028, Note_on_c, 0, 71, 85
1, 178070, Note_off_c, 0, 74, 64
1, 178266, Note_off_c, 0, 71, 64
1, 178468, Note_on_c, 0, 69, 63
1, 178480, Note_on_c, 0, 54, 22
1, 178488, Note_on_c, 0, 64, 49
1, 178504, Note_on_c, 0, 60, 10
1, 178526, Control_c, 0, 64, 0
1, 178710, Control_c, 0, 64, 127
1, 178786, Note_off_c, 0, 60, 64
1, 178872, Note_on_c, 0, 71, 63
1, 179000, Note_on_c, 0, 67, 56
1, 179012, Note_on_c, 0, 63, 41
1, 179018, Note_on_c, 0, 57, 26
1, 179040, Note_off_c, 0, 64, 64
1, 179056, Note_off_c, 0, 54, 64
1, 179058, Note_on_c, 0, 47, 17
1, 179068, Note_off_c, 0, 71, 64
1, 179110, Control_c, 0, 64, 0
1, 179138, Note_off_c, 0, 69, 64
1, 179880, Note_on_c, 0, 71, 44
1, 179898, Note_off_c, 0, 67, 64
1, 180048, Control_c, 0, 64, 127
1, 180051, Note_off_c, 0, 57, 64
1, 180058, Note_off_c, 0, 47, 64
1, 180108, Note_off_c, 0, 63, 64
1, 180318, Note_off_c, 0, 71, 64
1, 180362, Note_on_c, 0, 69, 31
1, 180372, Note_on_c, 0, 54, 31
1, 180372, Note_on_c, 0, 64, 34
1, 180384, Note_on_c, 0, 60, 19
1, 180384, Control_c, 0, 64, 0
1, 180632, Control_c, 0, 64, 127
1, 180668, Note_off_c, 0, 60, 64
1, 180728, Note_off_c, 0, 54, 64
1, 180824, Note_off_c, 0, 69, 64
1, 180848, Note_on_c, 0, 71, 33
1, 181022, Note_on_c, 0, 67, 41
1, 181046, Control_c, 0, 64, 0
1, 181050, Note_on_c, 0, 63, 36
1, 181058, Note_on_c, 0, 57, 18
1, 181064, Note_off_c, 0, 64, 64
1, 181067, Note_off_c, 0, 71, 64
1, 181072, Note_on_c, 0, 47, 17
1, 181660, Control_c, 0, 64, 127
1, 181992, Note_on_c, 0, 66, 29
1, 181998, Note_off_c, 0, 67, 64
1, 182030, Control_c, 0, 64, 0
1, 182168, Control_c, 0, 64, 127
1, 182184, Note_off_c, 0, 47, 64
1, 182188, Note_off_c, 0, 57, 64
1, 182216, Note_off_c, 0, 63, 64
1, 182216, Note_off_c, 0, 66, 64
1, 182506, Note_on_c, 0, 55, 22
1, 182510, Note_on_c, 0, 64, 44
1, 182510, Note_on_c, 0, 60, 19
1, 182522, Note_on_c, 0, 48, 16
1, 182536, Control_c, 0, 64, 0
1, 182722, Control_c, 0, 64, 127
1, 182756, Note_off_c, 0, 55, 64
1, 182862, Note_off_c, 0, 60, 64
1, 182894, Note_off_c, 0, 48, 64
1, 182954, Note_off_c, 0, 64, 64
1, 182968, Note_on_c, 0, 62, 35
1, 182983, Note_on_c, 0, 54, 21
1, 182987, Note_on_c, 0, 50, 23
1, 183106, Note_off_c, 0, 54, 64
1, 183174, Note_on_c, 0, 59, 37
1, 183174, Note_on_c, 0, 55, 29
1, 183196, Note_on_c, 0, 52, 26
1, 183212, Note_off_c, 0, 50, 64
1, 183212, Control_c, 0, 64, 0
1, 183244, Note_off_c, 0, 62, 64
1, 183750, Control_c, 0, 64, 127
1, 184006, Note_off_c, 0, 55, 64
1, 184152, Note_on_c, 0, 62, 25
1, 184156, Note_off_c, 0, 52, 64
1, 184160, Note_off_c, 0, 59, 64
1, 184168, Note_on_c, 0, 54, 23
1, 184180, Note_on_c, 0, 57, 10
1, 184196, Control_c, 0, 64, 0
1, 184198, Note_on_c, 0, 50, 20
1, 184718, Control_c, 0, 64, 127
1, 185152, Note_on_c, 0, 45, 34
1, 185486, Note_off_c, 0, 45, 64
1, 185702, Control_c, 0, 64, 0
1, 185872, Control_c, 0, 64, 127
1, 186248, Note_on_c, 0, 38, 24
1, 186374, Note_off_c, 0, 38, 64
1, 186396, Note_off_c, 0, 54, 64
1, 186406, Note_off_c, 0, 57, 64
1, 186432, Note_off_c, 0, 50, 64
1, 186438, Note_off_c, 0, 62, 64
1, 186990, Note_on_c, 0, 76, 57
1, 187026, Note_on_c, 0, 54, 24
1, 187026, Note_on_c, 0, 69, 21
1, 187029, Note_on_c, 0, 64, 17
1, 187040, Control_c, 0, 64, 0
1, 187043, Note_on_c, 0, 60, 19
1, 187178, Note_off_c, 0, 64, 64
1, 187178, Control_c, 0, 64, 127
1, 187228, Note_off_c, 0, 60, 64
1, 187256, Note_off_c, 0, 54, 64
1, 187604, Note_on_c, 0, 38, 27
1, 187724, Note_off_c, 0, 38, 64
1, 187780, Note_on_c, 0, 45, 30
1, 187844, Note_off_c, 0, 45, 64
1, 187928, Note_on_c, 0, 50, 44
1, 188000, Note_off_c, 0, 50, 64
1, 188120, Note_on_c, 0, 78, 68
1, 188128, Note_on_c, 0, 54, 33
1, 188182, Note_off_c, 0, 69, 64
1, 188266, Note_off_c, 0, 54, 64
1, 188278, Note_on_c, 0, 57, 20
1, 188281, Note_off_c, 0, 76, 64
1, 188362, Note_off_c, 0, 57, 64
1, 188406, Note_on_c, 0, 60, 23
1, 188474, Note_off_c, 0, 60, 64
1, 188516, Note_on_c, 0, 64, 52
1, 188600, Note_off_c, 0, 64, 64
1, 188650, Note_on_c, 0, 66, 41
1, 188732, Note_off_c, 0, 66, 64
1, 188738, Note_on_c, 0, 76, 70
1, 188808, Note_on_c, 0, 69, 36
1, 188848, Note_off_c, 0, 78, 64
1, 188866, Note_off_c, 0, 69, 64
1, 188966, Note_on_c, 0, 81, 85
1, 188988, Note_on_c, 0, 72, 36
1, 189038, Note_off_c, 0, 76, 64
1, 189046, Note_off_c, 0, 72, 64
1, 189422, Note_on_c, 0, 64, 38
1, 189442, Note_on_c, 0, 60, 34
1, 189448, Note_on_c, 0, 54, 25
1, 189824, Note_on_c, 0, 79, 85
1, 189940, Note_off_c, 0, 81, 64
1, 190276, Note_on_c, 0, 69, 40
1, 190354, Note_off_c, 0, 60, 64
1, 190388, Note_off_c, 0, 54, 64
1, 190408, Note_off_c, 0, 64, 64
1, 190510, Note_on_c, 0, 78, 69
1, 190518, Note_off_c, 0, 69, 64
1, 190562, Note_off_c, 0, 79, 64
1, 190738, Note_on_c, 0, 76, 68
1, 190746, Note_on_c, 0, 61, 22
1, 190754, Note_on_c, 0, 70, 32
1, 190757, Note_on_c, 0, 64, 27
1, 190766, Note_on_c, 0, 55, 27
1, 190814, Note_off_c, 0, 78, 64
1, 190864, Control_c, 0, 64, 0
1, 191234, Control_c, 0, 64, 127
1, 191240, Note_off_c, 0, 55, 64
1, 191276, Note_off_c, 0, 70, 64
1, 191294, Note_off_c, 0, 64, 64
1, 191308, Note_off_c, 0, 61, 64
1, 191516, Note_off_c, 0, 76, 64
1, 191634, Note_on_c, 0, 78, 62
1, 192152, Note_on_c, 0, 97, 5
1, 192256, Note_off_c, 0, 97, 64
1, 192306, Note_on_c, 0, 94, 22
1, 192392, Note_off_c, 0, 94, 64
1, 192454, Note_on_c, 0, 91, 29
1, 192522, Note_off_c, 0, 91, 64
1, 192598, Note_off_c, 0, 78, 64
1, 192601, Note_on_c, 0, 88, 19
1, 192604, Note_on_c, 0, 73, 39
1, 192712, Note_off_c, 0, 88, 64
1, 192720, Note_on_c, 0, 85, 41
1, 192868, Note_on_c, 0, 82, 44
1, 192884, Note_off_c, 0, 85, 64
1, 192889, Note_off_c, 0, 73, 64
1, 193020, Note_on_c, 0, 79, 59
1, 193022, Note_off_c, 0, 82, 64
1, 193094, Note_off_c, 0, 79, 64
1, 193146, Note_on_c, 0, 76, 36
1, 193226, Note_off_c, 0, 76, 64
1, 193266, Note_on_c, 0, 73, 46
1, 193400, Note_on_c, 0, 70, 43
1, 193416, Note_off_c, 0, 73, 64
1, 193546, Note_on_c, 0, 67, 42
1, 193622, Note_off_c, 0, 70, 64
1, 193682, Note_on_c, 0, 64, 69
1, 193686, Note_off_c, 0, 67, 64
1, 193734, Note_off_c, 0, 64, 64
1, 193780, Note_on_c, 0, 61, 51
1, 193890, Note_on_c, 0, 58, 45
1, 193898, Note_off_c, 0, 61, 64
1, 194028, Note_on_c, 0, 55, 53
1, 194036, Note_off_c, 0, 58, 64
1, 194136, Note_on_c, 0, 54, 57
1, 194142, Note_off_c, 0, 55, 64
1, 194214, Control_c, 0, 64, 0
1, 194218, Note_on_c, 0, 76, 83
1, 194220, Note_on_c, 0, 60, 28
1, 194244, Note_on_c, 0, 69, 34
1, 194258, Note_on_c, 0, 64, 39
1, 194388, Note_off_c, 0, 64, 64
1, 194414, Control_c, 0, 64, 127
1, 194428, Note_off_c, 0, 60, 64
1, 194472, Note_off_c, 0, 54, 64
1, 194628, Note_on_c, 0, 38, 56
1, 194764, Note_off_c, 0, 38, 64
1, 194772, Note_on_c, 0, 45, 62
1, 194836, Note_off_c, 0, 45, 64
1, 194918, Note_on_c, 0, 50, 57
1, 194980, Note_off_c, 0, 50, 64
1, 195086, Note_on_c, 0, 54, 59
1, 195114, Note_on_c, 0, 78, 81
1, 195236, Note_off_c, 0, 76, 64
1, 195256, Note_on_c, 0, 57, 49
1, 195264, Note_off_c, 0, 54, 64
1, 195354, Note_off_c, 0, 57, 64
1, 195386, Note_on_c, 0, 60, 57
1, 195450, Note_off_c, 0, 69, 64
1, 195453, Note_off_c, 0, 60, 64
1, 195512, Note_on_c, 0, 64, 57
1, 195592, Note_off_c, 0, 64, 64
1, 195644, Note_on_c, 0, 66, 36
1, 195674, Note_on_c, 0, 76, 83
1, 195716, Note_off_c, 0, 78, 64
1, 195766, Note_on_c, 0, 69, 57
1, 195794, Note_off_c, 0, 66, 64
1, 195870, Note_off_c, 0, 69, 64
1, 195936, Note_on_c, 0, 81, 92
1, 195964, Note_on_c, 0, 72, 49
1, 196004, Note_off_c, 0, 76, 64
1, 196098, Note_off_c, 0, 72, 64
1, 196448, Note_on_c, 0, 64, 38
1, 196451, Note_on_c, 0, 54, 36
1, 196460, Note_on_c, 0, 60, 34
1, 196906, Note_on_c, 0, 79, 80
1, 197010, Note_off_c, 0, 81, 64
1, 197318, Note_on_c, 0, 69, 44
1, 197548, Note_off_c, 0, 64, 64
1, 197556, Note_off_c, 0, 60, 64
1, 197586, Note_on_c, 0, 78, 67
1, 197594, Note_off_c, 0, 54, 64
1, 197622, Note_off_c, 0, 69, 64
1, 197656, Note_off_c, 0, 79, 64
1, 197804, Note_on_c, 0, 76, 64
1, 197812, Note_on_c, 0, 70, 36
1, 197834, Note_on_c, 0, 61, 24
1, 197836, Note_on_c, 0, 64, 24
1, 197850, Note_on_c, 0, 55, 28
1, 197864, Note_off_c, 0, 78, 64
1, 197886, Control_c, 0, 64, 0
1, 198286, Control_c, 0, 64, 127
1, 198302, Note_off_c, 0, 55, 64
1, 198340, Note_off_c, 0, 64, 64
1, 198374, Note_off_c, 0, 70, 64
1, 198377, Note_off_c, 0, 61, 64
1, 198582, Note_off_c, 0, 76, 64
1, 198686, Note_on_c, 0, 78, 64
1, 199136, Note_on_c, 0, 97, 22
1, 199292, Note_off_c, 0, 97, 64
1, 199316, Note_on_c, 0, 94, 27
1, 199386, Note_off_c, 0, 94, 64
1, 199446, Note_on_c, 0, 91, 29
1, 199518, Note_off_c, 0, 91, 64
1, 199616, Note_on_c, 0, 73, 40
1, 199630, Note_on_c, 0, 88, 4
1, 199650, Note_off_c, 0, 78, 64
1, 199708, Note_on_c, 0, 85, 43
1, 199724, Note_off_c, 0, 88, 64
1, 199850, Note_off_c, 0, 73, 64
1, 199868, Note_on_c, 0, 82, 38
1, 199871, Note_off_c, 0, 85, 64
1, 200012, Note_off_c, 0, 82, 64
1, 200024, Note_on_c, 0, 79, 62
1, 200086, Note_off_c, 0, 79, 64
1, 200150, Note_on_c, 0, 76, 46
1, 200214, Note_off_c, 0, 76, 64
1, 200272, Note_on_c, 0, 73, 46
1, 200416, Note_on_c, 0, 70, 41
1, 200426, Note_off_c, 0, 73, 64
1, 200572, Note_off_c, 0, 70, 64
1, 200575, Note_on_c, 0, 67, 39
1, 200646, Note_off_c, 0, 67, 64
1, 200706, Note_on_c, 0, 64, 41
1, 200784, Note_off_c, 0, 64, 64
1, 200828, Note_on_c, 0, 61, 42
1, 200904, Note_off_c, 0, 61, 64
1, 200962, Note_on_c, 0, 58, 32
1, 201104, Note_off_c, 0, 58, 64
1, 201156, Note_on_c, 0, 55, 11
1, 201206, Note_off_c, 0, 55, 64
1, 201494, Note_on_c, 0, 75, 54
1, 201494, Note_on_c, 0, 54, 35
1, 201494, Note_on_c, 0, 63, 35
1, 201494, Note_on_c, 0, 66, 19
1, 201502, Note_on_c, 0, 47, 18
1, 201544, Control_c, 0, 64, 0
1, 201774, Control_c, 0, 64, 127
1, 201911, Note_off_c, 0, 66, 64
1, 201948, Note_off_c, 0, 75, 64
1, 201966, Note_off_c, 0, 63, 64
1, 202036, Note_off_c, 0, 47, 64
1, 202104, Note_off_c, 0, 54, 64
1, 202124, Note_on_c, 0, 73, 46
1, 202144, Note_on_c, 0, 64, 31
1, 202147, Note_on_c, 0, 68, 19
1, 202154, Note_on_c, 0, 59, 27
1, 202180, Note_on_c, 0, 52, 16
1, 202250, Control_c, 0, 64, 0
1, 202450, Control_c, 0, 64, 127
1, 202684, Note_off_c, 0, 68, 64
1, 202734, Note_off_c, 0, 59, 64
1, 202780, Note_on_c, 0, 71, 48
1, 202836, Note_off_c, 0, 64, 64
1, 202940, Note_off_c, 0, 73, 64
1, 202966, Note_off_c, 0, 52, 64
1, 203014, Note_on_c, 0, 68, 44
1, 203020, Note_on_c, 0, 64, 18
1, 203020, Note_on_c, 0, 49, 21
1, 203023, Note_on_c, 0, 59, 23
1, 203106, Note_off_c, 0, 71, 64
1, 203572, Control_c, 0, 64, 0
1, 203926, Control_c, 0, 64, 127
1, 203932, Note_off_c, 0, 64, 64
1, 203996, Note_off_c, 0, 59, 64
1, 204260, Note_on_c, 0, 66, 52
1, 204278, Note_off_c, 0, 49, 64
1, 204282, Note_on_c, 0, 58, 23
1, 204285, Note_on_c, 0, 63, 42
1, 204298, Note_on_c, 0, 51, 28
1, 204374, Note_off_c, 0, 68, 64
1, 204508, Control_c, 0, 64, 0
1, 204554, Note_off_c, 0, 58, 64
1, 204632, Control_c, 0, 64, 127
1, 204758, Note_off_c, 0, 63, 64
1, 204784, Note_on_c, 0, 71, 88
1, 204790, Note_off_c, 0, 51, 64
1, 204798, Note_on_c, 0, 68, 48
1, 204808, Note_on_c, 0, 49, 59
1, 204808, Note_on_c, 0, 64, 55
1, 204834, Note_off_c, 0, 66, 64
1, 205000, Control_c, 0, 64, 0
1, 205072, Note_off_c, 0, 68, 64
1, 205078, Control_c, 0, 64, 127
1, 205204, Note_on_c, 0, 73, 86
1, 205214, Note_on_c, 0, 42, 58
1, 205214, Note_on_c, 0, 70, 62
1, 205258, Note_off_c, 0, 71, 64
1, 205308, Control_c, 0, 64, 0
1, 205416, Note_off_c, 0, 64, 64
1, 205416, Control_c, 0, 64, 127
1, 205482, Note_off_c, 0, 49, 64
1, 205568, Note_off_c, 0, 70, 64
1, 205644, Note_off_c, 0, 73, 64
1, 205650, Note_off_c, 0, 42, 64
1, 205662, Note_on_c, 0, 75, 84
1, 205674, Note_on_c, 0, 63, 70
1, 205674, Note_on_c, 0, 47, 49
1, 205677, Note_on_c, 0, 71, 64
1, 205682, Note_on_c, 0, 35, 60
1, 205754, Control_c, 0, 64, 0
1, 205838, Note_off_c, 0, 63, 64
1, 205846, Note_off_c, 0, 35, 64
1, 205892, Control_c, 0, 64, 127
1, 205912, Note_off_c, 0, 47, 64
1, 205928, Note_off_c, 0, 71, 64
1, 205996, Note_off_c, 0, 75, 64
1, 206140, Note_on_c, 0, 78, 88
1, 206292, Note_off_c, 0, 78, 64
1, 206352, Note_on_c, 0, 82, 88
1, 206366, Note_on_c, 0, 70, 56
1, 206369, Note_on_c, 0, 78, 37
1, 206378, Note_on_c, 0, 63, 34
1, 206378, Note_on_c, 0, 54, 35
1, 206378, Note_on_c, 0, 75, 31
1, 206380, Note_on_c, 0, 66, 30
1, 206390, Note_on_c, 0, 59, 24
1, 206892, Note_off_c, 0, 70, 64
1, 206924, Note_off_c, 0, 75, 64
1, 206982, Note_off_c, 0, 59, 64
1, 207020, Note_off_c, 0, 78, 64
1, 207024, Note_off_c, 0, 63, 64
1, 207072, Note_off_c, 0, 82, 64
1, 207072, Note_off_c, 0, 66, 64
1, 207338, Note_on_c, 0, 85, 90
1, 207354, Note_on_c, 0, 59, 33
1, 207362, Note_on_c, 0, 78, 35
1, 207364, Note_on_c, 0, 66, 76
1, 207364, Note_on_c, 0, 75, 48
1, 207372, Note_on_c, 0, 63, 30
1, 207488, Note_off_c, 0, 54, 64
1, 208268, Note_off_c, 0, 85, 64
1, 208408, Note_on_c, 0, 83, 103
1, 208416, Note_on_c, 0, 68, 66
1, 208476, Note_off_c, 0, 66, 64
1, 208520, Control_c, 0, 64, 0
1, 208654, Control_c, 0, 64, 127
1, 208720, Note_off_c, 0, 78, 64
1, 208920, Note_on_c, 0, 78, 81
1, 208936, Note_on_c, 0, 70, 60
1, 208958, Note_off_c, 0, 83, 64
1, 208990, Note_off_c, 0, 68, 64
1, 209042, Control_c, 0, 64, 0
1, 209182, Control_c, 0, 64, 127
1, 209222, Note_off_c, 0, 75, 64
1, 209344, Note_off_c, 0, 70, 64
1, 209360, Note_off_c, 0, 59, 64
1, 209360, Note_on_c, 0, 75, 77
1, 209368, Note_on_c, 0, 71, 59
1, 209410, Control_c, 0, 64, 0
1, 209434, Note_off_c, 0, 78, 64
1, 209550, Control_c, 0, 64, 127
1, 209606, Note_off_c, 0, 75, 64
1, 209620, Note_off_c, 0, 71, 64
1, 209850, Note_off_c, 0, 63, 64
1, 210002, Note_on_c, 0, 76, 53
1, 210012, Note_on_c, 0, 72, 42
1, 210032, Note_on_c, 0, 67, 27
1, 210052, Note_on_c, 0, 60, 15
1, 210072, Control_c, 0, 64, 0
1, 210302, Control_c, 0, 64, 127
1, 210410, Note_off_c, 0, 67, 64
1, 210428, Note_off_c, 0, 72, 64
1, 210428, Note_on_c, 0, 74, 55
1, 210434, Note_on_c, 0, 69, 25
1, 210450, Note_off_c, 0, 60, 64
1, 210450, Note_on_c, 0, 66, 22
1, 210462, Note_off_c, 0, 76, 64
1, 210462, Note_on_c, 0, 62, 26
1, 210512, Note_off_c, 0, 69, 64
1, 210584, Note_on_c, 0, 71, 63
1, 210594, Note_on_c, 0, 67, 43
1, 210597, Note_off_c, 0, 66, 64
1, 210612, Note_on_c, 0, 64, 39
1, 210652, Note_off_c, 0, 74, 64
1, 210704, Note_off_c, 0, 62, 64
1, 210932, Control_c, 0, 64, 0
1, 211148, Control_c, 0, 64, 127
1, 211174, Note_off_c, 0, 64, 64
1, 211490, Note_on_c, 0, 69, 25
1, 211502, Note_off_c, 0, 67, 64
1, 211502, Note_on_c, 0, 66, 16
1, 211528, Note_on_c, 0, 64, 21
1, 211534, Note_on_c, 0, 60, 14
1, 211556, Note_off_c, 0, 71, 64
1, 211700, Control_c, 0, 64, 0
1, 212012, Note_off_c, 0, 64, 64
1, 212022, Control_c, 0, 64, 127
1, 212072, Note_off_c, 0, 60, 64
1, 212162, Note_off_c, 0, 66, 64
1, 212518, Note_on_c, 0, 67, 21
1, 212560, Note_on_c, 0, 64, 13
1, 212566, Note_on_c, 0, 57, 13
1, 212572, Note_on_c, 0, 60, 10
1, 212654, Note_off_c, 0, 69, 64
1, 212760, Control_c, 0, 64, 0
1, 213022, Control_c, 0, 64, 127
1, 213132, Note_off_c, 0, 60, 64
1, 213144, Note_off_c, 0, 64, 64
1, 213184, Note_off_c, 0, 57, 64
1, 213696, Note_on_c, 0, 64, 18
1, 213712, Note_off_c, 0, 67, 64
1, 213732, Note_on_c, 0, 50, 15
1, 213764, Note_on_c, 0, 60, 3
1, 213894, Note_off_c, 0, 50, 64
1, 213899, Note_off_c, 0, 60, 64
1, 214234, Note_off_c, 0, 64, 64
1, 214240, Note_on_c, 0, 67, 38
1, 214244, Note_on_c, 0, 60, 33
1, 214248, Note_on_c, 0, 50, 25
1, 214266, Control_c, 0, 64, 0
1, 214336, Note_off_c, 0, 60, 64
1, 214341, Note_off_c, 0, 50, 64
1, 214358, Control_c, 0, 64, 127
1, 214396, Note_on_c, 0, 43, 32
1, 214412, Note_on_c, 0, 59, 4
1, 214472, Note_off_c, 0, 43, 64
1, 214478, Note_off_c, 0, 59, 64
1, 214512, Note_on_c, 0, 57, 26
1, 214566, Note_on_c, 0, 50, 29
1, 214586, Note_off_c, 0, 57, 64
1, 214644, Note_off_c, 0, 50, 64
1, 214666, Note_on_c, 0, 55, 51
1, 214696, Note_on_c, 0, 43, 34
1, 214756, Note_off_c, 0, 55, 64
1, 214766, Note_off_c, 0, 43, 64
1, 214822, Note_on_c, 0, 50, 39
1, 214890, Note_off_c, 0, 50, 64
1, 214930, Note_on_c, 0, 57, 36
1, 214936, Note_on_c, 0, 43, 46
1, 214972, Control_c, 0, 64, 0
1, 215000, Note_off_c, 0, 57, 64
1, 215000, Note_off_c, 0, 43, 64
1, 215060, Note_on_c, 0, 51, 59
1, 215062, Note_on_c, 0, 60, 52
1, 215172, Control_c, 0, 64, 127
1, 215175, Note_on_c, 0, 59, 62
1, 215186, Note_off_c, 0, 60, 64
1, 215192, Note_off_c, 0, 51, 64
1, 215218, Note_on_c, 0, 43, 44
1, 215232, Note_off_c, 0, 59, 64
1, 215286, Note_off_c, 0, 43, 64
1, 215314, Note_on_c, 0, 57, 29
1, 215350, Note_on_c, 0, 51, 49
1, 215382, Note_off_c, 0, 57, 64
1, 215418, Control_c, 0, 64, 0
1, 215420, Note_off_c, 0, 51, 64
1, 215436, Note_on_c, 0, 55, 65
1, 215454, Note_on_c, 0, 43, 44
1, 215526, Note_off_c, 0, 43, 64
1, 215556, Control_c, 0, 64, 127
1, 215584, Note_off_c, 0, 55, 64
1, 215584, Note_on_c, 0, 51, 43
1, 215648, Note_off_c, 0, 51, 64
1, 215680, Control_c, 0, 64, 0
1, 215704, Note_on_c, 0, 57, 52
1, 215712, Note_on_c, 0, 43, 26
1, 215770, Note_off_c, 0, 57, 64
1, 215784, Note_off_c, 0, 43, 64
1, 215836, Note_on_c, 0, 59, 48
1, 215838, Note_on_c, 0, 52, 40
1, 215904, Note_off_c, 0, 52, 64
1, 215910, Control_c, 0, 64, 127
1, 215918, Note_off_c, 0, 59, 64
1, 215964, Note_off_c, 0, 67, 64
1, 215964, Note_on_c, 0, 43, 42
1, 216024, Note_off_c, 0, 43, 64
1, 216096, Note_on_c, 0, 52, 38
1, 216158, Note_off_c, 0, 52, 64
1, 216182, Note_on_c, 0, 71, 63
1, 216188, Note_on_c, 0, 67, 45
1, 216200, Note_on_c, 0, 43, 39
1, 216204, Note_on_c, 0, 64, 24
1, 216234, Note_off_c, 0, 71, 64
1, 216246, Note_off_c, 0, 67, 64
1, 216258, Note_off_c, 0, 43, 64
1, 216268, Note_off_c, 0, 64, 64
1, 216360, Note_on_c, 0, 52, 20
1, 216418, Note_off_c, 0, 52, 64
1, 216434, Note_on_c, 0, 43, 38
1, 216492, Note_off_c, 0, 43, 64
1, 216566, Note_on_c, 0, 83, 87
1, 216572, Note_on_c, 0, 52, 28
1, 216576, Note_on_c, 0, 76, 38
1, 216588, Note_on_c, 0, 79, 32
1, 216606, Note_off_c, 0, 83, 64
1, 216632, Note_off_c, 0, 76, 64
1, 216638, Note_off_c, 0, 52, 64
1, 216656, Note_off_c, 0, 79, 64
1, 216670, Note_on_c, 0, 43, 39
1, 216728, Note_off_c, 0, 43, 64
1, 216812, Note_on_c, 0, 52, 41
1, 216874, Note_off_c, 0, 52, 64
1, 216908, Note_on_c, 0, 43, 39
1, 216972, Note_on_c, 0, 71, 40
1, 216975, Note_off_c, 0, 43, 64
1, 217042, Note_off_c, 0, 71, 64
1, 217072, Note_on_c, 0, 52, 33
1, 217130, Note_off_c, 0, 52, 64
1, 217200, Note_on_c, 0, 43, 31
1, 217268, Note_off_c, 0, 43, 64
1, 217294, Control_c, 0, 64, 0
1, 217336, Note_on_c, 0, 60, 65
1, 217341, Note_on_c, 0, 67, 55
1, 217348, Note_on_c, 0, 50, 42
1, 217420, Note_off_c, 0, 50, 64
1, 217470, Note_off_c, 0, 60, 64
1, 217476, Note_on_c, 0, 59, 63
1, 217476, Control_c, 0, 64, 127
1, 217479, Note_on_c, 0, 43, 42
1, 217530, Note_off_c, 0, 59, 64
1, 217544, Note_off_c, 0, 43, 64
1, 217590, Note_on_c, 0, 57, 70
1, 217604, Note_on_c, 0, 50, 44
1, 217674, Note_off_c, 0, 50, 64
1, 217716, Note_off_c, 0, 57, 64
1, 217718, Note_on_c, 0, 55, 81
1, 217720, Note_on_c, 0, 43, 43
1, 217802, Note_off_c, 0, 43, 64
1, 217842, Note_off_c, 0, 55, 64
1, 217846, Note_on_c, 0, 50, 47
1, 217924, Note_off_c, 0, 50, 64
1, 217964, Note_on_c, 0, 43, 54
1, 217976, Note_on_c, 0, 57, 65
1, 218030, Note_off_c, 0, 57, 64
1, 218056, Note_off_c, 0, 43, 64
1, 218108, Control_c, 0, 64, 0
1, 218132, Note_on_c, 0, 60, 74
1, 218136, Note_on_c, 0, 51, 59
1, 218232, Note_off_c, 0, 51, 64
1, 218240, Note_on_c, 0, 59, 69
1, 218266, Note_off_c, 0, 60, 64
1, 218272, Note_on_c, 0, 43, 44
1, 218292, Control_c, 0, 64, 127
1, 218338, Note_off_c, 0, 59, 64
1, 218338, Note_off_c, 0, 43, 64
1, 218364, Note_on_c, 0, 57, 69
1, 218384, Note_on_c, 0, 51, 55
1, 218408, Note_off_c, 0, 57, 64
1, 218468, Note_off_c, 0, 51, 64
1, 218496, Note_on_c, 0, 55, 86
1, 218520, Note_on_c, 0, 43, 37
1, 218608, Note_off_c, 0, 43, 64
1, 218614, Note_off_c, 0, 55, 64
1, 218638, Note_on_c, 0, 51, 46
1, 218712, Note_off_c, 0, 51, 64
1, 218738, Note_on_c, 0, 57, 66
1, 218770, Note_on_c, 0, 43, 47
1, 218782, Control_c, 0, 64, 0
1, 218806, Note_off_c, 0, 57, 64
1, 218828, Note_off_c, 0, 43, 64
1, 218884, Note_on_c, 0, 59, 72
1, 218889, Note_on_c, 0, 52, 59
1, 218960, Note_off_c, 0, 52, 64
1, 218992, Note_on_c, 0, 43, 51
1, 218998, Note_off_c, 0, 59, 64
1, 218998, Control_c, 0, 64, 127
1, 219054, Note_off_c, 0, 67, 64
1, 219064, Note_off_c, 0, 43, 64
1, 219134, Note_on_c, 0, 52, 50
1, 219200, Note_off_c, 0, 52, 64
1, 219256, Note_on_c, 0, 43, 35
1, 219268, Note_on_c, 0, 71, 66
1, 219276, Note_on_c, 0, 64, 52
1, 219282, Note_on_c, 0, 67, 44
1, 219320, Note_off_c, 0, 43, 64
1, 219323, Note_off_c, 0, 71, 64
1, 219323, Note_off_c, 0, 64, 64
1, 219342, Note_off_c, 0, 67, 64
1, 219396, Note_on_c, 0, 52, 39
1, 219456, Note_off_c, 0, 52, 64
1, 219488, Note_on_c, 0, 43, 43
1, 219552, Note_off_c, 0, 43, 64
1, 219648, Note_on_c, 0, 52, 42
1, 219672, Note_on_c, 0, 76, 42
1, 219674, Note_on_c, 0, 83, 83
1, 219677, Note_on_c, 0, 79, 54
1, 219708, Note_off_c, 0, 52, 64
1, 219718, Note_off_c, 0, 83, 64
1, 219730, Note_off_c, 0, 79, 64
1, 219736, Note_off_c, 0, 76, 64
1, 219762, Note_on_c, 0, 43, 29
1, 219834, Note_off_c, 0, 43, 64
1, 219906, Note_on_c, 0, 52, 40
1, 219970, Note_off_c, 0, 52, 64
1, 220054, Note_on_c, 0, 43, 22
1, 220068, Note_on_c, 0, 71, 34
1, 220092, Note_on_c, 0, 64, 24
1, 220100, Note_on_c, 0, 67, 13
1, 220138, Note_off_c, 0, 43, 64
1, 220158, Note_off_c, 0, 64, 64
1, 220166, Note_off_c, 0, 67, 64
1, 220172, Note_off_c, 0, 71, 64
1, 220242, Note_on_c, 0, 52, 24
1, 220340, Note_on_c, 0, 43, 36
1, 220344, Note_off_c, 0, 52, 64
1, 220394, Note_off_c, 0, 43, 64
1, 220488, Control_c, 0, 64, 0
1, 220532, Note_on_c, 0, 83, 83
1, 220534, Note_on_c, 0, 79, 50
1, 220548, Note_on_c, 0, 45, 38
1, 220690, Note_on_c, 0, 52, 47
1, 220766, Control_c, 0, 64, 127
1, 220796, Note_off_c, 0, 45, 64
1, 220806, Note_off_c, 0, 52, 64
1, 220838, Note_on_c, 0, 55, 58
1, 220886, Note_off_c, 0, 55, 64
1, 220962, Note_on_c, 0, 85, 63
1, 220968, Note_on_c, 0, 57, 59
1, 220974, Note_on_c, 0, 81, 53
1, 220978, Note_off_c, 0, 79, 64
1, 221012, Note_off_c, 0, 83, 64
1, 221082, Note_off_c, 0, 57, 64
1, 221096, Note_on_c, 0, 61, 62
1, 221214, Note_off_c, 0, 61, 64
1, 221226, Note_on_c, 0, 64, 64
1, 221308, Note_off_c, 0, 64, 64
1, 221311, Note_off_c, 0, 81, 64
1, 221328, Note_on_c, 0, 83, 87
1, 221338, Note_on_c, 0, 67, 63
1, 221340, Note_off_c, 0, 85, 64
1, 221344, Note_on_c, 0, 79, 44
1, 221402, Note_off_c, 0, 67, 64
1, 221470, Note_on_c, 0, 64, 62
1, 221526, Note_off_c, 0, 64, 64
1, 221554, Note_off_c, 0, 79, 64
1, 221570, Note_on_c, 0, 61, 57
1, 221672, Note_on_c, 0, 57, 38
1, 221675, Note_on_c, 0, 76, 58
1, 221682, Note_off_c, 0, 61, 64
1, 221685, Note_on_c, 0, 79, 85
1, 221734, Note_off_c, 0, 57, 64
1, 221770, Note_off_c, 0, 83, 64
1, 221800, Note_on_c, 0, 55, 58
1, 221872, Note_off_c, 0, 55, 64
1, 221916, Note_on_c, 0, 52, 69
1, 221919, Note_on_c, 0, 78, 70
1, 221926, Note_on_c, 0, 81, 81
1, 221940, Note_off_c, 0, 79, 64
1, 221978, Note_off_c, 0, 52, 64
1, 221992, Note_off_c, 0, 76, 64
1, 222022, Note_on_c, 0, 45, 52
1, 222040, Control_c, 0, 64, 0
1, 222058, Note_off_c, 0, 78, 64
1, 222064, Note_on_c, 0, 83, 109
1, 222084, Note_on_c, 0, 79, 85
1, 222119, Note_off_c, 0, 81, 64
1, 222142, Note_off_c, 0, 79, 64
1, 222164, Note_on_c, 0, 52, 54
1, 222180, Control_c, 0, 64, 127
1, 222212, Note_off_c, 0, 45, 64
1, 222242, Note_off_c, 0, 83, 64
1, 222268, Note_off_c, 0, 52, 64
1, 222300, Note_on_c, 0, 55, 43
1, 222302, Note_on_c, 0, 83, 92
1, 222310, Note_on_c, 0, 79, 83
1, 222356, Note_off_c, 0, 55, 64
1, 222454, Note_on_c, 0, 57, 33
1, 222486, Note_off_c, 0, 79, 64
1, 222486, Note_on_c, 0, 88, 62
1, 222489, Note_on_c, 0, 85, 51
1, 222532, Control_c, 0, 64, 0
1, 222564, Note_off_c, 0, 83, 64
1, 222630, Note_on_c, 0, 61, 39
1, 222638, Note_off_c, 0, 85, 64
1, 222670, Control_c, 0, 64, 127
1, 222756, Note_off_c, 0, 57, 64
1, 222788, Note_on_c, 0, 81, 49
1, 222791, Note_off_c, 0, 61, 64
1, 222791, Note_on_c, 0, 85, 56
1, 222800, Note_on_c, 0, 64, 38
1, 222846, Note_off_c, 0, 88, 64
1, 222872, Note_off_c, 0, 64, 64
1, 222892, Note_off_c, 0, 81, 64
1, 222952, Note_on_c, 0, 67, 35
1, 222954, Note_off_c, 0, 85, 64
1, 222958, Note_on_c, 0, 83, 79
1, 222972, Note_on_c, 0, 79, 42
1, 223042, Note_off_c, 0, 67, 64
1, 223114, Note_on_c, 0, 64, 29
1, 223190, Note_off_c, 0, 64, 64
1, 223238, Note_on_c, 0, 61, 33
1, 223276, Note_off_c, 0, 79, 64
1, 223308, Note_off_c, 0, 83, 64
1, 223340, Note_off_c, 0, 61, 64
1, 223356, Note_on_c, 0, 57, 38
1, 223414, Note_off_c, 0, 57, 64
1, 223494, Note_on_c, 0, 55, 50
1, 223566, Note_off_c, 0, 55, 64
1, 223598, Note_on_c, 0, 52, 47
1, 223652, Note_off_c, 0, 52, 64
1, 223768, Note_on_c, 0, 64, 64
1, 223782, Note_on_c, 0, 52, 34
1, 223856, Note_off_c, 0, 52, 64
1, 223870, Control_c, 0, 64, 0
1, 223938, Note_on_c, 0, 55, 38
1, 223976, Control_c, 0, 64, 127
1, 224006, Note_off_c, 0, 55, 64
1, 224052, Note_on_c, 0, 62, 73
1, 224064, Note_on_c, 0, 52, 50
1, 224120, Note_off_c, 0, 52, 64
1, 224174, Note_on_c, 0, 55, 48
1, 224196, Note_off_c, 0, 64, 64
1, 224234, Note_off_c, 0, 55, 64
1, 224308, Note_on_c, 0, 61, 79
1, 224308, Note_on_c, 0, 52, 42
1, 224366, Note_off_c, 0, 52, 64
1, 224406, Note_off_c, 0, 62, 64
1, 224406, Note_on_c, 0, 55, 50
1, 224528, Note_off_c, 0, 55, 64
1, 224554, Note_on_c, 0, 59, 85
1, 224570, Note_on_c, 0, 53, 64
1, 224606, Control_c, 0, 64, 0
1, 224632, Note_off_c, 0, 61, 64
1, 224646, Note_off_c, 0, 53, 64
1, 224688, Note_on_c, 0, 56, 55
1, 224790, Note_off_c, 0, 56, 64
1, 224806, Control_c, 0, 64, 127
1, 224822, Note_on_c, 0, 53, 72
1, 224880, Note_off_c, 0, 53, 64
1, 224928, Note_on_c, 0, 56, 57
1, 225018, Note_off_c, 0, 56, 64
1, 225070, Note_on_c, 0, 53, 65
1, 225114, Note_on_c, 0, 61, 82
1, 225126, Note_off_c, 0, 53, 64
1, 225188, Note_on_c, 0, 56, 48
1, 225194, Note_off_c, 0, 59, 64
1, 225248, Note_off_c, 0, 56, 64
1, 225360, Note_on_c, 0, 64, 77
1, 225360, Note_on_c, 0, 52, 40
1, 225374, Control_c, 0, 64, 0
1, 225432, Note_off_c, 0, 61, 64
1, 225460, Note_off_c, 0, 52, 64
1, 225512, Note_on_c, 0, 55, 44
1, 225574, Control_c, 0, 64, 127
1, 225590, Note_off_c, 0, 55, 64
1, 225636, Note_on_c, 0, 62, 74
1, 225682, Note_on_c, 0, 52, 28
1, 225748, Note_off_c, 0, 52, 64
1, 225776, Note_off_c, 0, 64, 64
1, 225800, Note_on_c, 0, 55, 44
1, 225860, Note_off_c, 0, 55, 64
1, 225928, Note_on_c, 0, 61, 71
1, 225942, Note_on_c, 0, 52, 40
1, 225996, Note_off_c, 0, 52, 64
1, 226032, Note_off_c, 0, 62, 64
1, 226058, Note_on_c, 0, 55, 42
1, 226142, Note_off_c, 0, 55, 64
1, 226198, Note_on_c, 0, 59, 62
1, 226220, Control_c, 0, 64, 0
1, 226246, Note_on_c, 0, 53, 32
1, 226276, Note_off_c, 0, 61, 64
1, 226310, Note_off_c, 0, 53, 64
1, 226328, Note_on_c, 0, 56, 43
1, 226418, Note_off_c, 0, 56, 64
1, 226434, Control_c, 0, 64, 127
1, 226506, Note_on_c, 0, 53, 47
1, 226572, Note_off_c, 0, 53, 64
1, 226636, Note_on_c, 0, 56, 30
1, 226680, Note_off_c, 0, 59, 64
1, 226704, Note_off_c, 0, 56, 64
1, 226730, Note_on_c, 0, 61, 63
1, 226770, Note_on_c, 0, 53, 44
1, 226773, Note_off_c, 0, 61, 64
1, 226830, Note_off_c, 0, 53, 64
1, 226874, Note_on_c, 0, 56, 42
1, 226980, Note_off_c, 0, 56, 64
1, 227122, Note_on_c, 0, 83, 84
1, 227125, Note_on_c, 0, 45, 25
1, 227125, Control_c, 0, 64, 0
1, 227128, Note_on_c, 0, 79, 51
1, 227274, Note_on_c, 0, 52, 40
1, 227326, Control_c, 0, 64, 127
1, 227344, Note_off_c, 0, 45, 64
1, 227362, Note_off_c, 0, 52, 64
1, 227402, Note_on_c, 0, 55, 55
1, 227452, Note_off_c, 0, 55, 64
1, 227520, Note_on_c, 0, 85, 71
1, 227530, Note_on_c, 0, 81, 56
1, 227540, Note_off_c, 0, 79, 64
1, 227540, Note_on_c, 0, 57, 45
1, 227566, Note_off_c, 0, 83, 64
1, 227636, Note_off_c, 0, 57, 64
1, 227670, Note_on_c, 0, 61, 52
1, 227768, Note_off_c, 0, 61, 64
1, 227806, Note_on_c, 0, 64, 44
1, 227866, Note_off_c, 0, 64, 64
1, 227882, Note_off_c, 0, 85, 64
1, 227896, Note_off_c, 0, 81, 64
1, 227930, Note_on_c, 0, 83, 82
1, 227936, Note_on_c, 0, 79, 61
1, 227940, Note_on_c, 0, 67, 37
1, 228010, Note_off_c, 0, 67, 64
1, 228082, Note_on_c, 0, 64, 46
1, 228156, Note_off_c, 0, 64, 64
1, 228190, Note_off_c, 0, 79, 64
1, 228214, Note_on_c, 0, 61, 42
1, 228328, Note_off_c, 0, 61, 64
1, 228332, Note_on_c, 0, 76, 49
1, 228338, Note_on_c, 0, 79, 81
1, 228354, Note_on_c, 0, 57, 18
1, 228406, Note_off_c, 0, 83, 64
1, 228420, Note_off_c, 0, 57, 64
1, 228464, Note_on_c, 0, 55, 57
1, 228538, Note_off_c, 0, 55, 64
1, 228596, Note_off_c, 0, 79, 64
1, 228608, Note_on_c, 0, 52, 61
1, 228610, Note_on_c, 0, 78, 69
1, 228620, Note_on_c, 0, 81, 73
1, 228652, Note_off_c, 0, 76, 64
1, 228678, Note_off_c, 0, 52, 64
1, 228710, Note_off_c, 0, 78, 64
1, 228740, Note_on_c, 0, 45, 57
1, 228743, Note_on_c, 0, 83, 108
1, 228756, Note_on_c, 0, 79, 73
1, 228796, Note_off_c, 0, 79, 64
1, 228808, Note_off_c, 0, 81, 64
1, 228868, Note_off_c, 0, 83, 64
1, 228874, Note_on_c, 0, 52, 63
1, 228902, Note_off_c, 0, 45, 64
1, 228954, Note_off_c, 0, 52, 64
1, 228996, Note_on_c, 0, 79, 78
1, 229002, Note_on_c, 0, 83, 98
1, 229004, Note_on_c, 0, 55, 66
1, 229052, Note_off_c, 0, 55, 64
1, 229150, Note_on_c, 0, 85, 60
1, 229154, Note_on_c, 0, 88, 78
1, 229174, Note_on_c, 0, 57, 36
1, 229180, Note_off_c, 0, 79, 64
1, 229186, Note_off_c, 0, 83, 64
1, 229314, Note_off_c, 0, 85, 64
1, 229322, Note_on_c, 0, 61, 47
1, 229358, Note_off_c, 0, 57, 64
1, 229446, Note_on_c, 0, 85, 61
1, 229449, Note_on_c, 0, 81, 52
1, 229456, Note_off_c, 0, 61, 64
1, 229466, Note_on_c, 0, 64, 50
1, 229516, Note_off_c, 0, 88, 64
1, 229534, Note_off_c, 0, 64, 64
1, 229554, Note_off_c, 0, 81, 64
1, 229616, Note_off_c, 0, 85, 64
1, 229620, Note_on_c, 0, 67, 36
1, 229622, Note_on_c, 0, 83, 81
1, 229628, Note_on_c, 0, 79, 57
1, 229716, Note_off_c, 0, 67, 64
1, 229738, Note_off_c, 0, 79, 64
1, 229788, Note_on_c, 0, 64, 41
1, 229858, Note_off_c, 0, 64, 64
1, 229906, Note_off_c, 0, 83, 64
1, 229906, Note_on_c, 0, 61, 42
1, 230034, Note_off_c, 0, 61, 64
1, 230056, Note_on_c, 0, 57, 30
1, 230124, Note_off_c, 0, 57, 64
1, 230186, Note_on_c, 0, 55, 56
1, 230260, Note_off_c, 0, 55, 64
1, 230302, Note_on_c, 0, 52, 50
1, 230352, Note_off_c, 0, 52, 64
1, 230428, Note_on_c, 0, 64, 77
1, 230432, Note_on_c, 0, 52, 62
1, 230520, Note_off_c, 0, 52, 64
1, 230592, Note_on_c, 0, 55, 52
1, 230662, Note_off_c, 0, 55, 64
1, 230706, Note_on_c, 0, 62, 78
1, 230742, Note_on_c, 0, 52, 48
1, 230802, Note_off_c, 0, 52, 64
1, 230864, Note_on_c, 0, 55, 48
1, 230890, Note_off_c, 0, 64, 64
1, 230926, Note_off_c, 0, 55, 64
1, 230976, Note_on_c, 0, 61, 84
1, 230979, Note_on_c, 0, 52, 52
1, 231040, Note_off_c, 0, 52, 64
1, 231074, Note_off_c, 0, 62, 64
1, 231112, Note_on_c, 0, 55, 54
1, 231226, Note_on_c, 0, 59, 84
1, 231236, Note_off_c, 0, 55, 64
1, 231244, Note_on_c, 0, 53, 78
1, 231246, Control_c, 0, 64, 0
1, 231318, Note_off_c, 0, 61, 64
1, 231378, Note_on_c, 0, 56, 46
1, 231384, Note_off_c, 0, 53, 64
1, 231444, Control_c, 0, 64, 127
1, 231498, Note_off_c, 0, 56, 64
1, 231518, Note_on_c, 0, 53, 63
1, 231588, Note_off_c, 0, 53, 64
1, 231644, Note_on_c, 0, 56, 54
1, 231744, Note_off_c, 0, 56, 64
1, 231762, Note_on_c, 0, 53, 73
1, 231818, Note_off_c, 0, 53, 64
1, 231856, Note_on_c, 0, 61, 75
1, 231892, Note_on_c, 0, 56, 55
1, 231974, Note_off_c, 0, 59, 64
1, 231974, Note_off_c, 0, 56, 64
1, 232038, Note_on_c, 0, 52, 51
1, 232068, Note_on_c, 0, 64, 83
1, 232090, Control_c, 0, 64, 0
1, 232144, Note_off_c, 0, 61, 64
1, 232184, Note_off_c, 0, 52, 64
1, 232194, Note_on_c, 0, 55, 53
1, 232258, Control_c, 0, 64, 127
1, 232310, Note_off_c, 0, 55, 64
1, 232322, Note_on_c, 0, 62, 84
1, 232342, Note_on_c, 0, 52, 51
1, 232400, Note_off_c, 0, 52, 64
1, 232448, Note_off_c, 0, 64, 64
1, 232472, Note_on_c, 0, 55, 54
1, 232532, Note_off_c, 0, 55, 64
1, 232572, Note_on_c, 0, 52, 56
1, 232584, Note_on_c, 0, 61, 83
1, 232634, Note_off_c, 0, 52, 64
1, 232666, Note_off_c, 0, 62, 64
1, 232692, Note_on_c, 0, 55, 51
1, 232794, Note_off_c, 0, 55, 64
1, 232822, Note_on_c, 0, 59, 78
1, 232826, Note_on_c, 0, 53, 58
1, 232842, Control_c, 0, 64, 0
1, 232904, Note_off_c, 0, 61, 64
1, 232954, Note_off_c, 0, 53, 64
1, 232968, Note_on_c, 0, 56, 42
1, 233058, Control_c, 0, 64, 127
1, 233072, Note_off_c, 0, 56, 64
1, 233124, Note_on_c, 0, 53, 32
1, 233196, Note_off_c, 0, 53, 64
1, 233224, Note_on_c, 0, 56, 46
1, 233310, Note_off_c, 0, 56, 64
1, 233386, Note_on_c, 0, 53, 44
1, 233410, Note_on_c, 0, 61, 69
1, 233452, Note_off_c, 0, 53, 64
1, 233474, Note_on_c, 0, 56, 36
1, 233488, Note_off_c, 0, 59, 64
1, 233566, Note_off_c, 0, 56, 64
1, 233620, Note_on_c, 0, 54, 44
1, 233626, Control_c, 0, 64, 0
1, 233652, Note_on_c, 0, 64, 72
1, 233704, Note_off_c, 0, 61, 64
1, 233736, Note_off_c, 0, 54, 64
1, 233780, Note_on_c, 0, 57, 31
1, 233848, Control_c, 0, 64, 127
1, 233870, Note_off_c, 0, 57, 64
1, 233900, Note_on_c, 0, 54, 52
1, 233946, Note_on_c, 0, 63, 71
1, 233978, Note_off_c, 0, 54, 64
1, 234038, Note_on_c, 0, 57, 42
1, 234112, Note_off_c, 0, 64, 64
1, 234118, Note_off_c, 0, 57, 64
1, 234154, Note_on_c, 0, 54, 50
1, 234218, Note_on_c, 0, 61, 79
1, 234228, Note_off_c, 0, 54, 64
1, 234276, Note_on_c, 0, 57, 46
1, 234324, Note_off_c, 0, 63, 64
1, 234394, Note_off_c, 0, 57, 64
1, 234420, Note_on_c, 0, 53, 79
1, 234442, Note_on_c, 0, 59, 85
1, 234472, Control_c, 0, 64, 0
1, 234536, Note_off_c, 0, 53, 64
1, 234536, Note_on_c, 0, 56, 53
1, 234546, Note_off_c, 0, 61, 64
1, 234656, Control_c, 0, 64, 127
1, 234674, Note_off_c, 0, 56, 64
1, 234684, Note_on_c, 0, 53, 70
1, 234780, Note_off_c, 0, 53, 64
1, 234808, Note_on_c, 0, 56, 55
1, 234916, Note_off_c, 0, 56, 64
1, 234932, Note_off_c, 0, 59, 64
1, 234940, Note_on_c, 0, 53, 69
1, 234982, Note_on_c, 0, 61, 84
1, 235018, Note_off_c, 0, 61, 64
1, 235034, Note_off_c, 0, 53, 64
1, 235056, Note_on_c, 0, 56, 44
1, 235110, Note_off_c, 0, 56, 64
1, 235208, Control_c, 0, 64, 0
1, 235262, Note_on_c, 0, 76, 76
1, 235276, Note_on_c, 0, 64, 52
1, 235282, Note_on_c, 0, 66, 66
1, 235362, Control_c, 0, 64, 127
1, 235380, Note_off_c, 0, 76, 64
1, 235380, Note_off_c, 0, 64, 64
1, 235400, Note_on_c, 0, 69, 41
1, 235402, Note_off_c, 0, 66, 64
1, 235500, Note_off_c, 0, 69, 64
1, 235528, Note_on_c, 0, 75, 79
1, 235530, Note_on_c, 0, 63, 75
1, 235544, Note_on_c, 0, 66, 55
1, 235632, Note_off_c, 0, 66, 64
1, 235636, Note_on_c, 0, 69, 57
1, 235641, Note_off_c, 0, 75, 64
1, 235646, Note_off_c, 0, 63, 64
1, 235684, Note_off_c, 0, 69, 64
1, 235758, Note_on_c, 0, 61, 81
1, 235758, Note_on_c, 0, 73, 81
1, 235780, Note_on_c, 0, 66, 62
1, 235844, Note_off_c, 0, 66, 64
1, 235848, Note_on_c, 0, 69, 62
1, 235882, Note_off_c, 0, 61, 64
1, 235892, Note_off_c, 0, 73, 64
1, 235904, Note_off_c, 0, 69, 64
1, 235994, Note_on_c, 0, 71, 104
1, 236004, Note_on_c, 0, 59, 93
1, 236008, Note_on_c, 0, 65, 73
1, 236054, Control_c, 0, 64, 0
1, 236126, Note_off_c, 0, 59, 64
1, 236130, Note_on_c, 0, 68, 68
1, 236146, Note_off_c, 0, 65, 64
1, 236162, Control_c, 0, 64, 127
1, 236262, Note_on_c, 0, 65, 70
1, 236270, Note_on_c, 0, 59, 85
1, 236286, Note_off_c, 0, 68, 64
1, 236368, Note_off_c, 0, 59, 64
1, 236376, Note_on_c, 0, 68, 61
1, 236382, Note_off_c, 0, 65, 64
1, 236412, Note_off_c, 0, 71, 64
1, 236512, Note_on_c, 0, 73, 82
1, 236512, Note_on_c, 0, 61, 76
1, 236515, Note_off_c, 0, 68, 64
1, 236532, Note_on_c, 0, 65, 74
1, 236580, Note_off_c, 0, 65, 64
1, 236624, Note_on_c, 0, 68, 71
1, 236640, Note_off_c, 0, 61, 64
1, 236668, Note_off_c, 0, 68, 64
1, 236686, Note_off_c, 0, 73, 64
1, 236852, Control_c, 0, 64, 0
1, 236862, Note_on_c, 0, 83, 110
1, 236866, Note_on_c, 0, 76, 85
1, 236870, Note_on_c, 0, 66, 76
1, 237022, Note_on_c, 0, 71, 81
1, 237036, Control_c, 0, 64, 127
1, 237040, Note_on_c, 0, 69, 57
1, 237042, Note_off_c, 0, 83, 64
1, 237060, Note_off_c, 0, 66, 64
1, 237076, Note_off_c, 0, 76, 64
1, 237132, Note_off_c, 0, 69, 64
1, 237154, Note_on_c, 0, 66, 48
1, 237156, Note_on_c, 0, 76, 55
1, 237158, Note_off_c, 0, 71, 64
1, 237158, Note_on_c, 0, 83, 88
1, 237282, Note_off_c, 0, 66, 64
1, 237282, Note_on_c, 0, 69, 53
1, 237296, Note_off_c, 0, 76, 64
1, 237302, Note_off_c, 0, 83, 64
1, 237302, Note_on_c, 0, 71, 78
1, 237376, Note_off_c, 0, 69, 64
1, 237376, Note_off_c, 0, 71, 64
1, 237416, Note_on_c, 0, 66, 38
1, 237416, Note_on_c, 0, 83, 75
1, 237438, Note_on_c, 0, 76, 55
1, 237498, Note_off_c, 0, 76, 64
1, 237518, Note_off_c, 0, 66, 64
1, 237530, Note_on_c, 0, 69, 54
1, 237542, Note_off_c, 0, 83, 64
1, 237548, Note_on_c, 0, 71, 84
1, 237630, Note_off_c, 0, 71, 64
1, 237634, Note_off_c, 0, 69, 64
1, 237660, Note_on_c, 0, 66, 69
1, 237674, Note_on_c, 0, 59, 79
1, 237676, Note_on_c, 0, 83, 95
1, 237680, Note_on_c, 0, 76, 72
1, 237730, Note_off_c, 0, 59, 64
1, 237780, Note_off_c, 0, 66, 64
1, 237780, Note_on_c, 0, 69, 73
1, 237783, Note_on_c, 0, 71, 91
1, 237792, Note_off_c, 0, 83, 64
1, 237818, Note_off_c, 0, 76, 64
1, 237894, Note_off_c, 0, 71, 64
1, 237897, Note_off_c, 0, 69, 64
1, 237910, Note_on_c, 0, 76, 67
1, 237912, Note_on_c, 0, 83, 94
1, 237920, Note_on_c, 0, 66, 69
1, 237922, Note_on_c, 0, 59, 63
1, 238022, Note_off_c, 0, 66, 64
1, 238028, Note_on_c, 0, 71, 97
1, 238036, Note_on_c, 0, 69, 68
1, 238050, Note_off_c, 0, 83, 64
1, 238050, Note_off_c, 0, 59, 64
1, 238058, Note_off_c, 0, 76, 64
1, 238138, Note_off_c, 0, 71, 64
1, 238162, Note_on_c, 0, 83, 95
1, 238162, Note_on_c, 0, 76, 60
1, 238168, Note_on_c, 0, 66, 70
1, 238170, Note_off_c, 0, 69, 64
1, 238172, Note_on_c, 0, 59, 58
1, 238278, Note_off_c, 0, 66, 64
1, 238286, Note_on_c, 0, 71, 95
1, 238308, Note_on_c, 0, 69, 72
1, 238314, Note_off_c, 0, 83, 64
1, 238326, Note_off_c, 0, 76, 64
1, 238374, Control_c, 0, 64, 0
1, 238430, Note_on_c, 0, 75, 86
1, 238430, Note_on_c, 0, 83, 106
1, 238440, Note_off_c, 0, 71, 64
1, 238442, Note_off_c, 0, 69, 64
1, 238448, Note_on_c, 0, 66, 81
1, 238558, Control_c, 0, 64, 127
1, 238570, Note_on_c, 0, 71, 99
1, 238580, Note_on_c, 0, 69, 76
1, 238590, Note_off_c, 0, 66, 64
1, 238608, Note_off_c, 0, 83, 64
1, 238614, Note_off_c, 0, 75, 64
1, 238700, Note_off_c, 0, 69, 64
1, 238700, Note_on_c, 0, 75, 67
1, 238706, Note_off_c, 0, 71, 64
1, 238708, Note_on_c, 0, 66, 70
1, 238710, Note_on_c, 0, 83, 95
1, 238822, Note_off_c, 0, 66, 64
1, 238832, Note_on_c, 0, 69, 73
1, 238852, Note_on_c, 0, 71, 100
1, 238874, Note_off_c, 0, 83, 64
1, 238890, Note_off_c, 0, 75, 64
1, 238902, Note_off_c, 0, 59, 64
1, 238962, Note_off_c, 0, 69, 64
1, 238976, Note_on_c, 0, 66, 60
1, 238982, Note_off_c, 0, 71, 64
1, 238986, Note_on_c, 0, 75, 69
1, 238992, Note_on_c, 0, 83, 97
1, 239110, Note_off_c, 0, 66, 64
1, 239115, Note_on_c, 0, 69, 69
1, 239122, Note_on_c, 0, 71, 100
1, 239138, Note_off_c, 0, 83, 64
1, 239162, Note_off_c, 0, 75, 64
1, 239250, Note_off_c, 0, 69, 64
1, 239264, Note_off_c, 0, 71, 64
1, 239267, Note_on_c, 0, 66, 83
1, 239270, Note_on_c, 0, 75, 80
1, 239278, Note_on_c, 0, 83, 111
1, 239284, Note_on_c, 0, 59, 76
1, 239396, Note_off_c, 0, 66, 64
1, 239430, Note_on_c, 0, 71, 103
1, 239432, Note_off_c, 0, 75, 64
1, 239434, Note_off_c, 0, 59, 64
1, 239434, Note_on_c, 0, 69, 72
1, 239440, Note_off_c, 0, 83, 64
1, 239562, Note_off_c, 0, 71, 64
1, 239580, Note_on_c, 0, 75, 86
1, 239583, Note_on_c, 0, 83, 107
1, 239592, Note_on_c, 0, 66, 83
1, 239600, Note_off_c, 0, 69, 64
1, 239604, Note_on_c, 0, 59, 77
1, 239746, Note_off_c, 0, 66, 64
1, 239756, Note_off_c, 0, 59, 64
1, 239760, Note_off_c, 0, 83, 64
1, 239760, Note_on_c, 0, 71, 103
1, 239764, Note_on_c, 0, 69, 84
1, 239772, Note_off_c, 0, 75, 64
1, 239920, Note_off_c, 0, 69, 64
1, 239932, Note_off_c, 0, 71, 64
1, 239970, Note_on_c, 0, 83, 110
1, 239976, Note_on_c, 0, 75, 80
1, 239998, Note_on_c, 0, 59, 68
1, 240001, Note_on_c, 0, 66, 70
1, 240190, Note_off_c, 0, 83, 64
1, 240202, Note_off_c, 0, 59, 64
1, 240240, Note_off_c, 0, 66, 64
1, 240282, Note_on_c, 0, 69, 93
1, 240285, Note_on_c, 0, 71, 95
1, 240416, Note_off_c, 0, 69, 64
1, 240422, Note_off_c, 0, 71, 64
1, 240516, Note_off_c, 0, 75, 64
1, 240778, Note_on_c, 0, 64, 106
1, 240986, Note_on_c, 0, 71, 68
1, 240986, Note_on_c, 0, 80, 59
1, 240992, Note_on_c, 0, 76, 55
1, 240994, Note_on_c, 0, 83, 78
1, 241110, Note_off_c, 0, 76, 64
1, 241136, Note_off_c, 0, 71, 64
1, 241140, Note_off_c, 0, 80, 64
1, 241148, Note_off_c, 0, 83, 64
1, 241158, Note_on_c, 0, 66, 91
1, 241214, Control_c, 0, 64, 0
1, 241230, Note_off_c, 0, 64, 64
1, 241340, Note_on_c, 0, 81, 71
1, 241342, Note_on_c, 0, 71, 78
1, 241344, Note_on_c, 0, 83, 94
1, 241347, Note_on_c, 0, 76, 57
1, 241428, Control_c, 0, 64, 127
1, 241468, Note_off_c, 0, 66, 64
1, 241484, Note_off_c, 0, 71, 64
1, 241498, Note_off_c, 0, 81, 64
1, 241500, Note_off_c, 0, 83, 64
1, 241508, Note_on_c, 0, 59, 96
1, 241514, Note_off_c, 0, 76, 64
1, 241600, Note_off_c, 0, 59, 64
1, 241666, Note_on_c, 0, 71, 84
1, 241666, Note_on_c, 0, 61, 95
1, 241670, Note_on_c, 0, 83, 92
1, 241676, Note_on_c, 0, 81, 59
1, 241676, Note_on_c, 0, 76, 53
1, 241754, Note_off_c, 0, 81, 64
1, 241760, Note_off_c, 0, 76, 64
1, 241768, Note_off_c, 0, 71, 64
1, 241788, Note_off_c, 0, 61, 64
1, 241800, Note_off_c, 0, 83, 64
1, 241850, Note_on_c, 0, 64, 110
1, 241906, Control_c, 0, 64, 0
1, 242042, Note_on_c, 0, 71, 69
1, 242052, Note_on_c, 0, 80, 57
1, 242054, Note_on_c, 0, 76, 55
1, 242060, Note_on_c, 0, 83, 84
1, 242096, Note_off_c, 0, 71, 64
1, 242136, Control_c, 0, 64, 127
1, 242138, Note_off_c, 0, 64, 64
1, 242184, Note_off_c, 0, 76, 64
1, 242206, Note_off_c, 0, 80, 64
1, 242206, Note_off_c, 0, 83, 64
1, 242234, Note_on_c, 0, 71, 108
1, 242304, Control_c, 0, 64, 0
1, 242400, Note_on_c, 0, 80, 62
1, 242406, Note_on_c, 0, 83, 94
1, 242412, Note_on_c, 0, 76, 53
1, 242436, Note_off_c, 0, 71, 64
1, 242458, Control_c, 0, 64, 127
1, 242480, Note_off_c, 0, 83, 64
1, 242520, Note_off_c, 0, 76, 64
1, 242532, Note_off_c, 0, 80, 64
1, 242566, Note_on_c, 0, 66, 92
1, 242674, Control_c, 0, 64, 0
1, 242752, Note_on_c, 0, 71, 77
1, 242760, Note_on_c, 0, 81, 60
1, 242760, Note_on_c, 0, 83, 90
1, 242762, Note_on_c, 0, 76, 55
1, 242890, Note_off_c, 0, 71, 64
1, 242890, Control_c, 0, 64, 127
1, 242912, Note_off_c, 0, 81, 64
1, 242924, Note_off_c, 0, 83, 64
1, 242934, Note_off_c, 0, 76, 64
1, 242972, Note_off_c, 0, 66, 64
1, 243084, Note_on_c, 0, 71, 79
1, 243084, Note_on_c, 0, 64, 91
1, 243087, Note_on_c, 0, 76, 50
1, 243087, Note_on_c, 0, 83, 87
1, 243087, Note_on_c, 0, 80, 56
1, 243140, Note_off_c, 0, 71, 64
1, 243154, Note_off_c, 0, 83, 64
1, 243158, Note_off_c, 0, 80, 64
1, 243168, Note_off_c, 0, 76, 64
1, 243194, Note_off_c, 0, 64, 64
1, 243252, Note_on_c, 0, 66, 84
1, 243348, Note_off_c, 0, 66, 64
1, 243414, Note_on_c, 0, 59, 103
1, 243458, Control_c, 0, 64, 0
1, 243540, Note_on_c, 0, 71, 72
1, 243580, Note_on_c, 0, 76, 62
1, 243594, Note_on_c, 0, 80, 65
1, 243610, Note_on_c, 0, 83, 91
1, 243616, Note_off_c, 0, 71, 64
1, 243626, Control_c, 0, 64, 127
1, 243644, Note_off_c, 0, 76, 64
1, 243666, Note_off_c, 0, 59, 64
1, 243692, Note_off_c, 0, 83, 64
1, 243728, Note_off_c, 0, 80, 64
1, 243746, Note_on_c, 0, 61, 95
1, 243850, Note_off_c, 0, 61, 64
1, 243928, Note_on_c, 0, 66, 96
1, 244056, Control_c, 0, 64, 0
1, 244098, Note_on_c, 0, 76, 58
1, 244104, Note_on_c, 0, 83, 79
1, 244120, Note_on_c, 0, 81, 42
1, 244166, Note_off_c, 0, 76, 64
1, 244218, Note_off_c, 0, 83, 64
1, 244236, Note_off_c, 0, 81, 64
1, 244258, Note_on_c, 0, 71, 77
1, 244302, Control_c, 0, 64, 127
1, 244322, Note_off_c, 0, 71, 64
1, 244422, Note_on_c, 0, 83, 94
1, 244425, Note_on_c, 0, 81, 63
1, 244430, Note_on_c, 0, 75, 61
1, 244478, Note_off_c, 0, 81, 64
1, 244478, Note_off_c, 0, 75, 64
1, 244484, Note_off_c, 0, 83, 64
1, 244596, Note_on_c, 0, 71, 76
1, 244662, Note_off_c, 0, 71, 64
1, 244696, Note_off_c, 0, 66, 64
1, 244768, Note_on_c, 0, 75, 64
1, 244774, Note_on_c, 0, 83, 84
1, 244774, Note_on_c, 0, 81, 48
1, 244850, Note_off_c, 0, 75, 64
1, 244850, Note_off_c, 0, 81, 64
1, 244886, Note_off_c, 0, 83, 64
1, 244944, Note_on_c, 0, 68, 97
1, 245086, Control_c, 0, 64, 0
1, 245128, Note_on_c, 0, 71, 71
1, 245162, Note_on_c, 0, 75, 58
1, 245170, Note_on_c, 0, 80, 55
1, 245172, Note_on_c, 0, 83, 96
1, 245290, Note_off_c, 0, 71, 64
1, 245302, Control_c, 0, 64, 127
1, 245318, Note_off_c, 0, 83, 64
1, 245348, Note_off_c, 0, 80, 64
1, 245348, Note_on_c, 0, 66, 87
1, 245364, Note_off_c, 0, 75, 64
1, 245392, Note_off_c, 0, 68, 64
1, 245520, Note_on_c, 0, 71, 73
1, 245530, Note_on_c, 0, 75, 61
1, 245534, Note_on_c, 0, 80, 73
1, 245566, Note_off_c, 0, 71, 64
1, 245576, Note_off_c, 0, 75, 64
1, 245578, Note_off_c, 0, 80, 64
1, 245604, Note_off_c, 0, 66, 64
1, 245700, Note_on_c, 0, 64, 91
1, 245808, Note_off_c, 0, 64, 64
1, 245844, Note_on_c, 0, 63, 95
1, 245858, Note_on_c, 0, 68, 54
1, 245860, Note_on_c, 0, 75, 55
1, 245864, Note_on_c, 0, 71, 61
1, 245914, Note_off_c, 0, 71, 64
1, 245920, Note_off_c, 0, 75, 64
1, 245934, Note_off_c, 0, 63, 64
1, 245934, Note_off_c, 0, 68, 64
1, 246016, Note_on_c, 0, 61, 98
1, 246022, Control_c, 0, 64, 0
1, 246146, Note_on_c, 0, 64, 59
1, 246178, Note_on_c, 0, 68, 48
1, 246186, Note_on_c, 0, 73, 53
1, 246214, Note_on_c, 0, 76, 51
1, 246254, Control_c, 0, 64, 127
1, 246264, Note_off_c, 0, 64, 64
1, 246276, Note_off_c, 0, 61, 64
1, 246296, Note_off_c, 0, 68, 64
1, 246324, Note_off_c, 0, 76, 64
1, 246334, Note_off_c, 0, 73, 64
1, 246372, Note_on_c, 0, 59, 91
1, 246552, Note_on_c, 0, 64, 63
1, 246552, Note_on_c, 0, 73, 65
1, 246555, Note_on_c, 0, 68, 55
1, 246602, Note_off_c, 0, 73, 64
1, 246612, Note_off_c, 0, 64, 64
1, 246612, Note_off_c, 0, 68, 64
1, 246674, Note_off_c, 0, 59, 64
1, 246702, Note_on_c, 0, 57, 80
1, 246814, Note_off_c, 0, 57, 64
1, 246838, Note_on_c, 0, 56, 84
1, 246850, Note_on_c, 0, 68, 54
1, 246860, Note_on_c, 0, 64, 55
1, 246866, Note_on_c, 0, 61, 45
1, 246918, Note_off_c, 0, 64, 64
1, 246922, Note_off_c, 0, 68, 64
1, 246934, Note_off_c, 0, 61, 64
1, 246944, Note_off_c, 0, 56, 64
1, 247028, Note_on_c, 0, 55, 100
1, 247222, Control_c, 0, 64, 0
1, 247242, Note_on_c, 0, 62, 61
1, 247246, Note_on_c, 0, 71, 64
1, 247254, Note_on_c, 0, 67, 46
1, 247354, Note_off_c, 0, 62, 64
1, 247396, Note_off_c, 0, 71, 64
1, 247398, Note_off_c, 0, 67, 64
1, 247412, Note_on_c, 0, 59, 78
1, 247483, Control_c, 0, 64, 127
1, 247546, Note_off_c, 0, 59, 64
1, 247576, Note_on_c, 0, 71, 73
1, 247584, Note_on_c, 0, 62, 66
1, 247586, Note_on_c, 0, 67, 52
1, 247660, Note_off_c, 0, 62, 64
1, 247663, Note_off_c, 0, 67, 64
1, 247694, Note_off_c, 0, 71, 64
1, 247758, Note_on_c, 0, 59, 70
1, 247844, Note_off_c, 0, 59, 64
1, 247894, Note_on_c, 0, 71, 76
1, 247904, Note_on_c, 0, 67, 59
1, 247904, Note_on_c, 0, 62, 63
1, 247912, Note_off_c, 0, 55, 64
1, 247948, Note_off_c, 0, 71, 64
1, 247960, Note_off_c, 0, 62, 64
1, 247964, Note_off_c, 0, 67, 64
1, 248048, Note_on_c, 0, 47, 94
1, 248066, Control_c, 0, 64, 0
1, 248068, Note_on_c, 0, 59, 65
1, 248156, Note_off_c, 0, 59, 64
1, 248222, Note_on_c, 0, 67, 74
1, 248226, Note_on_c, 0, 57, 66
1, 248236, Note_on_c, 0, 63, 48
1, 248296, Control_c, 0, 64, 127
1, 248320, Note_off_c, 0, 67, 64
1, 248322, Note_off_c, 0, 63, 64
1, 248326, Note_off_c, 0, 57, 64
1, 248380, Note_on_c, 0, 59, 77
1, 248536, Note_off_c, 0, 59, 64
1, 248554, Note_on_c, 0, 67, 74
1, 248560, Note_on_c, 0, 57, 66
1, 248562, Note_on_c, 0, 63, 65
1, 248670, Note_off_c, 0, 67, 64
1, 248672, Note_off_c, 0, 57, 64
1, 248714, Note_off_c, 0, 63, 64
1, 248746, Note_on_c, 0, 59, 75
1, 248788, Note_off_c, 0, 59, 64
1, 248842, Note_off_c, 0, 47, 64
1, 248914, Note_on_c, 0, 57, 63
1, 248914, Note_on_c, 0, 67, 59
1, 248920, Note_on_c, 0, 63, 62
1, 248988, Note_off_c, 0, 57, 64
1, 249010, Note_off_c, 0, 67, 64
1, 249046, Note_off_c, 0, 63, 64
1, 249168, Note_on_c, 0, 40, 104
1, 249170, Note_on_c, 0, 52, 99
1, 249250, Control_c, 0, 64, 0
1, 249346, Note_on_c, 0, 59, 67
1, 249350, Note_on_c, 0, 68, 55
1, 249354, Note_on_c, 0, 71, 66
1, 249358, Note_on_c, 0, 64, 60
1, 249376, Note_off_c, 0, 40, 64
1, 249388, Control_c, 0, 64, 127
1, 249400, Note_off_c, 0, 52, 64
1, 249462, Note_off_c, 0, 59, 64
1, 249474, Note_off_c, 0, 64, 64
1, 249486, Note_off_c, 0, 71, 64
1, 249498, Note_off_c, 0, 68, 64
1, 249542, Control_c, 0, 64, 0
1, 249552, Note_on_c, 0, 54, 100
1, 249560, Note_on_c, 0, 42, 84
1, 249684, Note_off_c, 0, 54, 64
1, 249710, Control_c, 0, 64, 127
1, 249712, Note_off_c, 0, 42, 64
1, 249740, Note_on_c, 0, 69, 51
1, 249746, Note_on_c, 0, 59, 71
1, 249752, Note_on_c, 0, 71, 69
1, 249760, Note_on_c, 0, 64, 57
1, 249876, Note_off_c, 0, 59, 64
1, 249878, Note_off_c, 0, 71, 64
1, 249886, Note_off_c, 0, 64, 64
1, 249906, Note_off_c, 0, 69, 64
1, 249922, Note_on_c, 0, 47, 85
1, 249925, Note_on_c, 0, 35, 94
1, 249962, Note_off_c, 0, 35, 64
1, 249968, Note_off_c, 0, 47, 64
1, 250078, Note_on_c, 0, 69, 47
1, 250088, Note_on_c, 0, 71, 73
1, 250091, Note_on_c, 0, 49, 90
1, 250091, Note_on_c, 0, 59, 65
1, 250094, Note_on_c, 0, 37, 84
1, 250106, Note_on_c, 0, 64, 47
1, 250140, Note_off_c, 0, 37, 64
1, 250166, Note_off_c, 0, 49, 64
1, 250170, Note_off_c, 0, 59, 64
1, 250174, Note_off_c, 0, 64, 64
1, 250204, Note_off_c, 0, 69, 64
1, 250244, Note_off_c, 0, 71, 64
1, 250247, Control_c, 0, 64, 0
1, 250260, Note_on_c, 0, 52, 108
1, 250263, Note_on_c, 0, 40, 109
1, 250438, Note_off_c, 0, 40, 64
1, 250446, Note_on_c, 0, 59, 76
1, 250448, Note_on_c, 0, 71, 75
1, 250452, Note_on_c, 0, 68, 57
1, 250458, Note_on_c, 0, 64, 63
1, 250464, Control_c, 0, 64, 127
1, 250474, Note_off_c, 0, 52, 64
1, 250504, Note_off_c, 0, 59, 64
1, 250522, Note_off_c, 0, 64, 64
1, 250586, Note_off_c, 0, 71, 64
1, 250586, Control_c, 0, 64, 0
1, 250600, Note_off_c, 0, 68, 64
1, 250608, Note_on_c, 0, 59, 97
1, 250614, Note_on_c, 0, 47, 94
1, 250784, Note_on_c, 0, 71, 75
1, 250784, Note_on_c, 0, 68, 58
1, 250787, Control_c, 0, 64, 127
1, 250790, Note_off_c, 0, 59, 64
1, 250793, Note_on_c, 0, 64, 72
1, 250836, Note_off_c, 0, 47, 64
1, 250858, Note_off_c, 0, 64, 64
1, 250908, Note_off_c, 0, 71, 64
1, 250920, Note_off_c, 0, 68, 64
1, 250948, Note_on_c, 0, 54, 101
1, 250958, Note_on_c, 0, 42, 83
1, 250986, Control_c, 0, 64, 0
1, 251124, Note_on_c, 0, 69, 63
1, 251124, Note_on_c, 0, 59, 81
1, 251132, Note_on_c, 0, 71, 83
1, 251136, Note_on_c, 0, 64, 75
1, 251248, Note_off_c, 0, 59, 64
1, 251248, Control_c, 0, 64, 127
1, 251280, Note_off_c, 0, 69, 64
1, 251286, Note_off_c, 0, 54, 64
1, 251289, Note_off_c, 0, 64, 64
1, 251310, Note_off_c, 0, 71, 64
1, 251358, Note_off_c, 0, 42, 64
1, 251470, Note_on_c, 0, 40, 99
1, 251474, Note_on_c, 0, 52, 89
1, 251474, Note_on_c, 0, 71, 72
1, 251478, Note_on_c, 0, 59, 62
1, 251478, Note_on_c, 0, 68, 55
1, 251488, Note_on_c, 0, 64, 52
1, 251502, Note_off_c, 0, 40, 64
1, 251508, Note_off_c, 0, 52, 64
1, 251560, Note_off_c, 0, 64, 64
1, 251576, Note_off_c, 0, 59, 64
1, 251612, Note_off_c, 0, 71, 64
1, 251612, Note_on_c, 0, 54, 89
1, 251624, Note_off_c, 0, 68, 64
1, 251624, Note_on_c, 0, 42, 83
1, 251646, Note_off_c, 0, 54, 64
1, 251672, Note_off_c, 0, 42, 64
1, 251798, Note_on_c, 0, 47, 94
1, 251800, Note_on_c, 0, 35, 94
1, 251816, Control_c, 0, 64, 0
1, 251946, Note_off_c, 0, 47, 64
1, 251948, Note_off_c, 0, 35, 64
1, 251962, Note_on_c, 0, 71, 63
1, 251962, Note_on_c, 0, 59, 58
1, 251974, Note_on_c, 0, 64, 51
1, 251974, Note_on_c, 0, 68, 44
1, 252016, Control_c, 0, 64, 127
1, 252094, Note_off_c, 0, 64, 64
1, 252104, Note_off_c, 0, 59, 64
1, 252110, Note_on_c, 0, 49, 95
1, 252112, Note_off_c, 0, 71, 64
1, 252112, Note_off_c, 0, 68, 64
1, 252126, Note_on_c, 0, 37, 65
1, 252166, Note_off_c, 0, 37, 64
1, 252210, Note_off_c, 0, 49, 64
1, 252302, Note_on_c, 0, 44, 92
1, 252414, Note_on_c, 0, 56, 92
1, 252430, Control_c, 0, 64, 0
1, 252678, Note_on_c, 0, 59, 67
1, 252678, Note_on_c, 0, 68, 58
1, 252684, Note_on_c, 0, 63, 63
1, 252689, Note_off_c, 0, 44, 64
1, 252706, Control_c, 0, 64, 127
1, 252748, Note_off_c, 0, 59, 64
1, 252753, Note_off_c, 0, 56, 64
1, 252770, Note_off_c, 0, 63, 64
1, 252810, Note_off_c, 0, 68, 64
1, 252882, Note_on_c, 0, 59, 89
1, 252992, Note_off_c, 0, 59, 64
1, 253036, Note_on_c, 0, 63, 76
1, 253048, Note_on_c, 0, 71, 79
1, 253048, Note_on_c, 0, 68, 54
1, 253086, Note_off_c, 0, 63, 64
1, 253106, Note_off_c, 0, 68, 64
1, 253160, Note_off_c, 0, 71, 64
1, 253200, Note_on_c, 0, 63, 83
1, 253242, Note_off_c, 0, 63, 64
1, 253348, Note_on_c, 0, 71, 84
1, 253356, Note_on_c, 0, 68, 56
1, 253408, Note_off_c, 0, 68, 64
1, 253430, Note_off_c, 0, 71, 64
1, 253544, Note_on_c, 0, 75, 68
1, 253552, Note_on_c, 0, 72, 54
1, 253556, Note_on_c, 0, 68, 59
1, 253566, Control_c, 0, 64, 0
1, 253772, Note_on_c, 0, 63, 40
1, 253850, Note_off_c, 0, 63, 64
1, 253900, Control_c, 0, 64, 127
1, 253912, Note_off_c, 0, 68, 64
1, 253932, Note_on_c, 0, 67, 47
1, 253932, Note_on_c, 0, 71, 50
1, 253954, Note_off_c, 0, 72, 64
1, 254078, Note_off_c, 0, 67, 64
1, 254106, Control_c, 0, 64, 0
1, 254109, Note_on_c, 0, 63, 43
1, 254230, Note_off_c, 0, 71, 64
1, 254232, Note_off_c, 0, 63, 64
1, 254238, Note_on_c, 0, 66, 40
1, 254244, Control_c, 0, 64, 127
1, 254244, Note_on_c, 0, 70, 43
1, 254318, Note_off_c, 0, 66, 64
1, 254336, Note_off_c, 0, 70, 64
1, 254406, Note_on_c, 0, 67, 59
1, 254412, Note_on_c, 0, 63, 43
1, 254414, Note_on_c, 0, 71, 50
1, 254436, Note_off_c, 0, 75, 64
1, 254476, Note_off_c, 0, 63, 64
1, 254568, Note_off_c, 0, 67, 64
1, 254576, Note_on_c, 0, 68, 51
1, 254582, Control_c, 0, 64, 0
1, 254582, Note_on_c, 0, 75, 77
1, 254598, Note_on_c, 0, 72, 53
1, 254601, Note_off_c, 0, 71, 64
1, 254760, Note_on_c, 0, 63, 42
1, 254826, Control_c, 0, 64, 127
1, 254846, Note_off_c, 0, 63, 64
1, 254904, Note_off_c, 0, 68, 64
1, 254914, Note_on_c, 0, 67, 49
1, 254920, Note_on_c, 0, 71, 57
1, 254950, Note_off_c, 0, 72, 64
1, 254950, Control_c, 0, 64, 0
1, 255092, Note_off_c, 0, 67, 64
1, 255106, Note_on_c, 0, 63, 37
1, 255134, Control_c, 0, 64, 127
1, 255190, Note_off_c, 0, 63, 64
1, 255214, Note_off_c, 0, 71, 64
1, 255220, Note_on_c, 0, 66, 35
1, 255222, Note_on_c, 0, 70, 42
1, 255312, Note_off_c, 0, 70, 64
1, 255322, Note_off_c, 0, 66, 64
1, 255368, Note_on_c, 0, 67, 41
1, 255378, Note_on_c, 0, 71, 60
1, 255388, Note_on_c, 0, 63, 38
1, 255402, Note_off_c, 0, 75, 64
1, 255450, Note_off_c, 0, 63, 64
1, 255472, Control_c, 0, 64, 0
1, 255506, Note_off_c, 0, 67, 64
1, 255536, Note_on_c, 0, 68, 58
1, 255536, Note_on_c, 0, 75, 72
1, 255538, Note_off_c, 0, 71, 64
1, 255554, Note_on_c, 0, 72, 47
1, 255624, Note_off_c, 0, 72, 64
1, 255640, Control_c, 0, 64, 127
1, 255662, Note_off_c, 0, 68, 64
1, 255704, Note_off_c, 0, 75, 64
1, 255730, Note_on_c, 0, 63, 37
1, 255812, Note_off_c, 0, 63, 64
1, 255888, Note_on_c, 0, 77, 80
1, 255891, Note_on_c, 0, 72, 51
1, 255900, Note_on_c, 0, 75, 44
1, 255958, Note_off_c, 0, 75, 64
1, 256054, Note_off_c, 0, 72, 64
1, 256076, Note_on_c, 0, 63, 41
1, 256168, Note_off_c, 0, 63, 64
1, 256228, Note_on_c, 0, 80, 71
1, 256244, Note_on_c, 0, 71, 53
1, 256246, Note_off_c, 0, 77, 64
1, 256266, Note_on_c, 0, 74, 40
1, 256318, Control_c, 0, 64, 0
1, 256352, Note_off_c, 0, 71, 64
1, 256394, Note_on_c, 0, 63, 42
1, 256410, Control_c, 0, 64, 127
1, 256418, Note_off_c, 0, 74, 64
1, 256469, Note_off_c, 0, 63, 64
1, 256478, Note_off_c, 0, 80, 64
1, 256566, Note_on_c, 0, 79, 71
1, 256570, Note_on_c, 0, 70, 45
1, 256580, Note_on_c, 0, 73, 37
1, 256610, Control_c, 0, 64, 0
1, 256658, Note_off_c, 0, 73, 64
1, 256712, Note_off_c, 0, 70, 64
1, 256732, Note_on_c, 0, 63, 33
1, 256778, Control_c, 0, 64, 127
1, 256832, Note_off_c, 0, 63, 64
1, 256920, Note_on_c, 0, 77, 50
1, 256926, Note_off_c, 0, 79, 64
1, 256929, Note_on_c, 0, 68, 23
1, 256929, Note_on_c, 0, 73, 26
1, 256978, Control_c, 0, 64, 0
1, 257012, Note_off_c, 0, 73, 64
1, 257104, Note_on_c, 0, 63, 28
1, 257132, Note_off_c, 0, 68, 64
1, 257132, Control_c, 0, 64, 127
1, 257220, Note_off_c, 0, 63, 64
1, 257270, Control_c, 0, 64, 0
1, 257278, Note_off_c, 0, 77, 64
1, 257278, Note_on_c, 0, 79, 54
1, 257290, Note_on_c, 0, 67, 31
1, 257292, Note_on_c, 0, 73, 34
1, 257394, Control_c, 0, 64, 127
1, 257397, Note_off_c, 0, 73, 64
1, 257408, Note_off_c, 0, 79, 64
1, 257476, Note_on_c, 0, 63, 35
1, 257534, Note_off_c, 0, 63, 64
1, 257610, Note_on_c, 0, 75, 64
1, 257620, Note_on_c, 0, 68, 46
1, 257622, Note_on_c, 0, 72, 49
1, 257656, Note_off_c, 0, 67, 64
1, 257746, Control_c, 0, 64, 0
1, 257768, Note_on_c, 0, 63, 38
1, 257876, Note_off_c, 0, 63, 64
1, 257900, Control_c, 0, 64, 127
1, 257946, Note_off_c, 0, 68, 64
1, 257948, Note_on_c, 0, 71, 55
1, 257958, Note_on_c, 0, 67, 34
1, 257962, Control_c, 0, 64, 0
1, 257974, Note_off_c, 0, 72, 64
1, 258097, Note_off_c, 0, 67, 64
1, 258126, Note_on_c, 0, 63, 38
1, 258162, Control_c, 0, 64, 127
1, 258212, Note_off_c, 0, 63, 64
1, 258232, Note_off_c, 0, 71, 64
1, 258268, Note_on_c, 0, 66, 28
1, 258276, Note_on_c, 0, 70, 28
1, 258354, Note_off_c, 0, 66, 64
1, 258364, Note_off_c, 0, 70, 64
1, 258392, Control_c, 0, 64, 0
1, 258412, Note_on_c, 0, 63, 25
1, 258424, Note_on_c, 0, 71, 50
1, 258424, Note_on_c, 0, 67, 43
1, 258432, Note_off_c, 0, 75, 64
1, 258474, Note_off_c, 0, 63, 64
1, 258484, Control_c, 0, 64, 127
1, 258548, Note_off_c, 0, 67, 64
1, 258558, Note_off_c, 0, 71, 64
1, 258561, Control_c, 0, 64, 0
1, 258588, Note_on_c, 0, 75, 65
1, 258600, Note_on_c, 0, 72, 53
1, 258606, Note_on_c, 0, 68, 38
1, 258754, Note_on_c, 0, 63, 42
1, 258760, Control_c, 0, 64, 127
1, 258840, Note_off_c, 0, 63, 64
1, 258856, Note_off_c, 0, 68, 64
1, 258868, Control_c, 0, 64, 0
1, 258944, Note_on_c, 0, 67, 41
1, 258952, Note_on_c, 0, 71, 45
1, 258964, Note_off_c, 0, 72, 64
1, 259098, Note_off_c, 0, 67, 64
1, 259120, Note_on_c, 0, 63, 43
1, 259144, Control_c, 0, 64, 127
1, 259194, Note_off_c, 0, 63, 64
1, 259266, Note_off_c, 0, 71, 64
1, 259268, Note_on_c, 0, 66, 30
1, 259284, Note_on_c, 0, 70, 29
1, 259344, Control_c, 0, 64, 0
1, 259360, Note_off_c, 0, 70, 64
1, 259390, Note_off_c, 0, 66, 64
1, 259438, Note_on_c, 0, 67, 34
1, 259442, Note_on_c, 0, 71, 51
1, 259450, Note_on_c, 0, 63, 36
1, 259462, Note_off_c, 0, 75, 64
1, 259518, Note_off_c, 0, 63, 64
1, 259524, Note_off_c, 0, 71, 64
1, 259560, Control_c, 0, 64, 127
1, 259584, Note_off_c, 0, 67, 64
1, 259606, Control_c, 0, 64, 0
1, 259609, Note_on_c, 0, 75, 70
1, 259624, Note_on_c, 0, 68, 40
1, 259627, Note_on_c, 0, 72, 46
1, 259720, Note_off_c, 0, 72, 64
1, 259762, Note_off_c, 0, 68, 64
1, 259790, Note_on_c, 0, 63, 34
1, 259790, Control_c, 0, 64, 127
1, 259798, Note_off_c, 0, 75, 64
1, 259866, Note_off_c, 0, 63, 64
1, 259960, Note_on_c, 0, 75, 2
1, 259968, Note_on_c, 0, 72, 52
1, 259968, Note_on_c, 0, 77, 74
1, 260050, Control_c, 0, 64, 0
1, 260130, Note_on_c, 0, 63, 40
1, 260144, Note_off_c, 0, 75, 64
1, 260154, Note_off_c, 0, 72, 64
1, 260190, Control_c, 0, 64, 127
1, 260206, Note_off_c, 0, 63, 64
1, 260284, Note_on_c, 0, 80, 67
1, 260298, Control_c, 0, 64, 0
1, 260301, Note_off_c, 0, 77, 64
1, 260312, Note_on_c, 0, 71, 49
1, 260318, Note_on_c, 0, 74, 40
1, 260420, Note_off_c, 0, 71, 64
1, 260448, Note_off_c, 0, 74, 64
1, 260451, Control_c, 0, 64, 127
1, 260466, Note_on_c, 0, 63, 46
1, 260506, Note_off_c, 0, 80, 64
1, 260528, Note_off_c, 0, 63, 64
1, 260562, Note_on_c, 0, 70, 20
1, 260586, Note_on_c, 0, 79, 77
1, 260592, Note_on_c, 0, 73, 50
1, 260650, Control_c, 0, 64, 0
1, 260708, Note_off_c, 0, 73, 64
1, 260750, Note_off_c, 0, 70, 64
1, 260784, Note_on_c, 0, 63, 50
1, 260804, Control_c, 0, 64, 127
1, 260844, Note_off_c, 0, 63, 64
1, 260914, Note_on_c, 0, 70, 43
1, 260924, Note_on_c, 0, 77, 67
1, 260938, Note_on_c, 0, 73, 30
1, 260952, Note_off_c, 0, 79, 64
1, 260958, Control_c, 0, 64, 0
1, 261044, Note_off_c, 0, 73, 64
1, 261068, Note_on_c, 0, 68, 47
1, 261080, Note_off_c, 0, 70, 64
1, 261142, Control_c, 0, 64, 127
1, 261162, Note_off_c, 0, 68, 64
1, 261256, Note_on_c, 0, 73, 36
1, 261256, Note_on_c, 0, 70, 24
1, 261258, Note_on_c, 0, 75, 48
1, 261264, Note_off_c, 0, 77, 64
1, 261264, Control_c, 0, 64, 0
1, 261322, Note_off_c, 0, 75, 64
1, 261342, Note_off_c, 0, 73, 64
1, 261414, Note_on_c, 0, 67, 27
1, 261418, Note_off_c, 0, 70, 64
1, 261418, Control_c, 0, 64, 127
1, 261484, Note_off_c, 0, 67, 64
1, 261600, Note_on_c, 0, 78, 45
1, 261602, Control_c, 0, 64, 0
1, 261606, Note_on_c, 0, 75, 39
1, 261624, Note_on_c, 0, 71, 44
1, 261782, Note_off_c, 0, 71, 64
1, 261798, Note_on_c, 0, 66, 22
1, 261834, Control_c, 0, 64, 127
1, 261912, Note_off_c, 0, 66, 64
1, 261996, Note_on_c, 0, 70, 19
1, 261999, Note_on_c, 0, 74, 34
1, 262003, Note_off_c, 0, 75, 64
1, 262018, Control_c, 0, 64, 0
1, 262160, Note_on_c, 0, 66, 17
1, 262188, Control_c, 0, 64, 127
1, 262236, Note_off_c, 0, 70, 64
1, 262262, Note_off_c, 0, 66, 64
1, 262284, Note_off_c, 0, 74, 64
1, 262316, Note_on_c, 0, 73, 44
1, 262318, Note_on_c, 0, 69, 35
1, 262372, Note_off_c, 0, 73, 64
1, 262372, Control_c, 0, 64, 0
1, 262390, Note_off_c, 0, 69, 64
1, 262458, Note_on_c, 0, 66, 26
1, 262472, Note_on_c, 0, 70, 41
1, 262478, Control_c, 0, 64, 127
1, 262480, Note_on_c, 0, 74, 43
1, 262506, Note_off_c, 0, 78, 64
1, 262522, Note_off_c, 0, 66, 64
1, 262540, Note_off_c, 0, 70, 64
1, 262636, Note_on_c, 0, 78, 60
1, 262639, Note_on_c, 0, 75, 51
1, 262648, Control_c, 0, 64, 0
1, 262650, Note_off_c, 0, 74, 64
1, 262656, Note_on_c, 0, 71, 55
1, 262806, Note_off_c, 0, 71, 64
1, 262820, Note_on_c, 0, 66, 27
1, 262848, Control_c, 0, 64, 127
1, 262910, Note_off_c, 0, 66, 64
1, 262986, Note_on_c, 0, 70, 26
1, 263000, Note_on_c, 0, 74, 42
1, 263018, Control_c, 0, 64, 0
1, 263032, Note_off_c, 0, 75, 64
1, 263174, Note_on_c, 0, 66, 19
1, 263186, Control_c, 0, 64, 127
1, 263242, Note_off_c, 0, 70, 64
1, 263270, Note_off_c, 0, 66, 64
1, 263288, Note_off_c, 0, 74, 64
1, 263302, Note_on_c, 0, 69, 39
1, 263306, Note_on_c, 0, 73, 45
1, 263366, Note_off_c, 0, 69, 64
1, 263369, Note_off_c, 0, 73, 64
1, 263458, Note_on_c, 0, 74, 60
1, 263458, Note_on_c, 0, 66, 29
1, 263464, Note_on_c, 0, 70, 32
1, 263480, Note_off_c, 0, 78, 64
1, 263526, Note_off_c, 0, 66, 64
1, 263546, Note_off_c, 0, 70, 64
1, 263600, Control_c, 0, 64, 0
1, 263602, Note_on_c, 0, 78, 70
1, 263614, Note_on_c, 0, 71, 68
1, 263616, Note_on_c, 0, 75, 57
1, 263622, Note_off_c, 0, 74, 64
1, 263782, Note_on_c, 0, 66, 39
1, 263792, Note_off_c, 0, 75, 64
1, 263800, Control_c, 0, 64, 127
1, 263856, Note_off_c, 0, 78, 64
1, 263856, Note_off_c, 0, 66, 64
1, 263936, Note_on_c, 0, 80, 79
1, 263936, Note_on_c, 0, 78, 45
1, 263948, Note_on_c, 0, 75, 50
1, 264000, Control_c, 0, 64, 0
1, 264022, Note_off_c, 0, 71, 64
1, 264116, Note_on_c, 0, 66, 28
1, 264122, Note_off_c, 0, 75, 64
1, 264138, Control_c, 0, 64, 127
1, 264194, Note_off_c, 0, 66, 64
1, 264272, Note_off_c, 0, 78, 64
1, 264272, Note_on_c, 0, 83, 102
1, 264290, Note_on_c, 0, 74, 55
1, 264292, Control_c, 0, 64, 0
1, 264308, Note_on_c, 0, 77, 44
1, 264332, Note_off_c, 0, 80, 64
1, 264412, Note_off_c, 0, 77, 64
1, 264420, Control_c, 0, 64, 127
1, 264432, Note_off_c, 0, 74, 64
1, 264440, Note_on_c, 0, 66, 26
1, 264484, Note_off_c, 0, 83, 64
1, 264556, Note_off_c, 0, 66, 64
1, 264604, Note_on_c, 0, 82, 73
1, 264612, Note_on_c, 0, 73, 47
1, 264620, Note_on_c, 0, 76, 41
1, 264708, Control_c, 0, 64, 0
1, 264760, Note_off_c, 0, 76, 64
1, 264798, Note_on_c, 0, 66, 21
1, 264854, Note_off_c, 0, 73, 64
1, 264860, Control_c, 0, 64, 127
1, 264916, Note_off_c, 0, 66, 64
1, 264952, Note_on_c, 0, 80, 58
1, 264966, Note_on_c, 0, 76, 28
1, 264976, Note_on_c, 0, 71, 30
1, 264996, Note_off_c, 0, 82, 64
1, 264998, Control_c, 0, 64, 0
1, 265116, Note_off_c, 0, 71, 64
1, 265138, Note_on_c, 0, 66, 25
1, 265152, Control_c, 0, 64, 127
1, 265162, Note_off_c, 0, 76, 64
1, 265238, Note_off_c, 0, 66, 64
1, 265290, Note_on_c, 0, 70, 36
1, 265294, Note_on_c, 0, 82, 44
1, 265322, Note_off_c, 0, 80, 64
1, 265322, Control_c, 0, 64, 0
1, 265328, Note_on_c, 0, 76, 27
1, 265412, Note_off_c, 0, 76, 64
1, 265428, Control_c, 0, 64, 127
1, 265446, Note_off_c, 0, 82, 64
1, 265452, Note_off_c, 0, 70, 64
1, 265472, Note_on_c, 0, 66, 19
1, 265558, Note_off_c, 0, 66, 64
1, 265610, Note_on_c, 0, 78, 65
1, 265620, Note_on_c, 0, 75, 51
1, 265630, Note_on_c, 0, 71, 51
1, 265644, Control_c, 0, 64, 0
1, 265784, Note_off_c, 0, 71, 64
1, 265787, Note_on_c, 0, 66, 17
1, 265798, Control_c, 0, 64, 127
1, 265898, Note_off_c, 0, 66, 64
1, 265964, Note_on_c, 0, 70, 32
1, 265964, Note_on_c, 0, 74, 46
1, 265984, Note_off_c, 0, 75, 64
1, 266012, Control_c, 0, 64, 0
1, 266134, Note_on_c, 0, 66, 20
1, 266196, Control_c, 0, 64, 127
1, 266204, Note_off_c, 0, 70, 64
1, 266242, Note_off_c, 0, 66, 64
1, 266262, Note_off_c, 0, 74, 64
1, 266274, Note_on_c, 0, 69, 44
1, 266288, Note_on_c, 0, 73, 39
1, 266332, Note_off_c, 0, 69, 64
1, 266352, Note_off_c, 0, 73, 64
1, 266432, Note_on_c, 0, 66, 21
1, 266435, Note_on_c, 0, 70, 40
1, 266438, Note_on_c, 0, 74, 50
1, 266464, Note_off_c, 0, 78, 64
1, 266502, Note_off_c, 0, 66, 64
1, 266528, Note_off_c, 0, 70, 64
1, 266582, Control_c, 0, 64, 0
1, 266582, Note_on_c, 0, 78, 42
1, 266585, Note_on_c, 0, 75, 54
1, 266596, Note_on_c, 0, 71, 54
1, 266612, Note_off_c, 0, 74, 64
1, 266754, Note_on_c, 0, 66, 22
1, 266782, Note_off_c, 0, 71, 64
1, 266782, Control_c, 0, 64, 127
1, 266866, Note_off_c, 0, 66, 64
1, 266952, Note_on_c, 0, 70, 22
1, 266968, Note_on_c, 0, 74, 44
1, 266980, Control_c, 0, 64, 0
1, 266994, Note_off_c, 0, 75, 64
1, 267114, Note_on_c, 0, 66, 20
1, 267166, Control_c, 0, 64, 127
1, 267206, Note_off_c, 0, 70, 64
1, 267242, Note_off_c, 0, 66, 64
1, 267266, Note_on_c, 0, 73, 48
1, 267274, Note_on_c, 0, 69, 34
1, 267277, Note_off_c, 0, 74, 64
1, 267338, Note_off_c, 0, 73, 64
1, 267340, Note_off_c, 0, 69, 64
1, 267428, Note_on_c, 0, 66, 18
1, 267440, Note_on_c, 0, 70, 34
1, 267448, Note_off_c, 0, 78, 64
1, 267454, Note_on_c, 0, 74, 56
1, 267516, Note_off_c, 0, 66, 64
1, 267546, Note_off_c, 0, 70, 64
1, 267546, Note_off_c, 0, 74, 64
1, 267566, Note_on_c, 0, 71, 47
1, 267586, Note_on_c, 0, 78, 53
1, 267596, Note_on_c, 0, 75, 50
1, 267626, Control_c, 0, 64, 0
1, 267770, Note_on_c, 0, 66, 19
1, 267782, Note_off_c, 0, 75, 64
1, 267810, Control_c, 0, 64, 127
1, 267820, Note_off_c, 0, 78, 64
1, 267860, Note_off_c, 0, 66, 64
1, 267894, Note_on_c, 0, 78, 50
1, 267897, Note_on_c, 0, 80, 73
1, 267900, Note_on_c, 0, 75, 47
1, 267970, Note_off_c, 0, 71, 64
1, 268058, Note_on_c, 0, 66, 30
1, 268062, Note_off_c, 0, 75, 64
1, 268150, Note_off_c, 0, 66, 64
1, 268210, Note_off_c, 0, 78, 64
1, 268240, Note_on_c, 0, 83, 102
1, 268250, Note_on_c, 0, 77, 60
1, 268252, Note_on_c, 0, 74, 63
1, 268274, Note_off_c, 0, 80, 64
1, 268286, Control_c, 0, 64, 0
1, 268380, Note_on_c, 0, 66, 33
1, 268390, Note_off_c, 0, 74, 64
1, 268393, Control_c, 0, 64, 127
1, 268396, Note_off_c, 0, 77, 64
1, 268436, Note_off_c, 0, 83, 64
1, 268484, Note_off_c, 0, 66, 64
1, 268560, Note_on_c, 0, 82, 65
1, 268564, Note_on_c, 0, 73, 46
1, 268572, Note_on_c, 0, 76, 43
1, 268624, Control_c, 0, 64, 0
1, 268686, Note_off_c, 0, 76, 64
1, 268724, Note_on_c, 0, 66, 32
1, 268732, Note_off_c, 0, 73, 64
1, 268764, Control_c, 0, 64, 127
1, 268840, Note_off_c, 0, 66, 64
1, 268884, Note_off_c, 0, 82, 64
1, 268884, Note_on_c, 0, 80, 55
1, 268898, Note_on_c, 0, 71, 44
1, 268914, Note_on_c, 0, 76, 27
1, 268916, Control_c, 0, 64, 0
1, 269000, Note_off_c, 0, 71, 64
1, 269002, Note_off_c, 0, 76, 64
1, 269054, Note_on_c, 0, 66, 25
1, 269056, Control_c, 0, 64, 127
1, 269144, Note_off_c, 0, 66, 64
1, 269192, Note_on_c, 0, 70, 34
1, 269195, Note_off_c, 0, 80, 64
1, 269195, Note_on_c, 0, 78, 50
1, 269220, Note_on_c, 0, 76, 21
1, 269286, Note_off_c, 0, 70, 64
1, 269296, Note_off_c, 0, 76, 64
1, 269316, Note_on_c, 0, 66, 20
1, 269352, Note_off_c, 0, 78, 64
1, 269362, Control_c, 0, 64, 0
1, 269390, Note_off_c, 0, 66, 64
1, 269466, Note_on_c, 0, 78, 44
1, 269482, Note_on_c, 0, 75, 44
1, 269484, Note_on_c, 0, 83, 61
1, 269492, Note_on_c, 0, 63, 41
1, 269504, Note_on_c, 0, 66, 14
1, 269504, Note_on_c, 0, 59, 34
1, 269532, Control_c, 0, 64, 127
1, 269538, Note_off_c, 0, 75, 64
1, 269546, Note_off_c, 0, 78, 64
1, 269549, Note_off_c, 0, 83, 64
1, 269549, Note_off_c, 0, 63, 64
1, 269560, Note_off_c, 0, 59, 64
1, 269586, Note_off_c, 0, 66, 64
1, 269594, Control_c, 0, 64, 0
1, 269632, Note_on_c, 0, 71, 57
1, 269704, Note_off_c, 0, 71, 64
1, 269784, Note_on_c, 0, 83, 76
1, 269784, Note_on_c, 0, 66, 33
1, 269790, Note_on_c, 0, 75, 43
1, 269792, Note_on_c, 0, 78, 41
1, 269794, Note_on_c, 0, 59, 36
1, 269850, Note_off_c, 0, 75, 64
1, 269850, Note_off_c, 0, 59, 64
1, 269856, Note_off_c, 0, 66, 64
1, 269856, Note_off_c, 0, 78, 64
1, 269882, Note_off_c, 0, 83, 64
1, 269928, Note_on_c, 0, 71, 61
1, 269980, Note_off_c, 0, 71, 64
1, 270068, Note_on_c, 0, 69, 53
1, 270080, Note_on_c, 0, 81, 49
1, 270082, Note_on_c, 0, 61, 50
1, 270082, Note_on_c, 0, 85, 68
1, 270084, Note_on_c, 0, 64, 54
1, 270086, Note_on_c, 0, 76, 48
1, 270086, Note_on_c, 0, 57, 30
1, 270122, Note_off_c, 0, 69, 64
1, 270134, Note_off_c, 0, 61, 64
1, 270134, Note_off_c, 0, 64, 64
1, 270144, Note_off_c, 0, 76, 64
1, 270146, Note_off_c, 0, 81, 64
1, 270154, Note_off_c, 0, 57, 64
1, 270194, Note_on_c, 0, 73, 75
1, 270204, Note_off_c, 0, 85, 64
1, 270212, Note_on_c, 0, 69, 40
1, 270215, Note_on_c, 0, 57, 62
1, 270222, Note_on_c, 0, 64, 51
1, 270228, Note_on_c, 0, 61, 42
1, 270246, Note_off_c, 0, 73, 64
1, 270262, Note_off_c, 0, 57, 64
1, 270268, Note_off_c, 0, 69, 64
1, 270270, Note_off_c, 0, 64, 64
1, 270280, Note_off_c, 0, 61, 64
1, 270364, Note_on_c, 0, 68, 86
1, 270370, Note_on_c, 0, 87, 77
1, 270376, Note_on_c, 0, 83, 91
1, 270378, Note_on_c, 0, 56, 60
1, 270378, Note_on_c, 0, 59, 68
1, 270382, Note_on_c, 0, 63, 70
1, 270386, Note_on_c, 0, 80, 58
1, 270422, Note_off_c, 0, 83, 64
1, 270425, Note_off_c, 0, 68, 64
1, 270425, Note_off_c, 0, 56, 64
1, 270432, Note_off_c, 0, 63, 64
1, 270434, Note_off_c, 0, 59, 64
1, 270438, Note_off_c, 0, 80, 64
1, 270504, Note_off_c, 0, 87, 64
1, 270507, Note_on_c, 0, 75, 75
1, 270507, Note_on_c, 0, 56, 48
1, 270512, Note_on_c, 0, 68, 61
1, 270514, Note_on_c, 0, 59, 57
1, 270528, Note_on_c, 0, 63, 53
1, 270576, Note_off_c, 0, 56, 64
1, 270578, Note_off_c, 0, 75, 64
1, 270580, Note_off_c, 0, 63, 64
1, 270594, Note_off_c, 0, 59, 64
1, 270600, Note_off_c, 0, 68, 64
1, 270664, Note_on_c, 0, 87, 62
1, 270674, Note_on_c, 0, 83, 75
1, 270680, Note_on_c, 0, 68, 68
1, 270680, Note_on_c, 0, 80, 54
1, 270690, Note_on_c, 0, 63, 57
1, 270693, Note_on_c, 0, 59, 50
1, 270693, Note_on_c, 0, 56, 49
1, 270712, Note_off_c, 0, 83, 64
1, 270744, Note_off_c, 0, 80, 64
1, 270744, Note_off_c, 0, 59, 64
1, 270744, Note_off_c, 0, 56, 64
1, 270747, Note_off_c, 0, 63, 64
1, 270776, Note_off_c, 0, 87, 64
1, 270798, Note_off_c, 0, 68, 64
1, 270798, Note_on_c, 0, 75, 55
1, 270850, Note_off_c, 0, 75, 64
1, 270982, Note_on_c, 0, 85, 69
1, 270982, Note_on_c, 0, 69, 60
1, 270985, Note_on_c, 0, 81, 54
1, 270990, Note_on_c, 0, 61, 51
1, 270996, Note_on_c, 0, 76, 48
1, 270999, Note_on_c, 0, 57, 45
1, 271012, Note_on_c, 0, 64, 44
1, 271048, Note_off_c, 0, 69, 64
1, 271058, Note_off_c, 0, 81, 64
1, 271064, Note_off_c, 0, 57, 64
1, 271066, Note_off_c, 0, 64, 64
1, 271068, Note_off_c, 0, 76, 64
1, 271110, Note_off_c, 0, 85, 64
1, 271110, Note_off_c, 0, 61, 64
1, 271112, Note_on_c, 0, 73, 62
1, 271174, Note_off_c, 0, 73, 64
1, 271260, Note_on_c, 0, 66, 57
1, 271276, Note_on_c, 0, 83, 97
1, 271276, Note_on_c, 0, 78, 65
1, 271279, Note_on_c, 0, 63, 55
1, 271282, Note_on_c, 0, 59, 50
1, 271286, Note_on_c, 0, 75, 55
1, 271316, Note_off_c, 0, 66, 64
1, 271330, Note_off_c, 0, 63, 64
1, 271332, Note_off_c, 0, 59, 64
1, 271334, Note_off_c, 0, 75, 64
1, 271340, Note_off_c, 0, 83, 64
1, 271340, Note_off_c, 0, 78, 64
1, 271402, Note_on_c, 0, 63, 71
1, 271408, Note_on_c, 0, 66, 42
1, 271410, Note_on_c, 0, 59, 56
1, 271422, Note_on_c, 0, 71, 75
1, 271458, Note_off_c, 0, 66, 64
1, 271460, Note_off_c, 0, 59, 64
1, 271470, Note_off_c, 0, 71, 64
1, 271472, Note_off_c, 0, 63, 64
1, 271544, Note_on_c, 0, 59, 59
1, 271552, Note_on_c, 0, 83, 109
1, 271554, Note_on_c, 0, 66, 42
1, 271562, Note_on_c, 0, 75, 72
1, 271562, Note_on_c, 0, 78, 66
1, 271568, Note_on_c, 0, 63, 50
1, 271610, Note_off_c, 0, 75, 64
1, 271610, Note_off_c, 0, 78, 64
1, 271613, Note_off_c, 0, 63, 64
1, 271636, Note_off_c, 0, 59, 64
1, 271646, Note_off_c, 0, 83, 64
1, 271674, Note_on_c, 0, 71, 81
1, 271676, Note_off_c, 0, 66, 64
1, 271718, Note_off_c, 0, 71, 64
1, 271832, Note_on_c, 0, 69, 58
1, 271838, Note_on_c, 0, 61, 78
1, 271858, Note_on_c, 0, 81, 66
1, 271866, Note_on_c, 0, 85, 75
1, 271866, Note_on_c, 0, 76, 57
1, 271869, Note_on_c, 0, 57, 48
1, 271880, Note_off_c, 0, 61, 64
1, 271882, Note_off_c, 0, 69, 64
1, 271916, Note_off_c, 0, 81, 64
1, 271919, Note_off_c, 0, 76, 64
1, 271919, Note_off_c, 0, 57, 64
1, 271952, Note_off_c, 0, 85, 64
1, 271958, Note_on_c, 0, 73, 54
1, 272012, Note_off_c, 0, 73, 64
1, 272170, Note_on_c, 0, 86, 63
1, 272173, Note_on_c, 0, 83, 70
1, 272173, Note_on_c, 0, 38, 67
1, 272173, Note_on_c, 0, 79, 63
1, 272176, Note_on_c, 0, 43, 60
1, 272184, Note_on_c, 0, 31, 63
1, 272238, Note_off_c, 0, 83, 64
1, 272290, Note_off_c, 0, 79, 64
1, 272292, Note_off_c, 0, 31, 64
1, 272294, Note_off_c, 0, 86, 64
1, 272296, Control_c, 0, 64, 127
1, 272298, Note_off_c, 0, 38, 64
1, 272312, Note_on_c, 0, 74, 57
1, 272328, Note_off_c, 0, 43, 64
1, 272360, Note_off_c, 0, 74, 64
1, 272490, Note_on_c, 0, 79, 59
1, 272490, Note_on_c, 0, 83, 67
1, 272504, Note_on_c, 0, 74, 48
1, 272572, Note_off_c, 0, 83, 64
1, 272606, Note_off_c, 0, 79, 64
1, 272616, Note_off_c, 0, 74, 64
1, 272622, Note_on_c, 0, 50, 50
1, 272660, Note_on_c, 0, 55, 52
1, 272680, Control_c, 0, 64, 0
1, 272714, Note_on_c, 0, 59, 54
1, 272750, Note_on_c, 0, 71, 73
1, 272752, Note_off_c, 0, 50, 64
1, 272754, Note_off_c, 0, 55, 64
1, 272756, Note_on_c, 0, 79, 69
1, 272758, Note_on_c, 0, 62, 56
1, 272778, Note_on_c, 0, 74, 45
1, 272792, Note_off_c, 0, 59, 64
1, 272818, Note_off_c, 0, 62, 64
1, 272838, Note_off_c, 0, 74, 64
1, 272850, Control_c, 0, 64, 127
1, 272868, Note_off_c, 0, 79, 64
1, 272878, Note_off_c, 0, 71, 64
1, 272880, Note_on_c, 0, 67, 69
1, 272926, Note_off_c, 0, 67, 64
1, 272958, Control_c, 0, 64, 0
1, 273044, Note_on_c, 0, 66, 48
1, 273046, Note_on_c, 0, 83, 89
1, 273048, Note_on_c, 0, 78, 57
1, 273060, Note_on_c, 0, 75, 47
1, 273066, Note_on_c, 0, 63, 46
1, 273076, Note_on_c, 0, 59, 34
1, 273140, Note_off_c, 0, 63, 64
1, 273168, Note_off_c, 0, 59, 64
1, 273178, Note_off_c, 0, 66, 64
1, 273186, Note_off_c, 0, 83, 64
1, 273186, Note_off_c, 0, 75, 64
1, 273204, Control_c, 0, 64, 127
1, 273206, Note_on_c, 0, 71, 65
1, 273214, Note_off_c, 0, 78, 64
1, 273264, Note_off_c, 0, 71, 64
1, 273280, Control_c, 0, 64, 0
1, 273356, Note_on_c, 0, 66, 54
1, 273356, Note_on_c, 0, 83, 89
1, 273364, Note_on_c, 0, 78, 50
1, 273370, Note_on_c, 0, 63, 50
1, 273375, Note_on_c, 0, 75, 41
1, 273378, Note_on_c, 0, 59, 45
1, 273420, Note_off_c, 0, 63, 64
1, 273430, Note_off_c, 0, 66, 64
1, 273434, Note_off_c, 0, 59, 64
1, 273442, Note_off_c, 0, 75, 64
1, 273448, Note_off_c, 0, 78, 64
1, 273484, Note_off_c, 0, 83, 64
1, 273500, Note_on_c, 0, 71, 72
1, 273542, Note_off_c, 0, 71, 64
1, 273634, Note_on_c, 0, 57, 65
1, 273638, Note_on_c, 0, 69, 59
1, 273646, Note_on_c, 0, 61, 58
1, 273646, Note_on_c, 0, 85, 76
1, 273649, Note_on_c, 0, 81, 57
1, 273658, Note_on_c, 0, 76, 47
1, 273672, Note_on_c, 0, 64, 37
1, 273686, Note_off_c, 0, 57, 64
1, 273690, Note_off_c, 0, 69, 64
1, 273690, Note_off_c, 0, 61, 64
1, 273726, Note_off_c, 0, 76, 64
1, 273726, Note_off_c, 0, 64, 64
1, 273774, Note_on_c, 0, 73, 73
1, 273777, Note_on_c, 0, 57, 54
1, 273777, Note_on_c, 0, 69, 44
1, 273780, Note_on_c, 0, 61, 42
1, 273782, Note_off_c, 0, 81, 64
1, 273787, Note_off_c, 0, 85, 64
1, 273792, Note_on_c, 0, 64, 70
1, 273824, Note_off_c, 0, 73, 64
1, 273826, Note_off_c, 0, 57, 64
1, 273828, Note_off_c, 0, 69, 64
1, 273832, Note_off_c, 0, 64, 64
1, 273834, Note_off_c, 0, 61, 64
1, 273926, Note_on_c, 0, 87, 77
1, 273929, Note_on_c, 0, 68, 73
1, 273932, Note_on_c, 0, 56, 56
1, 273934, Note_on_c, 0, 59, 73
1, 273934, Note_on_c, 0, 83, 100
1, 273946, Note_on_c, 0, 63, 58
1, 273950, Note_on_c, 0, 80, 63
1, 273978, Note_off_c, 0, 68, 64
1, 273981, Note_off_c, 0, 56, 64
1, 273981, Note_off_c, 0, 59, 64
1, 273990, Note_off_c, 0, 63, 64
1, 274064, Note_on_c, 0, 56, 43
1, 274066, Note_off_c, 0, 83, 64
1, 274066, Note_on_c, 0, 75, 70
1, 274066, Note_on_c, 0, 68, 48
1, 274070, Note_off_c, 0, 87, 64
1, 274070, Note_on_c, 0, 59, 52
1, 274070, Note_on_c, 0, 63, 48
1, 274084, Note_off_c, 0, 80, 64
1, 274126, Note_off_c, 0, 56, 64
1, 274130, Note_off_c, 0, 59, 64
1, 274132, Note_off_c, 0, 63, 64
1, 274138, Note_off_c, 0, 75, 64
1, 274138, Note_off_c, 0, 68, 64
1, 274218, Note_on_c, 0, 87, 61
1, 274220, Note_on_c, 0, 83, 89
1, 274222, Note_on_c, 0, 68, 47
1, 274224, Note_on_c, 0, 56, 39
1, 274228, Note_on_c, 0, 59, 41
1, 274230, Note_on_c, 0, 63, 47
1, 274234, Note_on_c, 0, 80, 49
1, 274270, Note_off_c, 0, 83, 64
1, 274300, Note_off_c, 0, 63, 64
1, 274304, Note_off_c, 0, 59, 64
1, 274320, Note_off_c, 0, 56, 64
1, 274332, Note_off_c, 0, 68, 64
1, 274340, Note_off_c, 0, 87, 64
1, 274348, Note_off_c, 0, 80, 64
1, 274360, Note_on_c, 0, 75, 50
1, 274409, Note_off_c, 0, 75, 64
1, 274512, Note_on_c, 0, 85, 65
1, 274520, Note_on_c, 0, 69, 49
1, 274528, Note_on_c, 0, 61, 44
1, 274542, Note_on_c, 0, 64, 42
1, 274544, Note_on_c, 0, 76, 39
1, 274554, Note_on_c, 0, 57, 16
1, 274568, Note_on_c, 0, 81, 41
1, 274584, Note_off_c, 0, 69, 64
1, 274598, Note_off_c, 0, 61, 64
1, 274604, Note_off_c, 0, 64, 64
1, 274640, Note_off_c, 0, 76, 64
1, 274644, Note_on_c, 0, 73, 54
1, 274650, Note_off_c, 0, 85, 64
1, 274652, Note_off_c, 0, 81, 64
1, 274658, Note_off_c, 0, 57, 64
1, 274712, Note_off_c, 0, 73, 64
1, 274804, Note_on_c, 0, 66, 52
1, 274818, Note_on_c, 0, 63, 56
1, 274824, Note_on_c, 0, 59, 47
1, 274824, Note_on_c, 0, 83, 90
1, 274836, Note_on_c, 0, 78, 50
1, 274842, Note_on_c, 0, 75, 45
1, 274860, Note_off_c, 0, 66, 64
1, 274870, Note_off_c, 0, 63, 64
1, 274874, Note_off_c, 0, 59, 64
1, 274896, Note_off_c, 0, 83, 64
1, 274896, Note_off_c, 0, 78, 64
1, 274898, Note_off_c, 0, 75, 64
1, 274944, Note_on_c, 0, 59, 66
1, 274946, Note_on_c, 0, 66, 40
1, 274948, Note_on_c, 0, 63, 56
1, 274954, Note_on_c, 0, 71, 70
1, 274996, Note_off_c, 0, 59, 64
1, 274998, Note_off_c, 0, 63, 64
1, 275000, Note_off_c, 0, 66, 64
1, 275004, Note_off_c, 0, 71, 64
1, 275076, Note_on_c, 0, 66, 53
1, 275084, Note_on_c, 0, 83, 93
1, 275086, Note_on_c, 0, 63, 51
1, 275092, Note_on_c, 0, 59, 41
1, 275104, Note_on_c, 0, 78, 49
1, 275107, Note_on_c, 0, 75, 43
1, 275150, Note_off_c, 0, 59, 64
1, 275156, Note_off_c, 0, 63, 64
1, 275168, Note_off_c, 0, 66, 64
1, 275174, Note_off_c, 0, 75, 64
1, 275188, Note_off_c, 0, 78, 64
1, 275198, Note_off_c, 0, 83, 64
1, 275218, Note_on_c, 0, 71, 79
1, 275260, Note_off_c, 0, 71, 64
1, 275374, Note_on_c, 0, 69, 57
1, 275388, Note_on_c, 0, 61, 60
1, 275388, Note_on_c, 0, 81, 48
1, 275388, Note_on_c, 0, 85, 70
1, 275400, Note_on_c, 0, 57, 35
1, 275402, Note_on_c, 0, 76, 48
1, 275426, Note_off_c, 0, 69, 64
1, 275432, Note_off_c, 0, 61, 64
1, 275450, Note_off_c, 0, 57, 64
1, 275453, Note_off_c, 0, 81, 64
1, 275456, Note_off_c, 0, 76, 64
1, 275490, Note_on_c, 0, 73, 52
1, 275500, Note_off_c, 0, 85, 64
1, 275534, Note_off_c, 0, 73, 64
1, 275700, Note_on_c, 0, 31, 78
1, 275706, Note_on_c, 0, 38, 78
1, 275706, Note_on_c, 0, 86, 60
1, 275712, Note_on_c, 0, 79, 55
1, 275716, Note_on_c, 0, 83, 64
1, 275746, Note_off_c, 0, 38, 64
1, 275762, Note_off_c, 0, 31, 64
1, 275782, Note_off_c, 0, 83, 64
1, 275786, Control_c, 0, 64, 127
1, 275832, Note_off_c, 0, 86, 64
1, 275848, Note_off_c, 0, 79, 64
1, 275848, Note_on_c, 0, 74, 54
1, 275898, Note_off_c, 0, 74, 64
1, 275970, Control_c, 0, 64, 0
1, 275990, Note_on_c, 0, 62, 79
1, 275998, Note_on_c, 0, 83, 87
1, 275998, Note_on_c, 0, 79, 65
1, 276018, Note_on_c, 0, 74, 36
1, 276032, Note_off_c, 0, 62, 64
1, 276092, Note_off_c, 0, 83, 64
1, 276126, Note_off_c, 0, 79, 64
1, 276126, Note_off_c, 0, 74, 64
1, 276126, Note_on_c, 0, 64, 76
1, 276138, Note_on_c, 0, 71, 66
1, 276166, Note_off_c, 0, 64, 64
1, 276184, Note_off_c, 0, 71, 64
1, 276268, Note_on_c, 0, 71, 54
1, 276268, Note_on_c, 0, 79, 76
1, 276280, Note_on_c, 0, 62, 76
1, 276286, Note_on_c, 0, 74, 46
1, 276338, Note_off_c, 0, 74, 64
1, 276348, Note_off_c, 0, 71, 64
1, 276372, Note_off_c, 0, 79, 64
1, 276372, Note_off_c, 0, 62, 64
1, 276402, Note_on_c, 0, 67, 51
1, 276446, Control_c, 0, 64, 127
1, 276458, Note_off_c, 0, 67, 64
1, 276492, Control_c, 0, 64, 0
1, 276574, Note_on_c, 0, 86, 55
1, 276574, Note_on_c, 0, 59, 58
1, 276582, Note_on_c, 0, 83, 54
1, 276584, Note_on_c, 0, 79, 61
1, 276626, Note_off_c, 0, 59, 64
1, 276644, Note_off_c, 0, 79, 64
1, 276656, Note_off_c, 0, 86, 64
1, 276662, Note_off_c, 0, 83, 64
1, 276692, Note_on_c, 0, 61, 72
1, 276698, Note_on_c, 0, 74, 59
1, 276742, Note_off_c, 0, 61, 64
1, 276756, Note_off_c, 0, 74, 64
1, 276862, Note_on_c, 0, 74, 38
1, 276862, Note_on_c, 0, 62, 72
1, 276870, Note_on_c, 0, 83, 36
1, 276910, Note_on_c, 0, 79, 12
1, 276946, Note_off_c, 0, 83, 64
1, 276972, Note_off_c, 0, 62, 64
1, 276976, Note_on_c, 0, 71, 71
1, 276982, Note_off_c, 0, 79, 64
1, 276994, Note_off_c, 0, 74, 64
1, 277000, Control_c, 0, 64, 127
1, 277030, Note_off_c, 0, 71, 64
1, 277092, Control_c, 0, 64, 0
1, 277138, Note_on_c, 0, 79, 52
1, 277138, Note_on_c, 0, 64, 66
1, 277162, Note_on_c, 0, 71, 40
1, 277184, Note_off_c, 0, 64, 64
1, 277200, Note_off_c, 0, 79, 64
1, 277222, Note_off_c, 0, 71, 64
1, 277260, Note_on_c, 0, 67, 65
1, 277276, Note_on_c, 0, 66, 70
1, 277308, Note_off_c, 0, 67, 64
1, 277318, Note_off_c, 0, 66, 64
1, 277422, Note_on_c, 0, 64, 88
1, 277422, Note_on_c, 0, 86, 83
1, 277430, Note_on_c, 0, 83, 92
1, 277434, Note_on_c, 0, 79, 74
1, 277464, Note_off_c, 0, 64, 64
1, 277482, Note_off_c, 0, 79, 64
1, 277490, Note_off_c, 0, 86, 64
1, 277490, Note_off_c, 0, 83, 64
1, 277558, Note_on_c, 0, 74, 71
1, 277561, Note_on_c, 0, 66, 76
1, 277602, Note_off_c, 0, 74, 64
1, 277605, Note_off_c, 0, 66, 64
1, 277706, Note_on_c, 0, 79, 71
1, 277706, Note_on_c, 0, 83, 89
1, 277709, Note_on_c, 0, 64, 89
1, 277744, Note_on_c, 0, 74, 30
1, 277822, Note_off_c, 0, 83, 64
1, 277836, Note_on_c, 0, 71, 78
1, 277840, Note_off_c, 0, 64, 64
1, 277842, Note_off_c, 0, 79, 64
1, 277872, Note_off_c, 0, 74, 64
1, 277890, Note_off_c, 0, 71, 64
1, 277984, Note_on_c, 0, 79, 73
1, 277994, Note_on_c, 0, 59, 58
1, 277994, Note_on_c, 0, 71, 46
1, 277997, Note_on_c, 0, 74, 31
1, 278048, Note_off_c, 0, 59, 64
1, 278056, Note_off_c, 0, 74, 64
1, 278066, Note_off_c, 0, 71, 64
1, 278096, Note_off_c, 0, 79, 64
1, 278118, Note_on_c, 0, 67, 75
1, 278138, Note_on_c, 0, 62, 40
1, 278166, Note_off_c, 0, 67, 64
1, 278202, Note_off_c, 0, 62, 64
1, 278270, Note_on_c, 0, 64, 95
1, 278272, Note_on_c, 0, 71, 78
1, 278274, Note_on_c, 0, 79, 83
1, 278276, Note_on_c, 0, 61, 84
1, 278278, Note_on_c, 0, 59, 80
1, 278280, Note_on_c, 0, 76, 60
1, 278350, Control_c, 0, 64, 127
1, 278390, Note_off_c, 0, 79, 64
1, 278398, Note_on_c, 0, 67, 70
1, 278406, Note_off_c, 0, 71, 64
1, 278428, Note_off_c, 0, 76, 64
1, 278446, Note_off_c, 0, 67, 64
1, 278449, Note_off_c, 0, 61, 64
1, 278478, Note_off_c, 0, 59, 64
1, 278486, Note_off_c, 0, 64, 64
1, 278552, Note_on_c, 0, 83, 110
1, 278564, Note_on_c, 0, 79, 74
1, 278568, Note_on_c, 0, 76, 72
1, 278612, Note_off_c, 0, 76, 64
1, 278632, Note_off_c, 0, 79, 64
1, 278660, Note_off_c, 0, 83, 64
1, 278684, Note_on_c, 0, 71, 69
1, 278730, Note_off_c, 0, 71, 64
1, 278848, Note_on_c, 0, 88, 86
1, 278864, Note_on_c, 0, 83, 79
1, 278868, Note_on_c, 0, 79, 53
1, 278936, Note_off_c, 0, 83, 64
1, 278950, Note_off_c, 0, 79, 64
1, 278980, Note_off_c, 0, 88, 64
1, 278992, Note_on_c, 0, 76, 48
1, 279044, Note_off_c, 0, 76, 64
1, 279104, Control_c, 0, 64, 0
1, 279150, Note_on_c, 0, 31, 68
1, 279154, Note_on_c, 0, 79, 69
1, 279154, Note_on_c, 0, 43, 62
1, 279154, Note_on_c, 0, 86, 63
1, 279156, Note_on_c, 0, 38, 63
1, 279162, Note_on_c, 0, 83, 67
1, 279194, Note_off_c, 0, 31, 64
1, 279202, Note_off_c, 0, 38, 64
1, 279210, Note_off_c, 0, 43, 64
1, 279270, Note_off_c, 0, 79, 64
1, 279270, Note_on_c, 0, 74, 68
1, 279273, Note_off_c, 0, 86, 64
1, 279273, Control_c, 0, 64, 127
1, 279292, Note_off_c, 0, 83, 64
1, 279320, Note_off_c, 0, 74, 64
1, 279434, Note_on_c, 0, 62, 83
1, 279442, Control_c, 0, 64, 0
1, 279452, Note_on_c, 0, 83, 78
1, 279454, Note_on_c, 0, 79, 54
1, 279466, Note_on_c, 0, 74, 48
1, 279486, Note_off_c, 0, 62, 64
1, 279518, Note_off_c, 0, 79, 64
1, 279538, Note_off_c, 0, 74, 64
1, 279546, Note_off_c, 0, 83, 64
1, 279570, Note_on_c, 0, 71, 69
1, 279580, Note_on_c, 0, 64, 74
1, 279618, Note_off_c, 0, 71, 64
1, 279621, Note_off_c, 0, 64, 64
1, 279712, Note_on_c, 0, 62, 86
1, 279715, Note_on_c, 0, 79, 72
1, 279730, Note_on_c, 0, 74, 60
1, 279736, Note_on_c, 0, 71, 47
1, 279784, Note_off_c, 0, 74, 64
1, 279792, Note_off_c, 0, 79, 64
1, 279796, Note_off_c, 0, 71, 64
1, 279822, Note_off_c, 0, 62, 64
1, 279838, Note_on_c, 0, 67, 69
1, 279841, Control_c, 0, 64, 127
1, 279882, Note_off_c, 0, 67, 64
1, 279918, Control_c, 0, 64, 0
1, 279998, Note_on_c, 0, 86, 83
1, 279998, Note_on_c, 0, 59, 70
1, 280008, Note_on_c, 0, 79, 72
1, 280008, Note_on_c, 0, 83, 84
1, 280048, Note_off_c, 0, 59, 64
1, 280068, Note_off_c, 0, 79, 64
1, 280084, Note_off_c, 0, 83, 64
1, 280106, Note_off_c, 0, 86, 64
1, 280126, Note_on_c, 0, 74, 72
1, 280126, Note_on_c, 0, 61, 73
1, 280172, Note_off_c, 0, 74, 64
1, 280172, Note_off_c, 0, 61, 64
1, 280272, Note_on_c, 0, 83, 86
1, 280276, Note_on_c, 0, 62, 80
1, 280278, Note_on_c, 0, 79, 66
1, 280280, Note_on_c, 0, 74, 47
1, 280350, Note_off_c, 0, 62, 64
1, 280370, Note_off_c, 0, 83, 64
1, 280388, Note_off_c, 0, 79, 64
1, 280394, Note_on_c, 0, 71, 75
1, 280410, Note_off_c, 0, 74, 64
1, 280410, Control_c, 0, 64, 127
1, 280446, Note_off_c, 0, 71, 64
1, 280502, Control_c, 0, 64, 0
1, 280544, Note_on_c, 0, 64, 85
1, 280568, Note_on_c, 0, 74, 67
1, 280580, Note_on_c, 0, 79, 41
1, 280582, Note_on_c, 0, 71, 52
1, 280584, Note_off_c, 0, 64, 64
1, 280614, Note_off_c, 0, 74, 64
1, 280634, Note_off_c, 0, 71, 64
1, 280652, Note_off_c, 0, 79, 64
1, 280670, Note_on_c, 0, 67, 62
1, 280678, Note_on_c, 0, 66, 78
1, 280718, Note_off_c, 0, 67, 64
1, 280724, Note_off_c, 0, 66, 64
1, 280822, Note_on_c, 0, 86, 88
1, 280822, Note_on_c, 0, 64, 91
1, 280836, Note_on_c, 0, 79, 87
1, 280836, Note_on_c, 0, 83, 88
1, 280876, Note_off_c, 0, 64, 64
1, 280884, Note_off_c, 0, 79, 64
1, 280934, Note_off_c, 0, 86, 64
1, 280936, Note_off_c, 0, 83, 64
1, 280956, Note_on_c, 0, 74, 73
1, 280968, Note_on_c, 0, 66, 78
1, 281000, Note_off_c, 0, 74, 64
1, 281036, Note_off_c, 0, 66, 64
1, 281092, Note_on_c, 0, 79, 85
1, 281095, Note_on_c, 0, 83, 98
1, 281095, Note_on_c, 0, 74, 55
1, 281110, Note_on_c, 0, 64, 94
1, 281218, Note_off_c, 0, 83, 64
1, 281218, Note_off_c, 0, 64, 64
1, 281224, Note_on_c, 0, 71, 84
1, 281232, Note_off_c, 0, 79, 64
1, 281252, Note_off_c, 0, 74, 64
1, 281276, Note_off_c, 0, 71, 64
1, 281378, Note_on_c, 0, 79, 87
1, 281380, Note_on_c, 0, 59, 74
1, 281390, Note_on_c, 0, 71, 70
1, 281404, Note_on_c, 0, 74, 57
1, 281454, Note_off_c, 0, 74, 64
1, 281464, Note_off_c, 0, 59, 64
1, 281470, Note_off_c, 0, 71, 64
1, 281494, Note_on_c, 0, 62, 79
1, 281502, Note_off_c, 0, 79, 64
1, 281502, Note_on_c, 0, 67, 81
1, 281532, Note_off_c, 0, 62, 64
1, 281560, Note_off_c, 0, 67, 64
1, 281660, Note_on_c, 0, 64, 97
1, 281660, Note_on_c, 0, 79, 87
1, 281660, Note_on_c, 0, 61, 73
1, 281662, Note_on_c, 0, 76, 66
1, 281662, Note_on_c, 0, 59, 78
1, 281666, Note_on_c, 0, 73, 72
1, 281746, Control_c, 0, 64, 127
1, 281767, Note_off_c, 0, 79, 64
1, 281784, Note_on_c, 0, 67, 75
1, 281822, Note_off_c, 0, 64, 64
1, 281825, Note_off_c, 0, 67, 64
1, 281834, Note_off_c, 0, 76, 64
1, 281834, Note_off_c, 0, 73, 64
1, 281948, Note_on_c, 0, 82, 79
1, 281964, Note_on_c, 0, 67, 89
1, 281966, Note_on_c, 0, 79, 77
1, 281984, Note_on_c, 0, 76, 44
1, 282024, Note_off_c, 0, 79, 64
1, 282050, Note_off_c, 0, 76, 64
1, 282058, Note_on_c, 0, 70, 71
1, 282072, Note_off_c, 0, 67, 64
1, 282114, Note_off_c, 0, 70, 64
1, 282128, Note_off_c, 0, 82, 64
1, 282246, Note_on_c, 0, 85, 93
1, 282260, Note_on_c, 0, 70, 90
1, 282263, Note_on_c, 0, 79, 74
1, 282270, Control_c, 0, 64, 0
1, 282270, Note_on_c, 0, 76, 57
1, 282312, Note_off_c, 0, 59, 64
1, 282328, Note_off_c, 0, 61, 64
1, 282384, Note_on_c, 0, 73, 70
1, 282402, Note_off_c, 0, 79, 64
1, 282404, Note_off_c, 0, 70, 64
1, 282412, Note_off_c, 0, 76, 64
1, 282438, Control_c, 0, 64, 127
1, 282446, Note_off_c, 0, 73, 64
1, 282450, Note_off_c, 0, 85, 64
1, 282552, Note_on_c, 0, 88, 110
1, 282554, Note_on_c, 0, 71, 94
1, 282558, Note_on_c, 0, 76, 98
1, 282566, Note_on_c, 0, 59, 67
1, 282569, Note_on_c, 0, 68, 63
1, 282578, Note_on_c, 0, 64, 60
1, 282592, Control_c, 0, 64, 0
1, 282626, Note_off_c, 0, 64, 64
1, 282640, Note_off_c, 0, 71, 64
1, 282646, Note_off_c, 0, 59, 64
1, 282652, Note_off_c, 0, 68, 64
1, 282718, Note_on_c, 0, 68, 65
1, 282718, Note_on_c, 0, 71, 66
1, 282718, Note_on_c, 0, 59, 66
1, 282746, Note_on_c, 0, 64, 43
1, 282760, Control_c, 0, 64, 127
1, 282770, Note_off_c, 0, 76, 64
1, 282794, Note_off_c, 0, 71, 64
1, 282794, Note_off_c, 0, 59, 64
1, 282794, Note_off_c, 0, 64, 64
1, 282797, Note_off_c, 0, 88, 64
1, 282810, Note_off_c, 0, 68, 64
1, 282892, Note_on_c, 0, 71, 78
1, 282900, Note_on_c, 0, 68, 45
1, 282902, Note_on_c, 0, 59, 56
1, 282902, Note_on_c, 0, 90, 97
1, 282904, Note_on_c, 0, 78, 99
1, 282920, Note_on_c, 0, 64, 45
1, 282934, Note_off_c, 0, 71, 64
1, 282950, Note_off_c, 0, 68, 64
1, 282956, Note_off_c, 0, 59, 64
1, 282964, Note_off_c, 0, 64, 64
1, 282990, Note_off_c, 0, 90, 64
1, 283006, Note_off_c, 0, 78, 64
1, 283064, Note_on_c, 0, 69, 79
1, 283070, Note_on_c, 0, 59, 67
1, 283080, Note_on_c, 0, 61, 67
1, 283086, Note_on_c, 0, 64, 39
1, 283114, Note_off_c, 0, 69, 64
1, 283120, Note_off_c, 0, 59, 64
1, 283132, Note_off_c, 0, 61, 64
1, 283136, Note_off_c, 0, 64, 64
1, 283214, Note_on_c, 0, 61, 58
1, 283217, Note_on_c, 0, 69, 61
1, 283226, Note_on_c, 0, 83, 106
1, 283226, Note_on_c, 0, 64, 46
1, 283229, Note_on_c, 0, 59, 40
1, 283234, Note_on_c, 0, 71, 89
1, 283262, Note_off_c, 0, 83, 64
1, 283265, Note_off_c, 0, 69, 64
1, 283272, Note_off_c, 0, 71, 64
1, 283276, Note_off_c, 0, 61, 64
1, 283276, Note_off_c, 0, 64, 64
1, 283286, Note_off_c, 0, 59, 64
1, 283360, Note_on_c, 0, 69, 47
1, 283360, Note_on_c, 0, 61, 61
1, 283363, Note_on_c, 0, 64, 58
1, 283368, Note_on_c, 0, 85, 92
1, 283370, Note_on_c, 0, 73, 81
1, 283410, Note_off_c, 0, 64, 64
1, 283412, Note_off_c, 0, 73, 64
1, 283434, Note_off_c, 0, 69, 64
1, 283437, Control_c, 0, 64, 0
1, 283441, Note_off_c, 0, 61, 64
1, 283476, Note_off_c, 0, 85, 64
1, 283532, Note_on_c, 0, 59, 85
1, 283535, Note_on_c, 0, 71, 101
1, 283540, Note_on_c, 0, 88, 108
1, 283542, Note_on_c, 0, 76, 98
1, 283548, Note_on_c, 0, 68, 68
1, 283580, Note_on_c, 0, 64, 43
1, 283584, Note_off_c, 0, 71, 64
1, 283584, Note_off_c, 0, 76, 64
1, 283606, Note_off_c, 0, 59, 64
1, 283614, Note_off_c, 0, 68, 64
1, 283636, Note_off_c, 0, 88, 64
1, 283636, Note_off_c, 0, 64, 64
1, 283636, Control_c, 0, 64, 127
1, 283682, Note_on_c, 0, 68, 66
1, 283688, Note_on_c, 0, 71, 69
1, 283691, Note_on_c, 0, 59, 51
1, 283704, Note_on_c, 0, 64, 77
1, 283744, Note_off_c, 0, 64, 64
1, 283750, Note_off_c, 0, 71, 64
1, 283750, Note_off_c, 0, 59, 64
1, 283776, Note_off_c, 0, 68, 64
1, 283854, Note_on_c, 0, 71, 70
1, 283860, Note_on_c, 0, 68, 43
1, 283868, Note_on_c, 0, 95, 104
1, 283868, Note_on_c, 0, 83, 120
1, 283868, Note_on_c, 0, 59, 41
1, 283888, Note_on_c, 0, 64, 44
1, 283898, Note_off_c, 0, 71, 64
1, 283918, Note_off_c, 0, 68, 64
1, 283926, Note_off_c, 0, 59, 64
1, 283934, Note_off_c, 0, 64, 64
1, 284024, Note_on_c, 0, 59, 49
1, 284024, Note_on_c, 0, 69, 73
1, 284032, Note_on_c, 0, 61, 68
1, 284048, Note_off_c, 0, 95, 64
1, 284058, Note_on_c, 0, 64, 28
1, 284068, Note_off_c, 0, 83, 64
1, 284072, Note_off_c, 0, 59, 64
1, 284080, Note_off_c, 0, 69, 64
1, 284098, Note_off_c, 0, 61, 64
1, 284110, Note_off_c, 0, 64, 64
1, 284178, Note_on_c, 0, 69, 44
1, 284188, Note_on_c, 0, 78, 98
1, 284190, Note_on_c, 0, 61, 53
1, 284190, Note_on_c, 0, 90, 93
1, 284196, Note_on_c, 0, 64, 44
1, 284218, Note_on_c, 0, 59, 10
1, 284242, Note_off_c, 0, 69, 64
1, 284248, Note_off_c, 0, 64, 64
1, 284256, Note_off_c, 0, 61, 64
1, 284272, Note_off_c, 0, 59, 64
1, 284340, Note_on_c, 0, 59, 71
1, 284340, Note_on_c, 0, 69, 47
1, 284348, Note_on_c, 0, 64, 44
1, 284348, Note_on_c, 0, 61, 41
1, 284380, Note_off_c, 0, 59, 64
1, 284396, Note_off_c, 0, 64, 64
1, 284402, Note_off_c, 0, 69, 64
1, 284404, Note_off_c, 0, 61, 64
1, 284436, Control_c, 0, 64, 0
1, 284494, Note_on_c, 0, 59, 84
1, 284498, Note_on_c, 0, 68, 82
1, 284500, Note_on_c, 0, 71, 91
1, 284514, Note_on_c, 0, 64, 55
1, 284540, Note_off_c, 0, 71, 64
1, 284560, Note_off_c, 0, 64, 64
1, 284574, Note_off_c, 0, 90, 64
1, 284584, Note_off_c, 0, 59, 64
1, 284588, Note_off_c, 0, 78, 64
1, 284596, Note_off_c, 0, 68, 64
1, 284604, Control_c, 0, 64, 127
1, 284626, Note_on_c, 0, 71, 63
1, 284634, Note_on_c, 0, 68, 24
1, 284634, Note_on_c, 0, 64, 57
1, 284656, Note_on_c, 0, 88, 80
1, 284656, Note_on_c, 0, 76, 81
1, 284659, Note_on_c, 0, 59, 41
1, 284684, Note_off_c, 0, 71, 64
1, 284684, Note_off_c, 0, 64, 64
1, 284692, Note_off_c, 0, 76, 64
1, 284696, Note_off_c, 0, 68, 64
1, 284698, Note_off_c, 0, 88, 64
1, 284718, Note_off_c, 0, 59, 64
1, 284776, Note_on_c, 0, 71, 68
1, 284779, Note_on_c, 0, 68, 46
1, 284779, Note_on_c, 0, 59, 71
1, 284794, Note_on_c, 0, 78, 94
1, 284796, Note_on_c, 0, 90, 90
1, 284806, Note_on_c, 0, 64, 40
1, 284826, Note_off_c, 0, 71, 64
1, 284831, Note_off_c, 0, 90, 64
1, 284838, Note_off_c, 0, 59, 64
1, 284844, Note_off_c, 0, 68, 64
1, 284852, Note_off_c, 0, 64, 64
1, 284868, Note_off_c, 0, 78, 64
1, 284968, Note_on_c, 0, 69, 76
1, 284972, Note_on_c, 0, 83, 121
1, 284974, Note_on_c, 0, 71, 110
1, 284978, Note_on_c, 0, 61, 63
1, 284984, Note_on_c, 0, 64, 23
1, 284986, Note_on_c, 0, 59, 48
1, 285020, Note_off_c, 0, 69, 64
1, 285036, Note_off_c, 0, 59, 64
1, 285042, Note_off_c, 0, 61, 64
1, 285050, Note_off_c, 0, 64, 64
1, 285078, Note_off_c, 0, 71, 64
1, 285110, Note_on_c, 0, 61, 66
1, 285114, Note_on_c, 0, 69, 57
1, 285118, Note_on_c, 0, 59, 47
1, 285122, Note_off_c, 0, 83, 64
1, 285158, Note_on_c, 0, 64, 54
1, 285174, Note_off_c, 0, 59, 64
1, 285188, Note_off_c, 0, 69, 64
1, 285204, Note_off_c, 0, 64, 64
1, 285216, Note_off_c, 0, 61, 64
1, 285278, Note_on_c, 0, 64, 72
1, 285278, Note_on_c, 0, 69, 65
1, 285280, Note_on_c, 0, 85, 92
1, 285280, Note_on_c, 0, 73, 85
1, 285288, Note_on_c, 0, 61, 58
1, 285320, Note_off_c, 0, 73, 64
1, 285324, Note_off_c, 0, 85, 64
1, 285328, Note_off_c, 0, 64, 64
1, 285330, Note_on_c, 0, 59, 16
1, 285340, Note_off_c, 0, 69, 64
1, 285348, Note_off_c, 0, 61, 64
1, 285388, Note_off_c, 0, 59, 64
1, 285388, Control_c, 0, 64, 0
1, 285440, Note_on_c, 0, 71, 100
1, 285440, Note_on_c, 0, 88, 108
1, 285443, Note_on_c, 0, 59, 92
1, 285448, Note_on_c, 0, 76, 95
1, 285448, Note_on_c, 0, 68, 74
1, 285454, Note_on_c, 0, 64, 77
1, 285498, Note_off_c, 0, 71, 64
1, 285500, Note_off_c, 0, 64, 64
1, 285514, Note_off_c, 0, 68, 64
1, 285540, Note_off_c, 0, 59, 64
1, 285572, Control_c, 0, 64, 127
1, 285582, Note_on_c, 0, 71, 60
1, 285585, Note_on_c, 0, 59, 53
1, 285585, Note_on_c, 0, 68, 74
1, 285598, Note_on_c, 0, 64, 52
1, 285636, Note_off_c, 0, 59, 64
1, 285644, Note_off_c, 0, 64, 64
1, 285646, Note_off_c, 0, 88, 64
1, 285648, Note_off_c, 0, 71, 64
1, 285651, Note_off_c, 0, 68, 64
1, 285672, Note_off_c, 0, 76, 64
1, 285740, Note_on_c, 0, 68, 70
1, 285740, Note_on_c, 0, 71, 70
1, 285752, Note_on_c, 0, 59, 49
1, 285764, Note_on_c, 0, 64, 43
1, 285792, Note_off_c, 0, 71, 64
1, 285808, Note_off_c, 0, 68, 64
1, 285812, Note_off_c, 0, 59, 64
1, 285812, Note_off_c, 0, 64, 64
1, 285918, Note_on_c, 0, 83, 109
1, 285921, Note_on_c, 0, 69, 75
1, 285921, Note_on_c, 0, 71, 101
1, 285930, Note_on_c, 0, 61, 69
1, 285933, Note_on_c, 0, 59, 46
1, 285942, Control_c, 0, 64, 0
1, 285952, Note_on_c, 0, 64, 40
1, 285972, Note_off_c, 0, 69, 64
1, 285984, Note_off_c, 0, 59, 64
1, 286002, Note_off_c, 0, 64, 64
1, 286012, Note_off_c, 0, 61, 64
1, 286040, Note_off_c, 0, 71, 64
1, 286064, Note_on_c, 0, 59, 51
1, 286064, Note_on_c, 0, 69, 51
1, 286080, Control_c, 0, 64, 127
1, 286086, Note_on_c, 0, 64, 47
1, 286086, Note_on_c, 0, 61, 71
1, 286120, Note_off_c, 0, 83, 64
1, 286134, Note_off_c, 0, 64, 64
1, 286136, Note_off_c, 0, 69, 64
1, 286136, Note_off_c, 0, 61, 64
1, 286138, Note_off_c, 0, 59, 64
1, 286230, Note_on_c, 0, 69, 72
1, 286234, Note_on_c, 0, 61, 58
1, 286246, Note_on_c, 0, 64, 52
1, 286272, Note_on_c, 0, 59, 11
1, 286288, Note_off_c, 0, 69, 64
1, 286291, Note_off_c, 0, 64, 64
1, 286294, Note_off_c, 0, 61, 64
1, 286310, Control_c, 0, 64, 0
1, 286324, Note_off_c, 0, 59, 64
1, 286386, Note_on_c, 0, 88, 105
1, 286389, Note_on_c, 0, 71, 106
1, 286389, Note_on_c, 0, 76, 104
1, 286392, Note_on_c, 0, 59, 81
1, 286396, Note_on_c, 0, 68, 81
1, 286424, Note_on_c, 0, 64, 47
1, 286448, Note_off_c, 0, 59, 64
1, 286456, Note_off_c, 0, 71, 64
1, 286470, Note_off_c, 0, 64, 64
1, 286480, Note_off_c, 0, 76, 64
1, 286482, Note_off_c, 0, 68, 64
1, 286494, Control_c, 0, 64, 127
1, 286512, Note_off_c, 0, 88, 64
1, 286542, Note_on_c, 0, 64, 62
1, 286542, Note_on_c, 0, 68, 75
1, 286548, Note_on_c, 0, 71, 57
1, 286566, Note_on_c, 0, 59, 35
1, 286600, Note_off_c, 0, 71, 64
1, 286603, Note_off_c, 0, 64, 64
1, 286622, Note_off_c, 0, 59, 64
1, 286625, Note_off_c, 0, 68, 64
1, 286690, Note_on_c, 0, 59, 69
1, 286698, Note_on_c, 0, 71, 75
1, 286708, Note_on_c, 0, 68, 46
1, 286720, Note_on_c, 0, 78, 104
1, 286722, Note_on_c, 0, 90, 97
1, 286724, Note_on_c, 0, 64, 46
1, 286726, Control_c, 0, 64, 0
1, 286748, Note_off_c, 0, 59, 64
1, 286748, Note_off_c, 0, 71, 64
1, 286756, Note_off_c, 0, 68, 64
1, 286770, Note_off_c, 0, 64, 64
1, 286816, Note_off_c, 0, 90, 64
1, 286838, Note_off_c, 0, 78, 64
1, 286864, Note_on_c, 0, 69, 74
1, 286870, Note_on_c, 0, 61, 70
1, 286878, Control_c, 0, 64, 127
1, 286886, Note_on_c, 0, 59, 32
1, 286886, Note_on_c, 0, 64, 30
1, 286912, Note_off_c, 0, 69, 64
1, 286934, Note_off_c, 0, 61, 64
1, 286937, Note_off_c, 0, 64, 64
1, 286950, Note_off_c, 0, 59, 64
1, 287004, Note_on_c, 0, 61, 62
1, 287012, Note_on_c, 0, 69, 50
1, 287014, Note_on_c, 0, 64, 60
1, 287024, Note_on_c, 0, 59, 50
1, 287024, Note_on_c, 0, 83, 105
1, 287036, Note_on_c, 0, 71, 88
1, 287060, Note_off_c, 0, 83, 64
1, 287068, Note_off_c, 0, 64, 64
1, 287072, Note_off_c, 0, 59, 64
1, 287074, Note_off_c, 0, 69, 64
1, 287074, Note_off_c, 0, 71, 64
1, 287084, Note_off_c, 0, 61, 64
1, 287156, Note_on_c, 0, 69, 55
1, 287156, Note_on_c, 0, 85, 85
1, 287159, Note_on_c, 0, 73, 78
1, 287162, Note_on_c, 0, 61, 55
1, 287166, Note_on_c, 0, 59, 37
1, 287172, Note_on_c, 0, 64, 47
1, 287202, Note_off_c, 0, 85, 64
1, 287218, Note_off_c, 0, 64, 64
1, 287220, Note_off_c, 0, 59, 64
1, 287224, Note_off_c, 0, 73, 64
1, 287226, Note_off_c, 0, 69, 64
1, 287232, Note_off_c, 0, 61, 64
1, 287234, Control_c, 0, 64, 0
1, 287314, Note_on_c, 0, 59, 80
1, 287317, Note_on_c, 0, 71, 101
1, 287326, Note_on_c, 0, 68, 70
1, 287332, Note_on_c, 0, 64, 54
1, 287335, Note_on_c, 0, 88, 87
1, 287346, Note_on_c, 0, 76, 57
1, 287368, Note_off_c, 0, 71, 64
1, 287372, Note_off_c, 0, 68, 64
1, 287378, Note_off_c, 0, 64, 64
1, 287380, Note_off_c, 0, 59, 64
1, 287392, Note_off_c, 0, 76, 64
1, 287410, Note_off_c, 0, 88, 64
1, 287416, Control_c, 0, 64, 127
1, 287448, Note_on_c, 0, 68, 62
1, 287456, Note_on_c, 0, 59, 76
1, 287456, Note_on_c, 0, 64, 65
1, 287460, Note_on_c, 0, 71, 72
1, 287512, Note_off_c, 0, 59, 64
1, 287514, Note_off_c, 0, 71, 64
1, 287517, Note_off_c, 0, 64, 64
1, 287556, Note_off_c, 0, 68, 64
1, 287620, Note_on_c, 0, 68, 67
1, 287624, Note_on_c, 0, 71, 85
1, 287626, Note_on_c, 0, 59, 70
1, 287640, Note_on_c, 0, 64, 62
1, 287644, Note_on_c, 0, 95, 101
1, 287646, Note_on_c, 0, 83, 121
1, 287662, Note_off_c, 0, 71, 64
1, 287681, Note_off_c, 0, 68, 64
1, 287681, Note_off_c, 0, 64, 64
1, 287685, Note_off_c, 0, 59, 64
1, 287692, Control_c, 0, 64, 0
1, 287788, Note_on_c, 0, 69, 80
1, 287794, Note_on_c, 0, 61, 72
1, 287796, Note_off_c, 0, 95, 64
1, 287802, Note_off_c, 0, 83, 64
1, 287802, Note_on_c, 0, 59, 49
1, 287816, Note_on_c, 0, 64, 39
1, 287830, Control_c, 0, 64, 127
1, 287836, Note_off_c, 0, 69, 64
1, 287850, Note_off_c, 0, 59, 64
1, 287860, Note_off_c, 0, 61, 64
1, 287864, Note_off_c, 0, 64, 64
1, 287936, Note_on_c, 0, 61, 62
1, 287940, Note_on_c, 0, 59, 49
1, 287944, Note_on_c, 0, 90, 95
1, 287946, Note_on_c, 0, 78, 100
1, 287946, Note_on_c, 0, 69, 55
1, 287958, Note_on_c, 0, 64, 42
1, 287988, Note_off_c, 0, 59, 64
1, 287996, Note_off_c, 0, 69, 64
1, 288006, Note_off_c, 0, 64, 64
1, 288008, Note_off_c, 0, 61, 64
1, 288062, Control_c, 0, 64, 0
1, 288078, Note_on_c, 0, 64, 73
1, 288081, Note_on_c, 0, 69, 49
1, 288086, Note_on_c, 0, 61, 62
1, 288098, Note_on_c, 0, 59, 44
1, 288122, Note_off_c, 0, 64, 64
1, 288146, Note_off_c, 0, 59, 64
1, 288148, Note_off_c, 0, 69, 64
1, 288156, Note_off_c, 0, 61, 64
1, 288220, Note_on_c, 0, 59, 84
1, 288222, Note_on_c, 0, 71, 107
1, 288224, Note_off_c, 0, 90, 64
1, 288236, Note_on_c, 0, 68, 75
1, 288239, Note_on_c, 0, 64, 70
1, 288246, Control_c, 0, 64, 127
1, 288266, Note_off_c, 0, 78, 64
1, 288276, Note_off_c, 0, 59, 64
1, 288278, Note_off_c, 0, 64, 64
1, 288284, Note_off_c, 0, 71, 64
1, 288284, Note_off_c, 0, 68, 64
1, 288362, Note_on_c, 0, 68, 62
1, 288365, Note_on_c, 0, 71, 83
1, 288368, Note_on_c, 0, 59, 62
1, 288378, Note_on_c, 0, 64, 49
1, 288381, Note_on_c, 0, 76, 94
1, 288381, Note_on_c, 0, 88, 91
1, 288412, Note_off_c, 0, 71, 64
1, 288412, Note_off_c, 0, 76, 64
1, 288415, Note_off_c, 0, 88, 64
1, 288418, Note_off_c, 0, 59, 64
1, 288424, Note_off_c, 0, 64, 64
1, 288442, Note_off_c, 0, 68, 64
1, 288506, Note_on_c, 0, 59, 54
1, 288514, Note_on_c, 0, 78, 98
1, 288516, Note_on_c, 0, 90, 92
1, 288516, Note_on_c, 0, 68, 51
1, 288520, Note_on_c, 0, 71, 59
1, 288540, Note_on_c, 0, 64, 31
1, 288542, Note_on_c, 0, 72, 28
1, 288552, Note_off_c, 0, 90, 64
1, 288562, Note_off_c, 0, 59, 64
1, 288566, Note_off_c, 0, 68, 64
1, 288570, Note_off_c, 0, 71, 64
1, 288574, Note_off_c, 0, 78, 64
1, 288592, Note_off_c, 0, 64, 64
1, 288614, Note_off_c, 0, 72, 64
1, 288614, Control_c, 0, 64, 0
1, 288680, Note_on_c, 0, 69, 89
1, 288685, Note_on_c, 0, 59, 78
1, 288685, Note_on_c, 0, 83, 121
1, 288688, Note_on_c, 0, 61, 76
1, 288690, Note_on_c, 0, 71, 108
1, 288694, Note_on_c, 0, 64, 53
1, 288726, Note_off_c, 0, 59, 64
1, 288728, Note_off_c, 0, 69, 64
1, 288742, Note_off_c, 0, 64, 64
1, 288748, Note_off_c, 0, 71, 64
1, 288762, Note_off_c, 0, 61, 64
1, 288800, Control_c, 0, 64, 127
1, 288822, Note_on_c, 0, 61, 83
1, 288826, Note_on_c, 0, 69, 66
1, 288828, Note_off_c, 0, 83, 64
1, 288840, Note_on_c, 0, 64, 51
1, 288852, Note_on_c, 0, 59, 42
1, 288896, Note_off_c, 0, 64, 64
1, 288899, Note_off_c, 0, 69, 64
1, 288904, Note_off_c, 0, 59, 64
1, 288928, Note_off_c, 0, 61, 64
1, 288964, Note_on_c, 0, 69, 72
1, 288972, Note_on_c, 0, 85, 94
1, 288974, Note_on_c, 0, 59, 67
1, 288974, Note_on_c, 0, 73, 87
1, 288996, Note_on_c, 0, 64, 49
1, 289014, Note_off_c, 0, 73, 64
1, 289028, Note_off_c, 0, 59, 64
1, 289032, Note_off_c, 0, 85, 64
1, 289044, Note_off_c, 0, 64, 64
1, 289068, Note_off_c, 0, 69, 64
1, 289076, Control_c, 0, 64, 0
1, 289132, Note_on_c, 0, 64, 78
1, 289134, Note_on_c, 0, 71, 101
1, 289134, Note_on_c, 0, 76, 97
1, 289136, Note_on_c, 0, 88, 94
1, 289144, Note_on_c, 0, 80, 53
1, 289168, Note_off_c, 0, 76, 64
1, 289168, Note_off_c, 0, 88, 64
1, 289190, Note_off_c, 0, 80, 64
1, 289200, Control_c, 0, 64, 127
1, 289242, Note_off_c, 0, 71, 64
1, 289276, Note_on_c, 0, 75, 93
1, 289282, Note_on_c, 0, 87, 82
1, 289288, Note_off_c, 0, 64, 64
1, 289288, Note_on_c, 0, 63, 81
1, 289324, Note_off_c, 0, 87, 64
1, 289362, Note_off_c, 0, 75, 64
1, 289382, Control_c, 0, 64, 0
1, 289402, Note_off_c, 0, 63, 64
1, 289422, Note_on_c, 0, 61, 75
1, 289428, Note_on_c, 0, 73, 90
1, 289430, Note_on_c, 0, 85, 85
1, 289444, Control_c, 0, 64, 127
1, 289490, Note_off_c, 0, 85, 64
1, 289510, Note_off_c, 0, 61, 64
1, 289530, Note_off_c, 0, 73, 64
1, 289558, Note_on_c, 0, 68, 90
1, 289568, Control_c, 0, 64, 0
1, 289570, Note_on_c, 0, 59, 90
1, 289572, Note_on_c, 0, 83, 113
1, 289572, Note_on_c, 0, 71, 108
1, 289577, Note_on_c, 0, 80, 86
1, 289612, Note_off_c, 0, 59, 64
1, 289615, Note_off_c, 0, 80, 64
1, 289620, Note_off_c, 0, 71, 64
1, 289636, Note_off_c, 0, 83, 64
1, 289662, Note_off_c, 0, 68, 64
1, 289698, Note_on_c, 0, 59, 74
1, 289706, Note_on_c, 0, 68, 78
1, 289706, Control_c, 0, 64, 127
1, 289706, Note_on_c, 0, 83, 103
1, 289709, Note_on_c, 0, 71, 92
1, 289734, Note_on_c, 0, 80, 35
1, 289748, Note_off_c, 0, 83, 64
1, 289750, Note_off_c, 0, 71, 64
1, 289766, Note_off_c, 0, 59, 64
1, 289792, Note_off_c, 0, 68, 64
1, 289795, Note_off_c, 0, 80, 64
1, 289850, Note_on_c, 0, 61, 84
1, 289868, Note_on_c, 0, 85, 88
1, 289870, Note_on_c, 0, 73, 72
1, 289900, Note_off_c, 0, 61, 64
1, 289900, Note_off_c, 0, 85, 64
1, 289912, Note_off_c, 0, 73, 64
1, 289918, Note_on_c, 0, 75, 18
1, 289968, Control_c, 0, 64, 0
1, 289978, Note_off_c, 0, 75, 64
1, 290002, Note_on_c, 0, 68, 90
1, 290010, Note_on_c, 0, 75, 88
1, 290012, Note_on_c, 0, 63, 88
1, 290012, Note_on_c, 0, 87, 86
1, 290018, Note_on_c, 0, 80, 79
1, 290046, Note_off_c, 0, 75, 64
1, 290046, Note_off_c, 0, 87, 64
1, 290056, Note_off_c, 0, 63, 64
1, 290058, Note_off_c, 0, 80, 64
1, 290066, Note_off_c, 0, 68, 64
1, 290120, Control_c, 0, 64, 127
1, 290146, Note_on_c, 0, 75, 77
1, 290149, Note_on_c, 0, 68, 61
1, 290149, Note_on_c, 0, 80, 29
1, 290152, Note_on_c, 0, 87, 53
1, 290164, Note_on_c, 0, 63, 63
1, 290194, Note_off_c, 0, 87, 64
1, 290206, Note_off_c, 0, 80, 64
1, 290208, Note_off_c, 0, 68, 64
1, 290234, Note_off_c, 0, 75, 64
1, 290260, Note_off_c, 0, 63, 64
1, 290294, Note_on_c, 0, 59, 75
1, 290318, Note_on_c, 0, 71, 90
1, 290346, Note_off_c, 0, 59, 64
1, 290356, Note_off_c, 0, 71, 64
1, 290358, Note_on_c, 0, 83, 20
1, 290404, Note_off_c, 0, 83, 64
1, 290432, Note_on_c, 0, 63, 91
1, 290444, Note_on_c, 0, 79, 93
1, 290447, Note_on_c, 0, 67, 81
1, 290447, Note_on_c, 0, 55, 81
1, 290454, Note_on_c, 0, 75, 76
1, 290458, Control_c, 0, 64, 0
1, 290478, Note_off_c, 0, 63, 64
1, 290488, Note_off_c, 0, 55, 64
1, 290491, Note_off_c, 0, 75, 64
1, 290496, Note_off_c, 0, 67, 64
1, 290512, Note_off_c, 0, 79, 64
1, 290564, Note_on_c, 0, 55, 65
1, 290574, Note_on_c, 0, 67, 66
1, 290574, Note_on_c, 0, 63, 73
1, 290577, Note_on_c, 0, 79, 84
1, 290582, Control_c, 0, 64, 127
1, 290588, Note_on_c, 0, 75, 44
1, 290622, Note_off_c, 0, 67, 64
1, 290622, Note_off_c, 0, 79, 64
1, 290632, Note_off_c, 0, 75, 64
1, 290662, Note_off_c, 0, 55, 64
1, 290676, Note_off_c, 0, 63, 64
1, 290722, Note_on_c, 0, 59, 84
1, 290722, Note_on_c, 0, 71, 85
1, 290724, Note_on_c, 0, 83, 106
1, 290754, Note_off_c, 0, 83, 64
1, 290760, Note_off_c, 0, 59, 64
1, 290774, Note_off_c, 0, 71, 64
1, 290812, Control_c, 0, 64, 0
1, 290880, Note_on_c, 0, 64, 108
1, 290882, Note_on_c, 0, 76, 92
1, 290884, Note_on_c, 0, 52, 98
1, 290884, Note_on_c, 0, 59, 84
1, 290886, Note_on_c, 0, 68, 86
1, 290912, Note_off_c, 0, 76, 64
1, 290914, Note_off_c, 0, 64, 64
1, 290922, Note_off_c, 0, 59, 64
1, 290930, Note_off_c, 0, 52, 64
1, 290950, Control_c, 0, 64, 127
1, 291012, Note_on_c, 0, 63, 100
1, 291016, Note_on_c, 0, 75, 82
1, 291028, Note_on_c, 0, 51, 81
1, 291072, Note_off_c, 0, 68, 64
1, 291077, Note_off_c, 0, 75, 64
1, 291090, Note_off_c, 0, 63, 64
1, 291152, Note_on_c, 0, 49, 78
1, 291158, Note_off_c, 0, 51, 64
1, 291162, Note_on_c, 0, 73, 79
1, 291166, Note_on_c, 0, 61, 90
1, 291196, Control_c, 0, 64, 0
1, 291234, Note_off_c, 0, 73, 64
1, 291252, Note_off_c, 0, 49, 64
1, 291255, Note_off_c, 0, 61, 64
1, 291290, Note_on_c, 0, 56, 85
1, 291290, Note_on_c, 0, 47, 91
1, 291304, Note_on_c, 0, 71, 98
1, 291309, Note_on_c, 0, 59, 100
1, 291314, Note_on_c, 0, 68, 81
1, 291344, Note_off_c, 0, 47, 64
1, 291350, Control_c, 0, 64, 127
1, 291352, Note_off_c, 0, 68, 64
1, 291360, Note_off_c, 0, 59, 64
1, 291386, Note_off_c, 0, 71, 64
1, 291389, Note_off_c, 0, 56, 64
1, 291424, Note_on_c, 0, 47, 75
1, 291432, Note_on_c, 0, 56, 78
1, 291436, Note_on_c, 0, 71, 79
1, 291438, Note_on_c, 0, 59, 75
1, 291454, Note_on_c, 0, 68, 44
1, 291476, Note_off_c, 0, 71, 64
1, 291476, Note_off_c, 0, 59, 64
1, 291488, Note_off_c, 0, 47, 64
1, 291500, Note_off_c, 0, 68, 64
1, 291532, Note_off_c, 0, 56, 64
1, 291578, Note_on_c, 0, 49, 88
1, 291592, Note_on_c, 0, 73, 76
1, 291602, Note_on_c, 0, 61, 51
1, 291606, Note_on_c, 0, 63, 74
1, 291632, Note_off_c, 0, 73, 64
1, 291644, Note_off_c, 0, 63, 64
1, 291647, Note_on_c, 0, 74, 19
1, 291652, Note_off_c, 0, 61, 64
1, 291658, Control_c, 0, 64, 0
1, 291674, Note_off_c, 0, 49, 64
1, 291702, Note_off_c, 0, 74, 64
1, 291734, Note_on_c, 0, 56, 87
1, 291736, Note_on_c, 0, 51, 93
1, 291740, Note_on_c, 0, 63, 82
1, 291746, Note_on_c, 0, 75, 92
1, 291754, Note_on_c, 0, 68, 79
1, 291796, Note_off_c, 0, 75, 64
1, 291810, Note_off_c, 0, 68, 64
1, 291818, Note_off_c, 0, 56, 64
1, 291826, Note_off_c, 0, 63, 64
1, 291826, Control_c, 0, 64, 127
1, 291838, Note_off_c, 0, 51, 64
1, 291886, Note_on_c, 0, 56, 66
1, 291889, Note_on_c, 0, 63, 84
1, 291894, Note_on_c, 0, 75, 74
1, 291900, Note_on_c, 0, 51, 73
1, 291950, Note_off_c, 0, 75, 64
1, 291974, Note_off_c, 0, 63, 64
1, 291980, Note_off_c, 0, 56, 64
1, 292024, Note_off_c, 0, 51, 64
1, 292046, Note_on_c, 0, 47, 81
1, 292060, Note_on_c, 0, 59, 87
1, 292062, Note_on_c, 0, 71, 85
1, 292098, Note_off_c, 0, 59, 64
1, 292098, Note_off_c, 0, 71, 64
1, 292150, Note_off_c, 0, 47, 64
1, 292226, Control_c, 0, 64, 0
1, 292226, Note_on_c, 0, 51, 90
1, 292232, Note_on_c, 0, 68, 97
1, 292242, Note_on_c, 0, 56, 93
1, 292246, Note_on_c, 0, 44, 88
1, 292254, Note_on_c, 0, 63, 75
1, 292318, Note_off_c, 0, 44, 64
1, 292337, Note_off_c, 0, 56, 64
1, 292350, Note_off_c, 0, 51, 64
1, 292353, Note_off_c, 0, 63, 64
1, 292356, Note_off_c, 0, 68, 64
1, 292365, Control_c, 0, 64, 127
1, 292418, Note_on_c, 0, 51, 80
1, 292426, Note_on_c, 0, 56, 81
1, 292426, Note_on_c, 0, 68, 75
1, 292434, Note_on_c, 0, 63, 74
1, 292436, Note_on_c, 0, 44, 64
1, 292514, Note_off_c, 0, 44, 64
1, 292522, Note_off_c, 0, 56, 64
1, 292538, Note_off_c, 0, 68, 64
1, 292540, Note_off_c, 0, 63, 64
1, 292584, Note_off_c, 0, 51, 64
1, 292610, Control_c, 0, 64, 0
1, 292668, Note_on_c, 0, 71, 106
1, 292676, Note_on_c, 0, 59, 92
1, 292679, Note_on_c, 0, 47, 93
1, 292748, Control_c, 0, 64, 127
1, 292760, Note_off_c, 0, 47, 64
1, 292850, Note_off_c, 0, 59, 64
1, 292926, Note_off_c, 0, 71, 64
1, 292964, Control_c, 0, 64, 0
1, 293002, Note_on_c, 0, 33, 112
1, 293110, Note_off_c, 0, 33, 64
1, 293148, Control_c, 0, 64, 127
1, 293372, Note_on_c, 0, 73, 95
1, 293376, Note_on_c, 0, 61, 100
1, 293380, Note_on_c, 0, 52, 101
1, 293382, Note_on_c, 0, 69, 82
1, 293384, Note_on_c, 0, 45, 92
1, 293412, Note_off_c, 0, 52, 64
1, 293420, Note_off_c, 0, 45, 64
1, 293580, Note_off_c, 0, 61, 64
1, 293634, Note_off_c, 0, 69, 64
1, 293696, Note_off_c, 0, 73, 64
1, 294188, Note_on_c, 0, 88, 101
1, 294194, Note_on_c, 0, 76, 93
1, 294196, Note_on_c, 0, 64, 102
1, 294292, Note_off_c, 0, 76, 64
1, 294316, Note_off_c, 0, 88, 64
1, 294420, Note_off_c, 0, 64, 64
1, 294458, Note_on_c, 0, 78, 90
1, 294460, Note_on_c, 0, 90, 92
1, 294466, Note_on_c, 0, 66, 84
1, 294560, Note_off_c, 0, 78, 64
1, 294584, Note_off_c, 0, 90, 64
1, 294644, Note_off_c, 0, 66, 64
1, 294692, Note_on_c, 0, 88, 99
1, 294694, Note_on_c, 0, 76, 96
1, 294704, Note_on_c, 0, 64, 102
1, 294780, Note_off_c, 0, 76, 64
1, 294808, Note_off_c, 0, 88, 64
1, 295048, Note_off_c, 0, 64, 64
1, 295134, Note_on_c, 0, 73, 89
1, 295134, Note_on_c, 0, 85, 95
1, 295148, Note_on_c, 0, 61, 83
1, 295206, Note_off_c, 0, 73, 64
1, 295240, Note_off_c, 0, 85, 64
1, 295360, Note_off_c, 0, 61, 64
1, 295382, Note_on_c, 0, 87, 90
1, 295384, Note_on_c, 0, 75, 88
1, 295386, Note_on_c, 0, 63, 89
1, 295496, Note_off_c, 0, 75, 64
1, 295524, Note_off_c, 0, 87, 64
1, 295554, Note_off_c, 0, 63, 64
1, 295628, Note_on_c, 0, 88, 108
1, 295628, Note_on_c, 0, 76, 103
1, 295637, Note_on_c, 0, 64, 99
1, 295730, Note_off_c, 0, 64, 64
1, 295746, Note_off_c, 0, 76, 64
1, 295790, Note_off_c, 0, 88, 64
1, 296090, Note_on_c, 0, 66, 81
1, 296094, Note_on_c, 0, 90, 92
1, 296096, Note_on_c, 0, 78, 97
1, 296192, Note_off_c, 0, 78, 64
1, 296198, Note_off_c, 0, 66, 64
1, 296236, Note_off_c, 0, 90, 64
1, 296342, Note_on_c, 0, 92, 92
1, 296344, Note_on_c, 0, 80, 95
1, 296352, Note_on_c, 0, 68, 92
1, 296442, Note_off_c, 0, 80, 64
1, 296458, Note_off_c, 0, 92, 64
1, 296480, Note_off_c, 0, 68, 64
1, 296626, Note_on_c, 0, 90, 93
1, 296626, Note_on_c, 0, 78, 97
1, 296630, Note_on_c, 0, 66, 93
1, 296726, Note_off_c, 0, 66, 64
1, 296764, Note_off_c, 0, 78, 64
1, 296830, Note_off_c, 0, 90, 64
1, 296952, Note_on_c, 0, 80, 95
1, 296952, Note_on_c, 0, 92, 92
1, 296964, Note_on_c, 0, 68, 95
1, 297124, Note_off_c, 0, 68, 64
1, 297154, Note_off_c, 0, 80, 64
1, 297164, Note_off_c, 0, 92, 64
1, 297298, Note_on_c, 0, 90, 92
1, 297298, Note_on_c, 0, 78, 96
1, 297302, Note_on_c, 0, 66, 92
1, 297354, Note_off_c, 0, 66, 64
1, 297502, Note_off_c, 0, 90, 64
1, 297528, Note_off_c, 0, 78, 64
1, 297860, Note_on_c, 0, 61, 92
1, 297862, Note_on_c, 0, 73, 87
1, 297864, Note_on_c, 0, 85, 90
1, 297910, Note_off_c, 0, 61, 64
1, 297972, Note_off_c, 0, 73, 64
1, 297980, Note_off_c, 0, 85, 64
1, 298208, Note_on_c, 0, 88, 98
1, 298211, Note_on_c, 0, 76, 91
1, 298220, Note_on_c, 0, 64, 92
1, 298400, Note_off_c, 0, 76, 64
1, 298454, Note_off_c, 0, 64, 64
1, 298462, Note_off_c, 0, 88, 64
1, 298716, Note_on_c, 0, 90, 97
1, 298721, Note_on_c, 0, 78, 97
1, 298740, Note_on_c, 0, 66, 95
1, 298796, Note_off_c, 0, 66, 64
1, 298799, Note_off_c, 0, 90, 64
1, 298812, Note_off_c, 0, 78, 64
1, 299740, Control_c, 0, 64, 0
1, 299934, Note_on_c, 0, 61, 74
1, 299946, Note_on_c, 0, 57, 61
1, 299994, Note_on_c, 0, 64, 71
1, 300016, Control_c, 0, 64, 127
1, 300044, Note_off_c, 0, 57, 64
1, 300074, Note_on_c, 0, 66, 68
1, 300077, Note_off_c, 0, 61, 64
1, 300110, Note_off_c, 0, 64, 64
1, 300144, Note_off_c, 0, 66, 64
1, 300178, Note_on_c, 0, 73, 71
1, 300190, Note_on_c, 0, 69, 52
1, 300286, Note_on_c, 0, 76, 78
1, 300326, Note_off_c, 0, 69, 64
1, 300344, Note_off_c, 0, 73, 64
1, 300360, Note_on_c, 0, 78, 86
1, 300398, Note_off_c, 0, 76, 64
1, 300448, Note_off_c, 0, 78, 64
1, 300496, Note_on_c, 0, 85, 79
1, 300500, Note_on_c, 0, 81, 74
1, 300614, Note_on_c, 0, 88, 74
1, 300668, Note_off_c, 0, 81, 64
1, 300698, Note_off_c, 0, 85, 64
1, 300724, Note_on_c, 0, 90, 72
1, 300770, Note_off_c, 0, 88, 64
1, 300876, Note_on_c, 0, 92, 93
1, 300878, Note_on_c, 0, 88, 80
1, 300880, Note_on_c, 0, 80, 100
1, 300880, Note_on_c, 0, 35, 101
1, 300882, Note_on_c, 0, 40, 105
1, 300886, Note_on_c, 0, 28, 96
1, 300904, Note_off_c, 0, 90, 64
1, 301262, Note_off_c, 0, 88, 64
1, 301278, Note_off_c, 0, 80, 64
1, 301281, Note_off_c, 0, 92, 64
1, 301292, Note_off_c, 0, 28, 64
1, 301306, Note_off_c, 0, 35, 64
1, 301318, Note_off_c, 0, 40, 64
1, 301414, Control_c, 0, 64, 0
1, 301442, Note_on_c, 0, 92, 94
1, 301442, Note_on_c, 0, 80, 101
1, 301450, Note_on_c, 0, 88, 98
1, 301452, Note_on_c, 0, 28, 95
1, 301454, Note_on_c, 0, 35, 98
1, 301454, Note_on_c, 0, 40, 108
1, 301530, Note_off_c, 0, 40, 64
1, 301546, Note_off_c, 0, 80, 64
1, 301552, Note_off_c, 0, 92, 64
1, 301558, Note_off_c, 0, 28, 64
1, 301568, Note_off_c, 0, 35, 64
1, 301596, Note_off_c, 0, 88, 64
1, 301598, Control_c, 0, 64, 127
1, 301998, Control_c, 0, 64, 0
1, 302528, Note_on_c, 0, 80, 95
1, 302531, Note_on_c, 0, 68, 93
1, 302538, Note_on_c, 0, 76, 88
1, 302538, Note_on_c, 0, 52, 103
1, 302544, Note_on_c, 0, 40, 99
1, 302548, Note_on_c, 0, 47, 87
1, 302696, Note_off_c, 0, 52, 64
1, 302702, Note_off_c, 0, 68, 64
1, 302704, Control_c, 0, 64, 127
1, 302728, Note_off_c, 0, 47, 64
1, 302754, Note_off_c, 0, 40, 64
1, 302757, Note_off_c, 0, 76, 64
1, 302806, Note_off_c, 0, 80, 64
1, 303388, Note_on_c, 0, 88, 103
1, 303388, Note_on_c, 0, 100, 105
1, 303388, Note_on_c, 0, 92, 89
1, 303394, Note_on_c, 0, 40, 110
1, 303396, Note_on_c, 0, 28, 87
1, 303404, Note_on_c, 0, 35, 98
1, 303504, Note_off_c, 0, 28, 64
1, 303536, Note_off_c, 0, 40, 64
1, 303548, Note_off_c, 0, 100, 64
1, 303550, Note_off_c, 0, 35, 64
1, 303553, Note_off_c, 0, 88, 64
1, 303602, Note_off_c, 0, 92, 64
1, 304026, Control_c, 0, 64, 0
1, 307200, Control_c, 0, 64, 0
1, 307200, End_track
0, 0, End_of_file
