0, 0, Header, 1, 8, 480
1, 0, Start_track
1, 0, Title_t, "Seq-1"
1, 0, SMPTE_offset, 96, 0, 0, 0, 0
1, 0, Time_signature, 4, 2, 24, 8
1, 0, Tempo, 500000
1, 0, End_track
2, 0, Start_track
2, 0, Title_t, "Claude Debussy"
2, 1944, Control_c, 0, 7, 127
2, 1945, Control_c, 0, 11, 86
2, 1958, Note_on_c, 0, 83, 48
2, 1960, Note_on_c, 0, 43, 36
2, 1969, Control_c, 0, 64, 127
2, 2139, Note_on_c, 0, 50, 37
2, 2311, Note_on_c, 0, 55, 39
2, 2485, Note_on_c, 0, 59, 41
2, 2540, Note_off_c, 0, 50, 64
2, 2583, Note_off_c, 0, 55, 64
2, 2654, Note_on_c, 0, 62, 43
2, 2703, Note_off_c, 0, 59, 64
2, 2823, Note_on_c, 0, 67, 45
2, 2869, Note_off_c, 0, 62, 64
2, 2990, Note_off_c, 0, 67, 64
2, 2992, Note_on_c, 0, 74, 47
2, 2993, Note_on_c, 0, 71, 37
2, 3322, Note_off_c, 0, 74, 64
2, 3323, Note_off_c, 0, 71, 64
2, 3977, Note_off_c, 0, 83, 64
2, 3980, Note_off_c, 0, 43, 64
2, 3981, Note_on_c, 0, 79, 46
2, 3981, Note_on_c, 0, 40, 34
2, 3992, Control_c, 0, 64, 0
2, 4141, Note_on_c, 0, 47, 35
2, 4184, Control_c, 0, 64, 127
2, 4315, Note_on_c, 0, 52, 37
2, 4416, Note_off_c, 0, 47, 64
2, 4487, Note_on_c, 0, 55, 38
2, 4528, Note_off_c, 0, 52, 64
2, 4656, Note_on_c, 0, 59, 40
2, 4702, Note_off_c, 0, 55, 64
2, 4825, Note_on_c, 0, 64, 41
2, 4869, Note_off_c, 0, 59, 64
2, 4991, Note_off_c, 0, 64, 64
2, 4993, Note_on_c, 0, 76, 43
2, 4995, Note_on_c, 0, 71, 33
2, 5324, Note_off_c, 0, 76, 64
2, 5326, Note_off_c, 0, 71, 64
2, 5328, Note_off_c, 0, 79, 64
2, 5328, Note_on_c, 0, 81, 58
2, 5651, Note_off_c, 0, 81, 64
2, 5653, Note_on_c, 0, 79, 61
2, 5978, Note_off_c, 0, 79, 64
2, 5980, Note_off_c, 0, 40, 64
2, 5983, Note_on_c, 0, 83, 48
2, 5985, Note_on_c, 0, 43, 36
2, 5993, Control_c, 0, 64, 0
2, 6144, Note_on_c, 0, 50, 37
2, 6187, Control_c, 0, 64, 127
2, 6316, Note_on_c, 0, 55, 39
2, 6460, Note_off_c, 0, 50, 64
2, 6488, Note_on_c, 0, 59, 41
2, 6572, Note_off_c, 0, 55, 64
2, 6658, Note_on_c, 0, 62, 43
2, 6672, Note_off_c, 0, 59, 64
2, 6828, Note_on_c, 0, 67, 45
2, 6874, Note_off_c, 0, 62, 64
2, 6993, Note_off_c, 0, 67, 64
2, 6996, Note_on_c, 0, 74, 47
2, 6997, Note_on_c, 0, 71, 37
2, 7326, Note_off_c, 0, 74, 64
2, 7327, Note_off_c, 0, 71, 64
2, 7981, Note_off_c, 0, 83, 64
2, 7983, Note_off_c, 0, 43, 64
2, 7985, Note_on_c, 0, 79, 46
2, 7985, Note_on_c, 0, 40, 34
2, 7995, Control_c, 0, 64, 0
2, 8145, Note_on_c, 0, 47, 35
2, 8188, Control_c, 0, 64, 127
2, 8318, Note_on_c, 0, 52, 36
2, 8446, Note_off_c, 0, 47, 64
2, 8490, Note_on_c, 0, 55, 37
2, 8536, Note_off_c, 0, 52, 64
2, 8660, Note_on_c, 0, 59, 38
2, 8694, Note_off_c, 0, 55, 64
2, 8830, Note_on_c, 0, 64, 39
2, 8875, Note_off_c, 0, 59, 64
2, 8996, Note_off_c, 0, 64, 64
2, 8998, Note_on_c, 0, 76, 41
2, 9000, Note_on_c, 0, 71, 31
2, 9328, Note_off_c, 0, 76, 64
2, 9330, Note_off_c, 0, 71, 64
2, 9332, Note_off_c, 0, 79, 64
2, 9332, Note_on_c, 0, 81, 55
2, 9655, Note_off_c, 0, 81, 64
2, 9657, Note_on_c, 0, 79, 57
2, 9983, Note_off_c, 0, 79, 64
2, 9985, Note_off_c, 0, 40, 64
2, 9987, Note_on_c, 0, 86, 52
2, 9987, Note_on_c, 0, 38, 34
2, 9997, Control_c, 0, 64, 0
2, 10155, Note_on_c, 0, 45, 41
2, 10199, Control_c, 0, 64, 127
2, 10328, Note_on_c, 0, 50, 42
2, 10500, Note_on_c, 0, 53, 43
2, 10514, Note_off_c, 0, 45, 64
2, 10557, Note_off_c, 0, 50, 64
2, 10671, Note_off_c, 0, 53, 64
2, 10673, Note_on_c, 0, 57, 44
2, 10842, Note_off_c, 0, 57, 64
2, 10843, Note_on_c, 0, 62, 45
2, 11011, Note_off_c, 0, 62, 64
2, 11012, Note_on_c, 0, 65, 32
2, 11014, Note_on_c, 0, 69, 40
2, 11346, Note_off_c, 0, 65, 64
2, 11348, Note_off_c, 0, 69, 64
2, 12010, Note_off_c, 0, 38, 64
2, 12012, Note_on_c, 0, 50, 34
2, 12019, Control_c, 0, 64, 0
2, 12175, Note_on_c, 0, 57, 47
2, 12212, Control_c, 0, 64, 127
2, 12340, Note_on_c, 0, 62, 48
2, 12507, Note_on_c, 0, 65, 49
2, 12549, Note_off_c, 0, 57, 64
2, 12591, Note_off_c, 0, 62, 64
2, 12676, Note_on_c, 0, 69, 50
2, 12760, Note_off_c, 0, 65, 64
2, 12845, Note_off_c, 0, 69, 64
2, 12847, Note_on_c, 0, 74, 51
2, 13016, Note_off_c, 0, 74, 64
2, 13018, Note_on_c, 0, 77, 46
2, 13020, Note_on_c, 0, 81, 46
2, 13362, Note_off_c, 0, 77, 64
2, 13364, Note_off_c, 0, 81, 64
2, 14067, Note_off_c, 0, 50, 64
2, 14069, Note_on_c, 0, 38, 34
2, 14078, Control_c, 0, 64, 0
2, 14246, Note_on_c, 0, 45, 41
2, 14285, Control_c, 0, 64, 127
2, 14418, Note_on_c, 0, 50, 42
2, 14591, Note_off_c, 0, 45, 64
2, 14593, Note_on_c, 0, 53, 43
2, 14648, Note_off_c, 0, 50, 64
2, 14761, Note_on_c, 0, 57, 44
2, 14859, Note_off_c, 0, 53, 64
2, 14931, Note_on_c, 0, 62, 45
2, 14986, Note_off_c, 0, 57, 64
2, 15097, Note_off_c, 0, 62, 64
2, 15099, Note_on_c, 0, 65, 28
2, 15101, Note_on_c, 0, 69, 40
2, 15428, Note_off_c, 0, 65, 64
2, 15430, Note_off_c, 0, 69, 64
2, 16084, Note_off_c, 0, 38, 64
2, 16086, Note_on_c, 0, 50, 38
2, 16094, Control_c, 0, 64, 0
2, 16252, Note_on_c, 0, 57, 40
2, 16289, Control_c, 0, 64, 127
2, 16419, Note_on_c, 0, 62, 43
2, 16530, Note_off_c, 0, 57, 64
2, 16586, Note_off_c, 0, 62, 64
2, 16588, Note_on_c, 0, 65, 46
2, 16753, Note_on_c, 0, 69, 49
2, 16849, Note_off_c, 0, 65, 64
2, 16918, Note_off_c, 0, 69, 64
2, 16920, Note_on_c, 0, 74, 52
2, 17067, Note_off_c, 0, 86, 64
2, 17081, Note_off_c, 0, 74, 64
2, 17083, Note_off_c, 0, 50, 64
2, 17085, Note_on_c, 0, 71, 54
2, 17085, Note_on_c, 0, 88, 74
2, 17087, Note_on_c, 0, 43, 55
2, 17245, Note_on_c, 0, 53, 58
2, 17408, Note_off_c, 0, 53, 64
2, 17410, Note_on_c, 0, 55, 61
2, 17570, Note_off_c, 0, 55, 64
2, 17571, Note_on_c, 0, 59, 64
2, 17730, Note_off_c, 0, 59, 64
2, 17733, Note_on_c, 0, 64, 67
2, 17892, Note_off_c, 0, 64, 64
2, 17894, Note_on_c, 0, 67, 69
2, 18053, Note_off_c, 0, 67, 64
2, 18055, Note_off_c, 0, 71, 64
2, 18057, Note_off_c, 0, 43, 64
2, 18057, Note_off_c, 0, 88, 64
2, 18060, Note_on_c, 0, 36, 34
2, 18060, Note_on_c, 0, 72, 40
2, 18060, Note_on_c, 0, 76, 32
2, 18061, Note_on_c, 0, 79, 52
2, 18063, Control_c, 0, 64, 0
2, 18212, Note_on_c, 0, 43, 36
2, 18250, Control_c, 0, 64, 127
2, 18379, Note_off_c, 0, 43, 64
2, 18381, Note_on_c, 0, 52, 39
2, 18547, Note_off_c, 0, 52, 64
2, 18549, Note_on_c, 0, 55, 41
2, 18712, Note_off_c, 0, 55, 64
2, 18714, Note_on_c, 0, 60, 44
2, 18874, Note_off_c, 0, 60, 64
2, 18876, Note_on_c, 0, 64, 47
2, 19035, Note_off_c, 0, 64, 64
2, 19037, Note_on_c, 0, 67, 50
2, 19197, Note_off_c, 0, 67, 64
2, 19199, Note_on_c, 0, 64, 47
2, 19357, Note_off_c, 0, 64, 64
2, 19359, Note_on_c, 0, 60, 45
2, 19521, Note_off_c, 0, 60, 64
2, 19523, Note_on_c, 0, 55, 42
2, 19687, Note_off_c, 0, 55, 64
2, 19689, Note_on_c, 0, 52, 40
2, 19857, Note_off_c, 0, 52, 64
2, 19859, Note_on_c, 0, 43, 37
2, 19972, Note_off_c, 0, 36, 64
2, 20029, Note_off_c, 0, 43, 64
2, 20031, Note_on_c, 0, 36, 35
2, 20043, Control_c, 0, 64, 0
2, 20247, Control_c, 0, 64, 127
2, 20725, Note_off_c, 0, 36, 64
2, 21073, Control_c, 0, 64, 0
2, 21075, Note_off_c, 0, 72, 64
2, 21077, Note_off_c, 0, 76, 64
2, 21077, Note_off_c, 0, 79, 64
2, 21079, Note_on_c, 0, 67, 46
2, 21079, Note_on_c, 0, 41, 34
2, 21079, Note_on_c, 0, 48, 40
2, 21081, Note_on_c, 0, 60, 38
2, 21082, Note_on_c, 0, 88, 58
2, 21082, Note_on_c, 0, 57, 46
2, 21239, Note_off_c, 0, 67, 64
2, 21397, Note_on_c, 0, 67, 43
2, 21577, Note_off_c, 0, 67, 64
2, 21733, Note_on_c, 0, 64, 40
2, 21905, Note_off_c, 0, 64, 64
2, 22079, Note_off_c, 0, 41, 64
2, 22081, Note_off_c, 0, 48, 64
2, 22083, Note_off_c, 0, 60, 64
2, 22084, Note_off_c, 0, 88, 64
2, 22084, Note_off_c, 0, 57, 64
2, 22085, Note_on_c, 0, 36, 36
2, 22085, Note_on_c, 0, 67, 30
2, 22087, Note_on_c, 0, 79, 42
2, 22093, Control_c, 0, 64, 127
2, 22253, Note_on_c, 0, 43, 45
2, 22413, Note_off_c, 0, 43, 64
2, 22416, Note_on_c, 0, 52, 51
2, 22577, Note_off_c, 0, 52, 64
2, 22579, Note_on_c, 0, 55, 57
2, 22742, Note_off_c, 0, 55, 64
2, 22743, Note_off_c, 0, 67, 64
2, 22745, Note_on_c, 0, 60, 63
2, 22908, Note_off_c, 0, 60, 64
2, 22910, Note_on_c, 0, 64, 69
2, 23078, Note_off_c, 0, 64, 64
2, 23080, Note_on_c, 0, 67, 76
2, 23251, Note_off_c, 0, 67, 64
2, 23253, Note_on_c, 0, 64, 70
2, 23424, Note_off_c, 0, 64, 64
2, 23426, Note_on_c, 0, 60, 64
2, 23596, Note_off_c, 0, 60, 64
2, 23598, Note_on_c, 0, 55, 58
2, 23765, Note_off_c, 0, 55, 64
2, 23767, Note_on_c, 0, 52, 52
2, 23933, Note_off_c, 0, 52, 64
2, 23935, Note_on_c, 0, 43, 46
2, 23946, Note_off_c, 0, 36, 64
2, 24100, Note_off_c, 0, 43, 64
2, 24102, Note_on_c, 0, 36, 33
2, 24114, Control_c, 0, 64, 0
2, 24305, Control_c, 0, 64, 127
2, 24751, Note_off_c, 0, 36, 64
2, 25068, Note_off_c, 0, 79, 64
2, 25070, Note_on_c, 0, 64, 50
2, 25073, Note_on_c, 0, 42, 30
2, 25073, Note_on_c, 0, 48, 36
2, 25074, Note_on_c, 0, 57, 40
2, 25074, Note_on_c, 0, 69, 41
2, 25074, Note_on_c, 0, 72, 33
2, 25077, Note_on_c, 0, 81, 53
2, 25083, Control_c, 0, 64, 0
2, 25214, Note_off_c, 0, 64, 64
2, 25387, Note_on_c, 0, 64, 44
2, 25537, Note_off_c, 0, 64, 64
2, 25707, Note_on_c, 0, 60, 40
2, 25875, Note_off_c, 0, 60, 64
2, 26026, Note_off_c, 0, 42, 64
2, 26028, Note_off_c, 0, 48, 64
2, 26029, Note_off_c, 0, 69, 64
2, 26029, Note_off_c, 0, 57, 64
2, 26029, Note_off_c, 0, 72, 64
2, 26032, Note_off_c, 0, 81, 64
2, 26032, Note_on_c, 0, 83, 70
2, 26032, Note_on_c, 0, 35, 36
2, 26039, Control_c, 0, 64, 127
2, 26192, Note_on_c, 0, 42, 37
2, 26359, Note_off_c, 0, 42, 64
2, 26361, Note_on_c, 0, 47, 39
2, 26523, Note_off_c, 0, 47, 64
2, 26525, Note_on_c, 0, 51, 41
2, 26687, Note_off_c, 0, 51, 64
2, 26690, Note_on_c, 0, 54, 43
2, 26848, Note_off_c, 0, 54, 64
2, 26850, Note_on_c, 0, 59, 44
2, 27010, Note_off_c, 0, 59, 64
2, 27012, Note_off_c, 0, 35, 64
2, 27014, Note_on_c, 0, 71, 36
2, 27016, Note_on_c, 0, 75, 40
2, 27017, Note_on_c, 0, 61, 46
2, 27017, Note_on_c, 0, 78, 44
2, 27063, Control_c, 0, 64, 0
2, 27130, Note_off_c, 0, 75, 64
2, 27133, Note_off_c, 0, 78, 64
2, 27134, Note_off_c, 0, 71, 64
2, 27331, Note_on_c, 0, 71, 27
2, 27333, Note_on_c, 0, 75, 31
2, 27335, Note_on_c, 0, 78, 38
2, 27446, Note_off_c, 0, 78, 64
2, 27457, Note_off_c, 0, 71, 64
2, 27476, Note_off_c, 0, 75, 64
2, 27495, Note_off_c, 0, 61, 64
2, 27497, Note_on_c, 0, 63, 51
2, 27659, Note_on_c, 0, 66, 26
2, 27661, Note_on_c, 0, 71, 30
2, 27663, Note_on_c, 0, 75, 32
2, 27794, Note_off_c, 0, 71, 64
2, 27796, Note_off_c, 0, 75, 64
2, 27804, Note_off_c, 0, 66, 64
2, 27993, Note_off_c, 0, 63, 64
2, 27996, Note_on_c, 0, 35, 36
2, 28008, Control_c, 0, 64, 127
2, 28160, Note_on_c, 0, 42, 37
2, 28328, Note_off_c, 0, 42, 64
2, 28330, Note_on_c, 0, 47, 39
2, 28493, Note_off_c, 0, 47, 64
2, 28495, Note_on_c, 0, 51, 41
2, 28655, Note_off_c, 0, 51, 64
2, 28657, Note_on_c, 0, 54, 43
2, 28816, Note_off_c, 0, 54, 64
2, 28819, Note_on_c, 0, 59, 44
2, 28979, Note_off_c, 0, 59, 64
2, 28981, Note_off_c, 0, 35, 64
2, 28983, Note_on_c, 0, 71, 36
2, 28983, Note_on_c, 0, 75, 40
2, 28985, Note_on_c, 0, 78, 46
2, 28985, Note_on_c, 0, 61, 45
2, 28991, Control_c, 0, 64, 0
2, 29113, Note_off_c, 0, 78, 64
2, 29115, Note_off_c, 0, 71, 64
2, 29126, Note_off_c, 0, 75, 64
2, 29309, Note_on_c, 0, 71, 30
2, 29311, Note_on_c, 0, 75, 36
2, 29313, Note_on_c, 0, 78, 40
2, 29430, Note_off_c, 0, 71, 64
2, 29454, Note_off_c, 0, 75, 64
2, 29473, Note_off_c, 0, 78, 64
2, 29475, Note_on_c, 0, 63, 50
2, 29557, Note_off_c, 0, 61, 64
2, 29639, Note_on_c, 0, 66, 25
2, 29641, Note_on_c, 0, 71, 30
2, 29643, Note_on_c, 0, 75, 34
2, 29772, Note_off_c, 0, 71, 64
2, 29779, Note_off_c, 0, 75, 64
2, 29802, Note_off_c, 0, 66, 64
2, 29972, Note_on_c, 0, 71, 27
2, 29973, Note_on_c, 0, 75, 30
2, 29976, Note_on_c, 0, 78, 36
2, 29976, Note_on_c, 0, 61, 55
2, 30054, Note_off_c, 0, 63, 64
2, 30115, Note_off_c, 0, 71, 64
2, 30117, Note_off_c, 0, 78, 64
2, 30121, Note_off_c, 0, 75, 64
2, 30302, Note_on_c, 0, 71, 32
2, 30304, Note_on_c, 0, 75, 36
2, 30306, Note_on_c, 0, 78, 41
2, 30416, Note_off_c, 0, 78, 64
2, 30433, Note_off_c, 0, 71, 64
2, 30468, Note_on_c, 0, 63, 60
2, 30482, Note_off_c, 0, 75, 64
2, 30552, Note_off_c, 0, 61, 64
2, 30636, Note_on_c, 0, 66, 34
2, 30638, Note_on_c, 0, 71, 40
2, 30640, Note_on_c, 0, 75, 47
2, 30769, Note_off_c, 0, 71, 64
2, 30797, Note_off_c, 0, 75, 64
2, 30805, Note_off_c, 0, 66, 64
2, 30973, Note_on_c, 0, 71, 35
2, 30975, Note_on_c, 0, 75, 40
2, 30977, Note_on_c, 0, 78, 48
2, 30977, Note_on_c, 0, 61, 65
2, 31056, Note_off_c, 0, 63, 64
2, 31102, Note_off_c, 0, 78, 64
2, 31104, Note_off_c, 0, 71, 64
2, 31134, Note_off_c, 0, 75, 64
2, 31311, Note_on_c, 0, 71, 32
2, 31312, Note_on_c, 0, 75, 36
2, 31315, Note_on_c, 0, 78, 42
2, 31442, Note_off_c, 0, 71, 64
2, 31449, Note_off_c, 0, 78, 64
2, 31450, Note_off_c, 0, 75, 64
2, 31478, Note_on_c, 0, 63, 70
2, 31562, Note_off_c, 0, 61, 64
2, 31648, Note_on_c, 0, 66, 29
2, 31649, Note_on_c, 0, 71, 32
2, 31651, Note_on_c, 0, 75, 36
2, 31774, Note_off_c, 0, 75, 64
2, 31780, Note_off_c, 0, 71, 64
2, 31820, Note_off_c, 0, 66, 64
2, 31928, Note_off_c, 0, 63, 64
2, 31984, Note_on_c, 0, 61, 70
2, 31987, Note_on_c, 0, 75, 36
2, 31988, Note_on_c, 0, 78, 38
2, 31988, Note_on_c, 0, 71, 33
2, 32011, Control_c, 0, 64, 127
2, 32481, Note_on_c, 0, 63, 62
2, 32568, Note_off_c, 0, 61, 64
2, 33015, Note_on_c, 0, 61, 55
2, 33110, Note_off_c, 0, 63, 64
2, 33596, Note_on_c, 0, 59, 48
2, 33697, Note_off_c, 0, 61, 64
2, 34056, Note_off_c, 0, 59, 64
2, 34073, Note_off_c, 0, 83, 64
2, 34212, Note_off_c, 0, 75, 64
2, 34213, Note_off_c, 0, 78, 64
2, 34215, Note_off_c, 0, 71, 64
2, 34215, Note_on_c, 0, 43, 43
2, 34217, Note_on_c, 0, 59, 35
2, 34217, Note_on_c, 0, 83, 55
2, 34228, Control_c, 0, 64, 0
2, 34415, Note_on_c, 0, 50, 53
2, 34444, Control_c, 0, 64, 127
2, 34588, Note_off_c, 0, 50, 64
2, 34590, Note_on_c, 0, 55, 56
2, 34759, Note_off_c, 0, 55, 64
2, 34760, Note_on_c, 0, 62, 59
2, 34926, Note_off_c, 0, 62, 64
2, 34928, Note_on_c, 0, 67, 63
2, 35093, Note_off_c, 0, 67, 64
2, 35095, Note_on_c, 0, 71, 66
2, 35257, Note_off_c, 0, 71, 64
2, 35260, Note_on_c, 0, 74, 69
2, 35582, Note_off_c, 0, 74, 64
2, 36218, Note_off_c, 0, 43, 64
2, 36220, Note_off_c, 0, 59, 64
2, 36223, Note_off_c, 0, 83, 64
2, 36223, Note_on_c, 0, 40, 38
2, 36224, Note_on_c, 0, 55, 30
2, 36224, Note_on_c, 0, 79, 50
2, 36232, Control_c, 0, 64, 0
2, 36378, Note_on_c, 0, 47, 52
2, 36407, Control_c, 0, 64, 127
2, 36550, Note_off_c, 0, 47, 64
2, 36552, Note_on_c, 0, 51, 54
2, 36721, Note_off_c, 0, 51, 64
2, 36722, Note_on_c, 0, 63, 57
2, 36889, Note_off_c, 0, 63, 64
2, 36891, Note_on_c, 0, 67, 59
2, 37055, Note_off_c, 0, 67, 64
2, 37058, Note_on_c, 0, 71, 62
2, 37220, Note_off_c, 0, 71, 64
2, 37222, Note_on_c, 0, 75, 64
2, 37544, Note_off_c, 0, 75, 64
2, 37545, Note_off_c, 0, 55, 64
2, 37547, Note_off_c, 0, 79, 64
2, 37548, Note_on_c, 0, 57, 57
2, 37549, Note_on_c, 0, 81, 69
2, 37871, Note_off_c, 0, 57, 64
2, 37873, Note_off_c, 0, 81, 64
2, 37874, Note_on_c, 0, 55, 40
2, 37875, Note_on_c, 0, 79, 50
2, 38210, Note_off_c, 0, 55, 64
2, 38213, Note_off_c, 0, 79, 64
2, 38214, Note_off_c, 0, 40, 64
2, 38215, Note_on_c, 0, 43, 42
2, 38216, Note_on_c, 0, 59, 34
2, 38216, Note_on_c, 0, 83, 54
2, 38224, Control_c, 0, 64, 0
2, 38383, Note_on_c, 0, 50, 57
2, 38411, Control_c, 0, 64, 127
2, 38555, Note_off_c, 0, 50, 64
2, 38557, Note_on_c, 0, 55, 59
2, 38727, Note_off_c, 0, 55, 64
2, 38729, Note_on_c, 0, 62, 62
2, 38895, Note_off_c, 0, 62, 64
2, 38897, Note_on_c, 0, 67, 64
2, 39061, Note_off_c, 0, 67, 64
2, 39063, Note_on_c, 0, 71, 67
2, 39225, Note_off_c, 0, 71, 64
2, 39227, Note_on_c, 0, 74, 69
2, 39550, Note_off_c, 0, 74, 64
2, 40186, Note_off_c, 0, 43, 64
2, 40188, Note_off_c, 0, 59, 64
2, 40190, Note_off_c, 0, 83, 64
2, 40190, Note_on_c, 0, 40, 34
2, 40192, Note_on_c, 0, 55, 40
2, 40192, Note_on_c, 0, 79, 50
2, 40199, Control_c, 0, 64, 0
2, 40345, Note_on_c, 0, 47, 52
2, 40374, Control_c, 0, 64, 127
2, 40518, Note_off_c, 0, 47, 64
2, 40520, Note_on_c, 0, 51, 54
2, 40688, Note_off_c, 0, 51, 64
2, 40690, Note_on_c, 0, 63, 57
2, 40858, Note_off_c, 0, 63, 64
2, 40860, Note_on_c, 0, 67, 59
2, 41023, Note_off_c, 0, 67, 64
2, 41025, Note_on_c, 0, 71, 62
2, 41187, Note_off_c, 0, 71, 64
2, 41189, Note_on_c, 0, 75, 64
2, 41512, Note_off_c, 0, 75, 64
2, 41514, Note_off_c, 0, 55, 64
2, 41516, Note_off_c, 0, 79, 64
2, 41516, Note_on_c, 0, 57, 60
2, 41516, Note_on_c, 0, 81, 69
2, 41838, Note_off_c, 0, 57, 64
2, 41840, Note_off_c, 0, 81, 64
2, 41842, Note_on_c, 0, 55, 42
2, 41842, Note_on_c, 0, 79, 50
2, 42178, Note_off_c, 0, 55, 64
2, 42180, Note_off_c, 0, 79, 64
2, 42182, Note_off_c, 0, 40, 64
2, 42182, Note_on_c, 0, 36, 60
2, 42183, Note_on_c, 0, 67, 64
2, 42183, Note_on_c, 0, 88, 56
2, 42183, Note_on_c, 0, 91, 76
2, 42191, Control_c, 0, 64, 0
2, 42350, Note_on_c, 0, 43, 76
2, 42379, Control_c, 0, 64, 127
2, 42523, Note_off_c, 0, 43, 64
2, 42525, Note_on_c, 0, 48, 77
2, 42694, Note_off_c, 0, 48, 64
2, 42696, Note_on_c, 0, 52, 77
2, 42862, Note_off_c, 0, 52, 64
2, 42864, Note_on_c, 0, 55, 78
2, 43029, Note_off_c, 0, 55, 64
2, 43031, Note_on_c, 0, 60, 79
2, 43192, Note_off_c, 0, 60, 64
2, 43194, Note_on_c, 0, 64, 79
2, 43517, Note_off_c, 0, 64, 64
2, 44154, Note_off_c, 0, 36, 64
2, 44156, Note_off_c, 0, 88, 64
2, 44157, Note_off_c, 0, 91, 64
2, 44158, Note_on_c, 0, 86, 63
2, 44158, Note_on_c, 0, 90, 72
2, 44167, Control_c, 0, 64, 0
2, 44341, Control_c, 0, 64, 127
2, 44639, Note_off_c, 0, 86, 64
2, 44641, Note_off_c, 0, 90, 64
2, 44643, Note_on_c, 0, 84, 52
2, 44643, Note_on_c, 0, 88, 64
2, 45035, Note_off_c, 0, 67, 64
2, 45131, Note_on_c, 0, 67, 57
2, 45368, Note_off_c, 0, 84, 64
2, 45466, Note_off_c, 0, 67, 64
2, 45468, Note_off_c, 0, 88, 64
2, 45470, Note_on_c, 0, 69, 40
2, 45470, Note_on_c, 0, 81, 32
2, 45473, Note_on_c, 0, 84, 52
2, 45481, Control_c, 0, 64, 0
2, 45664, Control_c, 0, 64, 127
2, 45807, Note_off_c, 0, 69, 64
2, 45809, Note_off_c, 0, 81, 64
2, 45811, Note_off_c, 0, 84, 64
2, 45811, Note_on_c, 0, 71, 32
2, 45811, Note_on_c, 0, 79, 36
2, 45814, Note_on_c, 0, 83, 48
2, 46153, Note_off_c, 0, 71, 64
2, 46154, Note_off_c, 0, 79, 64
2, 46156, Note_on_c, 0, 38, 32
2, 46157, Note_off_c, 0, 83, 64
2, 46159, Note_on_c, 0, 72, 30
2, 46159, Note_on_c, 0, 78, 36
2, 46159, Note_on_c, 0, 81, 46
2, 46166, Control_c, 0, 64, 0
2, 46325, Note_on_c, 0, 45, 39
2, 46354, Control_c, 0, 64, 127
2, 46466, Note_off_c, 0, 78, 64
2, 46497, Note_off_c, 0, 45, 64
2, 46500, Note_on_c, 0, 50, 40
2, 46501, Note_off_c, 0, 81, 64
2, 46671, Note_off_c, 0, 50, 64
2, 46673, Note_on_c, 0, 78, 45
2, 46675, Note_on_c, 0, 81, 51
2, 46675, Note_on_c, 0, 54, 41
2, 46844, Note_off_c, 0, 54, 64
2, 46846, Note_on_c, 0, 60, 42
2, 47013, Note_off_c, 0, 60, 64
2, 47015, Note_on_c, 0, 62, 43
2, 47182, Note_off_c, 0, 62, 64
2, 47184, Note_on_c, 0, 64, 45
2, 47195, Note_off_c, 0, 81, 64
2, 47234, Note_off_c, 0, 78, 64
2, 47365, Control_c, 0, 64, 0
2, 47518, Note_on_c, 0, 76, 50
2, 47520, Note_on_c, 0, 79, 57
2, 47546, Control_c, 0, 64, 127
2, 47657, Note_off_c, 0, 79, 64
2, 47675, Note_off_c, 0, 76, 64
2, 47685, Note_off_c, 0, 64, 64
2, 47687, Note_on_c, 0, 66, 48
2, 47850, Note_on_c, 0, 78, 50
2, 47852, Note_on_c, 0, 81, 59
2, 47984, Note_off_c, 0, 78, 64
2, 47998, Note_off_c, 0, 81, 64
2, 48181, Note_off_c, 0, 66, 64
2, 48182, Note_off_c, 0, 38, 64
2, 48185, Note_off_c, 0, 72, 64
2, 48185, Note_on_c, 0, 71, 45
2, 48185, Note_on_c, 0, 79, 50
2, 48187, Note_on_c, 0, 83, 57
2, 48187, Note_on_c, 0, 43, 47
2, 48192, Control_c, 0, 64, 0
2, 48297, Note_off_c, 0, 83, 64
2, 48342, Note_off_c, 0, 79, 64
2, 48344, Note_on_c, 0, 50, 50
2, 48369, Control_c, 0, 64, 127
2, 48505, Note_off_c, 0, 50, 64
2, 48507, Note_on_c, 0, 83, 58
2, 48509, Note_on_c, 0, 86, 64
2, 48509, Note_on_c, 0, 55, 54
2, 48620, Note_off_c, 0, 86, 64
2, 48644, Note_off_c, 0, 83, 64
2, 48665, Note_off_c, 0, 55, 64
2, 48668, Note_on_c, 0, 59, 58
2, 48813, Control_c, 0, 64, 0
2, 48827, Note_off_c, 0, 59, 64
2, 48829, Note_on_c, 0, 86, 65
2, 48831, Note_on_c, 0, 90, 72
2, 48831, Note_on_c, 0, 62, 61
2, 48938, Note_off_c, 0, 86, 64
2, 48950, Note_off_c, 0, 90, 64
2, 48987, Control_c, 0, 64, 127
2, 48989, Note_off_c, 0, 62, 64
2, 48991, Note_on_c, 0, 67, 59
2, 49147, Note_off_c, 0, 67, 64
2, 49148, Note_on_c, 0, 83, 57
2, 49150, Note_on_c, 0, 86, 66
2, 49150, Note_on_c, 0, 69, 56
2, 49276, Note_off_c, 0, 86, 64
2, 49278, Note_off_c, 0, 83, 64
2, 49472, Control_c, 0, 64, 0
2, 49474, Note_on_c, 0, 79, 55
2, 49476, Note_on_c, 0, 83, 61
2, 49567, Note_off_c, 0, 71, 64
2, 49593, Note_off_c, 0, 83, 64
2, 49626, Note_off_c, 0, 79, 64
2, 49636, Note_off_c, 0, 69, 64
2, 49638, Note_on_c, 0, 71, 58
2, 49650, Control_c, 0, 64, 127
2, 49804, Note_on_c, 0, 76, 50
2, 49806, Note_on_c, 0, 79, 56
2, 49933, Note_off_c, 0, 79, 64
2, 49952, Note_off_c, 0, 76, 64
2, 50146, Note_off_c, 0, 71, 64
2, 50148, Note_off_c, 0, 43, 64
2, 50150, Note_on_c, 0, 72, 20
2, 50150, Note_on_c, 0, 78, 26
2, 50152, Note_on_c, 0, 81, 36
2, 50152, Note_on_c, 0, 38, 16
2, 50160, Control_c, 0, 64, 0
2, 50320, Note_on_c, 0, 45, 29
2, 50347, Control_c, 0, 64, 127
2, 50460, Note_off_c, 0, 78, 64
2, 50493, Note_off_c, 0, 45, 64
2, 50494, Note_on_c, 0, 50, 30
2, 50497, Note_off_c, 0, 81, 64
2, 50665, Note_off_c, 0, 50, 64
2, 50667, Note_on_c, 0, 78, 35
2, 50669, Note_on_c, 0, 81, 41
2, 50669, Note_on_c, 0, 54, 31
2, 50837, Note_off_c, 0, 54, 64
2, 50839, Note_on_c, 0, 60, 32
2, 51007, Note_off_c, 0, 60, 64
2, 51009, Note_on_c, 0, 62, 33
2, 51177, Note_off_c, 0, 62, 64
2, 51179, Note_on_c, 0, 64, 35
2, 51189, Note_off_c, 0, 81, 64
2, 51228, Note_off_c, 0, 78, 64
2, 51359, Control_c, 0, 64, 0
2, 51513, Note_on_c, 0, 76, 40
2, 51515, Note_on_c, 0, 79, 47
2, 51541, Control_c, 0, 64, 127
2, 51651, Note_off_c, 0, 79, 64
2, 51669, Note_off_c, 0, 76, 64
2, 51679, Note_off_c, 0, 64, 64
2, 51681, Note_on_c, 0, 66, 38
2, 51845, Note_on_c, 0, 78, 40
2, 51847, Note_on_c, 0, 81, 49
2, 51980, Note_off_c, 0, 78, 64
2, 51993, Note_off_c, 0, 81, 64
2, 52174, Note_off_c, 0, 66, 64
2, 52176, Note_off_c, 0, 72, 64
2, 52178, Note_off_c, 0, 38, 64
2, 52178, Note_on_c, 0, 71, 35
2, 52180, Note_on_c, 0, 79, 40
2, 52180, Note_on_c, 0, 83, 47
2, 52180, Note_on_c, 0, 43, 37
2, 52188, Control_c, 0, 64, 0
2, 52292, Note_off_c, 0, 83, 64
2, 52337, Note_off_c, 0, 79, 64
2, 52339, Note_on_c, 0, 50, 40
2, 52365, Control_c, 0, 64, 127
2, 52502, Note_off_c, 0, 50, 64
2, 52504, Note_on_c, 0, 83, 48
2, 52506, Note_on_c, 0, 86, 54
2, 52507, Note_on_c, 0, 55, 44
2, 52616, Note_off_c, 0, 86, 64
2, 52639, Note_off_c, 0, 83, 64
2, 52662, Note_off_c, 0, 55, 64
2, 52664, Note_on_c, 0, 59, 48
2, 52809, Control_c, 0, 64, 0
2, 52822, Note_off_c, 0, 59, 64
2, 52824, Note_on_c, 0, 86, 55
2, 52826, Note_on_c, 0, 90, 62
2, 52826, Note_on_c, 0, 62, 51
2, 52933, Note_off_c, 0, 86, 64
2, 52946, Note_off_c, 0, 90, 64
2, 52983, Control_c, 0, 64, 127
2, 52985, Note_off_c, 0, 62, 64
2, 52987, Note_on_c, 0, 67, 49
2, 53143, Note_off_c, 0, 67, 64
2, 53145, Note_on_c, 0, 83, 47
2, 53146, Note_on_c, 0, 86, 56
2, 53147, Note_on_c, 0, 69, 46
2, 53272, Note_off_c, 0, 86, 64
2, 53275, Note_off_c, 0, 83, 64
2, 53468, Control_c, 0, 64, 0
2, 53470, Note_on_c, 0, 79, 45
2, 53472, Note_on_c, 0, 83, 51
2, 53564, Note_off_c, 0, 71, 64
2, 53590, Note_off_c, 0, 83, 64
2, 53624, Note_off_c, 0, 79, 64
2, 53634, Note_off_c, 0, 69, 64
2, 53635, Note_on_c, 0, 71, 48
2, 53648, Control_c, 0, 64, 127
2, 53803, Note_on_c, 0, 76, 40
2, 53805, Note_on_c, 0, 79, 46
2, 53935, Note_off_c, 0, 79, 64
2, 53954, Note_off_c, 0, 76, 64
2, 54150, Note_off_c, 0, 71, 64
2, 54151, Note_off_c, 0, 43, 64
2, 54153, Note_on_c, 0, 33, 48
2, 54153, Note_on_c, 0, 72, 42
2, 54156, Note_on_c, 0, 76, 50
2, 54156, Note_on_c, 0, 79, 62
2, 54164, Control_c, 0, 64, 0
2, 54324, Note_on_c, 0, 40, 60
2, 54352, Control_c, 0, 64, 127
2, 54492, Note_off_c, 0, 76, 64
2, 54493, Note_off_c, 0, 79, 64
2, 54496, Note_on_c, 0, 45, 58
2, 54623, Note_off_c, 0, 40, 64
2, 54666, Note_on_c, 0, 52, 45
2, 54668, Note_on_c, 0, 76, 50
2, 54670, Note_on_c, 0, 79, 57
2, 54678, Note_off_c, 0, 45, 64
2, 54831, Note_on_c, 0, 55, 55
2, 54927, Note_off_c, 0, 52, 64
2, 54996, Note_on_c, 0, 60, 54
2, 55022, Note_off_c, 0, 55, 64
2, 55156, Note_off_c, 0, 60, 64
2, 55158, Note_off_c, 0, 72, 64
2, 55160, Note_on_c, 0, 62, 52
2, 55190, Note_off_c, 0, 76, 64
2, 55213, Note_off_c, 0, 79, 64
2, 55424, Control_c, 0, 64, 0
2, 55478, Note_on_c, 0, 72, 42
2, 55480, Note_on_c, 0, 76, 49
2, 55615, Note_off_c, 0, 72, 64
2, 55636, Note_off_c, 0, 76, 64
2, 55639, Note_on_c, 0, 64, 47
2, 55706, Note_off_c, 0, 62, 64
2, 55801, Note_on_c, 0, 69, 40
2, 55803, Note_on_c, 0, 72, 46
2, 55956, Note_off_c, 0, 72, 64
2, 55961, Note_off_c, 0, 69, 64
2, 56074, Note_off_c, 0, 64, 64
2, 56128, Note_off_c, 0, 33, 64
2, 56130, Note_on_c, 0, 45, 40
2, 56132, Note_on_c, 0, 52, 43
2, 56132, Note_on_c, 0, 64, 57
2, 56134, Note_on_c, 0, 67, 63
2, 56141, Control_c, 0, 64, 127
2, 56455, Note_off_c, 0, 64, 64
2, 56457, Note_off_c, 0, 67, 64
2, 56625, Note_on_c, 0, 64, 48
2, 56628, Note_on_c, 0, 67, 56
2, 57165, Note_off_c, 0, 64, 64
2, 57190, Note_off_c, 0, 67, 64
2, 57342, Control_c, 0, 64, 0
2, 57469, Note_on_c, 0, 60, 40
2, 57471, Note_on_c, 0, 64, 46
2, 57617, Note_off_c, 0, 60, 64
2, 57638, Note_off_c, 0, 64, 64
2, 57814, Note_on_c, 0, 57, 36
2, 57816, Note_on_c, 0, 60, 42
2, 57976, Note_off_c, 0, 60, 64
2, 57982, Note_off_c, 0, 57, 64
2, 58160, Note_off_c, 0, 45, 64
2, 58162, Note_off_c, 0, 52, 64
2, 58164, Note_on_c, 0, 48, 35
2, 58164, Note_on_c, 0, 50, 43
2, 58166, Note_on_c, 0, 54, 41
2, 58166, Note_on_c, 0, 57, 33
2, 58166, Note_on_c, 0, 66, 53
2, 58174, Control_c, 0, 64, 127
2, 58327, Note_on_c, 0, 69, 49
2, 58390, Note_off_c, 0, 66, 64
2, 58495, Note_on_c, 0, 71, 48
2, 58542, Note_off_c, 0, 69, 64
2, 58660, Note_on_c, 0, 72, 46
2, 58698, Note_off_c, 0, 71, 64
2, 58824, Note_on_c, 0, 74, 45
2, 58843, Note_off_c, 0, 72, 64
2, 58989, Note_on_c, 0, 76, 43
2, 59054, Note_off_c, 0, 74, 64
2, 59151, Note_on_c, 0, 78, 37
2, 59153, Note_on_c, 0, 81, 42
2, 59193, Note_off_c, 0, 76, 64
2, 59313, Note_on_c, 0, 83, 40
2, 59345, Note_off_c, 0, 81, 64
2, 59473, Note_off_c, 0, 48, 64
2, 59475, Note_on_c, 0, 47, 35
2, 59477, Note_on_c, 0, 84, 39
2, 59509, Note_off_c, 0, 83, 64
2, 59631, Note_on_c, 0, 86, 37
2, 59648, Note_off_c, 0, 84, 64
2, 59731, Note_off_c, 0, 50, 64
2, 59757, Note_off_c, 0, 54, 64
2, 59789, Note_off_c, 0, 47, 64
2, 59791, Note_on_c, 0, 45, 35
2, 59793, Note_on_c, 0, 88, 36
2, 59795, Note_off_c, 0, 57, 64
2, 59832, Note_off_c, 0, 86, 64
2, 59947, Note_on_c, 0, 90, 34
2, 59982, Note_off_c, 0, 88, 64
2, 60103, Note_off_c, 0, 45, 64
2, 60106, Note_off_c, 0, 78, 64
2, 60107, Note_on_c, 0, 43, 27
2, 60107, Note_on_c, 0, 55, 35
2, 60107, Note_on_c, 0, 59, 39
2, 60109, Note_on_c, 0, 74, 37
2, 60109, Note_on_c, 0, 79, 31
2, 60109, Note_on_c, 0, 83, 23
2, 60111, Note_on_c, 0, 91, 43
2, 60111, Note_on_c, 0, 50, 33
2, 60115, Control_c, 0, 64, 0
2, 60119, Note_off_c, 0, 90, 64
2, 60288, Control_c, 0, 64, 127
2, 60421, Note_off_c, 0, 55, 64
2, 60423, Note_off_c, 0, 59, 64
2, 60425, Note_off_c, 0, 74, 64
2, 60425, Note_off_c, 0, 79, 64
2, 60427, Note_off_c, 0, 83, 64
2, 60427, Note_off_c, 0, 91, 64
2, 60516, Note_off_c, 0, 43, 64
2, 60519, Note_off_c, 0, 50, 64
2, 60739, Note_on_c, 0, 43, 44
2, 61258, Control_c, 0, 64, 0
2, 61377, Note_off_c, 0, 43, 64
2, 61380, Note_on_c, 0, 42, 40
2, 61504, Note_off_c, 0, 42, 64
2, 61695, Note_on_c, 0, 40, 38
2, 61831, Note_off_c, 0, 40, 64
2, 62015, Note_on_c, 0, 62, 74
2, 62017, Note_on_c, 0, 38, 50
2, 62019, Note_on_c, 0, 45, 60
2, 62019, Note_on_c, 0, 54, 54
2, 62027, Control_c, 0, 64, 127
2, 62484, Note_on_c, 0, 61, 80
2, 62510, Note_off_c, 0, 62, 64
2, 62643, Note_on_c, 0, 57, 72
2, 62670, Note_off_c, 0, 61, 64
2, 62891, Note_off_c, 0, 57, 64
2, 62962, Note_on_c, 0, 61, 79
2, 63589, Note_off_c, 0, 45, 64
2, 63616, Note_off_c, 0, 54, 64
2, 63938, Note_off_c, 0, 38, 64
2, 63940, Note_on_c, 0, 39, 42
2, 63942, Note_on_c, 0, 45, 54
2, 63942, Note_on_c, 0, 54, 68
2, 63950, Control_c, 0, 64, 0
2, 64115, Control_c, 0, 64, 127
2, 64242, Note_on_c, 0, 59, 78
2, 64293, Note_off_c, 0, 61, 64
2, 64553, Note_on_c, 0, 57, 76
2, 64604, Note_off_c, 0, 59, 64
2, 64804, Note_off_c, 0, 57, 64
2, 64867, Note_on_c, 0, 61, 81
2, 65477, Note_off_c, 0, 54, 64
2, 65555, Note_off_c, 0, 45, 64
2, 65662, Note_off_c, 0, 39, 64
2, 65840, Note_on_c, 0, 55, 71
2, 65842, Note_on_c, 0, 40, 59
2, 65844, Note_on_c, 0, 45, 51
2, 65854, Control_c, 0, 64, 0
2, 66019, Control_c, 0, 64, 127
2, 66148, Note_on_c, 0, 59, 52
2, 66199, Note_off_c, 0, 61, 64
2, 66461, Note_on_c, 0, 57, 55
2, 66514, Note_off_c, 0, 59, 64
2, 66688, Note_off_c, 0, 57, 64
2, 66784, Note_off_c, 0, 55, 64
2, 66786, Note_on_c, 0, 49, 46
2, 66788, Note_on_c, 0, 64, 50
2, 66788, Note_on_c, 0, 67, 59
2, 66798, Control_c, 0, 64, 0
2, 66911, Note_off_c, 0, 67, 64
2, 66964, Note_off_c, 0, 49, 64
2, 66973, Control_c, 0, 64, 127
2, 67106, Note_off_c, 0, 64, 64
2, 67268, Note_on_c, 0, 52, 55
2, 67270, Note_on_c, 0, 64, 65
2, 67279, Control_c, 0, 64, 0
2, 67327, Note_off_c, 0, 45, 64
2, 67343, Note_off_c, 0, 40, 64
2, 67425, Note_on_c, 0, 55, 52
2, 67427, Note_on_c, 0, 57, 60
2, 67429, Note_on_c, 0, 61, 67
2, 67451, Control_c, 0, 64, 127
2, 67478, Note_off_c, 0, 52, 64
2, 67480, Note_off_c, 0, 64, 64
2, 67669, Note_off_c, 0, 57, 64
2, 67685, Note_off_c, 0, 61, 64
2, 67704, Note_off_c, 0, 55, 64
2, 67741, Note_on_c, 0, 40, 42
2, 67743, Note_on_c, 0, 45, 62
2, 67745, Note_on_c, 0, 52, 58
2, 67745, Note_on_c, 0, 67, 50
2, 67745, Note_on_c, 0, 71, 70
2, 67753, Control_c, 0, 64, 0
2, 67887, Note_off_c, 0, 71, 64
2, 67891, Note_off_c, 0, 52, 64
2, 67922, Control_c, 0, 64, 127
2, 68052, Note_off_c, 0, 67, 64
2, 68207, Note_on_c, 0, 55, 65
2, 68209, Note_on_c, 0, 67, 76
2, 68219, Control_c, 0, 64, 0
2, 68361, Note_on_c, 0, 59, 66
2, 68363, Note_on_c, 0, 61, 70
2, 68365, Note_on_c, 0, 64, 78
2, 68385, Control_c, 0, 64, 127
2, 68412, Note_off_c, 0, 55, 64
2, 68414, Note_off_c, 0, 67, 64
2, 68596, Note_off_c, 0, 40, 64
2, 68601, Note_off_c, 0, 64, 64
2, 68611, Note_off_c, 0, 59, 64
2, 68614, Note_off_c, 0, 45, 64
2, 68634, Note_off_c, 0, 61, 64
2, 68666, Note_on_c, 0, 33, 64
2, 68668, Note_on_c, 0, 45, 76
2, 68670, Note_on_c, 0, 55, 70
2, 68670, Note_on_c, 0, 73, 62
2, 68672, Note_on_c, 0, 78, 82
2, 68678, Control_c, 0, 64, 0
2, 68786, Note_off_c, 0, 73, 64
2, 68797, Note_off_c, 0, 78, 64
2, 68811, Note_off_c, 0, 55, 64
2, 68843, Control_c, 0, 64, 127
2, 68969, Note_on_c, 0, 57, 74
2, 68971, Note_on_c, 0, 64, 66
2, 68972, Note_on_c, 0, 73, 86
2, 68982, Control_c, 0, 64, 0
2, 69077, Note_off_c, 0, 57, 64
2, 69086, Note_off_c, 0, 73, 64
2, 69121, Note_off_c, 0, 64, 64
2, 69149, Control_c, 0, 64, 127
2, 69281, Note_on_c, 0, 61, 82
2, 69283, Note_on_c, 0, 67, 79
2, 69284, Note_on_c, 0, 69, 89
2, 69293, Control_c, 0, 64, 0
2, 69385, Note_off_c, 0, 67, 64
2, 69398, Note_off_c, 0, 61, 64
2, 69410, Note_off_c, 0, 69, 64
2, 69420, Note_off_c, 0, 33, 64
2, 69451, Note_off_c, 0, 45, 64
2, 69465, Control_c, 0, 64, 127
2, 69599, Note_on_c, 0, 62, 71
2, 69601, Note_on_c, 0, 38, 50
2, 69603, Note_on_c, 0, 45, 60
2, 69603, Note_on_c, 0, 54, 54
2, 69611, Control_c, 0, 64, 127
2, 70055, Note_on_c, 0, 61, 71
2, 70106, Note_off_c, 0, 62, 64
2, 70209, Note_on_c, 0, 57, 74
2, 70261, Note_off_c, 0, 61, 64
2, 70431, Note_off_c, 0, 57, 64
2, 70520, Note_on_c, 0, 61, 78
2, 71129, Note_off_c, 0, 45, 64
2, 71155, Note_off_c, 0, 54, 64
2, 71469, Note_off_c, 0, 38, 64
2, 71471, Note_on_c, 0, 39, 48
2, 71473, Note_on_c, 0, 45, 60
2, 71473, Note_on_c, 0, 54, 74
2, 71481, Control_c, 0, 64, 0
2, 71646, Control_c, 0, 64, 127
2, 71773, Note_on_c, 0, 59, 75
2, 71824, Note_off_c, 0, 61, 64
2, 72080, Note_on_c, 0, 57, 72
2, 72131, Note_off_c, 0, 59, 64
2, 72254, Note_off_c, 0, 57, 64
2, 72390, Note_on_c, 0, 61, 79
2, 72986, Note_off_c, 0, 54, 64
2, 73062, Note_off_c, 0, 45, 64
2, 73166, Note_off_c, 0, 39, 64
2, 73340, Note_on_c, 0, 55, 77
2, 73342, Note_on_c, 0, 40, 65
2, 73344, Note_on_c, 0, 45, 57
2, 73353, Control_c, 0, 64, 0
2, 73523, Control_c, 0, 64, 127
2, 73656, Note_on_c, 0, 59, 52
2, 73709, Note_off_c, 0, 61, 64
2, 73968, Note_on_c, 0, 57, 55
2, 74020, Note_off_c, 0, 59, 64
2, 74188, Note_off_c, 0, 57, 64
2, 74277, Note_off_c, 0, 55, 64
2, 74279, Note_on_c, 0, 49, 46
2, 74281, Note_on_c, 0, 64, 50
2, 74281, Note_on_c, 0, 67, 59
2, 74289, Control_c, 0, 64, 0
2, 74396, Note_off_c, 0, 67, 64
2, 74445, Note_off_c, 0, 49, 64
2, 74453, Control_c, 0, 64, 127
2, 74581, Note_off_c, 0, 64, 64
2, 74732, Note_on_c, 0, 52, 55
2, 74734, Note_on_c, 0, 64, 65
2, 74745, Control_c, 0, 64, 0
2, 74792, Note_off_c, 0, 45, 64
2, 74808, Note_off_c, 0, 40, 64
2, 74890, Note_on_c, 0, 55, 52
2, 74892, Note_on_c, 0, 57, 60
2, 74894, Note_on_c, 0, 61, 67
2, 74916, Control_c, 0, 64, 127
2, 74943, Note_off_c, 0, 52, 64
2, 74945, Note_off_c, 0, 64, 64
2, 75135, Note_off_c, 0, 57, 64
2, 75151, Note_off_c, 0, 61, 64
2, 75170, Note_off_c, 0, 55, 64
2, 75207, Note_on_c, 0, 40, 42
2, 75209, Note_on_c, 0, 45, 62
2, 75211, Note_on_c, 0, 52, 58
2, 75211, Note_on_c, 0, 67, 50
2, 75213, Note_on_c, 0, 71, 70
2, 75218, Control_c, 0, 64, 0
2, 75352, Note_off_c, 0, 71, 64
2, 75357, Note_off_c, 0, 52, 64
2, 75388, Control_c, 0, 64, 127
2, 75518, Note_off_c, 0, 67, 64
2, 75674, Note_on_c, 0, 55, 65
2, 75675, Note_on_c, 0, 67, 76
2, 75685, Control_c, 0, 64, 0
2, 75826, Note_on_c, 0, 59, 66
2, 75828, Note_on_c, 0, 61, 70
2, 75830, Note_on_c, 0, 64, 78
2, 75853, Control_c, 0, 64, 127
2, 75877, Note_off_c, 0, 55, 64
2, 75878, Note_off_c, 0, 67, 64
2, 76061, Note_off_c, 0, 40, 64
2, 76067, Note_off_c, 0, 64, 64
2, 76077, Note_off_c, 0, 59, 64
2, 76080, Note_off_c, 0, 45, 64
2, 76099, Note_off_c, 0, 61, 64
2, 76131, Note_on_c, 0, 33, 64
2, 76133, Note_on_c, 0, 45, 76
2, 76135, Note_on_c, 0, 55, 70
2, 76135, Note_on_c, 0, 73, 62
2, 76137, Note_on_c, 0, 78, 82
2, 76145, Control_c, 0, 64, 0
2, 76252, Note_off_c, 0, 73, 64
2, 76263, Note_off_c, 0, 78, 64
2, 76277, Note_off_c, 0, 55, 64
2, 76309, Control_c, 0, 64, 127
2, 76437, Note_on_c, 0, 57, 74
2, 76439, Note_on_c, 0, 64, 66
2, 76441, Note_on_c, 0, 73, 86
2, 76450, Control_c, 0, 64, 0
2, 76545, Note_off_c, 0, 57, 64
2, 76556, Note_off_c, 0, 73, 64
2, 76590, Note_off_c, 0, 64, 64
2, 76618, Control_c, 0, 64, 127
2, 76750, Note_on_c, 0, 61, 82
2, 76752, Note_on_c, 0, 67, 79
2, 76753, Note_on_c, 0, 69, 89
2, 76762, Control_c, 0, 64, 0
2, 76854, Note_off_c, 0, 67, 64
2, 76869, Note_off_c, 0, 61, 64
2, 76879, Note_off_c, 0, 69, 64
2, 76934, Control_c, 0, 64, 127
2, 77068, Note_off_c, 0, 33, 64
2, 77070, Note_off_c, 0, 45, 64
2, 77072, Note_on_c, 0, 62, 36
2, 77072, Note_on_c, 0, 69, 45
2, 77074, Note_on_c, 0, 78, 40
2, 77074, Note_on_c, 0, 86, 60
2, 77080, Control_c, 0, 64, 0
2, 77245, Control_c, 0, 64, 127
2, 77524, Note_off_c, 0, 86, 64
2, 77526, Note_on_c, 0, 85, 51
2, 77680, Note_off_c, 0, 85, 64
2, 77682, Note_on_c, 0, 81, 48
2, 77990, Note_off_c, 0, 81, 64
2, 77992, Note_on_c, 0, 85, 50
2, 78567, Note_off_c, 0, 69, 64
2, 78570, Note_off_c, 0, 78, 64
2, 78739, Note_off_c, 0, 62, 64
2, 78940, Note_on_c, 0, 63, 34
2, 78942, Note_on_c, 0, 69, 40
2, 78944, Note_on_c, 0, 77, 60
2, 78952, Control_c, 0, 64, 0
2, 79117, Control_c, 0, 64, 127
2, 79245, Note_off_c, 0, 85, 64
2, 79246, Note_on_c, 0, 83, 52
2, 79550, Note_off_c, 0, 83, 64
2, 79552, Note_on_c, 0, 81, 45
2, 79861, Note_off_c, 0, 81, 64
2, 79863, Note_on_c, 0, 85, 62
2, 80383, Note_off_c, 0, 69, 64
2, 80418, Note_off_c, 0, 63, 64
2, 80462, Note_off_c, 0, 77, 64
2, 80811, Note_on_c, 0, 64, 38
2, 80813, Note_on_c, 0, 69, 34
2, 80815, Note_on_c, 0, 76, 48
2, 80824, Control_c, 0, 64, 0
2, 80996, Control_c, 0, 64, 127
2, 81223, Note_off_c, 0, 85, 64
2, 81290, Note_on_c, 0, 83, 55
2, 81446, Note_on_c, 0, 81, 57
2, 81540, Note_off_c, 0, 83, 64
2, 81659, Note_off_c, 0, 81, 64
2, 81695, Note_off_c, 0, 69, 64
2, 81710, Note_off_c, 0, 76, 64
2, 81761, Note_on_c, 0, 63, 32
2, 81763, Note_on_c, 0, 69, 48
2, 81765, Note_on_c, 0, 54, 38
2, 81765, Note_on_c, 0, 73, 42
2, 81767, Note_on_c, 0, 81, 50
2, 81767, Note_on_c, 0, 90, 62
2, 81774, Control_c, 0, 64, 0
2, 81839, Note_off_c, 0, 64, 64
2, 81916, Note_on_c, 0, 56, 64
2, 81924, Note_off_c, 0, 90, 64
2, 81929, Note_off_c, 0, 81, 64
2, 81938, Note_off_c, 0, 54, 64
2, 81942, Control_c, 0, 64, 127
2, 82070, Note_on_c, 0, 57, 67
2, 82099, Note_off_c, 0, 56, 64
2, 82173, Note_off_c, 0, 73, 64
2, 82225, Note_on_c, 0, 59, 42
2, 82227, Note_on_c, 0, 78, 49
2, 82229, Note_on_c, 0, 85, 57
2, 82229, Note_on_c, 0, 93, 69
2, 82238, Control_c, 0, 64, 0
2, 82254, Note_off_c, 0, 57, 64
2, 82343, Note_off_c, 0, 85, 64
2, 82377, Note_on_c, 0, 61, 71
2, 82380, Note_off_c, 0, 93, 64
2, 82403, Control_c, 0, 64, 127
2, 82413, Note_off_c, 0, 59, 64
2, 82592, Note_off_c, 0, 63, 64
2, 82594, Note_off_c, 0, 69, 64
2, 82630, Note_off_c, 0, 78, 64
2, 82680, Note_off_c, 0, 61, 64
2, 82683, Note_on_c, 0, 64, 38
2, 82685, Note_on_c, 0, 69, 34
2, 82685, Note_on_c, 0, 76, 48
2, 82695, Control_c, 0, 64, 0
2, 82867, Control_c, 0, 64, 127
2, 83159, Note_on_c, 0, 83, 55
2, 83314, Note_on_c, 0, 81, 57
2, 83407, Note_off_c, 0, 83, 64
2, 83526, Note_off_c, 0, 81, 64
2, 83563, Note_off_c, 0, 69, 64
2, 83575, Note_off_c, 0, 76, 64
2, 83628, Note_on_c, 0, 69, 48
2, 83630, Note_on_c, 0, 63, 32
2, 83633, Note_on_c, 0, 54, 38
2, 83633, Note_on_c, 0, 73, 42
2, 83633, Note_on_c, 0, 81, 50
2, 83634, Note_on_c, 0, 90, 62
2, 83640, Control_c, 0, 64, 0
2, 83705, Note_off_c, 0, 64, 64
2, 83783, Note_on_c, 0, 56, 64
2, 83791, Note_off_c, 0, 90, 64
2, 83796, Note_off_c, 0, 81, 64
2, 83805, Note_off_c, 0, 54, 64
2, 83810, Control_c, 0, 64, 127
2, 83936, Note_on_c, 0, 57, 67
2, 83965, Note_off_c, 0, 56, 64
2, 84039, Note_off_c, 0, 73, 64
2, 84090, Note_on_c, 0, 59, 42
2, 84092, Note_on_c, 0, 78, 49
2, 84094, Note_on_c, 0, 85, 57
2, 84094, Note_on_c, 0, 93, 69
2, 84103, Control_c, 0, 64, 0
2, 84119, Note_off_c, 0, 57, 64
2, 84207, Note_off_c, 0, 85, 64
2, 84243, Note_on_c, 0, 61, 71
2, 84245, Note_off_c, 0, 93, 64
2, 84268, Control_c, 0, 64, 127
2, 84278, Note_off_c, 0, 59, 64
2, 84496, Note_off_c, 0, 78, 64
2, 84547, Note_off_c, 0, 61, 64
2, 84549, Note_on_c, 0, 42, 54
2, 84551, Note_on_c, 0, 35, 62
2, 84551, Note_on_c, 0, 78, 76
2, 84560, Control_c, 0, 64, 0
2, 84732, Control_c, 0, 64, 127
2, 84929, Note_off_c, 0, 63, 64
2, 84942, Note_off_c, 0, 78, 64
2, 84943, Note_off_c, 0, 69, 64
2, 85020, Note_on_c, 0, 63, 31
2, 85022, Note_on_c, 0, 69, 36
2, 85025, Note_on_c, 0, 78, 42
2, 85025, Note_on_c, 0, 85, 48
2, 85174, Note_on_c, 0, 66, 45
2, 85176, Note_on_c, 0, 73, 52
2, 85178, Note_on_c, 0, 81, 55
2, 85178, Note_on_c, 0, 90, 67
2, 85213, Note_off_c, 0, 63, 64
2, 85215, Note_off_c, 0, 69, 64
2, 85217, Note_off_c, 0, 78, 64
2, 85217, Note_off_c, 0, 85, 64
2, 85397, Note_off_c, 0, 81, 64
2, 85403, Control_c, 0, 64, 0
2, 85405, Note_off_c, 0, 66, 64
2, 85418, Note_off_c, 0, 90, 64
2, 85433, Note_off_c, 0, 73, 64
2, 85479, Note_on_c, 0, 66, 36
2, 85481, Note_on_c, 0, 73, 40
2, 85483, Note_on_c, 0, 81, 52
2, 85483, Note_on_c, 0, 59, 32
2, 85575, Note_off_c, 0, 81, 64
2, 85599, Note_off_c, 0, 66, 64
2, 85602, Note_off_c, 0, 73, 64
2, 85604, Note_off_c, 0, 59, 64
2, 85785, Note_on_c, 0, 62, 32
2, 85787, Note_on_c, 0, 69, 38
2, 85789, Note_on_c, 0, 78, 45
2, 85789, Note_on_c, 0, 85, 51
2, 85895, Note_off_c, 0, 85, 64
2, 85901, Note_off_c, 0, 69, 64
2, 85903, Note_off_c, 0, 78, 64
2, 85923, Note_off_c, 0, 62, 64
2, 86097, Note_on_c, 0, 54, 28
2, 86099, Note_on_c, 0, 62, 40
2, 86101, Note_on_c, 0, 69, 32
2, 86101, Note_on_c, 0, 78, 44
2, 86202, Note_off_c, 0, 54, 64
2, 86204, Note_off_c, 0, 78, 64
2, 86220, Note_off_c, 0, 62, 64
2, 86249, Note_off_c, 0, 69, 64
2, 86414, Note_on_c, 0, 59, 22
2, 86416, Note_on_c, 0, 66, 31
2, 86417, Note_on_c, 0, 73, 27
2, 86417, Note_on_c, 0, 81, 38
2, 86478, Control_c, 0, 64, 127
2, 86520, Note_off_c, 0, 73, 64
2, 86541, Note_off_c, 0, 81, 64
2, 86770, Note_off_c, 0, 66, 64
2, 86801, Note_off_c, 0, 59, 64
2, 86872, Note_on_c, 0, 51, 30
2, 86874, Note_on_c, 0, 57, 37
2, 86876, Note_on_c, 0, 66, 42
2, 86876, Note_on_c, 0, 73, 48
2, 87024, Note_off_c, 0, 42, 64
2, 87027, Note_off_c, 0, 35, 64
2, 87029, Note_on_c, 0, 54, 38
2, 87029, Note_on_c, 0, 61, 56
2, 87030, Note_on_c, 0, 69, 42
2, 87030, Note_on_c, 0, 78, 64
2, 87051, Note_off_c, 0, 51, 64
2, 87053, Note_off_c, 0, 57, 64
2, 87054, Note_off_c, 0, 73, 64
2, 87055, Note_off_c, 0, 66, 64
2, 87253, Note_off_c, 0, 69, 64
2, 87263, Note_off_c, 0, 78, 64
2, 87275, Note_off_c, 0, 61, 64
2, 87280, Note_off_c, 0, 54, 64
2, 87308, Control_c, 0, 64, 0
2, 87335, Note_on_c, 0, 47, 35
2, 87337, Note_on_c, 0, 54, 40
2, 87339, Note_on_c, 0, 61, 52
2, 87339, Note_on_c, 0, 69, 48
2, 87339, Note_on_c, 0, 73, 58
2, 87447, Note_off_c, 0, 47, 64
2, 87456, Note_off_c, 0, 54, 64
2, 87461, Note_off_c, 0, 69, 64
2, 87468, Note_off_c, 0, 73, 64
2, 87478, Note_off_c, 0, 61, 64
2, 87647, Note_on_c, 0, 51, 34
2, 87649, Note_on_c, 0, 57, 42
2, 87651, Note_on_c, 0, 66, 48
2, 87651, Note_on_c, 0, 73, 53
2, 87759, Note_off_c, 0, 57, 64
2, 87764, Note_off_c, 0, 66, 64
2, 87766, Note_off_c, 0, 51, 64
2, 87791, Note_off_c, 0, 73, 64
2, 87964, Note_on_c, 0, 42, 26
2, 87966, Note_on_c, 0, 51, 30
2, 87968, Note_on_c, 0, 57, 36
2, 87968, Note_on_c, 0, 66, 48
2, 88080, Note_off_c, 0, 42, 64
2, 88082, Note_off_c, 0, 57, 64
2, 88095, Note_off_c, 0, 66, 64
2, 88110, Note_off_c, 0, 51, 64
2, 88282, Note_on_c, 0, 40, 40
2, 88284, Note_on_c, 0, 57, 48
2, 88286, Note_on_c, 0, 62, 54
2, 88286, Note_on_c, 0, 66, 50
2, 88288, Note_on_c, 0, 71, 64
2, 88308, Control_c, 0, 64, 127
2, 88399, Note_off_c, 0, 57, 64
2, 88661, Note_off_c, 0, 66, 64
2, 88674, Note_off_c, 0, 71, 64
2, 88678, Note_off_c, 0, 62, 64
2, 88755, Note_on_c, 0, 56, 32
2, 88757, Note_on_c, 0, 59, 40
2, 88759, Note_on_c, 0, 66, 45
2, 88911, Note_on_c, 0, 54, 48
2, 88912, Note_on_c, 0, 62, 55
2, 88915, Note_on_c, 0, 71, 64
2, 88937, Note_off_c, 0, 56, 64
2, 88939, Note_off_c, 0, 59, 64
2, 88941, Note_off_c, 0, 66, 64
2, 89093, Note_off_c, 0, 54, 64
2, 89094, Note_off_c, 0, 62, 64
2, 89102, Note_off_c, 0, 71, 64
2, 89196, Control_c, 0, 64, 0
2, 89222, Note_on_c, 0, 52, 30
2, 89223, Note_on_c, 0, 62, 36
2, 89225, Note_on_c, 0, 59, 42
2, 89225, Note_on_c, 0, 66, 48
2, 89305, Note_off_c, 0, 52, 64
2, 89306, Note_off_c, 0, 62, 64
2, 89335, Note_off_c, 0, 59, 64
2, 89340, Note_off_c, 0, 66, 64
2, 89531, Note_on_c, 0, 54, 36
2, 89533, Note_on_c, 0, 62, 48
2, 89534, Note_on_c, 0, 66, 41
2, 89535, Note_on_c, 0, 71, 53
2, 89628, Note_off_c, 0, 66, 64
2, 89631, Note_off_c, 0, 62, 64
2, 89633, Note_off_c, 0, 54, 64
2, 89635, Note_off_c, 0, 71, 64
2, 89834, Note_on_c, 0, 56, 41
2, 89836, Note_on_c, 0, 64, 52
2, 89838, Note_on_c, 0, 68, 46
2, 89838, Note_on_c, 0, 73, 58
2, 89932, Note_off_c, 0, 73, 64
2, 89942, Note_off_c, 0, 68, 64
2, 89943, Note_off_c, 0, 64, 64
2, 89945, Note_off_c, 0, 56, 64
2, 90138, Note_on_c, 0, 57, 49
2, 90140, Note_on_c, 0, 62, 56
2, 90142, Note_on_c, 0, 66, 51
2, 90142, Note_on_c, 0, 71, 63
2, 90150, Control_c, 0, 64, 127
2, 90289, Note_off_c, 0, 57, 64
2, 90594, Note_on_c, 0, 56, 47
2, 90747, Note_on_c, 0, 54, 42
2, 90798, Note_off_c, 0, 56, 64
2, 90979, Note_off_c, 0, 54, 64
2, 91018, Control_c, 0, 64, 0
2, 91059, Note_off_c, 0, 40, 64
2, 91061, Note_on_c, 0, 45, 32
2, 91063, Note_on_c, 0, 52, 38
2, 91063, Note_on_c, 0, 61, 50
2, 91065, Note_on_c, 0, 64, 42
2, 91065, Note_on_c, 0, 69, 56
2, 91085, Note_off_c, 0, 62, 64
2, 91087, Note_off_c, 0, 66, 64
2, 91088, Note_off_c, 0, 71, 64
2, 91200, Control_c, 0, 64, 127
2, 91448, Note_off_c, 0, 45, 64
2, 91526, Note_on_c, 0, 43, 44
2, 91685, Note_off_c, 0, 52, 64
2, 91687, Note_off_c, 0, 61, 64
2, 91688, Note_off_c, 0, 69, 64
2, 91689, Note_off_c, 0, 64, 64
2, 91690, Note_on_c, 0, 42, 40
2, 91706, Note_off_c, 0, 43, 64
2, 91790, Control_c, 0, 64, 0
2, 91921, Note_off_c, 0, 42, 64
2, 92001, Note_on_c, 0, 40, 22
2, 92003, Note_on_c, 0, 47, 25
2, 92005, Note_on_c, 0, 52, 34
2, 92005, Note_on_c, 0, 55, 26
2, 92007, Note_on_c, 0, 67, 38
2, 92015, Control_c, 0, 64, 127
2, 92460, Note_off_c, 0, 55, 64
2, 92462, Note_off_c, 0, 67, 64
2, 92464, Note_on_c, 0, 57, 32
2, 92465, Note_on_c, 0, 64, 46
2, 92613, Note_on_c, 0, 58, 40
2, 92615, Note_on_c, 0, 67, 49
2, 92629, Note_off_c, 0, 57, 64
2, 92647, Note_off_c, 0, 64, 64
2, 92854, Note_off_c, 0, 67, 64
2, 92856, Note_off_c, 0, 58, 64
2, 92859, Control_c, 0, 64, 0
2, 92924, Note_on_c, 0, 59, 30
2, 92926, Note_on_c, 0, 64, 38
2, 93043, Note_off_c, 0, 64, 64
2, 93077, Note_off_c, 0, 59, 64
2, 93237, Note_on_c, 0, 60, 31
2, 93239, Note_on_c, 0, 67, 43
2, 93349, Note_off_c, 0, 60, 64
2, 93356, Note_off_c, 0, 67, 64
2, 93553, Note_on_c, 0, 33, 30
2, 93555, Note_on_c, 0, 45, 36
2, 93556, Note_on_c, 0, 55, 40
2, 93557, Note_on_c, 0, 61, 37
2, 93559, Note_on_c, 0, 69, 49
2, 93605, Note_off_c, 0, 40, 64
2, 93607, Note_off_c, 0, 47, 64
2, 93609, Note_off_c, 0, 52, 64
2, 93668, Note_off_c, 0, 61, 64
2, 93675, Note_off_c, 0, 69, 64
2, 93758, Note_off_c, 0, 33, 64
2, 93762, Note_off_c, 0, 55, 64
2, 93775, Note_off_c, 0, 45, 64
2, 93871, Note_on_c, 0, 55, 26
2, 93873, Note_on_c, 0, 67, 38
2, 93876, Note_on_c, 0, 40, 29
2, 93876, Note_on_c, 0, 47, 35
2, 93876, Note_on_c, 0, 52, 39
2, 93883, Control_c, 0, 64, 127
2, 94328, Note_off_c, 0, 55, 64
2, 94330, Note_off_c, 0, 67, 64
2, 94332, Note_on_c, 0, 57, 38
2, 94332, Note_on_c, 0, 64, 46
2, 94480, Note_on_c, 0, 58, 36
2, 94482, Note_on_c, 0, 67, 49
2, 94504, Note_off_c, 0, 64, 64
2, 94509, Note_off_c, 0, 57, 64
2, 94730, Note_off_c, 0, 58, 64
2, 94739, Control_c, 0, 64, 0
2, 94741, Note_off_c, 0, 67, 64
2, 94791, Note_on_c, 0, 59, 26
2, 94793, Note_on_c, 0, 64, 38
2, 94897, Note_off_c, 0, 64, 64
2, 94944, Note_off_c, 0, 59, 64
2, 95102, Note_on_c, 0, 60, 32
2, 95104, Note_on_c, 0, 67, 43
2, 95220, Note_off_c, 0, 60, 64
2, 95224, Note_off_c, 0, 67, 64
2, 95419, Note_on_c, 0, 45, 34
2, 95421, Note_on_c, 0, 61, 30
2, 95423, Note_on_c, 0, 69, 50
2, 95423, Note_on_c, 0, 33, 29
2, 95423, Note_on_c, 0, 55, 45
2, 95471, Note_off_c, 0, 40, 64
2, 95473, Note_off_c, 0, 47, 64
2, 95475, Note_off_c, 0, 52, 64
2, 95529, Note_off_c, 0, 61, 64
2, 95543, Note_off_c, 0, 69, 64
2, 95640, Note_off_c, 0, 45, 64
2, 95657, Note_off_c, 0, 55, 64
2, 95663, Note_off_c, 0, 33, 64
2, 95734, Note_on_c, 0, 38, 20
2, 95736, Note_on_c, 0, 45, 24
2, 95738, Note_on_c, 0, 57, 32
2, 95738, Note_on_c, 0, 61, 22
2, 95741, Note_on_c, 0, 67, 26
2, 95741, Note_on_c, 0, 71, 38
2, 95748, Control_c, 0, 64, 127
2, 96200, Note_on_c, 0, 69, 36
2, 96202, Note_on_c, 0, 73, 43
2, 96204, Note_on_c, 0, 78, 55
2, 96239, Note_off_c, 0, 67, 64
2, 96241, Note_off_c, 0, 71, 64
2, 96607, Note_off_c, 0, 69, 64
2, 96658, Note_off_c, 0, 73, 64
2, 96660, Note_off_c, 0, 78, 64
2, 96662, Note_on_c, 0, 62, 50
2, 96662, Note_on_c, 0, 66, 42
2, 96664, Note_on_c, 0, 69, 62
2, 96695, Note_off_c, 0, 61, 64
2, 97051, Note_off_c, 0, 62, 64
2, 97116, Note_on_c, 0, 64, 56
2, 97267, Note_off_c, 0, 38, 64
2, 97269, Note_off_c, 0, 45, 64
2, 97271, Note_off_c, 0, 57, 64
2, 97272, Note_on_c, 0, 62, 55
2, 97344, Note_off_c, 0, 64, 64
2, 97498, Note_off_c, 0, 62, 64
2, 97576, Control_c, 0, 64, 0
2, 97578, Note_on_c, 0, 61, 51
2, 97714, Note_off_c, 0, 61, 64
2, 97887, Note_on_c, 0, 62, 48
2, 98017, Note_off_c, 0, 62, 64
2, 98200, Note_on_c, 0, 59, 44
2, 98336, Note_off_c, 0, 59, 64
2, 98515, Note_off_c, 0, 66, 64
2, 98517, Note_on_c, 0, 47, 22
2, 98520, Note_on_c, 0, 57, 34
2, 98520, Note_on_c, 0, 60, 24
2, 98521, Note_on_c, 0, 63, 30
2, 98521, Note_on_c, 0, 67, 41
2, 98527, Control_c, 0, 64, 127
2, 98552, Note_off_c, 0, 69, 64
2, 98972, Note_on_c, 0, 66, 36
2, 99063, Note_off_c, 0, 67, 64
2, 99229, Note_off_c, 0, 47, 64
2, 99331, Note_off_c, 0, 57, 64
2, 99369, Note_off_c, 0, 60, 64
2, 99441, Note_off_c, 0, 63, 64
2, 99443, Note_on_c, 0, 40, 22
2, 99445, Note_on_c, 0, 47, 25
2, 99446, Note_on_c, 0, 52, 34
2, 99446, Note_on_c, 0, 55, 26
2, 99446, Note_on_c, 0, 67, 38
2, 99455, Control_c, 0, 64, 0
2, 99505, Note_off_c, 0, 66, 64
2, 99632, Control_c, 0, 64, 127
2, 99899, Note_off_c, 0, 55, 64
2, 99901, Note_off_c, 0, 67, 64
2, 99903, Note_on_c, 0, 57, 32
2, 99903, Note_on_c, 0, 64, 46
2, 100050, Note_on_c, 0, 58, 40
2, 100052, Note_on_c, 0, 67, 49
2, 100067, Note_off_c, 0, 57, 64
2, 100085, Note_off_c, 0, 64, 64
2, 100292, Note_off_c, 0, 67, 64
2, 100294, Note_off_c, 0, 58, 64
2, 100323, Control_c, 0, 64, 0
2, 100361, Note_on_c, 0, 59, 30
2, 100363, Note_on_c, 0, 64, 38
2, 100481, Note_off_c, 0, 64, 64
2, 100514, Note_off_c, 0, 59, 64
2, 100672, Note_on_c, 0, 60, 31
2, 100674, Note_on_c, 0, 67, 43
2, 100784, Note_off_c, 0, 60, 64
2, 100790, Note_off_c, 0, 67, 64
2, 100986, Note_on_c, 0, 33, 30
2, 100988, Note_on_c, 0, 45, 36
2, 100990, Note_on_c, 0, 55, 40
2, 100990, Note_on_c, 0, 61, 37
2, 100992, Note_on_c, 0, 69, 49
2, 101039, Note_off_c, 0, 40, 64
2, 101041, Note_off_c, 0, 47, 64
2, 101042, Note_off_c, 0, 52, 64
2, 101102, Note_off_c, 0, 61, 64
2, 101108, Note_off_c, 0, 69, 64
2, 101190, Note_off_c, 0, 33, 64
2, 101196, Note_off_c, 0, 55, 64
2, 101207, Note_off_c, 0, 45, 64
2, 101304, Note_on_c, 0, 55, 26
2, 101306, Note_on_c, 0, 67, 38
2, 101308, Note_on_c, 0, 40, 23
2, 101308, Note_on_c, 0, 47, 29
2, 101308, Note_on_c, 0, 52, 33
2, 101328, Control_c, 0, 64, 127
2, 101761, Note_off_c, 0, 55, 64
2, 101763, Note_off_c, 0, 67, 64
2, 101765, Note_on_c, 0, 57, 38
2, 101765, Note_on_c, 0, 64, 46
2, 101913, Note_on_c, 0, 58, 36
2, 101916, Note_on_c, 0, 67, 49
2, 101936, Note_off_c, 0, 64, 64
2, 101941, Note_off_c, 0, 57, 64
2, 102162, Note_off_c, 0, 58, 64
2, 102172, Control_c, 0, 64, 0
2, 102174, Note_off_c, 0, 67, 64
2, 102222, Note_on_c, 0, 59, 26
2, 102224, Note_on_c, 0, 64, 38
2, 102327, Note_off_c, 0, 64, 64
2, 102374, Note_off_c, 0, 59, 64
2, 102533, Note_on_c, 0, 60, 32
2, 102535, Note_on_c, 0, 67, 43
2, 102650, Note_off_c, 0, 60, 64
2, 102654, Note_off_c, 0, 67, 64
2, 102848, Note_on_c, 0, 45, 28
2, 102850, Note_on_c, 0, 61, 30
2, 102852, Note_on_c, 0, 69, 50
2, 102852, Note_on_c, 0, 33, 23
2, 102854, Note_on_c, 0, 55, 39
2, 102902, Note_off_c, 0, 40, 64
2, 102903, Note_off_c, 0, 47, 64
2, 102905, Note_off_c, 0, 52, 64
2, 102958, Note_off_c, 0, 61, 64
2, 102972, Note_off_c, 0, 69, 64
2, 103055, Note_off_c, 0, 45, 64
2, 103087, Note_off_c, 0, 55, 64
2, 103092, Note_off_c, 0, 33, 64
2, 103164, Note_on_c, 0, 45, 38
2, 103166, Note_on_c, 0, 57, 38
2, 103169, Note_on_c, 0, 61, 22
2, 103169, Note_on_c, 0, 67, 26
2, 103170, Note_on_c, 0, 71, 38
2, 103170, Note_on_c, 0, 38, 38
2, 103190, Control_c, 0, 64, 127
2, 103632, Note_on_c, 0, 69, 36
2, 103634, Note_on_c, 0, 73, 43
2, 103635, Note_on_c, 0, 78, 55
2, 103670, Note_off_c, 0, 67, 64
2, 103672, Note_off_c, 0, 71, 64
2, 103785, Note_off_c, 0, 57, 64
2, 103979, Note_off_c, 0, 38, 64
2, 104039, Note_off_c, 0, 69, 64
2, 104091, Note_off_c, 0, 73, 64
2, 104092, Note_off_c, 0, 78, 64
2, 104094, Note_off_c, 0, 45, 64
2, 104095, Note_on_c, 0, 38, 38
2, 104095, Note_on_c, 0, 62, 50
2, 104096, Note_on_c, 0, 66, 42
2, 104096, Note_on_c, 0, 69, 62
2, 104104, Control_c, 0, 64, 0
2, 104129, Note_off_c, 0, 61, 64
2, 104246, Note_on_c, 0, 45, 38
2, 104285, Control_c, 0, 64, 127
2, 104402, Note_on_c, 0, 50, 40
2, 104473, Note_off_c, 0, 45, 64
2, 104559, Note_on_c, 0, 54, 42
2, 104601, Note_off_c, 0, 50, 64
2, 104715, Note_off_c, 0, 62, 64
2, 104716, Note_on_c, 0, 57, 45
2, 104762, Note_off_c, 0, 54, 64
2, 104868, Note_on_c, 0, 62, 47
2, 104919, Note_off_c, 0, 57, 64
2, 105022, Note_on_c, 0, 64, 49
2, 105049, Note_off_c, 0, 62, 64
2, 105327, Note_off_c, 0, 64, 64
2, 105479, Note_off_c, 0, 66, 64
2, 105481, Note_off_c, 0, 69, 64
2, 105483, Note_on_c, 0, 54, 32
2, 105483, Note_on_c, 0, 62, 38
2, 105492, Control_c, 0, 64, 0
2, 105675, Control_c, 0, 64, 127
2, 105831, Note_off_c, 0, 38, 64
2, 105878, Note_off_c, 0, 62, 64
2, 105948, Note_on_c, 0, 38, 38
2, 105950, Note_on_c, 0, 57, 35
2, 105952, Note_on_c, 0, 66, 47
2, 106048, Note_off_c, 0, 54, 64
2, 106242, Note_off_c, 0, 66, 64
2, 106261, Note_on_c, 0, 62, 40
2, 106263, Note_on_c, 0, 69, 53
2, 106331, Note_off_c, 0, 57, 64
2, 106532, Note_off_c, 0, 69, 64
2, 106571, Note_on_c, 0, 66, 46
2, 106573, Note_on_c, 0, 74, 58
2, 106601, Note_off_c, 0, 62, 64
2, 106704, Note_off_c, 0, 38, 64
2, 106811, Note_off_c, 0, 66, 64
2, 106845, Note_off_c, 0, 74, 64
2, 106879, Note_on_c, 0, 38, 42
2, 106881, Note_on_c, 0, 50, 50
2, 106883, Note_on_c, 0, 57, 60
2, 106883, Note_on_c, 0, 66, 53
2, 106883, Note_on_c, 0, 72, 45
2, 106885, Note_on_c, 0, 76, 65
2, 106890, Control_c, 0, 64, 0
2, 107069, Control_c, 0, 64, 127
2, 107338, Note_off_c, 0, 72, 64
2, 107340, Note_off_c, 0, 76, 64
2, 107342, Note_on_c, 0, 74, 58
2, 107342, Note_on_c, 0, 78, 63
2, 107344, Note_on_c, 0, 83, 75
2, 107718, Note_off_c, 0, 74, 64
2, 107794, Note_off_c, 0, 78, 64
2, 107797, Note_off_c, 0, 83, 64
2, 107799, Note_off_c, 0, 38, 64
2, 107799, Note_off_c, 0, 50, 64
2, 107799, Note_off_c, 0, 57, 64
2, 107801, Note_off_c, 0, 66, 64
2, 107801, Note_on_c, 0, 43, 50
2, 107803, Note_on_c, 0, 67, 40
2, 107803, Note_on_c, 0, 71, 46
2, 107803, Note_on_c, 0, 74, 58
2, 107806, Control_c, 0, 64, 0
2, 107949, Note_on_c, 0, 50, 38
2, 107989, Control_c, 0, 64, 127
2, 108106, Note_off_c, 0, 50, 64
2, 108109, Note_on_c, 0, 55, 40
2, 108264, Note_off_c, 0, 55, 64
2, 108265, Note_on_c, 0, 59, 42
2, 108419, Note_off_c, 0, 59, 64
2, 108421, Note_off_c, 0, 67, 64
2, 108422, Note_on_c, 0, 62, 45
2, 108575, Note_off_c, 0, 62, 64
2, 108577, Note_on_c, 0, 67, 47
2, 108730, Note_off_c, 0, 67, 64
2, 108732, Note_on_c, 0, 69, 50
2, 109023, Note_off_c, 0, 71, 64
2, 109035, Note_off_c, 0, 69, 64
2, 109189, Note_off_c, 0, 74, 64
2, 109190, Note_on_c, 0, 62, 43
2, 109192, Note_on_c, 0, 67, 50
2, 109193, Note_on_c, 0, 71, 57
2, 109554, Note_off_c, 0, 62, 64
2, 109564, Note_off_c, 0, 67, 64
2, 109646, Note_off_c, 0, 71, 64
2, 109648, Note_off_c, 0, 43, 64
2, 109649, Note_on_c, 0, 40, 50
2, 109649, Note_on_c, 0, 59, 40
2, 109651, Note_on_c, 0, 62, 46
2, 109651, Note_on_c, 0, 67, 58
2, 109660, Control_c, 0, 64, 0
2, 109841, Control_c, 0, 64, 127
2, 109854, Note_off_c, 0, 62, 64
2, 109861, Note_off_c, 0, 67, 64
2, 109958, Note_off_c, 0, 59, 64
2, 109960, Note_on_c, 0, 62, 43
2, 109962, Note_on_c, 0, 67, 50
2, 109962, Note_on_c, 0, 71, 61
2, 110183, Note_off_c, 0, 67, 64
2, 110202, Note_off_c, 0, 71, 64
2, 110270, Note_off_c, 0, 62, 64
2, 110272, Note_on_c, 0, 67, 49
2, 110274, Note_on_c, 0, 71, 53
2, 110274, Note_on_c, 0, 74, 65
2, 110581, Note_off_c, 0, 67, 64
2, 110583, Note_off_c, 0, 71, 64
2, 110585, Note_off_c, 0, 74, 64
2, 110585, Note_off_c, 0, 40, 64
2, 110587, Note_on_c, 0, 38, 45
2, 110587, Note_on_c, 0, 50, 48
2, 110587, Note_on_c, 0, 57, 60
2, 110589, Note_on_c, 0, 66, 50
2, 110589, Note_on_c, 0, 72, 57
2, 110590, Note_on_c, 0, 76, 69
2, 110606, Control_c, 0, 64, 0
2, 110785, Control_c, 0, 64, 127
2, 111041, Note_off_c, 0, 72, 64
2, 111044, Note_off_c, 0, 76, 64
2, 111045, Note_on_c, 0, 74, 55
2, 111045, Note_on_c, 0, 78, 63
2, 111045, Note_on_c, 0, 83, 75
2, 111422, Note_off_c, 0, 74, 64
2, 111498, Note_off_c, 0, 78, 64
2, 111500, Note_off_c, 0, 83, 64
2, 111502, Note_off_c, 0, 38, 64
2, 111502, Note_off_c, 0, 50, 64
2, 111502, Note_off_c, 0, 57, 64
2, 111503, Note_off_c, 0, 66, 64
2, 111504, Note_on_c, 0, 43, 48
2, 111506, Note_on_c, 0, 67, 40
2, 111506, Note_on_c, 0, 71, 46
2, 111506, Note_on_c, 0, 74, 58
2, 111511, Control_c, 0, 64, 0
2, 111654, Note_on_c, 0, 50, 38
2, 111692, Control_c, 0, 64, 127
2, 111810, Note_off_c, 0, 50, 64
2, 111812, Note_on_c, 0, 55, 41
2, 111967, Note_off_c, 0, 55, 64
2, 111968, Note_on_c, 0, 59, 45
2, 112122, Note_off_c, 0, 59, 64
2, 112124, Note_off_c, 0, 67, 64
2, 112126, Note_on_c, 0, 62, 49
2, 112276, Note_off_c, 0, 62, 64
2, 112277, Note_on_c, 0, 67, 53
2, 112429, Note_off_c, 0, 67, 64
2, 112431, Note_on_c, 0, 69, 57
2, 112735, Note_off_c, 0, 71, 64
2, 112759, Note_off_c, 0, 74, 64
2, 112886, Note_off_c, 0, 69, 64
2, 112888, Note_on_c, 0, 67, 31
2, 112890, Note_on_c, 0, 71, 36
2, 112890, Note_on_c, 0, 74, 42
2, 113252, Note_off_c, 0, 74, 64
2, 113259, Note_off_c, 0, 71, 64
2, 113354, Note_off_c, 0, 67, 64
2, 113356, Note_off_c, 0, 43, 64
2, 113359, Note_on_c, 0, 62, 35
2, 113360, Note_on_c, 0, 71, 40
2, 113360, Note_on_c, 0, 74, 44
2, 113360, Note_on_c, 0, 79, 56
2, 113369, Control_c, 0, 64, 0
2, 113548, Control_c, 0, 64, 127
2, 113593, Note_off_c, 0, 79, 64
2, 113605, Note_off_c, 0, 74, 64
2, 113642, Note_off_c, 0, 71, 64
2, 113664, Note_on_c, 0, 74, 52
2, 113666, Note_on_c, 0, 79, 60
2, 113667, Note_on_c, 0, 83, 65
2, 113817, Note_off_c, 0, 62, 64
2, 113819, Note_on_c, 0, 59, 70
2, 113886, Note_off_c, 0, 83, 64
2, 113900, Note_off_c, 0, 79, 64
2, 113932, Note_off_c, 0, 74, 64
2, 113972, Note_on_c, 0, 79, 57
2, 113974, Note_on_c, 0, 83, 63
2, 113976, Note_on_c, 0, 86, 75
2, 114202, Note_off_c, 0, 59, 64
2, 114211, Note_off_c, 0, 86, 64
2, 114215, Note_off_c, 0, 83, 64
2, 114232, Note_off_c, 0, 79, 64
2, 114275, Note_on_c, 0, 52, 70
2, 114277, Note_on_c, 0, 59, 60
2, 114279, Note_on_c, 0, 62, 65
2, 114279, Note_on_c, 0, 90, 80
2, 114279, Note_on_c, 0, 69, 78
2, 114281, Note_on_c, 0, 78, 72
2, 114281, Note_on_c, 0, 86, 64
2, 114288, Control_c, 0, 64, 0
2, 114464, Control_c, 0, 64, 127
2, 114579, Note_on_c, 0, 68, 80
2, 114617, Note_off_c, 0, 69, 64
2, 114884, Note_on_c, 0, 64, 78
2, 114922, Note_off_c, 0, 68, 64
2, 115189, Note_on_c, 0, 68, 76
2, 115201, Control_c, 0, 64, 0
2, 115228, Note_off_c, 0, 64, 64
2, 115380, Control_c, 0, 64, 127
2, 115959, Note_off_c, 0, 86, 64
2, 116114, Note_on_c, 0, 83, 60
2, 116116, Note_on_c, 0, 86, 72
2, 116122, Control_c, 0, 64, 0
2, 116167, Note_off_c, 0, 90, 64
2, 116301, Control_c, 0, 64, 127
2, 116425, Note_on_c, 0, 66, 70
2, 116464, Note_off_c, 0, 68, 64
2, 116578, Note_off_c, 0, 83, 64
2, 116736, Note_on_c, 0, 64, 60
2, 116738, Note_on_c, 0, 76, 44
2, 116741, Note_on_c, 0, 80, 56
2, 116741, Note_on_c, 0, 83, 68
2, 116747, Note_off_c, 0, 86, 64
2, 116759, Note_off_c, 0, 66, 64
2, 116774, Note_off_c, 0, 78, 64
2, 117050, Note_on_c, 0, 68, 60
2, 117052, Note_on_c, 0, 74, 67
2, 117077, Note_off_c, 0, 64, 64
2, 117089, Note_off_c, 0, 76, 64
2, 117226, Note_off_c, 0, 59, 64
2, 117236, Note_off_c, 0, 80, 64
2, 117247, Note_off_c, 0, 52, 64
2, 117368, Note_on_c, 0, 76, 53
2, 117370, Note_on_c, 0, 80, 65
2, 117407, Note_off_c, 0, 83, 64
2, 117571, Note_off_c, 0, 62, 64
2, 117630, Note_off_c, 0, 74, 64
2, 117684, Note_on_c, 0, 71, 46
2, 117686, Note_on_c, 0, 74, 52
2, 117687, Note_on_c, 0, 78, 64
2, 117696, Note_off_c, 0, 76, 64
2, 117713, Note_off_c, 0, 80, 64
2, 117743, Note_off_c, 0, 68, 64
2, 117931, Note_off_c, 0, 74, 64
2, 117936, Note_off_c, 0, 71, 64
2, 117955, Note_off_c, 0, 78, 64
2, 117999, Note_on_c, 0, 52, 52
2, 118001, Note_on_c, 0, 59, 48
2, 118003, Note_on_c, 0, 62, 54
2, 118003, Note_on_c, 0, 40, 43
2, 118005, Note_on_c, 0, 74, 64
2, 118006, Note_on_c, 0, 78, 76
2, 118008, Control_c, 0, 64, 0
2, 118012, Note_on_c, 0, 69, 74
2, 118184, Control_c, 0, 64, 127
2, 118317, Note_off_c, 0, 69, 64
2, 118320, Note_on_c, 0, 68, 73
2, 118622, Note_off_c, 0, 68, 64
2, 118623, Note_on_c, 0, 64, 72
2, 118919, Note_on_c, 0, 68, 71
2, 118931, Note_off_c, 0, 64, 64
2, 119473, Note_off_c, 0, 59, 64
2, 119489, Note_off_c, 0, 52, 64
2, 119491, Note_off_c, 0, 74, 64
2, 119571, Note_off_c, 0, 40, 64
2, 119736, Note_off_c, 0, 62, 64
2, 119862, Note_off_c, 0, 78, 64
2, 119864, Note_on_c, 0, 40, 50
2, 119865, Note_on_c, 0, 71, 56
2, 119866, Note_on_c, 0, 74, 68
2, 119873, Control_c, 0, 64, 0
2, 120052, Control_c, 0, 64, 127
2, 120147, Note_off_c, 0, 68, 64
2, 120166, Note_on_c, 0, 66, 67
2, 120350, Note_off_c, 0, 71, 64
2, 120472, Note_off_c, 0, 66, 64
2, 120475, Note_off_c, 0, 74, 64
2, 120476, Note_on_c, 0, 64, 52
2, 120476, Note_on_c, 0, 68, 54
2, 120476, Note_on_c, 0, 71, 66
2, 120781, Note_off_c, 0, 64, 64
2, 120783, Note_on_c, 0, 62, 65
2, 121027, Note_off_c, 0, 68, 64
2, 121092, Note_off_c, 0, 62, 64
2, 121094, Note_off_c, 0, 71, 64
2, 121097, Note_on_c, 0, 59, 48
2, 121097, Note_on_c, 0, 64, 51
2, 121097, Note_on_c, 0, 68, 63
2, 121324, Note_off_c, 0, 64, 64
2, 121333, Note_off_c, 0, 68, 64
2, 121409, Note_off_c, 0, 59, 64
2, 121410, Note_on_c, 0, 56, 43
2, 121412, Note_on_c, 0, 62, 50
2, 121412, Note_on_c, 0, 66, 62
2, 121468, Note_off_c, 0, 40, 64
2, 121663, Note_off_c, 0, 66, 64
2, 121666, Note_off_c, 0, 62, 64
2, 121725, Note_off_c, 0, 56, 64
2, 121727, Note_on_c, 0, 40, 40
2, 121729, Note_on_c, 0, 45, 48
2, 121729, Note_on_c, 0, 55, 54
2, 121731, Note_on_c, 0, 62, 50
2, 121731, Note_on_c, 0, 66, 61
2, 121733, Control_c, 0, 64, 0
2, 121908, Control_c, 0, 64, 127
2, 122031, Note_off_c, 0, 62, 64
2, 122032, Note_on_c, 0, 61, 48
2, 122334, Note_off_c, 0, 61, 64
2, 122336, Note_on_c, 0, 57, 58
2, 122645, Note_off_c, 0, 57, 64
2, 122647, Note_on_c, 0, 61, 57
2, 123271, Note_off_c, 0, 55, 64
2, 123272, Note_on_c, 0, 52, 55
2, 123587, Note_off_c, 0, 52, 64
2, 123589, Note_on_c, 0, 55, 54
2, 123600, Control_c, 0, 64, 0
2, 123777, Control_c, 0, 64, 127
2, 123891, Note_off_c, 0, 61, 64
2, 123893, Note_on_c, 0, 59, 52
2, 124196, Note_off_c, 0, 59, 64
2, 124198, Note_on_c, 0, 57, 51
2, 124506, Note_off_c, 0, 57, 64
2, 124508, Note_on_c, 0, 61, 50
2, 124715, Note_off_c, 0, 40, 64
2, 125099, Note_off_c, 0, 45, 64
2, 125133, Note_off_c, 0, 66, 64
2, 125134, Note_on_c, 0, 69, 48
2, 125291, Note_off_c, 0, 55, 64
2, 125449, Note_off_c, 0, 69, 64
2, 125451, Note_off_c, 0, 61, 64
2, 125453, Note_on_c, 0, 62, 48
2, 125453, Note_on_c, 0, 40, 37
2, 125453, Note_on_c, 0, 45, 44
2, 125455, Note_on_c, 0, 55, 50
2, 125455, Note_on_c, 0, 66, 62
2, 125467, Control_c, 0, 64, 0
2, 125645, Control_c, 0, 64, 127
2, 125754, Note_off_c, 0, 62, 64
2, 125756, Note_on_c, 0, 61, 44
2, 126058, Note_off_c, 0, 61, 64
2, 126061, Note_on_c, 0, 57, 40
2, 126368, Note_off_c, 0, 57, 64
2, 126370, Note_on_c, 0, 61, 48
2, 126994, Note_off_c, 0, 55, 64
2, 126996, Note_on_c, 0, 52, 50
2, 127309, Note_on_c, 0, 55, 47
2, 127321, Control_c, 0, 64, 0
2, 127405, Note_off_c, 0, 52, 64
2, 127501, Control_c, 0, 64, 127
2, 127614, Note_off_c, 0, 61, 64
2, 127616, Note_on_c, 0, 59, 41
2, 127920, Note_off_c, 0, 59, 64
2, 127921, Note_on_c, 0, 57, 40
2, 128230, Note_off_c, 0, 57, 64
2, 128232, Note_on_c, 0, 61, 40
2, 128579, Note_off_c, 0, 40, 64
2, 128696, Note_off_c, 0, 45, 64
2, 128855, Note_off_c, 0, 66, 64
2, 128857, Note_on_c, 0, 69, 36
2, 129013, Note_off_c, 0, 55, 64
2, 129171, Note_off_c, 0, 69, 64
2, 129173, Note_off_c, 0, 61, 64
2, 129175, Note_on_c, 0, 78, 42
2, 129177, Note_on_c, 0, 66, 30
2, 129178, Note_on_c, 0, 38, 24
2, 129184, Note_on_c, 0, 45, 32
2, 129186, Control_c, 0, 64, 0
2, 129188, Note_on_c, 0, 54, 40
2, 129188, Note_on_c, 0, 60, 36
2, 129373, Control_c, 0, 64, 127
2, 129385, Note_off_c, 0, 78, 64
2, 129492, Note_on_c, 0, 76, 39
2, 129660, Note_off_c, 0, 76, 64
2, 129816, Note_on_c, 0, 72, 36
2, 129993, Note_off_c, 0, 72, 64
2, 130136, Note_on_c, 0, 76, 42
2, 131447, Note_off_c, 0, 76, 64
2, 131450, Note_on_c, 0, 72, 35
2, 131777, Note_off_c, 0, 72, 64
2, 131779, Note_on_c, 0, 74, 38
2, 132105, Note_off_c, 0, 74, 64
2, 132107, Note_on_c, 0, 76, 41
2, 132359, Note_off_c, 0, 60, 64
2, 132638, Note_off_c, 0, 38, 64
2, 132754, Note_off_c, 0, 45, 64
2, 132800, Note_off_c, 0, 54, 64
2, 132817, Note_off_c, 0, 66, 64
2, 133073, Note_off_c, 0, 76, 64
2, 133076, Note_on_c, 0, 60, 36
2, 133082, Note_on_c, 0, 54, 25
2, 133089, Note_on_c, 0, 56, 30
2, 133236, Note_off_c, 0, 60, 64
2, 133237, Note_on_c, 0, 62, 39
2, 133395, Note_off_c, 0, 62, 64
2, 133397, Note_on_c, 0, 64, 43
2, 133556, Note_off_c, 0, 64, 64
2, 133559, Note_on_c, 0, 66, 48
2, 133719, Note_off_c, 0, 66, 64
2, 133721, Note_on_c, 0, 64, 44
2, 133879, Note_off_c, 0, 64, 64
2, 133881, Note_on_c, 0, 62, 40
2, 134039, Note_off_c, 0, 62, 64
2, 134041, Note_on_c, 0, 60, 36
2, 135187, Note_off_c, 0, 60, 64
2, 135189, Note_on_c, 0, 62, 45
2, 135349, Note_off_c, 0, 62, 64
2, 135352, Note_on_c, 0, 64, 46
2, 135510, Note_off_c, 0, 64, 64
2, 135512, Note_on_c, 0, 66, 48
2, 135670, Note_off_c, 0, 66, 64
2, 135672, Note_on_c, 0, 64, 44
2, 135832, Note_off_c, 0, 64, 64
2, 135835, Note_on_c, 0, 62, 40
2, 135994, Note_off_c, 0, 62, 64
2, 135996, Note_on_c, 0, 60, 36
2, 136354, Note_off_c, 0, 56, 64
2, 136549, Note_off_c, 0, 54, 64
2, 136777, Note_off_c, 0, 60, 64
2, 136981, Note_on_c, 0, 90, 42
2, 136992, Note_on_c, 0, 54, 24
2, 136995, Note_on_c, 0, 66, 32
2, 136997, Note_on_c, 0, 45, 30
2, 136999, Note_on_c, 0, 38, 22
2, 137001, Note_on_c, 0, 60, 30
2, 137194, Note_off_c, 0, 90, 64
2, 137303, Note_on_c, 0, 88, 39
2, 137471, Note_off_c, 0, 88, 64
2, 137630, Note_on_c, 0, 84, 36
2, 137810, Note_off_c, 0, 84, 64
2, 137959, Note_on_c, 0, 88, 42
2, 139248, Note_off_c, 0, 88, 64
2, 139250, Note_on_c, 0, 84, 35
2, 139573, Note_off_c, 0, 84, 64
2, 139575, Note_on_c, 0, 86, 38
2, 139900, Note_off_c, 0, 86, 64
2, 139903, Note_on_c, 0, 88, 41
2, 140340, Note_off_c, 0, 45, 64
2, 140451, Note_off_c, 0, 54, 64
2, 140481, Note_off_c, 0, 60, 64
2, 140510, Note_off_c, 0, 66, 64
2, 140534, Note_off_c, 0, 38, 64
2, 140887, Note_off_c, 0, 88, 64
2, 140888, Note_on_c, 0, 60, 30
2, 140895, Note_on_c, 0, 54, 19
2, 140907, Note_on_c, 0, 56, 24
2, 141053, Note_on_c, 0, 62, 33
2, 141055, Note_off_c, 0, 60, 64
2, 141209, Note_off_c, 0, 62, 64
2, 141218, Note_on_c, 0, 64, 37
2, 141384, Note_on_c, 0, 66, 42
2, 141407, Note_off_c, 0, 64, 64
2, 141551, Note_on_c, 0, 64, 38
2, 141564, Note_off_c, 0, 66, 64
2, 141716, Note_on_c, 0, 62, 34
2, 141737, Note_off_c, 0, 64, 64
2, 141882, Note_on_c, 0, 60, 30
2, 141900, Note_off_c, 0, 62, 64
2, 143043, Note_off_c, 0, 60, 64
2, 143045, Note_on_c, 0, 62, 39
2, 143208, Note_on_c, 0, 64, 40
2, 143219, Note_off_c, 0, 62, 64
2, 143375, Note_on_c, 0, 66, 42
2, 143396, Note_off_c, 0, 64, 64
2, 143538, Note_off_c, 0, 66, 64
2, 143540, Note_on_c, 0, 64, 38
2, 143707, Note_on_c, 0, 62, 34
2, 143708, Note_off_c, 0, 64, 64
2, 143873, Note_on_c, 0, 60, 30
2, 143878, Note_off_c, 0, 62, 64
2, 144169, Note_off_c, 0, 54, 64
2, 144434, Note_off_c, 0, 56, 64
2, 144675, Note_off_c, 0, 60, 64
2, 144868, Note_on_c, 0, 54, 24
2, 144870, Note_on_c, 0, 64, 40
2, 144872, Note_on_c, 0, 57, 30
2, 144872, Note_on_c, 0, 60, 36
2, 144874, Note_on_c, 0, 72, 48
2, 144880, Control_c, 0, 64, 0
2, 145035, Note_off_c, 0, 72, 64
2, 145037, Note_on_c, 0, 74, 46
2, 145074, Control_c, 0, 64, 127
2, 145200, Note_off_c, 0, 74, 64
2, 145202, Note_on_c, 0, 76, 44
2, 145368, Note_off_c, 0, 76, 64
2, 145370, Note_on_c, 0, 78, 43
2, 145533, Note_off_c, 0, 78, 64
2, 145536, Note_on_c, 0, 76, 41
2, 145701, Note_off_c, 0, 76, 64
2, 145702, Note_on_c, 0, 74, 40
2, 145865, Note_off_c, 0, 74, 64
2, 145867, Note_on_c, 0, 72, 38
2, 146764, Note_off_c, 0, 64, 64
2, 146860, Note_on_c, 0, 64, 29
2, 146862, Note_on_c, 0, 50, 20
2, 146942, Note_off_c, 0, 54, 64
2, 147025, Note_off_c, 0, 72, 64
2, 147027, Note_on_c, 0, 74, 27
2, 147190, Note_off_c, 0, 74, 64
2, 147192, Note_on_c, 0, 76, 26
2, 147355, Note_off_c, 0, 76, 64
2, 147357, Note_on_c, 0, 78, 24
2, 147521, Note_off_c, 0, 78, 64
2, 147523, Note_on_c, 0, 76, 22
2, 147690, Note_off_c, 0, 76, 64
2, 147692, Note_on_c, 0, 74, 21
2, 147857, Note_off_c, 0, 74, 64
2, 147859, Note_on_c, 0, 66, 9
2, 147861, Note_on_c, 0, 72, 19
2, 147942, Note_off_c, 0, 64, 64
2, 148027, Note_off_c, 0, 72, 64
2, 148029, Note_on_c, 0, 74, 18
2, 148197, Note_off_c, 0, 74, 64
2, 148199, Note_on_c, 0, 76, 16
2, 148369, Note_off_c, 0, 76, 64
2, 148371, Note_on_c, 0, 78, 15
2, 148542, Note_off_c, 0, 78, 64
2, 148544, Note_on_c, 0, 79, 13
2, 148714, Note_off_c, 0, 79, 64
2, 148716, Note_on_c, 0, 81, 12
2, 148890, Note_off_c, 0, 81, 64
2, 148891, Note_off_c, 0, 66, 64
2, 148893, Note_off_c, 0, 60, 64
2, 148893, Note_off_c, 0, 57, 64
2, 148893, Note_off_c, 0, 50, 64
2, 148895, Note_on_c, 0, 43, 40
2, 148895, Note_on_c, 0, 83, 52
2, 148895, Note_on_c, 0, 71, 36
2, 148899, Control_c, 0, 64, 0
2, 149061, Note_off_c, 0, 71, 64
2, 149063, Note_on_c, 0, 72, 39
2, 149099, Control_c, 0, 64, 127
2, 149230, Note_off_c, 0, 72, 64
2, 149232, Note_on_c, 0, 74, 43
2, 149398, Note_off_c, 0, 74, 64
2, 149400, Note_on_c, 0, 76, 48
2, 149563, Note_off_c, 0, 76, 64
2, 149565, Note_on_c, 0, 74, 45
2, 149728, Note_off_c, 0, 74, 64
2, 149730, Note_on_c, 0, 72, 42
2, 149896, Note_off_c, 0, 72, 64
2, 149898, Note_on_c, 0, 71, 39
2, 150066, Note_on_c, 0, 50, 48
2, 150238, Note_off_c, 0, 50, 64
2, 150240, Note_on_c, 0, 55, 49
2, 150412, Note_off_c, 0, 55, 64
2, 150413, Note_on_c, 0, 59, 50
2, 150583, Note_off_c, 0, 59, 64
2, 150585, Note_on_c, 0, 62, 52
2, 150753, Note_off_c, 0, 62, 64
2, 150756, Note_on_c, 0, 67, 53
2, 150925, Note_off_c, 0, 67, 64
2, 150926, Note_off_c, 0, 43, 64
2, 150929, Note_off_c, 0, 83, 64
2, 150929, Note_on_c, 0, 79, 62
2, 150929, Note_on_c, 0, 40, 55
2, 150934, Control_c, 0, 64, 0
2, 151091, Note_off_c, 0, 71, 64
2, 151093, Note_on_c, 0, 72, 44
2, 151130, Control_c, 0, 64, 127
2, 151258, Note_off_c, 0, 72, 64
2, 151260, Note_on_c, 0, 74, 46
2, 151424, Note_off_c, 0, 74, 64
2, 151426, Note_on_c, 0, 76, 48
2, 151589, Note_off_c, 0, 76, 64
2, 151591, Note_on_c, 0, 74, 45
2, 151755, Note_off_c, 0, 74, 64
2, 151757, Note_on_c, 0, 72, 42
2, 151923, Note_off_c, 0, 72, 64
2, 151925, Note_on_c, 0, 71, 39
2, 152092, Note_on_c, 0, 47, 48
2, 152265, Note_off_c, 0, 47, 64
2, 152267, Note_off_c, 0, 79, 64
2, 152269, Note_on_c, 0, 81, 60
2, 152269, Note_on_c, 0, 52, 49
2, 152437, Note_off_c, 0, 52, 64
2, 152439, Note_on_c, 0, 55, 50
2, 152610, Note_off_c, 0, 55, 64
2, 152612, Note_off_c, 0, 81, 64
2, 152614, Note_on_c, 0, 59, 50
2, 152614, Note_on_c, 0, 79, 54
2, 152780, Note_off_c, 0, 59, 64
2, 152782, Note_on_c, 0, 64, 53
2, 152950, Note_off_c, 0, 64, 64
2, 152952, Note_off_c, 0, 79, 64
2, 152953, Note_on_c, 0, 83, 61
2, 152954, Note_off_c, 0, 40, 64
2, 152954, Note_on_c, 0, 43, 55
2, 152959, Control_c, 0, 64, 0
2, 153114, Note_off_c, 0, 71, 64
2, 153117, Note_on_c, 0, 72, 44
2, 153155, Control_c, 0, 64, 127
2, 153282, Note_off_c, 0, 72, 64
2, 153284, Note_on_c, 0, 74, 46
2, 153447, Note_off_c, 0, 74, 64
2, 153449, Note_on_c, 0, 76, 48
2, 153612, Note_off_c, 0, 76, 64
2, 153614, Note_on_c, 0, 74, 44
2, 153779, Note_off_c, 0, 74, 64
2, 153781, Note_on_c, 0, 72, 40
2, 153947, Note_off_c, 0, 72, 64
2, 153949, Note_on_c, 0, 71, 36
2, 154118, Note_on_c, 0, 50, 45
2, 154291, Note_off_c, 0, 50, 64
2, 154292, Note_on_c, 0, 55, 46
2, 154463, Note_off_c, 0, 55, 64
2, 154465, Note_on_c, 0, 59, 48
2, 154635, Note_off_c, 0, 59, 64
2, 154637, Note_on_c, 0, 62, 50
2, 154805, Note_off_c, 0, 62, 64
2, 154807, Note_on_c, 0, 67, 52
2, 154975, Note_off_c, 0, 67, 64
2, 154977, Note_off_c, 0, 83, 64
2, 154979, Note_off_c, 0, 43, 64
2, 154979, Note_on_c, 0, 40, 50
2, 154981, Note_on_c, 0, 79, 58
2, 154987, Control_c, 0, 64, 0
2, 155142, Note_off_c, 0, 71, 64
2, 155144, Note_on_c, 0, 72, 44
2, 155180, Control_c, 0, 64, 127
2, 155308, Note_off_c, 0, 72, 64
2, 155310, Note_on_c, 0, 74, 46
2, 155473, Note_off_c, 0, 74, 64
2, 155475, Note_on_c, 0, 76, 48
2, 155639, Note_off_c, 0, 76, 64
2, 155641, Note_on_c, 0, 74, 44
2, 155805, Note_off_c, 0, 74, 64
2, 155808, Note_on_c, 0, 72, 41
2, 155975, Note_off_c, 0, 72, 64
2, 155976, Note_on_c, 0, 71, 49
2, 156144, Note_on_c, 0, 47, 46
2, 156318, Note_off_c, 0, 47, 64
2, 156320, Note_off_c, 0, 71, 64
2, 156322, Note_off_c, 0, 79, 64
2, 156322, Note_on_c, 0, 52, 50
2, 156322, Note_on_c, 0, 81, 60
2, 156324, Note_on_c, 0, 69, 47
2, 156490, Note_off_c, 0, 52, 64
2, 156492, Note_on_c, 0, 55, 49
2, 156664, Note_off_c, 0, 55, 64
2, 156665, Note_off_c, 0, 81, 64
2, 156667, Note_off_c, 0, 69, 64
2, 156667, Note_on_c, 0, 59, 49
2, 156669, Note_on_c, 0, 79, 56
2, 156669, Note_on_c, 0, 67, 51
2, 156831, Note_off_c, 0, 59, 64
2, 156833, Note_on_c, 0, 64, 53
2, 157001, Note_off_c, 0, 64, 64
2, 157003, Note_off_c, 0, 79, 64
2, 157005, Note_off_c, 0, 67, 64
2, 157006, Note_off_c, 0, 40, 64
2, 157008, Note_on_c, 0, 38, 60
2, 157008, Note_on_c, 0, 86, 66
2, 157008, Note_on_c, 0, 65, 55
2, 157012, Control_c, 0, 64, 0
2, 157168, Note_off_c, 0, 65, 64
2, 157169, Note_on_c, 0, 67, 57
2, 157207, Control_c, 0, 64, 127
2, 157335, Note_off_c, 0, 67, 64
2, 157337, Note_on_c, 0, 69, 59
2, 157500, Note_off_c, 0, 69, 64
2, 157502, Note_on_c, 0, 71, 62
2, 157664, Note_off_c, 0, 71, 64
2, 157666, Note_on_c, 0, 69, 58
2, 157832, Note_off_c, 0, 69, 64
2, 157834, Note_on_c, 0, 67, 54
2, 158000, Note_off_c, 0, 67, 64
2, 158002, Note_on_c, 0, 65, 50
2, 158171, Note_on_c, 0, 45, 47
2, 158344, Note_off_c, 0, 45, 64
2, 158346, Note_on_c, 0, 50, 48
2, 158516, Note_off_c, 0, 50, 64
2, 158518, Note_on_c, 0, 53, 50
2, 158689, Note_off_c, 0, 53, 64
2, 158691, Note_on_c, 0, 57, 52
2, 158859, Note_off_c, 0, 57, 64
2, 158861, Note_on_c, 0, 62, 53
2, 159029, Note_off_c, 0, 62, 64
2, 159030, Note_off_c, 0, 65, 64
2, 159032, Note_on_c, 0, 50, 50
2, 159033, Note_off_c, 0, 38, 64
2, 159034, Note_on_c, 0, 77, 55
2, 159194, Note_off_c, 0, 77, 64
2, 159197, Note_on_c, 0, 79, 57
2, 159361, Note_off_c, 0, 79, 64
2, 159363, Note_on_c, 0, 81, 59
2, 159526, Note_off_c, 0, 81, 64
2, 159528, Note_on_c, 0, 83, 61
2, 159691, Note_off_c, 0, 83, 64
2, 159693, Note_on_c, 0, 81, 57
2, 159858, Note_off_c, 0, 81, 64
2, 159860, Note_on_c, 0, 79, 53
2, 160027, Note_off_c, 0, 79, 64
2, 160029, Note_on_c, 0, 77, 49
2, 160197, Note_on_c, 0, 57, 46
2, 160370, Note_off_c, 0, 57, 64
2, 160371, Note_on_c, 0, 62, 49
2, 160542, Note_off_c, 0, 62, 64
2, 160544, Note_on_c, 0, 65, 52
2, 160712, Note_off_c, 0, 65, 64
2, 160714, Note_on_c, 0, 69, 56
2, 160879, Note_off_c, 0, 69, 64
2, 160881, Note_on_c, 0, 74, 59
2, 161045, Note_off_c, 0, 74, 64
2, 161047, Note_off_c, 0, 77, 64
2, 161049, Note_off_c, 0, 50, 64
2, 161052, Note_on_c, 0, 38, 40
2, 161052, Note_on_c, 0, 65, 46
2, 161218, Note_off_c, 0, 65, 64
2, 161220, Note_on_c, 0, 67, 50
2, 161389, Note_off_c, 0, 67, 64
2, 161391, Note_on_c, 0, 69, 55
2, 161556, Note_off_c, 0, 69, 64
2, 161558, Note_on_c, 0, 71, 60
2, 161721, Note_off_c, 0, 71, 64
2, 161723, Note_on_c, 0, 69, 56
2, 161888, Note_off_c, 0, 69, 64
2, 161890, Note_on_c, 0, 67, 53
2, 162056, Note_off_c, 0, 67, 64
2, 162058, Note_on_c, 0, 65, 50
2, 162228, Note_on_c, 0, 45, 47
2, 162401, Note_off_c, 0, 45, 64
2, 162403, Note_on_c, 0, 50, 50
2, 162573, Note_off_c, 0, 50, 64
2, 162574, Note_on_c, 0, 53, 53
2, 162742, Note_off_c, 0, 53, 64
2, 162744, Note_on_c, 0, 57, 57
2, 162909, Note_off_c, 0, 57, 64
2, 162912, Note_on_c, 0, 62, 60
2, 163075, Note_off_c, 0, 62, 64
2, 163077, Note_off_c, 0, 65, 64
2, 163080, Note_off_c, 0, 38, 64
2, 163080, Note_on_c, 0, 50, 47
2, 163246, Note_on_c, 0, 57, 50
2, 163419, Note_off_c, 0, 57, 64
2, 163421, Note_on_c, 0, 62, 53
2, 163589, Note_off_c, 0, 62, 64
2, 163591, Note_on_c, 0, 65, 56
2, 163756, Note_off_c, 0, 65, 64
2, 163758, Note_on_c, 0, 69, 59
2, 163924, Note_off_c, 0, 69, 64
2, 163926, Note_on_c, 0, 74, 62
2, 164089, Note_off_c, 0, 74, 64
2, 164091, Note_off_c, 0, 50, 64
2, 164093, Note_off_c, 0, 86, 64
2, 164093, Note_on_c, 0, 88, 61
2, 164095, Note_on_c, 0, 43, 47
2, 164101, Control_c, 0, 64, 0
2, 164261, Note_on_c, 0, 53, 50
2, 164301, Control_c, 0, 64, 127
2, 164433, Note_off_c, 0, 53, 64
2, 164435, Note_on_c, 0, 55, 53
2, 164602, Note_off_c, 0, 55, 64
2, 164604, Note_on_c, 0, 59, 56
2, 164771, Note_off_c, 0, 59, 64
2, 164773, Note_on_c, 0, 64, 59
2, 164936, Note_off_c, 0, 64, 64
2, 164938, Note_on_c, 0, 67, 62
2, 165102, Note_off_c, 0, 67, 64
2, 165104, Note_off_c, 0, 88, 64
2, 165106, Note_off_c, 0, 43, 64
2, 165106, Note_on_c, 0, 79, 54
2, 165106, Note_on_c, 0, 36, 47
2, 165127, Control_c, 0, 64, 0
2, 165265, Note_on_c, 0, 43, 49
2, 165321, Control_c, 0, 64, 127
2, 165438, Note_on_c, 0, 52, 52
2, 165461, Note_off_c, 0, 43, 64
2, 165609, Note_on_c, 0, 55, 54
2, 165646, Note_off_c, 0, 52, 64
2, 165778, Note_on_c, 0, 60, 57
2, 165804, Note_off_c, 0, 55, 64
2, 165945, Note_on_c, 0, 64, 60
2, 165969, Note_off_c, 0, 60, 64
2, 166110, Note_on_c, 0, 72, 61
2, 166112, Note_on_c, 0, 67, 63
2, 166121, Note_off_c, 0, 64, 64
2, 166265, Note_off_c, 0, 72, 64
2, 166275, Note_on_c, 0, 64, 59
2, 166283, Note_off_c, 0, 67, 64
2, 166442, Note_on_c, 0, 71, 59
2, 166444, Note_on_c, 0, 60, 56
2, 166450, Note_off_c, 0, 64, 64
2, 166572, Note_off_c, 0, 71, 64
2, 166610, Note_on_c, 0, 55, 52
2, 166626, Note_off_c, 0, 60, 64
2, 166780, Note_on_c, 0, 67, 56
2, 166782, Note_on_c, 0, 52, 49
2, 166788, Note_off_c, 0, 55, 64
2, 166916, Note_off_c, 0, 67, 64
2, 166947, Note_off_c, 0, 36, 64
2, 166952, Note_on_c, 0, 43, 46
2, 166966, Note_off_c, 0, 52, 64
2, 167123, Note_on_c, 0, 36, 52
2, 167125, Note_on_c, 0, 71, 63
2, 167133, Control_c, 0, 64, 0
2, 167138, Note_off_c, 0, 43, 64
2, 167303, Note_off_c, 0, 71, 64
2, 167327, Control_c, 0, 64, 127
2, 167619, Note_on_c, 0, 69, 56
2, 167785, Note_off_c, 0, 36, 64
2, 167788, Note_on_c, 0, 67, 54
2, 167827, Note_off_c, 0, 69, 64
2, 168056, Note_off_c, 0, 67, 64
2, 168124, Note_off_c, 0, 79, 64
2, 168127, Note_on_c, 0, 41, 34
2, 168127, Note_on_c, 0, 48, 40
2, 168127, Note_on_c, 0, 57, 46
2, 168128, Note_on_c, 0, 88, 58
2, 168129, Note_on_c, 0, 64, 50
2, 168133, Control_c, 0, 64, 0
2, 168331, Control_c, 0, 64, 127
2, 168461, Note_on_c, 0, 62, 46
2, 168510, Note_off_c, 0, 64, 64
2, 168805, Note_on_c, 0, 60, 42
2, 168884, Note_off_c, 0, 62, 64
2, 169101, Note_off_c, 0, 60, 64
2, 169147, Control_c, 0, 64, 0
2, 169150, Note_off_c, 0, 41, 64
2, 169152, Note_off_c, 0, 48, 64
2, 169154, Note_off_c, 0, 57, 64
2, 169154, Note_off_c, 0, 88, 64
2, 169156, Note_on_c, 0, 79, 50
2, 169156, Note_on_c, 0, 36, 44
2, 169324, Note_on_c, 0, 43, 47
2, 169348, Control_c, 0, 64, 127
2, 169496, Note_on_c, 0, 52, 50
2, 169499, Note_off_c, 0, 43, 64
2, 169666, Note_on_c, 0, 55, 53
2, 169674, Note_off_c, 0, 52, 64
2, 169835, Note_on_c, 0, 60, 57
2, 169858, Note_off_c, 0, 55, 64
2, 170003, Note_on_c, 0, 64, 60
2, 170019, Note_off_c, 0, 60, 64
2, 170168, Note_on_c, 0, 67, 60
2, 170170, Note_on_c, 0, 72, 64
2, 170182, Note_off_c, 0, 64, 64
2, 170323, Note_off_c, 0, 72, 64
2, 170333, Note_on_c, 0, 64, 60
2, 170366, Note_off_c, 0, 67, 64
2, 170498, Note_on_c, 0, 60, 50
2, 170500, Note_on_c, 0, 71, 56
2, 170513, Note_off_c, 0, 64, 64
2, 170629, Note_off_c, 0, 71, 64
2, 170667, Note_on_c, 0, 55, 52
2, 170689, Note_off_c, 0, 60, 64
2, 170837, Note_on_c, 0, 52, 44
2, 170839, Note_on_c, 0, 67, 48
2, 170859, Note_off_c, 0, 55, 64
2, 170973, Note_off_c, 0, 67, 64
2, 171005, Note_off_c, 0, 36, 64
2, 171008, Note_on_c, 0, 43, 44
2, 171015, Note_off_c, 0, 52, 64
2, 171181, Note_on_c, 0, 36, 54
2, 171183, Note_on_c, 0, 71, 64
2, 171187, Note_off_c, 0, 43, 64
2, 171191, Control_c, 0, 64, 0
2, 171362, Note_off_c, 0, 71, 64
2, 171385, Control_c, 0, 64, 127
2, 171677, Note_on_c, 0, 69, 56
2, 171842, Note_on_c, 0, 67, 54
2, 171883, Note_off_c, 0, 69, 64
2, 172114, Note_off_c, 0, 67, 64
2, 172181, Note_off_c, 0, 36, 64
2, 172183, Note_off_c, 0, 79, 64
2, 172185, Note_on_c, 0, 42, 29
2, 172185, Note_on_c, 0, 48, 34
2, 172185, Note_on_c, 0, 57, 40
2, 172187, Note_on_c, 0, 81, 52
2, 172187, Note_on_c, 0, 64, 49
2, 172192, Control_c, 0, 64, 0
2, 172344, Note_off_c, 0, 64, 64
2, 172389, Control_c, 0, 64, 127
2, 172519, Note_on_c, 0, 62, 44
2, 172689, Note_off_c, 0, 62, 64
2, 172864, Note_on_c, 0, 60, 40
2, 173052, Note_off_c, 0, 60, 64
2, 173208, Note_off_c, 0, 42, 64
2, 173210, Note_off_c, 0, 48, 64
2, 173212, Note_off_c, 0, 57, 64
2, 173213, Note_off_c, 0, 81, 64
2, 173213, Note_on_c, 0, 83, 36
2, 173214, Note_on_c, 0, 35, 36
2, 173217, Control_c, 0, 64, 0
2, 173380, Note_on_c, 0, 42, 37
2, 173418, Control_c, 0, 64, 127
2, 173552, Note_off_c, 0, 42, 64
2, 173554, Note_on_c, 0, 47, 39
2, 173721, Note_off_c, 0, 47, 64
2, 173723, Note_on_c, 0, 51, 41
2, 173890, Note_off_c, 0, 51, 64
2, 173892, Note_on_c, 0, 54, 43
2, 174055, Note_off_c, 0, 54, 64
2, 174057, Note_off_c, 0, 35, 64
2, 174059, Note_on_c, 0, 59, 45
2, 174221, Note_off_c, 0, 59, 64
2, 174223, Note_on_c, 0, 78, 45
2, 174225, Note_on_c, 0, 71, 36
2, 174225, Note_on_c, 0, 75, 42
2, 174225, Note_on_c, 0, 63, 48
2, 174233, Control_c, 0, 64, 0
2, 174315, Note_off_c, 0, 78, 64
2, 174317, Note_off_c, 0, 71, 64
2, 174333, Note_off_c, 0, 75, 64
2, 174413, Control_c, 0, 64, 127
2, 174553, Note_off_c, 0, 63, 64
2, 174555, Note_on_c, 0, 78, 42
2, 174557, Note_on_c, 0, 71, 36
2, 174557, Note_on_c, 0, 75, 40
2, 174559, Note_on_c, 0, 59, 44
2, 174645, Note_off_c, 0, 78, 64
2, 174666, Note_off_c, 0, 75, 64
2, 174668, Note_off_c, 0, 71, 64
2, 174688, Note_off_c, 0, 59, 64
2, 174894, Note_on_c, 0, 61, 43
2, 174896, Note_on_c, 0, 66, 32
2, 174898, Note_on_c, 0, 71, 36
2, 174898, Note_on_c, 0, 75, 40
2, 175004, Note_off_c, 0, 66, 64
2, 175010, Note_off_c, 0, 71, 64
2, 175025, Note_off_c, 0, 61, 64
2, 175028, Note_off_c, 0, 75, 64
2, 175240, Note_on_c, 0, 35, 36
2, 175255, Control_c, 0, 64, 0
2, 175412, Note_on_c, 0, 42, 37
2, 175455, Control_c, 0, 64, 127
2, 175585, Note_off_c, 0, 42, 64
2, 175587, Note_on_c, 0, 47, 39
2, 175753, Note_off_c, 0, 47, 64
2, 175755, Note_on_c, 0, 51, 41
2, 175922, Note_off_c, 0, 51, 64
2, 175924, Note_on_c, 0, 54, 43
2, 176087, Note_off_c, 0, 54, 64
2, 176089, Note_on_c, 0, 59, 45
2, 176253, Note_off_c, 0, 59, 64
2, 176255, Note_off_c, 0, 35, 64
2, 176256, Note_on_c, 0, 71, 30
2, 176256, Note_on_c, 0, 75, 36
2, 176258, Note_on_c, 0, 78, 40
2, 176260, Note_on_c, 0, 63, 48
2, 176347, Note_off_c, 0, 71, 64
2, 176349, Note_off_c, 0, 75, 64
2, 176372, Note_off_c, 0, 78, 64
2, 176585, Note_off_c, 0, 63, 64
2, 176586, Note_on_c, 0, 71, 27
2, 176588, Note_on_c, 0, 75, 32
2, 176588, Note_on_c, 0, 78, 36
2, 176590, Note_on_c, 0, 59, 42
2, 176668, Note_off_c, 0, 78, 64
2, 176681, Note_off_c, 0, 75, 64
2, 176719, Note_off_c, 0, 59, 64
2, 176721, Note_off_c, 0, 71, 64
2, 176923, Note_on_c, 0, 66, 22
2, 176925, Note_on_c, 0, 71, 25
2, 176927, Note_on_c, 0, 75, 30
2, 176927, Note_on_c, 0, 61, 36
2, 177023, Note_off_c, 0, 66, 64
2, 177036, Note_off_c, 0, 75, 64
2, 177038, Note_off_c, 0, 71, 64
2, 177054, Note_off_c, 0, 61, 64
2, 177254, Control_c, 0, 64, 0
2, 177269, Note_on_c, 0, 71, 30
2, 177271, Note_on_c, 0, 75, 36
2, 177273, Note_on_c, 0, 78, 42
2, 177273, Note_on_c, 0, 63, 48
2, 177367, Note_off_c, 0, 75, 64
2, 177377, Note_off_c, 0, 78, 64
2, 177380, Note_off_c, 0, 71, 64
2, 177443, Control_c, 0, 64, 127
2, 177453, Note_off_c, 0, 63, 64
2, 177622, Note_on_c, 0, 71, 30
2, 177624, Note_on_c, 0, 75, 36
2, 177626, Note_on_c, 0, 78, 40
2, 177626, Note_on_c, 0, 59, 46
2, 177724, Note_off_c, 0, 78, 64
2, 177737, Note_off_c, 0, 71, 64
2, 177752, Note_off_c, 0, 75, 64
2, 177800, Note_off_c, 0, 59, 64
2, 177982, Note_on_c, 0, 66, 30
2, 177984, Note_on_c, 0, 71, 34
2, 177986, Note_on_c, 0, 75, 38
2, 177986, Note_on_c, 0, 61, 44
2, 178089, Note_off_c, 0, 66, 64
2, 178108, Note_off_c, 0, 75, 64
2, 178119, Note_off_c, 0, 71, 64
2, 178173, Note_off_c, 0, 61, 64
2, 178350, Note_on_c, 0, 71, 27
2, 178352, Note_on_c, 0, 75, 32
2, 178354, Note_on_c, 0, 78, 38
2, 178354, Note_on_c, 0, 63, 42
2, 178366, Control_c, 0, 64, 0
2, 178459, Note_off_c, 0, 71, 64
2, 178468, Note_off_c, 0, 78, 64
2, 178477, Note_off_c, 0, 75, 64
2, 178524, Note_off_c, 0, 63, 64
2, 178569, Control_c, 0, 64, 127
2, 178729, Note_on_c, 0, 71, 27
2, 178731, Note_on_c, 0, 75, 32
2, 178733, Note_on_c, 0, 78, 36
2, 178733, Note_on_c, 0, 59, 41
2, 178826, Note_off_c, 0, 78, 64
2, 178847, Note_off_c, 0, 75, 64
2, 178855, Note_off_c, 0, 71, 64
2, 178919, Note_off_c, 0, 59, 64
2, 179116, Note_on_c, 0, 66, 26
2, 179117, Note_on_c, 0, 71, 30
2, 179119, Note_on_c, 0, 75, 32
2, 179120, Note_on_c, 0, 61, 39
2, 179239, Note_off_c, 0, 75, 64
2, 179246, Note_off_c, 0, 83, 64
2, 179247, Note_off_c, 0, 71, 64
2, 179251, Note_off_c, 0, 66, 64
2, 179313, Note_off_c, 0, 61, 64
2, 179491, Note_on_c, 0, 63, 38
2, 179493, Note_on_c, 0, 71, 30
2, 179495, Note_on_c, 0, 75, 32
2, 179495, Note_on_c, 0, 78, 36
2, 179495, Note_on_c, 0, 83, 40
2, 179504, Control_c, 0, 64, 0
2, 179710, Control_c, 0, 64, 127
2, 180017, Note_on_c, 0, 59, 35
2, 180077, Note_off_c, 0, 63, 64
2, 180552, Note_off_c, 0, 83, 64
2, 181095, Note_on_c, 0, 61, 30
2, 181154, Note_off_c, 0, 59, 64
2, 181286, Note_off_c, 0, 71, 64
2, 181467, Note_off_c, 0, 75, 64
2, 181568, Note_off_c, 0, 61, 64
2, 181646, Control_c, 0, 64, 0
2, 181648, Note_off_c, 0, 78, 64
2, 181650, Note_on_c, 0, 43, 36
2, 181650, Note_on_c, 0, 50, 42
2, 181652, Note_on_c, 0, 62, 40
2, 181652, Note_on_c, 0, 71, 50
2, 181652, Note_on_c, 0, 55, 24
2, 181810, Note_off_c, 0, 55, 64
2, 181812, Note_on_c, 0, 57, 27
2, 181837, Control_c, 0, 64, 127
2, 181975, Note_off_c, 0, 57, 64
2, 181977, Note_on_c, 0, 59, 30
2, 182141, Note_off_c, 0, 59, 64
2, 182143, Note_on_c, 0, 60, 34
2, 182307, Note_off_c, 0, 60, 64
2, 182309, Note_on_c, 0, 59, 32
2, 182475, Note_off_c, 0, 59, 64
2, 182477, Note_on_c, 0, 57, 31
2, 182645, Note_off_c, 0, 57, 64
2, 182647, Note_on_c, 0, 55, 30
2, 183671, Note_off_c, 0, 50, 64
2, 183674, Note_off_c, 0, 71, 64
2, 183674, Note_off_c, 0, 62, 64
2, 183674, Note_on_c, 0, 51, 30
2, 183676, Note_on_c, 0, 63, 38
2, 183676, Note_on_c, 0, 67, 48
2, 183685, Control_c, 0, 64, 0
2, 183836, Note_off_c, 0, 55, 64
2, 183838, Note_on_c, 0, 57, 27
2, 183878, Control_c, 0, 64, 127
2, 184001, Note_off_c, 0, 57, 64
2, 184003, Note_on_c, 0, 59, 30
2, 184168, Note_off_c, 0, 59, 64
2, 184171, Note_on_c, 0, 60, 34
2, 184334, Note_off_c, 0, 60, 64
2, 184335, Note_on_c, 0, 59, 32
2, 184501, Note_off_c, 0, 59, 64
2, 184503, Note_on_c, 0, 57, 31
2, 184670, Note_off_c, 0, 57, 64
2, 184672, Note_on_c, 0, 55, 29
2, 185008, Note_off_c, 0, 67, 64
2, 185010, Note_on_c, 0, 69, 50
2, 185352, Note_off_c, 0, 69, 64
2, 185354, Note_on_c, 0, 67, 48
2, 185481, Note_off_c, 0, 43, 64
2, 185698, Note_off_c, 0, 67, 64
2, 185699, Note_off_c, 0, 51, 64
2, 185701, Note_off_c, 0, 63, 64
2, 185701, Note_on_c, 0, 43, 32
2, 185701, Note_on_c, 0, 62, 36
2, 185703, Note_on_c, 0, 50, 48
2, 185703, Note_on_c, 0, 71, 48
2, 185711, Control_c, 0, 64, 0
2, 185862, Note_off_c, 0, 55, 64
2, 185865, Note_on_c, 0, 57, 27
2, 185904, Control_c, 0, 64, 127
2, 186029, Note_off_c, 0, 57, 64
2, 186031, Note_on_c, 0, 59, 30
2, 186194, Note_off_c, 0, 59, 64
2, 186196, Note_on_c, 0, 60, 34
2, 186360, Note_off_c, 0, 60, 64
2, 186362, Note_on_c, 0, 59, 30
2, 186529, Note_off_c, 0, 59, 64
2, 186531, Note_on_c, 0, 57, 26
2, 186697, Note_off_c, 0, 57, 64
2, 186699, Note_on_c, 0, 55, 22
2, 187725, Note_off_c, 0, 62, 64
2, 187727, Note_off_c, 0, 50, 64
2, 187728, Note_off_c, 0, 71, 64
2, 187729, Note_on_c, 0, 51, 40
2, 187731, Note_on_c, 0, 63, 32
2, 187731, Note_on_c, 0, 67, 46
2, 187751, Control_c, 0, 64, 0
2, 187889, Note_off_c, 0, 55, 64
2, 187891, Note_on_c, 0, 57, 25
2, 187945, Control_c, 0, 64, 127
2, 188054, Note_off_c, 0, 57, 64
2, 188056, Note_on_c, 0, 59, 29
2, 188220, Note_off_c, 0, 59, 64
2, 188222, Note_on_c, 0, 60, 34
2, 188387, Note_off_c, 0, 60, 64
2, 188389, Note_on_c, 0, 59, 32
2, 188554, Note_off_c, 0, 59, 64
2, 188556, Note_on_c, 0, 57, 30
2, 188724, Note_off_c, 0, 57, 64
2, 188726, Note_on_c, 0, 55, 28
2, 189062, Note_off_c, 0, 67, 64
2, 189064, Note_on_c, 0, 69, 49
2, 189405, Note_off_c, 0, 69, 64
2, 189407, Note_off_c, 0, 43, 64
2, 189410, Note_on_c, 0, 67, 46
2, 189751, Note_off_c, 0, 67, 64
2, 189753, Note_off_c, 0, 51, 64
2, 189755, Note_off_c, 0, 63, 64
2, 189755, Note_on_c, 0, 36, 32
2, 189756, Note_on_c, 0, 64, 36
2, 189757, Note_on_c, 0, 76, 40
2, 189757, Note_on_c, 0, 79, 50
2, 189757, Note_on_c, 0, 43, 46
2, 189764, Control_c, 0, 64, 0
2, 189925, Note_off_c, 0, 55, 64
2, 189927, Note_on_c, 0, 57, 26
2, 189967, Control_c, 0, 64, 127
2, 190098, Note_off_c, 0, 57, 64
2, 190100, Note_on_c, 0, 59, 30
2, 190272, Note_off_c, 0, 59, 64
2, 190274, Note_on_c, 0, 60, 36
2, 190446, Note_off_c, 0, 60, 64
2, 190448, Note_on_c, 0, 59, 32
2, 190621, Note_off_c, 0, 59, 64
2, 190623, Note_on_c, 0, 57, 28
2, 190794, Note_off_c, 0, 57, 64
2, 190796, Note_on_c, 0, 55, 24
2, 192011, Note_off_c, 0, 55, 64
2, 192013, Note_on_c, 0, 57, 31
2, 192185, Note_off_c, 0, 57, 64
2, 192187, Note_on_c, 0, 59, 32
2, 192360, Note_off_c, 0, 59, 64
2, 192361, Note_on_c, 0, 60, 34
2, 192529, Note_off_c, 0, 60, 64
2, 192531, Note_on_c, 0, 59, 30
2, 192697, Note_off_c, 0, 59, 64
2, 192699, Note_on_c, 0, 57, 26
2, 192866, Note_off_c, 0, 57, 64
2, 192869, Note_off_c, 0, 64, 64
2, 192870, Note_on_c, 0, 55, 22
2, 193877, Note_off_c, 0, 36, 64
2, 193880, Note_off_c, 0, 76, 64
2, 193882, Note_off_c, 0, 79, 64
2, 193882, Note_off_c, 0, 43, 64
2, 193884, Note_on_c, 0, 74, 58
2, 193884, Note_on_c, 0, 78, 66
2, 193892, Control_c, 0, 64, 0
2, 194046, Note_off_c, 0, 55, 64
2, 194048, Note_on_c, 0, 57, 40
2, 194088, Control_c, 0, 64, 127
2, 194215, Note_off_c, 0, 57, 64
2, 194217, Note_on_c, 0, 59, 39
2, 194384, Note_off_c, 0, 59, 64
2, 194386, Note_on_c, 0, 60, 37
2, 194553, Note_off_c, 0, 60, 64
2, 194555, Note_on_c, 0, 59, 36
2, 194721, Note_off_c, 0, 59, 64
2, 194723, Note_on_c, 0, 57, 34
2, 194890, Note_off_c, 0, 57, 64
2, 194892, Note_off_c, 0, 74, 64
2, 194893, Note_on_c, 0, 72, 50
2, 194894, Note_off_c, 0, 78, 64
2, 194895, Note_on_c, 0, 76, 57
2, 194895, Note_on_c, 0, 55, 33
2, 194904, Control_c, 0, 64, 0
2, 195103, Control_c, 0, 64, 127
2, 195714, Note_off_c, 0, 72, 64
2, 195918, Note_off_c, 0, 76, 64
2, 195921, Note_on_c, 0, 69, 40
2, 195922, Note_on_c, 0, 72, 48
2, 196434, Note_off_c, 0, 55, 64
2, 196436, Note_on_c, 0, 57, 44
2, 196950, Note_off_c, 0, 57, 64
2, 196952, Note_off_c, 0, 69, 64
2, 196953, Note_off_c, 0, 72, 64
2, 196954, Note_on_c, 0, 71, 42
2, 196956, Note_on_c, 0, 67, 36
2, 196956, Note_on_c, 0, 59, 40
2, 196963, Control_c, 0, 64, 0
2, 197164, Control_c, 0, 64, 127
2, 197465, Note_off_c, 0, 59, 64
2, 197467, Note_on_c, 0, 60, 36
2, 197902, Note_off_c, 0, 60, 64
2, 197990, Note_off_c, 0, 71, 64
2, 197991, Note_off_c, 0, 67, 64
2, 197993, Note_on_c, 0, 69, 40
2, 197993, Note_on_c, 0, 66, 36
2, 197995, Note_on_c, 0, 60, 26
2, 197995, Note_on_c, 0, 62, 30
2, 198004, Control_c, 0, 64, 0
2, 198207, Control_c, 0, 64, 127
2, 198316, Note_off_c, 0, 66, 64
2, 198331, Note_off_c, 0, 69, 64
2, 198514, Note_on_c, 0, 66, 36
2, 198516, Note_on_c, 0, 69, 42
2, 199389, Note_off_c, 0, 66, 64
2, 199390, Note_off_c, 0, 69, 64
2, 199392, Note_on_c, 0, 64, 30
2, 199393, Note_on_c, 0, 67, 36
2, 199403, Control_c, 0, 64, 0
2, 199608, Control_c, 0, 64, 127
2, 199738, Note_off_c, 0, 64, 64
2, 199740, Note_off_c, 0, 67, 64
2, 199742, Note_on_c, 0, 66, 32
2, 199742, Note_on_c, 0, 69, 38
2, 199955, Note_off_c, 0, 62, 64
2, 200091, Note_off_c, 0, 66, 64
2, 200093, Note_off_c, 0, 69, 64
2, 200095, Note_off_c, 0, 60, 64
2, 200095, Note_on_c, 0, 59, 32
2, 200097, Note_on_c, 0, 62, 30
2, 200097, Note_on_c, 0, 67, 35
2, 200097, Note_on_c, 0, 71, 41
2, 200119, Control_c, 0, 64, 0
2, 200327, Control_c, 0, 64, 127
2, 200363, Note_off_c, 0, 71, 64
2, 200399, Note_off_c, 0, 67, 64
2, 200447, Note_on_c, 0, 71, 40
2, 200449, Note_on_c, 0, 74, 44
2, 200745, Note_off_c, 0, 74, 64
2, 200752, Note_off_c, 0, 71, 64
2, 200804, Note_on_c, 0, 74, 38
2, 200805, Note_on_c, 0, 78, 48
2, 201089, Note_off_c, 0, 74, 64
2, 201102, Note_off_c, 0, 78, 64
2, 201160, Note_on_c, 0, 71, 32
2, 201162, Note_on_c, 0, 74, 44
2, 201419, Note_off_c, 0, 74, 64
2, 201435, Note_off_c, 0, 71, 64
2, 201517, Note_on_c, 0, 67, 35
2, 201519, Note_on_c, 0, 71, 40
2, 201818, Note_off_c, 0, 71, 64
2, 201821, Note_off_c, 0, 67, 64
2, 201872, Note_on_c, 0, 50, 25
2, 201874, Note_on_c, 0, 64, 30
2, 201876, Note_on_c, 0, 67, 36
2, 201990, Note_off_c, 0, 50, 64
2, 202030, Note_off_c, 0, 62, 64
2, 202228, Note_off_c, 0, 64, 64
2, 202230, Note_off_c, 0, 67, 64
2, 202232, Note_off_c, 0, 59, 64
2, 202232, Note_on_c, 0, 66, 36
2, 202234, Note_on_c, 0, 60, 26
2, 202234, Note_on_c, 0, 62, 30
2, 202234, Note_on_c, 0, 69, 40
2, 202243, Control_c, 0, 64, 0
2, 202451, Control_c, 0, 64, 127
2, 202617, Note_off_c, 0, 66, 64
2, 202622, Note_off_c, 0, 69, 64
2, 202768, Note_on_c, 0, 66, 34
2, 202769, Note_on_c, 0, 69, 42
2, 203675, Note_off_c, 0, 66, 64
2, 203676, Note_off_c, 0, 69, 64
2, 203678, Note_on_c, 0, 64, 30
2, 203678, Note_on_c, 0, 67, 36
2, 204037, Note_off_c, 0, 64, 64
2, 204039, Note_off_c, 0, 67, 64
2, 204041, Note_on_c, 0, 66, 27
2, 204041, Note_on_c, 0, 69, 38
2, 204128, Note_off_c, 0, 62, 64
2, 204401, Note_off_c, 0, 66, 64
2, 204403, Note_off_c, 0, 69, 64
2, 204405, Note_off_c, 0, 60, 64
2, 204405, Note_on_c, 0, 59, 27
2, 204405, Note_on_c, 0, 62, 30
2, 204407, Note_on_c, 0, 67, 35
2, 204408, Note_on_c, 0, 71, 41
2, 204416, Control_c, 0, 64, 0
2, 204628, Control_c, 0, 64, 127
2, 204674, Note_off_c, 0, 71, 64
2, 204698, Note_off_c, 0, 67, 64
2, 204764, Note_on_c, 0, 71, 36
2, 204766, Note_on_c, 0, 74, 44
2, 205053, Note_off_c, 0, 74, 64
2, 205062, Note_off_c, 0, 71, 64
2, 205128, Note_on_c, 0, 74, 40
2, 205130, Note_on_c, 0, 78, 48
2, 205401, Note_off_c, 0, 78, 64
2, 205412, Note_off_c, 0, 74, 64
2, 205497, Note_on_c, 0, 71, 32
2, 205498, Note_on_c, 0, 74, 42
2, 205805, Note_off_c, 0, 71, 64
2, 205807, Note_off_c, 0, 74, 64
2, 205864, Note_on_c, 0, 67, 29
2, 205866, Note_on_c, 0, 71, 37
2, 206137, Note_off_c, 0, 59, 64
2, 206166, Note_off_c, 0, 71, 64
2, 206170, Note_off_c, 0, 67, 64
2, 206233, Note_on_c, 0, 64, 25
2, 206235, Note_on_c, 0, 67, 32
2, 206271, Note_off_c, 0, 62, 64
2, 206501, Note_off_c, 0, 67, 64
2, 206515, Note_off_c, 0, 64, 64
2, 206602, Note_on_c, 0, 52, 25
2, 206604, Note_on_c, 0, 62, 34
2, 206606, Note_on_c, 0, 59, 30
2, 206606, Note_on_c, 0, 67, 30
2, 206606, Note_on_c, 0, 79, 35
2, 206609, Note_on_c, 0, 83, 41
2, 206618, Control_c, 0, 64, 0
2, 206842, Control_c, 0, 64, 127
2, 206893, Note_off_c, 0, 83, 64
2, 206919, Note_off_c, 0, 79, 64
2, 206988, Note_on_c, 0, 83, 36
2, 206990, Note_on_c, 0, 86, 44
2, 207302, Note_off_c, 0, 86, 64
2, 207311, Note_off_c, 0, 83, 64
2, 207384, Note_on_c, 0, 86, 40
2, 207386, Note_on_c, 0, 90, 48
2, 207679, Note_off_c, 0, 90, 64
2, 207694, Note_off_c, 0, 86, 64
2, 207787, Note_on_c, 0, 83, 32
2, 207789, Note_on_c, 0, 86, 42
2, 208132, Note_off_c, 0, 83, 64
2, 208134, Note_off_c, 0, 86, 64
2, 208199, Note_on_c, 0, 79, 29
2, 208201, Note_on_c, 0, 83, 37
2, 208544, Note_off_c, 0, 83, 64
2, 208548, Note_off_c, 0, 79, 64
2, 208619, Note_on_c, 0, 79, 32
2, 208621, Note_on_c, 0, 76, 25
2, 208933, Note_off_c, 0, 79, 64
2, 209051, Note_off_c, 0, 76, 64
2, 209053, Note_off_c, 0, 52, 64
2, 209055, Note_off_c, 0, 62, 64
2, 209055, Note_off_c, 0, 59, 64
2, 209056, Note_off_c, 0, 67, 64
2, 209057, Note_on_c, 0, 72, 42
2, 209059, Note_on_c, 0, 91, 48
2, 209061, Note_on_c, 0, 45, 25
2, 209063, Note_on_c, 0, 60, 30
2, 209069, Control_c, 0, 64, 0
2, 209071, Note_on_c, 0, 79, 30
2, 209073, Note_on_c, 0, 88, 36
2, 209075, Note_on_c, 0, 64, 32
2, 209325, Control_c, 0, 64, 127
2, 209492, Note_on_c, 0, 71, 40
2, 209530, Note_off_c, 0, 72, 64
2, 209945, Note_on_c, 0, 67, 32
2, 209982, Note_off_c, 0, 71, 64
2, 210406, Note_on_c, 0, 71, 42
2, 210447, Note_off_c, 0, 67, 64
2, 211366, Note_off_c, 0, 60, 64
2, 211405, Note_off_c, 0, 45, 64
2, 211515, Note_off_c, 0, 64, 64
2, 211853, Note_on_c, 0, 64, 38
2, 211855, Note_on_c, 0, 55, 32
2, 211862, Note_on_c, 0, 38, 25
2, 211869, Note_on_c, 0, 45, 28
2, 211876, Note_on_c, 0, 60, 35
2, 211889, Control_c, 0, 64, 0
2, 212187, Control_c, 0, 64, 127
2, 212458, Note_off_c, 0, 88, 64
2, 212643, Note_on_c, 0, 67, 32
2, 212687, Note_off_c, 0, 71, 64
2, 212692, Note_off_c, 0, 79, 64
2, 212855, Note_off_c, 0, 67, 64
2, 213092, Note_off_c, 0, 64, 64
2, 213227, Note_off_c, 0, 60, 64
2, 213438, Note_off_c, 0, 55, 64
2, 213452, Note_off_c, 0, 91, 64
2, 213454, Note_on_c, 0, 88, 40
2, 213466, Note_on_c, 0, 64, 38
2, 213468, Note_on_c, 0, 76, 36
2, 213484, Note_on_c, 0, 54, 25
2, 213486, Note_on_c, 0, 84, 30
2, 213488, Note_on_c, 0, 60, 32
2, 214297, Note_on_c, 0, 69, 35
2, 214460, Note_off_c, 0, 38, 64
2, 214512, Note_off_c, 0, 45, 64
2, 214620, Note_off_c, 0, 84, 64
2, 214711, Note_off_c, 0, 76, 64
2, 214823, Note_off_c, 0, 54, 64
2, 214873, Note_off_c, 0, 64, 64
2, 214875, Note_off_c, 0, 88, 64
2, 214907, Note_off_c, 0, 60, 64
2, 215182, Note_off_c, 0, 69, 64
2, 215184, Note_on_c, 0, 91, 36
2, 215189, Note_on_c, 0, 55, 30
2, 215192, Note_on_c, 0, 38, 25
2, 215198, Note_on_c, 0, 31, 28
2, 215210, Note_on_c, 0, 71, 30
2, 215213, Note_on_c, 0, 62, 25
2, 215215, Note_on_c, 0, 86, 16
2, 215219, Note_on_c, 0, 59, 20
2, 215224, Note_on_c, 0, 79, 24
2, 215232, Control_c, 0, 64, 0
2, 215584, Control_c, 0, 64, 127
2, 218505, Note_off_c, 0, 38, 64
2, 218519, Note_off_c, 0, 31, 64
2, 218554, Note_off_c, 0, 62, 64
2, 218750, Note_off_c, 0, 79, 64
2, 218960, Note_off_c, 0, 55, 64
2, 219051, Note_off_c, 0, 71, 64
2, 219118, Note_off_c, 0, 59, 64
2, 219180, Note_off_c, 0, 86, 64
2, 219410, Note_off_c, 0, 91, 64
2, 220065, Control_c, 0, 64, 0
2, 220065, End_track
3, 0, Start_track
3, 0, Title_t, "En Bateau, (Boating)"
3, 0, Channel_prefix, 1
3, 0, End_track
4, 0, Start_track
4, 0, Title_t, "from Petite Suite, 4 hands"
4, 0, Channel_prefix, 2
4, 0, End_track
5, 0, Start_track
5, 0, Title_t, "Sequence by Richard Carlson"
5, 0, Channel_prefix, 3
5, 0, End_track
6, 0, Start_track
6, 0, Title_t, "http://geocities.com/lionheart2251"
6, 0, Channel_prefix, 4
6, 0, End_track
7, 0, Start_track
7, 0, Title_t, "lionheart2251@yahoo.com"
7, 0, Channel_prefix, 5
7, 0, End_track
8, 0, Start_track
8, 0, Title_t, "Copyright  2003"
8, 0, Channel_prefix, 6
8, 0, End_track
0, 0, End_of_file
