0, 0, Header, 1, 2, 240
1, 0, Start_track
1, 0, Title_t, "DEBUSSY  ""ESTAMPES"" ---JARDINS SOUS LA PLUIE---  \211\211\221t\201@\217¬\214I\215\216\227T"
1, 0, Text_t, "CVS Ver5.05 Created\012"
1, 0, Text_t, "\203h\203r\203\205\203b\203V\201[\201u\224Å\211æ\201v\202æ\202è\012"
1, 0, Text_t, "\201u\211J\202Ì\222ë\201v\012"
1, 0, Text_t, "DEBUSSY  ""ESTAMPES""\012"
1, 0, Text_t, """JARDINS SOUS LA PLUIE""\012"
1, 0, Text_t, "( 3' 54"")\012"
1, 0, Text_t, "\211\211\221t\201@\201@\217¬\214I\215\216\227T\012"
1, 0, Text_t, "PLAY BY KATSUHIRO\012"
1, 0, Text_t, "OGURI\012"
1, 0, Text_t, "<RESET>\012"
1, 0, Text_t, "<Master Volume>\012"
1, 0, System_exclusive, 10, 65, 16, 66, 18, 64, 0, 127, 0, 65, 247
1, 1, System_exclusive, 10, 65, 16, 66, 18, 64, 0, 4, 100, 88, 247
1, 2, System_exclusive, 10, 65, 16, 66, 18, 64, 1, 48, 3, 12, 247
1, 2, System_exclusive, 10, 65, 16, 66, 18, 64, 1, 51, 60, 80, 247
1, 2, System_exclusive, 10, 65, 16, 66, 18, 64, 1, 52, 60, 79, 247
1, 2, Time_signature, 4, 2, 24, 8
1, 2, Key_signature, 1, "major"
1, 2, Tempo, 500000
1, 2, End_track
2, 0, Start_track
2, 0, Title_t, "PIANO"
2, 96, Text_t, "<Master Reverve>"
2, 240, Control_c, 0, 0, 0
2, 240, Control_c, 0, 32, 1
2, 241, Program_c, 0, 0
2, 241, Control_c, 0, 7, 100
2, 241, Control_c, 0, 10, 64
2, 241, Control_c, 0, 91, 90
2, 486, Control_c, 0, 11, 127
2, 678, Control_c, 0, 1, 0
2, 678, Text_t, "<part reverve>"
2, 727, Control_c, 0, 99, 1
2, 728, Control_c, 0, 98, 32
2, 729, Control_c, 0, 6, 62
2, 730, Control_c, 0, 38, 0
2, 733, Control_c, 0, 99, 1
2, 734, Control_c, 0, 98, 33
2, 735, Control_c, 0, 6, 54
2, 736, Control_c, 0, 38, 0
2, 739, Control_c, 0, 99, 1
2, 740, Control_c, 0, 98, 99
2, 741, Control_c, 0, 6, 62
2, 742, Control_c, 0, 38, 0
2, 745, Control_c, 0, 99, 1
2, 746, Control_c, 0, 98, 100
2, 747, Control_c, 0, 6, 60
2, 748, Control_c, 0, 38, 0
2, 751, Control_c, 0, 99, 1
2, 752, Control_c, 0, 98, 102
2, 753, Control_c, 0, 6, 70
2, 754, Control_c, 0, 38, 0
2, 1272, Control_c, 0, 67, 127
2, 1331, Control_c, 0, 64, 63
2, 1332, Control_c, 0, 64, 127
2, 1336, Note_on_c, 0, 52, 90
2, 1365, Note_on_c, 0, 52, 0
2, 1389, Note_on_c, 0, 64, 77
2, 1428, Note_on_c, 0, 64, 0
2, 1435, Note_on_c, 0, 55, 68
2, 1477, Note_on_c, 0, 55, 0
2, 1481, Note_on_c, 0, 52, 76
2, 1507, Note_on_c, 0, 52, 0
2, 1527, Note_on_c, 0, 52, 96
2, 1546, Note_on_c, 0, 52, 0
2, 1573, Note_on_c, 0, 64, 89
2, 1612, Note_on_c, 0, 64, 0
2, 1619, Note_on_c, 0, 55, 67
2, 1654, Note_on_c, 0, 55, 0
2, 1660, Note_on_c, 0, 52, 84
2, 1691, Note_on_c, 0, 52, 0
2, 1708, Note_on_c, 0, 54, 99
2, 1734, Note_on_c, 0, 54, 0
2, 1750, Note_on_c, 0, 64, 80
2, 1793, Note_on_c, 0, 57, 70
2, 1796, Note_on_c, 0, 64, 0
2, 1835, Note_on_c, 0, 54, 84
2, 1845, Note_on_c, 0, 57, 0
2, 1873, Note_on_c, 0, 54, 0
2, 1891, Note_on_c, 0, 55, 83
2, 1923, Note_on_c, 0, 55, 0
2, 1931, Note_on_c, 0, 64, 78
2, 1975, Note_on_c, 0, 59, 89
2, 2004, Note_on_c, 0, 64, 0
2, 2016, Note_on_c, 0, 55, 71
2, 2022, Note_on_c, 0, 59, 0
2, 2055, Note_on_c, 0, 55, 0
2, 2071, Note_on_c, 0, 57, 106
2, 2087, Control_c, 0, 64, 63
2, 2100, Control_c, 0, 64, 0
2, 2113, Note_on_c, 0, 64, 75
2, 2131, Control_c, 0, 64, 63
2, 2142, Control_c, 0, 64, 127
2, 2156, Note_on_c, 0, 60, 79
2, 2157, Note_on_c, 0, 57, 0
2, 2185, Note_on_c, 0, 64, 0
2, 2196, Note_on_c, 0, 57, 76
2, 2201, Note_on_c, 0, 60, 0
2, 2235, Note_on_c, 0, 57, 0
2, 2243, Note_on_c, 0, 55, 97
2, 2261, Control_c, 0, 64, 63
2, 2269, Control_c, 0, 64, 0
2, 2277, Note_on_c, 0, 55, 0
2, 2287, Note_on_c, 0, 64, 83
2, 2300, Control_c, 0, 64, 63
2, 2311, Control_c, 0, 64, 127
2, 2333, Note_on_c, 0, 59, 66
2, 2365, Note_on_c, 0, 64, 0
2, 2375, Note_on_c, 0, 55, 59
2, 2382, Note_on_c, 0, 59, 0
2, 2418, Control_c, 0, 64, 63
2, 2421, Note_on_c, 0, 55, 0
2, 2421, Note_on_c, 0, 54, 93
2, 2426, Control_c, 0, 64, 0
2, 2456, Note_on_c, 0, 64, 76
2, 2458, Note_on_c, 0, 54, 0
2, 2461, Control_c, 0, 64, 63
2, 2469, Control_c, 0, 64, 127
2, 2500, Note_on_c, 0, 57, 62
2, 2511, Note_on_c, 0, 64, 0
2, 2546, Note_on_c, 0, 54, 91
2, 2552, Note_on_c, 0, 57, 0
2, 2571, Note_on_c, 0, 54, 0
2, 2591, Control_c, 0, 64, 63
2, 2596, Note_on_c, 0, 59, 85
2, 2600, Control_c, 0, 64, 0
2, 2625, Control_c, 0, 64, 63
2, 2637, Control_c, 0, 64, 127
2, 2638, Note_on_c, 0, 59, 0
2, 2645, Note_on_c, 0, 66, 94
2, 2689, Note_on_c, 0, 63, 85
2, 2707, Note_on_c, 0, 66, 0
2, 2729, Note_on_c, 0, 59, 70
2, 2738, Note_on_c, 0, 63, 0
2, 2766, Control_c, 0, 64, 63
2, 2769, Note_on_c, 0, 59, 0
2, 2771, Control_c, 0, 64, 0
2, 2778, Note_on_c, 0, 52, 103
2, 2806, Control_c, 0, 64, 63
2, 2814, Control_c, 0, 64, 127
2, 2817, Note_on_c, 0, 52, 0
2, 2821, Note_on_c, 0, 59, 74
2, 2869, Note_on_c, 0, 55, 72
2, 2876, Note_on_c, 0, 59, 0
2, 2911, Note_on_c, 0, 55, 0
2, 2913, Note_on_c, 0, 52, 75
2, 2947, Note_on_c, 0, 52, 0
2, 2962, Note_on_c, 0, 52, 76
2, 2995, Note_on_c, 0, 52, 0
2, 3003, Note_on_c, 0, 59, 76
2, 3060, Note_on_c, 0, 59, 0
2, 3063, Note_on_c, 0, 55, 70
2, 3095, Note_on_c, 0, 52, 71
2, 3100, Note_on_c, 0, 55, 0
2, 3131, Note_on_c, 0, 52, 0
2, 3138, Control_c, 0, 64, 63
2, 3145, Control_c, 0, 64, 0
2, 3146, Note_on_c, 0, 50, 91
2, 3174, Control_c, 0, 64, 63
2, 3181, Note_on_c, 0, 59, 58
2, 3185, Control_c, 0, 64, 127
2, 3194, Note_on_c, 0, 50, 0
2, 3222, Note_on_c, 0, 55, 54
2, 3234, Note_on_c, 0, 59, 0
2, 3275, Note_on_c, 0, 50, 63
2, 3276, Note_on_c, 0, 55, 0
2, 3310, Note_on_c, 0, 50, 0
2, 3329, Note_on_c, 0, 50, 85
2, 3356, Note_on_c, 0, 50, 0
2, 3370, Note_on_c, 0, 59, 63
2, 3411, Note_on_c, 0, 55, 60
2, 3422, Note_on_c, 0, 59, 0
2, 3455, Note_on_c, 0, 55, 0
2, 3458, Note_on_c, 0, 50, 42
2, 3486, Note_on_c, 0, 50, 0
2, 3496, Control_c, 0, 64, 63
2, 3502, Note_on_c, 0, 48, 82
2, 3503, Control_c, 0, 64, 0
2, 3506, Note_on_c, 0, 40, 77
2, 3539, Control_c, 0, 64, 63
2, 3547, Control_c, 0, 64, 127
2, 3551, Note_on_c, 0, 59, 69
2, 3556, Note_on_c, 0, 48, 0
2, 3587, Note_on_c, 0, 55, 69
2, 3603, Note_on_c, 0, 59, 0
2, 3632, Note_on_c, 0, 55, 0
2, 3633, Note_on_c, 0, 48, 85
2, 3666, Note_on_c, 0, 48, 0
2, 3686, Note_on_c, 0, 48, 91
2, 3705, Note_on_c, 0, 48, 0
2, 3732, Note_on_c, 0, 59, 92
2, 3774, Note_on_c, 0, 55, 75
2, 3793, Note_on_c, 0, 59, 0
2, 3817, Note_on_c, 0, 48, 88
2, 3826, Note_on_c, 0, 55, 0
2, 3862, Note_on_c, 0, 48, 0
2, 3876, Note_on_c, 0, 50, 109
2, 3921, Control_c, 0, 64, 63
2, 3925, Control_c, 0, 64, 0
2, 3930, Note_on_c, 0, 58, 92
2, 3940, Note_on_c, 0, 50, 0
2, 3970, Control_c, 0, 64, 63
2, 3974, Note_on_c, 0, 55, 84
2, 3976, Control_c, 0, 64, 127
2, 4000, Note_on_c, 0, 58, 0
2, 4017, Note_on_c, 0, 50, 85
2, 4019, Note_on_c, 0, 55, 0
2, 4051, Note_on_c, 0, 50, 0
2, 4071, Note_on_c, 0, 50, 90
2, 4099, Note_on_c, 0, 50, 0
2, 4128, Note_on_c, 0, 58, 58
2, 4132, Note_on_c, 0, 40, 0
2, 4170, Note_on_c, 0, 55, 60
2, 4208, Note_on_c, 0, 58, 0
2, 4217, Note_on_c, 0, 50, 46
2, 4231, Note_on_c, 0, 55, 0
2, 4262, Note_on_c, 0, 48, 65
2, 4266, Note_on_c, 0, 50, 0
2, 4266, Note_on_c, 0, 40, 55
2, 4285, Control_c, 0, 64, 63
2, 4291, Control_c, 0, 64, 0
2, 4303, Note_on_c, 0, 59, 64
2, 4331, Control_c, 0, 64, 63
2, 4337, Control_c, 0, 64, 127
2, 4340, Note_on_c, 0, 48, 0
2, 4350, Note_on_c, 0, 55, 67
2, 4376, Note_on_c, 0, 59, 0
2, 4397, Note_on_c, 0, 48, 75
2, 4403, Note_on_c, 0, 55, 0
2, 4435, Note_on_c, 0, 48, 0
2, 4447, Note_on_c, 0, 48, 90
2, 4476, Note_on_c, 0, 48, 0
2, 4490, Note_on_c, 0, 59, 98
2, 4531, Note_on_c, 0, 55, 90
2, 4554, Note_on_c, 0, 59, 0
2, 4573, Note_on_c, 0, 48, 89
2, 4588, Note_on_c, 0, 55, 0
2, 4617, Note_on_c, 0, 48, 0
2, 4623, Note_on_c, 0, 50, 111
2, 4669, Control_c, 0, 64, 63
2, 4673, Note_on_c, 0, 58, 96
2, 4674, Control_c, 0, 64, 0
2, 4689, Note_on_c, 0, 50, 0
2, 4716, Note_on_c, 0, 55, 82
2, 4718, Control_c, 0, 64, 63
2, 4725, Control_c, 0, 64, 127
2, 4740, Note_on_c, 0, 58, 0
2, 4758, Note_on_c, 0, 50, 85
2, 4764, Note_on_c, 0, 55, 0
2, 4796, Note_on_c, 0, 50, 0
2, 4812, Note_on_c, 0, 50, 79
2, 4850, Note_on_c, 0, 50, 0
2, 4855, Note_on_c, 0, 58, 74
2, 4877, Note_on_c, 0, 40, 0
2, 4904, Note_on_c, 0, 55, 68
2, 4931, Note_on_c, 0, 58, 0
2, 4951, Note_on_c, 0, 50, 76
2, 4960, Note_on_c, 0, 55, 0
2, 4994, Note_on_c, 0, 50, 0
2, 5010, Note_on_c, 0, 47, 72
2, 5012, Note_on_c, 0, 41, 55
2, 5018, Control_c, 0, 64, 63
2, 5024, Control_c, 0, 64, 0
2, 5047, Note_on_c, 0, 47, 0
2, 5057, Note_on_c, 0, 59, 62
2, 5058, Control_c, 0, 64, 63
2, 5064, Control_c, 0, 64, 127
2, 5106, Note_on_c, 0, 57, 68
2, 5107, Note_on_c, 0, 59, 0
2, 5144, Note_on_c, 0, 57, 0
2, 5153, Note_on_c, 0, 47, 68
2, 5223, Note_on_c, 0, 47, 0
2, 5251, Note_on_c, 0, 59, 59
2, 5258, Note_on_c, 0, 41, 0
2, 5296, Note_on_c, 0, 59, 0
2, 5297, Note_on_c, 0, 57, 58
2, 5325, Note_on_c, 0, 57, 0
2, 5337, Note_on_c, 0, 47, 52
2, 5366, Note_on_c, 0, 47, 0
2, 5384, Note_on_c, 0, 47, 96
2, 5410, Note_on_c, 0, 47, 0
2, 5443, Note_on_c, 0, 59, 54
2, 5482, Note_on_c, 0, 57, 58
2, 5486, Note_on_c, 0, 59, 0
2, 5508, Note_on_c, 0, 57, 0
2, 5519, Note_on_c, 0, 47, 73
2, 5554, Note_on_c, 0, 47, 0
2, 5571, Note_on_c, 0, 47, 87
2, 5584, Note_on_c, 0, 47, 0
2, 5621, Note_on_c, 0, 59, 61
2, 5665, Note_on_c, 0, 57, 64
2, 5669, Note_on_c, 0, 59, 0
2, 5700, Note_on_c, 0, 57, 0
2, 5707, Note_on_c, 0, 47, 66
2, 5740, Note_on_c, 0, 47, 0
2, 5758, Note_on_c, 0, 47, 97
2, 5774, Note_on_c, 0, 47, 0
2, 5806, Note_on_c, 0, 59, 63
2, 5848, Note_on_c, 0, 57, 68
2, 5852, Note_on_c, 0, 59, 0
2, 5886, Note_on_c, 0, 57, 0
2, 5893, Note_on_c, 0, 47, 74
2, 5956, Note_on_c, 0, 47, 0
2, 5983, Note_on_c, 0, 59, 66
2, 6028, Note_on_c, 0, 57, 67
2, 6033, Note_on_c, 0, 59, 0
2, 6070, Note_on_c, 0, 47, 69
2, 6072, Note_on_c, 0, 57, 0
2, 6107, Note_on_c, 0, 47, 0
2, 6121, Control_c, 0, 64, 63
2, 6123, Note_on_c, 0, 48, 93
2, 6161, Control_c, 0, 64, 127
2, 6163, Note_on_c, 0, 59, 63
2, 6186, Note_on_c, 0, 48, 0
2, 6205, Note_on_c, 0, 57, 67
2, 6215, Note_on_c, 0, 59, 0
2, 6249, Note_on_c, 0, 48, 65
2, 6251, Note_on_c, 0, 57, 0
2, 6286, Note_on_c, 0, 48, 0
2, 6295, Control_c, 0, 64, 63
2, 6303, Control_c, 0, 64, 0
2, 6314, Note_on_c, 0, 50, 91
2, 6322, Control_c, 0, 64, 63
2, 6334, Control_c, 0, 64, 127
2, 6336, Note_on_c, 0, 50, 0
2, 6354, Note_on_c, 0, 59, 63
2, 6400, Note_on_c, 0, 57, 57
2, 6411, Note_on_c, 0, 59, 0
2, 6439, Note_on_c, 0, 50, 60
2, 6443, Note_on_c, 0, 57, 0
2, 6495, Note_on_c, 0, 50, 0
2, 6501, Control_c, 0, 64, 63
2, 6507, Note_on_c, 0, 52, 71
2, 6508, Control_c, 0, 64, 0
2, 6517, Note_on_c, 0, 45, 59
2, 6545, Control_c, 0, 64, 63
2, 6553, Control_c, 0, 64, 127
2, 6558, Note_on_c, 0, 60, 68
2, 6577, Note_on_c, 0, 52, 0
2, 6600, Note_on_c, 0, 57, 66
2, 6615, Note_on_c, 0, 60, 0
2, 6645, Note_on_c, 0, 52, 65
2, 6646, Note_on_c, 0, 57, 0
2, 6687, Note_on_c, 0, 53, 86
2, 6688, Note_on_c, 0, 52, 0
2, 6739, Note_on_c, 0, 62, 80
2, 6744, Control_c, 0, 64, 63
2, 6753, Control_c, 0, 64, 0
2, 6764, Control_c, 0, 64, 63
2, 6772, Note_on_c, 0, 53, 0
2, 6776, Note_on_c, 0, 59, 77
2, 6778, Control_c, 0, 64, 127
2, 6808, Note_on_c, 0, 62, 0
2, 6822, Note_on_c, 0, 53, 68
2, 6826, Note_on_c, 0, 59, 0
2, 6861, Note_on_c, 0, 45, 0
2, 6867, Note_on_c, 0, 53, 0
2, 6868, Note_on_c, 0, 55, 92
2, 6879, Control_c, 0, 64, 63
2, 6900, Control_c, 0, 64, 127
2, 6919, Note_on_c, 0, 64, 83
2, 6939, Note_on_c, 0, 55, 0
2, 6956, Note_on_c, 0, 60, 84
2, 6994, Note_on_c, 0, 64, 0
2, 7000, Note_on_c, 0, 55, 76
2, 7006, Note_on_c, 0, 60, 0
2, 7037, Note_on_c, 0, 57, 86
2, 7044, Note_on_c, 0, 55, 0
2, 7086, Note_on_c, 0, 65, 92
2, 7112, Note_on_c, 0, 57, 0
2, 7130, Note_on_c, 0, 62, 99
2, 7163, Note_on_c, 0, 65, 0
2, 7172, Note_on_c, 0, 57, 74
2, 7180, Note_on_c, 0, 62, 0
2, 7212, Note_on_c, 0, 59, 82
2, 7224, Note_on_c, 0, 57, 0
2, 7240, Control_c, 0, 64, 63
2, 7254, Control_c, 0, 64, 0
2, 7259, Note_on_c, 0, 67, 97
2, 7266, Control_c, 0, 64, 63
2, 7280, Control_c, 0, 64, 127
2, 7300, Note_on_c, 0, 64, 93
2, 7301, Note_on_c, 0, 59, 0
2, 7336, Note_on_c, 0, 59, 85
2, 7338, Note_on_c, 0, 67, 0
2, 7352, Note_on_c, 0, 64, 0
2, 7380, Note_on_c, 0, 59, 0
2, 7387, Note_on_c, 0, 60, 106
2, 7434, Note_on_c, 0, 69, 96
2, 7445, Control_c, 0, 64, 63
2, 7473, Control_c, 0, 64, 127
2, 7476, Note_on_c, 0, 65, 92
2, 7477, Note_on_c, 0, 60, 0
2, 7513, Note_on_c, 0, 60, 85
2, 7522, Note_on_c, 0, 69, 0
2, 7532, Note_on_c, 0, 65, 0
2, 7560, Note_on_c, 0, 62, 104
2, 7567, Note_on_c, 0, 60, 0
2, 7605, Note_on_c, 0, 71, 102
2, 7615, Control_c, 0, 64, 63
2, 7636, Note_on_c, 0, 62, 0
2, 7640, Control_c, 0, 64, 127
2, 7642, Note_on_c, 0, 67, 91
2, 7682, Note_on_c, 0, 62, 71
2, 7697, Note_on_c, 0, 67, 0
2, 7700, Note_on_c, 0, 71, 0
2, 7727, Note_on_c, 0, 64, 97
2, 7729, Note_on_c, 0, 62, 0
2, 7772, Note_on_c, 0, 72, 102
2, 7787, Control_c, 0, 64, 63
2, 7797, Note_on_c, 0, 64, 0
2, 7812, Control_c, 0, 64, 127
2, 7818, Note_on_c, 0, 69, 89
2, 7845, Note_on_c, 0, 72, 0
2, 7861, Note_on_c, 0, 64, 71
2, 7870, Note_on_c, 0, 69, 0
2, 7911, Note_on_c, 0, 64, 0
2, 7915, Note_on_c, 0, 62, 86
2, 7939, Control_c, 0, 64, 63
2, 7965, Note_on_c, 0, 71, 73
2, 7982, Control_c, 0, 64, 127
2, 8015, Note_on_c, 0, 62, 0
2, 8020, Note_on_c, 0, 67, 45
2, 8037, Note_on_c, 0, 71, 0
2, 8066, Note_on_c, 0, 62, 50
2, 8082, Note_on_c, 0, 67, 0
2, 8110, Note_on_c, 0, 65, 71
2, 8123, Note_on_c, 0, 62, 0
2, 8153, Note_on_c, 0, 65, 0
2, 8156, Note_on_c, 0, 72, 73
2, 8201, Note_on_c, 0, 69, 52
2, 8223, Note_on_c, 0, 72, 0
2, 8239, Note_on_c, 0, 64, 58
2, 8255, Note_on_c, 0, 69, 0
2, 8293, Note_on_c, 0, 62, 65
2, 8294, Note_on_c, 0, 64, 0
2, 8311, Control_c, 0, 64, 63
2, 8332, Note_on_c, 0, 71, 65
2, 8351, Control_c, 0, 64, 127
2, 8359, Note_on_c, 0, 62, 0
2, 8378, Note_on_c, 0, 67, 42
2, 8411, Note_on_c, 0, 71, 0
2, 8414, Note_on_c, 0, 62, 61
2, 8436, Note_on_c, 0, 67, 0
2, 8472, Note_on_c, 0, 62, 0
2, 8476, Note_on_c, 0, 60, 66
2, 8508, Control_c, 0, 64, 63
2, 8508, Note_on_c, 0, 69, 63
2, 8538, Note_on_c, 0, 60, 0
2, 8539, Control_c, 0, 64, 127
2, 8555, Note_on_c, 0, 65, 55
2, 8594, Note_on_c, 0, 60, 57
2, 8606, Note_on_c, 0, 69, 0
2, 8619, Note_on_c, 0, 65, 0
2, 8653, Note_on_c, 0, 60, 0
2, 8653, Note_on_c, 0, 59, 76
2, 8683, Control_c, 0, 64, 63
2, 8688, Note_on_c, 0, 67, 65
2, 8714, Control_c, 0, 64, 127
2, 8742, Note_on_c, 0, 64, 45
2, 8756, Note_on_c, 0, 59, 0
2, 8768, Note_on_c, 0, 67, 0
2, 8776, Note_on_c, 0, 59, 58
2, 8794, Note_on_c, 0, 64, 0
2, 8819, Note_on_c, 0, 62, 83
2, 8824, Note_on_c, 0, 59, 0
2, 8870, Note_on_c, 0, 69, 75
2, 8883, Control_c, 0, 64, 63
2, 8899, Note_on_c, 0, 62, 0
2, 8912, Note_on_c, 0, 65, 63
2, 8917, Control_c, 0, 64, 127
2, 8951, Note_on_c, 0, 69, 0
2, 8956, Note_on_c, 0, 60, 59
2, 8977, Note_on_c, 0, 65, 0
2, 9001, Note_on_c, 0, 59, 65
2, 9010, Note_on_c, 0, 60, 0
2, 9044, Note_on_c, 0, 59, 0
2, 9046, Note_on_c, 0, 67, 64
2, 9073, Control_c, 0, 64, 63
2, 9089, Note_on_c, 0, 64, 59
2, 9109, Control_c, 0, 64, 127
2, 9124, Note_on_c, 0, 67, 0
2, 9124, Note_on_c, 0, 59, 67
2, 9151, Note_on_c, 0, 64, 0
2, 9181, Note_on_c, 0, 59, 0
2, 9183, Note_on_c, 0, 57, 63
2, 9223, Note_on_c, 0, 65, 63
2, 9233, Control_c, 0, 64, 63
2, 9247, Note_on_c, 0, 57, 0
2, 9261, Control_c, 0, 64, 127
2, 9265, Note_on_c, 0, 62, 63
2, 9299, Note_on_c, 0, 65, 0
2, 9306, Note_on_c, 0, 57, 53
2, 9329, Note_on_c, 0, 62, 0
2, 9363, Note_on_c, 0, 57, 0
2, 9363, Note_on_c, 0, 55, 69
2, 9391, Control_c, 0, 64, 63
2, 9399, Note_on_c, 0, 64, 68
2, 9422, Control_c, 0, 64, 127
2, 9447, Note_on_c, 0, 55, 0
2, 9450, Note_on_c, 0, 60, 49
2, 9477, Note_on_c, 0, 64, 0
2, 9485, Note_on_c, 0, 55, 55
2, 9502, Note_on_c, 0, 60, 0
2, 9536, Note_on_c, 0, 59, 79
2, 9543, Note_on_c, 0, 55, 0
2, 9558, Control_c, 0, 64, 63
2, 9577, Note_on_c, 0, 65, 74
2, 9593, Control_c, 0, 64, 127
2, 9597, Note_on_c, 0, 59, 0
2, 9620, Note_on_c, 0, 62, 65
2, 9662, Note_on_c, 0, 65, 0
2, 9662, Note_on_c, 0, 57, 47
2, 9680, Note_on_c, 0, 62, 0
2, 9714, Note_on_c, 0, 55, 58
2, 9716, Note_on_c, 0, 57, 0
2, 9743, Control_c, 0, 64, 63
2, 9755, Note_on_c, 0, 64, 57
2, 9780, Control_c, 0, 64, 127
2, 9787, Note_on_c, 0, 55, 0
2, 9802, Note_on_c, 0, 60, 44
2, 9833, Note_on_c, 0, 64, 0
2, 9835, Note_on_c, 0, 55, 50
2, 9858, Note_on_c, 0, 60, 0
2, 9894, Note_on_c, 0, 55, 0
2, 9897, Note_on_c, 0, 53, 62
2, 9920, Control_c, 0, 64, 63
2, 9927, Note_on_c, 0, 62, 72
2, 9956, Control_c, 0, 64, 127
2, 9959, Note_on_c, 0, 53, 0
2, 9974, Note_on_c, 0, 59, 59
2, 10017, Note_on_c, 0, 62, 0
2, 10023, Note_on_c, 0, 53, 45
2, 10041, Note_on_c, 0, 59, 0
2, 10070, Note_on_c, 0, 52, 72
2, 10075, Note_on_c, 0, 53, 0
2, 10100, Control_c, 0, 64, 63
2, 10110, Note_on_c, 0, 60, 71
2, 10130, Control_c, 0, 64, 127
2, 10152, Note_on_c, 0, 57, 59
2, 10177, Note_on_c, 0, 60, 0
2, 10177, Note_on_c, 0, 52, 0
2, 10197, Note_on_c, 0, 52, 53
2, 10213, Note_on_c, 0, 57, 0
2, 10244, Note_on_c, 0, 52, 0
2, 10248, Note_on_c, 0, 55, 68
2, 10278, Control_c, 0, 64, 63
2, 10289, Note_on_c, 0, 62, 71
2, 10305, Note_on_c, 0, 55, 0
2, 10306, Control_c, 0, 64, 127
2, 10333, Note_on_c, 0, 59, 60
2, 10357, Note_on_c, 0, 62, 0
2, 10375, Note_on_c, 0, 53, 52
2, 10385, Note_on_c, 0, 59, 0
2, 10419, Note_on_c, 0, 53, 0
2, 10423, Note_on_c, 0, 52, 68
2, 10463, Note_on_c, 0, 60, 55
2, 10464, Note_on_c, 0, 52, 0
2, 10468, Control_c, 0, 64, 63
2, 10496, Control_c, 0, 64, 127
2, 10503, Note_on_c, 0, 57, 55
2, 10542, Note_on_c, 0, 60, 0
2, 10543, Note_on_c, 0, 52, 63
2, 10560, Note_on_c, 0, 57, 0
2, 10588, Control_c, 0, 64, 63
2, 10589, Note_on_c, 0, 52, 0
2, 10599, Control_c, 0, 64, 127
2, 10601, Note_on_c, 0, 50, 75
2, 10629, Note_on_c, 0, 59, 66
2, 10640, Note_on_c, 0, 50, 0
2, 10676, Note_on_c, 0, 55, 54
2, 10705, Note_on_c, 0, 59, 0
2, 10725, Note_on_c, 0, 50, 60
2, 10733, Note_on_c, 0, 55, 0
2, 10775, Note_on_c, 0, 50, 0
2, 10778, Control_c, 0, 64, 63
2, 10784, Note_on_c, 0, 48, 70
2, 10791, Note_on_c, 0, 41, 49
2, 10818, Control_c, 0, 64, 127
2, 10825, Note_on_c, 0, 57, 63
2, 10837, Note_on_c, 0, 48, 0
2, 10871, Note_on_c, 0, 53, 60
2, 10888, Note_on_c, 0, 57, 0
2, 10920, Note_on_c, 0, 48, 58
2, 10926, Note_on_c, 0, 53, 0
2, 10961, Note_on_c, 0, 52, 76
2, 10967, Note_on_c, 0, 48, 0
2, 11001, Note_on_c, 0, 52, 0
2, 11007, Note_on_c, 0, 59, 68
2, 11048, Note_on_c, 0, 55, 57
2, 11071, Note_on_c, 0, 59, 0
2, 11092, Note_on_c, 0, 50, 61
2, 11107, Note_on_c, 0, 55, 0
2, 11132, Note_on_c, 0, 48, 65
2, 11134, Control_c, 0, 64, 63
2, 11136, Note_on_c, 0, 50, 0
2, 11145, Control_c, 0, 64, 0
2, 11159, Control_c, 0, 64, 63
2, 11176, Control_c, 0, 64, 127
2, 11178, Note_on_c, 0, 57, 60
2, 11188, Note_on_c, 0, 48, 0
2, 11225, Note_on_c, 0, 53, 58
2, 11241, Note_on_c, 0, 57, 0
2, 11276, Note_on_c, 0, 48, 37
2, 11286, Note_on_c, 0, 53, 0
2, 11317, Note_on_c, 0, 52, 63
2, 11319, Note_on_c, 0, 48, 0
2, 11349, Note_on_c, 0, 52, 0
2, 11360, Note_on_c, 0, 59, 68
2, 11403, Note_on_c, 0, 55, 61
2, 11418, Note_on_c, 0, 59, 0
2, 11450, Note_on_c, 0, 50, 58
2, 11456, Note_on_c, 0, 55, 0
2, 11489, Note_on_c, 0, 50, 0
2, 11494, Note_on_c, 0, 47, 69
2, 11500, Control_c, 0, 64, 63
2, 11510, Control_c, 0, 64, 0
2, 11533, Note_on_c, 0, 55, 59
2, 11538, Control_c, 0, 64, 63
2, 11543, Note_on_c, 0, 47, 0
2, 11549, Control_c, 0, 64, 127
2, 11576, Note_on_c, 0, 52, 68
2, 11596, Note_on_c, 0, 55, 0
2, 11625, Note_on_c, 0, 47, 62
2, 11628, Note_on_c, 0, 52, 0
2, 11667, Note_on_c, 0, 47, 0
2, 11672, Note_on_c, 0, 50, 65
2, 11685, Control_c, 0, 64, 63
2, 11712, Note_on_c, 0, 57, 65
2, 11717, Note_on_c, 0, 50, 0
2, 11727, Control_c, 0, 64, 127
2, 11752, Note_on_c, 0, 41, 0
2, 11759, Note_on_c, 0, 53, 52
2, 11780, Note_on_c, 0, 57, 0
2, 11801, Note_on_c, 0, 48, 48
2, 11808, Note_on_c, 0, 53, 0
2, 11844, Note_on_c, 0, 48, 0
2, 11847, Note_on_c, 0, 47, 52
2, 11867, Control_c, 0, 64, 63
2, 11896, Note_on_c, 0, 55, 51
2, 11899, Control_c, 0, 64, 127
2, 11908, Note_on_c, 0, 47, 0
2, 11939, Note_on_c, 0, 52, 50
2, 11962, Note_on_c, 0, 55, 0
2, 11980, Note_on_c, 0, 47, 57
2, 11993, Note_on_c, 0, 52, 0
2, 12000, Control_c, 0, 64, 63
2, 12027, Control_c, 0, 64, 127
2, 12028, Note_on_c, 0, 47, 0
2, 12036, Note_on_c, 0, 50, 44
2, 12077, Note_on_c, 0, 57, 52
2, 12080, Note_on_c, 0, 50, 0
2, 12127, Note_on_c, 0, 53, 44
2, 12137, Note_on_c, 0, 57, 0
2, 12159, Note_on_c, 0, 48, 63
2, 12170, Note_on_c, 0, 53, 0
2, 12195, Note_on_c, 0, 48, 0
2, 12199, Control_c, 0, 64, 63
2, 12204, Note_on_c, 0, 45, 54
2, 12206, Control_c, 0, 64, 127
2, 12213, Control_c, 0, 64, 63
2, 12224, Control_c, 0, 64, 0
2, 12262, Note_on_c, 0, 57, 67
2, 12302, Note_on_c, 0, 45, 0
2, 12308, Note_on_c, 0, 53, 63
2, 12320, Note_on_c, 0, 57, 0
2, 12348, Note_on_c, 0, 45, 55
2, 12372, Note_on_c, 0, 53, 0
2, 12388, Note_on_c, 0, 45, 0
2, 12388, Note_on_c, 0, 39, 90
2, 12431, Note_on_c, 0, 45, 65
2, 12481, Note_on_c, 0, 53, 79
2, 12494, Note_on_c, 0, 45, 0
2, 12512, Note_on_c, 0, 57, 85
2, 12534, Note_on_c, 0, 53, 0
2, 12550, Note_on_c, 0, 57, 0
2, 12564, Note_on_c, 0, 36, 100
2, 12580, Note_on_c, 0, 39, 0
2, 12600, Control_c, 0, 64, 63
2, 12603, Control_c, 0, 64, 0
2, 12612, Note_on_c, 0, 62, 80
2, 12641, Control_c, 0, 64, 63
2, 12646, Control_c, 0, 64, 127
2, 12651, Note_on_c, 0, 58, 95
2, 12684, Note_on_c, 0, 62, 0
2, 12690, Note_on_c, 0, 52, 76
2, 12724, Note_on_c, 0, 58, 0
2, 12728, Note_on_c, 0, 52, 0
2, 12731, Note_on_c, 0, 50, 98
2, 12778, Note_on_c, 0, 52, 88
2, 12783, Note_on_c, 0, 36, 0
2, 12806, Note_on_c, 0, 50, 0
2, 12822, Note_on_c, 0, 58, 91
2, 12838, Note_on_c, 0, 52, 0
2, 12861, Note_on_c, 0, 62, 88
2, 12881, Note_on_c, 0, 58, 0
2, 12907, Note_on_c, 0, 62, 0
2, 12911, Note_on_c, 0, 49, 105
2, 12940, Control_c, 0, 64, 63
2, 12945, Control_c, 0, 64, 0
2, 12966, Note_on_c, 0, 61, 99
2, 12971, Control_c, 0, 64, 63
2, 12980, Control_c, 0, 64, 127
2, 13008, Note_on_c, 0, 57, 77
2, 13023, Note_on_c, 0, 49, 0
2, 13045, Note_on_c, 0, 61, 0
2, 13052, Note_on_c, 0, 49, 88
2, 13082, Note_on_c, 0, 57, 0
2, 13100, Note_on_c, 0, 49, 0
2, 13102, Note_on_c, 0, 43, 117
2, 13147, Note_on_c, 0, 49, 82
2, 13165, Note_on_c, 0, 43, 0
2, 13200, Note_on_c, 0, 57, 76
2, 13217, Note_on_c, 0, 49, 0
2, 13232, Note_on_c, 0, 61, 96
2, 13251, Note_on_c, 0, 57, 0
2, 13266, Note_on_c, 0, 61, 0
2, 13278, Note_on_c, 0, 39, 124
2, 13290, Control_c, 0, 64, 63
2, 13292, Control_c, 0, 64, 0
2, 13325, Control_c, 0, 64, 63
2, 13329, Control_c, 0, 64, 127
2, 13334, Note_on_c, 0, 65, 84
2, 13372, Note_on_c, 0, 61, 108
2, 13388, Note_on_c, 0, 39, 0
2, 13396, Note_on_c, 0, 65, 0
2, 13412, Note_on_c, 0, 55, 83
2, 13436, Note_on_c, 0, 61, 0
2, 13452, Note_on_c, 0, 55, 0
2, 13463, Note_on_c, 0, 53, 109
2, 13505, Note_on_c, 0, 55, 79
2, 13548, Note_on_c, 0, 61, 106
2, 13569, Note_on_c, 0, 55, 0
2, 13579, Note_on_c, 0, 53, 0
2, 13585, Note_on_c, 0, 65, 102
2, 13610, Note_on_c, 0, 61, 0
2, 13633, Note_on_c, 0, 52, 114
2, 13638, Note_on_c, 0, 65, 0
2, 13659, Control_c, 0, 64, 63
2, 13661, Control_c, 0, 64, 0
2, 13681, Note_on_c, 0, 64, 92
2, 13689, Control_c, 0, 64, 63
2, 13696, Control_c, 0, 64, 127
2, 13716, Note_on_c, 0, 60, 94
2, 13719, Note_on_c, 0, 52, 0
2, 13740, Note_on_c, 0, 64, 0
2, 13764, Note_on_c, 0, 52, 54
2, 13776, Note_on_c, 0, 60, 0
2, 13796, Note_on_c, 0, 52, 0
2, 13806, Note_on_c, 0, 46, 119
2, 13846, Note_on_c, 0, 52, 87
2, 13887, Note_on_c, 0, 60, 94
2, 13902, Note_on_c, 0, 52, 0
2, 13923, Note_on_c, 0, 46, 0
2, 13925, Note_on_c, 0, 64, 97
2, 13937, Note_on_c, 0, 60, 0
2, 13952, Note_on_c, 0, 64, 0
2, 13985, Control_c, 0, 64, 63
2, 13987, Control_c, 0, 64, 0
2, 13990, Note_on_c, 0, 43, 120
2, 14020, Control_c, 0, 64, 63
2, 14026, Control_c, 0, 64, 127
2, 14036, Note_on_c, 0, 69, 91
2, 14081, Note_on_c, 0, 65, 103
2, 14117, Note_on_c, 0, 59, 91
2, 14121, Note_on_c, 0, 69, 0
2, 14148, Note_on_c, 0, 65, 0
2, 14149, Note_on_c, 0, 57, 94
2, 14159, Note_on_c, 0, 59, 0
2, 14195, Note_on_c, 0, 59, 106
2, 14220, Note_on_c, 0, 43, 0
2, 14238, Note_on_c, 0, 57, 0
2, 14238, Note_on_c, 0, 65, 107
2, 14253, Note_on_c, 0, 59, 0
2, 14280, Note_on_c, 0, 69, 102
2, 14300, Note_on_c, 0, 65, 0
2, 14319, Note_on_c, 0, 69, 0
2, 14335, Note_on_c, 0, 56, 118
2, 14341, Control_c, 0, 64, 63
2, 14344, Control_c, 0, 64, 0
2, 14376, Control_c, 0, 64, 63
2, 14380, Control_c, 0, 64, 127
2, 14382, Note_on_c, 0, 68, 98
2, 14410, Note_on_c, 0, 56, 0
2, 14420, Note_on_c, 0, 64, 82
2, 14449, Note_on_c, 0, 68, 0
2, 14464, Note_on_c, 0, 56, 97
2, 14497, Note_on_c, 0, 64, 0
2, 14506, Note_on_c, 0, 50, 118
2, 14508, Note_on_c, 0, 56, 0
2, 14550, Note_on_c, 0, 50, 0
2, 14551, Note_on_c, 0, 56, 105
2, 14594, Note_on_c, 0, 64, 90
2, 14613, Note_on_c, 0, 56, 0
2, 14629, Note_on_c, 0, 68, 104
2, 14651, Note_on_c, 0, 64, 0
2, 14658, Control_c, 0, 64, 63
2, 14660, Control_c, 0, 64, 0
2, 14671, Note_on_c, 0, 68, 0
2, 14672, Note_on_c, 0, 46, 119
2, 14690, Control_c, 0, 64, 63
2, 14695, Control_c, 0, 64, 127
2, 14725, Note_on_c, 0, 72, 103
2, 14726, Note_on_c, 0, 46, 0
2, 14757, Note_on_c, 0, 68, 107
2, 14778, Note_on_c, 0, 72, 0
2, 14797, Note_on_c, 0, 62, 92
2, 14812, Note_on_c, 0, 68, 0
2, 14828, Note_on_c, 0, 62, 0
2, 14839, Note_on_c, 0, 60, 121
2, 14879, Note_on_c, 0, 62, 92
2, 14901, Control_c, 0, 67, 127
2, 14919, Note_on_c, 0, 60, 0
2, 14923, Note_on_c, 0, 68, 100
2, 14935, Note_on_c, 0, 62, 0
2, 14957, Note_on_c, 0, 72, 93
2, 14971, Note_on_c, 0, 68, 0
2, 14981, Control_c, 0, 64, 63
2, 14982, Control_c, 0, 64, 0
2, 15001, Note_on_c, 0, 72, 0
2, 15005, Note_on_c, 0, 65, 111
2, 15015, Control_c, 0, 67, 0
2, 15035, Control_c, 0, 64, 63
2, 15036, Control_c, 0, 64, 127
2, 15064, Note_on_c, 0, 70, 94
2, 15093, Note_on_c, 0, 68, 89
2, 15120, Note_on_c, 0, 70, 0
2, 15134, Note_on_c, 0, 62, 59
2, 15148, Note_on_c, 0, 68, 0
2, 15169, Note_on_c, 0, 60, 90
2, 15170, Note_on_c, 0, 62, 0
2, 15210, Note_on_c, 0, 62, 84
2, 15246, Note_on_c, 0, 65, 0
2, 15251, Note_on_c, 0, 68, 95
2, 15274, Note_on_c, 0, 62, 0
2, 15295, Note_on_c, 0, 70, 104
2, 15311, Note_on_c, 0, 60, 0
2, 15323, Note_on_c, 0, 68, 0
2, 15337, Note_on_c, 0, 59, 114
2, 15356, Control_c, 0, 64, 63
2, 15359, Control_c, 0, 64, 0
2, 15360, Note_on_c, 0, 70, 0
2, 15387, Control_c, 0, 64, 63
2, 15388, Note_on_c, 0, 71, 99
2, 15393, Control_c, 0, 64, 127
2, 15421, Note_on_c, 0, 68, 97
2, 15463, Note_on_c, 0, 62, 88
2, 15480, Note_on_c, 0, 71, 0
2, 15492, Note_on_c, 0, 68, 0
2, 15503, Note_on_c, 0, 62, 0
2, 15512, Note_on_c, 0, 64, 111
2, 15539, Note_on_c, 0, 59, 0
2, 15549, Note_on_c, 0, 62, 97
2, 15574, Note_on_c, 0, 64, 0
2, 15593, Note_on_c, 0, 68, 106
2, 15612, Note_on_c, 0, 62, 0
2, 15628, Note_on_c, 0, 71, 97
2, 15650, Note_on_c, 0, 68, 0
2, 15671, Note_on_c, 0, 71, 0
2, 15677, Note_on_c, 0, 65, 113
2, 15685, Control_c, 0, 64, 63
2, 15688, Control_c, 0, 64, 0
2, 15710, Control_c, 0, 64, 63
2, 15717, Control_c, 0, 64, 127
2, 15720, Note_on_c, 0, 72, 117
2, 15761, Note_on_c, 0, 65, 0
2, 15763, Note_on_c, 0, 68, 108
2, 15786, Note_on_c, 0, 72, 0
2, 15807, Note_on_c, 0, 62, 96
2, 15827, Note_on_c, 0, 68, 0
2, 15841, Note_on_c, 0, 62, 0
2, 15842, Note_on_c, 0, 58, 120
2, 15886, Note_on_c, 0, 58, 0
2, 15889, Note_on_c, 0, 62, 106
2, 15934, Note_on_c, 0, 68, 104
2, 15941, Note_on_c, 0, 62, 0
2, 15963, Note_on_c, 0, 72, 71
2, 15979, Note_on_c, 0, 68, 0
2, 15997, Note_on_c, 0, 72, 0
2, 16008, Control_c, 0, 64, 63
2, 16011, Control_c, 0, 64, 0
2, 16015, Note_on_c, 0, 57, 121
2, 16035, Control_c, 0, 64, 63
2, 16043, Control_c, 0, 64, 127
2, 16070, Note_on_c, 0, 71, 99
2, 16072, Note_on_c, 0, 73, 107
2, 16082, Note_on_c, 0, 57, 0
2, 16114, Note_on_c, 0, 67, 91
2, 16139, Note_on_c, 0, 71, 0
2, 16149, Note_on_c, 0, 61, 108
2, 16151, Note_on_c, 0, 73, 0
2, 16171, Note_on_c, 0, 67, 0
2, 16179, Note_on_c, 0, 61, 0
2, 16185, Note_on_c, 0, 64, 97
2, 16218, Note_on_c, 0, 64, 0
2, 16219, Note_on_c, 0, 61, 107
2, 16269, Note_on_c, 0, 61, 0
2, 16273, Note_on_c, 0, 67, 67
2, 16299, Note_on_c, 0, 73, 98
2, 16312, Note_on_c, 0, 71, 69
2, 16324, Note_on_c, 0, 67, 0
2, 16336, Note_on_c, 0, 71, 0
2, 16344, Note_on_c, 0, 73, 0
2, 16350, Control_c, 0, 64, 63
2, 16353, Control_c, 0, 64, 0
2, 16365, Note_on_c, 0, 66, 126
2, 16379, Control_c, 0, 64, 63
2, 16384, Control_c, 0, 64, 127
2, 16403, Note_on_c, 0, 66, 0
2, 16425, Note_on_c, 0, 76, 94
2, 16429, Note_on_c, 0, 72, 96
2, 16464, Note_on_c, 0, 68, 108
2, 16472, Note_on_c, 0, 76, 0
2, 16493, Note_on_c, 0, 72, 0
2, 16504, Note_on_c, 0, 64, 75
2, 16520, Note_on_c, 0, 68, 0
2, 16527, Note_on_c, 0, 64, 0
2, 16538, Note_on_c, 0, 56, 127
2, 16568, Note_on_c, 0, 56, 0
2, 16570, Note_on_c, 0, 64, 85
2, 16618, Note_on_c, 0, 68, 93
2, 16623, Note_on_c, 0, 64, 0
2, 16659, Note_on_c, 0, 72, 71
2, 16662, Note_on_c, 0, 76, 87
2, 16669, Note_on_c, 0, 68, 0
2, 16676, Note_on_c, 0, 72, 0
2, 16688, Note_on_c, 0, 76, 0
2, 16704, Control_c, 0, 64, 63
2, 16706, Control_c, 0, 64, 0
2, 16710, Note_on_c, 0, 61, 126
2, 16736, Control_c, 0, 64, 63
2, 16742, Control_c, 0, 64, 127
2, 16759, Note_on_c, 0, 79, 102
2, 16762, Note_on_c, 0, 75, 113
2, 16763, Note_on_c, 0, 61, 0
2, 16801, Note_on_c, 0, 71, 106
2, 16810, Note_on_c, 0, 79, 0
2, 16832, Note_on_c, 0, 75, 0
2, 16842, Note_on_c, 0, 67, 87
2, 16862, Note_on_c, 0, 71, 0
2, 16872, Note_on_c, 0, 67, 0
2, 16878, Note_on_c, 0, 51, 121
2, 16912, Note_on_c, 0, 67, 100
2, 16940, Note_on_c, 0, 51, 0
2, 16952, Note_on_c, 0, 71, 100
2, 16957, Note_on_c, 0, 67, 0
2, 16988, Note_on_c, 0, 79, 96
2, 16993, Note_on_c, 0, 75, 88
2, 16997, Note_on_c, 0, 71, 0
2, 17017, Note_on_c, 0, 79, 0
2, 17018, Note_on_c, 0, 75, 0
2, 17050, Note_on_c, 0, 60, 120
2, 17056, Control_c, 0, 64, 63
2, 17060, Control_c, 0, 64, 0
2, 17084, Control_c, 0, 64, 63
2, 17094, Control_c, 0, 64, 127
2, 17102, Note_on_c, 0, 78, 103
2, 17103, Note_on_c, 0, 82, 95
2, 17144, Note_on_c, 0, 74, 100
2, 17177, Note_on_c, 0, 82, 0
2, 17187, Note_on_c, 0, 78, 0
2, 17190, Note_on_c, 0, 70, 95
2, 17207, Note_on_c, 0, 74, 0
2, 17215, Note_on_c, 0, 70, 0
2, 17215, Note_on_c, 0, 60, 0
2, 17219, Note_on_c, 0, 50, 122
2, 17257, Note_on_c, 0, 70, 109
2, 17303, Note_on_c, 0, 74, 84
2, 17312, Note_on_c, 0, 70, 0
2, 17344, Note_on_c, 0, 78, 80
2, 17345, Note_on_c, 0, 82, 80
2, 17353, Note_on_c, 0, 74, 0
2, 17363, Note_on_c, 0, 78, 0
2, 17368, Note_on_c, 0, 82, 0
2, 17393, Note_on_c, 0, 50, 0
2, 17402, Note_on_c, 0, 55, 116
2, 17435, Control_c, 0, 64, 63
2, 17440, Control_c, 0, 64, 0
2, 17458, Note_on_c, 0, 81, 98
2, 17462, Control_c, 0, 64, 63
2, 17462, Note_on_c, 0, 85, 98
2, 17472, Control_c, 0, 64, 127
2, 17497, Note_on_c, 0, 77, 102
2, 17544, Note_on_c, 0, 73, 108
2, 17551, Note_on_c, 0, 81, 0
2, 17555, Note_on_c, 0, 85, 0
2, 17566, Note_on_c, 0, 77, 0
2, 17587, Note_on_c, 0, 45, 120
2, 17591, Note_on_c, 0, 55, 0
2, 17592, Note_on_c, 0, 73, 0
2, 17635, Note_on_c, 0, 73, 104
2, 17642, Note_on_c, 0, 45, 0
2, 17687, Note_on_c, 0, 77, 98
2, 17698, Note_on_c, 0, 73, 0
2, 17745, Note_on_c, 0, 85, 104
2, 17745, Note_on_c, 0, 81, 96
2, 17763, Note_on_c, 0, 77, 0
2, 17816, Note_on_c, 0, 33, 126
2, 17839, Note_on_c, 0, 81, 0
2, 17840, Note_on_c, 0, 85, 0
2, 17843, Control_c, 0, 64, 63
2, 17846, Control_c, 0, 64, 0
2, 17908, Note_on_c, 0, 81, 91
2, 17908, Note_on_c, 0, 85, 101
2, 17954, Note_on_c, 0, 77, 75
2, 18009, Note_on_c, 0, 73, 96
2, 18019, Note_on_c, 0, 85, 0
2, 18040, Note_on_c, 0, 45, 117
2, 18049, Control_c, 0, 64, 127
2, 18051, Note_on_c, 0, 77, 0
2, 18067, Note_on_c, 0, 81, 0
2, 18083, Note_on_c, 0, 33, 0
2, 18107, Note_on_c, 0, 81, 89
2, 18109, Note_on_c, 0, 85, 98
2, 18114, Note_on_c, 0, 45, 0
2, 18118, Note_on_c, 0, 73, 0
2, 18154, Note_on_c, 0, 77, 98
2, 18200, Note_on_c, 0, 73, 107
2, 18224, Note_on_c, 0, 81, 0
2, 18232, Note_on_c, 0, 77, 0
2, 18235, Note_on_c, 0, 85, 0
2, 18237, Note_on_c, 0, 55, 107
2, 18238, Note_on_c, 0, 57, 108
2, 18274, Note_on_c, 0, 73, 0
2, 18291, Note_on_c, 0, 85, 90
2, 18292, Note_on_c, 0, 55, 0
2, 18293, Note_on_c, 0, 81, 83
2, 18295, Note_on_c, 0, 57, 0
2, 18329, Note_on_c, 0, 77, 85
2, 18370, Note_on_c, 0, 73, 103
2, 18387, Note_on_c, 0, 81, 0
2, 18400, Note_on_c, 0, 85, 0
2, 18404, Note_on_c, 0, 77, 0
2, 18411, Note_on_c, 0, 69, 111
2, 18411, Note_on_c, 0, 67, 107
2, 18434, Note_on_c, 0, 73, 0
2, 18456, Note_on_c, 0, 81, 86
2, 18457, Note_on_c, 0, 85, 90
2, 18492, Note_on_c, 0, 77, 84
2, 18518, Note_on_c, 0, 69, 0
2, 18519, Note_on_c, 0, 67, 0
2, 18532, Note_on_c, 0, 85, 0
2, 18538, Note_on_c, 0, 73, 101
2, 18539, Note_on_c, 0, 81, 0
2, 18556, Note_on_c, 0, 77, 0
2, 18577, Note_on_c, 0, 73, 0
2, 18602, Note_on_c, 0, 69, 124
2, 18634, Note_on_c, 0, 69, 0
2, 18657, Note_on_c, 0, 73, 106
2, 18703, Note_on_c, 0, 69, 76
2, 18709, Note_on_c, 0, 73, 0
2, 18746, Note_on_c, 0, 73, 106
2, 18747, Note_on_c, 0, 69, 0
2, 18781, Note_on_c, 0, 73, 0
2, 18785, Note_on_c, 0, 69, 107
2, 18814, Note_on_c, 0, 69, 0
2, 18837, Note_on_c, 0, 73, 104
2, 18875, Note_on_c, 0, 69, 69
2, 18882, Note_on_c, 0, 73, 0
2, 18914, Note_on_c, 0, 73, 90
2, 18918, Note_on_c, 0, 69, 0
2, 18955, Note_on_c, 0, 69, 89
2, 18963, Note_on_c, 0, 73, 0
2, 19004, Note_on_c, 0, 73, 87
2, 19005, Note_on_c, 0, 69, 0
2, 19054, Note_on_c, 0, 73, 0
2, 19055, Note_on_c, 0, 69, 71
2, 19093, Note_on_c, 0, 73, 88
2, 19098, Note_on_c, 0, 69, 0
2, 19135, Note_on_c, 0, 69, 101
2, 19141, Note_on_c, 0, 73, 0
2, 19174, Note_on_c, 0, 73, 76
2, 19177, Note_on_c, 0, 69, 0
2, 19230, Note_on_c, 0, 73, 0
2, 19239, Note_on_c, 0, 69, 75
2, 19275, Note_on_c, 0, 73, 76
2, 19277, Note_on_c, 0, 69, 0
2, 19319, Note_on_c, 0, 73, 0
2, 19321, Note_on_c, 0, 69, 107
2, 19363, Note_on_c, 0, 69, 0
2, 19369, Note_on_c, 0, 73, 67
2, 19417, Note_on_c, 0, 73, 0
2, 19427, Note_on_c, 0, 69, 70
2, 19462, Note_on_c, 0, 73, 72
2, 19463, Note_on_c, 0, 69, 0
2, 19500, Note_on_c, 0, 73, 0
2, 19505, Note_on_c, 0, 69, 98
2, 19548, Note_on_c, 0, 69, 0
2, 19548, Note_on_c, 0, 73, 70
2, 19589, Note_on_c, 0, 73, 0
2, 19601, Note_on_c, 0, 69, 60
2, 19640, Note_on_c, 0, 73, 60
2, 19641, Note_on_c, 0, 69, 0
2, 19680, Note_on_c, 0, 73, 0
2, 19682, Note_on_c, 0, 69, 88
2, 19724, Note_on_c, 0, 73, 75
2, 19725, Note_on_c, 0, 69, 0
2, 19767, Note_on_c, 0, 73, 0
2, 19778, Note_on_c, 0, 69, 54
2, 19811, Note_on_c, 0, 69, 0
2, 19816, Note_on_c, 0, 73, 63
2, 19850, Note_on_c, 0, 73, 0
2, 19863, Note_on_c, 0, 69, 58
2, 19898, Note_on_c, 0, 69, 0
2, 19906, Note_on_c, 0, 73, 64
2, 19942, Note_on_c, 0, 69, 52
2, 19943, Note_on_c, 0, 73, 0
2, 19982, Note_on_c, 0, 69, 0
2, 19984, Note_on_c, 0, 73, 60
2, 20023, Note_on_c, 0, 73, 0
2, 20024, Control_c, 0, 64, 63
2, 20029, Control_c, 0, 64, 0
2, 20051, Control_c, 0, 67, 127
2, 20053, Note_on_c, 0, 78, 80
2, 20064, Control_c, 0, 64, 63
2, 20067, Control_c, 0, 64, 127
2, 20083, Note_on_c, 0, 78, 0
2, 20102, Note_on_c, 0, 73, 65
2, 20135, Note_on_c, 0, 70, 70
2, 20142, Note_on_c, 0, 73, 0
2, 20170, Note_on_c, 0, 70, 0
2, 20172, Note_on_c, 0, 66, 74
2, 20194, Note_on_c, 0, 66, 0
2, 20214, Note_on_c, 0, 66, 94
2, 20225, Control_c, 0, 64, 63
2, 20226, Note_on_c, 0, 66, 0
2, 20231, Control_c, 0, 64, 0
2, 20249, Note_on_c, 0, 66, 71
2, 20266, Control_c, 0, 64, 63
2, 20293, Note_on_c, 0, 70, 78
2, 20298, Note_on_c, 0, 66, 0
2, 20316, Control_c, 0, 64, 127
2, 20338, Note_on_c, 0, 73, 79
2, 20347, Note_on_c, 0, 70, 0
2, 20382, Note_on_c, 0, 80, 100
2, 20386, Note_on_c, 0, 73, 0
2, 20405, Control_c, 0, 64, 63
2, 20407, Note_on_c, 0, 80, 0
2, 20422, Control_c, 0, 64, 0
2, 20422, Note_on_c, 0, 73, 47
2, 20456, Note_on_c, 0, 71, 68
2, 20491, Note_on_c, 0, 73, 0
2, 20506, Note_on_c, 0, 68, 57
2, 20522, Note_on_c, 0, 71, 0
2, 20543, Note_on_c, 0, 68, 0
2, 20555, Note_on_c, 0, 80, 98
2, 20583, Note_on_c, 0, 80, 0
2, 20598, Note_on_c, 0, 73, 76
2, 20640, Note_on_c, 0, 71, 55
2, 20671, Note_on_c, 0, 73, 0
2, 20679, Note_on_c, 0, 68, 64
2, 20692, Note_on_c, 0, 71, 0
2, 20717, Note_on_c, 0, 68, 0
2, 20731, Note_on_c, 0, 78, 107
2, 20743, Control_c, 0, 64, 63
2, 20745, Control_c, 0, 64, 127
2, 20754, Note_on_c, 0, 78, 0
2, 20772, Note_on_c, 0, 73, 75
2, 20809, Note_on_c, 0, 70, 70
2, 20817, Note_on_c, 0, 73, 0
2, 20845, Note_on_c, 0, 70, 0
2, 20846, Note_on_c, 0, 66, 76
2, 20868, Note_on_c, 0, 66, 0
2, 20898, Note_on_c, 0, 66, 92
2, 20906, Control_c, 0, 64, 63
2, 20909, Note_on_c, 0, 66, 0
2, 20910, Control_c, 0, 64, 0
2, 20930, Note_on_c, 0, 66, 72
2, 20977, Note_on_c, 0, 66, 0
2, 20980, Note_on_c, 0, 70, 79
2, 21021, Note_on_c, 0, 73, 88
2, 21030, Note_on_c, 0, 70, 0
2, 21068, Note_on_c, 0, 73, 0
2, 21070, Note_on_c, 0, 80, 109
2, 21093, Note_on_c, 0, 80, 0
2, 21103, Note_on_c, 0, 73, 60
2, 21144, Note_on_c, 0, 71, 61
2, 21161, Note_on_c, 0, 73, 0
2, 21183, Note_on_c, 0, 68, 60
2, 21200, Note_on_c, 0, 71, 0
2, 21231, Note_on_c, 0, 68, 0
2, 21240, Note_on_c, 0, 80, 108
2, 21265, Note_on_c, 0, 80, 0
2, 21277, Note_on_c, 0, 73, 69
2, 21326, Note_on_c, 0, 71, 48
2, 21353, Note_on_c, 0, 73, 0
2, 21358, Note_on_c, 0, 68, 50
2, 21374, Note_on_c, 0, 71, 0
2, 21409, Control_c, 0, 64, 63
2, 21410, Note_on_c, 0, 68, 0
2, 21414, Control_c, 0, 64, 127
2, 21419, Note_on_c, 0, 78, 116
2, 21443, Note_on_c, 0, 78, 0
2, 21460, Note_on_c, 0, 73, 81
2, 21501, Note_on_c, 0, 70, 68
2, 21512, Note_on_c, 0, 73, 0
2, 21533, Note_on_c, 0, 66, 77
2, 21538, Note_on_c, 0, 70, 0
2, 21558, Note_on_c, 0, 66, 0
2, 21583, Control_c, 0, 64, 63
2, 21589, Control_c, 0, 64, 0
2, 21591, Note_on_c, 0, 66, 96
2, 21601, Note_on_c, 0, 66, 0
2, 21628, Note_on_c, 0, 66, 72
2, 21664, Control_c, 0, 64, 63
2, 21671, Note_on_c, 0, 66, 0
2, 21678, Note_on_c, 0, 70, 82
2, 21701, Control_c, 0, 64, 0
2, 21718, Note_on_c, 0, 73, 87
2, 21729, Note_on_c, 0, 70, 0
2, 21762, Note_on_c, 0, 80, 101
2, 21767, Note_on_c, 0, 73, 0
2, 21786, Note_on_c, 0, 80, 0
2, 21810, Note_on_c, 0, 71, 68
2, 21852, Note_on_c, 0, 70, 75
2, 21868, Note_on_c, 0, 71, 0
2, 21886, Note_on_c, 0, 68, 82
2, 21892, Note_on_c, 0, 70, 0
2, 21921, Note_on_c, 0, 68, 0
2, 21929, Note_on_c, 0, 82, 115
2, 21964, Note_on_c, 0, 82, 0
2, 21969, Note_on_c, 0, 73, 88
2, 22008, Note_on_c, 0, 71, 79
2, 22054, Note_on_c, 0, 73, 0
2, 22054, Note_on_c, 0, 70, 92
2, 22071, Note_on_c, 0, 71, 0
2, 22096, Note_on_c, 0, 83, 106
2, 22101, Note_on_c, 0, 70, 0
2, 22133, Note_on_c, 0, 83, 0
2, 22139, Note_on_c, 0, 75, 94
2, 22179, Note_on_c, 0, 73, 85
2, 22202, Note_on_c, 0, 75, 0
2, 22217, Note_on_c, 0, 71, 69
2, 22241, Note_on_c, 0, 73, 0
2, 22259, Note_on_c, 0, 82, 115
2, 22264, Note_on_c, 0, 71, 0
2, 22302, Note_on_c, 0, 82, 0
2, 22305, Note_on_c, 0, 73, 91
2, 22340, Note_on_c, 0, 71, 92
2, 22370, Note_on_c, 0, 73, 0
2, 22385, Note_on_c, 0, 70, 85
2, 22396, Note_on_c, 0, 71, 0
2, 22422, Note_on_c, 0, 70, 0
2, 22431, Note_on_c, 0, 80, 119
2, 22470, Note_on_c, 0, 80, 0
2, 22473, Note_on_c, 0, 75, 100
2, 22511, Note_on_c, 0, 73, 100
2, 22543, Note_on_c, 0, 75, 0
2, 22544, Note_on_c, 0, 71, 100
2, 22569, Note_on_c, 0, 73, 0
2, 22579, Note_on_c, 0, 71, 0
2, 22598, Note_on_c, 0, 85, 127
2, 22627, Note_on_c, 0, 85, 0
2, 22648, Note_on_c, 0, 77, 101
2, 22690, Note_on_c, 0, 75, 106
2, 22715, Note_on_c, 0, 77, 0
2, 22730, Note_on_c, 0, 73, 92
2, 22743, Note_on_c, 0, 75, 0
2, 22755, Note_on_c, 0, 73, 0
2, 22789, Control_c, 0, 67, 0
2, 22796, Note_on_c, 0, 66, 127
2, 22810, Control_c, 0, 64, 127
2, 22829, Note_on_c, 0, 66, 0
2, 22861, Note_on_c, 0, 78, 74
2, 22900, Note_on_c, 0, 69, 61
2, 22910, Note_on_c, 0, 78, 0
2, 22953, Note_on_c, 0, 66, 86
2, 22960, Note_on_c, 0, 69, 0
2, 22987, Note_on_c, 0, 66, 0
2, 22992, Note_on_c, 0, 66, 97
2, 23017, Note_on_c, 0, 66, 0
2, 23039, Note_on_c, 0, 78, 92
2, 23078, Note_on_c, 0, 69, 48
2, 23091, Note_on_c, 0, 78, 0
2, 23112, Note_on_c, 0, 66, 91
2, 23123, Note_on_c, 0, 69, 0
2, 23145, Note_on_c, 0, 66, 0
2, 23162, Note_on_c, 0, 68, 119
2, 23178, Control_c, 0, 64, 63
2, 23182, Control_c, 0, 64, 0
2, 23204, Note_on_c, 0, 78, 95
2, 23204, Control_c, 0, 64, 63
2, 23213, Control_c, 0, 64, 127
2, 23237, Note_on_c, 0, 68, 0
2, 23242, Note_on_c, 0, 71, 76
2, 23273, Note_on_c, 0, 78, 0
2, 23286, Note_on_c, 0, 68, 82
2, 23287, Note_on_c, 0, 71, 0
2, 23310, Note_on_c, 0, 68, 0
2, 23331, Note_on_c, 0, 69, 118
2, 23374, Note_on_c, 0, 78, 84
2, 23398, Note_on_c, 0, 69, 0
2, 23410, Note_on_c, 0, 73, 91
2, 23436, Note_on_c, 0, 78, 0
2, 23449, Note_on_c, 0, 69, 75
2, 23462, Note_on_c, 0, 73, 0
2, 23484, Note_on_c, 0, 69, 0
2, 23506, Note_on_c, 0, 71, 116
2, 23516, Control_c, 0, 64, 63
2, 23520, Control_c, 0, 64, 0
2, 23542, Note_on_c, 0, 78, 89
2, 23545, Control_c, 0, 64, 63
2, 23554, Control_c, 0, 64, 127
2, 23584, Note_on_c, 0, 74, 68
2, 23615, Note_on_c, 0, 71, 0
2, 23626, Note_on_c, 0, 78, 0
2, 23627, Note_on_c, 0, 71, 72
2, 23657, Note_on_c, 0, 74, 0
2, 23663, Note_on_c, 0, 71, 0
2, 23675, Note_on_c, 0, 69, 117
2, 23712, Control_c, 0, 64, 63
2, 23714, Note_on_c, 0, 78, 90
2, 23733, Control_c, 0, 64, 127
2, 23760, Note_on_c, 0, 73, 81
2, 23763, Note_on_c, 0, 69, 0
2, 23796, Note_on_c, 0, 78, 0
2, 23807, Note_on_c, 0, 69, 54
2, 23821, Note_on_c, 0, 73, 0
2, 23841, Note_on_c, 0, 69, 0
2, 23848, Note_on_c, 0, 68, 119
2, 23850, Control_c, 0, 64, 63
2, 23879, Control_c, 0, 64, 127
2, 23881, Note_on_c, 0, 78, 94
2, 23906, Note_on_c, 0, 68, 0
2, 23933, Note_on_c, 0, 71, 76
2, 23968, Note_on_c, 0, 68, 93
2, 23971, Note_on_c, 0, 78, 0
2, 23980, Note_on_c, 0, 71, 0
2, 24002, Note_on_c, 0, 68, 0
2, 24030, Note_on_c, 0, 73, 120
2, 24035, Control_c, 0, 64, 63
2, 24059, Control_c, 0, 64, 127
2, 24073, Note_on_c, 0, 80, 85
2, 24083, Note_on_c, 0, 73, 0
2, 24115, Note_on_c, 0, 77, 81
2, 24153, Note_on_c, 0, 80, 0
2, 24160, Note_on_c, 0, 73, 90
2, 24167, Note_on_c, 0, 77, 0
2, 24186, Note_on_c, 0, 73, 0
2, 24222, Note_on_c, 0, 66, 124
2, 24249, Control_c, 0, 64, 63
2, 24256, Control_c, 0, 64, 0
2, 24279, Control_c, 0, 64, 63
2, 24287, Note_on_c, 0, 73, 85
2, 24289, Control_c, 0, 64, 127
2, 24324, Note_on_c, 0, 66, 0
2, 24336, Note_on_c, 0, 69, 65
2, 24348, Note_on_c, 0, 73, 0
2, 24371, Note_on_c, 0, 66, 59
2, 24382, Note_on_c, 0, 69, 0
2, 24403, Note_on_c, 0, 66, 0
2, 24425, Note_on_c, 0, 66, 83
2, 24445, Note_on_c, 0, 66, 0
2, 24458, Note_on_c, 0, 66, 50
2, 24492, Note_on_c, 0, 66, 0
2, 24512, Note_on_c, 0, 69, 75
2, 24555, Note_on_c, 0, 73, 97
2, 24568, Note_on_c, 0, 69, 0
2, 24599, Note_on_c, 0, 64, 116
2, 24603, Note_on_c, 0, 73, 0
2, 24626, Control_c, 0, 64, 63
2, 24650, Control_c, 0, 64, 127
2, 24663, Note_on_c, 0, 73, 80
2, 24709, Note_on_c, 0, 73, 0
2, 24712, Note_on_c, 0, 69, 80
2, 24735, Note_on_c, 0, 66, 75
2, 24739, Note_on_c, 0, 69, 0
2, 24740, Note_on_c, 0, 64, 0
2, 24764, Note_on_c, 0, 66, 0
2, 24781, Note_on_c, 0, 66, 105
2, 24799, Note_on_c, 0, 66, 0
2, 24834, Note_on_c, 0, 66, 78
2, 24873, Note_on_c, 0, 66, 0
2, 24883, Note_on_c, 0, 69, 50
2, 24921, Note_on_c, 0, 73, 82
2, 24938, Note_on_c, 0, 69, 0
2, 24961, Note_on_c, 0, 63, 121
2, 24969, Note_on_c, 0, 73, 0
2, 24981, Control_c, 0, 64, 63
2, 25001, Control_c, 0, 64, 127
2, 25010, Note_on_c, 0, 73, 76
2, 25047, Note_on_c, 0, 69, 57
2, 25075, Note_on_c, 0, 73, 0
2, 25089, Note_on_c, 0, 66, 78
2, 25094, Note_on_c, 0, 63, 0
2, 25098, Note_on_c, 0, 69, 0
2, 25118, Note_on_c, 0, 66, 0
2, 25137, Note_on_c, 0, 66, 89
2, 25155, Note_on_c, 0, 66, 0
2, 25186, Note_on_c, 0, 66, 72
2, 25236, Note_on_c, 0, 66, 0
2, 25242, Note_on_c, 0, 69, 52
2, 25277, Note_on_c, 0, 73, 80
2, 25292, Note_on_c, 0, 69, 0
2, 25317, Note_on_c, 0, 62, 116
2, 25318, Note_on_c, 0, 73, 0
2, 25322, Control_c, 0, 64, 63
2, 25343, Control_c, 0, 64, 127
2, 25360, Note_on_c, 0, 73, 62
2, 25397, Note_on_c, 0, 62, 0
2, 25402, Note_on_c, 0, 69, 44
2, 25409, Note_on_c, 0, 73, 0
2, 25439, Note_on_c, 0, 66, 82
2, 25443, Note_on_c, 0, 69, 0
2, 25470, Note_on_c, 0, 66, 0
2, 25493, Note_on_c, 0, 66, 95
2, 25518, Note_on_c, 0, 66, 0
2, 25538, Note_on_c, 0, 66, 79
2, 25586, Note_on_c, 0, 66, 0
2, 25594, Note_on_c, 0, 69, 39
2, 25625, Note_on_c, 0, 73, 84
2, 25637, Note_on_c, 0, 69, 0
2, 25660, Note_on_c, 0, 73, 0
2, 25691, Note_on_c, 0, 61, 103
2, 25700, Note_on_c, 0, 54, 86
2, 25720, Control_c, 0, 64, 63
2, 25747, Control_c, 0, 64, 127
2, 25751, Note_on_c, 0, 69, 51
2, 25783, Note_on_c, 0, 61, 0
2, 25795, Note_on_c, 0, 66, 73
2, 25804, Note_on_c, 0, 69, 0
2, 25840, Note_on_c, 0, 61, 75
2, 25847, Control_c, 0, 67, 127
2, 25849, Note_on_c, 0, 66, 0
2, 25877, Note_on_c, 0, 61, 0
2, 25881, Note_on_c, 0, 64, 86
2, 25928, Note_on_c, 0, 69, 54
2, 25935, Control_c, 0, 67, 0
2, 25959, Note_on_c, 0, 66, 71
2, 25976, Note_on_c, 0, 64, 0
2, 25986, Note_on_c, 0, 69, 0
2, 26002, Note_on_c, 0, 63, 75
2, 26022, Note_on_c, 0, 66, 0
2, 26033, Control_c, 0, 64, 63
2, 26040, Note_on_c, 0, 61, 100
2, 26041, Note_on_c, 0, 63, 0
2, 26056, Control_c, 0, 64, 127
2, 26084, Note_on_c, 0, 69, 65
2, 26096, Note_on_c, 0, 61, 0
2, 26120, Note_on_c, 0, 66, 78
2, 26140, Note_on_c, 0, 69, 0
2, 26146, Control_c, 0, 67, 127
2, 26163, Note_on_c, 0, 61, 69
2, 26172, Note_on_c, 0, 66, 0
2, 26199, Note_on_c, 0, 61, 0
2, 26214, Note_on_c, 0, 64, 77
2, 26237, Control_c, 0, 64, 63
2, 26255, Note_on_c, 0, 69, 41
2, 26268, Control_c, 0, 64, 127
2, 26279, Note_on_c, 0, 66, 63
2, 26315, Note_on_c, 0, 69, 0
2, 26315, Note_on_c, 0, 64, 0
2, 26327, Note_on_c, 0, 63, 70
2, 26342, Note_on_c, 0, 54, 0
2, 26345, Note_on_c, 0, 66, 0
2, 26381, Note_on_c, 0, 63, 0
2, 26387, Note_on_c, 0, 60, 79
2, 26392, Note_on_c, 0, 54, 70
2, 26414, Control_c, 0, 64, 63
2, 26434, Control_c, 0, 64, 127
2, 26434, Note_on_c, 0, 69, 40
2, 26475, Note_on_c, 0, 66, 51
2, 26503, Note_on_c, 0, 69, 0
2, 26523, Note_on_c, 0, 66, 0
2, 26568, Note_on_c, 0, 64, 73
2, 26583, Note_on_c, 0, 60, 0
2, 26620, Note_on_c, 0, 69, 38
2, 26635, Control_c, 0, 64, 63
2, 26639, Note_on_c, 0, 64, 0
2, 26645, Control_c, 0, 64, 127
2, 26654, Note_on_c, 0, 66, 68
2, 26677, Note_on_c, 0, 69, 0
2, 26695, Note_on_c, 0, 62, 56
2, 26705, Note_on_c, 0, 66, 0
2, 26734, Note_on_c, 0, 62, 0
2, 26751, Note_on_c, 0, 60, 51
2, 26787, Note_on_c, 0, 69, 48
2, 26789, Control_c, 0, 64, 63
2, 26799, Note_on_c, 0, 60, 0
2, 26800, Control_c, 0, 64, 127
2, 26819, Note_on_c, 0, 66, 54
2, 26843, Note_on_c, 0, 69, 0
2, 26857, Note_on_c, 0, 60, 42
2, 26866, Note_on_c, 0, 66, 0
2, 26893, Note_on_c, 0, 60, 0
2, 26912, Note_on_c, 0, 64, 80
2, 26948, Note_on_c, 0, 64, 0
2, 26954, Note_on_c, 0, 69, 42
2, 26966, Note_on_c, 0, 54, 0
2, 26995, Note_on_c, 0, 66, 51
2, 27010, Note_on_c, 0, 69, 0
2, 27031, Note_on_c, 0, 62, 61
2, 27041, Note_on_c, 0, 66, 0
2, 27088, Control_c, 0, 64, 63
2, 27090, Note_on_c, 0, 51, 63
2, 27093, Control_c, 0, 64, 63
2, 27097, Control_c, 0, 64, 127
2, 27121, Note_on_c, 0, 62, 0
2, 27148, Note_on_c, 0, 72, 63
2, 27192, Note_on_c, 0, 51, 0
2, 27194, Note_on_c, 0, 69, 55
2, 27208, Note_on_c, 0, 72, 0
2, 27243, Note_on_c, 0, 60, 52
2, 27269, Note_on_c, 0, 69, 0
2, 27289, Note_on_c, 0, 66, 91
2, 27290, Note_on_c, 0, 60, 0
2, 27295, Note_on_c, 0, 57, 63
2, 27338, Note_on_c, 0, 72, 84
2, 27357, Note_on_c, 0, 57, 0
2, 27378, Note_on_c, 0, 69, 70
2, 27412, Note_on_c, 0, 66, 0
2, 27416, Note_on_c, 0, 72, 0
2, 27417, Note_on_c, 0, 60, 84
2, 27435, Note_on_c, 0, 69, 0
2, 27456, Note_on_c, 0, 60, 0
2, 27470, Note_on_c, 0, 68, 103
2, 27476, Note_on_c, 0, 59, 84
2, 27487, Control_c, 0, 64, 63
2, 27491, Control_c, 0, 64, 0
2, 27517, Control_c, 0, 64, 63
2, 27522, Note_on_c, 0, 74, 90
2, 27523, Control_c, 0, 64, 127
2, 27563, Note_on_c, 0, 71, 85
2, 27567, Note_on_c, 0, 68, 0
2, 27584, Note_on_c, 0, 59, 0
2, 27599, Note_on_c, 0, 74, 0
2, 27612, Note_on_c, 0, 62, 70
2, 27638, Note_on_c, 0, 71, 0
2, 27657, Note_on_c, 0, 62, 0
2, 27665, Note_on_c, 0, 53, 79
2, 27711, Note_on_c, 0, 74, 75
2, 27756, Note_on_c, 0, 71, 73
2, 27784, Note_on_c, 0, 53, 0
2, 27794, Note_on_c, 0, 74, 0
2, 27807, Note_on_c, 0, 62, 79
2, 27837, Note_on_c, 0, 71, 0
2, 27869, Note_on_c, 0, 51, 93
2, 27876, Control_c, 0, 64, 63
2, 27879, Control_c, 0, 64, 0
2, 27891, Note_on_c, 0, 62, 0
2, 27913, Control_c, 0, 64, 63
2, 27914, Note_on_c, 0, 72, 82
2, 27918, Control_c, 0, 64, 127
2, 27952, Note_on_c, 0, 69, 66
2, 27976, Note_on_c, 0, 51, 0
2, 27988, Note_on_c, 0, 72, 0
2, 27998, Note_on_c, 0, 60, 74
2, 28047, Note_on_c, 0, 69, 0
2, 28052, Note_on_c, 0, 60, 0
2, 28053, Note_on_c, 0, 66, 108
2, 28057, Note_on_c, 0, 57, 84
2, 28100, Note_on_c, 0, 72, 91
2, 28117, Note_on_c, 0, 57, 0
2, 28135, Note_on_c, 0, 69, 86
2, 28155, Note_on_c, 0, 66, 0
2, 28167, Note_on_c, 0, 72, 0
2, 28176, Note_on_c, 0, 60, 90
2, 28191, Note_on_c, 0, 69, 0
2, 28217, Note_on_c, 0, 60, 0
2, 28228, Note_on_c, 0, 68, 109
2, 28230, Note_on_c, 0, 59, 98
2, 28254, Control_c, 0, 64, 63
2, 28261, Control_c, 0, 64, 0
2, 28274, Control_c, 0, 64, 63
2, 28280, Note_on_c, 0, 74, 102
2, 28285, Control_c, 0, 64, 127
2, 28309, Note_on_c, 0, 68, 0
2, 28326, Note_on_c, 0, 71, 100
2, 28335, Note_on_c, 0, 59, 0
2, 28357, Note_on_c, 0, 74, 0
2, 28372, Note_on_c, 0, 62, 84
2, 28388, Note_on_c, 0, 71, 0
2, 28407, Note_on_c, 0, 62, 0
2, 28419, Note_on_c, 0, 53, 113
2, 28462, Note_on_c, 0, 74, 94
2, 28484, Note_on_c, 0, 53, 0
2, 28508, Note_on_c, 0, 71, 100
2, 28530, Note_on_c, 0, 74, 0
2, 28544, Note_on_c, 0, 71, 0
2, 28548, Note_on_c, 0, 62, 92
2, 28571, Note_on_c, 0, 62, 0
2, 28595, Control_c, 0, 64, 63
2, 28598, Control_c, 0, 64, 0
2, 28604, Note_on_c, 0, 54, 116
2, 28627, Control_c, 0, 64, 63
2, 28633, Control_c, 0, 64, 127
2, 28659, Note_on_c, 0, 75, 104
2, 28665, Note_on_c, 0, 54, 0
2, 28709, Note_on_c, 0, 72, 89
2, 28733, Note_on_c, 0, 75, 0
2, 28747, Note_on_c, 0, 63, 104
2, 28767, Note_on_c, 0, 72, 0
2, 28785, Note_on_c, 0, 63, 0
2, 28792, Note_on_c, 0, 60, 113
2, 28792, Note_on_c, 0, 69, 109
2, 28832, Note_on_c, 0, 75, 99
2, 28880, Note_on_c, 0, 72, 84
2, 28882, Note_on_c, 0, 69, 0
2, 28894, Note_on_c, 0, 60, 0
2, 28907, Note_on_c, 0, 75, 0
2, 28913, Note_on_c, 0, 63, 104
2, 28929, Note_on_c, 0, 72, 0
2, 28952, Note_on_c, 0, 63, 0
2, 28961, Note_on_c, 0, 71, 102
2, 28961, Note_on_c, 0, 62, 94
2, 28975, Control_c, 0, 64, 63
2, 28979, Control_c, 0, 64, 0
2, 29006, Control_c, 0, 64, 63
2, 29012, Control_c, 0, 64, 127
2, 29016, Note_on_c, 0, 77, 89
2, 29045, Note_on_c, 0, 62, 0
2, 29046, Note_on_c, 0, 71, 0
2, 29057, Note_on_c, 0, 74, 86
2, 29084, Note_on_c, 0, 77, 0
2, 29104, Note_on_c, 0, 65, 76
2, 29122, Note_on_c, 0, 74, 0
2, 29140, Note_on_c, 0, 65, 0
2, 29148, Note_on_c, 0, 56, 113
2, 29193, Note_on_c, 0, 77, 88
2, 29213, Note_on_c, 0, 56, 0
2, 29242, Note_on_c, 0, 74, 82
2, 29254, Note_on_c, 0, 77, 0
2, 29287, Note_on_c, 0, 74, 0
2, 29287, Note_on_c, 0, 65, 57
2, 29319, Note_on_c, 0, 65, 0
2, 29323, Control_c, 0, 64, 63
2, 29326, Control_c, 0, 64, 0
2, 29331, Note_on_c, 0, 54, 107
2, 29356, Control_c, 0, 64, 63
2, 29360, Control_c, 0, 64, 127
2, 29373, Note_on_c, 0, 75, 88
2, 29381, Note_on_c, 0, 54, 0
2, 29426, Note_on_c, 0, 72, 71
2, 29441, Note_on_c, 0, 75, 0
2, 29464, Note_on_c, 0, 63, 78
2, 29472, Note_on_c, 0, 72, 0
2, 29505, Note_on_c, 0, 63, 0
2, 29512, Note_on_c, 0, 69, 111
2, 29513, Note_on_c, 0, 60, 114
2, 29552, Note_on_c, 0, 75, 93
2, 29595, Note_on_c, 0, 60, 0
2, 29600, Note_on_c, 0, 69, 0
2, 29605, Note_on_c, 0, 72, 86
2, 29633, Note_on_c, 0, 75, 0
2, 29634, Note_on_c, 0, 63, 96
2, 29650, Note_on_c, 0, 72, 0
2, 29672, Note_on_c, 0, 63, 0
2, 29693, Note_on_c, 0, 71, 114
2, 29693, Note_on_c, 0, 62, 118
2, 29709, Control_c, 0, 64, 63
2, 29713, Control_c, 0, 64, 0
2, 29734, Control_c, 0, 64, 63
2, 29742, Control_c, 0, 64, 127
2, 29745, Note_on_c, 0, 77, 83
2, 29772, Note_on_c, 0, 71, 0
2, 29787, Note_on_c, 0, 74, 87
2, 29808, Note_on_c, 0, 77, 0
2, 29822, Note_on_c, 0, 62, 0
2, 29832, Note_on_c, 0, 65, 88
2, 29872, Note_on_c, 0, 56, 123
2, 29873, Note_on_c, 0, 65, 0
2, 29884, Note_on_c, 0, 74, 0
2, 29902, Note_on_c, 0, 56, 0
2, 29920, Note_on_c, 0, 77, 85
2, 29962, Note_on_c, 0, 74, 78
2, 29981, Note_on_c, 0, 77, 0
2, 30007, Note_on_c, 0, 65, 80
2, 30018, Note_on_c, 0, 74, 0
2, 30033, Note_on_c, 0, 65, 0
2, 30055, Note_on_c, 0, 57, 125
2, 30061, Control_c, 0, 64, 63
2, 30063, Control_c, 0, 64, 0
2, 30093, Control_c, 0, 64, 63
2, 30097, Control_c, 0, 64, 127
2, 30107, Note_on_c, 0, 78, 103
2, 30134, Note_on_c, 0, 57, 0
2, 30150, Note_on_c, 0, 75, 99
2, 30171, Note_on_c, 0, 78, 0
2, 30189, Note_on_c, 0, 66, 107
2, 30199, Note_on_c, 0, 75, 0
2, 30228, Note_on_c, 0, 66, 0
2, 30234, Note_on_c, 0, 72, 116
2, 30236, Note_on_c, 0, 63, 115
2, 30276, Note_on_c, 0, 78, 112
2, 30294, Note_on_c, 0, 63, 0
2, 30308, Note_on_c, 0, 72, 0
2, 30317, Note_on_c, 0, 75, 99
2, 30339, Note_on_c, 0, 78, 0
2, 30352, Note_on_c, 0, 66, 103
2, 30372, Note_on_c, 0, 75, 0
2, 30388, Note_on_c, 0, 66, 0
2, 30402, Note_on_c, 0, 65, 97
2, 30402, Note_on_c, 0, 74, 106
2, 30425, Control_c, 0, 64, 63
2, 30429, Control_c, 0, 64, 0
2, 30444, Note_on_c, 0, 80, 104
2, 30454, Control_c, 0, 64, 63
2, 30460, Control_c, 0, 64, 127
2, 30491, Note_on_c, 0, 77, 97
2, 30500, Note_on_c, 0, 74, 0
2, 30509, Note_on_c, 0, 65, 0
2, 30519, Note_on_c, 0, 80, 0
2, 30540, Note_on_c, 0, 68, 97
2, 30558, Note_on_c, 0, 77, 0
2, 30581, Note_on_c, 0, 68, 0
2, 30592, Note_on_c, 0, 59, 108
2, 30625, Note_on_c, 0, 80, 80
2, 30675, Note_on_c, 0, 77, 76
2, 30696, Note_on_c, 0, 80, 0
2, 30723, Note_on_c, 0, 68, 77
2, 30743, Note_on_c, 0, 77, 0
2, 30766, Note_on_c, 0, 57, 93
2, 30781, Control_c, 0, 64, 63
2, 30785, Control_c, 0, 64, 0
2, 30791, Note_on_c, 0, 68, 0
2, 30810, Control_c, 0, 64, 63
2, 30817, Note_on_c, 0, 59, 0
2, 30817, Note_on_c, 0, 78, 96
2, 30817, Control_c, 0, 64, 127
2, 30843, Note_on_c, 0, 57, 0
2, 30858, Note_on_c, 0, 75, 98
2, 30881, Note_on_c, 0, 78, 0
2, 30895, Note_on_c, 0, 66, 94
2, 30909, Note_on_c, 0, 75, 0
2, 30940, Note_on_c, 0, 66, 0
2, 30943, Note_on_c, 0, 72, 114
2, 30945, Note_on_c, 0, 63, 119
2, 30984, Note_on_c, 0, 78, 106
2, 31007, Note_on_c, 0, 63, 0
2, 31019, Note_on_c, 0, 72, 0
2, 31027, Note_on_c, 0, 75, 96
2, 31051, Note_on_c, 0, 78, 0
2, 31059, Note_on_c, 0, 66, 101
2, 31079, Note_on_c, 0, 75, 0
2, 31095, Note_on_c, 0, 66, 0
2, 31112, Note_on_c, 0, 65, 103
2, 31113, Note_on_c, 0, 74, 114
2, 31125, Control_c, 0, 64, 63
2, 31129, Control_c, 0, 64, 0
2, 31146, Control_c, 0, 64, 63
2, 31153, Note_on_c, 0, 80, 104
2, 31153, Control_c, 0, 64, 127
2, 31187, Note_on_c, 0, 74, 0
2, 31192, Note_on_c, 0, 65, 0
2, 31204, Note_on_c, 0, 77, 102
2, 31232, Note_on_c, 0, 80, 0
2, 31246, Note_on_c, 0, 68, 104
2, 31279, Control_c, 0, 64, 63
2, 31281, Control_c, 0, 64, 0
2, 31295, Note_on_c, 0, 59, 124
2, 31296, Note_on_c, 0, 68, 0
2, 31297, Note_on_c, 0, 77, 0
2, 31308, Control_c, 0, 64, 63
2, 31312, Control_c, 0, 64, 127
2, 31336, Note_on_c, 0, 80, 88
2, 31339, Note_on_c, 0, 59, 0
2, 31379, Note_on_c, 0, 77, 88
2, 31400, Note_on_c, 0, 80, 0
2, 31406, Note_on_c, 0, 68, 100
2, 31422, Note_on_c, 0, 77, 0
2, 31434, Note_on_c, 0, 68, 0
2, 31466, Control_c, 0, 64, 63
2, 31467, Control_c, 0, 64, 0
2, 31469, Note_on_c, 0, 80, 61
2, 31477, Control_c, 0, 67, 0
2, 31484, Note_on_c, 0, 80, 0
2, 31485, Note_on_c, 0, 63, 108
2, 31485, Note_on_c, 0, 72, 122
2, 31488, Note_on_c, 0, 60, 112
2, 31497, Control_c, 0, 64, 127
2, 31566, Note_on_c, 0, 84, 96
2, 31574, Note_on_c, 0, 72, 0
2, 31601, Note_on_c, 0, 84, 0
2, 31609, Note_on_c, 0, 75, 106
2, 31642, Note_on_c, 0, 75, 0
2, 31650, Note_on_c, 0, 72, 84
2, 31679, Note_on_c, 0, 72, 0
2, 31698, Note_on_c, 0, 72, 112
2, 31732, Note_on_c, 0, 72, 0
2, 31747, Note_on_c, 0, 84, 85
2, 31751, Note_on_c, 0, 60, 0
2, 31759, Note_on_c, 0, 63, 0
2, 31789, Note_on_c, 0, 84, 0
2, 31791, Note_on_c, 0, 75, 110
2, 31827, Note_on_c, 0, 75, 0
2, 31834, Note_on_c, 0, 72, 84
2, 31841, Note_on_c, 0, 74, 47
2, 31861, Note_on_c, 0, 74, 0
2, 31866, Note_on_c, 0, 72, 0
2, 31873, Note_on_c, 0, 72, 111
2, 31875, Note_on_c, 0, 62, 108
2, 31875, Note_on_c, 0, 65, 109
2, 31883, Control_c, 0, 64, 63
2, 31887, Control_c, 0, 64, 0
2, 31908, Control_c, 0, 64, 63
2, 31916, Control_c, 0, 64, 127
2, 31925, Note_on_c, 0, 84, 94
2, 31968, Note_on_c, 0, 77, 83
2, 31975, Note_on_c, 0, 65, 0
2, 31986, Note_on_c, 0, 72, 0
2, 31989, Note_on_c, 0, 84, 0
2, 32011, Note_on_c, 0, 74, 97
2, 32019, Note_on_c, 0, 77, 0
2, 32050, Note_on_c, 0, 62, 0
2, 32053, Note_on_c, 0, 74, 0
2, 32054, Note_on_c, 0, 63, 105
2, 32054, Note_on_c, 0, 67, 107
2, 32055, Note_on_c, 0, 72, 120
2, 32070, Control_c, 0, 64, 63
2, 32100, Control_c, 0, 64, 127
2, 32109, Note_on_c, 0, 84, 98
2, 32151, Note_on_c, 0, 79, 85
2, 32160, Note_on_c, 0, 67, 0
2, 32173, Note_on_c, 0, 84, 0
2, 32180, Note_on_c, 0, 72, 0
2, 32193, Note_on_c, 0, 75, 107
2, 32214, Note_on_c, 0, 79, 0
2, 32215, Note_on_c, 0, 63, 0
2, 32229, Note_on_c, 0, 75, 0
2, 32236, Note_on_c, 0, 72, 118
2, 32236, Note_on_c, 0, 68, 113
2, 32238, Note_on_c, 0, 65, 96
2, 32258, Control_c, 0, 64, 63
2, 32282, Note_on_c, 0, 84, 90
2, 32289, Control_c, 0, 64, 127
2, 32320, Note_on_c, 0, 80, 100
2, 32341, Note_on_c, 0, 68, 0
2, 32345, Note_on_c, 0, 84, 0
2, 32350, Note_on_c, 0, 72, 0
2, 32362, Note_on_c, 0, 77, 84
2, 32382, Note_on_c, 0, 80, 0
2, 32386, Note_on_c, 0, 65, 0
2, 32405, Note_on_c, 0, 72, 117
2, 32405, Note_on_c, 0, 67, 108
2, 32407, Note_on_c, 0, 77, 0
2, 32408, Note_on_c, 0, 63, 107
2, 32418, Control_c, 0, 64, 63
2, 32452, Control_c, 0, 64, 127
2, 32453, Note_on_c, 0, 84, 85
2, 32502, Note_on_c, 0, 79, 76
2, 32521, Note_on_c, 0, 84, 0
2, 32532, Note_on_c, 0, 63, 0
2, 32541, Note_on_c, 0, 72, 0
2, 32546, Note_on_c, 0, 75, 91
2, 32548, Note_on_c, 0, 67, 0
2, 32557, Note_on_c, 0, 79, 0
2, 32576, Note_on_c, 0, 72, 114
2, 32577, Note_on_c, 0, 62, 107
2, 32577, Note_on_c, 0, 65, 111
2, 32581, Note_on_c, 0, 75, 0
2, 32581, Control_c, 0, 64, 63
2, 32592, Control_c, 0, 64, 0
2, 32601, Control_c, 0, 64, 63
2, 32616, Control_c, 0, 64, 127
2, 32619, Note_on_c, 0, 84, 88
2, 32649, Note_on_c, 0, 65, 0
2, 32660, Note_on_c, 0, 62, 0
2, 32662, Note_on_c, 0, 72, 0
2, 32664, Note_on_c, 0, 77, 86
2, 32678, Note_on_c, 0, 84, 0
2, 32698, Note_on_c, 0, 74, 90
2, 32706, Note_on_c, 0, 77, 0
2, 32730, Note_on_c, 0, 74, 0
2, 32745, Control_c, 0, 64, 63
2, 32747, Note_on_c, 0, 71, 112
2, 32747, Note_on_c, 0, 74, 111
2, 32748, Note_on_c, 0, 67, 102
2, 32757, Control_c, 0, 64, 0
2, 32762, Control_c, 0, 64, 63
2, 32779, Control_c, 0, 64, 127
2, 32794, Note_on_c, 0, 86, 107
2, 32804, Note_on_c, 0, 74, 0
2, 32813, Note_on_c, 0, 71, 0
2, 32821, Note_on_c, 0, 67, 0
2, 32834, Note_on_c, 0, 83, 101
2, 32876, Note_on_c, 0, 79, 96
2, 32879, Note_on_c, 0, 86, 0
2, 32891, Note_on_c, 0, 83, 0
2, 32905, Note_on_c, 0, 79, 0
2, 32929, Control_c, 0, 64, 63
2, 32934, Control_c, 0, 64, 0
2, 32938, Note_on_c, 0, 67, 116
2, 32938, Note_on_c, 0, 60, 113
2, 32941, Note_on_c, 0, 63, 107
2, 32954, Control_c, 0, 64, 63
2, 32963, Control_c, 0, 64, 127
2, 33004, Note_on_c, 0, 63, 0
2, 33016, Note_on_c, 0, 67, 0
2, 33022, Note_on_c, 0, 60, 0
2, 33037, Note_on_c, 0, 67, 90
2, 33081, Note_on_c, 0, 63, 104
2, 33100, Note_on_c, 0, 67, 0
2, 33120, Note_on_c, 0, 60, 90
2, 33126, Note_on_c, 0, 63, 0
2, 33158, Note_on_c, 0, 60, 0
2, 33169, Note_on_c, 0, 72, 117
2, 33214, Note_on_c, 0, 72, 0
2, 33221, Note_on_c, 0, 67, 96
2, 33262, Note_on_c, 0, 63, 93
2, 33309, Note_on_c, 0, 60, 85
2, 33350, Note_on_c, 0, 58, 127
2, 33353, Control_c, 0, 64, 63
2, 33355, Note_on_c, 0, 63, 0
2, 33357, Control_c, 0, 64, 0
2, 33363, Note_on_c, 0, 67, 0
2, 33370, Note_on_c, 0, 60, 0
2, 33384, Control_c, 0, 64, 63
2, 33392, Control_c, 0, 64, 127
2, 33415, Note_on_c, 0, 67, 89
2, 33436, Note_on_c, 0, 58, 0
2, 33455, Note_on_c, 0, 63, 90
2, 33488, Note_on_c, 0, 60, 89
2, 33505, Note_on_c, 0, 67, 0
2, 33532, Note_on_c, 0, 70, 124
2, 33539, Note_on_c, 0, 63, 0
2, 33544, Note_on_c, 0, 60, 0
2, 33560, Note_on_c, 0, 70, 0
2, 33573, Note_on_c, 0, 67, 89
2, 33615, Note_on_c, 0, 63, 88
2, 33654, Note_on_c, 0, 60, 87
2, 33682, Note_on_c, 0, 67, 0
2, 33689, Control_c, 0, 64, 63
2, 33693, Control_c, 0, 64, 0
2, 33694, Note_on_c, 0, 57, 118
2, 33710, Note_on_c, 0, 60, 0
2, 33715, Note_on_c, 0, 63, 0
2, 33719, Control_c, 0, 64, 63
2, 33726, Control_c, 0, 64, 127
2, 33754, Note_on_c, 0, 67, 91
2, 33778, Note_on_c, 0, 57, 0
2, 33788, Note_on_c, 0, 63, 92
2, 33831, Note_on_c, 0, 60, 79
2, 33858, Note_on_c, 0, 67, 0
2, 33871, Note_on_c, 0, 69, 117
2, 33891, Note_on_c, 0, 63, 0
2, 33894, Note_on_c, 0, 60, 0
2, 33897, Note_on_c, 0, 69, 0
2, 33922, Note_on_c, 0, 67, 92
2, 33968, Note_on_c, 0, 63, 98
2, 34011, Note_on_c, 0, 60, 90
2, 34034, Control_c, 0, 64, 63
2, 34037, Control_c, 0, 64, 0
2, 34055, Note_on_c, 0, 67, 0
2, 34055, Note_on_c, 0, 56, 126
2, 34059, Note_on_c, 0, 63, 0
2, 34065, Note_on_c, 0, 60, 0
2, 34068, Control_c, 0, 64, 63
2, 34074, Control_c, 0, 64, 127
2, 34118, Note_on_c, 0, 63, 109
2, 34129, Note_on_c, 0, 56, 0
2, 34157, Note_on_c, 0, 60, 85
2, 34164, Note_on_c, 0, 63, 0
2, 34199, Note_on_c, 0, 63, 103
2, 34217, Note_on_c, 0, 60, 0
2, 34237, Note_on_c, 0, 68, 123
2, 34256, Note_on_c, 0, 63, 0
2, 34267, Note_on_c, 0, 68, 0
2, 34294, Note_on_c, 0, 63, 108
2, 34339, Note_on_c, 0, 60, 93
2, 34361, Note_on_c, 0, 63, 0
2, 34395, Note_on_c, 0, 63, 113
2, 34409, Note_on_c, 0, 60, 0
2, 34433, Note_on_c, 0, 63, 0
2, 34461, Note_on_c, 0, 44, 123
2, 34462, Note_on_c, 0, 37, 125
2, 34487, Control_c, 0, 64, 63
2, 34490, Control_c, 0, 64, 0
2, 34511, Control_c, 0, 67, 127
2, 34570, Note_on_c, 0, 65, 101
2, 34597, Control_c, 0, 64, 63
2, 34598, Control_c, 0, 64, 127
2, 34632, Note_on_c, 0, 65, 0
2, 34635, Note_on_c, 0, 61, 98
2, 34661, Note_on_c, 0, 44, 0
2, 34668, Note_on_c, 0, 37, 0
2, 34678, Note_on_c, 0, 61, 0
2, 34688, Note_on_c, 0, 53, 94
2, 34740, Note_on_c, 0, 53, 0
2, 34748, Note_on_c, 0, 56, 123
2, 34780, Note_on_c, 0, 56, 0
2, 34812, Note_on_c, 0, 65, 97
2, 34858, Note_on_c, 0, 61, 108
2, 34871, Note_on_c, 0, 65, 0
2, 34900, Note_on_c, 0, 53, 92
2, 34912, Note_on_c, 0, 61, 0
2, 34943, Note_on_c, 0, 53, 0
2, 34952, Note_on_c, 0, 56, 127
2, 35021, Note_on_c, 0, 65, 92
2, 35057, Note_on_c, 0, 61, 110
2, 35068, Note_on_c, 0, 65, 0
2, 35078, Note_on_c, 0, 56, 0
2, 35098, Note_on_c, 0, 53, 92
2, 35106, Note_on_c, 0, 61, 0
2, 35138, Note_on_c, 0, 56, 127
2, 35142, Note_on_c, 0, 53, 0
2, 35196, Note_on_c, 0, 65, 84
2, 35229, Note_on_c, 0, 61, 104
2, 35240, Note_on_c, 0, 65, 0
2, 35269, Note_on_c, 0, 53, 85
2, 35281, Note_on_c, 0, 61, 0
2, 35282, Note_on_c, 0, 56, 0
2, 35314, Note_on_c, 0, 56, 120
2, 35316, Note_on_c, 0, 53, 0
2, 35370, Note_on_c, 0, 65, 84
2, 35408, Note_on_c, 0, 61, 98
2, 35417, Note_on_c, 0, 65, 0
2, 35443, Note_on_c, 0, 53, 84
2, 35449, Note_on_c, 0, 56, 0
2, 35455, Note_on_c, 0, 61, 0
2, 35489, Note_on_c, 0, 53, 0
2, 35490, Note_on_c, 0, 56, 118
2, 35541, Note_on_c, 0, 65, 69
2, 35579, Note_on_c, 0, 61, 91
2, 35587, Note_on_c, 0, 65, 0
2, 35616, Note_on_c, 0, 53, 78
2, 35622, Note_on_c, 0, 56, 0
2, 35626, Note_on_c, 0, 61, 0
2, 35656, Note_on_c, 0, 53, 0
2, 35662, Note_on_c, 0, 56, 114
2, 35720, Note_on_c, 0, 65, 71
2, 35759, Note_on_c, 0, 61, 86
2, 35764, Note_on_c, 0, 65, 0
2, 35780, Note_on_c, 0, 56, 0
2, 35790, Note_on_c, 0, 53, 70
2, 35799, Note_on_c, 0, 61, 0
2, 35842, Note_on_c, 0, 53, 0
2, 35846, Note_on_c, 0, 56, 107
2, 35889, Note_on_c, 0, 65, 72
2, 35922, Note_on_c, 0, 56, 0
2, 35932, Note_on_c, 0, 61, 73
2, 35936, Note_on_c, 0, 65, 0
2, 35966, Note_on_c, 0, 53, 72
2, 35976, Note_on_c, 0, 61, 0
2, 36016, Note_on_c, 0, 53, 0
2, 36018, Note_on_c, 0, 56, 92
2, 36059, Note_on_c, 0, 65, 66
2, 36082, Note_on_c, 0, 56, 0
2, 36101, Note_on_c, 0, 61, 78
2, 36110, Note_on_c, 0, 65, 0
2, 36138, Note_on_c, 0, 53, 59
2, 36151, Note_on_c, 0, 61, 0
2, 36193, Note_on_c, 0, 56, 91
2, 36197, Note_on_c, 0, 53, 0
2, 36240, Note_on_c, 0, 65, 64
2, 36259, Note_on_c, 0, 56, 0
2, 36283, Note_on_c, 0, 61, 76
2, 36290, Note_on_c, 0, 65, 0
2, 36321, Note_on_c, 0, 53, 66
2, 36337, Note_on_c, 0, 61, 0
2, 36373, Note_on_c, 0, 56, 78
2, 36374, Note_on_c, 0, 53, 0
2, 36411, Note_on_c, 0, 65, 63
2, 36420, Note_on_c, 0, 56, 0
2, 36451, Note_on_c, 0, 61, 76
2, 36455, Note_on_c, 0, 65, 0
2, 36494, Note_on_c, 0, 53, 58
2, 36501, Note_on_c, 0, 61, 0
2, 36542, Note_on_c, 0, 56, 78
2, 36545, Note_on_c, 0, 53, 0
2, 36570, Note_on_c, 0, 56, 0
2, 36592, Note_on_c, 0, 65, 60
2, 36632, Note_on_c, 0, 61, 75
2, 36640, Note_on_c, 0, 65, 0
2, 36679, Note_on_c, 0, 53, 48
2, 36685, Note_on_c, 0, 61, 0
2, 36722, Control_c, 0, 64, 63
2, 36731, Control_c, 0, 64, 0
2, 36733, Note_on_c, 0, 49, 78
2, 36736, Note_on_c, 0, 53, 0
2, 36736, Note_on_c, 0, 37, 79
2, 36755, Control_c, 0, 64, 63
2, 36764, Control_c, 0, 64, 127
2, 36786, Note_on_c, 0, 65, 65
2, 36797, Note_on_c, 0, 37, 0
2, 36812, Note_on_c, 0, 49, 0
2, 36831, Note_on_c, 0, 61, 74
2, 36835, Note_on_c, 0, 65, 0
2, 36871, Note_on_c, 0, 53, 48
2, 36881, Note_on_c, 0, 61, 0
2, 36919, Note_on_c, 0, 56, 85
2, 36928, Note_on_c, 0, 53, 0
2, 36951, Note_on_c, 0, 56, 0
2, 36964, Note_on_c, 0, 65, 63
2, 37002, Note_on_c, 0, 61, 72
2, 37008, Note_on_c, 0, 65, 0
2, 37046, Note_on_c, 0, 53, 71
2, 37054, Note_on_c, 0, 61, 0
2, 37089, Note_on_c, 0, 53, 0
2, 37093, Note_on_c, 0, 51, 101
2, 37096, Note_on_c, 0, 39, 96
2, 37104, Control_c, 0, 64, 63
2, 37111, Control_c, 0, 64, 0
2, 37131, Control_c, 0, 64, 63
2, 37133, Note_on_c, 0, 65, 41
2, 37140, Control_c, 0, 64, 127
2, 37156, Note_on_c, 0, 39, 0
2, 37175, Note_on_c, 0, 51, 0
2, 37189, Note_on_c, 0, 61, 76
2, 37208, Note_on_c, 0, 65, 0
2, 37225, Note_on_c, 0, 54, 74
2, 37245, Note_on_c, 0, 61, 0
2, 37274, Note_on_c, 0, 53, 103
2, 37277, Note_on_c, 0, 41, 96
2, 37286, Note_on_c, 0, 54, 0
2, 37326, Note_on_c, 0, 65, 61
2, 37333, Control_c, 0, 64, 63
2, 37359, Control_c, 0, 64, 127
2, 37369, Note_on_c, 0, 61, 63
2, 37387, Note_on_c, 0, 41, 0
2, 37393, Note_on_c, 0, 53, 0
2, 37395, Note_on_c, 0, 65, 0
2, 37404, Note_on_c, 0, 56, 63
2, 37417, Note_on_c, 0, 61, 0
2, 37460, Note_on_c, 0, 56, 0
2, 37476, Note_on_c, 0, 54, 114
2, 37481, Note_on_c, 0, 42, 95
2, 37517, Note_on_c, 0, 65, 50
2, 37524, Control_c, 0, 64, 63
2, 37562, Note_on_c, 0, 61, 70
2, 37562, Control_c, 0, 64, 127
2, 37590, Note_on_c, 0, 65, 0
2, 37603, Note_on_c, 0, 58, 71
2, 37605, Note_on_c, 0, 42, 0
2, 37613, Note_on_c, 0, 61, 0
2, 37613, Note_on_c, 0, 54, 0
2, 37661, Note_on_c, 0, 53, 100
2, 37667, Note_on_c, 0, 41, 71
2, 37668, Note_on_c, 0, 58, 0
2, 37693, Control_c, 0, 64, 63
2, 37706, Note_on_c, 0, 65, 65
2, 37729, Control_c, 0, 64, 127
2, 37752, Note_on_c, 0, 61, 58
2, 37774, Note_on_c, 0, 41, 0
2, 37774, Note_on_c, 0, 53, 0
2, 37777, Note_on_c, 0, 65, 0
2, 37790, Note_on_c, 0, 56, 73
2, 37802, Note_on_c, 0, 61, 0
2, 37850, Note_on_c, 0, 51, 96
2, 37853, Note_on_c, 0, 39, 97
2, 37857, Note_on_c, 0, 56, 0
2, 37878, Control_c, 0, 64, 63
2, 37898, Note_on_c, 0, 65, 49
2, 37912, Control_c, 0, 64, 127
2, 37922, Note_on_c, 0, 39, 0
2, 37936, Note_on_c, 0, 61, 70
2, 37943, Note_on_c, 0, 65, 0
2, 37946, Note_on_c, 0, 51, 0
2, 37972, Note_on_c, 0, 54, 79
2, 37982, Note_on_c, 0, 61, 0
2, 38010, Note_on_c, 0, 54, 0
2, 38022, Note_on_c, 0, 56, 106
2, 38026, Note_on_c, 0, 44, 83
2, 38038, Control_c, 0, 64, 63
2, 38065, Note_on_c, 0, 56, 0
2, 38067, Note_on_c, 0, 63, 88
2, 38069, Control_c, 0, 64, 127
2, 38090, Note_on_c, 0, 44, 0
2, 38114, Note_on_c, 0, 60, 72
2, 38129, Note_on_c, 0, 63, 0
2, 38156, Note_on_c, 0, 56, 72
2, 38158, Note_on_c, 0, 60, 0
2, 38189, Control_c, 0, 64, 63
2, 38195, Control_c, 0, 64, 0
2, 38200, Note_on_c, 0, 56, 0
2, 38204, Note_on_c, 0, 37, 89
2, 38207, Note_on_c, 0, 49, 103
2, 38220, Control_c, 0, 64, 63
2, 38228, Control_c, 0, 64, 127
2, 38241, Note_on_c, 0, 37, 0
2, 38254, Note_on_c, 0, 65, 65
2, 38255, Note_on_c, 0, 49, 0
2, 38304, Note_on_c, 0, 61, 81
2, 38305, Note_on_c, 0, 65, 0
2, 38343, Note_on_c, 0, 53, 63
2, 38348, Note_on_c, 0, 61, 0
2, 38382, Note_on_c, 0, 53, 0
2, 38390, Note_on_c, 0, 56, 92
2, 38420, Note_on_c, 0, 56, 0
2, 38443, Note_on_c, 0, 65, 68
2, 38472, Note_on_c, 0, 61, 72
2, 38485, Note_on_c, 0, 65, 0
2, 38514, Note_on_c, 0, 53, 77
2, 38522, Note_on_c, 0, 61, 0
2, 38550, Note_on_c, 0, 53, 0
2, 38559, Note_on_c, 0, 47, 104
2, 38560, Note_on_c, 0, 35, 103
2, 38569, Control_c, 0, 64, 63
2, 38575, Control_c, 0, 64, 0
2, 38600, Control_c, 0, 64, 63
2, 38604, Note_on_c, 0, 35, 0
2, 38608, Control_c, 0, 64, 127
2, 38609, Note_on_c, 0, 66, 96
2, 38620, Note_on_c, 0, 63, 90
2, 38628, Note_on_c, 0, 47, 0
2, 38665, Note_on_c, 0, 59, 72
2, 38679, Note_on_c, 0, 66, 0
2, 38688, Note_on_c, 0, 63, 0
2, 38705, Note_on_c, 0, 54, 78
2, 38719, Note_on_c, 0, 59, 0
2, 38746, Note_on_c, 0, 51, 110
2, 38763, Note_on_c, 0, 54, 0
2, 38774, Note_on_c, 0, 51, 0
2, 38796, Note_on_c, 0, 66, 80
2, 38801, Note_on_c, 0, 63, 77
2, 38851, Note_on_c, 0, 59, 43
2, 38864, Note_on_c, 0, 66, 0
2, 38879, Note_on_c, 0, 63, 0
2, 38881, Note_on_c, 0, 54, 75
2, 38896, Note_on_c, 0, 59, 0
2, 38911, Note_on_c, 0, 54, 0
2, 38921, Control_c, 0, 64, 63
2, 38924, Note_on_c, 0, 31, 92
2, 38926, Control_c, 0, 64, 0
2, 38927, Note_on_c, 0, 43, 112
2, 38953, Control_c, 0, 64, 63
2, 38960, Note_on_c, 0, 31, 0
2, 38961, Control_c, 0, 64, 127
2, 38977, Note_on_c, 0, 43, 0
2, 38977, Note_on_c, 0, 67, 78
2, 38980, Note_on_c, 0, 62, 78
2, 39015, Note_on_c, 0, 59, 77
2, 39018, Note_on_c, 0, 67, 0
2, 39047, Note_on_c, 0, 62, 0
2, 39057, Note_on_c, 0, 55, 68
2, 39087, Note_on_c, 0, 59, 0
2, 39100, Note_on_c, 0, 50, 98
2, 39101, Note_on_c, 0, 55, 0
2, 39127, Note_on_c, 0, 50, 0
2, 39148, Note_on_c, 0, 67, 58
2, 39153, Note_on_c, 0, 62, 65
2, 39188, Note_on_c, 0, 59, 71
2, 39192, Note_on_c, 0, 67, 0
2, 39203, Note_on_c, 0, 62, 0
2, 39229, Note_on_c, 0, 59, 0
2, 39231, Note_on_c, 0, 55, 25
2, 39248, Note_on_c, 0, 55, 0
2, 39279, Control_c, 0, 64, 63
2, 39280, Note_on_c, 0, 28, 98
2, 39281, Note_on_c, 0, 40, 113
2, 39285, Control_c, 0, 64, 0
2, 39307, Control_c, 0, 64, 63
2, 39315, Control_c, 0, 64, 127
2, 39317, Note_on_c, 0, 28, 0
2, 39332, Note_on_c, 0, 71, 80
2, 39335, Note_on_c, 0, 40, 0
2, 39344, Note_on_c, 0, 68, 82
2, 39379, Note_on_c, 0, 71, 0
2, 39386, Note_on_c, 0, 64, 53
2, 39410, Note_on_c, 0, 68, 0
2, 39421, Note_on_c, 0, 59, 63
2, 39430, Note_on_c, 0, 64, 0
2, 39460, Note_on_c, 0, 59, 0
2, 39462, Note_on_c, 0, 47, 100
2, 39494, Note_on_c, 0, 47, 0
2, 39508, Note_on_c, 0, 71, 85
2, 39521, Note_on_c, 0, 68, 86
2, 39556, Note_on_c, 0, 71, 0
2, 39571, Note_on_c, 0, 64, 89
2, 39591, Note_on_c, 0, 68, 0
2, 39605, Note_on_c, 0, 64, 0
2, 39608, Note_on_c, 0, 59, 74
2, 39627, Note_on_c, 0, 59, 0
2, 39645, Control_c, 0, 64, 63
2, 39649, Control_c, 0, 64, 0
2, 39651, Note_on_c, 0, 50, 118
2, 39653, Note_on_c, 0, 38, 111
2, 39675, Control_c, 0, 64, 63
2, 39681, Control_c, 0, 64, 127
2, 39692, Note_on_c, 0, 38, 0
2, 39703, Note_on_c, 0, 66, 99
2, 39706, Note_on_c, 0, 50, 0
2, 39747, Note_on_c, 0, 62, 71
2, 39769, Note_on_c, 0, 66, 0
2, 39786, Note_on_c, 0, 54, 82
2, 39791, Note_on_c, 0, 62, 0
2, 39826, Note_on_c, 0, 54, 0
2, 39833, Note_on_c, 0, 57, 93
2, 39860, Note_on_c, 0, 57, 0
2, 39880, Note_on_c, 0, 66, 90
2, 39916, Note_on_c, 0, 62, 51
2, 39948, Note_on_c, 0, 54, 87
2, 39953, Note_on_c, 0, 66, 0
2, 39967, Note_on_c, 0, 62, 0
2, 39985, Note_on_c, 0, 54, 0
2, 39999, Note_on_c, 0, 48, 114
2, 40001, Note_on_c, 0, 36, 104
2, 40002, Control_c, 0, 64, 63
2, 40007, Control_c, 0, 64, 0
2, 40032, Control_c, 0, 64, 63
2, 40040, Control_c, 0, 64, 127
2, 40042, Note_on_c, 0, 67, 78
2, 40044, Note_on_c, 0, 36, 0
2, 40048, Note_on_c, 0, 64, 84
2, 40078, Note_on_c, 0, 48, 0
2, 40087, Note_on_c, 0, 60, 96
2, 40093, Note_on_c, 0, 67, 0
2, 40106, Note_on_c, 0, 64, 0
2, 40124, Note_on_c, 0, 55, 74
2, 40150, Note_on_c, 0, 60, 0
2, 40168, Note_on_c, 0, 52, 94
2, 40170, Note_on_c, 0, 55, 0
2, 40195, Note_on_c, 0, 52, 0
2, 40213, Note_on_c, 0, 67, 67
2, 40216, Note_on_c, 0, 64, 71
2, 40257, Note_on_c, 0, 60, 74
2, 40263, Note_on_c, 0, 67, 0
2, 40269, Note_on_c, 0, 64, 0
2, 40294, Note_on_c, 0, 55, 68
2, 40306, Note_on_c, 0, 60, 0
2, 40333, Note_on_c, 0, 55, 0
2, 40340, Control_c, 0, 64, 63
2, 40341, Note_on_c, 0, 32, 95
2, 40342, Note_on_c, 0, 44, 113
2, 40348, Control_c, 0, 64, 0
2, 40359, Control_c, 0, 64, 63
2, 40370, Control_c, 0, 64, 127
2, 40380, Note_on_c, 0, 32, 0
2, 40392, Note_on_c, 0, 68, 75
2, 40398, Note_on_c, 0, 44, 0
2, 40403, Note_on_c, 0, 63, 79
2, 40448, Note_on_c, 0, 60, 60
2, 40454, Note_on_c, 0, 68, 0
2, 40466, Note_on_c, 0, 63, 0
2, 40486, Note_on_c, 0, 56, 68
2, 40492, Note_on_c, 0, 60, 0
2, 40531, Note_on_c, 0, 51, 91
2, 40542, Note_on_c, 0, 56, 0
2, 40545, Note_on_c, 0, 51, 0
2, 40577, Note_on_c, 0, 68, 69
2, 40580, Note_on_c, 0, 63, 65
2, 40629, Note_on_c, 0, 60, 60
2, 40638, Note_on_c, 0, 68, 0
2, 40647, Note_on_c, 0, 63, 0
2, 40664, Note_on_c, 0, 56, 69
2, 40668, Note_on_c, 0, 60, 0
2, 40681, Note_on_c, 0, 56, 0
2, 40706, Note_on_c, 0, 29, 81
2, 40709, Control_c, 0, 64, 63
2, 40710, Note_on_c, 0, 41, 99
2, 40716, Control_c, 0, 64, 0
2, 40731, Control_c, 0, 64, 63
2, 40741, Control_c, 0, 64, 127
2, 40744, Note_on_c, 0, 29, 0
2, 40752, Note_on_c, 0, 41, 0
2, 40771, Note_on_c, 0, 72, 60
2, 40773, Note_on_c, 0, 69, 50
2, 40806, Note_on_c, 0, 65, 77
2, 40815, Note_on_c, 0, 72, 0
2, 40821, Note_on_c, 0, 69, 0
2, 40850, Note_on_c, 0, 60, 65
2, 40852, Note_on_c, 0, 65, 0
2, 40886, Note_on_c, 0, 60, 0
2, 40887, Note_on_c, 0, 48, 92
2, 40919, Note_on_c, 0, 48, 0
2, 40936, Note_on_c, 0, 72, 68
2, 40942, Note_on_c, 0, 69, 71
2, 40975, Note_on_c, 0, 65, 75
2, 40996, Note_on_c, 0, 69, 0
2, 41003, Note_on_c, 0, 72, 0
2, 41025, Note_on_c, 0, 65, 0
2, 41077, Control_c, 0, 64, 63
2, 41083, Control_c, 0, 64, 0
2, 41086, Note_on_c, 0, 40, 84
2, 41086, Note_on_c, 0, 52, 84
2, 41103, Control_c, 0, 64, 63
2, 41113, Control_c, 0, 64, 127
2, 41136, Note_on_c, 0, 40, 0
2, 41147, Note_on_c, 0, 74, 52
2, 41156, Note_on_c, 0, 70, 71
2, 41158, Note_on_c, 0, 52, 0
2, 41183, Note_on_c, 0, 74, 0
2, 41198, Note_on_c, 0, 66, 67
2, 41217, Note_on_c, 0, 70, 0
2, 41231, Note_on_c, 0, 62, 68
2, 41247, Note_on_c, 0, 66, 0
2, 41271, Note_on_c, 0, 62, 0
2, 41275, Note_on_c, 0, 58, 97
2, 41310, Note_on_c, 0, 58, 0
2, 41322, Note_on_c, 0, 74, 75
2, 41329, Note_on_c, 0, 70, 78
2, 41363, Note_on_c, 0, 74, 0
2, 41370, Note_on_c, 0, 66, 84
2, 41387, Note_on_c, 0, 70, 0
2, 41399, Note_on_c, 0, 62, 84
2, 41416, Note_on_c, 0, 66, 0
2, 41432, Note_on_c, 0, 54, 114
2, 41434, Note_on_c, 0, 42, 108
2, 41440, Note_on_c, 0, 62, 0
2, 41460, Control_c, 0, 64, 63
2, 41484, Note_on_c, 0, 72, 76
2, 41492, Note_on_c, 0, 68, 88
2, 41492, Control_c, 0, 64, 127
2, 41493, Note_on_c, 0, 42, 0
2, 41514, Note_on_c, 0, 54, 0
2, 41523, Note_on_c, 0, 72, 0
2, 41532, Note_on_c, 0, 64, 83
2, 41559, Note_on_c, 0, 68, 0
2, 41569, Note_on_c, 0, 60, 84
2, 41574, Note_on_c, 0, 64, 0
2, 41596, Note_on_c, 0, 60, 0
2, 41609, Note_on_c, 0, 56, 112
2, 41650, Note_on_c, 0, 56, 0
2, 41654, Note_on_c, 0, 76, 80
2, 41657, Note_on_c, 0, 72, 91
2, 41698, Note_on_c, 0, 68, 105
2, 41701, Note_on_c, 0, 76, 0
2, 41718, Note_on_c, 0, 72, 0
2, 41739, Note_on_c, 0, 64, 74
2, 41747, Note_on_c, 0, 68, 0
2, 41785, Note_on_c, 0, 64, 0
2, 41785, Note_on_c, 0, 52, 112
2, 41786, Note_on_c, 0, 40, 103
2, 41789, Control_c, 0, 64, 63
2, 41793, Control_c, 0, 64, 0
2, 41832, Control_c, 0, 64, 63
2, 41837, Note_on_c, 0, 74, 97
2, 41837, Control_c, 0, 64, 127
2, 41841, Note_on_c, 0, 40, 0
2, 41842, Note_on_c, 0, 70, 100
2, 41859, Note_on_c, 0, 52, 0
2, 41875, Note_on_c, 0, 66, 105
2, 41880, Note_on_c, 0, 74, 0
2, 41909, Note_on_c, 0, 70, 0
2, 41913, Note_on_c, 0, 62, 94
2, 41935, Note_on_c, 0, 66, 0
2, 41953, Note_on_c, 0, 58, 114
2, 41954, Note_on_c, 0, 62, 0
2, 41985, Note_on_c, 0, 58, 0
2, 42005, Note_on_c, 0, 70, 82
2, 42007, Note_on_c, 0, 74, 71
2, 42040, Note_on_c, 0, 66, 103
2, 42051, Note_on_c, 0, 74, 0
2, 42067, Note_on_c, 0, 70, 0
2, 42079, Note_on_c, 0, 62, 73
2, 42094, Note_on_c, 0, 66, 0
2, 42118, Note_on_c, 0, 54, 114
2, 42118, Note_on_c, 0, 42, 99
2, 42124, Note_on_c, 0, 62, 0
2, 42124, Control_c, 0, 64, 63
2, 42131, Control_c, 0, 64, 0
2, 42154, Control_c, 0, 64, 63
2, 42164, Control_c, 0, 64, 127
2, 42165, Note_on_c, 0, 72, 72
2, 42169, Note_on_c, 0, 68, 81
2, 42177, Note_on_c, 0, 42, 0
2, 42197, Note_on_c, 0, 54, 0
2, 42208, Note_on_c, 0, 64, 78
2, 42211, Note_on_c, 0, 72, 0
2, 42234, Note_on_c, 0, 68, 0
2, 42247, Note_on_c, 0, 60, 77
2, 42255, Note_on_c, 0, 64, 0
2, 42281, Note_on_c, 0, 60, 0
2, 42290, Note_on_c, 0, 56, 82
2, 42325, Note_on_c, 0, 56, 0
2, 42337, Note_on_c, 0, 76, 76
2, 42342, Note_on_c, 0, 72, 71
2, 42383, Note_on_c, 0, 76, 0
2, 42386, Note_on_c, 0, 68, 97
2, 42404, Note_on_c, 0, 72, 0
2, 42427, Note_on_c, 0, 64, 48
2, 42436, Note_on_c, 0, 68, 0
2, 42463, Note_on_c, 0, 52, 111
2, 42464, Note_on_c, 0, 40, 107
2, 42465, Control_c, 0, 64, 63
2, 42467, Note_on_c, 0, 64, 0
2, 42471, Control_c, 0, 64, 0
2, 42494, Control_c, 0, 64, 63
2, 42503, Control_c, 0, 64, 127
2, 42520, Note_on_c, 0, 74, 84
2, 42526, Note_on_c, 0, 70, 96
2, 42535, Note_on_c, 0, 40, 0
2, 42552, Note_on_c, 0, 52, 0
2, 42554, Note_on_c, 0, 74, 0
2, 42556, Note_on_c, 0, 66, 99
2, 42587, Note_on_c, 0, 70, 0
2, 42590, Note_on_c, 0, 62, 84
2, 42614, Note_on_c, 0, 66, 0
2, 42627, Note_on_c, 0, 62, 0
2, 42629, Note_on_c, 0, 58, 116
2, 42662, Note_on_c, 0, 58, 0
2, 42681, Note_on_c, 0, 74, 79
2, 42681, Note_on_c, 0, 70, 88
2, 42723, Note_on_c, 0, 66, 100
2, 42727, Note_on_c, 0, 74, 0
2, 42746, Note_on_c, 0, 70, 0
2, 42756, Note_on_c, 0, 62, 85
2, 42772, Note_on_c, 0, 66, 0
2, 42792, Note_on_c, 0, 62, 0
2, 42793, Control_c, 0, 64, 63
2, 42796, Note_on_c, 0, 54, 125
2, 42797, Note_on_c, 0, 42, 110
2, 42797, Control_c, 0, 64, 0
2, 42819, Control_c, 0, 64, 63
2, 42827, Control_c, 0, 64, 127
2, 42830, Note_on_c, 0, 42, 0
2, 42839, Note_on_c, 0, 72, 71
2, 42840, Note_on_c, 0, 68, 84
2, 42843, Note_on_c, 0, 54, 0
2, 42871, Note_on_c, 0, 72, 0
2, 42877, Note_on_c, 0, 64, 76
2, 42884, Control_c, 0, 67, 0
2, 42897, Note_on_c, 0, 68, 0
2, 42904, Note_on_c, 0, 60, 85
2, 42917, Note_on_c, 0, 64, 0
2, 42923, Note_on_c, 0, 60, 0
2, 42968, Note_on_c, 0, 66, 108
2, 43000, Note_on_c, 0, 66, 0
2, 43044, Note_on_c, 0, 76, 60
2, 43047, Note_on_c, 0, 80, 65
2, 43084, Note_on_c, 0, 72, 50
2, 43108, Note_on_c, 0, 76, 0
2, 43117, Note_on_c, 0, 80, 0
2, 43135, Note_on_c, 0, 68, 75
2, 43136, Note_on_c, 0, 72, 0
2, 43166, Note_on_c, 0, 68, 0
2, 43173, Note_on_c, 0, 64, 102
2, 43215, Note_on_c, 0, 64, 0
2, 43228, Note_on_c, 0, 76, 55
2, 43229, Note_on_c, 0, 72, 62
2, 43259, Note_on_c, 0, 68, 91
2, 43266, Note_on_c, 0, 76, 0
2, 43279, Note_on_c, 0, 72, 0
2, 43296, Note_on_c, 0, 64, 65
2, 43304, Note_on_c, 0, 68, 0
2, 43318, Note_on_c, 0, 64, 0
2, 43335, Note_on_c, 0, 62, 109
2, 43392, Note_on_c, 0, 62, 0
2, 43396, Note_on_c, 0, 78, 76
2, 43396, Note_on_c, 0, 74, 66
2, 43441, Note_on_c, 0, 70, 87
2, 43460, Note_on_c, 0, 74, 0
2, 43466, Note_on_c, 0, 78, 0
2, 43476, Note_on_c, 0, 66, 95
2, 43491, Note_on_c, 0, 70, 0
2, 43515, Note_on_c, 0, 60, 108
2, 43516, Note_on_c, 0, 66, 0
2, 43555, Note_on_c, 0, 74, 84
2, 43558, Note_on_c, 0, 60, 0
2, 43563, Note_on_c, 0, 70, 90
2, 43598, Note_on_c, 0, 74, 0
2, 43599, Note_on_c, 0, 66, 94
2, 43624, Note_on_c, 0, 70, 0
2, 43632, Note_on_c, 0, 62, 73
2, 43647, Note_on_c, 0, 66, 0
2, 43667, Note_on_c, 0, 62, 0
2, 43680, Note_on_c, 0, 58, 114
2, 43712, Note_on_c, 0, 58, 0
2, 43721, Note_on_c, 0, 76, 78
2, 43724, Note_on_c, 0, 72, 72
2, 43771, Note_on_c, 0, 68, 99
2, 43773, Note_on_c, 0, 76, 0
2, 43798, Note_on_c, 0, 72, 0
2, 43818, Note_on_c, 0, 64, 60
2, 43821, Note_on_c, 0, 68, 0
2, 43856, Note_on_c, 0, 64, 0
2, 43882, Note_on_c, 0, 43, 90
2, 43886, Note_on_c, 0, 55, 112
2, 43898, Control_c, 0, 64, 63
2, 43903, Control_c, 0, 64, 0
2, 43938, Control_c, 0, 64, 63
2, 43943, Control_c, 0, 64, 127
2, 43944, Note_on_c, 0, 73, 91
2, 43947, Note_on_c, 0, 77, 84
2, 43959, Note_on_c, 0, 43, 0
2, 43981, Note_on_c, 0, 55, 0
2, 43992, Note_on_c, 0, 69, 74
2, 43999, Note_on_c, 0, 77, 0
2, 44021, Note_on_c, 0, 73, 0
2, 44034, Note_on_c, 0, 65, 77
2, 44054, Note_on_c, 0, 69, 0
2, 44076, Note_on_c, 0, 65, 0
2, 44080, Note_on_c, 0, 61, 110
2, 44119, Note_on_c, 0, 61, 0
2, 44124, Note_on_c, 0, 77, 83
2, 44129, Note_on_c, 0, 73, 92
2, 44170, Note_on_c, 0, 77, 0
2, 44170, Note_on_c, 0, 69, 87
2, 44195, Note_on_c, 0, 73, 0
2, 44207, Note_on_c, 0, 65, 87
2, 44212, Note_on_c, 0, 69, 0
2, 44244, Note_on_c, 0, 65, 0
2, 44249, Note_on_c, 0, 57, 111
2, 44252, Note_on_c, 0, 45, 104
2, 44273, Control_c, 0, 64, 63
2, 44278, Control_c, 0, 64, 0
2, 44300, Note_on_c, 0, 71, 88
2, 44303, Control_c, 0, 64, 63
2, 44306, Note_on_c, 0, 75, 88
2, 44311, Control_c, 0, 64, 127
2, 44312, Note_on_c, 0, 45, 0
2, 44337, Note_on_c, 0, 57, 0
2, 44340, Note_on_c, 0, 67, 76
2, 44366, Note_on_c, 0, 75, 0
2, 44370, Note_on_c, 0, 71, 0
2, 44373, Note_on_c, 0, 63, 94
2, 44384, Note_on_c, 0, 67, 0
2, 44395, Note_on_c, 0, 63, 0
2, 44419, Note_on_c, 0, 59, 107
2, 44460, Note_on_c, 0, 59, 0
2, 44465, Note_on_c, 0, 79, 76
2, 44467, Note_on_c, 0, 75, 87
2, 44504, Note_on_c, 0, 79, 0
2, 44507, Note_on_c, 0, 71, 92
2, 44533, Note_on_c, 0, 75, 0
2, 44542, Note_on_c, 0, 67, 85
2, 44553, Note_on_c, 0, 71, 0
2, 44586, Note_on_c, 0, 67, 0
2, 44587, Note_on_c, 0, 55, 111
2, 44590, Note_on_c, 0, 43, 107
2, 44593, Control_c, 0, 64, 63
2, 44600, Control_c, 0, 64, 0
2, 44620, Control_c, 0, 64, 63
2, 44630, Control_c, 0, 64, 127
2, 44635, Note_on_c, 0, 77, 97
2, 44640, Note_on_c, 0, 73, 98
2, 44657, Note_on_c, 0, 43, 0
2, 44673, Note_on_c, 0, 55, 0
2, 44675, Note_on_c, 0, 77, 0
2, 44678, Note_on_c, 0, 69, 84
2, 44713, Note_on_c, 0, 73, 0
2, 44715, Note_on_c, 0, 65, 82
2, 44738, Note_on_c, 0, 69, 0
2, 44754, Note_on_c, 0, 65, 0
2, 44759, Note_on_c, 0, 61, 107
2, 44789, Note_on_c, 0, 61, 0
2, 44800, Note_on_c, 0, 77, 78
2, 44801, Note_on_c, 0, 73, 86
2, 44839, Note_on_c, 0, 77, 0
2, 44847, Note_on_c, 0, 69, 86
2, 44869, Note_on_c, 0, 73, 0
2, 44881, Note_on_c, 0, 65, 86
2, 44886, Note_on_c, 0, 69, 0
2, 44917, Note_on_c, 0, 65, 0
2, 44922, Note_on_c, 0, 57, 113
2, 44925, Note_on_c, 0, 45, 106
2, 44934, Control_c, 0, 64, 63
2, 44940, Control_c, 0, 64, 0
2, 44963, Note_on_c, 0, 71, 79
2, 44964, Control_c, 0, 64, 63
2, 44968, Note_on_c, 0, 75, 79
2, 44975, Control_c, 0, 64, 127
2, 44982, Note_on_c, 0, 45, 0
2, 44995, Note_on_c, 0, 57, 0
2, 45002, Note_on_c, 0, 67, 80
2, 45028, Note_on_c, 0, 75, 0
2, 45030, Note_on_c, 0, 71, 0
2, 45033, Note_on_c, 0, 63, 98
2, 45046, Note_on_c, 0, 67, 0
2, 45056, Note_on_c, 0, 63, 0
2, 45086, Note_on_c, 0, 59, 103
2, 45124, Note_on_c, 0, 59, 0
2, 45124, Note_on_c, 0, 75, 91
2, 45125, Note_on_c, 0, 79, 80
2, 45165, Note_on_c, 0, 79, 0
2, 45165, Note_on_c, 0, 71, 91
2, 45188, Note_on_c, 0, 75, 0
2, 45200, Note_on_c, 0, 67, 75
2, 45205, Note_on_c, 0, 71, 0
2, 45238, Note_on_c, 0, 67, 0
2, 45251, Note_on_c, 0, 55, 112
2, 45251, Control_c, 0, 64, 63
2, 45252, Note_on_c, 0, 43, 96
2, 45256, Control_c, 0, 64, 0
2, 45283, Control_c, 0, 64, 63
2, 45290, Control_c, 0, 64, 127
2, 45291, Note_on_c, 0, 43, 0
2, 45303, Note_on_c, 0, 73, 109
2, 45303, Note_on_c, 0, 77, 96
2, 45310, Note_on_c, 0, 55, 0
2, 45334, Note_on_c, 0, 77, 0
2, 45341, Note_on_c, 0, 69, 76
2, 45365, Note_on_c, 0, 73, 0
2, 45371, Note_on_c, 0, 65, 93
2, 45392, Note_on_c, 0, 69, 0
2, 45414, Note_on_c, 0, 65, 0
2, 45415, Note_on_c, 0, 61, 116
2, 45450, Note_on_c, 0, 77, 96
2, 45453, Note_on_c, 0, 61, 0
2, 45454, Note_on_c, 0, 73, 103
2, 45494, Note_on_c, 0, 77, 0
2, 45499, Note_on_c, 0, 69, 97
2, 45522, Note_on_c, 0, 73, 0
2, 45528, Note_on_c, 0, 65, 87
2, 45534, Note_on_c, 0, 69, 0
2, 45563, Note_on_c, 0, 65, 0
2, 45573, Control_c, 0, 64, 63
2, 45575, Note_on_c, 0, 57, 113
2, 45577, Note_on_c, 0, 45, 100
2, 45578, Control_c, 0, 64, 0
2, 45604, Control_c, 0, 64, 63
2, 45610, Control_c, 0, 64, 127
2, 45612, Note_on_c, 0, 45, 0
2, 45620, Note_on_c, 0, 71, 96
2, 45628, Note_on_c, 0, 75, 99
2, 45634, Note_on_c, 0, 57, 0
2, 45658, Note_on_c, 0, 67, 84
2, 45686, Note_on_c, 0, 75, 0
2, 45689, Note_on_c, 0, 71, 0
2, 45690, Note_on_c, 0, 63, 106
2, 45709, Note_on_c, 0, 67, 0
2, 45722, Note_on_c, 0, 63, 0
2, 45778, Note_on_c, 0, 69, 117
2, 45851, Note_on_c, 0, 69, 0
2, 45858, Note_on_c, 0, 79, 93
2, 45861, Note_on_c, 0, 83, 83
2, 45908, Note_on_c, 0, 83, 0
2, 45908, Note_on_c, 0, 75, 98
2, 45926, Note_on_c, 0, 79, 0
2, 45950, Note_on_c, 0, 71, 43
2, 45952, Note_on_c, 0, 75, 0
2, 45986, Note_on_c, 0, 71, 0
2, 45990, Note_on_c, 0, 67, 116
2, 46043, Note_on_c, 0, 79, 77
2, 46044, Note_on_c, 0, 75, 97
2, 46079, Note_on_c, 0, 79, 0
2, 46079, Note_on_c, 0, 71, 92
2, 46083, Note_on_c, 0, 67, 0
2, 46102, Note_on_c, 0, 75, 0
2, 46113, Note_on_c, 0, 67, 90
2, 46134, Note_on_c, 0, 71, 0
2, 46150, Note_on_c, 0, 67, 0
2, 46159, Note_on_c, 0, 65, 120
2, 46202, Note_on_c, 0, 81, 84
2, 46205, Note_on_c, 0, 77, 87
2, 46227, Note_on_c, 0, 65, 0
2, 46249, Note_on_c, 0, 73, 106
2, 46252, Note_on_c, 0, 81, 0
2, 46266, Note_on_c, 0, 77, 0
2, 46284, Note_on_c, 0, 69, 81
2, 46297, Note_on_c, 0, 73, 0
2, 46323, Note_on_c, 0, 63, 124
2, 46330, Note_on_c, 0, 69, 0
2, 46369, Note_on_c, 0, 77, 94
2, 46374, Note_on_c, 0, 73, 95
2, 46396, Note_on_c, 0, 63, 0
2, 46407, Note_on_c, 0, 77, 0
2, 46412, Note_on_c, 0, 69, 92
2, 46443, Note_on_c, 0, 73, 0
2, 46446, Note_on_c, 0, 65, 91
2, 46460, Note_on_c, 0, 69, 0
2, 46485, Note_on_c, 0, 65, 0
2, 46498, Note_on_c, 0, 61, 124
2, 46549, Note_on_c, 0, 75, 103
2, 46550, Note_on_c, 0, 79, 89
2, 46593, Note_on_c, 0, 79, 0
2, 46598, Note_on_c, 0, 71, 88
2, 46602, Note_on_c, 0, 61, 0
2, 46636, Note_on_c, 0, 75, 0
2, 46638, Note_on_c, 0, 67, 88
2, 46651, Note_on_c, 0, 71, 0
2, 46667, Note_on_c, 0, 67, 0
2, 46726, Note_on_c, 0, 68, 105
2, 46734, Note_on_c, 0, 66, 84
2, 46781, Control_c, 0, 64, 63
2, 46787, Control_c, 0, 64, 0
2, 46812, Control_c, 0, 64, 63
2, 46814, Note_on_c, 0, 78, 89
2, 46816, Note_on_c, 0, 82, 78
2, 46822, Control_c, 0, 64, 127
2, 46872, Note_on_c, 0, 74, 71
2, 46881, Note_on_c, 0, 78, 0
2, 46882, Note_on_c, 0, 82, 0
2, 46907, Note_on_c, 0, 66, 0
2, 46911, Note_on_c, 0, 68, 0
2, 46924, Note_on_c, 0, 69, 99
2, 46925, Note_on_c, 0, 65, 86
2, 46934, Note_on_c, 0, 74, 0
2, 46965, Control_c, 0, 64, 63
2, 46985, Note_on_c, 0, 83, 76
2, 46991, Note_on_c, 0, 79, 79
2, 46995, Control_c, 0, 64, 127
2, 47026, Note_on_c, 0, 65, 0
2, 47042, Note_on_c, 0, 83, 0
2, 47042, Note_on_c, 0, 75, 95
2, 47047, Note_on_c, 0, 79, 0
2, 47073, Note_on_c, 0, 69, 0
2, 47081, Note_on_c, 0, 75, 0
2, 47082, Note_on_c, 0, 70, 110
2, 47086, Note_on_c, 0, 64, 77
2, 47122, Control_c, 0, 64, 63
2, 47139, Note_on_c, 0, 80, 92
2, 47145, Note_on_c, 0, 84, 76
2, 47149, Control_c, 0, 64, 127
2, 47175, Note_on_c, 0, 64, 0
2, 47185, Note_on_c, 0, 76, 90
2, 47194, Note_on_c, 0, 84, 0
2, 47205, Note_on_c, 0, 80, 0
2, 47229, Note_on_c, 0, 76, 0
2, 47229, Note_on_c, 0, 71, 114
2, 47230, Note_on_c, 0, 63, 114
2, 47246, Note_on_c, 0, 70, 0
2, 47261, Control_c, 0, 64, 63
2, 47286, Note_on_c, 0, 81, 97
2, 47287, Note_on_c, 0, 85, 101
2, 47297, Control_c, 0, 64, 127
2, 47328, Note_on_c, 0, 63, 0
2, 47330, Note_on_c, 0, 71, 0
2, 47333, Note_on_c, 0, 77, 92
2, 47355, Note_on_c, 0, 81, 0
2, 47358, Note_on_c, 0, 85, 0
2, 47379, Note_on_c, 0, 77, 0
2, 47388, Note_on_c, 0, 72, 112
2, 47390, Note_on_c, 0, 62, 100
2, 47429, Control_c, 0, 64, 63
2, 47440, Control_c, 0, 64, 0
2, 47453, Note_on_c, 0, 88, 82
2, 47453, Note_on_c, 0, 84, 88
2, 47464, Control_c, 0, 64, 63
2, 47474, Control_c, 0, 64, 127
2, 47504, Note_on_c, 0, 80, 78
2, 47515, Note_on_c, 0, 72, 0
2, 47521, Note_on_c, 0, 62, 0
2, 47526, Note_on_c, 0, 84, 0
2, 47533, Note_on_c, 0, 88, 0
2, 47556, Note_on_c, 0, 71, 100
2, 47557, Note_on_c, 0, 80, 0
2, 47563, Note_on_c, 0, 63, 106
2, 47587, Control_c, 0, 64, 63
2, 47611, Note_on_c, 0, 83, 86
2, 47613, Note_on_c, 0, 87, 92
2, 47619, Control_c, 0, 64, 127
2, 47651, Note_on_c, 0, 63, 0
2, 47661, Note_on_c, 0, 79, 80
2, 47666, Note_on_c, 0, 83, 0
2, 47672, Note_on_c, 0, 87, 0
2, 47690, Note_on_c, 0, 71, 0
2, 47703, Note_on_c, 0, 79, 0
2, 47703, Note_on_c, 0, 70, 104
2, 47707, Note_on_c, 0, 64, 85
2, 47737, Control_c, 0, 64, 63
2, 47751, Note_on_c, 0, 80, 95
2, 47753, Note_on_c, 0, 84, 81
2, 47775, Control_c, 0, 64, 127
2, 47802, Note_on_c, 0, 70, 0
2, 47803, Note_on_c, 0, 76, 58
2, 47804, Note_on_c, 0, 74, 52
2, 47812, Note_on_c, 0, 84, 0
2, 47813, Note_on_c, 0, 80, 0
2, 47831, Note_on_c, 0, 74, 0
2, 47844, Note_on_c, 0, 64, 0
2, 47846, Note_on_c, 0, 76, 0
2, 47847, Note_on_c, 0, 65, 89
2, 47848, Note_on_c, 0, 69, 94
2, 47878, Control_c, 0, 64, 63
2, 47900, Note_on_c, 0, 81, 79
2, 47902, Note_on_c, 0, 85, 81
2, 47908, Control_c, 0, 64, 127
2, 47947, Note_on_c, 0, 77, 81
2, 47956, Note_on_c, 0, 81, 0
2, 47962, Note_on_c, 0, 85, 0
2, 47967, Note_on_c, 0, 69, 0
2, 47979, Note_on_c, 0, 65, 0
2, 47988, Note_on_c, 0, 77, 0
2, 47997, Note_on_c, 0, 70, 104
2, 48000, Note_on_c, 0, 68, 91
2, 48027, Control_c, 0, 64, 63
2, 48045, Note_on_c, 0, 78, 99
2, 48050, Note_on_c, 0, 82, 89
2, 48061, Control_c, 0, 64, 127
2, 48090, Note_on_c, 0, 74, 85
2, 48101, Note_on_c, 0, 82, 0
2, 48116, Note_on_c, 0, 78, 0
2, 48118, Note_on_c, 0, 68, 0
2, 48126, Note_on_c, 0, 70, 0
2, 48132, Note_on_c, 0, 67, 93
2, 48133, Note_on_c, 0, 74, 0
2, 48136, Note_on_c, 0, 71, 104
2, 48159, Control_c, 0, 64, 63
2, 48183, Note_on_c, 0, 83, 84
2, 48186, Note_on_c, 0, 79, 88
2, 48192, Control_c, 0, 64, 127
2, 48216, Note_on_c, 0, 71, 0
2, 48231, Note_on_c, 0, 75, 93
2, 48241, Note_on_c, 0, 79, 0
2, 48241, Note_on_c, 0, 83, 0
2, 48250, Note_on_c, 0, 67, 0
2, 48265, Note_on_c, 0, 75, 0
2, 48278, Note_on_c, 0, 72, 109
2, 48279, Note_on_c, 0, 66, 110
2, 48299, Control_c, 0, 64, 63
2, 48325, Note_on_c, 0, 80, 93
2, 48325, Control_c, 0, 64, 127
2, 48327, Note_on_c, 0, 84, 84
2, 48346, Note_on_c, 0, 72, 0
2, 48348, Note_on_c, 0, 66, 0
2, 48368, Note_on_c, 0, 76, 60
2, 48370, Note_on_c, 0, 80, 0
2, 48375, Note_on_c, 0, 84, 0
2, 48406, Note_on_c, 0, 76, 0
2, 48410, Note_on_c, 0, 65, 104
2, 48411, Note_on_c, 0, 73, 119
2, 48433, Control_c, 0, 64, 63
2, 48458, Note_on_c, 0, 85, 100
2, 48458, Note_on_c, 0, 81, 88
2, 48461, Control_c, 0, 64, 127
2, 48468, Note_on_c, 0, 65, 0
2, 48482, Note_on_c, 0, 73, 0
2, 48505, Note_on_c, 0, 77, 90
2, 48527, Note_on_c, 0, 85, 0
2, 48527, Note_on_c, 0, 81, 0
2, 48544, Note_on_c, 0, 77, 0
2, 48555, Note_on_c, 0, 74, 113
2, 48556, Note_on_c, 0, 64, 99
2, 48570, Control_c, 0, 64, 63
2, 48605, Note_on_c, 0, 84, 81
2, 48607, Control_c, 0, 64, 127
2, 48609, Note_on_c, 0, 88, 99
2, 48631, Note_on_c, 0, 74, 0
2, 48657, Note_on_c, 0, 80, 90
2, 48672, Note_on_c, 0, 84, 0
2, 48678, Note_on_c, 0, 88, 0
2, 48695, Note_on_c, 0, 64, 0
2, 48700, Note_on_c, 0, 73, 116
2, 48702, Note_on_c, 0, 80, 0
2, 48706, Note_on_c, 0, 65, 90
2, 48732, Control_c, 0, 64, 63
2, 48752, Note_on_c, 0, 87, 97
2, 48753, Note_on_c, 0, 83, 86
2, 48753, Control_c, 0, 64, 127
2, 48792, Note_on_c, 0, 73, 0
2, 48796, Note_on_c, 0, 79, 76
2, 48801, Note_on_c, 0, 83, 0
2, 48804, Note_on_c, 0, 87, 0
2, 48815, Note_on_c, 0, 65, 0
2, 48831, Note_on_c, 0, 79, 0
2, 48834, Note_on_c, 0, 72, 107
2, 48838, Note_on_c, 0, 66, 100
2, 48854, Control_c, 0, 64, 63
2, 48880, Control_c, 0, 64, 127
2, 48888, Note_on_c, 0, 80, 104
2, 48889, Note_on_c, 0, 84, 90
2, 48926, Note_on_c, 0, 76, 81
2, 48931, Note_on_c, 0, 72, 0
2, 48938, Note_on_c, 0, 84, 0
2, 48955, Note_on_c, 0, 66, 0
2, 48955, Note_on_c, 0, 80, 0
2, 48963, Note_on_c, 0, 76, 0
2, 48972, Note_on_c, 0, 71, 107
2, 48974, Note_on_c, 0, 67, 106
2, 48984, Control_c, 0, 64, 63
2, 49013, Control_c, 0, 64, 127
2, 49017, Note_on_c, 0, 81, 76
2, 49021, Note_on_c, 0, 85, 83
2, 49043, Note_on_c, 0, 67, 0
2, 49055, Note_on_c, 0, 77, 85
2, 49074, Note_on_c, 0, 81, 0
2, 49079, Note_on_c, 0, 85, 0
2, 49083, Note_on_c, 0, 71, 0
2, 49100, Note_on_c, 0, 77, 0
2, 49105, Note_on_c, 0, 68, 112
2, 49112, Note_on_c, 0, 72, 97
2, 49122, Control_c, 0, 64, 63
2, 49142, Note_on_c, 0, 72, 0
2, 49151, Control_c, 0, 64, 127
2, 49164, Note_on_c, 0, 88, 76
2, 49169, Note_on_c, 0, 84, 80
2, 49170, Note_on_c, 0, 83, 74
2, 49186, Note_on_c, 0, 83, 0
2, 49205, Note_on_c, 0, 78, 85
2, 49209, Note_on_c, 0, 84, 0
2, 49220, Note_on_c, 0, 68, 0
2, 49221, Note_on_c, 0, 88, 0
2, 49237, Note_on_c, 0, 73, 115
2, 49240, Note_on_c, 0, 69, 93
2, 49243, Note_on_c, 0, 78, 0
2, 49271, Control_c, 0, 64, 63
2, 49294, Note_on_c, 0, 83, 87
2, 49295, Note_on_c, 0, 87, 98
2, 49298, Control_c, 0, 64, 127
2, 49338, Note_on_c, 0, 79, 78
2, 49343, Note_on_c, 0, 83, 0
2, 49357, Note_on_c, 0, 87, 0
2, 49365, Note_on_c, 0, 73, 0
2, 49367, Note_on_c, 0, 69, 0
2, 49376, Note_on_c, 0, 70, 103
2, 49377, Note_on_c, 0, 74, 109
2, 49378, Note_on_c, 0, 79, 0
2, 49391, Control_c, 0, 64, 63
2, 49417, Note_on_c, 0, 84, 99
2, 49417, Control_c, 0, 64, 127
2, 49418, Note_on_c, 0, 80, 107
2, 49426, Note_on_c, 0, 70, 0
2, 49437, Note_on_c, 0, 74, 0
2, 49463, Note_on_c, 0, 76, 67
2, 49464, Note_on_c, 0, 77, 73
2, 49471, Note_on_c, 0, 84, 0
2, 49479, Note_on_c, 0, 80, 0
2, 49496, Note_on_c, 0, 77, 0
2, 49497, Note_on_c, 0, 76, 0
2, 49501, Note_on_c, 0, 75, 115
2, 49503, Note_on_c, 0, 71, 100
2, 49512, Control_c, 0, 64, 63
2, 49538, Control_c, 0, 64, 127
2, 49547, Note_on_c, 0, 82, 39
2, 49547, Note_on_c, 0, 85, 103
2, 49548, Note_on_c, 0, 81, 100
2, 49561, Note_on_c, 0, 82, 0
2, 49575, Note_on_c, 0, 71, 0
2, 49590, Note_on_c, 0, 78, 100
2, 49606, Note_on_c, 0, 81, 0
2, 49606, Note_on_c, 0, 75, 0
2, 49616, Note_on_c, 0, 85, 0
2, 49629, Note_on_c, 0, 76, 112
2, 49631, Note_on_c, 0, 72, 112
2, 49632, Note_on_c, 0, 78, 0
2, 49652, Control_c, 0, 64, 63
2, 49676, Note_on_c, 0, 84, 91
2, 49677, Note_on_c, 0, 88, 83
2, 49686, Control_c, 0, 64, 127
2, 49704, Note_on_c, 0, 76, 0
2, 49720, Note_on_c, 0, 80, 92
2, 49731, Note_on_c, 0, 88, 0
2, 49732, Note_on_c, 0, 84, 0
2, 49750, Note_on_c, 0, 72, 0
2, 49757, Note_on_c, 0, 80, 0
2, 49759, Note_on_c, 0, 77, 113
2, 49759, Note_on_c, 0, 73, 108
2, 49781, Control_c, 0, 64, 63
2, 49806, Note_on_c, 0, 83, 97
2, 49807, Note_on_c, 0, 87, 101
2, 49812, Control_c, 0, 64, 127
2, 49819, Note_on_c, 0, 73, 0
2, 49840, Note_on_c, 0, 77, 0
2, 49844, Note_on_c, 0, 79, 84
2, 49863, Note_on_c, 0, 83, 0
2, 49865, Note_on_c, 0, 87, 0
2, 49888, Note_on_c, 0, 79, 0
2, 49888, Note_on_c, 0, 78, 121
2, 49889, Note_on_c, 0, 74, 109
2, 49894, Control_c, 0, 64, 63
2, 49914, Control_c, 0, 64, 127
2, 49926, Note_on_c, 0, 84, 109
2, 49940, Note_on_c, 0, 78, 0
2, 49967, Note_on_c, 0, 74, 0
2, 49979, Note_on_c, 0, 81, 97
2, 49980, Note_on_c, 0, 80, 43
2, 49989, Note_on_c, 0, 84, 0
2, 49997, Note_on_c, 0, 80, 0
2, 50005, Control_c, 0, 64, 63
2, 50007, Note_on_c, 0, 81, 0
2, 50016, Note_on_c, 0, 75, 112
2, 50017, Note_on_c, 0, 79, 111
2, 50025, Control_c, 0, 64, 127
2, 50059, Note_on_c, 0, 85, 118
2, 50100, Note_on_c, 0, 81, 89
2, 50105, Note_on_c, 0, 79, 0
2, 50122, Note_on_c, 0, 85, 0
2, 50124, Note_on_c, 0, 75, 0
2, 50143, Control_c, 0, 64, 63
2, 50144, Note_on_c, 0, 81, 0
2, 50144, Note_on_c, 0, 76, 124
2, 50169, Control_c, 0, 64, 127
2, 50187, Note_on_c, 0, 88, 98
2, 50188, Note_on_c, 0, 84, 99
2, 50229, Note_on_c, 0, 76, 0
2, 50231, Note_on_c, 0, 80, 101
2, 50246, Note_on_c, 0, 84, 0
2, 50255, Note_on_c, 0, 88, 0
2, 50268, Control_c, 0, 64, 63
2, 50271, Note_on_c, 0, 80, 0
2, 50274, Note_on_c, 0, 77, 121
2, 50290, Control_c, 0, 64, 127
2, 50316, Note_on_c, 0, 83, 100
2, 50316, Note_on_c, 0, 87, 109
2, 50337, Note_on_c, 0, 77, 0
2, 50361, Note_on_c, 0, 79, 94
2, 50380, Note_on_c, 0, 87, 0
2, 50384, Note_on_c, 0, 83, 0
2, 50388, Control_c, 0, 64, 63
2, 50397, Note_on_c, 0, 78, 127
2, 50405, Note_on_c, 0, 79, 0
2, 50405, Control_c, 0, 64, 127
2, 50438, Note_on_c, 0, 84, 116
2, 50470, Note_on_c, 0, 78, 0
2, 50479, Note_on_c, 0, 80, 113
2, 50498, Note_on_c, 0, 84, 0
2, 50510, Control_c, 0, 64, 63
2, 50519, Note_on_c, 0, 79, 118
2, 50521, Note_on_c, 0, 80, 0
2, 50525, Control_c, 0, 64, 127
2, 50563, Note_on_c, 0, 85, 120
2, 50583, Note_on_c, 0, 79, 0
2, 50601, Note_on_c, 0, 81, 99
2, 50625, Control_c, 0, 64, 63
2, 50627, Note_on_c, 0, 85, 0
2, 50628, Control_c, 0, 64, 0
2, 50641, Note_on_c, 0, 81, 0
2, 50655, Control_c, 0, 64, 63
2, 50656, Note_on_c, 0, 80, 127
2, 50659, Control_c, 0, 64, 127
2, 50738, Note_on_c, 0, 80, 0
2, 50746, Note_on_c, 0, 92, 116
2, 50802, Note_on_c, 0, 80, 108
2, 50810, Note_on_c, 0, 92, 0
2, 50858, Note_on_c, 0, 92, 116
2, 50875, Note_on_c, 0, 80, 0
2, 50904, Note_on_c, 0, 80, 105
2, 50919, Note_on_c, 0, 92, 0
2, 50951, Note_on_c, 0, 92, 115
2, 50965, Note_on_c, 0, 80, 0
2, 50992, Note_on_c, 0, 80, 100
2, 51007, Note_on_c, 0, 92, 0
2, 51039, Note_on_c, 0, 92, 116
2, 51055, Note_on_c, 0, 80, 0
2, 51079, Note_on_c, 0, 80, 100
2, 51099, Note_on_c, 0, 92, 0
2, 51127, Note_on_c, 0, 92, 108
2, 51143, Note_on_c, 0, 80, 0
2, 51167, Note_on_c, 0, 80, 91
2, 51185, Note_on_c, 0, 92, 0
2, 51217, Note_on_c, 0, 92, 114
2, 51238, Note_on_c, 0, 80, 0
2, 51252, Note_on_c, 0, 92, 0
2, 51261, Note_on_c, 0, 68, 120
2, 51323, Note_on_c, 0, 68, 0
2, 51326, Note_on_c, 0, 80, 81
2, 51380, Note_on_c, 0, 68, 97
2, 51385, Note_on_c, 0, 80, 0
2, 51426, Note_on_c, 0, 80, 104
2, 51436, Note_on_c, 0, 68, 0
2, 51472, Note_on_c, 0, 68, 96
2, 51488, Note_on_c, 0, 80, 0
2, 51522, Note_on_c, 0, 80, 96
2, 51538, Note_on_c, 0, 68, 0
2, 51567, Note_on_c, 0, 68, 77
2, 51591, Note_on_c, 0, 80, 0
2, 51627, Note_on_c, 0, 80, 93
2, 51644, Note_on_c, 0, 68, 0
2, 51683, Note_on_c, 0, 68, 59
2, 51690, Note_on_c, 0, 80, 0
2, 51734, Note_on_c, 0, 80, 81
2, 51752, Note_on_c, 0, 68, 0
2, 51801, Note_on_c, 0, 68, 53
2, 51816, Note_on_c, 0, 80, 0
2, 51867, Note_on_c, 0, 80, 69
2, 51887, Note_on_c, 0, 68, 0
2, 51925, Note_on_c, 0, 66, 88
2, 51941, Control_c, 0, 67, 127
2, 51970, Control_c, 0, 64, 63
2, 51978, Control_c, 0, 64, 0
2, 52008, Control_c, 0, 64, 63
2, 52012, Note_on_c, 0, 68, 69
2, 52016, Control_c, 0, 64, 127
2, 52020, Note_on_c, 0, 80, 0
2, 52060, Note_on_c, 0, 66, 0
2, 52083, Note_on_c, 0, 66, 79
2, 52087, Note_on_c, 0, 68, 0
2, 52134, Note_on_c, 0, 66, 0
2, 52141, Note_on_c, 0, 68, 47
2, 52201, Note_on_c, 0, 68, 0
2, 52204, Note_on_c, 0, 66, 63
2, 52243, Note_on_c, 0, 66, 0
2, 52246, Note_on_c, 0, 68, 51
2, 52308, Note_on_c, 0, 68, 0
2, 52317, Note_on_c, 0, 66, 46
2, 52352, Note_on_c, 0, 68, 49
2, 52355, Note_on_c, 0, 66, 0
2, 52409, Note_on_c, 0, 68, 0
2, 52418, Note_on_c, 0, 66, 47
2, 52461, Note_on_c, 0, 68, 39
2, 52462, Note_on_c, 0, 66, 0
2, 52520, Note_on_c, 0, 68, 0
2, 52539, Note_on_c, 0, 66, 19
2, 52564, Note_on_c, 0, 66, 0
2, 52575, Note_on_c, 0, 68, 35
2, 52624, Note_on_c, 0, 68, 0
2, 52630, Note_on_c, 0, 66, 48
2, 52682, Note_on_c, 0, 66, 0
2, 52682, Note_on_c, 0, 68, 48
2, 52738, Note_on_c, 0, 68, 0
2, 52748, Note_on_c, 0, 66, 34
2, 52785, Note_on_c, 0, 66, 0
2, 52787, Note_on_c, 0, 68, 40
2, 52845, Note_on_c, 0, 68, 0
2, 52851, Note_on_c, 0, 66, 42
2, 52892, Note_on_c, 0, 66, 0
2, 52899, Note_on_c, 0, 68, 37
2, 52953, Note_on_c, 0, 68, 0
2, 52965, Note_on_c, 0, 66, 26
2, 53013, Note_on_c, 0, 66, 0
2, 53019, Note_on_c, 0, 68, 29
2, 53074, Note_on_c, 0, 68, 0
2, 53087, Note_on_c, 0, 66, 30
2, 53131, Note_on_c, 0, 66, 0
2, 53135, Note_on_c, 0, 68, 42
2, 53200, Note_on_c, 0, 68, 0
2, 53203, Note_on_c, 0, 66, 48
2, 53256, Note_on_c, 0, 66, 0
2, 53262, Note_on_c, 0, 68, 42
2, 53325, Note_on_c, 0, 68, 0
2, 53336, Note_on_c, 0, 66, 40
2, 53382, Note_on_c, 0, 66, 0
2, 53393, Note_on_c, 0, 68, 30
2, 53449, Note_on_c, 0, 68, 0
2, 53456, Note_on_c, 0, 66, 32
2, 53505, Note_on_c, 0, 66, 0
2, 53511, Note_on_c, 0, 73, 70
2, 53514, Note_on_c, 0, 68, 27
2, 53552, Note_on_c, 0, 73, 0
2, 53572, Note_on_c, 0, 68, 0
2, 53581, Note_on_c, 0, 66, 35
2, 53616, Note_on_c, 0, 66, 0
2, 53625, Note_on_c, 0, 68, 22
2, 53683, Note_on_c, 0, 68, 0
2, 53687, Note_on_c, 0, 77, 65
2, 53690, Note_on_c, 0, 66, 39
2, 53723, Note_on_c, 0, 77, 0
2, 53737, Note_on_c, 0, 66, 0
2, 53738, Note_on_c, 0, 68, 43
2, 53796, Note_on_c, 0, 68, 0
2, 53808, Note_on_c, 0, 66, 20
2, 53854, Note_on_c, 0, 66, 0
2, 53865, Note_on_c, 0, 68, 24
2, 53886, Note_on_c, 0, 78, 48
2, 53920, Note_on_c, 0, 78, 0
2, 53927, Note_on_c, 0, 68, 0
2, 53938, Note_on_c, 0, 66, 28
2, 53980, Note_on_c, 0, 66, 0
2, 53995, Note_on_c, 0, 68, 20
2, 54057, Note_on_c, 0, 68, 0
2, 54062, Note_on_c, 0, 66, 27
2, 54066, Note_on_c, 0, 65, 48
2, 54102, Control_c, 0, 64, 63
2, 54129, Control_c, 0, 64, 127
2, 54139, Note_on_c, 0, 68, 63
2, 54145, Note_on_c, 0, 66, 0
2, 54197, Note_on_c, 0, 68, 0
2, 54202, Note_on_c, 0, 66, 65
2, 54243, Note_on_c, 0, 66, 0
2, 54251, Note_on_c, 0, 68, 39
2, 54259, Note_on_c, 0, 80, 73
2, 54272, Note_on_c, 0, 65, 0
2, 54304, Note_on_c, 0, 68, 0
2, 54312, Note_on_c, 0, 66, 52
2, 54363, Note_on_c, 0, 66, 0
2, 54363, Note_on_c, 0, 68, 49
2, 54399, Note_on_c, 0, 80, 0
2, 54408, Note_on_c, 0, 68, 0
2, 54415, Note_on_c, 0, 66, 51
2, 54421, Note_on_c, 0, 64, 65
2, 54425, Control_c, 0, 64, 63
2, 54446, Control_c, 0, 64, 127
2, 54468, Note_on_c, 0, 68, 63
2, 54481, Note_on_c, 0, 66, 0
2, 54531, Note_on_c, 0, 68, 0
2, 54537, Note_on_c, 0, 66, 41
2, 54588, Note_on_c, 0, 66, 0
2, 54593, Note_on_c, 0, 68, 49
2, 54602, Note_on_c, 0, 85, 72
2, 54647, Note_on_c, 0, 85, 0
2, 54653, Note_on_c, 0, 68, 0
2, 54667, Note_on_c, 0, 66, 32
2, 54711, Note_on_c, 0, 66, 0
2, 54718, Note_on_c, 0, 68, 38
2, 54745, Note_on_c, 0, 64, 0
2, 54780, Note_on_c, 0, 63, 26
2, 54782, Note_on_c, 0, 68, 0
2, 54783, Note_on_c, 0, 66, 60
2, 54800, Control_c, 0, 64, 63
2, 54829, Control_c, 0, 64, 127
2, 54844, Note_on_c, 0, 68, 57
2, 54854, Note_on_c, 0, 66, 0
2, 54908, Note_on_c, 0, 68, 0
2, 54913, Note_on_c, 0, 66, 35
2, 54956, Note_on_c, 0, 80, 71
2, 54965, Note_on_c, 0, 66, 0
2, 54968, Note_on_c, 0, 68, 54
2, 54996, Note_on_c, 0, 80, 0
2, 55019, Note_on_c, 0, 68, 0
2, 55024, Note_on_c, 0, 66, 29
2, 55056, Note_on_c, 0, 68, 53
2, 55069, Note_on_c, 0, 66, 0
2, 55077, Note_on_c, 0, 63, 0
2, 55115, Note_on_c, 0, 68, 0
2, 55121, Note_on_c, 0, 66, 45
2, 55129, Note_on_c, 0, 62, 55
2, 55138, Control_c, 0, 64, 63
2, 55166, Control_c, 0, 64, 127
2, 55175, Note_on_c, 0, 68, 50
2, 55183, Note_on_c, 0, 66, 0
2, 55235, Note_on_c, 0, 68, 0
2, 55236, Note_on_c, 0, 66, 49
2, 55284, Note_on_c, 0, 66, 0
2, 55290, Note_on_c, 0, 68, 41
2, 55297, Note_on_c, 0, 82, 70
2, 55341, Note_on_c, 0, 68, 0
2, 55350, Note_on_c, 0, 82, 0
2, 55355, Note_on_c, 0, 66, 23
2, 55390, Note_on_c, 0, 62, 0
2, 55400, Note_on_c, 0, 66, 0
2, 55406, Note_on_c, 0, 68, 38
2, 55455, Note_on_c, 0, 68, 0
2, 55462, Note_on_c, 0, 66, 55
2, 55465, Note_on_c, 0, 61, 70
2, 55465, Note_on_c, 0, 63, 47
2, 55481, Control_c, 0, 64, 63
2, 55512, Note_on_c, 0, 68, 69
2, 55513, Control_c, 0, 64, 127
2, 55517, Note_on_c, 0, 66, 0
2, 55568, Note_on_c, 0, 68, 0
2, 55582, Note_on_c, 0, 66, 33
2, 55620, Note_on_c, 0, 66, 0
2, 55628, Note_on_c, 0, 80, 76
2, 55634, Note_on_c, 0, 68, 29
2, 55679, Note_on_c, 0, 68, 0
2, 55687, Note_on_c, 0, 66, 37
2, 55688, Note_on_c, 0, 63, 0
2, 55723, Note_on_c, 0, 61, 0
2, 55726, Note_on_c, 0, 80, 0
2, 55730, Note_on_c, 0, 66, 0
2, 55743, Note_on_c, 0, 68, 42
2, 55799, Note_on_c, 0, 63, 62
2, 55800, Note_on_c, 0, 68, 0
2, 55802, Note_on_c, 0, 66, 59
2, 55810, Note_on_c, 0, 60, 63
2, 55822, Control_c, 0, 64, 63
2, 55855, Control_c, 0, 64, 127
2, 55858, Note_on_c, 0, 68, 67
2, 55864, Note_on_c, 0, 66, 0
2, 55919, Note_on_c, 0, 68, 0
2, 55925, Note_on_c, 0, 66, 52
2, 55959, Note_on_c, 0, 63, 0
2, 55962, Note_on_c, 0, 66, 0
2, 55969, Note_on_c, 0, 68, 31
2, 55988, Note_on_c, 0, 78, 77
2, 56025, Note_on_c, 0, 68, 0
2, 56034, Note_on_c, 0, 78, 0
2, 56037, Note_on_c, 0, 66, 36
2, 56099, Note_on_c, 0, 66, 0
2, 56105, Note_on_c, 0, 68, 40
2, 56106, Note_on_c, 0, 60, 0
2, 56161, Note_on_c, 0, 68, 0
2, 56191, Note_on_c, 0, 66, 69
2, 56205, Note_on_c, 0, 59, 23
2, 56207, Note_on_c, 0, 62, 47
2, 56246, Control_c, 0, 64, 63
2, 56274, Note_on_c, 0, 68, 63
2, 56288, Control_c, 0, 64, 127
2, 56297, Note_on_c, 0, 66, 0
2, 56328, Note_on_c, 0, 68, 0
2, 56334, Note_on_c, 0, 66, 65
2, 56403, Note_on_c, 0, 68, 47
2, 56404, Note_on_c, 0, 77, 63
2, 56407, Note_on_c, 0, 66, 0
2, 56414, Note_on_c, 0, 59, 0
2, 56442, Note_on_c, 0, 77, 0
2, 56460, Note_on_c, 0, 68, 0
2, 56478, Note_on_c, 0, 66, 35
2, 56523, Note_on_c, 0, 66, 0
2, 56529, Note_on_c, 0, 68, 45
2, 56585, Note_on_c, 0, 68, 0
2, 56589, Note_on_c, 0, 66, 58
2, 56645, Note_on_c, 0, 66, 0
2, 56651, Note_on_c, 0, 68, 32
2, 56684, Note_on_c, 0, 77, 70
2, 56710, Note_on_c, 0, 68, 0
2, 56718, Note_on_c, 0, 66, 49
2, 56725, Note_on_c, 0, 77, 0
2, 56767, Note_on_c, 0, 66, 0
2, 56775, Note_on_c, 0, 68, 25
2, 56831, Note_on_c, 0, 68, 0
2, 56837, Note_on_c, 0, 66, 49
2, 56854, Note_on_c, 0, 80, 83
2, 56891, Note_on_c, 0, 80, 0
2, 56900, Note_on_c, 0, 68, 63
2, 56910, Note_on_c, 0, 66, 0
2, 56943, Note_on_c, 0, 62, 0
2, 56970, Note_on_c, 0, 63, 61
2, 56971, Note_on_c, 0, 66, 71
2, 56974, Note_on_c, 0, 68, 0
2, 56980, Note_on_c, 0, 60, 54
2, 56991, Control_c, 0, 64, 63
2, 57021, Note_on_c, 0, 68, 65
2, 57023, Control_c, 0, 64, 127
2, 57032, Note_on_c, 0, 66, 0
2, 57078, Note_on_c, 0, 68, 0
2, 57081, Note_on_c, 0, 66, 62
2, 57132, Note_on_c, 0, 66, 0
2, 57139, Note_on_c, 0, 68, 46
2, 57150, Note_on_c, 0, 77, 63
2, 57194, Note_on_c, 0, 68, 0
2, 57198, Note_on_c, 0, 66, 48
2, 57220, Note_on_c, 0, 77, 0
2, 57247, Note_on_c, 0, 66, 0
2, 57249, Note_on_c, 0, 68, 51
2, 57301, Note_on_c, 0, 68, 0
2, 57305, Note_on_c, 0, 66, 57
2, 57351, Note_on_c, 0, 66, 0
2, 57354, Note_on_c, 0, 68, 40
2, 57422, Note_on_c, 0, 68, 0
2, 57422, Note_on_c, 0, 77, 71
2, 57426, Note_on_c, 0, 66, 54
2, 57478, Note_on_c, 0, 77, 0
2, 57479, Note_on_c, 0, 66, 0
2, 57482, Note_on_c, 0, 68, 55
2, 57544, Note_on_c, 0, 68, 0
2, 57549, Note_on_c, 0, 80, 84
2, 57553, Note_on_c, 0, 66, 50
2, 57579, Note_on_c, 0, 80, 0
2, 57597, Note_on_c, 0, 63, 0
2, 57601, Note_on_c, 0, 60, 0
2, 57604, Note_on_c, 0, 66, 0
2, 57607, Note_on_c, 0, 68, 53
2, 57678, Note_on_c, 0, 68, 0
2, 57679, Note_on_c, 0, 66, 65
2, 57680, Note_on_c, 0, 59, 55
2, 57687, Note_on_c, 0, 77, 55
2, 57710, Control_c, 0, 64, 63
2, 57720, Control_c, 0, 64, 0
2, 57725, Note_on_c, 0, 62, 5
2, 57732, Control_c, 0, 64, 63
2, 57748, Control_c, 0, 64, 127
2, 57759, Note_on_c, 0, 68, 61
2, 57782, Note_on_c, 0, 66, 0
2, 57805, Note_on_c, 0, 68, 0
2, 57817, Note_on_c, 0, 66, 62
2, 57819, Note_on_c, 0, 74, 76
2, 57836, Note_on_c, 0, 77, 0
2, 57862, Note_on_c, 0, 68, 46
2, 57869, Note_on_c, 0, 66, 0
2, 57917, Note_on_c, 0, 74, 0
2, 57923, Note_on_c, 0, 68, 0
2, 57926, Note_on_c, 0, 66, 68
2, 57931, Note_on_c, 0, 77, 92
2, 57971, Note_on_c, 0, 59, 0
2, 57976, Note_on_c, 0, 68, 49
2, 58001, Note_on_c, 0, 66, 0
2, 58013, Note_on_c, 0, 62, 0
2, 58039, Note_on_c, 0, 60, 64
2, 58039, Note_on_c, 0, 63, 77
2, 58041, Note_on_c, 0, 66, 88
2, 58047, Note_on_c, 0, 68, 0
2, 58067, Control_c, 0, 64, 63
2, 58089, Note_on_c, 0, 68, 76
2, 58102, Control_c, 0, 64, 127
2, 58106, Note_on_c, 0, 66, 0
2, 58153, Note_on_c, 0, 68, 0
2, 58164, Note_on_c, 0, 66, 57
2, 58168, Note_on_c, 0, 80, 92
2, 58199, Note_on_c, 0, 77, 0
2, 58218, Note_on_c, 0, 68, 38
2, 58220, Note_on_c, 0, 66, 0
2, 58278, Note_on_c, 0, 68, 0
2, 58284, Note_on_c, 0, 66, 49
2, 58292, Note_on_c, 0, 84, 62
2, 58303, Note_on_c, 0, 80, 0
2, 58338, Note_on_c, 0, 66, 0
2, 58339, Note_on_c, 0, 63, 0
2, 58341, Note_on_c, 0, 68, 46
2, 58342, Note_on_c, 0, 84, 0
2, 58396, Note_on_c, 0, 68, 0
2, 58401, Note_on_c, 0, 66, 52
2, 58459, Note_on_c, 0, 68, 55
2, 58464, Note_on_c, 0, 66, 0
2, 58512, Note_on_c, 0, 68, 0
2, 58520, Note_on_c, 0, 66, 31
2, 58576, Note_on_c, 0, 68, 50
2, 58578, Note_on_c, 0, 66, 0
2, 58625, Note_on_c, 0, 68, 0
2, 58635, Note_on_c, 0, 66, 45
2, 58694, Note_on_c, 0, 66, 0
2, 58694, Note_on_c, 0, 68, 63
2, 58727, Note_on_c, 0, 60, 0
2, 58731, Note_on_c, 0, 68, 0
2, 58757, Note_on_c, 0, 66, 60
2, 58804, Note_on_c, 0, 66, 0
2, 58815, Note_on_c, 0, 68, 46
2, 58863, Note_on_c, 0, 68, 0
2, 58872, Note_on_c, 0, 66, 31
2, 58927, Note_on_c, 0, 66, 0
2, 58932, Note_on_c, 0, 68, 42
2, 58986, Note_on_c, 0, 68, 0
2, 58997, Note_on_c, 0, 66, 40
2, 59056, Note_on_c, 0, 66, 0
2, 59064, Note_on_c, 0, 68, 32
2, 59122, Note_on_c, 0, 68, 0
2, 59151, Note_on_c, 0, 52, 85
2, 59177, Note_on_c, 0, 66, 5
2, 59235, Note_on_c, 0, 68, 33
2, 59254, Note_on_c, 0, 66, 0
2, 59300, Note_on_c, 0, 68, 0
2, 59310, Note_on_c, 0, 66, 30
2, 59371, Note_on_c, 0, 68, 48
2, 59372, Note_on_c, 0, 66, 0
2, 59426, Note_on_c, 0, 68, 0
2, 59428, Note_on_c, 0, 66, 45
2, 59489, Note_on_c, 0, 68, 46
2, 59490, Note_on_c, 0, 66, 0
2, 59545, Note_on_c, 0, 68, 0
2, 59547, Note_on_c, 0, 54, 98
2, 59555, Note_on_c, 0, 66, 38
2, 59612, Note_on_c, 0, 68, 48
2, 59613, Note_on_c, 0, 66, 0
2, 59617, Note_on_c, 0, 52, 0
2, 59665, Note_on_c, 0, 68, 0
2, 59667, Note_on_c, 0, 66, 58
2, 59714, Note_on_c, 0, 66, 0
2, 59714, Note_on_c, 0, 56, 97
2, 59726, Note_on_c, 0, 68, 48
2, 59730, Note_on_c, 0, 54, 0
2, 59777, Note_on_c, 0, 68, 0
2, 59778, Note_on_c, 0, 66, 62
2, 59819, Note_on_c, 0, 44, 88
2, 59829, Note_on_c, 0, 68, 55
2, 59831, Note_on_c, 0, 66, 0
2, 59838, Note_on_c, 0, 56, 0
2, 59857, Note_on_c, 0, 51, 72
2, 59902, Note_on_c, 0, 58, 88
2, 59903, Control_c, 0, 64, 63
2, 59909, Control_c, 0, 64, 0
2, 59924, Note_on_c, 0, 66, 57
2, 59931, Note_on_c, 0, 68, 0
2, 59942, Control_c, 0, 64, 63
2, 59950, Control_c, 0, 64, 127
2, 59997, Note_on_c, 0, 68, 52
2, 60003, Note_on_c, 0, 66, 0
2, 60030, Note_on_c, 0, 58, 0
2, 60060, Note_on_c, 0, 68, 0
2, 60066, Note_on_c, 0, 66, 39
2, 60090, Note_on_c, 0, 56, 91
2, 60119, Note_on_c, 0, 66, 0
2, 60129, Note_on_c, 0, 44, 0
2, 60130, Note_on_c, 0, 68, 51
2, 60151, Note_on_c, 0, 51, 0
2, 60178, Note_on_c, 0, 68, 0
2, 60180, Note_on_c, 0, 66, 43
2, 60246, Note_on_c, 0, 68, 49
2, 60252, Note_on_c, 0, 66, 0
2, 60262, Note_on_c, 0, 54, 88
2, 60277, Note_on_c, 0, 56, 0
2, 60316, Note_on_c, 0, 68, 0
2, 60321, Note_on_c, 0, 66, 36
2, 60368, Note_on_c, 0, 66, 0
2, 60374, Note_on_c, 0, 68, 51
2, 60429, Note_on_c, 0, 60, 84
2, 60434, Note_on_c, 0, 68, 0
2, 60445, Note_on_c, 0, 66, 35
2, 60498, Note_on_c, 0, 66, 0
2, 60505, Note_on_c, 0, 68, 46
2, 60562, Note_on_c, 0, 68, 0
2, 60575, Note_on_c, 0, 54, 0
2, 60597, Note_on_c, 0, 66, 20
2, 60619, Note_on_c, 0, 52, 55
2, 60625, Note_on_c, 0, 66, 0
2, 60631, Note_on_c, 0, 60, 0
2, 60640, Note_on_c, 0, 68, 50
2, 60679, Note_on_c, 0, 68, 0
2, 60700, Note_on_c, 0, 66, 16
2, 60755, Note_on_c, 0, 68, 48
2, 60756, Note_on_c, 0, 66, 0
2, 60804, Note_on_c, 0, 68, 0
2, 60807, Note_on_c, 0, 66, 45
2, 60859, Note_on_c, 0, 68, 58
2, 60863, Note_on_c, 0, 66, 0
2, 60908, Note_on_c, 0, 66, 57
2, 60912, Control_c, 0, 64, 63
2, 60918, Note_on_c, 0, 68, 0
2, 60946, Control_c, 0, 64, 127
2, 60969, Note_on_c, 0, 54, 93
2, 60970, Note_on_c, 0, 68, 64
2, 60974, Note_on_c, 0, 66, 0
2, 61033, Note_on_c, 0, 66, 64
2, 61035, Note_on_c, 0, 68, 0
2, 61077, Note_on_c, 0, 68, 50
2, 61081, Note_on_c, 0, 66, 0
2, 61108, Note_on_c, 0, 52, 0
2, 61122, Note_on_c, 0, 56, 93
2, 61134, Note_on_c, 0, 66, 63
2, 61141, Note_on_c, 0, 68, 0
2, 61146, Note_on_c, 0, 54, 0
2, 61187, Note_on_c, 0, 68, 73
2, 61191, Note_on_c, 0, 66, 0
2, 61234, Note_on_c, 0, 44, 87
2, 61254, Note_on_c, 0, 66, 64
2, 61255, Note_on_c, 0, 56, 0
2, 61258, Note_on_c, 0, 68, 0
2, 61275, Control_c, 0, 64, 63
2, 61279, Control_c, 0, 64, 0
2, 61305, Note_on_c, 0, 58, 62
2, 61311, Note_on_c, 0, 68, 66
2, 61313, Control_c, 0, 64, 63
2, 61317, Control_c, 0, 64, 127
2, 61321, Note_on_c, 0, 66, 0
2, 61366, Note_on_c, 0, 68, 0
2, 61371, Note_on_c, 0, 66, 54
2, 61392, Note_on_c, 0, 44, 0
2, 61415, Note_on_c, 0, 66, 0
2, 61424, Note_on_c, 0, 68, 48
2, 61474, Note_on_c, 0, 56, 100
2, 61481, Note_on_c, 0, 51, 93
2, 61486, Note_on_c, 0, 68, 0
2, 61494, Note_on_c, 0, 58, 0
2, 61500, Note_on_c, 0, 66, 46
2, 61535, Note_on_c, 0, 66, 0
2, 61542, Note_on_c, 0, 68, 47
2, 61567, Control_c, 0, 67, 0
2, 61586, Note_on_c, 0, 68, 0
2, 61588, Note_on_c, 0, 66, 48
2, 61626, Note_on_c, 0, 66, 0
2, 61639, Note_on_c, 0, 60, 106
2, 61643, Note_on_c, 0, 54, 90
2, 61650, Note_on_c, 0, 68, 50
2, 61660, Note_on_c, 0, 51, 0
2, 61663, Note_on_c, 0, 56, 0
2, 61685, Note_on_c, 0, 68, 0
2, 61695, Note_on_c, 0, 66, 56
2, 61727, Note_on_c, 0, 54, 0
2, 61748, Note_on_c, 0, 66, 0
2, 61749, Note_on_c, 0, 60, 0
2, 61750, Note_on_c, 0, 68, 55
2, 61812, Note_on_c, 0, 68, 0
2, 61831, Note_on_c, 0, 65, 102
2, 61838, Note_on_c, 0, 66, 25
2, 61839, Note_on_c, 0, 56, 97
2, 61863, Note_on_c, 0, 65, 0
2, 61871, Note_on_c, 0, 56, 0
2, 61874, Note_on_c, 0, 66, 0
2, 61883, Note_on_c, 0, 68, 46
2, 61928, Note_on_c, 0, 68, 0
2, 62013, Note_on_c, 0, 44, 52
2, 62021, Note_on_c, 0, 58, 76
2, 62030, Note_on_c, 0, 66, 57
2, 62040, Control_c, 0, 64, 63
2, 62043, Control_c, 0, 64, 0
2, 62071, Note_on_c, 0, 66, 0
2, 62074, Control_c, 0, 64, 63
2, 62078, Control_c, 0, 64, 127
2, 62081, Note_on_c, 0, 68, 27
2, 62130, Note_on_c, 0, 68, 0
2, 62133, Note_on_c, 0, 44, 0
2, 62140, Note_on_c, 0, 66, 39
2, 62187, Note_on_c, 0, 66, 0
2, 62204, Note_on_c, 0, 68, 31
2, 62209, Note_on_c, 0, 56, 95
2, 62212, Note_on_c, 0, 51, 87
2, 62228, Note_on_c, 0, 58, 0
2, 62251, Note_on_c, 0, 68, 0
2, 62261, Note_on_c, 0, 66, 37
2, 62289, Control_c, 0, 67, 127
2, 62300, Note_on_c, 0, 66, 0
2, 62309, Note_on_c, 0, 68, 40
2, 62352, Note_on_c, 0, 68, 0
2, 62353, Control_c, 0, 67, 0
2, 62366, Note_on_c, 0, 66, 26
2, 62381, Note_on_c, 0, 60, 112
2, 62383, Note_on_c, 0, 54, 101
2, 62398, Note_on_c, 0, 51, 0
2, 62403, Note_on_c, 0, 56, 0
2, 62404, Note_on_c, 0, 66, 0
2, 62415, Note_on_c, 0, 68, 40
2, 62437, Control_c, 0, 67, 127
2, 62458, Note_on_c, 0, 68, 0
2, 62470, Note_on_c, 0, 66, 41
2, 62484, Note_on_c, 0, 54, 0
2, 62501, Note_on_c, 0, 60, 0
2, 62520, Note_on_c, 0, 66, 0
2, 62525, Note_on_c, 0, 68, 48
2, 62572, Note_on_c, 0, 65, 109
2, 62576, Note_on_c, 0, 56, 97
2, 62589, Note_on_c, 0, 68, 0
2, 62597, Note_on_c, 0, 66, 44
2, 62644, Note_on_c, 0, 66, 0
2, 62647, Note_on_c, 0, 68, 52
2, 62704, Note_on_c, 0, 68, 0
2, 62712, Note_on_c, 0, 66, 50
2, 62787, Note_on_c, 0, 66, 0
2, 62797, Note_on_c, 0, 68, 69
2, 62866, Note_on_c, 0, 68, 0
2, 62867, Note_on_c, 0, 66, 51
2, 62918, Note_on_c, 0, 66, 0
2, 62920, Note_on_c, 0, 68, 57
2, 62974, Note_on_c, 0, 68, 0
2, 62976, Note_on_c, 0, 66, 54
2, 63024, Note_on_c, 0, 65, 0
2, 63029, Note_on_c, 0, 66, 0
2, 63029, Note_on_c, 0, 68, 53
2, 63084, Note_on_c, 0, 66, 51
2, 63085, Note_on_c, 0, 68, 0
2, 63137, Note_on_c, 0, 65, 98
2, 63159, Note_on_c, 0, 66, 0
2, 63164, Note_on_c, 0, 68, 58
2, 63211, Note_on_c, 0, 68, 0
2, 63217, Note_on_c, 0, 66, 37
2, 63268, Note_on_c, 0, 66, 0
2, 63273, Note_on_c, 0, 68, 53
2, 63322, Note_on_c, 0, 68, 0
2, 63329, Note_on_c, 0, 66, 30
2, 63399, Note_on_c, 0, 66, 0
2, 63405, Note_on_c, 0, 68, 47
2, 63459, Note_on_c, 0, 68, 0
2, 63463, Note_on_c, 0, 66, 27
2, 63519, Note_on_c, 0, 66, 0
2, 63523, Note_on_c, 0, 68, 50
2, 63582, Note_on_c, 0, 68, 0
2, 63585, Note_on_c, 0, 66, 34
2, 63643, Note_on_c, 0, 66, 0
2, 63646, Note_on_c, 0, 68, 44
2, 63712, Note_on_c, 0, 68, 0
2, 63716, Note_on_c, 0, 66, 26
2, 63771, Note_on_c, 0, 66, 0
2, 63774, Note_on_c, 0, 68, 43
2, 63833, Note_on_c, 0, 65, 0
2, 63835, Note_on_c, 0, 68, 0
2, 63839, Note_on_c, 0, 66, 20
2, 63902, Note_on_c, 0, 66, 0
2, 63911, Note_on_c, 0, 68, 41
2, 63914, Note_on_c, 0, 65, 59
2, 63971, Note_on_c, 0, 68, 0
2, 63985, Note_on_c, 0, 66, 26
2, 64048, Note_on_c, 0, 66, 0
2, 64049, Note_on_c, 0, 68, 43
2, 64110, Note_on_c, 0, 68, 0
2, 64119, Note_on_c, 0, 66, 25
2, 64194, Note_on_c, 0, 68, 35
2, 64201, Note_on_c, 0, 66, 0
2, 64232, Note_on_c, 0, 56, 0
2, 64271, Note_on_c, 0, 68, 0
2, 64276, Note_on_c, 0, 66, 29
2, 64335, Note_on_c, 0, 65, 0
2, 64367, Note_on_c, 0, 66, 0
2, 64402, Note_on_c, 0, 66, 34
2, 64497, Note_on_c, 0, 68, 42
2, 64560, Note_on_c, 0, 65, 34
2, 64561, Note_on_c, 0, 66, 0
2, 64564, Note_on_c, 0, 68, 0
2, 64564, Note_on_c, 0, 66, 64
2, 64636, Note_on_c, 0, 68, 46
2, 64646, Note_on_c, 0, 66, 0
2, 64646, Note_on_c, 0, 73, 62
2, 64702, Note_on_c, 0, 68, 0
2, 64703, Note_on_c, 0, 66, 57
2, 64737, Note_on_c, 0, 73, 0
2, 64764, Note_on_c, 0, 68, 61
2, 64771, Note_on_c, 0, 66, 0
2, 64820, Note_on_c, 0, 77, 89
2, 64821, Note_on_c, 0, 68, 0
2, 64833, Note_on_c, 0, 66, 55
2, 64884, Note_on_c, 0, 77, 0
2, 64884, Note_on_c, 0, 68, 63
2, 64890, Note_on_c, 0, 66, 0
2, 64946, Note_on_c, 0, 68, 0
2, 64950, Note_on_c, 0, 66, 62
2, 64997, Note_on_c, 0, 78, 80
2, 65008, Note_on_c, 0, 68, 65
2, 65017, Note_on_c, 0, 66, 0
2, 65047, Note_on_c, 0, 78, 0
2, 65063, Note_on_c, 0, 68, 0
2, 65071, Note_on_c, 0, 66, 74
2, 65117, Note_on_c, 0, 68, 70
2, 65118, Note_on_c, 0, 66, 0
2, 65174, Note_on_c, 0, 68, 0
2, 65176, Note_on_c, 0, 66, 83
2, 65226, Note_on_c, 0, 68, 80
2, 65238, Note_on_c, 0, 66, 0
2, 65282, Note_on_c, 0, 68, 0
2, 65286, Note_on_c, 0, 66, 64
2, 65343, Note_on_c, 0, 68, 61
2, 65348, Note_on_c, 0, 66, 0
2, 65352, Note_on_c, 0, 65, 0
2, 65355, Note_on_c, 0, 80, 92
2, 65389, Note_on_c, 0, 68, 0
2, 65391, Note_on_c, 0, 80, 0
2, 65407, Note_on_c, 0, 66, 43
2, 65465, Note_on_c, 0, 66, 0
2, 65466, Note_on_c, 0, 68, 44
2, 65529, Note_on_c, 0, 66, 69
2, 65530, Note_on_c, 0, 68, 0
2, 65549, Note_on_c, 0, 64, 36
2, 65567, Control_c, 0, 64, 63
2, 65601, Note_on_c, 0, 68, 60
2, 65603, Control_c, 0, 64, 127
2, 65614, Note_on_c, 0, 66, 0
2, 65662, Note_on_c, 0, 66, 67
2, 65667, Note_on_c, 0, 68, 0
2, 65705, Note_on_c, 0, 68, 41
2, 65706, Note_on_c, 0, 66, 0
2, 65729, Note_on_c, 0, 85, 86
2, 65760, Note_on_c, 0, 85, 0
2, 65762, Note_on_c, 0, 68, 0
2, 65776, Note_on_c, 0, 66, 40
2, 65824, Note_on_c, 0, 68, 50
2, 65825, Note_on_c, 0, 66, 0
2, 65870, Note_on_c, 0, 64, 0
2, 65897, Note_on_c, 0, 68, 0
2, 65900, Note_on_c, 0, 63, 59
2, 65905, Note_on_c, 0, 66, 62
2, 65928, Control_c, 0, 64, 63
2, 65958, Note_on_c, 0, 68, 67
2, 65965, Control_c, 0, 64, 127
2, 65980, Note_on_c, 0, 66, 0
2, 66030, Note_on_c, 0, 66, 56
2, 66031, Note_on_c, 0, 68, 0
2, 66082, Note_on_c, 0, 80, 76
2, 66086, Note_on_c, 0, 66, 0
2, 66092, Note_on_c, 0, 68, 48
2, 66113, Note_on_c, 0, 80, 0
2, 66147, Note_on_c, 0, 68, 0
2, 66157, Note_on_c, 0, 66, 39
2, 66205, Note_on_c, 0, 68, 43
2, 66207, Note_on_c, 0, 63, 0
2, 66209, Note_on_c, 0, 66, 0
2, 66257, Note_on_c, 0, 68, 0
2, 66258, Note_on_c, 0, 66, 52
2, 66260, Note_on_c, 0, 62, 56
2, 66279, Control_c, 0, 64, 63
2, 66313, Control_c, 0, 64, 127
2, 66315, Note_on_c, 0, 68, 67
2, 66325, Note_on_c, 0, 66, 0
2, 66383, Note_on_c, 0, 68, 0
2, 66386, Note_on_c, 0, 66, 53
2, 66429, Note_on_c, 0, 66, 0
2, 66433, Note_on_c, 0, 68, 54
2, 66438, Note_on_c, 0, 82, 76
2, 66473, Note_on_c, 0, 82, 0
2, 66491, Note_on_c, 0, 68, 0
2, 66503, Note_on_c, 0, 66, 47
2, 66539, Note_on_c, 0, 62, 0
2, 66548, Note_on_c, 0, 66, 0
2, 66549, Note_on_c, 0, 68, 42
2, 66600, Note_on_c, 0, 68, 0
2, 66610, Note_on_c, 0, 66, 39
2, 66612, Note_on_c, 0, 61, 65
2, 66617, Note_on_c, 0, 63, 35
2, 66632, Control_c, 0, 64, 63
2, 66659, Note_on_c, 0, 66, 0
2, 66660, Note_on_c, 0, 68, 60
2, 66667, Control_c, 0, 64, 127
2, 66721, Note_on_c, 0, 68, 0
2, 66725, Note_on_c, 0, 66, 42
2, 66766, Note_on_c, 0, 66, 0
2, 66771, Note_on_c, 0, 68, 50
2, 66793, Note_on_c, 0, 80, 76
2, 66824, Note_on_c, 0, 68, 0
2, 66831, Note_on_c, 0, 66, 46
2, 66832, Note_on_c, 0, 80, 0
2, 66840, Note_on_c, 0, 63, 0
2, 66875, Note_on_c, 0, 66, 0
2, 66876, Note_on_c, 0, 61, 0
2, 66884, Note_on_c, 0, 68, 45
2, 66951, Note_on_c, 0, 63, 61
2, 66956, Note_on_c, 0, 68, 0
2, 66960, Note_on_c, 0, 66, 55
2, 66961, Note_on_c, 0, 60, 62
2, 66978, Control_c, 0, 64, 63
2, 67005, Control_c, 0, 64, 127
2, 67009, Note_on_c, 0, 68, 58
2, 67025, Note_on_c, 0, 66, 0
2, 67078, Note_on_c, 0, 68, 0
2, 67081, Note_on_c, 0, 66, 53
2, 67118, Note_on_c, 0, 63, 0
2, 67126, Note_on_c, 0, 66, 0
2, 67132, Note_on_c, 0, 68, 58
2, 67134, Note_on_c, 0, 78, 81
2, 67168, Note_on_c, 0, 78, 0
2, 67187, Note_on_c, 0, 68, 0
2, 67203, Note_on_c, 0, 66, 50
2, 67216, Note_on_c, 0, 60, 0
2, 67243, Note_on_c, 0, 66, 0
2, 67252, Note_on_c, 0, 68, 45
2, 67301, Note_on_c, 0, 68, 0
2, 67335, Note_on_c, 0, 66, 67
2, 67338, Note_on_c, 0, 59, 50
2, 67345, Note_on_c, 0, 62, 50
2, 67362, Control_c, 0, 64, 63
2, 67374, Control_c, 0, 64, 0
2, 67394, Control_c, 0, 64, 63
2, 67406, Control_c, 0, 64, 127
2, 67429, Note_on_c, 0, 68, 54
2, 67440, Note_on_c, 0, 66, 0
2, 67484, Note_on_c, 0, 68, 0
2, 67491, Note_on_c, 0, 66, 53
2, 67554, Note_on_c, 0, 66, 0
2, 67555, Note_on_c, 0, 77, 55
2, 67559, Note_on_c, 0, 68, 50
2, 67608, Note_on_c, 0, 68, 0
2, 67627, Note_on_c, 0, 66, 45
2, 67630, Note_on_c, 0, 77, 0
2, 67673, Note_on_c, 0, 66, 0
2, 67681, Note_on_c, 0, 68, 44
2, 67728, Note_on_c, 0, 68, 0
2, 67734, Note_on_c, 0, 66, 57
2, 67796, Note_on_c, 0, 66, 0
2, 67799, Note_on_c, 0, 68, 57
2, 67849, Note_on_c, 0, 77, 83
2, 67864, Note_on_c, 0, 68, 0
2, 67877, Note_on_c, 0, 66, 58
2, 67922, Note_on_c, 0, 66, 0
2, 67924, Note_on_c, 0, 77, 0
2, 67925, Note_on_c, 0, 68, 48
2, 67985, Note_on_c, 0, 68, 0
2, 67996, Note_on_c, 0, 66, 55
2, 67997, Note_on_c, 0, 80, 91
2, 68032, Note_on_c, 0, 80, 0
2, 68048, Note_on_c, 0, 66, 0
2, 68049, Note_on_c, 0, 59, 0
2, 68050, Note_on_c, 0, 68, 56
2, 68079, Note_on_c, 0, 62, 0
2, 68114, Note_on_c, 0, 68, 0
2, 68115, Note_on_c, 0, 66, 77
2, 68116, Note_on_c, 0, 63, 65
2, 68119, Note_on_c, 0, 60, 67
2, 68140, Control_c, 0, 64, 63
2, 68146, Control_c, 0, 64, 0
2, 68173, Note_on_c, 0, 68, 71
2, 68178, Control_c, 0, 64, 63
2, 68181, Note_on_c, 0, 66, 0
2, 68186, Control_c, 0, 64, 127
2, 68228, Note_on_c, 0, 68, 0
2, 68230, Note_on_c, 0, 66, 63
2, 68283, Note_on_c, 0, 66, 0
2, 68301, Note_on_c, 0, 68, 44
2, 68317, Note_on_c, 0, 77, 73
2, 68360, Note_on_c, 0, 68, 0
2, 68384, Note_on_c, 0, 66, 46
2, 68386, Note_on_c, 0, 77, 0
2, 68429, Note_on_c, 0, 66, 0
2, 68438, Note_on_c, 0, 68, 47
2, 68488, Note_on_c, 0, 68, 0
2, 68498, Note_on_c, 0, 66, 63
2, 68561, Note_on_c, 0, 66, 0
2, 68564, Note_on_c, 0, 68, 48
2, 68620, Note_on_c, 0, 77, 62
2, 68623, Note_on_c, 0, 68, 0
2, 68639, Note_on_c, 0, 66, 46
2, 68690, Note_on_c, 0, 66, 0
2, 68694, Note_on_c, 0, 68, 25
2, 68701, Note_on_c, 0, 77, 0
2, 68752, Note_on_c, 0, 68, 0
2, 68757, Note_on_c, 0, 80, 80
2, 68765, Note_on_c, 0, 66, 50
2, 68786, Note_on_c, 0, 63, 0
2, 68798, Note_on_c, 0, 80, 0
2, 68815, Note_on_c, 0, 60, 0
2, 68817, Note_on_c, 0, 68, 53
2, 68818, Note_on_c, 0, 66, 0
2, 68871, Note_on_c, 0, 68, 0
2, 68882, Note_on_c, 0, 77, 69
2, 68883, Note_on_c, 0, 66, 46
2, 68887, Note_on_c, 0, 59, 52
2, 68895, Note_on_c, 0, 62, 29
2, 68926, Control_c, 0, 64, 63
2, 68954, Note_on_c, 0, 68, 70
2, 68960, Control_c, 0, 64, 127
2, 68973, Note_on_c, 0, 66, 0
2, 69005, Note_on_c, 0, 68, 0
2, 69007, Note_on_c, 0, 74, 87
2, 69016, Note_on_c, 0, 66, 59
2, 69026, Note_on_c, 0, 77, 0
2, 69056, Note_on_c, 0, 68, 68
2, 69059, Note_on_c, 0, 66, 0
2, 69107, Note_on_c, 0, 68, 0
2, 69112, Note_on_c, 0, 66, 61
2, 69116, Note_on_c, 0, 77, 100
2, 69120, Note_on_c, 0, 74, 0
2, 69154, Note_on_c, 0, 68, 65
2, 69163, Note_on_c, 0, 59, 0
2, 69181, Note_on_c, 0, 66, 0
2, 69222, Note_on_c, 0, 62, 0
2, 69222, Note_on_c, 0, 60, 51
2, 69224, Note_on_c, 0, 66, 80
2, 69228, Note_on_c, 0, 63, 81
2, 69234, Note_on_c, 0, 80, 103
2, 69235, Note_on_c, 0, 68, 0
2, 69263, Control_c, 0, 64, 63
2, 69268, Control_c, 0, 64, 0
2, 69272, Note_on_c, 0, 77, 0
2, 69287, Note_on_c, 0, 68, 81
2, 69290, Control_c, 0, 64, 63
2, 69302, Control_c, 0, 64, 127
2, 69306, Note_on_c, 0, 66, 0
2, 69358, Note_on_c, 0, 84, 94
2, 69368, Note_on_c, 0, 66, 63
2, 69375, Note_on_c, 0, 68, 0
2, 69387, Note_on_c, 0, 80, 0
2, 69411, Note_on_c, 0, 68, 69
2, 69427, Note_on_c, 0, 66, 0
2, 69466, Note_on_c, 0, 68, 0
2, 69479, Note_on_c, 0, 80, 82
2, 69480, Note_on_c, 0, 66, 40
2, 69513, Note_on_c, 0, 60, 0
2, 69515, Note_on_c, 0, 68, 52
2, 69516, Note_on_c, 0, 84, 0
2, 69526, Note_on_c, 0, 63, 0
2, 69539, Note_on_c, 0, 66, 0
2, 69579, Note_on_c, 0, 68, 0
2, 69591, Note_on_c, 0, 77, 80
2, 69596, Note_on_c, 0, 66, 43
2, 69598, Note_on_c, 0, 62, 34
2, 69600, Note_on_c, 0, 59, 48
2, 69608, Note_on_c, 0, 80, 0
2, 69623, Control_c, 0, 64, 63
2, 69654, Note_on_c, 0, 68, 63
2, 69660, Control_c, 0, 64, 127
2, 69676, Note_on_c, 0, 66, 0
2, 69712, Note_on_c, 0, 66, 57
2, 69713, Note_on_c, 0, 74, 88
2, 69716, Note_on_c, 0, 68, 0
2, 69744, Note_on_c, 0, 77, 0
2, 69757, Note_on_c, 0, 68, 67
2, 69772, Note_on_c, 0, 66, 0
2, 69807, Note_on_c, 0, 66, 65
2, 69814, Note_on_c, 0, 68, 0
2, 69821, Note_on_c, 0, 77, 100
2, 69843, Note_on_c, 0, 74, 0
2, 69852, Note_on_c, 0, 68, 74
2, 69871, Note_on_c, 0, 59, 0
2, 69876, Note_on_c, 0, 66, 0
2, 69920, Note_on_c, 0, 62, 0
2, 69932, Note_on_c, 0, 66, 68
2, 69935, Note_on_c, 0, 63, 74
2, 69937, Note_on_c, 0, 80, 96
2, 69941, Note_on_c, 0, 68, 0
2, 69943, Note_on_c, 0, 60, 40
2, 69961, Note_on_c, 0, 77, 0
2, 69967, Control_c, 0, 64, 63
2, 69975, Control_c, 0, 64, 0
2, 69987, Note_on_c, 0, 68, 67
2, 69992, Control_c, 0, 64, 63
2, 70004, Note_on_c, 0, 66, 0
2, 70005, Control_c, 0, 64, 127
2, 70063, Note_on_c, 0, 68, 0
2, 70065, Note_on_c, 0, 84, 73
2, 70067, Note_on_c, 0, 66, 51
2, 70084, Note_on_c, 0, 80, 0
2, 70111, Note_on_c, 0, 68, 51
2, 70115, Note_on_c, 0, 66, 0
2, 70181, Note_on_c, 0, 68, 0
2, 70194, Note_on_c, 0, 66, 37
2, 70197, Note_on_c, 0, 80, 77
2, 70202, Note_on_c, 0, 84, 0
2, 70224, Note_on_c, 0, 80, 0
2, 70226, Note_on_c, 0, 60, 0
2, 70265, Note_on_c, 0, 68, 49
2, 70273, Note_on_c, 0, 63, 0
2, 70277, Note_on_c, 0, 66, 0
2, 70301, Note_on_c, 0, 68, 0
2, 70364, Note_on_c, 0, 59, 63
2, 70437, Control_c, 0, 67, 127
2, 70440, Note_on_c, 0, 59, 0
2, 70440, Note_on_c, 0, 62, 64
2, 70501, Note_on_c, 0, 59, 56
2, 70505, Note_on_c, 0, 62, 0
2, 70553, Note_on_c, 0, 62, 65
2, 70556, Note_on_c, 0, 59, 0
2, 70609, Note_on_c, 0, 62, 0
2, 70615, Note_on_c, 0, 59, 37
2, 70677, Note_on_c, 0, 59, 0
2, 70682, Note_on_c, 0, 62, 40
2, 70755, Note_on_c, 0, 62, 0
2, 70757, Note_on_c, 0, 59, 24
2, 70821, Note_on_c, 0, 62, 50
2, 70827, Note_on_c, 0, 59, 0
2, 70881, Note_on_c, 0, 62, 0
2, 70883, Note_on_c, 0, 59, 48
2, 70944, Note_on_c, 0, 59, 0
2, 70948, Note_on_c, 0, 62, 49
2, 71008, Note_on_c, 0, 59, 43
2, 71010, Note_on_c, 0, 62, 0
2, 71085, Note_on_c, 0, 62, 52
2, 71092, Note_on_c, 0, 59, 0
2, 71151, Note_on_c, 0, 50, 51
2, 71218, Note_on_c, 0, 50, 0
2, 71219, Note_on_c, 0, 53, 15
2, 71223, Note_on_c, 0, 62, 0
2, 71275, Note_on_c, 0, 53, 0
2, 71282, Note_on_c, 0, 50, 34
2, 71343, Note_on_c, 0, 53, 36
2, 71348, Note_on_c, 0, 50, 0
2, 71413, Note_on_c, 0, 53, 0
2, 71414, Note_on_c, 0, 50, 40
2, 71481, Note_on_c, 0, 53, 27
2, 71487, Note_on_c, 0, 50, 0
2, 71552, Note_on_c, 0, 50, 33
2, 71553, Note_on_c, 0, 53, 0
2, 71622, Note_on_c, 0, 53, 20
2, 71633, Note_on_c, 0, 50, 0
2, 71711, Note_on_c, 0, 50, 18
2, 71715, Note_on_c, 0, 53, 0
2, 71783, Note_on_c, 0, 50, 0
2, 71790, Note_on_c, 0, 53, 6
2, 71882, Note_on_c, 0, 53, 0
2, 71895, Note_on_c, 0, 50, 7
2, 72001, Note_on_c, 0, 50, 0
2, 72002, Note_on_c, 0, 53, 16
2, 72049, Note_on_c, 0, 53, 0
2, 72150, Note_on_c, 0, 47, 30
2, 72157, Note_on_c, 0, 43, 18
2, 72157, Note_on_c, 0, 31, 21
2, 72189, Control_c, 0, 64, 63
2, 72207, Control_c, 0, 64, 127
2, 72306, Note_on_c, 0, 55, 28
2, 72371, Note_on_c, 0, 47, 0
2, 72414, Note_on_c, 0, 55, 0
2, 72414, Note_on_c, 0, 59, 40
2, 72449, Note_on_c, 0, 59, 0
2, 72504, Note_on_c, 0, 59, 56
2, 72591, Note_on_c, 0, 67, 49
2, 72647, Note_on_c, 0, 59, 0
2, 72665, Note_on_c, 0, 71, 66
2, 72681, Note_on_c, 0, 67, 0
2, 72734, Note_on_c, 0, 71, 0
2, 72737, Note_on_c, 0, 67, 46
2, 72780, Note_on_c, 0, 67, 0
2, 72796, Note_on_c, 0, 59, 52
2, 72819, Note_on_c, 0, 59, 0
2, 72860, Note_on_c, 0, 59, 65
2, 72915, Note_on_c, 0, 55, 45
2, 72928, Note_on_c, 0, 59, 0
2, 72985, Note_on_c, 0, 47, 73
2, 72992, Note_on_c, 0, 55, 0
2, 73052, Note_on_c, 0, 47, 0
2, 73052, Note_on_c, 0, 55, 60
2, 73107, Note_on_c, 0, 59, 67
2, 73118, Note_on_c, 0, 55, 0
2, 73143, Note_on_c, 0, 59, 0
2, 73171, Note_on_c, 0, 59, 68
2, 73229, Note_on_c, 0, 59, 0
2, 73232, Note_on_c, 0, 67, 75
2, 73292, Note_on_c, 0, 71, 84
2, 73299, Note_on_c, 0, 67, 0
2, 73348, Note_on_c, 0, 67, 65
2, 73354, Note_on_c, 0, 71, 0
2, 73389, Note_on_c, 0, 67, 0
2, 73401, Note_on_c, 0, 59, 66
2, 73425, Note_on_c, 0, 59, 0
2, 73463, Note_on_c, 0, 59, 79
2, 73483, Note_on_c, 0, 43, 0
2, 73484, Note_on_c, 0, 31, 0
2, 73514, Note_on_c, 0, 55, 63
2, 73525, Note_on_c, 0, 59, 0
2, 73589, Note_on_c, 0, 43, 85
2, 73591, Note_on_c, 0, 31, 76
2, 73595, Note_on_c, 0, 55, 0
2, 73595, Note_on_c, 0, 47, 71
2, 73622, Control_c, 0, 64, 63
2, 73630, Control_c, 0, 64, 0
2, 73668, Control_c, 0, 64, 63
2, 73677, Control_c, 0, 64, 127
2, 73678, Note_on_c, 0, 55, 62
2, 73695, Note_on_c, 0, 47, 0
2, 73738, Note_on_c, 0, 59, 68
2, 73749, Note_on_c, 0, 55, 0
2, 73773, Note_on_c, 0, 59, 0
2, 73804, Note_on_c, 0, 59, 64
2, 73862, Note_on_c, 0, 67, 76
2, 73872, Note_on_c, 0, 59, 0
2, 73922, Note_on_c, 0, 71, 83
2, 73930, Note_on_c, 0, 67, 0
2, 73981, Note_on_c, 0, 67, 65
2, 73985, Note_on_c, 0, 71, 0
2, 74020, Note_on_c, 0, 67, 0
2, 74036, Note_on_c, 0, 59, 63
2, 74061, Note_on_c, 0, 59, 0
2, 74070, Note_on_c, 0, 31, 0
2, 74098, Note_on_c, 0, 59, 72
2, 74123, Note_on_c, 0, 43, 0
2, 74153, Note_on_c, 0, 55, 66
2, 74157, Note_on_c, 0, 59, 0
2, 74194, Note_on_c, 0, 55, 0
2, 74216, Note_on_c, 0, 49, 108
2, 74269, Note_on_c, 0, 49, 0
2, 74288, Note_on_c, 0, 49, 88
2, 74349, Note_on_c, 0, 49, 0
2, 74349, Note_on_c, 0, 57, 64
2, 74396, Note_on_c, 0, 61, 87
2, 74405, Note_on_c, 0, 57, 0
2, 74427, Note_on_c, 0, 61, 0
2, 74459, Note_on_c, 0, 61, 78
2, 74525, Note_on_c, 0, 61, 0
2, 74527, Note_on_c, 0, 69, 44
2, 74574, Note_on_c, 0, 73, 91
2, 74586, Note_on_c, 0, 69, 0
2, 74631, Note_on_c, 0, 69, 63
2, 74637, Note_on_c, 0, 73, 0
2, 74667, Note_on_c, 0, 69, 0
2, 74679, Note_on_c, 0, 61, 80
2, 74696, Note_on_c, 0, 61, 0
2, 74732, Note_on_c, 0, 61, 77
2, 74777, Note_on_c, 0, 61, 0
2, 74783, Note_on_c, 0, 57, 73
2, 74845, Note_on_c, 0, 57, 0
2, 74853, Note_on_c, 0, 50, 90
2, 74854, Note_on_c, 0, 43, 108
2, 74855, Note_on_c, 0, 31, 100
2, 74857, Control_c, 0, 64, 63
2, 74861, Control_c, 0, 64, 0
2, 74924, Note_on_c, 0, 59, 75
2, 74929, Control_c, 0, 64, 63
2, 74933, Control_c, 0, 64, 127
2, 74938, Note_on_c, 0, 50, 0
2, 74977, Note_on_c, 0, 62, 83
2, 74987, Note_on_c, 0, 59, 0
2, 75010, Note_on_c, 0, 62, 0
2, 75039, Note_on_c, 0, 62, 75
2, 75092, Note_on_c, 0, 71, 92
2, 75099, Note_on_c, 0, 62, 0
2, 75149, Note_on_c, 0, 74, 96
2, 75157, Note_on_c, 0, 71, 0
2, 75201, Note_on_c, 0, 71, 93
2, 75212, Note_on_c, 0, 74, 0
2, 75237, Note_on_c, 0, 71, 0
2, 75254, Note_on_c, 0, 62, 63
2, 75259, Note_on_c, 0, 31, 0
2, 75276, Note_on_c, 0, 62, 0
2, 75301, Note_on_c, 0, 43, 0
2, 75314, Note_on_c, 0, 62, 79
2, 75364, Note_on_c, 0, 59, 76
2, 75380, Note_on_c, 0, 62, 0
2, 75403, Note_on_c, 0, 59, 0
2, 75417, Note_on_c, 0, 52, 109
2, 75440, Note_on_c, 0, 52, 0
2, 75474, Note_on_c, 0, 52, 68
2, 75524, Note_on_c, 0, 61, 104
2, 75528, Note_on_c, 0, 52, 0
2, 75572, Note_on_c, 0, 64, 91
2, 75577, Note_on_c, 0, 61, 0
2, 75602, Note_on_c, 0, 64, 0
2, 75633, Note_on_c, 0, 64, 67
2, 75669, Note_on_c, 0, 64, 0
2, 75680, Note_on_c, 0, 73, 104
2, 75725, Note_on_c, 0, 76, 104
2, 75731, Note_on_c, 0, 73, 0
2, 75776, Note_on_c, 0, 73, 107
2, 75790, Note_on_c, 0, 76, 0
2, 75816, Note_on_c, 0, 73, 0
2, 75824, Note_on_c, 0, 64, 84
2, 75851, Note_on_c, 0, 64, 0
2, 75889, Note_on_c, 0, 64, 96
2, 75936, Note_on_c, 0, 61, 110
2, 75944, Note_on_c, 0, 64, 0
2, 75970, Note_on_c, 0, 61, 0
2, 75993, Note_on_c, 0, 54, 113
2, 75994, Note_on_c, 0, 43, 109
2, 75997, Note_on_c, 0, 31, 103
2, 76018, Control_c, 0, 64, 63
2, 76022, Control_c, 0, 64, 0
2, 76057, Note_on_c, 0, 62, 85
2, 76065, Control_c, 0, 64, 63
2, 76070, Control_c, 0, 64, 127
2, 76074, Note_on_c, 0, 54, 0
2, 76109, Note_on_c, 0, 66, 92
2, 76118, Note_on_c, 0, 62, 0
2, 76139, Note_on_c, 0, 66, 0
2, 76167, Note_on_c, 0, 66, 91
2, 76224, Note_on_c, 0, 74, 84
2, 76230, Note_on_c, 0, 66, 0
2, 76272, Note_on_c, 0, 78, 100
2, 76287, Note_on_c, 0, 74, 0
2, 76325, Note_on_c, 0, 74, 84
2, 76330, Note_on_c, 0, 78, 0
2, 76359, Note_on_c, 0, 74, 0
2, 76372, Note_on_c, 0, 66, 88
2, 76374, Note_on_c, 0, 31, 0
2, 76396, Note_on_c, 0, 66, 0
2, 76411, Note_on_c, 0, 43, 0
2, 76426, Note_on_c, 0, 66, 90
2, 76483, Note_on_c, 0, 66, 0
2, 76485, Note_on_c, 0, 62, 52
2, 76524, Note_on_c, 0, 62, 0
2, 76529, Note_on_c, 0, 55, 113
2, 76555, Note_on_c, 0, 55, 0
2, 76575, Note_on_c, 0, 55, 85
2, 76629, Note_on_c, 0, 64, 97
2, 76633, Note_on_c, 0, 55, 0
2, 76674, Note_on_c, 0, 67, 91
2, 76684, Note_on_c, 0, 64, 0
2, 76702, Note_on_c, 0, 67, 0
2, 76732, Note_on_c, 0, 67, 68
2, 76778, Note_on_c, 0, 76, 104
2, 76787, Note_on_c, 0, 67, 0
2, 76831, Note_on_c, 0, 79, 108
2, 76842, Note_on_c, 0, 76, 0
2, 76875, Note_on_c, 0, 76, 102
2, 76888, Note_on_c, 0, 79, 0
2, 76909, Note_on_c, 0, 76, 0
2, 76923, Note_on_c, 0, 67, 66
2, 76938, Note_on_c, 0, 67, 0
2, 76970, Note_on_c, 0, 67, 97
2, 77014, Note_on_c, 0, 64, 93
2, 77038, Note_on_c, 0, 67, 0
2, 77058, Note_on_c, 0, 64, 0
2, 77064, Note_on_c, 0, 43, 114
2, 77066, Note_on_c, 0, 57, 100
2, 77067, Note_on_c, 0, 31, 108
2, 77074, Control_c, 0, 64, 63
2, 77078, Control_c, 0, 64, 0
2, 77125, Note_on_c, 0, 66, 105
2, 77140, Note_on_c, 0, 57, 0
2, 77145, Control_c, 0, 64, 63
2, 77147, Control_c, 0, 64, 127
2, 77170, Note_on_c, 0, 69, 93
2, 77181, Note_on_c, 0, 66, 0
2, 77204, Note_on_c, 0, 69, 0
2, 77222, Note_on_c, 0, 69, 88
2, 77271, Note_on_c, 0, 78, 113
2, 77287, Note_on_c, 0, 69, 0
2, 77321, Note_on_c, 0, 81, 109
2, 77331, Note_on_c, 0, 78, 0
2, 77370, Note_on_c, 0, 78, 110
2, 77382, Note_on_c, 0, 81, 0
2, 77407, Note_on_c, 0, 78, 0
2, 77411, Note_on_c, 0, 31, 0
2, 77412, Note_on_c, 0, 69, 82
2, 77439, Note_on_c, 0, 43, 0
2, 77440, Note_on_c, 0, 69, 0
2, 77471, Note_on_c, 0, 69, 86
2, 77517, Note_on_c, 0, 66, 106
2, 77532, Note_on_c, 0, 69, 0
2, 77558, Note_on_c, 0, 66, 0
2, 77560, Note_on_c, 0, 59, 122
2, 77584, Note_on_c, 0, 59, 0
2, 77603, Note_on_c, 0, 59, 85
2, 77657, Note_on_c, 0, 67, 94
2, 77658, Note_on_c, 0, 59, 0
2, 77704, Note_on_c, 0, 71, 89
2, 77714, Note_on_c, 0, 67, 0
2, 77735, Note_on_c, 0, 71, 0
2, 77760, Note_on_c, 0, 71, 90
2, 77805, Note_on_c, 0, 79, 109
2, 77813, Note_on_c, 0, 71, 0
2, 77853, Note_on_c, 0, 83, 108
2, 77865, Note_on_c, 0, 79, 0
2, 77896, Note_on_c, 0, 79, 99
2, 77912, Note_on_c, 0, 83, 0
2, 77931, Note_on_c, 0, 79, 0
2, 77943, Note_on_c, 0, 71, 76
2, 77962, Note_on_c, 0, 71, 0
2, 77994, Note_on_c, 0, 71, 97
2, 78033, Note_on_c, 0, 67, 81
2, 78046, Note_on_c, 0, 71, 0
2, 78060, Note_on_c, 0, 67, 0
2, 78076, Control_c, 0, 64, 63
2, 78081, Note_on_c, 0, 43, 122
2, 78081, Control_c, 0, 64, 0
2, 78083, Note_on_c, 0, 31, 120
2, 78088, Note_on_c, 0, 61, 118
2, 78144, Control_c, 0, 64, 63
2, 78146, Control_c, 0, 64, 127
2, 78148, Note_on_c, 0, 69, 71
2, 78167, Note_on_c, 0, 61, 0
2, 78196, Note_on_c, 0, 73, 96
2, 78206, Note_on_c, 0, 69, 0
2, 78225, Note_on_c, 0, 73, 0
2, 78250, Note_on_c, 0, 73, 103
2, 78305, Note_on_c, 0, 81, 91
2, 78308, Note_on_c, 0, 73, 0
2, 78352, Note_on_c, 0, 85, 101
2, 78374, Note_on_c, 0, 81, 0
2, 78399, Note_on_c, 0, 81, 88
2, 78413, Note_on_c, 0, 85, 0
2, 78428, Note_on_c, 0, 31, 0
2, 78433, Note_on_c, 0, 81, 0
2, 78446, Note_on_c, 0, 73, 86
2, 78460, Note_on_c, 0, 43, 0
2, 78465, Note_on_c, 0, 73, 0
2, 78495, Note_on_c, 0, 73, 83
2, 78538, Note_on_c, 0, 73, 0
2, 78541, Note_on_c, 0, 69, 75
2, 78580, Note_on_c, 0, 69, 0
2, 78589, Note_on_c, 0, 62, 122
2, 78613, Note_on_c, 0, 62, 0
2, 78634, Note_on_c, 0, 62, 91
2, 78677, Note_on_c, 0, 71, 101
2, 78681, Note_on_c, 0, 62, 0
2, 78723, Note_on_c, 0, 74, 100
2, 78732, Note_on_c, 0, 71, 0
2, 78750, Note_on_c, 0, 74, 0
2, 78775, Note_on_c, 0, 74, 98
2, 78821, Note_on_c, 0, 83, 107
2, 78831, Note_on_c, 0, 74, 0
2, 78842, Control_c, 0, 67, 0
2, 78870, Note_on_c, 0, 86, 104
2, 78883, Note_on_c, 0, 83, 0
2, 78913, Note_on_c, 0, 83, 84
2, 78928, Note_on_c, 0, 86, 0
2, 78948, Note_on_c, 0, 83, 0
2, 78960, Note_on_c, 0, 74, 68
2, 78977, Note_on_c, 0, 74, 0
2, 79013, Note_on_c, 0, 74, 74
2, 79051, Note_on_c, 0, 71, 80
2, 79080, Note_on_c, 0, 74, 0
2, 79108, Note_on_c, 0, 71, 0
2, 79115, Note_on_c, 0, 59, 112
2, 79116, Note_on_c, 0, 47, 106
2, 79129, Note_on_c, 0, 64, 68
2, 79134, Control_c, 0, 64, 63
2, 79138, Control_c, 0, 64, 0
2, 79177, Control_c, 0, 64, 63
2, 79182, Control_c, 0, 64, 127
2, 79186, Note_on_c, 0, 73, 94
2, 79193, Note_on_c, 0, 64, 0
2, 79226, Note_on_c, 0, 76, 91
2, 79233, Note_on_c, 0, 73, 0
2, 79255, Note_on_c, 0, 76, 0
2, 79265, Note_on_c, 0, 47, 0
2, 79274, Note_on_c, 0, 76, 92
2, 79280, Note_on_c, 0, 59, 0
2, 79319, Note_on_c, 0, 85, 109
2, 79320, Note_on_c, 0, 76, 0
2, 79374, Note_on_c, 0, 61, 124
2, 79375, Note_on_c, 0, 88, 100
2, 79377, Note_on_c, 0, 49, 115
2, 79391, Note_on_c, 0, 85, 0
2, 79413, Note_on_c, 0, 49, 0
2, 79414, Note_on_c, 0, 61, 0
2, 79425, Note_on_c, 0, 85, 95
2, 79435, Note_on_c, 0, 88, 0
2, 79464, Note_on_c, 0, 85, 0
2, 79470, Note_on_c, 0, 76, 60
2, 79493, Note_on_c, 0, 76, 0
2, 79513, Note_on_c, 0, 62, 116
2, 79516, Note_on_c, 0, 50, 106
2, 79540, Note_on_c, 0, 76, 66
2, 79544, Note_on_c, 0, 50, 0
2, 79549, Note_on_c, 0, 62, 0
2, 79585, Note_on_c, 0, 73, 90
2, 79589, Note_on_c, 0, 76, 0
2, 79626, Note_on_c, 0, 73, 0
2, 79635, Note_on_c, 0, 66, 113
2, 79640, Control_c, 0, 64, 63
2, 79640, Note_on_c, 0, 64, 116
2, 79643, Note_on_c, 0, 52, 109
2, 79649, Control_c, 0, 64, 0
2, 79675, Control_c, 0, 64, 63
2, 79683, Control_c, 0, 64, 127
2, 79695, Note_on_c, 0, 74, 85
2, 79704, Note_on_c, 0, 52, 0
2, 79705, Note_on_c, 0, 66, 0
2, 79722, Note_on_c, 0, 64, 0
2, 79744, Note_on_c, 0, 78, 87
2, 79751, Note_on_c, 0, 74, 0
2, 79765, Note_on_c, 0, 62, 121
2, 79767, Note_on_c, 0, 50, 113
2, 79772, Note_on_c, 0, 78, 0
2, 79796, Note_on_c, 0, 62, 0
2, 79799, Note_on_c, 0, 50, 0
2, 79805, Note_on_c, 0, 78, 88
2, 79851, Note_on_c, 0, 86, 84
2, 79856, Note_on_c, 0, 78, 0
2, 79889, Note_on_c, 0, 49, 114
2, 79890, Note_on_c, 0, 61, 124
2, 79899, Note_on_c, 0, 90, 107
2, 79912, Note_on_c, 0, 49, 0
2, 79914, Note_on_c, 0, 61, 0
2, 79916, Note_on_c, 0, 86, 0
2, 79940, Note_on_c, 0, 86, 82
2, 79961, Note_on_c, 0, 90, 0
2, 79981, Note_on_c, 0, 86, 0
2, 79985, Note_on_c, 0, 78, 89
2, 80007, Note_on_c, 0, 78, 0
2, 80011, Note_on_c, 0, 66, 121
2, 80013, Note_on_c, 0, 54, 114
2, 80035, Note_on_c, 0, 66, 0
2, 80041, Note_on_c, 0, 54, 0
2, 80049, Note_on_c, 0, 78, 93
2, 80089, Note_on_c, 0, 78, 0
2, 80096, Note_on_c, 0, 74, 76
2, 80147, Control_c, 0, 64, 63
2, 80148, Note_on_c, 0, 74, 0
2, 80150, Note_on_c, 0, 59, 121
2, 80150, Note_on_c, 0, 67, 96
2, 80151, Note_on_c, 0, 47, 114
2, 80157, Control_c, 0, 64, 0
2, 80188, Control_c, 0, 64, 63
2, 80196, Control_c, 0, 64, 127
2, 80208, Note_on_c, 0, 76, 99
2, 80226, Note_on_c, 0, 67, 0
2, 80236, Note_on_c, 0, 47, 0
2, 80243, Note_on_c, 0, 59, 0
2, 80256, Note_on_c, 0, 79, 98
2, 80266, Note_on_c, 0, 76, 0
2, 80283, Note_on_c, 0, 79, 0
2, 80304, Note_on_c, 0, 79, 97
2, 80349, Note_on_c, 0, 88, 109
2, 80355, Note_on_c, 0, 79, 0
2, 80395, Note_on_c, 0, 61, 125
2, 80396, Note_on_c, 0, 91, 108
2, 80397, Note_on_c, 0, 49, 119
2, 80408, Note_on_c, 0, 88, 0
2, 80426, Note_on_c, 0, 61, 0
2, 80431, Note_on_c, 0, 49, 0
2, 80442, Note_on_c, 0, 88, 100
2, 80454, Note_on_c, 0, 91, 0
2, 80476, Note_on_c, 0, 88, 0
2, 80488, Note_on_c, 0, 79, 60
2, 80504, Note_on_c, 0, 79, 0
2, 80518, Note_on_c, 0, 62, 120
2, 80520, Note_on_c, 0, 50, 112
2, 80538, Note_on_c, 0, 79, 94
2, 80546, Note_on_c, 0, 50, 0
2, 80547, Note_on_c, 0, 62, 0
2, 80576, Note_on_c, 0, 76, 88
2, 80599, Note_on_c, 0, 79, 0
2, 80617, Note_on_c, 0, 76, 0
2, 80625, Control_c, 0, 64, 63
2, 80629, Note_on_c, 0, 69, 97
2, 80637, Note_on_c, 0, 64, 122
2, 80639, Note_on_c, 0, 52, 117
2, 80659, Control_c, 0, 64, 127
2, 80680, Note_on_c, 0, 78, 107
2, 80682, Note_on_c, 0, 69, 0
2, 80690, Note_on_c, 0, 52, 0
2, 80696, Note_on_c, 0, 64, 0
2, 80724, Note_on_c, 0, 81, 93
2, 80734, Note_on_c, 0, 78, 0
2, 80749, Note_on_c, 0, 62, 120
2, 80750, Note_on_c, 0, 50, 114
2, 80751, Note_on_c, 0, 81, 0
2, 80773, Note_on_c, 0, 81, 84
2, 80776, Note_on_c, 0, 62, 0
2, 80784, Note_on_c, 0, 50, 0
2, 80811, Note_on_c, 0, 90, 109
2, 80812, Note_on_c, 0, 81, 0
2, 80863, Note_on_c, 0, 49, 116
2, 80863, Note_on_c, 0, 61, 124
2, 80864, Note_on_c, 0, 93, 100
2, 80874, Note_on_c, 0, 90, 0
2, 80888, Note_on_c, 0, 49, 0
2, 80889, Note_on_c, 0, 61, 0
2, 80906, Note_on_c, 0, 90, 95
2, 80919, Note_on_c, 0, 93, 0
2, 80940, Note_on_c, 0, 90, 0
2, 80943, Note_on_c, 0, 81, 70
2, 80962, Note_on_c, 0, 81, 0
2, 80984, Note_on_c, 0, 66, 123
2, 80984, Note_on_c, 0, 54, 99
2, 80995, Note_on_c, 0, 54, 0
2, 81004, Note_on_c, 0, 81, 61
2, 81010, Note_on_c, 0, 66, 0
2, 81037, Note_on_c, 0, 78, 98
2, 81048, Note_on_c, 0, 81, 0
2, 81076, Note_on_c, 0, 78, 0
2, 81076, Note_on_c, 0, 72, 74
2, 81076, Note_on_c, 0, 71, 63
2, 81092, Note_on_c, 0, 71, 0
2, 81100, Note_on_c, 0, 72, 0
2, 81140, Control_c, 0, 64, 63
2, 81145, Control_c, 0, 64, 0
2, 81159, Note_on_c, 0, 65, 104
2, 81160, Note_on_c, 0, 71, 111
2, 81161, Note_on_c, 0, 73, 124
2, 81162, Note_on_c, 0, 67, 91
2, 81170, Note_on_c, 0, 68, 103
2, 81187, Note_on_c, 0, 93, 75
2, 81187, Control_c, 0, 64, 63
2, 81188, Note_on_c, 0, 95, 84
2, 81192, Control_c, 0, 64, 127
2, 81202, Note_on_c, 0, 92, 83
2, 81211, Note_on_c, 0, 67, 0
2, 81226, Note_on_c, 0, 95, 0
2, 81228, Note_on_c, 0, 93, 0
2, 81233, Note_on_c, 0, 89, 85
2, 81251, Note_on_c, 0, 92, 0
2, 81253, Control_c, 0, 64, 63
2, 81258, Control_c, 0, 64, 0
2, 81261, Note_on_c, 0, 86, 71
2, 81263, Note_on_c, 0, 67, 5
2, 81273, Note_on_c, 0, 89, 0
2, 81287, Note_on_c, 0, 95, 106
2, 81296, Note_on_c, 0, 86, 0
2, 81316, Note_on_c, 0, 92, 92
2, 81344, Note_on_c, 0, 89, 84
2, 81346, Note_on_c, 0, 95, 0
2, 81368, Note_on_c, 0, 92, 0
2, 81370, Note_on_c, 0, 86, 77
2, 81387, Note_on_c, 0, 89, 0
2, 81397, Note_on_c, 0, 95, 106
2, 81412, Note_on_c, 0, 86, 0
2, 81424, Note_on_c, 0, 92, 94
2, 81449, Note_on_c, 0, 89, 90
2, 81455, Note_on_c, 0, 95, 0
2, 81476, Note_on_c, 0, 86, 80
2, 81477, Note_on_c, 0, 92, 0
2, 81496, Note_on_c, 0, 89, 0
2, 81506, Note_on_c, 0, 95, 96
2, 81522, Note_on_c, 0, 86, 0
2, 81535, Note_on_c, 0, 92, 96
2, 81561, Note_on_c, 0, 89, 92
2, 81563, Note_on_c, 0, 95, 0
2, 81587, Note_on_c, 0, 92, 0
2, 81589, Note_on_c, 0, 86, 82
2, 81607, Note_on_c, 0, 89, 0
2, 81620, Note_on_c, 0, 95, 111
2, 81636, Note_on_c, 0, 86, 0
2, 81649, Note_on_c, 0, 92, 103
2, 81674, Note_on_c, 0, 89, 86
2, 81678, Note_on_c, 0, 95, 0
2, 81696, Note_on_c, 0, 86, 72
2, 81699, Note_on_c, 0, 92, 0
2, 81719, Note_on_c, 0, 89, 0
2, 81728, Note_on_c, 0, 95, 107
2, 81745, Note_on_c, 0, 86, 0
2, 81756, Note_on_c, 0, 92, 94
2, 81780, Note_on_c, 0, 89, 90
2, 81787, Note_on_c, 0, 95, 0
2, 81809, Note_on_c, 0, 92, 0
2, 81809, Note_on_c, 0, 86, 68
2, 81829, Note_on_c, 0, 89, 0
2, 81840, Note_on_c, 0, 95, 103
2, 81855, Note_on_c, 0, 86, 0
2, 81867, Note_on_c, 0, 92, 97
2, 81892, Note_on_c, 0, 89, 86
2, 81902, Note_on_c, 0, 95, 0
2, 81922, Note_on_c, 0, 86, 74
2, 81926, Note_on_c, 0, 92, 0
2, 81944, Note_on_c, 0, 89, 0
2, 81949, Note_on_c, 0, 95, 99
2, 81968, Note_on_c, 0, 86, 0
2, 81975, Note_on_c, 0, 92, 96
2, 82001, Note_on_c, 0, 89, 82
2, 82017, Note_on_c, 0, 95, 0
2, 82030, Note_on_c, 0, 86, 77
2, 82039, Note_on_c, 0, 92, 0
2, 82060, Note_on_c, 0, 89, 0
2, 82081, Note_on_c, 0, 86, 0
2, 82083, Note_on_c, 0, 95, 116
2, 82088, Note_on_c, 0, 65, 0
2, 82092, Control_c, 0, 64, 63
2, 82092, Control_c, 0, 64, 127
2, 82101, Note_on_c, 0, 71, 0
2, 82102, Note_on_c, 0, 67, 0
2, 82103, Note_on_c, 0, 68, 0
2, 82106, Note_on_c, 0, 73, 0
2, 82135, Note_on_c, 0, 92, 98
2, 82171, Note_on_c, 0, 89, 85
2, 82176, Note_on_c, 0, 95, 0
2, 82199, Note_on_c, 0, 86, 93
2, 82209, Note_on_c, 0, 92, 0
2, 82220, Note_on_c, 0, 89, 0
2, 82230, Note_on_c, 0, 86, 0
2, 82245, Note_on_c, 0, 84, 109
2, 82286, Note_on_c, 0, 80, 100
2, 82304, Note_on_c, 0, 84, 0
2, 82324, Note_on_c, 0, 77, 87
2, 82328, Note_on_c, 0, 80, 0
2, 82363, Note_on_c, 0, 74, 102
2, 82373, Note_on_c, 0, 77, 0
2, 82382, Note_on_c, 0, 87, 110
2, 82394, Note_on_c, 0, 74, 0
2, 82409, Note_on_c, 0, 83, 72
2, 82444, Note_on_c, 0, 80, 100
2, 82454, Note_on_c, 0, 87, 0
2, 82470, Note_on_c, 0, 83, 0
2, 82471, Note_on_c, 0, 77, 79
2, 82485, Note_on_c, 0, 80, 0
2, 82499, Note_on_c, 0, 77, 0
2, 82509, Note_on_c, 0, 79, 97
2, 82541, Note_on_c, 0, 77, 86
2, 82559, Note_on_c, 0, 79, 0
2, 82564, Note_on_c, 0, 82, 37
2, 82581, Note_on_c, 0, 74, 90
2, 82584, Note_on_c, 0, 82, 0
2, 82600, Note_on_c, 0, 77, 0
2, 82611, Note_on_c, 0, 71, 104
2, 82627, Note_on_c, 0, 74, 0
2, 82636, Note_on_c, 0, 83, 104
2, 82638, Note_on_c, 0, 71, 0
2, 82664, Note_on_c, 0, 80, 91
2, 82688, Note_on_c, 0, 77, 88
2, 82701, Note_on_c, 0, 83, 0
2, 82719, Note_on_c, 0, 74, 90
2, 82727, Note_on_c, 0, 80, 0
2, 82735, Note_on_c, 0, 77, 0
2, 82748, Note_on_c, 0, 74, 0
2, 82756, Note_on_c, 0, 72, 108
2, 82774, Note_on_c, 0, 68, 98
2, 82804, Note_on_c, 0, 72, 0
2, 82819, Note_on_c, 0, 65, 97
2, 82826, Note_on_c, 0, 68, 0
2, 82853, Note_on_c, 0, 62, 97
2, 82865, Note_on_c, 0, 65, 0
2, 82867, Note_on_c, 0, 75, 103
2, 82882, Note_on_c, 0, 62, 0
2, 82897, Note_on_c, 0, 71, 77
2, 82925, Note_on_c, 0, 68, 98
2, 82934, Note_on_c, 0, 75, 0
2, 82952, Note_on_c, 0, 65, 78
2, 82954, Note_on_c, 0, 71, 0
2, 82966, Note_on_c, 0, 68, 0
2, 82979, Note_on_c, 0, 65, 0
2, 82991, Note_on_c, 0, 67, 102
2, 83016, Note_on_c, 0, 65, 89
2, 83031, Note_on_c, 0, 67, 0
2, 83054, Note_on_c, 0, 62, 93
2, 83068, Note_on_c, 0, 65, 0
2, 83079, Note_on_c, 0, 59, 104
2, 83094, Note_on_c, 0, 62, 0
2, 83107, Note_on_c, 0, 59, 0
2, 83115, Note_on_c, 0, 71, 111
2, 83141, Note_on_c, 0, 68, 93
2, 83171, Note_on_c, 0, 65, 77
2, 83174, Note_on_c, 0, 71, 0
2, 83195, Note_on_c, 0, 68, 0
2, 83195, Note_on_c, 0, 62, 83
2, 83205, Note_on_c, 0, 65, 0
2, 83221, Note_on_c, 0, 62, 0
2, 83232, Note_on_c, 0, 60, 108
2, 83250, Note_on_c, 0, 56, 105
2, 83271, Note_on_c, 0, 60, 0
2, 83290, Note_on_c, 0, 56, 0
2, 83293, Note_on_c, 0, 53, 98
2, 83295, Note_on_c, 0, 57, 30
2, 83309, Note_on_c, 0, 57, 0
2, 83318, Note_on_c, 0, 50, 103
2, 83337, Note_on_c, 0, 53, 0
2, 83342, Note_on_c, 0, 63, 101
2, 83349, Note_on_c, 0, 50, 0
2, 83370, Note_on_c, 0, 59, 75
2, 83395, Note_on_c, 0, 56, 93
2, 83414, Note_on_c, 0, 63, 0
2, 83430, Note_on_c, 0, 59, 0
2, 83430, Note_on_c, 0, 53, 74
2, 83441, Note_on_c, 0, 56, 0
2, 83456, Note_on_c, 0, 53, 0
2, 83463, Note_on_c, 0, 55, 103
2, 83488, Note_on_c, 0, 53, 93
2, 83506, Note_on_c, 0, 55, 0
2, 83525, Note_on_c, 0, 50, 102
2, 83543, Note_on_c, 0, 53, 0
2, 83551, Note_on_c, 0, 47, 104
2, 83568, Note_on_c, 0, 50, 0
2, 83578, Note_on_c, 0, 47, 0
2, 83589, Note_on_c, 0, 59, 116
2, 83613, Note_on_c, 0, 56, 93
2, 83644, Note_on_c, 0, 53, 87
2, 83650, Note_on_c, 0, 59, 0
2, 83671, Note_on_c, 0, 56, 0
2, 83671, Note_on_c, 0, 50, 88
2, 83683, Note_on_c, 0, 53, 0
2, 83696, Note_on_c, 0, 50, 0
2, 83708, Note_on_c, 0, 48, 111
2, 83725, Note_on_c, 0, 44, 108
2, 83756, Note_on_c, 0, 48, 0
2, 83769, Note_on_c, 0, 41, 100
2, 83775, Note_on_c, 0, 44, 0
2, 83800, Note_on_c, 0, 38, 104
2, 83811, Control_c, 0, 64, 63
2, 83818, Control_c, 0, 64, 0
2, 83826, Note_on_c, 0, 41, 0
2, 83830, Note_on_c, 0, 51, 109
2, 83841, Control_c, 0, 64, 63
2, 83845, Control_c, 0, 64, 127
2, 83853, Note_on_c, 0, 38, 0
2, 83865, Note_on_c, 0, 47, 62
2, 83895, Note_on_c, 0, 44, 100
2, 83907, Note_on_c, 0, 51, 0
2, 83922, Note_on_c, 0, 41, 101
2, 83934, Note_on_c, 0, 47, 0
2, 83945, Note_on_c, 0, 44, 0
2, 83952, Note_on_c, 0, 41, 0
2, 83973, Note_on_c, 0, 43, 114
2, 84020, Note_on_c, 0, 41, 91
2, 84021, Note_on_c, 0, 40, 90
2, 84030, Note_on_c, 0, 43, 0
2, 84075, Note_on_c, 0, 38, 111
2, 84083, Note_on_c, 0, 40, 0
2, 84084, Note_on_c, 0, 41, 0
2, 84124, Note_on_c, 0, 35, 121
2, 84143, Note_on_c, 0, 38, 0
2, 84170, Note_on_c, 0, 35, 0
2, 84205, Note_on_c, 0, 35, 126
2, 84253, Control_c, 0, 64, 63
2, 84258, Control_c, 0, 64, 0
2, 84278, Control_c, 0, 64, 63
2, 84286, Control_c, 0, 64, 127
2, 84318, Note_on_c, 0, 37, 106
2, 84335, Note_on_c, 0, 35, 0
2, 84382, Note_on_c, 0, 35, 106
2, 84398, Note_on_c, 0, 37, 0
2, 84436, Note_on_c, 0, 37, 106
2, 84448, Note_on_c, 0, 35, 0
2, 84480, Note_on_c, 0, 35, 96
2, 84486, Note_on_c, 0, 37, 0
2, 84517, Note_on_c, 0, 37, 96
2, 84528, Note_on_c, 0, 35, 0
2, 84552, Note_on_c, 0, 35, 84
2, 84556, Note_on_c, 0, 37, 0
2, 84585, Note_on_c, 0, 37, 100
2, 84588, Note_on_c, 0, 35, 0
2, 84615, Note_on_c, 0, 35, 86
2, 84616, Note_on_c, 0, 37, 0
2, 84642, Note_on_c, 0, 37, 90
2, 84650, Note_on_c, 0, 35, 0
2, 84670, Note_on_c, 0, 35, 89
2, 84671, Note_on_c, 0, 37, 0
2, 84699, Note_on_c, 0, 37, 92
2, 84703, Note_on_c, 0, 35, 0
2, 84725, Note_on_c, 0, 37, 0
2, 84729, Note_on_c, 0, 35, 82
2, 84758, Note_on_c, 0, 37, 89
2, 84764, Note_on_c, 0, 35, 0
2, 84783, Note_on_c, 0, 37, 0
2, 84789, Note_on_c, 0, 35, 67
2, 84815, Note_on_c, 0, 37, 85
2, 84820, Note_on_c, 0, 35, 0
2, 84822, Control_c, 0, 67, 127
2, 84841, Note_on_c, 0, 37, 0
2, 84845, Note_on_c, 0, 35, 68
2, 84873, Note_on_c, 0, 37, 85
2, 84881, Note_on_c, 0, 35, 0
2, 84900, Control_c, 0, 67, 0
2, 84904, Note_on_c, 0, 37, 0
2, 84907, Note_on_c, 0, 35, 59
2, 84931, Note_on_c, 0, 37, 72
2, 84939, Note_on_c, 0, 35, 0
2, 84964, Note_on_c, 0, 37, 0
2, 84965, Note_on_c, 0, 35, 64
2, 84993, Note_on_c, 0, 37, 76
2, 85001, Note_on_c, 0, 35, 0
2, 85025, Note_on_c, 0, 37, 0
2, 85029, Note_on_c, 0, 35, 57
2, 85053, Note_on_c, 0, 37, 72
2, 85062, Note_on_c, 0, 35, 0
2, 85085, Note_on_c, 0, 37, 0
2, 85090, Note_on_c, 0, 35, 55
2, 85116, Note_on_c, 0, 37, 74
2, 85124, Note_on_c, 0, 35, 0
2, 85147, Note_on_c, 0, 37, 0
2, 85151, Note_on_c, 0, 35, 44
2, 85175, Note_on_c, 0, 37, 67
2, 85185, Note_on_c, 0, 35, 0
2, 85209, Note_on_c, 0, 37, 0
2, 85214, Note_on_c, 0, 35, 44
2, 85236, Note_on_c, 0, 37, 68
2, 85246, Note_on_c, 0, 35, 0
2, 85269, Note_on_c, 0, 37, 0
2, 85271, Note_on_c, 0, 35, 43
2, 85299, Note_on_c, 0, 37, 65
2, 85306, Control_c, 0, 67, 127
2, 85307, Note_on_c, 0, 35, 0
2, 85329, Note_on_c, 0, 35, 58
2, 85330, Note_on_c, 0, 37, 0
2, 85359, Note_on_c, 0, 37, 63
2, 85370, Note_on_c, 0, 35, 0
2, 85386, Note_on_c, 0, 35, 34
2, 85393, Note_on_c, 0, 37, 0
2, 85420, Note_on_c, 0, 37, 58
2, 85425, Note_on_c, 0, 35, 0
2, 85445, Note_on_c, 0, 35, 36
2, 85447, Note_on_c, 0, 37, 0
2, 85477, Note_on_c, 0, 37, 61
2, 85481, Note_on_c, 0, 35, 0
2, 85500, Note_on_c, 0, 37, 0
2, 85504, Note_on_c, 0, 35, 41
2, 85532, Note_on_c, 0, 37, 53
2, 85544, Note_on_c, 0, 35, 0
2, 85560, Note_on_c, 0, 35, 22
2, 85561, Note_on_c, 0, 37, 0
2, 85590, Note_on_c, 0, 37, 70
2, 85592, Note_on_c, 0, 35, 0
2, 85614, Note_on_c, 0, 37, 0
2, 85619, Note_on_c, 0, 35, 47
2, 85649, Note_on_c, 0, 37, 58
2, 85656, Note_on_c, 0, 35, 0
2, 85677, Note_on_c, 0, 35, 35
2, 85679, Note_on_c, 0, 37, 0
2, 85711, Note_on_c, 0, 37, 58
2, 85713, Note_on_c, 0, 35, 0
2, 85738, Note_on_c, 0, 37, 0
2, 85739, Note_on_c, 0, 35, 29
2, 85772, Note_on_c, 0, 37, 53
2, 85776, Note_on_c, 0, 35, 0
2, 85805, Note_on_c, 0, 35, 28
2, 85806, Note_on_c, 0, 37, 0
2, 85836, Note_on_c, 0, 37, 59
2, 85839, Note_on_c, 0, 35, 0
2, 85868, Note_on_c, 0, 37, 0
2, 85868, Note_on_c, 0, 35, 40
2, 85900, Note_on_c, 0, 37, 53
2, 85949, Note_on_c, 0, 37, 0
2, 85989, Note_on_c, 0, 37, 16
2, 86031, Note_on_c, 0, 33, 71
2, 86033, Control_c, 0, 64, 63
2, 86036, Note_on_c, 0, 37, 0
2, 86048, Control_c, 0, 64, 127
2, 86054, Note_on_c, 0, 35, 0
2, 86138, Note_on_c, 0, 35, 59
2, 86161, Note_on_c, 0, 33, 0
2, 86186, Note_on_c, 0, 35, 0
2, 86196, Note_on_c, 0, 33, 43
2, 86219, Note_on_c, 0, 35, 52
2, 86229, Note_on_c, 0, 33, 0
2, 86258, Note_on_c, 0, 35, 0
2, 86258, Note_on_c, 0, 33, 66
2, 86283, Note_on_c, 0, 35, 68
2, 86293, Note_on_c, 0, 33, 0
2, 86314, Note_on_c, 0, 33, 51
2, 86318, Note_on_c, 0, 35, 0
2, 86342, Note_on_c, 0, 35, 77
2, 86354, Note_on_c, 0, 33, 0
2, 86373, Note_on_c, 0, 33, 45
2, 86377, Note_on_c, 0, 35, 0
2, 86397, Note_on_c, 0, 35, 70
2, 86413, Note_on_c, 0, 33, 0
2, 86436, Note_on_c, 0, 35, 0
2, 86438, Note_on_c, 0, 33, 50
2, 86464, Note_on_c, 0, 35, 62
2, 86479, Note_on_c, 0, 33, 0
2, 86482, Note_on_c, 0, 49, 110
2, 86486, Note_on_c, 0, 47, 88
2, 86501, Note_on_c, 0, 47, 0
2, 86503, Note_on_c, 0, 35, 0
2, 86508, Note_on_c, 0, 33, 51
2, 86513, Note_on_c, 0, 49, 0
2, 86534, Note_on_c, 0, 35, 57
2, 86547, Note_on_c, 0, 33, 0
2, 86571, Note_on_c, 0, 33, 77
2, 86575, Note_on_c, 0, 35, 0
2, 86596, Note_on_c, 0, 35, 90
2, 86615, Note_on_c, 0, 33, 0
2, 86632, Note_on_c, 0, 33, 84
2, 86656, Control_c, 0, 64, 63
2, 86679, Note_on_c, 0, 33, 0
2, 86694, Note_on_c, 0, 61, 97
2, 86698, Note_on_c, 0, 33, 59
2, 86699, Note_on_c, 0, 59, 71
2, 86704, Note_on_c, 0, 35, 0
2, 86724, Control_c, 0, 64, 127
2, 86738, Note_on_c, 0, 35, 61
2, 86743, Note_on_c, 0, 59, 0
2, 86753, Note_on_c, 0, 33, 0
2, 86791, Note_on_c, 0, 33, 65
2, 86792, Note_on_c, 0, 35, 0
2, 86797, Note_on_c, 0, 61, 0
2, 86825, Note_on_c, 0, 35, 56
2, 86834, Note_on_c, 0, 33, 0
2, 86869, Note_on_c, 0, 35, 0
2, 86870, Note_on_c, 0, 33, 42
2, 86899, Note_on_c, 0, 35, 61
2, 86912, Note_on_c, 0, 33, 0
2, 86944, Note_on_c, 0, 33, 48
2, 86949, Note_on_c, 0, 35, 0
2, 87006, Note_on_c, 0, 31, 65
2, 87009, Note_on_c, 0, 33, 0
2, 87019, Control_c, 0, 64, 63
2, 87035, Control_c, 0, 64, 0
2, 87048, Note_on_c, 0, 33, 58
2, 87052, Control_c, 0, 64, 63
2, 87067, Control_c, 0, 64, 127
2, 87077, Note_on_c, 0, 31, 0
2, 87104, Note_on_c, 0, 33, 0
2, 87106, Note_on_c, 0, 31, 43
2, 87134, Note_on_c, 0, 33, 67
2, 87141, Note_on_c, 0, 31, 0
2, 87180, Note_on_c, 0, 33, 0
2, 87182, Note_on_c, 0, 31, 44
2, 87216, Note_on_c, 0, 33, 36
2, 87232, Note_on_c, 0, 31, 0
2, 87251, Note_on_c, 0, 33, 0
2, 87254, Note_on_c, 0, 31, 16
2, 87286, Note_on_c, 0, 33, 42
2, 87304, Note_on_c, 0, 31, 0
2, 87328, Note_on_c, 0, 33, 0
2, 87328, Note_on_c, 0, 31, 18
2, 87360, Note_on_c, 0, 33, 54
2, 87371, Note_on_c, 0, 31, 0
2, 87394, Note_on_c, 0, 33, 0
2, 87402, Note_on_c, 0, 31, 49
2, 87429, Note_on_c, 0, 33, 44
2, 87443, Note_on_c, 0, 31, 0
2, 87463, Note_on_c, 0, 33, 0
2, 87466, Note_on_c, 0, 31, 28
2, 87495, Note_on_c, 0, 33, 45
2, 87507, Note_on_c, 0, 31, 0
2, 87527, Note_on_c, 0, 33, 0
2, 87536, Note_on_c, 0, 31, 25
2, 87565, Note_on_c, 0, 33, 34
2, 87571, Note_on_c, 0, 31, 0
2, 87599, Note_on_c, 0, 33, 0
2, 87609, Note_on_c, 0, 31, 26
2, 87642, Note_on_c, 0, 33, 35
2, 87651, Note_on_c, 0, 31, 0
2, 87676, Note_on_c, 0, 33, 0
2, 87685, Note_on_c, 0, 31, 35
2, 87717, Note_on_c, 0, 33, 31
2, 87729, Note_on_c, 0, 31, 0
2, 87750, Note_on_c, 0, 33, 0
2, 87760, Note_on_c, 0, 31, 21
2, 87797, Note_on_c, 0, 33, 35
2, 87801, Note_on_c, 0, 31, 0
2, 87829, Note_on_c, 0, 33, 0
2, 87846, Note_on_c, 0, 31, 24
2, 87879, Note_on_c, 0, 33, 17
2, 87892, Note_on_c, 0, 31, 0
2, 87918, Note_on_c, 0, 33, 0
2, 87918, Note_on_c, 0, 31, 26
2, 87961, Note_on_c, 0, 33, 28
2, 87964, Note_on_c, 0, 31, 0
2, 87998, Note_on_c, 0, 33, 0
2, 88000, Note_on_c, 0, 31, 12
2, 88042, Note_on_c, 0, 33, 51
2, 88048, Note_on_c, 0, 31, 0
2, 88081, Note_on_c, 0, 33, 0
2, 88098, Note_on_c, 0, 31, 16
2, 88163, Note_on_c, 0, 31, 0
2, 88235, Note_on_c, 0, 30, 120
2, 88277, Control_c, 0, 64, 63
2, 88282, Control_c, 0, 64, 0
2, 88294, Control_c, 0, 67, 0
2, 88329, Control_c, 0, 64, 63
2, 88334, Control_c, 0, 64, 127
2, 88355, Note_on_c, 0, 42, 123
2, 88376, Note_on_c, 0, 30, 0
2, 88387, Note_on_c, 0, 42, 0
2, 88409, Note_on_c, 0, 47, 90
2, 88448, Note_on_c, 0, 51, 106
2, 88459, Note_on_c, 0, 54, 96
2, 88468, Note_on_c, 0, 47, 0
2, 88486, Note_on_c, 0, 56, 94
2, 88507, Note_on_c, 0, 51, 0
2, 88509, Note_on_c, 0, 59, 87
2, 88526, Note_on_c, 0, 54, 0
2, 88526, Note_on_c, 0, 63, 126
2, 88532, Note_on_c, 0, 56, 0
2, 88558, Note_on_c, 0, 59, 0
2, 88591, Note_on_c, 0, 66, 100
2, 88612, Note_on_c, 0, 63, 0
2, 88649, Note_on_c, 0, 68, 67
2, 88658, Note_on_c, 0, 66, 0
2, 88680, Note_on_c, 0, 68, 0
2, 88689, Note_on_c, 0, 66, 63
2, 88711, Note_on_c, 0, 66, 0
2, 88717, Note_on_c, 0, 68, 76
2, 88746, Note_on_c, 0, 66, 93
2, 88749, Note_on_c, 0, 68, 0
2, 88773, Note_on_c, 0, 68, 72
2, 88776, Note_on_c, 0, 66, 0
2, 88798, Note_on_c, 0, 66, 88
2, 88808, Note_on_c, 0, 68, 0
2, 88825, Note_on_c, 0, 68, 87
2, 88830, Note_on_c, 0, 66, 0
2, 88848, Note_on_c, 0, 66, 100
2, 88855, Note_on_c, 0, 68, 0
2, 88880, Note_on_c, 0, 68, 99
2, 88881, Note_on_c, 0, 66, 0
2, 88901, Note_on_c, 0, 66, 86
2, 88907, Note_on_c, 0, 68, 0
2, 88929, Note_on_c, 0, 66, 0
2, 88929, Note_on_c, 0, 68, 74
2, 88955, Note_on_c, 0, 66, 72
2, 88958, Note_on_c, 0, 68, 0
2, 88982, Note_on_c, 0, 66, 0
2, 88983, Note_on_c, 0, 68, 75
2, 89011, Note_on_c, 0, 66, 81
2, 89015, Note_on_c, 0, 68, 0
2, 89045, Note_on_c, 0, 66, 0
2, 89046, Note_on_c, 0, 68, 80
2, 89070, Note_on_c, 0, 66, 73
2, 89078, Note_on_c, 0, 68, 0
2, 89097, Note_on_c, 0, 66, 0
2, 89103, Note_on_c, 0, 68, 70
2, 89127, Note_on_c, 0, 66, 70
2, 89131, Note_on_c, 0, 68, 0
2, 89155, Note_on_c, 0, 66, 0
2, 89158, Note_on_c, 0, 68, 67
2, 89185, Note_on_c, 0, 66, 76
2, 89189, Note_on_c, 0, 68, 0
2, 89218, Note_on_c, 0, 66, 0
2, 89218, Note_on_c, 0, 68, 59
2, 89248, Note_on_c, 0, 66, 61
2, 89250, Note_on_c, 0, 68, 0
2, 89271, Note_on_c, 0, 66, 0
2, 89278, Note_on_c, 0, 68, 55
2, 89292, Control_c, 0, 67, 127
2, 89306, Note_on_c, 0, 66, 71
2, 89309, Note_on_c, 0, 68, 0
2, 89337, Note_on_c, 0, 68, 55
2, 89338, Note_on_c, 0, 66, 0
2, 89368, Note_on_c, 0, 68, 0
2, 89369, Note_on_c, 0, 66, 61
2, 89393, Note_on_c, 0, 66, 0
2, 89398, Note_on_c, 0, 68, 51
2, 89426, Note_on_c, 0, 66, 63
2, 89428, Note_on_c, 0, 68, 0
2, 89452, Note_on_c, 0, 66, 0
2, 89457, Note_on_c, 0, 68, 48
2, 89486, Note_on_c, 0, 66, 63
2, 89488, Note_on_c, 0, 68, 0
2, 89512, Note_on_c, 0, 66, 0
2, 89518, Note_on_c, 0, 68, 55
2, 89547, Note_on_c, 0, 68, 0
2, 89547, Note_on_c, 0, 66, 57
2, 89572, Note_on_c, 0, 66, 0
2, 89575, Note_on_c, 0, 68, 50
2, 89603, Note_on_c, 0, 68, 0
2, 89608, Note_on_c, 0, 66, 51
2, 89634, Note_on_c, 0, 68, 51
2, 89637, Note_on_c, 0, 66, 0
2, 89667, Note_on_c, 0, 68, 0
2, 89670, Note_on_c, 0, 66, 46
2, 89696, Note_on_c, 0, 68, 44
2, 89698, Note_on_c, 0, 66, 0
2, 89725, Note_on_c, 0, 68, 0
2, 89728, Note_on_c, 0, 66, 43
2, 89754, Note_on_c, 0, 68, 54
2, 89760, Note_on_c, 0, 66, 0
2, 89786, Note_on_c, 0, 68, 0
2, 89791, Note_on_c, 0, 66, 74
2, 89819, Note_on_c, 0, 66, 0
2, 89820, Note_on_c, 0, 68, 66
2, 89849, Note_on_c, 0, 68, 0
2, 89849, Note_on_c, 0, 66, 80
2, 89875, Note_on_c, 0, 66, 0
2, 89881, Note_on_c, 0, 68, 63
2, 89911, Note_on_c, 0, 68, 0
2, 89911, Note_on_c, 0, 66, 63
2, 89937, Note_on_c, 0, 66, 0
2, 89943, Note_on_c, 0, 68, 47
2, 89973, Note_on_c, 0, 68, 0
2, 89975, Note_on_c, 0, 66, 67
2, 89999, Note_on_c, 0, 66, 0
2, 90009, Note_on_c, 0, 68, 51
2, 90045, Note_on_c, 0, 68, 0
2, 90047, Note_on_c, 0, 66, 67
2, 90069, Note_on_c, 0, 71, 83
2, 90080, Note_on_c, 0, 68, 58
2, 90081, Note_on_c, 0, 66, 0
2, 90095, Note_on_c, 0, 71, 0
2, 90118, Note_on_c, 0, 75, 93
2, 90121, Note_on_c, 0, 68, 0
2, 90126, Note_on_c, 0, 66, 70
2, 90140, Note_on_c, 0, 75, 0
2, 90155, Note_on_c, 0, 66, 0
2, 90157, Note_on_c, 0, 68, 63
2, 90169, Note_on_c, 0, 76, 78
2, 90192, Note_on_c, 0, 76, 0
2, 90227, Control_c, 0, 64, 63
2, 90229, Note_on_c, 0, 66, 76
2, 90236, Note_on_c, 0, 68, 0
2, 90238, Note_on_c, 0, 90, 96
2, 90239, Note_on_c, 0, 78, 81
2, 90250, Control_c, 0, 64, 127
2, 90264, Note_on_c, 0, 78, 0
2, 90269, Note_on_c, 0, 68, 47
2, 90273, Note_on_c, 0, 90, 0
2, 90273, Note_on_c, 0, 66, 0
2, 90317, Note_on_c, 0, 68, 0
2, 90317, Note_on_c, 0, 66, 49
2, 90350, Note_on_c, 0, 68, 50
2, 90353, Note_on_c, 0, 66, 0
2, 90394, Note_on_c, 0, 68, 0
2, 90396, Note_on_c, 0, 66, 49
2, 90426, Note_on_c, 0, 68, 54
2, 90429, Note_on_c, 0, 66, 0
2, 90468, Note_on_c, 0, 95, 97
2, 90474, Note_on_c, 0, 68, 0
2, 90475, Note_on_c, 0, 83, 54
2, 90476, Note_on_c, 0, 66, 54
2, 90490, Note_on_c, 0, 95, 0
2, 90493, Note_on_c, 0, 83, 0
2, 90511, Note_on_c, 0, 66, 0
2, 90511, Note_on_c, 0, 68, 47
2, 90560, Note_on_c, 0, 68, 0
2, 90560, Note_on_c, 0, 66, 62
2, 90586, Note_on_c, 0, 66, 0
2, 90588, Note_on_c, 0, 68, 60
2, 90627, Note_on_c, 0, 68, 0
2, 90633, Note_on_c, 0, 66, 60
2, 90651, Note_on_c, 0, 66, 0
2, 90654, Note_on_c, 0, 68, 54
2, 90689, Note_on_c, 0, 68, 0
2, 90689, Note_on_c, 0, 66, 101
2, 90697, Control_c, 0, 64, 63
2, 90713, Note_on_c, 0, 68, 76
2, 90717, Control_c, 0, 64, 127
2, 90718, Note_on_c, 0, 66, 0
2, 90743, Note_on_c, 0, 66, 79
2, 90747, Note_on_c, 0, 68, 0
2, 90770, Note_on_c, 0, 66, 0
2, 90770, Note_on_c, 0, 68, 71
2, 90792, Note_on_c, 0, 66, 40
2, 90806, Note_on_c, 0, 68, 0
2, 90826, Note_on_c, 0, 68, 62
2, 90832, Note_on_c, 0, 66, 0
2, 90859, Note_on_c, 0, 66, 68
2, 90867, Note_on_c, 0, 68, 0
2, 90891, Note_on_c, 0, 68, 67
2, 90895, Note_on_c, 0, 66, 0
2, 90917, Note_on_c, 0, 71, 32
2, 90930, Note_on_c, 0, 66, 58
2, 90933, Note_on_c, 0, 68, 0
2, 90945, Note_on_c, 0, 71, 0
2, 90964, Note_on_c, 0, 75, 70
2, 90965, Note_on_c, 0, 68, 50
2, 90976, Note_on_c, 0, 66, 0
2, 91001, Note_on_c, 0, 75, 0
2, 91002, Note_on_c, 0, 66, 41
2, 91012, Note_on_c, 0, 68, 0
2, 91031, Note_on_c, 0, 76, 76
2, 91041, Note_on_c, 0, 68, 52
2, 91054, Note_on_c, 0, 66, 0
2, 91057, Note_on_c, 0, 76, 0
2, 91090, Note_on_c, 0, 66, 67
2, 91094, Note_on_c, 0, 68, 0
2, 91096, Note_on_c, 0, 90, 98
2, 91098, Note_on_c, 0, 78, 85
2, 91122, Note_on_c, 0, 78, 0
2, 91128, Note_on_c, 0, 68, 48
2, 91134, Note_on_c, 0, 66, 0
2, 91135, Note_on_c, 0, 90, 0
2, 91172, Note_on_c, 0, 66, 57
2, 91177, Note_on_c, 0, 68, 0
2, 91205, Note_on_c, 0, 66, 0
2, 91205, Note_on_c, 0, 68, 70
2, 91244, Note_on_c, 0, 68, 0
2, 91245, Note_on_c, 0, 66, 50
2, 91269, Note_on_c, 0, 66, 0
2, 91276, Note_on_c, 0, 68, 57
2, 91311, Note_on_c, 0, 68, 0
2, 91311, Note_on_c, 0, 66, 39
2, 91335, Note_on_c, 0, 95, 81
2, 91344, Note_on_c, 0, 68, 57
2, 91349, Note_on_c, 0, 66, 0
2, 91355, Note_on_c, 0, 95, 0
2, 91381, Note_on_c, 0, 68, 0
2, 91391, Note_on_c, 0, 66, 43
2, 91423, Note_on_c, 0, 68, 41
2, 91426, Note_on_c, 0, 66, 0
2, 91460, Note_on_c, 0, 68, 0
2, 91490, Note_on_c, 0, 66, 67
2, 91498, Note_on_c, 0, 68, 42
2, 91515, Note_on_c, 0, 68, 0
2, 91532, Note_on_c, 0, 66, 0
2, 91642, Note_on_c, 0, 30, 118
2, 91675, Control_c, 0, 64, 63
2, 91679, Control_c, 0, 64, 0
2, 91699, Control_c, 0, 67, 0
2, 91739, Control_c, 0, 64, 63
2, 91741, Control_c, 0, 64, 127
2, 91743, Note_on_c, 0, 42, 124
2, 91761, Note_on_c, 0, 30, 0
2, 91770, Note_on_c, 0, 42, 0
2, 91778, Note_on_c, 0, 47, 92
2, 91809, Note_on_c, 0, 51, 110
2, 91821, Note_on_c, 0, 54, 98
2, 91828, Note_on_c, 0, 47, 0
2, 91844, Note_on_c, 0, 56, 95
2, 91863, Note_on_c, 0, 59, 87
2, 91864, Note_on_c, 0, 51, 0
2, 91870, Note_on_c, 0, 63, 124
2, 91880, Note_on_c, 0, 54, 0
2, 91880, Note_on_c, 0, 56, 0
2, 91881, Note_on_c, 0, 55, 60
2, 91901, Note_on_c, 0, 55, 0
2, 91905, Note_on_c, 0, 59, 0
2, 91909, Note_on_c, 0, 66, 99
2, 91935, Note_on_c, 0, 63, 0
2, 91957, Control_c, 0, 67, 127
2, 91969, Note_on_c, 0, 68, 85
2, 91989, Note_on_c, 0, 66, 0
2, 92008, Note_on_c, 0, 68, 0
2, 92014, Note_on_c, 0, 66, 73
2, 92043, Note_on_c, 0, 66, 0
2, 92044, Note_on_c, 0, 68, 75
2, 92067, Note_on_c, 0, 66, 88
2, 92075, Note_on_c, 0, 68, 0
2, 92097, Note_on_c, 0, 68, 80
2, 92103, Note_on_c, 0, 66, 0
2, 92123, Note_on_c, 0, 66, 92
2, 92134, Note_on_c, 0, 68, 0
2, 92154, Note_on_c, 0, 68, 83
2, 92159, Note_on_c, 0, 66, 0
2, 92182, Note_on_c, 0, 66, 80
2, 92190, Note_on_c, 0, 68, 0
2, 92208, Note_on_c, 0, 66, 0
2, 92213, Note_on_c, 0, 68, 77
2, 92236, Note_on_c, 0, 66, 68
2, 92246, Note_on_c, 0, 68, 0
2, 92265, Note_on_c, 0, 66, 0
2, 92272, Note_on_c, 0, 68, 61
2, 92294, Note_on_c, 0, 66, 74
2, 92303, Note_on_c, 0, 68, 0
2, 92324, Note_on_c, 0, 66, 0
2, 92332, Note_on_c, 0, 68, 55
2, 92352, Note_on_c, 0, 66, 61
2, 92362, Note_on_c, 0, 68, 0
2, 92388, Note_on_c, 0, 66, 0
2, 92390, Note_on_c, 0, 68, 53
2, 92420, Note_on_c, 0, 66, 67
2, 92421, Note_on_c, 0, 68, 0
2, 92451, Note_on_c, 0, 68, 50
2, 92452, Note_on_c, 0, 66, 0
2, 92481, Note_on_c, 0, 66, 72
2, 92485, Note_on_c, 0, 68, 0
2, 92512, Note_on_c, 0, 66, 0
2, 92515, Note_on_c, 0, 68, 44
2, 92547, Note_on_c, 0, 66, 63
2, 92549, Note_on_c, 0, 68, 0
2, 92571, Note_on_c, 0, 66, 0
2, 92580, Note_on_c, 0, 68, 40
2, 92608, Note_on_c, 0, 66, 67
2, 92609, Note_on_c, 0, 68, 0
2, 92635, Note_on_c, 0, 66, 0
2, 92640, Note_on_c, 0, 68, 28
2, 92676, Note_on_c, 0, 66, 59
2, 92677, Note_on_c, 0, 68, 0
2, 92698, Note_on_c, 0, 66, 0
2, 92709, Note_on_c, 0, 68, 45
2, 92742, Note_on_c, 0, 68, 0
2, 92744, Note_on_c, 0, 66, 62
2, 92765, Note_on_c, 0, 66, 0
2, 92773, Note_on_c, 0, 68, 53
2, 92809, Note_on_c, 0, 68, 0
2, 92812, Note_on_c, 0, 66, 62
2, 92832, Note_on_c, 0, 66, 0
2, 92843, Note_on_c, 0, 68, 45
2, 92877, Note_on_c, 0, 68, 0
2, 92881, Note_on_c, 0, 66, 61
2, 92902, Note_on_c, 0, 66, 0
2, 92911, Note_on_c, 0, 68, 47
2, 92947, Note_on_c, 0, 68, 0
2, 92950, Note_on_c, 0, 66, 55
2, 92973, Note_on_c, 0, 66, 0
2, 92982, Note_on_c, 0, 68, 41
2, 93021, Note_on_c, 0, 68, 0
2, 93026, Note_on_c, 0, 66, 49
2, 93029, Note_on_c, 0, 71, 59
2, 93058, Note_on_c, 0, 66, 0
2, 93062, Note_on_c, 0, 68, 44
2, 93079, Note_on_c, 0, 71, 0
2, 93088, Note_on_c, 0, 75, 73
2, 93104, Note_on_c, 0, 68, 0
2, 93106, Note_on_c, 0, 66, 50
2, 93116, Note_on_c, 0, 75, 0
2, 93136, Note_on_c, 0, 66, 0
2, 93141, Note_on_c, 0, 68, 49
2, 93146, Note_on_c, 0, 76, 69
2, 93173, Note_on_c, 0, 76, 0
2, 93192, Note_on_c, 0, 68, 0
2, 93203, Note_on_c, 0, 66, 49
2, 93213, Note_on_c, 0, 90, 99
2, 93217, Note_on_c, 0, 78, 69
2, 93234, Note_on_c, 0, 78, 0
2, 93244, Note_on_c, 0, 66, 0
2, 93250, Note_on_c, 0, 90, 0
2, 93253, Note_on_c, 0, 68, 30
2, 93301, Note_on_c, 0, 68, 0
2, 93307, Note_on_c, 0, 66, 30
2, 93332, Note_on_c, 0, 66, 0
2, 93336, Note_on_c, 0, 68, 48
2, 93368, Note_on_c, 0, 68, 0
2, 93378, Note_on_c, 0, 66, 47
2, 93401, Note_on_c, 0, 68, 51
2, 93408, Note_on_c, 0, 66, 0
2, 93440, Note_on_c, 0, 68, 0
2, 93450, Note_on_c, 0, 66, 42
2, 93471, Note_on_c, 0, 68, 52
2, 93477, Note_on_c, 0, 66, 0
2, 93477, Note_on_c, 0, 95, 84
2, 93493, Note_on_c, 0, 95, 0
2, 93510, Note_on_c, 0, 68, 0
2, 93519, Note_on_c, 0, 66, 40
2, 93548, Note_on_c, 0, 68, 53
2, 93550, Note_on_c, 0, 66, 0
2, 93592, Note_on_c, 0, 68, 0
2, 93597, Note_on_c, 0, 66, 39
2, 93621, Note_on_c, 0, 68, 56
2, 93622, Note_on_c, 0, 66, 0
2, 93660, Note_on_c, 0, 68, 0
2, 93661, Note_on_c, 0, 66, 60
2, 93687, Note_on_c, 0, 68, 63
2, 93693, Note_on_c, 0, 66, 0
2, 93721, Note_on_c, 0, 66, 57
2, 93722, Note_on_c, 0, 68, 0
2, 93751, Note_on_c, 0, 68, 54
2, 93756, Note_on_c, 0, 66, 0
2, 93792, Note_on_c, 0, 66, 44
2, 93793, Note_on_c, 0, 68, 0
2, 93822, Note_on_c, 0, 68, 58
2, 93833, Note_on_c, 0, 66, 0
2, 93879, Note_on_c, 0, 68, 0
2, 93879, Note_on_c, 0, 71, 68
2, 93883, Note_on_c, 0, 66, 49
2, 93923, Note_on_c, 0, 68, 54
2, 93926, Note_on_c, 0, 66, 0
2, 93926, Note_on_c, 0, 71, 0
2, 93944, Note_on_c, 0, 75, 85
2, 93973, Note_on_c, 0, 68, 0
2, 93975, Note_on_c, 0, 75, 0
2, 93976, Note_on_c, 0, 66, 33
2, 94008, Note_on_c, 0, 68, 54
2, 94012, Note_on_c, 0, 76, 63
2, 94018, Note_on_c, 0, 66, 0
2, 94036, Note_on_c, 0, 76, 0
2, 94070, Note_on_c, 0, 68, 0
2, 94076, Note_on_c, 0, 66, 39
2, 94095, Note_on_c, 0, 90, 84
2, 94099, Note_on_c, 0, 78, 72
2, 94113, Note_on_c, 0, 90, 0
2, 94114, Note_on_c, 0, 78, 0
2, 94115, Note_on_c, 0, 66, 0
2, 94119, Note_on_c, 0, 68, 52
2, 94159, Note_on_c, 0, 68, 0
2, 94162, Note_on_c, 0, 66, 38
2, 94189, Note_on_c, 0, 66, 0
2, 94191, Note_on_c, 0, 68, 47
2, 94230, Note_on_c, 0, 68, 0
2, 94233, Note_on_c, 0, 66, 33
2, 94265, Note_on_c, 0, 68, 55
2, 94271, Note_on_c, 0, 66, 0
2, 94311, Note_on_c, 0, 68, 0
2, 94317, Note_on_c, 0, 66, 26
2, 94348, Note_on_c, 0, 68, 47
2, 94353, Note_on_c, 0, 66, 0
2, 94360, Note_on_c, 0, 83, 55
2, 94360, Note_on_c, 0, 95, 64
2, 94377, Note_on_c, 0, 95, 0
2, 94379, Note_on_c, 0, 83, 0
2, 94402, Note_on_c, 0, 68, 0
2, 94412, Note_on_c, 0, 66, 24
2, 94449, Note_on_c, 0, 68, 51
2, 94456, Note_on_c, 0, 66, 0
2, 94505, Note_on_c, 0, 68, 0
2, 94505, Note_on_c, 0, 66, 35
2, 94578, Note_on_c, 0, 66, 0
2, 94580, Note_on_c, 0, 68, 43
2, 94614, Note_on_c, 0, 68, 0
2, 94695, Note_on_c, 0, 28, 127
2, 94698, Note_on_c, 0, 97, 114
2, 94710, Control_c, 0, 67, 127
2, 94780, Control_c, 0, 64, 127
2, 94812, Control_c, 0, 67, 0
2, 94825, Note_on_c, 0, 92, 105
2, 94825, Note_on_c, 0, 40, 116
2, 94850, Note_on_c, 0, 28, 0
2, 94866, Note_on_c, 0, 97, 0
2, 94873, Note_on_c, 0, 40, 0
2, 94920, Note_on_c, 0, 47, 96
2, 94925, Note_on_c, 0, 88, 101
2, 94949, Note_on_c, 0, 92, 0
2, 95001, Note_on_c, 0, 47, 0
2, 95009, Note_on_c, 0, 85, 106
2, 95010, Note_on_c, 0, 52, 98
2, 95017, Note_on_c, 0, 88, 0
2, 95033, Note_on_c, 0, 85, 0
2, 95045, Note_on_c, 0, 52, 0
2, 95090, Note_on_c, 0, 56, 116
2, 95094, Note_on_c, 0, 85, 95
2, 95134, Note_on_c, 0, 56, 0
2, 95160, Note_on_c, 0, 80, 97
2, 95174, Note_on_c, 0, 59, 97
2, 95178, Note_on_c, 0, 85, 0
2, 95217, Note_on_c, 0, 76, 86
2, 95219, Note_on_c, 0, 59, 0
2, 95248, Note_on_c, 0, 80, 0
2, 95266, Note_on_c, 0, 61, 104
2, 95274, Note_on_c, 0, 73, 93
2, 95285, Note_on_c, 0, 76, 0
2, 95295, Note_on_c, 0, 61, 0
2, 95313, Note_on_c, 0, 73, 0
2, 95338, Note_on_c, 0, 64, 108
2, 95339, Note_on_c, 0, 85, 112
2, 95372, Note_on_c, 0, 64, 0
2, 95392, Note_on_c, 0, 80, 92
2, 95403, Note_on_c, 0, 85, 0
2, 95436, Note_on_c, 0, 76, 79
2, 95460, Note_on_c, 0, 80, 0
2, 95473, Note_on_c, 0, 73, 70
2, 95475, Note_on_c, 0, 68, 112
2, 95488, Note_on_c, 0, 76, 0
2, 95509, Note_on_c, 0, 73, 0
2, 95512, Note_on_c, 0, 68, 0
2, 95523, Note_on_c, 0, 85, 109
2, 95561, Note_on_c, 0, 80, 85
2, 95563, Note_on_c, 0, 69, 113
2, 95585, Note_on_c, 0, 85, 0
2, 95600, Note_on_c, 0, 69, 0
2, 95600, Note_on_c, 0, 76, 84
2, 95628, Note_on_c, 0, 80, 0
2, 95636, Note_on_c, 0, 73, 83
2, 95656, Note_on_c, 0, 76, 0
2, 95677, Note_on_c, 0, 73, 0
2, 95695, Note_on_c, 0, 71, 116
2, 95697, Note_on_c, 0, 85, 113
2, 95735, Note_on_c, 0, 80, 86
2, 95737, Note_on_c, 0, 71, 0
2, 95757, Note_on_c, 0, 85, 0
2, 95781, Note_on_c, 0, 76, 69
2, 95806, Note_on_c, 0, 80, 0
2, 95819, Note_on_c, 0, 73, 87
2, 95829, Note_on_c, 0, 76, 0
2, 95846, Note_on_c, 0, 73, 0
2, 95864, Note_on_c, 0, 85, 114
2, 95893, Note_on_c, 0, 80, 94
2, 95916, Note_on_c, 0, 85, 0
2, 95930, Note_on_c, 0, 76, 83
2, 95949, Note_on_c, 0, 80, 0
2, 95959, Note_on_c, 0, 73, 85
2, 95969, Note_on_c, 0, 76, 0
2, 95983, Note_on_c, 0, 73, 0
2, 96007, Note_on_c, 0, 76, 114
2, 96009, Note_on_c, 0, 85, 113
2, 96027, Note_on_c, 0, 76, 0
2, 96050, Note_on_c, 0, 80, 95
2, 96069, Note_on_c, 0, 85, 0
2, 96089, Note_on_c, 0, 76, 77
2, 96111, Note_on_c, 0, 80, 0
2, 96121, Note_on_c, 0, 73, 93
2, 96134, Note_on_c, 0, 76, 0
2, 96147, Note_on_c, 0, 73, 0
2, 96160, Note_on_c, 0, 85, 112
2, 96192, Note_on_c, 0, 80, 91
2, 96205, Note_on_c, 0, 85, 0
2, 96223, Note_on_c, 0, 76, 61
2, 96245, Note_on_c, 0, 80, 0
2, 96253, Note_on_c, 0, 73, 82
2, 96263, Note_on_c, 0, 76, 0
2, 96280, Note_on_c, 0, 73, 0
2, 96289, Note_on_c, 0, 71, 122
2, 96296, Note_on_c, 0, 85, 101
2, 96317, Note_on_c, 0, 71, 0
2, 96329, Note_on_c, 0, 80, 84
2, 96350, Note_on_c, 0, 85, 0
2, 96356, Note_on_c, 0, 76, 65
2, 96380, Note_on_c, 0, 80, 0
2, 96383, Note_on_c, 0, 73, 84
2, 96397, Note_on_c, 0, 76, 0
2, 96411, Note_on_c, 0, 73, 0
2, 96432, Note_on_c, 0, 73, 121
2, 96436, Note_on_c, 0, 85, 106
2, 96459, Note_on_c, 0, 73, 0
2, 96473, Note_on_c, 0, 80, 80
2, 96498, Note_on_c, 0, 85, 0
2, 96511, Note_on_c, 0, 76, 67
2, 96532, Note_on_c, 0, 80, 0
2, 96544, Note_on_c, 0, 73, 70
2, 96557, Note_on_c, 0, 76, 0
2, 96577, Note_on_c, 0, 73, 0
2, 96590, Note_on_c, 0, 71, 124
2, 96598, Note_on_c, 0, 85, 103
2, 96635, Note_on_c, 0, 80, 73
2, 96660, Note_on_c, 0, 85, 0
2, 96668, Note_on_c, 0, 71, 0
2, 96669, Note_on_c, 0, 76, 65
2, 96698, Note_on_c, 0, 80, 0
2, 96703, Note_on_c, 0, 73, 70
2, 96719, Note_on_c, 0, 76, 0
2, 96734, Note_on_c, 0, 73, 0
2, 96739, Note_on_c, 0, 69, 120
2, 96750, Note_on_c, 0, 85, 100
2, 96785, Note_on_c, 0, 80, 73
2, 96797, Note_on_c, 0, 69, 0
2, 96815, Note_on_c, 0, 85, 0
2, 96816, Note_on_c, 0, 76, 66
2, 96847, Note_on_c, 0, 73, 76
2, 96850, Note_on_c, 0, 80, 0
2, 96870, Note_on_c, 0, 76, 0
2, 96901, Note_on_c, 0, 73, 0
2, 96929, Note_on_c, 0, 59, 68
2, 96929, Note_on_c, 0, 63, 89
2, 96930, Note_on_c, 0, 68, 89
2, 96934, Note_on_c, 0, 56, 70
2, 96945, Control_c, 0, 64, 63
2, 96951, Control_c, 0, 64, 0
2, 96994, Note_on_c, 0, 80, 76
2, 96999, Control_c, 0, 64, 63
2, 97004, Control_c, 0, 64, 127
2, 97026, Note_on_c, 0, 75, 80
2, 97028, Note_on_c, 0, 63, 0
2, 97049, Note_on_c, 0, 80, 0
2, 97066, Note_on_c, 0, 71, 67
2, 97067, Note_on_c, 0, 68, 0
2, 97069, Note_on_c, 0, 59, 0
2, 97082, Note_on_c, 0, 75, 0
2, 97097, Note_on_c, 0, 63, 84
2, 97106, Note_on_c, 0, 56, 0
2, 97106, Note_on_c, 0, 71, 0
2, 97137, Note_on_c, 0, 80, 93
2, 97143, Note_on_c, 0, 63, 0
2, 97179, Note_on_c, 0, 75, 76
2, 97197, Note_on_c, 0, 80, 0
2, 97203, Note_on_c, 0, 71, 74
2, 97217, Note_on_c, 0, 75, 0
2, 97231, Note_on_c, 0, 71, 0
2, 97246, Note_on_c, 0, 58, 77
2, 97248, Note_on_c, 0, 70, 105
2, 97249, Control_c, 0, 64, 63
2, 97249, Note_on_c, 0, 65, 87
2, 97251, Note_on_c, 0, 62, 80
2, 97254, Control_c, 0, 64, 0
2, 97269, Control_c, 0, 64, 63
2, 97273, Note_on_c, 0, 82, 88
2, 97277, Control_c, 0, 64, 127
2, 97294, Note_on_c, 0, 62, 0
2, 97297, Note_on_c, 0, 65, 0
2, 97301, Note_on_c, 0, 58, 0
2, 97303, Note_on_c, 0, 70, 0
2, 97323, Note_on_c, 0, 77, 76
2, 97348, Note_on_c, 0, 82, 0
2, 97354, Note_on_c, 0, 74, 76
2, 97380, Note_on_c, 0, 77, 0
2, 97391, Note_on_c, 0, 63, 90
2, 97391, Note_on_c, 0, 71, 108
2, 97393, Note_on_c, 0, 59, 92
2, 97393, Note_on_c, 0, 66, 105
2, 97401, Control_c, 0, 64, 63
2, 97405, Note_on_c, 0, 74, 0
2, 97419, Control_c, 0, 64, 127
2, 97431, Note_on_c, 0, 59, 0
2, 97434, Note_on_c, 0, 83, 85
2, 97445, Note_on_c, 0, 63, 0
2, 97449, Note_on_c, 0, 66, 0
2, 97455, Note_on_c, 0, 71, 0
2, 97474, Note_on_c, 0, 78, 104
2, 97489, Note_on_c, 0, 83, 0
2, 97511, Note_on_c, 0, 78, 0
2, 97511, Note_on_c, 0, 75, 97
2, 97546, Note_on_c, 0, 68, 99
2, 97547, Note_on_c, 0, 73, 114
2, 97548, Note_on_c, 0, 64, 81
2, 97554, Note_on_c, 0, 61, 81
2, 97554, Control_c, 0, 64, 63
2, 97557, Note_on_c, 0, 75, 0
2, 97573, Control_c, 0, 64, 127
2, 97583, Note_on_c, 0, 85, 98
2, 97587, Note_on_c, 0, 73, 0
2, 97590, Note_on_c, 0, 68, 0
2, 97594, Note_on_c, 0, 64, 0
2, 97603, Note_on_c, 0, 61, 0
2, 97627, Note_on_c, 0, 80, 74
2, 97651, Note_on_c, 0, 85, 0
2, 97654, Note_on_c, 0, 76, 72
2, 97679, Note_on_c, 0, 80, 0
2, 97694, Note_on_c, 0, 71, 99
2, 97695, Note_on_c, 0, 63, 87
2, 97696, Note_on_c, 0, 66, 95
2, 97702, Note_on_c, 0, 59, 80
2, 97709, Note_on_c, 0, 76, 0
2, 97712, Control_c, 0, 64, 63
2, 97736, Note_on_c, 0, 83, 62
2, 97740, Control_c, 0, 64, 127
2, 97766, Note_on_c, 0, 59, 0
2, 97767, Note_on_c, 0, 71, 0
2, 97776, Note_on_c, 0, 78, 82
2, 97782, Note_on_c, 0, 66, 0
2, 97782, Note_on_c, 0, 63, 0
2, 97793, Note_on_c, 0, 83, 0
2, 97820, Note_on_c, 0, 75, 80
2, 97824, Note_on_c, 0, 78, 0
2, 97851, Note_on_c, 0, 62, 70
2, 97856, Note_on_c, 0, 65, 83
2, 97856, Note_on_c, 0, 58, 83
2, 97857, Control_c, 0, 64, 63
2, 97857, Note_on_c, 0, 70, 95
2, 97868, Note_on_c, 0, 75, 0
2, 97885, Note_on_c, 0, 82, 85
2, 97887, Control_c, 0, 64, 127
2, 97901, Note_on_c, 0, 58, 0
2, 97901, Note_on_c, 0, 62, 0
2, 97905, Note_on_c, 0, 65, 0
2, 97926, Note_on_c, 0, 70, 0
2, 97934, Note_on_c, 0, 77, 68
2, 97963, Note_on_c, 0, 74, 79
2, 97979, Note_on_c, 0, 77, 0
2, 97987, Note_on_c, 0, 82, 0
2, 97998, Note_on_c, 0, 74, 0
2, 98006, Note_on_c, 0, 63, 79
2, 98006, Note_on_c, 0, 70, 90
2, 98006, Note_on_c, 0, 75, 104
2, 98008, Note_on_c, 0, 67, 84
2, 98030, Note_on_c, 0, 75, 0
2, 98038, Note_on_c, 0, 70, 0
2, 98043, Note_on_c, 0, 67, 0
2, 98043, Note_on_c, 0, 87, 101
2, 98056, Note_on_c, 0, 63, 0
2, 98081, Note_on_c, 0, 82, 88
2, 98104, Note_on_c, 0, 87, 0
2, 98123, Note_on_c, 0, 79, 80
2, 98128, Note_on_c, 0, 82, 0
2, 98146, Note_on_c, 0, 79, 0
2, 98168, Note_on_c, 0, 59, 85
2, 98169, Note_on_c, 0, 68, 109
2, 98169, Note_on_c, 0, 63, 103
2, 98173, Note_on_c, 0, 56, 86
2, 98174, Control_c, 0, 64, 63
2, 98181, Control_c, 0, 64, 0
2, 98203, Control_c, 0, 64, 63
2, 98215, Control_c, 0, 64, 127
2, 98233, Note_on_c, 0, 80, 78
2, 98282, Note_on_c, 0, 63, 0
2, 98282, Note_on_c, 0, 75, 81
2, 98299, Note_on_c, 0, 68, 0
2, 98320, Note_on_c, 0, 71, 76
2, 98336, Note_on_c, 0, 80, 0
2, 98345, Note_on_c, 0, 59, 0
2, 98356, Note_on_c, 0, 75, 0
2, 98357, Note_on_c, 0, 63, 103
2, 98367, Note_on_c, 0, 56, 0
2, 98368, Note_on_c, 0, 71, 0
2, 98392, Note_on_c, 0, 80, 94
2, 98407, Note_on_c, 0, 63, 0
2, 98427, Note_on_c, 0, 75, 88
2, 98455, Note_on_c, 0, 80, 0
2, 98456, Note_on_c, 0, 71, 87
2, 98473, Note_on_c, 0, 75, 0
2, 98487, Note_on_c, 0, 71, 0
2, 98492, Note_on_c, 0, 58, 81
2, 98494, Note_on_c, 0, 70, 112
2, 98494, Note_on_c, 0, 65, 97
2, 98496, Note_on_c, 0, 62, 80
2, 98502, Control_c, 0, 64, 63
2, 98521, Note_on_c, 0, 82, 103
2, 98526, Control_c, 0, 64, 127
2, 98537, Note_on_c, 0, 62, 0
2, 98543, Note_on_c, 0, 65, 0
2, 98549, Note_on_c, 0, 58, 0
2, 98549, Note_on_c, 0, 70, 0
2, 98567, Note_on_c, 0, 77, 79
2, 98600, Note_on_c, 0, 74, 77
2, 98622, Note_on_c, 0, 82, 0
2, 98629, Note_on_c, 0, 77, 0
2, 98629, Note_on_c, 0, 59, 79
2, 98631, Note_on_c, 0, 63, 101
2, 98632, Note_on_c, 0, 71, 111
2, 98633, Note_on_c, 0, 66, 106
2, 98638, Control_c, 0, 64, 63
2, 98647, Note_on_c, 0, 74, 0
2, 98658, Control_c, 0, 64, 127
2, 98678, Note_on_c, 0, 83, 87
2, 98682, Note_on_c, 0, 59, 0
2, 98696, Note_on_c, 0, 63, 0
2, 98699, Note_on_c, 0, 66, 0
2, 98705, Note_on_c, 0, 71, 0
2, 98711, Note_on_c, 0, 78, 95
2, 98720, Note_on_c, 0, 83, 0
2, 98749, Note_on_c, 0, 78, 0
2, 98750, Note_on_c, 0, 75, 95
2, 98785, Control_c, 0, 64, 63
2, 98789, Note_on_c, 0, 64, 81
2, 98790, Note_on_c, 0, 68, 101
2, 98790, Note_on_c, 0, 73, 115
2, 98793, Note_on_c, 0, 75, 0
2, 98795, Note_on_c, 0, 61, 58
2, 98812, Control_c, 0, 64, 127
2, 98825, Note_on_c, 0, 85, 103
2, 98828, Note_on_c, 0, 73, 0
2, 98832, Note_on_c, 0, 68, 0
2, 98838, Note_on_c, 0, 64, 0
2, 98848, Note_on_c, 0, 61, 0
2, 98868, Note_on_c, 0, 80, 91
2, 98889, Note_on_c, 0, 85, 0
2, 98894, Note_on_c, 0, 76, 89
2, 98905, Note_on_c, 0, 80, 0
2, 98928, Note_on_c, 0, 76, 0
2, 98931, Control_c, 0, 64, 63
2, 98937, Control_c, 0, 64, 0
2, 98941, Note_on_c, 0, 59, 91
2, 98941, Note_on_c, 0, 56, 91
2, 98943, Note_on_c, 0, 63, 106
2, 98943, Note_on_c, 0, 68, 113
2, 98947, Control_c, 0, 64, 63
2, 98958, Control_c, 0, 64, 127
2, 98980, Note_on_c, 0, 80, 99
2, 98982, Note_on_c, 0, 56, 0
2, 98988, Note_on_c, 0, 59, 0
2, 98994, Note_on_c, 0, 63, 0
2, 99001, Note_on_c, 0, 68, 0
2, 99013, Note_on_c, 0, 75, 93
2, 99047, Note_on_c, 0, 80, 0
2, 99048, Note_on_c, 0, 71, 84
2, 99067, Note_on_c, 0, 75, 0
2, 99079, Note_on_c, 0, 71, 0
2, 99087, Control_c, 0, 64, 63
2, 99091, Control_c, 0, 64, 0
2, 99104, Note_on_c, 0, 68, 105
2, 99105, Note_on_c, 0, 73, 120
2, 99105, Note_on_c, 0, 61, 67
2, 99108, Note_on_c, 0, 64, 87
2, 99114, Control_c, 0, 64, 63
2, 99120, Control_c, 0, 64, 127
2, 99138, Note_on_c, 0, 85, 99
2, 99147, Note_on_c, 0, 68, 0
2, 99150, Note_on_c, 0, 73, 0
2, 99151, Note_on_c, 0, 64, 0
2, 99158, Note_on_c, 0, 61, 0
2, 99180, Note_on_c, 0, 80, 90
2, 99214, Note_on_c, 0, 85, 0
2, 99219, Note_on_c, 0, 76, 85
2, 99248, Note_on_c, 0, 80, 0
2, 99281, Note_on_c, 0, 59, 90
2, 99281, Note_on_c, 0, 63, 107
2, 99281, Note_on_c, 0, 71, 120
2, 99282, Note_on_c, 0, 66, 115
2, 99292, Control_c, 0, 64, 63
2, 99296, Note_on_c, 0, 76, 0
2, 99296, Control_c, 0, 64, 0
2, 99319, Control_c, 0, 64, 63
2, 99324, Control_c, 0, 64, 127
2, 99333, Note_on_c, 0, 83, 87
2, 99339, Note_on_c, 0, 71, 0
2, 99341, Note_on_c, 0, 66, 0
2, 99353, Note_on_c, 0, 63, 0
2, 99359, Note_on_c, 0, 59, 0
2, 99384, Note_on_c, 0, 78, 93
2, 99399, Note_on_c, 0, 83, 0
2, 99431, Note_on_c, 0, 75, 91
2, 99435, Note_on_c, 0, 78, 0
2, 99457, Note_on_c, 0, 75, 0
2, 99525, Control_c, 0, 64, 63
2, 99526, Control_c, 0, 64, 0
2, 99543, Note_on_c, 0, 28, 126
2, 99549, Note_on_c, 0, 97, 110
2, 99581, Control_c, 0, 64, 63
2, 99582, Control_c, 0, 64, 127
2, 99643, Note_on_c, 0, 92, 106
2, 99649, Note_on_c, 0, 40, 111
2, 99659, Note_on_c, 0, 28, 0
2, 99664, Note_on_c, 0, 97, 0
2, 99686, Note_on_c, 0, 40, 0
2, 99717, Note_on_c, 0, 88, 93
2, 99728, Note_on_c, 0, 47, 104
2, 99739, Note_on_c, 0, 92, 0
2, 99774, Note_on_c, 0, 85, 106
2, 99780, Note_on_c, 0, 47, 0
2, 99784, Note_on_c, 0, 88, 0
2, 99798, Note_on_c, 0, 52, 90
2, 99801, Note_on_c, 0, 85, 0
2, 99834, Note_on_c, 0, 52, 0
2, 99854, Note_on_c, 0, 85, 105
2, 99858, Note_on_c, 0, 56, 119
2, 99902, Note_on_c, 0, 56, 0
2, 99922, Note_on_c, 0, 80, 93
2, 99934, Note_on_c, 0, 59, 96
2, 99935, Note_on_c, 0, 85, 0
2, 99963, Note_on_c, 0, 76, 86
2, 99979, Note_on_c, 0, 59, 0
2, 100001, Note_on_c, 0, 80, 0
2, 100012, Note_on_c, 0, 61, 108
2, 100016, Note_on_c, 0, 73, 97
2, 100037, Note_on_c, 0, 76, 0
2, 100043, Note_on_c, 0, 61, 0
2, 100059, Note_on_c, 0, 73, 0
2, 100076, Note_on_c, 0, 64, 108
2, 100082, Note_on_c, 0, 85, 119
2, 100115, Note_on_c, 0, 64, 0
2, 100131, Note_on_c, 0, 80, 98
2, 100149, Note_on_c, 0, 85, 0
2, 100170, Note_on_c, 0, 76, 87
2, 100202, Note_on_c, 0, 80, 0
2, 100209, Note_on_c, 0, 73, 92
2, 100229, Note_on_c, 0, 76, 0
2, 100243, Note_on_c, 0, 68, 120
2, 100245, Note_on_c, 0, 73, 0
2, 100254, Note_on_c, 0, 85, 112
2, 100288, Note_on_c, 0, 80, 91
2, 100295, Note_on_c, 0, 68, 0
2, 100314, Note_on_c, 0, 85, 0
2, 100327, Note_on_c, 0, 76, 77
2, 100332, Note_on_c, 0, 69, 109
2, 100353, Note_on_c, 0, 80, 0
2, 100359, Note_on_c, 0, 73, 91
2, 100381, Note_on_c, 0, 76, 0
2, 100385, Note_on_c, 0, 69, 0
2, 100409, Note_on_c, 0, 73, 0
2, 100422, Note_on_c, 0, 71, 121
2, 100425, Note_on_c, 0, 85, 115
2, 100462, Note_on_c, 0, 80, 88
2, 100490, Note_on_c, 0, 85, 0
2, 100499, Note_on_c, 0, 76, 71
2, 100509, Note_on_c, 0, 71, 0
2, 100530, Note_on_c, 0, 80, 0
2, 100534, Note_on_c, 0, 73, 83
2, 100549, Note_on_c, 0, 76, 0
2, 100561, Note_on_c, 0, 73, 0
2, 100572, Note_on_c, 0, 85, 110
2, 100602, Note_on_c, 0, 80, 85
2, 100628, Note_on_c, 0, 76, 72
2, 100629, Note_on_c, 0, 85, 0
2, 100656, Note_on_c, 0, 73, 75
2, 100660, Note_on_c, 0, 80, 0
2, 100670, Note_on_c, 0, 76, 0
2, 100673, Note_on_c, 0, 73, 0
2, 100701, Note_on_c, 0, 76, 121
2, 100709, Note_on_c, 0, 85, 119
2, 100728, Note_on_c, 0, 76, 0
2, 100745, Note_on_c, 0, 80, 90
2, 100774, Note_on_c, 0, 85, 0
2, 100777, Note_on_c, 0, 76, 54
2, 100805, Note_on_c, 0, 73, 82
2, 100815, Note_on_c, 0, 80, 0
2, 100832, Note_on_c, 0, 76, 0
2, 100843, Note_on_c, 0, 73, 0
2, 100854, Note_on_c, 0, 85, 100
2, 100897, Note_on_c, 0, 80, 77
2, 100917, Note_on_c, 0, 85, 0
2, 100926, Note_on_c, 0, 76, 50
2, 100956, Note_on_c, 0, 80, 0
2, 100957, Note_on_c, 0, 73, 68
2, 100973, Note_on_c, 0, 76, 0
2, 100982, Note_on_c, 0, 73, 0
2, 101004, Note_on_c, 0, 71, 124
2, 101011, Note_on_c, 0, 85, 94
2, 101030, Note_on_c, 0, 71, 0
2, 101046, Note_on_c, 0, 80, 73
2, 101071, Note_on_c, 0, 85, 0
2, 101075, Note_on_c, 0, 76, 52
2, 101102, Note_on_c, 0, 73, 70
2, 101103, Note_on_c, 0, 80, 0
2, 101123, Note_on_c, 0, 73, 0
2, 101125, Note_on_c, 0, 76, 0
2, 101164, Note_on_c, 0, 85, 105
2, 101165, Note_on_c, 0, 73, 125
2, 101190, Note_on_c, 0, 73, 0
2, 101206, Note_on_c, 0, 80, 78
2, 101236, Note_on_c, 0, 85, 0
2, 101245, Note_on_c, 0, 76, 70
2, 101283, Note_on_c, 0, 80, 0
2, 101287, Note_on_c, 0, 73, 75
2, 101302, Note_on_c, 0, 76, 0
2, 101313, Note_on_c, 0, 71, 118
2, 101314, Note_on_c, 0, 73, 0
2, 101332, Note_on_c, 0, 85, 106
2, 101365, Note_on_c, 0, 80, 88
2, 101391, Note_on_c, 0, 85, 0
2, 101393, Note_on_c, 0, 71, 0
2, 101397, Note_on_c, 0, 76, 57
2, 101422, Note_on_c, 0, 73, 72
2, 101432, Note_on_c, 0, 80, 0
2, 101455, Note_on_c, 0, 76, 0
2, 101462, Note_on_c, 0, 73, 0
2, 101465, Note_on_c, 0, 69, 118
2, 101475, Note_on_c, 0, 85, 99
2, 101504, Note_on_c, 0, 80, 80
2, 101515, Note_on_c, 0, 69, 0
2, 101539, Note_on_c, 0, 85, 0
2, 101540, Note_on_c, 0, 76, 57
2, 101575, Note_on_c, 0, 73, 72
2, 101580, Note_on_c, 0, 80, 0
2, 101609, Note_on_c, 0, 76, 0
2, 101647, Note_on_c, 0, 73, 0
2, 101667, Note_on_c, 0, 59, 62
2, 101669, Note_on_c, 0, 63, 80
2, 101672, Note_on_c, 0, 68, 86
2, 101680, Note_on_c, 0, 56, 60
2, 101689, Control_c, 0, 64, 63
2, 101694, Control_c, 0, 64, 0
2, 101732, Control_c, 0, 64, 63
2, 101738, Control_c, 0, 64, 127
2, 101744, Note_on_c, 0, 80, 72
2, 101778, Note_on_c, 0, 75, 74
2, 101783, Note_on_c, 0, 63, 0
2, 101803, Note_on_c, 0, 80, 0
2, 101816, Note_on_c, 0, 71, 74
2, 101818, Note_on_c, 0, 68, 0
2, 101836, Note_on_c, 0, 63, 97
2, 101853, Note_on_c, 0, 75, 0
2, 101856, Note_on_c, 0, 59, 0
2, 101867, Note_on_c, 0, 71, 0
2, 101868, Note_on_c, 0, 56, 0
2, 101884, Note_on_c, 0, 80, 104
2, 101917, Note_on_c, 0, 63, 0
2, 101921, Note_on_c, 0, 75, 88
2, 101944, Note_on_c, 0, 80, 0
2, 101947, Note_on_c, 0, 71, 88
2, 101969, Note_on_c, 0, 75, 0
2, 101981, Note_on_c, 0, 71, 0
2, 101990, Note_on_c, 0, 58, 72
2, 101991, Control_c, 0, 64, 63
2, 101993, Note_on_c, 0, 70, 109
2, 101994, Note_on_c, 0, 65, 93
2, 101995, Note_on_c, 0, 62, 86
2, 101998, Control_c, 0, 64, 0
2, 102009, Control_c, 0, 64, 63
2, 102020, Control_c, 0, 64, 127
2, 102023, Note_on_c, 0, 82, 101
2, 102039, Note_on_c, 0, 62, 0
2, 102043, Note_on_c, 0, 65, 0
2, 102047, Note_on_c, 0, 58, 0
2, 102050, Note_on_c, 0, 70, 0
2, 102068, Note_on_c, 0, 77, 83
2, 102098, Note_on_c, 0, 74, 78
2, 102103, Note_on_c, 0, 82, 0
2, 102133, Note_on_c, 0, 77, 0
2, 102136, Note_on_c, 0, 59, 86
2, 102137, Note_on_c, 0, 71, 109
2, 102137, Note_on_c, 0, 63, 94
2, 102140, Note_on_c, 0, 66, 104
2, 102146, Control_c, 0, 64, 63
2, 102157, Note_on_c, 0, 74, 0
2, 102167, Control_c, 0, 64, 127
2, 102180, Note_on_c, 0, 59, 0
2, 102180, Note_on_c, 0, 83, 89
2, 102195, Note_on_c, 0, 63, 0
2, 102201, Note_on_c, 0, 66, 0
2, 102209, Note_on_c, 0, 71, 0
2, 102218, Note_on_c, 0, 78, 105
2, 102236, Note_on_c, 0, 83, 0
2, 102249, Note_on_c, 0, 75, 97
2, 102263, Note_on_c, 0, 78, 0
2, 102292, Note_on_c, 0, 73, 114
2, 102292, Note_on_c, 0, 68, 98
2, 102294, Note_on_c, 0, 64, 78
2, 102297, Note_on_c, 0, 61, 77
2, 102299, Note_on_c, 0, 75, 0
2, 102301, Control_c, 0, 64, 63
2, 102326, Control_c, 0, 64, 127
2, 102330, Note_on_c, 0, 85, 95
2, 102333, Note_on_c, 0, 73, 0
2, 102336, Note_on_c, 0, 68, 0
2, 102339, Note_on_c, 0, 64, 0
2, 102343, Note_on_c, 0, 61, 0
2, 102369, Note_on_c, 0, 80, 84
2, 102400, Note_on_c, 0, 85, 0
2, 102401, Note_on_c, 0, 76, 66
2, 102428, Note_on_c, 0, 80, 0
2, 102436, Note_on_c, 0, 63, 84
2, 102437, Note_on_c, 0, 71, 100
2, 102439, Note_on_c, 0, 66, 96
2, 102441, Note_on_c, 0, 59, 85
2, 102454, Control_c, 0, 64, 63
2, 102457, Note_on_c, 0, 76, 0
2, 102483, Note_on_c, 0, 83, 73
2, 102484, Control_c, 0, 64, 127
2, 102502, Note_on_c, 0, 59, 0
2, 102512, Note_on_c, 0, 71, 0
2, 102519, Note_on_c, 0, 63, 0
2, 102519, Note_on_c, 0, 78, 88
2, 102527, Note_on_c, 0, 66, 0
2, 102538, Note_on_c, 0, 83, 0
2, 102565, Note_on_c, 0, 75, 92
2, 102578, Note_on_c, 0, 78, 0
2, 102597, Note_on_c, 0, 62, 72
2, 102600, Note_on_c, 0, 70, 107
2, 102601, Note_on_c, 0, 58, 91
2, 102601, Note_on_c, 0, 65, 87
2, 102602, Control_c, 0, 64, 63
2, 102615, Control_c, 0, 64, 0
2, 102620, Note_on_c, 0, 75, 0
2, 102620, Control_c, 0, 64, 63
2, 102632, Note_on_c, 0, 82, 95
2, 102637, Control_c, 0, 64, 127
2, 102641, Note_on_c, 0, 62, 0
2, 102642, Note_on_c, 0, 58, 0
2, 102646, Note_on_c, 0, 65, 0
2, 102665, Note_on_c, 0, 70, 0
2, 102679, Note_on_c, 0, 77, 73
2, 102709, Note_on_c, 0, 74, 74
2, 102725, Note_on_c, 0, 77, 0
2, 102726, Note_on_c, 0, 82, 0
2, 102743, Note_on_c, 0, 74, 0
2, 102753, Note_on_c, 0, 70, 94
2, 102753, Note_on_c, 0, 75, 107
2, 102755, Note_on_c, 0, 67, 81
2, 102756, Note_on_c, 0, 63, 82
2, 102778, Note_on_c, 0, 75, 0
2, 102783, Note_on_c, 0, 70, 0
2, 102792, Note_on_c, 0, 67, 0
2, 102793, Note_on_c, 0, 87, 99
2, 102805, Note_on_c, 0, 63, 0
2, 102829, Note_on_c, 0, 82, 86
2, 102860, Note_on_c, 0, 87, 0
2, 102865, Note_on_c, 0, 79, 71
2, 102882, Note_on_c, 0, 82, 0
2, 102901, Note_on_c, 0, 79, 0
2, 102918, Note_on_c, 0, 68, 108
2, 102919, Note_on_c, 0, 63, 103
2, 102920, Note_on_c, 0, 56, 103
2, 102921, Control_c, 0, 64, 63
2, 102929, Control_c, 0, 64, 0
2, 102943, Control_c, 0, 64, 63
2, 102957, Note_on_c, 0, 80, 87
2, 102958, Control_c, 0, 64, 127
2, 102978, Note_on_c, 0, 63, 0
2, 102978, Note_on_c, 0, 68, 0
2, 102991, Note_on_c, 0, 56, 0
2, 102997, Note_on_c, 0, 75, 84
2, 103029, Note_on_c, 0, 71, 71
2, 103032, Note_on_c, 0, 80, 0
2, 103050, Note_on_c, 0, 75, 0
2, 103072, Note_on_c, 0, 66, 113
2, 103072, Note_on_c, 0, 61, 107
2, 103074, Note_on_c, 0, 54, 105
2, 103078, Note_on_c, 0, 71, 0
2, 103107, Note_on_c, 0, 66, 0
2, 103107, Note_on_c, 0, 78, 103
2, 103109, Note_on_c, 0, 61, 0
2, 103122, Note_on_c, 0, 54, 0
2, 103145, Note_on_c, 0, 73, 93
2, 103178, Note_on_c, 0, 78, 0
2, 103180, Note_on_c, 0, 69, 93
2, 103199, Note_on_c, 0, 73, 0
2, 103219, Note_on_c, 0, 69, 0
2, 103223, Note_on_c, 0, 61, 114
2, 103223, Note_on_c, 0, 56, 106
2, 103224, Note_on_c, 0, 49, 107
2, 103235, Control_c, 0, 64, 63
2, 103265, Note_on_c, 0, 73, 98
2, 103269, Control_c, 0, 64, 127
2, 103275, Note_on_c, 0, 49, 0
2, 103287, Note_on_c, 0, 56, 0
2, 103302, Note_on_c, 0, 68, 94
2, 103304, Note_on_c, 0, 61, 0
2, 103339, Note_on_c, 0, 64, 85
2, 103340, Note_on_c, 0, 73, 0
2, 103361, Note_on_c, 0, 68, 0
2, 103376, Note_on_c, 0, 64, 0
2, 103378, Note_on_c, 0, 63, 118
2, 103379, Note_on_c, 0, 58, 106
2, 103382, Note_on_c, 0, 51, 101
2, 103414, Note_on_c, 0, 63, 0
2, 103417, Note_on_c, 0, 58, 0
2, 103418, Note_on_c, 0, 75, 108
2, 103431, Note_on_c, 0, 51, 0
2, 103453, Note_on_c, 0, 70, 99
2, 103488, Note_on_c, 0, 75, 0
2, 103501, Note_on_c, 0, 67, 63
2, 103507, Note_on_c, 0, 70, 0
2, 103526, Note_on_c, 0, 67, 0
2, 103547, Note_on_c, 0, 56, 112
2, 103549, Note_on_c, 0, 51, 106
2, 103550, Note_on_c, 0, 44, 108
2, 103553, Control_c, 0, 64, 63
2, 103562, Control_c, 0, 64, 0
2, 103578, Note_on_c, 0, 68, 100
2, 103581, Control_c, 0, 64, 63
2, 103594, Control_c, 0, 64, 127
2, 103624, Note_on_c, 0, 63, 92
2, 103631, Note_on_c, 0, 51, 0
2, 103631, Note_on_c, 0, 56, 0
2, 103640, Note_on_c, 0, 44, 0
2, 103657, Note_on_c, 0, 59, 87
2, 103661, Note_on_c, 0, 68, 0
2, 103682, Note_on_c, 0, 63, 0
2, 103704, Note_on_c, 0, 54, 109
2, 103704, Note_on_c, 0, 49, 101
2, 103706, Note_on_c, 0, 59, 0
2, 103709, Note_on_c, 0, 42, 95
2, 103725, Control_c, 0, 64, 63
2, 103742, Note_on_c, 0, 66, 105
2, 103755, Control_c, 0, 64, 127
2, 103761, Note_on_c, 0, 54, 0
2, 103765, Note_on_c, 0, 49, 0
2, 103776, Note_on_c, 0, 42, 0
2, 103785, Note_on_c, 0, 61, 90
2, 103814, Note_on_c, 0, 57, 81
2, 103817, Note_on_c, 0, 66, 0
2, 103833, Note_on_c, 0, 61, 0
2, 103853, Note_on_c, 0, 57, 0
2, 103871, Note_on_c, 0, 44, 104
2, 103872, Note_on_c, 0, 49, 109
2, 103872, Note_on_c, 0, 37, 100
2, 103889, Control_c, 0, 64, 63
2, 103900, Control_c, 0, 64, 0
2, 103907, Note_on_c, 0, 61, 89
2, 103916, Control_c, 0, 64, 63
2, 103929, Control_c, 0, 64, 127
2, 103936, Note_on_c, 0, 37, 0
2, 103946, Note_on_c, 0, 44, 0
2, 103949, Note_on_c, 0, 56, 81
2, 103967, Note_on_c, 0, 49, 0
2, 103986, Note_on_c, 0, 61, 0
2, 103988, Note_on_c, 0, 52, 81
2, 104014, Note_on_c, 0, 56, 0
2, 104036, Note_on_c, 0, 52, 0
2, 104047, Note_on_c, 0, 46, 105
2, 104049, Note_on_c, 0, 39, 96
2, 104050, Note_on_c, 0, 51, 119
2, 104059, Control_c, 0, 64, 63
2, 104067, Control_c, 0, 64, 0
2, 104087, Control_c, 0, 64, 63
2, 104093, Note_on_c, 0, 63, 110
2, 104098, Control_c, 0, 64, 127
2, 104108, Note_on_c, 0, 51, 0
2, 104117, Note_on_c, 0, 46, 0
2, 104139, Note_on_c, 0, 39, 0
2, 104141, Note_on_c, 0, 58, 89
2, 104189, Note_on_c, 0, 63, 0
2, 104193, Note_on_c, 0, 55, 88
2, 104216, Note_on_c, 0, 58, 0
2, 104231, Note_on_c, 0, 55, 0
2, 104331, Note_on_c, 0, 42, 124
2, 104333, Note_on_c, 0, 30, 116
2, 104334, Control_c, 0, 64, 63
2, 104335, Note_on_c, 0, 71, 118
2, 104338, Control_c, 0, 64, 0
2, 104384, Control_c, 0, 64, 63
2, 104386, Control_c, 0, 64, 127
2, 104398, Note_on_c, 0, 30, 0
2, 104418, Note_on_c, 0, 42, 0
2, 104436, Note_on_c, 0, 69, 68
2, 104490, Note_on_c, 0, 71, 0
2, 104494, Note_on_c, 0, 66, 92
2, 104517, Note_on_c, 0, 69, 0
2, 104536, Note_on_c, 0, 64, 71
2, 104541, Note_on_c, 0, 66, 0
2, 104567, Note_on_c, 0, 59, 107
2, 104569, Note_on_c, 0, 57, 101
2, 104571, Note_on_c, 0, 64, 0
2, 104595, Note_on_c, 0, 59, 0
2, 104598, Note_on_c, 0, 57, 0
2, 104606, Note_on_c, 0, 64, 86
2, 104646, Note_on_c, 0, 66, 91
2, 104664, Note_on_c, 0, 64, 0
2, 104682, Note_on_c, 0, 69, 88
2, 104694, Note_on_c, 0, 66, 0
2, 104710, Note_on_c, 0, 69, 0
2, 104764, Note_on_c, 0, 47, 112
2, 104764, Note_on_c, 0, 73, 114
2, 104766, Note_on_c, 0, 35, 104
2, 104783, Control_c, 0, 64, 63
2, 104786, Control_c, 0, 64, 0
2, 104816, Control_c, 0, 64, 63
2, 104824, Control_c, 0, 64, 127
2, 104841, Note_on_c, 0, 71, 75
2, 104873, Note_on_c, 0, 73, 0
2, 104885, Note_on_c, 0, 69, 69
2, 104913, Note_on_c, 0, 71, 0
2, 104924, Note_on_c, 0, 61, 99
2, 104932, Note_on_c, 0, 69, 0
2, 104954, Note_on_c, 0, 61, 0
2, 104976, Note_on_c, 0, 75, 115
2, 104987, Note_on_c, 0, 47, 0
2, 104994, Note_on_c, 0, 35, 0
2, 105024, Note_on_c, 0, 71, 86
2, 105063, Note_on_c, 0, 69, 77
2, 105091, Note_on_c, 0, 75, 0
2, 105099, Note_on_c, 0, 63, 91
2, 105101, Note_on_c, 0, 71, 0
2, 105122, Note_on_c, 0, 69, 0
2, 105123, Note_on_c, 0, 63, 0
2, 105130, Note_on_c, 0, 45, 112
2, 105132, Note_on_c, 0, 33, 108
2, 105136, Note_on_c, 0, 76, 114
2, 105151, Control_c, 0, 64, 63
2, 105155, Control_c, 0, 64, 0
2, 105178, Control_c, 0, 64, 63
2, 105185, Note_on_c, 0, 71, 86
2, 105187, Control_c, 0, 64, 127
2, 105217, Note_on_c, 0, 69, 76
2, 105220, Note_on_c, 0, 76, 0
2, 105243, Note_on_c, 0, 71, 0
2, 105259, Note_on_c, 0, 64, 71
2, 105281, Note_on_c, 0, 69, 0
2, 105292, Note_on_c, 0, 64, 0
2, 105301, Note_on_c, 0, 75, 114
2, 105307, Note_on_c, 0, 33, 0
2, 105309, Note_on_c, 0, 45, 0
2, 105330, Note_on_c, 0, 71, 69
2, 105367, Note_on_c, 0, 69, 54
2, 105384, Note_on_c, 0, 75, 0
2, 105393, Note_on_c, 0, 71, 0
2, 105403, Note_on_c, 0, 64, 70
2, 105411, Note_on_c, 0, 69, 0
2, 105434, Note_on_c, 0, 64, 0
2, 105457, Note_on_c, 0, 73, 113
2, 105459, Control_c, 0, 64, 63
2, 105459, Note_on_c, 0, 44, 113
2, 105460, Note_on_c, 0, 32, 100
2, 105464, Control_c, 0, 64, 0
2, 105471, Note_on_c, 0, 71, 85
2, 105488, Control_c, 0, 64, 63
2, 105494, Control_c, 0, 64, 127
2, 105506, Note_on_c, 0, 68, 57
2, 105511, Note_on_c, 0, 69, 89
2, 105523, Note_on_c, 0, 73, 0
2, 105528, Note_on_c, 0, 68, 0
2, 105544, Note_on_c, 0, 61, 98
2, 105549, Note_on_c, 0, 71, 0
2, 105562, Note_on_c, 0, 69, 0
2, 105565, Note_on_c, 0, 61, 0
2, 105655, Note_on_c, 0, 78, 94
2, 105674, Note_on_c, 0, 71, 78
2, 105703, Note_on_c, 0, 78, 0
2, 105708, Note_on_c, 0, 69, 80
2, 105735, Note_on_c, 0, 71, 0
2, 105735, Note_on_c, 0, 44, 0
2, 105742, Note_on_c, 0, 66, 99
2, 105751, Note_on_c, 0, 32, 0
2, 105753, Note_on_c, 0, 69, 0
2, 105766, Note_on_c, 0, 66, 0
2, 105865, Control_c, 0, 64, 63
2, 105869, Control_c, 0, 64, 0
2, 105878, Note_on_c, 0, 71, 114
2, 105879, Note_on_c, 0, 42, 121
2, 105880, Note_on_c, 0, 30, 115
2, 105911, Control_c, 0, 64, 63
2, 105914, Control_c, 0, 64, 127
2, 105919, Note_on_c, 0, 30, 0
2, 105937, Note_on_c, 0, 42, 0
2, 105964, Note_on_c, 0, 69, 84
2, 105996, Note_on_c, 0, 71, 0
2, 106008, Note_on_c, 0, 66, 78
2, 106028, Note_on_c, 0, 69, 0
2, 106041, Note_on_c, 0, 64, 75
2, 106054, Note_on_c, 0, 66, 0
2, 106072, Note_on_c, 0, 59, 109
2, 106074, Note_on_c, 0, 57, 104
2, 106078, Note_on_c, 0, 64, 0
2, 106098, Note_on_c, 0, 59, 0
2, 106101, Note_on_c, 0, 57, 0
2, 106118, Note_on_c, 0, 64, 80
2, 106153, Note_on_c, 0, 66, 81
2, 106172, Note_on_c, 0, 64, 0
2, 106185, Note_on_c, 0, 69, 68
2, 106199, Note_on_c, 0, 66, 0
2, 106204, Note_on_c, 0, 69, 0
2, 106247, Note_on_c, 0, 47, 109
2, 106248, Note_on_c, 0, 73, 112
2, 106250, Note_on_c, 0, 35, 100
2, 106279, Control_c, 0, 64, 63
2, 106283, Control_c, 0, 64, 0
2, 106305, Note_on_c, 0, 71, 63
2, 106316, Control_c, 0, 64, 63
2, 106324, Control_c, 0, 64, 127
2, 106332, Note_on_c, 0, 73, 0
2, 106357, Note_on_c, 0, 69, 68
2, 106394, Note_on_c, 0, 61, 87
2, 106401, Note_on_c, 0, 69, 0
2, 106402, Note_on_c, 0, 71, 0
2, 106421, Note_on_c, 0, 61, 0
2, 106441, Note_on_c, 0, 75, 110
2, 106485, Note_on_c, 0, 47, 0
2, 106492, Note_on_c, 0, 71, 55
2, 106495, Note_on_c, 0, 35, 0
2, 106520, Note_on_c, 0, 69, 70
2, 106544, Note_on_c, 0, 75, 0
2, 106554, Note_on_c, 0, 71, 0
2, 106556, Note_on_c, 0, 63, 88
2, 106572, Note_on_c, 0, 63, 0
2, 106581, Note_on_c, 0, 69, 0
2, 106593, Note_on_c, 0, 45, 111
2, 106595, Note_on_c, 0, 33, 107
2, 106596, Note_on_c, 0, 76, 111
2, 106621, Control_c, 0, 64, 63
2, 106628, Control_c, 0, 64, 0
2, 106644, Note_on_c, 0, 71, 93
2, 106646, Control_c, 0, 64, 63
2, 106657, Control_c, 0, 64, 127
2, 106675, Note_on_c, 0, 69, 78
2, 106679, Note_on_c, 0, 76, 0
2, 106697, Note_on_c, 0, 71, 0
2, 106717, Note_on_c, 0, 64, 75
2, 106728, Note_on_c, 0, 69, 0
2, 106742, Note_on_c, 0, 64, 0
2, 106757, Note_on_c, 0, 75, 115
2, 106770, Note_on_c, 0, 45, 0
2, 106772, Note_on_c, 0, 33, 0
2, 106790, Note_on_c, 0, 71, 58
2, 106817, Note_on_c, 0, 69, 72
2, 106829, Note_on_c, 0, 75, 0
2, 106860, Note_on_c, 0, 71, 0
2, 106882, Note_on_c, 0, 63, 91
2, 106896, Note_on_c, 0, 69, 0
2, 106922, Note_on_c, 0, 63, 0
2, 106933, Note_on_c, 0, 73, 114
2, 106940, Note_on_c, 0, 44, 116
2, 106940, Note_on_c, 0, 32, 107
2, 106941, Control_c, 0, 64, 63
2, 106944, Control_c, 0, 64, 0
2, 106953, Note_on_c, 0, 71, 90
2, 106977, Control_c, 0, 64, 63
2, 106981, Control_c, 0, 64, 127
2, 106993, Note_on_c, 0, 73, 0
2, 106995, Note_on_c, 0, 69, 81
2, 107022, Note_on_c, 0, 61, 98
2, 107029, Note_on_c, 0, 71, 0
2, 107040, Note_on_c, 0, 69, 0
2, 107047, Note_on_c, 0, 61, 0
2, 107133, Note_on_c, 0, 78, 92
2, 107156, Note_on_c, 0, 71, 74
2, 107188, Note_on_c, 0, 78, 0
2, 107190, Note_on_c, 0, 69, 77
2, 107220, Note_on_c, 0, 71, 0
2, 107227, Note_on_c, 0, 66, 96
2, 107242, Note_on_c, 0, 69, 0
2, 107242, Note_on_c, 0, 44, 0
2, 107257, Note_on_c, 0, 32, 0
2, 107268, Note_on_c, 0, 66, 0
2, 107359, Note_on_c, 0, 76, 117
2, 107360, Note_on_c, 0, 42, 115
2, 107362, Note_on_c, 0, 30, 108
2, 107393, Control_c, 0, 64, 63
2, 107397, Control_c, 0, 64, 0
2, 107427, Control_c, 0, 64, 63
2, 107435, Control_c, 0, 64, 127
2, 107462, Note_on_c, 0, 71, 76
2, 107506, Note_on_c, 0, 76, 0
2, 107507, Note_on_c, 0, 69, 68
2, 107525, Note_on_c, 0, 71, 0
2, 107551, Note_on_c, 0, 69, 0
2, 107553, Note_on_c, 0, 64, 34
2, 107592, Note_on_c, 0, 64, 0
2, 107600, Note_on_c, 0, 30, 0
2, 107615, Note_on_c, 0, 75, 114
2, 107629, Note_on_c, 0, 42, 0
2, 107666, Note_on_c, 0, 71, 67
2, 107703, Note_on_c, 0, 69, 67
2, 107704, Note_on_c, 0, 75, 0
2, 107726, Note_on_c, 0, 71, 0
2, 107753, Note_on_c, 0, 63, 78
2, 107758, Note_on_c, 0, 69, 0
2, 107790, Note_on_c, 0, 49, 118
2, 107796, Note_on_c, 0, 73, 106
2, 107817, Note_on_c, 0, 63, 0
2, 107836, Note_on_c, 0, 71, 68
2, 107876, Note_on_c, 0, 73, 0
2, 107879, Note_on_c, 0, 69, 74
2, 107913, Note_on_c, 0, 61, 93
2, 107914, Note_on_c, 0, 71, 0
2, 107936, Note_on_c, 0, 61, 0
2, 107936, Note_on_c, 0, 69, 0
2, 107978, Note_on_c, 0, 78, 104
2, 108002, Note_on_c, 0, 49, 0
2, 108009, Note_on_c, 0, 71, 84
2, 108034, Note_on_c, 0, 78, 0
2, 108054, Note_on_c, 0, 69, 74
2, 108076, Note_on_c, 0, 71, 0
2, 108085, Note_on_c, 0, 66, 88
2, 108104, Note_on_c, 0, 69, 0
2, 108117, Note_on_c, 0, 66, 0
2, 108127, Note_on_c, 0, 52, 114
2, 108130, Note_on_c, 0, 76, 101
2, 108172, Note_on_c, 0, 71, 78
2, 108192, Note_on_c, 0, 76, 0
2, 108203, Note_on_c, 0, 69, 77
2, 108222, Note_on_c, 0, 71, 0
2, 108243, Note_on_c, 0, 69, 0
2, 108254, Note_on_c, 0, 64, 18
2, 108267, Note_on_c, 0, 52, 0
2, 108276, Note_on_c, 0, 64, 0
2, 108300, Note_on_c, 0, 75, 110
2, 108323, Note_on_c, 0, 71, 46
2, 108365, Note_on_c, 0, 69, 73
2, 108376, Note_on_c, 0, 75, 0
2, 108388, Note_on_c, 0, 71, 0
2, 108406, Note_on_c, 0, 63, 92
2, 108415, Note_on_c, 0, 69, 0
2, 108441, Note_on_c, 0, 54, 125
2, 108453, Note_on_c, 0, 73, 99
2, 108457, Note_on_c, 0, 63, 0
2, 108478, Note_on_c, 0, 71, 76
2, 108521, Note_on_c, 0, 73, 0
2, 108528, Note_on_c, 0, 69, 63
2, 108554, Note_on_c, 0, 71, 0
2, 108554, Note_on_c, 0, 61, 84
2, 108567, Note_on_c, 0, 61, 0
2, 108573, Note_on_c, 0, 69, 0
2, 108615, Note_on_c, 0, 78, 101
2, 108621, Note_on_c, 0, 54, 0
2, 108645, Note_on_c, 0, 71, 74
2, 108665, Note_on_c, 0, 78, 0
2, 108690, Note_on_c, 0, 69, 59
2, 108718, Note_on_c, 0, 66, 99
2, 108721, Note_on_c, 0, 71, 0
2, 108742, Note_on_c, 0, 69, 0
2, 108756, Note_on_c, 0, 66, 0
2, 108760, Note_on_c, 0, 57, 112
2, 108767, Note_on_c, 0, 76, 101
2, 108804, Note_on_c, 0, 71, 85
2, 108833, Note_on_c, 0, 76, 0
2, 108838, Note_on_c, 0, 69, 75
2, 108857, Note_on_c, 0, 71, 0
2, 108872, Note_on_c, 0, 69, 0
2, 108875, Note_on_c, 0, 57, 0
2, 108880, Note_on_c, 0, 64, 71
2, 108918, Note_on_c, 0, 64, 0
2, 108936, Note_on_c, 0, 75, 106
2, 108961, Note_on_c, 0, 71, 63
2, 109009, Note_on_c, 0, 69, 68
2, 109013, Note_on_c, 0, 75, 0
2, 109030, Note_on_c, 0, 71, 0
2, 109043, Note_on_c, 0, 63, 88
2, 109057, Note_on_c, 0, 69, 0
2, 109075, Note_on_c, 0, 63, 0
2, 109080, Note_on_c, 0, 61, 125
2, 109085, Note_on_c, 0, 73, 105
2, 109106, Note_on_c, 0, 61, 0
2, 109119, Note_on_c, 0, 71, 71
2, 109151, Note_on_c, 0, 73, 0
2, 109159, Note_on_c, 0, 69, 71
2, 109182, Note_on_c, 0, 61, 99
2, 109186, Note_on_c, 0, 71, 0
2, 109207, Note_on_c, 0, 61, 0
2, 109208, Note_on_c, 0, 69, 0
2, 109244, Note_on_c, 0, 78, 108
2, 109270, Note_on_c, 0, 71, 98
2, 109280, Note_on_c, 0, 78, 0
2, 109315, Note_on_c, 0, 69, 78
2, 109339, Note_on_c, 0, 71, 0
2, 109346, Note_on_c, 0, 66, 92
2, 109367, Note_on_c, 0, 69, 0
2, 109378, Note_on_c, 0, 66, 0
2, 109386, Note_on_c, 0, 64, 118
2, 109389, Note_on_c, 0, 76, 107
2, 109421, Note_on_c, 0, 64, 0
2, 109429, Note_on_c, 0, 71, 92
2, 109452, Note_on_c, 0, 76, 0
2, 109457, Note_on_c, 0, 69, 76
2, 109476, Note_on_c, 0, 71, 0
2, 109497, Note_on_c, 0, 69, 0
2, 109497, Note_on_c, 0, 64, 39
2, 109522, Note_on_c, 0, 64, 0
2, 109539, Note_on_c, 0, 75, 115
2, 109568, Note_on_c, 0, 71, 79
2, 109613, Note_on_c, 0, 75, 0
2, 109621, Note_on_c, 0, 71, 0
2, 109626, Note_on_c, 0, 69, 63
2, 109634, Note_on_c, 0, 63, 92
2, 109647, Note_on_c, 0, 69, 0
2, 109671, Note_on_c, 0, 63, 0
2, 109679, Note_on_c, 0, 66, 126
2, 109681, Note_on_c, 0, 73, 106
2, 109709, Note_on_c, 0, 66, 0
2, 109716, Note_on_c, 0, 71, 74
2, 109744, Note_on_c, 0, 73, 0
2, 109748, Note_on_c, 0, 69, 79
2, 109779, Note_on_c, 0, 61, 98
2, 109784, Note_on_c, 0, 71, 0
2, 109801, Note_on_c, 0, 61, 0
2, 109806, Note_on_c, 0, 69, 0
2, 109836, Note_on_c, 0, 78, 110
2, 109864, Note_on_c, 0, 71, 53
2, 109891, Note_on_c, 0, 78, 0
2, 109909, Note_on_c, 0, 69, 79
2, 109933, Note_on_c, 0, 71, 0
2, 109945, Note_on_c, 0, 66, 108
2, 109964, Note_on_c, 0, 69, 0
2, 109970, Note_on_c, 0, 66, 0
2, 110060, Control_c, 0, 64, 63
2, 110065, Control_c, 0, 64, 0
2, 110070, Note_on_c, 0, 28, 127
2, 110205, Note_on_c, 0, 40, 121
2, 110219, Note_on_c, 0, 28, 0
2, 110222, Control_c, 0, 64, 63
2, 110225, Control_c, 0, 64, 127
2, 110232, Note_on_c, 0, 40, 0
2, 110244, Note_on_c, 0, 47, 75
2, 110285, Note_on_c, 0, 52, 91
2, 110295, Note_on_c, 0, 47, 0
2, 110314, Note_on_c, 0, 56, 94
2, 110331, Note_on_c, 0, 59, 87
2, 110343, Note_on_c, 0, 52, 0
2, 110355, Note_on_c, 0, 56, 0
2, 110372, Note_on_c, 0, 64, 94
2, 110380, Note_on_c, 0, 59, 0
2, 110401, Note_on_c, 0, 68, 105
2, 110446, Note_on_c, 0, 71, 108
2, 110478, Note_on_c, 0, 76, 72
2, 110520, Note_on_c, 0, 80, 103
2, 110547, Note_on_c, 0, 76, 0
2, 110566, Note_on_c, 0, 87, 119
2, 110616, Note_on_c, 0, 80, 0
2, 110750, Note_on_c, 0, 87, 0
2, 110773, Note_on_c, 0, 85, 123
2, 110989, Note_on_c, 0, 85, 0
2, 111058, Note_on_c, 0, 83, 120
2, 111088, Note_on_c, 0, 83, 0
2, 111739, Control_c, 0, 67, 127
2, 111950, Control_c, 0, 67, 0
2, 111985, Note_on_c, 0, 64, 0
2, 112008, Note_on_c, 0, 68, 0
2, 112024, Note_on_c, 0, 71, 0
2, 112033, Note_on_c, 0, 64, 120
2, 112039, Control_c, 0, 64, 63
2, 112043, Control_c, 0, 64, 0
2, 112079, Control_c, 0, 64, 63
2, 112079, Control_c, 0, 64, 127
2, 112088, Note_on_c, 0, 68, 113
2, 112120, Note_on_c, 0, 71, 100
2, 112123, Note_on_c, 0, 64, 0
2, 112129, Note_on_c, 0, 68, 0
2, 112138, Note_on_c, 0, 76, 86
2, 112147, Note_on_c, 0, 71, 0
2, 112183, Note_on_c, 0, 80, 103
2, 112213, Note_on_c, 0, 83, 86
2, 112225, Note_on_c, 0, 76, 0
2, 112251, Note_on_c, 0, 80, 0
2, 112256, Note_on_c, 0, 88, 102
2, 112308, Note_on_c, 0, 100, 122
2, 112336, Note_on_c, 0, 100, 0
2, 113287, Note_on_c, 0, 88, 0
2, 113294, Note_on_c, 0, 83, 0
2, 113330, Control_c, 0, 64, 63
2, 113341, Control_c, 0, 64, 0
2, 113341, End_track
0, 0, End_of_file
