0, 0, Header, 1, 2, 192
1, 0, Start_track
1, 0, Title_t, "Préludes  Book I  No. 2: Voiles (Sails)"
1, 0, Text_t, "/title: Préludes  Book I  No. 2: Voiles (Sails)\012"
1, 0, Text_t, "/subtitle: \012"
1, 0, Text_t, "/roll_type: Duo-Art\012"
1, 0, Text_t, "/roll_manufacturer: Aeolian (UK)\012"
1, 0, Text_t, "/roll_number: 62\012"
1, 0, Text_t, "/performer: Hess, Myra\012"
1, 0, Text_t, "/composer:  Debussy\012"
1, 0, Text_t, "/lyricist: \012"
1, 0, Text_t, "/roll_date:  1920\012"
1, 0, Text_t, "/copyright: \012"
1, 0, Text_t, "/scanned_by:  Julian Dyer\012"
1, 0, Text_t, "/rendered_by:  Kevin Keymer/Richard Stibbons\012"
1, 0, Text_t, "/scan_system:  MK3a w/Stepper Controlr\012"
1, 0, Text_t, "/date_scanned: March 2007\012"
1, 0, Text_t, "/owner-donor:  Julian Dyer\012"
1, 0, Time_signature, 4, 2, 24, 8
1, 0, Key_signature, 0, "major"
1, 0, Tempo, 500000
1, 0, Marker_t, "Standard MIDI:LPI 360:Tempo  90: 05-28-2007"
1, 0, End_track
2, 0, Start_track
2, 0, Title_t, "Préludes  Book I  No. 2: Voiles (Sails)"
2, 0, Program_c, 0, 0
2, 170, Control_c, 0, 64, 127
2, 355, Note_on_c, 0, 76, 41
2, 356, Note_on_c, 0, 80, 42
2, 590, Note_on_c, 0, 80, 0
2, 737, Note_on_c, 0, 76, 0
2, 945, Note_on_c, 0, 78, 41
2, 955, Note_on_c, 0, 74, 41
2, 989, Note_on_c, 0, 74, 0
2, 1016, Note_on_c, 0, 76, 47
2, 1026, Note_on_c, 0, 72, 49
2, 1030, Note_on_c, 0, 78, 0
2, 1049, Note_on_c, 0, 76, 0
2, 1056, Note_on_c, 0, 70, 51
2, 1058, Note_on_c, 0, 72, 0
2, 1066, Note_on_c, 0, 74, 53
2, 1080, Note_on_c, 0, 70, 0
2, 1100, Note_on_c, 0, 74, 0
2, 1106, Note_on_c, 0, 72, 53
2, 1107, Note_on_c, 0, 68, 52
2, 1117, Control_c, 0, 64, 0
2, 1240, Control_c, 0, 64, 127
2, 1307, Note_on_c, 0, 68, 0
2, 1347, Note_on_c, 0, 72, 0
2, 1617, Note_on_c, 0, 84, 49
2, 1628, Note_on_c, 0, 80, 48
2, 1660, Note_on_c, 0, 80, 0
2, 1660, Note_on_c, 0, 84, 0
2, 1666, Note_on_c, 0, 78, 47
2, 1677, Note_on_c, 0, 82, 50
2, 1736, Control_c, 0, 64, 0
2, 1870, Control_c, 0, 64, 127
2, 1997, Note_on_c, 0, 78, 0
2, 2028, Note_on_c, 0, 82, 0
2, 2381, Control_c, 0, 64, 0
2, 2678, Control_c, 0, 64, 127
2, 2774, Note_on_c, 0, 80, 41
2, 2784, Note_on_c, 0, 76, 42
2, 2989, Note_on_c, 0, 76, 0
2, 3071, Note_on_c, 0, 80, 0
2, 3264, Note_on_c, 0, 78, 41
2, 3273, Note_on_c, 0, 74, 40
2, 3316, Note_on_c, 0, 74, 0
2, 3335, Note_on_c, 0, 72, 46
2, 3335, Note_on_c, 0, 76, 48
2, 3338, Note_on_c, 0, 78, 0
2, 3368, Note_on_c, 0, 76, 0
2, 3368, Note_on_c, 0, 72, 0
2, 3384, Note_on_c, 0, 70, 47
2, 3385, Note_on_c, 0, 74, 49
2, 3408, Note_on_c, 0, 70, 0
2, 3440, Note_on_c, 0, 74, 0
2, 3444, Note_on_c, 0, 68, 46
2, 3444, Note_on_c, 0, 72, 47
2, 3477, Control_c, 0, 64, 0
2, 3582, Control_c, 0, 64, 127
2, 3815, Note_on_c, 0, 72, 0
2, 3886, Note_on_c, 0, 68, 0
2, 4134, Note_on_c, 0, 70, 42
2, 4145, Note_on_c, 0, 66, 41
2, 4248, Note_on_c, 0, 66, 0
2, 4257, Note_on_c, 0, 70, 0
2, 4288, Control_c, 0, 64, 0
2, 4333, Note_on_c, 0, 68, 40
2, 4350, Control_c, 0, 67, 127
2, 4352, Note_on_c, 0, 64, 42
2, 4419, Control_c, 0, 64, 127
2, 4463, Note_on_c, 0, 64, 0
2, 4464, Note_on_c, 0, 68, 0
2, 4522, Control_c, 0, 64, 0
2, 4560, Note_on_c, 0, 62, 39
2, 4561, Note_on_c, 0, 66, 39
2, 4655, Control_c, 0, 64, 127
2, 4679, Note_on_c, 0, 62, 0
2, 4749, Note_on_c, 0, 66, 0
2, 4853, Note_on_c, 0, 64, 37
2, 4863, Note_on_c, 0, 60, 43
2, 4877, Control_c, 0, 64, 0
2, 4980, Control_c, 0, 64, 127
2, 5453, Note_on_c, 0, 34, 43
2, 5505, Note_on_c, 0, 34, 0
2, 5935, Note_on_c, 0, 34, 39
2, 5969, Note_on_c, 0, 34, 0
2, 6193, Note_on_c, 0, 34, 38
2, 6241, Note_on_c, 0, 34, 0
2, 6646, Note_on_c, 0, 34, 36
2, 6689, Note_on_c, 0, 34, 0
2, 6879, Note_on_c, 0, 60, 0
2, 6904, Note_on_c, 0, 34, 53
2, 6928, Note_on_c, 0, 64, 0
2, 6936, Note_on_c, 0, 34, 0
2, 7206, Note_on_c, 0, 56, 48
2, 7235, Note_on_c, 0, 44, 43
2, 7450, Note_on_c, 0, 58, 46
2, 7464, Note_on_c, 0, 56, 0
2, 7464, Control_c, 0, 64, 0
2, 7469, Note_on_c, 0, 46, 51
2, 7473, Note_on_c, 0, 44, 0
2, 7512, Control_c, 0, 67, 0
2, 7537, Control_c, 0, 64, 127
2, 7600, Note_on_c, 0, 46, 0
2, 7669, Note_on_c, 0, 58, 0
2, 7757, Note_on_c, 0, 60, 40
2, 7767, Note_on_c, 0, 48, 40
2, 7970, Control_c, 0, 64, 0
2, 8003, Note_on_c, 0, 34, 46
2, 8104, Control_c, 0, 64, 127
2, 8127, Note_on_c, 0, 34, 0
2, 8268, Note_on_c, 0, 34, 45
2, 8312, Note_on_c, 0, 34, 0
2, 8313, Note_on_c, 0, 48, 0
2, 8355, Note_on_c, 0, 60, 0
2, 8817, Note_on_c, 0, 34, 45
2, 8840, Control_c, 0, 64, 0
2, 8946, Control_c, 0, 64, 127
2, 8952, Control_c, 0, 67, 127
2, 8970, Note_on_c, 0, 34, 0
2, 9059, Note_on_c, 0, 34, 45
2, 9134, Note_on_c, 0, 34, 0
2, 9312, Note_on_c, 0, 44, 49
2, 9312, Note_on_c, 0, 56, 54
2, 9359, Control_c, 0, 67, 0
2, 9560, Control_c, 0, 64, 0
2, 9562, Note_on_c, 0, 44, 0
2, 9569, Note_on_c, 0, 58, 69
2, 9573, Note_on_c, 0, 56, 0
2, 9579, Note_on_c, 0, 46, 69
2, 9689, Control_c, 0, 64, 127
2, 9735, Note_on_c, 0, 58, 0
2, 9746, Note_on_c, 0, 46, 0
2, 9878, Note_on_c, 0, 60, 40
2, 9887, Note_on_c, 0, 48, 46
2, 9907, Control_c, 0, 64, 0
2, 10022, Control_c, 0, 64, 127
2, 10139, Note_on_c, 0, 34, 40
2, 10148, Note_on_c, 0, 48, 0
2, 10202, Note_on_c, 0, 34, 0
2, 10226, Note_on_c, 0, 60, 0
2, 10431, Note_on_c, 0, 34, 40
2, 10484, Note_on_c, 0, 34, 0
2, 10718, Note_on_c, 0, 80, 52
2, 10727, Note_on_c, 0, 76, 53
2, 10744, Note_on_c, 0, 62, 52
2, 10752, Note_on_c, 0, 50, 52
2, 10805, Note_on_c, 0, 62, 0
2, 10843, Note_on_c, 0, 50, 0
2, 10918, Note_on_c, 0, 80, 0
2, 10958, Note_on_c, 0, 76, 0
2, 10968, Control_c, 0, 67, 127
2, 11038, Note_on_c, 0, 34, 39
2, 11142, Note_on_c, 0, 78, 39
2, 11152, Note_on_c, 0, 74, 45
2, 11184, Note_on_c, 0, 74, 0
2, 11199, Note_on_c, 0, 72, 48
2, 11200, Note_on_c, 0, 76, 49
2, 11223, Note_on_c, 0, 78, 0
2, 11235, Note_on_c, 0, 34, 0
2, 11246, Note_on_c, 0, 70, 50
2, 11247, Note_on_c, 0, 74, 51
2, 11259, Note_on_c, 0, 72, 0
2, 11272, Note_on_c, 0, 76, 0
2, 11273, Control_c, 0, 64, 0
2, 11279, Note_on_c, 0, 70, 0
2, 11299, Note_on_c, 0, 74, 0
2, 11304, Note_on_c, 0, 72, 51
2, 11313, Note_on_c, 0, 68, 49
2, 11317, Note_on_c, 0, 34, 48
2, 11393, Control_c, 0, 64, 127
2, 11427, Note_on_c, 0, 34, 0
2, 11613, Note_on_c, 0, 64, 43
2, 11620, Note_on_c, 0, 52, 44
2, 11631, Control_c, 0, 67, 0
2, 11753, Note_on_c, 0, 52, 0
2, 11784, Note_on_c, 0, 64, 0
2, 11857, Note_on_c, 0, 50, 46
2, 11859, Note_on_c, 0, 62, 47
2, 12017, Note_on_c, 0, 50, 0
2, 12029, Note_on_c, 0, 62, 0
2, 12096, Note_on_c, 0, 60, 42
2, 12103, Note_on_c, 0, 48, 48
2, 12151, Note_on_c, 0, 68, 0
2, 12201, Note_on_c, 0, 60, 0
2, 12231, Note_on_c, 0, 48, 0
2, 12279, Control_c, 0, 64, 0
2, 12324, Note_on_c, 0, 80, 47
2, 12329, Note_on_c, 0, 58, 48
2, 12333, Note_on_c, 0, 76, 48
2, 12338, Note_on_c, 0, 46, 47
2, 12355, Note_on_c, 0, 72, 0
2, 12378, Control_c, 0, 64, 127
2, 12432, Note_on_c, 0, 58, 0
2, 12461, Note_on_c, 0, 46, 0
2, 12490, Note_on_c, 0, 56, 43
2, 12499, Note_on_c, 0, 44, 42
2, 12518, Note_on_c, 0, 80, 0
2, 12542, Note_on_c, 0, 44, 0
2, 12555, Note_on_c, 0, 76, 0
2, 12563, Note_on_c, 0, 56, 0
2, 12611, Control_c, 0, 67, 127
2, 12625, Control_c, 0, 64, 0
2, 12625, Note_on_c, 0, 58, 48
2, 12634, Note_on_c, 0, 46, 49
2, 12740, Note_on_c, 0, 78, 41
2, 12749, Note_on_c, 0, 74, 38
2, 12753, Control_c, 0, 64, 127
2, 12783, Note_on_c, 0, 74, 0
2, 12811, Note_on_c, 0, 76, 45
2, 12819, Note_on_c, 0, 72, 47
2, 12824, Note_on_c, 0, 78, 0
2, 12843, Note_on_c, 0, 72, 0
2, 12854, Note_on_c, 0, 76, 0
2, 12860, Note_on_c, 0, 70, 50
2, 12861, Note_on_c, 0, 74, 51
2, 12888, Control_c, 0, 64, 0
2, 12893, Note_on_c, 0, 70, 0
2, 12913, Note_on_c, 0, 74, 0
2, 12918, Note_on_c, 0, 72, 50
2, 12919, Note_on_c, 0, 68, 49
2, 13020, Control_c, 0, 64, 127
2, 13068, Note_on_c, 0, 58, 0
2, 13105, Note_on_c, 0, 46, 0
2, 13152, Note_on_c, 0, 56, 40
2, 13159, Note_on_c, 0, 44, 39
2, 13251, Note_on_c, 0, 44, 0
2, 13263, Note_on_c, 0, 56, 0
2, 13284, Note_on_c, 0, 72, 0
2, 13308, Control_c, 0, 67, 0
2, 13332, Note_on_c, 0, 68, 0
2, 13387, Control_c, 0, 64, 0
2, 13418, Note_on_c, 0, 56, 46
2, 13426, Note_on_c, 0, 44, 44
2, 13514, Control_c, 0, 64, 127
2, 13550, Note_on_c, 0, 44, 0
2, 13552, Note_on_c, 0, 56, 0
2, 13559, Note_on_c, 0, 70, 47
2, 13568, Note_on_c, 0, 66, 46
2, 13650, Note_on_c, 0, 66, 0
2, 13651, Note_on_c, 0, 70, 0
2, 13705, Control_c, 0, 64, 0
2, 13716, Note_on_c, 0, 68, 50
2, 13723, Note_on_c, 0, 34, 46
2, 13725, Note_on_c, 0, 64, 51
2, 13815, Note_on_c, 0, 64, 0
2, 13815, Note_on_c, 0, 68, 0
2, 13818, Control_c, 0, 64, 127
2, 13870, Note_on_c, 0, 66, 44
2, 13877, Note_on_c, 0, 62, 46
2, 13920, Note_on_c, 0, 62, 0
2, 13958, Note_on_c, 0, 66, 0
2, 14036, Control_c, 0, 64, 0
2, 14056, Note_on_c, 0, 60, 47
2, 14057, Note_on_c, 0, 64, 41
2, 14161, Control_c, 0, 64, 127
2, 14233, Note_on_c, 0, 34, 0
2, 14327, Note_on_c, 0, 34, 46
2, 14407, Note_on_c, 0, 34, 0
2, 14602, Note_on_c, 0, 56, 48
2, 14610, Note_on_c, 0, 44, 46
2, 14655, Note_on_c, 0, 56, 0
2, 14675, Note_on_c, 0, 44, 0
2, 14879, Note_on_c, 0, 34, 44
2, 14961, Note_on_c, 0, 34, 0
2, 14974, Note_on_c, 0, 60, 0
2, 15002, Note_on_c, 0, 64, 0
2, 15466, Note_on_c, 0, 34, 45
2, 15549, Note_on_c, 0, 34, 0
2, 15719, Control_c, 0, 64, 0
2, 15763, Note_on_c, 0, 76, 41
2, 15764, Note_on_c, 0, 80, 42
2, 15780, Note_on_c, 0, 34, 46
2, 15859, Control_c, 0, 64, 127
2, 15902, Note_on_c, 0, 34, 0
2, 15955, Note_on_c, 0, 80, 0
2, 15984, Note_on_c, 0, 76, 0
2, 16067, Note_on_c, 0, 64, 46
2, 16067, Note_on_c, 0, 68, 46
2, 16077, Note_on_c, 0, 60, 46
2, 16078, Note_on_c, 0, 56, 46
2, 16116, Note_on_c, 0, 78, 45
2, 16126, Note_on_c, 0, 74, 43
2, 16128, Note_on_c, 0, 60, 0
2, 16150, Note_on_c, 0, 56, 0
2, 16159, Note_on_c, 0, 74, 0
2, 16166, Note_on_c, 0, 76, 48
2, 16169, Note_on_c, 0, 64, 0
2, 16176, Note_on_c, 0, 72, 50
2, 16179, Note_on_c, 0, 78, 0
2, 16180, Note_on_c, 0, 68, 0
2, 16209, Note_on_c, 0, 72, 0
2, 16216, Note_on_c, 0, 74, 55
2, 16220, Note_on_c, 0, 76, 0
2, 16226, Note_on_c, 0, 70, 57
2, 16228, Control_c, 0, 64, 0
2, 16259, Note_on_c, 0, 70, 0
2, 16270, Note_on_c, 0, 74, 0
2, 16274, Note_on_c, 0, 68, 56
2, 16275, Note_on_c, 0, 72, 57
2, 16285, Note_on_c, 0, 70, 57
2, 16295, Note_on_c, 0, 58, 51
2, 16296, Note_on_c, 0, 62, 50
2, 16296, Note_on_c, 0, 66, 54
2, 16350, Control_c, 0, 64, 127
2, 16405, Note_on_c, 0, 70, 0
2, 16414, Note_on_c, 0, 58, 0
2, 16415, Note_on_c, 0, 62, 0
2, 16415, Note_on_c, 0, 68, 0
2, 16415, Note_on_c, 0, 66, 0
2, 16424, Note_on_c, 0, 72, 0
2, 16571, Note_on_c, 0, 72, 47
2, 16572, Note_on_c, 0, 68, 46
2, 16582, Note_on_c, 0, 60, 46
2, 16592, Note_on_c, 0, 64, 46
2, 16625, Note_on_c, 0, 72, 0
2, 16646, Note_on_c, 0, 68, 0
2, 16674, Note_on_c, 0, 64, 0
2, 16675, Note_on_c, 0, 60, 0
2, 16835, Note_on_c, 0, 34, 46
2, 16936, Note_on_c, 0, 34, 0
2, 17136, Note_on_c, 0, 34, 40
2, 17402, Note_on_c, 0, 80, 50
2, 17403, Note_on_c, 0, 84, 43
2, 17435, Note_on_c, 0, 84, 0
2, 17436, Note_on_c, 0, 80, 0
2, 17449, Note_on_c, 0, 78, 42
2, 17450, Note_on_c, 0, 82, 44
2, 17538, Note_on_c, 0, 34, 0
2, 17749, Note_on_c, 0, 34, 42
2, 17814, Note_on_c, 0, 78, 0
2, 17815, Note_on_c, 0, 82, 0
2, 17825, Note_on_c, 0, 34, 0
2, 18122, Control_c, 0, 64, 0
2, 18137, Note_on_c, 0, 80, 42
2, 18143, Control_c, 0, 67, 127
2, 18165, Note_on_c, 0, 76, 38
2, 18166, Note_on_c, 0, 34, 43
2, 18242, Control_c, 0, 64, 127
2, 18273, Note_on_c, 0, 34, 0
2, 18393, Note_on_c, 0, 80, 0
2, 18413, Note_on_c, 0, 76, 0
2, 18422, Control_c, 0, 67, 0
2, 18460, Note_on_c, 0, 64, 52
2, 18461, Note_on_c, 0, 68, 52
2, 18472, Note_on_c, 0, 60, 51
2, 18473, Note_on_c, 0, 56, 50
2, 18549, Note_on_c, 0, 74, 51
2, 18549, Note_on_c, 0, 78, 43
2, 18552, Note_on_c, 0, 60, 0
2, 18563, Note_on_c, 0, 56, 0
2, 18591, Note_on_c, 0, 74, 0
2, 18600, Note_on_c, 0, 78, 0
2, 18601, Note_on_c, 0, 68, 0
2, 18608, Note_on_c, 0, 76, 51
2, 18610, Note_on_c, 0, 64, 0
2, 18618, Note_on_c, 0, 72, 53
2, 18651, Note_on_c, 0, 72, 0
2, 18651, Note_on_c, 0, 76, 0
2, 18659, Note_on_c, 0, 70, 49
2, 18659, Note_on_c, 0, 74, 48
2, 18682, Note_on_c, 0, 70, 0
2, 18703, Control_c, 0, 64, 0
2, 18718, Note_on_c, 0, 58, 56
2, 18719, Note_on_c, 0, 72, 48
2, 18720, Note_on_c, 0, 62, 55
2, 18720, Note_on_c, 0, 66, 46
2, 18720, Note_on_c, 0, 68, 45
2, 18720, Note_on_c, 0, 70, 45
2, 18723, Note_on_c, 0, 74, 0
2, 18837, Control_c, 0, 64, 127
2, 18840, Note_on_c, 0, 70, 0
2, 18850, Note_on_c, 0, 62, 0
2, 18850, Note_on_c, 0, 72, 0
2, 18859, Note_on_c, 0, 58, 0
2, 18860, Note_on_c, 0, 66, 0
2, 18860, Note_on_c, 0, 68, 0
2, 18994, Note_on_c, 0, 64, 46
2, 18994, Note_on_c, 0, 68, 46
2, 18994, Note_on_c, 0, 72, 46
2, 18995, Note_on_c, 0, 60, 46
2, 19057, Note_on_c, 0, 72, 0
2, 19068, Note_on_c, 0, 68, 0
2, 19098, Note_on_c, 0, 60, 0
2, 19107, Note_on_c, 0, 64, 0
2, 19269, Note_on_c, 0, 34, 53
2, 19400, Note_on_c, 0, 34, 0
2, 19560, Note_on_c, 0, 34, 49
2, 19704, Note_on_c, 0, 34, 0
2, 19810, Note_on_c, 0, 70, 46
2, 19811, Note_on_c, 0, 74, 47
2, 19834, Note_on_c, 0, 74, 0
2, 19843, Note_on_c, 0, 70, 0
2, 19888, Note_on_c, 0, 70, 45
2, 19889, Note_on_c, 0, 74, 43
2, 20007, Note_on_c, 0, 70, 0
2, 20107, Note_on_c, 0, 34, 50
2, 20131, Note_on_c, 0, 74, 0
2, 20237, Note_on_c, 0, 34, 0
2, 20305, Note_on_c, 0, 76, 46
2, 20316, Note_on_c, 0, 72, 47
2, 20329, Note_on_c, 0, 76, 0
2, 20339, Note_on_c, 0, 72, 0
2, 20366, Note_on_c, 0, 76, 45
2, 20376, Note_on_c, 0, 72, 44
2, 20383, Note_on_c, 0, 34, 46
2, 20395, Control_c, 0, 67, 127
2, 20416, Note_on_c, 0, 34, 0
2, 20608, Note_on_c, 0, 72, 0
2, 20633, Note_on_c, 0, 68, 49
2, 20638, Control_c, 0, 67, 0
2, 20640, Note_on_c, 0, 64, 52
2, 20649, Note_on_c, 0, 60, 52
2, 20650, Note_on_c, 0, 56, 52
2, 20728, Note_on_c, 0, 60, 0
2, 20738, Note_on_c, 0, 56, 0
2, 20767, Note_on_c, 0, 64, 0
2, 20787, Note_on_c, 0, 76, 0
2, 20797, Note_on_c, 0, 68, 0
2, 20825, Note_on_c, 0, 74, 57
2, 20825, Note_on_c, 0, 78, 57
2, 20848, Note_on_c, 0, 78, 0
2, 20849, Note_on_c, 0, 74, 0
2, 20876, Control_c, 0, 64, 0
2, 20876, Note_on_c, 0, 74, 52
2, 20876, Note_on_c, 0, 78, 51
2, 20885, Note_on_c, 0, 70, 50
2, 20895, Note_on_c, 0, 58, 51
2, 20896, Note_on_c, 0, 62, 50
2, 20896, Note_on_c, 0, 66, 47
2, 20991, Note_on_c, 0, 62, 0
2, 20994, Control_c, 0, 64, 127
2, 21019, Note_on_c, 0, 58, 0
2, 21029, Note_on_c, 0, 70, 0
2, 21030, Note_on_c, 0, 66, 0
2, 21050, Note_on_c, 0, 74, 0
2, 21143, Control_c, 0, 67, 127
2, 21162, Note_on_c, 0, 72, 44
2, 21171, Note_on_c, 0, 60, 43
2, 21171, Note_on_c, 0, 64, 43
2, 21172, Note_on_c, 0, 68, 42
2, 21224, Note_on_c, 0, 72, 0
2, 21234, Note_on_c, 0, 68, 0
2, 21272, Note_on_c, 0, 60, 0
2, 21283, Note_on_c, 0, 64, 0
2, 21410, Note_on_c, 0, 34, 45
2, 21566, Note_on_c, 0, 34, 0
2, 21683, Note_on_c, 0, 76, 38
2, 21701, Note_on_c, 0, 72, 43
2, 21728, Note_on_c, 0, 34, 44
2, 21745, Note_on_c, 0, 78, 0
2, 21784, Note_on_c, 0, 72, 0
2, 21810, Note_on_c, 0, 34, 0
2, 21873, Note_on_c, 0, 76, 0
2, 21937, Note_on_c, 0, 78, 52
2, 21957, Note_on_c, 0, 74, 46
2, 21966, Control_c, 0, 64, 0
2, 22089, Control_c, 0, 64, 127
2, 22132, Control_c, 0, 64, 0
2, 22219, Control_c, 0, 64, 127
2, 22220, Note_on_c, 0, 34, 37
2, 22226, Note_on_c, 0, 74, 0
2, 22247, Note_on_c, 0, 78, 0
2, 22365, Note_on_c, 0, 34, 0
2, 22406, Note_on_c, 0, 80, 38
2, 22414, Note_on_c, 0, 76, 39
2, 22447, Note_on_c, 0, 76, 0
2, 22458, Note_on_c, 0, 80, 0
2, 22503, Note_on_c, 0, 80, 39
2, 22510, Control_c, 0, 64, 0
2, 22512, Note_on_c, 0, 76, 45
2, 22545, Note_on_c, 0, 34, 37
2, 22621, Control_c, 0, 64, 127
2, 22665, Note_on_c, 0, 34, 0
2, 22670, Note_on_c, 0, 76, 0
2, 22751, Note_on_c, 0, 80, 0
2, 23078, Note_on_c, 0, 74, 39
2, 23080, Note_on_c, 0, 86, 41
2, 23088, Note_on_c, 0, 62, 37
2, 23112, Note_on_c, 0, 86, 0
2, 23121, Note_on_c, 0, 74, 0
2, 23129, Note_on_c, 0, 62, 0
2, 23713, Note_on_c, 0, 98, 43
2, 23721, Note_on_c, 0, 74, 39
2, 23723, Note_on_c, 0, 86, 41
2, 23746, Note_on_c, 0, 86, 0
2, 23755, Note_on_c, 0, 98, 0
2, 23762, Note_on_c, 0, 74, 0
2, 24265, Note_on_c, 0, 62, 37
2, 24274, Control_c, 0, 64, 0
2, 24387, Control_c, 0, 64, 127
2, 24660, Note_on_c, 0, 68, 43
2, 24702, Note_on_c, 0, 68, 0
2, 24702, Note_on_c, 0, 62, 0
2, 24709, Note_on_c, 0, 70, 43
2, 24749, Note_on_c, 0, 70, 0
2, 24756, Note_on_c, 0, 68, 47
2, 24794, Note_on_c, 0, 66, 44
2, 24797, Note_on_c, 0, 68, 0
2, 24854, Note_on_c, 0, 68, 43
2, 24861, Note_on_c, 0, 34, 40
2, 24942, Note_on_c, 0, 34, 0
2, 24989, Note_on_c, 0, 72, 44
2, 24999, Note_on_c, 0, 64, 44
2, 25012, Note_on_c, 0, 66, 0
2, 25014, Control_c, 0, 67, 0
2, 25022, Note_on_c, 0, 68, 0
2, 25099, Note_on_c, 0, 64, 0
2, 25105, Note_on_c, 0, 70, 47
2, 25108, Note_on_c, 0, 72, 0
2, 25115, Note_on_c, 0, 66, 45
2, 25224, Note_on_c, 0, 60, 40
2, 25268, Note_on_c, 0, 66, 0
2, 25364, Note_on_c, 0, 60, 0
2, 25369, Note_on_c, 0, 54, 41
2, 25403, Note_on_c, 0, 70, 0
2, 25621, Note_on_c, 0, 68, 43
2, 25656, Note_on_c, 0, 70, 48
2, 25669, Note_on_c, 0, 68, 0
2, 25704, Note_on_c, 0, 68, 49
2, 25717, Note_on_c, 0, 70, 0
2, 25723, Note_on_c, 0, 60, 57
2, 25727, Note_on_c, 0, 54, 0
2, 25744, Note_on_c, 0, 66, 51
2, 25746, Note_on_c, 0, 60, 0
2, 25756, Note_on_c, 0, 68, 0
2, 25801, Note_on_c, 0, 62, 53
2, 25801, Note_on_c, 0, 68, 56
2, 25836, Note_on_c, 0, 66, 0
2, 25840, Note_on_c, 0, 34, 56
2, 25862, Control_c, 0, 67, 127
2, 25865, Note_on_c, 0, 62, 0
2, 25922, Note_on_c, 0, 34, 0
2, 25931, Note_on_c, 0, 72, 50
2, 25948, Note_on_c, 0, 64, 51
2, 25962, Note_on_c, 0, 68, 0
2, 26037, Note_on_c, 0, 64, 0
2, 26046, Note_on_c, 0, 72, 0
2, 26063, Note_on_c, 0, 70, 41
2, 26072, Note_on_c, 0, 66, 39
2, 26167, Note_on_c, 0, 60, 43
2, 26246, Note_on_c, 0, 66, 0
2, 26247, Note_on_c, 0, 70, 0
2, 26306, Note_on_c, 0, 54, 37
2, 26339, Note_on_c, 0, 60, 0
2, 26659, Note_on_c, 0, 68, 39
2, 26707, Note_on_c, 0, 72, 46
2, 26711, Note_on_c, 0, 68, 0
2, 26740, Control_c, 0, 67, 0
2, 26754, Note_on_c, 0, 76, 47
2, 26773, Note_on_c, 0, 60, 44
2, 26777, Note_on_c, 0, 54, 0
2, 26784, Note_on_c, 0, 80, 49
2, 26786, Note_on_c, 0, 72, 0
2, 26815, Note_on_c, 0, 80, 0
2, 26823, Note_on_c, 0, 76, 0
2, 26848, Note_on_c, 0, 78, 49
2, 26849, Note_on_c, 0, 74, 52
2, 26867, Note_on_c, 0, 62, 52
2, 26871, Note_on_c, 0, 60, 0
2, 26913, Note_on_c, 0, 76, 49
2, 26917, Note_on_c, 0, 78, 0
2, 26921, Note_on_c, 0, 74, 0
2, 26923, Note_on_c, 0, 72, 56
2, 26966, Note_on_c, 0, 72, 0
2, 26966, Note_on_c, 0, 76, 0
2, 26973, Note_on_c, 0, 70, 57
2, 26974, Note_on_c, 0, 74, 57
2, 26997, Note_on_c, 0, 62, 0
2, 27043, Control_c, 0, 67, 127
2, 27161, Note_on_c, 0, 60, 42
2, 27244, Note_on_c, 0, 70, 0
2, 27255, Note_on_c, 0, 74, 0
2, 27299, Note_on_c, 0, 54, 48
2, 27312, Note_on_c, 0, 60, 0
2, 27519, Note_on_c, 0, 72, 50
2, 27538, Note_on_c, 0, 68, 42
2, 27592, Note_on_c, 0, 68, 0
2, 27622, Note_on_c, 0, 72, 0
2, 27628, Note_on_c, 0, 70, 52
2, 27629, Note_on_c, 0, 74, 53
2, 27641, Note_on_c, 0, 54, 0
2, 27677, Note_on_c, 0, 60, 43
2, 27691, Note_on_c, 0, 70, 0
2, 27701, Note_on_c, 0, 74, 0
2, 27710, Note_on_c, 0, 60, 0
2, 27727, Note_on_c, 0, 72, 49
2, 27747, Note_on_c, 0, 68, 45
2, 27779, Note_on_c, 0, 72, 0
2, 27809, Note_on_c, 0, 68, 0
2, 27841, Note_on_c, 0, 34, 48
2, 27912, Note_on_c, 0, 66, 40
2, 27912, Note_on_c, 0, 70, 51
2, 27931, Note_on_c, 0, 64, 52
2, 27932, Note_on_c, 0, 62, 51
2, 27942, Note_on_c, 0, 68, 51
2, 27954, Control_c, 0, 64, 0
2, 27955, Note_on_c, 0, 70, 0
2, 28065, Control_c, 0, 64, 127
2, 28098, Note_on_c, 0, 34, 0
2, 28224, Note_on_c, 0, 62, 0
2, 28278, Note_on_c, 0, 60, 37
2, 28373, Control_c, 0, 67, 0
2, 28380, Note_on_c, 0, 60, 0
2, 28443, Note_on_c, 0, 54, 42
2, 28458, Note_on_c, 0, 66, 0
2, 28484, Control_c, 0, 64, 0
2, 28554, Note_on_c, 0, 64, 0
2, 28582, Note_on_c, 0, 68, 0
2, 28711, Note_on_c, 0, 70, 45
2, 28730, Note_on_c, 0, 66, 45
2, 28791, Note_on_c, 0, 66, 0
2, 28800, Note_on_c, 0, 70, 0
2, 28896, Note_on_c, 0, 70, 45
2, 28906, Note_on_c, 0, 66, 41
2, 28978, Note_on_c, 0, 70, 0
2, 28979, Note_on_c, 0, 66, 0
2, 28994, Control_c, 0, 64, 127
2, 28998, Note_on_c, 0, 54, 0
2, 29004, Note_on_c, 0, 60, 41
2, 29079, Note_on_c, 0, 64, 46
2, 29080, Note_on_c, 0, 68, 46
2, 29140, Note_on_c, 0, 60, 0
2, 29160, Note_on_c, 0, 68, 0
2, 29178, Note_on_c, 0, 64, 0
2, 29362, Control_c, 0, 67, 127
2, 29418, Note_on_c, 0, 62, 43
2, 29418, Note_on_c, 0, 66, 44
2, 29418, Note_on_c, 0, 70, 44
2, 29421, Control_c, 0, 64, 0
2, 29437, Note_on_c, 0, 64, 44
2, 29437, Note_on_c, 0, 68, 44
2, 29445, Note_on_c, 0, 34, 42
2, 29449, Note_on_c, 0, 70, 0
2, 29509, Control_c, 0, 67, 0
2, 29518, Note_on_c, 0, 66, 0
2, 29565, Control_c, 0, 64, 127
2, 29607, Note_on_c, 0, 34, 0
2, 29760, Note_on_c, 0, 62, 0
2, 29831, Note_on_c, 0, 60, 40
2, 29979, Note_on_c, 0, 54, 42
2, 30002, Note_on_c, 0, 60, 0
2, 30093, Note_on_c, 0, 64, 0
2, 30334, Note_on_c, 0, 60, 40
2, 30337, Note_on_c, 0, 54, 0
2, 30358, Note_on_c, 0, 68, 0
2, 30424, Note_on_c, 0, 60, 0
2, 30469, Note_on_c, 0, 62, 44
2, 30816, Note_on_c, 0, 60, 46
2, 30840, Note_on_c, 0, 62, 0
2, 30908, Note_on_c, 0, 60, 0
2, 30916, Control_c, 0, 64, 0
2, 30942, Note_on_c, 0, 54, 40
2, 31039, Control_c, 0, 64, 127
2, 31193, Note_on_c, 0, 68, 40
2, 31240, Note_on_c, 0, 70, 42
2, 31244, Note_on_c, 0, 68, 0
2, 31253, Note_on_c, 0, 54, 0
2, 31290, Note_on_c, 0, 60, 52
2, 31291, Note_on_c, 0, 68, 49
2, 31294, Note_on_c, 0, 70, 0
2, 31322, Note_on_c, 0, 60, 0
2, 31323, Note_on_c, 0, 68, 0
2, 31330, Note_on_c, 0, 66, 54
2, 31370, Control_c, 0, 64, 0
2, 31389, Note_on_c, 0, 68, 56
2, 31392, Note_on_c, 0, 66, 0
2, 31398, Note_on_c, 0, 62, 54
2, 31416, Note_on_c, 0, 34, 52
2, 31482, Control_c, 0, 64, 127
2, 31511, Note_on_c, 0, 72, 42
2, 31512, Note_on_c, 0, 64, 43
2, 31513, Note_on_c, 0, 34, 0
2, 31515, Note_on_c, 0, 62, 0
2, 31518, Note_on_c, 0, 68, 0
2, 31543, Note_on_c, 0, 64, 0
2, 31543, Note_on_c, 0, 72, 0
2, 31578, Note_on_c, 0, 66, 42
2, 31601, Note_on_c, 0, 66, 0
2, 31607, Note_on_c, 0, 70, 46
2, 31645, Note_on_c, 0, 74, 47
2, 31648, Note_on_c, 0, 70, 0
2, 31683, Note_on_c, 0, 68, 50
2, 31692, Note_on_c, 0, 72, 53
2, 31705, Note_on_c, 0, 74, 0
2, 31714, Note_on_c, 0, 68, 0
2, 31730, Note_on_c, 0, 76, 54
2, 31733, Note_on_c, 0, 72, 0
2, 31781, Note_on_c, 0, 76, 0
2, 31787, Note_on_c, 0, 70, 57
2, 31797, Note_on_c, 0, 80, 58
2, 31826, Note_on_c, 0, 70, 0
2, 31828, Note_on_c, 0, 80, 0
2, 31901, Note_on_c, 0, 72, 52
2, 31923, Note_on_c, 0, 72, 0
2, 31980, Note_on_c, 0, 74, 45
2, 31990, Note_on_c, 0, 68, 50
2, 32013, Note_on_c, 0, 74, 0
2, 32030, Note_on_c, 0, 70, 52
2, 32033, Note_on_c, 0, 68, 0
2, 32080, Note_on_c, 0, 70, 0
2, 32086, Note_on_c, 0, 68, 56
2, 32086, Note_on_c, 0, 76, 58
2, 32108, Note_on_c, 0, 76, 0
2, 32123, Note_on_c, 0, 66, 57
2, 32125, Control_c, 0, 64, 0
2, 32127, Note_on_c, 0, 68, 0
2, 32184, Note_on_c, 0, 66, 0
2, 32189, Note_on_c, 0, 68, 55
2, 32190, Note_on_c, 0, 62, 42
2, 32211, Note_on_c, 0, 62, 0
2, 32216, Note_on_c, 0, 34, 40
2, 32253, Control_c, 0, 64, 127
2, 32305, Note_on_c, 0, 34, 0
2, 32313, Note_on_c, 0, 64, 48
2, 32313, Note_on_c, 0, 72, 48
2, 32335, Note_on_c, 0, 68, 0
2, 32344, Note_on_c, 0, 72, 0
2, 32344, Note_on_c, 0, 64, 0
2, 32377, Note_on_c, 0, 66, 47
2, 32404, Note_on_c, 0, 70, 51
2, 32426, Note_on_c, 0, 66, 0
2, 32445, Note_on_c, 0, 70, 0
2, 32451, Note_on_c, 0, 74, 54
2, 32491, Note_on_c, 0, 72, 55
2, 32499, Note_on_c, 0, 68, 57
2, 32512, Note_on_c, 0, 74, 0
2, 32532, Note_on_c, 0, 68, 0
2, 32549, Note_on_c, 0, 76, 59
2, 32562, Note_on_c, 0, 72, 0
2, 32600, Note_on_c, 0, 80, 62
2, 32612, Note_on_c, 0, 76, 0
2, 32618, Note_on_c, 0, 70, 62
2, 32700, Note_on_c, 0, 80, 0
2, 32709, Note_on_c, 0, 70, 0
2, 32714, Note_on_c, 0, 72, 53
2, 32775, Note_on_c, 0, 72, 0
2, 32810, Note_on_c, 0, 74, 55
2, 32848, Note_on_c, 0, 82, 57
2, 32859, Note_on_c, 0, 74, 0
2, 32887, Note_on_c, 0, 82, 0
2, 32893, Note_on_c, 0, 80, 58
2, 32902, Note_on_c, 0, 76, 58
2, 32939, Note_on_c, 0, 82, 59
2, 32951, Note_on_c, 0, 76, 0
2, 32970, Note_on_c, 0, 80, 0
2, 32976, Control_c, 0, 64, 0
2, 32984, Note_on_c, 0, 74, 60
2, 32989, Note_on_c, 0, 82, 0
2, 33003, Note_on_c, 0, 78, 63
2, 33004, Note_on_c, 0, 84, 66
2, 33045, Note_on_c, 0, 78, 0
2, 33050, Note_on_c, 0, 79, 62
2, 33074, Note_on_c, 0, 84, 0
2, 33092, Note_on_c, 0, 80, 64
2, 33106, Control_c, 0, 64, 127
2, 33128, Note_on_c, 0, 76, 60
2, 33143, Note_on_c, 0, 80, 0
2, 33171, Note_on_c, 0, 76, 0
2, 33171, Note_on_c, 0, 74, 0
2, 33190, Note_on_c, 0, 86, 55
2, 33209, Note_on_c, 0, 85, 54
2, 33232, Note_on_c, 0, 79, 0
2, 33233, Note_on_c, 0, 86, 0
2, 33249, Note_on_c, 0, 84, 58
2, 33299, Note_on_c, 0, 85, 0
2, 33317, Note_on_c, 0, 84, 0
2, 33331, Note_on_c, 0, 76, 57
2, 33380, Control_c, 0, 64, 0
2, 33382, Note_on_c, 0, 76, 0
2, 33397, Note_on_c, 0, 74, 60
2, 33408, Note_on_c, 0, 78, 62
2, 33408, Note_on_c, 0, 84, 65
2, 33450, Note_on_c, 0, 78, 0
2, 33457, Note_on_c, 0, 79, 57
2, 33480, Note_on_c, 0, 84, 0
2, 33496, Note_on_c, 0, 80, 53
2, 33511, Control_c, 0, 64, 127
2, 33532, Note_on_c, 0, 76, 52
2, 33546, Note_on_c, 0, 74, 0
2, 33556, Note_on_c, 0, 80, 0
2, 33581, Note_on_c, 0, 86, 50
2, 33583, Note_on_c, 0, 76, 0
2, 33594, Note_on_c, 0, 79, 0
2, 33609, Note_on_c, 0, 85, 49
2, 33641, Note_on_c, 0, 86, 0
2, 33646, Note_on_c, 0, 84, 53
2, 33689, Note_on_c, 0, 85, 0
2, 33709, Note_on_c, 0, 84, 0
2, 33754, Note_on_c, 0, 76, 52
2, 33808, Note_on_c, 0, 76, 0
2, 33816, Control_c, 0, 64, 0
2, 33864, Note_on_c, 0, 80, 48
2, 33864, Note_on_c, 0, 84, 54
2, 33873, Note_on_c, 0, 74, 53
2, 33937, Control_c, 0, 64, 127
2, 33988, Note_on_c, 0, 76, 49
2, 34003, Note_on_c, 0, 74, 0
2, 34013, Note_on_c, 0, 84, 0
2, 34032, Note_on_c, 0, 76, 0
2, 34078, Control_c, 0, 67, 127
2, 34099, Note_on_c, 0, 86, 57
2, 34141, Note_on_c, 0, 80, 0
2, 34151, Note_on_c, 0, 86, 0
2, 34220, Note_on_c, 0, 76, 54
2, 34251, Note_on_c, 0, 76, 0
2, 34336, Note_on_c, 0, 74, 47
2, 34350, Control_c, 0, 67, 0
2, 34368, Note_on_c, 0, 74, 0
2, 34483, Note_on_c, 0, 76, 46
2, 34514, Note_on_c, 0, 76, 0
2, 34617, Note_on_c, 0, 86, 47
2, 34687, Note_on_c, 0, 86, 0
2, 34786, Note_on_c, 0, 76, 40
2, 34836, Note_on_c, 0, 76, 0
2, 34898, Control_c, 0, 64, 0
2, 34958, Note_on_c, 0, 74, 41
2, 34974, Note_on_c, 0, 34, 46
2, 35033, Control_c, 0, 64, 127
2, 35050, Note_on_c, 0, 74, 0
2, 35094, Note_on_c, 0, 34, 0
2, 35142, Note_on_c, 0, 76, 43
2, 35193, Note_on_c, 0, 76, 0
2, 35285, Note_on_c, 0, 86, 48
2, 35291, Note_on_c, 0, 64, 46
2, 35292, Note_on_c, 0, 68, 46
2, 35301, Note_on_c, 0, 56, 46
2, 35301, Note_on_c, 0, 60, 46
2, 35312, Note_on_c, 0, 80, 49
2, 35370, Note_on_c, 0, 60, 0
2, 35378, Note_on_c, 0, 56, 0
2, 35390, Note_on_c, 0, 86, 0
2, 35398, Note_on_c, 0, 64, 0
2, 35407, Note_on_c, 0, 68, 0
2, 35423, Note_on_c, 0, 76, 49
2, 35472, Note_on_c, 0, 76, 0
2, 35494, Note_on_c, 0, 80, 0
2, 35525, Note_on_c, 0, 70, 56
2, 35534, Note_on_c, 0, 58, 56
2, 35535, Note_on_c, 0, 62, 56
2, 35536, Note_on_c, 0, 66, 56
2, 35537, Note_on_c, 0, 74, 57
2, 35557, Note_on_c, 0, 82, 61
2, 35568, Note_on_c, 0, 74, 0
2, 35606, Note_on_c, 0, 58, 0
2, 35607, Note_on_c, 0, 62, 0
2, 35617, Note_on_c, 0, 70, 0
2, 35627, Note_on_c, 0, 66, 0
2, 35664, Note_on_c, 0, 76, 55
2, 35706, Note_on_c, 0, 76, 0
2, 35726, Note_on_c, 0, 82, 0
2, 35730, Control_c, 0, 64, 0
2, 35760, Note_on_c, 0, 86, 55
2, 35777, Note_on_c, 0, 68, 56
2, 35777, Note_on_c, 0, 72, 56
2, 35779, Note_on_c, 0, 84, 57
2, 35784, Note_on_c, 0, 64, 54
2, 35785, Note_on_c, 0, 60, 52
2, 35847, Control_c, 0, 64, 127
2, 35874, Note_on_c, 0, 72, 0
2, 35879, Note_on_c, 0, 76, 49
2, 35912, Note_on_c, 0, 86, 0
2, 35928, Note_on_c, 0, 68, 0
2, 35935, Note_on_c, 0, 76, 0
2, 35957, Note_on_c, 0, 84, 0
2, 35990, Note_on_c, 0, 74, 50
2, 36009, Note_on_c, 0, 60, 0
2, 36021, Note_on_c, 0, 74, 0
2, 36028, Note_on_c, 0, 64, 0
2, 36093, Note_on_c, 0, 76, 49
2, 36135, Note_on_c, 0, 76, 0
2, 36214, Note_on_c, 0, 86, 53
2, 36256, Note_on_c, 0, 86, 0
2, 36317, Note_on_c, 0, 76, 50
2, 36368, Note_on_c, 0, 76, 0
2, 36440, Note_on_c, 0, 74, 42
2, 36442, Note_on_c, 0, 86, 52
2, 36448, Note_on_c, 0, 62, 40
2, 36449, Note_on_c, 0, 70, 52
2, 36450, Note_on_c, 0, 66, 51
2, 36491, Note_on_c, 0, 74, 0
2, 36540, Note_on_c, 0, 86, 0
2, 36563, Note_on_c, 0, 76, 52
2, 36576, Note_on_c, 0, 62, 0
2, 36603, Note_on_c, 0, 70, 0
2, 36613, Note_on_c, 0, 66, 0
2, 36613, Note_on_c, 0, 76, 0
2, 36668, Note_on_c, 0, 86, 53
2, 36728, Note_on_c, 0, 86, 0
2, 36781, Note_on_c, 0, 76, 51
2, 36814, Note_on_c, 0, 76, 0
2, 36892, Note_on_c, 0, 74, 51
2, 36923, Note_on_c, 0, 74, 0
2, 37005, Note_on_c, 0, 76, 57
2, 37046, Note_on_c, 0, 76, 0
2, 37122, Note_on_c, 0, 88, 45
2, 37129, Note_on_c, 0, 76, 42
2, 37131, Note_on_c, 0, 86, 44
2, 37138, Note_on_c, 0, 64, 39
2, 37139, Note_on_c, 0, 68, 40
2, 37139, Note_on_c, 0, 72, 41
2, 37208, Note_on_c, 0, 76, 0
2, 37226, Note_on_c, 0, 72, 0
2, 37227, Note_on_c, 0, 68, 0
2, 37239, Note_on_c, 0, 88, 0
2, 37240, Note_on_c, 0, 86, 0
2, 37244, Note_on_c, 0, 76, 46
2, 37247, Note_on_c, 0, 64, 0
2, 37285, Note_on_c, 0, 76, 0
2, 37342, Note_on_c, 0, 86, 51
2, 37350, Note_on_c, 0, 62, 40
2, 37350, Note_on_c, 0, 74, 57
2, 37360, Note_on_c, 0, 66, 54
2, 37360, Note_on_c, 0, 70, 54
2, 37392, Note_on_c, 0, 74, 0
2, 37408, Control_c, 0, 67, 127
2, 37430, Note_on_c, 0, 62, 0
2, 37440, Note_on_c, 0, 70, 0
2, 37440, Note_on_c, 0, 66, 0
2, 37451, Note_on_c, 0, 86, 0
2, 37466, Note_on_c, 0, 76, 46
2, 37509, Note_on_c, 0, 76, 0
2, 37511, Control_c, 0, 67, 0
2, 37553, Note_on_c, 0, 84, 51
2, 37560, Note_on_c, 0, 72, 54
2, 37562, Note_on_c, 0, 86, 57
2, 37569, Note_on_c, 0, 60, 46
2, 37569, Note_on_c, 0, 64, 55
2, 37570, Note_on_c, 0, 68, 56
2, 37620, Note_on_c, 0, 72, 0
2, 37648, Note_on_c, 0, 60, 0
2, 37658, Note_on_c, 0, 64, 0
2, 37658, Note_on_c, 0, 68, 0
2, 37675, Note_on_c, 0, 76, 44
2, 37698, Note_on_c, 0, 84, 0
2, 37716, Note_on_c, 0, 76, 0
2, 37755, Note_on_c, 0, 86, 0
2, 37770, Note_on_c, 0, 82, 54
2, 37776, Note_on_c, 0, 58, 46
2, 37777, Note_on_c, 0, 66, 53
2, 37777, Note_on_c, 0, 70, 55
2, 37787, Note_on_c, 0, 62, 45
2, 37819, Note_on_c, 0, 70, 0
2, 37828, Note_on_c, 0, 62, 0
2, 37836, Note_on_c, 0, 58, 0
2, 37838, Note_on_c, 0, 66, 0
2, 37876, Note_on_c, 0, 82, 0
2, 37909, Note_on_c, 0, 74, 58
2, 37911, Note_on_c, 0, 80, 58
2, 37916, Note_on_c, 0, 60, 52
2, 37918, Note_on_c, 0, 56, 52
2, 37918, Note_on_c, 0, 64, 57
2, 37919, Note_on_c, 0, 68, 56
2, 37941, Note_on_c, 0, 74, 0
2, 37951, Note_on_c, 0, 80, 0
2, 37959, Note_on_c, 0, 60, 0
2, 37968, Note_on_c, 0, 56, 0
2, 37997, Note_on_c, 0, 64, 0
2, 37998, Note_on_c, 0, 68, 0
2, 38044, Control_c, 0, 64, 0
2, 38094, Note_on_c, 0, 82, 55
2, 38094, Note_on_c, 0, 86, 60
2, 38102, Note_on_c, 0, 70, 59
2, 38103, Note_on_c, 0, 66, 59
2, 38111, Note_on_c, 0, 58, 50
2, 38112, Note_on_c, 0, 62, 51
2, 38184, Control_c, 0, 64, 127
2, 38225, Note_on_c, 0, 76, 44
2, 38230, Note_on_c, 0, 86, 0
2, 38265, Note_on_c, 0, 70, 0
2, 38275, Note_on_c, 0, 76, 0
2, 38347, Note_on_c, 0, 74, 43
2, 38379, Note_on_c, 0, 74, 0
2, 38388, Note_on_c, 0, 62, 0
2, 38433, Note_on_c, 0, 66, 0
2, 38457, Note_on_c, 0, 76, 47
2, 38461, Note_on_c, 0, 58, 0
2, 38497, Note_on_c, 0, 76, 0
2, 38537, Note_on_c, 0, 82, 0
2, 38553, Control_c, 0, 64, 0
2, 38571, Note_on_c, 0, 86, 53
2, 38572, Note_on_c, 0, 80, 52
2, 38581, Note_on_c, 0, 68, 52
2, 38590, Note_on_c, 0, 60, 40
2, 38590, Note_on_c, 0, 64, 49
2, 38591, Note_on_c, 0, 56, 40
2, 38665, Control_c, 0, 64, 127
2, 38682, Note_on_c, 0, 86, 0
2, 38706, Note_on_c, 0, 76, 58
2, 38708, Note_on_c, 0, 60, 0
2, 38717, Note_on_c, 0, 68, 0
2, 38717, Note_on_c, 0, 56, 0
2, 38736, Note_on_c, 0, 76, 0
2, 38736, Note_on_c, 0, 64, 0
2, 38746, Note_on_c, 0, 80, 0
2, 38819, Control_c, 0, 64, 0
2, 38835, Note_on_c, 0, 80, 61
2, 38844, Note_on_c, 0, 68, 61
2, 38853, Note_on_c, 0, 60, 55
2, 38854, Note_on_c, 0, 64, 59
2, 38855, Note_on_c, 0, 56, 54
2, 38855, Note_on_c, 0, 74, 59
2, 38904, Note_on_c, 0, 74, 0
2, 38922, Note_on_c, 0, 68, 0
2, 38927, Control_c, 0, 64, 127
2, 38965, Note_on_c, 0, 76, 56
2, 38979, Note_on_c, 0, 80, 0
2, 39006, Note_on_c, 0, 56, 0
2, 39016, Note_on_c, 0, 76, 0
2, 39016, Note_on_c, 0, 60, 0
2, 39025, Note_on_c, 0, 64, 0
2, 39078, Note_on_c, 0, 86, 49
2, 39139, Note_on_c, 0, 86, 0
2, 39204, Note_on_c, 0, 76, 45
2, 39237, Note_on_c, 0, 76, 0
2, 39337, Note_on_c, 0, 34, 54
2, 39339, Note_on_c, 0, 74, 58
2, 39380, Note_on_c, 0, 74, 0
2, 39471, Note_on_c, 0, 76, 50
2, 39503, Note_on_c, 0, 76, 0
2, 39612, Note_on_c, 0, 86, 44
2, 39675, Note_on_c, 0, 86, 0
2, 39726, Note_on_c, 0, 34, 0
2, 39763, Note_on_c, 0, 76, 47
2, 39806, Note_on_c, 0, 76, 0
2, 39914, Control_c, 0, 64, 0
2, 39950, Note_on_c, 0, 66, 46
2, 39979, Note_on_c, 0, 62, 51
2, 39980, Note_on_c, 0, 56, 49
2, 39997, Note_on_c, 0, 34, 48
2, 40036, Control_c, 0, 64, 127
2, 40040, Note_on_c, 0, 56, 0
2, 40050, Note_on_c, 0, 62, 0
2, 40079, Note_on_c, 0, 66, 0
2, 40126, Note_on_c, 0, 34, 0
2, 40142, Note_on_c, 0, 66, 41
2, 40142, Note_on_c, 0, 70, 42
2, 40160, Note_on_c, 0, 58, 41
2, 40191, Note_on_c, 0, 58, 0
2, 40210, Note_on_c, 0, 66, 0
2, 40256, Note_on_c, 0, 70, 0
2, 40300, Note_on_c, 0, 68, 41
2, 40310, Note_on_c, 0, 66, 41
2, 40319, Note_on_c, 0, 60, 41
2, 40360, Note_on_c, 0, 60, 0
2, 40424, Note_on_c, 0, 50, 44
2, 40466, Note_on_c, 0, 66, 0
2, 40487, Note_on_c, 0, 68, 0
2, 40514, Note_on_c, 0, 50, 0
2, 40547, Note_on_c, 0, 62, 51
2, 40640, Note_on_c, 0, 72, 43
2, 40748, Note_on_c, 0, 72, 0
2, 40753, Note_on_c, 0, 70, 53
2, 40773, Note_on_c, 0, 60, 51
2, 40785, Note_on_c, 0, 62, 0
2, 40822, Note_on_c, 0, 60, 0
2, 40840, Note_on_c, 0, 70, 0
2, 40864, Note_on_c, 0, 74, 49
2, 40872, Note_on_c, 0, 58, 52
2, 40895, Note_on_c, 0, 74, 0
2, 40903, Note_on_c, 0, 58, 0
2, 40978, Note_on_c, 0, 66, 49
2, 40988, Note_on_c, 0, 62, 46
2, 40998, Note_on_c, 0, 56, 48
2, 41007, Note_on_c, 0, 34, 49
2, 41049, Note_on_c, 0, 56, 0
2, 41059, Note_on_c, 0, 62, 0
2, 41078, Note_on_c, 0, 66, 0
2, 41098, Note_on_c, 0, 34, 0
2, 41122, Note_on_c, 0, 58, 45
2, 41122, Note_on_c, 0, 70, 58
2, 41141, Note_on_c, 0, 66, 55
2, 41163, Note_on_c, 0, 66, 0
2, 41173, Note_on_c, 0, 58, 0
2, 41231, Note_on_c, 0, 70, 0
2, 41255, Note_on_c, 0, 66, 46
2, 41256, Note_on_c, 0, 60, 46
2, 41256, Note_on_c, 0, 68, 47
2, 41334, Note_on_c, 0, 60, 0
2, 41340, Note_on_c, 0, 50, 57
2, 41390, Note_on_c, 0, 66, 0
2, 41400, Note_on_c, 0, 50, 0
2, 41400, Note_on_c, 0, 68, 0
2, 41451, Note_on_c, 0, 62, 51
2, 41544, Note_on_c, 0, 72, 42
2, 41651, Note_on_c, 0, 60, 48
2, 41653, Note_on_c, 0, 72, 0
2, 41681, Note_on_c, 0, 70, 50
2, 41694, Note_on_c, 0, 62, 0
2, 41770, Note_on_c, 0, 60, 0
2, 41775, Note_on_c, 0, 58, 41
2, 41784, Note_on_c, 0, 74, 65
2, 41815, Note_on_c, 0, 70, 0
2, 41904, Note_on_c, 0, 62, 42
2, 41907, Note_on_c, 0, 58, 0
2, 41921, Note_on_c, 0, 66, 52
2, 41922, Note_on_c, 0, 68, 52
2, 41925, Note_on_c, 0, 74, 0
2, 42015, Note_on_c, 0, 60, 52
2, 42018, Note_on_c, 0, 62, 0
2, 42031, Note_on_c, 0, 72, 58
2, 42100, Note_on_c, 0, 68, 0
2, 42105, Note_on_c, 0, 58, 60
2, 42117, Note_on_c, 0, 70, 62
2, 42120, Note_on_c, 0, 60, 0
2, 42133, Control_c, 0, 67, 127
2, 42159, Note_on_c, 0, 72, 0
2, 42169, Note_on_c, 0, 66, 0
2, 42177, Note_on_c, 0, 56, 58
2, 42189, Note_on_c, 0, 58, 0
2, 42205, Note_on_c, 0, 74, 56
2, 42235, Note_on_c, 0, 54, 57
2, 42236, Control_c, 0, 67, 0
2, 42239, Note_on_c, 0, 56, 0
2, 42247, Note_on_c, 0, 70, 0
2, 42296, Note_on_c, 0, 54, 0
2, 42302, Note_on_c, 0, 68, 58
2, 42303, Note_on_c, 0, 66, 59
2, 42312, Note_on_c, 0, 62, 64
2, 42354, Note_on_c, 0, 74, 0
2, 42405, Note_on_c, 0, 72, 54
2, 42406, Note_on_c, 0, 60, 55
2, 42418, Note_on_c, 0, 62, 0
2, 42489, Note_on_c, 0, 58, 56
2, 42490, Note_on_c, 0, 70, 67
2, 42493, Note_on_c, 0, 60, 0
2, 42502, Note_on_c, 0, 72, 0
2, 42554, Note_on_c, 0, 56, 70
2, 42566, Note_on_c, 0, 58, 0
2, 42592, Note_on_c, 0, 74, 73
2, 42623, Note_on_c, 0, 68, 0
2, 42632, Note_on_c, 0, 66, 0
2, 42633, Note_on_c, 0, 56, 0
2, 42638, Note_on_c, 0, 54, 73
2, 42653, Control_c, 0, 67, 127
2, 42670, Note_on_c, 0, 54, 0
2, 42714, Note_on_c, 0, 68, 62
2, 42715, Note_on_c, 0, 66, 60
2, 42734, Note_on_c, 0, 62, 60
2, 42764, Control_c, 0, 67, 0
2, 42785, Note_on_c, 0, 70, 0
2, 42871, Note_on_c, 0, 60, 54
2, 42885, Note_on_c, 0, 62, 0
2, 43013, Note_on_c, 0, 58, 57
2, 43018, Note_on_c, 0, 60, 0
2, 43214, Note_on_c, 0, 56, 49
2, 43245, Note_on_c, 0, 58, 0
2, 43357, Note_on_c, 0, 74, 0
2, 43396, Note_on_c, 0, 66, 0
2, 43396, Note_on_c, 0, 68, 0
2, 43446, Note_on_c, 0, 56, 0
2, 43601, Note_on_c, 0, 58, 40
2, 43735, Note_on_c, 0, 58, 0
2, 43826, Note_on_c, 0, 56, 46
2, 43998, Control_c, 0, 64, 0
2, 44042, Note_on_c, 0, 34, 46
2, 44137, Control_c, 0, 64, 127
2, 44196, Note_on_c, 0, 34, 0
2, 44197, Note_on_c, 0, 56, 0
2, 44210, Note_on_c, 0, 58, 47
2, 44299, Note_on_c, 0, 58, 0
2, 44314, Note_on_c, 0, 56, 57
2, 44377, Note_on_c, 0, 54, 54
2, 44417, Note_on_c, 0, 54, 0
2, 44418, Note_on_c, 0, 56, 0
2, 44449, Note_on_c, 0, 51, 50
2, 44506, Note_on_c, 0, 54, 53
2, 44516, Note_on_c, 0, 56, 55
2, 44534, Note_on_c, 0, 58, 56
2, 44555, Note_on_c, 0, 61, 56
2, 44557, Note_on_c, 0, 54, 0
2, 44565, Note_on_c, 0, 63, 56
2, 44568, Note_on_c, 0, 56, 0
2, 44584, Note_on_c, 0, 66, 48
2, 44603, Note_on_c, 0, 68, 51
2, 44613, Note_on_c, 0, 70, 55
2, 44613, Note_on_c, 0, 73, 56
2, 44616, Note_on_c, 0, 63, 0
2, 44625, Note_on_c, 0, 66, 0
2, 44635, Note_on_c, 0, 70, 0
2, 44636, Note_on_c, 0, 68, 0
2, 44645, Note_on_c, 0, 73, 0
2, 44652, Note_on_c, 0, 75, 62
2, 44671, Note_on_c, 0, 78, 63
2, 44700, Note_on_c, 0, 80, 68
2, 44712, Note_on_c, 0, 78, 0
2, 44730, Note_on_c, 0, 82, 72
2, 44751, Note_on_c, 0, 80, 0
2, 44757, Note_on_c, 0, 85, 69
2, 44760, Note_on_c, 0, 82, 0
2, 44786, Note_on_c, 0, 75, 0
2, 44913, Note_on_c, 0, 58, 0
2, 44924, Note_on_c, 0, 61, 0
2, 44957, Note_on_c, 0, 82, 43
2, 44962, Note_on_c, 0, 85, 0
2, 44989, Note_on_c, 0, 82, 0
2, 45015, Note_on_c, 0, 51, 0
2, 45181, Note_on_c, 0, 56, 47
2, 45181, Note_on_c, 0, 68, 47
2, 45213, Note_on_c, 0, 56, 0
2, 45232, Note_on_c, 0, 68, 0
2, 45323, Note_on_c, 0, 58, 42
2, 45324, Note_on_c, 0, 70, 58
2, 45356, Note_on_c, 0, 70, 0
2, 45363, Note_on_c, 0, 58, 0
2, 45408, Note_on_c, 0, 68, 57
2, 45417, Note_on_c, 0, 56, 50
2, 45430, Note_on_c, 0, 68, 0
2, 45438, Note_on_c, 0, 56, 0
2, 45482, Note_on_c, 0, 66, 51
2, 45491, Note_on_c, 0, 54, 51
2, 45504, Note_on_c, 0, 66, 0
2, 45513, Note_on_c, 0, 54, 0
2, 45546, Note_on_c, 0, 34, 52
2, 45549, Note_on_c, 0, 56, 55
2, 45550, Note_on_c, 0, 68, 49
2, 45580, Note_on_c, 0, 68, 0
2, 45580, Note_on_c, 0, 56, 0
2, 45587, Note_on_c, 0, 34, 0
2, 45613, Note_on_c, 0, 58, 51
2, 45615, Note_on_c, 0, 70, 51
2, 45635, Note_on_c, 0, 58, 0
2, 45636, Note_on_c, 0, 70, 0
2, 45660, Note_on_c, 0, 68, 50
2, 45669, Note_on_c, 0, 56, 53
2, 45692, Note_on_c, 0, 68, 0
2, 45700, Note_on_c, 0, 56, 0
2, 45718, Note_on_c, 0, 66, 52
2, 45726, Note_on_c, 0, 54, 53
2, 45749, Note_on_c, 0, 54, 0
2, 45760, Note_on_c, 0, 66, 0
2, 45765, Note_on_c, 0, 51, 57
2, 45767, Note_on_c, 0, 63, 58
2, 45783, Note_on_c, 0, 54, 61
2, 45789, Note_on_c, 0, 63, 0
2, 45794, Note_on_c, 0, 56, 64
2, 45812, Note_on_c, 0, 58, 65
2, 45815, Note_on_c, 0, 51, 0
2, 45825, Note_on_c, 0, 54, 0
2, 45834, Note_on_c, 0, 61, 61
2, 45836, Note_on_c, 0, 56, 0
2, 45845, Note_on_c, 0, 58, 0
2, 45853, Note_on_c, 0, 63, 64
2, 45856, Note_on_c, 0, 61, 0
2, 45863, Note_on_c, 0, 66, 61
2, 45872, Note_on_c, 0, 68, 62
2, 45872, Note_on_c, 0, 70, 64
2, 45873, Note_on_c, 0, 73, 63
2, 45876, Note_on_c, 0, 63, 0
2, 45886, Note_on_c, 0, 66, 0
2, 45895, Note_on_c, 0, 70, 0
2, 45895, Note_on_c, 0, 68, 0
2, 45906, Note_on_c, 0, 73, 0
2, 45912, Note_on_c, 0, 75, 64
2, 45940, Note_on_c, 0, 78, 65
2, 45960, Note_on_c, 0, 80, 67
2, 45961, Note_on_c, 0, 75, 0
2, 45962, Note_on_c, 0, 78, 0
2, 45968, Note_on_c, 0, 82, 73
2, 45978, Note_on_c, 0, 85, 74
2, 45982, Note_on_c, 0, 80, 0
2, 45987, Note_on_c, 0, 87, 73
2, 45990, Note_on_c, 0, 82, 0
2, 46007, Note_on_c, 0, 90, 74
2, 46009, Note_on_c, 0, 85, 0
2, 46015, Note_on_c, 0, 92, 75
2, 46025, Note_on_c, 0, 94, 74
2, 46037, Note_on_c, 0, 90, 0
2, 46054, Note_on_c, 0, 97, 74
2, 46056, Note_on_c, 0, 92, 0
2, 46066, Note_on_c, 0, 94, 0
2, 46075, Note_on_c, 0, 52, 67
2, 46091, Note_on_c, 0, 52, 0
2, 46104, Note_on_c, 0, 87, 0
2, 46224, Note_on_c, 0, 94, 60
2, 46255, Note_on_c, 0, 97, 0
2, 46264, Note_on_c, 0, 94, 0
2, 46411, Note_on_c, 0, 68, 52
2, 46412, Note_on_c, 0, 75, 53
2, 46413, Note_on_c, 0, 80, 53
2, 46429, Note_on_c, 0, 58, 52
2, 46438, Note_on_c, 0, 51, 51
2, 46453, Note_on_c, 0, 68, 0
2, 46464, Note_on_c, 0, 80, 0
2, 46482, Note_on_c, 0, 75, 0
2, 46523, Note_on_c, 0, 70, 60
2, 46525, Note_on_c, 0, 82, 65
2, 46526, Note_on_c, 0, 51, 0
2, 46554, Note_on_c, 0, 70, 0
2, 46556, Note_on_c, 0, 82, 0
2, 46588, Note_on_c, 0, 80, 60
2, 46596, Note_on_c, 0, 68, 60
2, 46597, Note_on_c, 0, 73, 62
2, 46604, Note_on_c, 0, 54, 57
2, 46605, Note_on_c, 0, 61, 58
2, 46618, Note_on_c, 0, 68, 0
2, 46620, Note_on_c, 0, 80, 0
2, 46626, Note_on_c, 0, 58, 0
2, 46628, Note_on_c, 0, 73, 0
2, 46636, Note_on_c, 0, 61, 0
2, 46636, Note_on_c, 0, 54, 0
2, 46653, Note_on_c, 0, 66, 59
2, 46654, Note_on_c, 0, 78, 62
2, 46676, Note_on_c, 0, 78, 0
2, 46684, Note_on_c, 0, 66, 0
2, 46691, Note_on_c, 0, 75, 60
2, 46701, Note_on_c, 0, 68, 60
2, 46703, Note_on_c, 0, 80, 63
2, 46717, Note_on_c, 0, 58, 72
2, 46719, Note_on_c, 0, 63, 74
2, 46723, Note_on_c, 0, 68, 0
2, 46724, Note_on_c, 0, 75, 0
2, 46734, Note_on_c, 0, 80, 0
2, 46747, Note_on_c, 0, 70, 59
2, 46749, Note_on_c, 0, 58, 0
2, 46749, Note_on_c, 0, 82, 63
2, 46768, Note_on_c, 0, 70, 0
2, 46770, Note_on_c, 0, 82, 0
2, 46787, Note_on_c, 0, 63, 0
2, 46793, Note_on_c, 0, 61, 73
2, 46793, Note_on_c, 0, 66, 58
2, 46794, Note_on_c, 0, 78, 60
2, 46802, Note_on_c, 0, 73, 61
2, 46804, Note_on_c, 0, 85, 65
2, 46814, Note_on_c, 0, 61, 0
2, 46824, Note_on_c, 0, 73, 0
2, 46824, Note_on_c, 0, 66, 0
2, 46824, Note_on_c, 0, 78, 0
2, 46826, Note_on_c, 0, 85, 0
2, 46840, Note_on_c, 0, 75, 71
2, 46841, Note_on_c, 0, 87, 74
2, 46862, Note_on_c, 0, 75, 0
2, 46872, Note_on_c, 0, 87, 0
2, 46944, Note_on_c, 0, 80, 71
2, 46952, Note_on_c, 0, 73, 95
2, 46953, Note_on_c, 0, 63, 104
2, 46953, Note_on_c, 0, 68, 95
2, 46954, Note_on_c, 0, 85, 99
2, 46955, Note_on_c, 0, 92, 100
2, 46975, Note_on_c, 0, 63, 0
2, 46985, Note_on_c, 0, 68, 0
2, 46986, Note_on_c, 0, 73, 0
2, 47380, Note_on_c, 0, 92, 0
2, 47416, Note_on_c, 0, 85, 0
2, 47424, Note_on_c, 0, 80, 0
2, 47656, Note_on_c, 0, 87, 60
2, 47664, Note_on_c, 0, 75, 42
2, 47713, Note_on_c, 0, 75, 0
2, 47715, Note_on_c, 0, 87, 0
2, 47909, Note_on_c, 0, 73, 45
2, 47911, Note_on_c, 0, 85, 44
2, 47957, Note_on_c, 0, 73, 0
2, 47968, Note_on_c, 0, 85, 0
2, 48268, Note_on_c, 0, 82, 55
2, 48276, Note_on_c, 0, 70, 47
2, 48449, Note_on_c, 0, 82, 0
2, 48466, Note_on_c, 0, 70, 0
2, 48716, Control_c, 0, 64, 0
2, 48773, Note_on_c, 0, 61, 40
2, 48773, Note_on_c, 0, 68, 41
2, 48774, Note_on_c, 0, 73, 41
2, 48783, Note_on_c, 0, 49, 41
2, 48793, Note_on_c, 0, 56, 41
2, 48835, Note_on_c, 0, 75, 42
2, 48870, Control_c, 0, 64, 127
2, 48876, Note_on_c, 0, 61, 0
2, 48877, Note_on_c, 0, 75, 0
2, 48885, Note_on_c, 0, 49, 0
2, 48887, Note_on_c, 0, 68, 0
2, 48888, Note_on_c, 0, 73, 0
2, 48896, Note_on_c, 0, 56, 0
2, 48931, Note_on_c, 0, 75, 43
2, 48939, Note_on_c, 0, 66, 46
2, 48940, Control_c, 0, 64, 0
2, 48947, Note_on_c, 0, 51, 47
2, 48948, Note_on_c, 0, 54, 48
2, 48949, Note_on_c, 0, 63, 49
2, 49040, Control_c, 0, 64, 127
2, 49064, Note_on_c, 0, 54, 0
2, 49073, Note_on_c, 0, 51, 0
2, 49125, Note_on_c, 0, 34, 51
2, 49130, Note_on_c, 0, 63, 0
2, 49130, Note_on_c, 0, 66, 0
2, 49159, Note_on_c, 0, 75, 0
2, 49183, Note_on_c, 0, 34, 0
2, 49275, Note_on_c, 0, 66, 51
2, 49276, Note_on_c, 0, 78, 53
2, 49327, Note_on_c, 0, 66, 0
2, 49328, Note_on_c, 0, 78, 0
2, 49421, Control_c, 0, 64, 0
2, 49447, Note_on_c, 0, 73, 45
2, 49457, Note_on_c, 0, 61, 40
2, 49457, Note_on_c, 0, 68, 42
2, 49464, Note_on_c, 0, 49, 41
2, 49466, Note_on_c, 0, 56, 41
2, 49530, Control_c, 0, 67, 127
2, 49531, Note_on_c, 0, 75, 48
2, 49556, Control_c, 0, 64, 127
2, 49579, Note_on_c, 0, 73, 0
2, 49580, Note_on_c, 0, 75, 0
2, 49588, Note_on_c, 0, 49, 0
2, 49588, Note_on_c, 0, 61, 0
2, 49589, Note_on_c, 0, 68, 0
2, 49598, Control_c, 0, 64, 0
2, 49633, Note_on_c, 0, 75, 52
2, 49642, Note_on_c, 0, 66, 48
2, 49652, Note_on_c, 0, 63, 43
2, 49655, Note_on_c, 0, 56, 0
2, 49659, Note_on_c, 0, 51, 41
2, 49660, Note_on_c, 0, 54, 40
2, 49732, Control_c, 0, 64, 127
2, 49737, Note_on_c, 0, 54, 0
2, 49747, Note_on_c, 0, 51, 0
2, 49748, Note_on_c, 0, 63, 0
2, 49853, Note_on_c, 0, 34, 41
2, 49914, Note_on_c, 0, 34, 0
2, 49924, Note_on_c, 0, 66, 0
2, 50030, Note_on_c, 0, 75, 0
2, 50334, Control_c, 0, 64, 0
2, 50348, Note_on_c, 0, 73, 39
2, 50357, Note_on_c, 0, 49, 38
2, 50357, Note_on_c, 0, 68, 38
2, 50358, Note_on_c, 0, 61, 38
2, 50376, Note_on_c, 0, 56, 40
2, 50448, Note_on_c, 0, 75, 43
2, 50457, Control_c, 0, 64, 127
2, 50470, Note_on_c, 0, 68, 0
2, 50478, Note_on_c, 0, 73, 0
2, 50479, Note_on_c, 0, 61, 0
2, 50479, Note_on_c, 0, 75, 0
2, 50507, Note_on_c, 0, 49, 0
2, 50546, Note_on_c, 0, 56, 0
2, 50556, Control_c, 0, 64, 0
2, 50573, Note_on_c, 0, 66, 43
2, 50574, Note_on_c, 0, 75, 45
2, 50603, Note_on_c, 0, 54, 43
2, 50603, Note_on_c, 0, 63, 44
2, 50612, Note_on_c, 0, 51, 43
2, 50699, Note_on_c, 0, 51, 0
2, 50699, Note_on_c, 0, 54, 0
2, 50705, Control_c, 0, 64, 127
2, 50718, Note_on_c, 0, 63, 0
2, 50800, Note_on_c, 0, 66, 0
2, 50841, Note_on_c, 0, 34, 37
2, 50845, Note_on_c, 0, 75, 0
2, 50917, Note_on_c, 0, 34, 0
2, 51098, Note_on_c, 0, 70, 42
2, 51098, Note_on_c, 0, 82, 41
2, 51169, Note_on_c, 0, 82, 0
2, 51179, Note_on_c, 0, 70, 0
2, 51359, Control_c, 0, 64, 0
2, 51371, Note_on_c, 0, 73, 39
2, 51381, Note_on_c, 0, 68, 37
2, 51382, Note_on_c, 0, 61, 39
2, 51390, Note_on_c, 0, 49, 40
2, 51391, Note_on_c, 0, 56, 41
2, 51492, Note_on_c, 0, 75, 38
2, 51494, Control_c, 0, 64, 127
2, 51523, Note_on_c, 0, 73, 0
2, 51532, Note_on_c, 0, 61, 0
2, 51542, Note_on_c, 0, 68, 0
2, 51551, Note_on_c, 0, 75, 0
2, 51578, Note_on_c, 0, 56, 0
2, 51615, Note_on_c, 0, 49, 0
2, 51646, Control_c, 0, 64, 0
2, 51650, Note_on_c, 0, 75, 39
2, 51660, Note_on_c, 0, 66, 38
2, 51670, Note_on_c, 0, 63, 39
2, 51679, Note_on_c, 0, 51, 38
2, 51679, Note_on_c, 0, 54, 38
2, 51778, Control_c, 0, 64, 127
2, 51789, Note_on_c, 0, 63, 0
2, 51798, Note_on_c, 0, 75, 0
2, 51799, Note_on_c, 0, 54, 0
2, 51809, Note_on_c, 0, 51, 0
2, 51809, Note_on_c, 0, 66, 0
2, 52262, Note_on_c, 0, 34, 37
2, 52321, Note_on_c, 0, 34, 0
2, 52893, Note_on_c, 0, 34, 42
2, 52943, Note_on_c, 0, 34, 0
2, 53317, Note_on_c, 0, 34, 37
2, 53322, Control_c, 0, 64, 0
2, 53436, Control_c, 0, 64, 127
2, 53467, Note_on_c, 0, 34, 0
2, 53669, Note_on_c, 0, 54, 37
2, 53779, Control_c, 0, 67, 0
2, 53808, Note_on_c, 0, 54, 0
2, 53841, Note_on_c, 0, 56, 40
2, 53857, Note_on_c, 0, 58, 40
2, 53876, Note_on_c, 0, 60, 39
2, 53888, Note_on_c, 0, 56, 0
2, 53893, Note_on_c, 0, 62, 40
2, 53911, Note_on_c, 0, 66, 42
2, 53914, Note_on_c, 0, 60, 0
2, 53914, Note_on_c, 0, 58, 0
2, 53915, Note_on_c, 0, 62, 0
2, 53938, Note_on_c, 0, 68, 45
2, 53956, Note_on_c, 0, 70, 49
2, 53960, Note_on_c, 0, 66, 0
2, 53975, Note_on_c, 0, 72, 52
2, 53978, Note_on_c, 0, 68, 0
2, 53987, Note_on_c, 0, 70, 0
2, 54002, Note_on_c, 0, 74, 55
2, 54014, Note_on_c, 0, 72, 0
2, 54034, Note_on_c, 0, 74, 0
2, 54278, Note_on_c, 0, 46, 45
2, 54346, Note_on_c, 0, 46, 0
2, 54538, Control_c, 0, 64, 0
2, 54570, Note_on_c, 0, 34, 39
2, 54674, Control_c, 0, 64, 127
2, 54705, Note_on_c, 0, 34, 0
2, 54850, Note_on_c, 0, 56, 49
2, 54984, Note_on_c, 0, 56, 0
2, 54999, Note_on_c, 0, 58, 40
2, 55027, Note_on_c, 0, 60, 42
2, 55036, Note_on_c, 0, 62, 44
2, 55048, Note_on_c, 0, 58, 0
2, 55055, Note_on_c, 0, 64, 52
2, 55067, Note_on_c, 0, 60, 0
2, 55081, Note_on_c, 0, 62, 0
2, 55081, Note_on_c, 0, 68, 52
2, 55094, Note_on_c, 0, 64, 0
2, 55108, Note_on_c, 0, 70, 55
2, 55127, Note_on_c, 0, 72, 54
2, 55129, Note_on_c, 0, 70, 0
2, 55130, Note_on_c, 0, 68, 0
2, 55146, Note_on_c, 0, 74, 53
2, 55165, Note_on_c, 0, 76, 56
2, 55168, Note_on_c, 0, 72, 0
2, 55187, Note_on_c, 0, 76, 0
2, 55187, Note_on_c, 0, 74, 0
2, 55445, Note_on_c, 0, 46, 58
2, 55513, Note_on_c, 0, 46, 0
2, 55743, Control_c, 0, 64, 0
2, 55748, Note_on_c, 0, 34, 46
2, 55861, Control_c, 0, 64, 127
2, 55902, Note_on_c, 0, 34, 0
2, 56031, Note_on_c, 0, 80, 41
2, 56065, Note_on_c, 0, 54, 54
2, 56116, Note_on_c, 0, 80, 0
2, 56124, Note_on_c, 0, 54, 0
2, 56167, Note_on_c, 0, 56, 51
2, 56184, Note_on_c, 0, 58, 53
2, 56198, Note_on_c, 0, 56, 0
2, 56204, Note_on_c, 0, 60, 54
2, 56215, Note_on_c, 0, 58, 0
2, 56222, Note_on_c, 0, 62, 52
2, 56233, Note_on_c, 0, 60, 0
2, 56239, Note_on_c, 0, 66, 48
2, 56242, Note_on_c, 0, 62, 0
2, 56257, Note_on_c, 0, 68, 47
2, 56263, Note_on_c, 0, 70, 46
2, 56279, Note_on_c, 0, 66, 0
2, 56279, Control_c, 0, 67, 127
2, 56283, Note_on_c, 0, 72, 43
2, 56296, Note_on_c, 0, 68, 0
2, 56302, Note_on_c, 0, 74, 44
2, 56303, Control_c, 0, 67, 0
2, 56304, Note_on_c, 0, 70, 0
2, 56323, Note_on_c, 0, 72, 0
2, 56339, Note_on_c, 0, 82, 50
2, 56351, Note_on_c, 0, 74, 0
2, 56371, Note_on_c, 0, 82, 0
2, 56610, Note_on_c, 0, 84, 47
2, 56644, Note_on_c, 0, 46, 46
2, 56718, Note_on_c, 0, 46, 0
2, 56859, Control_c, 0, 64, 0
2, 56874, Note_on_c, 0, 34, 47
2, 56995, Control_c, 0, 64, 127
2, 57027, Note_on_c, 0, 34, 0
2, 57136, Note_on_c, 0, 84, 0
2, 57186, Note_on_c, 0, 56, 40
2, 57253, Note_on_c, 0, 56, 0
2, 57266, Note_on_c, 0, 58, 46
2, 57295, Note_on_c, 0, 60, 46
2, 57307, Note_on_c, 0, 58, 0
2, 57313, Note_on_c, 0, 62, 46
2, 57316, Note_on_c, 0, 60, 0
2, 57332, Note_on_c, 0, 64, 49
2, 57344, Note_on_c, 0, 62, 0
2, 57350, Note_on_c, 0, 68, 51
2, 57362, Note_on_c, 0, 64, 0
2, 57368, Note_on_c, 0, 70, 50
2, 57385, Note_on_c, 0, 72, 50
2, 57390, Note_on_c, 0, 68, 0
2, 57396, Note_on_c, 0, 74, 48
2, 57408, Note_on_c, 0, 70, 0
2, 57413, Note_on_c, 0, 76, 45
2, 57417, Note_on_c, 0, 72, 0
2, 57452, Note_on_c, 0, 86, 46
2, 57463, Note_on_c, 0, 74, 0
2, 57482, Note_on_c, 0, 86, 0
2, 57720, Note_on_c, 0, 46, 45
2, 57761, Note_on_c, 0, 46, 0
2, 57939, Note_on_c, 0, 76, 0
2, 57996, Note_on_c, 0, 34, 40
2, 58045, Note_on_c, 0, 34, 0
2, 58290, Note_on_c, 0, 88, 52
2, 58320, Note_on_c, 0, 54, 56
2, 58355, Note_on_c, 0, 88, 0
2, 58388, Note_on_c, 0, 54, 0
2, 58432, Note_on_c, 0, 56, 52
2, 58448, Note_on_c, 0, 58, 51
2, 58466, Note_on_c, 0, 60, 52
2, 58469, Note_on_c, 0, 56, 0
2, 58478, Note_on_c, 0, 58, 0
2, 58486, Note_on_c, 0, 62, 55
2, 58488, Note_on_c, 0, 60, 0
2, 58504, Note_on_c, 0, 66, 54
2, 58516, Note_on_c, 0, 62, 0
2, 58522, Note_on_c, 0, 68, 53
2, 58534, Note_on_c, 0, 66, 0
2, 58540, Note_on_c, 0, 70, 53
2, 58559, Note_on_c, 0, 72, 52
2, 58561, Note_on_c, 0, 68, 0
2, 58564, Note_on_c, 0, 70, 0
2, 58578, Note_on_c, 0, 74, 53
2, 58598, Note_on_c, 0, 72, 0
2, 58614, Note_on_c, 0, 86, 58
2, 58636, Note_on_c, 0, 86, 0
2, 58690, Note_on_c, 0, 74, 0
2, 58877, Note_on_c, 0, 84, 56
2, 58919, Note_on_c, 0, 46, 40
2, 58985, Note_on_c, 0, 46, 0
2, 58998, Note_on_c, 0, 84, 0
2, 59140, Note_on_c, 0, 82, 57
2, 59161, Note_on_c, 0, 34, 40
2, 59188, Note_on_c, 0, 82, 0
2, 59201, Note_on_c, 0, 34, 0
2, 59283, Note_on_c, 0, 80, 51
2, 59367, Control_c, 0, 67, 127
2, 59388, Note_on_c, 0, 80, 0
2, 59410, Control_c, 0, 64, 0
2, 59457, Note_on_c, 0, 56, 47
2, 59460, Note_on_c, 0, 82, 50
2, 59535, Control_c, 0, 64, 127
2, 59581, Note_on_c, 0, 82, 0
2, 59615, Note_on_c, 0, 56, 0
2, 59673, Note_on_c, 0, 58, 55
2, 59709, Note_on_c, 0, 60, 53
2, 59718, Note_on_c, 0, 62, 53
2, 59739, Note_on_c, 0, 58, 0
2, 59746, Note_on_c, 0, 64, 53
2, 59758, Note_on_c, 0, 60, 0
2, 59761, Note_on_c, 0, 68, 53
2, 59762, Control_c, 0, 67, 0
2, 59776, Note_on_c, 0, 64, 0
2, 59776, Note_on_c, 0, 62, 0
2, 59790, Note_on_c, 0, 70, 56
2, 59803, Note_on_c, 0, 68, 0
2, 59817, Note_on_c, 0, 72, 57
2, 59818, Note_on_c, 0, 74, 56
2, 59830, Note_on_c, 0, 70, 0
2, 59838, Note_on_c, 0, 72, 0
2, 59846, Note_on_c, 0, 76, 53
2, 59849, Note_on_c, 0, 74, 0
2, 59868, Note_on_c, 0, 76, 0
2, 60182, Note_on_c, 0, 80, 53
2, 60205, Note_on_c, 0, 46, 52
2, 60267, Note_on_c, 0, 80, 0
2, 60283, Note_on_c, 0, 46, 0
2, 60511, Control_c, 0, 64, 0
2, 60541, Note_on_c, 0, 92, 44
2, 60551, Note_on_c, 0, 82, 46
2, 60552, Note_on_c, 0, 84, 47
2, 60557, Note_on_c, 0, 34, 52
2, 60648, Control_c, 0, 64, 127
2, 60666, Note_on_c, 0, 92, 0
2, 60674, Note_on_c, 0, 84, 0
2, 60684, Note_on_c, 0, 82, 0
2, 60690, Note_on_c, 0, 34, 0
2, 60718, Control_c, 0, 67, 127
2, 60857, Note_on_c, 0, 80, 47
2, 60857, Note_on_c, 0, 88, 41
2, 60863, Note_on_c, 0, 58, 38
2, 60865, Note_on_c, 0, 78, 39
2, 60871, Note_on_c, 0, 48, 38
2, 60872, Note_on_c, 0, 54, 38
2, 60933, Note_on_c, 0, 88, 0
2, 60939, Note_on_c, 0, 58, 0
2, 60947, Note_on_c, 0, 48, 0
2, 60959, Note_on_c, 0, 80, 0
2, 60966, Note_on_c, 0, 78, 0
2, 60974, Note_on_c, 0, 54, 0
2, 60976, Control_c, 0, 67, 0
2, 61141, Note_on_c, 0, 80, 51
2, 61150, Note_on_c, 0, 70, 42
2, 61157, Note_on_c, 0, 52, 41
2, 61157, Note_on_c, 0, 58, 41
2, 61158, Note_on_c, 0, 72, 44
2, 61159, Note_on_c, 0, 62, 41
2, 61217, Note_on_c, 0, 72, 0
2, 61225, Note_on_c, 0, 70, 0
2, 61244, Note_on_c, 0, 52, 0
2, 61254, Note_on_c, 0, 62, 0
2, 61263, Note_on_c, 0, 58, 0
2, 61273, Note_on_c, 0, 80, 0
2, 61478, Note_on_c, 0, 92, 51
2, 61487, Note_on_c, 0, 82, 44
2, 61488, Note_on_c, 0, 84, 44
2, 61494, Note_on_c, 0, 60, 41
2, 61495, Note_on_c, 0, 54, 41
2, 61495, Note_on_c, 0, 64, 43
2, 61554, Note_on_c, 0, 82, 0
2, 61561, Note_on_c, 0, 54, 0
2, 61562, Note_on_c, 0, 84, 0
2, 61563, Note_on_c, 0, 92, 0
2, 61571, Note_on_c, 0, 64, 0
2, 61617, Note_on_c, 0, 60, 0
2, 61843, Note_on_c, 0, 34, 50
2, 61848, Control_c, 0, 64, 0
2, 61934, Control_c, 0, 64, 127
2, 61955, Note_on_c, 0, 34, 0
2, 62148, Note_on_c, 0, 54, 49
2, 62280, Note_on_c, 0, 54, 0
2, 62317, Note_on_c, 0, 56, 51
2, 62333, Note_on_c, 0, 58, 53
2, 62352, Note_on_c, 0, 60, 54
2, 62356, Note_on_c, 0, 56, 0
2, 62372, Note_on_c, 0, 62, 56
2, 62393, Note_on_c, 0, 58, 0
2, 62399, Note_on_c, 0, 66, 52
2, 62401, Note_on_c, 0, 60, 0
2, 62402, Note_on_c, 0, 62, 0
2, 62418, Note_on_c, 0, 68, 51
2, 62444, Note_on_c, 0, 70, 48
2, 62448, Note_on_c, 0, 66, 0
2, 62471, Note_on_c, 0, 72, 47
2, 62474, Note_on_c, 0, 68, 0
2, 62483, Note_on_c, 0, 70, 0
2, 62490, Note_on_c, 0, 74, 44
2, 62501, Note_on_c, 0, 72, 0
2, 62511, Note_on_c, 0, 74, 0
2, 62758, Note_on_c, 0, 46, 45
2, 62847, Note_on_c, 0, 46, 0
2, 63062, Control_c, 0, 64, 0
2, 63101, Note_on_c, 0, 94, 43
2, 63111, Note_on_c, 0, 84, 44
2, 63112, Note_on_c, 0, 86, 44
2, 63121, Note_on_c, 0, 34, 43
2, 63178, Control_c, 0, 64, 127
2, 63208, Note_on_c, 0, 34, 0
2, 63216, Note_on_c, 0, 94, 0
2, 63217, Note_on_c, 0, 86, 0
2, 63243, Note_on_c, 0, 84, 0
2, 63394, Control_c, 0, 67, 127
2, 63415, Note_on_c, 0, 90, 40
2, 63416, Note_on_c, 0, 80, 39
2, 63416, Note_on_c, 0, 82, 41
2, 63426, Note_on_c, 0, 50, 38
2, 63426, Note_on_c, 0, 60, 38
2, 63427, Note_on_c, 0, 56, 37
2, 63496, Note_on_c, 0, 90, 0
2, 63505, Note_on_c, 0, 82, 0
2, 63515, Note_on_c, 0, 50, 0
2, 63524, Note_on_c, 0, 60, 0
2, 63525, Note_on_c, 0, 80, 0
2, 63526, Note_on_c, 0, 56, 0
2, 63722, Note_on_c, 0, 72, 45
2, 63722, Note_on_c, 0, 74, 50
2, 63723, Note_on_c, 0, 54, 49
2, 63723, Note_on_c, 0, 60, 49
2, 63723, Note_on_c, 0, 64, 49
2, 63723, Note_on_c, 0, 82, 51
2, 63798, Control_c, 0, 67, 0
2, 63800, Note_on_c, 0, 72, 0
2, 63801, Note_on_c, 0, 54, 0
2, 63810, Note_on_c, 0, 60, 0
2, 63810, Note_on_c, 0, 74, 0
2, 63838, Note_on_c, 0, 64, 0
2, 63855, Note_on_c, 0, 82, 0
2, 64101, Note_on_c, 0, 86, 44
2, 64108, Note_on_c, 0, 94, 44
2, 64109, Note_on_c, 0, 66, 41
2, 64109, Note_on_c, 0, 84, 44
2, 64119, Note_on_c, 0, 62, 41
2, 64120, Note_on_c, 0, 56, 41
2, 64176, Note_on_c, 0, 84, 0
2, 64176, Note_on_c, 0, 66, 0
2, 64185, Note_on_c, 0, 86, 0
2, 64194, Note_on_c, 0, 94, 0
2, 64259, Note_on_c, 0, 56, 0
2, 64267, Note_on_c, 0, 62, 0
2, 64511, Control_c, 0, 64, 0
2, 64516, Note_on_c, 0, 34, 47
2, 64658, Control_c, 0, 64, 127
2, 64679, Note_on_c, 0, 34, 0
2, 64836, Note_on_c, 0, 56, 40
2, 64957, Note_on_c, 0, 56, 0
2, 65023, Note_on_c, 0, 58, 39
2, 65049, Note_on_c, 0, 60, 45
2, 65067, Note_on_c, 0, 62, 47
2, 65069, Note_on_c, 0, 58, 0
2, 65086, Note_on_c, 0, 64, 56
2, 65089, Note_on_c, 0, 60, 0
2, 65108, Note_on_c, 0, 62, 0
2, 65114, Note_on_c, 0, 68, 55
2, 65116, Note_on_c, 0, 64, 0
2, 65140, Note_on_c, 0, 70, 53
2, 65160, Note_on_c, 0, 72, 53
2, 65173, Note_on_c, 0, 68, 0
2, 65180, Note_on_c, 0, 74, 55
2, 65182, Note_on_c, 0, 70, 0
2, 65217, Note_on_c, 0, 76, 54
2, 65219, Note_on_c, 0, 72, 0
2, 65230, Note_on_c, 0, 74, 0
2, 65239, Note_on_c, 0, 76, 0
2, 65502, Note_on_c, 0, 46, 50
2, 65568, Note_on_c, 0, 46, 0
2, 65837, Note_on_c, 0, 82, 46
2, 65837, Note_on_c, 0, 84, 44
2, 65837, Note_on_c, 0, 92, 43
2, 65839, Control_c, 0, 64, 0
2, 65845, Note_on_c, 0, 34, 41
2, 65944, Control_c, 0, 64, 127
2, 65950, Note_on_c, 0, 84, 0
2, 65951, Note_on_c, 0, 92, 0
2, 65959, Note_on_c, 0, 82, 0
2, 65993, Note_on_c, 0, 34, 0
2, 66165, Note_on_c, 0, 78, 44
2, 66165, Note_on_c, 0, 80, 42
2, 66165, Note_on_c, 0, 88, 43
2, 66171, Note_on_c, 0, 58, 40
2, 66179, Note_on_c, 0, 48, 41
2, 66180, Note_on_c, 0, 54, 42
2, 66238, Note_on_c, 0, 58, 0
2, 66249, Note_on_c, 0, 88, 0
2, 66265, Note_on_c, 0, 48, 0
2, 66284, Note_on_c, 0, 54, 0
2, 66295, Note_on_c, 0, 80, 0
2, 66304, Note_on_c, 0, 78, 0
2, 66549, Note_on_c, 0, 80, 55
2, 66567, Note_on_c, 0, 76, 46
2, 66584, Note_on_c, 0, 58, 46
2, 66585, Note_on_c, 0, 62, 47
2, 66593, Note_on_c, 0, 52, 47
2, 66680, Note_on_c, 0, 52, 0
2, 66689, Note_on_c, 0, 58, 0
2, 66726, Note_on_c, 0, 62, 0
2, 66854, Note_on_c, 0, 80, 0
2, 66904, Note_on_c, 0, 54, 40
2, 66904, Note_on_c, 0, 60, 41
2, 66904, Note_on_c, 0, 64, 40
2, 66945, Note_on_c, 0, 76, 0
2, 66963, Note_on_c, 0, 64, 0
2, 66972, Note_on_c, 0, 60, 0
2, 66981, Note_on_c, 0, 54, 0
2, 66987, Control_c, 0, 67, 127
2, 67009, Control_c, 0, 67, 0
2, 67041, Note_on_c, 0, 78, 41
2, 67050, Note_on_c, 0, 74, 41
2, 67106, Note_on_c, 0, 74, 0
2, 67112, Note_on_c, 0, 76, 49
2, 67115, Note_on_c, 0, 78, 0
2, 67121, Note_on_c, 0, 72, 51
2, 67152, Note_on_c, 0, 76, 0
2, 67158, Note_on_c, 0, 70, 52
2, 67167, Note_on_c, 0, 74, 53
2, 67170, Note_on_c, 0, 72, 0
2, 67188, Note_on_c, 0, 70, 0
2, 67214, Control_c, 0, 64, 0
2, 67225, Note_on_c, 0, 74, 0
2, 67230, Note_on_c, 0, 72, 55
2, 67231, Note_on_c, 0, 68, 55
2, 67238, Note_on_c, 0, 34, 51
2, 67277, Control_c, 0, 67, 127
2, 67337, Control_c, 0, 64, 127
2, 67384, Note_on_c, 0, 34, 0
2, 67461, Note_on_c, 0, 68, 0
2, 67498, Note_on_c, 0, 72, 0
2, 67537, Control_c, 0, 67, 0
2, 67541, Note_on_c, 0, 50, 44
2, 67542, Note_on_c, 0, 60, 45
2, 67543, Note_on_c, 0, 56, 46
2, 67583, Note_on_c, 0, 60, 0
2, 67625, Note_on_c, 0, 50, 0
2, 67627, Note_on_c, 0, 56, 0
2, 67784, Note_on_c, 0, 80, 47
2, 67785, Note_on_c, 0, 84, 49
2, 67806, Note_on_c, 0, 84, 0
2, 67824, Note_on_c, 0, 80, 0
2, 67827, Control_c, 0, 64, 0
2, 67829, Note_on_c, 0, 82, 54
2, 67845, Note_on_c, 0, 54, 54
2, 67846, Note_on_c, 0, 60, 53
2, 67846, Note_on_c, 0, 64, 50
2, 67847, Note_on_c, 0, 78, 50
2, 67879, Control_c, 0, 64, 127
2, 67902, Control_c, 0, 64, 0
2, 67932, Control_c, 0, 64, 127
2, 67955, Note_on_c, 0, 60, 0
2, 67982, Note_on_c, 0, 54, 0
2, 68028, Note_on_c, 0, 64, 0
2, 68122, Note_on_c, 0, 78, 0
2, 68132, Note_on_c, 0, 82, 0
2, 68137, Note_on_c, 0, 66, 41
2, 68146, Note_on_c, 0, 56, 41
2, 68146, Note_on_c, 0, 62, 41
2, 68213, Note_on_c, 0, 66, 0
2, 68257, Note_on_c, 0, 62, 0
2, 68257, Note_on_c, 0, 56, 0
2, 68431, Control_c, 0, 64, 0
2, 68464, Note_on_c, 0, 92, 43
2, 68473, Note_on_c, 0, 82, 44
2, 68473, Note_on_c, 0, 84, 44
2, 68480, Note_on_c, 0, 34, 41
2, 68554, Control_c, 0, 64, 127
2, 68576, Note_on_c, 0, 34, 0
2, 68578, Note_on_c, 0, 92, 0
2, 68588, Note_on_c, 0, 84, 0
2, 68606, Note_on_c, 0, 82, 0
2, 68830, Note_on_c, 0, 88, 44
2, 68831, Note_on_c, 0, 58, 46
2, 68837, Note_on_c, 0, 54, 44
2, 68838, Note_on_c, 0, 78, 42
2, 68839, Note_on_c, 0, 80, 42
2, 68846, Note_on_c, 0, 48, 43
2, 68907, Note_on_c, 0, 88, 0
2, 68914, Note_on_c, 0, 58, 0
2, 68923, Note_on_c, 0, 48, 0
2, 68933, Note_on_c, 0, 78, 0
2, 68942, Note_on_c, 0, 80, 0
2, 68959, Note_on_c, 0, 54, 0
2, 69145, Note_on_c, 0, 80, 51
2, 69164, Note_on_c, 0, 62, 40
2, 69164, Note_on_c, 0, 76, 41
2, 69172, Note_on_c, 0, 52, 41
2, 69172, Note_on_c, 0, 58, 41
2, 69288, Note_on_c, 0, 52, 0
2, 69307, Note_on_c, 0, 58, 0
2, 69372, Note_on_c, 0, 62, 0
2, 69383, Note_on_c, 0, 80, 0
2, 69519, Note_on_c, 0, 76, 0
2, 69544, Note_on_c, 0, 64, 40
2, 69552, Note_on_c, 0, 54, 43
2, 69552, Note_on_c, 0, 60, 42
2, 69609, Note_on_c, 0, 64, 0
2, 69618, Note_on_c, 0, 60, 0
2, 69626, Note_on_c, 0, 54, 0
2, 69677, Note_on_c, 0, 78, 53
2, 69696, Note_on_c, 0, 74, 49
2, 69753, Note_on_c, 0, 74, 0
2, 69759, Note_on_c, 0, 76, 53
2, 69763, Note_on_c, 0, 78, 0
2, 69768, Note_on_c, 0, 72, 53
2, 69800, Note_on_c, 0, 72, 0
2, 69801, Note_on_c, 0, 76, 0
2, 69825, Note_on_c, 0, 70, 51
2, 69826, Note_on_c, 0, 74, 52
2, 69847, Note_on_c, 0, 70, 0
2, 69857, Control_c, 0, 64, 0
2, 69882, Note_on_c, 0, 72, 47
2, 69885, Note_on_c, 0, 74, 0
2, 69890, Note_on_c, 0, 68, 47
2, 69898, Note_on_c, 0, 34, 47
2, 69996, Control_c, 0, 64, 127
2, 70027, Note_on_c, 0, 34, 0
2, 70185, Note_on_c, 0, 60, 43
2, 70186, Note_on_c, 0, 56, 41
2, 70194, Note_on_c, 0, 50, 41
2, 70261, Note_on_c, 0, 50, 0
2, 70303, Note_on_c, 0, 56, 0
2, 70316, Note_on_c, 0, 60, 0
2, 70427, Note_on_c, 0, 72, 0
2, 70464, Note_on_c, 0, 68, 0
2, 70469, Note_on_c, 0, 64, 49
2, 70478, Note_on_c, 0, 60, 46
2, 70487, Note_on_c, 0, 54, 47
2, 70542, Note_on_c, 0, 54, 0
2, 70569, Note_on_c, 0, 64, 0
2, 70606, Note_on_c, 0, 60, 0
2, 70681, Note_on_c, 0, 70, 49
2, 70690, Note_on_c, 0, 66, 42
2, 71000, Note_on_c, 0, 66, 0
2, 71081, Note_on_c, 0, 70, 0
2, 71113, Note_on_c, 0, 68, 40
2, 71148, Note_on_c, 0, 64, 40
2, 71231, Note_on_c, 0, 68, 0
2, 71239, Note_on_c, 0, 64, 0
2, 71403, Note_on_c, 0, 54, 46
2, 71441, Note_on_c, 0, 66, 46
2, 71449, Note_on_c, 0, 62, 47
2, 71462, Control_c, 0, 64, 0
2, 71488, Note_on_c, 0, 64, 47
2, 71500, Note_on_c, 0, 62, 0
2, 71507, Note_on_c, 0, 60, 43
2, 71520, Note_on_c, 0, 66, 0
2, 71573, Control_c, 0, 64, 127
2, 71638, Note_on_c, 0, 60, 0
2, 71665, Note_on_c, 0, 54, 0
2, 71668, Control_c, 0, 67, 127
2, 71727, Note_on_c, 0, 64, 0
2, 71993, Note_on_c, 0, 56, 47
2, 72010, Note_on_c, 0, 58, 36
2, 72031, Control_c, 0, 67, 0
2, 72038, Note_on_c, 0, 60, 43
2, 72048, Note_on_c, 0, 62, 44
2, 72060, Note_on_c, 0, 56, 0
2, 72066, Note_on_c, 0, 64, 44
2, 72078, Note_on_c, 0, 58, 0
2, 72088, Note_on_c, 0, 60, 0
2, 72089, Note_on_c, 0, 62, 0
2, 72096, Note_on_c, 0, 66, 46
2, 72108, Note_on_c, 0, 64, 0
2, 72116, Note_on_c, 0, 68, 46
2, 72134, Note_on_c, 0, 70, 47
2, 72152, Note_on_c, 0, 72, 47
2, 72156, Note_on_c, 0, 66, 0
2, 72165, Note_on_c, 0, 68, 0
2, 72173, Note_on_c, 0, 70, 0
2, 72179, Note_on_c, 0, 74, 47
2, 72198, Note_on_c, 0, 72, 0
2, 72199, Note_on_c, 0, 74, 0
2, 73104, Note_on_c, 0, 54, 49
2, 73151, Note_on_c, 0, 66, 46
2, 73159, Note_on_c, 0, 62, 46
2, 73178, Control_c, 0, 64, 0
2, 73198, Note_on_c, 0, 62, 0
2, 73198, Note_on_c, 0, 66, 0
2, 73204, Note_on_c, 0, 60, 51
2, 73204, Note_on_c, 0, 64, 52
2, 73285, Control_c, 0, 64, 127
2, 73368, Note_on_c, 0, 60, 0
2, 73377, Note_on_c, 0, 54, 0
2, 73485, Note_on_c, 0, 64, 0
2, 73656, Note_on_c, 0, 56, 44
2, 73737, Note_on_c, 0, 58, 40
2, 73741, Note_on_c, 0, 56, 0
2, 73782, Note_on_c, 0, 60, 39
2, 73785, Note_on_c, 0, 58, 0
2, 73820, Note_on_c, 0, 62, 41
2, 73822, Note_on_c, 0, 60, 0
2, 73847, Note_on_c, 0, 64, 46
2, 73858, Note_on_c, 0, 62, 0
2, 73868, Note_on_c, 0, 64, 0
2, 73874, Note_on_c, 0, 66, 49
2, 73910, Note_on_c, 0, 68, 50
2, 73927, Note_on_c, 0, 70, 51
2, 73940, Note_on_c, 0, 66, 0
2, 73948, Note_on_c, 0, 68, 0
2, 73953, Note_on_c, 0, 72, 48
2, 73973, Note_on_c, 0, 70, 0
2, 73979, Note_on_c, 0, 74, 45
2, 74008, Note_on_c, 0, 72, 0
2, 74009, Note_on_c, 0, 74, 0
2, 74605, Note_on_c, 0, 66, 42
2, 74614, Note_on_c, 0, 62, 41
2, 74714, Note_on_c, 0, 62, 0
2, 74724, Note_on_c, 0, 66, 0
2, 74801, Note_on_c, 0, 66, 46
2, 74819, Note_on_c, 0, 62, 47
2, 74942, Note_on_c, 0, 62, 0
2, 75007, Note_on_c, 0, 66, 0
2, 75068, Control_c, 0, 64, 0
2, 75085, Note_on_c, 0, 64, 40
2, 75093, Note_on_c, 0, 60, 40
2, 75199, Control_c, 0, 64, 127
2, 75222, Note_on_c, 0, 60, 0
2, 75250, Note_on_c, 0, 64, 0
2, 75319, Control_c, 0, 67, 127
2, 75361, Note_on_c, 0, 66, 37
2, 75370, Note_on_c, 0, 62, 38
2, 75396, Note_on_c, 0, 60, 37
2, 75397, Control_c, 0, 64, 0
2, 75397, Note_on_c, 0, 64, 39
2, 75400, Note_on_c, 0, 62, 0
2, 75408, Note_on_c, 0, 66, 0
2, 75423, Note_on_c, 0, 54, 40
2, 75466, Control_c, 0, 67, 0
2, 75490, Note_on_c, 0, 60, 0
2, 75512, Control_c, 0, 64, 127
2, 75581, Note_on_c, 0, 54, 0
2, 75643, Note_on_c, 0, 64, 0
2, 75853, Control_c, 0, 67, 127
2, 75904, Note_on_c, 0, 56, 37
2, 75965, Note_on_c, 0, 58, 39
2, 75969, Note_on_c, 0, 56, 0
2, 76011, Note_on_c, 0, 60, 37
2, 76014, Note_on_c, 0, 58, 0
2, 76042, Note_on_c, 0, 60, 0
2, 76049, Note_on_c, 0, 62, 40
2, 76085, Note_on_c, 0, 64, 37
2, 76097, Note_on_c, 0, 62, 0
2, 76116, Note_on_c, 0, 64, 0
2, 76123, Note_on_c, 0, 66, 38
2, 76158, Note_on_c, 0, 68, 36
2, 76185, Note_on_c, 0, 70, 38
2, 76188, Note_on_c, 0, 66, 0
2, 76198, Note_on_c, 0, 68, 0
2, 76212, Note_on_c, 0, 72, 42
2, 76232, Note_on_c, 0, 70, 0
2, 76239, Note_on_c, 0, 74, 39
2, 76277, Control_c, 0, 67, 0
2, 76278, Note_on_c, 0, 72, 0
2, 76279, Note_on_c, 0, 74, 0
2, 77522, Control_c, 0, 67, 127
2, 77601, Note_on_c, 0, 60, 37
2, 77601, Note_on_c, 0, 64, 37
2, 77671, Control_c, 0, 67, 0
2, 78216, Note_on_c, 0, 60, 0
2, 78874, Note_on_c, 0, 64, 0
2, 79624, Control_c, 0, 64, 0
2, 79624, End_track
0, 0, End_of_file
