0, 0, Header, 0, 1, 480
1, 0, Start_track
1, 0, SMPTE_offset, 96, 0, 0, 0, 0
1, 0, Time_signature, 4, 2, 24, 8
1, 0, Key_signature, 0, "major"
1, 0, Tempo, 750000
1, 0, Control_c, 0, 64, 127
1, 0, Control_c, 0, 64, 0
1, 0, Control_c, 0, 64, 127
1, 0, Control_c, 0, 64, 0
1, 0, Control_c, 0, 64, 127
1, 0, Note_on_c, 0, 44, 25
1, 12, Note_on_c, 0, 37, 23
1, 624, Note_on_c, 0, 54, 36
1, 624, Note_on_c, 0, 61, 40
1, 632, Note_on_c, 0, 58, 10
1, 682, Note_off_c, 0, 61, 64
1, 694, Note_off_c, 0, 54, 64
1, 704, Note_off_c, 0, 58, 64
1, 994, Note_on_c, 0, 68, 32
1, 999, Note_on_c, 0, 65, 35
1, 1016, Note_on_c, 0, 60, 33
1, 1110, Note_off_c, 0, 60, 64
1, 1226, Note_off_c, 0, 65, 64
1, 1326, Note_off_c, 0, 68, 64
1, 1374, Note_on_c, 0, 58, 23
1, 1382, Note_on_c, 0, 63, 34
1, 1390, Note_on_c, 0, 61, 27
1, 1400, Control_c, 0, 64, 0
1, 1506, Control_c, 0, 64, 127
1, 1508, Note_off_c, 0, 37, 64
1, 1522, Note_off_c, 0, 44, 64
1, 1582, Note_off_c, 0, 58, 64
1, 1614, Note_off_c, 0, 63, 64
1, 1618, Note_off_c, 0, 61, 64
1, 1942, Note_on_c, 0, 68, 66
1, 2358, Note_on_c, 0, 66, 10
1, 2368, Note_on_c, 0, 70, 15
1, 2374, Note_on_c, 0, 73, 35
1, 2428, Note_off_c, 0, 66, 64
1, 2436, Note_off_c, 0, 73, 64
1, 2450, Note_off_c, 0, 70, 64
1, 2722, Note_on_c, 0, 77, 44
1, 2725, Note_on_c, 0, 80, 50
1, 2732, Note_on_c, 0, 72, 43
1, 2790, Note_off_c, 0, 72, 64
1, 2876, Note_off_c, 0, 77, 64
1, 2906, Note_off_c, 0, 80, 64
1, 3028, Note_on_c, 0, 70, 47
1, 3036, Note_on_c, 0, 75, 51
1, 3052, Note_on_c, 0, 73, 37
1, 3084, Note_off_c, 0, 70, 64
1, 3106, Note_off_c, 0, 73, 64
1, 3145, Note_off_c, 0, 75, 64
1, 3330, Note_on_c, 0, 78, 50
1, 3332, Note_on_c, 0, 85, 42
1, 3334, Note_on_c, 0, 82, 12
1, 3348, Note_on_c, 0, 65, 61
1, 3366, Note_off_c, 0, 68, 64
1, 3386, Note_off_c, 0, 78, 64
1, 3392, Note_off_c, 0, 85, 64
1, 3404, Note_off_c, 0, 82, 64
1, 3634, Note_on_c, 0, 92, 50
1, 3648, Note_on_c, 0, 84, 55
1, 3662, Note_on_c, 0, 89, 38
1, 3702, Note_off_c, 0, 84, 64
1, 3714, Note_off_c, 0, 92, 64
1, 3846, Note_off_c, 0, 89, 64
1, 3960, Note_on_c, 0, 87, 52
1, 3960, Note_on_c, 0, 82, 29
1, 3970, Note_on_c, 0, 85, 31
1, 4002, Note_off_c, 0, 87, 64
1, 4024, Note_off_c, 0, 82, 64
1, 4027, Note_off_c, 0, 85, 64
1, 4250, Note_on_c, 0, 80, 61
1, 4260, Note_on_c, 0, 77, 37
1, 4264, Note_on_c, 0, 72, 31
1, 4304, Note_off_c, 0, 80, 64
1, 4312, Note_off_c, 0, 77, 64
1, 4324, Note_off_c, 0, 72, 64
1, 4566, Note_off_c, 0, 65, 64
1, 4582, Note_on_c, 0, 75, 35
1, 4586, Note_on_c, 0, 70, 31
1, 4596, Note_on_c, 0, 73, 30
1, 4616, Note_on_c, 0, 63, 40
1, 4639, Note_off_c, 0, 75, 64
1, 4652, Note_off_c, 0, 70, 64
1, 4654, Note_off_c, 0, 73, 64
1, 4752, Note_off_c, 0, 63, 64
1, 4906, Note_on_c, 0, 68, 37
1, 4909, Note_on_c, 0, 60, 43
1, 4964, Note_off_c, 0, 68, 64
1, 5000, Note_off_c, 0, 60, 64
1, 5288, Note_on_c, 0, 61, 15
1, 5292, Note_on_c, 0, 58, 21
1, 5292, Note_on_c, 0, 63, 35
1, 5686, Note_on_c, 0, 44, 33
1, 5700, Note_on_c, 0, 54, 25
1, 5716, Control_c, 0, 64, 0
1, 6024, Control_c, 0, 64, 127
1, 6198, Note_on_c, 0, 37, 31
1, 6216, Note_off_c, 0, 61, 64
1, 6226, Note_off_c, 0, 54, 64
1, 6236, Note_off_c, 0, 58, 64
1, 6242, Note_off_c, 0, 63, 64
1, 6408, Control_c, 0, 64, 0
1, 6670, Note_on_c, 0, 63, 44
1, 6690, Note_on_c, 0, 56, 25
1, 6706, Note_on_c, 0, 53, 37
1, 6746, Control_c, 0, 64, 127
1, 6786, Note_off_c, 0, 53, 64
1, 6834, Note_off_c, 0, 56, 64
1, 6858, Note_off_c, 0, 63, 64
1, 7046, Note_on_c, 0, 70, 36
1, 7060, Note_on_c, 0, 61, 31
1, 7062, Note_on_c, 0, 65, 27
1, 7122, Note_off_c, 0, 65, 64
1, 7140, Note_off_c, 0, 61, 64
1, 7148, Note_off_c, 0, 37, 64
1, 7182, Note_off_c, 0, 44, 64
1, 7326, Note_off_c, 0, 70, 64
1, 7338, Note_on_c, 0, 65, 48
1, 7354, Note_on_c, 0, 60, 35
1, 7354, Note_on_c, 0, 63, 30
1, 7420, Note_off_c, 0, 63, 64
1, 7423, Note_off_c, 0, 60, 64
1, 7448, Note_off_c, 0, 65, 64
1, 7622, Note_on_c, 0, 65, 39
1, 7634, Note_on_c, 0, 61, 40
1, 7648, Note_on_c, 0, 58, 19
1, 7788, Note_off_c, 0, 65, 64
1, 7866, Note_off_c, 0, 61, 64
1, 7876, Note_off_c, 0, 58, 64
1, 7878, Note_on_c, 0, 75, 52
1, 7882, Note_on_c, 0, 68, 40
1, 7950, Note_off_c, 0, 68, 64
1, 8044, Note_off_c, 0, 75, 64
1, 8138, Note_on_c, 0, 82, 58
1, 8144, Note_on_c, 0, 73, 46
1, 8148, Note_on_c, 0, 77, 61
1, 8200, Note_off_c, 0, 77, 64
1, 8220, Note_off_c, 0, 73, 64
1, 8376, Note_off_c, 0, 82, 64
1, 8398, Note_on_c, 0, 77, 74
1, 8406, Note_on_c, 0, 72, 56
1, 8412, Note_on_c, 0, 75, 44
1, 8452, Note_off_c, 0, 72, 64
1, 8468, Note_off_c, 0, 75, 64
1, 8506, Note_off_c, 0, 77, 64
1, 8670, Note_on_c, 0, 77, 55
1, 8676, Note_on_c, 0, 73, 46
1, 8686, Note_on_c, 0, 70, 36
1, 8852, Note_off_c, 0, 77, 64
1, 8852, Note_off_c, 0, 73, 64
1, 8860, Note_off_c, 0, 70, 64
1, 8920, Note_on_c, 0, 80, 53
1, 8932, Note_on_c, 0, 87, 41
1, 8978, Note_off_c, 0, 80, 64
1, 9016, Note_off_c, 0, 87, 64
1, 9234, Note_on_c, 0, 85, 37
1, 9238, Note_on_c, 0, 94, 29
1, 9238, Note_on_c, 0, 89, 34
1, 9308, Note_off_c, 0, 89, 64
1, 9372, Note_off_c, 0, 85, 64
1, 9470, Note_off_c, 0, 94, 64
1, 9564, Note_on_c, 0, 87, 31
1, 9566, Note_on_c, 0, 89, 42
1, 9578, Note_on_c, 0, 84, 36
1, 9634, Note_off_c, 0, 87, 64
1, 9644, Note_off_c, 0, 89, 64
1, 9656, Note_off_c, 0, 84, 64
1, 9866, Note_on_c, 0, 82, 41
1, 9868, Note_on_c, 0, 85, 39
1, 9874, Note_on_c, 0, 89, 37
1, 9938, Note_off_c, 0, 85, 64
1, 9941, Note_off_c, 0, 82, 64
1, 9950, Note_off_c, 0, 89, 64
1, 10164, Note_on_c, 0, 82, 41
1, 10168, Note_on_c, 0, 85, 43
1, 10178, Note_on_c, 0, 77, 37
1, 10222, Note_off_c, 0, 85, 64
1, 10226, Note_off_c, 0, 82, 64
1, 10236, Note_off_c, 0, 77, 64
1, 10496, Note_on_c, 0, 73, 24
1, 10504, Note_on_c, 0, 82, 35
1, 10524, Note_on_c, 0, 77, 16
1, 10570, Note_off_c, 0, 82, 64
1, 10582, Note_off_c, 0, 73, 64
1, 10586, Note_off_c, 0, 77, 64
1, 10966, Note_on_c, 0, 70, 18
1, 10968, Note_on_c, 0, 77, 24
1, 10990, Note_on_c, 0, 73, 11
1, 11280, Note_off_c, 0, 70, 64
1, 11326, Note_off_c, 0, 77, 64
1, 11334, Note_off_c, 0, 73, 64
1, 11608, Note_on_c, 0, 44, 44
1, 11878, Control_c, 0, 64, 0
1, 12131, Note_on_c, 0, 61, 51
1, 12138, Note_on_c, 0, 58, 19
1, 12142, Note_on_c, 0, 54, 45
1, 12324, Control_c, 0, 64, 127
1, 12346, Note_off_c, 0, 54, 64
1, 12354, Note_off_c, 0, 58, 64
1, 12356, Note_off_c, 0, 61, 64
1, 12598, Note_on_c, 0, 68, 40
1, 12610, Note_on_c, 0, 65, 38
1, 12620, Note_on_c, 0, 60, 38
1, 12640, Note_on_c, 0, 37, 35
1, 12708, Control_c, 0, 64, 0
1, 12864, Note_off_c, 0, 60, 64
1, 12906, Control_c, 0, 64, 127
1, 12976, Note_off_c, 0, 37, 64
1, 12996, Note_off_c, 0, 68, 64
1, 13002, Note_off_c, 0, 44, 64
1, 13020, Note_on_c, 0, 63, 50
1, 13026, Note_off_c, 0, 65, 64
1, 13032, Note_on_c, 0, 58, 27
1, 13032, Note_on_c, 0, 61, 31
1, 13096, Note_off_c, 0, 63, 64
1, 13118, Note_off_c, 0, 61, 64
1, 13130, Note_off_c, 0, 58, 64
1, 13420, Note_on_c, 0, 68, 77
1, 13768, Note_on_c, 0, 66, 30
1, 13778, Note_on_c, 0, 73, 28
1, 13780, Note_on_c, 0, 70, 25
1, 13838, Note_off_c, 0, 66, 64
1, 13854, Note_off_c, 0, 70, 64
1, 13862, Note_off_c, 0, 73, 64
1, 14118, Note_on_c, 0, 80, 55
1, 14124, Note_on_c, 0, 72, 40
1, 14124, Note_on_c, 0, 77, 38
1, 14204, Note_off_c, 0, 72, 64
1, 14306, Note_off_c, 0, 80, 64
1, 14326, Note_off_c, 0, 77, 64
1, 14402, Note_on_c, 0, 75, 53
1, 14405, Note_on_c, 0, 73, 42
1, 14414, Note_on_c, 0, 70, 30
1, 14474, Note_off_c, 0, 73, 64
1, 14477, Note_off_c, 0, 70, 64
1, 14486, Note_off_c, 0, 75, 64
1, 14682, Note_on_c, 0, 85, 55
1, 14684, Note_on_c, 0, 65, 79
1, 14692, Note_on_c, 0, 82, 33
1, 14695, Note_on_c, 0, 78, 33
1, 14740, Note_off_c, 0, 85, 64
1, 14742, Note_off_c, 0, 68, 64
1, 14754, Note_off_c, 0, 82, 64
1, 14762, Note_off_c, 0, 78, 64
1, 14978, Note_on_c, 0, 92, 52
1, 14998, Note_on_c, 0, 89, 43
1, 15001, Note_on_c, 0, 84, 64
1, 15058, Note_off_c, 0, 84, 64
1, 15070, Note_off_c, 0, 89, 64
1, 15076, Note_off_c, 0, 92, 64
1, 15284, Note_on_c, 0, 85, 41
1, 15292, Note_on_c, 0, 82, 48
1, 15292, Note_on_c, 0, 87, 59
1, 15330, Note_off_c, 0, 85, 64
1, 15332, Note_off_c, 0, 87, 64
1, 15344, Note_off_c, 0, 82, 64
1, 15568, Note_on_c, 0, 80, 59
1, 15568, Note_on_c, 0, 77, 45
1, 15570, Note_on_c, 0, 72, 57
1, 15614, Note_off_c, 0, 80, 64
1, 15616, Note_off_c, 0, 77, 64
1, 15622, Note_off_c, 0, 72, 64
1, 15884, Note_on_c, 0, 73, 16
1, 15888, Note_on_c, 0, 70, 46
1, 15896, Note_on_c, 0, 75, 38
1, 15902, Note_on_c, 0, 63, 42
1, 15940, Note_off_c, 0, 65, 64
1, 15946, Note_off_c, 0, 70, 64
1, 15952, Note_off_c, 0, 73, 64
1, 15952, Note_off_c, 0, 75, 64
1, 16008, Note_off_c, 0, 63, 64
1, 16192, Note_on_c, 0, 68, 39
1, 16194, Note_on_c, 0, 65, 28
1, 16196, Note_on_c, 0, 60, 46
1, 16260, Note_off_c, 0, 68, 64
1, 16262, Note_off_c, 0, 65, 64
1, 16300, Note_off_c, 0, 60, 64
1, 16548, Note_on_c, 0, 61, 24
1, 16552, Note_on_c, 0, 63, 38
1, 16556, Note_on_c, 0, 58, 28
1, 16960, Note_on_c, 0, 44, 43
1, 16968, Note_on_c, 0, 54, 29
1, 16978, Control_c, 0, 64, 0
1, 17286, Control_c, 0, 64, 127
1, 17398, Note_off_c, 0, 61, 64
1, 17420, Note_off_c, 0, 63, 64
1, 17454, Note_on_c, 0, 37, 44
1, 17460, Note_off_c, 0, 58, 64
1, 17464, Note_off_c, 0, 54, 64
1, 17792, Control_c, 0, 64, 0
1, 17864, Note_on_c, 0, 63, 47
1, 17870, Note_on_c, 0, 56, 40
1, 17878, Note_on_c, 0, 53, 61
1, 17944, Note_off_c, 0, 53, 64
1, 17978, Control_c, 0, 64, 127
1, 17980, Note_off_c, 0, 56, 64
1, 18014, Note_off_c, 0, 63, 64
1, 18190, Note_on_c, 0, 70, 52
1, 18208, Note_on_c, 0, 61, 35
1, 18212, Note_on_c, 0, 65, 35
1, 18270, Note_off_c, 0, 65, 64
1, 18274, Note_off_c, 0, 37, 64
1, 18284, Note_off_c, 0, 44, 64
1, 18358, Note_off_c, 0, 61, 64
1, 18472, Note_on_c, 0, 65, 65
1, 18475, Note_off_c, 0, 70, 64
1, 18478, Note_on_c, 0, 63, 48
1, 18480, Note_on_c, 0, 60, 44
1, 18536, Note_off_c, 0, 63, 64
1, 18542, Note_off_c, 0, 60, 64
1, 18600, Note_off_c, 0, 65, 64
1, 18764, Note_on_c, 0, 61, 42
1, 18767, Note_on_c, 0, 65, 52
1, 18770, Note_on_c, 0, 58, 27
1, 18970, Note_off_c, 0, 65, 64
1, 19042, Note_on_c, 0, 75, 59
1, 19042, Note_on_c, 0, 68, 47
1, 19106, Note_off_c, 0, 68, 64
1, 19240, Note_off_c, 0, 75, 64
1, 19332, Note_on_c, 0, 82, 52
1, 19335, Note_on_c, 0, 73, 38
1, 19335, Note_on_c, 0, 77, 47
1, 19364, Note_off_c, 0, 58, 64
1, 19378, Note_off_c, 0, 61, 64
1, 19386, Note_off_c, 0, 77, 64
1, 19412, Note_off_c, 0, 73, 64
1, 19604, Note_on_c, 0, 75, 43
1, 19606, Note_on_c, 0, 77, 62
1, 19614, Note_off_c, 0, 82, 64
1, 19618, Note_on_c, 0, 72, 33
1, 19668, Note_off_c, 0, 75, 64
1, 19678, Note_off_c, 0, 72, 64
1, 19732, Note_off_c, 0, 77, 64
1, 19900, Note_on_c, 0, 77, 53
1, 19904, Note_on_c, 0, 73, 39
1, 19912, Note_on_c, 0, 70, 35
1, 20174, Note_on_c, 0, 80, 47
1, 20178, Note_on_c, 0, 87, 46
1, 20236, Note_off_c, 0, 80, 64
1, 20266, Note_off_c, 0, 87, 64
1, 20502, Note_on_c, 0, 94, 31
1, 20518, Note_on_c, 0, 85, 26
1, 20532, Note_on_c, 0, 89, 16
1, 20610, Note_off_c, 0, 89, 64
1, 20686, Note_off_c, 0, 85, 64
1, 20818, Note_off_c, 0, 94, 64
1, 20834, Note_on_c, 0, 87, 21
1, 20834, Note_on_c, 0, 89, 42
1, 20837, Note_on_c, 0, 84, 42
1, 20910, Note_off_c, 0, 87, 64
1, 20918, Note_off_c, 0, 89, 64
1, 20918, Note_off_c, 0, 84, 64
1, 21182, Note_on_c, 0, 89, 39
1, 21184, Note_on_c, 0, 85, 32
1, 21192, Note_on_c, 0, 82, 26
1, 21246, Note_off_c, 0, 77, 64
1, 21249, Note_off_c, 0, 89, 64
1, 21249, Note_off_c, 0, 85, 64
1, 21266, Note_off_c, 0, 82, 64
1, 21292, Note_off_c, 0, 73, 64
1, 21334, Note_off_c, 0, 70, 64
1, 21520, Note_on_c, 0, 85, 40
1, 21524, Note_on_c, 0, 82, 31
1, 21538, Note_on_c, 0, 77, 31
1, 21594, Note_off_c, 0, 85, 64
1, 21596, Note_off_c, 0, 82, 64
1, 21600, Note_off_c, 0, 77, 64
1, 21912, Note_on_c, 0, 82, 28
1, 21920, Note_on_c, 0, 73, 18
1, 21946, Note_on_c, 0, 77, 22
1, 22012, Note_off_c, 0, 77, 64
1, 22036, Note_off_c, 0, 73, 64
1, 22066, Note_off_c, 0, 82, 64
1, 22454, Note_on_c, 0, 77, 21
1, 22454, Note_on_c, 0, 73, 13
1, 22456, Note_on_c, 0, 70, 16
1, 22608, Note_off_c, 0, 77, 64
1, 22614, Note_off_c, 0, 70, 64
1, 22664, Note_off_c, 0, 73, 64
1, 23432, Control_c, 0, 64, 0
1, 23588, Note_on_c, 0, 65, 51
1, 23600, Note_on_c, 0, 54, 37
1, 23606, Note_on_c, 0, 44, 28
1, 23608, Note_on_c, 0, 60, 28
1, 23610, Note_on_c, 0, 32, 25
1, 23764, Note_off_c, 0, 60, 64
1, 23816, Control_c, 0, 64, 127
1, 23850, Note_off_c, 0, 54, 64
1, 23874, Note_off_c, 0, 32, 64
1, 23902, Note_off_c, 0, 44, 64
1, 23962, Note_off_c, 0, 65, 64
1, 23974, Note_on_c, 0, 63, 75
1, 23979, Note_on_c, 0, 55, 51
1, 23986, Note_on_c, 0, 61, 37
1, 23996, Note_on_c, 0, 45, 40
1, 23996, Note_on_c, 0, 33, 41
1, 24032, Note_off_c, 0, 55, 64
1, 24052, Note_off_c, 0, 61, 64
1, 24104, Note_off_c, 0, 63, 64
1, 24128, Note_off_c, 0, 45, 64
1, 24142, Note_off_c, 0, 33, 64
1, 24302, Note_on_c, 0, 70, 71
1, 24308, Control_c, 0, 64, 0
1, 24312, Note_on_c, 0, 56, 47
1, 24316, Note_on_c, 0, 62, 48
1, 24328, Note_on_c, 0, 46, 41
1, 24331, Note_on_c, 0, 34, 46
1, 24474, Note_off_c, 0, 62, 64
1, 24492, Note_off_c, 0, 56, 64
1, 24494, Control_c, 0, 64, 127
1, 24572, Note_off_c, 0, 70, 64
1, 24590, Note_off_c, 0, 46, 64
1, 24593, Note_off_c, 0, 34, 64
1, 24692, Control_c, 0, 64, 0
1, 24706, Note_on_c, 0, 68, 65
1, 24718, Note_on_c, 0, 57, 53
1, 24734, Note_on_c, 0, 63, 39
1, 24740, Note_on_c, 0, 47, 28
1, 24740, Note_on_c, 0, 35, 40
1, 24850, Note_off_c, 0, 57, 64
1, 24892, Note_off_c, 0, 63, 64
1, 24908, Control_c, 0, 64, 127
1, 24954, Note_off_c, 0, 68, 64
1, 25156, Note_on_c, 0, 92, 53
1, 25318, Note_off_c, 0, 92, 64
1, 25554, Note_on_c, 0, 87, 40
1, 25620, Note_off_c, 0, 87, 64
1, 25950, Note_on_c, 0, 80, 33
1, 26074, Note_off_c, 0, 80, 64
1, 26478, Note_on_c, 0, 75, 26
1, 26570, Note_off_c, 0, 75, 64
1, 26574, Note_off_c, 0, 35, 64
1, 26594, Note_off_c, 0, 47, 64
1, 27154, Note_on_c, 0, 65, 45
1, 27159, Note_on_c, 0, 44, 31
1, 27164, Note_on_c, 0, 54, 37
1, 27174, Note_on_c, 0, 32, 23
1, 27184, Note_on_c, 0, 60, 29
1, 27196, Control_c, 0, 64, 0
1, 27396, Control_c, 0, 64, 127
1, 27416, Note_off_c, 0, 60, 64
1, 27476, Note_off_c, 0, 54, 64
1, 27479, Note_off_c, 0, 32, 64
1, 27484, Note_off_c, 0, 44, 64
1, 27570, Note_off_c, 0, 65, 64
1, 27640, Note_on_c, 0, 63, 52
1, 27656, Note_on_c, 0, 55, 53
1, 27658, Note_on_c, 0, 61, 35
1, 27674, Control_c, 0, 64, 0
1, 27674, Note_on_c, 0, 33, 25
1, 27677, Note_on_c, 0, 45, 23
1, 27812, Note_off_c, 0, 55, 64
1, 27812, Control_c, 0, 64, 127
1, 27828, Note_off_c, 0, 63, 64
1, 27838, Note_off_c, 0, 61, 64
1, 27838, Note_off_c, 0, 45, 64
1, 27844, Note_off_c, 0, 33, 64
1, 28030, Note_on_c, 0, 70, 62
1, 28033, Note_on_c, 0, 56, 48
1, 28044, Note_on_c, 0, 34, 42
1, 28046, Note_on_c, 0, 46, 29
1, 28054, Note_on_c, 0, 62, 50
1, 28072, Control_c, 0, 64, 0
1, 28226, Control_c, 0, 64, 127
1, 28258, Note_off_c, 0, 62, 64
1, 28262, Note_off_c, 0, 56, 64
1, 28282, Note_off_c, 0, 46, 64
1, 28288, Note_off_c, 0, 70, 64
1, 28290, Note_off_c, 0, 34, 64
1, 28370, Note_on_c, 0, 68, 74
1, 28380, Control_c, 0, 64, 0
1, 28388, Note_on_c, 0, 57, 51
1, 28392, Note_on_c, 0, 63, 56
1, 28396, Note_on_c, 0, 47, 39
1, 28398, Note_on_c, 0, 35, 50
1, 28484, Note_off_c, 0, 57, 64
1, 28504, Control_c, 0, 64, 127
1, 28516, Note_off_c, 0, 63, 64
1, 28540, Note_off_c, 0, 35, 64
1, 28546, Note_off_c, 0, 47, 64
1, 28554, Note_off_c, 0, 68, 64
1, 28604, Note_on_c, 0, 58, 44
1, 28660, Note_off_c, 0, 58, 64
1, 28706, Note_on_c, 0, 72, 83
1, 28706, Note_on_c, 0, 48, 44
1, 28720, Note_on_c, 0, 36, 46
1, 28728, Note_on_c, 0, 64, 69
1, 28892, Note_off_c, 0, 72, 64
1, 28906, Note_off_c, 0, 48, 64
1, 28920, Note_off_c, 0, 36, 64
1, 29080, Note_on_c, 0, 70, 68
1, 29084, Note_on_c, 0, 49, 51
1, 29086, Note_off_c, 0, 64, 64
1, 29090, Note_on_c, 0, 59, 62
1, 29100, Note_on_c, 0, 37, 44
1, 29102, Control_c, 0, 64, 0
1, 29102, Note_on_c, 0, 65, 57
1, 29300, Note_off_c, 0, 59, 64
1, 29318, Control_c, 0, 64, 127
1, 29348, Note_off_c, 0, 65, 64
1, 29406, Note_off_c, 0, 70, 64
1, 29678, Note_on_c, 0, 94, 55
1, 29834, Note_off_c, 0, 94, 64
1, 30110, Note_on_c, 0, 89, 50
1, 30228, Note_off_c, 0, 89, 64
1, 30478, Note_on_c, 0, 82, 5
1, 30640, Note_off_c, 0, 82, 64
1, 30820, Note_on_c, 0, 77, 47
1, 30872, Note_off_c, 0, 77, 64
1, 31190, Note_on_c, 0, 70, 41
1, 31344, Note_off_c, 0, 37, 64
1, 31486, Note_off_c, 0, 49, 64
1, 31576, Note_on_c, 0, 65, 31
1, 31658, Note_off_c, 0, 65, 64
1, 31996, Note_on_c, 0, 42, 27
1, 31999, Note_on_c, 0, 54, 30
1, 31999, Note_on_c, 0, 63, 28
1, 31999, Note_on_c, 0, 58, 18
1, 32006, Control_c, 0, 64, 0
1, 32010, Note_on_c, 0, 61, 29
1, 32236, Control_c, 0, 64, 127
1, 32244, Note_off_c, 0, 54, 64
1, 32282, Note_off_c, 0, 58, 64
1, 32302, Note_off_c, 0, 63, 64
1, 32336, Note_off_c, 0, 42, 64
1, 32512, Note_off_c, 0, 61, 64
1, 32544, Control_c, 0, 64, 0
1, 32552, Note_on_c, 0, 54, 33
1, 32554, Note_on_c, 0, 65, 25
1, 32568, Note_on_c, 0, 44, 27
1, 32568, Note_on_c, 0, 60, 33
1, 32774, Note_off_c, 0, 70, 64
1, 32774, Control_c, 0, 64, 127
1, 32806, Note_off_c, 0, 65, 64
1, 32986, Note_off_c, 0, 60, 64
1, 33028, Note_on_c, 0, 65, 36
1, 33114, Note_off_c, 0, 44, 64
1, 33138, Note_off_c, 0, 54, 64
1, 33380, Note_on_c, 0, 58, 36
1, 33484, Note_off_c, 0, 65, 64
1, 33554, Note_off_c, 0, 58, 64
1, 33730, Note_on_c, 0, 60, 37
1, 33744, Note_on_c, 0, 77, 19
1, 33746, Note_on_c, 0, 72, 10
1, 33792, Note_off_c, 0, 60, 64
1, 34080, Note_on_c, 0, 94, 42
1, 34210, Note_off_c, 0, 77, 64
1, 34218, Note_off_c, 0, 72, 64
1, 34278, Note_off_c, 0, 94, 64
1, 34414, Note_on_c, 0, 89, 41
1, 34506, Note_off_c, 0, 89, 64
1, 34756, Note_on_c, 0, 72, 31
1, 34759, Note_on_c, 0, 77, 42
1, 34850, Note_off_c, 0, 77, 64
1, 34922, Note_off_c, 0, 72, 64
1, 35206, Note_on_c, 0, 70, 43
1, 35420, Note_on_c, 0, 38, 34
1, 35532, Note_on_c, 0, 43, 41
1, 35648, Control_c, 0, 64, 0
1, 35674, Note_on_c, 0, 65, 37
1, 35684, Note_on_c, 0, 60, 43
1, 35706, Note_on_c, 0, 53, 70
1, 35970, Control_c, 0, 64, 127
1, 36056, Note_on_c, 0, 62, 66
1, 36058, Note_off_c, 0, 53, 64
1, 36082, Note_off_c, 0, 60, 64
1, 36138, Note_off_c, 0, 38, 64
1, 36186, Note_off_c, 0, 43, 64
1, 36380, Note_off_c, 0, 62, 64
1, 36400, Note_on_c, 0, 58, 51
1, 36468, Note_off_c, 0, 58, 64
1, 36482, Note_off_c, 0, 65, 64
1, 36606, Note_off_c, 0, 70, 64
1, 36756, Note_on_c, 0, 67, 56
1, 36768, Note_on_c, 0, 60, 43
1, 36844, Note_off_c, 0, 67, 64
1, 36936, Note_off_c, 0, 60, 64
1, 37088, Note_on_c, 0, 82, 62
1, 37106, Note_on_c, 0, 77, 47
1, 37116, Note_on_c, 0, 72, 34
1, 37288, Note_off_c, 0, 72, 64
1, 37466, Note_on_c, 0, 74, 61
1, 37840, Note_off_c, 0, 74, 64
1, 37848, Note_on_c, 0, 70, 42
1, 37856, Note_off_c, 0, 77, 64
1, 37992, Note_off_c, 0, 70, 64
1, 38086, Note_off_c, 0, 82, 64
1, 38338, Note_on_c, 0, 72, 21
1, 38341, Note_on_c, 0, 79, 34
1, 38410, Note_off_c, 0, 79, 64
1, 38424, Note_off_c, 0, 72, 64
1, 38928, Note_on_c, 0, 70, 51
1, 38936, Note_on_c, 0, 66, 30
1, 38946, Note_on_c, 0, 59, 42
1, 38962, Note_on_c, 0, 50, 34
1, 38996, Control_c, 0, 64, 0
1, 39288, Control_c, 0, 64, 127
1, 39362, Note_off_c, 0, 66, 64
1, 39374, Note_on_c, 0, 68, 61
1, 39386, Note_on_c, 0, 65, 48
1, 39440, Note_off_c, 0, 70, 64
1, 39522, Note_off_c, 0, 65, 64
1, 39544, Note_off_c, 0, 68, 64
1, 39586, Note_off_c, 0, 59, 64
1, 39786, Note_on_c, 0, 64, 52
1, 39790, Note_on_c, 0, 68, 59
1, 39792, Note_on_c, 0, 47, 38
1, 39796, Note_on_c, 0, 57, 52
1, 39809, Note_off_c, 0, 50, 64
1, 39980, Control_c, 0, 64, 0
1, 40078, Note_off_c, 0, 64, 64
1, 40150, Control_c, 0, 64, 127
1, 40156, Note_off_c, 0, 57, 64
1, 40168, Note_on_c, 0, 66, 62
1, 40168, Note_on_c, 0, 63, 62
1, 40208, Note_off_c, 0, 68, 64
1, 40218, Note_off_c, 0, 63, 64
1, 40230, Note_off_c, 0, 66, 64
1, 40477, Note_off_c, 0, 47, 64
1, 40494, Note_on_c, 0, 54, 72
1, 40498, Note_on_c, 0, 65, 38
1, 40498, Note_on_c, 0, 45, 35
1, 40500, Note_on_c, 0, 61, 63
1, 40734, Control_c, 0, 64, 0
1, 40826, Note_off_c, 0, 61, 64
1, 40850, Note_on_c, 0, 63, 70
1, 40860, Note_on_c, 0, 60, 58
1, 40868, Note_off_c, 0, 65, 64
1, 40948, Control_c, 0, 64, 127
1, 40990, Note_off_c, 0, 63, 64
1, 41000, Note_off_c, 0, 60, 64
1, 41008, Note_off_c, 0, 54, 64
1, 41246, Note_off_c, 0, 45, 64
1, 41248, Note_on_c, 0, 54, 47
1, 41248, Note_on_c, 0, 63, 57
1, 41258, Note_on_c, 0, 42, 33
1, 41262, Note_on_c, 0, 59, 43
1, 41378, Control_c, 0, 64, 0
1, 41610, Control_c, 0, 64, 127
1, 41660, Note_off_c, 0, 59, 64
1, 41692, Note_off_c, 0, 54, 64
1, 41730, Note_on_c, 0, 61, 59
1, 41738, Note_off_c, 0, 63, 64
1, 41738, Note_on_c, 0, 57, 48
1, 41800, Note_off_c, 0, 57, 64
1, 41836, Note_off_c, 0, 61, 64
1, 42026, Note_off_c, 0, 42, 64
1, 42238, Note_on_c, 0, 39, 28
1, 42238, Note_on_c, 0, 57, 39
1, 42238, Note_on_c, 0, 44, 34
1, 42240, Note_on_c, 0, 51, 29
1, 42242, Note_on_c, 0, 54, 50
1, 42242, Note_on_c, 0, 49, 29
1, 42246, Note_on_c, 0, 61, 43
1, 42254, Control_c, 0, 64, 0
1, 42560, Note_off_c, 0, 39, 64
1, 42562, Control_c, 0, 64, 127
1, 42574, Note_off_c, 0, 44, 64
1, 42592, Note_off_c, 0, 51, 64
1, 42592, Note_off_c, 0, 49, 64
1, 42744, Note_off_c, 0, 57, 64
1, 42744, Note_on_c, 0, 56, 45
1, 42792, Note_off_c, 0, 61, 64
1, 42800, Note_off_c, 0, 54, 64
1, 42904, Note_off_c, 0, 56, 64
1, 43178, Note_on_c, 0, 63, 23
1, 43180, Note_on_c, 0, 61, 19
1, 43550, Note_on_c, 0, 66, 32
1, 43676, Note_off_c, 0, 63, 64
1, 43756, Note_off_c, 0, 61, 64
1, 43912, Note_off_c, 0, 66, 64
1, 43926, Note_on_c, 0, 68, 29
1, 44202, Note_off_c, 0, 68, 64
1, 44288, Note_on_c, 0, 73, 24
1, 44288, Note_on_c, 0, 75, 35
1, 44436, Note_off_c, 0, 73, 64
1, 44510, Note_off_c, 0, 75, 64
1, 44754, Note_on_c, 0, 78, 31
1, 45212, Note_off_c, 0, 78, 64
1, 45300, Note_on_c, 0, 80, 26
1, 45362, Note_off_c, 0, 80, 64
1, 46432, Note_on_c, 0, 99, 26
1, 46438, Note_on_c, 0, 25, 14
1, 46450, Note_on_c, 0, 37, 11
1, 46454, Note_on_c, 0, 87, 14
1, 46464, Control_c, 0, 64, 0
1, 46466, Note_on_c, 0, 94, 11
1, 46600, Note_off_c, 0, 94, 64
1, 46634, Note_off_c, 0, 87, 64
1, 46634, Control_c, 0, 64, 127
1, 46646, Note_off_c, 0, 37, 64
1, 46656, Note_off_c, 0, 99, 64
1, 46656, Note_off_c, 0, 25, 64
1, 46945, Note_on_c, 0, 27, 24
1, 46948, Note_on_c, 0, 39, 26
1, 46956, Note_on_c, 0, 97, 26
1, 46962, Note_on_c, 0, 85, 27
1, 46972, Note_on_c, 0, 92, 21
1, 47031, Note_off_c, 0, 27, 64
1, 47058, Note_off_c, 0, 92, 64
1, 47086, Note_off_c, 0, 39, 64
1, 47104, Note_off_c, 0, 97, 64
1, 47144, Note_off_c, 0, 85, 64
1, 47368, Note_on_c, 0, 94, 34
1, 47372, Note_on_c, 0, 82, 26
1, 47376, Note_on_c, 0, 87, 26
1, 47386, Note_on_c, 0, 29, 24
1, 47388, Note_on_c, 0, 41, 34
1, 47452, Note_off_c, 0, 87, 64
1, 47466, Note_off_c, 0, 41, 64
1, 47472, Note_off_c, 0, 29, 64
1, 47498, Note_off_c, 0, 94, 64
1, 47504, Note_off_c, 0, 82, 64
1, 47714, Note_on_c, 0, 32, 42
1, 47722, Note_on_c, 0, 92, 46
1, 47724, Note_on_c, 0, 44, 38
1, 47732, Note_on_c, 0, 80, 36
1, 47738, Note_on_c, 0, 85, 37
1, 47794, Note_off_c, 0, 92, 64
1, 47799, Note_off_c, 0, 85, 64
1, 47812, Note_off_c, 0, 44, 64
1, 47826, Note_off_c, 0, 32, 64
1, 47840, Note_off_c, 0, 80, 64
1, 48040, Note_on_c, 0, 46, 35
1, 48043, Note_on_c, 0, 87, 52
1, 48046, Note_on_c, 0, 34, 42
1, 48054, Note_on_c, 0, 82, 33
1, 48054, Note_on_c, 0, 75, 40
1, 48114, Note_off_c, 0, 34, 64
1, 48122, Note_off_c, 0, 46, 64
1, 48127, Note_off_c, 0, 82, 64
1, 48146, Note_off_c, 0, 75, 64
1, 48154, Note_off_c, 0, 87, 64
1, 48344, Note_on_c, 0, 85, 60
1, 48344, Note_on_c, 0, 73, 54
1, 48347, Note_on_c, 0, 49, 46
1, 48356, Note_on_c, 0, 37, 47
1, 48358, Note_on_c, 0, 80, 49
1, 48414, Note_off_c, 0, 80, 64
1, 48418, Note_off_c, 0, 37, 64
1, 48434, Note_off_c, 0, 49, 64
1, 48452, Note_off_c, 0, 73, 64
1, 48458, Note_off_c, 0, 85, 64
1, 48642, Note_on_c, 0, 82, 60
1, 48642, Note_on_c, 0, 70, 48
1, 48645, Note_on_c, 0, 75, 52
1, 48660, Note_on_c, 0, 51, 49
1, 48662, Note_on_c, 0, 39, 52
1, 48732, Note_off_c, 0, 39, 64
1, 48740, Note_off_c, 0, 51, 64
1, 48742, Note_off_c, 0, 75, 64
1, 48754, Note_off_c, 0, 70, 64
1, 48768, Note_off_c, 0, 82, 64
1, 48930, Note_on_c, 0, 53, 78
1, 48933, Note_on_c, 0, 80, 66
1, 48933, Note_on_c, 0, 68, 53
1, 48940, Note_on_c, 0, 41, 52
1, 48940, Note_on_c, 0, 73, 48
1, 48990, Note_off_c, 0, 53, 64
1, 48993, Note_off_c, 0, 41, 64
1, 49008, Note_off_c, 0, 73, 64
1, 49036, Note_off_c, 0, 68, 64
1, 49038, Note_off_c, 0, 80, 64
1, 49228, Note_on_c, 0, 75, 69
1, 49230, Note_on_c, 0, 63, 70
1, 49233, Note_on_c, 0, 44, 58
1, 49236, Note_on_c, 0, 56, 45
1, 49236, Note_on_c, 0, 68, 51
1, 49246, Control_c, 0, 64, 0
1, 49268, Note_on_c, 0, 51, 38
1, 49366, Note_off_c, 0, 51, 64
1, 49372, Note_off_c, 0, 44, 64
1, 49374, Note_off_c, 0, 56, 64
1, 49394, Note_off_c, 0, 75, 64
1, 49400, Control_c, 0, 64, 127
1, 49412, Note_off_c, 0, 63, 64
1, 49424, Note_off_c, 0, 68, 64
1, 49546, Note_on_c, 0, 73, 57
1, 49548, Note_on_c, 0, 61, 64
1, 49550, Note_on_c, 0, 58, 33
1, 49552, Note_on_c, 0, 70, 43
1, 49562, Note_on_c, 0, 46, 32
1, 49568, Control_c, 0, 64, 0
1, 49580, Note_on_c, 0, 53, 55
1, 49698, Note_off_c, 0, 53, 64
1, 49708, Note_off_c, 0, 58, 64
1, 49728, Note_off_c, 0, 61, 64
1, 49730, Control_c, 0, 64, 127
1, 49736, Note_off_c, 0, 46, 64
1, 49756, Note_off_c, 0, 70, 64
1, 49778, Note_off_c, 0, 73, 64
1, 49890, Control_c, 0, 64, 0
1, 49900, Note_on_c, 0, 75, 60
1, 49902, Note_on_c, 0, 63, 57
1, 49910, Note_on_c, 0, 44, 47
1, 49918, Note_on_c, 0, 68, 34
1, 49921, Note_on_c, 0, 56, 25
1, 49950, Note_on_c, 0, 51, 31
1, 50036, Note_off_c, 0, 51, 64
1, 50044, Control_c, 0, 64, 127
1, 50066, Note_off_c, 0, 56, 64
1, 50082, Note_off_c, 0, 63, 64
1, 50084, Note_off_c, 0, 44, 64
1, 50084, Note_off_c, 0, 68, 64
1, 50116, Note_off_c, 0, 75, 64
1, 50320, Control_c, 0, 64, 0
1, 50325, Note_on_c, 0, 77, 59
1, 50325, Note_on_c, 0, 65, 47
1, 50346, Note_on_c, 0, 72, 36
1, 50346, Note_on_c, 0, 41, 46
1, 50366, Note_on_c, 0, 53, 41
1, 50368, Note_on_c, 0, 48, 25
1, 50514, Note_off_c, 0, 53, 64
1, 50522, Control_c, 0, 64, 127
1, 50542, Note_off_c, 0, 65, 64
1, 50548, Note_off_c, 0, 48, 64
1, 50574, Note_off_c, 0, 41, 64
1, 50576, Note_off_c, 0, 72, 64
1, 50616, Note_off_c, 0, 77, 64
1, 51056, Note_on_c, 0, 96, 63
1, 51058, Note_on_c, 0, 41, 22
1, 51058, Note_on_c, 0, 84, 33
1, 51058, Note_on_c, 0, 36, 24
1, 51061, Note_on_c, 0, 86, 9
1, 51072, Note_on_c, 0, 29, 32
1, 51218, Note_off_c, 0, 84, 64
1, 51226, Note_off_c, 0, 41, 64
1, 51228, Note_off_c, 0, 36, 64
1, 51229, Note_off_c, 0, 29, 64
1, 51246, Note_off_c, 0, 86, 64
1, 51306, Note_off_c, 0, 96, 64
1, 52098, Note_on_c, 0, 62, 41
1, 52098, Note_on_c, 0, 48, 18
1, 52101, Note_on_c, 0, 60, 21
1, 52104, Note_on_c, 0, 50, 31
1, 53050, Note_off_c, 0, 48, 64
1, 53152, Note_off_c, 0, 50, 64
1, 53189, Note_off_c, 0, 60, 64
1, 53206, Note_off_c, 0, 62, 64
1, 54024, Note_on_c, 0, 53, 42
1, 54132, Note_on_c, 0, 56, 38
1, 54222, Note_on_c, 0, 59, 49
1, 54298, Note_on_c, 0, 63, 61
1, 54382, Note_on_c, 0, 68, 55
1, 54428, Note_off_c, 0, 63, 64
1, 54454, Note_on_c, 0, 65, 63
1, 54506, Note_off_c, 0, 68, 64
1, 54516, Control_c, 0, 64, 0
1, 54555, Note_on_c, 0, 61, 62
1, 54666, Note_off_c, 0, 65, 64
1, 54846, Note_off_c, 0, 56, 64
1, 54854, Control_c, 0, 64, 127
1, 54862, Note_off_c, 0, 59, 64
1, 54864, Note_off_c, 0, 53, 64
1, 54930, Note_off_c, 0, 61, 64
1, 56246, Note_on_c, 0, 96, 47
1, 56254, Note_on_c, 0, 41, 29
1, 56260, Note_on_c, 0, 89, 26
1, 56264, Note_on_c, 0, 29, 17
1, 56267, Note_on_c, 0, 36, 27
1, 56270, Note_on_c, 0, 84, 28
1, 56284, Control_c, 0, 64, 0
1, 56528, Control_c, 0, 64, 127
1, 56566, Note_off_c, 0, 29, 64
1, 56584, Note_off_c, 0, 41, 64
1, 56588, Note_off_c, 0, 96, 64
1, 56590, Note_off_c, 0, 36, 64
1, 56592, Note_off_c, 0, 89, 64
1, 56596, Note_off_c, 0, 84, 64
1, 57392, Note_on_c, 0, 62, 30
1, 57398, Note_on_c, 0, 50, 21
1, 57402, Note_on_c, 0, 60, 21
1, 57404, Note_on_c, 0, 48, 22
1, 58116, Note_off_c, 0, 60, 64
1, 58186, Note_off_c, 0, 50, 64
1, 58186, Note_off_c, 0, 48, 64
1, 58274, Note_off_c, 0, 62, 64
1, 59022, Note_on_c, 0, 53, 42
1, 59150, Note_on_c, 0, 56, 28
1, 59238, Note_on_c, 0, 59, 39
1, 59324, Note_on_c, 0, 63, 55
1, 59406, Note_on_c, 0, 68, 59
1, 59430, Note_off_c, 0, 63, 64
1, 59492, Note_on_c, 0, 65, 58
1, 59494, Control_c, 0, 64, 0
1, 59524, Note_off_c, 0, 68, 64
1, 59620, Note_on_c, 0, 61, 48
1, 59714, Note_off_c, 0, 65, 64
1, 59956, Control_c, 0, 64, 127
1, 59972, Note_off_c, 0, 56, 64
1, 59984, Note_off_c, 0, 53, 64
1, 60102, Note_off_c, 0, 59, 64
1, 60276, Note_off_c, 0, 61, 64
1, 60728, Note_on_c, 0, 53, 52
1, 60786, Control_c, 0, 64, 0
1, 60892, Note_on_c, 0, 59, 36
1, 61014, Control_c, 0, 64, 127
1, 61024, Note_on_c, 0, 63, 53
1, 61160, Note_on_c, 0, 68, 52
1, 61180, Note_off_c, 0, 63, 64
1, 61298, Note_on_c, 0, 65, 38
1, 61304, Note_off_c, 0, 68, 64
1, 61314, Note_off_c, 0, 59, 64
1, 61394, Note_off_c, 0, 65, 64
1, 61408, Note_on_c, 0, 61, 44
1, 61480, Note_off_c, 0, 53, 64
1, 61484, Note_off_c, 0, 61, 64
1, 61614, Note_on_c, 0, 56, 44
1, 61786, Note_on_c, 0, 62, 50
1, 61860, Control_c, 0, 64, 0
1, 61908, Note_on_c, 0, 66, 40
1, 61911, Note_off_c, 0, 62, 64
1, 62030, Note_on_c, 0, 71, 50
1, 62030, Control_c, 0, 64, 127
1, 62122, Note_off_c, 0, 66, 64
1, 62125, Note_on_c, 0, 68, 52
1, 62146, Note_off_c, 0, 71, 64
1, 62216, Note_off_c, 0, 68, 64
1, 62228, Note_on_c, 0, 64, 63
1, 62272, Note_off_c, 0, 64, 64
1, 62334, Note_on_c, 0, 59, 60
1, 62336, Note_off_c, 0, 56, 64
1, 62430, Control_c, 0, 64, 0
1, 62448, Note_on_c, 0, 65, 53
1, 62548, Note_on_c, 0, 69, 49
1, 62586, Note_off_c, 0, 65, 64
1, 62628, Control_c, 0, 64, 127
1, 62640, Note_on_c, 0, 74, 65
1, 62682, Note_off_c, 0, 69, 64
1, 62727, Note_on_c, 0, 70, 56
1, 62774, Note_off_c, 0, 74, 64
1, 62804, Note_on_c, 0, 67, 57
1, 62852, Note_off_c, 0, 70, 64
1, 62855, Note_off_c, 0, 59, 64
1, 62855, Note_off_c, 0, 67, 64
1, 62920, Note_on_c, 0, 62, 59
1, 62996, Note_on_c, 0, 68, 55
1, 63012, Control_c, 0, 64, 0
1, 63108, Note_on_c, 0, 72, 51
1, 63158, Note_off_c, 0, 68, 64
1, 63202, Note_on_c, 0, 77, 54
1, 63212, Control_c, 0, 64, 127
1, 63258, Note_off_c, 0, 72, 64
1, 63284, Note_off_c, 0, 62, 64
1, 63296, Note_on_c, 0, 74, 60
1, 63326, Note_off_c, 0, 77, 64
1, 63346, Note_on_c, 0, 70, 49
1, 63360, Note_off_c, 0, 74, 64
1, 63454, Note_off_c, 0, 70, 64
1, 63474, Note_on_c, 0, 65, 65
1, 63534, Control_c, 0, 64, 0
1, 63568, Note_on_c, 0, 71, 61
1, 63660, Note_on_c, 0, 75, 51
1, 63704, Note_off_c, 0, 71, 64
1, 63748, Note_on_c, 0, 80, 58
1, 63780, Control_c, 0, 64, 127
1, 63822, Note_off_c, 0, 75, 64
1, 63840, Note_on_c, 0, 77, 63
1, 63888, Note_off_c, 0, 80, 64
1, 63904, Note_off_c, 0, 65, 64
1, 63904, Note_on_c, 0, 73, 48
1, 63930, Note_off_c, 0, 77, 64
1, 63978, Note_off_c, 0, 73, 64
1, 64024, Note_on_c, 0, 68, 73
1, 64120, Control_c, 0, 64, 0
1, 64124, Note_on_c, 0, 74, 60
1, 64226, Note_on_c, 0, 78, 51
1, 64288, Note_off_c, 0, 74, 64
1, 64300, Note_on_c, 0, 83, 80
1, 64348, Control_c, 0, 64, 127
1, 64394, Note_on_c, 0, 80, 55
1, 64404, Note_off_c, 0, 78, 64
1, 64432, Note_off_c, 0, 83, 64
1, 64490, Note_on_c, 0, 76, 48
1, 64500, Note_off_c, 0, 68, 64
1, 64503, Note_off_c, 0, 80, 64
1, 64562, Note_on_c, 0, 71, 92
1, 64564, Note_off_c, 0, 76, 64
1, 64670, Note_on_c, 0, 77, 59
1, 64672, Control_c, 0, 64, 0
1, 64770, Note_off_c, 0, 77, 64
1, 64780, Note_on_c, 0, 81, 53
1, 64854, Note_on_c, 0, 86, 48
1, 64888, Control_c, 0, 64, 127
1, 64924, Note_off_c, 0, 81, 64
1, 64932, Note_off_c, 0, 71, 64
1, 64960, Note_on_c, 0, 83, 81
1, 65000, Note_off_c, 0, 86, 64
1, 65046, Note_on_c, 0, 79, 48
1, 65084, Note_off_c, 0, 83, 64
1, 65100, Note_off_c, 0, 79, 64
1, 65169, Note_on_c, 0, 74, 68
1, 65264, Note_on_c, 0, 80, 52
1, 65286, Control_c, 0, 64, 0
1, 65372, Note_on_c, 0, 84, 50
1, 65402, Note_off_c, 0, 80, 64
1, 65454, Note_on_c, 0, 89, 48
1, 65456, Control_c, 0, 64, 127
1, 65482, Note_off_c, 0, 74, 64
1, 65504, Note_off_c, 0, 84, 64
1, 65574, Note_on_c, 0, 86, 49
1, 65598, Note_off_c, 0, 89, 64
1, 65648, Note_on_c, 0, 82, 37
1, 65668, Note_off_c, 0, 86, 64
1, 65720, Note_off_c, 0, 82, 64
1, 65768, Note_on_c, 0, 77, 62
1, 65810, Control_c, 0, 64, 0
1, 65916, Note_on_c, 0, 80, 48
1, 65948, Note_off_c, 0, 77, 64
1, 65972, Note_off_c, 0, 80, 64
1, 65978, Control_c, 0, 64, 127
1, 66018, Note_on_c, 0, 83, 72
1, 66100, Note_on_c, 0, 87, 38
1, 66172, Note_off_c, 0, 83, 64
1, 66180, Note_off_c, 0, 87, 64
1, 66186, Note_on_c, 0, 92, 25
1, 66236, Note_on_c, 0, 94, 50
1, 66278, Note_off_c, 0, 92, 64
1, 66294, Note_off_c, 0, 94, 64
1, 66332, Note_on_c, 0, 99, 63
1, 66380, Note_off_c, 0, 99, 64
1, 66430, Note_on_c, 0, 94, 43
1, 66508, Note_off_c, 0, 94, 64
1, 66520, Note_on_c, 0, 92, 42
1, 66598, Note_on_c, 0, 87, 34
1, 66670, Note_on_c, 0, 80, 33
1, 66672, Note_off_c, 0, 87, 64
1, 66674, Note_on_c, 0, 83, 65
1, 66714, Note_off_c, 0, 92, 64
1, 66738, Note_off_c, 0, 83, 64
1, 66750, Note_off_c, 0, 80, 64
1, 66764, Note_on_c, 0, 77, 52
1, 66820, Note_off_c, 0, 77, 64
1, 66834, Note_on_c, 0, 76, 64
1, 66900, Control_c, 0, 64, 0
1, 66940, Note_on_c, 0, 80, 49
1, 67006, Note_off_c, 0, 80, 64
1, 67020, Note_off_c, 0, 76, 64
1, 67022, Control_c, 0, 64, 127
1, 67026, Note_on_c, 0, 83, 70
1, 67088, Note_on_c, 0, 88, 44
1, 67146, Note_on_c, 0, 92, 39
1, 67152, Note_off_c, 0, 83, 64
1, 67164, Note_off_c, 0, 88, 64
1, 67198, Note_on_c, 0, 94, 50
1, 67226, Note_off_c, 0, 92, 64
1, 67264, Note_off_c, 0, 94, 64
1, 67282, Note_on_c, 0, 100, 69
1, 67318, Note_off_c, 0, 100, 64
1, 67392, Note_on_c, 0, 94, 41
1, 67458, Note_on_c, 0, 92, 41
1, 67468, Note_off_c, 0, 94, 64
1, 67524, Note_on_c, 0, 88, 36
1, 67552, Note_off_c, 0, 92, 64
1, 67582, Note_on_c, 0, 83, 72
1, 67638, Note_off_c, 0, 88, 64
1, 67656, Note_on_c, 0, 80, 43
1, 67676, Note_off_c, 0, 83, 64
1, 67712, Note_off_c, 0, 80, 64
1, 67715, Note_on_c, 0, 76, 50
1, 67780, Note_off_c, 0, 76, 64
1, 67780, Note_on_c, 0, 75, 73
1, 67852, Control_c, 0, 64, 0
1, 67914, Note_on_c, 0, 80, 52
1, 67988, Note_on_c, 0, 83, 71
1, 68006, Note_off_c, 0, 75, 64
1, 68006, Control_c, 0, 64, 127
1, 68014, Note_off_c, 0, 80, 64
1, 68066, Note_on_c, 0, 89, 57
1, 68122, Note_on_c, 0, 92, 47
1, 68130, Note_off_c, 0, 83, 64
1, 68192, Note_on_c, 0, 94, 41
1, 68194, Note_off_c, 0, 89, 64
1, 68250, Note_off_c, 0, 94, 64
1, 68256, Note_on_c, 0, 101, 41
1, 68278, Note_off_c, 0, 92, 64
1, 68307, Note_off_c, 0, 101, 64
1, 68376, Note_on_c, 0, 94, 36
1, 68478, Note_on_c, 0, 92, 38
1, 68512, Note_off_c, 0, 94, 64
1, 68520, Note_on_c, 0, 89, 41
1, 68576, Note_on_c, 0, 83, 65
1, 68596, Note_off_c, 0, 89, 64
1, 68640, Note_on_c, 0, 80, 37
1, 68652, Note_off_c, 0, 83, 64
1, 68660, Note_off_c, 0, 92, 64
1, 68710, Note_on_c, 0, 75, 57
1, 68712, Note_off_c, 0, 80, 64
1, 68766, Note_off_c, 0, 75, 64
1, 68794, Note_on_c, 0, 74, 69
1, 68836, Control_c, 0, 64, 0
1, 68912, Note_on_c, 0, 80, 59
1, 69002, Note_off_c, 0, 74, 64
1, 69018, Control_c, 0, 64, 127
1, 69030, Note_off_c, 0, 80, 64
1, 69032, Note_on_c, 0, 83, 71
1, 69102, Note_off_c, 0, 83, 64
1, 69118, Note_on_c, 0, 90, 46
1, 69186, Note_on_c, 0, 92, 40
1, 69220, Note_off_c, 0, 90, 64
1, 69250, Note_on_c, 0, 94, 36
1, 69278, Note_off_c, 0, 92, 64
1, 69314, Note_on_c, 0, 102, 70
1, 69358, Note_off_c, 0, 102, 64
1, 69398, Note_off_c, 0, 94, 64
1, 69448, Note_on_c, 0, 95, 38
1, 69526, Note_on_c, 0, 94, 38
1, 69536, Note_off_c, 0, 95, 64
1, 69576, Note_on_c, 0, 92, 47
1, 69582, Note_off_c, 0, 94, 64
1, 69642, Note_off_c, 0, 92, 64
1, 69662, Note_on_c, 0, 90, 49
1, 69712, Note_off_c, 0, 90, 64
1, 69748, Note_on_c, 0, 83, 69
1, 69798, Note_off_c, 0, 83, 64
1, 69832, Note_on_c, 0, 82, 57
1, 69926, Note_on_c, 0, 80, 57
1, 69954, Note_off_c, 0, 82, 64
1, 70000, Note_on_c, 0, 78, 50
1, 70022, Note_off_c, 0, 80, 64
1, 70048, Note_off_c, 0, 78, 64
1, 70076, Note_on_c, 0, 71, 73
1, 70122, Note_off_c, 0, 71, 64
1, 70166, Note_on_c, 0, 70, 51
1, 70228, Note_on_c, 0, 68, 45
1, 70238, Note_off_c, 0, 70, 64
1, 70310, Note_on_c, 0, 66, 54
1, 70313, Note_off_c, 0, 68, 64
1, 70378, Note_off_c, 0, 66, 64
1, 70402, Note_on_c, 0, 59, 32
1, 70468, Note_off_c, 0, 59, 64
1, 70484, Note_on_c, 0, 66, 41
1, 70558, Note_on_c, 0, 68, 46
1, 70578, Note_off_c, 0, 66, 64
1, 70614, Note_on_c, 0, 70, 58
1, 70620, Note_off_c, 0, 68, 64
1, 70656, Note_off_c, 0, 70, 64
1, 70706, Note_on_c, 0, 71, 48
1, 70774, Note_off_c, 0, 71, 64
1, 70780, Note_on_c, 0, 78, 66
1, 70870, Note_on_c, 0, 80, 62
1, 70894, Note_off_c, 0, 78, 64
1, 70922, Note_on_c, 0, 82, 64
1, 70932, Note_off_c, 0, 80, 64
1, 70960, Note_off_c, 0, 82, 64
1, 71002, Note_on_c, 0, 83, 84
1, 71054, Note_off_c, 0, 83, 64
1, 71076, Note_on_c, 0, 90, 69
1, 71172, Note_on_c, 0, 92, 61
1, 71194, Note_off_c, 0, 90, 64
1, 71234, Note_on_c, 0, 94, 68
1, 71262, Note_off_c, 0, 92, 64
1, 71274, Note_off_c, 0, 94, 64
1, 71330, Note_on_c, 0, 95, 58
1, 71380, Note_off_c, 0, 95, 64
1, 71418, Note_on_c, 0, 102, 71
1, 71460, Note_off_c, 0, 102, 64
1, 71530, Note_on_c, 0, 95, 31
1, 71594, Note_off_c, 0, 95, 64
1, 71610, Note_on_c, 0, 94, 54
1, 71692, Note_on_c, 0, 92, 55
1, 71718, Note_off_c, 0, 94, 64
1, 71758, Note_off_c, 0, 92, 64
1, 71766, Note_on_c, 0, 90, 48
1, 71816, Note_off_c, 0, 90, 64
1, 71836, Note_on_c, 0, 83, 80
1, 71880, Note_off_c, 0, 83, 64
1, 71928, Note_on_c, 0, 82, 48
1, 72010, Note_off_c, 0, 82, 64
1, 72012, Note_on_c, 0, 80, 59
1, 72080, Note_on_c, 0, 78, 47
1, 72085, Note_off_c, 0, 80, 64
1, 72132, Note_off_c, 0, 78, 64
1, 72164, Note_on_c, 0, 71, 52
1, 72216, Note_off_c, 0, 71, 64
1, 72254, Note_on_c, 0, 70, 42
1, 72320, Note_off_c, 0, 70, 64
1, 72328, Note_on_c, 0, 68, 36
1, 72388, Note_off_c, 0, 68, 64
1, 72388, Note_on_c, 0, 66, 46
1, 72456, Note_off_c, 0, 66, 64
1, 72490, Note_on_c, 0, 59, 33
1, 72552, Note_off_c, 0, 59, 64
1, 72590, Note_on_c, 0, 66, 38
1, 72660, Note_off_c, 0, 66, 64
1, 72666, Note_on_c, 0, 68, 36
1, 72706, Note_on_c, 0, 70, 59
1, 72724, Note_off_c, 0, 68, 64
1, 72746, Note_off_c, 0, 70, 64
1, 72806, Note_on_c, 0, 71, 34
1, 72870, Note_off_c, 0, 71, 64
1, 72872, Note_on_c, 0, 78, 65
1, 72974, Note_on_c, 0, 80, 56
1, 72992, Note_off_c, 0, 78, 64
1, 73018, Note_on_c, 0, 82, 51
1, 73022, Note_off_c, 0, 80, 64
1, 73068, Note_off_c, 0, 82, 64
1, 73092, Note_on_c, 0, 83, 88
1, 73140, Note_off_c, 0, 83, 64
1, 73174, Note_on_c, 0, 90, 58
1, 73256, Note_on_c, 0, 92, 64
1, 73272, Note_off_c, 0, 90, 64
1, 73310, Note_off_c, 0, 92, 64
1, 73316, Note_on_c, 0, 94, 48
1, 73364, Note_off_c, 0, 94, 64
1, 73408, Note_on_c, 0, 95, 56
1, 73456, Note_off_c, 0, 95, 64
1, 73456, Note_on_c, 0, 32, 53
1, 73492, Note_on_c, 0, 102, 59
1, 73546, Note_off_c, 0, 102, 64
1, 73630, Note_on_c, 0, 95, 42
1, 73682, Note_off_c, 0, 95, 64
1, 73714, Note_on_c, 0, 94, 47
1, 73806, Note_on_c, 0, 92, 47
1, 73836, Note_off_c, 0, 94, 64
1, 73872, Note_off_c, 0, 92, 64
1, 73878, Note_on_c, 0, 90, 29
1, 73942, Note_off_c, 0, 32, 64
1, 73952, Note_off_c, 0, 90, 64
1, 73972, Note_on_c, 0, 83, 63
1, 74022, Note_off_c, 0, 83, 64
1, 74072, Note_on_c, 0, 82, 30
1, 74144, Note_on_c, 0, 80, 49
1, 74154, Note_off_c, 0, 82, 64
1, 74224, Note_off_c, 0, 80, 64
1, 74232, Note_on_c, 0, 78, 34
1, 74298, Note_off_c, 0, 78, 64
1, 74410, Note_on_c, 0, 62, 41
1, 74416, Note_on_c, 0, 70, 36
1, 74490, Note_off_c, 0, 70, 64
1, 74494, Note_on_c, 0, 68, 39
1, 74566, Note_off_c, 0, 68, 64
1, 74568, Note_off_c, 0, 62, 64
1, 74592, Note_on_c, 0, 66, 29
1, 74642, Note_on_c, 0, 64, 82
1, 74654, Note_off_c, 0, 66, 64
1, 74696, Note_on_c, 0, 59, 62
1, 74746, Note_off_c, 0, 59, 64
1, 74800, Note_on_c, 0, 66, 37
1, 74870, Note_off_c, 0, 66, 64
1, 74872, Note_on_c, 0, 68, 39
1, 74918, Note_on_c, 0, 70, 57
1, 74928, Note_off_c, 0, 68, 64
1, 74966, Note_off_c, 0, 70, 64
1, 75004, Note_on_c, 0, 71, 52
1, 75076, Note_off_c, 0, 71, 64
1, 75078, Note_on_c, 0, 78, 68
1, 75158, Note_on_c, 0, 80, 62
1, 75172, Note_off_c, 0, 78, 64
1, 75212, Note_off_c, 0, 80, 64
1, 75216, Note_on_c, 0, 82, 50
1, 75254, Note_off_c, 0, 64, 64
1, 75268, Note_off_c, 0, 82, 64
1, 75298, Note_on_c, 0, 83, 70
1, 75354, Note_off_c, 0, 83, 64
1, 75366, Note_on_c, 0, 90, 69
1, 75418, Note_on_c, 0, 68, 80
1, 75458, Note_on_c, 0, 92, 55
1, 75488, Note_off_c, 0, 90, 64
1, 75516, Note_off_c, 0, 92, 64
1, 75519, Note_on_c, 0, 94, 53
1, 75566, Note_off_c, 0, 94, 64
1, 75596, Note_on_c, 0, 95, 53
1, 75612, Note_off_c, 0, 68, 64
1, 75636, Note_on_c, 0, 66, 83
1, 75646, Note_off_c, 0, 95, 64
1, 75680, Note_on_c, 0, 102, 66
1, 75774, Note_off_c, 0, 102, 64
1, 75808, Note_on_c, 0, 95, 46
1, 75858, Note_off_c, 0, 95, 64
1, 75902, Note_on_c, 0, 94, 49
1, 75986, Note_on_c, 0, 92, 50
1, 76000, Note_off_c, 0, 94, 64
1, 76052, Note_on_c, 0, 90, 44
1, 76058, Note_off_c, 0, 92, 64
1, 76104, Note_off_c, 0, 90, 64
1, 76128, Note_off_c, 0, 66, 64
1, 76136, Note_on_c, 0, 83, 75
1, 76180, Note_off_c, 0, 83, 64
1, 76236, Note_on_c, 0, 82, 39
1, 76316, Note_on_c, 0, 80, 53
1, 76346, Note_off_c, 0, 82, 64
1, 76370, Note_on_c, 0, 78, 49
1, 76380, Note_off_c, 0, 80, 64
1, 76418, Note_on_c, 0, 64, 80
1, 76420, Note_off_c, 0, 78, 64
1, 76460, Note_on_c, 0, 71, 54
1, 76488, Note_off_c, 0, 64, 64
1, 76514, Note_off_c, 0, 71, 64
1, 76552, Note_on_c, 0, 70, 34
1, 76586, Note_on_c, 0, 62, 87
1, 76608, Note_on_c, 0, 68, 48
1, 76618, Note_off_c, 0, 70, 64
1, 76688, Note_off_c, 0, 68, 64
1, 76696, Note_off_c, 0, 62, 64
1, 76706, Note_on_c, 0, 66, 28
1, 76774, Note_off_c, 0, 66, 64
1, 76786, Note_on_c, 0, 59, 52
1, 76842, Note_off_c, 0, 59, 64
1, 76908, Note_on_c, 0, 66, 11
1, 76960, Note_off_c, 0, 66, 64
1, 77022, Note_on_c, 0, 70, 62
1, 77060, Note_off_c, 0, 70, 64
1, 77122, Note_on_c, 0, 71, 50
1, 77196, Note_off_c, 0, 71, 64
1, 77206, Note_on_c, 0, 78, 60
1, 77292, Note_on_c, 0, 80, 58
1, 77318, Note_off_c, 0, 78, 64
1, 77342, Note_on_c, 0, 82, 58
1, 77346, Note_off_c, 0, 80, 64
1, 77384, Note_off_c, 0, 82, 64
1, 77502, Note_on_c, 0, 90, 69
1, 77600, Note_on_c, 0, 92, 58
1, 77630, Note_off_c, 0, 90, 64
1, 77654, Note_on_c, 0, 94, 58
1, 77668, Note_off_c, 0, 92, 64
1, 77696, Note_off_c, 0, 94, 64
1, 77748, Note_on_c, 0, 95, 67
1, 77798, Note_off_c, 0, 95, 64
1, 77846, Note_on_c, 0, 102, 68
1, 77894, Note_off_c, 0, 102, 64
1, 77946, Note_on_c, 0, 95, 62
1, 77996, Note_off_c, 0, 95, 64
1, 78050, Note_on_c, 0, 94, 55
1, 78130, Note_on_c, 0, 92, 55
1, 78164, Note_off_c, 0, 94, 64
1, 78196, Note_off_c, 0, 92, 64
1, 78202, Note_on_c, 0, 90, 47
1, 78254, Note_off_c, 0, 90, 64
1, 78288, Note_on_c, 0, 83, 74
1, 78332, Note_off_c, 0, 83, 64
1, 78382, Note_on_c, 0, 82, 38
1, 78454, Note_off_c, 0, 82, 64
1, 78454, Note_on_c, 0, 80, 50
1, 78520, Note_on_c, 0, 78, 47
1, 78530, Note_off_c, 0, 80, 64
1, 78570, Note_off_c, 0, 78, 64
1, 78624, Note_on_c, 0, 71, 35
1, 78694, Note_off_c, 0, 71, 64
1, 78706, Note_on_c, 0, 70, 28
1, 78764, Note_on_c, 0, 68, 35
1, 78774, Note_off_c, 0, 70, 64
1, 78820, Note_on_c, 0, 66, 48
1, 78823, Note_off_c, 0, 68, 64
1, 78874, Note_off_c, 0, 66, 64
1, 78928, Note_on_c, 0, 59, 84
1, 79039, Note_off_c, 0, 59, 64
1, 79078, Note_on_c, 0, 66, 38
1, 79140, Note_off_c, 0, 66, 64
1, 79144, Note_on_c, 0, 68, 43
1, 79204, Note_off_c, 0, 68, 64
1, 79207, Note_on_c, 0, 70, 49
1, 79258, Note_off_c, 0, 70, 64
1, 79288, Note_on_c, 0, 71, 56
1, 79358, Note_off_c, 0, 71, 64
1, 79368, Note_on_c, 0, 78, 64
1, 79450, Note_on_c, 0, 80, 52
1, 79474, Note_off_c, 0, 78, 64
1, 79510, Note_on_c, 0, 82, 58
1, 79524, Note_off_c, 0, 80, 64
1, 79550, Note_off_c, 0, 82, 64
1, 79588, Note_on_c, 0, 83, 88
1, 79634, Note_off_c, 0, 83, 64
1, 79668, Note_on_c, 0, 90, 59
1, 79754, Note_on_c, 0, 92, 50
1, 79757, Note_off_c, 0, 90, 64
1, 79792, Note_on_c, 0, 94, 60
1, 79804, Note_off_c, 0, 92, 64
1, 79830, Note_off_c, 0, 94, 64
1, 79880, Note_on_c, 0, 95, 64
1, 79942, Note_off_c, 0, 95, 64
1, 79962, Note_on_c, 0, 102, 62
1, 80034, Note_off_c, 0, 102, 64
1, 80042, Note_on_c, 0, 104, 47
1, 80078, Note_on_c, 0, 63, 86
1, 80094, Note_off_c, 0, 104, 64
1, 80114, Note_on_c, 0, 106, 45
1, 80130, Control_c, 0, 64, 0
1, 80190, Note_on_c, 0, 104, 38
1, 80234, Note_off_c, 0, 106, 64
1, 80294, Note_on_c, 0, 102, 50
1, 80308, Note_off_c, 0, 104, 64
1, 80314, Control_c, 0, 64, 127
1, 80340, Note_off_c, 0, 102, 64
1, 80362, Note_on_c, 0, 96, 55
1, 80410, Note_off_c, 0, 96, 64
1, 80456, Note_on_c, 0, 94, 55
1, 80470, Note_off_c, 0, 63, 64
1, 80548, Note_off_c, 0, 94, 64
1, 80558, Note_on_c, 0, 92, 29
1, 80614, Note_on_c, 0, 90, 55
1, 80630, Note_off_c, 0, 92, 64
1, 80660, Note_off_c, 0, 90, 64
1, 80714, Note_on_c, 0, 84, 44
1, 80764, Note_off_c, 0, 84, 64
1, 80796, Note_on_c, 0, 82, 57
1, 80860, Note_off_c, 0, 82, 64
1, 80896, Note_on_c, 0, 80, 35
1, 80954, Note_on_c, 0, 78, 53
1, 80960, Note_off_c, 0, 80, 64
1, 81000, Note_off_c, 0, 78, 64
1, 81050, Note_on_c, 0, 72, 24
1, 81118, Note_off_c, 0, 72, 64
1, 81132, Note_on_c, 0, 70, 51
1, 81190, Note_on_c, 0, 68, 35
1, 81196, Note_off_c, 0, 70, 64
1, 81262, Note_on_c, 0, 66, 46
1, 81274, Note_off_c, 0, 68, 64
1, 81294, Note_on_c, 0, 32, 45
1, 81322, Note_off_c, 0, 66, 64
1, 81352, Note_on_c, 0, 60, 55
1, 81424, Note_off_c, 0, 32, 64
1, 81424, Note_off_c, 0, 60, 64
1, 81454, Note_on_c, 0, 66, 39
1, 81524, Note_off_c, 0, 66, 64
1, 81550, Note_on_c, 0, 68, 39
1, 81586, Note_on_c, 0, 70, 64
1, 81606, Note_off_c, 0, 68, 64
1, 81624, Note_off_c, 0, 70, 64
1, 81678, Note_on_c, 0, 72, 49
1, 81746, Note_off_c, 0, 72, 64
1, 81752, Note_on_c, 0, 78, 68
1, 81844, Note_on_c, 0, 80, 56
1, 81880, Note_off_c, 0, 78, 64
1, 81885, Note_on_c, 0, 82, 73
1, 81904, Note_off_c, 0, 80, 64
1, 81920, Note_off_c, 0, 82, 64
1, 82008, Note_on_c, 0, 84, 21
1, 82050, Note_on_c, 0, 90, 73
1, 82076, Note_off_c, 0, 84, 64
1, 82138, Note_on_c, 0, 92, 49
1, 82172, Note_off_c, 0, 90, 64
1, 82176, Note_on_c, 0, 94, 66
1, 82190, Note_off_c, 0, 92, 64
1, 82210, Note_off_c, 0, 94, 64
1, 82250, Note_on_c, 0, 96, 83
1, 82294, Note_off_c, 0, 96, 64
1, 82330, Note_on_c, 0, 102, 70
1, 82404, Note_on_c, 0, 104, 58
1, 82406, Note_off_c, 0, 102, 64
1, 82452, Note_off_c, 0, 104, 64
1, 82464, Note_on_c, 0, 106, 66
1, 82528, Note_on_c, 0, 104, 41
1, 82582, Note_off_c, 0, 106, 64
1, 82612, Note_on_c, 0, 102, 59
1, 82638, Note_off_c, 0, 104, 64
1, 82652, Note_off_c, 0, 102, 64
1, 82670, Note_on_c, 0, 96, 58
1, 82714, Note_off_c, 0, 96, 64
1, 82762, Note_on_c, 0, 94, 59
1, 82840, Note_on_c, 0, 92, 50
1, 82892, Note_off_c, 0, 94, 64
1, 82912, Note_on_c, 0, 90, 43
1, 82940, Note_off_c, 0, 92, 64
1, 82970, Note_off_c, 0, 90, 64
1, 82978, Note_on_c, 0, 84, 45
1, 83032, Note_off_c, 0, 84, 64
1, 83060, Note_on_c, 0, 82, 61
1, 83146, Note_on_c, 0, 80, 12
1, 83154, Note_off_c, 0, 82, 64
1, 83190, Note_on_c, 0, 78, 64
1, 83196, Note_off_c, 0, 80, 64
1, 83230, Note_off_c, 0, 78, 64
1, 83262, Note_on_c, 0, 72, 35
1, 83336, Note_off_c, 0, 72, 64
1, 83352, Note_on_c, 0, 70, 45
1, 83384, Note_on_c, 0, 68, 50
1, 83412, Note_off_c, 0, 70, 64
1, 83462, Note_on_c, 0, 66, 44
1, 83476, Note_off_c, 0, 68, 64
1, 83518, Note_off_c, 0, 66, 64
1, 83534, Note_on_c, 0, 60, 70
1, 83598, Note_off_c, 0, 60, 64
1, 83624, Note_on_c, 0, 66, 36
1, 83698, Note_on_c, 0, 68, 52
1, 83728, Note_off_c, 0, 66, 64
1, 83742, Note_on_c, 0, 70, 68
1, 83760, Note_off_c, 0, 68, 64
1, 83778, Note_off_c, 0, 70, 64
1, 83824, Note_on_c, 0, 72, 76
1, 83876, Note_off_c, 0, 72, 64
1, 83898, Note_on_c, 0, 78, 73
1, 83976, Note_on_c, 0, 80, 73
1, 84022, Note_on_c, 0, 82, 69
1, 84028, Note_off_c, 0, 78, 64
1, 84046, Note_off_c, 0, 80, 64
1, 84054, Note_off_c, 0, 82, 64
1, 84110, Note_on_c, 0, 84, 80
1, 84174, Note_off_c, 0, 84, 64
1, 84174, Note_on_c, 0, 90, 78
1, 84248, Note_on_c, 0, 92, 66
1, 84294, Note_off_c, 0, 90, 64
1, 84296, Note_on_c, 0, 94, 70
1, 84330, Note_off_c, 0, 94, 64
1, 84336, Note_off_c, 0, 92, 64
1, 84384, Note_on_c, 0, 96, 81
1, 84436, Note_off_c, 0, 96, 64
1, 84454, Note_on_c, 0, 102, 75
1, 84536, Note_on_c, 0, 104, 64
1, 84582, Note_off_c, 0, 102, 64
1, 84588, Note_off_c, 0, 104, 64
1, 84592, Note_on_c, 0, 106, 70
1, 84680, Note_on_c, 0, 104, 45
1, 84732, Note_off_c, 0, 106, 64
1, 84750, Note_on_c, 0, 102, 64
1, 84792, Note_off_c, 0, 104, 64
1, 84792, Note_off_c, 0, 102, 64
1, 84820, Note_on_c, 0, 96, 54
1, 84866, Note_off_c, 0, 96, 64
1, 84912, Note_on_c, 0, 94, 62
1, 84986, Note_on_c, 0, 92, 46
1, 85016, Note_on_c, 0, 72, 103
1, 85030, Note_off_c, 0, 94, 64
1, 85030, Note_on_c, 0, 60, 84
1, 85034, Note_on_c, 0, 90, 55
1, 85058, Note_off_c, 0, 92, 64
1, 85080, Note_off_c, 0, 60, 64
1, 85082, Note_off_c, 0, 90, 64
1, 85092, Note_on_c, 0, 86, 55
1, 85144, Note_off_c, 0, 86, 64
1, 85158, Note_off_c, 0, 72, 64
1, 85178, Note_on_c, 0, 82, 73
1, 85238, Note_on_c, 0, 80, 39
1, 85274, Note_on_c, 0, 73, 100
1, 85280, Note_on_c, 0, 70, 82
1, 85280, Note_on_c, 0, 78, 68
1, 85283, Note_on_c, 0, 61, 95
1, 85286, Note_off_c, 0, 82, 64
1, 85290, Note_off_c, 0, 80, 64
1, 85320, Note_off_c, 0, 78, 64
1, 85368, Note_on_c, 0, 78, 79
1, 85430, Control_c, 0, 64, 0
1, 85462, Note_on_c, 0, 80, 71
1, 85498, Note_off_c, 0, 78, 64
1, 85538, Note_on_c, 0, 82, 61
1, 85567, Note_off_c, 0, 80, 64
1, 85584, Control_c, 0, 64, 127
1, 85592, Note_on_c, 0, 85, 72
1, 85597, Note_off_c, 0, 82, 64
1, 85610, Note_off_c, 0, 61, 64
1, 85626, Note_off_c, 0, 85, 64
1, 85632, Note_off_c, 0, 70, 64
1, 85666, Note_off_c, 0, 73, 64
1, 85678, Note_on_c, 0, 90, 85
1, 85750, Note_on_c, 0, 92, 69
1, 85774, Note_off_c, 0, 90, 64
1, 85830, Note_on_c, 0, 94, 69
1, 85870, Note_on_c, 0, 77, 107
1, 85873, Note_off_c, 0, 92, 64
1, 85876, Note_on_c, 0, 65, 97
1, 85906, Note_on_c, 0, 89, 84
1, 85926, Note_off_c, 0, 94, 64
1, 85966, Note_off_c, 0, 77, 64
1, 85982, Note_off_c, 0, 65, 64
1, 85996, Note_on_c, 0, 101, 91
1, 86028, Note_off_c, 0, 101, 64
1, 86092, Note_on_c, 0, 75, 104
1, 86106, Note_on_c, 0, 63, 84
1, 86112, Note_on_c, 0, 70, 65
1, 86124, Note_on_c, 0, 99, 90
1, 86126, Note_on_c, 0, 68, 50
1, 86130, Note_on_c, 0, 66, 49
1, 86198, Control_c, 0, 64, 0
1, 86232, Note_on_c, 0, 94, 67
1, 86240, Note_off_c, 0, 89, 64
1, 86294, Note_on_c, 0, 92, 63
1, 86306, Note_off_c, 0, 99, 64
1, 86352, Control_c, 0, 64, 127
1, 86381, Note_on_c, 0, 90, 64
1, 86398, Note_off_c, 0, 94, 64
1, 86420, Note_off_c, 0, 92, 64
1, 86428, Note_off_c, 0, 90, 64
1, 86430, Note_on_c, 0, 87, 76
1, 86462, Note_off_c, 0, 87, 64
1, 86526, Note_off_c, 0, 63, 64
1, 86526, Note_on_c, 0, 82, 77
1, 86562, Note_off_c, 0, 75, 64
1, 86584, Note_on_c, 0, 80, 55
1, 86620, Note_on_c, 0, 78, 78
1, 86632, Note_off_c, 0, 66, 64
1, 86650, Note_off_c, 0, 82, 64
1, 86653, Note_on_c, 0, 73, 93
1, 86670, Note_off_c, 0, 80, 64
1, 86678, Note_on_c, 0, 61, 65
1, 86680, Note_on_c, 0, 85, 82
1, 86700, Note_off_c, 0, 68, 64
1, 86718, Note_off_c, 0, 78, 64
1, 86754, Note_off_c, 0, 70, 64
1, 86764, Note_off_c, 0, 73, 64
1, 86770, Note_on_c, 0, 82, 57
1, 86810, Note_on_c, 0, 80, 75
1, 86846, Note_off_c, 0, 85, 64
1, 86886, Note_off_c, 0, 61, 64
1, 86889, Note_off_c, 0, 82, 64
1, 86896, Note_on_c, 0, 78, 67
1, 86932, Note_off_c, 0, 80, 64
1, 86935, Note_off_c, 0, 78, 64
1, 86935, Note_on_c, 0, 75, 72
1, 86972, Note_off_c, 0, 75, 64
1, 87048, Note_on_c, 0, 70, 73
1, 87106, Note_on_c, 0, 68, 50
1, 87154, Note_on_c, 0, 66, 67
1, 87206, Note_off_c, 0, 70, 64
1, 87206, Note_off_c, 0, 68, 64
1, 87236, Note_off_c, 0, 66, 64
1, 87258, Note_on_c, 0, 72, 94
1, 87261, Note_on_c, 0, 58, 71
1, 87264, Note_on_c, 0, 70, 65
1, 87266, Note_on_c, 0, 60, 71
1, 87270, Note_on_c, 0, 64, 88
1, 87278, Note_on_c, 0, 67, 76
1, 87350, Note_off_c, 0, 60, 64
1, 87364, Note_off_c, 0, 64, 64
1, 87430, Note_off_c, 0, 72, 64
1, 87448, Note_off_c, 0, 67, 64
1, 87488, Note_off_c, 0, 58, 64
1, 87512, Note_off_c, 0, 70, 64
1, 87536, Note_on_c, 0, 73, 80
1, 87536, Note_on_c, 0, 57, 76
1, 87539, Note_on_c, 0, 61, 76
1, 87544, Note_on_c, 0, 63, 80
1, 87544, Note_on_c, 0, 69, 64
1, 87547, Note_on_c, 0, 66, 64
1, 87688, Note_off_c, 0, 69, 64
1, 87688, Note_off_c, 0, 66, 64
1, 87698, Note_off_c, 0, 63, 64
1, 87706, Note_off_c, 0, 73, 64
1, 87738, Note_off_c, 0, 57, 64
1, 87752, Note_on_c, 0, 70, 80
1, 87758, Note_off_c, 0, 61, 64
1, 87758, Note_on_c, 0, 65, 76
1, 87761, Note_on_c, 0, 68, 73
1, 87761, Note_on_c, 0, 56, 69
1, 87761, Note_on_c, 0, 62, 76
1, 87858, Note_off_c, 0, 62, 64
1, 87874, Note_off_c, 0, 65, 64
1, 87898, Note_off_c, 0, 68, 64
1, 87958, Note_on_c, 0, 72, 89
1, 87961, Note_off_c, 0, 56, 64
1, 87970, Note_on_c, 0, 58, 48
1, 87974, Note_on_c, 0, 67, 68
1, 87976, Note_on_c, 0, 55, 66
1, 87982, Note_off_c, 0, 70, 64
1, 87984, Note_on_c, 0, 61, 62
1, 87986, Note_on_c, 0, 64, 61
1, 87996, Control_c, 0, 64, 0
1, 88132, Note_off_c, 0, 58, 64
1, 88170, Note_off_c, 0, 55, 64
1, 88180, Control_c, 0, 64, 127
1, 88206, Note_off_c, 0, 61, 64
1, 88252, Note_off_c, 0, 64, 64
1, 88302, Note_off_c, 0, 67, 64
1, 88348, Note_off_c, 0, 72, 64
1, 88472, Note_on_c, 0, 32, 67
1, 88634, Note_off_c, 0, 32, 64
1, 88996, Note_on_c, 0, 96, 39
1, 89074, Note_off_c, 0, 96, 64
1, 89104, Note_on_c, 0, 91, 31
1, 89162, Note_on_c, 0, 88, 39
1, 89256, Note_off_c, 0, 91, 64
1, 89266, Note_on_c, 0, 84, 42
1, 89272, Note_off_c, 0, 88, 64
1, 89306, Note_on_c, 0, 85, 61
1, 89322, Note_off_c, 0, 84, 64
1, 89368, Note_off_c, 0, 85, 64
1, 89398, Note_on_c, 0, 79, 70
1, 89452, Note_on_c, 0, 76, 56
1, 89512, Note_off_c, 0, 79, 64
1, 89514, Note_on_c, 0, 73, 59
1, 89564, Note_off_c, 0, 73, 64
1, 89578, Note_on_c, 0, 84, 79
1, 89584, Note_off_c, 0, 76, 64
1, 89642, Note_on_c, 0, 79, 75
1, 89690, Note_off_c, 0, 84, 64
1, 89696, Note_on_c, 0, 76, 38
1, 89764, Note_on_c, 0, 72, 60
1, 89786, Note_off_c, 0, 79, 64
1, 89792, Note_off_c, 0, 76, 64
1, 89808, Note_off_c, 0, 72, 64
1, 89822, Note_on_c, 0, 73, 66
1, 89910, Note_on_c, 0, 67, 63
1, 89940, Note_off_c, 0, 73, 64
1, 89956, Note_on_c, 0, 64, 61
1, 90004, Note_on_c, 0, 61, 66
1, 90007, Note_off_c, 0, 64, 64
1, 90028, Note_off_c, 0, 67, 64
1, 90046, Note_off_c, 0, 61, 64
1, 90096, Note_on_c, 0, 67, 73
1, 90102, Note_on_c, 0, 72, 94
1, 90112, Note_on_c, 0, 70, 66
1, 90120, Note_on_c, 0, 64, 83
1, 90132, Note_on_c, 0, 60, 85
1, 90152, Note_on_c, 0, 58, 49
1, 90226, Note_off_c, 0, 60, 64
1, 90248, Note_off_c, 0, 64, 64
1, 90256, Note_off_c, 0, 72, 64
1, 90272, Note_off_c, 0, 58, 64
1, 90278, Note_off_c, 0, 67, 64
1, 90352, Note_on_c, 0, 73, 86
1, 90352, Note_on_c, 0, 61, 86
1, 90358, Note_on_c, 0, 63, 88
1, 90366, Note_on_c, 0, 57, 70
1, 90366, Note_on_c, 0, 69, 63
1, 90376, Note_on_c, 0, 66, 54
1, 90398, Note_off_c, 0, 70, 64
1, 90442, Note_off_c, 0, 66, 64
1, 90466, Note_off_c, 0, 69, 64
1, 90478, Note_off_c, 0, 63, 64
1, 90494, Note_off_c, 0, 73, 64
1, 90504, Note_off_c, 0, 61, 64
1, 90504, Note_off_c, 0, 57, 64
1, 90544, Note_on_c, 0, 70, 79
1, 90552, Note_on_c, 0, 56, 69
1, 90552, Note_on_c, 0, 62, 84
1, 90552, Note_on_c, 0, 65, 78
1, 90558, Note_on_c, 0, 68, 68
1, 90566, Note_on_c, 0, 58, 57
1, 90626, Note_off_c, 0, 62, 64
1, 90626, Note_off_c, 0, 58, 64
1, 90640, Note_off_c, 0, 68, 64
1, 90678, Note_off_c, 0, 65, 64
1, 90738, Note_off_c, 0, 56, 64
1, 90752, Note_on_c, 0, 72, 74
1, 90760, Note_off_c, 0, 70, 64
1, 90762, Control_c, 0, 64, 0
1, 90768, Note_on_c, 0, 55, 68
1, 90770, Note_on_c, 0, 61, 64
1, 90774, Note_on_c, 0, 67, 52
1, 90777, Note_on_c, 0, 64, 45
1, 90786, Note_on_c, 0, 58, 34
1, 90888, Note_off_c, 0, 58, 64
1, 90930, Note_off_c, 0, 55, 64
1, 90946, Control_c, 0, 64, 127
1, 90960, Note_off_c, 0, 61, 64
1, 90996, Note_off_c, 0, 64, 64
1, 91030, Note_off_c, 0, 67, 64
1, 91080, Note_off_c, 0, 72, 64
1, 91242, Note_on_c, 0, 32, 69
1, 91472, Note_off_c, 0, 32, 64
1, 91682, Note_on_c, 0, 96, 41
1, 91760, Note_off_c, 0, 96, 64
1, 91794, Note_on_c, 0, 91, 30
1, 91854, Note_on_c, 0, 88, 36
1, 91944, Note_off_c, 0, 91, 64
1, 91956, Note_on_c, 0, 84, 57
1, 91978, Note_off_c, 0, 88, 64
1, 92002, Note_off_c, 0, 84, 64
1, 92020, Note_on_c, 0, 85, 56
1, 92066, Note_off_c, 0, 85, 64
1, 92110, Note_on_c, 0, 79, 61
1, 92170, Note_on_c, 0, 76, 52
1, 92200, Note_off_c, 0, 79, 64
1, 92230, Note_on_c, 0, 73, 52
1, 92288, Note_off_c, 0, 76, 64
1, 92288, Note_on_c, 0, 84, 63
1, 92332, Note_off_c, 0, 73, 64
1, 92358, Note_on_c, 0, 79, 72
1, 92404, Note_off_c, 0, 84, 64
1, 92434, Note_on_c, 0, 76, 31
1, 92500, Note_on_c, 0, 72, 57
1, 92526, Note_off_c, 0, 79, 64
1, 92546, Note_off_c, 0, 72, 64
1, 92550, Note_off_c, 0, 76, 64
1, 92576, Note_on_c, 0, 73, 52
1, 92678, Note_off_c, 0, 73, 64
1, 92684, Note_on_c, 0, 67, 51
1, 92762, Note_on_c, 0, 64, 59
1, 92848, Note_on_c, 0, 61, 60
1, 92856, Note_off_c, 0, 67, 64
1, 92898, Note_off_c, 0, 64, 64
1, 92914, Note_off_c, 0, 61, 64
1, 93024, Note_on_c, 0, 60, 76
1, 93232, Note_off_c, 0, 60, 64
1, 93362, Note_on_c, 0, 61, 75
1, 93562, Note_off_c, 0, 61, 64
1, 93766, Note_on_c, 0, 58, 59
1, 94500, Note_on_c, 0, 32, 26
1, 94526, Control_c, 0, 64, 0
1, 94694, Control_c, 0, 64, 127
1, 94748, Note_off_c, 0, 58, 64
1, 94930, Note_off_c, 0, 32, 64
1, 95176, Note_on_c, 0, 96, 45
1, 95246, Note_off_c, 0, 96, 64
1, 95378, Note_on_c, 0, 91, 13
1, 95460, Note_on_c, 0, 88, 38
1, 95556, Note_off_c, 0, 88, 64
1, 95568, Note_off_c, 0, 91, 64
1, 95580, Note_on_c, 0, 84, 47
1, 95630, Note_off_c, 0, 84, 64
1, 95638, Note_on_c, 0, 85, 37
1, 95690, Note_off_c, 0, 85, 64
1, 95730, Note_on_c, 0, 79, 47
1, 95808, Note_on_c, 0, 76, 41
1, 95896, Note_off_c, 0, 79, 64
1, 95898, Note_on_c, 0, 73, 39
1, 95902, Note_off_c, 0, 76, 64
1, 95954, Note_off_c, 0, 73, 64
1, 96042, Note_on_c, 0, 84, 46
1, 96132, Note_on_c, 0, 79, 39
1, 96156, Note_off_c, 0, 84, 64
1, 96234, Note_on_c, 0, 76, 30
1, 96336, Note_on_c, 0, 72, 45
1, 96362, Note_off_c, 0, 79, 64
1, 96384, Note_off_c, 0, 76, 64
1, 96392, Note_off_c, 0, 72, 64
1, 96444, Note_on_c, 0, 73, 25
1, 96574, Note_on_c, 0, 67, 27
1, 96598, Note_off_c, 0, 73, 64
1, 96698, Note_on_c, 0, 64, 29
1, 96804, Note_on_c, 0, 61, 35
1, 96966, Note_off_c, 0, 61, 64
1, 97010, Note_on_c, 0, 60, 44
1, 97258, Note_off_c, 0, 60, 64
1, 97398, Note_on_c, 0, 61, 41
1, 97470, Note_off_c, 0, 67, 64
1, 97574, Note_off_c, 0, 61, 64
1, 97690, Note_off_c, 0, 64, 64
1, 97936, Note_on_c, 0, 58, 23
1, 98440, Note_on_c, 0, 32, 22
1, 98614, Control_c, 0, 64, 0
1, 98782, Control_c, 0, 64, 127
1, 98998, Control_c, 0, 64, 0
1, 99104, Control_c, 0, 64, 127
1, 99678, Note_on_c, 0, 60, 40
1, 99884, Note_off_c, 0, 58, 64
1, 100470, Note_off_c, 0, 60, 64
1, 100476, Note_on_c, 0, 61, 27
1, 100748, Control_c, 0, 64, 0
1, 100980, Control_c, 0, 64, 127
1, 101468, Note_off_c, 0, 61, 64
1, 101508, Note_on_c, 0, 58, 15
1, 101624, Control_c, 0, 64, 0
1, 101870, Control_c, 0, 64, 127
1, 102016, Note_off_c, 0, 32, 64
1, 102376, Note_off_c, 0, 58, 64
1, 102744, Note_on_c, 0, 44, 36
1, 103272, Note_on_c, 0, 54, 35
1, 103404, Note_off_c, 0, 54, 64
1, 103414, Note_on_c, 0, 58, 31
1, 103510, Note_off_c, 0, 58, 64
1, 103546, Note_on_c, 0, 61, 29
1, 103626, Note_off_c, 0, 61, 64
1, 103638, Note_on_c, 0, 68, 39
1, 103714, Note_on_c, 0, 37, 29
1, 103746, Control_c, 0, 64, 0
1, 103790, Note_on_c, 0, 65, 34
1, 103874, Note_off_c, 0, 68, 64
1, 103926, Note_on_c, 0, 60, 25
1, 103930, Control_c, 0, 64, 127
1, 103952, Note_off_c, 0, 65, 64
1, 104002, Note_off_c, 0, 60, 64
1, 104002, Note_on_c, 0, 58, 41
1, 104014, Note_off_c, 0, 37, 64
1, 104040, Note_off_c, 0, 44, 64
1, 104084, Note_off_c, 0, 58, 64
1, 104129, Note_on_c, 0, 61, 44
1, 104214, Note_off_c, 0, 61, 64
1, 104244, Note_on_c, 0, 63, 46
1, 104328, Note_off_c, 0, 63, 64
1, 104620, Note_on_c, 0, 68, 67
1, 105078, Note_on_c, 0, 66, 24
1, 105164, Note_off_c, 0, 66, 64
1, 105172, Note_on_c, 0, 70, 40
1, 105236, Note_off_c, 0, 70, 64
1, 105290, Note_on_c, 0, 73, 37
1, 105364, Note_off_c, 0, 73, 64
1, 105378, Note_on_c, 0, 80, 43
1, 105456, Note_off_c, 0, 80, 64
1, 105508, Note_on_c, 0, 77, 38
1, 105566, Note_off_c, 0, 77, 64
1, 105602, Note_on_c, 0, 72, 25
1, 105668, Note_off_c, 0, 72, 64
1, 105688, Note_on_c, 0, 70, 33
1, 105757, Note_off_c, 0, 70, 64
1, 105806, Note_on_c, 0, 73, 27
1, 105874, Note_off_c, 0, 73, 64
1, 105878, Note_on_c, 0, 75, 43
1, 105928, Note_off_c, 0, 75, 64
1, 105976, Note_on_c, 0, 65, 58
1, 106028, Note_off_c, 0, 68, 64
1, 106314, Note_on_c, 0, 78, 35
1, 106392, Note_off_c, 0, 78, 64
1, 106422, Note_on_c, 0, 82, 30
1, 106492, Note_off_c, 0, 82, 64
1, 106540, Note_on_c, 0, 85, 34
1, 106592, Note_off_c, 0, 85, 64
1, 106602, Note_on_c, 0, 92, 42
1, 106704, Note_off_c, 0, 92, 64
1, 106730, Note_on_c, 0, 89, 36
1, 106798, Note_off_c, 0, 89, 64
1, 106820, Note_on_c, 0, 84, 39
1, 106884, Note_off_c, 0, 84, 64
1, 106932, Note_on_c, 0, 82, 28
1, 107010, Note_off_c, 0, 82, 64
1, 107034, Note_on_c, 0, 85, 34
1, 107106, Note_off_c, 0, 85, 64
1, 107162, Note_on_c, 0, 87, 28
1, 107228, Note_off_c, 0, 87, 64
1, 107492, Note_on_c, 0, 63, 40
1, 107540, Note_off_c, 0, 65, 64
1, 107910, Note_on_c, 0, 75, 15
1, 107988, Note_off_c, 0, 75, 64
1, 107994, Note_on_c, 0, 73, 27
1, 108076, Note_off_c, 0, 73, 64
1, 108092, Note_off_c, 0, 63, 64
1, 108114, Note_on_c, 0, 70, 23
1, 108188, Note_off_c, 0, 70, 64
1, 108204, Note_on_c, 0, 68, 40
1, 108280, Note_off_c, 0, 68, 64
1, 108350, Note_on_c, 0, 65, 30
1, 108418, Note_off_c, 0, 65, 64
1, 108460, Note_on_c, 0, 60, 31
1, 108564, Note_off_c, 0, 60, 64
1, 108586, Note_on_c, 0, 44, 37
1, 108636, Note_on_c, 0, 63, 32
1, 108720, Note_off_c, 0, 63, 64
1, 108752, Note_on_c, 0, 61, 30
1, 108824, Note_off_c, 0, 61, 64
1, 108848, Note_on_c, 0, 58, 26
1, 108956, Note_on_c, 0, 54, 50
1, 108976, Note_off_c, 0, 58, 64
1, 109022, Note_off_c, 0, 54, 64
1, 109080, Note_on_c, 0, 37, 37
1, 109108, Control_c, 0, 64, 0
1, 109454, Note_on_c, 0, 53, 58
1, 109508, Control_c, 0, 64, 127
1, 109522, Note_off_c, 0, 53, 64
1, 109572, Note_on_c, 0, 56, 47
1, 109636, Note_off_c, 0, 56, 64
1, 109676, Note_on_c, 0, 63, 55
1, 109720, Note_off_c, 0, 63, 64
1, 109830, Note_on_c, 0, 70, 55
1, 109948, Note_on_c, 0, 65, 44
1, 109960, Note_off_c, 0, 37, 64
1, 109976, Note_off_c, 0, 44, 64
1, 109990, Note_off_c, 0, 70, 64
1, 110012, Note_off_c, 0, 65, 64
1, 110050, Note_on_c, 0, 61, 38
1, 110126, Note_off_c, 0, 61, 64
1, 110154, Note_on_c, 0, 60, 42
1, 110236, Note_on_c, 0, 63, 54
1, 110242, Note_off_c, 0, 60, 64
1, 110298, Note_off_c, 0, 63, 64
1, 110330, Note_on_c, 0, 65, 62
1, 110370, Note_off_c, 0, 65, 64
1, 110456, Note_on_c, 0, 65, 37
1, 110468, Note_on_c, 0, 61, 53
1, 110470, Note_on_c, 0, 58, 40
1, 110584, Note_off_c, 0, 65, 64
1, 110790, Note_on_c, 0, 65, 55
1, 110848, Note_off_c, 0, 65, 64
1, 110876, Note_on_c, 0, 68, 62
1, 110924, Note_off_c, 0, 68, 64
1, 110964, Note_on_c, 0, 75, 63
1, 111004, Note_off_c, 0, 75, 64
1, 111090, Note_on_c, 0, 82, 78
1, 111170, Note_off_c, 0, 61, 64
1, 111202, Note_on_c, 0, 77, 67
1, 111224, Note_off_c, 0, 58, 64
1, 111242, Note_off_c, 0, 82, 64
1, 111264, Note_off_c, 0, 77, 64
1, 111296, Note_on_c, 0, 73, 54
1, 111398, Note_on_c, 0, 72, 68
1, 111410, Note_off_c, 0, 73, 64
1, 111480, Note_off_c, 0, 72, 64
1, 111490, Note_on_c, 0, 75, 60
1, 111562, Note_off_c, 0, 75, 64
1, 111592, Note_on_c, 0, 77, 71
1, 111628, Note_off_c, 0, 77, 64
1, 111708, Note_on_c, 0, 77, 45
1, 111732, Note_on_c, 0, 73, 44
1, 111734, Note_on_c, 0, 70, 38
1, 111780, Control_c, 0, 64, 0
1, 111878, Note_off_c, 0, 77, 64
1, 111904, Control_c, 0, 64, 127
1, 111990, Note_off_c, 0, 73, 64
1, 112026, Note_off_c, 0, 70, 64
1, 112048, Note_on_c, 0, 77, 48
1, 112104, Note_off_c, 0, 77, 64
1, 112126, Note_on_c, 0, 80, 61
1, 112176, Note_off_c, 0, 80, 64
1, 112242, Note_on_c, 0, 87, 54
1, 112285, Note_off_c, 0, 87, 64
1, 112396, Note_on_c, 0, 94, 45
1, 112498, Note_off_c, 0, 94, 64
1, 112504, Note_on_c, 0, 89, 43
1, 112562, Note_off_c, 0, 89, 64
1, 112600, Note_on_c, 0, 85, 39
1, 112700, Note_off_c, 0, 85, 64
1, 112704, Note_on_c, 0, 84, 69
1, 112762, Note_off_c, 0, 84, 64
1, 112804, Note_on_c, 0, 87, 55
1, 112892, Note_off_c, 0, 87, 64
1, 112942, Note_on_c, 0, 89, 58
1, 113056, Control_c, 0, 64, 0
1, 113210, Control_c, 0, 64, 127
1, 113224, Note_on_c, 0, 85, 47
1, 113250, Note_off_c, 0, 89, 64
1, 113282, Note_off_c, 0, 85, 64
1, 113318, Note_on_c, 0, 82, 45
1, 113386, Note_off_c, 0, 82, 64
1, 113434, Note_on_c, 0, 85, 56
1, 113532, Note_off_c, 0, 85, 64
1, 113542, Note_on_c, 0, 82, 51
1, 113604, Note_off_c, 0, 82, 64
1, 113650, Note_on_c, 0, 77, 51
1, 113696, Note_off_c, 0, 77, 64
1, 113744, Note_on_c, 0, 82, 55
1, 113854, Note_off_c, 0, 82, 64
1, 113868, Note_on_c, 0, 77, 57
1, 113914, Note_off_c, 0, 77, 64
1, 113976, Note_on_c, 0, 73, 44
1, 114026, Note_off_c, 0, 73, 64
1, 114110, Note_on_c, 0, 77, 34
1, 114224, Note_off_c, 0, 77, 64
1, 114264, Note_on_c, 0, 73, 26
1, 114368, Note_off_c, 0, 73, 64
1, 114390, Note_on_c, 0, 70, 19
1, 114534, Note_off_c, 0, 70, 64
1, 114578, Note_on_c, 0, 44, 44
1, 115020, Note_on_c, 0, 54, 38
1, 115114, Note_off_c, 0, 54, 64
1, 115154, Note_on_c, 0, 58, 21
1, 115258, Note_off_c, 0, 58, 64
1, 115278, Note_on_c, 0, 61, 33
1, 115366, Note_off_c, 0, 61, 64
1, 115366, Note_on_c, 0, 68, 29
1, 115404, Note_on_c, 0, 37, 39
1, 115438, Control_c, 0, 64, 0
1, 115506, Note_on_c, 0, 65, 41
1, 115592, Control_c, 0, 64, 127
1, 115592, Note_on_c, 0, 60, 45
1, 115608, Note_off_c, 0, 68, 64
1, 115632, Note_off_c, 0, 65, 64
1, 115668, Note_off_c, 0, 60, 64
1, 115708, Note_on_c, 0, 58, 35
1, 115711, Note_off_c, 0, 37, 64
1, 115736, Note_off_c, 0, 44, 64
1, 115772, Note_off_c, 0, 58, 64
1, 115822, Note_on_c, 0, 61, 38
1, 115888, Note_off_c, 0, 61, 64
1, 115972, Note_on_c, 0, 63, 26
1, 116036, Note_off_c, 0, 63, 64
1, 116274, Note_on_c, 0, 68, 88
1, 116712, Note_on_c, 0, 66, 15
1, 116792, Note_on_c, 0, 70, 35
1, 116798, Note_off_c, 0, 66, 64
1, 116860, Note_off_c, 0, 70, 64
1, 116906, Note_on_c, 0, 73, 38
1, 116974, Note_off_c, 0, 73, 64
1, 116982, Note_on_c, 0, 80, 47
1, 117110, Note_on_c, 0, 77, 49
1, 117112, Note_off_c, 0, 80, 64
1, 117168, Note_off_c, 0, 77, 64
1, 117194, Note_on_c, 0, 72, 40
1, 117260, Note_off_c, 0, 72, 64
1, 117296, Note_on_c, 0, 70, 32
1, 117372, Note_off_c, 0, 70, 64
1, 117410, Note_on_c, 0, 73, 35
1, 117478, Note_off_c, 0, 73, 64
1, 117520, Note_on_c, 0, 75, 37
1, 117580, Note_off_c, 0, 75, 64
1, 117800, Note_on_c, 0, 65, 74
1, 117908, Note_off_c, 0, 68, 64
1, 118218, Note_on_c, 0, 78, 36
1, 118288, Note_off_c, 0, 78, 64
1, 118322, Note_on_c, 0, 82, 31
1, 118400, Note_off_c, 0, 82, 64
1, 118426, Note_on_c, 0, 85, 38
1, 118480, Note_off_c, 0, 85, 64
1, 118482, Note_on_c, 0, 92, 44
1, 118604, Note_on_c, 0, 89, 46
1, 118618, Note_off_c, 0, 92, 64
1, 118702, Note_off_c, 0, 89, 64
1, 118712, Note_on_c, 0, 84, 39
1, 118774, Note_off_c, 0, 84, 64
1, 118816, Note_on_c, 0, 82, 33
1, 118892, Note_off_c, 0, 82, 64
1, 118922, Note_on_c, 0, 85, 39
1, 118994, Note_off_c, 0, 85, 64
1, 119046, Note_on_c, 0, 87, 25
1, 119180, Note_off_c, 0, 87, 64
1, 119400, Note_on_c, 0, 63, 45
1, 119490, Note_off_c, 0, 65, 64
1, 119768, Note_on_c, 0, 75, 31
1, 119866, Note_off_c, 0, 75, 64
1, 119878, Note_on_c, 0, 73, 33
1, 119970, Note_off_c, 0, 73, 64
1, 120002, Note_on_c, 0, 70, 21
1, 120008, Note_off_c, 0, 63, 64
1, 120080, Note_off_c, 0, 70, 64
1, 120094, Note_on_c, 0, 68, 34
1, 120158, Note_off_c, 0, 68, 64
1, 120205, Note_on_c, 0, 65, 33
1, 120297, Note_off_c, 0, 65, 64
1, 120338, Note_on_c, 0, 60, 29
1, 120448, Note_off_c, 0, 60, 64
1, 120482, Note_on_c, 0, 44, 36
1, 120492, Note_on_c, 0, 63, 33
1, 120584, Note_off_c, 0, 63, 64
1, 120606, Note_on_c, 0, 61, 38
1, 120688, Note_off_c, 0, 61, 64
1, 120710, Note_on_c, 0, 58, 35
1, 120792, Note_off_c, 0, 58, 64
1, 120838, Note_on_c, 0, 54, 40
1, 120920, Note_off_c, 0, 54, 64
1, 121008, Note_on_c, 0, 37, 34
1, 121138, Control_c, 0, 64, 0
1, 121400, Control_c, 0, 64, 127
1, 121416, Note_on_c, 0, 53, 35
1, 121484, Note_off_c, 0, 53, 64
1, 121500, Note_on_c, 0, 56, 42
1, 121560, Note_off_c, 0, 56, 64
1, 121606, Note_on_c, 0, 63, 54
1, 121652, Note_off_c, 0, 63, 64
1, 121768, Note_on_c, 0, 70, 44
1, 121880, Note_on_c, 0, 65, 43
1, 121886, Note_off_c, 0, 37, 64
1, 121904, Note_off_c, 0, 70, 64
1, 121909, Note_off_c, 0, 44, 64
1, 121938, Note_off_c, 0, 65, 64
1, 121968, Note_on_c, 0, 61, 37
1, 122080, Note_off_c, 0, 61, 64
1, 122080, Note_on_c, 0, 60, 46
1, 122148, Note_off_c, 0, 60, 64
1, 122156, Note_on_c, 0, 63, 55
1, 122210, Note_off_c, 0, 63, 64
1, 122256, Note_on_c, 0, 65, 54
1, 122302, Note_off_c, 0, 65, 64
1, 122364, Note_on_c, 0, 65, 56
1, 122378, Note_on_c, 0, 58, 34
1, 122386, Note_on_c, 0, 61, 50
1, 122488, Note_off_c, 0, 65, 64
1, 122658, Note_off_c, 0, 61, 64
1, 122730, Note_on_c, 0, 65, 48
1, 122784, Note_off_c, 0, 65, 64
1, 122787, Note_off_c, 0, 58, 64
1, 122814, Note_on_c, 0, 68, 53
1, 122866, Note_off_c, 0, 68, 64
1, 122918, Note_on_c, 0, 75, 62
1, 122958, Note_off_c, 0, 75, 64
1, 123056, Note_on_c, 0, 82, 61
1, 123164, Note_on_c, 0, 77, 57
1, 123216, Note_off_c, 0, 82, 64
1, 123228, Note_off_c, 0, 77, 64
1, 123248, Note_on_c, 0, 73, 44
1, 123336, Note_off_c, 0, 73, 64
1, 123354, Note_on_c, 0, 72, 57
1, 123418, Note_off_c, 0, 72, 64
1, 123448, Note_on_c, 0, 75, 54
1, 123506, Note_off_c, 0, 75, 64
1, 123546, Note_on_c, 0, 77, 52
1, 123590, Note_off_c, 0, 77, 64
1, 123650, Note_on_c, 0, 77, 73
1, 123668, Note_on_c, 0, 73, 47
1, 123674, Control_c, 0, 64, 0
1, 123677, Note_on_c, 0, 70, 38
1, 123812, Control_c, 0, 64, 127
1, 123820, Note_off_c, 0, 77, 64
1, 123886, Note_off_c, 0, 73, 64
1, 123918, Note_off_c, 0, 70, 64
1, 123962, Note_on_c, 0, 77, 54
1, 124014, Note_off_c, 0, 77, 64
1, 124046, Note_on_c, 0, 80, 58
1, 124098, Note_off_c, 0, 80, 64
1, 124142, Note_on_c, 0, 87, 61
1, 124188, Note_off_c, 0, 87, 64
1, 124316, Note_on_c, 0, 94, 49
1, 124434, Note_on_c, 0, 89, 49
1, 124446, Note_off_c, 0, 94, 64
1, 124492, Note_off_c, 0, 89, 64
1, 124527, Note_on_c, 0, 85, 53
1, 124588, Note_off_c, 0, 85, 64
1, 124642, Note_on_c, 0, 84, 72
1, 124736, Note_on_c, 0, 87, 62
1, 124738, Note_off_c, 0, 84, 64
1, 124812, Note_off_c, 0, 87, 64
1, 124890, Note_on_c, 0, 89, 59
1, 124950, Control_c, 0, 64, 0
1, 125148, Control_c, 0, 64, 127
1, 125170, Note_on_c, 0, 85, 45
1, 125212, Note_off_c, 0, 89, 64
1, 125234, Note_off_c, 0, 85, 64
1, 125286, Note_on_c, 0, 82, 38
1, 125360, Note_off_c, 0, 82, 64
1, 125420, Note_on_c, 0, 85, 42
1, 125514, Note_off_c, 0, 85, 64
1, 125538, Note_on_c, 0, 82, 41
1, 125600, Note_off_c, 0, 82, 64
1, 125656, Note_on_c, 0, 77, 27
1, 125720, Note_off_c, 0, 77, 64
1, 125746, Note_on_c, 0, 82, 49
1, 125842, Note_off_c, 0, 82, 64
1, 125888, Note_on_c, 0, 77, 31
1, 125940, Note_off_c, 0, 77, 64
1, 125956, Note_on_c, 0, 73, 37
1, 126016, Note_off_c, 0, 73, 64
1, 126056, Note_on_c, 0, 77, 27
1, 126166, Note_on_c, 0, 73, 44
1, 126170, Note_off_c, 0, 77, 64
1, 126254, Note_on_c, 0, 70, 43
1, 126262, Note_off_c, 0, 73, 64
1, 126326, Note_off_c, 0, 70, 64
1, 126350, Note_on_c, 0, 31, 63
1, 126352, Note_on_c, 0, 77, 47
1, 126368, Note_on_c, 0, 43, 32
1, 126440, Note_off_c, 0, 77, 64
1, 126456, Note_on_c, 0, 73, 38
1, 126522, Note_off_c, 0, 73, 64
1, 126540, Note_on_c, 0, 70, 39
1, 126610, Note_off_c, 0, 70, 64
1, 126690, Note_on_c, 0, 73, 37
1, 126766, Note_off_c, 0, 73, 64
1, 126800, Note_on_c, 0, 70, 34
1, 126874, Note_off_c, 0, 70, 64
1, 126922, Note_off_c, 0, 31, 64
1, 126928, Note_on_c, 0, 65, 39
1, 126938, Note_off_c, 0, 43, 64
1, 126982, Note_off_c, 0, 65, 64
1, 127024, Note_on_c, 0, 70, 41
1, 127080, Note_on_c, 0, 45, 44
1, 127084, Note_on_c, 0, 33, 50
1, 127136, Note_off_c, 0, 70, 64
1, 127166, Note_on_c, 0, 65, 31
1, 127226, Note_off_c, 0, 65, 64
1, 127238, Note_on_c, 0, 61, 40
1, 127306, Note_off_c, 0, 61, 64
1, 127344, Note_on_c, 0, 65, 21
1, 127406, Note_on_c, 0, 61, 31
1, 127518, Note_on_c, 0, 58, 36
1, 127564, Note_off_c, 0, 61, 64
1, 127576, Control_c, 0, 64, 0
1, 127624, Note_off_c, 0, 58, 64
1, 127660, Note_on_c, 0, 53, 53
1, 127684, Control_c, 0, 64, 127
1, 127698, Note_off_c, 0, 65, 64
1, 127734, Note_off_c, 0, 53, 64
1, 127752, Note_on_c, 0, 58, 19
1, 127812, Note_off_c, 0, 45, 64
1, 127826, Note_on_c, 0, 61, 60
1, 127854, Note_off_c, 0, 58, 64
1, 127858, Note_off_c, 0, 33, 64
1, 127872, Note_off_c, 0, 61, 64
1, 127952, Note_on_c, 0, 58, 16
1, 127955, Note_on_c, 0, 31, 74
1, 127955, Note_on_c, 0, 43, 74
1, 128030, Note_off_c, 0, 58, 64
1, 128032, Note_on_c, 0, 61, 63
1, 128114, Note_off_c, 0, 61, 64
1, 128124, Note_on_c, 0, 65, 44
1, 128174, Note_off_c, 0, 65, 64
1, 128202, Note_on_c, 0, 61, 62
1, 128306, Note_on_c, 0, 65, 42
1, 128310, Note_off_c, 0, 31, 64
1, 128324, Note_off_c, 0, 61, 64
1, 128352, Note_off_c, 0, 43, 64
1, 128390, Note_on_c, 0, 70, 53
1, 128396, Note_off_c, 0, 65, 64
1, 128446, Note_off_c, 0, 70, 64
1, 128486, Note_on_c, 0, 45, 72
1, 128488, Note_on_c, 0, 65, 49
1, 128494, Note_on_c, 0, 33, 70
1, 128576, Note_on_c, 0, 70, 64
1, 128616, Note_off_c, 0, 65, 64
1, 128646, Note_off_c, 0, 33, 64
1, 128658, Note_off_c, 0, 45, 64
1, 128662, Note_on_c, 0, 73, 57
1, 128690, Note_off_c, 0, 70, 64
1, 128728, Control_c, 0, 64, 0
1, 128740, Note_on_c, 0, 47, 82
1, 128742, Note_on_c, 0, 35, 91
1, 128744, Note_on_c, 0, 77, 72
1, 128776, Note_off_c, 0, 73, 64
1, 128838, Note_on_c, 0, 73, 64
1, 128914, Note_off_c, 0, 77, 64
1, 128938, Note_on_c, 0, 69, 49
1, 128962, Note_off_c, 0, 73, 64
1, 129020, Control_c, 0, 64, 127
1, 129034, Note_on_c, 0, 73, 57
1, 129036, Note_off_c, 0, 69, 64
1, 129120, Note_off_c, 0, 47, 64
1, 129128, Note_on_c, 0, 69, 37
1, 129160, Note_off_c, 0, 73, 64
1, 129184, Note_off_c, 0, 35, 64
1, 129184, Note_off_c, 0, 69, 64
1, 129216, Note_on_c, 0, 65, 43
1, 129266, Note_off_c, 0, 65, 64
1, 129332, Note_on_c, 0, 49, 71
1, 129335, Note_on_c, 0, 69, 44
1, 129344, Note_on_c, 0, 37, 61
1, 129432, Note_on_c, 0, 65, 57
1, 129484, Note_off_c, 0, 69, 64
1, 129484, Note_off_c, 0, 65, 64
1, 129504, Note_on_c, 0, 61, 66
1, 129570, Note_off_c, 0, 61, 64
1, 129614, Note_on_c, 0, 65, 62
1, 129688, Note_on_c, 0, 61, 53
1, 129712, Control_c, 0, 64, 0
1, 129774, Note_on_c, 0, 57, 58
1, 129828, Note_off_c, 0, 57, 64
1, 129850, Note_on_c, 0, 53, 95
1, 129850, Control_c, 0, 64, 127
1, 129864, Note_off_c, 0, 65, 64
1, 129906, Note_off_c, 0, 53, 64
1, 129914, Note_off_c, 0, 61, 64
1, 129936, Note_on_c, 0, 57, 44
1, 129984, Note_off_c, 0, 49, 64
1, 129990, Note_on_c, 0, 61, 65
1, 129993, Note_off_c, 0, 57, 64
1, 130066, Note_off_c, 0, 37, 64
1, 130074, Note_off_c, 0, 61, 64
1, 130102, Note_on_c, 0, 57, 51
1, 130105, Note_on_c, 0, 51, 83
1, 130114, Note_on_c, 0, 39, 67
1, 130156, Note_on_c, 0, 61, 70
1, 130210, Note_off_c, 0, 57, 64
1, 130238, Note_on_c, 0, 65, 76
1, 130272, Note_off_c, 0, 61, 64
1, 130320, Note_off_c, 0, 65, 64
1, 130323, Note_on_c, 0, 61, 88
1, 130350, Note_off_c, 0, 39, 64
1, 130406, Note_on_c, 0, 65, 63
1, 130416, Note_off_c, 0, 51, 64
1, 130432, Note_off_c, 0, 61, 64
1, 130450, Note_on_c, 0, 69, 63
1, 130474, Note_off_c, 0, 65, 64
1, 130502, Note_off_c, 0, 69, 64
1, 130552, Note_on_c, 0, 65, 70
1, 130552, Note_on_c, 0, 53, 110
1, 130555, Note_on_c, 0, 41, 91
1, 130608, Note_on_c, 0, 69, 50
1, 130666, Note_off_c, 0, 41, 64
1, 130670, Note_off_c, 0, 65, 64
1, 130674, Note_off_c, 0, 53, 64
1, 130704, Note_on_c, 0, 73, 71
1, 130748, Note_off_c, 0, 69, 64
1, 130772, Control_c, 0, 64, 0
1, 130786, Note_on_c, 0, 55, 97
1, 130786, Note_on_c, 0, 77, 78
1, 130796, Note_on_c, 0, 43, 85
1, 130804, Note_off_c, 0, 73, 64
1, 130862, Note_on_c, 0, 73, 76
1, 130926, Note_off_c, 0, 77, 64
1, 130942, Note_on_c, 0, 70, 69
1, 130966, Note_off_c, 0, 73, 64
1, 131036, Note_on_c, 0, 73, 67
1, 131055, Note_off_c, 0, 70, 64
1, 131080, Control_c, 0, 64, 127
1, 131118, Note_on_c, 0, 70, 62
1, 131196, Note_off_c, 0, 73, 64
1, 131208, Note_off_c, 0, 43, 64
1, 131211, Note_on_c, 0, 65, 66
1, 131226, Note_off_c, 0, 55, 64
1, 131232, Note_off_c, 0, 70, 64
1, 131270, Note_off_c, 0, 65, 64
1, 131306, Note_on_c, 0, 70, 55
1, 131350, Note_on_c, 0, 57, 73
1, 131356, Note_on_c, 0, 45, 69
1, 131410, Note_on_c, 0, 65, 43
1, 131450, Note_off_c, 0, 70, 64
1, 131470, Note_off_c, 0, 65, 64
1, 131472, Note_on_c, 0, 61, 78
1, 131542, Note_off_c, 0, 61, 64
1, 131568, Note_on_c, 0, 65, 57
1, 131642, Note_on_c, 0, 61, 64
1, 131704, Note_off_c, 0, 65, 64
1, 131712, Note_on_c, 0, 58, 76
1, 131744, Note_off_c, 0, 61, 64
1, 131804, Note_on_c, 0, 61, 84
1, 131826, Note_off_c, 0, 58, 64
1, 131869, Note_on_c, 0, 65, 59
1, 131904, Note_off_c, 0, 61, 64
1, 131914, Note_off_c, 0, 57, 64
1, 131919, Note_off_c, 0, 65, 64
1, 131926, Note_on_c, 0, 70, 58
1, 131940, Note_off_c, 0, 45, 64
1, 131972, Note_off_c, 0, 70, 64
1, 132024, Note_on_c, 0, 65, 73
1, 132034, Note_on_c, 0, 55, 93
1, 132037, Note_on_c, 0, 43, 85
1, 132096, Note_on_c, 0, 70, 69
1, 132130, Note_off_c, 0, 65, 64
1, 132170, Note_on_c, 0, 73, 74
1, 132190, Note_off_c, 0, 70, 64
1, 132208, Note_off_c, 0, 73, 64
1, 132236, Note_on_c, 0, 70, 86
1, 132252, Note_off_c, 0, 43, 64
1, 132322, Note_on_c, 0, 73, 44
1, 132332, Note_off_c, 0, 55, 64
1, 132352, Note_off_c, 0, 70, 64
1, 132398, Note_off_c, 0, 73, 64
1, 132400, Note_on_c, 0, 77, 68
1, 132470, Note_on_c, 0, 73, 75
1, 132470, Note_on_c, 0, 57, 94
1, 132478, Note_off_c, 0, 77, 64
1, 132482, Note_on_c, 0, 45, 84
1, 132548, Note_off_c, 0, 45, 64
1, 132553, Note_on_c, 0, 77, 71
1, 132574, Note_off_c, 0, 57, 64
1, 132604, Note_on_c, 0, 82, 72
1, 132607, Note_off_c, 0, 73, 64
1, 132658, Note_off_c, 0, 77, 64
1, 132702, Note_on_c, 0, 59, 100
1, 132708, Control_c, 0, 64, 0
1, 132710, Note_on_c, 0, 47, 93
1, 132710, Note_on_c, 0, 81, 91
1, 132730, Note_off_c, 0, 82, 64
1, 132800, Note_on_c, 0, 77, 66
1, 132866, Note_off_c, 0, 81, 64
1, 132872, Note_on_c, 0, 73, 75
1, 132878, Control_c, 0, 64, 127
1, 132898, Note_off_c, 0, 77, 64
1, 132956, Note_off_c, 0, 73, 64
1, 132959, Note_on_c, 0, 77, 80
1, 133042, Note_off_c, 0, 47, 64
1, 133046, Note_on_c, 0, 73, 57
1, 133078, Note_off_c, 0, 59, 64
1, 133096, Note_off_c, 0, 77, 64
1, 133108, Note_on_c, 0, 69, 64
1, 133156, Note_off_c, 0, 73, 64
1, 133180, Note_off_c, 0, 69, 64
1, 133208, Note_on_c, 0, 73, 83
1, 133234, Note_on_c, 0, 61, 96
1, 133242, Note_on_c, 0, 49, 85
1, 133290, Note_off_c, 0, 49, 64
1, 133300, Note_on_c, 0, 69, 70
1, 133308, Note_off_c, 0, 61, 64
1, 133354, Note_off_c, 0, 73, 64
1, 133360, Note_off_c, 0, 69, 64
1, 133376, Note_on_c, 0, 65, 62
1, 133420, Note_off_c, 0, 65, 64
1, 133458, Note_on_c, 0, 69, 57
1, 133522, Note_on_c, 0, 65, 50
1, 133538, Note_off_c, 0, 69, 64
1, 133576, Note_off_c, 0, 65, 64
1, 133590, Note_on_c, 0, 61, 86
1, 133656, Note_on_c, 0, 65, 56
1, 133680, Note_off_c, 0, 61, 64
1, 133726, Note_on_c, 0, 69, 58
1, 133762, Note_off_c, 0, 65, 64
1, 133796, Note_on_c, 0, 73, 66
1, 133842, Note_off_c, 0, 73, 64
1, 133848, Note_off_c, 0, 69, 64
1, 133882, Note_on_c, 0, 63, 100
1, 133890, Note_on_c, 0, 51, 89
1, 133896, Note_on_c, 0, 69, 88
1, 133950, Note_on_c, 0, 73, 69
1, 133968, Note_off_c, 0, 51, 64
1, 133978, Note_off_c, 0, 63, 64
1, 133986, Note_off_c, 0, 69, 64
1, 134022, Note_on_c, 0, 77, 85
1, 134056, Note_off_c, 0, 73, 64
1, 134106, Note_on_c, 0, 73, 88
1, 134140, Note_off_c, 0, 77, 64
1, 134208, Note_on_c, 0, 77, 72
1, 134226, Note_off_c, 0, 73, 64
1, 134236, Note_on_c, 0, 81, 70
1, 134244, Note_off_c, 0, 77, 64
1, 134274, Note_off_c, 0, 81, 64
1, 134300, Note_on_c, 0, 77, 83
1, 134322, Note_on_c, 0, 65, 100
1, 134336, Note_on_c, 0, 53, 105
1, 134358, Note_on_c, 0, 81, 48
1, 134372, Note_off_c, 0, 53, 64
1, 134402, Note_off_c, 0, 77, 64
1, 134440, Note_off_c, 0, 65, 64
1, 134446, Note_on_c, 0, 85, 79
1, 134496, Note_off_c, 0, 81, 64
1, 134526, Note_on_c, 0, 89, 91
1, 134529, Note_on_c, 0, 65, 91
1, 134529, Note_on_c, 0, 55, 99
1, 134529, Note_on_c, 0, 67, 102
1, 134533, Note_on_c, 0, 61, 90
1, 134536, Control_c, 0, 64, 0
1, 134538, Note_on_c, 0, 58, 66
1, 134540, Note_off_c, 0, 85, 64
1, 134596, Note_on_c, 0, 85, 79
1, 134660, Note_on_c, 0, 82, 76
1, 134672, Note_off_c, 0, 89, 64
1, 134710, Note_off_c, 0, 85, 64
1, 134720, Control_c, 0, 64, 127
1, 134760, Note_on_c, 0, 85, 89
1, 134772, Note_off_c, 0, 82, 64
1, 134828, Note_on_c, 0, 82, 73
1, 134872, Note_off_c, 0, 55, 64
1, 134875, Note_off_c, 0, 65, 64
1, 134882, Note_off_c, 0, 58, 64
1, 134890, Note_off_c, 0, 67, 64
1, 134890, Note_off_c, 0, 85, 64
1, 134890, Note_on_c, 0, 77, 67
1, 134908, Note_off_c, 0, 82, 64
1, 134934, Note_off_c, 0, 77, 64
1, 134942, Note_off_c, 0, 61, 64
1, 134980, Note_on_c, 0, 82, 75
1, 134994, Note_on_c, 0, 69, 99
1, 135004, Note_on_c, 0, 57, 96
1, 135056, Note_off_c, 0, 57, 64
1, 135066, Note_on_c, 0, 77, 66
1, 135078, Note_off_c, 0, 69, 64
1, 135122, Note_off_c, 0, 82, 64
1, 135134, Note_on_c, 0, 73, 74
1, 135164, Note_off_c, 0, 77, 64
1, 135174, Note_off_c, 0, 73, 64
1, 135224, Note_on_c, 0, 77, 88
1, 135292, Note_on_c, 0, 73, 61
1, 135364, Note_on_c, 0, 70, 67
1, 135366, Note_off_c, 0, 77, 64
1, 135416, Note_off_c, 0, 70, 64
1, 135434, Note_on_c, 0, 65, 86
1, 135437, Note_off_c, 0, 73, 64
1, 135532, Note_on_c, 0, 70, 67
1, 135535, Note_off_c, 0, 65, 64
1, 135570, Note_on_c, 0, 73, 79
1, 135588, Note_off_c, 0, 70, 64
1, 135612, Note_off_c, 0, 73, 64
1, 135662, Note_on_c, 0, 70, 76
1, 135674, Note_on_c, 0, 67, 108
1, 135680, Note_on_c, 0, 55, 100
1, 135724, Note_off_c, 0, 55, 64
1, 135746, Note_on_c, 0, 73, 85
1, 135784, Note_off_c, 0, 70, 64
1, 135790, Note_off_c, 0, 67, 64
1, 135822, Note_on_c, 0, 77, 69
1, 135844, Note_off_c, 0, 73, 64
1, 135860, Note_off_c, 0, 77, 64
1, 135902, Note_on_c, 0, 73, 73
1, 135972, Note_on_c, 0, 77, 38
1, 136014, Note_off_c, 0, 73, 64
1, 136060, Note_on_c, 0, 82, 69
1, 136070, Note_off_c, 0, 77, 64
1, 136138, Note_on_c, 0, 77, 78
1, 136146, Note_off_c, 0, 82, 64
1, 136146, Note_on_c, 0, 69, 95
1, 136149, Note_on_c, 0, 57, 94
1, 136218, Note_on_c, 0, 82, 78
1, 136226, Note_off_c, 0, 69, 64
1, 136246, Note_off_c, 0, 57, 64
1, 136274, Note_off_c, 0, 77, 64
1, 136284, Note_on_c, 0, 85, 78
1, 136364, Note_off_c, 0, 82, 64
1, 136374, Note_on_c, 0, 59, 110
1, 136394, Note_off_c, 0, 85, 64
1, 136426, Control_c, 0, 64, 0
1, 136438, Note_on_c, 0, 61, 86
1, 136520, Note_on_c, 0, 65, 88
1, 136590, Note_on_c, 0, 69, 63
1, 136593, Note_off_c, 0, 59, 64
1, 136610, Note_off_c, 0, 61, 64
1, 136626, Control_c, 0, 64, 127
1, 136632, Note_on_c, 0, 71, 89
1, 136650, Note_off_c, 0, 65, 64
1, 136678, Note_on_c, 0, 73, 73
1, 136702, Note_off_c, 0, 69, 64
1, 136726, Note_on_c, 0, 77, 80
1, 136748, Note_off_c, 0, 71, 64
1, 136786, Note_on_c, 0, 81, 80
1, 136792, Note_off_c, 0, 73, 64
1, 136816, Note_on_c, 0, 71, 89
1, 136826, Note_off_c, 0, 77, 64
1, 136836, Note_off_c, 0, 81, 64
1, 136900, Note_on_c, 0, 73, 59
1, 136906, Note_off_c, 0, 71, 64
1, 136954, Note_on_c, 0, 77, 80
1, 137002, Note_off_c, 0, 73, 64
1, 137028, Note_on_c, 0, 81, 88
1, 137052, Note_off_c, 0, 77, 64
1, 137070, Note_off_c, 0, 81, 64
1, 137073, Note_on_c, 0, 83, 102
1, 137130, Note_on_c, 0, 85, 75
1, 137164, Note_off_c, 0, 83, 64
1, 137184, Note_on_c, 0, 89, 82
1, 137222, Note_off_c, 0, 85, 64
1, 137266, Note_on_c, 0, 93, 65
1, 137324, Note_on_c, 0, 95, 100
1, 137340, Note_off_c, 0, 89, 64
1, 137372, Note_off_c, 0, 93, 64
1, 137416, Note_on_c, 0, 93, 85
1, 137454, Note_on_c, 0, 89, 85
1, 137482, Note_off_c, 0, 95, 64
1, 137528, Note_on_c, 0, 85, 80
1, 137540, Note_off_c, 0, 93, 64
1, 137596, Note_on_c, 0, 83, 71
1, 137598, Note_off_c, 0, 89, 64
1, 137626, Note_off_c, 0, 85, 64
1, 137636, Note_on_c, 0, 81, 83
1, 137642, Note_off_c, 0, 83, 64
1, 137694, Note_on_c, 0, 77, 71
1, 137726, Note_off_c, 0, 81, 64
1, 137754, Note_on_c, 0, 73, 73
1, 137798, Note_on_c, 0, 71, 82
1, 137800, Note_off_c, 0, 77, 64
1, 137856, Note_off_c, 0, 71, 64
1, 137858, Note_off_c, 0, 73, 64
1, 137862, Note_on_c, 0, 81, 70
1, 137930, Note_on_c, 0, 77, 76
1, 137998, Note_off_c, 0, 81, 64
1, 137998, Note_on_c, 0, 73, 77
1, 138064, Note_on_c, 0, 71, 81
1, 138080, Note_off_c, 0, 77, 64
1, 138102, Note_on_c, 0, 69, 57
1, 138114, Note_off_c, 0, 73, 64
1, 138166, Note_off_c, 0, 71, 64
1, 138172, Note_on_c, 0, 65, 62
1, 138180, Note_off_c, 0, 69, 64
1, 138222, Note_on_c, 0, 61, 87
1, 138264, Note_off_c, 0, 65, 64
1, 138296, Note_on_c, 0, 59, 95
1, 138322, Note_off_c, 0, 61, 64
1, 138384, Note_on_c, 0, 61, 79
1, 138440, Note_on_c, 0, 65, 81
1, 138448, Note_off_c, 0, 59, 64
1, 138498, Note_off_c, 0, 61, 64
1, 138512, Note_on_c, 0, 69, 78
1, 138532, Note_off_c, 0, 65, 64
1, 138546, Note_on_c, 0, 71, 83
1, 138556, Note_off_c, 0, 69, 64
1, 138608, Note_on_c, 0, 73, 83
1, 138664, Note_on_c, 0, 77, 73
1, 138667, Note_off_c, 0, 71, 64
1, 138706, Note_on_c, 0, 81, 83
1, 138714, Note_off_c, 0, 73, 64
1, 138752, Note_on_c, 0, 71, 64
1, 138758, Note_off_c, 0, 77, 64
1, 138764, Note_off_c, 0, 81, 64
1, 138814, Note_on_c, 0, 73, 65
1, 138856, Note_off_c, 0, 71, 64
1, 138890, Note_on_c, 0, 77, 75
1, 138932, Note_off_c, 0, 73, 64
1, 138956, Note_on_c, 0, 81, 89
1, 138976, Note_off_c, 0, 77, 64
1, 139002, Note_off_c, 0, 81, 64
1, 139022, Note_on_c, 0, 83, 100
1, 139080, Note_on_c, 0, 85, 83
1, 139112, Note_off_c, 0, 83, 64
1, 139140, Note_on_c, 0, 89, 69
1, 139172, Note_off_c, 0, 85, 64
1, 139214, Note_on_c, 0, 93, 56
1, 139292, Note_on_c, 0, 95, 97
1, 139300, Note_off_c, 0, 89, 64
1, 139322, Note_off_c, 0, 93, 64
1, 139382, Note_on_c, 0, 93, 73
1, 139428, Note_on_c, 0, 89, 86
1, 139436, Note_off_c, 0, 95, 64
1, 139492, Note_off_c, 0, 93, 64
1, 139496, Note_on_c, 0, 85, 75
1, 139560, Note_off_c, 0, 89, 64
1, 139572, Note_on_c, 0, 83, 82
1, 139588, Note_off_c, 0, 85, 64
1, 139606, Note_on_c, 0, 81, 74
1, 139614, Note_off_c, 0, 83, 64
1, 139666, Note_off_c, 0, 81, 64
1, 139666, Note_on_c, 0, 77, 63
1, 139716, Note_on_c, 0, 73, 68
1, 139734, Note_off_c, 0, 77, 64
1, 139768, Note_on_c, 0, 71, 56
1, 139816, Note_off_c, 0, 71, 64
1, 139820, Note_off_c, 0, 73, 64
1, 139832, Note_on_c, 0, 81, 66
1, 139904, Note_on_c, 0, 77, 71
1, 139944, Note_off_c, 0, 81, 64
1, 139980, Note_on_c, 0, 73, 59
1, 140056, Note_on_c, 0, 71, 55
1, 140078, Note_off_c, 0, 77, 64
1, 140106, Note_on_c, 0, 69, 47
1, 140109, Note_off_c, 0, 71, 64
1, 140152, Note_off_c, 0, 73, 64
1, 140186, Note_on_c, 0, 65, 56
1, 140196, Note_off_c, 0, 69, 64
1, 140240, Note_on_c, 0, 61, 69
1, 140248, Note_off_c, 0, 65, 64
1, 140316, Note_off_c, 0, 61, 64
1, 140326, Note_on_c, 0, 59, 87
1, 140450, Note_on_c, 0, 61, 84
1, 140560, Note_on_c, 0, 65, 69
1, 140564, Note_off_c, 0, 59, 64
1, 140580, Note_off_c, 0, 61, 64
1, 140672, Note_on_c, 0, 69, 56
1, 140674, Note_off_c, 0, 65, 64
1, 140726, Note_off_c, 0, 69, 64
1, 140812, Note_on_c, 0, 71, 81
1, 140922, Note_on_c, 0, 73, 66
1, 140924, Note_off_c, 0, 71, 64
1, 141054, Note_on_c, 0, 89, 108
1, 141072, Note_on_c, 0, 77, 69
1, 141078, Note_off_c, 0, 73, 64
1, 141130, Note_off_c, 0, 77, 64
1, 141198, Note_on_c, 0, 81, 55
1, 141332, Note_off_c, 0, 81, 64
1, 141352, Note_on_c, 0, 91, 107
1, 141376, Note_on_c, 0, 83, 66
1, 141420, Note_off_c, 0, 89, 64
1, 141432, Note_off_c, 0, 83, 64
1, 141492, Note_on_c, 0, 81, 30
1, 141594, Note_off_c, 0, 81, 64
1, 141610, Note_on_c, 0, 77, 58
1, 141738, Note_on_c, 0, 73, 43
1, 141758, Note_off_c, 0, 77, 64
1, 141870, Note_on_c, 0, 71, 43
1, 141886, Note_on_c, 0, 85, 49
1, 141892, Note_on_c, 0, 89, 71
1, 141898, Note_off_c, 0, 73, 64
1, 141928, Note_off_c, 0, 71, 64
1, 141948, Note_off_c, 0, 91, 64
1, 141994, Note_on_c, 0, 69, 39
1, 142060, Note_off_c, 0, 85, 64
1, 142080, Note_off_c, 0, 69, 64
1, 142144, Note_on_c, 0, 65, 52
1, 142156, Note_on_c, 0, 95, 102
1, 142212, Note_off_c, 0, 89, 64
1, 142344, Note_on_c, 0, 61, 42
1, 142372, Note_off_c, 0, 65, 64
1, 142514, Note_off_c, 0, 61, 64
1, 142550, Note_on_c, 0, 93, 101
1, 142576, Note_on_c, 0, 59, 51
1, 142710, Note_on_c, 0, 61, 61
1, 142714, Note_off_c, 0, 95, 64
1, 142732, Note_off_c, 0, 59, 64
1, 142882, Note_off_c, 0, 61, 64
1, 142886, Note_on_c, 0, 65, 51
1, 142946, Note_off_c, 0, 65, 64
1, 143022, Note_on_c, 0, 91, 94
1, 143046, Note_on_c, 0, 69, 42
1, 143104, Note_off_c, 0, 69, 64
1, 143116, Note_off_c, 0, 93, 64
1, 143208, Note_on_c, 0, 89, 98
1, 143230, Note_on_c, 0, 71, 68
1, 143282, Note_off_c, 0, 91, 64
1, 143290, Note_off_c, 0, 71, 64
1, 143340, Note_on_c, 0, 73, 47
1, 143464, Note_on_c, 0, 77, 60
1, 143470, Note_off_c, 0, 73, 64
1, 143510, Note_off_c, 0, 77, 64
1, 143578, Note_on_c, 0, 81, 57
1, 143686, Note_on_c, 0, 83, 103
1, 143698, Note_off_c, 0, 81, 64
1, 143790, Note_off_c, 0, 83, 64
1, 143834, Note_on_c, 0, 81, 55
1, 143934, Note_on_c, 0, 77, 58
1, 143950, Note_off_c, 0, 81, 64
1, 144038, Note_on_c, 0, 73, 50
1, 144040, Note_off_c, 0, 77, 64
1, 144154, Note_on_c, 0, 71, 58
1, 144182, Note_on_c, 0, 85, 102
1, 144196, Note_off_c, 0, 73, 64
1, 144199, Note_off_c, 0, 71, 64
1, 144296, Note_off_c, 0, 89, 64
1, 144304, Note_on_c, 0, 69, 52
1, 144450, Note_on_c, 0, 65, 43
1, 144474, Note_off_c, 0, 69, 64
1, 144598, Note_on_c, 0, 61, 53
1, 144660, Note_off_c, 0, 65, 64
1, 144750, Note_off_c, 0, 61, 64
1, 144812, Note_on_c, 0, 90, 91
1, 144820, Note_on_c, 0, 59, 74
1, 144925, Control_c, 0, 64, 0
1, 144990, Note_on_c, 0, 63, 65
1, 145024, Note_off_c, 0, 85, 64
1, 145108, Control_c, 0, 64, 127
1, 145112, Note_on_c, 0, 66, 63
1, 145144, Note_off_c, 0, 59, 64
1, 145186, Note_off_c, 0, 63, 64
1, 145222, Note_off_c, 0, 66, 64
1, 145224, Note_on_c, 0, 69, 56
1, 145276, Note_off_c, 0, 69, 64
1, 145322, Note_on_c, 0, 73, 77
1, 145428, Note_off_c, 0, 90, 64
1, 145431, Note_off_c, 0, 73, 64
1, 145434, Note_on_c, 0, 75, 72
1, 145496, Note_on_c, 0, 78, 81
1, 145544, Note_off_c, 0, 75, 64
1, 145602, Note_on_c, 0, 81, 67
1, 145605, Note_off_c, 0, 78, 64
1, 145658, Note_on_c, 0, 85, 83
1, 145726, Note_on_c, 0, 87, 75
1, 145776, Note_on_c, 0, 90, 69
1, 145806, Note_off_c, 0, 85, 64
1, 145842, Note_on_c, 0, 93, 77
1, 145908, Note_off_c, 0, 87, 64
1, 145908, Note_off_c, 0, 93, 64
1, 145911, Note_on_c, 0, 97, 92
1, 145954, Note_off_c, 0, 90, 64
1, 146038, Note_on_c, 0, 93, 73
1, 146044, Note_off_c, 0, 97, 64
1, 146047, Note_off_c, 0, 81, 64
1, 146098, Note_on_c, 0, 90, 64
1, 146148, Note_on_c, 0, 87, 53
1, 146166, Note_off_c, 0, 93, 64
1, 146230, Note_off_c, 0, 90, 64
1, 146236, Note_on_c, 0, 85, 66
1, 146282, Note_off_c, 0, 87, 64
1, 146294, Note_off_c, 0, 85, 64
1, 146308, Note_on_c, 0, 81, 64
1, 146352, Note_off_c, 0, 81, 64
1, 146394, Note_on_c, 0, 78, 76
1, 146456, Note_on_c, 0, 75, 58
1, 146528, Note_on_c, 0, 73, 47
1, 146550, Note_off_c, 0, 78, 64
1, 146598, Note_on_c, 0, 69, 57
1, 146622, Note_on_c, 0, 66, 54
1, 146700, Note_on_c, 0, 63, 62
1, 146702, Note_off_c, 0, 66, 64
1, 146705, Note_off_c, 0, 69, 64
1, 146728, Note_off_c, 0, 73, 64
1, 146764, Note_off_c, 0, 63, 64
1, 146778, Note_on_c, 0, 59, 72
1, 146788, Note_off_c, 0, 75, 64
1, 146872, Note_on_c, 0, 63, 61
1, 146898, Note_off_c, 0, 59, 64
1, 146928, Note_on_c, 0, 66, 57
1, 146938, Note_off_c, 0, 63, 64
1, 146974, Note_off_c, 0, 66, 64
1, 147004, Note_on_c, 0, 69, 59
1, 147052, Note_off_c, 0, 69, 64
1, 147102, Note_on_c, 0, 73, 71
1, 147202, Note_on_c, 0, 75, 78
1, 147240, Note_off_c, 0, 73, 64
1, 147284, Note_on_c, 0, 78, 83
1, 147336, Note_off_c, 0, 75, 64
1, 147364, Note_on_c, 0, 81, 86
1, 147383, Note_off_c, 0, 78, 64
1, 147428, Note_on_c, 0, 85, 82
1, 147494, Note_on_c, 0, 87, 73
1, 147560, Note_on_c, 0, 90, 72
1, 147594, Note_off_c, 0, 85, 64
1, 147630, Note_on_c, 0, 93, 75
1, 147670, Note_off_c, 0, 87, 64
1, 147700, Note_on_c, 0, 97, 92
1, 147708, Note_off_c, 0, 93, 64
1, 147736, Note_off_c, 0, 90, 64
1, 147744, Note_off_c, 0, 81, 64
1, 147782, Note_on_c, 0, 93, 71
1, 147794, Note_off_c, 0, 97, 64
1, 147854, Note_on_c, 0, 90, 68
1, 147910, Note_on_c, 0, 87, 56
1, 147913, Note_off_c, 0, 93, 64
1, 147994, Note_on_c, 0, 85, 72
1, 148000, Note_off_c, 0, 90, 64
1, 148052, Note_off_c, 0, 87, 64
1, 148060, Note_off_c, 0, 85, 64
1, 148078, Note_on_c, 0, 81, 48
1, 148126, Note_off_c, 0, 81, 64
1, 148154, Note_on_c, 0, 78, 74
1, 148228, Note_on_c, 0, 75, 71
1, 148296, Note_on_c, 0, 73, 56
1, 148306, Note_off_c, 0, 78, 64
1, 148350, Note_on_c, 0, 69, 59
1, 148410, Note_on_c, 0, 66, 60
1, 148440, Note_off_c, 0, 73, 64
1, 148472, Note_on_c, 0, 63, 77
1, 148480, Note_off_c, 0, 69, 64
1, 148480, Note_off_c, 0, 66, 64
1, 148512, Note_off_c, 0, 75, 64
1, 148558, Note_on_c, 0, 57, 80
1, 148596, Note_off_c, 0, 63, 64
1, 148672, Control_c, 0, 64, 0
1, 148674, Note_on_c, 0, 60, 89
1, 148788, Note_on_c, 0, 62, 81
1, 148842, Control_c, 0, 64, 127
1, 148854, Note_off_c, 0, 57, 64
1, 148880, Note_off_c, 0, 60, 64
1, 148892, Note_on_c, 0, 66, 72
1, 148962, Note_off_c, 0, 62, 64
1, 149011, Note_on_c, 0, 69, 78
1, 149026, Note_off_c, 0, 66, 64
1, 149070, Note_off_c, 0, 69, 64
1, 149126, Note_on_c, 0, 72, 85
1, 149230, Note_on_c, 0, 74, 81
1, 149278, Note_off_c, 0, 72, 64
1, 149318, Note_on_c, 0, 78, 84
1, 149330, Note_off_c, 0, 74, 64
1, 149418, Note_off_c, 0, 78, 64
1, 149446, Note_on_c, 0, 81, 92
1, 149556, Note_on_c, 0, 78, 83
1, 149560, Note_off_c, 0, 81, 64
1, 149656, Note_on_c, 0, 74, 72
1, 149658, Note_off_c, 0, 78, 64
1, 149768, Note_on_c, 0, 72, 58
1, 149768, Note_on_c, 0, 78, 99
1, 149768, Note_on_c, 0, 90, 99
1, 149771, Note_off_c, 0, 74, 64
1, 149810, Note_off_c, 0, 72, 64
1, 149858, Note_off_c, 0, 78, 64
1, 149924, Note_off_c, 0, 90, 64
1, 149952, Note_on_c, 0, 69, 64
1, 150008, Note_on_c, 0, 92, 99
1, 150011, Note_on_c, 0, 80, 101
1, 150016, Note_on_c, 0, 86, 87
1, 150024, Note_on_c, 0, 84, 84
1, 150098, Note_off_c, 0, 69, 64
1, 150204, Note_on_c, 0, 66, 32
1, 150230, Note_off_c, 0, 84, 64
1, 150240, Note_off_c, 0, 80, 64
1, 150246, Note_off_c, 0, 86, 64
1, 150292, Note_off_c, 0, 92, 64
1, 150312, Note_off_c, 0, 66, 64
1, 150312, Note_on_c, 0, 62, 71
1, 150484, Note_on_c, 0, 95, 111
1, 150488, Note_on_c, 0, 60, 64
1, 150492, Note_on_c, 0, 83, 121
1, 150520, Note_off_c, 0, 83, 64
1, 150576, Note_off_c, 0, 62, 64
1, 150586, Note_off_c, 0, 95, 64
1, 150724, Note_on_c, 0, 93, 111
1, 150730, Note_on_c, 0, 81, 101
1, 150732, Note_on_c, 0, 87, 76
1, 150740, Note_on_c, 0, 84, 91
1, 150742, Note_off_c, 0, 60, 64
1, 150742, Note_on_c, 0, 56, 75
1, 150750, Note_on_c, 0, 85, 23
1, 150826, Note_off_c, 0, 85, 64
1, 150840, Control_c, 0, 64, 0
1, 150900, Note_on_c, 0, 60, 68
1, 150992, Control_c, 0, 64, 127
1, 151000, Note_off_c, 0, 93, 64
1, 151020, Note_on_c, 0, 63, 73
1, 151026, Note_off_c, 0, 81, 64
1, 151036, Note_off_c, 0, 56, 64
1, 151038, Note_off_c, 0, 84, 64
1, 151086, Note_off_c, 0, 87, 64
1, 151086, Note_off_c, 0, 60, 64
1, 151126, Note_on_c, 0, 92, 83
1, 151134, Note_on_c, 0, 80, 90
1, 151158, Note_on_c, 0, 66, 51
1, 151161, Note_off_c, 0, 92, 64
1, 151170, Note_off_c, 0, 80, 64
1, 151190, Note_off_c, 0, 63, 64
1, 151238, Note_on_c, 0, 90, 100
1, 151244, Note_on_c, 0, 78, 98
1, 151264, Note_on_c, 0, 69, 64
1, 151278, Note_off_c, 0, 66, 64
1, 151314, Note_off_c, 0, 69, 64
1, 151382, Note_off_c, 0, 78, 64
1, 151398, Note_on_c, 0, 72, 80
1, 151512, Note_off_c, 0, 90, 64
1, 151514, Note_on_c, 0, 75, 83
1, 151532, Note_off_c, 0, 72, 64
1, 151638, Note_on_c, 0, 78, 72
1, 151664, Note_off_c, 0, 75, 64
1, 151742, Note_on_c, 0, 81, 78
1, 151776, Note_off_c, 0, 78, 64
1, 151874, Note_on_c, 0, 78, 59
1, 151886, Note_off_c, 0, 81, 64
1, 151988, Note_on_c, 0, 75, 76
1, 152018, Note_off_c, 0, 78, 64
1, 152140, Note_on_c, 0, 72, 70
1, 152184, Note_off_c, 0, 75, 64
1, 152244, Note_off_c, 0, 72, 64
1, 152298, Note_on_c, 0, 87, 99
1, 152300, Note_on_c, 0, 75, 95
1, 152324, Note_on_c, 0, 69, 65
1, 152460, Note_off_c, 0, 69, 64
1, 152470, Note_off_c, 0, 75, 64
1, 152476, Note_on_c, 0, 66, 66
1, 152600, Note_off_c, 0, 66, 64
1, 152604, Note_off_c, 0, 87, 64
1, 152638, Note_on_c, 0, 63, 73
1, 152778, Note_off_c, 0, 63, 64
1, 152864, Note_on_c, 0, 60, 77
1, 152904, Note_off_c, 0, 60, 64
1, 153244, Note_on_c, 0, 82, 89
1, 153244, Note_on_c, 0, 91, 109
1, 153244, Note_on_c, 0, 87, 88
1, 153247, Note_on_c, 0, 79, 108
1, 153256, Note_on_c, 0, 39, 102
1, 153262, Note_on_c, 0, 27, 107
1, 153282, Control_c, 0, 64, 0
1, 153408, Note_off_c, 0, 27, 64
1, 153430, Note_off_c, 0, 39, 64
1, 153440, Control_c, 0, 64, 127
1, 153454, Note_off_c, 0, 91, 64
1, 153488, Note_off_c, 0, 87, 64
1, 153500, Note_off_c, 0, 79, 64
1, 153512, Note_off_c, 0, 82, 64
1, 153586, Note_on_c, 0, 46, 81
1, 153754, Note_on_c, 0, 51, 86
1, 153784, Note_off_c, 0, 46, 64
1, 153876, Note_on_c, 0, 46, 59
1, 153906, Note_off_c, 0, 51, 64
1, 153922, Note_on_c, 0, 55, 85
1, 154008, Note_off_c, 0, 55, 64
1, 154016, Note_on_c, 0, 51, 76
1, 154038, Note_on_c, 0, 58, 68
1, 154046, Note_off_c, 0, 46, 64
1, 154118, Note_off_c, 0, 51, 64
1, 154130, Note_on_c, 0, 55, 79
1, 154133, Note_off_c, 0, 58, 64
1, 154156, Note_on_c, 0, 63, 73
1, 154182, Note_off_c, 0, 55, 64
1, 154194, Note_off_c, 0, 63, 64
1, 154228, Note_on_c, 0, 58, 59
1, 154256, Note_on_c, 0, 67, 83
1, 154302, Note_off_c, 0, 67, 64
1, 154348, Note_on_c, 0, 70, 78
1, 154350, Note_on_c, 0, 63, 88
1, 154386, Note_off_c, 0, 58, 64
1, 154432, Note_off_c, 0, 63, 64
1, 154440, Note_off_c, 0, 70, 64
1, 154442, Note_on_c, 0, 67, 83
1, 154446, Note_on_c, 0, 75, 81
1, 154480, Note_off_c, 0, 75, 64
1, 154482, Note_off_c, 0, 67, 64
1, 154536, Note_on_c, 0, 70, 69
1, 154544, Note_on_c, 0, 79, 85
1, 154592, Note_off_c, 0, 79, 64
1, 154626, Note_on_c, 0, 82, 81
1, 154634, Note_on_c, 0, 75, 85
1, 154678, Note_off_c, 0, 70, 64
1, 154725, Note_on_c, 0, 87, 81
1, 154732, Note_off_c, 0, 75, 64
1, 154734, Note_on_c, 0, 79, 98
1, 154756, Note_off_c, 0, 82, 64
1, 154844, Note_on_c, 0, 91, 95
1, 154850, Note_off_c, 0, 79, 64
1, 154858, Note_on_c, 0, 82, 78
1, 154882, Note_off_c, 0, 87, 64
1, 154970, Note_off_c, 0, 82, 64
1, 154990, Note_on_c, 0, 87, 68
1, 154994, Note_on_c, 0, 79, 88
1, 155024, Note_off_c, 0, 91, 64
1, 155090, Note_on_c, 0, 75, 73
1, 155093, Note_off_c, 0, 79, 64
1, 155108, Note_on_c, 0, 82, 79
1, 155152, Note_off_c, 0, 87, 64
1, 155208, Note_off_c, 0, 75, 64
1, 155210, Note_on_c, 0, 70, 64
1, 155224, Note_on_c, 0, 79, 87
1, 155232, Note_off_c, 0, 82, 64
1, 155250, Note_off_c, 0, 70, 64
1, 155262, Note_off_c, 0, 79, 64
1, 155316, Note_on_c, 0, 75, 73
1, 155320, Note_on_c, 0, 67, 79
1, 155366, Note_off_c, 0, 67, 64
1, 155392, Note_on_c, 0, 63, 86
1, 155424, Note_on_c, 0, 70, 73
1, 155468, Note_off_c, 0, 75, 64
1, 155498, Note_on_c, 0, 58, 64
1, 155501, Note_off_c, 0, 63, 64
1, 155522, Note_on_c, 0, 67, 79
1, 155530, Note_off_c, 0, 70, 64
1, 155552, Note_off_c, 0, 58, 64
1, 155566, Note_off_c, 0, 67, 64
1, 155616, Note_on_c, 0, 63, 76
1, 155619, Note_on_c, 0, 55, 85
1, 155708, Note_on_c, 0, 51, 78
1, 155722, Note_off_c, 0, 55, 64
1, 155725, Note_on_c, 0, 58, 64
1, 155780, Note_off_c, 0, 63, 64
1, 155800, Note_on_c, 0, 46, 77
1, 155824, Note_off_c, 0, 51, 64
1, 155827, Note_on_c, 0, 55, 72
1, 155858, Note_off_c, 0, 46, 64
1, 155868, Note_off_c, 0, 58, 64
1, 155890, Note_on_c, 0, 43, 74
1, 155954, Note_on_c, 0, 39, 96
1, 155970, Note_off_c, 0, 55, 64
1, 155992, Note_off_c, 0, 43, 64
1, 156076, Note_off_c, 0, 39, 64
1, 156104, Note_on_c, 0, 27, 105
1, 156384, Note_off_c, 0, 27, 64
1, 156384, Note_on_c, 0, 39, 92
1, 156422, Note_off_c, 0, 39, 64
1, 156590, Note_on_c, 0, 46, 74
1, 156618, Note_on_c, 0, 70, 93
1, 156618, Note_on_c, 0, 82, 97
1, 156626, Note_on_c, 0, 79, 95
1, 156634, Note_on_c, 0, 75, 80
1, 156762, Note_off_c, 0, 46, 64
1, 156776, Note_on_c, 0, 51, 72
1, 156820, Note_off_c, 0, 79, 64
1, 156842, Note_off_c, 0, 75, 64
1, 156852, Note_off_c, 0, 70, 64
1, 156886, Note_off_c, 0, 82, 64
1, 156908, Note_off_c, 0, 51, 64
1, 156918, Note_on_c, 0, 55, 83
1, 157044, Note_off_c, 0, 55, 64
1, 157064, Note_on_c, 0, 58, 69
1, 157094, Note_on_c, 0, 84, 115
1, 157094, Note_on_c, 0, 72, 106
1, 157260, Note_on_c, 0, 63, 76
1, 157308, Note_off_c, 0, 72, 64
1, 157311, Note_off_c, 0, 58, 64
1, 157368, Note_off_c, 0, 63, 64
1, 157378, Note_off_c, 0, 84, 64
1, 157378, Note_on_c, 0, 67, 85
1, 157524, Note_off_c, 0, 67, 64
1, 157536, Note_on_c, 0, 87, 105
1, 157539, Note_on_c, 0, 70, 79
1, 157542, Note_on_c, 0, 75, 104
1, 157544, Note_on_c, 0, 82, 86
1, 157546, Note_on_c, 0, 79, 94
1, 157656, Note_off_c, 0, 70, 64
1, 157704, Note_on_c, 0, 67, 79
1, 157808, Note_off_c, 0, 87, 64
1, 157810, Note_off_c, 0, 75, 64
1, 157820, Note_on_c, 0, 63, 73
1, 157838, Note_off_c, 0, 79, 64
1, 157838, Note_off_c, 0, 67, 64
1, 157874, Note_off_c, 0, 82, 64
1, 157888, Note_on_c, 0, 85, 103
1, 157890, Note_on_c, 0, 73, 107
1, 157948, Note_off_c, 0, 63, 64
1, 157956, Note_on_c, 0, 58, 57
1, 158006, Note_off_c, 0, 58, 64
1, 158084, Note_on_c, 0, 55, 85
1, 158112, Note_off_c, 0, 73, 64
1, 158118, Note_off_c, 0, 85, 64
1, 158180, Note_on_c, 0, 51, 77
1, 158186, Note_on_c, 0, 84, 108
1, 158192, Note_on_c, 0, 72, 105
1, 158195, Note_off_c, 0, 55, 64
1, 158252, Note_off_c, 0, 84, 64
1, 158270, Note_on_c, 0, 46, 70
1, 158294, Note_off_c, 0, 51, 64
1, 158334, Note_off_c, 0, 72, 64
1, 158346, Note_off_c, 0, 46, 64
1, 158414, Note_on_c, 0, 39, 95
1, 158518, Note_off_c, 0, 39, 64
1, 158534, Note_on_c, 0, 27, 105
1, 158534, Note_on_c, 0, 82, 94
1, 158534, Note_on_c, 0, 79, 97
1, 158540, Note_on_c, 0, 70, 91
1, 158542, Note_on_c, 0, 76, 80
1, 158544, Note_on_c, 0, 73, 78
1, 158598, Control_c, 0, 64, 0
1, 158688, Note_off_c, 0, 27, 64
1, 158688, Note_on_c, 0, 39, 92
1, 158722, Control_c, 0, 64, 127
1, 158725, Note_off_c, 0, 39, 64
1, 158826, Note_off_c, 0, 76, 64
1, 158830, Note_off_c, 0, 73, 64
1, 158834, Note_off_c, 0, 79, 64
1, 158856, Note_on_c, 0, 46, 81
1, 158860, Note_off_c, 0, 70, 64
1, 158888, Note_off_c, 0, 82, 64
1, 158964, Note_on_c, 0, 49, 83
1, 159016, Note_off_c, 0, 46, 64
1, 159046, Note_on_c, 0, 52, 100
1, 159114, Note_off_c, 0, 49, 64
1, 159138, Note_on_c, 0, 84, 110
1, 159138, Note_on_c, 0, 72, 102
1, 159146, Note_on_c, 0, 55, 92
1, 159158, Note_off_c, 0, 52, 64
1, 159254, Note_off_c, 0, 55, 64
1, 159259, Note_on_c, 0, 58, 73
1, 159290, Note_off_c, 0, 84, 64
1, 159342, Note_on_c, 0, 61, 87
1, 159344, Note_off_c, 0, 72, 64
1, 159422, Note_on_c, 0, 64, 72
1, 159434, Note_off_c, 0, 58, 64
1, 159504, Note_off_c, 0, 61, 64
1, 159514, Note_on_c, 0, 67, 78
1, 159544, Note_off_c, 0, 64, 64
1, 159556, Note_off_c, 0, 67, 64
1, 159630, Note_on_c, 0, 65, 96
1, 159632, Note_on_c, 0, 77, 98
1, 159636, Note_on_c, 0, 74, 85
1, 159640, Note_on_c, 0, 71, 85
1, 159668, Note_on_c, 0, 68, 78
1, 159736, Control_c, 0, 64, 0
1, 159808, Note_on_c, 0, 62, 74
1, 159858, Note_off_c, 0, 68, 64
1, 159874, Control_c, 0, 64, 127
1, 159924, Note_on_c, 0, 59, 66
1, 159978, Note_off_c, 0, 62, 64
1, 160010, Note_on_c, 0, 56, 71
1, 160014, Note_off_c, 0, 65, 64
1, 160016, Note_off_c, 0, 77, 64
1, 160046, Note_off_c, 0, 59, 64
1, 160064, Note_off_c, 0, 56, 64
1, 160118, Note_on_c, 0, 79, 106
1, 160121, Note_on_c, 0, 67, 94
1, 160152, Note_on_c, 0, 56, 68
1, 160202, Note_off_c, 0, 74, 64
1, 160226, Note_off_c, 0, 71, 64
1, 160242, Note_off_c, 0, 79, 64
1, 160284, Note_off_c, 0, 56, 64
1, 160286, Note_off_c, 0, 67, 64
1, 160316, Note_on_c, 0, 50, 75
1, 160452, Note_on_c, 0, 47, 82
1, 160488, Note_off_c, 0, 50, 64
1, 160491, Note_off_c, 0, 47, 64
1, 160582, Note_on_c, 0, 58, 89
1, 160586, Note_on_c, 0, 70, 83
1, 160588, Note_on_c, 0, 67, 74
1, 160594, Note_on_c, 0, 61, 81
1, 160596, Note_on_c, 0, 65, 80
1, 160628, Note_on_c, 0, 27, 82
1, 160642, Control_c, 0, 64, 0
1, 160740, Note_off_c, 0, 27, 64
1, 160764, Note_on_c, 0, 39, 73
1, 160796, Control_c, 0, 64, 127
1, 160802, Note_off_c, 0, 39, 64
1, 160926, Note_on_c, 0, 46, 67
1, 160934, Note_off_c, 0, 58, 64
1, 161136, Note_off_c, 0, 61, 64
1, 161141, Note_on_c, 0, 49, 52
1, 161192, Note_on_c, 0, 60, 99
1, 161244, Note_off_c, 0, 46, 64
1, 161338, Note_on_c, 0, 53, 80
1, 161341, Note_off_c, 0, 49, 64
1, 161432, Note_off_c, 0, 53, 64
1, 161484, Note_on_c, 0, 55, 71
1, 161492, Note_off_c, 0, 65, 64
1, 161604, Note_off_c, 0, 55, 64
1, 161630, Note_on_c, 0, 63, 99
1, 161636, Note_on_c, 0, 58, 62
1, 161676, Note_off_c, 0, 60, 64
1, 161694, Note_off_c, 0, 58, 64
1, 161772, Note_on_c, 0, 55, 68
1, 161888, Note_off_c, 0, 67, 64
1, 161906, Note_off_c, 0, 55, 64
1, 161934, Note_on_c, 0, 53, 84
1, 161942, Note_on_c, 0, 61, 100
1, 162014, Note_off_c, 0, 53, 64
1, 162044, Note_on_c, 0, 49, 65
1, 162064, Note_off_c, 0, 63, 64
1, 162088, Note_off_c, 0, 49, 64
1, 162170, Note_off_c, 0, 70, 64
1, 162170, Note_off_c, 0, 61, 64
1, 162176, Note_on_c, 0, 46, 62
1, 162198, Note_on_c, 0, 60, 100
1, 162264, Note_on_c, 0, 39, 78
1, 162302, Note_off_c, 0, 46, 64
1, 162354, Note_off_c, 0, 39, 64
1, 162376, Note_on_c, 0, 31, 76
1, 162420, Note_on_c, 0, 65, 91
1, 162420, Note_on_c, 0, 59, 91
1, 162423, Control_c, 0, 64, 0
1, 162456, Note_off_c, 0, 60, 64
1, 162572, Note_on_c, 0, 43, 55
1, 162575, Note_on_c, 0, 61, 75
1, 162640, Note_off_c, 0, 31, 64
1, 162640, Control_c, 0, 64, 127
1, 162656, Note_off_c, 0, 65, 64
1, 162682, Note_off_c, 0, 43, 64
1, 162794, Note_on_c, 0, 49, 62
1, 162904, Note_on_c, 0, 51, 73
1, 162938, Note_off_c, 0, 59, 64
1, 162976, Note_off_c, 0, 49, 64
1, 162979, Note_off_c, 0, 61, 64
1, 163012, Note_on_c, 0, 53, 92
1, 163056, Note_off_c, 0, 53, 64
1, 163070, Note_off_c, 0, 51, 64
1, 163090, Note_on_c, 0, 55, 83
1, 163150, Note_off_c, 0, 55, 64
1, 163176, Note_on_c, 0, 57, 79
1, 163260, Note_on_c, 0, 59, 84
1, 163286, Note_off_c, 0, 57, 64
1, 163298, Note_on_c, 0, 61, 86
1, 163322, Note_off_c, 0, 59, 64
1, 163382, Note_on_c, 0, 63, 84
1, 163410, Note_off_c, 0, 61, 64
1, 163450, Note_off_c, 0, 63, 64
1, 163514, Note_on_c, 0, 65, 34
1, 163569, Note_on_c, 0, 63, 78
1, 163569, Note_on_c, 0, 67, 90
1, 163578, Note_off_c, 0, 65, 64
1, 163636, Note_off_c, 0, 63, 64
1, 163654, Note_on_c, 0, 59, 98
1, 163657, Note_on_c, 0, 69, 67
1, 163710, Note_off_c, 0, 67, 64
1, 163714, Note_off_c, 0, 69, 64
1, 163766, Note_on_c, 0, 71, 83
1, 163838, Note_off_c, 0, 71, 64
1, 163856, Note_on_c, 0, 73, 76
1, 163888, Note_off_c, 0, 59, 64
1, 163946, Note_on_c, 0, 61, 86
1, 163960, Note_on_c, 0, 75, 80
1, 163988, Note_off_c, 0, 73, 64
1, 163988, Note_off_c, 0, 61, 64
1, 164096, Note_on_c, 0, 73, 58
1, 164096, Note_on_c, 0, 70, 85
1, 164099, Note_on_c, 0, 79, 100
1, 164106, Note_on_c, 0, 77, 74
1, 164126, Note_on_c, 0, 39, 66
1, 164130, Control_c, 0, 64, 0
1, 164140, Note_off_c, 0, 75, 64
1, 164300, Note_on_c, 0, 51, 77
1, 164314, Control_c, 0, 64, 127
1, 164328, Note_off_c, 0, 39, 64
1, 164370, Note_off_c, 0, 51, 64
1, 164496, Note_on_c, 0, 58, 66
1, 164550, Note_off_c, 0, 70, 64
1, 164650, Note_on_c, 0, 72, 88
1, 164658, Note_on_c, 0, 61, 73
1, 164688, Note_off_c, 0, 58, 64
1, 164732, Note_off_c, 0, 73, 64
1, 164812, Note_on_c, 0, 65, 55
1, 164822, Note_off_c, 0, 61, 64
1, 164936, Note_off_c, 0, 65, 64
1, 164958, Note_on_c, 0, 67, 63
1, 165106, Note_off_c, 0, 67, 64
1, 165164, Note_on_c, 0, 70, 47
1, 165180, Note_on_c, 0, 75, 79
1, 165290, Note_off_c, 0, 70, 64
1, 165370, Note_on_c, 0, 67, 46
1, 165382, Note_off_c, 0, 77, 64
1, 165428, Note_off_c, 0, 72, 64
1, 165494, Note_off_c, 0, 67, 64
1, 165534, Note_on_c, 0, 73, 66
1, 165560, Note_off_c, 0, 79, 64
1, 165560, Note_on_c, 0, 65, 35
1, 165626, Note_off_c, 0, 65, 64
1, 165646, Note_off_c, 0, 75, 64
1, 165678, Note_on_c, 0, 61, 36
1, 165746, Note_off_c, 0, 61, 64
1, 165810, Note_on_c, 0, 72, 69
1, 165826, Note_on_c, 0, 58, 35
1, 165829, Note_off_c, 0, 73, 64
1, 165896, Note_off_c, 0, 58, 64
1, 165962, Note_on_c, 0, 51, 44
1, 166018, Note_off_c, 0, 51, 64
1, 166134, Note_on_c, 0, 56, 62
1, 166230, Note_on_c, 0, 71, 75
1, 166230, Note_on_c, 0, 77, 77
1, 166250, Control_c, 0, 64, 0
1, 166272, Note_off_c, 0, 72, 64
1, 166388, Note_on_c, 0, 61, 52
1, 166412, Note_on_c, 0, 73, 53
1, 166440, Note_off_c, 0, 77, 64
1, 166450, Control_c, 0, 64, 127
1, 166456, Note_off_c, 0, 56, 64
1, 166460, Note_off_c, 0, 61, 64
1, 166516, Note_on_c, 0, 65, 42
1, 166562, Note_off_c, 0, 71, 64
1, 166574, Note_off_c, 0, 65, 64
1, 166622, Note_off_c, 0, 73, 64
1, 166644, Note_on_c, 0, 68, 46
1, 166770, Note_off_c, 0, 68, 64
1, 166770, Note_on_c, 0, 71, 57
1, 166822, Note_off_c, 0, 71, 64
1, 166862, Note_on_c, 0, 73, 64
1, 166924, Note_off_c, 0, 73, 64
1, 166964, Note_on_c, 0, 75, 62
1, 167028, Note_off_c, 0, 75, 64
1, 167066, Note_on_c, 0, 77, 75
1, 167176, Note_on_c, 0, 80, 70
1, 167194, Note_off_c, 0, 77, 64
1, 167258, Note_off_c, 0, 80, 64
1, 167268, Note_on_c, 0, 85, 66
1, 167390, Note_on_c, 0, 89, 58
1, 167402, Note_off_c, 0, 85, 64
1, 167454, Note_off_c, 0, 89, 64
1, 167490, Note_on_c, 0, 92, 56
1, 167493, Note_on_c, 0, 75, 54
1, 167532, Note_off_c, 0, 92, 64
1, 167548, Note_off_c, 0, 75, 64
1, 167584, Note_on_c, 0, 71, 82
1, 167608, Note_on_c, 0, 95, 69
1, 167670, Note_off_c, 0, 95, 64
1, 167716, Note_on_c, 0, 97, 53
1, 167830, Note_on_c, 0, 99, 64
1, 167860, Note_off_c, 0, 97, 64
1, 167874, Note_off_c, 0, 71, 64
1, 167954, Note_on_c, 0, 101, 74
1, 167957, Note_off_c, 0, 99, 64
1, 167988, Note_off_c, 0, 101, 64
1, 168002, Note_on_c, 0, 73, 57
1, 168216, Note_off_c, 0, 73, 64
1, 168284, Note_on_c, 0, 77, 72
1, 168284, Note_on_c, 0, 79, 80
1, 168300, Note_on_c, 0, 61, 43
1, 168402, Control_c, 0, 64, 0
1, 168470, Note_on_c, 0, 65, 42
1, 168488, Note_on_c, 0, 73, 58
1, 168510, Note_off_c, 0, 77, 64
1, 168566, Note_off_c, 0, 65, 64
1, 168595, Note_on_c, 0, 67, 39
1, 168602, Control_c, 0, 64, 127
1, 168614, Note_off_c, 0, 61, 64
1, 168654, Note_off_c, 0, 67, 64
1, 168706, Note_off_c, 0, 73, 64
1, 168712, Note_on_c, 0, 69, 45
1, 168766, Note_off_c, 0, 79, 64
1, 168766, Note_off_c, 0, 69, 64
1, 168830, Note_on_c, 0, 71, 65
1, 168950, Note_on_c, 0, 73, 53
1, 168962, Note_off_c, 0, 71, 64
1, 169048, Note_on_c, 0, 75, 61
1, 169062, Note_off_c, 0, 73, 64
1, 169158, Note_off_c, 0, 75, 64
1, 169158, Note_on_c, 0, 77, 53
1, 169208, Note_off_c, 0, 77, 64
1, 169268, Note_on_c, 0, 81, 55
1, 169322, Note_off_c, 0, 81, 64
1, 169382, Note_on_c, 0, 83, 49
1, 169446, Note_off_c, 0, 83, 64
1, 169482, Note_on_c, 0, 85, 46
1, 169562, Note_off_c, 0, 85, 64
1, 169616, Note_on_c, 0, 87, 47
1, 169628, Note_on_c, 0, 75, 43
1, 169670, Note_off_c, 0, 87, 64
1, 169708, Note_off_c, 0, 75, 64
1, 169768, Note_on_c, 0, 71, 58
1, 169780, Note_on_c, 0, 89, 42
1, 169858, Note_off_c, 0, 89, 64
1, 169918, Note_on_c, 0, 91, 36
1, 169966, Note_off_c, 0, 71, 64
1, 169998, Note_off_c, 0, 91, 64
1, 170068, Note_on_c, 0, 93, 22
1, 170212, Note_off_c, 0, 93, 64
1, 170230, Note_on_c, 0, 73, 37
1, 170232, Note_on_c, 0, 95, 23
1, 170310, Note_off_c, 0, 95, 64
1, 170334, Note_off_c, 0, 73, 64
1, 170412, Note_on_c, 0, 61, 36
1, 170604, Note_off_c, 0, 61, 64
1, 170618, Note_on_c, 0, 65, 31
1, 170776, Note_on_c, 0, 67, 32
1, 170796, Note_off_c, 0, 65, 64
1, 170896, Note_off_c, 0, 67, 64
1, 170930, Note_on_c, 0, 69, 31
1, 171012, Note_off_c, 0, 69, 64
1, 171084, Note_on_c, 0, 71, 31
1, 171192, Note_off_c, 0, 71, 64
1, 171202, Note_on_c, 0, 73, 38
1, 171324, Note_off_c, 0, 73, 64
1, 171362, Note_on_c, 0, 75, 31
1, 171438, Note_off_c, 0, 75, 64
1, 171502, Note_on_c, 0, 77, 38
1, 171582, Note_off_c, 0, 77, 64
1, 171672, Note_on_c, 0, 61, 31
1, 171830, Note_off_c, 0, 61, 64
1, 171870, Note_on_c, 0, 65, 24
1, 172056, Note_off_c, 0, 65, 64
1, 172088, Note_on_c, 0, 67, 18
1, 172290, Note_on_c, 0, 69, 17
1, 172314, Note_off_c, 0, 67, 64
1, 172492, Note_off_c, 0, 69, 64
1, 172532, Note_on_c, 0, 71, 33
1, 172640, Note_off_c, 0, 71, 64
1, 172754, Note_on_c, 0, 73, 36
1, 173006, Note_on_c, 0, 75, 35
1, 173040, Note_off_c, 0, 73, 64
1, 173188, Note_off_c, 0, 75, 64
1, 173310, Note_on_c, 0, 77, 42
1, 173452, Note_off_c, 0, 77, 64
1, 173928, Note_on_c, 0, 80, 43
1, 173932, Note_on_c, 0, 73, 16
1, 173940, Note_on_c, 0, 68, 22
1, 173946, Note_on_c, 0, 69, 11
1, 174210, Control_c, 0, 64, 0
1, 174516, Control_c, 0, 64, 127
1, 174964, Note_off_c, 0, 68, 64
1, 175242, Note_on_c, 0, 66, 12
1, 175250, Note_on_c, 0, 78, 33
1, 175314, Control_c, 0, 64, 0
1, 175354, Note_off_c, 0, 80, 64
1, 175514, Note_off_c, 0, 73, 64
1, 175546, Control_c, 0, 64, 127
1, 175632, Note_off_c, 0, 69, 64
1, 175702, Note_on_c, 0, 85, 66
1, 175718, Note_on_c, 0, 73, 10
1, 175770, Note_off_c, 0, 66, 64
1, 175788, Note_off_c, 0, 73, 64
1, 175842, Note_off_c, 0, 78, 64
1, 175940, Note_off_c, 0, 85, 64
1, 176296, Note_on_c, 0, 86, 58
1, 176314, Note_on_c, 0, 81, 18
1, 176316, Note_on_c, 0, 74, 41
1, 176318, Note_on_c, 0, 69, 17
1, 176322, Note_on_c, 0, 77, 15
1, 176330, Note_on_c, 0, 65, 9
1, 176638, Control_c, 0, 64, 0
1, 176928, Control_c, 0, 64, 127
1, 177046, Note_off_c, 0, 74, 64
1, 177204, Note_off_c, 0, 69, 64
1, 177230, Note_off_c, 0, 65, 64
1, 177262, Note_off_c, 0, 77, 64
1, 177280, Note_off_c, 0, 81, 64
1, 177474, Note_on_c, 0, 62, 15
1, 177662, Note_off_c, 0, 62, 64
1, 178046, Note_on_c, 0, 89, 49
1, 178054, Note_on_c, 0, 77, 34
1, 178128, Note_off_c, 0, 86, 64
1, 178328, Note_off_c, 0, 77, 64
1, 178430, Note_off_c, 0, 89, 64
1, 179098, Note_on_c, 0, 80, 31
1, 179098, Note_on_c, 0, 33, 27
1, 179101, Note_on_c, 0, 88, 35
1, 179108, Note_on_c, 0, 85, 22
1, 179126, Control_c, 0, 64, 0
1, 179292, Note_off_c, 0, 80, 64
1, 179326, Control_c, 0, 64, 127
1, 179340, Note_off_c, 0, 85, 64
1, 179402, Note_off_c, 0, 33, 64
1, 179405, Note_on_c, 0, 78, 33
1, 179412, Note_on_c, 0, 87, 47
1, 179424, Note_off_c, 0, 88, 64
1, 179434, Note_on_c, 0, 40, 33
1, 179456, Note_on_c, 0, 83, 25
1, 179502, Note_off_c, 0, 78, 64
1, 179502, Note_off_c, 0, 40, 64
1, 179514, Note_off_c, 0, 83, 64
1, 179648, Note_on_c, 0, 45, 30
1, 179658, Note_off_c, 0, 87, 64
1, 179664, Note_on_c, 0, 85, 49
1, 179686, Note_on_c, 0, 76, 27
1, 179722, Note_off_c, 0, 45, 64
1, 179806, Note_on_c, 0, 49, 17
1, 179932, Note_off_c, 0, 49, 64
1, 179948, Note_on_c, 0, 52, 60
1, 179996, Note_off_c, 0, 52, 64
1, 180090, Note_on_c, 0, 57, 21
1, 180142, Note_off_c, 0, 76, 64
1, 180178, Note_off_c, 0, 57, 64
1, 180214, Note_on_c, 0, 61, 36
1, 180272, Note_off_c, 0, 85, 64
1, 180358, Note_off_c, 0, 61, 64
1, 180384, Note_on_c, 0, 64, 44
1, 180462, Note_off_c, 0, 64, 64
1, 181032, Note_on_c, 0, 76, 75
1, 181048, Note_on_c, 0, 73, 37
1, 181048, Note_on_c, 0, 68, 35
1, 181612, Note_on_c, 0, 52, 22
1, 181786, Note_off_c, 0, 73, 64
1, 181882, Note_off_c, 0, 68, 64
1, 182010, Note_off_c, 0, 52, 64
1, 182080, Note_off_c, 0, 76, 64
1, 182318, Note_on_c, 0, 75, 35
1, 182324, Note_on_c, 0, 66, 38
1, 182330, Note_on_c, 0, 71, 43
1, 182406, Note_off_c, 0, 71, 64
1, 182542, Note_off_c, 0, 66, 64
1, 182596, Note_on_c, 0, 45, 26
1, 182694, Note_off_c, 0, 75, 64
1, 182768, Note_off_c, 0, 45, 64
1, 182830, Note_on_c, 0, 73, 52
1, 182838, Note_on_c, 0, 69, 27
1, 182840, Note_on_c, 0, 64, 38
1, 182922, Note_off_c, 0, 69, 64
1, 182963, Note_off_c, 0, 64, 64
1, 183008, Note_off_c, 0, 73, 64
1, 183674, Control_c, 0, 64, 0
1, 183678, Note_on_c, 0, 87, 23
1, 183688, Note_on_c, 0, 91, 40
1, 183691, Note_on_c, 0, 79, 34
1, 183691, Note_on_c, 0, 84, 23
1, 183694, Note_on_c, 0, 24, 37
1, 183920, Control_c, 0, 64, 127
1, 183922, Note_off_c, 0, 24, 64
1, 184106, Note_off_c, 0, 79, 64
1, 184116, Note_off_c, 0, 91, 64
1, 184138, Note_off_c, 0, 84, 64
1, 184152, Note_off_c, 0, 87, 64
1, 184276, Note_on_c, 0, 43, 40
1, 184416, Note_off_c, 0, 43, 64
1, 184460, Note_on_c, 0, 48, 39
1, 184610, Note_on_c, 0, 51, 40
1, 184636, Note_off_c, 0, 48, 64
1, 184726, Note_off_c, 0, 51, 64
1, 184734, Note_on_c, 0, 55, 41
1, 184796, Note_off_c, 0, 55, 64
1, 184834, Note_on_c, 0, 60, 29
1, 184898, Note_off_c, 0, 60, 64
1, 184900, Note_on_c, 0, 63, 63
1, 184940, Note_off_c, 0, 63, 64
1, 184990, Note_on_c, 0, 67, 57
1, 185070, Note_off_c, 0, 67, 64
1, 185090, Note_on_c, 0, 72, 60
1, 185150, Note_off_c, 0, 72, 64
1, 185188, Note_on_c, 0, 75, 62
1, 185228, Note_off_c, 0, 75, 64
1, 185286, Note_on_c, 0, 79, 59
1, 185340, Note_off_c, 0, 79, 64
1, 185368, Note_on_c, 0, 84, 65
1, 185418, Note_off_c, 0, 84, 64
1, 185444, Note_on_c, 0, 87, 51
1, 185488, Note_off_c, 0, 87, 64
1, 185574, Note_on_c, 0, 91, 21
1, 185646, Note_off_c, 0, 91, 64
1, 185646, Note_on_c, 0, 96, 47
1, 185714, Note_off_c, 0, 96, 64
1, 185762, Note_on_c, 0, 99, 12
1, 185860, Note_off_c, 0, 99, 64
1, 185870, Note_on_c, 0, 103, 39
1, 186032, Note_off_c, 0, 103, 64
1, 186222, Note_on_c, 0, 48, 15
1, 186222, Note_on_c, 0, 55, 30
1, 186780, Note_off_c, 0, 55, 64
1, 187066, Note_off_c, 0, 48, 64
1, 188216, Note_on_c, 0, 88, 71
1, 188219, Note_on_c, 0, 80, 61
1, 188219, Note_on_c, 0, 85, 54
1, 188234, Note_on_c, 0, 33, 30
1, 188268, Control_c, 0, 64, 0
1, 188400, Note_off_c, 0, 80, 64
1, 188432, Note_off_c, 0, 85, 64
1, 188437, Control_c, 0, 64, 127
1, 188512, Note_on_c, 0, 87, 66
1, 188518, Note_on_c, 0, 78, 53
1, 188518, Note_on_c, 0, 83, 80
1, 188534, Note_on_c, 0, 40, 38
1, 188560, Note_off_c, 0, 33, 64
1, 188560, Note_off_c, 0, 83, 64
1, 188578, Note_off_c, 0, 88, 64
1, 188584, Note_off_c, 0, 78, 64
1, 188618, Note_off_c, 0, 40, 64
1, 188702, Note_on_c, 0, 45, 30
1, 188738, Note_off_c, 0, 87, 64
1, 188742, Note_on_c, 0, 85, 66
1, 188750, Note_on_c, 0, 76, 41
1, 188764, Note_on_c, 0, 81, 28
1, 188778, Note_off_c, 0, 45, 64
1, 188856, Note_on_c, 0, 49, 26
1, 188960, Note_off_c, 0, 49, 64
1, 188994, Note_on_c, 0, 52, 46
1, 189042, Note_off_c, 0, 52, 64
1, 189080, Note_on_c, 0, 57, 37
1, 189156, Note_off_c, 0, 57, 64
1, 189174, Note_off_c, 0, 76, 64
1, 189214, Note_on_c, 0, 61, 41
1, 189230, Note_off_c, 0, 81, 64
1, 189298, Note_off_c, 0, 61, 64
1, 189312, Note_off_c, 0, 85, 64
1, 189376, Note_on_c, 0, 64, 20
1, 189474, Note_off_c, 0, 64, 64
1, 190146, Note_on_c, 0, 76, 71
1, 190152, Note_on_c, 0, 68, 37
1, 190154, Note_on_c, 0, 73, 41
1, 190500, Note_on_c, 0, 52, 30
1, 190544, Note_off_c, 0, 73, 64
1, 190620, Note_off_c, 0, 76, 64
1, 190756, Note_off_c, 0, 68, 64
1, 190886, Note_off_c, 0, 52, 64
1, 191172, Note_on_c, 0, 75, 55
1, 191175, Note_on_c, 0, 66, 38
1, 191194, Note_on_c, 0, 71, 39
1, 191330, Note_off_c, 0, 71, 64
1, 191386, Note_off_c, 0, 66, 64
1, 191394, Note_on_c, 0, 45, 28
1, 191414, Note_off_c, 0, 75, 64
1, 191522, Note_off_c, 0, 45, 64
1, 191602, Note_on_c, 0, 73, 65
1, 191616, Note_on_c, 0, 64, 55
1, 191618, Note_on_c, 0, 69, 45
1, 191668, Note_off_c, 0, 64, 64
1, 191698, Note_off_c, 0, 69, 64
1, 191768, Note_off_c, 0, 73, 64
1, 192350, Note_on_c, 0, 87, 26
1, 192354, Note_on_c, 0, 82, 26
1, 192354, Note_on_c, 0, 94, 38
1, 192354, Note_on_c, 0, 90, 35
1, 192357, Note_on_c, 0, 32, 26
1, 192370, Control_c, 0, 64, 0
1, 192648, Control_c, 0, 64, 127
1, 192694, Note_off_c, 0, 32, 64
1, 192716, Note_on_c, 0, 44, 43
1, 192772, Note_off_c, 0, 44, 64
1, 193012, Note_on_c, 0, 51, 25
1, 193092, Note_off_c, 0, 51, 64
1, 193130, Note_off_c, 0, 87, 64
1, 193190, Note_on_c, 0, 54, 35
1, 193238, Note_off_c, 0, 94, 64
1, 193246, Note_off_c, 0, 90, 64
1, 193252, Note_off_c, 0, 54, 64
1, 193330, Note_off_c, 0, 82, 64
1, 193338, Note_on_c, 0, 58, 16
1, 193418, Note_off_c, 0, 58, 64
1, 193558, Note_on_c, 0, 63, 2
1, 193656, Note_on_c, 0, 66, 23
1, 193678, Note_off_c, 0, 63, 64
1, 193836, Note_on_c, 0, 70, 22
1, 194078, Note_off_c, 0, 70, 64
1, 194094, Note_on_c, 0, 85, 59
1, 194112, Note_on_c, 0, 77, 41
1, 194115, Note_on_c, 0, 82, 34
1, 194178, Note_off_c, 0, 77, 64
1, 194196, Note_off_c, 0, 82, 64
1, 194228, Note_off_c, 0, 85, 64
1, 194412, Note_on_c, 0, 84, 71
1, 194420, Note_on_c, 0, 75, 41
1, 194432, Note_on_c, 0, 80, 44
1, 194482, Note_off_c, 0, 80, 64
1, 194516, Note_off_c, 0, 66, 64
1, 194554, Note_off_c, 0, 75, 64
1, 194726, Note_on_c, 0, 82, 64
1, 194730, Note_on_c, 0, 73, 45
1, 194734, Note_on_c, 0, 78, 48
1, 194780, Note_off_c, 0, 84, 64
1, 195184, Note_on_c, 0, 51, 48
1, 195336, Note_off_c, 0, 82, 64
1, 195346, Note_off_c, 0, 73, 64
1, 195346, Note_off_c, 0, 78, 64
1, 195658, Note_on_c, 0, 70, 57
1, 195676, Note_on_c, 0, 61, 42
1, 195678, Note_on_c, 0, 66, 30
1, 195880, Note_off_c, 0, 66, 64
1, 195914, Note_off_c, 0, 70, 64
1, 195962, Note_off_c, 0, 61, 64
1, 196122, Note_on_c, 0, 68, 54
1, 196124, Note_on_c, 0, 60, 42
1, 196124, Note_on_c, 0, 65, 43
1, 196162, Note_on_c, 0, 44, 34
1, 196166, Control_c, 0, 64, 0
1, 196384, Note_off_c, 0, 60, 64
1, 196396, Control_c, 0, 64, 127
1, 196398, Note_off_c, 0, 65, 64
1, 196594, Note_on_c, 0, 66, 33
1, 196597, Note_on_c, 0, 58, 22
1, 196604, Note_on_c, 0, 63, 32
1, 196618, Note_off_c, 0, 68, 64
1, 196658, Control_c, 0, 64, 0
1, 196732, Note_off_c, 0, 51, 64
1, 196872, Control_c, 0, 64, 127
1, 196932, Note_off_c, 0, 44, 64
1, 197118, Control_c, 0, 64, 0
1, 197240, Control_c, 0, 64, 127
1, 197328, Note_off_c, 0, 58, 64
1, 197378, Note_off_c, 0, 66, 64
1, 197414, Note_off_c, 0, 63, 64
1, 197576, Note_on_c, 0, 70, 40
1, 197584, Note_on_c, 0, 61, 39
1, 197590, Note_on_c, 0, 66, 13
1, 197748, Note_off_c, 0, 61, 64
1, 197758, Note_off_c, 0, 66, 64
1, 198002, Note_on_c, 0, 68, 39
1, 198004, Note_on_c, 0, 65, 25
1, 198010, Note_on_c, 0, 60, 25
1, 198050, Note_off_c, 0, 70, 64
1, 198056, Control_c, 0, 64, 0
1, 198224, Control_c, 0, 64, 127
1, 198234, Note_off_c, 0, 65, 64
1, 198258, Note_off_c, 0, 60, 64
1, 198558, Note_off_c, 0, 68, 64
1, 198568, Note_on_c, 0, 58, 10
1, 198570, Note_on_c, 0, 63, 23
1, 198571, Note_on_c, 0, 66, 18
1, 198824, Control_c, 0, 64, 0
1, 199054, Control_c, 0, 64, 127
1, 199198, Note_off_c, 0, 58, 64
1, 199202, Note_off_c, 0, 63, 64
1, 199390, Note_off_c, 0, 66, 64
1, 199806, Note_on_c, 0, 70, 19
1, 199810, Note_on_c, 0, 61, 9
1, 199820, Note_on_c, 0, 66, 12
1, 200158, Note_off_c, 0, 66, 64
1, 200168, Note_off_c, 0, 61, 64
1, 200342, Note_off_c, 0, 70, 64
1, 200506, Note_on_c, 0, 60, 21
1, 200510, Note_on_c, 0, 68, 26
1, 200520, Note_on_c, 0, 65, 21
1, 200730, Control_c, 0, 64, 0
1, 200866, Note_off_c, 0, 60, 64
1, 200868, Control_c, 0, 64, 127
1, 200938, Note_off_c, 0, 65, 64
1, 201027, Note_off_c, 0, 68, 64
1, 201648, Note_on_c, 0, 73, 39
1, 201660, Note_on_c, 0, 70, 19
1, 201664, Note_on_c, 0, 63, 13
1, 201670, Note_on_c, 0, 66, 16
1, 201672, Note_on_c, 0, 58, 12
1, 201948, Note_off_c, 0, 70, 64
1, 202152, Note_on_c, 0, 80, 43
1, 202168, Note_on_c, 0, 77, 44
1, 202178, Note_on_c, 0, 72, 5
1, 202188, Control_c, 0, 64, 0
1, 202200, Note_off_c, 0, 73, 64
1, 202342, Control_c, 0, 64, 127
1, 202366, Note_off_c, 0, 72, 64
1, 202478, Note_off_c, 0, 77, 64
1, 202481, Note_off_c, 0, 80, 64
1, 202680, Note_off_c, 0, 66, 64
1, 202682, Note_off_c, 0, 63, 64
1, 202682, Note_on_c, 0, 75, 46
1, 202688, Note_on_c, 0, 73, 30
1, 202692, Note_off_c, 0, 58, 64
1, 202692, Note_on_c, 0, 70, 13
1, 202880, Note_off_c, 0, 70, 64
1, 203176, Note_off_c, 0, 73, 64
1, 203352, Note_on_c, 0, 92, 31
1, 203386, Note_on_c, 0, 80, 18
1, 203840, Note_off_c, 0, 92, 64
1, 204130, Note_off_c, 0, 80, 64
1, 204140, Note_off_c, 0, 75, 64
1, 204448, Note_on_c, 0, 89, 55
1, 204454, Note_on_c, 0, 77, 42
1, 204764, Note_off_c, 0, 89, 64
1, 205072, Note_off_c, 0, 77, 64
1, 205672, Note_on_c, 0, 87, 20
1, 205692, Note_on_c, 0, 75, 16
1, 205870, Note_off_c, 0, 87, 64
1, 206126, Note_off_c, 0, 75, 64
1, 206882, Note_on_c, 0, 68, 26
1, 206884, Note_on_c, 0, 75, 37
1, 206886, Note_on_c, 0, 61, 25
1, 206888, Note_on_c, 0, 65, 22
1, 207062, Note_off_c, 0, 68, 64
1, 207172, Note_on_c, 0, 60, 34
1, 207290, Note_on_c, 0, 73, 33
1, 207293, Note_on_c, 0, 82, 42
1, 207302, Note_on_c, 0, 77, 41
1, 207344, Note_off_c, 0, 75, 64
1, 207406, Note_off_c, 0, 60, 64
1, 207442, Note_on_c, 0, 58, 26
1, 207464, Note_off_c, 0, 77, 64
1, 207490, Control_c, 0, 64, 0
1, 207598, Control_c, 0, 64, 127
1, 207628, Note_off_c, 0, 73, 64
1, 207640, Note_on_c, 0, 75, 42
1, 207646, Note_on_c, 0, 77, 54
1, 207648, Note_on_c, 0, 72, 38
1, 207662, Note_off_c, 0, 61, 64
1, 207664, Note_off_c, 0, 65, 64
1, 207664, Note_off_c, 0, 58, 64
1, 207674, Note_off_c, 0, 82, 64
1, 207716, Note_off_c, 0, 75, 64
1, 207719, Note_off_c, 0, 72, 64
1, 207774, Note_off_c, 0, 77, 64
1, 207964, Note_on_c, 0, 77, 40
1, 207970, Note_on_c, 0, 87, 73
1, 207974, Note_on_c, 0, 73, 37
1, 207978, Note_on_c, 0, 80, 61
1, 208034, Note_off_c, 0, 80, 64
1, 208196, Note_on_c, 0, 72, 37
1, 208304, Note_off_c, 0, 72, 64
1, 208304, Note_on_c, 0, 85, 42
1, 208310, Note_on_c, 0, 94, 53
1, 208314, Note_off_c, 0, 87, 64
1, 208316, Note_on_c, 0, 89, 42
1, 208380, Note_off_c, 0, 89, 64
1, 208452, Note_on_c, 0, 70, 33
1, 208516, Note_off_c, 0, 85, 64
1, 208672, Note_on_c, 0, 87, 42
1, 208680, Note_on_c, 0, 89, 63
1, 208686, Note_on_c, 0, 84, 43
1, 208714, Note_off_c, 0, 94, 64
1, 208904, Note_off_c, 0, 87, 64
1, 209076, Note_off_c, 0, 77, 64
1, 209084, Note_off_c, 0, 73, 64
1, 209094, Note_on_c, 0, 85, 47
1, 209106, Note_on_c, 0, 82, 39
1, 209124, Note_off_c, 0, 70, 64
1, 209124, Note_off_c, 0, 84, 64
1, 209300, Note_off_c, 0, 85, 64
1, 209384, Note_off_c, 0, 82, 64
1, 209400, Note_off_c, 0, 89, 64
1, 209616, Note_on_c, 0, 85, 52
1, 209624, Note_on_c, 0, 82, 35
1, 209630, Note_on_c, 0, 77, 43
1, 209700, Note_off_c, 0, 77, 64
1, 209708, Note_off_c, 0, 82, 64
1, 209750, Note_off_c, 0, 85, 64
1, 210098, Note_on_c, 0, 82, 38
1, 210101, Note_on_c, 0, 73, 23
1, 210101, Note_on_c, 0, 77, 33
1, 210170, Note_off_c, 0, 77, 64
1, 210212, Note_off_c, 0, 73, 64
1, 210282, Note_off_c, 0, 82, 64
1, 210696, Note_on_c, 0, 77, 33
1, 210699, Note_on_c, 0, 73, 15
1, 210706, Note_on_c, 0, 70, 16
1, 210788, Note_off_c, 0, 73, 64
1, 210798, Note_off_c, 0, 70, 64
1, 210812, Note_off_c, 0, 77, 64
1, 211510, Note_on_c, 0, 61, 40
1, 211518, Note_on_c, 0, 44, 37
1, 211526, Note_on_c, 0, 54, 36
1, 211528, Note_on_c, 0, 58, 9
1, 211652, Note_off_c, 0, 58, 64
1, 211694, Note_off_c, 0, 54, 64
1, 211740, Note_off_c, 0, 61, 64
1, 211942, Note_on_c, 0, 68, 48
1, 211948, Note_on_c, 0, 60, 48
1, 211960, Note_on_c, 0, 65, 33
1, 212046, Note_off_c, 0, 65, 64
1, 212072, Note_off_c, 0, 60, 64
1, 212128, Note_off_c, 0, 68, 64
1, 212150, Note_on_c, 0, 37, 39
1, 212318, Note_on_c, 0, 63, 53
1, 212324, Note_on_c, 0, 61, 40
1, 212332, Note_on_c, 0, 58, 37
1, 212376, Control_c, 0, 64, 0
1, 212560, Control_c, 0, 64, 127
1, 212616, Note_off_c, 0, 37, 64
1, 212632, Note_off_c, 0, 58, 64
1, 212642, Note_off_c, 0, 44, 64
1, 212816, Note_off_c, 0, 61, 64
1, 212864, Note_off_c, 0, 63, 64
1, 213348, Note_on_c, 0, 68, 13
1, 213416, Note_on_c, 0, 80, 33
1, 213568, Note_off_c, 0, 68, 64
1, 213588, Note_off_c, 0, 80, 64
1, 214458, Note_on_c, 0, 65, 23
1, 214618, Note_on_c, 0, 77, 30
1, 214636, Note_off_c, 0, 65, 64
1, 214830, Note_off_c, 0, 77, 64
1, 215800, Note_on_c, 0, 63, 24
1, 215954, Note_off_c, 0, 63, 64
1, 216074, Note_on_c, 0, 75, 28
1, 216258, Note_off_c, 0, 75, 64
1, 217116, Note_on_c, 0, 56, 22
1, 217122, Note_on_c, 0, 63, 32
1, 217136, Note_on_c, 0, 44, 19
1, 217136, Note_on_c, 0, 53, 32
1, 217136, Note_on_c, 0, 37, 18
1, 217214, Note_off_c, 0, 53, 64
1, 217224, Note_off_c, 0, 56, 64
1, 217278, Note_off_c, 0, 63, 64
1, 217342, Note_off_c, 0, 44, 64
1, 217452, Note_off_c, 0, 37, 64
1, 217562, Note_on_c, 0, 61, 32
1, 217570, Note_on_c, 0, 70, 28
1, 217732, Note_off_c, 0, 61, 64
1, 217872, Note_off_c, 0, 70, 64
1, 217906, Note_on_c, 0, 65, 39
1, 217906, Note_on_c, 0, 60, 36
1, 217909, Note_on_c, 0, 63, 39
1, 217972, Note_off_c, 0, 63, 64
1, 217976, Note_off_c, 0, 60, 64
1, 217998, Note_off_c, 0, 65, 64
1, 218222, Note_on_c, 0, 68, 51
1, 218232, Note_on_c, 0, 75, 57
1, 218260, Note_on_c, 0, 65, 27
1, 218262, Note_on_c, 0, 58, 17
1, 218268, Note_on_c, 0, 61, 24
1, 218322, Note_off_c, 0, 68, 64
1, 218374, Note_off_c, 0, 65, 64
1, 218470, Note_off_c, 0, 61, 64
1, 218476, Note_off_c, 0, 75, 64
1, 218496, Note_off_c, 0, 58, 64
1, 218542, Note_on_c, 0, 82, 58
1, 218544, Note_on_c, 0, 73, 43
1, 218548, Note_on_c, 0, 77, 56
1, 218608, Note_off_c, 0, 77, 64
1, 218658, Note_off_c, 0, 73, 64
1, 218820, Note_off_c, 0, 82, 64
1, 218848, Note_on_c, 0, 77, 68
1, 218850, Note_on_c, 0, 72, 49
1, 218856, Note_on_c, 0, 75, 50
1, 218898, Note_off_c, 0, 72, 64
1, 218908, Note_off_c, 0, 75, 64
1, 218936, Note_off_c, 0, 77, 64
1, 219170, Note_on_c, 0, 87, 61
1, 219178, Note_on_c, 0, 80, 46
1, 219182, Note_on_c, 0, 77, 36
1, 219194, Note_on_c, 0, 73, 24
1, 219208, Note_on_c, 0, 70, 17
1, 219242, Note_off_c, 0, 80, 64
1, 219378, Note_off_c, 0, 77, 64
1, 219438, Note_off_c, 0, 87, 64
1, 219510, Note_off_c, 0, 73, 64
1, 219524, Note_on_c, 0, 85, 28
1, 219534, Note_on_c, 0, 94, 39
1, 219554, Note_off_c, 0, 70, 64
1, 219568, Note_on_c, 0, 89, 8
1, 219636, Note_off_c, 0, 89, 64
1, 219698, Note_off_c, 0, 85, 64
1, 219828, Note_off_c, 0, 94, 64
1, 219879, Note_on_c, 0, 87, 32
1, 219884, Note_on_c, 0, 89, 51
1, 219890, Note_on_c, 0, 84, 48
1, 219958, Note_off_c, 0, 87, 64
1, 219968, Note_off_c, 0, 89, 64
1, 220212, Note_on_c, 0, 82, 44
1, 220216, Note_on_c, 0, 85, 54
1, 220216, Note_on_c, 0, 89, 65
1, 220220, Note_off_c, 0, 84, 64
1, 220300, Note_off_c, 0, 85, 64
1, 220398, Note_off_c, 0, 82, 64
1, 220428, Note_off_c, 0, 89, 64
1, 220568, Note_on_c, 0, 82, 35
1, 220570, Note_on_c, 0, 85, 51
1, 220580, Note_on_c, 0, 77, 31
1, 220650, Note_off_c, 0, 82, 64
1, 220664, Note_off_c, 0, 85, 64
1, 220686, Note_off_c, 0, 77, 64
1, 220709, Note_on_c, 0, 65, 73
1, 220930, Note_on_c, 0, 67, 72
1, 220940, Note_off_c, 0, 65, 64
1, 221116, Note_off_c, 0, 67, 64
1, 221124, Note_on_c, 0, 82, 48
1, 221128, Note_on_c, 0, 73, 35
1, 221150, Note_on_c, 0, 70, 61
1, 221158, Note_on_c, 0, 77, 30
1, 221186, Note_off_c, 0, 82, 64
1, 221192, Note_off_c, 0, 73, 64
1, 221212, Note_off_c, 0, 77, 64
1, 221280, Note_off_c, 0, 70, 64
1, 221334, Note_on_c, 0, 69, 60
1, 221472, Note_off_c, 0, 69, 64
1, 221478, Note_on_c, 0, 67, 66
1, 221614, Note_off_c, 0, 67, 64
1, 221642, Note_on_c, 0, 65, 59
1, 221736, Note_on_c, 0, 61, 64
1, 221770, Control_c, 0, 64, 0
1, 222614, Control_c, 0, 64, 127
1, 223700, Note_on_c, 0, 63, 43
1, 223800, Note_off_c, 0, 61, 64
1, 223814, Control_c, 0, 64, 0
1, 223826, Note_on_c, 0, 59, 49
1, 223898, Note_off_c, 0, 63, 64
1, 224198, Control_c, 0, 64, 127
1, 224510, Note_off_c, 0, 65, 64
1, 224754, Note_off_c, 0, 59, 64
1, 224776, Note_on_c, 0, 61, 31
1, 225002, Note_off_c, 0, 61, 64
1, 225005, Note_on_c, 0, 65, 34
1, 225166, Control_c, 0, 64, 0
1, 225169, Note_on_c, 0, 61, 40
1, 225542, Note_off_c, 0, 65, 64
1, 225994, Control_c, 0, 64, 127
1, 226678, Note_off_c, 0, 61, 64
1, 227262, Note_on_c, 0, 63, 29
1, 227480, Note_off_c, 0, 63, 64
1, 227484, Note_on_c, 0, 59, 27
1, 227748, Control_c, 0, 64, 0
1, 227916, Control_c, 0, 64, 127
1, 228054, Note_off_c, 0, 59, 64
1, 228838, Note_on_c, 0, 61, 24
1, 229166, Note_on_c, 0, 49, 22
1, 229169, Note_on_c, 0, 57, 24
1, 229170, Note_on_c, 0, 33, 24
1, 229174, Note_on_c, 0, 45, 14
1, 229177, Note_on_c, 0, 37, 16
1, 229192, Control_c, 0, 64, 0
1, 229422, Control_c, 0, 64, 127
1, 229482, Note_off_c, 0, 49, 64
1, 229492, Note_off_c, 0, 33, 64
1, 229546, Note_off_c, 0, 45, 64
1, 229570, Note_off_c, 0, 37, 64
1, 229620, Note_off_c, 0, 57, 64
1, 229679, Note_off_c, 0, 61, 64
1, 230378, Note_on_c, 0, 80, 22
1, 230456, Note_on_c, 0, 92, 46
1, 230460, Note_on_c, 0, 68, 24
1, 230486, Note_off_c, 0, 80, 64
1, 230858, Note_off_c, 0, 68, 64
1, 231152, Note_off_c, 0, 92, 64
1, 231566, Note_on_c, 0, 77, 28
1, 231632, Note_off_c, 0, 77, 64
1, 231676, Note_on_c, 0, 89, 43
1, 231702, Note_on_c, 0, 65, 13
1, 231914, Note_off_c, 0, 65, 64
1, 232392, Note_off_c, 0, 89, 64
1, 232860, Note_on_c, 0, 75, 19
1, 232960, Note_off_c, 0, 75, 64
1, 233024, Note_on_c, 0, 63, 19
1, 233030, Note_on_c, 0, 87, 29
1, 233198, Note_off_c, 0, 63, 64
1, 233206, Note_off_c, 0, 87, 64
1, 234272, Note_on_c, 0, 63, 33
1, 234284, Note_on_c, 0, 37, 21
1, 234294, Note_on_c, 0, 42, 23
1, 234300, Note_on_c, 0, 58, 11
1, 234302, Note_on_c, 0, 51, 22
1, 234306, Note_on_c, 0, 30, 25
1, 234324, Control_c, 0, 64, 0
1, 234554, Control_c, 0, 64, 127
1, 234608, Note_off_c, 0, 30, 64
1, 234610, Note_off_c, 0, 51, 64
1, 234646, Note_off_c, 0, 37, 64
1, 234666, Note_off_c, 0, 42, 64
1, 234712, Note_off_c, 0, 58, 64
1, 234752, Note_off_c, 0, 63, 64
1, 235214, Note_on_c, 0, 82, 41
1, 235228, Note_on_c, 0, 58, 27
1, 235228, Note_on_c, 0, 70, 28
1, 235328, Note_off_c, 0, 70, 64
1, 235378, Note_off_c, 0, 58, 64
1, 235652, Note_off_c, 0, 82, 64
1, 236166, Note_on_c, 0, 77, 36
1, 236182, Note_on_c, 0, 65, 14
1, 236196, Note_on_c, 0, 53, 26
1, 236300, Note_off_c, 0, 65, 64
1, 236472, Note_off_c, 0, 53, 64
1, 236560, Note_off_c, 0, 77, 64
1, 239010, Note_on_c, 0, 33, 22
1, 239066, Note_on_c, 0, 37, 22
1, 239114, Note_on_c, 0, 45, 28
1, 239166, Note_on_c, 0, 49, 32
1, 239178, Control_c, 0, 64, 0
1, 239256, Note_on_c, 0, 57, 35
1, 239326, Note_on_c, 0, 61, 44
1, 239332, Control_c, 0, 64, 127
1, 239390, Note_off_c, 0, 37, 64
1, 239408, Note_off_c, 0, 45, 64
1, 239476, Note_off_c, 0, 49, 64
1, 239478, Note_off_c, 0, 33, 64
1, 239616, Note_off_c, 0, 57, 64
1, 239678, Note_off_c, 0, 61, 64
1, 240566, Note_on_c, 0, 80, 44
1, 240632, Note_on_c, 0, 68, 38
1, 240646, Note_on_c, 0, 92, 66
1, 240676, Note_off_c, 0, 80, 64
1, 240738, Note_off_c, 0, 68, 64
1, 241592, Note_off_c, 0, 92, 64
1, 241852, Note_on_c, 0, 77, 26
1, 241918, Note_off_c, 0, 77, 64
1, 241960, Note_on_c, 0, 89, 62
1, 241970, Note_on_c, 0, 65, 30
1, 242110, Note_off_c, 0, 65, 64
1, 243026, Note_off_c, 0, 89, 64
1, 243456, Note_on_c, 0, 75, 17
1, 243560, Note_on_c, 0, 63, 15
1, 243586, Note_off_c, 0, 75, 64
1, 243592, Note_on_c, 0, 87, 30
1, 243796, Note_off_c, 0, 63, 64
1, 243932, Note_off_c, 0, 87, 64
1, 244924, Note_on_c, 0, 42, 18
1, 244930, Note_on_c, 0, 37, 20
1, 244931, Note_on_c, 0, 51, 20
1, 244932, Note_on_c, 0, 63, 28
1, 244932, Note_on_c, 0, 30, 12
1, 244932, Note_on_c, 0, 58, 16
1, 244986, Control_c, 0, 64, 0
1, 245128, Note_off_c, 0, 51, 64
1, 245188, Control_c, 0, 64, 127
1, 245208, Note_off_c, 0, 30, 64
1, 245232, Note_off_c, 0, 37, 64
1, 245250, Note_off_c, 0, 42, 64
1, 245258, Note_off_c, 0, 58, 64
1, 245322, Note_off_c, 0, 63, 64
1, 245908, Note_on_c, 0, 82, 32
1, 245920, Note_on_c, 0, 58, 15
1, 245926, Note_on_c, 0, 70, 15
1, 246038, Note_off_c, 0, 70, 64
1, 246050, Note_off_c, 0, 58, 64
1, 246188, Note_off_c, 0, 82, 64
1, 246778, Note_on_c, 0, 77, 36
1, 246790, Note_on_c, 0, 65, 9
1, 246812, Note_on_c, 0, 53, 36
1, 246872, Note_off_c, 0, 53, 64
1, 246878, Note_off_c, 0, 65, 64
1, 246906, Note_off_c, 0, 77, 64
1, 247670, Note_on_c, 0, 61, 37
1, 247673, Note_on_c, 0, 49, 22
1, 247673, Note_on_c, 0, 56, 28
1, 247676, Note_on_c, 0, 34, 23
1, 247682, Note_on_c, 0, 39, 21
1, 247692, Note_on_c, 0, 27, 17
1, 247768, Control_c, 0, 64, 0
1, 247940, Note_off_c, 0, 49, 64
1, 247952, Control_c, 0, 64, 127
1, 247972, Note_off_c, 0, 27, 64
1, 248002, Note_off_c, 0, 34, 64
1, 248044, Note_off_c, 0, 39, 64
1, 248049, Note_off_c, 0, 56, 64
1, 248082, Note_off_c, 0, 61, 64
1, 248730, Note_on_c, 0, 94, 27
1, 248742, Note_on_c, 0, 82, 17
1, 248754, Note_on_c, 0, 70, 10
1, 248898, Note_off_c, 0, 70, 64
1, 248900, Note_off_c, 0, 82, 64
1, 249018, Note_off_c, 0, 94, 64
1, 249692, Note_on_c, 0, 89, 19
1, 249712, Note_on_c, 0, 65, 10
1, 249814, Note_off_c, 0, 65, 64
1, 249854, Note_off_c, 0, 89, 64
1, 250548, Note_on_c, 0, 58, 8
1, 250550, Note_on_c, 0, 63, 36
1, 250551, Note_on_c, 0, 37, 13
1, 250551, Note_on_c, 0, 51, 21
1, 250551, Note_on_c, 0, 42, 19
1, 250551, Note_on_c, 0, 30, 15
1, 250656, Control_c, 0, 64, 0
1, 250826, Control_c, 0, 64, 127
1, 250832, Note_off_c, 0, 30, 64
1, 250836, Note_off_c, 0, 51, 64
1, 250868, Note_off_c, 0, 37, 64
1, 250874, Note_off_c, 0, 42, 64
1, 250920, Note_off_c, 0, 58, 64
1, 250980, Note_off_c, 0, 63, 64
1, 251376, Note_on_c, 0, 82, 27
1, 251394, Note_on_c, 0, 70, 18
1, 251396, Note_on_c, 0, 58, 17
1, 251494, Note_off_c, 0, 70, 64
1, 251564, Note_off_c, 0, 58, 64
1, 251774, Note_off_c, 0, 82, 64
1, 252324, Note_on_c, 0, 65, 22
1, 252340, Note_on_c, 0, 77, 27
1, 252352, Note_on_c, 0, 53, 35
1, 252430, Note_off_c, 0, 65, 64
1, 252478, Note_off_c, 0, 53, 64
1, 252604, Note_off_c, 0, 77, 64
1, 253524, Note_on_c, 0, 56, 24
1, 253534, Note_on_c, 0, 49, 20
1, 253542, Note_on_c, 0, 39, 15
1, 253544, Note_on_c, 0, 61, 26
1, 253548, Note_on_c, 0, 27, 21
1, 253556, Note_on_c, 0, 34, 24
1, 253652, Control_c, 0, 64, 0
1, 253884, Control_c, 0, 64, 127
1, 253922, Note_off_c, 0, 49, 64
1, 253926, Note_off_c, 0, 27, 64
1, 253944, Note_off_c, 0, 34, 64
1, 253970, Note_off_c, 0, 39, 64
1, 254030, Note_off_c, 0, 56, 64
1, 254078, Note_off_c, 0, 61, 64
1, 254648, Note_on_c, 0, 94, 30
1, 254656, Note_on_c, 0, 82, 32
1, 254666, Note_on_c, 0, 70, 21
1, 254736, Note_off_c, 0, 82, 64
1, 254812, Note_off_c, 0, 70, 64
1, 255068, Note_off_c, 0, 94, 64
1, 255858, Note_on_c, 0, 89, 25
1, 255870, Note_on_c, 0, 77, 11
1, 255886, Note_on_c, 0, 65, 13
1, 255970, Note_off_c, 0, 77, 64
1, 255992, Note_off_c, 0, 65, 64
1, 256046, Note_off_c, 0, 89, 64
1, 257734, Note_on_c, 0, 63, 35
1, 257736, Note_on_c, 0, 32, 15
1, 257740, Note_on_c, 0, 37, 18
1, 257742, Note_on_c, 0, 25, 15
1, 257756, Note_on_c, 0, 51, 15
1, 257756, Note_on_c, 0, 56, 17
1, 258016, Control_c, 0, 64, 0
1, 258216, Control_c, 0, 64, 127
1, 258302, Note_off_c, 0, 25, 64
1, 258320, Note_off_c, 0, 51, 64
1, 258340, Note_off_c, 0, 32, 64
1, 258350, Note_off_c, 0, 37, 64
1, 258408, Note_off_c, 0, 56, 64
1, 258470, Note_off_c, 0, 63, 64
1, 259128, Note_on_c, 0, 70, 31
1, 259132, Note_on_c, 0, 94, 33
1, 259144, Note_on_c, 0, 82, 19
1, 259208, Note_off_c, 0, 70, 64
1, 259228, Note_off_c, 0, 82, 64
1, 259930, Note_off_c, 0, 94, 64
1, 262300, Note_on_c, 0, 56, 17
1, 262448, Note_on_c, 0, 68, 19
1, 262582, Note_on_c, 0, 53, 43
1, 262778, Note_on_c, 0, 65, 42
1, 262824, Control_c, 0, 64, 0
1, 263072, Control_c, 0, 64, 127
1, 263134, Note_off_c, 0, 53, 64
1, 263136, Note_off_c, 0, 68, 64
1, 263196, Note_off_c, 0, 56, 64
1, 263270, Note_off_c, 0, 65, 64
1, 264884, Note_on_c, 0, 104, 29
1, 264894, Note_on_c, 0, 25, 19
1, 264904, Note_on_c, 0, 92, 17
1, 271616, Note_off_c, 0, 92, 64
1, 271674, Note_off_c, 0, 104, 64
1, 271760, Note_off_c, 0, 25, 64
1, 274560, Control_c, 0, 64, 0
1, 274560, End_track
0, 0, End_of_file
