0, 0, Header, 0, 1, 384
1, 0, Start_track
1, 0, Tempo, 512820
1, 0, Title_t, "Suite bergamasquPassepied"
1, 0, Program_c, 0, 0
1, 0, Control_c, 0, 7, 100
1, 3, Control_c, 0, 91, 127
1, 3, Control_c, 0, 64, 0
1, 3, Control_c, 0, 91, 127
1, 6, Program_c, 0, 0
1, 6, Control_c, 0, 7, 100
1, 6, Control_c, 0, 91, 127
1, 748, Note_on_c, 0, 42, 52
1, 798, Note_on_c, 0, 42, 0
1, 880, Note_on_c, 0, 49, 44
1, 928, Note_on_c, 0, 49, 0
1, 1009, Note_on_c, 0, 57, 47
1, 1057, Note_on_c, 0, 57, 0
1, 1138, Note_on_c, 0, 49, 46
1, 1186, Note_on_c, 0, 49, 0
1, 1268, Note_on_c, 0, 44, 57
1, 1317, Note_on_c, 0, 44, 0
1, 1398, Note_on_c, 0, 49, 47
1, 1446, Note_on_c, 0, 49, 0
1, 1525, Note_on_c, 0, 59, 52
1, 1572, Note_on_c, 0, 59, 0
1, 1652, Note_on_c, 0, 49, 49
1, 1700, Note_on_c, 0, 49, 0
1, 1781, Note_on_c, 0, 45, 59
1, 1830, Note_on_c, 0, 45, 0
1, 1911, Note_on_c, 0, 54, 54
1, 1958, Note_on_c, 0, 54, 0
1, 2037, Note_on_c, 0, 61, 59
1, 2085, Note_on_c, 0, 61, 0
1, 2164, Note_on_c, 0, 54, 54
1, 2212, Note_on_c, 0, 54, 0
1, 2292, Note_on_c, 0, 47, 59
1, 2341, Note_on_c, 0, 47, 0
1, 2421, Note_on_c, 0, 54, 52
1, 2468, Note_on_c, 0, 54, 0
1, 2548, Note_on_c, 0, 62, 55
1, 2595, Note_on_c, 0, 62, 0
1, 2674, Note_on_c, 0, 54, 52
1, 2722, Note_on_c, 0, 54, 0
1, 2803, Note_on_c, 0, 66, 73
1, 2803, Note_on_c, 0, 42, 62
1, 2853, Note_on_c, 0, 42, 0
1, 2935, Note_on_c, 0, 49, 49
1, 2985, Note_on_c, 0, 49, 0
1, 3002, Note_on_c, 0, 66, 0
1, 3068, Note_on_c, 0, 73, 73
1, 3068, Note_on_c, 0, 57, 55
1, 3117, Note_on_c, 0, 57, 0
1, 3198, Note_on_c, 0, 73, 0
1, 3198, Note_on_c, 0, 49, 49
1, 3247, Note_on_c, 0, 49, 0
1, 3329, Note_on_c, 0, 71, 74
1, 3329, Note_on_c, 0, 44, 62
1, 3379, Note_on_c, 0, 44, 0
1, 3462, Note_on_c, 0, 49, 49
1, 3510, Note_on_c, 0, 49, 0
1, 3590, Note_on_c, 0, 59, 57
1, 3639, Note_on_c, 0, 59, 0
1, 3719, Note_on_c, 0, 49, 49
1, 3768, Note_on_c, 0, 49, 0
1, 3849, Note_on_c, 0, 45, 62
1, 3898, Note_on_c, 0, 45, 0
1, 3980, Note_on_c, 0, 54, 48
1, 4028, Note_on_c, 0, 54, 0
1, 4108, Note_on_c, 0, 71, 0
1, 4108, Note_on_c, 0, 69, 71
1, 4108, Note_on_c, 0, 61, 53
1, 4157, Note_on_c, 0, 61, 0
1, 4205, Note_on_c, 0, 69, 0
1, 4237, Note_on_c, 0, 68, 71
1, 4237, Note_on_c, 0, 54, 47
1, 4286, Note_on_c, 0, 54, 0
1, 4334, Note_on_c, 0, 68, 0
1, 4366, Note_on_c, 0, 66, 74
1, 4366, Note_on_c, 0, 47, 58
1, 4416, Note_on_c, 0, 47, 0
1, 4497, Note_on_c, 0, 54, 47
1, 4546, Note_on_c, 0, 54, 0
1, 4584, Note_on_c, 0, 66, 0
1, 4627, Note_on_c, 0, 64, 71
1, 4627, Note_on_c, 0, 62, 49
1, 4675, Note_on_c, 0, 62, 0
1, 4724, Note_on_c, 0, 64, 0
1, 4756, Note_on_c, 0, 62, 70
1, 4756, Note_on_c, 0, 54, 46
1, 4805, Note_on_c, 0, 54, 0
1, 4854, Note_on_c, 0, 62, 0
1, 4887, Note_on_c, 0, 61, 74
1, 4887, Note_on_c, 0, 42, 55
1, 4935, Note_on_c, 0, 42, 0
1, 5017, Note_on_c, 0, 49, 46
1, 5065, Note_on_c, 0, 49, 0
1, 5141, Note_on_c, 0, 61, 0
1, 5146, Note_on_c, 0, 62, 70
1, 5146, Note_on_c, 0, 57, 50
1, 5195, Note_on_c, 0, 57, 0
1, 5276, Note_on_c, 0, 62, 0
1, 5276, Note_on_c, 0, 64, 70
1, 5276, Note_on_c, 0, 49, 47
1, 5324, Note_on_c, 0, 49, 0
1, 5405, Note_on_c, 0, 64, 0
1, 5405, Note_on_c, 0, 66, 75
1, 5405, Note_on_c, 0, 45, 58
1, 5454, Note_on_c, 0, 45, 0
1, 5536, Note_on_c, 0, 54, 47
1, 5584, Note_on_c, 0, 54, 0
1, 5665, Note_on_c, 0, 66, 0
1, 5665, Note_on_c, 0, 69, 73
1, 5665, Note_on_c, 0, 61, 53
1, 5713, Note_on_c, 0, 61, 0
1, 5794, Note_on_c, 0, 54, 48
1, 5844, Note_on_c, 0, 54, 0
1, 5928, Note_on_c, 0, 69, 0
1, 5928, Note_on_c, 0, 68, 75
1, 5928, Note_on_c, 0, 49, 62
1, 5977, Note_on_c, 0, 49, 0
1, 6058, Note_on_c, 0, 56, 49
1, 6106, Note_on_c, 0, 56, 0
1, 6187, Note_on_c, 0, 64, 55
1, 6235, Note_on_c, 0, 64, 0
1, 6314, Note_on_c, 0, 56, 49
1, 6363, Note_on_c, 0, 56, 0
1, 6443, Note_on_c, 0, 47, 58
1, 6491, Note_on_c, 0, 47, 0
1, 6571, Note_on_c, 0, 56, 47
1, 6619, Note_on_c, 0, 56, 0
1, 6698, Note_on_c, 0, 61, 54
1, 6746, Note_on_c, 0, 61, 0
1, 6825, Note_on_c, 0, 56, 48
1, 6873, Note_on_c, 0, 56, 0
1, 6953, Note_on_c, 0, 45, 59
1, 7001, Note_on_c, 0, 45, 0
1, 7070, Note_on_c, 0, 68, 0
1, 7080, Note_on_c, 0, 66, 66
1, 7080, Note_on_c, 0, 54, 53
1, 7128, Note_on_c, 0, 54, 0
1, 7175, Note_on_c, 0, 66, 0
1, 7207, Note_on_c, 0, 68, 66
1, 7207, Note_on_c, 0, 61, 53
1, 7254, Note_on_c, 0, 61, 0
1, 7301, Note_on_c, 0, 68, 0
1, 7333, Note_on_c, 0, 69, 66
1, 7333, Note_on_c, 0, 54, 53
1, 7381, Note_on_c, 0, 54, 0
1, 7430, Note_on_c, 0, 69, 0
1, 7462, Note_on_c, 0, 66, 73
1, 7462, Note_on_c, 0, 71, 73
1, 7462, Note_on_c, 0, 44, 58
1, 7510, Note_on_c, 0, 44, 0
1, 7589, Note_on_c, 0, 49, 53
1, 7637, Note_on_c, 0, 49, 0
1, 7716, Note_on_c, 0, 66, 0
1, 7716, Note_on_c, 0, 65, 66
1, 7716, Note_on_c, 0, 59, 53
1, 7764, Note_on_c, 0, 59, 0
1, 7844, Note_on_c, 0, 49, 53
1, 7892, Note_on_c, 0, 49, 0
1, 7972, Note_on_c, 0, 65, 0
1, 7972, Note_on_c, 0, 61, 66
1, 7972, Note_on_c, 0, 42, 60
1, 8020, Note_on_c, 0, 42, 0
1, 8088, Note_on_c, 0, 71, 0
1, 8098, Note_on_c, 0, 69, 69
1, 8098, Note_on_c, 0, 49, 55
1, 8146, Note_on_c, 0, 49, 0
1, 8224, Note_on_c, 0, 69, 0
1, 8224, Note_on_c, 0, 61, 0
1, 8224, Note_on_c, 0, 71, 69
1, 8227, Note_on_c, 0, 57, 55
1, 8271, Note_on_c, 0, 57, 0
1, 8348, Note_on_c, 0, 71, 0
1, 8348, Note_on_c, 0, 73, 69
1, 8348, Note_on_c, 0, 49, 57
1, 8396, Note_on_c, 0, 49, 0
1, 8476, Note_on_c, 0, 73, 0
1, 8476, Note_on_c, 0, 74, 74
1, 8476, Note_on_c, 0, 69, 74
1, 8479, Note_on_c, 0, 47, 63
1, 8524, Note_on_c, 0, 47, 0
1, 8604, Note_on_c, 0, 52, 60
1, 8652, Note_on_c, 0, 52, 0
1, 8731, Note_on_c, 0, 69, 0
1, 8731, Note_on_c, 0, 68, 66
1, 8731, Note_on_c, 0, 62, 60
1, 8779, Note_on_c, 0, 62, 0
1, 8859, Note_on_c, 0, 52, 60
1, 8907, Note_on_c, 0, 52, 0
1, 8987, Note_on_c, 0, 68, 0
1, 8987, Note_on_c, 0, 64, 66
1, 8987, Note_on_c, 0, 45, 63
1, 9035, Note_on_c, 0, 45, 0
1, 9105, Note_on_c, 0, 74, 0
1, 9115, Note_on_c, 0, 73, 70
1, 9115, Note_on_c, 0, 52, 62
1, 9134, Control_c, 0, 64, 127
1, 9164, Note_on_c, 0, 52, 0
1, 9246, Note_on_c, 0, 73, 0
1, 9246, Note_on_c, 0, 64, 0
1, 9246, Note_on_c, 0, 74, 73
1, 9249, Note_on_c, 0, 57, 62
1, 9296, Note_on_c, 0, 57, 0
1, 9380, Note_on_c, 0, 74, 0
1, 9380, Note_on_c, 0, 76, 75
1, 9380, Note_on_c, 0, 61, 62
1, 9432, Note_on_c, 0, 61, 0
1, 9519, Note_on_c, 0, 76, 0
1, 9519, Note_on_c, 0, 74, 73
1, 9519, Note_on_c, 0, 78, 73
1, 9522, Note_on_c, 0, 50, 62
1, 9561, Control_c, 0, 64, 0
1, 9567, Note_on_c, 0, 50, 0
1, 9648, Note_on_c, 0, 57, 53
1, 9695, Note_on_c, 0, 57, 0
1, 9774, Note_on_c, 0, 62, 52
1, 9822, Note_on_c, 0, 62, 0
1, 9901, Note_on_c, 0, 66, 52
1, 9949, Note_on_c, 0, 66, 0
1, 10028, Note_on_c, 0, 57, 57
1, 10077, Note_on_c, 0, 57, 0
1, 10158, Note_on_c, 0, 62, 50
1, 10205, Note_on_c, 0, 62, 0
1, 10285, Note_on_c, 0, 74, 0
1, 10285, Note_on_c, 0, 66, 50
1, 10332, Note_on_c, 0, 66, 0
1, 10412, Note_on_c, 0, 69, 50
1, 10475, Note_on_c, 0, 69, 0
1, 10538, Note_on_c, 0, 78, 0
1, 10538, Note_on_c, 0, 66, 74
1, 10665, Note_on_c, 0, 62, 50
1, 10729, Note_on_c, 0, 62, 0
1, 10792, Note_on_c, 0, 61, 49
1, 10856, Note_on_c, 0, 61, 0
1, 10919, Note_on_c, 0, 59, 49
1, 10983, Note_on_c, 0, 59, 0
1, 11046, Note_on_c, 0, 57, 62
1, 11096, Note_on_c, 0, 57, 0
1, 11178, Note_on_c, 0, 61, 49
1, 11227, Note_on_c, 0, 61, 0
1, 11243, Note_on_c, 0, 66, 0
1, 11308, Note_on_c, 0, 73, 70
1, 11308, Note_on_c, 0, 57, 55
1, 11358, Note_on_c, 0, 57, 0
1, 11375, Note_on_c, 0, 73, 0
1, 11442, Note_on_c, 0, 54, 49
1, 11492, Note_on_c, 0, 54, 0
1, 11576, Note_on_c, 0, 71, 74
1, 11576, Note_on_c, 0, 56, 62
1, 11625, Note_on_c, 0, 56, 0
1, 11706, Note_on_c, 0, 59, 49
1, 11754, Note_on_c, 0, 59, 0
1, 11833, Note_on_c, 0, 64, 57
1, 11881, Note_on_c, 0, 64, 0
1, 11960, Note_on_c, 0, 54, 49
1, 12009, Note_on_c, 0, 54, 0
1, 12089, Note_on_c, 0, 52, 62
1, 12137, Note_on_c, 0, 52, 0
1, 12218, Note_on_c, 0, 59, 48
1, 12265, Note_on_c, 0, 59, 0
1, 12345, Note_on_c, 0, 71, 0
1, 12345, Note_on_c, 0, 69, 71
1, 12345, Note_on_c, 0, 64, 53
1, 12392, Note_on_c, 0, 64, 0
1, 12439, Note_on_c, 0, 69, 0
1, 12470, Note_on_c, 0, 68, 71
1, 12470, Note_on_c, 0, 59, 47
1, 12518, Note_on_c, 0, 59, 0
1, 12566, Note_on_c, 0, 68, 0
1, 12598, Note_on_c, 0, 66, 74
1, 12598, Note_on_c, 0, 47, 58
1, 12647, Note_on_c, 0, 47, 0
1, 12727, Note_on_c, 0, 56, 47
1, 12775, Note_on_c, 0, 56, 0
1, 12813, Note_on_c, 0, 66, 0
1, 12855, Note_on_c, 0, 64, 71
1, 12855, Note_on_c, 0, 62, 49
1, 12903, Note_on_c, 0, 62, 0
1, 12950, Note_on_c, 0, 64, 0
1, 12982, Note_on_c, 0, 62, 70
1, 12982, Note_on_c, 0, 52, 46
1, 13030, Note_on_c, 0, 52, 0
1, 13078, Note_on_c, 0, 62, 0
1, 13110, Note_on_c, 0, 45, 55
1, 13160, Note_on_c, 0, 45, 0
1, 13241, Note_on_c, 0, 61, 74
1, 13241, Note_on_c, 0, 52, 46
1, 13289, Note_on_c, 0, 52, 0
1, 13369, Note_on_c, 0, 61, 0
1, 13369, Note_on_c, 0, 62, 70
1, 13369, Note_on_c, 0, 57, 50
1, 13417, Note_on_c, 0, 57, 0
1, 13496, Note_on_c, 0, 62, 0
1, 13496, Note_on_c, 0, 64, 70
1, 13496, Note_on_c, 0, 52, 47
1, 13544, Note_on_c, 0, 52, 0
1, 13624, Note_on_c, 0, 64, 0
1, 13624, Note_on_c, 0, 66, 75
1, 13624, Note_on_c, 0, 50, 58
1, 13672, Note_on_c, 0, 50, 0
1, 13752, Note_on_c, 0, 57, 47
1, 13800, Note_on_c, 0, 57, 0
1, 13880, Note_on_c, 0, 66, 0
1, 13880, Note_on_c, 0, 69, 73
1, 13880, Note_on_c, 0, 62, 53
1, 13927, Note_on_c, 0, 62, 0
1, 14007, Note_on_c, 0, 49, 48
1, 14057, Note_on_c, 0, 49, 0
1, 14139, Note_on_c, 0, 69, 0
1, 14139, Note_on_c, 0, 66, 75
1, 14139, Note_on_c, 0, 68, 75
1, 14142, Note_on_c, 0, 48, 62
1, 14188, Note_on_c, 0, 48, 0
1, 14269, Note_on_c, 0, 56, 49
1, 14316, Note_on_c, 0, 56, 0
1, 14396, Note_on_c, 0, 63, 55
1, 14443, Note_on_c, 0, 63, 0
1, 14521, Note_on_c, 0, 56, 49
1, 14569, Note_on_c, 0, 56, 0
1, 14647, Note_on_c, 0, 48, 58
1, 14695, Note_on_c, 0, 48, 0
1, 14776, Note_on_c, 0, 56, 47
1, 14823, Note_on_c, 0, 56, 0
1, 14903, Note_on_c, 0, 63, 54
1, 14950, Note_on_c, 0, 63, 0
1, 15028, Note_on_c, 0, 56, 48
1, 15075, Note_on_c, 0, 56, 0
1, 15153, Note_on_c, 0, 48, 62
1, 15201, Note_on_c, 0, 48, 0
1, 15281, Note_on_c, 0, 56, 49
1, 15329, Note_on_c, 0, 56, 0
1, 15407, Note_on_c, 0, 63, 55
1, 15454, Note_on_c, 0, 63, 0
1, 15533, Note_on_c, 0, 56, 49
1, 15580, Note_on_c, 0, 56, 0
1, 15658, Note_on_c, 0, 68, 0
1, 15658, Note_on_c, 0, 66, 0
1, 15658, Note_on_c, 0, 66, 74
1, 15661, Note_on_c, 0, 69, 74
1, 15661, Note_on_c, 0, 49, 62
1, 15692, Control_c, 0, 64, 127
1, 15706, Note_on_c, 0, 49, 0
1, 15786, Note_on_c, 0, 57, 57
1, 15833, Note_on_c, 0, 57, 0
1, 15912, Note_on_c, 0, 69, 0
1, 15912, Note_on_c, 0, 66, 0
1, 15912, Note_on_c, 0, 76, 73
1, 15915, Note_on_c, 0, 80, 73
1, 15915, Note_on_c, 0, 64, 62
1, 15952, Control_c, 0, 64, 0
1, 15961, Note_on_c, 0, 64, 0
1, 15977, Note_on_c, 0, 80, 0
1, 15977, Note_on_c, 0, 76, 0
1, 16042, Note_on_c, 0, 57, 59
1, 16091, Note_on_c, 0, 57, 0
1, 16172, Note_on_c, 0, 66, 71
1, 16172, Note_on_c, 0, 68, 71
1, 16172, Note_on_c, 0, 48, 62
1, 16220, Note_on_c, 0, 48, 0
1, 16300, Note_on_c, 0, 56, 49
1, 16347, Note_on_c, 0, 56, 0
1, 16426, Note_on_c, 0, 63, 55
1, 16474, Note_on_c, 0, 63, 0
1, 16553, Note_on_c, 0, 56, 49
1, 16600, Note_on_c, 0, 56, 0
1, 16679, Note_on_c, 0, 68, 0
1, 16679, Note_on_c, 0, 66, 0
1, 16679, Note_on_c, 0, 66, 65
1, 16682, Note_on_c, 0, 62, 65
1, 16682, Note_on_c, 0, 47, 62
1, 16697, Control_c, 0, 64, 127
1, 16727, Note_on_c, 0, 47, 0
1, 16807, Note_on_c, 0, 52, 57
1, 16854, Note_on_c, 0, 52, 0
1, 16933, Note_on_c, 0, 62, 0
1, 16933, Note_on_c, 0, 66, 0
1, 16933, Note_on_c, 0, 76, 69
1, 16936, Note_on_c, 0, 73, 69
1, 16936, Note_on_c, 0, 56, 62
1, 16936, Note_on_c, 0, 62, 62
1, 16942, Control_c, 0, 64, 0
1, 16982, Note_on_c, 0, 62, 0
1, 16982, Note_on_c, 0, 56, 0
1, 16998, Note_on_c, 0, 73, 0
1, 16998, Note_on_c, 0, 76, 0
1, 17063, Note_on_c, 0, 52, 59
1, 17112, Note_on_c, 0, 52, 0
1, 17193, Note_on_c, 0, 61, 66
1, 17193, Note_on_c, 0, 64, 66
1, 17193, Note_on_c, 0, 45, 62
1, 17241, Note_on_c, 0, 45, 0
1, 17321, Note_on_c, 0, 52, 53
1, 17369, Note_on_c, 0, 52, 0
1, 17448, Note_on_c, 0, 61, 58
1, 17495, Note_on_c, 0, 61, 0
1, 17574, Note_on_c, 0, 52, 54
1, 17621, Note_on_c, 0, 52, 0
1, 17700, Note_on_c, 0, 64, 0
1, 17700, Note_on_c, 0, 61, 0
1, 17700, Note_on_c, 0, 59, 73
1, 17703, Note_on_c, 0, 63, 73
1, 17703, Note_on_c, 0, 42, 62
1, 17717, Control_c, 0, 64, 127
1, 17748, Note_on_c, 0, 42, 0
1, 17828, Note_on_c, 0, 47, 57
1, 17875, Note_on_c, 0, 47, 0
1, 17954, Note_on_c, 0, 63, 0
1, 17954, Note_on_c, 0, 59, 0
1, 17954, Note_on_c, 0, 69, 76
1, 17957, Note_on_c, 0, 73, 76
1, 17957, Note_on_c, 0, 57, 62
1, 17966, Control_c, 0, 64, 0
1, 18003, Note_on_c, 0, 57, 0
1, 18035, Note_on_c, 0, 73, 0
1, 18035, Note_on_c, 0, 69, 0
1, 18084, Note_on_c, 0, 47, 59
1, 18133, Note_on_c, 0, 47, 0
1, 18214, Note_on_c, 0, 61, 76
1, 18214, Note_on_c, 0, 56, 76
1, 18214, Note_on_c, 0, 37, 73
1, 18262, Note_on_c, 0, 37, 0
1, 18342, Note_on_c, 0, 44, 64
1, 18390, Note_on_c, 0, 44, 0
1, 18469, Note_on_c, 0, 53, 68
1, 18516, Note_on_c, 0, 53, 0
1, 18595, Note_on_c, 0, 44, 64
1, 18643, Note_on_c, 0, 44, 0
1, 18721, Note_on_c, 0, 37, 73
1, 18769, Note_on_c, 0, 37, 0
1, 18849, Note_on_c, 0, 44, 64
1, 18897, Note_on_c, 0, 44, 0
1, 18976, Note_on_c, 0, 53, 68
1, 19023, Note_on_c, 0, 53, 0
1, 19102, Note_on_c, 0, 44, 64
1, 19149, Note_on_c, 0, 44, 0
1, 19228, Note_on_c, 0, 37, 68
1, 19277, Note_on_c, 0, 37, 0
1, 19357, Note_on_c, 0, 44, 62
1, 19404, Note_on_c, 0, 44, 0
1, 19483, Note_on_c, 0, 53, 65
1, 19530, Note_on_c, 0, 53, 0
1, 19609, Note_on_c, 0, 44, 62
1, 19661, Note_on_c, 0, 44, 0
1, 19735, Note_on_c, 0, 56, 0
1, 19735, Note_on_c, 0, 61, 0
1, 19746, Note_on_c, 0, 59, 57
1, 19746, Note_on_c, 0, 62, 57
1, 19746, Note_on_c, 0, 47, 52
1, 19752, Control_c, 0, 64, 127
1, 19795, Note_on_c, 0, 47, 0
1, 19875, Note_on_c, 0, 54, 48
1, 19923, Note_on_c, 0, 54, 0
1, 20004, Note_on_c, 0, 62, 0
1, 20004, Note_on_c, 0, 59, 0
1, 20004, Note_on_c, 0, 69, 58
1, 20007, Note_on_c, 0, 66, 58
1, 20007, Note_on_c, 0, 57, 50
1, 20055, Note_on_c, 0, 57, 0
1, 20139, Note_on_c, 0, 61, 48
1, 20189, Note_on_c, 0, 61, 0
1, 20232, Control_c, 0, 64, 0
1, 20274, Note_on_c, 0, 66, 0
1, 20274, Note_on_c, 0, 69, 0
1, 20274, Note_on_c, 0, 68, 58
1, 20277, Note_on_c, 0, 64, 58
1, 20277, Note_on_c, 0, 52, 50
1, 20324, Note_on_c, 0, 52, 0
1, 20407, Note_on_c, 0, 59, 47
1, 20455, Note_on_c, 0, 59, 0
1, 20536, Note_on_c, 0, 62, 47
1, 20584, Note_on_c, 0, 62, 0
1, 20663, Note_on_c, 0, 59, 47
1, 20711, Note_on_c, 0, 59, 0
1, 20790, Note_on_c, 0, 52, 54
1, 20837, Note_on_c, 0, 52, 0
1, 20916, Note_on_c, 0, 64, 0
1, 20916, Note_on_c, 0, 68, 0
1, 20916, Note_on_c, 0, 69, 53
1, 20919, Note_on_c, 0, 66, 53
1, 20919, Note_on_c, 0, 59, 49
1, 20964, Note_on_c, 0, 59, 0
1, 21042, Note_on_c, 0, 66, 0
1, 21042, Note_on_c, 0, 69, 0
1, 21042, Note_on_c, 0, 71, 59
1, 21045, Note_on_c, 0, 68, 59
1, 21045, Note_on_c, 0, 52, 50
1, 21092, Note_on_c, 0, 52, 0
1, 21174, Note_on_c, 0, 47, 48
1, 21224, Note_on_c, 0, 47, 0
1, 21306, Note_on_c, 0, 40, 50
1, 21356, Note_on_c, 0, 40, 0
1, 21439, Note_on_c, 0, 47, 47
1, 21488, Note_on_c, 0, 47, 0
1, 21571, Note_on_c, 0, 68, 0
1, 21571, Note_on_c, 0, 71, 0
1, 21571, Note_on_c, 0, 73, 55
1, 21574, Note_on_c, 0, 69, 55
1, 21574, Note_on_c, 0, 52, 47
1, 21621, Note_on_c, 0, 52, 0
1, 21704, Note_on_c, 0, 56, 47
1, 21754, Note_on_c, 0, 56, 0
1, 21826, Note_on_c, 0, 69, 0
1, 21826, Note_on_c, 0, 73, 0
1, 21837, Note_on_c, 0, 59, 57
1, 21837, Note_on_c, 0, 62, 57
1, 21837, Note_on_c, 0, 47, 50
1, 21849, Control_c, 0, 64, 127
1, 21886, Note_on_c, 0, 47, 0
1, 21968, Note_on_c, 0, 54, 47
1, 22017, Note_on_c, 0, 54, 0
1, 22099, Note_on_c, 0, 62, 0
1, 22099, Note_on_c, 0, 59, 0
1, 22099, Note_on_c, 0, 69, 59
1, 22102, Note_on_c, 0, 66, 59
1, 22102, Note_on_c, 0, 57, 47
1, 22149, Note_on_c, 0, 57, 0
1, 22234, Note_on_c, 0, 61, 47
1, 22285, Note_on_c, 0, 61, 0
1, 22325, Control_c, 0, 64, 0
1, 22369, Note_on_c, 0, 66, 0
1, 22369, Note_on_c, 0, 69, 0
1, 22369, Note_on_c, 0, 68, 58
1, 22372, Note_on_c, 0, 64, 58
1, 22372, Note_on_c, 0, 52, 52
1, 22419, Note_on_c, 0, 52, 0
1, 22503, Note_on_c, 0, 59, 47
1, 22551, Note_on_c, 0, 59, 0
1, 22631, Note_on_c, 0, 62, 47
1, 22679, Note_on_c, 0, 62, 0
1, 22759, Note_on_c, 0, 59, 47
1, 22807, Note_on_c, 0, 59, 0
1, 22886, Note_on_c, 0, 52, 55
1, 22933, Note_on_c, 0, 52, 0
1, 23012, Note_on_c, 0, 64, 0
1, 23012, Note_on_c, 0, 68, 0
1, 23012, Note_on_c, 0, 69, 57
1, 23015, Note_on_c, 0, 66, 57
1, 23015, Note_on_c, 0, 59, 50
1, 23059, Note_on_c, 0, 59, 0
1, 23138, Note_on_c, 0, 66, 0
1, 23138, Note_on_c, 0, 69, 0
1, 23138, Note_on_c, 0, 71, 62
1, 23141, Note_on_c, 0, 68, 62
1, 23141, Note_on_c, 0, 52, 50
1, 23187, Note_on_c, 0, 52, 0
1, 23269, Note_on_c, 0, 47, 50
1, 23319, Note_on_c, 0, 47, 0
1, 23401, Note_on_c, 0, 40, 60
1, 23450, Note_on_c, 0, 40, 0
1, 23533, Note_on_c, 0, 47, 52
1, 23582, Note_on_c, 0, 47, 0
1, 23654, Note_on_c, 0, 68, 0
1, 23654, Note_on_c, 0, 71, 0
1, 23665, Note_on_c, 0, 68, 68
1, 23665, Note_on_c, 0, 64, 68
1, 23665, Note_on_c, 0, 52, 52
1, 23715, Note_on_c, 0, 52, 0
1, 23798, Note_on_c, 0, 56, 52
1, 23848, Note_on_c, 0, 56, 0
1, 23932, Note_on_c, 0, 64, 0
1, 23932, Note_on_c, 0, 68, 0
1, 23932, Note_on_c, 0, 69, 73
1, 23935, Note_on_c, 0, 66, 73
1, 23935, Note_on_c, 0, 47, 62
1, 23981, Note_on_c, 0, 47, 0
1, 24063, Note_on_c, 0, 52, 53
1, 24113, Note_on_c, 0, 52, 0
1, 24195, Note_on_c, 0, 66, 0
1, 24195, Note_on_c, 0, 69, 0
1, 24195, Note_on_c, 0, 71, 78
1, 24198, Note_on_c, 0, 68, 78
1, 24198, Note_on_c, 0, 62, 53
1, 24244, Note_on_c, 0, 62, 0
1, 24326, Note_on_c, 0, 52, 53
1, 24377, Note_on_c, 0, 52, 0
1, 24461, Note_on_c, 0, 68, 0
1, 24461, Note_on_c, 0, 71, 0
1, 24461, Note_on_c, 0, 71, 50
1, 24464, Note_on_c, 0, 73, 78
1, 24464, Note_on_c, 0, 67, 50
1, 24464, Note_on_c, 0, 45, 57
1, 24512, Note_on_c, 0, 45, 0
1, 24597, Note_on_c, 0, 52, 52
1, 24641, Note_on_c, 0, 73, 0
1, 24641, Note_on_c, 0, 73, 78
1, 24647, Note_on_c, 0, 52, 0
1, 24730, Note_on_c, 0, 57, 52
1, 24781, Note_on_c, 0, 57, 0
1, 24820, Note_on_c, 0, 73, 0
1, 24820, Note_on_c, 0, 76, 74
1, 24864, Note_on_c, 0, 61, 52
1, 24914, Note_on_c, 0, 61, 0
1, 24998, Note_on_c, 0, 76, 0
1, 24998, Note_on_c, 0, 67, 0
1, 24998, Note_on_c, 0, 71, 0
1, 25001, Note_on_c, 0, 66, 50
1, 25001, Note_on_c, 0, 73, 78
1, 25001, Note_on_c, 0, 69, 50
1, 25004, Note_on_c, 0, 50, 55
1, 25049, Note_on_c, 0, 50, 0
1, 25133, Note_on_c, 0, 57, 52
1, 25177, Note_on_c, 0, 73, 0
1, 25177, Note_on_c, 0, 71, 78
1, 25183, Note_on_c, 0, 57, 0
1, 25267, Note_on_c, 0, 62, 52
1, 25317, Note_on_c, 0, 62, 0
1, 25356, Note_on_c, 0, 71, 0
1, 25356, Note_on_c, 0, 73, 74
1, 25400, Note_on_c, 0, 57, 52
1, 25450, Note_on_c, 0, 57, 0
1, 25534, Note_on_c, 0, 73, 0
1, 25534, Note_on_c, 0, 69, 0
1, 25534, Note_on_c, 0, 66, 0
1, 25537, Note_on_c, 0, 69, 74
1, 25537, Note_on_c, 0, 64, 50
1, 25537, Note_on_c, 0, 66, 50
1, 25540, Note_on_c, 0, 54, 55
1, 25584, Note_on_c, 0, 54, 0
1, 25668, Note_on_c, 0, 57, 47
1, 25718, Note_on_c, 0, 57, 0
1, 25801, Note_on_c, 0, 69, 0
1, 25801, Note_on_c, 0, 73, 69
1, 25801, Note_on_c, 0, 61, 48
1, 25851, Note_on_c, 0, 61, 0
1, 25933, Note_on_c, 0, 57, 47
1, 25983, Note_on_c, 0, 57, 0
1, 26065, Note_on_c, 0, 73, 0
1, 26065, Note_on_c, 0, 66, 0
1, 26065, Note_on_c, 0, 64, 0
1, 26068, Note_on_c, 0, 71, 73
1, 26068, Note_on_c, 0, 62, 60
1, 26068, Note_on_c, 0, 69, 60
1, 26071, Note_on_c, 0, 47, 50
1, 26115, Note_on_c, 0, 47, 0
1, 26199, Note_on_c, 0, 54, 44
1, 26249, Note_on_c, 0, 54, 0
1, 26332, Note_on_c, 0, 59, 47
1, 26382, Note_on_c, 0, 59, 0
1, 26466, Note_on_c, 0, 54, 46
1, 26516, Note_on_c, 0, 54, 0
1, 26600, Note_on_c, 0, 69, 0
1, 26600, Note_on_c, 0, 67, 55
1, 26600, Note_on_c, 0, 40, 48
1, 26650, Note_on_c, 0, 40, 0
1, 26733, Note_on_c, 0, 47, 42
1, 26784, Note_on_c, 0, 47, 0
1, 26867, Note_on_c, 0, 71, 0
1, 26867, Note_on_c, 0, 73, 62
1, 26867, Note_on_c, 0, 52, 42
1, 26917, Note_on_c, 0, 52, 0
1, 27000, Note_on_c, 0, 55, 42
1, 27050, Note_on_c, 0, 55, 0
1, 27133, Note_on_c, 0, 73, 0
1, 27133, Note_on_c, 0, 62, 0
1, 27133, Note_on_c, 0, 69, 59
1, 27136, Note_on_c, 0, 62, 50
1, 27136, Note_on_c, 0, 40, 46
1, 27183, Note_on_c, 0, 40, 0
1, 27268, Note_on_c, 0, 45, 42
1, 27318, Note_on_c, 0, 45, 0
1, 27402, Note_on_c, 0, 62, 0
1, 27402, Note_on_c, 0, 59, 47
1, 27402, Note_on_c, 0, 55, 39
1, 27455, Note_on_c, 0, 55, 0
1, 27544, Note_on_c, 0, 45, 39
1, 27597, Note_on_c, 0, 45, 0
1, 27686, Note_on_c, 0, 59, 0
1, 27686, Note_on_c, 0, 69, 0
1, 27686, Note_on_c, 0, 67, 0
1, 27689, Note_on_c, 0, 69, 54
1, 27689, Note_on_c, 0, 61, 66
1, 27689, Note_on_c, 0, 66, 54
1, 27692, Note_on_c, 0, 42, 52
1, 27736, Note_on_c, 0, 42, 0
1, 27821, Note_on_c, 0, 49, 48
1, 27866, Note_on_c, 0, 61, 0
1, 27866, Note_on_c, 0, 62, 65
1, 27872, Note_on_c, 0, 49, 0
1, 27956, Note_on_c, 0, 57, 48
1, 28007, Note_on_c, 0, 57, 0
1, 28046, Note_on_c, 0, 62, 0
1, 28046, Note_on_c, 0, 59, 65
1, 28092, Note_on_c, 0, 54, 48
1, 28144, Note_on_c, 0, 54, 0
1, 28230, Note_on_c, 0, 59, 0
1, 28230, Note_on_c, 0, 61, 69
1, 28230, Note_on_c, 0, 40, 52
1, 28281, Note_on_c, 0, 40, 0
1, 28365, Note_on_c, 0, 45, 48
1, 28410, Note_on_c, 0, 61, 0
1, 28410, Note_on_c, 0, 62, 65
1, 28416, Note_on_c, 0, 45, 0
1, 28500, Note_on_c, 0, 54, 48
1, 28551, Note_on_c, 0, 54, 0
1, 28590, Note_on_c, 0, 62, 0
1, 28590, Note_on_c, 0, 64, 65
1, 28635, Note_on_c, 0, 45, 49
1, 28687, Note_on_c, 0, 45, 0
1, 28773, Note_on_c, 0, 64, 0
1, 28773, Note_on_c, 0, 66, 0
1, 28773, Note_on_c, 0, 66, 69
1, 28776, Note_on_c, 0, 38, 52
1, 28824, Note_on_c, 0, 38, 0
1, 28908, Note_on_c, 0, 45, 48
1, 28953, Note_on_c, 0, 66, 0
1, 28953, Note_on_c, 0, 69, 0
1, 28953, Note_on_c, 0, 68, 65
1, 28958, Note_on_c, 0, 45, 0
1, 29042, Note_on_c, 0, 50, 48
1, 29093, Note_on_c, 0, 50, 0
1, 29132, Note_on_c, 0, 68, 0
1, 29132, Note_on_c, 0, 64, 65
1, 29177, Note_on_c, 0, 54, 48
1, 29228, Note_on_c, 0, 54, 0
1, 29314, Note_on_c, 0, 64, 0
1, 29314, Note_on_c, 0, 66, 68
1, 29314, Note_on_c, 0, 45, 48
1, 29365, Note_on_c, 0, 45, 0
1, 29449, Note_on_c, 0, 50, 46
1, 29493, Note_on_c, 0, 66, 0
1, 29493, Note_on_c, 0, 68, 64
1, 29499, Note_on_c, 0, 50, 0
1, 29583, Note_on_c, 0, 54, 46
1, 29634, Note_on_c, 0, 54, 0
1, 29673, Note_on_c, 0, 68, 0
1, 29673, Note_on_c, 0, 69, 63
1, 29718, Note_on_c, 0, 57, 48
1, 29769, Note_on_c, 0, 57, 0
1, 29855, Note_on_c, 0, 69, 0
1, 29855, Note_on_c, 0, 71, 63
1, 29855, Note_on_c, 0, 50, 47
1, 29905, Note_on_c, 0, 50, 0
1, 29990, Note_on_c, 0, 57, 43
1, 30035, Note_on_c, 0, 71, 0
1, 30035, Note_on_c, 0, 73, 59
1, 30040, Note_on_c, 0, 57, 0
1, 30125, Note_on_c, 0, 62, 43
1, 30176, Note_on_c, 0, 62, 0
1, 30215, Note_on_c, 0, 73, 0
1, 30215, Note_on_c, 0, 69, 59
1, 30260, Note_on_c, 0, 66, 42
1, 30313, Note_on_c, 0, 66, 0
1, 30401, Note_on_c, 0, 69, 0
1, 30401, Note_on_c, 0, 71, 59
1, 30401, Note_on_c, 0, 49, 43
1, 30452, Note_on_c, 0, 49, 0
1, 30539, Note_on_c, 0, 54, 42
1, 30585, Note_on_c, 0, 71, 0
1, 30585, Note_on_c, 0, 73, 55
1, 30591, Note_on_c, 0, 54, 0
1, 30679, Note_on_c, 0, 57, 41
1, 30732, Note_on_c, 0, 57, 0
1, 30774, Note_on_c, 0, 73, 0
1, 30774, Note_on_c, 0, 74, 55
1, 30821, Note_on_c, 0, 62, 39
1, 30875, Note_on_c, 0, 62, 0
1, 30965, Note_on_c, 0, 74, 0
1, 30965, Note_on_c, 0, 74, 64
1, 30965, Note_on_c, 0, 78, 64
1, 30968, Note_on_c, 0, 66, 64
1, 30968, Control_c, 0, 64, 127
1, 30968, Note_on_c, 0, 47, 54
1, 31017, Note_on_c, 0, 47, 0
1, 31103, Note_on_c, 0, 54, 49
1, 31155, Note_on_c, 0, 54, 0
1, 31172, Note_on_c, 0, 66, 0
1, 31172, Note_on_c, 0, 78, 0
1, 31241, Note_on_c, 0, 85, 64
1, 31241, Note_on_c, 0, 73, 64
1, 31241, Note_on_c, 0, 59, 49
1, 31292, Note_on_c, 0, 59, 0
1, 31377, Note_on_c, 0, 73, 0
1, 31377, Note_on_c, 0, 85, 0
1, 31377, Note_on_c, 0, 62, 49
1, 31428, Note_on_c, 0, 62, 0
1, 31512, Note_on_c, 0, 74, 0
1, 31512, Note_on_c, 0, 71, 68
1, 31512, Note_on_c, 0, 77, 68
1, 31515, Note_on_c, 0, 83, 68
1, 31515, Note_on_c, 0, 47, 54
1, 31522, Control_c, 0, 64, 0
1, 31563, Note_on_c, 0, 47, 0
1, 31649, Note_on_c, 0, 53, 49
1, 31698, Note_on_c, 0, 53, 0
1, 31781, Note_on_c, 0, 56, 49
1, 31830, Note_on_c, 0, 56, 0
1, 31912, Note_on_c, 0, 62, 49
1, 31962, Note_on_c, 0, 62, 0
1, 32045, Note_on_c, 0, 77, 0
1, 32045, Note_on_c, 0, 47, 54
1, 32094, Note_on_c, 0, 47, 0
1, 32176, Note_on_c, 0, 54, 48
1, 32224, Note_on_c, 0, 54, 0
1, 32305, Note_on_c, 0, 83, 0
1, 32305, Note_on_c, 0, 71, 0
1, 32305, Note_on_c, 0, 69, 66
1, 32308, Note_on_c, 0, 59, 48
1, 32353, Note_on_c, 0, 59, 0
1, 32401, Note_on_c, 0, 69, 0
1, 32433, Note_on_c, 0, 68, 66
1, 32433, Note_on_c, 0, 62, 48
1, 32482, Note_on_c, 0, 62, 0
1, 32531, Note_on_c, 0, 68, 0
1, 32563, Note_on_c, 0, 66, 69
1, 32563, Note_on_c, 0, 47, 53
1, 32612, Note_on_c, 0, 47, 0
1, 32694, Note_on_c, 0, 54, 47
1, 32742, Note_on_c, 0, 54, 0
1, 32780, Note_on_c, 0, 66, 0
1, 32823, Note_on_c, 0, 64, 66
1, 32823, Note_on_c, 0, 56, 47
1, 32872, Note_on_c, 0, 56, 0
1, 32921, Note_on_c, 0, 64, 0
1, 32953, Note_on_c, 0, 62, 65
1, 32953, Note_on_c, 0, 54, 47
1, 33002, Note_on_c, 0, 54, 0
1, 33051, Note_on_c, 0, 62, 0
1, 33083, Note_on_c, 0, 61, 69
1, 33083, Note_on_c, 0, 45, 55
1, 33133, Note_on_c, 0, 45, 0
1, 33216, Note_on_c, 0, 54, 48
1, 33264, Note_on_c, 0, 54, 0
1, 33340, Note_on_c, 0, 61, 0
1, 33345, Note_on_c, 0, 62, 65
1, 33345, Note_on_c, 0, 57, 48
1, 33394, Note_on_c, 0, 57, 0
1, 33475, Note_on_c, 0, 62, 0
1, 33475, Note_on_c, 0, 64, 65
1, 33475, Note_on_c, 0, 54, 47
1, 33523, Note_on_c, 0, 54, 0
1, 33604, Note_on_c, 0, 64, 0
1, 33604, Note_on_c, 0, 66, 70
1, 33604, Note_on_c, 0, 42, 58
1, 33653, Note_on_c, 0, 42, 0
1, 33734, Note_on_c, 0, 49, 48
1, 33783, Note_on_c, 0, 49, 0
1, 33799, Note_on_c, 0, 66, 0
1, 33863, Note_on_c, 0, 69, 68
1, 33863, Note_on_c, 0, 57, 48
1, 33912, Note_on_c, 0, 57, 0
1, 33992, Note_on_c, 0, 49, 48
1, 34043, Note_on_c, 0, 49, 0
1, 34060, Note_on_c, 0, 69, 0
1, 34127, Note_on_c, 0, 66, 70
1, 34127, Note_on_c, 0, 68, 70
1, 34127, Note_on_c, 0, 48, 57
1, 34176, Note_on_c, 0, 48, 0
1, 34258, Note_on_c, 0, 54, 48
1, 34306, Note_on_c, 0, 54, 0
1, 34386, Note_on_c, 0, 63, 53
1, 34435, Note_on_c, 0, 63, 0
1, 34515, Note_on_c, 0, 54, 48
1, 34563, Note_on_c, 0, 54, 0
1, 34644, Note_on_c, 0, 49, 55
1, 34693, Note_on_c, 0, 49, 0
1, 34776, Note_on_c, 0, 54, 50
1, 34824, Note_on_c, 0, 54, 0
1, 34904, Note_on_c, 0, 64, 57
1, 34952, Note_on_c, 0, 64, 0
1, 35032, Note_on_c, 0, 54, 52
1, 35080, Note_on_c, 0, 54, 0
1, 35160, Note_on_c, 0, 51, 59
1, 35207, Note_on_c, 0, 51, 0
1, 35277, Note_on_c, 0, 68, 0
1, 35287, Note_on_c, 0, 66, 68
1, 35287, Note_on_c, 0, 54, 54
1, 35336, Note_on_c, 0, 54, 0
1, 35416, Note_on_c, 0, 66, 0
1, 35416, Note_on_c, 0, 68, 71
1, 35416, Note_on_c, 0, 60, 58
1, 35465, Note_on_c, 0, 60, 0
1, 35547, Note_on_c, 0, 68, 0
1, 35547, Note_on_c, 0, 69, 74
1, 35547, Note_on_c, 0, 54, 60
1, 35597, Note_on_c, 0, 54, 0
1, 35681, Note_on_c, 0, 69, 0
1, 35681, Note_on_c, 0, 71, 75
1, 35681, Note_on_c, 0, 52, 63
1, 35728, Note_on_c, 0, 52, 0
1, 35808, Note_on_c, 0, 54, 55
1, 35855, Note_on_c, 0, 54, 0
1, 35935, Note_on_c, 0, 61, 55
1, 35983, Note_on_c, 0, 61, 0
1, 36063, Note_on_c, 0, 54, 55
1, 36111, Note_on_c, 0, 54, 0
1, 36191, Note_on_c, 0, 51, 63
1, 36238, Note_on_c, 0, 51, 0
1, 36306, Note_on_c, 0, 71, 0
1, 36317, Note_on_c, 0, 69, 73
1, 36317, Note_on_c, 0, 54, 60
1, 36365, Note_on_c, 0, 54, 0
1, 36445, Note_on_c, 0, 69, 0
1, 36445, Note_on_c, 0, 71, 75
1, 36445, Note_on_c, 0, 60, 60
1, 36494, Note_on_c, 0, 60, 0
1, 36576, Note_on_c, 0, 71, 0
1, 36576, Note_on_c, 0, 69, 73
1, 36576, Note_on_c, 0, 54, 60
1, 36624, Note_on_c, 0, 54, 0
1, 36704, Note_on_c, 0, 69, 0
1, 36704, Note_on_c, 0, 68, 74
1, 36704, Note_on_c, 0, 44, 63
1, 36751, Note_on_c, 0, 44, 0
1, 36831, Note_on_c, 0, 51, 60
1, 36879, Note_on_c, 0, 51, 0
1, 36958, Note_on_c, 0, 60, 60
1, 37006, Note_on_c, 0, 60, 0
1, 37086, Note_on_c, 0, 51, 60
1, 37134, Note_on_c, 0, 51, 0
1, 37214, Note_on_c, 0, 66, 0
1, 37214, Note_on_c, 0, 44, 63
1, 37262, Note_on_c, 0, 44, 0
1, 37332, Note_on_c, 0, 68, 0
1, 37342, Note_on_c, 0, 66, 71
1, 37342, Note_on_c, 0, 50, 59
1, 37391, Note_on_c, 0, 50, 0
1, 37473, Note_on_c, 0, 66, 0
1, 37473, Note_on_c, 0, 64, 74
1, 37473, Note_on_c, 0, 59, 59
1, 37523, Note_on_c, 0, 59, 0
1, 37607, Note_on_c, 0, 64, 0
1, 37607, Note_on_c, 0, 62, 76
1, 37607, Note_on_c, 0, 50, 59
1, 37659, Note_on_c, 0, 50, 0
1, 37746, Note_on_c, 0, 62, 0
1, 37746, Note_on_c, 0, 61, 79
1, 37746, Note_on_c, 0, 40, 63
1, 37881, Note_on_c, 0, 40, 0
1, 37881, Note_on_c, 0, 50, 55
1, 38012, Note_on_c, 0, 50, 0
1, 38012, Note_on_c, 0, 52, 55
1, 38143, Note_on_c, 0, 52, 0
1, 38143, Note_on_c, 0, 56, 55
1, 38274, Note_on_c, 0, 56, 0
1, 38274, Control_c, 0, 64, 127
1, 38274, Note_on_c, 0, 61, 60
1, 38405, Note_on_c, 0, 61, 0
1, 38405, Note_on_c, 0, 56, 55
1, 38534, Note_on_c, 0, 56, 0
1, 38534, Note_on_c, 0, 50, 52
1, 38663, Note_on_c, 0, 50, 0
1, 38663, Note_on_c, 0, 40, 49
1, 38791, Control_c, 0, 64, 0
1, 38797, Note_on_c, 0, 40, 0
1, 38797, Note_on_c, 0, 37, 54
1, 38866, Control_c, 0, 64, 127
1, 38928, Note_on_c, 0, 37, 0
1, 38928, Note_on_c, 0, 44, 50
1, 39057, Note_on_c, 0, 44, 0
1, 39057, Note_on_c, 0, 53, 52
1, 39186, Note_on_c, 0, 53, 0
1, 39186, Note_on_c, 0, 59, 52
1, 39285, Control_c, 0, 64, 0
1, 39316, Note_on_c, 0, 61, 0
1, 39316, Note_on_c, 0, 61, 55
1, 39316, Note_on_c, 0, 59, 0
1, 39446, Note_on_c, 0, 61, 0
1, 39446, Note_on_c, 0, 59, 55
1, 39507, Control_c, 0, 64, 127
1, 39575, Note_on_c, 0, 59, 0
1, 39575, Note_on_c, 0, 53, 53
1, 39704, Note_on_c, 0, 53, 0
1, 39704, Control_c, 0, 64, 0
1, 39704, Note_on_c, 0, 44, 53
1, 39835, Note_on_c, 0, 73, 50
1, 39835, Note_on_c, 0, 44, 0
1, 39969, Note_on_c, 0, 73, 0
1, 39969, Note_on_c, 0, 71, 50
1, 40076, Control_c, 0, 64, 127
1, 40102, Note_on_c, 0, 71, 0
1, 40102, Note_on_c, 0, 65, 48
1, 40235, Note_on_c, 0, 65, 0
1, 40235, Note_on_c, 0, 56, 46
1, 40328, Control_c, 0, 64, 0
1, 40374, Note_on_c, 0, 78, 64
1, 40374, Note_on_c, 0, 56, 0
1, 40374, Control_c, 0, 64, 127
1, 40512, Note_on_c, 0, 54, 43
1, 40650, Note_on_c, 0, 78, 0
1, 40650, Note_on_c, 0, 85, 64
1, 40650, Note_on_c, 0, 54, 0
1, 40653, Note_on_c, 0, 61, 43
1, 40786, Note_on_c, 0, 61, 0
1, 40786, Note_on_c, 0, 69, 43
1, 40921, Note_on_c, 0, 85, 0
1, 40921, Note_on_c, 0, 78, 54
1, 40921, Note_on_c, 0, 81, 54
1, 40924, Note_on_c, 0, 84, 66
1, 40924, Note_on_c, 0, 69, 0
1, 40940, Control_c, 0, 64, 0
1, 40993, Control_c, 0, 64, 127
1, 41058, Note_on_c, 0, 57, 42
1, 41189, Note_on_c, 0, 57, 0
1, 41189, Note_on_c, 0, 62, 42
1, 41189, Note_on_c, 0, 66, 42
1, 41321, Note_on_c, 0, 66, 0
1, 41321, Note_on_c, 0, 62, 0
1, 41321, Note_on_c, 0, 72, 42
1, 41392, Control_c, 0, 64, 0
1, 41457, Note_on_c, 0, 84, 0
1, 41457, Note_on_c, 0, 81, 0
1, 41457, Note_on_c, 0, 78, 0
1, 41460, Note_on_c, 0, 85, 64
1, 41460, Note_on_c, 0, 72, 0
1, 41460, Control_c, 0, 64, 127
1, 41592, Note_on_c, 0, 61, 43
1, 41727, Note_on_c, 0, 85, 0
1, 41727, Note_on_c, 0, 78, 54
1, 41727, Note_on_c, 0, 81, 54
1, 41730, Note_on_c, 0, 88, 64
1, 41730, Note_on_c, 0, 61, 0
1, 41730, Note_on_c, 0, 66, 43
1, 41862, Note_on_c, 0, 66, 0
1, 41862, Note_on_c, 0, 76, 43
1, 41930, Control_c, 0, 64, 0
1, 41998, Note_on_c, 0, 88, 0
1, 41998, Note_on_c, 0, 81, 0
1, 41998, Note_on_c, 0, 78, 0
1, 42001, Note_on_c, 0, 87, 66
1, 42001, Note_on_c, 0, 76, 0
1, 42001, Control_c, 0, 64, 127
1, 42136, Note_on_c, 0, 59, 37
1, 42181, Note_on_c, 0, 87, 0
1, 42181, Note_on_c, 0, 83, 62
1, 42181, Note_on_c, 0, 78, 54
1, 42271, Note_on_c, 0, 59, 0
1, 42271, Note_on_c, 0, 66, 33
1, 42361, Note_on_c, 0, 78, 0
1, 42361, Note_on_c, 0, 83, 0
1, 42361, Note_on_c, 0, 81, 60
1, 42406, Note_on_c, 0, 66, 0
1, 42406, Note_on_c, 0, 75, 34
1, 42465, Control_c, 0, 64, 0
1, 42543, Note_on_c, 0, 81, 0
1, 42543, Note_on_c, 0, 78, 64
1, 42543, Note_on_c, 0, 75, 0
1, 42546, Control_c, 0, 64, 127
1, 42680, Note_on_c, 0, 54, 43
1, 42818, Note_on_c, 0, 78, 0
1, 42818, Note_on_c, 0, 85, 64
1, 42818, Note_on_c, 0, 54, 0
1, 42821, Note_on_c, 0, 61, 43
1, 42952, Note_on_c, 0, 61, 0
1, 42952, Note_on_c, 0, 69, 43
1, 43086, Note_on_c, 0, 85, 0
1, 43086, Note_on_c, 0, 84, 66
1, 43086, Note_on_c, 0, 81, 54
1, 43089, Note_on_c, 0, 78, 54
1, 43089, Note_on_c, 0, 69, 0
1, 43105, Control_c, 0, 64, 0
1, 43158, Control_c, 0, 64, 127
1, 43223, Note_on_c, 0, 57, 42
1, 43355, Note_on_c, 0, 57, 0
1, 43355, Note_on_c, 0, 62, 42
1, 43355, Note_on_c, 0, 66, 42
1, 43488, Note_on_c, 0, 66, 0
1, 43488, Note_on_c, 0, 62, 0
1, 43488, Note_on_c, 0, 72, 42
1, 43552, Control_c, 0, 64, 0
1, 43624, Note_on_c, 0, 78, 0
1, 43624, Note_on_c, 0, 81, 0
1, 43624, Note_on_c, 0, 84, 0
1, 43627, Note_on_c, 0, 85, 64
1, 43627, Note_on_c, 0, 72, 0
1, 43627, Control_c, 0, 64, 127
1, 43759, Note_on_c, 0, 61, 43
1, 43894, Note_on_c, 0, 85, 0
1, 43894, Note_on_c, 0, 88, 64
1, 43894, Note_on_c, 0, 81, 48
1, 43897, Note_on_c, 0, 78, 48
1, 43897, Note_on_c, 0, 61, 0
1, 43897, Note_on_c, 0, 66, 43
1, 44029, Note_on_c, 0, 66, 0
1, 44029, Note_on_c, 0, 76, 43
1, 44126, Control_c, 0, 64, 0
1, 44165, Note_on_c, 0, 78, 0
1, 44165, Note_on_c, 0, 81, 0
1, 44165, Note_on_c, 0, 88, 0
1, 44168, Note_on_c, 0, 87, 66
1, 44168, Note_on_c, 0, 76, 0
1, 44198, Control_c, 0, 64, 127
1, 44303, Note_on_c, 0, 59, 37
1, 44348, Note_on_c, 0, 87, 0
1, 44348, Note_on_c, 0, 78, 54
1, 44348, Note_on_c, 0, 83, 62
1, 44439, Note_on_c, 0, 59, 0
1, 44439, Note_on_c, 0, 66, 33
1, 44529, Note_on_c, 0, 83, 0
1, 44529, Note_on_c, 0, 78, 0
1, 44529, Note_on_c, 0, 87, 60
1, 44574, Note_on_c, 0, 66, 0
1, 44574, Note_on_c, 0, 75, 33
1, 44640, Control_c, 0, 64, 0
1, 44713, Note_on_c, 0, 87, 0
1, 44713, Note_on_c, 0, 73, 62
1, 44713, Note_on_c, 0, 75, 0
1, 44716, Control_c, 0, 64, 127
1, 44849, Note_on_c, 0, 49, 38
1, 44986, Note_on_c, 0, 73, 0
1, 44986, Note_on_c, 0, 69, 36
1, 44986, Note_on_c, 0, 76, 62
1, 44989, Note_on_c, 0, 66, 36
1, 44989, Note_on_c, 0, 49, 0
1, 44989, Note_on_c, 0, 54, 34
1, 45124, Note_on_c, 0, 54, 0
1, 45124, Note_on_c, 0, 64, 34
1, 45210, Control_c, 0, 64, 0
1, 45262, Note_on_c, 0, 66, 0
1, 45262, Note_on_c, 0, 76, 0
1, 45262, Note_on_c, 0, 69, 0
1, 45265, Note_on_c, 0, 75, 65
1, 45265, Note_on_c, 0, 64, 0
1, 45265, Control_c, 0, 64, 127
1, 45404, Note_on_c, 0, 47, 38
1, 45450, Note_on_c, 0, 75, 0
1, 45450, Note_on_c, 0, 66, 36
1, 45450, Note_on_c, 0, 69, 36
1, 45453, Note_on_c, 0, 71, 60
1, 45544, Note_on_c, 0, 47, 0
1, 45544, Note_on_c, 0, 54, 39
1, 45637, Note_on_c, 0, 71, 0
1, 45637, Note_on_c, 0, 69, 0
1, 45637, Note_on_c, 0, 66, 0
1, 45640, Note_on_c, 0, 75, 59
1, 45683, Note_on_c, 0, 54, 0
1, 45683, Note_on_c, 0, 63, 38
1, 45761, Control_c, 0, 64, 0
1, 45831, Note_on_c, 0, 75, 0
1, 45831, Note_on_c, 0, 66, 62
1, 45831, Note_on_c, 0, 63, 62
1, 45834, Note_on_c, 0, 73, 62
1, 45834, Note_on_c, 0, 63, 0
1, 45970, Note_on_c, 0, 45, 49
1, 46106, Note_on_c, 0, 45, 0
1, 46106, Note_on_c, 0, 54, 49
1, 46242, Note_on_c, 0, 54, 0
1, 46242, Note_on_c, 0, 61, 49
1, 46378, Note_on_c, 0, 73, 0
1, 46378, Note_on_c, 0, 63, 0
1, 46378, Note_on_c, 0, 66, 0
1, 46381, Note_on_c, 0, 64, 62
1, 46381, Note_on_c, 0, 71, 62
1, 46381, Note_on_c, 0, 68, 62
1, 46384, Note_on_c, 0, 61, 0
1, 46512, Note_on_c, 0, 44, 49
1, 46647, Note_on_c, 0, 68, 0
1, 46647, Note_on_c, 0, 71, 0
1, 46647, Note_on_c, 0, 64, 0
1, 46650, Note_on_c, 0, 64, 60
1, 46650, Note_on_c, 0, 59, 60
1, 46650, Note_on_c, 0, 68, 60
1, 46653, Note_on_c, 0, 44, 0
1, 46653, Note_on_c, 0, 52, 49
1, 46784, Note_on_c, 0, 52, 0
1, 46784, Note_on_c, 0, 44, 49
1, 46920, Note_on_c, 0, 68, 0
1, 46920, Note_on_c, 0, 59, 0
1, 46920, Note_on_c, 0, 64, 0
1, 46923, Note_on_c, 0, 61, 60
1, 46923, Note_on_c, 0, 64, 60
1, 46923, Note_on_c, 0, 57, 60
1, 46926, Note_on_c, 0, 44, 0
1, 47057, Note_on_c, 0, 42, 48
1, 47102, Note_on_c, 0, 64, 0
1, 47102, Note_on_c, 0, 66, 59
1, 47193, Note_on_c, 0, 42, 0
1, 47193, Note_on_c, 0, 49, 48
1, 47284, Note_on_c, 0, 66, 0
1, 47284, Note_on_c, 0, 68, 59
1, 47330, Note_on_c, 0, 49, 0
1, 47330, Note_on_c, 0, 42, 48
1, 47469, Note_on_c, 0, 68, 0
1, 47469, Note_on_c, 0, 57, 0
1, 47469, Note_on_c, 0, 61, 0
1, 47472, Note_on_c, 0, 57, 59
1, 47472, Note_on_c, 0, 64, 59
1, 47472, Note_on_c, 0, 66, 59
1, 47475, Note_on_c, 0, 42, 0
1, 47610, Note_on_c, 0, 35, 46
1, 47751, Note_on_c, 0, 64, 0
1, 47751, Note_on_c, 0, 63, 58
1, 47751, Note_on_c, 0, 35, 0
1, 47754, Note_on_c, 0, 47, 46
1, 47892, Note_on_c, 0, 47, 0
1, 47892, Note_on_c, 0, 35, 46
1, 48037, Note_on_c, 0, 63, 0
1, 48037, Note_on_c, 0, 66, 0
1, 48037, Note_on_c, 0, 57, 0
1, 48040, Note_on_c, 0, 64, 59
1, 48040, Note_on_c, 0, 61, 59
1, 48040, Note_on_c, 0, 68, 59
1, 48043, Note_on_c, 0, 35, 0
1, 48043, Note_on_c, 0, 40, 48
1, 48173, Note_on_c, 0, 40, 0
1, 48173, Note_on_c, 0, 47, 47
1, 48308, Note_on_c, 0, 61, 0
1, 48308, Note_on_c, 0, 59, 54
1, 48308, Note_on_c, 0, 47, 0
1, 48311, Note_on_c, 0, 52, 47
1, 48444, Note_on_c, 0, 52, 0
1, 48444, Note_on_c, 0, 56, 47
1, 48578, Note_on_c, 0, 59, 0
1, 48578, Note_on_c, 0, 56, 0
1, 48578, Note_on_c, 0, 59, 50
1, 48713, Note_on_c, 0, 59, 0
1, 48713, Note_on_c, 0, 64, 48
1, 48847, Note_on_c, 0, 68, 53
1, 48847, Note_on_c, 0, 64, 0
1, 48981, Note_on_c, 0, 68, 0
1, 48981, Note_on_c, 0, 71, 54
1, 49117, Note_on_c, 0, 71, 0
1, 49117, Note_on_c, 0, 68, 0
1, 49117, Note_on_c, 0, 64, 0
1, 49120, Note_on_c, 0, 73, 62
1, 49120, Note_on_c, 0, 70, 44
1, 49120, Note_on_c, 0, 67, 44
1, 49187, Control_c, 0, 64, 127
1, 49250, Note_on_c, 0, 55, 49
1, 49384, Note_on_c, 0, 73, 0
1, 49384, Note_on_c, 0, 76, 62
1, 49384, Note_on_c, 0, 55, 0
1, 49387, Note_on_c, 0, 61, 49
1, 49519, Note_on_c, 0, 61, 0
1, 49519, Note_on_c, 0, 64, 49
1, 49586, Control_c, 0, 64, 0
1, 49654, Note_on_c, 0, 76, 0
1, 49654, Note_on_c, 0, 67, 0
1, 49654, Note_on_c, 0, 70, 0
1, 49657, Note_on_c, 0, 68, 47
1, 49657, Note_on_c, 0, 75, 65
1, 49657, Note_on_c, 0, 71, 47
1, 49660, Note_on_c, 0, 64, 0
1, 49791, Note_on_c, 0, 56, 44
1, 49836, Note_on_c, 0, 75, 0
1, 49836, Note_on_c, 0, 71, 60
1, 49926, Note_on_c, 0, 56, 0
1, 49926, Note_on_c, 0, 59, 39
1, 50015, Note_on_c, 0, 71, 0
1, 50015, Note_on_c, 0, 75, 59
1, 50060, Note_on_c, 0, 59, 0
1, 50060, Note_on_c, 0, 63, 39
1, 50201, Note_on_c, 0, 75, 0
1, 50201, Note_on_c, 0, 71, 0
1, 50201, Note_on_c, 0, 68, 0
1, 50204, Note_on_c, 0, 68, 63
1, 50204, Note_on_c, 0, 64, 63
1, 50204, Note_on_c, 0, 73, 63
1, 50207, Note_on_c, 0, 63, 0
1, 50339, Note_on_c, 0, 49, 49
1, 50475, Note_on_c, 0, 49, 0
1, 50475, Note_on_c, 0, 56, 49
1, 50611, Note_on_c, 0, 56, 0
1, 50611, Note_on_c, 0, 61, 49
1, 50748, Note_on_c, 0, 73, 0
1, 50748, Note_on_c, 0, 64, 0
1, 50748, Note_on_c, 0, 68, 0
1, 50751, Note_on_c, 0, 63, 63
1, 50751, Note_on_c, 0, 71, 63
1, 50751, Note_on_c, 0, 68, 63
1, 50754, Note_on_c, 0, 61, 0
1, 50882, Note_on_c, 0, 44, 49
1, 51016, Note_on_c, 0, 68, 0
1, 51016, Note_on_c, 0, 71, 0
1, 51016, Note_on_c, 0, 63, 0
1, 51019, Note_on_c, 0, 63, 60
1, 51019, Note_on_c, 0, 59, 60
1, 51019, Note_on_c, 0, 68, 60
1, 51022, Note_on_c, 0, 44, 0
1, 51022, Note_on_c, 0, 51, 49
1, 51152, Note_on_c, 0, 51, 0
1, 51152, Note_on_c, 0, 56, 49
1, 51289, Note_on_c, 0, 68, 0
1, 51289, Note_on_c, 0, 59, 0
1, 51289, Note_on_c, 0, 63, 0
1, 51292, Note_on_c, 0, 61, 60
1, 51292, Note_on_c, 0, 64, 60
1, 51292, Note_on_c, 0, 58, 60
1, 51295, Note_on_c, 0, 56, 0
1, 51425, Note_on_c, 0, 42, 48
1, 51471, Note_on_c, 0, 64, 0
1, 51471, Note_on_c, 0, 66, 59
1, 51562, Note_on_c, 0, 42, 0
1, 51562, Note_on_c, 0, 49, 48
1, 51653, Note_on_c, 0, 66, 0
1, 51653, Note_on_c, 0, 68, 60
1, 51699, Note_on_c, 0, 49, 0
1, 51699, Note_on_c, 0, 42, 48
1, 51836, Note_on_c, 0, 68, 0
1, 51836, Note_on_c, 0, 58, 0
1, 51836, Note_on_c, 0, 61, 0
1, 51839, Note_on_c, 0, 66, 62
1, 51839, Note_on_c, 0, 63, 62
1, 51839, Note_on_c, 0, 70, 62
1, 51842, Note_on_c, 0, 42, 0
1, 51974, Note_on_c, 0, 40, 49
1, 52112, Note_on_c, 0, 63, 0
1, 52112, Note_on_c, 0, 61, 58
1, 52112, Note_on_c, 0, 40, 0
1, 52115, Note_on_c, 0, 49, 49
1, 52251, Note_on_c, 0, 49, 0
1, 52251, Note_on_c, 0, 40, 49
1, 52390, Note_on_c, 0, 40, 0
1, 52390, Note_on_c, 0, 39, 54
1, 52528, Note_on_c, 0, 39, 0
1, 52528, Note_on_c, 0, 47, 49
1, 52666, Note_on_c, 0, 61, 0
1, 52666, Note_on_c, 0, 70, 0
1, 52666, Note_on_c, 0, 66, 0
1, 52669, Note_on_c, 0, 66, 63
1, 52669, Note_on_c, 0, 71, 63
1, 52669, Note_on_c, 0, 59, 63
1, 52672, Note_on_c, 0, 47, 0
1, 52672, Note_on_c, 0, 51, 49
1, 52805, Note_on_c, 0, 51, 0
1, 52805, Note_on_c, 0, 54, 49
1, 52944, Note_on_c, 0, 59, 0
1, 52944, Note_on_c, 0, 71, 0
1, 52944, Note_on_c, 0, 66, 0
1, 52947, Note_on_c, 0, 66, 66
1, 52947, Note_on_c, 0, 75, 66
1, 52947, Note_on_c, 0, 71, 66
1, 52950, Note_on_c, 0, 54, 0
1, 52950, Note_on_c, 0, 59, 57
1, 53086, Note_on_c, 0, 59, 0
1, 53086, Note_on_c, 0, 63, 52
1, 53228, Note_on_c, 0, 71, 0
1, 53228, Note_on_c, 0, 75, 0
1, 53228, Note_on_c, 0, 66, 0
1, 53231, Note_on_c, 0, 71, 71
1, 53231, Note_on_c, 0, 75, 71
1, 53231, Note_on_c, 0, 78, 71
1, 53234, Note_on_c, 0, 63, 0
1, 53234, Note_on_c, 0, 66, 58
1, 53374, Note_on_c, 0, 66, 0
1, 53374, Note_on_c, 0, 71, 62
1, 53520, Note_on_c, 0, 78, 0
1, 53520, Note_on_c, 0, 75, 0
1, 53520, Note_on_c, 0, 71, 0
1, 53523, Note_on_c, 0, 76, 63
1, 53523, Note_on_c, 0, 80, 63
1, 53523, Note_on_c, 0, 75, 68
1, 53526, Note_on_c, 0, 71, 0
1, 53656, Note_on_c, 0, 61, 52
1, 53793, Note_on_c, 0, 75, 0
1, 53793, Note_on_c, 0, 73, 49
1, 53793, Note_on_c, 0, 61, 0
1, 53796, Note_on_c, 0, 64, 46
1, 53931, Note_on_c, 0, 64, 0
1, 53931, Note_on_c, 0, 68, 46
1, 54069, Note_on_c, 0, 73, 0
1, 54069, Note_on_c, 0, 75, 57
1, 54069, Note_on_c, 0, 68, 0
1, 54201, Note_on_c, 0, 59, 50
1, 54334, Note_on_c, 0, 75, 0
1, 54334, Note_on_c, 0, 73, 50
1, 54334, Note_on_c, 0, 59, 0
1, 54337, Note_on_c, 0, 64, 44
1, 54465, Note_on_c, 0, 64, 0
1, 54465, Note_on_c, 0, 68, 44
1, 54595, Note_on_c, 0, 73, 0
1, 54595, Note_on_c, 0, 75, 64
1, 54595, Note_on_c, 0, 68, 0
1, 54725, Note_on_c, 0, 58, 52
1, 54854, Note_on_c, 0, 75, 0
1, 54854, Note_on_c, 0, 73, 55
1, 54854, Note_on_c, 0, 58, 0
1, 54857, Note_on_c, 0, 64, 47
1, 54990, Note_on_c, 0, 64, 0
1, 54990, Note_on_c, 0, 68, 47
1, 55125, Note_on_c, 0, 73, 0
1, 55125, Note_on_c, 0, 80, 0
1, 55125, Note_on_c, 0, 76, 0
1, 55128, Note_on_c, 0, 80, 47
1, 55128, Note_on_c, 0, 76, 47
1, 55128, Note_on_c, 0, 83, 75
1, 55131, Note_on_c, 0, 68, 0
1, 55257, Note_on_c, 0, 56, 46
1, 55301, Note_on_c, 0, 83, 0
1, 55301, Note_on_c, 0, 87, 70
1, 55388, Note_on_c, 0, 56, 0
1, 55388, Note_on_c, 0, 64, 46
1, 55476, Note_on_c, 0, 87, 0
1, 55476, Note_on_c, 0, 83, 70
1, 55519, Note_on_c, 0, 64, 0
1, 55519, Note_on_c, 0, 71, 44
1, 55663, Note_on_c, 0, 83, 0
1, 55663, Note_on_c, 0, 76, 0
1, 55663, Note_on_c, 0, 80, 0
1, 55666, Note_on_c, 0, 80, 60
1, 55666, Note_on_c, 0, 75, 65
1, 55666, Note_on_c, 0, 76, 60
1, 55669, Note_on_c, 0, 71, 0
1, 55799, Note_on_c, 0, 61, 50
1, 55936, Note_on_c, 0, 75, 0
1, 55936, Note_on_c, 0, 73, 49
1, 55936, Note_on_c, 0, 61, 0
1, 55939, Note_on_c, 0, 64, 46
1, 56074, Note_on_c, 0, 64, 0
1, 56074, Note_on_c, 0, 68, 46
1, 56212, Note_on_c, 0, 73, 0
1, 56212, Note_on_c, 0, 75, 57
1, 56212, Note_on_c, 0, 68, 0
1, 56345, Note_on_c, 0, 59, 49
1, 56477, Note_on_c, 0, 75, 0
1, 56477, Note_on_c, 0, 73, 50
1, 56477, Note_on_c, 0, 59, 0
1, 56480, Note_on_c, 0, 64, 44
1, 56610, Note_on_c, 0, 64, 0
1, 56610, Note_on_c, 0, 68, 44
1, 56743, Note_on_c, 0, 73, 0
1, 56743, Note_on_c, 0, 75, 64
1, 56743, Note_on_c, 0, 68, 0
1, 56877, Note_on_c, 0, 58, 50
1, 57011, Note_on_c, 0, 75, 0
1, 57011, Note_on_c, 0, 80, 58
1, 57011, Note_on_c, 0, 85, 63
1, 57014, Note_on_c, 0, 76, 58
1, 57014, Note_on_c, 0, 58, 0
1, 57014, Note_on_c, 0, 64, 47
1, 57146, Note_on_c, 0, 64, 0
1, 57146, Note_on_c, 0, 68, 47
1, 57281, Note_on_c, 0, 76, 0
1, 57281, Note_on_c, 0, 80, 0
1, 57281, Note_on_c, 0, 80, 0
1, 57284, Note_on_c, 0, 76, 0
1, 57284, Note_on_c, 0, 85, 0
1, 57284, Note_on_c, 0, 73, 54
1, 57287, Note_on_c, 0, 82, 59
1, 57287, Note_on_c, 0, 78, 54
1, 57287, Note_on_c, 0, 68, 0
1, 57422, Note_on_c, 0, 54, 52
1, 57562, Note_on_c, 0, 78, 0
1, 57562, Note_on_c, 0, 82, 0
1, 57562, Note_on_c, 0, 73, 0
1, 57565, Note_on_c, 0, 76, 53
1, 57565, Note_on_c, 0, 70, 53
1, 57565, Note_on_c, 0, 80, 57
1, 57568, Note_on_c, 0, 54, 0
1, 57568, Note_on_c, 0, 61, 46
1, 57707, Note_on_c, 0, 61, 0
1, 57707, Note_on_c, 0, 66, 46
1, 57852, Note_on_c, 0, 80, 0
1, 57852, Note_on_c, 0, 70, 0
1, 57852, Note_on_c, 0, 76, 0
1, 57855, Note_on_c, 0, 78, 63
1, 57855, Note_on_c, 0, 73, 62
1, 57855, Note_on_c, 0, 74, 63
1, 57858, Note_on_c, 0, 66, 0
1, 57989, Note_on_c, 0, 59, 52
1, 58125, Note_on_c, 0, 73, 0
1, 58125, Note_on_c, 0, 71, 49
1, 58125, Note_on_c, 0, 59, 0
1, 58128, Note_on_c, 0, 62, 46
1, 58263, Note_on_c, 0, 62, 0
1, 58263, Note_on_c, 0, 66, 46
1, 58402, Note_on_c, 0, 71, 0
1, 58402, Note_on_c, 0, 73, 57
1, 58402, Note_on_c, 0, 66, 0
1, 58534, Note_on_c, 0, 57, 50
1, 58667, Note_on_c, 0, 73, 0
1, 58667, Note_on_c, 0, 71, 50
1, 58667, Note_on_c, 0, 57, 0
1, 58670, Note_on_c, 0, 62, 44
1, 58798, Note_on_c, 0, 62, 0
1, 58798, Note_on_c, 0, 66, 44
1, 58929, Note_on_c, 0, 71, 0
1, 58929, Note_on_c, 0, 73, 64
1, 58929, Note_on_c, 0, 66, 0
1, 59060, Note_on_c, 0, 56, 52
1, 59190, Note_on_c, 0, 73, 0
1, 59190, Note_on_c, 0, 71, 55
1, 59190, Note_on_c, 0, 56, 0
1, 59193, Note_on_c, 0, 62, 47
1, 59325, Note_on_c, 0, 62, 0
1, 59325, Note_on_c, 0, 66, 47
1, 59460, Note_on_c, 0, 71, 0
1, 59460, Note_on_c, 0, 74, 0
1, 59460, Note_on_c, 0, 78, 0
1, 59463, Note_on_c, 0, 78, 54
1, 59463, Note_on_c, 0, 74, 54
1, 59463, Note_on_c, 0, 81, 70
1, 59466, Note_on_c, 0, 66, 0
1, 59592, Note_on_c, 0, 54, 50
1, 59636, Note_on_c, 0, 81, 0
1, 59636, Note_on_c, 0, 85, 68
1, 59723, Note_on_c, 0, 54, 0
1, 59723, Note_on_c, 0, 62, 49
1, 59810, Note_on_c, 0, 85, 0
1, 59810, Note_on_c, 0, 81, 66
1, 59854, Note_on_c, 0, 62, 0
1, 59854, Note_on_c, 0, 69, 47
1, 59998, Note_on_c, 0, 81, 0
1, 59998, Note_on_c, 0, 74, 0
1, 59998, Note_on_c, 0, 78, 0
1, 60001, Note_on_c, 0, 78, 60
1, 60001, Note_on_c, 0, 73, 62
1, 60001, Note_on_c, 0, 74, 60
1, 60004, Note_on_c, 0, 69, 0
1, 60135, Note_on_c, 0, 59, 50
1, 60271, Note_on_c, 0, 73, 0
1, 60271, Note_on_c, 0, 71, 49
1, 60271, Note_on_c, 0, 59, 0
1, 60274, Note_on_c, 0, 62, 46
1, 60410, Note_on_c, 0, 62, 0
1, 60410, Note_on_c, 0, 66, 46
1, 60548, Note_on_c, 0, 71, 0
1, 60548, Note_on_c, 0, 73, 57
1, 60548, Note_on_c, 0, 66, 0
1, 60681, Note_on_c, 0, 57, 50
1, 60814, Note_on_c, 0, 73, 0
1, 60814, Note_on_c, 0, 71, 50
1, 60814, Note_on_c, 0, 57, 0
1, 60817, Note_on_c, 0, 62, 44
1, 60947, Note_on_c, 0, 62, 0
1, 60947, Note_on_c, 0, 66, 44
1, 61080, Note_on_c, 0, 71, 0
1, 61080, Note_on_c, 0, 73, 64
1, 61080, Note_on_c, 0, 66, 0
1, 61211, Note_on_c, 0, 56, 53
1, 61343, Note_on_c, 0, 73, 0
1, 61343, Note_on_c, 0, 78, 58
1, 61343, Note_on_c, 0, 83, 63
1, 61346, Note_on_c, 0, 74, 58
1, 61346, Note_on_c, 0, 56, 0
1, 61346, Note_on_c, 0, 62, 47
1, 61478, Note_on_c, 0, 62, 0
1, 61478, Note_on_c, 0, 66, 47
1, 61614, Note_on_c, 0, 74, 0
1, 61614, Note_on_c, 0, 78, 0
1, 61614, Note_on_c, 0, 78, 0
1, 61617, Note_on_c, 0, 74, 0
1, 61617, Note_on_c, 0, 83, 0
1, 61617, Note_on_c, 0, 71, 54
1, 61620, Note_on_c, 0, 80, 59
1, 61620, Note_on_c, 0, 76, 54
1, 61620, Note_on_c, 0, 66, 0
1, 61754, Note_on_c, 0, 52, 52
1, 61895, Note_on_c, 0, 76, 0
1, 61895, Note_on_c, 0, 80, 0
1, 61895, Note_on_c, 0, 71, 0
1, 61898, Note_on_c, 0, 74, 53
1, 61898, Note_on_c, 0, 68, 53
1, 61898, Note_on_c, 0, 78, 57
1, 61901, Note_on_c, 0, 52, 0
1, 61901, Note_on_c, 0, 59, 46
1, 62043, Note_on_c, 0, 59, 0
1, 62043, Note_on_c, 0, 52, 46
1, 62191, Note_on_c, 0, 78, 0
1, 62191, Note_on_c, 0, 68, 0
1, 62191, Note_on_c, 0, 74, 0
1, 62194, Note_on_c, 0, 76, 70
1, 62194, Note_on_c, 0, 69, 65
1, 62194, Note_on_c, 0, 73, 65
1, 62197, Note_on_c, 0, 52, 0
1, 62197, Note_on_c, 0, 45, 62
1, 62241, Note_on_c, 0, 45, 0
1, 62322, Note_on_c, 0, 52, 58
1, 62371, Note_on_c, 0, 52, 0
1, 62452, Note_on_c, 0, 73, 0
1, 62452, Note_on_c, 0, 69, 0
1, 62452, Note_on_c, 0, 76, 0
1, 62455, Note_on_c, 0, 69, 63
1, 62455, Note_on_c, 0, 64, 63
1, 62455, Note_on_c, 0, 73, 63
1, 62458, Note_on_c, 0, 57, 58
1, 62500, Note_on_c, 0, 73, 0
1, 62500, Note_on_c, 0, 64, 0
1, 62500, Note_on_c, 0, 69, 0
1, 62503, Note_on_c, 0, 57, 0
1, 62580, Note_on_c, 0, 64, 63
1, 62580, Note_on_c, 0, 69, 63
1, 62580, Note_on_c, 0, 73, 63
1, 62583, Note_on_c, 0, 61, 58
1, 62628, Note_on_c, 0, 73, 0
1, 62628, Note_on_c, 0, 69, 0
1, 62628, Note_on_c, 0, 64, 0
1, 62631, Note_on_c, 0, 61, 0
1, 62708, Note_on_c, 0, 69, 63
1, 62708, Note_on_c, 0, 73, 63
1, 62708, Note_on_c, 0, 64, 63
1, 62711, Note_on_c, 0, 61, 62
1, 62757, Note_on_c, 0, 61, 0
1, 62838, Note_on_c, 0, 57, 57
1, 62887, Note_on_c, 0, 57, 0
1, 62903, Note_on_c, 0, 64, 0
1, 62903, Note_on_c, 0, 73, 0
1, 62903, Note_on_c, 0, 69, 0
1, 62968, Note_on_c, 0, 73, 65
1, 62968, Note_on_c, 0, 69, 65
1, 62968, Note_on_c, 0, 76, 65
1, 62971, Note_on_c, 0, 52, 57
1, 63016, Note_on_c, 0, 52, 0
1, 63095, Note_on_c, 0, 45, 57
1, 63142, Note_on_c, 0, 45, 0
1, 63221, Note_on_c, 0, 76, 0
1, 63221, Note_on_c, 0, 69, 0
1, 63221, Note_on_c, 0, 73, 0
1, 63224, Note_on_c, 0, 69, 65
1, 63224, Note_on_c, 0, 78, 65
1, 63224, Note_on_c, 0, 73, 65
1, 63227, Note_on_c, 0, 42, 66
1, 63268, Note_on_c, 0, 42, 0
1, 63347, Note_on_c, 0, 49, 60
1, 63395, Note_on_c, 0, 49, 0
1, 63474, Note_on_c, 0, 73, 0
1, 63474, Note_on_c, 0, 78, 0
1, 63474, Note_on_c, 0, 69, 0
1, 63477, Note_on_c, 0, 73, 60
1, 63477, Note_on_c, 0, 69, 60
1, 63477, Note_on_c, 0, 78, 60
1, 63480, Note_on_c, 0, 54, 63
1, 63521, Note_on_c, 0, 54, 0
1, 63567, Note_on_c, 0, 78, 0
1, 63567, Note_on_c, 0, 69, 0
1, 63567, Note_on_c, 0, 73, 0
1, 63599, Note_on_c, 0, 80, 60
1, 63599, Note_on_c, 0, 71, 60
1, 63599, Note_on_c, 0, 73, 60
1, 63602, Note_on_c, 0, 61, 60
1, 63646, Note_on_c, 0, 61, 0
1, 63694, Note_on_c, 0, 73, 0
1, 63694, Note_on_c, 0, 71, 0
1, 63694, Note_on_c, 0, 80, 0
1, 63726, Note_on_c, 0, 73, 60
1, 63726, Note_on_c, 0, 69, 60
1, 63726, Note_on_c, 0, 78, 60
1, 63729, Note_on_c, 0, 61, 66
1, 63772, Note_on_c, 0, 61, 0
1, 63819, Note_on_c, 0, 78, 0
1, 63819, Note_on_c, 0, 69, 0
1, 63819, Note_on_c, 0, 73, 0
1, 63850, Note_on_c, 0, 71, 60
1, 63850, Note_on_c, 0, 80, 60
1, 63850, Note_on_c, 0, 73, 60
1, 63853, Note_on_c, 0, 54, 62
1, 63897, Note_on_c, 0, 54, 0
1, 63945, Note_on_c, 0, 73, 0
1, 63945, Note_on_c, 0, 80, 0
1, 63945, Note_on_c, 0, 71, 0
1, 63977, Note_on_c, 0, 73, 64
1, 63977, Note_on_c, 0, 69, 64
1, 63977, Note_on_c, 0, 78, 64
1, 63980, Note_on_c, 0, 49, 64
1, 64024, Note_on_c, 0, 49, 0
1, 64104, Note_on_c, 0, 42, 62
1, 64152, Note_on_c, 0, 42, 0
1, 64231, Note_on_c, 0, 78, 0
1, 64231, Note_on_c, 0, 69, 0
1, 64231, Note_on_c, 0, 73, 0
1, 64234, Note_on_c, 0, 76, 69
1, 64234, Note_on_c, 0, 69, 69
1, 64234, Note_on_c, 0, 73, 69
1, 64237, Note_on_c, 0, 45, 62
1, 64280, Note_on_c, 0, 45, 0
1, 64361, Note_on_c, 0, 52, 58
1, 64410, Note_on_c, 0, 52, 0
1, 64492, Note_on_c, 0, 73, 0
1, 64492, Note_on_c, 0, 69, 0
1, 64492, Note_on_c, 0, 76, 0
1, 64495, Note_on_c, 0, 69, 63
1, 64495, Note_on_c, 0, 68, 63
1, 64495, Note_on_c, 0, 73, 63
1, 64498, Note_on_c, 0, 57, 58
1, 64540, Note_on_c, 0, 73, 0
1, 64540, Note_on_c, 0, 68, 0
1, 64540, Note_on_c, 0, 69, 0
1, 64543, Note_on_c, 0, 57, 0
1, 64620, Note_on_c, 0, 68, 63
1, 64620, Note_on_c, 0, 69, 63
1, 64620, Note_on_c, 0, 73, 63
1, 64623, Note_on_c, 0, 61, 58
1, 64667, Note_on_c, 0, 73, 0
1, 64667, Note_on_c, 0, 69, 0
1, 64667, Note_on_c, 0, 68, 0
1, 64670, Note_on_c, 0, 61, 0
1, 64747, Note_on_c, 0, 69, 63
1, 64747, Note_on_c, 0, 73, 63
1, 64747, Note_on_c, 0, 66, 63
1, 64750, Note_on_c, 0, 61, 64
1, 64796, Note_on_c, 0, 61, 0
1, 64878, Note_on_c, 0, 57, 59
1, 64926, Note_on_c, 0, 57, 0
1, 64943, Note_on_c, 0, 66, 0
1, 64943, Note_on_c, 0, 73, 0
1, 64943, Note_on_c, 0, 69, 0
1, 65008, Note_on_c, 0, 66, 68
1, 65008, Note_on_c, 0, 64, 68
1, 65008, Note_on_c, 0, 69, 68
1, 65011, Note_on_c, 0, 52, 64
1, 65057, Note_on_c, 0, 52, 0
1, 65139, Note_on_c, 0, 45, 60
1, 65188, Note_on_c, 0, 45, 0
1, 65271, Note_on_c, 0, 69, 0
1, 65271, Note_on_c, 0, 64, 0
1, 65271, Note_on_c, 0, 66, 0
1, 65274, Note_on_c, 0, 73, 71
1, 65274, Note_on_c, 0, 66, 71
1, 65274, Note_on_c, 0, 69, 71
1, 65277, Note_on_c, 0, 62, 71
1, 65277, Note_on_c, 0, 38, 66
1, 65318, Note_on_c, 0, 38, 0
1, 65397, Note_on_c, 0, 45, 62
1, 65444, Note_on_c, 0, 45, 0
1, 65523, Note_on_c, 0, 50, 64
1, 65570, Note_on_c, 0, 50, 0
1, 65648, Note_on_c, 0, 54, 62
1, 65696, Note_on_c, 0, 54, 0
1, 65775, Note_on_c, 0, 54, 66
1, 65822, Note_on_c, 0, 54, 0
1, 65899, Note_on_c, 0, 50, 63
1, 65947, Note_on_c, 0, 50, 0
1, 66026, Note_on_c, 0, 45, 65
1, 66074, Note_on_c, 0, 45, 0
1, 66153, Note_on_c, 0, 38, 63
1, 66203, Note_on_c, 0, 38, 0
1, 66285, Note_on_c, 0, 62, 0
1, 66285, Note_on_c, 0, 73, 0
1, 66285, Note_on_c, 0, 66, 0
1, 66288, Note_on_c, 0, 69, 0
1, 66288, Note_on_c, 0, 62, 49
1, 66288, Note_on_c, 0, 71, 49
1, 66291, Note_on_c, 0, 67, 49
1, 66291, Note_on_c, 0, 43, 48
1, 66334, Note_on_c, 0, 43, 0
1, 66416, Note_on_c, 0, 50, 44
1, 66464, Note_on_c, 0, 50, 0
1, 66546, Note_on_c, 0, 67, 0
1, 66546, Note_on_c, 0, 71, 0
1, 66546, Note_on_c, 0, 62, 0
1, 66549, Note_on_c, 0, 67, 48
1, 66549, Note_on_c, 0, 59, 48
1, 66549, Note_on_c, 0, 62, 48
1, 66552, Note_on_c, 0, 55, 44
1, 66594, Note_on_c, 0, 62, 0
1, 66594, Note_on_c, 0, 59, 0
1, 66594, Note_on_c, 0, 67, 0
1, 66597, Note_on_c, 0, 55, 0
1, 66674, Note_on_c, 0, 67, 48
1, 66674, Note_on_c, 0, 59, 48
1, 66674, Note_on_c, 0, 62, 48
1, 66677, Note_on_c, 0, 50, 44
1, 66722, Note_on_c, 0, 62, 0
1, 66722, Note_on_c, 0, 59, 0
1, 66722, Note_on_c, 0, 67, 0
1, 66725, Note_on_c, 0, 50, 0
1, 66802, Note_on_c, 0, 62, 48
1, 66802, Note_on_c, 0, 59, 48
1, 66802, Note_on_c, 0, 67, 48
1, 66805, Note_on_c, 0, 43, 48
1, 66850, Note_on_c, 0, 43, 0
1, 66932, Note_on_c, 0, 67, 0
1, 66932, Note_on_c, 0, 59, 0
1, 66932, Note_on_c, 0, 62, 0
1, 66935, Note_on_c, 0, 50, 43
1, 66981, Note_on_c, 0, 50, 0
1, 67062, Note_on_c, 0, 62, 49
1, 67062, Note_on_c, 0, 71, 49
1, 67062, Note_on_c, 0, 67, 49
1, 67065, Note_on_c, 0, 55, 43
1, 67109, Note_on_c, 0, 55, 0
1, 67188, Note_on_c, 0, 50, 43
1, 67236, Note_on_c, 0, 50, 0
1, 67252, Note_on_c, 0, 67, 0
1, 67252, Note_on_c, 0, 71, 0
1, 67252, Note_on_c, 0, 62, 0
1, 67315, Note_on_c, 0, 65, 49
1, 67315, Note_on_c, 0, 60, 49
1, 67315, Note_on_c, 0, 69, 49
1, 67318, Note_on_c, 0, 38, 48
1, 67362, Note_on_c, 0, 38, 0
1, 67441, Note_on_c, 0, 45, 44
1, 67488, Note_on_c, 0, 45, 0
1, 67567, Note_on_c, 0, 69, 0
1, 67567, Note_on_c, 0, 60, 0
1, 67567, Note_on_c, 0, 65, 0
1, 67570, Note_on_c, 0, 69, 47
1, 67570, Note_on_c, 0, 60, 47
1, 67570, Note_on_c, 0, 65, 47
1, 67573, Note_on_c, 0, 53, 44
1, 67614, Note_on_c, 0, 53, 0
1, 67630, Note_on_c, 0, 65, 0
1, 67630, Note_on_c, 0, 60, 0
1, 67630, Note_on_c, 0, 69, 0
1, 67692, Note_on_c, 0, 71, 47
1, 67692, Note_on_c, 0, 62, 47
1, 67692, Note_on_c, 0, 65, 47
1, 67695, Note_on_c, 0, 45, 44
1, 67740, Note_on_c, 0, 45, 0
1, 67756, Note_on_c, 0, 65, 0
1, 67756, Note_on_c, 0, 62, 0
1, 67756, Note_on_c, 0, 71, 0
1, 67820, Note_on_c, 0, 65, 47
1, 67820, Note_on_c, 0, 69, 47
1, 67820, Note_on_c, 0, 60, 47
1, 67823, Note_on_c, 0, 41, 48
1, 67866, Note_on_c, 0, 41, 0
1, 67881, Note_on_c, 0, 60, 0
1, 67881, Note_on_c, 0, 69, 0
1, 67881, Note_on_c, 0, 65, 0
1, 67943, Note_on_c, 0, 65, 47
1, 67943, Note_on_c, 0, 62, 47
1, 67943, Note_on_c, 0, 71, 47
1, 67946, Note_on_c, 0, 48, 44
1, 67991, Note_on_c, 0, 48, 0
1, 68007, Note_on_c, 0, 71, 0
1, 68007, Note_on_c, 0, 62, 0
1, 68007, Note_on_c, 0, 65, 0
1, 68070, Note_on_c, 0, 64, 49
1, 68070, Note_on_c, 0, 72, 49
1, 68070, Note_on_c, 0, 65, 49
1, 68073, Note_on_c, 0, 57, 44
1, 68118, Note_on_c, 0, 57, 0
1, 68198, Note_on_c, 0, 65, 0
1, 68198, Note_on_c, 0, 72, 0
1, 68198, Note_on_c, 0, 64, 0
1, 68201, Note_on_c, 0, 48, 44
1, 68247, Note_on_c, 0, 48, 0
1, 68329, Note_on_c, 0, 67, 50
1, 68329, Note_on_c, 0, 62, 50
1, 68329, Note_on_c, 0, 71, 50
1, 68332, Note_on_c, 0, 43, 48
1, 68378, Note_on_c, 0, 43, 0
1, 68460, Note_on_c, 0, 50, 44
1, 68509, Note_on_c, 0, 50, 0
1, 68590, Note_on_c, 0, 71, 0
1, 68590, Note_on_c, 0, 62, 0
1, 68590, Note_on_c, 0, 67, 0
1, 68593, Note_on_c, 0, 67, 47
1, 68593, Note_on_c, 0, 59, 47
1, 68593, Note_on_c, 0, 62, 47
1, 68596, Note_on_c, 0, 55, 44
1, 68638, Note_on_c, 0, 62, 0
1, 68638, Note_on_c, 0, 59, 0
1, 68638, Note_on_c, 0, 67, 0
1, 68641, Note_on_c, 0, 55, 0
1, 68718, Note_on_c, 0, 62, 47
1, 68718, Note_on_c, 0, 59, 47
1, 68718, Note_on_c, 0, 67, 47
1, 68721, Note_on_c, 0, 50, 44
1, 68766, Note_on_c, 0, 67, 0
1, 68766, Note_on_c, 0, 59, 0
1, 68766, Note_on_c, 0, 62, 0
1, 68769, Note_on_c, 0, 50, 0
1, 68846, Note_on_c, 0, 59, 48
1, 68846, Note_on_c, 0, 67, 48
1, 68846, Note_on_c, 0, 62, 48
1, 68849, Note_on_c, 0, 41, 49
1, 68895, Note_on_c, 0, 41, 0
1, 68976, Note_on_c, 0, 50, 46
1, 69025, Note_on_c, 0, 50, 0
1, 69041, Note_on_c, 0, 62, 0
1, 69041, Note_on_c, 0, 67, 0
1, 69041, Note_on_c, 0, 59, 0
1, 69106, Note_on_c, 0, 67, 52
1, 69106, Note_on_c, 0, 62, 52
1, 69106, Note_on_c, 0, 71, 52
1, 69109, Note_on_c, 0, 55, 48
1, 69155, Note_on_c, 0, 55, 0
1, 69237, Note_on_c, 0, 50, 50
1, 69287, Note_on_c, 0, 50, 0
1, 69369, Note_on_c, 0, 71, 0
1, 69369, Note_on_c, 0, 62, 0
1, 69369, Note_on_c, 0, 67, 0
1, 69372, Note_on_c, 0, 64, 57
1, 69372, Note_on_c, 0, 71, 57
1, 69372, Note_on_c, 0, 68, 57
1, 69375, Note_on_c, 0, 40, 57
1, 69495, Note_on_c, 0, 40, 0
1, 69495, Note_on_c, 0, 47, 53
1, 69622, Note_on_c, 0, 47, 0
1, 69622, Note_on_c, 0, 52, 53
1, 69746, Note_on_c, 0, 52, 0
1, 69746, Note_on_c, 0, 56, 53
1, 69842, Note_on_c, 0, 56, 0
1, 69874, Note_on_c, 0, 68, 0
1, 69874, Note_on_c, 0, 71, 0
1, 69874, Note_on_c, 0, 64, 0
1, 69877, Note_on_c, 0, 64, 59
1, 69877, Note_on_c, 0, 52, 57
1, 70003, Note_on_c, 0, 52, 0
1, 70003, Note_on_c, 0, 56, 60
1, 70133, Note_on_c, 0, 56, 0
1, 70133, Note_on_c, 0, 59, 63
1, 70267, Note_on_c, 0, 59, 0
1, 70267, Note_on_c, 0, 64, 65
1, 70403, Note_on_c, 0, 64, 0
1, 70403, Note_on_c, 0, 76, 70
1, 70403, Note_on_c, 0, 69, 70
1, 70406, Note_on_c, 0, 73, 70
1, 70406, Note_on_c, 0, 64, 0
1, 70406, Note_on_c, 0, 57, 66
1, 70452, Note_on_c, 0, 57, 0
1, 70534, Note_on_c, 0, 61, 63
1, 70582, Note_on_c, 0, 61, 0
1, 70664, Note_on_c, 0, 73, 0
1, 70664, Note_on_c, 0, 69, 0
1, 70664, Note_on_c, 0, 76, 0
1, 70667, Note_on_c, 0, 69, 68
1, 70667, Note_on_c, 0, 73, 68
1, 70667, Note_on_c, 0, 64, 63
1, 70712, Note_on_c, 0, 73, 0
1, 70712, Note_on_c, 0, 69, 0
1, 70712, Note_on_c, 0, 64, 0
1, 70792, Note_on_c, 0, 73, 68
1, 70792, Note_on_c, 0, 69, 68
1, 70792, Note_on_c, 0, 61, 63
1, 70840, Note_on_c, 0, 69, 0
1, 70840, Note_on_c, 0, 73, 0
1, 70840, Note_on_c, 0, 61, 0
1, 70920, Note_on_c, 0, 69, 68
1, 70920, Note_on_c, 0, 73, 68
1, 70920, Note_on_c, 0, 56, 66
1, 70968, Note_on_c, 0, 56, 0
1, 71050, Note_on_c, 0, 61, 62
1, 71099, Note_on_c, 0, 61, 0
1, 71115, Note_on_c, 0, 73, 0
1, 71115, Note_on_c, 0, 69, 0
1, 71180, Note_on_c, 0, 76, 70
1, 71180, Note_on_c, 0, 69, 70
1, 71180, Note_on_c, 0, 73, 70
1, 71183, Note_on_c, 0, 64, 62
1, 71227, Note_on_c, 0, 64, 0
1, 71306, Note_on_c, 0, 61, 62
1, 71354, Note_on_c, 0, 61, 0
1, 71433, Note_on_c, 0, 73, 0
1, 71433, Note_on_c, 0, 69, 0
1, 71433, Note_on_c, 0, 76, 0
1, 71436, Note_on_c, 0, 73, 70
1, 71436, Note_on_c, 0, 69, 70
1, 71436, Note_on_c, 0, 78, 70
1, 71439, Note_on_c, 0, 54, 73
1, 71480, Note_on_c, 0, 54, 0
1, 71559, Note_on_c, 0, 61, 65
1, 71607, Note_on_c, 0, 61, 0
1, 71686, Note_on_c, 0, 78, 0
1, 71686, Note_on_c, 0, 69, 0
1, 71686, Note_on_c, 0, 73, 0
1, 71689, Note_on_c, 0, 69, 63
1, 71689, Note_on_c, 0, 78, 63
1, 71689, Note_on_c, 0, 73, 63
1, 71692, Note_on_c, 0, 66, 68
1, 71732, Note_on_c, 0, 66, 0
1, 71779, Note_on_c, 0, 73, 0
1, 71779, Note_on_c, 0, 78, 0
1, 71779, Note_on_c, 0, 69, 0
1, 71810, Note_on_c, 0, 73, 63
1, 71810, Note_on_c, 0, 71, 63
1, 71810, Note_on_c, 0, 80, 63
1, 71813, Note_on_c, 0, 61, 65
1, 71858, Note_on_c, 0, 61, 0
1, 71906, Note_on_c, 0, 80, 0
1, 71906, Note_on_c, 0, 71, 0
1, 71906, Note_on_c, 0, 73, 0
1, 71938, Note_on_c, 0, 78, 65
1, 71938, Note_on_c, 0, 69, 65
1, 71938, Note_on_c, 0, 74, 65
1, 71941, Note_on_c, 0, 54, 73
1, 71985, Note_on_c, 0, 54, 0
1, 72032, Note_on_c, 0, 74, 0
1, 72032, Note_on_c, 0, 69, 0
1, 72032, Note_on_c, 0, 78, 0
1, 72063, Note_on_c, 0, 74, 64
1, 72063, Note_on_c, 0, 69, 64
1, 72063, Note_on_c, 0, 80, 64
1, 72066, Note_on_c, 0, 57, 66
1, 72111, Note_on_c, 0, 57, 0
1, 72158, Note_on_c, 0, 80, 0
1, 72158, Note_on_c, 0, 69, 0
1, 72158, Note_on_c, 0, 74, 0
1, 72190, Note_on_c, 0, 69, 68
1, 72190, Note_on_c, 0, 78, 68
1, 72190, Note_on_c, 0, 74, 68
1, 72193, Note_on_c, 0, 66, 69
1, 72238, Note_on_c, 0, 66, 0
1, 72317, Note_on_c, 0, 57, 66
1, 72365, Note_on_c, 0, 57, 0
1, 72444, Note_on_c, 0, 74, 0
1, 72444, Note_on_c, 0, 78, 0
1, 72444, Note_on_c, 0, 69, 0
1, 72447, Note_on_c, 0, 73, 75
1, 72447, Note_on_c, 0, 69, 75
1, 72447, Note_on_c, 0, 76, 75
1, 72450, Note_on_c, 0, 45, 66
1, 72493, Note_on_c, 0, 45, 0
1, 72575, Note_on_c, 0, 52, 63
1, 72623, Note_on_c, 0, 52, 0
1, 72705, Note_on_c, 0, 76, 0
1, 72705, Note_on_c, 0, 69, 0
1, 72705, Note_on_c, 0, 73, 0
1, 72708, Note_on_c, 0, 73, 68
1, 72708, Note_on_c, 0, 68, 68
1, 72708, Note_on_c, 0, 69, 68
1, 72711, Note_on_c, 0, 61, 63
1, 72753, Note_on_c, 0, 69, 0
1, 72753, Note_on_c, 0, 68, 0
1, 72753, Note_on_c, 0, 73, 0
1, 72756, Note_on_c, 0, 61, 0
1, 72833, Note_on_c, 0, 73, 68
1, 72833, Note_on_c, 0, 69, 68
1, 72833, Note_on_c, 0, 68, 68
1, 72836, Note_on_c, 0, 52, 63
1, 72881, Note_on_c, 0, 68, 0
1, 72881, Note_on_c, 0, 69, 0
1, 72881, Note_on_c, 0, 73, 0
1, 72884, Note_on_c, 0, 52, 0
1, 72961, Note_on_c, 0, 69, 68
1, 72961, Note_on_c, 0, 66, 68
1, 72961, Note_on_c, 0, 73, 68
1, 72964, Note_on_c, 0, 42, 69
1, 73010, Note_on_c, 0, 42, 0
1, 73092, Note_on_c, 0, 49, 64
1, 73141, Note_on_c, 0, 49, 0
1, 73158, Note_on_c, 0, 73, 0
1, 73158, Note_on_c, 0, 66, 0
1, 73158, Note_on_c, 0, 69, 0
1, 73223, Note_on_c, 0, 69, 70
1, 73223, Note_on_c, 0, 64, 70
1, 73223, Note_on_c, 0, 66, 70
1, 73226, Note_on_c, 0, 57, 69
1, 73273, Note_on_c, 0, 57, 0
1, 73356, Note_on_c, 0, 49, 65
1, 73406, Note_on_c, 0, 49, 0
1, 73489, Note_on_c, 0, 66, 0
1, 73489, Note_on_c, 0, 64, 0
1, 73489, Note_on_c, 0, 69, 0
1, 73492, Note_on_c, 0, 63, 74
1, 73492, Note_on_c, 0, 73, 74
1, 73492, Note_on_c, 0, 69, 74
1, 73495, Note_on_c, 0, 66, 74
1, 73495, Note_on_c, 0, 35, 70
1, 73537, Note_on_c, 0, 35, 0
1, 73616, Note_on_c, 0, 42, 64
1, 73663, Note_on_c, 0, 42, 0
1, 73742, Note_on_c, 0, 47, 68
1, 73789, Note_on_c, 0, 47, 0
1, 73867, Note_on_c, 0, 42, 64
1, 73915, Note_on_c, 0, 42, 0
1, 73994, Note_on_c, 0, 42, 69
1, 74041, Note_on_c, 0, 42, 0
1, 74118, Note_on_c, 0, 47, 64
1, 74166, Note_on_c, 0, 47, 0
1, 74245, Note_on_c, 0, 54, 68
1, 74293, Note_on_c, 0, 54, 0
1, 74372, Note_on_c, 0, 47, 64
1, 74419, Note_on_c, 0, 47, 0
1, 74498, Note_on_c, 0, 47, 60
1, 74547, Note_on_c, 0, 47, 0
1, 74627, Note_on_c, 0, 54, 50
1, 74675, Note_on_c, 0, 54, 0
1, 74755, Note_on_c, 0, 66, 0
1, 74755, Note_on_c, 0, 63, 0
1, 74755, Note_on_c, 0, 73, 0
1, 74758, Note_on_c, 0, 69, 0
1, 74758, Note_on_c, 0, 69, 58
1, 74758, Note_on_c, 0, 61, 58
1, 74761, Note_on_c, 0, 66, 58
1, 74761, Note_on_c, 0, 59, 50
1, 74802, Note_on_c, 0, 59, 0
1, 74818, Note_on_c, 0, 66, 0
1, 74818, Note_on_c, 0, 61, 0
1, 74818, Note_on_c, 0, 69, 0
1, 74881, Note_on_c, 0, 61, 58
1, 74881, Note_on_c, 0, 69, 58
1, 74881, Note_on_c, 0, 66, 58
1, 74884, Note_on_c, 0, 54, 50
1, 74929, Note_on_c, 0, 54, 0
1, 74944, Note_on_c, 0, 66, 0
1, 74944, Note_on_c, 0, 69, 0
1, 74944, Note_on_c, 0, 61, 0
1, 75008, Note_on_c, 0, 63, 58
1, 75008, Note_on_c, 0, 59, 58
1, 75008, Note_on_c, 0, 66, 58
1, 75011, Note_on_c, 0, 42, 58
1, 75056, Note_on_c, 0, 42, 0
1, 75138, Note_on_c, 0, 49, 52
1, 75187, Note_on_c, 0, 49, 0
1, 75203, Note_on_c, 0, 66, 0
1, 75203, Note_on_c, 0, 59, 0
1, 75203, Note_on_c, 0, 63, 0
1, 75268, Note_on_c, 0, 69, 60
1, 75268, Note_on_c, 0, 64, 60
1, 75268, Note_on_c, 0, 66, 60
1, 75271, Note_on_c, 0, 54, 52
1, 75315, Note_on_c, 0, 54, 0
1, 75394, Note_on_c, 0, 49, 52
1, 75442, Note_on_c, 0, 49, 0
1, 75458, Note_on_c, 0, 66, 0
1, 75458, Note_on_c, 0, 64, 0
1, 75458, Note_on_c, 0, 69, 0
1, 75521, Note_on_c, 0, 69, 63
1, 75521, Note_on_c, 0, 63, 63
1, 75521, Note_on_c, 0, 73, 63
1, 75524, Note_on_c, 0, 47, 62
1, 75568, Note_on_c, 0, 47, 0
1, 75648, Note_on_c, 0, 54, 57
1, 75696, Note_on_c, 0, 54, 0
1, 75775, Note_on_c, 0, 73, 0
1, 75775, Note_on_c, 0, 63, 0
1, 75775, Note_on_c, 0, 69, 0
1, 75778, Note_on_c, 0, 61, 60
1, 75778, Note_on_c, 0, 69, 60
1, 75778, Note_on_c, 0, 66, 60
1, 75781, Note_on_c, 0, 59, 57
1, 75822, Note_on_c, 0, 59, 0
1, 75838, Note_on_c, 0, 66, 0
1, 75838, Note_on_c, 0, 69, 0
1, 75838, Note_on_c, 0, 61, 0
1, 75900, Note_on_c, 0, 66, 60
1, 75900, Note_on_c, 0, 61, 60
1, 75900, Note_on_c, 0, 69, 60
1, 75903, Note_on_c, 0, 54, 57
1, 75947, Note_on_c, 0, 54, 0
1, 75963, Note_on_c, 0, 69, 0
1, 75963, Note_on_c, 0, 61, 0
1, 75963, Note_on_c, 0, 66, 0
1, 76026, Note_on_c, 0, 59, 63
1, 76026, Note_on_c, 0, 66, 63
1, 76026, Note_on_c, 0, 63, 63
1, 76029, Note_on_c, 0, 42, 63
1, 76073, Note_on_c, 0, 42, 0
1, 76153, Note_on_c, 0, 49, 59
1, 76200, Note_on_c, 0, 49, 0
1, 76216, Note_on_c, 0, 63, 0
1, 76216, Note_on_c, 0, 66, 0
1, 76216, Note_on_c, 0, 59, 0
1, 76279, Note_on_c, 0, 64, 65
1, 76279, Note_on_c, 0, 69, 65
1, 76279, Note_on_c, 0, 66, 65
1, 76282, Note_on_c, 0, 54, 59
1, 76327, Note_on_c, 0, 54, 0
1, 76406, Note_on_c, 0, 49, 60
1, 76456, Note_on_c, 0, 49, 0
1, 76472, Note_on_c, 0, 66, 0
1, 76472, Note_on_c, 0, 69, 0
1, 76472, Note_on_c, 0, 64, 0
1, 76538, Note_on_c, 0, 69, 74
1, 76538, Note_on_c, 0, 63, 74
1, 76538, Note_on_c, 0, 73, 74
1, 76541, Note_on_c, 0, 47, 70
1, 76587, Note_on_c, 0, 47, 0
1, 76669, Note_on_c, 0, 54, 64
1, 76717, Note_on_c, 0, 54, 0
1, 76799, Note_on_c, 0, 73, 0
1, 76799, Note_on_c, 0, 63, 0
1, 76799, Note_on_c, 0, 69, 0
1, 76802, Note_on_c, 0, 69, 73
1, 76802, Note_on_c, 0, 61, 73
1, 76802, Note_on_c, 0, 66, 73
1, 76805, Note_on_c, 0, 59, 64
1, 76847, Note_on_c, 0, 59, 0
1, 76927, Note_on_c, 0, 54, 64
1, 76975, Note_on_c, 0, 54, 0
1, 77054, Note_on_c, 0, 42, 75
1, 77104, Note_on_c, 0, 42, 0
1, 77187, Note_on_c, 0, 49, 65
1, 77237, Note_on_c, 0, 49, 0
1, 77320, Note_on_c, 0, 66, 0
1, 77320, Note_on_c, 0, 61, 0
1, 77320, Note_on_c, 0, 69, 0
1, 77323, Note_on_c, 0, 69, 80
1, 77323, Note_on_c, 0, 66, 80
1, 77323, Note_on_c, 0, 73, 80
1, 77326, Note_on_c, 0, 54, 69
1, 77371, Note_on_c, 0, 54, 0
1, 77456, Note_on_c, 0, 49, 73
1, 77507, Note_on_c, 0, 49, 0
1, 77592, Note_on_c, 0, 73, 0
1, 77592, Note_on_c, 0, 66, 0
1, 77592, Note_on_c, 0, 69, 0
1, 77595, Note_on_c, 0, 68, 80
1, 77595, Note_on_c, 0, 75, 80
1, 77595, Control_c, 0, 64, 127
1, 77723, Note_on_c, 0, 75, 0
1, 77723, Note_on_c, 0, 68, 0
1, 77723, Note_on_c, 0, 63, 73
1, 77810, Control_c, 0, 64, 0
1, 77854, Note_on_c, 0, 63, 0
1, 77854, Note_on_c, 0, 32, 71
1, 77854, Note_on_c, 0, 39, 71
1, 77866, Control_c, 0, 64, 127
1, 77980, Note_on_c, 0, 39, 0
1, 77980, Note_on_c, 0, 32, 0
1, 77980, Note_on_c, 0, 44, 73
1, 78047, Control_c, 0, 64, 0
1, 78108, Note_on_c, 0, 44, 0
1, 78108, Control_c, 0, 64, 127
1, 78108, Note_on_c, 0, 44, 75
1, 78233, Note_on_c, 0, 44, 0
1, 78233, Note_on_c, 0, 51, 76
1, 78306, Control_c, 0, 64, 0
1, 78360, Note_on_c, 0, 63, 79
1, 78360, Note_on_c, 0, 51, 0
1, 78391, Control_c, 0, 64, 127
1, 78484, Note_on_c, 0, 63, 0
1, 78484, Note_on_c, 0, 56, 76
1, 78551, Control_c, 0, 64, 0
1, 78610, Note_on_c, 0, 56, 0
1, 78610, Control_c, 0, 64, 127
1, 78610, Note_on_c, 0, 56, 83
1, 78733, Note_on_c, 0, 56, 0
1, 78733, Note_on_c, 0, 63, 78
1, 78757, Control_c, 0, 64, 0
1, 78826, Control_c, 0, 64, 127
1, 78858, Note_on_c, 0, 75, 81
1, 78858, Note_on_c, 0, 63, 0
1, 78981, Note_on_c, 0, 75, 0
1, 78981, Note_on_c, 0, 68, 79
1, 79029, Control_c, 0, 64, 0
1, 79107, Note_on_c, 0, 68, 0
1, 79107, Control_c, 0, 64, 127
1, 79107, Note_on_c, 0, 68, 78
1, 79232, Note_on_c, 0, 68, 0
1, 79232, Note_on_c, 0, 75, 73
1, 79250, Control_c, 0, 64, 0
1, 79359, Note_on_c, 0, 87, 74
1, 79359, Note_on_c, 0, 75, 0
1, 79359, Control_c, 0, 64, 127
1, 79486, Note_on_c, 0, 87, 0
1, 79486, Note_on_c, 0, 80, 69
1, 79547, Control_c, 0, 64, 0
1, 79627, Note_on_c, 0, 80, 0
1, 79627, Note_on_c, 0, 87, 69
1, 79627, Note_on_c, 0, 84, 69
1, 79630, Note_on_c, 0, 68, 44
1, 79646, Control_c, 0, 64, 127
1, 79760, Note_on_c, 0, 68, 0
1, 79760, Note_on_c, 0, 72, 42
1, 79894, Note_on_c, 0, 87, 0
1, 79894, Note_on_c, 0, 84, 68
1, 79894, Note_on_c, 0, 72, 0
1, 79897, Note_on_c, 0, 75, 42
1, 80025, Note_on_c, 0, 75, 0
1, 80025, Note_on_c, 0, 72, 42
1, 80155, Note_on_c, 0, 84, 0
1, 80155, Note_on_c, 0, 84, 0
1, 80155, Note_on_c, 0, 83, 69
1, 80158, Note_on_c, 0, 87, 69
1, 80158, Note_on_c, 0, 72, 0
1, 80158, Note_on_c, 0, 68, 44
1, 80161, Control_c, 0, 64, 0
1, 80219, Control_c, 0, 64, 127
1, 80288, Note_on_c, 0, 68, 0
1, 80288, Note_on_c, 0, 71, 42
1, 80421, Note_on_c, 0, 87, 0
1, 80421, Note_on_c, 0, 91, 68
1, 80421, Note_on_c, 0, 71, 0
1, 80424, Note_on_c, 0, 75, 42
1, 80552, Note_on_c, 0, 75, 0
1, 80552, Note_on_c, 0, 71, 42
1, 80684, Note_on_c, 0, 91, 0
1, 80684, Note_on_c, 0, 83, 0
1, 80684, Note_on_c, 0, 87, 69
1, 80687, Note_on_c, 0, 84, 69
1, 80687, Note_on_c, 0, 71, 0
1, 80687, Control_c, 0, 64, 0
1, 80690, Note_on_c, 0, 68, 44
1, 80730, Control_c, 0, 64, 127
1, 80815, Note_on_c, 0, 68, 0
1, 80815, Note_on_c, 0, 72, 42
1, 80946, Note_on_c, 0, 72, 0
1, 80946, Note_on_c, 0, 75, 42
1, 81078, Note_on_c, 0, 75, 0
1, 81078, Note_on_c, 0, 72, 42
1, 81195, Control_c, 0, 64, 0
1, 81211, Note_on_c, 0, 84, 0
1, 81211, Note_on_c, 0, 87, 0
1, 81211, Note_on_c, 0, 80, 63
1, 81214, Note_on_c, 0, 84, 69
1, 81214, Note_on_c, 0, 72, 0
1, 81214, Note_on_c, 0, 67, 44
1, 81288, Control_c, 0, 64, 127
1, 81342, Note_on_c, 0, 67, 0
1, 81342, Note_on_c, 0, 68, 42
1, 81473, Note_on_c, 0, 84, 0
1, 81473, Note_on_c, 0, 87, 69
1, 81473, Note_on_c, 0, 68, 0
1, 81476, Note_on_c, 0, 72, 42
1, 81600, Note_on_c, 0, 72, 0
1, 81600, Note_on_c, 0, 67, 42
1, 81727, Note_on_c, 0, 87, 0
1, 81727, Note_on_c, 0, 84, 69
1, 81727, Note_on_c, 0, 67, 0
1, 81730, Control_c, 0, 64, 0
1, 81730, Note_on_c, 0, 65, 44
1, 81780, Control_c, 0, 64, 127
1, 81856, Note_on_c, 0, 65, 0
1, 81856, Note_on_c, 0, 68, 42
1, 81899, Note_on_c, 0, 84, 0
1, 81899, Note_on_c, 0, 82, 66
1, 81986, Note_on_c, 0, 68, 0
1, 81986, Note_on_c, 0, 72, 42
1, 82072, Note_on_c, 0, 82, 0
1, 82072, Note_on_c, 0, 84, 66
1, 82115, Note_on_c, 0, 72, 0
1, 82115, Note_on_c, 0, 68, 42
1, 82249, Note_on_c, 0, 84, 0
1, 82249, Note_on_c, 0, 80, 0
1, 82249, Note_on_c, 0, 80, 64
1, 82252, Note_on_c, 0, 79, 54
1, 82252, Note_on_c, 0, 68, 0
1, 82252, Control_c, 0, 64, 0
1, 82255, Note_on_c, 0, 63, 44
1, 82321, Control_c, 0, 64, 127
1, 82385, Note_on_c, 0, 63, 0
1, 82385, Note_on_c, 0, 67, 39
1, 82521, Note_on_c, 0, 80, 0
1, 82521, Note_on_c, 0, 84, 64
1, 82521, Note_on_c, 0, 67, 0
1, 82524, Note_on_c, 0, 68, 39
1, 82655, Note_on_c, 0, 68, 0
1, 82655, Note_on_c, 0, 67, 39
1, 82734, Control_c, 0, 64, 0
1, 82791, Note_on_c, 0, 84, 0
1, 82791, Note_on_c, 0, 79, 0
1, 82791, Note_on_c, 0, 77, 55
1, 82794, Note_on_c, 0, 82, 63
1, 82794, Note_on_c, 0, 67, 0
1, 82794, Note_on_c, 0, 61, 42
1, 82924, Note_on_c, 0, 61, 0
1, 82924, Note_on_c, 0, 65, 39
1, 83058, Note_on_c, 0, 65, 0
1, 83058, Note_on_c, 0, 68, 39
1, 83192, Note_on_c, 0, 68, 0
1, 83192, Note_on_c, 0, 65, 39
1, 83325, Note_on_c, 0, 82, 0
1, 83325, Note_on_c, 0, 77, 0
1, 83325, Note_on_c, 0, 70, 63
1, 83328, Note_on_c, 0, 65, 0
1, 83328, Note_on_c, 0, 63, 43
1, 83460, Note_on_c, 0, 63, 0
1, 83460, Note_on_c, 0, 65, 41
1, 83595, Note_on_c, 0, 70, 0
1, 83595, Note_on_c, 0, 72, 65
1, 83595, Note_on_c, 0, 65, 0
1, 83598, Note_on_c, 0, 68, 46
1, 83731, Note_on_c, 0, 68, 0
1, 83731, Note_on_c, 0, 65, 42
1, 83867, Note_on_c, 0, 72, 0
1, 83867, Note_on_c, 0, 73, 69
1, 83867, Note_on_c, 0, 65, 0
1, 83870, Note_on_c, 0, 65, 47
1, 84001, Note_on_c, 0, 68, 42
1, 84134, Note_on_c, 0, 68, 0
1, 84134, Note_on_c, 0, 70, 42
1, 84268, Note_on_c, 0, 70, 0
1, 84268, Note_on_c, 0, 68, 42
1, 84394, Control_c, 0, 64, 127
1, 84402, Note_on_c, 0, 73, 0
1, 84402, Note_on_c, 0, 72, 63
1, 84402, Note_on_c, 0, 68, 0
1, 84405, Note_on_c, 0, 65, 0
1, 84405, Note_on_c, 0, 63, 44
1, 84534, Note_on_c, 0, 67, 39
1, 84667, Note_on_c, 0, 72, 0
1, 84667, Note_on_c, 0, 77, 65
1, 84667, Note_on_c, 0, 67, 0
1, 84670, Note_on_c, 0, 68, 42
1, 84803, Note_on_c, 0, 68, 0
1, 84803, Note_on_c, 0, 67, 39
1, 84874, Control_c, 0, 64, 0
1, 84938, Note_on_c, 0, 77, 0
1, 84938, Note_on_c, 0, 70, 60
1, 84938, Note_on_c, 0, 67, 0
1, 84941, Note_on_c, 0, 63, 0
1, 84941, Note_on_c, 0, 61, 42
1, 85072, Note_on_c, 0, 65, 39
1, 85206, Note_on_c, 0, 65, 0
1, 85206, Note_on_c, 0, 67, 39
1, 85340, Note_on_c, 0, 67, 0
1, 85340, Note_on_c, 0, 65, 39
1, 85473, Note_on_c, 0, 70, 0
1, 85473, Note_on_c, 0, 68, 63
1, 85473, Note_on_c, 0, 65, 0
1, 85476, Note_on_c, 0, 61, 0
1, 85476, Note_on_c, 0, 60, 42
1, 85496, Control_c, 0, 64, 127
1, 85605, Note_on_c, 0, 63, 39
1, 85738, Note_on_c, 0, 68, 0
1, 85738, Note_on_c, 0, 77, 65
1, 85738, Note_on_c, 0, 63, 0
1, 85741, Note_on_c, 0, 65, 39
1, 85875, Note_on_c, 0, 65, 0
1, 85875, Note_on_c, 0, 63, 39
1, 85899, Control_c, 0, 64, 0
1, 86012, Note_on_c, 0, 77, 0
1, 86012, Note_on_c, 0, 67, 54
1, 86012, Note_on_c, 0, 63, 0
1, 86015, Note_on_c, 0, 60, 0
1, 86015, Note_on_c, 0, 58, 42
1, 86145, Note_on_c, 0, 61, 37
1, 86279, Note_on_c, 0, 61, 0
1, 86279, Note_on_c, 0, 63, 37
1, 86419, Note_on_c, 0, 63, 0
1, 86419, Note_on_c, 0, 61, 37
1, 86559, Note_on_c, 0, 67, 0
1, 86559, Note_on_c, 0, 65, 59
1, 86559, Note_on_c, 0, 61, 0
1, 86562, Note_on_c, 0, 58, 0
1, 86562, Note_on_c, 0, 56, 42
1, 86593, Control_c, 0, 64, 127
1, 86704, Note_on_c, 0, 60, 37
1, 86848, Note_on_c, 0, 65, 0
1, 86848, Note_on_c, 0, 77, 59
1, 86848, Note_on_c, 0, 60, 0
1, 86851, Note_on_c, 0, 61, 37
1, 86996, Note_on_c, 0, 61, 0
1, 86996, Note_on_c, 0, 60, 37
1, 87040, Control_c, 0, 64, 0
1, 87144, Note_on_c, 0, 77, 0
1, 87144, Note_on_c, 0, 63, 52
1, 87144, Note_on_c, 0, 60, 0
1, 87147, Note_on_c, 0, 56, 0
1, 87147, Note_on_c, 0, 55, 39
1, 87292, Note_on_c, 0, 58, 36
1, 87438, Note_on_c, 0, 58, 0
1, 87438, Note_on_c, 0, 61, 36
1, 87583, Note_on_c, 0, 61, 0
1, 87583, Note_on_c, 0, 58, 36
1, 87729, Note_on_c, 0, 58, 0
1, 87729, Note_on_c, 0, 55, 0
1, 87729, Note_on_c, 0, 53, 46
1, 87868, Note_on_c, 0, 58, 39
1, 87868, Note_on_c, 0, 61, 39
1, 88007, Note_on_c, 0, 61, 0
1, 88007, Note_on_c, 0, 58, 0
1, 88007, Note_on_c, 0, 53, 0
1, 88010, Note_on_c, 0, 51, 43
1, 88142, Note_on_c, 0, 58, 39
1, 88142, Note_on_c, 0, 61, 39
1, 88277, Note_on_c, 0, 61, 0
1, 88277, Note_on_c, 0, 58, 0
1, 88277, Note_on_c, 0, 63, 0
1, 88280, Note_on_c, 0, 60, 53
1, 88280, Note_on_c, 0, 63, 53
1, 88280, Note_on_c, 0, 51, 0
1, 88283, Note_on_c, 0, 44, 39
1, 88341, Control_c, 0, 64, 127
1, 88413, Note_on_c, 0, 44, 0
1, 88413, Note_on_c, 0, 48, 38
1, 88549, Note_on_c, 0, 63, 0
1, 88549, Note_on_c, 0, 60, 52
1, 88549, Note_on_c, 0, 48, 0
1, 88552, Note_on_c, 0, 44, 38
1, 88681, Note_on_c, 0, 44, 0
1, 88681, Note_on_c, 0, 48, 38
1, 88782, Control_c, 0, 64, 0
1, 88802, Note_on_c, 0, 60, 0
1, 88813, Note_on_c, 0, 60, 0
1, 88813, Note_on_c, 0, 63, 53
1, 88813, Note_on_c, 0, 59, 53
1, 88816, Note_on_c, 0, 48, 0
1, 88816, Note_on_c, 0, 43, 39
1, 88877, Control_c, 0, 64, 127
1, 88948, Note_on_c, 0, 43, 0
1, 88948, Note_on_c, 0, 51, 38
1, 89083, Note_on_c, 0, 63, 0
1, 89083, Note_on_c, 0, 67, 49
1, 89083, Note_on_c, 0, 51, 0
1, 89086, Note_on_c, 0, 43, 38
1, 89216, Note_on_c, 0, 43, 0
1, 89216, Note_on_c, 0, 51, 38
1, 89348, Note_on_c, 0, 67, 0
1, 89348, Note_on_c, 0, 59, 0
1, 89348, Note_on_c, 0, 60, 53
1, 89351, Note_on_c, 0, 63, 53
1, 89351, Note_on_c, 0, 51, 0
1, 89351, Control_c, 0, 64, 0
1, 89354, Note_on_c, 0, 44, 39
1, 89426, Control_c, 0, 64, 127
1, 89480, Note_on_c, 0, 44, 0
1, 89480, Note_on_c, 0, 51, 38
1, 89612, Note_on_c, 0, 51, 0
1, 89612, Note_on_c, 0, 44, 38
1, 89746, Note_on_c, 0, 44, 0
1, 89746, Note_on_c, 0, 51, 38
1, 89872, Control_c, 0, 64, 0
1, 89880, Note_on_c, 0, 63, 0
1, 89880, Note_on_c, 0, 60, 0
1, 89880, Note_on_c, 0, 60, 53
1, 89883, Note_on_c, 0, 58, 48
1, 89883, Note_on_c, 0, 51, 0
1, 89883, Note_on_c, 0, 43, 39
1, 89949, Control_c, 0, 64, 127
1, 90011, Note_on_c, 0, 43, 0
1, 90011, Note_on_c, 0, 51, 38
1, 90142, Note_on_c, 0, 60, 0
1, 90142, Note_on_c, 0, 63, 53
1, 90142, Note_on_c, 0, 51, 0
1, 90145, Note_on_c, 0, 43, 38
1, 90269, Note_on_c, 0, 43, 0
1, 90269, Note_on_c, 0, 51, 38
1, 90396, Note_on_c, 0, 63, 0
1, 90396, Note_on_c, 0, 60, 53
1, 90396, Note_on_c, 0, 51, 0
1, 90399, Control_c, 0, 64, 0
1, 90399, Note_on_c, 0, 41, 39
1, 90441, Control_c, 0, 64, 127
1, 90525, Note_on_c, 0, 41, 0
1, 90525, Note_on_c, 0, 48, 38
1, 90568, Note_on_c, 0, 60, 0
1, 90568, Note_on_c, 0, 58, 50
1, 90654, Note_on_c, 0, 48, 0
1, 90654, Note_on_c, 0, 41, 38
1, 90740, Note_on_c, 0, 58, 0
1, 90740, Note_on_c, 0, 60, 50
1, 90783, Note_on_c, 0, 41, 0
1, 90783, Note_on_c, 0, 48, 38
1, 90885, Control_c, 0, 64, 0
1, 90916, Note_on_c, 0, 60, 0
1, 90916, Note_on_c, 0, 58, 0
1, 90916, Note_on_c, 0, 56, 49
1, 90919, Note_on_c, 0, 55, 42
1, 90919, Note_on_c, 0, 48, 0
1, 90919, Note_on_c, 0, 39, 39
1, 90965, Control_c, 0, 64, 127
1, 91054, Note_on_c, 0, 39, 0
1, 91054, Note_on_c, 0, 48, 36
1, 91192, Note_on_c, 0, 56, 0
1, 91192, Note_on_c, 0, 60, 48
1, 91192, Note_on_c, 0, 48, 0
1, 91195, Note_on_c, 0, 39, 36
1, 91331, Note_on_c, 0, 39, 0
1, 91331, Note_on_c, 0, 48, 36
1, 91471, Note_on_c, 0, 60, 0
1, 91471, Note_on_c, 0, 55, 0
1, 91471, Note_on_c, 0, 50, 36
1, 91474, Note_on_c, 0, 58, 47
1, 91474, Note_on_c, 0, 53, 36
1, 91474, Note_on_c, 0, 48, 0
1, 91477, Control_c, 0, 64, 0
1, 91477, Note_on_c, 0, 32, 38
1, 91538, Control_c, 0, 64, 127
1, 91614, Note_on_c, 0, 32, 0
1, 91614, Note_on_c, 0, 44, 36
1, 91757, Note_on_c, 0, 44, 0
1, 91757, Note_on_c, 0, 32, 36
1, 91900, Note_on_c, 0, 32, 0
1, 91900, Note_on_c, 0, 44, 36
1, 91934, Control_c, 0, 64, 0
1, 92043, Note_on_c, 0, 58, 0
1, 92043, Note_on_c, 0, 56, 41
1, 92043, Note_on_c, 0, 44, 0
1, 92046, Note_on_c, 0, 32, 36
1, 92196, Note_on_c, 0, 32, 0
1, 92196, Note_on_c, 0, 44, 36
1, 92348, Note_on_c, 0, 56, 0
1, 92348, Note_on_c, 0, 58, 38
1, 92348, Note_on_c, 0, 44, 0
1, 92351, Note_on_c, 0, 32, 36
1, 92514, Note_on_c, 0, 32, 0
1, 92514, Note_on_c, 0, 44, 36
1, 92679, Note_on_c, 0, 58, 0
1, 92679, Note_on_c, 0, 53, 0
1, 92679, Note_on_c, 0, 50, 0
1, 92682, Note_on_c, 0, 68, 46
1, 92682, Note_on_c, 0, 64, 46
1, 92682, Note_on_c, 0, 71, 46
1, 92685, Note_on_c, 0, 44, 0
1, 92685, Note_on_c, 0, 44, 43
1, 92729, Note_on_c, 0, 44, 0
1, 92809, Note_on_c, 0, 52, 41
1, 92858, Note_on_c, 0, 52, 0
1, 92939, Note_on_c, 0, 71, 0
1, 92939, Note_on_c, 0, 64, 0
1, 92939, Note_on_c, 0, 68, 0
1, 92942, Note_on_c, 0, 64, 43
1, 92942, Note_on_c, 0, 68, 43
1, 92942, Note_on_c, 0, 59, 41
1, 92986, Note_on_c, 0, 68, 0
1, 92986, Note_on_c, 0, 64, 0
1, 92986, Note_on_c, 0, 59, 0
1, 93066, Note_on_c, 0, 64, 43
1, 93066, Note_on_c, 0, 68, 43
1, 93066, Note_on_c, 0, 52, 41
1, 93113, Note_on_c, 0, 68, 0
1, 93113, Note_on_c, 0, 64, 0
1, 93113, Note_on_c, 0, 52, 0
1, 93193, Note_on_c, 0, 64, 43
1, 93193, Note_on_c, 0, 68, 43
1, 93193, Note_on_c, 0, 44, 43
1, 93241, Note_on_c, 0, 44, 0
1, 93257, Note_on_c, 0, 68, 0
1, 93257, Note_on_c, 0, 64, 0
1, 93322, Note_on_c, 0, 52, 39
1, 93370, Note_on_c, 0, 52, 0
1, 93451, Note_on_c, 0, 71, 46
1, 93451, Note_on_c, 0, 64, 46
1, 93451, Note_on_c, 0, 68, 46
1, 93454, Note_on_c, 0, 59, 39
1, 93498, Note_on_c, 0, 59, 0
1, 93514, Note_on_c, 0, 68, 0
1, 93514, Note_on_c, 0, 64, 0
1, 93514, Note_on_c, 0, 71, 0
1, 93577, Note_on_c, 0, 52, 39
1, 93624, Note_on_c, 0, 52, 0
1, 93702, Note_on_c, 0, 68, 47
1, 93702, Note_on_c, 0, 64, 47
1, 93702, Note_on_c, 0, 73, 47
1, 93705, Note_on_c, 0, 44, 47
1, 93749, Note_on_c, 0, 44, 0
1, 93827, Note_on_c, 0, 52, 42
1, 93874, Note_on_c, 0, 52, 0
1, 93953, Note_on_c, 0, 73, 0
1, 93953, Note_on_c, 0, 64, 0
1, 93953, Note_on_c, 0, 68, 0
1, 93956, Note_on_c, 0, 64, 52
1, 93956, Note_on_c, 0, 73, 52
1, 93956, Note_on_c, 0, 68, 52
1, 93959, Note_on_c, 0, 58, 43
1, 93999, Note_on_c, 0, 68, 0
1, 93999, Note_on_c, 0, 73, 0
1, 93999, Note_on_c, 0, 64, 0
1, 94002, Note_on_c, 0, 58, 0
1, 94076, Note_on_c, 0, 68, 49
1, 94076, Note_on_c, 0, 64, 49
1, 94076, Note_on_c, 0, 75, 49
1, 94079, Note_on_c, 0, 52, 42
1, 94123, Note_on_c, 0, 75, 0
1, 94123, Note_on_c, 0, 64, 0
1, 94123, Note_on_c, 0, 68, 0
1, 94126, Note_on_c, 0, 52, 0
1, 94201, Note_on_c, 0, 64, 52
1, 94201, Note_on_c, 0, 73, 52
1, 94201, Note_on_c, 0, 68, 52
1, 94204, Note_on_c, 0, 44, 47
1, 94247, Note_on_c, 0, 68, 0
1, 94247, Note_on_c, 0, 73, 0
1, 94247, Note_on_c, 0, 64, 0
1, 94250, Note_on_c, 0, 44, 0
1, 94323, Note_on_c, 0, 64, 49
1, 94323, Note_on_c, 0, 75, 49
1, 94323, Note_on_c, 0, 68, 49
1, 94326, Note_on_c, 0, 52, 43
1, 94371, Note_on_c, 0, 68, 0
1, 94371, Note_on_c, 0, 75, 0
1, 94371, Note_on_c, 0, 64, 0
1, 94374, Note_on_c, 0, 52, 0
1, 94450, Note_on_c, 0, 68, 44
1, 94450, Note_on_c, 0, 64, 44
1, 94450, Note_on_c, 0, 73, 44
1, 94453, Note_on_c, 0, 58, 44
1, 94497, Note_on_c, 0, 58, 0
1, 94513, Note_on_c, 0, 73, 0
1, 94513, Note_on_c, 0, 64, 0
1, 94513, Note_on_c, 0, 68, 0
1, 94576, Note_on_c, 0, 52, 43
1, 94623, Note_on_c, 0, 52, 0
1, 94702, Note_on_c, 0, 71, 48
1, 94702, Note_on_c, 0, 64, 48
1, 94702, Note_on_c, 0, 68, 48
1, 94705, Note_on_c, 0, 44, 43
1, 94751, Note_on_c, 0, 44, 0
1, 94832, Note_on_c, 0, 52, 41
1, 94880, Note_on_c, 0, 52, 0
1, 94961, Note_on_c, 0, 68, 0
1, 94961, Note_on_c, 0, 64, 0
1, 94961, Note_on_c, 0, 71, 0
1, 94964, Note_on_c, 0, 68, 43
1, 94964, Note_on_c, 0, 64, 43
1, 94964, Note_on_c, 0, 59, 41
1, 95008, Note_on_c, 0, 64, 0
1, 95008, Note_on_c, 0, 68, 0
1, 95008, Note_on_c, 0, 59, 0
1, 95088, Note_on_c, 0, 68, 43
1, 95088, Note_on_c, 0, 64, 43
1, 95088, Note_on_c, 0, 52, 41
1, 95135, Note_on_c, 0, 64, 0
1, 95135, Note_on_c, 0, 68, 0
1, 95135, Note_on_c, 0, 52, 0
1, 95215, Note_on_c, 0, 68, 43
1, 95215, Note_on_c, 0, 64, 43
1, 95215, Note_on_c, 0, 44, 43
1, 95263, Note_on_c, 0, 44, 0
1, 95344, Note_on_c, 0, 52, 41
1, 95392, Note_on_c, 0, 52, 0
1, 95408, Note_on_c, 0, 64, 0
1, 95408, Note_on_c, 0, 68, 0
1, 95473, Note_on_c, 0, 68, 49
1, 95473, Note_on_c, 0, 64, 49
1, 95473, Note_on_c, 0, 71, 49
1, 95476, Note_on_c, 0, 59, 42
1, 95522, Note_on_c, 0, 59, 0
1, 95603, Note_on_c, 0, 52, 41
1, 95652, Note_on_c, 0, 52, 0
1, 95734, Note_on_c, 0, 71, 0
1, 95734, Note_on_c, 0, 64, 0
1, 95734, Note_on_c, 0, 68, 0
1, 95737, Note_on_c, 0, 65, 47
1, 95737, Note_on_c, 0, 70, 47
1, 95737, Note_on_c, 0, 68, 47
1, 95740, Note_on_c, 0, 62, 47
1, 95740, Note_on_c, 0, 44, 44
1, 95781, Note_on_c, 0, 44, 0
1, 95859, Note_on_c, 0, 53, 43
1, 95906, Note_on_c, 0, 53, 0
1, 95985, Note_on_c, 0, 58, 44
1, 96031, Note_on_c, 0, 58, 0
1, 96109, Note_on_c, 0, 53, 43
1, 96156, Note_on_c, 0, 53, 0
1, 96235, Note_on_c, 0, 56, 48
1, 96281, Note_on_c, 0, 56, 0
1, 96358, Note_on_c, 0, 65, 43
1, 96405, Note_on_c, 0, 65, 0
1, 96484, Note_on_c, 0, 70, 46
1, 96531, Note_on_c, 0, 70, 0
1, 96610, Note_on_c, 0, 65, 43
1, 96660, Note_on_c, 0, 65, 0
1, 96743, Note_on_c, 0, 68, 0
1, 96743, Note_on_c, 0, 65, 0
1, 96743, Note_on_c, 0, 70, 0
1, 96746, Note_on_c, 0, 62, 0
1, 96746, Note_on_c, 0, 80, 46
1, 96746, Note_on_c, 0, 76, 46
1, 96749, Note_on_c, 0, 83, 49
1, 96749, Note_on_c, 0, 56, 43
1, 96793, Note_on_c, 0, 56, 0
1, 96874, Note_on_c, 0, 64, 41
1, 96922, Note_on_c, 0, 64, 0
1, 97003, Note_on_c, 0, 83, 0
1, 97003, Note_on_c, 0, 76, 0
1, 97003, Note_on_c, 0, 80, 0
1, 97006, Note_on_c, 0, 76, 43
1, 97006, Note_on_c, 0, 80, 47
1, 97006, Note_on_c, 0, 71, 41
1, 97050, Note_on_c, 0, 80, 0
1, 97050, Note_on_c, 0, 76, 0
1, 97050, Note_on_c, 0, 71, 0
1, 97130, Note_on_c, 0, 76, 43
1, 97130, Note_on_c, 0, 80, 47
1, 97130, Note_on_c, 0, 64, 41
1, 97177, Note_on_c, 0, 80, 0
1, 97177, Note_on_c, 0, 76, 0
1, 97177, Note_on_c, 0, 64, 0
1, 97257, Note_on_c, 0, 80, 47
1, 97257, Note_on_c, 0, 76, 43
1, 97257, Note_on_c, 0, 56, 43
1, 97305, Note_on_c, 0, 56, 0
1, 97321, Note_on_c, 0, 76, 0
1, 97321, Note_on_c, 0, 80, 0
1, 97386, Note_on_c, 0, 64, 39
1, 97434, Note_on_c, 0, 64, 0
1, 97515, Note_on_c, 0, 80, 46
1, 97515, Note_on_c, 0, 76, 46
1, 97515, Note_on_c, 0, 83, 49
1, 97518, Note_on_c, 0, 71, 39
1, 97562, Note_on_c, 0, 71, 0
1, 97641, Note_on_c, 0, 64, 39
1, 97688, Note_on_c, 0, 64, 0
1, 97766, Note_on_c, 0, 83, 0
1, 97766, Note_on_c, 0, 76, 0
1, 97766, Note_on_c, 0, 80, 0
1, 97769, Note_on_c, 0, 76, 47
1, 97769, Note_on_c, 0, 85, 50
1, 97769, Note_on_c, 0, 80, 47
1, 97772, Note_on_c, 0, 56, 47
1, 97813, Note_on_c, 0, 56, 0
1, 97891, Note_on_c, 0, 64, 42
1, 97939, Note_on_c, 0, 64, 0
1, 98017, Note_on_c, 0, 80, 0
1, 98017, Note_on_c, 0, 85, 0
1, 98017, Note_on_c, 0, 76, 0
1, 98020, Note_on_c, 0, 80, 52
1, 98020, Note_on_c, 0, 76, 52
1, 98020, Note_on_c, 0, 85, 55
1, 98023, Note_on_c, 0, 70, 43
1, 98063, Note_on_c, 0, 85, 0
1, 98063, Note_on_c, 0, 76, 0
1, 98063, Note_on_c, 0, 80, 0
1, 98066, Note_on_c, 0, 70, 0
1, 98140, Note_on_c, 0, 87, 49
1, 98140, Note_on_c, 0, 76, 46
1, 98140, Note_on_c, 0, 80, 46
1, 98143, Note_on_c, 0, 64, 42
1, 98187, Note_on_c, 0, 80, 0
1, 98187, Note_on_c, 0, 76, 0
1, 98187, Note_on_c, 0, 87, 0
1, 98190, Note_on_c, 0, 64, 0
1, 98265, Note_on_c, 0, 80, 52
1, 98265, Note_on_c, 0, 76, 52
1, 98265, Note_on_c, 0, 85, 55
1, 98268, Note_on_c, 0, 56, 47
1, 98311, Note_on_c, 0, 85, 0
1, 98311, Note_on_c, 0, 76, 0
1, 98311, Note_on_c, 0, 80, 0
1, 98314, Note_on_c, 0, 56, 0
1, 98388, Note_on_c, 0, 76, 49
1, 98388, Note_on_c, 0, 87, 53
1, 98388, Note_on_c, 0, 80, 49
1, 98391, Note_on_c, 0, 64, 43
1, 98435, Note_on_c, 0, 80, 0
1, 98435, Note_on_c, 0, 87, 0
1, 98435, Note_on_c, 0, 76, 0
1, 98438, Note_on_c, 0, 64, 0
1, 98514, Note_on_c, 0, 80, 44
1, 98514, Note_on_c, 0, 76, 44
1, 98514, Note_on_c, 0, 85, 48
1, 98517, Note_on_c, 0, 70, 44
1, 98561, Note_on_c, 0, 70, 0
1, 98640, Note_on_c, 0, 64, 43
1, 98688, Note_on_c, 0, 64, 0
1, 98767, Note_on_c, 0, 85, 0
1, 98767, Note_on_c, 0, 76, 0
1, 98767, Note_on_c, 0, 80, 0
1, 98770, Note_on_c, 0, 83, 52
1, 98770, Note_on_c, 0, 76, 48
1, 98770, Note_on_c, 0, 80, 48
1, 98773, Note_on_c, 0, 56, 43
1, 98815, Note_on_c, 0, 56, 0
1, 98896, Note_on_c, 0, 64, 41
1, 98944, Note_on_c, 0, 64, 0
1, 99025, Note_on_c, 0, 80, 0
1, 99025, Note_on_c, 0, 76, 0
1, 99025, Note_on_c, 0, 83, 0
1, 99028, Note_on_c, 0, 80, 47
1, 99028, Note_on_c, 0, 76, 43
1, 99028, Note_on_c, 0, 71, 41
1, 99073, Note_on_c, 0, 76, 0
1, 99073, Note_on_c, 0, 80, 0
1, 99073, Note_on_c, 0, 71, 0
1, 99152, Note_on_c, 0, 80, 47
1, 99152, Note_on_c, 0, 76, 43
1, 99152, Note_on_c, 0, 64, 41
1, 99200, Note_on_c, 0, 76, 0
1, 99200, Note_on_c, 0, 80, 0
1, 99200, Note_on_c, 0, 64, 0
1, 99279, Note_on_c, 0, 80, 47
1, 99279, Note_on_c, 0, 76, 43
1, 99279, Note_on_c, 0, 56, 43
1, 99327, Note_on_c, 0, 56, 0
1, 99408, Note_on_c, 0, 64, 41
1, 99457, Note_on_c, 0, 64, 0
1, 99473, Note_on_c, 0, 76, 0
1, 99473, Note_on_c, 0, 80, 0
1, 99537, Note_on_c, 0, 80, 48
1, 99537, Note_on_c, 0, 83, 52
1, 99537, Note_on_c, 0, 76, 48
1, 99540, Note_on_c, 0, 71, 42
1, 99586, Note_on_c, 0, 71, 0
1, 99668, Note_on_c, 0, 64, 41
1, 99717, Note_on_c, 0, 64, 0
1, 99798, Note_on_c, 0, 76, 0
1, 99798, Note_on_c, 0, 83, 0
1, 99798, Note_on_c, 0, 80, 0
1, 99801, Note_on_c, 0, 77, 42
1, 99801, Note_on_c, 0, 82, 53
1, 99801, Control_c, 0, 64, 127
1, 99804, Note_on_c, 0, 56, 47
1, 99927, Note_on_c, 0, 82, 0
1, 99927, Note_on_c, 0, 77, 0
1, 99927, Note_on_c, 0, 74, 41
1, 100054, Note_on_c, 0, 74, 0
1, 100054, Note_on_c, 0, 62, 36
1, 100054, Note_on_c, 0, 65, 36
1, 100181, Note_on_c, 0, 65, 0
1, 100181, Note_on_c, 0, 62, 0
1, 100181, Note_on_c, 0, 70, 39
1, 100278, Control_c, 0, 64, 0
1, 100308, Note_on_c, 0, 82, 49
1, 100308, Note_on_c, 0, 77, 42
1, 100308, Note_on_c, 0, 70, 0
1, 100349, Control_c, 0, 64, 127
1, 100432, Note_on_c, 0, 77, 0
1, 100432, Note_on_c, 0, 82, 0
1, 100432, Note_on_c, 0, 74, 41
1, 100558, Note_on_c, 0, 74, 0
1, 100558, Note_on_c, 0, 62, 36
1, 100558, Note_on_c, 0, 65, 36
1, 100685, Note_on_c, 0, 65, 0
1, 100685, Note_on_c, 0, 62, 0
1, 100685, Note_on_c, 0, 70, 41
1, 100811, Note_on_c, 0, 77, 42
1, 100811, Note_on_c, 0, 82, 49
1, 100811, Note_on_c, 0, 70, 0
1, 100814, Control_c, 0, 64, 0
1, 100848, Control_c, 0, 64, 127
1, 100939, Note_on_c, 0, 82, 0
1, 100939, Note_on_c, 0, 77, 0
1, 100939, Note_on_c, 0, 74, 41
1, 101063, Note_on_c, 0, 74, 0
1, 101063, Note_on_c, 0, 62, 36
1, 101063, Note_on_c, 0, 65, 36
1, 101190, Note_on_c, 0, 65, 0
1, 101190, Note_on_c, 0, 62, 0
1, 101190, Note_on_c, 0, 70, 41
1, 101311, Control_c, 0, 64, 0
1, 101316, Note_on_c, 0, 82, 49
1, 101316, Note_on_c, 0, 77, 42
1, 101316, Note_on_c, 0, 70, 0
1, 101380, Control_c, 0, 64, 127
1, 101444, Note_on_c, 0, 77, 0
1, 101444, Note_on_c, 0, 82, 0
1, 101444, Note_on_c, 0, 74, 42
1, 101568, Note_on_c, 0, 74, 0
1, 101568, Note_on_c, 0, 62, 34
1, 101568, Note_on_c, 0, 65, 34
1, 101693, Note_on_c, 0, 65, 0
1, 101693, Note_on_c, 0, 62, 0
1, 101693, Note_on_c, 0, 70, 39
1, 101820, Note_on_c, 0, 77, 42
1, 101820, Note_on_c, 0, 82, 49
1, 101820, Note_on_c, 0, 70, 0
1, 101823, Control_c, 0, 64, 0
1, 101868, Control_c, 0, 64, 127
1, 101948, Note_on_c, 0, 82, 0
1, 101948, Note_on_c, 0, 77, 0
1, 101948, Note_on_c, 0, 74, 41
1, 102074, Note_on_c, 0, 74, 0
1, 102074, Note_on_c, 0, 62, 36
1, 102074, Note_on_c, 0, 65, 36
1, 102199, Note_on_c, 0, 65, 0
1, 102199, Note_on_c, 0, 62, 0
1, 102199, Note_on_c, 0, 70, 41
1, 102302, Control_c, 0, 64, 0
1, 102326, Note_on_c, 0, 83, 50
1, 102326, Note_on_c, 0, 78, 43
1, 102326, Note_on_c, 0, 70, 0
1, 102375, Control_c, 0, 64, 127
1, 102454, Note_on_c, 0, 78, 0
1, 102454, Note_on_c, 0, 83, 0
1, 102454, Note_on_c, 0, 75, 43
1, 102579, Note_on_c, 0, 75, 0
1, 102579, Note_on_c, 0, 63, 36
1, 102579, Note_on_c, 0, 66, 36
1, 102707, Note_on_c, 0, 66, 0
1, 102707, Note_on_c, 0, 63, 0
1, 102707, Note_on_c, 0, 71, 42
1, 102836, Note_on_c, 0, 80, 46
1, 102836, Note_on_c, 0, 85, 53
1, 102836, Note_on_c, 0, 71, 0
1, 102839, Note_on_c, 0, 56, 0
1, 102839, Control_c, 0, 64, 0
1, 102839, Note_on_c, 0, 59, 50
1, 102885, Control_c, 0, 64, 127
1, 102964, Note_on_c, 0, 85, 0
1, 102964, Note_on_c, 0, 80, 0
1, 102964, Note_on_c, 0, 77, 43
1, 103090, Note_on_c, 0, 77, 0
1, 103090, Note_on_c, 0, 65, 38
1, 103090, Note_on_c, 0, 68, 38
1, 103217, Note_on_c, 0, 68, 0
1, 103217, Note_on_c, 0, 65, 0
1, 103217, Note_on_c, 0, 73, 43
1, 103344, Note_on_c, 0, 83, 50
1, 103344, Note_on_c, 0, 78, 43
1, 103344, Note_on_c, 0, 73, 0
1, 103356, Control_c, 0, 64, 0
1, 103434, Control_c, 0, 64, 127
1, 103471, Note_on_c, 0, 78, 0
1, 103471, Note_on_c, 0, 83, 0
1, 103471, Note_on_c, 0, 75, 43
1, 103597, Note_on_c, 0, 75, 0
1, 103597, Note_on_c, 0, 63, 34
1, 103597, Note_on_c, 0, 66, 34
1, 103723, Note_on_c, 0, 66, 0
1, 103723, Note_on_c, 0, 63, 0
1, 103723, Note_on_c, 0, 71, 39
1, 103849, Note_on_c, 0, 77, 42
1, 103849, Note_on_c, 0, 82, 49
1, 103849, Note_on_c, 0, 71, 0
1, 103852, Note_on_c, 0, 59, 0
1, 103852, Control_c, 0, 64, 0
1, 103852, Note_on_c, 0, 56, 47
1, 103886, Control_c, 0, 64, 127
1, 103977, Note_on_c, 0, 82, 0
1, 103977, Note_on_c, 0, 77, 0
1, 103977, Note_on_c, 0, 74, 41
1, 104101, Note_on_c, 0, 74, 0
1, 104101, Note_on_c, 0, 62, 36
1, 104101, Note_on_c, 0, 65, 36
1, 104223, Note_on_c, 0, 65, 0
1, 104223, Note_on_c, 0, 62, 0
1, 104223, Note_on_c, 0, 70, 41
1, 104305, Control_c, 0, 64, 0
1, 104345, Note_on_c, 0, 83, 50
1, 104345, Note_on_c, 0, 78, 43
1, 104345, Note_on_c, 0, 70, 0
1, 104363, Control_c, 0, 64, 127
1, 104470, Note_on_c, 0, 78, 0
1, 104470, Note_on_c, 0, 83, 0
1, 104470, Note_on_c, 0, 75, 43
1, 104593, Note_on_c, 0, 75, 0
1, 104593, Note_on_c, 0, 63, 36
1, 104593, Note_on_c, 0, 66, 36
1, 104721, Note_on_c, 0, 66, 0
1, 104721, Note_on_c, 0, 63, 0
1, 104721, Note_on_c, 0, 71, 42
1, 104852, Note_on_c, 0, 80, 46
1, 104852, Note_on_c, 0, 85, 53
1, 104852, Note_on_c, 0, 71, 0
1, 104855, Note_on_c, 0, 56, 0
1, 104855, Control_c, 0, 64, 0
1, 104855, Note_on_c, 0, 59, 50
1, 104883, Control_c, 0, 64, 127
1, 104981, Note_on_c, 0, 85, 0
1, 104981, Note_on_c, 0, 80, 0
1, 104981, Note_on_c, 0, 77, 43
1, 105105, Note_on_c, 0, 77, 0
1, 105105, Note_on_c, 0, 65, 38
1, 105105, Note_on_c, 0, 68, 38
1, 105232, Note_on_c, 0, 68, 0
1, 105232, Note_on_c, 0, 65, 0
1, 105232, Note_on_c, 0, 73, 43
1, 105359, Note_on_c, 0, 78, 43
1, 105359, Note_on_c, 0, 83, 50
1, 105359, Note_on_c, 0, 73, 0
1, 105371, Control_c, 0, 64, 0
1, 105423, Control_c, 0, 64, 127
1, 105486, Note_on_c, 0, 83, 0
1, 105486, Note_on_c, 0, 78, 0
1, 105486, Note_on_c, 0, 75, 43
1, 105612, Note_on_c, 0, 75, 0
1, 105612, Note_on_c, 0, 63, 34
1, 105612, Note_on_c, 0, 66, 34
1, 105738, Note_on_c, 0, 66, 0
1, 105738, Note_on_c, 0, 63, 0
1, 105738, Note_on_c, 0, 71, 39
1, 105867, Note_on_c, 0, 82, 49
1, 105867, Note_on_c, 0, 77, 42
1, 105867, Note_on_c, 0, 71, 0
1, 105870, Note_on_c, 0, 59, 0
1, 105870, Control_c, 0, 64, 0
1, 105870, Note_on_c, 0, 56, 47
1, 105909, Control_c, 0, 64, 127
1, 105995, Note_on_c, 0, 77, 0
1, 105995, Note_on_c, 0, 82, 0
1, 105995, Note_on_c, 0, 74, 41
1, 106119, Note_on_c, 0, 74, 0
1, 106119, Note_on_c, 0, 62, 36
1, 106119, Note_on_c, 0, 65, 36
1, 106245, Note_on_c, 0, 65, 0
1, 106245, Note_on_c, 0, 62, 0
1, 106245, Note_on_c, 0, 70, 41
1, 106351, Control_c, 0, 64, 0
1, 106369, Note_on_c, 0, 78, 43
1, 106369, Note_on_c, 0, 83, 50
1, 106369, Note_on_c, 0, 70, 0
1, 106411, Control_c, 0, 64, 127
1, 106496, Note_on_c, 0, 83, 0
1, 106496, Note_on_c, 0, 78, 0
1, 106496, Note_on_c, 0, 75, 43
1, 106622, Note_on_c, 0, 75, 0
1, 106622, Note_on_c, 0, 63, 36
1, 106622, Note_on_c, 0, 66, 36
1, 106749, Note_on_c, 0, 66, 0
1, 106749, Note_on_c, 0, 63, 0
1, 106749, Note_on_c, 0, 71, 42
1, 106877, Note_on_c, 0, 85, 53
1, 106877, Note_on_c, 0, 80, 46
1, 106877, Note_on_c, 0, 71, 0
1, 106880, Note_on_c, 0, 56, 0
1, 106880, Control_c, 0, 64, 0
1, 106880, Note_on_c, 0, 59, 50
1, 106932, Control_c, 0, 64, 127
1, 107005, Note_on_c, 0, 80, 0
1, 107005, Note_on_c, 0, 85, 0
1, 107005, Note_on_c, 0, 77, 43
1, 107131, Note_on_c, 0, 77, 0
1, 107131, Note_on_c, 0, 65, 38
1, 107131, Note_on_c, 0, 68, 38
1, 107258, Note_on_c, 0, 68, 0
1, 107258, Note_on_c, 0, 65, 0
1, 107258, Note_on_c, 0, 73, 43
1, 107330, Control_c, 0, 64, 0
1, 107385, Note_on_c, 0, 80, 46
1, 107385, Note_on_c, 0, 85, 53
1, 107385, Note_on_c, 0, 73, 0
1, 107513, Note_on_c, 0, 85, 0
1, 107513, Note_on_c, 0, 80, 0
1, 107513, Note_on_c, 0, 77, 43
1, 107639, Note_on_c, 0, 77, 0
1, 107639, Note_on_c, 0, 65, 38
1, 107639, Note_on_c, 0, 68, 38
1, 107766, Note_on_c, 0, 68, 0
1, 107766, Note_on_c, 0, 65, 0
1, 107766, Note_on_c, 0, 73, 43
1, 107892, Note_on_c, 0, 85, 54
1, 107892, Note_on_c, 0, 80, 47
1, 107892, Note_on_c, 0, 73, 0
1, 107895, Control_c, 0, 64, 127
1, 108017, Note_on_c, 0, 80, 0
1, 108017, Note_on_c, 0, 85, 0
1, 108017, Note_on_c, 0, 77, 44
1, 108141, Note_on_c, 0, 77, 0
1, 108141, Note_on_c, 0, 65, 39
1, 108141, Note_on_c, 0, 68, 39
1, 108267, Note_on_c, 0, 68, 0
1, 108267, Note_on_c, 0, 65, 0
1, 108267, Note_on_c, 0, 73, 44
1, 108368, Control_c, 0, 64, 0
1, 108392, Note_on_c, 0, 80, 47
1, 108392, Note_on_c, 0, 85, 54
1, 108392, Note_on_c, 0, 73, 0
1, 108428, Control_c, 0, 64, 127
1, 108517, Note_on_c, 0, 85, 0
1, 108517, Note_on_c, 0, 80, 0
1, 108517, Note_on_c, 0, 77, 44
1, 108640, Note_on_c, 0, 77, 0
1, 108640, Note_on_c, 0, 65, 39
1, 108640, Note_on_c, 0, 68, 39
1, 108768, Note_on_c, 0, 68, 0
1, 108768, Note_on_c, 0, 65, 0
1, 108768, Note_on_c, 0, 73, 44
1, 108896, Note_on_c, 0, 85, 49
1, 108896, Note_on_c, 0, 81, 42
1, 108896, Note_on_c, 0, 73, 0
1, 108899, Note_on_c, 0, 59, 0
1, 108899, Control_c, 0, 64, 0
1, 108939, Control_c, 0, 64, 127
1, 109024, Note_on_c, 0, 81, 0
1, 109024, Note_on_c, 0, 85, 0
1, 109024, Note_on_c, 0, 77, 39
1, 109150, Note_on_c, 0, 77, 0
1, 109150, Note_on_c, 0, 65, 36
1, 109150, Note_on_c, 0, 69, 36
1, 109277, Note_on_c, 0, 69, 0
1, 109277, Note_on_c, 0, 65, 0
1, 109277, Note_on_c, 0, 73, 38
1, 109379, Control_c, 0, 64, 0
1, 109403, Note_on_c, 0, 81, 42
1, 109403, Note_on_c, 0, 85, 49
1, 109403, Note_on_c, 0, 73, 0
1, 109446, Control_c, 0, 64, 127
1, 109532, Note_on_c, 0, 85, 0
1, 109532, Note_on_c, 0, 81, 0
1, 109532, Note_on_c, 0, 77, 39
1, 109657, Note_on_c, 0, 77, 0
1, 109657, Note_on_c, 0, 65, 36
1, 109657, Note_on_c, 0, 69, 36
1, 109784, Note_on_c, 0, 69, 0
1, 109784, Note_on_c, 0, 65, 0
1, 109784, Note_on_c, 0, 73, 38
1, 109911, Note_on_c, 0, 85, 47
1, 109911, Note_on_c, 0, 81, 39
1, 109911, Note_on_c, 0, 73, 0
1, 109914, Control_c, 0, 64, 0
1, 109973, Control_c, 0, 64, 127
1, 110041, Note_on_c, 0, 81, 0
1, 110041, Note_on_c, 0, 85, 0
1, 110041, Note_on_c, 0, 77, 37
1, 110168, Note_on_c, 0, 77, 0
1, 110168, Note_on_c, 0, 65, 32
1, 110168, Note_on_c, 0, 69, 32
1, 110296, Note_on_c, 0, 69, 0
1, 110296, Note_on_c, 0, 65, 0
1, 110296, Note_on_c, 0, 73, 34
1, 110400, Control_c, 0, 64, 0
1, 110425, Note_on_c, 0, 81, 38
1, 110425, Note_on_c, 0, 85, 44
1, 110425, Note_on_c, 0, 73, 0
1, 110475, Control_c, 0, 64, 127
1, 110555, Note_on_c, 0, 85, 0
1, 110555, Note_on_c, 0, 81, 0
1, 110555, Note_on_c, 0, 77, 36
1, 110683, Note_on_c, 0, 77, 0
1, 110683, Note_on_c, 0, 65, 31
1, 110683, Note_on_c, 0, 69, 31
1, 110817, Note_on_c, 0, 69, 0
1, 110817, Note_on_c, 0, 65, 0
1, 110817, Note_on_c, 0, 73, 33
1, 110874, Control_c, 0, 64, 0
1, 110951, Note_on_c, 0, 85, 43
1, 110951, Note_on_c, 0, 73, 0
1, 110951, Note_on_c, 0, 64, 48
1, 110954, Note_on_c, 0, 66, 58
1, 111016, Note_on_c, 0, 66, 0
1, 111080, Note_on_c, 0, 85, 0
1, 111080, Note_on_c, 0, 81, 41
1, 111210, Note_on_c, 0, 81, 0
1, 111210, Note_on_c, 0, 76, 41
1, 111210, Note_on_c, 0, 73, 58
1, 111305, Note_on_c, 0, 73, 0
1, 111336, Note_on_c, 0, 76, 0
1, 111336, Note_on_c, 0, 73, 43
1, 111463, Note_on_c, 0, 73, 0
1, 111463, Note_on_c, 0, 85, 43
1, 111463, Note_on_c, 0, 71, 59
1, 111591, Note_on_c, 0, 85, 0
1, 111591, Note_on_c, 0, 81, 41
1, 111715, Note_on_c, 0, 81, 0
1, 111715, Note_on_c, 0, 76, 41
1, 111839, Note_on_c, 0, 76, 0
1, 111839, Note_on_c, 0, 73, 42
1, 111964, Note_on_c, 0, 73, 0
1, 111964, Note_on_c, 0, 85, 43
1, 111964, Note_on_c, 0, 64, 0
1, 111967, Note_on_c, 0, 63, 48
1, 112090, Note_on_c, 0, 85, 0
1, 112090, Note_on_c, 0, 81, 41
1, 112214, Note_on_c, 0, 81, 0
1, 112214, Note_on_c, 0, 78, 41
1, 112214, Note_on_c, 0, 71, 0
1, 112217, Note_on_c, 0, 69, 57
1, 112307, Note_on_c, 0, 69, 0
1, 112338, Note_on_c, 0, 78, 0
1, 112338, Note_on_c, 0, 73, 41
1, 112338, Note_on_c, 0, 68, 57
1, 112433, Note_on_c, 0, 68, 0
1, 112464, Note_on_c, 0, 73, 0
1, 112464, Note_on_c, 0, 85, 43
1, 112464, Note_on_c, 0, 63, 0
1, 112467, Note_on_c, 0, 62, 48
1, 112467, Note_on_c, 0, 66, 59
1, 112592, Note_on_c, 0, 85, 0
1, 112592, Note_on_c, 0, 81, 41
1, 112677, Note_on_c, 0, 66, 0
1, 112719, Note_on_c, 0, 81, 0
1, 112719, Note_on_c, 0, 78, 41
1, 112719, Note_on_c, 0, 64, 57
1, 112814, Note_on_c, 0, 64, 0
1, 112846, Note_on_c, 0, 78, 0
1, 112846, Note_on_c, 0, 73, 41
1, 112846, Note_on_c, 0, 62, 57
1, 112941, Note_on_c, 0, 62, 0
1, 112973, Note_on_c, 0, 73, 0
1, 112973, Note_on_c, 0, 85, 43
1, 112973, Note_on_c, 0, 62, 0
1, 112976, Note_on_c, 0, 54, 48
1, 112976, Note_on_c, 0, 61, 59
1, 113103, Note_on_c, 0, 85, 0
1, 113103, Note_on_c, 0, 81, 41
1, 113224, Note_on_c, 0, 61, 0
1, 113229, Note_on_c, 0, 81, 0
1, 113229, Note_on_c, 0, 78, 41
1, 113229, Note_on_c, 0, 62, 57
1, 113324, Note_on_c, 0, 62, 0
1, 113355, Note_on_c, 0, 78, 0
1, 113355, Note_on_c, 0, 73, 41
1, 113355, Note_on_c, 0, 64, 57
1, 113449, Note_on_c, 0, 64, 0
1, 113481, Note_on_c, 0, 73, 0
1, 113481, Note_on_c, 0, 85, 43
1, 113481, Note_on_c, 0, 54, 0
1, 113484, Note_on_c, 0, 57, 50
1, 113484, Note_on_c, 0, 66, 60
1, 113604, Note_on_c, 0, 85, 0
1, 113604, Note_on_c, 0, 81, 41
1, 113604, Note_on_c, 0, 66, 0
1, 113607, Note_on_c, 0, 57, 0
1, 113728, Note_on_c, 0, 81, 0
1, 113728, Note_on_c, 0, 78, 41
1, 113728, Note_on_c, 0, 59, 48
1, 113731, Note_on_c, 0, 69, 58
1, 113853, Note_on_c, 0, 78, 0
1, 113853, Note_on_c, 0, 73, 41
1, 113853, Note_on_c, 0, 69, 0
1, 113856, Note_on_c, 0, 59, 0
1, 113981, Note_on_c, 0, 73, 0
1, 113981, Note_on_c, 0, 85, 44
1, 113981, Note_on_c, 0, 61, 50
1, 113984, Note_on_c, 0, 68, 60
1, 114109, Note_on_c, 0, 85, 0
1, 114109, Note_on_c, 0, 83, 42
1, 114233, Note_on_c, 0, 83, 0
1, 114233, Note_on_c, 0, 78, 42
1, 114357, Note_on_c, 0, 78, 0
1, 114357, Note_on_c, 0, 73, 42
1, 114482, Note_on_c, 0, 73, 0
1, 114482, Note_on_c, 0, 85, 44
1, 114609, Note_on_c, 0, 85, 0
1, 114609, Note_on_c, 0, 83, 42
1, 114737, Note_on_c, 0, 83, 0
1, 114737, Note_on_c, 0, 77, 42
1, 114864, Note_on_c, 0, 77, 0
1, 114864, Note_on_c, 0, 73, 42
1, 114997, Note_on_c, 0, 73, 0
1, 114997, Note_on_c, 0, 68, 0
1, 114997, Note_on_c, 0, 61, 0
1, 115000, Note_on_c, 0, 45, 58
1, 115046, Note_on_c, 0, 45, 0
1, 115127, Note_on_c, 0, 66, 50
1, 115127, Note_on_c, 0, 54, 48
1, 115175, Note_on_c, 0, 54, 0
1, 115222, Note_on_c, 0, 66, 0
1, 115254, Note_on_c, 0, 68, 52
1, 115254, Note_on_c, 0, 61, 48
1, 115301, Note_on_c, 0, 61, 0
1, 115348, Note_on_c, 0, 68, 0
1, 115379, Note_on_c, 0, 69, 54
1, 115379, Note_on_c, 0, 54, 48
1, 115427, Note_on_c, 0, 54, 0
1, 115474, Note_on_c, 0, 69, 0
1, 115506, Note_on_c, 0, 66, 60
1, 115506, Note_on_c, 0, 71, 63
1, 115506, Note_on_c, 0, 44, 52
1, 115554, Note_on_c, 0, 44, 0
1, 115633, Note_on_c, 0, 49, 48
1, 115681, Note_on_c, 0, 49, 0
1, 115760, Note_on_c, 0, 66, 0
1, 115760, Note_on_c, 0, 65, 60
1, 115760, Note_on_c, 0, 59, 48
1, 115808, Note_on_c, 0, 59, 0
1, 115888, Note_on_c, 0, 49, 48
1, 115936, Note_on_c, 0, 49, 0
1, 116016, Note_on_c, 0, 65, 0
1, 116016, Note_on_c, 0, 61, 60
1, 116016, Note_on_c, 0, 42, 54
1, 116063, Note_on_c, 0, 42, 0
1, 116132, Note_on_c, 0, 71, 0
1, 116142, Note_on_c, 0, 69, 62
1, 116142, Note_on_c, 0, 49, 49
1, 116189, Note_on_c, 0, 49, 0
1, 116268, Note_on_c, 0, 69, 0
1, 116268, Note_on_c, 0, 61, 0
1, 116268, Note_on_c, 0, 71, 63
1, 116271, Note_on_c, 0, 57, 50
1, 116314, Note_on_c, 0, 57, 0
1, 116392, Note_on_c, 0, 71, 0
1, 116392, Note_on_c, 0, 73, 63
1, 116392, Note_on_c, 0, 49, 52
1, 116440, Note_on_c, 0, 49, 0
1, 116520, Note_on_c, 0, 73, 0
1, 116520, Note_on_c, 0, 74, 69
1, 116520, Note_on_c, 0, 69, 69
1, 116523, Note_on_c, 0, 47, 58
1, 116568, Note_on_c, 0, 47, 0
1, 116648, Note_on_c, 0, 52, 57
1, 116695, Note_on_c, 0, 52, 0
1, 116775, Note_on_c, 0, 69, 0
1, 116775, Note_on_c, 0, 68, 63
1, 116775, Note_on_c, 0, 62, 57
1, 116823, Note_on_c, 0, 62, 0
1, 116903, Note_on_c, 0, 52, 57
1, 116951, Note_on_c, 0, 52, 0
1, 117031, Note_on_c, 0, 68, 0
1, 117031, Note_on_c, 0, 64, 64
1, 117031, Note_on_c, 0, 45, 60
1, 117079, Note_on_c, 0, 45, 0
1, 117148, Note_on_c, 0, 74, 0
1, 117159, Note_on_c, 0, 73, 68
1, 117159, Note_on_c, 0, 52, 59
1, 117178, Control_c, 0, 64, 127
1, 117208, Note_on_c, 0, 52, 0
1, 117290, Note_on_c, 0, 73, 0
1, 117290, Note_on_c, 0, 64, 0
1, 117290, Note_on_c, 0, 74, 70
1, 117293, Note_on_c, 0, 57, 60
1, 117338, Note_on_c, 0, 57, 0
1, 117418, Note_on_c, 0, 74, 0
1, 117418, Note_on_c, 0, 76, 74
1, 117418, Note_on_c, 0, 61, 60
1, 117469, Note_on_c, 0, 61, 0
1, 117554, Note_on_c, 0, 76, 0
1, 117554, Note_on_c, 0, 74, 73
1, 117554, Note_on_c, 0, 78, 73
1, 117557, Note_on_c, 0, 50, 62
1, 117573, Control_c, 0, 64, 0
1, 117602, Note_on_c, 0, 50, 0
1, 117682, Note_on_c, 0, 57, 53
1, 117730, Note_on_c, 0, 57, 0
1, 117809, Note_on_c, 0, 62, 52
1, 117857, Note_on_c, 0, 62, 0
1, 117936, Note_on_c, 0, 66, 52
1, 117984, Note_on_c, 0, 66, 0
1, 118063, Note_on_c, 0, 57, 57
1, 118112, Note_on_c, 0, 57, 0
1, 118193, Note_on_c, 0, 62, 50
1, 118240, Note_on_c, 0, 62, 0
1, 118320, Note_on_c, 0, 66, 50
1, 118367, Note_on_c, 0, 66, 0
1, 118447, Note_on_c, 0, 69, 50
1, 118510, Note_on_c, 0, 69, 0
1, 118573, Note_on_c, 0, 78, 0
1, 118573, Note_on_c, 0, 74, 0
1, 118573, Note_on_c, 0, 66, 74
1, 118700, Note_on_c, 0, 62, 50
1, 118764, Note_on_c, 0, 62, 0
1, 118827, Note_on_c, 0, 61, 49
1, 118891, Note_on_c, 0, 61, 0
1, 118954, Note_on_c, 0, 59, 49
1, 119018, Note_on_c, 0, 59, 0
1, 119081, Note_on_c, 0, 57, 62
1, 119129, Note_on_c, 0, 57, 0
1, 119208, Note_on_c, 0, 61, 49
1, 119256, Note_on_c, 0, 61, 0
1, 119272, Note_on_c, 0, 66, 0
1, 119336, Note_on_c, 0, 73, 70
1, 119336, Note_on_c, 0, 57, 55
1, 119385, Note_on_c, 0, 57, 0
1, 119401, Note_on_c, 0, 73, 0
1, 119466, Note_on_c, 0, 54, 49
1, 119515, Note_on_c, 0, 54, 0
1, 119597, Note_on_c, 0, 71, 74
1, 119597, Note_on_c, 0, 56, 62
1, 119645, Note_on_c, 0, 56, 0
1, 119726, Note_on_c, 0, 59, 49
1, 119773, Note_on_c, 0, 59, 0
1, 119852, Note_on_c, 0, 64, 57
1, 119899, Note_on_c, 0, 64, 0
1, 119978, Note_on_c, 0, 54, 49
1, 120025, Note_on_c, 0, 54, 0
1, 120104, Note_on_c, 0, 52, 62
1, 120152, Note_on_c, 0, 52, 0
1, 120232, Note_on_c, 0, 59, 48
1, 120279, Note_on_c, 0, 59, 0
1, 120358, Note_on_c, 0, 71, 0
1, 120358, Note_on_c, 0, 69, 71
1, 120358, Note_on_c, 0, 64, 53
1, 120404, Note_on_c, 0, 64, 0
1, 120451, Note_on_c, 0, 69, 0
1, 120482, Note_on_c, 0, 68, 71
1, 120482, Note_on_c, 0, 59, 47
1, 120529, Note_on_c, 0, 59, 0
1, 120577, Note_on_c, 0, 68, 0
1, 120608, Note_on_c, 0, 66, 74
1, 120608, Note_on_c, 0, 47, 58
1, 120656, Note_on_c, 0, 47, 0
1, 120736, Note_on_c, 0, 56, 47
1, 120784, Note_on_c, 0, 56, 0
1, 120820, Note_on_c, 0, 66, 0
1, 120863, Note_on_c, 0, 64, 71
1, 120863, Note_on_c, 0, 62, 49
1, 120910, Note_on_c, 0, 62, 0
1, 120957, Note_on_c, 0, 64, 0
1, 120988, Note_on_c, 0, 62, 70
1, 120988, Note_on_c, 0, 52, 46
1, 121036, Note_on_c, 0, 52, 0
1, 121083, Note_on_c, 0, 62, 0
1, 121115, Note_on_c, 0, 61, 74
1, 121115, Note_on_c, 0, 45, 55
1, 121164, Note_on_c, 0, 45, 0
1, 121244, Note_on_c, 0, 52, 46
1, 121292, Note_on_c, 0, 52, 0
1, 121371, Note_on_c, 0, 61, 0
1, 121371, Note_on_c, 0, 62, 70
1, 121371, Note_on_c, 0, 57, 50
1, 121418, Note_on_c, 0, 57, 0
1, 121496, Note_on_c, 0, 62, 0
1, 121496, Note_on_c, 0, 64, 70
1, 121496, Note_on_c, 0, 52, 47
1, 121544, Note_on_c, 0, 52, 0
1, 121623, Note_on_c, 0, 64, 0
1, 121623, Note_on_c, 0, 66, 75
1, 121623, Note_on_c, 0, 50, 58
1, 121670, Note_on_c, 0, 50, 0
1, 121750, Note_on_c, 0, 57, 47
1, 121797, Note_on_c, 0, 57, 0
1, 121876, Note_on_c, 0, 66, 0
1, 121876, Note_on_c, 0, 69, 73
1, 121876, Note_on_c, 0, 62, 53
1, 121923, Note_on_c, 0, 62, 0
1, 122002, Note_on_c, 0, 49, 48
1, 122051, Note_on_c, 0, 49, 0
1, 122133, Note_on_c, 0, 69, 0
1, 122133, Note_on_c, 0, 66, 75
1, 122133, Note_on_c, 0, 68, 75
1, 122136, Note_on_c, 0, 48, 62
1, 122181, Note_on_c, 0, 48, 0
1, 122261, Note_on_c, 0, 56, 49
1, 122308, Note_on_c, 0, 56, 0
1, 122386, Note_on_c, 0, 63, 55
1, 122433, Note_on_c, 0, 63, 0
1, 122511, Note_on_c, 0, 56, 49
1, 122557, Note_on_c, 0, 56, 0
1, 122635, Note_on_c, 0, 48, 58
1, 122683, Note_on_c, 0, 48, 0
1, 122762, Note_on_c, 0, 56, 47
1, 122809, Note_on_c, 0, 56, 0
1, 122888, Note_on_c, 0, 63, 54
1, 122934, Note_on_c, 0, 63, 0
1, 123012, Note_on_c, 0, 56, 48
1, 123058, Note_on_c, 0, 56, 0
1, 123136, Note_on_c, 0, 48, 62
1, 123183, Note_on_c, 0, 48, 0
1, 123262, Note_on_c, 0, 56, 49
1, 123309, Note_on_c, 0, 56, 0
1, 123387, Note_on_c, 0, 63, 55
1, 123433, Note_on_c, 0, 63, 0
1, 123511, Note_on_c, 0, 56, 49
1, 123557, Note_on_c, 0, 56, 0
1, 123635, Note_on_c, 0, 68, 0
1, 123635, Note_on_c, 0, 66, 0
1, 123635, Note_on_c, 0, 69, 74
1, 123638, Note_on_c, 0, 66, 74
1, 123638, Note_on_c, 0, 49, 62
1, 123656, Control_c, 0, 64, 127
1, 123682, Note_on_c, 0, 49, 0
1, 123761, Note_on_c, 0, 57, 57
1, 123808, Note_on_c, 0, 57, 0
1, 123886, Note_on_c, 0, 66, 0
1, 123886, Note_on_c, 0, 69, 0
1, 123886, Note_on_c, 0, 76, 73
1, 123889, Note_on_c, 0, 80, 73
1, 123889, Note_on_c, 0, 64, 62
1, 123901, Control_c, 0, 64, 0
1, 123934, Note_on_c, 0, 64, 0
1, 123950, Note_on_c, 0, 80, 0
1, 123950, Note_on_c, 0, 76, 0
1, 124014, Note_on_c, 0, 57, 59
1, 124063, Note_on_c, 0, 57, 0
1, 124143, Note_on_c, 0, 66, 71
1, 124143, Note_on_c, 0, 68, 71
1, 124143, Note_on_c, 0, 48, 62
1, 124191, Note_on_c, 0, 48, 0
1, 124270, Note_on_c, 0, 56, 49
1, 124317, Note_on_c, 0, 56, 0
1, 124395, Note_on_c, 0, 68, 0
1, 124395, Note_on_c, 0, 66, 0
1, 124395, Note_on_c, 0, 63, 55
1, 124442, Note_on_c, 0, 63, 0
1, 124520, Note_on_c, 0, 56, 49
1, 124567, Note_on_c, 0, 56, 0
1, 124645, Note_on_c, 0, 66, 65
1, 124645, Note_on_c, 0, 62, 65
1, 124645, Note_on_c, 0, 47, 62
1, 124663, Control_c, 0, 64, 127
1, 124692, Note_on_c, 0, 47, 0
1, 124771, Note_on_c, 0, 52, 57
1, 124818, Note_on_c, 0, 52, 0
1, 124893, Control_c, 0, 64, 0
1, 124896, Note_on_c, 0, 62, 0
1, 124896, Note_on_c, 0, 66, 0
1, 124896, Note_on_c, 0, 76, 69
1, 124899, Note_on_c, 0, 73, 69
1, 124899, Note_on_c, 0, 56, 62
1, 124899, Note_on_c, 0, 62, 62
1, 124944, Note_on_c, 0, 62, 0
1, 124944, Note_on_c, 0, 56, 0
1, 124960, Note_on_c, 0, 73, 0
1, 124960, Note_on_c, 0, 76, 0
1, 125024, Note_on_c, 0, 52, 59
1, 125073, Note_on_c, 0, 52, 0
1, 125153, Note_on_c, 0, 61, 66
1, 125153, Note_on_c, 0, 64, 66
1, 125153, Note_on_c, 0, 45, 62
1, 125201, Note_on_c, 0, 45, 0
1, 125280, Note_on_c, 0, 52, 53
1, 125327, Note_on_c, 0, 52, 0
1, 125405, Note_on_c, 0, 64, 0
1, 125405, Note_on_c, 0, 61, 0
1, 125405, Note_on_c, 0, 57, 58
1, 125452, Note_on_c, 0, 57, 0
1, 125530, Note_on_c, 0, 52, 54
1, 125577, Note_on_c, 0, 52, 0
1, 125655, Note_on_c, 0, 59, 73
1, 125655, Note_on_c, 0, 63, 73
1, 125655, Note_on_c, 0, 42, 62
1, 125668, Control_c, 0, 64, 127
1, 125702, Note_on_c, 0, 42, 0
1, 125781, Note_on_c, 0, 47, 57
1, 125828, Note_on_c, 0, 47, 0
1, 125906, Note_on_c, 0, 63, 0
1, 125906, Note_on_c, 0, 59, 0
1, 125906, Note_on_c, 0, 69, 76
1, 125909, Note_on_c, 0, 73, 76
1, 125909, Note_on_c, 0, 57, 62
1, 125923, Control_c, 0, 64, 0
1, 125954, Note_on_c, 0, 57, 0
1, 125986, Note_on_c, 0, 73, 0
1, 125986, Note_on_c, 0, 69, 0
1, 126034, Note_on_c, 0, 47, 59
1, 126083, Note_on_c, 0, 47, 0
1, 126163, Note_on_c, 0, 61, 76
1, 126163, Note_on_c, 0, 56, 76
1, 126163, Note_on_c, 0, 37, 73
1, 126211, Note_on_c, 0, 37, 0
1, 126290, Note_on_c, 0, 44, 64
1, 126337, Note_on_c, 0, 44, 0
1, 126415, Note_on_c, 0, 53, 68
1, 126462, Note_on_c, 0, 53, 0
1, 126540, Note_on_c, 0, 44, 64
1, 126587, Note_on_c, 0, 44, 0
1, 126665, Note_on_c, 0, 37, 73
1, 126712, Note_on_c, 0, 37, 0
1, 126791, Note_on_c, 0, 44, 64
1, 126838, Note_on_c, 0, 44, 0
1, 126916, Note_on_c, 0, 53, 68
1, 126963, Note_on_c, 0, 53, 0
1, 127041, Note_on_c, 0, 44, 64
1, 127088, Note_on_c, 0, 44, 0
1, 127167, Note_on_c, 0, 37, 73
1, 127215, Note_on_c, 0, 37, 0
1, 127295, Note_on_c, 0, 44, 64
1, 127343, Note_on_c, 0, 44, 0
1, 127423, Note_on_c, 0, 53, 68
1, 127471, Note_on_c, 0, 53, 0
1, 127551, Note_on_c, 0, 44, 64
1, 127599, Note_on_c, 0, 44, 0
1, 127668, Note_on_c, 0, 56, 0
1, 127668, Note_on_c, 0, 61, 0
1, 127679, Note_on_c, 0, 59, 63
1, 127679, Note_on_c, 0, 55, 63
1, 127679, Note_on_c, 0, 37, 62
1, 127690, Control_c, 0, 64, 127
1, 127726, Note_on_c, 0, 37, 0
1, 127805, Note_on_c, 0, 45, 57
1, 127852, Note_on_c, 0, 45, 0
1, 127930, Note_on_c, 0, 55, 0
1, 127930, Note_on_c, 0, 59, 0
1, 127930, Note_on_c, 0, 67, 68
1, 127933, Note_on_c, 0, 71, 68
1, 127933, Note_on_c, 0, 52, 62
1, 127933, Control_c, 0, 64, 0
1, 127978, Note_on_c, 0, 52, 0
1, 128010, Note_on_c, 0, 71, 0
1, 128010, Note_on_c, 0, 67, 0
1, 128059, Note_on_c, 0, 45, 59
1, 128107, Note_on_c, 0, 45, 0
1, 128187, Note_on_c, 0, 61, 66
1, 128187, Note_on_c, 0, 56, 66
1, 128187, Note_on_c, 0, 37, 64
1, 128235, Note_on_c, 0, 37, 0
1, 128314, Note_on_c, 0, 44, 54
1, 128361, Note_on_c, 0, 44, 0
1, 128439, Note_on_c, 0, 53, 58
1, 128486, Note_on_c, 0, 53, 0
1, 128564, Note_on_c, 0, 44, 53
1, 128611, Note_on_c, 0, 44, 0
1, 128689, Note_on_c, 0, 37, 60
1, 128736, Note_on_c, 0, 37, 0
1, 128815, Note_on_c, 0, 44, 52
1, 128862, Note_on_c, 0, 44, 0
1, 128941, Note_on_c, 0, 53, 55
1, 128987, Note_on_c, 0, 53, 0
1, 129066, Note_on_c, 0, 44, 50
1, 129112, Note_on_c, 0, 44, 0
1, 129191, Note_on_c, 0, 37, 58
1, 129239, Note_on_c, 0, 37, 0
1, 129318, Note_on_c, 0, 44, 50
1, 129365, Note_on_c, 0, 44, 0
1, 129443, Note_on_c, 0, 53, 53
1, 129490, Note_on_c, 0, 53, 0
1, 129568, Note_on_c, 0, 44, 49
1, 129615, Note_on_c, 0, 44, 0
1, 129682, Note_on_c, 0, 56, 0
1, 129682, Note_on_c, 0, 61, 0
1, 129693, Note_on_c, 0, 59, 52
1, 129693, Note_on_c, 0, 55, 52
1, 129693, Note_on_c, 0, 37, 53
1, 129710, Control_c, 0, 64, 127
1, 129747, Note_on_c, 0, 37, 0
1, 129836, Note_on_c, 0, 45, 48
1, 129890, Note_on_c, 0, 45, 0
1, 129980, Note_on_c, 0, 55, 0
1, 129980, Note_on_c, 0, 59, 0
1, 129980, Note_on_c, 0, 67, 53
1, 129983, Note_on_c, 0, 71, 53
1, 129983, Note_on_c, 0, 52, 53
1, 129991, Control_c, 0, 64, 0
1, 130037, Note_on_c, 0, 52, 0
1, 130134, Note_on_c, 0, 45, 50
1, 130191, Note_on_c, 0, 45, 0
1, 130211, Note_on_c, 0, 71, 0
1, 130211, Note_on_c, 0, 67, 0
1, 130288, Note_on_c, 0, 54, 53
1, 130288, Note_on_c, 0, 57, 53
1, 130288, Note_on_c, 0, 38, 39
1, 130418, Note_on_c, 0, 38, 0
1, 130418, Note_on_c, 0, 45, 38
1, 130461, Note_on_c, 0, 57, 0
1, 130461, Note_on_c, 0, 54, 0
1, 130461, Note_on_c, 0, 54, 52
1, 130547, Note_on_c, 0, 45, 0
1, 130547, Note_on_c, 0, 50, 38
1, 130634, Note_on_c, 0, 54, 0
1, 130634, Note_on_c, 0, 54, 52
1, 130677, Note_on_c, 0, 50, 0
1, 130677, Note_on_c, 0, 45, 38
1, 130806, Note_on_c, 0, 54, 0
1, 130806, Note_on_c, 0, 54, 55
1, 130806, Note_on_c, 0, 45, 0
1, 130809, Note_on_c, 0, 38, 39
1, 130937, Note_on_c, 0, 38, 0
1, 130937, Note_on_c, 0, 45, 37
1, 131068, Note_on_c, 0, 54, 0
1, 131068, Note_on_c, 0, 57, 52
1, 131068, Note_on_c, 0, 54, 52
1, 131071, Note_on_c, 0, 45, 0
1, 131071, Note_on_c, 0, 50, 37
1, 131199, Note_on_c, 0, 50, 0
1, 131199, Note_on_c, 0, 45, 37
1, 131330, Note_on_c, 0, 54, 0
1, 131330, Note_on_c, 0, 57, 0
1, 131330, Note_on_c, 0, 54, 53
1, 131333, Note_on_c, 0, 59, 53
1, 131333, Note_on_c, 0, 45, 0
1, 131333, Note_on_c, 0, 38, 39
1, 131461, Note_on_c, 0, 38, 0
1, 131461, Note_on_c, 0, 44, 36
1, 131504, Note_on_c, 0, 59, 0
1, 131504, Note_on_c, 0, 54, 0
1, 131504, Note_on_c, 0, 54, 53
1, 131507, Note_on_c, 0, 59, 53
1, 131590, Note_on_c, 0, 44, 0
1, 131590, Note_on_c, 0, 50, 36
1, 131677, Note_on_c, 0, 59, 0
1, 131677, Note_on_c, 0, 54, 0
1, 131677, Note_on_c, 0, 54, 53
1, 131680, Note_on_c, 0, 59, 53
1, 131720, Note_on_c, 0, 50, 0
1, 131720, Note_on_c, 0, 44, 36
1, 131850, Note_on_c, 0, 59, 0
1, 131850, Note_on_c, 0, 54, 0
1, 131850, Note_on_c, 0, 54, 53
1, 131853, Note_on_c, 0, 59, 53
1, 131853, Note_on_c, 0, 44, 0
1, 131853, Note_on_c, 0, 38, 39
1, 131980, Note_on_c, 0, 38, 0
1, 131980, Note_on_c, 0, 44, 36
1, 132023, Note_on_c, 0, 59, 0
1, 132023, Note_on_c, 0, 54, 0
1, 132023, Note_on_c, 0, 54, 52
1, 132026, Note_on_c, 0, 61, 52
1, 132109, Note_on_c, 0, 44, 0
1, 132109, Note_on_c, 0, 50, 36
1, 132195, Note_on_c, 0, 61, 0
1, 132195, Note_on_c, 0, 54, 0
1, 132195, Note_on_c, 0, 54, 52
1, 132198, Note_on_c, 0, 59, 52
1, 132238, Note_on_c, 0, 50, 0
1, 132238, Note_on_c, 0, 44, 36
1, 132367, Note_on_c, 0, 59, 0
1, 132367, Note_on_c, 0, 54, 0
1, 132367, Note_on_c, 0, 54, 53
1, 132370, Note_on_c, 0, 57, 53
1, 132370, Note_on_c, 0, 44, 0
1, 132370, Note_on_c, 0, 38, 39
1, 132498, Note_on_c, 0, 38, 0
1, 132498, Note_on_c, 0, 45, 38
1, 132541, Note_on_c, 0, 57, 0
1, 132541, Note_on_c, 0, 54, 0
1, 132541, Note_on_c, 0, 54, 52
1, 132627, Note_on_c, 0, 45, 0
1, 132627, Note_on_c, 0, 50, 38
1, 132712, Note_on_c, 0, 54, 0
1, 132712, Note_on_c, 0, 54, 52
1, 132755, Note_on_c, 0, 50, 0
1, 132755, Note_on_c, 0, 45, 38
1, 132883, Note_on_c, 0, 54, 0
1, 132883, Note_on_c, 0, 54, 53
1, 132883, Note_on_c, 0, 45, 0
1, 132886, Note_on_c, 0, 38, 39
1, 133014, Note_on_c, 0, 38, 0
1, 133014, Note_on_c, 0, 45, 36
1, 133144, Note_on_c, 0, 54, 0
1, 133144, Note_on_c, 0, 57, 53
1, 133144, Note_on_c, 0, 54, 53
1, 133147, Note_on_c, 0, 45, 0
1, 133147, Note_on_c, 0, 50, 36
1, 133276, Note_on_c, 0, 50, 0
1, 133276, Note_on_c, 0, 45, 36
1, 133407, Note_on_c, 0, 54, 0
1, 133407, Note_on_c, 0, 57, 0
1, 133407, Note_on_c, 0, 56, 53
1, 133410, Note_on_c, 0, 54, 53
1, 133410, Note_on_c, 0, 45, 0
1, 133410, Note_on_c, 0, 38, 50
1, 133538, Note_on_c, 0, 38, 0
1, 133538, Note_on_c, 0, 47, 46
1, 133666, Note_on_c, 0, 47, 0
1, 133666, Note_on_c, 0, 50, 46
1, 133794, Note_on_c, 0, 50, 0
1, 133794, Note_on_c, 0, 54, 46
1, 133922, Note_on_c, 0, 54, 0
1, 133922, Note_on_c, 0, 56, 46
1, 134050, Note_on_c, 0, 56, 0
1, 134050, Note_on_c, 0, 59, 46
1, 134177, Note_on_c, 0, 62, 48
1, 134177, Note_on_c, 0, 59, 0
1, 134304, Note_on_c, 0, 62, 0
1, 134304, Note_on_c, 0, 66, 48
1, 134431, Note_on_c, 0, 66, 0
1, 134431, Note_on_c, 0, 54, 0
1, 134431, Note_on_c, 0, 56, 0
1, 134434, Note_on_c, 0, 66, 49
1, 134434, Note_on_c, 0, 62, 49
1, 134434, Note_on_c, 0, 69, 49
1, 134437, Note_on_c, 0, 38, 39
1, 134562, Note_on_c, 0, 38, 0
1, 134562, Note_on_c, 0, 45, 38
1, 134605, Note_on_c, 0, 69, 0
1, 134605, Note_on_c, 0, 62, 0
1, 134605, Note_on_c, 0, 66, 0
1, 134608, Note_on_c, 0, 62, 48
1, 134608, Note_on_c, 0, 66, 48
1, 134691, Note_on_c, 0, 45, 0
1, 134691, Note_on_c, 0, 50, 38
1, 134777, Note_on_c, 0, 66, 0
1, 134777, Note_on_c, 0, 62, 0
1, 134777, Note_on_c, 0, 62, 48
1, 134780, Note_on_c, 0, 66, 48
1, 134821, Note_on_c, 0, 50, 0
1, 134821, Note_on_c, 0, 54, 38
1, 134950, Note_on_c, 0, 66, 0
1, 134950, Note_on_c, 0, 62, 0
1, 134950, Note_on_c, 0, 62, 52
1, 134953, Note_on_c, 0, 66, 52
1, 134953, Note_on_c, 0, 54, 0
1, 134953, Note_on_c, 0, 57, 39
1, 135081, Note_on_c, 0, 57, 0
1, 135081, Note_on_c, 0, 54, 37
1, 135212, Note_on_c, 0, 66, 0
1, 135212, Note_on_c, 0, 62, 0
1, 135212, Note_on_c, 0, 66, 48
1, 135215, Note_on_c, 0, 62, 48
1, 135215, Note_on_c, 0, 69, 48
1, 135215, Note_on_c, 0, 54, 0
1, 135218, Note_on_c, 0, 50, 37
1, 135343, Note_on_c, 0, 50, 0
1, 135343, Note_on_c, 0, 45, 37
1, 135474, Note_on_c, 0, 69, 0
1, 135474, Note_on_c, 0, 62, 0
1, 135474, Note_on_c, 0, 66, 0
1, 135477, Note_on_c, 0, 71, 49
1, 135477, Note_on_c, 0, 62, 49
1, 135477, Note_on_c, 0, 66, 49
1, 135480, Note_on_c, 0, 45, 0
1, 135480, Note_on_c, 0, 38, 39
1, 135603, Note_on_c, 0, 38, 0
1, 135603, Note_on_c, 0, 44, 36
1, 135645, Note_on_c, 0, 66, 0
1, 135645, Note_on_c, 0, 62, 0
1, 135645, Note_on_c, 0, 71, 0
1, 135648, Note_on_c, 0, 66, 49
1, 135648, Note_on_c, 0, 62, 49
1, 135648, Note_on_c, 0, 71, 49
1, 135730, Note_on_c, 0, 44, 0
1, 135730, Note_on_c, 0, 50, 36
1, 135815, Note_on_c, 0, 71, 0
1, 135815, Note_on_c, 0, 62, 0
1, 135815, Note_on_c, 0, 66, 0
1, 135818, Note_on_c, 0, 62, 49
1, 135818, Note_on_c, 0, 71, 49
1, 135818, Note_on_c, 0, 66, 49
1, 135858, Note_on_c, 0, 50, 0
1, 135858, Note_on_c, 0, 54, 36
1, 135985, Note_on_c, 0, 66, 0
1, 135985, Note_on_c, 0, 71, 0
1, 135985, Note_on_c, 0, 62, 0
1, 135988, Note_on_c, 0, 66, 49
1, 135988, Note_on_c, 0, 62, 49
1, 135988, Note_on_c, 0, 71, 49
1, 135991, Note_on_c, 0, 54, 0
1, 135991, Note_on_c, 0, 56, 39
1, 136115, Note_on_c, 0, 56, 0
1, 136115, Note_on_c, 0, 54, 36
1, 136158, Note_on_c, 0, 71, 0
1, 136158, Note_on_c, 0, 62, 0
1, 136158, Note_on_c, 0, 66, 0
1, 136161, Note_on_c, 0, 73, 48
1, 136161, Note_on_c, 0, 64, 48
1, 136161, Note_on_c, 0, 66, 48
1, 136244, Note_on_c, 0, 54, 0
1, 136244, Note_on_c, 0, 50, 36
1, 136330, Note_on_c, 0, 66, 0
1, 136330, Note_on_c, 0, 64, 0
1, 136330, Note_on_c, 0, 73, 0
1, 136333, Note_on_c, 0, 66, 48
1, 136333, Note_on_c, 0, 62, 48
1, 136333, Note_on_c, 0, 71, 48
1, 136373, Note_on_c, 0, 50, 0
1, 136373, Note_on_c, 0, 44, 36
1, 136500, Note_on_c, 0, 71, 0
1, 136500, Note_on_c, 0, 62, 0
1, 136500, Note_on_c, 0, 66, 0
1, 136503, Note_on_c, 0, 62, 49
1, 136503, Note_on_c, 0, 69, 49
1, 136503, Note_on_c, 0, 66, 49
1, 136506, Note_on_c, 0, 44, 0
1, 136506, Note_on_c, 0, 38, 39
1, 136631, Note_on_c, 0, 38, 0
1, 136631, Note_on_c, 0, 45, 38
1, 136674, Note_on_c, 0, 66, 0
1, 136674, Note_on_c, 0, 69, 0
1, 136674, Note_on_c, 0, 62, 0
1, 136677, Note_on_c, 0, 66, 48
1, 136677, Note_on_c, 0, 62, 49
1, 136761, Note_on_c, 0, 45, 0
1, 136761, Note_on_c, 0, 50, 38
1, 136847, Note_on_c, 0, 62, 0
1, 136847, Note_on_c, 0, 66, 0
1, 136847, Note_on_c, 0, 66, 48
1, 136850, Note_on_c, 0, 62, 49
1, 136890, Note_on_c, 0, 50, 0
1, 136890, Note_on_c, 0, 54, 38
1, 137019, Note_on_c, 0, 62, 0
1, 137019, Note_on_c, 0, 66, 0
1, 137019, Note_on_c, 0, 66, 49
1, 137022, Note_on_c, 0, 62, 49
1, 137022, Note_on_c, 0, 54, 0
1, 137022, Note_on_c, 0, 57, 39
1, 137156, Note_on_c, 0, 57, 0
1, 137156, Note_on_c, 0, 54, 36
1, 137292, Note_on_c, 0, 62, 0
1, 137292, Note_on_c, 0, 66, 0
1, 137292, Note_on_c, 0, 69, 49
1, 137295, Note_on_c, 0, 61, 49
1, 137295, Note_on_c, 0, 62, 49
1, 137295, Note_on_c, 0, 66, 49
1, 137298, Note_on_c, 0, 54, 0
1, 137298, Note_on_c, 0, 50, 36
1, 137438, Note_on_c, 0, 50, 0
1, 137438, Note_on_c, 0, 45, 36
1, 137583, Note_on_c, 0, 66, 0
1, 137583, Note_on_c, 0, 69, 0
1, 137583, Note_on_c, 0, 61, 0
1, 137586, Note_on_c, 0, 62, 0
1, 137586, Note_on_c, 0, 59, 53
1, 137586, Note_on_c, 0, 66, 53
1, 137589, Note_on_c, 0, 62, 53
1, 137589, Note_on_c, 0, 68, 53
1, 137589, Note_on_c, 0, 45, 0
1, 137592, Note_on_c, 0, 40, 50
1, 137715, Note_on_c, 0, 40, 0
1, 137715, Note_on_c, 0, 47, 46
1, 137844, Note_on_c, 0, 47, 0
1, 137844, Note_on_c, 0, 52, 46
1, 137974, Note_on_c, 0, 52, 0
1, 137974, Note_on_c, 0, 54, 46
1, 138103, Note_on_c, 0, 54, 0
1, 138103, Note_on_c, 0, 56, 49
1, 138232, Note_on_c, 0, 56, 0
1, 138232, Note_on_c, 0, 54, 46
1, 138361, Note_on_c, 0, 54, 0
1, 138361, Note_on_c, 0, 56, 46
1, 138489, Note_on_c, 0, 56, 0
1, 138489, Note_on_c, 0, 59, 46
1, 138618, Note_on_c, 0, 68, 0
1, 138618, Note_on_c, 0, 59, 0
1, 138618, Note_on_c, 0, 66, 0
1, 138621, Note_on_c, 0, 62, 0
1, 138621, Note_on_c, 0, 59, 0
1, 138621, Note_on_c, 0, 62, 52
1, 138745, Note_on_c, 0, 59, 46
1, 138872, Note_on_c, 0, 59, 0
1, 138872, Note_on_c, 0, 62, 0
1, 138872, Note_on_c, 0, 62, 49
1, 138999, Note_on_c, 0, 62, 0
1, 138999, Note_on_c, 0, 64, 49
1, 139125, Note_on_c, 0, 66, 49
1, 139125, Note_on_c, 0, 64, 0
1, 139253, Note_on_c, 0, 66, 0
1, 139253, Note_on_c, 0, 68, 48
1, 139378, Note_on_c, 0, 68, 0
1, 139378, Note_on_c, 0, 71, 48
1, 139503, Note_on_c, 0, 71, 0
1, 139503, Note_on_c, 0, 74, 49
1, 139627, Note_on_c, 0, 74, 0
1, 139627, Note_on_c, 0, 78, 58
1, 139627, Control_c, 0, 64, 127
1, 139752, Note_on_c, 0, 78, 0
1, 139752, Note_on_c, 0, 74, 53
1, 139877, Note_on_c, 0, 74, 0
1, 139877, Note_on_c, 0, 71, 53
1, 140001, Note_on_c, 0, 71, 0
1, 140001, Note_on_c, 0, 66, 49
1, 140122, Control_c, 0, 64, 0
1, 140122, Note_on_c, 0, 68, 49
1, 140247, Note_on_c, 0, 71, 49
1, 140370, Note_on_c, 0, 71, 0
1, 140370, Note_on_c, 0, 74, 49
1, 140493, Note_on_c, 0, 74, 0
1, 140493, Note_on_c, 0, 76, 49
1, 140616, Note_on_c, 0, 76, 0
1, 140616, Note_on_c, 0, 78, 58
1, 140616, Note_on_c, 0, 68, 0
1, 140619, Note_on_c, 0, 66, 0
1, 140619, Control_c, 0, 64, 127
1, 140742, Note_on_c, 0, 78, 0
1, 140742, Note_on_c, 0, 74, 53
1, 140866, Note_on_c, 0, 74, 0
1, 140866, Note_on_c, 0, 71, 53
1, 140990, Note_on_c, 0, 71, 0
1, 140990, Note_on_c, 0, 64, 48
1, 141112, Control_c, 0, 64, 0
1, 141112, Note_on_c, 0, 68, 48
1, 141236, Note_on_c, 0, 71, 48
1, 141360, Note_on_c, 0, 71, 0
1, 141360, Note_on_c, 0, 74, 48
1, 141481, Note_on_c, 0, 74, 0
1, 141481, Note_on_c, 0, 76, 48
1, 141602, Note_on_c, 0, 76, 0
1, 141602, Note_on_c, 0, 78, 55
1, 141602, Note_on_c, 0, 68, 0
1, 141605, Note_on_c, 0, 64, 0
1, 141605, Control_c, 0, 64, 127
1, 141726, Note_on_c, 0, 78, 0
1, 141726, Note_on_c, 0, 74, 50
1, 141848, Note_on_c, 0, 74, 0
1, 141848, Note_on_c, 0, 71, 49
1, 141971, Note_on_c, 0, 71, 0
1, 141971, Note_on_c, 0, 66, 46
1, 142092, Control_c, 0, 64, 0
1, 142092, Note_on_c, 0, 68, 46
1, 142216, Note_on_c, 0, 71, 44
1, 142340, Note_on_c, 0, 71, 0
1, 142340, Note_on_c, 0, 74, 44
1, 142463, Note_on_c, 0, 74, 0
1, 142463, Note_on_c, 0, 76, 43
1, 142586, Note_on_c, 0, 76, 0
1, 142586, Note_on_c, 0, 78, 50
1, 142586, Note_on_c, 0, 68, 0
1, 142589, Note_on_c, 0, 66, 0
1, 142589, Control_c, 0, 64, 127
1, 142711, Note_on_c, 0, 78, 0
1, 142711, Note_on_c, 0, 74, 47
1, 142835, Note_on_c, 0, 74, 0
1, 142835, Note_on_c, 0, 71, 46
1, 142958, Note_on_c, 0, 71, 0
1, 142958, Note_on_c, 0, 64, 42
1, 143080, Control_c, 0, 64, 0
1, 143080, Note_on_c, 0, 68, 42
1, 143207, Note_on_c, 0, 71, 42
1, 143337, Note_on_c, 0, 71, 0
1, 143337, Note_on_c, 0, 74, 41
1, 143471, Note_on_c, 0, 74, 0
1, 143471, Note_on_c, 0, 76, 39
1, 143610, Note_on_c, 0, 76, 0
1, 143610, Note_on_c, 0, 78, 63
1, 143610, Note_on_c, 0, 68, 0
1, 143613, Note_on_c, 0, 64, 0
1, 143613, Control_c, 0, 64, 127
1, 143745, Note_on_c, 0, 54, 38
1, 143881, Note_on_c, 0, 78, 0
1, 143881, Note_on_c, 0, 85, 63
1, 143881, Note_on_c, 0, 54, 0
1, 143884, Note_on_c, 0, 66, 38
1, 143884, Note_on_c, 0, 61, 38
1, 144012, Note_on_c, 0, 61, 0
1, 144012, Note_on_c, 0, 66, 0
1, 144012, Note_on_c, 0, 69, 38
1, 144131, Control_c, 0, 64, 0
1, 144143, Note_on_c, 0, 85, 0
1, 144143, Note_on_c, 0, 81, 49
1, 144143, Note_on_c, 0, 84, 65
1, 144146, Note_on_c, 0, 78, 49
1, 144146, Note_on_c, 0, 69, 0
1, 144182, Control_c, 0, 64, 127
1, 144280, Note_on_c, 0, 57, 38
1, 144411, Note_on_c, 0, 57, 0
1, 144411, Note_on_c, 0, 62, 38
1, 144411, Note_on_c, 0, 66, 38
1, 144543, Note_on_c, 0, 66, 0
1, 144543, Note_on_c, 0, 62, 0
1, 144543, Note_on_c, 0, 72, 38
1, 144679, Note_on_c, 0, 78, 0
1, 144679, Note_on_c, 0, 84, 0
1, 144679, Note_on_c, 0, 81, 0
1, 144682, Note_on_c, 0, 85, 63
1, 144682, Note_on_c, 0, 72, 0
1, 144682, Control_c, 0, 64, 0
1, 144750, Control_c, 0, 64, 127
1, 144814, Note_on_c, 0, 61, 38
1, 144949, Note_on_c, 0, 85, 0
1, 144949, Note_on_c, 0, 81, 49
1, 144949, Note_on_c, 0, 88, 63
1, 144952, Note_on_c, 0, 78, 49
1, 144952, Note_on_c, 0, 61, 0
1, 144952, Note_on_c, 0, 66, 38
1, 145082, Note_on_c, 0, 66, 0
1, 145082, Note_on_c, 0, 76, 38
1, 145190, Control_c, 0, 64, 0
1, 145216, Note_on_c, 0, 78, 0
1, 145216, Note_on_c, 0, 88, 0
1, 145216, Note_on_c, 0, 81, 0
1, 145219, Note_on_c, 0, 87, 65
1, 145219, Note_on_c, 0, 76, 0
1, 145248, Control_c, 0, 64, 127
1, 145354, Note_on_c, 0, 59, 33
1, 145399, Note_on_c, 0, 87, 0
1, 145399, Note_on_c, 0, 78, 49
1, 145399, Note_on_c, 0, 83, 60
1, 145489, Note_on_c, 0, 59, 0
1, 145489, Note_on_c, 0, 66, 30
1, 145579, Note_on_c, 0, 83, 0
1, 145579, Note_on_c, 0, 78, 0
1, 145579, Note_on_c, 0, 81, 59
1, 145624, Note_on_c, 0, 66, 0
1, 145624, Note_on_c, 0, 75, 31
1, 145761, Note_on_c, 0, 81, 0
1, 145761, Note_on_c, 0, 78, 63
1, 145761, Note_on_c, 0, 75, 0
1, 145764, Control_c, 0, 64, 0
1, 145807, Control_c, 0, 64, 127
1, 145898, Note_on_c, 0, 54, 38
1, 146035, Note_on_c, 0, 78, 0
1, 146035, Note_on_c, 0, 85, 63
1, 146035, Note_on_c, 0, 54, 0
1, 146038, Note_on_c, 0, 66, 38
1, 146038, Note_on_c, 0, 61, 38
1, 146168, Note_on_c, 0, 61, 0
1, 146168, Note_on_c, 0, 66, 0
1, 146168, Note_on_c, 0, 69, 38
1, 146289, Control_c, 0, 64, 0
1, 146301, Note_on_c, 0, 85, 0
1, 146301, Note_on_c, 0, 78, 49
1, 146301, Note_on_c, 0, 81, 49
1, 146304, Note_on_c, 0, 84, 65
1, 146304, Note_on_c, 0, 69, 0
1, 146360, Control_c, 0, 64, 127
1, 146438, Note_on_c, 0, 57, 38
1, 146571, Note_on_c, 0, 57, 0
1, 146571, Note_on_c, 0, 62, 38
1, 146571, Note_on_c, 0, 66, 38
1, 146703, Note_on_c, 0, 66, 0
1, 146703, Note_on_c, 0, 62, 0
1, 146703, Note_on_c, 0, 72, 38
1, 146839, Note_on_c, 0, 84, 0
1, 146839, Note_on_c, 0, 81, 0
1, 146839, Note_on_c, 0, 78, 0
1, 146842, Note_on_c, 0, 85, 63
1, 146842, Note_on_c, 0, 72, 0
1, 146842, Control_c, 0, 64, 0
1, 146909, Control_c, 0, 64, 127
1, 146973, Note_on_c, 0, 61, 38
1, 147107, Note_on_c, 0, 85, 0
1, 147107, Note_on_c, 0, 78, 43
1, 147107, Note_on_c, 0, 81, 43
1, 147110, Note_on_c, 0, 88, 63
1, 147110, Note_on_c, 0, 61, 0
1, 147110, Note_on_c, 0, 66, 38
1, 147242, Note_on_c, 0, 66, 0
1, 147242, Note_on_c, 0, 76, 38
1, 147378, Note_on_c, 0, 88, 0
1, 147378, Note_on_c, 0, 81, 0
1, 147378, Note_on_c, 0, 78, 0
1, 147381, Note_on_c, 0, 87, 65
1, 147381, Note_on_c, 0, 76, 0
1, 147405, Control_c, 0, 64, 0
1, 147459, Control_c, 0, 64, 127
1, 147521, Note_on_c, 0, 59, 33
1, 147567, Note_on_c, 0, 87, 0
1, 147567, Note_on_c, 0, 83, 60
1, 147567, Note_on_c, 0, 78, 49
1, 147660, Note_on_c, 0, 59, 0
1, 147660, Note_on_c, 0, 66, 30
1, 147753, Note_on_c, 0, 78, 0
1, 147753, Note_on_c, 0, 83, 0
1, 147753, Note_on_c, 0, 81, 59
1, 147800, Note_on_c, 0, 66, 0
1, 147800, Note_on_c, 0, 75, 30
1, 147942, Note_on_c, 0, 81, 0
1, 147942, Note_on_c, 0, 73, 60
1, 147942, Note_on_c, 0, 75, 0
1, 147945, Control_c, 0, 64, 0
1, 148001, Control_c, 0, 64, 127
1, 148080, Note_on_c, 0, 49, 34
1, 148219, Note_on_c, 0, 73, 0
1, 148219, Note_on_c, 0, 66, 32
1, 148219, Note_on_c, 0, 69, 32
1, 148222, Note_on_c, 0, 76, 60
1, 148222, Note_on_c, 0, 49, 0
1, 148222, Note_on_c, 0, 54, 31
1, 148364, Note_on_c, 0, 54, 0
1, 148364, Note_on_c, 0, 64, 31
1, 148475, Control_c, 0, 64, 0
1, 148510, Note_on_c, 0, 76, 0
1, 148510, Note_on_c, 0, 69, 0
1, 148510, Note_on_c, 0, 66, 0
1, 148513, Note_on_c, 0, 75, 64
1, 148513, Note_on_c, 0, 64, 0
1, 148551, Control_c, 0, 64, 127
1, 148653, Note_on_c, 0, 47, 34
1, 148701, Note_on_c, 0, 75, 0
1, 148701, Note_on_c, 0, 66, 46
1, 148701, Note_on_c, 0, 71, 59
1, 148795, Note_on_c, 0, 47, 0
1, 148795, Note_on_c, 0, 54, 36
1, 148890, Note_on_c, 0, 71, 0
1, 148890, Note_on_c, 0, 66, 0
1, 148890, Note_on_c, 0, 69, 57
1, 148938, Note_on_c, 0, 54, 0
1, 148938, Note_on_c, 0, 63, 34
1, 149020, Control_c, 0, 64, 0
1, 149094, Note_on_c, 0, 69, 0
1, 149094, Note_on_c, 0, 73, 54
1, 149094, Note_on_c, 0, 63, 0
1, 149097, Note_on_c, 0, 45, 47
1, 149242, Note_on_c, 0, 45, 0
1, 149242, Note_on_c, 0, 51, 43
1, 149374, Note_on_c, 0, 51, 0
1, 149374, Note_on_c, 0, 54, 43
1, 149505, Note_on_c, 0, 54, 0
1, 149505, Note_on_c, 0, 57, 42
1, 149636, Note_on_c, 0, 57, 0
1, 149636, Note_on_c, 0, 61, 48
1, 149770, Note_on_c, 0, 63, 44
1, 149770, Note_on_c, 0, 61, 0
1, 149901, Note_on_c, 0, 63, 0
1, 149901, Note_on_c, 0, 66, 44
1, 150031, Note_on_c, 0, 66, 0
1, 150031, Note_on_c, 0, 69, 44
1, 150160, Note_on_c, 0, 69, 0
1, 150160, Note_on_c, 0, 73, 0
1, 150160, Note_on_c, 0, 73, 46
1, 150291, Note_on_c, 0, 73, 0
1, 150291, Note_on_c, 0, 75, 43
1, 150421, Note_on_c, 0, 75, 0
1, 150421, Note_on_c, 0, 78, 42
1, 150550, Note_on_c, 0, 78, 0
1, 150550, Note_on_c, 0, 81, 42
1, 150678, Note_on_c, 0, 81, 0
1, 150678, Note_on_c, 0, 85, 46
1, 150809, Note_on_c, 0, 87, 44
1, 150809, Note_on_c, 0, 85, 0
1, 150937, Note_on_c, 0, 87, 0
1, 150937, Note_on_c, 0, 90, 44
1, 151070, Note_on_c, 0, 90, 0
1, 151070, Note_on_c, 0, 93, 43
1, 151210, Note_on_c, 0, 93, 0
1, 151210, Note_on_c, 0, 95, 49
1, 151210, Note_on_c, 0, 97, 49
1, 151213, Note_on_c, 0, 44, 44
1, 151349, Note_on_c, 0, 44, 0
1, 151349, Note_on_c, 0, 53, 42
1, 151482, Note_on_c, 0, 53, 0
1, 151482, Note_on_c, 0, 56, 42
1, 151613, Note_on_c, 0, 56, 0
1, 151613, Note_on_c, 0, 59, 42
1, 151744, Note_on_c, 0, 65, 44
1, 151744, Note_on_c, 0, 59, 0
1, 151744, Note_on_c, 0, 61, 47
1, 151878, Note_on_c, 0, 65, 0
1, 151878, Note_on_c, 0, 68, 44
1, 151878, Note_on_c, 0, 61, 0
1, 152009, Note_on_c, 0, 68, 0
1, 152009, Note_on_c, 0, 71, 44
1, 152137, Note_on_c, 0, 71, 0
1, 152137, Note_on_c, 0, 73, 44
1, 152266, Note_on_c, 0, 73, 0
1, 152266, Note_on_c, 0, 97, 0
1, 152266, Note_on_c, 0, 95, 0
1, 152269, Note_on_c, 0, 77, 46
1, 152397, Note_on_c, 0, 77, 0
1, 152397, Note_on_c, 0, 80, 43
1, 152526, Note_on_c, 0, 80, 0
1, 152526, Note_on_c, 0, 83, 42
1, 152655, Note_on_c, 0, 83, 0
1, 152655, Note_on_c, 0, 85, 42
1, 152784, Note_on_c, 0, 89, 43
1, 152784, Note_on_c, 0, 85, 0
1, 152915, Note_on_c, 0, 89, 0
1, 152915, Note_on_c, 0, 92, 42
1, 153049, Note_on_c, 0, 92, 0
1, 153049, Note_on_c, 0, 95, 41
1, 153185, Note_on_c, 0, 95, 0
1, 153185, Note_on_c, 0, 97, 39
1, 153325, Note_on_c, 0, 97, 0
1, 153325, Note_on_c, 0, 97, 44
1, 153325, Note_on_c, 0, 102, 44
1, 153328, Note_on_c, 0, 30, 42
1, 153328, Note_on_c, 0, 37, 42
1, 153328, Note_on_c, 0, 42, 42
1, 153462, Note_on_c, 0, 102, 0
1, 153462, Note_on_c, 0, 97, 0
1, 153462, Note_on_c, 0, 90, 44
1, 153597, Note_on_c, 0, 90, 0
1, 153597, Note_on_c, 0, 102, 44
1, 153597, Note_on_c, 0, 97, 44
1, 153733, Note_on_c, 0, 97, 0
1, 153733, Note_on_c, 0, 102, 0
1, 153733, Note_on_c, 0, 90, 44
1, 153870, Note_on_c, 0, 90, 0
1, 153870, Note_on_c, 0, 90, 42
1, 153870, Note_on_c, 0, 97, 42
1, 153873, Note_on_c, 0, 42, 0
1, 153873, Note_on_c, 0, 37, 0
1, 153873, Note_on_c, 0, 30, 0
1, 153876, Note_on_c, 0, 37, 42
1, 153876, Note_on_c, 0, 42, 42
1, 153876, Note_on_c, 0, 49, 42
1, 154003, Note_on_c, 0, 97, 0
1, 154003, Note_on_c, 0, 90, 0
1, 154003, Note_on_c, 0, 85, 42
1, 154133, Note_on_c, 0, 85, 0
1, 154133, Note_on_c, 0, 97, 42
1, 154133, Note_on_c, 0, 90, 42
1, 154263, Note_on_c, 0, 90, 0
1, 154263, Note_on_c, 0, 97, 0
1, 154263, Note_on_c, 0, 85, 42
1, 154395, Note_on_c, 0, 85, 0
1, 154395, Note_on_c, 0, 99, 44
1, 154395, Note_on_c, 0, 90, 44
1, 154398, Note_on_c, 0, 49, 0
1, 154398, Note_on_c, 0, 42, 0
1, 154398, Note_on_c, 0, 37, 0
1, 154401, Note_on_c, 0, 35, 42
1, 154401, Note_on_c, 0, 42, 42
1, 154401, Note_on_c, 0, 47, 42
1, 154527, Note_on_c, 0, 90, 0
1, 154527, Note_on_c, 0, 99, 0
1, 154527, Note_on_c, 0, 87, 44
1, 154657, Note_on_c, 0, 87, 0
1, 154657, Note_on_c, 0, 90, 44
1, 154657, Note_on_c, 0, 99, 44
1, 154787, Note_on_c, 0, 99, 0
1, 154787, Note_on_c, 0, 90, 0
1, 154787, Note_on_c, 0, 87, 44
1, 154917, Note_on_c, 0, 87, 0
1, 154917, Note_on_c, 0, 95, 42
1, 154917, Note_on_c, 0, 90, 42
1, 155048, Note_on_c, 0, 90, 0
1, 155048, Note_on_c, 0, 95, 0
1, 155048, Note_on_c, 0, 83, 42
1, 155178, Note_on_c, 0, 83, 0
1, 155178, Note_on_c, 0, 90, 42
1, 155178, Note_on_c, 0, 95, 42
1, 155307, Note_on_c, 0, 95, 0
1, 155307, Note_on_c, 0, 90, 0
1, 155307, Note_on_c, 0, 83, 42
1, 155439, Note_on_c, 0, 83, 0
1, 155439, Note_on_c, 0, 90, 44
1, 155439, Note_on_c, 0, 85, 44
1, 155442, Note_on_c, 0, 47, 0
1, 155442, Note_on_c, 0, 42, 0
1, 155442, Note_on_c, 0, 35, 0
1, 155445, Note_on_c, 0, 30, 42
1, 155445, Note_on_c, 0, 37, 42
1, 155445, Note_on_c, 0, 42, 42
1, 155572, Note_on_c, 0, 85, 0
1, 155572, Note_on_c, 0, 90, 0
1, 155572, Note_on_c, 0, 78, 44
1, 155702, Note_on_c, 0, 78, 0
1, 155702, Note_on_c, 0, 85, 44
1, 155702, Note_on_c, 0, 90, 44
1, 155832, Note_on_c, 0, 90, 0
1, 155832, Note_on_c, 0, 85, 0
1, 155832, Note_on_c, 0, 78, 44
1, 155963, Note_on_c, 0, 78, 0
1, 155963, Note_on_c, 0, 85, 42
1, 155963, Note_on_c, 0, 78, 42
1, 155966, Note_on_c, 0, 42, 0
1, 155966, Note_on_c, 0, 37, 0
1, 155966, Note_on_c, 0, 30, 0
1, 155969, Note_on_c, 0, 37, 42
1, 155969, Note_on_c, 0, 42, 42
1, 155969, Note_on_c, 0, 49, 42
1, 156092, Note_on_c, 0, 78, 0
1, 156092, Note_on_c, 0, 85, 0
1, 156092, Note_on_c, 0, 73, 42
1, 156222, Note_on_c, 0, 73, 0
1, 156222, Note_on_c, 0, 78, 42
1, 156222, Note_on_c, 0, 85, 42
1, 156351, Note_on_c, 0, 85, 0
1, 156351, Note_on_c, 0, 78, 0
1, 156351, Note_on_c, 0, 73, 42
1, 156482, Note_on_c, 0, 73, 0
1, 156482, Note_on_c, 0, 87, 44
1, 156482, Note_on_c, 0, 78, 44
1, 156485, Note_on_c, 0, 49, 0
1, 156485, Note_on_c, 0, 42, 0
1, 156485, Note_on_c, 0, 37, 0
1, 156488, Note_on_c, 0, 35, 42
1, 156488, Note_on_c, 0, 42, 42
1, 156488, Note_on_c, 0, 47, 42
1, 156612, Note_on_c, 0, 78, 0
1, 156612, Note_on_c, 0, 87, 0
1, 156612, Note_on_c, 0, 75, 44
1, 156741, Note_on_c, 0, 75, 0
1, 156741, Note_on_c, 0, 78, 44
1, 156741, Note_on_c, 0, 87, 44
1, 156869, Note_on_c, 0, 87, 0
1, 156869, Note_on_c, 0, 78, 0
1, 156869, Note_on_c, 0, 75, 44
1, 156997, Note_on_c, 0, 75, 0
1, 156997, Note_on_c, 0, 83, 41
1, 156997, Note_on_c, 0, 78, 41
1, 157125, Note_on_c, 0, 78, 0
1, 157125, Note_on_c, 0, 83, 0
1, 157125, Note_on_c, 0, 71, 41
1, 157253, Note_on_c, 0, 71, 0
1, 157253, Note_on_c, 0, 83, 41
1, 157253, Note_on_c, 0, 78, 41
1, 157381, Note_on_c, 0, 78, 0
1, 157381, Note_on_c, 0, 83, 0
1, 157381, Note_on_c, 0, 71, 41
1, 157512, Note_on_c, 0, 71, 0
1, 157512, Note_on_c, 0, 73, 42
1, 157512, Note_on_c, 0, 78, 42
1, 157515, Note_on_c, 0, 47, 0
1, 157515, Note_on_c, 0, 42, 0
1, 157515, Note_on_c, 0, 35, 0
1, 157518, Note_on_c, 0, 30, 42
1, 157518, Note_on_c, 0, 37, 42
1, 157518, Note_on_c, 0, 42, 42
1, 157642, Note_on_c, 0, 78, 0
1, 157642, Note_on_c, 0, 73, 0
1, 157642, Note_on_c, 0, 66, 42
1, 157771, Note_on_c, 0, 66, 0
1, 157771, Note_on_c, 0, 78, 42
1, 157771, Note_on_c, 0, 73, 42
1, 157900, Note_on_c, 0, 73, 0
1, 157900, Note_on_c, 0, 78, 0
1, 157900, Note_on_c, 0, 66, 42
1, 158030, Note_on_c, 0, 66, 0
1, 158030, Note_on_c, 0, 66, 39
1, 158030, Note_on_c, 0, 73, 39
1, 158033, Note_on_c, 0, 42, 0
1, 158033, Note_on_c, 0, 37, 0
1, 158033, Note_on_c, 0, 30, 0
1, 158036, Note_on_c, 0, 42, 42
1, 158036, Note_on_c, 0, 37, 42
1, 158036, Note_on_c, 0, 49, 42
1, 158160, Note_on_c, 0, 73, 0
1, 158160, Note_on_c, 0, 66, 0
1, 158160, Note_on_c, 0, 61, 39
1, 158294, Note_on_c, 0, 61, 0
1, 158294, Note_on_c, 0, 73, 39
1, 158294, Note_on_c, 0, 66, 39
1, 158428, Note_on_c, 0, 66, 0
1, 158428, Note_on_c, 0, 73, 0
1, 158428, Note_on_c, 0, 61, 39
1, 158565, Note_on_c, 0, 61, 0
1, 158565, Note_on_c, 0, 66, 42
1, 158565, Note_on_c, 0, 63, 42
1, 158568, Note_on_c, 0, 75, 42
1, 158568, Note_on_c, 0, 49, 0
1, 158568, Note_on_c, 0, 37, 0
1, 158571, Note_on_c, 0, 42, 0
1, 158571, Note_on_c, 0, 35, 42
1, 158608, Control_c, 0, 64, 127
1, 158694, Note_on_c, 0, 35, 0
1, 158694, Note_on_c, 0, 42, 42
1, 158823, Note_on_c, 0, 42, 0
1, 158823, Note_on_c, 0, 47, 42
1, 158952, Note_on_c, 0, 47, 0
1, 158952, Note_on_c, 0, 51, 42
1, 159081, Note_on_c, 0, 51, 0
1, 159081, Note_on_c, 0, 54, 42
1, 159137, Control_c, 0, 64, 0
1, 159211, Note_on_c, 0, 54, 0
1, 159211, Control_c, 0, 64, 127
1, 159211, Note_on_c, 0, 59, 42
1, 159339, Note_on_c, 0, 59, 0
1, 159339, Note_on_c, 0, 63, 42
1, 159467, Note_on_c, 0, 63, 0
1, 159467, Note_on_c, 0, 66, 42
1, 159593, Note_on_c, 0, 75, 0
1, 159593, Note_on_c, 0, 63, 0
1, 159593, Note_on_c, 0, 66, 0
1, 159596, Note_on_c, 0, 66, 0
1, 159596, Note_on_c, 0, 71, 42
1, 159721, Note_on_c, 0, 75, 42
1, 159721, Note_on_c, 0, 71, 0
1, 159848, Note_on_c, 0, 75, 0
1, 159848, Note_on_c, 0, 78, 42
1, 159973, Note_on_c, 0, 78, 0
1, 159973, Note_on_c, 0, 83, 42
1, 160098, Note_on_c, 0, 83, 0
1, 160098, Note_on_c, 0, 87, 41
1, 160170, Control_c, 0, 64, 0
1, 160194, Control_c, 0, 64, 127
1, 160223, Note_on_c, 0, 87, 0
1, 160223, Note_on_c, 0, 90, 41
1, 160349, Note_on_c, 0, 90, 0
1, 160349, Note_on_c, 0, 95, 39
1, 160475, Note_on_c, 0, 95, 0
1, 160475, Note_on_c, 0, 99, 39
1, 160610, Note_on_c, 0, 99, 0
1, 160610, Note_on_c, 0, 97, 38
1, 160610, Note_on_c, 0, 102, 38
1, 160613, Note_on_c, 0, 90, 38
1, 160613, Control_c, 0, 64, 0
1, 160613, Note_on_c, 0, 30, 38
1, 160616, Note_on_c, 0, 37, 38
1, 160616, Note_on_c, 0, 42, 38
1, 160678, Control_c, 0, 64, 127
1, 160739, Note_on_c, 0, 90, 0
1, 160739, Note_on_c, 0, 102, 0
1, 160739, Note_on_c, 0, 97, 0
1, 160742, Note_on_c, 0, 42, 0
1, 160742, Note_on_c, 0, 37, 0
1, 160742, Note_on_c, 0, 30, 0
1, 160785, Control_c, 0, 64, 0
1, 161645, Note_on_c, 0, 66, 34
1, 161645, Note_on_c, 0, 78, 34
1, 161645, Note_on_c, 0, 73, 34
1, 161648, Note_on_c, 0, 42, 33
1, 161648, Note_on_c, 0, 49, 33
1, 161648, Note_on_c, 0, 57, 33
1, 161661, Control_c, 0, 64, 127
1, 161777, Note_on_c, 0, 73, 0
1, 161777, Note_on_c, 0, 78, 0
1, 161777, Note_on_c, 0, 66, 0
1, 161780, Note_on_c, 0, 57, 0
1, 161780, Note_on_c, 0, 49, 0
1, 161780, Note_on_c, 0, 42, 0
1, 161785, Control_c, 0, 64, 0
1, 162699, Note_on_c, 0, 78, 37
1, 162699, Note_on_c, 0, 90, 37
1, 162699, Note_on_c, 0, 30, 36
1, 162702, Note_on_c, 0, 42, 36
1, 162722, Control_c, 0, 64, 127
1, 162831, Note_on_c, 0, 90, 0
1, 162831, Note_on_c, 0, 78, 0
1, 162831, Note_on_c, 0, 42, 0
1, 162834, Note_on_c, 0, 30, 0
1, 162846, Control_c, 0, 64, 0
1, 164344, End_track
0, 0, End_of_file
