0, 0, Header, 0, 1, 384
1, 0, Start_track
1, 0, Tempo, 512820
1, 0, Title_t, "Abegg-Variationen"
1, 0, Program_c, 0, 0
1, 0, Control_c, 0, 7, 100
1, 3, Control_c, 0, 91, 127
1, 3, Program_c, 0, 0
1, 3, Control_c, 0, 7, 100
1, 748, Note_on_c, 0, 81, 71
1, 748, Note_on_c, 0, 69, 58
1, 1136, Note_on_c, 0, 69, 0
1, 1136, Note_on_c, 0, 81, 0
1, 1136, Note_on_c, 0, 70, 62
1, 1139, Note_on_c, 0, 82, 74
1, 1139, Control_c, 0, 64, 127
1, 1139, Note_on_c, 0, 48, 58
1, 1320, Note_on_c, 0, 48, 0
1, 1320, Note_on_c, 0, 64, 47
1, 1320, Note_on_c, 0, 60, 40
1, 1323, Note_on_c, 0, 58, 40
1, 1462, Note_on_c, 0, 82, 0
1, 1462, Note_on_c, 0, 70, 0
1, 1462, Note_on_c, 0, 76, 65
1, 1465, Note_on_c, 0, 88, 79
1, 1465, Note_on_c, 0, 58, 0
1, 1465, Note_on_c, 0, 60, 0
1, 1468, Note_on_c, 0, 64, 0
1, 1468, Note_on_c, 0, 58, 41
1, 1468, Note_on_c, 0, 60, 41
1, 1471, Note_on_c, 0, 64, 48
1, 1608, Note_on_c, 0, 64, 0
1, 1608, Note_on_c, 0, 60, 0
1, 1608, Note_on_c, 0, 58, 0
1, 1611, Note_on_c, 0, 58, 41
1, 1611, Note_on_c, 0, 60, 41
1, 1611, Note_on_c, 0, 64, 48
1, 1754, Note_on_c, 0, 88, 0
1, 1754, Note_on_c, 0, 76, 0
1, 1754, Note_on_c, 0, 79, 69
1, 1757, Note_on_c, 0, 91, 83
1, 1757, Note_on_c, 0, 64, 0
1, 1757, Note_on_c, 0, 60, 0
1, 1760, Note_on_c, 0, 58, 0
1, 1760, Note_on_c, 0, 58, 44
1, 1760, Note_on_c, 0, 60, 44
1, 1763, Note_on_c, 0, 64, 51
1, 1907, Note_on_c, 0, 64, 0
1, 1907, Note_on_c, 0, 60, 0
1, 1907, Note_on_c, 0, 58, 0
1, 1910, Note_on_c, 0, 58, 45
1, 1910, Note_on_c, 0, 60, 45
1, 1910, Note_on_c, 0, 64, 52
1, 2065, Note_on_c, 0, 91, 0
1, 2065, Note_on_c, 0, 79, 0
1, 2065, Note_on_c, 0, 91, 86
1, 2068, Note_on_c, 0, 79, 71
1, 2068, Note_on_c, 0, 64, 0
1, 2068, Note_on_c, 0, 60, 0
1, 2071, Note_on_c, 0, 58, 0
1, 2071, Note_on_c, 0, 48, 64
1, 2071, Control_c, 0, 64, 0
1, 2151, Control_c, 0, 64, 127
1, 2228, Note_on_c, 0, 48, 0
1, 2228, Note_on_c, 0, 64, 47
1, 2228, Note_on_c, 0, 60, 40
1, 2231, Note_on_c, 0, 58, 40
1, 2374, Note_on_c, 0, 58, 0
1, 2374, Note_on_c, 0, 60, 0
1, 2374, Note_on_c, 0, 64, 0
1, 2377, Note_on_c, 0, 64, 48
1, 2377, Note_on_c, 0, 60, 41
1, 2377, Note_on_c, 0, 58, 41
1, 2525, Note_on_c, 0, 58, 0
1, 2525, Note_on_c, 0, 60, 0
1, 2525, Note_on_c, 0, 64, 0
1, 2528, Note_on_c, 0, 64, 49
1, 2528, Note_on_c, 0, 60, 43
1, 2528, Note_on_c, 0, 58, 43
1, 2677, Note_on_c, 0, 79, 0
1, 2677, Note_on_c, 0, 91, 0
1, 2677, Note_on_c, 0, 68, 65
1, 2680, Note_on_c, 0, 80, 79
1, 2680, Note_on_c, 0, 58, 0
1, 2680, Note_on_c, 0, 60, 0
1, 2683, Note_on_c, 0, 64, 0
1, 2683, Note_on_c, 0, 64, 51
1, 2683, Note_on_c, 0, 60, 44
1, 2686, Note_on_c, 0, 58, 44
1, 2686, Control_c, 0, 91, 127
1, 2686, Control_c, 0, 64, 0
1, 2752, Control_c, 0, 64, 127
1, 2835, Note_on_c, 0, 58, 0
1, 2835, Note_on_c, 0, 60, 0
1, 2835, Note_on_c, 0, 64, 0
1, 2838, Note_on_c, 0, 64, 52
1, 2838, Note_on_c, 0, 60, 45
1, 2838, Note_on_c, 0, 58, 45
1, 2999, Note_on_c, 0, 80, 0
1, 2999, Note_on_c, 0, 68, 0
1, 2999, Note_on_c, 0, 81, 86
1, 3002, Note_on_c, 0, 69, 71
1, 3002, Note_on_c, 0, 58, 0
1, 3002, Note_on_c, 0, 60, 0
1, 3005, Note_on_c, 0, 64, 0
1, 3005, Note_on_c, 0, 53, 64
1, 3005, Control_c, 0, 64, 0
1, 3098, Control_c, 0, 64, 127
1, 3168, Note_on_c, 0, 53, 0
1, 3168, Note_on_c, 0, 65, 47
1, 3168, Note_on_c, 0, 60, 40
1, 3171, Note_on_c, 0, 57, 40
1, 3310, Note_on_c, 0, 69, 0
1, 3310, Note_on_c, 0, 81, 0
1, 3310, Note_on_c, 0, 72, 65
1, 3313, Note_on_c, 0, 84, 79
1, 3313, Note_on_c, 0, 57, 0
1, 3313, Note_on_c, 0, 60, 0
1, 3316, Note_on_c, 0, 65, 0
1, 3316, Note_on_c, 0, 57, 41
1, 3316, Note_on_c, 0, 60, 41
1, 3319, Note_on_c, 0, 65, 48
1, 3455, Note_on_c, 0, 65, 0
1, 3455, Note_on_c, 0, 60, 0
1, 3455, Note_on_c, 0, 57, 0
1, 3458, Note_on_c, 0, 57, 43
1, 3458, Note_on_c, 0, 60, 43
1, 3458, Note_on_c, 0, 65, 49
1, 3600, Note_on_c, 0, 84, 0
1, 3600, Note_on_c, 0, 72, 0
1, 3600, Note_on_c, 0, 89, 84
1, 3603, Note_on_c, 0, 77, 70
1, 3603, Note_on_c, 0, 65, 0
1, 3603, Note_on_c, 0, 60, 0
1, 3606, Note_on_c, 0, 57, 0
1, 3606, Note_on_c, 0, 57, 44
1, 3606, Note_on_c, 0, 60, 44
1, 3609, Note_on_c, 0, 65, 51
1, 3751, Note_on_c, 0, 65, 0
1, 3751, Note_on_c, 0, 60, 0
1, 3751, Note_on_c, 0, 57, 0
1, 3754, Note_on_c, 0, 57, 45
1, 3754, Note_on_c, 0, 60, 45
1, 3754, Note_on_c, 0, 65, 52
1, 3913, Note_on_c, 0, 77, 0
1, 3913, Note_on_c, 0, 89, 0
1, 3913, Note_on_c, 0, 77, 70
1, 3916, Note_on_c, 0, 89, 84
1, 3916, Note_on_c, 0, 65, 0
1, 3916, Note_on_c, 0, 60, 0
1, 3919, Note_on_c, 0, 57, 0
1, 3919, Control_c, 0, 64, 0
1, 3919, Note_on_c, 0, 45, 64
1, 3995, Control_c, 0, 64, 127
1, 4068, Note_on_c, 0, 45, 0
1, 4068, Note_on_c, 0, 65, 54
1, 4068, Note_on_c, 0, 60, 46
1, 4071, Note_on_c, 0, 57, 46
1, 4214, Note_on_c, 0, 57, 0
1, 4214, Note_on_c, 0, 60, 0
1, 4214, Note_on_c, 0, 65, 0
1, 4217, Note_on_c, 0, 65, 54
1, 4217, Note_on_c, 0, 60, 46
1, 4217, Note_on_c, 0, 57, 46
1, 4365, Note_on_c, 0, 57, 0
1, 4365, Note_on_c, 0, 60, 0
1, 4365, Note_on_c, 0, 65, 0
1, 4368, Note_on_c, 0, 65, 55
1, 4368, Note_on_c, 0, 60, 47
1, 4368, Note_on_c, 0, 57, 47
1, 4517, Note_on_c, 0, 89, 0
1, 4517, Note_on_c, 0, 77, 0
1, 4517, Note_on_c, 0, 78, 71
1, 4520, Note_on_c, 0, 66, 58
1, 4520, Note_on_c, 0, 57, 0
1, 4520, Note_on_c, 0, 60, 0
1, 4523, Note_on_c, 0, 65, 0
1, 4523, Note_on_c, 0, 57, 47
1, 4523, Note_on_c, 0, 60, 47
1, 4526, Note_on_c, 0, 63, 55
1, 4526, Control_c, 0, 64, 0
1, 4570, Control_c, 0, 64, 127
1, 4675, Note_on_c, 0, 63, 0
1, 4675, Note_on_c, 0, 60, 0
1, 4675, Note_on_c, 0, 57, 0
1, 4678, Note_on_c, 0, 57, 47
1, 4678, Note_on_c, 0, 60, 47
1, 4678, Note_on_c, 0, 63, 55
1, 4839, Note_on_c, 0, 66, 0
1, 4839, Note_on_c, 0, 78, 0
1, 4839, Note_on_c, 0, 67, 62
1, 4842, Note_on_c, 0, 79, 74
1, 4842, Note_on_c, 0, 63, 0
1, 4842, Note_on_c, 0, 60, 0
1, 4845, Note_on_c, 0, 57, 0
1, 4845, Note_on_c, 0, 46, 58
1, 4845, Control_c, 0, 64, 0
1, 4899, Control_c, 0, 64, 127
1, 5002, Note_on_c, 0, 46, 0
1, 5002, Note_on_c, 0, 62, 47
1, 5002, Note_on_c, 0, 58, 40
1, 5005, Note_on_c, 0, 55, 40
1, 5147, Note_on_c, 0, 79, 0
1, 5147, Note_on_c, 0, 67, 0
1, 5147, Note_on_c, 0, 70, 65
1, 5150, Note_on_c, 0, 82, 79
1, 5150, Note_on_c, 0, 55, 0
1, 5150, Note_on_c, 0, 58, 0
1, 5153, Note_on_c, 0, 62, 0
1, 5153, Note_on_c, 0, 55, 41
1, 5153, Note_on_c, 0, 58, 41
1, 5156, Note_on_c, 0, 62, 48
1, 5294, Note_on_c, 0, 62, 0
1, 5294, Note_on_c, 0, 58, 0
1, 5294, Note_on_c, 0, 55, 0
1, 5297, Note_on_c, 0, 55, 41
1, 5297, Note_on_c, 0, 58, 41
1, 5297, Note_on_c, 0, 62, 48
1, 5441, Note_on_c, 0, 82, 0
1, 5441, Note_on_c, 0, 70, 0
1, 5441, Note_on_c, 0, 74, 69
1, 5444, Note_on_c, 0, 86, 83
1, 5444, Note_on_c, 0, 62, 0
1, 5444, Note_on_c, 0, 58, 0
1, 5447, Note_on_c, 0, 55, 0
1, 5447, Note_on_c, 0, 55, 44
1, 5447, Note_on_c, 0, 58, 44
1, 5450, Note_on_c, 0, 62, 51
1, 5598, Note_on_c, 0, 62, 0
1, 5598, Note_on_c, 0, 58, 0
1, 5598, Note_on_c, 0, 55, 0
1, 5601, Note_on_c, 0, 55, 45
1, 5601, Note_on_c, 0, 58, 45
1, 5601, Note_on_c, 0, 62, 52
1, 5755, Note_on_c, 0, 86, 0
1, 5755, Note_on_c, 0, 74, 0
1, 5755, Note_on_c, 0, 86, 86
1, 5758, Note_on_c, 0, 74, 71
1, 5758, Note_on_c, 0, 62, 0
1, 5758, Note_on_c, 0, 58, 0
1, 5761, Note_on_c, 0, 55, 0
1, 5761, Control_c, 0, 64, 0
1, 5761, Note_on_c, 0, 48, 64
1, 5841, Control_c, 0, 64, 127
1, 5918, Note_on_c, 0, 48, 0
1, 5918, Note_on_c, 0, 60, 47
1, 5918, Note_on_c, 0, 58, 40
1, 5921, Note_on_c, 0, 55, 40
1, 6064, Note_on_c, 0, 55, 0
1, 6064, Note_on_c, 0, 58, 0
1, 6064, Note_on_c, 0, 60, 0
1, 6067, Note_on_c, 0, 60, 48
1, 6067, Note_on_c, 0, 58, 41
1, 6067, Note_on_c, 0, 55, 41
1, 6215, Note_on_c, 0, 55, 0
1, 6215, Note_on_c, 0, 58, 0
1, 6215, Note_on_c, 0, 60, 0
1, 6218, Note_on_c, 0, 60, 49
1, 6218, Note_on_c, 0, 58, 43
1, 6218, Note_on_c, 0, 55, 43
1, 6366, Note_on_c, 0, 74, 0
1, 6366, Note_on_c, 0, 86, 0
1, 6366, Note_on_c, 0, 64, 65
1, 6369, Note_on_c, 0, 76, 79
1, 6369, Note_on_c, 0, 55, 0
1, 6369, Note_on_c, 0, 58, 0
1, 6372, Note_on_c, 0, 60, 0
1, 6372, Note_on_c, 0, 60, 51
1, 6372, Note_on_c, 0, 58, 44
1, 6375, Note_on_c, 0, 55, 44
1, 6375, Control_c, 0, 91, 127
1, 6375, Control_c, 0, 64, 0
1, 6440, Control_c, 0, 64, 127
1, 6523, Note_on_c, 0, 55, 0
1, 6523, Note_on_c, 0, 58, 0
1, 6523, Note_on_c, 0, 60, 0
1, 6526, Note_on_c, 0, 60, 52
1, 6526, Note_on_c, 0, 58, 45
1, 6526, Note_on_c, 0, 55, 45
1, 6687, Note_on_c, 0, 76, 0
1, 6687, Note_on_c, 0, 64, 0
1, 6687, Note_on_c, 0, 77, 86
1, 6690, Note_on_c, 0, 65, 71
1, 6690, Note_on_c, 0, 55, 0
1, 6690, Note_on_c, 0, 58, 0
1, 6693, Note_on_c, 0, 60, 0
1, 6693, Note_on_c, 0, 53, 64
1, 6693, Control_c, 0, 64, 0
1, 6785, Control_c, 0, 64, 127
1, 6855, Note_on_c, 0, 53, 0
1, 6855, Note_on_c, 0, 57, 45
1, 6855, Note_on_c, 0, 53, 39
1, 7000, Note_on_c, 0, 65, 0
1, 7000, Note_on_c, 0, 77, 0
1, 7000, Note_on_c, 0, 69, 61
1, 7003, Note_on_c, 0, 81, 73
1, 7003, Note_on_c, 0, 53, 0
1, 7003, Note_on_c, 0, 57, 0
1, 7006, Note_on_c, 0, 53, 39
1, 7006, Note_on_c, 0, 57, 45
1, 7148, Note_on_c, 0, 57, 0
1, 7148, Note_on_c, 0, 53, 0
1, 7148, Note_on_c, 0, 53, 39
1, 7151, Note_on_c, 0, 57, 45
1, 7296, Note_on_c, 0, 81, 0
1, 7296, Note_on_c, 0, 69, 0
1, 7296, Note_on_c, 0, 84, 73
1, 7299, Note_on_c, 0, 72, 61
1, 7299, Note_on_c, 0, 57, 0
1, 7299, Note_on_c, 0, 53, 0
1, 7302, Note_on_c, 0, 53, 39
1, 7302, Note_on_c, 0, 57, 45
1, 7452, Note_on_c, 0, 57, 0
1, 7452, Note_on_c, 0, 53, 0
1, 7452, Note_on_c, 0, 53, 38
1, 7455, Note_on_c, 0, 57, 44
1, 7618, Note_on_c, 0, 72, 0
1, 7618, Note_on_c, 0, 84, 0
1, 7618, Note_on_c, 0, 72, 57
1, 7621, Note_on_c, 0, 84, 69
1, 7621, Note_on_c, 0, 57, 0
1, 7621, Note_on_c, 0, 53, 0
1, 7624, Note_on_c, 0, 53, 53
1, 7624, Control_c, 0, 64, 0
1, 7700, Control_c, 0, 64, 127
1, 7774, Note_on_c, 0, 53, 0
1, 7774, Note_on_c, 0, 65, 44
1, 7774, Note_on_c, 0, 60, 38
1, 7777, Note_on_c, 0, 57, 38
1, 7926, Note_on_c, 0, 57, 0
1, 7926, Note_on_c, 0, 60, 0
1, 7926, Note_on_c, 0, 65, 0
1, 7929, Note_on_c, 0, 65, 44
1, 7929, Note_on_c, 0, 60, 38
1, 7929, Note_on_c, 0, 57, 38
1, 8081, Note_on_c, 0, 57, 0
1, 8081, Note_on_c, 0, 60, 0
1, 8081, Note_on_c, 0, 65, 0
1, 8084, Note_on_c, 0, 65, 45
1, 8084, Note_on_c, 0, 60, 39
1, 8084, Note_on_c, 0, 57, 39
1, 8197, Note_on_c, 0, 69, 51
1, 8237, Note_on_c, 0, 84, 0
1, 8237, Note_on_c, 0, 72, 0
1, 8237, Note_on_c, 0, 81, 58
1, 8240, Note_on_c, 0, 57, 0
1, 8240, Note_on_c, 0, 60, 0
1, 8240, Note_on_c, 0, 65, 0
1, 8243, Note_on_c, 0, 57, 39
1, 8243, Note_on_c, 0, 60, 39
1, 8243, Note_on_c, 0, 65, 45
1, 8428, Note_on_c, 0, 65, 0
1, 8428, Note_on_c, 0, 60, 0
1, 8428, Note_on_c, 0, 57, 0
1, 8431, Note_on_c, 0, 57, 39
1, 8431, Note_on_c, 0, 60, 39
1, 8431, Note_on_c, 0, 65, 45
1, 8571, Note_on_c, 0, 69, 0
1, 8571, Note_on_c, 0, 70, 53
1, 8619, Note_on_c, 0, 81, 0
1, 8619, Note_on_c, 0, 82, 62
1, 8619, Note_on_c, 0, 65, 0
1, 8622, Note_on_c, 0, 60, 0
1, 8622, Note_on_c, 0, 57, 0
1, 8622, Note_on_c, 0, 60, 51
1, 8625, Note_on_c, 0, 48, 40
1, 8625, Control_c, 0, 64, 0
1, 8714, Control_c, 0, 64, 127
1, 8799, Note_on_c, 0, 48, 0
1, 8799, Note_on_c, 0, 60, 0
1, 8799, Note_on_c, 0, 64, 40
1, 8802, Note_on_c, 0, 58, 35
1, 8917, Note_on_c, 0, 70, 0
1, 8917, Note_on_c, 0, 76, 56
1, 8956, Note_on_c, 0, 82, 0
1, 8956, Note_on_c, 0, 88, 65
1, 8956, Note_on_c, 0, 58, 0
1, 8959, Note_on_c, 0, 64, 0
1, 8959, Note_on_c, 0, 58, 36
1, 8959, Note_on_c, 0, 64, 41
1, 9102, Note_on_c, 0, 64, 0
1, 9102, Note_on_c, 0, 58, 0
1, 9102, Note_on_c, 0, 58, 36
1, 9105, Note_on_c, 0, 64, 41
1, 9211, Note_on_c, 0, 76, 0
1, 9211, Note_on_c, 0, 79, 58
1, 9248, Note_on_c, 0, 88, 0
1, 9248, Note_on_c, 0, 91, 69
1, 9248, Note_on_c, 0, 64, 0
1, 9251, Note_on_c, 0, 58, 0
1, 9251, Note_on_c, 0, 58, 38
1, 9251, Note_on_c, 0, 64, 44
1, 9403, Note_on_c, 0, 64, 0
1, 9403, Note_on_c, 0, 58, 0
1, 9403, Note_on_c, 0, 58, 39
1, 9406, Note_on_c, 0, 64, 45
1, 9524, Note_on_c, 0, 79, 0
1, 9524, Note_on_c, 0, 79, 61
1, 9564, Note_on_c, 0, 91, 0
1, 9564, Note_on_c, 0, 91, 71
1, 9564, Note_on_c, 0, 64, 0
1, 9567, Note_on_c, 0, 58, 0
1, 9567, Note_on_c, 0, 60, 55
1, 9567, Note_on_c, 0, 48, 44
1, 9567, Control_c, 0, 64, 0
1, 9652, Control_c, 0, 64, 127
1, 9731, Note_on_c, 0, 48, 0
1, 9731, Note_on_c, 0, 60, 0
1, 9731, Note_on_c, 0, 64, 40
1, 9734, Note_on_c, 0, 58, 35
1, 9880, Note_on_c, 0, 58, 0
1, 9880, Note_on_c, 0, 64, 0
1, 9880, Note_on_c, 0, 64, 41
1, 9883, Note_on_c, 0, 58, 36
1, 10032, Note_on_c, 0, 58, 0
1, 10032, Note_on_c, 0, 64, 0
1, 10032, Note_on_c, 0, 64, 43
1, 10035, Note_on_c, 0, 58, 37
1, 10185, Note_on_c, 0, 91, 0
1, 10185, Note_on_c, 0, 79, 0
1, 10185, Note_on_c, 0, 68, 56
1, 10188, Note_on_c, 0, 80, 65
1, 10188, Note_on_c, 0, 58, 0
1, 10188, Note_on_c, 0, 64, 0
1, 10191, Note_on_c, 0, 64, 44
1, 10191, Note_on_c, 0, 58, 38
1, 10191, Control_c, 0, 91, 127
1, 10191, Control_c, 0, 64, 0
1, 10261, Control_c, 0, 64, 127
1, 10345, Note_on_c, 0, 58, 0
1, 10345, Note_on_c, 0, 64, 0
1, 10345, Note_on_c, 0, 64, 45
1, 10348, Note_on_c, 0, 58, 39
1, 10509, Note_on_c, 0, 80, 0
1, 10509, Note_on_c, 0, 68, 0
1, 10509, Note_on_c, 0, 81, 68
1, 10512, Note_on_c, 0, 69, 57
1, 10512, Note_on_c, 0, 58, 0
1, 10512, Note_on_c, 0, 64, 0
1, 10515, Note_on_c, 0, 65, 49
1, 10515, Note_on_c, 0, 53, 41
1, 10515, Control_c, 0, 64, 0
1, 10608, Control_c, 0, 64, 127
1, 10677, Note_on_c, 0, 53, 0
1, 10677, Note_on_c, 0, 65, 0
1, 10677, Note_on_c, 0, 60, 40
1, 10680, Note_on_c, 0, 57, 35
1, 10821, Note_on_c, 0, 69, 0
1, 10821, Note_on_c, 0, 81, 0
1, 10821, Note_on_c, 0, 72, 56
1, 10824, Note_on_c, 0, 84, 65
1, 10824, Note_on_c, 0, 57, 0
1, 10824, Note_on_c, 0, 60, 0
1, 10827, Note_on_c, 0, 57, 36
1, 10827, Note_on_c, 0, 60, 41
1, 10970, Note_on_c, 0, 60, 0
1, 10970, Note_on_c, 0, 57, 0
1, 10970, Note_on_c, 0, 57, 37
1, 10973, Note_on_c, 0, 60, 43
1, 11119, Note_on_c, 0, 84, 0
1, 11119, Note_on_c, 0, 72, 0
1, 11119, Note_on_c, 0, 89, 70
1, 11122, Note_on_c, 0, 77, 60
1, 11122, Note_on_c, 0, 60, 0
1, 11122, Note_on_c, 0, 57, 0
1, 11125, Note_on_c, 0, 57, 38
1, 11125, Note_on_c, 0, 60, 44
1, 11278, Note_on_c, 0, 60, 0
1, 11278, Note_on_c, 0, 57, 0
1, 11278, Note_on_c, 0, 57, 39
1, 11281, Note_on_c, 0, 60, 45
1, 11443, Note_on_c, 0, 77, 0
1, 11443, Note_on_c, 0, 89, 0
1, 11443, Note_on_c, 0, 77, 60
1, 11446, Note_on_c, 0, 89, 70
1, 11446, Note_on_c, 0, 60, 0
1, 11446, Note_on_c, 0, 57, 0
1, 11449, Note_on_c, 0, 57, 55
1, 11449, Control_c, 0, 64, 0
1, 11449, Note_on_c, 0, 45, 47
1, 11525, Control_c, 0, 64, 127
1, 11599, Note_on_c, 0, 45, 0
1, 11599, Note_on_c, 0, 57, 0
1, 11599, Note_on_c, 0, 60, 46
1, 11602, Note_on_c, 0, 53, 39
1, 11748, Note_on_c, 0, 53, 0
1, 11748, Note_on_c, 0, 60, 0
1, 11748, Note_on_c, 0, 60, 46
1, 11751, Note_on_c, 0, 53, 39
1, 11899, Note_on_c, 0, 53, 0
1, 11899, Note_on_c, 0, 60, 0
1, 11899, Note_on_c, 0, 60, 47
1, 11902, Note_on_c, 0, 53, 40
1, 12052, Note_on_c, 0, 89, 0
1, 12052, Note_on_c, 0, 77, 0
1, 12052, Note_on_c, 0, 78, 58
1, 12055, Note_on_c, 0, 66, 51
1, 12055, Note_on_c, 0, 53, 0
1, 12055, Note_on_c, 0, 60, 0
1, 12058, Note_on_c, 0, 51, 40
1, 12058, Note_on_c, 0, 60, 47
1, 12058, Control_c, 0, 64, 0
1, 12113, Control_c, 0, 64, 127
1, 12213, Note_on_c, 0, 60, 0
1, 12213, Note_on_c, 0, 51, 0
1, 12213, Note_on_c, 0, 51, 40
1, 12216, Note_on_c, 0, 60, 47
1, 12381, Note_on_c, 0, 66, 0
1, 12381, Note_on_c, 0, 78, 0
1, 12381, Note_on_c, 0, 67, 53
1, 12384, Note_on_c, 0, 79, 62
1, 12384, Note_on_c, 0, 60, 0
1, 12384, Note_on_c, 0, 51, 0
1, 12387, Note_on_c, 0, 58, 51
1, 12387, Note_on_c, 0, 46, 44
1, 12387, Control_c, 0, 64, 0
1, 12441, Control_c, 0, 64, 127
1, 12545, Note_on_c, 0, 46, 0
1, 12545, Note_on_c, 0, 58, 0
1, 12545, Note_on_c, 0, 62, 40
1, 12548, Note_on_c, 0, 55, 35
1, 12548, Note_on_c, 0, 50, 35
1, 12690, Note_on_c, 0, 79, 0
1, 12690, Note_on_c, 0, 67, 0
1, 12690, Note_on_c, 0, 70, 56
1, 12693, Note_on_c, 0, 82, 65
1, 12693, Note_on_c, 0, 50, 0
1, 12693, Note_on_c, 0, 55, 0
1, 12696, Note_on_c, 0, 62, 0
1, 12696, Note_on_c, 0, 50, 36
1, 12696, Note_on_c, 0, 55, 36
1, 12699, Note_on_c, 0, 62, 41
1, 12840, Note_on_c, 0, 62, 0
1, 12840, Note_on_c, 0, 55, 0
1, 12840, Note_on_c, 0, 50, 0
1, 12843, Note_on_c, 0, 50, 36
1, 12843, Note_on_c, 0, 55, 36
1, 12843, Note_on_c, 0, 62, 41
1, 12991, Note_on_c, 0, 82, 0
1, 12991, Note_on_c, 0, 70, 0
1, 12991, Note_on_c, 0, 74, 58
1, 12994, Note_on_c, 0, 86, 69
1, 12994, Note_on_c, 0, 62, 0
1, 12994, Note_on_c, 0, 55, 0
1, 12997, Note_on_c, 0, 50, 0
1, 12997, Note_on_c, 0, 50, 38
1, 12997, Note_on_c, 0, 55, 38
1, 13000, Note_on_c, 0, 62, 44
1, 13148, Note_on_c, 0, 62, 0
1, 13148, Note_on_c, 0, 55, 0
1, 13148, Note_on_c, 0, 50, 0
1, 13151, Note_on_c, 0, 50, 39
1, 13151, Note_on_c, 0, 55, 39
1, 13151, Note_on_c, 0, 62, 45
1, 13305, Note_on_c, 0, 86, 0
1, 13305, Note_on_c, 0, 74, 0
1, 13305, Note_on_c, 0, 86, 71
1, 13308, Note_on_c, 0, 74, 61
1, 13308, Note_on_c, 0, 62, 0
1, 13308, Note_on_c, 0, 55, 0
1, 13311, Note_on_c, 0, 50, 0
1, 13311, Note_on_c, 0, 60, 55
1, 13311, Control_c, 0, 64, 0
1, 13314, Note_on_c, 0, 48, 47
1, 13390, Control_c, 0, 64, 127
1, 13468, Note_on_c, 0, 48, 0
1, 13468, Note_on_c, 0, 60, 0
1, 13468, Note_on_c, 0, 64, 40
1, 13471, Note_on_c, 0, 58, 35
1, 13471, Note_on_c, 0, 55, 35
1, 13613, Note_on_c, 0, 55, 0
1, 13613, Note_on_c, 0, 58, 0
1, 13613, Note_on_c, 0, 64, 0
1, 13616, Note_on_c, 0, 64, 41
1, 13616, Note_on_c, 0, 58, 36
1, 13616, Note_on_c, 0, 55, 36
1, 13763, Note_on_c, 0, 55, 0
1, 13763, Note_on_c, 0, 58, 0
1, 13763, Note_on_c, 0, 64, 0
1, 13766, Note_on_c, 0, 64, 43
1, 13766, Note_on_c, 0, 58, 37
1, 13766, Note_on_c, 0, 55, 37
1, 13913, Note_on_c, 0, 74, 0
1, 13913, Note_on_c, 0, 86, 0
1, 13913, Note_on_c, 0, 64, 56
1, 13916, Note_on_c, 0, 76, 65
1, 13916, Note_on_c, 0, 55, 0
1, 13916, Note_on_c, 0, 58, 0
1, 13919, Note_on_c, 0, 64, 0
1, 13919, Note_on_c, 0, 60, 44
1, 13919, Note_on_c, 0, 58, 38
1, 13922, Note_on_c, 0, 55, 38
1, 13922, Control_c, 0, 91, 127
1, 13922, Control_c, 0, 64, 0
1, 13987, Control_c, 0, 64, 127
1, 14070, Note_on_c, 0, 55, 0
1, 14070, Note_on_c, 0, 58, 0
1, 14070, Note_on_c, 0, 60, 0
1, 14073, Note_on_c, 0, 60, 45
1, 14073, Note_on_c, 0, 58, 39
1, 14073, Note_on_c, 0, 55, 39
1, 14231, Note_on_c, 0, 76, 0
1, 14231, Note_on_c, 0, 64, 0
1, 14231, Note_on_c, 0, 77, 71
1, 14234, Note_on_c, 0, 65, 61
1, 14234, Note_on_c, 0, 55, 0
1, 14234, Note_on_c, 0, 58, 0
1, 14237, Note_on_c, 0, 60, 0
1, 14237, Note_on_c, 0, 41, 49
1, 14237, Note_on_c, 0, 53, 55
1, 14237, Control_c, 0, 64, 0
1, 14327, Control_c, 0, 64, 127
1, 14395, Note_on_c, 0, 53, 0
1, 14395, Note_on_c, 0, 41, 0
1, 14395, Note_on_c, 0, 48, 34
1, 14398, Note_on_c, 0, 60, 39
1, 14398, Note_on_c, 0, 57, 34
1, 14543, Note_on_c, 0, 65, 0
1, 14543, Note_on_c, 0, 77, 0
1, 14543, Note_on_c, 0, 69, 52
1, 14546, Note_on_c, 0, 81, 61
1, 14546, Note_on_c, 0, 57, 0
1, 14546, Note_on_c, 0, 60, 0
1, 14549, Note_on_c, 0, 48, 0
1, 14549, Note_on_c, 0, 48, 34
1, 14549, Note_on_c, 0, 57, 34
1, 14552, Note_on_c, 0, 60, 39
1, 14697, Note_on_c, 0, 60, 0
1, 14697, Note_on_c, 0, 57, 0
1, 14697, Note_on_c, 0, 48, 0
1, 14700, Note_on_c, 0, 48, 34
1, 14700, Note_on_c, 0, 57, 34
1, 14700, Note_on_c, 0, 60, 39
1, 14851, Note_on_c, 0, 81, 0
1, 14851, Note_on_c, 0, 69, 0
1, 14851, Note_on_c, 0, 84, 61
1, 14854, Note_on_c, 0, 72, 52
1, 14854, Note_on_c, 0, 60, 0
1, 14854, Note_on_c, 0, 57, 0
1, 14857, Note_on_c, 0, 48, 0
1, 14857, Note_on_c, 0, 48, 34
1, 14857, Note_on_c, 0, 57, 34
1, 14860, Note_on_c, 0, 60, 39
1, 15006, Note_on_c, 0, 60, 0
1, 15006, Note_on_c, 0, 57, 0
1, 15006, Note_on_c, 0, 48, 0
1, 15009, Note_on_c, 0, 48, 32
1, 15009, Note_on_c, 0, 57, 32
1, 15009, Note_on_c, 0, 60, 38
1, 15173, Note_on_c, 0, 72, 0
1, 15173, Note_on_c, 0, 84, 0
1, 15173, Note_on_c, 0, 72, 49
1, 15176, Note_on_c, 0, 84, 57
1, 15176, Note_on_c, 0, 60, 0
1, 15176, Note_on_c, 0, 57, 0
1, 15179, Note_on_c, 0, 48, 0
1, 15179, Note_on_c, 0, 41, 37
1, 15179, Note_on_c, 0, 53, 46
1, 15179, Control_c, 0, 64, 0
1, 15255, Control_c, 0, 64, 127
1, 15329, Note_on_c, 0, 53, 0
1, 15329, Note_on_c, 0, 41, 0
1, 15329, Note_on_c, 0, 65, 38
1, 15332, Note_on_c, 0, 60, 32
1, 15332, Note_on_c, 0, 57, 32
1, 15481, Note_on_c, 0, 57, 0
1, 15481, Note_on_c, 0, 60, 0
1, 15481, Note_on_c, 0, 65, 0
1, 15484, Note_on_c, 0, 65, 38
1, 15484, Note_on_c, 0, 60, 32
1, 15484, Note_on_c, 0, 57, 32
1, 15636, Note_on_c, 0, 57, 0
1, 15636, Note_on_c, 0, 60, 0
1, 15636, Note_on_c, 0, 65, 0
1, 15639, Note_on_c, 0, 65, 39
1, 15639, Note_on_c, 0, 60, 34
1, 15639, Note_on_c, 0, 57, 34
1, 15791, Note_on_c, 0, 84, 0
1, 15791, Note_on_c, 0, 72, 0
1, 15791, Note_on_c, 0, 79, 68
1, 15794, Note_on_c, 0, 91, 82
1, 15794, Note_on_c, 0, 57, 0
1, 15794, Note_on_c, 0, 60, 0
1, 15797, Note_on_c, 0, 65, 0
1, 15797, Note_on_c, 0, 65, 51
1, 15797, Note_on_c, 0, 59, 44
1, 15800, Note_on_c, 0, 55, 44
1, 15800, Control_c, 0, 91, 127
1, 15800, Control_c, 0, 64, 0
1, 15866, Control_c, 0, 64, 127
1, 15949, Note_on_c, 0, 55, 0
1, 15949, Note_on_c, 0, 59, 0
1, 15949, Note_on_c, 0, 65, 0
1, 15952, Note_on_c, 0, 65, 52
1, 15952, Note_on_c, 0, 59, 45
1, 15952, Note_on_c, 0, 55, 45
1, 16114, Note_on_c, 0, 91, 0
1, 16114, Note_on_c, 0, 79, 0
1, 16114, Note_on_c, 0, 91, 89
1, 16117, Note_on_c, 0, 79, 73
1, 16117, Note_on_c, 0, 55, 0
1, 16117, Note_on_c, 0, 59, 0
1, 16120, Note_on_c, 0, 65, 0
1, 16120, Control_c, 0, 64, 0
1, 16120, Note_on_c, 0, 48, 64
1, 16214, Control_c, 0, 64, 127
1, 16284, Note_on_c, 0, 48, 0
1, 16284, Note_on_c, 0, 64, 51
1, 16284, Note_on_c, 0, 60, 43
1, 16287, Note_on_c, 0, 55, 43
1, 16427, Note_on_c, 0, 79, 0
1, 16427, Note_on_c, 0, 91, 0
1, 16427, Note_on_c, 0, 76, 68
1, 16430, Note_on_c, 0, 88, 82
1, 16430, Note_on_c, 0, 55, 0
1, 16430, Note_on_c, 0, 60, 0
1, 16433, Note_on_c, 0, 64, 0
1, 16433, Note_on_c, 0, 55, 45
1, 16433, Note_on_c, 0, 60, 45
1, 16436, Note_on_c, 0, 64, 52
1, 16575, Note_on_c, 0, 64, 0
1, 16575, Note_on_c, 0, 60, 0
1, 16575, Note_on_c, 0, 55, 0
1, 16578, Note_on_c, 0, 55, 46
1, 16578, Note_on_c, 0, 60, 46
1, 16578, Note_on_c, 0, 64, 53
1, 16722, Note_on_c, 0, 88, 0
1, 16722, Note_on_c, 0, 76, 0
1, 16722, Note_on_c, 0, 82, 84
1, 16725, Note_on_c, 0, 70, 70
1, 16725, Note_on_c, 0, 64, 0
1, 16725, Note_on_c, 0, 60, 0
1, 16728, Note_on_c, 0, 55, 0
1, 16728, Note_on_c, 0, 55, 47
1, 16728, Note_on_c, 0, 60, 47
1, 16731, Note_on_c, 0, 64, 54
1, 16878, Note_on_c, 0, 64, 0
1, 16878, Note_on_c, 0, 60, 0
1, 16878, Note_on_c, 0, 55, 0
1, 16881, Note_on_c, 0, 55, 48
1, 16881, Note_on_c, 0, 60, 48
1, 16881, Note_on_c, 0, 64, 55
1, 17039, Note_on_c, 0, 70, 0
1, 17039, Note_on_c, 0, 82, 0
1, 17039, Note_on_c, 0, 69, 70
1, 17042, Note_on_c, 0, 81, 86
1, 17042, Note_on_c, 0, 64, 0
1, 17042, Note_on_c, 0, 60, 0
1, 17045, Note_on_c, 0, 55, 0
1, 17045, Note_on_c, 0, 49, 70
1, 17045, Control_c, 0, 64, 0
1, 17122, Control_c, 0, 64, 127
1, 17195, Note_on_c, 0, 49, 0
1, 17195, Note_on_c, 0, 67, 58
1, 17195, Note_on_c, 0, 64, 49
1, 17198, Note_on_c, 0, 57, 49
1, 17339, Note_on_c, 0, 57, 0
1, 17339, Note_on_c, 0, 64, 0
1, 17339, Note_on_c, 0, 67, 0
1, 17342, Note_on_c, 0, 67, 58
1, 17342, Note_on_c, 0, 64, 49
1, 17342, Note_on_c, 0, 57, 49
1, 17490, Note_on_c, 0, 57, 0
1, 17490, Note_on_c, 0, 64, 0
1, 17490, Note_on_c, 0, 67, 0
1, 17493, Note_on_c, 0, 67, 60
1, 17493, Note_on_c, 0, 64, 51
1, 17493, Note_on_c, 0, 57, 51
1, 17641, Note_on_c, 0, 81, 0
1, 17641, Note_on_c, 0, 69, 0
1, 17641, Note_on_c, 0, 81, 70
1, 17644, Note_on_c, 0, 93, 86
1, 17644, Note_on_c, 0, 57, 0
1, 17644, Note_on_c, 0, 64, 0
1, 17647, Note_on_c, 0, 67, 0
1, 17647, Note_on_c, 0, 67, 54
1, 17647, Note_on_c, 0, 64, 47
1, 17650, Note_on_c, 0, 57, 47
1, 17650, Control_c, 0, 91, 127
1, 17650, Control_c, 0, 64, 0
1, 17717, Control_c, 0, 64, 127
1, 17800, Note_on_c, 0, 57, 0
1, 17800, Note_on_c, 0, 64, 0
1, 17800, Note_on_c, 0, 67, 0
1, 17803, Note_on_c, 0, 67, 55
1, 17803, Note_on_c, 0, 64, 48
1, 17803, Note_on_c, 0, 57, 48
1, 17964, Note_on_c, 0, 93, 0
1, 17964, Note_on_c, 0, 81, 0
1, 17964, Note_on_c, 0, 93, 92
1, 17967, Note_on_c, 0, 81, 75
1, 17967, Note_on_c, 0, 57, 0
1, 17967, Note_on_c, 0, 64, 0
1, 17970, Note_on_c, 0, 67, 0
1, 17970, Note_on_c, 0, 50, 70
1, 17970, Control_c, 0, 64, 0
1, 18055, Control_c, 0, 64, 127
1, 18119, Note_on_c, 0, 50, 0
1, 18119, Note_on_c, 0, 65, 54
1, 18119, Note_on_c, 0, 62, 46
1, 18122, Note_on_c, 0, 57, 46
1, 18262, Note_on_c, 0, 81, 0
1, 18262, Note_on_c, 0, 93, 0
1, 18262, Note_on_c, 0, 77, 70
1, 18265, Note_on_c, 0, 89, 86
1, 18265, Note_on_c, 0, 57, 0
1, 18265, Note_on_c, 0, 62, 0
1, 18268, Note_on_c, 0, 65, 0
1, 18268, Note_on_c, 0, 57, 48
1, 18268, Note_on_c, 0, 62, 48
1, 18271, Note_on_c, 0, 65, 55
1, 18410, Note_on_c, 0, 65, 0
1, 18410, Note_on_c, 0, 62, 0
1, 18410, Note_on_c, 0, 57, 0
1, 18413, Note_on_c, 0, 57, 49
1, 18413, Note_on_c, 0, 62, 49
1, 18413, Note_on_c, 0, 65, 57
1, 18558, Note_on_c, 0, 89, 0
1, 18558, Note_on_c, 0, 77, 0
1, 18558, Note_on_c, 0, 86, 91
1, 18561, Note_on_c, 0, 74, 74
1, 18561, Note_on_c, 0, 65, 0
1, 18561, Note_on_c, 0, 62, 0
1, 18564, Note_on_c, 0, 57, 0
1, 18564, Note_on_c, 0, 57, 51
1, 18564, Note_on_c, 0, 62, 51
1, 18567, Note_on_c, 0, 65, 58
1, 18713, Note_on_c, 0, 65, 0
1, 18713, Note_on_c, 0, 62, 0
1, 18713, Note_on_c, 0, 57, 0
1, 18716, Note_on_c, 0, 57, 52
1, 18716, Note_on_c, 0, 62, 52
1, 18716, Note_on_c, 0, 65, 60
1, 18875, Note_on_c, 0, 74, 0
1, 18875, Note_on_c, 0, 86, 0
1, 18875, Note_on_c, 0, 72, 72
1, 18878, Note_on_c, 0, 84, 89
1, 18878, Note_on_c, 0, 65, 0
1, 18878, Note_on_c, 0, 62, 0
1, 18881, Note_on_c, 0, 57, 0
1, 18881, Note_on_c, 0, 52, 70
1, 18881, Control_c, 0, 64, 0
1, 18956, Control_c, 0, 64, 127
1, 19028, Note_on_c, 0, 52, 0
1, 19028, Note_on_c, 0, 67, 63
1, 19028, Note_on_c, 0, 60, 53
1, 19031, Note_on_c, 0, 58, 53
1, 19173, Note_on_c, 0, 58, 0
1, 19173, Note_on_c, 0, 60, 0
1, 19173, Note_on_c, 0, 67, 0
1, 19176, Note_on_c, 0, 67, 63
1, 19176, Note_on_c, 0, 60, 53
1, 19176, Note_on_c, 0, 58, 53
1, 19324, Note_on_c, 0, 58, 0
1, 19324, Note_on_c, 0, 60, 0
1, 19324, Note_on_c, 0, 67, 0
1, 19327, Note_on_c, 0, 67, 65
1, 19327, Note_on_c, 0, 60, 55
1, 19327, Note_on_c, 0, 58, 55
1, 19476, Note_on_c, 0, 84, 0
1, 19476, Note_on_c, 0, 72, 0
1, 19476, Note_on_c, 0, 84, 72
1, 19479, Note_on_c, 0, 96, 89
1, 19479, Note_on_c, 0, 58, 0
1, 19479, Note_on_c, 0, 60, 0
1, 19482, Note_on_c, 0, 67, 0
1, 19482, Note_on_c, 0, 67, 60
1, 19482, Note_on_c, 0, 60, 52
1, 19485, Note_on_c, 0, 58, 52
1, 19485, Control_c, 0, 91, 127
1, 19485, Control_c, 0, 64, 0
1, 19555, Control_c, 0, 64, 127
1, 19643, Note_on_c, 0, 58, 0
1, 19643, Note_on_c, 0, 60, 0
1, 19643, Note_on_c, 0, 67, 0
1, 19646, Note_on_c, 0, 67, 63
1, 19646, Note_on_c, 0, 60, 53
1, 19646, Note_on_c, 0, 58, 53
1, 19802, Note_on_c, 0, 96, 0
1, 19802, Note_on_c, 0, 84, 0
1, 19802, Note_on_c, 0, 96, 97
1, 19805, Note_on_c, 0, 84, 80
1, 19805, Note_on_c, 0, 58, 0
1, 19805, Note_on_c, 0, 60, 0
1, 19808, Note_on_c, 0, 67, 0
1, 19808, Note_on_c, 0, 53, 73
1, 19808, Control_c, 0, 64, 0
1, 19898, Control_c, 0, 64, 127
1, 19965, Note_on_c, 0, 53, 0
1, 19965, Note_on_c, 0, 65, 57
1, 19965, Note_on_c, 0, 60, 49
1, 19968, Note_on_c, 0, 57, 49
1, 20110, Note_on_c, 0, 84, 0
1, 20110, Note_on_c, 0, 96, 0
1, 20110, Note_on_c, 0, 81, 75
1, 20113, Note_on_c, 0, 93, 92
1, 20113, Note_on_c, 0, 57, 0
1, 20113, Note_on_c, 0, 60, 0
1, 20116, Note_on_c, 0, 65, 0
1, 20116, Note_on_c, 0, 57, 52
1, 20116, Note_on_c, 0, 60, 52
1, 20119, Note_on_c, 0, 65, 60
1, 20260, Note_on_c, 0, 65, 0
1, 20260, Note_on_c, 0, 60, 0
1, 20260, Note_on_c, 0, 57, 0
1, 20263, Note_on_c, 0, 57, 53
1, 20263, Note_on_c, 0, 60, 53
1, 20263, Note_on_c, 0, 65, 63
1, 20410, Note_on_c, 0, 93, 0
1, 20410, Note_on_c, 0, 81, 0
1, 20410, Note_on_c, 0, 89, 95
1, 20413, Note_on_c, 0, 77, 79
1, 20413, Note_on_c, 0, 65, 0
1, 20413, Note_on_c, 0, 60, 0
1, 20416, Note_on_c, 0, 57, 0
1, 20416, Note_on_c, 0, 57, 54
1, 20416, Note_on_c, 0, 60, 54
1, 20419, Note_on_c, 0, 65, 64
1, 20565, Note_on_c, 0, 65, 0
1, 20565, Note_on_c, 0, 60, 0
1, 20565, Note_on_c, 0, 57, 0
1, 20568, Note_on_c, 0, 57, 57
1, 20568, Note_on_c, 0, 60, 57
1, 20568, Note_on_c, 0, 65, 66
1, 20727, Note_on_c, 0, 77, 0
1, 20727, Note_on_c, 0, 89, 0
1, 20727, Note_on_c, 0, 74, 83
1, 20730, Note_on_c, 0, 86, 101
1, 20730, Note_on_c, 0, 65, 0
1, 20730, Note_on_c, 0, 60, 0
1, 20733, Note_on_c, 0, 57, 0
1, 20733, Note_on_c, 0, 47, 78
1, 20733, Control_c, 0, 64, 0
1, 20810, Control_c, 0, 64, 127
1, 20883, Note_on_c, 0, 47, 0
1, 20883, Note_on_c, 0, 65, 65
1, 20883, Note_on_c, 0, 62, 55
1, 20886, Note_on_c, 0, 55, 55
1, 21032, Note_on_c, 0, 55, 0
1, 21032, Note_on_c, 0, 62, 0
1, 21032, Note_on_c, 0, 65, 0
1, 21035, Note_on_c, 0, 65, 65
1, 21035, Note_on_c, 0, 62, 55
1, 21035, Note_on_c, 0, 55, 55
1, 21186, Note_on_c, 0, 55, 0
1, 21186, Note_on_c, 0, 62, 0
1, 21186, Note_on_c, 0, 65, 0
1, 21189, Note_on_c, 0, 65, 66
1, 21189, Note_on_c, 0, 62, 57
1, 21189, Note_on_c, 0, 55, 57
1, 21341, Note_on_c, 0, 86, 0
1, 21341, Note_on_c, 0, 74, 0
1, 21341, Note_on_c, 0, 86, 70
1, 21344, Note_on_c, 0, 98, 84
1, 21344, Note_on_c, 0, 55, 0
1, 21344, Note_on_c, 0, 62, 0
1, 21347, Note_on_c, 0, 65, 0
1, 21347, Note_on_c, 0, 65, 58
1, 21347, Note_on_c, 0, 62, 51
1, 21350, Note_on_c, 0, 55, 51
1, 21350, Control_c, 0, 91, 127
1, 21350, Control_c, 0, 64, 0
1, 21428, Control_c, 0, 64, 127
1, 21524, Note_on_c, 0, 55, 0
1, 21524, Note_on_c, 0, 62, 0
1, 21524, Note_on_c, 0, 65, 0
1, 21527, Note_on_c, 0, 65, 52
1, 21527, Note_on_c, 0, 62, 45
1, 21527, Note_on_c, 0, 55, 45
1, 21691, Note_on_c, 0, 98, 0
1, 21691, Note_on_c, 0, 86, 0
1, 21691, Note_on_c, 0, 98, 90
1, 21694, Note_on_c, 0, 86, 74
1, 21694, Note_on_c, 0, 55, 0
1, 21694, Note_on_c, 0, 62, 0
1, 21697, Note_on_c, 0, 65, 0
1, 21697, Note_on_c, 0, 48, 58
1, 21697, Control_c, 0, 64, 0
1, 21793, Control_c, 0, 64, 127
1, 21865, Note_on_c, 0, 48, 0
1, 21865, Note_on_c, 0, 62, 47
1, 21865, Note_on_c, 0, 58, 40
1, 22014, Note_on_c, 0, 86, 0
1, 22014, Note_on_c, 0, 98, 0
1, 22014, Note_on_c, 0, 82, 66
1, 22017, Note_on_c, 0, 94, 81
1, 22017, Note_on_c, 0, 58, 0
1, 22017, Note_on_c, 0, 62, 0
1, 22020, Note_on_c, 0, 58, 40
1, 22020, Note_on_c, 0, 62, 47
1, 22167, Note_on_c, 0, 62, 0
1, 22167, Note_on_c, 0, 58, 0
1, 22167, Note_on_c, 0, 58, 41
1, 22170, Note_on_c, 0, 62, 48
1, 22320, Note_on_c, 0, 94, 0
1, 22320, Note_on_c, 0, 82, 0
1, 22320, Note_on_c, 0, 91, 86
1, 22323, Note_on_c, 0, 79, 70
1, 22323, Note_on_c, 0, 62, 0
1, 22323, Note_on_c, 0, 58, 0
1, 22326, Note_on_c, 0, 58, 41
1, 22326, Note_on_c, 0, 64, 49
1, 22478, Note_on_c, 0, 64, 0
1, 22478, Note_on_c, 0, 58, 0
1, 22478, Note_on_c, 0, 58, 43
1, 22481, Note_on_c, 0, 64, 49
1, 22646, Note_on_c, 0, 79, 0
1, 22646, Note_on_c, 0, 91, 0
1, 22646, Note_on_c, 0, 77, 66
1, 22649, Note_on_c, 0, 89, 81
1, 22649, Note_on_c, 0, 64, 0
1, 22649, Note_on_c, 0, 58, 0
1, 22652, Note_on_c, 0, 41, 61
1, 22652, Control_c, 0, 64, 0
1, 22728, Control_c, 0, 64, 127
1, 22802, Note_on_c, 0, 41, 0
1, 22802, Note_on_c, 0, 65, 46
1, 22802, Note_on_c, 0, 60, 39
1, 22805, Note_on_c, 0, 57, 39
1, 22951, Note_on_c, 0, 57, 0
1, 22951, Note_on_c, 0, 60, 0
1, 22951, Note_on_c, 0, 65, 0
1, 22954, Note_on_c, 0, 65, 46
1, 22954, Note_on_c, 0, 60, 39
1, 22954, Note_on_c, 0, 57, 39
1, 23105, Note_on_c, 0, 57, 0
1, 23105, Note_on_c, 0, 60, 0
1, 23105, Note_on_c, 0, 65, 0
1, 23108, Note_on_c, 0, 65, 47
1, 23108, Note_on_c, 0, 60, 40
1, 23108, Note_on_c, 0, 57, 40
1, 23221, Note_on_c, 0, 79, 57
1, 23260, Note_on_c, 0, 89, 0
1, 23260, Note_on_c, 0, 77, 0
1, 23260, Note_on_c, 0, 91, 63
1, 23263, Note_on_c, 0, 57, 0
1, 23263, Note_on_c, 0, 60, 0
1, 23263, Note_on_c, 0, 65, 0
1, 23266, Note_on_c, 0, 65, 38
1, 23266, Note_on_c, 0, 59, 32
1, 23266, Note_on_c, 0, 55, 32
1, 23269, Control_c, 0, 91, 127
1, 23269, Control_c, 0, 64, 0
1, 23341, Control_c, 0, 64, 127
1, 23430, Note_on_c, 0, 55, 0
1, 23430, Note_on_c, 0, 59, 0
1, 23430, Note_on_c, 0, 65, 0
1, 23433, Note_on_c, 0, 65, 38
1, 23433, Note_on_c, 0, 59, 34
1, 23433, Note_on_c, 0, 55, 34
1, 23578, Note_on_c, 0, 79, 0
1, 23578, Note_on_c, 0, 79, 56
1, 23627, Note_on_c, 0, 91, 0
1, 23627, Note_on_c, 0, 91, 69
1, 23627, Note_on_c, 0, 55, 0
1, 23630, Note_on_c, 0, 59, 0
1, 23630, Note_on_c, 0, 65, 0
1, 23630, Note_on_c, 0, 48, 43
1, 23633, Note_on_c, 0, 60, 48
1, 23633, Control_c, 0, 64, 0
1, 23726, Control_c, 0, 64, 127
1, 23796, Note_on_c, 0, 60, 0
1, 23796, Note_on_c, 0, 48, 0
1, 23796, Note_on_c, 0, 64, 36
1, 23799, Note_on_c, 0, 55, 30
1, 23913, Note_on_c, 0, 79, 0
1, 23913, Note_on_c, 0, 76, 52
1, 23952, Note_on_c, 0, 91, 0
1, 23952, Note_on_c, 0, 88, 63
1, 23952, Note_on_c, 0, 55, 0
1, 23955, Note_on_c, 0, 64, 0
1, 23955, Note_on_c, 0, 55, 31
1, 23955, Note_on_c, 0, 64, 36
1, 24100, Note_on_c, 0, 64, 0
1, 24100, Note_on_c, 0, 55, 0
1, 24100, Note_on_c, 0, 55, 31
1, 24103, Note_on_c, 0, 64, 37
1, 24210, Note_on_c, 0, 76, 0
1, 24210, Note_on_c, 0, 70, 56
1, 24247, Note_on_c, 0, 88, 0
1, 24247, Note_on_c, 0, 82, 68
1, 24247, Note_on_c, 0, 64, 0
1, 24250, Note_on_c, 0, 55, 0
1, 24250, Note_on_c, 0, 55, 32
1, 24250, Note_on_c, 0, 64, 38
1, 24399, Note_on_c, 0, 64, 0
1, 24399, Note_on_c, 0, 55, 0
1, 24399, Note_on_c, 0, 55, 34
1, 24402, Note_on_c, 0, 64, 38
1, 24520, Note_on_c, 0, 70, 0
1, 24520, Note_on_c, 0, 69, 56
1, 24561, Note_on_c, 0, 82, 0
1, 24561, Note_on_c, 0, 81, 68
1, 24561, Note_on_c, 0, 64, 0
1, 24564, Note_on_c, 0, 55, 0
1, 24564, Note_on_c, 0, 61, 48
1, 24564, Note_on_c, 0, 49, 43
1, 24564, Control_c, 0, 64, 0
1, 24643, Control_c, 0, 64, 127
1, 24717, Note_on_c, 0, 49, 0
1, 24717, Note_on_c, 0, 61, 0
1, 24717, Note_on_c, 0, 67, 40
1, 24720, Note_on_c, 0, 64, 35
1, 24720, Note_on_c, 0, 57, 35
1, 24860, Note_on_c, 0, 57, 0
1, 24860, Note_on_c, 0, 64, 0
1, 24860, Note_on_c, 0, 67, 0
1, 24863, Note_on_c, 0, 67, 41
1, 24863, Note_on_c, 0, 64, 36
1, 24863, Note_on_c, 0, 57, 36
1, 25012, Note_on_c, 0, 57, 0
1, 25012, Note_on_c, 0, 64, 0
1, 25012, Note_on_c, 0, 67, 0
1, 25015, Note_on_c, 0, 67, 44
1, 25015, Note_on_c, 0, 64, 38
1, 25015, Note_on_c, 0, 57, 38
1, 25164, Note_on_c, 0, 81, 0
1, 25164, Note_on_c, 0, 69, 0
1, 25164, Note_on_c, 0, 81, 57
1, 25167, Note_on_c, 0, 93, 70
1, 25167, Note_on_c, 0, 57, 0
1, 25167, Note_on_c, 0, 64, 0
1, 25170, Note_on_c, 0, 67, 0
1, 25170, Note_on_c, 0, 67, 41
1, 25170, Note_on_c, 0, 64, 36
1, 25173, Note_on_c, 0, 57, 36
1, 25173, Control_c, 0, 91, 127
1, 25173, Control_c, 0, 64, 0
1, 25240, Control_c, 0, 64, 127
1, 25325, Note_on_c, 0, 57, 0
1, 25325, Note_on_c, 0, 64, 0
1, 25325, Note_on_c, 0, 67, 0
1, 25328, Note_on_c, 0, 67, 43
1, 25328, Note_on_c, 0, 64, 37
1, 25328, Note_on_c, 0, 57, 37
1, 25489, Note_on_c, 0, 93, 0
1, 25489, Note_on_c, 0, 81, 0
1, 25489, Note_on_c, 0, 93, 75
1, 25492, Note_on_c, 0, 81, 62
1, 25492, Note_on_c, 0, 57, 0
1, 25492, Note_on_c, 0, 64, 0
1, 25495, Note_on_c, 0, 67, 0
1, 25495, Note_on_c, 0, 62, 53
1, 25495, Control_c, 0, 64, 0
1, 25498, Note_on_c, 0, 50, 45
1, 25588, Control_c, 0, 64, 127
1, 25658, Note_on_c, 0, 50, 0
1, 25658, Note_on_c, 0, 62, 0
1, 25658, Note_on_c, 0, 65, 39
1, 25661, Note_on_c, 0, 57, 34
1, 25802, Note_on_c, 0, 81, 0
1, 25802, Note_on_c, 0, 93, 0
1, 25802, Note_on_c, 0, 77, 58
1, 25805, Note_on_c, 0, 89, 71
1, 25805, Note_on_c, 0, 57, 0
1, 25805, Note_on_c, 0, 65, 0
1, 25808, Note_on_c, 0, 57, 35
1, 25808, Note_on_c, 0, 65, 39
1, 25949, Note_on_c, 0, 65, 0
1, 25949, Note_on_c, 0, 57, 0
1, 25949, Note_on_c, 0, 57, 35
1, 25952, Note_on_c, 0, 65, 41
1, 26096, Note_on_c, 0, 89, 0
1, 26096, Note_on_c, 0, 77, 0
1, 26096, Note_on_c, 0, 86, 77
1, 26099, Note_on_c, 0, 74, 64
1, 26099, Note_on_c, 0, 65, 0
1, 26099, Note_on_c, 0, 57, 0
1, 26102, Note_on_c, 0, 57, 37
1, 26102, Note_on_c, 0, 65, 43
1, 26254, Note_on_c, 0, 65, 0
1, 26254, Note_on_c, 0, 57, 0
1, 26254, Note_on_c, 0, 57, 38
1, 26257, Note_on_c, 0, 65, 44
1, 26421, Note_on_c, 0, 74, 0
1, 26421, Note_on_c, 0, 86, 0
1, 26421, Note_on_c, 0, 72, 64
1, 26424, Note_on_c, 0, 84, 78
1, 26424, Note_on_c, 0, 65, 0
1, 26424, Note_on_c, 0, 57, 0
1, 26427, Note_on_c, 0, 64, 55
1, 26427, Note_on_c, 0, 52, 51
1, 26427, Control_c, 0, 64, 0
1, 26503, Control_c, 0, 64, 127
1, 26577, Note_on_c, 0, 52, 0
1, 26577, Note_on_c, 0, 64, 0
1, 26577, Note_on_c, 0, 67, 46
1, 26580, Note_on_c, 0, 60, 39
1, 26580, Note_on_c, 0, 58, 39
1, 26720, Note_on_c, 0, 58, 0
1, 26720, Note_on_c, 0, 60, 0
1, 26720, Note_on_c, 0, 67, 0
1, 26723, Note_on_c, 0, 67, 46
1, 26723, Note_on_c, 0, 60, 40
1, 26723, Note_on_c, 0, 58, 40
1, 26871, Note_on_c, 0, 58, 0
1, 26871, Note_on_c, 0, 60, 0
1, 26871, Note_on_c, 0, 67, 0
1, 26874, Note_on_c, 0, 67, 49
1, 26874, Note_on_c, 0, 60, 41
1, 26874, Note_on_c, 0, 58, 41
1, 27022, Note_on_c, 0, 84, 0
1, 27022, Note_on_c, 0, 72, 0
1, 27022, Note_on_c, 0, 84, 64
1, 27025, Note_on_c, 0, 96, 78
1, 27025, Note_on_c, 0, 58, 0
1, 27025, Note_on_c, 0, 60, 0
1, 27028, Note_on_c, 0, 67, 0
1, 27028, Note_on_c, 0, 67, 46
1, 27028, Note_on_c, 0, 60, 39
1, 27031, Note_on_c, 0, 58, 39
1, 27031, Control_c, 0, 91, 127
1, 27031, Control_c, 0, 64, 0
1, 27100, Control_c, 0, 64, 127
1, 27187, Note_on_c, 0, 58, 0
1, 27187, Note_on_c, 0, 60, 0
1, 27187, Note_on_c, 0, 67, 0
1, 27190, Note_on_c, 0, 67, 47
1, 27190, Note_on_c, 0, 60, 40
1, 27190, Note_on_c, 0, 58, 40
1, 27356, Note_on_c, 0, 96, 0
1, 27356, Note_on_c, 0, 84, 0
1, 27356, Note_on_c, 0, 96, 86
1, 27359, Note_on_c, 0, 84, 71
1, 27359, Note_on_c, 0, 58, 0
1, 27359, Note_on_c, 0, 60, 0
1, 27362, Note_on_c, 0, 67, 0
1, 27362, Note_on_c, 0, 65, 60
1, 27362, Control_c, 0, 64, 0
1, 27365, Note_on_c, 0, 53, 54
1, 27460, Control_c, 0, 64, 127
1, 27534, Note_on_c, 0, 53, 0
1, 27534, Note_on_c, 0, 65, 0
1, 27534, Note_on_c, 0, 69, 49
1, 27537, Note_on_c, 0, 60, 41
1, 27682, Note_on_c, 0, 84, 0
1, 27682, Note_on_c, 0, 96, 0
1, 27682, Note_on_c, 0, 81, 66
1, 27685, Note_on_c, 0, 93, 82
1, 27685, Note_on_c, 0, 60, 0
1, 27685, Note_on_c, 0, 69, 0
1, 27688, Note_on_c, 0, 60, 45
1, 27688, Note_on_c, 0, 69, 53
1, 27835, Note_on_c, 0, 69, 0
1, 27835, Note_on_c, 0, 60, 0
1, 27835, Note_on_c, 0, 60, 46
1, 27838, Note_on_c, 0, 69, 54
1, 27989, Note_on_c, 0, 93, 0
1, 27989, Note_on_c, 0, 81, 0
1, 27989, Note_on_c, 0, 89, 83
1, 27992, Note_on_c, 0, 77, 70
1, 27992, Note_on_c, 0, 69, 0
1, 27992, Note_on_c, 0, 60, 0
1, 27995, Note_on_c, 0, 60, 48
1, 27995, Note_on_c, 0, 69, 55
1, 28144, Note_on_c, 0, 69, 0
1, 28144, Note_on_c, 0, 60, 0
1, 28144, Note_on_c, 0, 60, 49
1, 28147, Note_on_c, 0, 69, 58
1, 28306, Note_on_c, 0, 77, 0
1, 28306, Note_on_c, 0, 89, 0
1, 28306, Note_on_c, 0, 74, 75
1, 28309, Note_on_c, 0, 86, 91
1, 28309, Note_on_c, 0, 69, 0
1, 28309, Note_on_c, 0, 60, 0
1, 28312, Note_on_c, 0, 59, 68
1, 28312, Note_on_c, 0, 47, 58
1, 28312, Control_c, 0, 64, 0
1, 28389, Control_c, 0, 64, 127
1, 28462, Note_on_c, 0, 47, 0
1, 28462, Note_on_c, 0, 59, 0
1, 28462, Note_on_c, 0, 65, 54
1, 28465, Note_on_c, 0, 56, 46
1, 28611, Note_on_c, 0, 56, 0
1, 28611, Note_on_c, 0, 65, 0
1, 28611, Note_on_c, 0, 65, 54
1, 28614, Note_on_c, 0, 56, 46
1, 28765, Note_on_c, 0, 56, 0
1, 28765, Note_on_c, 0, 65, 0
1, 28765, Note_on_c, 0, 65, 55
1, 28768, Note_on_c, 0, 56, 48
1, 28962, Note_on_c, 0, 86, 0
1, 28962, Note_on_c, 0, 74, 0
1, 28962, Note_on_c, 0, 86, 62
1, 28965, Note_on_c, 0, 98, 75
1, 28965, Note_on_c, 0, 56, 0
1, 28965, Note_on_c, 0, 65, 0
1, 28968, Note_on_c, 0, 65, 44
1, 28968, Note_on_c, 0, 56, 39
1, 28968, Control_c, 0, 91, 127
1, 28968, Control_c, 0, 64, 0
1, 29042, Control_c, 0, 64, 127
1, 29130, Note_on_c, 0, 56, 0
1, 29130, Note_on_c, 0, 65, 0
1, 29130, Note_on_c, 0, 65, 45
1, 29133, Note_on_c, 0, 56, 39
1, 29314, Note_on_c, 0, 98, 0
1, 29314, Note_on_c, 0, 86, 0
1, 29314, Note_on_c, 0, 98, 80
1, 29317, Note_on_c, 0, 86, 66
1, 29317, Note_on_c, 0, 56, 0
1, 29317, Note_on_c, 0, 65, 0
1, 29320, Note_on_c, 0, 60, 56
1, 29320, Control_c, 0, 64, 0
1, 29320, Note_on_c, 0, 48, 49
1, 29415, Control_c, 0, 64, 127
1, 29486, Note_on_c, 0, 48, 0
1, 29486, Note_on_c, 0, 60, 0
1, 29486, Note_on_c, 0, 62, 39
1, 29489, Note_on_c, 0, 58, 34
1, 29650, Note_on_c, 0, 86, 0
1, 29650, Note_on_c, 0, 98, 0
1, 29650, Note_on_c, 0, 82, 56
1, 29653, Note_on_c, 0, 94, 69
1, 29653, Note_on_c, 0, 58, 0
1, 29653, Note_on_c, 0, 62, 0
1, 29656, Note_on_c, 0, 58, 32
1, 29656, Note_on_c, 0, 62, 38
1, 29820, Note_on_c, 0, 62, 0
1, 29820, Note_on_c, 0, 58, 0
1, 29820, Note_on_c, 0, 58, 34
1, 29823, Note_on_c, 0, 62, 38
1, 29991, Note_on_c, 0, 94, 0
1, 29991, Note_on_c, 0, 82, 0
1, 29991, Note_on_c, 0, 91, 69
1, 29994, Note_on_c, 0, 79, 56
1, 29994, Note_on_c, 0, 62, 0
1, 29994, Note_on_c, 0, 58, 0
1, 29997, Note_on_c, 0, 58, 32
1, 29997, Note_on_c, 0, 64, 38
1, 30170, Note_on_c, 0, 64, 0
1, 30170, Note_on_c, 0, 58, 0
1, 30170, Note_on_c, 0, 58, 32
1, 30173, Note_on_c, 0, 64, 38
1, 30357, Note_on_c, 0, 79, 0
1, 30357, Note_on_c, 0, 91, 0
1, 30357, Note_on_c, 0, 77, 53
1, 30360, Note_on_c, 0, 89, 64
1, 30360, Note_on_c, 0, 64, 0
1, 30360, Note_on_c, 0, 58, 0
1, 30363, Note_on_c, 0, 57, 39
1, 30363, Note_on_c, 0, 65, 46
1, 30363, Control_c, 0, 64, 0
1, 30464, Control_c, 0, 64, 127
1, 30759, Note_on_c, 0, 89, 0
1, 30759, Note_on_c, 0, 77, 0
1, 30759, Note_on_c, 0, 65, 0
1, 30762, Note_on_c, 0, 57, 0
1, 30762, Note_on_c, 0, 41, 27
1, 30787, Note_on_c, 0, 48, 30
1, 30815, Note_on_c, 0, 57, 39
1, 30843, Note_on_c, 0, 60, 39
1, 30871, Note_on_c, 0, 65, 46
1, 31063, Control_c, 0, 64, 0
1, 31180, Note_on_c, 0, 60, 0
1, 31208, Note_on_c, 0, 65, 0
1, 31208, Note_on_c, 0, 57, 0
1, 31208, Note_on_c, 0, 48, 0
1, 31211, Note_on_c, 0, 41, 0
1, 31657, Control_c, 0, 91, 127
1, 32359, Note_on_c, 0, 57, 86
1, 32359, Note_on_c, 0, 51, 73
1, 32359, Note_on_c, 0, 48, 73
1, 32362, Note_on_c, 0, 30, 63
1, 32362, Note_on_c, 0, 42, 73
1, 32541, Note_on_c, 0, 48, 0
1, 32541, Note_on_c, 0, 51, 0
1, 32541, Note_on_c, 0, 57, 0
1, 32544, Note_on_c, 0, 48, 80
1, 32544, Note_on_c, 0, 52, 80
1, 32544, Note_on_c, 0, 58, 92
1, 32547, Note_on_c, 0, 42, 0
1, 32547, Note_on_c, 0, 30, 0
1, 32547, Note_on_c, 0, 31, 68
1, 32550, Note_on_c, 0, 43, 80
1, 32716, Note_on_c, 0, 58, 0
1, 32716, Note_on_c, 0, 52, 0
1, 32716, Note_on_c, 0, 48, 0
1, 32719, Note_on_c, 0, 60, 74
1, 32719, Note_on_c, 0, 69, 88
1, 32719, Note_on_c, 0, 63, 74
1, 32722, Note_on_c, 0, 43, 0
1, 32722, Note_on_c, 0, 31, 0
1, 32722, Note_on_c, 0, 42, 64
1, 32725, Note_on_c, 0, 54, 74
1, 32876, Note_on_c, 0, 63, 0
1, 32876, Note_on_c, 0, 69, 0
1, 32876, Note_on_c, 0, 60, 0
1, 32879, Note_on_c, 0, 64, 80
1, 32879, Note_on_c, 0, 60, 80
1, 32879, Note_on_c, 0, 70, 94
1, 32882, Note_on_c, 0, 54, 0
1, 32882, Note_on_c, 0, 42, 0
1, 32882, Note_on_c, 0, 43, 68
1, 32885, Note_on_c, 0, 55, 80
1, 33041, Note_on_c, 0, 70, 0
1, 33041, Note_on_c, 0, 60, 0
1, 33041, Note_on_c, 0, 64, 0
1, 33044, Note_on_c, 0, 75, 75
1, 33044, Note_on_c, 0, 72, 75
1, 33044, Note_on_c, 0, 81, 89
1, 33047, Note_on_c, 0, 55, 0
1, 33047, Note_on_c, 0, 43, 0
1, 33047, Note_on_c, 0, 54, 65
1, 33050, Note_on_c, 0, 66, 75
1, 33201, Note_on_c, 0, 81, 0
1, 33201, Note_on_c, 0, 72, 0
1, 33201, Note_on_c, 0, 75, 0
1, 33204, Note_on_c, 0, 76, 81
1, 33204, Note_on_c, 0, 82, 95
1, 33204, Note_on_c, 0, 72, 81
1, 33207, Note_on_c, 0, 66, 0
1, 33207, Note_on_c, 0, 54, 0
1, 33207, Note_on_c, 0, 55, 72
1, 33210, Note_on_c, 0, 67, 83
1, 33365, Note_on_c, 0, 72, 0
1, 33365, Note_on_c, 0, 82, 0
1, 33365, Note_on_c, 0, 76, 0
1, 33368, Note_on_c, 0, 93, 91
1, 33368, Note_on_c, 0, 84, 79
1, 33368, Note_on_c, 0, 87, 79
1, 33371, Note_on_c, 0, 67, 0
1, 33371, Note_on_c, 0, 55, 0
1, 33371, Note_on_c, 0, 66, 66
1, 33374, Note_on_c, 0, 78, 79
1, 33523, Note_on_c, 0, 87, 0
1, 33523, Note_on_c, 0, 84, 0
1, 33523, Note_on_c, 0, 93, 0
1, 33526, Note_on_c, 0, 84, 82
1, 33526, Note_on_c, 0, 78, 0
1, 33526, Note_on_c, 0, 66, 0
1, 33529, Note_on_c, 0, 67, 75
1, 33529, Note_on_c, 0, 79, 89
1, 33588, Control_c, 0, 64, 127
1, 33607, Note_on_c, 0, 84, 0
1, 33607, Note_on_c, 0, 94, 90
1, 33691, Note_on_c, 0, 94, 0
1, 33691, Note_on_c, 0, 91, 80
1, 33691, Note_on_c, 0, 96, 92
1, 33694, Note_on_c, 0, 79, 0
1, 33694, Note_on_c, 0, 67, 0
1, 33694, Note_on_c, 0, 82, 81
1, 33767, Note_on_c, 0, 91, 0
1, 33767, Note_on_c, 0, 88, 90
1, 33767, Note_on_c, 0, 82, 0
1, 33770, Note_on_c, 0, 79, 73
1, 33844, Note_on_c, 0, 88, 0
1, 33844, Note_on_c, 0, 96, 0
1, 33844, Note_on_c, 0, 84, 92
1, 33847, Note_on_c, 0, 79, 0
1, 33847, Note_on_c, 0, 76, 74
1, 33921, Note_on_c, 0, 84, 0
1, 33921, Note_on_c, 0, 82, 91
1, 33921, Note_on_c, 0, 76, 0
1, 33924, Note_on_c, 0, 72, 72
1, 33998, Note_on_c, 0, 82, 0
1, 33998, Note_on_c, 0, 79, 89
1, 33998, Note_on_c, 0, 72, 0
1, 34001, Note_on_c, 0, 70, 71
1, 34076, Note_on_c, 0, 79, 0
1, 34076, Note_on_c, 0, 76, 88
1, 34076, Note_on_c, 0, 70, 0
1, 34079, Note_on_c, 0, 67, 69
1, 34154, Note_on_c, 0, 76, 0
1, 34154, Note_on_c, 0, 72, 86
1, 34154, Note_on_c, 0, 67, 0
1, 34157, Note_on_c, 0, 64, 66
1, 34215, Control_c, 0, 64, 0
1, 34312, Note_on_c, 0, 72, 0
1, 34312, Note_on_c, 0, 50, 73
1, 34312, Note_on_c, 0, 53, 73
1, 34315, Note_on_c, 0, 59, 86
1, 34315, Note_on_c, 0, 64, 0
1, 34315, Note_on_c, 0, 32, 63
1, 34318, Note_on_c, 0, 44, 73
1, 34489, Note_on_c, 0, 59, 0
1, 34489, Note_on_c, 0, 53, 0
1, 34489, Note_on_c, 0, 50, 0
1, 34492, Note_on_c, 0, 48, 80
1, 34492, Note_on_c, 0, 60, 92
1, 34492, Note_on_c, 0, 53, 80
1, 34495, Note_on_c, 0, 44, 0
1, 34495, Note_on_c, 0, 32, 0
1, 34495, Note_on_c, 0, 33, 68
1, 34498, Note_on_c, 0, 45, 80
1, 34657, Note_on_c, 0, 53, 0
1, 34657, Note_on_c, 0, 60, 0
1, 34657, Note_on_c, 0, 48, 0
1, 34660, Note_on_c, 0, 65, 74
1, 34660, Note_on_c, 0, 62, 74
1, 34660, Note_on_c, 0, 71, 88
1, 34663, Note_on_c, 0, 45, 0
1, 34663, Note_on_c, 0, 33, 0
1, 34663, Note_on_c, 0, 44, 64
1, 34666, Note_on_c, 0, 56, 74
1, 34818, Note_on_c, 0, 71, 0
1, 34818, Note_on_c, 0, 62, 0
1, 34818, Note_on_c, 0, 65, 0
1, 34821, Note_on_c, 0, 65, 80
1, 34821, Note_on_c, 0, 60, 80
1, 34821, Note_on_c, 0, 72, 94
1, 34824, Note_on_c, 0, 56, 0
1, 34824, Note_on_c, 0, 44, 0
1, 34824, Note_on_c, 0, 45, 68
1, 34827, Note_on_c, 0, 57, 80
1, 34985, Note_on_c, 0, 72, 0
1, 34985, Note_on_c, 0, 60, 0
1, 34985, Note_on_c, 0, 65, 0
1, 34988, Note_on_c, 0, 77, 75
1, 34988, Note_on_c, 0, 83, 89
1, 34988, Note_on_c, 0, 74, 75
1, 34991, Note_on_c, 0, 57, 0
1, 34991, Note_on_c, 0, 45, 0
1, 34991, Note_on_c, 0, 56, 65
1, 34994, Note_on_c, 0, 68, 75
1, 35148, Note_on_c, 0, 74, 0
1, 35148, Note_on_c, 0, 83, 0
1, 35148, Note_on_c, 0, 77, 0
1, 35151, Note_on_c, 0, 84, 95
1, 35151, Note_on_c, 0, 72, 81
1, 35151, Note_on_c, 0, 77, 81
1, 35154, Note_on_c, 0, 68, 0
1, 35154, Note_on_c, 0, 56, 0
1, 35154, Note_on_c, 0, 57, 72
1, 35157, Note_on_c, 0, 69, 83
1, 35315, Note_on_c, 0, 77, 0
1, 35315, Note_on_c, 0, 72, 0
1, 35315, Note_on_c, 0, 84, 0
1, 35318, Note_on_c, 0, 95, 91
1, 35318, Note_on_c, 0, 86, 79
1, 35318, Note_on_c, 0, 89, 79
1, 35321, Note_on_c, 0, 69, 0
1, 35321, Note_on_c, 0, 57, 0
1, 35321, Note_on_c, 0, 68, 66
1, 35324, Note_on_c, 0, 80, 79
1, 35476, Note_on_c, 0, 89, 0
1, 35476, Note_on_c, 0, 86, 0
1, 35476, Note_on_c, 0, 95, 0
1, 35479, Note_on_c, 0, 84, 82
1, 35479, Note_on_c, 0, 80, 0
1, 35479, Note_on_c, 0, 68, 0
1, 35482, Note_on_c, 0, 69, 75
1, 35482, Note_on_c, 0, 81, 89
1, 35560, Note_on_c, 0, 84, 0
1, 35560, Note_on_c, 0, 101, 95
1, 35560, Control_c, 0, 64, 127
1, 35644, Note_on_c, 0, 101, 0
1, 35644, Note_on_c, 0, 96, 92
1, 35644, Note_on_c, 0, 81, 0
1, 35647, Note_on_c, 0, 69, 0
1, 35722, Note_on_c, 0, 93, 90
1, 35800, Note_on_c, 0, 93, 0
1, 35800, Note_on_c, 0, 96, 0
1, 35800, Note_on_c, 0, 89, 94
1, 35878, Note_on_c, 0, 89, 0
1, 35878, Note_on_c, 0, 84, 90
1, 35957, Note_on_c, 0, 84, 0
1, 35957, Note_on_c, 0, 81, 88
1, 36037, Note_on_c, 0, 81, 0
1, 36037, Note_on_c, 0, 77, 86
1, 36117, Note_on_c, 0, 77, 0
1, 36117, Note_on_c, 0, 78, 83
1, 36117, Note_on_c, 0, 60, 61
1, 36120, Note_on_c, 0, 63, 61
1, 36120, Note_on_c, 0, 69, 61
1, 36133, Control_c, 0, 64, 0
1, 36198, Note_on_c, 0, 78, 0
1, 36198, Note_on_c, 0, 81, 79
1, 36280, Note_on_c, 0, 84, 72
1, 36361, Note_on_c, 0, 84, 0
1, 36361, Note_on_c, 0, 87, 69
1, 36442, Note_on_c, 0, 81, 0
1, 36442, Note_on_c, 0, 79, 71
1, 36442, Note_on_c, 0, 69, 0
1, 36445, Note_on_c, 0, 63, 0
1, 36445, Note_on_c, 0, 60, 0
1, 36445, Note_on_c, 0, 46, 61
1, 36525, Note_on_c, 0, 87, 0
1, 36525, Note_on_c, 0, 86, 62
1, 36608, Note_on_c, 0, 86, 0
1, 36608, Note_on_c, 0, 85, 62
1, 36608, Note_on_c, 0, 46, 0
1, 36611, Note_on_c, 0, 55, 49
1, 36689, Note_on_c, 0, 85, 0
1, 36689, Note_on_c, 0, 86, 62
1, 36771, Note_on_c, 0, 86, 0
1, 36771, Note_on_c, 0, 91, 69
1, 36771, Note_on_c, 0, 62, 49
1, 36774, Note_on_c, 0, 58, 49
1, 36852, Note_on_c, 0, 79, 0
1, 36852, Note_on_c, 0, 80, 61
1, 36919, Note_on_c, 0, 91, 0
1, 36932, Note_on_c, 0, 91, 69
1, 36932, Note_on_c, 0, 81, 61
1, 36932, Note_on_c, 0, 62, 0
1, 36935, Note_on_c, 0, 67, 49
1, 36946, Note_on_c, 0, 80, 0
1, 37012, Note_on_c, 0, 82, 61
1, 37026, Note_on_c, 0, 81, 0
1, 37079, Note_on_c, 0, 91, 0
1, 37092, Note_on_c, 0, 83, 61
1, 37092, Note_on_c, 0, 91, 69
1, 37092, Note_on_c, 0, 67, 0
1, 37095, Note_on_c, 0, 58, 0
1, 37095, Note_on_c, 0, 55, 0
1, 37095, Note_on_c, 0, 43, 53
1, 37105, Note_on_c, 0, 82, 0
1, 37171, Note_on_c, 0, 84, 62
1, 37171, Note_on_c, 0, 43, 0
1, 37184, Note_on_c, 0, 83, 0
1, 37237, Note_on_c, 0, 91, 0
1, 37250, Note_on_c, 0, 85, 63
1, 37250, Note_on_c, 0, 91, 71
1, 37250, Note_on_c, 0, 65, 49
1, 37253, Note_on_c, 0, 59, 49
1, 37263, Note_on_c, 0, 84, 0
1, 37330, Note_on_c, 0, 86, 64
1, 37344, Note_on_c, 0, 85, 0
1, 37398, Note_on_c, 0, 91, 0
1, 37412, Note_on_c, 0, 89, 63
1, 37412, Note_on_c, 0, 91, 71
1, 37412, Note_on_c, 0, 59, 0
1, 37415, Note_on_c, 0, 65, 0
1, 37415, Note_on_c, 0, 48, 61
1, 37425, Note_on_c, 0, 86, 0
1, 37494, Note_on_c, 0, 88, 63
1, 37494, Note_on_c, 0, 48, 0
1, 37508, Note_on_c, 0, 89, 0
1, 37562, Note_on_c, 0, 91, 0
1, 37576, Note_on_c, 0, 91, 71
1, 37576, Note_on_c, 0, 87, 64
1, 37576, Note_on_c, 0, 60, 64
1, 37590, Note_on_c, 0, 88, 0
1, 37658, Note_on_c, 0, 88, 63
1, 37671, Note_on_c, 0, 87, 0
1, 37726, Note_on_c, 0, 91, 0
1, 37739, Note_on_c, 0, 84, 64
1, 37739, Note_on_c, 0, 96, 71
1, 37739, Note_on_c, 0, 67, 58
1, 37742, Note_on_c, 0, 64, 58
1, 37753, Note_on_c, 0, 88, 0
1, 37821, Note_on_c, 0, 85, 65
1, 37834, Note_on_c, 0, 84, 0
1, 37889, Note_on_c, 0, 96, 0
1, 37902, Note_on_c, 0, 96, 71
1, 37902, Note_on_c, 0, 86, 64
1, 37902, Note_on_c, 0, 64, 0
1, 37905, Note_on_c, 0, 67, 0
1, 37905, Note_on_c, 0, 72, 53
1, 37915, Note_on_c, 0, 85, 0
1, 37981, Note_on_c, 0, 87, 65
1, 37995, Note_on_c, 0, 86, 0
1, 38047, Note_on_c, 0, 96, 0
1, 38060, Note_on_c, 0, 96, 73
1, 38060, Note_on_c, 0, 88, 65
1, 38060, Note_on_c, 0, 72, 0
1, 38063, Note_on_c, 0, 60, 0
1, 38063, Note_on_c, 0, 58, 60
1, 38074, Note_on_c, 0, 87, 0
1, 38139, Note_on_c, 0, 89, 68
1, 38139, Note_on_c, 0, 58, 0
1, 38152, Note_on_c, 0, 88, 0
1, 38204, Note_on_c, 0, 96, 0
1, 38217, Note_on_c, 0, 90, 68
1, 38217, Note_on_c, 0, 96, 75
1, 38217, Note_on_c, 0, 72, 55
1, 38220, Note_on_c, 0, 67, 55
1, 38230, Note_on_c, 0, 89, 0
1, 38297, Note_on_c, 0, 91, 70
1, 38310, Note_on_c, 0, 90, 0
1, 38363, Note_on_c, 0, 96, 0
1, 38376, Note_on_c, 0, 94, 69
1, 38376, Note_on_c, 0, 96, 77
1, 38376, Note_on_c, 0, 67, 0
1, 38379, Note_on_c, 0, 72, 0
1, 38379, Note_on_c, 0, 57, 58
1, 38390, Note_on_c, 0, 91, 0
1, 38459, Note_on_c, 0, 93, 71
1, 38459, Note_on_c, 0, 57, 0
1, 38473, Note_on_c, 0, 94, 0
1, 38528, Note_on_c, 0, 96, 0
1, 38542, Note_on_c, 0, 92, 71
1, 38542, Note_on_c, 0, 96, 81
1, 38542, Note_on_c, 0, 60, 63
1, 38556, Note_on_c, 0, 93, 0
1, 38625, Note_on_c, 0, 93, 72
1, 38639, Note_on_c, 0, 92, 0
1, 38694, Note_on_c, 0, 96, 0
1, 38708, Note_on_c, 0, 101, 81
1, 38708, Note_on_c, 0, 89, 71
1, 38708, Note_on_c, 0, 69, 61
1, 38711, Note_on_c, 0, 65, 61
1, 38722, Note_on_c, 0, 93, 0
1, 38791, Note_on_c, 0, 90, 71
1, 38804, Note_on_c, 0, 89, 0
1, 38859, Note_on_c, 0, 101, 0
1, 38873, Note_on_c, 0, 91, 72
1, 38873, Note_on_c, 0, 101, 83
1, 38873, Note_on_c, 0, 65, 0
1, 38876, Note_on_c, 0, 69, 0
1, 38876, Note_on_c, 0, 72, 53
1, 38887, Note_on_c, 0, 90, 0
1, 38955, Note_on_c, 0, 92, 72
1, 38969, Note_on_c, 0, 91, 0
1, 39023, Note_on_c, 0, 101, 0
1, 39037, Note_on_c, 0, 101, 83
1, 39037, Note_on_c, 0, 93, 72
1, 39037, Note_on_c, 0, 72, 0
1, 39040, Note_on_c, 0, 60, 0
1, 39040, Note_on_c, 0, 53, 62
1, 39050, Note_on_c, 0, 92, 0
1, 39118, Note_on_c, 0, 94, 73
1, 39118, Note_on_c, 0, 53, 0
1, 39132, Note_on_c, 0, 93, 0
1, 39186, Note_on_c, 0, 101, 0
1, 39200, Note_on_c, 0, 101, 86
1, 39200, Note_on_c, 0, 95, 74
1, 39200, Note_on_c, 0, 65, 54
1, 39203, Note_on_c, 0, 57, 54
1, 39213, Note_on_c, 0, 94, 0
1, 39281, Note_on_c, 0, 98, 75
1, 39295, Note_on_c, 0, 95, 0
1, 39349, Note_on_c, 0, 101, 0
1, 39362, Note_on_c, 0, 100, 86
1, 39362, Note_on_c, 0, 96, 86
1, 39362, Note_on_c, 0, 57, 0
1, 39365, Note_on_c, 0, 65, 0
1, 39365, Note_on_c, 0, 48, 62
1, 39378, Note_on_c, 0, 98, 0
1, 39544, Note_on_c, 0, 96, 0
1, 39544, Note_on_c, 0, 100, 0
1, 39544, Note_on_c, 0, 72, 61
1, 39547, Note_on_c, 0, 52, 48
1, 39553, Control_c, 0, 64, 127
1, 39641, Note_on_c, 0, 72, 0
1, 39641, Note_on_c, 0, 76, 66
1, 39641, Note_on_c, 0, 52, 0
1, 39644, Note_on_c, 0, 55, 52
1, 39736, Note_on_c, 0, 76, 0
1, 39736, Note_on_c, 0, 79, 71
1, 39736, Note_on_c, 0, 55, 0
1, 39739, Note_on_c, 0, 48, 0
1, 39739, Note_on_c, 0, 64, 58
1, 39828, Note_on_c, 0, 79, 0
1, 39828, Note_on_c, 0, 84, 69
1, 39828, Note_on_c, 0, 64, 0
1, 39921, Note_on_c, 0, 84, 0
1, 39921, Note_on_c, 0, 88, 66
1, 40013, Note_on_c, 0, 88, 0
1, 40013, Note_on_c, 0, 91, 64
1, 40082, Control_c, 0, 64, 0
1, 40105, Note_on_c, 0, 91, 0
1, 40105, Note_on_c, 0, 90, 66
1, 40105, Note_on_c, 0, 57, 55
1, 40108, Note_on_c, 0, 54, 47
1, 40108, Note_on_c, 0, 48, 47
1, 40195, Note_on_c, 0, 90, 0
1, 40195, Note_on_c, 0, 99, 70
1, 40285, Note_on_c, 0, 99, 0
1, 40285, Note_on_c, 0, 87, 58
1, 40375, Note_on_c, 0, 87, 0
1, 40375, Note_on_c, 0, 96, 66
1, 40466, Note_on_c, 0, 96, 0
1, 40466, Note_on_c, 0, 91, 58
1, 40466, Note_on_c, 0, 48, 0
1, 40469, Note_on_c, 0, 54, 0
1, 40469, Note_on_c, 0, 57, 0
1, 40469, Note_on_c, 0, 48, 44
1, 40472, Note_on_c, 0, 58, 52
1, 40472, Note_on_c, 0, 55, 44
1, 40512, Control_c, 0, 64, 127
1, 40552, Note_on_c, 0, 91, 0
1, 40552, Note_on_c, 0, 100, 52
1, 40639, Note_on_c, 0, 100, 0
1, 40639, Note_on_c, 0, 88, 53
1, 40702, Note_on_c, 0, 88, 0
1, 40723, Note_on_c, 0, 88, 53
1, 40787, Note_on_c, 0, 88, 0
1, 40808, Note_on_c, 0, 96, 62
1, 40808, Note_on_c, 0, 55, 0
1, 40808, Note_on_c, 0, 58, 0
1, 40811, Note_on_c, 0, 64, 53
1, 40811, Note_on_c, 0, 60, 45
1, 40811, Note_on_c, 0, 58, 45
1, 40815, Control_c, 0, 64, 0
1, 40871, Control_c, 0, 64, 127
1, 40890, Note_on_c, 0, 96, 0
1, 40890, Note_on_c, 0, 84, 54
1, 40951, Note_on_c, 0, 84, 0
1, 40971, Note_on_c, 0, 84, 54
1, 41053, Note_on_c, 0, 84, 0
1, 41053, Note_on_c, 0, 91, 55
1, 41114, Note_on_c, 0, 91, 0
1, 41135, Note_on_c, 0, 79, 65
1, 41135, Note_on_c, 0, 58, 0
1, 41135, Note_on_c, 0, 48, 0
1, 41138, Note_on_c, 0, 64, 0
1, 41138, Note_on_c, 0, 60, 0
1, 41138, Note_on_c, 0, 67, 56
1, 41141, Note_on_c, 0, 60, 48
1, 41141, Note_on_c, 0, 58, 48
1, 41141, Control_c, 0, 64, 0
1, 41189, Control_c, 0, 64, 127
1, 41197, Note_on_c, 0, 79, 0
1, 41218, Note_on_c, 0, 79, 56
1, 41302, Note_on_c, 0, 79, 0
1, 41302, Note_on_c, 0, 88, 58
1, 41385, Note_on_c, 0, 88, 0
1, 41385, Note_on_c, 0, 76, 58
1, 41448, Note_on_c, 0, 76, 0
1, 41469, Note_on_c, 0, 76, 69
1, 41469, Note_on_c, 0, 58, 0
1, 41469, Note_on_c, 0, 60, 0
1, 41472, Note_on_c, 0, 67, 0
1, 41472, Note_on_c, 0, 67, 60
1, 41472, Note_on_c, 0, 60, 52
1, 41475, Note_on_c, 0, 58, 52
1, 41475, Control_c, 0, 64, 0
1, 41493, Control_c, 0, 64, 127
1, 41551, Note_on_c, 0, 76, 0
1, 41551, Note_on_c, 0, 84, 62
1, 41633, Note_on_c, 0, 84, 0
1, 41633, Note_on_c, 0, 72, 62
1, 41694, Note_on_c, 0, 72, 0
1, 41715, Note_on_c, 0, 72, 62
1, 41776, Note_on_c, 0, 72, 0
1, 41797, Note_on_c, 0, 79, 71
1, 41877, Note_on_c, 0, 79, 0
1, 41877, Note_on_c, 0, 67, 62
1, 41938, Note_on_c, 0, 67, 0
1, 41958, Note_on_c, 0, 67, 62
1, 42038, Note_on_c, 0, 67, 0
1, 42038, Note_on_c, 0, 79, 62
1, 42099, Note_on_c, 0, 79, 0
1, 42119, Note_on_c, 0, 64, 71
1, 42119, Note_on_c, 0, 58, 0
1, 42119, Note_on_c, 0, 60, 0
1, 42122, Note_on_c, 0, 67, 0
1, 42122, Note_on_c, 0, 56, 57
1, 42125, Control_c, 0, 64, 0
1, 42148, Control_c, 0, 64, 127
1, 42181, Note_on_c, 0, 64, 0
1, 42202, Note_on_c, 0, 64, 63
1, 42284, Note_on_c, 0, 64, 0
1, 42284, Note_on_c, 0, 72, 63
1, 42367, Note_on_c, 0, 72, 0
1, 42367, Note_on_c, 0, 60, 64
1, 42367, Note_on_c, 0, 56, 0
1, 42370, Note_on_c, 0, 41, 46
1, 42409, Note_on_c, 0, 48, 51
1, 42450, Note_on_c, 0, 60, 0
1, 42450, Note_on_c, 0, 65, 80
1, 42450, Note_on_c, 0, 57, 65
1, 42457, Control_c, 0, 64, 0
1, 42484, Control_c, 0, 64, 127
1, 42532, Note_on_c, 0, 65, 0
1, 42532, Note_on_c, 0, 72, 65
1, 42614, Note_on_c, 0, 72, 0
1, 42614, Note_on_c, 0, 60, 65
1, 42695, Note_on_c, 0, 60, 0
1, 42695, Note_on_c, 0, 69, 66
1, 42777, Note_on_c, 0, 69, 0
1, 42777, Note_on_c, 0, 77, 79
1, 42777, Note_on_c, 0, 57, 0
1, 42780, Note_on_c, 0, 48, 0
1, 42780, Note_on_c, 0, 41, 0
1, 42780, Note_on_c, 0, 60, 66
1, 42783, Note_on_c, 0, 57, 56
1, 42856, Note_on_c, 0, 77, 0
1, 42856, Note_on_c, 0, 65, 68
1, 42935, Note_on_c, 0, 65, 0
1, 42935, Note_on_c, 0, 72, 68
1, 43014, Note_on_c, 0, 72, 0
1, 43014, Note_on_c, 0, 81, 69
1, 43093, Note_on_c, 0, 81, 0
1, 43093, Note_on_c, 0, 69, 82
1, 43093, Note_on_c, 0, 57, 0
1, 43096, Note_on_c, 0, 60, 0
1, 43096, Note_on_c, 0, 65, 70
1, 43096, Note_on_c, 0, 57, 60
1, 43174, Note_on_c, 0, 69, 0
1, 43174, Note_on_c, 0, 77, 70
1, 43255, Note_on_c, 0, 77, 0
1, 43255, Note_on_c, 0, 84, 72
1, 43336, Note_on_c, 0, 84, 0
1, 43336, Note_on_c, 0, 72, 72
1, 43417, Note_on_c, 0, 72, 0
1, 43417, Note_on_c, 0, 84, 86
1, 43417, Note_on_c, 0, 57, 0
1, 43420, Note_on_c, 0, 65, 0
1, 43420, Note_on_c, 0, 65, 74
1, 43420, Note_on_c, 0, 57, 63
1, 43497, Note_on_c, 0, 84, 0
1, 43497, Note_on_c, 0, 89, 74
1, 43578, Note_on_c, 0, 89, 0
1, 43578, Note_on_c, 0, 77, 75
1, 43659, Note_on_c, 0, 77, 0
1, 43659, Note_on_c, 0, 84, 80
1, 43740, Note_on_c, 0, 84, 0
1, 43740, Note_on_c, 0, 93, 92
1, 43820, Note_on_c, 0, 93, 0
1, 43820, Note_on_c, 0, 81, 83
1, 43899, Note_on_c, 0, 81, 0
1, 43899, Note_on_c, 0, 89, 84
1, 43979, Note_on_c, 0, 89, 0
1, 43979, Note_on_c, 0, 96, 84
1, 44059, Note_on_c, 0, 96, 0
1, 44059, Note_on_c, 0, 84, 96
1, 44059, Note_on_c, 0, 57, 0
1, 44062, Note_on_c, 0, 65, 0
1, 44139, Note_on_c, 0, 84, 0
1, 44139, Note_on_c, 0, 93, 89
1, 44219, Note_on_c, 0, 93, 0
1, 44219, Note_on_c, 0, 101, 90
1, 44299, Note_on_c, 0, 101, 0
1, 44299, Note_on_c, 0, 89, 91
1, 44380, Note_on_c, 0, 89, 0
1, 44380, Note_on_c, 0, 92, 94
1, 44380, Note_on_c, 0, 47, 79
1, 44383, Control_c, 0, 64, 0
1, 44441, Control_c, 0, 64, 127
1, 44460, Note_on_c, 0, 92, 0
1, 44460, Note_on_c, 0, 101, 98
1, 44541, Note_on_c, 0, 101, 0
1, 44541, Note_on_c, 0, 100, 97
1, 44541, Note_on_c, 0, 47, 0
1, 44544, Note_on_c, 0, 62, 65
1, 44619, Note_on_c, 0, 100, 0
1, 44619, Note_on_c, 0, 99, 94
1, 44698, Note_on_c, 0, 99, 0
1, 44698, Note_on_c, 0, 98, 92
1, 44698, Note_on_c, 0, 101, 87
1, 44701, Note_on_c, 0, 65, 68
1, 44777, Note_on_c, 0, 98, 0
1, 44777, Note_on_c, 0, 97, 89
1, 44856, Note_on_c, 0, 97, 0
1, 44856, Note_on_c, 0, 96, 89
1, 44856, Note_on_c, 0, 68, 71
1, 44935, Note_on_c, 0, 96, 0
1, 44935, Note_on_c, 0, 95, 87
1, 45014, Note_on_c, 0, 95, 0
1, 45014, Note_on_c, 0, 101, 0
1, 45014, Note_on_c, 0, 92, 78
1, 45017, Note_on_c, 0, 98, 91
1, 45017, Note_on_c, 0, 68, 0
1, 45017, Note_on_c, 0, 71, 73
1, 45021, Control_c, 0, 64, 0
1, 45069, Control_c, 0, 64, 127
1, 45097, Note_on_c, 0, 92, 0
1, 45097, Note_on_c, 0, 86, 87
1, 45179, Note_on_c, 0, 86, 0
1, 45179, Note_on_c, 0, 98, 0
1, 45179, Note_on_c, 0, 91, 72
1, 45182, Note_on_c, 0, 95, 86
1, 45182, Note_on_c, 0, 67, 71
1, 45261, Note_on_c, 0, 91, 0
1, 45261, Note_on_c, 0, 89, 83
1, 45343, Note_on_c, 0, 89, 0
1, 45343, Note_on_c, 0, 95, 0
1, 45343, Note_on_c, 0, 96, 91
1, 45346, Note_on_c, 0, 88, 79
1, 45346, Note_on_c, 0, 67, 0
1, 45346, Note_on_c, 0, 62, 0
1, 45349, Note_on_c, 0, 65, 0
1, 45349, Note_on_c, 0, 71, 0
1, 45349, Note_on_c, 0, 48, 79
1, 45352, Control_c, 0, 64, 0
1, 45386, Control_c, 0, 64, 127
1, 45424, Note_on_c, 0, 88, 0
1, 45424, Note_on_c, 0, 94, 80
1, 45506, Note_on_c, 0, 94, 0
1, 45506, Note_on_c, 0, 93, 79
1, 45506, Note_on_c, 0, 48, 0
1, 45509, Note_on_c, 0, 55, 60
1, 45585, Note_on_c, 0, 93, 0
1, 45585, Note_on_c, 0, 92, 77
1, 45664, Note_on_c, 0, 92, 0
1, 45664, Note_on_c, 0, 96, 0
1, 45664, Note_on_c, 0, 91, 71
1, 45667, Note_on_c, 0, 96, 83
1, 45667, Note_on_c, 0, 58, 62
1, 45744, Note_on_c, 0, 91, 0
1, 45744, Note_on_c, 0, 90, 69
1, 45823, Note_on_c, 0, 90, 0
1, 45823, Note_on_c, 0, 89, 68
1, 45823, Note_on_c, 0, 61, 64
1, 45903, Note_on_c, 0, 89, 0
1, 45903, Note_on_c, 0, 88, 68
1, 45984, Note_on_c, 0, 88, 0
1, 45984, Note_on_c, 0, 96, 0
1, 45984, Note_on_c, 0, 85, 62
1, 45987, Note_on_c, 0, 91, 71
1, 45987, Note_on_c, 0, 61, 0
1, 45987, Note_on_c, 0, 64, 66
1, 45991, Control_c, 0, 64, 0
1, 46007, Control_c, 0, 64, 127
1, 46066, Note_on_c, 0, 85, 0
1, 46066, Note_on_c, 0, 79, 60
1, 46148, Note_on_c, 0, 79, 0
1, 46148, Note_on_c, 0, 91, 0
1, 46148, Note_on_c, 0, 88, 65
1, 46151, Note_on_c, 0, 84, 56
1, 46151, Note_on_c, 0, 60, 63
1, 46231, Note_on_c, 0, 84, 0
1, 46231, Note_on_c, 0, 82, 56
1, 46313, Note_on_c, 0, 82, 0
1, 46313, Note_on_c, 0, 88, 0
1, 46313, Note_on_c, 0, 84, 56
1, 46316, Note_on_c, 0, 60, 0
1, 46316, Note_on_c, 0, 55, 0
1, 46316, Note_on_c, 0, 58, 0
1, 46319, Note_on_c, 0, 64, 0
1, 46319, Note_on_c, 0, 41, 56
1, 46319, Control_c, 0, 64, 0
1, 46367, Control_c, 0, 64, 127
1, 46394, Note_on_c, 0, 84, 0
1, 46394, Note_on_c, 0, 89, 51
1, 46394, Note_on_c, 0, 93, 61
1, 46476, Note_on_c, 0, 89, 0
1, 46476, Note_on_c, 0, 81, 56
1, 46476, Note_on_c, 0, 41, 0
1, 46479, Note_on_c, 0, 63, 47
1, 46479, Note_on_c, 0, 72, 56
1, 46557, Note_on_c, 0, 81, 0
1, 46557, Note_on_c, 0, 93, 0
1, 46557, Note_on_c, 0, 78, 56
1, 46639, Note_on_c, 0, 78, 0
1, 46639, Note_on_c, 0, 77, 56
1, 46639, Note_on_c, 0, 72, 0
1, 46642, Note_on_c, 0, 63, 0
1, 46642, Note_on_c, 0, 62, 44
1, 46642, Note_on_c, 0, 70, 51
1, 46646, Control_c, 0, 64, 0
1, 46690, Control_c, 0, 64, 127
1, 46721, Note_on_c, 0, 77, 0
1, 46721, Note_on_c, 0, 86, 51
1, 46721, Note_on_c, 0, 89, 61
1, 46804, Note_on_c, 0, 86, 0
1, 46804, Note_on_c, 0, 77, 57
1, 46804, Note_on_c, 0, 70, 0
1, 46807, Note_on_c, 0, 62, 0
1, 46807, Note_on_c, 0, 61, 49
1, 46807, Note_on_c, 0, 65, 57
1, 46810, Note_on_c, 0, 58, 49
1, 46886, Note_on_c, 0, 77, 0
1, 46886, Note_on_c, 0, 89, 0
1, 46886, Note_on_c, 0, 73, 57
1, 46969, Note_on_c, 0, 73, 0
1, 46969, Note_on_c, 0, 72, 57
1, 46969, Note_on_c, 0, 58, 0
1, 46972, Note_on_c, 0, 60, 57
1, 46972, Note_on_c, 0, 57, 49
1, 46975, Control_c, 0, 64, 0
1, 46997, Control_c, 0, 64, 127
1, 47052, Note_on_c, 0, 72, 0
1, 47052, Note_on_c, 0, 84, 62
1, 47052, Note_on_c, 0, 81, 53
1, 47134, Note_on_c, 0, 81, 0
1, 47134, Note_on_c, 0, 72, 57
1, 47134, Note_on_c, 0, 57, 0
1, 47137, Note_on_c, 0, 61, 0
1, 47137, Note_on_c, 0, 65, 0
1, 47137, Note_on_c, 0, 64, 51
1, 47140, Note_on_c, 0, 55, 44
1, 47217, Note_on_c, 0, 72, 0
1, 47217, Note_on_c, 0, 84, 0
1, 47217, Note_on_c, 0, 70, 57
1, 47299, Note_on_c, 0, 70, 0
1, 47299, Note_on_c, 0, 69, 57
1, 47299, Note_on_c, 0, 55, 0
1, 47302, Note_on_c, 0, 64, 0
1, 47302, Note_on_c, 0, 53, 51
1, 47302, Note_on_c, 0, 65, 51
1, 47305, Control_c, 0, 64, 0
1, 47341, Control_c, 0, 64, 127
1, 47382, Note_on_c, 0, 69, 0
1, 47382, Note_on_c, 0, 77, 53
1, 47382, Note_on_c, 0, 81, 62
1, 47465, Note_on_c, 0, 77, 0
1, 47465, Note_on_c, 0, 69, 57
1, 47465, Note_on_c, 0, 65, 0
1, 47468, Note_on_c, 0, 53, 0
1, 47468, Note_on_c, 0, 60, 0
1, 47550, Note_on_c, 0, 69, 0
1, 47550, Note_on_c, 0, 81, 0
1, 47550, Note_on_c, 0, 65, 57
1, 47635, Note_on_c, 0, 65, 0
1, 47635, Note_on_c, 0, 41, 38
1, 47641, Control_c, 0, 64, 0
1, 47656, Note_on_c, 0, 48, 39
1, 47677, Note_on_c, 0, 53, 40
1, 47695, Control_c, 0, 64, 127
1, 47699, Note_on_c, 0, 57, 48
1, 47720, Note_on_c, 0, 60, 53
1, 47975, Note_on_c, 0, 60, 0
1, 47975, Note_on_c, 0, 57, 0
1, 47975, Note_on_c, 0, 53, 0
1, 47978, Note_on_c, 0, 48, 0
1, 47978, Note_on_c, 0, 41, 0
1, 47982, Control_c, 0, 64, 0
1, 48145, Note_on_c, 0, 93, 81
1, 48145, Note_on_c, 0, 96, 95
1, 48145, Note_on_c, 0, 87, 89
1, 48170, Control_c, 0, 64, 127
1, 48229, Note_on_c, 0, 93, 0
1, 48229, Note_on_c, 0, 84, 74
1, 48229, Note_on_c, 0, 90, 88
1, 48312, Note_on_c, 0, 90, 0
1, 48312, Note_on_c, 0, 84, 0
1, 48312, Note_on_c, 0, 96, 0
1, 48315, Note_on_c, 0, 91, 92
1, 48315, Note_on_c, 0, 87, 0
1, 48315, Note_on_c, 0, 88, 95
1, 48315, Control_c, 0, 64, 0
1, 48355, Control_c, 0, 64, 127
1, 48393, Note_on_c, 0, 84, 84
1, 48473, Note_on_c, 0, 84, 0
1, 48473, Note_on_c, 0, 91, 0
1, 48473, Note_on_c, 0, 81, 79
1, 48476, Note_on_c, 0, 84, 91
1, 48476, Note_on_c, 0, 88, 0
1, 48476, Note_on_c, 0, 75, 88
1, 48480, Control_c, 0, 64, 0
1, 48513, Control_c, 0, 64, 127
1, 48557, Note_on_c, 0, 81, 0
1, 48557, Note_on_c, 0, 72, 69
1, 48557, Note_on_c, 0, 78, 81
1, 48640, Note_on_c, 0, 78, 0
1, 48640, Note_on_c, 0, 72, 0
1, 48640, Note_on_c, 0, 84, 0
1, 48643, Note_on_c, 0, 79, 88
1, 48643, Note_on_c, 0, 75, 0
1, 48643, Note_on_c, 0, 76, 94
1, 48647, Control_c, 0, 64, 0
1, 48656, Control_c, 0, 64, 127
1, 48721, Note_on_c, 0, 72, 79
1, 48801, Note_on_c, 0, 72, 0
1, 48801, Note_on_c, 0, 79, 0
1, 48801, Note_on_c, 0, 69, 73
1, 48804, Note_on_c, 0, 72, 86
1, 48804, Note_on_c, 0, 76, 0
1, 48804, Note_on_c, 0, 63, 82
1, 48808, Control_c, 0, 64, 0
1, 48825, Control_c, 0, 64, 127
1, 48885, Note_on_c, 0, 69, 0
1, 48885, Note_on_c, 0, 60, 65
1, 48885, Note_on_c, 0, 66, 75
1, 48968, Note_on_c, 0, 66, 0
1, 48968, Note_on_c, 0, 60, 0
1, 48968, Note_on_c, 0, 72, 0
1, 48971, Note_on_c, 0, 67, 80
1, 48971, Note_on_c, 0, 63, 0
1, 48971, Note_on_c, 0, 64, 89
1, 48974, Control_c, 0, 64, 0
1, 49006, Control_c, 0, 64, 127
1, 49048, Note_on_c, 0, 65, 79
1, 49129, Note_on_c, 0, 65, 0
1, 49129, Note_on_c, 0, 67, 0
1, 49129, Note_on_c, 0, 67, 88
1, 49132, Note_on_c, 0, 64, 74
1, 49132, Note_on_c, 0, 64, 0
1, 49132, Note_on_c, 0, 34, 70
1, 49135, Note_on_c, 0, 46, 83
1, 49141, Control_c, 0, 64, 0
1, 49165, Control_c, 0, 64, 127
1, 49215, Note_on_c, 0, 64, 0
1, 49215, Note_on_c, 0, 62, 81
1, 49301, Note_on_c, 0, 62, 0
1, 49301, Note_on_c, 0, 67, 0
1, 49301, Note_on_c, 0, 69, 86
1, 49304, Note_on_c, 0, 61, 73
1, 49304, Note_on_c, 0, 46, 0
1, 49304, Note_on_c, 0, 34, 0
1, 49307, Note_on_c, 0, 33, 80
1, 49307, Note_on_c, 0, 45, 94
1, 49307, Control_c, 0, 64, 0
1, 49361, Control_c, 0, 64, 127
1, 49391, Note_on_c, 0, 61, 0
1, 49391, Note_on_c, 0, 58, 73
1, 49481, Note_on_c, 0, 58, 0
1, 49481, Note_on_c, 0, 69, 0
1, 49481, Note_on_c, 0, 64, 73
1, 49484, Note_on_c, 0, 45, 0
1, 49484, Note_on_c, 0, 33, 0
1, 49484, Note_on_c, 0, 57, 69
1, 49484, Control_c, 0, 64, 0
1, 49524, Control_c, 0, 64, 127
1, 49564, Note_on_c, 0, 57, 0
1, 49564, Note_on_c, 0, 52, 61
1, 49647, Note_on_c, 0, 67, 79
1, 49647, Note_on_c, 0, 52, 0
1, 49647, Note_on_c, 0, 49, 66
1, 49730, Note_on_c, 0, 49, 0
1, 49730, Note_on_c, 0, 46, 65
1, 49813, Note_on_c, 0, 67, 0
1, 49813, Note_on_c, 0, 70, 84
1, 49813, Note_on_c, 0, 46, 0
1, 49816, Note_on_c, 0, 45, 63
1, 49897, Note_on_c, 0, 45, 0
1, 49897, Note_on_c, 0, 43, 62
1, 49980, Note_on_c, 0, 70, 0
1, 49980, Note_on_c, 0, 69, 72
1, 49980, Note_on_c, 0, 73, 87
1, 49983, Note_on_c, 0, 43, 0
1, 49983, Note_on_c, 0, 40, 61
1, 49987, Control_c, 0, 64, 0
1, 50012, Control_c, 0, 64, 127
1, 50064, Note_on_c, 0, 40, 0
1, 50064, Note_on_c, 0, 37, 64
1, 50149, Note_on_c, 0, 69, 0
1, 50149, Note_on_c, 0, 67, 86
1, 50149, Note_on_c, 0, 37, 0
1, 50152, Note_on_c, 0, 34, 68
1, 50233, Note_on_c, 0, 34, 0
1, 50233, Note_on_c, 0, 33, 70
1, 50318, Note_on_c, 0, 67, 0
1, 50318, Note_on_c, 0, 73, 0
1, 50318, Note_on_c, 0, 64, 0
1, 50321, Note_on_c, 0, 74, 82
1, 50321, Note_on_c, 0, 65, 79
1, 50321, Note_on_c, 0, 33, 0
1, 50324, Control_c, 0, 64, 0
1, 50324, Note_on_c, 0, 38, 73
1, 50406, Note_on_c, 0, 38, 0
1, 50406, Note_on_c, 0, 41, 73
1, 50496, Note_on_c, 0, 65, 0
1, 50496, Note_on_c, 0, 74, 0
1, 50496, Note_on_c, 0, 85, 81
1, 50499, Note_on_c, 0, 93, 95
1, 50499, Note_on_c, 0, 41, 0
1, 50499, Note_on_c, 0, 45, 74
1, 50532, Control_c, 0, 64, 127
1, 50580, Note_on_c, 0, 85, 0
1, 50580, Note_on_c, 0, 79, 74
1, 50580, Note_on_c, 0, 88, 88
1, 50583, Note_on_c, 0, 45, 0
1, 50583, Note_on_c, 0, 49, 75
1, 50663, Note_on_c, 0, 88, 0
1, 50663, Note_on_c, 0, 79, 0
1, 50663, Note_on_c, 0, 93, 0
1, 50666, Note_on_c, 0, 86, 81
1, 50666, Note_on_c, 0, 89, 92
1, 50666, Note_on_c, 0, 49, 0
1, 50669, Note_on_c, 0, 50, 75
1, 50669, Control_c, 0, 64, 0
1, 50694, Control_c, 0, 64, 127
1, 50744, Note_on_c, 0, 86, 0
1, 50744, Note_on_c, 0, 77, 84
1, 50744, Note_on_c, 0, 50, 0
1, 50747, Note_on_c, 0, 53, 77
1, 50824, Note_on_c, 0, 77, 0
1, 50824, Note_on_c, 0, 89, 0
1, 50824, Note_on_c, 0, 72, 79
1, 50827, Note_on_c, 0, 81, 91
1, 50827, Note_on_c, 0, 53, 0
1, 50827, Note_on_c, 0, 57, 78
1, 50831, Control_c, 0, 64, 0
1, 50844, Control_c, 0, 64, 127
1, 50908, Note_on_c, 0, 72, 0
1, 50908, Note_on_c, 0, 67, 69
1, 50908, Note_on_c, 0, 76, 81
1, 50911, Note_on_c, 0, 57, 0
1, 50911, Note_on_c, 0, 61, 79
1, 50991, Note_on_c, 0, 76, 0
1, 50991, Note_on_c, 0, 67, 0
1, 50991, Note_on_c, 0, 81, 0
1, 50994, Note_on_c, 0, 74, 81
1, 50994, Note_on_c, 0, 77, 88
1, 50994, Note_on_c, 0, 61, 0
1, 50997, Note_on_c, 0, 62, 79
1, 50997, Control_c, 0, 64, 0
1, 51041, Control_c, 0, 64, 127
1, 51072, Note_on_c, 0, 74, 0
1, 51072, Note_on_c, 0, 64, 79
1, 51072, Note_on_c, 0, 62, 0
1, 51152, Note_on_c, 0, 64, 0
1, 51152, Note_on_c, 0, 77, 0
1, 51152, Note_on_c, 0, 65, 73
1, 51155, Note_on_c, 0, 71, 86
1, 51155, Note_on_c, 0, 37, 70
1, 51155, Note_on_c, 0, 49, 83
1, 51160, Control_c, 0, 64, 0
1, 51197, Control_c, 0, 64, 127
1, 51238, Note_on_c, 0, 65, 0
1, 51238, Note_on_c, 0, 67, 75
1, 51324, Note_on_c, 0, 67, 0
1, 51324, Note_on_c, 0, 71, 0
1, 51324, Note_on_c, 0, 68, 79
1, 51327, Note_on_c, 0, 72, 84
1, 51327, Note_on_c, 0, 49, 0
1, 51327, Note_on_c, 0, 37, 0
1, 51330, Note_on_c, 0, 36, 80
1, 51330, Note_on_c, 0, 48, 94
1, 51330, Control_c, 0, 64, 0
1, 51360, Control_c, 0, 64, 127
1, 51407, Note_on_c, 0, 68, 0
1, 51407, Note_on_c, 0, 65, 79
1, 51490, Note_on_c, 0, 65, 0
1, 51490, Note_on_c, 0, 64, 73
1, 51490, Note_on_c, 0, 48, 0
1, 51493, Note_on_c, 0, 36, 0
1, 51493, Note_on_c, 0, 55, 72
1, 51574, Note_on_c, 0, 64, 0
1, 51574, Note_on_c, 0, 67, 79
1, 51658, Note_on_c, 0, 67, 0
1, 51658, Note_on_c, 0, 72, 0
1, 51658, Note_on_c, 0, 70, 70
1, 51661, Note_on_c, 0, 58, 77
1, 51666, Control_c, 0, 64, 0
1, 51744, Note_on_c, 0, 70, 0
1, 51744, Note_on_c, 0, 73, 68
1, 51744, Control_c, 0, 64, 127
1, 51831, Note_on_c, 0, 73, 0
1, 51831, Note_on_c, 0, 76, 66
1, 51831, Note_on_c, 0, 58, 0
1, 51834, Note_on_c, 0, 61, 80
1, 51915, Note_on_c, 0, 76, 0
1, 51915, Note_on_c, 0, 79, 66
1, 52000, Note_on_c, 0, 79, 0
1, 52000, Note_on_c, 0, 82, 63
1, 52000, Note_on_c, 0, 61, 0
1, 52003, Note_on_c, 0, 60, 72
1, 52003, Note_on_c, 0, 64, 84
1, 52007, Control_c, 0, 64, 0
1, 52054, Control_c, 0, 64, 127
1, 52088, Note_on_c, 0, 82, 0
1, 52088, Note_on_c, 0, 84, 65
1, 52176, Note_on_c, 0, 88, 65
1, 52176, Note_on_c, 0, 60, 0
1, 52176, Note_on_c, 0, 58, 79
1, 52264, Note_on_c, 0, 91, 66
1, 52352, Note_on_c, 0, 96, 69
1, 52352, Note_on_c, 0, 58, 0
1, 52352, Note_on_c, 0, 55, 0
1, 52355, Note_on_c, 0, 60, 74
1, 52355, Note_on_c, 0, 57, 74
1, 52360, Control_c, 0, 64, 0
1, 52379, Control_c, 0, 64, 127
1, 52439, Note_on_c, 0, 91, 0
1, 52439, Note_on_c, 0, 84, 0
1, 52439, Note_on_c, 0, 88, 0
1, 52442, Note_on_c, 0, 84, 62
1, 52526, Note_on_c, 0, 96, 0
1, 52526, Note_on_c, 0, 96, 68
1, 52526, Note_on_c, 0, 57, 0
1, 52529, Note_on_c, 0, 60, 0
1, 52529, Note_on_c, 0, 64, 0
1, 52529, Note_on_c, 0, 60, 55
1, 52532, Note_on_c, 0, 65, 64
1, 52532, Control_c, 0, 64, 0
1, 52545, Control_c, 0, 64, 127
1, 52613, Note_on_c, 0, 84, 0
1, 52613, Note_on_c, 0, 89, 63
1, 52699, Note_on_c, 0, 89, 0
1, 52699, Note_on_c, 0, 96, 0
1, 52699, Note_on_c, 0, 83, 71
1, 52702, Note_on_c, 0, 95, 71
1, 52702, Note_on_c, 0, 55, 69
1, 52702, Control_c, 0, 64, 0
1, 52754, Control_c, 0, 64, 127
1, 52791, Note_on_c, 0, 95, 0
1, 52791, Note_on_c, 0, 92, 65
1, 52883, Note_on_c, 0, 92, 0
1, 52883, Note_on_c, 0, 83, 0
1, 52883, Note_on_c, 0, 86, 66
1, 52886, Note_on_c, 0, 91, 66
1, 52886, Note_on_c, 0, 65, 0
1, 52886, Note_on_c, 0, 60, 0
1, 52889, Note_on_c, 0, 65, 63
1, 52889, Note_on_c, 0, 59, 55
1, 52889, Control_c, 0, 64, 0
1, 52913, Control_c, 0, 64, 127
1, 52974, Note_on_c, 0, 91, 0
1, 52974, Note_on_c, 0, 89, 69
1, 53049, Note_on_c, 0, 93, 60
1, 53079, Note_on_c, 0, 93, 0
1, 53079, Note_on_c, 0, 89, 0
1, 53079, Note_on_c, 0, 86, 0
1, 53082, Note_on_c, 0, 91, 69
1, 53082, Note_on_c, 0, 88, 60
1, 53082, Note_on_c, 0, 59, 0
1, 53085, Note_on_c, 0, 65, 0
1, 53085, Note_on_c, 0, 55, 0
1, 53085, Note_on_c, 0, 60, 58
1, 53088, Note_on_c, 0, 48, 49
1, 53088, Control_c, 0, 64, 0
1, 53226, Note_on_c, 0, 88, 0
1, 53226, Note_on_c, 0, 85, 66
1, 53253, Note_on_c, 0, 89, 58
1, 53281, Note_on_c, 0, 89, 0
1, 53281, Note_on_c, 0, 85, 0
1, 53281, Note_on_c, 0, 91, 0
1, 53284, Note_on_c, 0, 88, 71
1, 53284, Note_on_c, 0, 84, 61
1, 53284, Note_on_c, 0, 60, 0
1, 53287, Note_on_c, 0, 58, 49
1, 53287, Note_on_c, 0, 55, 49
1, 53287, Note_on_c, 0, 64, 57
1, 53436, Note_on_c, 0, 84, 0
1, 53436, Note_on_c, 0, 82, 66
1, 53464, Note_on_c, 0, 86, 58
1, 53492, Note_on_c, 0, 86, 0
1, 53492, Note_on_c, 0, 82, 0
1, 53492, Note_on_c, 0, 88, 0
1, 53495, Note_on_c, 0, 84, 69
1, 53495, Note_on_c, 0, 81, 60
1, 53495, Note_on_c, 0, 64, 0
1, 53498, Note_on_c, 0, 48, 0
1, 53498, Note_on_c, 0, 58, 0
1, 53498, Note_on_c, 0, 55, 0
1, 53501, Note_on_c, 0, 65, 58
1, 53501, Note_on_c, 0, 53, 49
1, 53651, Note_on_c, 0, 81, 0
1, 53651, Note_on_c, 0, 78, 66
1, 53681, Note_on_c, 0, 82, 63
1, 53711, Note_on_c, 0, 82, 0
1, 53711, Note_on_c, 0, 78, 0
1, 53711, Note_on_c, 0, 84, 0
1, 53714, Note_on_c, 0, 81, 69
1, 53714, Note_on_c, 0, 77, 61
1, 53714, Note_on_c, 0, 65, 0
1, 53717, Note_on_c, 0, 63, 45
1, 53717, Note_on_c, 0, 60, 45
1, 53717, Note_on_c, 0, 69, 53
1, 53889, Note_on_c, 0, 77, 0
1, 53889, Note_on_c, 0, 75, 66
1, 53958, Note_on_c, 0, 75, 0
1, 53958, Note_on_c, 0, 81, 0
1, 53958, Note_on_c, 0, 82, 83
1, 53961, Note_on_c, 0, 74, 83
1, 53961, Note_on_c, 0, 69, 0
1, 53961, Note_on_c, 0, 53, 0
1, 53964, Note_on_c, 0, 63, 0
1, 53964, Note_on_c, 0, 60, 0
1, 53964, Note_on_c, 0, 58, 83
1, 54018, Control_c, 0, 64, 127
1, 54051, Note_on_c, 0, 74, 0
1, 54051, Note_on_c, 0, 79, 77
1, 54144, Note_on_c, 0, 79, 0
1, 54144, Note_on_c, 0, 82, 80
1, 54144, Note_on_c, 0, 67, 65
1, 54147, Note_on_c, 0, 65, 56
1, 54147, Note_on_c, 0, 62, 56
1, 54236, Note_on_c, 0, 82, 0
1, 54236, Note_on_c, 0, 85, 82
1, 54328, Note_on_c, 0, 85, 0
1, 54328, Note_on_c, 0, 82, 0
1, 54328, Note_on_c, 0, 86, 84
1, 54335, Control_c, 0, 64, 0
1, 54376, Control_c, 0, 64, 127
1, 54419, Note_on_c, 0, 86, 0
1, 54419, Note_on_c, 0, 91, 87
1, 54510, Note_on_c, 0, 91, 0
1, 54510, Note_on_c, 0, 94, 89
1, 54600, Note_on_c, 0, 94, 0
1, 54600, Note_on_c, 0, 97, 91
1, 54694, Note_on_c, 0, 97, 0
1, 54694, Note_on_c, 0, 98, 94
1, 54694, Note_on_c, 0, 62, 0
1, 54697, Note_on_c, 0, 58, 0
1, 54697, Note_on_c, 0, 67, 0
1, 54697, Note_on_c, 0, 65, 0
1, 54700, Note_on_c, 0, 48, 65
1, 54700, Note_on_c, 0, 60, 75
1, 54700, Control_c, 0, 64, 0
1, 54741, Control_c, 0, 64, 127
1, 54783, Note_on_c, 0, 88, 69
1, 54783, Note_on_c, 0, 90, 84
1, 54872, Note_on_c, 0, 90, 0
1, 54872, Note_on_c, 0, 91, 79
1, 54872, Note_on_c, 0, 60, 0
1, 54875, Note_on_c, 0, 48, 0
1, 54875, Note_on_c, 0, 64, 84
1, 54875, Note_on_c, 0, 60, 72
1, 54878, Note_on_c, 0, 58, 72
1, 54878, Note_on_c, 0, 55, 72
1, 54878, Control_c, 0, 64, 0
1, 54902, Control_c, 0, 64, 127
1, 54962, Note_on_c, 0, 91, 0
1, 54962, Note_on_c, 0, 98, 0
1, 54962, Note_on_c, 0, 96, 75
1, 55059, Note_on_c, 0, 96, 0
1, 55059, Note_on_c, 0, 88, 0
1, 55059, Note_on_c, 0, 93, 94
1, 55067, Control_c, 0, 64, 0
1, 55119, Control_c, 0, 64, 127
1, 55148, Note_on_c, 0, 84, 66
1, 55148, Note_on_c, 0, 87, 81
1, 55237, Note_on_c, 0, 87, 0
1, 55237, Note_on_c, 0, 88, 75
1, 55237, Note_on_c, 0, 55, 0
1, 55240, Note_on_c, 0, 64, 0
1, 55240, Note_on_c, 0, 60, 0
1, 55240, Note_on_c, 0, 58, 0
1, 55243, Note_on_c, 0, 70, 84
1, 55243, Note_on_c, 0, 67, 72
1, 55243, Note_on_c, 0, 60, 72
1, 55243, Control_c, 0, 64, 0
1, 55284, Control_c, 0, 64, 127
1, 55327, Note_on_c, 0, 88, 0
1, 55327, Note_on_c, 0, 93, 0
1, 55327, Note_on_c, 0, 91, 74
1, 55423, Note_on_c, 0, 91, 0
1, 55423, Note_on_c, 0, 84, 0
1, 55423, Note_on_c, 0, 89, 92
1, 55431, Control_c, 0, 64, 0
1, 55483, Control_c, 0, 64, 127
1, 55513, Note_on_c, 0, 82, 66
1, 55513, Note_on_c, 0, 85, 75
1, 55602, Note_on_c, 0, 85, 0
1, 55602, Note_on_c, 0, 84, 71
1, 55602, Note_on_c, 0, 60, 0
1, 55605, Note_on_c, 0, 67, 0
1, 55605, Note_on_c, 0, 70, 0
1, 55605, Note_on_c, 0, 52, 71
1, 55608, Note_on_c, 0, 58, 83
1, 55608, Control_c, 0, 64, 0
1, 55627, Control_c, 0, 64, 127
1, 55691, Note_on_c, 0, 84, 0
1, 55691, Note_on_c, 0, 89, 0
1, 55691, Note_on_c, 0, 88, 71
1, 55788, Note_on_c, 0, 88, 0
1, 55788, Note_on_c, 0, 82, 0
1, 55788, Note_on_c, 0, 89, 90
1, 55791, Note_on_c, 0, 58, 0
1, 55791, Note_on_c, 0, 52, 0
1, 55791, Note_on_c, 0, 57, 61
1, 55794, Note_on_c, 0, 60, 71
1, 55794, Control_c, 0, 64, 0
1, 55819, Control_c, 0, 64, 127
1, 55880, Note_on_c, 0, 89, 0
1, 55880, Note_on_c, 0, 84, 79
1, 55972, Note_on_c, 0, 84, 0
1, 55972, Note_on_c, 0, 81, 82
1, 55972, Note_on_c, 0, 60, 0
1, 55975, Note_on_c, 0, 57, 0
1, 56063, Note_on_c, 0, 81, 0
1, 56063, Note_on_c, 0, 93, 75
1, 56168, Note_on_c, 0, 93, 0
1, 56168, Note_on_c, 0, 41, 61
1, 56174, Control_c, 0, 64, 0
1, 56186, Control_c, 0, 64, 127
1, 56194, Note_on_c, 0, 48, 61
1, 56220, Note_on_c, 0, 53, 71
1, 56246, Note_on_c, 0, 57, 63
1, 56272, Note_on_c, 0, 60, 63
1, 56298, Note_on_c, 0, 65, 73
1, 56407, Control_c, 0, 64, 0
1, 56594, Note_on_c, 0, 65, 0
1, 56594, Note_on_c, 0, 60, 0
1, 56594, Note_on_c, 0, 57, 0
1, 56597, Note_on_c, 0, 53, 0
1, 56597, Note_on_c, 0, 48, 0
1, 56597, Note_on_c, 0, 41, 0
1, 56811, Note_on_c, 0, 93, 81
1, 56811, Note_on_c, 0, 96, 95
1, 56811, Note_on_c, 0, 87, 89
1, 56835, Control_c, 0, 64, 127
1, 56894, Note_on_c, 0, 93, 0
1, 56894, Note_on_c, 0, 84, 74
1, 56894, Note_on_c, 0, 90, 88
1, 56978, Note_on_c, 0, 90, 0
1, 56978, Note_on_c, 0, 84, 0
1, 56978, Note_on_c, 0, 96, 0
1, 56981, Note_on_c, 0, 91, 92
1, 56981, Note_on_c, 0, 87, 0
1, 56981, Note_on_c, 0, 88, 95
1, 56981, Control_c, 0, 64, 0
1, 57020, Control_c, 0, 64, 127
1, 57058, Note_on_c, 0, 84, 84
1, 57139, Note_on_c, 0, 84, 0
1, 57139, Note_on_c, 0, 91, 0
1, 57139, Note_on_c, 0, 81, 79
1, 57142, Note_on_c, 0, 84, 91
1, 57142, Note_on_c, 0, 88, 0
1, 57142, Note_on_c, 0, 75, 88
1, 57146, Control_c, 0, 64, 0
1, 57178, Control_c, 0, 64, 127
1, 57222, Note_on_c, 0, 81, 0
1, 57222, Note_on_c, 0, 72, 69
1, 57222, Note_on_c, 0, 78, 81
1, 57306, Note_on_c, 0, 78, 0
1, 57306, Note_on_c, 0, 72, 0
1, 57306, Note_on_c, 0, 84, 0
1, 57309, Note_on_c, 0, 79, 88
1, 57309, Note_on_c, 0, 75, 0
1, 57309, Note_on_c, 0, 76, 94
1, 57312, Control_c, 0, 64, 0
1, 57321, Control_c, 0, 64, 127
1, 57385, Note_on_c, 0, 72, 79
1, 57465, Note_on_c, 0, 72, 0
1, 57465, Note_on_c, 0, 79, 0
1, 57465, Note_on_c, 0, 69, 73
1, 57468, Note_on_c, 0, 72, 86
1, 57468, Note_on_c, 0, 76, 0
1, 57468, Note_on_c, 0, 63, 82
1, 57471, Control_c, 0, 64, 0
1, 57488, Control_c, 0, 64, 127
1, 57548, Note_on_c, 0, 69, 0
1, 57548, Note_on_c, 0, 60, 65
1, 57548, Note_on_c, 0, 66, 75
1, 57631, Note_on_c, 0, 66, 0
1, 57631, Note_on_c, 0, 60, 0
1, 57631, Note_on_c, 0, 72, 0
1, 57634, Note_on_c, 0, 67, 81
1, 57634, Note_on_c, 0, 63, 0
1, 57634, Note_on_c, 0, 64, 89
1, 57638, Control_c, 0, 64, 0
1, 57669, Control_c, 0, 64, 127
1, 57711, Note_on_c, 0, 65, 79
1, 57790, Note_on_c, 0, 65, 0
1, 57790, Note_on_c, 0, 67, 0
1, 57790, Note_on_c, 0, 67, 88
1, 57793, Note_on_c, 0, 64, 74
1, 57793, Note_on_c, 0, 64, 0
1, 57793, Note_on_c, 0, 34, 70
1, 57796, Note_on_c, 0, 46, 83
1, 57802, Control_c, 0, 64, 0
1, 57827, Control_c, 0, 64, 127
1, 57876, Note_on_c, 0, 64, 0
1, 57876, Note_on_c, 0, 62, 81
1, 57962, Note_on_c, 0, 62, 0
1, 57962, Note_on_c, 0, 67, 0
1, 57962, Note_on_c, 0, 69, 86
1, 57965, Note_on_c, 0, 61, 73
1, 57965, Note_on_c, 0, 46, 0
1, 57965, Note_on_c, 0, 34, 0
1, 57968, Note_on_c, 0, 33, 80
1, 57968, Note_on_c, 0, 45, 94
1, 57968, Control_c, 0, 64, 0
1, 58021, Control_c, 0, 64, 127
1, 58051, Note_on_c, 0, 61, 0
1, 58051, Note_on_c, 0, 58, 73
1, 58140, Note_on_c, 0, 58, 0
1, 58140, Note_on_c, 0, 69, 0
1, 58140, Note_on_c, 0, 64, 73
1, 58143, Note_on_c, 0, 45, 0
1, 58143, Note_on_c, 0, 33, 0
1, 58143, Note_on_c, 0, 57, 69
1, 58143, Control_c, 0, 64, 0
1, 58184, Control_c, 0, 64, 127
1, 58223, Note_on_c, 0, 57, 0
1, 58223, Note_on_c, 0, 52, 61
1, 58306, Note_on_c, 0, 67, 79
1, 58306, Note_on_c, 0, 52, 0
1, 58306, Note_on_c, 0, 49, 66
1, 58390, Note_on_c, 0, 49, 0
1, 58390, Note_on_c, 0, 46, 65
1, 58473, Note_on_c, 0, 67, 0
1, 58473, Note_on_c, 0, 70, 84
1, 58473, Note_on_c, 0, 46, 0
1, 58476, Note_on_c, 0, 45, 63
1, 58556, Note_on_c, 0, 45, 0
1, 58556, Note_on_c, 0, 43, 62
1, 58639, Note_on_c, 0, 70, 0
1, 58639, Note_on_c, 0, 69, 73
1, 58639, Note_on_c, 0, 73, 87
1, 58642, Note_on_c, 0, 43, 0
1, 58642, Note_on_c, 0, 40, 61
1, 58646, Control_c, 0, 64, 0
1, 58672, Control_c, 0, 64, 127
1, 58725, Note_on_c, 0, 40, 0
1, 58725, Note_on_c, 0, 37, 63
1, 58810, Note_on_c, 0, 69, 0
1, 58810, Note_on_c, 0, 67, 86
1, 58810, Note_on_c, 0, 37, 0
1, 58813, Note_on_c, 0, 34, 65
1, 58895, Note_on_c, 0, 34, 0
1, 58895, Note_on_c, 0, 33, 68
1, 58981, Note_on_c, 0, 67, 0
1, 58981, Note_on_c, 0, 73, 0
1, 58981, Note_on_c, 0, 64, 0
1, 58984, Note_on_c, 0, 74, 82
1, 58984, Note_on_c, 0, 65, 79
1, 58984, Note_on_c, 0, 33, 0
1, 58987, Control_c, 0, 64, 0
1, 58987, Note_on_c, 0, 38, 70
1, 59070, Note_on_c, 0, 38, 0
1, 59070, Note_on_c, 0, 41, 70
1, 59160, Note_on_c, 0, 65, 0
1, 59160, Note_on_c, 0, 74, 0
1, 59160, Note_on_c, 0, 85, 81
1, 59163, Note_on_c, 0, 93, 95
1, 59163, Note_on_c, 0, 41, 0
1, 59163, Note_on_c, 0, 45, 71
1, 59195, Control_c, 0, 64, 127
1, 59243, Note_on_c, 0, 85, 0
1, 59243, Note_on_c, 0, 79, 74
1, 59243, Note_on_c, 0, 88, 88
1, 59246, Note_on_c, 0, 45, 0
1, 59246, Note_on_c, 0, 49, 72
1, 59327, Note_on_c, 0, 88, 0
1, 59327, Note_on_c, 0, 79, 0
1, 59327, Note_on_c, 0, 93, 0
1, 59330, Note_on_c, 0, 86, 81
1, 59330, Note_on_c, 0, 89, 92
1, 59330, Note_on_c, 0, 49, 0
1, 59333, Note_on_c, 0, 50, 72
1, 59333, Control_c, 0, 64, 0
1, 59357, Control_c, 0, 64, 127
1, 59406, Note_on_c, 0, 86, 0
1, 59406, Note_on_c, 0, 77, 84
1, 59406, Note_on_c, 0, 50, 0
1, 59409, Note_on_c, 0, 53, 73
1, 59485, Note_on_c, 0, 77, 0
1, 59485, Note_on_c, 0, 89, 0
1, 59485, Note_on_c, 0, 72, 79
1, 59488, Note_on_c, 0, 81, 91
1, 59488, Note_on_c, 0, 53, 0
1, 59488, Note_on_c, 0, 57, 74
1, 59492, Control_c, 0, 64, 0
1, 59505, Control_c, 0, 64, 127
1, 59568, Note_on_c, 0, 72, 0
1, 59568, Note_on_c, 0, 67, 69
1, 59568, Note_on_c, 0, 76, 81
1, 59571, Note_on_c, 0, 57, 0
1, 59571, Note_on_c, 0, 61, 75
1, 59652, Note_on_c, 0, 76, 0
1, 59652, Note_on_c, 0, 67, 0
1, 59652, Note_on_c, 0, 81, 0
1, 59655, Note_on_c, 0, 74, 81
1, 59655, Note_on_c, 0, 77, 88
1, 59655, Note_on_c, 0, 61, 0
1, 59658, Note_on_c, 0, 62, 75
1, 59658, Control_c, 0, 64, 0
1, 59701, Control_c, 0, 64, 127
1, 59732, Note_on_c, 0, 74, 0
1, 59732, Note_on_c, 0, 64, 79
1, 59732, Note_on_c, 0, 62, 0
1, 59811, Note_on_c, 0, 64, 0
1, 59811, Note_on_c, 0, 77, 0
1, 59811, Note_on_c, 0, 65, 73
1, 59814, Note_on_c, 0, 71, 86
1, 59814, Note_on_c, 0, 37, 70
1, 59814, Note_on_c, 0, 49, 83
1, 59819, Control_c, 0, 64, 0
1, 59858, Control_c, 0, 64, 127
1, 59899, Note_on_c, 0, 65, 0
1, 59899, Note_on_c, 0, 67, 75
1, 59987, Note_on_c, 0, 67, 0
1, 59987, Note_on_c, 0, 71, 0
1, 59987, Note_on_c, 0, 68, 79
1, 59990, Note_on_c, 0, 72, 84
1, 59990, Note_on_c, 0, 49, 0
1, 59990, Note_on_c, 0, 37, 0
1, 59993, Note_on_c, 0, 36, 80
1, 59993, Note_on_c, 0, 48, 94
1, 59993, Control_c, 0, 64, 0
1, 60024, Control_c, 0, 64, 127
1, 60073, Note_on_c, 0, 68, 0
1, 60073, Note_on_c, 0, 65, 79
1, 60158, Note_on_c, 0, 65, 0
1, 60158, Note_on_c, 0, 64, 74
1, 60158, Note_on_c, 0, 48, 0
1, 60161, Note_on_c, 0, 36, 0
1, 60161, Note_on_c, 0, 55, 73
1, 60242, Note_on_c, 0, 64, 0
1, 60242, Note_on_c, 0, 67, 81
1, 60326, Note_on_c, 0, 67, 0
1, 60326, Note_on_c, 0, 72, 0
1, 60326, Note_on_c, 0, 70, 71
1, 60329, Note_on_c, 0, 58, 78
1, 60333, Control_c, 0, 64, 0
1, 60412, Note_on_c, 0, 70, 0
1, 60412, Note_on_c, 0, 73, 69
1, 60412, Control_c, 0, 64, 127
1, 60498, Note_on_c, 0, 73, 0
1, 60498, Note_on_c, 0, 76, 68
1, 60498, Note_on_c, 0, 58, 0
1, 60501, Note_on_c, 0, 61, 81
1, 60583, Note_on_c, 0, 76, 0
1, 60583, Note_on_c, 0, 79, 66
1, 60668, Note_on_c, 0, 79, 0
1, 60668, Note_on_c, 0, 82, 64
1, 60668, Note_on_c, 0, 61, 0
1, 60671, Note_on_c, 0, 60, 72
1, 60671, Note_on_c, 0, 64, 86
1, 60675, Control_c, 0, 64, 0
1, 60723, Control_c, 0, 64, 127
1, 60757, Note_on_c, 0, 82, 0
1, 60757, Note_on_c, 0, 84, 66
1, 60847, Note_on_c, 0, 88, 66
1, 60847, Note_on_c, 0, 60, 0
1, 60847, Note_on_c, 0, 58, 80
1, 60937, Note_on_c, 0, 91, 68
1, 61027, Note_on_c, 0, 96, 70
1, 61027, Note_on_c, 0, 58, 0
1, 61027, Note_on_c, 0, 55, 0
1, 61030, Note_on_c, 0, 60, 75
1, 61030, Note_on_c, 0, 57, 75
1, 61034, Control_c, 0, 64, 0
1, 61054, Control_c, 0, 64, 127
1, 61115, Note_on_c, 0, 91, 0
1, 61115, Note_on_c, 0, 84, 0
1, 61115, Note_on_c, 0, 88, 0
1, 61118, Note_on_c, 0, 84, 63
1, 61204, Note_on_c, 0, 96, 0
1, 61204, Note_on_c, 0, 96, 68
1, 61204, Note_on_c, 0, 57, 0
1, 61207, Note_on_c, 0, 60, 0
1, 61207, Note_on_c, 0, 64, 0
1, 61207, Note_on_c, 0, 60, 55
1, 61210, Note_on_c, 0, 65, 64
1, 61210, Control_c, 0, 64, 0
1, 61223, Control_c, 0, 64, 127
1, 61292, Note_on_c, 0, 84, 0
1, 61292, Note_on_c, 0, 89, 63
1, 61381, Note_on_c, 0, 89, 0
1, 61381, Note_on_c, 0, 96, 0
1, 61381, Note_on_c, 0, 83, 71
1, 61384, Note_on_c, 0, 95, 71
1, 61384, Note_on_c, 0, 55, 69
1, 61384, Control_c, 0, 64, 0
1, 61435, Control_c, 0, 64, 127
1, 61473, Note_on_c, 0, 95, 0
1, 61473, Note_on_c, 0, 92, 65
1, 61567, Note_on_c, 0, 92, 0
1, 61567, Note_on_c, 0, 83, 0
1, 61567, Note_on_c, 0, 86, 66
1, 61570, Note_on_c, 0, 91, 66
1, 61570, Note_on_c, 0, 65, 0
1, 61570, Note_on_c, 0, 60, 0
1, 61573, Note_on_c, 0, 65, 63
1, 61573, Note_on_c, 0, 59, 55
1, 61573, Control_c, 0, 64, 0
1, 61599, Control_c, 0, 64, 127
1, 61663, Note_on_c, 0, 91, 0
1, 61663, Note_on_c, 0, 89, 69
1, 61742, Note_on_c, 0, 93, 60
1, 61772, Note_on_c, 0, 93, 0
1, 61772, Note_on_c, 0, 89, 0
1, 61772, Note_on_c, 0, 86, 0
1, 61775, Note_on_c, 0, 91, 69
1, 61775, Note_on_c, 0, 88, 60
1, 61775, Note_on_c, 0, 59, 0
1, 61778, Note_on_c, 0, 65, 0
1, 61778, Note_on_c, 0, 55, 0
1, 61778, Note_on_c, 0, 60, 58
1, 61781, Note_on_c, 0, 48, 49
1, 61781, Control_c, 0, 64, 0
1, 61926, Note_on_c, 0, 88, 0
1, 61926, Note_on_c, 0, 85, 66
1, 61954, Note_on_c, 0, 89, 58
1, 61982, Note_on_c, 0, 89, 0
1, 61982, Note_on_c, 0, 85, 0
1, 61982, Note_on_c, 0, 91, 0
1, 61985, Note_on_c, 0, 88, 71
1, 61985, Note_on_c, 0, 84, 61
1, 61985, Note_on_c, 0, 60, 0
1, 61988, Note_on_c, 0, 58, 49
1, 61988, Note_on_c, 0, 55, 49
1, 61988, Note_on_c, 0, 64, 57
1, 62140, Note_on_c, 0, 84, 0
1, 62140, Note_on_c, 0, 82, 66
1, 62169, Note_on_c, 0, 86, 58
1, 62198, Note_on_c, 0, 86, 0
1, 62198, Note_on_c, 0, 82, 0
1, 62198, Note_on_c, 0, 88, 0
1, 62201, Note_on_c, 0, 84, 69
1, 62201, Note_on_c, 0, 81, 60
1, 62201, Note_on_c, 0, 64, 0
1, 62204, Note_on_c, 0, 48, 0
1, 62204, Note_on_c, 0, 58, 0
1, 62204, Note_on_c, 0, 55, 0
1, 62207, Note_on_c, 0, 65, 58
1, 62207, Note_on_c, 0, 53, 49
1, 62361, Note_on_c, 0, 81, 0
1, 62361, Note_on_c, 0, 78, 66
1, 62391, Note_on_c, 0, 82, 63
1, 62421, Note_on_c, 0, 82, 0
1, 62421, Note_on_c, 0, 78, 0
1, 62421, Note_on_c, 0, 84, 0
1, 62424, Note_on_c, 0, 81, 69
1, 62424, Note_on_c, 0, 77, 61
1, 62424, Note_on_c, 0, 65, 0
1, 62427, Note_on_c, 0, 63, 45
1, 62427, Note_on_c, 0, 60, 45
1, 62427, Note_on_c, 0, 69, 53
1, 62596, Note_on_c, 0, 77, 0
1, 62596, Note_on_c, 0, 75, 66
1, 62662, Note_on_c, 0, 75, 0
1, 62662, Note_on_c, 0, 81, 0
1, 62662, Note_on_c, 0, 82, 75
1, 62665, Note_on_c, 0, 74, 75
1, 62665, Note_on_c, 0, 69, 0
1, 62665, Note_on_c, 0, 53, 0
1, 62668, Note_on_c, 0, 63, 0
1, 62668, Note_on_c, 0, 60, 0
1, 62668, Note_on_c, 0, 58, 75
1, 62724, Control_c, 0, 64, 127
1, 62759, Note_on_c, 0, 74, 0
1, 62759, Note_on_c, 0, 79, 73
1, 62855, Note_on_c, 0, 79, 0
1, 62855, Note_on_c, 0, 82, 77
1, 62855, Note_on_c, 0, 67, 65
1, 62858, Note_on_c, 0, 65, 56
1, 62858, Note_on_c, 0, 62, 56
1, 62950, Note_on_c, 0, 82, 0
1, 62950, Note_on_c, 0, 85, 80
1, 63044, Note_on_c, 0, 85, 0
1, 63044, Note_on_c, 0, 82, 0
1, 63044, Note_on_c, 0, 86, 84
1, 63051, Control_c, 0, 64, 0
1, 63093, Control_c, 0, 64, 127
1, 63137, Note_on_c, 0, 86, 0
1, 63137, Note_on_c, 0, 91, 87
1, 63229, Note_on_c, 0, 91, 0
1, 63229, Note_on_c, 0, 94, 89
1, 63320, Note_on_c, 0, 94, 0
1, 63320, Note_on_c, 0, 97, 91
1, 63414, Note_on_c, 0, 97, 0
1, 63414, Note_on_c, 0, 98, 92
1, 63414, Note_on_c, 0, 62, 0
1, 63417, Note_on_c, 0, 58, 0
1, 63417, Note_on_c, 0, 67, 0
1, 63417, Note_on_c, 0, 65, 0
1, 63420, Note_on_c, 0, 48, 65
1, 63420, Note_on_c, 0, 60, 75
1, 63420, Control_c, 0, 64, 0
1, 63461, Control_c, 0, 64, 127
1, 63503, Note_on_c, 0, 88, 69
1, 63503, Note_on_c, 0, 90, 84
1, 63593, Note_on_c, 0, 90, 0
1, 63593, Note_on_c, 0, 91, 78
1, 63593, Note_on_c, 0, 60, 0
1, 63596, Note_on_c, 0, 48, 0
1, 63596, Note_on_c, 0, 64, 84
1, 63596, Note_on_c, 0, 60, 72
1, 63599, Note_on_c, 0, 58, 72
1, 63599, Note_on_c, 0, 55, 72
1, 63599, Control_c, 0, 64, 0
1, 63622, Control_c, 0, 64, 127
1, 63682, Note_on_c, 0, 91, 0
1, 63682, Note_on_c, 0, 98, 0
1, 63682, Note_on_c, 0, 96, 78
1, 63779, Note_on_c, 0, 96, 0
1, 63779, Note_on_c, 0, 88, 0
1, 63779, Note_on_c, 0, 93, 94
1, 63787, Control_c, 0, 64, 0
1, 63839, Control_c, 0, 64, 127
1, 63869, Note_on_c, 0, 84, 66
1, 63869, Note_on_c, 0, 87, 81
1, 63958, Note_on_c, 0, 87, 0
1, 63958, Note_on_c, 0, 88, 77
1, 63958, Note_on_c, 0, 55, 0
1, 63961, Note_on_c, 0, 64, 0
1, 63961, Note_on_c, 0, 60, 0
1, 63961, Note_on_c, 0, 58, 0
1, 63964, Note_on_c, 0, 70, 84
1, 63964, Note_on_c, 0, 67, 72
1, 63964, Note_on_c, 0, 60, 72
1, 63964, Control_c, 0, 64, 0
1, 64004, Control_c, 0, 64, 127
1, 64047, Note_on_c, 0, 88, 0
1, 64047, Note_on_c, 0, 93, 0
1, 64047, Note_on_c, 0, 91, 78
1, 64144, Note_on_c, 0, 91, 0
1, 64144, Note_on_c, 0, 84, 0
1, 64144, Note_on_c, 0, 89, 92
1, 64151, Control_c, 0, 64, 0
1, 64206, Control_c, 0, 64, 127
1, 64237, Note_on_c, 0, 82, 66
1, 64237, Note_on_c, 0, 85, 75
1, 64330, Note_on_c, 0, 85, 0
1, 64330, Note_on_c, 0, 84, 73
1, 64330, Note_on_c, 0, 60, 0
1, 64333, Note_on_c, 0, 67, 0
1, 64333, Note_on_c, 0, 70, 0
1, 64333, Note_on_c, 0, 52, 71
1, 64336, Note_on_c, 0, 58, 83
1, 64336, Control_c, 0, 64, 0
1, 64358, Control_c, 0, 64, 127
1, 64428, Note_on_c, 0, 84, 0
1, 64428, Note_on_c, 0, 89, 0
1, 64428, Note_on_c, 0, 88, 74
1, 64537, Note_on_c, 0, 88, 0
1, 64537, Note_on_c, 0, 82, 0
1, 64537, Note_on_c, 0, 89, 90
1, 64540, Note_on_c, 0, 58, 0
1, 64540, Note_on_c, 0, 52, 0
1, 64540, Note_on_c, 0, 57, 61
1, 64543, Note_on_c, 0, 60, 71
1, 64543, Control_c, 0, 64, 0
1, 64571, Control_c, 0, 64, 127
1, 64636, Note_on_c, 0, 89, 0
1, 64636, Note_on_c, 0, 84, 79
1, 64736, Note_on_c, 0, 84, 0
1, 64736, Note_on_c, 0, 81, 82
1, 64736, Note_on_c, 0, 60, 0
1, 64739, Note_on_c, 0, 57, 0
1, 64841, Note_on_c, 0, 81, 0
1, 64841, Note_on_c, 0, 93, 75
1, 64955, Note_on_c, 0, 93, 0
1, 64955, Note_on_c, 0, 41, 61
1, 64961, Control_c, 0, 64, 0
1, 64975, Control_c, 0, 64, 127
1, 64983, Note_on_c, 0, 48, 61
1, 65012, Note_on_c, 0, 53, 71
1, 65040, Note_on_c, 0, 57, 63
1, 65069, Note_on_c, 0, 60, 63
1, 65097, Note_on_c, 0, 65, 73
1, 65215, Control_c, 0, 64, 0
1, 65411, Note_on_c, 0, 65, 0
1, 65411, Note_on_c, 0, 60, 0
1, 65411, Note_on_c, 0, 57, 0
1, 65414, Note_on_c, 0, 53, 0
1, 65414, Note_on_c, 0, 48, 0
1, 65414, Note_on_c, 0, 41, 0
1, 65867, Control_c, 0, 91, 127
1, 66428, Note_on_c, 0, 69, 62
1, 66535, Note_on_c, 0, 60, 44
1, 66535, Note_on_c, 0, 63, 51
1, 66641, Note_on_c, 0, 54, 57
1, 66743, Note_on_c, 0, 63, 0
1, 66743, Note_on_c, 0, 60, 0
1, 66743, Note_on_c, 0, 63, 51
1, 66746, Note_on_c, 0, 60, 44
1, 66845, Note_on_c, 0, 60, 0
1, 66845, Note_on_c, 0, 63, 0
1, 66845, Note_on_c, 0, 70, 63
1, 66860, Note_on_c, 0, 69, 0
1, 66939, Note_on_c, 0, 64, 54
1, 66939, Note_on_c, 0, 60, 46
1, 67033, Note_on_c, 0, 54, 0
1, 67033, Note_on_c, 0, 55, 60
1, 67116, Note_on_c, 0, 60, 0
1, 67116, Note_on_c, 0, 64, 0
1, 67116, Note_on_c, 0, 64, 54
1, 67119, Note_on_c, 0, 60, 46
1, 67200, Note_on_c, 0, 60, 0
1, 67200, Note_on_c, 0, 64, 0
1, 67200, Note_on_c, 0, 71, 69
1, 67213, Note_on_c, 0, 70, 0
1, 67282, Note_on_c, 0, 62, 48
1, 67282, Note_on_c, 0, 65, 56
1, 67365, Note_on_c, 0, 55, 0
1, 67365, Note_on_c, 0, 56, 63
1, 67447, Note_on_c, 0, 65, 0
1, 67447, Note_on_c, 0, 62, 0
1, 67447, Note_on_c, 0, 65, 57
1, 67450, Note_on_c, 0, 62, 49
1, 67528, Note_on_c, 0, 62, 0
1, 67528, Note_on_c, 0, 65, 0
1, 67528, Note_on_c, 0, 72, 75
1, 67542, Note_on_c, 0, 71, 0
1, 67609, Note_on_c, 0, 60, 51
1, 67609, Note_on_c, 0, 65, 60
1, 67690, Note_on_c, 0, 56, 0
1, 67690, Note_on_c, 0, 57, 65
1, 67770, Note_on_c, 0, 65, 0
1, 67770, Note_on_c, 0, 60, 0
1, 67770, Note_on_c, 0, 65, 61
1, 67773, Note_on_c, 0, 60, 52
1, 67850, Note_on_c, 0, 60, 0
1, 67850, Note_on_c, 0, 65, 0
1, 67850, Note_on_c, 0, 73, 81
1, 67863, Note_on_c, 0, 72, 0
1, 67929, Note_on_c, 0, 67, 62
1, 67929, Note_on_c, 0, 64, 53
1, 68008, Note_on_c, 0, 57, 0
1, 68008, Note_on_c, 0, 58, 68
1, 68088, Note_on_c, 0, 64, 0
1, 68088, Note_on_c, 0, 67, 0
1, 68088, Note_on_c, 0, 67, 63
1, 68091, Note_on_c, 0, 64, 54
1, 68165, Note_on_c, 0, 64, 0
1, 68165, Note_on_c, 0, 67, 0
1, 68165, Note_on_c, 0, 74, 84
1, 68178, Note_on_c, 0, 73, 0
1, 68243, Note_on_c, 0, 65, 56
1, 68243, Note_on_c, 0, 68, 65
1, 68321, Note_on_c, 0, 58, 0
1, 68321, Note_on_c, 0, 59, 70
1, 68399, Note_on_c, 0, 68, 0
1, 68399, Note_on_c, 0, 65, 0
1, 68399, Note_on_c, 0, 68, 66
1, 68402, Note_on_c, 0, 65, 56
1, 68477, Note_on_c, 0, 65, 0
1, 68477, Note_on_c, 0, 68, 0
1, 68477, Note_on_c, 0, 72, 84
1, 68491, Note_on_c, 0, 74, 0
1, 68556, Note_on_c, 0, 64, 57
1, 68556, Note_on_c, 0, 67, 68
1, 68635, Note_on_c, 0, 59, 0
1, 68635, Note_on_c, 0, 60, 73
1, 68723, Note_on_c, 0, 67, 0
1, 68723, Note_on_c, 0, 64, 0
1, 68723, Note_on_c, 0, 67, 68
1, 68726, Note_on_c, 0, 64, 58
1, 68811, Note_on_c, 0, 64, 0
1, 68811, Note_on_c, 0, 67, 0
1, 68811, Note_on_c, 0, 72, 0
1, 68814, Note_on_c, 0, 72, 90
1, 68895, Note_on_c, 0, 65, 60
1, 68895, Note_on_c, 0, 69, 70
1, 68979, Note_on_c, 0, 60, 0
1, 68979, Note_on_c, 0, 53, 77
1, 69058, Note_on_c, 0, 69, 0
1, 69058, Note_on_c, 0, 65, 0
1, 69058, Note_on_c, 0, 65, 60
1, 69061, Note_on_c, 0, 69, 70
1, 69136, Note_on_c, 0, 69, 0
1, 69136, Note_on_c, 0, 65, 0
1, 69136, Note_on_c, 0, 72, 0
1, 69139, Note_on_c, 0, 74, 95
1, 69220, Note_on_c, 0, 69, 70
1, 69220, Note_on_c, 0, 62, 61
1, 69304, Note_on_c, 0, 53, 0
1, 69304, Note_on_c, 0, 54, 79
1, 69382, Note_on_c, 0, 62, 0
1, 69382, Note_on_c, 0, 69, 0
1, 69382, Note_on_c, 0, 62, 61
1, 69385, Note_on_c, 0, 69, 70
1, 69461, Note_on_c, 0, 69, 0
1, 69461, Note_on_c, 0, 62, 0
1, 69461, Note_on_c, 0, 70, 90
1, 69475, Note_on_c, 0, 74, 0
1, 69545, Note_on_c, 0, 67, 68
1, 69545, Note_on_c, 0, 62, 58
1, 69628, Note_on_c, 0, 54, 0
1, 69628, Note_on_c, 0, 55, 75
1, 69709, Note_on_c, 0, 62, 0
1, 69709, Note_on_c, 0, 67, 0
1, 69709, Note_on_c, 0, 67, 64
1, 69712, Note_on_c, 0, 62, 55
1, 69790, Note_on_c, 0, 62, 0
1, 69790, Note_on_c, 0, 67, 0
1, 69790, Note_on_c, 0, 72, 86
1, 69804, Note_on_c, 0, 70, 0
1, 69874, Note_on_c, 0, 60, 57
1, 69874, Note_on_c, 0, 67, 68
1, 69958, Note_on_c, 0, 55, 0
1, 69958, Note_on_c, 0, 52, 73
1, 70036, Note_on_c, 0, 67, 0
1, 70036, Note_on_c, 0, 60, 0
1, 70036, Note_on_c, 0, 60, 57
1, 70039, Note_on_c, 0, 67, 68
1, 70114, Note_on_c, 0, 67, 0
1, 70114, Note_on_c, 0, 60, 0
1, 70114, Note_on_c, 0, 69, 87
1, 70127, Note_on_c, 0, 72, 0
1, 70192, Note_on_c, 0, 65, 63
1, 70192, Note_on_c, 0, 60, 54
1, 70271, Note_on_c, 0, 52, 0
1, 70271, Note_on_c, 0, 53, 69
1, 70350, Note_on_c, 0, 60, 0
1, 70350, Note_on_c, 0, 65, 0
1, 70350, Note_on_c, 0, 60, 54
1, 70353, Note_on_c, 0, 65, 63
1, 70431, Note_on_c, 0, 65, 0
1, 70431, Note_on_c, 0, 60, 0
1, 70431, Note_on_c, 0, 67, 81
1, 70444, Note_on_c, 0, 69, 0
1, 70512, Note_on_c, 0, 61, 63
1, 70512, Note_on_c, 0, 57, 54
1, 70593, Note_on_c, 0, 53, 0
1, 70593, Note_on_c, 0, 52, 65
1, 70674, Note_on_c, 0, 57, 0
1, 70674, Note_on_c, 0, 61, 0
1, 70674, Note_on_c, 0, 57, 54
1, 70677, Note_on_c, 0, 61, 63
1, 70756, Note_on_c, 0, 61, 0
1, 70756, Note_on_c, 0, 57, 0
1, 70756, Note_on_c, 0, 65, 77
1, 70770, Note_on_c, 0, 67, 0
1, 70839, Note_on_c, 0, 57, 53
1, 70839, Note_on_c, 0, 62, 62
1, 70923, Note_on_c, 0, 52, 0
1, 70923, Note_on_c, 0, 50, 63
1, 71002, Note_on_c, 0, 62, 0
1, 71002, Note_on_c, 0, 57, 0
1, 71002, Note_on_c, 0, 62, 62
1, 71005, Note_on_c, 0, 57, 53
1, 71080, Note_on_c, 0, 57, 0
1, 71080, Note_on_c, 0, 62, 0
1, 71080, Note_on_c, 0, 63, 74
1, 71093, Note_on_c, 0, 65, 0
1, 71158, Note_on_c, 0, 57, 60
1, 71158, Note_on_c, 0, 53, 52
1, 71236, Note_on_c, 0, 50, 0
1, 71236, Note_on_c, 0, 48, 63
1, 71316, Note_on_c, 0, 53, 0
1, 71316, Note_on_c, 0, 57, 0
1, 71316, Note_on_c, 0, 53, 52
1, 71319, Note_on_c, 0, 57, 60
1, 71397, Note_on_c, 0, 57, 0
1, 71397, Note_on_c, 0, 53, 0
1, 71397, Note_on_c, 0, 62, 72
1, 71410, Note_on_c, 0, 63, 0
1, 71478, Note_on_c, 0, 53, 51
1, 71478, Note_on_c, 0, 58, 58
1, 71559, Note_on_c, 0, 48, 0
1, 71559, Note_on_c, 0, 46, 62
1, 71640, Note_on_c, 0, 58, 0
1, 71640, Note_on_c, 0, 53, 0
1, 71640, Note_on_c, 0, 53, 51
1, 71643, Note_on_c, 0, 58, 58
1, 71721, Note_on_c, 0, 58, 0
1, 71721, Note_on_c, 0, 53, 0
1, 71721, Note_on_c, 0, 60, 71
1, 71735, Note_on_c, 0, 62, 0
1, 71805, Note_on_c, 0, 50, 48
1, 71805, Note_on_c, 0, 54, 56
1, 71889, Note_on_c, 0, 46, 0
1, 71889, Note_on_c, 0, 45, 61
1, 71970, Note_on_c, 0, 54, 0
1, 71970, Note_on_c, 0, 50, 0
1, 71970, Note_on_c, 0, 54, 55
1, 71973, Note_on_c, 0, 50, 47
1, 72051, Note_on_c, 0, 50, 0
1, 72051, Note_on_c, 0, 54, 0
1, 72051, Note_on_c, 0, 58, 69
1, 72065, Note_on_c, 0, 60, 0
1, 72133, Note_on_c, 0, 55, 55
1, 72133, Note_on_c, 0, 50, 47
1, 72214, Note_on_c, 0, 45, 0
1, 72214, Note_on_c, 0, 43, 60
1, 72297, Note_on_c, 0, 50, 0
1, 72297, Note_on_c, 0, 55, 0
1, 72297, Note_on_c, 0, 50, 46
1, 72300, Note_on_c, 0, 55, 54
1, 72380, Note_on_c, 0, 55, 0
1, 72380, Note_on_c, 0, 50, 0
1, 72380, Note_on_c, 0, 59, 63
1, 72394, Note_on_c, 0, 58, 0
1, 72463, Note_on_c, 0, 50, 44
1, 72463, Note_on_c, 0, 56, 51
1, 72548, Note_on_c, 0, 43, 0
1, 72548, Note_on_c, 0, 41, 58
1, 72633, Note_on_c, 0, 56, 0
1, 72633, Note_on_c, 0, 50, 0
1, 72633, Note_on_c, 0, 50, 44
1, 72636, Note_on_c, 0, 56, 51
1, 72735, Note_on_c, 0, 56, 0
1, 72735, Note_on_c, 0, 50, 0
1, 72735, Note_on_c, 0, 58, 54
1, 72738, Note_on_c, 0, 60, 63
1, 72751, Note_on_c, 0, 59, 0
1, 72828, Note_on_c, 0, 48, 41
1, 72828, Note_on_c, 0, 55, 48
1, 72921, Note_on_c, 0, 41, 0
1, 72921, Note_on_c, 0, 40, 54
1, 73009, Note_on_c, 0, 55, 0
1, 73009, Note_on_c, 0, 48, 0
1, 73009, Note_on_c, 0, 55, 48
1, 73012, Note_on_c, 0, 48, 41
1, 73096, Note_on_c, 0, 48, 0
1, 73096, Note_on_c, 0, 58, 0
1, 73096, Note_on_c, 0, 60, 0
1, 73099, Note_on_c, 0, 55, 0
1, 73099, Note_on_c, 0, 58, 53
1, 73099, Note_on_c, 0, 60, 62
1, 73185, Note_on_c, 0, 54, 49
1, 73185, Note_on_c, 0, 48, 43
1, 73274, Note_on_c, 0, 40, 0
1, 73274, Note_on_c, 0, 39, 53
1, 73365, Note_on_c, 0, 48, 0
1, 73365, Note_on_c, 0, 54, 0
1, 73365, Note_on_c, 0, 48, 43
1, 73368, Note_on_c, 0, 54, 49
1, 73457, Note_on_c, 0, 54, 0
1, 73457, Note_on_c, 0, 58, 0
1, 73457, Note_on_c, 0, 60, 0
1, 73460, Note_on_c, 0, 48, 0
1, 73460, Note_on_c, 0, 60, 61
1, 73460, Note_on_c, 0, 58, 52
1, 73549, Note_on_c, 0, 48, 41
1, 73549, Note_on_c, 0, 55, 47
1, 73643, Note_on_c, 0, 39, 0
1, 73643, Note_on_c, 0, 40, 47
1, 73738, Note_on_c, 0, 55, 0
1, 73738, Note_on_c, 0, 48, 0
1, 73738, Note_on_c, 0, 55, 47
1, 73741, Note_on_c, 0, 48, 41
1, 73834, Note_on_c, 0, 48, 0
1, 73834, Note_on_c, 0, 60, 0
1, 73834, Note_on_c, 0, 58, 0
1, 73837, Note_on_c, 0, 55, 0
1, 73837, Note_on_c, 0, 60, 56
1, 73931, Note_on_c, 0, 57, 43
1, 73931, Note_on_c, 0, 53, 37
1, 74027, Note_on_c, 0, 40, 0
1, 74027, Note_on_c, 0, 41, 47
1, 74057, Control_c, 0, 64, 127
1, 74129, Note_on_c, 0, 53, 0
1, 74129, Note_on_c, 0, 57, 0
1, 74129, Note_on_c, 0, 57, 41
1, 74132, Note_on_c, 0, 53, 36
1, 74232, Note_on_c, 0, 53, 0
1, 74232, Note_on_c, 0, 57, 0
1, 74232, Note_on_c, 0, 60, 0
1, 74235, Note_on_c, 0, 65, 56
1, 74349, Note_on_c, 0, 57, 36
1, 74349, Note_on_c, 0, 60, 41
1, 74466, Note_on_c, 0, 41, 0
1, 74466, Note_on_c, 0, 36, 47
1, 74612, Note_on_c, 0, 60, 0
1, 74612, Note_on_c, 0, 57, 0
1, 74612, Note_on_c, 0, 60, 41
1, 74615, Note_on_c, 0, 57, 36
1, 74759, Note_on_c, 0, 57, 0
1, 74759, Note_on_c, 0, 60, 0
1, 74759, Note_on_c, 0, 65, 0
1, 74762, Note_on_c, 0, 69, 58
1, 74762, Note_on_c, 0, 36, 0
1, 74768, Control_c, 0, 64, 0
1, 74874, Note_on_c, 0, 60, 39
1, 74874, Note_on_c, 0, 63, 46
1, 74988, Note_on_c, 0, 78, 62
1, 75092, Note_on_c, 0, 63, 0
1, 75092, Note_on_c, 0, 60, 0
1, 75092, Note_on_c, 0, 60, 44
1, 75095, Note_on_c, 0, 63, 51
1, 75196, Note_on_c, 0, 63, 0
1, 75196, Note_on_c, 0, 60, 0
1, 75196, Note_on_c, 0, 70, 63
1, 75212, Note_on_c, 0, 69, 0
1, 75290, Note_on_c, 0, 60, 46
1, 75290, Note_on_c, 0, 64, 54
1, 75383, Note_on_c, 0, 78, 0
1, 75383, Note_on_c, 0, 79, 63
1, 75468, Note_on_c, 0, 64, 0
1, 75468, Note_on_c, 0, 60, 0
1, 75468, Note_on_c, 0, 60, 46
1, 75471, Note_on_c, 0, 64, 54
1, 75553, Note_on_c, 0, 64, 0
1, 75553, Note_on_c, 0, 60, 0
1, 75553, Note_on_c, 0, 71, 69
1, 75567, Note_on_c, 0, 70, 0
1, 75636, Note_on_c, 0, 62, 48
1, 75636, Note_on_c, 0, 65, 56
1, 75719, Note_on_c, 0, 79, 0
1, 75719, Note_on_c, 0, 80, 68
1, 75801, Note_on_c, 0, 65, 0
1, 75801, Note_on_c, 0, 62, 0
1, 75801, Note_on_c, 0, 62, 49
1, 75804, Note_on_c, 0, 65, 57
1, 75881, Note_on_c, 0, 65, 0
1, 75881, Note_on_c, 0, 62, 0
1, 75881, Note_on_c, 0, 72, 75
1, 75895, Note_on_c, 0, 71, 0
1, 75961, Note_on_c, 0, 60, 51
1, 75961, Note_on_c, 0, 65, 60
1, 76041, Note_on_c, 0, 80, 0
1, 76041, Note_on_c, 0, 81, 71
1, 76120, Note_on_c, 0, 65, 0
1, 76120, Note_on_c, 0, 60, 0
1, 76120, Note_on_c, 0, 60, 52
1, 76123, Note_on_c, 0, 65, 61
1, 76199, Note_on_c, 0, 65, 0
1, 76199, Note_on_c, 0, 60, 0
1, 76199, Note_on_c, 0, 73, 81
1, 76212, Note_on_c, 0, 72, 0
1, 76277, Note_on_c, 0, 64, 53
1, 76277, Note_on_c, 0, 67, 62
1, 76356, Note_on_c, 0, 81, 0
1, 76356, Note_on_c, 0, 82, 73
1, 76434, Note_on_c, 0, 67, 0
1, 76434, Note_on_c, 0, 64, 0
1, 76434, Note_on_c, 0, 64, 54
1, 76437, Note_on_c, 0, 67, 63
1, 76511, Note_on_c, 0, 67, 0
1, 76511, Note_on_c, 0, 64, 0
1, 76511, Note_on_c, 0, 74, 84
1, 76524, Note_on_c, 0, 73, 0
1, 76589, Note_on_c, 0, 65, 56
1, 76589, Note_on_c, 0, 68, 65
1, 76666, Note_on_c, 0, 82, 0
1, 76666, Note_on_c, 0, 83, 75
1, 76745, Note_on_c, 0, 68, 0
1, 76745, Note_on_c, 0, 65, 0
1, 76745, Note_on_c, 0, 65, 56
1, 76748, Note_on_c, 0, 68, 66
1, 76823, Note_on_c, 0, 68, 0
1, 76823, Note_on_c, 0, 65, 0
1, 76823, Note_on_c, 0, 72, 84
1, 76836, Note_on_c, 0, 74, 0
1, 76902, Note_on_c, 0, 64, 57
1, 76902, Note_on_c, 0, 67, 68
1, 76981, Note_on_c, 0, 83, 0
1, 76981, Note_on_c, 0, 84, 79
1, 77069, Note_on_c, 0, 67, 0
1, 77069, Note_on_c, 0, 64, 0
1, 77069, Note_on_c, 0, 64, 58
1, 77072, Note_on_c, 0, 67, 68
1, 77157, Note_on_c, 0, 67, 0
1, 77157, Note_on_c, 0, 64, 0
1, 77157, Note_on_c, 0, 72, 0
1, 77160, Note_on_c, 0, 72, 90
1, 77241, Note_on_c, 0, 65, 60
1, 77241, Note_on_c, 0, 69, 70
1, 77325, Note_on_c, 0, 84, 0
1, 77325, Note_on_c, 0, 77, 82
1, 77403, Note_on_c, 0, 69, 0
1, 77403, Note_on_c, 0, 65, 0
1, 77403, Note_on_c, 0, 65, 60
1, 77406, Note_on_c, 0, 69, 70
1, 77482, Note_on_c, 0, 69, 0
1, 77482, Note_on_c, 0, 65, 0
1, 77482, Note_on_c, 0, 72, 0
1, 77485, Note_on_c, 0, 74, 95
1, 77561, Note_on_c, 0, 62, 61
1, 77561, Note_on_c, 0, 69, 70
1, 77641, Note_on_c, 0, 77, 0
1, 77641, Note_on_c, 0, 78, 86
1, 77720, Note_on_c, 0, 69, 0
1, 77720, Note_on_c, 0, 62, 0
1, 77720, Note_on_c, 0, 62, 61
1, 77723, Note_on_c, 0, 69, 70
1, 77798, Note_on_c, 0, 69, 0
1, 77798, Note_on_c, 0, 62, 0
1, 77798, Note_on_c, 0, 70, 90
1, 77811, Note_on_c, 0, 74, 0
1, 77878, Note_on_c, 0, 62, 58
1, 77878, Note_on_c, 0, 67, 68
1, 77958, Note_on_c, 0, 78, 0
1, 77958, Note_on_c, 0, 79, 82
1, 78037, Note_on_c, 0, 67, 0
1, 78037, Note_on_c, 0, 62, 0
1, 78037, Note_on_c, 0, 62, 55
1, 78040, Note_on_c, 0, 67, 64
1, 78116, Note_on_c, 0, 67, 0
1, 78116, Note_on_c, 0, 62, 0
1, 78116, Note_on_c, 0, 72, 86
1, 78130, Note_on_c, 0, 70, 0
1, 78200, Note_on_c, 0, 60, 57
1, 78200, Note_on_c, 0, 67, 68
1, 78284, Note_on_c, 0, 79, 0
1, 78284, Note_on_c, 0, 76, 79
1, 78362, Note_on_c, 0, 67, 0
1, 78362, Note_on_c, 0, 60, 0
1, 78362, Note_on_c, 0, 60, 57
1, 78365, Note_on_c, 0, 67, 68
1, 78440, Note_on_c, 0, 67, 0
1, 78440, Note_on_c, 0, 60, 0
1, 78440, Note_on_c, 0, 69, 87
1, 78453, Note_on_c, 0, 72, 0
1, 78518, Note_on_c, 0, 60, 54
1, 78518, Note_on_c, 0, 65, 63
1, 78597, Note_on_c, 0, 76, 0
1, 78597, Note_on_c, 0, 77, 74
1, 78677, Note_on_c, 0, 65, 0
1, 78677, Note_on_c, 0, 60, 0
1, 78677, Note_on_c, 0, 60, 54
1, 78680, Note_on_c, 0, 65, 63
1, 78757, Note_on_c, 0, 65, 0
1, 78757, Note_on_c, 0, 60, 0
1, 78757, Note_on_c, 0, 67, 81
1, 78771, Note_on_c, 0, 69, 0
1, 78838, Note_on_c, 0, 57, 54
1, 78838, Note_on_c, 0, 61, 63
1, 78919, Note_on_c, 0, 77, 0
1, 78919, Note_on_c, 0, 76, 71
1, 79000, Note_on_c, 0, 61, 0
1, 79000, Note_on_c, 0, 57, 0
1, 79000, Note_on_c, 0, 57, 54
1, 79003, Note_on_c, 0, 61, 63
1, 79082, Note_on_c, 0, 61, 0
1, 79082, Note_on_c, 0, 57, 0
1, 79082, Note_on_c, 0, 65, 77
1, 79096, Note_on_c, 0, 67, 0
1, 79166, Note_on_c, 0, 57, 53
1, 79166, Note_on_c, 0, 62, 62
1, 79250, Note_on_c, 0, 76, 0
1, 79250, Note_on_c, 0, 74, 69
1, 79328, Note_on_c, 0, 62, 0
1, 79328, Note_on_c, 0, 57, 0
1, 79328, Note_on_c, 0, 57, 53
1, 79331, Note_on_c, 0, 62, 62
1, 79406, Note_on_c, 0, 62, 0
1, 79406, Note_on_c, 0, 57, 0
1, 79406, Note_on_c, 0, 63, 74
1, 79419, Note_on_c, 0, 65, 0
1, 79484, Note_on_c, 0, 53, 52
1, 79484, Note_on_c, 0, 57, 60
1, 79563, Note_on_c, 0, 74, 0
1, 79563, Note_on_c, 0, 72, 68
1, 79642, Note_on_c, 0, 57, 0
1, 79642, Note_on_c, 0, 53, 0
1, 79642, Note_on_c, 0, 53, 52
1, 79645, Note_on_c, 0, 57, 60
1, 79723, Note_on_c, 0, 57, 0
1, 79723, Note_on_c, 0, 53, 0
1, 79723, Note_on_c, 0, 62, 72
1, 79736, Note_on_c, 0, 63, 0
1, 79804, Note_on_c, 0, 53, 51
1, 79804, Note_on_c, 0, 58, 58
1, 79885, Note_on_c, 0, 72, 0
1, 79885, Note_on_c, 0, 70, 66
1, 79966, Note_on_c, 0, 58, 0
1, 79966, Note_on_c, 0, 53, 0
1, 79966, Note_on_c, 0, 53, 51
1, 79969, Note_on_c, 0, 58, 58
1, 80048, Note_on_c, 0, 58, 0
1, 80048, Note_on_c, 0, 53, 0
1, 80048, Note_on_c, 0, 60, 71
1, 80062, Note_on_c, 0, 62, 0
1, 80131, Note_on_c, 0, 50, 48
1, 80131, Note_on_c, 0, 54, 56
1, 80215, Note_on_c, 0, 70, 0
1, 80215, Note_on_c, 0, 69, 65
1, 80297, Note_on_c, 0, 54, 0
1, 80297, Note_on_c, 0, 50, 0
1, 80297, Note_on_c, 0, 50, 47
1, 80300, Note_on_c, 0, 54, 55
1, 80378, Note_on_c, 0, 54, 0
1, 80378, Note_on_c, 0, 50, 0
1, 80378, Note_on_c, 0, 58, 69
1, 80391, Note_on_c, 0, 60, 0
1, 80459, Note_on_c, 0, 50, 47
1, 80459, Note_on_c, 0, 55, 55
1, 80541, Note_on_c, 0, 69, 0
1, 80541, Note_on_c, 0, 67, 64
1, 80623, Note_on_c, 0, 55, 0
1, 80623, Note_on_c, 0, 50, 0
1, 80623, Note_on_c, 0, 50, 46
1, 80626, Note_on_c, 0, 55, 54
1, 80706, Note_on_c, 0, 55, 0
1, 80706, Note_on_c, 0, 50, 0
1, 80706, Note_on_c, 0, 59, 63
1, 80720, Note_on_c, 0, 58, 0
1, 80790, Note_on_c, 0, 50, 44
1, 80790, Note_on_c, 0, 56, 51
1, 80874, Note_on_c, 0, 67, 0
1, 80874, Note_on_c, 0, 65, 63
1, 80959, Note_on_c, 0, 56, 0
1, 80959, Note_on_c, 0, 50, 0
1, 80959, Note_on_c, 0, 50, 44
1, 80962, Note_on_c, 0, 56, 51
1, 81062, Note_on_c, 0, 56, 0
1, 81062, Note_on_c, 0, 50, 0
1, 81062, Note_on_c, 0, 60, 63
1, 81065, Note_on_c, 0, 58, 54
1, 81077, Note_on_c, 0, 59, 0
1, 81154, Note_on_c, 0, 48, 41
1, 81154, Note_on_c, 0, 55, 48
1, 81247, Note_on_c, 0, 65, 0
1, 81247, Note_on_c, 0, 64, 58
1, 81335, Note_on_c, 0, 55, 0
1, 81335, Note_on_c, 0, 48, 0
1, 81335, Note_on_c, 0, 48, 41
1, 81338, Note_on_c, 0, 55, 48
1, 81423, Note_on_c, 0, 55, 0
1, 81423, Note_on_c, 0, 60, 0
1, 81423, Note_on_c, 0, 58, 0
1, 81426, Note_on_c, 0, 48, 0
1, 81426, Note_on_c, 0, 60, 62
1, 81426, Note_on_c, 0, 58, 53
1, 81511, Note_on_c, 0, 48, 43
1, 81511, Note_on_c, 0, 54, 49
1, 81601, Note_on_c, 0, 64, 0
1, 81601, Note_on_c, 0, 63, 57
1, 81691, Note_on_c, 0, 54, 0
1, 81691, Note_on_c, 0, 48, 0
1, 81691, Note_on_c, 0, 48, 43
1, 81694, Note_on_c, 0, 54, 49
1, 81783, Note_on_c, 0, 54, 0
1, 81783, Note_on_c, 0, 60, 0
1, 81783, Note_on_c, 0, 58, 0
1, 81786, Note_on_c, 0, 48, 0
1, 81786, Note_on_c, 0, 60, 61
1, 81786, Note_on_c, 0, 58, 52
1, 81876, Note_on_c, 0, 48, 41
1, 81876, Note_on_c, 0, 55, 47
1, 81970, Note_on_c, 0, 63, 0
1, 81970, Note_on_c, 0, 64, 51
1, 82065, Note_on_c, 0, 55, 0
1, 82065, Note_on_c, 0, 48, 0
1, 82065, Note_on_c, 0, 48, 41
1, 82068, Note_on_c, 0, 55, 47
1, 82161, Note_on_c, 0, 55, 0
1, 82161, Note_on_c, 0, 60, 0
1, 82161, Note_on_c, 0, 58, 0
1, 82164, Note_on_c, 0, 48, 0
1, 82164, Note_on_c, 0, 57, 48
1, 82164, Note_on_c, 0, 60, 56
1, 82259, Note_on_c, 0, 48, 37
1, 82259, Note_on_c, 0, 53, 43
1, 82357, Note_on_c, 0, 64, 0
1, 82357, Note_on_c, 0, 65, 51
1, 82453, Control_c, 0, 64, 127
1, 82459, Note_on_c, 0, 53, 0
1, 82459, Note_on_c, 0, 48, 0
1, 82459, Note_on_c, 0, 48, 36
1, 82462, Note_on_c, 0, 53, 41
1, 82562, Note_on_c, 0, 53, 0
1, 82562, Note_on_c, 0, 57, 0
1, 82562, Note_on_c, 0, 60, 0
1, 82565, Note_on_c, 0, 48, 0
1, 82565, Note_on_c, 0, 57, 48
1, 82565, Note_on_c, 0, 60, 56
1, 82676, Note_on_c, 0, 48, 36
1, 82676, Note_on_c, 0, 53, 41
1, 82790, Note_on_c, 0, 65, 0
1, 82790, Note_on_c, 0, 72, 51
1, 82937, Note_on_c, 0, 53, 0
1, 82937, Note_on_c, 0, 48, 0
1, 82937, Note_on_c, 0, 48, 36
1, 82940, Note_on_c, 0, 53, 41
1, 83015, Control_c, 0, 64, 0
1, 83084, Note_on_c, 0, 53, 0
1, 83084, Note_on_c, 0, 57, 0
1, 83084, Note_on_c, 0, 60, 0
1, 83087, Note_on_c, 0, 48, 0
1, 83087, Note_on_c, 0, 65, 62
1, 83087, Note_on_c, 0, 72, 0
1, 83200, Note_on_c, 0, 57, 41
1, 83200, Note_on_c, 0, 60, 48
1, 83316, Note_on_c, 0, 29, 47
1, 83316, Note_on_c, 0, 41, 57
1, 83420, Note_on_c, 0, 60, 0
1, 83420, Note_on_c, 0, 57, 0
1, 83420, Note_on_c, 0, 57, 44
1, 83423, Note_on_c, 0, 60, 51
1, 83524, Note_on_c, 0, 60, 0
1, 83524, Note_on_c, 0, 57, 0
1, 83524, Note_on_c, 0, 64, 63
1, 83540, Note_on_c, 0, 65, 0
1, 83618, Note_on_c, 0, 55, 46
1, 83618, Note_on_c, 0, 58, 54
1, 83711, Note_on_c, 0, 41, 0
1, 83711, Note_on_c, 0, 29, 0
1, 83711, Note_on_c, 0, 31, 48
1, 83714, Note_on_c, 0, 43, 60
1, 83796, Note_on_c, 0, 58, 0
1, 83796, Note_on_c, 0, 55, 0
1, 83796, Note_on_c, 0, 55, 46
1, 83799, Note_on_c, 0, 58, 54
1, 83881, Note_on_c, 0, 58, 0
1, 83881, Note_on_c, 0, 55, 0
1, 83881, Note_on_c, 0, 62, 69
1, 83895, Note_on_c, 0, 64, 0
1, 83965, Note_on_c, 0, 53, 48
1, 83965, Note_on_c, 0, 59, 56
1, 84049, Note_on_c, 0, 43, 0
1, 84049, Note_on_c, 0, 31, 0
1, 84049, Note_on_c, 0, 32, 52
1, 84052, Note_on_c, 0, 44, 63
1, 84132, Note_on_c, 0, 59, 0
1, 84132, Note_on_c, 0, 53, 0
1, 84132, Note_on_c, 0, 53, 49
1, 84135, Note_on_c, 0, 59, 57
1, 84215, Note_on_c, 0, 59, 0
1, 84215, Note_on_c, 0, 53, 0
1, 84215, Note_on_c, 0, 61, 75
1, 84229, Note_on_c, 0, 62, 0
1, 84297, Note_on_c, 0, 52, 51
1, 84297, Note_on_c, 0, 57, 60
1, 84378, Note_on_c, 0, 44, 0
1, 84378, Note_on_c, 0, 32, 0
1, 84378, Note_on_c, 0, 33, 53
1, 84381, Note_on_c, 0, 45, 65
1, 84460, Note_on_c, 0, 57, 0
1, 84460, Note_on_c, 0, 52, 0
1, 84460, Note_on_c, 0, 52, 52
1, 84463, Note_on_c, 0, 57, 61
1, 84540, Note_on_c, 0, 57, 0
1, 84540, Note_on_c, 0, 52, 0
1, 84540, Note_on_c, 0, 62, 81
1, 84554, Note_on_c, 0, 61, 0
1, 84620, Note_on_c, 0, 53, 53
1, 84620, Note_on_c, 0, 56, 62
1, 84700, Note_on_c, 0, 45, 0
1, 84700, Note_on_c, 0, 33, 0
1, 84700, Note_on_c, 0, 35, 55
1, 84703, Note_on_c, 0, 47, 68
1, 84779, Note_on_c, 0, 56, 0
1, 84779, Note_on_c, 0, 53, 0
1, 84779, Note_on_c, 0, 53, 54
1, 84782, Note_on_c, 0, 56, 63
1, 84857, Note_on_c, 0, 56, 0
1, 84857, Note_on_c, 0, 53, 0
1, 84857, Note_on_c, 0, 63, 84
1, 84870, Note_on_c, 0, 62, 0
1, 84934, Note_on_c, 0, 54, 56
1, 84934, Note_on_c, 0, 57, 65
1, 85012, Note_on_c, 0, 47, 0
1, 85012, Note_on_c, 0, 35, 0
1, 85012, Note_on_c, 0, 36, 57
1, 85015, Note_on_c, 0, 48, 70
1, 85090, Note_on_c, 0, 57, 0
1, 85090, Note_on_c, 0, 54, 0
1, 85090, Note_on_c, 0, 54, 56
1, 85093, Note_on_c, 0, 57, 66
1, 85169, Note_on_c, 0, 57, 0
1, 85169, Note_on_c, 0, 54, 0
1, 85169, Note_on_c, 0, 64, 84
1, 85182, Note_on_c, 0, 63, 0
1, 85247, Note_on_c, 0, 55, 57
1, 85247, Note_on_c, 0, 57, 68
1, 85326, Note_on_c, 0, 48, 0
1, 85326, Note_on_c, 0, 36, 0
1, 85326, Note_on_c, 0, 37, 60
1, 85329, Note_on_c, 0, 49, 73
1, 85414, Note_on_c, 0, 57, 0
1, 85414, Note_on_c, 0, 55, 0
1, 85414, Note_on_c, 0, 55, 58
1, 85417, Note_on_c, 0, 57, 68
1, 85502, Note_on_c, 0, 57, 0
1, 85502, Note_on_c, 0, 55, 0
1, 85502, Note_on_c, 0, 65, 90
1, 85517, Note_on_c, 0, 64, 0
1, 85587, Note_on_c, 0, 53, 60
1, 85587, Note_on_c, 0, 57, 70
1, 85671, Note_on_c, 0, 49, 0
1, 85671, Note_on_c, 0, 37, 0
1, 85671, Note_on_c, 0, 38, 62
1, 85674, Note_on_c, 0, 50, 77
1, 85750, Note_on_c, 0, 57, 0
1, 85750, Note_on_c, 0, 53, 0
1, 85750, Note_on_c, 0, 53, 60
1, 85753, Note_on_c, 0, 57, 70
1, 85828, Note_on_c, 0, 57, 0
1, 85828, Note_on_c, 0, 53, 0
1, 85828, Note_on_c, 0, 65, 0
1, 85831, Note_on_c, 0, 61, 95
1, 85910, Note_on_c, 0, 55, 61
1, 85910, Note_on_c, 0, 58, 70
1, 85991, Note_on_c, 0, 50, 0
1, 85991, Note_on_c, 0, 38, 0
1, 85991, Note_on_c, 0, 64, 86
1, 86070, Note_on_c, 0, 58, 0
1, 86070, Note_on_c, 0, 55, 0
1, 86070, Note_on_c, 0, 55, 61
1, 86073, Note_on_c, 0, 58, 70
1, 86148, Note_on_c, 0, 58, 0
1, 86148, Note_on_c, 0, 55, 0
1, 86148, Note_on_c, 0, 62, 90
1, 86162, Note_on_c, 0, 61, 0
1, 86229, Note_on_c, 0, 53, 58
1, 86229, Note_on_c, 0, 57, 68
1, 86310, Note_on_c, 0, 64, 0
1, 86310, Note_on_c, 0, 65, 82
1, 86389, Note_on_c, 0, 57, 0
1, 86389, Note_on_c, 0, 53, 0
1, 86389, Note_on_c, 0, 53, 55
1, 86392, Note_on_c, 0, 57, 64
1, 86468, Note_on_c, 0, 57, 0
1, 86468, Note_on_c, 0, 53, 0
1, 86468, Note_on_c, 0, 60, 86
1, 86482, Note_on_c, 0, 62, 0
1, 86549, Note_on_c, 0, 50, 57
1, 86549, Note_on_c, 0, 57, 68
1, 86631, Note_on_c, 0, 65, 0
1, 86631, Note_on_c, 0, 66, 79
1, 86709, Note_on_c, 0, 57, 0
1, 86709, Note_on_c, 0, 50, 0
1, 86709, Note_on_c, 0, 50, 57
1, 86712, Note_on_c, 0, 57, 68
1, 86787, Note_on_c, 0, 57, 0
1, 86787, Note_on_c, 0, 50, 0
1, 86787, Note_on_c, 0, 58, 87
1, 86800, Note_on_c, 0, 60, 0
1, 86865, Note_on_c, 0, 50, 54
1, 86865, Note_on_c, 0, 55, 63
1, 86944, Note_on_c, 0, 66, 0
1, 86944, Note_on_c, 0, 67, 74
1, 87024, Note_on_c, 0, 55, 0
1, 87024, Note_on_c, 0, 50, 0
1, 87024, Note_on_c, 0, 50, 54
1, 87027, Note_on_c, 0, 55, 63
1, 87104, Note_on_c, 0, 55, 0
1, 87104, Note_on_c, 0, 50, 0
1, 87104, Note_on_c, 0, 58, 0
1, 87107, Note_on_c, 0, 59, 81
1, 87185, Note_on_c, 0, 50, 54
1, 87185, Note_on_c, 0, 53, 63
1, 87266, Note_on_c, 0, 67, 0
1, 87266, Note_on_c, 0, 68, 71
1, 87348, Note_on_c, 0, 53, 0
1, 87348, Note_on_c, 0, 50, 0
1, 87348, Note_on_c, 0, 50, 54
1, 87351, Note_on_c, 0, 53, 63
1, 87429, Note_on_c, 0, 53, 0
1, 87429, Note_on_c, 0, 50, 0
1, 87429, Note_on_c, 0, 60, 77
1, 87443, Note_on_c, 0, 59, 0
1, 87513, Note_on_c, 0, 48, 53
1, 87513, Note_on_c, 0, 53, 62
1, 87597, Note_on_c, 0, 68, 0
1, 87597, Note_on_c, 0, 69, 69
1, 87675, Note_on_c, 0, 53, 0
1, 87675, Note_on_c, 0, 48, 0
1, 87675, Note_on_c, 0, 48, 53
1, 87678, Note_on_c, 0, 53, 62
1, 87753, Note_on_c, 0, 53, 0
1, 87753, Note_on_c, 0, 48, 0
1, 87753, Note_on_c, 0, 59, 74
1, 87766, Note_on_c, 0, 60, 0
1, 87831, Note_on_c, 0, 50, 52
1, 87831, Note_on_c, 0, 53, 60
1, 87910, Note_on_c, 0, 69, 0
1, 87910, Note_on_c, 0, 68, 68
1, 87989, Note_on_c, 0, 53, 0
1, 87989, Note_on_c, 0, 50, 0
1, 87989, Note_on_c, 0, 50, 52
1, 87992, Note_on_c, 0, 53, 60
1, 88070, Note_on_c, 0, 53, 0
1, 88070, Note_on_c, 0, 50, 0
1, 88070, Note_on_c, 0, 60, 72
1, 88083, Note_on_c, 0, 59, 0
1, 88151, Note_on_c, 0, 48, 51
1, 88151, Note_on_c, 0, 53, 58
1, 88232, Note_on_c, 0, 68, 0
1, 88232, Note_on_c, 0, 69, 66
1, 88313, Note_on_c, 0, 53, 0
1, 88313, Note_on_c, 0, 48, 0
1, 88313, Note_on_c, 0, 48, 51
1, 88316, Note_on_c, 0, 53, 58
1, 88395, Note_on_c, 0, 53, 0
1, 88395, Note_on_c, 0, 48, 0
1, 88395, Note_on_c, 0, 59, 71
1, 88409, Note_on_c, 0, 60, 0
1, 88478, Note_on_c, 0, 50, 48
1, 88478, Note_on_c, 0, 53, 56
1, 88562, Note_on_c, 0, 69, 0
1, 88562, Note_on_c, 0, 67, 65
1, 88644, Note_on_c, 0, 53, 0
1, 88644, Note_on_c, 0, 50, 0
1, 88644, Note_on_c, 0, 50, 47
1, 88647, Note_on_c, 0, 53, 55
1, 88725, Note_on_c, 0, 53, 0
1, 88725, Note_on_c, 0, 50, 0
1, 88725, Note_on_c, 0, 60, 69
1, 88738, Note_on_c, 0, 59, 0
1, 88806, Note_on_c, 0, 50, 47
1, 88806, Note_on_c, 0, 53, 55
1, 88888, Note_on_c, 0, 67, 0
1, 88888, Note_on_c, 0, 68, 64
1, 88970, Note_on_c, 0, 53, 0
1, 88970, Note_on_c, 0, 50, 0
1, 88970, Note_on_c, 0, 50, 46
1, 88973, Note_on_c, 0, 53, 54
1, 89053, Note_on_c, 0, 53, 0
1, 89053, Note_on_c, 0, 50, 0
1, 89053, Note_on_c, 0, 59, 63
1, 89067, Note_on_c, 0, 60, 0
1, 89137, Note_on_c, 0, 50, 44
1, 89137, Note_on_c, 0, 53, 51
1, 89221, Note_on_c, 0, 68, 0
1, 89221, Note_on_c, 0, 67, 63
1, 89306, Note_on_c, 0, 53, 0
1, 89306, Note_on_c, 0, 50, 0
1, 89306, Note_on_c, 0, 50, 44
1, 89309, Note_on_c, 0, 53, 51
1, 89409, Note_on_c, 0, 53, 0
1, 89409, Note_on_c, 0, 50, 0
1, 89409, Note_on_c, 0, 59, 0
1, 89412, Note_on_c, 0, 60, 63
1, 89412, Note_on_c, 0, 58, 54
1, 89501, Note_on_c, 0, 48, 41
1, 89501, Note_on_c, 0, 55, 48
1, 89594, Note_on_c, 0, 67, 0
1, 89594, Note_on_c, 0, 64, 58
1, 89682, Note_on_c, 0, 55, 0
1, 89682, Note_on_c, 0, 48, 0
1, 89682, Note_on_c, 0, 48, 41
1, 89685, Note_on_c, 0, 55, 48
1, 89770, Note_on_c, 0, 55, 0
1, 89770, Note_on_c, 0, 60, 0
1, 89770, Note_on_c, 0, 58, 0
1, 89773, Note_on_c, 0, 48, 0
1, 89773, Note_on_c, 0, 60, 62
1, 89773, Note_on_c, 0, 58, 53
1, 89858, Note_on_c, 0, 48, 43
1, 89858, Note_on_c, 0, 54, 49
1, 89948, Note_on_c, 0, 64, 0
1, 89948, Note_on_c, 0, 63, 57
1, 90038, Note_on_c, 0, 54, 0
1, 90038, Note_on_c, 0, 48, 0
1, 90038, Note_on_c, 0, 48, 43
1, 90041, Note_on_c, 0, 54, 49
1, 90130, Note_on_c, 0, 54, 0
1, 90130, Note_on_c, 0, 60, 0
1, 90130, Note_on_c, 0, 58, 0
1, 90133, Note_on_c, 0, 48, 0
1, 90133, Note_on_c, 0, 60, 61
1, 90133, Note_on_c, 0, 58, 52
1, 90223, Note_on_c, 0, 48, 41
1, 90223, Note_on_c, 0, 55, 47
1, 90317, Note_on_c, 0, 63, 0
1, 90317, Note_on_c, 0, 64, 51
1, 90412, Note_on_c, 0, 55, 0
1, 90412, Note_on_c, 0, 48, 0
1, 90412, Note_on_c, 0, 48, 41
1, 90415, Note_on_c, 0, 55, 47
1, 90508, Note_on_c, 0, 55, 0
1, 90508, Note_on_c, 0, 60, 0
1, 90508, Note_on_c, 0, 58, 0
1, 90511, Note_on_c, 0, 48, 0
1, 90511, Note_on_c, 0, 57, 48
1, 90511, Note_on_c, 0, 60, 56
1, 90606, Note_on_c, 0, 48, 37
1, 90606, Note_on_c, 0, 53, 43
1, 90703, Note_on_c, 0, 64, 0
1, 90703, Note_on_c, 0, 65, 51
1, 90763, Control_c, 0, 64, 127
1, 90805, Note_on_c, 0, 53, 0
1, 90805, Note_on_c, 0, 48, 0
1, 90805, Note_on_c, 0, 48, 36
1, 90808, Note_on_c, 0, 53, 41
1, 90906, Note_on_c, 0, 53, 0
1, 90906, Note_on_c, 0, 57, 0
1, 90906, Note_on_c, 0, 60, 0
1, 90909, Note_on_c, 0, 48, 0
1, 90909, Note_on_c, 0, 57, 48
1, 90909, Note_on_c, 0, 60, 56
1, 91019, Note_on_c, 0, 48, 36
1, 91019, Note_on_c, 0, 53, 41
1, 91132, Note_on_c, 0, 65, 0
1, 91132, Note_on_c, 0, 72, 51
1, 91279, Note_on_c, 0, 53, 0
1, 91279, Note_on_c, 0, 48, 0
1, 91279, Note_on_c, 0, 48, 36
1, 91282, Note_on_c, 0, 53, 41
1, 91374, Control_c, 0, 64, 0
1, 91426, Note_on_c, 0, 53, 0
1, 91426, Note_on_c, 0, 57, 0
1, 91426, Note_on_c, 0, 60, 0
1, 91429, Note_on_c, 0, 48, 0
1, 91429, Note_on_c, 0, 65, 62
1, 91429, Note_on_c, 0, 72, 0
1, 91539, Note_on_c, 0, 57, 41
1, 91539, Note_on_c, 0, 60, 48
1, 91653, Note_on_c, 0, 29, 47
1, 91653, Note_on_c, 0, 41, 57
1, 91756, Note_on_c, 0, 60, 0
1, 91756, Note_on_c, 0, 57, 0
1, 91756, Note_on_c, 0, 57, 44
1, 91759, Note_on_c, 0, 60, 51
1, 91860, Note_on_c, 0, 60, 0
1, 91860, Note_on_c, 0, 57, 0
1, 91860, Note_on_c, 0, 64, 63
1, 91875, Note_on_c, 0, 65, 0
1, 91954, Note_on_c, 0, 55, 46
1, 91954, Note_on_c, 0, 58, 54
1, 92049, Note_on_c, 0, 41, 0
1, 92049, Note_on_c, 0, 29, 0
1, 92049, Note_on_c, 0, 31, 48
1, 92052, Note_on_c, 0, 43, 60
1, 92136, Note_on_c, 0, 58, 0
1, 92136, Note_on_c, 0, 55, 0
1, 92136, Note_on_c, 0, 55, 46
1, 92139, Note_on_c, 0, 58, 54
1, 92223, Note_on_c, 0, 58, 0
1, 92223, Note_on_c, 0, 55, 0
1, 92223, Note_on_c, 0, 62, 69
1, 92237, Note_on_c, 0, 64, 0
1, 92308, Note_on_c, 0, 53, 48
1, 92308, Note_on_c, 0, 59, 56
1, 92393, Note_on_c, 0, 43, 0
1, 92393, Note_on_c, 0, 31, 0
1, 92393, Note_on_c, 0, 32, 52
1, 92396, Note_on_c, 0, 44, 63
1, 92477, Note_on_c, 0, 59, 0
1, 92477, Note_on_c, 0, 53, 0
1, 92477, Note_on_c, 0, 53, 49
1, 92480, Note_on_c, 0, 59, 57
1, 92560, Note_on_c, 0, 59, 0
1, 92560, Note_on_c, 0, 53, 0
1, 92560, Note_on_c, 0, 61, 75
1, 92574, Note_on_c, 0, 62, 0
1, 92643, Note_on_c, 0, 52, 51
1, 92643, Note_on_c, 0, 57, 60
1, 92725, Note_on_c, 0, 44, 0
1, 92725, Note_on_c, 0, 32, 0
1, 92725, Note_on_c, 0, 33, 53
1, 92728, Note_on_c, 0, 45, 65
1, 92806, Note_on_c, 0, 57, 0
1, 92806, Note_on_c, 0, 52, 0
1, 92806, Note_on_c, 0, 52, 52
1, 92809, Note_on_c, 0, 57, 61
1, 92886, Note_on_c, 0, 57, 0
1, 92886, Note_on_c, 0, 52, 0
1, 92886, Note_on_c, 0, 62, 81
1, 92899, Note_on_c, 0, 61, 0
1, 92966, Note_on_c, 0, 53, 53
1, 92966, Note_on_c, 0, 56, 62
1, 93045, Note_on_c, 0, 45, 0
1, 93045, Note_on_c, 0, 33, 0
1, 93045, Note_on_c, 0, 35, 55
1, 93048, Note_on_c, 0, 47, 68
1, 93124, Note_on_c, 0, 56, 0
1, 93124, Note_on_c, 0, 53, 0
1, 93124, Note_on_c, 0, 53, 54
1, 93127, Note_on_c, 0, 56, 63
1, 93202, Note_on_c, 0, 56, 0
1, 93202, Note_on_c, 0, 53, 0
1, 93202, Note_on_c, 0, 63, 84
1, 93215, Note_on_c, 0, 62, 0
1, 93279, Note_on_c, 0, 54, 56
1, 93279, Note_on_c, 0, 57, 65
1, 93357, Note_on_c, 0, 47, 0
1, 93357, Note_on_c, 0, 35, 0
1, 93357, Note_on_c, 0, 36, 57
1, 93360, Note_on_c, 0, 48, 70
1, 93436, Note_on_c, 0, 57, 0
1, 93436, Note_on_c, 0, 54, 0
1, 93436, Note_on_c, 0, 54, 56
1, 93439, Note_on_c, 0, 57, 66
1, 93514, Note_on_c, 0, 57, 0
1, 93514, Note_on_c, 0, 54, 0
1, 93514, Note_on_c, 0, 64, 84
1, 93527, Note_on_c, 0, 63, 0
1, 93593, Note_on_c, 0, 55, 57
1, 93593, Note_on_c, 0, 57, 68
1, 93671, Note_on_c, 0, 48, 0
1, 93671, Note_on_c, 0, 36, 0
1, 93671, Note_on_c, 0, 37, 60
1, 93674, Note_on_c, 0, 49, 73
1, 93760, Note_on_c, 0, 57, 0
1, 93760, Note_on_c, 0, 55, 0
1, 93760, Note_on_c, 0, 55, 58
1, 93763, Note_on_c, 0, 57, 68
1, 93848, Note_on_c, 0, 57, 0
1, 93848, Note_on_c, 0, 55, 0
1, 93848, Note_on_c, 0, 65, 90
1, 93862, Note_on_c, 0, 64, 0
1, 93932, Note_on_c, 0, 53, 60
1, 93932, Note_on_c, 0, 57, 70
1, 94016, Note_on_c, 0, 49, 0
1, 94016, Note_on_c, 0, 37, 0
1, 94016, Note_on_c, 0, 38, 62
1, 94019, Note_on_c, 0, 50, 77
1, 94096, Note_on_c, 0, 57, 0
1, 94096, Note_on_c, 0, 53, 0
1, 94096, Note_on_c, 0, 53, 60
1, 94099, Note_on_c, 0, 57, 70
1, 94177, Note_on_c, 0, 57, 0
1, 94177, Note_on_c, 0, 53, 0
1, 94177, Note_on_c, 0, 65, 0
1, 94180, Note_on_c, 0, 61, 95
1, 94261, Note_on_c, 0, 55, 61
1, 94261, Note_on_c, 0, 58, 70
1, 94345, Note_on_c, 0, 50, 0
1, 94345, Note_on_c, 0, 38, 0
1, 94345, Note_on_c, 0, 64, 86
1, 94426, Note_on_c, 0, 58, 0
1, 94426, Note_on_c, 0, 55, 0
1, 94426, Note_on_c, 0, 55, 61
1, 94429, Note_on_c, 0, 58, 70
1, 94507, Note_on_c, 0, 58, 0
1, 94507, Note_on_c, 0, 55, 0
1, 94507, Note_on_c, 0, 62, 90
1, 94521, Note_on_c, 0, 61, 0
1, 94590, Note_on_c, 0, 53, 58
1, 94590, Note_on_c, 0, 57, 68
1, 94674, Note_on_c, 0, 64, 0
1, 94674, Note_on_c, 0, 65, 82
1, 94755, Note_on_c, 0, 57, 0
1, 94755, Note_on_c, 0, 53, 0
1, 94755, Note_on_c, 0, 53, 55
1, 94758, Note_on_c, 0, 57, 64
1, 94835, Note_on_c, 0, 57, 0
1, 94835, Note_on_c, 0, 53, 0
1, 94835, Note_on_c, 0, 60, 86
1, 94849, Note_on_c, 0, 62, 0
1, 94919, Note_on_c, 0, 50, 57
1, 94919, Note_on_c, 0, 57, 68
1, 95003, Note_on_c, 0, 65, 0
1, 95003, Note_on_c, 0, 66, 79
1, 95083, Note_on_c, 0, 57, 0
1, 95083, Note_on_c, 0, 50, 0
1, 95083, Note_on_c, 0, 50, 57
1, 95086, Note_on_c, 0, 57, 68
1, 95162, Note_on_c, 0, 57, 0
1, 95162, Note_on_c, 0, 50, 0
1, 95162, Note_on_c, 0, 60, 0
1, 95165, Note_on_c, 0, 58, 87
1, 95240, Note_on_c, 0, 50, 54
1, 95240, Note_on_c, 0, 55, 63
1, 95319, Note_on_c, 0, 66, 0
1, 95319, Note_on_c, 0, 67, 74
1, 95399, Note_on_c, 0, 55, 0
1, 95399, Note_on_c, 0, 50, 0
1, 95399, Note_on_c, 0, 50, 54
1, 95402, Note_on_c, 0, 55, 63
1, 95479, Note_on_c, 0, 55, 0
1, 95479, Note_on_c, 0, 50, 0
1, 95479, Note_on_c, 0, 58, 0
1, 95482, Note_on_c, 0, 59, 81
1, 95560, Note_on_c, 0, 50, 54
1, 95560, Note_on_c, 0, 53, 63
1, 95641, Note_on_c, 0, 67, 0
1, 95641, Note_on_c, 0, 68, 71
1, 95723, Note_on_c, 0, 53, 0
1, 95723, Note_on_c, 0, 50, 0
1, 95723, Note_on_c, 0, 50, 54
1, 95726, Note_on_c, 0, 53, 63
1, 95804, Note_on_c, 0, 53, 0
1, 95804, Note_on_c, 0, 50, 0
1, 95804, Note_on_c, 0, 60, 77
1, 95818, Note_on_c, 0, 59, 0
1, 95888, Note_on_c, 0, 48, 53
1, 95888, Note_on_c, 0, 53, 62
1, 95972, Note_on_c, 0, 68, 0
1, 95972, Note_on_c, 0, 69, 69
1, 96051, Note_on_c, 0, 53, 0
1, 96051, Note_on_c, 0, 48, 0
1, 96051, Note_on_c, 0, 48, 53
1, 96054, Note_on_c, 0, 53, 62
1, 96130, Note_on_c, 0, 53, 0
1, 96130, Note_on_c, 0, 48, 0
1, 96130, Note_on_c, 0, 59, 74
1, 96144, Note_on_c, 0, 60, 0
1, 96210, Note_on_c, 0, 50, 52
1, 96210, Note_on_c, 0, 53, 60
1, 96289, Note_on_c, 0, 69, 0
1, 96289, Note_on_c, 0, 68, 68
1, 96369, Note_on_c, 0, 53, 0
1, 96369, Note_on_c, 0, 50, 0
1, 96369, Note_on_c, 0, 50, 52
1, 96372, Note_on_c, 0, 53, 60
1, 96449, Note_on_c, 0, 53, 0
1, 96449, Note_on_c, 0, 50, 0
1, 96449, Note_on_c, 0, 60, 72
1, 96463, Note_on_c, 0, 59, 0
1, 96531, Note_on_c, 0, 48, 51
1, 96531, Note_on_c, 0, 53, 58
1, 96612, Note_on_c, 0, 68, 0
1, 96612, Note_on_c, 0, 69, 66
1, 96693, Note_on_c, 0, 53, 0
1, 96693, Note_on_c, 0, 48, 0
1, 96693, Note_on_c, 0, 48, 51
1, 96696, Note_on_c, 0, 53, 58
1, 96774, Note_on_c, 0, 53, 0
1, 96774, Note_on_c, 0, 48, 0
1, 96774, Note_on_c, 0, 59, 71
1, 96788, Note_on_c, 0, 60, 0
1, 96858, Note_on_c, 0, 50, 48
1, 96858, Note_on_c, 0, 53, 56
1, 96942, Note_on_c, 0, 69, 0
1, 96942, Note_on_c, 0, 67, 65
1, 97023, Note_on_c, 0, 53, 0
1, 97023, Note_on_c, 0, 50, 0
1, 97023, Note_on_c, 0, 50, 47
1, 97026, Note_on_c, 0, 53, 55
1, 97104, Note_on_c, 0, 53, 0
1, 97104, Note_on_c, 0, 50, 0
1, 97104, Note_on_c, 0, 60, 69
1, 97118, Note_on_c, 0, 59, 0
1, 97185, Note_on_c, 0, 50, 47
1, 97185, Note_on_c, 0, 53, 55
1, 97267, Note_on_c, 0, 67, 0
1, 97267, Note_on_c, 0, 68, 64
1, 97350, Note_on_c, 0, 53, 0
1, 97350, Note_on_c, 0, 50, 0
1, 97350, Note_on_c, 0, 50, 46
1, 97353, Note_on_c, 0, 53, 54
1, 97433, Note_on_c, 0, 53, 0
1, 97433, Note_on_c, 0, 50, 0
1, 97433, Note_on_c, 0, 59, 63
1, 97446, Note_on_c, 0, 60, 0
1, 97516, Note_on_c, 0, 50, 44
1, 97516, Note_on_c, 0, 53, 51
1, 97601, Note_on_c, 0, 68, 0
1, 97601, Note_on_c, 0, 67, 63
1, 97686, Note_on_c, 0, 53, 0
1, 97686, Note_on_c, 0, 50, 0
1, 97686, Note_on_c, 0, 50, 44
1, 97689, Note_on_c, 0, 53, 51
1, 97788, Note_on_c, 0, 53, 0
1, 97788, Note_on_c, 0, 50, 0
1, 97788, Note_on_c, 0, 59, 0
1, 97791, Note_on_c, 0, 60, 63
1, 97791, Note_on_c, 0, 58, 54
1, 97881, Note_on_c, 0, 48, 40
1, 97881, Note_on_c, 0, 55, 47
1, 97974, Note_on_c, 0, 67, 0
1, 97974, Note_on_c, 0, 64, 57
1, 98061, Note_on_c, 0, 55, 0
1, 98061, Note_on_c, 0, 48, 0
1, 98061, Note_on_c, 0, 48, 40
1, 98064, Note_on_c, 0, 55, 46
1, 98149, Note_on_c, 0, 55, 0
1, 98149, Note_on_c, 0, 60, 0
1, 98149, Note_on_c, 0, 58, 0
1, 98152, Note_on_c, 0, 48, 0
1, 98152, Note_on_c, 0, 60, 58
1, 98152, Note_on_c, 0, 58, 49
1, 98238, Note_on_c, 0, 48, 40
1, 98238, Note_on_c, 0, 54, 46
1, 98329, Note_on_c, 0, 64, 0
1, 98329, Note_on_c, 0, 63, 53
1, 98421, Note_on_c, 0, 54, 0
1, 98421, Note_on_c, 0, 48, 0
1, 98421, Note_on_c, 0, 48, 39
1, 98424, Note_on_c, 0, 54, 45
1, 98514, Note_on_c, 0, 54, 0
1, 98514, Note_on_c, 0, 60, 0
1, 98514, Note_on_c, 0, 58, 0
1, 98517, Note_on_c, 0, 48, 0
1, 98517, Note_on_c, 0, 60, 55
1, 98517, Note_on_c, 0, 58, 46
1, 98610, Note_on_c, 0, 48, 37
1, 98610, Note_on_c, 0, 55, 43
1, 98707, Note_on_c, 0, 63, 0
1, 98707, Note_on_c, 0, 64, 45
1, 98805, Note_on_c, 0, 55, 0
1, 98805, Note_on_c, 0, 48, 0
1, 98805, Note_on_c, 0, 48, 36
1, 98808, Note_on_c, 0, 55, 43
1, 98906, Note_on_c, 0, 55, 0
1, 98906, Note_on_c, 0, 60, 0
1, 98906, Note_on_c, 0, 58, 0
1, 98909, Note_on_c, 0, 48, 0
1, 98909, Note_on_c, 0, 57, 43
1, 98909, Note_on_c, 0, 60, 48
1, 99015, Note_on_c, 0, 48, 31
1, 99015, Note_on_c, 0, 53, 37
1, 99124, Note_on_c, 0, 64, 0
1, 99124, Note_on_c, 0, 65, 44
1, 99173, Control_c, 0, 64, 127
1, 99252, Note_on_c, 0, 53, 0
1, 99252, Note_on_c, 0, 48, 0
1, 99252, Note_on_c, 0, 48, 31
1, 99255, Note_on_c, 0, 53, 36
1, 99381, Note_on_c, 0, 53, 0
1, 99381, Note_on_c, 0, 57, 0
1, 99381, Note_on_c, 0, 60, 0
1, 99384, Note_on_c, 0, 48, 0
1, 99384, Note_on_c, 0, 57, 36
1, 99384, Note_on_c, 0, 60, 41
1, 99540, Note_on_c, 0, 48, 28
1, 99540, Note_on_c, 0, 53, 34
1, 99699, Note_on_c, 0, 65, 0
1, 99699, Note_on_c, 0, 72, 44
1, 100261, Note_on_c, 0, 53, 0
1, 100261, Note_on_c, 0, 48, 0
1, 100261, Note_on_c, 0, 48, 25
1, 100264, Note_on_c, 0, 53, 31
1, 101583, Control_c, 0, 64, 0
1, 101665, Note_on_c, 0, 53, 0
1, 101665, Note_on_c, 0, 57, 0
1, 101665, Note_on_c, 0, 60, 0
1, 101668, Note_on_c, 0, 48, 0
1, 101668, Note_on_c, 0, 72, 0
1, 102414, Control_c, 0, 91, 127
1, 103163, Note_on_c, 0, 66, 57
1, 103229, Note_on_c, 0, 67, 58
1, 103245, Note_on_c, 0, 66, 0
1, 103295, Note_on_c, 0, 69, 60
1, 103311, Note_on_c, 0, 67, 0
1, 103361, Note_on_c, 0, 70, 60
1, 103376, Note_on_c, 0, 69, 0
1, 103424, Note_on_c, 0, 72, 61
1, 103440, Note_on_c, 0, 70, 0
1, 103487, Note_on_c, 0, 74, 62
1, 103503, Note_on_c, 0, 72, 0
1, 103551, Note_on_c, 0, 76, 63
1, 103551, Note_on_c, 0, 36, 64
1, 103566, Note_on_c, 0, 74, 0
1, 103611, Note_on_c, 0, 79, 61
1, 103626, Note_on_c, 0, 76, 0
1, 103641, Note_on_c, 0, 36, 0
1, 103671, Note_on_c, 0, 79, 0
1, 103671, Note_on_c, 0, 72, 61
1, 103729, Note_on_c, 0, 73, 65
1, 103729, Note_on_c, 0, 64, 54
1, 103729, Note_on_c, 0, 60, 54
1, 103744, Note_on_c, 0, 72, 0
1, 103787, Note_on_c, 0, 82, 61
1, 103802, Note_on_c, 0, 73, 0
1, 103816, Note_on_c, 0, 60, 0
1, 103816, Note_on_c, 0, 64, 0
1, 103845, Note_on_c, 0, 82, 0
1, 103845, Note_on_c, 0, 69, 62
1, 103903, Note_on_c, 0, 70, 65
1, 103903, Note_on_c, 0, 40, 65
1, 103918, Note_on_c, 0, 69, 0
1, 103962, Note_on_c, 0, 79, 58
1, 103977, Note_on_c, 0, 70, 0
1, 103992, Note_on_c, 0, 40, 0
1, 104022, Note_on_c, 0, 79, 0
1, 104022, Note_on_c, 0, 66, 58
1, 104081, Note_on_c, 0, 67, 65
1, 104081, Note_on_c, 0, 64, 54
1, 104081, Note_on_c, 0, 60, 54
1, 104095, Note_on_c, 0, 66, 0
1, 104139, Note_on_c, 0, 69, 60
1, 104153, Note_on_c, 0, 67, 0
1, 104168, Note_on_c, 0, 60, 0
1, 104168, Note_on_c, 0, 64, 0
1, 104197, Note_on_c, 0, 70, 60
1, 104211, Note_on_c, 0, 69, 0
1, 104255, Note_on_c, 0, 72, 65
1, 104255, Note_on_c, 0, 43, 68
1, 104270, Note_on_c, 0, 70, 0
1, 104314, Note_on_c, 0, 74, 65
1, 104329, Note_on_c, 0, 72, 0
1, 104344, Note_on_c, 0, 43, 0
1, 104373, Note_on_c, 0, 76, 68
1, 104388, Note_on_c, 0, 74, 0
1, 104433, Note_on_c, 0, 77, 69
1, 104433, Note_on_c, 0, 64, 57
1, 104433, Note_on_c, 0, 60, 57
1, 104447, Note_on_c, 0, 76, 0
1, 104490, Note_on_c, 0, 79, 70
1, 104505, Note_on_c, 0, 77, 0
1, 104519, Note_on_c, 0, 60, 0
1, 104519, Note_on_c, 0, 64, 0
1, 104548, Note_on_c, 0, 81, 70
1, 104563, Note_on_c, 0, 79, 0
1, 104606, Note_on_c, 0, 84, 71
1, 104606, Note_on_c, 0, 48, 69
1, 104621, Note_on_c, 0, 81, 0
1, 104664, Note_on_c, 0, 76, 68
1, 104693, Note_on_c, 0, 48, 0
1, 104722, Note_on_c, 0, 79, 68
1, 104737, Note_on_c, 0, 76, 0
1, 104780, Note_on_c, 0, 82, 69
1, 104780, Note_on_c, 0, 64, 57
1, 104780, Note_on_c, 0, 60, 57
1, 104795, Note_on_c, 0, 79, 0
1, 104838, Note_on_c, 0, 84, 70
1, 104852, Note_on_c, 0, 82, 0
1, 104867, Note_on_c, 0, 60, 0
1, 104867, Note_on_c, 0, 64, 0
1, 104895, Note_on_c, 0, 86, 71
1, 104910, Note_on_c, 0, 84, 0
1, 104953, Note_on_c, 0, 84, 0
1, 104953, Note_on_c, 0, 87, 72
1, 104953, Note_on_c, 0, 52, 71
1, 104967, Note_on_c, 0, 86, 0
1, 105011, Note_on_c, 0, 88, 73
1, 105025, Note_on_c, 0, 87, 0
1, 105040, Note_on_c, 0, 52, 0
1, 105069, Note_on_c, 0, 89, 74
1, 105083, Note_on_c, 0, 88, 0
1, 105126, Note_on_c, 0, 90, 75
1, 105126, Note_on_c, 0, 64, 58
1, 105126, Note_on_c, 0, 60, 58
1, 105141, Note_on_c, 0, 89, 0
1, 105184, Note_on_c, 0, 91, 77
1, 105199, Note_on_c, 0, 90, 0
1, 105214, Note_on_c, 0, 60, 0
1, 105214, Note_on_c, 0, 64, 0
1, 105243, Note_on_c, 0, 93, 78
1, 105257, Note_on_c, 0, 91, 0
1, 105301, Note_on_c, 0, 94, 79
1, 105301, Note_on_c, 0, 55, 73
1, 105315, Note_on_c, 0, 93, 0
1, 105359, Note_on_c, 0, 95, 80
1, 105373, Note_on_c, 0, 94, 0
1, 105388, Note_on_c, 0, 55, 0
1, 105417, Note_on_c, 0, 96, 81
1, 105432, Note_on_c, 0, 95, 0
1, 105475, Note_on_c, 0, 97, 82
1, 105475, Note_on_c, 0, 64, 63
1, 105475, Note_on_c, 0, 60, 63
1, 105490, Note_on_c, 0, 96, 0
1, 105534, Note_on_c, 0, 98, 83
1, 105549, Note_on_c, 0, 97, 0
1, 105563, Note_on_c, 0, 60, 0
1, 105563, Note_on_c, 0, 64, 0
1, 105592, Note_on_c, 0, 100, 84
1, 105607, Note_on_c, 0, 98, 0
1, 105651, Note_on_c, 0, 101, 91
1, 105651, Note_on_c, 0, 41, 73
1, 105666, Note_on_c, 0, 100, 0
1, 105710, Note_on_c, 0, 96, 86
1, 105724, Note_on_c, 0, 101, 0
1, 105768, Note_on_c, 0, 93, 84
1, 105784, Note_on_c, 0, 96, 0
1, 105832, Note_on_c, 0, 93, 0
1, 105832, Note_on_c, 0, 92, 89
1, 105832, Note_on_c, 0, 41, 0
1, 105835, Note_on_c, 0, 62, 78
1, 105835, Note_on_c, 0, 58, 78
1, 105835, Note_on_c, 0, 53, 78
1, 105890, Note_on_c, 0, 98, 82
1, 105949, Note_on_c, 0, 95, 82
1, 105964, Note_on_c, 0, 98, 0
1, 106008, Note_on_c, 0, 95, 0
1, 106008, Note_on_c, 0, 92, 0
1, 106008, Note_on_c, 0, 96, 91
1, 106011, Note_on_c, 0, 58, 0
1, 106011, Note_on_c, 0, 62, 0
1, 106011, Note_on_c, 0, 60, 71
1, 106014, Note_on_c, 0, 57, 71
1, 106069, Note_on_c, 0, 93, 82
1, 106084, Note_on_c, 0, 96, 0
1, 106130, Note_on_c, 0, 89, 82
1, 106147, Note_on_c, 0, 93, 0
1, 106198, Note_on_c, 0, 89, 0
1, 106198, Note_on_c, 0, 86, 88
1, 106198, Note_on_c, 0, 57, 0
1, 106201, Note_on_c, 0, 60, 0
1, 106201, Note_on_c, 0, 53, 0
1, 106201, Note_on_c, 0, 65, 77
1, 106204, Note_on_c, 0, 59, 77
1, 106204, Note_on_c, 0, 68, 77
1, 106258, Note_on_c, 0, 92, 82
1, 106317, Note_on_c, 0, 89, 82
1, 106332, Note_on_c, 0, 92, 0
1, 106377, Note_on_c, 0, 89, 0
1, 106377, Note_on_c, 0, 86, 0
1, 106377, Note_on_c, 0, 93, 87
1, 106380, Note_on_c, 0, 68, 0
1, 106380, Note_on_c, 0, 59, 0
1, 106380, Note_on_c, 0, 65, 0
1, 106383, Note_on_c, 0, 60, 69
1, 106383, Note_on_c, 0, 69, 69
1, 106439, Note_on_c, 0, 89, 82
1, 106454, Note_on_c, 0, 93, 0
1, 106500, Note_on_c, 0, 84, 82
1, 106516, Note_on_c, 0, 89, 0
1, 106566, Note_on_c, 0, 84, 0
1, 106566, Note_on_c, 0, 92, 88
1, 106566, Note_on_c, 0, 69, 0
1, 106569, Note_on_c, 0, 60, 0
1, 106569, Note_on_c, 0, 65, 78
1, 106569, Note_on_c, 0, 71, 78
1, 106572, Note_on_c, 0, 74, 78
1, 106625, Note_on_c, 0, 86, 82
1, 106640, Note_on_c, 0, 92, 0
1, 106684, Note_on_c, 0, 83, 82
1, 106699, Note_on_c, 0, 86, 0
1, 106743, Note_on_c, 0, 83, 0
1, 106743, Note_on_c, 0, 84, 88
1, 106743, Note_on_c, 0, 74, 0
1, 106746, Note_on_c, 0, 71, 0
1, 106746, Note_on_c, 0, 69, 70
1, 106746, Note_on_c, 0, 72, 70
1, 106746, Control_c, 0, 64, 127
1, 106803, Note_on_c, 0, 84, 0
1, 106803, Note_on_c, 0, 81, 75
1, 106863, Note_on_c, 0, 81, 0
1, 106863, Note_on_c, 0, 77, 75
1, 106927, Note_on_c, 0, 77, 0
1, 106927, Note_on_c, 0, 76, 69
1, 106927, Note_on_c, 0, 84, 80
1, 106930, Note_on_c, 0, 72, 0
1, 106930, Note_on_c, 0, 69, 0
1, 106930, Note_on_c, 0, 65, 0
1, 106934, Control_c, 0, 64, 0
1, 106987, Note_on_c, 0, 84, 0
1, 106987, Note_on_c, 0, 81, 60
1, 106987, Note_on_c, 0, 84, 70
1, 106990, Control_c, 0, 64, 127
1, 107018, Note_on_c, 0, 76, 0
1, 107048, Note_on_c, 0, 84, 0
1, 107048, Note_on_c, 0, 81, 0
1, 107048, Note_on_c, 0, 72, 70
1, 107109, Note_on_c, 0, 72, 0
1, 107109, Note_on_c, 0, 71, 64
1, 107109, Note_on_c, 0, 81, 74
1, 107116, Control_c, 0, 64, 0
1, 107170, Note_on_c, 0, 81, 0
1, 107170, Note_on_c, 0, 72, 58
1, 107170, Note_on_c, 0, 77, 68
1, 107173, Control_c, 0, 64, 127
1, 107200, Note_on_c, 0, 71, 0
1, 107231, Note_on_c, 0, 77, 0
1, 107231, Note_on_c, 0, 72, 0
1, 107231, Note_on_c, 0, 69, 66
1, 107292, Note_on_c, 0, 69, 0
1, 107292, Note_on_c, 0, 68, 64
1, 107292, Note_on_c, 0, 77, 74
1, 107299, Control_c, 0, 64, 0
1, 107354, Note_on_c, 0, 77, 0
1, 107354, Note_on_c, 0, 72, 64
1, 107354, Note_on_c, 0, 69, 55
1, 107359, Control_c, 0, 64, 127
1, 107385, Note_on_c, 0, 68, 0
1, 107416, Note_on_c, 0, 69, 0
1, 107416, Note_on_c, 0, 72, 0
1, 107416, Note_on_c, 0, 65, 64
1, 107478, Note_on_c, 0, 65, 0
1, 107478, Note_on_c, 0, 72, 69
1, 107478, Note_on_c, 0, 64, 58
1, 107486, Control_c, 0, 64, 0
1, 107540, Note_on_c, 0, 72, 0
1, 107540, Note_on_c, 0, 65, 52
1, 107540, Note_on_c, 0, 69, 61
1, 107549, Control_c, 0, 64, 127
1, 107571, Note_on_c, 0, 64, 0
1, 107602, Note_on_c, 0, 69, 0
1, 107602, Note_on_c, 0, 65, 0
1, 107602, Note_on_c, 0, 60, 60
1, 107665, Note_on_c, 0, 60, 0
1, 107665, Note_on_c, 0, 59, 55
1, 107665, Note_on_c, 0, 69, 64
1, 107673, Control_c, 0, 64, 0
1, 107728, Note_on_c, 0, 69, 0
1, 107728, Note_on_c, 0, 60, 49
1, 107728, Note_on_c, 0, 65, 57
1, 107735, Control_c, 0, 64, 127
1, 107759, Note_on_c, 0, 59, 0
1, 107791, Note_on_c, 0, 65, 0
1, 107791, Note_on_c, 0, 60, 0
1, 107791, Note_on_c, 0, 57, 58
1, 107854, Note_on_c, 0, 57, 0
1, 107854, Note_on_c, 0, 67, 72
1, 107854, Control_c, 0, 64, 0
1, 107857, Note_on_c, 0, 47, 69
1, 107918, Note_on_c, 0, 67, 0
1, 107918, Note_on_c, 0, 62, 65
1, 107981, Note_on_c, 0, 63, 65
1, 107996, Note_on_c, 0, 62, 0
1, 108041, Note_on_c, 0, 64, 66
1, 108041, Note_on_c, 0, 59, 54
1, 108041, Note_on_c, 0, 55, 46
1, 108056, Note_on_c, 0, 63, 0
1, 108101, Note_on_c, 0, 65, 66
1, 108116, Note_on_c, 0, 64, 0
1, 108131, Note_on_c, 0, 55, 0
1, 108131, Note_on_c, 0, 59, 0
1, 108161, Note_on_c, 0, 66, 68
1, 108176, Note_on_c, 0, 65, 0
1, 108221, Note_on_c, 0, 67, 68
1, 108221, Note_on_c, 0, 47, 0
1, 108221, Note_on_c, 0, 50, 70
1, 108236, Note_on_c, 0, 66, 0
1, 108281, Note_on_c, 0, 68, 69
1, 108296, Note_on_c, 0, 67, 0
1, 108341, Note_on_c, 0, 69, 69
1, 108355, Note_on_c, 0, 68, 0
1, 108400, Note_on_c, 0, 70, 70
1, 108400, Note_on_c, 0, 59, 47
1, 108400, Note_on_c, 0, 62, 55
1, 108415, Note_on_c, 0, 69, 0
1, 108459, Note_on_c, 0, 71, 70
1, 108474, Note_on_c, 0, 70, 0
1, 108489, Note_on_c, 0, 62, 0
1, 108489, Note_on_c, 0, 59, 0
1, 108518, Note_on_c, 0, 72, 71
1, 108533, Note_on_c, 0, 71, 0
1, 108577, Note_on_c, 0, 73, 71
1, 108577, Note_on_c, 0, 50, 0
1, 108577, Note_on_c, 0, 55, 71
1, 108592, Note_on_c, 0, 72, 0
1, 108635, Note_on_c, 0, 74, 72
1, 108650, Note_on_c, 0, 73, 0
1, 108694, Note_on_c, 0, 75, 72
1, 108708, Note_on_c, 0, 74, 0
1, 108752, Note_on_c, 0, 76, 73
1, 108752, Note_on_c, 0, 62, 57
1, 108752, Note_on_c, 0, 59, 49
1, 108767, Note_on_c, 0, 75, 0
1, 108810, Note_on_c, 0, 77, 73
1, 108825, Note_on_c, 0, 76, 0
1, 108839, Note_on_c, 0, 59, 0
1, 108839, Note_on_c, 0, 62, 0
1, 108868, Note_on_c, 0, 78, 74
1, 108882, Note_on_c, 0, 77, 0
1, 108925, Note_on_c, 0, 79, 74
1, 108925, Note_on_c, 0, 55, 0
1, 108925, Note_on_c, 0, 48, 71
1, 108940, Note_on_c, 0, 78, 0
1, 108983, Note_on_c, 0, 79, 0
1, 108983, Note_on_c, 0, 72, 77
1, 109041, Note_on_c, 0, 73, 77
1, 109055, Note_on_c, 0, 72, 0
1, 109098, Note_on_c, 0, 74, 78
1, 109098, Note_on_c, 0, 60, 58
1, 109098, Note_on_c, 0, 58, 51
1, 109113, Note_on_c, 0, 73, 0
1, 109156, Note_on_c, 0, 75, 79
1, 109170, Note_on_c, 0, 74, 0
1, 109213, Note_on_c, 0, 76, 79
1, 109228, Note_on_c, 0, 75, 0
1, 109271, Note_on_c, 0, 77, 80
1, 109271, Note_on_c, 0, 58, 0
1, 109271, Note_on_c, 0, 60, 0
1, 109274, Note_on_c, 0, 48, 0
1, 109274, Note_on_c, 0, 52, 73
1, 109285, Note_on_c, 0, 76, 0
1, 109328, Note_on_c, 0, 78, 81
1, 109342, Note_on_c, 0, 77, 0
1, 109385, Note_on_c, 0, 79, 81
1, 109399, Note_on_c, 0, 78, 0
1, 109442, Note_on_c, 0, 80, 82
1, 109442, Note_on_c, 0, 60, 61
1, 109442, Note_on_c, 0, 58, 52
1, 109457, Note_on_c, 0, 79, 0
1, 109500, Note_on_c, 0, 81, 83
1, 109514, Note_on_c, 0, 80, 0
1, 109557, Note_on_c, 0, 82, 83
1, 109572, Note_on_c, 0, 81, 0
1, 109615, Note_on_c, 0, 83, 83
1, 109615, Note_on_c, 0, 58, 0
1, 109615, Note_on_c, 0, 60, 0
1, 109618, Note_on_c, 0, 52, 0
1, 109618, Note_on_c, 0, 55, 77
1, 109630, Note_on_c, 0, 82, 0
1, 109674, Note_on_c, 0, 84, 84
1, 109688, Note_on_c, 0, 83, 0
1, 109732, Note_on_c, 0, 85, 86
1, 109747, Note_on_c, 0, 84, 0
1, 109791, Note_on_c, 0, 86, 88
1, 109791, Note_on_c, 0, 60, 65
1, 109791, Note_on_c, 0, 58, 56
1, 109806, Note_on_c, 0, 85, 0
1, 109850, Note_on_c, 0, 87, 89
1, 109865, Note_on_c, 0, 86, 0
1, 109910, Note_on_c, 0, 88, 90
1, 109925, Note_on_c, 0, 87, 0
1, 109970, Note_on_c, 0, 89, 92
1, 109970, Note_on_c, 0, 58, 0
1, 109970, Note_on_c, 0, 60, 0
1, 109973, Note_on_c, 0, 55, 0
1, 109973, Note_on_c, 0, 53, 56
1, 109973, Note_on_c, 0, 60, 71
1, 109976, Note_on_c, 0, 57, 56
1, 109986, Note_on_c, 0, 88, 0
1, 109994, Control_c, 0, 64, 127
1, 110033, Note_on_c, 0, 89, 0
1, 110033, Note_on_c, 0, 84, 87
1, 110065, Note_on_c, 0, 57, 0
1, 110065, Note_on_c, 0, 60, 0
1, 110065, Note_on_c, 0, 53, 0
1, 110097, Note_on_c, 0, 84, 0
1, 110097, Note_on_c, 0, 81, 87
1, 110164, Note_on_c, 0, 81, 0
1, 110164, Note_on_c, 0, 80, 91
1, 110164, Note_on_c, 0, 53, 56
1, 110167, Note_on_c, 0, 56, 56
1, 110167, Note_on_c, 0, 61, 71
1, 110167, Control_c, 0, 64, 0
1, 110186, Control_c, 0, 64, 127
1, 110231, Note_on_c, 0, 80, 0
1, 110231, Note_on_c, 0, 85, 87
1, 110272, Note_on_c, 0, 61, 0
1, 110272, Note_on_c, 0, 56, 0
1, 110272, Note_on_c, 0, 53, 0
1, 110314, Note_on_c, 0, 85, 0
1, 110314, Note_on_c, 0, 89, 87
1, 110396, Note_on_c, 0, 89, 0
1, 110396, Note_on_c, 0, 101, 95
1, 110396, Note_on_c, 0, 56, 60
1, 110399, Note_on_c, 0, 62, 75
1, 110399, Note_on_c, 0, 59, 60
1, 110399, Note_on_c, 0, 53, 60
1, 110399, Control_c, 0, 64, 0
1, 110440, Control_c, 0, 64, 127
1, 110457, Note_on_c, 0, 101, 0
1, 110457, Note_on_c, 0, 95, 89
1, 110518, Note_on_c, 0, 95, 0
1, 110518, Note_on_c, 0, 92, 89
1, 110578, Note_on_c, 0, 92, 0
1, 110578, Note_on_c, 0, 89, 88
1, 110638, Note_on_c, 0, 89, 0
1, 110638, Note_on_c, 0, 86, 87
1, 110698, Note_on_c, 0, 86, 0
1, 110698, Note_on_c, 0, 83, 86
1, 110758, Note_on_c, 0, 83, 0
1, 110758, Note_on_c, 0, 80, 86
1, 110818, Note_on_c, 0, 80, 0
1, 110818, Note_on_c, 0, 77, 84
1, 110877, Note_on_c, 0, 77, 0
1, 110877, Note_on_c, 0, 74, 83
1, 110936, Note_on_c, 0, 74, 0
1, 110936, Note_on_c, 0, 71, 82
1, 110936, Note_on_c, 0, 56, 0
1, 110939, Note_on_c, 0, 55, 63
1, 110995, Note_on_c, 0, 71, 0
1, 110995, Note_on_c, 0, 68, 82
1, 111054, Note_on_c, 0, 68, 0
1, 111054, Note_on_c, 0, 65, 81
1, 111113, Note_on_c, 0, 65, 0
1, 111113, Note_on_c, 0, 72, 82
1, 111113, Note_on_c, 0, 62, 0
1, 111116, Note_on_c, 0, 53, 0
1, 111116, Note_on_c, 0, 59, 0
1, 111116, Note_on_c, 0, 52, 58
1, 111119, Note_on_c, 0, 60, 68
1, 111119, Control_c, 0, 64, 0
1, 111172, Note_on_c, 0, 72, 0
1, 111172, Note_on_c, 0, 67, 75
1, 111231, Note_on_c, 0, 68, 75
1, 111245, Note_on_c, 0, 67, 0
1, 111289, Note_on_c, 0, 69, 81
1, 111304, Note_on_c, 0, 68, 0
1, 111347, Note_on_c, 0, 70, 75
1, 111362, Note_on_c, 0, 69, 0
1, 111405, Note_on_c, 0, 71, 75
1, 111420, Note_on_c, 0, 70, 0
1, 111463, Note_on_c, 0, 72, 78
1, 111463, Note_on_c, 0, 60, 0
1, 111463, Note_on_c, 0, 52, 0
1, 111466, Note_on_c, 0, 55, 0
1, 111478, Note_on_c, 0, 71, 0
1, 111521, Note_on_c, 0, 73, 77
1, 111536, Note_on_c, 0, 72, 0
1, 111580, Note_on_c, 0, 74, 75
1, 111594, Note_on_c, 0, 73, 0
1, 111638, Note_on_c, 0, 75, 74
1, 111653, Note_on_c, 0, 74, 0
1, 111697, Note_on_c, 0, 76, 73
1, 111712, Note_on_c, 0, 75, 0
1, 111756, Note_on_c, 0, 77, 72
1, 111771, Note_on_c, 0, 76, 0
1, 111817, Note_on_c, 0, 77, 0
1, 111817, Note_on_c, 0, 78, 70
1, 111817, Note_on_c, 0, 84, 71
1, 111820, Note_on_c, 0, 57, 68
1, 111824, Control_c, 0, 64, 127
1, 111882, Note_on_c, 0, 78, 0
1, 111882, Note_on_c, 0, 79, 69
1, 111948, Note_on_c, 0, 79, 0
1, 111948, Note_on_c, 0, 81, 68
1, 112017, Note_on_c, 0, 81, 0
1, 112017, Note_on_c, 0, 82, 66
1, 112017, Note_on_c, 0, 75, 51
1, 112020, Note_on_c, 0, 72, 44
1, 112020, Note_on_c, 0, 66, 44
1, 112089, Note_on_c, 0, 82, 0
1, 112089, Note_on_c, 0, 84, 65
1, 112162, Note_on_c, 0, 84, 0
1, 112162, Note_on_c, 0, 86, 64
1, 112239, Note_on_c, 0, 86, 0
1, 112239, Note_on_c, 0, 84, 0
1, 112239, Note_on_c, 0, 84, 64
1, 112242, Note_on_c, 0, 88, 64
1, 112242, Note_on_c, 0, 66, 0
1, 112242, Note_on_c, 0, 57, 0
1, 112245, Note_on_c, 0, 75, 0
1, 112245, Note_on_c, 0, 72, 0
1, 112245, Note_on_c, 0, 58, 71
1, 112248, Control_c, 0, 64, 0
1, 112270, Control_c, 0, 64, 127
1, 112301, Note_on_c, 0, 88, 0
1, 112301, Note_on_c, 0, 91, 66
1, 112363, Note_on_c, 0, 91, 0
1, 112363, Note_on_c, 0, 84, 66
1, 112426, Note_on_c, 0, 84, 0
1, 112426, Note_on_c, 0, 84, 0
1, 112426, Note_on_c, 0, 85, 62
1, 112429, Note_on_c, 0, 76, 54
1, 112429, Note_on_c, 0, 72, 46
1, 112429, Note_on_c, 0, 67, 46
1, 112488, Note_on_c, 0, 85, 0
1, 112488, Note_on_c, 0, 94, 54
1, 112551, Note_on_c, 0, 94, 0
1, 112551, Note_on_c, 0, 81, 55
1, 112613, Note_on_c, 0, 81, 0
1, 112613, Note_on_c, 0, 82, 61
1, 112613, Note_on_c, 0, 67, 0
1, 112616, Note_on_c, 0, 58, 0
1, 112616, Note_on_c, 0, 76, 0
1, 112616, Note_on_c, 0, 72, 0
1, 112619, Note_on_c, 0, 64, 72
1, 112619, Control_c, 0, 64, 0
1, 112648, Control_c, 0, 64, 127
1, 112674, Note_on_c, 0, 82, 0
1, 112674, Note_on_c, 0, 91, 55
1, 112735, Note_on_c, 0, 91, 0
1, 112735, Note_on_c, 0, 78, 55
1, 112796, Note_on_c, 0, 78, 0
1, 112796, Note_on_c, 0, 79, 61
1, 112796, Note_on_c, 0, 70, 46
1, 112799, Note_on_c, 0, 72, 46
1, 112799, Note_on_c, 0, 76, 54
1, 112857, Note_on_c, 0, 79, 0
1, 112857, Note_on_c, 0, 81, 55
1, 112917, Note_on_c, 0, 81, 0
1, 112917, Note_on_c, 0, 82, 55
1, 112978, Note_on_c, 0, 82, 0
1, 112978, Note_on_c, 0, 84, 61
1, 112978, Note_on_c, 0, 76, 0
1, 112981, Note_on_c, 0, 64, 0
1, 112981, Note_on_c, 0, 70, 0
1, 112981, Note_on_c, 0, 72, 0
1, 112984, Note_on_c, 0, 67, 75
1, 112984, Control_c, 0, 64, 0
1, 112996, Control_c, 0, 64, 127
1, 113041, Note_on_c, 0, 84, 0
1, 113041, Note_on_c, 0, 86, 55
1, 113105, Note_on_c, 0, 86, 0
1, 113105, Note_on_c, 0, 88, 55
1, 113168, Note_on_c, 0, 88, 0
1, 113168, Note_on_c, 0, 89, 58
1, 113168, Note_on_c, 0, 70, 46
1, 113171, Note_on_c, 0, 72, 46
1, 113171, Note_on_c, 0, 76, 54
1, 113231, Note_on_c, 0, 89, 0
1, 113231, Note_on_c, 0, 91, 55
1, 113294, Note_on_c, 0, 91, 0
1, 113294, Note_on_c, 0, 93, 55
1, 113342, Control_c, 0, 64, 0
1, 113357, Note_on_c, 0, 93, 0
1, 113357, Note_on_c, 0, 96, 65
1, 113357, Note_on_c, 0, 67, 0
1, 113360, Note_on_c, 0, 67, 75
1, 113391, Control_c, 0, 64, 127
1, 113421, Note_on_c, 0, 96, 0
1, 113421, Note_on_c, 0, 94, 55
1, 113484, Note_on_c, 0, 94, 0
1, 113484, Note_on_c, 0, 91, 55
1, 113547, Note_on_c, 0, 91, 0
1, 113547, Note_on_c, 0, 88, 62
1, 113547, Note_on_c, 0, 70, 0
1, 113550, Note_on_c, 0, 76, 0
1, 113550, Note_on_c, 0, 72, 0
1, 113550, Note_on_c, 0, 72, 53
1, 113553, Note_on_c, 0, 76, 62
1, 113610, Note_on_c, 0, 88, 0
1, 113610, Note_on_c, 0, 84, 62
1, 113673, Note_on_c, 0, 84, 0
1, 113673, Note_on_c, 0, 86, 63
1, 113737, Note_on_c, 0, 86, 0
1, 113737, Note_on_c, 0, 87, 63
1, 113737, Note_on_c, 0, 76, 0
1, 113740, Note_on_c, 0, 72, 0
1, 113740, Note_on_c, 0, 72, 53
1, 113740, Note_on_c, 0, 76, 62
1, 113798, Note_on_c, 0, 87, 0
1, 113798, Note_on_c, 0, 88, 64
1, 113859, Note_on_c, 0, 88, 0
1, 113859, Note_on_c, 0, 89, 66
1, 113921, Note_on_c, 0, 89, 0
1, 113921, Note_on_c, 0, 90, 69
1, 113921, Note_on_c, 0, 76, 0
1, 113924, Note_on_c, 0, 72, 0
1, 113924, Note_on_c, 0, 72, 53
1, 113924, Note_on_c, 0, 76, 62
1, 113982, Note_on_c, 0, 90, 0
1, 113982, Note_on_c, 0, 91, 70
1, 114043, Note_on_c, 0, 91, 0
1, 114043, Note_on_c, 0, 93, 72
1, 114105, Note_on_c, 0, 93, 0
1, 114105, Note_on_c, 0, 94, 74
1, 114105, Note_on_c, 0, 76, 0
1, 114108, Note_on_c, 0, 72, 0
1, 114108, Note_on_c, 0, 67, 0
1, 114108, Note_on_c, 0, 70, 72
1, 114113, Control_c, 0, 64, 0
1, 114139, Control_c, 0, 64, 127
1, 114169, Note_on_c, 0, 94, 0
1, 114169, Note_on_c, 0, 95, 75
1, 114232, Note_on_c, 0, 95, 0
1, 114232, Note_on_c, 0, 96, 78
1, 114296, Note_on_c, 0, 96, 0
1, 114296, Note_on_c, 0, 97, 80
1, 114296, Note_on_c, 0, 72, 53
1, 114299, Note_on_c, 0, 76, 62
1, 114357, Note_on_c, 0, 97, 0
1, 114357, Note_on_c, 0, 98, 81
1, 114418, Note_on_c, 0, 98, 0
1, 114418, Note_on_c, 0, 100, 83
1, 114479, Note_on_c, 0, 100, 0
1, 114479, Note_on_c, 0, 101, 86
1, 114479, Note_on_c, 0, 76, 0
1, 114482, Note_on_c, 0, 70, 0
1, 114482, Note_on_c, 0, 69, 53
1, 114482, Note_on_c, 0, 77, 62
1, 114482, Control_c, 0, 64, 0
1, 114503, Control_c, 0, 64, 127
1, 114540, Note_on_c, 0, 101, 0
1, 114540, Note_on_c, 0, 96, 72
1, 114602, Note_on_c, 0, 96, 0
1, 114602, Note_on_c, 0, 93, 73
1, 114663, Note_on_c, 0, 93, 0
1, 114663, Note_on_c, 0, 92, 81
1, 114663, Note_on_c, 0, 77, 0
1, 114666, Note_on_c, 0, 69, 0
1, 114666, Note_on_c, 0, 72, 0
1, 114666, Note_on_c, 0, 68, 53
1, 114669, Note_on_c, 0, 65, 53
1, 114669, Note_on_c, 0, 71, 62
1, 114669, Note_on_c, 0, 74, 72
1, 114672, Control_c, 0, 64, 0
1, 114686, Control_c, 0, 64, 127
1, 114724, Note_on_c, 0, 92, 0
1, 114724, Note_on_c, 0, 95, 70
1, 114785, Note_on_c, 0, 95, 0
1, 114785, Note_on_c, 0, 98, 70
1, 114846, Note_on_c, 0, 98, 0
1, 114846, Note_on_c, 0, 96, 77
1, 114846, Note_on_c, 0, 74, 0
1, 114849, Note_on_c, 0, 71, 0
1, 114849, Note_on_c, 0, 69, 54
1, 114849, Note_on_c, 0, 72, 63
1, 114853, Control_c, 0, 64, 0
1, 114874, Control_c, 0, 64, 127
1, 114907, Note_on_c, 0, 96, 0
1, 114907, Note_on_c, 0, 93, 70
1, 114968, Note_on_c, 0, 93, 0
1, 114968, Note_on_c, 0, 89, 70
1, 115030, Note_on_c, 0, 89, 0
1, 115030, Note_on_c, 0, 94, 73
1, 115030, Note_on_c, 0, 72, 0
1, 115033, Note_on_c, 0, 68, 0
1, 115033, Note_on_c, 0, 65, 0
1, 115033, Note_on_c, 0, 69, 0
1, 115036, Note_on_c, 0, 88, 65
1, 115036, Note_on_c, 0, 79, 56
1, 115042, Control_c, 0, 64, 0
1, 115073, Note_on_c, 0, 79, 0
1, 115073, Note_on_c, 0, 88, 0
1, 115088, Note_on_c, 0, 100, 68
1, 115147, Note_on_c, 0, 100, 0
1, 115147, Note_on_c, 0, 88, 68
1, 115205, Note_on_c, 0, 88, 0
1, 115205, Note_on_c, 0, 94, 0
1, 115205, Note_on_c, 0, 93, 72
1, 115208, Note_on_c, 0, 86, 74
1, 115208, Note_on_c, 0, 77, 64
1, 115249, Note_on_c, 0, 77, 0
1, 115249, Note_on_c, 0, 86, 0
1, 115264, Note_on_c, 0, 98, 66
1, 115322, Note_on_c, 0, 98, 0
1, 115322, Note_on_c, 0, 86, 66
1, 115381, Note_on_c, 0, 86, 0
1, 115381, Note_on_c, 0, 93, 0
1, 115381, Note_on_c, 0, 91, 71
1, 115384, Note_on_c, 0, 84, 73
1, 115384, Note_on_c, 0, 76, 63
1, 115424, Note_on_c, 0, 76, 0
1, 115424, Note_on_c, 0, 84, 0
1, 115439, Note_on_c, 0, 96, 65
1, 115499, Note_on_c, 0, 96, 0
1, 115499, Note_on_c, 0, 84, 65
1, 115560, Note_on_c, 0, 84, 0
1, 115560, Note_on_c, 0, 91, 0
1, 115560, Note_on_c, 0, 89, 69
1, 115563, Note_on_c, 0, 82, 72
1, 115563, Note_on_c, 0, 74, 62
1, 115604, Note_on_c, 0, 74, 0
1, 115604, Note_on_c, 0, 82, 0
1, 115618, Note_on_c, 0, 94, 63
1, 115677, Note_on_c, 0, 94, 0
1, 115677, Note_on_c, 0, 82, 63
1, 115735, Note_on_c, 0, 82, 0
1, 115735, Note_on_c, 0, 89, 0
1, 115735, Note_on_c, 0, 88, 68
1, 115738, Note_on_c, 0, 81, 70
1, 115738, Note_on_c, 0, 72, 60
1, 115779, Note_on_c, 0, 72, 0
1, 115779, Note_on_c, 0, 81, 0
1, 115794, Note_on_c, 0, 93, 63
1, 115852, Note_on_c, 0, 93, 0
1, 115852, Note_on_c, 0, 81, 63
1, 115911, Note_on_c, 0, 81, 0
1, 115911, Note_on_c, 0, 88, 0
1, 115911, Note_on_c, 0, 86, 66
1, 115914, Note_on_c, 0, 79, 69
1, 115914, Note_on_c, 0, 70, 58
1, 115955, Note_on_c, 0, 70, 0
1, 115955, Note_on_c, 0, 79, 0
1, 115969, Note_on_c, 0, 91, 62
1, 116028, Note_on_c, 0, 91, 0
1, 116028, Note_on_c, 0, 79, 62
1, 116086, Note_on_c, 0, 79, 0
1, 116086, Note_on_c, 0, 86, 0
1, 116086, Note_on_c, 0, 84, 64
1, 116089, Note_on_c, 0, 77, 68
1, 116089, Note_on_c, 0, 69, 58
1, 116130, Note_on_c, 0, 69, 0
1, 116130, Note_on_c, 0, 77, 0
1, 116145, Note_on_c, 0, 89, 60
1, 116204, Note_on_c, 0, 89, 0
1, 116204, Note_on_c, 0, 77, 60
1, 116263, Note_on_c, 0, 77, 0
1, 116263, Note_on_c, 0, 84, 0
1, 116263, Note_on_c, 0, 83, 63
1, 116266, Note_on_c, 0, 74, 65
1, 116266, Note_on_c, 0, 68, 56
1, 116307, Note_on_c, 0, 68, 0
1, 116307, Note_on_c, 0, 74, 0
1, 116322, Note_on_c, 0, 89, 58
1, 116382, Note_on_c, 0, 89, 0
1, 116382, Note_on_c, 0, 77, 58
1, 116441, Note_on_c, 0, 77, 0
1, 116441, Note_on_c, 0, 83, 0
1, 116441, Note_on_c, 0, 84, 62
1, 116444, Note_on_c, 0, 69, 55
1, 116444, Note_on_c, 0, 72, 64
1, 116486, Note_on_c, 0, 72, 0
1, 116486, Note_on_c, 0, 69, 0
1, 116501, Note_on_c, 0, 89, 57
1, 116561, Note_on_c, 0, 89, 0
1, 116561, Note_on_c, 0, 77, 57
1, 116622, Note_on_c, 0, 77, 0
1, 116622, Note_on_c, 0, 84, 0
1, 116622, Note_on_c, 0, 86, 66
1, 116625, Note_on_c, 0, 67, 55
1, 116625, Note_on_c, 0, 71, 64
1, 116682, Note_on_c, 0, 86, 0
1, 116682, Note_on_c, 0, 79, 57
1, 116742, Note_on_c, 0, 80, 58
1, 116758, Note_on_c, 0, 79, 0
1, 116803, Note_on_c, 0, 81, 58
1, 116803, Note_on_c, 0, 71, 0
1, 116803, Note_on_c, 0, 67, 0
1, 116806, Note_on_c, 0, 62, 56
1, 116806, Note_on_c, 0, 74, 65
1, 116818, Note_on_c, 0, 80, 0
1, 116863, Note_on_c, 0, 82, 60
1, 116878, Note_on_c, 0, 81, 0
1, 116893, Note_on_c, 0, 74, 0
1, 116893, Note_on_c, 0, 62, 0
1, 116923, Note_on_c, 0, 83, 61
1, 116938, Note_on_c, 0, 82, 0
1, 116983, Note_on_c, 0, 84, 62
1, 116983, Note_on_c, 0, 59, 57
1, 116983, Note_on_c, 0, 71, 66
1, 116998, Note_on_c, 0, 83, 0
1, 117042, Note_on_c, 0, 85, 63
1, 117057, Note_on_c, 0, 84, 0
1, 117072, Note_on_c, 0, 71, 0
1, 117072, Note_on_c, 0, 59, 0
1, 117102, Note_on_c, 0, 86, 64
1, 117117, Note_on_c, 0, 85, 0
1, 117161, Note_on_c, 0, 87, 65
1, 117161, Note_on_c, 0, 55, 58
1, 117161, Note_on_c, 0, 67, 68
1, 117176, Note_on_c, 0, 86, 0
1, 117221, Note_on_c, 0, 88, 65
1, 117235, Note_on_c, 0, 87, 0
1, 117250, Note_on_c, 0, 67, 0
1, 117250, Note_on_c, 0, 55, 0
1, 117280, Note_on_c, 0, 89, 66
1, 117295, Note_on_c, 0, 88, 0
1, 117339, Note_on_c, 0, 90, 69
1, 117339, Note_on_c, 0, 65, 69
1, 117339, Note_on_c, 0, 53, 58
1, 117354, Note_on_c, 0, 89, 0
1, 117398, Note_on_c, 0, 91, 70
1, 117412, Note_on_c, 0, 90, 0
1, 117427, Note_on_c, 0, 53, 0
1, 117427, Note_on_c, 0, 65, 0
1, 117456, Note_on_c, 0, 92, 71
1, 117471, Note_on_c, 0, 91, 0
1, 117515, Note_on_c, 0, 93, 72
1, 117515, Note_on_c, 0, 62, 72
1, 117515, Note_on_c, 0, 50, 61
1, 117530, Note_on_c, 0, 92, 0
1, 117574, Note_on_c, 0, 94, 73
1, 117588, Note_on_c, 0, 93, 0
1, 117603, Note_on_c, 0, 50, 0
1, 117603, Note_on_c, 0, 62, 0
1, 117632, Note_on_c, 0, 95, 73
1, 117647, Note_on_c, 0, 94, 0
1, 117690, Note_on_c, 0, 96, 74
1, 117690, Note_on_c, 0, 48, 62
1, 117690, Note_on_c, 0, 60, 73
1, 117705, Note_on_c, 0, 95, 0
1, 117749, Note_on_c, 0, 96, 0
1, 117749, Note_on_c, 0, 84, 75
1, 117778, Note_on_c, 0, 60, 0
1, 117778, Note_on_c, 0, 48, 0
1, 117807, Note_on_c, 0, 85, 77
1, 117821, Note_on_c, 0, 84, 0
1, 117865, Note_on_c, 0, 86, 78
1, 117865, Note_on_c, 0, 43, 64
1, 117865, Note_on_c, 0, 55, 74
1, 117880, Note_on_c, 0, 85, 0
1, 117924, Note_on_c, 0, 87, 79
1, 117938, Note_on_c, 0, 86, 0
1, 117953, Note_on_c, 0, 55, 0
1, 117953, Note_on_c, 0, 43, 0
1, 117982, Note_on_c, 0, 88, 80
1, 117997, Note_on_c, 0, 87, 0
1, 118041, Note_on_c, 0, 89, 80
1, 118041, Note_on_c, 0, 40, 66
1, 118041, Note_on_c, 0, 52, 78
1, 118055, Note_on_c, 0, 88, 0
1, 118099, Note_on_c, 0, 90, 80
1, 118114, Note_on_c, 0, 89, 0
1, 118128, Note_on_c, 0, 52, 0
1, 118128, Note_on_c, 0, 40, 0
1, 118158, Note_on_c, 0, 91, 81
1, 118172, Note_on_c, 0, 90, 0
1, 118217, Note_on_c, 0, 92, 82
1, 118217, Note_on_c, 0, 36, 69
1, 118217, Note_on_c, 0, 48, 80
1, 118231, Note_on_c, 0, 91, 0
1, 118275, Note_on_c, 0, 93, 83
1, 118290, Note_on_c, 0, 92, 0
1, 118305, Note_on_c, 0, 48, 0
1, 118305, Note_on_c, 0, 36, 0
1, 118334, Note_on_c, 0, 94, 84
1, 118349, Note_on_c, 0, 93, 0
1, 118393, Note_on_c, 0, 95, 86
1, 118393, Note_on_c, 0, 34, 72
1, 118393, Note_on_c, 0, 46, 83
1, 118408, Note_on_c, 0, 94, 0
1, 118415, Control_c, 0, 64, 127
1, 118452, Note_on_c, 0, 95, 0
1, 118452, Note_on_c, 0, 96, 87
1, 118482, Note_on_c, 0, 46, 0
1, 118482, Note_on_c, 0, 34, 0
1, 118512, Note_on_c, 0, 96, 0
1, 118512, Note_on_c, 0, 97, 88
1, 118572, Note_on_c, 0, 97, 0
1, 118572, Note_on_c, 0, 98, 89
1, 118572, Note_on_c, 0, 31, 74
1, 118575, Note_on_c, 0, 43, 87
1, 118633, Note_on_c, 0, 98, 0
1, 118633, Note_on_c, 0, 99, 89
1, 118663, Note_on_c, 0, 43, 0
1, 118663, Note_on_c, 0, 31, 0
1, 118694, Note_on_c, 0, 99, 0
1, 118694, Note_on_c, 0, 100, 90
1, 118755, Note_on_c, 0, 100, 0
1, 118755, Note_on_c, 0, 101, 97
1, 118755, Control_c, 0, 64, 0
1, 118758, Note_on_c, 0, 29, 73
1, 118758, Note_on_c, 0, 41, 91
1, 118793, Control_c, 0, 64, 127
1, 118817, Note_on_c, 0, 101, 0
1, 118817, Note_on_c, 0, 96, 88
1, 118879, Note_on_c, 0, 96, 0
1, 118879, Note_on_c, 0, 93, 88
1, 118941, Note_on_c, 0, 93, 0
1, 118941, Note_on_c, 0, 89, 95
1, 118941, Note_on_c, 0, 41, 0
1, 118944, Note_on_c, 0, 29, 0
1, 118944, Note_on_c, 0, 48, 70
1, 118944, Note_on_c, 0, 53, 70
1, 118947, Note_on_c, 0, 57, 81
1, 119003, Note_on_c, 0, 89, 0
1, 119003, Note_on_c, 0, 89, 86
1, 119065, Note_on_c, 0, 89, 0
1, 119065, Note_on_c, 0, 84, 86
1, 119127, Note_on_c, 0, 84, 0
1, 119127, Note_on_c, 0, 96, 95
1, 119127, Note_on_c, 0, 57, 0
1, 119130, Note_on_c, 0, 53, 0
1, 119130, Note_on_c, 0, 48, 0
1, 119130, Note_on_c, 0, 33, 73
1, 119133, Note_on_c, 0, 45, 90
1, 119133, Control_c, 0, 64, 0
1, 119157, Control_c, 0, 64, 127
1, 119189, Note_on_c, 0, 96, 0
1, 119189, Note_on_c, 0, 93, 88
1, 119251, Note_on_c, 0, 93, 0
1, 119251, Note_on_c, 0, 89, 88
1, 119312, Note_on_c, 0, 89, 0
1, 119312, Note_on_c, 0, 84, 94
1, 119312, Note_on_c, 0, 45, 0
1, 119315, Note_on_c, 0, 33, 0
1, 119315, Note_on_c, 0, 48, 69
1, 119315, Note_on_c, 0, 53, 69
1, 119318, Note_on_c, 0, 57, 80
1, 119374, Note_on_c, 0, 84, 0
1, 119374, Note_on_c, 0, 84, 86
1, 119436, Note_on_c, 0, 84, 0
1, 119436, Note_on_c, 0, 81, 87
1, 119498, Note_on_c, 0, 81, 0
1, 119498, Note_on_c, 0, 93, 91
1, 119498, Note_on_c, 0, 57, 0
1, 119501, Note_on_c, 0, 53, 0
1, 119501, Note_on_c, 0, 48, 0
1, 119501, Note_on_c, 0, 36, 75
1, 119504, Note_on_c, 0, 48, 92
1, 119504, Control_c, 0, 64, 0
1, 119538, Control_c, 0, 64, 127
1, 119563, Note_on_c, 0, 93, 0
1, 119563, Note_on_c, 0, 89, 87
1, 119628, Note_on_c, 0, 89, 0
1, 119628, Note_on_c, 0, 84, 87
1, 119693, Note_on_c, 0, 84, 0
1, 119693, Note_on_c, 0, 81, 91
1, 119693, Note_on_c, 0, 48, 0
1, 119696, Note_on_c, 0, 36, 0
1, 119696, Note_on_c, 0, 48, 69
1, 119696, Note_on_c, 0, 53, 69
1, 119699, Note_on_c, 0, 57, 80
1, 119757, Note_on_c, 0, 81, 0
1, 119757, Note_on_c, 0, 81, 86
1, 119822, Note_on_c, 0, 81, 0
1, 119822, Note_on_c, 0, 77, 87
1, 119884, Note_on_c, 0, 77, 0
1, 119887, Note_on_c, 0, 89, 91
1, 119887, Note_on_c, 0, 57, 0
1, 119887, Note_on_c, 0, 53, 0
1, 119890, Note_on_c, 0, 48, 0
1, 119890, Note_on_c, 0, 41, 75
1, 119890, Note_on_c, 0, 53, 91
1, 119895, Control_c, 0, 64, 0
1, 119959, Control_c, 0, 64, 127
1, 120086, Note_on_c, 0, 89, 0
1, 120086, Note_on_c, 0, 57, 89
1, 120086, Note_on_c, 0, 53, 0
1, 120089, Note_on_c, 0, 41, 0
1, 120148, Note_on_c, 0, 57, 0
1, 120148, Note_on_c, 0, 60, 83
1, 120210, Note_on_c, 0, 60, 0
1, 120210, Note_on_c, 0, 65, 84
1, 120272, Note_on_c, 0, 65, 0
1, 120272, Note_on_c, 0, 57, 89
1, 120333, Note_on_c, 0, 57, 0
1, 120333, Note_on_c, 0, 60, 84
1, 120395, Note_on_c, 0, 60, 0
1, 120395, Note_on_c, 0, 65, 84
1, 120457, Note_on_c, 0, 69, 92
1, 120457, Note_on_c, 0, 65, 0
1, 120519, Note_on_c, 0, 69, 0
1, 120519, Note_on_c, 0, 72, 88
1, 120581, Note_on_c, 0, 72, 0
1, 120581, Note_on_c, 0, 77, 87
1, 120643, Note_on_c, 0, 77, 0
1, 120643, Note_on_c, 0, 81, 91
1, 120709, Note_on_c, 0, 81, 0
1, 120709, Note_on_c, 0, 84, 89
1, 120775, Note_on_c, 0, 84, 0
1, 120775, Note_on_c, 0, 89, 89
1, 120849, Note_on_c, 0, 89, 0
1, 120849, Note_on_c, 0, 93, 69
1, 120849, Control_c, 0, 64, 0
1, 120911, Note_on_c, 0, 91, 68
1, 120927, Note_on_c, 0, 93, 0
1, 120973, Note_on_c, 0, 89, 66
1, 120989, Note_on_c, 0, 91, 0
1, 121035, Note_on_c, 0, 88, 63
1, 121035, Note_on_c, 0, 48, 64
1, 121051, Note_on_c, 0, 89, 0
1, 121099, Note_on_c, 0, 89, 61
1, 121115, Note_on_c, 0, 88, 0
1, 121131, Note_on_c, 0, 48, 0
1, 121163, Note_on_c, 0, 91, 61
1, 121179, Note_on_c, 0, 89, 0
1, 121227, Note_on_c, 0, 91, 0
1, 121227, Note_on_c, 0, 79, 65
1, 121227, Note_on_c, 0, 64, 54
1, 121230, Note_on_c, 0, 60, 54
1, 121289, Note_on_c, 0, 82, 61
1, 121304, Note_on_c, 0, 79, 0
1, 121320, Note_on_c, 0, 60, 0
1, 121320, Note_on_c, 0, 64, 0
1, 121351, Note_on_c, 0, 84, 62
1, 121366, Note_on_c, 0, 82, 0
1, 121413, Note_on_c, 0, 85, 70
1, 121413, Note_on_c, 0, 55, 65
1, 121429, Note_on_c, 0, 84, 0
1, 121476, Note_on_c, 0, 88, 58
1, 121492, Note_on_c, 0, 85, 0
1, 121508, Note_on_c, 0, 55, 0
1, 121540, Note_on_c, 0, 91, 58
1, 121556, Note_on_c, 0, 88, 0
1, 121603, Note_on_c, 0, 91, 0
1, 121603, Note_on_c, 0, 79, 65
1, 121603, Note_on_c, 0, 64, 54
1, 121606, Note_on_c, 0, 60, 54
1, 121664, Note_on_c, 0, 82, 60
1, 121679, Note_on_c, 0, 79, 0
1, 121694, Note_on_c, 0, 60, 0
1, 121694, Note_on_c, 0, 64, 0
1, 121724, Note_on_c, 0, 84, 60
1, 121740, Note_on_c, 0, 82, 0
1, 121785, Note_on_c, 0, 85, 71
1, 121785, Note_on_c, 0, 52, 68
1, 121800, Note_on_c, 0, 84, 0
1, 121845, Note_on_c, 0, 88, 64
1, 121860, Note_on_c, 0, 85, 0
1, 121875, Note_on_c, 0, 52, 0
1, 121905, Note_on_c, 0, 91, 64
1, 121920, Note_on_c, 0, 88, 0
1, 121965, Note_on_c, 0, 91, 0
1, 121965, Note_on_c, 0, 79, 69
1, 121965, Note_on_c, 0, 64, 57
1, 121968, Note_on_c, 0, 60, 57
1, 122024, Note_on_c, 0, 82, 64
1, 122039, Note_on_c, 0, 79, 0
1, 122054, Note_on_c, 0, 60, 0
1, 122054, Note_on_c, 0, 64, 0
1, 122083, Note_on_c, 0, 89, 64
1, 122098, Note_on_c, 0, 82, 0
1, 122142, Note_on_c, 0, 88, 63
1, 122142, Note_on_c, 0, 45, 64
1, 122157, Note_on_c, 0, 89, 0
1, 122202, Note_on_c, 0, 87, 61
1, 122217, Note_on_c, 0, 88, 0
1, 122232, Note_on_c, 0, 45, 0
1, 122261, Note_on_c, 0, 88, 61
1, 122279, Note_on_c, 0, 87, 0
1, 122331, Note_on_c, 0, 100, 62
1, 122331, Note_on_c, 0, 61, 51
1, 122331, Note_on_c, 0, 57, 51
1, 122345, Note_on_c, 0, 88, 0
1, 122389, Note_on_c, 0, 97, 57
1, 122404, Note_on_c, 0, 100, 0
1, 122418, Note_on_c, 0, 57, 0
1, 122418, Note_on_c, 0, 61, 0
1, 122447, Note_on_c, 0, 91, 57
1, 122462, Note_on_c, 0, 97, 0
1, 122505, Note_on_c, 0, 91, 0
1, 122505, Note_on_c, 0, 88, 64
1, 122505, Note_on_c, 0, 52, 60
1, 122563, Note_on_c, 0, 85, 53
1, 122577, Note_on_c, 0, 88, 0
1, 122592, Note_on_c, 0, 52, 0
1, 122621, Note_on_c, 0, 88, 53
1, 122635, Note_on_c, 0, 85, 0
1, 122679, Note_on_c, 0, 76, 58
1, 122679, Note_on_c, 0, 61, 48
1, 122679, Note_on_c, 0, 57, 48
1, 122693, Note_on_c, 0, 88, 0
1, 122737, Note_on_c, 0, 73, 53
1, 122752, Note_on_c, 0, 76, 0
1, 122766, Note_on_c, 0, 57, 0
1, 122766, Note_on_c, 0, 61, 0
1, 122796, Note_on_c, 0, 76, 53
1, 122810, Note_on_c, 0, 73, 0
1, 122855, Note_on_c, 0, 76, 0
1, 122855, Note_on_c, 0, 64, 62
1, 122855, Note_on_c, 0, 45, 58
1, 122914, Note_on_c, 0, 64, 0
1, 122914, Note_on_c, 0, 61, 55
1, 122943, Note_on_c, 0, 45, 0
1, 122973, Note_on_c, 0, 61, 0
1, 122973, Note_on_c, 0, 64, 55
1, 123036, Note_on_c, 0, 64, 0
1, 123036, Note_on_c, 0, 57, 57
1, 123036, Note_on_c, 0, 52, 48
1, 123039, Note_on_c, 0, 49, 48
1, 123095, Note_on_c, 0, 59, 54
1, 123110, Note_on_c, 0, 57, 0
1, 123124, Note_on_c, 0, 49, 0
1, 123124, Note_on_c, 0, 52, 0
1, 123154, Note_on_c, 0, 61, 53
1, 123169, Note_on_c, 0, 59, 0
1, 123213, Note_on_c, 0, 62, 54
1, 123213, Note_on_c, 0, 38, 55
1, 123228, Note_on_c, 0, 61, 0
1, 123275, Note_on_c, 0, 69, 52
1, 123290, Note_on_c, 0, 62, 0
1, 123306, Note_on_c, 0, 38, 0
1, 123337, Note_on_c, 0, 66, 52
1, 123353, Note_on_c, 0, 69, 0
1, 123399, Note_on_c, 0, 66, 0
1, 123399, Note_on_c, 0, 57, 56
1, 123399, Note_on_c, 0, 54, 46
1, 123402, Note_on_c, 0, 50, 46
1, 123460, Note_on_c, 0, 60, 52
1, 123475, Note_on_c, 0, 57, 0
1, 123490, Note_on_c, 0, 50, 0
1, 123490, Note_on_c, 0, 54, 0
1, 123520, Note_on_c, 0, 63, 53
1, 123536, Note_on_c, 0, 60, 0
1, 123581, Note_on_c, 0, 62, 60
1, 123581, Note_on_c, 0, 45, 56
1, 123596, Note_on_c, 0, 63, 0
1, 123643, Note_on_c, 0, 69, 51
1, 123658, Note_on_c, 0, 62, 0
1, 123674, Note_on_c, 0, 45, 0
1, 123704, Note_on_c, 0, 66, 51
1, 123720, Note_on_c, 0, 69, 0
1, 123766, Note_on_c, 0, 66, 0
1, 123766, Note_on_c, 0, 57, 56
1, 123766, Note_on_c, 0, 54, 46
1, 123769, Note_on_c, 0, 50, 46
1, 123827, Note_on_c, 0, 60, 52
1, 123842, Note_on_c, 0, 57, 0
1, 123857, Note_on_c, 0, 50, 0
1, 123857, Note_on_c, 0, 54, 0
1, 123887, Note_on_c, 0, 63, 52
1, 123902, Note_on_c, 0, 60, 0
1, 123948, Note_on_c, 0, 62, 61
1, 123948, Note_on_c, 0, 38, 58
1, 123963, Note_on_c, 0, 63, 0
1, 124008, Note_on_c, 0, 69, 55
1, 124023, Note_on_c, 0, 62, 0
1, 124038, Note_on_c, 0, 38, 0
1, 124068, Note_on_c, 0, 66, 55
1, 124083, Note_on_c, 0, 69, 0
1, 124128, Note_on_c, 0, 66, 0
1, 124128, Note_on_c, 0, 57, 58
1, 124128, Note_on_c, 0, 54, 49
1, 124131, Note_on_c, 0, 50, 49
1, 124187, Note_on_c, 0, 60, 55
1, 124202, Note_on_c, 0, 57, 0
1, 124216, Note_on_c, 0, 50, 0
1, 124216, Note_on_c, 0, 54, 0
1, 124246, Note_on_c, 0, 63, 55
1, 124260, Note_on_c, 0, 60, 0
1, 124304, Note_on_c, 0, 62, 60
1, 124304, Note_on_c, 0, 43, 64
1, 124319, Note_on_c, 0, 63, 0
1, 124332, Control_c, 0, 64, 127
1, 124364, Note_on_c, 0, 62, 0
1, 124364, Note_on_c, 0, 65, 61
1, 124394, Note_on_c, 0, 43, 0
1, 124424, Note_on_c, 0, 65, 0
1, 124424, Note_on_c, 0, 68, 63
1, 124494, Note_on_c, 0, 68, 0
1, 124494, Note_on_c, 0, 71, 64
1, 124494, Note_on_c, 0, 58, 53
1, 124497, Note_on_c, 0, 55, 53
1, 124552, Note_on_c, 0, 71, 0
1, 124552, Note_on_c, 0, 74, 65
1, 124610, Note_on_c, 0, 74, 0
1, 124610, Note_on_c, 0, 77, 68
1, 124668, Note_on_c, 0, 77, 0
1, 124668, Note_on_c, 0, 80, 69
1, 124668, Note_on_c, 0, 55, 0
1, 124671, Note_on_c, 0, 58, 0
1, 124671, Note_on_c, 0, 50, 66
1, 124725, Note_on_c, 0, 80, 0
1, 124725, Note_on_c, 0, 77, 70
1, 124754, Note_on_c, 0, 50, 0
1, 124783, Note_on_c, 0, 77, 0
1, 124783, Note_on_c, 0, 80, 72
1, 124842, Note_on_c, 0, 80, 0
1, 124842, Note_on_c, 0, 83, 73
1, 124842, Note_on_c, 0, 58, 58
1, 124845, Note_on_c, 0, 55, 58
1, 124900, Note_on_c, 0, 83, 0
1, 124900, Note_on_c, 0, 86, 74
1, 124959, Note_on_c, 0, 86, 0
1, 124959, Note_on_c, 0, 89, 77
1, 125017, Note_on_c, 0, 89, 0
1, 125017, Note_on_c, 0, 92, 78
1, 125017, Note_on_c, 0, 55, 0
1, 125020, Note_on_c, 0, 58, 0
1, 125020, Note_on_c, 0, 43, 74
1, 125077, Note_on_c, 0, 92, 0
1, 125077, Note_on_c, 0, 85, 79
1, 125106, Note_on_c, 0, 43, 0
1, 125136, Note_on_c, 0, 85, 0
1, 125136, Note_on_c, 0, 86, 81
1, 125196, Note_on_c, 0, 86, 0
1, 125196, Note_on_c, 0, 89, 82
1, 125196, Note_on_c, 0, 58, 64
1, 125199, Note_on_c, 0, 55, 64
1, 125255, Note_on_c, 0, 89, 0
1, 125255, Note_on_c, 0, 92, 83
1, 125314, Note_on_c, 0, 92, 0
1, 125314, Note_on_c, 0, 95, 89
1, 125366, Note_on_c, 0, 98, 81
1, 125401, Note_on_c, 0, 98, 0
1, 125401, Note_on_c, 0, 95, 0
1, 125401, Note_on_c, 0, 101, 91
1, 125404, Note_on_c, 0, 55, 0
1, 125404, Note_on_c, 0, 58, 0
1, 125404, Note_on_c, 0, 48, 82
1, 125404, Control_c, 0, 64, 0
1, 125430, Control_c, 0, 64, 127
1, 125460, Note_on_c, 0, 101, 0
1, 125460, Note_on_c, 0, 100, 89
1, 125519, Note_on_c, 0, 100, 0
1, 125519, Note_on_c, 0, 98, 87
1, 125578, Note_on_c, 0, 98, 0
1, 125578, Note_on_c, 0, 96, 84
1, 125578, Note_on_c, 0, 55, 71
1, 125639, Note_on_c, 0, 96, 0
1, 125639, Note_on_c, 0, 94, 80
1, 125701, Note_on_c, 0, 94, 0
1, 125701, Note_on_c, 0, 98, 81
1, 125762, Note_on_c, 0, 98, 0
1, 125762, Note_on_c, 0, 91, 82
1, 125762, Note_on_c, 0, 55, 0
1, 125765, Note_on_c, 0, 48, 0
1, 125765, Note_on_c, 0, 60, 81
1, 125765, Note_on_c, 0, 64, 81
1, 125823, Note_on_c, 0, 91, 0
1, 125823, Note_on_c, 0, 88, 77
1, 125885, Note_on_c, 0, 88, 0
1, 125885, Note_on_c, 0, 96, 77
1, 125946, Note_on_c, 0, 96, 0
1, 125946, Note_on_c, 0, 84, 81
1, 125946, Note_on_c, 0, 64, 0
1, 125949, Note_on_c, 0, 55, 65
1, 126007, Note_on_c, 0, 84, 0
1, 126007, Note_on_c, 0, 82, 75
1, 126069, Note_on_c, 0, 82, 0
1, 126069, Note_on_c, 0, 86, 75
1, 126130, Note_on_c, 0, 86, 0
1, 126130, Note_on_c, 0, 79, 72
1, 126130, Note_on_c, 0, 55, 0
1, 126133, Note_on_c, 0, 60, 0
1, 126133, Note_on_c, 0, 64, 69
1, 126133, Note_on_c, 0, 58, 69
1, 126138, Control_c, 0, 64, 0
1, 126182, Control_c, 0, 64, 127
1, 126192, Note_on_c, 0, 79, 0
1, 126192, Note_on_c, 0, 76, 65
1, 126253, Note_on_c, 0, 76, 0
1, 126253, Note_on_c, 0, 84, 65
1, 126314, Note_on_c, 0, 84, 0
1, 126314, Note_on_c, 0, 72, 70
1, 126314, Note_on_c, 0, 64, 0
1, 126317, Note_on_c, 0, 55, 61
1, 126378, Note_on_c, 0, 72, 0
1, 126378, Note_on_c, 0, 74, 63
1, 126442, Note_on_c, 0, 74, 0
1, 126442, Note_on_c, 0, 76, 63
1, 126506, Note_on_c, 0, 76, 0
1, 126506, Note_on_c, 0, 77, 66
1, 126506, Note_on_c, 0, 55, 0
1, 126509, Note_on_c, 0, 58, 0
1, 126509, Note_on_c, 0, 45, 69
1, 126509, Control_c, 0, 64, 0
1, 126537, Control_c, 0, 64, 127
1, 126568, Note_on_c, 0, 77, 0
1, 126568, Note_on_c, 0, 81, 62
1, 126598, Note_on_c, 0, 45, 0
1, 126629, Note_on_c, 0, 81, 0
1, 126629, Note_on_c, 0, 82, 62
1, 126689, Note_on_c, 0, 82, 0
1, 126689, Note_on_c, 0, 84, 66
1, 126689, Note_on_c, 0, 65, 61
1, 126692, Note_on_c, 0, 60, 61
1, 126748, Note_on_c, 0, 84, 0
1, 126748, Note_on_c, 0, 89, 62
1, 126807, Note_on_c, 0, 89, 0
1, 126807, Note_on_c, 0, 93, 62
1, 126867, Note_on_c, 0, 93, 0
1, 126867, Note_on_c, 0, 96, 74
1, 126867, Note_on_c, 0, 60, 0
1, 126870, Note_on_c, 0, 65, 0
1, 126870, Note_on_c, 0, 57, 69
1, 126874, Control_c, 0, 64, 0
1, 126892, Control_c, 0, 64, 127
1, 126928, Note_on_c, 0, 96, 0
1, 126928, Note_on_c, 0, 94, 68
1, 126959, Note_on_c, 0, 57, 0
1, 126990, Note_on_c, 0, 94, 0
1, 126990, Note_on_c, 0, 93, 68
1, 127036, Note_on_c, 0, 93, 0
1, 127036, Note_on_c, 0, 94, 68
1, 127063, Note_on_c, 0, 94, 0
1, 127063, Note_on_c, 0, 93, 73
1, 127063, Note_on_c, 0, 65, 62
1, 127066, Note_on_c, 0, 60, 62
1, 127135, Note_on_c, 0, 93, 0
1, 127135, Note_on_c, 0, 91, 68
1, 127206, Note_on_c, 0, 91, 0
1, 127206, Note_on_c, 0, 89, 68
1, 127253, Note_on_c, 0, 89, 0
1, 127253, Note_on_c, 0, 91, 73
1, 127281, Note_on_c, 0, 91, 0
1, 127281, Note_on_c, 0, 89, 75
1, 127281, Note_on_c, 0, 60, 0
1, 127284, Note_on_c, 0, 65, 0
1, 127284, Note_on_c, 0, 47, 69
1, 127290, Control_c, 0, 64, 0
1, 127329, Control_c, 0, 64, 127
1, 127355, Note_on_c, 0, 89, 0
1, 127355, Note_on_c, 0, 88, 68
1, 127392, Note_on_c, 0, 47, 0
1, 127429, Note_on_c, 0, 88, 0
1, 127429, Note_on_c, 0, 86, 68
1, 127477, Note_on_c, 0, 86, 0
1, 127477, Note_on_c, 0, 88, 73
1, 127507, Note_on_c, 0, 88, 0
1, 127507, Note_on_c, 0, 86, 74
1, 127507, Note_on_c, 0, 65, 61
1, 127510, Note_on_c, 0, 62, 61
1, 127510, Note_on_c, 0, 55, 61
1, 127584, Note_on_c, 0, 86, 0
1, 127584, Note_on_c, 0, 84, 66
1, 127669, Note_on_c, 0, 84, 0
1, 127669, Note_on_c, 0, 83, 66
1, 127726, Note_on_c, 0, 83, 0
1, 127726, Note_on_c, 0, 84, 68
1, 127762, Note_on_c, 0, 84, 0
1, 127762, Note_on_c, 0, 93, 72
1, 127762, Note_on_c, 0, 55, 0
1, 127765, Note_on_c, 0, 62, 0
1, 127765, Note_on_c, 0, 65, 0
1, 127765, Control_c, 0, 64, 0
1, 127768, Note_on_c, 0, 48, 69
1, 127798, Control_c, 0, 64, 127
1, 127875, Note_on_c, 0, 93, 0
1, 127875, Note_on_c, 0, 48, 0
1, 127913, Note_on_c, 0, 89, 71
1, 127977, Note_on_c, 0, 89, 0
1, 127977, Note_on_c, 0, 84, 71
1, 127977, Note_on_c, 0, 65, 61
1, 127980, Note_on_c, 0, 60, 61
1, 127980, Note_on_c, 0, 57, 61
1, 128041, Note_on_c, 0, 84, 0
1, 128041, Note_on_c, 0, 81, 71
1, 128105, Note_on_c, 0, 81, 0
1, 128105, Note_on_c, 0, 77, 70
1, 128169, Note_on_c, 0, 77, 0
1, 128169, Note_on_c, 0, 72, 70
1, 128169, Note_on_c, 0, 57, 0
1, 128172, Note_on_c, 0, 60, 0
1, 128172, Note_on_c, 0, 65, 0
1, 128230, Note_on_c, 0, 72, 0
1, 128230, Note_on_c, 0, 84, 69
1, 128292, Note_on_c, 0, 84, 0
1, 128292, Note_on_c, 0, 81, 69
1, 128354, Note_on_c, 0, 81, 0
1, 128354, Note_on_c, 0, 77, 68
1, 128415, Note_on_c, 0, 77, 0
1, 128415, Note_on_c, 0, 72, 68
1, 128477, Note_on_c, 0, 72, 0
1, 128477, Note_on_c, 0, 69, 68
1, 128539, Note_on_c, 0, 69, 0
1, 128539, Note_on_c, 0, 72, 66
1, 128539, Note_on_c, 0, 36, 69
1, 128544, Control_c, 0, 64, 0
1, 128558, Control_c, 0, 64, 127
1, 128600, Note_on_c, 0, 72, 0
1, 128600, Note_on_c, 0, 67, 66
1, 128631, Note_on_c, 0, 36, 0
1, 128662, Note_on_c, 0, 67, 0
1, 128662, Note_on_c, 0, 64, 65
1, 128724, Note_on_c, 0, 64, 0
1, 128724, Note_on_c, 0, 60, 65
1, 128724, Note_on_c, 0, 52, 61
1, 128727, Note_on_c, 0, 55, 61
1, 128785, Note_on_c, 0, 60, 0
1, 128785, Note_on_c, 0, 58, 64
1, 128854, Note_on_c, 0, 58, 0
1, 128854, Note_on_c, 0, 55, 64
1, 128922, Note_on_c, 0, 55, 0
1, 128922, Note_on_c, 0, 53, 64
1, 128922, Note_on_c, 0, 55, 0
1, 128925, Note_on_c, 0, 52, 0
1, 128925, Note_on_c, 0, 41, 69
1, 128925, Control_c, 0, 64, 0
1, 128955, Control_c, 0, 64, 127
1, 128985, Note_on_c, 0, 53, 0
1, 128985, Note_on_c, 0, 53, 65
1, 129048, Note_on_c, 0, 53, 0
1, 129048, Note_on_c, 0, 57, 66
1, 129111, Note_on_c, 0, 57, 0
1, 129111, Note_on_c, 0, 65, 68
1, 129111, Note_on_c, 0, 48, 62
1, 129175, Note_on_c, 0, 65, 0
1, 129175, Note_on_c, 0, 65, 70
1, 129207, Note_on_c, 0, 48, 0
1, 129240, Note_on_c, 0, 65, 0
1, 129240, Note_on_c, 0, 69, 71
1, 129310, Note_on_c, 0, 69, 0
1, 129310, Note_on_c, 0, 77, 72
1, 129310, Note_on_c, 0, 60, 64
1, 129374, Note_on_c, 0, 77, 0
1, 129374, Note_on_c, 0, 77, 73
1, 129406, Note_on_c, 0, 60, 0
1, 129438, Note_on_c, 0, 77, 0
1, 129438, Note_on_c, 0, 81, 75
1, 129501, Note_on_c, 0, 81, 0
1, 129501, Note_on_c, 0, 89, 77
1, 129501, Note_on_c, 0, 72, 66
1, 129565, Note_on_c, 0, 89, 0
1, 129565, Note_on_c, 0, 89, 78
1, 129599, Note_on_c, 0, 72, 0
1, 129632, Note_on_c, 0, 89, 0
1, 129632, Note_on_c, 0, 93, 79
1, 129707, Note_on_c, 0, 93, 0
1, 129707, Note_on_c, 0, 101, 88
1, 129707, Note_on_c, 0, 41, 0
1, 129710, Note_on_c, 0, 81, 74
1, 129724, Control_c, 0, 64, 0
1, 129773, Note_on_c, 0, 81, 0
1, 129773, Note_on_c, 0, 84, 78
1, 129840, Note_on_c, 0, 84, 0
1, 129840, Note_on_c, 0, 89, 81
1, 129906, Note_on_c, 0, 101, 0
1, 129906, Note_on_c, 0, 93, 69
1, 129906, Note_on_c, 0, 89, 0
1, 129909, Control_c, 0, 64, 0
1, 129968, Note_on_c, 0, 91, 68
1, 129983, Note_on_c, 0, 93, 0
1, 130030, Note_on_c, 0, 89, 66
1, 130045, Note_on_c, 0, 91, 0
1, 130091, Note_on_c, 0, 88, 63
1, 130091, Note_on_c, 0, 48, 64
1, 130107, Note_on_c, 0, 89, 0
1, 130155, Note_on_c, 0, 89, 61
1, 130171, Note_on_c, 0, 88, 0
1, 130187, Note_on_c, 0, 48, 0
1, 130219, Note_on_c, 0, 91, 61
1, 130235, Note_on_c, 0, 89, 0
1, 130283, Note_on_c, 0, 91, 0
1, 130283, Note_on_c, 0, 79, 65
1, 130283, Note_on_c, 0, 64, 54
1, 130286, Note_on_c, 0, 60, 54
1, 130344, Note_on_c, 0, 82, 61
1, 130359, Note_on_c, 0, 79, 0
1, 130374, Note_on_c, 0, 60, 0
1, 130374, Note_on_c, 0, 64, 0
1, 130405, Note_on_c, 0, 84, 62
1, 130420, Note_on_c, 0, 82, 0
1, 130465, Note_on_c, 0, 85, 70
1, 130465, Note_on_c, 0, 55, 65
1, 130481, Note_on_c, 0, 84, 0
1, 130527, Note_on_c, 0, 88, 58
1, 130542, Note_on_c, 0, 85, 0
1, 130558, Note_on_c, 0, 55, 0
1, 130589, Note_on_c, 0, 91, 58
1, 130604, Note_on_c, 0, 88, 0
1, 130650, Note_on_c, 0, 91, 0
1, 130650, Note_on_c, 0, 79, 65
1, 130650, Note_on_c, 0, 64, 54
1, 130653, Note_on_c, 0, 60, 54
1, 130711, Note_on_c, 0, 82, 60
1, 130726, Note_on_c, 0, 79, 0
1, 130741, Note_on_c, 0, 60, 0
1, 130741, Note_on_c, 0, 64, 0
1, 130771, Note_on_c, 0, 84, 60
1, 130787, Note_on_c, 0, 82, 0
1, 130832, Note_on_c, 0, 85, 71
1, 130832, Note_on_c, 0, 52, 68
1, 130847, Note_on_c, 0, 84, 0
1, 130892, Note_on_c, 0, 88, 64
1, 130907, Note_on_c, 0, 85, 0
1, 130922, Note_on_c, 0, 52, 0
1, 130952, Note_on_c, 0, 91, 64
1, 130967, Note_on_c, 0, 88, 0
1, 131013, Note_on_c, 0, 91, 0
1, 131013, Note_on_c, 0, 79, 69
1, 131013, Note_on_c, 0, 64, 57
1, 131016, Note_on_c, 0, 60, 57
1, 131071, Note_on_c, 0, 82, 64
1, 131086, Note_on_c, 0, 79, 0
1, 131101, Note_on_c, 0, 60, 0
1, 131101, Note_on_c, 0, 64, 0
1, 131130, Note_on_c, 0, 89, 64
1, 131145, Note_on_c, 0, 82, 0
1, 131189, Note_on_c, 0, 88, 63
1, 131189, Note_on_c, 0, 45, 64
1, 131204, Note_on_c, 0, 89, 0
1, 131249, Note_on_c, 0, 87, 61
1, 131264, Note_on_c, 0, 88, 0
1, 131279, Note_on_c, 0, 45, 0
1, 131309, Note_on_c, 0, 88, 61
1, 131327, Note_on_c, 0, 87, 0
1, 131383, Note_on_c, 0, 100, 62
1, 131383, Note_on_c, 0, 61, 51
1, 131383, Note_on_c, 0, 57, 51
1, 131398, Note_on_c, 0, 88, 0
1, 131442, Note_on_c, 0, 97, 57
1, 131457, Note_on_c, 0, 100, 0
1, 131472, Note_on_c, 0, 57, 0
1, 131472, Note_on_c, 0, 61, 0
1, 131502, Note_on_c, 0, 91, 57
1, 131516, Note_on_c, 0, 97, 0
1, 131560, Note_on_c, 0, 91, 0
1, 131560, Note_on_c, 0, 88, 64
1, 131560, Note_on_c, 0, 52, 60
1, 131618, Note_on_c, 0, 85, 53
1, 131633, Note_on_c, 0, 88, 0
1, 131648, Note_on_c, 0, 52, 0
1, 131677, Note_on_c, 0, 88, 53
1, 131692, Note_on_c, 0, 85, 0
1, 131736, Note_on_c, 0, 76, 58
1, 131736, Note_on_c, 0, 61, 48
1, 131736, Note_on_c, 0, 57, 48
1, 131750, Note_on_c, 0, 88, 0
1, 131795, Note_on_c, 0, 73, 53
1, 131809, Note_on_c, 0, 76, 0
1, 131824, Note_on_c, 0, 57, 0
1, 131824, Note_on_c, 0, 61, 0
1, 131854, Note_on_c, 0, 76, 53
1, 131868, Note_on_c, 0, 73, 0
1, 131913, Note_on_c, 0, 76, 0
1, 131913, Note_on_c, 0, 64, 62
1, 131913, Note_on_c, 0, 45, 58
1, 131972, Note_on_c, 0, 64, 0
1, 131972, Note_on_c, 0, 61, 55
1, 132002, Note_on_c, 0, 45, 0
1, 132032, Note_on_c, 0, 61, 0
1, 132032, Note_on_c, 0, 64, 55
1, 132094, Note_on_c, 0, 64, 0
1, 132094, Note_on_c, 0, 57, 57
1, 132094, Note_on_c, 0, 52, 48
1, 132097, Note_on_c, 0, 49, 48
1, 132153, Note_on_c, 0, 59, 54
1, 132168, Note_on_c, 0, 57, 0
1, 132183, Note_on_c, 0, 49, 0
1, 132183, Note_on_c, 0, 52, 0
1, 132212, Note_on_c, 0, 61, 53
1, 132227, Note_on_c, 0, 59, 0
1, 132271, Note_on_c, 0, 62, 54
1, 132271, Note_on_c, 0, 38, 55
1, 132287, Note_on_c, 0, 61, 0
1, 132333, Note_on_c, 0, 69, 52
1, 132349, Note_on_c, 0, 62, 0
1, 132365, Note_on_c, 0, 38, 0
1, 132396, Note_on_c, 0, 66, 52
1, 132411, Note_on_c, 0, 69, 0
1, 132458, Note_on_c, 0, 66, 0
1, 132458, Note_on_c, 0, 57, 56
1, 132458, Note_on_c, 0, 54, 46
1, 132461, Note_on_c, 0, 50, 46
1, 132518, Note_on_c, 0, 60, 52
1, 132534, Note_on_c, 0, 57, 0
1, 132549, Note_on_c, 0, 50, 0
1, 132549, Note_on_c, 0, 54, 0
1, 132579, Note_on_c, 0, 63, 53
1, 132594, Note_on_c, 0, 60, 0
1, 132640, Note_on_c, 0, 62, 60
1, 132640, Note_on_c, 0, 45, 56
1, 132655, Note_on_c, 0, 63, 0
1, 132701, Note_on_c, 0, 69, 51
1, 132717, Note_on_c, 0, 62, 0
1, 132732, Note_on_c, 0, 45, 0
1, 132763, Note_on_c, 0, 66, 51
1, 132778, Note_on_c, 0, 69, 0
1, 132825, Note_on_c, 0, 66, 0
1, 132825, Note_on_c, 0, 57, 56
1, 132825, Note_on_c, 0, 54, 46
1, 132828, Note_on_c, 0, 50, 46
1, 132885, Note_on_c, 0, 60, 52
1, 132900, Note_on_c, 0, 57, 0
1, 132915, Note_on_c, 0, 50, 0
1, 132915, Note_on_c, 0, 54, 0
1, 132946, Note_on_c, 0, 63, 52
1, 132961, Note_on_c, 0, 60, 0
1, 133006, Note_on_c, 0, 62, 61
1, 133006, Note_on_c, 0, 38, 58
1, 133021, Note_on_c, 0, 63, 0
1, 133067, Note_on_c, 0, 69, 55
1, 133082, Note_on_c, 0, 62, 0
1, 133097, Note_on_c, 0, 38, 0
1, 133127, Note_on_c, 0, 66, 55
1, 133142, Note_on_c, 0, 69, 0
1, 133187, Note_on_c, 0, 66, 0
1, 133187, Note_on_c, 0, 57, 58
1, 133187, Note_on_c, 0, 54, 49
1, 133190, Note_on_c, 0, 50, 49
1, 133246, Note_on_c, 0, 60, 55
1, 133260, Note_on_c, 0, 57, 0
1, 133275, Note_on_c, 0, 50, 0
1, 133275, Note_on_c, 0, 54, 0
1, 133304, Note_on_c, 0, 63, 55
1, 133319, Note_on_c, 0, 60, 0
1, 133363, Note_on_c, 0, 62, 60
1, 133363, Note_on_c, 0, 43, 64
1, 133379, Note_on_c, 0, 63, 0
1, 133392, Control_c, 0, 64, 127
1, 133425, Note_on_c, 0, 62, 0
1, 133425, Note_on_c, 0, 65, 61
1, 133456, Note_on_c, 0, 43, 0
1, 133487, Note_on_c, 0, 65, 0
1, 133487, Note_on_c, 0, 68, 63
1, 133556, Note_on_c, 0, 68, 0
1, 133556, Note_on_c, 0, 71, 64
1, 133556, Note_on_c, 0, 58, 53
1, 133559, Note_on_c, 0, 55, 53
1, 133614, Note_on_c, 0, 71, 0
1, 133614, Note_on_c, 0, 74, 65
1, 133672, Note_on_c, 0, 74, 0
1, 133672, Note_on_c, 0, 77, 68
1, 133730, Note_on_c, 0, 77, 0
1, 133730, Note_on_c, 0, 80, 69
1, 133730, Note_on_c, 0, 55, 0
1, 133733, Note_on_c, 0, 58, 0
1, 133733, Note_on_c, 0, 50, 66
1, 133788, Note_on_c, 0, 80, 0
1, 133788, Note_on_c, 0, 77, 70
1, 133817, Note_on_c, 0, 50, 0
1, 133846, Note_on_c, 0, 77, 0
1, 133846, Note_on_c, 0, 80, 72
1, 133904, Note_on_c, 0, 80, 0
1, 133904, Note_on_c, 0, 83, 73
1, 133904, Note_on_c, 0, 58, 58
1, 133907, Note_on_c, 0, 55, 58
1, 133962, Note_on_c, 0, 83, 0
1, 133962, Note_on_c, 0, 86, 74
1, 134021, Note_on_c, 0, 86, 0
1, 134021, Note_on_c, 0, 89, 77
1, 134080, Note_on_c, 0, 89, 0
1, 134080, Note_on_c, 0, 92, 78
1, 134080, Note_on_c, 0, 55, 0
1, 134083, Note_on_c, 0, 58, 0
1, 134083, Note_on_c, 0, 43, 74
1, 134139, Note_on_c, 0, 92, 0
1, 134139, Note_on_c, 0, 85, 79
1, 134169, Note_on_c, 0, 43, 0
1, 134198, Note_on_c, 0, 85, 0
1, 134198, Note_on_c, 0, 86, 81
1, 134259, Note_on_c, 0, 86, 0
1, 134259, Note_on_c, 0, 89, 82
1, 134259, Note_on_c, 0, 58, 64
1, 134262, Note_on_c, 0, 55, 64
1, 134318, Note_on_c, 0, 89, 0
1, 134318, Note_on_c, 0, 92, 83
1, 134377, Note_on_c, 0, 92, 0
1, 134377, Note_on_c, 0, 95, 89
1, 134428, Note_on_c, 0, 98, 81
1, 134463, Note_on_c, 0, 98, 0
1, 134463, Note_on_c, 0, 95, 0
1, 134463, Note_on_c, 0, 101, 91
1, 134466, Note_on_c, 0, 55, 0
1, 134466, Note_on_c, 0, 58, 0
1, 134466, Note_on_c, 0, 48, 82
1, 134469, Control_c, 0, 64, 0
1, 134493, Control_c, 0, 64, 127
1, 134523, Note_on_c, 0, 101, 0
1, 134523, Note_on_c, 0, 100, 89
1, 134583, Note_on_c, 0, 100, 0
1, 134583, Note_on_c, 0, 98, 87
1, 134643, Note_on_c, 0, 98, 0
1, 134643, Note_on_c, 0, 96, 84
1, 134643, Note_on_c, 0, 55, 71
1, 134705, Note_on_c, 0, 96, 0
1, 134705, Note_on_c, 0, 94, 80
1, 134766, Note_on_c, 0, 94, 0
1, 134766, Note_on_c, 0, 98, 81
1, 134827, Note_on_c, 0, 98, 0
1, 134827, Note_on_c, 0, 91, 82
1, 134827, Note_on_c, 0, 55, 0
1, 134830, Note_on_c, 0, 48, 0
1, 134830, Note_on_c, 0, 60, 81
1, 134830, Note_on_c, 0, 64, 81
1, 134888, Note_on_c, 0, 91, 0
1, 134888, Note_on_c, 0, 88, 77
1, 134948, Note_on_c, 0, 88, 0
1, 134948, Note_on_c, 0, 96, 77
1, 135009, Note_on_c, 0, 96, 0
1, 135009, Note_on_c, 0, 84, 81
1, 135009, Note_on_c, 0, 64, 0
1, 135012, Note_on_c, 0, 55, 65
1, 135070, Note_on_c, 0, 84, 0
1, 135070, Note_on_c, 0, 82, 75
1, 135131, Note_on_c, 0, 82, 0
1, 135131, Note_on_c, 0, 86, 75
1, 135193, Note_on_c, 0, 86, 0
1, 135193, Note_on_c, 0, 79, 72
1, 135193, Note_on_c, 0, 55, 0
1, 135196, Note_on_c, 0, 60, 0
1, 135196, Note_on_c, 0, 64, 69
1, 135196, Note_on_c, 0, 58, 69
1, 135200, Control_c, 0, 64, 0
1, 135244, Control_c, 0, 64, 127
1, 135254, Note_on_c, 0, 79, 0
1, 135254, Note_on_c, 0, 76, 65
1, 135315, Note_on_c, 0, 76, 0
1, 135315, Note_on_c, 0, 84, 65
1, 135377, Note_on_c, 0, 84, 0
1, 135377, Note_on_c, 0, 72, 70
1, 135377, Note_on_c, 0, 64, 0
1, 135380, Note_on_c, 0, 55, 61
1, 135438, Note_on_c, 0, 72, 0
1, 135438, Note_on_c, 0, 74, 63
1, 135500, Note_on_c, 0, 74, 0
1, 135500, Note_on_c, 0, 76, 63
1, 135561, Note_on_c, 0, 76, 0
1, 135561, Note_on_c, 0, 77, 66
1, 135561, Note_on_c, 0, 55, 0
1, 135564, Note_on_c, 0, 58, 0
1, 135564, Note_on_c, 0, 45, 69
1, 135564, Control_c, 0, 64, 0
1, 135592, Control_c, 0, 64, 127
1, 135622, Note_on_c, 0, 77, 0
1, 135622, Note_on_c, 0, 81, 62
1, 135653, Note_on_c, 0, 45, 0
1, 135684, Note_on_c, 0, 81, 0
1, 135684, Note_on_c, 0, 82, 62
1, 135743, Note_on_c, 0, 82, 0
1, 135743, Note_on_c, 0, 84, 66
1, 135743, Note_on_c, 0, 65, 61
1, 135746, Note_on_c, 0, 60, 61
1, 135803, Note_on_c, 0, 84, 0
1, 135803, Note_on_c, 0, 89, 62
1, 135862, Note_on_c, 0, 89, 0
1, 135862, Note_on_c, 0, 93, 62
1, 135921, Note_on_c, 0, 93, 0
1, 135921, Note_on_c, 0, 96, 74
1, 135921, Note_on_c, 0, 60, 0
1, 135924, Note_on_c, 0, 65, 0
1, 135924, Note_on_c, 0, 57, 69
1, 135929, Control_c, 0, 64, 0
1, 135946, Control_c, 0, 64, 127
1, 135982, Note_on_c, 0, 96, 0
1, 135982, Note_on_c, 0, 94, 68
1, 136014, Note_on_c, 0, 57, 0
1, 136045, Note_on_c, 0, 94, 0
1, 136045, Note_on_c, 0, 93, 68
1, 136090, Note_on_c, 0, 93, 0
1, 136090, Note_on_c, 0, 94, 68
1, 136118, Note_on_c, 0, 94, 0
1, 136118, Note_on_c, 0, 93, 73
1, 136118, Note_on_c, 0, 65, 62
1, 136121, Note_on_c, 0, 60, 62
1, 136189, Note_on_c, 0, 93, 0
1, 136189, Note_on_c, 0, 91, 68
1, 136261, Note_on_c, 0, 91, 0
1, 136261, Note_on_c, 0, 89, 68
1, 136307, Note_on_c, 0, 89, 0
1, 136307, Note_on_c, 0, 91, 73
1, 136336, Note_on_c, 0, 91, 0
1, 136336, Note_on_c, 0, 89, 75
1, 136336, Note_on_c, 0, 60, 0
1, 136339, Note_on_c, 0, 65, 0
1, 136339, Note_on_c, 0, 47, 69
1, 136345, Control_c, 0, 64, 0
1, 136383, Control_c, 0, 64, 127
1, 136409, Note_on_c, 0, 89, 0
1, 136409, Note_on_c, 0, 88, 68
1, 136446, Note_on_c, 0, 47, 0
1, 136483, Note_on_c, 0, 88, 0
1, 136483, Note_on_c, 0, 86, 68
1, 136533, Note_on_c, 0, 86, 0
1, 136533, Note_on_c, 0, 88, 73
1, 136563, Note_on_c, 0, 88, 0
1, 136563, Note_on_c, 0, 86, 74
1, 136563, Note_on_c, 0, 65, 61
1, 136566, Note_on_c, 0, 62, 61
1, 136566, Note_on_c, 0, 55, 61
1, 136645, Note_on_c, 0, 86, 0
1, 136645, Note_on_c, 0, 84, 66
1, 136731, Note_on_c, 0, 84, 0
1, 136731, Note_on_c, 0, 83, 66
1, 136787, Note_on_c, 0, 83, 0
1, 136787, Note_on_c, 0, 84, 68
1, 136823, Note_on_c, 0, 84, 0
1, 136823, Note_on_c, 0, 93, 72
1, 136823, Note_on_c, 0, 55, 0
1, 136826, Note_on_c, 0, 62, 0
1, 136826, Note_on_c, 0, 65, 0
1, 136826, Control_c, 0, 64, 0
1, 136829, Note_on_c, 0, 48, 69
1, 136860, Control_c, 0, 64, 127
1, 136937, Note_on_c, 0, 93, 0
1, 136937, Note_on_c, 0, 48, 0
1, 136975, Note_on_c, 0, 89, 71
1, 137041, Note_on_c, 0, 89, 0
1, 137041, Note_on_c, 0, 84, 71
1, 137041, Note_on_c, 0, 65, 61
1, 137044, Note_on_c, 0, 60, 61
1, 137044, Note_on_c, 0, 57, 61
1, 137108, Note_on_c, 0, 84, 0
1, 137108, Note_on_c, 0, 81, 71
1, 137175, Note_on_c, 0, 81, 0
1, 137175, Note_on_c, 0, 77, 70
1, 137242, Note_on_c, 0, 77, 0
1, 137242, Note_on_c, 0, 72, 70
1, 137242, Note_on_c, 0, 57, 0
1, 137245, Note_on_c, 0, 60, 0
1, 137245, Note_on_c, 0, 65, 0
1, 137304, Note_on_c, 0, 72, 0
1, 137304, Note_on_c, 0, 84, 69
1, 137365, Note_on_c, 0, 84, 0
1, 137365, Note_on_c, 0, 81, 69
1, 137428, Note_on_c, 0, 81, 0
1, 137428, Note_on_c, 0, 77, 68
1, 137492, Note_on_c, 0, 77, 0
1, 137492, Note_on_c, 0, 72, 68
1, 137555, Note_on_c, 0, 72, 0
1, 137555, Note_on_c, 0, 69, 68
1, 137618, Note_on_c, 0, 69, 0
1, 137618, Note_on_c, 0, 72, 66
1, 137618, Note_on_c, 0, 36, 69
1, 137623, Control_c, 0, 64, 0
1, 137637, Control_c, 0, 64, 127
1, 137680, Note_on_c, 0, 72, 0
1, 137680, Note_on_c, 0, 67, 66
1, 137710, Note_on_c, 0, 36, 0
1, 137741, Note_on_c, 0, 67, 0
1, 137741, Note_on_c, 0, 64, 65
1, 137804, Note_on_c, 0, 64, 0
1, 137804, Note_on_c, 0, 60, 65
1, 137804, Note_on_c, 0, 52, 61
1, 137807, Note_on_c, 0, 55, 61
1, 137868, Note_on_c, 0, 60, 0
1, 137868, Note_on_c, 0, 58, 64
1, 137936, Note_on_c, 0, 58, 0
1, 137936, Note_on_c, 0, 55, 64
1, 138004, Note_on_c, 0, 55, 0
1, 138004, Note_on_c, 0, 53, 64
1, 138004, Note_on_c, 0, 55, 0
1, 138007, Note_on_c, 0, 52, 0
1, 138007, Note_on_c, 0, 41, 69
1, 138007, Control_c, 0, 64, 0
1, 138038, Control_c, 0, 64, 127
1, 138068, Note_on_c, 0, 53, 0
1, 138068, Note_on_c, 0, 57, 65
1, 138131, Note_on_c, 0, 57, 0
1, 138131, Note_on_c, 0, 60, 66
1, 138194, Note_on_c, 0, 60, 0
1, 138194, Note_on_c, 0, 65, 66
1, 138194, Note_on_c, 0, 41, 0
1, 138241, Note_on_c, 0, 65, 0
1, 138241, Note_on_c, 0, 69, 66
1, 138290, Note_on_c, 0, 69, 0
1, 138290, Note_on_c, 0, 72, 68
1, 138339, Note_on_c, 0, 72, 0
1, 138339, Note_on_c, 0, 77, 68
1, 138386, Note_on_c, 0, 77, 0
1, 138386, Note_on_c, 0, 53, 54
1, 138411, Note_on_c, 0, 57, 58
1, 138437, Note_on_c, 0, 60, 63
1, 138463, Note_on_c, 0, 65, 68
1, 138490, Note_on_c, 0, 77, 68
1, 138519, Note_on_c, 0, 81, 71
1, 138548, Note_on_c, 0, 84, 75
1, 138581, Note_on_c, 0, 89, 79
1, 138614, Note_on_c, 0, 89, 0
1, 138614, Note_on_c, 0, 77, 0
1, 138614, Note_on_c, 0, 81, 0
1, 138617, Note_on_c, 0, 84, 0
1, 138617, Note_on_c, 0, 65, 0
1, 138617, Note_on_c, 0, 53, 0
1, 138620, Note_on_c, 0, 57, 0
1, 138620, Note_on_c, 0, 60, 0
1, 138759, Control_c, 0, 64, 0
1, 140430, Note_on_c, 0, 86, 64
1, 140430, Note_on_c, 0, 74, 55
1, 141057, Note_on_c, 0, 74, 0
1, 141057, Note_on_c, 0, 86, 0
1, 141057, Note_on_c, 0, 87, 68
1, 141060, Note_on_c, 0, 75, 58
1, 141060, Control_c, 0, 64, 127
1, 141060, Note_on_c, 0, 44, 48
1, 141476, Note_on_c, 0, 44, 0
1, 141476, Note_on_c, 0, 63, 44
1, 141476, Note_on_c, 0, 60, 38
1, 141479, Note_on_c, 0, 51, 38
1, 141685, Note_on_c, 0, 75, 0
1, 141685, Note_on_c, 0, 87, 0
1, 141685, Note_on_c, 0, 92, 73
1, 141688, Note_on_c, 0, 80, 63
1, 141688, Note_on_c, 0, 51, 0
1, 141688, Note_on_c, 0, 60, 0
1, 141691, Note_on_c, 0, 63, 0
1, 141691, Note_on_c, 0, 63, 51
1, 141691, Note_on_c, 0, 60, 43
1, 141694, Note_on_c, 0, 56, 43
1, 142055, Note_on_c, 0, 56, 0
1, 142055, Note_on_c, 0, 60, 0
1, 142055, Note_on_c, 0, 63, 0
1, 142058, Note_on_c, 0, 63, 47
1, 142058, Note_on_c, 0, 60, 40
1, 142058, Note_on_c, 0, 51, 40
1, 142240, Note_on_c, 0, 80, 0
1, 142240, Note_on_c, 0, 92, 0
1, 142240, Note_on_c, 0, 96, 79
1, 142243, Note_on_c, 0, 84, 66
1, 142243, Note_on_c, 0, 51, 0
1, 142243, Note_on_c, 0, 60, 0
1, 142246, Note_on_c, 0, 63, 0
1, 142246, Note_on_c, 0, 56, 45
1, 142246, Note_on_c, 0, 60, 45
1, 142249, Note_on_c, 0, 63, 53
1, 142610, Note_on_c, 0, 63, 0
1, 142610, Note_on_c, 0, 60, 0
1, 142610, Note_on_c, 0, 56, 0
1, 142613, Note_on_c, 0, 51, 41
1, 142613, Note_on_c, 0, 60, 41
1, 142613, Note_on_c, 0, 63, 48
1, 142810, Note_on_c, 0, 84, 0
1, 142810, Note_on_c, 0, 96, 0
1, 142810, Note_on_c, 0, 89, 75
1, 142813, Note_on_c, 0, 101, 87
1, 142813, Note_on_c, 0, 63, 0
1, 142813, Note_on_c, 0, 60, 0
1, 142816, Note_on_c, 0, 51, 0
1, 142816, Note_on_c, 0, 41, 64
1, 142816, Control_c, 0, 64, 0
1, 142921, Control_c, 0, 64, 127
1, 143194, Note_on_c, 0, 41, 0
1, 143194, Note_on_c, 0, 65, 56
1, 143194, Note_on_c, 0, 63, 48
1, 143197, Note_on_c, 0, 53, 48
1, 143379, Note_on_c, 0, 53, 0
1, 143379, Note_on_c, 0, 63, 0
1, 143379, Note_on_c, 0, 65, 0
1, 143382, Note_on_c, 0, 65, 56
1, 143382, Note_on_c, 0, 63, 48
1, 143382, Note_on_c, 0, 57, 48
1, 143749, Note_on_c, 0, 57, 0
1, 143749, Note_on_c, 0, 63, 0
1, 143749, Note_on_c, 0, 65, 0
1, 143752, Note_on_c, 0, 65, 53
1, 143752, Note_on_c, 0, 63, 45
1, 143752, Note_on_c, 0, 53, 45
1, 143934, Note_on_c, 0, 101, 0
1, 143934, Note_on_c, 0, 89, 0
1, 143934, Note_on_c, 0, 99, 75
1, 143937, Note_on_c, 0, 87, 64
1, 143937, Note_on_c, 0, 53, 0
1, 143937, Note_on_c, 0, 63, 0
1, 143940, Note_on_c, 0, 65, 0
1, 143940, Note_on_c, 0, 65, 52
1, 143940, Note_on_c, 0, 63, 45
1, 143943, Note_on_c, 0, 57, 45
1, 144318, Note_on_c, 0, 57, 0
1, 144318, Note_on_c, 0, 63, 0
1, 144318, Note_on_c, 0, 65, 0
1, 144321, Note_on_c, 0, 65, 46
1, 144321, Note_on_c, 0, 63, 40
1, 144321, Note_on_c, 0, 53, 40
1, 144516, Note_on_c, 0, 87, 0
1, 144516, Note_on_c, 0, 99, 0
1, 144516, Note_on_c, 0, 97, 70
1, 144519, Note_on_c, 0, 85, 61
1, 144519, Note_on_c, 0, 53, 0
1, 144519, Note_on_c, 0, 63, 0
1, 144522, Note_on_c, 0, 65, 0
1, 144522, Note_on_c, 0, 46, 46
1, 144522, Control_c, 0, 64, 0
1, 144680, Control_c, 0, 64, 127
1, 144898, Note_on_c, 0, 85, 0
1, 144898, Note_on_c, 0, 97, 0
1, 144898, Note_on_c, 0, 85, 61
1, 144901, Note_on_c, 0, 46, 0
1, 144901, Note_on_c, 0, 65, 43
1, 144901, Note_on_c, 0, 61, 37
1, 144904, Note_on_c, 0, 53, 37
1, 144988, Note_on_c, 0, 85, 0
1, 144988, Note_on_c, 0, 89, 58
1, 144988, Note_on_c, 0, 84, 45
1, 145078, Note_on_c, 0, 84, 0
1, 145078, Note_on_c, 0, 83, 45
1, 145078, Note_on_c, 0, 53, 0
1, 145081, Note_on_c, 0, 61, 0
1, 145081, Note_on_c, 0, 65, 0
1, 145081, Note_on_c, 0, 58, 37
1, 145084, Note_on_c, 0, 61, 37
1, 145084, Note_on_c, 0, 65, 43
1, 145168, Note_on_c, 0, 83, 0
1, 145168, Note_on_c, 0, 89, 0
1, 145168, Note_on_c, 0, 89, 58
1, 145171, Note_on_c, 0, 82, 44
1, 145259, Note_on_c, 0, 82, 0
1, 145259, Note_on_c, 0, 81, 44
1, 145350, Note_on_c, 0, 81, 0
1, 145350, Note_on_c, 0, 89, 0
1, 145350, Note_on_c, 0, 89, 57
1, 145353, Note_on_c, 0, 80, 44
1, 145441, Note_on_c, 0, 80, 0
1, 145441, Note_on_c, 0, 79, 44
1, 145441, Note_on_c, 0, 65, 0
1, 145444, Note_on_c, 0, 61, 0
1, 145444, Note_on_c, 0, 58, 0
1, 145444, Note_on_c, 0, 53, 36
1, 145447, Note_on_c, 0, 61, 36
1, 145447, Note_on_c, 0, 65, 41
1, 145534, Note_on_c, 0, 79, 0
1, 145534, Note_on_c, 0, 89, 0
1, 145534, Note_on_c, 0, 82, 57
1, 145537, Note_on_c, 0, 78, 44
1, 145627, Note_on_c, 0, 78, 0
1, 145627, Note_on_c, 0, 77, 43
1, 145627, Note_on_c, 0, 65, 0
1, 145630, Note_on_c, 0, 61, 0
1, 145630, Note_on_c, 0, 53, 0
1, 145630, Note_on_c, 0, 58, 36
1, 145633, Note_on_c, 0, 61, 36
1, 145633, Note_on_c, 0, 65, 41
1, 145633, Control_c, 0, 64, 0
1, 145676, Control_c, 0, 64, 127
1, 145720, Note_on_c, 0, 77, 0
1, 145720, Note_on_c, 0, 82, 0
1, 145720, Note_on_c, 0, 82, 56
1, 145723, Note_on_c, 0, 76, 43
1, 145814, Note_on_c, 0, 76, 0
1, 145814, Note_on_c, 0, 75, 41
1, 145908, Note_on_c, 0, 75, 0
1, 145908, Note_on_c, 0, 82, 0
1, 145908, Note_on_c, 0, 82, 55
1, 145911, Note_on_c, 0, 74, 41
1, 146003, Note_on_c, 0, 74, 0
1, 146003, Note_on_c, 0, 73, 41
1, 146003, Note_on_c, 0, 65, 0
1, 146006, Note_on_c, 0, 61, 0
1, 146006, Note_on_c, 0, 58, 0
1, 146006, Note_on_c, 0, 53, 37
1, 146009, Note_on_c, 0, 61, 37
1, 146009, Note_on_c, 0, 65, 43
1, 146098, Note_on_c, 0, 73, 0
1, 146098, Note_on_c, 0, 82, 0
1, 146098, Note_on_c, 0, 82, 54
1, 146101, Note_on_c, 0, 72, 40
1, 146195, Note_on_c, 0, 72, 0
1, 146195, Note_on_c, 0, 72, 49
1, 146195, Note_on_c, 0, 65, 0
1, 146198, Note_on_c, 0, 61, 0
1, 146198, Note_on_c, 0, 53, 0
1, 146198, Note_on_c, 0, 51, 47
1, 146202, Control_c, 0, 64, 0
1, 146244, Note_on_c, 0, 72, 0
1, 146244, Note_on_c, 0, 70, 44
1, 146247, Control_c, 0, 64, 127
1, 146292, Note_on_c, 0, 70, 0
1, 146292, Note_on_c, 0, 82, 0
1, 146292, Note_on_c, 0, 72, 49
1, 146341, Note_on_c, 0, 72, 0
1, 146341, Note_on_c, 0, 70, 44
1, 146389, Note_on_c, 0, 70, 0
1, 146389, Note_on_c, 0, 72, 49
1, 146438, Note_on_c, 0, 72, 0
1, 146438, Note_on_c, 0, 70, 44
1, 146487, Note_on_c, 0, 70, 0
1, 146487, Note_on_c, 0, 72, 49
1, 146535, Note_on_c, 0, 72, 0
1, 146535, Note_on_c, 0, 70, 43
1, 146584, Note_on_c, 0, 70, 0
1, 146584, Note_on_c, 0, 72, 49
1, 146584, Note_on_c, 0, 58, 36
1, 146587, Note_on_c, 0, 67, 41
1, 146630, Note_on_c, 0, 72, 0
1, 146630, Note_on_c, 0, 70, 44
1, 146676, Note_on_c, 0, 70, 0
1, 146676, Note_on_c, 0, 72, 49
1, 146723, Note_on_c, 0, 72, 0
1, 146723, Note_on_c, 0, 70, 44
1, 146770, Note_on_c, 0, 70, 0
1, 146770, Note_on_c, 0, 72, 49
1, 146770, Note_on_c, 0, 67, 0
1, 146773, Note_on_c, 0, 58, 0
1, 146773, Note_on_c, 0, 63, 47
1, 146773, Note_on_c, 0, 60, 40
1, 146816, Note_on_c, 0, 72, 0
1, 146816, Note_on_c, 0, 70, 45
1, 146863, Note_on_c, 0, 70, 0
1, 146863, Note_on_c, 0, 72, 49
1, 146910, Note_on_c, 0, 72, 0
1, 146910, Note_on_c, 0, 70, 45
1, 146957, Note_on_c, 0, 70, 0
1, 146957, Note_on_c, 0, 72, 49
1, 147004, Note_on_c, 0, 72, 0
1, 147004, Note_on_c, 0, 70, 43
1, 147051, Note_on_c, 0, 70, 0
1, 147051, Note_on_c, 0, 72, 49
1, 147097, Note_on_c, 0, 72, 0
1, 147097, Note_on_c, 0, 70, 43
1, 147143, Note_on_c, 0, 70, 0
1, 147143, Note_on_c, 0, 72, 49
1, 147143, Note_on_c, 0, 60, 0
1, 147146, Note_on_c, 0, 63, 0
1, 147146, Note_on_c, 0, 67, 43
1, 147146, Note_on_c, 0, 58, 37
1, 147190, Note_on_c, 0, 72, 0
1, 147190, Note_on_c, 0, 70, 44
1, 147238, Note_on_c, 0, 70, 0
1, 147238, Note_on_c, 0, 72, 49
1, 147285, Note_on_c, 0, 72, 0
1, 147285, Note_on_c, 0, 70, 44
1, 147330, Note_on_c, 0, 70, 0
1, 147330, Note_on_c, 0, 72, 49
1, 147330, Note_on_c, 0, 75, 64
1, 147333, Note_on_c, 0, 58, 0
1, 147333, Note_on_c, 0, 67, 0
1, 147333, Note_on_c, 0, 67, 47
1, 147336, Note_on_c, 0, 63, 40
1, 147377, Note_on_c, 0, 72, 0
1, 147377, Note_on_c, 0, 70, 43
1, 147425, Note_on_c, 0, 70, 0
1, 147425, Note_on_c, 0, 72, 48
1, 147471, Note_on_c, 0, 72, 0
1, 147471, Note_on_c, 0, 70, 38
1, 147517, Note_on_c, 0, 70, 0
1, 147517, Note_on_c, 0, 72, 46
1, 147566, Note_on_c, 0, 72, 0
1, 147566, Note_on_c, 0, 70, 39
1, 147614, Note_on_c, 0, 70, 0
1, 147614, Note_on_c, 0, 72, 44
1, 147663, Note_on_c, 0, 72, 0
1, 147663, Note_on_c, 0, 70, 38
1, 147712, Note_on_c, 0, 70, 0
1, 147712, Note_on_c, 0, 72, 43
1, 147712, Note_on_c, 0, 63, 0
1, 147715, Note_on_c, 0, 67, 0
1, 147715, Note_on_c, 0, 67, 43
1, 147715, Note_on_c, 0, 58, 37
1, 147762, Note_on_c, 0, 72, 0
1, 147762, Note_on_c, 0, 70, 37
1, 147817, Note_on_c, 0, 70, 0
1, 147817, Note_on_c, 0, 72, 40
1, 147877, Note_on_c, 0, 72, 0
1, 147877, Note_on_c, 0, 70, 34
1, 147944, Note_on_c, 0, 70, 0
1, 147944, Note_on_c, 0, 75, 0
1, 147944, Note_on_c, 0, 74, 65
1, 147947, Note_on_c, 0, 71, 40
1, 147947, Note_on_c, 0, 58, 0
1, 147947, Note_on_c, 0, 67, 0
1, 147950, Note_on_c, 0, 51, 0
1, 147950, Note_on_c, 0, 53, 47
1, 147950, Control_c, 0, 64, 0
1, 147993, Note_on_c, 0, 71, 0
1, 147993, Note_on_c, 0, 70, 37
1, 148041, Note_on_c, 0, 70, 0
1, 148041, Note_on_c, 0, 71, 41
1, 148058, Control_c, 0, 64, 127
1, 148090, Note_on_c, 0, 71, 0
1, 148090, Note_on_c, 0, 70, 38
1, 148139, Note_on_c, 0, 70, 0
1, 148139, Note_on_c, 0, 71, 43
1, 148187, Note_on_c, 0, 71, 0
1, 148187, Note_on_c, 0, 70, 38
1, 148236, Note_on_c, 0, 70, 0
1, 148236, Note_on_c, 0, 71, 44
1, 148284, Note_on_c, 0, 71, 0
1, 148284, Note_on_c, 0, 70, 38
1, 148333, Note_on_c, 0, 70, 0
1, 148333, Note_on_c, 0, 71, 45
1, 148333, Note_on_c, 0, 68, 41
1, 148336, Note_on_c, 0, 58, 36
1, 148380, Note_on_c, 0, 71, 0
1, 148380, Note_on_c, 0, 70, 39
1, 148426, Note_on_c, 0, 70, 0
1, 148426, Note_on_c, 0, 71, 46
1, 148472, Note_on_c, 0, 71, 0
1, 148472, Note_on_c, 0, 70, 40
1, 148519, Note_on_c, 0, 70, 0
1, 148519, Note_on_c, 0, 74, 0
1, 148519, Note_on_c, 0, 77, 71
1, 148522, Note_on_c, 0, 71, 47
1, 148522, Note_on_c, 0, 58, 0
1, 148522, Note_on_c, 0, 68, 0
1, 148525, Note_on_c, 0, 68, 47
1, 148525, Note_on_c, 0, 62, 40
1, 148566, Note_on_c, 0, 71, 0
1, 148566, Note_on_c, 0, 70, 43
1, 148612, Note_on_c, 0, 70, 0
1, 148612, Note_on_c, 0, 71, 48
1, 148658, Note_on_c, 0, 71, 0
1, 148658, Note_on_c, 0, 70, 44
1, 148705, Note_on_c, 0, 70, 0
1, 148705, Note_on_c, 0, 71, 48
1, 148752, Note_on_c, 0, 71, 0
1, 148752, Note_on_c, 0, 70, 43
1, 148798, Note_on_c, 0, 70, 0
1, 148798, Note_on_c, 0, 71, 49
1, 148844, Note_on_c, 0, 71, 0
1, 148844, Note_on_c, 0, 70, 43
1, 148891, Note_on_c, 0, 70, 0
1, 148891, Note_on_c, 0, 71, 49
1, 148891, Note_on_c, 0, 62, 0
1, 148894, Note_on_c, 0, 68, 0
1, 148894, Note_on_c, 0, 68, 43
1, 148894, Note_on_c, 0, 58, 37
1, 148938, Note_on_c, 0, 71, 0
1, 148938, Note_on_c, 0, 70, 44
1, 148985, Note_on_c, 0, 70, 0
1, 148985, Note_on_c, 0, 71, 49
1, 149031, Note_on_c, 0, 71, 0
1, 149031, Note_on_c, 0, 70, 44
1, 149078, Note_on_c, 0, 70, 0
1, 149078, Note_on_c, 0, 77, 0
1, 149078, Note_on_c, 0, 71, 49
1, 149081, Note_on_c, 0, 80, 74
1, 149081, Note_on_c, 0, 58, 0
1, 149081, Note_on_c, 0, 68, 0
1, 149084, Note_on_c, 0, 62, 40
1, 149084, Note_on_c, 0, 68, 47
1, 149126, Note_on_c, 0, 71, 0
1, 149126, Note_on_c, 0, 70, 44
1, 149174, Note_on_c, 0, 70, 0
1, 149174, Note_on_c, 0, 71, 49
1, 149220, Note_on_c, 0, 71, 0
1, 149220, Note_on_c, 0, 70, 45
1, 149269, Note_on_c, 0, 70, 0
1, 149269, Note_on_c, 0, 71, 49
1, 149317, Note_on_c, 0, 71, 0
1, 149317, Note_on_c, 0, 70, 44
1, 149365, Note_on_c, 0, 70, 0
1, 149365, Note_on_c, 0, 71, 49
1, 149412, Note_on_c, 0, 71, 0
1, 149412, Note_on_c, 0, 70, 44
1, 149459, Note_on_c, 0, 70, 0
1, 149459, Note_on_c, 0, 71, 49
1, 149459, Note_on_c, 0, 68, 0
1, 149462, Note_on_c, 0, 62, 0
1, 149462, Note_on_c, 0, 58, 37
1, 149462, Note_on_c, 0, 68, 43
1, 149507, Note_on_c, 0, 71, 0
1, 149507, Note_on_c, 0, 70, 44
1, 149555, Note_on_c, 0, 70, 0
1, 149555, Note_on_c, 0, 71, 49
1, 149603, Note_on_c, 0, 71, 0
1, 149603, Note_on_c, 0, 70, 43
1, 149650, Note_on_c, 0, 70, 0
1, 149650, Note_on_c, 0, 80, 0
1, 149650, Note_on_c, 0, 80, 77
1, 149653, Note_on_c, 0, 71, 49
1, 149653, Note_on_c, 0, 68, 0
1, 149653, Note_on_c, 0, 58, 0
1, 149656, Note_on_c, 0, 53, 0
1, 149656, Note_on_c, 0, 50, 47
1, 149656, Control_c, 0, 64, 0
1, 149698, Note_on_c, 0, 71, 0
1, 149698, Note_on_c, 0, 70, 43
1, 149747, Note_on_c, 0, 70, 0
1, 149747, Note_on_c, 0, 71, 48
1, 149762, Control_c, 0, 64, 127
1, 149795, Note_on_c, 0, 71, 0
1, 149795, Note_on_c, 0, 70, 43
1, 149842, Note_on_c, 0, 70, 0
1, 149842, Note_on_c, 0, 71, 48
1, 149889, Note_on_c, 0, 71, 0
1, 149889, Note_on_c, 0, 70, 41
1, 149935, Note_on_c, 0, 70, 0
1, 149935, Note_on_c, 0, 71, 48
1, 149983, Note_on_c, 0, 71, 0
1, 149983, Note_on_c, 0, 70, 40
1, 150030, Note_on_c, 0, 70, 0
1, 150030, Note_on_c, 0, 71, 47
1, 150030, Note_on_c, 0, 58, 37
1, 150033, Note_on_c, 0, 62, 43
1, 150076, Note_on_c, 0, 71, 0
1, 150076, Note_on_c, 0, 70, 40
1, 150123, Note_on_c, 0, 70, 0
1, 150123, Note_on_c, 0, 71, 47
1, 150170, Note_on_c, 0, 71, 0
1, 150170, Note_on_c, 0, 70, 40
1, 150217, Note_on_c, 0, 70, 0
1, 150217, Note_on_c, 0, 71, 46
1, 150217, Note_on_c, 0, 62, 0
1, 150220, Note_on_c, 0, 58, 0
1, 150220, Note_on_c, 0, 50, 0
1, 150220, Note_on_c, 0, 53, 47
1, 150263, Note_on_c, 0, 71, 0
1, 150263, Note_on_c, 0, 70, 40
1, 150310, Note_on_c, 0, 70, 0
1, 150310, Note_on_c, 0, 71, 45
1, 150358, Note_on_c, 0, 71, 0
1, 150358, Note_on_c, 0, 70, 40
1, 150405, Note_on_c, 0, 70, 0
1, 150405, Note_on_c, 0, 71, 45
1, 150452, Note_on_c, 0, 71, 0
1, 150452, Note_on_c, 0, 70, 38
1, 150500, Note_on_c, 0, 70, 0
1, 150500, Note_on_c, 0, 71, 44
1, 150545, Note_on_c, 0, 71, 0
1, 150545, Note_on_c, 0, 70, 38
1, 150591, Note_on_c, 0, 70, 0
1, 150591, Note_on_c, 0, 71, 44
1, 150591, Note_on_c, 0, 58, 37
1, 150594, Note_on_c, 0, 62, 43
1, 150639, Note_on_c, 0, 71, 0
1, 150639, Note_on_c, 0, 70, 38
1, 150686, Note_on_c, 0, 70, 0
1, 150686, Note_on_c, 0, 71, 43
1, 150733, Note_on_c, 0, 71, 0
1, 150733, Note_on_c, 0, 70, 38
1, 150781, Note_on_c, 0, 70, 0
1, 150781, Note_on_c, 0, 80, 0
1, 150781, Note_on_c, 0, 74, 64
1, 150784, Note_on_c, 0, 71, 41
1, 150784, Note_on_c, 0, 62, 0
1, 150784, Note_on_c, 0, 58, 0
1, 150787, Note_on_c, 0, 53, 0
1, 150787, Note_on_c, 0, 56, 47
1, 150829, Note_on_c, 0, 71, 0
1, 150829, Note_on_c, 0, 70, 37
1, 150877, Note_on_c, 0, 70, 0
1, 150877, Note_on_c, 0, 71, 41
1, 150925, Note_on_c, 0, 71, 0
1, 150925, Note_on_c, 0, 70, 37
1, 150973, Note_on_c, 0, 70, 0
1, 150973, Note_on_c, 0, 71, 32
1, 151021, Note_on_c, 0, 71, 0
1, 151021, Note_on_c, 0, 70, 35
1, 151070, Note_on_c, 0, 70, 0
1, 151070, Note_on_c, 0, 71, 38
1, 151119, Note_on_c, 0, 71, 0
1, 151119, Note_on_c, 0, 70, 35
1, 151167, Note_on_c, 0, 70, 0
1, 151167, Note_on_c, 0, 71, 38
1, 151167, Note_on_c, 0, 62, 37
1, 151170, Note_on_c, 0, 65, 43
1, 151170, Note_on_c, 0, 58, 37
1, 151218, Note_on_c, 0, 71, 0
1, 151218, Note_on_c, 0, 70, 35
1, 151274, Note_on_c, 0, 70, 0
1, 151274, Note_on_c, 0, 71, 38
1, 151336, Note_on_c, 0, 71, 0
1, 151336, Note_on_c, 0, 70, 34
1, 151405, Note_on_c, 0, 70, 0
1, 151405, Note_on_c, 0, 74, 0
1, 151405, Note_on_c, 0, 75, 65
1, 151408, Note_on_c, 0, 72, 40
1, 151408, Note_on_c, 0, 58, 0
1, 151408, Note_on_c, 0, 56, 0
1, 151411, Note_on_c, 0, 62, 0
1, 151411, Note_on_c, 0, 65, 0
1, 151411, Note_on_c, 0, 55, 47
1, 151411, Control_c, 0, 64, 0
1, 151453, Note_on_c, 0, 72, 0
1, 151453, Note_on_c, 0, 70, 37
1, 151502, Note_on_c, 0, 70, 0
1, 151502, Note_on_c, 0, 72, 41
1, 151519, Control_c, 0, 64, 127
1, 151550, Note_on_c, 0, 72, 0
1, 151550, Note_on_c, 0, 70, 37
1, 151599, Note_on_c, 0, 70, 0
1, 151599, Note_on_c, 0, 72, 41
1, 151648, Note_on_c, 0, 72, 0
1, 151648, Note_on_c, 0, 70, 38
1, 151696, Note_on_c, 0, 70, 0
1, 151696, Note_on_c, 0, 72, 43
1, 151745, Note_on_c, 0, 72, 0
1, 151745, Note_on_c, 0, 70, 37
1, 151793, Note_on_c, 0, 70, 0
1, 151793, Note_on_c, 0, 72, 44
1, 151793, Note_on_c, 0, 67, 41
1, 151796, Note_on_c, 0, 58, 36
1, 151839, Note_on_c, 0, 72, 0
1, 151839, Note_on_c, 0, 70, 38
1, 151885, Note_on_c, 0, 70, 0
1, 151885, Note_on_c, 0, 72, 44
1, 151932, Note_on_c, 0, 72, 0
1, 151932, Note_on_c, 0, 70, 39
1, 151978, Note_on_c, 0, 70, 0
1, 151978, Note_on_c, 0, 75, 0
1, 151978, Note_on_c, 0, 79, 71
1, 151981, Note_on_c, 0, 72, 45
1, 151981, Note_on_c, 0, 58, 0
1, 151981, Note_on_c, 0, 67, 0
1, 151984, Note_on_c, 0, 67, 47
1, 151984, Note_on_c, 0, 63, 40
1, 152024, Note_on_c, 0, 72, 0
1, 152024, Note_on_c, 0, 70, 40
1, 152071, Note_on_c, 0, 70, 0
1, 152071, Note_on_c, 0, 72, 46
1, 152119, Note_on_c, 0, 72, 0
1, 152119, Note_on_c, 0, 70, 41
1, 152166, Note_on_c, 0, 70, 0
1, 152166, Note_on_c, 0, 72, 47
1, 152212, Note_on_c, 0, 72, 0
1, 152212, Note_on_c, 0, 70, 39
1, 152258, Note_on_c, 0, 70, 0
1, 152258, Note_on_c, 0, 72, 47
1, 152305, Note_on_c, 0, 72, 0
1, 152305, Note_on_c, 0, 70, 40
1, 152351, Note_on_c, 0, 70, 0
1, 152351, Note_on_c, 0, 72, 48
1, 152351, Note_on_c, 0, 63, 0
1, 152354, Note_on_c, 0, 67, 0
1, 152354, Note_on_c, 0, 67, 43
1, 152354, Note_on_c, 0, 58, 37
1, 152398, Note_on_c, 0, 72, 0
1, 152398, Note_on_c, 0, 70, 41
1, 152445, Note_on_c, 0, 70, 0
1, 152445, Note_on_c, 0, 72, 48
1, 152492, Note_on_c, 0, 72, 0
1, 152492, Note_on_c, 0, 70, 43
1, 152538, Note_on_c, 0, 70, 0
1, 152538, Note_on_c, 0, 79, 0
1, 152538, Note_on_c, 0, 72, 48
1, 152541, Note_on_c, 0, 82, 74
1, 152541, Note_on_c, 0, 58, 0
1, 152541, Note_on_c, 0, 67, 0
1, 152544, Note_on_c, 0, 63, 40
1, 152544, Note_on_c, 0, 67, 47
1, 152586, Note_on_c, 0, 72, 0
1, 152586, Note_on_c, 0, 70, 44
1, 152633, Note_on_c, 0, 70, 0
1, 152633, Note_on_c, 0, 72, 49
1, 152681, Note_on_c, 0, 72, 0
1, 152681, Note_on_c, 0, 70, 44
1, 152729, Note_on_c, 0, 70, 0
1, 152729, Note_on_c, 0, 72, 49
1, 152776, Note_on_c, 0, 72, 0
1, 152776, Note_on_c, 0, 70, 44
1, 152823, Note_on_c, 0, 70, 0
1, 152823, Note_on_c, 0, 72, 49
1, 152872, Note_on_c, 0, 72, 0
1, 152872, Note_on_c, 0, 70, 44
1, 152920, Note_on_c, 0, 70, 0
1, 152920, Note_on_c, 0, 72, 49
1, 152920, Note_on_c, 0, 67, 0
1, 152923, Note_on_c, 0, 63, 0
1, 152923, Note_on_c, 0, 58, 37
1, 152923, Note_on_c, 0, 67, 43
1, 152967, Note_on_c, 0, 72, 0
1, 152967, Note_on_c, 0, 70, 44
1, 153014, Note_on_c, 0, 70, 0
1, 153014, Note_on_c, 0, 72, 49
1, 153063, Note_on_c, 0, 72, 0
1, 153063, Note_on_c, 0, 70, 43
1, 153111, Note_on_c, 0, 70, 0
1, 153111, Note_on_c, 0, 82, 0
1, 153111, Note_on_c, 0, 70, 70
1, 153114, Note_on_c, 0, 82, 77
1, 153114, Note_on_c, 0, 67, 0
1, 153114, Note_on_c, 0, 58, 0
1, 153117, Note_on_c, 0, 55, 0
1, 153117, Note_on_c, 0, 51, 47
1, 153117, Control_c, 0, 64, 0
1, 153226, Control_c, 0, 64, 127
1, 153508, Note_on_c, 0, 63, 38
1, 153508, Note_on_c, 0, 67, 44
1, 153608, Note_on_c, 0, 82, 0
1, 153608, Note_on_c, 0, 70, 0
1, 153608, Note_on_c, 0, 69, 56
1, 153657, Note_on_c, 0, 69, 0
1, 153657, Note_on_c, 0, 70, 60
1, 153707, Note_on_c, 0, 70, 0
1, 153707, Note_on_c, 0, 71, 62
1, 153707, Note_on_c, 0, 67, 0
1, 153710, Note_on_c, 0, 63, 0
1, 153710, Note_on_c, 0, 51, 0
1, 153710, Note_on_c, 0, 55, 49
1, 153768, Note_on_c, 0, 71, 0
1, 153768, Note_on_c, 0, 72, 63
1, 153826, Note_on_c, 0, 72, 0
1, 153826, Note_on_c, 0, 73, 64
1, 153884, Note_on_c, 0, 73, 0
1, 153884, Note_on_c, 0, 74, 64
1, 153941, Note_on_c, 0, 74, 0
1, 153941, Note_on_c, 0, 75, 65
1, 153998, Note_on_c, 0, 75, 0
1, 153998, Note_on_c, 0, 76, 66
1, 154056, Note_on_c, 0, 76, 0
1, 154056, Note_on_c, 0, 77, 68
1, 154112, Note_on_c, 0, 77, 0
1, 154112, Note_on_c, 0, 78, 68
1, 154112, Note_on_c, 0, 63, 39
1, 154115, Note_on_c, 0, 67, 46
1, 154162, Note_on_c, 0, 78, 0
1, 154162, Note_on_c, 0, 79, 69
1, 154212, Note_on_c, 0, 79, 0
1, 154212, Note_on_c, 0, 80, 70
1, 154263, Note_on_c, 0, 80, 0
1, 154263, Note_on_c, 0, 81, 70
1, 154313, Note_on_c, 0, 81, 0
1, 154313, Note_on_c, 0, 82, 71
1, 154313, Note_on_c, 0, 67, 0
1, 154316, Note_on_c, 0, 63, 0
1, 154316, Note_on_c, 0, 55, 0
1, 154316, Note_on_c, 0, 57, 52
1, 154395, Note_on_c, 0, 82, 0
1, 154395, Note_on_c, 0, 83, 72
1, 154478, Note_on_c, 0, 83, 0
1, 154478, Note_on_c, 0, 84, 73
1, 154561, Note_on_c, 0, 84, 0
1, 154561, Note_on_c, 0, 85, 74
1, 154647, Note_on_c, 0, 85, 0
1, 154647, Note_on_c, 0, 86, 75
1, 154737, Note_on_c, 0, 86, 0
1, 154737, Note_on_c, 0, 87, 77
1, 154737, Note_on_c, 0, 63, 41
1, 154740, Note_on_c, 0, 66, 41
1, 154806, Note_on_c, 0, 87, 0
1, 154806, Note_on_c, 0, 87, 77
1, 154875, Note_on_c, 0, 87, 0
1, 154875, Note_on_c, 0, 87, 78
1, 154944, Note_on_c, 0, 87, 0
1, 154944, Note_on_c, 0, 87, 78
1, 155013, Note_on_c, 0, 87, 0
1, 155019, Note_on_c, 0, 87, 78
1, 155082, Note_on_c, 0, 87, 78
1, 155082, Note_on_c, 0, 66, 0
1, 155082, Note_on_c, 0, 63, 0
1, 155085, Note_on_c, 0, 57, 0
1, 155085, Note_on_c, 0, 58, 43
1, 155085, Note_on_c, 0, 70, 49
1, 155085, Note_on_c, 0, 87, 0
1, 155088, Control_c, 0, 64, 0
1, 155125, Control_c, 0, 64, 127
1, 155134, Note_on_c, 0, 87, 0
1, 155185, Note_on_c, 0, 91, 72
1, 155237, Note_on_c, 0, 91, 0
1, 155289, Note_on_c, 0, 89, 72
1, 155340, Note_on_c, 0, 89, 0
1, 155392, Note_on_c, 0, 87, 72
1, 155443, Note_on_c, 0, 87, 0
1, 155495, Note_on_c, 0, 86, 71
1, 155495, Note_on_c, 0, 63, 40
1, 155495, Note_on_c, 0, 67, 47
1, 155546, Note_on_c, 0, 86, 0
1, 155598, Note_on_c, 0, 84, 72
1, 155656, Note_on_c, 0, 84, 0
1, 155714, Note_on_c, 0, 82, 78
1, 155714, Note_on_c, 0, 67, 0
1, 155714, Note_on_c, 0, 63, 0
1, 155717, Note_on_c, 0, 63, 40
1, 155717, Note_on_c, 0, 67, 47
1, 155817, Note_on_c, 0, 82, 0
1, 155817, Note_on_c, 0, 81, 69
1, 155920, Note_on_c, 0, 81, 0
1, 155920, Note_on_c, 0, 84, 72
1, 156023, Note_on_c, 0, 84, 0
1, 156023, Note_on_c, 0, 82, 71
1, 156126, Note_on_c, 0, 82, 0
1, 156126, Note_on_c, 0, 80, 70
1, 156126, Note_on_c, 0, 67, 0
1, 156129, Note_on_c, 0, 63, 0
1, 156129, Note_on_c, 0, 63, 40
1, 156129, Note_on_c, 0, 67, 47
1, 156229, Note_on_c, 0, 80, 0
1, 156229, Note_on_c, 0, 79, 69
1, 156344, Note_on_c, 0, 79, 0
1, 156344, Note_on_c, 0, 76, 64
1, 156344, Note_on_c, 0, 67, 0
1, 156347, Note_on_c, 0, 63, 0
1, 156347, Note_on_c, 0, 63, 45
1, 156347, Note_on_c, 0, 68, 52
1, 156353, Control_c, 0, 64, 0
1, 156390, Control_c, 0, 64, 127
1, 156398, Note_on_c, 0, 76, 0
1, 156398, Note_on_c, 0, 77, 64
1, 156452, Note_on_c, 0, 77, 0
1, 156452, Note_on_c, 0, 76, 64
1, 156506, Note_on_c, 0, 76, 0
1, 156506, Note_on_c, 0, 77, 64
1, 156560, Note_on_c, 0, 77, 0
1, 156560, Note_on_c, 0, 76, 64
1, 156617, Note_on_c, 0, 76, 0
1, 156617, Note_on_c, 0, 77, 64
1, 156674, Note_on_c, 0, 77, 0
1, 156674, Note_on_c, 0, 76, 64
1, 156731, Note_on_c, 0, 76, 0
1, 156731, Note_on_c, 0, 77, 66
1, 156788, Note_on_c, 0, 77, 0
1, 156788, Note_on_c, 0, 80, 71
1, 156788, Note_on_c, 0, 68, 0
1, 156791, Note_on_c, 0, 58, 0
1, 156791, Note_on_c, 0, 70, 0
1, 156791, Note_on_c, 0, 63, 0
1, 156794, Note_on_c, 0, 62, 40
1, 156794, Note_on_c, 0, 68, 47
1, 156798, Control_c, 0, 64, 0
1, 156815, Control_c, 0, 64, 127
1, 156975, Note_on_c, 0, 80, 0
1, 156975, Note_on_c, 0, 79, 66
1, 157056, Note_on_c, 0, 79, 0
1, 157056, Note_on_c, 0, 70, 68
1, 157056, Note_on_c, 0, 68, 0
1, 157059, Note_on_c, 0, 62, 0
1, 157059, Note_on_c, 0, 63, 44
1, 157059, Note_on_c, 0, 65, 44
1, 157062, Note_on_c, 0, 68, 51
1, 157062, Control_c, 0, 64, 0
1, 157567, Note_on_c, 0, 72, 63
1, 157567, Note_on_c, 0, 68, 0
1, 157567, Note_on_c, 0, 65, 0
1, 157570, Note_on_c, 0, 63, 0
1, 157570, Note_on_c, 0, 63, 40
1, 157570, Note_on_c, 0, 65, 40
1, 157573, Note_on_c, 0, 68, 47
1, 157689, Note_on_c, 0, 72, 0
1, 157689, Note_on_c, 0, 74, 64
1, 157812, Note_on_c, 0, 74, 0
1, 157812, Note_on_c, 0, 75, 68
1, 157812, Note_on_c, 0, 68, 0
1, 157815, Note_on_c, 0, 65, 0
1, 157815, Note_on_c, 0, 63, 0
1, 157815, Note_on_c, 0, 63, 41
1, 157818, Note_on_c, 0, 67, 48
1, 158058, Note_on_c, 0, 75, 0
1, 158303, Note_on_c, 0, 67, 0
1, 158303, Note_on_c, 0, 63, 0
1, 158303, Note_on_c, 0, 63, 48
1, 158306, Note_on_c, 0, 67, 48
1, 158426, Note_on_c, 0, 67, 0
1, 158426, Note_on_c, 0, 63, 0
1, 158426, Note_on_c, 0, 51, 52
1, 158487, Note_on_c, 0, 69, 57
1, 158487, Note_on_c, 0, 51, 0
1, 158487, Note_on_c, 0, 54, 57
1, 158549, Note_on_c, 0, 69, 0
1, 158549, Note_on_c, 0, 70, 0
1, 158549, Note_on_c, 0, 73, 70
1, 158552, Note_on_c, 0, 69, 68
1, 158552, Note_on_c, 0, 54, 0
1, 158552, Control_c, 0, 64, 127
1, 158555, Note_on_c, 0, 66, 64
1, 159032, Note_on_c, 0, 73, 0
1, 159032, Note_on_c, 0, 72, 68
1, 159032, Note_on_c, 0, 66, 0
1, 159035, Note_on_c, 0, 63, 48
1, 159035, Note_on_c, 0, 66, 48
1, 159155, Note_on_c, 0, 66, 0
1, 159155, Note_on_c, 0, 63, 0
1, 159155, Note_on_c, 0, 49, 47
1, 159217, Note_on_c, 0, 49, 0
1, 159217, Note_on_c, 0, 53, 49
1, 159278, Note_on_c, 0, 77, 71
1, 159278, Note_on_c, 0, 53, 0
1, 159278, Note_on_c, 0, 65, 58
1, 159284, Control_c, 0, 64, 0
1, 159330, Control_c, 0, 64, 127
1, 159762, Note_on_c, 0, 65, 0
1, 159762, Note_on_c, 0, 61, 48
1, 159762, Note_on_c, 0, 65, 48
1, 160010, Note_on_c, 0, 72, 0
1, 160010, Note_on_c, 0, 69, 0
1, 160010, Note_on_c, 0, 70, 68
1, 160013, Note_on_c, 0, 65, 0
1, 160013, Note_on_c, 0, 61, 0
1, 160013, Note_on_c, 0, 61, 52
1, 160016, Note_on_c, 0, 65, 52
1, 160020, Control_c, 0, 64, 0
1, 160044, Control_c, 0, 64, 127
1, 160493, Note_on_c, 0, 65, 0
1, 160493, Note_on_c, 0, 61, 0
1, 160493, Note_on_c, 0, 61, 48
1, 160496, Note_on_c, 0, 65, 48
1, 160741, Note_on_c, 0, 70, 0
1, 160741, Note_on_c, 0, 77, 0
1, 160741, Note_on_c, 0, 45, 60
1, 160744, Note_on_c, 0, 65, 0
1, 160744, Note_on_c, 0, 61, 0
1, 160744, Note_on_c, 0, 60, 52
1, 160747, Note_on_c, 0, 63, 52
1, 160747, Note_on_c, 0, 65, 52
1, 160747, Control_c, 0, 64, 0
1, 160776, Control_c, 0, 64, 127
1, 160803, Note_on_c, 0, 45, 0
1, 160803, Note_on_c, 0, 48, 61
1, 160865, Note_on_c, 0, 48, 0
1, 160865, Note_on_c, 0, 51, 61
1, 160927, Note_on_c, 0, 51, 0
1, 160927, Note_on_c, 0, 53, 62
1, 160988, Note_on_c, 0, 53, 0
1, 160988, Note_on_c, 0, 54, 63
1, 161049, Note_on_c, 0, 54, 0
1, 161049, Note_on_c, 0, 57, 64
1, 161110, Note_on_c, 0, 57, 0
1, 161110, Note_on_c, 0, 60, 64
1, 161171, Note_on_c, 0, 60, 0
1, 161171, Note_on_c, 0, 63, 65
1, 161231, Note_on_c, 0, 63, 0
1, 161231, Note_on_c, 0, 65, 66
1, 161231, Note_on_c, 0, 65, 0
1, 161234, Note_on_c, 0, 63, 0
1, 161234, Note_on_c, 0, 60, 0
1, 161234, Note_on_c, 0, 60, 48
1, 161237, Note_on_c, 0, 63, 48
1, 161279, Note_on_c, 0, 65, 0
1, 161279, Note_on_c, 0, 66, 66
1, 161327, Note_on_c, 0, 66, 0
1, 161327, Note_on_c, 0, 69, 68
1, 161375, Note_on_c, 0, 69, 0
1, 161375, Note_on_c, 0, 72, 69
1, 161424, Note_on_c, 0, 72, 0
1, 161424, Note_on_c, 0, 78, 69
1, 161472, Note_on_c, 0, 78, 0
1, 161472, Note_on_c, 0, 77, 72
1, 161472, Note_on_c, 0, 63, 0
1, 161475, Note_on_c, 0, 60, 0
1, 161475, Note_on_c, 0, 61, 52
1, 161475, Note_on_c, 0, 65, 52
1, 161479, Control_c, 0, 64, 0
1, 161597, Control_c, 0, 64, 127
1, 161960, Note_on_c, 0, 77, 0
1, 161960, Note_on_c, 0, 76, 66
1, 161960, Note_on_c, 0, 65, 0
1, 161963, Note_on_c, 0, 61, 0
1, 161963, Note_on_c, 0, 61, 48
1, 161963, Note_on_c, 0, 65, 48
1, 162003, Note_on_c, 0, 76, 0
1, 162003, Note_on_c, 0, 77, 61
1, 162046, Note_on_c, 0, 77, 0
1, 162046, Note_on_c, 0, 76, 65
1, 162089, Note_on_c, 0, 76, 0
1, 162089, Note_on_c, 0, 77, 61
1, 162132, Note_on_c, 0, 77, 0
1, 162132, Note_on_c, 0, 76, 65
1, 162174, Note_on_c, 0, 76, 0
1, 162174, Note_on_c, 0, 77, 60
1, 162217, Note_on_c, 0, 77, 0
1, 162217, Note_on_c, 0, 82, 68
1, 162217, Note_on_c, 0, 65, 0
1, 162220, Note_on_c, 0, 61, 0
1, 162220, Note_on_c, 0, 61, 48
1, 162220, Note_on_c, 0, 65, 48
1, 162228, Control_c, 0, 64, 0
1, 162270, Control_c, 0, 64, 127
1, 162714, Note_on_c, 0, 82, 0
1, 162714, Note_on_c, 0, 82, 68
1, 162714, Note_on_c, 0, 65, 0
1, 162717, Note_on_c, 0, 61, 0
1, 162717, Note_on_c, 0, 61, 52
1, 162717, Note_on_c, 0, 65, 52
1, 162838, Note_on_c, 0, 82, 0
1, 162838, Note_on_c, 0, 83, 71
1, 162973, Note_on_c, 0, 83, 0
1, 162973, Note_on_c, 0, 84, 70
1, 162973, Note_on_c, 0, 65, 0
1, 162976, Note_on_c, 0, 61, 0
1, 162976, Note_on_c, 0, 61, 53
1, 162976, Note_on_c, 0, 65, 53
1, 162979, Note_on_c, 0, 67, 53
1, 162984, Control_c, 0, 64, 0
1, 163015, Control_c, 0, 64, 127
1, 163037, Note_on_c, 0, 84, 0
1, 163037, Note_on_c, 0, 83, 70
1, 163101, Note_on_c, 0, 83, 0
1, 163101, Note_on_c, 0, 84, 71
1, 163164, Note_on_c, 0, 84, 0
1, 163164, Note_on_c, 0, 83, 72
1, 163227, Note_on_c, 0, 83, 0
1, 163227, Note_on_c, 0, 84, 73
1, 163290, Note_on_c, 0, 84, 0
1, 163290, Note_on_c, 0, 83, 74
1, 163353, Note_on_c, 0, 83, 0
1, 163353, Note_on_c, 0, 84, 75
1, 163415, Note_on_c, 0, 84, 0
1, 163415, Note_on_c, 0, 83, 75
1, 163477, Note_on_c, 0, 83, 0
1, 163477, Note_on_c, 0, 84, 78
1, 163477, Note_on_c, 0, 67, 0
1, 163480, Note_on_c, 0, 65, 0
1, 163480, Note_on_c, 0, 61, 0
1, 163480, Note_on_c, 0, 61, 58
1, 163483, Note_on_c, 0, 65, 58
1, 163483, Note_on_c, 0, 67, 58
1, 163527, Note_on_c, 0, 84, 0
1, 163527, Note_on_c, 0, 83, 79
1, 163578, Note_on_c, 0, 83, 0
1, 163578, Note_on_c, 0, 84, 79
1, 163633, Note_on_c, 0, 84, 0
1, 163633, Note_on_c, 0, 82, 80
1, 163695, Note_on_c, 0, 82, 0
1, 163695, Note_on_c, 0, 83, 82
1, 163768, Note_on_c, 0, 83, 0
1, 163768, Note_on_c, 0, 84, 87
1, 163768, Note_on_c, 0, 67, 0
1, 163771, Note_on_c, 0, 65, 0
1, 163771, Note_on_c, 0, 61, 0
1, 163771, Note_on_c, 0, 60, 63
1, 163774, Note_on_c, 0, 64, 63
1, 163774, Note_on_c, 0, 67, 63
1, 163774, Control_c, 0, 64, 0
1, 163890, Control_c, 0, 64, 127
1, 164256, Note_on_c, 0, 67, 0
1, 164256, Note_on_c, 0, 64, 0
1, 164256, Note_on_c, 0, 60, 0
1, 164259, Note_on_c, 0, 60, 52
1, 164259, Note_on_c, 0, 64, 52
1, 164259, Note_on_c, 0, 67, 52
1, 164495, Note_on_c, 0, 67, 0
1, 164495, Note_on_c, 0, 64, 0
1, 164495, Note_on_c, 0, 60, 0
1, 164498, Note_on_c, 0, 60, 55
1, 164498, Note_on_c, 0, 64, 55
1, 164498, Note_on_c, 0, 67, 55
1, 164614, Note_on_c, 0, 84, 0
1, 164614, Note_on_c, 0, 79, 80
1, 164734, Note_on_c, 0, 79, 0
1, 164734, Note_on_c, 0, 76, 78
1, 164850, Note_on_c, 0, 76, 0
1, 164850, Note_on_c, 0, 72, 77
1, 164965, Note_on_c, 0, 72, 0
1, 164965, Note_on_c, 0, 67, 75
1, 164965, Note_on_c, 0, 67, 0
1, 164968, Note_on_c, 0, 64, 0
1, 164968, Note_on_c, 0, 60, 0
1, 164968, Note_on_c, 0, 60, 49
1, 164971, Note_on_c, 0, 64, 49
1, 165079, Note_on_c, 0, 67, 0
1, 165079, Note_on_c, 0, 64, 74
1, 165192, Note_on_c, 0, 64, 0
1, 165192, Note_on_c, 0, 68, 73
1, 165192, Note_on_c, 0, 64, 0
1, 165195, Note_on_c, 0, 60, 0
1, 165195, Note_on_c, 0, 48, 55
1, 165195, Note_on_c, 0, 53, 55
1, 165195, Control_c, 0, 64, 0
1, 165240, Control_c, 0, 64, 127
1, 165305, Note_on_c, 0, 68, 0
1, 165305, Note_on_c, 0, 65, 71
1, 165417, Note_on_c, 0, 65, 0
1, 165417, Note_on_c, 0, 61, 71
1, 165417, Note_on_c, 0, 53, 0
1, 165420, Note_on_c, 0, 48, 0
1, 165528, Note_on_c, 0, 61, 0
1, 165528, Note_on_c, 0, 59, 70
1, 165640, Note_on_c, 0, 59, 0
1, 165640, Note_on_c, 0, 56, 69
1, 165751, Note_on_c, 0, 56, 0
1, 165751, Note_on_c, 0, 53, 66
1, 165751, Note_on_c, 0, 47, 54
1, 165862, Note_on_c, 0, 53, 0
1, 165862, Note_on_c, 0, 52, 70
1, 165862, Note_on_c, 0, 47, 0
1, 165865, Note_on_c, 0, 48, 60
1, 165865, Control_c, 0, 64, 0
1, 165973, Note_on_c, 0, 52, 0
1, 165973, Note_on_c, 0, 55, 66
1, 166085, Note_on_c, 0, 55, 0
1, 166085, Note_on_c, 0, 60, 66
1, 166085, Note_on_c, 0, 48, 0
1, 166088, Note_on_c, 0, 36, 54
1, 166111, Control_c, 0, 64, 127
1, 166196, Note_on_c, 0, 60, 0
1, 166196, Note_on_c, 0, 64, 66
1, 166196, Note_on_c, 0, 36, 0
1, 166307, Note_on_c, 0, 64, 0
1, 166307, Note_on_c, 0, 54, 63
1, 166307, Note_on_c, 0, 44, 54
1, 166413, Note_on_c, 0, 54, 0
1, 166413, Note_on_c, 0, 63, 63
1, 166522, Note_on_c, 0, 63, 0
1, 166522, Note_on_c, 0, 53, 70
1, 166522, Note_on_c, 0, 44, 0
1, 166525, Note_on_c, 0, 49, 61
1, 166528, Control_c, 0, 64, 0
1, 166631, Note_on_c, 0, 53, 0
1, 166631, Note_on_c, 0, 56, 66
1, 166741, Note_on_c, 0, 56, 0
1, 166741, Note_on_c, 0, 61, 66
1, 166741, Note_on_c, 0, 49, 0
1, 166744, Note_on_c, 0, 37, 54
1, 166766, Control_c, 0, 64, 127
1, 166847, Note_on_c, 0, 61, 0
1, 166847, Note_on_c, 0, 65, 66
1, 166847, Note_on_c, 0, 37, 0
1, 166953, Note_on_c, 0, 65, 0
1, 166953, Note_on_c, 0, 56, 63
1, 166953, Note_on_c, 0, 53, 54
1, 167056, Note_on_c, 0, 56, 0
1, 167056, Note_on_c, 0, 68, 63
1, 167162, Note_on_c, 0, 68, 0
1, 167162, Note_on_c, 0, 59, 72
1, 167162, Note_on_c, 0, 53, 0
1, 167165, Note_on_c, 0, 55, 61
1, 167169, Control_c, 0, 64, 0
1, 167267, Note_on_c, 0, 59, 0
1, 167267, Note_on_c, 0, 62, 68
1, 167372, Note_on_c, 0, 62, 0
1, 167372, Note_on_c, 0, 65, 68
1, 167372, Note_on_c, 0, 55, 0
1, 167375, Note_on_c, 0, 43, 54
1, 167412, Control_c, 0, 64, 127
1, 167475, Note_on_c, 0, 65, 0
1, 167475, Note_on_c, 0, 71, 68
1, 167475, Note_on_c, 0, 43, 0
1, 167578, Note_on_c, 0, 71, 0
1, 167578, Note_on_c, 0, 65, 62
1, 167578, Note_on_c, 0, 59, 54
1, 167676, Note_on_c, 0, 65, 0
1, 167676, Note_on_c, 0, 77, 63
1, 167777, Note_on_c, 0, 77, 0
1, 167777, Note_on_c, 0, 64, 73
1, 167777, Note_on_c, 0, 59, 0
1, 167780, Note_on_c, 0, 60, 61
1, 167785, Control_c, 0, 64, 0
1, 167878, Note_on_c, 0, 64, 0
1, 167878, Note_on_c, 0, 67, 68
1, 167980, Note_on_c, 0, 67, 0
1, 167980, Note_on_c, 0, 72, 68
1, 167980, Note_on_c, 0, 60, 0
1, 167983, Note_on_c, 0, 48, 55
1, 168003, Control_c, 0, 64, 127
1, 168078, Note_on_c, 0, 72, 0
1, 168078, Note_on_c, 0, 76, 69
1, 168078, Note_on_c, 0, 48, 0
1, 168177, Note_on_c, 0, 76, 0
1, 168177, Note_on_c, 0, 66, 66
1, 168177, Note_on_c, 0, 56, 56
1, 168273, Note_on_c, 0, 66, 0
1, 168273, Note_on_c, 0, 75, 66
1, 168371, Note_on_c, 0, 75, 0
1, 168371, Note_on_c, 0, 65, 75
1, 168371, Note_on_c, 0, 56, 0
1, 168374, Note_on_c, 0, 61, 64
1, 168378, Control_c, 0, 64, 0
1, 168469, Note_on_c, 0, 65, 0
1, 168469, Note_on_c, 0, 68, 72
1, 168567, Note_on_c, 0, 68, 0
1, 168567, Note_on_c, 0, 73, 72
1, 168567, Note_on_c, 0, 61, 0
1, 168570, Note_on_c, 0, 49, 57
1, 168570, Control_c, 0, 64, 127
1, 168663, Note_on_c, 0, 73, 0
1, 168663, Note_on_c, 0, 77, 73
1, 168663, Note_on_c, 0, 49, 0
1, 168759, Note_on_c, 0, 77, 0
1, 168759, Note_on_c, 0, 68, 70
1, 168759, Note_on_c, 0, 65, 60
1, 168851, Note_on_c, 0, 68, 0
1, 168851, Note_on_c, 0, 80, 70
1, 168946, Note_on_c, 0, 80, 0
1, 168946, Note_on_c, 0, 71, 83
1, 168946, Note_on_c, 0, 65, 0
1, 168949, Note_on_c, 0, 67, 69
1, 168954, Control_c, 0, 64, 0
1, 169040, Note_on_c, 0, 71, 0
1, 169040, Note_on_c, 0, 74, 75
1, 169135, Note_on_c, 0, 74, 0
1, 169135, Note_on_c, 0, 77, 75
1, 169135, Note_on_c, 0, 67, 0
1, 169138, Note_on_c, 0, 55, 62
1, 169157, Control_c, 0, 64, 127
1, 169226, Note_on_c, 0, 77, 0
1, 169226, Note_on_c, 0, 83, 78
1, 169226, Note_on_c, 0, 55, 0
1, 169317, Note_on_c, 0, 83, 0
1, 169317, Note_on_c, 0, 77, 73
1, 169317, Note_on_c, 0, 71, 63
1, 169404, Note_on_c, 0, 77, 0
1, 169404, Note_on_c, 0, 89, 73
1, 169493, Note_on_c, 0, 89, 0
1, 169493, Note_on_c, 0, 76, 83
1, 169493, Note_on_c, 0, 71, 0
1, 169496, Note_on_c, 0, 72, 71
1, 169496, Control_c, 0, 64, 0
1, 169582, Note_on_c, 0, 76, 0
1, 169582, Note_on_c, 0, 79, 80
1, 169671, Note_on_c, 0, 79, 0
1, 169671, Note_on_c, 0, 84, 81
1, 169671, Note_on_c, 0, 72, 0
1, 169674, Note_on_c, 0, 60, 65
1, 169708, Control_c, 0, 64, 127
1, 169758, Note_on_c, 0, 84, 0
1, 169758, Note_on_c, 0, 88, 82
1, 169758, Note_on_c, 0, 60, 0
1, 169845, Note_on_c, 0, 88, 0
1, 169845, Note_on_c, 0, 78, 79
1, 169845, Note_on_c, 0, 68, 66
1, 169929, Note_on_c, 0, 78, 0
1, 169929, Note_on_c, 0, 87, 79
1, 170013, Note_on_c, 0, 87, 0
1, 170013, Note_on_c, 0, 77, 88
1, 170013, Note_on_c, 0, 68, 0
1, 170016, Note_on_c, 0, 73, 75
1, 170020, Control_c, 0, 64, 0
1, 170096, Note_on_c, 0, 77, 0
1, 170096, Note_on_c, 0, 80, 84
1, 170179, Note_on_c, 0, 80, 0
1, 170179, Note_on_c, 0, 85, 87
1, 170179, Note_on_c, 0, 73, 0
1, 170182, Note_on_c, 0, 61, 70
1, 170210, Control_c, 0, 64, 127
1, 170261, Note_on_c, 0, 85, 0
1, 170261, Note_on_c, 0, 89, 87
1, 170261, Note_on_c, 0, 61, 0
1, 170343, Note_on_c, 0, 89, 0
1, 170343, Note_on_c, 0, 80, 82
1, 170343, Note_on_c, 0, 77, 71
1, 170425, Note_on_c, 0, 80, 0
1, 170425, Note_on_c, 0, 92, 82
1, 170505, Note_on_c, 0, 92, 0
1, 170505, Note_on_c, 0, 83, 95
1, 170505, Note_on_c, 0, 77, 0
1, 170508, Note_on_c, 0, 79, 80
1, 170512, Control_c, 0, 64, 0
1, 170586, Note_on_c, 0, 83, 0
1, 170586, Note_on_c, 0, 86, 90
1, 170665, Note_on_c, 0, 86, 0
1, 170665, Note_on_c, 0, 89, 91
1, 170665, Note_on_c, 0, 79, 0
1, 170668, Note_on_c, 0, 67, 72
1, 170696, Control_c, 0, 64, 127
1, 170744, Note_on_c, 0, 89, 0
1, 170744, Note_on_c, 0, 95, 91
1, 170744, Note_on_c, 0, 67, 0
1, 170823, Note_on_c, 0, 95, 0
1, 170823, Note_on_c, 0, 89, 84
1, 170823, Note_on_c, 0, 83, 73
1, 170901, Note_on_c, 0, 89, 0
1, 170901, Note_on_c, 0, 101, 86
1, 170979, Note_on_c, 0, 101, 0
1, 170979, Note_on_c, 0, 88, 88
1, 170979, Note_on_c, 0, 83, 0
1, 170982, Note_on_c, 0, 84, 77
1, 170982, Control_c, 0, 64, 0
1, 171055, Note_on_c, 0, 88, 0
1, 171055, Note_on_c, 0, 100, 89
1, 171055, Note_on_c, 0, 84, 0
1, 171129, Note_on_c, 0, 100, 0
1, 171129, Note_on_c, 0, 95, 97
1, 171204, Note_on_c, 0, 95, 0
1, 171204, Note_on_c, 0, 100, 90
1, 171278, Note_on_c, 0, 100, 0
1, 171278, Note_on_c, 0, 96, 87
1, 171352, Note_on_c, 0, 96, 0
1, 171352, Note_on_c, 0, 91, 87
1, 171371, Note_on_c, 0, 60, 79
1, 171390, Note_on_c, 0, 67, 82
1, 171408, Note_on_c, 0, 70, 84
1, 171427, Note_on_c, 0, 91, 0
1, 171427, Note_on_c, 0, 88, 90
1, 171427, Note_on_c, 0, 76, 88
1, 171445, Control_c, 0, 64, 127
1, 171503, Note_on_c, 0, 88, 0
1, 171503, Note_on_c, 0, 96, 90
1, 171577, Note_on_c, 0, 96, 0
1, 171577, Note_on_c, 0, 90, 97
1, 171652, Note_on_c, 0, 90, 0
1, 171652, Note_on_c, 0, 96, 90
1, 171726, Note_on_c, 0, 96, 0
1, 171726, Note_on_c, 0, 91, 90
1, 171726, Note_on_c, 0, 76, 0
1, 171729, Note_on_c, 0, 60, 0
1, 171729, Note_on_c, 0, 67, 0
1, 171729, Note_on_c, 0, 70, 0
1, 171800, Note_on_c, 0, 91, 0
1, 171800, Note_on_c, 0, 88, 88
1, 171875, Note_on_c, 0, 88, 0
1, 171875, Note_on_c, 0, 84, 90
1, 171951, Note_on_c, 0, 84, 0
1, 171951, Note_on_c, 0, 91, 90
1, 172025, Note_on_c, 0, 91, 0
1, 172025, Note_on_c, 0, 87, 96
1, 172100, Note_on_c, 0, 87, 0
1, 172100, Note_on_c, 0, 91, 90
1, 172174, Note_on_c, 0, 91, 0
1, 172174, Note_on_c, 0, 88, 88
1, 172248, Note_on_c, 0, 88, 0
1, 172248, Note_on_c, 0, 84, 89
1, 172323, Note_on_c, 0, 84, 0
1, 172323, Note_on_c, 0, 79, 90
1, 172399, Note_on_c, 0, 79, 0
1, 172399, Note_on_c, 0, 88, 90
1, 172473, Note_on_c, 0, 88, 0
1, 172473, Note_on_c, 0, 83, 95
1, 172547, Note_on_c, 0, 83, 0
1, 172547, Note_on_c, 0, 88, 90
1, 172622, Note_on_c, 0, 88, 0
1, 172622, Note_on_c, 0, 84, 87
1, 172696, Note_on_c, 0, 84, 0
1, 172696, Note_on_c, 0, 79, 87
1, 172771, Note_on_c, 0, 79, 0
1, 172771, Note_on_c, 0, 76, 90
1, 172847, Note_on_c, 0, 76, 0
1, 172847, Note_on_c, 0, 84, 90
1, 172921, Note_on_c, 0, 84, 0
1, 172921, Note_on_c, 0, 78, 96
1, 172995, Note_on_c, 0, 78, 0
1, 172995, Note_on_c, 0, 84, 90
1, 173070, Note_on_c, 0, 84, 0
1, 173070, Note_on_c, 0, 79, 88
1, 173144, Note_on_c, 0, 79, 0
1, 173144, Note_on_c, 0, 76, 88
1, 173219, Note_on_c, 0, 76, 0
1, 173219, Note_on_c, 0, 72, 88
1, 173295, Note_on_c, 0, 72, 0
1, 173295, Note_on_c, 0, 79, 87
1, 173369, Note_on_c, 0, 79, 0
1, 173369, Note_on_c, 0, 75, 90
1, 173443, Note_on_c, 0, 75, 0
1, 173443, Note_on_c, 0, 79, 84
1, 173518, Note_on_c, 0, 79, 0
1, 173518, Note_on_c, 0, 76, 81
1, 173592, Note_on_c, 0, 76, 0
1, 173592, Note_on_c, 0, 72, 81
1, 173668, Note_on_c, 0, 72, 0
1, 173668, Note_on_c, 0, 67, 82
1, 173746, Note_on_c, 0, 67, 0
1, 173746, Note_on_c, 0, 76, 77
1, 173822, Note_on_c, 0, 76, 0
1, 173822, Note_on_c, 0, 71, 83
1, 173900, Note_on_c, 0, 71, 0
1, 173900, Note_on_c, 0, 76, 74
1, 173978, Note_on_c, 0, 76, 0
1, 173978, Note_on_c, 0, 72, 74
1, 174057, Note_on_c, 0, 72, 0
1, 174057, Note_on_c, 0, 70, 72
1, 174138, Note_on_c, 0, 70, 0
1, 174138, Note_on_c, 0, 67, 71
1, 174219, Note_on_c, 0, 67, 0
1, 174219, Note_on_c, 0, 64, 70
1, 174301, Note_on_c, 0, 64, 0
1, 174301, Note_on_c, 0, 60, 70
1, 174301, Control_c, 0, 64, 0
1, 174384, Note_on_c, 0, 60, 0
1, 174384, Note_on_c, 0, 58, 69
1, 174468, Note_on_c, 0, 58, 0
1, 174468, Note_on_c, 0, 55, 68
1, 174553, Note_on_c, 0, 55, 0
1, 174553, Note_on_c, 0, 52, 66
1, 174640, Note_on_c, 0, 52, 0
1, 174640, Note_on_c, 0, 36, 73
1, 174648, Control_c, 0, 64, 127
1, 174730, Note_on_c, 0, 36, 0
1, 174730, Note_on_c, 0, 46, 69
1, 174818, Note_on_c, 0, 46, 0
1, 174818, Note_on_c, 0, 48, 70
1, 174906, Note_on_c, 0, 48, 0
1, 174906, Note_on_c, 0, 52, 70
1, 174995, Note_on_c, 0, 52, 0
1, 174995, Note_on_c, 0, 57, 73
1, 175085, Note_on_c, 0, 57, 0
1, 175085, Note_on_c, 0, 58, 70
1, 175173, Note_on_c, 0, 60, 70
1, 175261, Note_on_c, 0, 60, 0
1, 175261, Note_on_c, 0, 58, 0
1, 175261, Note_on_c, 0, 64, 70
1, 175348, Note_on_c, 0, 69, 77
1, 175348, Note_on_c, 0, 64, 0
1, 175439, Note_on_c, 0, 69, 0
1, 175439, Note_on_c, 0, 70, 71
1, 175527, Note_on_c, 0, 72, 71
1, 175614, Note_on_c, 0, 72, 0
1, 175614, Note_on_c, 0, 70, 0
1, 175614, Note_on_c, 0, 76, 71
1, 175702, Note_on_c, 0, 76, 0
1, 175702, Note_on_c, 0, 81, 80
1, 175790, Note_on_c, 0, 81, 0
1, 175790, Note_on_c, 0, 82, 70
1, 175878, Note_on_c, 0, 84, 70
1, 175967, Note_on_c, 0, 84, 0
1, 175967, Note_on_c, 0, 82, 0
1, 175967, Note_on_c, 0, 88, 71
1, 176055, Note_on_c, 0, 88, 0
1, 176055, Note_on_c, 0, 93, 80
1, 176055, Control_c, 0, 64, 0
1, 176125, Note_on_c, 0, 93, 0
1, 176125, Note_on_c, 0, 91, 73
1, 176195, Note_on_c, 0, 91, 0
1, 176195, Note_on_c, 0, 90, 74
1, 176267, Note_on_c, 0, 90, 0
1, 176267, Note_on_c, 0, 91, 74
1, 176341, Note_on_c, 0, 91, 0
1, 176341, Note_on_c, 0, 93, 81
1, 176416, Note_on_c, 0, 93, 0
1, 176416, Note_on_c, 0, 91, 57
1, 176416, Note_on_c, 0, 48, 64
1, 176446, Control_c, 0, 64, 127
1, 176471, Note_on_c, 0, 91, 0
1, 176471, Note_on_c, 0, 93, 51
1, 176520, Note_on_c, 0, 93, 0
1, 176520, Note_on_c, 0, 91, 55
1, 176570, Note_on_c, 0, 91, 0
1, 176570, Note_on_c, 0, 93, 49
1, 176618, Note_on_c, 0, 93, 0
1, 176618, Note_on_c, 0, 91, 56
1, 176618, Note_on_c, 0, 48, 0
1, 176667, Note_on_c, 0, 91, 0
1, 176667, Note_on_c, 0, 93, 49
1, 176715, Note_on_c, 0, 93, 0
1, 176715, Note_on_c, 0, 91, 56
1, 176764, Note_on_c, 0, 91, 0
1, 176764, Note_on_c, 0, 93, 51
1, 176812, Note_on_c, 0, 93, 0
1, 176812, Note_on_c, 0, 91, 57
1, 176812, Note_on_c, 0, 58, 58
1, 176860, Note_on_c, 0, 91, 0
1, 176860, Note_on_c, 0, 93, 53
1, 176908, Note_on_c, 0, 93, 0
1, 176908, Note_on_c, 0, 91, 57
1, 176955, Note_on_c, 0, 91, 0
1, 176955, Note_on_c, 0, 93, 53
1, 177002, Note_on_c, 0, 93, 0
1, 177002, Note_on_c, 0, 91, 58
1, 177002, Note_on_c, 0, 58, 0
1, 177048, Note_on_c, 0, 91, 0
1, 177048, Note_on_c, 0, 93, 54
1, 177094, Note_on_c, 0, 93, 0
1, 177094, Note_on_c, 0, 91, 60
1, 177140, Note_on_c, 0, 91, 0
1, 177140, Note_on_c, 0, 93, 56
1, 177185, Note_on_c, 0, 93, 0
1, 177185, Note_on_c, 0, 91, 62
1, 177185, Note_on_c, 0, 64, 61
1, 177230, Note_on_c, 0, 91, 0
1, 177230, Note_on_c, 0, 93, 56
1, 177275, Note_on_c, 0, 93, 0
1, 177275, Note_on_c, 0, 91, 62
1, 177320, Note_on_c, 0, 91, 0
1, 177320, Note_on_c, 0, 93, 57
1, 177366, Note_on_c, 0, 93, 0
1, 177366, Note_on_c, 0, 91, 64
1, 177366, Note_on_c, 0, 64, 0
1, 177412, Note_on_c, 0, 91, 0
1, 177412, Note_on_c, 0, 93, 57
1, 177459, Note_on_c, 0, 93, 0
1, 177459, Note_on_c, 0, 91, 65
1, 177507, Note_on_c, 0, 91, 0
1, 177507, Note_on_c, 0, 93, 57
1, 177553, Note_on_c, 0, 93, 0
1, 177553, Note_on_c, 0, 91, 65
1, 177553, Note_on_c, 0, 70, 65
1, 177599, Note_on_c, 0, 91, 0
1, 177599, Note_on_c, 0, 93, 58
1, 177646, Note_on_c, 0, 93, 0
1, 177646, Note_on_c, 0, 91, 64
1, 177693, Note_on_c, 0, 91, 0
1, 177693, Note_on_c, 0, 93, 58
1, 177740, Note_on_c, 0, 93, 0
1, 177740, Note_on_c, 0, 91, 64
1, 177740, Note_on_c, 0, 70, 0
1, 177787, Note_on_c, 0, 91, 0
1, 177787, Note_on_c, 0, 93, 56
1, 177834, Note_on_c, 0, 93, 0
1, 177834, Note_on_c, 0, 91, 63
1, 177881, Note_on_c, 0, 91, 0
1, 177881, Note_on_c, 0, 93, 56
1, 177929, Note_on_c, 0, 93, 0
1, 177929, Note_on_c, 0, 91, 62
1, 177929, Note_on_c, 0, 76, 60
1, 177977, Note_on_c, 0, 91, 0
1, 177977, Note_on_c, 0, 93, 56
1, 178026, Note_on_c, 0, 93, 0
1, 178026, Note_on_c, 0, 91, 61
1, 178076, Note_on_c, 0, 91, 0
1, 178076, Note_on_c, 0, 93, 51
1, 178127, Note_on_c, 0, 93, 0
1, 178127, Note_on_c, 0, 91, 57
1, 178127, Note_on_c, 0, 76, 0
1, 178178, Note_on_c, 0, 91, 0
1, 178178, Note_on_c, 0, 93, 48
1, 178231, Note_on_c, 0, 93, 0
1, 178231, Note_on_c, 0, 91, 60
1, 178285, Note_on_c, 0, 91, 0
1, 178285, Note_on_c, 0, 93, 49
1, 178336, Note_on_c, 0, 93, 0
1, 178336, Note_on_c, 0, 91, 58
1, 178336, Note_on_c, 0, 82, 56
1, 178393, Note_on_c, 0, 91, 0
1, 178393, Note_on_c, 0, 93, 53
1, 178451, Note_on_c, 0, 93, 0
1, 178451, Note_on_c, 0, 91, 51
1, 178511, Note_on_c, 0, 91, 0
1, 178511, Note_on_c, 0, 90, 57
1, 178511, Note_on_c, 0, 82, 0
1, 178601, Note_on_c, 0, 90, 0
1, 178601, Note_on_c, 0, 91, 60
1, 178692, Note_on_c, 0, 91, 0
1, 178692, Note_on_c, 0, 93, 60
1, 178821, Note_on_c, 0, 93, 0
1, 178821, Note_on_c, 0, 91, 66
1, 178821, Note_on_c, 0, 88, 54
1, 179273, Note_on_c, 0, 91, 0
1, 179273, Note_on_c, 0, 88, 0
1, 179276, Control_c, 0, 91, 127
1, 179276, Control_c, 0, 64, 0
1, 179772, Control_c, 0, 91, 127
1, 180245, Control_c, 0, 64, 127
1, 180254, Note_on_c, 0, 63, 49
1, 180254, Note_on_c, 0, 69, 58
1, 180254, Note_on_c, 0, 48, 41
1, 180257, Note_on_c, 0, 54, 41
1, 180257, Note_on_c, 0, 60, 48
1, 180575, Note_on_c, 0, 69, 0
1, 180575, Note_on_c, 0, 63, 0
1, 180575, Note_on_c, 0, 63, 48
1, 180578, Note_on_c, 0, 69, 57
1, 180578, Note_on_c, 0, 60, 0
1, 180578, Note_on_c, 0, 54, 0
1, 180581, Note_on_c, 0, 48, 0
1, 180581, Note_on_c, 0, 48, 38
1, 180581, Note_on_c, 0, 54, 38
1, 180584, Note_on_c, 0, 60, 45
1, 180732, Note_on_c, 0, 69, 0
1, 180732, Note_on_c, 0, 63, 0
1, 180732, Note_on_c, 0, 64, 54
1, 180735, Note_on_c, 0, 70, 64
1, 180735, Note_on_c, 0, 60, 0
1, 180735, Note_on_c, 0, 54, 0
1, 180738, Note_on_c, 0, 48, 0
1, 180738, Note_on_c, 0, 48, 43
1, 180738, Note_on_c, 0, 55, 43
1, 180741, Note_on_c, 0, 60, 49
1, 180741, Control_c, 0, 64, 0
1, 180894, Control_c, 0, 64, 127
1, 181052, Note_on_c, 0, 70, 0
1, 181052, Note_on_c, 0, 64, 0
1, 181052, Note_on_c, 0, 64, 53
1, 181055, Note_on_c, 0, 70, 62
1, 181055, Note_on_c, 0, 60, 0
1, 181055, Note_on_c, 0, 55, 0
1, 181058, Note_on_c, 0, 48, 0
1, 181058, Note_on_c, 0, 48, 40
1, 181058, Note_on_c, 0, 55, 40
1, 181061, Note_on_c, 0, 60, 46
1, 181209, Note_on_c, 0, 70, 0
1, 181209, Note_on_c, 0, 64, 0
1, 181209, Note_on_c, 0, 65, 57
1, 181212, Note_on_c, 0, 71, 68
1, 181212, Note_on_c, 0, 60, 0
1, 181212, Note_on_c, 0, 55, 0
1, 181215, Note_on_c, 0, 48, 0
1, 181215, Note_on_c, 0, 48, 48
1, 181215, Note_on_c, 0, 56, 48
1, 181218, Note_on_c, 0, 62, 56
1, 181218, Control_c, 0, 64, 0
1, 181361, Control_c, 0, 64, 127
1, 181527, Note_on_c, 0, 71, 0
1, 181527, Note_on_c, 0, 65, 0
1, 181527, Note_on_c, 0, 65, 56
1, 181530, Note_on_c, 0, 71, 65
1, 181530, Note_on_c, 0, 62, 0
1, 181530, Note_on_c, 0, 56, 0
1, 181533, Note_on_c, 0, 48, 0
1, 181533, Note_on_c, 0, 48, 46
1, 181533, Note_on_c, 0, 56, 46
1, 181536, Note_on_c, 0, 62, 53
1, 181685, Note_on_c, 0, 71, 0
1, 181685, Note_on_c, 0, 65, 0
1, 181685, Note_on_c, 0, 65, 61
1, 181688, Note_on_c, 0, 72, 71
1, 181688, Note_on_c, 0, 62, 0
1, 181688, Note_on_c, 0, 56, 0
1, 181691, Note_on_c, 0, 48, 0
1, 181691, Note_on_c, 0, 48, 52
1, 181691, Note_on_c, 0, 57, 52
1, 181694, Note_on_c, 0, 60, 61
1, 181694, Control_c, 0, 64, 0
1, 181794, Control_c, 0, 64, 127
1, 182008, Note_on_c, 0, 72, 0
1, 182008, Note_on_c, 0, 65, 0
1, 182008, Note_on_c, 0, 65, 62
1, 182011, Note_on_c, 0, 60, 0
1, 182011, Note_on_c, 0, 57, 0
1, 182011, Note_on_c, 0, 48, 0
1, 182014, Note_on_c, 0, 48, 51
1, 182014, Note_on_c, 0, 57, 51
1, 182014, Note_on_c, 0, 60, 58
1, 182193, Note_on_c, 0, 65, 0
1, 182193, Note_on_c, 0, 69, 68
1, 182193, Note_on_c, 0, 74, 79
1, 182196, Note_on_c, 0, 60, 0
1, 182196, Note_on_c, 0, 57, 0
1, 182196, Note_on_c, 0, 48, 0
1, 182199, Control_c, 0, 64, 0
1, 182199, Note_on_c, 0, 48, 58
1, 182199, Note_on_c, 0, 54, 58
1, 182202, Note_on_c, 0, 62, 68
1, 182318, Control_c, 0, 64, 127
1, 182514, Note_on_c, 0, 74, 0
1, 182514, Note_on_c, 0, 69, 0
1, 182514, Note_on_c, 0, 69, 65
1, 182517, Note_on_c, 0, 72, 77
1, 182517, Note_on_c, 0, 62, 0
1, 182517, Note_on_c, 0, 54, 0
1, 182520, Note_on_c, 0, 48, 0
1, 182520, Note_on_c, 0, 48, 53
1, 182520, Note_on_c, 0, 54, 53
1, 182523, Note_on_c, 0, 62, 62
1, 182677, Note_on_c, 0, 72, 0
1, 182677, Note_on_c, 0, 69, 0
1, 182677, Note_on_c, 0, 67, 64
1, 182680, Note_on_c, 0, 70, 75
1, 182680, Note_on_c, 0, 62, 0
1, 182680, Note_on_c, 0, 54, 0
1, 182683, Note_on_c, 0, 48, 0
1, 182683, Note_on_c, 0, 48, 54
1, 182683, Note_on_c, 0, 55, 54
1, 182686, Note_on_c, 0, 62, 63
1, 182686, Control_c, 0, 64, 0
1, 182792, Control_c, 0, 64, 127
1, 183004, Note_on_c, 0, 70, 0
1, 183004, Note_on_c, 0, 67, 0
1, 183004, Note_on_c, 0, 68, 55
1, 183007, Note_on_c, 0, 71, 64
1, 183007, Note_on_c, 0, 62, 0
1, 183007, Note_on_c, 0, 55, 0
1, 183010, Note_on_c, 0, 48, 0
1, 183010, Note_on_c, 0, 48, 41
1, 183010, Note_on_c, 0, 53, 41
1, 183013, Note_on_c, 0, 62, 48
1, 183172, Note_on_c, 0, 71, 0
1, 183172, Note_on_c, 0, 68, 0
1, 183172, Note_on_c, 0, 67, 58
1, 183175, Note_on_c, 0, 72, 69
1, 183175, Note_on_c, 0, 62, 0
1, 183175, Note_on_c, 0, 53, 0
1, 183178, Note_on_c, 0, 48, 0
1, 183178, Note_on_c, 0, 48, 46
1, 183178, Note_on_c, 0, 52, 46
1, 183181, Note_on_c, 0, 60, 53
1, 183181, Control_c, 0, 64, 0
1, 183311, Control_c, 0, 64, 127
1, 183505, Note_on_c, 0, 72, 0
1, 183505, Note_on_c, 0, 67, 0
1, 183505, Note_on_c, 0, 64, 53
1, 183508, Note_on_c, 0, 70, 62
1, 183508, Note_on_c, 0, 60, 0
1, 183508, Note_on_c, 0, 52, 0
1, 183511, Note_on_c, 0, 48, 0
1, 183511, Note_on_c, 0, 48, 43
1, 183511, Note_on_c, 0, 55, 43
1, 183514, Note_on_c, 0, 60, 49
1, 183671, Note_on_c, 0, 70, 0
1, 183671, Note_on_c, 0, 64, 0
1, 183671, Note_on_c, 0, 65, 52
1, 183674, Note_on_c, 0, 69, 60
1, 183674, Note_on_c, 0, 60, 0
1, 183674, Note_on_c, 0, 55, 0
1, 183677, Note_on_c, 0, 48, 0
1, 183677, Control_c, 0, 64, 0
1, 183677, Note_on_c, 0, 48, 41
1, 183680, Note_on_c, 0, 53, 41
1, 183680, Note_on_c, 0, 60, 48
1, 184004, Note_on_c, 0, 69, 0
1, 184004, Note_on_c, 0, 65, 0
1, 184004, Note_on_c, 0, 60, 0
1, 184007, Note_on_c, 0, 53, 0
1, 184007, Note_on_c, 0, 48, 0
1, 184170, Note_on_c, 0, 99, 51
1, 184170, Control_c, 0, 64, 127
1, 184170, Note_on_c, 0, 48, 44
1, 184173, Note_on_c, 0, 54, 51
1, 184173, Note_on_c, 0, 57, 51
1, 184249, Note_on_c, 0, 99, 0
1, 184249, Note_on_c, 0, 98, 48
1, 184327, Note_on_c, 0, 98, 0
1, 184327, Note_on_c, 0, 101, 53
1, 184405, Note_on_c, 0, 101, 0
1, 184405, Note_on_c, 0, 99, 49
1, 184483, Note_on_c, 0, 99, 0
1, 184483, Note_on_c, 0, 98, 49
1, 184483, Note_on_c, 0, 57, 0
1, 184486, Note_on_c, 0, 54, 0
1, 184486, Note_on_c, 0, 48, 0
1, 184486, Note_on_c, 0, 48, 38
1, 184489, Note_on_c, 0, 54, 44
1, 184489, Note_on_c, 0, 57, 52
1, 184562, Note_on_c, 0, 98, 0
1, 184562, Note_on_c, 0, 96, 49
1, 184640, Note_on_c, 0, 96, 0
1, 184640, Note_on_c, 0, 94, 53
1, 184640, Note_on_c, 0, 57, 0
1, 184643, Note_on_c, 0, 54, 0
1, 184643, Note_on_c, 0, 48, 0
1, 184643, Note_on_c, 0, 48, 48
1, 184646, Note_on_c, 0, 55, 48
1, 184646, Note_on_c, 0, 58, 57
1, 184646, Control_c, 0, 64, 0
1, 184683, Control_c, 0, 64, 127
1, 184720, Note_on_c, 0, 94, 0
1, 184720, Note_on_c, 0, 93, 49
1, 184800, Note_on_c, 0, 93, 0
1, 184800, Note_on_c, 0, 96, 54
1, 184878, Note_on_c, 0, 96, 0
1, 184878, Note_on_c, 0, 94, 51
1, 184955, Note_on_c, 0, 94, 0
1, 184955, Note_on_c, 0, 93, 52
1, 184955, Note_on_c, 0, 58, 0
1, 184958, Note_on_c, 0, 55, 0
1, 184958, Note_on_c, 0, 48, 0
1, 184958, Note_on_c, 0, 48, 46
1, 184961, Note_on_c, 0, 55, 46
1, 184961, Note_on_c, 0, 58, 55
1, 185033, Note_on_c, 0, 93, 0
1, 185033, Note_on_c, 0, 91, 52
1, 185110, Note_on_c, 0, 91, 0
1, 185110, Note_on_c, 0, 89, 55
1, 185110, Note_on_c, 0, 58, 0
1, 185113, Note_on_c, 0, 55, 0
1, 185113, Note_on_c, 0, 48, 0
1, 185113, Note_on_c, 0, 48, 51
1, 185116, Note_on_c, 0, 56, 58
1, 185116, Note_on_c, 0, 59, 58
1, 185116, Control_c, 0, 64, 0
1, 185163, Control_c, 0, 64, 127
1, 185191, Note_on_c, 0, 89, 0
1, 185191, Note_on_c, 0, 88, 52
1, 185271, Note_on_c, 0, 88, 0
1, 185271, Note_on_c, 0, 91, 57
1, 185349, Note_on_c, 0, 91, 0
1, 185349, Note_on_c, 0, 89, 54
1, 185426, Note_on_c, 0, 89, 0
1, 185426, Note_on_c, 0, 88, 54
1, 185426, Note_on_c, 0, 59, 0
1, 185429, Note_on_c, 0, 56, 0
1, 185429, Note_on_c, 0, 48, 0
1, 185429, Note_on_c, 0, 48, 48
1, 185432, Note_on_c, 0, 56, 56
1, 185432, Note_on_c, 0, 59, 56
1, 185504, Note_on_c, 0, 88, 0
1, 185504, Note_on_c, 0, 86, 54
1, 185581, Note_on_c, 0, 86, 0
1, 185581, Note_on_c, 0, 84, 56
1, 185581, Note_on_c, 0, 59, 0
1, 185584, Note_on_c, 0, 56, 0
1, 185584, Note_on_c, 0, 48, 0
1, 185584, Note_on_c, 0, 48, 49
1, 185587, Note_on_c, 0, 57, 49
1, 185587, Note_on_c, 0, 60, 60
1, 185587, Control_c, 0, 64, 0
1, 185615, Control_c, 0, 64, 127
1, 185661, Note_on_c, 0, 84, 0
1, 185661, Note_on_c, 0, 83, 54
1, 185742, Note_on_c, 0, 83, 0
1, 185742, Note_on_c, 0, 86, 61
1, 185819, Note_on_c, 0, 86, 0
1, 185819, Note_on_c, 0, 84, 57
1, 185897, Note_on_c, 0, 84, 0
1, 185897, Note_on_c, 0, 82, 57
1, 185897, Note_on_c, 0, 48, 0
1, 185900, Note_on_c, 0, 48, 58
1, 185972, Note_on_c, 0, 82, 0
1, 185972, Note_on_c, 0, 81, 57
1, 186048, Note_on_c, 0, 81, 0
1, 186048, Note_on_c, 0, 86, 61
1, 186048, Note_on_c, 0, 48, 0
1, 186051, Note_on_c, 0, 60, 0
1, 186051, Note_on_c, 0, 57, 0
1, 186051, Note_on_c, 0, 48, 58
1, 186054, Note_on_c, 0, 54, 58
1, 186054, Note_on_c, 0, 62, 70
1, 186054, Control_c, 0, 64, 0
1, 186089, Control_c, 0, 64, 127
1, 186134, Note_on_c, 0, 86, 0
1, 186134, Note_on_c, 0, 85, 58
1, 186219, Note_on_c, 0, 85, 0
1, 186219, Note_on_c, 0, 87, 65
1, 186298, Note_on_c, 0, 87, 0
1, 186298, Note_on_c, 0, 86, 60
1, 186376, Note_on_c, 0, 86, 0
1, 186376, Note_on_c, 0, 84, 60
1, 186376, Note_on_c, 0, 62, 0
1, 186379, Note_on_c, 0, 54, 0
1, 186379, Note_on_c, 0, 48, 0
1, 186379, Note_on_c, 0, 48, 56
1, 186382, Note_on_c, 0, 57, 56
1, 186382, Note_on_c, 0, 62, 65
1, 186455, Note_on_c, 0, 84, 0
1, 186455, Note_on_c, 0, 81, 61
1, 186533, Note_on_c, 0, 81, 0
1, 186533, Note_on_c, 0, 82, 65
1, 186533, Note_on_c, 0, 62, 0
1, 186536, Note_on_c, 0, 57, 0
1, 186536, Note_on_c, 0, 48, 0
1, 186536, Note_on_c, 0, 48, 60
1, 186539, Note_on_c, 0, 55, 60
1, 186539, Note_on_c, 0, 62, 70
1, 186539, Control_c, 0, 64, 0
1, 186583, Control_c, 0, 64, 127
1, 186614, Note_on_c, 0, 82, 0
1, 186614, Note_on_c, 0, 81, 61
1, 186694, Note_on_c, 0, 81, 0
1, 186694, Note_on_c, 0, 84, 66
1, 186773, Note_on_c, 0, 84, 0
1, 186773, Note_on_c, 0, 82, 62
1, 186851, Note_on_c, 0, 82, 0
1, 186851, Note_on_c, 0, 79, 62
1, 186851, Note_on_c, 0, 62, 0
1, 186854, Note_on_c, 0, 55, 0
1, 186854, Note_on_c, 0, 48, 0
1, 186854, Note_on_c, 0, 48, 56
1, 186857, Note_on_c, 0, 53, 56
1, 186857, Note_on_c, 0, 62, 65
1, 186930, Note_on_c, 0, 79, 0
1, 186930, Note_on_c, 0, 74, 62
1, 187009, Note_on_c, 0, 74, 0
1, 187009, Note_on_c, 0, 72, 68
1, 187009, Note_on_c, 0, 62, 0
1, 187012, Note_on_c, 0, 53, 0
1, 187012, Note_on_c, 0, 48, 0
1, 187012, Note_on_c, 0, 48, 61
1, 187015, Note_on_c, 0, 52, 61
1, 187015, Note_on_c, 0, 60, 72
1, 187015, Control_c, 0, 64, 0
1, 187043, Control_c, 0, 64, 127
1, 187089, Note_on_c, 0, 72, 0
1, 187089, Note_on_c, 0, 71, 63
1, 187170, Note_on_c, 0, 71, 0
1, 187170, Note_on_c, 0, 74, 69
1, 187248, Note_on_c, 0, 74, 0
1, 187248, Note_on_c, 0, 72, 63
1, 187327, Note_on_c, 0, 72, 0
1, 187327, Note_on_c, 0, 70, 63
1, 187327, Note_on_c, 0, 60, 0
1, 187330, Note_on_c, 0, 52, 0
1, 187330, Note_on_c, 0, 48, 0
1, 187330, Note_on_c, 0, 48, 60
1, 187333, Note_on_c, 0, 55, 60
1, 187333, Note_on_c, 0, 60, 69
1, 187405, Note_on_c, 0, 70, 0
1, 187405, Note_on_c, 0, 67, 63
1, 187484, Note_on_c, 0, 67, 0
1, 187484, Note_on_c, 0, 69, 66
1, 187484, Note_on_c, 0, 60, 0
1, 187487, Note_on_c, 0, 55, 0
1, 187487, Note_on_c, 0, 48, 0
1, 187487, Control_c, 0, 64, 0
1, 187490, Note_on_c, 0, 48, 63
1, 187490, Note_on_c, 0, 53, 63
1, 187490, Note_on_c, 0, 60, 72
1, 187516, Control_c, 0, 64, 127
1, 187564, Note_on_c, 0, 69, 0
1, 187564, Note_on_c, 0, 68, 63
1, 187644, Note_on_c, 0, 68, 0
1, 187644, Note_on_c, 0, 69, 71
1, 187723, Note_on_c, 0, 69, 0
1, 187723, Note_on_c, 0, 70, 64
1, 187801, Note_on_c, 0, 70, 0
1, 187801, Note_on_c, 0, 65, 65
1, 187801, Note_on_c, 0, 60, 0
1, 187804, Note_on_c, 0, 53, 0
1, 187804, Note_on_c, 0, 48, 0
1, 187804, Note_on_c, 0, 48, 60
1, 187880, Note_on_c, 0, 65, 0
1, 187880, Note_on_c, 0, 69, 65
1, 187958, Note_on_c, 0, 69, 0
1, 187958, Note_on_c, 0, 63, 75
1, 187958, Note_on_c, 0, 48, 0
1, 187961, Note_on_c, 0, 48, 60
1, 187961, Note_on_c, 0, 54, 63
1, 187961, Note_on_c, 0, 57, 70
1, 187961, Control_c, 0, 64, 0
1, 187988, Control_c, 0, 64, 127
1, 188037, Note_on_c, 0, 69, 71
1, 188115, Note_on_c, 0, 69, 0
1, 188115, Note_on_c, 0, 68, 71
1, 188192, Note_on_c, 0, 68, 0
1, 188192, Note_on_c, 0, 69, 71
1, 188270, Note_on_c, 0, 69, 0
1, 188270, Note_on_c, 0, 63, 0
1, 188270, Note_on_c, 0, 70, 68
1, 188273, Note_on_c, 0, 57, 0
1, 188273, Note_on_c, 0, 54, 0
1, 188273, Note_on_c, 0, 48, 0
1, 188276, Note_on_c, 0, 48, 52
1, 188276, Note_on_c, 0, 54, 60
1, 188276, Note_on_c, 0, 57, 70
1, 188347, Note_on_c, 0, 70, 0
1, 188347, Note_on_c, 0, 69, 68
1, 188425, Note_on_c, 0, 69, 0
1, 188425, Note_on_c, 0, 64, 75
1, 188425, Note_on_c, 0, 57, 0
1, 188428, Note_on_c, 0, 54, 0
1, 188428, Note_on_c, 0, 48, 0
1, 188428, Note_on_c, 0, 48, 66
1, 188431, Note_on_c, 0, 55, 66
1, 188431, Note_on_c, 0, 58, 78
1, 188431, Control_c, 0, 64, 0
1, 188467, Control_c, 0, 64, 127
1, 188505, Note_on_c, 0, 70, 72
1, 188581, Note_on_c, 0, 70, 0
1, 188581, Note_on_c, 0, 69, 72
1, 188658, Note_on_c, 0, 69, 0
1, 188658, Note_on_c, 0, 70, 72
1, 188736, Note_on_c, 0, 70, 0
1, 188736, Note_on_c, 0, 64, 0
1, 188736, Note_on_c, 0, 72, 70
1, 188739, Note_on_c, 0, 58, 0
1, 188739, Note_on_c, 0, 55, 0
1, 188739, Note_on_c, 0, 48, 0
1, 188742, Note_on_c, 0, 48, 62
1, 188742, Note_on_c, 0, 55, 62
1, 188742, Note_on_c, 0, 58, 72
1, 188813, Note_on_c, 0, 72, 0
1, 188813, Note_on_c, 0, 70, 70
1, 188890, Note_on_c, 0, 70, 0
1, 188890, Note_on_c, 0, 65, 79
1, 188890, Note_on_c, 0, 58, 0
1, 188893, Note_on_c, 0, 55, 0
1, 188893, Note_on_c, 0, 48, 0
1, 188893, Note_on_c, 0, 48, 65
1, 188896, Note_on_c, 0, 56, 65
1, 188896, Note_on_c, 0, 59, 77
1, 188896, Control_c, 0, 64, 0
1, 188933, Control_c, 0, 64, 127
1, 188971, Note_on_c, 0, 71, 73
1, 189047, Note_on_c, 0, 71, 0
1, 189047, Note_on_c, 0, 70, 73
1, 189125, Note_on_c, 0, 70, 0
1, 189125, Note_on_c, 0, 71, 73
1, 189202, Note_on_c, 0, 71, 0
1, 189202, Note_on_c, 0, 65, 0
1, 189202, Note_on_c, 0, 72, 71
1, 189205, Note_on_c, 0, 59, 0
1, 189205, Note_on_c, 0, 56, 0
1, 189205, Note_on_c, 0, 48, 0
1, 189208, Note_on_c, 0, 48, 62
1, 189208, Note_on_c, 0, 56, 72
1, 189208, Note_on_c, 0, 59, 72
1, 189280, Note_on_c, 0, 72, 0
1, 189280, Note_on_c, 0, 71, 71
1, 189357, Note_on_c, 0, 71, 0
1, 189357, Note_on_c, 0, 65, 81
1, 189357, Note_on_c, 0, 59, 0
1, 189360, Note_on_c, 0, 56, 0
1, 189360, Note_on_c, 0, 48, 0
1, 189360, Note_on_c, 0, 48, 64
1, 189363, Note_on_c, 0, 57, 64
1, 189363, Note_on_c, 0, 60, 75
1, 189363, Control_c, 0, 64, 0
1, 189395, Control_c, 0, 64, 127
1, 189437, Note_on_c, 0, 72, 74
1, 189514, Note_on_c, 0, 72, 0
1, 189514, Note_on_c, 0, 71, 74
1, 189592, Note_on_c, 0, 71, 0
1, 189592, Note_on_c, 0, 72, 74
1, 189669, Note_on_c, 0, 72, 0
1, 189669, Note_on_c, 0, 65, 0
1, 189669, Note_on_c, 0, 74, 71
1, 189672, Note_on_c, 0, 48, 0
1, 189672, Note_on_c, 0, 48, 72
1, 189747, Note_on_c, 0, 74, 0
1, 189747, Note_on_c, 0, 72, 71
1, 189824, Note_on_c, 0, 72, 0
1, 189824, Note_on_c, 0, 69, 81
1, 189824, Note_on_c, 0, 48, 0
1, 189827, Note_on_c, 0, 60, 0
1, 189827, Note_on_c, 0, 57, 0
1, 189827, Note_on_c, 0, 48, 71
1, 189830, Note_on_c, 0, 54, 71
1, 189830, Note_on_c, 0, 62, 81
1, 189830, Control_c, 0, 64, 0
1, 189862, Control_c, 0, 64, 127
1, 189904, Note_on_c, 0, 74, 75
1, 189981, Note_on_c, 0, 74, 0
1, 189981, Note_on_c, 0, 73, 75
1, 190059, Note_on_c, 0, 73, 0
1, 190059, Note_on_c, 0, 74, 75
1, 190136, Note_on_c, 0, 74, 0
1, 190136, Note_on_c, 0, 69, 0
1, 190136, Note_on_c, 0, 76, 73
1, 190139, Note_on_c, 0, 62, 0
1, 190139, Note_on_c, 0, 54, 0
1, 190139, Note_on_c, 0, 48, 0
1, 190142, Note_on_c, 0, 48, 68
1, 190142, Note_on_c, 0, 57, 68
1, 190142, Note_on_c, 0, 62, 79
1, 190214, Note_on_c, 0, 76, 0
1, 190214, Note_on_c, 0, 74, 73
1, 190292, Note_on_c, 0, 74, 0
1, 190292, Note_on_c, 0, 74, 82
1, 190292, Note_on_c, 0, 62, 0
1, 190295, Note_on_c, 0, 57, 0
1, 190295, Note_on_c, 0, 48, 0
1, 190295, Note_on_c, 0, 46, 83
1, 190298, Control_c, 0, 64, 0
1, 190323, Control_c, 0, 64, 127
1, 190372, Note_on_c, 0, 79, 77
1, 190448, Note_on_c, 0, 79, 0
1, 190448, Note_on_c, 0, 78, 77
1, 190448, Note_on_c, 0, 46, 0
1, 190451, Note_on_c, 0, 62, 73
1, 190524, Note_on_c, 0, 78, 0
1, 190524, Note_on_c, 0, 79, 77
1, 190601, Note_on_c, 0, 79, 0
1, 190601, Note_on_c, 0, 74, 0
1, 190601, Note_on_c, 0, 81, 74
1, 190604, Note_on_c, 0, 62, 0
1, 190604, Note_on_c, 0, 67, 74
1, 190678, Note_on_c, 0, 81, 0
1, 190678, Note_on_c, 0, 79, 75
1, 190755, Note_on_c, 0, 79, 0
1, 190755, Note_on_c, 0, 79, 86
1, 190755, Note_on_c, 0, 67, 0
1, 190758, Note_on_c, 0, 58, 84
1, 190762, Control_c, 0, 64, 0
1, 190805, Control_c, 0, 64, 127
1, 190836, Note_on_c, 0, 84, 79
1, 190912, Note_on_c, 0, 84, 0
1, 190912, Note_on_c, 0, 83, 79
1, 190912, Note_on_c, 0, 60, 73
1, 190988, Note_on_c, 0, 83, 0
1, 190988, Note_on_c, 0, 84, 79
1, 191064, Note_on_c, 0, 84, 0
1, 191064, Note_on_c, 0, 79, 0
1, 191064, Note_on_c, 0, 86, 77
1, 191067, Note_on_c, 0, 60, 0
1, 191067, Note_on_c, 0, 64, 75
1, 191142, Note_on_c, 0, 86, 0
1, 191142, Note_on_c, 0, 84, 77
1, 191219, Note_on_c, 0, 84, 0
1, 191219, Note_on_c, 0, 84, 87
1, 191219, Note_on_c, 0, 64, 0
1, 191222, Note_on_c, 0, 58, 0
1, 191222, Note_on_c, 0, 57, 86
1, 191222, Control_c, 0, 64, 0
1, 191265, Control_c, 0, 64, 127
1, 191299, Note_on_c, 0, 89, 79
1, 191377, Note_on_c, 0, 89, 0
1, 191377, Note_on_c, 0, 88, 79
1, 191377, Note_on_c, 0, 60, 74
1, 191453, Note_on_c, 0, 88, 0
1, 191453, Note_on_c, 0, 89, 74
1, 191529, Note_on_c, 0, 89, 0
1, 191529, Note_on_c, 0, 84, 0
1, 191529, Note_on_c, 0, 91, 77
1, 191532, Note_on_c, 0, 60, 0
1, 191532, Note_on_c, 0, 65, 77
1, 191604, Note_on_c, 0, 91, 0
1, 191604, Note_on_c, 0, 89, 77
1, 191680, Note_on_c, 0, 89, 0
1, 191680, Note_on_c, 0, 86, 81
1, 191680, Note_on_c, 0, 65, 0
1, 191683, Note_on_c, 0, 57, 0
1, 191683, Note_on_c, 0, 58, 88
1, 191688, Control_c, 0, 64, 0
1, 191734, Control_c, 0, 64, 127
1, 191755, Note_on_c, 0, 86, 0
1, 191755, Note_on_c, 0, 85, 75
1, 191830, Note_on_c, 0, 85, 0
1, 191830, Note_on_c, 0, 88, 82
1, 191830, Note_on_c, 0, 62, 78
1, 191906, Note_on_c, 0, 88, 0
1, 191906, Note_on_c, 0, 86, 79
1, 191982, Note_on_c, 0, 86, 0
1, 191982, Note_on_c, 0, 79, 89
1, 191982, Note_on_c, 0, 62, 0
1, 191985, Note_on_c, 0, 67, 79
1, 192139, Note_on_c, 0, 79, 0
1, 192139, Note_on_c, 0, 88, 92
1, 192139, Note_on_c, 0, 67, 0
1, 192142, Note_on_c, 0, 58, 0
1, 192142, Note_on_c, 0, 60, 91
1, 192145, Control_c, 0, 64, 0
1, 192170, Control_c, 0, 64, 127
1, 192219, Note_on_c, 0, 93, 84
1, 192296, Note_on_c, 0, 93, 0
1, 192296, Note_on_c, 0, 92, 86
1, 192296, Note_on_c, 0, 64, 81
1, 192372, Note_on_c, 0, 92, 0
1, 192372, Note_on_c, 0, 93, 79
1, 192448, Note_on_c, 0, 93, 0
1, 192448, Note_on_c, 0, 88, 0
1, 192448, Note_on_c, 0, 94, 80
1, 192451, Note_on_c, 0, 64, 0
1, 192451, Note_on_c, 0, 69, 82
1, 192523, Note_on_c, 0, 94, 0
1, 192523, Note_on_c, 0, 93, 80
1, 192599, Note_on_c, 0, 93, 0
1, 192599, Note_on_c, 0, 89, 88
1, 192599, Note_on_c, 0, 69, 0
1, 192602, Note_on_c, 0, 60, 0
1, 192602, Note_on_c, 0, 62, 95
1, 192602, Control_c, 0, 64, 0
1, 192646, Control_c, 0, 64, 127
1, 192675, Note_on_c, 0, 89, 0
1, 192675, Note_on_c, 0, 88, 80
1, 192750, Note_on_c, 0, 88, 0
1, 192750, Note_on_c, 0, 91, 89
1, 192750, Note_on_c, 0, 65, 83
1, 192827, Note_on_c, 0, 91, 0
1, 192827, Note_on_c, 0, 89, 82
1, 192903, Note_on_c, 0, 89, 0
1, 192903, Note_on_c, 0, 86, 95
1, 192903, Note_on_c, 0, 65, 0
1, 192906, Note_on_c, 0, 70, 84
1, 193061, Note_on_c, 0, 86, 0
1, 193061, Note_on_c, 0, 91, 97
1, 193061, Note_on_c, 0, 70, 0
1, 193064, Note_on_c, 0, 62, 0
1, 193064, Note_on_c, 0, 64, 96
1, 193064, Control_c, 0, 64, 0
1, 193102, Control_c, 0, 64, 127
1, 193139, Note_on_c, 0, 96, 88
1, 193216, Note_on_c, 0, 96, 0
1, 193216, Note_on_c, 0, 95, 90
1, 193216, Note_on_c, 0, 67, 84
1, 193291, Note_on_c, 0, 95, 0
1, 193291, Note_on_c, 0, 96, 83
1, 193367, Note_on_c, 0, 96, 0
1, 193367, Note_on_c, 0, 91, 0
1, 193367, Note_on_c, 0, 98, 83
1, 193370, Note_on_c, 0, 67, 0
1, 193370, Note_on_c, 0, 72, 86
1, 193442, Note_on_c, 0, 98, 0
1, 193442, Note_on_c, 0, 96, 86
1, 193518, Note_on_c, 0, 96, 0
1, 193518, Note_on_c, 0, 93, 91
1, 193518, Note_on_c, 0, 72, 0
1, 193521, Note_on_c, 0, 64, 0
1, 193521, Note_on_c, 0, 65, 99
1, 193524, Control_c, 0, 64, 0
1, 193550, Control_c, 0, 64, 127
1, 193593, Note_on_c, 0, 93, 0
1, 193593, Note_on_c, 0, 92, 84
1, 193668, Note_on_c, 0, 92, 0
1, 193668, Note_on_c, 0, 94, 92
1, 193668, Note_on_c, 0, 69, 84
1, 193745, Note_on_c, 0, 94, 0
1, 193745, Note_on_c, 0, 93, 84
1, 193821, Note_on_c, 0, 93, 0
1, 193821, Note_on_c, 0, 89, 95
1, 193821, Note_on_c, 0, 69, 0
1, 193824, Note_on_c, 0, 72, 84
1, 193977, Note_on_c, 0, 89, 0
1, 193977, Note_on_c, 0, 93, 101
1, 193977, Note_on_c, 0, 72, 0
1, 193980, Note_on_c, 0, 65, 0
1, 193980, Note_on_c, 0, 66, 100
1, 193983, Control_c, 0, 64, 0
1, 194018, Control_c, 0, 64, 127
1, 194055, Note_on_c, 0, 98, 94
1, 194131, Note_on_c, 0, 98, 0
1, 194131, Note_on_c, 0, 97, 94
1, 194131, Note_on_c, 0, 69, 88
1, 194207, Note_on_c, 0, 97, 0
1, 194207, Note_on_c, 0, 98, 87
1, 194282, Note_on_c, 0, 98, 0
1, 194282, Note_on_c, 0, 93, 0
1, 194282, Note_on_c, 0, 99, 87
1, 194285, Note_on_c, 0, 69, 0
1, 194285, Note_on_c, 0, 74, 88
1, 194357, Note_on_c, 0, 99, 0
1, 194357, Note_on_c, 0, 98, 87
1, 194433, Note_on_c, 0, 98, 0
1, 194433, Note_on_c, 0, 94, 94
1, 194433, Note_on_c, 0, 74, 0
1, 194436, Note_on_c, 0, 66, 0
1, 194436, Note_on_c, 0, 67, 100
1, 194439, Control_c, 0, 64, 0
1, 194482, Control_c, 0, 64, 127
1, 194507, Note_on_c, 0, 94, 0
1, 194507, Note_on_c, 0, 93, 86
1, 194582, Note_on_c, 0, 93, 0
1, 194582, Note_on_c, 0, 96, 94
1, 194582, Note_on_c, 0, 70, 88
1, 194658, Note_on_c, 0, 96, 0
1, 194658, Note_on_c, 0, 94, 86
1, 194734, Note_on_c, 0, 94, 0
1, 194734, Note_on_c, 0, 91, 98
1, 194734, Note_on_c, 0, 70, 0
1, 194737, Note_on_c, 0, 74, 88
1, 194890, Note_on_c, 0, 91, 0
1, 194890, Note_on_c, 0, 94, 64
1, 194890, Note_on_c, 0, 74, 0
1, 194893, Note_on_c, 0, 67, 0
1, 194893, Note_on_c, 0, 61, 62
1, 194893, Control_c, 0, 64, 0
1, 194933, Control_c, 0, 64, 127
1, 194969, Note_on_c, 0, 94, 0
1, 194969, Note_on_c, 0, 100, 58
1, 195045, Note_on_c, 0, 100, 0
1, 195045, Note_on_c, 0, 91, 58
1, 195045, Note_on_c, 0, 61, 0
1, 195048, Note_on_c, 0, 70, 55
1, 195120, Note_on_c, 0, 91, 0
1, 195120, Note_on_c, 0, 94, 55
1, 195139, Note_on_c, 0, 94, 0
1, 195139, Note_on_c, 0, 96, 55
1, 195158, Note_on_c, 0, 96, 0
1, 195158, Note_on_c, 0, 94, 58
1, 195196, Note_on_c, 0, 94, 0
1, 195196, Note_on_c, 0, 93, 62
1, 195196, Note_on_c, 0, 76, 56
1, 195272, Note_on_c, 0, 93, 0
1, 195272, Note_on_c, 0, 91, 58
1, 195351, Note_on_c, 0, 91, 0
1, 195351, Note_on_c, 0, 90, 64
1, 195351, Note_on_c, 0, 76, 0
1, 195354, Note_on_c, 0, 70, 0
1, 195354, Note_on_c, 0, 62, 61
1, 195357, Control_c, 0, 64, 0
1, 195403, Control_c, 0, 64, 127
1, 195429, Note_on_c, 0, 90, 0
1, 195429, Note_on_c, 0, 96, 58
1, 195504, Note_on_c, 0, 96, 0
1, 195504, Note_on_c, 0, 84, 58
1, 195504, Note_on_c, 0, 62, 0
1, 195507, Note_on_c, 0, 69, 56
1, 195580, Note_on_c, 0, 84, 0
1, 195580, Note_on_c, 0, 87, 53
1, 195599, Note_on_c, 0, 87, 0
1, 195599, Note_on_c, 0, 89, 53
1, 195618, Note_on_c, 0, 89, 0
1, 195618, Note_on_c, 0, 87, 58
1, 195656, Note_on_c, 0, 87, 0
1, 195656, Note_on_c, 0, 86, 58
1, 195656, Note_on_c, 0, 78, 56
1, 195732, Note_on_c, 0, 86, 0
1, 195732, Note_on_c, 0, 84, 58
1, 195810, Note_on_c, 0, 84, 0
1, 195810, Note_on_c, 0, 83, 63
1, 195810, Note_on_c, 0, 78, 0
1, 195813, Note_on_c, 0, 69, 0
1, 195813, Note_on_c, 0, 55, 61
1, 195813, Control_c, 0, 64, 0
1, 195864, Control_c, 0, 64, 127
1, 195889, Note_on_c, 0, 83, 0
1, 195889, Note_on_c, 0, 89, 58
1, 195967, Note_on_c, 0, 89, 0
1, 195967, Note_on_c, 0, 77, 58
1, 195967, Note_on_c, 0, 55, 0
1, 195970, Note_on_c, 0, 62, 55
1, 196045, Note_on_c, 0, 77, 0
1, 196045, Note_on_c, 0, 80, 52
1, 196064, Note_on_c, 0, 80, 0
1, 196064, Note_on_c, 0, 82, 52
1, 196084, Note_on_c, 0, 82, 0
1, 196084, Note_on_c, 0, 80, 55
1, 196124, Note_on_c, 0, 80, 0
1, 196124, Note_on_c, 0, 79, 63
1, 196124, Note_on_c, 0, 71, 56
1, 196204, Note_on_c, 0, 79, 0
1, 196204, Note_on_c, 0, 77, 58
1, 196285, Note_on_c, 0, 77, 0
1, 196285, Note_on_c, 0, 76, 65
1, 196285, Note_on_c, 0, 71, 0
1, 196288, Note_on_c, 0, 62, 0
1, 196288, Note_on_c, 0, 48, 60
1, 196292, Control_c, 0, 64, 0
1, 196327, Control_c, 0, 64, 127
1, 196367, Note_on_c, 0, 76, 0
1, 196367, Note_on_c, 0, 82, 58
1, 196450, Note_on_c, 0, 82, 0
1, 196450, Note_on_c, 0, 74, 58
1, 196450, Note_on_c, 0, 48, 0
1, 196453, Note_on_c, 0, 55, 58
1, 196534, Note_on_c, 0, 74, 0
1, 196534, Note_on_c, 0, 73, 52
1, 196554, Note_on_c, 0, 73, 0
1, 196554, Note_on_c, 0, 75, 52
1, 196575, Note_on_c, 0, 75, 0
1, 196575, Note_on_c, 0, 73, 56
1, 196617, Note_on_c, 0, 73, 0
1, 196617, Note_on_c, 0, 72, 58
1, 196617, Note_on_c, 0, 64, 60
1, 196701, Note_on_c, 0, 72, 0
1, 196701, Note_on_c, 0, 70, 58
1, 196784, Note_on_c, 0, 64, 0
1, 196784, Note_on_c, 0, 55, 0
1, 196784, Note_on_c, 0, 53, 64
1, 196784, Control_c, 0, 64, 0
1, 196829, Control_c, 0, 64, 127
1, 196867, Note_on_c, 0, 70, 0
1, 196867, Note_on_c, 0, 69, 54
1, 196950, Note_on_c, 0, 69, 0
1, 196950, Note_on_c, 0, 72, 56
1, 196950, Note_on_c, 0, 57, 56
1, 197031, Note_on_c, 0, 72, 0
1, 197031, Note_on_c, 0, 76, 58
1, 197111, Note_on_c, 0, 76, 0
1, 197111, Note_on_c, 0, 77, 61
1, 197111, Note_on_c, 0, 60, 60
1, 197190, Note_on_c, 0, 77, 0
1, 197190, Note_on_c, 0, 81, 63
1, 197269, Note_on_c, 0, 81, 0
1, 197269, Note_on_c, 0, 84, 65
1, 197269, Note_on_c, 0, 60, 0
1, 197272, Note_on_c, 0, 69, 64
1, 197346, Note_on_c, 0, 84, 0
1, 197346, Note_on_c, 0, 88, 66
1, 197423, Note_on_c, 0, 88, 0
1, 197423, Note_on_c, 0, 89, 69
1, 197499, Note_on_c, 0, 89, 0
1, 197499, Note_on_c, 0, 93, 71
1, 197575, Note_on_c, 0, 93, 0
1, 197575, Note_on_c, 0, 96, 73
1, 197575, Note_on_c, 0, 69, 0
1, 197578, Note_on_c, 0, 57, 0
1, 197578, Note_on_c, 0, 53, 0
1, 197650, Note_on_c, 0, 96, 0
1, 197650, Note_on_c, 0, 100, 75
1, 197726, Note_on_c, 0, 100, 0
1, 197726, Note_on_c, 0, 101, 75
1, 197726, Note_on_c, 0, 47, 70
1, 197731, Control_c, 0, 64, 0
1, 197776, Control_c, 0, 64, 127
1, 197801, Note_on_c, 0, 101, 0
1, 197801, Note_on_c, 0, 100, 75
1, 197876, Note_on_c, 0, 100, 0
1, 197876, Note_on_c, 0, 99, 74
1, 197876, Note_on_c, 0, 47, 0
1, 197879, Note_on_c, 0, 56, 64
1, 197951, Note_on_c, 0, 99, 0
1, 197951, Note_on_c, 0, 98, 74
1, 198027, Note_on_c, 0, 98, 0
1, 198027, Note_on_c, 0, 97, 73
1, 198027, Note_on_c, 0, 62, 64
1, 198102, Note_on_c, 0, 97, 0
1, 198102, Note_on_c, 0, 96, 73
1, 198178, Note_on_c, 0, 96, 0
1, 198178, Note_on_c, 0, 95, 72
1, 198178, Note_on_c, 0, 65, 68
1, 198254, Note_on_c, 0, 95, 0
1, 198254, Note_on_c, 0, 94, 72
1, 198330, Note_on_c, 0, 94, 0
1, 198330, Note_on_c, 0, 93, 71
1, 198406, Note_on_c, 0, 93, 0
1, 198406, Note_on_c, 0, 92, 70
1, 198482, Note_on_c, 0, 92, 0
1, 198482, Note_on_c, 0, 91, 70
1, 198482, Note_on_c, 0, 65, 0
1, 198485, Note_on_c, 0, 62, 0
1, 198485, Note_on_c, 0, 56, 0
1, 198558, Note_on_c, 0, 91, 0
1, 198558, Note_on_c, 0, 90, 69
1, 198638, Note_on_c, 0, 90, 0
1, 198638, Note_on_c, 0, 89, 66
1, 198638, Note_on_c, 0, 48, 61
1, 198642, Control_c, 0, 64, 0
1, 198714, Note_on_c, 0, 89, 0
1, 198714, Note_on_c, 0, 93, 65
1, 198714, Control_c, 0, 64, 127
1, 198790, Note_on_c, 0, 93, 0
1, 198790, Note_on_c, 0, 92, 64
1, 198790, Note_on_c, 0, 48, 0
1, 198793, Note_on_c, 0, 57, 55
1, 198865, Note_on_c, 0, 92, 0
1, 198865, Note_on_c, 0, 91, 63
1, 198939, Note_on_c, 0, 91, 0
1, 198939, Note_on_c, 0, 90, 62
1, 198939, Note_on_c, 0, 60, 55
1, 199014, Note_on_c, 0, 90, 0
1, 199014, Note_on_c, 0, 89, 61
1, 199089, Note_on_c, 0, 89, 0
1, 199089, Note_on_c, 0, 88, 60
1, 199089, Note_on_c, 0, 65, 58
1, 199165, Note_on_c, 0, 88, 0
1, 199165, Note_on_c, 0, 87, 60
1, 199241, Note_on_c, 0, 87, 0
1, 199241, Note_on_c, 0, 86, 58
1, 199317, Note_on_c, 0, 86, 0
1, 199317, Note_on_c, 0, 85, 57
1, 199393, Note_on_c, 0, 85, 0
1, 199393, Note_on_c, 0, 84, 56
1, 199393, Note_on_c, 0, 65, 0
1, 199396, Note_on_c, 0, 60, 0
1, 199396, Note_on_c, 0, 57, 0
1, 199469, Note_on_c, 0, 84, 0
1, 199469, Note_on_c, 0, 83, 55
1, 199547, Note_on_c, 0, 83, 0
1, 199547, Note_on_c, 0, 82, 60
1, 199547, Note_on_c, 0, 36, 53
1, 199554, Control_c, 0, 64, 0
1, 199608, Control_c, 0, 64, 127
1, 199623, Note_on_c, 0, 82, 0
1, 199623, Note_on_c, 0, 88, 53
1, 199661, Note_on_c, 0, 36, 0
1, 199698, Note_on_c, 0, 88, 0
1, 199698, Note_on_c, 0, 87, 52
1, 199698, Note_on_c, 0, 55, 48
1, 199774, Note_on_c, 0, 87, 0
1, 199774, Note_on_c, 0, 86, 52
1, 199849, Note_on_c, 0, 86, 0
1, 199849, Note_on_c, 0, 85, 52
1, 199849, Note_on_c, 0, 58, 48
1, 199925, Note_on_c, 0, 85, 0
1, 199925, Note_on_c, 0, 84, 51
1, 200001, Note_on_c, 0, 84, 0
1, 200001, Note_on_c, 0, 83, 51
1, 200001, Note_on_c, 0, 64, 53
1, 200078, Note_on_c, 0, 83, 0
1, 200078, Note_on_c, 0, 82, 49
1, 200154, Note_on_c, 0, 82, 0
1, 200154, Note_on_c, 0, 81, 49
1, 200231, Note_on_c, 0, 81, 0
1, 200231, Note_on_c, 0, 80, 49
1, 200308, Note_on_c, 0, 80, 0
1, 200308, Note_on_c, 0, 79, 48
1, 200308, Note_on_c, 0, 64, 0
1, 200311, Note_on_c, 0, 58, 0
1, 200311, Note_on_c, 0, 55, 0
1, 200385, Note_on_c, 0, 79, 0
1, 200385, Note_on_c, 0, 78, 48
1, 200465, Note_on_c, 0, 78, 0
1, 200465, Note_on_c, 0, 77, 58
1, 200465, Note_on_c, 0, 41, 51
1, 200465, Control_c, 0, 64, 0
1, 200529, Control_c, 0, 64, 127
1, 200543, Note_on_c, 0, 77, 0
1, 200582, Note_on_c, 0, 41, 0
1, 200621, Note_on_c, 0, 53, 44
1, 200776, Note_on_c, 0, 53, 0
1, 200776, Note_on_c, 0, 57, 44
1, 200931, Note_on_c, 0, 57, 0
1, 200931, Note_on_c, 0, 65, 49
1, 201087, Note_on_c, 0, 65, 0
1, 201087, Note_on_c, 0, 57, 48
1, 201242, Note_on_c, 0, 69, 61
1, 201242, Note_on_c, 0, 57, 0
1, 201242, Note_on_c, 0, 60, 48
1, 201242, Control_c, 0, 64, 0
1, 201281, Control_c, 0, 64, 127
1, 201316, Note_on_c, 0, 81, 57
1, 201389, Note_on_c, 0, 81, 0
1, 201389, Note_on_c, 0, 69, 0
1, 201389, Note_on_c, 0, 70, 63
1, 201392, Note_on_c, 0, 60, 0
1, 201392, Note_on_c, 0, 53, 60
1, 201462, Note_on_c, 0, 82, 58
1, 201535, Note_on_c, 0, 82, 0
1, 201535, Note_on_c, 0, 70, 0
1, 201535, Note_on_c, 0, 71, 65
1, 201538, Note_on_c, 0, 55, 51
1, 201607, Note_on_c, 0, 83, 62
1, 201679, Note_on_c, 0, 83, 0
1, 201679, Note_on_c, 0, 71, 0
1, 201679, Note_on_c, 0, 72, 69
1, 201682, Note_on_c, 0, 55, 0
1, 201682, Note_on_c, 0, 60, 53
1, 201751, Note_on_c, 0, 84, 64
1, 201822, Note_on_c, 0, 84, 0
1, 201822, Note_on_c, 0, 72, 0
1, 201822, Note_on_c, 0, 74, 71
1, 201825, Note_on_c, 0, 60, 0
1, 201825, Note_on_c, 0, 64, 55
1, 201825, Control_c, 0, 64, 0
1, 201837, Control_c, 0, 64, 127
1, 201894, Note_on_c, 0, 86, 65
1, 201966, Note_on_c, 0, 86, 0
1, 201966, Note_on_c, 0, 74, 0
1, 201966, Note_on_c, 0, 76, 73
1, 201969, Note_on_c, 0, 64, 0
1, 201969, Note_on_c, 0, 55, 57
1, 202038, Note_on_c, 0, 88, 69
1, 202109, Note_on_c, 0, 88, 0
1, 202109, Note_on_c, 0, 76, 0
1, 202109, Note_on_c, 0, 77, 75
1, 202112, Note_on_c, 0, 55, 0
1, 202112, Note_on_c, 0, 60, 61
1, 202181, Note_on_c, 0, 89, 71
1, 202220, Note_on_c, 0, 89, 0
1, 202220, Note_on_c, 0, 79, 72
1, 202259, Note_on_c, 0, 79, 0
1, 202259, Note_on_c, 0, 77, 0
1, 202259, Note_on_c, 0, 91, 79
1, 202262, Note_on_c, 0, 60, 0
1, 202262, Note_on_c, 0, 53, 0
1, 202262, Note_on_c, 0, 53, 60
1, 202265, Control_c, 0, 64, 0
1, 202287, Control_c, 0, 64, 127
1, 202407, Note_on_c, 0, 91, 0
1, 202407, Note_on_c, 0, 58, 55
1, 202556, Note_on_c, 0, 58, 0
1, 202556, Note_on_c, 0, 60, 55
1, 202704, Note_on_c, 0, 69, 69
1, 202704, Note_on_c, 0, 60, 0
1, 202704, Note_on_c, 0, 64, 58
1, 202710, Control_c, 0, 64, 0
1, 202742, Control_c, 0, 64, 127
1, 202777, Note_on_c, 0, 81, 63
1, 202850, Note_on_c, 0, 81, 0
1, 202850, Note_on_c, 0, 69, 0
1, 202850, Note_on_c, 0, 70, 70
1, 202853, Note_on_c, 0, 64, 0
1, 202853, Note_on_c, 0, 58, 60
1, 202923, Note_on_c, 0, 82, 65
1, 202996, Note_on_c, 0, 82, 0
1, 202996, Note_on_c, 0, 70, 0
1, 202996, Note_on_c, 0, 71, 72
1, 202999, Note_on_c, 0, 58, 0
1, 202999, Note_on_c, 0, 60, 61
1, 203068, Note_on_c, 0, 83, 66
1, 203139, Note_on_c, 0, 83, 0
1, 203139, Note_on_c, 0, 71, 0
1, 203139, Note_on_c, 0, 72, 73
1, 203142, Note_on_c, 0, 60, 0
1, 203142, Note_on_c, 0, 53, 0
1, 203142, Note_on_c, 0, 53, 68
1, 203145, Control_c, 0, 64, 0
1, 203179, Control_c, 0, 64, 127
1, 203211, Note_on_c, 0, 84, 66
1, 203283, Note_on_c, 0, 84, 0
1, 203283, Note_on_c, 0, 72, 0
1, 203283, Note_on_c, 0, 74, 75
1, 203286, Note_on_c, 0, 57, 62
1, 203355, Note_on_c, 0, 86, 68
1, 203427, Note_on_c, 0, 86, 0
1, 203427, Note_on_c, 0, 74, 0
1, 203427, Note_on_c, 0, 76, 78
1, 203430, Note_on_c, 0, 57, 0
1, 203430, Note_on_c, 0, 60, 62
1, 203498, Note_on_c, 0, 88, 70
1, 203570, Note_on_c, 0, 88, 0
1, 203570, Note_on_c, 0, 76, 0
1, 203570, Note_on_c, 0, 77, 79
1, 203573, Note_on_c, 0, 60, 0
1, 203573, Note_on_c, 0, 65, 63
1, 203642, Note_on_c, 0, 89, 70
1, 203714, Note_on_c, 0, 89, 0
1, 203714, Note_on_c, 0, 77, 0
1, 203714, Note_on_c, 0, 79, 81
1, 203717, Note_on_c, 0, 65, 0
1, 203717, Note_on_c, 0, 57, 64
1, 203785, Note_on_c, 0, 91, 71
1, 203857, Note_on_c, 0, 91, 0
1, 203857, Note_on_c, 0, 79, 0
1, 203857, Note_on_c, 0, 80, 82
1, 203860, Note_on_c, 0, 57, 0
1, 203860, Note_on_c, 0, 60, 64
1, 203929, Note_on_c, 0, 92, 69
1, 203968, Note_on_c, 0, 92, 0
1, 203968, Note_on_c, 0, 81, 69
1, 204007, Note_on_c, 0, 81, 0
1, 204007, Note_on_c, 0, 80, 0
1, 204007, Note_on_c, 0, 93, 84
1, 204010, Note_on_c, 0, 60, 0
1, 204010, Note_on_c, 0, 53, 0
1, 204010, Control_c, 0, 64, 0
1, 204013, Note_on_c, 0, 52, 70
1, 204079, Note_on_c, 0, 93, 0
1, 204152, Note_on_c, 0, 52, 0
1, 204152, Note_on_c, 0, 57, 65
1, 204298, Note_on_c, 0, 61, 65
1, 204443, Note_on_c, 0, 81, 82
1, 204443, Note_on_c, 0, 61, 0
1, 204443, Note_on_c, 0, 67, 69
1, 204462, Control_c, 0, 64, 127
1, 204516, Note_on_c, 0, 93, 79
1, 204588, Note_on_c, 0, 93, 0
1, 204588, Note_on_c, 0, 81, 0
1, 204588, Note_on_c, 0, 83, 84
1, 204591, Note_on_c, 0, 67, 0
1, 204591, Note_on_c, 0, 57, 0
1, 204591, Note_on_c, 0, 57, 64
1, 204661, Note_on_c, 0, 95, 82
1, 204734, Note_on_c, 0, 95, 0
1, 204734, Note_on_c, 0, 83, 0
1, 204734, Note_on_c, 0, 85, 88
1, 204737, Note_on_c, 0, 61, 65
1, 204807, Note_on_c, 0, 97, 86
1, 204845, Note_on_c, 0, 97, 0
1, 204845, Note_on_c, 0, 86, 86
1, 204883, Note_on_c, 0, 85, 0
1, 204883, Note_on_c, 0, 98, 91
1, 204883, Note_on_c, 0, 61, 0
1, 204886, Note_on_c, 0, 57, 0
1, 204886, Note_on_c, 0, 50, 70
1, 204886, Control_c, 0, 64, 0
1, 204908, Control_c, 0, 64, 127
1, 205028, Note_on_c, 0, 50, 0
1, 205028, Note_on_c, 0, 57, 81
1, 205137, Note_on_c, 0, 98, 0
1, 205137, Note_on_c, 0, 86, 0
1, 205137, Note_on_c, 0, 88, 88
1, 205174, Note_on_c, 0, 100, 94
1, 205174, Note_on_c, 0, 62, 68
1, 205284, Note_on_c, 0, 100, 0
1, 205284, Note_on_c, 0, 88, 0
1, 205284, Note_on_c, 0, 89, 88
1, 205322, Note_on_c, 0, 101, 94
1, 205322, Note_on_c, 0, 62, 0
1, 205322, Note_on_c, 0, 65, 73
1, 205326, Control_c, 0, 64, 0
1, 205349, Control_c, 0, 64, 127
1, 205467, Note_on_c, 0, 65, 0
1, 205467, Note_on_c, 0, 57, 0
1, 205467, Note_on_c, 0, 57, 83
1, 205613, Note_on_c, 0, 62, 68
1, 205723, Note_on_c, 0, 101, 0
1, 205723, Note_on_c, 0, 89, 0
1, 205723, Note_on_c, 0, 86, 87
1, 205761, Note_on_c, 0, 98, 95
1, 205761, Note_on_c, 0, 62, 0
1, 205761, Note_on_c, 0, 57, 0
1, 205764, Note_on_c, 0, 48, 73
1, 205764, Control_c, 0, 64, 0
1, 205785, Control_c, 0, 64, 127
1, 205907, Note_on_c, 0, 48, 0
1, 205907, Note_on_c, 0, 57, 82
1, 206016, Note_on_c, 0, 98, 0
1, 206016, Note_on_c, 0, 86, 0
1, 206016, Note_on_c, 0, 88, 90
1, 206052, Note_on_c, 0, 100, 96
1, 206052, Note_on_c, 0, 62, 68
1, 206163, Note_on_c, 0, 100, 0
1, 206163, Note_on_c, 0, 88, 0
1, 206163, Note_on_c, 0, 89, 88
1, 206201, Note_on_c, 0, 101, 94
1, 206201, Note_on_c, 0, 62, 0
1, 206201, Note_on_c, 0, 65, 73
1, 206207, Control_c, 0, 64, 0
1, 206243, Control_c, 0, 64, 127
1, 206346, Note_on_c, 0, 65, 0
1, 206346, Note_on_c, 0, 57, 0
1, 206346, Note_on_c, 0, 57, 88
1, 206491, Note_on_c, 0, 62, 77
1, 206641, Note_on_c, 0, 101, 0
1, 206641, Note_on_c, 0, 86, 101
1, 206641, Note_on_c, 0, 62, 0
1, 206644, Note_on_c, 0, 57, 0
1, 206644, Note_on_c, 0, 46, 94
1, 206644, Control_c, 0, 64, 0
1, 206653, Note_on_c, 0, 89, 0
1, 206675, Control_c, 0, 64, 127
1, 206714, Note_on_c, 0, 86, 0
1, 206714, Note_on_c, 0, 98, 94
1, 206714, Note_on_c, 0, 46, 0
1, 206785, Note_on_c, 0, 98, 0
1, 206785, Note_on_c, 0, 89, 94
1, 206856, Note_on_c, 0, 89, 0
1, 206856, Note_on_c, 0, 94, 94
1, 206927, Note_on_c, 0, 94, 0
1, 206927, Note_on_c, 0, 92, 94
1, 206998, Note_on_c, 0, 92, 0
1, 206998, Note_on_c, 0, 89, 94
1, 207069, Note_on_c, 0, 89, 0
1, 207069, Note_on_c, 0, 86, 103
1, 207069, Note_on_c, 0, 65, 94
1, 207072, Note_on_c, 0, 58, 80
1, 207072, Note_on_c, 0, 56, 80
1, 207072, Note_on_c, 0, 53, 80
1, 207075, Control_c, 0, 64, 0
1, 207093, Control_c, 0, 64, 127
1, 207140, Note_on_c, 0, 86, 0
1, 207140, Note_on_c, 0, 82, 101
1, 207211, Note_on_c, 0, 82, 0
1, 207211, Note_on_c, 0, 80, 99
1, 207282, Note_on_c, 0, 80, 0
1, 207282, Note_on_c, 0, 77, 98
1, 207353, Note_on_c, 0, 77, 0
1, 207353, Note_on_c, 0, 74, 97
1, 207424, Note_on_c, 0, 74, 0
1, 207424, Note_on_c, 0, 70, 95
1, 207495, Note_on_c, 0, 70, 0
1, 207495, Note_on_c, 0, 68, 94
1, 207501, Control_c, 0, 64, 0
1, 207518, Control_c, 0, 64, 127
1, 207566, Note_on_c, 0, 68, 0
1, 207566, Note_on_c, 0, 53, 0
1, 207566, Note_on_c, 0, 65, 0
1, 207569, Note_on_c, 0, 58, 0
1, 207569, Note_on_c, 0, 56, 0
1, 207569, Note_on_c, 0, 65, 87
1, 207637, Note_on_c, 0, 65, 0
1, 207637, Note_on_c, 0, 62, 86
1, 207708, Note_on_c, 0, 62, 0
1, 207708, Note_on_c, 0, 58, 84
1, 207780, Note_on_c, 0, 58, 0
1, 207780, Note_on_c, 0, 56, 83
1, 207851, Note_on_c, 0, 56, 0
1, 207851, Note_on_c, 0, 53, 82
1, 207923, Note_on_c, 0, 68, 92
1, 207923, Note_on_c, 0, 62, 78
1, 207923, Note_on_c, 0, 64, 78
1, 207926, Note_on_c, 0, 53, 0
1, 207926, Note_on_c, 0, 50, 81
1, 207929, Control_c, 0, 64, 0
1, 207952, Control_c, 0, 64, 127
1, 207995, Note_on_c, 0, 50, 0
1, 207995, Note_on_c, 0, 46, 80
1, 208068, Note_on_c, 0, 46, 0
1, 208068, Note_on_c, 0, 44, 79
1, 208140, Note_on_c, 0, 44, 0
1, 208140, Note_on_c, 0, 41, 78
1, 208213, Note_on_c, 0, 41, 0
1, 208213, Note_on_c, 0, 38, 77
1, 208285, Note_on_c, 0, 38, 0
1, 208285, Note_on_c, 0, 34, 75
1, 208360, Note_on_c, 0, 64, 0
1, 208360, Note_on_c, 0, 62, 0
1, 208360, Note_on_c, 0, 68, 0
1, 208363, Note_on_c, 0, 61, 81
1, 208363, Note_on_c, 0, 69, 81
1, 208363, Note_on_c, 0, 34, 0
1, 208366, Note_on_c, 0, 33, 66
1, 208366, Control_c, 0, 64, 0
1, 208432, Note_on_c, 0, 62, 82
1, 208432, Note_on_c, 0, 35, 68
1, 208443, Note_on_c, 0, 69, 0
1, 208443, Note_on_c, 0, 61, 0
1, 208443, Note_on_c, 0, 33, 0
1, 208503, Note_on_c, 0, 64, 82
1, 208503, Note_on_c, 0, 37, 69
1, 208515, Note_on_c, 0, 62, 0
1, 208515, Note_on_c, 0, 35, 0
1, 208574, Note_on_c, 0, 66, 83
1, 208574, Note_on_c, 0, 38, 70
1, 208586, Note_on_c, 0, 64, 0
1, 208586, Note_on_c, 0, 37, 0
1, 208645, Note_on_c, 0, 68, 84
1, 208645, Note_on_c, 0, 40, 71
1, 208657, Note_on_c, 0, 66, 0
1, 208657, Note_on_c, 0, 38, 0
1, 208716, Note_on_c, 0, 69, 86
1, 208716, Note_on_c, 0, 42, 72
1, 208728, Note_on_c, 0, 68, 0
1, 208728, Note_on_c, 0, 40, 0
1, 208787, Note_on_c, 0, 71, 87
1, 208787, Note_on_c, 0, 44, 73
1, 208799, Note_on_c, 0, 69, 0
1, 208799, Note_on_c, 0, 42, 0
1, 208858, Note_on_c, 0, 73, 88
1, 208858, Note_on_c, 0, 45, 74
1, 208870, Note_on_c, 0, 71, 0
1, 208870, Note_on_c, 0, 44, 0
1, 208929, Note_on_c, 0, 74, 89
1, 208929, Note_on_c, 0, 47, 75
1, 208941, Note_on_c, 0, 73, 0
1, 208941, Note_on_c, 0, 45, 0
1, 209000, Note_on_c, 0, 76, 90
1, 209000, Note_on_c, 0, 49, 77
1, 209012, Note_on_c, 0, 74, 0
1, 209012, Note_on_c, 0, 47, 0
1, 209071, Note_on_c, 0, 78, 91
1, 209071, Note_on_c, 0, 50, 78
1, 209083, Note_on_c, 0, 76, 0
1, 209083, Note_on_c, 0, 49, 0
1, 209142, Note_on_c, 0, 80, 91
1, 209142, Note_on_c, 0, 52, 79
1, 209153, Note_on_c, 0, 78, 0
1, 209153, Note_on_c, 0, 50, 0
1, 209212, Note_on_c, 0, 81, 92
1, 209212, Note_on_c, 0, 54, 80
1, 209224, Note_on_c, 0, 80, 0
1, 209224, Note_on_c, 0, 52, 0
1, 209283, Note_on_c, 0, 83, 94
1, 209283, Note_on_c, 0, 56, 81
1, 209295, Note_on_c, 0, 81, 0
1, 209295, Note_on_c, 0, 54, 0
1, 209353, Note_on_c, 0, 85, 95
1, 209353, Note_on_c, 0, 57, 82
1, 209365, Note_on_c, 0, 83, 0
1, 209365, Note_on_c, 0, 56, 0
1, 209424, Note_on_c, 0, 86, 96
1, 209424, Note_on_c, 0, 59, 83
1, 209436, Note_on_c, 0, 85, 0
1, 209436, Note_on_c, 0, 57, 0
1, 209494, Note_on_c, 0, 88, 97
1, 209494, Note_on_c, 0, 61, 86
1, 209506, Note_on_c, 0, 86, 0
1, 209506, Note_on_c, 0, 59, 0
1, 209564, Note_on_c, 0, 90, 98
1, 209564, Note_on_c, 0, 62, 87
1, 209576, Note_on_c, 0, 88, 0
1, 209576, Note_on_c, 0, 61, 0
1, 209634, Note_on_c, 0, 92, 99
1, 209634, Note_on_c, 0, 64, 88
1, 209646, Note_on_c, 0, 90, 0
1, 209646, Note_on_c, 0, 62, 0
1, 209705, Note_on_c, 0, 93, 99
1, 209705, Note_on_c, 0, 66, 89
1, 209716, Note_on_c, 0, 92, 0
1, 209716, Note_on_c, 0, 64, 0
1, 209774, Note_on_c, 0, 95, 100
1, 209774, Note_on_c, 0, 68, 90
1, 209786, Note_on_c, 0, 93, 0
1, 209786, Note_on_c, 0, 66, 0
1, 209844, Note_on_c, 0, 97, 101
1, 209844, Note_on_c, 0, 69, 91
1, 209856, Note_on_c, 0, 95, 0
1, 209856, Note_on_c, 0, 68, 0
1, 209914, Note_on_c, 0, 98, 103
1, 209914, Note_on_c, 0, 71, 92
1, 209926, Note_on_c, 0, 97, 0
1, 209926, Note_on_c, 0, 69, 0
1, 209984, Note_on_c, 0, 99, 104
1, 209984, Note_on_c, 0, 72, 94
1, 209995, Note_on_c, 0, 98, 0
1, 209995, Note_on_c, 0, 71, 0
1, 210053, Note_on_c, 0, 100, 111
1, 210053, Note_on_c, 0, 73, 97
1, 210065, Note_on_c, 0, 99, 0
1, 210065, Note_on_c, 0, 72, 0
1, 210073, Control_c, 0, 64, 127
1, 210123, Note_on_c, 0, 100, 0
1, 210123, Note_on_c, 0, 97, 100
1, 210123, Note_on_c, 0, 73, 0
1, 210126, Note_on_c, 0, 76, 87
1, 210192, Note_on_c, 0, 97, 0
1, 210192, Note_on_c, 0, 93, 100
1, 210192, Note_on_c, 0, 76, 0
1, 210195, Note_on_c, 0, 81, 84
1, 210261, Note_on_c, 0, 93, 0
1, 210261, Note_on_c, 0, 88, 104
1, 210261, Note_on_c, 0, 81, 0
1, 210264, Note_on_c, 0, 85, 90
1, 210331, Note_on_c, 0, 88, 0
1, 210331, Note_on_c, 0, 86, 99
1, 210331, Note_on_c, 0, 85, 0
1, 210334, Note_on_c, 0, 83, 87
1, 210400, Note_on_c, 0, 86, 0
1, 210400, Note_on_c, 0, 92, 100
1, 210400, Note_on_c, 0, 83, 0
1, 210403, Note_on_c, 0, 76, 87
1, 210474, Note_on_c, 0, 92, 0
1, 210474, Note_on_c, 0, 93, 109
1, 210474, Note_on_c, 0, 76, 0
1, 210477, Note_on_c, 0, 73, 95
1, 210477, Control_c, 0, 64, 0
1, 210503, Control_c, 0, 64, 127
1, 210543, Note_on_c, 0, 93, 0
1, 210543, Note_on_c, 0, 88, 104
1, 210543, Note_on_c, 0, 73, 0
1, 210546, Note_on_c, 0, 69, 90
1, 210613, Note_on_c, 0, 88, 0
1, 210613, Note_on_c, 0, 85, 99
1, 210613, Note_on_c, 0, 69, 0
1, 210616, Note_on_c, 0, 64, 88
1, 210682, Note_on_c, 0, 85, 0
1, 210682, Note_on_c, 0, 81, 99
1, 210682, Note_on_c, 0, 64, 0
1, 210685, Note_on_c, 0, 61, 88
1, 210751, Note_on_c, 0, 81, 0
1, 210751, Note_on_c, 0, 80, 95
1, 210751, Note_on_c, 0, 61, 0
1, 210754, Note_on_c, 0, 64, 82
1, 210821, Note_on_c, 0, 80, 0
1, 210821, Note_on_c, 0, 86, 95
1, 210821, Note_on_c, 0, 64, 0
1, 210824, Note_on_c, 0, 71, 82
1, 210894, Note_on_c, 0, 86, 0
1, 210894, Note_on_c, 0, 88, 101
1, 210894, Note_on_c, 0, 71, 0
1, 210897, Note_on_c, 0, 61, 88
1, 210897, Control_c, 0, 64, 0
1, 210924, Control_c, 0, 64, 127
1, 210964, Note_on_c, 0, 88, 0
1, 210964, Note_on_c, 0, 85, 94
1, 210964, Note_on_c, 0, 61, 0
1, 210967, Note_on_c, 0, 64, 81
1, 211033, Note_on_c, 0, 85, 0
1, 211033, Note_on_c, 0, 81, 94
1, 211033, Note_on_c, 0, 64, 0
1, 211036, Note_on_c, 0, 69, 81
1, 211103, Note_on_c, 0, 81, 0
1, 211103, Note_on_c, 0, 76, 94
1, 211103, Note_on_c, 0, 69, 0
1, 211106, Note_on_c, 0, 73, 81
1, 211172, Note_on_c, 0, 76, 0
1, 211172, Note_on_c, 0, 74, 89
1, 211172, Note_on_c, 0, 73, 0
1, 211175, Note_on_c, 0, 71, 79
1, 211241, Note_on_c, 0, 74, 0
1, 211241, Note_on_c, 0, 80, 90
1, 211241, Note_on_c, 0, 71, 0
1, 211244, Note_on_c, 0, 64, 79
1, 211315, Note_on_c, 0, 80, 0
1, 211315, Note_on_c, 0, 81, 100
1, 211315, Note_on_c, 0, 64, 0
1, 211318, Note_on_c, 0, 61, 88
1, 211318, Control_c, 0, 64, 0
1, 211357, Control_c, 0, 64, 127
1, 211384, Note_on_c, 0, 81, 0
1, 211384, Note_on_c, 0, 76, 94
1, 211384, Note_on_c, 0, 61, 0
1, 211387, Note_on_c, 0, 57, 81
1, 211453, Note_on_c, 0, 76, 0
1, 211453, Note_on_c, 0, 73, 94
1, 211453, Note_on_c, 0, 57, 0
1, 211456, Note_on_c, 0, 52, 81
1, 211523, Note_on_c, 0, 73, 0
1, 211523, Note_on_c, 0, 69, 94
1, 211523, Note_on_c, 0, 52, 0
1, 211526, Note_on_c, 0, 49, 81
1, 211592, Note_on_c, 0, 69, 0
1, 211592, Note_on_c, 0, 68, 89
1, 211592, Note_on_c, 0, 49, 0
1, 211595, Note_on_c, 0, 52, 79
1, 211662, Note_on_c, 0, 68, 0
1, 211662, Note_on_c, 0, 74, 89
1, 211662, Note_on_c, 0, 52, 0
1, 211665, Note_on_c, 0, 59, 79
1, 211734, Note_on_c, 0, 74, 0
1, 211734, Note_on_c, 0, 76, 87
1, 211734, Note_on_c, 0, 59, 0
1, 211737, Note_on_c, 0, 49, 75
1, 211737, Control_c, 0, 64, 0
1, 211760, Control_c, 0, 64, 127
1, 211803, Note_on_c, 0, 76, 0
1, 211803, Note_on_c, 0, 73, 79
1, 211803, Note_on_c, 0, 49, 0
1, 211806, Note_on_c, 0, 52, 69
1, 211873, Note_on_c, 0, 73, 0
1, 211873, Note_on_c, 0, 69, 79
1, 211873, Note_on_c, 0, 52, 0
1, 211876, Note_on_c, 0, 57, 68
1, 211942, Note_on_c, 0, 69, 0
1, 211942, Note_on_c, 0, 64, 78
1, 211942, Note_on_c, 0, 57, 0
1, 211945, Note_on_c, 0, 61, 68
1, 212011, Note_on_c, 0, 64, 0
1, 212011, Note_on_c, 0, 62, 72
1, 212011, Note_on_c, 0, 61, 0
1, 212014, Note_on_c, 0, 59, 64
1, 212081, Note_on_c, 0, 62, 0
1, 212081, Note_on_c, 0, 68, 72
1, 212081, Note_on_c, 0, 59, 0
1, 212084, Note_on_c, 0, 52, 63
1, 212154, Note_on_c, 0, 68, 0
1, 212154, Note_on_c, 0, 69, 79
1, 212154, Note_on_c, 0, 52, 0
1, 212157, Note_on_c, 0, 49, 71
1, 212160, Control_c, 0, 64, 0
1, 212183, Control_c, 0, 64, 127
1, 212223, Note_on_c, 0, 69, 0
1, 212223, Note_on_c, 0, 64, 72
1, 212223, Note_on_c, 0, 49, 0
1, 212226, Note_on_c, 0, 45, 63
1, 212292, Note_on_c, 0, 64, 0
1, 212292, Note_on_c, 0, 61, 70
1, 212292, Note_on_c, 0, 45, 0
1, 212295, Note_on_c, 0, 40, 60
1, 212362, Note_on_c, 0, 61, 0
1, 212362, Note_on_c, 0, 57, 68
1, 212362, Note_on_c, 0, 40, 0
1, 212365, Note_on_c, 0, 37, 58
1, 212431, Note_on_c, 0, 57, 0
1, 212431, Note_on_c, 0, 56, 62
1, 212431, Note_on_c, 0, 37, 0
1, 212434, Note_on_c, 0, 40, 55
1, 212501, Note_on_c, 0, 56, 0
1, 212501, Note_on_c, 0, 62, 60
1, 212501, Note_on_c, 0, 40, 0
1, 212504, Note_on_c, 0, 47, 54
1, 212573, Note_on_c, 0, 62, 0
1, 212573, Note_on_c, 0, 64, 62
1, 212573, Note_on_c, 0, 47, 0
1, 212576, Note_on_c, 0, 33, 54
1, 212579, Control_c, 0, 64, 0
1, 212644, Note_on_c, 0, 61, 65
1, 212644, Note_on_c, 0, 40, 58
1, 212655, Note_on_c, 0, 64, 0
1, 212655, Note_on_c, 0, 33, 0
1, 212714, Note_on_c, 0, 57, 69
1, 212714, Note_on_c, 0, 48, 62
1, 212725, Note_on_c, 0, 61, 0
1, 212725, Note_on_c, 0, 40, 0
1, 212783, Note_on_c, 0, 52, 65
1, 212783, Note_on_c, 0, 49, 58
1, 212795, Note_on_c, 0, 57, 0
1, 212795, Note_on_c, 0, 48, 0
1, 212852, Note_on_c, 0, 56, 62
1, 212852, Note_on_c, 0, 47, 53
1, 212864, Note_on_c, 0, 52, 0
1, 212864, Note_on_c, 0, 49, 0
1, 212922, Note_on_c, 0, 62, 62
1, 212922, Note_on_c, 0, 40, 53
1, 212933, Note_on_c, 0, 56, 0
1, 212933, Note_on_c, 0, 47, 0
1, 212992, Note_on_c, 0, 64, 62
1, 212992, Note_on_c, 0, 33, 54
1, 213003, Note_on_c, 0, 62, 0
1, 213003, Note_on_c, 0, 40, 0
1, 213063, Note_on_c, 0, 61, 65
1, 213063, Note_on_c, 0, 40, 58
1, 213074, Note_on_c, 0, 64, 0
1, 213074, Note_on_c, 0, 33, 0
1, 213133, Note_on_c, 0, 57, 69
1, 213133, Note_on_c, 0, 48, 62
1, 213144, Note_on_c, 0, 61, 0
1, 213144, Note_on_c, 0, 40, 0
1, 213202, Note_on_c, 0, 52, 65
1, 213202, Note_on_c, 0, 49, 58
1, 213214, Note_on_c, 0, 57, 0
1, 213214, Note_on_c, 0, 48, 0
1, 213272, Note_on_c, 0, 56, 62
1, 213272, Note_on_c, 0, 47, 53
1, 213283, Note_on_c, 0, 52, 0
1, 213283, Note_on_c, 0, 49, 0
1, 213341, Note_on_c, 0, 62, 61
1, 213341, Note_on_c, 0, 40, 54
1, 213353, Note_on_c, 0, 56, 0
1, 213353, Note_on_c, 0, 47, 0
1, 213411, Note_on_c, 0, 64, 48
1, 213411, Note_on_c, 0, 33, 43
1, 213423, Note_on_c, 0, 62, 0
1, 213423, Note_on_c, 0, 40, 0
1, 213482, Note_on_c, 0, 61, 51
1, 213482, Note_on_c, 0, 40, 45
1, 213494, Note_on_c, 0, 64, 0
1, 213494, Note_on_c, 0, 33, 0
1, 213552, Note_on_c, 0, 57, 53
1, 213552, Note_on_c, 0, 48, 48
1, 213564, Note_on_c, 0, 61, 0
1, 213564, Note_on_c, 0, 40, 0
1, 213622, Note_on_c, 0, 52, 51
1, 213622, Note_on_c, 0, 49, 46
1, 213634, Note_on_c, 0, 57, 0
1, 213634, Note_on_c, 0, 48, 0
1, 213691, Note_on_c, 0, 56, 47
1, 213691, Note_on_c, 0, 47, 40
1, 213703, Note_on_c, 0, 52, 0
1, 213703, Note_on_c, 0, 49, 0
1, 213761, Note_on_c, 0, 62, 47
1, 213761, Note_on_c, 0, 40, 41
1, 213773, Note_on_c, 0, 56, 0
1, 213773, Note_on_c, 0, 47, 0
1, 213832, Note_on_c, 0, 64, 48
1, 213832, Note_on_c, 0, 33, 43
1, 213844, Note_on_c, 0, 62, 0
1, 213844, Note_on_c, 0, 40, 0
1, 213902, Note_on_c, 0, 61, 51
1, 213902, Note_on_c, 0, 40, 45
1, 213914, Note_on_c, 0, 64, 0
1, 213914, Note_on_c, 0, 33, 0
1, 213972, Note_on_c, 0, 57, 53
1, 213972, Note_on_c, 0, 48, 48
1, 213984, Note_on_c, 0, 61, 0
1, 213984, Note_on_c, 0, 40, 0
1, 214042, Note_on_c, 0, 52, 51
1, 214042, Note_on_c, 0, 49, 46
1, 214053, Note_on_c, 0, 57, 0
1, 214053, Note_on_c, 0, 48, 0
1, 214111, Note_on_c, 0, 56, 47
1, 214111, Note_on_c, 0, 47, 38
1, 214122, Note_on_c, 0, 52, 0
1, 214122, Note_on_c, 0, 49, 0
1, 214181, Note_on_c, 0, 62, 47
1, 214181, Note_on_c, 0, 40, 38
1, 214192, Note_on_c, 0, 56, 0
1, 214192, Note_on_c, 0, 47, 0
1, 214251, Note_on_c, 0, 57, 48
1, 214251, Note_on_c, 0, 64, 48
1, 214251, Note_on_c, 0, 33, 43
1, 214264, Note_on_c, 0, 62, 0
1, 214264, Note_on_c, 0, 40, 0
1, 214326, Note_on_c, 0, 58, 48
1, 214339, Note_on_c, 0, 64, 0
1, 214339, Note_on_c, 0, 57, 0
1, 214401, Note_on_c, 0, 59, 48
1, 214401, Note_on_c, 0, 33, 0
1, 214414, Note_on_c, 0, 58, 0
1, 214476, Note_on_c, 0, 60, 47
1, 214489, Note_on_c, 0, 59, 0
1, 214551, Note_on_c, 0, 61, 47
1, 214564, Note_on_c, 0, 60, 0
1, 214626, Note_on_c, 0, 62, 47
1, 214638, Note_on_c, 0, 61, 0
1, 214700, Note_on_c, 0, 63, 47
1, 214713, Note_on_c, 0, 62, 0
1, 214776, Note_on_c, 0, 64, 46
1, 214788, Note_on_c, 0, 63, 0
1, 214851, Note_on_c, 0, 65, 46
1, 214863, Note_on_c, 0, 64, 0
1, 214927, Note_on_c, 0, 66, 46
1, 214940, Note_on_c, 0, 65, 0
1, 215002, Note_on_c, 0, 67, 45
1, 215015, Note_on_c, 0, 66, 0
1, 215077, Note_on_c, 0, 68, 45
1, 215089, Note_on_c, 0, 67, 0
1, 215152, Note_on_c, 0, 69, 45
1, 215164, Note_on_c, 0, 68, 0
1, 215227, Note_on_c, 0, 68, 40
1, 215239, Note_on_c, 0, 69, 0
1, 215302, Note_on_c, 0, 69, 45
1, 215315, Note_on_c, 0, 68, 0
1, 215378, Note_on_c, 0, 68, 41
1, 215390, Note_on_c, 0, 69, 0
1, 215453, Note_on_c, 0, 69, 45
1, 215466, Note_on_c, 0, 68, 0
1, 215529, Note_on_c, 0, 68, 40
1, 215542, Note_on_c, 0, 69, 0
1, 215605, Note_on_c, 0, 69, 45
1, 215618, Note_on_c, 0, 68, 0
1, 215681, Note_on_c, 0, 68, 41
1, 215694, Note_on_c, 0, 69, 0
1, 215757, Note_on_c, 0, 69, 45
1, 215770, Note_on_c, 0, 68, 0
1, 215833, Note_on_c, 0, 68, 41
1, 215846, Note_on_c, 0, 69, 0
1, 215909, Note_on_c, 0, 69, 45
1, 215922, Note_on_c, 0, 68, 0
1, 215986, Note_on_c, 0, 68, 40
1, 215998, Note_on_c, 0, 69, 0
1, 216062, Note_on_c, 0, 69, 45
1, 216075, Note_on_c, 0, 68, 0
1, 216139, Note_on_c, 0, 68, 40
1, 216152, Note_on_c, 0, 69, 0
1, 216217, Note_on_c, 0, 69, 45
1, 216230, Note_on_c, 0, 68, 0
1, 216296, Note_on_c, 0, 68, 41
1, 216309, Note_on_c, 0, 69, 0
1, 216376, Note_on_c, 0, 69, 45
1, 216389, Note_on_c, 0, 68, 0
1, 216456, Note_on_c, 0, 68, 41
1, 216470, Note_on_c, 0, 69, 0
1, 216497, Note_on_c, 0, 68, 0
1, 216497, Note_on_c, 0, 70, 52
1, 216538, Note_on_c, 0, 70, 0
1, 216538, Note_on_c, 0, 69, 54
1, 216538, Note_on_c, 0, 48, 46
1, 216565, Control_c, 0, 64, 127
1, 216621, Note_on_c, 0, 69, 0
1, 216621, Note_on_c, 0, 64, 46
1, 216621, Note_on_c, 0, 48, 0
1, 216624, Note_on_c, 0, 60, 40
1, 216703, Note_on_c, 0, 64, 0
1, 216703, Note_on_c, 0, 68, 55
1, 216703, Note_on_c, 0, 60, 0
1, 216706, Note_on_c, 0, 54, 46
1, 216784, Note_on_c, 0, 68, 0
1, 216784, Note_on_c, 0, 64, 46
1, 216784, Note_on_c, 0, 54, 0
1, 216787, Note_on_c, 0, 60, 41
1, 216865, Note_on_c, 0, 64, 0
1, 216865, Note_on_c, 0, 69, 55
1, 216865, Note_on_c, 0, 60, 0
1, 216868, Note_on_c, 0, 54, 46
1, 216945, Note_on_c, 0, 69, 0
1, 216945, Note_on_c, 0, 64, 48
1, 216945, Note_on_c, 0, 54, 0
1, 216948, Note_on_c, 0, 60, 41
1, 216991, Note_on_c, 0, 64, 0
1, 216991, Note_on_c, 0, 72, 51
1, 217030, Note_on_c, 0, 72, 0
1, 217030, Note_on_c, 0, 70, 57
1, 217030, Note_on_c, 0, 60, 0
1, 217033, Control_c, 0, 64, 0
1, 217033, Note_on_c, 0, 48, 51
1, 217056, Control_c, 0, 64, 127
1, 217109, Note_on_c, 0, 70, 0
1, 217109, Note_on_c, 0, 64, 51
1, 217109, Note_on_c, 0, 48, 0
1, 217112, Note_on_c, 0, 60, 43
1, 217187, Note_on_c, 0, 64, 0
1, 217187, Note_on_c, 0, 69, 61
1, 217187, Note_on_c, 0, 60, 0
1, 217190, Note_on_c, 0, 55, 53
1, 217264, Note_on_c, 0, 69, 0
1, 217264, Note_on_c, 0, 64, 51
1, 217264, Note_on_c, 0, 55, 0
1, 217267, Note_on_c, 0, 60, 44
1, 217342, Note_on_c, 0, 64, 0
1, 217342, Note_on_c, 0, 70, 62
1, 217342, Note_on_c, 0, 60, 0
1, 217345, Note_on_c, 0, 55, 55
1, 217420, Note_on_c, 0, 70, 0
1, 217420, Note_on_c, 0, 64, 53
1, 217420, Note_on_c, 0, 55, 0
1, 217423, Note_on_c, 0, 60, 43
1, 217498, Note_on_c, 0, 64, 0
1, 217498, Note_on_c, 0, 71, 64
1, 217498, Note_on_c, 0, 60, 0
1, 217501, Note_on_c, 0, 48, 56
1, 217501, Control_c, 0, 64, 0
1, 217517, Control_c, 0, 64, 127
1, 217578, Note_on_c, 0, 71, 0
1, 217578, Note_on_c, 0, 65, 54
1, 217578, Note_on_c, 0, 48, 0
1, 217581, Note_on_c, 0, 62, 44
1, 217666, Note_on_c, 0, 65, 0
1, 217666, Note_on_c, 0, 77, 65
1, 217666, Note_on_c, 0, 62, 0
1, 217669, Note_on_c, 0, 56, 62
1, 217673, Control_c, 0, 64, 0
1, 217702, Control_c, 0, 64, 127
1, 217745, Note_on_c, 0, 65, 54
1, 217745, Note_on_c, 0, 56, 0
1, 217745, Note_on_c, 0, 62, 52
1, 217823, Note_on_c, 0, 65, 0
1, 217823, Note_on_c, 0, 71, 61
1, 217823, Note_on_c, 0, 62, 0
1, 217826, Note_on_c, 0, 56, 58
1, 217902, Note_on_c, 0, 71, 0
1, 217902, Note_on_c, 0, 65, 52
1, 217902, Note_on_c, 0, 56, 0
1, 217905, Note_on_c, 0, 62, 45
1, 217948, Note_on_c, 0, 65, 0
1, 217948, Note_on_c, 0, 74, 54
1, 217988, Note_on_c, 0, 74, 0
1, 217988, Note_on_c, 0, 72, 64
1, 217988, Note_on_c, 0, 62, 0
1, 217991, Note_on_c, 0, 48, 57
1, 217994, Control_c, 0, 64, 0
1, 218029, Control_c, 0, 64, 127
1, 218066, Note_on_c, 0, 72, 0
1, 218066, Note_on_c, 0, 65, 55
1, 218066, Note_on_c, 0, 48, 0
1, 218069, Note_on_c, 0, 60, 46
1, 218145, Note_on_c, 0, 65, 0
1, 218145, Note_on_c, 0, 71, 63
1, 218145, Note_on_c, 0, 60, 0
1, 218148, Note_on_c, 0, 57, 60
1, 218223, Note_on_c, 0, 71, 0
1, 218223, Note_on_c, 0, 65, 54
1, 218223, Note_on_c, 0, 57, 0
1, 218226, Note_on_c, 0, 60, 47
1, 218300, Note_on_c, 0, 65, 0
1, 218300, Note_on_c, 0, 72, 63
1, 218300, Note_on_c, 0, 60, 0
1, 218303, Note_on_c, 0, 55, 61
1, 218379, Note_on_c, 0, 72, 0
1, 218379, Note_on_c, 0, 65, 57
1, 218379, Note_on_c, 0, 55, 0
1, 218382, Note_on_c, 0, 60, 48
1, 218458, Note_on_c, 0, 65, 0
1, 218458, Note_on_c, 0, 72, 65
1, 218458, Note_on_c, 0, 60, 0
1, 218461, Note_on_c, 0, 48, 62
1, 218461, Control_c, 0, 64, 0
1, 218488, Control_c, 0, 64, 127
1, 218536, Note_on_c, 0, 72, 0
1, 218536, Note_on_c, 0, 69, 57
1, 218536, Note_on_c, 0, 48, 0
1, 218539, Note_on_c, 0, 62, 49
1, 218615, Note_on_c, 0, 69, 0
1, 218615, Note_on_c, 0, 77, 0
1, 218615, Note_on_c, 0, 81, 71
1, 218618, Note_on_c, 0, 75, 61
1, 218618, Note_on_c, 0, 62, 0
1, 218618, Note_on_c, 0, 54, 63
1, 218621, Control_c, 0, 64, 0
1, 218657, Control_c, 0, 64, 127
1, 218695, Note_on_c, 0, 75, 0
1, 218695, Note_on_c, 0, 65, 61
1, 218695, Note_on_c, 0, 54, 0
1, 218698, Note_on_c, 0, 62, 52
1, 218783, Note_on_c, 0, 65, 0
1, 218783, Note_on_c, 0, 74, 66
1, 218783, Note_on_c, 0, 62, 0
1, 218786, Note_on_c, 0, 57, 62
1, 218862, Note_on_c, 0, 74, 0
1, 218862, Note_on_c, 0, 65, 58
1, 218862, Note_on_c, 0, 57, 0
1, 218865, Note_on_c, 0, 62, 51
1, 218940, Note_on_c, 0, 65, 0
1, 218940, Note_on_c, 0, 74, 68
1, 218940, Note_on_c, 0, 62, 0
1, 218943, Note_on_c, 0, 48, 63
1, 218946, Control_c, 0, 64, 0
1, 218979, Control_c, 0, 64, 127
1, 219021, Note_on_c, 0, 74, 0
1, 219021, Note_on_c, 0, 67, 58
1, 219021, Note_on_c, 0, 48, 0
1, 219024, Note_on_c, 0, 62, 53
1, 219108, Note_on_c, 0, 67, 0
1, 219108, Note_on_c, 0, 81, 0
1, 219108, Note_on_c, 0, 79, 73
1, 219111, Note_on_c, 0, 70, 68
1, 219111, Note_on_c, 0, 62, 0
1, 219111, Note_on_c, 0, 55, 61
1, 219111, Control_c, 0, 64, 0
1, 219145, Control_c, 0, 64, 127
1, 219187, Note_on_c, 0, 70, 0
1, 219187, Note_on_c, 0, 67, 58
1, 219187, Note_on_c, 0, 55, 0
1, 219190, Note_on_c, 0, 62, 53
1, 219265, Note_on_c, 0, 67, 0
1, 219265, Note_on_c, 0, 70, 65
1, 219265, Note_on_c, 0, 62, 0
1, 219268, Note_on_c, 0, 53, 65
1, 219344, Note_on_c, 0, 70, 0
1, 219344, Note_on_c, 0, 67, 58
1, 219344, Note_on_c, 0, 53, 0
1, 219347, Note_on_c, 0, 62, 51
1, 219422, Note_on_c, 0, 67, 0
1, 219422, Note_on_c, 0, 70, 65
1, 219422, Note_on_c, 0, 62, 0
1, 219425, Note_on_c, 0, 48, 63
1, 219428, Control_c, 0, 64, 0
1, 219457, Control_c, 0, 64, 127
1, 219503, Note_on_c, 0, 70, 0
1, 219503, Note_on_c, 0, 67, 58
1, 219503, Note_on_c, 0, 48, 0
1, 219506, Note_on_c, 0, 60, 51
1, 219588, Note_on_c, 0, 67, 0
1, 219588, Note_on_c, 0, 79, 0
1, 219588, Note_on_c, 0, 79, 73
1, 219591, Note_on_c, 0, 73, 55
1, 219591, Note_on_c, 0, 60, 0
1, 219591, Note_on_c, 0, 52, 61
1, 219591, Control_c, 0, 64, 0
1, 219633, Control_c, 0, 64, 127
1, 219667, Note_on_c, 0, 73, 0
1, 219667, Note_on_c, 0, 67, 58
1, 219667, Note_on_c, 0, 52, 0
1, 219670, Note_on_c, 0, 60, 51
1, 219745, Note_on_c, 0, 67, 0
1, 219745, Note_on_c, 0, 72, 65
1, 219745, Note_on_c, 0, 60, 0
1, 219748, Note_on_c, 0, 55, 61
1, 219824, Note_on_c, 0, 72, 0
1, 219824, Note_on_c, 0, 67, 58
1, 219824, Note_on_c, 0, 55, 0
1, 219827, Note_on_c, 0, 60, 51
1, 219902, Note_on_c, 0, 67, 0
1, 219902, Note_on_c, 0, 72, 65
1, 219902, Note_on_c, 0, 60, 0
1, 219905, Control_c, 0, 64, 0
1, 219905, Note_on_c, 0, 48, 62
1, 219946, Control_c, 0, 64, 127
1, 219984, Note_on_c, 0, 72, 0
1, 219984, Note_on_c, 0, 65, 58
1, 219984, Note_on_c, 0, 48, 0
1, 219987, Note_on_c, 0, 60, 51
1, 220068, Note_on_c, 0, 65, 0
1, 220068, Note_on_c, 0, 79, 0
1, 220068, Note_on_c, 0, 77, 73
1, 220071, Note_on_c, 0, 69, 58
1, 220071, Note_on_c, 0, 60, 0
1, 220071, Note_on_c, 0, 53, 61
1, 220147, Note_on_c, 0, 69, 0
1, 220147, Note_on_c, 0, 65, 58
1, 220147, Note_on_c, 0, 53, 0
1, 220150, Note_on_c, 0, 60, 49
1, 220226, Note_on_c, 0, 65, 0
1, 220226, Note_on_c, 0, 69, 58
1, 220226, Note_on_c, 0, 60, 0
1, 220229, Note_on_c, 0, 48, 60
1, 220305, Note_on_c, 0, 69, 0
1, 220305, Note_on_c, 0, 65, 58
1, 220305, Note_on_c, 0, 48, 0
1, 220308, Note_on_c, 0, 60, 49
1, 220389, Note_on_c, 0, 65, 0
1, 220389, Note_on_c, 0, 77, 0
1, 220389, Note_on_c, 0, 64, 70
1, 220392, Note_on_c, 0, 60, 0
1, 220392, Control_c, 0, 64, 0
1, 220392, Note_on_c, 0, 52, 60
1, 220421, Control_c, 0, 64, 127
1, 220467, Note_on_c, 0, 60, 55
1, 220467, Note_on_c, 0, 57, 48
1, 220544, Note_on_c, 0, 60, 0
1, 220544, Note_on_c, 0, 72, 56
1, 220544, Note_on_c, 0, 57, 0
1, 220547, Note_on_c, 0, 45, 49
1, 220623, Note_on_c, 0, 72, 0
1, 220623, Note_on_c, 0, 60, 56
1, 220623, Note_on_c, 0, 45, 0
1, 220626, Note_on_c, 0, 57, 49
1, 220702, Note_on_c, 0, 60, 0
1, 220702, Note_on_c, 0, 64, 0
1, 220702, Note_on_c, 0, 65, 65
1, 220705, Note_on_c, 0, 57, 0
1, 220705, Note_on_c, 0, 52, 0
1, 220705, Note_on_c, 0, 53, 56
1, 220781, Note_on_c, 0, 60, 57
1, 220781, Note_on_c, 0, 57, 51
1, 220863, Note_on_c, 0, 60, 0
1, 220863, Note_on_c, 0, 65, 0
1, 220863, Note_on_c, 0, 66, 72
1, 220866, Note_on_c, 0, 57, 0
1, 220866, Note_on_c, 0, 53, 0
1, 220866, Note_on_c, 0, 54, 62
1, 220870, Control_c, 0, 64, 0
1, 220905, Control_c, 0, 64, 127
1, 220942, Note_on_c, 0, 62, 58
1, 220942, Note_on_c, 0, 58, 51
1, 221021, Note_on_c, 0, 62, 0
1, 221021, Note_on_c, 0, 74, 58
1, 221021, Note_on_c, 0, 58, 0
1, 221024, Note_on_c, 0, 46, 52
1, 221099, Note_on_c, 0, 74, 0
1, 221099, Note_on_c, 0, 62, 58
1, 221099, Note_on_c, 0, 46, 0
1, 221102, Note_on_c, 0, 58, 52
1, 221177, Note_on_c, 0, 62, 0
1, 221177, Note_on_c, 0, 66, 0
1, 221177, Note_on_c, 0, 67, 69
1, 221180, Note_on_c, 0, 58, 0
1, 221180, Note_on_c, 0, 54, 0
1, 221180, Note_on_c, 0, 55, 58
1, 221256, Note_on_c, 0, 62, 58
1, 221256, Note_on_c, 0, 58, 51
1, 221339, Note_on_c, 0, 62, 0
1, 221339, Note_on_c, 0, 67, 0
1, 221339, Note_on_c, 0, 68, 74
1, 221342, Note_on_c, 0, 58, 0
1, 221342, Note_on_c, 0, 55, 0
1, 221342, Note_on_c, 0, 56, 64
1, 221345, Control_c, 0, 64, 0
1, 221380, Control_c, 0, 64, 127
1, 221416, Note_on_c, 0, 64, 60
1, 221416, Note_on_c, 0, 60, 49
1, 221495, Note_on_c, 0, 64, 0
1, 221495, Note_on_c, 0, 76, 61
1, 221495, Note_on_c, 0, 60, 0
1, 221498, Note_on_c, 0, 48, 51
1, 221573, Note_on_c, 0, 76, 0
1, 221573, Note_on_c, 0, 64, 61
1, 221573, Note_on_c, 0, 48, 0
1, 221576, Note_on_c, 0, 60, 51
1, 221651, Note_on_c, 0, 64, 0
1, 221651, Note_on_c, 0, 68, 0
1, 221651, Note_on_c, 0, 69, 71
1, 221654, Note_on_c, 0, 60, 0
1, 221654, Note_on_c, 0, 56, 0
1, 221654, Note_on_c, 0, 57, 61
1, 221729, Note_on_c, 0, 64, 62
1, 221729, Note_on_c, 0, 60, 53
1, 221812, Note_on_c, 0, 64, 0
1, 221812, Note_on_c, 0, 69, 0
1, 221812, Note_on_c, 0, 69, 78
1, 221815, Note_on_c, 0, 60, 0
1, 221815, Note_on_c, 0, 57, 0
1, 221815, Note_on_c, 0, 57, 66
1, 221815, Control_c, 0, 64, 0
1, 221858, Control_c, 0, 64, 127
1, 221890, Note_on_c, 0, 65, 62
1, 221890, Note_on_c, 0, 62, 54
1, 221967, Note_on_c, 0, 65, 0
1, 221967, Note_on_c, 0, 77, 63
1, 221967, Note_on_c, 0, 62, 0
1, 221970, Note_on_c, 0, 50, 54
1, 222045, Note_on_c, 0, 77, 0
1, 222045, Note_on_c, 0, 65, 63
1, 222045, Note_on_c, 0, 50, 0
1, 222048, Note_on_c, 0, 62, 54
1, 222123, Note_on_c, 0, 65, 0
1, 222123, Note_on_c, 0, 69, 0
1, 222123, Note_on_c, 0, 70, 73
1, 222126, Note_on_c, 0, 62, 0
1, 222126, Note_on_c, 0, 57, 0
1, 222126, Note_on_c, 0, 58, 63
1, 222201, Note_on_c, 0, 65, 63
1, 222201, Note_on_c, 0, 62, 55
1, 222283, Note_on_c, 0, 65, 0
1, 222283, Note_on_c, 0, 70, 0
1, 222283, Note_on_c, 0, 71, 80
1, 222286, Note_on_c, 0, 62, 0
1, 222286, Note_on_c, 0, 58, 0
1, 222286, Note_on_c, 0, 59, 69
1, 222286, Control_c, 0, 64, 0
1, 222338, Control_c, 0, 64, 127
1, 222361, Note_on_c, 0, 67, 64
1, 222361, Note_on_c, 0, 64, 56
1, 222437, Note_on_c, 0, 67, 0
1, 222437, Note_on_c, 0, 79, 64
1, 222437, Note_on_c, 0, 64, 0
1, 222440, Note_on_c, 0, 52, 57
1, 222515, Note_on_c, 0, 67, 65
1, 222515, Note_on_c, 0, 52, 0
1, 222515, Note_on_c, 0, 64, 57
1, 222594, Note_on_c, 0, 67, 0
1, 222594, Note_on_c, 0, 71, 0
1, 222594, Note_on_c, 0, 72, 75
1, 222597, Note_on_c, 0, 64, 0
1, 222597, Note_on_c, 0, 59, 0
1, 222597, Note_on_c, 0, 60, 65
1, 222672, Note_on_c, 0, 67, 63
1, 222672, Note_on_c, 0, 64, 55
1, 222753, Note_on_c, 0, 67, 0
1, 222753, Note_on_c, 0, 72, 0
1, 222753, Note_on_c, 0, 79, 0
1, 222756, Note_on_c, 0, 81, 83
1, 222756, Note_on_c, 0, 64, 0
1, 222756, Note_on_c, 0, 60, 0
1, 222759, Note_on_c, 0, 53, 70
1, 222759, Control_c, 0, 64, 0
1, 222804, Control_c, 0, 64, 127
1, 222831, Note_on_c, 0, 69, 72
1, 222831, Note_on_c, 0, 65, 58
1, 222909, Note_on_c, 0, 69, 0
1, 222909, Note_on_c, 0, 72, 72
1, 222909, Note_on_c, 0, 65, 0
1, 222912, Note_on_c, 0, 60, 58
1, 222986, Note_on_c, 0, 72, 0
1, 222986, Note_on_c, 0, 69, 72
1, 222986, Note_on_c, 0, 60, 0
1, 222989, Note_on_c, 0, 65, 60
1, 223063, Note_on_c, 0, 69, 0
1, 223063, Note_on_c, 0, 81, 0
1, 223063, Note_on_c, 0, 71, 68
1, 223066, Note_on_c, 0, 65, 0
1, 223066, Note_on_c, 0, 53, 0
1, 223066, Control_c, 0, 64, 0
1, 223069, Note_on_c, 0, 62, 53
1, 223141, Note_on_c, 0, 68, 60
1, 223141, Note_on_c, 0, 65, 49
1, 223222, Note_on_c, 0, 68, 0
1, 223222, Note_on_c, 0, 71, 0
1, 223222, Note_on_c, 0, 70, 68
1, 223225, Note_on_c, 0, 65, 0
1, 223225, Note_on_c, 0, 62, 0
1, 223225, Note_on_c, 0, 61, 56
1, 223258, Control_c, 0, 64, 127
1, 223300, Note_on_c, 0, 67, 60
1, 223300, Note_on_c, 0, 64, 43
1, 223379, Note_on_c, 0, 67, 0
1, 223379, Note_on_c, 0, 70, 0
1, 223379, Note_on_c, 0, 76, 68
1, 223382, Note_on_c, 0, 64, 0
1, 223382, Note_on_c, 0, 61, 0
1, 223382, Note_on_c, 0, 60, 56
1, 223458, Note_on_c, 0, 67, 58
1, 223458, Note_on_c, 0, 64, 44
1, 223537, Note_on_c, 0, 67, 0
1, 223537, Note_on_c, 0, 76, 0
1, 223537, Note_on_c, 0, 79, 68
1, 223540, Note_on_c, 0, 64, 0
1, 223540, Note_on_c, 0, 60, 0
1, 223540, Note_on_c, 0, 58, 55
1, 223617, Note_on_c, 0, 67, 60
1, 223617, Note_on_c, 0, 64, 43
1, 223697, Note_on_c, 0, 67, 0
1, 223697, Note_on_c, 0, 79, 0
1, 223697, Note_on_c, 0, 81, 68
1, 223700, Note_on_c, 0, 64, 0
1, 223700, Note_on_c, 0, 58, 0
1, 223700, Note_on_c, 0, 53, 56
1, 223703, Note_on_c, 0, 57, 56
1, 223703, Control_c, 0, 64, 0
1, 223744, Control_c, 0, 64, 127
1, 223777, Note_on_c, 0, 69, 58
1, 223777, Note_on_c, 0, 53, 0
1, 223777, Note_on_c, 0, 65, 41
1, 223857, Note_on_c, 0, 69, 0
1, 223857, Note_on_c, 0, 72, 62
1, 223857, Note_on_c, 0, 65, 0
1, 223860, Note_on_c, 0, 60, 45
1, 223937, Note_on_c, 0, 72, 0
1, 223937, Note_on_c, 0, 69, 57
1, 223937, Note_on_c, 0, 60, 0
1, 223940, Note_on_c, 0, 65, 40
1, 223989, Control_c, 0, 64, 0
1, 224017, Note_on_c, 0, 69, 0
1, 224017, Note_on_c, 0, 81, 0
1, 224017, Note_on_c, 0, 71, 60
1, 224020, Note_on_c, 0, 65, 0
1, 224020, Note_on_c, 0, 57, 0
1, 224020, Note_on_c, 0, 62, 44
1, 224097, Note_on_c, 0, 68, 48
1, 224097, Note_on_c, 0, 65, 40
1, 224181, Note_on_c, 0, 68, 0
1, 224181, Note_on_c, 0, 71, 0
1, 224181, Note_on_c, 0, 70, 55
1, 224184, Note_on_c, 0, 65, 0
1, 224184, Note_on_c, 0, 62, 0
1, 224184, Note_on_c, 0, 61, 46
1, 224216, Control_c, 0, 64, 127
1, 224258, Note_on_c, 0, 67, 49
1, 224258, Note_on_c, 0, 64, 36
1, 224337, Note_on_c, 0, 67, 0
1, 224337, Note_on_c, 0, 70, 0
1, 224337, Note_on_c, 0, 76, 55
1, 224340, Note_on_c, 0, 64, 0
1, 224340, Note_on_c, 0, 61, 0
1, 224340, Note_on_c, 0, 60, 46
1, 224416, Note_on_c, 0, 67, 48
1, 224416, Note_on_c, 0, 64, 36
1, 224495, Note_on_c, 0, 67, 0
1, 224495, Note_on_c, 0, 76, 0
1, 224495, Note_on_c, 0, 79, 56
1, 224498, Note_on_c, 0, 64, 0
1, 224498, Note_on_c, 0, 60, 0
1, 224498, Note_on_c, 0, 58, 46
1, 224575, Note_on_c, 0, 67, 49
1, 224575, Note_on_c, 0, 64, 36
1, 224655, Note_on_c, 0, 67, 0
1, 224655, Note_on_c, 0, 79, 0
1, 224655, Note_on_c, 0, 81, 56
1, 224658, Note_on_c, 0, 64, 0
1, 224658, Note_on_c, 0, 58, 0
1, 224658, Note_on_c, 0, 53, 46
1, 224661, Note_on_c, 0, 57, 46
1, 224661, Control_c, 0, 64, 0
1, 224703, Control_c, 0, 64, 127
1, 224735, Note_on_c, 0, 69, 49
1, 224735, Note_on_c, 0, 53, 0
1, 224735, Note_on_c, 0, 65, 37
1, 224815, Note_on_c, 0, 69, 0
1, 224815, Note_on_c, 0, 68, 54
1, 224815, Note_on_c, 0, 65, 0
1, 224818, Note_on_c, 0, 57, 0
1, 224818, Note_on_c, 0, 64, 37
1, 224895, Note_on_c, 0, 68, 0
1, 224895, Note_on_c, 0, 69, 48
1, 224895, Note_on_c, 0, 64, 0
1, 224898, Note_on_c, 0, 65, 37
1, 224975, Note_on_c, 0, 69, 0
1, 224975, Note_on_c, 0, 81, 0
1, 224975, Note_on_c, 0, 81, 61
1, 224978, Note_on_c, 0, 65, 0
1, 224978, Control_c, 0, 64, 0
1, 224978, Note_on_c, 0, 53, 52
1, 225013, Control_c, 0, 64, 127
1, 225055, Note_on_c, 0, 69, 49
1, 225055, Note_on_c, 0, 65, 38
1, 225135, Note_on_c, 0, 69, 0
1, 225135, Note_on_c, 0, 81, 0
1, 225135, Note_on_c, 0, 77, 64
1, 225138, Note_on_c, 0, 65, 0
1, 225138, Note_on_c, 0, 53, 0
1, 225138, Note_on_c, 0, 57, 58
1, 225213, Note_on_c, 0, 69, 51
1, 225213, Note_on_c, 0, 65, 38
1, 225291, Note_on_c, 0, 69, 0
1, 225291, Note_on_c, 0, 77, 0
1, 225291, Note_on_c, 0, 72, 61
1, 225294, Note_on_c, 0, 65, 0
1, 225294, Note_on_c, 0, 57, 0
1, 225294, Note_on_c, 0, 60, 51
1, 225371, Note_on_c, 0, 69, 51
1, 225371, Note_on_c, 0, 65, 38
1, 225451, Note_on_c, 0, 69, 0
1, 225451, Note_on_c, 0, 72, 0
1, 225451, Note_on_c, 0, 81, 61
1, 225454, Note_on_c, 0, 65, 0
1, 225454, Note_on_c, 0, 60, 0
1, 225454, Note_on_c, 0, 48, 52
1, 225457, Control_c, 0, 64, 0
1, 225485, Control_c, 0, 64, 127
1, 225530, Note_on_c, 0, 69, 51
1, 225530, Note_on_c, 0, 65, 38
1, 225610, Note_on_c, 0, 69, 0
1, 225610, Note_on_c, 0, 81, 0
1, 225610, Note_on_c, 0, 76, 66
1, 225613, Note_on_c, 0, 65, 0
1, 225613, Note_on_c, 0, 48, 0
1, 225613, Note_on_c, 0, 57, 60
1, 225688, Note_on_c, 0, 69, 51
1, 225688, Note_on_c, 0, 64, 39
1, 225767, Note_on_c, 0, 69, 0
1, 225767, Note_on_c, 0, 76, 0
1, 225767, Note_on_c, 0, 72, 62
1, 225770, Note_on_c, 0, 64, 0
1, 225770, Note_on_c, 0, 57, 0
1, 225770, Note_on_c, 0, 60, 53
1, 225846, Note_on_c, 0, 69, 51
1, 225846, Note_on_c, 0, 64, 39
1, 225926, Note_on_c, 0, 69, 0
1, 225926, Note_on_c, 0, 72, 0
1, 225926, Note_on_c, 0, 81, 63
1, 225929, Note_on_c, 0, 64, 0
1, 225929, Note_on_c, 0, 60, 0
1, 225929, Note_on_c, 0, 51, 55
1, 225929, Control_c, 0, 64, 0
1, 225956, Control_c, 0, 64, 127
1, 226006, Note_on_c, 0, 69, 53
1, 226006, Note_on_c, 0, 63, 40
1, 226085, Note_on_c, 0, 69, 0
1, 226085, Note_on_c, 0, 81, 0
1, 226085, Note_on_c, 0, 77, 69
1, 226088, Note_on_c, 0, 63, 0
1, 226088, Note_on_c, 0, 51, 0
1, 226088, Note_on_c, 0, 57, 63
1, 226163, Note_on_c, 0, 69, 54
1, 226163, Note_on_c, 0, 63, 40
1, 226241, Note_on_c, 0, 69, 0
1, 226241, Note_on_c, 0, 77, 0
1, 226241, Note_on_c, 0, 72, 68
1, 226244, Note_on_c, 0, 63, 0
1, 226244, Note_on_c, 0, 57, 0
1, 226244, Note_on_c, 0, 60, 57
1, 226320, Note_on_c, 0, 69, 55
1, 226320, Note_on_c, 0, 63, 43
1, 226400, Note_on_c, 0, 69, 0
1, 226400, Note_on_c, 0, 72, 0
1, 226400, Note_on_c, 0, 81, 75
1, 226403, Note_on_c, 0, 63, 0
1, 226403, Note_on_c, 0, 60, 0
1, 226403, Note_on_c, 0, 50, 70
1, 226403, Control_c, 0, 64, 0
1, 226426, Control_c, 0, 64, 127
1, 226478, Note_on_c, 0, 69, 57
1, 226478, Note_on_c, 0, 62, 43
1, 226556, Note_on_c, 0, 69, 0
1, 226556, Note_on_c, 0, 81, 0
1, 226556, Note_on_c, 0, 72, 71
1, 226559, Note_on_c, 0, 62, 0
1, 226559, Note_on_c, 0, 50, 0
1, 226559, Note_on_c, 0, 54, 62
1, 226637, Note_on_c, 0, 69, 58
1, 226637, Note_on_c, 0, 62, 43
1, 226718, Note_on_c, 0, 69, 0
1, 226718, Note_on_c, 0, 72, 0
1, 226718, Note_on_c, 0, 81, 79
1, 226721, Note_on_c, 0, 62, 0
1, 226721, Note_on_c, 0, 54, 0
1, 226721, Note_on_c, 0, 49, 70
1, 226724, Control_c, 0, 64, 0
1, 226740, Control_c, 0, 64, 127
1, 226796, Note_on_c, 0, 69, 58
1, 226796, Note_on_c, 0, 61, 45
1, 226873, Note_on_c, 0, 69, 0
1, 226873, Note_on_c, 0, 81, 0
1, 226873, Note_on_c, 0, 73, 74
1, 226876, Note_on_c, 0, 61, 0
1, 226876, Note_on_c, 0, 49, 0
1, 226876, Note_on_c, 0, 54, 62
1, 226953, Note_on_c, 0, 69, 60
1, 226953, Note_on_c, 0, 61, 46
1, 227032, Note_on_c, 0, 69, 0
1, 227032, Note_on_c, 0, 73, 0
1, 227032, Note_on_c, 0, 81, 87
1, 227035, Note_on_c, 0, 61, 0
1, 227035, Note_on_c, 0, 54, 0
1, 227035, Note_on_c, 0, 48, 74
1, 227035, Control_c, 0, 64, 0
1, 227051, Control_c, 0, 64, 127
1, 227109, Note_on_c, 0, 69, 63
1, 227109, Note_on_c, 0, 60, 47
1, 227186, Note_on_c, 0, 69, 0
1, 227186, Note_on_c, 0, 81, 0
1, 227186, Note_on_c, 0, 74, 74
1, 227189, Note_on_c, 0, 60, 0
1, 227189, Note_on_c, 0, 48, 0
1, 227189, Note_on_c, 0, 54, 65
1, 227264, Note_on_c, 0, 69, 63
1, 227264, Note_on_c, 0, 60, 47
1, 227342, Note_on_c, 0, 69, 0
1, 227342, Note_on_c, 0, 74, 0
1, 227342, Note_on_c, 0, 81, 88
1, 227345, Note_on_c, 0, 60, 0
1, 227345, Note_on_c, 0, 54, 0
1, 227345, Note_on_c, 0, 47, 80
1, 227345, Control_c, 0, 64, 0
1, 227371, Control_c, 0, 64, 127
1, 227418, Note_on_c, 0, 69, 64
1, 227418, Note_on_c, 0, 59, 49
1, 227494, Note_on_c, 0, 69, 0
1, 227494, Note_on_c, 0, 81, 0
1, 227494, Note_on_c, 0, 75, 82
1, 227497, Note_on_c, 0, 59, 0
1, 227497, Note_on_c, 0, 47, 0
1, 227497, Note_on_c, 0, 54, 68
1, 227572, Note_on_c, 0, 69, 66
1, 227572, Note_on_c, 0, 59, 49
1, 227650, Note_on_c, 0, 69, 0
1, 227650, Note_on_c, 0, 75, 0
1, 227650, Note_on_c, 0, 82, 91
1, 227653, Note_on_c, 0, 59, 0
1, 227653, Note_on_c, 0, 54, 0
1, 227653, Note_on_c, 0, 46, 86
1, 227653, Control_c, 0, 64, 0
1, 227679, Control_c, 0, 64, 127
1, 227725, Note_on_c, 0, 70, 69
1, 227725, Note_on_c, 0, 58, 52
1, 227800, Note_on_c, 0, 70, 0
1, 227800, Note_on_c, 0, 82, 0
1, 227800, Note_on_c, 0, 75, 84
1, 227803, Note_on_c, 0, 58, 0
1, 227803, Note_on_c, 0, 46, 0
1, 227803, Note_on_c, 0, 54, 70
1, 227877, Note_on_c, 0, 70, 70
1, 227877, Note_on_c, 0, 58, 52
1, 227953, Note_on_c, 0, 70, 0
1, 227953, Note_on_c, 0, 75, 0
1, 227953, Note_on_c, 0, 83, 98
1, 227956, Note_on_c, 0, 58, 0
1, 227956, Note_on_c, 0, 54, 0
1, 227956, Note_on_c, 0, 45, 87
1, 227956, Control_c, 0, 64, 0
1, 227992, Control_c, 0, 64, 127
1, 228028, Note_on_c, 0, 71, 72
1, 228028, Note_on_c, 0, 57, 53
1, 228102, Note_on_c, 0, 71, 0
1, 228102, Note_on_c, 0, 83, 0
1, 228102, Note_on_c, 0, 75, 89
1, 228105, Note_on_c, 0, 57, 0
1, 228105, Note_on_c, 0, 45, 0
1, 228105, Note_on_c, 0, 54, 72
1, 228181, Note_on_c, 0, 71, 73
1, 228181, Note_on_c, 0, 57, 55
1, 228260, Note_on_c, 0, 71, 0
1, 228260, Note_on_c, 0, 75, 0
1, 228260, Note_on_c, 0, 84, 103
1, 228263, Note_on_c, 0, 57, 0
1, 228263, Note_on_c, 0, 54, 0
1, 228263, Note_on_c, 0, 44, 89
1, 228263, Control_c, 0, 64, 0
1, 228293, Control_c, 0, 64, 127
1, 228338, Note_on_c, 0, 72, 74
1, 228338, Note_on_c, 0, 56, 56
1, 228421, Note_on_c, 0, 72, 0
1, 228421, Note_on_c, 0, 84, 0
1, 228421, Note_on_c, 0, 73, 90
1, 228424, Note_on_c, 0, 85, 105
1, 228424, Note_on_c, 0, 56, 0
1, 228424, Note_on_c, 0, 44, 0
1, 228427, Control_c, 0, 64, 0
1, 228427, Note_on_c, 0, 37, 77
1, 228427, Note_on_c, 0, 49, 90
1, 228587, Note_on_c, 0, 85, 0
1, 228587, Note_on_c, 0, 73, 0
1, 228587, Note_on_c, 0, 59, 81
1, 228590, Note_on_c, 0, 49, 0
1, 228590, Note_on_c, 0, 37, 0
1, 228640, Control_c, 0, 64, 127
1, 228667, Note_on_c, 0, 59, 0
1, 228667, Note_on_c, 0, 61, 86
1, 228746, Note_on_c, 0, 61, 0
1, 228746, Note_on_c, 0, 65, 90
1, 228824, Note_on_c, 0, 65, 0
1, 228824, Note_on_c, 0, 68, 95
1, 228902, Note_on_c, 0, 68, 0
1, 228902, Note_on_c, 0, 71, 105
1, 228980, Note_on_c, 0, 71, 0
1, 228980, Note_on_c, 0, 83, 99
1, 229058, Note_on_c, 0, 83, 0
1, 229058, Note_on_c, 0, 71, 95
1, 229140, Note_on_c, 0, 71, 0
1, 229140, Note_on_c, 0, 73, 96
1, 229224, Note_on_c, 0, 73, 0
1, 229224, Note_on_c, 0, 77, 97
1, 229224, Note_on_c, 0, 53, 73
1, 229227, Note_on_c, 0, 61, 86
1, 229308, Note_on_c, 0, 77, 0
1, 229308, Note_on_c, 0, 80, 99
1, 229393, Note_on_c, 0, 80, 0
1, 229393, Note_on_c, 0, 83, 107
1, 229393, Note_on_c, 0, 61, 0
1, 229396, Note_on_c, 0, 53, 0
1, 229396, Note_on_c, 0, 56, 77
1, 229396, Note_on_c, 0, 65, 89
1, 229396, Control_c, 0, 64, 0
1, 229434, Control_c, 0, 64, 127
1, 229480, Note_on_c, 0, 83, 0
1, 229480, Note_on_c, 0, 95, 104
1, 229567, Note_on_c, 0, 95, 0
1, 229567, Note_on_c, 0, 92, 99
1, 229567, Note_on_c, 0, 65, 0
1, 229570, Note_on_c, 0, 56, 0
1, 229570, Note_on_c, 0, 61, 71
1, 229570, Note_on_c, 0, 68, 83
1, 229655, Note_on_c, 0, 92, 0
1, 229655, Note_on_c, 0, 89, 98
1, 229745, Note_on_c, 0, 89, 0
1, 229745, Note_on_c, 0, 85, 97
1, 229745, Note_on_c, 0, 68, 0
1, 229748, Note_on_c, 0, 61, 0
1, 229748, Note_on_c, 0, 65, 71
1, 229748, Note_on_c, 0, 73, 83
1, 229834, Note_on_c, 0, 85, 0
1, 229834, Note_on_c, 0, 83, 96
1, 229924, Note_on_c, 0, 83, 0
1, 229924, Note_on_c, 0, 80, 94
1, 229924, Note_on_c, 0, 73, 0
1, 229927, Note_on_c, 0, 65, 0
1, 229927, Note_on_c, 0, 65, 77
1, 229927, Note_on_c, 0, 73, 89
1, 229934, Control_c, 0, 64, 0
1, 229981, Control_c, 0, 64, 127
1, 230010, Note_on_c, 0, 80, 0
1, 230010, Note_on_c, 0, 77, 92
1, 230094, Note_on_c, 0, 77, 0
1, 230094, Note_on_c, 0, 73, 91
1, 230094, Note_on_c, 0, 73, 0
1, 230097, Note_on_c, 0, 65, 0
1, 230177, Note_on_c, 0, 73, 0
1, 230177, Note_on_c, 0, 71, 90
1, 230259, Note_on_c, 0, 71, 0
1, 230259, Note_on_c, 0, 68, 89
1, 230340, Note_on_c, 0, 68, 0
1, 230340, Note_on_c, 0, 65, 88
1, 230420, Note_on_c, 0, 65, 0
1, 230420, Note_on_c, 0, 70, 83
1, 230420, Note_on_c, 0, 42, 77
1, 230423, Note_on_c, 0, 54, 77
1, 230427, Control_c, 0, 64, 0
1, 230496, Note_on_c, 0, 64, 77
1, 230509, Note_on_c, 0, 70, 0
1, 230572, Note_on_c, 0, 63, 78
1, 230572, Note_on_c, 0, 54, 0
1, 230572, Note_on_c, 0, 47, 70
1, 230585, Note_on_c, 0, 64, 0
1, 230648, Note_on_c, 0, 69, 78
1, 230661, Note_on_c, 0, 63, 0
1, 230726, Note_on_c, 0, 68, 80
1, 230726, Note_on_c, 0, 47, 0
1, 230726, Note_on_c, 0, 42, 0
1, 230729, Note_on_c, 0, 40, 77
1, 230729, Note_on_c, 0, 52, 77
1, 230738, Note_on_c, 0, 69, 0
1, 230802, Note_on_c, 0, 62, 79
1, 230814, Note_on_c, 0, 68, 0
1, 230878, Note_on_c, 0, 61, 87
1, 230878, Note_on_c, 0, 52, 0
1, 230878, Note_on_c, 0, 45, 69
1, 230890, Note_on_c, 0, 62, 0
1, 230954, Note_on_c, 0, 67, 79
1, 230966, Note_on_c, 0, 61, 0
1, 231031, Note_on_c, 0, 66, 79
1, 231031, Note_on_c, 0, 45, 0
1, 231031, Note_on_c, 0, 40, 0
1, 231034, Note_on_c, 0, 38, 77
1, 231034, Note_on_c, 0, 50, 77
1, 231044, Note_on_c, 0, 67, 0
1, 231107, Note_on_c, 0, 60, 79
1, 231119, Note_on_c, 0, 66, 0
1, 231183, Note_on_c, 0, 59, 79
1, 231183, Note_on_c, 0, 50, 0
1, 231183, Note_on_c, 0, 43, 69
1, 231195, Note_on_c, 0, 60, 0
1, 231258, Note_on_c, 0, 65, 79
1, 231271, Note_on_c, 0, 59, 0
1, 231336, Note_on_c, 0, 64, 82
1, 231336, Note_on_c, 0, 43, 0
1, 231336, Note_on_c, 0, 38, 0
1, 231339, Note_on_c, 0, 36, 71
1, 231339, Note_on_c, 0, 48, 71
1, 231348, Note_on_c, 0, 65, 0
1, 231412, Note_on_c, 0, 58, 71
1, 231424, Note_on_c, 0, 64, 0
1, 231487, Note_on_c, 0, 55, 73
1, 231487, Note_on_c, 0, 48, 0
1, 231487, Note_on_c, 0, 36, 0
1, 231490, Note_on_c, 0, 37, 73
1, 231490, Note_on_c, 0, 49, 73
1, 231500, Note_on_c, 0, 58, 0
1, 231563, Note_on_c, 0, 63, 75
1, 231575, Note_on_c, 0, 55, 0
1, 231638, Note_on_c, 0, 62, 78
1, 231638, Note_on_c, 0, 49, 0
1, 231638, Note_on_c, 0, 37, 0
1, 231641, Note_on_c, 0, 38, 74
1, 231641, Note_on_c, 0, 50, 74
1, 231651, Note_on_c, 0, 63, 0
1, 231714, Note_on_c, 0, 55, 80
1, 231727, Note_on_c, 0, 62, 0
1, 231792, Note_on_c, 0, 58, 87
1, 231792, Note_on_c, 0, 50, 0
1, 231792, Note_on_c, 0, 38, 0
1, 231795, Note_on_c, 0, 39, 77
1, 231795, Note_on_c, 0, 51, 77
1, 231804, Note_on_c, 0, 55, 0
1, 231867, Note_on_c, 0, 61, 80
1, 231880, Note_on_c, 0, 58, 0
1, 231943, Note_on_c, 0, 60, 82
1, 231943, Note_on_c, 0, 51, 0
1, 231943, Note_on_c, 0, 39, 0
1, 231946, Note_on_c, 0, 40, 79
1, 231946, Note_on_c, 0, 52, 79
1, 231955, Note_on_c, 0, 61, 0
1, 232018, Note_on_c, 0, 55, 83
1, 232031, Note_on_c, 0, 60, 0
1, 232094, Note_on_c, 0, 57, 86
1, 232094, Note_on_c, 0, 52, 0
1, 232094, Note_on_c, 0, 40, 0
1, 232097, Note_on_c, 0, 41, 81
1, 232097, Note_on_c, 0, 51, 81
1, 232107, Note_on_c, 0, 55, 0
1, 232170, Note_on_c, 0, 60, 87
1, 232183, Note_on_c, 0, 57, 0
1, 232248, Note_on_c, 0, 60, 0
1, 232248, Note_on_c, 0, 62, 87
1, 232248, Note_on_c, 0, 51, 0
1, 232251, Note_on_c, 0, 41, 0
1, 232251, Note_on_c, 0, 46, 79
1, 232251, Note_on_c, 0, 50, 79
1, 232324, Note_on_c, 0, 56, 80
1, 232336, Note_on_c, 0, 62, 0
1, 232400, Note_on_c, 0, 55, 80
1, 232400, Note_on_c, 0, 50, 0
1, 232400, Note_on_c, 0, 46, 0
1, 232403, Note_on_c, 0, 39, 69
1, 232412, Note_on_c, 0, 56, 0
1, 232475, Note_on_c, 0, 61, 80
1, 232475, Note_on_c, 0, 39, 0
1, 232488, Note_on_c, 0, 55, 0
1, 232551, Note_on_c, 0, 60, 79
1, 232551, Note_on_c, 0, 44, 69
1, 232563, Note_on_c, 0, 61, 0
1, 232626, Note_on_c, 0, 54, 79
1, 232626, Note_on_c, 0, 44, 0
1, 232639, Note_on_c, 0, 60, 0
1, 232705, Note_on_c, 0, 53, 87
1, 232705, Note_on_c, 0, 49, 75
1, 232717, Note_on_c, 0, 54, 0
1, 232780, Note_on_c, 0, 59, 75
1, 232780, Note_on_c, 0, 49, 0
1, 232793, Note_on_c, 0, 53, 0
1, 232856, Note_on_c, 0, 58, 75
1, 232856, Note_on_c, 0, 54, 66
1, 232869, Note_on_c, 0, 59, 0
1, 232932, Note_on_c, 0, 52, 72
1, 232932, Note_on_c, 0, 54, 0
1, 232944, Note_on_c, 0, 58, 0
1, 233007, Note_on_c, 0, 51, 70
1, 233007, Note_on_c, 0, 59, 66
1, 233020, Note_on_c, 0, 52, 0
1, 233083, Note_on_c, 0, 57, 68
1, 233083, Note_on_c, 0, 59, 0
1, 233096, Note_on_c, 0, 51, 0
1, 233161, Note_on_c, 0, 56, 78
1, 233161, Note_on_c, 0, 64, 73
1, 233175, Note_on_c, 0, 57, 0
1, 233238, Note_on_c, 0, 50, 71
1, 233238, Note_on_c, 0, 64, 0
1, 233250, Note_on_c, 0, 56, 0
1, 233313, Note_on_c, 0, 47, 69
1, 233313, Note_on_c, 0, 63, 64
1, 233326, Note_on_c, 0, 50, 0
1, 233389, Note_on_c, 0, 56, 68
1, 233389, Note_on_c, 0, 63, 0
1, 233402, Note_on_c, 0, 47, 0
1, 233466, Note_on_c, 0, 52, 65
1, 233466, Note_on_c, 0, 62, 64
1, 233478, Note_on_c, 0, 56, 0
1, 233542, Note_on_c, 0, 47, 64
1, 233542, Note_on_c, 0, 62, 0
1, 233555, Note_on_c, 0, 52, 0
1, 233623, Note_on_c, 0, 56, 72
1, 233623, Note_on_c, 0, 61, 72
1, 233636, Note_on_c, 0, 47, 0
1, 233700, Note_on_c, 0, 53, 70
1, 233700, Note_on_c, 0, 61, 0
1, 233713, Note_on_c, 0, 56, 0
1, 233777, Note_on_c, 0, 48, 69
1, 233777, Note_on_c, 0, 60, 63
1, 233790, Note_on_c, 0, 53, 0
1, 233856, Note_on_c, 0, 56, 66
1, 233856, Note_on_c, 0, 60, 0
1, 233869, Note_on_c, 0, 48, 0
1, 233935, Note_on_c, 0, 53, 65
1, 233935, Note_on_c, 0, 59, 63
1, 233948, Note_on_c, 0, 56, 0
1, 234014, Note_on_c, 0, 51, 63
1, 234014, Note_on_c, 0, 59, 0
1, 234028, Note_on_c, 0, 53, 0
1, 234095, Note_on_c, 0, 51, 0
1, 234095, Note_on_c, 0, 57, 65
1, 234095, Note_on_c, 0, 60, 63
1, 234177, Note_on_c, 0, 48, 55
1, 234191, Note_on_c, 0, 57, 0
1, 234261, Note_on_c, 0, 51, 55
1, 234261, Note_on_c, 0, 60, 0
1, 234261, Note_on_c, 0, 72, 60
1, 234273, Note_on_c, 0, 48, 0
1, 234335, Note_on_c, 0, 54, 55
1, 234347, Note_on_c, 0, 51, 0
1, 234410, Note_on_c, 0, 55, 55
1, 234410, Note_on_c, 0, 71, 61
1, 234422, Note_on_c, 0, 54, 0
1, 234422, Note_on_c, 0, 72, 0
1, 234484, Note_on_c, 0, 50, 55
1, 234497, Note_on_c, 0, 55, 0
1, 234559, Note_on_c, 0, 49, 65
1, 234559, Note_on_c, 0, 70, 61
1, 234572, Note_on_c, 0, 50, 0
1, 234572, Note_on_c, 0, 71, 0
1, 234635, Note_on_c, 0, 52, 54
1, 234647, Note_on_c, 0, 49, 0
1, 234710, Note_on_c, 0, 53, 54
1, 234710, Note_on_c, 0, 69, 61
1, 234723, Note_on_c, 0, 52, 0
1, 234723, Note_on_c, 0, 70, 0
1, 234786, Note_on_c, 0, 48, 54
1, 234798, Note_on_c, 0, 53, 0
1, 234861, Note_on_c, 0, 53, 54
1, 234861, Note_on_c, 0, 68, 62
1, 234874, Note_on_c, 0, 48, 0
1, 234874, Note_on_c, 0, 69, 0
1, 234937, Note_on_c, 0, 60, 54
1, 234950, Note_on_c, 0, 53, 0
1, 235014, Note_on_c, 0, 58, 64
1, 235014, Note_on_c, 0, 67, 63
1, 235026, Note_on_c, 0, 60, 0
1, 235026, Note_on_c, 0, 68, 0
1, 235090, Note_on_c, 0, 52, 53
1, 235102, Note_on_c, 0, 58, 0
1, 235165, Note_on_c, 0, 56, 54
1, 235165, Note_on_c, 0, 65, 58
1, 235178, Note_on_c, 0, 52, 0
1, 235178, Note_on_c, 0, 67, 0
1, 235240, Note_on_c, 0, 59, 54
1, 235253, Note_on_c, 0, 56, 0
1, 235316, Note_on_c, 0, 60, 54
1, 235316, Note_on_c, 0, 64, 58
1, 235329, Note_on_c, 0, 59, 0
1, 235329, Note_on_c, 0, 65, 0
1, 235392, Note_on_c, 0, 55, 54
1, 235405, Note_on_c, 0, 60, 0
1, 235468, Note_on_c, 0, 58, 66
1, 235468, Note_on_c, 0, 63, 58
1, 235481, Note_on_c, 0, 55, 0
1, 235481, Note_on_c, 0, 64, 0
1, 235544, Note_on_c, 0, 61, 55
1, 235557, Note_on_c, 0, 58, 0
1, 235621, Note_on_c, 0, 62, 54
1, 235621, Note_on_c, 0, 62, 58
1, 235633, Note_on_c, 0, 61, 0
1, 235633, Note_on_c, 0, 63, 0
1, 235697, Note_on_c, 0, 55, 54
1, 235710, Note_on_c, 0, 62, 0
1, 235774, Note_on_c, 0, 58, 54
1, 235774, Note_on_c, 0, 61, 58
1, 235787, Note_on_c, 0, 55, 0
1, 235787, Note_on_c, 0, 62, 0
1, 235851, Note_on_c, 0, 65, 54
1, 235864, Note_on_c, 0, 58, 0
1, 235928, Note_on_c, 0, 64, 64
1, 235928, Note_on_c, 0, 60, 65
1, 235941, Note_on_c, 0, 65, 0
1, 235941, Note_on_c, 0, 61, 0
1, 236005, Note_on_c, 0, 55, 55
1, 236018, Note_on_c, 0, 64, 0
1, 236069, Note_on_c, 0, 60, 0
1, 236082, Note_on_c, 0, 63, 55
1, 236082, Note_on_c, 0, 60, 63
1, 236094, Note_on_c, 0, 55, 0
1, 236157, Note_on_c, 0, 66, 55
1, 236169, Note_on_c, 0, 63, 0
1, 236232, Note_on_c, 0, 67, 55
1, 236232, Note_on_c, 0, 59, 64
1, 236244, Note_on_c, 0, 66, 0
1, 236244, Note_on_c, 0, 60, 0
1, 236307, Note_on_c, 0, 62, 56
1, 236319, Note_on_c, 0, 67, 0
1, 236382, Note_on_c, 0, 61, 66
1, 236382, Note_on_c, 0, 58, 69
1, 236394, Note_on_c, 0, 62, 0
1, 236394, Note_on_c, 0, 59, 0
1, 236457, Note_on_c, 0, 64, 55
1, 236469, Note_on_c, 0, 61, 0
1, 236532, Note_on_c, 0, 65, 56
1, 236532, Note_on_c, 0, 57, 66
1, 236545, Note_on_c, 0, 64, 0
1, 236545, Note_on_c, 0, 58, 0
1, 236608, Note_on_c, 0, 60, 56
1, 236620, Note_on_c, 0, 65, 0
1, 236683, Note_on_c, 0, 65, 56
1, 236683, Note_on_c, 0, 56, 68
1, 236696, Note_on_c, 0, 60, 0
1, 236696, Note_on_c, 0, 57, 0
1, 236759, Note_on_c, 0, 72, 56
1, 236771, Note_on_c, 0, 65, 0
1, 236835, Note_on_c, 0, 70, 68
1, 236835, Note_on_c, 0, 55, 72
1, 236847, Note_on_c, 0, 72, 0
1, 236847, Note_on_c, 0, 56, 0
1, 236909, Note_on_c, 0, 64, 56
1, 236921, Note_on_c, 0, 70, 0
1, 236983, Note_on_c, 0, 68, 57
1, 236983, Note_on_c, 0, 53, 68
1, 236995, Note_on_c, 0, 64, 0
1, 236995, Note_on_c, 0, 55, 0
1, 237057, Note_on_c, 0, 71, 57
1, 237070, Note_on_c, 0, 68, 0
1, 237132, Note_on_c, 0, 72, 57
1, 237132, Note_on_c, 0, 52, 69
1, 237144, Note_on_c, 0, 71, 0
1, 237144, Note_on_c, 0, 53, 0
1, 237206, Note_on_c, 0, 67, 58
1, 237219, Note_on_c, 0, 72, 0
1, 237281, Note_on_c, 0, 70, 72
1, 237281, Note_on_c, 0, 51, 70
1, 237293, Note_on_c, 0, 67, 0
1, 237293, Note_on_c, 0, 52, 0
1, 237356, Note_on_c, 0, 73, 63
1, 237368, Note_on_c, 0, 70, 0
1, 237431, Note_on_c, 0, 74, 58
1, 237431, Note_on_c, 0, 50, 73
1, 237443, Note_on_c, 0, 73, 0
1, 237443, Note_on_c, 0, 51, 0
1, 237506, Note_on_c, 0, 67, 60
1, 237519, Note_on_c, 0, 74, 0
1, 237582, Note_on_c, 0, 70, 60
1, 237582, Note_on_c, 0, 49, 75
1, 237594, Note_on_c, 0, 67, 0
1, 237594, Note_on_c, 0, 50, 0
1, 237657, Note_on_c, 0, 77, 60
1, 237670, Note_on_c, 0, 70, 0
1, 237733, Note_on_c, 0, 75, 72
1, 237733, Note_on_c, 0, 48, 78
1, 237745, Note_on_c, 0, 77, 0
1, 237745, Note_on_c, 0, 49, 0
1, 237807, Note_on_c, 0, 76, 70
1, 237807, Note_on_c, 0, 48, 0
1, 237820, Note_on_c, 0, 75, 0
1, 237882, Note_on_c, 0, 76, 0
1, 237882, Note_on_c, 0, 67, 71
1, 237882, Note_on_c, 0, 58, 72
1, 237885, Note_on_c, 0, 60, 84
1, 237892, Control_c, 0, 64, 127
1, 237959, Note_on_c, 0, 67, 0
1, 237959, Note_on_c, 0, 69, 72
1, 238036, Note_on_c, 0, 69, 0
1, 238036, Note_on_c, 0, 70, 73
1, 238036, Note_on_c, 0, 60, 0
1, 238039, Note_on_c, 0, 64, 79
1, 238109, Note_on_c, 0, 70, 0
1, 238109, Note_on_c, 0, 72, 74
1, 238154, Control_c, 0, 64, 0
1, 238182, Note_on_c, 0, 72, 0
1, 238182, Note_on_c, 0, 73, 75
1, 238182, Note_on_c, 0, 64, 0
1, 238185, Note_on_c, 0, 58, 0
1, 238185, Note_on_c, 0, 46, 75
1, 238255, Note_on_c, 0, 73, 0
1, 238255, Note_on_c, 0, 76, 77
1, 238255, Note_on_c, 0, 46, 0
1, 238329, Note_on_c, 0, 76, 0
1, 238329, Note_on_c, 0, 79, 78
1, 238329, Note_on_c, 0, 55, 71
1, 238332, Note_on_c, 0, 58, 83
1, 238357, Control_c, 0, 64, 127
1, 238403, Note_on_c, 0, 79, 0
1, 238403, Note_on_c, 0, 81, 79
1, 238478, Note_on_c, 0, 81, 0
1, 238478, Note_on_c, 0, 82, 80
1, 238478, Note_on_c, 0, 58, 0
1, 238481, Note_on_c, 0, 64, 78
1, 238555, Note_on_c, 0, 82, 0
1, 238555, Note_on_c, 0, 84, 81
1, 238637, Note_on_c, 0, 84, 0
1, 238637, Note_on_c, 0, 85, 84
1, 238637, Note_on_c, 0, 64, 0
1, 238640, Note_on_c, 0, 55, 0
1, 238640, Control_c, 0, 64, 0
1, 238640, Note_on_c, 0, 45, 75
1, 238711, Note_on_c, 0, 91, 83
1, 238711, Note_on_c, 0, 45, 0
1, 238723, Note_on_c, 0, 85, 0
1, 238785, Note_on_c, 0, 91, 0
1, 238785, Note_on_c, 0, 88, 82
1, 238785, Note_on_c, 0, 52, 70
1, 238788, Note_on_c, 0, 55, 81
1, 238796, Control_c, 0, 64, 127
1, 238862, Note_on_c, 0, 88, 0
1, 238862, Note_on_c, 0, 85, 81
1, 238939, Note_on_c, 0, 85, 0
1, 238939, Note_on_c, 0, 82, 80
1, 238939, Note_on_c, 0, 55, 0
1, 238942, Note_on_c, 0, 64, 77
1, 239012, Note_on_c, 0, 82, 0
1, 239012, Note_on_c, 0, 79, 79
1, 239082, Control_c, 0, 64, 0
1, 239086, Note_on_c, 0, 79, 0
1, 239086, Note_on_c, 0, 76, 78
1, 239086, Note_on_c, 0, 64, 0
1, 239089, Note_on_c, 0, 52, 0
1, 239089, Note_on_c, 0, 45, 71
1, 239159, Note_on_c, 0, 73, 77
1, 239159, Note_on_c, 0, 45, 0
1, 239171, Note_on_c, 0, 76, 0
1, 239231, Note_on_c, 0, 73, 0
1, 239231, Note_on_c, 0, 70, 75
1, 239231, Note_on_c, 0, 49, 65
1, 239234, Note_on_c, 0, 52, 77
1, 239246, Control_c, 0, 64, 127
1, 239308, Note_on_c, 0, 70, 0
1, 239308, Note_on_c, 0, 67, 74
1, 239385, Note_on_c, 0, 67, 0
1, 239385, Note_on_c, 0, 64, 73
1, 239385, Note_on_c, 0, 52, 0
1, 239388, Note_on_c, 0, 57, 68
1, 239459, Note_on_c, 0, 64, 0
1, 239459, Note_on_c, 0, 61, 72
1, 239533, Note_on_c, 0, 61, 0
1, 239533, Note_on_c, 0, 62, 71
1, 239533, Note_on_c, 0, 57, 0
1, 239536, Note_on_c, 0, 49, 0
1, 239536, Control_c, 0, 64, 0
1, 239536, Note_on_c, 0, 50, 73
1, 239607, Note_on_c, 0, 74, 70
1, 239607, Note_on_c, 0, 50, 0
1, 239619, Note_on_c, 0, 62, 0
1, 239681, Note_on_c, 0, 74, 0
1, 239681, Note_on_c, 0, 62, 72
1, 239681, Note_on_c, 0, 53, 71
1, 239684, Note_on_c, 0, 57, 82
1, 239692, Control_c, 0, 64, 127
1, 239757, Note_on_c, 0, 62, 0
1, 239757, Note_on_c, 0, 64, 74
1, 239834, Note_on_c, 0, 64, 0
1, 239834, Note_on_c, 0, 65, 75
1, 239834, Note_on_c, 0, 57, 0
1, 239837, Note_on_c, 0, 62, 77
1, 239908, Note_on_c, 0, 65, 0
1, 239908, Note_on_c, 0, 67, 78
1, 239978, Control_c, 0, 64, 0
1, 239982, Note_on_c, 0, 67, 0
1, 239982, Note_on_c, 0, 68, 79
1, 239982, Note_on_c, 0, 62, 0
1, 239985, Note_on_c, 0, 53, 0
1, 239985, Note_on_c, 0, 48, 73
1, 240055, Note_on_c, 0, 71, 81
1, 240055, Note_on_c, 0, 48, 0
1, 240067, Note_on_c, 0, 68, 0
1, 240128, Note_on_c, 0, 71, 0
1, 240128, Note_on_c, 0, 74, 82
1, 240128, Note_on_c, 0, 53, 71
1, 240131, Note_on_c, 0, 56, 83
1, 240152, Control_c, 0, 64, 127
1, 240202, Note_on_c, 0, 74, 0
1, 240202, Note_on_c, 0, 76, 84
1, 240279, Note_on_c, 0, 76, 0
1, 240279, Note_on_c, 0, 77, 86
1, 240279, Note_on_c, 0, 56, 0
1, 240282, Note_on_c, 0, 62, 77
1, 240357, Note_on_c, 0, 77, 0
1, 240357, Note_on_c, 0, 79, 88
1, 240440, Note_on_c, 0, 79, 0
1, 240440, Note_on_c, 0, 80, 89
1, 240440, Note_on_c, 0, 62, 0
1, 240443, Note_on_c, 0, 53, 0
1, 240443, Control_c, 0, 64, 0
1, 240443, Note_on_c, 0, 47, 71
1, 240514, Note_on_c, 0, 86, 83
1, 240514, Note_on_c, 0, 47, 0
1, 240526, Note_on_c, 0, 80, 0
1, 240587, Note_on_c, 0, 86, 0
1, 240587, Note_on_c, 0, 83, 84
1, 240587, Note_on_c, 0, 50, 71
1, 240590, Note_on_c, 0, 53, 82
1, 240594, Control_c, 0, 64, 127
1, 240664, Note_on_c, 0, 83, 0
1, 240664, Note_on_c, 0, 80, 83
1, 240742, Note_on_c, 0, 80, 0
1, 240742, Note_on_c, 0, 77, 82
1, 240742, Note_on_c, 0, 53, 0
1, 240745, Note_on_c, 0, 62, 74
1, 240816, Note_on_c, 0, 77, 0
1, 240816, Note_on_c, 0, 74, 82
1, 240890, Note_on_c, 0, 74, 0
1, 240890, Note_on_c, 0, 71, 81
1, 240890, Note_on_c, 0, 62, 0
1, 240893, Note_on_c, 0, 50, 0
1, 240893, Note_on_c, 0, 40, 71
1, 240893, Control_c, 0, 64, 0
1, 240964, Note_on_c, 0, 68, 80
1, 240964, Note_on_c, 0, 40, 0
1, 240976, Note_on_c, 0, 71, 0
1, 241038, Note_on_c, 0, 68, 0
1, 241038, Note_on_c, 0, 65, 79
1, 241038, Note_on_c, 0, 44, 69
1, 241041, Note_on_c, 0, 47, 80
1, 241045, Control_c, 0, 64, 127
1, 241115, Note_on_c, 0, 65, 0
1, 241115, Note_on_c, 0, 62, 78
1, 241192, Note_on_c, 0, 62, 0
1, 241192, Note_on_c, 0, 59, 77
1, 241192, Note_on_c, 0, 47, 0
1, 241195, Note_on_c, 0, 52, 72
1, 241266, Note_on_c, 0, 59, 0
1, 241266, Note_on_c, 0, 56, 75
1, 241340, Note_on_c, 0, 56, 0
1, 241340, Note_on_c, 0, 57, 84
1, 241340, Note_on_c, 0, 52, 0
1, 241343, Note_on_c, 0, 44, 0
1, 241343, Note_on_c, 0, 45, 84
1, 241343, Control_c, 0, 64, 0
1, 241375, Control_c, 0, 64, 127
1, 241414, Note_on_c, 0, 57, 0
1, 241414, Note_on_c, 0, 69, 74
1, 241488, Note_on_c, 0, 69, 0
1, 241488, Note_on_c, 0, 61, 74
1, 241488, Note_on_c, 0, 45, 0
1, 241491, Note_on_c, 0, 45, 78
1, 241491, Note_on_c, 0, 52, 90
1, 241491, Control_c, 0, 64, 0
1, 241526, Control_c, 0, 64, 127
1, 241561, Note_on_c, 0, 61, 0
1, 241561, Note_on_c, 0, 67, 74
1, 241635, Note_on_c, 0, 67, 0
1, 241635, Note_on_c, 0, 65, 74
1, 241635, Note_on_c, 0, 52, 0
1, 241638, Note_on_c, 0, 45, 0
1, 241638, Note_on_c, 0, 50, 72
1, 241638, Note_on_c, 0, 53, 84
1, 241638, Control_c, 0, 64, 0
1, 241669, Control_c, 0, 64, 127
1, 241709, Note_on_c, 0, 65, 0
1, 241709, Note_on_c, 0, 62, 74
1, 241788, Note_on_c, 0, 62, 0
1, 241788, Note_on_c, 0, 64, 83
1, 241788, Note_on_c, 0, 53, 0
1, 241791, Note_on_c, 0, 50, 0
1, 241791, Note_on_c, 0, 48, 77
1, 241791, Note_on_c, 0, 55, 89
1, 241791, Control_c, 0, 64, 0
1, 241820, Control_c, 0, 64, 127
1, 241862, Note_on_c, 0, 64, 0
1, 241862, Note_on_c, 0, 70, 72
1, 241936, Note_on_c, 0, 70, 0
1, 241936, Note_on_c, 0, 69, 72
1, 241936, Note_on_c, 0, 55, 0
1, 241939, Note_on_c, 0, 48, 0
1, 241939, Note_on_c, 0, 53, 71
1, 241939, Note_on_c, 0, 57, 83
1, 241942, Control_c, 0, 64, 0
1, 241970, Control_c, 0, 64, 127
1, 242009, Note_on_c, 0, 69, 0
1, 242009, Note_on_c, 0, 65, 72
1, 242087, Note_on_c, 0, 65, 0
1, 242087, Note_on_c, 0, 68, 72
1, 242087, Note_on_c, 0, 57, 0
1, 242090, Note_on_c, 0, 53, 0
1, 242090, Note_on_c, 0, 52, 77
1, 242090, Note_on_c, 0, 59, 89
1, 242093, Control_c, 0, 64, 0
1, 242119, Control_c, 0, 64, 127
1, 242160, Note_on_c, 0, 68, 0
1, 242160, Note_on_c, 0, 74, 71
1, 242234, Note_on_c, 0, 74, 0
1, 242234, Note_on_c, 0, 72, 82
1, 242234, Note_on_c, 0, 59, 0
1, 242237, Note_on_c, 0, 52, 0
1, 242237, Note_on_c, 0, 60, 83
1, 242237, Note_on_c, 0, 57, 71
1, 242237, Control_c, 0, 64, 0
1, 242269, Control_c, 0, 64, 127
1, 242308, Note_on_c, 0, 72, 0
1, 242308, Note_on_c, 0, 69, 72
1, 242386, Note_on_c, 0, 69, 0
1, 242386, Note_on_c, 0, 71, 72
1, 242386, Note_on_c, 0, 57, 0
1, 242389, Note_on_c, 0, 60, 0
1, 242389, Note_on_c, 0, 55, 79
1, 242389, Note_on_c, 0, 62, 92
1, 242392, Control_c, 0, 64, 0
1, 242419, Control_c, 0, 64, 127
1, 242460, Note_on_c, 0, 71, 0
1, 242460, Note_on_c, 0, 77, 72
1, 242534, Note_on_c, 0, 77, 0
1, 242534, Note_on_c, 0, 76, 71
1, 242534, Note_on_c, 0, 62, 0
1, 242537, Note_on_c, 0, 55, 0
1, 242537, Note_on_c, 0, 64, 86
1, 242537, Note_on_c, 0, 60, 73
1, 242540, Control_c, 0, 64, 0
1, 242565, Control_c, 0, 64, 127
1, 242607, Note_on_c, 0, 76, 0
1, 242607, Note_on_c, 0, 72, 70
1, 242684, Note_on_c, 0, 72, 0
1, 242684, Note_on_c, 0, 73, 81
1, 242684, Note_on_c, 0, 60, 0
1, 242687, Note_on_c, 0, 64, 0
1, 242687, Note_on_c, 0, 64, 92
1, 242687, Note_on_c, 0, 57, 79
1, 242687, Control_c, 0, 64, 0
1, 242721, Control_c, 0, 64, 127
1, 242758, Note_on_c, 0, 73, 0
1, 242758, Note_on_c, 0, 79, 71
1, 242832, Note_on_c, 0, 79, 0
1, 242832, Note_on_c, 0, 77, 71
1, 242832, Note_on_c, 0, 57, 0
1, 242835, Note_on_c, 0, 64, 0
1, 242835, Note_on_c, 0, 65, 87
1, 242835, Note_on_c, 0, 62, 74
1, 242838, Control_c, 0, 64, 0
1, 242869, Control_c, 0, 64, 127
1, 242905, Note_on_c, 0, 77, 0
1, 242905, Note_on_c, 0, 74, 71
1, 242983, Note_on_c, 0, 74, 0
1, 242983, Note_on_c, 0, 76, 71
1, 242983, Note_on_c, 0, 62, 0
1, 242986, Note_on_c, 0, 65, 0
1, 242986, Note_on_c, 0, 60, 79
1, 242986, Note_on_c, 0, 67, 92
1, 242989, Control_c, 0, 64, 0
1, 243018, Control_c, 0, 64, 127
1, 243057, Note_on_c, 0, 76, 0
1, 243057, Note_on_c, 0, 82, 71
1, 243130, Note_on_c, 0, 82, 0
1, 243130, Note_on_c, 0, 81, 86
1, 243130, Note_on_c, 0, 67, 0
1, 243133, Note_on_c, 0, 60, 0
1, 243133, Note_on_c, 0, 69, 86
1, 243133, Note_on_c, 0, 65, 73
1, 243133, Control_c, 0, 64, 0
1, 243173, Control_c, 0, 64, 127
1, 243204, Note_on_c, 0, 81, 0
1, 243204, Note_on_c, 0, 77, 72
1, 243284, Note_on_c, 0, 77, 0
1, 243284, Note_on_c, 0, 73, 72
1, 243284, Note_on_c, 0, 65, 0
1, 243287, Note_on_c, 0, 69, 0
1, 243287, Note_on_c, 0, 57, 69
1, 243290, Control_c, 0, 64, 0
1, 243319, Control_c, 0, 64, 127
1, 243358, Note_on_c, 0, 73, 0
1, 243358, Note_on_c, 0, 81, 73
1, 243358, Note_on_c, 0, 57, 0
1, 243361, Note_on_c, 0, 64, 70
1, 243432, Note_on_c, 0, 81, 0
1, 243432, Note_on_c, 0, 77, 73
1, 243432, Note_on_c, 0, 64, 0
1, 243435, Note_on_c, 0, 62, 71
1, 243505, Note_on_c, 0, 77, 0
1, 243505, Note_on_c, 0, 74, 75
1, 243505, Note_on_c, 0, 62, 0
1, 243508, Note_on_c, 0, 65, 73
1, 243584, Note_on_c, 0, 74, 0
1, 243584, Note_on_c, 0, 76, 88
1, 243584, Note_on_c, 0, 65, 0
1, 243587, Note_on_c, 0, 60, 87
1, 243587, Control_c, 0, 64, 0
1, 243614, Control_c, 0, 64, 127
1, 243658, Note_on_c, 0, 76, 0
1, 243658, Note_on_c, 0, 84, 75
1, 243658, Note_on_c, 0, 60, 0
1, 243661, Note_on_c, 0, 67, 73
1, 243732, Note_on_c, 0, 84, 0
1, 243732, Note_on_c, 0, 81, 77
1, 243732, Note_on_c, 0, 67, 0
1, 243735, Note_on_c, 0, 65, 74
1, 243806, Note_on_c, 0, 81, 0
1, 243806, Note_on_c, 0, 77, 75
1, 243806, Note_on_c, 0, 65, 0
1, 243809, Note_on_c, 0, 69, 74
1, 243880, Note_on_c, 0, 77, 0
1, 243880, Note_on_c, 0, 80, 77
1, 243880, Note_on_c, 0, 69, 0
1, 243883, Note_on_c, 0, 64, 77
1, 243883, Control_c, 0, 64, 0
1, 243913, Control_c, 0, 64, 127
1, 243954, Note_on_c, 0, 80, 0
1, 243954, Note_on_c, 0, 88, 77
1, 243954, Note_on_c, 0, 64, 0
1, 243957, Note_on_c, 0, 71, 77
1, 244033, Note_on_c, 0, 88, 0
1, 244033, Note_on_c, 0, 84, 94
1, 244033, Note_on_c, 0, 71, 0
1, 244036, Note_on_c, 0, 69, 92
1, 244036, Control_c, 0, 64, 0
1, 244065, Control_c, 0, 64, 127
1, 244107, Note_on_c, 0, 84, 0
1, 244107, Note_on_c, 0, 81, 82
1, 244107, Note_on_c, 0, 69, 0
1, 244110, Note_on_c, 0, 72, 79
1, 244180, Note_on_c, 0, 81, 0
1, 244180, Note_on_c, 0, 83, 83
1, 244180, Note_on_c, 0, 72, 0
1, 244183, Note_on_c, 0, 67, 77
1, 244254, Note_on_c, 0, 83, 0
1, 244254, Note_on_c, 0, 91, 83
1, 244254, Note_on_c, 0, 67, 0
1, 244257, Note_on_c, 0, 74, 79
1, 244328, Note_on_c, 0, 91, 0
1, 244328, Note_on_c, 0, 88, 84
1, 244328, Note_on_c, 0, 74, 0
1, 244331, Note_on_c, 0, 72, 80
1, 244331, Control_c, 0, 64, 0
1, 244363, Control_c, 0, 64, 127
1, 244402, Note_on_c, 0, 88, 0
1, 244402, Note_on_c, 0, 84, 84
1, 244402, Note_on_c, 0, 72, 0
1, 244405, Note_on_c, 0, 76, 81
1, 244481, Note_on_c, 0, 84, 0
1, 244481, Note_on_c, 0, 85, 100
1, 244481, Note_on_c, 0, 76, 0
1, 244484, Note_on_c, 0, 69, 98
1, 244484, Control_c, 0, 64, 0
1, 244530, Control_c, 0, 64, 127
1, 244555, Note_on_c, 0, 85, 0
1, 244555, Note_on_c, 0, 93, 83
1, 244555, Note_on_c, 0, 69, 0
1, 244558, Note_on_c, 0, 76, 82
1, 244629, Note_on_c, 0, 93, 0
1, 244629, Note_on_c, 0, 89, 84
1, 244629, Note_on_c, 0, 76, 0
1, 244632, Note_on_c, 0, 74, 82
1, 244703, Note_on_c, 0, 89, 0
1, 244703, Note_on_c, 0, 86, 86
1, 244703, Note_on_c, 0, 74, 0
1, 244706, Note_on_c, 0, 77, 84
1, 244777, Note_on_c, 0, 86, 0
1, 244777, Note_on_c, 0, 88, 86
1, 244777, Note_on_c, 0, 77, 0
1, 244780, Note_on_c, 0, 72, 84
1, 244780, Control_c, 0, 64, 0
1, 244813, Control_c, 0, 64, 127
1, 244850, Note_on_c, 0, 88, 0
1, 244850, Note_on_c, 0, 96, 87
1, 244850, Note_on_c, 0, 72, 0
1, 244853, Note_on_c, 0, 79, 84
1, 244929, Note_on_c, 0, 96, 0
1, 244929, Note_on_c, 0, 93, 100
1, 244929, Note_on_c, 0, 79, 0
1, 244932, Control_c, 0, 64, 0
1, 244932, Note_on_c, 0, 81, 89
1, 244932, Note_on_c, 0, 77, 82
1, 245005, Note_on_c, 0, 93, 0
1, 245005, Note_on_c, 0, 89, 87
1, 245005, Note_on_c, 0, 77, 0
1, 245008, Note_on_c, 0, 81, 0
1, 245082, Note_on_c, 0, 89, 0
1, 245082, Note_on_c, 0, 95, 87
1, 245082, Control_c, 0, 64, 127
1, 245085, Note_on_c, 0, 73, 68
1, 245085, Note_on_c, 0, 80, 79
1, 245157, Note_on_c, 0, 95, 0
1, 245157, Note_on_c, 0, 101, 88
1, 245233, Note_on_c, 0, 101, 0
1, 245233, Note_on_c, 0, 96, 96
1, 245233, Note_on_c, 0, 80, 0
1, 245236, Note_on_c, 0, 73, 0
1, 245236, Note_on_c, 0, 81, 82
1, 245236, Note_on_c, 0, 72, 71
1, 245236, Control_c, 0, 64, 0
1, 245252, Control_c, 0, 64, 127
1, 245308, Note_on_c, 0, 96, 0
1, 245308, Note_on_c, 0, 89, 88
1, 245384, Note_on_c, 0, 89, 0
1, 245384, Note_on_c, 0, 95, 98
1, 245384, Note_on_c, 0, 72, 0
1, 245387, Note_on_c, 0, 81, 0
1, 245387, Note_on_c, 0, 73, 71
1, 245387, Note_on_c, 0, 80, 82
1, 245387, Control_c, 0, 64, 0
1, 245404, Control_c, 0, 64, 127
1, 245460, Note_on_c, 0, 95, 0
1, 245460, Note_on_c, 0, 101, 88
1, 245536, Note_on_c, 0, 101, 0
1, 245536, Note_on_c, 0, 96, 98
1, 245536, Note_on_c, 0, 80, 0
1, 245539, Note_on_c, 0, 73, 0
1, 245539, Note_on_c, 0, 81, 82
1, 245539, Note_on_c, 0, 72, 71
1, 245539, Control_c, 0, 64, 0
1, 245557, Control_c, 0, 64, 127
1, 245612, Note_on_c, 0, 96, 0
1, 245612, Note_on_c, 0, 89, 89
1, 245687, Note_on_c, 0, 89, 0
1, 245687, Note_on_c, 0, 95, 97
1, 245687, Note_on_c, 0, 72, 0
1, 245690, Note_on_c, 0, 81, 0
1, 245690, Note_on_c, 0, 73, 71
1, 245690, Note_on_c, 0, 80, 82
1, 245693, Control_c, 0, 64, 0
1, 245703, Control_c, 0, 64, 127
1, 245763, Note_on_c, 0, 95, 0
1, 245763, Note_on_c, 0, 101, 89
1, 245838, Note_on_c, 0, 101, 0
1, 245838, Note_on_c, 0, 96, 96
1, 245838, Note_on_c, 0, 80, 0
1, 245841, Note_on_c, 0, 73, 0
1, 245841, Note_on_c, 0, 72, 71
1, 245841, Note_on_c, 0, 81, 82
1, 245841, Control_c, 0, 64, 0
1, 245870, Control_c, 0, 64, 127
1, 245914, Note_on_c, 0, 96, 0
1, 245914, Note_on_c, 0, 89, 89
1, 245990, Note_on_c, 0, 89, 0
1, 245990, Note_on_c, 0, 95, 96
1, 245990, Note_on_c, 0, 81, 0
1, 245993, Note_on_c, 0, 72, 0
1, 245993, Note_on_c, 0, 73, 71
1, 245993, Note_on_c, 0, 80, 82
1, 245996, Control_c, 0, 64, 0
1, 246034, Control_c, 0, 64, 127
1, 246067, Note_on_c, 0, 95, 0
1, 246067, Note_on_c, 0, 101, 89
1, 246143, Note_on_c, 0, 101, 0
1, 246143, Note_on_c, 0, 96, 95
1, 246143, Note_on_c, 0, 80, 0
1, 246146, Note_on_c, 0, 73, 0
1, 246146, Note_on_c, 0, 72, 71
1, 246146, Note_on_c, 0, 81, 82
1, 246146, Control_c, 0, 64, 0
1, 246176, Control_c, 0, 64, 127
1, 246220, Note_on_c, 0, 96, 0
1, 246220, Note_on_c, 0, 89, 88
1, 246297, Note_on_c, 0, 89, 0
1, 246297, Note_on_c, 0, 95, 96
1, 246297, Note_on_c, 0, 81, 0
1, 246300, Note_on_c, 0, 72, 0
1, 246300, Note_on_c, 0, 73, 71
1, 246300, Note_on_c, 0, 80, 82
1, 246300, Control_c, 0, 64, 0
1, 246327, Control_c, 0, 64, 127
1, 246374, Note_on_c, 0, 95, 0
1, 246374, Note_on_c, 0, 101, 87
1, 246452, Note_on_c, 0, 101, 0
1, 246452, Note_on_c, 0, 96, 97
1, 246452, Note_on_c, 0, 80, 0
1, 246455, Note_on_c, 0, 73, 0
1, 246455, Note_on_c, 0, 72, 71
1, 246455, Note_on_c, 0, 81, 82
1, 246458, Control_c, 0, 64, 0
1, 246482, Control_c, 0, 64, 127
1, 246529, Note_on_c, 0, 96, 0
1, 246529, Note_on_c, 0, 89, 87
1, 246607, Note_on_c, 0, 89, 0
1, 246607, Note_on_c, 0, 95, 96
1, 246607, Note_on_c, 0, 81, 0
1, 246610, Note_on_c, 0, 72, 0
1, 246610, Note_on_c, 0, 73, 71
1, 246610, Note_on_c, 0, 80, 82
1, 246613, Control_c, 0, 64, 0
1, 246633, Control_c, 0, 64, 127
1, 246685, Note_on_c, 0, 95, 0
1, 246685, Note_on_c, 0, 101, 84
1, 246771, Note_on_c, 0, 101, 0
1, 246771, Note_on_c, 0, 96, 96
1, 246771, Note_on_c, 0, 89, 96
1, 246774, Note_on_c, 0, 80, 0
1, 246774, Note_on_c, 0, 73, 0
1, 246774, Note_on_c, 0, 72, 70
1, 246777, Note_on_c, 0, 81, 80
1, 246777, Control_c, 0, 64, 0
1, 246861, Note_on_c, 0, 89, 0
1, 246861, Note_on_c, 0, 96, 0
1, 246861, Note_on_c, 0, 81, 0
1, 246864, Note_on_c, 0, 72, 0
1, 247310, Note_on_c, 0, 63, 71
1, 247310, Note_on_c, 0, 66, 71
1, 247310, Note_on_c, 0, 72, 82
1, 247313, Note_on_c, 0, 48, 74
1, 247313, Note_on_c, 0, 57, 87
1, 247923, Note_on_c, 0, 72, 0
1, 247923, Note_on_c, 0, 66, 0
1, 247923, Note_on_c, 0, 63, 0
1, 247926, Note_on_c, 0, 67, 71
1, 247926, Note_on_c, 0, 64, 71
1, 247926, Note_on_c, 0, 72, 84
1, 247929, Note_on_c, 0, 57, 0
1, 247929, Note_on_c, 0, 48, 0
1, 247929, Note_on_c, 0, 48, 74
1, 247932, Note_on_c, 0, 58, 95
1, 248536, Note_on_c, 0, 64, 0
1, 248536, Note_on_c, 0, 64, 77
1, 249148, Note_on_c, 0, 64, 0
1, 249148, Note_on_c, 0, 67, 0
1, 249148, Note_on_c, 0, 67, 77
1, 249806, Note_on_c, 0, 67, 0
1, 249806, Note_on_c, 0, 67, 75
1, 249821, Control_c, 0, 64, 127
1, 250334, Note_on_c, 0, 72, 0
1, 250334, Note_on_c, 0, 58, 0
1, 250334, Note_on_c, 0, 48, 0
1, 250863, Note_on_c, 0, 67, 0
1, 251205, Control_c, 0, 64, 0
1, 251391, Note_on_c, 0, 63, 55
1, 251391, Note_on_c, 0, 69, 64
1, 251391, Note_on_c, 0, 48, 46
1, 251394, Note_on_c, 0, 54, 46
1, 251394, Note_on_c, 0, 60, 53
1, 251469, Control_c, 0, 64, 127
1, 251719, Note_on_c, 0, 69, 0
1, 251719, Note_on_c, 0, 63, 0
1, 251719, Note_on_c, 0, 63, 53
1, 251722, Note_on_c, 0, 69, 62
1, 251722, Note_on_c, 0, 60, 0
1, 251722, Note_on_c, 0, 54, 0
1, 251725, Note_on_c, 0, 48, 0
1, 251725, Note_on_c, 0, 48, 41
1, 251725, Note_on_c, 0, 54, 41
1, 251728, Note_on_c, 0, 60, 48
1, 251883, Note_on_c, 0, 69, 0
1, 251883, Note_on_c, 0, 63, 0
1, 251883, Note_on_c, 0, 64, 58
1, 251886, Note_on_c, 0, 70, 69
1, 251886, Note_on_c, 0, 60, 0
1, 251886, Note_on_c, 0, 54, 0
1, 251889, Note_on_c, 0, 48, 0
1, 251889, Note_on_c, 0, 48, 46
1, 251889, Note_on_c, 0, 55, 46
1, 251892, Note_on_c, 0, 60, 53
1, 251892, Control_c, 0, 64, 0
1, 252058, Control_c, 0, 64, 127
1, 252209, Note_on_c, 0, 70, 0
1, 252209, Note_on_c, 0, 64, 0
1, 252209, Note_on_c, 0, 64, 56
1, 252212, Note_on_c, 0, 70, 66
1, 252212, Note_on_c, 0, 60, 0
1, 252212, Note_on_c, 0, 55, 0
1, 252215, Note_on_c, 0, 48, 0
1, 252215, Note_on_c, 0, 48, 43
1, 252215, Note_on_c, 0, 55, 43
1, 252218, Note_on_c, 0, 60, 49
1, 252368, Note_on_c, 0, 70, 0
1, 252368, Note_on_c, 0, 64, 0
1, 252368, Note_on_c, 0, 65, 61
1, 252371, Note_on_c, 0, 71, 71
1, 252371, Note_on_c, 0, 60, 0
1, 252371, Note_on_c, 0, 55, 0
1, 252374, Note_on_c, 0, 48, 0
1, 252374, Note_on_c, 0, 48, 51
1, 252374, Note_on_c, 0, 56, 51
1, 252377, Note_on_c, 0, 62, 60
1, 252377, Control_c, 0, 64, 0
1, 252540, Control_c, 0, 64, 127
1, 252692, Note_on_c, 0, 71, 0
1, 252692, Note_on_c, 0, 65, 0
1, 252692, Note_on_c, 0, 65, 58
1, 252695, Note_on_c, 0, 77, 69
1, 252695, Note_on_c, 0, 62, 0
1, 252695, Note_on_c, 0, 56, 0
1, 252698, Note_on_c, 0, 48, 0
1, 252698, Note_on_c, 0, 48, 48
1, 252698, Note_on_c, 0, 56, 48
1, 252701, Note_on_c, 0, 62, 55
1, 252853, Note_on_c, 0, 77, 0
1, 252853, Note_on_c, 0, 65, 0
1, 252853, Note_on_c, 0, 65, 63
1, 252856, Note_on_c, 0, 72, 73
1, 252856, Note_on_c, 0, 62, 0
1, 252856, Note_on_c, 0, 56, 0
1, 252859, Note_on_c, 0, 48, 0
1, 252859, Note_on_c, 0, 48, 54
1, 252859, Note_on_c, 0, 57, 54
1, 252862, Note_on_c, 0, 60, 63
1, 252862, Control_c, 0, 64, 0
1, 253036, Control_c, 0, 64, 127
1, 253182, Note_on_c, 0, 72, 0
1, 253182, Note_on_c, 0, 65, 0
1, 253182, Note_on_c, 0, 65, 63
1, 253185, Note_on_c, 0, 60, 0
1, 253185, Note_on_c, 0, 57, 0
1, 253185, Note_on_c, 0, 48, 0
1, 253188, Note_on_c, 0, 48, 52
1, 253188, Note_on_c, 0, 57, 52
1, 253188, Note_on_c, 0, 60, 60
1, 253359, Note_on_c, 0, 65, 0
1, 253359, Note_on_c, 0, 69, 68
1, 253359, Note_on_c, 0, 74, 79
1, 253362, Note_on_c, 0, 60, 0
1, 253362, Note_on_c, 0, 57, 0
1, 253362, Note_on_c, 0, 48, 0
1, 253365, Control_c, 0, 64, 0
1, 253365, Note_on_c, 0, 48, 58
1, 253365, Note_on_c, 0, 54, 58
1, 253368, Note_on_c, 0, 62, 68
1, 253495, Control_c, 0, 64, 127
1, 253685, Note_on_c, 0, 74, 0
1, 253685, Note_on_c, 0, 69, 0
1, 253685, Note_on_c, 0, 69, 65
1, 253688, Note_on_c, 0, 74, 77
1, 253688, Note_on_c, 0, 62, 0
1, 253688, Note_on_c, 0, 54, 0
1, 253691, Note_on_c, 0, 48, 0
1, 253691, Note_on_c, 0, 48, 53
1, 253691, Note_on_c, 0, 54, 53
1, 253694, Note_on_c, 0, 62, 62
1, 253851, Note_on_c, 0, 74, 0
1, 253851, Note_on_c, 0, 69, 0
1, 253851, Note_on_c, 0, 70, 64
1, 253854, Note_on_c, 0, 74, 75
1, 253854, Note_on_c, 0, 62, 0
1, 253854, Note_on_c, 0, 54, 0
1, 253857, Note_on_c, 0, 48, 0
1, 253857, Note_on_c, 0, 48, 54
1, 253857, Note_on_c, 0, 55, 54
1, 253860, Note_on_c, 0, 62, 63
1, 253860, Control_c, 0, 64, 0
1, 253969, Control_c, 0, 64, 127
1, 254116, Note_on_c, 0, 74, 0
1, 254116, Note_on_c, 0, 70, 0
1, 254116, Note_on_c, 0, 62, 0
1, 254119, Note_on_c, 0, 55, 0
1, 254119, Note_on_c, 0, 48, 0
1, 254119, Note_on_c, 0, 48, 36
1, 254133, Note_on_c, 0, 55, 44
1, 254151, Note_on_c, 0, 62, 45
1, 254168, Note_on_c, 0, 70, 57
1, 254186, Note_on_c, 0, 74, 66
1, 254203, Note_on_c, 0, 82, 73
1, 254296, Note_on_c, 0, 82, 0
1, 254296, Note_on_c, 0, 74, 0
1, 254296, Note_on_c, 0, 70, 0
1, 254299, Note_on_c, 0, 62, 0
1, 254299, Note_on_c, 0, 55, 0
1, 254299, Note_on_c, 0, 48, 0
1, 254302, Note_on_c, 0, 48, 41
1, 254314, Note_on_c, 0, 54, 41
1, 254331, Note_on_c, 0, 63, 49
1, 254349, Note_on_c, 0, 69, 53
1, 254367, Note_on_c, 0, 72, 63
1, 254384, Note_on_c, 0, 81, 71
1, 254391, Control_c, 0, 64, 0
1, 254534, Control_c, 0, 64, 127
1, 254653, Note_on_c, 0, 81, 0
1, 254653, Note_on_c, 0, 72, 0
1, 254653, Note_on_c, 0, 69, 0
1, 254656, Note_on_c, 0, 63, 0
1, 254656, Note_on_c, 0, 54, 0
1, 254656, Note_on_c, 0, 48, 0
1, 254659, Note_on_c, 0, 48, 39
1, 254670, Note_on_c, 0, 55, 39
1, 254687, Note_on_c, 0, 64, 46
1, 254704, Note_on_c, 0, 70, 52
1, 254721, Note_on_c, 0, 72, 60
1, 254739, Note_on_c, 0, 79, 66
1, 254837, Note_on_c, 0, 79, 0
1, 254837, Note_on_c, 0, 72, 0
1, 254837, Note_on_c, 0, 70, 0
1, 254840, Note_on_c, 0, 64, 0
1, 254840, Note_on_c, 0, 55, 0
1, 254840, Note_on_c, 0, 48, 0
1, 254843, Note_on_c, 0, 48, 38
1, 254855, Note_on_c, 0, 57, 38
1, 254873, Note_on_c, 0, 65, 45
1, 254891, Note_on_c, 0, 69, 46
1, 254909, Note_on_c, 0, 72, 52
1, 254927, Note_on_c, 0, 77, 64
1, 254927, Control_c, 0, 64, 0
1, 255285, Note_on_c, 0, 77, 0
1, 255285, Note_on_c, 0, 72, 0
1, 255285, Note_on_c, 0, 69, 0
1, 255288, Note_on_c, 0, 65, 0
1, 255288, Note_on_c, 0, 57, 0
1, 255288, Note_on_c, 0, 48, 0
1, 255291, Note_on_c, 0, 48, 43
1, 255420, Note_on_c, 0, 48, 0
1, 255420, Note_on_c, 0, 48, 46
1, 255442, Note_on_c, 0, 54, 53
1, 255464, Note_on_c, 0, 99, 53
1, 255464, Control_c, 0, 64, 127
1, 255464, Note_on_c, 0, 63, 53
1, 255538, Note_on_c, 0, 99, 0
1, 255538, Note_on_c, 0, 98, 52
1, 255611, Note_on_c, 0, 98, 0
1, 255611, Note_on_c, 0, 101, 55
1, 255685, Note_on_c, 0, 101, 0
1, 255685, Note_on_c, 0, 99, 52
1, 255758, Note_on_c, 0, 99, 0
1, 255758, Note_on_c, 0, 98, 52
1, 255758, Note_on_c, 0, 63, 0
1, 255761, Note_on_c, 0, 54, 0
1, 255761, Note_on_c, 0, 48, 0
1, 255761, Note_on_c, 0, 48, 53
1, 255831, Note_on_c, 0, 98, 0
1, 255831, Note_on_c, 0, 96, 52
1, 255868, Note_on_c, 0, 48, 0
1, 255868, Note_on_c, 0, 48, 51
1, 255886, Note_on_c, 0, 55, 51
1, 255905, Note_on_c, 0, 96, 0
1, 255905, Note_on_c, 0, 94, 54
1, 255905, Note_on_c, 0, 62, 58
1, 255910, Control_c, 0, 64, 0
1, 255945, Control_c, 0, 64, 127
1, 255981, Note_on_c, 0, 94, 0
1, 255981, Note_on_c, 0, 93, 52
1, 256057, Note_on_c, 0, 93, 0
1, 256057, Note_on_c, 0, 96, 56
1, 256130, Note_on_c, 0, 96, 0
1, 256130, Note_on_c, 0, 94, 52
1, 256203, Note_on_c, 0, 94, 0
1, 256203, Note_on_c, 0, 93, 52
1, 256203, Note_on_c, 0, 62, 0
1, 256206, Note_on_c, 0, 55, 0
1, 256206, Note_on_c, 0, 48, 0
1, 256206, Note_on_c, 0, 48, 55
1, 256276, Note_on_c, 0, 93, 0
1, 256276, Note_on_c, 0, 91, 52
1, 256312, Note_on_c, 0, 48, 0
1, 256312, Note_on_c, 0, 48, 49
1, 256331, Note_on_c, 0, 56, 58
1, 256349, Note_on_c, 0, 91, 0
1, 256349, Note_on_c, 0, 89, 55
1, 256349, Note_on_c, 0, 65, 58
1, 256354, Control_c, 0, 64, 0
1, 256398, Control_c, 0, 64, 127
1, 256424, Note_on_c, 0, 89, 0
1, 256424, Note_on_c, 0, 88, 52
1, 256500, Note_on_c, 0, 88, 0
1, 256500, Note_on_c, 0, 91, 57
1, 256572, Note_on_c, 0, 91, 0
1, 256572, Note_on_c, 0, 89, 53
1, 256645, Note_on_c, 0, 89, 0
1, 256645, Note_on_c, 0, 88, 53
1, 256645, Note_on_c, 0, 65, 0
1, 256648, Note_on_c, 0, 56, 0
1, 256648, Note_on_c, 0, 48, 0
1, 256648, Note_on_c, 0, 48, 55
1, 256718, Note_on_c, 0, 88, 0
1, 256718, Note_on_c, 0, 86, 53
1, 256755, Note_on_c, 0, 48, 0
1, 256755, Note_on_c, 0, 48, 49
1, 256773, Note_on_c, 0, 57, 49
1, 256791, Note_on_c, 0, 86, 0
1, 256791, Note_on_c, 0, 84, 55
1, 256791, Note_on_c, 0, 60, 58
1, 256794, Control_c, 0, 64, 0
1, 256823, Control_c, 0, 64, 127
1, 256866, Note_on_c, 0, 84, 0
1, 256866, Note_on_c, 0, 83, 53
1, 256941, Note_on_c, 0, 83, 0
1, 256941, Note_on_c, 0, 86, 58
1, 257014, Note_on_c, 0, 86, 0
1, 257014, Note_on_c, 0, 84, 54
1, 257086, Note_on_c, 0, 84, 0
1, 257086, Note_on_c, 0, 82, 54
1, 257086, Note_on_c, 0, 60, 0
1, 257089, Note_on_c, 0, 57, 0
1, 257089, Note_on_c, 0, 48, 0
1, 257089, Note_on_c, 0, 48, 55
1, 257159, Note_on_c, 0, 82, 0
1, 257159, Note_on_c, 0, 81, 55
1, 257195, Note_on_c, 0, 48, 0
1, 257195, Note_on_c, 0, 48, 55
1, 257213, Note_on_c, 0, 54, 55
1, 257231, Note_on_c, 0, 81, 0
1, 257231, Note_on_c, 0, 86, 57
1, 257231, Note_on_c, 0, 62, 65
1, 257235, Control_c, 0, 64, 0
1, 257266, Control_c, 0, 64, 127
1, 257305, Note_on_c, 0, 86, 0
1, 257305, Note_on_c, 0, 85, 55
1, 257379, Note_on_c, 0, 85, 0
1, 257379, Note_on_c, 0, 87, 61
1, 257452, Note_on_c, 0, 87, 0
1, 257452, Note_on_c, 0, 86, 56
1, 257525, Note_on_c, 0, 86, 0
1, 257525, Note_on_c, 0, 84, 56
1, 257525, Note_on_c, 0, 62, 0
1, 257528, Note_on_c, 0, 54, 0
1, 257528, Note_on_c, 0, 48, 0
1, 257528, Note_on_c, 0, 48, 61
1, 257597, Note_on_c, 0, 84, 0
1, 257597, Note_on_c, 0, 81, 56
1, 257633, Note_on_c, 0, 48, 0
1, 257633, Note_on_c, 0, 48, 55
1, 257652, Note_on_c, 0, 55, 55
1, 257670, Note_on_c, 0, 81, 0
1, 257670, Note_on_c, 0, 82, 61
1, 257670, Note_on_c, 0, 62, 65
1, 257670, Control_c, 0, 64, 0
1, 257716, Control_c, 0, 64, 127
1, 257744, Note_on_c, 0, 82, 0
1, 257744, Note_on_c, 0, 81, 56
1, 257818, Note_on_c, 0, 81, 0
1, 257818, Note_on_c, 0, 84, 62
1, 257891, Note_on_c, 0, 84, 0
1, 257891, Note_on_c, 0, 82, 57
1, 257964, Note_on_c, 0, 82, 0
1, 257964, Note_on_c, 0, 79, 57
1, 257964, Note_on_c, 0, 62, 0
1, 257967, Note_on_c, 0, 55, 0
1, 257967, Note_on_c, 0, 48, 0
1, 257967, Note_on_c, 0, 48, 61
1, 258036, Note_on_c, 0, 79, 0
1, 258036, Note_on_c, 0, 74, 57
1, 258072, Note_on_c, 0, 48, 0
1, 258072, Note_on_c, 0, 48, 56
1, 258091, Note_on_c, 0, 52, 56
1, 258109, Note_on_c, 0, 74, 0
1, 258109, Note_on_c, 0, 72, 62
1, 258109, Note_on_c, 0, 60, 66
1, 258112, Control_c, 0, 64, 0
1, 258140, Control_c, 0, 64, 127
1, 258183, Note_on_c, 0, 72, 0
1, 258183, Note_on_c, 0, 71, 58
1, 258257, Note_on_c, 0, 71, 0
1, 258257, Note_on_c, 0, 74, 64
1, 258330, Note_on_c, 0, 74, 0
1, 258330, Note_on_c, 0, 72, 58
1, 258403, Note_on_c, 0, 72, 0
1, 258403, Note_on_c, 0, 70, 58
1, 258403, Note_on_c, 0, 60, 0
1, 258406, Note_on_c, 0, 52, 0
1, 258406, Note_on_c, 0, 48, 0
1, 258406, Note_on_c, 0, 48, 64
1, 258475, Note_on_c, 0, 70, 0
1, 258475, Note_on_c, 0, 67, 58
1, 258511, Note_on_c, 0, 48, 0
1, 258511, Note_on_c, 0, 48, 58
1, 258529, Note_on_c, 0, 53, 58
1, 258548, Note_on_c, 0, 67, 0
1, 258548, Note_on_c, 0, 69, 62
1, 258548, Control_c, 0, 64, 0
1, 258551, Note_on_c, 0, 60, 68
1, 258577, Control_c, 0, 64, 127
1, 258622, Note_on_c, 0, 69, 0
1, 258622, Note_on_c, 0, 68, 58
1, 258696, Note_on_c, 0, 68, 0
1, 258696, Note_on_c, 0, 70, 65
1, 258768, Note_on_c, 0, 70, 0
1, 258768, Note_on_c, 0, 69, 58
1, 258841, Note_on_c, 0, 69, 0
1, 258841, Note_on_c, 0, 65, 61
1, 258841, Note_on_c, 0, 60, 0
1, 258844, Note_on_c, 0, 53, 0
1, 258844, Note_on_c, 0, 48, 0
1, 258844, Note_on_c, 0, 48, 65
1, 258914, Note_on_c, 0, 65, 0
1, 258914, Note_on_c, 0, 69, 61
1, 258986, Note_on_c, 0, 69, 0
1, 258986, Note_on_c, 0, 63, 70
1, 258986, Note_on_c, 0, 48, 0
1, 258989, Note_on_c, 0, 48, 54
1, 258989, Note_on_c, 0, 54, 57
1, 258989, Note_on_c, 0, 60, 65
1, 258989, Control_c, 0, 64, 0
1, 259014, Control_c, 0, 64, 127
1, 259058, Note_on_c, 0, 69, 65
1, 259131, Note_on_c, 0, 69, 0
1, 259131, Note_on_c, 0, 68, 65
1, 259202, Note_on_c, 0, 68, 0
1, 259202, Note_on_c, 0, 69, 65
1, 259274, Note_on_c, 0, 69, 0
1, 259274, Note_on_c, 0, 63, 0
1, 259274, Note_on_c, 0, 63, 66
1, 259277, Note_on_c, 0, 70, 62
1, 259277, Note_on_c, 0, 60, 0
1, 259277, Note_on_c, 0, 54, 0
1, 259280, Note_on_c, 0, 48, 0
1, 259280, Note_on_c, 0, 48, 47
1, 259280, Note_on_c, 0, 54, 54
1, 259283, Note_on_c, 0, 60, 65
1, 259345, Note_on_c, 0, 70, 0
1, 259345, Note_on_c, 0, 69, 62
1, 259417, Note_on_c, 0, 69, 0
1, 259417, Note_on_c, 0, 63, 0
1, 259417, Note_on_c, 0, 64, 71
1, 259420, Note_on_c, 0, 60, 0
1, 259420, Note_on_c, 0, 54, 0
1, 259420, Note_on_c, 0, 48, 0
1, 259423, Note_on_c, 0, 48, 61
1, 259423, Note_on_c, 0, 55, 61
1, 259423, Note_on_c, 0, 60, 73
1, 259426, Control_c, 0, 64, 0
1, 259456, Control_c, 0, 64, 127
1, 259491, Note_on_c, 0, 70, 68
1, 259565, Note_on_c, 0, 70, 0
1, 259565, Note_on_c, 0, 69, 68
1, 259637, Note_on_c, 0, 69, 0
1, 259637, Note_on_c, 0, 70, 68
1, 259708, Note_on_c, 0, 70, 0
1, 259708, Note_on_c, 0, 64, 0
1, 259708, Note_on_c, 0, 64, 68
1, 259711, Note_on_c, 0, 72, 65
1, 259711, Note_on_c, 0, 60, 0
1, 259711, Note_on_c, 0, 55, 0
1, 259714, Note_on_c, 0, 48, 0
1, 259714, Note_on_c, 0, 48, 57
1, 259714, Note_on_c, 0, 55, 57
1, 259717, Note_on_c, 0, 60, 68
1, 259780, Note_on_c, 0, 72, 0
1, 259780, Note_on_c, 0, 70, 65
1, 259851, Note_on_c, 0, 70, 0
1, 259851, Note_on_c, 0, 64, 0
1, 259851, Note_on_c, 0, 65, 73
1, 259854, Note_on_c, 0, 60, 0
1, 259854, Note_on_c, 0, 55, 0
1, 259854, Note_on_c, 0, 48, 0
1, 259857, Note_on_c, 0, 48, 60
1, 259857, Note_on_c, 0, 56, 60
1, 259857, Note_on_c, 0, 62, 72
1, 259860, Control_c, 0, 64, 0
1, 259890, Control_c, 0, 64, 127
1, 259926, Note_on_c, 0, 71, 69
1, 260000, Note_on_c, 0, 71, 0
1, 260000, Note_on_c, 0, 70, 69
1, 260072, Note_on_c, 0, 70, 0
1, 260072, Note_on_c, 0, 71, 69
1, 260143, Note_on_c, 0, 71, 0
1, 260143, Note_on_c, 0, 65, 0
1, 260143, Note_on_c, 0, 65, 71
1, 260146, Note_on_c, 0, 72, 68
1, 260146, Note_on_c, 0, 62, 0
1, 260146, Note_on_c, 0, 56, 0
1, 260149, Note_on_c, 0, 48, 0
1, 260149, Note_on_c, 0, 48, 57
1, 260149, Note_on_c, 0, 56, 69
1, 260152, Note_on_c, 0, 62, 69
1, 260215, Note_on_c, 0, 72, 0
1, 260215, Note_on_c, 0, 71, 68
1, 260286, Note_on_c, 0, 71, 0
1, 260286, Note_on_c, 0, 65, 0
1, 260286, Note_on_c, 0, 65, 77
1, 260289, Note_on_c, 0, 62, 0
1, 260289, Note_on_c, 0, 56, 0
1, 260289, Note_on_c, 0, 48, 0
1, 260292, Note_on_c, 0, 48, 60
1, 260292, Note_on_c, 0, 57, 60
1, 260292, Note_on_c, 0, 60, 71
1, 260295, Control_c, 0, 64, 0
1, 260321, Control_c, 0, 64, 127
1, 260360, Note_on_c, 0, 72, 70
1, 260434, Note_on_c, 0, 72, 0
1, 260434, Note_on_c, 0, 71, 70
1, 260506, Note_on_c, 0, 71, 0
1, 260506, Note_on_c, 0, 72, 71
1, 260578, Note_on_c, 0, 72, 0
1, 260578, Note_on_c, 0, 65, 0
1, 260578, Note_on_c, 0, 74, 68
1, 260581, Note_on_c, 0, 48, 0
1, 260581, Note_on_c, 0, 48, 69
1, 260649, Note_on_c, 0, 74, 0
1, 260649, Note_on_c, 0, 72, 68
1, 260721, Note_on_c, 0, 72, 0
1, 260721, Note_on_c, 0, 69, 78
1, 260721, Note_on_c, 0, 48, 0
1, 260724, Note_on_c, 0, 60, 0
1, 260724, Note_on_c, 0, 57, 0
1, 260724, Note_on_c, 0, 48, 68
1, 260727, Note_on_c, 0, 54, 68
1, 260727, Note_on_c, 0, 62, 78
1, 260727, Control_c, 0, 64, 0
1, 260756, Control_c, 0, 64, 127
1, 260795, Note_on_c, 0, 74, 72
1, 260869, Note_on_c, 0, 74, 0
1, 260869, Note_on_c, 0, 73, 72
1, 260941, Note_on_c, 0, 73, 0
1, 260941, Note_on_c, 0, 74, 72
1, 261012, Note_on_c, 0, 74, 0
1, 261012, Note_on_c, 0, 69, 0
1, 261012, Note_on_c, 0, 69, 74
1, 261015, Note_on_c, 0, 76, 71
1, 261015, Note_on_c, 0, 62, 0
1, 261015, Note_on_c, 0, 54, 0
1, 261018, Note_on_c, 0, 48, 0
1, 261018, Note_on_c, 0, 48, 65
1, 261018, Note_on_c, 0, 57, 65
1, 261021, Note_on_c, 0, 62, 75
1, 261084, Note_on_c, 0, 76, 0
1, 261084, Note_on_c, 0, 74, 71
1, 261156, Note_on_c, 0, 74, 0
1, 261156, Note_on_c, 0, 69, 0
1, 261156, Note_on_c, 0, 74, 79
1, 261159, Note_on_c, 0, 62, 0
1, 261159, Note_on_c, 0, 57, 0
1, 261159, Note_on_c, 0, 48, 0
1, 261162, Note_on_c, 0, 46, 80
1, 261162, Control_c, 0, 64, 0
1, 261181, Control_c, 0, 64, 127
1, 261230, Note_on_c, 0, 79, 73
1, 261302, Note_on_c, 0, 79, 0
1, 261302, Note_on_c, 0, 78, 73
1, 261302, Note_on_c, 0, 46, 0
1, 261305, Note_on_c, 0, 62, 71
1, 261373, Note_on_c, 0, 78, 0
1, 261373, Note_on_c, 0, 79, 73
1, 261445, Note_on_c, 0, 79, 0
1, 261445, Note_on_c, 0, 74, 0
1, 261445, Note_on_c, 0, 74, 75
1, 261448, Note_on_c, 0, 81, 72
1, 261448, Note_on_c, 0, 62, 0
1, 261448, Note_on_c, 0, 67, 72
1, 261516, Note_on_c, 0, 81, 0
1, 261516, Note_on_c, 0, 79, 73
1, 261587, Note_on_c, 0, 79, 0
1, 261587, Note_on_c, 0, 74, 0
1, 261587, Note_on_c, 0, 79, 83
1, 261590, Note_on_c, 0, 67, 0
1, 261590, Note_on_c, 0, 58, 82
1, 261593, Control_c, 0, 64, 0
1, 261633, Control_c, 0, 64, 127
1, 261662, Note_on_c, 0, 84, 77
1, 261733, Note_on_c, 0, 84, 0
1, 261733, Note_on_c, 0, 83, 77
1, 261733, Note_on_c, 0, 60, 71
1, 261804, Note_on_c, 0, 83, 0
1, 261804, Note_on_c, 0, 84, 77
1, 261876, Note_on_c, 0, 84, 0
1, 261876, Note_on_c, 0, 79, 0
1, 261876, Note_on_c, 0, 79, 83
1, 261879, Note_on_c, 0, 86, 74
1, 261879, Note_on_c, 0, 60, 0
1, 261879, Note_on_c, 0, 64, 73
1, 261947, Note_on_c, 0, 86, 0
1, 261947, Note_on_c, 0, 84, 74
1, 262018, Note_on_c, 0, 84, 0
1, 262018, Note_on_c, 0, 79, 0
1, 262018, Note_on_c, 0, 84, 86
1, 262021, Note_on_c, 0, 64, 0
1, 262021, Note_on_c, 0, 58, 0
1, 262021, Note_on_c, 0, 57, 83
1, 262021, Control_c, 0, 64, 0
1, 262061, Control_c, 0, 64, 127
1, 262092, Note_on_c, 0, 89, 77
1, 262164, Note_on_c, 0, 89, 0
1, 262164, Note_on_c, 0, 88, 79
1, 262164, Note_on_c, 0, 60, 74
1, 262235, Note_on_c, 0, 88, 0
1, 262235, Note_on_c, 0, 89, 74
1, 262306, Note_on_c, 0, 89, 0
1, 262306, Note_on_c, 0, 84, 0
1, 262306, Note_on_c, 0, 84, 82
1, 262309, Note_on_c, 0, 91, 77
1, 262309, Note_on_c, 0, 60, 0
1, 262309, Note_on_c, 0, 65, 77
1, 262377, Note_on_c, 0, 91, 0
1, 262377, Note_on_c, 0, 89, 77
1, 262448, Note_on_c, 0, 89, 0
1, 262448, Note_on_c, 0, 84, 0
1, 262448, Note_on_c, 0, 86, 81
1, 262451, Note_on_c, 0, 65, 0
1, 262451, Note_on_c, 0, 57, 0
1, 262451, Note_on_c, 0, 58, 87
1, 262455, Control_c, 0, 64, 0
1, 262498, Control_c, 0, 64, 127
1, 262518, Note_on_c, 0, 86, 0
1, 262518, Note_on_c, 0, 85, 75
1, 262587, Note_on_c, 0, 85, 0
1, 262587, Note_on_c, 0, 88, 82
1, 262587, Note_on_c, 0, 62, 78
1, 262659, Note_on_c, 0, 88, 0
1, 262659, Note_on_c, 0, 86, 79
1, 262730, Note_on_c, 0, 86, 0
1, 262730, Note_on_c, 0, 79, 89
1, 262730, Note_on_c, 0, 62, 0
1, 262733, Note_on_c, 0, 67, 79
1, 262875, Note_on_c, 0, 79, 0
1, 262875, Note_on_c, 0, 88, 92
1, 262875, Note_on_c, 0, 67, 0
1, 262878, Note_on_c, 0, 58, 0
1, 262878, Note_on_c, 0, 60, 91
1, 262878, Control_c, 0, 64, 0
1, 262904, Control_c, 0, 64, 127
1, 262949, Note_on_c, 0, 93, 84
1, 263020, Note_on_c, 0, 93, 0
1, 263020, Note_on_c, 0, 92, 86
1, 263020, Note_on_c, 0, 64, 81
1, 263091, Note_on_c, 0, 92, 0
1, 263091, Note_on_c, 0, 93, 79
1, 263161, Note_on_c, 0, 93, 0
1, 263161, Note_on_c, 0, 88, 0
1, 263161, Note_on_c, 0, 88, 89
1, 263164, Note_on_c, 0, 94, 80
1, 263164, Note_on_c, 0, 64, 0
1, 263164, Note_on_c, 0, 69, 82
1, 263232, Note_on_c, 0, 94, 0
1, 263232, Note_on_c, 0, 93, 81
1, 263303, Note_on_c, 0, 93, 0
1, 263303, Note_on_c, 0, 88, 0
1, 263303, Note_on_c, 0, 89, 89
1, 263306, Note_on_c, 0, 69, 0
1, 263306, Note_on_c, 0, 60, 0
1, 263306, Note_on_c, 0, 62, 92
1, 263306, Control_c, 0, 64, 0
1, 263346, Control_c, 0, 64, 127
1, 263373, Note_on_c, 0, 89, 0
1, 263373, Note_on_c, 0, 88, 81
1, 263442, Note_on_c, 0, 88, 0
1, 263442, Note_on_c, 0, 91, 90
1, 263442, Note_on_c, 0, 65, 84
1, 263513, Note_on_c, 0, 91, 0
1, 263513, Note_on_c, 0, 89, 83
1, 263584, Note_on_c, 0, 89, 0
1, 263584, Note_on_c, 0, 86, 92
1, 263584, Note_on_c, 0, 65, 0
1, 263587, Note_on_c, 0, 70, 86
1, 263729, Note_on_c, 0, 86, 0
1, 263729, Note_on_c, 0, 91, 104
1, 263729, Note_on_c, 0, 70, 0
1, 263732, Note_on_c, 0, 62, 0
1, 263732, Note_on_c, 0, 64, 103
1, 263735, Control_c, 0, 64, 0
1, 263767, Control_c, 0, 64, 127
1, 263802, Note_on_c, 0, 96, 94
1, 263872, Note_on_c, 0, 96, 0
1, 263872, Note_on_c, 0, 95, 96
1, 263872, Note_on_c, 0, 67, 90
1, 263943, Note_on_c, 0, 95, 0
1, 263943, Note_on_c, 0, 96, 89
1, 264013, Note_on_c, 0, 96, 0
1, 264013, Note_on_c, 0, 91, 0
1, 264013, Note_on_c, 0, 91, 99
1, 264016, Note_on_c, 0, 98, 89
1, 264016, Note_on_c, 0, 67, 0
1, 264016, Note_on_c, 0, 72, 91
1, 264084, Note_on_c, 0, 98, 0
1, 264084, Note_on_c, 0, 96, 91
1, 264155, Note_on_c, 0, 96, 0
1, 264155, Note_on_c, 0, 91, 0
1, 264155, Note_on_c, 0, 93, 97
1, 264158, Note_on_c, 0, 72, 0
1, 264158, Note_on_c, 0, 64, 0
1, 264158, Note_on_c, 0, 65, 100
1, 264161, Control_c, 0, 64, 0
1, 264185, Control_c, 0, 64, 127
1, 264227, Note_on_c, 0, 93, 0
1, 264227, Note_on_c, 0, 92, 90
1, 264299, Note_on_c, 0, 92, 0
1, 264299, Note_on_c, 0, 94, 98
1, 264299, Note_on_c, 0, 69, 90
1, 264371, Note_on_c, 0, 94, 0
1, 264371, Note_on_c, 0, 93, 90
1, 264443, Note_on_c, 0, 93, 0
1, 264443, Note_on_c, 0, 89, 100
1, 264443, Note_on_c, 0, 69, 0
1, 264446, Note_on_c, 0, 72, 90
1, 264628, Note_on_c, 0, 89, 0
1, 264628, Note_on_c, 0, 91, 62
1, 264628, Note_on_c, 0, 72, 0
1, 264631, Note_on_c, 0, 65, 0
1, 264631, Note_on_c, 0, 53, 53
1, 264631, Control_c, 0, 64, 0
1, 264654, Control_c, 0, 64, 127
1, 264690, Note_on_c, 0, 91, 0
1, 264690, Note_on_c, 0, 90, 55
1, 264752, Note_on_c, 0, 90, 0
1, 264752, Note_on_c, 0, 93, 62
1, 264752, Note_on_c, 0, 59, 41
1, 264755, Note_on_c, 0, 62, 41
1, 264755, Note_on_c, 0, 67, 48
1, 264817, Note_on_c, 0, 93, 0
1, 264817, Note_on_c, 0, 91, 55
1, 264882, Note_on_c, 0, 91, 0
1, 264882, Note_on_c, 0, 86, 56
1, 264882, Note_on_c, 0, 67, 0
1, 264885, Note_on_c, 0, 62, 0
1, 264885, Note_on_c, 0, 59, 0
1, 264885, Note_on_c, 0, 59, 41
1, 264888, Note_on_c, 0, 62, 41
1, 264888, Note_on_c, 0, 67, 48
1, 265069, Note_on_c, 0, 86, 0
1, 265069, Note_on_c, 0, 91, 62
1, 265069, Note_on_c, 0, 67, 0
1, 265072, Note_on_c, 0, 53, 0
1, 265072, Note_on_c, 0, 59, 0
1, 265072, Note_on_c, 0, 62, 0
1, 265075, Note_on_c, 0, 53, 53
1, 265075, Control_c, 0, 64, 0
1, 265095, Control_c, 0, 64, 127
1, 265131, Note_on_c, 0, 91, 0
1, 265131, Note_on_c, 0, 90, 55
1, 265194, Note_on_c, 0, 90, 0
1, 265194, Note_on_c, 0, 93, 62
1, 265194, Note_on_c, 0, 58, 41
1, 265197, Note_on_c, 0, 61, 41
1, 265197, Note_on_c, 0, 67, 48
1, 265257, Note_on_c, 0, 93, 0
1, 265257, Note_on_c, 0, 91, 55
1, 265321, Note_on_c, 0, 91, 0
1, 265321, Note_on_c, 0, 85, 56
1, 265321, Note_on_c, 0, 67, 0
1, 265324, Note_on_c, 0, 61, 0
1, 265324, Note_on_c, 0, 58, 0
1, 265324, Note_on_c, 0, 58, 41
1, 265327, Note_on_c, 0, 61, 41
1, 265327, Note_on_c, 0, 67, 48
1, 265508, Note_on_c, 0, 85, 0
1, 265508, Note_on_c, 0, 91, 62
1, 265508, Note_on_c, 0, 67, 0
1, 265511, Note_on_c, 0, 53, 0
1, 265511, Note_on_c, 0, 58, 0
1, 265511, Note_on_c, 0, 61, 0
1, 265514, Note_on_c, 0, 53, 53
1, 265514, Control_c, 0, 64, 0
1, 265535, Control_c, 0, 64, 127
1, 265570, Note_on_c, 0, 91, 0
1, 265570, Note_on_c, 0, 90, 55
1, 265633, Note_on_c, 0, 90, 0
1, 265633, Note_on_c, 0, 93, 62
1, 265633, Note_on_c, 0, 58, 41
1, 265636, Note_on_c, 0, 60, 41
1, 265636, Note_on_c, 0, 64, 48
1, 265697, Note_on_c, 0, 93, 0
1, 265697, Note_on_c, 0, 91, 55
1, 265761, Note_on_c, 0, 91, 0
1, 265761, Note_on_c, 0, 84, 56
1, 265761, Note_on_c, 0, 64, 0
1, 265764, Note_on_c, 0, 60, 0
1, 265764, Note_on_c, 0, 58, 0
1, 265764, Note_on_c, 0, 58, 41
1, 265767, Note_on_c, 0, 60, 41
1, 265767, Note_on_c, 0, 64, 48
1, 265948, Note_on_c, 0, 84, 0
1, 265948, Note_on_c, 0, 89, 62
1, 265948, Note_on_c, 0, 64, 0
1, 265951, Note_on_c, 0, 53, 0
1, 265951, Note_on_c, 0, 58, 0
1, 265951, Note_on_c, 0, 60, 0
1, 265954, Note_on_c, 0, 53, 53
1, 265954, Control_c, 0, 64, 0
1, 265978, Control_c, 0, 64, 127
1, 266092, Note_on_c, 0, 57, 41
1, 266092, Note_on_c, 0, 60, 41
1, 266092, Note_on_c, 0, 65, 48
1, 266257, Note_on_c, 0, 89, 0
1, 266257, Note_on_c, 0, 101, 56
1, 266257, Note_on_c, 0, 65, 0
1, 266260, Note_on_c, 0, 60, 0
1, 266260, Note_on_c, 0, 57, 0
1, 266260, Note_on_c, 0, 57, 41
1, 266263, Note_on_c, 0, 60, 41
1, 266263, Note_on_c, 0, 65, 48
1, 266452, Note_on_c, 0, 101, 0
1, 266452, Note_on_c, 0, 90, 62
1, 266452, Note_on_c, 0, 65, 0
1, 266455, Note_on_c, 0, 53, 0
1, 266455, Note_on_c, 0, 57, 0
1, 266455, Note_on_c, 0, 60, 0
1, 266458, Note_on_c, 0, 53, 53
1, 266458, Control_c, 0, 64, 0
1, 266478, Control_c, 0, 64, 127
1, 266514, Note_on_c, 0, 90, 0
1, 266514, Note_on_c, 0, 93, 55
1, 266577, Note_on_c, 0, 93, 0
1, 266577, Note_on_c, 0, 91, 62
1, 266577, Note_on_c, 0, 59, 41
1, 266580, Note_on_c, 0, 62, 41
1, 266580, Note_on_c, 0, 67, 48
1, 266641, Note_on_c, 0, 91, 0
1, 266641, Note_on_c, 0, 86, 55
1, 266725, Note_on_c, 0, 86, 0
1, 266725, Note_on_c, 0, 98, 64
1, 266725, Note_on_c, 0, 67, 0
1, 266728, Note_on_c, 0, 62, 0
1, 266728, Note_on_c, 0, 59, 0
1, 266728, Note_on_c, 0, 59, 41
1, 266731, Note_on_c, 0, 62, 41
1, 266731, Note_on_c, 0, 67, 48
1, 266818, Note_on_c, 0, 98, 0
1, 266911, Note_on_c, 0, 90, 62
1, 266911, Note_on_c, 0, 67, 0
1, 266911, Note_on_c, 0, 53, 0
1, 266914, Note_on_c, 0, 59, 0
1, 266914, Note_on_c, 0, 62, 0
1, 266914, Note_on_c, 0, 53, 53
1, 266917, Control_c, 0, 64, 0
1, 266938, Control_c, 0, 64, 127
1, 266974, Note_on_c, 0, 90, 0
1, 266974, Note_on_c, 0, 93, 55
1, 267036, Note_on_c, 0, 93, 0
1, 267036, Note_on_c, 0, 91, 62
1, 267036, Note_on_c, 0, 58, 41
1, 267039, Note_on_c, 0, 61, 41
1, 267039, Note_on_c, 0, 67, 48
1, 267101, Note_on_c, 0, 91, 0
1, 267101, Note_on_c, 0, 85, 55
1, 267179, Note_on_c, 0, 85, 0
1, 267179, Note_on_c, 0, 97, 63
1, 267179, Note_on_c, 0, 67, 0
1, 267182, Note_on_c, 0, 61, 0
1, 267182, Note_on_c, 0, 58, 0
1, 267182, Note_on_c, 0, 58, 41
1, 267185, Note_on_c, 0, 61, 41
1, 267185, Note_on_c, 0, 67, 48
1, 267272, Note_on_c, 0, 97, 0
1, 267366, Note_on_c, 0, 90, 62
1, 267366, Note_on_c, 0, 67, 0
1, 267366, Note_on_c, 0, 53, 0
1, 267369, Note_on_c, 0, 58, 0
1, 267369, Note_on_c, 0, 61, 0
1, 267369, Note_on_c, 0, 53, 53
1, 267369, Control_c, 0, 64, 0
1, 267392, Control_c, 0, 64, 127
1, 267428, Note_on_c, 0, 90, 0
1, 267428, Note_on_c, 0, 93, 55
1, 267491, Note_on_c, 0, 93, 0
1, 267491, Note_on_c, 0, 91, 62
1, 267491, Note_on_c, 0, 58, 41
1, 267494, Note_on_c, 0, 60, 41
1, 267494, Note_on_c, 0, 64, 48
1, 267556, Note_on_c, 0, 91, 0
1, 267556, Note_on_c, 0, 84, 55
1, 267634, Note_on_c, 0, 84, 0
1, 267634, Note_on_c, 0, 96, 63
1, 267634, Note_on_c, 0, 64, 0
1, 267637, Note_on_c, 0, 60, 0
1, 267637, Note_on_c, 0, 58, 0
1, 267637, Note_on_c, 0, 58, 41
1, 267640, Note_on_c, 0, 60, 41
1, 267640, Note_on_c, 0, 64, 48
1, 267732, Note_on_c, 0, 96, 0
1, 267831, Note_on_c, 0, 92, 62
1, 267831, Note_on_c, 0, 64, 0
1, 267831, Note_on_c, 0, 53, 0
1, 267834, Note_on_c, 0, 58, 0
1, 267834, Note_on_c, 0, 60, 0
1, 267834, Note_on_c, 0, 53, 53
1, 267837, Control_c, 0, 64, 0
1, 267861, Control_c, 0, 64, 127
1, 267903, Note_on_c, 0, 92, 0
1, 267903, Note_on_c, 0, 94, 55
1, 267975, Note_on_c, 0, 94, 0
1, 267975, Note_on_c, 0, 93, 62
1, 267975, Note_on_c, 0, 57, 41
1, 267978, Note_on_c, 0, 60, 41
1, 267978, Note_on_c, 0, 65, 48
1, 268057, Note_on_c, 0, 93, 0
1, 268057, Note_on_c, 0, 89, 55
1, 268161, Note_on_c, 0, 89, 0
1, 268161, Note_on_c, 0, 101, 64
1, 268161, Note_on_c, 0, 65, 0
1, 268164, Note_on_c, 0, 60, 0
1, 268164, Note_on_c, 0, 57, 0
1, 268164, Note_on_c, 0, 57, 41
1, 268167, Note_on_c, 0, 60, 41
1, 268167, Note_on_c, 0, 65, 48
1, 268357, Note_on_c, 0, 101, 0
1, 268357, Note_on_c, 0, 98, 75
1, 268357, Note_on_c, 0, 65, 0
1, 268360, Note_on_c, 0, 53, 0
1, 268360, Note_on_c, 0, 57, 0
1, 268360, Note_on_c, 0, 60, 0
1, 268363, Note_on_c, 0, 53, 58
1, 268363, Control_c, 0, 64, 0
1, 268381, Control_c, 0, 64, 127
1, 268419, Note_on_c, 0, 98, 0
1, 268419, Note_on_c, 0, 97, 70
1, 268480, Note_on_c, 0, 97, 0
1, 268480, Note_on_c, 0, 100, 70
1, 268480, Note_on_c, 0, 62, 53
1, 268483, Note_on_c, 0, 59, 53
1, 268541, Note_on_c, 0, 100, 0
1, 268541, Note_on_c, 0, 98, 70
1, 268602, Note_on_c, 0, 98, 0
1, 268602, Note_on_c, 0, 95, 72
1, 268602, Note_on_c, 0, 62, 0
1, 268605, Note_on_c, 0, 67, 53
1, 268663, Note_on_c, 0, 95, 0
1, 268663, Note_on_c, 0, 91, 68
1, 268732, Note_on_c, 0, 91, 0
1, 268732, Note_on_c, 0, 97, 75
1, 268732, Note_on_c, 0, 67, 0
1, 268735, Note_on_c, 0, 59, 0
1, 268735, Note_on_c, 0, 53, 0
1, 268735, Note_on_c, 0, 53, 61
1, 268738, Control_c, 0, 64, 0
1, 268762, Control_c, 0, 64, 127
1, 268794, Note_on_c, 0, 97, 0
1, 268794, Note_on_c, 0, 96, 70
1, 268855, Note_on_c, 0, 96, 0
1, 268855, Note_on_c, 0, 99, 70
1, 268855, Note_on_c, 0, 61, 53
1, 268858, Note_on_c, 0, 58, 53
1, 268917, Note_on_c, 0, 99, 0
1, 268917, Note_on_c, 0, 97, 70
1, 268978, Note_on_c, 0, 97, 0
1, 268978, Note_on_c, 0, 94, 72
1, 268978, Note_on_c, 0, 61, 0
1, 268981, Note_on_c, 0, 67, 53
1, 269039, Note_on_c, 0, 94, 0
1, 269039, Note_on_c, 0, 91, 69
1, 269108, Note_on_c, 0, 91, 0
1, 269108, Note_on_c, 0, 94, 77
1, 269108, Note_on_c, 0, 67, 0
1, 269111, Note_on_c, 0, 58, 0
1, 269111, Note_on_c, 0, 53, 0
1, 269111, Note_on_c, 0, 53, 60
1, 269111, Control_c, 0, 64, 0
1, 269133, Control_c, 0, 64, 127
1, 269169, Note_on_c, 0, 94, 0
1, 269169, Note_on_c, 0, 93, 70
1, 269231, Note_on_c, 0, 93, 0
1, 269231, Note_on_c, 0, 96, 70
1, 269231, Note_on_c, 0, 60, 53
1, 269234, Note_on_c, 0, 58, 53
1, 269292, Note_on_c, 0, 96, 0
1, 269292, Note_on_c, 0, 94, 70
1, 269353, Note_on_c, 0, 94, 0
1, 269353, Note_on_c, 0, 91, 73
1, 269353, Note_on_c, 0, 60, 0
1, 269356, Note_on_c, 0, 64, 53
1, 269414, Note_on_c, 0, 91, 0
1, 269414, Note_on_c, 0, 88, 70
1, 269483, Note_on_c, 0, 88, 0
1, 269483, Note_on_c, 0, 93, 75
1, 269483, Note_on_c, 0, 64, 0
1, 269486, Note_on_c, 0, 58, 0
1, 269486, Note_on_c, 0, 53, 0
1, 269486, Note_on_c, 0, 53, 61
1, 269489, Control_c, 0, 64, 0
1, 269512, Control_c, 0, 64, 127
1, 269545, Note_on_c, 0, 93, 0
1, 269545, Note_on_c, 0, 92, 70
1, 269606, Note_on_c, 0, 92, 0
1, 269606, Note_on_c, 0, 94, 70
1, 269606, Note_on_c, 0, 60, 53
1, 269609, Note_on_c, 0, 57, 53
1, 269667, Note_on_c, 0, 94, 0
1, 269667, Note_on_c, 0, 93, 70
1, 269729, Note_on_c, 0, 93, 0
1, 269729, Note_on_c, 0, 89, 71
1, 269729, Note_on_c, 0, 60, 0
1, 269732, Note_on_c, 0, 65, 53
1, 269790, Note_on_c, 0, 89, 0
1, 269790, Note_on_c, 0, 84, 70
1, 269859, Note_on_c, 0, 84, 0
1, 269859, Note_on_c, 0, 86, 75
1, 269859, Note_on_c, 0, 65, 0
1, 269862, Note_on_c, 0, 57, 0
1, 269862, Note_on_c, 0, 53, 0
1, 269862, Note_on_c, 0, 53, 58
1, 269862, Control_c, 0, 64, 0
1, 269899, Control_c, 0, 64, 127
1, 269920, Note_on_c, 0, 86, 0
1, 269920, Note_on_c, 0, 85, 70
1, 269981, Note_on_c, 0, 85, 0
1, 269981, Note_on_c, 0, 88, 69
1, 269981, Note_on_c, 0, 62, 52
1, 269984, Note_on_c, 0, 59, 52
1, 270043, Note_on_c, 0, 88, 0
1, 270043, Note_on_c, 0, 86, 68
1, 270104, Note_on_c, 0, 86, 0
1, 270104, Note_on_c, 0, 83, 70
1, 270104, Note_on_c, 0, 62, 0
1, 270107, Note_on_c, 0, 67, 51
1, 270165, Note_on_c, 0, 83, 0
1, 270165, Note_on_c, 0, 79, 64
1, 270234, Note_on_c, 0, 79, 0
1, 270234, Note_on_c, 0, 85, 72
1, 270234, Note_on_c, 0, 67, 0
1, 270237, Note_on_c, 0, 59, 0
1, 270237, Note_on_c, 0, 53, 0
1, 270237, Note_on_c, 0, 53, 57
1, 270240, Control_c, 0, 64, 0
1, 270260, Control_c, 0, 64, 127
1, 270296, Note_on_c, 0, 85, 0
1, 270296, Note_on_c, 0, 84, 66
1, 270357, Note_on_c, 0, 84, 0
1, 270357, Note_on_c, 0, 87, 65
1, 270357, Note_on_c, 0, 61, 49
1, 270360, Note_on_c, 0, 58, 49
1, 270419, Note_on_c, 0, 87, 0
1, 270419, Note_on_c, 0, 85, 65
1, 270480, Note_on_c, 0, 85, 0
1, 270480, Note_on_c, 0, 82, 66
1, 270480, Note_on_c, 0, 61, 0
1, 270483, Note_on_c, 0, 67, 48
1, 270542, Note_on_c, 0, 82, 0
1, 270542, Note_on_c, 0, 79, 63
1, 270611, Note_on_c, 0, 79, 0
1, 270611, Note_on_c, 0, 82, 69
1, 270611, Note_on_c, 0, 67, 0
1, 270614, Note_on_c, 0, 58, 0
1, 270614, Note_on_c, 0, 53, 0
1, 270614, Note_on_c, 0, 53, 54
1, 270614, Control_c, 0, 64, 0
1, 270640, Control_c, 0, 64, 127
1, 270672, Note_on_c, 0, 82, 0
1, 270672, Note_on_c, 0, 81, 63
1, 270734, Note_on_c, 0, 81, 0
1, 270734, Note_on_c, 0, 84, 62
1, 270734, Note_on_c, 0, 60, 47
1, 270737, Note_on_c, 0, 58, 47
1, 270795, Note_on_c, 0, 84, 0
1, 270795, Note_on_c, 0, 82, 62
1, 270856, Note_on_c, 0, 82, 0
1, 270856, Note_on_c, 0, 79, 64
1, 270856, Note_on_c, 0, 60, 0
1, 270859, Note_on_c, 0, 64, 46
1, 270918, Note_on_c, 0, 79, 0
1, 270918, Note_on_c, 0, 76, 61
1, 270987, Note_on_c, 0, 76, 0
1, 270987, Note_on_c, 0, 81, 65
1, 270987, Note_on_c, 0, 64, 0
1, 270990, Note_on_c, 0, 58, 0
1, 270990, Note_on_c, 0, 53, 0
1, 270990, Note_on_c, 0, 53, 52
1, 270990, Control_c, 0, 64, 0
1, 271025, Control_c, 0, 64, 127
1, 271048, Note_on_c, 0, 81, 0
1, 271048, Note_on_c, 0, 80, 60
1, 271110, Note_on_c, 0, 80, 0
1, 271110, Note_on_c, 0, 82, 60
1, 271110, Note_on_c, 0, 60, 45
1, 271113, Note_on_c, 0, 57, 45
1, 271172, Note_on_c, 0, 82, 0
1, 271172, Note_on_c, 0, 81, 58
1, 271234, Note_on_c, 0, 81, 0
1, 271234, Note_on_c, 0, 77, 58
1, 271234, Note_on_c, 0, 60, 0
1, 271237, Note_on_c, 0, 65, 44
1, 271295, Note_on_c, 0, 77, 0
1, 271295, Note_on_c, 0, 72, 57
1, 271364, Note_on_c, 0, 72, 0
1, 271364, Note_on_c, 0, 74, 62
1, 271364, Note_on_c, 0, 65, 0
1, 271367, Note_on_c, 0, 57, 0
1, 271367, Note_on_c, 0, 53, 0
1, 271367, Note_on_c, 0, 41, 48
1, 271367, Control_c, 0, 64, 0
1, 271393, Control_c, 0, 64, 127
1, 271426, Note_on_c, 0, 74, 0
1, 271426, Note_on_c, 0, 73, 57
1, 271488, Note_on_c, 0, 73, 0
1, 271488, Note_on_c, 0, 76, 57
1, 271488, Note_on_c, 0, 50, 44
1, 271491, Note_on_c, 0, 47, 44
1, 271549, Note_on_c, 0, 76, 0
1, 271549, Note_on_c, 0, 74, 57
1, 271611, Note_on_c, 0, 74, 0
1, 271611, Note_on_c, 0, 71, 58
1, 271611, Note_on_c, 0, 50, 0
1, 271614, Note_on_c, 0, 55, 44
1, 271673, Note_on_c, 0, 71, 0
1, 271673, Note_on_c, 0, 67, 55
1, 271742, Note_on_c, 0, 67, 0
1, 271742, Note_on_c, 0, 73, 62
1, 271742, Note_on_c, 0, 55, 0
1, 271745, Note_on_c, 0, 47, 0
1, 271745, Note_on_c, 0, 41, 0
1, 271745, Note_on_c, 0, 41, 49
1, 271748, Control_c, 0, 64, 0
1, 271780, Control_c, 0, 64, 127
1, 271804, Note_on_c, 0, 73, 0
1, 271804, Note_on_c, 0, 72, 57
1, 271866, Note_on_c, 0, 72, 0
1, 271866, Note_on_c, 0, 75, 57
1, 271866, Note_on_c, 0, 49, 44
1, 271869, Note_on_c, 0, 46, 44
1, 271927, Note_on_c, 0, 75, 0
1, 271927, Note_on_c, 0, 73, 57
1, 271989, Note_on_c, 0, 73, 0
1, 271989, Note_on_c, 0, 70, 58
1, 271989, Note_on_c, 0, 49, 0
1, 271992, Note_on_c, 0, 55, 44
1, 272051, Note_on_c, 0, 70, 0
1, 272051, Note_on_c, 0, 67, 56
1, 272120, Note_on_c, 0, 67, 0
1, 272120, Note_on_c, 0, 70, 62
1, 272120, Note_on_c, 0, 55, 0
1, 272123, Note_on_c, 0, 46, 0
1, 272123, Note_on_c, 0, 41, 0
1, 272123, Note_on_c, 0, 41, 48
1, 272123, Control_c, 0, 64, 0
1, 272152, Control_c, 0, 64, 127
1, 272181, Note_on_c, 0, 70, 0
1, 272181, Note_on_c, 0, 69, 57
1, 272243, Note_on_c, 0, 69, 0
1, 272243, Note_on_c, 0, 72, 57
1, 272243, Note_on_c, 0, 48, 44
1, 272246, Note_on_c, 0, 46, 44
1, 272305, Note_on_c, 0, 72, 0
1, 272305, Note_on_c, 0, 70, 57
1, 272366, Note_on_c, 0, 70, 0
1, 272366, Note_on_c, 0, 67, 60
1, 272366, Note_on_c, 0, 48, 0
1, 272369, Note_on_c, 0, 52, 44
1, 272428, Note_on_c, 0, 67, 0
1, 272428, Note_on_c, 0, 64, 57
1, 272497, Note_on_c, 0, 64, 0
1, 272497, Note_on_c, 0, 69, 62
1, 272497, Note_on_c, 0, 52, 0
1, 272500, Note_on_c, 0, 46, 0
1, 272500, Note_on_c, 0, 41, 0
1, 272500, Note_on_c, 0, 41, 49
1, 272503, Control_c, 0, 64, 0
1, 272526, Control_c, 0, 64, 127
1, 272559, Note_on_c, 0, 69, 0
1, 272559, Note_on_c, 0, 68, 57
1, 272620, Note_on_c, 0, 68, 0
1, 272620, Note_on_c, 0, 70, 57
1, 272620, Note_on_c, 0, 48, 44
1, 272623, Note_on_c, 0, 45, 44
1, 272682, Note_on_c, 0, 70, 0
1, 272682, Note_on_c, 0, 69, 57
1, 272744, Note_on_c, 0, 69, 0
1, 272744, Note_on_c, 0, 65, 57
1, 272744, Note_on_c, 0, 48, 0
1, 272747, Note_on_c, 0, 53, 44
1, 272806, Note_on_c, 0, 65, 0
1, 272806, Note_on_c, 0, 60, 57
1, 272874, Note_on_c, 0, 60, 0
1, 272874, Note_on_c, 0, 62, 53
1, 272874, Note_on_c, 0, 53, 0
1, 272877, Note_on_c, 0, 45, 0
1, 272877, Note_on_c, 0, 41, 0
1, 272877, Control_c, 0, 64, 0
1, 272880, Note_on_c, 0, 29, 41
1, 272937, Note_on_c, 0, 61, 49
1, 272947, Note_on_c, 0, 62, 0
1, 272999, Note_on_c, 0, 64, 49
1, 272999, Note_on_c, 0, 38, 38
1, 273009, Note_on_c, 0, 61, 0
1, 273061, Note_on_c, 0, 62, 48
1, 273072, Note_on_c, 0, 64, 0
1, 273124, Note_on_c, 0, 59, 49
1, 273124, Note_on_c, 0, 38, 0
1, 273124, Note_on_c, 0, 43, 37
1, 273134, Note_on_c, 0, 62, 0
1, 273186, Note_on_c, 0, 55, 46
1, 273198, Note_on_c, 0, 59, 0
1, 273255, Note_on_c, 0, 61, 52
1, 273255, Note_on_c, 0, 43, 0
1, 273255, Note_on_c, 0, 29, 0
1, 273258, Note_on_c, 0, 29, 41
1, 273265, Note_on_c, 0, 55, 0
1, 273318, Note_on_c, 0, 60, 48
1, 273328, Note_on_c, 0, 61, 0
1, 273380, Note_on_c, 0, 63, 47
1, 273380, Note_on_c, 0, 37, 37
1, 273391, Note_on_c, 0, 60, 0
1, 273443, Note_on_c, 0, 61, 47
1, 273453, Note_on_c, 0, 63, 0
1, 273505, Note_on_c, 0, 58, 48
1, 273505, Note_on_c, 0, 37, 0
1, 273505, Note_on_c, 0, 43, 36
1, 273516, Note_on_c, 0, 61, 0
1, 273568, Note_on_c, 0, 55, 46
1, 273579, Note_on_c, 0, 58, 0
1, 273637, Note_on_c, 0, 58, 51
1, 273637, Note_on_c, 0, 43, 0
1, 273637, Note_on_c, 0, 29, 0
1, 273640, Note_on_c, 0, 29, 39
1, 273647, Note_on_c, 0, 55, 0
1, 273700, Note_on_c, 0, 57, 47
1, 273710, Note_on_c, 0, 58, 0
1, 273762, Note_on_c, 0, 60, 47
1, 273762, Note_on_c, 0, 36, 36
1, 273773, Note_on_c, 0, 57, 0
1, 273825, Note_on_c, 0, 58, 46
1, 273836, Note_on_c, 0, 60, 0
1, 273888, Note_on_c, 0, 55, 48
1, 273888, Note_on_c, 0, 36, 0
1, 273888, Note_on_c, 0, 40, 36
1, 273898, Note_on_c, 0, 58, 0
1, 273951, Note_on_c, 0, 52, 46
1, 273962, Note_on_c, 0, 55, 0
1, 274019, Note_on_c, 0, 55, 49
1, 274019, Note_on_c, 0, 40, 0
1, 274019, Note_on_c, 0, 29, 0
1, 274022, Note_on_c, 0, 29, 39
1, 274030, Note_on_c, 0, 52, 0
1, 274082, Note_on_c, 0, 54, 46
1, 274093, Note_on_c, 0, 55, 0
1, 274145, Note_on_c, 0, 57, 46
1, 274145, Note_on_c, 0, 36, 41
1, 274155, Note_on_c, 0, 54, 0
1, 274208, Note_on_c, 0, 55, 46
1, 274218, Note_on_c, 0, 57, 0
1, 274270, Note_on_c, 0, 52, 45
1, 274281, Note_on_c, 0, 55, 0
1, 274333, Note_on_c, 0, 48, 45
1, 274345, Note_on_c, 0, 52, 0
1, 274402, Note_on_c, 0, 48, 0
1, 274402, Note_on_c, 0, 53, 48
1, 274402, Note_on_c, 0, 36, 0
1, 274405, Note_on_c, 0, 29, 0
1, 274405, Note_on_c, 0, 29, 38
1, 274465, Note_on_c, 0, 52, 45
1, 274476, Note_on_c, 0, 53, 0
1, 274528, Note_on_c, 0, 53, 45
1, 274528, Note_on_c, 0, 36, 40
1, 274539, Note_on_c, 0, 52, 0
1, 274592, Note_on_c, 0, 48, 44
1, 274602, Note_on_c, 0, 53, 0
1, 274655, Note_on_c, 0, 45, 46
1, 274665, Note_on_c, 0, 48, 0
1, 274718, Note_on_c, 0, 48, 44
1, 274730, Note_on_c, 0, 45, 0
1, 274787, Note_on_c, 0, 52, 47
1, 274787, Note_on_c, 0, 36, 0
1, 274787, Note_on_c, 0, 29, 0
1, 274790, Note_on_c, 0, 29, 38
1, 274798, Note_on_c, 0, 48, 0
1, 274852, Note_on_c, 0, 51, 44
1, 274863, Note_on_c, 0, 52, 0
1, 274917, Note_on_c, 0, 52, 44
1, 274917, Note_on_c, 0, 37, 40
1, 274928, Note_on_c, 0, 51, 0
1, 274982, Note_on_c, 0, 46, 44
1, 274993, Note_on_c, 0, 52, 0
1, 275047, Note_on_c, 0, 43, 43
1, 275058, Note_on_c, 0, 46, 0
1, 275113, Note_on_c, 0, 46, 43
1, 275124, Note_on_c, 0, 43, 0
1, 275184, Note_on_c, 0, 53, 46
1, 275184, Note_on_c, 0, 37, 0
1, 275184, Note_on_c, 0, 29, 0
1, 275187, Note_on_c, 0, 29, 36
1, 275195, Note_on_c, 0, 46, 0
1, 275250, Note_on_c, 0, 52, 43
1, 275261, Note_on_c, 0, 53, 0
1, 275316, Note_on_c, 0, 53, 43
1, 275316, Note_on_c, 0, 36, 38
1, 275327, Note_on_c, 0, 52, 0
1, 275382, Note_on_c, 0, 48, 43
1, 275393, Note_on_c, 0, 53, 0
1, 275449, Note_on_c, 0, 45, 45
1, 275460, Note_on_c, 0, 48, 0
1, 275515, Note_on_c, 0, 48, 43
1, 275527, Note_on_c, 0, 45, 0
1, 275587, Note_on_c, 0, 52, 46
1, 275587, Note_on_c, 0, 36, 0
1, 275587, Note_on_c, 0, 29, 0
1, 275590, Note_on_c, 0, 29, 37
1, 275598, Note_on_c, 0, 48, 0
1, 275654, Note_on_c, 0, 51, 43
1, 275666, Note_on_c, 0, 52, 0
1, 275722, Note_on_c, 0, 52, 43
1, 275722, Note_on_c, 0, 37, 39
1, 275733, Note_on_c, 0, 51, 0
1, 275790, Note_on_c, 0, 46, 43
1, 275801, Note_on_c, 0, 52, 0
1, 275857, Note_on_c, 0, 43, 43
1, 275869, Note_on_c, 0, 46, 0
1, 275925, Note_on_c, 0, 46, 43
1, 275937, Note_on_c, 0, 43, 0
1, 275999, Note_on_c, 0, 53, 46
1, 275999, Note_on_c, 0, 37, 0
1, 275999, Note_on_c, 0, 29, 0
1, 276002, Note_on_c, 0, 29, 36
1, 276011, Note_on_c, 0, 46, 0
1, 276069, Note_on_c, 0, 52, 43
1, 276080, Note_on_c, 0, 53, 0
1, 276138, Note_on_c, 0, 53, 43
1, 276138, Note_on_c, 0, 36, 40
1, 276150, Note_on_c, 0, 52, 0
1, 276208, Note_on_c, 0, 48, 43
1, 276219, Note_on_c, 0, 53, 0
1, 276277, Note_on_c, 0, 45, 45
1, 276289, Note_on_c, 0, 48, 0
1, 276347, Note_on_c, 0, 48, 43
1, 276360, Note_on_c, 0, 45, 0
1, 276424, Note_on_c, 0, 52, 46
1, 276424, Note_on_c, 0, 36, 0
1, 276424, Note_on_c, 0, 29, 0
1, 276427, Note_on_c, 0, 29, 37
1, 276436, Note_on_c, 0, 48, 0
1, 276496, Note_on_c, 0, 51, 43
1, 276508, Note_on_c, 0, 52, 0
1, 276568, Note_on_c, 0, 52, 43
1, 276568, Note_on_c, 0, 37, 39
1, 276580, Note_on_c, 0, 51, 0
1, 276639, Note_on_c, 0, 46, 43
1, 276651, Note_on_c, 0, 52, 0
1, 276711, Note_on_c, 0, 43, 43
1, 276723, Note_on_c, 0, 46, 0
1, 276783, Note_on_c, 0, 46, 43
1, 276796, Note_on_c, 0, 43, 0
1, 276860, Note_on_c, 0, 46, 0
1, 276860, Note_on_c, 0, 53, 43
1, 276860, Note_on_c, 0, 45, 37
1, 276863, Note_on_c, 0, 37, 0
1, 276863, Note_on_c, 0, 36, 35
1, 277016, Note_on_c, 0, 45, 0
1, 277016, Note_on_c, 0, 53, 0
1, 277016, Note_on_c, 0, 36, 0
1, 277019, Note_on_c, 0, 29, 0
1, 277335, Note_on_c, 0, 64, 37
1, 277335, Note_on_c, 0, 72, 43
1, 277335, Note_on_c, 0, 48, 32
1, 277338, Note_on_c, 0, 58, 37
1, 277414, Note_on_c, 0, 72, 0
1, 277414, Note_on_c, 0, 64, 0
1, 277414, Note_on_c, 0, 58, 0
1, 277417, Note_on_c, 0, 48, 0
1, 277813, Note_on_c, 0, 57, 37
1, 277813, Note_on_c, 0, 65, 43
1, 277813, Note_on_c, 0, 41, 32
1, 277816, Note_on_c, 0, 48, 37
1, 277892, Note_on_c, 0, 65, 0
1, 277892, Note_on_c, 0, 57, 0
1, 277892, Note_on_c, 0, 48, 0
1, 277895, Note_on_c, 0, 41, 0
1, 279393, End_track
0, 0, End_of_file
